<svg clip-rule="evenodd" fill-rule="evenodd" stroke-linejoin="round" stroke-miterlimit="2" viewBox="0 0 46 46" xmlns="http://www.w3.org/2000/svg"><g fill-rule="nonzero"><path d="m44.382 23.914c0 11.559-9.371 20.93-20.93 20.93-11.56 0-20.93-9.371-20.93-20.93 0-11.56 9.37-20.93 20.93-20.93 11.559 0 20.93 9.37 20.93 20.93" fill="#b4292f"/><path d="m23.452 3.484c-11.265 0-20.43 9.165-20.43 20.43s9.165 20.43 20.43 20.43 20.43-9.165 20.43-20.43-9.165-20.43-20.43-20.43m0 41.86c-11.816 0-21.43-9.613-21.43-21.43 0-11.816 9.614-21.43 21.43-21.43s21.431 9.614 21.431 21.43c0 11.817-9.615 21.43-21.431 21.43" fill="#231f20"/><path d="m42.521 21.495c0 11.56-9.371 20.93-20.93 20.93s-20.93-9.37-20.93-20.93c0-11.559 9.371-20.93 20.93-20.93s20.93 9.371 20.93 20.93" fill="#ed1c24"/><path d="m21.591 1.065c-11.265 0-20.43 9.165-20.43 20.43s9.165 20.43 20.43 20.43 20.43-9.165 20.43-20.43-9.165-20.43-20.43-20.43m0 41.86c-11.816 0-21.43-9.613-21.43-21.43 0-11.816 9.614-21.43 21.43-21.43s21.43 9.614 21.43 21.43c0 11.817-9.614 21.43-21.43 21.43" fill="#231f20"/><path d="m36.382 21.496c0 8.169-6.622 14.791-14.791 14.791-8.168 0-14.791-6.622-14.791-14.791 0-8.168 6.623-14.791 14.791-14.791 8.169 0 14.791 6.623 14.791 14.791" fill="#ed1c24"/><path d="m21.591 7.205c-7.88 0-14.291 6.411-14.291 14.291 0 7.879 6.411 14.291 14.291 14.291s14.291-6.412 14.291-14.291c0-7.88-6.411-14.291-14.291-14.291m0 29.582c-8.431 0-15.291-6.86-15.291-15.291 0-8.432 6.86-15.291 15.291-15.291 8.432 0 15.291 6.859 15.291 15.291 0 8.431-6.859 15.291-15.291 15.291" fill="#231f20"/><path d="m2.696 21.961c-.417-3.977.671-8.167 2.973-11.598 2.281-3.472 5.832-6.069 9.787-7.383 1.981-.649 4.086-.961 6.159-.945 2.081.057 4.111.339 6.096.937 2.014.588 3.866 1.707 5.346 3.115 1.477 1.422 2.673 3.041 3.731 4.73-1.41-1.408-2.799-2.835-4.368-3.965-1.549-1.156-3.281-1.953-5.113-2.357-3.746-.787-7.665-.835-11.228.382-1.793.571-3.495 1.428-5.04 2.51-1.565 1.06-2.931 2.39-4.112 3.881-2.345 3.006-3.816 6.73-4.231 10.693" fill="#fff" opacity=".59"/></g></svg>