<svg clip-rule="evenodd" fill-rule="evenodd" stroke-miterlimit="10" viewBox="0 0 210 49" xmlns="http://www.w3.org/2000/svg"><g fill-rule="nonzero"><path d="m204.228 43.836v-15.375l-7.725-4.117 7.725-4.363v-14.91h-199.076v38.765z" fill="#f7f39a" stroke="#ffd211"/><g fill="#231f20"><path d="m15.604 21.111h4.745v-.949h-3.666v-8.671h-1.079z"/><path d="m28.357 14.117h-.962v1.469c-.338-.793-1.365-1.664-2.86-1.664-2.132 0-3.627 1.638-3.627 3.692 0 1.924 1.352 3.692 3.627 3.692 1.248 0 2.314-.585 2.86-1.638v1.443h.962zm-6.5 3.497c0-1.56 1.17-2.808 2.782-2.808 1.235 0 2.171.715 2.561 1.677.156.338.234.728.221 1.118 0 .377-.078.767-.234 1.105-.377.988-1.287 1.703-2.522 1.703-1.924 0-2.795-1.521-2.808-2.782z"/><path d="m40.772 17.887c.104-1.118-.286-2.197-1.092-2.977-.663-.637-1.573-.988-2.561-.988-2.093 0-3.679 1.651-3.679 3.705 0 1.742 1.261 3.679 3.692 3.679.715 0 1.404-.195 1.989-.572.598-.377 1.092-.949 1.417-1.703h-1.001c-.455.91-1.326 1.443-2.405 1.443-1.183.013-2.678-.832-2.73-2.587zm-6.357-.767c.091-1.274 1.209-2.379 2.717-2.379 1.443-.039 2.626 1.157 2.691 2.379z"/><path d="m49.131 11.491h-.962v4.043c-.312-.728-1.326-1.612-2.86-1.612-2.093 0-3.601 1.599-3.601 3.679 0 1.963 1.378 3.705 3.614 3.705 1.456 0 2.392-.715 2.886-1.638v1.443h.923zm-6.474 6.11c0-1.573 1.183-2.795 2.795-2.795.78 0 1.482.299 1.976.806.507.494.806 1.17.806 1.963.026.78-.273 1.495-.78 2.015-.494.507-1.209.819-1.989.819-1.82 0-2.795-1.391-2.808-2.795z"/><path d="m57.464 14.117h-.962v3.952c0 1.456-.832 2.327-2.288 2.34-1.573.013-2.249-1.001-2.249-2.509v-3.783h-.949v3.965c0 1.703.767 3.185 2.951 3.224 1.248.013 2.197-.533 2.587-1.443v1.248h.91z"/><path d="m65.147 18.745c-.299.845-1.196 1.651-2.535 1.664-1.508 0-2.756-1.144-2.756-2.795 0-.806.325-1.56.793-2.015.585-.546 1.157-.793 1.976-.793.988 0 2.093.546 2.535 1.729h.988c-.481-1.677-1.989-2.613-3.562-2.613-2.119 0-3.692 1.625-3.692 3.692 0 1.872 1.391 3.692 3.757 3.692 1.677 0 3.042-1.079 3.497-2.561z"/><path d="m74.545 14.117h-.962v1.469c-.338-.793-1.365-1.664-2.86-1.664-2.132 0-3.627 1.638-3.627 3.692 0 1.924 1.352 3.692 3.627 3.692 1.248 0 2.314-.585 2.86-1.638v1.443h.962zm-6.5 3.497c0-1.56 1.17-2.808 2.782-2.808 1.235 0 2.171.715 2.561 1.677.156.338.234.728.221 1.118 0 .377-.078.767-.234 1.105-.377.988-1.287 1.703-2.522 1.703-1.924 0-2.795-1.521-2.808-2.782z"/><path d="m82.228 18.745c-.299.845-1.196 1.651-2.535 1.664-1.508 0-2.756-1.144-2.756-2.795 0-.806.325-1.56.793-2.015.585-.546 1.157-.793 1.976-.793.988 0 2.093.546 2.535 1.729h.988c-.481-1.677-1.989-2.613-3.562-2.613-2.119 0-3.692 1.625-3.692 3.692 0 1.872 1.391 3.692 3.757 3.692 1.677 0 3.042-1.079 3.497-2.561z"/><path d="m84.607 12.83h.962v-1.339h-.962zm0 8.281h.962v-6.994h-.962z"/><path d="m87.012 17.614c0 1.963 1.456 3.679 3.705 3.679 2.262 0 3.718-1.716 3.718-3.679s-1.456-3.692-3.718-3.692c-2.249 0-3.705 1.729-3.705 3.679zm.949 0c0-1.599 1.209-2.795 2.756-2.795 1.56 0 2.756 1.196 2.756 2.795s-1.196 2.795-2.756 2.795c-1.547 0-2.756-1.196-2.756-2.782zm1.157-4.927.312.624 3.133-1.677-.351-.702z"/><path d="m95.878 21.111h.962v-3.952c0-1.456.832-2.327 2.275-2.34 1.573-.026 2.249 1.001 2.249 2.509v3.783h.949v-3.978c0-1.703-.767-3.185-2.938-3.211-1.248-.026-2.197.533-2.6 1.443.013-.468.013-.858.013-1.248h-.91z"/><path d="m114.91 14.117h-.949v1.443c-.39-.858-1.456-1.638-2.834-1.638-2.132 0-3.653 1.612-3.653 3.705 0 2.015 1.469 3.679 3.653 3.679 1.352 0 2.327-.689 2.821-1.677v.897c0 1.742-1.365 2.782-2.704 2.782-.442 0-1.04-.143-1.547-.507-.416-.286-.663-.624-.832-.923h-1.105c.442 1.261 1.716 2.262 3.458 2.262.949 0 1.963-.403 2.652-1.079.611-.585 1.04-1.43 1.04-2.756zm-6.474 3.484c0-1.638 1.248-2.782 2.782-2.782 1.001 0 1.703.416 2.132.975.442.559.637 1.248.637 1.833-.013.767-.299 1.469-.78 1.976-.494.507-1.17.806-1.963.806-1.807 0-2.808-1.378-2.808-2.795z"/><path d="m116.769 21.111h.949v-3.809c0-1.586.754-2.431 2.106-2.431h.091v-.949c-.819.026-1.729.299-2.236 1.339v-1.144h-.91z"/><path d="m127.429 14.117h-.962v1.469c-.338-.793-1.365-1.664-2.86-1.664-2.132 0-3.627 1.638-3.627 3.692 0 1.924 1.352 3.692 3.627 3.692 1.248 0 2.314-.585 2.86-1.638v1.443h.962zm-6.5 3.497c0-1.56 1.17-2.808 2.782-2.808 1.235 0 2.171.715 2.561 1.677.156.338.234.728.221 1.118 0 .377-.078.767-.234 1.105-.377.988-1.287 1.703-2.522 1.703-1.924 0-2.795-1.521-2.808-2.782z"/><path d="m129.846 21.111h.949v-6.227h1.534v-.767h-1.534v-2.626h-.949v2.626h-1.378v.767h1.378z"/><path d="m139.817 14.117h-.962v3.952c0 1.456-.832 2.327-2.288 2.34-1.573.013-2.249-1.001-2.249-2.509v-3.783h-.949v3.965c0 1.703.767 3.185 2.951 3.224 1.248.013 2.197-.533 2.587-1.443v1.248h.91z"/><path d="m141.689 12.83h.962v-1.339h-.962zm0 8.281h.962v-6.994h-.962z"/><path d="m145.069 21.111h.949v-6.227h1.534v-.767h-1.534v-2.626h-.949v2.626h-1.378v.767h1.378z"/><path d="m155.235 14.117h-.962v1.469c-.338-.793-1.365-1.664-2.86-1.664-2.132 0-3.627 1.638-3.627 3.692 0 1.924 1.352 3.692 3.627 3.692 1.248 0 2.314-.585 2.86-1.638v1.443h.962zm-6.5 3.497c0-1.56 1.17-2.808 2.782-2.808 1.235 0 2.171.715 2.561 1.677.156.338.234.728.221 1.118 0 .377-.078.767-.234 1.105-.377.988-1.287 1.703-2.522 1.703-1.924 0-2.795-1.521-2.808-2.782z"/><path d="m161.527 23.763h1.04l3.991-9.646h-1.053l-2.262 5.655-2.197-5.655h-1.027l2.704 6.864z"/><path d="m178.271 14.117h-.962v1.469c-.338-.793-1.365-1.664-2.86-1.664-2.132 0-3.627 1.638-3.627 3.692 0 1.924 1.352 3.692 3.627 3.692 1.248 0 2.314-.585 2.86-1.638v1.443h.962zm-6.5 3.497c0-1.56 1.17-2.808 2.782-2.808 1.235 0 2.171.715 2.561 1.677.156.338.234.728.221 1.118 0 .377-.078.767-.234 1.105-.377.988-1.287 1.703-2.522 1.703-1.924 0-2.795-1.521-2.808-2.782z"/><path d="m15.565 27.494h.962v9.62h-.962z"/><path d="m17.957 33.617c0 1.963 1.456 3.679 3.705 3.679 2.262 0 3.718-1.716 3.718-3.679s-1.456-3.692-3.718-3.692c-2.249 0-3.705 1.729-3.705 3.679zm.949 0c0-1.599 1.209-2.795 2.756-2.795 1.56 0 2.756 1.196 2.756 2.795s-1.196 2.795-2.756 2.795c-1.547 0-2.756-1.196-2.756-2.782z"/><path d="m30.918 31.875c-.065-1.417-1.157-1.95-2.132-1.95-1.183 0-2.184.741-2.184 2.002.026 1.105.806 1.508 1.807 1.807 1.209.351 1.729.676 1.755 1.469.013.715-.546 1.313-1.352 1.313-.702 0-1.417-.429-1.456-1.391h-.949c.013 1.469 1.261 2.184 2.392 2.184 1.326 0 2.366-.936 2.314-2.223-.052-1.495-1.17-1.781-2.171-2.054-.845-.247-1.352-.52-1.378-1.183-.026-.611.442-1.131 1.209-1.131.702 0 1.196.416 1.196 1.157z"/><path d="m36.677 28.833h.962v-1.339h-.962zm.962 1.287h-.962v6.916c0 1.04-.091 1.82-1.105 1.989-.052.013-.117.013-.182.013v.806c.104-.013.208-.013.299-.013 1.846-.208 1.95-1.573 1.95-2.821z"/><path d="m46.141 30.12h-.962v3.952c0 1.456-.832 2.327-2.288 2.34-1.573.013-2.249-1.001-2.249-2.509v-3.783h-.949v3.965c0 1.703.767 3.185 2.951 3.224 1.248.013 2.197-.533 2.587-1.443v1.248h.91z"/><path d="m54.812 33.89c.104-1.118-.286-2.197-1.092-2.977-.663-.637-1.573-.988-2.561-.988-2.093 0-3.679 1.651-3.679 3.705 0 1.742 1.261 3.679 3.692 3.679.715 0 1.404-.195 1.989-.572.598-.377 1.092-.949 1.417-1.703h-1.001c-.455.91-1.326 1.443-2.405 1.443-1.183.013-2.678-.832-2.73-2.587zm-6.357-.767c.091-1.274 1.209-2.379 2.717-2.379 1.443-.039 2.626 1.157 2.691 2.379z"/><path d="m63.17 30.12h-.949v1.443c-.39-.858-1.456-1.638-2.834-1.638-2.132 0-3.653 1.612-3.653 3.705 0 2.015 1.469 3.679 3.653 3.679 1.352 0 2.327-.689 2.821-1.677v.897c0 1.742-1.365 2.782-2.704 2.782-.442 0-1.04-.143-1.547-.507-.416-.286-.663-.624-.832-.923h-1.105c.442 1.261 1.716 2.262 3.458 2.262.949 0 1.963-.403 2.652-1.079.611-.585 1.04-1.43 1.04-2.756zm-6.474 3.484c0-1.638 1.248-2.782 2.782-2.782 1.001 0 1.703.416 2.132.975.442.559.637 1.248.637 1.833-.013.767-.299 1.469-.78 1.976-.494.507-1.17.806-1.963.806-1.807 0-2.808-1.378-2.808-2.795z"/><path d="m64.6 33.617c0 1.963 1.456 3.679 3.705 3.679 2.262 0 3.718-1.716 3.718-3.679s-1.456-3.692-3.718-3.692c-2.249 0-3.705 1.729-3.705 3.679zm.949 0c0-1.599 1.209-2.795 2.756-2.795 1.56 0 2.756 1.196 2.756 2.795s-1.196 2.795-2.756 2.795c-1.547 0-2.756-1.196-2.756-2.782z"/><path d="m77.561 31.875c-.065-1.417-1.157-1.95-2.132-1.95-1.183 0-2.184.741-2.184 2.002.026 1.105.806 1.508 1.807 1.807 1.209.351 1.729.676 1.755 1.469.013.715-.546 1.313-1.352 1.313-.702 0-1.417-.429-1.456-1.391h-.949c.013 1.469 1.261 2.184 2.392 2.184 1.326 0 2.366-.936 2.314-2.223-.052-1.495-1.17-1.781-2.171-2.054-.845-.247-1.352-.52-1.378-1.183-.026-.611.442-1.131 1.209-1.131.702 0 1.196.416 1.196 1.157z"/><path d="m79.589 35.684h1.014v1.43h-1.014z"/></g></g></svg>