<svg clip-rule="evenodd" fill-rule="evenodd" stroke-miterlimit="10" viewBox="0 0 209 50" xmlns="http://www.w3.org/2000/svg"><g fill-rule="nonzero"><path d="m196.453 29.954 6.924-3.911v-.949l-6.924-3.691v-7.466h6.924v-8.768h-198.225v38.766h198.225v-6.984h-6.924z" fill="#f6aece" stroke="#c36aaa"/><g fill="#231f20"><path d="m15.604 21.137h4.745v-.949h-3.666v-8.671h-1.079z"/><path d="m28.357 14.143h-.962v1.469c-.338-.793-1.365-1.664-2.86-1.664-2.132 0-3.627 1.638-3.627 3.692 0 1.924 1.352 3.692 3.627 3.692 1.248 0 2.314-.585 2.86-1.638v1.443h.962zm-6.5 3.497c0-1.56 1.17-2.808 2.782-2.808 1.235 0 2.171.715 2.561 1.677.156.338.234.728.221 1.118 0 .377-.078.767-.234 1.105-.377.988-1.287 1.703-2.522 1.703-1.924 0-2.795-1.521-2.808-2.782z"/><path d="m33.973 23.789h.962v-4.082c.325.728 1.326 1.625 2.873 1.625 2.171 0 3.588-1.716 3.588-3.666 0-1.807-1.235-3.718-3.588-3.718-1.339 0-2.353.637-2.925 1.651v-1.456h-.91zm6.461-6.149c0 1.599-1.209 2.795-2.782 2.795-.78 0-1.482-.299-1.976-.793-.507-.507-.806-1.209-.806-1.989 0-.793.299-1.495.78-2.002.507-.507 1.196-.819 1.976-.819 1.885 0 2.808 1.482 2.808 2.795z"/><path d="m42.865 21.137h.949v-3.809c0-1.586.754-2.431 2.106-2.431h.091v-.949c-.819.026-1.729.299-2.236 1.339v-1.144h-.91z"/><path d="m46.076 17.64c0 1.963 1.456 3.679 3.705 3.679 2.262 0 3.718-1.716 3.718-3.679s-1.456-3.692-3.718-3.692c-2.249 0-3.705 1.729-3.705 3.679zm.949 0c0-1.599 1.209-2.795 2.756-2.795 1.56 0 2.756 1.196 2.756 2.795s-1.196 2.795-2.756 2.795c-1.547 0-2.756-1.196-2.756-2.782z"/><path d="m55.488 21.137h.949v-6.227h1.534v-.767h-1.534v-2.626h-.949v2.626h-1.378v.767h1.378z"/><path d="m65.432 17.913c.104-1.118-.286-2.197-1.092-2.977-.663-.637-1.573-.988-2.561-.988-2.093 0-3.679 1.651-3.679 3.705 0 1.742 1.261 3.679 3.692 3.679.715 0 1.404-.195 1.989-.572.598-.377 1.092-.949 1.417-1.703h-1.001c-.455.91-1.326 1.443-2.405 1.443-1.183.013-2.678-.832-2.73-2.587zm-6.357-.767c.091-1.274 1.209-2.379 2.717-2.379 1.443-.039 2.626 1.157 2.691 2.379z"/><path d="m72.608 18.771c-.299.845-1.196 1.651-2.535 1.664-1.508 0-2.756-1.144-2.756-2.795 0-.806.325-1.56.793-2.015.585-.546 1.157-.793 1.976-.793.988 0 2.093.546 2.535 1.729h.988c-.481-1.677-1.989-2.613-3.562-2.613-2.119 0-3.692 1.625-3.692 3.692 0 1.872 1.391 3.692 3.757 3.692 1.677 0 3.042-1.079 3.497-2.561z"/><path d="m80.798 18.771c-.299.845-1.196 1.651-2.535 1.664-1.508 0-2.756-1.144-2.756-2.795 0-.806.325-1.56.793-2.015.585-.546 1.157-.793 1.976-.793.988 0 2.093.546 2.535 1.729h.988c-.481-1.677-1.989-2.613-3.562-2.613-2.119 0-3.692 1.625-3.692 3.692 0 1.872 1.391 3.692 3.757 3.692 1.677 0 3.042-1.079 3.497-2.561z"/><path d="m83.177 12.856h.962v-1.339h-.962zm0 8.281h.962v-6.994h-.962z"/><path d="m85.582 17.64c0 1.963 1.456 3.679 3.705 3.679 2.262 0 3.718-1.716 3.718-3.679s-1.456-3.692-3.718-3.692c-2.249 0-3.705 1.729-3.705 3.679zm.949 0c0-1.599 1.209-2.795 2.756-2.795 1.56 0 2.756 1.196 2.756 2.795s-1.196 2.795-2.756 2.795c-1.547 0-2.756-1.196-2.756-2.782zm1.157-4.927.312.624 3.133-1.677-.351-.702z"/><path d="m94.448 21.137h.962v-3.952c0-1.456.832-2.327 2.275-2.34 1.573-.026 2.249 1.001 2.249 2.509v3.783h.949v-3.978c0-1.703-.767-3.185-2.938-3.211-1.248-.026-2.197.533-2.6 1.443.013-.468.013-.858.013-1.248h-.91z"/><path d="m112.297 18.771c-.299.845-1.196 1.651-2.535 1.664-1.508 0-2.756-1.144-2.756-2.795 0-.806.325-1.56.793-2.015.585-.546 1.157-.793 1.976-.793.988 0 2.093.546 2.535 1.729h.988c-.481-1.677-1.989-2.613-3.562-2.613-2.119 0-3.692 1.625-3.692 3.692 0 1.872 1.391 3.692 3.757 3.692 1.677 0 3.042-1.079 3.497-2.561z"/><path d="m114.246 17.64c0 1.963 1.456 3.679 3.705 3.679 2.262 0 3.718-1.716 3.718-3.679s-1.456-3.692-3.718-3.692c-2.249 0-3.705 1.729-3.705 3.679zm.949 0c0-1.599 1.209-2.795 2.756-2.795 1.56 0 2.756 1.196 2.756 2.795s-1.196 2.795-2.756 2.795c-1.547 0-2.756-1.196-2.756-2.782z"/><path d="m123.112 21.137h.962v-3.952c0-1.456.832-2.327 2.275-2.34 1.573-.026 2.249 1.001 2.249 2.509v3.783h.949v-3.978c0-1.703-.767-3.185-2.938-3.211-1.248-.026-2.197.533-2.6 1.443.013-.468.013-.858.013-1.248h-.91z"/><path d="m131.952 21.137h.949v-6.227h1.534v-.767h-1.534v-2.626h-.949v2.626h-1.378v.767h1.378z"/><path d="m135.488 21.137h.949v-3.809c0-1.586.754-2.431 2.106-2.431h.091v-.949c-.819.026-1.729.299-2.236 1.339v-1.144h-.91z"/><path d="m146.148 14.143h-.962v1.469c-.338-.793-1.365-1.664-2.86-1.664-2.132 0-3.627 1.638-3.627 3.692 0 1.924 1.352 3.692 3.627 3.692 1.248 0 2.314-.585 2.86-1.638v1.443h.962zm-6.5 3.497c0-1.56 1.17-2.808 2.782-2.808 1.235 0 2.171.715 2.561 1.677.156.338.234.728.221 1.118 0 .377-.078.767-.234 1.105-.377.988-1.287 1.703-2.522 1.703-1.924 0-2.795-1.521-2.808-2.782z"/><path d="m158.563 17.913c.104-1.118-.286-2.197-1.092-2.977-.663-.637-1.573-.988-2.561-.988-2.093 0-3.679 1.651-3.679 3.705 0 1.742 1.261 3.679 3.692 3.679.715 0 1.404-.195 1.989-.572.598-.377 1.092-.949 1.417-1.703h-1.001c-.455.91-1.326 1.443-2.405 1.443-1.183.013-2.678-.832-2.73-2.587zm-6.357-.767c.091-1.274 1.209-2.379 2.717-2.379 1.443-.039 2.626 1.157 2.691 2.379z"/><path d="m159.928 11.517h.962v9.62h-.962z"/><path d="m22.585 30.146h-.962v1.469c-.338-.793-1.365-1.664-2.86-1.664-2.132 0-3.627 1.638-3.627 3.692 0 1.924 1.352 3.692 3.627 3.692 1.248 0 2.314-.585 2.86-1.638v1.443h.962zm-6.5 3.497c0-1.56 1.17-2.808 2.782-2.808 1.235 0 2.171.715 2.561 1.677.156.338.234.728.221 1.118 0 .377-.078.767-.234 1.105-.377.988-1.287 1.703-2.522 1.703-1.924 0-2.795-1.521-2.808-2.782z"/><path d="m24.457 37.14h.923v-1.443c.52 1.001 1.547 1.638 2.86 1.638 2.119 0 3.627-1.599 3.627-3.705 0-2.184-1.612-3.679-3.601-3.679-1.209.013-2.262.611-2.847 1.599v-4.03h-.962zm6.448-3.497c0 1.352-.949 2.795-2.808 2.795-1.625 0-2.73-1.287-2.73-2.808 0-1.547 1.157-2.795 2.769-2.795 1.56 0 2.769 1.196 2.769 2.795z"/><path d="m40.317 30.146h-.962v1.469c-.338-.793-1.365-1.664-2.86-1.664-2.132 0-3.627 1.638-3.627 3.692 0 1.924 1.352 3.692 3.627 3.692 1.248 0 2.314-.585 2.86-1.638v1.443h.962zm-6.5 3.497c0-1.56 1.17-2.808 2.782-2.808 1.235 0 2.171.715 2.561 1.677.156.338.234.728.221 1.118 0 .377-.078.767-.234 1.105-.377.988-1.287 1.703-2.522 1.703-1.924 0-2.795-1.521-2.808-2.782z"/><path d="m42.189 37.14h.962v-3.952c0-1.456.832-2.327 2.275-2.34 1.573-.026 2.249 1.001 2.249 2.509v3.783h.949v-3.978c0-1.703-.767-3.185-2.938-3.211-1.248-.026-2.197.533-2.6 1.443.013-.468.013-.858.013-1.248h-.91z"/><path d="m57.477 27.52h-.962v4.043c-.312-.728-1.326-1.612-2.86-1.612-2.093 0-3.601 1.599-3.601 3.679 0 1.963 1.378 3.705 3.614 3.705 1.456 0 2.392-.715 2.886-1.638v1.443h.923zm-6.474 6.11c0-1.573 1.183-2.795 2.795-2.795.78 0 1.482.299 1.976.806.507.494.806 1.17.806 1.963.026.78-.273 1.495-.78 2.015-.494.507-1.209.819-1.989.819-1.82 0-2.795-1.391-2.808-2.795z"/><path d="m58.946 33.643c0 1.963 1.456 3.679 3.705 3.679 2.262 0 3.718-1.716 3.718-3.679s-1.456-3.692-3.718-3.692c-2.249 0-3.705 1.729-3.705 3.679zm.949 0c0-1.599 1.209-2.795 2.756-2.795 1.56 0 2.756 1.196 2.756 2.795s-1.196 2.795-2.756 2.795c-1.547 0-2.756-1.196-2.756-2.782z"/><path d="m67.812 37.14h.962v-3.952c0-1.456.832-2.327 2.275-2.34 1.573-.026 2.249 1.001 2.249 2.509v3.783h.949v-3.978c0-1.703-.767-3.185-2.938-3.211-1.248-.026-2.197.533-2.6 1.443.013-.468.013-.858.013-1.248h-.91z"/><path d="m75.676 33.643c0 1.963 1.456 3.679 3.705 3.679 2.262 0 3.718-1.716 3.718-3.679s-1.456-3.692-3.718-3.692c-2.249 0-3.705 1.729-3.705 3.679zm.949 0c0-1.599 1.209-2.795 2.756-2.795 1.56 0 2.756 1.196 2.756 2.795s-1.196 2.795-2.756 2.795c-1.547 0-2.756-1.196-2.756-2.782z"/><path d="m88.962 39.792h1.04l3.991-9.646h-1.053l-2.262 5.655-2.197-5.655h-1.027l2.704 6.864z"/><path d="m98.686 27.52h.962v9.62h-.962z"/><path d="m108.527 30.146h-.962v1.469c-.338-.793-1.365-1.664-2.86-1.664-2.132 0-3.627 1.638-3.627 3.692 0 1.924 1.352 3.692 3.627 3.692 1.248 0 2.314-.585 2.86-1.638v1.443h.962zm-6.5 3.497c0-1.56 1.17-2.808 2.782-2.808 1.235 0 2.171.715 2.561 1.677.156.338.234.728.221 1.118 0 .377-.078.767-.234 1.105-.377.988-1.287 1.703-2.522 1.703-1.924 0-2.795-1.521-2.808-2.782z"/><path d="m120.942 33.916c.104-1.118-.286-2.197-1.092-2.977-.663-.637-1.573-.988-2.561-.988-2.093 0-3.679 1.651-3.679 3.705 0 1.742 1.261 3.679 3.692 3.679.715 0 1.404-.195 1.989-.572.598-.377 1.092-.949 1.417-1.703h-1.001c-.455.91-1.326 1.443-2.405 1.443-1.183.013-2.678-.832-2.73-2.587zm-6.357-.767c.091-1.274 1.209-2.379 2.717-2.379 1.443-.039 2.626 1.157 2.691 2.379z"/><path d="m121.293 37.14h1.17l1.859-2.821 1.872 2.821h1.17l-2.457-3.588 2.327-3.406h-1.144l-1.768 2.691-1.755-2.691h-1.17l2.34 3.406z"/><path d="m128.391 39.792h.962v-4.082c.325.728 1.326 1.625 2.873 1.625 2.171 0 3.588-1.716 3.588-3.666 0-1.807-1.235-3.718-3.588-3.718-1.339 0-2.353.637-2.925 1.651v-1.456h-.91zm6.461-6.149c0 1.599-1.209 2.795-2.782 2.795-.78 0-1.482-.299-1.976-.793-.507-.507-.806-1.209-.806-1.989 0-.793.299-1.495.78-2.002.507-.507 1.196-.819 1.976-.819 1.885 0 2.808 1.482 2.808 2.795z"/><path d="m137.283 27.52h.962v9.62h-.962z"/><path d="m139.674 33.643c0 1.963 1.456 3.679 3.705 3.679 2.262 0 3.718-1.716 3.718-3.679s-1.456-3.692-3.718-3.692c-2.249 0-3.705 1.729-3.705 3.679zm.949 0c0-1.599 1.209-2.795 2.756-2.795 1.56 0 2.756 1.196 2.756 2.795s-1.196 2.795-2.756 2.795c-1.547 0-2.756-1.196-2.756-2.782z"/><path d="m149.086 37.14h.949v-6.227h1.534v-.767h-1.534v-2.626h-.949v2.626h-1.378v.767h1.378z"/><path d="m159.252 30.146h-.962v1.469c-.338-.793-1.365-1.664-2.86-1.664-2.132 0-3.627 1.638-3.627 3.692 0 1.924 1.352 3.692 3.627 3.692 1.248 0 2.314-.585 2.86-1.638v1.443h.962zm-6.5 3.497c0-1.56 1.17-2.808 2.782-2.808 1.235 0 2.171.715 2.561 1.677.156.338.234.728.221 1.118 0 .377-.078.767-.234 1.105-.377.988-1.287 1.703-2.522 1.703-1.924 0-2.795-1.521-2.808-2.782z"/><path d="m166.935 34.774c-.299.845-1.196 1.651-2.535 1.664-1.508 0-2.756-1.144-2.756-2.795 0-.806.325-1.56.793-2.015.585-.546 1.157-.793 1.976-.793.988 0 2.093.546 2.535 1.729h.988c-.481-1.677-1.989-2.613-3.562-2.613-2.119 0-3.692 1.625-3.692 3.692 0 1.872 1.391 3.692 3.757 3.692 1.677 0 3.042-1.079 3.497-2.561z"/><path d="m169.314 28.859h.962v-1.339h-.962zm0 8.281h.962v-6.994h-.962z"/><path d="m171.719 33.643c0 1.963 1.456 3.679 3.705 3.679 2.262 0 3.718-1.716 3.718-3.679s-1.456-3.692-3.718-3.692c-2.249 0-3.705 1.729-3.705 3.679zm.949 0c0-1.599 1.209-2.795 2.756-2.795 1.56 0 2.756 1.196 2.756 2.795s-1.196 2.795-2.756 2.795c-1.547 0-2.756-1.196-2.756-2.782zm1.157-4.927.312.624 3.133-1.677-.351-.702z"/><path d="m180.585 37.14h.962v-3.952c0-1.456.832-2.327 2.275-2.34 1.573-.026 2.249 1.001 2.249 2.509v3.783h.949v-3.978c0-1.703-.767-3.185-2.938-3.211-1.248-.026-2.197.533-2.6 1.443.013-.468.013-.858.013-1.248h-.91z"/><path d="m189.321 35.71h1.014v1.43h-1.014z"/></g></g></svg>