<?xml version="1.0" encoding="UTF-8" standalone="no"?><!DOCTYPE svg PUBLIC "-//W3C//DTD SVG 1.1//EN" "http://www.w3.org/Graphics/SVG/1.1/DTD/svg11.dtd"><svg width="100%" height="100%" viewBox="0 0 209 50" version="1.1" xmlns="http://www.w3.org/2000/svg" xmlns:xlink="http://www.w3.org/1999/xlink" xml:space="preserve" xmlns:serif="http://www.serif.com/" style="fill-rule:evenodd;clip-rule:evenodd;stroke-miterlimit:10;"><g><path d="M196.453,29.954l6.924,-3.911l0,-0.949l-6.924,-3.691l0,-7.466l6.924,0l0,-8.768l-198.225,0l0,38.766l198.225,0l0,-6.984l-6.924,0l0,-6.997Z" style="fill:#f6aece;fill-rule:nonzero;stroke:#c36aaa;stroke-width:1px;"/><g><path d="M15.604,21.137l4.745,0l0,-0.949l-3.666,0l0,-8.671l-1.079,0l0,9.62Z" style="fill:#231f20;fill-rule:nonzero;"/><path d="M28.357,14.143l-0.962,0l0,1.469c-0.338,-0.793 -1.365,-1.664 -2.86,-1.664c-2.132,0 -3.627,1.638 -3.627,3.692c0,1.924 1.352,3.692 3.627,3.692c1.248,0 2.314,-0.585 2.86,-1.638l0,1.443l0.962,0l0,-6.994Zm-6.5,3.497c0,-1.56 1.17,-2.808 2.782,-2.808c1.235,0 2.171,0.715 2.561,1.677c0.156,0.338 0.234,0.728 0.221,1.118c0,0.377 -0.078,0.767 -0.234,1.105c-0.377,0.988 -1.287,1.703 -2.522,1.703c-1.924,0 -2.795,-1.521 -2.808,-2.782l0,-0.013Z" style="fill:#231f20;fill-rule:nonzero;"/><path d="M33.973,23.789l0.962,0l0,-4.082c0.325,0.728 1.326,1.625 2.873,1.625c2.171,0 3.588,-1.716 3.588,-3.666c0,-1.807 -1.235,-3.718 -3.588,-3.718c-1.339,0 -2.353,0.637 -2.925,1.651l0,-1.456l-0.91,0l0,9.646Zm6.461,-6.149c0,1.599 -1.209,2.795 -2.782,2.795c-0.78,0 -1.482,-0.299 -1.976,-0.793c-0.507,-0.507 -0.806,-1.209 -0.806,-1.989c0,-0.793 0.299,-1.495 0.78,-2.002c0.507,-0.507 1.196,-0.819 1.976,-0.819c1.885,0 2.808,1.482 2.808,2.795l0,0.013Z" style="fill:#231f20;fill-rule:nonzero;"/><path d="M42.865,21.137l0.949,0l0,-3.809c0,-1.586 0.754,-2.431 2.106,-2.431l0.091,0l0,-0.949c-0.819,0.026 -1.729,0.299 -2.236,1.339l0,-1.144l-0.91,0l0,6.994Z" style="fill:#231f20;fill-rule:nonzero;"/><path d="M46.076,17.64c0,1.963 1.456,3.679 3.705,3.679c2.262,0 3.718,-1.716 3.718,-3.679c0,-1.963 -1.456,-3.692 -3.718,-3.692c-2.249,0 -3.705,1.729 -3.705,3.679l0,0.013Zm0.949,0c0,-1.599 1.209,-2.795 2.756,-2.795c1.56,0 2.756,1.196 2.756,2.795c0,1.599 -1.196,2.795 -2.756,2.795c-1.547,0 -2.756,-1.196 -2.756,-2.782l0,-0.013Z" style="fill:#231f20;fill-rule:nonzero;"/><path d="M55.488,21.137l0.949,0l0,-6.227l1.534,0l0,-0.767l-1.534,0l0,-2.626l-0.949,0l0,2.626l-1.378,0l0,0.767l1.378,0l0,6.227Z" style="fill:#231f20;fill-rule:nonzero;"/><path d="M65.432,17.913c0.104,-1.118 -0.286,-2.197 -1.092,-2.977c-0.663,-0.637 -1.573,-0.988 -2.561,-0.988c-2.093,0 -3.679,1.651 -3.679,3.705c0,1.742 1.261,3.679 3.692,3.679c0.715,0 1.404,-0.195 1.989,-0.572c0.598,-0.377 1.092,-0.949 1.417,-1.703l-1.001,0c-0.455,0.91 -1.326,1.443 -2.405,1.443c-1.183,0.013 -2.678,-0.832 -2.73,-2.587l6.37,0Zm-6.357,-0.767c0.091,-1.274 1.209,-2.379 2.717,-2.379c1.443,-0.039 2.626,1.157 2.691,2.379l-5.408,0Z" style="fill:#231f20;fill-rule:nonzero;"/><path d="M72.608,18.771c-0.299,0.845 -1.196,1.651 -2.535,1.664c-1.508,0 -2.756,-1.144 -2.756,-2.795c0,-0.806 0.325,-1.56 0.793,-2.015c0.585,-0.546 1.157,-0.793 1.976,-0.793c0.988,0 2.093,0.546 2.535,1.729l0.988,0c-0.481,-1.677 -1.989,-2.613 -3.562,-2.613c-2.119,0 -3.692,1.625 -3.692,3.692c0,1.872 1.391,3.692 3.757,3.692c1.677,0 3.042,-1.079 3.497,-2.561l-1.001,0Z" style="fill:#231f20;fill-rule:nonzero;"/><path d="M80.798,18.771c-0.299,0.845 -1.196,1.651 -2.535,1.664c-1.508,0 -2.756,-1.144 -2.756,-2.795c0,-0.806 0.325,-1.56 0.793,-2.015c0.585,-0.546 1.157,-0.793 1.976,-0.793c0.988,0 2.093,0.546 2.535,1.729l0.988,0c-0.481,-1.677 -1.989,-2.613 -3.562,-2.613c-2.119,0 -3.692,1.625 -3.692,3.692c0,1.872 1.391,3.692 3.757,3.692c1.677,0 3.042,-1.079 3.497,-2.561l-1.001,0Z" style="fill:#231f20;fill-rule:nonzero;"/><path d="M83.177,12.856l0.962,0l0,-1.339l-0.962,0l0,1.339Zm0,8.281l0.962,0l0,-6.994l-0.962,0l0,6.994Z" style="fill:#231f20;fill-rule:nonzero;"/><path d="M85.582,17.64c0,1.963 1.456,3.679 3.705,3.679c2.262,0 3.718,-1.716 3.718,-3.679c0,-1.963 -1.456,-3.692 -3.718,-3.692c-2.249,0 -3.705,1.729 -3.705,3.679l0,0.013Zm0.949,0c0,-1.599 1.209,-2.795 2.756,-2.795c1.56,0 2.756,1.196 2.756,2.795c0,1.599 -1.196,2.795 -2.756,2.795c-1.547,0 -2.756,-1.196 -2.756,-2.782l0,-0.013Zm1.157,-4.927l0.312,0.624l3.133,-1.677l-0.351,-0.702l-3.094,1.755Z" style="fill:#231f20;fill-rule:nonzero;"/><path d="M94.448,21.137l0.962,0l0,-3.952c0,-1.456 0.832,-2.327 2.275,-2.34c1.573,-0.026 2.249,1.001 2.249,2.509l0,3.783l0.949,0l0,-3.978c0,-1.703 -0.767,-3.185 -2.938,-3.211c-1.248,-0.026 -2.197,0.533 -2.6,1.443c0.013,-0.468 0.013,-0.858 0.013,-1.248l-0.91,0l0,6.994Z" style="fill:#231f20;fill-rule:nonzero;"/><path d="M112.297,18.771c-0.299,0.845 -1.196,1.651 -2.535,1.664c-1.508,0 -2.756,-1.144 -2.756,-2.795c0,-0.806 0.325,-1.56 0.793,-2.015c0.585,-0.546 1.157,-0.793 1.976,-0.793c0.988,0 2.093,0.546 2.535,1.729l0.988,0c-0.481,-1.677 -1.989,-2.613 -3.562,-2.613c-2.119,0 -3.692,1.625 -3.692,3.692c0,1.872 1.391,3.692 3.757,3.692c1.677,0 3.042,-1.079 3.497,-2.561l-1.001,0Z" style="fill:#231f20;fill-rule:nonzero;"/><path d="M114.246,17.64c0,1.963 1.456,3.679 3.705,3.679c2.262,0 3.718,-1.716 3.718,-3.679c0,-1.963 -1.456,-3.692 -3.718,-3.692c-2.249,0 -3.705,1.729 -3.705,3.679l0,0.013Zm0.949,0c0,-1.599 1.209,-2.795 2.756,-2.795c1.56,0 2.756,1.196 2.756,2.795c0,1.599 -1.196,2.795 -2.756,2.795c-1.547,0 -2.756,-1.196 -2.756,-2.782l0,-0.013Z" style="fill:#231f20;fill-rule:nonzero;"/><path d="M123.112,21.137l0.962,0l0,-3.952c0,-1.456 0.832,-2.327 2.275,-2.34c1.573,-0.026 2.249,1.001 2.249,2.509l0,3.783l0.949,0l0,-3.978c0,-1.703 -0.767,-3.185 -2.938,-3.211c-1.248,-0.026 -2.197,0.533 -2.6,1.443c0.013,-0.468 0.013,-0.858 0.013,-1.248l-0.91,0l0,6.994Z" style="fill:#231f20;fill-rule:nonzero;"/><path d="M131.952,21.137l0.949,0l0,-6.227l1.534,0l0,-0.767l-1.534,0l0,-2.626l-0.949,0l0,2.626l-1.378,0l0,0.767l1.378,0l0,6.227Z" style="fill:#231f20;fill-rule:nonzero;"/><path d="M135.488,21.137l0.949,0l0,-3.809c0,-1.586 0.754,-2.431 2.106,-2.431l0.091,0l0,-0.949c-0.819,0.026 -1.729,0.299 -2.236,1.339l0,-1.144l-0.91,0l0,6.994Z" style="fill:#231f20;fill-rule:nonzero;"/><path d="M146.148,14.143l-0.962,0l0,1.469c-0.338,-0.793 -1.365,-1.664 -2.86,-1.664c-2.132,0 -3.627,1.638 -3.627,3.692c0,1.924 1.352,3.692 3.627,3.692c1.248,0 2.314,-0.585 2.86,-1.638l0,1.443l0.962,0l0,-6.994Zm-6.5,3.497c0,-1.56 1.17,-2.808 2.782,-2.808c1.235,0 2.171,0.715 2.561,1.677c0.156,0.338 0.234,0.728 0.221,1.118c0,0.377 -0.078,0.767 -0.234,1.105c-0.377,0.988 -1.287,1.703 -2.522,1.703c-1.924,0 -2.795,-1.521 -2.808,-2.782l0,-0.013Z" style="fill:#231f20;fill-rule:nonzero;"/><path d="M158.563,17.913c0.104,-1.118 -0.286,-2.197 -1.092,-2.977c-0.663,-0.637 -1.573,-0.988 -2.561,-0.988c-2.093,0 -3.679,1.651 -3.679,3.705c0,1.742 1.261,3.679 3.692,3.679c0.715,0 1.404,-0.195 1.989,-0.572c0.598,-0.377 1.092,-0.949 1.417,-1.703l-1.001,0c-0.455,0.91 -1.326,1.443 -2.405,1.443c-1.183,0.013 -2.678,-0.832 -2.73,-2.587l6.37,0Zm-6.357,-0.767c0.091,-1.274 1.209,-2.379 2.717,-2.379c1.443,-0.039 2.626,1.157 2.691,2.379l-5.408,0Z" style="fill:#231f20;fill-rule:nonzero;"/><rect x="159.928" y="11.517" width="0.962" height="9.62" style="fill:#231f20;fill-rule:nonzero;"/></g><g><path d="M22.585,30.146l-0.962,0l0,1.469c-0.338,-0.793 -1.365,-1.664 -2.86,-1.664c-2.132,0 -3.627,1.638 -3.627,3.692c0,1.924 1.352,3.692 3.627,3.692c1.248,0 2.314,-0.585 2.86,-1.638l0,1.443l0.962,0l0,-6.994Zm-6.5,3.497c0,-1.56 1.17,-2.808 2.782,-2.808c1.235,0 2.171,0.715 2.561,1.677c0.156,0.338 0.234,0.728 0.221,1.118c0,0.377 -0.078,0.767 -0.234,1.105c-0.377,0.988 -1.287,1.703 -2.522,1.703c-1.924,0 -2.795,-1.521 -2.808,-2.782l0,-0.013Z" style="fill:#231f20;fill-rule:nonzero;"/><path d="M24.457,37.14l0.923,0l0,-1.443c0.52,1.001 1.547,1.638 2.86,1.638c2.119,0 3.627,-1.599 3.627,-3.705c0,-2.184 -1.612,-3.679 -3.601,-3.679c-1.209,0.013 -2.262,0.611 -2.847,1.599l0,-4.03l-0.962,0l0,9.62Zm6.448,-3.497c0,1.352 -0.949,2.795 -2.808,2.795c-1.625,0 -2.73,-1.287 -2.73,-2.808c0,-1.547 1.157,-2.795 2.769,-2.795c1.56,0 2.769,1.196 2.769,2.795l0,0.013Z" style="fill:#231f20;fill-rule:nonzero;"/><path d="M40.317,30.146l-0.962,0l0,1.469c-0.338,-0.793 -1.365,-1.664 -2.86,-1.664c-2.132,0 -3.627,1.638 -3.627,3.692c0,1.924 1.352,3.692 3.627,3.692c1.248,0 2.314,-0.585 2.86,-1.638l0,1.443l0.962,0l0,-6.994Zm-6.5,3.497c0,-1.56 1.17,-2.808 2.782,-2.808c1.235,0 2.171,0.715 2.561,1.677c0.156,0.338 0.234,0.728 0.221,1.118c0,0.377 -0.078,0.767 -0.234,1.105c-0.377,0.988 -1.287,1.703 -2.522,1.703c-1.924,0 -2.795,-1.521 -2.808,-2.782l0,-0.013Z" style="fill:#231f20;fill-rule:nonzero;"/><path d="M42.189,37.14l0.962,0l0,-3.952c0,-1.456 0.832,-2.327 2.275,-2.34c1.573,-0.026 2.249,1.001 2.249,2.509l0,3.783l0.949,0l0,-3.978c0,-1.703 -0.767,-3.185 -2.938,-3.211c-1.248,-0.026 -2.197,0.533 -2.6,1.443c0.013,-0.468 0.013,-0.858 0.013,-1.248l-0.91,0l0,6.994Z" style="fill:#231f20;fill-rule:nonzero;"/><path d="M57.477,27.52l-0.962,0l0,4.043c-0.312,-0.728 -1.326,-1.612 -2.86,-1.612c-2.093,0 -3.601,1.599 -3.601,3.679c0,1.963 1.378,3.705 3.614,3.705c1.456,0 2.392,-0.715 2.886,-1.638l0,1.443l0.923,0l0,-9.62Zm-6.474,6.11c0,-1.573 1.183,-2.795 2.795,-2.795c0.78,0 1.482,0.299 1.976,0.806c0.507,0.494 0.806,1.17 0.806,1.963c0.026,0.78 -0.273,1.495 -0.78,2.015c-0.494,0.507 -1.209,0.819 -1.989,0.819c-1.82,0 -2.795,-1.391 -2.808,-2.795l0,-0.013Z" style="fill:#231f20;fill-rule:nonzero;"/><path d="M58.946,33.643c0,1.963 1.456,3.679 3.705,3.679c2.262,0 3.718,-1.716 3.718,-3.679c0,-1.963 -1.456,-3.692 -3.718,-3.692c-2.249,0 -3.705,1.729 -3.705,3.679l0,0.013Zm0.949,0c0,-1.599 1.209,-2.795 2.756,-2.795c1.56,0 2.756,1.196 2.756,2.795c0,1.599 -1.196,2.795 -2.756,2.795c-1.547,0 -2.756,-1.196 -2.756,-2.782l0,-0.013Z" style="fill:#231f20;fill-rule:nonzero;"/><path d="M67.812,37.14l0.962,0l0,-3.952c0,-1.456 0.832,-2.327 2.275,-2.34c1.573,-0.026 2.249,1.001 2.249,2.509l0,3.783l0.949,0l0,-3.978c0,-1.703 -0.767,-3.185 -2.938,-3.211c-1.248,-0.026 -2.197,0.533 -2.6,1.443c0.013,-0.468 0.013,-0.858 0.013,-1.248l-0.91,0l0,6.994Z" style="fill:#231f20;fill-rule:nonzero;"/><path d="M75.676,33.643c0,1.963 1.456,3.679 3.705,3.679c2.262,0 3.718,-1.716 3.718,-3.679c0,-1.963 -1.456,-3.692 -3.718,-3.692c-2.249,0 -3.705,1.729 -3.705,3.679l0,0.013Zm0.949,0c0,-1.599 1.209,-2.795 2.756,-2.795c1.56,0 2.756,1.196 2.756,2.795c0,1.599 -1.196,2.795 -2.756,2.795c-1.547,0 -2.756,-1.196 -2.756,-2.782l0,-0.013Z" style="fill:#231f20;fill-rule:nonzero;"/><path d="M88.962,39.792l1.04,0l3.991,-9.646l-1.053,0l-2.262,5.655l-2.197,-5.655l-1.027,0l2.704,6.864l-1.196,2.782Z" style="fill:#231f20;fill-rule:nonzero;"/><rect x="98.686" y="27.52" width="0.962" height="9.62" style="fill:#231f20;fill-rule:nonzero;"/><path d="M108.527,30.146l-0.962,0l0,1.469c-0.338,-0.793 -1.365,-1.664 -2.86,-1.664c-2.132,0 -3.627,1.638 -3.627,3.692c0,1.924 1.352,3.692 3.627,3.692c1.248,0 2.314,-0.585 2.86,-1.638l0,1.443l0.962,0l0,-6.994Zm-6.5,3.497c0,-1.56 1.17,-2.808 2.782,-2.808c1.235,0 2.171,0.715 2.561,1.677c0.156,0.338 0.234,0.728 0.221,1.118c0,0.377 -0.078,0.767 -0.234,1.105c-0.377,0.988 -1.287,1.703 -2.522,1.703c-1.924,0 -2.795,-1.521 -2.808,-2.782l0,-0.013Z" style="fill:#231f20;fill-rule:nonzero;"/><path d="M120.942,33.916c0.104,-1.118 -0.286,-2.197 -1.092,-2.977c-0.663,-0.637 -1.573,-0.988 -2.561,-0.988c-2.093,0 -3.679,1.651 -3.679,3.705c0,1.742 1.261,3.679 3.692,3.679c0.715,0 1.404,-0.195 1.989,-0.572c0.598,-0.377 1.092,-0.949 1.417,-1.703l-1.001,0c-0.455,0.91 -1.326,1.443 -2.405,1.443c-1.183,0.013 -2.678,-0.832 -2.73,-2.587l6.37,0Zm-6.357,-0.767c0.091,-1.274 1.209,-2.379 2.717,-2.379c1.443,-0.039 2.626,1.157 2.691,2.379l-5.408,0Z" style="fill:#231f20;fill-rule:nonzero;"/><path d="M121.293,37.14l1.17,0l1.859,-2.821l1.872,2.821l1.17,0l-2.457,-3.588l2.327,-3.406l-1.144,0l-1.768,2.691l-1.755,-2.691l-1.17,0l2.34,3.406l-2.444,3.588Z" style="fill:#231f20;fill-rule:nonzero;"/><path d="M128.391,39.792l0.962,0l0,-4.082c0.325,0.728 1.326,1.625 2.873,1.625c2.171,0 3.588,-1.716 3.588,-3.666c0,-1.807 -1.235,-3.718 -3.588,-3.718c-1.339,0 -2.353,0.637 -2.925,1.651l0,-1.456l-0.91,0l0,9.646Zm6.461,-6.149c0,1.599 -1.209,2.795 -2.782,2.795c-0.78,0 -1.482,-0.299 -1.976,-0.793c-0.507,-0.507 -0.806,-1.209 -0.806,-1.989c0,-0.793 0.299,-1.495 0.78,-2.002c0.507,-0.507 1.196,-0.819 1.976,-0.819c1.885,0 2.808,1.482 2.808,2.795l0,0.013Z" style="fill:#231f20;fill-rule:nonzero;"/><rect x="137.283" y="27.52" width="0.962" height="9.62" style="fill:#231f20;fill-rule:nonzero;"/><path d="M139.674,33.643c0,1.963 1.456,3.679 3.705,3.679c2.262,0 3.718,-1.716 3.718,-3.679c0,-1.963 -1.456,-3.692 -3.718,-3.692c-2.249,0 -3.705,1.729 -3.705,3.679l0,0.013Zm0.949,0c0,-1.599 1.209,-2.795 2.756,-2.795c1.56,0 2.756,1.196 2.756,2.795c0,1.599 -1.196,2.795 -2.756,2.795c-1.547,0 -2.756,-1.196 -2.756,-2.782l0,-0.013Z" style="fill:#231f20;fill-rule:nonzero;"/><path d="M149.086,37.14l0.949,0l0,-6.227l1.534,0l0,-0.767l-1.534,0l0,-2.626l-0.949,0l0,2.626l-1.378,0l0,0.767l1.378,0l0,6.227Z" style="fill:#231f20;fill-rule:nonzero;"/><path d="M159.252,30.146l-0.962,0l0,1.469c-0.338,-0.793 -1.365,-1.664 -2.86,-1.664c-2.132,0 -3.627,1.638 -3.627,3.692c0,1.924 1.352,3.692 3.627,3.692c1.248,0 2.314,-0.585 2.86,-1.638l0,1.443l0.962,0l0,-6.994Zm-6.5,3.497c0,-1.56 1.17,-2.808 2.782,-2.808c1.235,0 2.171,0.715 2.561,1.677c0.156,0.338 0.234,0.728 0.221,1.118c0,0.377 -0.078,0.767 -0.234,1.105c-0.377,0.988 -1.287,1.703 -2.522,1.703c-1.924,0 -2.795,-1.521 -2.808,-2.782l0,-0.013Z" style="fill:#231f20;fill-rule:nonzero;"/><path d="M166.935,34.774c-0.299,0.845 -1.196,1.651 -2.535,1.664c-1.508,0 -2.756,-1.144 -2.756,-2.795c0,-0.806 0.325,-1.56 0.793,-2.015c0.585,-0.546 1.157,-0.793 1.976,-0.793c0.988,0 2.093,0.546 2.535,1.729l0.988,0c-0.481,-1.677 -1.989,-2.613 -3.562,-2.613c-2.119,0 -3.692,1.625 -3.692,3.692c0,1.872 1.391,3.692 3.757,3.692c1.677,0 3.042,-1.079 3.497,-2.561l-1.001,0Z" style="fill:#231f20;fill-rule:nonzero;"/><path d="M169.314,28.859l0.962,0l0,-1.339l-0.962,0l0,1.339Zm0,8.281l0.962,0l0,-6.994l-0.962,0l0,6.994Z" style="fill:#231f20;fill-rule:nonzero;"/><path d="M171.719,33.643c0,1.963 1.456,3.679 3.705,3.679c2.262,0 3.718,-1.716 3.718,-3.679c0,-1.963 -1.456,-3.692 -3.718,-3.692c-2.249,0 -3.705,1.729 -3.705,3.679l0,0.013Zm0.949,0c0,-1.599 1.209,-2.795 2.756,-2.795c1.56,0 2.756,1.196 2.756,2.795c0,1.599 -1.196,2.795 -2.756,2.795c-1.547,0 -2.756,-1.196 -2.756,-2.782l0,-0.013Zm1.157,-4.927l0.312,0.624l3.133,-1.677l-0.351,-0.702l-3.094,1.755Z" style="fill:#231f20;fill-rule:nonzero;"/><path d="M180.585,37.14l0.962,0l0,-3.952c0,-1.456 0.832,-2.327 2.275,-2.34c1.573,-0.026 2.249,1.001 2.249,2.509l0,3.783l0.949,0l0,-3.978c0,-1.703 -0.767,-3.185 -2.938,-3.211c-1.248,-0.026 -2.197,0.533 -2.6,1.443c0.013,-0.468 0.013,-0.858 0.013,-1.248l-0.91,0l0,6.994Z" style="fill:#231f20;fill-rule:nonzero;"/><rect x="189.321" y="35.71" width="1.014" height="1.43" style="fill:#231f20;fill-rule:nonzero;"/></g></g></svg>