<svg clip-rule="evenodd" fill-rule="evenodd" stroke-miterlimit="10" viewBox="0 0 209 49" xmlns="http://www.w3.org/2000/svg"><g fill-rule="nonzero"><path d="m203.377 43.807v-7.988l-11.396-6.886 10.832-4.307-10.832-4.242 11.396-7.347v-7.995h-198.225v38.765z" fill="#bce2d1" stroke="#00b6b6"/><g fill="#231f20"><path d="m15.591 29.088h5.33v-.949h-4.264v-3.432h4.238v-.949h-4.238v-3.341h4.264v-.949h-5.33z"/><path d="m22.598 19.468h.962v9.62h-.962z"/><path d="m36.183 22.094h-.962v1.469c-.338-.793-1.365-1.664-2.86-1.664-2.132 0-3.627 1.638-3.627 3.692 0 1.924 1.352 3.692 3.627 3.692 1.248 0 2.314-.585 2.86-1.638v1.443h.962zm-6.5 3.497c0-1.56 1.17-2.808 2.782-2.808 1.235 0 2.171.715 2.561 1.677.156.338.234.728.221 1.118 0 .377-.078.767-.234 1.105-.377.988-1.287 1.703-2.522 1.703-1.924 0-2.795-1.521-2.808-2.782z"/><path d="m38.055 29.088h.962v-3.9c0-.741.169-1.274.468-1.677.286-.416.832-.741 1.482-.715.715.013 1.209.286 1.534.741.273.429.39.884.364 1.664v3.887h.962v-3.887c0-.793.065-1.183.416-1.677.325-.481.923-.728 1.534-.728.663 0 1.105.221 1.391.585.403.455.52 1.118.52 1.859v3.848h.962v-3.887c0-1.235-.182-1.989-.793-2.6-.481-.494-1.17-.702-1.885-.702-.78 0-1.469.299-1.924.78-.26.273-.403.546-.507.741-.039-.078-.273-.546-.455-.728-.494-.559-1.183-.793-1.911-.793-.793 0-1.768.416-2.21 1.3v-1.105h-.91z"/><path d="m50.054 25.591c0 1.963 1.456 3.679 3.705 3.679 2.262 0 3.718-1.716 3.718-3.679s-1.456-3.692-3.718-3.692c-2.249 0-3.705 1.729-3.705 3.679zm.949 0c0-1.599 1.209-2.795 2.756-2.795 1.56 0 2.756 1.196 2.756 2.795s-1.196 2.795-2.756 2.795c-1.547 0-2.756-1.196-2.756-2.782z"/><path d="m58.92 29.088h.949v-3.809c0-1.586.754-2.431 2.106-2.431h.091v-.949c-.819.026-1.729.299-2.236 1.339v-1.144h-.91z"/><path d="m73.844 19.468h-.962v4.043c-.312-.728-1.326-1.612-2.86-1.612-2.093 0-3.601 1.599-3.601 3.679 0 1.963 1.378 3.705 3.614 3.705 1.456 0 2.392-.715 2.886-1.638v1.443h.923zm-6.474 6.11c0-1.573 1.183-2.795 2.795-2.795.78 0 1.482.299 1.976.806.507.494.806 1.17.806 1.963.026.78-.273 1.495-.78 2.015-.494.507-1.209.819-1.989.819-1.82 0-2.795-1.391-2.808-2.795z"/><path d="m82.541 25.864c.104-1.118-.286-2.197-1.092-2.977-.663-.637-1.573-.988-2.561-.988-2.093 0-3.679 1.651-3.679 3.705 0 1.742 1.261 3.679 3.692 3.679.715 0 1.404-.195 1.989-.572.598-.377 1.092-.949 1.417-1.703h-1.001c-.455.91-1.326 1.443-2.405 1.443-1.183.013-2.678-.832-2.73-2.587zm-6.357-.767c.091-1.274 1.209-2.379 2.717-2.379 1.443-.039 2.626 1.157 2.691 2.379z"/><path d="m87.65 29.088h.962v-3.9c0-.741.169-1.274.468-1.677.286-.416.832-.741 1.482-.715.715.013 1.209.286 1.534.741.273.429.39.884.364 1.664v3.887h.962v-3.887c0-.793.065-1.183.416-1.677.325-.481.923-.728 1.534-.728.663 0 1.105.221 1.391.585.403.455.52 1.118.52 1.859v3.848h.962v-3.887c0-1.235-.182-1.989-.793-2.6-.481-.494-1.17-.702-1.885-.702-.78 0-1.469.299-1.924.78-.26.273-.403.546-.507.741-.039-.078-.273-.546-.455-.728-.494-.559-1.183-.793-1.911-.793-.793 0-1.768.416-2.21 1.3v-1.105h-.91z"/><path d="m100.078 20.807h.962v-1.339h-.962zm0 8.281h.962v-6.994h-.962z"/><path d="m106.824 29.088h.949v-6.227h1.508v-.767h-1.508v-.481c0-1.521 1.027-1.521 1.508-1.547v-.767c-.754 0-2.457.065-2.457 2.223v.572h-1.027v.767h1.027z"/><path d="m116.964 22.094h-.962v1.469c-.338-.793-1.365-1.664-2.86-1.664-2.132 0-3.627 1.638-3.627 3.692 0 1.924 1.352 3.692 3.627 3.692 1.248 0 2.314-.585 2.86-1.638v1.443h.962zm-6.5 3.497c0-1.56 1.17-2.808 2.782-2.808 1.235 0 2.171.715 2.561 1.677.156.338.234.728.221 1.118 0 .377-.078.767-.234 1.105-.377.988-1.287 1.703-2.522 1.703-1.924 0-2.795-1.521-2.808-2.782z"/><path d="m118.836 29.088h.962v-3.9c0-.741.169-1.274.468-1.677.286-.416.832-.741 1.482-.715.715.013 1.209.286 1.534.741.273.429.39.884.364 1.664v3.887h.962v-3.887c0-.793.065-1.183.416-1.677.325-.481.923-.728 1.534-.728.663 0 1.105.221 1.391.585.403.455.52 1.118.52 1.859v3.848h.962v-3.887c0-1.235-.182-1.989-.793-2.6-.481-.494-1.17-.702-1.885-.702-.78 0-1.469.299-1.924.78-.26.273-.403.546-.507.741-.039-.078-.273-.546-.455-.728-.494-.559-1.183-.793-1.911-.793-.793 0-1.768.416-2.21 1.3v-1.105h-.91z"/><path d="m131.264 20.807h.962v-1.339h-.962zm0 8.281h.962v-6.994h-.962z"/><path d="m134.098 19.468h.962v9.62h-.962z"/><path d="m136.919 20.807h.962v-1.339h-.962zm0 8.281h.962v-6.994h-.962z"/><path d="m146.773 22.094h-.962v1.469c-.338-.793-1.365-1.664-2.86-1.664-2.132 0-3.627 1.638-3.627 3.692 0 1.924 1.352 3.692 3.627 3.692 1.248 0 2.314-.585 2.86-1.638v1.443h.962zm-6.5 3.497c0-1.56 1.17-2.808 2.782-2.808 1.235 0 2.171.715 2.561 1.677.156.338.234.728.221 1.118 0 .377-.078.767-.234 1.105-.377.988-1.287 1.703-2.522 1.703-1.924 0-2.795-1.521-2.808-2.782z"/><path d="m149.087 27.658h1.014v1.43h-1.014z"/></g></g></svg>