<?xml version="1.0" encoding="UTF-8" standalone="no"?><!DOCTYPE svg PUBLIC "-//W3C//DTD SVG 1.1//EN" "http://www.w3.org/Graphics/SVG/1.1/DTD/svg11.dtd"><svg width="100%" height="100%" viewBox="0 0 209 49" version="1.1" xmlns="http://www.w3.org/2000/svg" xmlns:xlink="http://www.w3.org/1999/xlink" xml:space="preserve" xmlns:serif="http://www.serif.com/" style="fill-rule:evenodd;clip-rule:evenodd;stroke-miterlimit:10;"><g><path d="M203.377,43.807l0,-7.988l-11.396,-6.886l10.832,-4.307l-10.832,-4.242l11.396,-7.347l0,-7.995l-198.225,0l0,38.765l198.225,0Z" style="fill:#bce2d1;fill-rule:nonzero;stroke:#00b6b6;stroke-width:1px;"/><g><path d="M15.591,29.088l5.33,0l0,-0.949l-4.264,0l0,-3.432l4.238,0l0,-0.949l-4.238,0l0,-3.341l4.264,0l0,-0.949l-5.33,0l0,9.62Z" style="fill:#231f20;fill-rule:nonzero;"/><rect x="22.598" y="19.468" width="0.962" height="9.62" style="fill:#231f20;fill-rule:nonzero;"/><path d="M36.183,22.094l-0.962,0l0,1.469c-0.338,-0.793 -1.365,-1.664 -2.86,-1.664c-2.132,0 -3.627,1.638 -3.627,3.692c0,1.924 1.352,3.692 3.627,3.692c1.248,0 2.314,-0.585 2.86,-1.638l0,1.443l0.962,0l0,-6.994Zm-6.5,3.497c0,-1.56 1.17,-2.808 2.782,-2.808c1.235,0 2.171,0.715 2.561,1.677c0.156,0.338 0.234,0.728 0.221,1.118c0,0.377 -0.078,0.767 -0.234,1.105c-0.377,0.988 -1.287,1.703 -2.522,1.703c-1.924,0 -2.795,-1.521 -2.808,-2.782l0,-0.013Z" style="fill:#231f20;fill-rule:nonzero;"/><path d="M38.055,29.088l0.962,0l0,-3.9c0,-0.741 0.169,-1.274 0.468,-1.677c0.286,-0.416 0.832,-0.741 1.482,-0.715c0.715,0.013 1.209,0.286 1.534,0.741c0.273,0.429 0.39,0.884 0.364,1.664l0,3.887l0.962,0l0,-3.887c0,-0.793 0.065,-1.183 0.416,-1.677c0.325,-0.481 0.923,-0.728 1.534,-0.728c0.663,0 1.105,0.221 1.391,0.585c0.403,0.455 0.52,1.118 0.52,1.859l0,3.848l0.962,0l0,-3.887c0,-1.235 -0.182,-1.989 -0.793,-2.6c-0.481,-0.494 -1.17,-0.702 -1.885,-0.702c-0.78,0 -1.469,0.299 -1.924,0.78c-0.26,0.273 -0.403,0.546 -0.507,0.741c-0.039,-0.078 -0.273,-0.546 -0.455,-0.728c-0.494,-0.559 -1.183,-0.793 -1.911,-0.793c-0.793,0 -1.768,0.416 -2.21,1.3l0,-1.105l-0.91,0l0,6.994Z" style="fill:#231f20;fill-rule:nonzero;"/><path d="M50.054,25.591c0,1.963 1.456,3.679 3.705,3.679c2.262,0 3.718,-1.716 3.718,-3.679c0,-1.963 -1.456,-3.692 -3.718,-3.692c-2.249,0 -3.705,1.729 -3.705,3.679l0,0.013Zm0.949,0c0,-1.599 1.209,-2.795 2.756,-2.795c1.56,0 2.756,1.196 2.756,2.795c0,1.599 -1.196,2.795 -2.756,2.795c-1.547,0 -2.756,-1.196 -2.756,-2.782l0,-0.013Z" style="fill:#231f20;fill-rule:nonzero;"/><path d="M58.92,29.088l0.949,0l0,-3.809c0,-1.586 0.754,-2.431 2.106,-2.431l0.091,0l0,-0.949c-0.819,0.026 -1.729,0.299 -2.236,1.339l0,-1.144l-0.91,0l0,6.994Z" style="fill:#231f20;fill-rule:nonzero;"/><path d="M73.844,19.468l-0.962,0l0,4.043c-0.312,-0.728 -1.326,-1.612 -2.86,-1.612c-2.093,0 -3.601,1.599 -3.601,3.679c0,1.963 1.378,3.705 3.614,3.705c1.456,0 2.392,-0.715 2.886,-1.638l0,1.443l0.923,0l0,-9.62Zm-6.474,6.11c0,-1.573 1.183,-2.795 2.795,-2.795c0.78,0 1.482,0.299 1.976,0.806c0.507,0.494 0.806,1.17 0.806,1.963c0.026,0.78 -0.273,1.495 -0.78,2.015c-0.494,0.507 -1.209,0.819 -1.989,0.819c-1.82,0 -2.795,-1.391 -2.808,-2.795l0,-0.013Z" style="fill:#231f20;fill-rule:nonzero;"/><path d="M82.541,25.864c0.104,-1.118 -0.286,-2.197 -1.092,-2.977c-0.663,-0.637 -1.573,-0.988 -2.561,-0.988c-2.093,0 -3.679,1.651 -3.679,3.705c0,1.742 1.261,3.679 3.692,3.679c0.715,0 1.404,-0.195 1.989,-0.572c0.598,-0.377 1.092,-0.949 1.417,-1.703l-1.001,0c-0.455,0.91 -1.326,1.443 -2.405,1.443c-1.183,0.013 -2.678,-0.832 -2.73,-2.587l6.37,0Zm-6.357,-0.767c0.091,-1.274 1.209,-2.379 2.717,-2.379c1.443,-0.039 2.626,1.157 2.691,2.379l-5.408,0Z" style="fill:#231f20;fill-rule:nonzero;"/><path d="M87.65,29.088l0.962,0l0,-3.9c0,-0.741 0.169,-1.274 0.468,-1.677c0.286,-0.416 0.832,-0.741 1.482,-0.715c0.715,0.013 1.209,0.286 1.534,0.741c0.273,0.429 0.39,0.884 0.364,1.664l0,3.887l0.962,0l0,-3.887c0,-0.793 0.065,-1.183 0.416,-1.677c0.325,-0.481 0.923,-0.728 1.534,-0.728c0.663,0 1.105,0.221 1.391,0.585c0.403,0.455 0.52,1.118 0.52,1.859l0,3.848l0.962,0l0,-3.887c0,-1.235 -0.182,-1.989 -0.793,-2.6c-0.481,-0.494 -1.17,-0.702 -1.885,-0.702c-0.78,0 -1.469,0.299 -1.924,0.78c-0.26,0.273 -0.403,0.546 -0.507,0.741c-0.039,-0.078 -0.273,-0.546 -0.455,-0.728c-0.494,-0.559 -1.183,-0.793 -1.911,-0.793c-0.793,0 -1.768,0.416 -2.21,1.3l0,-1.105l-0.91,0l0,6.994Z" style="fill:#231f20;fill-rule:nonzero;"/><path d="M100.078,20.807l0.962,0l0,-1.339l-0.962,0l0,1.339Zm0,8.281l0.962,0l0,-6.994l-0.962,0l0,6.994Z" style="fill:#231f20;fill-rule:nonzero;"/><path d="M106.824,29.088l0.949,0l0,-6.227l1.508,0l0,-0.767l-1.508,0l0,-0.481c0,-1.521 1.027,-1.521 1.508,-1.547l0,-0.767c-0.754,0 -2.457,0.065 -2.457,2.223l0,0.572l-1.027,0l0,0.767l1.027,0l0,6.227Z" style="fill:#231f20;fill-rule:nonzero;"/><path d="M116.964,22.094l-0.962,0l0,1.469c-0.338,-0.793 -1.365,-1.664 -2.86,-1.664c-2.132,0 -3.627,1.638 -3.627,3.692c0,1.924 1.352,3.692 3.627,3.692c1.248,0 2.314,-0.585 2.86,-1.638l0,1.443l0.962,0l0,-6.994Zm-6.5,3.497c0,-1.56 1.17,-2.808 2.782,-2.808c1.235,0 2.171,0.715 2.561,1.677c0.156,0.338 0.234,0.728 0.221,1.118c0,0.377 -0.078,0.767 -0.234,1.105c-0.377,0.988 -1.287,1.703 -2.522,1.703c-1.924,0 -2.795,-1.521 -2.808,-2.782l0,-0.013Z" style="fill:#231f20;fill-rule:nonzero;"/><path d="M118.836,29.088l0.962,0l0,-3.9c0,-0.741 0.169,-1.274 0.468,-1.677c0.286,-0.416 0.832,-0.741 1.482,-0.715c0.715,0.013 1.209,0.286 1.534,0.741c0.273,0.429 0.39,0.884 0.364,1.664l0,3.887l0.962,0l0,-3.887c0,-0.793 0.065,-1.183 0.416,-1.677c0.325,-0.481 0.923,-0.728 1.534,-0.728c0.663,0 1.105,0.221 1.391,0.585c0.403,0.455 0.52,1.118 0.52,1.859l0,3.848l0.962,0l0,-3.887c0,-1.235 -0.182,-1.989 -0.793,-2.6c-0.481,-0.494 -1.17,-0.702 -1.885,-0.702c-0.78,0 -1.469,0.299 -1.924,0.78c-0.26,0.273 -0.403,0.546 -0.507,0.741c-0.039,-0.078 -0.273,-0.546 -0.455,-0.728c-0.494,-0.559 -1.183,-0.793 -1.911,-0.793c-0.793,0 -1.768,0.416 -2.21,1.3l0,-1.105l-0.91,0l0,6.994Z" style="fill:#231f20;fill-rule:nonzero;"/><path d="M131.264,20.807l0.962,0l0,-1.339l-0.962,0l0,1.339Zm0,8.281l0.962,0l0,-6.994l-0.962,0l0,6.994Z" style="fill:#231f20;fill-rule:nonzero;"/><rect x="134.098" y="19.468" width="0.962" height="9.62" style="fill:#231f20;fill-rule:nonzero;"/><path d="M136.919,20.807l0.962,0l0,-1.339l-0.962,0l0,1.339Zm0,8.281l0.962,0l0,-6.994l-0.962,0l0,6.994Z" style="fill:#231f20;fill-rule:nonzero;"/><path d="M146.773,22.094l-0.962,0l0,1.469c-0.338,-0.793 -1.365,-1.664 -2.86,-1.664c-2.132,0 -3.627,1.638 -3.627,3.692c0,1.924 1.352,3.692 3.627,3.692c1.248,0 2.314,-0.585 2.86,-1.638l0,1.443l0.962,0l0,-6.994Zm-6.5,3.497c0,-1.56 1.17,-2.808 2.782,-2.808c1.235,0 2.171,0.715 2.561,1.677c0.156,0.338 0.234,0.728 0.221,1.118c0,0.377 -0.078,0.767 -0.234,1.105c-0.377,0.988 -1.287,1.703 -2.522,1.703c-1.924,0 -2.795,-1.521 -2.808,-2.782l0,-0.013Z" style="fill:#231f20;fill-rule:nonzero;"/><rect x="149.087" y="27.658" width="1.014" height="1.43" style="fill:#231f20;fill-rule:nonzero;"/></g></g></svg>