<?xml version="1.0" encoding="UTF-8" standalone="no"?><!DOCTYPE svg PUBLIC "-//W3C//DTD SVG 1.1//EN" "http://www.w3.org/Graphics/SVG/1.1/DTD/svg11.dtd"><svg width="100%" height="100%" viewBox="0 0 238 50" version="1.1" xmlns="http://www.w3.org/2000/svg" xmlns:xlink="http://www.w3.org/1999/xlink" xml:space="preserve" xmlns:serif="http://www.serif.com/" style="fill-rule:evenodd;clip-rule:evenodd;stroke-miterlimit:10;"><g><path d="M12.873,5.208l0,14.91l-7.724,4.362l7.724,4.118l0,15.375l219.641,0l0,-38.765l-219.641,0Z" style="fill:#f7f39a;fill-rule:nonzero;stroke:#ffd211;stroke-width:1px;"/><g><path d="M27.697,21.526l5.33,0l0,-0.949l-4.264,0l0,-3.432l4.238,0l0,-0.949l-4.238,0l0,-3.341l4.264,0l0,-0.949l-5.33,0l0,9.62Z" style="fill:#231f20;fill-rule:nonzero;"/><path d="M38.799,16.287c-0.065,-1.417 -1.157,-1.95 -2.132,-1.95c-1.183,0 -2.184,0.741 -2.184,2.002c0.026,1.105 0.806,1.508 1.807,1.807c1.209,0.351 1.729,0.676 1.755,1.469c0.013,0.715 -0.546,1.313 -1.352,1.313c-0.702,0 -1.417,-0.429 -1.456,-1.391l-0.949,0c0.013,1.469 1.261,2.184 2.392,2.184c1.326,0 2.366,-0.936 2.314,-2.223c-0.052,-1.495 -1.17,-1.781 -2.171,-2.054c-0.845,-0.247 -1.352,-0.52 -1.378,-1.183c-0.026,-0.611 0.442,-1.131 1.209,-1.131c0.702,0 1.196,0.416 1.196,1.157l0.949,0Z" style="fill:#231f20;fill-rule:nonzero;"/><path d="M41.1,21.526l0.949,0l0,-6.227l1.534,0l0,-0.767l-1.534,0l0,-2.626l-0.949,0l0,2.626l-1.378,0l0,0.767l1.378,0l0,6.227Z" style="fill:#231f20;fill-rule:nonzero;"/><path d="M51.071,14.532l-0.962,0l0,3.952c0,1.456 -0.832,2.327 -2.288,2.34c-1.573,0.013 -2.249,-1.001 -2.249,-2.509l0,-3.783l-0.949,0l0,3.965c0,1.703 0.767,3.185 2.951,3.224c1.248,0.013 2.197,-0.533 2.587,-1.443l0,1.248l0.91,0l0,-6.994Z" style="fill:#231f20;fill-rule:nonzero;"/><path d="M59.937,11.906l-0.962,0l0,4.043c-0.312,-0.728 -1.326,-1.612 -2.86,-1.612c-2.093,0 -3.601,1.599 -3.601,3.679c0,1.963 1.378,3.705 3.614,3.705c1.456,0 2.392,-0.715 2.886,-1.638l0,1.443l0.923,0l0,-9.62Zm-6.474,6.11c0,-1.573 1.183,-2.795 2.795,-2.795c0.78,0 1.482,0.299 1.976,0.806c0.507,0.494 0.806,1.17 0.806,1.963c0.026,0.78 -0.273,1.495 -0.78,2.015c-0.494,0.507 -1.209,0.819 -1.989,0.819c-1.82,0 -2.795,-1.391 -2.808,-2.795l0,-0.013Z" style="fill:#231f20;fill-rule:nonzero;"/><path d="M61.834,13.245l0.962,0l0,-1.339l-0.962,0l0,1.339Zm0,8.281l0.962,0l0,-6.994l-0.962,0l0,6.994Z" style="fill:#231f20;fill-rule:nonzero;"/><path d="M71.688,14.532l-0.962,0l0,1.469c-0.338,-0.793 -1.365,-1.664 -2.86,-1.664c-2.132,0 -3.627,1.638 -3.627,3.692c0,1.924 1.352,3.692 3.627,3.692c1.248,0 2.314,-0.585 2.86,-1.638l0,1.443l0.962,0l0,-6.994Zm-6.5,3.497c0,-1.56 1.17,-2.808 2.782,-2.808c1.235,0 2.171,0.715 2.561,1.677c0.156,0.338 0.234,0.728 0.221,1.118c0,0.377 -0.078,0.767 -0.234,1.105c-0.377,0.988 -1.287,1.703 -2.522,1.703c-1.924,0 -2.795,-1.521 -2.808,-2.782l0,-0.013Z" style="fill:#231f20;fill-rule:nonzero;"/><path d="M73.56,21.526l0.949,0l0,-3.809c0,-1.586 0.754,-2.431 2.106,-2.431l0.091,0l0,-0.949c-0.819,0.026 -1.729,0.299 -2.236,1.339l0,-1.144l-0.91,0l0,6.994Z" style="fill:#231f20;fill-rule:nonzero;"/><path d="M82.166,24.178l1.04,0l3.991,-9.646l-1.053,0l-2.262,5.655l-2.197,-5.655l-1.027,0l2.704,6.864l-1.196,2.782Z" style="fill:#231f20;fill-rule:nonzero;"/><path d="M91.89,21.526l0.962,0l0,-3.978c0,-0.637 0.182,-1.209 0.559,-1.625c0.364,-0.416 0.936,-0.689 1.703,-0.689c0.832,0 1.378,0.26 1.755,0.715c0.351,0.455 0.507,1.092 0.507,1.846l0,3.731l0.949,0l0,-3.77c0,-1.001 -0.182,-1.846 -0.663,-2.457c-0.481,-0.611 -1.209,-0.962 -2.314,-0.962c-0.988,-0.026 -2.067,0.416 -2.496,1.339l0,-3.77l-0.962,0l0,9.62Z" style="fill:#231f20;fill-rule:nonzero;"/><path d="M107.191,14.532l-0.962,0l0,1.469c-0.338,-0.793 -1.365,-1.664 -2.86,-1.664c-2.132,0 -3.627,1.638 -3.627,3.692c0,1.924 1.352,3.692 3.627,3.692c1.248,0 2.314,-0.585 2.86,-1.638l0,1.443l0.962,0l0,-6.994Zm-6.5,3.497c0,-1.56 1.17,-2.808 2.782,-2.808c1.235,0 2.171,0.715 2.561,1.677c0.156,0.338 0.234,0.728 0.221,1.118c0,0.377 -0.078,0.767 -0.234,1.105c-0.377,0.988 -1.287,1.703 -2.522,1.703c-1.924,0 -2.795,-1.521 -2.808,-2.782l0,-0.013Z" style="fill:#231f20;fill-rule:nonzero;"/><path d="M114.874,19.16c-0.299,0.845 -1.196,1.651 -2.535,1.664c-1.508,0 -2.756,-1.144 -2.756,-2.795c0,-0.806 0.325,-1.56 0.793,-2.015c0.585,-0.546 1.157,-0.793 1.976,-0.793c0.988,0 2.093,0.546 2.535,1.729l0.988,0c-0.481,-1.677 -1.989,-2.613 -3.562,-2.613c-2.119,0 -3.692,1.625 -3.692,3.692c0,1.872 1.391,3.692 3.757,3.692c1.677,0 3.042,-1.079 3.497,-2.561l-1.001,0Z" style="fill:#231f20;fill-rule:nonzero;"/><path d="M124.052,18.302c0.104,-1.118 -0.286,-2.197 -1.092,-2.977c-0.663,-0.637 -1.573,-0.988 -2.561,-0.988c-2.093,0 -3.679,1.651 -3.679,3.705c0,1.742 1.261,3.679 3.692,3.679c0.715,0 1.404,-0.195 1.989,-0.572c0.598,-0.377 1.092,-0.949 1.417,-1.703l-1.001,0c-0.455,0.91 -1.326,1.443 -2.405,1.443c-1.183,0.013 -2.678,-0.832 -2.73,-2.587l6.37,0Zm-6.357,-0.767c0.091,-1.274 1.209,-2.379 2.717,-2.379c1.443,-0.039 2.626,1.157 2.691,2.379l-5.408,0Z" style="fill:#231f20;fill-rule:nonzero;"/><path d="M125.417,21.526l0.949,0l0,-3.809c0,-1.586 0.754,-2.431 2.106,-2.431l0.091,0l0,-0.949c-0.819,0.026 -1.729,0.299 -2.236,1.339l0,-1.144l-0.91,0l0,6.994Z" style="fill:#231f20;fill-rule:nonzero;"/><rect x="133.347" y="11.906" width="0.962" height="9.62" style="fill:#231f20;fill-rule:nonzero;"/><path d="M143.188,14.532l-0.962,0l0,1.469c-0.338,-0.793 -1.365,-1.664 -2.86,-1.664c-2.132,0 -3.627,1.638 -3.627,3.692c0,1.924 1.352,3.692 3.627,3.692c1.248,0 2.314,-0.585 2.86,-1.638l0,1.443l0.962,0l0,-6.994Zm-6.5,3.497c0,-1.56 1.17,-2.808 2.782,-2.808c1.235,0 2.171,0.715 2.561,1.677c0.156,0.338 0.234,0.728 0.221,1.118c0,0.377 -0.078,0.767 -0.234,1.105c-0.377,0.988 -1.287,1.703 -2.522,1.703c-1.924,0 -2.795,-1.521 -2.808,-2.782l0,-0.013Z" style="fill:#231f20;fill-rule:nonzero;"/><path d="M149.154,16.287c-0.065,-1.417 -1.157,-1.95 -2.132,-1.95c-1.183,0 -2.184,0.741 -2.184,2.002c0.026,1.105 0.806,1.508 1.807,1.807c1.209,0.351 1.729,0.676 1.755,1.469c0.013,0.715 -0.546,1.313 -1.352,1.313c-0.702,0 -1.417,-0.429 -1.456,-1.391l-0.949,0c0.013,1.469 1.261,2.184 2.392,2.184c1.326,0 2.366,-0.936 2.314,-2.223c-0.052,-1.495 -1.17,-1.781 -2.171,-2.054c-0.845,-0.247 -1.352,-0.52 -1.378,-1.183c-0.026,-0.611 0.442,-1.131 1.209,-1.131c0.702,0 1.196,0.416 1.196,1.157l0.949,0Z" style="fill:#231f20;fill-rule:nonzero;"/><path d="M155.199,21.526l0.949,0l0,-6.227l1.534,0l0,-0.767l-1.534,0l0,-2.626l-0.949,0l0,2.626l-1.378,0l0,0.767l1.378,0l0,6.227Z" style="fill:#231f20;fill-rule:nonzero;"/><path d="M165.365,14.532l-0.962,0l0,1.469c-0.338,-0.793 -1.365,-1.664 -2.86,-1.664c-2.132,0 -3.627,1.638 -3.627,3.692c0,1.924 1.352,3.692 3.627,3.692c1.248,0 2.314,-0.585 2.86,-1.638l0,1.443l0.962,0l0,-6.994Zm-6.5,3.497c0,-1.56 1.17,-2.808 2.782,-2.808c1.235,0 2.171,0.715 2.561,1.677c0.156,0.338 0.234,0.728 0.221,1.118c0,0.377 -0.078,0.767 -0.234,1.105c-0.377,0.988 -1.287,1.703 -2.522,1.703c-1.924,0 -2.795,-1.521 -2.808,-2.782l0,-0.013Z" style="fill:#231f20;fill-rule:nonzero;"/><path d="M167.237,21.526l0.949,0l0,-3.809c0,-1.586 0.754,-2.431 2.106,-2.431l0.091,0l0,-0.949c-0.819,0.026 -1.729,0.299 -2.236,1.339l0,-1.144l-0.91,0l0,6.994Z" style="fill:#231f20;fill-rule:nonzero;"/><path d="M177.728,18.302c0.104,-1.118 -0.286,-2.197 -1.092,-2.977c-0.663,-0.637 -1.573,-0.988 -2.561,-0.988c-2.093,0 -3.679,1.651 -3.679,3.705c0,1.742 1.261,3.679 3.692,3.679c0.715,0 1.404,-0.195 1.989,-0.572c0.598,-0.377 1.092,-0.949 1.417,-1.703l-1.001,0c-0.455,0.91 -1.326,1.443 -2.405,1.443c-1.183,0.013 -2.678,-0.832 -2.73,-2.587l6.37,0Zm-6.357,-0.767c0.091,-1.274 1.209,-2.379 2.717,-2.379c1.443,-0.039 2.626,1.157 2.691,2.379l-5.408,0Z" style="fill:#231f20;fill-rule:nonzero;"/><path d="M186.113,14.532l-0.962,0l0,1.469c-0.338,-0.793 -1.365,-1.664 -2.86,-1.664c-2.132,0 -3.627,1.638 -3.627,3.692c0,1.924 1.352,3.692 3.627,3.692c1.248,0 2.314,-0.585 2.86,-1.638l0,1.443l0.962,0l0,-6.994Zm-6.5,3.497c0,-1.56 1.17,-2.808 2.782,-2.808c1.235,0 2.171,0.715 2.561,1.677c0.156,0.338 0.234,0.728 0.221,1.118c0,0.377 -0.078,0.767 -0.234,1.105c-0.377,0.988 -1.287,1.703 -2.522,1.703c-1.924,0 -2.795,-1.521 -2.808,-2.782l0,-0.013Z" style="fill:#231f20;fill-rule:nonzero;"/><path d="M192.08,16.287c-0.065,-1.417 -1.157,-1.95 -2.132,-1.95c-1.183,0 -2.184,0.741 -2.184,2.002c0.026,1.105 0.806,1.508 1.807,1.807c1.209,0.351 1.729,0.676 1.755,1.469c0.013,0.715 -0.546,1.313 -1.352,1.313c-0.702,0 -1.417,-0.429 -1.456,-1.391l-0.949,0c0.013,1.469 1.261,2.184 2.392,2.184c1.326,0 2.366,-0.936 2.314,-2.223c-0.052,-1.495 -1.17,-1.781 -2.171,-2.054c-0.845,-0.247 -1.352,-0.52 -1.378,-1.183c-0.026,-0.611 0.442,-1.131 1.209,-1.131c0.702,0 1.196,0.416 1.196,1.157l0.949,0Z" style="fill:#231f20;fill-rule:nonzero;"/><path d="M204.599,14.532l-0.962,0l0,1.469c-0.338,-0.793 -1.365,-1.664 -2.86,-1.664c-2.132,0 -3.627,1.638 -3.627,3.692c0,1.924 1.352,3.692 3.627,3.692c1.248,0 2.314,-0.585 2.86,-1.638l0,1.443l0.962,0l0,-6.994Zm-6.5,3.497c0,-1.56 1.17,-2.808 2.782,-2.808c1.235,0 2.171,0.715 2.561,1.677c0.156,0.338 0.234,0.728 0.221,1.118c0,0.377 -0.078,0.767 -0.234,1.105c-0.377,0.988 -1.287,1.703 -2.522,1.703c-1.924,0 -2.795,-1.521 -2.808,-2.782l0,-0.013Z" style="fill:#231f20;fill-rule:nonzero;"/><path d="M206.471,21.526l0.962,0l0,-3.952c0,-1.456 0.832,-2.327 2.275,-2.34c1.573,-0.026 2.249,1.001 2.249,2.509l0,3.783l0.949,0l0,-3.978c0,-1.703 -0.767,-3.185 -2.938,-3.211c-1.248,-0.026 -2.197,0.533 -2.6,1.443c0.013,-0.468 0.013,-0.858 0.013,-1.248l-0.91,0l0,6.994Z" style="fill:#231f20;fill-rule:nonzero;"/><path d="M215.311,21.526l0.949,0l0,-6.227l1.534,0l0,-0.767l-1.534,0l0,-2.626l-0.949,0l0,2.626l-1.378,0l0,0.767l1.378,0l0,6.227Z" style="fill:#231f20;fill-rule:nonzero;"/><path d="M225.255,18.302c0.104,-1.118 -0.286,-2.197 -1.092,-2.977c-0.663,-0.637 -1.573,-0.988 -2.561,-0.988c-2.093,0 -3.679,1.651 -3.679,3.705c0,1.742 1.261,3.679 3.692,3.679c0.715,0 1.404,-0.195 1.989,-0.572c0.598,-0.377 1.092,-0.949 1.417,-1.703l-1.001,0c-0.455,0.91 -1.326,1.443 -2.405,1.443c-1.183,0.013 -2.678,-0.832 -2.73,-2.587l6.37,0Zm-6.357,-0.767c0.091,-1.274 1.209,-2.379 2.717,-2.379c1.443,-0.039 2.626,1.157 2.691,2.379l-5.408,0Z" style="fill:#231f20;fill-rule:nonzero;"/><path d="M230.715,16.287c-0.065,-1.417 -1.157,-1.95 -2.132,-1.95c-1.183,0 -2.184,0.741 -2.184,2.002c0.026,1.105 0.806,1.508 1.807,1.807c1.209,0.351 1.729,0.676 1.755,1.469c0.013,0.715 -0.546,1.313 -1.352,1.313c-0.702,0 -1.417,-0.429 -1.456,-1.391l-0.949,0c0.013,1.469 1.261,2.184 2.392,2.184c1.326,0 2.366,-0.936 2.314,-2.223c-0.052,-1.495 -1.17,-1.781 -2.171,-2.054c-0.845,-0.247 -1.352,-0.52 -1.378,-1.183c-0.026,-0.611 0.442,-1.131 1.209,-1.131c0.702,0 1.196,0.416 1.196,1.157l0.949,0Z" style="fill:#231f20;fill-rule:nonzero;"/></g><g><path d="M34.665,27.909l-0.962,0l0,4.043c-0.312,-0.728 -1.326,-1.612 -2.86,-1.612c-2.093,0 -3.601,1.599 -3.601,3.679c0,1.963 1.378,3.705 3.614,3.705c1.456,0 2.392,-0.715 2.886,-1.638l0,1.443l0.923,0l0,-9.62Zm-6.474,6.11c0,-1.573 1.183,-2.795 2.795,-2.795c0.78,0 1.482,0.299 1.976,0.806c0.507,0.494 0.806,1.17 0.806,1.963c0.026,0.78 -0.273,1.495 -0.78,2.015c-0.494,0.507 -1.209,0.819 -1.989,0.819c-1.82,0 -2.795,-1.391 -2.808,-2.795l0,-0.013Z" style="fill:#231f20;fill-rule:nonzero;"/><path d="M43.362,34.305c0.104,-1.118 -0.286,-2.197 -1.092,-2.977c-0.663,-0.637 -1.573,-0.988 -2.561,-0.988c-2.093,0 -3.679,1.651 -3.679,3.705c0,1.742 1.261,3.679 3.692,3.679c0.715,0 1.404,-0.195 1.989,-0.572c0.598,-0.377 1.092,-0.949 1.417,-1.703l-1.001,0c-0.455,0.91 -1.326,1.443 -2.405,1.443c-1.183,0.013 -2.678,-0.832 -2.73,-2.587l6.37,0Zm-6.357,-0.767c0.091,-1.274 1.209,-2.379 2.717,-2.379c1.443,-0.039 2.626,1.157 2.691,2.379l-5.408,0Z" style="fill:#231f20;fill-rule:nonzero;"/><path d="M48.471,29.248l0.962,0l0,-1.339l-0.962,0l0,1.339Zm0,8.281l0.962,0l0,-6.994l-0.962,0l0,6.994Z" style="fill:#231f20;fill-rule:nonzero;"/><path d="M51.305,37.529l0.949,0l0,-3.809c0,-1.586 0.754,-2.431 2.106,-2.431l0.091,0l0,-0.949c-0.819,0.026 -1.729,0.299 -2.236,1.339l0,-1.144l-0.91,0l0,6.994Z" style="fill:#231f20;fill-rule:nonzero;"/><path d="M66.254,30.535l-0.962,0l0,1.469c-0.338,-0.793 -1.365,-1.664 -2.86,-1.664c-2.132,0 -3.627,1.638 -3.627,3.692c0,1.924 1.352,3.692 3.627,3.692c1.248,0 2.314,-0.585 2.86,-1.638l0,1.443l0.962,0l0,-6.994Zm-6.5,3.497c0,-1.56 1.17,-2.808 2.782,-2.808c1.235,0 2.171,0.715 2.561,1.677c0.156,0.338 0.234,0.728 0.221,1.118c0,0.377 -0.078,0.767 -0.234,1.105c-0.377,0.988 -1.287,1.703 -2.522,1.703c-1.924,0 -2.795,-1.521 -2.808,-2.782l0,-0.013Z" style="fill:#231f20;fill-rule:nonzero;"/><path d="M72.13,29.248l0.962,0l0,-1.339l-0.962,0l0,1.339Zm0.962,1.287l-0.962,0l0,6.916c0,1.04 -0.091,1.82 -1.105,1.989c-0.052,0.013 -0.117,0.013 -0.182,0.013l0,0.806c0.104,-0.013 0.208,-0.013 0.299,-0.013c1.846,-0.208 1.95,-1.573 1.95,-2.821l0,-6.89Z" style="fill:#231f20;fill-rule:nonzero;"/><path d="M81.594,30.535l-0.962,0l0,3.952c0,1.456 -0.832,2.327 -2.288,2.34c-1.573,0.013 -2.249,-1.001 -2.249,-2.509l0,-3.783l-0.949,0l0,3.965c0,1.703 0.767,3.185 2.951,3.224c1.248,0.013 2.197,-0.533 2.587,-1.443l0,1.248l0.91,0l0,-6.994Z" style="fill:#231f20;fill-rule:nonzero;"/><path d="M90.46,30.535l-0.949,0l0,1.443c-0.39,-0.858 -1.456,-1.638 -2.834,-1.638c-2.132,0 -3.653,1.612 -3.653,3.705c0,2.015 1.469,3.679 3.653,3.679c1.352,0 2.327,-0.689 2.821,-1.677l0,0.897c0,1.742 -1.365,2.782 -2.704,2.782c-0.442,0 -1.04,-0.143 -1.547,-0.507c-0.416,-0.286 -0.663,-0.624 -0.832,-0.923l-1.105,0c0.442,1.261 1.716,2.262 3.458,2.262c0.949,0 1.963,-0.403 2.652,-1.079c0.611,-0.585 1.04,-1.43 1.04,-2.756l0,-6.188Zm-6.474,3.484c0,-1.638 1.248,-2.782 2.782,-2.782c1.001,0 1.703,0.416 2.132,0.975c0.442,0.559 0.637,1.248 0.637,1.833c-0.013,0.767 -0.299,1.469 -0.78,1.976c-0.494,0.507 -1.17,0.806 -1.963,0.806c-1.807,0 -2.808,-1.378 -2.808,-2.795l0,-0.013Z" style="fill:#231f20;fill-rule:nonzero;"/><path d="M99.339,30.535l-0.962,0l0,1.469c-0.338,-0.793 -1.365,-1.664 -2.86,-1.664c-2.132,0 -3.627,1.638 -3.627,3.692c0,1.924 1.352,3.692 3.627,3.692c1.248,0 2.314,-0.585 2.86,-1.638l0,1.443l0.962,0l0,-6.994Zm-6.5,3.497c0,-1.56 1.17,-2.808 2.782,-2.808c1.235,0 2.171,0.715 2.561,1.677c0.156,0.338 0.234,0.728 0.221,1.118c0,0.377 -0.078,0.767 -0.234,1.105c-0.377,0.988 -1.287,1.703 -2.522,1.703c-1.924,0 -2.795,-1.521 -2.808,-2.782l0,-0.013Z" style="fill:#231f20;fill-rule:nonzero;"/><path d="M101.211,37.529l0.949,0l0,-3.809c0,-1.586 0.754,-2.431 2.106,-2.431l0.091,0l0,-0.949c-0.819,0.026 -1.729,0.299 -2.236,1.339l0,-1.144l-0.91,0l0,6.994Z" style="fill:#231f20;fill-rule:nonzero;"/><rect x="104.76" y="36.099" width="1.014" height="1.43" style="fill:#231f20;fill-rule:nonzero;"/></g></g></svg>