<svg clip-rule="evenodd" fill-rule="evenodd" stroke-miterlimit="10" viewBox="0 0 238 50" xmlns="http://www.w3.org/2000/svg"><g fill-rule="nonzero"><path d="m16.502 5.169v7.996l-11.159 7.193-.237.152.237.094 10.595 4.15-10.595 4.212-.237.095.237.143 11.159 6.743v7.987h216.372v-38.765z" fill="#bce2d1" stroke="#00b6b6"/><g fill="#231f20"><path d="m35.888 18.342c-.234.364-1.261 1.807-3.276 1.807-2.236 0-3.939-1.768-3.939-4.043 0-2.236 1.69-4.017 3.939-4.017 1.859 0 2.951 1.287 3.276 1.859h1.157c-.559-1.222-2.054-2.808-4.433-2.808-2.886 0-5.005 2.236-5.005 4.979 0 2.782 2.171 4.979 5.018 4.979 2.119 0 3.796-1.274 4.42-2.756z"/><path d="m38.007 17.432c0 1.963 1.456 3.679 3.705 3.679 2.262 0 3.718-1.716 3.718-3.679s-1.456-3.692-3.718-3.692c-2.249 0-3.705 1.729-3.705 3.679zm.949 0c0-1.599 1.209-2.795 2.756-2.795 1.56 0 2.756 1.196 2.756 2.795s-1.196 2.795-2.756 2.795c-1.547 0-2.756-1.196-2.756-2.782z"/><path d="m46.873 20.929h.962v-3.952c0-1.456.832-2.327 2.275-2.34 1.573-.026 2.249 1.001 2.249 2.509v3.783h.949v-3.978c0-1.703-.767-3.185-2.938-3.211-1.248-.026-2.197.533-2.6 1.443.013-.468.013-.858.013-1.248h-.91z"/><path d="m60.484 13.935h-1.014l-2.236 5.811-2.249-5.811h-1.014l2.756 6.994h1.001z"/><path d="m61.537 12.648h.962v-1.339h-.962zm0 8.281h.962v-6.994h-.962z"/><path d="m70.051 13.935h-1.014l-2.236 5.811-2.249-5.811h-1.014l2.756 6.994h1.001z"/><path d="m71.104 12.648h.962v-1.339h-.962zm0 8.281h.962v-6.994h-.962z"/><path d="m73.938 20.929h.949v-3.809c0-1.586.754-2.431 2.106-2.431h.091v-.949c-.819.026-1.729.299-2.236 1.339v-1.144h-.91z"/><path d="m88.667 17.705c.104-1.118-.286-2.197-1.092-2.977-.663-.637-1.573-.988-2.561-.988-2.093 0-3.679 1.651-3.679 3.705 0 1.742 1.261 3.679 3.692 3.679.715 0 1.404-.195 1.989-.572.598-.377 1.092-.949 1.417-1.703h-1.001c-.455.91-1.326 1.443-2.405 1.443-1.183.013-2.678-.832-2.73-2.587zm-6.357-.767c.091-1.274 1.209-2.379 2.717-2.379 1.443-.039 2.626 1.157 2.691 2.379z"/><path d="m90.032 20.929h.962v-3.952c0-1.456.832-2.327 2.275-2.34 1.573-.026 2.249 1.001 2.249 2.509v3.783h.949v-3.978c0-1.703-.767-3.185-2.938-3.211-1.248-.026-2.197.533-2.6 1.443.013-.468.013-.858.013-1.248h-.91z"/><path d="m109.09 13.935h-.962v1.469c-.338-.793-1.365-1.664-2.86-1.664-2.132 0-3.627 1.638-3.627 3.692 0 1.924 1.352 3.692 3.627 3.692 1.248 0 2.314-.585 2.86-1.638v1.443h.962zm-6.5 3.497c0-1.56 1.17-2.808 2.782-2.808 1.235 0 2.171.715 2.561 1.677.156.338.234.728.221 1.118 0 .377-.078.767-.234 1.105-.377.988-1.287 1.703-2.522 1.703-1.924 0-2.795-1.521-2.808-2.782z"/><path d="m110.961 20.929h.949v-3.809c0-1.586.754-2.431 2.106-2.431h.091v-.949c-.819.026-1.729.299-2.236 1.339v-1.144h-.91z"/><path d="m115.147 20.929h.962v-3.9c0-.741.169-1.274.468-1.677.286-.416.832-.741 1.482-.715.715.013 1.209.286 1.534.741.273.429.39.884.364 1.664v3.887h.962v-3.887c0-.793.065-1.183.416-1.677.325-.481.923-.728 1.534-.728.663 0 1.105.221 1.391.585.403.455.52 1.118.52 1.859v3.848h.962v-3.887c0-1.235-.182-1.989-.793-2.6-.481-.494-1.17-.702-1.885-.702-.78 0-1.469.299-1.924.78-.26.273-.403.546-.507.741-.039-.078-.273-.546-.455-.728-.494-.559-1.183-.793-1.911-.793-.793 0-1.768.416-2.21 1.3v-1.105h-.91z"/><path d="m127.146 17.432c0 1.963 1.456 3.679 3.705 3.679 2.262 0 3.718-1.716 3.718-3.679s-1.456-3.692-3.718-3.692c-2.249 0-3.705 1.729-3.705 3.679zm.949 0c0-1.599 1.209-2.795 2.756-2.795 1.56 0 2.756 1.196 2.756 2.795s-1.196 2.795-2.756 2.795c-1.547 0-2.756-1.196-2.756-2.782z"/><path d="m136.012 20.929h.962v-3.952c0-1.456.832-2.327 2.275-2.34 1.573-.026 2.249 1.001 2.249 2.509v3.783h.949v-3.978c0-1.703-.767-3.185-2.938-3.211-1.248-.026-2.197.533-2.6 1.443.013-.468.013-.858.013-1.248h-.91z"/><path d="m144.306 20.929h.962v-6.994h-.962zm-.832-8.424.312.624 3.133-1.677-.351-.702z"/><path d="m154.16 13.935h-.962v1.469c-.338-.793-1.365-1.664-2.86-1.664-2.132 0-3.627 1.638-3.627 3.692 0 1.924 1.352 3.692 3.627 3.692 1.248 0 2.314-.585 2.86-1.638v1.443h.962zm-6.5 3.497c0-1.56 1.17-2.808 2.782-2.808 1.235 0 2.171.715 2.561 1.677.156.338.234.728.221 1.118 0 .377-.078.767-.234 1.105-.377.988-1.287 1.703-2.522 1.703-1.924 0-2.795-1.521-2.808-2.782z"/><path d="m165.586 18.563c-.299.845-1.196 1.651-2.535 1.664-1.508 0-2.756-1.144-2.756-2.795 0-.806.325-1.56.793-2.015.585-.546 1.157-.793 1.976-.793.988 0 2.093.546 2.535 1.729h.988c-.481-1.677-1.989-2.613-3.562-2.613-2.119 0-3.692 1.625-3.692 3.692 0 1.872 1.391 3.692 3.757 3.692 1.677 0 3.042-1.079 3.497-2.561z"/><path d="m167.536 17.432c0 1.963 1.456 3.679 3.705 3.679 2.262 0 3.718-1.716 3.718-3.679s-1.456-3.692-3.718-3.692c-2.249 0-3.705 1.729-3.705 3.679zm.949 0c0-1.599 1.209-2.795 2.756-2.795 1.56 0 2.756 1.196 2.756 2.795s-1.196 2.795-2.756 2.795c-1.547 0-2.756-1.196-2.756-2.782z"/><path d="m176.402 20.929h.962v-3.952c0-1.456.832-2.327 2.275-2.34 1.573-.026 2.249 1.001 2.249 2.509v3.783h.949v-3.978c0-1.703-.767-3.185-2.938-3.211-1.248-.026-2.197.533-2.6 1.443.013-.468.013-.858.013-1.248h-.91z"/><path d="m188.986 20.929h.949v-6.227h1.534v-.767h-1.534v-2.626h-.949v2.626h-1.378v.767h1.378z"/><path d="m191.703 17.432c0 1.963 1.456 3.679 3.705 3.679 2.262 0 3.718-1.716 3.718-3.679s-1.456-3.692-3.718-3.692c-2.249 0-3.705 1.729-3.705 3.679zm.949 0c0-1.599 1.209-2.795 2.756-2.795 1.56 0 2.756 1.196 2.756 2.795s-1.196 2.795-2.756 2.795c-1.547 0-2.756-1.196-2.756-2.782z"/><path d="m207.563 11.309h-.962v4.043c-.312-.728-1.326-1.612-2.86-1.612-2.093 0-3.601 1.599-3.601 3.679 0 1.963 1.378 3.705 3.614 3.705 1.456 0 2.392-.715 2.886-1.638v1.443h.923zm-6.474 6.11c0-1.573 1.183-2.795 2.795-2.795.78 0 1.482.299 1.976.806.507.494.806 1.17.806 1.963.026.78-.273 1.495-.78 2.015-.494.507-1.209.819-1.989.819-1.82 0-2.795-1.391-2.808-2.795z"/><path d="m209.032 17.432c0 1.963 1.456 3.679 3.705 3.679 2.262 0 3.718-1.716 3.718-3.679s-1.456-3.692-3.718-3.692c-2.249 0-3.705 1.729-3.705 3.679zm.949 0c0-1.599 1.209-2.795 2.756-2.795 1.56 0 2.756 1.196 2.756 2.795s-1.196 2.795-2.756 2.795c-1.547 0-2.756-1.196-2.756-2.782z"/><path d="m221.992 15.69c-.065-1.417-1.157-1.95-2.132-1.95-1.183 0-2.184.741-2.184 2.002.026 1.105.806 1.508 1.807 1.807 1.209.351 1.729.676 1.755 1.469.013.715-.546 1.313-1.352 1.313-.702 0-1.417-.429-1.456-1.391h-.949c.013 1.469 1.261 2.184 2.392 2.184 1.326 0 2.366-.936 2.314-2.223-.052-1.495-1.17-1.781-2.171-2.054-.845-.247-1.352-.52-1.378-1.183-.026-.611.442-1.131 1.209-1.131.702 0 1.196.416 1.196 1.157z"/><path d="m28.023 27.312h.962v9.62h-.962z"/><path d="m30.415 33.435c0 1.963 1.456 3.679 3.705 3.679 2.262 0 3.718-1.716 3.718-3.679s-1.456-3.692-3.718-3.692c-2.249 0-3.705 1.729-3.705 3.679zm.949 0c0-1.599 1.209-2.795 2.756-2.795 1.56 0 2.756 1.196 2.756 2.795s-1.196 2.795-2.756 2.795c-1.547 0-2.756-1.196-2.756-2.782z"/><path d="m43.376 31.693c-.065-1.417-1.157-1.95-2.132-1.95-1.183 0-2.184.741-2.184 2.002.026 1.105.806 1.508 1.807 1.807 1.209.351 1.729.676 1.755 1.469.013.715-.546 1.313-1.352 1.313-.702 0-1.417-.429-1.456-1.391h-.949c.013 1.469 1.261 2.184 2.392 2.184 1.326 0 2.366-.936 2.314-2.223-.052-1.495-1.17-1.781-2.171-2.054-.845-.247-1.352-.52-1.378-1.183-.026-.611.442-1.131 1.209-1.131.702 0 1.196.416 1.196 1.157z"/><path d="m48.875 36.932h.962v-3.9c0-.741.169-1.274.468-1.677.286-.416.832-.741 1.482-.715.715.013 1.209.286 1.534.741.273.429.39.884.364 1.664v3.887h.962v-3.887c0-.793.065-1.183.416-1.677.325-.481.923-.728 1.534-.728.663 0 1.105.221 1.391.585.403.455.52 1.118.52 1.859v3.848h.962v-3.887c0-1.235-.182-1.989-.793-2.6-.481-.494-1.17-.702-1.885-.702-.78 0-1.469.299-1.924.78-.26.273-.403.546-.507.741-.039-.078-.273-.546-.455-.728-.494-.559-1.183-.793-1.911-.793-.793 0-1.768.416-2.21 1.3v-1.105h-.91z"/><path d="m61.303 28.651h.962v-1.339h-.962zm0 8.281h.962v-6.994h-.962z"/><path d="m70.936 33.708c.104-1.118-.286-2.197-1.092-2.977-.663-.637-1.573-.988-2.561-.988-2.093 0-3.679 1.651-3.679 3.705 0 1.742 1.261 3.679 3.692 3.679.715 0 1.404-.195 1.989-.572.598-.377 1.092-.949 1.417-1.703h-1.001c-.455.91-1.326 1.443-2.405 1.443-1.183.013-2.678-.832-2.73-2.587zm-6.357-.767c.091-1.274 1.209-2.379 2.717-2.379 1.443-.039 2.626 1.157 2.691 2.379z"/><path d="m72.301 36.932h.962v-3.9c0-.741.169-1.274.468-1.677.286-.416.832-.741 1.482-.715.715.013 1.209.286 1.534.741.273.429.39.884.364 1.664v3.887h.962v-3.887c0-.793.065-1.183.416-1.677.325-.481.923-.728 1.534-.728.663 0 1.105.221 1.391.585.403.455.52 1.118.52 1.859v3.848h.962v-3.887c0-1.235-.182-1.989-.793-2.6-.481-.494-1.17-.702-1.885-.702-.78 0-1.469.299-1.924.78-.26.273-.403.546-.507.741-.039-.078-.273-.546-.455-.728-.494-.559-1.183-.793-1.911-.793-.793 0-1.768.416-2.21 1.3v-1.105h-.91z"/><path d="m84.729 36.932h.923v-1.443c.52 1.001 1.547 1.638 2.86 1.638 2.119 0 3.627-1.599 3.627-3.705 0-2.184-1.612-3.679-3.601-3.679-1.209.013-2.262.611-2.847 1.599v-4.03h-.962zm6.448-3.497c0 1.352-.949 2.795-2.808 2.795-1.625 0-2.73-1.287-2.73-2.808 0-1.547 1.157-2.795 2.769-2.795 1.56 0 2.769 1.196 2.769 2.795z"/><path d="m93.569 36.932h.949v-3.809c0-1.586.754-2.431 2.106-2.431h.091v-.949c-.819.026-1.729.299-2.236 1.339v-1.144h-.91z"/><path d="m96.78 33.435c0 1.963 1.456 3.679 3.705 3.679 2.262 0 3.718-1.716 3.718-3.679s-1.456-3.692-3.718-3.692c-2.249 0-3.705 1.729-3.705 3.679zm.949 0c0-1.599 1.209-2.795 2.756-2.795 1.56 0 2.756 1.196 2.756 2.795s-1.196 2.795-2.756 2.795c-1.547 0-2.756-1.196-2.756-2.782z"/><path d="m109.741 31.693c-.065-1.417-1.157-1.95-2.132-1.95-1.183 0-2.184.741-2.184 2.002.026 1.105.806 1.508 1.807 1.807 1.209.351 1.729.676 1.755 1.469.013.715-.546 1.313-1.352 1.313-.702 0-1.417-.429-1.456-1.391h-.949c.013 1.469 1.261 2.184 2.392 2.184 1.326 0 2.366-.936 2.314-2.223-.052-1.495-1.17-1.781-2.171-2.054-.845-.247-1.352-.52-1.378-1.183-.026-.611.442-1.131 1.209-1.131.702 0 1.196.416 1.196 1.157z"/><path d="m122.234 27.312h-.962v4.043c-.312-.728-1.326-1.612-2.86-1.612-2.093 0-3.601 1.599-3.601 3.679 0 1.963 1.378 3.705 3.614 3.705 1.456 0 2.392-.715 2.886-1.638v1.443h.923zm-6.474 6.11c0-1.573 1.183-2.795 2.795-2.795.78 0 1.482.299 1.976.806.507.494.806 1.17.806 1.963.026.78-.273 1.495-.78 2.015-.494.507-1.209.819-1.989.819-1.82 0-2.795-1.391-2.808-2.795z"/><path d="m130.931 33.708c.104-1.118-.286-2.197-1.092-2.977-.663-.637-1.573-.988-2.561-.988-2.093 0-3.679 1.651-3.679 3.705 0 1.742 1.261 3.679 3.692 3.679.715 0 1.404-.195 1.989-.572.598-.377 1.092-.949 1.417-1.703h-1.001c-.455.91-1.326 1.443-2.405 1.443-1.183.013-2.678-.832-2.73-2.587zm-6.357-.767c.091-1.274 1.209-2.379 2.717-2.379 1.443-.039 2.626 1.157 2.691 2.379z"/><path d="m136.039 36.932h.962v-3.9c0-.741.169-1.274.468-1.677.286-.416.832-.741 1.482-.715.715.013 1.209.286 1.534.741.273.429.39.884.364 1.664v3.887h.962v-3.887c0-.793.065-1.183.416-1.677.325-.481.923-.728 1.534-.728.663 0 1.105.221 1.391.585.403.455.52 1.118.52 1.859v3.848h.962v-3.887c0-1.235-.182-1.989-.793-2.6-.481-.494-1.17-.702-1.885-.702-.78 0-1.469.299-1.924.78-.26.273-.403.546-.507.741-.039-.078-.273-.546-.455-.728-.494-.559-1.183-.793-1.911-.793-.793 0-1.768.416-2.21 1.3v-1.105h-.91z"/><path d="m148.467 28.651h.962v-1.339h-.962zm0 8.281h.962v-6.994h-.962z"/><path d="m155.214 36.932h.949v-6.227h1.508v-.767h-1.508v-.481c0-1.521 1.027-1.521 1.508-1.547v-.767c-.754 0-2.457.065-2.457 2.223v.572h-1.027v.767h1.027z"/><path d="m165.354 29.938h-.962v1.469c-.338-.793-1.365-1.664-2.86-1.664-2.132 0-3.627 1.638-3.627 3.692 0 1.924 1.352 3.692 3.627 3.692 1.248 0 2.314-.585 2.86-1.638v1.443h.962zm-6.5 3.497c0-1.56 1.17-2.808 2.782-2.808 1.235 0 2.171.715 2.561 1.677.156.338.234.728.221 1.118 0 .377-.078.767-.234 1.105-.377.988-1.287 1.703-2.522 1.703-1.924 0-2.795-1.521-2.808-2.782z"/><path d="m167.226 36.932h.962v-3.9c0-.741.169-1.274.468-1.677.286-.416.832-.741 1.482-.715.715.013 1.209.286 1.534.741.273.429.39.884.364 1.664v3.887h.962v-3.887c0-.793.065-1.183.416-1.677.325-.481.923-.728 1.534-.728.663 0 1.105.221 1.391.585.403.455.52 1.118.52 1.859v3.848h.962v-3.887c0-1.235-.182-1.989-.793-2.6-.481-.494-1.17-.702-1.885-.702-.78 0-1.469.299-1.924.78-.26.273-.403.546-.507.741-.039-.078-.273-.546-.455-.728-.494-.559-1.183-.793-1.911-.793-.793 0-1.768.416-2.21 1.3v-1.105h-.91z"/><path d="m179.654 28.651h.962v-1.339h-.962zm0 8.281h.962v-6.994h-.962z"/><path d="m182.488 27.312h.962v9.62h-.962z"/><path d="m185.309 28.651h.962v-1.339h-.962zm0 8.281h.962v-6.994h-.962z"/><path d="m195.163 29.938h-.962v1.469c-.338-.793-1.365-1.664-2.86-1.664-2.132 0-3.627 1.638-3.627 3.692 0 1.924 1.352 3.692 3.627 3.692 1.248 0 2.314-.585 2.86-1.638v1.443h.962zm-6.5 3.497c0-1.56 1.17-2.808 2.782-2.808 1.235 0 2.171.715 2.561 1.677.156.338.234.728.221 1.118 0 .377-.078.767-.234 1.105-.377.988-1.287 1.703-2.522 1.703-1.924 0-2.795-1.521-2.808-2.782z"/><path d="m197.477 35.502h1.014v1.43h-1.014z"/></g></g></svg>