<?xml version="1.0" encoding="UTF-8" standalone="no"?><!DOCTYPE svg PUBLIC "-//W3C//DTD SVG 1.1//EN" "http://www.w3.org/Graphics/SVG/1.1/DTD/svg11.dtd"><svg width="100%" height="100%" viewBox="0 0 210 50" version="1.1" xmlns="http://www.w3.org/2000/svg" xmlns:xlink="http://www.w3.org/1999/xlink" xml:space="preserve" xmlns:serif="http://www.serif.com/" style="fill-rule:evenodd;clip-rule:evenodd;stroke-miterlimit:10;"><g><path d="M195.904,23.57l7.473,-3.867l0.851,-0.439l-0.851,-0.628l-8.637,-6.371l8.637,0l0,-7.056l-198.226,0l0,38.765l198.226,0l0,-8.695l-8.637,0l8.637,-6.797l0.851,-0.669l-0.851,-0.433l-7.473,-3.81Z" style="fill:#c8badb;fill-rule:nonzero;stroke:#a368ab;stroke-width:1px;"/><g><path d="M15.604,21.728l4.745,0l0,-0.949l-3.666,0l0,-8.671l-1.079,0l0,9.62Z" style="fill:#231f20;fill-rule:nonzero;"/><path d="M28.162,14.734l-0.962,0l0,1.469c-0.338,-0.793 -1.365,-1.664 -2.86,-1.664c-2.132,0 -3.627,1.638 -3.627,3.692c0,1.924 1.352,3.692 3.627,3.692c1.248,0 2.314,-0.585 2.86,-1.638l0,1.443l0.962,0l0,-6.994Zm-6.5,3.497c0,-1.56 1.17,-2.808 2.782,-2.808c1.235,0 2.171,0.715 2.561,1.677c0.156,0.338 0.234,0.728 0.221,1.118c0,0.377 -0.078,0.767 -0.234,1.105c-0.377,0.988 -1.287,1.703 -2.522,1.703c-1.924,0 -2.795,-1.521 -2.808,-2.782l0,-0.013Z" style="fill:#231f20;fill-rule:nonzero;"/><path d="M40.408,14.734l-0.962,0l0,1.469c-0.338,-0.793 -1.365,-1.664 -2.86,-1.664c-2.132,0 -3.627,1.638 -3.627,3.692c0,1.924 1.352,3.692 3.627,3.692c1.248,0 2.314,-0.585 2.86,-1.638l0,1.443l0.962,0l0,-6.994Zm-6.5,3.497c0,-1.56 1.17,-2.808 2.782,-2.808c1.235,0 2.171,0.715 2.561,1.677c0.156,0.338 0.234,0.728 0.221,1.118c0,0.377 -0.078,0.767 -0.234,1.105c-0.377,0.988 -1.287,1.703 -2.522,1.703c-1.924,0 -2.795,-1.521 -2.808,-2.782l0,-0.013Z" style="fill:#231f20;fill-rule:nonzero;"/><rect x="42.085" y="12.108" width="0.962" height="9.62" style="fill:#231f20;fill-rule:nonzero;"/><path d="M44.711,13.447l0.962,0l0,-1.339l-0.962,0l0,1.339Zm0,8.281l0.962,0l0,-6.994l-0.962,0l0,6.994Z" style="fill:#231f20;fill-rule:nonzero;"/><path d="M47.35,21.728l0.962,0l0,-3.9c0,-0.741 0.169,-1.274 0.468,-1.677c0.286,-0.416 0.832,-0.741 1.482,-0.715c0.715,0.013 1.209,0.286 1.534,0.741c0.273,0.429 0.39,0.884 0.364,1.664l0,3.887l0.962,0l0,-3.887c0,-0.793 0.065,-1.183 0.416,-1.677c0.325,-0.481 0.923,-0.728 1.534,-0.728c0.663,0 1.105,0.221 1.391,0.585c0.403,0.455 0.52,1.118 0.52,1.859l0,3.848l0.962,0l0,-3.887c0,-1.235 -0.182,-1.989 -0.793,-2.6c-0.481,-0.494 -1.17,-0.702 -1.885,-0.702c-0.78,0 -1.469,0.299 -1.924,0.78c-0.26,0.273 -0.403,0.546 -0.507,0.741c-0.039,-0.078 -0.273,-0.546 -0.455,-0.728c-0.494,-0.559 -1.183,-0.793 -1.911,-0.793c-0.793,0 -1.768,0.416 -2.21,1.3l0,-1.105l-0.91,0l0,6.994Z" style="fill:#231f20;fill-rule:nonzero;"/><path d="M66.382,18.504c0.104,-1.118 -0.286,-2.197 -1.092,-2.977c-0.663,-0.637 -1.573,-0.988 -2.561,-0.988c-2.093,0 -3.679,1.651 -3.679,3.705c0,1.742 1.261,3.679 3.692,3.679c0.715,0 1.404,-0.195 1.989,-0.572c0.598,-0.377 1.092,-0.949 1.417,-1.703l-1.001,0c-0.455,0.91 -1.326,1.443 -2.405,1.443c-1.183,0.013 -2.678,-0.832 -2.73,-2.587l6.37,0Zm-6.357,-0.767c0.091,-1.274 1.209,-2.379 2.717,-2.379c1.443,-0.039 2.626,1.157 2.691,2.379l-5.408,0Z" style="fill:#231f20;fill-rule:nonzero;"/><path d="M67.552,21.728l0.962,0l0,-3.952c0,-1.456 0.832,-2.327 2.275,-2.34c1.573,-0.026 2.249,1.001 2.249,2.509l0,3.783l0.949,0l0,-3.978c0,-1.703 -0.767,-3.185 -2.938,-3.211c-1.248,-0.026 -2.197,0.533 -2.6,1.443c0.013,-0.468 0.013,-0.858 0.013,-1.248l-0.91,0l0,6.994Z" style="fill:#231f20;fill-rule:nonzero;"/><path d="M76.197,21.728l0.949,0l0,-6.227l1.534,0l0,-0.767l-1.534,0l0,-2.626l-0.949,0l0,2.626l-1.378,0l0,0.767l1.378,0l0,6.227Z" style="fill:#231f20;fill-rule:nonzero;"/><path d="M86.168,14.734l-0.962,0l0,1.469c-0.338,-0.793 -1.365,-1.664 -2.86,-1.664c-2.132,0 -3.627,1.638 -3.627,3.692c0,1.924 1.352,3.692 3.627,3.692c1.248,0 2.314,-0.585 2.86,-1.638l0,1.443l0.962,0l0,-6.994Zm-6.5,3.497c0,-1.56 1.17,-2.808 2.782,-2.808c1.235,0 2.171,0.715 2.561,1.677c0.156,0.338 0.234,0.728 0.221,1.118c0,0.377 -0.078,0.767 -0.234,1.105c-0.377,0.988 -1.287,1.703 -2.522,1.703c-1.924,0 -2.795,-1.521 -2.808,-2.782l0,-0.013Z" style="fill:#231f20;fill-rule:nonzero;"/><path d="M93.656,19.362c-0.299,0.845 -1.196,1.651 -2.535,1.664c-1.508,0 -2.756,-1.144 -2.756,-2.795c0,-0.806 0.325,-1.56 0.793,-2.015c0.585,-0.546 1.157,-0.793 1.976,-0.793c0.988,0 2.093,0.546 2.535,1.729l0.988,0c-0.481,-1.677 -1.989,-2.613 -3.562,-2.613c-2.119,0 -3.692,1.625 -3.692,3.692c0,1.872 1.391,3.692 3.757,3.692c1.677,0 3.042,-1.079 3.497,-2.561l-1.001,0Z" style="fill:#231f20;fill-rule:nonzero;"/><path d="M95.84,13.447l0.962,0l0,-1.339l-0.962,0l0,1.339Zm0,8.281l0.962,0l0,-6.994l-0.962,0l0,6.994Z" style="fill:#231f20;fill-rule:nonzero;"/><path d="M98.05,18.231c0,1.963 1.456,3.679 3.705,3.679c2.262,0 3.718,-1.716 3.718,-3.679c0,-1.963 -1.456,-3.692 -3.718,-3.692c-2.249,0 -3.705,1.729 -3.705,3.679l0,0.013Zm0.949,0c0,-1.599 1.209,-2.795 2.756,-2.795c1.56,0 2.756,1.196 2.756,2.795c0,1.599 -1.196,2.795 -2.756,2.795c-1.547,0 -2.756,-1.196 -2.756,-2.782l0,-0.013Zm1.157,-4.927l0.312,0.624l3.133,-1.677l-0.351,-0.702l-3.094,1.755Z" style="fill:#231f20;fill-rule:nonzero;"/><path d="M106.721,21.728l0.962,0l0,-3.952c0,-1.456 0.832,-2.327 2.275,-2.34c1.573,-0.026 2.249,1.001 2.249,2.509l0,3.783l0.949,0l0,-3.978c0,-1.703 -0.767,-3.185 -2.938,-3.211c-1.248,-0.026 -2.197,0.533 -2.6,1.443c0.013,-0.468 0.013,-0.858 0.013,-1.248l-0.91,0l0,6.994Z" style="fill:#231f20;fill-rule:nonzero;"/><path d="M119.045,24.38l1.04,0l3.991,-9.646l-1.053,0l-2.262,5.655l-2.197,-5.655l-1.027,0l2.704,6.864l-1.196,2.782Z" style="fill:#231f20;fill-rule:nonzero;"/><path d="M135.399,14.734l-0.962,0l0,1.469c-0.338,-0.793 -1.365,-1.664 -2.86,-1.664c-2.132,0 -3.627,1.638 -3.627,3.692c0,1.924 1.352,3.692 3.627,3.692c1.248,0 2.314,-0.585 2.86,-1.638l0,1.443l0.962,0l0,-6.994Zm-6.5,3.497c0,-1.56 1.17,-2.808 2.782,-2.808c1.235,0 2.171,0.715 2.561,1.677c0.156,0.338 0.234,0.728 0.221,1.118c0,0.377 -0.078,0.767 -0.234,1.105c-0.377,0.988 -1.287,1.703 -2.522,1.703c-1.924,0 -2.795,-1.521 -2.808,-2.782l0,-0.013Z" style="fill:#231f20;fill-rule:nonzero;"/><path d="M147.06,14.734l-0.962,0l0,3.952c0,1.456 -0.832,2.327 -2.288,2.34c-1.573,0.013 -2.249,-1.001 -2.249,-2.509l0,-3.783l-0.949,0l0,3.965c0,1.703 0.767,3.185 2.951,3.224c1.248,0.013 2.197,-0.533 2.587,-1.443l0,1.248l0.91,0l0,-6.994Z" style="fill:#231f20;fill-rule:nonzero;"/><path d="M148.737,21.728l0.962,0l0,-3.952c0,-1.456 0.832,-2.327 2.275,-2.34c1.573,-0.026 2.249,1.001 2.249,2.509l0,3.783l0.949,0l0,-3.978c0,-1.703 -0.767,-3.185 -2.938,-3.211c-1.248,-0.026 -2.197,0.533 -2.6,1.443c0.013,-0.468 0.013,-0.858 0.013,-1.248l-0.91,0l0,6.994Z" style="fill:#231f20;fill-rule:nonzero;"/><path d="M163.856,14.734l-0.962,0l0,1.469c-0.338,-0.793 -1.365,-1.664 -2.86,-1.664c-2.132,0 -3.627,1.638 -3.627,3.692c0,1.924 1.352,3.692 3.627,3.692c1.248,0 2.314,-0.585 2.86,-1.638l0,1.443l0.962,0l0,-6.994Zm-6.5,3.497c0,-1.56 1.17,-2.808 2.782,-2.808c1.235,0 2.171,0.715 2.561,1.677c0.156,0.338 0.234,0.728 0.221,1.118c0,0.377 -0.078,0.767 -0.234,1.105c-0.377,0.988 -1.287,1.703 -2.522,1.703c-1.924,0 -2.795,-1.521 -2.808,-2.782l0,-0.013Z" style="fill:#231f20;fill-rule:nonzero;"/></g><g><path d="M21.246,30.737l-1.014,0l-2.236,5.811l-2.249,-5.811l-1.014,0l2.756,6.994l1.001,0l2.756,-6.994Z" style="fill:#231f20;fill-rule:nonzero;"/><path d="M22.104,29.45l0.962,0l0,-1.339l-0.962,0l0,1.339Zm0,8.281l0.962,0l0,-6.994l-0.962,0l0,6.994Z" style="fill:#231f20;fill-rule:nonzero;"/><path d="M30.424,30.737l-1.014,0l-2.236,5.811l-2.249,-5.811l-1.014,0l2.756,6.994l1.001,0l2.756,-6.994Z" style="fill:#231f20;fill-rule:nonzero;"/><path d="M31.282,29.45l0.962,0l0,-1.339l-0.962,0l0,1.339Zm0,8.281l0.962,0l0,-6.994l-0.962,0l0,6.994Z" style="fill:#231f20;fill-rule:nonzero;"/><path d="M40.72,34.507c0.104,-1.118 -0.286,-2.197 -1.092,-2.977c-0.663,-0.637 -1.573,-0.988 -2.561,-0.988c-2.093,0 -3.679,1.651 -3.679,3.705c0,1.742 1.261,3.679 3.692,3.679c0.715,0 1.404,-0.195 1.989,-0.572c0.598,-0.377 1.092,-0.949 1.417,-1.703l-1.001,0c-0.455,0.91 -1.326,1.443 -2.405,1.443c-1.183,0.013 -2.678,-0.832 -2.73,-2.587l6.37,0Zm-6.357,-0.767c0.091,-1.274 1.209,-2.379 2.717,-2.379c1.443,-0.039 2.626,1.157 2.691,2.379l-5.408,0Z" style="fill:#231f20;fill-rule:nonzero;"/><path d="M41.89,37.731l0.962,0l0,-3.952c0,-1.456 0.832,-2.327 2.275,-2.34c1.573,-0.026 2.249,1.001 2.249,2.509l0,3.783l0.949,0l0,-3.978c0,-1.703 -0.767,-3.185 -2.938,-3.211c-1.248,-0.026 -2.197,0.533 -2.6,1.443c0.013,-0.468 0.013,-0.858 0.013,-1.248l-0.91,0l0,6.994Z" style="fill:#231f20;fill-rule:nonzero;"/><path d="M56.983,28.111l-0.962,0l0,4.043c-0.312,-0.728 -1.326,-1.612 -2.86,-1.612c-2.093,0 -3.601,1.599 -3.601,3.679c0,1.963 1.378,3.705 3.614,3.705c1.456,0 2.392,-0.715 2.886,-1.638l0,1.443l0.923,0l0,-9.62Zm-6.474,6.11c0,-1.573 1.183,-2.795 2.795,-2.795c0.78,0 1.482,0.299 1.976,0.806c0.507,0.494 0.806,1.17 0.806,1.963c0.026,0.78 -0.273,1.495 -0.78,2.015c-0.494,0.507 -1.209,0.819 -1.989,0.819c-1.82,0 -2.795,-1.391 -2.808,-2.795l0,-0.013Z" style="fill:#231f20;fill-rule:nonzero;"/><path d="M65.706,30.737l-0.962,0l0,1.469c-0.338,-0.793 -1.365,-1.664 -2.86,-1.664c-2.132,0 -3.627,1.638 -3.627,3.692c0,1.924 1.352,3.692 3.627,3.692c1.248,0 2.314,-0.585 2.86,-1.638l0,1.443l0.962,0l0,-6.994Zm-6.5,3.497c0,-1.56 1.17,-2.808 2.782,-2.808c1.235,0 2.171,0.715 2.561,1.677c0.156,0.338 0.234,0.728 0.221,1.118c0,0.377 -0.078,0.767 -0.234,1.105c-0.377,0.988 -1.287,1.703 -2.522,1.703c-1.924,0 -2.795,-1.521 -2.808,-2.782l0,-0.013Z" style="fill:#231f20;fill-rule:nonzero;"/><rect x="67.825" y="36.301" width="1.014" height="1.43" style="fill:#231f20;fill-rule:nonzero;"/></g></g></svg>