<?xml version="1.0" encoding="UTF-8" standalone="no"?>
<!DOCTYPE svg PUBLIC "-//W3C//DTD SVG 1.1//EN" "http://www.w3.org/Graphics/SVG/1.1/DTD/svg11.dtd">
<svg width="100%" height="100%" viewBox="0 0 258 120" version="1.1" xmlns="http://www.w3.org/2000/svg" xmlns:xlink="http://www.w3.org/1999/xlink" xml:space="preserve" xmlns:serif="http://www.serif.com/" style="fill-rule:evenodd;clip-rule:evenodd;stroke-linejoin:round;stroke-miterlimit:2;">
    <g transform="matrix(1,0,0,1,-1154.29,-7573.7)">
        <g transform="matrix(4.16667,0,0,4.16667,0,7175.19)">
            <g transform="matrix(1,0,0,1,298.355,124.954)">
                <path d="M0,-26.646C2.004,-25.03 2.248,-24.838 3.135,-23.925C7.466,-19.465 7.701,-11.2 2.101,-5.698C-3.35,-0.343 -10.181,0 -14.995,-3.733C-16.284,-4.733 -18.291,-6.609 -19.196,-8.742L0,-26.646Z" style="fill:rgb(0,167,80);fill-rule:nonzero;"/>
            </g>
        </g>
        <g transform="matrix(4.16667,0,0,4.16667,0,7175.19)">
            <g transform="matrix(-0.730632,-0.682772,-0.682772,0.730632,276.567,109.022)">
                <path d="M-9.063,-22.723C-15.099,-22.78 -20.396,-17.091 -20.065,-9.351C-19.742,-1.819 -15.049,3.032 -9.063,3.583C-3.939,4.055 2.042,-1.687 1.935,-9.226C1.828,-16.764 -3.504,-22.67 -9.063,-22.723" style="fill:rgb(119,192,67);fill-rule:nonzero;"/>
            </g>
        </g>
        <g transform="matrix(4.16667,0,0,4.16667,0,7175.19)">
            <g transform="matrix(1,0,0,1,292.071,118.265)">
                <path d="M0,-21.474C-3.494,-21.474 -7.327,-19.889 -10.199,-16.902C-12.778,-14.218 -14.107,-10.616 -13.845,-7.016C-13.654,-4.395 -12.606,-2.164 -10.972,-0.897C-6.232,2.779 0.239,2.017 5.134,-2.79C7.812,-5.421 9.313,-8.864 9.256,-12.234C9.208,-15.004 8.137,-17.489 6.239,-19.228C4.586,-20.745 2.371,-21.474 0,-21.474M-4.29,2.589C-6.907,2.589 -9.465,1.745 -11.685,0.023C-13.58,-1.448 -14.79,-3.982 -15.006,-6.932C-15.292,-10.859 -13.846,-14.787 -11.038,-17.707C-5.791,-23.165 2.48,-24.253 7.025,-20.085C9.161,-18.128 10.366,-15.346 10.419,-12.254C10.482,-8.566 8.854,-4.814 5.948,-1.96C2.887,1.047 -0.756,2.589 -4.29,2.589" style="fill:rgb(35,31,32);fill-rule:nonzero;"/>
            </g>
        </g>
        <g transform="matrix(4.16667,0,0,4.16667,0,7175.19)">
            <g transform="matrix(1,0,0,1,287.556,100.065)">
                <path d="M0,16.074C-4.777,16.276 -6.181,12.35 -6.302,10.684C-6.493,8.056 -5.471,5.304 -3.566,3.324C-1.444,1.116 1.471,-0.202 4.23,-0.202C5.888,-0.202 7.322,0.275 8.268,1.142C9.492,2.264 10.185,3.906 10.216,5.763C10.259,8.234 9.115,10.799 7.079,12.799C4.898,14.941 2.45,16.074 0,16.074" style="fill:rgb(0,167,80);fill-rule:nonzero;"/>
            </g>
        </g>
        <g transform="matrix(4.16667,0,0,4.16667,0,7175.19)">
            <g transform="matrix(1,0,0,1,288.267,101.57)">
                <path d="M0,15.007C-4.46,15.195 -5.77,11.53 -5.883,9.976C-6.062,7.522 -5.107,4.953 -3.33,3.104C-1.349,1.042 1.373,-0.188 3.949,-0.188C5.497,-0.188 6.836,0.258 7.719,1.067C8.861,2.115 9.508,3.648 9.537,5.382C9.577,7.689 8.51,10.082 6.609,11.949C4.573,13.949 2.287,15.007 0,15.007" style="fill:rgb(119,192,67);fill-rule:nonzero;"/>
            </g>
        </g>
        <g transform="matrix(4.16667,0,0,4.16667,0,7175.19)">
            <g transform="matrix(1,0,0,1,291.786,115.564)">
                <path d="M0,-15.119C-2.604,-15.119 -5.361,-13.868 -7.377,-11.771C-9.168,-9.908 -10.131,-7.322 -9.951,-4.856C-9.848,-3.444 -8.64,0.178 -4.254,-0.006C-4.246,-0.007 -4.238,-0.007 -4.229,-0.007C-1.936,-0.007 0.372,-1.082 2.442,-3.115C4.365,-5.004 5.444,-7.413 5.404,-9.724C5.376,-11.422 4.751,-12.914 3.645,-13.928C2.807,-14.696 1.513,-15.119 0,-15.119M-4.589,1.164C-9.573,1.164 -10.989,-3.089 -11.111,-4.771C-11.314,-7.561 -10.232,-10.48 -8.216,-12.578C-5.985,-14.898 -2.914,-16.283 0,-16.283C1.805,-16.283 3.378,-15.751 4.431,-14.785C5.774,-13.554 6.533,-11.764 6.568,-9.745C6.613,-7.115 5.407,-4.396 3.258,-2.285C0.969,-0.037 -1.615,1.153 -4.217,1.157C-4.343,1.162 -4.467,1.164 -4.589,1.164" style="fill:rgb(35,31,32);fill-rule:nonzero;"/>
            </g>
        </g>
        <g transform="matrix(4.16667,0,0,4.16667,0,7175.19)">
            <g transform="matrix(1,0,0,1,290.493,97.8628)">
                <path d="M0,26.417C-2.65,26.417 -5.24,25.562 -7.489,23.818C-8.455,23.068 -10.816,21.057 -11.869,18.576C-11.994,18.28 -11.856,17.938 -11.561,17.813C-11.265,17.688 -10.923,17.826 -10.798,18.122C-9.826,20.413 -7.474,22.357 -6.776,22.898C-1.97,26.626 4.593,25.854 9.556,20.978C13.986,16.625 15.455,8.592 10.58,3.571C9.743,2.71 9.507,2.52 7.668,1.036L7.497,0.898C7.247,0.697 7.208,0.331 7.409,0.08C7.611,-0.17 7.978,-0.209 8.228,-0.007L8.398,0.131C10.245,1.62 10.528,1.849 11.415,2.761C13.662,5.076 14.892,8.409 14.786,11.906C14.674,15.604 13.106,19.12 10.37,21.809C7.27,24.855 3.58,26.417 0,26.417" style="fill:rgb(35,31,32);fill-rule:nonzero;"/>
            </g>
        </g>
        <g transform="matrix(4.16667,0,0,4.16667,0,7175.19)">
            <g transform="matrix(1,0,0,1,90.24,-0.494423)">
                <text x="222.492px" y="114.096px" style="font-family:'MyriadPro-Semibold', 'Myriad Pro', sans-serif;font-weight:600;font-size:11px;fill:rgb(35,31,32);">= 100</text>
            </g>
        </g>
    </g>
</svg>
