<svg clip-rule="evenodd" fill-rule="evenodd" stroke-linejoin="round" stroke-miterlimit="2" viewBox="0 0 1266 120" xmlns="http://www.w3.org/2000/svg"><g fill-rule="nonzero"><path d="m0-12.759c.96.773 1.077.865 1.502 1.303 2.073 2.135 2.186 6.093-.496 8.727-2.61 2.564-5.881 2.729-8.186.941-.617-.479-1.578-1.377-2.011-2.399z" fill="#fec659" transform="matrix(4.16667 0 0 4.16667 1133.99950993 58.48300391)"/><path d="m-4.338-10.881c-2.892-.027-5.427 2.698-5.269 6.403.154 3.608 2.401 5.93 5.269 6.195 2.453.224 5.317-2.525 5.265-6.134-.05-3.61-2.604-6.438-5.265-6.464" fill="#ffec49" transform="matrix(-3.04431493545 -2.84486894256 -2.84486894256 3.04431493545 1090.53280849 26.69547848)"/><path d="m0-10.283c-1.674 0-3.509.76-4.884 2.189-1.235 1.286-1.871 3.011-1.746 4.734.092 1.256.594 2.323 1.376 2.931 2.27 1.759 5.368 1.395 7.712-.908 1.282-1.259 2.002-2.907 1.974-4.521-.023-1.326-.536-2.516-1.445-3.349-.791-.726-1.852-1.076-2.987-1.076m-2.055 11.523c-1.253 0-2.477-.405-3.54-1.229-.908-.704-1.487-1.918-1.591-3.33-.136-1.881.556-3.762 1.901-5.16 2.512-2.614 6.472-3.134 8.649-1.139 1.023.938 1.6 2.27 1.625 3.75.031 1.767-.75 3.563-2.14 4.929-1.466 1.44-3.21 2.178-4.904 2.179" fill="#231f20" transform="matrix(4.16667 0 0 4.16667 1121.4619999 45.13299323)"/><path d="m0 7.697c-2.287.097-2.959-1.783-3.017-2.581-.091-1.259.398-2.576 1.309-3.524 1.017-1.058 2.412-1.689 3.733-1.689.794 0 1.481.229 1.934.644.587.538.918 1.323.933 2.213.02 1.183-.527 2.411-1.501 3.369-1.045 1.025-2.217 1.568-3.391 1.568" fill="#fec659" transform="matrix(4.16667 0 0 4.16667 1112.45365936 8.82463085)"/><path d="m0 7.184c-2.136.091-2.763-1.664-2.817-2.409-.085-1.175.372-2.405 1.222-3.29.949-.988 2.252-1.576 3.486-1.576.741 0 1.382.213 1.804.6.548.502.858 1.236.871 2.067.02 1.103-.491 2.25-1.401 3.144-.976.958-2.069 1.464-3.165 1.464" fill="#ffec49" transform="matrix(4.16667 0 0 4.16667 1113.87449383 11.83296659)"/><path d="m0-7.24c-1.247 0-2.567.6-3.532 1.604-.858.891-1.319 2.129-1.233 3.31.049.677.628 2.411 2.728 2.323.004-.001.008-.001.012-.001 1.098 0 2.204-.514 3.195-1.488.92-.904 1.437-2.058 1.418-3.165-.014-.812-.313-1.527-.843-2.013-.401-.367-1.02-.57-1.745-.57m-2.197 7.797c-2.387 0-3.065-2.036-3.123-2.842-.098-1.336.421-2.733 1.386-3.738 1.068-1.111 2.538-1.774 3.934-1.774.864 0 1.617.254 2.122.717.644.59 1.007 1.446 1.024 2.413.021 1.26-.557 2.562-1.586 3.573-1.096 1.076-2.333 1.646-3.58 1.648-.059.002-.119.003-.177.003" fill="#231f20" transform="matrix(4.16667 0 0 4.16667 1120.89533278 39.74548892)"/><path d="m0 12.649c-1.269 0-2.509-.409-3.586-1.244-.463-.36-1.593-1.322-2.097-2.51-.06-.142.006-.306.148-.365.141-.061.305.006.365.147.465 1.097 1.592 2.029 1.926 2.287 2.301 1.785 5.443 1.415 7.819-.919 2.122-2.084 2.825-5.931.491-8.335-.4-.413-.513-.503-1.394-1.214l-.082-.066c-.119-.096-.138-.272-.042-.391.097-.12.272-.139.391-.042l.082.065c.885.713 1.021.823 1.445 1.26 1.076 1.108 1.665 2.704 1.614 4.379-.054 1.77-.805 3.454-2.114 4.741-1.485 1.459-3.251 2.207-4.966 2.207" fill="#231f20" transform="matrix(4.16667 0 0 4.16667 1118.31616405 4.428794)"/><path d="m0-12.76c.96.774 1.077.865 1.502 1.303 2.073 2.135 2.186 6.093-.496 8.728-2.61 2.564-5.881 2.729-8.186.941-.617-.479-1.578-1.377-2.011-2.399z" fill="#fec659" transform="matrix(4.16667 0 0 4.16667 1172.42454067 118.79138549)"/><path d="m-4.338-10.881c-2.891-.027-5.426 2.697-5.269 6.403.155 3.607 2.401 5.929 5.269 6.194 2.453.225 5.316-2.524 5.266-6.133-.05-3.61-2.604-6.438-5.266-6.464" fill="#ffec49" transform="matrix(-3.04416076866 -2.84503144269 -2.84503144269 3.04416076866 1128.95783923 87.00386006)"/><path d="m0-10.282c-1.674 0-3.509.76-4.884 2.189-1.235 1.286-1.871 3.01-1.746 4.734.092 1.255.594 2.323 1.376 2.931 2.27 1.759 5.368 1.395 7.712-.908 1.282-1.259 2.002-2.908 1.974-4.521-.023-1.327-.536-2.517-1.445-3.35-.791-.725-1.852-1.075-2.987-1.075m-2.055 11.522c-1.253 0-2.477-.404-3.54-1.228-.908-.704-1.487-1.918-1.591-3.331-.136-1.88.556-3.761 1.901-5.159 2.512-2.614 6.472-3.135 8.649-1.139 1.023.938 1.6 2.27 1.625 3.75.031 1.766-.75 3.563-2.14 4.929-1.466 1.44-3.21 2.178-4.904 2.178" fill="#231f20" transform="matrix(4.16667 0 0 4.16667 1159.88703064 105.44137481)"/><path d="m0 7.697c-2.287.097-2.959-1.783-3.017-2.58-.091-1.259.398-2.576 1.309-3.524 1.017-1.058 2.412-1.69 3.733-1.69.794 0 1.481.23 1.934.645.587.537.918 1.323.933 2.212.02 1.183-.527 2.412-1.501 3.369-1.045 1.026-2.217 1.568-3.391 1.568" fill="#fec659" transform="matrix(4.16667 0 0 4.16667 1150.8786901 69.12884576)"/><path d="m0 7.186c-2.136.09-2.763-1.665-2.817-2.409-.085-1.175.372-2.405 1.222-3.291.949-.987 2.252-1.576 3.486-1.576.741 0 1.382.214 1.804.601.548.502.858 1.236.871 2.066.02 1.104-.491 2.251-1.401 3.145-.976.957-2.07 1.464-3.165 1.464" fill="#ffec49" transform="matrix(4.16667 0 0 4.16667 1152.29952457 72.13301483)"/><path d="m0-7.239c-1.247 0-2.567.599-3.532 1.603-.858.892-1.319 2.13-1.233 3.311.049.676.628 2.41 2.728 2.322h.012c1.098 0 2.204-.514 3.195-1.488.92-.904 1.437-2.059 1.418-3.165-.014-.812-.314-1.527-.843-2.013-.401-.368-1.02-.57-1.745-.57m-2.197 7.797c-2.387 0-3.065-2.036-3.123-2.842-.098-1.337.421-2.733 1.386-3.738 1.068-1.112 2.538-1.775 3.934-1.775.864 0 1.617.255 2.122.718.644.589 1.007 1.446 1.024 2.413.021 1.259-.557 2.561-1.586 3.573-1.096 1.076-2.333 1.646-3.58 1.647-.059.003-.119.004-.177.004" fill="#231f20" transform="matrix(4.16667 0 0 4.16667 1159.31619685 100.0538705)"/><path d="m0 12.649c-1.269 0-2.509-.41-3.586-1.245-.463-.359-1.593-1.321-2.098-2.51-.059-.141.007-.305.149-.365.141-.06.305.006.365.147.465 1.098 1.592 2.029 1.926 2.288 2.301 1.785 5.443 1.415 7.819-.919 2.122-2.084 2.825-5.931.491-8.335-.401-.413-.513-.504-1.394-1.214l-.082-.067c-.119-.095-.139-.271-.042-.391.097-.119.272-.138.391-.042l.082.066c.885.713 1.021.822 1.445 1.26 1.076 1.108 1.665 2.704 1.614 4.379-.054 1.77-.805 3.454-2.114 4.741-1.485 1.459-3.251 2.207-4.966 2.207" fill="#231f20" transform="matrix(4.16667 0 0 4.16667 1156.73702812 64.74134225)"/><path d="m0-12.759c.959.773 1.076.865 1.501 1.303 2.073 2.135 2.187 6.093-.495 8.727-2.61 2.564-5.881 2.729-8.186.941-.618-.479-1.579-1.377-2.011-2.399z" fill="#fec659" transform="matrix(4.16667 0 0 4.16667 1213.2954067 58.48300391)"/><path d="m-4.34-10.881c-2.891-.027-5.427 2.697-5.268 6.403.154 3.608 2.401 5.93 5.268 6.194 2.454.225 5.318-2.524 5.266-6.133-.051-3.611-2.604-6.439-5.266-6.464" fill="#ffec49" transform="matrix(-3.04431493545 -2.84486894256 -2.84486894256 3.04431493545 1169.82037192 26.69131181)"/><path d="m0-10.283c-1.674 0-3.509.76-4.884 2.189-1.235 1.286-1.872 3.011-1.746 4.734.092 1.256.593 2.323 1.376 2.931 2.27 1.759 5.368 1.395 7.712-.908 1.282-1.259 2.001-2.907 1.974-4.521-.023-1.326-.536-2.516-1.445-3.349-.792-.726-1.852-1.076-2.987-1.076m-2.055 11.523c-1.253 0-2.477-.405-3.541-1.229-.907-.704-1.487-1.918-1.59-3.33-.136-1.881.556-3.762 1.9-5.16 2.513-2.614 6.473-3.134 8.649-1.139 1.023.938 1.6 2.27 1.625 3.75.031 1.767-.749 3.563-2.14 4.929-1.466 1.44-3.21 2.178-4.903 2.179" fill="#231f20" transform="matrix(4.16667 0 0 4.16667 1200.75789667 45.13299323)"/><path d="m0 7.697c-2.288.097-2.959-1.783-3.018-2.581-.091-1.259.399-2.576 1.31-3.524 1.017-1.058 2.412-1.689 3.733-1.689.794 0 1.481.229 1.934.644.586.538.917 1.323.933 2.213.02 1.183-.528 2.411-1.502 3.369-1.044 1.025-2.217 1.568-3.39 1.568" fill="#fec659" transform="matrix(4.16667 0 0 4.16667 1191.74955613 8.82463085)"/><path d="m0 7.184c-2.135.091-2.763-1.664-2.816-2.409-.086-1.175.371-2.405 1.222-3.29.948-.988 2.252-1.576 3.486-1.576.741 0 1.381.213 1.804.6.548.502.857 1.236.871 2.067.02 1.103-.492 2.25-1.402 3.144-.975.958-2.069 1.464-3.165 1.464" fill="#ffec49" transform="matrix(4.16667 0 0 4.16667 1193.16622393 11.83296659)"/><path d="m0-7.24c-1.247 0-2.567.6-3.532 1.604-.859.891-1.32 2.129-1.233 3.31.049.677.628 2.411 2.728 2.323.004-.001.008-.001.012-.001 1.098 0 2.203-.514 3.194-1.488.921-.904 1.437-2.058 1.419-3.165-.014-.812-.314-1.527-.843-2.013-.401-.367-1.021-.57-1.745-.57m-2.197 7.797c-2.387 0-3.065-2.036-3.123-2.842-.098-1.336.421-2.733 1.385-3.738 1.069-1.111 2.539-1.774 3.935-1.774.863 0 1.617.254 2.121.717.644.59 1.007 1.446 1.024 2.413.022 1.26-.556 2.562-1.585 3.573-1.096 1.076-2.333 1.646-3.58 1.648-.06.002-.12.003-.177.003" fill="#231f20" transform="matrix(4.16667 0 0 4.16667 1200.18706288 39.74548892)"/><path d="m0 12.649c-1.27 0-2.51-.409-3.586-1.244-.463-.36-1.594-1.322-2.098-2.51-.059-.142.006-.306.148-.365.141-.061.306.006.365.147.466 1.097 1.592 2.029 1.926 2.287 2.302 1.785 5.444 1.415 7.82-.919 2.121-2.084 2.825-5.931.491-8.335-.401-.413-.514-.503-1.394-1.214l-.082-.066c-.12-.096-.139-.272-.042-.391.097-.12.271-.139.391-.042l.082.065c.884.713 1.02.823 1.445 1.26 1.076 1.108 1.664 2.704 1.614 4.379-.054 1.77-.805 3.454-2.114 4.741-1.486 1.459-3.252 2.207-4.966 2.207" fill="#231f20" transform="matrix(4.16667 0 0 4.16667 1197.60789415 4.428794)"/><path d="m0-12.76c.959.774 1.076.865 1.501 1.303 2.073 2.135 2.187 6.093-.495 8.728-2.61 2.564-5.881 2.729-8.187.941-.617-.479-1.578-1.377-2.01-2.399z" fill="#fec659" transform="matrix(4.16667 0 0 4.16667 1251.71627077 118.79138549)"/><path d="m-4.34-10.881c-2.89-.027-5.426 2.696-5.268 6.403.155 3.607 2.401 5.929 5.268 6.193 2.454.226 5.317-2.523 5.266-6.132-.05-3.611-2.604-6.439-5.266-6.464" fill="#ffec49" transform="matrix(-3.04416076866 -2.84503144269 -2.84503144269 3.04416076866 1208.24540266 86.99969339)"/><path d="m0-10.282c-1.674 0-3.509.76-4.884 2.189-1.235 1.286-1.872 3.01-1.746 4.734.091 1.255.593 2.323 1.376 2.931 2.27 1.759 5.368 1.395 7.712-.908 1.282-1.259 2.001-2.908 1.974-4.521-.024-1.327-.536-2.517-1.445-3.35-.792-.725-1.852-1.075-2.987-1.075m-2.055 11.522c-1.253 0-2.477-.404-3.541-1.228-.907-.704-1.487-1.918-1.59-3.331-.136-1.88.556-3.761 1.9-5.159 2.513-2.614 6.473-3.135 8.649-1.139 1.023.938 1.6 2.27 1.625 3.75.031 1.766-.75 3.563-2.14 4.929-1.466 1.44-3.21 2.178-4.903 2.178" fill="#231f20" transform="matrix(4.16667 0 0 4.16667 1239.17876074 105.44137481)"/><path d="m0 7.697c-2.288.097-2.959-1.783-3.018-2.58-.091-1.259.399-2.576 1.31-3.524 1.017-1.058 2.412-1.69 3.733-1.69.794 0 1.481.23 1.934.645.586.537.917 1.323.933 2.212.02 1.183-.528 2.412-1.502 3.369-1.044 1.026-2.217 1.568-3.39 1.568" fill="#fec659" transform="matrix(4.16667 0 0 4.16667 1230.1704202 69.12884576)"/><path d="m0 7.186c-2.136.09-2.763-1.665-2.816-2.409-.086-1.175.371-2.405 1.222-3.291.948-.987 2.252-1.576 3.486-1.576.741 0 1.381.214 1.804.601.548.502.857 1.236.871 2.066.02 1.104-.492 2.251-1.402 3.145-.975.957-2.069 1.464-3.165 1.464" fill="#ffec49" transform="matrix(4.16667 0 0 4.16667 1231.587088 72.13301483)"/><path d="m0-7.239c-1.247 0-2.567.599-3.533 1.603-.858.892-1.319 2.13-1.232 3.311.049.676.628 2.41 2.728 2.322h.012c1.098 0 2.203-.514 3.194-1.488.921-.904 1.437-2.059 1.419-3.165-.014-.812-.314-1.527-.843-2.013-.401-.368-1.021-.57-1.745-.57m-2.197 7.797c-2.387 0-3.065-2.036-3.123-2.842-.098-1.337.421-2.733 1.385-3.738 1.069-1.112 2.539-1.775 3.935-1.775.863 0 1.617.255 2.121.718.644.589 1.007 1.446 1.024 2.413.021 1.259-.556 2.561-1.585 3.573-1.096 1.076-2.333 1.646-3.58 1.647-.06.003-.12.004-.177.004" fill="#231f20" transform="matrix(4.16667 0 0 4.16667 1238.61209362 100.0538705)"/><path d="m0 12.649c-1.27 0-2.51-.41-3.586-1.245-.463-.359-1.594-1.321-2.098-2.51-.059-.141.006-.305.148-.365.141-.06.306.006.365.147.466 1.098 1.592 2.029 1.926 2.288 2.302 1.785 5.444 1.415 7.82-.919 2.121-2.084 2.825-5.931.49-8.335-.4-.413-.513-.504-1.393-1.214l-.082-.067c-.12-.095-.139-.271-.042-.391.097-.119.271-.138.391-.042l.082.066c.884.713 1.02.822 1.445 1.26 1.076 1.108 1.664 2.704 1.614 4.379-.054 1.77-.805 3.454-2.114 4.741-1.486 1.459-3.252 2.207-4.966 2.207" fill="#231f20" transform="matrix(4.16667 0 0 4.16667 1236.03292489 64.74134225)"/><path d="m0-12.759c.959.773 1.076.865 1.501 1.303 2.073 2.135 2.187 6.093-.495 8.727-2.61 2.564-5.881 2.729-8.186.941-.618-.479-1.579-1.377-2.011-2.399z" fill="#00a750" transform="matrix(4.16667 0 0 4.16667 428.73227905 58.5538373)"/><path d="m-4.34-10.881c-2.891-.027-5.427 2.697-5.268 6.403.154 3.608 2.401 5.93 5.268 6.194 2.454.225 5.318-2.524 5.266-6.133-.051-3.611-2.604-6.439-5.266-6.464" fill="#77c043" transform="matrix(-3.04431493545 -2.84486894256 -2.84486894256 3.04431493545 385.26141094 26.76631187)"/><path d="m0-10.281c-1.674 0-3.509.759-4.884 2.188-1.235 1.286-1.872 3.011-1.746 4.734.092 1.256.593 2.323 1.376 2.931 2.27 1.759 5.368 1.395 7.712-.908 1.282-1.259 2.001-2.907 1.974-4.521-.023-1.326-.536-2.516-1.445-3.349-.792-.726-1.852-1.075-2.987-1.075m-2.055 11.522c-1.253 0-2.477-.405-3.541-1.229-.907-.704-1.487-1.918-1.59-3.33-.136-1.881.556-3.762 1.9-5.16 2.513-2.614 6.473-3.134 8.649-1.139 1.023.938 1.6 2.27 1.625 3.75.031 1.767-.749 3.563-2.14 4.929-1.466 1.44-3.21 2.178-4.903 2.179" fill="#231f20" transform="matrix(4.16667 0 0 4.16667 416.19893569 45.20382662)"/><path d="m0 7.697c-2.288.097-2.959-1.783-3.018-2.581-.091-1.259.399-2.576 1.31-3.524 1.017-1.058 2.412-1.689 3.733-1.689.794 0 1.481.229 1.934.644.586.538.917 1.323.933 2.213.02 1.183-.528 2.411-1.502 3.369-1.044 1.025-2.217 1.568-3.39 1.568" fill="#00a750" transform="matrix(4.16667 0 0 4.16667 407.19059515 8.89546424)"/><path d="m0 7.184c-2.136.091-2.764-1.664-2.817-2.409-.086-1.175.371-2.405 1.222-3.29.949-.988 2.252-1.576 3.486-1.576.741 0 1.381.213 1.804.6.548.502.857 1.236.871 2.067.02 1.103-.492 2.25-1.402 3.144-.975.958-2.069 1.464-3.164 1.464" fill="#77c043" transform="matrix(4.16667 0 0 4.16667 408.61142962 11.90379998)"/><path d="m0-7.24c-1.247 0-2.567.6-3.532 1.604-.859.891-1.32 2.129-1.233 3.31.049.677.628 2.411 2.728 2.323.004-.001.008-.001.012-.001 1.098 0 2.203-.514 3.194-1.488.921-.904 1.437-2.058 1.419-3.165-.014-.812-.314-1.527-.843-2.013-.401-.367-1.021-.57-1.745-.57m-2.197 7.797c-2.387 0-3.065-2.036-3.123-2.842-.098-1.336.421-2.733 1.385-3.738 1.069-1.111 2.539-1.774 3.935-1.774.863 0 1.617.254 2.121.717.644.59 1.007 1.446 1.024 2.413.022 1.26-.556 2.562-1.585 3.573-1.096 1.076-2.333 1.646-3.58 1.648-.06.002-.12.003-.177.003" fill="#231f20" transform="matrix(4.16667 0 0 4.16667 415.6281019 39.82048898)"/><path d="m0 12.649c-1.27 0-2.51-.409-3.586-1.244-.463-.36-1.594-1.322-2.098-2.51-.059-.142.006-.306.148-.365.141-.061.306.006.365.147.466 1.097 1.592 2.029 1.926 2.287 2.302 1.785 5.444 1.415 7.82-.919 2.121-2.084 2.825-5.931.491-8.335-.401-.413-.514-.503-1.394-1.214l-.082-.066c-.12-.096-.139-.272-.042-.391.097-.12.271-.139.391-.042l.082.065c.884.713 1.02.823 1.445 1.26 1.076 1.108 1.664 2.704 1.614 4.379-.054 1.77-.805 3.454-2.114 4.741-1.486 1.459-3.252 2.207-4.966 2.207" fill="#231f20" transform="matrix(4.16667 0 0 4.16667 413.04893317 4.50379406)"/><path d="m0-12.759c.959.773 1.076.865 1.501 1.303 2.073 2.135 2.187 6.093-.495 8.727-2.61 2.564-5.881 2.729-8.187.941-.617-.479-1.578-1.377-2.011-2.399z" fill="#00a750" transform="matrix(4.16667 0 0 4.16667 493.64483098 58.5538373)"/><path d="m-4.339-10.881c-2.891-.027-5.427 2.698-5.268 6.403.154 3.608 2.402 5.93 5.268 6.194 2.454.225 5.318-2.524 5.266-6.134-.051-3.61-2.605-6.438-5.266-6.463" fill="#77c043" transform="matrix(-3.04448160225 -2.84468977575 -2.84468977575 3.04448160225 450.17396287 26.77047854)"/><path d="m0-10.281c-1.674 0-3.51.759-4.885 2.188-1.234 1.286-1.871 3.011-1.745 4.734.091 1.256.593 2.323 1.376 2.931 2.27 1.759 5.368 1.395 7.711-.908 1.282-1.259 2.002-2.907 1.975-4.521-.024-1.326-.536-2.516-1.445-3.349-.792-.726-1.852-1.075-2.987-1.075m-2.055 11.522c-1.253 0-2.477-.405-3.541-1.229-.907-.704-1.487-1.918-1.59-3.33-.137-1.881.556-3.762 1.9-5.16 2.513-2.614 6.473-3.134 8.649-1.139 1.023.938 1.6 2.27 1.625 3.75.031 1.767-.75 3.563-2.14 4.929-1.466 1.44-3.21 2.178-4.903 2.179" fill="#231f20" transform="matrix(4.16667 0 0 4.16667 481.10732095 45.20382662)"/><path d="m0 7.697c-2.288.097-2.96-1.783-3.018-2.581-.091-1.259.398-2.576 1.31-3.524 1.017-1.058 2.412-1.689 3.733-1.689.794 0 1.481.229 1.933.644.587.538.918 1.323.934 2.213.02 1.183-.528 2.411-1.502 3.369-1.044 1.025-2.217 1.568-3.39 1.568" fill="#00a750" transform="matrix(4.16667 0 0 4.16667 472.09898041 8.89546424)"/><path d="m0 7.184c-2.136.091-2.763-1.664-2.816-2.409-.086-1.175.371-2.405 1.222-3.29.948-.988 2.252-1.576 3.486-1.576.741 0 1.381.213 1.804.6.547.502.857 1.236.871 2.067.019 1.103-.492 2.25-1.402 3.144-.975.958-2.069 1.464-3.165 1.464" fill="#77c043" transform="matrix(4.16667 0 0 4.16667 473.51564821 11.90379998)"/><path d="m0-7.24c-1.247 0-2.567.6-3.533 1.604-.858.891-1.319 2.129-1.233 3.31.05.677.628 2.411 2.729 2.323.004-.001.007-.001.012-.001 1.098 0 2.203-.514 3.194-1.488.921-.904 1.437-2.058 1.419-3.165-.015-.812-.314-1.527-.843-2.013-.401-.367-1.021-.57-1.745-.57m-2.197 7.797c-2.387 0-3.066-2.036-3.124-2.842-.097-1.336.421-2.733 1.386-3.738 1.069-1.111 2.539-1.774 3.935-1.774.863 0 1.617.254 2.121.717.644.59 1.007 1.446 1.024 2.413.021 1.26-.556 2.562-1.585 3.573-1.096 1.076-2.334 1.646-3.58 1.648-.06.002-.12.003-.177.003" fill="#231f20" transform="matrix(4.16667 0 0 4.16667 480.53648716 39.82048898)"/><path d="m0 12.649c-1.269 0-2.509-.409-3.585-1.244-.463-.36-1.594-1.322-2.098-2.51-.06-.142.006-.306.148-.365.141-.061.306.006.365.147.466 1.097 1.592 2.029 1.926 2.287 2.302 1.785 5.444 1.415 7.82-.919 2.121-2.084 2.825-5.931.49-8.335-.4-.413-.513-.503-1.394-1.214l-.081-.066c-.12-.096-.139-.272-.042-.391.097-.12.271-.139.391-.042l.082.065c.884.713 1.02.823 1.445 1.26 1.076 1.108 1.664 2.704 1.613 4.379-.053 1.77-.804 3.454-2.114 4.741-1.485 1.459-3.251 2.207-4.966 2.207" fill="#231f20" transform="matrix(4.16667 0 0 4.16667 477.95315176 4.50379406)"/><path d="m0-12.759c.96.773 1.077.865 1.502 1.303 2.073 2.135 2.186 6.093-.496 8.727-2.61 2.564-5.88 2.729-8.186.941-.617-.479-1.578-1.377-2.011-2.399z" fill="#00a750" transform="matrix(4.16667 0 0 4.16667 558.54904957 58.5538373)"/><path d="m-4.339-10.881c-2.891-.027-5.427 2.698-5.268 6.403.154 3.608 2.402 5.93 5.268 6.194 2.454.225 5.318-2.524 5.266-6.134-.051-3.61-2.604-6.438-5.266-6.463" fill="#77c043" transform="matrix(-3.04448160225 -2.84468977575 -2.84468977575 3.04448160225 515.08234813 26.77047854)"/><path d="m0-10.281c-1.673 0-3.509.759-4.884 2.188-1.235 1.286-1.871 3.011-1.746 4.734.092 1.256.594 2.323 1.376 2.931 2.27 1.759 5.368 1.395 7.712-.908 1.282-1.259 2.002-2.907 1.974-4.521-.023-1.326-.536-2.516-1.445-3.349-.791-.726-1.851-1.075-2.987-1.075m-2.055 11.522c-1.253 0-2.477-.405-3.54-1.229-.908-.704-1.487-1.918-1.591-3.33-.136-1.881.556-3.762 1.901-5.16 2.512-2.614 6.472-3.134 8.649-1.139 1.023.938 1.6 2.27 1.625 3.75.031 1.767-.75 3.563-2.14 4.929-1.466 1.44-3.21 2.178-4.904 2.179" fill="#231f20" transform="matrix(4.16667 0 0 4.16667 546.01153954 45.20382662)"/><path d="m0 7.697c-2.287.097-2.959-1.783-3.017-2.581-.091-1.259.398-2.576 1.31-3.524 1.016-1.058 2.412-1.689 3.733-1.689.793 0 1.481.229 1.933.644.587.538.918 1.323.934 2.213.02 1.183-.528 2.411-1.502 3.369-1.045 1.025-2.217 1.568-3.391 1.568" fill="#00a750" transform="matrix(4.16667 0 0 4.16667 537.003199 8.89546424)"/><path d="m0 7.184c-2.136.091-2.763-1.664-2.816-2.409-.086-1.175.371-2.405 1.221-3.29.949-.988 2.252-1.576 3.486-1.576.741 0 1.382.213 1.805.6.547.502.857 1.236.87 2.067.02 1.103-.491 2.25-1.401 3.144-.976.958-2.069 1.464-3.165 1.464" fill="#77c043" transform="matrix(4.16667 0 0 4.16667 538.42403347 11.90379998)"/><path d="m0-7.24c-1.247 0-2.567.6-3.532 1.604-.858.891-1.319 2.129-1.233 3.31.05.677.628 2.411 2.728 2.323.004-.001.008-.001.012-.001 1.098 0 2.204-.514 3.195-1.488.921-.904 1.437-2.058 1.418-3.165-.014-.812-.313-1.527-.843-2.013-.401-.367-1.02-.57-1.745-.57m-2.197 7.797c-2.387 0-3.065-2.036-3.123-2.842-.098-1.336.421-2.733 1.386-3.738 1.068-1.111 2.538-1.774 3.934-1.774.864 0 1.617.254 2.122.717.644.59 1.007 1.446 1.024 2.413.021 1.26-.557 2.562-1.586 3.573-1.096 1.076-2.333 1.646-3.58 1.648-.059.002-.119.003-.177.003" fill="#231f20" transform="matrix(4.16667 0 0 4.16667 545.44070575 39.82048898)"/><path d="m0 12.649c-1.269 0-2.509-.409-3.586-1.244-.463-.36-1.593-1.322-2.097-2.51-.06-.142.006-.306.148-.365.141-.061.305.006.365.147.465 1.097 1.592 2.029 1.926 2.287 2.301 1.785 5.443 1.415 7.82-.919 2.121-2.084 2.824-5.931.49-8.335-.4-.413-.513-.503-1.394-1.214l-.082-.066c-.119-.096-.138-.272-.042-.391.098-.12.272-.139.392-.042l.081.065c.885.713 1.021.823 1.445 1.26 1.076 1.108 1.665 2.704 1.614 4.379-.054 1.77-.804 3.454-2.114 4.741-1.485 1.459-3.251 2.207-4.966 2.207" fill="#231f20" transform="matrix(4.16667 0 0 4.16667 542.86153702 4.50379406)"/><path d="m0-12.759c.96.773 1.076.865 1.501 1.303 2.074 2.135 2.187 6.093-.495 8.727-2.61 2.564-5.881 2.729-8.186.941-.617-.479-1.578-1.377-2.011-2.399z" fill="#00a750" transform="matrix(4.16667 0 0 4.16667 623.45743483 58.5538373)"/><path d="m-4.339-10.881c-2.891-.027-5.427 2.698-5.269 6.402.154 3.609 2.401 5.93 5.269 6.195 2.453.225 5.318-2.524 5.266-6.133-.051-3.61-2.604-6.439-5.266-6.464" fill="#77c043" transform="matrix(-3.04431493545 -2.84486894256 -2.84486894256 3.04431493545 579.98656672 26.76631187)"/><path d="m0-10.281c-1.674 0-3.509.759-4.884 2.188-1.235 1.286-1.872 3.011-1.746 4.734.092 1.256.593 2.323 1.376 2.931 2.27 1.759 5.368 1.395 7.712-.908 1.282-1.259 2.002-2.907 1.974-4.521-.023-1.326-.536-2.516-1.445-3.349-.792-.726-1.852-1.075-2.987-1.075m-2.055 11.522c-1.253 0-2.477-.405-3.54-1.229-.908-.704-1.487-1.918-1.591-3.33-.136-1.881.556-3.762 1.901-5.16 2.512-2.614 6.472-3.134 8.649-1.139 1.023.938 1.599 2.27 1.625 3.75.031 1.767-.75 3.563-2.14 4.929-1.467 1.44-3.211 2.178-4.904 2.179" fill="#231f20" transform="matrix(4.16667 0 0 4.16667 610.9199248 45.20382662)"/><path d="m0 7.697c-2.287.097-2.959-1.783-3.018-2.581-.091-1.259.399-2.576 1.31-3.524 1.017-1.058 2.412-1.689 3.733-1.689.794 0 1.481.229 1.934.644.586.538.918 1.323.933 2.213.02 1.183-.527 2.411-1.502 3.369-1.044 1.025-2.216 1.568-3.39 1.568" fill="#00a750" transform="matrix(4.16667 0 0 4.16667 601.91158426 8.89546424)"/><path d="m0 7.184c-2.136.091-2.763-1.664-2.817-2.409-.085-1.175.372-2.405 1.222-3.29.949-.988 2.252-1.576 3.486-1.576.741 0 1.381.213 1.804.6.548.502.858 1.236.871 2.067.02 1.103-.492 2.25-1.402 3.144-.975.958-2.069 1.464-3.164 1.464" fill="#77c043" transform="matrix(4.16667 0 0 4.16667 603.33241873 11.90379998)"/><path d="m0-7.24c-1.247 0-2.567.6-3.532 1.604-.859.891-1.319 2.129-1.233 3.31.049.677.628 2.411 2.728 2.323.004-.001.008-.001.012-.001 1.098 0 2.204-.514 3.195-1.488.92-.904 1.437-2.058 1.418-3.165-.014-.812-.314-1.527-.843-2.013-.401-.367-1.02-.57-1.745-.57m-2.197 7.797c-2.387 0-3.065-2.036-3.123-2.842-.098-1.336.421-2.733 1.386-3.738 1.068-1.111 2.538-1.774 3.934-1.774.864 0 1.617.254 2.122.717.643.59 1.006 1.446 1.023 2.413.022 1.26-.556 2.562-1.585 3.573-1.096 1.076-2.333 1.646-3.58 1.648-.059.002-.119.003-.177.003" fill="#231f20" transform="matrix(4.16667 0 0 4.16667 610.34909101 39.82048898)"/><path d="m0 12.649c-1.27 0-2.51-.409-3.586-1.244-.463-.36-1.594-1.322-2.098-2.51-.059-.142.006-.306.149-.365.141-.061.305.006.364.147.466 1.097 1.592 2.029 1.927 2.287 2.301 1.785 5.443 1.415 7.819-.919 2.122-2.084 2.825-5.931.491-8.335-.401-.413-.513-.503-1.394-1.214l-.082-.066c-.12-.096-.139-.272-.042-.391.097-.12.272-.139.391-.042l.082.065c.884.713 1.021.823 1.445 1.26 1.076 1.108 1.665 2.704 1.614 4.379-.054 1.77-.805 3.454-2.114 4.741-1.485 1.459-3.252 2.207-4.966 2.207" fill="#231f20" transform="matrix(4.16667 0 0 4.16667 607.76992228 4.50379406)"/><path d="m0-12.759c.959.773 1.076.865 1.501 1.303 2.073 2.135 2.187 6.093-.495 8.727-2.61 2.564-5.881 2.729-8.187.941-.617-.479-1.578-1.377-2.011-2.399z" fill="#00a750" transform="matrix(4.16667 0 0 4.16667 689.14915405 58.5538373)"/><path d="m-4.34-10.881c-2.891-.027-5.427 2.697-5.268 6.403.154 3.608 2.401 5.93 5.268 6.194 2.454.225 5.318-2.524 5.266-6.133-.051-3.611-2.604-6.439-5.266-6.464" fill="#77c043" transform="matrix(-3.04431493545 -2.84486894256 -2.84486894256 3.04431493545 645.67411927 26.76631187)"/><path d="m0-10.281c-1.674 0-3.509.759-4.885 2.188-1.234 1.286-1.871 3.011-1.745 4.734.091 1.256.593 2.323 1.376 2.931 2.27 1.759 5.368 1.395 7.712-.908 1.282-1.259 2.001-2.907 1.974-4.521-.024-1.326-.536-2.516-1.445-3.349-.792-.726-1.852-1.075-2.987-1.075m-2.055 11.522c-1.253 0-2.477-.405-3.541-1.229-.907-.704-1.487-1.918-1.59-3.33-.137-1.881.556-3.762 1.9-5.16 2.513-2.614 6.473-3.134 8.649-1.139 1.023.938 1.6 2.27 1.625 3.75.031 1.767-.75 3.563-2.14 4.929-1.466 1.44-3.21 2.178-4.903 2.179" fill="#231f20" transform="matrix(4.16667 0 0 4.16667 676.61164402 45.20382662)"/><path d="m0 7.697c-2.288.097-2.96-1.783-3.018-2.581-.091-1.259.398-2.576 1.31-3.524 1.017-1.058 2.412-1.689 3.733-1.689.794 0 1.481.229 1.934.644.586.538.917 1.323.933 2.213.02 1.183-.528 2.411-1.502 3.369-1.044 1.025-2.217 1.568-3.39 1.568" fill="#00a750" transform="matrix(4.16667 0 0 4.16667 667.60330348 8.89546424)"/><path d="m0 7.184c-2.136.091-2.763-1.664-2.816-2.409-.086-1.175.371-2.405 1.222-3.29.948-.988 2.252-1.576 3.486-1.576.741 0 1.381.213 1.804.6.548.502.857 1.236.871 2.067.019 1.103-.492 2.25-1.402 3.144-.975.958-2.069 1.464-3.165 1.464" fill="#77c043" transform="matrix(4.16667 0 0 4.16667 669.01580461 11.90379998)"/><path d="m0-7.24c-1.247 0-2.567.6-3.533 1.604-.858.891-1.319 2.129-1.233 3.31.05.677.628 2.411 2.729 2.323.004-.001.008-.001.012-.001 1.098 0 2.203-.514 3.194-1.488.921-.904 1.437-2.058 1.419-3.165-.014-.812-.314-1.527-.843-2.013-.401-.367-1.021-.57-1.745-.57m-2.197 7.797c-2.387 0-3.066-2.036-3.124-2.842-.097-1.336.421-2.733 1.386-3.738 1.069-1.111 2.539-1.774 3.935-1.774.863 0 1.617.254 2.121.717.644.59 1.007 1.446 1.024 2.413.021 1.26-.556 2.562-1.585 3.573-1.096 1.076-2.333 1.646-3.58 1.648-.06.002-.12.003-.177.003" fill="#231f20" transform="matrix(4.16667 0 0 4.16667 676.04081023 39.82048898)"/><path d="m0 12.649c-1.27 0-2.51-.409-3.586-1.244-.463-.36-1.594-1.322-2.098-2.51-.06-.142.006-.306.148-.365.141-.061.306.006.365.147.466 1.097 1.592 2.029 1.926 2.287 2.302 1.785 5.444 1.415 7.82-.919 2.121-2.084 2.825-5.931.49-8.335-.4-.413-.513-.503-1.393-1.214l-.082-.066c-.12-.096-.139-.272-.042-.391.097-.12.271-.139.391-.042l.082.065c.884.713 1.02.823 1.445 1.26 1.076 1.108 1.664 2.704 1.613 4.379-.053 1.77-.804 3.454-2.113 4.741-1.486 1.459-3.252 2.207-4.966 2.207" fill="#231f20" transform="matrix(4.16667 0 0 4.16667 673.4616415 4.50379406)"/><path d="m0-12.759c.959.773 1.076.865 1.501 1.303 2.073 2.135 2.187 6.093-.495 8.727-2.61 2.564-5.881 2.729-8.187.941-.617-.479-1.578-1.377-2.011-2.399z" fill="#00a750" transform="matrix(4.16667 0 0 4.16667 461.01147154 119.49138605)"/><path d="m-4.34-10.881c-2.89-.027-5.426 2.697-5.268 6.403.155 3.607 2.401 5.929 5.268 6.193 2.454.226 5.317-2.523 5.266-6.132-.05-3.61-2.604-6.439-5.266-6.464" fill="#77c043" transform="matrix(-3.04416076866 -2.84503144269 -2.84503144269 3.04416076866 417.53643676 87.69969395)"/><path d="m0-10.283c-1.674 0-3.509.76-4.885 2.189-1.234 1.286-1.871 3.011-1.745 4.734.091 1.256.593 2.323 1.376 2.931 2.27 1.759 5.368 1.395 7.712-.908 1.282-1.259 2.001-2.907 1.974-4.521-.024-1.326-.536-2.516-1.445-3.35-.792-.725-1.852-1.075-2.987-1.075m-2.055 11.523c-1.253 0-2.477-.405-3.541-1.229-.907-.704-1.487-1.918-1.59-3.33-.137-1.881.556-3.762 1.9-5.16 2.513-2.614 6.473-3.134 8.649-1.139 1.023.938 1.6 2.27 1.625 3.75.031 1.767-.75 3.563-2.14 4.929-1.466 1.44-3.21 2.178-4.903 2.179" fill="#231f20" transform="matrix(4.16667 0 0 4.16667 448.47396151 106.14554204)"/><path d="m0 7.697c-2.288.097-2.96-1.783-3.018-2.581-.091-1.259.398-2.576 1.31-3.524 1.017-1.058 2.412-1.689 3.733-1.689.794 0 1.481.229 1.934.644.586.537.917 1.323.933 2.213.02 1.182-.528 2.411-1.502 3.368-1.044 1.026-2.217 1.569-3.39 1.569" fill="#00a750" transform="matrix(4.16667 0 0 4.16667 439.46562097 69.83301299)"/><path d="m0 7.185c-2.136.091-2.763-1.664-2.816-2.409-.086-1.175.371-2.405 1.222-3.29.948-.988 2.252-1.577 3.486-1.577.741 0 1.381.214 1.804.601.548.502.857 1.236.871 2.067.019 1.103-.492 2.25-1.402 3.144-.975.958-2.069 1.464-3.165 1.464" fill="#77c043" transform="matrix(4.16667 0 0 4.16667 440.88228877 72.83718206)"/><path d="m0-7.24c-1.247 0-2.567.6-3.533 1.603-.858.892-1.319 2.13-1.233 3.311.05.677.628 2.411 2.729 2.322h.012c1.098 0 2.203-.514 3.194-1.488.921-.904 1.437-2.058 1.419-3.165-.014-.812-.314-1.527-.843-2.013-.401-.368-1.021-.57-1.745-.57m-2.197 7.797c-2.387 0-3.066-2.036-3.124-2.842-.097-1.336.421-2.733 1.386-3.738 1.069-1.111 2.539-1.774 3.935-1.774.863 0 1.617.254 2.121.717.644.59 1.007 1.446 1.024 2.413.021 1.259-.556 2.562-1.585 3.573-1.096 1.076-2.333 1.646-3.58 1.648-.06.002-.12.003-.177.003" fill="#231f20" transform="matrix(4.16667 0 0 4.16667 447.90312772 100.75803773)"/><path d="m0 12.649c-1.27 0-2.51-.409-3.586-1.244-.463-.36-1.594-1.322-2.098-2.51-.06-.142.006-.306.148-.365.141-.061.306.006.365.147.466 1.097 1.592 2.028 1.926 2.287 2.302 1.785 5.444 1.415 7.82-.919 2.121-2.084 2.825-5.931.49-8.335-.4-.413-.513-.503-1.393-1.214l-.082-.066c-.12-.096-.139-.272-.042-.391.097-.12.271-.139.391-.042l.082.065c.884.713 1.02.823 1.445 1.26 1.076 1.108 1.664 2.704 1.613 4.379-.053 1.77-.804 3.454-2.113 4.741-1.486 1.459-3.252 2.207-4.966 2.207" fill="#231f20" transform="matrix(4.16667 0 0 4.16667 445.32395899 65.44134281)"/><path d="m0-12.759c.959.773 1.076.865 1.501 1.303 2.073 2.135 2.186 6.093-.496 8.727-2.609 2.564-5.88 2.729-8.186.941-.617-.479-1.578-1.377-2.011-2.399z" fill="#00a750" transform="matrix(4.16667 0 0 4.16667 525.9198568 119.49138605)"/><path d="m-4.338-10.881c-2.892-.027-5.428 2.697-5.269 6.403.155 3.607 2.401 5.93 5.269 6.193 2.453.226 5.317-2.523 5.265-6.133-.051-3.61-2.604-6.437-5.265-6.463" fill="#77c043" transform="matrix(-3.04432743546 -2.84485644255 -2.84485644255 3.04432743546 482.44898869 87.70386062)"/><path d="m0-10.283c-1.673 0-3.509.76-4.884 2.189-1.235 1.286-1.871 3.011-1.745 4.734.091 1.256.593 2.323 1.375 2.931 2.27 1.759 5.369 1.395 7.712-.908 1.282-1.259 2.002-2.907 1.975-4.521-.024-1.326-.537-2.516-1.446-3.35-.791-.725-1.851-1.075-2.987-1.075m-2.054 11.523c-1.253 0-2.478-.405-3.541-1.229-.907-.704-1.487-1.918-1.59-3.33-.137-1.881.555-3.762 1.9-5.16 2.512-2.614 6.472-3.134 8.649-1.139 1.023.938 1.6 2.27 1.625 3.75.031 1.767-.75 3.563-2.14 4.929-1.466 1.44-3.21 2.178-4.903 2.179" fill="#231f20" transform="matrix(4.16667 0 0 4.16667 513.3781801 106.14554204)"/><path d="m0 7.697c-2.287.097-2.959-1.783-3.017-2.581-.091-1.259.398-2.576 1.31-3.524 1.016-1.058 2.412-1.689 3.733-1.689.794 0 1.481.229 1.933.644.587.537.918 1.323.934 2.213.02 1.182-.528 2.411-1.502 3.368-1.045 1.026-2.217 1.569-3.391 1.569" fill="#00a750" transform="matrix(4.16667 0 0 4.16667 504.36983956 69.83301299)"/><path d="m0 7.185c-2.136.091-2.763-1.664-2.816-2.409-.086-1.175.371-2.405 1.221-3.29.949-.988 2.252-1.577 3.486-1.577.741 0 1.382.214 1.805.601.547.502.857 1.236.871 2.067.019 1.103-.492 2.25-1.402 3.144-.976.958-2.069 1.464-3.165 1.464" fill="#77c043" transform="matrix(4.16667 0 0 4.16667 505.79067403 72.83718206)"/><path d="m0-7.24c-1.247 0-2.568.6-3.533 1.603-.858.892-1.319 2.13-1.233 3.311.05.677.628 2.411 2.728 2.322h.012c1.099 0 2.204-.514 3.195-1.488.921-.904 1.437-2.058 1.418-3.165-.014-.812-.313-1.527-.842-2.013-.401-.368-1.021-.57-1.745-.57m-2.198 7.797c-2.386 0-3.065-2.036-3.123-2.842-.097-1.336.421-2.733 1.386-3.738 1.069-1.111 2.539-1.774 3.935-1.774.863 0 1.617.254 2.121.717.644.59 1.007 1.446 1.024 2.413.021 1.259-.556 2.562-1.585 3.573-1.096 1.076-2.334 1.646-3.58 1.648-.06.002-.12.003-.178.003" fill="#231f20" transform="matrix(4.16667 0 0 4.16667 512.81151298 100.75803773)"/><path d="m0 12.649c-1.269 0-2.509-.409-3.586-1.244-.462-.36-1.593-1.322-2.097-2.51-.06-.142.006-.306.148-.365.141-.061.305.006.365.147.466 1.097 1.592 2.028 1.926 2.287 2.301 1.785 5.444 1.415 7.82-.919 2.121-2.084 2.825-5.931.49-8.335-.4-.413-.513-.503-1.394-1.214l-.081-.066c-.12-.096-.139-.272-.042-.391.097-.12.271-.139.391-.042l.082.065c.884.713 1.02.823 1.444 1.26 1.076 1.108 1.665 2.704 1.614 4.379-.054 1.77-.804 3.454-2.114 4.741-1.485 1.459-3.251 2.207-4.966 2.207" fill="#231f20" transform="matrix(4.16667 0 0 4.16667 510.22817758 65.44134281)"/><path d="m0-12.759c.96.773 1.077.865 1.502 1.303 2.073 2.135 2.186 6.093-.496 8.727-2.61 2.564-5.881 2.729-8.186.941-.617-.479-1.578-1.377-2.011-2.399z" fill="#00a750" transform="matrix(4.16667 0 0 4.16667 590.82407539 119.49138605)"/><path d="m-4.338-10.881c-2.891-.027-5.427 2.698-5.269 6.403.155 3.607 2.401 5.929 5.269 6.194 2.453.225 5.316-2.524 5.266-6.133-.051-3.61-2.604-6.438-5.266-6.464" fill="#77c043" transform="matrix(-3.04416076866 -2.84503144269 -2.84503144269 3.04416076866 547.35737395 87.70386062)"/><path d="m0-10.283c-1.674 0-3.509.76-4.884 2.189-1.235 1.286-1.871 3.011-1.746 4.734.092 1.256.594 2.323 1.376 2.931 2.27 1.759 5.368 1.395 7.712-.908 1.282-1.259 2.002-2.907 1.974-4.521-.023-1.326-.536-2.516-1.445-3.35-.791-.725-1.852-1.075-2.987-1.075m-2.055 11.523c-1.253 0-2.477-.405-3.54-1.229-.908-.704-1.487-1.918-1.591-3.33-.136-1.881.556-3.762 1.901-5.16 2.512-2.614 6.472-3.134 8.649-1.139 1.023.938 1.6 2.27 1.625 3.75.031 1.767-.75 3.563-2.14 4.929-1.466 1.44-3.21 2.178-4.904 2.179" fill="#231f20" transform="matrix(4.16667 0 0 4.16667 578.28656536 106.14554204)"/><path d="m0 7.697c-2.287.097-2.959-1.783-3.017-2.581-.091-1.259.398-2.576 1.309-3.524 1.017-1.058 2.412-1.689 3.733-1.689.794 0 1.481.229 1.934.644.587.537.918 1.323.933 2.213.02 1.182-.527 2.411-1.501 3.368-1.045 1.026-2.217 1.569-3.391 1.569" fill="#00a750" transform="matrix(4.16667 0 0 4.16667 569.27822482 69.83301299)"/><path d="m0 7.185c-2.136.091-2.763-1.664-2.817-2.409-.085-1.175.372-2.405 1.222-3.29.949-.988 2.252-1.577 3.486-1.577.741 0 1.382.214 1.804.601.548.502.858 1.236.871 2.067.02 1.103-.491 2.25-1.401 3.144-.976.958-2.07 1.464-3.165 1.464" fill="#77c043" transform="matrix(4.16667 0 0 4.16667 570.69905929 72.83718206)"/><path d="m0-7.24c-1.247 0-2.567.6-3.532 1.603-.858.892-1.319 2.13-1.233 3.311.049.677.628 2.411 2.728 2.322h.012c1.098 0 2.204-.514 3.195-1.488.92-.904 1.437-2.058 1.418-3.165-.014-.812-.314-1.527-.843-2.013-.401-.368-1.02-.57-1.745-.57m-2.197 7.797c-2.387 0-3.065-2.036-3.123-2.842-.098-1.336.421-2.733 1.386-3.738 1.068-1.111 2.538-1.774 3.934-1.774.864 0 1.617.254 2.122.717.644.59 1.007 1.446 1.024 2.413.021 1.259-.557 2.562-1.586 3.573-1.096 1.076-2.333 1.646-3.58 1.648-.059.002-.119.003-.177.003" fill="#231f20" transform="matrix(4.16667 0 0 4.16667 577.71573157 100.75803773)"/><path d="m0 12.649c-1.269 0-2.509-.409-3.586-1.244-.463-.36-1.594-1.322-2.098-2.51-.059-.142.007-.306.149-.365.141-.061.305.006.365.147.465 1.097 1.592 2.028 1.926 2.287 2.301 1.785 5.443 1.415 7.819-.919 2.122-2.084 2.825-5.931.491-8.335-.401-.413-.513-.503-1.394-1.214l-.082-.066c-.119-.096-.139-.272-.042-.391.097-.12.272-.139.391-.042l.082.065c.885.713 1.021.823 1.445 1.26 1.076 1.108 1.665 2.704 1.614 4.379-.054 1.77-.805 3.454-2.114 4.741-1.485 1.459-3.251 2.207-4.966 2.207" fill="#231f20" transform="matrix(4.16667 0 0 4.16667 575.13656284 65.44134281)"/><path d="m0-12.759c.959.773 1.076.865 1.501 1.303 2.074 2.135 2.187 6.093-.495 8.727-2.61 2.564-5.881 2.729-8.186.941-.618-.479-1.579-1.377-2.011-2.399z" fill="#00a750" transform="matrix(4.16667 0 0 4.16667 655.73246065 119.49138605)"/><path d="m-4.34-10.881c-2.89-.027-5.426 2.697-5.269 6.402.155 3.607 2.402 5.93 5.269 6.194 2.454.226 5.317-2.523 5.266-6.132-.05-3.61-2.604-6.439-5.266-6.464" fill="#77c043" transform="matrix(-3.04416076866 -2.84503144269 -2.84503144269 3.04416076866 612.26159254 87.69969395)"/><path d="m0-10.283c-1.674 0-3.509.76-4.884 2.189-1.235 1.286-1.872 3.011-1.746 4.734.092 1.256.593 2.323 1.376 2.931 2.27 1.759 5.368 1.395 7.712-.908 1.282-1.259 2.001-2.907 1.974-4.521-.023-1.326-.536-2.516-1.445-3.35-.792-.725-1.852-1.075-2.987-1.075m-2.055 11.523c-1.253 0-2.477-.405-3.541-1.229-.907-.704-1.486-1.918-1.59-3.33-.136-1.881.556-3.762 1.901-5.16 2.512-2.614 6.472-3.134 8.648-1.139 1.023.938 1.6 2.27 1.625 3.75.031 1.767-.749 3.563-2.14 4.929-1.466 1.44-3.21 2.178-4.903 2.179" fill="#231f20" transform="matrix(4.16667 0 0 4.16667 643.19495062 106.14554204)"/><path d="m0 7.697c-2.288.097-2.959-1.783-3.018-2.581-.091-1.259.399-2.576 1.31-3.524 1.017-1.058 2.412-1.689 3.733-1.689.794 0 1.481.229 1.934.644.586.537.918 1.323.933 2.213.02 1.182-.527 2.411-1.502 3.368-1.044 1.026-2.217 1.569-3.39 1.569" fill="#00a750" transform="matrix(4.16667 0 0 4.16667 634.18661008 69.83301299)"/><path d="m0 7.185c-2.136.091-2.763-1.664-2.817-2.409-.086-1.175.371-2.405 1.222-3.29.949-.988 2.252-1.577 3.486-1.577.741 0 1.381.214 1.804.601.548.502.858 1.236.871 2.067.02 1.103-.492 2.25-1.402 3.144-.975.958-2.069 1.464-3.164 1.464" fill="#77c043" transform="matrix(4.16667 0 0 4.16667 635.60744455 72.83718206)"/><path d="m0-7.24c-1.247 0-2.567.6-3.532 1.603-.859.892-1.32 2.13-1.233 3.311.049.677.628 2.411 2.728 2.322h.012c1.098 0 2.203-.514 3.194-1.488.921-.904 1.438-2.058 1.419-3.165-.014-.812-.314-1.527-.843-2.013-.401-.368-1.02-.57-1.745-.57m-2.197 7.797c-2.387 0-3.065-2.036-3.123-2.842-.098-1.336.421-2.733 1.386-3.738 1.068-1.111 2.538-1.774 3.934-1.774.864 0 1.617.254 2.121.717.644.59 1.007 1.446 1.024 2.413.022 1.259-.556 2.562-1.585 3.573-1.096 1.076-2.333 1.646-3.58 1.648-.06.002-.12.003-.177.003" fill="#231f20" transform="matrix(4.16667 0 0 4.16667 642.6282835 100.75803773)"/><path d="m0 12.649c-1.27 0-2.51-.409-3.586-1.244-.463-.36-1.594-1.322-2.098-2.51-.059-.142.006-.306.148-.365.142-.061.306.006.365.147.466 1.097 1.592 2.028 1.926 2.287 2.302 1.785 5.444 1.415 7.82-.919 2.122-2.084 2.825-5.931.491-8.335-.401-.413-.513-.503-1.394-1.214l-.082-.066c-.12-.096-.139-.272-.042-.391.097-.12.272-.139.391-.042l.082.065c.884.713 1.02.823 1.445 1.26 1.076 1.108 1.665 2.704 1.614 4.379-.054 1.77-.805 3.454-2.114 4.741-1.486 1.459-3.252 2.207-4.966 2.207" fill="#231f20" transform="matrix(4.16667 0 0 4.16667 640.0449481 65.44134281)"/><path d="m0-12.759c.959.773 1.076.865 1.501 1.303 2.073 2.135 2.187 6.093-.495 8.727-2.61 2.564-5.881 2.729-8.186.941-.618-.479-1.579-1.377-2.011-2.399z" fill="#9755a2" transform="matrix(4.16667 0 0 4.16667 42.54863677 58.5538373)"/><path d="m-4.34-10.881c-2.891-.027-5.427 2.697-5.268 6.403.154 3.608 2.401 5.93 5.268 6.194 2.454.225 5.318-2.524 5.266-6.133-.051-3.611-2.604-6.439-5.266-6.464" fill="#c58abd" transform="matrix(-3.04431493545 -2.84486894256 -2.84486894256 3.04431493545 -.92223134 26.76631187)"/><path d="m0-10.281c-1.674 0-3.509.759-4.884 2.188-1.235 1.286-1.872 3.011-1.746 4.734.092 1.256.593 2.323 1.376 2.931 2.27 1.759 5.368 1.395 7.712-.908 1.282-1.259 2.001-2.907 1.974-4.521-.023-1.326-.536-2.516-1.445-3.349-.792-.726-1.852-1.075-2.987-1.075m-2.055 11.522c-1.253 0-2.477-.405-3.541-1.229-.907-.704-1.487-1.918-1.59-3.33-.136-1.881.556-3.762 1.9-5.16 2.513-2.614 6.473-3.134 8.649-1.139 1.023.938 1.6 2.27 1.625 3.75.031 1.767-.749 3.563-2.14 4.929-1.466 1.44-3.21 2.178-4.903 2.179" fill="#231f20" transform="matrix(4.16667 0 0 4.16667 30.01112674 45.20382662)"/><path d="m0 7.697c-2.288.097-2.959-1.783-3.018-2.581-.091-1.259.399-2.576 1.31-3.524 1.017-1.058 2.412-1.689 3.733-1.689.794 0 1.481.229 1.934.644.586.538.917 1.323.933 2.213.02 1.183-.528 2.411-1.502 3.369-1.044 1.025-2.217 1.568-3.39 1.568" fill="#9755a2" transform="matrix(4.16667 0 0 4.16667 21.0027862 8.89546424)"/><path d="m0 7.184c-2.136.091-2.764-1.664-2.817-2.409-.086-1.175.371-2.405 1.222-3.29.949-.988 2.252-1.576 3.486-1.576.741 0 1.381.213 1.804.6.548.502.857 1.236.871 2.067.02 1.103-.492 2.25-1.402 3.144-.975.958-2.069 1.464-3.164 1.464" fill="#c58abd" transform="matrix(4.16667 0 0 4.16667 22.42362067 11.90379998)"/><path d="m0-7.24c-1.247 0-2.567.6-3.532 1.604-.859.891-1.32 2.129-1.233 3.31.049.677.628 2.411 2.728 2.323.004-.001.008-.001.012-.001 1.098 0 2.203-.514 3.194-1.488.921-.904 1.437-2.058 1.419-3.165-.014-.812-.314-1.527-.843-2.013-.401-.367-1.021-.57-1.745-.57m-2.197 7.797c-2.387 0-3.065-2.036-3.123-2.842-.098-1.336.421-2.733 1.385-3.738 1.069-1.111 2.539-1.774 3.935-1.774.863 0 1.617.254 2.121.717.644.59 1.007 1.446 1.024 2.413.022 1.26-.556 2.562-1.585 3.573-1.096 1.076-2.333 1.646-3.58 1.648-.06.002-.12.003-.177.003" fill="#231f20" transform="matrix(4.16667 0 0 4.16667 29.44445962 39.82048898)"/><path d="m0 12.649c-1.27 0-2.51-.409-3.586-1.244-.463-.36-1.594-1.322-2.098-2.51-.059-.142.006-.306.148-.365.141-.061.306.006.365.147.466 1.097 1.592 2.029 1.926 2.287 2.302 1.785 5.444 1.415 7.82-.919 2.121-2.084 2.825-5.931.491-8.335-.401-.413-.514-.503-1.394-1.214l-.082-.066c-.12-.096-.139-.272-.042-.391.097-.12.271-.139.391-.042l.082.065c.884.713 1.02.823 1.445 1.26 1.076 1.108 1.664 2.704 1.614 4.379-.054 1.77-.805 3.454-2.114 4.741-1.486 1.459-3.252 2.207-4.966 2.207" fill="#231f20" transform="matrix(4.16667 0 0 4.16667 26.86112422 4.50379406)"/><path d="m0-12.759c.96.773 1.076.865 1.501 1.303 2.074 2.135 2.187 6.093-.495 8.727-2.61 2.564-5.881 2.729-8.186.941-.618-.479-1.579-1.377-2.011-2.399z" fill="#9755a2" transform="matrix(4.16667 0 0 4.16667 64.6694878 119.49138605)"/><path d="m-4.339-10.881c-2.891-.027-5.427 2.697-5.269 6.402.155 3.608 2.401 5.93 5.269 6.195 2.454.226 5.317-2.523 5.266-6.133s-2.604-6.439-5.266-6.464" fill="#c58abd" transform="matrix(-3.04416076866 -2.84503144269 -2.84503144269 3.04416076866 21.19861969 87.70386062)"/><path d="m0-10.283c-1.674 0-3.509.76-4.884 2.189-1.235 1.286-1.872 3.011-1.746 4.734.092 1.256.593 2.323 1.376 2.931 2.27 1.759 5.368 1.395 7.712-.908 1.282-1.259 2.001-2.907 1.974-4.521-.023-1.326-.536-2.516-1.445-3.35-.792-.725-1.852-1.075-2.987-1.075m-2.055 11.523c-1.253 0-2.477-.405-3.541-1.229-.907-.704-1.486-1.918-1.59-3.33-.136-1.881.556-3.762 1.901-5.16 2.512-2.614 6.472-3.134 8.649-1.139 1.022.938 1.599 2.27 1.625 3.75.031 1.767-.75 3.563-2.141 4.929-1.466 1.44-3.21 2.178-4.903 2.179" fill="#231f20" transform="matrix(4.16667 0 0 4.16667 52.13197777 106.14554204)"/><path d="m0 7.697c-2.288.097-2.959-1.783-3.018-2.581-.091-1.259.399-2.576 1.31-3.524 1.017-1.058 2.412-1.689 3.733-1.689.794 0 1.481.229 1.934.644.586.537.918 1.323.933 2.213.02 1.182-.527 2.411-1.502 3.368-1.044 1.026-2.217 1.569-3.39 1.569" fill="#9755a2" transform="matrix(4.16667 0 0 4.16667 43.12363723 69.83301299)"/><path d="m0 7.185c-2.136.091-2.763-1.664-2.817-2.409-.086-1.175.372-2.405 1.222-3.29.949-.988 2.252-1.577 3.486-1.577.741 0 1.381.214 1.804.601.548.502.858 1.236.871 2.067.02 1.103-.492 2.25-1.402 3.144-.975.958-2.069 1.464-3.164 1.464" fill="#c58abd" transform="matrix(4.16667 0 0 4.16667 44.5444717 72.83718206)"/><path d="m0-7.24c-1.247 0-2.567.6-3.532 1.603-.859.892-1.319 2.13-1.233 3.311.049.677.628 2.411 2.728 2.322h.012c1.098 0 2.203-.514 3.194-1.488.921-.904 1.438-2.058 1.419-3.165-.014-.812-.314-1.527-.843-2.013-.401-.368-1.02-.57-1.745-.57m-2.197 7.797c-2.387 0-3.065-2.036-3.123-2.842-.098-1.336.421-2.733 1.386-3.738 1.068-1.111 2.538-1.774 3.934-1.774.864 0 1.617.254 2.122.717.643.59 1.006 1.446 1.023 2.413.022 1.259-.556 2.562-1.585 3.573-1.096 1.076-2.333 1.646-3.58 1.648-.06.002-.119.003-.177.003" fill="#231f20" transform="matrix(4.16667 0 0 4.16667 51.56114398 100.75803773)"/><path d="m0 12.649c-1.27 0-2.51-.409-3.586-1.244-.463-.36-1.594-1.322-2.098-2.51-.059-.142.006-.306.148-.365.142-.061.306.006.365.147.466 1.097 1.592 2.028 1.926 2.287 2.302 1.785 5.444 1.415 7.82-.919 2.122-2.084 2.825-5.931.491-8.335-.401-.413-.513-.503-1.394-1.214l-.082-.066c-.12-.096-.139-.272-.042-.391.097-.12.272-.139.391-.042l.082.065c.884.713 1.02.823 1.445 1.26 1.076 1.108 1.665 2.704 1.614 4.379-.054 1.77-.805 3.454-2.114 4.741-1.485 1.459-3.252 2.207-4.966 2.207" fill="#231f20" transform="matrix(4.16667 0 0 4.16667 48.98197525 65.44134281)"/><path d="m0-12.759c.96.773 1.077.865 1.502 1.303 2.073 2.135 2.186 6.093-.496 8.727-2.61 2.564-5.88 2.729-8.186.941-.617-.479-1.578-1.377-2.011-2.399z" fill="#9755a2" transform="matrix(4.16667 0 0 4.16667 107.06118838 58.5538373)"/><path d="m-4.338-10.881c-2.892-.027-5.428 2.697-5.269 6.403.154 3.608 2.401 5.93 5.269 6.195 2.453.224 5.317-2.525 5.265-6.134-.051-3.611-2.604-6.438-5.265-6.464" fill="#c58abd" transform="matrix(-3.04431493545 -2.84486894256 -2.84486894256 3.04431493545 63.59865361 26.76631187)"/><path d="m0-10.281c-1.673 0-3.509.759-4.884 2.188-1.235 1.286-1.871 3.011-1.746 4.734.092 1.256.594 2.323 1.376 2.931 2.27 1.759 5.368 1.395 7.712-.908 1.282-1.259 2.002-2.907 1.974-4.521-.023-1.326-.536-2.516-1.445-3.349-.791-.726-1.851-1.075-2.987-1.075m-2.055 11.522c-1.253 0-2.477-.405-3.54-1.229-.908-.704-1.487-1.918-1.591-3.33-.136-1.881.556-3.762 1.901-5.16 2.512-2.614 6.472-3.134 8.649-1.139 1.023.938 1.6 2.27 1.625 3.75.031 1.767-.75 3.563-2.14 4.929-1.466 1.44-3.21 2.178-4.904 2.179" fill="#231f20" transform="matrix(4.16667 0 0 4.16667 94.52784502 45.20382662)"/><path d="m0 7.697c-2.287.097-2.959-1.783-3.017-2.581-.091-1.259.398-2.576 1.309-3.524 1.017-1.058 2.413-1.689 3.733-1.689.794 0 1.481.229 1.934.644.587.538.918 1.323.934 2.213.02 1.183-.528 2.411-1.502 3.369-1.045 1.025-2.217 1.568-3.391 1.568" fill="#9755a2" transform="matrix(4.16667 0 0 4.16667 85.51950448 8.89546424)"/><path d="m0 7.184c-2.136.091-2.763-1.664-2.817-2.409-.085-1.175.372-2.405 1.222-3.29.949-.988 2.252-1.576 3.486-1.576.741 0 1.382.213 1.804.6.548.502.858 1.236.871 2.067.02 1.103-.491 2.25-1.401 3.144-.976.958-2.069 1.464-3.165 1.464" fill="#c58abd" transform="matrix(4.16667 0 0 4.16667 86.93617228 11.90379998)"/><path d="m0-7.24c-1.247 0-2.567.6-3.532 1.604-.858.891-1.319 2.129-1.233 3.31.05.677.628 2.411 2.728 2.323.004-.001.008-.001.012-.001 1.098 0 2.204-.514 3.195-1.488.921-.904 1.437-2.058 1.418-3.165-.014-.812-.313-1.527-.843-2.013-.401-.367-1.02-.57-1.745-.57m-2.197 7.797c-2.387 0-3.065-2.036-3.123-2.842-.098-1.336.421-2.733 1.386-3.738 1.068-1.111 2.538-1.774 3.934-1.774.864 0 1.617.254 2.122.717.644.59 1.007 1.446 1.024 2.413.021 1.26-.557 2.562-1.586 3.573-1.096 1.076-2.333 1.646-3.58 1.648-.059.002-.119.003-.177.003" fill="#231f20" transform="matrix(4.16667 0 0 4.16667 93.95701123 39.82048898)"/><path d="m0 12.649c-1.269 0-2.509-.409-3.586-1.244-.463-.36-1.593-1.322-2.097-2.51-.06-.142.006-.306.148-.365.141-.061.305.006.365.147.465 1.097 1.592 2.029 1.926 2.287 2.301 1.785 5.443 1.415 7.819-.919 2.122-2.084 2.825-5.931.491-8.335-.4-.413-.513-.503-1.394-1.214l-.082-.066c-.119-.096-.138-.272-.042-.391.098-.12.272-.139.391-.042l.082.065c.885.713 1.021.823 1.445 1.26 1.076 1.108 1.665 2.704 1.614 4.379-.054 1.77-.804 3.454-2.114 4.741-1.485 1.459-3.251 2.207-4.966 2.207" fill="#231f20" transform="matrix(4.16667 0 0 4.16667 91.3778425 4.50379406)"/><path d="m0-12.759c.959.773 1.076.865 1.501 1.303 2.073 2.135 2.186 6.093-.496 8.727-2.609 2.564-5.88 2.729-8.186.941-.617-.479-1.578-1.377-2.011-2.399z" fill="#9755a2" transform="matrix(4.16667 0 0 4.16667 129.18620608 119.49138605)"/><path d="m-4.338-10.881c-2.892-.027-5.428 2.697-5.269 6.403.155 3.607 2.401 5.93 5.269 6.193 2.453.226 5.317-2.523 5.265-6.133-.051-3.61-2.604-6.437-5.265-6.463" fill="#c58abd" transform="matrix(-3.04432743546 -2.84485644255 -2.84485644255 3.04432743546 85.71533797 87.70386062)"/><path d="m0-10.283c-1.673 0-3.509.76-4.884 2.189-1.235 1.286-1.871 3.011-1.745 4.734.091 1.256.593 2.323 1.375 2.931 2.27 1.759 5.369 1.395 7.712-.908 1.282-1.259 2.002-2.907 1.975-4.521-.024-1.326-.537-2.516-1.445-3.35-.792-.725-1.852-1.075-2.988-1.075m-2.054 11.523c-1.253 0-2.478-.405-3.541-1.229-.907-.704-1.487-1.918-1.59-3.33-.137-1.881.555-3.762 1.9-5.16 2.512-2.614 6.472-3.134 8.649-1.139 1.023.938 1.6 2.27 1.625 3.75.031 1.767-.75 3.563-2.14 4.929-1.466 1.44-3.21 2.178-4.903 2.179" fill="#231f20" transform="matrix(4.16667 0 0 4.16667 116.64452938 106.14554204)"/><path d="m0 7.697c-2.287.097-2.959-1.783-3.017-2.581-.091-1.259.398-2.576 1.31-3.524 1.016-1.058 2.412-1.689 3.733-1.689.794 0 1.481.229 1.933.644.587.537.918 1.323.934 2.213.02 1.182-.528 2.411-1.502 3.368-1.045 1.026-2.217 1.569-3.391 1.569" fill="#9755a2" transform="matrix(4.16667 0 0 4.16667 107.63618884 69.83301299)"/><path d="m0 7.185c-2.136.091-2.763-1.664-2.816-2.409-.086-1.175.371-2.405 1.221-3.29.949-.988 2.252-1.577 3.486-1.577.741 0 1.382.214 1.805.601.547.502.857 1.236.871 2.067.019 1.103-.492 2.25-1.402 3.144-.976.958-2.069 1.464-3.165 1.464" fill="#c58abd" transform="matrix(4.16667 0 0 4.16667 109.05702331 72.83718206)"/><path d="m0-7.24c-1.247 0-2.568.6-3.533 1.603-.858.892-1.319 2.13-1.233 3.311.05.677.628 2.411 2.728 2.322h.012c1.099 0 2.204-.514 3.195-1.488.921-.904 1.437-2.058 1.418-3.165-.014-.812-.313-1.527-.842-2.013-.401-.368-1.021-.57-1.745-.57m-2.198 7.797c-2.386 0-3.065-2.036-3.123-2.842-.097-1.336.421-2.733 1.386-3.738 1.069-1.111 2.539-1.774 3.935-1.774.863 0 1.617.254 2.121.717.644.59 1.007 1.446 1.024 2.413.021 1.259-.556 2.562-1.585 3.573-1.096 1.076-2.334 1.646-3.58 1.648-.06.002-.12.003-.178.003" fill="#231f20" transform="matrix(4.16667 0 0 4.16667 116.07786226 100.75803773)"/><path d="m0 12.649c-1.269 0-2.509-.409-3.586-1.244-.462-.36-1.593-1.322-2.097-2.51-.06-.142.006-.306.148-.365.141-.061.305.006.365.147.466 1.097 1.592 2.028 1.926 2.287 2.301 1.785 5.444 1.415 7.82-.919 2.121-2.084 2.825-5.931.49-8.335-.4-.413-.513-.503-1.394-1.214l-.081-.066c-.12-.096-.139-.272-.042-.391.097-.12.271-.139.391-.042l.082.065c.884.713 1.02.823 1.444 1.26 1.076 1.108 1.665 2.704 1.614 4.379-.054 1.77-.804 3.454-2.114 4.741-1.485 1.459-3.251 2.207-4.966 2.207" fill="#231f20" transform="matrix(4.16667 0 0 4.16667 113.49452686 65.44134281)"/><path d="m0-12.759c.96.773 1.076.865 1.502 1.303 2.073 2.135 2.186 6.093-.496 8.727-2.61 2.564-5.881 2.729-8.186.941-.617-.479-1.578-1.377-2.011-2.399z" fill="#9755a2" transform="matrix(4.16667 0 0 4.16667 168.9612379 58.5538373)"/><path d="m-4.338-10.881c-2.892-.027-5.427 2.698-5.269 6.403.154 3.608 2.401 5.93 5.269 6.195 2.453.224 5.317-2.525 5.266-6.134-.051-3.61-2.605-6.438-5.266-6.464" fill="#c58abd" transform="matrix(-3.04431493545 -2.84486894256 -2.84486894256 3.04431493545 125.49453646 26.76631187)"/><path d="m0-10.281c-1.674 0-3.509.759-4.884 2.188-1.235 1.286-1.871 3.011-1.746 4.734.092 1.256.593 2.323 1.376 2.931 2.27 1.759 5.368 1.395 7.712-.908 1.282-1.259 2.002-2.907 1.974-4.521-.023-1.326-.536-2.516-1.445-3.349-.791-.726-1.852-1.075-2.987-1.075m-2.055 11.522c-1.253 0-2.477-.405-3.54-1.229-.908-.704-1.487-1.918-1.591-3.33-.136-1.881.556-3.762 1.901-5.16 2.512-2.614 6.472-3.134 8.649-1.139 1.023.938 1.6 2.27 1.625 3.75.031 1.767-.75 3.563-2.14 4.929-1.467 1.44-3.21 2.178-4.904 2.179" fill="#231f20" transform="matrix(4.16667 0 0 4.16667 156.42372787 45.20382662)"/><path d="m0 7.697c-2.287.097-2.959-1.783-3.017-2.581-.091-1.259.398-2.576 1.309-3.524 1.017-1.058 2.412-1.689 3.733-1.689.794 0 1.481.229 1.934.644.587.538.918 1.323.933 2.213.02 1.183-.527 2.411-1.501 3.369-1.045 1.025-2.217 1.568-3.391 1.568" fill="#9755a2" transform="matrix(4.16667 0 0 4.16667 147.41538733 8.89546424)"/><path d="m0 7.184c-2.136.091-2.763-1.664-2.817-2.409-.085-1.175.372-2.405 1.222-3.29.949-.988 2.252-1.576 3.486-1.576.741 0 1.382.213 1.804.6.548.502.858 1.236.871 2.067.02 1.103-.491 2.25-1.401 3.144-.976.958-2.07 1.464-3.165 1.464" fill="#c58abd" transform="matrix(4.16667 0 0 4.16667 148.8362218 11.90379998)"/><path d="m0-7.24c-1.247 0-2.567.6-3.532 1.604-.858.891-1.319 2.129-1.233 3.31.049.677.628 2.411 2.728 2.323.004-.001.008-.001.012-.001 1.098 0 2.204-.514 3.195-1.488.92-.904 1.437-2.058 1.418-3.165-.014-.812-.314-1.527-.843-2.013-.401-.367-1.02-.57-1.745-.57m-2.197 7.797c-2.387 0-3.065-2.036-3.123-2.842-.098-1.336.421-2.733 1.386-3.738 1.068-1.111 2.538-1.774 3.934-1.774.864 0 1.617.254 2.122.717.644.59 1.007 1.446 1.024 2.413.021 1.26-.557 2.562-1.586 3.573-1.096 1.076-2.333 1.646-3.58 1.648-.059.002-.119.003-.177.003" fill="#231f20" transform="matrix(4.16667 0 0 4.16667 155.85289408 39.82048898)"/><path d="m0 12.649c-1.269 0-2.509-.409-3.586-1.244-.463-.36-1.594-1.322-2.098-2.51-.059-.142.007-.306.149-.365.141-.061.305.006.365.147.465 1.097 1.592 2.029 1.926 2.287 2.301 1.785 5.443 1.415 7.819-.919 2.122-2.084 2.825-5.931.491-8.335-.401-.413-.513-.503-1.394-1.214l-.082-.066c-.119-.096-.139-.272-.042-.391.097-.12.272-.139.391-.042l.082.065c.885.713 1.021.823 1.445 1.26 1.076 1.108 1.665 2.704 1.614 4.379-.054 1.77-.805 3.454-2.114 4.741-1.485 1.459-3.251 2.207-4.966 2.207" fill="#231f20" transform="matrix(4.16667 0 0 4.16667 153.27372535 4.50379406)"/><path d="m0-12.759c.96.773 1.077.865 1.502 1.303 2.073 2.135 2.186 6.093-.496 8.727-2.61 2.564-5.88 2.729-8.186.941-.617-.479-1.578-1.377-2.011-2.399z" fill="#9755a2" transform="matrix(4.16667 0 0 4.16667 191.07792226 119.49138605)"/><path d="m-4.338-10.881c-2.892-.027-5.428 2.697-5.269 6.403.155 3.607 2.401 5.93 5.269 6.193 2.453.226 5.317-2.523 5.265-6.133-.051-3.61-2.604-6.437-5.265-6.463" fill="#c58abd" transform="matrix(-3.04432743546 -2.84485644255 -2.84485644255 3.04432743546 147.61538749 87.70386062)"/><path d="m0-10.283c-1.673 0-3.509.76-4.884 2.189-1.235 1.286-1.871 3.011-1.746 4.734.092 1.256.594 2.323 1.376 2.931 2.27 1.759 5.368 1.395 7.712-.908 1.282-1.259 2.002-2.907 1.974-4.521-.023-1.326-.536-2.516-1.445-3.35-.791-.725-1.851-1.075-2.987-1.075m-2.055 11.523c-1.253 0-2.477-.405-3.54-1.229-.908-.704-1.487-1.918-1.591-3.33-.136-1.881.556-3.762 1.901-5.16 2.512-2.614 6.472-3.134 8.649-1.139 1.023.938 1.6 2.27 1.625 3.75.031 1.767-.75 3.563-2.14 4.929-1.466 1.44-3.21 2.178-4.904 2.179" fill="#231f20" transform="matrix(4.16667 0 0 4.16667 178.5445789 106.14554204)"/><path d="m0 7.697c-2.287.097-2.959-1.783-3.017-2.581-.091-1.259.398-2.576 1.31-3.524 1.016-1.058 2.412-1.689 3.733-1.689.793 0 1.481.229 1.933.644.587.537.918 1.323.934 2.213.02 1.182-.528 2.411-1.502 3.368-1.045 1.026-2.217 1.569-3.391 1.569" fill="#9755a2" transform="matrix(4.16667 0 0 4.16667 169.53623836 69.83301299)"/><path d="m0 7.185c-2.136.091-2.763-1.664-2.816-2.409-.086-1.175.371-2.405 1.221-3.29.949-.988 2.252-1.577 3.486-1.577.741 0 1.382.214 1.805.601.547.502.857 1.236.87 2.067.02 1.103-.491 2.25-1.401 3.144-.976.958-2.069 1.464-3.165 1.464" fill="#c58abd" transform="matrix(4.16667 0 0 4.16667 170.95290616 72.83718206)"/><path d="m0-7.24c-1.247 0-2.567.6-3.532 1.603-.858.892-1.319 2.13-1.233 3.311.05.677.628 2.411 2.728 2.322h.012c1.098 0 2.204-.514 3.195-1.488.921-.904 1.437-2.058 1.418-3.165-.014-.812-.313-1.527-.843-2.013-.401-.368-1.02-.57-1.745-.57m-2.197 7.797c-2.387 0-3.065-2.036-3.123-2.842-.098-1.336.421-2.733 1.386-3.738 1.068-1.111 2.538-1.774 3.934-1.774.864 0 1.617.254 2.122.717.644.59 1.007 1.446 1.024 2.413.021 1.259-.557 2.562-1.586 3.573-1.096 1.076-2.333 1.646-3.58 1.648-.059.002-.119.003-.177.003" fill="#231f20" transform="matrix(4.16667 0 0 4.16667 177.97374511 100.75803773)"/><path d="m0 12.649c-1.269 0-2.509-.409-3.586-1.244-.463-.36-1.593-1.322-2.097-2.51-.06-.142.006-.306.148-.365.141-.061.305.006.365.147.465 1.097 1.592 2.028 1.926 2.287 2.301 1.785 5.443 1.415 7.82-.919 2.121-2.084 2.824-5.931.49-8.335-.4-.413-.513-.503-1.394-1.214l-.082-.066c-.119-.096-.138-.272-.042-.391.098-.12.272-.139.392-.042l.081.065c.885.713 1.021.823 1.445 1.26 1.076 1.108 1.665 2.704 1.614 4.379-.054 1.77-.804 3.454-2.114 4.741-1.485 1.459-3.251 2.207-4.966 2.207" fill="#231f20" transform="matrix(4.16667 0 0 4.16667 175.39457638 65.44134281)"/><path d="m0-12.759c.959.773 1.076.865 1.501 1.303 2.073 2.135 2.187 6.093-.495 8.727-2.61 2.564-5.881 2.729-8.187.941-.617-.479-1.578-1.377-2.011-2.399z" fill="#9755a2" transform="matrix(4.16667 0 0 4.16667 233.47795618 58.5538373)"/><path d="m-4.339-10.881c-2.891-.027-5.427 2.698-5.268 6.403.154 3.608 2.402 5.93 5.268 6.194 2.454.225 5.318-2.524 5.266-6.134-.051-3.61-2.605-6.438-5.266-6.463" fill="#c58abd" transform="matrix(-3.04448160225 -2.84468977575 -2.84468977575 3.04448160225 190.01125474 26.77047854)"/><path d="m0-10.281c-1.674 0-3.51.759-4.885 2.188-1.234 1.286-1.871 3.011-1.745 4.734.091 1.256.593 2.323 1.376 2.931 2.27 1.759 5.368 1.395 7.711-.908 1.283-1.259 2.002-2.907 1.975-4.521-.024-1.326-.536-2.516-1.445-3.349-.792-.726-1.852-1.075-2.987-1.075m-2.055 11.522c-1.253 0-2.477-.405-3.541-1.229-.907-.704-1.487-1.918-1.59-3.33-.137-1.881.556-3.762 1.9-5.16 2.513-2.614 6.473-3.134 8.649-1.139 1.023.938 1.6 2.27 1.625 3.75.031 1.767-.75 3.563-2.14 4.929-1.466 1.44-3.21 2.178-4.903 2.179" fill="#231f20" transform="matrix(4.16667 0 0 4.16667 220.94461282 45.20382662)"/><path d="m0 7.697c-2.288.097-2.96-1.783-3.018-2.581-.091-1.259.398-2.576 1.31-3.524 1.017-1.058 2.412-1.689 3.733-1.689.794 0 1.481.229 1.934.644.586.538.917 1.323.933 2.213.02 1.183-.528 2.411-1.502 3.369-1.044 1.025-2.217 1.568-3.39 1.568" fill="#9755a2" transform="matrix(4.16667 0 0 4.16667 211.93210561 8.89546424)"/><path d="m0 7.184c-2.136.091-2.763-1.664-2.816-2.409-.086-1.175.371-2.405 1.222-3.29.948-.988 2.252-1.576 3.486-1.576.741 0 1.381.213 1.804.6.547.502.857 1.236.871 2.067.019 1.103-.492 2.25-1.402 3.144-.975.958-2.069 1.464-3.165 1.464" fill="#c58abd" transform="matrix(4.16667 0 0 4.16667 213.34877341 11.90379998)"/><path d="m0-7.24c-1.247 0-2.567.6-3.533 1.604-.858.891-1.319 2.129-1.233 3.31.05.677.628 2.411 2.729 2.323.004-.001.008-.001.012-.001 1.098 0 2.203-.514 3.194-1.488.921-.904 1.437-2.058 1.419-3.165-.015-.812-.314-1.527-.843-2.013-.401-.367-1.021-.57-1.745-.57m-2.197 7.797c-2.387 0-3.066-2.036-3.124-2.842-.097-1.336.421-2.733 1.386-3.738 1.069-1.111 2.539-1.774 3.935-1.774.863 0 1.617.254 2.121.717.644.59 1.007 1.446 1.024 2.413.021 1.26-.556 2.562-1.585 3.573-1.096 1.076-2.334 1.646-3.58 1.648-.06.002-.12.003-.177.003" fill="#231f20" transform="matrix(4.16667 0 0 4.16667 220.37377903 39.82048898)"/><path d="m0 12.649c-1.269 0-2.509-.409-3.585-1.244-.463-.36-1.594-1.322-2.098-2.51-.06-.142.006-.306.148-.365.141-.061.306.006.365.147.466 1.097 1.592 2.029 1.926 2.287 2.302 1.785 5.444 1.415 7.82-.919 2.121-2.084 2.825-5.931.49-8.335-.4-.413-.513-.503-1.393-1.214l-.082-.066c-.12-.096-.139-.272-.042-.391.097-.12.271-.139.391-.042l.082.065c.884.713 1.02.823 1.445 1.26 1.076 1.108 1.664 2.704 1.613 4.379-.053 1.77-.804 3.454-2.114 4.741-1.485 1.459-3.251 2.207-4.966 2.207" fill="#231f20" transform="matrix(4.16667 0 0 4.16667 217.79044363 4.50379406)"/><path d="m0-12.759c.959.773 1.076.865 1.501 1.303 2.073 2.135 2.187 6.093-.495 8.727-2.61 2.564-5.881 2.729-8.187.941-.617-.479-1.578-1.377-2.01-2.399z" fill="#9755a2" transform="matrix(4.16667 0 0 4.16667 255.59880721 119.49138605)"/><path d="m-4.34-10.881c-2.89-.027-5.426 2.697-5.268 6.403.155 3.607 2.401 5.929 5.268 6.193 2.454.226 5.317-2.523 5.266-6.132-.05-3.61-2.604-6.439-5.266-6.464" fill="#c58abd" transform="matrix(-3.04416076866 -2.84503144269 -2.84503144269 3.04416076866 212.12377243 87.69969395)"/><path d="m0-10.283c-1.674 0-3.509.76-4.884 2.189-1.235 1.286-1.872 3.011-1.746 4.734.091 1.256.593 2.323 1.376 2.931 2.27 1.759 5.368 1.395 7.712-.908 1.282-1.259 2.001-2.907 1.974-4.521-.024-1.326-.536-2.516-1.445-3.35-.792-.725-1.852-1.075-2.987-1.075m-2.055 11.523c-1.253 0-2.477-.405-3.541-1.229-.907-.704-1.487-1.918-1.59-3.33-.136-1.881.556-3.762 1.9-5.16 2.513-2.614 6.473-3.134 8.649-1.139 1.023.938 1.6 2.27 1.625 3.75.031 1.767-.75 3.563-2.14 4.929-1.466 1.44-3.21 2.178-4.903 2.179" fill="#231f20" transform="matrix(4.16667 0 0 4.16667 243.06129718 106.14554204)"/><path d="m0 7.697c-2.288.097-2.959-1.783-3.018-2.581-.091-1.259.399-2.576 1.31-3.524 1.017-1.058 2.412-1.689 3.733-1.689.794 0 1.481.229 1.934.644.586.537.917 1.323.933 2.213.02 1.182-.528 2.411-1.502 3.368-1.044 1.026-2.217 1.569-3.39 1.569" fill="#9755a2" transform="matrix(4.16667 0 0 4.16667 234.05295664 69.83301299)"/><path d="m0 7.185c-2.136.091-2.763-1.664-2.816-2.409-.086-1.175.371-2.405 1.222-3.29.948-.988 2.252-1.577 3.486-1.577.741 0 1.381.214 1.804.601.548.502.857 1.236.871 2.067.02 1.103-.492 2.25-1.402 3.144-.975.958-2.069 1.464-3.165 1.464" fill="#c58abd" transform="matrix(4.16667 0 0 4.16667 235.46962444 72.83718206)"/><path d="m0-7.24c-1.247 0-2.567.6-3.533 1.603-.858.892-1.319 2.13-1.232 3.311.049.677.628 2.411 2.728 2.322h.012c1.098 0 2.203-.514 3.194-1.488.921-.904 1.437-2.058 1.419-3.165-.014-.812-.314-1.527-.843-2.013-.401-.368-1.021-.57-1.745-.57m-2.197 7.797c-2.387 0-3.065-2.036-3.123-2.842-.098-1.336.421-2.733 1.385-3.738 1.069-1.111 2.539-1.774 3.935-1.774.863 0 1.617.254 2.121.717.644.59 1.007 1.446 1.024 2.413.021 1.259-.556 2.562-1.585 3.573-1.096 1.076-2.333 1.646-3.58 1.648-.06.002-.12.003-.177.003" fill="#231f20" transform="matrix(4.16667 0 0 4.16667 242.49046339 100.75803773)"/><path d="m0 12.649c-1.27 0-2.51-.409-3.586-1.244-.463-.36-1.594-1.322-2.098-2.51-.059-.142.006-.306.148-.365.141-.061.306.006.365.147.466 1.097 1.592 2.028 1.926 2.287 2.302 1.785 5.444 1.415 7.82-.919 2.121-2.084 2.825-5.931.49-8.335-.4-.413-.513-.503-1.393-1.214l-.082-.066c-.12-.096-.139-.272-.042-.391.097-.12.271-.139.391-.042l.082.065c.884.713 1.02.823 1.445 1.26 1.076 1.108 1.664 2.704 1.614 4.379-.054 1.77-.805 3.454-2.114 4.741-1.486 1.459-3.252 2.207-4.966 2.207" fill="#231f20" transform="matrix(4.16667 0 0 4.16667 239.91129466 65.44134281)"/><path d="m0-12.759c.959.773 1.076.865 1.501 1.303 2.073 2.135 2.186 6.093-.495 8.727-2.61 2.564-5.881 2.729-8.187.941-.617-.479-1.578-1.377-2.011-2.399z" fill="#9755a2" transform="matrix(4.16667 0 0 4.16667 295.39050571 58.5538373)"/><path d="m-4.339-10.881c-2.891-.027-5.427 2.698-5.268 6.403.154 3.608 2.402 5.93 5.268 6.194 2.454.225 5.318-2.524 5.266-6.134-.051-3.61-2.604-6.438-5.266-6.463" fill="#c58abd" transform="matrix(-3.04448160225 -2.84468977575 -2.84468977575 3.04448160225 251.9196376 26.77047854)"/><path d="m0-10.281c-1.673 0-3.509.759-4.884 2.188-1.234 1.286-1.871 3.011-1.745 4.734.091 1.256.593 2.323 1.375 2.931 2.271 1.759 5.369 1.395 7.712-.908 1.282-1.259 2.002-2.907 1.975-4.521-.024-1.326-.537-2.516-1.445-3.349-.792-.726-1.852-1.075-2.988-1.075m-2.054 11.522c-1.253 0-2.477-.405-3.541-1.229-.907-.704-1.487-1.918-1.59-3.33-.137-1.881.555-3.762 1.9-5.16 2.513-2.614 6.472-3.134 8.649-1.139 1.023.938 1.6 2.27 1.625 3.75.031 1.767-.75 3.563-2.14 4.929-1.466 1.44-3.21 2.178-4.903 2.179" fill="#231f20" transform="matrix(4.16667 0 0 4.16667 282.84882901 45.20382662)"/><path d="m0 7.697c-2.288.097-2.96-1.783-3.018-2.581-.091-1.259.398-2.576 1.31-3.524 1.017-1.058 2.412-1.689 3.733-1.689.794 0 1.481.229 1.933.644.587.538.918 1.323.934 2.213.02 1.183-.528 2.411-1.502 3.369-1.045 1.025-2.217 1.568-3.39 1.568" fill="#9755a2" transform="matrix(4.16667 0 0 4.16667 273.84465514 8.89546424)"/><path d="m0 7.184c-2.136.091-2.763-1.664-2.816-2.409-.086-1.175.371-2.405 1.221-3.29.949-.988 2.252-1.576 3.487-1.576.741 0 1.381.213 1.804.6.547.502.857 1.236.871 2.067.019 1.103-.492 2.25-1.402 3.144-.975.958-2.069 1.464-3.165 1.464" fill="#c58abd" transform="matrix(4.16667 0 0 4.16667 275.26132294 11.90379998)"/><path d="m0-7.24c-1.247 0-2.568.6-3.533 1.604-.858.891-1.319 2.129-1.233 3.31.05.677.628 2.411 2.728 2.323.004-.001.008-.001.012-.001 1.099 0 2.204-.514 3.195-1.488.921-.904 1.437-2.058 1.418-3.165-.014-.812-.313-1.527-.842-2.013-.401-.367-1.021-.57-1.745-.57m-2.198 7.797c-2.386 0-3.065-2.036-3.123-2.842-.097-1.336.421-2.733 1.386-3.738 1.069-1.111 2.539-1.774 3.935-1.774.863 0 1.617.254 2.121.717.644.59 1.007 1.446 1.024 2.413.021 1.26-.556 2.562-1.585 3.573-1.096 1.076-2.334 1.646-3.58 1.648-.06.002-.12.003-.178.003" fill="#231f20" transform="matrix(4.16667 0 0 4.16667 282.28216189 39.82048898)"/><path d="m0 12.649c-1.269 0-2.509-.409-3.586-1.244-.462-.36-1.593-1.322-2.097-2.51-.06-.142.006-.306.148-.365.141-.061.305.006.365.147.466 1.097 1.592 2.029 1.926 2.287 2.302 1.785 5.444 1.415 7.82-.919 2.121-2.084 2.825-5.931.49-8.335-.4-.413-.513-.503-1.394-1.214l-.081-.066c-.12-.096-.139-.272-.042-.391.097-.12.271-.139.391-.042l.082.065c.884.713 1.02.823 1.444 1.26 1.077 1.108 1.665 2.704 1.614 4.379-.053 1.77-.804 3.454-2.114 4.741-1.485 1.459-3.251 2.207-4.966 2.207" fill="#231f20" transform="matrix(4.16667 0 0 4.16667 279.69882649 4.50379406)"/><path d="m0-12.759c.959.773 1.076.865 1.501 1.303 2.073 2.135 2.187 6.093-.495 8.727-2.61 2.564-5.881 2.729-8.187.941-.617-.479-1.578-1.377-2.011-2.399z" fill="#9755a2" transform="matrix(4.16667 0 0 4.16667 317.50719007 119.49138605)"/><path d="m-4.338-10.881c-2.892-.027-5.428 2.697-5.269 6.403.155 3.607 2.401 5.93 5.269 6.193 2.453.226 5.317-2.523 5.265-6.133-.051-3.61-2.604-6.438-5.265-6.463" fill="#c58abd" transform="matrix(-3.04432743546 -2.84485644255 -2.84485644255 3.04432743546 274.04048863 87.70386062)"/><path d="m0-10.283c-1.674 0-3.509.76-4.885 2.189-1.234 1.286-1.871 3.011-1.745 4.734.091 1.256.593 2.323 1.376 2.931 2.27 1.759 5.368 1.395 7.712-.908 1.282-1.259 2.001-2.907 1.974-4.521-.024-1.326-.536-2.516-1.445-3.35-.792-.725-1.852-1.075-2.987-1.075m-2.055 11.523c-1.253 0-2.477-.405-3.541-1.229-.907-.704-1.487-1.918-1.59-3.33-.137-1.881.556-3.762 1.9-5.16 2.513-2.614 6.473-3.134 8.649-1.139 1.023.938 1.6 2.27 1.625 3.75.031 1.767-.75 3.563-2.14 4.929-1.466 1.44-3.21 2.178-4.903 2.179" fill="#231f20" transform="matrix(4.16667 0 0 4.16667 304.96968004 106.14554204)"/><path d="m0 7.697c-2.288.097-2.96-1.783-3.018-2.581-.091-1.259.398-2.576 1.31-3.524 1.017-1.058 2.412-1.689 3.733-1.689.794 0 1.481.229 1.934.644.586.537.917 1.323.933 2.213.02 1.182-.528 2.411-1.502 3.368-1.044 1.026-2.217 1.569-3.39 1.569" fill="#9755a2" transform="matrix(4.16667 0 0 4.16667 295.9613395 69.83301299)"/><path d="m0 7.185c-2.136.091-2.763-1.664-2.816-2.409-.086-1.175.371-2.405 1.222-3.29.948-.988 2.252-1.577 3.486-1.577.741 0 1.381.214 1.804.601.547.502.857 1.236.871 2.067.019 1.103-.492 2.25-1.402 3.144-.975.958-2.069 1.464-3.165 1.464" fill="#c58abd" transform="matrix(4.16667 0 0 4.16667 297.3780073 72.83718206)"/><path d="m0-7.24c-1.247 0-2.567.6-3.533 1.603-.858.892-1.319 2.13-1.233 3.311.05.677.628 2.411 2.729 2.322h.012c1.098 0 2.203-.514 3.194-1.488.921-.904 1.437-2.058 1.419-3.165-.014-.812-.314-1.527-.843-2.013-.401-.368-1.021-.57-1.745-.57m-2.197 7.797c-2.387 0-3.066-2.036-3.124-2.842-.097-1.336.421-2.733 1.386-3.738 1.069-1.111 2.539-1.774 3.935-1.774.863 0 1.617.254 2.121.717.644.59 1.007 1.446 1.024 2.413.021 1.259-.556 2.562-1.585 3.573-1.096 1.076-2.334 1.646-3.58 1.648-.06.002-.12.003-.177.003" fill="#231f20" transform="matrix(4.16667 0 0 4.16667 304.40301292 100.75803773)"/><path d="m0 12.649c-1.269 0-2.509-.409-3.585-1.244-.463-.36-1.594-1.322-2.098-2.51-.06-.142.006-.306.148-.365.141-.061.306.006.365.147.466 1.097 1.592 2.028 1.926 2.287 2.302 1.785 5.444 1.415 7.82-.919 2.121-2.084 2.825-5.931.49-8.335-.4-.413-.513-.503-1.393-1.214l-.082-.066c-.12-.096-.139-.272-.042-.391.097-.12.271-.139.391-.042l.082.065c.884.713 1.02.823 1.445 1.26 1.076 1.108 1.664 2.704 1.613 4.379-.053 1.77-.804 3.454-2.114 4.741-1.485 1.459-3.251 2.207-4.966 2.207" fill="#231f20" transform="matrix(4.16667 0 0 4.16667 301.81967752 65.44134281)"/><path d="m0-12.759c.959.774 1.076.865 1.501 1.303 2.074 2.135 2.187 6.093-.495 8.727-2.61 2.565-5.881 2.729-8.186.942-.618-.479-1.579-1.377-2.011-2.399z" fill="#0094d8" transform="matrix(4.16667 0 0 4.16667 815.74092199 58.66217072)"/><path d="m-4.34-10.88c-2.89-.028-5.426 2.696-5.268 6.401.154 3.608 2.401 5.931 5.268 6.195 2.453.226 5.317-2.523 5.266-6.133-.05-3.61-2.604-6.438-5.266-6.463" fill="#0ec2f3" transform="matrix(-3.04416076866 -2.84503144269 -2.84503144269 3.04416076866 772.27005388 26.87047862)"/><path d="m0-10.282c-1.674 0-3.509.759-4.884 2.189-1.235 1.286-1.872 3.01-1.746 4.734.092 1.255.593 2.323 1.376 2.931 2.27 1.759 5.368 1.395 7.712-.908 1.282-1.259 2.001-2.908 1.974-4.521-.023-1.327-.536-2.517-1.445-3.35-.792-.725-1.852-1.075-2.987-1.075m-2.055 11.522c-1.253 0-2.477-.404-3.541-1.229-.907-.703-1.486-1.917-1.59-3.33-.136-1.88.556-3.761 1.901-5.159 2.512-2.614 6.472-3.135 8.648-1.139 1.023.938 1.6 2.269 1.625 3.75.031 1.766-.749 3.563-2.14 4.929-1.466 1.44-3.21 2.178-4.903 2.178" fill="#231f20" transform="matrix(4.16667 0 0 4.16667 803.20757863 45.31216004)"/><path d="m0 7.697c-2.288.097-2.959-1.783-3.018-2.58-.091-1.259.399-2.576 1.31-3.525 1.017-1.057 2.412-1.689 3.733-1.689.794 0 1.481.229 1.934.644.586.538.918 1.324.933 2.213.02 1.183-.527 2.411-1.502 3.369-1.044 1.026-2.217 1.568-3.39 1.568" fill="#0094d8" transform="matrix(4.16667 0 0 4.16667 794.19923809 9.00379766)"/><path d="m0 7.186c-2.136.09-2.763-1.665-2.817-2.409-.086-1.175.371-2.405 1.222-3.291.949-.987 2.252-1.576 3.486-1.576.741 0 1.381.214 1.804.6.548.502.857 1.237.871 2.067.02 1.104-.492 2.251-1.402 3.144-.975.958-2.069 1.465-3.164 1.465" fill="#0ec2f3" transform="matrix(4.16667 0 0 4.16667 795.61590589 12.00796673)"/><path d="m0-7.239c-1.247 0-2.567.599-3.532 1.603-.859.892-1.32 2.13-1.233 3.311.049.676.628 2.41 2.728 2.322h.012c1.098 0 2.203-.514 3.194-1.489.921-.904 1.438-2.058 1.419-3.164-.014-.812-.314-1.527-.843-2.013-.401-.368-1.02-.57-1.745-.57m-2.197 7.797c-2.387 0-3.065-2.037-3.123-2.843-.098-1.336.421-2.733 1.386-3.737 1.068-1.112 2.538-1.775 3.934-1.775.864 0 1.617.255 2.121.717.644.59 1.007 1.447 1.024 2.414.022 1.259-.556 2.561-1.585 3.573-1.096 1.076-2.333 1.645-3.58 1.647-.06.003-.12.004-.177.004" fill="#231f20" transform="matrix(4.16667 0 0 4.16667 802.63674484 39.92465573)"/><path d="m0 12.65c-1.27 0-2.51-.41-3.586-1.245-.463-.359-1.594-1.321-2.098-2.51-.059-.141.006-.305.148-.365s.306.006.365.147c.466 1.098 1.592 2.029 1.926 2.287 2.302 1.786 5.444 1.416 7.82-.918 2.122-2.085 2.825-5.931.491-8.335-.401-.414-.513-.504-1.394-1.214l-.082-.067c-.12-.096-.139-.271-.042-.391s.272-.139.391-.042l.082.066c.884.713 1.02.822 1.445 1.26 1.076 1.108 1.665 2.704 1.614 4.379-.054 1.77-.805 3.454-2.114 4.741-1.486 1.459-3.252 2.207-4.966 2.207" fill="#231f20" transform="matrix(4.16667 0 0 4.16667 800.05757611 4.60796081)"/><path d="m0-12.759c.959.774 1.076.865 1.501 1.303 2.073 2.135 2.187 6.093-.495 8.727-2.61 2.565-5.881 2.729-8.187.942-.617-.479-1.578-1.377-2.011-2.399z" fill="#0094d8" transform="matrix(4.16667 0 0 4.16667 880.72014064 58.66217072)"/><path d="m-4.339-10.88c-2.89-.028-5.426 2.696-5.268 6.402.154 3.608 2.402 5.93 5.268 6.194 2.454.226 5.317-2.523 5.267-6.133-.051-3.611-2.606-6.438-5.267-6.463" fill="#0ec2f3" transform="matrix(-3.04432743546 -2.84485644255 -2.84485644255 3.04432743546 837.2534392 26.87464529)"/><path d="m0-10.282c-1.674 0-3.51.759-4.885 2.189-1.234 1.286-1.871 3.01-1.745 4.734.091 1.255.593 2.323 1.376 2.931 2.27 1.759 5.368 1.395 7.711-.908 1.282-1.259 2.002-2.908 1.975-4.521-.024-1.327-.536-2.517-1.445-3.35-.792-.725-1.852-1.075-2.987-1.075m-2.055 11.522c-1.253 0-2.477-.404-3.541-1.229-.907-.703-1.487-1.917-1.59-3.33-.137-1.88.556-3.761 1.9-5.159 2.513-2.614 6.473-3.135 8.649-1.139 1.023.938 1.6 2.269 1.625 3.75.031 1.766-.75 3.563-2.14 4.929-1.466 1.44-3.21 2.178-4.903 2.178" fill="#231f20" transform="matrix(4.16667 0 0 4.16667 868.18263061 45.31216004)"/><path d="m0 7.697c-2.288.097-2.96-1.783-3.018-2.58-.091-1.259.398-2.576 1.31-3.525 1.017-1.057 2.412-1.689 3.733-1.689.794 0 1.481.229 1.933.644.587.538.918 1.324.934 2.213.02 1.183-.528 2.411-1.502 3.369-1.044 1.026-2.217 1.568-3.39 1.568" fill="#0094d8" transform="matrix(4.16667 0 0 4.16667 859.17429007 9.00379766)"/><path d="m0 7.186c-2.136.09-2.763-1.665-2.816-2.409-.086-1.175.371-2.405 1.222-3.291.948-.987 2.252-1.576 3.486-1.576.741 0 1.381.214 1.804.6.547.502.857 1.237.871 2.067.019 1.104-.492 2.251-1.402 3.144-.975.958-2.069 1.465-3.165 1.465" fill="#0ec2f3" transform="matrix(4.16667 0 0 4.16667 860.59095787 12.00796673)"/><path d="m0-7.239c-1.247 0-2.567.599-3.533 1.603-.858.892-1.319 2.13-1.233 3.311.05.676.628 2.41 2.729 2.322h.012c1.098 0 2.203-.514 3.194-1.489.921-.904 1.437-2.058 1.419-3.164-.015-.812-.314-1.527-.843-2.013-.401-.368-1.021-.57-1.745-.57m-2.197 7.797c-2.387 0-3.066-2.037-3.124-2.843-.097-1.336.421-2.733 1.386-3.737 1.069-1.112 2.539-1.775 3.935-1.775.863 0 1.617.255 2.121.717.644.59 1.007 1.447 1.024 2.414.021 1.259-.556 2.561-1.585 3.573-1.096 1.076-2.334 1.645-3.58 1.647-.06.003-.12.004-.177.004" fill="#231f20" transform="matrix(4.16667 0 0 4.16667 867.61596349 39.92465573)"/><path d="m0 12.65c-1.269 0-2.509-.41-3.585-1.245-.463-.359-1.594-1.321-2.098-2.51-.06-.141.006-.305.148-.365.141-.06.306.006.365.147.466 1.098 1.592 2.029 1.926 2.287 2.302 1.786 5.444 1.416 7.82-.918 2.121-2.085 2.825-5.931.49-8.335-.4-.414-.513-.504-1.393-1.214l-.082-.067c-.12-.096-.139-.271-.042-.391s.271-.139.391-.042l.082.066c.884.713 1.02.822 1.445 1.26 1.076 1.108 1.664 2.704 1.613 4.379-.053 1.77-.804 3.454-2.114 4.741-1.485 1.459-3.251 2.207-4.966 2.207" fill="#231f20" transform="matrix(4.16667 0 0 4.16667 865.03262809 4.60796081)"/><path d="m0-12.759c.96.774 1.076.865 1.501 1.303 2.074 2.135 2.187 6.093-.495 8.727-2.61 2.565-5.881 2.729-8.186.942-.617-.479-1.578-1.377-2.011-2.399z" fill="#0094d8" transform="matrix(4.16667 0 0 4.16667 947.07852706 58.66217072)"/><path d="m-4.339-10.88c-2.891-.028-5.426 2.696-5.268 6.401.153 3.608 2.4 5.93 5.268 6.195 2.453.226 5.317-2.523 5.266-6.133-.05-3.61-2.604-6.438-5.266-6.463" fill="#0ec2f3" transform="matrix(-3.04416076866 -2.84503144269 -2.84503144269 3.04416076866 903.61182562 26.87047862)"/><path d="m0-10.282c-1.674 0-3.509.759-4.884 2.189-1.235 1.286-1.871 3.01-1.746 4.734.092 1.255.593 2.323 1.376 2.931 2.27 1.759 5.368 1.395 7.712-.908 1.282-1.259 2.002-2.908 1.974-4.521-.023-1.327-.536-2.517-1.445-3.35-.792-.725-1.852-1.075-2.987-1.075m-2.055 11.522c-1.253 0-2.477-.404-3.54-1.229-.908-.703-1.487-1.917-1.591-3.33-.136-1.88.556-3.761 1.901-5.159 2.512-2.614 6.472-3.135 8.649-1.139 1.023.938 1.599 2.269 1.625 3.75.031 1.766-.75 3.563-2.14 4.929-1.467 1.44-3.211 2.178-4.904 2.178" fill="#231f20" transform="matrix(4.16667 0 0 4.16667 934.54101703 45.31216004)"/><path d="m0 7.697c-2.287.097-2.959-1.783-3.018-2.58-.091-1.259.399-2.576 1.31-3.525 1.017-1.057 2.412-1.689 3.733-1.689.794 0 1.481.229 1.934.644.586.538.918 1.324.933 2.213.02 1.183-.527 2.411-1.502 3.369-1.044 1.026-2.216 1.568-3.39 1.568" fill="#0094d8" transform="matrix(4.16667 0 0 4.16667 925.53267649 9.00379766)"/><path d="m0 7.186c-2.136.09-2.763-1.665-2.817-2.409-.085-1.175.372-2.405 1.222-3.291.949-.987 2.252-1.576 3.486-1.576.741 0 1.381.214 1.804.6.548.502.858 1.237.871 2.067.02 1.104-.492 2.251-1.402 3.144-.975.958-2.069 1.465-3.164 1.465" fill="#0ec2f3" transform="matrix(4.16667 0 0 4.16667 926.95351096 12.00796673)"/><path d="m0-7.239c-1.247 0-2.567.599-3.532 1.603-.859.892-1.319 2.13-1.233 3.311.049.676.628 2.41 2.728 2.322h.012c1.098 0 2.204-.514 3.195-1.489.92-.904 1.437-2.058 1.418-3.164-.014-.812-.314-1.527-.843-2.013-.401-.368-1.02-.57-1.745-.57m-2.197 7.797c-2.387 0-3.065-2.037-3.123-2.843-.098-1.336.421-2.733 1.386-3.737 1.068-1.112 2.538-1.775 3.934-1.775.864 0 1.617.255 2.122.717.643.59 1.006 1.447 1.024 2.414.021 1.259-.557 2.561-1.586 3.573-1.096 1.076-2.333 1.645-3.58 1.647-.059.003-.119.004-.177.004" fill="#231f20" transform="matrix(4.16667 0 0 4.16667 933.97018324 39.92465573)"/><path d="m0 12.65c-1.27 0-2.509-.41-3.586-1.245-.463-.359-1.594-1.321-2.098-2.51-.059-.141.006-.305.149-.365.141-.06.305.006.364.147.466 1.098 1.592 2.029 1.927 2.287 2.301 1.786 5.443 1.416 7.819-.918 2.122-2.085 2.825-5.931.491-8.335-.401-.414-.513-.504-1.394-1.214l-.082-.067c-.12-.096-.139-.271-.042-.391s.272-.139.391-.042l.082.066c.884.713 1.021.822 1.445 1.26 1.076 1.108 1.665 2.704 1.614 4.379-.054 1.77-.805 3.454-2.114 4.741-1.485 1.459-3.252 2.207-4.966 2.207" fill="#231f20" transform="matrix(4.16667 0 0 4.16667 931.39101451 4.60796081)"/><path d="m0-12.76c.959.774 1.076.865 1.501 1.303 2.074 2.135 2.187 6.093-.495 8.728-2.61 2.564-5.881 2.729-8.186.941-.618-.479-1.579-1.377-2.011-2.399z" fill="#0094d8" transform="matrix(4.16667 0 0 4.16667 850.30344964 120.87472049)"/><path d="m-4.34-10.881c-2.89-.027-5.426 2.696-5.268 6.401.154 3.608 2.401 5.931 5.268 6.195 2.454.226 5.317-2.523 5.267-6.133-.051-3.61-2.605-6.438-5.267-6.463" fill="#0ec2f3" transform="matrix(-3.04416076866 -2.84503144269 -2.84503144269 3.04416076866 806.83258153 89.08302839)"/><path d="m0-10.282c-1.674 0-3.509.759-4.884 2.189-1.235 1.286-1.872 3.01-1.746 4.734.092 1.255.593 2.323 1.376 2.931 2.27 1.759 5.368 1.395 7.712-.908 1.282-1.259 2.001-2.908 1.974-4.521-.023-1.327-.536-2.517-1.445-3.35-.792-.725-1.852-1.075-2.987-1.075m-2.055 11.522c-1.253 0-2.477-.404-3.541-1.228-.907-.704-1.486-1.918-1.59-3.331-.136-1.88.556-3.761 1.901-5.159 2.512-2.614 6.472-3.135 8.648-1.139 1.023.938 1.6 2.27 1.625 3.75.031 1.766-.749 3.563-2.14 4.929-1.466 1.44-3.21 2.178-4.903 2.178" fill="#231f20" transform="matrix(4.16667 0 0 4.16667 837.76593961 107.52470981)"/><path d="m0 7.697c-2.288.097-2.959-1.783-3.018-2.58-.091-1.259.399-2.576 1.31-3.524 1.017-1.058 2.412-1.69 3.733-1.69.794 0 1.481.23 1.934.645.586.537.918 1.323.933 2.212.02 1.183-.527 2.412-1.502 3.369-1.044 1.026-2.217 1.568-3.39 1.568" fill="#0094d8" transform="matrix(4.16667 0 0 4.16667 828.75759907 71.21218076)"/><path d="m0 7.186c-2.136.09-2.763-1.665-2.817-2.409-.086-1.175.371-2.405 1.222-3.291.949-.987 2.252-1.576 3.486-1.576.741 0 1.381.214 1.804.601.548.502.857 1.236.871 2.066.02 1.104-.492 2.251-1.402 3.145-.975.957-2.069 1.464-3.164 1.464" fill="#0ec2f3" transform="matrix(4.16667 0 0 4.16667 830.17843354 74.21634983)"/><path d="m0-7.239c-1.247 0-2.567.599-3.532 1.603-.859.892-1.32 2.13-1.233 3.311.049.676.628 2.41 2.728 2.322h.012c1.098 0 2.203-.514 3.194-1.488.921-.904 1.438-2.059 1.419-3.165-.014-.812-.314-1.527-.843-2.013-.401-.368-1.02-.57-1.745-.57m-2.197 7.797c-2.387 0-3.065-2.037-3.123-2.842-.098-1.337.421-2.733 1.385-3.738 1.069-1.112 2.539-1.775 3.935-1.775.864 0 1.617.255 2.121.718.644.589 1.007 1.446 1.024 2.413.022 1.259-.556 2.561-1.585 3.573-1.096 1.076-2.333 1.646-3.58 1.647-.06.003-.12.004-.177.004" fill="#231f20" transform="matrix(4.16667 0 0 4.16667 837.19927249 102.1372055)"/><path d="m0 12.649c-1.27 0-2.51-.41-3.586-1.245-.463-.359-1.594-1.321-2.098-2.51-.059-.141.006-.305.148-.365s.306.006.365.147c.466 1.098 1.592 2.029 1.926 2.288 2.302 1.785 5.444 1.415 7.82-.919 2.122-2.084 2.825-5.931.491-8.335-.401-.413-.513-.504-1.394-1.214l-.082-.067c-.12-.095-.139-.271-.042-.391.097-.119.272-.138.391-.042l.082.066c.884.713 1.02.822 1.445 1.26 1.076 1.108 1.664 2.704 1.614 4.379-.054 1.77-.805 3.454-2.114 4.741-1.486 1.459-3.252 2.207-4.966 2.207" fill="#231f20" transform="matrix(4.16667 0 0 4.16667 834.62010376 66.82467725)"/><path d="m0-12.76c.959.774 1.076.865 1.501 1.303 2.073 2.135 2.187 6.093-.495 8.728-2.61 2.564-5.881 2.729-8.187.941-.617-.479-1.578-1.377-2.011-2.399z" fill="#0094d8" transform="matrix(4.16667 0 0 4.16667 915.28266829 120.87472049)"/><path d="m-4.338-10.881c-2.892-.027-5.427 2.697-5.268 6.402.154 3.608 2.4 5.931 5.268 6.194 2.453.226 5.317-2.523 5.266-6.133s-2.605-6.438-5.266-6.463" fill="#0ec2f3" transform="matrix(-3.04432743546 -2.84485644255 -2.84485644255 3.04432743546 871.81180018 89.08719506)"/><path d="m0-10.282c-1.674 0-3.51.759-4.885 2.189-1.234 1.286-1.871 3.01-1.745 4.734.091 1.255.593 2.323 1.376 2.931 2.27 1.759 5.368 1.395 7.711-.908 1.282-1.259 2.002-2.908 1.975-4.521-.024-1.327-.536-2.517-1.445-3.35-.792-.725-1.852-1.075-2.987-1.075m-2.055 11.522c-1.253 0-2.477-.404-3.541-1.228-.907-.704-1.487-1.918-1.59-3.331-.137-1.88.556-3.761 1.9-5.159 2.513-2.614 6.473-3.135 8.649-1.139 1.023.938 1.6 2.27 1.625 3.75.031 1.766-.75 3.563-2.14 4.929-1.466 1.44-3.21 2.178-4.903 2.178" fill="#231f20" transform="matrix(4.16667 0 0 4.16667 902.74515826 107.52470981)"/><path d="m0 7.697c-2.288.097-2.96-1.783-3.018-2.58-.091-1.259.398-2.576 1.31-3.524 1.017-1.058 2.412-1.69 3.733-1.69.794 0 1.481.23 1.933.645.587.537.918 1.323.934 2.212.02 1.183-.528 2.412-1.502 3.369-1.044 1.026-2.217 1.568-3.39 1.568" fill="#0094d8" transform="matrix(4.16667 0 0 4.16667 893.73681772 71.21218076)"/><path d="m0 7.186c-2.136.09-2.763-1.665-2.816-2.409-.086-1.175.371-2.405 1.222-3.291.948-.987 2.252-1.576 3.486-1.576.741 0 1.381.214 1.804.601.547.502.857 1.236.871 2.066.019 1.104-.492 2.251-1.402 3.145-.975.957-2.069 1.464-3.165 1.464" fill="#0ec2f3" transform="matrix(4.16667 0 0 4.16667 895.15348552 74.21634983)"/><path d="m0-7.239c-1.247 0-2.567.599-3.533 1.603-.858.892-1.319 2.13-1.233 3.311.05.676.628 2.41 2.729 2.322h.012c1.098 0 2.203-.514 3.194-1.488.921-.904 1.437-2.059 1.419-3.165-.015-.812-.314-1.527-.843-2.013-.401-.368-1.021-.57-1.745-.57m-2.197 7.797c-2.387 0-3.066-2.037-3.124-2.842-.097-1.337.421-2.733 1.386-3.738 1.069-1.112 2.539-1.775 3.935-1.775.863 0 1.617.255 2.121.718.644.589 1.007 1.446 1.024 2.413.021 1.259-.556 2.561-1.585 3.573-1.096 1.076-2.334 1.646-3.58 1.647-.06.003-.12.004-.177.004" fill="#231f20" transform="matrix(4.16667 0 0 4.16667 902.17849114 102.1372055)"/><path d="m0 12.649c-1.269 0-2.509-.41-3.585-1.245-.463-.359-1.594-1.321-2.098-2.51-.06-.141.006-.305.148-.365.141-.06.306.006.365.147.466 1.098 1.592 2.029 1.926 2.288 2.302 1.785 5.444 1.415 7.82-.919 2.121-2.084 2.825-5.931.49-8.335-.4-.413-.513-.504-1.393-1.214l-.082-.067c-.12-.095-.139-.271-.042-.391.097-.119.271-.138.391-.042l.082.066c.884.713 1.02.822 1.445 1.26 1.076 1.108 1.664 2.704 1.613 4.379-.053 1.77-.804 3.454-2.114 4.741-1.485 1.459-3.251 2.207-4.966 2.207" fill="#231f20" transform="matrix(4.16667 0 0 4.16667 899.59098907 66.82467725)"/><path d="m0-12.76c.96.774 1.076.865 1.501 1.303 2.074 2.135 2.187 6.093-.495 8.728-2.61 2.564-5.881 2.729-8.186.941-.617-.479-1.578-1.377-2.011-2.399z" fill="#0094d8" transform="matrix(4.16667 0 0 4.16667 981.64105471 120.87472049)"/><path d="m-4.339-10.881c-2.891-.027-5.426 2.697-5.268 6.401.154 3.609 2.4 5.931 5.268 6.196 2.453.225 5.317-2.523 5.267-6.134-.051-3.61-2.605-6.438-5.267-6.463" fill="#0ec2f3" transform="matrix(-3.04416076866 -2.84503144269 -2.84503144269 3.04416076866 938.1701866 89.08719506)"/><path d="m0-10.282c-1.674 0-3.509.759-4.884 2.189-1.235 1.286-1.872 3.01-1.746 4.734.092 1.255.593 2.323 1.376 2.931 2.27 1.759 5.368 1.395 7.712-.908 1.282-1.259 2.002-2.908 1.974-4.521-.023-1.327-.536-2.517-1.445-3.35-.792-.725-1.852-1.075-2.987-1.075m-2.055 11.522c-1.253 0-2.477-.404-3.54-1.228-.908-.704-1.487-1.918-1.591-3.331-.136-1.88.556-3.761 1.901-5.159 2.512-2.614 6.472-3.135 8.649-1.139 1.023.938 1.599 2.27 1.625 3.75.031 1.766-.75 3.563-2.14 4.929-1.467 1.44-3.211 2.178-4.904 2.178" fill="#231f20" transform="matrix(4.16667 0 0 4.16667 969.10354468 107.52470981)"/><path d="m0 7.697c-2.287.097-2.959-1.783-3.018-2.58-.091-1.259.399-2.576 1.31-3.524 1.017-1.058 2.412-1.69 3.733-1.69.794 0 1.481.23 1.934.645.586.537.918 1.323.933 2.212.02 1.183-.527 2.412-1.502 3.369-1.044 1.026-2.216 1.568-3.39 1.568" fill="#0094d8" transform="matrix(4.16667 0 0 4.16667 960.09520414 71.21218076)"/><path d="m0 7.186c-2.136.09-2.763-1.665-2.817-2.409-.085-1.175.372-2.405 1.222-3.291.949-.987 2.252-1.576 3.486-1.576.741 0 1.381.214 1.804.601.548.502.858 1.236.871 2.066.02 1.104-.492 2.251-1.402 3.145-.975.957-2.069 1.464-3.164 1.464" fill="#0ec2f3" transform="matrix(4.16667 0 0 4.16667 961.51603861 74.21634983)"/><path d="m0-7.239c-1.247 0-2.567.599-3.532 1.603-.859.892-1.319 2.13-1.233 3.311.049.676.628 2.41 2.728 2.322h.012c1.098 0 2.204-.514 3.195-1.488.92-.904 1.437-2.059 1.418-3.165-.014-.812-.314-1.527-.843-2.013-.401-.368-1.02-.57-1.745-.57m-2.197 7.797c-2.387 0-3.065-2.037-3.123-2.842-.098-1.337.421-2.733 1.386-3.738 1.068-1.112 2.538-1.775 3.934-1.775.864 0 1.617.255 2.122.718.643.589 1.006 1.446 1.023 2.413.022 1.259-.556 2.561-1.585 3.573-1.096 1.076-2.333 1.646-3.58 1.647-.059.003-.119.004-.177.004" fill="#231f20" transform="matrix(4.16667 0 0 4.16667 968.53271089 102.1372055)"/><path d="m0 12.649c-1.27 0-2.51-.41-3.586-1.245-.463-.359-1.594-1.321-2.098-2.51-.059-.141.006-.305.149-.365.141-.06.305.006.364.147.466 1.098 1.592 2.029 1.927 2.288 2.301 1.785 5.443 1.415 7.819-.919 2.122-2.084 2.825-5.931.491-8.335-.401-.413-.513-.504-1.394-1.214l-.082-.067c-.12-.095-.139-.271-.042-.391.097-.119.272-.138.391-.042l.082.066c.884.713 1.021.822 1.445 1.26 1.076 1.108 1.665 2.704 1.614 4.379-.054 1.77-.805 3.454-2.114 4.741-1.485 1.459-3.252 2.207-4.966 2.207" fill="#231f20" transform="matrix(4.16667 0 0 4.16667 965.95354216 66.82467725)"/><path d="m0-12.759c.96.774 1.077.865 1.502 1.303 2.073 2.135 2.186 6.093-.496 8.727-2.61 2.565-5.88 2.729-8.186.942-.617-.479-1.578-1.377-2.011-2.399z" fill="#0094d8" transform="matrix(4.16667 0 0 4.16667 1009.29107683 58.66217072)"/><path d="m-4.338-10.88c-2.891-.028-5.427 2.696-5.269 6.402.154 3.608 2.401 5.93 5.269 6.195 2.452.225 5.316-2.524 5.265-6.134-.049-3.61-2.604-6.437-5.265-6.463" fill="#0ec2f3" transform="matrix(-3.04416076866 -2.84503144269 -2.84503144269 3.04416076866 965.82437539 26.87464529)"/><path d="m0-10.282c-1.673 0-3.509.759-4.884 2.189-1.235 1.286-1.871 3.01-1.746 4.734.092 1.255.594 2.323 1.376 2.931 2.27 1.759 5.368 1.395 7.712-.908 1.282-1.259 2.002-2.908 1.974-4.521-.023-1.327-.536-2.517-1.445-3.35-.791-.725-1.852-1.075-2.987-1.075m-2.055 11.522c-1.253 0-2.477-.404-3.54-1.229-.908-.703-1.487-1.917-1.591-3.33-.136-1.88.556-3.761 1.901-5.159 2.512-2.614 6.472-3.135 8.649-1.139 1.023.938 1.6 2.269 1.625 3.75.031 1.766-.75 3.563-2.14 4.929-1.466 1.44-3.21 2.178-4.904 2.178" fill="#231f20" transform="matrix(4.16667 0 0 4.16667 996.7535668 45.31216004)"/><path d="m0 7.697c-2.287.097-2.959-1.783-3.017-2.58-.091-1.259.398-2.576 1.309-3.525 1.017-1.057 2.413-1.689 3.733-1.689.794 0 1.481.229 1.934.644.587.538.918 1.324.934 2.213.02 1.183-.528 2.411-1.502 3.369-1.045 1.026-2.217 1.568-3.391 1.568" fill="#0094d8" transform="matrix(4.16667 0 0 4.16667 987.74522626 9.00379766)"/><path d="m0 7.186c-2.136.09-2.763-1.665-2.817-2.409-.085-1.175.372-2.405 1.222-3.291.949-.987 2.252-1.576 3.486-1.576.741 0 1.382.214 1.804.6.548.502.858 1.237.871 2.067.02 1.104-.491 2.251-1.401 3.144-.976.958-2.069 1.465-3.165 1.465" fill="#0ec2f3" transform="matrix(4.16667 0 0 4.16667 989.16606073 12.00796673)"/><g fill="#231f20"><path d="m0-7.239c-1.247 0-2.567.599-3.532 1.603-.858.892-1.319 2.13-1.233 3.311.05.676.628 2.41 2.728 2.322h.012c1.098 0 2.204-.514 3.195-1.489.921-.904 1.437-2.058 1.418-3.164-.014-.812-.313-1.527-.843-2.013-.401-.368-1.02-.57-1.745-.57m-2.197 7.797c-2.387 0-3.065-2.037-3.123-2.843-.098-1.336.421-2.733 1.386-3.737 1.068-1.112 2.538-1.775 3.934-1.775.864 0 1.617.255 2.122.717.644.59 1.007 1.447 1.024 2.414.021 1.259-.557 2.561-1.586 3.573-1.096 1.076-2.333 1.645-3.58 1.647-.059.003-.119.004-.177.004" transform="matrix(4.16667 0 0 4.16667 996.18273301 39.92465573)"/><path d="m0 12.65c-1.269 0-2.509-.41-3.586-1.245-.463-.359-1.593-1.321-2.097-2.51-.06-.141.006-.305.148-.365.141-.06.305.006.365.147.465 1.098 1.592 2.029 1.926 2.287 2.301 1.786 5.443 1.416 7.819-.918 2.122-2.085 2.825-5.931.491-8.335-.4-.414-.513-.504-1.394-1.214l-.082-.067c-.119-.096-.138-.271-.042-.391.097-.12.272-.139.391-.042l.082.066c.885.713 1.021.822 1.445 1.26 1.076 1.108 1.665 2.704 1.614 4.379-.054 1.77-.804 3.454-2.114 4.741-1.485 1.459-3.251 2.207-4.966 2.207" transform="matrix(4.16667 0 0 4.16667 993.60356428 4.60796081)"/></g></g></svg>