<svg clip-rule="evenodd" fill-rule="evenodd" stroke-linejoin="round" stroke-miterlimit="2" viewBox="0 0 118 120" xmlns="http://www.w3.org/2000/svg"><g fill-rule="nonzero"><path d="m0-26.646c2.004 1.616 2.248 1.808 3.136 2.721 4.33 4.46 4.565 12.725-1.035 18.227-5.451 5.355-12.282 5.698-17.095 1.965-1.29-1-3.297-2.876-4.201-5.01z" fill="#0094d8" transform="matrix(4.16667 0 0 4.16667 88.8562945 122.12541974)"/><path d="m-9.063-22.722c-6.035-.058-11.332 5.631-11.001 13.371.323 7.532 5.015 12.382 11.001 12.935 5.124.471 11.105-5.271 10.999-12.809-.108-7.54-5.44-13.445-10.999-13.497" fill="#0ec2f3" transform="matrix(-3.04430243544 -2.84488560924 -2.84488560924 3.04430243544 -1.92294479 55.7420333)"/><path d="m0-21.474c-3.495 0-7.328 1.585-10.2 4.572-2.579 2.684-3.908 6.286-3.646 9.885.191 2.622 1.239 4.853 2.873 6.12 4.741 3.676 11.212 2.914 16.106-1.893 2.678-2.632 4.18-6.074 4.122-9.444-.048-2.77-1.119-5.255-3.017-6.994-1.653-1.517-3.868-2.246-6.238-2.246m-4.291 24.063c-2.616 0-5.174-.844-7.395-2.566-1.895-1.471-3.105-4.005-3.32-6.955-.286-3.928 1.16-7.855 3.968-10.775 5.246-5.458 13.517-6.546 18.063-2.378 2.135 1.957 3.34 4.738 3.394 7.831.062 3.688-1.566 7.44-4.471 10.294-3.061 3.007-6.704 4.549-10.239 4.549" fill="#231f20" transform="matrix(4.16667 0 0 4.16667 62.67710689 94.25039744)"/><path d="m0 16.074c-4.777.202-6.18-3.724-6.301-5.39-.192-2.628.831-5.38 2.735-7.36 2.123-2.208 5.037-3.526 7.796-3.526 1.659 0 3.092.477 4.038 1.344 1.224 1.122 1.917 2.764 1.949 4.621.042 2.471-1.101 5.036-3.137 7.036-2.182 2.142-4.63 3.275-7.08 3.275" fill="#0094d8" transform="matrix(4.16667 0 0 4.16667 43.86042517 18.42117011)"/><path d="m0 15.007c-4.46.188-5.77-3.477-5.883-5.031-.179-2.454.777-5.023 2.554-6.872 1.981-2.062 4.702-3.292 7.278-3.292 1.548 0 2.887.446 3.77 1.255 1.143 1.048 1.789 2.581 1.819 4.315.04 2.306-1.027 4.7-2.929 6.567-2.036 2-4.321 3.058-6.609 3.058" fill="#0ec2f3" transform="matrix(4.16667 0 0 4.16667 46.82292754 24.69200846)"/><g fill="#231f20"><path d="m0-15.119c-2.604 0-5.362 1.251-7.378 3.348-1.791 1.863-2.754 4.449-2.573 6.915.102 1.412 1.311 5.034 5.696 4.85.008-.001.017-.001.025-.001 2.294 0 4.602-1.075 6.671-3.108 1.923-1.889 3.003-4.298 2.963-6.609-.029-1.698-.654-3.19-1.759-4.204-.839-.768-2.133-1.191-3.645-1.191m-4.589 16.283c-4.984 0-6.4-4.253-6.523-5.935-.203-2.79.88-5.709 2.896-7.807 2.23-2.32 5.301-3.705 8.216-3.705 1.804 0 3.377.532 4.431 1.498 1.343 1.231 2.101 3.021 2.136 5.04.046 2.629-1.161 5.349-3.31 7.46-2.288 2.248-4.873 3.438-7.475 3.442-.126.005-.25.007-.371.007" transform="matrix(4.16667 0 0 4.16667 61.48960594 83.00038844)"/><path d="m0 26.417c-2.65 0-5.24-.855-7.488-2.599-.967-.75-3.328-2.761-4.38-5.242-.126-.296.012-.638.307-.763.296-.125.638.013.763.309.973 2.291 3.324 4.235 4.023 4.776 4.805 3.728 11.369 2.956 16.331-1.92 4.43-4.353 5.9-12.386 1.024-17.407-.837-.861-1.072-1.051-2.911-2.535l-.171-.138c-.251-.202-.29-.568-.088-.818s.569-.289.818-.087l.171.138c1.846 1.489 2.13 1.718 3.016 2.63 2.248 2.315 3.477 5.648 3.371 9.145-.111 3.698-1.68 7.214-4.415 9.902-3.1 3.047-6.791 4.609-10.371 4.609" transform="matrix(4.16667 0 0 4.16667 56.09793496 9.244912769)"/></g></g></svg>