<svg clip-rule="evenodd" fill-rule="evenodd" stroke-linejoin="round" stroke-miterlimit="2" viewBox="0 0 118 120" xmlns="http://www.w3.org/2000/svg"><g fill-rule="nonzero"><path d="m0-26.646c2.004 1.616 2.248 1.808 3.135 2.721 4.331 4.46 4.566 12.725-1.034 18.227-5.451 5.355-12.282 5.698-17.096 1.965-1.289-1-3.296-2.876-4.201-5.009z" fill="#00a750" transform="matrix(4.16667 0 0 4.16667 88.85682785 122.13208318)"/><path d="m-9.063-22.723c-6.036-.057-11.333 5.632-11.002 13.372.323 7.532 5.016 12.383 11.002 12.934 5.124.472 11.105-5.27 10.998-12.809-.107-7.538-5.439-13.444-10.998-13.497" fill="#77c043" transform="matrix(-3.04430243544 -2.84488560924 -2.84488560924 3.04430243544 -1.92657811 55.74869674)"/><path d="m0-21.474c-3.494 0-7.327 1.585-10.199 4.572-2.579 2.684-3.908 6.286-3.646 9.886.191 2.621 1.239 4.852 2.873 6.119 4.74 3.676 11.211 2.914 16.106-1.893 2.678-2.631 4.179-6.074 4.122-9.444-.048-2.77-1.119-5.255-3.017-6.994-1.653-1.517-3.868-2.246-6.239-2.246m-4.29 24.063c-2.617 0-5.175-.844-7.395-2.566-1.895-1.471-3.105-4.005-3.321-6.955-.286-3.927 1.16-7.855 3.968-10.775 5.247-5.458 13.518-6.546 18.063-2.378 2.136 1.957 3.341 4.739 3.394 7.831.063 3.688-1.565 7.44-4.471 10.294-3.061 3.007-6.704 4.549-10.238 4.549" fill="#231f20" transform="matrix(4.16667 0 0 4.16667 62.67347357 94.26122755)"/><path d="m0 16.074c-4.777.202-6.181-3.724-6.302-5.39-.191-2.628.831-5.38 2.736-7.36 2.122-2.208 5.037-3.526 7.796-3.526 1.658 0 3.092.477 4.038 1.344 1.224 1.122 1.917 2.764 1.948 4.621.043 2.471-1.101 5.036-3.137 7.036-2.181 2.142-4.629 3.275-7.079 3.275" fill="#00a750" transform="matrix(4.16667 0 0 4.16667 43.86095852 18.42783355)"/><path d="m0 15.007c-4.46.188-5.77-3.477-5.883-5.031-.179-2.454.776-5.023 2.553-6.872 1.981-2.062 4.703-3.292 7.279-3.292 1.548 0 2.887.446 3.77 1.255 1.142 1.048 1.789 2.581 1.818 4.315.04 2.307-1.027 4.7-2.928 6.567-2.036 2-4.322 3.058-6.609 3.058" fill="#77c043" transform="matrix(4.16667 0 0 4.16667 46.82346089 24.6986719)"/><g fill="#231f20"><path d="m0-15.119c-2.604 0-5.361 1.251-7.377 3.348-1.791 1.863-2.754 4.449-2.574 6.915.103 1.412 1.311 5.034 5.697 4.85.008-.001.016-.001.025-.001 2.293 0 4.601-1.075 6.671-3.108 1.923-1.889 3.002-4.298 2.962-6.609-.028-1.698-.653-3.19-1.759-4.204-.838-.768-2.132-1.191-3.645-1.191m-4.589 16.283c-4.984 0-6.4-4.253-6.522-5.935-.203-2.79.879-5.709 2.895-7.807 2.231-2.32 5.302-3.705 8.216-3.705 1.805 0 3.378.532 4.431 1.498 1.343 1.231 2.102 3.021 2.137 5.04.045 2.63-1.161 5.349-3.31 7.46-2.289 2.248-4.873 3.438-7.475 3.442-.126.005-.25.007-.372.007" transform="matrix(4.16667 0 0 4.16667 61.48597262 83.00705188)"/><path d="m0 26.417c-2.65 0-5.24-.855-7.489-2.599-.966-.75-3.327-2.761-4.38-5.242-.125-.296.013-.638.308-.763.296-.125.638.013.763.309.972 2.291 3.324 4.235 4.022 4.776 4.806 3.728 11.369 2.956 16.332-1.92 4.43-4.353 5.899-12.386 1.024-17.407-.837-.861-1.073-1.051-2.912-2.535l-.171-.138c-.25-.201-.289-.567-.088-.818.202-.25.569-.289.819-.087l.17.138c1.847 1.489 2.13 1.718 3.017 2.63 2.247 2.315 3.477 5.648 3.371 9.145-.112 3.698-1.68 7.214-4.416 9.903-3.1 3.046-6.79 4.608-10.37 4.608" transform="matrix(4.16667 0 0 4.16667 56.09846831 9.251992876)"/></g></g></svg>