<svg clip-rule="evenodd" fill-rule="evenodd" stroke-linejoin="round" stroke-miterlimit="2" viewBox="0 0 73 33" xmlns="http://www.w3.org/2000/svg" xmlns:xlink="http://www.w3.org/1999/xlink"><linearGradient id="a"><stop offset="0" stop-color="#9fddf9"/><stop offset="1" stop-color="#507593"/></linearGradient><linearGradient id="b" gradientTransform="matrix(0 -7.10065 7.10065 0 57.6739 86.1258)" gradientUnits="userSpaceOnUse" x1="0" x2="1" xlink:href="#a" y1="0" y2="0"/><linearGradient id="c" gradientTransform="matrix(0 -5.95891 5.95891 0 73.4076 85.3568)" gradientUnits="userSpaceOnUse" x1="0" x2="1" xlink:href="#a" y1="0" y2="0"/><g fill-rule="nonzero" transform="translate(-23 -75)"><path d="m91.339 91.569c-.107.656.042 1.227.639 1.604.333.211.67.419 1.022.597.226.114.482.169.844.291-.059-1.542.166-2.994-.312-4.409-1.158.17-2.033.937-2.193 1.917m-60.217 6.521c.334-.287.563-.788.664-1.232.169-.738-.251-1.128-1.027-1.074-.869.061-1.737.134-2.624.203-.866.967-.166 1.954-.089 2.987 1.219.192 2.23-.156 3.076-.884m61.616-14.572c-1.585.293-3.162.628-4.746.924-.427.08-.87.068-1.302.121-.872.106-1.083.382-1.081 1.521.513-.033 1.02-.058 1.525-.098 1.609-.129 3.218-.266 4.828-.396.304-.024.614-.012.916-.054 1.32-.186 1.528-.552 1.104-2.089-.396.02-.83-.005-1.244.071m-.996 3.989c-1.387-.188-2.784-.318-4.18-.44-.516-.045-1.041.012-1.56-.007-.255-.009-.55-.014-.753-.14-.929-.58-1.878-1.144-2.736-1.82-2.582-2.038-4.904-4.409-7.737-6.127-1.764-1.071-3.549-2.162-5.639-2.451-1.386-.192-2.804-.322-4.198-.257-2.185.104-4.394.233-6.535.651-2.441.476-4.858 1.169-7.204 1.999-.974.346-1.819 1.211-2.576 1.984-1.287 1.313-2.779 2.444-3.715 4.089-.179.316-.626.471-.918.735-.482.437-.976.869-1.394 1.364-.553.653-1.208 1.123-1.994 1.45-.927.385-1.897.696-2.652 1.413-.123.117-.297.199-.462.248-1.337.405-2.691.759-4.012 1.207-.74.251-1.496.557-2.127 1.005-1.048.745-2 1.625-2.919 2.711.711-.033 1.432.002 2.13-.111 1.689-.272 2.562.752 1.983 2.643-.258.844-.896 1.438-1.717 1.722-1.158.4-2.352.699-3.53 1.042-.295.086-.597.152-.885.259-1.103.411-1.341.782-1.365 2.187.291.095.611.282.934.289 1.534.03 3.068.041 4.601.003 1.752-.043 3.504-.125 5.255-.224 2.054-.117 4.105-.283 6.159-.4.834-.047 1.677.035 2.508-.036 3.095-.266 6.197-.195 9.297-.275 3.244-.083 6.487-.227 9.73-.333 1.828-.06 3.655-.135 5.483-.136 1.518-.002 3.036.114 4.555.135.476.007.952-.171 1.431-.186 2.937-.093 5.875-.168 8.813-.242 2.445-.062 4.889-.143 7.317-.496.519-.076 1.055-.032 1.583-.048.403-.012.678-.199.728-.615.205-1.69.4-3.382.611-5.177-.629-.305-1.169-.576-1.716-.831-2.561-1.188-2.135-3.356-.583-4.753.386-.349.855-.607 1.29-.91-.129-.732-.674-1.036-1.301-1.121m-5.467-3.711c2.312-.493 4.642-.896 6.969-1.315 1.205-.218 2.061.509 2.08 1.733.007.396.01.793-.019 1.188-.063.864-.39 1.114-1.278 1.075-.629-.028-1.26-.005-1.89-.005 1.462.454 2.339 1.425 2.553 2.905.182 1.256.326 2.533.319 3.8-.012 1.973-.162 3.945-.262 5.917-.026.518-.153 1.041-.108 1.551.087.987-.201 1.373-1.173 1.369-.702-.003-1.406-.062-2.106-.031-3.508.153-7.015.347-10.523.489-2.984.121-5.97.2-8.955.281-2.231.061-4.455-.158-6.697-.034-3.724.205-7.459.193-11.189.294-2.235.06-4.466.168-6.699.24-1.275.04-2.553.011-3.826.081-2.488.137-4.971.349-7.46.48-2.544.133-5.092.207-7.639.31-.175.006-.349.034-.524.049-.829.063-1.659.175-2.489.175-1.04 0-1.702-.741-1.683-1.768.024-1.277.905-2.537 2.116-3.028 1.132-.459 1.154-.512 1.077-1.739-.073-1.163.035-2.325.761-3.269 1.372-1.787 3.23-2.964 5.284-3.81 1.822-.75 3.666-1.461 5.539-2.071 2.234-.728 3.805-2.292 5.317-3.948 1.21-1.326 2.359-2.706 3.551-4.047.319-.358.833-.596 1.027-1 .623-1.305 1.861-1.787 3.039-2.073 2.319-.562 4.497-1.665 6.955-1.713 1.307-.024 2.604-.421 3.911-.453 2.054-.05 4.116.009 6.167.135.994.061 2.044.214 2.946.608 2.989 1.305 5.714 3.071 8.215 5.167 1.439 1.208 2.836 2.466 4.466 3.888.499-1.032 1.391-1.253 2.228-1.431" fill="#231f20"/><path d="m79 86.072c.337-1.012-.019-1.742-.702-2.279-1.682-1.324-3.409-2.588-5.116-3.881-1.105-.837-2.391-1.289-3.699-1.654-1.18-.331-2.127.458-1.883 1.614.414 1.963.962 3.898 1.461 5.843.03.119.125.222.204.357zm-12.771-.164c.421-.893.332-1.721.195-2.535-.217-1.295-.497-2.578-.724-3.871-.206-1.176-.664-1.588-1.85-1.511-.523.034-1.039.162-1.557.26-2.623.497-5.235 1.062-7.872 1.468-1.056.163-2.071.344-3.024.823-.231.116-.486.229-.661.41-.51.528-.895 1.364-1.5 1.566-.706.236-1.199.685-1.77 1.047-.623.395-1.241.861-1.713 1.42-1.3 1.542-.702 3.242 1.281 3.664.721.153 1.487.174 2.227.139 1.015-.049 1.132-.236 1.16-1.318.005-.17.03-.34.058-.651 5.245-.583 10.489-.924 15.75-.911m25.524 3.629c-1.552 1.398-1.979 3.565.583 4.754.548.254 1.088.526 1.717.831-.211 1.795-.406 3.487-.611 5.178-.05.415-.325.603-.728.615-.528.015-1.066-.028-1.584.047-2.428.354-4.872.435-7.318.497-2.937.074-5.874.148-8.811.242-.479.015-.955.193-1.431.186-1.519-.021-3.037-.137-4.555-.136-1.828.002-3.657.076-5.484.136-3.243.107-6.486.25-9.73.334-3.099.08-6.201.008-9.296.274-.831.072-1.674-.011-2.508.036-2.055.117-4.106.284-6.161.4-1.75.1-3.502.182-5.255.225-1.532.037-3.066.027-4.6-.004-.322-.006-.642-.194-.933-.288.024-1.405.262-1.776 1.365-2.187.287-.107.589-.174.884-.26 1.178-.342 2.371-.641 3.53-1.041.82-.284 1.459-.879 1.717-1.723.579-1.891-.295-2.915-1.983-2.643-.698.112-1.419.078-2.13.11.919-1.085 1.871-1.965 2.919-2.71.63-.448 1.387-.754 2.127-1.005 1.321-.448 2.675-.803 4.012-1.207.165-.05.339-.132.462-.249.755-.716 1.725-1.027 2.652-1.413.787-.326 1.441-.796 1.995-1.449.418-.495.912-.928 1.394-1.364.292-.265.738-.419.918-.735.936-1.645 2.428-2.777 3.715-4.09.757-.772 1.602-1.637 2.576-1.982 2.345-.831 4.762-1.523 7.203-2 2.14-.418 4.349-.547 6.535-.65 1.394-.066 2.812.064 4.199.256 2.09.289 3.875 1.381 5.639 2.451 2.832 1.717 5.154 4.089 7.736 6.126.858.677 1.807 1.24 2.736 1.82.203.127.498.132.752.141.52.018 1.044-.038 1.561.007 1.396.122 2.792.251 4.18.439.628.086 1.173.389 1.302 1.121-.436.303-.904.562-1.291.91" fill="#a1cd3a"/><path d="m93.982 83.447c-.396.02-.83-.005-1.244.071-1.585.293-3.162.628-4.746.924-.427.08-.87.068-1.302.121-.872.106-1.083.383-1.082 1.521.514-.033 1.02-.058 1.526-.098 1.609-.129 3.218-.266 4.827-.396.305-.024.615-.012.917-.054 1.32-.186 1.528-.552 1.104-2.089" fill="#a1cd3a"/><path d="m28.045 98.975c1.219.191 2.23-.156 3.076-.884.334-.287.563-.788.664-1.232.169-.738-.251-1.129-1.027-1.074-.869.061-1.737.133-2.624.203-.866.967-.166 1.954-.089 2.987" fill="#ece6bc"/><path d="m93.532 89.652c-1.158.171-2.033.937-2.193 1.917-.107.657.043 1.227.639 1.604.333.212.67.42 1.022.597.226.114.482.17.844.291-.059-1.542.166-2.993-.312-4.409" fill="#f05222"/><path d="m49.058 85.235c-.321-1.051-.875-1.231-1.778-.618-.427.29-.849.652-1.132 1.075-.599.895-.104 2.042.961 2.225.803.138 1.638.271 2.492-.105-.18-.883-.291-1.751-.543-2.577m2.802.81c1.826-.594 3.706-.593 5.586-.701 2.451-.141 4.899-.35 7.347-.536.773-.058.966-.292.787-.993-.282-1.106-.569-2.211-.901-3.302-.348-1.141-.675-1.787-2.305-1.351-1 .268-2.08.248-3.126.327-1.102.083-2.167.289-3.188.737-.396.174-.84.303-1.27.325-2.121.112-3.539 1.392-4.84 2.864-.157.177-.267.487-.241.717.074.643.231 1.274.36 1.938.673 0 1.281.14 1.791-.025m-1.44 1.425c-.028 1.082-.145 1.269-1.16 1.318-.74.035-1.506.014-2.227-.139-1.983-.422-2.581-2.122-1.281-3.664.472-.56 1.09-1.025 1.713-1.42.571-.362 1.064-.811 1.77-1.047.605-.202.99-1.038 1.5-1.566.175-.181.429-.294.661-.41.953-.479 1.968-.661 3.024-.823 2.637-.406 5.249-.971 7.873-1.468.517-.098 1.034-.226 1.557-.26 1.186-.077 1.644.335 1.85 1.511.227 1.293.505 2.576.723 3.871.136.814.226 1.642-.195 2.535-5.261-.013-10.505.327-15.75.91-.028.312-.053.482-.058.652" fill="#231f20"/><path d="m71.648 80.038c-.527-.295-1.128-.526-1.722-.617-.783-.12-1.512.225-1.158 1.296.37 1.122.57 2.301.851 3.453.232.95.473 1.172 1.442 1.18 1.802.013 3.606.009 5.407-.032.504-.011 1.004-.178 1.672-.305-2.177-1.864-4.149-3.664-6.492-4.975m-2.588 5.677c-.499-1.945-1.047-3.88-1.46-5.843-.244-1.156.702-1.944 1.883-1.614 1.307.365 2.593.817 3.699 1.655 1.706 1.292 3.434 2.557 5.116 3.88.683.537 1.039 1.267.702 2.279h-9.735c-.079-.135-.175-.238-.205-.357" fill="#231f20"/><path d="m62.375 79.162c-1 .268-2.08.248-3.126.328-1.103.083-2.167.289-3.188.737-.397.173-.841.302-1.27.326-2.121.11-3.54 1.392-4.84 2.863-.158.178-.268.486-.241.718.073.641.23 1.272.36 1.937.672 0 1.28.14 1.791-.027 1.826-.593 3.706-.591 5.586-.699 2.452-.14 4.899-.35 7.347-.535.773-.059.964-.293.785-.994-.28-1.106-.567-2.211-.901-3.302-.273-.897-.534-1.489-1.423-1.489-.243 0-.533.044-.88.137z" fill="url(#b)"/><path d="m49.602 87.812c-.181-.883-.292-1.751-.543-2.577-.322-1.051-.875-1.231-1.778-.617-.427.29-.849.651-1.133 1.074-.598.895-.103 2.042.961 2.225.804.138 1.639.271 2.493-.105" fill="#a1cd3a"/><path d="m68.766 80.717c.371 1.123.572 2.302.853 3.454.232.949.472 1.171 1.441 1.179 1.803.014 3.607.01 5.408-.031.504-.013 1.003-.178 1.672-.305-2.176-1.864-4.149-3.665-6.493-4.975-.526-.296-1.128-.528-1.721-.619-.098-.015-.195-.021-.288-.021-.66 0-1.18.381-.872 1.318z" fill="url(#c)"/><path d="m84.259 93.715c-3.541.01-6.251 2.766-6.209 6.312.041 3.379 2.913 6.161 6.319 6.122 3.449-.041 6.129-2.8 6.114-6.293-.015-3.504-2.699-6.151-6.224-6.141m.045 13.315c-3.911.008-7.06-3.11-7.081-7.009-.02-3.88 3.125-7.04 7.033-7.066 3.897-.026 7.044 3.108 7.05 7.021.008 3.947-3.069 7.046-7.002 7.054" fill="#231f20"/><path d="m88.059 99.816c.026-2.069-1.736-3.864-3.84-3.91-2.087-.045-3.855 1.714-3.867 3.848-.013 2.191 1.627 3.857 3.805 3.865 2.151.008 3.875-1.673 3.902-3.803m-3.69 6.333c-3.406.039-6.278-2.742-6.319-6.121-.042-3.546 2.668-6.302 6.209-6.312 3.526-.01 6.209 2.637 6.224 6.141.015 3.493-2.665 6.252-6.114 6.292" fill="#645745"/><path d="m84.233 102.655c1.556.025 2.962-1.343 2.993-2.912.031-1.573-1.326-2.986-2.884-3.003-1.618-.018-2.922 1.269-2.944 2.902-.021 1.652 1.234 2.986 2.835 3.013m-3.881-2.902c.012-2.134 1.78-3.893 3.867-3.848 2.104.046 3.867 1.841 3.84 3.91-.027 2.131-1.751 3.811-3.902 3.803-2.177-.008-3.818-1.674-3.805-3.865" fill="#231f20"/><path d="m81.398 99.643c-.021 1.651 1.234 2.986 2.835 3.013 1.556.025 2.962-1.343 2.993-2.912.031-1.574-1.326-2.987-2.884-3.003-1.618-.018-2.923 1.268-2.944 2.902" fill="#c9cacc"/><path d="m85.063 98.163c-.757-.336-1.646-.28-2.427-.004.167-.587.843-.883 1.452-.908.887-.034 1.798.374 2.292 1.111.494.736.509 1.787-.031 2.49.238-.31.004-1.199-.126-1.515-.214-.52-.648-.947-1.16-1.174" fill="#fff"/><path d="m87.724 95.295c-.312-.246-.65-.461-1.013-.625-.59-.266-1.232-.392-1.874-.47-1.112-.135-2.347-.098-3.201.627.901-.38 1.931-.297 2.885-.08 1.762.401 3.502 1.314 4.42 2.87.896 1.521.848 3.399.247 5.013.347-.609.651-1.008.75-1.729.096-.693.064-1.402-.079-2.087-.287-1.368-1.031-2.651-2.135-3.519" fill="#c99f7b" opacity=".31"/><path d="m83.742 104.34c-1.462-.101-2.924-.795-3.731-2.018-.808-1.223-.824-2.985.138-4.089-.524 1.666-.016 3.64 1.325 4.759 1.342 1.119 3.458 1.239 4.852.188-.4.275-.547.72-1.038.937-.478.212-1.03.259-1.546.223" fill="#c99f7b" opacity=".31"/><path d="m40.698 94.576c-3.541.01-6.251 2.766-6.209 6.312.041 3.379 2.913 6.16 6.319 6.121 3.449-.04 6.129-2.799 6.114-6.292-.015-3.504-2.698-6.151-6.224-6.141m.045 13.315c-3.911.008-7.06-3.11-7.081-7.009-.02-3.88 3.125-7.04 7.033-7.066 3.897-.026 7.044 3.108 7.051 7.021.007 3.947-3.07 7.046-7.003 7.054" fill="#231f20"/><path d="m44.498 100.676c.026-2.07-1.736-3.865-3.84-3.911-2.087-.045-3.855 1.714-3.867 3.848-.013 2.191 1.627 3.857 3.805 3.865 2.151.008 3.875-1.672 3.902-3.802m-3.69 6.333c-3.406.039-6.278-2.743-6.319-6.121-.042-3.546 2.668-6.302 6.209-6.313 3.526-.01 6.209 2.638 6.224 6.141.015 3.494-2.665 6.252-6.114 6.293" fill="#645745"/><path d="m40.672 103.516c1.556.025 2.962-1.343 2.993-2.912.031-1.573-1.326-2.986-2.884-3.003-1.618-.018-2.922 1.269-2.944 2.902-.021 1.652 1.234 2.986 2.835 3.013m-3.881-2.902c.012-2.134 1.78-3.893 3.867-3.848 2.104.046 3.867 1.841 3.84 3.911-.027 2.13-1.751 3.81-3.902 3.802-2.177-.008-3.818-1.674-3.805-3.865" fill="#231f20"/><path d="m37.837 100.503c-.021 1.652 1.234 2.986 2.835 3.013 1.556.025 2.962-1.343 2.993-2.912.031-1.574-1.326-2.987-2.884-3.003-1.618-.018-2.923 1.268-2.944 2.902" fill="#c9cacc"/><path d="m41.503 99.024c-.757-.336-1.646-.28-2.427-.004.167-.587.843-.883 1.452-.908.887-.034 1.798.374 2.292 1.111.494.736.509 1.787-.031 2.49.238-.31.004-1.199-.126-1.515-.214-.52-.648-.947-1.16-1.174" fill="#fff"/><path d="m44.163 96.155c-.312-.246-.65-.46-1.013-.625-.589-.266-1.232-.392-1.874-.47-1.112-.135-2.347-.097-3.201.627.901-.38 1.931-.297 2.885-.08 1.762.401 3.503 1.314 4.42 2.87.896 1.521.848 3.399.247 5.013.347-.609.651-1.008.75-1.729.096-.693.064-1.402-.079-2.086-.287-1.369-1.031-2.652-2.135-3.52" fill="#c99f7b" opacity=".31"/><path d="m40.181 105.201c-1.462-.101-2.924-.795-3.731-2.018-.808-1.223-.824-2.985.138-4.089-.524 1.666-.015 3.641 1.325 4.759 1.342 1.119 3.458 1.239 4.852.188-.4.275-.547.72-1.038.937-.478.212-1.03.259-1.546.223" fill="#c99f7b" opacity=".31"/><path d="m57.393 99.41h9.956c3.298 0 5.996-2.697 5.996-5.994s-2.698-5.996-5.996-5.996h-9.956c-3.297 0-5.995 2.699-5.995 5.996s2.698 5.994 5.995 5.994" fill="#fff" opacity=".5"/><g fill="#231f20"><path d="m57.235 97.827h-.943v-.316c0-.506.074-1.019.221-1.541.147-.521.528-1.236 1.141-2.147.614-.91 1.131-1.655 1.553-2.236l.165-.23h-4.023v-.799h4.901v.799c-.071.109-.11.169-.119.178l-.673.903c-.418.568-.85 1.259-1.296 2.075-.446.815-.712 1.433-.798 1.853s-.129.786-.129 1.098z"/><path d="m66.791 93.955c-.211.277-.421.485-.63.624-.209.138-.417.242-.624.31-.206.068-.428.102-.666.102-.624 0-1.124-.223-1.5-.67-.376-.446-.564-.983-.564-1.612 0-.449.097-.853.293-1.214s.467-.643.815-.848c.347-.204.727-.306 1.141-.306.479 0 .929.142 1.349.425.42.284.737.709.953 1.276.215.568.323 1.269.323 2.105 0 1.187-.244 2.133-.732 2.839s-1.185 1.059-2.091 1.059c-.62 0-1.086-.135-1.398-.406-.313-.27-.469-.579-.469-.926v-.047h.871v.047c0 .145.081.282.244.412s.409.194.739.194c.387 0 .724-.115 1.012-.346s.517-.609.686-1.134c.17-.526.254-1.068.254-1.626zm-1.742-2.889c-.374 0-.689.16-.946.478-.258.319-.386.716-.386 1.191 0 .471.135.843.406 1.118.27.275.599.412.986.412.426 0 .774-.157 1.042-.471.268-.315.402-.69.402-1.125 0-.281-.066-.552-.198-.811-.132-.26-.314-.456-.547-.591-.233-.134-.486-.201-.759-.201z"/></g></g></svg>