<svg clip-rule="evenodd" fill-rule="evenodd" stroke-linejoin="round" stroke-miterlimit="2" viewBox="0 0 67 44" xmlns="http://www.w3.org/2000/svg" xmlns:xlink="http://www.w3.org/1999/xlink"><linearGradient id="a" gradientTransform="matrix(0 -6.332 6.332 0 132.275 86.3779)" gradientUnits="userSpaceOnUse" x1="0" x2="1" y1="0" y2="0"><stop offset="0" stop-color="#9fddf9"/><stop offset="1" stop-color="#507593"/></linearGradient><g fill-rule="nonzero" transform="translate(-113 -66)"><path d="m177.429 100.658c.208-.699.405-1.411.498-2.132.061-.476-.155-.868-.879-.677-.107.972-.218 1.974-.348 3.15.385-.172.691-.216.729-.341m-50.614-17.085c.068 1.415.131 2.722.193 4.028.052 1.084.135 1.143 1.53.972-.19-1.749-.381-3.5-.588-5.399-.434.152-.777.273-1.135.399m-11.227 10.999c-1.023 1.822-1.35 3.676-1.171 5.761h1.415c.566-3.851.541-4.627-.244-5.761m15.968-8.212c.66.007 1.321.027 1.98.012.84-.019.981-.123 1.112-.967.268-1.726.498-3.456.742-5.172-3.301-1.036-7.054 2.41-6.072 6.1.768.009 1.503.019 2.238.027m7.046 13.585c-.172-2.051-.483-4.094-.569-6.146-.132-3.191-.097-6.389-.184-9.582-.061-2.28-.206-4.557-.313-6.814-3.059-1.288-7.912.613-10.238 4.914.434.083.833.159 1.279.244.147-.255.313-.463.395-.699.448-1.298 1.428-2.005 2.694-2.268 1.06-.221 2.033-.804 3.198-.636 1.12.16 1.39.332 1.379 1.464-.006.612-.085 1.225-.158 1.833-.128 1.046-.258 2.091-.424 3.131-.103.643-.275 1.275-.42 1.926-1.097-.06-2.091-.144-3.086-.162-.956-.018-1.914.029-2.934.05.053.411.101.666.115.924.059 1.076-.199 1.357-1.246 1.377-1.443.027-1.808-.311-1.834-1.749-.019-1.007-.004-2.013-.004-3.02-.085-.015-.17-.031-.255-.046-.099.204-.237.399-.291.615-.119.468-.24.942-.282 1.42-.148 1.676-1.203 2.575-2.709 2.77-2.857.37-4.606 2.312-6.541 4.19 1.126 1.558.777 3.282.693 4.973-.013.262-.087.521-.109.782-.129 1.489-.191 1.557-1.691 1.827-.127.023-.248.072-.364.106-.329 1.267-.06 1.652 1.149 1.65 3.871-.006 7.743.029 11.614-.039 2.102-.037 4.201-.264 6.303-.383 1.142-.064 2.286-.075 3.429-.119.426-.016.851-.058 1.413-.097 0-.953.052-1.7-.009-2.436m3.332 2.1c2.757-.122 5.515-.326 8.271-.299 3.026.031 6.048-.133 9.074-.066 1.701.039 3.407-.217 5.111-.23 2.009-.015 4.018.131 6.027.126 1.177-.002 2.358-.12 3.528-.263 1.091-.134 1.713-.833 1.86-1.909.232-1.693.434-3.391.638-5.087.331-2.74.724-5.475.956-8.225.162-1.924.06-3.87.15-5.803.088-1.925.279-3.846.407-5.771.144-2.169.406-2.894-2.146-3.605-2.57-.717-5.157-1.419-7.778-1.902-2.794-.516-5.638-.759-8.457-1.135-5.203-.694-10.434-.57-15.659-.485-1.388.023-2.777.326-4.155.561-.636.109-1.139.453-1.176 1.219-.039.83-.24 1.672-.149 2.484.16 1.441.214 2.86.078 4.31-.086.902.145 1.829.168 2.747.099 4.124.191 8.251.255 12.376.043 2.749.258 5.477.698 8.194.152.939.102 1.911.149 2.985.778-.083 1.462-.192 2.15-.222m35.837-5.16c1.073.443 1.325.824 1.339 1.99.011.909-.18 1.756-.793 2.453-.7.796-1.776.894-2.653.958-2.352.171-4.725.067-7.089.055-1.175-.006-2.35-.083-3.524-.065-.83.014-1.656.183-2.485.197-2.2.038-4.402-.016-6.6.047-4.521.128-9.041.284-13.559.476-3.468.146-6.931.404-10.399.54-3.545.14-7.094.19-10.642.281-2.369.06-4.739.117-7.107.19-.598.018-.977-.283-.982-.921-.012-1.628-.001-3.256.015-4.884.005-.438-.045-.917.111-1.305.634-1.584 1.117-3.26 2.388-4.508.438-.43.917-.819 1.338-1.264 1.259-1.33 2.882-1.979 4.597-2.389 1.473-.352 2.071-.864 2.409-2.386.124-.555.183-1.151.432-1.649 1.372-2.74 3.17-5.151 5.672-6.976.314-.228.677-.42 1.046-.535 1.382-.43 2.762-.86 4.237-.89.594-.012 1.186-.196 1.78-.302.027-.437.063-.741.061-1.045-.019-1.803-.07-3.606-.065-5.409.005-1.633.419-2.247 2.053-2.535 1.592-.281 3.225-.394 4.843-.434 2.859-.069 5.722-.031 8.583-.026 1.056.003 2.122-.039 3.167.078 3.31.374 6.612.822 9.92 1.226 3.405.415 6.74 1.154 10.012 2.177.628.196 1.221.5 1.849.698 1.359.43 1.534.647 1.315 2.066-.294 1.91-.477 3.821-.535 5.759-.101 3.372-.315 6.741-.528 10.11-.086 1.353-.314 2.697-.444 4.048-.125 1.303-.207 2.611-.308 3.92.236.11.388.189.546.254" fill="#231f20"/><path d="m139.783 102.267c.778-.083 1.462-.191 2.15-.222 2.757-.122 5.516-.326 8.271-.299 3.027.031 6.049-.133 9.075-.065 1.701.038 3.407-.218 5.111-.231 2.008-.015 4.018.131 6.026.127 1.177-.003 2.358-.121 3.528-.264 1.091-.133 1.713-.833 1.861-1.909.231-1.693.433-3.39.637-5.087.331-2.74.724-5.475.956-8.225.162-1.924.06-3.87.15-5.803.089-1.925.279-3.846.407-5.771.144-2.169.406-2.894-2.146-3.605-2.57-.717-5.157-1.418-7.778-1.902-2.794-.516-5.637-.759-8.456-1.135-5.203-.694-10.435-.57-15.66-.485-1.388.023-2.777.326-4.155.562-.636.108-1.139.452-1.175 1.218-.039.83-.239 1.672-.149 2.484.16 1.441.214 2.861.077 4.31-.085.902.146 1.829.168 2.747.101 4.124.191 8.25.255 12.376.043 2.749.258 5.477.698 8.194.152.939.102 1.911.149 2.985" fill="#fff574"/><path d="m138.611 102.381c0-.953.052-1.699-.01-2.436-.171-2.05-.482-4.093-.567-6.146-.132-3.19-.097-6.389-.184-9.582-.062-2.279-.207-4.556-.314-6.814-3.058-1.287-7.911.614-10.238 4.915.434.083.833.159 1.28.244.147-.256.313-.463.394-.7.448-1.298 1.429-2.005 2.694-2.268 1.06-.221 2.033-.803 3.198-.636 1.121.161 1.39.333 1.379 1.464-.006.612-.084 1.225-.158 1.833-.127 1.046-.258 2.092-.424 3.131-.103.643-.275 1.274-.419 1.926-1.097-.061-2.091-.143-3.087-.162-.956-.019-1.913.03-2.933.05.052.411.1.666.115.923.059 1.078-.199 1.359-1.247 1.378-1.442.027-1.808-.31-1.834-1.75-.019-1.006-.003-2.012-.003-3.018-.085-.016-.17-.031-.255-.047-.1.205-.238.4-.293.615-.119.468-.24.942-.282 1.42-.147 1.676-1.202 2.576-2.709 2.769-2.857.371-4.605 2.313-6.541 4.192 1.126 1.557.777 3.282.693 4.972-.012.262-.087.521-.109.783-.129 1.488-.19 1.556-1.69 1.826-.127.023-.249.072-.364.106-.33 1.267-.061 1.652 1.149 1.65 3.871-.005 7.743.029 11.614-.039 2.103-.037 4.202-.264 6.304-.382 1.141-.064 2.285-.075 3.428-.119.426-.016.851-.058 1.413-.098" fill="#048ccd"/><path d="m129.317 86.332c.768.011 1.504.021 2.239.029.66.007 1.32.026 1.98.012.84-.019.981-.123 1.111-.968.269-1.726.499-3.456.743-5.172-.405-.127-.817-.186-1.227-.186-2.924 0-5.707 3.05-4.846 6.285z" fill="url(#a)"/><path d="m115.832 100.333c.565-3.852.541-4.627-.244-5.761-1.023 1.822-1.351 3.676-1.171 5.761z" fill="#ece6bc"/><path d="m127.95 83.174c-.435.152-.777.273-1.136.398.068 1.416.131 2.723.194 4.029.052 1.083.135 1.142 1.53.971-.191-1.748-.381-3.5-.588-5.398" fill="#fff"/><path d="m176.699 100.999c.385-.172.692-.216.729-.341.208-.699.406-1.41.499-2.132.061-.476-.156-.867-.879-.676-.108.971-.219 1.973-.349 3.149" fill="#fff"/><path d="m124.644 96.267c-3.541.01-6.251 2.766-6.208 6.312.04 3.379 2.912 6.16 6.318 6.121 3.449-.04 6.129-2.799 6.114-6.293-.015-3.503-2.698-6.15-6.224-6.14m.045 13.315c-3.91.008-7.06-3.111-7.08-7.009-.021-3.88 3.124-7.04 7.033-7.066 3.896-.026 7.043 3.108 7.05 7.021.007 3.947-3.069 7.046-7.003 7.054" fill="#231f20"/><path d="m128.444 102.367c.026-2.069-1.736-3.865-3.84-3.91-2.087-.046-3.855 1.714-3.868 3.848-.012 2.19 1.628 3.856 3.806 3.865 2.151.008 3.875-1.673 3.902-3.803m-3.69 6.333c-3.407.039-6.278-2.742-6.319-6.121-.042-3.546 2.668-6.302 6.209-6.312 3.526-.01 6.209 2.637 6.224 6.14.015 3.494-2.665 6.252-6.114 6.293" fill="#645745"/><path d="m124.618 105.207c1.555.026 2.962-1.342 2.993-2.911.031-1.574-1.326-2.987-2.884-3.004-1.618-.017-2.922 1.269-2.944 2.903-.022 1.651 1.234 2.986 2.835 3.012m-3.881-2.902c.012-2.134 1.78-3.893 3.867-3.848 2.104.046 3.867 1.841 3.84 3.911-.027 2.13-1.751 3.81-3.902 3.802-2.177-.008-3.818-1.674-3.805-3.865" fill="#231f20"/><path d="m121.783 102.195c-.022 1.651 1.234 2.986 2.835 3.012 1.555.026 2.962-1.342 2.993-2.911.031-1.574-1.326-2.987-2.884-3.003-1.618-.018-2.923 1.268-2.944 2.902" fill="#c9cacc"/><path d="m125.449 100.715c-.757-.336-1.646-.279-2.427-.003.167-.588.842-.884 1.452-.908.887-.035 1.798.373 2.292 1.11.494.736.509 1.788-.031 2.491.238-.311.004-1.199-.126-1.516-.215-.519-.648-.946-1.16-1.174" fill="#fff"/><path d="m128.109 97.847c-.312-.246-.651-.461-1.013-.625-.59-.266-1.232-.392-1.874-.47-1.112-.136-2.347-.098-3.201.627.901-.38 1.931-.297 2.885-.08 1.762.401 3.502 1.314 4.42 2.87.896 1.52.848 3.399.247 5.013.346-.609.651-1.008.75-1.729.096-.693.064-1.402-.079-2.087-.287-1.368-1.031-2.651-2.135-3.519" fill="#c99f7b" opacity=".31"/><path d="m124.127 106.892c-1.462-.101-2.924-.795-3.731-2.018-.808-1.223-.824-2.985.138-4.089-.524 1.666-.016 3.64 1.325 4.759s3.457 1.239 4.852.187c-.4.276-.547.721-1.038.938-.478.212-1.03.259-1.546.223" fill="#c99f7b" opacity=".31"/><path d="m151.856 87.537h9.956c3.297 0 5.996-2.697 5.996-5.994s-2.699-5.995-5.996-5.995h-9.956c-3.297 0-5.995 2.698-5.995 5.995s2.698 5.994 5.995 5.994" fill="#fff" opacity=".5"/><path d="m138.888 88.213.073 3.904 28.358-1.446z" fill="#048ccd"/><path d="m138.888 92.392.073 3.904 28.358-1.446z" fill="#048ccd"/><path d="m167.372 94.968c-3.541.01-6.251 2.766-6.209 6.312.041 3.379 2.913 6.161 6.319 6.122 3.449-.041 6.129-2.8 6.114-6.293-.015-3.504-2.698-6.151-6.224-6.141m.045 13.315c-3.911.008-7.06-3.11-7.081-7.009-.02-3.88 3.125-7.04 7.033-7.066 3.897-.026 7.044 3.108 7.051 7.021.007 3.947-3.07 7.046-7.003 7.054" fill="#231f20"/><path d="m171.172 101.068c.026-2.069-1.736-3.864-3.84-3.91-2.087-.045-3.855 1.714-3.867 3.848-.013 2.191 1.627 3.857 3.805 3.865 2.151.008 3.875-1.673 3.902-3.803m-3.69 6.333c-3.406.039-6.278-2.742-6.319-6.121-.042-3.546 2.668-6.302 6.209-6.312 3.526-.01 6.209 2.637 6.224 6.141.015 3.493-2.665 6.252-6.114 6.292" fill="#645745"/><path d="m167.346 103.908c1.556.025 2.962-1.343 2.993-2.912.031-1.573-1.326-2.986-2.884-3.003-1.618-.018-2.922 1.269-2.944 2.902-.021 1.652 1.234 2.986 2.835 3.013m-3.881-2.902c.012-2.134 1.78-3.893 3.867-3.848 2.104.046 3.867 1.841 3.84 3.91-.027 2.131-1.751 3.811-3.902 3.803-2.177-.008-3.818-1.674-3.805-3.865" fill="#231f20"/><path d="m164.511 100.895c-.021 1.651 1.234 2.986 2.835 3.013 1.556.025 2.962-1.343 2.993-2.912.031-1.574-1.326-2.987-2.884-3.003-1.618-.018-2.923 1.268-2.944 2.902" fill="#c9cacc"/><path d="m168.176 99.416c-.757-.336-1.646-.28-2.427-.004.167-.587.843-.883 1.452-.908.887-.034 1.798.374 2.292 1.111.494.736.509 1.787-.031 2.49.238-.31.004-1.199-.126-1.515-.214-.52-.648-.947-1.16-1.174" fill="#fff"/><path d="m170.837 96.547c-.312-.246-.65-.461-1.013-.625-.589-.266-1.232-.392-1.874-.47-1.112-.135-2.347-.098-3.201.627.901-.38 1.931-.297 2.885-.08 1.762.401 3.503 1.314 4.42 2.87.896 1.521.848 3.399.247 5.013.347-.609.651-1.008.75-1.729.096-.693.064-1.402-.079-2.087-.287-1.368-1.031-2.651-2.135-3.519" fill="#c99f7b" opacity=".31"/><path d="m166.855 105.593c-1.462-.101-2.924-.795-3.731-2.018-.808-1.223-.824-2.985.138-4.089-.524 1.666-.015 3.64 1.325 4.759 1.342 1.119 3.458 1.239 4.852.188-.4.275-.547.72-1.038.937-.478.212-1.03.259-1.546.223" fill="#c99f7b" opacity=".31"/><g fill="#231f20"><path d="m155.411 83.285c0 .378-.103.748-.31 1.108-.207.361-.486.633-.838.815-.352.183-.8.274-1.345.274-.541 0-.988-.091-1.339-.274-.352-.182-.631-.454-.838-.815-.207-.36-.31-.73-.31-1.108 0-.404.116-.79.35-1.157.233-.368.587-.659 1.062-.874-.374-.185-.655-.411-.842-.68-.186-.268-.28-.576-.28-.923 0-.343.094-.664.28-.963.187-.299.458-.526.812-.68s.722-.23 1.105-.23c.387 0 .757.078 1.111.234s.625.382.811.679c.187.297.281.617.281.96 0 .347-.094.655-.281.923-.186.269-.467.495-.841.68.471.215.824.506 1.059.874.235.367.353.753.353 1.157zm-2.493-2.381c.373 0 .682-.12.926-.359.244-.24.366-.523.366-.848 0-.356-.129-.644-.389-.864-.259-.22-.56-.33-.903-.33-.335 0-.632.11-.894.33s-.393.508-.393.864c0 .325.121.608.363.848.242.239.55.359.924.359zm0 .726c-.273 0-.532.069-.779.207-.246.139-.441.337-.583.594-.143.257-.215.522-.215.795 0 .264.068.52.205.768.136.249.329.438.58.568.251.129.515.194.792.194.281 0 .547-.065.798-.194.25-.13.444-.319.58-.568.137-.248.205-.504.205-.768 0-.273-.072-.538-.215-.795s-.337-.455-.583-.594c-.247-.138-.508-.207-.785-.207z"/><path d="m160.415 85.482c-.787 0-1.426-.345-1.916-1.036-.49-.69-.736-1.629-.736-2.816 0-1.188.246-2.127.736-2.817s1.129-1.035 1.916-1.035c.796 0 1.438.345 1.926 1.035s.732 1.629.732 2.817c0 1.187-.244 2.126-.732 2.816-.488.691-1.13 1.036-1.926 1.036zm0-.726c.616 0 1.061-.316 1.336-.95.275-.633.412-1.358.412-2.176 0-.814-.137-1.538-.412-2.174-.275-.635-.72-.953-1.336-.953-.611 0-1.054.318-1.329.953-.275.636-.412 1.36-.412 2.174 0 .818.137 1.543.412 2.176.275.634.718.95 1.329.95z"/></g></g></svg>