<?xml version="1.0" encoding="UTF-8" standalone="no"?>
<!DOCTYPE svg PUBLIC "-//W3C//DTD SVG 1.1//EN" "http://www.w3.org/Graphics/SVG/1.1/DTD/svg11.dtd">
<svg width="100%" height="100%" viewBox="0 0 65 37" version="1.1" xmlns="http://www.w3.org/2000/svg" xmlns:xlink="http://www.w3.org/1999/xlink" xml:space="preserve" xmlns:serif="http://www.serif.com/" style="fill-rule:evenodd;clip-rule:evenodd;stroke-linejoin:round;stroke-miterlimit:2;">
    <g transform="matrix(1,0,0,1,-349,-72)">
        <g>
            <path d="M410.469,93.706C409.997,92.506 409.564,91.401 409.063,90.127C408.366,92.122 408.771,93.118 410.469,93.706M353.23,95.139C353.367,95.231 353.473,95.363 353.572,95.358C354.646,95.308 355.639,94.986 356.422,94.242C357.513,93.207 357.363,91.751 356.016,90.902C354.741,92.141 353.724,93.449 353.23,95.139M412.502,98.543C412.793,96.606 412.1,95.399 410.082,94.524C408.88,94.003 408.074,93.193 407.951,91.908C407.888,91.239 408.099,90.519 408.299,89.857C408.465,89.307 408.453,88.85 408.145,88.368C406.321,85.518 404.499,82.661 401.952,80.38C399.494,78.179 396.898,76.168 393.828,74.848C389.271,72.886 384.665,72.389 379.842,73.936C377.629,74.646 375.392,75.27 373.23,76.138C371.569,76.803 370.09,77.75 368.876,79.042C366.919,81.128 365.078,83.316 363.749,85.876C363.262,86.813 362.468,87.323 361.483,87.51C359.931,87.803 358.604,88.547 357.33,89.422C356.68,89.868 356.662,90.023 357.161,90.663C358.388,92.238 358.136,94.092 356.414,95.198C355.304,95.912 354.078,96.409 352.669,95.954C351.88,95.699 351.439,95.943 351.087,96.695C350.439,98.082 350.6,99.472 351.336,100.738C351.687,101.341 352.44,101.544 353.182,101.546C356.043,101.555 358.91,101.701 361.763,101.558C365.983,101.346 370.201,101.302 374.424,101.259C377.06,101.232 379.706,101.215 382.327,100.974C385.978,100.637 389.627,100.884 393.273,100.742C396.034,100.633 398.794,100.426 401.555,100.301C402.115,100.275 402.683,100.489 403.244,100.479C406.138,100.429 409.032,100.343 412.048,100.266C412.24,99.552 412.425,99.056 412.502,98.543M354.657,102.344C354.13,102.344 353.588,102.268 353.076,102.36C351.99,102.554 351.261,101.849 350.442,101.393C350.211,101.265 350.04,100.92 349.967,100.642C349.571,99.132 349.492,97.61 349.961,96.096C350.133,95.54 350.35,95.066 351.031,94.894C351.719,94.722 352.164,94.245 352.552,93.579C353.408,92.104 354.355,90.658 355.706,89.562C356.21,89.154 356.858,88.902 357.298,88.442C357.977,87.732 358.832,87.455 359.706,87.173C360.206,87.011 360.746,86.937 361.21,86.706C361.703,86.461 362.262,86.171 362.563,85.74C364.145,83.474 365.696,81.2 367.557,79.132C368.911,77.627 370.449,76.435 372.28,75.647C375.265,74.363 378.369,73.452 381.533,72.686C384.722,71.913 387.791,72.22 390.88,73.07C393.53,73.799 395.981,74.943 398.28,76.443C400.688,78.016 402.902,79.839 404.705,82.066C407.456,85.46 409.701,89.179 411.256,93.29C411.437,93.768 411.72,94.273 412.1,94.596C412.908,95.282 413.212,96.17 413.316,97.143C413.405,97.971 413.405,98.813 413.377,99.647C413.346,100.565 412.906,100.988 411.981,101.042C410.496,101.128 409.012,101.219 407.527,101.256C403.047,101.369 398.569,101.473 394.087,101.549C391.589,101.592 389.087,101.507 386.591,101.597C383.922,101.693 381.262,101.958 378.582,101.859C377.411,101.816 376.233,102.089 375.057,102.097C371.014,102.123 366.973,102.061 362.937,102.368C361.406,102.484 359.869,102.561 358.336,102.554C357.111,102.548 355.887,102.388 354.662,102.297C354.66,102.312 354.659,102.328 354.657,102.344" style="fill:rgb(35,31,32);fill-rule:nonzero;"/>
            <path d="M391.324,84.582C391.835,84.671 392.463,84.86 393.095,84.875C395.027,84.924 396.961,84.91 398.893,84.911C399.6,84.912 400.411,84.952 400.791,84.267C401.22,83.491 400.632,82.816 400.179,82.249C398.221,79.796 395.969,77.683 393.042,76.411C392.562,76.203 392.057,76.045 391.554,75.901C390.646,75.643 390.643,75.654 389.608,76.366C390.649,79 390.675,81.752 391.324,84.582M376.967,84.966C380.342,84.805 383.72,84.753 387.097,84.655C387.317,84.649 387.538,84.65 387.757,84.626C389.228,84.47 389.527,84.094 389.279,82.608C389.164,81.918 388.923,81.249 388.817,80.558C388.665,79.563 388.587,78.558 388.473,77.558C388.299,76.004 387.955,75.748 386.43,75.994C384.313,76.337 382.165,76.545 380.085,77.04C377.754,77.595 375.305,77.812 373.178,79.062C372.542,79.436 371.902,79.84 371.361,80.337C370.729,80.918 370.049,81.329 369.235,81.598C368.488,81.846 367.766,82.191 367.068,82.558C365.889,83.178 365.713,84.314 365.867,85.386C366.011,86.385 366.832,87.118 367.979,87.256C368.761,87.35 369.558,87.367 370.347,87.355C371.227,87.343 371.323,87.209 371.286,86.347C371.276,86.134 371.247,85.921 371.211,85.539C373.23,85.332 375.094,85.057 376.967,84.966M403.244,100.48C402.682,100.49 402.114,100.277 401.554,100.302C398.794,100.427 396.035,100.635 393.273,100.743C389.628,100.886 385.978,100.639 382.328,100.975C379.707,101.216 377.059,101.234 374.424,101.261C370.202,101.303 365.983,101.348 361.763,101.56C358.911,101.703 356.044,101.556 353.182,101.548C352.439,101.545 351.686,101.343 351.336,100.74C350.599,99.474 350.438,98.084 351.087,96.695C351.438,95.944 351.88,95.7 352.669,95.955C354.079,96.409 355.304,95.913 356.415,95.199C358.136,94.093 358.388,92.239 357.162,90.664C356.663,90.024 356.68,89.869 357.331,89.422C358.604,88.548 359.931,87.804 361.483,87.51C362.469,87.324 363.262,86.814 363.75,85.877C365.079,83.317 366.92,81.129 368.877,79.044C370.091,77.751 371.569,76.805 373.229,76.139C375.391,75.272 377.629,74.647 379.843,73.937C384.666,72.391 389.271,72.887 393.829,74.849C396.898,76.169 399.494,78.181 401.952,80.382C404.499,82.662 406.321,85.519 408.145,88.368C408.454,88.85 408.466,89.307 408.3,89.857C408.099,90.52 407.888,91.239 407.952,91.908C408.075,93.193 408.881,94.003 410.083,94.525C412.1,95.399 412.794,96.607 412.503,98.544C412.426,99.057 412.24,99.554 412.049,100.267C409.032,100.344 406.138,100.431 403.244,100.48" style="fill:rgb(237,28,36);fill-rule:nonzero;"/>
            <path d="M356.016,90.902C354.742,92.141 353.724,93.449 353.23,95.139C353.368,95.231 353.473,95.363 353.573,95.359C354.646,95.308 355.639,94.986 356.422,94.242C357.513,93.207 357.364,91.751 356.016,90.902" style="fill:rgb(236,230,188);fill-rule:nonzero;"/>
            <path d="M409.063,90.127C408.367,92.122 408.771,93.118 410.469,93.706C409.998,92.506 409.564,91.401 409.063,90.127" style="fill:rgb(240,82,34);fill-rule:nonzero;"/>
            <path d="M370.489,84.213C370.499,83.863 370.51,83.505 370.447,83.163C370.32,82.463 369.876,82.18 369.221,82.408C368.644,82.61 368.071,82.853 367.543,83.157C366.695,83.645 366.446,84.298 366.634,85.28C366.772,86.005 367.264,86.388 368.272,86.52C368.793,86.588 369.317,86.631 369.842,86.66C370.006,86.67 370.176,86.596 370.382,86.552C370.423,85.681 370.467,84.947 370.489,84.213M381.979,77.484C379.615,77.923 377.222,78.233 374.956,79.085C373.848,79.501 372.769,79.963 371.896,80.823C371.352,81.358 371.087,81.937 371.132,82.695C371.168,83.299 371.139,83.907 371.139,84.572C372.262,84.738 373.257,84.643 374.25,84.564C374.903,84.512 375.553,84.404 376.208,84.378C378.836,84.272 381.465,84.2 384.093,84.09C385.184,84.044 386.275,83.951 387.363,83.847C388.247,83.762 388.552,83.402 388.44,82.551C388.333,81.728 388.151,80.915 388.01,80.097C387.898,79.452 387.812,78.803 387.689,78.16C387.617,77.785 387.495,77.421 387.386,77.014C385.421,76.822 383.704,77.165 381.979,77.484M371.286,86.347C371.323,87.209 371.227,87.342 370.347,87.355C369.558,87.367 368.761,87.35 367.979,87.255C366.832,87.117 366.01,86.384 365.867,85.385C365.713,84.314 365.889,83.177 367.068,82.558C367.766,82.191 368.488,81.845 369.235,81.598C370.049,81.328 370.729,80.918 371.361,80.337C371.902,79.84 372.542,79.436 373.178,79.062C375.305,77.812 377.754,77.595 380.084,77.04C382.164,76.545 384.313,76.337 386.43,75.994C387.955,75.747 388.299,76.004 388.473,77.558C388.587,78.558 388.665,79.563 388.817,80.557C388.923,81.248 389.164,81.918 389.279,82.608C389.527,84.093 389.228,84.469 387.757,84.626C387.538,84.65 387.317,84.649 387.097,84.655C383.719,84.753 380.341,84.804 376.967,84.966C375.094,85.056 373.23,85.331 371.211,85.538C371.247,85.921 371.276,86.133 371.286,86.347" style="fill:rgb(35,31,32);fill-rule:nonzero;"/>
            <path d="M391.896,83.527C392.523,84.164 393.169,84.132 393.764,84.084C395.828,83.913 397.924,84.443 399.988,83.939C399.542,81.269 394.392,77.203 390.68,76.615C391.112,79.068 391.517,81.373 391.896,83.527M391.554,75.901C392.057,76.044 392.562,76.202 393.042,76.41C395.968,77.682 398.221,79.795 400.179,82.249C400.631,82.815 401.22,83.49 400.791,84.266C400.411,84.951 399.6,84.911 398.893,84.91C396.96,84.909 395.027,84.923 393.095,84.875C392.462,84.859 391.834,84.67 391.324,84.581C390.674,81.751 390.649,78.999 389.608,76.365C390.643,75.653 390.646,75.642 391.554,75.901" style="fill:rgb(35,31,32);fill-rule:nonzero;"/>
            <path d="M381.979,77.485C379.616,77.924 377.222,78.232 374.955,79.085C373.848,79.501 372.769,79.963 371.895,80.823C371.353,81.359 371.086,81.937 371.131,82.695C371.167,83.299 371.139,83.908 371.139,84.573C372.262,84.738 373.256,84.643 374.25,84.564C374.902,84.513 375.553,84.405 376.207,84.378C378.835,84.271 381.465,84.199 384.09,84.09C385.184,84.045 386.275,83.952 387.362,83.847C388.246,83.762 388.552,83.403 388.439,82.551C388.332,81.729 388.15,80.914 388.009,80.096C387.898,79.453 387.811,78.802 387.689,78.16C387.616,77.785 387.494,77.422 387.385,77.015C386.99,76.975 386.605,76.958 386.229,76.958C384.729,76.958 383.357,77.228 381.979,77.485Z" style="fill:url(#_Linear1);fill-rule:nonzero;"/>
            <path d="M370.381,86.552C370.422,85.681 370.466,84.947 370.488,84.213C370.498,83.863 370.509,83.505 370.446,83.163C370.319,82.464 369.875,82.18 369.221,82.408C368.644,82.61 368.07,82.853 367.542,83.157C366.694,83.645 366.445,84.299 366.633,85.281C366.772,86.005 367.264,86.388 368.272,86.52C368.792,86.588 369.317,86.632 369.841,86.66C370.005,86.67 370.175,86.596 370.381,86.552" style="fill:rgb(237,28,36);fill-rule:nonzero;"/>
            <path d="M390.68,76.615C391.111,79.068 391.516,81.373 391.895,83.528C392.523,84.164 393.169,84.134 393.764,84.083C394.596,84.016 395.434,84.061 396.275,84.107C397.514,84.172 398.756,84.24 399.987,83.938C399.542,81.27 394.392,77.205 390.68,76.615Z" style="fill:url(#_Linear2);fill-rule:nonzero;"/>
            <path d="M400.934,93.835C397.393,93.845 394.682,96.601 394.725,100.147C394.766,103.526 397.637,106.309 401.044,106.268C404.493,106.228 407.173,103.469 407.158,99.976C407.143,96.472 404.459,93.825 400.934,93.835M400.979,107.15C397.069,107.158 393.918,104.04 393.898,100.141C393.878,96.261 397.023,93.101 400.931,93.075C404.828,93.05 407.975,96.183 407.982,100.096C407.989,104.043 404.913,107.142 400.979,107.15" style="fill:rgb(35,31,32);fill-rule:nonzero;"/>
            <path d="M404.734,99.936C404.76,97.866 402.998,96.071 400.894,96.026C398.807,95.98 397.039,97.739 397.027,99.873C397.014,102.064 398.655,103.73 400.832,103.738C402.983,103.746 404.707,102.066 404.734,99.936M401.045,106.269C397.637,106.308 394.766,103.526 394.725,100.148C394.682,96.602 397.393,93.846 400.934,93.835C404.46,93.825 407.143,96.473 407.158,99.976C407.173,103.47 404.493,106.228 401.045,106.269" style="fill:rgb(100,87,69);fill-rule:nonzero;"/>
            <path d="M400.908,102.775C402.464,102.801 403.87,101.433 403.901,99.863C403.932,98.29 402.576,96.877 401.017,96.86C399.399,96.843 398.095,98.129 398.073,99.763C398.052,101.414 399.307,102.749 400.908,102.775M397.027,99.873C397.039,97.739 398.807,95.98 400.894,96.025C402.998,96.071 404.761,97.866 404.734,99.936C404.707,102.066 402.983,103.746 400.832,103.738C398.655,103.73 397.014,102.064 397.027,99.873" style="fill:rgb(35,31,32);fill-rule:nonzero;"/>
            <path d="M398.073,99.763C398.052,101.414 399.307,102.749 400.908,102.775C402.464,102.801 403.87,101.433 403.901,99.864C403.932,98.29 402.576,96.877 401.017,96.86C399.399,96.843 398.094,98.129 398.073,99.763" style="fill:rgb(201,202,204);fill-rule:nonzero;"/>
            <path d="M401.738,98.283C400.981,97.947 400.093,98.003 399.312,98.279C399.479,97.692 400.154,97.396 400.764,97.372C401.65,97.337 402.561,97.745 403.055,98.482C403.55,99.218 403.564,100.269 403.024,100.973C403.263,100.662 403.028,99.773 402.898,99.457C402.684,98.938 402.25,98.51 401.738,98.283" style="fill:white;fill-rule:nonzero;"/>
            <g opacity="0.31">
                <path d="M404.399,95.415C404.087,95.169 403.749,94.954 403.386,94.79C402.796,94.524 402.154,94.398 401.512,94.32C400.401,94.184 399.165,94.222 398.311,94.947C399.212,94.567 400.242,94.65 401.196,94.867C402.958,95.268 404.699,96.181 405.617,97.737C406.511,99.257 406.464,101.136 405.863,102.75C406.21,102.14 406.513,101.741 406.613,101.021C406.709,100.328 406.677,99.619 406.534,98.934C406.247,97.566 405.503,96.283 404.399,95.415" style="fill:rgb(201,159,123);fill-rule:nonzero;"/>
            </g>
            <g opacity="0.31">
                <path d="M400.417,104.46C398.956,104.359 397.493,103.665 396.687,102.442C395.879,101.219 395.862,99.458 396.825,98.353C396.301,100.019 396.809,101.994 398.15,103.113C399.491,104.231 401.607,104.351 403.002,103.3C402.602,103.575 402.455,104.02 401.963,104.238C401.485,104.449 400.934,104.496 400.417,104.46" style="fill:rgb(201,159,123);fill-rule:nonzero;"/>
            </g>
            <path d="M363.449,94.695C359.908,94.705 357.197,97.462 357.24,101.007C357.281,104.386 360.152,107.169 363.559,107.129C367.008,107.088 369.688,104.329 369.673,100.836C369.658,97.332 366.974,94.685 363.449,94.695M363.494,108.01C359.584,108.018 356.433,104.9 356.413,101.001C356.393,97.121 359.538,93.961 363.446,93.935C367.343,93.91 370.49,97.043 370.497,100.956C370.504,104.903 367.428,108.002 363.494,108.01" style="fill:rgb(35,31,32);fill-rule:nonzero;"/>
            <path d="M367.248,100.796C367.274,98.726 365.512,96.931 363.408,96.886C361.321,96.84 359.553,98.6 359.541,100.734C359.528,102.924 361.169,104.59 363.347,104.598C365.497,104.606 367.221,102.926 367.248,100.796M363.559,107.129C360.151,107.168 357.28,104.386 357.239,101.008C357.196,97.462 359.907,94.706 363.448,94.695C366.974,94.686 369.657,97.333 369.672,100.836C369.687,104.33 367.007,107.088 363.559,107.129" style="fill:rgb(100,87,69);fill-rule:nonzero;"/>
            <path d="M363.422,103.636C364.978,103.662 366.384,102.294 366.415,100.724C366.446,99.151 365.09,97.738 363.531,97.721C361.913,97.704 360.609,98.99 360.587,100.624C360.566,102.275 361.821,103.61 363.422,103.636M359.541,100.734C359.553,98.6 361.321,96.841 363.408,96.886C365.512,96.932 367.275,98.727 367.248,100.797C367.221,102.927 365.497,104.607 363.347,104.599C361.169,104.591 359.528,102.925 359.541,100.734" style="fill:rgb(35,31,32);fill-rule:nonzero;"/>
            <path d="M360.587,100.623C360.566,102.274 361.821,103.609 363.422,103.635C364.978,103.661 366.384,102.293 366.415,100.724C366.446,99.15 365.09,97.737 363.531,97.721C361.913,97.703 360.608,98.989 360.587,100.623" style="fill:rgb(201,202,204);fill-rule:nonzero;"/>
            <path d="M364.252,99.143C363.495,98.807 362.607,98.863 361.826,99.139C361.993,98.552 362.668,98.256 363.278,98.232C364.164,98.197 365.075,98.605 365.569,99.342C366.064,100.078 366.078,101.13 365.538,101.833C365.777,101.522 365.542,100.633 365.412,100.317C365.198,99.798 364.764,99.371 364.252,99.143" style="fill:white;fill-rule:nonzero;"/>
            <g opacity="0.31">
                <path d="M366.914,96.275C366.602,96.029 366.264,95.814 365.901,95.65C365.311,95.384 364.669,95.258 364.027,95.18C362.916,95.044 361.68,95.082 360.826,95.807C361.727,95.427 362.757,95.51 363.711,95.727C365.473,96.128 367.214,97.041 368.132,98.597C369.026,100.117 368.979,101.996 368.378,103.61C368.725,103 369.028,102.601 369.128,101.881C369.224,101.188 369.192,100.479 369.049,99.794C368.762,98.426 368.018,97.143 366.914,96.275" style="fill:rgb(201,159,123);fill-rule:nonzero;"/>
            </g>
            <g opacity="0.31">
                <path d="M362.931,105.321C361.47,105.22 360.007,104.526 359.201,103.303C358.393,102.08 358.376,100.318 359.339,99.213C358.815,100.88 359.323,102.854 360.664,103.973C362.005,105.092 364.121,105.212 365.516,104.16C365.116,104.436 364.969,104.881 364.478,105.098C363.999,105.31 363.448,105.356 362.931,105.321" style="fill:rgb(201,159,123);fill-rule:nonzero;"/>
            </g>
            <g opacity="0.5">
                <path d="M376.644,98.09L386.601,98.09C389.899,98.09 392.596,95.393 392.596,92.096C392.596,88.799 389.899,86.101 386.601,86.101L376.644,86.101C373.347,86.101 370.65,88.799 370.65,92.096C370.65,95.393 373.347,98.09 376.644,98.09" style="fill:white;fill-rule:nonzero;"/>
            </g>
            <g>
                <path d="M379.63,94.903C379.63,95.281 379.527,95.65 379.32,96.011C379.113,96.372 378.834,96.643 378.482,96.826C378.131,97.008 377.682,97.099 377.137,97.099C376.596,97.099 376.15,97.008 375.798,96.826C375.446,96.643 375.167,96.372 374.96,96.011C374.753,95.65 374.65,95.281 374.65,94.903C374.65,94.498 374.767,94.112 375,93.745C375.233,93.378 375.587,93.087 376.062,92.871C375.688,92.687 375.407,92.46 375.221,92.192C375.034,91.924 374.94,91.616 374.94,91.268C374.94,90.925 375.034,90.604 375.221,90.305C375.407,90.006 375.678,89.78 376.032,89.626C376.386,89.472 376.754,89.395 377.137,89.395C377.524,89.395 377.894,89.473 378.248,89.629C378.602,89.785 378.873,90.012 379.059,90.309C379.246,90.605 379.34,90.925 379.34,91.268C379.34,91.616 379.246,91.924 379.059,92.192C378.873,92.46 378.592,92.687 378.218,92.871C378.689,93.087 379.042,93.378 379.277,93.745C379.512,94.112 379.63,94.498 379.63,94.903ZM377.137,92.522C377.511,92.522 377.819,92.402 378.063,92.162C378.308,91.922 378.43,91.64 378.43,91.315C378.43,90.958 378.3,90.67 378.04,90.45C377.781,90.231 377.48,90.121 377.137,90.121C376.803,90.121 376.505,90.231 376.243,90.45C375.981,90.67 375.85,90.958 375.85,91.315C375.85,91.64 375.971,91.922 376.213,92.162C376.455,92.402 376.763,92.522 377.137,92.522ZM377.137,93.247C376.864,93.247 376.605,93.316 376.358,93.455C376.112,93.594 375.918,93.791 375.775,94.049C375.632,94.306 375.56,94.571 375.56,94.843C375.56,95.107 375.628,95.363 375.765,95.612C375.901,95.86 376.095,96.049 376.345,96.179C376.596,96.309 376.86,96.374 377.137,96.374C377.418,96.374 377.684,96.309 377.935,96.179C378.186,96.049 378.379,95.86 378.515,95.612C378.652,95.363 378.72,95.107 378.72,94.843C378.72,94.571 378.648,94.306 378.505,94.049C378.363,93.791 378.168,93.594 377.922,93.455C377.675,93.316 377.414,93.247 377.137,93.247Z" style="fill:rgb(35,31,32);fill-rule:nonzero;"/>
                <path d="M383.295,93.247L383.295,92.522L383.843,92.522C384.265,92.522 384.596,92.455 384.835,92.32C385.075,92.186 385.265,92.018 385.406,91.816C385.547,91.614 385.617,91.389 385.617,91.143C385.617,90.826 385.501,90.577 385.271,90.394C385.04,90.212 384.735,90.121 384.357,90.121C384.137,90.121 383.932,90.149 383.74,90.206C383.549,90.264 383.403,90.359 383.302,90.493C383.201,90.627 383.15,90.767 383.15,90.912L383.15,90.965L382.319,90.965L382.319,90.912C382.319,90.534 382.479,90.187 382.8,89.87C383.121,89.553 383.656,89.395 384.403,89.395C385.111,89.395 385.643,89.547 386,89.85C386.356,90.154 386.534,90.545 386.534,91.024C386.534,91.284 386.482,91.527 386.379,91.753C386.275,91.98 386.123,92.182 385.92,92.36C385.718,92.538 385.428,92.682 385.05,92.792C385.643,92.964 386.086,93.215 386.379,93.547C386.671,93.879 386.817,94.294 386.817,94.791C386.817,95.371 386.612,95.901 386.201,96.38C385.79,96.86 385.168,97.099 384.337,97.099C383.607,97.099 383.075,96.944 382.741,96.634C382.407,96.324 382.24,95.974 382.24,95.582L382.24,95.536L383.11,95.536L383.11,95.582C383.11,95.846 383.234,96.044 383.48,96.176C383.726,96.308 384.04,96.374 384.423,96.374C384.722,96.374 384.986,96.318 385.215,96.206C385.443,96.093 385.617,95.913 385.736,95.665C385.854,95.416 385.914,95.145 385.914,94.85C385.914,94.397 385.735,94.017 385.376,93.709C385.018,93.401 384.471,93.247 383.737,93.247L383.295,93.247Z" style="fill:rgb(35,31,32);fill-rule:nonzero;"/>
            </g>
        </g>
    </g>
    <defs>
        <linearGradient id="_Linear1" x1="0" y1="0" x2="1" y2="0" gradientUnits="userSpaceOnUse" gradientTransform="matrix(4.71833e-16,-7.70562,7.70562,4.71833e-16,379.794,84.6636)"><stop offset="0" style="stop-color:rgb(159,221,249);stop-opacity:1"/><stop offset="1" style="stop-color:rgb(80,117,147);stop-opacity:1"/></linearGradient>
        <linearGradient id="_Linear2" x1="0" y1="0" x2="1" y2="0" gradientUnits="userSpaceOnUse" gradientTransform="matrix(4.62126e-16,-7.54709,7.54709,4.62126e-16,395.334,84.1626)"><stop offset="0" style="stop-color:rgb(159,221,249);stop-opacity:1"/><stop offset="1" style="stop-color:rgb(80,117,147);stop-opacity:1"/></linearGradient>
    </defs>
</svg>
