<?xml version="1.0" encoding="UTF-8" standalone="no"?>
<!DOCTYPE svg PUBLIC "-//W3C//DTD SVG 1.1//EN" "http://www.w3.org/Graphics/SVG/1.1/DTD/svg11.dtd">
<svg width="100%" height="100%" viewBox="0 0 60 44" version="1.1" xmlns="http://www.w3.org/2000/svg" xmlns:xlink="http://www.w3.org/1999/xlink" xml:space="preserve" xmlns:serif="http://www.serif.com/" style="fill-rule:evenodd;clip-rule:evenodd;stroke-linejoin:round;stroke-miterlimit:2;">
    <g transform="matrix(1,0,0,1,-429,-66)">
        <g>
            <path d="M484.717,94.155C485.166,92.986 485.147,91.856 485.095,90.537C483.704,91.949 483.611,92.937 484.717,94.155M436.676,91.771C437.862,91.36 438.412,90.221 438.001,89.033C437.712,88.198 437.242,87.482 436.262,87.015C435.159,88.612 434.088,90.165 432.893,91.896C434.383,92.238 435.545,92.162 436.676,91.771M471.571,86.507C472.087,86.579 472.548,86.673 473.013,86.703C475.808,86.884 478.606,87.015 481.397,87.235C483.008,87.362 484.61,87.616 486.213,87.829C487.273,87.969 487.579,87.727 487.832,86.429C487.568,86.326 487.286,86.118 487.013,86.128C485.663,86.176 484.344,85.644 482.985,85.937C482.819,85.973 482.634,85.939 482.459,85.921C480.37,85.705 478.281,85.484 476.193,85.268C475.887,85.237 475.579,85.218 475.273,85.206C474.613,85.181 473.952,85.188 473.296,85.136C472.703,85.09 472.115,84.984 471.427,84.891C471.478,85.465 471.52,85.928 471.571,86.507M484.763,95.91C484.808,95.422 484.606,95.118 484.252,94.786C482.756,93.376 482.854,91.254 484.519,90.047C485.098,89.627 485.326,89.179 485.305,88.477C483.698,87.979 482.017,88.067 480.363,87.948C477.863,87.77 475.361,87.645 472.859,87.485C472.51,87.462 472.168,87.339 471.82,87.317C470.229,87.216 470.506,86.611 470.559,85.572C470.636,84.037 470.781,82.506 470.877,80.97C471.057,78.081 471.223,75.19 471.395,72.3C471.407,72.08 471.405,71.86 471.427,71.641C471.515,70.764 471.185,70.134 470.424,69.656C469.333,68.971 468.22,68.425 466.913,68.242C464.529,67.907 462.158,67.471 459.78,67.091C457.467,66.72 455.453,67.603 453.52,68.69C452.064,69.508 450.817,70.616 449.613,71.774C448.192,73.14 446.696,74.432 445.303,75.825C443.5,77.628 441.887,79.597 440.418,81.688C439.334,83.231 438.2,84.739 437.023,86.354C437.151,86.497 437.372,86.694 437.53,86.933C437.94,87.551 438.435,88.145 438.689,88.825C439.284,90.429 438.494,91.951 436.869,92.5C435.459,92.976 434.028,93.064 432.586,92.626C432.502,92.6 432.415,92.583 432.33,92.56C430.307,92.003 429.567,92.561 429.585,94.697C429.596,95.924 429.678,97.151 429.748,98.377C429.794,99.182 430.266,99.77 431.166,99.833C432.556,99.93 433.9,100.324 435.352,100.118C436.816,99.91 438.337,100.097 439.834,100.134C442.254,100.195 444.681,100.18 447.092,100.363C453.047,100.817 459.015,100.834 464.975,101.087C466.419,101.148 467.858,101.404 469.301,101.425C472.366,101.468 475.434,101.431 478.499,101.395C480.209,101.375 481.918,101.297 483.627,101.229C483.835,101.221 484.04,101.116 484.319,101.035C484.466,99.318 484.605,97.613 484.763,95.91M485.047,102.026C483.754,102.114 482.582,102.245 481.409,102.265C478.64,102.311 475.868,102.356 473.1,102.301C470.686,102.253 468.276,102.051 465.862,101.947C463.951,101.864 462.038,101.849 460.127,101.764C455.396,101.553 450.666,101.294 445.932,101.105C442.764,100.978 439.593,100.936 436.423,100.86C436.027,100.85 435.619,100.802 435.237,100.877C433.635,101.187 432.096,100.773 430.558,100.471C429.552,100.273 429.096,99.704 429.074,98.767C429.035,97.152 429.038,95.535 429.052,93.92C429.063,92.634 429.606,91.869 430.844,91.752C431.775,91.664 432.223,91.184 432.693,90.496C433.807,88.865 434.959,87.259 436.151,85.683C437.552,83.828 439.007,82.013 440.447,80.186C441.697,78.601 442.836,76.904 444.245,75.475C446.367,73.322 448.72,71.398 450.903,69.304C452.277,67.988 453.998,67.326 455.63,66.487C455.969,66.313 456.392,66.299 456.778,66.22C458.305,65.908 459.82,65.928 461.341,66.305C463.924,66.947 466.643,67.029 469.114,68.117C470.033,68.521 470.904,69.047 471.755,69.584C472.314,69.936 472.575,70.461 472.328,71.175C472.202,71.54 472.215,71.954 472.18,72.347C472.031,74.011 471.862,75.674 471.75,77.341C471.614,79.355 471.525,81.373 471.429,83.389C471.421,83.55 471.524,83.716 471.609,83.985C472.901,84.148 474.197,84.353 475.502,84.467C478.033,84.686 480.571,84.834 483.102,85.051C484.676,85.185 486.249,85.355 487.814,85.576C488.74,85.707 489.028,86.343 488.675,87.209C488.279,88.184 487.708,88.903 486.361,88.677C485.737,93.208 485.658,97.644 485.047,102.026" style="fill:rgb(35,31,32);fill-rule:nonzero;"/>
            <path d="M453.472,80.033C455.091,80.269 456.797,80.082 458.446,79.903C460.73,79.655 462.989,79.714 465.24,80.104C467.71,80.532 468.303,80.189 468.76,77.737C468.928,76.838 468.879,75.899 468.954,74.98C468.999,74.415 469.063,73.848 469.168,73.291C469.349,72.333 468.892,71.544 467.948,71.29C465.292,70.576 462.604,70.375 459.876,70.755C459.659,70.784 459.435,70.788 459.217,70.768C456.949,70.555 454.785,71.187 452.6,71.606C451.019,71.91 449.824,72.836 448.888,74.128C448.579,74.554 448.196,74.926 447.897,75.357C447.592,75.795 447.287,76.064 446.697,75.883C446.491,75.82 446.135,75.924 445.973,76.08C444.787,77.227 443.701,78.443 443.933,80.282C444.133,81.859 445.516,82.85 447.064,82.543C447.656,82.426 447.994,82.064 448.091,81.487C448.162,81.059 448.189,80.623 448.254,80.014C450.075,80.125 451.736,79.78 453.472,80.033M483.627,101.23C481.918,101.297 480.209,101.376 478.499,101.396C475.434,101.432 472.368,101.469 469.302,101.425C467.859,101.405 466.42,101.149 464.975,101.087C459.015,100.835 453.047,100.818 447.093,100.364C444.682,100.18 442.255,100.195 439.834,100.135C438.337,100.097 436.816,99.91 435.352,100.118C433.9,100.325 432.556,99.93 431.166,99.834C430.266,99.771 429.794,99.183 429.748,98.377C429.678,97.151 429.596,95.925 429.585,94.698C429.567,92.562 430.307,92.003 432.33,92.56C432.415,92.583 432.502,92.6 432.586,92.626C434.029,93.064 435.459,92.976 436.869,92.499C438.494,91.95 439.284,90.429 438.689,88.825C438.435,88.144 437.94,87.551 437.531,86.933C437.372,86.694 437.151,86.496 437.023,86.353C438.2,84.739 439.334,83.231 440.419,81.687C441.888,79.597 443.501,77.629 445.304,75.825C446.698,74.432 448.192,73.141 449.614,71.774C450.817,70.616 452.064,69.508 453.52,68.69C455.453,67.603 457.467,66.72 459.781,67.09C462.159,67.472 464.529,67.908 466.913,68.242C468.221,68.426 469.334,68.971 470.425,69.657C471.186,70.135 471.516,70.764 471.428,71.641C471.407,71.86 471.409,72.081 471.396,72.3C471.224,75.191 471.058,78.081 470.878,80.971C470.783,82.505 470.637,84.036 470.56,85.572C470.507,86.61 470.23,87.215 471.821,87.317C472.169,87.339 472.511,87.462 472.86,87.484C475.361,87.644 477.864,87.77 480.363,87.948C482.017,88.066 483.699,87.979 485.305,88.476C485.327,89.179 485.098,89.626 484.519,90.046C482.854,91.253 482.756,93.377 484.252,94.786C484.606,95.119 484.808,95.422 484.763,95.911C484.605,97.614 484.466,99.319 484.319,101.035C484.04,101.117 483.835,101.221 483.627,101.23" style="fill:rgb(8,180,139);fill-rule:nonzero;"/>
            <path d="M471.427,84.891C471.478,85.465 471.52,85.928 471.572,86.507C472.087,86.578 472.547,86.673 473.012,86.703C475.807,86.884 478.605,87.015 481.396,87.235C483.007,87.362 484.609,87.616 486.213,87.829C487.273,87.969 487.579,87.726 487.832,86.429C487.568,86.326 487.286,86.118 487.013,86.128C485.663,86.176 484.343,85.644 482.984,85.937C482.818,85.973 482.633,85.939 482.458,85.921C480.369,85.704 478.281,85.484 476.192,85.268C475.886,85.236 475.578,85.218 475.272,85.206C474.613,85.181 473.951,85.187 473.295,85.136C472.702,85.09 472.115,84.984 471.427,84.891" style="fill:rgb(8,180,139);fill-rule:nonzero;"/>
            <path d="M432.893,91.896C434.383,92.238 435.545,92.162 436.676,91.771C437.863,91.36 438.413,90.221 438.001,89.033C437.712,88.198 437.243,87.482 436.262,87.015C435.16,88.612 434.088,90.165 432.893,91.896" style="fill:rgb(236,230,188);fill-rule:nonzero;"/>
            <path d="M485.095,90.537C483.704,91.949 483.611,92.937 484.717,94.155C485.166,92.985 485.147,91.856 485.095,90.537" style="fill:rgb(240,82,34);fill-rule:nonzero;"/>
            <path d="M444.716,80.305C444.819,80.941 445.138,81.348 445.68,81.611C446.793,82.15 447.619,81.588 447.53,80.365C447.496,79.89 447.425,79.413 447.444,78.94C447.494,77.629 447.51,77.629 446.469,76.61C445.352,77.67 444.456,78.695 444.716,80.305M449.545,79.211C451.47,79.188 453.395,79.153 455.32,79.134C458.039,79.106 460.758,79.065 463.476,79.081C464.304,79.087 465.13,79.264 465.956,79.362C467.169,79.505 467.622,79.221 467.778,78.06C467.969,76.628 468.066,75.184 468.222,73.747C468.3,73.027 467.971,72.552 467.35,72.286C466.83,72.064 466.29,71.858 465.738,71.752C463.972,71.412 462.184,71.476 460.392,71.465C457.965,71.449 455.605,71.944 453.213,72.179C451.825,72.315 450.801,73.123 449.891,74.097C449.385,74.638 448.897,75.201 448.44,75.784C448.237,76.042 447.993,76.383 448.007,76.675C448.044,77.452 448.211,78.222 448.354,79.181C448.769,79.192 449.157,79.215 449.545,79.211M448.09,81.486C447.993,82.064 447.654,82.426 447.063,82.543C445.515,82.85 444.132,81.859 443.932,80.282C443.699,78.442 444.786,77.227 445.972,76.08C446.134,75.923 446.489,75.82 446.695,75.883C447.286,76.064 447.591,75.795 447.896,75.356C448.195,74.925 448.578,74.554 448.887,74.128C449.822,72.836 451.018,71.909 452.599,71.606C454.784,71.186 456.947,70.555 459.217,70.767C459.435,70.788 459.659,70.784 459.876,70.754C462.604,70.374 465.292,70.576 467.946,71.29C468.891,71.544 469.348,72.332 469.167,73.29C469.062,73.847 468.998,74.414 468.953,74.98C468.878,75.899 468.927,76.837 468.759,77.737C468.302,80.188 467.709,80.531 465.239,80.103C462.988,79.713 460.73,79.654 458.446,79.902C456.796,80.081 455.09,80.268 453.471,80.033C451.735,79.779 450.073,80.125 448.253,80.013C448.188,80.623 448.161,81.058 448.09,81.486" style="fill:rgb(35,31,32);fill-rule:nonzero;"/>
            <path d="M460.274,71.465C457.888,71.465 455.567,71.949 453.213,72.179C451.826,72.315 450.801,73.123 449.891,74.097C449.385,74.64 448.897,75.2 448.44,75.784C448.237,76.043 447.993,76.384 448.007,76.675C448.044,77.452 448.211,78.223 448.354,79.181C448.768,79.193 449.158,79.215 449.545,79.212C451.471,79.188 453.394,79.153 455.321,79.133C458.039,79.106 460.758,79.066 463.475,79.081C464.304,79.087 465.131,79.266 465.956,79.363C467.169,79.506 467.623,79.221 467.777,78.06C467.969,76.629 468.065,75.184 468.222,73.749C468.3,73.027 467.971,72.553 467.35,72.286C466.831,72.064 466.291,71.859 465.739,71.751C464.248,71.465 462.741,71.466 461.232,71.467C460.951,71.467 460.671,71.467 460.391,71.465L460.274,71.465Z" style="fill:url(#_Linear1);fill-rule:nonzero;"/>
            <path d="M446.469,76.61C445.352,77.671 444.456,78.695 444.716,80.305C444.819,80.941 445.138,81.349 445.68,81.611C446.793,82.151 447.619,81.589 447.531,80.365C447.496,79.89 447.425,79.413 447.444,78.94C447.494,77.629 447.51,77.63 446.469,76.61" style="fill:rgb(8,180,139);fill-rule:nonzero;"/>
            <path d="M473.632,95.833C470.092,95.749 467.31,98.432 467.258,101.978C467.209,105.356 470.006,108.213 473.412,108.264C476.861,108.316 479.613,105.629 479.691,102.137C479.769,98.634 477.156,95.916 473.632,95.833M473.323,109.145C469.414,109.047 466.349,105.848 466.432,101.95C466.514,98.07 469.742,94.995 473.65,95.073C477.545,95.151 480.608,98.367 480.511,102.279C480.413,106.224 477.256,109.241 473.323,109.145" style="fill:rgb(35,31,32);fill-rule:nonzero;"/>
            <path d="M477.269,102.032C477.35,99.964 475.636,98.122 473.535,98.021C471.45,97.92 469.635,99.632 469.566,101.764C469.496,103.954 471.091,105.664 473.267,105.729C475.417,105.794 477.185,104.16 477.269,102.032M473.413,108.264C470.006,108.213 467.209,105.356 467.258,101.978C467.31,98.432 470.092,95.749 473.632,95.833C477.157,95.916 479.769,98.634 479.691,102.136C479.614,105.629 476.861,108.316 473.413,108.264" style="fill:rgb(100,87,69);fill-rule:nonzero;"/>
            <path d="M473.369,104.769C474.924,104.836 476.366,103.505 476.438,101.938C476.512,100.365 475.193,98.917 473.636,98.859C472.018,98.799 470.68,100.05 470.615,101.682C470.55,103.332 471.769,104.7 473.369,104.769M469.566,101.765C469.636,99.632 471.45,97.92 473.535,98.021C475.637,98.123 477.35,99.964 477.269,102.032C477.185,104.161 475.418,105.794 473.267,105.729C471.092,105.664 469.496,103.955 469.566,101.765" style="fill:rgb(35,31,32);fill-rule:nonzero;"/>
            <path d="M470.615,101.682C470.55,103.332 471.769,104.7 473.369,104.769C474.924,104.836 476.366,103.505 476.438,101.938C476.511,100.365 475.193,98.917 473.636,98.859C472.018,98.799 470.679,100.05 470.615,101.682" style="fill:rgb(201,202,204);fill-rule:nonzero;"/>
            <path d="M474.318,100.3C473.57,99.944 472.681,99.977 471.892,100.232C472.076,99.649 472.757,99.371 473.369,99.363C474.256,99.352 475.156,99.784 475.63,100.534C476.104,101.283 476.091,102.334 475.533,103.023C475.779,102.718 475.568,101.824 475.447,101.505C475.247,100.98 474.824,100.541 474.318,100.3" style="fill:white;fill-rule:nonzero;"/>
            <g opacity="0.31">
                <path d="M477.055,97.504C476.749,97.25 476.417,97.026 476.059,96.853C475.477,96.571 474.837,96.428 474.199,96.333C473.091,96.167 471.855,96.172 470.982,96.874C471.893,96.518 472.92,96.629 473.867,96.871C475.618,97.318 477.334,98.277 478.21,99.858C479.065,101.401 478.968,103.277 478.324,104.875C478.686,104.275 479.001,103.884 479.119,103.167C479.234,102.476 479.221,101.766 479.096,101.078C478.845,99.703 478.136,98.401 477.055,97.504" style="fill:rgb(201,159,123);fill-rule:nonzero;"/>
            </g>
            <g opacity="0.31">
                <path d="M472.834,106.44C471.375,106.301 469.932,105.567 469.157,104.324C468.383,103.08 468.413,101.318 469.404,100.239C468.836,101.891 469.292,103.878 470.603,105.033C471.914,106.187 474.026,106.363 475.448,105.349C475.04,105.614 474.882,106.054 474.385,106.259C473.902,106.458 473.349,106.489 472.834,106.44" style="fill:rgb(201,159,123);fill-rule:nonzero;"/>
            </g>
            <path d="M442.038,94.699C438.499,94.615 435.716,97.298 435.664,100.844C435.615,104.222 438.412,107.079 441.818,107.13C445.267,107.182 448.019,104.495 448.097,101.002C448.175,97.5 445.563,94.782 442.038,94.699M441.729,108.011C437.82,107.914 434.755,104.714 434.838,100.816C434.92,96.936 438.148,93.861 442.056,93.939C445.951,94.017 449.014,97.233 448.917,101.144C448.819,105.09 445.662,108.107 441.729,108.011" style="fill:rgb(35,31,32);fill-rule:nonzero;"/>
            <path d="M445.674,100.898C445.756,98.83 444.041,96.988 441.94,96.887C439.855,96.786 438.04,98.498 437.971,100.63C437.901,102.82 439.496,104.529 441.673,104.595C443.822,104.66 445.59,103.026 445.674,100.898M441.818,107.13C438.411,107.079 435.614,104.222 435.663,100.844C435.715,97.298 438.498,94.615 442.037,94.699C445.563,94.782 448.174,97.5 448.096,101.002C448.019,104.495 445.266,107.182 441.818,107.13" style="fill:rgb(100,87,69);fill-rule:nonzero;"/>
            <path d="M441.774,103.635C443.329,103.702 444.771,102.371 444.843,100.804C444.917,99.231 443.598,97.783 442.041,97.725C440.423,97.665 439.086,98.916 439.02,100.548C438.955,102.198 440.174,103.566 441.774,103.635M437.971,100.631C438.041,98.498 439.855,96.786 441.94,96.887C444.042,96.989 445.756,98.83 445.674,100.898C445.59,103.027 443.823,104.66 441.673,104.595C439.497,104.53 437.901,102.821 437.971,100.631" style="fill:rgb(35,31,32);fill-rule:nonzero;"/>
            <path d="M439.02,100.548C438.955,102.198 440.174,103.566 441.774,103.635C443.329,103.702 444.771,102.371 444.843,100.804C444.916,99.231 443.598,97.783 442.041,97.725C440.423,97.665 439.085,98.916 439.02,100.548" style="fill:rgb(201,202,204);fill-rule:nonzero;"/>
            <path d="M442.724,99.166C441.975,98.81 441.086,98.843 440.298,99.098C440.481,98.515 441.163,98.237 441.774,98.229C442.661,98.218 443.561,98.65 444.036,99.399C444.509,100.149 444.496,101.2 443.938,101.889C444.185,101.584 443.974,100.69 443.852,100.371C443.652,99.846 443.229,99.407 442.724,99.166" style="fill:white;fill-rule:nonzero;"/>
            <g opacity="0.31">
                <path d="M445.46,96.37C445.154,96.116 444.822,95.892 444.464,95.719C443.882,95.437 443.243,95.294 442.604,95.199C441.496,95.034 440.26,95.039 439.387,95.741C440.298,95.385 441.325,95.495 442.272,95.737C444.023,96.184 445.739,97.144 446.615,98.724C447.47,100.267 447.373,102.144 446.729,103.742C447.091,103.141 447.406,102.75 447.524,102.033C447.639,101.343 447.626,100.633 447.501,99.945C447.25,98.57 446.541,97.267 445.46,96.37" style="fill:rgb(201,159,123);fill-rule:nonzero;"/>
            </g>
            <g opacity="0.31">
                <path d="M441.239,105.306C439.781,105.166 438.338,104.433 437.563,103.19C436.789,101.946 436.818,100.184 437.81,99.105C437.242,100.757 437.697,102.744 439.009,103.899C440.319,105.053 442.431,105.229 443.853,104.215C443.446,104.479 443.287,104.92 442.791,105.125C442.307,105.324 441.754,105.355 441.239,105.306" style="fill:rgb(201,159,123);fill-rule:nonzero;"/>
            </g>
            <g opacity="0.5">
                <path d="M451.714,94.732L461.667,94.996C464.964,95.084 467.732,92.459 467.819,89.163C467.907,85.867 465.282,83.099 461.985,83.011L452.032,82.747C448.736,82.66 445.969,85.284 445.881,88.58C445.793,91.876 448.418,94.644 451.714,94.732" style="fill:white;fill-rule:nonzero;"/>
            </g>
            <g>
                <path d="M454.221,91.309C454.211,91.687 454.098,92.053 453.882,92.408C453.666,92.763 453.379,93.027 453.023,93.2C452.666,93.373 452.216,93.453 451.67,93.438C451.13,93.424 450.686,93.321 450.339,93.129C449.992,92.937 449.72,92.659 449.523,92.293C449.326,91.927 449.233,91.555 449.243,91.177C449.254,90.772 449.38,90.39 449.623,90.029C449.866,89.668 450.227,89.386 450.708,89.183C450.339,88.989 450.065,88.755 449.885,88.482C449.705,88.209 449.62,87.898 449.629,87.551C449.639,87.208 449.741,86.89 449.935,86.596C450.13,86.302 450.406,86.083 450.764,85.938C451.122,85.794 451.492,85.727 451.875,85.737C452.262,85.747 452.63,85.835 452.98,86C453.329,86.166 453.594,86.399 453.773,86.701C453.952,87.003 454.037,87.325 454.028,87.668C454.018,88.015 453.917,88.32 453.723,88.584C453.529,88.847 453.243,89.066 452.864,89.24C453.329,89.468 453.674,89.769 453.899,90.142C454.125,90.515 454.232,90.904 454.221,91.309ZM451.792,88.862C452.166,88.872 452.478,88.761 452.728,88.527C452.978,88.294 453.108,88.015 453.116,87.69C453.126,87.334 453.004,87.042 452.75,86.816C452.497,86.589 452.199,86.471 451.856,86.462C451.522,86.453 451.221,86.555 450.953,86.768C450.686,86.981 450.548,87.265 450.538,87.621C450.53,87.947 450.643,88.232 450.878,88.478C451.114,88.724 451.418,88.852 451.792,88.862ZM451.773,89.588C451.5,89.58 451.239,89.643 450.989,89.775C450.739,89.907 450.539,90.099 450.39,90.353C450.24,90.606 450.162,90.869 450.154,91.141C450.147,91.405 450.209,91.663 450.338,91.915C450.468,92.167 450.656,92.361 450.904,92.497C451.151,92.634 451.413,92.706 451.69,92.713C451.971,92.72 452.239,92.663 452.493,92.54C452.747,92.417 452.945,92.233 453.088,91.988C453.231,91.743 453.306,91.489 453.313,91.225C453.32,90.953 453.256,90.686 453.12,90.425C452.984,90.164 452.794,89.961 452.552,89.816C452.309,89.671 452.05,89.595 451.773,89.588Z" style="fill:rgb(35,31,32);fill-rule:nonzero;"/>
                <path d="M460.846,93.464L459.975,93.441L460.034,91.226L456.546,91.133L456.565,90.408L460.168,86.175L461.039,86.198L460.924,90.523L461.939,90.55L461.92,91.276L460.905,91.249L460.846,93.464ZM460.054,90.5L460.138,87.329L457.528,90.433L460.054,90.5Z" style="fill:rgb(35,31,32);fill-rule:nonzero;"/>
            </g>
        </g>
    </g>
    <defs>
        <linearGradient id="_Linear1" x1="0" y1="0" x2="1" y2="0" gradientUnits="userSpaceOnUse" gradientTransform="matrix(0.214807,-8.08674,8.08674,0.214807,458.005,79.4425)"><stop offset="0" style="stop-color:rgb(159,221,249);stop-opacity:1"/><stop offset="1" style="stop-color:rgb(80,117,147);stop-opacity:1"/></linearGradient>
    </defs>
</svg>
