<?xml version="1.0" encoding="UTF-8" standalone="no"?>
<!DOCTYPE svg PUBLIC "-//W3C//DTD SVG 1.1//EN" "http://www.w3.org/Graphics/SVG/1.1/DTD/svg11.dtd">
<svg width="100%" height="100%" viewBox="0 0 70 46" version="1.1" xmlns="http://www.w3.org/2000/svg" xmlns:xlink="http://www.w3.org/1999/xlink" xml:space="preserve" xmlns:serif="http://www.serif.com/" style="fill-rule:evenodd;clip-rule:evenodd;stroke-linejoin:round;stroke-miterlimit:2;">
    <g transform="matrix(1,0,0,1,-425,-130)">
        <g>
            <path d="M431.767,169.195C431.478,168.047 431.233,167.07 430.995,166.122C430.251,166.031 430.09,166.448 430.215,166.912C430.405,167.613 430.697,168.292 430.998,168.956C431.052,169.074 431.362,169.077 431.767,169.195M477.652,144.93C477.704,146.839 477.752,148.6 477.8,150.358C479.206,150.338 479.28,150.269 479.185,149.189C479.07,147.886 478.956,146.583 478.831,145.172C478.458,145.095 478.103,145.022 477.652,144.93M491.983,160.29C492.474,160.222 492.91,160.163 493.385,160.098C493.28,158.007 492.705,156.215 491.444,154.548C490.82,155.778 490.9,156.55 491.983,160.29M476.724,148.245C477.198,144.457 473.012,141.55 469.88,143.024C470.355,144.691 470.818,146.374 471.318,148.048C471.562,148.866 471.716,148.95 472.55,148.856C473.206,148.781 473.858,148.672 474.511,148.575C475.239,148.468 475.965,148.359 476.724,148.245M469.691,165.404C470.253,165.367 470.68,165.351 471.105,165.309C472.243,165.198 473.378,165.054 474.518,164.963C476.617,164.795 478.727,164.736 480.815,164.487C484.659,164.031 488.491,163.472 492.327,162.953C493.526,162.791 493.74,162.373 493.242,161.162C493.123,161.144 492.996,161.112 492.867,161.107C491.344,161.042 491.274,160.983 490.945,159.526C490.886,159.27 490.778,159.024 490.73,158.766C490.417,157.102 489.838,155.44 490.743,153.744C488.571,152.145 486.576,150.458 483.694,150.479C482.175,150.489 481.008,149.742 480.635,148.102C480.529,147.634 480.345,147.181 480.164,146.734C480.08,146.527 479.918,146.352 479.791,146.163L479.545,146.244C479.682,147.241 479.832,148.236 479.951,149.235C480.12,150.664 479.803,151.048 478.371,151.216C477.33,151.339 477.037,151.096 476.949,150.021C476.928,149.764 476.942,149.505 476.938,149.091C475.924,149.209 474.969,149.291 474.025,149.439C473.04,149.592 472.067,149.809 470.988,150.017C470.756,149.391 470.499,148.789 470.311,148.166C470.005,147.159 469.735,146.14 469.467,145.122C469.311,144.529 469.151,143.932 469.062,143.327C468.898,142.207 469.141,142 470.23,141.689C471.362,141.366 472.405,141.811 473.485,141.886C474.775,141.975 475.842,142.543 476.461,143.768C476.575,143.992 476.767,144.175 476.947,144.408C477.378,144.263 477.763,144.133 478.182,143.993C475.294,140.047 470.227,138.821 467.372,140.51C467.572,142.762 467.737,145.038 467.984,147.304C468.331,150.48 468.798,153.643 469.1,156.823C469.293,158.868 469.262,160.934 469.371,162.989C469.41,163.727 469.561,164.46 469.691,165.404M468.514,165.45C468.415,164.379 468.234,163.423 468.257,162.472C468.326,159.721 468.168,156.989 467.838,154.258C467.342,150.162 466.873,146.063 466.414,141.963C466.312,141.05 466.415,140.101 466.208,139.218C465.876,137.801 465.738,136.387 465.701,134.938C465.68,134.121 465.369,133.314 465.217,132.497C465.078,131.743 464.532,131.471 463.887,131.449C462.49,131.402 461.073,131.29 459.695,131.456C454.506,132.079 449.307,132.665 444.245,134.058C441.502,134.813 438.719,135.439 436.021,136.328C433.49,137.162 431.022,138.208 428.572,139.266C426.14,140.317 426.497,140.999 426.934,143.129C427.322,145.018 427.771,146.896 428.12,148.792C428.47,150.694 428.633,152.636 429.054,154.521C429.657,157.214 430.416,159.87 431.116,162.54C431.548,164.194 431.977,165.848 432.437,167.494C432.728,168.54 433.439,169.149 434.538,169.133C435.717,169.116 436.904,169.073 438.07,168.916C440.06,168.648 442.031,168.232 444.023,167.974C445.714,167.756 447.439,167.779 449.119,167.51C452.108,167.033 455.124,166.787 458.119,166.346C460.845,165.945 463.606,165.774 466.353,165.521C467.039,165.458 467.732,165.474 468.514,165.45M430.654,164.939C430.376,163.655 430.118,162.371 429.818,161.097C429.506,159.776 429.098,158.475 428.829,157.146C428.162,153.838 427.494,150.528 426.937,147.2C426.618,145.289 426.176,143.421 425.626,141.568C425.218,140.191 425.362,139.953 426.65,139.342C427.245,139.061 427.791,138.679 428.387,138.4C431.491,136.944 434.694,135.759 438.012,134.887C441.234,134.039 444.444,133.148 447.674,132.329C448.694,132.07 449.755,131.967 450.801,131.822C453.635,131.429 456.466,131.004 459.309,130.685C460.917,130.505 462.551,130.396 464.165,130.459C465.823,130.523 466.316,131.075 466.542,132.692C466.792,134.478 466.986,136.271 467.211,138.06C467.249,138.362 467.328,138.658 467.413,139.087C468.016,139.111 468.626,139.214 469.218,139.145C470.683,138.975 472.11,139.214 473.537,139.453C473.918,139.517 474.304,139.658 474.646,139.842C477.373,141.31 479.48,143.456 481.21,145.985C481.525,146.444 481.665,147.027 481.862,147.56C482.404,149.021 483.064,149.447 484.572,149.597C486.327,149.771 488.023,150.193 489.45,151.341C489.927,151.725 490.456,152.046 490.948,152.412C492.375,153.476 493.081,155.071 493.923,156.555C494.13,156.919 494.147,157.401 494.21,157.834C494.447,159.445 494.678,161.056 494.887,162.671C494.969,163.303 494.634,163.653 494.04,163.716C491.683,163.965 489.328,164.229 486.972,164.49C483.445,164.881 479.921,165.312 476.39,165.654C472.936,165.989 469.469,166.203 466.014,166.528C461.511,166.95 457.012,167.408 452.515,167.893C450.329,168.129 448.154,168.48 445.969,168.741C445.147,168.84 444.304,168.783 443.481,168.883C442.316,169.023 441.162,169.259 439.998,169.424C437.658,169.756 435.321,170.181 432.967,170.33C432.089,170.385 431.009,170.435 430.208,169.741C429.507,169.133 429.204,168.32 429.09,167.418C428.947,166.26 429.145,165.849 430.148,165.265C430.295,165.179 430.436,165.08 430.654,164.939" style="fill:rgb(35,31,32);fill-rule:nonzero;"/>
            <path d="M468.514,165.45C467.732,165.474 467.038,165.458 466.353,165.521C463.606,165.774 460.845,165.946 458.118,166.346C455.123,166.787 452.107,167.033 449.117,167.511C447.438,167.779 445.713,167.756 444.023,167.974C442.031,168.232 440.06,168.648 438.07,168.916C436.904,169.073 435.717,169.116 434.538,169.133C433.439,169.149 432.728,168.54 432.437,167.494C431.977,165.848 431.548,164.194 431.116,162.54C430.415,159.87 429.656,157.214 429.053,154.522C428.632,152.637 428.469,150.695 428.118,148.792C427.77,146.896 427.321,145.018 426.933,143.129C426.496,140.999 426.139,140.317 428.571,139.266C431.022,138.208 433.49,137.162 436.021,136.328C438.719,135.439 441.502,134.813 444.244,134.058C449.306,132.665 454.505,132.079 459.695,131.456C461.073,131.29 462.49,131.402 463.887,131.449C464.532,131.471 465.077,131.743 465.217,132.497C465.368,133.314 465.68,134.121 465.701,134.938C465.738,136.387 465.876,137.801 466.208,139.219C466.415,140.101 466.312,141.051 466.413,141.963C466.873,146.063 467.342,150.162 467.838,154.26C468.168,156.989 468.326,159.721 468.257,162.472C468.234,163.423 468.415,164.379 468.514,165.45" style="fill:rgb(247,144,49);fill-rule:nonzero;"/>
            <path d="M469.691,165.404C469.561,164.46 469.41,163.727 469.371,162.989C469.262,160.934 469.294,158.868 469.1,156.823C468.798,153.644 468.331,150.48 467.984,147.304C467.737,145.038 467.572,142.762 467.372,140.51C470.227,138.821 475.294,140.047 478.181,143.993C477.762,144.133 477.378,144.263 476.946,144.408C476.766,144.175 476.574,143.992 476.461,143.768C475.841,142.543 474.774,141.975 473.484,141.886C472.404,141.811 471.361,141.366 470.23,141.689C469.141,142 468.898,142.207 469.062,143.327C469.151,143.932 469.311,144.529 469.467,145.122C469.735,146.14 470.005,147.159 470.311,148.166C470.5,148.789 470.756,149.391 470.987,150.017C472.066,149.809 473.04,149.592 474.024,149.439C474.968,149.291 475.923,149.209 476.937,149.091C476.941,149.505 476.927,149.764 476.948,150.021C477.036,151.096 477.329,151.339 478.37,151.216C479.802,151.048 480.119,150.664 479.95,149.235C479.832,148.236 479.681,147.241 479.545,146.244L479.791,146.163C479.918,146.352 480.079,146.527 480.163,146.734C480.344,147.181 480.528,147.634 480.634,148.102C481.007,149.742 482.174,150.489 483.694,150.479C486.576,150.458 488.571,152.146 490.743,153.745C489.838,155.441 490.418,157.102 490.73,158.766C490.778,159.024 490.886,159.27 490.945,159.526C491.274,160.983 491.344,161.042 492.867,161.107C492.996,161.112 493.123,161.144 493.242,161.162C493.74,162.373 493.526,162.791 492.327,162.953C488.491,163.472 484.659,164.031 480.814,164.487C478.726,164.736 476.616,164.795 474.517,164.963C473.378,165.054 472.242,165.198 471.104,165.309C470.68,165.351 470.253,165.367 469.691,165.404" style="fill:rgb(238,66,152);fill-rule:nonzero;"/>
            <path d="M469.88,143.025C470.355,144.691 470.818,146.374 471.316,148.048C471.561,148.867 471.715,148.95 472.549,148.857C473.204,148.783 473.857,148.672 474.51,148.576C475.237,148.469 475.964,148.36 476.722,148.245C477.112,145.144 474.376,142.634 471.654,142.634C471.051,142.634 470.448,142.757 469.88,143.025Z" style="fill:url(#_Linear1);fill-rule:nonzero;"/>
            <path d="M491.983,160.29C490.9,156.55 490.82,155.779 491.444,154.549C492.705,156.215 493.28,158.008 493.385,160.098C492.91,160.163 492.474,160.223 491.983,160.29" style="fill:rgb(236,230,188);fill-rule:nonzero;"/>
            <path d="M477.651,144.931C478.102,145.023 478.458,145.096 478.83,145.172C478.955,146.583 479.069,147.887 479.184,149.19C479.279,150.27 479.205,150.339 477.799,150.359C477.752,148.601 477.703,146.84 477.651,144.931" style="fill:rgb(187,189,192);fill-rule:nonzero;"/>
            <path d="M431.767,169.195C431.362,169.077 431.052,169.074 430.998,168.956C430.697,168.292 430.405,167.613 430.215,166.912C430.09,166.448 430.251,166.031 430.995,166.122C431.233,167.07 431.478,168.047 431.767,169.195" style="fill:rgb(175,177,180);fill-rule:nonzero;"/>
            <path d="M434.856,168.884C435.314,172.347 438.344,174.717 441.766,174.29C445.146,173.867 447.615,170.722 447.198,167.37C446.759,163.85 443.7,161.487 440.191,161.957C436.696,162.425 434.396,165.411 434.856,168.884M434.056,169.114C433.533,165.237 436.226,161.706 440.09,161.203C443.965,160.699 447.51,163.404 448.016,167.251C448.525,171.116 445.826,174.632 441.95,175.154C438.051,175.679 434.584,173.026 434.056,169.114" style="fill:rgb(35,31,32);fill-rule:nonzero;"/>
            <path d="M441.633,171.754C443.789,171.451 445.189,169.578 444.879,167.409C444.578,165.296 442.588,163.793 440.527,164.121C438.448,164.451 436.946,166.468 437.252,168.515C437.568,170.622 439.503,172.053 441.633,171.754M434.856,168.883C434.396,165.41 436.696,162.424 440.191,161.956C443.699,161.486 446.759,163.85 447.197,167.369C447.614,170.722 445.146,173.867 441.766,174.289C438.344,174.717 435.314,172.347 434.856,168.883" style="fill:rgb(100,87,69);fill-rule:nonzero;"/>
            <path d="M443.829,167.441C443.586,165.825 442.119,164.728 440.518,164.964C438.976,165.192 437.824,166.775 438.068,168.331C438.311,169.881 439.891,171.046 441.428,170.81C443.011,170.567 444.074,169.075 443.829,167.441M441.634,171.754C439.504,172.053 437.568,170.622 437.253,168.515C436.946,166.468 438.449,164.451 440.527,164.121C442.589,163.793 444.579,165.296 444.88,167.409C445.189,169.578 443.79,171.451 441.634,171.754" style="fill:rgb(35,31,32);fill-rule:nonzero;"/>
            <path d="M443.829,167.441C444.074,169.075 443.011,170.567 441.428,170.81C439.891,171.046 438.311,169.881 438.068,168.331C437.824,166.775 438.976,165.192 440.518,164.964C442.119,164.728 443.586,165.825 443.829,167.441" style="fill:rgb(201,202,204);fill-rule:nonzero;"/>
            <path d="M439.996,166.472C440.7,166.036 441.588,165.972 442.399,166.139C442.154,165.58 441.445,165.378 440.838,165.437C439.955,165.523 439.107,166.051 438.718,166.847C438.328,167.644 438.456,168.688 439.086,169.311C438.808,169.035 438.92,168.123 439.006,167.792C439.147,167.249 439.519,166.766 439.996,166.472" style="fill:white;fill-rule:nonzero;"/>
            <g opacity="0.31">
                <path d="M436.971,163.991C437.247,163.705 437.553,163.446 437.891,163.235C438.438,162.891 439.058,162.679 439.683,162.515C440.766,162.23 441.995,162.1 442.94,162.702C441.995,162.448 440.987,162.67 440.071,163.014C438.379,163.65 436.779,164.79 436.079,166.457C435.399,168.084 435.7,169.939 436.515,171.457C436.089,170.9 435.734,170.546 435.537,169.845C435.349,169.171 435.284,168.465 435.333,167.767C435.432,166.373 435.994,165.001 436.971,163.991" style="fill:rgb(201,159,123);fill-rule:nonzero;"/>
            </g>
            <g opacity="0.31">
                <path d="M442.142,172.413C443.577,172.115 444.931,171.229 445.566,169.908C446.2,168.587 445.977,166.839 444.874,165.875C445.62,167.455 445.383,169.48 444.206,170.77C443.029,172.061 440.949,172.466 439.424,171.614C439.859,171.832 440.064,172.253 440.58,172.402C441.082,172.547 441.635,172.518 442.142,172.413" style="fill:rgb(201,159,123);fill-rule:nonzero;"/>
            </g>
            <path d="M477.365,164.382C477.824,167.845 480.853,170.215 484.275,169.788C487.656,169.365 490.124,166.22 489.707,162.868C489.268,159.348 486.21,156.985 482.7,157.455C479.206,157.923 476.906,160.908 477.365,164.382M476.565,164.612C476.043,160.735 478.736,157.204 482.599,156.701C486.475,156.197 490.02,158.902 490.525,162.749C491.034,166.614 488.335,170.13 484.46,170.652C480.561,171.177 477.094,168.524 476.565,164.612" style="fill:rgb(35,31,32);fill-rule:nonzero;"/>
            <path d="M484.143,167.253C486.3,166.95 487.7,165.077 487.39,162.908C487.088,160.795 485.099,159.292 483.037,159.62C480.958,159.95 479.456,161.967 479.762,164.014C480.078,166.121 482.013,167.552 484.143,167.253M477.366,164.382C476.907,160.909 479.206,157.923 482.701,157.455C486.21,156.985 489.269,159.349 489.707,162.868C490.124,166.221 487.657,169.366 484.276,169.788C480.854,170.216 477.825,167.846 477.366,164.382" style="fill:rgb(100,87,69);fill-rule:nonzero;"/>
            <path d="M486.338,162.94C486.096,161.324 484.629,160.227 483.027,160.463C481.486,160.691 480.334,162.274 480.578,163.83C480.821,165.38 482.4,166.545 483.938,166.309C485.52,166.066 486.583,164.573 486.338,162.94M484.143,167.253C482.013,167.552 480.077,166.121 479.762,164.014C479.455,161.967 480.958,159.95 483.036,159.62C485.099,159.292 487.088,160.795 487.39,162.908C487.699,165.077 486.3,166.95 484.143,167.253" style="fill:rgb(35,31,32);fill-rule:nonzero;"/>
            <path d="M486.338,162.94C486.583,164.573 485.52,166.066 483.938,166.309C482.4,166.545 480.821,165.38 480.578,163.83C480.334,162.274 481.486,160.691 483.027,160.463C484.629,160.227 486.096,161.324 486.338,162.94" style="fill:rgb(201,202,204);fill-rule:nonzero;"/>
            <path d="M482.506,161.97C483.211,161.534 484.099,161.47 484.91,161.637C484.665,161.078 483.956,160.876 483.348,160.935C482.466,161.02 481.617,161.549 481.228,162.345C480.838,163.142 480.966,164.185 481.597,164.809C481.318,164.533 481.43,163.621 481.516,163.29C481.657,162.746 482.029,162.264 482.506,161.97" style="fill:white;fill-rule:nonzero;"/>
            <g opacity="0.31">
                <path d="M479.481,159.489C479.757,159.203 480.063,158.944 480.4,158.733C480.948,158.389 481.568,158.177 482.193,158.013C483.276,157.728 484.505,157.598 485.449,158.2C484.504,157.946 483.496,158.168 482.581,158.512C480.889,159.148 479.288,160.288 478.589,161.955C477.908,163.582 478.21,165.437 479.024,166.955C478.598,166.398 478.243,166.044 478.046,165.343C477.858,164.669 477.793,163.963 477.842,163.265C477.941,161.87 478.504,160.499 479.481,159.489" style="fill:rgb(201,159,123);fill-rule:nonzero;"/>
            </g>
            <g opacity="0.31">
                <path d="M484.652,167.912C486.087,167.614 487.441,166.728 488.075,165.407C488.709,164.086 488.487,162.338 487.383,161.374C488.129,162.954 487.893,164.979 486.715,166.269C485.539,167.56 483.458,167.965 481.933,167.113C482.368,167.331 482.574,167.752 483.09,167.901C483.591,168.046 484.145,168.017 484.652,167.912" style="fill:rgb(201,159,123);fill-rule:nonzero;"/>
            </g>
            <g opacity="0.5">
                <path d="M454.557,152.492L444.692,153.841C441.425,154.287 438.386,151.98 437.94,148.714C437.494,145.447 439.8,142.409 443.068,141.963L452.932,140.614C456.199,140.167 459.237,142.474 459.684,145.741C460.13,149.007 457.824,152.045 454.557,152.492" style="fill:white;fill-rule:nonzero;"/>
            </g>
            <path d="M430.093,156.956L467.183,151.884L467.653,155.322L430.563,160.394L430.093,156.956Z" style="fill:rgb(255,242,3);"/>
            <g>
                <path d="M447.966,149.993C448.017,150.368 447.965,150.748 447.809,151.133C447.653,151.518 447.413,151.825 447.09,152.054C446.766,152.282 446.334,152.433 445.793,152.507C445.258,152.58 444.803,152.55 444.43,152.417C444.056,152.284 443.743,152.053 443.489,151.724C443.236,151.394 443.083,151.042 443.032,150.668C442.977,150.267 443.04,149.869 443.222,149.473C443.403,149.078 443.714,148.741 444.155,148.464C443.76,148.331 443.452,148.145 443.23,147.904C443.009,147.664 442.874,147.372 442.827,147.027C442.781,146.688 442.83,146.357 442.974,146.035C443.119,145.714 443.356,145.453 443.686,145.252C444.016,145.052 444.371,144.926 444.75,144.874C445.133,144.821 445.511,144.849 445.883,144.955C446.254,145.062 446.553,145.25 446.778,145.518C447.004,145.787 447.14,146.092 447.186,146.431C447.233,146.776 447.182,147.093 447.034,147.384C446.885,147.675 446.638,147.938 446.292,148.171C446.788,148.321 447.177,148.562 447.46,148.894C447.743,149.226 447.911,149.592 447.966,149.993ZM445.173,147.972C445.544,147.921 445.833,147.76 446.043,147.49C446.252,147.219 446.335,146.923 446.291,146.6C446.242,146.248 446.075,145.98 445.788,145.797C445.501,145.614 445.188,145.546 444.848,145.593C444.517,145.638 444.237,145.787 444.007,146.041C443.778,146.294 443.687,146.597 443.735,146.95C443.779,147.272 443.938,147.536 444.21,147.741C444.482,147.945 444.803,148.022 445.173,147.972ZM445.272,148.69C445.001,148.727 444.754,148.831 444.529,149.002C444.303,149.172 444.137,149.395 444.031,149.669C443.924,149.943 443.889,150.215 443.926,150.486C443.962,150.747 444.064,150.992 444.233,151.219C444.401,151.447 444.619,151.608 444.885,151.703C445.15,151.797 445.421,151.826 445.695,151.788C445.974,151.75 446.229,151.65 446.46,151.487C446.69,151.325 446.856,151.111 446.958,150.847C447.059,150.582 447.092,150.319 447.056,150.058C447.019,149.787 446.913,149.535 446.736,149.299C446.56,149.064 446.34,148.894 446.077,148.79C445.815,148.686 445.546,148.653 445.272,148.69Z" style="fill:rgb(35,31,32);fill-rule:nonzero;"/>
                <path d="M450.928,147.81L450.449,144.314L454.155,143.807L454.263,144.598L451.355,144.996L451.621,146.943L451.837,146.914C452.582,146.812 453.171,146.825 453.603,146.952C454.035,147.079 454.381,147.295 454.64,147.599C454.899,147.903 455.061,148.293 455.126,148.768C455.212,149.395 455.095,149.981 454.774,150.527C454.454,151.072 453.893,151.4 453.091,151.509C452.459,151.596 451.933,151.526 451.511,151.299C451.09,151.073 450.852,150.761 450.798,150.365L450.791,150.319L451.654,150.201L451.66,150.247C451.689,150.456 451.822,150.612 452.06,150.715C452.299,150.818 452.605,150.843 452.98,150.792C453.485,150.723 453.836,150.51 454.034,150.152C454.231,149.794 454.302,149.411 454.246,149.001C454.183,148.544 453.97,148.182 453.605,147.917C453.24,147.652 452.568,147.586 451.588,147.72L450.928,147.81Z" style="fill:rgb(35,31,32);fill-rule:nonzero;"/>
            </g>
        </g>
    </g>
    <defs>
        <linearGradient id="_Linear1" x1="0" y1="0" x2="1" y2="0" gradientUnits="userSpaceOnUse" gradientTransform="matrix(-0.857897,-6.27362,6.27362,-0.857897,473.8,148.69)"><stop offset="0" style="stop-color:rgb(159,221,249);stop-opacity:1"/><stop offset="1" style="stop-color:rgb(80,117,147);stop-opacity:1"/></linearGradient>
    </defs>
</svg>
