<svg clip-rule="evenodd" fill-rule="evenodd" stroke-linejoin="round" stroke-miterlimit="2" viewBox="0 0 70 46" xmlns="http://www.w3.org/2000/svg" xmlns:xlink="http://www.w3.org/1999/xlink"><linearGradient id="a" gradientTransform="matrix(-.857897 -6.27362 6.27362 -.857897 473.8 148.69)" gradientUnits="userSpaceOnUse" x1="0" x2="1" y1="0" y2="0"><stop offset="0" stop-color="#9fddf9"/><stop offset="1" stop-color="#507593"/></linearGradient><g transform="translate(-425 -130)"><g fill-rule="nonzero"><path d="m431.767 169.195c-.289-1.148-.534-2.125-.772-3.073-.744-.091-.905.326-.78.79.19.701.482 1.38.783 2.044.054.118.364.121.769.239m45.885-24.265c.052 1.909.1 3.67.148 5.428 1.406-.02 1.48-.089 1.385-1.169-.115-1.303-.229-2.606-.354-4.017-.373-.077-.728-.15-1.179-.242m14.331 15.36c.491-.068.927-.127 1.402-.192-.105-2.091-.68-3.883-1.941-5.55-.624 1.23-.544 2.002.539 5.742m-15.259-12.045c.474-3.788-3.712-6.695-6.844-5.221.475 1.667.938 3.35 1.438 5.024.244.818.398.902 1.232.808.656-.075 1.308-.184 1.961-.281.728-.107 1.454-.216 2.213-.33m-7.033 17.159c.562-.037.989-.053 1.414-.095 1.138-.111 2.273-.255 3.413-.346 2.099-.168 4.209-.227 6.297-.476 3.844-.456 7.676-1.015 11.512-1.534 1.199-.162 1.413-.58.915-1.791-.119-.018-.246-.05-.375-.055-1.523-.065-1.593-.124-1.922-1.581-.059-.256-.167-.502-.215-.76-.313-1.664-.892-3.326.013-5.022-2.172-1.599-4.167-3.286-7.049-3.265-1.519.01-2.686-.737-3.059-2.377-.106-.468-.29-.921-.471-1.368-.084-.207-.246-.382-.373-.571l-.246.081c.137.997.287 1.992.406 2.991.169 1.429-.148 1.813-1.58 1.981-1.041.123-1.334-.12-1.422-1.195-.021-.257-.007-.516-.011-.93-1.014.118-1.969.2-2.913.348-.985.153-1.958.37-3.037.578-.232-.626-.489-1.228-.677-1.851-.306-1.007-.576-2.026-.844-3.044-.156-.593-.316-1.19-.405-1.795-.164-1.12.079-1.327 1.168-1.638 1.132-.323 2.175.122 3.255.197 1.29.089 2.357.657 2.976 1.882.114.224.306.407.486.64.431-.145.816-.275 1.235-.415-2.888-3.946-7.955-5.172-10.81-3.483.2 2.252.365 4.528.612 6.794.347 3.176.814 6.339 1.116 9.519.193 2.045.162 4.111.271 6.166.039.738.19 1.471.32 2.415m-1.177.046c-.099-1.071-.28-2.027-.257-2.978.069-2.751-.089-5.483-.419-8.214-.496-4.096-.965-8.195-1.424-12.295-.102-.913.001-1.862-.206-2.745-.332-1.417-.47-2.831-.507-4.28-.021-.817-.332-1.624-.484-2.441-.139-.754-.685-1.026-1.33-1.048-1.397-.047-2.814-.159-4.192.007-5.189.623-10.388 1.209-15.45 2.602-2.743.755-5.526 1.381-8.224 2.27-2.531.834-4.999 1.88-7.449 2.938-2.432 1.051-2.075 1.733-1.638 3.863.388 1.889.837 3.767 1.186 5.663.35 1.902.513 3.844.934 5.729.603 2.693 1.362 5.349 2.062 8.019.432 1.654.861 3.308 1.321 4.954.291 1.046 1.002 1.655 2.101 1.639 1.179-.017 2.366-.06 3.532-.217 1.99-.268 3.961-.684 5.953-.942 1.691-.218 3.416-.195 5.096-.464 2.989-.477 6.005-.723 9-1.164 2.726-.401 5.487-.572 8.234-.825.686-.063 1.379-.047 2.161-.071m-37.86-.511c-.278-1.284-.536-2.568-.836-3.842-.312-1.321-.72-2.622-.989-3.951-.667-3.308-1.335-6.618-1.892-9.946-.319-1.911-.761-3.779-1.311-5.632-.408-1.377-.264-1.615 1.024-2.226.595-.281 1.141-.663 1.737-.942 3.104-1.456 6.307-2.641 9.625-3.513 3.222-.848 6.432-1.739 9.662-2.558 1.02-.259 2.081-.362 3.127-.507 2.834-.393 5.665-.818 8.508-1.137 1.608-.18 3.242-.289 4.856-.226 1.658.064 2.151.616 2.377 2.233.25 1.786.444 3.579.669 5.368.038.302.117.598.202 1.027.603.024 1.213.127 1.805.058 1.465-.17 2.892.069 4.319.308.381.064.767.205 1.109.389 2.727 1.468 4.834 3.614 6.564 6.143.315.459.455 1.042.652 1.575.542 1.461 1.202 1.887 2.71 2.037 1.755.174 3.451.596 4.878 1.744.477.384 1.006.705 1.498 1.071 1.427 1.064 2.133 2.659 2.975 4.143.207.364.224.846.287 1.279.237 1.611.468 3.222.677 4.837.082.632-.253.982-.847 1.045-2.357.249-4.712.513-7.068.774-3.527.391-7.051.822-10.582 1.164-3.454.335-6.921.549-10.376.874-4.503.422-9.002.88-13.499 1.365-2.186.236-4.361.587-6.546.848-.822.099-1.665.042-2.488.142-1.165.14-2.319.376-3.483.541-2.34.332-4.677.757-7.031.906-.878.055-1.958.105-2.759-.589-.701-.608-1.004-1.421-1.118-2.323-.143-1.158.055-1.569 1.058-2.153.147-.086.288-.185.506-.326" fill="#231f20"/><path d="m468.514 165.45c-.782.024-1.476.008-2.161.071-2.747.253-5.508.425-8.235.825-2.995.441-6.011.687-9.001 1.165-1.679.268-3.404.245-5.094.463-1.992.258-3.963.674-5.953.942-1.166.157-2.353.2-3.532.217-1.099.016-1.81-.593-2.101-1.639-.46-1.646-.889-3.3-1.321-4.954-.701-2.67-1.46-5.326-2.063-8.018-.421-1.885-.584-3.827-.935-5.73-.348-1.896-.797-3.774-1.185-5.663-.437-2.13-.794-2.812 1.638-3.863 2.451-1.058 4.919-2.104 7.45-2.938 2.698-.889 5.481-1.515 8.223-2.27 5.062-1.393 10.261-1.979 15.451-2.602 1.378-.166 2.795-.054 4.192-.007.645.022 1.19.294 1.33 1.048.151.817.463 1.624.484 2.441.037 1.449.175 2.863.507 4.281.207.882.104 1.832.205 2.744.46 4.1.929 8.199 1.425 12.297.33 2.729.488 5.461.419 8.212-.023.951.158 1.907.257 2.978" fill="#f79031"/><path d="m469.691 165.404c-.13-.944-.281-1.677-.32-2.415-.109-2.055-.077-4.121-.271-6.166-.302-3.179-.769-6.343-1.116-9.519-.247-2.266-.412-4.542-.612-6.794 2.855-1.689 7.922-.463 10.809 3.483-.419.14-.803.27-1.235.415-.18-.233-.372-.416-.485-.64-.62-1.225-1.687-1.793-2.977-1.882-1.08-.075-2.123-.52-3.254-.197-1.089.311-1.332.518-1.168 1.638.089.605.249 1.202.405 1.795.268 1.018.538 2.037.844 3.044.189.623.445 1.225.676 1.851 1.079-.208 2.053-.425 3.037-.578.944-.148 1.899-.23 2.913-.348.004.414-.01.673.011.93.088 1.075.381 1.318 1.422 1.195 1.432-.168 1.749-.552 1.58-1.981-.118-.999-.269-1.994-.405-2.991l.246-.081c.127.189.288.364.372.571.181.447.365.9.471 1.368.373 1.64 1.54 2.387 3.06 2.377 2.882-.021 4.877 1.667 7.049 3.266-.905 1.696-.325 3.357-.013 5.021.048.258.156.504.215.76.329 1.457.399 1.516 1.922 1.581.129.005.256.037.375.055.498 1.211.284 1.629-.915 1.791-3.836.519-7.668 1.078-11.513 1.534-2.088.249-4.198.308-6.297.476-1.139.091-2.275.235-3.413.346-.424.042-.851.058-1.413.095" fill="#ee4298"/><path d="m469.88 143.025c.475 1.666.938 3.349 1.436 5.023.245.819.399.902 1.233.809.655-.074 1.308-.185 1.961-.281.727-.107 1.454-.216 2.212-.331.39-3.101-2.346-5.611-5.068-5.611-.603 0-1.206.123-1.774.391z" fill="url(#a)"/><path d="m491.983 160.29c-1.083-3.74-1.163-4.511-.539-5.741 1.261 1.666 1.836 3.459 1.941 5.549-.475.065-.911.125-1.402.192" fill="#ece6bc"/><path d="m477.651 144.931c.451.092.807.165 1.179.241.125 1.411.239 2.715.354 4.018.095 1.08.021 1.149-1.385 1.169-.047-1.758-.096-3.519-.148-5.428" fill="#bbbdc0"/><path d="m431.767 169.195c-.405-.118-.715-.121-.769-.239-.301-.664-.593-1.343-.783-2.044-.125-.464.036-.881.78-.79.238.948.483 1.925.772 3.073" fill="#afb1b4"/><path d="m434.856 168.884c.458 3.463 3.488 5.833 6.91 5.406 3.38-.423 5.849-3.568 5.432-6.92-.439-3.52-3.498-5.883-7.007-5.413-3.495.468-5.795 3.454-5.335 6.927m-.8.23c-.523-3.877 2.17-7.408 6.034-7.911 3.875-.504 7.42 2.201 7.926 6.048.509 3.865-2.19 7.381-6.066 7.903-3.899.525-7.366-2.128-7.894-6.04" fill="#231f20"/><path d="m441.633 171.754c2.156-.303 3.556-2.176 3.246-4.345-.301-2.113-2.291-3.616-4.352-3.288-2.079.33-3.581 2.347-3.275 4.394.316 2.107 2.251 3.538 4.381 3.239m-6.777-2.871c-.46-3.473 1.84-6.459 5.335-6.927 3.508-.47 6.568 1.894 7.006 5.413.417 3.353-2.051 6.498-5.431 6.92-3.422.428-6.452-1.942-6.91-5.406" fill="#645745"/><path d="m443.829 167.441c-.243-1.616-1.71-2.713-3.311-2.477-1.542.228-2.694 1.811-2.45 3.367.243 1.55 1.823 2.715 3.36 2.479 1.583-.243 2.646-1.735 2.401-3.369m-2.195 4.313c-2.13.299-4.066-1.132-4.381-3.239-.307-2.047 1.196-4.064 3.274-4.394 2.062-.328 4.052 1.175 4.353 3.288.309 2.169-1.09 4.042-3.246 4.345" fill="#231f20"/><path d="m443.829 167.441c.245 1.634-.818 3.126-2.401 3.369-1.537.236-3.117-.929-3.36-2.479-.244-1.556.908-3.139 2.45-3.367 1.601-.236 3.068.861 3.311 2.477" fill="#c9cacc"/><path d="m439.996 166.472c.704-.436 1.592-.5 2.403-.333-.245-.559-.954-.761-1.561-.702-.883.086-1.731.614-2.12 1.41-.39.797-.262 1.841.368 2.464-.278-.276-.166-1.188-.08-1.519.141-.543.513-1.026.99-1.32" fill="#fff"/><path d="m436.971 163.991c.276-.286.582-.545.92-.756.547-.344 1.167-.556 1.792-.72 1.083-.285 2.312-.415 3.257.187-.945-.254-1.953-.032-2.869.312-1.692.636-3.292 1.776-3.992 3.443-.68 1.627-.379 3.482.436 5-.426-.557-.781-.911-.978-1.612-.188-.674-.253-1.38-.204-2.078.099-1.394.661-2.766 1.638-3.776" fill="#c99f7b" opacity=".31"/><path d="m442.142 172.413c1.435-.298 2.789-1.184 3.424-2.505.634-1.321.411-3.069-.692-4.033.746 1.58.509 3.605-.668 4.895-1.177 1.291-3.257 1.696-4.782.844.435.218.64.639 1.156.788.502.145 1.055.116 1.562.011" fill="#c99f7b" opacity=".31"/><path d="m477.365 164.382c.459 3.463 3.488 5.833 6.91 5.406 3.381-.423 5.849-3.568 5.432-6.92-.439-3.52-3.497-5.883-7.007-5.413-3.494.468-5.794 3.453-5.335 6.927m-.8.23c-.522-3.877 2.171-7.408 6.034-7.911 3.876-.504 7.421 2.201 7.926 6.048.509 3.865-2.19 7.381-6.065 7.903-3.899.525-7.366-2.128-7.895-6.04" fill="#231f20"/><path d="m484.143 167.253c2.157-.303 3.557-2.176 3.247-4.345-.302-2.113-2.291-3.616-4.353-3.288-2.079.33-3.581 2.347-3.275 4.394.316 2.107 2.251 3.538 4.381 3.239m-6.777-2.871c-.459-3.473 1.84-6.459 5.335-6.927 3.509-.47 6.568 1.894 7.006 5.413.417 3.353-2.05 6.498-5.431 6.92-3.422.428-6.451-1.942-6.91-5.406" fill="#645745"/><path d="m486.338 162.94c-.242-1.616-1.709-2.713-3.311-2.477-1.541.228-2.693 1.811-2.449 3.367.243 1.55 1.822 2.715 3.36 2.479 1.582-.243 2.645-1.736 2.4-3.369m-2.195 4.313c-2.13.299-4.066-1.132-4.381-3.239-.307-2.047 1.196-4.064 3.274-4.394 2.063-.328 4.052 1.175 4.354 3.288.309 2.169-1.09 4.042-3.247 4.345" fill="#231f20"/><path d="m486.338 162.94c.245 1.633-.818 3.126-2.4 3.369-1.538.236-3.117-.929-3.36-2.479-.244-1.556.908-3.139 2.449-3.367 1.602-.236 3.069.861 3.311 2.477" fill="#c9cacc"/><path d="m482.506 161.97c.705-.436 1.593-.5 2.404-.333-.245-.559-.954-.761-1.562-.702-.882.085-1.731.614-2.12 1.41-.39.797-.262 1.84.369 2.464-.279-.276-.167-1.188-.081-1.519.141-.544.513-1.026.99-1.32" fill="#fff"/><path d="m479.481 159.489c.276-.286.582-.545.919-.756.548-.344 1.168-.556 1.793-.72 1.083-.285 2.312-.415 3.256.187-.945-.254-1.953-.032-2.868.312-1.692.636-3.293 1.776-3.992 3.443-.681 1.627-.379 3.482.435 5-.426-.557-.781-.911-.978-1.612-.188-.674-.253-1.38-.204-2.078.099-1.395.662-2.766 1.639-3.776" fill="#c99f7b" opacity=".31"/><path d="m484.652 167.912c1.435-.298 2.789-1.184 3.423-2.505s.412-3.069-.692-4.033c.746 1.58.51 3.605-.668 4.895-1.176 1.291-3.257 1.696-4.782.844.435.218.641.639 1.157.788.501.145 1.055.116 1.562.011" fill="#c99f7b" opacity=".31"/><path d="m454.557 152.492-9.865 1.349c-3.267.446-6.306-1.861-6.752-5.127-.446-3.267 1.86-6.305 5.128-6.751l9.864-1.349c3.267-.447 6.305 1.86 6.752 5.127.446 3.266-1.86 6.304-5.127 6.751" fill="#fff" opacity=".5"/></g><path d="m430.093 156.956 37.09-5.072.47 3.438-37.09 5.072z" fill="#fff203"/><path d="m447.966 149.993c.051.375-.001.755-.157 1.14s-.396.692-.719.921c-.324.228-.756.379-1.297.453-.535.073-.99.043-1.363-.09-.374-.133-.687-.364-.941-.693-.253-.33-.406-.682-.457-1.056-.055-.401.008-.799.19-1.195.181-.395.492-.732.933-1.009-.395-.133-.703-.319-.925-.56-.221-.24-.356-.532-.403-.877-.046-.339.003-.67.147-.992.145-.321.382-.582.712-.783.33-.2.685-.326 1.064-.378.383-.053.761-.025 1.133.081.371.107.67.295.895.563.226.269.362.574.408.913.047.345-.004.662-.152.953-.149.291-.396.554-.742.787.496.15.885.391 1.168.723s.451.698.506 1.099zm-2.793-2.021c.371-.051.66-.212.87-.482.209-.271.292-.567.248-.89-.049-.352-.216-.62-.503-.803s-.6-.251-.94-.204c-.331.045-.611.194-.841.448-.229.253-.32.556-.272.909.044.322.203.586.475.791.272.204.593.281.963.231zm.099.718c-.271.037-.518.141-.743.312-.226.17-.392.393-.498.667-.107.274-.142.546-.105.817.036.261.138.506.307.733.168.228.386.389.652.484.265.094.536.123.81.085.279-.038.534-.138.765-.301.23-.162.396-.376.498-.64.101-.265.134-.528.098-.789-.037-.271-.143-.523-.32-.759-.176-.235-.396-.405-.659-.509-.262-.104-.531-.137-.805-.1z" fill="#231f20" fill-rule="nonzero"/><path d="m450.928 147.81-.479-3.496 3.706-.507.108.791-2.908.398.266 1.947.216-.029c.745-.102 1.334-.089 1.766.038s.778.343 1.037.647.421.694.486 1.169c.086.627-.031 1.213-.352 1.759-.32.545-.881.873-1.683.982-.632.087-1.158.017-1.58-.21-.421-.226-.659-.538-.713-.934l-.007-.046.863-.118.006.046c.029.209.162.365.4.468.239.103.545.128.92.077.505-.069.856-.282 1.054-.64.197-.358.268-.741.212-1.151-.063-.457-.276-.819-.641-1.084s-1.037-.331-2.017-.197z" fill="#231f20" fill-rule="nonzero"/></g></svg>