<svg clip-rule="evenodd" fill-rule="evenodd" stroke-linejoin="round" stroke-miterlimit="2" viewBox="0 0 65 38" xmlns="http://www.w3.org/2000/svg" xmlns:xlink="http://www.w3.org/1999/xlink"><linearGradient id="a"><stop offset="0" stop-color="#9fddf9"/><stop offset="1" stop-color="#507593"/></linearGradient><linearGradient id="b" gradientTransform="matrix(0 -7.95132 7.95132 0 384.952 150.135)" gradientUnits="userSpaceOnUse" x1="0" x2="1" xlink:href="#a" y1="0" y2="0"/><linearGradient id="c" gradientTransform="matrix(0 -6.58406 6.58406 0 367.846 148.622)" gradientUnits="userSpaceOnUse" x1="0" x2="1" xlink:href="#a" y1="0" y2="0"/><g fill-rule="nonzero" transform="translate(-348 -136)"><path d="m354.243 150.985c-.268 1.709-1.152 3.12-1.265 4.76.895.105 1.581-.207 2.191-.635.292-.205.554-.581.641-.927.276-1.094-.36-2.397-1.567-3.198m56.677 13.242c.296-1.07.05-1.81-.456-2.528-.502-.711-.913-1.485-1.373-2.226-.489-.787-1.158-.798-1.571.035-.476.961-.638 2.009-.304 3.052.332 1.04 1.006 1.74 2.188 1.74.512 0 1.024-.047 1.516-.073m-2.817-6.41c-.614-.695-1.077-1.43-1.726-1.914-1.793-1.335-3.621-2.647-5.9-3.074-.5-.094-.884-.375-1.083-.87-.553-1.38-1.106-2.761-1.664-4.139-.147-.364-.289-.733-.473-1.079-1.581-2.954-4.01-5.052-6.81-6.798-2.44-1.523-5.214-1.797-7.944-2.109-2.395-.276-4.825-.242-7.24-.344-.528-.022-1.056-.032-1.583-.053-2.535-.1-5.068-.242-7.604-.293-1.44-.029-2.886.055-4.324.152-1.235.083-2.421.379-3.483 1.074-.381.25-.541.569-.46 1 .057.301.158.593.241.888.352 1.244.218 2.408-.492 3.513-1.24 1.93-2.023 4.071-2.822 6.075.561.836 1.149 1.515 1.515 2.297.926 1.981.222 3.773-1.765 4.302-1.168.312-2.165.904-3.233 1.385-.699.314-1.098.81-1.338 1.523-.411 1.219-.588 2.471-.65 3.746-.051 1.074-.282 2.198.847 2.936.101.065.164.211.208.332.364 1.007 1.244 1.252 2.128 1.239 1.835-.027 3.681.341 5.512-.149.451-.121.964-.034 1.446-.008.96.054 1.92.194 2.878.183 1.402-.014 2.805-.192 4.207-.186 1.753.007 3.504.164 5.256.195 2.464.043 4.931-.029 7.392.056 2.522.087 5.037.361 7.558.449 4.081.143 8.167.182 12.249.303 1.531.046 3.059.216 4.59.296 1.884.097 3.77.166 5.655.233.306.01.62-.02.918-.085.782-.17 1.256-.631 1.316-1.424.057-.774-.017-1.558-.035-2.456-2.206.404-4.043.127-4.891-2.122-.683-1.809-.132-3.545 1.604-5.074m-42.357-21.499c1.972.125 3.941.291 5.914.365 1.847.07 3.703-.048 5.545.08 3.67.255 7.382.168 10.962 1.248 1.317.398 2.514.98 3.666 1.745 1.962 1.305 3.733 2.8 5.086 4.724.778 1.105 1.4 2.325 2.035 3.525.552 1.044.962 2.167 1.559 3.182.236.402.765.735 1.23.884 2.213.71 4.162 1.855 5.838 3.443.663.629 1.276 1.344 1.772 2.109 1.755 2.709 3.334 5.5 3.181 8.895-.023.523-.103 1.046-.194 1.562-.256 1.455-.321 1.496-1.684 1.718-2.187.357-4.367.322-6.561.02-1.343-.185-2.706-.218-4.059-.328-5.439-.441-10.905-.277-16.343-.593-8.134-.473-16.264-.434-24.401-.446-2.46-.004-4.92-.032-7.38-.013-.78.006-1.486-.104-2.072-.66-.126-.12-.274-.298-.418-.306-1.175-.059-1.107-.88-1.098-1.7.01-.88-.083-1.766-.018-2.641.093-1.266.211-2.541.466-3.782.215-1.048.825-1.832 1.839-2.405.744-.42 1.361-1.158 1.624-2.079.301-1.045.571-2.106.977-3.111.937-2.319 1.957-4.604 2.925-6.91.305-.728.588-1.468.822-2.221.2-.649.106-1.293-.164-1.93-.681-1.606-.105-2.31 1.002-2.991 1.178-.725 2.445-1.193 3.847-1.202 1.366-.009 2.73-.002 4.095-.002.002-.06.005-.12.007-.18" fill="#231f20"/><path d="m374.147 140.977c-.342 0-.604-.041-.848.006-2.194.42-4.403.786-6.574 1.308-1.853.445-3.266 1.646-4.454 3.102-.578.708-.899 1.509-.758 2.446.168 1.111.737 1.617 1.86 1.617 2.244.001 4.489-.012 6.733-.018.704-.002 1.408.013 2.112.004 1.012-.011 1.103-.098 1.186-1.132.031-.394-.002-.795.049-1.186.122-.954.151-1.945.449-2.845.345-1.043.397-2.055.245-3.302m18.097 10.031c.059.366.096.493.098.621.016 1.059.046 1.13 1.049 1.263.737.098 1.491.186 2.23.143 1.847-.108 2.827-1.894 1.773-3.394-1.353-1.928-2.803-3.803-4.843-5.104-.549-.351-1.025-.817-1.563-1.188-.395-.272-.811-.578-1.262-.692-2.289-.579-4.549-1.347-6.928-1.451-1.792-.079-3.591-.043-5.386.003-.451.012-.896.265-1.31.395-.122.82-.261 1.509-.323 2.204-.153 1.693-.267 3.39-.403 5.086-.056.709.106.94.834 1.007 1.221.113 2.445.225 3.67.283 2.148.1 4.301.111 6.446.25 1.958.126 3.907.374 5.918.574m15.859 6.81c-1.736 1.529-2.287 3.265-1.604 5.074.847 2.248 2.685 2.525 4.89 2.121.019.898.093 1.682.035 2.456-.059.793-.534 1.254-1.315 1.424-.298.065-.612.095-.918.085-1.886-.067-3.772-.136-5.655-.233-1.532-.08-3.059-.25-4.59-.296-4.082-.121-8.167-.16-12.249-.304-2.522-.087-5.036-.361-7.559-.448-2.461-.085-4.928-.013-7.391-.056-1.752-.031-3.503-.188-5.255-.195-1.403-.006-2.805.172-4.207.186-.958.011-1.919-.13-2.879-.183-.483-.026-.995-.113-1.447.008-1.831.49-3.676.122-5.511.149-.884.013-1.764-.232-2.128-1.239-.044-.121-.108-.267-.208-.332-1.129-.739-.899-1.863-.847-2.935.062-1.275.238-2.527.65-3.747.24-.712.638-1.208 1.337-1.522 1.069-.481 2.066-1.073 3.234-1.385 1.987-.53 2.69-2.323 1.764-4.303-.366-.782-.954-1.461-1.514-2.297.799-2.004 1.582-4.145 2.822-6.076.71-1.104.844-2.269.491-3.512-.083-.295-.183-.587-.24-.888-.081-.431.078-.75.46-1 1.062-.694 2.248-.99 3.482-1.073 1.44-.097 2.885-.181 4.326-.152 2.535.051 5.068.191 7.602.293.528.021 1.056.031 1.583.053 2.415.101 4.846.068 7.24.342 2.731.313 5.505.587 7.946 2.109 2.8 1.747 5.227 3.845 6.808 6.799.185.345.327.715.474 1.079.558 1.378 1.11 2.759 1.664 4.139.198.495.583.776 1.083.87 2.278.427 4.107 1.739 5.9 3.075.649.484 1.112 1.219 1.726 1.914" fill="#519072"/><path d="m410.92 164.227c-.492.025-1.004.073-1.516.073-1.182.001-1.856-.7-2.188-1.74-.334-1.043-.172-2.091.305-3.052.412-.832 1.082-.822 1.57-.035.46.741.871 1.515 1.373 2.226.506.718.752 1.458.456 2.528" fill="#ece6bc"/><path d="m354.243 150.985c1.207.801 1.843 2.104 1.567 3.198-.087.346-.349.722-.641.927-.61.428-1.296.74-2.191.635.113-1.64.997-3.051 1.265-4.76" fill="#f05222"/><path d="m393.01 152.004c1.033.345 1.86.381 2.671.152 1.212-.343 1.501-1.273.748-2.263-.423-.556-.842-1.115-1.279-1.66-.201-.25-.441-.468-.809-.854-.66 1.607-.727 3.141-1.331 4.625m-.244-1.868c.163-.767.321-1.481.464-2.197.194-.98-.163-1.685-1.023-2.209-.747-.455-1.418-1.034-2.16-1.497-.516-.322-1.072-.632-1.652-.787-1.392-.372-2.811-.643-4.216-.965-2.083-.477-4.188-.259-6.283-.16-.749.036-.971.345-1.052 1.094-.074.696-.18 1.391-.204 2.089-.035.996-.009 1.994-.009 3.078 1.016.196 1.952.483 2.901.538 2.543.149 5.09.185 7.635.293.872.037 1.745.131 2.612.244.949.124 1.89.301 2.987.479m-.523.873c-2.01-.2-3.96-.448-5.917-.575-2.144-.138-4.297-.149-6.446-.25-1.225-.057-2.449-.17-3.671-.282-.727-.067-.889-.298-.833-1.008.136-1.695.25-3.392.403-5.085.062-.696.201-1.385.323-2.204.414-.131.859-.383 1.309-.395 1.795-.047 3.596-.082 5.388-.003 2.379.104 4.639.871 6.927 1.451.451.114.867.419 1.262.691.538.371 1.013.838 1.563 1.188 2.04 1.301 3.489 3.177 4.843 5.105 1.053 1.499.074 3.286-1.774 3.393-.738.043-1.492-.045-2.229-.142-1.003-.133-1.033-.204-1.049-1.263-.002-.128-.039-.255-.099-.621" fill="#231f20"/><path d="m369.199 148.517c0 .031.001.063.001.094.308 0 .618.028.922-.006.52-.058 1.037-.155 1.556-.236.807-.126.972-.285 1.045-1.043.064-.65.088-1.306.176-1.953.112-.821.29-1.634.401-2.455.09-.68-.087-.904-.772-.878-.651.025-1.301.152-1.947.257-1.91.307-3.772.741-5.459 1.769-1.16.707-2.101 1.578-2.614 2.849-.315.779-.092 1.252.72 1.5.41.124.858.177 1.287.176 1.562-.005 3.122-.047 4.684-.074m4.948-7.54c.153 1.248.1 2.259-.245 3.303-.298.9-.327 1.891-.449 2.845-.051.391-.018.791-.049 1.186-.083 1.033-.174 1.12-1.185 1.132-.705.008-1.409-.006-2.113-.004-2.244.005-4.489.019-6.733.018-1.123-.001-1.691-.506-1.859-1.618-.141-.937.179-1.738.757-2.446 1.189-1.456 2.601-2.656 4.454-3.102 2.171-.522 4.38-.887 6.575-1.307.244-.047.505-.007.847-.007" fill="#231f20"/><path d="m377.896 142.321c-.748.035-.971.344-1.052 1.093-.073.697-.179 1.392-.205 2.09-.035.995-.008 1.993-.008 3.078 1.015.195 1.952.482 2.902.538 2.542.149 5.09.185 7.634.293.872.037 1.745.13 2.612.244.949.125 1.89.3 2.987.478.163-.766.321-1.48.463-2.196.195-.981-.163-1.685-1.022-2.209-.747-.455-1.418-1.034-2.16-1.498-.516-.322-1.072-.632-1.653-.786-1.391-.372-2.811-.644-4.216-.965-.99-.227-1.987-.297-2.983-.297-1.1 0-2.2.085-3.299.137z" fill="url(#b)"/><path d="m393.01 152.004c.604-1.484.671-3.018 1.331-4.625.368.386.608.604.809.854.437.545.856 1.104 1.279 1.66.753.99.464 1.92-.748 2.263-.811.229-1.638.193-2.671-.152" fill="#519072"/><path d="m372.527 142.04c-.651.025-1.299.152-1.946.256-1.911.308-3.772.742-5.46 1.77-1.16.706-2.1 1.578-2.615 2.849-.314.779-.091 1.252.722 1.5.41.125.857.177 1.287.175 1.561-.004 3.122-.046 4.683-.073 0 .031.001.063.001.095.308 0 .618.027.923-.007.52-.057 1.036-.155 1.555-.236.807-.126.973-.285 1.046-1.043.063-.65.088-1.306.175-1.952.112-.822.291-1.635.401-2.457.086-.644-.069-.879-.671-.879-.032 0-.066.001-.101.002z" fill="url(#c)"/><path d="m351.905 166.658c-.015 3.494 2.666 6.252 6.114 6.292 3.407.04 6.279-2.741 6.319-6.12.043-3.546-2.668-6.302-6.208-6.312-3.527-.01-6.209 2.637-6.225 6.14m-.823.121c.007-3.913 3.153-7.047 7.051-7.021 3.907.025 7.053 3.186 7.032 7.066-.02 3.898-3.17 7.016-7.08 7.008-3.934-.008-7.01-3.107-7.003-7.053" fill="#231f20"/><path d="m358.232 170.421c2.178-.008 3.818-1.674 3.806-3.865-.013-2.134-1.781-3.893-3.868-3.848-2.104.046-3.867 1.841-3.839 3.91.026 2.131 1.751 3.811 3.901 3.803m-6.326-3.763c.015-3.503 2.698-6.15 6.224-6.14 3.54.01 6.251 2.766 6.208 6.313-.04 3.378-2.912 6.159-6.318 6.12-3.448-.04-6.129-2.799-6.114-6.293" fill="#645745"/><path d="m360.991 166.446c-.021-1.634-1.326-2.92-2.945-2.902-1.558.016-2.914 1.429-2.883 3.003.031 1.569 1.437 2.937 2.992 2.912 1.602-.027 2.857-1.362 2.836-3.013m-2.76 3.976c-2.15.007-3.875-1.673-3.901-3.803-.027-2.069 1.735-3.864 3.839-3.91 2.088-.046 3.855 1.714 3.868 3.847.013 2.191-1.628 3.858-3.806 3.866" fill="#231f20"/><path d="m360.991 166.446c.021 1.651-1.234 2.986-2.836 3.013-1.555.025-2.961-1.343-2.992-2.912-.031-1.574 1.325-2.987 2.883-3.003 1.619-.018 2.924 1.268 2.945 2.902" fill="#c9cacc"/><path d="m357.325 164.966c.758-.336 1.646-.279 2.427-.003-.167-.588-.842-.884-1.452-.908-.886-.035-1.798.373-2.292 1.11-.495.737-.509 1.788.031 2.491-.238-.311-.004-1.199.126-1.516.215-.519.648-.946 1.16-1.174" fill="#fff"/><path d="m354.664 162.098c.313-.246.651-.461 1.014-.625.589-.266 1.232-.392 1.874-.47 1.111-.136 2.346-.098 3.201.627-.902-.38-1.932-.297-2.885-.08-1.763.401-3.503 1.314-4.421 2.87-.895 1.521-.848 3.399-.246 5.013-.347-.609-.651-1.008-.751-1.729-.095-.693-.064-1.402.079-2.087.287-1.368 1.031-2.651 2.135-3.519" fill="#c99f7b" opacity=".31"/><path d="m358.647 171.143c1.462-.101 2.924-.795 3.731-2.018s.824-2.985-.138-4.089c.524 1.666.015 3.64-1.325 4.759-1.341 1.119-3.457 1.239-4.853.188.401.275.548.72 1.039.937.478.212 1.03.259 1.546.223" fill="#c99f7b" opacity=".31"/><path d="m392.419 166.428c-.016 3.494 2.665 6.252 6.113 6.292 3.407.04 6.279-2.741 6.32-6.12.042-3.546-2.668-6.302-6.209-6.312-3.526-.01-6.209 2.637-6.224 6.14m-.824.121c.007-3.913 3.154-7.047 7.051-7.021 3.907.025 7.053 3.186 7.032 7.066-.021 3.898-3.17 7.016-7.08 7.008-3.934-.008-7.01-3.107-7.003-7.053" fill="#231f20"/><path d="m398.745 170.19c2.178-.008 3.818-1.674 3.806-3.865-.013-2.134-1.781-3.893-3.868-3.848-2.103.046-3.866 1.841-3.839 3.91.027 2.131 1.751 3.811 3.901 3.803m-6.325-3.763c.014-3.503 2.698-6.15 6.223-6.14 3.541.01 6.251 2.766 6.209 6.312-.041 3.379-2.913 6.16-6.319 6.121-3.448-.04-6.129-2.799-6.113-6.293" fill="#645745"/><path d="m401.505 166.215c-.021-1.634-1.326-2.92-2.944-2.902-1.559.016-2.915 1.429-2.884 3.003.031 1.569 1.437 2.937 2.993 2.911 1.601-.026 2.856-1.361 2.835-3.012m-2.76 3.976c-2.15.007-3.874-1.673-3.901-3.803-.026-2.069 1.736-3.865 3.84-3.91 2.087-.046 3.854 1.714 3.867 3.847.013 2.191-1.628 3.858-3.806 3.866" fill="#231f20"/><path d="m401.505 166.215c.021 1.651-1.234 2.986-2.835 3.012-1.556.026-2.962-1.342-2.993-2.911-.031-1.574 1.325-2.987 2.884-3.003 1.618-.018 2.923 1.268 2.944 2.902" fill="#c9cacc"/><path d="m397.839 164.735c.758-.336 1.646-.279 2.427-.003-.167-.588-.842-.884-1.452-.908-.886-.035-1.798.373-2.292 1.11-.494.736-.508 1.788.032 2.491-.239-.311-.005-1.199.126-1.516.214-.519.647-.946 1.159-1.174" fill="#fff"/><path d="m395.178 161.867c.312-.246.65-.461 1.013-.625.59-.266 1.232-.392 1.874-.47 1.111-.136 2.347-.098 3.201.627-.901-.38-1.932-.297-2.885-.08-1.762.401-3.503 1.314-4.421 2.87-.895 1.521-.847 3.399-.246 5.013-.347-.609-.651-1.008-.75-1.729-.096-.693-.064-1.402.079-2.087.287-1.368 1.031-2.651 2.135-3.519" fill="#c99f7b" opacity=".31"/><path d="m399.16 170.912c1.462-.101 2.925-.795 3.731-2.018.808-1.223.825-2.985-.138-4.089.524 1.666.016 3.64-1.325 4.759s-3.457 1.239-4.852.188c.4.275.547.72 1.038.937.479.212 1.03.259 1.546.223" fill="#c99f7b" opacity=".31"/><path d="m383.359 164.878h-9.956c-3.298 0-5.995-2.698-5.995-5.995s2.697-5.994 5.995-5.994h9.956c3.297 0 5.995 2.697 5.995 5.994s-2.698 5.995-5.995 5.995" fill="#fff" opacity=".5"/><g fill="#231f20"><path d="m376.908 161.307c0 .378-.103.747-.31 1.108-.207.36-.486.632-.838.814-.351.183-.8.274-1.345.274-.541 0-.987-.091-1.339-.274-.352-.182-.631-.454-.838-.814-.207-.361-.31-.73-.31-1.108 0-.405.117-.791.35-1.158s.587-.659 1.062-.874c-.374-.185-.654-.411-.841-.679-.187-.269-.281-.577-.281-.924 0-.343.094-.664.281-.963s.457-.525.811-.679.722-.231 1.105-.231c.387 0 .757.078 1.111.234s.625.383.812.679c.186.297.28.617.28.96 0 .347-.094.655-.28.924-.187.268-.468.494-.841.679.47.215.823.507 1.058.874.236.367.353.753.353 1.158zm-2.493-2.382c.374 0 .683-.119.927-.359s.366-.522.366-.848c0-.356-.13-.644-.39-.864-.259-.22-.56-.33-.903-.33-.334 0-.632.11-.894.33s-.392.508-.392.864c0 .326.121.608.362.848.242.24.55.359.924.359zm0 .726c-.273 0-.532.069-.779.208-.246.138-.44.336-.583.593-.143.258-.215.523-.215.795 0 .264.069.52.205.769.136.248.33.437.58.567.251.13.515.194.792.194.281 0 .547-.064.798-.194s.444-.319.58-.567c.137-.249.205-.505.205-.769 0-.272-.072-.537-.214-.795-.143-.257-.338-.455-.584-.593-.247-.139-.508-.208-.785-.208z"/><path d="m380.441 159.895c.216-.277.426-.486.63-.627.205-.14.41-.245.617-.313s.431-.102.673-.102c.624 0 1.124.223 1.5.669.376.447.564.986.564 1.62 0 .444-.098.846-.293 1.207-.196.36-.467.643-.815.847-.347.205-.728.307-1.141.307-.479 0-.929-.141-1.349-.422-.42-.282-.738-.707-.953-1.276-.215-.57-.323-1.272-.323-2.108 0-1.187.243-2.134.729-2.84.486-.705 1.184-1.058 2.094-1.058.616 0 1.081.136 1.395.409.314.272.472.582.472.93v.046h-.871v-.046c0-.15-.083-.289-.247-.419-.165-.13-.41-.195-.736-.195-.382 0-.719.117-1.009.35s-.519.612-.686 1.138c-.167.525-.251 1.067-.251 1.626zm1.735 2.882c.383 0 .701-.159.956-.478.256-.319.383-.713.383-1.184 0-.475-.135-.85-.406-1.124-.27-.275-.599-.413-.986-.413-.426 0-.774.158-1.042.472s-.402.689-.402 1.125c0 .285.066.557.198.814s.313.453.544.587.482.201.755.201z"/></g></g></svg>