<svg clip-rule="evenodd" fill-rule="evenodd" stroke-linejoin="round" stroke-miterlimit="2" viewBox="0 0 65 36" xmlns="http://www.w3.org/2000/svg" xmlns:xlink="http://www.w3.org/1999/xlink"><linearGradient id="a"><stop offset="0" stop-color="#9fddf9"/><stop offset="1" stop-color="#507593"/></linearGradient><linearGradient id="b" gradientTransform="matrix(0 -7.70562 7.70562 0 302.48 151.622)" gradientUnits="userSpaceOnUse" x1="0" x2="1" xlink:href="#a" y1="0" y2="0"/><linearGradient id="c" gradientTransform="matrix(0 -7.54709 7.54709 0 286.941 151.121)" gradientUnits="userSpaceOnUse" x1="0" x2="1" xlink:href="#a" y1="0" y2="0"/><g fill-rule="nonzero" transform="translate(-268 -139)"><path d="m273.213 157.086c-.501 1.275-.936 2.379-1.407 3.579 1.698-.587 2.102-1.584 1.407-3.579m53.046.775c-1.347.849-1.497 2.305-.406 3.34.783.744 1.776 1.066 2.849 1.116.1.005.206-.127.343-.219-.494-1.69-1.511-2.998-2.786-4.237m-56.031 9.364c3.016.077 5.909.163 8.802.213.563.01 1.13-.204 1.69-.178 2.762.125 5.519.332 8.282.441 3.647.142 7.296-.105 10.945.232 2.621.241 5.268.258 7.904.285 4.222.043 8.441.088 12.661.299 2.853.144 5.721-.003 8.581-.012.742-.002 1.495-.205 1.847-.808.736-1.266.896-2.655.248-4.043-.351-.752-.792-.996-1.582-.741-1.409.455-2.635-.041-3.745-.755-1.721-1.107-1.973-2.961-.747-4.536.498-.64.481-.795-.169-1.241-1.274-.875-2.601-1.619-4.153-1.912-.985-.187-1.779-.696-2.266-1.633-1.33-2.561-3.17-4.749-5.127-6.833-1.213-1.293-2.694-2.24-4.354-2.906-2.162-.867-4.398-1.492-6.612-2.202-4.823-1.547-9.428-1.05-13.987.912-3.069 1.32-5.666 3.332-8.124 5.533-2.546 2.28-4.368 5.138-6.192 7.987-.308.482-.32.939-.153 1.489.2.663.411 1.382.346 2.051-.123 1.285-.928 2.095-2.131 2.616-2.017.875-2.709 2.083-2.419 4.019.077.513.262 1.009.455 1.723m57.385 2.031c-1.224.092-2.449.252-3.673.257-1.535.008-3.072-.07-4.602-.186-4.035-.306-8.078-.245-12.12-.271-1.176-.008-2.355-.281-3.525-.238-2.68.1-5.339-.166-8.008-.262-2.496-.09-4.999-.005-7.497-.048-4.481-.076-8.96-.18-13.44-.293-1.485-.037-2.97-.128-4.454-.214-.925-.054-1.365-.476-1.395-1.395-.029-.833-.028-1.676.06-2.504.104-.973.407-1.861 1.216-2.547.38-.323.663-.828.844-1.306 1.554-4.111 3.799-7.83 6.55-11.224 1.805-2.226 4.018-4.049 6.426-5.623 2.299-1.499 4.75-2.644 7.4-3.373 3.089-.85 6.158-1.156 9.346-.384 3.165.766 6.269 1.677 9.253 2.961 1.83.79 3.369 1.981 4.724 3.486 1.86 2.067 3.412 4.341 4.995 6.607.301.431.858.721 1.353.967.463.23 1.003.304 1.503.466.875.283 1.729.559 2.409 1.269.439.46 1.087.712 1.591 1.121 1.352 1.095 2.297 2.542 3.155 4.016.387.667.832 1.143 1.52 1.316.681.171.898.646 1.07 1.201.468 1.514.389 3.036-.006 4.547-.072.277-.244.623-.474.75-.82.456-1.549 1.161-2.636.967-.511-.092-1.052-.016-1.581-.016-.001-.015-.003-.031-.004-.047" fill="#231f20"/><path d="m292.667 143.324c-1.035-.712-1.039-.724-1.947-.465-.503.144-1.008.301-1.487.51-2.927 1.272-5.18 3.385-7.138 5.838-.452.567-1.041 1.242-.612 2.017.381.686 1.192.645 1.898.645 1.932-.001 3.866.013 5.799-.035.632-.016 1.259-.205 1.77-.294.651-2.83.675-5.582 1.717-8.216m18.397 9.173c-.037.382-.066.595-.075.808-.037.862.059.996.938 1.008.789.012 1.586-.005 2.369-.099 1.146-.139 1.968-.871 2.111-1.87.155-1.072-.021-2.208-1.201-2.828-.698-.367-1.42-.713-2.166-.96-.814-.27-1.495-.68-2.127-1.261-.54-.497-1.18-.9-1.817-1.275-2.126-1.25-4.576-1.467-6.906-2.022-2.081-.495-4.228-.703-6.345-1.046-1.526-.247-1.869.01-2.044 1.564-.113 1-.192 2.005-.344 2.999-.105.691-.347 1.361-.462 2.051-.248 1.486.051 1.862 1.524 2.018.217.024.438.023.658.03 3.377.097 6.756.148 10.13.311 1.874.089 3.737.364 5.757.572m-40.837 14.728c-.193-.713-.378-1.21-.456-1.723-.29-1.936.403-3.144 2.42-4.018 1.203-.521 2.008-1.332 2.131-2.617.065-.669-.146-1.388-.346-2.051-.167-.55-.155-1.008.153-1.489 1.824-2.85 3.646-5.708 6.193-7.987 2.458-2.202 5.055-4.212 8.123-5.533 4.559-1.962 9.163-2.459 13.987-.912 2.214.71 4.451 1.335 6.613 2.202 1.66.665 3.14 1.612 4.352 2.905 1.958 2.085 3.798 4.273 5.127 6.833.488.937 1.282 1.447 2.267 1.633 1.552.294 2.879 1.038 4.153 1.913.65.446.667.602.169 1.241-1.226 1.576-.974 3.43.746 4.536 1.111.714 2.337 1.21 3.746.755.79-.255 1.231-.01 1.582.741.649 1.388.488 2.777-.248 4.044-.352.603-1.105.805-1.847.808-2.861.008-5.728.155-8.581.011-4.22-.211-8.439-.256-12.66-.298-2.637-.027-5.284-.045-7.905-.286-3.649-.337-7.299-.089-10.945-.232-2.762-.108-5.52-.316-8.281-.441-.561-.025-1.128.188-1.691.178-2.893-.05-5.786-.136-8.802-.213" fill="#89cb96"/><path d="m326.259 157.861c1.275 1.239 2.292 2.547 2.786 4.237-.137.092-.243.224-.343.22-1.073-.051-2.066-.373-2.849-1.117-1.091-1.035-.941-2.491.406-3.34" fill="#ece6bc"/><path d="m273.213 157.086c.695 1.995.291 2.992-1.407 3.579.471-1.2.906-2.304 1.407-3.579" fill="#f05222"/><path d="m311.893 153.511c.207.044.376.118.541.108.523-.028 1.049-.072 1.569-.14 1.007-.132 1.499-.515 1.638-1.239.188-.982-.061-1.636-.908-2.123-.529-.304-1.102-.548-1.679-.75-.655-.228-1.099.056-1.226.755-.063.342-.052.7-.041 1.05.021.735.065 1.468.106 2.339m-17.003-9.538c-.11.407-.232.772-.305 1.146-.123.643-.208 1.292-.319 1.937-.142.819-.324 1.631-.432 2.454-.111.852.195 1.211 1.078 1.296 1.087.104 2.178.197 3.27.243 2.628.11 5.257.182 7.885.288.654.026 1.305.134 1.959.186.992.079 1.987.174 3.109.009 0-.666-.028-1.273.008-1.877.045-.759-.22-1.338-.764-1.873-.874-.859-1.952-1.322-3.06-1.738-2.267-.852-4.659-1.161-7.023-1.6-1.725-.32-3.442-.663-5.406-.471m16.174 8.525c-2.02-.208-3.883-.483-5.756-.572-3.374-.163-6.754-.214-10.131-.311-.22-.007-.44-.006-.658-.03-1.473-.157-1.772-.532-1.523-2.018.115-.69.356-1.36.461-2.051.153-.994.232-1.999.344-2.999.175-1.554.519-1.811 2.044-1.564 2.117.343 4.266.551 6.347 1.046 2.329.555 4.778.772 6.904 2.022.638.375 1.277.778 1.818 1.275.631.581 1.312.991 2.126 1.261.747.247 1.468.593 2.166.96 1.18.619 1.356 1.756 1.202 2.827-.144 1-.965 1.732-2.112 1.871-.783.094-1.58.111-2.369.099-.879-.012-.974-.146-.937-1.008.008-.213.038-.426.074-.808" fill="#231f20"/><path d="m291.594 143.574c-3.712.588-8.861 4.654-9.307 7.323 2.064.504 4.16-.026 6.224.145.594.05 1.241.081 1.868-.556.378-2.154.783-4.46 1.215-6.912m1.073-.25c-1.042 2.634-1.066 5.386-1.717 8.216-.51.089-1.138.278-1.77.294-1.933.048-3.866.034-5.799.035-.706 0-1.516.041-1.897-.645-.43-.775.159-1.45.611-2.017 1.958-2.453 4.211-4.566 7.139-5.838.478-.209.983-.366 1.486-.51.908-.259.912-.247 1.947.465" fill="#231f20"/><path d="m294.889 143.972c-.108.407-.232.772-.304 1.147-.123.642-.208 1.292-.319 1.937-.142.819-.324 1.63-.432 2.455-.111.85.194 1.21 1.077 1.294 1.088.105 2.179.198 3.272.245 2.627.109 5.256.181 7.884.286.654.026 1.304.134 1.958.186.993.079 1.988.176 3.109.009 0-.665-.027-1.272.009-1.876.045-.76-.22-1.339-.764-1.873-.874-.86-1.953-1.321-3.061-1.739-2.267-.852-4.66-1.161-7.022-1.6-1.38-.256-2.755-.526-4.254-.526-.376 0-.759.017-1.153.055z" fill="url(#b)"/><path d="m311.893 153.511c-.041-.871-.085-1.604-.106-2.339-.011-.35-.022-.708.041-1.05.127-.699.571-.983 1.226-.755.577.202 1.15.446 1.679.75.847.487 1.096 1.141.908 2.123-.139.724-.631 1.107-1.638 1.239-.52.068-1.046.112-1.569.14-.165.01-.334-.064-.541-.108" fill="#89cb96"/><path d="m282.287 150.898c1.229.3 2.471.234 3.71.166.84-.045 1.68-.09 2.514-.021.593.049 1.241.081 1.868-.557.378-2.154.784-4.459 1.215-6.912-3.712.588-8.863 4.654-9.307 7.324z" fill="url(#c)"/><path d="m275.116 166.934c-.015 3.494 2.665 6.252 6.114 6.292 3.407.04 6.279-2.742 6.319-6.12.043-3.546-2.668-6.302-6.208-6.313-3.527-.009-6.209 2.638-6.225 6.141m-.823.12c.007-3.912 3.153-7.046 7.05-7.02 3.908.025 7.054 3.185 7.033 7.066-.02 3.898-3.17 7.016-7.081 7.008-3.933-.008-7.01-3.107-7.002-7.054" fill="#231f20"/><path d="m281.442 170.697c2.178-.008 3.817-1.674 3.806-3.865-.013-2.134-1.782-3.893-3.868-3.847-2.104.045-3.867 1.84-3.84 3.91.027 2.13 1.751 3.81 3.902 3.802m-6.326-3.762c.015-3.504 2.698-6.151 6.224-6.141 3.54.01 6.251 2.767 6.208 6.313-.04 3.378-2.912 6.16-6.318 6.12-3.449-.04-6.129-2.799-6.114-6.292" fill="#645745"/><path d="m284.201 166.721c-.021-1.634-1.326-2.92-2.944-2.902-1.558.016-2.914 1.429-2.883 3.003.03 1.569 1.436 2.937 2.992 2.911 1.601-.026 2.856-1.361 2.835-3.012m-2.759 3.975c-2.151.008-3.875-1.672-3.902-3.802-.026-2.07 1.736-3.865 3.84-3.91 2.087-.046 3.855 1.714 3.868 3.847.012 2.191-1.628 3.857-3.806 3.865" fill="#231f20"/><path d="m284.201 166.721c.021 1.651-1.234 2.986-2.835 3.012-1.556.026-2.962-1.342-2.992-2.911-.031-1.574 1.325-2.987 2.883-3.003 1.618-.018 2.923 1.268 2.944 2.902" fill="#c9cacc"/><path d="m280.536 165.241c.757-.336 1.646-.28 2.427-.003-.167-.588-.842-.884-1.452-.908-.887-.035-1.798.373-2.292 1.11-.495.736-.509 1.788.031 2.491-.238-.311-.004-1.2.126-1.516.214-.519.648-.946 1.16-1.174" fill="#fff"/><path d="m277.875 162.374c.312-.246.651-.461 1.014-.625.589-.266 1.231-.392 1.874-.47 1.111-.136 2.346-.098 3.2.627-.901-.38-1.931-.297-2.885-.08-1.762.401-3.502 1.314-4.42 2.87-.895 1.52-.848 3.399-.247 5.013-.346-.609-.65-1.009-.75-1.729-.096-.693-.064-1.402.079-2.087.287-1.368 1.031-2.651 2.135-3.519" fill="#c99f7b" opacity=".31"/><path d="m281.858 171.419c1.462-.101 2.924-.795 3.731-2.018s.824-2.985-.138-4.089c.524 1.666.015 3.64-1.325 4.759-1.341 1.119-3.458 1.239-4.853.187.401.276.548.721 1.039.938.478.212 1.029.258 1.546.223" fill="#c99f7b" opacity=".31"/><path d="m312.602 167.795c-.015 3.494 2.665 6.252 6.114 6.292 3.407.04 6.279-2.742 6.319-6.12.043-3.546-2.668-6.302-6.209-6.312-3.526-.01-6.209 2.637-6.224 6.14m-.823.121c.007-3.913 3.153-7.047 7.05-7.021 3.908.025 7.054 3.186 7.033 7.066-.02 3.898-3.17 7.016-7.081 7.008-3.933-.008-7.01-3.107-7.002-7.053" fill="#231f20"/><path d="m318.928 171.558c2.178-.008 3.817-1.674 3.806-3.865-.013-2.134-1.782-3.893-3.868-3.848-2.104.046-3.867 1.841-3.84 3.91.027 2.131 1.751 3.811 3.902 3.803m-6.326-3.763c.014-3.503 2.698-6.15 6.223-6.14 3.541.01 6.252 2.766 6.209 6.312-.04 3.379-2.912 6.16-6.318 6.121-3.449-.04-6.129-2.799-6.114-6.293" fill="#645745"/><path d="m321.687 167.582c-.021-1.634-1.326-2.92-2.944-2.902-1.558.016-2.914 1.429-2.883 3.003.03 1.569 1.436 2.937 2.992 2.911 1.601-.026 2.856-1.361 2.835-3.012m-2.759 3.976c-2.151.007-3.875-1.673-3.902-3.803-.026-2.069 1.736-3.865 3.84-3.91 2.087-.046 3.855 1.714 3.868 3.847.012 2.191-1.628 3.857-3.806 3.866" fill="#231f20"/><path d="m321.687 167.582c.021 1.651-1.234 2.986-2.835 3.012-1.556.026-2.962-1.342-2.992-2.911-.031-1.574 1.325-2.987 2.883-3.003 1.618-.018 2.923 1.268 2.944 2.902" fill="#c9cacc"/><path d="m318.022 166.102c.757-.336 1.646-.279 2.427-.003-.167-.588-.842-.884-1.452-.908-.887-.035-1.798.373-2.292 1.11-.495.736-.509 1.788.031 2.491-.238-.311-.004-1.2.126-1.516.214-.519.648-.946 1.16-1.174" fill="#fff"/><path d="m315.361 163.234c.312-.246.65-.461 1.014-.625.589-.266 1.231-.392 1.874-.47 1.111-.136 2.346-.098 3.2.627-.901-.38-1.931-.297-2.885-.08-1.762.401-3.502 1.314-4.42 2.87-.895 1.52-.848 3.399-.247 5.013-.347-.609-.65-1.009-.75-1.729-.096-.693-.064-1.402.079-2.087.287-1.368 1.031-2.651 2.135-3.519" fill="#c99f7b" opacity=".31"/><path d="m319.343 172.279c1.462-.101 2.924-.795 3.731-2.018s.824-2.985-.138-4.089c.524 1.666.015 3.64-1.325 4.759-1.341 1.119-3.458 1.239-4.853.187.401.276.548.721 1.039.938.478.212 1.029.259 1.546.223" fill="#c99f7b" opacity=".31"/><path d="m305.63 165.049h-9.956c-3.298 0-5.996-2.698-5.996-5.995s2.698-5.994 5.996-5.994h9.956c3.297 0 5.994 2.697 5.994 5.994s-2.697 5.995-5.994 5.995" fill="#fff" opacity=".5"/><g fill="#231f20"><path d="m298.611 161.009c0 .379-.103.748-.31 1.108-.207.361-.486.633-.838.815-.351.183-.8.274-1.345.274-.541 0-.987-.091-1.339-.274-.352-.182-.631-.454-.838-.815-.207-.36-.31-.729-.31-1.108 0-.404.117-.79.35-1.157s.587-.659 1.062-.874c-.374-.185-.654-.411-.841-.68-.187-.268-.281-.576-.281-.923 0-.343.094-.664.281-.963s.457-.526.811-.68c.354-.153.722-.23 1.105-.23.387 0 .757.078 1.111.234s.625.382.812.679c.186.297.28.617.28.96 0 .347-.094.655-.28.923-.187.269-.468.495-.841.68.47.215.823.507 1.058.874s.353.753.353 1.157zm-2.493-2.381c.374 0 .683-.12.927-.359.244-.24.366-.523.366-.848 0-.356-.13-.644-.39-.864-.259-.22-.56-.33-.903-.33-.334 0-.632.11-.894.33s-.392.508-.392.864c0 .325.12.608.362.848.242.239.55.359.924.359zm0 .726c-.273 0-.532.069-.779.208-.246.138-.44.336-.583.593s-.215.522-.215.795c0 .264.068.52.205.768.136.249.33.438.58.568.251.129.515.194.792.194.281 0 .547-.065.798-.194.251-.13.444-.319.58-.568.137-.248.205-.504.205-.768 0-.273-.072-.538-.215-.795-.142-.257-.337-.455-.583-.593-.247-.139-.508-.208-.785-.208z"/><path d="m303.035 162.988h-.944v-.316c0-.506.074-1.02.221-1.541.148-.521.528-1.236 1.142-2.147.613-.91 1.131-1.655 1.553-2.236l.165-.231h-4.024v-.798h4.901v.798c-.07.11-.11.17-.119.179l-.672.903c-.418.567-.85 1.259-1.297 2.075-.446.815-.712 1.433-.798 1.853-.085.42-.128.786-.128 1.098z"/></g></g></svg>