<?xml version="1.0" encoding="UTF-8" standalone="no"?>
<!DOCTYPE svg PUBLIC "-//W3C//DTD SVG 1.1//EN" "http://www.w3.org/Graphics/SVG/1.1/DTD/svg11.dtd">
<svg width="100%" height="100%" viewBox="0 0 60 44" version="1.1" xmlns="http://www.w3.org/2000/svg" xmlns:xlink="http://www.w3.org/1999/xlink" xml:space="preserve" xmlns:serif="http://www.serif.com/" style="fill-rule:evenodd;clip-rule:evenodd;stroke-linejoin:round;stroke-miterlimit:2;">
    <g transform="matrix(1,0,0,1,-192,-132)">
        <g>
            <path d="M196.013,156.739C195.926,158.056 195.877,159.185 196.295,160.365C197.433,159.177 197.366,158.188 196.013,156.739M248.161,159.484C247.013,157.721 245.982,156.14 244.922,154.515C243.93,154.956 243.441,155.658 243.13,156.486C242.688,157.663 243.208,158.816 244.382,159.258C245.502,159.679 246.662,159.786 248.161,159.484M209.827,151.458C209.136,151.533 208.545,151.623 207.951,151.654C207.294,151.687 206.633,151.663 205.974,151.671C205.667,151.675 205.359,151.685 205.053,151.708C202.958,151.868 200.865,152.034 198.77,152.195C198.596,152.208 198.41,152.237 198.245,152.197C196.894,151.868 195.561,152.365 194.213,152.281C193.94,152.263 193.654,152.464 193.386,152.56C193.604,153.864 193.905,154.114 194.968,154.002C196.576,153.832 198.184,153.62 199.798,153.536C202.594,153.39 205.394,153.334 208.193,153.227C208.658,153.209 209.121,153.128 209.639,153.07C209.706,152.492 209.76,152.031 209.827,151.458M196.51,167.254C196.787,167.342 196.989,167.452 197.197,167.466C198.903,167.579 200.61,167.703 202.319,167.769C205.382,167.886 208.447,168.004 211.513,168.042C212.956,168.06 214.4,167.842 215.846,167.819C221.81,167.725 227.777,167.866 233.741,167.571C236.157,167.451 238.583,167.531 241.004,167.534C242.5,167.537 244.027,167.39 245.485,167.637C246.931,167.882 248.284,167.524 249.676,167.464C250.578,167.425 251.065,166.849 251.133,166.045C251.235,164.822 251.349,163.597 251.392,162.371C251.468,160.237 250.744,159.659 248.705,160.162C248.62,160.183 248.533,160.197 248.448,160.221C246.995,160.621 245.567,160.495 244.17,159.982C242.56,159.39 241.811,157.847 242.449,156.26C242.72,155.587 243.232,155.007 243.657,154.4C243.821,154.164 244.048,153.973 244.18,153.834C243.045,152.189 241.952,150.651 240.909,149.079C239.497,146.951 237.936,144.94 236.182,143.089C234.826,141.659 233.365,140.328 231.981,138.924C230.808,137.735 229.592,136.594 228.157,135.738C226.253,134.6 224.264,133.664 221.942,133.973C219.554,134.29 217.173,134.663 214.78,134.934C213.469,135.083 212.343,135.599 211.233,136.255C210.46,136.713 210.113,137.333 210.178,138.213C210.194,138.431 210.186,138.652 210.193,138.872C210.287,141.766 210.377,144.661 210.48,147.554C210.535,149.091 210.64,150.625 210.677,152.161C210.701,153.201 210.962,153.814 209.369,153.873C209.02,153.885 208.674,153.999 208.325,154.012C205.821,154.106 203.316,154.165 200.812,154.277C199.156,154.351 197.477,154.219 195.859,154.674C195.818,155.376 196.034,155.829 196.602,156.264C198.235,157.515 198.276,159.639 196.742,161.009C196.381,161.331 196.17,161.63 196.203,162.119C196.315,163.826 196.409,165.533 196.51,167.254M194.797,154.846C193.445,155.036 192.893,154.302 192.523,153.317C192.193,152.442 192.497,151.814 193.427,151.708C194.997,151.528 196.574,151.4 198.152,151.307C200.688,151.158 203.228,151.078 205.763,150.926C207.071,150.847 208.373,150.676 209.669,150.547C209.761,150.281 209.868,150.117 209.865,149.956C209.823,147.938 209.786,145.92 209.704,143.903C209.636,142.233 209.511,140.566 209.407,138.898C209.382,138.505 209.406,138.091 209.29,137.723C209.061,137.002 209.337,136.485 209.905,136.147C210.769,135.633 211.655,135.131 212.583,134.751C215.083,133.73 217.803,133.719 220.403,133.147C221.933,132.809 223.448,132.83 224.967,133.183C225.35,133.272 225.773,133.297 226.107,133.48C227.716,134.362 229.419,135.07 230.756,136.422C232.884,138.572 235.183,140.559 237.248,142.768C238.619,144.234 239.713,145.961 240.92,147.578C242.311,149.442 243.717,151.295 245.07,153.186C246.218,154.793 247.328,156.429 248.398,158.09C248.849,158.79 249.285,159.281 250.213,159.394C251.447,159.544 251.97,160.322 251.947,161.608C251.917,163.224 251.877,164.84 251.796,166.454C251.749,167.39 251.279,167.947 250.267,168.117C248.722,168.379 247.172,168.752 245.578,168.399C245.199,168.315 244.789,168.351 244.393,168.35C241.223,168.342 238.052,168.3 234.881,168.343C230.145,168.406 225.41,168.54 220.674,168.625C218.762,168.659 216.848,168.624 214.936,168.656C212.521,168.696 210.106,168.834 207.691,168.818C204.923,168.799 202.154,168.68 199.387,168.561C198.214,168.51 197.046,168.348 195.756,168.225C195.262,163.829 195.301,159.392 194.797,154.846" style="fill:rgb(35,31,32);fill-rule:nonzero;"/>
            <path d="M233.121,147.197C233.171,147.808 233.185,148.244 233.246,148.674C233.327,149.254 233.656,149.624 234.244,149.758C235.784,150.105 237.193,149.152 237.434,147.58C237.716,145.747 236.662,144.504 235.506,143.325C235.349,143.165 234.996,143.051 234.788,143.11C234.193,143.275 233.895,142.998 233.603,142.551C233.315,142.112 232.941,141.731 232.644,141.297C231.744,139.981 230.573,139.023 229,138.677C226.827,138.2 224.681,137.511 222.408,137.663C222.19,137.678 221.965,137.668 221.75,137.633C219.032,137.18 216.339,137.311 213.666,137.954C212.716,138.183 212.238,138.959 212.394,139.921C212.484,140.481 212.532,141.049 212.563,141.615C212.613,142.536 212.539,143.473 212.683,144.377C213.075,146.84 213.659,147.198 216.139,146.836C218.399,146.506 220.66,146.507 222.937,146.816C224.58,147.038 226.28,147.27 227.905,147.077C229.647,146.871 231.299,147.26 233.121,147.197M196.511,167.254C196.41,165.533 196.316,163.826 196.204,162.119C196.171,161.63 196.382,161.331 196.744,161.009C198.277,159.638 198.236,157.514 196.603,156.263C196.036,155.828 195.819,155.375 195.86,154.673C197.478,154.218 199.157,154.35 200.813,154.276C203.317,154.164 205.822,154.105 208.326,154.011C208.675,153.998 209.02,153.884 209.37,153.872C210.962,153.813 210.701,153.2 210.677,152.16C210.64,150.624 210.536,149.09 210.48,147.553C210.377,144.66 210.287,141.766 210.193,138.872C210.186,138.652 210.194,138.431 210.178,138.213C210.113,137.333 210.46,136.713 211.233,136.255C212.343,135.599 213.469,135.082 214.78,134.934C217.173,134.663 219.554,134.289 221.943,133.972C224.265,133.663 226.254,134.599 228.158,135.738C229.593,136.594 230.809,137.735 231.982,138.924C233.366,140.328 234.826,141.659 236.182,143.089C237.936,144.939 239.497,146.95 240.909,149.078C241.952,150.65 243.045,152.188 244.18,153.833C244.048,153.972 243.821,154.163 243.657,154.399C243.232,155.006 242.72,155.586 242.449,156.26C241.811,157.846 242.56,159.389 244.17,159.981C245.567,160.494 246.996,160.621 248.449,160.22C248.534,160.197 248.621,160.182 248.706,160.161C250.745,159.658 251.469,160.236 251.393,162.371C251.351,163.597 251.236,164.822 251.134,166.045C251.066,166.849 250.579,167.425 249.677,167.464C248.285,167.524 246.932,167.882 245.486,167.637C244.027,167.39 242.5,167.537 241.004,167.534C238.583,167.531 236.157,167.451 233.742,167.571C227.778,167.866 221.811,167.725 215.846,167.819C214.4,167.842 212.956,168.06 211.513,168.042C208.448,168.004 205.383,167.886 202.32,167.769C200.611,167.703 198.904,167.579 197.198,167.466C196.99,167.452 196.788,167.342 196.511,167.254" style="fill:rgb(134,112,179);fill-rule:nonzero;"/>
            <path d="M209.827,151.458C209.76,152.03 209.706,152.492 209.64,153.069C209.122,153.127 208.659,153.209 208.194,153.227C205.395,153.333 202.595,153.39 199.799,153.536C198.185,153.62 196.576,153.832 194.968,154.001C193.905,154.114 193.604,153.864 193.386,152.56C193.654,152.464 193.94,152.263 194.213,152.28C195.561,152.365 196.895,151.868 198.246,152.196C198.411,152.237 198.597,152.208 198.771,152.195C200.866,152.034 202.959,151.868 205.054,151.708C205.36,151.685 205.668,151.674 205.975,151.671C206.634,151.663 207.295,151.687 207.952,151.653C208.546,151.623 209.136,151.533 209.827,151.458" style="fill:rgb(134,112,179);fill-rule:nonzero;"/>
            <path d="M248.162,159.483C246.662,159.785 245.503,159.679 244.383,159.257C243.208,158.816 242.689,157.662 243.131,156.485C243.442,155.658 243.931,154.955 244.923,154.514C245.982,156.14 247.013,157.721 248.162,159.483" style="fill:rgb(236,230,188);fill-rule:nonzero;"/>
            <path d="M196.013,156.739C197.366,158.188 197.433,159.177 196.295,160.365C195.877,159.185 195.926,158.056 196.013,156.739" style="fill:rgb(240,82,34);fill-rule:nonzero;"/>
            <path d="M234.995,143.842C233.928,144.834 233.943,144.833 233.959,146.145C233.965,146.619 233.881,147.094 233.834,147.568C233.713,148.788 234.524,149.372 235.651,148.863C236.2,148.614 236.53,148.216 236.649,147.583C236.952,145.98 236.083,144.932 234.995,143.842M233.042,146.363C233.211,145.408 233.398,144.642 233.455,143.867C233.477,143.575 233.243,143.228 233.047,142.964C232.605,142.369 232.133,141.794 231.641,141.239C230.757,140.242 229.754,139.407 228.371,139.234C225.986,138.935 223.641,138.378 221.213,138.329C219.422,138.294 217.636,138.181 215.861,138.474C215.307,138.566 214.761,138.757 214.236,138.966C213.609,139.215 213.267,139.681 213.326,140.403C213.444,141.843 213.502,143.29 213.656,144.726C213.78,145.89 214.225,146.186 215.441,146.075C216.27,146 217.101,145.844 217.928,145.862C220.646,145.917 223.364,146.03 226.08,146.13C228.004,146.2 229.928,146.287 231.851,146.36C232.239,146.375 232.627,146.363 233.042,146.363M233.12,147.197C231.298,147.26 229.647,146.871 227.905,147.077C226.28,147.27 224.579,147.038 222.936,146.816C220.658,146.507 218.398,146.506 216.139,146.836C213.659,147.198 213.075,146.84 212.683,144.377C212.539,143.473 212.612,142.536 212.562,141.615C212.532,141.049 212.484,140.481 212.393,139.921C212.237,138.959 212.715,138.183 213.666,137.954C216.338,137.311 219.032,137.18 221.748,137.633C221.964,137.668 222.189,137.678 222.408,137.663C224.681,137.511 226.826,138.2 229,138.677C230.573,139.023 231.743,139.981 232.644,141.297C232.941,141.731 233.315,142.112 233.602,142.551C233.894,142.998 234.192,143.275 234.787,143.11C234.996,143.051 235.348,143.165 235.506,143.325C236.661,144.504 237.715,145.747 237.433,147.58C237.192,149.152 235.783,150.105 234.244,149.758C233.655,149.624 233.327,149.254 233.245,148.674C233.185,148.244 233.17,147.808 233.12,147.197" style="fill:rgb(35,31,32);fill-rule:nonzero;"/>
            <path d="M215.861,138.474C215.308,138.566 214.761,138.757 214.237,138.965C213.609,139.215 213.267,139.681 213.326,140.404C213.444,141.844 213.503,143.29 213.656,144.726C213.779,145.891 214.225,146.187 215.442,146.075C216.27,146.001 217.102,145.845 217.929,145.862C220.647,145.917 223.363,146.031 226.081,146.13C228.005,146.201 229.927,146.287 231.851,146.362C232.238,146.376 232.627,146.363 233.042,146.363C233.211,145.409 233.398,144.643 233.455,143.868C233.477,143.575 233.243,143.228 233.047,142.964C232.606,142.369 232.133,141.794 231.641,141.24C230.756,140.242 229.754,139.407 228.37,139.233C225.986,138.936 223.642,138.379 221.214,138.33C220.362,138.313 219.513,138.279 218.664,138.279C217.727,138.279 216.792,138.321 215.861,138.474Z" style="fill:url(#_Linear1);fill-rule:nonzero;"/>
            <path d="M234.995,143.842C236.083,144.932 236.952,145.98 236.649,147.583C236.53,148.216 236.2,148.614 235.651,148.863C234.524,149.372 233.713,148.788 233.834,147.568C233.881,147.094 233.965,146.619 233.959,146.145C233.943,144.833 233.928,144.834 234.995,143.842" style="fill:rgb(134,112,179);fill-rule:nonzero;"/>
            <path d="M201.107,168.477C201.092,171.971 203.773,174.73 207.221,174.769C210.628,174.809 213.499,172.028 213.54,168.649C213.583,165.103 210.872,162.347 207.331,162.337C203.805,162.327 201.122,164.974 201.107,168.477M200.283,168.598C200.291,164.685 203.438,161.551 207.334,161.577C211.242,161.602 214.388,164.763 214.368,168.643C214.347,172.541 211.197,175.659 207.286,175.651C203.353,175.643 200.276,172.544 200.283,168.598" style="fill:rgb(35,31,32);fill-rule:nonzero;"/>
            <path d="M207.433,172.24C209.611,172.232 211.251,170.566 211.238,168.375C211.226,166.241 209.458,164.482 207.371,164.527C205.267,164.573 203.505,166.368 203.531,168.437C203.558,170.568 205.282,172.248 207.433,172.24M201.107,168.477C201.122,164.974 203.805,162.327 207.331,162.337C210.872,162.347 213.582,165.103 213.54,168.65C213.499,172.028 210.627,174.809 207.221,174.77C203.772,174.73 201.092,171.971 201.107,168.477" style="fill:rgb(100,87,69);fill-rule:nonzero;"/>
            <path d="M210.193,168.265C210.172,166.631 208.867,165.345 207.249,165.363C205.691,165.379 204.334,166.792 204.365,168.366C204.396,169.935 205.802,171.303 207.358,171.278C208.959,171.251 210.214,169.916 210.193,168.265M207.434,172.241C205.283,172.248 203.559,170.568 203.532,168.438C203.506,166.369 205.268,164.574 207.372,164.528C209.459,164.483 211.227,166.242 211.239,168.375C211.252,170.567 209.611,172.233 207.434,172.241" style="fill:rgb(35,31,32);fill-rule:nonzero;"/>
            <path d="M210.193,168.265C210.214,169.916 208.959,171.251 207.358,171.278C205.802,171.303 204.396,169.935 204.365,168.366C204.334,166.792 205.691,165.379 207.249,165.363C208.867,165.345 210.172,166.631 210.193,168.265" style="fill:rgb(201,202,204);fill-rule:nonzero;"/>
            <path d="M206.527,166.785C207.284,166.449 208.173,166.506 208.954,166.782C208.787,166.194 208.111,165.898 207.502,165.874C206.615,165.839 205.704,166.248 205.21,166.984C204.716,167.721 204.701,168.772 205.241,169.475C205.003,169.164 205.237,168.276 205.367,167.96C205.581,167.44 206.015,167.013 206.527,166.785" style="fill:white;fill-rule:nonzero;"/>
            <g opacity="0.31">
                <path d="M203.866,163.917C204.178,163.671 204.516,163.456 204.879,163.292C205.468,163.026 206.111,162.9 206.753,162.822C207.865,162.686 209.1,162.724 209.954,163.449C209.053,163.069 208.023,163.152 207.069,163.369C205.307,163.77 203.566,164.683 202.649,166.239C201.753,167.76 201.801,169.638 202.402,171.252C202.055,170.643 201.751,170.244 201.652,169.523C201.556,168.83 201.588,168.121 201.731,167.436C202.018,166.068 202.762,164.785 203.866,163.917" style="fill:rgb(201,159,123);fill-rule:nonzero;"/>
            </g>
            <g opacity="0.31">
                <path d="M207.848,172.962C209.31,172.861 210.772,172.167 211.579,170.944C212.387,169.721 212.403,167.959 211.441,166.855C211.965,168.521 211.456,170.495 210.116,171.614C208.774,172.733 206.658,172.853 205.264,171.802C205.664,172.077 205.811,172.522 206.302,172.739C206.78,172.951 207.332,172.998 207.848,172.962" style="fill:rgb(201,159,123);fill-rule:nonzero;"/>
            </g>
            <path d="M232.721,168.183C232.706,171.677 235.387,174.435 238.835,174.475C242.242,174.515 245.113,171.734 245.154,168.355C245.197,164.809 242.486,162.053 238.945,162.043C235.419,162.033 232.736,164.68 232.721,168.183M231.897,168.304C231.904,164.391 235.051,161.257 238.948,161.283C242.856,161.308 246.002,164.469 245.981,168.349C245.961,172.247 242.81,175.365 238.9,175.357C234.967,175.349 231.89,172.25 231.897,168.304" style="fill:rgb(35,31,32);fill-rule:nonzero;"/>
            <path d="M239.047,171.946C241.224,171.938 242.865,170.272 242.852,168.081C242.84,165.947 241.072,164.188 238.985,164.233C236.881,164.279 235.118,166.074 235.145,168.143C235.172,170.274 236.896,171.954 239.047,171.946M232.721,168.183C232.736,164.68 235.419,162.033 238.945,162.043C242.485,162.053 245.196,164.809 245.153,168.355C245.113,171.734 242.241,174.515 238.835,174.476C235.386,174.436 232.706,171.677 232.721,168.183" style="fill:rgb(100,87,69);fill-rule:nonzero;"/>
            <path d="M241.806,167.97C241.785,166.336 240.48,165.05 238.862,165.068C237.304,165.084 235.947,166.497 235.978,168.071C236.009,169.64 237.416,171.008 238.971,170.982C240.572,170.956 241.828,169.621 241.806,167.97M239.047,171.946C236.896,171.953 235.172,170.273 235.145,168.143C235.119,166.074 236.881,164.278 238.985,164.233C241.072,164.187 242.84,165.947 242.852,168.08C242.865,170.271 241.224,171.937 239.047,171.946" style="fill:rgb(35,31,32);fill-rule:nonzero;"/>
            <path d="M241.806,167.97C241.828,169.621 240.572,170.956 238.971,170.982C237.416,171.008 236.009,169.64 235.978,168.071C235.947,166.497 237.304,165.084 238.862,165.068C240.48,165.05 241.785,166.336 241.806,167.97" style="fill:rgb(201,202,204);fill-rule:nonzero;"/>
            <path d="M238.141,166.49C238.898,166.154 239.786,166.211 240.567,166.487C240.4,165.899 239.725,165.603 239.115,165.579C238.229,165.544 237.318,165.952 236.824,166.689C236.329,167.425 236.315,168.477 236.855,169.18C236.616,168.869 236.851,167.98 236.981,167.664C237.195,167.145 237.629,166.718 238.141,166.49" style="fill:white;fill-rule:nonzero;"/>
            <g opacity="0.31">
                <path d="M235.48,163.622C235.792,163.376 236.131,163.161 236.493,162.997C237.083,162.731 237.726,162.605 238.367,162.527C239.479,162.391 240.714,162.429 241.568,163.154C240.667,162.774 239.637,162.857 238.684,163.074C236.921,163.475 235.181,164.388 234.263,165.944C233.368,167.464 233.415,169.343 234.017,170.957C233.67,170.348 233.366,169.948 233.266,169.228C233.171,168.535 233.202,167.826 233.345,167.141C233.632,165.773 234.376,164.49 235.48,163.622" style="fill:rgb(201,159,123);fill-rule:nonzero;"/>
            </g>
            <g opacity="0.31">
                <path d="M239.462,172.668C240.923,172.567 242.386,171.873 243.193,170.65C244,169.427 244.017,167.665 243.054,166.561C243.579,168.227 243.07,170.201 241.729,171.32C240.388,172.439 238.272,172.559 236.877,171.507C237.278,171.783 237.424,172.228 237.916,172.445C238.394,172.657 238.946,172.704 239.462,172.668" style="fill:rgb(201,159,123);fill-rule:nonzero;"/>
            </g>
            <g opacity="0.5">
                <path d="M229.272,161.819L219.315,161.819C216.018,161.819 213.32,159.122 213.32,155.825C213.32,152.527 216.018,149.829 219.315,149.829L229.272,149.829C232.569,149.829 235.267,152.527 235.267,155.825C235.267,159.122 232.569,161.819 229.272,161.819" style="fill:white;fill-rule:nonzero;"/>
            </g>
            <g>
                <path d="M222.003,158.118C222.003,158.497 221.899,158.866 221.693,159.227C221.486,159.587 221.207,159.859 220.855,160.041C220.503,160.224 220.055,160.315 219.509,160.315C218.969,160.315 218.522,160.224 218.17,160.041C217.819,159.859 217.539,159.587 217.333,159.227C217.126,158.866 217.023,158.497 217.023,158.118C217.023,157.714 217.139,157.328 217.372,156.961C217.605,156.594 217.959,156.302 218.434,156.087C218.06,155.902 217.78,155.676 217.593,155.407C217.406,155.139 217.313,154.831 217.313,154.484C217.313,154.141 217.406,153.82 217.593,153.521C217.78,153.222 218.051,152.995 218.405,152.842C218.759,152.688 219.127,152.611 219.509,152.611C219.896,152.611 220.267,152.689 220.621,152.845C220.975,153.001 221.245,153.227 221.432,153.524C221.619,153.821 221.712,154.141 221.712,154.484C221.712,154.831 221.619,155.139 221.432,155.407C221.245,155.676 220.965,155.902 220.591,156.087C221.062,156.302 221.415,156.594 221.65,156.961C221.885,157.328 222.003,157.714 222.003,158.118ZM219.509,155.737C219.883,155.737 220.192,155.617 220.436,155.378C220.68,155.138 220.802,154.856 220.802,154.53C220.802,154.174 220.673,153.886 220.413,153.666C220.154,153.446 219.852,153.336 219.509,153.336C219.175,153.336 218.877,153.446 218.616,153.666C218.354,153.886 218.223,154.174 218.223,154.53C218.223,154.856 218.344,155.138 218.586,155.378C218.828,155.617 219.136,155.737 219.509,155.737ZM219.509,156.463C219.237,156.463 218.977,156.532 218.731,156.671C218.485,156.809 218.29,157.007 218.147,157.264C218.004,157.522 217.933,157.786 217.933,158.059C217.933,158.323 218.001,158.579 218.137,158.828C218.274,159.076 218.467,159.265 218.718,159.395C218.969,159.525 219.232,159.589 219.509,159.589C219.791,159.589 220.057,159.525 220.308,159.395C220.558,159.265 220.752,159.076 220.888,158.828C221.024,158.579 221.092,158.323 221.092,158.059C221.092,157.786 221.021,157.522 220.878,157.264C220.735,157.007 220.541,156.809 220.294,156.671C220.048,156.532 219.786,156.463 219.509,156.463Z" style="fill:rgb(35,31,32);fill-rule:nonzero;"/>
                <path d="M229.5,158.118C229.5,158.497 229.397,158.866 229.19,159.227C228.983,159.587 228.704,159.859 228.352,160.041C228.001,160.224 227.552,160.315 227.007,160.315C226.466,160.315 226.02,160.224 225.668,160.041C225.316,159.859 225.037,159.587 224.83,159.227C224.623,158.866 224.52,158.497 224.52,158.118C224.52,157.714 224.637,157.328 224.87,156.961C225.103,156.594 225.457,156.302 225.932,156.087C225.558,155.902 225.278,155.676 225.091,155.407C224.904,155.139 224.81,154.831 224.81,154.484C224.81,154.141 224.904,153.82 225.091,153.521C225.278,153.222 225.548,152.995 225.902,152.842C226.256,152.688 226.624,152.611 227.007,152.611C227.394,152.611 227.764,152.689 228.118,152.845C228.472,153.001 228.743,153.227 228.93,153.524C229.116,153.821 229.21,154.141 229.21,154.484C229.21,154.831 229.116,155.139 228.93,155.407C228.743,155.676 228.462,155.902 228.089,156.087C228.559,156.302 228.912,156.594 229.147,156.961C229.382,157.328 229.5,157.714 229.5,158.118ZM227.007,155.737C227.381,155.737 227.689,155.617 227.934,155.378C228.178,155.138 228.3,154.856 228.3,154.53C228.3,154.174 228.17,153.886 227.91,153.666C227.651,153.446 227.35,153.336 227.007,153.336C226.673,153.336 226.375,153.446 226.113,153.666C225.851,153.886 225.721,154.174 225.721,154.53C225.721,154.856 225.841,155.138 226.083,155.378C226.325,155.617 226.633,155.737 227.007,155.737ZM227.007,156.463C226.734,156.463 226.475,156.532 226.228,156.671C225.982,156.809 225.788,157.007 225.645,157.264C225.502,157.522 225.43,157.786 225.43,158.059C225.43,158.323 225.498,158.579 225.635,158.828C225.771,159.076 225.965,159.265 226.215,159.395C226.466,159.525 226.73,159.589 227.007,159.589C227.288,159.589 227.554,159.525 227.805,159.395C228.056,159.265 228.249,159.076 228.385,158.828C228.522,158.579 228.59,158.323 228.59,158.059C228.59,157.786 228.518,157.522 228.375,157.264C228.233,157.007 228.038,156.809 227.792,156.671C227.545,156.532 227.284,156.463 227.007,156.463Z" style="fill:rgb(35,31,32);fill-rule:nonzero;"/>
            </g>
        </g>
    </g>
    <defs>
        <linearGradient id="_Linear1" x1="0" y1="0" x2="1" y2="0" gradientUnits="userSpaceOnUse" gradientTransform="matrix(4.95345e-16,-8.0896,8.0896,4.95345e-16,223.389,146.368)"><stop offset="0" style="stop-color:rgb(159,221,249);stop-opacity:1"/><stop offset="1" style="stop-color:rgb(80,117,147);stop-opacity:1"/></linearGradient>
    </defs>
</svg>
