<svg clip-rule="evenodd" fill-rule="evenodd" stroke-linejoin="round" stroke-miterlimit="2" viewBox="0 0 67 44" xmlns="http://www.w3.org/2000/svg" xmlns:xlink="http://www.w3.org/1999/xlink"><linearGradient id="a" gradientTransform="matrix(0 -14.7516 14.7516 0 69.6969 150.166)" gradientUnits="userSpaceOnUse" x1="0" x2="1" y1="0" y2="0"><stop offset="0" stop-color="#9fddf9"/><stop offset="1" stop-color="#507593"/></linearGradient><g transform="translate(-28 -131)"><g fill-rule="nonzero"><path d="m30.384 162.384c1.528-1.427.991-3.928-.622-5.194.054 1.78-.079 3.451.622 5.194m61.628-.43h-2.286c-.504 2.272.031 2.91 2.11 2.63.058-.42.14-.846.17-1.275.029-.419.006-.842.006-1.355m-62.468-6.001c1.864.986 2.655 2.336 2.681 4.169.021 1.528-.498 2.707-1.894 3.491-.984.553-1.093.932-.666 1.797.531 1.077 1.246 1.79 2.64 1.766 4.086-.075 8.175-.054 12.263-.008 2.987.034 5.973.167 8.959.256.088.002.176.008.264.014 2.359.158 4.718.32 7.077.474 1.313.086 2.626.205 3.94.225 1.13.018 2.265-.16 3.392-.115 2.011.081 4.016.264 6.023.406.832.059 1.665.104 2.495.184 2.269.216 4.537.437 6.804.677 1.832.194 3.659.444 5.492.619 1.046.1 2.102.161 3.151.129 1.017-.03 1.47-.668 1.336-1.675-.171-1.293-1.147-2.388-2.432-2.735-.509-.138-1.023-.264-1.521-.433-1.073-.365-1.443-.975-1.319-2.11.158-1.459.669-2.106 1.795-2.246.412-.052.83-.062 1.378-.1-.496-.854-1.173-1.268-1.857-1.631-2.597-1.378-5.201-2.743-7.825-4.07-1.793-.907-2.862-2.444-3.207-4.286-.38-2.032-.663-4.105-.336-6.232.304-1.982.325-4.012.395-6.023.036-1.043-.066-2.093-.166-3.134-.025-.27-.235-.556-.433-.767-.852-.908-1.988-1.27-3.157-1.515-.982-.206-1.978-.346-2.971-.501-1.253-.195-2.504-.486-3.766-.542-3.384-.15-6.76.098-10.128.426-1.613.157-3.223.371-4.827.608-2.602.386-5.217.717-7.791 1.244-3.134.641-6.239 1.427-9.339 2.219-1.359.347-2.682.839-4.005 1.31-.763.272-.826.469-.734 1.289.038.343.054.698.016 1.04-.102.914-.245 1.822-.362 2.734-.327 2.565-.684 5.127-.962 7.698-.193 1.782-.273 3.575-.403 5.348m-.088 6.891c-.164-.76-.42-1.439-.441-2.125-.09-2.919-.494-5.834-.026-8.763.249-1.556.328-3.14.481-4.712.209-2.138.428-4.276.614-6.417.042-.477.003-.971-.068-1.446-.198-1.331.119-1.968 1.417-2.384 1.503-.481 3.023-.928 4.56-1.283 3.333-.77 6.676-1.501 10.028-2.189 1.886-.388 3.792-.686 5.697-.975 1.906-.288 3.817-.56 5.735-.753 1.659-.168 3.329-.245 4.997-.312 3.079-.125 6.164-.121 9.216.309 2.022.284 4.11.419 5.961 1.471.98.557 1.84 1.151 1.758 2.47-.073 1.174-.067 2.354-.131 3.529-.086 1.571-.105 3.154-.334 4.705-.301 2.044.005 4.019.31 6.019.248 1.619 1.046 2.889 2.369 3.785.938.634 1.977 1.119 2.977 1.661 1.117.605 2.253 1.174 3.356 1.804 1.217.694 2.444 1.386 3.592 2.186.63.438 1.164 1.053 1.63 1.673.232.308.241.803.292 1.221.025.205-.077.429-.132.642-.34 1.31-.256 2.541.829 3.486 1.016.886.821 1.957.535 3.022-.295 1.095-1.131 1.676-2.266 1.622-2.056-.099-4.106-.223-6.137-.635-1.198-.243-2.442-.255-3.664-.384-1.613-.17-3.221-.413-4.837-.52-3.412-.227-6.829-.387-10.244-.573-2.892-.157-5.783-.318-8.675-.464-.746-.038-1.498.002-2.243-.047-1.97-.13-3.936-.328-5.907-.427-1.757-.088-3.519-.11-5.279-.11-4.227.002-8.452.03-12.678.059-.478.003-.957.064-1.432.123-.812.098-1.413-.2-1.842-.922-.52-.876-.909-1.796-1.082-2.81-.144-.847-.172-.84.653-1.261.114-.059.216-.143.411-.275" fill="#231f20"/><path d="m75.478 143.533v-7.568c-.473-.21-.936-.469-1.43-.625-1.638-.519-3.347-.578-5.037-.791-1.41-.179-2.353.446-3.255 1.308-1.275 1.217-1.8 2.813-1.948 4.49-.274 3.107-.283 6.223.064 9.334.147 1.315.226 1.431 1.497 1.348.175-.012.353-.017.525-.051 2.091-.407 4.195-.187 6.398-.196.191 1.156 1.04 1.412 2.018 1.509 1.185.117 1.568-.076 1.721-1.248.261-2 .404-4.015.611-6.022.085-.82-.179-1.378-1.164-1.488m-45.934 12.419c.13-1.773.21-3.566.403-5.348.278-2.57.635-5.132.962-7.697.117-.912.26-1.82.362-2.734.038-.342.022-.697-.016-1.04-.092-.82-.029-1.017.734-1.288 1.323-.472 2.647-.964 4.005-1.311 3.101-.792 6.206-1.578 9.339-2.219 2.574-.527 5.189-.858 7.791-1.243 1.604-.238 3.214-.452 4.828-.609 3.367-.327 6.744-.576 10.128-.426 1.261.056 2.512.347 3.766.542.992.155 1.988.295 2.97.501 1.169.245 2.306.607 3.157 1.515.198.211.408.498.433.767.1 1.041.202 2.091.166 3.134-.07 2.011-.091 4.041-.395 6.023-.327 2.127-.044 4.2.336 6.231.345 1.842 1.414 3.379 3.208 4.286 2.623 1.327 5.227 2.692 7.825 4.071.684.363 1.361.778 1.857 1.632-.548.037-.966.047-1.378.099-1.126.14-1.636.787-1.796 2.246-.124 1.135.246 1.745 1.32 2.11.498.169 1.012.295 1.521.433 1.285.347 2.261 1.442 2.432 2.735.134 1.007-.319 1.645-1.336 1.675-1.048.032-2.105-.029-3.15-.128-1.835-.176-3.662-.426-5.494-.62-2.267-.24-4.535-.461-6.804-.677-.83-.08-1.663-.125-2.495-.184-2.007-.142-4.012-.325-6.021-.406-1.128-.045-2.263.133-3.392.116-1.315-.021-2.629-.14-3.942-.226-2.359-.154-4.718-.316-7.077-.474-.088-.006-.176-.011-.264-.014-2.986-.089-5.972-.222-8.959-.256-4.087-.046-8.176-.067-12.262.008-1.394.025-2.11-.689-2.641-1.766-.427-.865-.318-1.244.666-1.797 1.396-.784 1.916-1.963 1.895-3.491-.026-1.833-.817-3.183-2.682-4.17" fill="#f4d143"/><path d="m92.013 161.954c0 .514.023.936-.006 1.355-.031.43-.113.855-.171 1.275-2.079.281-2.614-.358-2.11-2.63z" fill="#ece6bc"/><path d="m30.384 162.384c-.701-1.743-.568-3.414-.622-5.194 1.613 1.266 2.15 3.767.622 5.194" fill="#f05222"/><path d="m73.812 144.457c-.056.34-.109.669-.165.998-.274 1.591-.03 3.242-.633 4.803-.259.672.07 1.101.794 1.209.412.061.841.011 1.341.011.39-2.386.822-4.639.606-7.021zm.829-1.008c.116-1.954.235-3.823.334-5.691.043-.816-.285-1.262-1.133-1.541-1.633-.536-3.31-.857-5.032-.794-1.181.044-2.158.465-2.895 1.517-1.12 1.598-1.36 3.398-1.455 5.243-.073 1.403-.037 2.813-.033 4.22.004 1.264-.045 2.538.431 3.763 2.509-.07 4.981-.139 7.589-.212.129-1.409.29-2.887.392-4.37.108-1.567.239-1.758 1.802-2.135m.837.085c.985.11 1.248.668 1.164 1.487-.207 2.008-.35 4.023-.611 6.022-.154 1.173-.536 1.366-1.722 1.248-.977-.097-1.826-.352-2.018-1.508-2.202.009-4.306-.212-6.398.196-.171.034-.349.039-.524.05-1.271.083-1.351-.032-1.498-1.347-.347-3.111-.337-6.227-.063-9.334.148-1.678.672-3.273 1.947-4.491.902-.861 1.845-1.486 3.256-1.308 1.69.214 3.399.273 5.036.791.495.157.957.415 1.431.625z" fill="#231f20"/><path d="m68.81 135.423c-1.18.044-2.159.463-2.896 1.516-1.119 1.598-1.36 3.399-1.453 5.244-.074 1.403-.039 2.812-.035 4.22.005 1.265-.045 2.538.433 3.763 2.509-.069 4.979-.139 7.587-.212.131-1.41.292-2.888.394-4.37.108-1.568.237-1.759 1.801-2.135.117-1.954.235-3.823.334-5.691.044-.818-.285-1.262-1.134-1.541-1.494-.492-3.026-.802-4.597-.802-.145 0-.29.003-.434.008z" fill="url(#a)"/><path d="m73.812 144.457h1.943c.216 2.382-.216 4.635-.606 7.021-.5 0-.929.05-1.341-.011-.724-.108-1.053-.537-.794-1.209.603-1.561.359-3.212.633-4.803.056-.329.109-.658.165-.998" fill="#d8b63c"/><path d="m33.267 166.627c-.015 3.494 2.666 6.252 6.114 6.292 3.407.04 6.278-2.742 6.319-6.12.043-3.546-2.668-6.302-6.209-6.312-3.526-.01-6.209 2.637-6.224 6.14m-.824.121c.008-3.913 3.154-7.047 7.051-7.021 3.908.025 7.054 3.186 7.034 7.066-.021 3.898-3.172 7.016-7.082 7.008-3.933-.008-7.01-3.107-7.003-7.053" fill="#231f20"/><path d="m39.594 170.39c2.178-.008 3.818-1.674 3.805-3.865-.012-2.134-1.78-3.893-3.867-3.848-2.104.046-3.867 1.841-3.84 3.91.027 2.131 1.751 3.811 3.902 3.803m-6.326-3.763c.015-3.503 2.698-6.15 6.224-6.14 3.54.01 6.251 2.766 6.209 6.312-.041 3.379-2.913 6.16-6.319 6.121-3.449-.04-6.129-2.799-6.114-6.293" fill="#645745"/><path d="m42.353 166.414c-.021-1.634-1.326-2.92-2.944-2.902-1.559.016-2.915 1.429-2.884 3.003.031 1.569 1.437 2.937 2.993 2.911 1.601-.026 2.856-1.361 2.835-3.012m-2.759 3.976c-2.151.007-3.875-1.673-3.902-3.803-.027-2.069 1.736-3.865 3.839-3.91 2.088-.046 3.856 1.714 3.868 3.847.013 2.191-1.628 3.857-3.805 3.866" fill="#231f20"/><path d="m42.353 166.414c.021 1.651-1.234 2.986-2.835 3.012-1.556.026-2.962-1.342-2.993-2.911-.031-1.574 1.325-2.987 2.884-3.003 1.618-.018 2.923 1.268 2.944 2.902" fill="#c9cacc"/><path d="m38.687 164.934c.757-.336 1.645-.279 2.427-.003-.168-.588-.843-.884-1.453-.908-.886-.035-1.797.373-2.291 1.11-.495.736-.509 1.788.031 2.491-.239-.311-.004-1.2.126-1.516.214-.519.648-.946 1.16-1.174" fill="#fff"/><path d="m36.026 162.066c.313-.246.651-.461 1.013-.625.59-.266 1.233-.392 1.874-.47 1.112-.136 2.347-.098 3.201.627-.901-.38-1.931-.297-2.884-.08-1.763.401-3.503 1.314-4.421 2.87-.895 1.52-.848 3.399-.246 5.013-.347-.609-.651-1.009-.75-1.729-.096-.693-.065-1.402.079-2.087.286-1.368 1.03-2.651 2.134-3.519" fill="#c99f7b" opacity=".31"/><path d="m40.009 171.112c1.461-.101 2.924-.795 3.731-2.018s.824-2.985-.138-4.089c.524 1.666.015 3.64-1.325 4.759-1.342 1.119-3.458 1.239-4.853.187.401.276.548.721 1.039.938.478.212 1.03.259 1.546.223" fill="#c99f7b" opacity=".31"/><path d="m73.856 167.317c-.015 3.494 2.665 6.252 6.114 6.292 3.406.04 6.278-2.742 6.319-6.12.042-3.547-2.668-6.302-6.209-6.313-3.526-.009-6.209 2.638-6.224 6.141m-.824.12c.007-3.912 3.154-7.046 7.051-7.02 3.907.025 7.054 3.185 7.033 7.066-.02 3.898-3.171 7.016-7.081 7.008-3.933-.008-7.01-3.107-7.003-7.054" fill="#231f20"/><path d="m80.182 171.08c2.178-.008 3.818-1.674 3.805-3.865-.012-2.134-1.78-3.893-3.867-3.847-2.104.045-3.866 1.84-3.84 3.91.027 2.13 1.751 3.81 3.902 3.802m-6.326-3.762c.015-3.504 2.699-6.151 6.224-6.141 3.541.01 6.251 2.766 6.209 6.313-.041 3.378-2.913 6.16-6.319 6.12-3.449-.04-6.129-2.799-6.114-6.292" fill="#645745"/><path d="m82.942 167.104c-.021-1.634-1.326-2.92-2.944-2.903-1.558.017-2.915 1.43-2.884 3.004.031 1.569 1.437 2.937 2.993 2.911 1.601-.026 2.856-1.361 2.835-3.012m-2.759 3.975c-2.151.008-3.875-1.672-3.902-3.802-.026-2.07 1.736-3.865 3.84-3.91 2.087-.046 3.855 1.714 3.867 3.847.013 2.191-1.628 3.857-3.805 3.865" fill="#231f20"/><path d="m82.942 167.104c.021 1.651-1.234 2.986-2.835 3.012-1.556.026-2.962-1.342-2.993-2.911-.031-1.574 1.326-2.987 2.884-3.004 1.618-.017 2.923 1.269 2.944 2.903" fill="#c9cacc"/><path d="m79.276 165.624c.757-.336 1.646-.28 2.427-.004-.167-.587-.843-.883-1.452-.907-.887-.035-1.798.373-2.292 1.11-.494.736-.509 1.788.031 2.491-.238-.311-.004-1.2.126-1.516.214-.519.648-.946 1.16-1.174" fill="#fff"/><path d="m76.615 162.757c.312-.246.65-.461 1.013-.625.59-.266 1.232-.392 1.874-.47 1.112-.136 2.347-.098 3.201.627-.901-.38-1.931-.297-2.885-.08-1.762.401-3.502 1.314-4.42 2.87-.896 1.52-.848 3.399-.247 5.013-.347-.61-.651-1.009-.75-1.729-.096-.693-.064-1.402.079-2.087.287-1.368 1.031-2.651 2.135-3.519" fill="#c99f7b" opacity=".31"/><path d="m80.597 171.801c1.462-.101 2.924-.795 3.731-2.018.808-1.223.824-2.984-.138-4.089.524 1.666.016 3.641-1.325 4.76-1.342 1.118-3.458 1.238-4.852.187.4.275.547.72 1.038.938.478.211 1.03.258 1.546.222" fill="#c99f7b" opacity=".31"/><path d="m52.7 150.451h-9.957c-3.297 0-5.995-2.697-5.995-5.994s2.698-5.995 5.995-5.995h9.957c3.297 0 5.994 2.698 5.994 5.995s-2.697 5.994-5.994 5.994" fill="#fff" opacity=".5"/></g><path d="m31.067 151.164h4.4v4.102h-4.4z" fill="#231f20"/><path d="m35.736 155.139h4.4v4.102h-4.4z" fill="#231f20"/><path d="m40.427 151.228h4.4v4.102h-4.4z" fill="#231f20"/><path d="m45.095 155.203h4.4v4.102h-4.4z" fill="#231f20"/><path d="m49.682 151.101h4.4v4.102h-4.4z" fill="#231f20"/><path d="m54.351 155.076h4.4v4.102h-4.4z" fill="#231f20"/><path d="m58.97 151.164h4.4v4.102h-4.4z" fill="#231f20"/><path d="m45.008 145c-.211.277-.421.484-.63.623-.209.138-.417.242-.623.31-.207.068-.429.102-.667.102-.624 0-1.124-.223-1.5-.669-.376-.447-.564-.984-.564-1.613 0-.449.098-.853.293-1.214.196-.36.467-.643.815-.847.347-.205.728-.307 1.141-.307.479 0 .929.142 1.349.425.42.284.738.709.953 1.277.216.567.323 1.268.323 2.104 0 1.187-.244 2.134-.732 2.839-.488.706-1.185 1.059-2.091 1.059-.62 0-1.086-.135-1.398-.406-.312-.27-.469-.579-.469-.926v-.046h.871v.046c0 .145.081.282.244.412s.409.195.739.195c.387 0 .724-.116 1.012-.347s.517-.609.686-1.134c.17-.526.254-1.068.254-1.626zm-1.742-2.89c-.373 0-.689.16-.946.479s-.386.715-.386 1.19c0 .471.135.843.406 1.118.27.275.599.413.986.413.426 0 .774-.158 1.042-.472s.402-.689.402-1.125c0-.281-.066-.552-.198-.811-.131-.259-.314-.456-.547-.59s-.486-.202-.759-.202z" fill="#231f20" fill-rule="nonzero"/><path d="m51.028 149.089c-.787 0-1.426-.345-1.917-1.035-.49-.691-.735-1.63-.735-2.817s.245-2.126.735-2.816c.491-.691 1.13-1.036 1.917-1.036.796 0 1.438.345 1.926 1.036.488.69.732 1.629.732 2.816s-.244 2.126-.732 2.817c-.488.69-1.13 1.035-1.926 1.035zm0-.725c.615 0 1.061-.317 1.335-.95.275-.633.413-1.359.413-2.177 0-.813-.138-1.538-.413-2.173-.274-.636-.72-.954-1.335-.954-.612 0-1.055.318-1.329.954-.275.635-.413 1.36-.413 2.173 0 .818.138 1.544.413 2.177.274.633.717.95 1.329.95z" fill="#231f20" fill-rule="nonzero"/></g></svg>