<?xml version="1.0" encoding="UTF-8" standalone="no"?>
<!DOCTYPE svg PUBLIC "-//W3C//DTD SVG 1.1//EN" "http://www.w3.org/Graphics/SVG/1.1/DTD/svg11.dtd">
<svg width="100%" height="100%" viewBox="0 0 67 44" version="1.1" xmlns="http://www.w3.org/2000/svg" xmlns:xlink="http://www.w3.org/1999/xlink" xml:space="preserve" xmlns:serif="http://www.serif.com/" style="fill-rule:evenodd;clip-rule:evenodd;stroke-linejoin:round;stroke-miterlimit:2;">
    <g transform="matrix(1,0,0,1,-28,-131)">
        <g>
            <path d="M30.384,162.384C31.912,160.957 31.375,158.456 29.762,157.19C29.816,158.97 29.683,160.641 30.384,162.384M92.012,161.954L89.726,161.954C89.222,164.226 89.757,164.864 91.836,164.584C91.894,164.164 91.976,163.738 92.006,163.309C92.035,162.89 92.012,162.467 92.012,161.954M29.544,155.953C31.408,156.939 32.199,158.289 32.225,160.122C32.246,161.65 31.727,162.829 30.331,163.613C29.347,164.166 29.238,164.545 29.665,165.41C30.196,166.487 30.911,167.2 32.305,167.176C36.391,167.101 40.48,167.122 44.568,167.168C47.555,167.202 50.541,167.335 53.527,167.424C53.615,167.426 53.703,167.432 53.791,167.438C56.15,167.596 58.509,167.758 60.868,167.912C62.181,167.998 63.494,168.117 64.808,168.137C65.938,168.155 67.073,167.977 68.2,168.022C70.211,168.103 72.216,168.286 74.223,168.428C75.055,168.487 75.888,168.532 76.718,168.612C78.987,168.828 81.255,169.049 83.522,169.289C85.354,169.483 87.181,169.733 89.014,169.908C90.06,170.008 91.116,170.069 92.165,170.037C93.182,170.007 93.635,169.369 93.501,168.362C93.33,167.069 92.354,165.974 91.069,165.627C90.56,165.489 90.046,165.363 89.548,165.194C88.475,164.829 88.105,164.219 88.229,163.084C88.387,161.625 88.898,160.978 90.024,160.838C90.436,160.786 90.854,160.776 91.402,160.738C90.906,159.884 90.229,159.47 89.545,159.107C86.948,157.729 84.344,156.364 81.72,155.037C79.927,154.13 78.858,152.593 78.513,150.751C78.133,148.719 77.85,146.646 78.177,144.519C78.481,142.537 78.502,140.507 78.572,138.496C78.608,137.453 78.506,136.403 78.406,135.362C78.381,135.092 78.171,134.806 77.973,134.595C77.121,133.687 75.985,133.325 74.816,133.08C73.834,132.874 72.838,132.734 71.845,132.579C70.592,132.384 69.341,132.093 68.079,132.037C64.695,131.887 61.319,132.135 57.951,132.463C56.338,132.62 54.728,132.834 53.124,133.071C50.522,133.457 47.907,133.788 45.333,134.315C42.199,134.956 39.094,135.742 35.994,136.534C34.635,136.881 33.312,137.373 31.989,137.844C31.226,138.116 31.163,138.313 31.255,139.133C31.293,139.476 31.309,139.831 31.271,140.173C31.169,141.087 31.026,141.995 30.909,142.907C30.582,145.472 30.225,148.034 29.947,150.605C29.754,152.387 29.674,154.18 29.544,155.953M29.456,162.844C29.292,162.084 29.036,161.405 29.015,160.719C28.925,157.8 28.521,154.885 28.989,151.956C29.238,150.4 29.317,148.816 29.47,147.244C29.679,145.106 29.898,142.968 30.084,140.827C30.126,140.35 30.087,139.856 30.016,139.381C29.818,138.05 30.135,137.413 31.433,136.997C32.936,136.516 34.456,136.069 35.993,135.714C39.326,134.944 42.669,134.213 46.021,133.525C47.907,133.137 49.813,132.839 51.718,132.55C53.624,132.262 55.535,131.99 57.453,131.797C59.112,131.629 60.782,131.552 62.45,131.485C65.529,131.36 68.614,131.364 71.666,131.794C73.688,132.078 75.776,132.213 77.627,133.265C78.607,133.822 79.467,134.416 79.385,135.735C79.312,136.909 79.318,138.089 79.254,139.264C79.168,140.835 79.149,142.418 78.92,143.969C78.619,146.013 78.925,147.988 79.23,149.988C79.478,151.607 80.276,152.877 81.599,153.773C82.537,154.407 83.576,154.892 84.576,155.434C85.693,156.039 86.829,156.608 87.932,157.238C89.149,157.932 90.376,158.624 91.524,159.424C92.154,159.862 92.688,160.477 93.154,161.097C93.386,161.405 93.395,161.9 93.446,162.318C93.471,162.523 93.369,162.747 93.314,162.96C92.974,164.27 93.058,165.501 94.143,166.446C95.159,167.332 94.964,168.403 94.678,169.468C94.383,170.563 93.547,171.144 92.412,171.09C90.356,170.991 88.306,170.867 86.275,170.455C85.077,170.212 83.833,170.2 82.611,170.071C80.998,169.901 79.39,169.658 77.774,169.551C74.362,169.324 70.945,169.164 67.53,168.978C64.638,168.821 61.747,168.66 58.855,168.514C58.109,168.476 57.357,168.516 56.612,168.467C54.642,168.337 52.676,168.139 50.705,168.04C48.948,167.952 47.186,167.93 45.426,167.93C41.199,167.932 36.974,167.96 32.748,167.989C32.27,167.992 31.791,168.053 31.316,168.112C30.504,168.21 29.903,167.912 29.474,167.19C28.954,166.314 28.565,165.394 28.392,164.38C28.248,163.533 28.22,163.54 29.045,163.119C29.159,163.06 29.261,162.976 29.456,162.844" style="fill:rgb(35,31,32);fill-rule:nonzero;"/>
            <path d="M75.478,143.533L75.478,135.965C75.005,135.755 74.542,135.496 74.048,135.34C72.41,134.821 70.701,134.762 69.011,134.549C67.601,134.37 66.658,134.995 65.756,135.857C64.481,137.074 63.956,138.67 63.808,140.347C63.534,143.454 63.525,146.57 63.872,149.681C64.019,150.996 64.098,151.112 65.369,151.029C65.544,151.017 65.722,151.012 65.894,150.978C67.985,150.571 70.089,150.791 72.292,150.782C72.483,151.938 73.332,152.194 74.31,152.291C75.495,152.408 75.878,152.215 76.031,151.043C76.292,149.043 76.435,147.028 76.642,145.021C76.727,144.201 76.463,143.643 75.478,143.533M29.544,155.952C29.674,154.179 29.754,152.386 29.947,150.604C30.225,148.034 30.582,145.472 30.909,142.907C31.026,141.995 31.169,141.087 31.271,140.173C31.309,139.831 31.293,139.476 31.255,139.133C31.163,138.313 31.226,138.116 31.989,137.845C33.312,137.373 34.636,136.881 35.994,136.534C39.095,135.742 42.2,134.956 45.333,134.315C47.907,133.788 50.522,133.457 53.124,133.072C54.728,132.834 56.338,132.62 57.952,132.463C61.319,132.136 64.696,131.887 68.08,132.037C69.341,132.093 70.592,132.384 71.846,132.579C72.838,132.734 73.834,132.874 74.816,133.08C75.985,133.325 77.122,133.687 77.973,134.595C78.171,134.806 78.381,135.093 78.406,135.362C78.506,136.403 78.608,137.453 78.572,138.496C78.502,140.507 78.481,142.537 78.177,144.519C77.85,146.646 78.133,148.719 78.513,150.75C78.858,152.592 79.927,154.129 81.721,155.036C84.344,156.363 86.948,157.728 89.546,159.107C90.23,159.47 90.907,159.885 91.403,160.739C90.855,160.776 90.437,160.786 90.025,160.838C88.899,160.978 88.389,161.625 88.229,163.084C88.105,164.219 88.475,164.829 89.549,165.194C90.047,165.363 90.561,165.489 91.07,165.627C92.355,165.974 93.331,167.069 93.502,168.362C93.636,169.369 93.183,170.007 92.166,170.037C91.118,170.069 90.061,170.008 89.016,169.909C87.181,169.733 85.354,169.483 83.522,169.289C81.255,169.049 78.987,168.828 76.718,168.612C75.888,168.532 75.055,168.487 74.223,168.428C72.216,168.286 70.211,168.103 68.202,168.022C67.074,167.977 65.939,168.155 64.81,168.138C63.495,168.117 62.181,167.998 60.868,167.912C58.509,167.758 56.15,167.596 53.791,167.438C53.703,167.432 53.615,167.427 53.527,167.424C50.541,167.335 47.555,167.202 44.568,167.168C40.481,167.122 36.392,167.101 32.306,167.176C30.912,167.201 30.196,166.487 29.665,165.41C29.238,164.545 29.347,164.166 30.331,163.613C31.727,162.829 32.247,161.65 32.226,160.122C32.2,158.289 31.409,156.939 29.544,155.952" style="fill:rgb(244,209,67);fill-rule:nonzero;"/>
            <path d="M92.013,161.954C92.013,162.468 92.036,162.89 92.007,163.309C91.976,163.739 91.894,164.164 91.836,164.584C89.757,164.865 89.222,164.226 89.726,161.954L92.013,161.954Z" style="fill:rgb(236,230,188);fill-rule:nonzero;"/>
            <path d="M30.384,162.384C29.683,160.641 29.816,158.97 29.762,157.19C31.375,158.456 31.912,160.957 30.384,162.384" style="fill:rgb(240,82,34);fill-rule:nonzero;"/>
            <path d="M73.812,144.457C73.756,144.797 73.703,145.126 73.647,145.455C73.373,147.046 73.617,148.697 73.014,150.258C72.755,150.93 73.084,151.359 73.808,151.467C74.22,151.528 74.649,151.478 75.149,151.478C75.539,149.092 75.971,146.839 75.755,144.457L73.812,144.457ZM74.641,143.449C74.757,141.495 74.876,139.626 74.975,137.758C75.018,136.942 74.69,136.496 73.842,136.217C72.209,135.681 70.532,135.36 68.81,135.423C67.629,135.467 66.652,135.888 65.915,136.94C64.795,138.538 64.555,140.338 64.46,142.183C64.387,143.586 64.423,144.996 64.427,146.403C64.431,147.667 64.382,148.941 64.858,150.166C67.367,150.096 69.839,150.027 72.447,149.954C72.576,148.545 72.737,147.067 72.839,145.584C72.947,144.017 73.078,143.826 74.641,143.449M75.478,143.534C76.463,143.644 76.726,144.202 76.642,145.021C76.435,147.029 76.292,149.044 76.031,151.043C75.877,152.216 75.495,152.409 74.309,152.291C73.332,152.194 72.483,151.939 72.291,150.783C70.089,150.792 67.985,150.571 65.893,150.979C65.722,151.013 65.544,151.018 65.369,151.029C64.098,151.112 64.018,150.997 63.871,149.682C63.524,146.571 63.534,143.455 63.808,140.348C63.956,138.67 64.48,137.075 65.755,135.857C66.657,134.996 67.6,134.371 69.011,134.549C70.701,134.763 72.41,134.822 74.047,135.34C74.542,135.497 75.004,135.755 75.478,135.965L75.478,143.534Z" style="fill:rgb(35,31,32);fill-rule:nonzero;"/>
            <path d="M68.81,135.423C67.63,135.467 66.651,135.886 65.914,136.939C64.795,138.537 64.554,140.338 64.461,142.183C64.387,143.586 64.422,144.995 64.426,146.403C64.431,147.668 64.381,148.941 64.859,150.166C67.368,150.097 69.838,150.027 72.446,149.954C72.577,148.544 72.738,147.066 72.84,145.584C72.948,144.016 73.077,143.825 74.641,143.449C74.758,141.495 74.876,139.626 74.975,137.758C75.019,136.94 74.69,136.496 73.841,136.217C72.347,135.725 70.815,135.415 69.244,135.415C69.099,135.415 68.954,135.418 68.81,135.423Z" style="fill:url(#_Linear1);fill-rule:nonzero;"/>
            <path d="M73.812,144.457L75.755,144.457C75.971,146.839 75.539,149.092 75.149,151.478C74.649,151.478 74.22,151.528 73.808,151.467C73.084,151.359 72.755,150.93 73.014,150.258C73.617,148.697 73.373,147.046 73.647,145.455C73.703,145.126 73.756,144.797 73.812,144.457" style="fill:rgb(216,182,60);fill-rule:nonzero;"/>
            <path d="M33.267,166.627C33.252,170.121 35.933,172.879 39.381,172.919C42.788,172.959 45.659,170.177 45.7,166.799C45.743,163.253 43.032,160.497 39.491,160.487C35.965,160.477 33.282,163.124 33.267,166.627M32.443,166.748C32.451,162.835 35.597,159.701 39.494,159.727C43.402,159.752 46.548,162.913 46.528,166.793C46.507,170.691 43.356,173.809 39.446,173.801C35.513,173.793 32.436,170.694 32.443,166.748" style="fill:rgb(35,31,32);fill-rule:nonzero;"/>
            <path d="M39.594,170.39C41.772,170.382 43.412,168.716 43.399,166.525C43.387,164.391 41.619,162.632 39.532,162.677C37.428,162.723 35.665,164.518 35.692,166.587C35.719,168.718 37.443,170.398 39.594,170.39M33.268,166.627C33.283,163.124 35.966,160.477 39.492,160.487C43.032,160.497 45.743,163.253 45.701,166.799C45.66,170.178 42.788,172.959 39.382,172.92C35.933,172.88 33.253,170.121 33.268,166.627" style="fill:rgb(100,87,69);fill-rule:nonzero;"/>
            <path d="M42.353,166.414C42.332,164.78 41.027,163.494 39.409,163.512C37.85,163.528 36.494,164.941 36.525,166.515C36.556,168.084 37.962,169.452 39.518,169.426C41.119,169.4 42.374,168.065 42.353,166.414M39.594,170.39C37.443,170.397 35.719,168.717 35.692,166.587C35.665,164.518 37.428,162.722 39.531,162.677C41.619,162.631 43.387,164.391 43.399,166.524C43.412,168.715 41.771,170.381 39.594,170.39" style="fill:rgb(35,31,32);fill-rule:nonzero;"/>
            <path d="M42.353,166.414C42.374,168.065 41.119,169.4 39.518,169.426C37.962,169.452 36.556,168.084 36.525,166.515C36.494,164.941 37.85,163.528 39.409,163.512C41.027,163.494 42.332,164.78 42.353,166.414" style="fill:rgb(201,202,204);fill-rule:nonzero;"/>
            <path d="M38.687,164.934C39.444,164.598 40.332,164.655 41.114,164.931C40.946,164.343 40.271,164.047 39.661,164.023C38.775,163.988 37.864,164.396 37.37,165.133C36.875,165.869 36.861,166.921 37.401,167.624C37.162,167.313 37.397,166.424 37.527,166.108C37.741,165.589 38.175,165.162 38.687,164.934" style="fill:white;fill-rule:nonzero;"/>
            <g opacity="0.31">
                <path d="M36.026,162.066C36.339,161.82 36.677,161.605 37.039,161.441C37.629,161.175 38.272,161.049 38.913,160.971C40.025,160.835 41.26,160.873 42.114,161.598C41.213,161.218 40.183,161.301 39.23,161.518C37.467,161.919 35.727,162.832 34.809,164.388C33.914,165.908 33.961,167.787 34.563,169.401C34.216,168.792 33.912,168.392 33.813,167.672C33.717,166.979 33.748,166.27 33.892,165.585C34.178,164.217 34.922,162.934 36.026,162.066" style="fill:rgb(201,159,123);fill-rule:nonzero;"/>
            </g>
            <g opacity="0.31">
                <path d="M40.009,171.112C41.47,171.011 42.933,170.317 43.74,169.094C44.547,167.871 44.564,166.109 43.602,165.005C44.126,166.671 43.617,168.645 42.277,169.764C40.935,170.883 38.819,171.003 37.424,169.951C37.825,170.227 37.972,170.672 38.463,170.889C38.941,171.101 39.493,171.148 40.009,171.112" style="fill:rgb(201,159,123);fill-rule:nonzero;"/>
            </g>
            <path d="M73.856,167.317C73.841,170.811 76.521,173.569 79.97,173.609C83.376,173.649 86.248,170.867 86.289,167.489C86.331,163.942 83.621,161.187 80.08,161.176C76.554,161.167 73.871,163.814 73.856,167.317M73.032,167.437C73.039,163.525 76.186,160.391 80.083,160.417C83.99,160.442 87.137,163.602 87.116,167.483C87.096,171.381 83.945,174.499 80.035,174.491C76.102,174.483 73.025,171.384 73.032,167.437" style="fill:rgb(35,31,32);fill-rule:nonzero;"/>
            <path d="M80.182,171.08C82.36,171.072 84,169.406 83.987,167.215C83.975,165.081 82.207,163.322 80.12,163.368C78.016,163.413 76.254,165.208 76.28,167.278C76.307,169.408 78.031,171.088 80.182,171.08M73.856,167.318C73.871,163.814 76.555,161.167 80.08,161.177C83.621,161.187 86.331,163.943 86.289,167.49C86.248,170.868 83.376,173.65 79.97,173.61C76.521,173.57 73.841,170.811 73.856,167.318" style="fill:rgb(100,87,69);fill-rule:nonzero;"/>
            <path d="M82.942,167.104C82.921,165.47 81.616,164.184 79.998,164.201C78.44,164.218 77.083,165.631 77.114,167.205C77.145,168.774 78.551,170.142 80.107,170.116C81.708,170.09 82.963,168.755 82.942,167.104M80.183,171.079C78.032,171.087 76.308,169.407 76.281,167.277C76.255,165.207 78.017,163.412 80.121,163.367C82.208,163.321 83.976,165.081 83.988,167.214C84.001,169.405 82.36,171.071 80.183,171.079" style="fill:rgb(35,31,32);fill-rule:nonzero;"/>
            <path d="M82.942,167.104C82.963,168.755 81.708,170.09 80.107,170.116C78.551,170.142 77.145,168.774 77.114,167.205C77.083,165.631 78.44,164.218 79.998,164.201C81.616,164.184 82.921,165.47 82.942,167.104" style="fill:rgb(201,202,204);fill-rule:nonzero;"/>
            <path d="M79.276,165.624C80.033,165.288 80.922,165.344 81.703,165.62C81.536,165.033 80.86,164.737 80.251,164.713C79.364,164.678 78.453,165.086 77.959,165.823C77.465,166.559 77.45,167.611 77.99,168.314C77.752,168.003 77.986,167.114 78.116,166.798C78.33,166.279 78.764,165.852 79.276,165.624" style="fill:white;fill-rule:nonzero;"/>
            <g opacity="0.31">
                <path d="M76.615,162.757C76.927,162.511 77.265,162.296 77.628,162.132C78.218,161.866 78.86,161.74 79.502,161.662C80.614,161.526 81.849,161.564 82.703,162.289C81.802,161.909 80.772,161.992 79.818,162.209C78.056,162.61 76.316,163.523 75.398,165.079C74.502,166.599 74.55,168.478 75.151,170.092C74.804,169.482 74.5,169.083 74.401,168.363C74.305,167.67 74.337,166.961 74.48,166.276C74.767,164.908 75.511,163.625 76.615,162.757" style="fill:rgb(201,159,123);fill-rule:nonzero;"/>
            </g>
            <g opacity="0.31">
                <path d="M80.597,171.801C82.059,171.7 83.521,171.006 84.328,169.783C85.136,168.56 85.152,166.799 84.19,165.694C84.714,167.36 84.206,169.335 82.865,170.454C81.523,171.572 79.407,171.692 78.013,170.641C78.413,170.916 78.56,171.361 79.051,171.579C79.529,171.79 80.081,171.837 80.597,171.801" style="fill:rgb(201,159,123);fill-rule:nonzero;"/>
            </g>
            <g opacity="0.5">
                <path d="M52.7,150.451L42.743,150.451C39.446,150.451 36.748,147.754 36.748,144.457C36.748,141.16 39.446,138.462 42.743,138.462L52.7,138.462C55.997,138.462 58.694,141.16 58.694,144.457C58.694,147.754 55.997,150.451 52.7,150.451" style="fill:white;fill-rule:nonzero;"/>
            </g>
            <rect x="31.067" y="151.164" width="4.4" height="4.102" style="fill:rgb(35,31,32);"/>
            <rect x="35.736" y="155.139" width="4.4" height="4.102" style="fill:rgb(35,31,32);"/>
            <rect x="40.427" y="151.228" width="4.4" height="4.102" style="fill:rgb(35,31,32);"/>
            <rect x="45.095" y="155.203" width="4.4" height="4.102" style="fill:rgb(35,31,32);"/>
            <rect x="49.682" y="151.101" width="4.4" height="4.102" style="fill:rgb(35,31,32);"/>
            <rect x="54.351" y="155.076" width="4.4" height="4.102" style="fill:rgb(35,31,32);"/>
            <rect x="58.97" y="151.164" width="4.4" height="4.102" style="fill:rgb(35,31,32);"/>
            <g>
                <path d="M45.008,145C44.797,145.277 44.587,145.484 44.378,145.623C44.169,145.761 43.961,145.865 43.755,145.933C43.548,146.001 43.326,146.035 43.088,146.035C42.464,146.035 41.964,145.812 41.588,145.366C41.212,144.919 41.024,144.382 41.024,143.753C41.024,143.304 41.122,142.9 41.317,142.539C41.513,142.179 41.784,141.896 42.132,141.692C42.479,141.487 42.86,141.385 43.273,141.385C43.752,141.385 44.202,141.527 44.622,141.81C45.042,142.094 45.36,142.519 45.575,143.087C45.791,143.654 45.898,144.355 45.898,145.191C45.898,146.378 45.654,147.325 45.166,148.03C44.678,148.736 43.981,149.089 43.075,149.089C42.455,149.089 41.989,148.954 41.677,148.683C41.365,148.413 41.208,148.104 41.208,147.757L41.208,147.711L42.079,147.711L42.079,147.757C42.079,147.902 42.16,148.039 42.323,148.169C42.486,148.299 42.732,148.364 43.062,148.364C43.449,148.364 43.786,148.248 44.074,148.017C44.362,147.786 44.591,147.408 44.76,146.883C44.93,146.357 45.014,145.815 45.014,145.257L45.008,145ZM43.266,142.11C42.893,142.11 42.577,142.27 42.32,142.589C42.063,142.908 41.934,143.304 41.934,143.779C41.934,144.25 42.069,144.622 42.34,144.897C42.61,145.172 42.939,145.31 43.326,145.31C43.752,145.31 44.1,145.152 44.368,144.838C44.636,144.524 44.77,144.149 44.77,143.713C44.77,143.432 44.704,143.161 44.572,142.902C44.441,142.643 44.258,142.446 44.025,142.312C43.792,142.178 43.539,142.11 43.266,142.11Z" style="fill:rgb(35,31,32);fill-rule:nonzero;"/>
                <path d="M51.028,149.089C50.241,149.089 49.602,148.744 49.111,148.054C48.621,147.363 48.376,146.424 48.376,145.237C48.376,144.05 48.621,143.111 49.111,142.421C49.602,141.73 50.241,141.385 51.028,141.385C51.824,141.385 52.466,141.73 52.954,142.421C53.442,143.111 53.686,144.05 53.686,145.237C53.686,146.424 53.442,147.363 52.954,148.054C52.466,148.744 51.824,149.089 51.028,149.089ZM51.028,148.364C51.643,148.364 52.089,148.047 52.363,147.414C52.638,146.781 52.776,146.055 52.776,145.237C52.776,144.424 52.638,143.699 52.363,143.064C52.089,142.428 51.643,142.11 51.028,142.11C50.416,142.11 49.973,142.428 49.699,143.064C49.424,143.699 49.286,144.424 49.286,145.237C49.286,146.055 49.424,146.781 49.699,147.414C49.973,148.047 50.416,148.364 51.028,148.364Z" style="fill:rgb(35,31,32);fill-rule:nonzero;"/>
            </g>
        </g>
    </g>
    <defs>
        <linearGradient id="_Linear1" x1="0" y1="0" x2="1" y2="0" gradientUnits="userSpaceOnUse" gradientTransform="matrix(9.03275e-16,-14.7516,14.7516,9.03275e-16,69.6969,150.166)"><stop offset="0" style="stop-color:rgb(159,221,249);stop-opacity:1"/><stop offset="1" style="stop-color:rgb(80,117,147);stop-opacity:1"/></linearGradient>
    </defs>
</svg>
