<svg clip-rule="evenodd" fill-rule="evenodd" stroke-linejoin="round" stroke-miterlimit="2" viewBox="0 0 508 180" xmlns="http://www.w3.org/2000/svg"><path d="m54.461 42.205h.988v58.191h-.988z" fill="#814700" transform="matrix(4.52783 0 0 1 -196.486 0)"/><path d="m55.202 42.205h.494v58.191h-.494z" fill="#593400" transform="matrix(4.52783 0 0 1 -196.486 0)"/><path d="m19.991 98.333h467.248v14h-467.248z" fill="#9e9998"/><path d="m52.284 98.333h-4.125l-13.784 14h4.125z" fill="#ed193d"/><path d="m56.408 98.333h-4.124l-13.784 14h4.124z" fill="#fff"/><path d="m60.533 98.333h-4.125l-13.784 14h4.124z" fill="#ed193d"/><path d="m64.657 98.333h-4.124l-13.785 14h4.125z" fill="#fff"/><path d="m68.782 98.333h-4.125l-13.784 14h4.124z" fill="#ed193d"/><path d="m72.906 98.333h-4.124l-13.785 14h4.125z" fill="#fff"/><path d="m77.03 98.333h-4.124l-13.784 14h4.124z" fill="#ed193d"/><path d="m81.155 98.333h-4.125l-13.784 14h4.125z" fill="#fff"/><g fill="#9e9998"><path d="m19.991 165.249h467.248v13.996h-467.248z"/><path d="m487.24 98.333c-2.462 0-4.82.744-7 2.101 3.782 2.352-7.917 11.9-2.044 11.9 10.814 0 12.147 20.31 12.147 27.626 0 7.234-3.103 25.289-12.147 25.289-5.958 0 5.869 9.52 2.044 11.9 2.18 1.356 4.538 2.1 7 2.1 11.103 0 20.105-20.699 20.105-39.289s-9.002-41.627-20.105-41.627" fill-rule="nonzero"/><path d="m20.146 179.249c2.462 0 4.82-.744 7-2.101-3.782-2.352 7.917-11.9 2.044-11.9-10.814 0-12.147-20.31-12.147-27.626 0-7.234 3.103-25.289 12.147-25.289 5.958 0-5.869-9.52-2.044-11.9-2.18-1.356-4.538-2.1-7-2.1-11.103 0-20.105 20.699-20.105 39.289s9.002 41.627 20.105 41.627" fill-rule="nonzero"/></g><path d="m54.491 34.228c.162.144.384.209.6.176.217-.034.402-.161.502-.345.841-1.563 2.621-5.116 2.322-6.69-.401-2.117-2.538-3.558-4.767-3.215-2.23.343-3.714 2.341-3.313 4.458.299 1.574 3.287 4.393 4.656 5.616z" fill="#ee3e97"/><path d="m52.252 25.321c-1.272.196-2.089 1.495-1.822 2.9.266 1.404 1.515 2.386 2.787 2.19-.494-.535-.981-1.423-1.174-2.439-.192-1.015-.06-1.998.209-2.651z" fill="#fff"/><path d="m56.232 35.521c.016.208.134.399.319.515.184.117.414.146.62.079 1.752-.573 5.635-1.963 6.549-3.284 1.23-1.778.685-4.198-1.216-5.4-1.901-1.203-4.442-.736-5.672 1.042-.915 1.321-.733 5.282-.6 7.048z" fill="#4164af"/><path d="m60.998 27.685c-1.084-.686-2.627-.286-3.443.893-.816 1.18-.598 2.694.487 3.38.019-.704.299-1.657.888-2.509.59-.853 1.398-1.471 2.068-1.764z" fill="#fff"/><path d="m53.566 42.499c.037.206.173.385.368.485s.426.108.625.023c1.683-.729 5.403-2.464 6.179-3.865 1.045-1.883.262-4.247-1.748-5.275-2.009-1.029-4.488-.334-5.533 1.549-.776 1.4-.2 5.334.109 7.083z" fill="#ef4237"/><path d="m57.519 34.256c-1.146-.587-2.64-.049-3.333 1.2-.693 1.25-.324 2.741.822 3.327-.051-.704.132-1.679.632-2.582.501-.903 1.242-1.593 1.879-1.945z" fill="#fff"/><path d="m49.824 27.291-13.27-15.577v63.563l13.27-14.824z" fill="#ebebeb"/><path d="m44.481 21.02-7.927-9.306v24.401l7.927 1.486z"/><path d="m44.481 66.422-7.927 8.855v-24.4l7.927-1.487z"/><path d="m49.824 48.278-5.343 1.112v-11.789l5.343 1.163z"/><path d="m55.696 35.418-5.872-8.127v33.162l5.872-7.733z" fill="#ebebeb"/><path d="m53.332 32.146-3.508-4.855v11.473l3.508.748z"/><path d="m53.332 55.833-3.508 4.62v-12.175l3.508-.798z"/><path d="m55.696 46.963-2.364.517v-7.968l2.364.607z"/><path d="m34.375 11.714h2.179v63.563h-2.179z"/><path d="m33.438 16.172c.28.185.631.228.948.117.317-.112.563-.365.666-.684.867-2.713 2.636-8.844 1.785-11.267-1.145-3.259-4.726-4.973-7.993-3.825-3.267 1.147-4.989 4.725-3.845 7.984.851 2.422 6.066 6.1 8.439 7.675z" fill="#ee3e97"/><path d="m27.795 2.61c-1.864.655-2.761 2.942-2.002 5.104.76 2.162 2.89 3.386 4.754 2.731-.881-.718-1.841-1.999-2.39-3.561-.548-1.563-.601-3.163-.362-4.274z" fill="#fff"/><path d="m36.387 17.758c.078.326.304.597.611.733s.66.12.954-.042c2.489-1.385 7.975-4.643 9.013-6.992 1.396-3.159-.042-6.861-3.208-8.26-3.167-1.4-6.872.029-8.268 3.189-1.038 2.349.246 8.599.898 11.372z" fill="#4164af"/><path d="m41.556 4.008c-1.807-.799-4.026.255-4.953 2.351-.926 2.096-.211 4.446 1.596 5.244-.15-1.125.027-2.717.696-4.231.67-1.515 1.727-2.717 2.661-3.364z" fill="#fff"/><path d="m34.158 29.576c.108.317.359.566.678.672s.669.057.946-.132c2.346-1.615 7.499-5.379 8.309-7.816 1.09-3.277-.692-6.825-3.977-7.918s-6.838.681-7.928 3.958c-.811 2.437 1.061 8.537 1.972 11.236z" fill="#ef4237"/><path d="m38 15.398c-1.875-.624-3.984.635-4.707 2.81-.723 2.174.211 4.445 2.086 5.069-.257-1.106-.231-2.707.291-4.279.523-1.571 1.462-2.868 2.33-3.6z" fill="#fff"/></svg>