<svg clip-rule="evenodd" fill-rule="evenodd" stroke-miterlimit="10" viewBox="0 0 466 334" xmlns="http://www.w3.org/2000/svg"><g opacity=".7"><path d="m21.322 20.988v291.675h423.371v-65.421h-18.45l18.45-51.137v-8.3l-15.958-28.659 15.958-29.096v-8.033l-18.45-47.933h18.45v-53.096z" fill="#c8badb" fill-rule="nonzero"/><path d="m444.693 196.104v-8.304l-15.958-28.658 15.958-29.092v-8.033l-18.45-47.93h18.45v-53.1h-423.371v291.675h423.371v-65.42h-18.45z" fill="none" stroke="#a368ab" stroke-width="4.11"/></g><path d="m189.138 208.07c3.612.145 8.2-2.342 9.587-5.146.117-.229-.941-1.484-1.479-1.504-2.808-.105-5.625.129-8.446.062-1.804-.05-6.495 2.629-5.925 3.654.705 1.267 2.705 1.871 4.221 2.592.713.342 1.613.275 2.042.342zm119.054-154.313c-.283-7.454-3.796-12.862-9.442-17.062-1.212-.905-2.791-1.321-4.195-1.959.687 1.479 1.304 3.004 2.075 4.442 2.7 5.025 5.5 9.996 8.162 15.042.763 1.437 1.175 3.05 1.75 4.587.546-1.683 1.096-3.367 1.65-5.05zm-156.525 168.842c-.521.108-1.042.212-1.562.312-.217.846-.767 1.767-.592 2.534 1.146 5.091 2.379 10.166 3.721 15.212.704 2.663 1.683 5.254 2.521 7.883.904 2.846 3.416 2.309 5.508 2.646-.175-1.308-.317-2.625-.542-3.925-.133-.804-.362-1.608-.608-2.391-2.096-6.63-4.15-13.275-6.358-19.867-.309-.929-1.371-1.608-2.088-2.404zm38.892-4.617c10.679-.062 16.462-7.362 18.958-15.462.617-2.005-.642-2.563-1.892-1.855-2.808 1.596-5.662 3.313-7.962 5.534-4.558 4.404-8.4 6.137-14.85 3.216-2.275-1.029-4.883-1.395-7.379-1.862-.759-.146-1.646.396-2.479.625.295.862.383 1.883.912 2.567 3.963 5.087 10.221 5.279 14.692 7.237zm81.229-140.817c.354-.083.708-.166 1.058-.254-1.412-8.466-2.787-16.937-4.283-25.391-.171-.959-.938-1.859-1.563-2.684-2.687-3.533-5.245-7.191-8.2-10.491-3.583-3.992-7.208-8.063-11.375-11.388-6.091-4.854-13.479-7.325-20.908-9.421-10.679-3.021-21.596-4.166-32.679-3.55-.721.042-1.417.467-2.121.709.708.408 1.388 1.133 2.125 1.187 9.558.7 18.713 2.738 27.696 6.321 9.183 3.662 18.179 7.129 24.958 14.85 3.367 3.837 7.829 6.704 11.275 10.492 5.6 6.154 9.517 13.308 11.192 21.612.554 2.75 1.858 5.346 2.825 8.008zm-99.742 110.967c-.491-2.462-1.441-4.254-1-5.592.946-2.887 2.625-5.537 3.938-8.312.275-.575.554-1.5.283-1.892-.296-.429-1.417-.796-1.829-.566-2.271 1.262-5.371 2.2-6.467 4.195-4.179 7.6-6.904 15.53-1.162 23.834 3.225 4.666 12.596 7.521 16.583 1.258 2.242-3.525 3.608-7.1 3.008-11.404-.779-5.542-.379-10.938 3.146-15.7.359-.483.038-2.233-.341-2.363-4.513-1.625-10.109.992-11.942 5.505-1.338 3.308-2.55 6.666-4.217 11.037zm-32.929 125.688c1.238-.425 3.367-.538 4.333-1.659 1.267-1.454 1.83-3.658 2.317-5.633 1.113-4.479 2.025-9.004 2.929-13.529.15-.742.184-1.975-.246-2.292-3.654-2.733-3.537-6.542-3.312-10.454.037-.733-.025-1.846-.483-2.179-6.525-4.754-5.159-10.684-2.775-16.892.225-.592-.65-1.6-1.013-2.417-.583.384-1.442.642-1.7 1.184-.729 1.537-1.379 3.158-1.775 4.816-1.608 6.792-3.117 13.6-4.654 20.413-.283 1.25-.45 2.525-.775 3.767-1.767 6.708-3.558 13.412-5.35 20.112-.521 1.946.275 2.808 2.196 3.075 3.241.454 6.462 1.05 10.308 1.688zm93.121-29.384c-3.979 4.384-6.7 9.967-13.267 10.354-1.704.105-3.441-.2-5.158-.387-6.296-.688-12.671-1.625-18.017-5.067-2.904-1.871-3.033-.616-3.808 1.442-3.042 8.083-8.417 13.642-17.275 14.879-7.846 1.096-15.279-.537-22.2-4.387-1.4-.775-1.908-.73-2.375.979-.746 2.766-1.908 5.421-2.817 8.15-.558 1.675-1.071 3.391 1.25 4.321 3.475 1.391 6.884 3.945 10.392 4.083 11.767.442 23.35 3.929 35.283 1.808 8.475-1.508 17.184-1.904 25.563-3.779 5.533-1.242 10.55-4.629 16.025-6.308 3.579-1.092 3.7-2.817 2.812-5.629-2.121-6.705-4.208-13.425-6.408-20.459zm-54.746-47.483c-3.733.433-7.496.692-11.192 1.346-4.191.737-4.333 1.162-3.245 5.337.15.567.35 1.121.529 1.684 2.008 6.283 2.696 6.45 7.121 1.754.233-.254.533-.459.837-.621.625-.329 1.271-.621 1.908-.929.105.833.534 1.796.263 2.475-1.688 4.237-5.038 6.246-9.479 6.341-2.454.05-4.975-.67-7.375-.35-3.738.5-5.375-3.687-5.175-4.429 1.812-6.771-2.367-3.483-4.788-3.116-4.821.725-5.375 1.25-4.537 6.108.354 2.046 1.637 3.937 2.537 5.883 1.509 3.254 4.013 5.279 7.479 6.279.6.18.896 1.388 1.33 2.125-.717.188-1.613.738-2.125.496-1.842-.883-3.5-2.146-5.342-3.029-.792-.375-2.417-.579-2.717-.171-1.354 1.842-.371 8.617 1.55 9.967 3.142 2.212 6.55 4.046 9.784 6.137.766.496 1.275 1.388 1.904 2.1-.792.267-1.675.888-2.367.717-1.629-.392-3.15-1.225-4.758-1.767-.717-.241-1.604-.42-2.267-.191-.329.116-.462 1.229-.421 1.875.246 3.658 4.392 7.416 8.596 7.779 1.638.142 3.313-.021 4.933.2.63.087 1.159.867 1.734 1.329-.579.433-1.134 1.213-1.738 1.25-2.221.146-4.458.013-6.691.05-1.013.013-2.021.175-3.034.263.496 1.195.646 2.82 1.534 3.512 6.841 5.375 14.729 6.233 23.083 5.1 6.912-.942 10.404-5.754 13.187-11.337 1.025-2.059 1.034-5.525 2.509-6.217 1.566-.738 4.316 1.079 6.558 1.737 6.304 1.855 12.592 3.771 18.946 5.434 1.487.391 3.846.521 4.708-.334 2.842-2.82 5.892-5.812 7.567-9.345 3.208-6.788 5.85-13.859 7.029-21.417.354-2.258-.3-2.925-1.933-3.679-3.775-1.75-7.609-3.4-11.25-5.4-2.038-1.121-2.5-.384-3.25 1.366-2.075 4.871-4.338 9.663-6.604 14.45-1.163 2.455-1.484 4.45 1.858 5.305.779.2 1.596.55 2.212 1.054 1.175.954 2.213 2.071 3.313 3.121-1.463-.075-3.179.312-4.342-.321-5.104-2.804-9.887-6.229-15.096-8.813-5.783-2.875-9.087-6.812-8.266-13.512.029-.229.029-.479-.029-.704-1.138-4.242-1.767-8.713-3.555-12.659-2.179-4.825-7.016-4.291-11.433-4.233zm31.563 32.667c2.316-5.4 4.533-10.625 6.8-15.83.741-1.712 1.225-2.937-1.463-3.433-1.075-.196-2.737-2.021-2.65-2.975.883-9.637 2.046-19.25 3.233-28.858.059-.504 1.105-1.271 1.634-1.229.525.041 1.371.95 1.387 1.5.05 1.737-.137 3.5-.379 5.233-1.021 7.275-2.137 14.542-3.062 21.829-.071.525 1.112 1.763 1.67 1.742 8.646-.367 15.046 4.796 22.017 8.616 1.796.984 3.904 1.721 5.925 1.88 2.983.229 5.108-.788 5.013-4.605-.092-3.741.191-7.562.904-11.229 1.971-10.058 2.75-20.046-.209-30.037-2.854-9.629-8.17-14.275-18.05-14.596-5.075-.167-10.225.812-15.258 1.725-1.396.254-2.833 1.929-3.654 3.308-1.704 2.854-3.025 5.938-4.458 8.954-2.259 4.755-6.655 6.9-11.138 8.563-7.35 2.712-13.612-1.45-19.871-4.263-2.071-.933-3.933-3.454-4.787-5.67-.984-2.555-2.729-3.796-4.754-5.084-.98-.625-2.188-1.137-2.796-2.041-2.225-3.309-5.642-2.23-7.484-.846-4.862 3.646-9.083 8.062-11.758 13.783-2.729 5.838-6.542 11.204-7.212 17.863-.017.195-.338.337-.413.545-1.858 5.342-3.937 10.625-5.475 16.067-.971 3.438 2.371 3.096 4.296 3.638 2.179.612 2.429-.78 2.442-2.592.058-6.425.287-6.742 6.683-8.029 3.225-.654 4.383-2.204 3.446-5.446-.963-3.325-1.754-6.704-2.492-10.088-1.654-7.533-1.221-7.97 6.388-8.029 2.104-.016 2.812.638 3.033 2.767.217 2.058 1.187 4.033 1.833 6.046 1.4-2.254 1.867-4.321 2.546-6.313.671-1.958 1.475-3.883 2.421-5.721.329-.645 1.242-.987 1.892-1.47.333.679 1.07 1.458.929 2.016-.538 2.113-1.321 4.163-2.079 6.209-1.209 3.241-2.759 6.383-3.625 9.708-.805 3.1.645 4.121 3.65 3.017 1.275-.471 2.52-1.334 3.82-1.405 5.384-.3 10.817-.791 16.167-.37 4.188.329 7.396 3.166 8.438 7.354 1.458 5.85 2.3 11.85 3.658 17.725.312 1.371 1.362 2.883 2.521 3.691 3.283 2.284 6.796 4.238 10.321 6.38zm138.195-136.542h.746c0-14.117.142-28.238-.066-42.35-.084-5.746-.417-11.579-1.538-17.196-1.854-9.283-4.467-18.383-8.842-26.921-2.083-4.071-4.97-7.241-8.712-9.433-7.858-4.604-16.488-4.529-25.179-3.158-.721.112-1.379.645-2.071.983.492.558.929 1.187 1.487 1.675 6.342 5.55 8.821 15.704 6.092 23.633-.592 1.713-.142 3.888.2 5.779.367 2.017 1.388 3.917 1.758 5.93 1.346 7.22 1.917 14.554.775 21.812-1.283 8.175-3.008 16.288-4.845 24.363-.871 3.816-1.975 7.733-3.817 11.154-3.358 6.25-5.379 12.579-4.3 19.733.258 1.725.004 3.521.071 5.283.383 10.184-1.913 19.955-4.534 29.68-1.391 5.179-2.204 10.575-4.191 15.5-1.184 2.929-2.975 4.125 1.287 6.337 11.179 5.808 22.675 9.567 35.379 9.375 2.996-.037 4.155-.892 4.117-4.042-.054-4.691.346-9.395.746-14.079.067-.791.996-1.633 1.737-2.166.205-.15 1.525.612 1.696 1.154 1.529 4.937 3.204 9.862 4.213 14.916.487 2.467 1.416 2.917 3.454 2.492 4.183-.871 8.354-1.829 12.55-2.65 3-.583 2.917-1.758 1.379-4.067-2.154-3.225-4.479-6.545-5.642-10.179-2.312-7.196-4.016-14.587-3.97-22.275.083-13.762.02-27.521.02-41.283zm-134.829 15.417c-2.204-.163-3.275-.05-4.212-.355-1.063-.345-1.996-1.066-2.988-1.625 1.004-.445 1.967-1.112 3.017-1.295 3.683-.642 7.392-1.117 11.096-1.646.916-.129 1.837-.209 2.762-.309-.554.867-.916 2.184-1.696 2.513-4.016 1.696-6.22 4.721-8.325 8.487-2.47 4.409-5.087 8.925-9.887 11.734-4.046 2.371-9.404 2.937-11.225 8.762-1.421 4.542-3.9 8.629-2.971 13.767.483 2.671.488 5.758-.417 8.25-.816 2.246-.045 2.2 1.425 2.137 4.821-.183 9.634-.504 14.446-.683 9.717-.358 19.313-1.192 27.567-7.117 3.537-2.537 7.05-5.12 10.379-7.912.621-.521.713-2.25.388-3.2-.717-2.092.095-2.608 1.92-2.429 2.334.233 4.659.558 6.988.833 7.854.921 13.35-3.433 18.708-8.242 3.734-3.354 5.713-7.208 4.346-12.254-.408-1.529-1.171-2.958-1.758-4.441-3.45-8.705-10.534-11.259-18.521-6.413-2.879 1.746-5.35 4.158-8.079 6.171-.513.379-1.354.325-2.05.467.008-.688-.254-1.584.079-2.017 1.042-1.346 2.383-2.467 3.437-3.804.296-.371.284-1.471-.029-1.767-8.729-8.208-11.737-19.079-13.962-30.225-.896-4.475-.7-9.162-1.563-13.646-.391-2.008-1.875-5.091-3.341-5.396-9.846-2.045-18.613-6.595-27.175-11.42-4.384-2.475-8.446-6.038-11.692-9.909-4.442-5.316-7.971-11.396-12.392-17.896-.508 4.963-1.346 9.63-1.358 14.292-.021 6.071.812 12.075 4.062 17.492.509.841.163 2.196.213 3.312-.888-.021-1.942.254-2.633-.121-2.946-1.583-5.9-3.204-8.642-5.112-3.833-2.671-7.796-5.283-11.104-8.533-3.621-3.559-7.613-7.096-8.471-12.655-.258-1.675-.971-3.283-1.496-4.979-1.392 1.759-2.321 3.479-3.729 4.588-3.517 2.754-7.138 5.412-10.929 7.775-4.563 2.837-9.734 4.208-10.4 11.412-.704 7.625-3.817 14.992-5.279 22.588-1.3 6.75-2.171 13.637-2.555 20.5-.808 14.696-1.27 29.241 4.942 43.383 3.992 9.092 11.075 14.708 18.592 19.721 4.891 3.258 11.304 4.267 17.083 6.125 1.633.525 3.454.492 5.188.712-.071-1.666-.075-3.341-.217-5.008-.625-7.242.871-13.821 5.808-19.412 1.188-1.346 1.871-2.692-.787-3.346-1.434-.35-2.9-.917-4.104-1.746-.905-.625-1.405-1.821-2.088-2.763 1.038.025 2.146-.158 3.108.121 1.963.579 3.821 1.934 5.767 2.038 6.879.354 13.913 1.183 20.617.141 5.004-.783 10.233-3.395 14.196-6.62 3.912-3.188 6.362-8.167 9.941-13.025zm15.954-134.213h-1.604c0 .029.004.063.004.092l1.617-.075c.55.625.983 1.55 1.679 1.829 3.867 1.55 7.996 2.558 11.642 4.492 3.925 2.07 7.846 4.512 10.992 7.591 4.787 4.688 8.875 10.075 13.3 15.134 3.987 4.55 7.15 9.412 6.529 15.858-.042.454.021.95.141 1.4 2.534 9.137 2.967 18.475 2.488 27.875-.042.825-.642 1.625-.983 2.433-.638-.721-1.58-1.341-1.846-2.183-.642-2.004-.763-4.179-1.459-6.163-1.666-4.779-4.066-9.366-5.216-14.258-1.817-7.717-5.604-14.083-11.167-19.529-3.071-3.013-6.171-5.996-9.371-8.867-3.579-3.208-6.871-7.108-11.046-9.225-7.475-3.791-15.325-7.154-23.383-9.425-7.587-2.133-15.625-2.708-23.487-3.812-7.017-.984-13.859.641-20.721 1.721-2.209.35-4.517.27-6.634.879-7.57 2.191-15.145 4.396-22.579 6.996-3.541 1.229-6.987 3.037-10.096 5.141-4.945 3.346-9.566 7.167-14.345 10.767-6.771 5.1-11.705 11.367-12.971 20.025-.275 1.85-.771 3.687-.863 5.55-.346 6.95-1.366 13.996-.6 20.833.684 6.117 3.192 12.084 5.263 17.988 2.029 5.775 4.521 11.387 6.812 17.071.313-.063.621-.134.934-.2 1.279-7.388 2.32-14.83 3.904-22.155 1.596-7.408 3.733-14.7 5.791-22.67-2.404 1.045-4.029 1.887-5.754 2.425-.566.175-1.375-.442-2.071-.7.359-.75.53-1.9 1.121-2.196 3.7-1.838 7.45-3.596 11.275-5.163 6.242-2.562 12.042-5.854 16.863-10.566 3-2.925 5.312-6.175 4.85-11.034-.334-3.446.612-7.083 1.387-10.546 1.479-6.583 6.6-9.829 12.125-12.575-1.091 1.425-2.483 2.563-3.675 3.88-3.162 3.504-6.775 6.966-6.896 12.012-.158 6.338.292 12.683.53 19.025.029.775.291 1.588.641 2.288 5.059 10.183 13.909 16.212 23.646 21.416-.304-1.6-1.225-2.916-1.537-4.366-2.359-10.925-2.25-21.63 3.325-31.738.312-.562.758-1.146 1.295-1.471.63-.387 1.421-.5 2.146-.729.134.754.504 1.554.359 2.246-.663 3.087-.625 5.954 1.495 8.583 1.134 1.404 2.055 3.004 2.938 4.584 4.321 7.775 10.112 14.012 17.958 18.433 10.4 5.867 21.225 10.458 33.084 12.2 3.695.542 7.52.187 11.27.433.996.063 1.946.834 2.913 1.279-.904.55-1.763 1.463-2.713 1.575-2.091.259-4.233.159-6.35.113-6.841-.146-6.833-.163-6.387 6.425.854 12.446 3.229 24.35 10.85 34.771 3.546 4.846 4.771 5.816 9.146 3.621 4.462-2.246 8.833-2.988 13.025.412 1.854 1.5 4.166 2.933 5.133 4.946 2.467 5.162 5.783 10.346 3.146 16.571-.242.575-.038 1.337-.042 2.012.609-.396 1.329-.679 1.796-1.2 1.608-1.796 3.313-3.554 4.65-5.537 3.904-5.784 8.204-11.388 11.3-17.584 3.346-6.683 5.425-13.987 8.2-20.958 3.954-9.908 6.292-20.162 6.954-30.804.717-11.358-.325-22.388-5.646-32.717-3.416-6.629-5.995-13.812-10.195-19.883-5.609-8.108-13.9-13.1-23.613-15.45-1.479-.358-2.942-.808-4.387-1.3-5.23-1.767-10.33-4.129-15.696-5.213-6.95-1.404-14.113-1.8-21.184-2.633zm106.021 194.313c-.108 1.591-.412 3.195-.271 4.766.342 3.779-1.875 5.267-5.025 5.159-5.966-.196-12.187.112-17.812-1.517-8.6-2.492-16.842-6.288-25.092-9.867-2.325-1.004-1.975-3.741-.9-5.6 3.938-6.779 4.263-14.616 6.709-21.796 3.162-9.295 3.687-18.812 3.666-28.454v-2.3c-2.554 3.575-4.85 7.046-7.408 10.313-5.217 6.662-10.154 13.691-19.092 15.983-1.171.304-2.254 1.167-3.246 1.942-5.112 3.991-10.945 4.921-17.195 4.15-1.559-.188-2.309.071-3.467 1.712-2.192 3.088-5.479 5.404-8.354 8-1.05.954-2.225 1.775-4.142 3.292 6.158-.167 10.125 2.425 13.875 5.658 4.817 4.154 7.783 9.459 7.921 15.621.233 10.55-.267 21.117-.65 31.671-.104 2.879-.888 5.733-1.383 8.592-.725 4.129-5.725 7.237-9.73 5.758-2.783-1.033-3.766-.104-4.275 2.521-.479 2.462-1.162 4.912-2.004 7.279-2.3 6.467-1.808 12.592.788 19 2.25 5.571 3.425 11.587 4.925 17.45.654 2.546-.575 3.929-3.113 4.896-4.821 1.841-9.329 4.554-14.212 6.146-5.184 1.691-10.6 2.837-16.004 3.62-16.996 2.48-34.005 1.55-50.963-.62-2.6-.334-5.412-.95-7.575-2.305-5.342-3.345-11.35-2.266-17.021-3.329-2.221-.412-4.504-1-6.508-2.004-3.513-1.754-4.263-4.612-2.621-8.025.642-1.329 1.283-2.704 1.596-4.129 1.796-8.1 3.379-16.25 5.267-24.333 1.279-5.5 2.845-10.938 4.454-16.359.762-2.554.566-4.104-2.388-4.979-2.966-.883-4.346-3.229-3.312-6.321 2.937-8.771 5.791-17.579 9.104-26.204 1.879-4.9 4.408-9.587 7.021-14.15 1.4-2.45 3.591-4.442 5.429-6.637.958-1.15 3.317-2.363-.288-3.196-1.779-.417-3.441-1.346-5.225-1.738-6.37-1.4-11.745-4.4-16.225-9.187-2.262-2.413-5.112-4.271-7.354-6.696-1.833-1.983-3.425-4.296-4.666-6.7-6.209-11.963-7.805-24.829-6.9-38.088.275-4.041-.188-7.32-2.571-11.091-3.542-5.604-5.779-12.146-7.85-18.525-2.359-7.275-4.404-14.725-5.654-22.254-.713-4.334.366-8.984.741-13.475.221-2.692.575-5.375.975-8.046 1.338-8.9 5.454-16.175 12.679-21.675 4.55-3.467 8.717-7.475 13.5-10.554 4.896-3.155 10.134-6.03 15.588-8.034 6.312-2.316 13.146-3.179 19.529-5.333 11.079-3.729 22.829-3.638 33.979-6.463 6.175-1.566 11.779 0 17.65.217 9.742.367 19.488.604 29.234.733 8.612.121 16.779 1.834 24.62 5.509 3.759 1.762 8.03 2.433 11.821 4.146 4.567 2.062 9.134 4.333 13.221 7.2 4.938 3.458 9.833 3.262 15.192 1.695 6.021-1.766 12.116-1.845 18.158.084.546.171 1.1.341 1.658.466 9.038 2.046 14.375 7.675 18.163 16.155 3.487 7.804 6.242 15.775 7.746 24.004 1.475 8.033 1.796 16.371 1.791 24.575-.004 24.246-.512 48.491-.604 72.737-.016 5.621.175 11.404 1.492 16.817 1.887 7.742 4.037 15.612 10.458 21.296 1.7 1.504.725 4.229-2.737 5.408-6.367 2.163-12.838 4.317-19.763 3.825-2.962-.208-4.171-2.087-4.425-4.771-.108-1.158-.016-2.333-.016-3.5-.305-.05-.605-.091-.909-.141z" fill="none" stroke="#fff" stroke-linecap="round" stroke-linejoin="round" stroke-width="13.21"/><g fill-rule="nonzero"><path d="m189.138 208.07c3.612.145 8.2-2.342 9.587-5.146.117-.229-.941-1.484-1.479-1.504-2.808-.105-5.625.129-8.446.062-1.804-.05-6.495 2.629-5.925 3.654.705 1.267 2.705 1.871 4.221 2.592.713.342 1.613.275 2.042.342m119.054-154.313c-.283-7.454-3.796-12.862-9.442-17.062-1.212-.905-2.791-1.321-4.195-1.959.687 1.479 1.304 3.004 2.075 4.442 2.7 5.025 5.5 9.996 8.162 15.042.763 1.437 1.175 3.05 1.75 4.587.546-1.683 1.096-3.367 1.65-5.05m-156.525 168.842c-.521.108-1.042.212-1.562.312-.217.846-.767 1.767-.592 2.534 1.146 5.091 2.379 10.166 3.721 15.212.704 2.663 1.683 5.254 2.521 7.883.904 2.846 3.416 2.309 5.508 2.646-.175-1.308-.317-2.625-.542-3.925-.133-.804-.362-1.608-.608-2.391-2.096-6.63-4.15-13.275-6.358-19.867-.309-.929-1.371-1.608-2.088-2.404m38.892-4.617c10.679-.062 16.462-7.362 18.958-15.462.617-2.005-.642-2.563-1.892-1.855-2.808 1.596-5.662 3.313-7.962 5.534-4.558 4.404-8.4 6.137-14.85 3.216-2.275-1.029-4.883-1.395-7.379-1.862-.759-.146-1.646.396-2.479.625.295.862.383 1.883.912 2.567 3.963 5.087 10.221 5.279 14.692 7.237m81.229-140.817c.354-.083.708-.166 1.058-.254-1.412-8.466-2.787-16.937-4.283-25.391-.171-.959-.938-1.859-1.563-2.684-2.687-3.533-5.245-7.191-8.2-10.491-3.583-3.992-7.208-8.063-11.375-11.388-6.091-4.854-13.479-7.325-20.908-9.421-10.679-3.021-21.596-4.166-32.679-3.55-.721.042-1.417.467-2.121.709.708.408 1.388 1.133 2.125 1.187 9.558.7 18.713 2.738 27.696 6.321 9.183 3.662 18.179 7.129 24.958 14.85 3.367 3.837 7.829 6.704 11.275 10.492 5.6 6.154 9.517 13.308 11.192 21.612.554 2.75 1.858 5.346 2.825 8.008m-99.742 110.967c-.491-2.462-1.441-4.254-1-5.592.946-2.887 2.625-5.537 3.938-8.312.275-.575.554-1.5.283-1.892-.296-.429-1.417-.796-1.829-.566-2.271 1.262-5.371 2.2-6.467 4.195-4.179 7.6-6.904 15.53-1.162 23.834 3.225 4.666 12.596 7.521 16.583 1.258 2.242-3.525 3.608-7.1 3.008-11.404-.779-5.542-.379-10.938 3.146-15.7.359-.483.038-2.233-.341-2.363-4.513-1.625-10.109.992-11.942 5.505-1.338 3.308-2.55 6.666-4.217 11.037m-32.929 125.688c1.238-.425 3.367-.538 4.333-1.659 1.267-1.454 1.83-3.658 2.317-5.633 1.113-4.479 2.025-9.004 2.929-13.529.15-.742.184-1.975-.246-2.292-3.654-2.733-3.537-6.542-3.312-10.454.037-.733-.025-1.846-.483-2.179-6.525-4.754-5.159-10.684-2.775-16.892.225-.592-.65-1.6-1.013-2.417-.583.384-1.442.642-1.7 1.184-.729 1.537-1.379 3.158-1.775 4.816-1.608 6.792-3.117 13.6-4.654 20.413-.283 1.25-.45 2.525-.775 3.767-1.767 6.708-3.558 13.412-5.35 20.112-.521 1.946.275 2.808 2.196 3.075 3.241.454 6.462 1.05 10.308 1.688m93.121-29.384c-3.979 4.384-6.7 9.967-13.267 10.354-1.704.105-3.441-.2-5.158-.387-6.296-.688-12.671-1.625-18.017-5.067-2.904-1.871-3.033-.616-3.808 1.442-3.042 8.083-8.417 13.642-17.275 14.879-7.846 1.096-15.279-.537-22.2-4.387-1.4-.775-1.908-.73-2.375.979-.746 2.766-1.908 5.421-2.817 8.15-.558 1.675-1.071 3.391 1.25 4.321 3.475 1.391 6.884 3.945 10.392 4.083 11.767.442 23.35 3.929 35.283 1.808 8.475-1.508 17.184-1.904 25.563-3.779 5.533-1.242 10.55-4.629 16.025-6.308 3.579-1.092 3.7-2.817 2.812-5.629-2.121-6.705-4.208-13.425-6.408-20.459m-54.746-47.483c-3.733.433-7.496.692-11.192 1.346-4.191.737-4.333 1.162-3.245 5.337.15.567.35 1.121.529 1.684 2.008 6.283 2.696 6.45 7.121 1.754.233-.254.533-.459.837-.621.625-.329 1.271-.621 1.908-.929.105.833.534 1.796.263 2.475-1.688 4.237-5.038 6.246-9.479 6.341-2.454.05-4.975-.67-7.375-.35-3.738.5-5.375-3.687-5.175-4.429 1.812-6.771-2.367-3.483-4.788-3.116-4.821.725-5.375 1.25-4.537 6.108.354 2.046 1.637 3.937 2.537 5.883 1.509 3.254 4.013 5.279 7.479 6.279.6.18.896 1.388 1.33 2.125-.717.188-1.613.738-2.125.496-1.842-.883-3.5-2.146-5.342-3.029-.792-.375-2.417-.579-2.717-.171-1.354 1.842-.371 8.617 1.55 9.967 3.142 2.212 6.55 4.046 9.784 6.137.766.496 1.275 1.388 1.904 2.1-.792.267-1.675.888-2.367.717-1.629-.392-3.15-1.225-4.758-1.767-.717-.241-1.604-.42-2.267-.191-.329.116-.462 1.229-.421 1.875.246 3.658 4.392 7.416 8.596 7.779 1.638.142 3.313-.021 4.933.2.63.087 1.159.867 1.734 1.329-.579.433-1.134 1.213-1.738 1.25-2.221.146-4.458.013-6.691.05-1.013.013-2.021.175-3.034.263.496 1.195.646 2.82 1.534 3.512 6.841 5.375 14.729 6.233 23.083 5.1 6.912-.942 10.404-5.754 13.187-11.337 1.025-2.059 1.034-5.525 2.509-6.217 1.566-.738 4.316 1.079 6.558 1.737 6.304 1.855 12.592 3.771 18.946 5.434 1.487.391 3.846.521 4.708-.334 2.842-2.82 5.892-5.812 7.567-9.345 3.208-6.788 5.85-13.859 7.029-21.417.354-2.258-.3-2.925-1.933-3.679-3.775-1.75-7.609-3.4-11.25-5.4-2.038-1.121-2.5-.384-3.25 1.366-2.075 4.871-4.338 9.663-6.604 14.45-1.163 2.455-1.484 4.45 1.858 5.305.779.2 1.596.55 2.212 1.054 1.175.954 2.213 2.071 3.313 3.121-1.463-.075-3.179.312-4.342-.321-5.104-2.804-9.887-6.229-15.096-8.813-5.783-2.875-9.087-6.812-8.266-13.512.029-.229.029-.479-.029-.704-1.138-4.242-1.767-8.713-3.555-12.659-2.179-4.825-7.016-4.291-11.433-4.233m31.563 32.667c2.316-5.4 4.533-10.625 6.8-15.83.741-1.712 1.225-2.937-1.463-3.433-1.075-.196-2.737-2.021-2.65-2.975.883-9.637 2.046-19.25 3.233-28.858.059-.504 1.105-1.271 1.634-1.229.525.041 1.371.95 1.387 1.5.05 1.737-.137 3.5-.379 5.233-1.021 7.275-2.137 14.542-3.062 21.829-.071.525 1.112 1.763 1.67 1.742 8.646-.367 15.046 4.796 22.017 8.616 1.796.984 3.904 1.721 5.925 1.88 2.983.229 5.108-.788 5.013-4.605-.092-3.741.191-7.562.904-11.229 1.971-10.058 2.75-20.046-.209-30.037-2.854-9.629-8.17-14.275-18.05-14.596-5.075-.167-10.225.812-15.258 1.725-1.396.254-2.833 1.929-3.654 3.308-1.704 2.854-3.025 5.938-4.458 8.954-2.259 4.755-6.655 6.9-11.138 8.563-7.35 2.712-13.612-1.45-19.871-4.263-2.071-.933-3.933-3.454-4.787-5.67-.984-2.555-2.729-3.796-4.754-5.084-.98-.625-2.188-1.137-2.796-2.041-2.225-3.309-5.642-2.23-7.484-.846-4.862 3.646-9.083 8.062-11.758 13.783-2.729 5.838-6.542 11.204-7.212 17.863-.017.195-.338.337-.413.545-1.858 5.342-3.937 10.625-5.475 16.067-.971 3.438 2.371 3.096 4.296 3.638 2.179.612 2.429-.78 2.442-2.592.058-6.425.287-6.742 6.683-8.029 3.225-.654 4.383-2.204 3.446-5.446-.963-3.325-1.754-6.704-2.492-10.088-1.654-7.533-1.221-7.97 6.388-8.029 2.104-.016 2.812.638 3.033 2.767.217 2.058 1.187 4.033 1.833 6.046 1.4-2.254 1.867-4.321 2.546-6.313.671-1.958 1.475-3.883 2.421-5.721.329-.645 1.242-.987 1.892-1.47.333.679 1.07 1.458.929 2.016-.538 2.113-1.321 4.163-2.079 6.209-1.209 3.241-2.759 6.383-3.625 9.708-.805 3.1.645 4.121 3.65 3.017 1.275-.471 2.52-1.334 3.82-1.405 5.384-.3 10.817-.791 16.167-.37 4.188.329 7.396 3.166 8.438 7.354 1.458 5.85 2.3 11.85 3.658 17.725.312 1.371 1.362 2.883 2.521 3.691 3.283 2.284 6.796 4.238 10.321 6.38m138.195-136.542h.746c0-14.117.142-28.238-.066-42.35-.084-5.746-.417-11.579-1.538-17.196-1.854-9.283-4.467-18.383-8.842-26.921-2.083-4.071-4.97-7.241-8.712-9.433-7.858-4.604-16.488-4.529-25.179-3.158-.721.112-1.379.645-2.071.983.492.558.929 1.187 1.487 1.675 6.342 5.55 8.821 15.704 6.092 23.633-.592 1.713-.142 3.888.2 5.779.367 2.017 1.388 3.917 1.758 5.93 1.346 7.22 1.917 14.554.775 21.812-1.283 8.175-3.008 16.288-4.845 24.363-.871 3.816-1.975 7.733-3.817 11.154-3.358 6.25-5.379 12.579-4.3 19.733.258 1.725.004 3.521.071 5.283.383 10.184-1.913 19.955-4.534 29.68-1.391 5.179-2.204 10.575-4.191 15.5-1.184 2.929-2.975 4.125 1.287 6.337 11.179 5.808 22.675 9.567 35.379 9.375 2.996-.037 4.155-.892 4.117-4.042-.054-4.691.346-9.395.746-14.079.067-.791.996-1.633 1.737-2.166.205-.15 1.525.612 1.696 1.154 1.529 4.937 3.204 9.862 4.213 14.916.487 2.467 1.416 2.917 3.454 2.492 4.183-.871 8.354-1.829 12.55-2.65 3-.583 2.917-1.758 1.379-4.067-2.154-3.225-4.479-6.545-5.642-10.179-2.312-7.196-4.016-14.587-3.97-22.275.083-13.762.02-27.521.02-41.283m-134.829 15.417c-2.204-.163-3.275-.05-4.212-.355-1.063-.345-1.996-1.066-2.988-1.625 1.004-.445 1.967-1.112 3.017-1.295 3.683-.642 7.392-1.117 11.096-1.646.916-.129 1.837-.209 2.762-.309-.554.867-.916 2.184-1.696 2.513-4.016 1.696-6.22 4.721-8.325 8.487-2.47 4.409-5.087 8.925-9.887 11.734-4.046 2.371-9.404 2.937-11.225 8.762-1.421 4.542-3.9 8.629-2.971 13.767.483 2.671.488 5.758-.417 8.25-.816 2.246-.045 2.2 1.425 2.137 4.821-.183 9.634-.504 14.446-.683 9.717-.358 19.313-1.192 27.567-7.117 3.537-2.537 7.05-5.12 10.379-7.912.621-.521.713-2.25.388-3.2-.717-2.092.095-2.608 1.92-2.429 2.334.233 4.659.558 6.988.833 7.854.921 13.35-3.433 18.708-8.242 3.734-3.354 5.713-7.208 4.346-12.254-.408-1.529-1.171-2.958-1.758-4.441-3.45-8.705-10.534-11.259-18.521-6.413-2.879 1.746-5.35 4.158-8.079 6.171-.513.379-1.354.325-2.05.467.008-.688-.254-1.584.079-2.017 1.042-1.346 2.383-2.467 3.437-3.804.296-.371.284-1.471-.029-1.767-8.729-8.208-11.737-19.079-13.962-30.225-.896-4.475-.7-9.162-1.563-13.646-.391-2.008-1.875-5.091-3.341-5.396-9.846-2.045-18.613-6.595-27.175-11.42-4.384-2.475-8.446-6.038-11.692-9.909-4.442-5.316-7.971-11.396-12.392-17.896-.508 4.963-1.346 9.63-1.358 14.292-.021 6.071.812 12.075 4.062 17.492.509.841.163 2.196.213 3.312-.888-.021-1.942.254-2.633-.121-2.946-1.583-5.9-3.204-8.642-5.112-3.833-2.671-7.796-5.283-11.104-8.533-3.621-3.559-7.613-7.096-8.471-12.655-.258-1.675-.971-3.283-1.496-4.979-1.392 1.759-2.321 3.479-3.729 4.588-3.517 2.754-7.138 5.412-10.929 7.775-4.563 2.837-9.734 4.208-10.4 11.412-.704 7.625-3.817 14.992-5.279 22.588-1.3 6.75-2.171 13.637-2.555 20.5-.808 14.696-1.27 29.241 4.942 43.383 3.992 9.092 11.075 14.708 18.592 19.721 4.891 3.258 11.304 4.267 17.083 6.125 1.633.525 3.454.492 5.188.712-.071-1.666-.075-3.341-.217-5.008-.625-7.242.871-13.821 5.808-19.412 1.188-1.346 1.871-2.692-.787-3.346-1.434-.35-2.9-.917-4.104-1.746-.905-.625-1.405-1.821-2.088-2.763 1.038.025 2.146-.158 3.108.121 1.963.579 3.821 1.934 5.767 2.038 6.879.354 13.913 1.183 20.617.141 5.004-.783 10.233-3.395 14.196-6.62 3.912-3.188 6.362-8.167 9.941-13.025m15.954-134.213h-1.604c0 .029.004.063.004.092l1.617-.075c.55.625.983 1.55 1.679 1.829 3.867 1.55 7.996 2.558 11.642 4.492 3.925 2.07 7.846 4.512 10.992 7.591 4.787 4.688 8.875 10.075 13.3 15.134 3.987 4.55 7.15 9.412 6.529 15.858-.042.454.021.95.141 1.4 2.534 9.137 2.967 18.475 2.488 27.875-.042.825-.642 1.625-.983 2.433-.638-.721-1.58-1.341-1.846-2.183-.642-2.004-.763-4.179-1.459-6.163-1.666-4.779-4.066-9.366-5.216-14.258-1.817-7.717-5.604-14.083-11.167-19.529-3.071-3.013-6.171-5.996-9.371-8.867-3.579-3.208-6.871-7.108-11.046-9.225-7.475-3.791-15.325-7.154-23.383-9.425-7.587-2.133-15.625-2.708-23.487-3.812-7.017-.984-13.859.641-20.721 1.721-2.209.35-4.517.27-6.634.879-7.57 2.191-15.145 4.396-22.579 6.996-3.541 1.229-6.987 3.037-10.096 5.141-4.945 3.346-9.566 7.167-14.345 10.767-6.771 5.1-11.705 11.367-12.971 20.025-.275 1.85-.771 3.687-.863 5.55-.346 6.95-1.366 13.996-.6 20.833.684 6.117 3.192 12.084 5.263 17.988 2.029 5.775 4.521 11.387 6.812 17.071.313-.063.621-.134.934-.2 1.279-7.388 2.32-14.83 3.904-22.155 1.596-7.408 3.733-14.7 5.791-22.67-2.404 1.045-4.029 1.887-5.754 2.425-.566.175-1.375-.442-2.071-.7.359-.75.53-1.9 1.121-2.196 3.7-1.838 7.45-3.596 11.275-5.163 6.242-2.562 12.042-5.854 16.863-10.566 3-2.925 5.312-6.175 4.85-11.034-.334-3.446.612-7.083 1.387-10.546 1.479-6.583 6.6-9.829 12.125-12.575-1.091 1.425-2.483 2.563-3.675 3.88-3.162 3.504-6.775 6.966-6.896 12.012-.158 6.338.292 12.683.53 19.025.029.775.291 1.588.641 2.288 5.059 10.183 13.909 16.212 23.646 21.416-.304-1.6-1.225-2.916-1.537-4.366-2.359-10.925-2.25-21.63 3.325-31.738.312-.562.758-1.146 1.295-1.471.63-.387 1.421-.5 2.146-.729.134.754.504 1.554.359 2.246-.663 3.087-.625 5.954 1.495 8.583 1.134 1.404 2.055 3.004 2.938 4.584 4.321 7.775 10.112 14.012 17.958 18.433 10.4 5.867 21.225 10.458 33.084 12.2 3.695.542 7.52.187 11.27.433.996.063 1.946.834 2.913 1.279-.904.55-1.763 1.463-2.713 1.575-2.091.259-4.233.159-6.35.113-6.841-.146-6.833-.163-6.387 6.425.854 12.446 3.229 24.35 10.85 34.771 3.546 4.846 4.771 5.816 9.146 3.621 4.462-2.246 8.833-2.988 13.025.412 1.854 1.5 4.166 2.933 5.133 4.946 2.467 5.162 5.783 10.346 3.146 16.571-.242.575-.038 1.337-.042 2.012.609-.396 1.329-.679 1.796-1.2 1.608-1.796 3.313-3.554 4.65-5.537 3.904-5.784 8.204-11.388 11.3-17.584 3.346-6.683 5.425-13.987 8.2-20.958 3.954-9.908 6.292-20.162 6.954-30.804.717-11.358-.325-22.388-5.646-32.717-3.416-6.629-5.995-13.812-10.195-19.883-5.609-8.108-13.9-13.1-23.613-15.45-1.479-.358-2.942-.808-4.387-1.3-5.23-1.767-10.33-4.129-15.696-5.213-6.95-1.404-14.113-1.8-21.184-2.633m106.021 194.313c-.108 1.591-.412 3.195-.271 4.766.342 3.779-1.875 5.267-5.025 5.159-5.966-.196-12.187.112-17.812-1.517-8.6-2.492-16.842-6.288-25.092-9.867-2.325-1.004-1.975-3.741-.9-5.6 3.938-6.779 4.263-14.616 6.709-21.796 3.162-9.295 3.687-18.812 3.666-28.454v-2.3c-2.554 3.575-4.85 7.046-7.408 10.313-5.217 6.662-10.154 13.691-19.092 15.983-1.171.304-2.254 1.167-3.246 1.942-5.112 3.991-10.945 4.921-17.195 4.15-1.559-.188-2.309.071-3.467 1.712-2.192 3.088-5.479 5.404-8.354 8-1.05.954-2.225 1.775-4.142 3.292 6.158-.167 10.125 2.425 13.875 5.658 4.817 4.154 7.783 9.459 7.921 15.621.233 10.55-.267 21.117-.65 31.671-.104 2.879-.888 5.733-1.383 8.592-.725 4.129-5.725 7.237-9.73 5.758-2.783-1.033-3.766-.104-4.275 2.521-.479 2.462-1.162 4.912-2.004 7.279-2.3 6.467-1.808 12.592.788 19 2.25 5.571 3.425 11.587 4.925 17.45.654 2.546-.575 3.929-3.113 4.896-4.821 1.841-9.329 4.554-14.212 6.146-5.184 1.691-10.6 2.837-16.004 3.62-16.996 2.48-34.005 1.55-50.963-.62-2.6-.334-5.412-.95-7.575-2.305-5.342-3.345-11.35-2.266-17.021-3.329-2.221-.412-4.504-1-6.508-2.004-3.513-1.754-4.263-4.612-2.621-8.025.642-1.329 1.283-2.704 1.596-4.129 1.796-8.1 3.379-16.25 5.267-24.333 1.279-5.5 2.845-10.938 4.454-16.359.762-2.554.566-4.104-2.388-4.979-2.966-.883-4.346-3.229-3.312-6.321 2.937-8.771 5.791-17.579 9.104-26.204 1.879-4.9 4.408-9.587 7.021-14.15 1.4-2.45 3.591-4.442 5.429-6.637.958-1.15 3.317-2.363-.288-3.196-1.779-.417-3.441-1.346-5.225-1.738-6.37-1.4-11.745-4.4-16.225-9.187-2.262-2.413-5.112-4.271-7.354-6.696-1.833-1.983-3.425-4.296-4.666-6.7-6.209-11.963-7.805-24.829-6.9-38.088.275-4.041-.188-7.32-2.571-11.091-3.542-5.604-5.779-12.146-7.85-18.525-2.359-7.275-4.404-14.725-5.654-22.254-.713-4.334.366-8.984.741-13.475.221-2.692.575-5.375.975-8.046 1.338-8.9 5.454-16.175 12.679-21.675 4.55-3.467 8.717-7.475 13.5-10.554 4.896-3.155 10.134-6.03 15.588-8.034 6.312-2.316 13.146-3.179 19.529-5.333 11.079-3.729 22.829-3.638 33.979-6.463 6.175-1.566 11.779 0 17.65.217 9.742.367 19.488.604 29.234.733 8.612.121 16.779 1.834 24.62 5.509 3.759 1.762 8.03 2.433 11.821 4.146 4.567 2.062 9.134 4.333 13.221 7.2 4.938 3.458 9.833 3.262 15.192 1.695 6.021-1.766 12.116-1.845 18.158.084.546.171 1.1.341 1.658.466 9.038 2.046 14.375 7.675 18.163 16.155 3.487 7.804 6.242 15.775 7.746 24.004 1.475 8.033 1.796 16.371 1.791 24.575-.004 24.246-.512 48.491-.604 72.737-.016 5.621.175 11.404 1.492 16.817 1.887 7.742 4.037 15.612 10.458 21.296 1.7 1.504.725 4.229-2.737 5.408-6.367 2.163-12.838 4.317-19.763 3.825-2.962-.208-4.171-2.087-4.425-4.771-.108-1.158-.016-2.333-.016-3.5-.305-.05-.605-.091-.909-.141" fill="#231f20"/><path d="m228.377 14.285c7.071.83 14.23 1.225 21.184 2.63 5.362 1.083 10.471 3.445 15.696 5.216 1.445.488 2.908.938 4.387 1.296 9.713 2.354 18 7.342 23.608 15.45 4.205 6.071 6.784 13.254 10.196 19.883 5.321 10.325 6.363 21.363 5.65 32.721-.666 10.638-3.004 20.888-6.95 30.796-2.783 6.975-4.862 14.283-8.204 20.963-3.1 6.191-7.4 11.8-11.304 17.579-1.338 1.991-3.038 3.75-4.65 5.546-.463.516-1.188.8-1.792 1.191 0-.671-.204-1.437.038-2.008 2.637-6.221-.675-11.413-3.146-16.571-.967-2.008-3.279-3.442-5.129-4.946-4.196-3.396-8.567-2.658-13.029-.416-4.375 2.204-5.6 1.229-9.146-3.613-7.621-10.429-9.988-22.329-10.842-34.775-.454-6.587-.462-6.571 6.383-6.421 2.113.042 4.255.142 6.346-.112.954-.113 1.813-1.025 2.717-1.575-.971-.45-1.921-1.217-2.913-1.284-3.754-.245-7.57.109-11.275-.437-11.85-1.738-22.683-6.329-33.083-12.196-7.846-4.425-13.633-10.658-17.958-18.429-.884-1.583-1.8-3.179-2.934-4.588-2.12-2.629-2.162-5.495-1.5-8.587.15-.683-.225-1.492-.358-2.238-.721.225-1.512.342-2.142.721-.541.325-.987.909-1.3 1.475-5.575 10.109-5.679 20.813-3.325 31.742.317 1.446 1.234 2.762 1.542 4.362-9.737-5.204-18.583-11.237-23.65-21.416-.346-.696-.608-1.517-.642-2.288-.237-6.337-.683-12.691-.529-19.025.125-5.05 3.738-8.504 6.9-12.008 1.188-1.321 2.588-2.458 3.675-3.883-5.529 2.75-10.65 5.995-12.125 12.575-.779 3.466-1.721 7.1-1.391 10.545.466 4.859-1.846 8.109-4.846 11.038-4.825 4.712-10.625 8-16.863 10.562-3.825 1.567-7.579 3.33-11.279 5.167-.592.292-.758 1.442-1.121 2.192.7.258 1.509.875 2.071.7 1.725-.534 3.35-1.375 5.754-2.425-2.058 7.971-4.187 15.262-5.787 22.675-1.588 7.321-2.629 14.762-3.909 22.154-.312.067-.62.129-.929.196-2.291-5.679-4.787-11.292-6.812-17.071-2.075-5.904-4.579-11.867-5.267-17.988-.767-6.841.254-13.883.6-20.837.096-1.858.592-3.696.863-5.55 1.27-8.65 6.208-14.925 12.97-20.017 4.78-3.6 9.4-7.429 14.346-10.771 3.113-2.104 6.554-3.912 10.096-5.145 7.433-2.592 15.013-4.8 22.583-6.992 2.113-.608 4.421-.529 6.63-.879 6.862-1.079 13.708-2.704 20.72-1.721 7.863 1.104 15.9 1.675 23.492 3.812 8.054 2.267 15.904 5.634 23.383 9.43 4.171 2.112 7.463 6.008 11.046 9.22 3.2 2.871 6.296 5.859 9.371 8.867 5.563 5.446 9.35 11.813 11.163 19.529 1.15 4.888 3.55 9.479 5.225 14.259.687 1.987.812 4.158 1.458 6.162.267.838 1.204 1.463 1.837 2.183.342-.808.942-1.608.984-2.429.479-9.408.05-18.741-2.484-27.883-.125-.446-.187-.942-.141-1.4.621-6.442-2.542-11.3-6.529-15.85-4.43-5.058-8.517-10.454-13.3-15.142-3.146-3.075-7.071-5.516-10.992-7.591-3.65-1.93-7.779-2.942-11.642-4.484-.691-.279-1.129-1.204-1.683-1.833l-.013-.013z" fill="#754c28"/><path d="m179.192 17.555c-6.912 3.3-10.529 13-12.45 19.821-1.57 5.579-2.995 13.466-.562 19.341 2.087-6.887 4.121-13.6 9.617-18.804 6.845-6.491 16.47-10.575 25.737-11.891 1.483-.213 2.979 1.4 2.471 2.862-9.317 26.571 16.833 49.975 41.3 54.875-1.946-2.883-3.625-5.996-5.125-9.058-3.058-6.254-9.567-20.313-1.317-25.413 4.671-2.887 11.579-1.475 16.617.584-.346-.355-.629-.746-.992-1.096-3.066-3.009-6.166-5.996-9.366-8.867-3.58-3.212-6.875-7.108-11.046-9.221-7.475-3.796-15.329-7.158-23.384-9.429-7.587-2.133-15.625-2.704-23.487-3.812-2.6-.363-5.167-.305-7.721-.113-.104.071-.167.163-.292.221" fill="#8c5c33"/><path d="m303.45 58.76c-3.412-6.629-5.991-13.813-10.195-19.883-4.817-6.959-11.613-11.609-19.58-14.275 6.055 6.55 10.913 14.125 14.488 22.341 8.675 19.896 10.783 42.479 5.025 63.442-2.929 10.662-6.983 21.433-12.25 31.171-1.9 3.512-4.188 6.7-6.85 9.454 2.237 4.504 4.442 9.129 2.15 14.542-.242.57-.038 1.329-.042 2.008.609-.396 1.334-.679 1.796-1.2 1.613-1.796 3.308-3.55 4.65-5.538 3.904-5.783 8.204-11.387 11.304-17.583 3.342-6.683 5.417-13.987 8.196-20.958 3.954-9.909 6.288-20.159 6.958-30.804.709-11.355-.329-22.388-5.65-32.717" fill="#8c5c33"/><path d="m248.292 169.177c1.545-2.767 2.466-5.192 4.037-7.062 2.688-3.18 6.85-4.934 9.767-3.313.812.45 2.054.129 3.096.163-.546-.988-.867-2.313-1.7-2.863-.996-.65-2.438-.892-3.667-.854-3.808.117-7.067 2.062-9.388 4.708-2.008 2.292-3.675 5.384-2.145 9.221m-112.009-58.737c2.109-3.35 4-7.05 6.575-10.184 1.521-1.854 4.2-2.708 6.213-4.216.662-.5.854-1.638 1.262-2.488-.966-.108-2.129-.608-2.862-.246-1.842.913-3.454 2.259-5.209 3.354-5.637 3.534-7.354 9.58-5.979 13.78m59.638-21.217c-.521.042-1.042-.046-1.446.137-.938.43-1.817.984-2.717 1.488.913.408 1.796.937 2.754 1.2 1.671.458 3.546.442 5.067 1.183 5.108 2.488 9.092 6.304 12.329 10.988.479.7 1.879.766 2.85 1.116-.062-1.066.267-2.416-.258-3.158-1.525-2.112-3.217-4.179-5.163-5.912-3.87-3.446-7.895-6.767-13.416-7.042m-37.384 38.3c-2.058 1.379-3.579 2.146-4.775 3.254-3.595 3.346-6.35 3.913-10.962 1.879-1.979-.871-3.863-1.979-5.879-2.758-.746-.288-1.788-.046-2.609.217-.191.058-.27 1.325-.004 1.82 1.621 2.996 11.334 5.734 14.65 4.921 4.713-1.15 7.7-3.771 9.579-9.333m41.825 6.667c4.621.858 8.221-1.63 10.68-6.017.395-.7.029-1.825.016-2.758-.846.387-2.004.55-2.483 1.208-2.783 3.821-6.813 5.292-10.975 4.25-3.8-.95-8.971-1.154-9.379-7.117-.029-.483-1.067-.9-1.634-1.35-.358.525-1.112 1.154-1.004 1.567.492 1.954.746 4.246 1.954 5.687 3.088 3.684 7.413 4.9 12.825 4.53m-25.2.375c-2.108-2.005-4.262-2.967-7.233-1.063-4.487 2.879-6.6 9.292-4.392 14.146 2.463 5.392 9.209 8.967 14.321 7.512.509-.145 1.25-.845 1.217-1.233-.05-.533-.638-1.312-1.15-1.462-1.567-.45-3.283-.442-4.804-.988-6.146-2.208-9.434-9.567-4.417-14.633 1.392-1.404 4.1-1.496 6.458-2.279m37.263 13.929c-3.583 4.858-6.033 9.837-9.946 13.025-3.967 3.225-9.196 5.841-14.196 6.621-6.708 1.041-13.737.212-20.612-.142-1.95-.104-3.809-1.458-5.771-2.033-.967-.284-2.067-.1-3.113-.125.684.941 1.188 2.137 2.092 2.762 1.2.829 2.667 1.4 4.1 1.75 2.663.65 1.975 1.996.788 3.342-4.938 5.587-6.43 12.171-5.805 19.416.146 1.659.15 3.338.217 5.005-1.733-.221-3.55-.184-5.187-.713-5.784-1.858-12.196-2.867-17.084-6.125-7.512-5.008-14.596-10.629-18.596-19.717-6.208-14.141-5.75-28.691-4.937-43.383.379-6.867 1.254-13.758 2.554-20.508 1.463-7.596 4.579-14.959 5.283-22.579.663-7.213 5.834-8.58 10.396-11.417 3.792-2.358 7.417-5.017 10.929-7.779 1.413-1.104 2.338-2.825 3.734-4.579.521 1.691 1.237 3.3 1.496 4.975.854 5.558 4.845 9.095 8.466 12.654 3.304 3.25 7.275 5.862 11.104 8.533 2.738 1.908 5.692 3.529 8.638 5.113.7.375 1.746.1 2.637.12-.05-1.112.296-2.466-.208-3.308-3.25-5.417-4.083-11.421-4.067-17.492.017-4.666.855-9.333 1.355-14.291 4.425 6.496 7.954 12.575 12.4 17.891 3.241 3.875 7.304 7.434 11.691 9.909 8.559 4.825 17.325 9.375 27.175 11.425 1.463.3 2.946 3.383 3.334 5.391.862 4.484.675 9.171 1.566 13.646 2.221 11.146 5.238 22.021 13.959 30.225.316.296.333 1.396.037 1.767-1.058 1.337-2.4 2.458-3.437 3.808-.338.434-.071 1.325-.084 2.013.696-.146 1.538-.088 2.054-.463 2.73-2.016 5.196-4.425 8.071-6.171 7.992-4.845 15.079-2.291 18.525 6.413.588 1.483 1.35 2.912 1.763 4.437 1.358 5.046-.621 8.9-4.35 12.255-5.359 4.812-10.85 9.162-18.709 8.241-2.329-.275-4.654-.6-6.987-.833-1.825-.179-2.633.337-1.921 2.433.325.946.229 2.679-.387 3.196-3.334 2.788-6.842 5.379-10.38 7.913-8.258 5.925-17.85 6.758-27.57 7.12-4.813.175-9.625.496-14.438.684-1.475.058-2.242.108-1.425-2.142.904-2.492.9-5.579.413-8.25-.93-5.137 1.55-9.225 2.966-13.767 1.821-5.825 7.184-6.387 11.234-8.758 4.791-2.812 7.412-7.329 9.879-11.733 2.108-3.771 4.312-6.796 8.329-8.488.783-.329 1.142-1.65 1.7-2.516-.925.1-1.85.179-2.767.312-3.704.525-7.416 1.004-11.096 1.642-1.045.183-2.012.85-3.02 1.296.991.558 1.929 1.279 2.987 1.625.942.308 2.013.195 4.221.354" fill="#fed3ad"/><path d="m163.539 147.647c-1.888-4.141-.604-9.4 2.591-12.65-.854-.666-2.095-1.083-3.375-1.062-1.662.025-3.316.529-4.77 1.317-2.35 1.275-4.634 3.583-4.688 6.325-.058 3.004 1.892 5.945 3.992 7.925 3.558 3.341 8.983 5.475 14.037 5.17-3.279-1.233-6.308-3.787-7.787-7.025" fill="#fbb886"/><path d="m160.135 185.99c-6.05-1.313-11.642-4.213-16.379-8.413-13.359-11.866-16.129-29.354-16.317-46.404-.104-9.029.267-18.175 1.375-27.146.933-7.537 2.663-15.291 7.463-21.379.566-.721 1.579-.941 2.416-.575 3.971 1.721 6.988 4.675 10.284 7.388 2.533 2.091 5.325 3.541 8.229 5.016 3.021 1.534 6.091 3.005 9.287 4.117 1.779.621 4.484 1.604 6.65 1.304-2.362-4.416-5.4-9.008-6.854-13.866-3.167-2.192-6.337-4.417-9.054-7.092-3.621-3.554-7.613-7.092-8.471-12.65-.258-1.675-.971-3.283-1.496-4.975-1.391 1.754-2.321 3.479-3.729 4.583-3.517 2.759-7.137 5.417-10.929 7.771-4.563 2.846-9.733 4.208-10.4 11.417-.704 7.621-3.817 14.987-5.279 22.583-1.304 6.754-2.175 13.638-2.554 20.508-.813 14.692-1.271 29.242 4.941 43.38 3.992 9.087 11.075 14.708 18.592 19.72 4.887 3.259 11.3 4.267 17.087 6.125 1.63.525 3.45.488 5.184.713-.071-1.671-.075-3.342-.217-5.004-.212-2.459-.158-4.829.171-7.121" fill="#fbb886"/><path d="m347.251 133.077c0 13.763.063 27.525-.021 41.288-.05 7.683 1.659 15.075 3.967 22.27 1.167 3.63 3.496 6.959 5.642 10.184 1.541 2.308 1.625 3.483-1.375 4.066-4.196.817-8.367 1.78-12.554 2.646-2.034.425-2.963-.021-3.45-2.491-1.009-5.055-2.684-9.98-4.213-14.917-.167-.542-1.496-1.3-1.696-1.158-.741.537-1.671 1.379-1.737 2.175-.4 4.679-.796 9.383-.746 14.079.033 3.15-1.121 4-4.117 4.041-12.704.188-24.204-3.57-35.379-9.375-4.262-2.216-2.471-3.412-1.287-6.341 1.987-4.929 2.8-10.321 4.195-15.496 2.617-9.729 4.913-19.5 4.53-29.683-.067-1.763.187-3.563-.071-5.284-1.079-7.15.937-13.483 4.304-19.729 1.833-3.425 2.946-7.337 3.817-11.158 1.833-8.071 3.558-16.188 4.841-24.363 1.138-7.258.571-14.591-.771-21.812-.379-2.017-1.395-3.913-1.762-5.929-.342-1.892-.792-4.067-.204-5.78 2.733-7.933.254-18.083-6.088-23.633-.558-.483-.996-1.112-1.487-1.671.687-.341 1.346-.871 2.071-.987 8.691-1.367 17.32-1.446 25.179 3.158 3.737 2.196 6.629 5.367 8.712 9.433 4.375 8.542 6.988 17.642 8.842 26.925 1.117 5.617 1.454 11.446 1.537 17.188.209 14.117.067 28.233.067 42.354z" fill="#754c28"/><path d="m209.053 269.622c-3.525-2.146-7.038-4.1-10.321-6.379-1.154-.808-2.204-2.325-2.521-3.696-1.354-5.875-2.2-11.875-3.658-17.721-1.042-4.191-4.25-7.033-8.433-7.362-5.35-.417-10.784.079-16.171.375-1.296.075-2.546.933-3.821 1.404-3.004 1.104-4.454.087-3.646-3.013.863-3.325 2.417-6.47 3.621-9.708.758-2.046 1.546-4.1 2.079-6.208.142-.559-.596-1.338-.929-2.017-.65.479-1.563.825-1.892 1.467-.941 1.841-1.746 3.762-2.416 5.721-.684 1.991-1.142 4.054-2.55 6.312-.638-2.008-1.617-3.992-1.83-6.046-.225-2.129-.929-2.779-3.037-2.766-7.604.062-8.038.5-6.388 8.029.738 3.387 1.538 6.762 2.492 10.087.938 3.242-.221 4.792-3.446 5.442-6.396 1.296-6.625 1.608-6.679 8.033-.017 1.813-.267 3.204-2.442 2.592-1.929-.542-5.27-.2-4.3-3.638 1.538-5.437 3.617-10.725 5.48-16.07.07-.2.391-.346.412-.538.671-6.662 4.483-12.033 7.208-17.867 2.675-5.716 6.905-10.137 11.759-13.779 1.846-1.387 5.262-2.462 7.487.846.604.9 1.817 1.417 2.792 2.038 2.025 1.287 3.771 2.533 4.758 5.083.859 2.221 2.713 4.742 4.788 5.671 6.254 2.808 12.516 6.979 19.866 4.258 4.484-1.654 8.884-3.808 11.138-8.558 1.433-3.013 2.758-6.1 4.458-8.954.821-1.38 2.263-3.05 3.654-3.309 5.034-.912 10.188-1.887 15.259-1.725 9.883.321 15.2 4.967 18.05 14.596 2.958 9.988 2.183 19.983.216 30.038-.72 3.666-1.004 7.491-.908 11.229.092 3.816-2.029 4.837-5.017 4.6-2.016-.154-4.129-.888-5.925-1.871-6.97-3.825-13.37-8.988-22.012-8.625-.563.025-1.746-1.208-1.675-1.742.925-7.287 2.042-14.55 3.062-21.825.246-1.729.43-3.491.38-5.233-.017-.546-.863-1.454-1.388-1.5-.529-.046-1.571.725-1.633 1.233-1.188 9.604-2.35 19.221-3.229 28.859-.088.95 1.57 2.779 2.645 2.975 2.696.487 2.205 1.716 1.463 3.429-2.267 5.204-4.483 10.429-6.8 15.833" fill="#c774b0"/><path d="m177.185 223.547c.862-2.205 2.033-4.271 3.454-6.125-1.067-.517-2.134-1.03-3.192-1.509-2.071-.929-3.929-3.45-4.792-5.666-.983-2.555-2.729-3.8-4.75-5.088-.979-.621-2.191-1.137-2.795-2.037-2.225-3.309-5.642-2.23-7.488-.846-4.854 3.641-9.079 8.062-11.758 13.783-2.725 5.833-6.538 11.2-7.209 17.867-.016.187-.337.329-.412.537-1.863 5.342-3.938 10.629-5.479 16.067-.967 3.437 2.375 3.096 4.3 3.637 2.179.613 2.429-.779 2.446-2.591.05-6.425.279-6.738 6.679-8.029 3.225-.655 4.379-2.205 3.441-5.446-.954-3.321-1.75-6.7-2.487-10.084-1.654-7.537-1.221-7.975 6.383-8.033 2.109-.017 2.813.638 3.038 2.771.216 2.054 1.191 4.033 1.829 6.042 1.404-2.255 1.867-4.321 2.55-6.309.671-1.962 1.479-3.887 2.417-5.725.329-.646 1.241-.983 1.891-1.466.334.679 1.071 1.458.934 2.012-.542 2.113-1.325 4.167-2.084 6.213-1.204 3.237-2.754 6.379-3.621 9.704-.808 3.104.642 4.121 3.646 3.021 1.279-.475 2.525-1.334 3.821-1.409 2.496-.133 5-.312 7.504-.421-.296-3.683.413-7.495 1.734-10.87" fill="#9c5b8b"/><path d="m204.367 256.03c-3.313-1.187-6.859-2.958-9.93-5.275.559 2.942 1.105 5.88 1.775 8.792.313 1.371 1.363 2.888 2.521 3.692 3.284 2.287 6.796 4.237 10.321 6.383 1.733-4.046 3.413-7.979 5.1-11.892-3.304.1-6.742-.612-9.787-1.7" fill="#9c5b8b"/><path d="m177.492 236.952c4.417-.058 9.254-.592 11.433 4.233 1.788 3.946 2.421 8.417 3.555 12.659.058.221.058.475.033.704-.825 6.7 2.479 10.637 8.262 13.512 5.209 2.584 9.992 6.009 15.1 8.813 1.159.637 2.875.246 4.338.321-1.096-1.046-2.138-2.163-3.313-3.121-.616-.504-1.433-.854-2.212-1.054-3.342-.854-3.021-2.85-1.858-5.304 2.266-4.788 4.533-9.58 6.604-14.45.75-1.75 1.212-2.484 3.25-1.367 3.641 2 7.475 3.646 11.25 5.396 1.633.758 2.287 1.425 1.933 3.683-1.179 7.558-3.821 14.633-7.029 21.417-1.675 3.533-4.725 6.525-7.567 9.341-.862.859-3.221.73-4.708.338-6.354-1.658-12.638-3.579-18.946-5.429-2.242-.659-4.992-2.479-6.554-1.742-1.475.692-1.483 4.163-2.513 6.221-2.783 5.579-6.27 10.392-13.187 11.333-8.354 1.138-16.242.275-23.083-5.096-.888-.691-1.038-2.32-1.53-3.512 1.009-.092 2.021-.25 3.03-.267 2.233-.037 4.47.096 6.691-.05.604-.041 1.159-.812 1.738-1.25-.575-.462-1.104-1.237-1.734-1.325-1.62-.225-3.291-.066-4.933-.204-4.2-.362-8.35-4.121-8.592-7.775-.045-.65.088-1.762.417-1.875.663-.233 1.55-.054 2.267.188 1.608.537 3.129 1.375 4.758 1.77.692.171 1.575-.454 2.367-.72-.629-.713-1.138-1.605-1.904-2.096-3.23-2.096-6.642-3.925-9.784-6.142-1.916-1.354-2.904-8.125-1.55-9.967.3-.408 1.925-.204 2.717.171 1.842.884 3.5 2.15 5.342 3.029.512.246 1.408-.308 2.125-.495-.434-.734-.73-1.95-1.33-2.125-3.466-1-5.97-3.025-7.475-6.284-.9-1.941-2.187-3.833-2.541-5.879-.838-4.854-.284-5.383 4.537-6.108 2.421-.367 6.6-3.654 4.788 3.116-.2.742 1.437 4.93 5.179 4.43 2.396-.321 4.917.4 7.371.35 4.441-.096 7.791-2.1 9.479-6.342.271-.679-.158-1.638-.263-2.475-.637.308-1.283.6-1.908.929-.304.163-.604.367-.837.617-4.425 4.7-5.113 4.533-7.117-1.754-.183-.559-.383-1.113-.533-1.68-1.088-4.179-.946-4.6 3.245-5.341 3.696-.65 7.459-.909 11.192-1.342" fill="#fed3ad"/><path d="m232.241 284.434c2.196 7.033 4.283 13.754 6.404 20.458.887 2.813.767 4.538-2.808 5.633-5.48 1.675-10.496 5.063-16.025 6.305-8.384 1.879-17.088 2.27-25.571 3.779-11.925 2.121-23.509-1.359-35.275-1.809-3.509-.133-6.921-2.687-10.396-4.079-2.325-.929-1.808-2.646-1.246-4.325.908-2.729 2.071-5.379 2.817-8.15.458-1.704.975-1.754 2.375-.975 6.912 3.846 14.354 5.484 22.2 4.384 8.854-1.234 14.229-6.792 17.275-14.88.771-2.058.904-3.308 3.808-1.441 5.342 3.441 11.721 4.379 18.013 5.066 1.716.188 3.45.492 5.158.392 6.571-.387 9.292-5.975 13.271-10.358" fill="#c774b0"/><path d="m139.117 313.82c-3.846-.638-7.067-1.233-10.309-1.688-1.921-.27-2.712-1.129-2.196-3.075 1.796-6.704 3.588-13.404 5.346-20.112.325-1.242.496-2.517.779-3.771 1.538-6.808 3.042-13.621 4.659-20.408.391-1.659 1.037-3.279 1.775-4.817.254-.546 1.112-.8 1.696-1.187.366.816 1.237 1.829 1.012 2.42-2.383 6.209-3.75 12.138 2.775 16.892.454.333.525 1.442.479 2.179-.221 3.913-.337 7.721 3.317 10.454.429.317.396 1.55.246 2.292-.909 4.525-1.821 9.05-2.925 13.529-.492 1.975-1.05 4.179-2.317 5.634-.975 1.12-3.1 1.229-4.337 1.658" fill="#fed3ad"/><path d="m172.05 188.132c1.662-4.37 2.875-7.733 4.216-11.037 1.825-4.513 7.425-7.129 11.942-5.504.371.129.696 1.879.342 2.362-3.53 4.763-3.925 10.159-3.15 15.7.6 4.304-.763 7.879-3.005 11.404-3.991 6.259-13.362 3.409-16.587-1.258-5.738-8.304-3.013-16.233 1.162-23.833 1.096-2 4.196-2.934 6.467-4.196.413-.229 1.533.137 1.833.567.267.391-.012 1.316-.287 1.891-1.313 2.779-2.996 5.425-3.942 8.313-.433 1.337.513 3.125 1.009 5.591" fill="#f8b6be"/><path d="m271.787 77.166c-.962-2.662-2.271-5.258-2.821-8.008-1.679-8.308-5.591-15.458-11.196-21.613-3.441-3.787-7.908-6.654-11.275-10.495-6.779-7.721-15.775-11.184-24.958-14.846-8.983-3.584-18.137-5.625-27.696-6.321-.733-.054-1.416-.779-2.125-1.188.709-.245 1.4-.666 2.121-.708 11.083-.617 22 .529 32.679 3.546 7.434 2.1 14.817 4.571 20.904 9.425 4.171 3.321 7.796 7.396 11.375 11.387 2.959 3.3 5.517 6.959 8.205 10.492.625.825 1.395 1.721 1.562 2.683 1.5 8.45 2.875 16.925 4.283 25.392-.35.083-.704.167-1.058.254" fill="#ffe06f"/><path d="m190.558 217.98c-4.467-1.958-10.729-2.15-14.692-7.233-.529-.683-.621-1.704-.912-2.571.833-.229 1.721-.766 2.483-.625 2.492.467 5.096.834 7.375 1.867 6.45 2.917 10.288 1.187 14.85-3.221 2.3-2.221 5.158-3.937 7.963-5.529 1.25-.708 2.512-.15 1.891 1.85-2.496 8.1-8.283 15.4-18.958 15.462" fill="#ffe06f"/><path d="m151.67 222.6c.716.792 1.775 1.475 2.087 2.405 2.204 6.591 4.263 13.233 6.354 19.866.246.784.471 1.584.613 2.392.225 1.3.366 2.617.541 3.925-2.095-.342-4.608.196-5.512-2.646-.833-2.629-1.817-5.221-2.521-7.883-1.337-5.05-2.579-10.121-3.725-15.221-.167-.758.379-1.679.596-2.525.525-.104 1.046-.208 1.567-.313" fill="#fff"/><path d="m308.19 53.76c-.55 1.683-1.1 3.362-1.646 5.045-.575-1.533-.992-3.15-1.75-4.587-2.662-5.042-5.467-10.013-8.162-15.038-.775-1.437-1.392-2.962-2.075-4.445 1.404.641 2.979 1.058 4.191 1.958 5.646 4.2 9.163 9.608 9.442 17.067" fill="#ffe06f"/><path d="m189.138 208.07c-.429-.067-1.329 0-2.042-.342-1.516-.721-3.516-1.325-4.221-2.592-.57-1.025 4.121-3.704 5.925-3.654 2.821.067 5.638-.167 8.446-.062.538.02 1.596 1.275 1.479 1.504-1.387 2.804-5.975 5.291-9.587 5.146" fill="#fed3ad"/><path d="m175.165 134.567c-2.359.775-5.071.871-6.459 2.275-5.021 5.071-1.729 12.429 4.413 14.633 1.525.546 3.241.538 4.808.992.508.146 1.1.929 1.15 1.463.033.383-.708 1.087-1.217 1.233-5.116 1.454-11.862-2.121-14.32-7.517-2.217-4.854-.1-11.266 4.391-14.141 2.967-1.909 5.121-.942 7.234 1.062" fill="#231f20"/><path d="m200.365 134.188c-5.413.375-9.742-.846-12.825-4.525-1.213-1.446-1.467-3.738-1.958-5.692-.105-.412.645-1.037 1.004-1.566.571.45 1.604.866 1.637 1.354.404 5.958 5.571 6.166 9.371 7.112 4.171 1.042 8.2-.429 10.983-4.25.475-.658 1.634-.816 2.48-1.208.016.933.383 2.058-.013 2.762-2.462 4.388-6.058 6.871-10.679 6.013" fill="#231f20"/><path d="m158.54 127.52c-1.883 5.562-4.871 8.183-9.579 9.333-3.321.813-13.034-1.921-14.65-4.916-.267-.492-.188-1.763.004-1.825.821-.263 1.858-.5 2.608-.213 2.017.775 3.9 1.883 5.879 2.754 4.613 2.038 7.363 1.467 10.959-1.875 1.196-1.108 2.721-1.879 4.779-3.258" fill="#231f20"/><path d="m195.922 89.22c5.521.275 9.542 3.6 13.417 7.046 1.941 1.729 3.637 3.796 5.158 5.916.529.734.2 2.088.263 3.159-.971-.359-2.371-.425-2.855-1.117-3.233-4.683-7.216-8.504-12.329-10.996-1.516-.737-3.391-.716-5.062-1.183-.959-.258-1.842-.788-2.754-1.2.9-.504 1.779-1.058 2.716-1.483.404-.184.925-.1 1.446-.142" fill="#231f20"/><path d="m136.287 110.438c-1.375-4.2.341-10.246 5.979-13.779 1.75-1.096 3.366-2.438 5.204-3.35.733-.367 1.896.137 2.862.246-.408.845-.595 1.987-1.266 2.487-2.004 1.508-4.688 2.363-6.209 4.213-2.575 3.133-4.462 6.833-6.57 10.183" fill="#231f20"/><path d="m248.292 169.177c-1.53-3.837.137-6.929 2.145-9.221 2.321-2.646 5.58-4.591 9.388-4.708 1.229-.038 2.671.204 3.667.854.833.55 1.154 1.875 1.7 2.863-1.042-.034-2.284.287-3.096-.163-2.917-1.621-7.079.133-9.767 3.313-1.571 1.87-2.492 4.295-4.037 7.062" fill="#231f20"/><path d="m178.124 183.168c0 23.354-18.934 42.287-42.288 42.287s-42.291-18.933-42.291-42.287c0-23.358 18.937-42.288 42.291-42.288s42.288 18.93 42.288 42.288" fill="#b0d235" opacity=".63"/></g><path d="m178.124 183.168c0-23.339-18.95-42.288-42.29-42.288s-42.289 18.949-42.289 42.288 18.949 42.287 42.289 42.287 42.29-18.948 42.29-42.287z" fill="none" stroke="#4eb848" stroke-width="4.4"/><path d="m150.945 163.005c3.221 1.883 5.734 4.945 6.95 8.47.313.9.546 1.842 1.075 2.63.53.787 1.442 1.412 2.38 1.27 1.208-.187 1.895-1.487 2.183-2.675 1.237-5.15-1.413-10.366-4.213-14.858-2.691-4.325-9.65-13.229-15.65-8.675-7.937 6.033 3.096 11.4 7.275 13.838" fill="#fff" fill-rule="nonzero"/><path d="m162.592 179.963c-2.892.5-5.237 3.221-5.304 6.158-.067 2.934 2.158 5.754 5.025 6.384.875.191 1.821.191 2.642-.171 1.287-.571 2.066-1.942 2.383-3.321.462-1.992.108-4.213-1.142-5.829-1.25-1.621-3.429-2.542-5.425-2.104" fill="#fff" fill-rule="nonzero"/><path d="m109.371 208.729c-6.712-7.058-9.746-16.979-10.262-26.704-.125-2.346-.113-4.725.512-6.992.538-1.929 1.504-3.712 2.492-5.454 1.971-3.475 4.092-6.929 6.987-9.683 2.888-2.754 6.663-4.779 10.655-4.834-6.909 7.584-10.492 18.1-9.642 28.325s6.112 20.005 14.179 26.35c1.508 1.184 8.138 3.596 8.492 4.988.791 3.133-4.896 2.521-6.45 2.379-6.396-.583-12.55-3.737-16.963-8.375" fill="#4eb848" fill-rule="nonzero" opacity=".78"/><path d="m154.175 185.914c0 10.554-8.558 19.113-19.112 19.113-10.55 0-19.108-8.559-19.108-19.113s8.558-19.112 19.108-19.112c10.554 0 19.112 8.558 19.112 19.112" fill="#4eb848" fill-rule="nonzero" opacity=".5"/><path d="m137.54 174.432c2.43 1.005 4.892 2.192 6.546 4.234 2.329 2.879 2.588 6.854 2.742 10.554.137 3.133.071 6.742-2.346 8.737 2.283-1.887-2.642-12.4-3.742-14.287-2.625-4.488-7.545-6.767-10.175-10.7 2.313-.429 4.821.571 6.975 1.462" fill="#fff" fill-rule="nonzero"/></svg>