<?xml version="1.0" encoding="UTF-8" standalone="no"?><!DOCTYPE svg PUBLIC "-//W3C//DTD SVG 1.1//EN" "http://www.w3.org/Graphics/SVG/1.1/DTD/svg11.dtd"><svg width="100%" height="100%" viewBox="0 0 466 334" version="1.1" xmlns="http://www.w3.org/2000/svg" xmlns:xlink="http://www.w3.org/1999/xlink" xml:space="preserve" xmlns:serif="http://www.serif.com/" style="fill-rule:evenodd;clip-rule:evenodd;stroke-miterlimit:10;"><g><g opacity="0.7"><path d="M21.322,20.988l0,291.675l423.371,0l0,-65.421l-18.45,0l18.45,-51.137l0,-8.3l-15.958,-28.659l15.958,-29.096l0,-8.033l-18.45,-47.933l18.45,0l0,-53.096l-423.371,0Z" style="fill:#c8badb;fill-rule:nonzero;"/><path d="M444.693,196.104l0,-8.304l-15.958,-28.658l15.958,-29.092l0,-8.033l-18.45,-47.93l18.45,0l0,-53.1l-423.371,0l0,291.675l423.371,0l0,-65.42l-18.45,0l18.45,-51.138Z" style="fill:none;fill-rule:nonzero;stroke:#a368ab;stroke-width:4.11px;"/></g><path d="M189.138,208.07c3.612,0.145 8.2,-2.342 9.587,-5.146c0.117,-0.229 -0.941,-1.484 -1.479,-1.504c-2.808,-0.105 -5.625,0.129 -8.446,0.062c-1.804,-0.05 -6.495,2.629 -5.925,3.654c0.705,1.267 2.705,1.871 4.221,2.592c0.713,0.342 1.613,0.275 2.042,0.342Zm119.054,-154.313c-0.283,-7.454 -3.796,-12.862 -9.442,-17.062c-1.212,-0.905 -2.791,-1.321 -4.195,-1.959c0.687,1.479 1.304,3.004 2.075,4.442c2.7,5.025 5.5,9.996 8.162,15.042c0.763,1.437 1.175,3.05 1.75,4.587c0.546,-1.683 1.096,-3.367 1.65,-5.05Zm-156.525,168.842c-0.521,0.108 -1.042,0.212 -1.562,0.312c-0.217,0.846 -0.767,1.767 -0.592,2.534c1.146,5.091 2.379,10.166 3.721,15.212c0.704,2.663 1.683,5.254 2.521,7.883c0.904,2.846 3.416,2.309 5.508,2.646c-0.175,-1.308 -0.317,-2.625 -0.542,-3.925c-0.133,-0.804 -0.362,-1.608 -0.608,-2.391c-2.096,-6.63 -4.15,-13.275 -6.358,-19.867c-0.309,-0.929 -1.371,-1.608 -2.088,-2.404Zm38.892,-4.617c10.679,-0.062 16.462,-7.362 18.958,-15.462c0.617,-2.005 -0.642,-2.563 -1.892,-1.855c-2.808,1.596 -5.662,3.313 -7.962,5.534c-4.558,4.404 -8.4,6.137 -14.85,3.216c-2.275,-1.029 -4.883,-1.395 -7.379,-1.862c-0.759,-0.146 -1.646,0.396 -2.479,0.625c0.295,0.862 0.383,1.883 0.912,2.567c3.963,5.087 10.221,5.279 14.692,7.237Zm81.229,-140.817c0.354,-0.083 0.708,-0.166 1.058,-0.254c-1.412,-8.466 -2.787,-16.937 -4.283,-25.391c-0.171,-0.959 -0.938,-1.859 -1.563,-2.684c-2.687,-3.533 -5.245,-7.191 -8.2,-10.491c-3.583,-3.992 -7.208,-8.063 -11.375,-11.388c-6.091,-4.854 -13.479,-7.325 -20.908,-9.421c-10.679,-3.021 -21.596,-4.166 -32.679,-3.55c-0.721,0.042 -1.417,0.467 -2.121,0.709c0.708,0.408 1.388,1.133 2.125,1.187c9.558,0.7 18.713,2.738 27.696,6.321c9.183,3.662 18.179,7.129 24.958,14.85c3.367,3.837 7.829,6.704 11.275,10.492c5.6,6.154 9.517,13.308 11.192,21.612c0.554,2.75 1.858,5.346 2.825,8.008Zm-99.742,110.967c-0.491,-2.462 -1.441,-4.254 -1,-5.592c0.946,-2.887 2.625,-5.537 3.938,-8.312c0.275,-0.575 0.554,-1.5 0.283,-1.892c-0.296,-0.429 -1.417,-0.796 -1.829,-0.566c-2.271,1.262 -5.371,2.2 -6.467,4.195c-4.179,7.6 -6.904,15.53 -1.162,23.834c3.225,4.666 12.596,7.521 16.583,1.258c2.242,-3.525 3.608,-7.1 3.008,-11.404c-0.779,-5.542 -0.379,-10.938 3.146,-15.7c0.359,-0.483 0.038,-2.233 -0.341,-2.363c-4.513,-1.625 -10.109,0.992 -11.942,5.505c-1.338,3.308 -2.55,6.666 -4.217,11.037Zm-32.929,125.688c1.238,-0.425 3.367,-0.538 4.333,-1.659c1.267,-1.454 1.83,-3.658 2.317,-5.633c1.113,-4.479 2.025,-9.004 2.929,-13.529c0.15,-0.742 0.184,-1.975 -0.246,-2.292c-3.654,-2.733 -3.537,-6.542 -3.312,-10.454c0.037,-0.733 -0.025,-1.846 -0.483,-2.179c-6.525,-4.754 -5.159,-10.684 -2.775,-16.892c0.225,-0.592 -0.65,-1.6 -1.013,-2.417c-0.583,0.384 -1.442,0.642 -1.7,1.184c-0.729,1.537 -1.379,3.158 -1.775,4.816c-1.608,6.792 -3.117,13.6 -4.654,20.413c-0.283,1.25 -0.45,2.525 -0.775,3.767c-1.767,6.708 -3.558,13.412 -5.35,20.112c-0.521,1.946 0.275,2.808 2.196,3.075c3.241,0.454 6.462,1.05 10.308,1.688Zm93.121,-29.384c-3.979,4.384 -6.7,9.967 -13.267,10.354c-1.704,0.105 -3.441,-0.2 -5.158,-0.387c-6.296,-0.688 -12.671,-1.625 -18.017,-5.067c-2.904,-1.871 -3.033,-0.616 -3.808,1.442c-3.042,8.083 -8.417,13.642 -17.275,14.879c-7.846,1.096 -15.279,-0.537 -22.2,-4.387c-1.4,-0.775 -1.908,-0.73 -2.375,0.979c-0.746,2.766 -1.908,5.421 -2.817,8.15c-0.558,1.675 -1.071,3.391 1.25,4.321c3.475,1.391 6.884,3.945 10.392,4.083c11.767,0.442 23.35,3.929 35.283,1.808c8.475,-1.508 17.184,-1.904 25.563,-3.779c5.533,-1.242 10.55,-4.629 16.025,-6.308c3.579,-1.092 3.7,-2.817 2.812,-5.629c-2.121,-6.705 -4.208,-13.425 -6.408,-20.459Zm-54.746,-47.483c-3.733,0.433 -7.496,0.692 -11.192,1.346c-4.191,0.737 -4.333,1.162 -3.245,5.337c0.15,0.567 0.35,1.121 0.529,1.684c2.008,6.283 2.696,6.45 7.121,1.754c0.233,-0.254 0.533,-0.459 0.837,-0.621c0.625,-0.329 1.271,-0.621 1.908,-0.929c0.105,0.833 0.534,1.796 0.263,2.475c-1.688,4.237 -5.038,6.246 -9.479,6.341c-2.454,0.05 -4.975,-0.67 -7.375,-0.35c-3.738,0.5 -5.375,-3.687 -5.175,-4.429c1.812,-6.771 -2.367,-3.483 -4.788,-3.116c-4.821,0.725 -5.375,1.25 -4.537,6.108c0.354,2.046 1.637,3.937 2.537,5.883c1.509,3.254 4.013,5.279 7.479,6.279c0.6,0.18 0.896,1.388 1.33,2.125c-0.717,0.188 -1.613,0.738 -2.125,0.496c-1.842,-0.883 -3.5,-2.146 -5.342,-3.029c-0.792,-0.375 -2.417,-0.579 -2.717,-0.171c-1.354,1.842 -0.371,8.617 1.55,9.967c3.142,2.212 6.55,4.046 9.784,6.137c0.766,0.496 1.275,1.388 1.904,2.1c-0.792,0.267 -1.675,0.888 -2.367,0.717c-1.629,-0.392 -3.15,-1.225 -4.758,-1.767c-0.717,-0.241 -1.604,-0.42 -2.267,-0.191c-0.329,0.116 -0.462,1.229 -0.421,1.875c0.246,3.658 4.392,7.416 8.596,7.779c1.638,0.142 3.313,-0.021 4.933,0.2c0.63,0.087 1.159,0.867 1.734,1.329c-0.579,0.433 -1.134,1.213 -1.738,1.25c-2.221,0.146 -4.458,0.013 -6.691,0.05c-1.013,0.013 -2.021,0.175 -3.034,0.263c0.496,1.195 0.646,2.82 1.534,3.512c6.841,5.375 14.729,6.233 23.083,5.1c6.912,-0.942 10.404,-5.754 13.187,-11.337c1.025,-2.059 1.034,-5.525 2.509,-6.217c1.566,-0.738 4.316,1.079 6.558,1.737c6.304,1.855 12.592,3.771 18.946,5.434c1.487,0.391 3.846,0.521 4.708,-0.334c2.842,-2.82 5.892,-5.812 7.567,-9.345c3.208,-6.788 5.85,-13.859 7.029,-21.417c0.354,-2.258 -0.3,-2.925 -1.933,-3.679c-3.775,-1.75 -7.609,-3.4 -11.25,-5.4c-2.038,-1.121 -2.5,-0.384 -3.25,1.366c-2.075,4.871 -4.338,9.663 -6.604,14.45c-1.163,2.455 -1.484,4.45 1.858,5.305c0.779,0.2 1.596,0.55 2.212,1.054c1.175,0.954 2.213,2.071 3.313,3.121c-1.463,-0.075 -3.179,0.312 -4.342,-0.321c-5.104,-2.804 -9.887,-6.229 -15.096,-8.813c-5.783,-2.875 -9.087,-6.812 -8.266,-13.512c0.029,-0.229 0.029,-0.479 -0.029,-0.704c-1.138,-4.242 -1.767,-8.713 -3.555,-12.659c-2.179,-4.825 -7.016,-4.291 -11.433,-4.233Zm31.563,32.667c2.316,-5.4 4.533,-10.625 6.8,-15.83c0.741,-1.712 1.225,-2.937 -1.463,-3.433c-1.075,-0.196 -2.737,-2.021 -2.65,-2.975c0.883,-9.637 2.046,-19.25 3.233,-28.858c0.059,-0.504 1.105,-1.271 1.634,-1.229c0.525,0.041 1.371,0.95 1.387,1.5c0.05,1.737 -0.137,3.5 -0.379,5.233c-1.021,7.275 -2.137,14.542 -3.062,21.829c-0.071,0.525 1.112,1.763 1.67,1.742c8.646,-0.367 15.046,4.796 22.017,8.616c1.796,0.984 3.904,1.721 5.925,1.88c2.983,0.229 5.108,-0.788 5.013,-4.605c-0.092,-3.741 0.191,-7.562 0.904,-11.229c1.971,-10.058 2.75,-20.046 -0.209,-30.037c-2.854,-9.629 -8.17,-14.275 -18.05,-14.596c-5.075,-0.167 -10.225,0.812 -15.258,1.725c-1.396,0.254 -2.833,1.929 -3.654,3.308c-1.704,2.854 -3.025,5.938 -4.458,8.954c-2.259,4.755 -6.655,6.9 -11.138,8.563c-7.35,2.712 -13.612,-1.45 -19.871,-4.263c-2.071,-0.933 -3.933,-3.454 -4.787,-5.67c-0.984,-2.555 -2.729,-3.796 -4.754,-5.084c-0.98,-0.625 -2.188,-1.137 -2.796,-2.041c-2.225,-3.309 -5.642,-2.23 -7.484,-0.846c-4.862,3.646 -9.083,8.062 -11.758,13.783c-2.729,5.838 -6.542,11.204 -7.212,17.863c-0.017,0.195 -0.338,0.337 -0.413,0.545c-1.858,5.342 -3.937,10.625 -5.475,16.067c-0.971,3.438 2.371,3.096 4.296,3.638c2.179,0.612 2.429,-0.78 2.442,-2.592c0.058,-6.425 0.287,-6.742 6.683,-8.029c3.225,-0.654 4.383,-2.204 3.446,-5.446c-0.963,-3.325 -1.754,-6.704 -2.492,-10.088c-1.654,-7.533 -1.221,-7.97 6.388,-8.029c2.104,-0.016 2.812,0.638 3.033,2.767c0.217,2.058 1.187,4.033 1.833,6.046c1.4,-2.254 1.867,-4.321 2.546,-6.313c0.671,-1.958 1.475,-3.883 2.421,-5.721c0.329,-0.645 1.242,-0.987 1.892,-1.47c0.333,0.679 1.07,1.458 0.929,2.016c-0.538,2.113 -1.321,4.163 -2.079,6.209c-1.209,3.241 -2.759,6.383 -3.625,9.708c-0.805,3.1 0.645,4.121 3.65,3.017c1.275,-0.471 2.52,-1.334 3.82,-1.405c5.384,-0.3 10.817,-0.791 16.167,-0.37c4.188,0.329 7.396,3.166 8.438,7.354c1.458,5.85 2.3,11.85 3.658,17.725c0.312,1.371 1.362,2.883 2.521,3.691c3.283,2.284 6.796,4.238 10.321,6.38Zm138.195,-136.542l0.746,0c0,-14.117 0.142,-28.238 -0.066,-42.35c-0.084,-5.746 -0.417,-11.579 -1.538,-17.196c-1.854,-9.283 -4.467,-18.383 -8.842,-26.921c-2.083,-4.071 -4.97,-7.241 -8.712,-9.433c-7.858,-4.604 -16.488,-4.529 -25.179,-3.158c-0.721,0.112 -1.379,0.645 -2.071,0.983c0.492,0.558 0.929,1.187 1.487,1.675c6.342,5.55 8.821,15.704 6.092,23.633c-0.592,1.713 -0.142,3.888 0.2,5.779c0.367,2.017 1.388,3.917 1.758,5.93c1.346,7.22 1.917,14.554 0.775,21.812c-1.283,8.175 -3.008,16.288 -4.845,24.363c-0.871,3.816 -1.975,7.733 -3.817,11.154c-3.358,6.25 -5.379,12.579 -4.3,19.733c0.258,1.725 0.004,3.521 0.071,5.283c0.383,10.184 -1.913,19.955 -4.534,29.68c-1.391,5.179 -2.204,10.575 -4.191,15.5c-1.184,2.929 -2.975,4.125 1.287,6.337c11.179,5.808 22.675,9.567 35.379,9.375c2.996,-0.037 4.155,-0.892 4.117,-4.042c-0.054,-4.691 0.346,-9.395 0.746,-14.079c0.067,-0.791 0.996,-1.633 1.737,-2.166c0.205,-0.15 1.525,0.612 1.696,1.154c1.529,4.937 3.204,9.862 4.213,14.916c0.487,2.467 1.416,2.917 3.454,2.492c4.183,-0.871 8.354,-1.829 12.55,-2.65c3,-0.583 2.917,-1.758 1.379,-4.067c-2.154,-3.225 -4.479,-6.545 -5.642,-10.179c-2.312,-7.196 -4.016,-14.587 -3.97,-22.275c0.083,-13.762 0.02,-27.521 0.02,-41.283Zm-134.829,15.417c-2.204,-0.163 -3.275,-0.05 -4.212,-0.355c-1.063,-0.345 -1.996,-1.066 -2.988,-1.625c1.004,-0.445 1.967,-1.112 3.017,-1.295c3.683,-0.642 7.392,-1.117 11.096,-1.646c0.916,-0.129 1.837,-0.209 2.762,-0.309c-0.554,0.867 -0.916,2.184 -1.696,2.513c-4.016,1.696 -6.22,4.721 -8.325,8.487c-2.47,4.409 -5.087,8.925 -9.887,11.734c-4.046,2.371 -9.404,2.937 -11.225,8.762c-1.421,4.542 -3.9,8.629 -2.971,13.767c0.483,2.671 0.488,5.758 -0.417,8.25c-0.816,2.246 -0.045,2.2 1.425,2.137c4.821,-0.183 9.634,-0.504 14.446,-0.683c9.717,-0.358 19.313,-1.192 27.567,-7.117c3.537,-2.537 7.05,-5.12 10.379,-7.912c0.621,-0.521 0.713,-2.25 0.388,-3.2c-0.717,-2.092 0.095,-2.608 1.92,-2.429c2.334,0.233 4.659,0.558 6.988,0.833c7.854,0.921 13.35,-3.433 18.708,-8.242c3.734,-3.354 5.713,-7.208 4.346,-12.254c-0.408,-1.529 -1.171,-2.958 -1.758,-4.441c-3.45,-8.705 -10.534,-11.259 -18.521,-6.413c-2.879,1.746 -5.35,4.158 -8.079,6.171c-0.513,0.379 -1.354,0.325 -2.05,0.467c0.008,-0.688 -0.254,-1.584 0.079,-2.017c1.042,-1.346 2.383,-2.467 3.437,-3.804c0.296,-0.371 0.284,-1.471 -0.029,-1.767c-8.729,-8.208 -11.737,-19.079 -13.962,-30.225c-0.896,-4.475 -0.7,-9.162 -1.563,-13.646c-0.391,-2.008 -1.875,-5.091 -3.341,-5.396c-9.846,-2.045 -18.613,-6.595 -27.175,-11.42c-4.384,-2.475 -8.446,-6.038 -11.692,-9.909c-4.442,-5.316 -7.971,-11.396 -12.392,-17.896c-0.508,4.963 -1.346,9.63 -1.358,14.292c-0.021,6.071 0.812,12.075 4.062,17.492c0.509,0.841 0.163,2.196 0.213,3.312c-0.888,-0.021 -1.942,0.254 -2.633,-0.121c-2.946,-1.583 -5.9,-3.204 -8.642,-5.112c-3.833,-2.671 -7.796,-5.283 -11.104,-8.533c-3.621,-3.559 -7.613,-7.096 -8.471,-12.655c-0.258,-1.675 -0.971,-3.283 -1.496,-4.979c-1.392,1.759 -2.321,3.479 -3.729,4.588c-3.517,2.754 -7.138,5.412 -10.929,7.775c-4.563,2.837 -9.734,4.208 -10.4,11.412c-0.704,7.625 -3.817,14.992 -5.279,22.588c-1.3,6.75 -2.171,13.637 -2.555,20.5c-0.808,14.696 -1.27,29.241 4.942,43.383c3.992,9.092 11.075,14.708 18.592,19.721c4.891,3.258 11.304,4.267 17.083,6.125c1.633,0.525 3.454,0.492 5.188,0.712c-0.071,-1.666 -0.075,-3.341 -0.217,-5.008c-0.625,-7.242 0.871,-13.821 5.808,-19.412c1.188,-1.346 1.871,-2.692 -0.787,-3.346c-1.434,-0.35 -2.9,-0.917 -4.104,-1.746c-0.905,-0.625 -1.405,-1.821 -2.088,-2.763c1.038,0.025 2.146,-0.158 3.108,0.121c1.963,0.579 3.821,1.934 5.767,2.038c6.879,0.354 13.913,1.183 20.617,0.141c5.004,-0.783 10.233,-3.395 14.196,-6.62c3.912,-3.188 6.362,-8.167 9.941,-13.025Zm15.954,-134.213l-1.604,0c0,0.029 0.004,0.063 0.004,0.092l1.617,-0.075c0.55,0.625 0.983,1.55 1.679,1.829c3.867,1.55 7.996,2.558 11.642,4.492c3.925,2.07 7.846,4.512 10.992,7.591c4.787,4.688 8.875,10.075 13.3,15.134c3.987,4.55 7.15,9.412 6.529,15.858c-0.042,0.454 0.021,0.95 0.141,1.4c2.534,9.137 2.967,18.475 2.488,27.875c-0.042,0.825 -0.642,1.625 -0.983,2.433c-0.638,-0.721 -1.58,-1.341 -1.846,-2.183c-0.642,-2.004 -0.763,-4.179 -1.459,-6.163c-1.666,-4.779 -4.066,-9.366 -5.216,-14.258c-1.817,-7.717 -5.604,-14.083 -11.167,-19.529c-3.071,-3.013 -6.171,-5.996 -9.371,-8.867c-3.579,-3.208 -6.871,-7.108 -11.046,-9.225c-7.475,-3.791 -15.325,-7.154 -23.383,-9.425c-7.587,-2.133 -15.625,-2.708 -23.487,-3.812c-7.017,-0.984 -13.859,0.641 -20.721,1.721c-2.209,0.35 -4.517,0.27 -6.634,0.879c-7.57,2.191 -15.145,4.396 -22.579,6.996c-3.541,1.229 -6.987,3.037 -10.096,5.141c-4.945,3.346 -9.566,7.167 -14.345,10.767c-6.771,5.1 -11.705,11.367 -12.971,20.025c-0.275,1.85 -0.771,3.687 -0.863,5.55c-0.346,6.95 -1.366,13.996 -0.6,20.833c0.684,6.117 3.192,12.084 5.263,17.988c2.029,5.775 4.521,11.387 6.812,17.071c0.313,-0.063 0.621,-0.134 0.934,-0.2c1.279,-7.388 2.32,-14.83 3.904,-22.155c1.596,-7.408 3.733,-14.7 5.791,-22.67c-2.404,1.045 -4.029,1.887 -5.754,2.425c-0.566,0.175 -1.375,-0.442 -2.071,-0.7c0.359,-0.75 0.53,-1.9 1.121,-2.196c3.7,-1.838 7.45,-3.596 11.275,-5.163c6.242,-2.562 12.042,-5.854 16.863,-10.566c3,-2.925 5.312,-6.175 4.85,-11.034c-0.334,-3.446 0.612,-7.083 1.387,-10.546c1.479,-6.583 6.6,-9.829 12.125,-12.575c-1.091,1.425 -2.483,2.563 -3.675,3.88c-3.162,3.504 -6.775,6.966 -6.896,12.012c-0.158,6.338 0.292,12.683 0.53,19.025c0.029,0.775 0.291,1.588 0.641,2.288c5.059,10.183 13.909,16.212 23.646,21.416c-0.304,-1.6 -1.225,-2.916 -1.537,-4.366c-2.359,-10.925 -2.25,-21.63 3.325,-31.738c0.312,-0.562 0.758,-1.146 1.295,-1.471c0.63,-0.387 1.421,-0.5 2.146,-0.729c0.134,0.754 0.504,1.554 0.359,2.246c-0.663,3.087 -0.625,5.954 1.495,8.583c1.134,1.404 2.055,3.004 2.938,4.584c4.321,7.775 10.112,14.012 17.958,18.433c10.4,5.867 21.225,10.458 33.084,12.2c3.695,0.542 7.52,0.187 11.27,0.433c0.996,0.063 1.946,0.834 2.913,1.279c-0.904,0.55 -1.763,1.463 -2.713,1.575c-2.091,0.259 -4.233,0.159 -6.35,0.113c-6.841,-0.146 -6.833,-0.163 -6.387,6.425c0.854,12.446 3.229,24.35 10.85,34.771c3.546,4.846 4.771,5.816 9.146,3.621c4.462,-2.246 8.833,-2.988 13.025,0.412c1.854,1.5 4.166,2.933 5.133,4.946c2.467,5.162 5.783,10.346 3.146,16.571c-0.242,0.575 -0.038,1.337 -0.042,2.012c0.609,-0.396 1.329,-0.679 1.796,-1.2c1.608,-1.796 3.313,-3.554 4.65,-5.537c3.904,-5.784 8.204,-11.388 11.3,-17.584c3.346,-6.683 5.425,-13.987 8.2,-20.958c3.954,-9.908 6.292,-20.162 6.954,-30.804c0.717,-11.358 -0.325,-22.388 -5.646,-32.717c-3.416,-6.629 -5.995,-13.812 -10.195,-19.883c-5.609,-8.108 -13.9,-13.1 -23.613,-15.45c-1.479,-0.358 -2.942,-0.808 -4.387,-1.3c-5.23,-1.767 -10.33,-4.129 -15.696,-5.213c-6.95,-1.404 -14.113,-1.8 -21.184,-2.633Zm106.021,194.313c-0.108,1.591 -0.412,3.195 -0.271,4.766c0.342,3.779 -1.875,5.267 -5.025,5.159c-5.966,-0.196 -12.187,0.112 -17.812,-1.517c-8.6,-2.492 -16.842,-6.288 -25.092,-9.867c-2.325,-1.004 -1.975,-3.741 -0.9,-5.6c3.938,-6.779 4.263,-14.616 6.709,-21.796c3.162,-9.295 3.687,-18.812 3.666,-28.454l0,-2.3c-2.554,3.575 -4.85,7.046 -7.408,10.313c-5.217,6.662 -10.154,13.691 -19.092,15.983c-1.171,0.304 -2.254,1.167 -3.246,1.942c-5.112,3.991 -10.945,4.921 -17.195,4.15c-1.559,-0.188 -2.309,0.071 -3.467,1.712c-2.192,3.088 -5.479,5.404 -8.354,8c-1.05,0.954 -2.225,1.775 -4.142,3.292c6.158,-0.167 10.125,2.425 13.875,5.658c4.817,4.154 7.783,9.459 7.921,15.621c0.233,10.55 -0.267,21.117 -0.65,31.671c-0.104,2.879 -0.888,5.733 -1.383,8.592c-0.725,4.129 -5.725,7.237 -9.73,5.758c-2.783,-1.033 -3.766,-0.104 -4.275,2.521c-0.479,2.462 -1.162,4.912 -2.004,7.279c-2.3,6.467 -1.808,12.592 0.788,19c2.25,5.571 3.425,11.587 4.925,17.45c0.654,2.546 -0.575,3.929 -3.113,4.896c-4.821,1.841 -9.329,4.554 -14.212,6.146c-5.184,1.691 -10.6,2.837 -16.004,3.62c-16.996,2.48 -34.005,1.55 -50.963,-0.62c-2.6,-0.334 -5.412,-0.95 -7.575,-2.305c-5.342,-3.345 -11.35,-2.266 -17.021,-3.329c-2.221,-0.412 -4.504,-1 -6.508,-2.004c-3.513,-1.754 -4.263,-4.612 -2.621,-8.025c0.642,-1.329 1.283,-2.704 1.596,-4.129c1.796,-8.1 3.379,-16.25 5.267,-24.333c1.279,-5.5 2.845,-10.938 4.454,-16.359c0.762,-2.554 0.566,-4.104 -2.388,-4.979c-2.966,-0.883 -4.346,-3.229 -3.312,-6.321c2.937,-8.771 5.791,-17.579 9.104,-26.204c1.879,-4.9 4.408,-9.587 7.021,-14.15c1.4,-2.45 3.591,-4.442 5.429,-6.637c0.958,-1.15 3.317,-2.363 -0.288,-3.196c-1.779,-0.417 -3.441,-1.346 -5.225,-1.738c-6.37,-1.4 -11.745,-4.4 -16.225,-9.187c-2.262,-2.413 -5.112,-4.271 -7.354,-6.696c-1.833,-1.983 -3.425,-4.296 -4.666,-6.7c-6.209,-11.963 -7.805,-24.829 -6.9,-38.088c0.275,-4.041 -0.188,-7.32 -2.571,-11.091c-3.542,-5.604 -5.779,-12.146 -7.85,-18.525c-2.359,-7.275 -4.404,-14.725 -5.654,-22.254c-0.713,-4.334 0.366,-8.984 0.741,-13.475c0.221,-2.692 0.575,-5.375 0.975,-8.046c1.338,-8.9 5.454,-16.175 12.679,-21.675c4.55,-3.467 8.717,-7.475 13.5,-10.554c4.896,-3.155 10.134,-6.03 15.588,-8.034c6.312,-2.316 13.146,-3.179 19.529,-5.333c11.079,-3.729 22.829,-3.638 33.979,-6.463c6.175,-1.566 11.779,0 17.65,0.217c9.742,0.367 19.488,0.604 29.234,0.733c8.612,0.121 16.779,1.834 24.62,5.509c3.759,1.762 8.03,2.433 11.821,4.146c4.567,2.062 9.134,4.333 13.221,7.2c4.938,3.458 9.833,3.262 15.192,1.695c6.021,-1.766 12.116,-1.845 18.158,0.084c0.546,0.171 1.1,0.341 1.658,0.466c9.038,2.046 14.375,7.675 18.163,16.155c3.487,7.804 6.242,15.775 7.746,24.004c1.475,8.033 1.796,16.371 1.791,24.575c-0.004,24.246 -0.512,48.491 -0.604,72.737c-0.016,5.621 0.175,11.404 1.492,16.817c1.887,7.742 4.037,15.612 10.458,21.296c1.7,1.504 0.725,4.229 -2.737,5.408c-6.367,2.163 -12.838,4.317 -19.763,3.825c-2.962,-0.208 -4.171,-2.087 -4.425,-4.771c-0.108,-1.158 -0.016,-2.333 -0.016,-3.5c-0.305,-0.05 -0.605,-0.091 -0.909,-0.141Z" style="fill:none;fill-rule:nonzero;stroke:#fff;stroke-width:13.21px;stroke-linecap:round;stroke-linejoin:round;"/><path d="M189.138,208.07c3.612,0.145 8.2,-2.342 9.587,-5.146c0.117,-0.229 -0.941,-1.484 -1.479,-1.504c-2.808,-0.105 -5.625,0.129 -8.446,0.062c-1.804,-0.05 -6.495,2.629 -5.925,3.654c0.705,1.267 2.705,1.871 4.221,2.592c0.713,0.342 1.613,0.275 2.042,0.342m119.054,-154.313c-0.283,-7.454 -3.796,-12.862 -9.442,-17.062c-1.212,-0.905 -2.791,-1.321 -4.195,-1.959c0.687,1.479 1.304,3.004 2.075,4.442c2.7,5.025 5.5,9.996 8.162,15.042c0.763,1.437 1.175,3.05 1.75,4.587c0.546,-1.683 1.096,-3.367 1.65,-5.05m-156.525,168.842c-0.521,0.108 -1.042,0.212 -1.562,0.312c-0.217,0.846 -0.767,1.767 -0.592,2.534c1.146,5.091 2.379,10.166 3.721,15.212c0.704,2.663 1.683,5.254 2.521,7.883c0.904,2.846 3.416,2.309 5.508,2.646c-0.175,-1.308 -0.317,-2.625 -0.542,-3.925c-0.133,-0.804 -0.362,-1.608 -0.608,-2.391c-2.096,-6.63 -4.15,-13.275 -6.358,-19.867c-0.309,-0.929 -1.371,-1.608 -2.088,-2.404m38.892,-4.617c10.679,-0.062 16.462,-7.362 18.958,-15.462c0.617,-2.005 -0.642,-2.563 -1.892,-1.855c-2.808,1.596 -5.662,3.313 -7.962,5.534c-4.558,4.404 -8.4,6.137 -14.85,3.216c-2.275,-1.029 -4.883,-1.395 -7.379,-1.862c-0.759,-0.146 -1.646,0.396 -2.479,0.625c0.295,0.862 0.383,1.883 0.912,2.567c3.963,5.087 10.221,5.279 14.692,7.237m81.229,-140.817c0.354,-0.083 0.708,-0.166 1.058,-0.254c-1.412,-8.466 -2.787,-16.937 -4.283,-25.391c-0.171,-0.959 -0.938,-1.859 -1.563,-2.684c-2.687,-3.533 -5.245,-7.191 -8.2,-10.491c-3.583,-3.992 -7.208,-8.063 -11.375,-11.388c-6.091,-4.854 -13.479,-7.325 -20.908,-9.421c-10.679,-3.021 -21.596,-4.166 -32.679,-3.55c-0.721,0.042 -1.417,0.467 -2.121,0.709c0.708,0.408 1.388,1.133 2.125,1.187c9.558,0.7 18.713,2.738 27.696,6.321c9.183,3.662 18.179,7.129 24.958,14.85c3.367,3.837 7.829,6.704 11.275,10.492c5.6,6.154 9.517,13.308 11.192,21.612c0.554,2.75 1.858,5.346 2.825,8.008m-99.742,110.967c-0.491,-2.462 -1.441,-4.254 -1,-5.592c0.946,-2.887 2.625,-5.537 3.938,-8.312c0.275,-0.575 0.554,-1.5 0.283,-1.892c-0.296,-0.429 -1.417,-0.796 -1.829,-0.566c-2.271,1.262 -5.371,2.2 -6.467,4.195c-4.179,7.6 -6.904,15.53 -1.162,23.834c3.225,4.666 12.596,7.521 16.583,1.258c2.242,-3.525 3.608,-7.1 3.008,-11.404c-0.779,-5.542 -0.379,-10.938 3.146,-15.7c0.359,-0.483 0.038,-2.233 -0.341,-2.363c-4.513,-1.625 -10.109,0.992 -11.942,5.505c-1.338,3.308 -2.55,6.666 -4.217,11.037m-32.929,125.688c1.238,-0.425 3.367,-0.538 4.333,-1.659c1.267,-1.454 1.83,-3.658 2.317,-5.633c1.113,-4.479 2.025,-9.004 2.929,-13.529c0.15,-0.742 0.184,-1.975 -0.246,-2.292c-3.654,-2.733 -3.537,-6.542 -3.312,-10.454c0.037,-0.733 -0.025,-1.846 -0.483,-2.179c-6.525,-4.754 -5.159,-10.684 -2.775,-16.892c0.225,-0.592 -0.65,-1.6 -1.013,-2.417c-0.583,0.384 -1.442,0.642 -1.7,1.184c-0.729,1.537 -1.379,3.158 -1.775,4.816c-1.608,6.792 -3.117,13.6 -4.654,20.413c-0.283,1.25 -0.45,2.525 -0.775,3.767c-1.767,6.708 -3.558,13.412 -5.35,20.112c-0.521,1.946 0.275,2.808 2.196,3.075c3.241,0.454 6.462,1.05 10.308,1.688m93.121,-29.384c-3.979,4.384 -6.7,9.967 -13.267,10.354c-1.704,0.105 -3.441,-0.2 -5.158,-0.387c-6.296,-0.688 -12.671,-1.625 -18.017,-5.067c-2.904,-1.871 -3.033,-0.616 -3.808,1.442c-3.042,8.083 -8.417,13.642 -17.275,14.879c-7.846,1.096 -15.279,-0.537 -22.2,-4.387c-1.4,-0.775 -1.908,-0.73 -2.375,0.979c-0.746,2.766 -1.908,5.421 -2.817,8.15c-0.558,1.675 -1.071,3.391 1.25,4.321c3.475,1.391 6.884,3.945 10.392,4.083c11.767,0.442 23.35,3.929 35.283,1.808c8.475,-1.508 17.184,-1.904 25.563,-3.779c5.533,-1.242 10.55,-4.629 16.025,-6.308c3.579,-1.092 3.7,-2.817 2.812,-5.629c-2.121,-6.705 -4.208,-13.425 -6.408,-20.459m-54.746,-47.483c-3.733,0.433 -7.496,0.692 -11.192,1.346c-4.191,0.737 -4.333,1.162 -3.245,5.337c0.15,0.567 0.35,1.121 0.529,1.684c2.008,6.283 2.696,6.45 7.121,1.754c0.233,-0.254 0.533,-0.459 0.837,-0.621c0.625,-0.329 1.271,-0.621 1.908,-0.929c0.105,0.833 0.534,1.796 0.263,2.475c-1.688,4.237 -5.038,6.246 -9.479,6.341c-2.454,0.05 -4.975,-0.67 -7.375,-0.35c-3.738,0.5 -5.375,-3.687 -5.175,-4.429c1.812,-6.771 -2.367,-3.483 -4.788,-3.116c-4.821,0.725 -5.375,1.25 -4.537,6.108c0.354,2.046 1.637,3.937 2.537,5.883c1.509,3.254 4.013,5.279 7.479,6.279c0.6,0.18 0.896,1.388 1.33,2.125c-0.717,0.188 -1.613,0.738 -2.125,0.496c-1.842,-0.883 -3.5,-2.146 -5.342,-3.029c-0.792,-0.375 -2.417,-0.579 -2.717,-0.171c-1.354,1.842 -0.371,8.617 1.55,9.967c3.142,2.212 6.55,4.046 9.784,6.137c0.766,0.496 1.275,1.388 1.904,2.1c-0.792,0.267 -1.675,0.888 -2.367,0.717c-1.629,-0.392 -3.15,-1.225 -4.758,-1.767c-0.717,-0.241 -1.604,-0.42 -2.267,-0.191c-0.329,0.116 -0.462,1.229 -0.421,1.875c0.246,3.658 4.392,7.416 8.596,7.779c1.638,0.142 3.313,-0.021 4.933,0.2c0.63,0.087 1.159,0.867 1.734,1.329c-0.579,0.433 -1.134,1.213 -1.738,1.25c-2.221,0.146 -4.458,0.013 -6.691,0.05c-1.013,0.013 -2.021,0.175 -3.034,0.263c0.496,1.195 0.646,2.82 1.534,3.512c6.841,5.375 14.729,6.233 23.083,5.1c6.912,-0.942 10.404,-5.754 13.187,-11.337c1.025,-2.059 1.034,-5.525 2.509,-6.217c1.566,-0.738 4.316,1.079 6.558,1.737c6.304,1.855 12.592,3.771 18.946,5.434c1.487,0.391 3.846,0.521 4.708,-0.334c2.842,-2.82 5.892,-5.812 7.567,-9.345c3.208,-6.788 5.85,-13.859 7.029,-21.417c0.354,-2.258 -0.3,-2.925 -1.933,-3.679c-3.775,-1.75 -7.609,-3.4 -11.25,-5.4c-2.038,-1.121 -2.5,-0.384 -3.25,1.366c-2.075,4.871 -4.338,9.663 -6.604,14.45c-1.163,2.455 -1.484,4.45 1.858,5.305c0.779,0.2 1.596,0.55 2.212,1.054c1.175,0.954 2.213,2.071 3.313,3.121c-1.463,-0.075 -3.179,0.312 -4.342,-0.321c-5.104,-2.804 -9.887,-6.229 -15.096,-8.813c-5.783,-2.875 -9.087,-6.812 -8.266,-13.512c0.029,-0.229 0.029,-0.479 -0.029,-0.704c-1.138,-4.242 -1.767,-8.713 -3.555,-12.659c-2.179,-4.825 -7.016,-4.291 -11.433,-4.233m31.563,32.667c2.316,-5.4 4.533,-10.625 6.8,-15.83c0.741,-1.712 1.225,-2.937 -1.463,-3.433c-1.075,-0.196 -2.737,-2.021 -2.65,-2.975c0.883,-9.637 2.046,-19.25 3.233,-28.858c0.059,-0.504 1.105,-1.271 1.634,-1.229c0.525,0.041 1.371,0.95 1.387,1.5c0.05,1.737 -0.137,3.5 -0.379,5.233c-1.021,7.275 -2.137,14.542 -3.062,21.829c-0.071,0.525 1.112,1.763 1.67,1.742c8.646,-0.367 15.046,4.796 22.017,8.616c1.796,0.984 3.904,1.721 5.925,1.88c2.983,0.229 5.108,-0.788 5.013,-4.605c-0.092,-3.741 0.191,-7.562 0.904,-11.229c1.971,-10.058 2.75,-20.046 -0.209,-30.037c-2.854,-9.629 -8.17,-14.275 -18.05,-14.596c-5.075,-0.167 -10.225,0.812 -15.258,1.725c-1.396,0.254 -2.833,1.929 -3.654,3.308c-1.704,2.854 -3.025,5.938 -4.458,8.954c-2.259,4.755 -6.655,6.9 -11.138,8.563c-7.35,2.712 -13.612,-1.45 -19.871,-4.263c-2.071,-0.933 -3.933,-3.454 -4.787,-5.67c-0.984,-2.555 -2.729,-3.796 -4.754,-5.084c-0.98,-0.625 -2.188,-1.137 -2.796,-2.041c-2.225,-3.309 -5.642,-2.23 -7.484,-0.846c-4.862,3.646 -9.083,8.062 -11.758,13.783c-2.729,5.838 -6.542,11.204 -7.212,17.863c-0.017,0.195 -0.338,0.337 -0.413,0.545c-1.858,5.342 -3.937,10.625 -5.475,16.067c-0.971,3.438 2.371,3.096 4.296,3.638c2.179,0.612 2.429,-0.78 2.442,-2.592c0.058,-6.425 0.287,-6.742 6.683,-8.029c3.225,-0.654 4.383,-2.204 3.446,-5.446c-0.963,-3.325 -1.754,-6.704 -2.492,-10.088c-1.654,-7.533 -1.221,-7.97 6.388,-8.029c2.104,-0.016 2.812,0.638 3.033,2.767c0.217,2.058 1.187,4.033 1.833,6.046c1.4,-2.254 1.867,-4.321 2.546,-6.313c0.671,-1.958 1.475,-3.883 2.421,-5.721c0.329,-0.645 1.242,-0.987 1.892,-1.47c0.333,0.679 1.07,1.458 0.929,2.016c-0.538,2.113 -1.321,4.163 -2.079,6.209c-1.209,3.241 -2.759,6.383 -3.625,9.708c-0.805,3.1 0.645,4.121 3.65,3.017c1.275,-0.471 2.52,-1.334 3.82,-1.405c5.384,-0.3 10.817,-0.791 16.167,-0.37c4.188,0.329 7.396,3.166 8.438,7.354c1.458,5.85 2.3,11.85 3.658,17.725c0.312,1.371 1.362,2.883 2.521,3.691c3.283,2.284 6.796,4.238 10.321,6.38m138.195,-136.542l0.746,0c0,-14.117 0.142,-28.238 -0.066,-42.35c-0.084,-5.746 -0.417,-11.579 -1.538,-17.196c-1.854,-9.283 -4.467,-18.383 -8.842,-26.921c-2.083,-4.071 -4.97,-7.241 -8.712,-9.433c-7.858,-4.604 -16.488,-4.529 -25.179,-3.158c-0.721,0.112 -1.379,0.645 -2.071,0.983c0.492,0.558 0.929,1.187 1.487,1.675c6.342,5.55 8.821,15.704 6.092,23.633c-0.592,1.713 -0.142,3.888 0.2,5.779c0.367,2.017 1.388,3.917 1.758,5.93c1.346,7.22 1.917,14.554 0.775,21.812c-1.283,8.175 -3.008,16.288 -4.845,24.363c-0.871,3.816 -1.975,7.733 -3.817,11.154c-3.358,6.25 -5.379,12.579 -4.3,19.733c0.258,1.725 0.004,3.521 0.071,5.283c0.383,10.184 -1.913,19.955 -4.534,29.68c-1.391,5.179 -2.204,10.575 -4.191,15.5c-1.184,2.929 -2.975,4.125 1.287,6.337c11.179,5.808 22.675,9.567 35.379,9.375c2.996,-0.037 4.155,-0.892 4.117,-4.042c-0.054,-4.691 0.346,-9.395 0.746,-14.079c0.067,-0.791 0.996,-1.633 1.737,-2.166c0.205,-0.15 1.525,0.612 1.696,1.154c1.529,4.937 3.204,9.862 4.213,14.916c0.487,2.467 1.416,2.917 3.454,2.492c4.183,-0.871 8.354,-1.829 12.55,-2.65c3,-0.583 2.917,-1.758 1.379,-4.067c-2.154,-3.225 -4.479,-6.545 -5.642,-10.179c-2.312,-7.196 -4.016,-14.587 -3.97,-22.275c0.083,-13.762 0.02,-27.521 0.02,-41.283m-134.829,15.417c-2.204,-0.163 -3.275,-0.05 -4.212,-0.355c-1.063,-0.345 -1.996,-1.066 -2.988,-1.625c1.004,-0.445 1.967,-1.112 3.017,-1.295c3.683,-0.642 7.392,-1.117 11.096,-1.646c0.916,-0.129 1.837,-0.209 2.762,-0.309c-0.554,0.867 -0.916,2.184 -1.696,2.513c-4.016,1.696 -6.22,4.721 -8.325,8.487c-2.47,4.409 -5.087,8.925 -9.887,11.734c-4.046,2.371 -9.404,2.937 -11.225,8.762c-1.421,4.542 -3.9,8.629 -2.971,13.767c0.483,2.671 0.488,5.758 -0.417,8.25c-0.816,2.246 -0.045,2.2 1.425,2.137c4.821,-0.183 9.634,-0.504 14.446,-0.683c9.717,-0.358 19.313,-1.192 27.567,-7.117c3.537,-2.537 7.05,-5.12 10.379,-7.912c0.621,-0.521 0.713,-2.25 0.388,-3.2c-0.717,-2.092 0.095,-2.608 1.92,-2.429c2.334,0.233 4.659,0.558 6.988,0.833c7.854,0.921 13.35,-3.433 18.708,-8.242c3.734,-3.354 5.713,-7.208 4.346,-12.254c-0.408,-1.529 -1.171,-2.958 -1.758,-4.441c-3.45,-8.705 -10.534,-11.259 -18.521,-6.413c-2.879,1.746 -5.35,4.158 -8.079,6.171c-0.513,0.379 -1.354,0.325 -2.05,0.467c0.008,-0.688 -0.254,-1.584 0.079,-2.017c1.042,-1.346 2.383,-2.467 3.437,-3.804c0.296,-0.371 0.284,-1.471 -0.029,-1.767c-8.729,-8.208 -11.737,-19.079 -13.962,-30.225c-0.896,-4.475 -0.7,-9.162 -1.563,-13.646c-0.391,-2.008 -1.875,-5.091 -3.341,-5.396c-9.846,-2.045 -18.613,-6.595 -27.175,-11.42c-4.384,-2.475 -8.446,-6.038 -11.692,-9.909c-4.442,-5.316 -7.971,-11.396 -12.392,-17.896c-0.508,4.963 -1.346,9.63 -1.358,14.292c-0.021,6.071 0.812,12.075 4.062,17.492c0.509,0.841 0.163,2.196 0.213,3.312c-0.888,-0.021 -1.942,0.254 -2.633,-0.121c-2.946,-1.583 -5.9,-3.204 -8.642,-5.112c-3.833,-2.671 -7.796,-5.283 -11.104,-8.533c-3.621,-3.559 -7.613,-7.096 -8.471,-12.655c-0.258,-1.675 -0.971,-3.283 -1.496,-4.979c-1.392,1.759 -2.321,3.479 -3.729,4.588c-3.517,2.754 -7.138,5.412 -10.929,7.775c-4.563,2.837 -9.734,4.208 -10.4,11.412c-0.704,7.625 -3.817,14.992 -5.279,22.588c-1.3,6.75 -2.171,13.637 -2.555,20.5c-0.808,14.696 -1.27,29.241 4.942,43.383c3.992,9.092 11.075,14.708 18.592,19.721c4.891,3.258 11.304,4.267 17.083,6.125c1.633,0.525 3.454,0.492 5.188,0.712c-0.071,-1.666 -0.075,-3.341 -0.217,-5.008c-0.625,-7.242 0.871,-13.821 5.808,-19.412c1.188,-1.346 1.871,-2.692 -0.787,-3.346c-1.434,-0.35 -2.9,-0.917 -4.104,-1.746c-0.905,-0.625 -1.405,-1.821 -2.088,-2.763c1.038,0.025 2.146,-0.158 3.108,0.121c1.963,0.579 3.821,1.934 5.767,2.038c6.879,0.354 13.913,1.183 20.617,0.141c5.004,-0.783 10.233,-3.395 14.196,-6.62c3.912,-3.188 6.362,-8.167 9.941,-13.025m15.954,-134.213l-1.604,0c0,0.029 0.004,0.063 0.004,0.092l1.617,-0.075c0.55,0.625 0.983,1.55 1.679,1.829c3.867,1.55 7.996,2.558 11.642,4.492c3.925,2.07 7.846,4.512 10.992,7.591c4.787,4.688 8.875,10.075 13.3,15.134c3.987,4.55 7.15,9.412 6.529,15.858c-0.042,0.454 0.021,0.95 0.141,1.4c2.534,9.137 2.967,18.475 2.488,27.875c-0.042,0.825 -0.642,1.625 -0.983,2.433c-0.638,-0.721 -1.58,-1.341 -1.846,-2.183c-0.642,-2.004 -0.763,-4.179 -1.459,-6.163c-1.666,-4.779 -4.066,-9.366 -5.216,-14.258c-1.817,-7.717 -5.604,-14.083 -11.167,-19.529c-3.071,-3.013 -6.171,-5.996 -9.371,-8.867c-3.579,-3.208 -6.871,-7.108 -11.046,-9.225c-7.475,-3.791 -15.325,-7.154 -23.383,-9.425c-7.587,-2.133 -15.625,-2.708 -23.487,-3.812c-7.017,-0.984 -13.859,0.641 -20.721,1.721c-2.209,0.35 -4.517,0.27 -6.634,0.879c-7.57,2.191 -15.145,4.396 -22.579,6.996c-3.541,1.229 -6.987,3.037 -10.096,5.141c-4.945,3.346 -9.566,7.167 -14.345,10.767c-6.771,5.1 -11.705,11.367 -12.971,20.025c-0.275,1.85 -0.771,3.687 -0.863,5.55c-0.346,6.95 -1.366,13.996 -0.6,20.833c0.684,6.117 3.192,12.084 5.263,17.988c2.029,5.775 4.521,11.387 6.812,17.071c0.313,-0.063 0.621,-0.134 0.934,-0.2c1.279,-7.388 2.32,-14.83 3.904,-22.155c1.596,-7.408 3.733,-14.7 5.791,-22.67c-2.404,1.045 -4.029,1.887 -5.754,2.425c-0.566,0.175 -1.375,-0.442 -2.071,-0.7c0.359,-0.75 0.53,-1.9 1.121,-2.196c3.7,-1.838 7.45,-3.596 11.275,-5.163c6.242,-2.562 12.042,-5.854 16.863,-10.566c3,-2.925 5.312,-6.175 4.85,-11.034c-0.334,-3.446 0.612,-7.083 1.387,-10.546c1.479,-6.583 6.6,-9.829 12.125,-12.575c-1.091,1.425 -2.483,2.563 -3.675,3.88c-3.162,3.504 -6.775,6.966 -6.896,12.012c-0.158,6.338 0.292,12.683 0.53,19.025c0.029,0.775 0.291,1.588 0.641,2.288c5.059,10.183 13.909,16.212 23.646,21.416c-0.304,-1.6 -1.225,-2.916 -1.537,-4.366c-2.359,-10.925 -2.25,-21.63 3.325,-31.738c0.312,-0.562 0.758,-1.146 1.295,-1.471c0.63,-0.387 1.421,-0.5 2.146,-0.729c0.134,0.754 0.504,1.554 0.359,2.246c-0.663,3.087 -0.625,5.954 1.495,8.583c1.134,1.404 2.055,3.004 2.938,4.584c4.321,7.775 10.112,14.012 17.958,18.433c10.4,5.867 21.225,10.458 33.084,12.2c3.695,0.542 7.52,0.187 11.27,0.433c0.996,0.063 1.946,0.834 2.913,1.279c-0.904,0.55 -1.763,1.463 -2.713,1.575c-2.091,0.259 -4.233,0.159 -6.35,0.113c-6.841,-0.146 -6.833,-0.163 -6.387,6.425c0.854,12.446 3.229,24.35 10.85,34.771c3.546,4.846 4.771,5.816 9.146,3.621c4.462,-2.246 8.833,-2.988 13.025,0.412c1.854,1.5 4.166,2.933 5.133,4.946c2.467,5.162 5.783,10.346 3.146,16.571c-0.242,0.575 -0.038,1.337 -0.042,2.012c0.609,-0.396 1.329,-0.679 1.796,-1.2c1.608,-1.796 3.313,-3.554 4.65,-5.537c3.904,-5.784 8.204,-11.388 11.3,-17.584c3.346,-6.683 5.425,-13.987 8.2,-20.958c3.954,-9.908 6.292,-20.162 6.954,-30.804c0.717,-11.358 -0.325,-22.388 -5.646,-32.717c-3.416,-6.629 -5.995,-13.812 -10.195,-19.883c-5.609,-8.108 -13.9,-13.1 -23.613,-15.45c-1.479,-0.358 -2.942,-0.808 -4.387,-1.3c-5.23,-1.767 -10.33,-4.129 -15.696,-5.213c-6.95,-1.404 -14.113,-1.8 -21.184,-2.633m106.021,194.313c-0.108,1.591 -0.412,3.195 -0.271,4.766c0.342,3.779 -1.875,5.267 -5.025,5.159c-5.966,-0.196 -12.187,0.112 -17.812,-1.517c-8.6,-2.492 -16.842,-6.288 -25.092,-9.867c-2.325,-1.004 -1.975,-3.741 -0.9,-5.6c3.938,-6.779 4.263,-14.616 6.709,-21.796c3.162,-9.295 3.687,-18.812 3.666,-28.454l0,-2.3c-2.554,3.575 -4.85,7.046 -7.408,10.313c-5.217,6.662 -10.154,13.691 -19.092,15.983c-1.171,0.304 -2.254,1.167 -3.246,1.942c-5.112,3.991 -10.945,4.921 -17.195,4.15c-1.559,-0.188 -2.309,0.071 -3.467,1.712c-2.192,3.088 -5.479,5.404 -8.354,8c-1.05,0.954 -2.225,1.775 -4.142,3.292c6.158,-0.167 10.125,2.425 13.875,5.658c4.817,4.154 7.783,9.459 7.921,15.621c0.233,10.55 -0.267,21.117 -0.65,31.671c-0.104,2.879 -0.888,5.733 -1.383,8.592c-0.725,4.129 -5.725,7.237 -9.73,5.758c-2.783,-1.033 -3.766,-0.104 -4.275,2.521c-0.479,2.462 -1.162,4.912 -2.004,7.279c-2.3,6.467 -1.808,12.592 0.788,19c2.25,5.571 3.425,11.587 4.925,17.45c0.654,2.546 -0.575,3.929 -3.113,4.896c-4.821,1.841 -9.329,4.554 -14.212,6.146c-5.184,1.691 -10.6,2.837 -16.004,3.62c-16.996,2.48 -34.005,1.55 -50.963,-0.62c-2.6,-0.334 -5.412,-0.95 -7.575,-2.305c-5.342,-3.345 -11.35,-2.266 -17.021,-3.329c-2.221,-0.412 -4.504,-1 -6.508,-2.004c-3.513,-1.754 -4.263,-4.612 -2.621,-8.025c0.642,-1.329 1.283,-2.704 1.596,-4.129c1.796,-8.1 3.379,-16.25 5.267,-24.333c1.279,-5.5 2.845,-10.938 4.454,-16.359c0.762,-2.554 0.566,-4.104 -2.388,-4.979c-2.966,-0.883 -4.346,-3.229 -3.312,-6.321c2.937,-8.771 5.791,-17.579 9.104,-26.204c1.879,-4.9 4.408,-9.587 7.021,-14.15c1.4,-2.45 3.591,-4.442 5.429,-6.637c0.958,-1.15 3.317,-2.363 -0.288,-3.196c-1.779,-0.417 -3.441,-1.346 -5.225,-1.738c-6.37,-1.4 -11.745,-4.4 -16.225,-9.187c-2.262,-2.413 -5.112,-4.271 -7.354,-6.696c-1.833,-1.983 -3.425,-4.296 -4.666,-6.7c-6.209,-11.963 -7.805,-24.829 -6.9,-38.088c0.275,-4.041 -0.188,-7.32 -2.571,-11.091c-3.542,-5.604 -5.779,-12.146 -7.85,-18.525c-2.359,-7.275 -4.404,-14.725 -5.654,-22.254c-0.713,-4.334 0.366,-8.984 0.741,-13.475c0.221,-2.692 0.575,-5.375 0.975,-8.046c1.338,-8.9 5.454,-16.175 12.679,-21.675c4.55,-3.467 8.717,-7.475 13.5,-10.554c4.896,-3.155 10.134,-6.03 15.588,-8.034c6.312,-2.316 13.146,-3.179 19.529,-5.333c11.079,-3.729 22.829,-3.638 33.979,-6.463c6.175,-1.566 11.779,0 17.65,0.217c9.742,0.367 19.488,0.604 29.234,0.733c8.612,0.121 16.779,1.834 24.62,5.509c3.759,1.762 8.03,2.433 11.821,4.146c4.567,2.062 9.134,4.333 13.221,7.2c4.938,3.458 9.833,3.262 15.192,1.695c6.021,-1.766 12.116,-1.845 18.158,0.084c0.546,0.171 1.1,0.341 1.658,0.466c9.038,2.046 14.375,7.675 18.163,16.155c3.487,7.804 6.242,15.775 7.746,24.004c1.475,8.033 1.796,16.371 1.791,24.575c-0.004,24.246 -0.512,48.491 -0.604,72.737c-0.016,5.621 0.175,11.404 1.492,16.817c1.887,7.742 4.037,15.612 10.458,21.296c1.7,1.504 0.725,4.229 -2.737,5.408c-6.367,2.163 -12.838,4.317 -19.763,3.825c-2.962,-0.208 -4.171,-2.087 -4.425,-4.771c-0.108,-1.158 -0.016,-2.333 -0.016,-3.5c-0.305,-0.05 -0.605,-0.091 -0.909,-0.141" style="fill:#231f20;fill-rule:nonzero;"/><path d="M228.377,14.285c7.071,0.83 14.23,1.225 21.184,2.63c5.362,1.083 10.471,3.445 15.696,5.216c1.445,0.488 2.908,0.938 4.387,1.296c9.713,2.354 18,7.342 23.608,15.45c4.205,6.071 6.784,13.254 10.196,19.883c5.321,10.325 6.363,21.363 5.65,32.721c-0.666,10.638 -3.004,20.888 -6.95,30.796c-2.783,6.975 -4.862,14.283 -8.204,20.963c-3.1,6.191 -7.4,11.8 -11.304,17.579c-1.338,1.991 -3.038,3.75 -4.65,5.546c-0.463,0.516 -1.188,0.8 -1.792,1.191c0,-0.671 -0.204,-1.437 0.038,-2.008c2.637,-6.221 -0.675,-11.413 -3.146,-16.571c-0.967,-2.008 -3.279,-3.442 -5.129,-4.946c-4.196,-3.396 -8.567,-2.658 -13.029,-0.416c-4.375,2.204 -5.6,1.229 -9.146,-3.613c-7.621,-10.429 -9.988,-22.329 -10.842,-34.775c-0.454,-6.587 -0.462,-6.571 6.383,-6.421c2.113,0.042 4.255,0.142 6.346,-0.112c0.954,-0.113 1.813,-1.025 2.717,-1.575c-0.971,-0.45 -1.921,-1.217 -2.913,-1.284c-3.754,-0.245 -7.57,0.109 -11.275,-0.437c-11.85,-1.738 -22.683,-6.329 -33.083,-12.196c-7.846,-4.425 -13.633,-10.658 -17.958,-18.429c-0.884,-1.583 -1.8,-3.179 -2.934,-4.588c-2.12,-2.629 -2.162,-5.495 -1.5,-8.587c0.15,-0.683 -0.225,-1.492 -0.358,-2.238c-0.721,0.225 -1.512,0.342 -2.142,0.721c-0.541,0.325 -0.987,0.909 -1.3,1.475c-5.575,10.109 -5.679,20.813 -3.325,31.742c0.317,1.446 1.234,2.762 1.542,4.362c-9.737,-5.204 -18.583,-11.237 -23.65,-21.416c-0.346,-0.696 -0.608,-1.517 -0.642,-2.288c-0.237,-6.337 -0.683,-12.691 -0.529,-19.025c0.125,-5.05 3.738,-8.504 6.9,-12.008c1.188,-1.321 2.588,-2.458 3.675,-3.883c-5.529,2.75 -10.65,5.995 -12.125,12.575c-0.779,3.466 -1.721,7.1 -1.391,10.545c0.466,4.859 -1.846,8.109 -4.846,11.038c-4.825,4.712 -10.625,8 -16.863,10.562c-3.825,1.567 -7.579,3.33 -11.279,5.167c-0.592,0.292 -0.758,1.442 -1.121,2.192c0.7,0.258 1.509,0.875 2.071,0.7c1.725,-0.534 3.35,-1.375 5.754,-2.425c-2.058,7.971 -4.187,15.262 -5.787,22.675c-1.588,7.321 -2.629,14.762 -3.909,22.154c-0.312,0.067 -0.62,0.129 -0.929,0.196c-2.291,-5.679 -4.787,-11.292 -6.812,-17.071c-2.075,-5.904 -4.579,-11.867 -5.267,-17.988c-0.767,-6.841 0.254,-13.883 0.6,-20.837c0.096,-1.858 0.592,-3.696 0.863,-5.55c1.27,-8.65 6.208,-14.925 12.97,-20.017c4.78,-3.6 9.4,-7.429 14.346,-10.771c3.113,-2.104 6.554,-3.912 10.096,-5.145c7.433,-2.592 15.013,-4.8 22.583,-6.992c2.113,-0.608 4.421,-0.529 6.63,-0.879c6.862,-1.079 13.708,-2.704 20.72,-1.721c7.863,1.104 15.9,1.675 23.492,3.812c8.054,2.267 15.904,5.634 23.383,9.43c4.171,2.112 7.463,6.008 11.046,9.22c3.2,2.871 6.296,5.859 9.371,8.867c5.563,5.446 9.35,11.813 11.163,19.529c1.15,4.888 3.55,9.479 5.225,14.259c0.687,1.987 0.812,4.158 1.458,6.162c0.267,0.838 1.204,1.463 1.837,2.183c0.342,-0.808 0.942,-1.608 0.984,-2.429c0.479,-9.408 0.05,-18.741 -2.484,-27.883c-0.125,-0.446 -0.187,-0.942 -0.141,-1.4c0.621,-6.442 -2.542,-11.3 -6.529,-15.85c-4.43,-5.058 -8.517,-10.454 -13.3,-15.142c-3.146,-3.075 -7.071,-5.516 -10.992,-7.591c-3.65,-1.93 -7.779,-2.942 -11.642,-4.484c-0.691,-0.279 -1.129,-1.204 -1.683,-1.833l-0.013,-0.013Z" style="fill:#754c28;fill-rule:nonzero;"/><path d="M179.192,17.555c-6.912,3.3 -10.529,13 -12.45,19.821c-1.57,5.579 -2.995,13.466 -0.562,19.341c2.087,-6.887 4.121,-13.6 9.617,-18.804c6.845,-6.491 16.47,-10.575 25.737,-11.891c1.483,-0.213 2.979,1.4 2.471,2.862c-9.317,26.571 16.833,49.975 41.3,54.875c-1.946,-2.883 -3.625,-5.996 -5.125,-9.058c-3.058,-6.254 -9.567,-20.313 -1.317,-25.413c4.671,-2.887 11.579,-1.475 16.617,0.584c-0.346,-0.355 -0.629,-0.746 -0.992,-1.096c-3.066,-3.009 -6.166,-5.996 -9.366,-8.867c-3.58,-3.212 -6.875,-7.108 -11.046,-9.221c-7.475,-3.796 -15.329,-7.158 -23.384,-9.429c-7.587,-2.133 -15.625,-2.704 -23.487,-3.812c-2.6,-0.363 -5.167,-0.305 -7.721,-0.113c-0.104,0.071 -0.167,0.163 -0.292,0.221" style="fill:#8c5c33;fill-rule:nonzero;"/><path d="M303.45,58.76c-3.412,-6.629 -5.991,-13.813 -10.195,-19.883c-4.817,-6.959 -11.613,-11.609 -19.58,-14.275c6.055,6.55 10.913,14.125 14.488,22.341c8.675,19.896 10.783,42.479 5.025,63.442c-2.929,10.662 -6.983,21.433 -12.25,31.171c-1.9,3.512 -4.188,6.7 -6.85,9.454c2.237,4.504 4.442,9.129 2.15,14.542c-0.242,0.57 -0.038,1.329 -0.042,2.008c0.609,-0.396 1.334,-0.679 1.796,-1.2c1.613,-1.796 3.308,-3.55 4.65,-5.538c3.904,-5.783 8.204,-11.387 11.304,-17.583c3.342,-6.683 5.417,-13.987 8.196,-20.958c3.954,-9.909 6.288,-20.159 6.958,-30.804c0.709,-11.355 -0.329,-22.388 -5.65,-32.717" style="fill:#8c5c33;fill-rule:nonzero;"/><path d="M248.292,169.177c1.545,-2.767 2.466,-5.192 4.037,-7.062c2.688,-3.18 6.85,-4.934 9.767,-3.313c0.812,0.45 2.054,0.129 3.096,0.163c-0.546,-0.988 -0.867,-2.313 -1.7,-2.863c-0.996,-0.65 -2.438,-0.892 -3.667,-0.854c-3.808,0.117 -7.067,2.062 -9.388,4.708c-2.008,2.292 -3.675,5.384 -2.145,9.221m-112.009,-58.737c2.109,-3.35 4,-7.05 6.575,-10.184c1.521,-1.854 4.2,-2.708 6.213,-4.216c0.662,-0.5 0.854,-1.638 1.262,-2.488c-0.966,-0.108 -2.129,-0.608 -2.862,-0.246c-1.842,0.913 -3.454,2.259 -5.209,3.354c-5.637,3.534 -7.354,9.58 -5.979,13.78m59.638,-21.217c-0.521,0.042 -1.042,-0.046 -1.446,0.137c-0.938,0.43 -1.817,0.984 -2.717,1.488c0.913,0.408 1.796,0.937 2.754,1.2c1.671,0.458 3.546,0.442 5.067,1.183c5.108,2.488 9.092,6.304 12.329,10.988c0.479,0.7 1.879,0.766 2.85,1.116c-0.062,-1.066 0.267,-2.416 -0.258,-3.158c-1.525,-2.112 -3.217,-4.179 -5.163,-5.912c-3.87,-3.446 -7.895,-6.767 -13.416,-7.042m-37.384,38.3c-2.058,1.379 -3.579,2.146 -4.775,3.254c-3.595,3.346 -6.35,3.913 -10.962,1.879c-1.979,-0.871 -3.863,-1.979 -5.879,-2.758c-0.746,-0.288 -1.788,-0.046 -2.609,0.217c-0.191,0.058 -0.27,1.325 -0.004,1.82c1.621,2.996 11.334,5.734 14.65,4.921c4.713,-1.15 7.7,-3.771 9.579,-9.333m41.825,6.667c4.621,0.858 8.221,-1.63 10.68,-6.017c0.395,-0.7 0.029,-1.825 0.016,-2.758c-0.846,0.387 -2.004,0.55 -2.483,1.208c-2.783,3.821 -6.813,5.292 -10.975,4.25c-3.8,-0.95 -8.971,-1.154 -9.379,-7.117c-0.029,-0.483 -1.067,-0.9 -1.634,-1.35c-0.358,0.525 -1.112,1.154 -1.004,1.567c0.492,1.954 0.746,4.246 1.954,5.687c3.088,3.684 7.413,4.9 12.825,4.53m-25.2,0.375c-2.108,-2.005 -4.262,-2.967 -7.233,-1.063c-4.487,2.879 -6.6,9.292 -4.392,14.146c2.463,5.392 9.209,8.967 14.321,7.512c0.509,-0.145 1.25,-0.845 1.217,-1.233c-0.05,-0.533 -0.638,-1.312 -1.15,-1.462c-1.567,-0.45 -3.283,-0.442 -4.804,-0.988c-6.146,-2.208 -9.434,-9.567 -4.417,-14.633c1.392,-1.404 4.1,-1.496 6.458,-2.279m37.263,13.929c-3.583,4.858 -6.033,9.837 -9.946,13.025c-3.967,3.225 -9.196,5.841 -14.196,6.621c-6.708,1.041 -13.737,0.212 -20.612,-0.142c-1.95,-0.104 -3.809,-1.458 -5.771,-2.033c-0.967,-0.284 -2.067,-0.1 -3.113,-0.125c0.684,0.941 1.188,2.137 2.092,2.762c1.2,0.829 2.667,1.4 4.1,1.75c2.663,0.65 1.975,1.996 0.788,3.342c-4.938,5.587 -6.43,12.171 -5.805,19.416c0.146,1.659 0.15,3.338 0.217,5.005c-1.733,-0.221 -3.55,-0.184 -5.187,-0.713c-5.784,-1.858 -12.196,-2.867 -17.084,-6.125c-7.512,-5.008 -14.596,-10.629 -18.596,-19.717c-6.208,-14.141 -5.75,-28.691 -4.937,-43.383c0.379,-6.867 1.254,-13.758 2.554,-20.508c1.463,-7.596 4.579,-14.959 5.283,-22.579c0.663,-7.213 5.834,-8.58 10.396,-11.417c3.792,-2.358 7.417,-5.017 10.929,-7.779c1.413,-1.104 2.338,-2.825 3.734,-4.579c0.521,1.691 1.237,3.3 1.496,4.975c0.854,5.558 4.845,9.095 8.466,12.654c3.304,3.25 7.275,5.862 11.104,8.533c2.738,1.908 5.692,3.529 8.638,5.113c0.7,0.375 1.746,0.1 2.637,0.12c-0.05,-1.112 0.296,-2.466 -0.208,-3.308c-3.25,-5.417 -4.083,-11.421 -4.067,-17.492c0.017,-4.666 0.855,-9.333 1.355,-14.291c4.425,6.496 7.954,12.575 12.4,17.891c3.241,3.875 7.304,7.434 11.691,9.909c8.559,4.825 17.325,9.375 27.175,11.425c1.463,0.3 2.946,3.383 3.334,5.391c0.862,4.484 0.675,9.171 1.566,13.646c2.221,11.146 5.238,22.021 13.959,30.225c0.316,0.296 0.333,1.396 0.037,1.767c-1.058,1.337 -2.4,2.458 -3.437,3.808c-0.338,0.434 -0.071,1.325 -0.084,2.013c0.696,-0.146 1.538,-0.088 2.054,-0.463c2.73,-2.016 5.196,-4.425 8.071,-6.171c7.992,-4.845 15.079,-2.291 18.525,6.413c0.588,1.483 1.35,2.912 1.763,4.437c1.358,5.046 -0.621,8.9 -4.35,12.255c-5.359,4.812 -10.85,9.162 -18.709,8.241c-2.329,-0.275 -4.654,-0.6 -6.987,-0.833c-1.825,-0.179 -2.633,0.337 -1.921,2.433c0.325,0.946 0.229,2.679 -0.387,3.196c-3.334,2.788 -6.842,5.379 -10.38,7.913c-8.258,5.925 -17.85,6.758 -27.57,7.12c-4.813,0.175 -9.625,0.496 -14.438,0.684c-1.475,0.058 -2.242,0.108 -1.425,-2.142c0.904,-2.492 0.9,-5.579 0.413,-8.25c-0.93,-5.137 1.55,-9.225 2.966,-13.767c1.821,-5.825 7.184,-6.387 11.234,-8.758c4.791,-2.812 7.412,-7.329 9.879,-11.733c2.108,-3.771 4.312,-6.796 8.329,-8.488c0.783,-0.329 1.142,-1.65 1.7,-2.516c-0.925,0.1 -1.85,0.179 -2.767,0.312c-3.704,0.525 -7.416,1.004 -11.096,1.642c-1.045,0.183 -2.012,0.85 -3.02,1.296c0.991,0.558 1.929,1.279 2.987,1.625c0.942,0.308 2.013,0.195 4.221,0.354" style="fill:#fed3ad;fill-rule:nonzero;"/><path d="M163.539,147.647c-1.888,-4.141 -0.604,-9.4 2.591,-12.65c-0.854,-0.666 -2.095,-1.083 -3.375,-1.062c-1.662,0.025 -3.316,0.529 -4.77,1.317c-2.35,1.275 -4.634,3.583 -4.688,6.325c-0.058,3.004 1.892,5.945 3.992,7.925c3.558,3.341 8.983,5.475 14.037,5.17c-3.279,-1.233 -6.308,-3.787 -7.787,-7.025" style="fill:#fbb886;fill-rule:nonzero;"/><path d="M160.135,185.99c-6.05,-1.313 -11.642,-4.213 -16.379,-8.413c-13.359,-11.866 -16.129,-29.354 -16.317,-46.404c-0.104,-9.029 0.267,-18.175 1.375,-27.146c0.933,-7.537 2.663,-15.291 7.463,-21.379c0.566,-0.721 1.579,-0.941 2.416,-0.575c3.971,1.721 6.988,4.675 10.284,7.388c2.533,2.091 5.325,3.541 8.229,5.016c3.021,1.534 6.091,3.005 9.287,4.117c1.779,0.621 4.484,1.604 6.65,1.304c-2.362,-4.416 -5.4,-9.008 -6.854,-13.866c-3.167,-2.192 -6.337,-4.417 -9.054,-7.092c-3.621,-3.554 -7.613,-7.092 -8.471,-12.65c-0.258,-1.675 -0.971,-3.283 -1.496,-4.975c-1.391,1.754 -2.321,3.479 -3.729,4.583c-3.517,2.759 -7.137,5.417 -10.929,7.771c-4.563,2.846 -9.733,4.208 -10.4,11.417c-0.704,7.621 -3.817,14.987 -5.279,22.583c-1.304,6.754 -2.175,13.638 -2.554,20.508c-0.813,14.692 -1.271,29.242 4.941,43.38c3.992,9.087 11.075,14.708 18.592,19.72c4.887,3.259 11.3,4.267 17.087,6.125c1.63,0.525 3.45,0.488 5.184,0.713c-0.071,-1.671 -0.075,-3.342 -0.217,-5.004c-0.212,-2.459 -0.158,-4.829 0.171,-7.121" style="fill:#fbb886;fill-rule:nonzero;"/><path d="M347.251,133.077c0,13.763 0.063,27.525 -0.021,41.288c-0.05,7.683 1.659,15.075 3.967,22.27c1.167,3.63 3.496,6.959 5.642,10.184c1.541,2.308 1.625,3.483 -1.375,4.066c-4.196,0.817 -8.367,1.78 -12.554,2.646c-2.034,0.425 -2.963,-0.021 -3.45,-2.491c-1.009,-5.055 -2.684,-9.98 -4.213,-14.917c-0.167,-0.542 -1.496,-1.3 -1.696,-1.158c-0.741,0.537 -1.671,1.379 -1.737,2.175c-0.4,4.679 -0.796,9.383 -0.746,14.079c0.033,3.15 -1.121,4 -4.117,4.041c-12.704,0.188 -24.204,-3.57 -35.379,-9.375c-4.262,-2.216 -2.471,-3.412 -1.287,-6.341c1.987,-4.929 2.8,-10.321 4.195,-15.496c2.617,-9.729 4.913,-19.5 4.53,-29.683c-0.067,-1.763 0.187,-3.563 -0.071,-5.284c-1.079,-7.15 0.937,-13.483 4.304,-19.729c1.833,-3.425 2.946,-7.337 3.817,-11.158c1.833,-8.071 3.558,-16.188 4.841,-24.363c1.138,-7.258 0.571,-14.591 -0.771,-21.812c-0.379,-2.017 -1.395,-3.913 -1.762,-5.929c-0.342,-1.892 -0.792,-4.067 -0.204,-5.78c2.733,-7.933 0.254,-18.083 -6.088,-23.633c-0.558,-0.483 -0.996,-1.112 -1.487,-1.671c0.687,-0.341 1.346,-0.871 2.071,-0.987c8.691,-1.367 17.32,-1.446 25.179,3.158c3.737,2.196 6.629,5.367 8.712,9.433c4.375,8.542 6.988,17.642 8.842,26.925c1.117,5.617 1.454,11.446 1.537,17.188c0.209,14.117 0.067,28.233 0.067,42.354l-0.746,0Z" style="fill:#754c28;fill-rule:nonzero;"/><path d="M209.053,269.622c-3.525,-2.146 -7.038,-4.1 -10.321,-6.379c-1.154,-0.808 -2.204,-2.325 -2.521,-3.696c-1.354,-5.875 -2.2,-11.875 -3.658,-17.721c-1.042,-4.191 -4.25,-7.033 -8.433,-7.362c-5.35,-0.417 -10.784,0.079 -16.171,0.375c-1.296,0.075 -2.546,0.933 -3.821,1.404c-3.004,1.104 -4.454,0.087 -3.646,-3.013c0.863,-3.325 2.417,-6.47 3.621,-9.708c0.758,-2.046 1.546,-4.1 2.079,-6.208c0.142,-0.559 -0.596,-1.338 -0.929,-2.017c-0.65,0.479 -1.563,0.825 -1.892,1.467c-0.941,1.841 -1.746,3.762 -2.416,5.721c-0.684,1.991 -1.142,4.054 -2.55,6.312c-0.638,-2.008 -1.617,-3.992 -1.83,-6.046c-0.225,-2.129 -0.929,-2.779 -3.037,-2.766c-7.604,0.062 -8.038,0.5 -6.388,8.029c0.738,3.387 1.538,6.762 2.492,10.087c0.938,3.242 -0.221,4.792 -3.446,5.442c-6.396,1.296 -6.625,1.608 -6.679,8.033c-0.017,1.813 -0.267,3.204 -2.442,2.592c-1.929,-0.542 -5.27,-0.2 -4.3,-3.638c1.538,-5.437 3.617,-10.725 5.48,-16.07c0.07,-0.2 0.391,-0.346 0.412,-0.538c0.671,-6.662 4.483,-12.033 7.208,-17.867c2.675,-5.716 6.905,-10.137 11.759,-13.779c1.846,-1.387 5.262,-2.462 7.487,0.846c0.604,0.9 1.817,1.417 2.792,2.038c2.025,1.287 3.771,2.533 4.758,5.083c0.859,2.221 2.713,4.742 4.788,5.671c6.254,2.808 12.516,6.979 19.866,4.258c4.484,-1.654 8.884,-3.808 11.138,-8.558c1.433,-3.013 2.758,-6.1 4.458,-8.954c0.821,-1.38 2.263,-3.05 3.654,-3.309c5.034,-0.912 10.188,-1.887 15.259,-1.725c9.883,0.321 15.2,4.967 18.05,14.596c2.958,9.988 2.183,19.983 0.216,30.038c-0.72,3.666 -1.004,7.491 -0.908,11.229c0.092,3.816 -2.029,4.837 -5.017,4.6c-2.016,-0.154 -4.129,-0.888 -5.925,-1.871c-6.97,-3.825 -13.37,-8.988 -22.012,-8.625c-0.563,0.025 -1.746,-1.208 -1.675,-1.742c0.925,-7.287 2.042,-14.55 3.062,-21.825c0.246,-1.729 0.43,-3.491 0.38,-5.233c-0.017,-0.546 -0.863,-1.454 -1.388,-1.5c-0.529,-0.046 -1.571,0.725 -1.633,1.233c-1.188,9.604 -2.35,19.221 -3.229,28.859c-0.088,0.95 1.57,2.779 2.645,2.975c2.696,0.487 2.205,1.716 1.463,3.429c-2.267,5.204 -4.483,10.429 -6.8,15.833" style="fill:#c774b0;fill-rule:nonzero;"/><path d="M177.185,223.547c0.862,-2.205 2.033,-4.271 3.454,-6.125c-1.067,-0.517 -2.134,-1.03 -3.192,-1.509c-2.071,-0.929 -3.929,-3.45 -4.792,-5.666c-0.983,-2.555 -2.729,-3.8 -4.75,-5.088c-0.979,-0.621 -2.191,-1.137 -2.795,-2.037c-2.225,-3.309 -5.642,-2.23 -7.488,-0.846c-4.854,3.641 -9.079,8.062 -11.758,13.783c-2.725,5.833 -6.538,11.2 -7.209,17.867c-0.016,0.187 -0.337,0.329 -0.412,0.537c-1.863,5.342 -3.938,10.629 -5.479,16.067c-0.967,3.437 2.375,3.096 4.3,3.637c2.179,0.613 2.429,-0.779 2.446,-2.591c0.05,-6.425 0.279,-6.738 6.679,-8.029c3.225,-0.655 4.379,-2.205 3.441,-5.446c-0.954,-3.321 -1.75,-6.7 -2.487,-10.084c-1.654,-7.537 -1.221,-7.975 6.383,-8.033c2.109,-0.017 2.813,0.638 3.038,2.771c0.216,2.054 1.191,4.033 1.829,6.042c1.404,-2.255 1.867,-4.321 2.55,-6.309c0.671,-1.962 1.479,-3.887 2.417,-5.725c0.329,-0.646 1.241,-0.983 1.891,-1.466c0.334,0.679 1.071,1.458 0.934,2.012c-0.542,2.113 -1.325,4.167 -2.084,6.213c-1.204,3.237 -2.754,6.379 -3.621,9.704c-0.808,3.104 0.642,4.121 3.646,3.021c1.279,-0.475 2.525,-1.334 3.821,-1.409c2.496,-0.133 5,-0.312 7.504,-0.421c-0.296,-3.683 0.413,-7.495 1.734,-10.87" style="fill:#9c5b8b;fill-rule:nonzero;"/><path d="M204.367,256.03c-3.313,-1.187 -6.859,-2.958 -9.93,-5.275c0.559,2.942 1.105,5.88 1.775,8.792c0.313,1.371 1.363,2.888 2.521,3.692c3.284,2.287 6.796,4.237 10.321,6.383c1.733,-4.046 3.413,-7.979 5.1,-11.892c-3.304,0.1 -6.742,-0.612 -9.787,-1.7" style="fill:#9c5b8b;fill-rule:nonzero;"/><path d="M177.492,236.952c4.417,-0.058 9.254,-0.592 11.433,4.233c1.788,3.946 2.421,8.417 3.555,12.659c0.058,0.221 0.058,0.475 0.033,0.704c-0.825,6.7 2.479,10.637 8.262,13.512c5.209,2.584 9.992,6.009 15.1,8.813c1.159,0.637 2.875,0.246 4.338,0.321c-1.096,-1.046 -2.138,-2.163 -3.313,-3.121c-0.616,-0.504 -1.433,-0.854 -2.212,-1.054c-3.342,-0.854 -3.021,-2.85 -1.858,-5.304c2.266,-4.788 4.533,-9.58 6.604,-14.45c0.75,-1.75 1.212,-2.484 3.25,-1.367c3.641,2 7.475,3.646 11.25,5.396c1.633,0.758 2.287,1.425 1.933,3.683c-1.179,7.558 -3.821,14.633 -7.029,21.417c-1.675,3.533 -4.725,6.525 -7.567,9.341c-0.862,0.859 -3.221,0.73 -4.708,0.338c-6.354,-1.658 -12.638,-3.579 -18.946,-5.429c-2.242,-0.659 -4.992,-2.479 -6.554,-1.742c-1.475,0.692 -1.483,4.163 -2.513,6.221c-2.783,5.579 -6.27,10.392 -13.187,11.333c-8.354,1.138 -16.242,0.275 -23.083,-5.096c-0.888,-0.691 -1.038,-2.32 -1.53,-3.512c1.009,-0.092 2.021,-0.25 3.03,-0.267c2.233,-0.037 4.47,0.096 6.691,-0.05c0.604,-0.041 1.159,-0.812 1.738,-1.25c-0.575,-0.462 -1.104,-1.237 -1.734,-1.325c-1.62,-0.225 -3.291,-0.066 -4.933,-0.204c-4.2,-0.362 -8.35,-4.121 -8.592,-7.775c-0.045,-0.65 0.088,-1.762 0.417,-1.875c0.663,-0.233 1.55,-0.054 2.267,0.188c1.608,0.537 3.129,1.375 4.758,1.77c0.692,0.171 1.575,-0.454 2.367,-0.72c-0.629,-0.713 -1.138,-1.605 -1.904,-2.096c-3.23,-2.096 -6.642,-3.925 -9.784,-6.142c-1.916,-1.354 -2.904,-8.125 -1.55,-9.967c0.3,-0.408 1.925,-0.204 2.717,0.171c1.842,0.884 3.5,2.15 5.342,3.029c0.512,0.246 1.408,-0.308 2.125,-0.495c-0.434,-0.734 -0.73,-1.95 -1.33,-2.125c-3.466,-1 -5.97,-3.025 -7.475,-6.284c-0.9,-1.941 -2.187,-3.833 -2.541,-5.879c-0.838,-4.854 -0.284,-5.383 4.537,-6.108c2.421,-0.367 6.6,-3.654 4.788,3.116c-0.2,0.742 1.437,4.93 5.179,4.43c2.396,-0.321 4.917,0.4 7.371,0.35c4.441,-0.096 7.791,-2.1 9.479,-6.342c0.271,-0.679 -0.158,-1.638 -0.263,-2.475c-0.637,0.308 -1.283,0.6 -1.908,0.929c-0.304,0.163 -0.604,0.367 -0.837,0.617c-4.425,4.7 -5.113,4.533 -7.117,-1.754c-0.183,-0.559 -0.383,-1.113 -0.533,-1.68c-1.088,-4.179 -0.946,-4.6 3.245,-5.341c3.696,-0.65 7.459,-0.909 11.192,-1.342" style="fill:#fed3ad;fill-rule:nonzero;"/><path d="M232.241,284.434c2.196,7.033 4.283,13.754 6.404,20.458c0.887,2.813 0.767,4.538 -2.808,5.633c-5.48,1.675 -10.496,5.063 -16.025,6.305c-8.384,1.879 -17.088,2.27 -25.571,3.779c-11.925,2.121 -23.509,-1.359 -35.275,-1.809c-3.509,-0.133 -6.921,-2.687 -10.396,-4.079c-2.325,-0.929 -1.808,-2.646 -1.246,-4.325c0.908,-2.729 2.071,-5.379 2.817,-8.15c0.458,-1.704 0.975,-1.754 2.375,-0.975c6.912,3.846 14.354,5.484 22.2,4.384c8.854,-1.234 14.229,-6.792 17.275,-14.88c0.771,-2.058 0.904,-3.308 3.808,-1.441c5.342,3.441 11.721,4.379 18.013,5.066c1.716,0.188 3.45,0.492 5.158,0.392c6.571,-0.387 9.292,-5.975 13.271,-10.358" style="fill:#c774b0;fill-rule:nonzero;"/><path d="M139.117,313.82c-3.846,-0.638 -7.067,-1.233 -10.309,-1.688c-1.921,-0.27 -2.712,-1.129 -2.196,-3.075c1.796,-6.704 3.588,-13.404 5.346,-20.112c0.325,-1.242 0.496,-2.517 0.779,-3.771c1.538,-6.808 3.042,-13.621 4.659,-20.408c0.391,-1.659 1.037,-3.279 1.775,-4.817c0.254,-0.546 1.112,-0.8 1.696,-1.187c0.366,0.816 1.237,1.829 1.012,2.42c-2.383,6.209 -3.75,12.138 2.775,16.892c0.454,0.333 0.525,1.442 0.479,2.179c-0.221,3.913 -0.337,7.721 3.317,10.454c0.429,0.317 0.396,1.55 0.246,2.292c-0.909,4.525 -1.821,9.05 -2.925,13.529c-0.492,1.975 -1.05,4.179 -2.317,5.634c-0.975,1.12 -3.1,1.229 -4.337,1.658" style="fill:#fed3ad;fill-rule:nonzero;"/><path d="M172.05,188.132c1.662,-4.37 2.875,-7.733 4.216,-11.037c1.825,-4.513 7.425,-7.129 11.942,-5.504c0.371,0.129 0.696,1.879 0.342,2.362c-3.53,4.763 -3.925,10.159 -3.15,15.7c0.6,4.304 -0.763,7.879 -3.005,11.404c-3.991,6.259 -13.362,3.409 -16.587,-1.258c-5.738,-8.304 -3.013,-16.233 1.162,-23.833c1.096,-2 4.196,-2.934 6.467,-4.196c0.413,-0.229 1.533,0.137 1.833,0.567c0.267,0.391 -0.012,1.316 -0.287,1.891c-1.313,2.779 -2.996,5.425 -3.942,8.313c-0.433,1.337 0.513,3.125 1.009,5.591" style="fill:#f8b6be;fill-rule:nonzero;"/><path d="M271.787,77.166c-0.962,-2.662 -2.271,-5.258 -2.821,-8.008c-1.679,-8.308 -5.591,-15.458 -11.196,-21.613c-3.441,-3.787 -7.908,-6.654 -11.275,-10.495c-6.779,-7.721 -15.775,-11.184 -24.958,-14.846c-8.983,-3.584 -18.137,-5.625 -27.696,-6.321c-0.733,-0.054 -1.416,-0.779 -2.125,-1.188c0.709,-0.245 1.4,-0.666 2.121,-0.708c11.083,-0.617 22,0.529 32.679,3.546c7.434,2.1 14.817,4.571 20.904,9.425c4.171,3.321 7.796,7.396 11.375,11.387c2.959,3.3 5.517,6.959 8.205,10.492c0.625,0.825 1.395,1.721 1.562,2.683c1.5,8.45 2.875,16.925 4.283,25.392c-0.35,0.083 -0.704,0.167 -1.058,0.254" style="fill:#ffe06f;fill-rule:nonzero;"/><path d="M190.558,217.98c-4.467,-1.958 -10.729,-2.15 -14.692,-7.233c-0.529,-0.683 -0.621,-1.704 -0.912,-2.571c0.833,-0.229 1.721,-0.766 2.483,-0.625c2.492,0.467 5.096,0.834 7.375,1.867c6.45,2.917 10.288,1.187 14.85,-3.221c2.3,-2.221 5.158,-3.937 7.963,-5.529c1.25,-0.708 2.512,-0.15 1.891,1.85c-2.496,8.1 -8.283,15.4 -18.958,15.462" style="fill:#ffe06f;fill-rule:nonzero;"/><path d="M151.67,222.6c0.716,0.792 1.775,1.475 2.087,2.405c2.204,6.591 4.263,13.233 6.354,19.866c0.246,0.784 0.471,1.584 0.613,2.392c0.225,1.3 0.366,2.617 0.541,3.925c-2.095,-0.342 -4.608,0.196 -5.512,-2.646c-0.833,-2.629 -1.817,-5.221 -2.521,-7.883c-1.337,-5.05 -2.579,-10.121 -3.725,-15.221c-0.167,-0.758 0.379,-1.679 0.596,-2.525c0.525,-0.104 1.046,-0.208 1.567,-0.313" style="fill:#fff;fill-rule:nonzero;"/><path d="M308.19,53.76c-0.55,1.683 -1.1,3.362 -1.646,5.045c-0.575,-1.533 -0.992,-3.15 -1.75,-4.587c-2.662,-5.042 -5.467,-10.013 -8.162,-15.038c-0.775,-1.437 -1.392,-2.962 -2.075,-4.445c1.404,0.641 2.979,1.058 4.191,1.958c5.646,4.2 9.163,9.608 9.442,17.067" style="fill:#ffe06f;fill-rule:nonzero;"/><path d="M189.138,208.07c-0.429,-0.067 -1.329,0 -2.042,-0.342c-1.516,-0.721 -3.516,-1.325 -4.221,-2.592c-0.57,-1.025 4.121,-3.704 5.925,-3.654c2.821,0.067 5.638,-0.167 8.446,-0.062c0.538,0.02 1.596,1.275 1.479,1.504c-1.387,2.804 -5.975,5.291 -9.587,5.146" style="fill:#fed3ad;fill-rule:nonzero;"/><path d="M175.165,134.567c-2.359,0.775 -5.071,0.871 -6.459,2.275c-5.021,5.071 -1.729,12.429 4.413,14.633c1.525,0.546 3.241,0.538 4.808,0.992c0.508,0.146 1.1,0.929 1.15,1.463c0.033,0.383 -0.708,1.087 -1.217,1.233c-5.116,1.454 -11.862,-2.121 -14.32,-7.517c-2.217,-4.854 -0.1,-11.266 4.391,-14.141c2.967,-1.909 5.121,-0.942 7.234,1.062" style="fill:#231f20;fill-rule:nonzero;"/><path d="M200.365,134.188c-5.413,0.375 -9.742,-0.846 -12.825,-4.525c-1.213,-1.446 -1.467,-3.738 -1.958,-5.692c-0.105,-0.412 0.645,-1.037 1.004,-1.566c0.571,0.45 1.604,0.866 1.637,1.354c0.404,5.958 5.571,6.166 9.371,7.112c4.171,1.042 8.2,-0.429 10.983,-4.25c0.475,-0.658 1.634,-0.816 2.48,-1.208c0.016,0.933 0.383,2.058 -0.013,2.762c-2.462,4.388 -6.058,6.871 -10.679,6.013" style="fill:#231f20;fill-rule:nonzero;"/><path d="M158.54,127.52c-1.883,5.562 -4.871,8.183 -9.579,9.333c-3.321,0.813 -13.034,-1.921 -14.65,-4.916c-0.267,-0.492 -0.188,-1.763 0.004,-1.825c0.821,-0.263 1.858,-0.5 2.608,-0.213c2.017,0.775 3.9,1.883 5.879,2.754c4.613,2.038 7.363,1.467 10.959,-1.875c1.196,-1.108 2.721,-1.879 4.779,-3.258" style="fill:#231f20;fill-rule:nonzero;"/><path d="M195.922,89.22c5.521,0.275 9.542,3.6 13.417,7.046c1.941,1.729 3.637,3.796 5.158,5.916c0.529,0.734 0.2,2.088 0.263,3.159c-0.971,-0.359 -2.371,-0.425 -2.855,-1.117c-3.233,-4.683 -7.216,-8.504 -12.329,-10.996c-1.516,-0.737 -3.391,-0.716 -5.062,-1.183c-0.959,-0.258 -1.842,-0.788 -2.754,-1.2c0.9,-0.504 1.779,-1.058 2.716,-1.483c0.404,-0.184 0.925,-0.1 1.446,-0.142" style="fill:#231f20;fill-rule:nonzero;"/><path d="M136.287,110.438c-1.375,-4.2 0.341,-10.246 5.979,-13.779c1.75,-1.096 3.366,-2.438 5.204,-3.35c0.733,-0.367 1.896,0.137 2.862,0.246c-0.408,0.845 -0.595,1.987 -1.266,2.487c-2.004,1.508 -4.688,2.363 -6.209,4.213c-2.575,3.133 -4.462,6.833 -6.57,10.183" style="fill:#231f20;fill-rule:nonzero;"/><path d="M248.292,169.177c-1.53,-3.837 0.137,-6.929 2.145,-9.221c2.321,-2.646 5.58,-4.591 9.388,-4.708c1.229,-0.038 2.671,0.204 3.667,0.854c0.833,0.55 1.154,1.875 1.7,2.863c-1.042,-0.034 -2.284,0.287 -3.096,-0.163c-2.917,-1.621 -7.079,0.133 -9.767,3.313c-1.571,1.87 -2.492,4.295 -4.037,7.062" style="fill:#231f20;fill-rule:nonzero;"/><g opacity="0.63"><path d="M178.124,183.168c0,23.354 -18.934,42.287 -42.288,42.287c-23.354,0 -42.291,-18.933 -42.291,-42.287c0,-23.358 18.937,-42.288 42.291,-42.288c23.354,0 42.288,18.93 42.288,42.288" style="fill:#b0d235;fill-rule:nonzero;"/></g><path d="M178.124,183.168c0,-23.339 -18.95,-42.288 -42.29,-42.288c-23.34,0 -42.289,18.949 -42.289,42.288c0,23.339 18.949,42.287 42.289,42.287c23.34,0 42.29,-18.948 42.29,-42.287Z" style="fill:none;stroke:#4eb848;stroke-width:4.4px;"/><path d="M150.945,163.005c3.221,1.883 5.734,4.945 6.95,8.47c0.313,0.9 0.546,1.842 1.075,2.63c0.53,0.787 1.442,1.412 2.38,1.27c1.208,-0.187 1.895,-1.487 2.183,-2.675c1.237,-5.15 -1.413,-10.366 -4.213,-14.858c-2.691,-4.325 -9.65,-13.229 -15.65,-8.675c-7.937,6.033 3.096,11.4 7.275,13.838" style="fill:#fff;fill-rule:nonzero;"/><path d="M162.592,179.963c-2.892,0.5 -5.237,3.221 -5.304,6.158c-0.067,2.934 2.158,5.754 5.025,6.384c0.875,0.191 1.821,0.191 2.642,-0.171c1.287,-0.571 2.066,-1.942 2.383,-3.321c0.462,-1.992 0.108,-4.213 -1.142,-5.829c-1.25,-1.621 -3.429,-2.542 -5.425,-2.104" style="fill:#fff;fill-rule:nonzero;"/><g opacity="0.78"><path d="M109.371,208.729c-6.712,-7.058 -9.746,-16.979 -10.262,-26.704c-0.125,-2.346 -0.113,-4.725 0.512,-6.992c0.538,-1.929 1.504,-3.712 2.492,-5.454c1.971,-3.475 4.092,-6.929 6.987,-9.683c2.888,-2.754 6.663,-4.779 10.655,-4.834c-6.909,7.584 -10.492,18.1 -9.642,28.325c0.85,10.225 6.112,20.005 14.179,26.35c1.508,1.184 8.138,3.596 8.492,4.988c0.791,3.133 -4.896,2.521 -6.45,2.379c-6.396,-0.583 -12.55,-3.737 -16.963,-8.375" style="fill:#4eb848;fill-rule:nonzero;"/></g><g opacity="0.5"><path d="M154.175,185.914c0,10.554 -8.558,19.113 -19.112,19.113c-10.55,0 -19.108,-8.559 -19.108,-19.113c0,-10.554 8.558,-19.112 19.108,-19.112c10.554,0 19.112,8.558 19.112,19.112" style="fill:#4eb848;fill-rule:nonzero;"/></g><path d="M137.54,174.432c2.43,1.005 4.892,2.192 6.546,4.234c2.329,2.879 2.588,6.854 2.742,10.554c0.137,3.133 0.071,6.742 -2.346,8.737c2.283,-1.887 -2.642,-12.4 -3.742,-14.287c-2.625,-4.488 -7.545,-6.767 -10.175,-10.7c2.313,-0.429 4.821,0.571 6.975,1.462" style="fill:#fff;fill-rule:nonzero;"/></g></svg>