<?xml version="1.0" encoding="UTF-8" standalone="no"?><!DOCTYPE svg PUBLIC "-//W3C//DTD SVG 1.1//EN" "http://www.w3.org/Graphics/SVG/1.1/DTD/svg11.dtd"><svg width="100%" height="100%" viewBox="0 0 822 335" version="1.1" xmlns="http://www.w3.org/2000/svg" xmlns:xlink="http://www.w3.org/1999/xlink" xml:space="preserve" xmlns:serif="http://www.serif.com/" style="fill-rule:evenodd;clip-rule:evenodd;stroke-miterlimit:10;"><g><g opacity="0.7"><path d="M20.842,21.277l0,60.233l24.391,51.917l-23.183,32.479l23.183,31.992l-24.391,55.395l0,60.288l779.612,0l0,-292.304l-779.612,0Z" style="fill:#c8badb;fill-rule:nonzero;stroke:#a368ab;stroke-width:4.12px;"/></g><g><path d="M110.201,76.312c0.271,7.638 5.85,11.863 12.567,11.863c7.475,0 12.404,-5.2 12.404,-11.755c0,-7.366 -5.958,-9.479 -9.75,-10.941c-6.067,-2.059 -10.021,-3.25 -9.967,-8.125c0,-4.171 3.305,-6.879 7.313,-6.879c5.308,0 6.608,3.954 7.096,6.554l4.441,0c-0.65,-7.584 -6.391,-10.346 -11.375,-10.346c-6.12,0 -12.025,3.954 -11.916,11.05c0,7.583 6.987,9.642 10.237,10.617c4.659,1.516 9.479,2.762 9.479,8.395c0,4.442 -3.845,7.638 -8.016,7.638c-2.492,0 -7.367,-1.408 -8.017,-8.071l-4.496,0Z" style="fill:#231f20;fill-rule:nonzero;"/><path d="M141.076,52.966l4.008,0l0,-5.579l-4.008,0l0,5.579Zm0,34.504l4.008,0l0,-29.141l-4.008,0l0,29.141Z" style="fill:#231f20;fill-rule:nonzero;"/><path d="M152.884,87.47l3.954,0l0,-15.87c0,-6.609 3.142,-10.13 8.775,-10.13l0.379,0l0,-3.954c-3.412,0.109 -7.204,1.246 -9.316,5.579l0,-4.766l-3.792,0l0,29.141Z" style="fill:#231f20;fill-rule:nonzero;"/><path d="M194.917,58.329l-4.225,0l-9.317,24.212l-9.37,-24.212l-4.225,0l11.483,29.141l4.171,0l11.483,-29.141Z" style="fill:#231f20;fill-rule:nonzero;"/><path d="M226.279,74.037c0.434,-4.658 -1.191,-9.154 -4.55,-12.404c-2.762,-2.654 -6.554,-4.117 -10.67,-4.117c-8.721,0 -15.33,6.879 -15.33,15.438c0,7.258 5.255,15.329 15.384,15.329c2.979,0 5.85,-0.813 8.287,-2.383c2.492,-1.571 4.55,-3.955 5.904,-7.096l-4.17,0c-1.896,3.791 -5.525,6.012 -10.021,6.012c-4.929,0.054 -11.159,-3.466 -11.375,-10.779l26.541,0Zm-26.487,-3.196c0.379,-5.308 5.037,-9.912 11.321,-9.912c6.012,-0.163 10.941,4.821 11.212,9.912l-22.533,0Z" style="fill:#231f20;fill-rule:nonzero;"/><path d="M247.567,98.52l4.008,0l0,-17.008c1.354,3.033 5.525,6.771 11.971,6.771c9.046,0 14.95,-7.15 14.95,-15.275c0,-7.529 -5.146,-15.492 -14.95,-15.492c-5.579,0 -9.804,2.654 -12.188,6.879l0,-6.066l-3.791,0l0,40.191Zm26.92,-25.62c0,6.662 -5.037,11.645 -11.591,11.645c-3.25,0 -6.175,-1.245 -8.234,-3.304c-2.112,-2.112 -3.358,-5.037 -3.358,-8.287c0,-3.304 1.246,-6.229 3.25,-8.342c2.113,-2.112 4.983,-3.412 8.233,-3.412c7.855,0 11.7,6.175 11.7,11.645l0,0.055Z" style="fill:#231f20;fill-rule:nonzero;"/><path d="M313.866,58.329l-4.008,0l0,6.121c-1.408,-3.305 -5.688,-6.934 -11.917,-6.934c-8.883,0 -15.112,6.825 -15.112,15.384c0,8.016 5.633,15.383 15.112,15.383c5.2,0 9.642,-2.438 11.917,-6.825l0,6.012l4.008,0l0,-29.141Zm-27.083,14.571c0,-6.5 4.875,-11.7 11.592,-11.7c5.145,0 9.045,2.979 10.67,6.987c0.65,1.408 0.975,3.033 0.921,4.658c0,1.571 -0.325,3.196 -0.975,4.605c-1.571,4.116 -5.362,7.095 -10.508,7.095c-8.017,0 -11.646,-6.337 -11.7,-11.591l0,-0.054Z" style="fill:#231f20;fill-rule:nonzero;"/><path d="M321.666,87.47l3.954,0l0,-15.87c0,-6.609 3.142,-10.13 8.775,-10.13l0.379,0l0,-3.954c-3.412,0.109 -7.204,1.246 -9.316,5.579l0,-4.766l-3.792,0l0,29.141Z" style="fill:#231f20;fill-rule:nonzero;"/><path d="M366.082,58.329l-4.008,0l0,6.121c-1.408,-3.305 -5.687,-6.934 -11.917,-6.934c-8.883,0 -15.112,6.825 -15.112,15.384c0,8.016 5.633,15.383 15.112,15.383c5.2,0 9.642,-2.438 11.917,-6.825l0,6.012l4.008,0l0,-29.141Zm-27.083,14.571c0,-6.5 4.875,-11.7 11.592,-11.7c5.146,0 9.046,2.979 10.671,6.987c0.65,1.408 0.975,3.033 0.92,4.658c0,1.571 -0.325,3.196 -0.975,4.605c-1.57,4.116 -5.362,7.095 -10.508,7.095c-8.017,0 -11.646,-6.337 -11.7,-11.591l0,-0.054Z" style="fill:#231f20;fill-rule:nonzero;"/><path d="M418.624,47.387l-4.008,0l0,16.846c-1.3,-3.033 -5.525,-6.717 -11.917,-6.717c-8.721,0 -15.004,6.663 -15.004,15.329c0,8.18 5.741,15.438 15.058,15.438c6.067,0 9.967,-2.979 12.025,-6.825l0,6.012l3.846,0l0,-40.083Zm-26.975,25.458c0,-6.554 4.929,-11.645 11.646,-11.645c3.25,0 6.175,1.245 8.233,3.358c2.113,2.058 3.358,4.875 3.358,8.179c0.109,3.25 -1.137,6.229 -3.25,8.396c-2.058,2.112 -5.037,3.412 -8.287,3.412c-7.583,0 -11.646,-5.795 -11.7,-11.645l0,-0.055Z" style="fill:#231f20;fill-rule:nonzero;"/><path d="M426.532,52.966l4.008,0l0,-5.579l-4.008,0l0,5.579Zm0,34.504l4.008,0l0,-29.141l-4.008,0l0,29.141Z" style="fill:#231f20;fill-rule:nonzero;"/><path d="M455.402,65.641c-0.27,-5.904 -4.82,-8.125 -8.883,-8.125c-4.929,0 -9.1,3.088 -9.1,8.342c0.108,4.604 3.358,6.283 7.529,7.529c5.038,1.463 7.204,2.817 7.313,6.121c0.054,2.979 -2.275,5.471 -5.634,5.471c-2.925,0 -5.904,-1.788 -6.066,-5.796l-3.954,0c0.054,6.121 5.254,9.1 9.966,9.1c5.525,0 9.859,-3.9 9.642,-9.263c-0.217,-6.229 -4.875,-7.42 -9.046,-8.558c-3.521,-1.029 -5.633,-2.167 -5.742,-4.929c-0.108,-2.546 1.842,-4.713 5.038,-4.713c2.925,0 4.983,1.734 4.983,4.821l3.954,0Z" style="fill:#231f20;fill-rule:nonzero;"/><path d="M464.99,87.47l3.954,0l0,-25.945l6.392,0l0,-3.196l-6.392,0l0,-10.942l-3.954,0l0,10.942l-5.742,0l0,3.196l5.742,0l0,25.945Z" style="fill:#231f20;fill-rule:nonzero;"/><path d="M479.723,52.966l4.008,0l0,-5.579l-4.008,0l0,5.579Zm0,34.504l4.008,0l0,-29.141l-4.008,0l0,29.141Z" style="fill:#231f20;fill-rule:nonzero;"/><path d="M491.531,87.47l4.008,0l0,-16.466c0,-6.067 3.467,-9.696 9.479,-9.75c6.554,-0.109 9.371,4.171 9.371,10.454l0,15.762l3.954,0l0,-16.575c0,-7.095 -3.196,-13.27 -12.241,-13.379c-5.2,-0.108 -9.155,2.221 -10.834,6.013c0.054,-1.95 0.054,-3.575 0.054,-5.2l-3.791,0l0,29.141Z" style="fill:#231f20;fill-rule:nonzero;"/><path d="M555.231,58.329l-3.955,0l0,6.012c-1.625,-3.575 -6.066,-6.825 -11.808,-6.825c-8.883,0 -15.221,6.717 -15.221,15.438c0,8.396 6.121,15.329 15.221,15.329c5.633,0 9.696,-2.871 11.754,-6.988l0,3.738c0,7.258 -5.687,11.592 -11.266,11.592c-1.842,0 -4.334,-0.596 -6.446,-2.113c-1.734,-1.192 -2.763,-2.6 -3.467,-3.846l-4.604,0c1.842,5.254 7.15,9.425 14.408,9.425c3.954,0 8.179,-1.679 11.05,-4.496c2.546,-2.437 4.334,-5.958 4.334,-11.483l0,-25.783Zm-26.975,14.516c0,-6.825 5.2,-11.591 11.591,-11.591c4.171,0 7.096,1.733 8.884,4.062c1.841,2.329 2.654,5.2 2.654,7.638c-0.054,3.196 -1.246,6.121 -3.25,8.233c-2.059,2.113 -4.875,3.358 -8.179,3.358c-7.53,0 -11.7,-5.741 -11.7,-11.645l0,-0.055Z" style="fill:#231f20;fill-rule:nonzero;"/><path d="M589.789,58.329l-4.009,0l0,16.466c0,6.067 -3.466,9.696 -9.533,9.75c-6.554,0.055 -9.371,-4.17 -9.371,-10.454l0,-15.762l-3.954,0l0,16.521c0,7.095 3.196,13.27 12.296,13.433c5.2,0.054 9.154,-2.221 10.779,-6.013l0,5.2l3.792,0l0,-29.141Z" style="fill:#231f20;fill-rule:nonzero;"/><path d="M597.588,52.966l4.009,0l0,-5.579l-4.009,0l0,5.579Zm0,34.504l4.009,0l0,-29.141l-4.009,0l0,29.141Z" style="fill:#231f20;fill-rule:nonzero;"/><path d="M609.396,87.47l3.955,0l0,-15.87c0,-6.609 3.141,-10.13 8.775,-10.13l0.379,0l0,-3.954c-3.413,0.109 -7.204,1.246 -9.317,5.579l0,-4.766l-3.792,0l0,29.141Z" style="fill:#231f20;fill-rule:nonzero;"/><path d="M670.767,74.037c0.433,-4.658 -1.192,-9.154 -4.55,-12.404c-2.763,-2.654 -6.554,-4.117 -10.671,-4.117c-8.721,0 -15.329,6.879 -15.329,15.438c0,7.258 5.254,15.329 15.383,15.329c2.979,0 5.85,-0.813 8.288,-2.383c2.491,-1.571 4.55,-3.955 5.904,-7.096l-4.171,0c-1.896,3.791 -5.525,6.012 -10.021,6.012c-4.929,0.054 -11.158,-3.466 -11.375,-10.779l26.542,0Zm-26.488,-3.196c0.38,-5.308 5.038,-9.912 11.321,-9.912c6.013,-0.163 10.942,4.821 11.213,9.912l-22.534,0Z" style="fill:#231f20;fill-rule:nonzero;"/><rect x="676.454" y="47.387" width="4.008" height="40.083" style="fill:#231f20;fill-rule:nonzero;"/></g><g><path d="M129.105,132.32c-0.27,-5.904 -4.82,-8.125 -8.883,-8.125c-4.929,0 -9.1,3.088 -9.1,8.342c0.108,4.604 3.358,6.283 7.529,7.529c5.038,1.463 7.204,2.817 7.313,6.121c0.054,2.979 -2.275,5.471 -5.634,5.471c-2.925,0 -5.904,-1.788 -6.066,-5.796l-3.954,0c0.054,6.121 5.254,9.1 9.966,9.1c5.525,0 9.859,-3.9 9.642,-9.262c-0.217,-6.23 -4.875,-7.421 -9.046,-8.559c-3.521,-1.029 -5.633,-2.166 -5.742,-4.929c-0.108,-2.546 1.842,-4.712 5.038,-4.712c2.925,0 4.983,1.733 4.983,4.82l3.954,0Z" style="fill:#231f20;fill-rule:nonzero;"/><path d="M165.668,125.008l-4.009,0l0,6.121c-1.408,-3.304 -5.687,-6.934 -11.916,-6.934c-8.884,0 -15.113,6.825 -15.113,15.384c0,8.016 5.634,15.383 15.113,15.383c5.2,0 9.641,-2.437 11.916,-6.825l0,6.013l4.009,0l0,-29.142Zm-27.084,14.571c0,-6.5 4.875,-11.7 11.592,-11.7c5.146,0 9.046,2.979 10.671,6.987c0.65,1.409 0.975,3.034 0.921,4.659c0,1.57 -0.325,3.195 -0.975,4.604c-1.571,4.116 -5.363,7.096 -10.509,7.096c-8.016,0 -11.645,-6.338 -11.7,-11.592l0,-0.054Z" style="fill:#231f20;fill-rule:nonzero;"/><path d="M173.467,154.15l3.846,0l0,-6.013c2.167,4.171 6.446,6.825 11.917,6.825c8.829,0 15.112,-6.662 15.112,-15.437c0,-9.1 -6.716,-15.33 -15.004,-15.33c-5.037,0.055 -9.425,2.546 -11.862,6.663l0,-16.792l-4.009,0l0,40.084Zm26.867,-14.571c0,5.633 -3.954,11.646 -11.7,11.646c-6.771,0 -11.375,-5.363 -11.375,-11.7c0,-6.446 4.821,-11.646 11.538,-11.646c6.5,0 11.537,4.983 11.537,11.646l0,0.054Z" style="fill:#231f20;fill-rule:nonzero;"/><path d="M208.513,139.579c0,8.179 6.067,15.329 15.437,15.329c9.425,0 15.492,-7.15 15.492,-15.329c0,-8.179 -6.067,-15.384 -15.492,-15.384c-9.37,0 -15.437,7.205 -15.437,15.33l0,0.054Zm3.954,0c0,-6.663 5.038,-11.646 11.483,-11.646c6.5,0 11.484,4.983 11.484,11.646c0,6.662 -4.984,11.646 -11.484,11.646c-6.445,0 -11.483,-4.984 -11.483,-11.592l0,-0.054Z" style="fill:#231f20;fill-rule:nonzero;"/><path d="M245.454,154.15l3.954,0l0,-15.871c0,-6.609 3.142,-10.129 8.775,-10.129l0.38,0l0,-3.955c-3.413,0.109 -7.205,1.246 -9.317,5.58l0,-4.767l-3.792,0l0,29.142Z" style="fill:#231f20;fill-rule:nonzero;"/><path d="M307.637,114.066l-4.008,0l0,16.846c-1.3,-3.033 -5.525,-6.717 -11.917,-6.717c-8.721,0 -15.004,6.663 -15.004,15.33c0,8.179 5.742,15.437 15.058,15.437c6.067,0 9.967,-2.979 12.025,-6.825l0,6.013l3.846,0l0,-40.084Zm-26.975,25.459c0,-6.555 4.929,-11.646 11.646,-11.646c3.25,0 6.175,1.246 8.233,3.358c2.113,2.058 3.359,4.875 3.359,8.179c0.108,3.25 -1.138,6.229 -3.25,8.396c-2.059,2.113 -5.038,3.413 -8.288,3.413c-7.583,0 -11.646,-5.796 -11.7,-11.646l0,-0.054Z" style="fill:#231f20;fill-rule:nonzero;"/><path d="M343.874,140.716c0.434,-4.658 -1.191,-9.154 -4.55,-12.404c-2.762,-2.654 -6.554,-4.117 -10.671,-4.117c-8.72,0 -15.329,6.88 -15.329,15.438c0,7.258 5.254,15.329 15.384,15.329c2.979,0 5.85,-0.812 8.287,-2.383c2.492,-1.571 4.55,-3.954 5.904,-7.096l-4.171,0c-1.895,3.792 -5.525,6.012 -10.02,6.012c-4.93,0.055 -11.159,-3.466 -11.375,-10.779l26.541,0Zm-26.487,-3.196c0.379,-5.308 5.037,-9.912 11.321,-9.912c6.012,-0.163 10.941,4.821 11.212,9.912l-22.533,0Z" style="fill:#231f20;fill-rule:nonzero;"/><rect x="365.161" y="114.066" width="4.008" height="40.083" style="fill:#231f20;fill-rule:nonzero;"/><path d="M375.128,139.579c0,8.179 6.066,15.329 15.437,15.329c9.425,0 15.492,-7.15 15.492,-15.329c0,-8.179 -6.067,-15.384 -15.492,-15.384c-9.371,0 -15.437,7.205 -15.437,15.33l0,0.054Zm3.954,0c0,-6.663 5.037,-11.646 11.483,-11.646c6.5,0 11.483,4.983 11.483,11.646c0,6.662 -4.983,11.646 -11.483,11.646c-6.446,0 -11.483,-4.984 -11.483,-11.592l0,-0.054Z" style="fill:#231f20;fill-rule:nonzero;"/><path d="M429.131,132.32c-0.27,-5.904 -4.82,-8.125 -8.883,-8.125c-4.929,0 -9.1,3.088 -9.1,8.342c0.108,4.604 3.358,6.283 7.529,7.529c5.038,1.463 7.204,2.817 7.313,6.121c0.054,2.979 -2.275,5.471 -5.634,5.471c-2.925,0 -5.904,-1.788 -6.066,-5.796l-3.954,0c0.054,6.121 5.254,9.1 9.966,9.1c5.525,0 9.859,-3.9 9.642,-9.262c-0.217,-6.23 -4.875,-7.421 -9.046,-8.559c-3.521,-1.029 -5.633,-2.166 -5.742,-4.929c-0.108,-2.546 1.842,-4.712 5.038,-4.712c2.925,0 4.983,1.733 4.983,4.82l3.954,0Z" style="fill:#231f20;fill-rule:nonzero;"/><path d="M479.13,125.008l-4.008,0l0,6.121c-1.408,-3.304 -5.687,-6.934 -11.917,-6.934c-8.883,0 -15.112,6.825 -15.112,15.384c0,8.016 5.633,15.383 15.112,15.383c5.2,0 9.642,-2.437 11.917,-6.825l0,6.013l4.008,0l0,-29.142Zm-27.083,14.571c0,-6.5 4.875,-11.7 11.592,-11.7c5.146,0 9.046,2.979 10.671,6.987c0.65,1.409 0.975,3.034 0.92,4.659c0,1.57 -0.325,3.195 -0.975,4.604c-1.57,4.116 -5.362,7.096 -10.508,7.096c-8.017,0 -11.646,-6.338 -11.7,-11.592l0,-0.054Z" style="fill:#231f20;fill-rule:nonzero;"/><rect x="486.93" y="114.066" width="4.008" height="40.083" style="fill:#231f20;fill-rule:nonzero;"/><path d="M498.684,119.645l4.008,0l0,-5.579l-4.008,0l0,5.579Zm0,34.505l4.008,0l0,-29.142l-4.008,0l0,29.142Z" style="fill:#231f20;fill-rule:nonzero;"/><path d="M510.492,154.15l4.008,0l0,-16.25c0,-3.088 0.705,-5.309 1.95,-6.988c1.192,-1.733 3.467,-3.087 6.175,-2.979c2.98,0.054 5.038,1.192 6.392,3.087c1.138,1.788 1.625,3.684 1.517,6.934l0,16.196l4.008,0l0,-16.196c0,-3.304 0.271,-4.929 1.733,-6.988c1.355,-2.004 3.846,-3.033 6.392,-3.033c2.763,0 4.604,0.921 5.796,2.437c1.679,1.896 2.167,4.659 2.167,7.746l0,16.034l4.008,0l0,-16.196c0,-5.146 -0.758,-8.288 -3.304,-10.834c-2.004,-2.058 -4.875,-2.925 -7.854,-2.925c-3.25,0 -6.121,1.246 -8.017,3.25c-1.083,1.138 -1.679,2.275 -2.113,3.088c-0.162,-0.325 -1.137,-2.275 -1.895,-3.033c-2.059,-2.33 -4.93,-3.305 -7.963,-3.305c-3.304,0 -7.367,1.734 -9.208,5.417l0,-4.604l-3.792,0l0,29.142Z" style="fill:#231f20;fill-rule:nonzero;"/><path d="M590.604,140.716c0.434,-4.658 -1.191,-9.154 -4.55,-12.404c-2.762,-2.654 -6.554,-4.117 -10.671,-4.117c-8.72,0 -15.329,6.88 -15.329,15.438c0,7.258 5.254,15.329 15.384,15.329c2.979,0 5.85,-0.812 8.287,-2.383c2.492,-1.571 4.55,-3.954 5.904,-7.096l-4.171,0c-1.895,3.792 -5.525,6.012 -10.02,6.012c-4.93,0.055 -11.159,-3.466 -11.375,-10.779l26.541,0Zm-26.487,-3.196c0.379,-5.308 5.037,-9.912 11.321,-9.912c6.012,-0.163 10.941,4.821 11.212,9.912l-22.533,0Z" style="fill:#231f20;fill-rule:nonzero;"/><path d="M596.292,154.15l4.008,0l0,-16.467c0,-6.067 3.467,-9.696 9.479,-9.75c6.554,-0.108 9.371,4.171 9.371,10.454l0,15.763l3.954,0l0,-16.575c0,-7.096 -3.196,-13.271 -12.242,-13.38c-5.2,-0.108 -9.154,2.221 -10.833,6.013c0.054,-1.95 0.054,-3.575 0.054,-5.2l-3.791,0l0,29.142Z" style="fill:#231f20;fill-rule:nonzero;"/><path d="M633.125,154.15l3.954,0l0,-25.946l6.391,0l0,-3.196l-6.391,0l0,-10.942l-3.954,0l0,10.942l-5.742,0l0,3.196l5.742,0l0,25.946Z" style="fill:#231f20;fill-rule:nonzero;"/><path d="M644.445,139.579c0,8.179 6.067,15.329 15.438,15.329c9.425,0 15.491,-7.15 15.491,-15.329c0,-8.179 -6.066,-15.384 -15.491,-15.384c-9.371,0 -15.438,7.205 -15.438,15.33l0,0.054Zm3.954,0c0,-6.663 5.038,-11.646 11.484,-11.646c6.5,0 11.483,4.983 11.483,11.646c0,6.662 -4.983,11.646 -11.483,11.646c-6.446,0 -11.484,-4.984 -11.484,-11.592l0,-0.054Z" style="fill:#231f20;fill-rule:nonzero;"/><path d="M698.449,132.32c-0.271,-5.904 -4.821,-8.125 -8.883,-8.125c-4.929,0 -9.1,3.088 -9.1,8.342c0.108,4.604 3.358,6.283 7.529,7.529c5.037,1.463 7.204,2.817 7.312,6.121c0.055,2.979 -2.275,5.471 -5.633,5.471c-2.925,0 -5.904,-1.788 -6.067,-5.796l-3.954,0c0.054,6.121 5.254,9.1 9.967,9.1c5.525,0 9.858,-3.9 9.642,-9.262c-0.217,-6.23 -4.875,-7.421 -9.046,-8.559c-3.521,-1.029 -5.634,-2.166 -5.742,-4.929c-0.108,-2.546 1.842,-4.712 5.038,-4.712c2.925,0 4.983,1.733 4.983,4.82l3.954,0Z" style="fill:#231f20;fill-rule:nonzero;"/><path d="M711.828,125.008l-4.225,0l0,5.958l4.225,0l0,-5.958Zm0,23.183l-4.225,0l0,5.959l4.225,0l0,-5.959Z" style="fill:#231f20;fill-rule:nonzero;"/></g><g><path d="M141.185,180.745l-4.009,0l0,16.846c-1.3,-3.033 -5.525,-6.716 -11.916,-6.716c-8.721,0 -15.005,6.662 -15.005,15.329c0,8.179 5.742,15.437 15.059,15.437c6.066,0 9.966,-2.979 12.025,-6.825l0,6.013l3.846,0l0,-40.084Zm-26.975,25.459c0,-6.554 4.929,-11.646 11.645,-11.646c3.25,0 6.175,1.246 8.234,3.358c2.112,2.059 3.358,4.875 3.358,8.179c0.108,3.25 -1.137,6.23 -3.25,8.396c-2.058,2.113 -5.037,3.413 -8.287,3.413c-7.584,0 -11.646,-5.796 -11.7,-11.646l0,-0.054Z" style="fill:#231f20;fill-rule:nonzero;"/><path d="M175.905,191.687l-4.008,0l0,16.467c0,6.066 -3.467,9.696 -9.533,9.75c-6.555,0.054 -9.371,-4.171 -9.371,-10.454l0,-15.763l-3.954,0l0,16.521c0,7.096 3.195,13.271 12.295,13.433c5.2,0.054 9.155,-2.221 10.78,-6.012l0,5.2l3.791,0l0,-29.142Z" style="fill:#231f20;fill-rule:nonzero;"/><rect x="183.705" y="180.745" width="4.008" height="40.083" style="fill:#231f20;fill-rule:nonzero;"/><path d="M219.671,210.97c-1.246,3.521 -4.983,6.88 -10.562,6.934c-6.284,0 -11.484,-4.767 -11.484,-11.646c0,-3.358 1.355,-6.5 3.305,-8.396c2.437,-2.275 4.82,-3.304 8.233,-3.304c4.117,0 8.721,2.275 10.562,7.204l4.117,0c-2.004,-6.987 -8.287,-10.887 -14.842,-10.887c-8.829,0 -15.383,6.77 -15.383,15.383c0,7.8 5.796,15.383 15.654,15.383c6.988,0 12.675,-4.496 14.571,-10.671l-4.171,0Z" style="fill:#231f20;fill-rule:nonzero;"/><path d="M257.913,207.395c0.433,-4.658 -1.192,-9.154 -4.55,-12.404c-2.763,-2.654 -6.554,-4.116 -10.671,-4.116c-8.721,0 -15.329,6.879 -15.329,15.437c0,7.258 5.254,15.329 15.383,15.329c2.979,0 5.85,-0.812 8.288,-2.383c2.491,-1.571 4.55,-3.954 5.904,-7.096l-4.171,0c-1.896,3.792 -5.525,6.013 -10.021,6.013c-4.929,0.054 -11.158,-3.467 -11.375,-10.78l26.542,0Zm-26.488,-3.195c0.379,-5.309 5.038,-9.913 11.321,-9.913c6.013,-0.162 10.942,4.821 11.213,9.913l-22.534,0Z" style="fill:#231f20;fill-rule:nonzero;"/><path d="M280.662,199c-0.27,-5.905 -4.82,-8.125 -8.883,-8.125c-4.929,0 -9.1,3.087 -9.1,8.341c0.108,4.604 3.358,6.284 7.529,7.529c5.038,1.463 7.204,2.817 7.313,6.121c0.054,2.979 -2.275,5.471 -5.634,5.471c-2.925,0 -5.904,-1.787 -6.066,-5.796l-3.954,0c0.054,6.121 5.254,9.1 9.966,9.1c5.525,0 9.859,-3.9 9.642,-9.262c-0.217,-6.229 -4.875,-7.421 -9.046,-8.559c-3.521,-1.029 -5.633,-2.166 -5.742,-4.929c-0.108,-2.546 1.842,-4.712 5.038,-4.712c2.925,0 4.983,1.733 4.983,4.821l3.954,0Z" style="fill:#231f20;fill-rule:nonzero;"/><path d="M293.445,214.816l-4.279,0l-3.412,10.075l3.629,0l4.062,-10.075Z" style="fill:#231f20;fill-rule:nonzero;"/><path d="M329.304,199c-0.271,-5.905 -4.821,-8.125 -8.884,-8.125c-4.929,0 -9.1,3.087 -9.1,8.341c0.109,4.604 3.359,6.284 7.529,7.529c5.038,1.463 7.205,2.817 7.313,6.121c0.054,2.979 -2.275,5.471 -5.633,5.471c-2.925,0 -5.905,-1.787 -6.067,-5.796l-3.954,0c0.054,6.121 5.254,9.1 9.966,9.1c5.525,0 9.859,-3.9 9.642,-9.262c-0.217,-6.229 -4.875,-7.421 -9.046,-8.559c-3.521,-1.029 -5.633,-2.166 -5.741,-4.929c-0.109,-2.546 1.841,-4.712 5.037,-4.712c2.925,0 4.983,1.733 4.983,4.821l3.955,0Z" style="fill:#231f20;fill-rule:nonzero;"/><path d="M365.866,191.687l-4.009,0l0,6.121c-1.408,-3.304 -5.687,-6.933 -11.916,-6.933c-8.884,0 -15.113,6.825 -15.113,15.383c0,8.017 5.634,15.383 15.113,15.383c5.2,0 9.641,-2.437 11.916,-6.825l0,6.013l4.009,0l0,-29.142Zm-27.084,14.571c0,-6.5 4.875,-11.7 11.592,-11.7c5.146,0 9.046,2.979 10.671,6.987c0.65,1.409 0.975,3.034 0.921,4.659c0,1.571 -0.325,3.196 -0.975,4.604c-1.571,4.117 -5.363,7.096 -10.509,7.096c-8.016,0 -11.645,-6.338 -11.7,-11.592l0,-0.054Z" style="fill:#231f20;fill-rule:nonzero;"/><rect x="373.666" y="180.745" width="4.008" height="40.083" style="fill:#231f20;fill-rule:nonzero;"/><path d="M414.669,191.687l-4.008,0l0,6.121c-1.408,-3.304 -5.687,-6.933 -11.917,-6.933c-8.883,0 -15.112,6.825 -15.112,15.383c0,8.017 5.633,15.383 15.112,15.383c5.2,0 9.642,-2.437 11.917,-6.825l0,6.013l4.008,0l0,-29.142Zm-27.083,14.571c0,-6.5 4.875,-11.7 11.592,-11.7c5.146,0 9.046,2.979 10.671,6.987c0.65,1.409 0.975,3.034 0.92,4.659c0,1.571 -0.325,3.196 -0.975,4.604c-1.57,4.117 -5.362,7.096 -10.508,7.096c-8.017,0 -11.646,-6.338 -11.7,-11.592l0,-0.054Z" style="fill:#231f20;fill-rule:nonzero;"/><path d="M451.611,180.745l-4.009,0l0,16.846c-1.3,-3.033 -5.525,-6.716 -11.916,-6.716c-8.721,0 -15.004,6.662 -15.004,15.329c0,8.179 5.741,15.437 15.058,15.437c6.067,0 9.967,-2.979 12.025,-6.825l0,6.013l3.846,0l0,-40.084Zm-26.975,25.459c0,-6.554 4.929,-11.646 11.646,-11.646c3.25,0 6.175,1.246 8.233,3.358c2.112,2.059 3.358,4.875 3.358,8.179c0.109,3.25 -1.137,6.23 -3.25,8.396c-2.058,2.113 -5.037,3.413 -8.287,3.413c-7.584,0 -11.646,-5.796 -11.7,-11.646l0,-0.054Z" style="fill:#231f20;fill-rule:nonzero;"/><path d="M457.731,206.258c0,8.179 6.067,15.329 15.438,15.329c9.425,0 15.492,-7.15 15.492,-15.329c0,-8.179 -6.067,-15.383 -15.492,-15.383c-9.371,0 -15.438,7.204 -15.438,15.329l0,0.054Zm3.955,0c0,-6.663 5.037,-11.646 11.483,-11.646c6.5,0 11.483,4.983 11.483,11.646c0,6.662 -4.983,11.646 -11.483,11.646c-6.446,0 -11.483,-4.984 -11.483,-11.592l0,-0.054Z" style="fill:#231f20;fill-rule:nonzero;"/><path d="M511.735,199c-0.271,-5.905 -4.821,-8.125 -8.883,-8.125c-4.929,0 -9.1,3.087 -9.1,8.341c0.108,4.604 3.358,6.284 7.529,7.529c5.038,1.463 7.204,2.817 7.313,6.121c0.054,2.979 -2.275,5.471 -5.634,5.471c-2.925,0 -5.904,-1.787 -6.066,-5.796l-3.955,0c0.055,6.121 5.255,9.1 9.967,9.1c5.525,0 9.858,-3.9 9.642,-9.262c-0.217,-6.229 -4.875,-7.421 -9.046,-8.559c-3.521,-1.029 -5.633,-2.166 -5.742,-4.929c-0.108,-2.546 1.842,-4.712 5.038,-4.712c2.925,0 4.983,1.733 4.983,4.821l3.954,0Z" style="fill:#231f20;fill-rule:nonzero;"/><path d="M524.518,214.816l-4.279,0l-3.412,10.075l3.629,0l4.062,-10.075Z" style="fill:#231f20;fill-rule:nonzero;"/><path d="M572.564,191.687l-4.008,0l0,6.121c-1.409,-3.304 -5.688,-6.933 -11.917,-6.933c-8.883,0 -15.113,6.825 -15.113,15.383c0,8.017 5.634,15.383 15.113,15.383c5.2,0 9.642,-2.437 11.917,-6.825l0,6.013l4.008,0l0,-29.142Zm-27.083,14.571c0,-6.5 4.875,-11.7 11.591,-11.7c5.146,0 9.046,2.979 10.671,6.987c0.65,1.409 0.975,3.034 0.921,4.659c0,1.571 -0.325,3.196 -0.975,4.604c-1.571,4.117 -5.363,7.096 -10.508,7.096c-8.017,0 -11.646,-6.338 -11.7,-11.592l0,-0.054Z" style="fill:#231f20;fill-rule:nonzero;"/><path d="M609.505,191.687l-3.954,0l0,6.013c-1.625,-3.575 -6.067,-6.825 -11.808,-6.825c-8.884,0 -15.221,6.716 -15.221,15.437c0,8.396 6.121,15.329 15.221,15.329c5.633,0 9.696,-2.871 11.754,-6.987l0,3.737c0,7.259 -5.688,11.592 -11.267,11.592c-1.841,0 -4.333,-0.596 -6.446,-2.113c-1.733,-1.191 -2.762,-2.6 -3.466,-3.845l-4.604,0c1.841,5.254 7.15,9.425 14.408,9.425c3.954,0 8.179,-1.68 11.05,-4.496c2.546,-2.438 4.333,-5.959 4.333,-11.484l0,-25.783Zm-26.975,14.517c0,-6.825 5.2,-11.592 11.592,-11.592c4.171,0 7.096,1.733 8.883,4.063c1.842,2.329 2.654,5.2 2.654,7.637c-0.054,3.196 -1.245,6.121 -3.25,8.233c-2.058,2.113 -4.875,3.359 -8.179,3.359c-7.529,0 -11.7,-5.742 -11.7,-11.646l0,-0.054Z" style="fill:#231f20;fill-rule:nonzero;"/><path d="M617.251,220.829l3.954,0l0,-15.871c0,-6.608 3.142,-10.129 8.775,-10.129l0.379,0l0,-3.954c-3.412,0.108 -7.204,1.245 -9.316,5.579l0,-4.767l-3.792,0l0,29.142Z" style="fill:#231f20;fill-rule:nonzero;"/><path d="M634.692,186.325l4.009,0l0,-5.58l-4.009,0l0,5.58Zm0,34.504l4.009,0l0,-29.142l-4.009,0l0,29.142Z" style="fill:#231f20;fill-rule:nonzero;"/><path d="M644.713,206.258c0,8.179 6.066,15.329 15.437,15.329c9.425,0 15.492,-7.15 15.492,-15.329c0,-8.179 -6.067,-15.383 -15.492,-15.383c-9.371,0 -15.437,7.204 -15.437,15.329l0,0.054Zm3.954,0c0,-6.663 5.037,-11.646 11.483,-11.646c6.5,0 11.484,4.983 11.484,11.646c0,6.662 -4.984,11.646 -11.484,11.646c-6.446,0 -11.483,-4.984 -11.483,-11.592l0,-0.054Z" style="fill:#231f20;fill-rule:nonzero;"/><path d="M698.717,199c-0.271,-5.905 -4.821,-8.125 -8.884,-8.125c-4.929,0 -9.1,3.087 -9.1,8.341c0.109,4.604 3.359,6.284 7.53,7.529c5.037,1.463 7.204,2.817 7.312,6.121c0.054,2.979 -2.275,5.471 -5.633,5.471c-2.925,0 -5.904,-1.787 -6.067,-5.796l-3.954,0c0.054,6.121 5.254,9.1 9.967,9.1c5.525,0 9.858,-3.9 9.641,-9.262c-0.216,-6.229 -4.875,-7.421 -9.046,-8.559c-3.52,-1.029 -5.633,-2.166 -5.741,-4.929c-0.109,-2.546 1.841,-4.712 5.037,-4.712c2.925,0 4.984,1.733 4.984,4.821l3.954,0Z" style="fill:#231f20;fill-rule:nonzero;"/></g><g><path d="M110.255,272.937c0,8.179 6.067,15.329 15.438,15.329c9.425,0 15.492,-7.15 15.492,-15.329c0,-8.179 -6.067,-15.383 -15.492,-15.383c-9.371,0 -15.438,7.204 -15.438,15.329l0,0.054Zm3.955,0c0,-6.662 5.037,-11.646 11.483,-11.646c6.5,0 11.483,4.984 11.483,11.646c0,6.663 -4.983,11.646 -11.483,11.646c-6.446,0 -11.483,-4.983 -11.483,-11.592l0,-0.054Z" style="fill:#231f20;fill-rule:nonzero;"/><path d="M192.046,258.366l-4.008,0l0,6.121c-1.408,-3.304 -5.687,-6.933 -11.917,-6.933c-8.883,0 -15.112,6.825 -15.112,15.383c0,8.017 5.633,15.383 15.112,15.383c5.2,0 9.642,-2.437 11.917,-6.825l0,6.013l4.008,0l0,-29.142Zm-27.083,14.571c0,-6.5 4.875,-11.7 11.592,-11.7c5.146,0 9.046,2.979 10.671,6.988c0.65,1.408 0.975,3.033 0.92,4.658c0,1.571 -0.325,3.196 -0.975,4.604c-1.57,4.117 -5.362,7.096 -10.508,7.096c-8.017,0 -11.646,-6.338 -11.7,-11.592l0,-0.054Z" style="fill:#231f20;fill-rule:nonzero;"/><path d="M199.846,287.508l4.008,0l0,-16.25c0,-3.088 0.704,-5.308 1.95,-6.988c1.192,-1.733 3.467,-3.087 6.175,-2.979c2.979,0.054 5.038,1.192 6.392,3.088c1.137,1.787 1.625,3.683 1.516,6.933l0,16.196l4.009,0l0,-16.196c0,-3.304 0.271,-4.929 1.733,-6.987c1.354,-2.005 3.846,-3.034 6.392,-3.034c2.762,0 4.604,0.921 5.796,2.438c1.679,1.896 2.166,4.658 2.166,7.746l0,16.033l4.009,0l0,-16.196c0,-5.146 -0.759,-8.287 -3.305,-10.833c-2.004,-2.059 -4.875,-2.925 -7.854,-2.925c-3.25,0 -6.121,1.246 -8.016,3.25c-1.084,1.137 -1.68,2.275 -2.113,3.087c-0.162,-0.325 -1.137,-2.275 -1.896,-3.033c-2.058,-2.329 -4.929,-3.304 -7.962,-3.304c-3.304,0 -7.367,1.733 -9.209,5.416l0,-4.604l-3.791,0l0,29.142Z" style="fill:#231f20;fill-rule:nonzero;"/><path d="M280.878,258.366l-4.008,0l0,6.121c-1.408,-3.304 -5.687,-6.933 -11.917,-6.933c-8.883,0 -15.112,6.825 -15.112,15.383c0,8.017 5.633,15.383 15.112,15.383c5.2,0 9.642,-2.437 11.917,-6.825l0,6.013l4.008,0l0,-29.142Zm-27.083,14.571c0,-6.5 4.875,-11.7 11.592,-11.7c5.146,0 9.046,2.979 10.671,6.988c0.65,1.408 0.975,3.033 0.92,4.658c0,1.571 -0.325,3.196 -0.975,4.604c-1.57,4.117 -5.362,7.096 -10.508,7.096c-8.017,0 -11.646,-6.338 -11.7,-11.592l0,-0.054Z" style="fill:#231f20;fill-rule:nonzero;"/><path d="M288.678,287.508l3.954,0l0,-15.871c0,-6.608 3.142,-10.129 8.775,-10.129l0.379,0l0,-3.954c-3.412,0.108 -7.204,1.246 -9.317,5.579l0,-4.767l-3.791,0l0,29.142Z" style="fill:#231f20;fill-rule:nonzero;"/><path d="M333.744,258.366l-3.954,0l0,6.013c-1.625,-3.575 -6.067,-6.825 -11.809,-6.825c-8.883,0 -15.221,6.716 -15.221,15.437c0,8.396 6.121,15.329 15.221,15.329c5.634,0 9.696,-2.87 11.754,-6.987l0,3.737c0,7.259 -5.687,11.592 -11.266,11.592c-1.842,0 -4.334,-0.596 -6.446,-2.112c-1.733,-1.192 -2.763,-2.6 -3.467,-3.846l-4.604,0c1.842,5.254 7.15,9.425 14.408,9.425c3.955,0 8.18,-1.679 11.05,-4.496c2.546,-2.438 4.334,-5.958 4.334,-11.483l0,-25.784Zm-26.975,14.517c0,-6.825 5.2,-11.592 11.591,-11.592c4.171,0 7.096,1.734 8.884,4.063c1.841,2.329 2.654,5.2 2.654,7.637c-0.054,3.196 -1.246,6.121 -3.25,8.234c-2.058,2.112 -4.875,3.358 -8.179,3.358c-7.529,0 -11.7,-5.742 -11.7,-11.646l0,-0.054Z" style="fill:#231f20;fill-rule:nonzero;"/><path d="M339.701,272.937c0,8.179 6.067,15.329 15.438,15.329c9.425,0 15.492,-7.15 15.492,-15.329c0,-8.179 -6.067,-15.383 -15.492,-15.383c-9.371,0 -15.438,7.204 -15.438,15.329l0,0.054Zm3.955,0c0,-6.662 5.037,-11.646 11.483,-11.646c6.5,0 11.483,4.984 11.483,11.646c0,6.663 -4.983,11.646 -11.483,11.646c-6.446,0 -11.483,-4.983 -11.483,-11.592l0,-0.054Z" style="fill:#231f20;fill-rule:nonzero;"/><path d="M393.705,265.679c-0.271,-5.904 -4.821,-8.125 -8.883,-8.125c-4.93,0 -9.1,3.087 -9.1,8.341c0.108,4.605 3.358,6.284 7.529,7.53c5.037,1.462 7.204,2.816 7.312,6.12c0.054,2.98 -2.275,5.471 -5.633,5.471c-2.925,0 -5.904,-1.787 -6.067,-5.796l-3.954,0c0.054,6.121 5.254,9.1 9.967,9.1c5.525,0 9.858,-3.9 9.641,-9.262c-0.216,-6.229 -4.875,-7.421 -9.045,-8.558c-3.521,-1.03 -5.634,-2.167 -5.742,-4.93c-0.108,-2.545 1.842,-4.712 5.037,-4.712c2.925,0 4.984,1.733 4.984,4.821l3.954,0Z" style="fill:#231f20;fill-rule:nonzero;"/><rect x="402.154" y="281.55" width="4.225" height="5.958" style="fill:#231f20;fill-rule:nonzero;"/></g></g></svg>