<svg clip-rule="evenodd" fill-rule="evenodd" stroke-miterlimit="10" viewBox="0 0 829 338" xmlns="http://www.w3.org/2000/svg"><g opacity=".7"><path d="m21.212 209.183 1.833 4.766v-8.121z" fill="#bce2d1" fill-rule="nonzero"/><g stroke="#00b6b6" stroke-width="4.15"><path d="m21.21 209.181 1.834 4.771v-8.121z" fill="none"/><path d="m21.212 144.188 1.833 3.295v-8.383z" fill="#bce2d1" fill-rule="nonzero"/><path d="m23.047 139.098v8.387l16.129 28.954-16.129 29.392v8.121l18.637 48.421h-18.637v53.645h784.112v-294.679h-784.112v66.096h18.637l-18.637 51.663z" fill="#bce2d1" fill-rule="nonzero"/></g></g><g fill="#231f20" fill-rule="nonzero"><path d="m93.775 110.846c.271 7.638 5.85 11.863 12.567 11.863 7.475 0 12.404-5.2 12.404-11.754 0-7.367-5.958-9.48-9.75-10.942-6.066-2.058-10.021-3.25-9.966-8.125 0-4.171 3.304-6.879 7.312-6.879 5.308 0 6.608 3.954 7.096 6.554h4.442c-.65-7.583-6.392-10.346-11.375-10.346-6.121 0-12.025 3.954-11.917 11.05 0 7.583 6.987 9.642 10.237 10.617 4.659 1.516 9.48 2.762 9.48 8.396 0 4.441-3.846 7.637-8.017 7.637-2.492 0-7.367-1.408-8.017-8.071z"/><path d="m124.65 87.5h4.009v-5.579h-4.009zm0 34.505h4.009v-29.142h-4.009z"/><path d="m136.459 122.005h3.954v-15.871c0-6.609 3.142-10.129 8.775-10.129h.379v-3.955c-3.412.109-7.204 1.246-9.317 5.58v-4.767h-3.791z"/><path d="m178.492 92.863h-4.225l-9.317 24.212-9.37-24.212h-4.225l11.483 29.142h4.171z"/><path d="m209.855 108.571c.433-4.658-1.192-9.154-4.55-12.404-2.763-2.654-6.555-4.117-10.671-4.117-8.721 0-15.329 6.88-15.329 15.438 0 7.258 5.254 15.329 15.383 15.329 2.979 0 5.85-.812 8.287-2.383 2.492-1.571 4.55-3.954 5.905-7.096h-4.171c-1.896 3.792-5.525 6.012-10.021 6.012-4.929.055-11.158-3.466-11.375-10.779zm-26.488-3.196c.379-5.308 5.038-9.912 11.321-9.912 6.012-.163 10.942 4.821 11.212 9.912z"/><path d="m231.142 133.055h4.008v-17.009c1.355 3.034 5.525 6.771 11.971 6.771 9.046 0 14.95-7.15 14.95-15.275 0-7.529-5.146-15.492-14.95-15.492-5.579 0-9.804 2.655-12.187 6.88v-6.067h-3.792zm26.921-25.621c0 6.662-5.038 11.646-11.592 11.646-3.25 0-6.175-1.246-8.233-3.305-2.113-2.112-3.358-5.037-3.358-8.287 0-3.304 1.245-6.229 3.25-8.342 2.112-2.112 4.983-3.412 8.233-3.412 7.854 0 11.7 6.175 11.7 11.646z"/><path d="m297.442 92.863h-4.008v6.121c-1.409-3.304-5.688-6.934-11.917-6.934-8.883 0-15.112 6.825-15.112 15.384 0 8.016 5.633 15.383 15.112 15.383 5.2 0 9.642-2.437 11.917-6.825v6.013h4.008zm-27.083 14.571c0-6.5 4.875-11.7 11.591-11.7 5.146 0 9.046 2.979 10.671 6.987.65 1.409.975 3.034.921 4.659 0 1.57-.325 3.195-.975 4.604-1.571 4.116-5.362 7.096-10.508 7.096-8.017 0-11.646-6.338-11.7-11.592z"/><path d="m305.242 122.005h3.954v-15.871c0-6.609 3.142-10.129 8.775-10.129h.379v-3.955c-3.412.109-7.204 1.246-9.316 5.58v-4.767h-3.792z"/><path d="m349.659 92.863h-4.009v6.121c-1.408-3.304-5.687-6.934-11.916-6.934-8.884 0-15.113 6.825-15.113 15.384 0 8.016 5.634 15.383 15.113 15.383 5.2 0 9.641-2.437 11.916-6.825v6.013h4.009zm-27.084 14.571c0-6.5 4.875-11.7 11.592-11.7 5.146 0 9.046 2.979 10.671 6.987.65 1.409.975 3.034.921 4.659 0 1.57-.325 3.195-.975 4.604-1.571 4.116-5.363 7.096-10.509 7.096-8.016 0-11.645-6.338-11.7-11.592z"/><path d="m371.271 107.434c0 8.179 6.067 15.329 15.438 15.329 9.425 0 15.491-7.15 15.491-15.329s-6.066-15.384-15.491-15.384c-9.371 0-15.438 7.205-15.438 15.33zm3.954 0c0-6.663 5.038-11.646 11.484-11.646 6.5 0 11.483 4.983 11.483 11.646 0 6.662-4.983 11.646-11.483 11.646-6.446 0-11.484-4.984-11.484-11.592z"/><path d="m408.213 122.005h4.008v-29.142h-4.008zm-3.467-35.1 1.3 2.6 13.054-6.988-1.462-2.925z"/><path d="m420.021 122.005h3.954v-15.871c0-6.609 3.142-10.129 8.775-10.129h.38v-3.955c-3.413.109-7.205 1.246-9.317 5.58v-4.767h-3.792z"/><path d="m453.063 81.921h4.008v40.083h-4.008z"/><path d="m463.03 107.434c0 8.179 6.066 15.329 15.437 15.329 9.425 0 15.492-7.15 15.492-15.329s-6.067-15.384-15.492-15.384c-9.371 0-15.437 7.205-15.437 15.33zm3.954 0c0-6.663 5.037-11.646 11.483-11.646 6.5 0 11.483 4.983 11.483 11.646 0 6.662-4.983 11.646-11.483 11.646-6.446 0-11.483-4.984-11.483-11.592z"/><path d="m517.034 100.175c-.271-5.904-4.821-8.125-8.884-8.125-4.929 0-9.1 3.088-9.1 8.342.109 4.604 3.359 6.283 7.53 7.529 5.037 1.463 7.204 2.817 7.312 6.121.054 2.979-2.275 5.471-5.633 5.471-2.925 0-5.904-1.788-6.067-5.796h-3.954c.054 6.121 5.254 9.1 9.967 9.1 5.525 0 9.858-3.9 9.641-9.262-.216-6.23-4.875-7.421-9.046-8.559-3.52-1.029-5.633-2.166-5.741-4.929-.109-2.546 1.841-4.712 5.037-4.712 2.925 0 4.984 1.733 4.984 4.82z"/><path d="m557.009 100.175c-.271-5.904-4.821-8.125-8.884-8.125-4.929 0-9.1 3.088-9.1 8.342.109 4.604 3.359 6.283 7.53 7.529 5.037 1.463 7.204 2.817 7.312 6.121.054 2.979-2.275 5.471-5.633 5.471-2.925 0-5.904-1.788-6.067-5.796h-3.954c.054 6.121 5.254 9.1 9.967 9.1 5.525 0 9.858-3.9 9.641-9.262-.216-6.23-4.875-7.421-9.046-8.559-3.52-1.029-5.633-2.166-5.741-4.929-.109-2.546 1.841-4.712 5.037-4.712 2.925 0 4.984 1.733 4.984 4.82z"/><path d="m562.534 107.434c0 8.179 6.066 15.329 15.437 15.329 9.425 0 15.492-7.15 15.492-15.329s-6.067-15.384-15.492-15.384c-9.371 0-15.437 7.205-15.437 15.33zm3.954 0c0-6.663 5.037-11.646 11.483-11.646 6.5 0 11.484 4.983 11.484 11.646 0 6.662-4.984 11.646-11.484 11.646-6.446 0-11.483-4.984-11.483-11.592z"/><path d="m599.475 122.005h4.009v-16.467c0-6.067 3.466-9.696 9.479-9.75 6.554-.108 9.371 4.171 9.371 10.454v15.763h3.954v-16.575c0-7.096-3.196-13.271-12.242-13.38-5.2-.108-9.154 2.221-10.833 6.013.054-1.95.054-3.575.054-5.2h-3.792z"/><path d="m634.034 87.5h4.008v-5.579h-4.008zm0 34.505h4.008v-29.142h-4.008z"/><path d="m674.984 81.921h-4.009v16.846c-1.3-3.033-5.525-6.717-11.916-6.717-8.721 0-15.004 6.663-15.004 15.33 0 8.179 5.741 15.437 15.058 15.437 6.067 0 9.967-2.979 12.025-6.825v6.013h3.846zm-26.975 25.459c0-6.555 4.929-11.646 11.646-11.646 3.25 0 6.175 1.246 8.233 3.358 2.112 2.058 3.358 4.875 3.358 8.179.109 3.25-1.137 6.229-3.25 8.396-2.058 2.113-5.037 3.413-8.287 3.413-7.584 0-11.646-5.796-11.7-11.646z"/><path d="m681.105 107.434c0 8.179 6.066 15.329 15.437 15.329 9.425 0 15.492-7.15 15.492-15.329s-6.067-15.384-15.492-15.384c-9.371 0-15.437 7.205-15.437 15.33zm3.954 0c0-6.663 5.037-11.646 11.483-11.646 6.5 0 11.483 4.983 11.483 11.646 0 6.662-4.983 11.646-11.483 11.646-6.446 0-11.483-4.984-11.483-11.592z"/><path d="m735.109 100.175c-.271-5.904-4.821-8.125-8.884-8.125-4.929 0-9.1 3.088-9.1 8.342.109 4.604 3.359 6.283 7.53 7.529 5.037 1.463 7.204 2.817 7.312 6.121.054 2.979-2.275 5.471-5.633 5.471-2.925 0-5.904-1.788-6.067-5.796h-3.954c.054 6.121 5.254 9.1 9.967 9.1 5.525 0 9.858-3.9 9.641-9.262-.216-6.23-4.875-7.421-9.046-8.559-3.52-1.029-5.633-2.166-5.741-4.929-.109-2.546 1.841-4.712 5.037-4.712 2.925 0 4.984 1.733 4.984 4.82z"/><path d="m119.83 178.825c-1.246 3.521-4.984 6.88-10.563 6.934-6.283 0-11.483-4.767-11.483-11.646 0-3.358 1.354-6.5 3.304-8.396 2.437-2.275 4.821-3.304 8.233-3.304 4.117 0 8.721 2.275 10.563 7.204h4.116c-2.004-6.987-8.287-10.887-14.841-10.887-8.829 0-15.384 6.77-15.384 15.383 0 7.8 5.796 15.383 15.655 15.383 6.987 0 12.675-4.496 14.57-10.671z"/><path d="m127.954 174.113c0 8.179 6.067 15.329 15.438 15.329 9.425 0 15.491-7.15 15.491-15.329s-6.066-15.383-15.491-15.383c-9.371 0-15.438 7.204-15.438 15.329zm3.954 0c0-6.663 5.038-11.646 11.484-11.646 6.5 0 11.483 4.983 11.483 11.646 0 6.662-4.983 11.646-11.483 11.646-6.446 0-11.484-4.984-11.484-11.592z"/><path d="m164.896 188.684h4.008v-16.25c0-3.088.704-5.309 1.95-6.988 1.192-1.733 3.467-3.087 6.175-2.979 2.979.054 5.037 1.192 6.392 3.088 1.137 1.787 1.625 3.683 1.516 6.933v16.196h4.009v-16.196c0-3.304.27-4.929 1.733-6.988 1.354-2.004 3.846-3.033 6.392-3.033 2.762 0 4.604.921 5.795 2.438 1.68 1.895 2.167 4.658 2.167 7.745v16.034h4.008v-16.196c0-5.146-.758-8.288-3.304-10.833-2.004-2.059-4.875-2.925-7.854-2.925-3.25 0-6.121 1.245-8.017 3.25-1.083 1.137-1.679 2.275-2.112 3.087-.163-.325-1.138-2.275-1.896-3.033-2.058-2.329-4.929-3.304-7.962-3.304-3.305 0-7.367 1.733-9.209 5.416v-4.604h-3.791z"/><path d="m214.891 174.113c0 8.179 6.067 15.329 15.438 15.329 9.425 0 15.491-7.15 15.491-15.329s-6.066-15.383-15.491-15.383c-9.371 0-15.438 7.204-15.438 15.329zm3.954 0c0-6.663 5.038-11.646 11.484-11.646 6.5 0 11.483 4.983 11.483 11.646 0 6.662-4.983 11.646-11.483 11.646-6.446 0-11.484-4.984-11.484-11.592z"/><path d="m267.432 148.6h4.008v40.083h-4.008z"/><path d="m308.436 159.542h-4.008v6.121c-1.409-3.304-5.688-6.933-11.917-6.933-8.883 0-15.112 6.825-15.112 15.383 0 8.017 5.633 15.383 15.112 15.383 5.2 0 9.642-2.437 11.917-6.825v6.013h4.008zm-27.083 14.571c0-6.5 4.875-11.7 11.591-11.7 5.146 0 9.046 2.979 10.671 6.987.65 1.409.975 3.034.921 4.659 0 1.571-.325 3.196-.975 4.604-1.571 4.117-5.362 7.096-10.508 7.096-8.017 0-11.646-6.338-11.7-11.592z"/><path d="m331.836 188.684h4.008v-16.25c0-3.088.704-5.309 1.95-6.988 1.192-1.733 3.467-3.087 6.175-2.979 2.979.054 5.038 1.192 6.392 3.088 1.137 1.787 1.625 3.683 1.516 6.933v16.196h4.009v-16.196c0-3.304.271-4.929 1.733-6.988 1.354-2.004 3.846-3.033 6.392-3.033 2.762 0 4.604.921 5.796 2.438 1.679 1.895 2.166 4.658 2.166 7.745v16.034h4.009v-16.196c0-5.146-.759-8.288-3.305-10.833-2.004-2.059-4.875-2.925-7.854-2.925-3.25 0-6.121 1.245-8.016 3.25-1.084 1.137-1.68 2.275-2.113 3.087-.162-.325-1.137-2.275-1.896-3.033-2.058-2.329-4.929-3.304-7.962-3.304-3.304 0-7.367 1.733-9.209 5.416v-4.604h-3.791z"/><path d="m409.51 159.542h-4.008v16.467c0 6.066-3.467 9.696-9.533 9.75-6.554.054-9.371-4.171-9.371-10.454v-15.763h-3.954v16.521c0 7.096 3.196 13.271 12.296 13.433 5.2.054 9.154-2.221 10.779-6.012v5.2h3.791zm-19.283-5.958 1.3 2.6 13.054-6.988-1.462-2.925z"/><path d="m434.373 166.855c-.271-5.905-4.821-8.125-8.884-8.125-4.929 0-9.1 3.087-9.1 8.341.109 4.604 3.359 6.284 7.529 7.529 5.038 1.463 7.205 2.817 7.313 6.121.054 2.979-2.275 5.471-5.633 5.471-2.925 0-5.905-1.787-6.067-5.796h-3.954c.054 6.121 5.254 9.1 9.966 9.1 5.525 0 9.859-3.9 9.642-9.262-.217-6.229-4.875-7.421-9.046-8.559-3.521-1.029-5.633-2.166-5.741-4.929-.109-2.546 1.841-4.712 5.037-4.712 2.925 0 4.983 1.733 4.983 4.821z"/><path d="m441.685 154.18h4.008v-5.58h-4.008zm0 34.504h4.008v-29.142h-4.008z"/><path d="m477.705 178.825c-1.246 3.521-4.983 6.88-10.562 6.934-6.284 0-11.484-4.767-11.484-11.646 0-3.358 1.355-6.5 3.305-8.396 2.437-2.275 4.82-3.304 8.233-3.304 4.117 0 8.721 2.275 10.562 7.204h4.117c-2.004-6.987-8.287-10.887-14.842-10.887-8.829 0-15.383 6.77-15.383 15.383 0 7.8 5.796 15.383 15.654 15.383 6.988 0 12.675-4.496 14.571-10.671z"/><path d="m516.867 159.542h-4.008v6.121c-1.408-3.304-5.688-6.933-11.917-6.933-8.883 0-15.112 6.825-15.112 15.383 0 8.017 5.633 15.383 15.112 15.383 5.2 0 9.642-2.437 11.917-6.825v6.013h4.008zm-27.083 14.571c0-6.5 4.875-11.7 11.592-11.7 5.145 0 9.045 2.979 10.67 6.987.65 1.409.975 3.034.921 4.659 0 1.571-.325 3.196-.975 4.604-1.571 4.117-5.362 7.096-10.508 7.096-8.017 0-11.646-6.338-11.7-11.592z"/><path d="m530.788 182.671h-4.279l-3.413 10.075h3.629z"/><path d="m549.583 148.6h4.008v40.083h-4.008z"/><path d="m590.587 159.542h-4.008v6.121c-1.409-3.304-5.688-6.933-11.917-6.933-8.883 0-15.112 6.825-15.112 15.383 0 8.017 5.633 15.383 15.112 15.383 5.2 0 9.642-2.437 11.917-6.825v6.013h4.008zm-27.083 14.571c0-6.5 4.875-11.7 11.591-11.7 5.146 0 9.046 2.979 10.671 6.987.65 1.409.975 3.034.921 4.659 0 1.571-.325 3.196-.975 4.604-1.571 4.117-5.362 7.096-10.508 7.096-8.017 0-11.646-6.338-11.7-11.592z"/><path d="m615.449 166.855c-.271-5.905-4.821-8.125-8.883-8.125-4.929 0-9.1 3.087-9.1 8.341.108 4.604 3.358 6.284 7.529 7.529 5.038 1.463 7.204 2.817 7.313 6.121.054 2.979-2.275 5.471-5.634 5.471-2.925 0-5.904-1.787-6.066-5.796h-3.955c.055 6.121 5.255 9.1 9.967 9.1 5.525 0 9.858-3.9 9.642-9.262-.217-6.229-4.875-7.421-9.046-8.559-3.521-1.029-5.633-2.166-5.742-4.929-.108-2.546 1.842-4.712 5.038-4.712 2.925 0 4.983 1.733 4.983 4.821z"/><path d="m119.288 226.221h-4.225l-9.317 24.213-9.371-24.213h-4.225l11.484 29.142h4.171z"/><path d="m120.533 240.792c0 8.179 6.067 15.329 15.438 15.329 9.425 0 15.492-7.15 15.492-15.329s-6.067-15.383-15.492-15.383c-9.371 0-15.438 7.204-15.438 15.329zm3.955 0c0-6.662 5.037-11.646 11.483-11.646 6.5 0 11.483 4.984 11.483 11.646 0 6.663-4.983 11.646-11.483 11.646-6.446 0-11.483-4.983-11.483-11.592z"/><path d="m181.687 245.505c-1.246 3.52-4.983 6.879-10.562 6.933-6.284 0-11.484-4.767-11.484-11.646 0-3.358 1.355-6.5 3.305-8.396 2.437-2.275 4.82-3.304 8.233-3.304 4.117 0 8.721 2.275 10.562 7.204h4.117c-2.004-6.987-8.287-10.887-14.842-10.887-8.829 0-15.383 6.771-15.383 15.383 0 7.8 5.796 15.383 15.654 15.383 6.988 0 12.675-4.495 14.571-10.67z"/><path d="m219.929 241.93c.433-4.659-1.192-9.155-4.55-12.405-2.763-2.654-6.555-4.116-10.671-4.116-8.721 0-15.329 6.879-15.329 15.437 0 7.259 5.254 15.329 15.383 15.329 2.979 0 5.85-.812 8.287-2.383 2.492-1.571 4.55-3.954 5.905-7.096h-4.171c-1.896 3.792-5.525 6.013-10.021 6.013-4.929.054-11.158-3.467-11.375-10.779zm-26.488-3.196c.379-5.309 5.038-9.913 11.321-9.913 6.012-.162 10.942 4.821 11.212 9.913z"/><path d="m242.678 233.534c-.271-5.904-4.821-8.125-8.883-8.125-4.929 0-9.1 3.087-9.1 8.341.108 4.605 3.358 6.284 7.529 7.53 5.038 1.462 7.204 2.816 7.313 6.12.054 2.98-2.275 5.471-5.634 5.471-2.925 0-5.904-1.787-6.066-5.796h-3.955c.055 6.121 5.255 9.1 9.967 9.1 5.525 0 9.858-3.9 9.642-9.262-.217-6.229-4.875-7.421-9.046-8.558-3.521-1.03-5.633-2.167-5.742-4.93-.108-2.545 1.842-4.712 5.038-4.712 2.925 0 4.983 1.733 4.983 4.821z"/><path d="m268.407 266.413h4.333l16.629-40.192h-4.387l-9.425 23.563-9.154-23.563h-4.279l11.266 28.6z"/><path d="m308.923 215.28h4.008v40.083h-4.008z"/><path d="m318.89 240.792c0 8.179 6.066 15.329 15.437 15.329 9.425 0 15.492-7.15 15.492-15.329s-6.067-15.383-15.492-15.383c-9.371 0-15.437 7.204-15.437 15.329zm3.954 0c0-6.662 5.037-11.646 11.483-11.646 6.5 0 11.483 4.984 11.483 11.646 0 6.663-4.983 11.646-11.483 11.646-6.446 0-11.483-4.983-11.483-11.592z"/><path d="m372.893 233.534c-.27-5.904-4.82-8.125-8.883-8.125-4.929 0-9.1 3.087-9.1 8.341.108 4.605 3.358 6.284 7.529 7.53 5.038 1.462 7.204 2.816 7.313 6.12.054 2.98-2.275 5.471-5.634 5.471-2.925 0-5.904-1.787-6.066-5.796h-3.954c.054 6.121 5.254 9.1 9.966 9.1 5.525 0 9.859-3.9 9.642-9.262-.217-6.229-4.875-7.421-9.046-8.558-3.521-1.03-5.633-2.167-5.742-4.93-.108-2.545 1.842-4.712 5.038-4.712 2.925 0 4.983 1.733 4.983 4.821z"/><path d="m395.806 255.363h3.954v-15.871c0-6.608 3.141-10.129 8.775-10.129h.379v-3.954c-3.413.108-7.204 1.246-9.317 5.579v-4.767h-3.791z"/><path d="m440.059 226.221h-4.008v16.467c0 6.067-3.467 9.696-9.533 9.75-6.554.054-9.371-4.171-9.371-10.454v-15.763h-3.954v16.521c0 7.096 3.196 13.271 12.296 13.433 5.2.055 9.154-2.22 10.779-6.012v5.2h3.791z"/><path d="m447.859 220.859h4.008v-5.579h-4.008zm0 34.504h4.008v-29.142h-4.008z"/><path d="m488.809 215.28h-4.009v16.845c-1.3-3.033-5.525-6.716-11.916-6.716-8.721 0-15.005 6.662-15.005 15.329 0 8.179 5.742 15.437 15.059 15.437 6.066 0 9.966-2.979 12.025-6.825v6.013h3.846zm-26.975 25.458c0-6.554 4.929-11.646 11.645-11.646 3.25 0 6.175 1.246 8.234 3.358 2.112 2.059 3.358 4.875 3.358 8.18.108 3.25-1.137 6.229-3.25 8.395-2.058 2.113-5.037 3.413-8.287 3.413-7.584 0-11.646-5.796-11.7-11.646z"/><path d="m494.929 240.792c0 8.179 6.067 15.329 15.438 15.329 9.425 0 15.491-7.15 15.491-15.329s-6.066-15.383-15.491-15.383c-9.371 0-15.438 7.204-15.438 15.329zm3.954 0c0-6.662 5.038-11.646 11.484-11.646 6.5 0 11.483 4.984 11.483 11.646 0 6.663-4.983 11.646-11.483 11.646-6.446 0-11.484-4.983-11.484-11.592z"/><path d="m548.933 233.534c-.271-5.904-4.821-8.125-8.883-8.125-4.93 0-9.1 3.087-9.1 8.341.108 4.605 3.358 6.284 7.529 7.53 5.037 1.462 7.204 2.816 7.312 6.12.054 2.98-2.275 5.471-5.633 5.471-2.925 0-5.904-1.787-6.067-5.796h-3.954c.054 6.121 5.254 9.1 9.967 9.1 5.525 0 9.858-3.9 9.641-9.262-.216-6.229-4.875-7.421-9.045-8.558-3.521-1.03-5.634-2.167-5.742-4.93-.108-2.545 1.842-4.712 5.037-4.712 2.925 0 4.984 1.733 4.984 4.821z"/><path d="m557.383 249.405h4.225v5.958h-4.225z"/></g></svg>