<?xml version="1.0" encoding="UTF-8" standalone="no"?><!DOCTYPE svg PUBLIC "-//W3C//DTD SVG 1.1//EN" "http://www.w3.org/Graphics/SVG/1.1/DTD/svg11.dtd"><svg width="100%" height="100%" viewBox="0 0 822 335" version="1.1" xmlns="http://www.w3.org/2000/svg" xmlns:xlink="http://www.w3.org/1999/xlink" xml:space="preserve" xmlns:serif="http://www.serif.com/" style="fill-rule:evenodd;clip-rule:evenodd;stroke-miterlimit:10;"><g><g opacity="0.7"><path d="M20.814,207.356l1.821,4.729l0,-8.05l-1.821,3.321Z" style="fill:#f7f39a;fill-rule:nonzero;stroke:#ffd211;stroke-width:4.12px;"/><path d="M20.814,142.883l1.821,3.275l0,-8.321l-1.821,5.046Z" style="fill:#f7f39a;fill-rule:nonzero;stroke:#ffd211;stroke-width:4.12px;"/><path d="M22.637,21.026l0,65.567l18.483,0l-18.483,51.246l0,8.316l15.996,28.721l-15.996,29.159l0,8.054l18.908,48.029l-18.908,0l0,53.212l777.787,0l0,-292.304l-777.787,0Z" style="fill:#f7f39a;fill-rule:nonzero;"/><path d="M22.637,137.838l0,8.32l15.996,28.721l-15.996,29.154l0,8.055l18.908,48.033l-18.908,0l0,53.208l777.787,0l0,-292.304l-777.787,0l0,65.567l18.483,0l-18.483,51.246Z" style="fill:none;fill-rule:nonzero;stroke:#ffd211;stroke-width:4.12px;"/></g><g><path d="M127.107,109.394c0.271,7.638 5.85,11.863 12.566,11.863c7.475,0 12.405,-5.2 12.405,-11.754c0,-7.367 -5.959,-9.48 -9.75,-10.942c-6.067,-2.058 -10.021,-3.25 -9.967,-8.125c0,-4.171 3.304,-6.879 7.312,-6.879c5.309,0 6.609,3.954 7.096,6.554l4.442,0c-0.65,-7.583 -6.392,-10.346 -11.375,-10.346c-6.121,0 -12.025,3.954 -11.917,11.05c0,7.583 6.988,9.642 10.238,10.617c4.658,1.516 9.479,2.762 9.479,8.396c0,4.441 -3.846,7.637 -8.017,7.637c-2.491,0 -7.366,-1.408 -8.016,-8.071l-4.496,0Z" style="fill:#231f20;fill-rule:nonzero;"/><path d="M157.981,86.048l4.009,0l0,-5.579l-4.009,0l0,5.579Zm0,34.505l4.009,0l0,-29.142l-4.009,0l0,29.142Z" style="fill:#231f20;fill-rule:nonzero;"/><path d="M169.789,120.553l3.955,0l0,-15.871c0,-6.609 3.141,-10.129 8.775,-10.129l0.379,0l0,-3.955c-3.413,0.109 -7.204,1.246 -9.317,5.58l0,-4.767l-3.792,0l0,29.142Z" style="fill:#231f20;fill-rule:nonzero;"/><path d="M211.822,91.411l-4.225,0l-9.316,24.212l-9.371,-24.212l-4.225,0l11.483,29.142l4.171,0l11.483,-29.142Z" style="fill:#231f20;fill-rule:nonzero;"/><path d="M243.185,107.119c0.433,-4.658 -1.192,-9.154 -4.55,-12.404c-2.763,-2.654 -6.555,-4.117 -10.671,-4.117c-8.721,0 -15.329,6.88 -15.329,15.438c0,7.258 5.254,15.329 15.383,15.329c2.979,0 5.85,-0.812 8.287,-2.383c2.492,-1.571 4.55,-3.954 5.905,-7.096l-4.171,0c-1.896,3.792 -5.525,6.012 -10.021,6.012c-4.929,0.055 -11.158,-3.466 -11.375,-10.779l26.542,0Zm-26.488,-3.196c0.379,-5.308 5.038,-9.912 11.321,-9.912c6.012,-0.163 10.942,4.821 11.212,9.912l-22.533,0Z" style="fill:#231f20;fill-rule:nonzero;"/><path d="M264.472,131.603l4.008,0l0,-17.009c1.354,3.034 5.525,6.771 11.971,6.771c9.046,0 14.95,-7.15 14.95,-15.275c0,-7.529 -5.146,-15.492 -14.95,-15.492c-5.579,0 -9.804,2.655 -12.187,6.88l0,-6.067l-3.792,0l0,40.192Zm26.921,-25.621c0,6.662 -5.038,11.646 -11.592,11.646c-3.25,0 -6.175,-1.246 -8.233,-3.305c-2.113,-2.112 -3.359,-5.037 -3.359,-8.287c0,-3.304 1.246,-6.229 3.25,-8.342c2.113,-2.112 4.984,-3.412 8.234,-3.412c7.854,0 11.7,6.175 11.7,11.646l0,0.054Z" style="fill:#231f20;fill-rule:nonzero;"/><path d="M330.772,91.411l-4.009,0l0,6.121c-1.408,-3.304 -5.687,-6.934 -11.916,-6.934c-8.884,0 -15.113,6.825 -15.113,15.384c0,8.016 5.633,15.383 15.113,15.383c5.2,0 9.641,-2.437 11.916,-6.825l0,6.013l4.009,0l0,-29.142Zm-27.084,14.571c0,-6.5 4.875,-11.7 11.592,-11.7c5.146,0 9.046,2.979 10.671,6.987c0.65,1.409 0.975,3.034 0.921,4.659c0,1.57 -0.325,3.195 -0.975,4.604c-1.571,4.116 -5.363,7.096 -10.509,7.096c-8.016,0 -11.646,-6.338 -11.7,-11.592l0,-0.054Z" style="fill:#231f20;fill-rule:nonzero;"/><path d="M338.571,120.553l3.954,0l0,-15.871c0,-6.609 3.142,-10.129 8.775,-10.129l0.38,0l0,-3.955c-3.413,0.109 -7.205,1.246 -9.317,5.58l0,-4.767l-3.792,0l0,29.142Z" style="fill:#231f20;fill-rule:nonzero;"/><path d="M382.988,91.411l-4.009,0l0,6.121c-1.408,-3.304 -5.687,-6.934 -11.916,-6.934c-8.884,0 -15.113,6.825 -15.113,15.384c0,8.016 5.633,15.383 15.113,15.383c5.2,0 9.641,-2.437 11.916,-6.825l0,6.013l4.009,0l0,-29.142Zm-27.084,14.571c0,-6.5 4.875,-11.7 11.592,-11.7c5.146,0 9.046,2.979 10.671,6.987c0.65,1.409 0.975,3.034 0.921,4.659c0,1.57 -0.325,3.195 -0.975,4.604c-1.571,4.116 -5.363,7.096 -10.509,7.096c-8.016,0 -11.646,-6.338 -11.7,-11.592l0,-0.054Z" style="fill:#231f20;fill-rule:nonzero;"/><path d="M435.529,80.469l-4.008,0l0,16.846c-1.3,-3.033 -5.525,-6.717 -11.917,-6.717c-8.721,0 -15.004,6.663 -15.004,15.33c0,8.179 5.741,15.437 15.058,15.437c6.067,0 9.967,-2.979 12.025,-6.825l0,6.013l3.846,0l0,-40.084Zm-26.975,25.459c0,-6.555 4.929,-11.646 11.646,-11.646c3.25,0 6.175,1.246 8.233,3.358c2.113,2.058 3.358,4.875 3.358,8.179c0.109,3.25 -1.137,6.229 -3.25,8.396c-2.058,2.113 -5.037,3.413 -8.287,3.413c-7.583,0 -11.646,-5.796 -11.7,-11.646l0,-0.054Z" style="fill:#231f20;fill-rule:nonzero;"/><path d="M443.437,86.048l4.008,0l0,-5.579l-4.008,0l0,5.579Zm0,34.505l4.008,0l0,-29.142l-4.008,0l0,29.142Z" style="fill:#231f20;fill-rule:nonzero;"/><path d="M472.308,98.723c-0.271,-5.904 -4.821,-8.125 -8.884,-8.125c-4.929,0 -9.1,3.088 -9.1,8.342c0.109,4.604 3.359,6.283 7.529,7.529c5.038,1.463 7.205,2.817 7.313,6.121c0.054,2.979 -2.275,5.471 -5.633,5.471c-2.925,0 -5.905,-1.788 -6.067,-5.796l-3.954,0c0.054,6.121 5.254,9.1 9.966,9.1c5.525,0 9.859,-3.9 9.642,-9.262c-0.217,-6.23 -4.875,-7.421 -9.046,-8.559c-3.521,-1.029 -5.633,-2.166 -5.741,-4.929c-0.109,-2.546 1.841,-4.712 5.037,-4.712c2.925,0 4.983,1.733 4.983,4.82l3.955,0Z" style="fill:#231f20;fill-rule:nonzero;"/><path d="M481.895,120.553l3.954,0l0,-25.946l6.392,0l0,-3.196l-6.392,0l0,-10.942l-3.954,0l0,10.942l-5.742,0l0,3.196l5.742,0l0,25.946Z" style="fill:#231f20;fill-rule:nonzero;"/><path d="M496.628,86.048l4.008,0l0,-5.579l-4.008,0l0,5.579Zm0,34.505l4.008,0l0,-29.142l-4.008,0l0,29.142Z" style="fill:#231f20;fill-rule:nonzero;"/><path d="M508.436,120.553l4.008,0l0,-16.467c0,-6.067 3.467,-9.696 9.479,-9.75c6.554,-0.108 9.371,4.171 9.371,10.454l0,15.763l3.954,0l0,-16.575c0,-7.096 -3.196,-13.271 -12.241,-13.38c-5.2,-0.108 -9.155,2.221 -10.834,6.013c0.054,-1.95 0.054,-3.575 0.054,-5.2l-3.791,0l0,29.142Z" style="fill:#231f20;fill-rule:nonzero;"/><path d="M572.136,91.411l-3.955,0l0,6.012c-1.625,-3.575 -6.066,-6.825 -11.808,-6.825c-8.883,0 -15.221,6.717 -15.221,15.438c0,8.396 6.121,15.329 15.221,15.329c5.633,0 9.696,-2.871 11.754,-6.987l0,3.737c0,7.258 -5.687,11.592 -11.266,11.592c-1.842,0 -4.334,-0.596 -6.446,-2.113c-1.734,-1.191 -2.763,-2.6 -3.467,-3.846l-4.604,0c1.842,5.255 7.15,9.425 14.408,9.425c3.954,0 8.179,-1.679 11.05,-4.495c2.546,-2.438 4.334,-5.959 4.334,-11.484l0,-25.783Zm-26.975,14.517c0,-6.825 5.2,-11.592 11.591,-11.592c4.171,0 7.096,1.733 8.884,4.062c1.841,2.33 2.654,5.2 2.654,7.638c-0.054,3.196 -1.246,6.121 -3.25,8.233c-2.059,2.113 -4.875,3.359 -8.179,3.359c-7.53,0 -11.7,-5.742 -11.7,-11.646l0,-0.054Z" style="fill:#231f20;fill-rule:nonzero;"/><path d="M606.694,91.411l-4.009,0l0,16.467c0,6.066 -3.466,9.695 -9.533,9.75c-6.554,0.054 -9.371,-4.171 -9.371,-10.455l0,-15.762l-3.954,0l0,16.521c0,7.096 3.196,13.271 12.296,13.433c5.2,0.054 9.154,-2.221 10.779,-6.012l0,5.2l3.792,0l0,-29.142Z" style="fill:#231f20;fill-rule:nonzero;"/><path d="M614.493,86.048l4.009,0l0,-5.579l-4.009,0l0,5.579Zm0,34.505l4.009,0l0,-29.142l-4.009,0l0,29.142Z" style="fill:#231f20;fill-rule:nonzero;"/><path d="M626.301,120.553l3.954,0l0,-15.871c0,-6.609 3.142,-10.129 8.775,-10.129l0.38,0l0,-3.955c-3.413,0.109 -7.205,1.246 -9.317,5.58l0,-4.767l-3.792,0l0,29.142Z" style="fill:#231f20;fill-rule:nonzero;"/></g><g><rect x="128.948" y="147.148" width="4.008" height="40.083" style="fill:#231f20;fill-rule:nonzero;"/><path d="M169.952,158.09l-4.008,0l0,6.121c-1.408,-3.304 -5.688,-6.933 -11.917,-6.933c-8.883,0 -15.112,6.825 -15.112,15.383c0,8.017 5.633,15.383 15.112,15.383c5.2,0 9.642,-2.437 11.917,-6.825l0,6.013l4.008,0l0,-29.142Zm-27.083,14.571c0,-6.5 4.875,-11.7 11.592,-11.7c5.145,0 9.045,2.979 10.67,6.987c0.65,1.409 0.975,3.034 0.921,4.659c0,1.571 -0.325,3.196 -0.975,4.604c-1.571,4.117 -5.362,7.096 -10.508,7.096c-8.017,0 -11.646,-6.338 -11.7,-11.592l0,-0.054Z" style="fill:#231f20;fill-rule:nonzero;"/><path d="M195.627,187.232l3.954,0l0,-25.946l6.392,0l0,-3.196l-6.392,0l0,-10.942l-3.954,0l0,10.942l-5.742,0l0,3.196l5.742,0l0,25.946Z" style="fill:#231f20;fill-rule:nonzero;"/><path d="M237.064,173.798c0.433,-4.658 -1.192,-9.154 -4.55,-12.404c-2.763,-2.654 -6.554,-4.116 -10.671,-4.116c-8.721,0 -15.329,6.879 -15.329,15.437c0,7.258 5.254,15.329 15.383,15.329c2.979,0 5.85,-0.812 8.288,-2.383c2.491,-1.571 4.55,-3.954 5.904,-7.096l-4.171,0c-1.896,3.792 -5.525,6.013 -10.021,6.013c-4.929,0.054 -11.158,-3.467 -11.375,-10.78l26.542,0Zm-26.488,-3.195c0.38,-5.309 5.038,-9.913 11.321,-9.913c6.013,-0.162 10.942,4.821 11.213,9.913l-22.534,0Z" style="fill:#231f20;fill-rule:nonzero;"/><path d="M242.751,187.232l4.008,0l0,-16.25c0,-3.088 0.705,-5.309 1.95,-6.988c1.192,-1.733 3.467,-3.087 6.175,-2.979c2.98,0.054 5.038,1.192 6.392,3.088c1.138,1.787 1.625,3.683 1.517,6.933l0,16.196l4.008,0l0,-16.196c0,-3.304 0.271,-4.929 1.733,-6.988c1.355,-2.004 3.846,-3.033 6.392,-3.033c2.763,0 4.604,0.921 5.796,2.438c1.679,1.895 2.167,4.658 2.167,7.745l0,16.034l4.008,0l0,-16.196c0,-5.146 -0.758,-8.288 -3.304,-10.833c-2.004,-2.059 -4.875,-2.925 -7.854,-2.925c-3.25,0 -6.121,1.245 -8.017,3.25c-1.083,1.137 -1.679,2.275 -2.113,3.087c-0.162,-0.325 -1.137,-2.275 -1.895,-3.033c-2.059,-2.329 -4.93,-3.304 -7.963,-3.304c-3.304,0 -7.367,1.733 -9.208,5.416l0,-4.604l-3.792,0l0,29.142Z" style="fill:#231f20;fill-rule:nonzero;"/><path d="M294.534,198.282l4.008,0l0,-17.009c1.355,3.034 5.525,6.771 11.971,6.771c9.046,0 14.95,-7.15 14.95,-15.275c0,-7.529 -5.146,-15.491 -14.95,-15.491c-5.579,0 -9.804,2.654 -12.187,6.879l0,-6.067l-3.792,0l0,40.192Zm26.921,-25.621c0,6.662 -5.038,11.646 -11.592,11.646c-3.25,0 -6.175,-1.246 -8.233,-3.304c-2.113,-2.113 -3.358,-5.038 -3.358,-8.288c0,-3.304 1.245,-6.229 3.25,-8.342c2.112,-2.112 4.983,-3.412 8.233,-3.412c7.854,0 11.7,6.175 11.7,11.646l0,0.054Z" style="fill:#231f20;fill-rule:nonzero;"/><path d="M359.913,173.798c0.433,-4.658 -1.192,-9.154 -4.55,-12.404c-2.763,-2.654 -6.554,-4.116 -10.671,-4.116c-8.721,0 -15.329,6.879 -15.329,15.437c0,7.258 5.254,15.329 15.383,15.329c2.979,0 5.85,-0.812 8.288,-2.383c2.491,-1.571 4.55,-3.954 5.904,-7.096l-4.171,0c-1.896,3.792 -5.525,6.013 -10.021,6.013c-4.929,0.054 -11.158,-3.467 -11.375,-10.78l26.542,0Zm-26.488,-3.195c0.38,-5.309 5.038,-9.913 11.321,-9.913c6.013,-0.162 10.942,4.821 11.213,9.913l-22.534,0Z" style="fill:#231f20;fill-rule:nonzero;"/><path d="M365.6,187.232l3.954,0l0,-15.871c0,-6.608 3.142,-10.129 8.775,-10.129l0.379,0l0,-3.954c-3.412,0.108 -7.204,1.245 -9.316,5.579l0,-4.767l-3.792,0l0,29.142Z" style="fill:#231f20;fill-rule:nonzero;"/><path d="M410.016,158.09l-4.008,0l0,6.121c-1.408,-3.304 -5.688,-6.933 -11.917,-6.933c-8.883,0 -15.112,6.825 -15.112,15.383c0,8.017 5.633,15.383 15.112,15.383c5.2,0 9.642,-2.437 11.917,-6.825l0,6.013l4.008,0l0,-29.142Zm-27.083,14.571c0,-6.5 4.875,-11.7 11.592,-11.7c5.145,0 9.045,2.979 10.67,6.987c0.65,1.409 0.975,3.034 0.921,4.659c0,1.571 -0.325,3.196 -0.975,4.604c-1.571,4.117 -5.362,7.096 -10.508,7.096c-8.017,0 -11.646,-6.338 -11.7,-11.592l0,-0.054Z" style="fill:#231f20;fill-rule:nonzero;"/><path d="M420.091,187.232l3.954,0l0,-25.946l6.392,0l0,-3.196l-6.392,0l0,-10.942l-3.954,0l0,10.942l-5.742,0l0,3.196l5.742,0l0,25.946Z" style="fill:#231f20;fill-rule:nonzero;"/><path d="M461.636,158.09l-4.008,0l0,16.467c0,6.066 -3.467,9.696 -9.533,9.75c-6.554,0.054 -9.371,-4.171 -9.371,-10.454l0,-15.763l-3.954,0l0,16.521c0,7.096 3.196,13.271 12.296,13.433c5.2,0.054 9.154,-2.221 10.779,-6.012l0,5.2l3.791,0l0,-29.142Z" style="fill:#231f20;fill-rule:nonzero;"/><path d="M469.436,187.232l3.954,0l0,-15.871c0,-6.608 3.142,-10.129 8.775,-10.129l0.379,0l0,-3.954c-3.412,0.108 -7.204,1.245 -9.316,5.579l0,-4.767l-3.792,0l0,29.142Z" style="fill:#231f20;fill-rule:nonzero;"/><path d="M513.852,158.09l-4.008,0l0,6.121c-1.408,-3.304 -5.687,-6.933 -11.917,-6.933c-8.883,0 -15.112,6.825 -15.112,15.383c0,8.017 5.633,15.383 15.112,15.383c5.2,0 9.642,-2.437 11.917,-6.825l0,6.013l4.008,0l0,-29.142Zm-27.083,14.571c0,-6.5 4.875,-11.7 11.592,-11.7c5.146,0 9.046,2.979 10.671,6.987c0.65,1.409 0.975,3.034 0.92,4.659c0,1.571 -0.325,3.196 -0.975,4.604c-1.57,4.117 -5.362,7.096 -10.508,7.096c-8.017,0 -11.646,-6.338 -11.7,-11.592l0,-0.054Z" style="fill:#231f20;fill-rule:nonzero;"/><path d="M540.069,198.282l4.333,0l16.629,-40.192l-4.387,0l-9.425,23.563l-9.154,-23.563l-4.28,0l11.267,28.6l-4.983,11.592Z" style="fill:#231f20;fill-rule:nonzero;"/><rect x="580.585" y="147.148" width="4.008" height="40.083" style="fill:#231f20;fill-rule:nonzero;"/><path d="M621.589,158.09l-4.009,0l0,6.121c-1.408,-3.304 -5.687,-6.933 -11.916,-6.933c-8.884,0 -15.113,6.825 -15.113,15.383c0,8.017 5.634,15.383 15.113,15.383c5.2,0 9.641,-2.437 11.916,-6.825l0,6.013l4.009,0l0,-29.142Zm-27.084,14.571c0,-6.5 4.875,-11.7 11.592,-11.7c5.146,0 9.046,2.979 10.671,6.987c0.65,1.409 0.975,3.034 0.921,4.659c0,1.571 -0.325,3.196 -0.975,4.604c-1.571,4.117 -5.363,7.096 -10.509,7.096c-8.016,0 -11.645,-6.338 -11.7,-11.592l0,-0.054Z" style="fill:#231f20;fill-rule:nonzero;"/></g><g><path d="M131.223,253.911l3.955,0l0,-25.946l6.391,0l0,-3.196l-6.391,0l0,-10.941l-3.955,0l0,10.941l-5.741,0l0,3.196l5.741,0l0,25.946Z" style="fill:#231f20;fill-rule:nonzero;"/><path d="M172.661,240.478c0.433,-4.659 -1.192,-9.155 -4.55,-12.405c-2.763,-2.654 -6.555,-4.116 -10.671,-4.116c-8.721,0 -15.329,6.879 -15.329,15.437c0,7.259 5.254,15.329 15.383,15.329c2.979,0 5.85,-0.812 8.287,-2.383c2.492,-1.571 4.55,-3.954 5.905,-7.096l-4.171,0c-1.896,3.792 -5.525,6.013 -10.021,6.013c-4.929,0.054 -11.158,-3.467 -11.375,-10.779l26.542,0Zm-26.488,-3.196c0.379,-5.309 5.038,-9.913 11.321,-9.913c6.012,-0.162 10.942,4.821 11.212,9.913l-22.533,0Z" style="fill:#231f20;fill-rule:nonzero;"/><path d="M174.123,253.911l4.875,0l7.746,-11.754l7.8,11.754l4.875,0l-10.238,-14.95l9.696,-14.192l-4.767,0l-7.366,11.213l-7.313,-11.213l-4.875,0l9.75,14.192l-10.183,14.95Z" style="fill:#231f20;fill-rule:nonzero;"/><path d="M205.973,253.911l3.954,0l0,-25.946l6.391,0l0,-3.196l-6.391,0l0,-10.941l-3.954,0l0,10.941l-5.742,0l0,3.196l5.742,0l0,25.946Z" style="fill:#231f20;fill-rule:nonzero;"/><path d="M247.518,224.769l-4.008,0l0,16.467c0,6.067 -3.467,9.696 -9.534,9.75c-6.554,0.054 -9.37,-4.171 -9.37,-10.454l0,-15.763l-3.955,0l0,16.521c0,7.096 3.196,13.271 12.296,13.433c5.2,0.055 9.154,-2.22 10.779,-6.012l0,5.2l3.792,0l0,-29.142Z" style="fill:#231f20;fill-rule:nonzero;"/><path d="M255.318,253.911l3.954,0l0,-15.871c0,-6.608 3.142,-10.129 8.775,-10.129l0.379,0l0,-3.954c-3.412,0.108 -7.204,1.246 -9.317,5.579l0,-4.767l-3.791,0l0,29.142Z" style="fill:#231f20;fill-rule:nonzero;"/><path d="M299.734,224.769l-4.008,0l0,6.121c-1.409,-3.304 -5.688,-6.933 -11.917,-6.933c-8.883,0 -15.112,6.825 -15.112,15.383c0,8.017 5.633,15.383 15.112,15.383c5.2,0 9.642,-2.437 11.917,-6.825l0,6.013l4.008,0l0,-29.142Zm-27.083,14.571c0,-6.5 4.875,-11.7 11.591,-11.7c5.146,0 9.046,2.979 10.671,6.988c0.65,1.408 0.975,3.033 0.921,4.658c0,1.571 -0.325,3.196 -0.975,4.604c-1.571,4.117 -5.362,7.096 -10.508,7.096c-8.017,0 -11.646,-6.338 -11.7,-11.592l0,-0.054Z" style="fill:#231f20;fill-rule:nonzero;"/><path d="M352.276,213.828l-4.009,0l0,16.845c-1.3,-3.033 -5.525,-6.716 -11.916,-6.716c-8.721,0 -15.005,6.662 -15.005,15.329c0,8.179 5.742,15.437 15.059,15.437c6.066,0 9.966,-2.979 12.025,-6.825l0,6.013l3.846,0l0,-40.083Zm-26.975,25.458c0,-6.554 4.929,-11.646 11.645,-11.646c3.25,0 6.175,1.246 8.234,3.358c2.112,2.059 3.358,4.875 3.358,8.18c0.108,3.25 -1.137,6.229 -3.25,8.395c-2.058,2.113 -5.037,3.413 -8.287,3.413c-7.584,0 -11.646,-5.796 -11.7,-11.646l0,-0.054Z" style="fill:#231f20;fill-rule:nonzero;"/><path d="M388.513,240.478c0.433,-4.659 -1.192,-9.155 -4.55,-12.405c-2.763,-2.654 -6.554,-4.116 -10.671,-4.116c-8.721,0 -15.329,6.879 -15.329,15.437c0,7.259 5.254,15.329 15.383,15.329c2.979,0 5.85,-0.812 8.288,-2.383c2.491,-1.571 4.55,-3.954 5.904,-7.096l-4.171,0c-1.896,3.792 -5.525,6.013 -10.021,6.013c-4.929,0.054 -11.158,-3.467 -11.375,-10.779l26.542,0Zm-26.488,-3.196c0.379,-5.309 5.038,-9.913 11.321,-9.913c6.013,-0.162 10.942,4.821 11.213,9.913l-22.534,0Z" style="fill:#231f20;fill-rule:nonzero;"/><rect x="409.8" y="213.828" width="4.008" height="40.083" style="fill:#231f20;fill-rule:nonzero;"/><path d="M419.766,239.34c0,8.179 6.067,15.329 15.438,15.329c9.425,0 15.492,-7.15 15.492,-15.329c0,-8.179 -6.067,-15.383 -15.492,-15.383c-9.371,0 -15.438,7.204 -15.438,15.329l0,0.054Zm3.955,0c0,-6.662 5.037,-11.646 11.483,-11.646c6.5,0 11.483,4.984 11.483,11.646c0,6.663 -4.983,11.646 -11.483,11.646c-6.446,0 -11.483,-4.983 -11.483,-11.592l0,-0.054Z" style="fill:#231f20;fill-rule:nonzero;"/><path d="M473.77,232.082c-0.271,-5.904 -4.821,-8.125 -8.883,-8.125c-4.929,0 -9.1,3.087 -9.1,8.341c0.108,4.605 3.358,6.284 7.529,7.53c5.038,1.462 7.204,2.816 7.313,6.12c0.054,2.98 -2.275,5.471 -5.634,5.471c-2.925,0 -5.904,-1.787 -6.066,-5.796l-3.955,0c0.055,6.121 5.255,9.1 9.967,9.1c5.525,0 9.858,-3.9 9.642,-9.262c-0.217,-6.229 -4.875,-7.421 -9.046,-8.558c-3.521,-1.03 -5.633,-2.167 -5.742,-4.93c-0.108,-2.545 1.842,-4.712 5.038,-4.712c2.925,0 4.983,1.733 4.983,4.821l3.954,0Z" style="fill:#231f20;fill-rule:nonzero;"/><path d="M494.895,239.34c0,8.179 6.067,15.329 15.437,15.329c9.425,0 15.492,-7.15 15.492,-15.329c0,-8.179 -6.067,-15.383 -15.492,-15.383c-9.37,0 -15.437,7.204 -15.437,15.329l0,0.054Zm3.954,0c0,-6.662 5.038,-11.646 11.483,-11.646c6.5,0 11.484,4.984 11.484,11.646c0,6.663 -4.984,11.646 -11.484,11.646c-6.445,0 -11.483,-4.983 -11.483,-11.592l0,-0.054Z" style="fill:#231f20;fill-rule:nonzero;"/><path d="M531.836,253.911l3.846,0l0,-6.013c2.167,4.171 6.446,6.825 11.917,6.825c8.829,0 15.112,-6.662 15.112,-15.437c0,-9.1 -6.716,-15.329 -15.004,-15.329c-5.037,0.054 -9.425,2.546 -11.862,6.662l0,-16.791l-4.009,0l0,40.083Zm26.867,-14.571c0,5.633 -3.954,11.646 -11.7,11.646c-6.771,0 -11.375,-5.363 -11.375,-11.7c0,-6.446 4.821,-11.646 11.537,-11.646c6.5,0 11.538,4.983 11.538,11.646l0,0.054Z" style="fill:#231f20;fill-rule:nonzero;"/><path d="M569.753,219.407l4.008,0l0,-5.579l-4.008,0l0,5.579Zm4.008,5.362l-4.008,0l0,28.817c0,4.333 -0.379,7.583 -4.604,8.287c-0.217,0.055 -0.488,0.055 -0.759,0.055l0,3.358c0.434,-0.054 0.867,-0.054 1.246,-0.054c7.692,-0.867 8.125,-6.554 8.125,-11.754l0,-28.709Z" style="fill:#231f20;fill-rule:nonzero;"/><path d="M610.702,240.478c0.434,-4.659 -1.191,-9.155 -4.55,-12.405c-2.762,-2.654 -6.554,-4.116 -10.67,-4.116c-8.721,0 -15.33,6.879 -15.33,15.437c0,7.259 5.255,15.329 15.384,15.329c2.979,0 5.85,-0.812 8.287,-2.383c2.492,-1.571 4.55,-3.954 5.904,-7.096l-4.17,0c-1.896,3.792 -5.525,6.013 -10.021,6.013c-4.929,0.054 -11.159,-3.467 -11.375,-10.779l26.541,0Zm-26.487,-3.196c0.379,-5.309 5.037,-9.913 11.321,-9.913c6.012,-0.162 10.941,4.821 11.212,9.913l-22.533,0Z" style="fill:#231f20;fill-rule:nonzero;"/><path d="M618.665,253.911l3.954,0l0,-25.946l6.391,0l0,-3.196l-6.391,0l0,-10.941l-3.954,0l0,10.941l-5.742,0l0,3.196l5.742,0l0,25.946Z" style="fill:#231f20;fill-rule:nonzero;"/><path d="M629.985,239.34c0,8.179 6.067,15.329 15.438,15.329c9.425,0 15.491,-7.15 15.491,-15.329c0,-8.179 -6.066,-15.383 -15.491,-15.383c-9.371,0 -15.438,7.204 -15.438,15.329l0,0.054Zm3.954,0c0,-6.662 5.038,-11.646 11.484,-11.646c6.5,0 11.483,4.984 11.483,11.646c0,6.663 -4.983,11.646 -11.483,11.646c-6.446,0 -11.484,-4.983 -11.484,-11.592l0,-0.054Z" style="fill:#231f20;fill-rule:nonzero;"/><path d="M683.989,232.082c-0.271,-5.904 -4.821,-8.125 -8.883,-8.125c-4.929,0 -9.1,3.087 -9.1,8.341c0.108,4.605 3.358,6.284 7.529,7.53c5.037,1.462 7.204,2.816 7.312,6.12c0.055,2.98 -2.275,5.471 -5.633,5.471c-2.925,0 -5.904,-1.787 -6.067,-5.796l-3.954,0c0.054,6.121 5.254,9.1 9.967,9.1c5.525,0 9.858,-3.9 9.642,-9.262c-0.217,-6.229 -4.875,-7.421 -9.046,-8.558c-3.521,-1.03 -5.634,-2.167 -5.742,-4.93c-0.108,-2.545 1.842,-4.712 5.038,-4.712c2.925,0 4.983,1.733 4.983,4.821l3.954,0Z" style="fill:#231f20;fill-rule:nonzero;"/><rect x="692.439" y="247.953" width="4.225" height="5.958" style="fill:#231f20;fill-rule:nonzero;"/></g></g></svg>