<svg clip-rule="evenodd" fill-rule="evenodd" stroke-miterlimit="10" viewBox="0 0 822 335" xmlns="http://www.w3.org/2000/svg"><g opacity=".7"><g fill="#f7f39a" fill-rule="nonzero"><path d="m20.814 207.356 1.821 4.729v-8.05z" stroke="#ffd211" stroke-width="4.12"/><path d="m20.814 142.883 1.821 3.275v-8.321z" stroke="#ffd211" stroke-width="4.12"/><path d="m22.637 21.026v65.567h18.483l-18.483 51.246v8.316l15.996 28.721-15.996 29.159v8.054l18.908 48.029h-18.908v53.212h777.787v-292.304h-777.787z"/></g><path d="m22.637 137.838v8.32l15.996 28.721-15.996 29.154v8.055l18.908 48.033h-18.908v53.208h777.787v-292.304h-777.787v65.567h18.483l-18.483 51.246z" fill="none" stroke="#ffd211" stroke-width="4.12"/></g><g fill="#231f20" fill-rule="nonzero"><path d="m127.107 109.394c.271 7.638 5.85 11.863 12.566 11.863 7.475 0 12.405-5.2 12.405-11.754 0-7.367-5.959-9.48-9.75-10.942-6.067-2.058-10.021-3.25-9.967-8.125 0-4.171 3.304-6.879 7.312-6.879 5.309 0 6.609 3.954 7.096 6.554h4.442c-.65-7.583-6.392-10.346-11.375-10.346-6.121 0-12.025 3.954-11.917 11.05 0 7.583 6.988 9.642 10.238 10.617 4.658 1.516 9.479 2.762 9.479 8.396 0 4.441-3.846 7.637-8.017 7.637-2.491 0-7.366-1.408-8.016-8.071z"/><path d="m157.981 86.048h4.009v-5.579h-4.009zm0 34.505h4.009v-29.142h-4.009z"/><path d="m169.789 120.553h3.955v-15.871c0-6.609 3.141-10.129 8.775-10.129h.379v-3.955c-3.413.109-7.204 1.246-9.317 5.58v-4.767h-3.792z"/><path d="m211.822 91.411h-4.225l-9.316 24.212-9.371-24.212h-4.225l11.483 29.142h4.171z"/><path d="m243.185 107.119c.433-4.658-1.192-9.154-4.55-12.404-2.763-2.654-6.555-4.117-10.671-4.117-8.721 0-15.329 6.88-15.329 15.438 0 7.258 5.254 15.329 15.383 15.329 2.979 0 5.85-.812 8.287-2.383 2.492-1.571 4.55-3.954 5.905-7.096h-4.171c-1.896 3.792-5.525 6.012-10.021 6.012-4.929.055-11.158-3.466-11.375-10.779zm-26.488-3.196c.379-5.308 5.038-9.912 11.321-9.912 6.012-.163 10.942 4.821 11.212 9.912z"/><path d="m264.472 131.603h4.008v-17.009c1.354 3.034 5.525 6.771 11.971 6.771 9.046 0 14.95-7.15 14.95-15.275 0-7.529-5.146-15.492-14.95-15.492-5.579 0-9.804 2.655-12.187 6.88v-6.067h-3.792zm26.921-25.621c0 6.662-5.038 11.646-11.592 11.646-3.25 0-6.175-1.246-8.233-3.305-2.113-2.112-3.359-5.037-3.359-8.287 0-3.304 1.246-6.229 3.25-8.342 2.113-2.112 4.984-3.412 8.234-3.412 7.854 0 11.7 6.175 11.7 11.646z"/><path d="m330.772 91.411h-4.009v6.121c-1.408-3.304-5.687-6.934-11.916-6.934-8.884 0-15.113 6.825-15.113 15.384 0 8.016 5.633 15.383 15.113 15.383 5.2 0 9.641-2.437 11.916-6.825v6.013h4.009zm-27.084 14.571c0-6.5 4.875-11.7 11.592-11.7 5.146 0 9.046 2.979 10.671 6.987.65 1.409.975 3.034.921 4.659 0 1.57-.325 3.195-.975 4.604-1.571 4.116-5.363 7.096-10.509 7.096-8.016 0-11.646-6.338-11.7-11.592z"/><path d="m338.571 120.553h3.954v-15.871c0-6.609 3.142-10.129 8.775-10.129h.38v-3.955c-3.413.109-7.205 1.246-9.317 5.58v-4.767h-3.792z"/><path d="m382.988 91.411h-4.009v6.121c-1.408-3.304-5.687-6.934-11.916-6.934-8.884 0-15.113 6.825-15.113 15.384 0 8.016 5.633 15.383 15.113 15.383 5.2 0 9.641-2.437 11.916-6.825v6.013h4.009zm-27.084 14.571c0-6.5 4.875-11.7 11.592-11.7 5.146 0 9.046 2.979 10.671 6.987.65 1.409.975 3.034.921 4.659 0 1.57-.325 3.195-.975 4.604-1.571 4.116-5.363 7.096-10.509 7.096-8.016 0-11.646-6.338-11.7-11.592z"/><path d="m435.529 80.469h-4.008v16.846c-1.3-3.033-5.525-6.717-11.917-6.717-8.721 0-15.004 6.663-15.004 15.33 0 8.179 5.741 15.437 15.058 15.437 6.067 0 9.967-2.979 12.025-6.825v6.013h3.846zm-26.975 25.459c0-6.555 4.929-11.646 11.646-11.646 3.25 0 6.175 1.246 8.233 3.358 2.113 2.058 3.358 4.875 3.358 8.179.109 3.25-1.137 6.229-3.25 8.396-2.058 2.113-5.037 3.413-8.287 3.413-7.583 0-11.646-5.796-11.7-11.646z"/><path d="m443.437 86.048h4.008v-5.579h-4.008zm0 34.505h4.008v-29.142h-4.008z"/><path d="m472.308 98.723c-.271-5.904-4.821-8.125-8.884-8.125-4.929 0-9.1 3.088-9.1 8.342.109 4.604 3.359 6.283 7.529 7.529 5.038 1.463 7.205 2.817 7.313 6.121.054 2.979-2.275 5.471-5.633 5.471-2.925 0-5.905-1.788-6.067-5.796h-3.954c.054 6.121 5.254 9.1 9.966 9.1 5.525 0 9.859-3.9 9.642-9.262-.217-6.23-4.875-7.421-9.046-8.559-3.521-1.029-5.633-2.166-5.741-4.929-.109-2.546 1.841-4.712 5.037-4.712 2.925 0 4.983 1.733 4.983 4.82z"/><path d="m481.895 120.553h3.954v-25.946h6.392v-3.196h-6.392v-10.942h-3.954v10.942h-5.742v3.196h5.742z"/><path d="m496.628 86.048h4.008v-5.579h-4.008zm0 34.505h4.008v-29.142h-4.008z"/><path d="m508.436 120.553h4.008v-16.467c0-6.067 3.467-9.696 9.479-9.75 6.554-.108 9.371 4.171 9.371 10.454v15.763h3.954v-16.575c0-7.096-3.196-13.271-12.241-13.38-5.2-.108-9.155 2.221-10.834 6.013.054-1.95.054-3.575.054-5.2h-3.791z"/><path d="m572.136 91.411h-3.955v6.012c-1.625-3.575-6.066-6.825-11.808-6.825-8.883 0-15.221 6.717-15.221 15.438 0 8.396 6.121 15.329 15.221 15.329 5.633 0 9.696-2.871 11.754-6.987v3.737c0 7.258-5.687 11.592-11.266 11.592-1.842 0-4.334-.596-6.446-2.113-1.734-1.191-2.763-2.6-3.467-3.846h-4.604c1.842 5.255 7.15 9.425 14.408 9.425 3.954 0 8.179-1.679 11.05-4.495 2.546-2.438 4.334-5.959 4.334-11.484zm-26.975 14.517c0-6.825 5.2-11.592 11.591-11.592 4.171 0 7.096 1.733 8.884 4.062 1.841 2.33 2.654 5.2 2.654 7.638-.054 3.196-1.246 6.121-3.25 8.233-2.059 2.113-4.875 3.359-8.179 3.359-7.53 0-11.7-5.742-11.7-11.646z"/><path d="m606.694 91.411h-4.009v16.467c0 6.066-3.466 9.695-9.533 9.75-6.554.054-9.371-4.171-9.371-10.455v-15.762h-3.954v16.521c0 7.096 3.196 13.271 12.296 13.433 5.2.054 9.154-2.221 10.779-6.012v5.2h3.792z"/><path d="m614.493 86.048h4.009v-5.579h-4.009zm0 34.505h4.009v-29.142h-4.009z"/><path d="m626.301 120.553h3.954v-15.871c0-6.609 3.142-10.129 8.775-10.129h.38v-3.955c-3.413.109-7.205 1.246-9.317 5.58v-4.767h-3.792z"/><path d="m128.948 147.148h4.008v40.083h-4.008z"/><path d="m169.952 158.09h-4.008v6.121c-1.408-3.304-5.688-6.933-11.917-6.933-8.883 0-15.112 6.825-15.112 15.383 0 8.017 5.633 15.383 15.112 15.383 5.2 0 9.642-2.437 11.917-6.825v6.013h4.008zm-27.083 14.571c0-6.5 4.875-11.7 11.592-11.7 5.145 0 9.045 2.979 10.67 6.987.65 1.409.975 3.034.921 4.659 0 1.571-.325 3.196-.975 4.604-1.571 4.117-5.362 7.096-10.508 7.096-8.017 0-11.646-6.338-11.7-11.592z"/><path d="m195.627 187.232h3.954v-25.946h6.392v-3.196h-6.392v-10.942h-3.954v10.942h-5.742v3.196h5.742z"/><path d="m237.064 173.798c.433-4.658-1.192-9.154-4.55-12.404-2.763-2.654-6.554-4.116-10.671-4.116-8.721 0-15.329 6.879-15.329 15.437 0 7.258 5.254 15.329 15.383 15.329 2.979 0 5.85-.812 8.288-2.383 2.491-1.571 4.55-3.954 5.904-7.096h-4.171c-1.896 3.792-5.525 6.013-10.021 6.013-4.929.054-11.158-3.467-11.375-10.78zm-26.488-3.195c.38-5.309 5.038-9.913 11.321-9.913 6.013-.162 10.942 4.821 11.213 9.913z"/><path d="m242.751 187.232h4.008v-16.25c0-3.088.705-5.309 1.95-6.988 1.192-1.733 3.467-3.087 6.175-2.979 2.98.054 5.038 1.192 6.392 3.088 1.138 1.787 1.625 3.683 1.517 6.933v16.196h4.008v-16.196c0-3.304.271-4.929 1.733-6.988 1.355-2.004 3.846-3.033 6.392-3.033 2.763 0 4.604.921 5.796 2.438 1.679 1.895 2.167 4.658 2.167 7.745v16.034h4.008v-16.196c0-5.146-.758-8.288-3.304-10.833-2.004-2.059-4.875-2.925-7.854-2.925-3.25 0-6.121 1.245-8.017 3.25-1.083 1.137-1.679 2.275-2.113 3.087-.162-.325-1.137-2.275-1.895-3.033-2.059-2.329-4.93-3.304-7.963-3.304-3.304 0-7.367 1.733-9.208 5.416v-4.604h-3.792z"/><path d="m294.534 198.282h4.008v-17.009c1.355 3.034 5.525 6.771 11.971 6.771 9.046 0 14.95-7.15 14.95-15.275 0-7.529-5.146-15.491-14.95-15.491-5.579 0-9.804 2.654-12.187 6.879v-6.067h-3.792zm26.921-25.621c0 6.662-5.038 11.646-11.592 11.646-3.25 0-6.175-1.246-8.233-3.304-2.113-2.113-3.358-5.038-3.358-8.288 0-3.304 1.245-6.229 3.25-8.342 2.112-2.112 4.983-3.412 8.233-3.412 7.854 0 11.7 6.175 11.7 11.646z"/><path d="m359.913 173.798c.433-4.658-1.192-9.154-4.55-12.404-2.763-2.654-6.554-4.116-10.671-4.116-8.721 0-15.329 6.879-15.329 15.437 0 7.258 5.254 15.329 15.383 15.329 2.979 0 5.85-.812 8.288-2.383 2.491-1.571 4.55-3.954 5.904-7.096h-4.171c-1.896 3.792-5.525 6.013-10.021 6.013-4.929.054-11.158-3.467-11.375-10.78zm-26.488-3.195c.38-5.309 5.038-9.913 11.321-9.913 6.013-.162 10.942 4.821 11.213 9.913z"/><path d="m365.6 187.232h3.954v-15.871c0-6.608 3.142-10.129 8.775-10.129h.379v-3.954c-3.412.108-7.204 1.245-9.316 5.579v-4.767h-3.792z"/><path d="m410.016 158.09h-4.008v6.121c-1.408-3.304-5.688-6.933-11.917-6.933-8.883 0-15.112 6.825-15.112 15.383 0 8.017 5.633 15.383 15.112 15.383 5.2 0 9.642-2.437 11.917-6.825v6.013h4.008zm-27.083 14.571c0-6.5 4.875-11.7 11.592-11.7 5.145 0 9.045 2.979 10.67 6.987.65 1.409.975 3.034.921 4.659 0 1.571-.325 3.196-.975 4.604-1.571 4.117-5.362 7.096-10.508 7.096-8.017 0-11.646-6.338-11.7-11.592z"/><path d="m420.091 187.232h3.954v-25.946h6.392v-3.196h-6.392v-10.942h-3.954v10.942h-5.742v3.196h5.742z"/><path d="m461.636 158.09h-4.008v16.467c0 6.066-3.467 9.696-9.533 9.75-6.554.054-9.371-4.171-9.371-10.454v-15.763h-3.954v16.521c0 7.096 3.196 13.271 12.296 13.433 5.2.054 9.154-2.221 10.779-6.012v5.2h3.791z"/><path d="m469.436 187.232h3.954v-15.871c0-6.608 3.142-10.129 8.775-10.129h.379v-3.954c-3.412.108-7.204 1.245-9.316 5.579v-4.767h-3.792z"/><path d="m513.852 158.09h-4.008v6.121c-1.408-3.304-5.687-6.933-11.917-6.933-8.883 0-15.112 6.825-15.112 15.383 0 8.017 5.633 15.383 15.112 15.383 5.2 0 9.642-2.437 11.917-6.825v6.013h4.008zm-27.083 14.571c0-6.5 4.875-11.7 11.592-11.7 5.146 0 9.046 2.979 10.671 6.987.65 1.409.975 3.034.92 4.659 0 1.571-.325 3.196-.975 4.604-1.57 4.117-5.362 7.096-10.508 7.096-8.017 0-11.646-6.338-11.7-11.592z"/><path d="m540.069 198.282h4.333l16.629-40.192h-4.387l-9.425 23.563-9.154-23.563h-4.28l11.267 28.6z"/><path d="m580.585 147.148h4.008v40.083h-4.008z"/><path d="m621.589 158.09h-4.009v6.121c-1.408-3.304-5.687-6.933-11.916-6.933-8.884 0-15.113 6.825-15.113 15.383 0 8.017 5.634 15.383 15.113 15.383 5.2 0 9.641-2.437 11.916-6.825v6.013h4.009zm-27.084 14.571c0-6.5 4.875-11.7 11.592-11.7 5.146 0 9.046 2.979 10.671 6.987.65 1.409.975 3.034.921 4.659 0 1.571-.325 3.196-.975 4.604-1.571 4.117-5.363 7.096-10.509 7.096-8.016 0-11.645-6.338-11.7-11.592z"/><path d="m131.223 253.911h3.955v-25.946h6.391v-3.196h-6.391v-10.941h-3.955v10.941h-5.741v3.196h5.741z"/><path d="m172.661 240.478c.433-4.659-1.192-9.155-4.55-12.405-2.763-2.654-6.555-4.116-10.671-4.116-8.721 0-15.329 6.879-15.329 15.437 0 7.259 5.254 15.329 15.383 15.329 2.979 0 5.85-.812 8.287-2.383 2.492-1.571 4.55-3.954 5.905-7.096h-4.171c-1.896 3.792-5.525 6.013-10.021 6.013-4.929.054-11.158-3.467-11.375-10.779zm-26.488-3.196c.379-5.309 5.038-9.913 11.321-9.913 6.012-.162 10.942 4.821 11.212 9.913z"/><path d="m174.123 253.911h4.875l7.746-11.754 7.8 11.754h4.875l-10.238-14.95 9.696-14.192h-4.767l-7.366 11.213-7.313-11.213h-4.875l9.75 14.192z"/><path d="m205.973 253.911h3.954v-25.946h6.391v-3.196h-6.391v-10.941h-3.954v10.941h-5.742v3.196h5.742z"/><path d="m247.518 224.769h-4.008v16.467c0 6.067-3.467 9.696-9.534 9.75-6.554.054-9.37-4.171-9.37-10.454v-15.763h-3.955v16.521c0 7.096 3.196 13.271 12.296 13.433 5.2.055 9.154-2.22 10.779-6.012v5.2h3.792z"/><path d="m255.318 253.911h3.954v-15.871c0-6.608 3.142-10.129 8.775-10.129h.379v-3.954c-3.412.108-7.204 1.246-9.317 5.579v-4.767h-3.791z"/><path d="m299.734 224.769h-4.008v6.121c-1.409-3.304-5.688-6.933-11.917-6.933-8.883 0-15.112 6.825-15.112 15.383 0 8.017 5.633 15.383 15.112 15.383 5.2 0 9.642-2.437 11.917-6.825v6.013h4.008zm-27.083 14.571c0-6.5 4.875-11.7 11.591-11.7 5.146 0 9.046 2.979 10.671 6.988.65 1.408.975 3.033.921 4.658 0 1.571-.325 3.196-.975 4.604-1.571 4.117-5.362 7.096-10.508 7.096-8.017 0-11.646-6.338-11.7-11.592z"/><path d="m352.276 213.828h-4.009v16.845c-1.3-3.033-5.525-6.716-11.916-6.716-8.721 0-15.005 6.662-15.005 15.329 0 8.179 5.742 15.437 15.059 15.437 6.066 0 9.966-2.979 12.025-6.825v6.013h3.846zm-26.975 25.458c0-6.554 4.929-11.646 11.645-11.646 3.25 0 6.175 1.246 8.234 3.358 2.112 2.059 3.358 4.875 3.358 8.18.108 3.25-1.137 6.229-3.25 8.395-2.058 2.113-5.037 3.413-8.287 3.413-7.584 0-11.646-5.796-11.7-11.646z"/><path d="m388.513 240.478c.433-4.659-1.192-9.155-4.55-12.405-2.763-2.654-6.554-4.116-10.671-4.116-8.721 0-15.329 6.879-15.329 15.437 0 7.259 5.254 15.329 15.383 15.329 2.979 0 5.85-.812 8.288-2.383 2.491-1.571 4.55-3.954 5.904-7.096h-4.171c-1.896 3.792-5.525 6.013-10.021 6.013-4.929.054-11.158-3.467-11.375-10.779zm-26.488-3.196c.379-5.309 5.038-9.913 11.321-9.913 6.013-.162 10.942 4.821 11.213 9.913z"/><path d="m409.8 213.828h4.008v40.083h-4.008z"/><path d="m419.766 239.34c0 8.179 6.067 15.329 15.438 15.329 9.425 0 15.492-7.15 15.492-15.329s-6.067-15.383-15.492-15.383c-9.371 0-15.438 7.204-15.438 15.329zm3.955 0c0-6.662 5.037-11.646 11.483-11.646 6.5 0 11.483 4.984 11.483 11.646 0 6.663-4.983 11.646-11.483 11.646-6.446 0-11.483-4.983-11.483-11.592z"/><path d="m473.77 232.082c-.271-5.904-4.821-8.125-8.883-8.125-4.929 0-9.1 3.087-9.1 8.341.108 4.605 3.358 6.284 7.529 7.53 5.038 1.462 7.204 2.816 7.313 6.12.054 2.98-2.275 5.471-5.634 5.471-2.925 0-5.904-1.787-6.066-5.796h-3.955c.055 6.121 5.255 9.1 9.967 9.1 5.525 0 9.858-3.9 9.642-9.262-.217-6.229-4.875-7.421-9.046-8.558-3.521-1.03-5.633-2.167-5.742-4.93-.108-2.545 1.842-4.712 5.038-4.712 2.925 0 4.983 1.733 4.983 4.821z"/><path d="m494.895 239.34c0 8.179 6.067 15.329 15.437 15.329 9.425 0 15.492-7.15 15.492-15.329s-6.067-15.383-15.492-15.383c-9.37 0-15.437 7.204-15.437 15.329zm3.954 0c0-6.662 5.038-11.646 11.483-11.646 6.5 0 11.484 4.984 11.484 11.646 0 6.663-4.984 11.646-11.484 11.646-6.445 0-11.483-4.983-11.483-11.592z"/><path d="m531.836 253.911h3.846v-6.013c2.167 4.171 6.446 6.825 11.917 6.825 8.829 0 15.112-6.662 15.112-15.437 0-9.1-6.716-15.329-15.004-15.329-5.037.054-9.425 2.546-11.862 6.662v-16.791h-4.009zm26.867-14.571c0 5.633-3.954 11.646-11.7 11.646-6.771 0-11.375-5.363-11.375-11.7 0-6.446 4.821-11.646 11.537-11.646 6.5 0 11.538 4.983 11.538 11.646z"/><path d="m569.753 219.407h4.008v-5.579h-4.008zm4.008 5.362h-4.008v28.817c0 4.333-.379 7.583-4.604 8.287-.217.055-.488.055-.759.055v3.358c.434-.054.867-.054 1.246-.054 7.692-.867 8.125-6.554 8.125-11.754z"/><path d="m610.702 240.478c.434-4.659-1.191-9.155-4.55-12.405-2.762-2.654-6.554-4.116-10.67-4.116-8.721 0-15.33 6.879-15.33 15.437 0 7.259 5.255 15.329 15.384 15.329 2.979 0 5.85-.812 8.287-2.383 2.492-1.571 4.55-3.954 5.904-7.096h-4.17c-1.896 3.792-5.525 6.013-10.021 6.013-4.929.054-11.159-3.467-11.375-10.779zm-26.487-3.196c.379-5.309 5.037-9.913 11.321-9.913 6.012-.162 10.941 4.821 11.212 9.913z"/><path d="m618.665 253.911h3.954v-25.946h6.391v-3.196h-6.391v-10.941h-3.954v10.941h-5.742v3.196h5.742z"/><path d="m629.985 239.34c0 8.179 6.067 15.329 15.438 15.329 9.425 0 15.491-7.15 15.491-15.329s-6.066-15.383-15.491-15.383c-9.371 0-15.438 7.204-15.438 15.329zm3.954 0c0-6.662 5.038-11.646 11.484-11.646 6.5 0 11.483 4.984 11.483 11.646 0 6.663-4.983 11.646-11.483 11.646-6.446 0-11.484-4.983-11.484-11.592z"/><path d="m683.989 232.082c-.271-5.904-4.821-8.125-8.883-8.125-4.929 0-9.1 3.087-9.1 8.341.108 4.605 3.358 6.284 7.529 7.53 5.037 1.462 7.204 2.816 7.312 6.12.055 2.98-2.275 5.471-5.633 5.471-2.925 0-5.904-1.787-6.067-5.796h-3.954c.054 6.121 5.254 9.1 9.967 9.1 5.525 0 9.858-3.9 9.642-9.262-.217-6.229-4.875-7.421-9.046-8.558-3.521-1.03-5.634-2.167-5.742-4.93-.108-2.545 1.842-4.712 5.038-4.712 2.925 0 4.983 1.733 4.983 4.821z"/><path d="m692.439 247.953h4.225v5.958h-4.225z"/></g></svg>