<svg clip-rule="evenodd" fill-rule="evenodd" stroke-miterlimit="10" viewBox="0 0 822 335" xmlns="http://www.w3.org/2000/svg"><g fill-rule="nonzero"><path d="m20.842 21.277v60.233l24.391 51.917-23.183 32.479 23.183 31.992-24.391 55.395v60.288h779.612v-292.304h-779.612z" fill="#c8badb" opacity=".7" stroke="#a368ab" stroke-width="4.12"/><g fill="#231f20"><path d="m110.201 76.312c.271 7.638 5.85 11.863 12.567 11.863 7.475 0 12.404-5.2 12.404-11.755 0-7.366-5.958-9.479-9.75-10.941-6.067-2.059-10.021-3.25-9.967-8.125 0-4.171 3.305-6.879 7.313-6.879 5.308 0 6.608 3.954 7.096 6.554h4.441c-.65-7.584-6.391-10.346-11.375-10.346-6.12 0-12.025 3.954-11.916 11.05 0 7.583 6.987 9.642 10.237 10.617 4.659 1.516 9.479 2.762 9.479 8.395 0 4.442-3.845 7.638-8.016 7.638-2.492 0-7.367-1.408-8.017-8.071z"/><path d="m141.076 52.966h4.008v-5.579h-4.008zm0 34.504h4.008v-29.141h-4.008z"/><path d="m152.884 87.47h3.954v-15.87c0-6.609 3.142-10.13 8.775-10.13h.379v-3.954c-3.412.109-7.204 1.246-9.316 5.579v-4.766h-3.792z"/><path d="m194.917 58.329h-4.225l-9.317 24.212-9.37-24.212h-4.225l11.483 29.141h4.171z"/><path d="m226.279 74.037c.434-4.658-1.191-9.154-4.55-12.404-2.762-2.654-6.554-4.117-10.67-4.117-8.721 0-15.33 6.879-15.33 15.438 0 7.258 5.255 15.329 15.384 15.329 2.979 0 5.85-.813 8.287-2.383 2.492-1.571 4.55-3.955 5.904-7.096h-4.17c-1.896 3.791-5.525 6.012-10.021 6.012-4.929.054-11.159-3.466-11.375-10.779zm-26.487-3.196c.379-5.308 5.037-9.912 11.321-9.912 6.012-.163 10.941 4.821 11.212 9.912z"/><path d="m247.567 98.52h4.008v-17.008c1.354 3.033 5.525 6.771 11.971 6.771 9.046 0 14.95-7.15 14.95-15.275 0-7.529-5.146-15.492-14.95-15.492-5.579 0-9.804 2.654-12.188 6.879v-6.066h-3.791zm26.92-25.62c0 6.662-5.037 11.645-11.591 11.645-3.25 0-6.175-1.245-8.234-3.304-2.112-2.112-3.358-5.037-3.358-8.287 0-3.304 1.246-6.229 3.25-8.342 2.113-2.112 4.983-3.412 8.233-3.412 7.855 0 11.7 6.175 11.7 11.645z"/><path d="m313.866 58.329h-4.008v6.121c-1.408-3.305-5.688-6.934-11.917-6.934-8.883 0-15.112 6.825-15.112 15.384 0 8.016 5.633 15.383 15.112 15.383 5.2 0 9.642-2.438 11.917-6.825v6.012h4.008zm-27.083 14.571c0-6.5 4.875-11.7 11.592-11.7 5.145 0 9.045 2.979 10.67 6.987.65 1.408.975 3.033.921 4.658 0 1.571-.325 3.196-.975 4.605-1.571 4.116-5.362 7.095-10.508 7.095-8.017 0-11.646-6.337-11.7-11.591z"/><path d="m321.666 87.47h3.954v-15.87c0-6.609 3.142-10.13 8.775-10.13h.379v-3.954c-3.412.109-7.204 1.246-9.316 5.579v-4.766h-3.792z"/><path d="m366.082 58.329h-4.008v6.121c-1.408-3.305-5.687-6.934-11.917-6.934-8.883 0-15.112 6.825-15.112 15.384 0 8.016 5.633 15.383 15.112 15.383 5.2 0 9.642-2.438 11.917-6.825v6.012h4.008zm-27.083 14.571c0-6.5 4.875-11.7 11.592-11.7 5.146 0 9.046 2.979 10.671 6.987.65 1.408.975 3.033.92 4.658 0 1.571-.325 3.196-.975 4.605-1.57 4.116-5.362 7.095-10.508 7.095-8.017 0-11.646-6.337-11.7-11.591z"/><path d="m418.624 47.387h-4.008v16.846c-1.3-3.033-5.525-6.717-11.917-6.717-8.721 0-15.004 6.663-15.004 15.329 0 8.18 5.741 15.438 15.058 15.438 6.067 0 9.967-2.979 12.025-6.825v6.012h3.846zm-26.975 25.458c0-6.554 4.929-11.645 11.646-11.645 3.25 0 6.175 1.245 8.233 3.358 2.113 2.058 3.358 4.875 3.358 8.179.109 3.25-1.137 6.229-3.25 8.396-2.058 2.112-5.037 3.412-8.287 3.412-7.583 0-11.646-5.795-11.7-11.645z"/><path d="m426.532 52.966h4.008v-5.579h-4.008zm0 34.504h4.008v-29.141h-4.008z"/><path d="m455.402 65.641c-.27-5.904-4.82-8.125-8.883-8.125-4.929 0-9.1 3.088-9.1 8.342.108 4.604 3.358 6.283 7.529 7.529 5.038 1.463 7.204 2.817 7.313 6.121.054 2.979-2.275 5.471-5.634 5.471-2.925 0-5.904-1.788-6.066-5.796h-3.954c.054 6.121 5.254 9.1 9.966 9.1 5.525 0 9.859-3.9 9.642-9.263-.217-6.229-4.875-7.42-9.046-8.558-3.521-1.029-5.633-2.167-5.742-4.929-.108-2.546 1.842-4.713 5.038-4.713 2.925 0 4.983 1.734 4.983 4.821z"/><path d="m464.99 87.47h3.954v-25.945h6.392v-3.196h-6.392v-10.942h-3.954v10.942h-5.742v3.196h5.742z"/><path d="m479.723 52.966h4.008v-5.579h-4.008zm0 34.504h4.008v-29.141h-4.008z"/><path d="m491.531 87.47h4.008v-16.466c0-6.067 3.467-9.696 9.479-9.75 6.554-.109 9.371 4.171 9.371 10.454v15.762h3.954v-16.575c0-7.095-3.196-13.27-12.241-13.379-5.2-.108-9.155 2.221-10.834 6.013.054-1.95.054-3.575.054-5.2h-3.791z"/><path d="m555.231 58.329h-3.955v6.012c-1.625-3.575-6.066-6.825-11.808-6.825-8.883 0-15.221 6.717-15.221 15.438 0 8.396 6.121 15.329 15.221 15.329 5.633 0 9.696-2.871 11.754-6.988v3.738c0 7.258-5.687 11.592-11.266 11.592-1.842 0-4.334-.596-6.446-2.113-1.734-1.192-2.763-2.6-3.467-3.846h-4.604c1.842 5.254 7.15 9.425 14.408 9.425 3.954 0 8.179-1.679 11.05-4.496 2.546-2.437 4.334-5.958 4.334-11.483zm-26.975 14.516c0-6.825 5.2-11.591 11.591-11.591 4.171 0 7.096 1.733 8.884 4.062 1.841 2.329 2.654 5.2 2.654 7.638-.054 3.196-1.246 6.121-3.25 8.233-2.059 2.113-4.875 3.358-8.179 3.358-7.53 0-11.7-5.741-11.7-11.645z"/><path d="m589.789 58.329h-4.009v16.466c0 6.067-3.466 9.696-9.533 9.75-6.554.055-9.371-4.17-9.371-10.454v-15.762h-3.954v16.521c0 7.095 3.196 13.27 12.296 13.433 5.2.054 9.154-2.221 10.779-6.013v5.2h3.792z"/><path d="m597.588 52.966h4.009v-5.579h-4.009zm0 34.504h4.009v-29.141h-4.009z"/><path d="m609.396 87.47h3.955v-15.87c0-6.609 3.141-10.13 8.775-10.13h.379v-3.954c-3.413.109-7.204 1.246-9.317 5.579v-4.766h-3.792z"/><path d="m670.767 74.037c.433-4.658-1.192-9.154-4.55-12.404-2.763-2.654-6.554-4.117-10.671-4.117-8.721 0-15.329 6.879-15.329 15.438 0 7.258 5.254 15.329 15.383 15.329 2.979 0 5.85-.813 8.288-2.383 2.491-1.571 4.55-3.955 5.904-7.096h-4.171c-1.896 3.791-5.525 6.012-10.021 6.012-4.929.054-11.158-3.466-11.375-10.779zm-26.488-3.196c.38-5.308 5.038-9.912 11.321-9.912 6.013-.163 10.942 4.821 11.213 9.912z"/><path d="m676.454 47.387h4.008v40.083h-4.008z"/><path d="m129.105 132.32c-.27-5.904-4.82-8.125-8.883-8.125-4.929 0-9.1 3.088-9.1 8.342.108 4.604 3.358 6.283 7.529 7.529 5.038 1.463 7.204 2.817 7.313 6.121.054 2.979-2.275 5.471-5.634 5.471-2.925 0-5.904-1.788-6.066-5.796h-3.954c.054 6.121 5.254 9.1 9.966 9.1 5.525 0 9.859-3.9 9.642-9.262-.217-6.23-4.875-7.421-9.046-8.559-3.521-1.029-5.633-2.166-5.742-4.929-.108-2.546 1.842-4.712 5.038-4.712 2.925 0 4.983 1.733 4.983 4.82z"/><path d="m165.668 125.008h-4.009v6.121c-1.408-3.304-5.687-6.934-11.916-6.934-8.884 0-15.113 6.825-15.113 15.384 0 8.016 5.634 15.383 15.113 15.383 5.2 0 9.641-2.437 11.916-6.825v6.013h4.009zm-27.084 14.571c0-6.5 4.875-11.7 11.592-11.7 5.146 0 9.046 2.979 10.671 6.987.65 1.409.975 3.034.921 4.659 0 1.57-.325 3.195-.975 4.604-1.571 4.116-5.363 7.096-10.509 7.096-8.016 0-11.645-6.338-11.7-11.592z"/><path d="m173.467 154.15h3.846v-6.013c2.167 4.171 6.446 6.825 11.917 6.825 8.829 0 15.112-6.662 15.112-15.437 0-9.1-6.716-15.33-15.004-15.33-5.037.055-9.425 2.546-11.862 6.663v-16.792h-4.009zm26.867-14.571c0 5.633-3.954 11.646-11.7 11.646-6.771 0-11.375-5.363-11.375-11.7 0-6.446 4.821-11.646 11.538-11.646 6.5 0 11.537 4.983 11.537 11.646z"/><path d="m208.513 139.579c0 8.179 6.067 15.329 15.437 15.329 9.425 0 15.492-7.15 15.492-15.329s-6.067-15.384-15.492-15.384c-9.37 0-15.437 7.205-15.437 15.33zm3.954 0c0-6.663 5.038-11.646 11.483-11.646 6.5 0 11.484 4.983 11.484 11.646 0 6.662-4.984 11.646-11.484 11.646-6.445 0-11.483-4.984-11.483-11.592z"/><path d="m245.454 154.15h3.954v-15.871c0-6.609 3.142-10.129 8.775-10.129h.38v-3.955c-3.413.109-7.205 1.246-9.317 5.58v-4.767h-3.792z"/><path d="m307.637 114.066h-4.008v16.846c-1.3-3.033-5.525-6.717-11.917-6.717-8.721 0-15.004 6.663-15.004 15.33 0 8.179 5.742 15.437 15.058 15.437 6.067 0 9.967-2.979 12.025-6.825v6.013h3.846zm-26.975 25.459c0-6.555 4.929-11.646 11.646-11.646 3.25 0 6.175 1.246 8.233 3.358 2.113 2.058 3.359 4.875 3.359 8.179.108 3.25-1.138 6.229-3.25 8.396-2.059 2.113-5.038 3.413-8.288 3.413-7.583 0-11.646-5.796-11.7-11.646z"/><path d="m343.874 140.716c.434-4.658-1.191-9.154-4.55-12.404-2.762-2.654-6.554-4.117-10.671-4.117-8.72 0-15.329 6.88-15.329 15.438 0 7.258 5.254 15.329 15.384 15.329 2.979 0 5.85-.812 8.287-2.383 2.492-1.571 4.55-3.954 5.904-7.096h-4.171c-1.895 3.792-5.525 6.012-10.02 6.012-4.93.055-11.159-3.466-11.375-10.779zm-26.487-3.196c.379-5.308 5.037-9.912 11.321-9.912 6.012-.163 10.941 4.821 11.212 9.912z"/><path d="m365.161 114.066h4.008v40.083h-4.008z"/><path d="m375.128 139.579c0 8.179 6.066 15.329 15.437 15.329 9.425 0 15.492-7.15 15.492-15.329s-6.067-15.384-15.492-15.384c-9.371 0-15.437 7.205-15.437 15.33zm3.954 0c0-6.663 5.037-11.646 11.483-11.646 6.5 0 11.483 4.983 11.483 11.646 0 6.662-4.983 11.646-11.483 11.646-6.446 0-11.483-4.984-11.483-11.592z"/><path d="m429.131 132.32c-.27-5.904-4.82-8.125-8.883-8.125-4.929 0-9.1 3.088-9.1 8.342.108 4.604 3.358 6.283 7.529 7.529 5.038 1.463 7.204 2.817 7.313 6.121.054 2.979-2.275 5.471-5.634 5.471-2.925 0-5.904-1.788-6.066-5.796h-3.954c.054 6.121 5.254 9.1 9.966 9.1 5.525 0 9.859-3.9 9.642-9.262-.217-6.23-4.875-7.421-9.046-8.559-3.521-1.029-5.633-2.166-5.742-4.929-.108-2.546 1.842-4.712 5.038-4.712 2.925 0 4.983 1.733 4.983 4.82z"/><path d="m479.13 125.008h-4.008v6.121c-1.408-3.304-5.687-6.934-11.917-6.934-8.883 0-15.112 6.825-15.112 15.384 0 8.016 5.633 15.383 15.112 15.383 5.2 0 9.642-2.437 11.917-6.825v6.013h4.008zm-27.083 14.571c0-6.5 4.875-11.7 11.592-11.7 5.146 0 9.046 2.979 10.671 6.987.65 1.409.975 3.034.92 4.659 0 1.57-.325 3.195-.975 4.604-1.57 4.116-5.362 7.096-10.508 7.096-8.017 0-11.646-6.338-11.7-11.592z"/><path d="m486.93 114.066h4.008v40.083h-4.008z"/><path d="m498.684 119.645h4.008v-5.579h-4.008zm0 34.505h4.008v-29.142h-4.008z"/><path d="m510.492 154.15h4.008v-16.25c0-3.088.705-5.309 1.95-6.988 1.192-1.733 3.467-3.087 6.175-2.979 2.98.054 5.038 1.192 6.392 3.087 1.138 1.788 1.625 3.684 1.517 6.934v16.196h4.008v-16.196c0-3.304.271-4.929 1.733-6.988 1.355-2.004 3.846-3.033 6.392-3.033 2.763 0 4.604.921 5.796 2.437 1.679 1.896 2.167 4.659 2.167 7.746v16.034h4.008v-16.196c0-5.146-.758-8.288-3.304-10.834-2.004-2.058-4.875-2.925-7.854-2.925-3.25 0-6.121 1.246-8.017 3.25-1.083 1.138-1.679 2.275-2.113 3.088-.162-.325-1.137-2.275-1.895-3.033-2.059-2.33-4.93-3.305-7.963-3.305-3.304 0-7.367 1.734-9.208 5.417v-4.604h-3.792z"/><path d="m590.604 140.716c.434-4.658-1.191-9.154-4.55-12.404-2.762-2.654-6.554-4.117-10.671-4.117-8.72 0-15.329 6.88-15.329 15.438 0 7.258 5.254 15.329 15.384 15.329 2.979 0 5.85-.812 8.287-2.383 2.492-1.571 4.55-3.954 5.904-7.096h-4.171c-1.895 3.792-5.525 6.012-10.02 6.012-4.93.055-11.159-3.466-11.375-10.779zm-26.487-3.196c.379-5.308 5.037-9.912 11.321-9.912 6.012-.163 10.941 4.821 11.212 9.912z"/><path d="m596.292 154.15h4.008v-16.467c0-6.067 3.467-9.696 9.479-9.75 6.554-.108 9.371 4.171 9.371 10.454v15.763h3.954v-16.575c0-7.096-3.196-13.271-12.242-13.38-5.2-.108-9.154 2.221-10.833 6.013.054-1.95.054-3.575.054-5.2h-3.791z"/><path d="m633.125 154.15h3.954v-25.946h6.391v-3.196h-6.391v-10.942h-3.954v10.942h-5.742v3.196h5.742z"/><path d="m644.445 139.579c0 8.179 6.067 15.329 15.438 15.329 9.425 0 15.491-7.15 15.491-15.329s-6.066-15.384-15.491-15.384c-9.371 0-15.438 7.205-15.438 15.33zm3.954 0c0-6.663 5.038-11.646 11.484-11.646 6.5 0 11.483 4.983 11.483 11.646 0 6.662-4.983 11.646-11.483 11.646-6.446 0-11.484-4.984-11.484-11.592z"/><path d="m698.449 132.32c-.271-5.904-4.821-8.125-8.883-8.125-4.929 0-9.1 3.088-9.1 8.342.108 4.604 3.358 6.283 7.529 7.529 5.037 1.463 7.204 2.817 7.312 6.121.055 2.979-2.275 5.471-5.633 5.471-2.925 0-5.904-1.788-6.067-5.796h-3.954c.054 6.121 5.254 9.1 9.967 9.1 5.525 0 9.858-3.9 9.642-9.262-.217-6.23-4.875-7.421-9.046-8.559-3.521-1.029-5.634-2.166-5.742-4.929-.108-2.546 1.842-4.712 5.038-4.712 2.925 0 4.983 1.733 4.983 4.82z"/><path d="m711.828 125.008h-4.225v5.958h4.225zm0 23.183h-4.225v5.959h4.225z"/><path d="m141.185 180.745h-4.009v16.846c-1.3-3.033-5.525-6.716-11.916-6.716-8.721 0-15.005 6.662-15.005 15.329 0 8.179 5.742 15.437 15.059 15.437 6.066 0 9.966-2.979 12.025-6.825v6.013h3.846zm-26.975 25.459c0-6.554 4.929-11.646 11.645-11.646 3.25 0 6.175 1.246 8.234 3.358 2.112 2.059 3.358 4.875 3.358 8.179.108 3.25-1.137 6.23-3.25 8.396-2.058 2.113-5.037 3.413-8.287 3.413-7.584 0-11.646-5.796-11.7-11.646z"/><path d="m175.905 191.687h-4.008v16.467c0 6.066-3.467 9.696-9.533 9.75-6.555.054-9.371-4.171-9.371-10.454v-15.763h-3.954v16.521c0 7.096 3.195 13.271 12.295 13.433 5.2.054 9.155-2.221 10.78-6.012v5.2h3.791z"/><path d="m183.705 180.745h4.008v40.083h-4.008z"/><path d="m219.671 210.97c-1.246 3.521-4.983 6.88-10.562 6.934-6.284 0-11.484-4.767-11.484-11.646 0-3.358 1.355-6.5 3.305-8.396 2.437-2.275 4.82-3.304 8.233-3.304 4.117 0 8.721 2.275 10.562 7.204h4.117c-2.004-6.987-8.287-10.887-14.842-10.887-8.829 0-15.383 6.77-15.383 15.383 0 7.8 5.796 15.383 15.654 15.383 6.988 0 12.675-4.496 14.571-10.671z"/><path d="m257.913 207.395c.433-4.658-1.192-9.154-4.55-12.404-2.763-2.654-6.554-4.116-10.671-4.116-8.721 0-15.329 6.879-15.329 15.437 0 7.258 5.254 15.329 15.383 15.329 2.979 0 5.85-.812 8.288-2.383 2.491-1.571 4.55-3.954 5.904-7.096h-4.171c-1.896 3.792-5.525 6.013-10.021 6.013-4.929.054-11.158-3.467-11.375-10.78zm-26.488-3.195c.379-5.309 5.038-9.913 11.321-9.913 6.013-.162 10.942 4.821 11.213 9.913z"/><path d="m280.662 199c-.27-5.905-4.82-8.125-8.883-8.125-4.929 0-9.1 3.087-9.1 8.341.108 4.604 3.358 6.284 7.529 7.529 5.038 1.463 7.204 2.817 7.313 6.121.054 2.979-2.275 5.471-5.634 5.471-2.925 0-5.904-1.787-6.066-5.796h-3.954c.054 6.121 5.254 9.1 9.966 9.1 5.525 0 9.859-3.9 9.642-9.262-.217-6.229-4.875-7.421-9.046-8.559-3.521-1.029-5.633-2.166-5.742-4.929-.108-2.546 1.842-4.712 5.038-4.712 2.925 0 4.983 1.733 4.983 4.821z"/><path d="m293.445 214.816h-4.279l-3.412 10.075h3.629z"/><path d="m329.304 199c-.271-5.905-4.821-8.125-8.884-8.125-4.929 0-9.1 3.087-9.1 8.341.109 4.604 3.359 6.284 7.529 7.529 5.038 1.463 7.205 2.817 7.313 6.121.054 2.979-2.275 5.471-5.633 5.471-2.925 0-5.905-1.787-6.067-5.796h-3.954c.054 6.121 5.254 9.1 9.966 9.1 5.525 0 9.859-3.9 9.642-9.262-.217-6.229-4.875-7.421-9.046-8.559-3.521-1.029-5.633-2.166-5.741-4.929-.109-2.546 1.841-4.712 5.037-4.712 2.925 0 4.983 1.733 4.983 4.821z"/><path d="m365.866 191.687h-4.009v6.121c-1.408-3.304-5.687-6.933-11.916-6.933-8.884 0-15.113 6.825-15.113 15.383 0 8.017 5.634 15.383 15.113 15.383 5.2 0 9.641-2.437 11.916-6.825v6.013h4.009zm-27.084 14.571c0-6.5 4.875-11.7 11.592-11.7 5.146 0 9.046 2.979 10.671 6.987.65 1.409.975 3.034.921 4.659 0 1.571-.325 3.196-.975 4.604-1.571 4.117-5.363 7.096-10.509 7.096-8.016 0-11.645-6.338-11.7-11.592z"/><path d="m373.666 180.745h4.008v40.083h-4.008z"/><path d="m414.669 191.687h-4.008v6.121c-1.408-3.304-5.687-6.933-11.917-6.933-8.883 0-15.112 6.825-15.112 15.383 0 8.017 5.633 15.383 15.112 15.383 5.2 0 9.642-2.437 11.917-6.825v6.013h4.008zm-27.083 14.571c0-6.5 4.875-11.7 11.592-11.7 5.146 0 9.046 2.979 10.671 6.987.65 1.409.975 3.034.92 4.659 0 1.571-.325 3.196-.975 4.604-1.57 4.117-5.362 7.096-10.508 7.096-8.017 0-11.646-6.338-11.7-11.592z"/><path d="m451.611 180.745h-4.009v16.846c-1.3-3.033-5.525-6.716-11.916-6.716-8.721 0-15.004 6.662-15.004 15.329 0 8.179 5.741 15.437 15.058 15.437 6.067 0 9.967-2.979 12.025-6.825v6.013h3.846zm-26.975 25.459c0-6.554 4.929-11.646 11.646-11.646 3.25 0 6.175 1.246 8.233 3.358 2.112 2.059 3.358 4.875 3.358 8.179.109 3.25-1.137 6.23-3.25 8.396-2.058 2.113-5.037 3.413-8.287 3.413-7.584 0-11.646-5.796-11.7-11.646z"/><path d="m457.731 206.258c0 8.179 6.067 15.329 15.438 15.329 9.425 0 15.492-7.15 15.492-15.329s-6.067-15.383-15.492-15.383c-9.371 0-15.438 7.204-15.438 15.329zm3.955 0c0-6.663 5.037-11.646 11.483-11.646 6.5 0 11.483 4.983 11.483 11.646 0 6.662-4.983 11.646-11.483 11.646-6.446 0-11.483-4.984-11.483-11.592z"/><path d="m511.735 199c-.271-5.905-4.821-8.125-8.883-8.125-4.929 0-9.1 3.087-9.1 8.341.108 4.604 3.358 6.284 7.529 7.529 5.038 1.463 7.204 2.817 7.313 6.121.054 2.979-2.275 5.471-5.634 5.471-2.925 0-5.904-1.787-6.066-5.796h-3.955c.055 6.121 5.255 9.1 9.967 9.1 5.525 0 9.858-3.9 9.642-9.262-.217-6.229-4.875-7.421-9.046-8.559-3.521-1.029-5.633-2.166-5.742-4.929-.108-2.546 1.842-4.712 5.038-4.712 2.925 0 4.983 1.733 4.983 4.821z"/><path d="m524.518 214.816h-4.279l-3.412 10.075h3.629z"/><path d="m572.564 191.687h-4.008v6.121c-1.409-3.304-5.688-6.933-11.917-6.933-8.883 0-15.113 6.825-15.113 15.383 0 8.017 5.634 15.383 15.113 15.383 5.2 0 9.642-2.437 11.917-6.825v6.013h4.008zm-27.083 14.571c0-6.5 4.875-11.7 11.591-11.7 5.146 0 9.046 2.979 10.671 6.987.65 1.409.975 3.034.921 4.659 0 1.571-.325 3.196-.975 4.604-1.571 4.117-5.363 7.096-10.508 7.096-8.017 0-11.646-6.338-11.7-11.592z"/><path d="m609.505 191.687h-3.954v6.013c-1.625-3.575-6.067-6.825-11.808-6.825-8.884 0-15.221 6.716-15.221 15.437 0 8.396 6.121 15.329 15.221 15.329 5.633 0 9.696-2.871 11.754-6.987v3.737c0 7.259-5.688 11.592-11.267 11.592-1.841 0-4.333-.596-6.446-2.113-1.733-1.191-2.762-2.6-3.466-3.845h-4.604c1.841 5.254 7.15 9.425 14.408 9.425 3.954 0 8.179-1.68 11.05-4.496 2.546-2.438 4.333-5.959 4.333-11.484zm-26.975 14.517c0-6.825 5.2-11.592 11.592-11.592 4.171 0 7.096 1.733 8.883 4.063 1.842 2.329 2.654 5.2 2.654 7.637-.054 3.196-1.245 6.121-3.25 8.233-2.058 2.113-4.875 3.359-8.179 3.359-7.529 0-11.7-5.742-11.7-11.646z"/><path d="m617.251 220.829h3.954v-15.871c0-6.608 3.142-10.129 8.775-10.129h.379v-3.954c-3.412.108-7.204 1.245-9.316 5.579v-4.767h-3.792z"/><path d="m634.692 186.325h4.009v-5.58h-4.009zm0 34.504h4.009v-29.142h-4.009z"/><path d="m644.713 206.258c0 8.179 6.066 15.329 15.437 15.329 9.425 0 15.492-7.15 15.492-15.329s-6.067-15.383-15.492-15.383c-9.371 0-15.437 7.204-15.437 15.329zm3.954 0c0-6.663 5.037-11.646 11.483-11.646 6.5 0 11.484 4.983 11.484 11.646 0 6.662-4.984 11.646-11.484 11.646-6.446 0-11.483-4.984-11.483-11.592z"/><path d="m698.717 199c-.271-5.905-4.821-8.125-8.884-8.125-4.929 0-9.1 3.087-9.1 8.341.109 4.604 3.359 6.284 7.53 7.529 5.037 1.463 7.204 2.817 7.312 6.121.054 2.979-2.275 5.471-5.633 5.471-2.925 0-5.904-1.787-6.067-5.796h-3.954c.054 6.121 5.254 9.1 9.967 9.1 5.525 0 9.858-3.9 9.641-9.262-.216-6.229-4.875-7.421-9.046-8.559-3.52-1.029-5.633-2.166-5.741-4.929-.109-2.546 1.841-4.712 5.037-4.712 2.925 0 4.984 1.733 4.984 4.821z"/><path d="m110.255 272.937c0 8.179 6.067 15.329 15.438 15.329 9.425 0 15.492-7.15 15.492-15.329s-6.067-15.383-15.492-15.383c-9.371 0-15.438 7.204-15.438 15.329zm3.955 0c0-6.662 5.037-11.646 11.483-11.646 6.5 0 11.483 4.984 11.483 11.646 0 6.663-4.983 11.646-11.483 11.646-6.446 0-11.483-4.983-11.483-11.592z"/><path d="m192.046 258.366h-4.008v6.121c-1.408-3.304-5.687-6.933-11.917-6.933-8.883 0-15.112 6.825-15.112 15.383 0 8.017 5.633 15.383 15.112 15.383 5.2 0 9.642-2.437 11.917-6.825v6.013h4.008zm-27.083 14.571c0-6.5 4.875-11.7 11.592-11.7 5.146 0 9.046 2.979 10.671 6.988.65 1.408.975 3.033.92 4.658 0 1.571-.325 3.196-.975 4.604-1.57 4.117-5.362 7.096-10.508 7.096-8.017 0-11.646-6.338-11.7-11.592z"/><path d="m199.846 287.508h4.008v-16.25c0-3.088.704-5.308 1.95-6.988 1.192-1.733 3.467-3.087 6.175-2.979 2.979.054 5.038 1.192 6.392 3.088 1.137 1.787 1.625 3.683 1.516 6.933v16.196h4.009v-16.196c0-3.304.271-4.929 1.733-6.987 1.354-2.005 3.846-3.034 6.392-3.034 2.762 0 4.604.921 5.796 2.438 1.679 1.896 2.166 4.658 2.166 7.746v16.033h4.009v-16.196c0-5.146-.759-8.287-3.305-10.833-2.004-2.059-4.875-2.925-7.854-2.925-3.25 0-6.121 1.246-8.016 3.25-1.084 1.137-1.68 2.275-2.113 3.087-.162-.325-1.137-2.275-1.896-3.033-2.058-2.329-4.929-3.304-7.962-3.304-3.304 0-7.367 1.733-9.209 5.416v-4.604h-3.791z"/><path d="m280.878 258.366h-4.008v6.121c-1.408-3.304-5.687-6.933-11.917-6.933-8.883 0-15.112 6.825-15.112 15.383 0 8.017 5.633 15.383 15.112 15.383 5.2 0 9.642-2.437 11.917-6.825v6.013h4.008zm-27.083 14.571c0-6.5 4.875-11.7 11.592-11.7 5.146 0 9.046 2.979 10.671 6.988.65 1.408.975 3.033.92 4.658 0 1.571-.325 3.196-.975 4.604-1.57 4.117-5.362 7.096-10.508 7.096-8.017 0-11.646-6.338-11.7-11.592z"/><path d="m288.678 287.508h3.954v-15.871c0-6.608 3.142-10.129 8.775-10.129h.379v-3.954c-3.412.108-7.204 1.246-9.317 5.579v-4.767h-3.791z"/><path d="m333.744 258.366h-3.954v6.013c-1.625-3.575-6.067-6.825-11.809-6.825-8.883 0-15.221 6.716-15.221 15.437 0 8.396 6.121 15.329 15.221 15.329 5.634 0 9.696-2.87 11.754-6.987v3.737c0 7.259-5.687 11.592-11.266 11.592-1.842 0-4.334-.596-6.446-2.112-1.733-1.192-2.763-2.6-3.467-3.846h-4.604c1.842 5.254 7.15 9.425 14.408 9.425 3.955 0 8.18-1.679 11.05-4.496 2.546-2.438 4.334-5.958 4.334-11.483zm-26.975 14.517c0-6.825 5.2-11.592 11.591-11.592 4.171 0 7.096 1.734 8.884 4.063 1.841 2.329 2.654 5.2 2.654 7.637-.054 3.196-1.246 6.121-3.25 8.234-2.058 2.112-4.875 3.358-8.179 3.358-7.529 0-11.7-5.742-11.7-11.646z"/><path d="m339.701 272.937c0 8.179 6.067 15.329 15.438 15.329 9.425 0 15.492-7.15 15.492-15.329s-6.067-15.383-15.492-15.383c-9.371 0-15.438 7.204-15.438 15.329zm3.955 0c0-6.662 5.037-11.646 11.483-11.646 6.5 0 11.483 4.984 11.483 11.646 0 6.663-4.983 11.646-11.483 11.646-6.446 0-11.483-4.983-11.483-11.592z"/><path d="m393.705 265.679c-.271-5.904-4.821-8.125-8.883-8.125-4.93 0-9.1 3.087-9.1 8.341.108 4.605 3.358 6.284 7.529 7.53 5.037 1.462 7.204 2.816 7.312 6.12.054 2.98-2.275 5.471-5.633 5.471-2.925 0-5.904-1.787-6.067-5.796h-3.954c.054 6.121 5.254 9.1 9.967 9.1 5.525 0 9.858-3.9 9.641-9.262-.216-6.229-4.875-7.421-9.045-8.558-3.521-1.03-5.634-2.167-5.742-4.93-.108-2.545 1.842-4.712 5.037-4.712 2.925 0 4.984 1.733 4.984 4.821z"/><path d="m402.154 281.55h4.225v5.958h-4.225z"/></g></g></svg>