<?xml version="1.0" encoding="UTF-8" standalone="no"?><!DOCTYPE svg PUBLIC "-//W3C//DTD SVG 1.1//EN" "http://www.w3.org/Graphics/SVG/1.1/DTD/svg11.dtd"><svg width="100%" height="100%" viewBox="0 0 466 333" version="1.1" xmlns="http://www.w3.org/2000/svg" xmlns:xlink="http://www.w3.org/1999/xlink" xml:space="preserve" xmlns:serif="http://www.serif.com/" style="fill-rule:evenodd;clip-rule:evenodd;stroke-miterlimit:10;"><g><g opacity="0.7"><path d="M21.065,20.975l0,290.438l423.392,0l0,-115.196l-16.429,-30.846l16.429,-32.692l0,-111.704l-423.392,0Z" style="fill:#f7f39a;fill-rule:nonzero;"/><path d="M444.454,311.414l0,-115.2l-16.429,-30.841l16.429,-32.692l0,-111.708l-423.387,0l0,290.441l423.387,0Z" style="fill:none;fill-rule:nonzero;stroke:#ffd211;stroke-width:4.09px;"/></g><path d="M149.184,153.151c1.246,-0.191 2.488,-0.454 3.746,-0.558c1.921,-0.15 1.913,-1.271 1.433,-2.617c-0.679,-1.891 -1.366,-3.783 -2.175,-5.62c-0.325,-0.734 -0.979,-1.321 -1.483,-1.971c-0.517,0.666 -1.25,1.262 -1.517,2.016c-0.679,1.925 -0.758,4.163 -1.791,5.846c-1.634,2.642 -0.909,3.159 1.787,2.904Zm161.679,137.309c4.663,-1.371 8.917,-2.238 12.838,-3.892c3.571,-1.504 3.692,-4.529 0.383,-6.717c-1.816,-1.2 -4.175,-1.67 -6.341,-2.258c-0.584,-0.154 -1.805,0.3 -2.017,0.779c-1.613,3.717 -3.046,7.5 -4.863,12.088Zm-100.558,-98.967c0.092,9.121 -3.704,16.617 -9.421,23.538c1.067,-0.013 1.842,-0.284 2.542,-0.696c2.225,-1.296 4.321,-2.871 6.662,-3.913c2.588,-1.15 3.684,-0.087 3.2,2.65c-0.125,0.738 -0.041,1.509 -0.045,2.259c1.258,-0.021 2.545,0.091 3.766,-0.15c0.288,-0.063 0.6,-1.371 0.454,-2.005c-1.341,-5.85 0.28,-10.97 3.584,-15.795c0.35,-0.513 -0.084,-2.309 -0.55,-2.488c-3.329,-1.279 -6.763,-2.292 -10.192,-3.4Zm-70.95,-42.229c0,1.833 -0.171,3.133 0.071,4.35c0.117,0.558 1.117,1.417 1.596,1.346c1.933,-0.271 3.441,-0.688 3.9,-3.371c0.646,-3.808 2.146,-7.525 3.658,-11.129c0.983,-2.346 3.508,-2.354 4.733,0.008c1.634,3.154 3.175,6.454 4.096,9.863c0.717,2.654 2.4,2.054 3.979,1.87c0.238,-0.029 0.646,-2.083 0.305,-2.95c-2.005,-5.158 -4.038,-10.32 -6.438,-15.295c-0.767,-1.584 -2.546,-2.9 -4.171,-3.73c-0.5,-0.254 -2.046,1.517 -3.116,2.363c-0.263,0.208 -0.588,0.379 -0.796,0.642c-3.946,4.908 -8.6,9.495 -7.817,16.033Zm91.088,46.917c3.02,4.675 7.308,3.941 11.416,3.754c7.067,-0.321 14.075,-2.229 21.221,-0.671c5.558,1.217 11.142,2.271 16.725,3.354c0.483,0.088 1.042,-0.175 1.567,-0.275c-0.229,-0.625 -0.346,-1.325 -0.704,-1.867c-1.98,-2.987 -4.305,-5.791 -5.934,-8.95c-0.862,-1.675 -1.483,-1.866 -3.066,-1.425c-4.063,1.146 -8.109,2.559 -12.259,3.113c-8.908,1.192 -17.875,1.908 -26.816,2.812c-0.646,0.067 -1.296,0.096 -2.15,0.155Zm-85.609,70.991c-4.712,1.25 -8.558,2.404 -12.471,3.279c-4.745,1.059 -8.433,3.796 -11.85,6.955c-1.895,1.754 -1.67,5.641 0.155,7.2c3.05,2.608 5.837,2.35 8.254,0.125c3.046,-2.805 6.337,-5.505 9.946,-7.484c3.354,-1.841 7.283,-2.637 10.908,-4.016c0.621,-0.238 1,-1.092 1.487,-1.667c-2.229,-1.525 -4.462,-3.05 -6.429,-4.392Zm108.459,-42.325c0.283,0.238 0.566,0.475 0.85,0.709c-1.859,3.27 -4.038,6.404 -5.517,9.833c-2.275,5.246 -4.375,10.612 -5.946,16.1c-0.846,2.958 1.079,4.492 3.713,2.912c3.404,-2.033 6.441,-4.875 9.133,-7.825c3.304,-3.629 6.062,-7.75 9.112,-11.608c0.475,-0.6 1.263,-0.95 1.905,-1.421c0.533,1.284 1.779,2.763 1.47,3.809c-1.187,4.091 -3.12,7.979 -4.229,12.091c-0.425,1.567 0.396,3.638 1.179,5.217c0.18,0.358 3.092,0.154 3.796,-0.633c2.55,-2.834 4.934,-5.88 6.938,-9.113c3.087,-4.967 5.825,-10.15 8.683,-15.25c3.442,-6.142 3.071,-12.504 0.979,-18.925c-0.237,-0.717 -0.871,-1.329 -1.391,-1.942c-5.096,-6.004 -12.65,-6.358 -19.446,-7.05c-7.342,-0.75 -14.929,0.317 -22.354,1.13c-5.542,0.612 -10.05,-0.93 -14.309,-4.196c-0.833,-0.642 -2.937,-0.992 -3.462,-0.479c-4.084,3.983 -5.329,8.945 -3.967,14.429c0.413,1.65 1.263,3.479 3.658,1.841c0.342,-0.229 1.084,-0.429 1.275,-0.254c2.588,2.388 3.83,-0.287 5.425,-1.404c2.134,-1.492 4.159,-3.146 6.305,-4.612c0.416,-0.284 1.204,-0.046 1.816,-0.046c-0.183,0.675 -0.146,1.629 -0.587,1.983c-4.404,3.55 -9.163,6.708 -13.246,10.579c-3.071,2.904 -5.596,6.5 -7.729,10.154c-0.738,1.267 -0.2,4.367 0.904,5.342c2.167,1.892 5.796,0.871 7.375,-1.404c1.596,-2.304 2.883,-4.85 4.7,-6.954c3.217,-3.713 6.704,-7.188 10.154,-10.688c0.35,-0.354 1.246,-0.175 1.883,-0.237c0.038,0.521 0.313,1.246 0.067,1.537c-3.275,3.846 -6.662,7.604 -9.95,11.442c-4.087,4.771 -7.079,10.158 -8.537,16.246c-0.234,0.987 0.741,3.054 1.575,3.321c1.75,0.55 3.741,0.741 4.62,-2.055c1.042,-3.316 2.675,-6.462 4.217,-9.604c0.558,-1.125 1.529,-2.183 2.763,-0.354c0.104,0.154 1.637,-0.208 1.733,-0.554c0.675,-2.313 1.025,-4.717 1.704,-7.025c0.996,-3.404 2.421,-3.808 5,-1.454c1.742,1.591 3.038,1.704 4.475,-0.442c0.817,-1.225 2.154,-2.104 3.263,-3.146Zm-44.1,-10.091c-3.346,0.895 -6.775,1.795 -10.184,2.775c-0.471,0.133 -0.858,0.645 -1.229,1.037c-5.458,5.892 -11.133,11.608 -16.304,17.733c-6.613,7.838 -15.063,12.775 -24.496,16.275c-3.721,1.38 -7.683,2.117 -11.475,3.342c-0.7,0.229 -1.733,1.692 -1.55,2.042c1.538,2.925 2.563,6.058 5.475,8.312c3.621,2.813 7.046,5.346 11.967,4.567c1.246,-0.2 2.558,-0.254 3.812,-0.096c0.625,0.083 1.171,0.783 1.759,1.213c-0.596,0.454 -1.146,0.983 -1.796,1.329c-0.375,0.196 -0.909,0.079 -1.375,0.1c-9.463,0.45 -18.2,3.483 -26.409,7.871c-3.979,2.133 -7.104,5.479 -8.77,9.875c-0.917,2.416 -0.121,4.587 2.237,4.729c6,0.366 12.121,0.721 18.033,-0.075c6.292,-0.838 12.321,-3.542 18.613,-4.45c8.575,-1.229 17.296,-1.463 25.942,-2.263c3.179,-0.296 6.341,-0.883 9.466,-1.554c0.713,-0.15 1.371,-1.104 1.829,-1.833c3.396,-5.388 0.571,-10.567 -1.437,-15.221c-2.392,-5.538 -6.258,-10.442 -9.379,-15.688c-0.396,-0.654 -0.134,-1.691 -0.175,-2.558c0.975,0.333 2.262,0.392 2.862,1.063c1.121,1.233 1.817,2.845 2.725,4.275c4.459,6.983 9.879,13.57 9.1,22.62c-0.158,1.834 0.579,2.634 2.554,2.784c4.263,0.333 8.5,1.229 12.759,1.312c2.754,0.05 5.587,-0.75 8.3,-1.483c2.387,-0.642 4.591,-2.004 6.996,-2.538c4.47,-1 9.025,-1.625 13.716,-2.441c-0.162,-0.467 -0.254,-1.029 -0.533,-1.492c-2.15,-3.546 -4.229,-7.137 -6.533,-10.583c-2.2,-3.279 -1.371,-8.138 -5.58,-10.4c-0.391,-0.204 -0.554,-1.313 -0.425,-1.921c0.725,-3.533 1.346,-7.113 2.45,-10.533c0.93,-2.871 2.459,-5.55 3.738,-8.305c0.875,-1.883 -0.071,-3.07 -1.663,-3.741c-0.237,-0.096 -1.354,1.258 -1.675,2.087c-0.9,2.321 -1.741,4.688 -2.32,7.1c-0.43,1.792 -1.242,2.884 -3.055,2.204c-2.237,-0.833 -2.879,0.267 -3.354,2.038c-0.262,1 -0.458,2.142 -1.091,2.875c-1.684,1.937 -0.65,5.975 -5.4,5.662c-6.388,-0.408 -7.513,-1.287 -6.459,-7.67c0.129,-0.788 0.221,-1.605 0.463,-2.363c0.65,-2.029 0.462,-3.058 -2.188,-3.258c-4.441,-0.334 -5.333,-1.667 -5.371,-5.946c-0.037,-4.454 2.871,-7.471 5.096,-10.838c0.875,-1.316 1.754,-2.625 2.629,-3.937c-1.566,-0.442 -3.104,-1.071 -4.704,-1.271c-1.471,-0.187 -3.004,0.175 -4.508,0.129c-1.192,-0.046 -2.371,-0.354 -3.554,-0.546c0.179,-0.9 0.358,-1.8 0.471,-2.345Zm53.691,28.095c-4.371,4.259 -9.012,9.038 -13.962,13.475c-2.042,1.834 -2.725,3.617 -1.609,5.917c1.367,2.796 2.813,5.592 4.58,8.146c2.358,3.4 5.108,6.533 7.554,9.883c0.412,0.575 0.116,1.65 0.154,2.492c-0.817,-0.188 -1.671,-0.288 -2.438,-0.583c-0.82,-0.317 -1.554,-1.175 -2.341,-1.188c-8.296,-0.15 -16.217,1.446 -23.492,5.533c-0.796,0.442 -1.242,1.5 -1.846,2.267c0.834,0.529 1.613,1.342 2.521,1.538c3.933,0.829 7.896,1.6 11.879,2.141c1.554,0.204 3.2,-0.254 4.8,-0.425c6.913,-0.741 13.792,-2.558 20.784,-0.654c1.087,0.296 2.116,1.067 3.191,1.108c7.771,0.317 15.546,0.713 23.321,0.63c3.546,-0.038 7.058,-0.721 10.013,-3.45c4.225,-3.917 5.829,-9.013 7.683,-14.092c0.3,-0.821 1.258,-2.196 1.542,-2.113c3.541,1.08 7.079,2.23 10.479,3.667c2.712,1.146 4.891,3.521 3.85,6.35c-0.884,2.413 -2.988,5.021 -5.263,6.154c-3.408,1.704 -7.408,2.309 -11.208,3.184c-8.942,2.054 -17.85,4.275 -26.871,5.912c-11.404,2.067 -21.712,6.988 -32.129,11.55c-4.625,2.021 -9.633,4.138 -12.4,9.258c3.567,-0.358 6.996,-0.87 10.433,-1.016c10.342,-0.45 20.65,-1.617 31.05,0.037c6.959,1.104 14.071,1.738 21.113,1.7c11.679,-0.062 22.958,-2.725 34.108,-6.166c6.079,-1.88 11.992,-3.767 16.783,-8.055c3.334,-2.991 7.08,-5.858 8.05,-10.5c1.75,-8.416 1.434,-15.991 -6.533,-22.104c-5.354,-4.112 -10.825,-7.012 -17.4,-7.808c-5.292,-0.646 -10.637,-0.854 -15.962,-1.246c-5.896,-0.437 -7.746,-2.375 -7.421,-7.971c0.487,-8.466 -1.763,-16.496 -5.734,-23.683c-3.8,-6.871 -9.812,-12.138 -17.354,-15.242c-0.916,-0.371 -1.983,-0.4 -2.979,-0.587c0.1,1.046 0.192,2.096 0.3,3.141c0.054,0.555 0.354,1.2 0.171,1.663c-1.938,4.829 -3.475,9.896 -6.05,14.371c-3.654,6.341 -7.967,12.321 -12.233,18.291c-1.796,2.509 -4.321,4.834 -7.796,3.534c-3.034,-1.134 -2.854,-4.275 -2.7,-6.821c0.191,-3.054 0.983,-6.067 1.362,-8.238Zm17.613,-119.137l-0.663,-0.221c-0.358,0.667 -0.683,1.354 -1.079,1.996c-2.504,4.067 -4.912,8.783 -9.85,9.829c-6.721,1.425 -13.612,1.792 -20.242,-1.554c-3.816,-1.925 -5.3,-4.667 -5.42,-8.629c-0.146,-4.625 1.7,-8.367 5.12,-11.292c1.225,-1.046 3.417,-2.358 2.655,1.354c-0.109,0.529 0.37,1.209 0.666,1.771c1.338,2.542 3.313,4.046 6.367,3.579c3.646,-0.554 5.821,-3 7.083,-6.121c0.417,-1.037 0.092,-3.104 -0.691,-3.741c-2.905,-2.375 -6.242,-3.909 -10.246,-2.942c-2.55,0.617 -5.117,1.442 -7.709,1.558c-9.054,0.421 -18.25,1.959 -26.883,-2.47c-2.95,-1.517 -4.946,-3.65 -5,-7.067c-0.121,-8.05 4.192,-13.892 10.179,-18.554c2.184,-1.7 1.925,-3.175 0.596,-4.521c-1.879,-1.921 -4.012,-3.983 -6.454,-4.892c-4.817,-1.791 -9.921,-2.841 -14.908,-4.187c-2.496,-0.675 -3.771,0.012 -3.3,2.816c0.154,0.896 -0.009,1.838 0.054,2.755c0.3,4.308 -1.059,7.85 -5.409,9.275c-3.437,1.125 -7.087,1.62 -10.654,2.333c-4.862,0.958 -10.404,-0.842 -14.487,3.046c-1.742,1.658 -3.909,4.166 -3.763,6.133c0.159,2.15 2.717,4.163 4.321,6.163c2.979,3.72 5.854,7.433 6.713,12.333c0.479,2.708 -0.15,5.012 -2.38,6.317c-2.258,1.325 -2.637,3.22 -2.854,5.37c-0.75,7.475 -3.983,14.696 -2.758,22.338c0.437,2.729 1.5,6.996 3.25,7.554c4.425,1.408 8.671,3.85 13.85,3.283c4.771,-0.512 6.771,1.967 7.242,6.688c0.095,0.942 0.512,2.596 0.945,2.654c5.53,0.704 5.913,4.683 5.93,8.867c0.004,1.779 0.67,2.558 2.466,2.383c5.459,-0.533 5.725,0.904 5.129,5.833c-0.42,3.534 1.342,5.175 3.992,5.938c6.8,1.967 13.517,4.583 20.892,3.512c4.191,-0.608 8.454,-0.741 12.637,-1.37c7.488,-1.121 14.967,-2.334 22.396,-3.763c4.608,-0.887 4.629,-1.3 3.471,-5.704c-1.267,-4.813 -1.625,-9.983 1.229,-14.029c4.646,-6.575 11.942,-8.646 19.788,-8.888c0.675,-0.021 1.358,0.204 2.033,0.342c2.354,0.492 4.683,1.079 7.054,1.471c2.904,0.491 4.725,-1.604 5.588,-3.613c0.566,-1.316 -0.367,-3.662 -1.292,-5.146c-3.325,-5.35 -8.721,-7.987 -14.446,-10.041c-5.483,-1.975 -8.854,-5.784 -10.104,-11.375c-0.538,-2.413 -0.717,-4.909 -1.054,-7.371Zm-157.871,131.279c12.175,0.517 24.062,-0.925 35.371,-5.704c6.616,-2.804 12.791,-6.317 17.741,-11.604c4.463,-4.759 8.813,-9.617 13.234,-14.417c6.596,-7.175 13.4,-14.254 17.054,-23.45c0.871,-2.2 0.979,-5.467 -0.075,-7.446c-1.158,-2.166 -1.279,-3.366 -0.088,-5.396c2.413,-4.1 1.071,-6.379 -3.683,-6.412c-3.183,-0.021 -4.283,-1.604 -4.292,-4.45c-0.004,-1.263 0.217,-2.654 -0.233,-3.758c-0.508,-1.221 -1.737,-3.134 -2.537,-3.08c-4.225,0.305 -4.08,-2.516 -4.125,-5.141c-0.067,-3.334 -1.917,-4.504 -4.984,-4.771c-4.104,-0.358 -8.212,-0.796 -12.271,-1.471c-2.216,-0.371 -4.287,-1.667 -6.495,-1.917c-9.284,-1.041 -18.463,-0.133 -27.496,2.117c-0.675,0.167 -1.371,1.133 -1.638,1.879c-1.096,3.079 -1.933,6.25 -3.087,9.304c-0.279,0.738 -1.392,1.167 -2.117,1.73c-0.258,-0.688 -0.837,-1.425 -0.721,-2.046c0.463,-2.479 0.792,-5.075 1.804,-7.35c2.405,-5.421 3.096,-10.929 1.867,-16.679c-0.142,-0.671 -0.75,-1.242 -1.146,-1.863c-0.537,0.504 -1.241,0.917 -1.583,1.525c-2.163,3.808 -4.192,7.688 -6.383,11.475c-0.48,0.817 -1.459,1.358 -2.205,2.025c-0.379,-0.967 -1.079,-1.929 -1.083,-2.892c-0.004,-2.516 0.317,-5.033 0.467,-7.55c0.137,-2.354 -1.2,-2.983 -3.313,-2.758c-3.891,0.425 -5.425,2.617 -4.716,6.775c0.791,4.625 2.195,9.296 -0.03,13.854c-0.629,1.288 -1.841,2.846 -3.054,3.113c-0.825,0.179 -2.129,-1.629 -3.179,-2.592c-0.5,-0.458 -0.846,-1.104 -1.375,-1.521c-6.367,-4.996 -12.325,-10.496 -20.008,-13.721c-4.509,-1.891 -5.875,-1.987 -6.604,2.538c-2.155,13.367 -2.046,26.575 4.308,39.075c0.262,0.512 0.242,1.387 -0.025,1.904c-2.108,4.108 -3.854,8.504 -6.571,12.188c-5.65,7.67 -5.729,16.77 -7.517,25.454c-0.179,0.879 0.305,1.896 0.488,2.858c0.733,-0.554 1.496,-1.071 2.2,-1.658c0.775,-0.654 1.446,-1.446 2.275,-2.021c0.6,-0.408 1.729,-0.963 2.017,-0.729c0.591,0.487 1.091,1.458 1.083,2.233c-0.017,2.171 -0.367,4.338 -0.463,6.513c-0.037,0.75 0.292,1.516 0.45,2.27c0.725,-0.379 1.43,-0.804 2.184,-1.116c1.241,-0.513 2.508,-0.95 3.766,-1.417c0.33,1.246 0.93,2.492 0.925,3.733c-0.012,1.959 0.642,2.613 2.638,2.567c0.662,-0.012 1.95,1.25 1.942,1.917c-0.05,3.65 1.995,4.854 5.208,4.762c3.471,-0.104 6.946,-0.454 10.421,-0.504c0.979,-0.017 2.846,0.721 2.825,0.975c-0.267,2.846 1.896,2.521 3.441,2.6c3.125,0.163 6.259,0.05 9.388,0.05Zm95.508,-221.087c-4.096,1.637 -8.508,3.025 -12.558,5.108c-6.408,3.283 -9.933,8.2 -9.196,15.992c0.6,6.412 2.117,9.275 9.317,10.425c7.316,1.162 14.404,3.191 20.054,8.47c2.921,2.734 2.979,6.959 0.167,9.746c-2.546,2.517 -5.117,5.071 -7.238,7.925c-3.971,5.367 -1.546,12.804 4.833,14.45c10.925,2.817 21.896,1.004 32.8,-0.508c2.35,-0.325 7.684,1.017 9.196,2.942c4.338,5.537 0.446,12 -5.266,14.12c-4.917,1.825 -6.663,0.859 -10.613,-3.8c-0.412,-0.487 -1.529,-1.104 -1.742,-0.937c-2.529,1.992 -2.304,10.354 0.242,12.379c4.154,3.296 17.238,4.254 21.904,1.563c0.559,-0.317 1.1,-0.771 1.459,-1.288c2.204,-3.125 4.841,-6.067 6.379,-9.492c1.546,-3.437 2.587,-7.35 2.696,-11.087c0.108,-3.55 -1.23,-7.146 -2.042,-10.704c-0.192,-0.817 -0.658,-1.775 -1.308,-2.25c-3.059,-2.242 -6.071,-4.613 -9.392,-6.413c-6.179,-3.35 -6.883,-6.704 -4.904,-11.946c1.037,-2.737 2.687,-5.27 4.275,-7.766c2.666,-4.196 2.383,-8.213 -0.938,-11.813c-0.521,-0.562 -0.679,-1.462 -1,-2.204c0.834,0.083 1.821,-0.092 2.475,0.292c4.221,2.458 5.446,9.05 2.779,13.554c-1.833,3.092 -3.629,6.237 -5.07,9.517c-1.55,3.537 -0.346,5.508 2.983,7.504c3.858,2.308 8.242,4.458 10.958,7.821c4.496,5.57 3.779,12.833 3.3,19.487c-0.471,6.575 0.079,12.813 3.271,18.525c1.217,2.175 3.417,4.321 5.683,5.304c5.646,2.454 11.13,4.909 15.6,9.313c3.105,3.058 4.809,9.116 2.934,12.129c-1.763,2.833 -8.184,4.867 -11.425,3.708c-6.125,-2.196 -12.071,-1.991 -17.742,1.438c-4.704,2.841 -8.792,9.166 -7.504,12.991c1.9,5.63 4.412,11.067 6.925,16.471c2.571,5.525 5.712,10.804 8.067,16.413c1.025,2.441 2.404,3.716 4.716,4.371c5.646,1.6 10.184,4.875 14.138,9.058c0.541,0.571 1.108,1.275 1.8,1.517c6.716,2.333 13.141,-0.584 16.321,-6.934c0.666,-1.333 2.545,-2.621 4.045,-2.875c3.18,-0.541 6.48,-0.296 9.725,-0.529c6.271,-0.446 12.18,-4.287 12.046,-10.317c-0.071,-3.57 -0.716,-7.358 -2.121,-10.616c-2.17,-5.025 -1.75,-6.55 3.88,-7.367c3.737,-0.546 7.579,-1.371 9.666,-4.458c3.942,-5.804 7.359,-11.563 4.988,-19.584c-1.767,-5.966 -4.913,-10.312 -9.292,-14.05c-4.417,-3.758 -4.65,-5.733 -0.767,-9.95c6.175,-6.708 9.588,-13.883 7.196,-23.712c-2.041,-8.375 -6.866,-13.783 -13.579,-18.067c-4.787,-3.062 -10.046,-5.391 -15.025,-8.175c-1.833,-1.025 -3.796,-2.125 -5.129,-3.675c-2.554,-2.962 -1.45,-7.5 1.333,-10.866c2.917,-3.525 5.859,-7.305 7.584,-11.467c3.916,-9.442 -5.788,-19.775 -13.438,-21.442c-6.462,-1.412 -13.204,-1.637 -19.833,-2.221c-3.879,-0.345 -4.125,-0.82 -4.254,-4.533c-0.117,-3.104 -0.167,-6.925 -1.925,-9.117c-3.842,-4.795 -9.467,-7.637 -15.488,-9.162c-7.654,-1.942 -13.929,1.012 -19.171,6.358c-2.366,2.409 -3.608,1.2 -4.421,-1.071c-0.937,-2.65 -1.65,-5.395 -2.216,-8.15c-0.525,-2.562 -1.867,-4.045 -4.5,-3.466c-4.775,1.066 -9.784,1.787 -14.175,3.783c-6.984,3.163 -13.229,7.617 -17.767,14.033c-0.383,0.555 -1.404,0.663 -2.129,0.98c-0.238,-0.68 -0.538,-1.338 -0.692,-2.034c-0.296,-1.425 -0.058,-3.2 -0.841,-4.237c-2.717,-3.617 -5.855,-6.584 -10.58,-8.004c-5.029,-1.513 -13.316,-0.534 -17.162,2.962c-2.808,2.554 -6.021,4.708 -8.583,7.471c-4.409,4.758 -9.205,9.2 -11.384,15.708c-3.154,9.413 -3.541,8.6 -12.55,7.717c-5.641,-0.554 -11.4,-1.325 -16.983,-0.783c-9.5,0.92 -16.829,6.266 -21.842,14.07c-2.216,3.45 -3.412,7.963 -0.537,12.042c1.358,1.921 2.841,3.858 4.646,5.342c1.908,1.562 3.404,3.487 2.087,5.454c-0.871,1.308 -3.442,2.037 -5.267,2.079c-5.475,0.125 -10.754,0.938 -15.77,3.067c-5.509,2.329 -8.488,6.996 -10.459,12.241c-1.591,4.242 2.838,8.55 7.063,10.696c2.312,1.179 4.846,1.921 7.266,2.896c2.771,1.129 4.096,3.667 2.784,5.683c-1.104,1.692 -2.425,3.296 -3.879,4.713c-7.046,6.846 -6.842,14.037 -3.35,20.512c1.5,2.775 1.683,4.655 -0.105,6.984c-1.15,1.504 -1.337,2.608 0.734,3.825c2.241,1.321 4.071,3.312 6.104,4.979c0.717,0.592 1.504,1.092 2.254,1.633c0.213,-0.975 0.671,-1.975 0.588,-2.925c-0.33,-3.654 -0.788,-7.291 -1.275,-10.929c-0.517,-3.908 1.67,-7.608 6.487,-8.554c4.404,-0.867 6.033,0.221 7.471,5.054c0.067,0.229 0.471,0.367 0.846,0.633c0.662,-1.333 1.241,-2.562 1.887,-3.758c1.584,-2.954 4.542,-4.037 7.438,-2.971c0.441,0.167 1.541,-0.454 1.821,-0.979c2.487,-4.762 5.575,-9.033 9.95,-12.262c0.662,-0.492 1.9,-1.171 2.295,-0.913c2.288,1.5 5.255,2.813 6.417,5.004c3.113,5.867 5.404,12.154 8.071,18.254c0.321,0.738 0.904,1.363 1.362,2.042c0.242,-0.862 0.713,-1.733 0.688,-2.592c-0.063,-2.287 -0.629,-4.595 -0.483,-6.862c0.383,-5.988 1.037,-11.963 1.579,-17.875c-1.292,1.008 -2.667,2.079 -4.034,3.158c-0.341,-0.166 -0.679,-0.329 -1.02,-0.487c0.512,-1.359 0.687,-3.017 1.6,-4.009c2.27,-2.479 4.979,-4.562 7.291,-7.004c0.884,-0.925 1.75,-2.466 1.617,-3.616c-0.596,-5.305 -4.096,-9.075 -7.542,-12.821c-2.271,-2.463 -4.858,-5.296 -3.45,-8.646c1.509,-3.571 4.184,-6.858 8.338,-7.913c3.325,-0.841 6.779,-1.212 10.191,-1.7c3.663,-0.525 7.4,-0.704 10.992,-1.529c1.617,-0.371 3.921,-1.679 4.267,-2.991c1.237,-4.73 2.108,-9.809 -0.779,-14.242c-3.205,-4.908 -3.617,-14.504 0.095,-18.875c2.309,-2.721 4.88,-5.546 7.938,-7.242c4.267,-2.358 8.771,-5.379 13.833,-3.141Zm45.504,-11.475c6.58,-7.955 15.13,-9.963 24.209,-7c6.129,2 11.787,4.6 15.25,10.07c1.6,2.53 2.116,5.917 2.433,8.98c0.196,1.908 0.45,2.42 2.417,2.583c5.833,0.487 11.683,1.017 17.441,2.029c7.013,1.238 11.759,5.683 15.546,11.538c2.7,4.166 3.713,8.637 2.117,13.008c-1.508,4.121 -4.329,7.792 -6.7,11.579c-1.296,2.079 -3.029,3.904 -4.213,6.033c-0.3,0.538 0.488,2.184 1.221,2.68c2.984,2.025 6.013,4.062 9.259,5.616c7.204,3.45 14.045,7.371 19.345,13.421c1.621,1.854 3.117,4.029 3.934,6.313c1.837,5.141 4.262,10.516 2.729,15.937c-1.392,4.925 -4.125,9.496 -6.517,14.1c-0.854,1.646 -3.154,2.779 -3.479,4.408c-0.267,1.313 1.071,3.475 2.333,4.471c9.35,7.392 13.121,21.004 7.875,31.492c-2.883,5.767 -7.341,10.212 -14.55,10.804c-3.741,0.3 -3.77,0.625 -1.666,3.871c3.921,6.046 3.062,16.787 -2.588,21.079c-2.991,2.271 -7.325,2.904 -11.141,3.963c-1.742,0.483 -3.709,0.341 -5.555,0.229c-2.891,-0.184 -4.554,0.829 -5.854,3.596c-2.433,5.195 -7.446,6.266 -12.671,6.487c-2.329,0.096 -3.041,-0.125 -1.683,2.904c3.35,7.459 6.346,15.209 5.646,23.7c-0.304,3.65 0.787,4.946 4.571,5.171c1.737,0.108 3.504,-0.05 5.225,0.183c6.825,0.934 13.816,1.35 20.387,3.209c3.909,1.104 7.317,4.321 10.65,6.966c7.367,5.834 8.692,13.717 7.184,22.446c-1.209,7.004 -5.913,11.679 -11.325,15.425c-8.992,6.225 -19.4,8.992 -30.159,10.567c-6.029,0.887 -12.016,2.442 -18.071,2.721c-6.545,0.308 -13.304,0.246 -19.687,-1.034c-9.321,-1.87 -18.638,-2.029 -27.946,-1.466c-7.208,0.441 -14.35,2.008 -21.483,3.262c-1.621,0.279 -3.054,1.488 -4.667,1.946c-0.671,0.188 -2.033,-0.271 -2.271,-0.796c-0.271,-0.596 0.092,-1.912 0.646,-2.375c7.338,-6.129 14.342,-12.746 23.55,-16.225c8.396,-3.166 16.783,-6.354 25.158,-9.587c0.505,-0.196 0.855,-0.809 1.275,-1.225c-0.479,-0.225 -0.95,-0.617 -1.441,-0.646c-9.329,-0.546 -18.617,-1.35 -28.034,-0.646c-6.975,0.529 -14.079,-0.371 -21.1,-0.942c-1.504,-0.116 -3.92,-1.312 -4.162,-2.395c-0.85,-3.846 -3.796,-3.655 -6.504,-4.184c-2.996,-0.596 -6.004,-1.116 -8.967,-1.85c-1.817,-0.446 -3.096,-0.533 -3.629,1.709c-0.713,2.983 -3.013,4.133 -5.867,4.425c-1.383,0.145 -2.775,0.366 -4.158,0.316c-11.421,-0.391 -22.571,1.85 -33.729,3.667c-5.463,0.892 -10.667,3.437 -16.129,4.133c-5.7,0.721 -11.571,0.292 -17.355,0.038c-2.72,-0.121 -5.212,-1.521 -5.825,-4.413c-0.3,-1.437 0.321,-3.129 0.759,-4.637c0.379,-1.3 0.691,-2.429 -1.225,-2.184c-3.996,0.525 -6,-2.183 -7.329,-4.962c-1.575,-3.296 0.187,-6.533 2.791,-8.4c3.817,-2.733 8.075,-4.95 12.367,-6.908c2.858,-1.296 6.104,-1.755 9.171,-2.609c0.425,-0.116 1.004,-0.229 1.183,-0.529c0.913,-1.529 -2.658,-7.108 -4.5,-7.104c-9.158,0.037 -18.321,0.167 -27.475,0.004c-1.396,-0.017 -2.729,-1.462 -4.162,-2.096c-1.013,-0.454 -2.142,-0.925 -3.213,-0.908c-4.1,0.062 -8.367,1.492 -11.996,-1.654c-0.666,-0.579 -1.583,-1.279 -1.687,-2.021c-0.279,-1.921 -0.917,-2.696 -3.05,-3.233c-1.359,-0.346 -2.138,-2.909 -3.309,-4.68c-0.116,0.071 -0.7,0.4 -1.275,0.742c-2.504,1.492 -4.104,0.879 -4.82,-1.887c-0.2,-0.78 -0.392,-1.609 -0.325,-2.392c0.287,-3.533 -0.034,-4.846 -3.609,-1.871c-2.004,1.663 -3.1,-0.967 -3.25,-2.508c-0.241,-2.479 0.179,-5.025 0.25,-7.546c0.25,-9.254 3.792,-17.375 8.738,-25.025c1.341,-2.075 2.846,-4.079 3.887,-6.296c0.442,-0.954 0.167,-2.479 -0.275,-3.546c-4.841,-11.704 -6.283,-23.833 -4.466,-36.3c0.4,-2.758 1.562,-5.446 2.654,-8.054c1.133,-2.725 3.671,-3.342 6.204,-1.912c3.937,2.22 7.871,4.454 11.929,6.429c0.921,0.446 3.038,0.262 3.388,-0.329c0.562,-0.95 0.612,-2.834 0,-3.73c-3.83,-5.579 -3.692,-11.55 -1.28,-17.304c1.346,-3.2 4.1,-5.879 6.467,-8.579c2.233,-2.537 2.225,-2.925 -0.792,-4.012c-4.933,-1.771 -9.837,-3.73 -12.92,-8.259c-2.721,-4 -1.488,-12.204 1.725,-15.929c5.95,-6.892 13.6,-9.654 22.466,-9.833c0.696,-0.017 1.421,0.041 2.084,-0.117c1.05,-0.254 2.066,-0.662 3.1,-1.004c-0.68,-0.979 -1.33,-1.988 -2.046,-2.946c-2.134,-2.862 -5.442,-5.462 -6.125,-8.625c-0.688,-3.171 0.566,-7.233 2.15,-10.304c3.75,-7.267 10.312,-12.242 17.804,-14.663c5.721,-1.85 12.304,-1.266 18.512,-1.404c3.096,-0.066 6.209,0.713 9.325,1.034c2.2,0.225 4.155,0.016 4.796,-2.709c2.154,-9.15 8.296,-15.683 14.896,-21.875c4.55,-4.258 9.292,-8.496 15.504,-9.921c3.575,-0.825 7.804,-1.07 11.196,0.05c5.371,1.771 10.529,4.613 12.504,10.721c0.109,0.334 1.796,0.646 2.263,0.304c3.262,-2.366 6.158,-5.329 9.633,-7.295c4.408,-2.492 9.229,-4.3 13.942,-6.242c1.871,-0.767 3.908,-1.183 5.904,-1.6c5.062,-1.067 8.292,2.546 8.783,6.737c0.267,2.317 0.879,4.6 1.479,7.63Z" style="fill:none;fill-rule:nonzero;stroke:#fff;stroke-width:12.97px;stroke-linecap:round;stroke-linejoin:round;"/><path d="M149.184,153.151c1.246,-0.191 2.488,-0.454 3.746,-0.558c1.921,-0.15 1.913,-1.271 1.433,-2.617c-0.679,-1.891 -1.366,-3.783 -2.175,-5.62c-0.325,-0.734 -0.979,-1.321 -1.483,-1.971c-0.517,0.666 -1.25,1.262 -1.517,2.016c-0.679,1.925 -0.758,4.163 -1.791,5.846c-1.634,2.642 -0.909,3.159 1.787,2.904m161.679,137.309c4.663,-1.371 8.917,-2.238 12.838,-3.892c3.571,-1.504 3.692,-4.529 0.383,-6.717c-1.816,-1.2 -4.175,-1.67 -6.341,-2.258c-0.584,-0.154 -1.805,0.3 -2.017,0.779c-1.613,3.717 -3.046,7.5 -4.863,12.088m-100.558,-98.967c0.092,9.121 -3.704,16.617 -9.421,23.538c1.067,-0.013 1.842,-0.284 2.542,-0.696c2.225,-1.296 4.321,-2.871 6.662,-3.913c2.588,-1.15 3.684,-0.087 3.2,2.65c-0.125,0.738 -0.041,1.509 -0.045,2.259c1.258,-0.021 2.545,0.091 3.766,-0.15c0.288,-0.063 0.6,-1.371 0.454,-2.005c-1.341,-5.85 0.28,-10.97 3.584,-15.795c0.35,-0.513 -0.084,-2.309 -0.55,-2.488c-3.329,-1.279 -6.763,-2.292 -10.192,-3.4m-70.95,-42.229c0,1.833 -0.171,3.133 0.071,4.35c0.117,0.558 1.117,1.417 1.596,1.346c1.933,-0.271 3.441,-0.688 3.9,-3.371c0.646,-3.808 2.146,-7.525 3.658,-11.129c0.983,-2.346 3.508,-2.354 4.733,0.008c1.634,3.154 3.175,6.454 4.096,9.863c0.717,2.654 2.4,2.054 3.979,1.87c0.238,-0.029 0.646,-2.083 0.305,-2.95c-2.005,-5.158 -4.038,-10.32 -6.438,-15.295c-0.767,-1.584 -2.546,-2.9 -4.171,-3.73c-0.5,-0.254 -2.046,1.517 -3.116,2.363c-0.263,0.208 -0.588,0.379 -0.796,0.642c-3.946,4.908 -8.6,9.495 -7.817,16.033m91.088,46.917c3.02,4.675 7.308,3.941 11.416,3.754c7.067,-0.321 14.075,-2.229 21.221,-0.671c5.558,1.217 11.142,2.271 16.725,3.354c0.483,0.088 1.042,-0.175 1.567,-0.275c-0.229,-0.625 -0.346,-1.325 -0.704,-1.867c-1.98,-2.987 -4.305,-5.791 -5.934,-8.95c-0.862,-1.675 -1.483,-1.866 -3.066,-1.425c-4.063,1.146 -8.109,2.559 -12.259,3.113c-8.908,1.192 -17.875,1.908 -26.816,2.812c-0.646,0.067 -1.296,0.096 -2.15,0.155m-85.609,70.991c-4.712,1.25 -8.558,2.404 -12.471,3.279c-4.745,1.059 -8.433,3.796 -11.85,6.955c-1.895,1.754 -1.67,5.641 0.155,7.2c3.05,2.608 5.837,2.35 8.254,0.125c3.046,-2.805 6.337,-5.505 9.946,-7.484c3.354,-1.841 7.283,-2.637 10.908,-4.016c0.621,-0.238 1,-1.092 1.487,-1.667c-2.229,-1.525 -4.462,-3.05 -6.429,-4.392m108.459,-42.325c0.283,0.238 0.566,0.475 0.85,0.709c-1.859,3.27 -4.038,6.404 -5.517,9.833c-2.275,5.246 -4.375,10.612 -5.946,16.1c-0.846,2.958 1.079,4.492 3.713,2.912c3.404,-2.033 6.441,-4.875 9.133,-7.825c3.304,-3.629 6.062,-7.75 9.112,-11.608c0.475,-0.6 1.263,-0.95 1.905,-1.421c0.533,1.284 1.779,2.763 1.47,3.809c-1.187,4.091 -3.12,7.979 -4.229,12.091c-0.425,1.567 0.396,3.638 1.179,5.217c0.18,0.358 3.092,0.154 3.796,-0.633c2.55,-2.834 4.934,-5.88 6.938,-9.113c3.087,-4.967 5.825,-10.15 8.683,-15.25c3.442,-6.142 3.071,-12.504 0.979,-18.925c-0.237,-0.717 -0.871,-1.329 -1.391,-1.942c-5.096,-6.004 -12.65,-6.358 -19.446,-7.05c-7.342,-0.75 -14.929,0.317 -22.354,1.13c-5.542,0.612 -10.05,-0.93 -14.309,-4.196c-0.833,-0.642 -2.937,-0.992 -3.462,-0.479c-4.084,3.983 -5.329,8.945 -3.967,14.429c0.413,1.65 1.263,3.479 3.658,1.841c0.342,-0.229 1.084,-0.429 1.275,-0.254c2.588,2.388 3.83,-0.287 5.425,-1.404c2.134,-1.492 4.159,-3.146 6.305,-4.612c0.416,-0.284 1.204,-0.046 1.816,-0.046c-0.183,0.675 -0.146,1.629 -0.587,1.983c-4.404,3.55 -9.163,6.708 -13.246,10.579c-3.071,2.904 -5.596,6.5 -7.729,10.154c-0.738,1.267 -0.2,4.367 0.904,5.342c2.167,1.892 5.796,0.871 7.375,-1.404c1.596,-2.304 2.883,-4.85 4.7,-6.954c3.217,-3.713 6.704,-7.188 10.154,-10.688c0.35,-0.354 1.246,-0.175 1.883,-0.237c0.038,0.521 0.313,1.246 0.067,1.537c-3.275,3.846 -6.662,7.604 -9.95,11.442c-4.087,4.771 -7.079,10.158 -8.537,16.246c-0.234,0.987 0.741,3.054 1.575,3.321c1.75,0.55 3.741,0.741 4.62,-2.055c1.042,-3.316 2.675,-6.462 4.217,-9.604c0.558,-1.125 1.529,-2.183 2.763,-0.354c0.104,0.154 1.637,-0.208 1.733,-0.554c0.675,-2.313 1.025,-4.717 1.704,-7.025c0.996,-3.404 2.421,-3.808 5,-1.454c1.742,1.591 3.038,1.704 4.475,-0.442c0.817,-1.225 2.154,-2.104 3.263,-3.146m-44.1,-10.091c-3.346,0.895 -6.775,1.795 -10.184,2.775c-0.471,0.133 -0.858,0.645 -1.229,1.037c-5.458,5.892 -11.133,11.608 -16.304,17.733c-6.613,7.838 -15.063,12.775 -24.496,16.275c-3.721,1.38 -7.683,2.117 -11.475,3.342c-0.7,0.229 -1.733,1.692 -1.55,2.042c1.538,2.925 2.563,6.058 5.475,8.312c3.621,2.813 7.046,5.346 11.967,4.567c1.246,-0.2 2.558,-0.254 3.812,-0.096c0.625,0.083 1.171,0.783 1.759,1.213c-0.596,0.454 -1.146,0.983 -1.796,1.329c-0.375,0.196 -0.909,0.079 -1.375,0.1c-9.463,0.45 -18.2,3.483 -26.409,7.871c-3.979,2.133 -7.104,5.479 -8.77,9.875c-0.917,2.416 -0.121,4.587 2.237,4.729c6,0.366 12.121,0.721 18.033,-0.075c6.292,-0.838 12.321,-3.542 18.613,-4.45c8.575,-1.229 17.296,-1.463 25.942,-2.263c3.179,-0.296 6.341,-0.883 9.466,-1.554c0.713,-0.15 1.371,-1.104 1.829,-1.833c3.396,-5.388 0.571,-10.567 -1.437,-15.221c-2.392,-5.538 -6.258,-10.442 -9.379,-15.688c-0.396,-0.654 -0.134,-1.691 -0.175,-2.558c0.975,0.333 2.262,0.392 2.862,1.063c1.121,1.233 1.817,2.845 2.725,4.275c4.459,6.983 9.879,13.57 9.1,22.62c-0.158,1.834 0.579,2.634 2.554,2.784c4.263,0.333 8.5,1.229 12.759,1.312c2.754,0.05 5.587,-0.75 8.3,-1.483c2.387,-0.642 4.591,-2.004 6.996,-2.538c4.47,-1 9.025,-1.625 13.716,-2.441c-0.162,-0.467 -0.254,-1.029 -0.533,-1.492c-2.15,-3.546 -4.229,-7.137 -6.533,-10.583c-2.2,-3.279 -1.371,-8.138 -5.58,-10.4c-0.391,-0.204 -0.554,-1.313 -0.425,-1.921c0.725,-3.533 1.346,-7.113 2.45,-10.533c0.93,-2.871 2.459,-5.55 3.738,-8.305c0.875,-1.883 -0.071,-3.07 -1.663,-3.741c-0.237,-0.096 -1.354,1.258 -1.675,2.087c-0.9,2.321 -1.741,4.688 -2.32,7.1c-0.43,1.792 -1.242,2.884 -3.055,2.204c-2.237,-0.833 -2.879,0.267 -3.354,2.038c-0.262,1 -0.458,2.142 -1.091,2.875c-1.684,1.937 -0.65,5.975 -5.4,5.662c-6.388,-0.408 -7.513,-1.287 -6.459,-7.67c0.129,-0.788 0.221,-1.605 0.463,-2.363c0.65,-2.029 0.462,-3.058 -2.188,-3.258c-4.441,-0.334 -5.333,-1.667 -5.371,-5.946c-0.037,-4.454 2.871,-7.471 5.096,-10.838c0.875,-1.316 1.754,-2.625 2.629,-3.937c-1.566,-0.442 -3.104,-1.071 -4.704,-1.271c-1.471,-0.187 -3.004,0.175 -4.508,0.129c-1.192,-0.046 -2.371,-0.354 -3.554,-0.546c0.179,-0.9 0.358,-1.8 0.471,-2.345m53.691,28.095c-4.371,4.259 -9.012,9.038 -13.962,13.475c-2.042,1.834 -2.725,3.617 -1.609,5.917c1.367,2.796 2.813,5.592 4.58,8.146c2.358,3.4 5.108,6.533 7.554,9.883c0.412,0.575 0.116,1.65 0.154,2.492c-0.817,-0.188 -1.671,-0.288 -2.438,-0.583c-0.82,-0.317 -1.554,-1.175 -2.341,-1.188c-8.296,-0.15 -16.217,1.446 -23.492,5.533c-0.796,0.442 -1.242,1.5 -1.846,2.267c0.834,0.529 1.613,1.342 2.521,1.538c3.933,0.829 7.896,1.6 11.879,2.141c1.554,0.204 3.2,-0.254 4.8,-0.425c6.913,-0.741 13.792,-2.558 20.784,-0.654c1.087,0.296 2.116,1.067 3.191,1.108c7.771,0.317 15.546,0.713 23.321,0.63c3.546,-0.038 7.058,-0.721 10.013,-3.45c4.225,-3.917 5.829,-9.013 7.683,-14.092c0.3,-0.821 1.258,-2.196 1.542,-2.113c3.541,1.08 7.079,2.23 10.479,3.667c2.712,1.146 4.891,3.521 3.85,6.35c-0.884,2.413 -2.988,5.021 -5.263,6.154c-3.408,1.704 -7.408,2.309 -11.208,3.184c-8.942,2.054 -17.85,4.275 -26.871,5.912c-11.404,2.067 -21.712,6.988 -32.129,11.55c-4.625,2.021 -9.633,4.138 -12.4,9.258c3.567,-0.358 6.996,-0.87 10.433,-1.016c10.342,-0.45 20.65,-1.617 31.05,0.037c6.959,1.104 14.071,1.738 21.113,1.7c11.679,-0.062 22.958,-2.725 34.108,-6.166c6.079,-1.88 11.992,-3.767 16.783,-8.055c3.334,-2.991 7.08,-5.858 8.05,-10.5c1.75,-8.416 1.434,-15.991 -6.533,-22.104c-5.354,-4.112 -10.825,-7.012 -17.4,-7.808c-5.292,-0.646 -10.637,-0.854 -15.962,-1.246c-5.896,-0.437 -7.746,-2.375 -7.421,-7.971c0.487,-8.466 -1.763,-16.496 -5.734,-23.683c-3.8,-6.871 -9.812,-12.138 -17.354,-15.242c-0.916,-0.371 -1.983,-0.4 -2.979,-0.587c0.1,1.046 0.192,2.096 0.3,3.141c0.054,0.555 0.354,1.2 0.171,1.663c-1.938,4.829 -3.475,9.896 -6.05,14.371c-3.654,6.341 -7.967,12.321 -12.233,18.291c-1.796,2.509 -4.321,4.834 -7.796,3.534c-3.034,-1.134 -2.854,-4.275 -2.7,-6.821c0.191,-3.054 0.983,-6.067 1.362,-8.238m17.613,-119.137l-0.663,-0.221c-0.358,0.667 -0.683,1.354 -1.079,1.996c-2.504,4.067 -4.912,8.783 -9.85,9.829c-6.721,1.425 -13.612,1.792 -20.242,-1.554c-3.816,-1.925 -5.3,-4.667 -5.42,-8.629c-0.146,-4.625 1.7,-8.367 5.12,-11.292c1.225,-1.046 3.417,-2.358 2.655,1.354c-0.109,0.529 0.37,1.209 0.666,1.771c1.338,2.542 3.313,4.046 6.367,3.579c3.646,-0.554 5.821,-3 7.083,-6.121c0.417,-1.037 0.092,-3.104 -0.691,-3.741c-2.905,-2.375 -6.242,-3.909 -10.246,-2.942c-2.55,0.617 -5.117,1.442 -7.709,1.558c-9.054,0.421 -18.25,1.959 -26.883,-2.47c-2.95,-1.517 -4.946,-3.65 -5,-7.067c-0.121,-8.05 4.192,-13.892 10.179,-18.554c2.184,-1.7 1.925,-3.175 0.596,-4.521c-1.879,-1.921 -4.012,-3.983 -6.454,-4.892c-4.817,-1.791 -9.921,-2.841 -14.908,-4.187c-2.496,-0.675 -3.771,0.012 -3.3,2.816c0.154,0.896 -0.009,1.838 0.054,2.755c0.3,4.308 -1.059,7.85 -5.409,9.275c-3.437,1.125 -7.087,1.62 -10.654,2.333c-4.862,0.958 -10.404,-0.842 -14.487,3.046c-1.742,1.658 -3.909,4.166 -3.763,6.133c0.159,2.15 2.717,4.163 4.321,6.163c2.979,3.72 5.854,7.433 6.713,12.333c0.479,2.708 -0.15,5.012 -2.38,6.317c-2.258,1.325 -2.637,3.22 -2.854,5.37c-0.75,7.475 -3.983,14.696 -2.758,22.338c0.437,2.729 1.5,6.996 3.25,7.554c4.425,1.408 8.671,3.85 13.85,3.283c4.771,-0.512 6.771,1.967 7.242,6.688c0.095,0.942 0.512,2.596 0.945,2.654c5.53,0.704 5.913,4.683 5.93,8.867c0.004,1.779 0.67,2.558 2.466,2.383c5.459,-0.533 5.725,0.904 5.129,5.833c-0.42,3.534 1.342,5.175 3.992,5.938c6.8,1.967 13.517,4.583 20.892,3.512c4.191,-0.608 8.454,-0.741 12.637,-1.37c7.488,-1.121 14.967,-2.334 22.396,-3.763c4.608,-0.887 4.629,-1.3 3.471,-5.704c-1.267,-4.813 -1.625,-9.983 1.229,-14.029c4.646,-6.575 11.942,-8.646 19.788,-8.888c0.675,-0.021 1.358,0.204 2.033,0.342c2.354,0.492 4.683,1.079 7.054,1.471c2.904,0.491 4.725,-1.604 5.588,-3.613c0.566,-1.316 -0.367,-3.662 -1.292,-5.146c-3.325,-5.35 -8.721,-7.987 -14.446,-10.041c-5.483,-1.975 -8.854,-5.784 -10.104,-11.375c-0.538,-2.413 -0.717,-4.909 -1.054,-7.371m-157.871,131.279c12.175,0.517 24.062,-0.925 35.371,-5.704c6.616,-2.804 12.791,-6.317 17.741,-11.604c4.463,-4.759 8.813,-9.617 13.234,-14.417c6.596,-7.175 13.4,-14.254 17.054,-23.45c0.871,-2.2 0.979,-5.467 -0.075,-7.446c-1.158,-2.166 -1.279,-3.366 -0.088,-5.396c2.413,-4.1 1.071,-6.379 -3.683,-6.412c-3.183,-0.021 -4.283,-1.604 -4.292,-4.45c-0.004,-1.263 0.217,-2.654 -0.233,-3.758c-0.508,-1.221 -1.737,-3.134 -2.537,-3.08c-4.225,0.305 -4.08,-2.516 -4.125,-5.141c-0.067,-3.334 -1.917,-4.504 -4.984,-4.771c-4.104,-0.358 -8.212,-0.796 -12.271,-1.471c-2.216,-0.371 -4.287,-1.667 -6.495,-1.917c-9.284,-1.041 -18.463,-0.133 -27.496,2.117c-0.675,0.167 -1.371,1.133 -1.638,1.879c-1.096,3.079 -1.933,6.25 -3.087,9.304c-0.279,0.738 -1.392,1.167 -2.117,1.73c-0.258,-0.688 -0.837,-1.425 -0.721,-2.046c0.463,-2.479 0.792,-5.075 1.804,-7.35c2.405,-5.421 3.096,-10.929 1.867,-16.679c-0.142,-0.671 -0.75,-1.242 -1.146,-1.863c-0.537,0.504 -1.241,0.917 -1.583,1.525c-2.163,3.808 -4.192,7.688 -6.383,11.475c-0.48,0.817 -1.459,1.358 -2.205,2.025c-0.379,-0.967 -1.079,-1.929 -1.083,-2.892c-0.004,-2.516 0.317,-5.033 0.467,-7.55c0.137,-2.354 -1.2,-2.983 -3.313,-2.758c-3.891,0.425 -5.425,2.617 -4.716,6.775c0.791,4.625 2.195,9.296 -0.03,13.854c-0.629,1.288 -1.841,2.846 -3.054,3.113c-0.825,0.179 -2.129,-1.629 -3.179,-2.592c-0.5,-0.458 -0.846,-1.104 -1.375,-1.521c-6.367,-4.996 -12.325,-10.496 -20.008,-13.721c-4.509,-1.891 -5.875,-1.987 -6.604,2.538c-2.155,13.367 -2.046,26.575 4.308,39.075c0.262,0.512 0.242,1.387 -0.025,1.904c-2.108,4.108 -3.854,8.504 -6.571,12.188c-5.65,7.67 -5.729,16.77 -7.517,25.454c-0.179,0.879 0.305,1.896 0.488,2.858c0.733,-0.554 1.496,-1.071 2.2,-1.658c0.775,-0.654 1.446,-1.446 2.275,-2.021c0.6,-0.408 1.729,-0.963 2.017,-0.729c0.591,0.487 1.091,1.458 1.083,2.233c-0.017,2.171 -0.367,4.338 -0.463,6.513c-0.037,0.75 0.292,1.516 0.45,2.27c0.725,-0.379 1.43,-0.804 2.184,-1.116c1.241,-0.513 2.508,-0.95 3.766,-1.417c0.33,1.246 0.93,2.492 0.925,3.733c-0.012,1.959 0.642,2.613 2.638,2.567c0.662,-0.012 1.95,1.25 1.942,1.917c-0.05,3.65 1.995,4.854 5.208,4.762c3.471,-0.104 6.946,-0.454 10.421,-0.504c0.979,-0.017 2.846,0.721 2.825,0.975c-0.267,2.846 1.896,2.521 3.441,2.6c3.125,0.163 6.259,0.05 9.388,0.05m95.508,-221.087c-4.096,1.637 -8.508,3.025 -12.558,5.108c-6.408,3.283 -9.933,8.2 -9.196,15.992c0.6,6.412 2.117,9.275 9.317,10.425c7.316,1.162 14.404,3.191 20.054,8.47c2.921,2.734 2.979,6.959 0.167,9.746c-2.546,2.517 -5.117,5.071 -7.238,7.925c-3.971,5.367 -1.546,12.804 4.833,14.45c10.925,2.817 21.896,1.004 32.8,-0.508c2.35,-0.325 7.684,1.017 9.196,2.942c4.338,5.537 0.446,12 -5.266,14.12c-4.917,1.825 -6.663,0.859 -10.613,-3.8c-0.412,-0.487 -1.529,-1.104 -1.742,-0.937c-2.529,1.992 -2.304,10.354 0.242,12.379c4.154,3.296 17.238,4.254 21.904,1.563c0.559,-0.317 1.1,-0.771 1.459,-1.288c2.204,-3.125 4.841,-6.067 6.379,-9.492c1.546,-3.437 2.587,-7.35 2.696,-11.087c0.108,-3.55 -1.23,-7.146 -2.042,-10.704c-0.192,-0.817 -0.658,-1.775 -1.308,-2.25c-3.059,-2.242 -6.071,-4.613 -9.392,-6.413c-6.179,-3.35 -6.883,-6.704 -4.904,-11.946c1.037,-2.737 2.687,-5.27 4.275,-7.766c2.666,-4.196 2.383,-8.213 -0.938,-11.813c-0.521,-0.562 -0.679,-1.462 -1,-2.204c0.834,0.083 1.821,-0.092 2.475,0.292c4.221,2.458 5.446,9.05 2.779,13.554c-1.833,3.092 -3.629,6.237 -5.07,9.517c-1.55,3.537 -0.346,5.508 2.983,7.504c3.858,2.308 8.242,4.458 10.958,7.821c4.496,5.57 3.779,12.833 3.3,19.487c-0.471,6.575 0.079,12.813 3.271,18.525c1.217,2.175 3.417,4.321 5.683,5.304c5.646,2.454 11.13,4.909 15.6,9.313c3.105,3.058 4.809,9.116 2.934,12.129c-1.763,2.833 -8.184,4.867 -11.425,3.708c-6.125,-2.196 -12.071,-1.991 -17.742,1.438c-4.704,2.841 -8.792,9.166 -7.504,12.991c1.9,5.63 4.412,11.067 6.925,16.471c2.571,5.525 5.712,10.804 8.067,16.413c1.025,2.441 2.404,3.716 4.716,4.371c5.646,1.6 10.184,4.875 14.138,9.058c0.541,0.571 1.108,1.275 1.8,1.517c6.716,2.333 13.141,-0.584 16.321,-6.934c0.666,-1.333 2.545,-2.621 4.045,-2.875c3.18,-0.541 6.48,-0.296 9.725,-0.529c6.271,-0.446 12.18,-4.287 12.046,-10.317c-0.071,-3.57 -0.716,-7.358 -2.121,-10.616c-2.17,-5.025 -1.75,-6.55 3.88,-7.367c3.737,-0.546 7.579,-1.371 9.666,-4.458c3.942,-5.804 7.359,-11.563 4.988,-19.584c-1.767,-5.966 -4.913,-10.312 -9.292,-14.05c-4.417,-3.758 -4.65,-5.733 -0.767,-9.95c6.175,-6.708 9.588,-13.883 7.196,-23.712c-2.041,-8.375 -6.866,-13.783 -13.579,-18.067c-4.787,-3.062 -10.046,-5.391 -15.025,-8.175c-1.833,-1.025 -3.796,-2.125 -5.129,-3.675c-2.554,-2.962 -1.45,-7.5 1.333,-10.866c2.917,-3.525 5.859,-7.305 7.584,-11.467c3.916,-9.442 -5.788,-19.775 -13.438,-21.442c-6.462,-1.412 -13.204,-1.637 -19.833,-2.221c-3.879,-0.345 -4.125,-0.82 -4.254,-4.533c-0.117,-3.104 -0.167,-6.925 -1.925,-9.117c-3.842,-4.795 -9.467,-7.637 -15.488,-9.162c-7.654,-1.942 -13.929,1.012 -19.171,6.358c-2.366,2.409 -3.608,1.2 -4.421,-1.071c-0.937,-2.65 -1.65,-5.395 -2.216,-8.15c-0.525,-2.562 -1.867,-4.045 -4.5,-3.466c-4.775,1.066 -9.784,1.787 -14.175,3.783c-6.984,3.163 -13.229,7.617 -17.767,14.033c-0.383,0.555 -1.404,0.663 -2.129,0.98c-0.238,-0.68 -0.538,-1.338 -0.692,-2.034c-0.296,-1.425 -0.058,-3.2 -0.841,-4.237c-2.717,-3.617 -5.855,-6.584 -10.58,-8.004c-5.029,-1.513 -13.316,-0.534 -17.162,2.962c-2.808,2.554 -6.021,4.708 -8.583,7.471c-4.409,4.758 -9.205,9.2 -11.384,15.708c-3.154,9.413 -3.541,8.6 -12.55,7.717c-5.641,-0.554 -11.4,-1.325 -16.983,-0.783c-9.5,0.92 -16.829,6.266 -21.842,14.07c-2.216,3.45 -3.412,7.963 -0.537,12.042c1.358,1.921 2.841,3.858 4.646,5.342c1.908,1.562 3.404,3.487 2.087,5.454c-0.871,1.308 -3.442,2.037 -5.267,2.079c-5.475,0.125 -10.754,0.938 -15.77,3.067c-5.509,2.329 -8.488,6.996 -10.459,12.241c-1.591,4.242 2.838,8.55 7.063,10.696c2.312,1.179 4.846,1.921 7.266,2.896c2.771,1.129 4.096,3.667 2.784,5.683c-1.104,1.692 -2.425,3.296 -3.879,4.713c-7.046,6.846 -6.842,14.037 -3.35,20.512c1.5,2.775 1.683,4.655 -0.105,6.984c-1.15,1.504 -1.337,2.608 0.734,3.825c2.241,1.321 4.071,3.312 6.104,4.979c0.717,0.592 1.504,1.092 2.254,1.633c0.213,-0.975 0.671,-1.975 0.588,-2.925c-0.33,-3.654 -0.788,-7.291 -1.275,-10.929c-0.517,-3.908 1.67,-7.608 6.487,-8.554c4.404,-0.867 6.033,0.221 7.471,5.054c0.067,0.229 0.471,0.367 0.846,0.633c0.662,-1.333 1.241,-2.562 1.887,-3.758c1.584,-2.954 4.542,-4.037 7.438,-2.971c0.441,0.167 1.541,-0.454 1.821,-0.979c2.487,-4.762 5.575,-9.033 9.95,-12.262c0.662,-0.492 1.9,-1.171 2.295,-0.913c2.288,1.5 5.255,2.813 6.417,5.004c3.113,5.867 5.404,12.154 8.071,18.254c0.321,0.738 0.904,1.363 1.362,2.042c0.242,-0.862 0.713,-1.733 0.688,-2.592c-0.063,-2.287 -0.629,-4.595 -0.483,-6.862c0.383,-5.988 1.037,-11.963 1.579,-17.875c-1.292,1.008 -2.667,2.079 -4.034,3.158c-0.341,-0.166 -0.679,-0.329 -1.02,-0.487c0.512,-1.359 0.687,-3.017 1.6,-4.009c2.27,-2.479 4.979,-4.562 7.291,-7.004c0.884,-0.925 1.75,-2.466 1.617,-3.616c-0.596,-5.305 -4.096,-9.075 -7.542,-12.821c-2.271,-2.463 -4.858,-5.296 -3.45,-8.646c1.509,-3.571 4.184,-6.858 8.338,-7.913c3.325,-0.841 6.779,-1.212 10.191,-1.7c3.663,-0.525 7.4,-0.704 10.992,-1.529c1.617,-0.371 3.921,-1.679 4.267,-2.991c1.237,-4.73 2.108,-9.809 -0.779,-14.242c-3.205,-4.908 -3.617,-14.504 0.095,-18.875c2.309,-2.721 4.88,-5.546 7.938,-7.242c4.267,-2.358 8.771,-5.379 13.833,-3.141m45.504,-11.475c6.58,-7.955 15.13,-9.963 24.209,-7c6.129,2 11.787,4.6 15.25,10.07c1.6,2.53 2.116,5.917 2.433,8.98c0.196,1.908 0.45,2.42 2.417,2.583c5.833,0.487 11.683,1.017 17.441,2.029c7.013,1.238 11.759,5.683 15.546,11.538c2.7,4.166 3.713,8.637 2.117,13.008c-1.508,4.121 -4.329,7.792 -6.7,11.579c-1.296,2.079 -3.029,3.904 -4.213,6.033c-0.3,0.538 0.488,2.184 1.221,2.68c2.984,2.025 6.013,4.062 9.259,5.616c7.204,3.45 14.045,7.371 19.345,13.421c1.621,1.854 3.117,4.029 3.934,6.313c1.837,5.141 4.262,10.516 2.729,15.937c-1.392,4.925 -4.125,9.496 -6.517,14.1c-0.854,1.646 -3.154,2.779 -3.479,4.408c-0.267,1.313 1.071,3.475 2.333,4.471c9.35,7.392 13.121,21.004 7.875,31.492c-2.883,5.767 -7.341,10.212 -14.55,10.804c-3.741,0.3 -3.77,0.625 -1.666,3.871c3.921,6.046 3.062,16.787 -2.588,21.079c-2.991,2.271 -7.325,2.904 -11.141,3.963c-1.742,0.483 -3.709,0.341 -5.555,0.229c-2.891,-0.184 -4.554,0.829 -5.854,3.596c-2.433,5.195 -7.446,6.266 -12.671,6.487c-2.329,0.096 -3.041,-0.125 -1.683,2.904c3.35,7.459 6.346,15.209 5.646,23.7c-0.304,3.65 0.787,4.946 4.571,5.171c1.737,0.108 3.504,-0.05 5.225,0.183c6.825,0.934 13.816,1.35 20.387,3.209c3.909,1.104 7.317,4.321 10.65,6.966c7.367,5.834 8.692,13.717 7.184,22.446c-1.209,7.004 -5.913,11.679 -11.325,15.425c-8.992,6.225 -19.4,8.992 -30.159,10.567c-6.029,0.887 -12.016,2.442 -18.071,2.721c-6.545,0.308 -13.304,0.246 -19.687,-1.034c-9.321,-1.87 -18.638,-2.029 -27.946,-1.466c-7.208,0.441 -14.35,2.008 -21.483,3.262c-1.621,0.279 -3.054,1.488 -4.667,1.946c-0.671,0.188 -2.033,-0.271 -2.271,-0.796c-0.271,-0.596 0.092,-1.912 0.646,-2.375c7.338,-6.129 14.342,-12.746 23.55,-16.225c8.396,-3.166 16.783,-6.354 25.158,-9.587c0.505,-0.196 0.855,-0.809 1.275,-1.225c-0.479,-0.225 -0.95,-0.617 -1.441,-0.646c-9.329,-0.546 -18.617,-1.35 -28.034,-0.646c-6.975,0.529 -14.079,-0.371 -21.1,-0.942c-1.504,-0.116 -3.92,-1.312 -4.162,-2.395c-0.85,-3.846 -3.796,-3.655 -6.504,-4.184c-2.996,-0.596 -6.004,-1.116 -8.967,-1.85c-1.817,-0.446 -3.096,-0.533 -3.629,1.709c-0.713,2.983 -3.013,4.133 -5.867,4.425c-1.383,0.145 -2.775,0.366 -4.158,0.316c-11.421,-0.391 -22.571,1.85 -33.729,3.667c-5.463,0.892 -10.667,3.437 -16.129,4.133c-5.7,0.721 -11.571,0.292 -17.355,0.038c-2.72,-0.121 -5.212,-1.521 -5.825,-4.413c-0.3,-1.437 0.321,-3.129 0.759,-4.637c0.379,-1.3 0.691,-2.429 -1.225,-2.184c-3.996,0.525 -6,-2.183 -7.329,-4.962c-1.575,-3.296 0.187,-6.533 2.791,-8.4c3.817,-2.733 8.075,-4.95 12.367,-6.908c2.858,-1.296 6.104,-1.755 9.171,-2.609c0.425,-0.116 1.004,-0.229 1.183,-0.529c0.913,-1.529 -2.658,-7.108 -4.5,-7.104c-9.158,0.037 -18.321,0.167 -27.475,0.004c-1.396,-0.017 -2.729,-1.462 -4.162,-2.096c-1.013,-0.454 -2.142,-0.925 -3.213,-0.908c-4.1,0.062 -8.367,1.492 -11.996,-1.654c-0.666,-0.579 -1.583,-1.279 -1.687,-2.021c-0.279,-1.921 -0.917,-2.696 -3.05,-3.233c-1.359,-0.346 -2.138,-2.909 -3.309,-4.68c-0.116,0.071 -0.7,0.4 -1.275,0.742c-2.504,1.492 -4.104,0.879 -4.82,-1.887c-0.2,-0.78 -0.392,-1.609 -0.325,-2.392c0.287,-3.533 -0.034,-4.846 -3.609,-1.871c-2.004,1.663 -3.1,-0.967 -3.25,-2.508c-0.241,-2.479 0.179,-5.025 0.25,-7.546c0.25,-9.254 3.792,-17.375 8.738,-25.025c1.341,-2.075 2.846,-4.079 3.887,-6.296c0.442,-0.954 0.167,-2.479 -0.275,-3.546c-4.841,-11.704 -6.283,-23.833 -4.466,-36.3c0.4,-2.758 1.562,-5.446 2.654,-8.054c1.133,-2.725 3.671,-3.342 6.204,-1.912c3.937,2.22 7.871,4.454 11.929,6.429c0.921,0.446 3.038,0.262 3.388,-0.329c0.562,-0.95 0.612,-2.834 0,-3.73c-3.83,-5.579 -3.692,-11.55 -1.28,-17.304c1.346,-3.2 4.1,-5.879 6.467,-8.579c2.233,-2.537 2.225,-2.925 -0.792,-4.012c-4.933,-1.771 -9.837,-3.73 -12.92,-8.259c-2.721,-4 -1.488,-12.204 1.725,-15.929c5.95,-6.892 13.6,-9.654 22.466,-9.833c0.696,-0.017 1.421,0.041 2.084,-0.117c1.05,-0.254 2.066,-0.662 3.1,-1.004c-0.68,-0.979 -1.33,-1.988 -2.046,-2.946c-2.134,-2.862 -5.442,-5.462 -6.125,-8.625c-0.688,-3.171 0.566,-7.233 2.15,-10.304c3.75,-7.267 10.312,-12.242 17.804,-14.663c5.721,-1.85 12.304,-1.266 18.512,-1.404c3.096,-0.066 6.209,0.713 9.325,1.034c2.2,0.225 4.155,0.016 4.796,-2.709c2.154,-9.15 8.296,-15.683 14.896,-21.875c4.55,-4.258 9.292,-8.496 15.504,-9.921c3.575,-0.825 7.804,-1.07 11.196,0.05c5.371,1.771 10.529,4.613 12.504,10.721c0.109,0.334 1.796,0.646 2.263,0.304c3.262,-2.366 6.158,-5.329 9.633,-7.295c4.408,-2.492 9.229,-4.3 13.942,-6.242c1.871,-0.767 3.908,-1.183 5.904,-1.6c5.062,-1.067 8.292,2.546 8.783,6.737c0.267,2.317 0.879,4.6 1.479,7.63" style="fill:#231f20;fill-rule:nonzero;"/><path d="M218.135,33.908c-5.062,-2.238 -9.562,0.779 -13.829,3.141c-3.067,1.692 -5.633,4.521 -7.942,7.242c-3.708,4.367 -3.3,13.967 -0.1,18.875c2.896,4.433 2.021,9.508 0.779,14.238c-0.341,1.312 -2.641,2.62 -4.266,2.995c-3.592,0.817 -7.325,1 -10.992,1.53c-3.408,0.487 -6.858,0.854 -10.187,1.695c-4.155,1.059 -6.834,4.346 -8.338,7.913c-1.408,3.35 1.179,6.187 3.446,8.65c3.45,3.746 6.95,7.512 7.546,12.821c0.129,1.146 -0.738,2.691 -1.613,3.612c-2.316,2.442 -5.029,4.525 -7.296,7.004c-0.912,0.996 -1.087,2.65 -1.6,4.009c0.342,0.162 0.68,0.325 1.017,0.487c1.375,-1.075 2.746,-2.146 4.038,-3.158c-0.542,5.917 -1.2,11.887 -1.58,17.879c-0.141,2.263 0.417,4.571 0.488,6.863c0.025,0.854 -0.446,1.725 -0.692,2.587c-0.458,-0.679 -1.041,-1.304 -1.362,-2.037c-2.663,-6.1 -4.963,-12.388 -8.071,-18.255c-1.167,-2.191 -4.129,-3.508 -6.417,-5.008c-0.4,-0.262 -1.629,0.421 -2.291,0.913c-4.384,3.233 -7.471,7.504 -9.959,12.262c-0.275,0.529 -1.379,1.146 -1.816,0.983c-2.896,-1.066 -5.855,0.017 -7.442,2.971c-0.642,1.196 -1.217,2.425 -1.883,3.754c-0.375,-0.27 -0.78,-0.4 -0.85,-0.629c-1.434,-4.837 -3.063,-5.925 -7.467,-5.058c-4.817,0.946 -7.004,4.65 -6.483,8.554c0.487,3.638 0.941,7.279 1.27,10.933c0.084,0.946 -0.375,1.946 -0.583,2.925c-0.754,-0.541 -1.546,-1.045 -2.254,-1.633c-2.033,-1.671 -3.871,-3.662 -6.108,-4.979c-2.071,-1.221 -1.888,-2.325 -0.734,-3.825c1.788,-2.333 1.6,-4.208 0.104,-6.988c-3.491,-6.47 -3.7,-13.666 3.35,-20.508c1.455,-1.417 2.771,-3.021 3.875,-4.712c1.321,-2.017 -0.004,-4.555 -2.783,-5.684c-2.417,-0.979 -4.954,-1.716 -7.267,-2.896c-4.22,-2.15 -8.654,-6.454 -7.058,-10.695c1.967,-5.246 4.95,-9.913 10.454,-12.246c5.021,-2.125 10.3,-2.942 15.771,-3.063c1.833,-0.041 4.396,-0.775 5.271,-2.079c1.317,-1.967 -0.183,-3.896 -2.083,-5.458c-1.805,-1.479 -3.296,-3.417 -4.65,-5.346c-2.875,-4.075 -1.684,-8.588 0.533,-12.033c5.021,-7.805 12.346,-13.155 21.846,-14.071c5.583,-0.542 11.341,0.229 16.983,0.779c9.004,0.887 9.396,1.696 12.546,-7.717c2.183,-6.508 6.979,-10.95 11.387,-15.708c2.559,-2.758 5.78,-4.917 8.58,-7.467c3.845,-3.5 12.137,-4.475 17.17,-2.962c4.721,1.421 7.859,4.379 10.571,8c0.788,1.041 0.55,2.816 0.85,4.237c0.146,0.696 0.454,1.354 0.688,2.029c0.725,-0.308 1.741,-0.425 2.129,-0.97c4.537,-6.421 10.779,-10.875 17.767,-14.042c4.387,-1.988 9.395,-2.717 14.179,-3.775c2.629,-0.579 3.971,0.904 4.5,3.467c0.562,2.75 1.275,5.5 2.216,8.145c0.809,2.271 2.055,3.484 4.417,1.075c5.246,-5.35 11.521,-8.304 19.175,-6.358c6.013,1.525 11.646,4.363 15.483,9.163c1.755,2.187 1.813,6.008 1.921,9.112c0.134,3.717 0.375,4.192 4.254,4.533c6.638,0.588 13.38,0.809 19.842,2.221c7.646,1.671 17.346,12.004 13.433,21.446c-1.72,4.158 -4.666,7.938 -7.583,11.467c-2.783,3.366 -3.887,7.9 -1.329,10.862c1.333,1.55 3.287,2.65 5.125,3.679c4.979,2.775 10.237,5.113 15.029,8.171c6.708,4.284 11.529,9.692 13.571,18.071c2.396,9.825 -1.017,17 -7.192,23.708c-3.883,4.217 -3.646,6.196 0.763,9.955c4.379,3.733 7.529,8.083 9.291,14.045c2.375,8.021 -1.041,13.784 -4.979,19.588c-2.091,3.083 -5.933,3.912 -9.666,4.454c-5.638,0.817 -6.055,2.346 -3.888,7.367c1.408,3.262 2.054,7.05 2.129,10.621c0.125,6.025 -5.779,9.866 -12.054,10.316c-3.237,0.229 -6.546,-0.012 -9.717,0.529c-1.508,0.25 -3.379,1.542 -4.045,2.875c-3.188,6.35 -9.609,9.263 -16.325,6.934c-0.696,-0.242 -1.263,-0.946 -1.805,-1.517c-3.95,-4.187 -8.491,-7.458 -14.133,-9.058c-2.312,-0.654 -3.696,-1.929 -4.721,-4.375c-2.35,-5.604 -5.496,-10.884 -8.062,-16.409c-2.509,-5.404 -5.025,-10.841 -6.925,-16.47c-1.288,-3.83 2.804,-10.155 7.5,-12.992c5.675,-3.433 11.621,-3.638 17.75,-1.446c3.237,1.163 9.658,-0.871 11.416,-3.7c1.88,-3.017 0.171,-9.075 -2.929,-12.129c-4.471,-4.404 -9.954,-6.858 -15.6,-9.317c-2.266,-0.979 -4.471,-3.129 -5.683,-5.3c-3.196,-5.712 -3.742,-11.954 -3.271,-18.525c0.475,-6.658 1.196,-13.916 -3.304,-19.487c-2.717,-3.367 -7.092,-5.513 -10.958,-7.825c-3.325,-1.996 -4.534,-3.963 -2.98,-7.5c1.442,-3.284 3.238,-6.429 5.071,-9.521c2.667,-4.504 1.438,-11.092 -2.779,-13.55c-0.658,-0.388 -1.646,-0.208 -2.479,-0.292c0.329,0.742 0.483,1.638 1.004,2.204c3.325,3.6 3.604,7.609 0.933,11.809c-1.583,2.496 -3.237,5.033 -4.27,7.771c-1.98,5.237 -1.275,8.595 4.908,11.945c3.317,1.8 6.329,4.171 9.392,6.413c0.65,0.475 1.116,1.433 1.304,2.25c0.812,3.554 2.15,7.154 2.046,10.7c-0.117,3.742 -1.159,7.65 -2.696,11.092c-1.538,3.425 -4.179,6.362 -6.384,9.491c-0.362,0.513 -0.9,0.967 -1.454,1.288c-4.671,2.687 -17.758,1.729 -21.908,-1.567c-2.542,-2.021 -2.767,-10.392 -0.246,-12.375c0.213,-0.167 1.333,0.45 1.75,0.938c3.946,4.658 5.688,5.625 10.604,3.8c5.713,-2.125 9.613,-8.588 5.271,-14.121c-1.512,-1.934 -6.85,-3.271 -9.196,-2.942c-10.908,1.508 -21.875,3.325 -32.804,0.508c-6.379,-1.645 -8.804,-9.087 -4.825,-14.45c2.113,-2.858 4.688,-5.412 7.229,-7.929c2.817,-2.783 2.759,-7.008 -0.166,-9.741c-5.646,-5.284 -12.734,-7.313 -20.055,-8.471c-7.191,-1.15 -8.712,-4.017 -9.316,-10.425c-0.738,-7.792 2.796,-12.709 9.196,-15.996c4.05,-2.079 8.462,-3.467 12.562,-5.104" style="fill:#60382e;fill-rule:nonzero;"/><path d="M280.57,109.911c0.109,-3.545 -1.233,-7.145 -2.045,-10.695c-0.188,-0.821 -0.655,-1.78 -1.305,-2.255c-3.058,-2.237 -6.07,-4.616 -9.391,-6.412c-6.184,-3.35 -6.888,-6.708 -4.904,-11.946c1.029,-2.737 2.687,-5.271 4.27,-7.767c2.35,-3.7 2.405,-7.254 0.117,-10.508c-0.9,6.483 -7.45,11.517 -12.121,15.733c-2.687,2.43 -5.304,5.442 -3.679,9.225c1.383,3.25 4.454,5.717 7.096,7.946c2.937,2.475 6.046,4.813 8.354,7.909c2.192,2.941 3.858,6.391 4.204,10.062c0.654,7.025 -4.721,13.708 -11.946,14.075c-4.875,0.25 -10.033,-2.037 -12.212,-6.262c-1.529,3.025 -1.071,9.458 1.125,11.2c4.146,3.3 17.237,4.258 21.904,1.57c0.554,-0.32 1.092,-0.779 1.454,-1.295c2.209,-3.121 4.846,-6.067 6.384,-9.488c1.541,-3.437 2.583,-7.354 2.695,-11.092" style="fill:#7a4a3f;fill-rule:nonzero;"/><path d="M225.918,83.645c-2.546,2.517 -5.117,5.071 -7.238,7.929c-1.546,2.088 -2.096,4.488 -1.85,6.742c0.438,-0.925 0.942,-1.821 1.608,-2.654c1.98,-2.45 4.621,-4.242 6.98,-6.292c5.533,-4.796 8.837,-11.7 7.316,-19.058c-0.687,-3.329 -2.362,-6.942 -5.054,-9.15c-2.108,-1.725 -4.746,-2.704 -7.271,-3.675c-4.891,-1.875 -10.516,-3.929 -12.396,-9.288c-1.316,-3.733 -0.079,-7.85 2.238,-11.27c-1.583,0.633 -3.158,1.3 -4.675,2.083c-6.408,3.287 -9.933,8.2 -9.196,16c0.6,6.404 2.117,9.271 9.317,10.417c7.316,1.166 14.408,3.191 20.054,8.475c2.921,2.733 2.979,6.954 0.167,9.741" style="fill:#7a4a3f;fill-rule:nonzero;"/><path d="M192.435,70.386c-2.942,2.917 -6.963,4.521 -10.967,5.396c-7.283,1.592 -14.979,2.342 -21.779,5.579c-3.217,1.53 -6.071,3.734 -8.196,6.588c-2.417,3.237 -4.504,7.746 -4.604,11.829c-0.096,3.821 2.8,6.85 5.416,9.321c2.521,2.383 5.734,5.346 4.542,9.179c-0.996,3.188 -5.246,4.396 -7.262,6.821c-0.871,1.054 -1.388,2.304 -1.671,3.621c0.329,-0.267 0.616,-0.563 0.958,-0.813c0.663,-0.496 1.896,-1.175 2.292,-0.912c2.291,1.496 5.254,2.808 6.412,5.004c3.113,5.862 5.409,12.15 8.075,18.25c0.321,0.737 0.9,1.362 1.363,2.042c0.246,-0.859 0.712,-1.73 0.691,-2.588c-0.066,-2.292 -0.633,-4.596 -0.491,-6.862c0.387,-5.992 1.041,-11.967 1.583,-17.875c-1.292,1.004 -2.667,2.079 -4.037,3.154c-0.338,-0.167 -0.68,-0.325 -1.017,-0.488c0.512,-1.354 0.687,-3.016 1.6,-4.008c2.271,-2.479 4.979,-4.558 7.296,-7c0.875,-0.925 1.741,-2.467 1.612,-3.621c-0.591,-5.304 -4.096,-9.071 -7.541,-12.817c-2.271,-2.466 -4.863,-5.3 -3.45,-8.645c1.504,-3.571 4.183,-6.859 8.341,-7.913c3.325,-0.842 6.775,-1.212 10.184,-1.7c3.666,-0.529 7.4,-0.708 10.991,-1.533c1.621,-0.371 3.925,-1.679 4.267,-2.988c1.225,-4.666 2.075,-9.662 -0.679,-14.058c-0.717,2.621 -1.929,5.058 -3.929,7.037" style="fill:#7a4a3f;fill-rule:nonzero;"/><path d="M367.695,163.55c-1.762,-5.963 -4.912,-10.313 -9.295,-14.046c-4.409,-3.763 -4.646,-5.738 -0.759,-9.954c6.171,-6.709 9.584,-13.884 7.192,-23.709c-2.042,-8.379 -6.867,-13.787 -13.575,-18.07c-4.788,-3.059 -10.05,-5.392 -15.029,-8.171c-1.838,-1.029 -3.792,-2.129 -5.125,-3.679c-2.559,-2.963 -1.45,-7.5 1.333,-10.867c2.917,-3.525 5.854,-7.304 7.579,-11.467c3.917,-9.437 -5.783,-19.771 -13.433,-21.441c-6.463,-1.413 -13.204,-1.638 -19.838,-2.221c-3.879,-0.346 -4.12,-0.817 -4.254,-4.534c-0.112,-3.104 -0.171,-6.925 -1.925,-9.112c-3.837,-4.796 -9.471,-7.638 -15.483,-9.163c-7.654,-1.945 -13.929,1.009 -19.171,6.355c-2.367,2.412 -3.608,1.2 -4.421,-1.071c-0.937,-2.646 -1.65,-5.396 -2.216,-8.15c-0.525,-2.559 -1.867,-4.046 -4.5,-3.463c-4.78,1.063 -9.788,1.788 -14.18,3.779c-0.42,0.188 -0.808,0.43 -1.22,0.63c-0.046,0.183 -0.084,0.383 -0.255,0.487c-0.454,0.275 -0.875,0.592 -1.258,0.958c-0.042,0.038 -0.108,0.08 -0.137,0.13c0.033,-0.059 0.108,-0.109 0.02,-0.021c-0.07,0.079 -0.141,0.158 -0.212,0.233c0.558,-0.104 1.121,-0.208 1.65,-0.258c2.692,-0.246 5.8,-0.004 8.162,1.412c2.571,1.538 4.2,4.113 4.888,6.963c1.396,5.8 -0.338,11.716 -0.483,17.566c1.958,-0.904 3.904,-1.845 5.837,-2.829c5,-2.529 10.142,-5.096 15.738,-6.021c5.783,-0.954 11.458,0.384 16.25,3.717c3.875,2.688 6.466,6.554 7.175,11.208c0.683,4.488 -0.03,9.038 -0.296,13.53c-0.2,3.5 -0.575,8.195 2.896,10.316c2.77,1.696 6.45,1.688 9.545,2.375c3.971,0.879 7.53,2.671 10.046,5.938c2.204,2.871 2.475,6.121 0.521,9.187c-1.917,3.009 -4.929,5.188 -7.375,7.738c-2.1,2.175 -4.417,5.166 -3.296,8.366c0.971,2.784 4.104,4.434 6.634,5.584c3.375,1.533 6.958,2.566 10.508,3.625c2.842,0.841 5.825,1.596 8.425,3.066c4.117,2.346 7.396,5.863 9.017,10.321c1.57,4.321 1.637,9.013 1.312,13.546c-0.362,5.083 -0.946,10.196 -2.625,15.038c-3.425,9.908 -10.412,18.966 -19.512,24.375c-3.88,2.312 -8.7,4.533 -13.355,3.925c-3.595,-0.463 -5.833,-2.946 -6.954,-6.071c-2.237,2.112 -3.383,5.333 -3.646,8.308c-0.154,1.813 -0.02,3.717 0.442,5.483c0.238,0.913 0.621,1.996 1.529,2.45c1.513,0.759 3.759,0.013 5.325,-0.216c1.134,-0.167 2.271,-0.279 3.425,-0.25c1.138,0.033 2.154,0.237 3.275,0.012c2.171,-0.433 3.5,1.888 3.592,3.738c0.121,2.616 -0.671,5.291 -1.271,7.812c-1.283,5.392 -4.546,9.584 -9.767,11.779c-1.129,0.48 -2.308,0.792 -3.5,1.055c2.038,1.437 3.942,3.079 5.7,4.941c0.542,0.575 1.109,1.279 1.805,1.521c6.716,2.329 13.133,-0.587 16.32,-6.933c0.667,-1.334 2.542,-2.625 4.046,-2.879c3.175,-0.538 6.479,-0.292 9.721,-0.525c6.275,-0.446 12.179,-4.292 12.05,-10.317c-0.075,-3.571 -0.721,-7.363 -2.125,-10.621c-2.171,-5.025 -1.754,-6.55 3.883,-7.367c3.738,-0.545 7.58,-1.37 9.667,-4.454c3.942,-5.804 7.354,-11.566 4.983,-19.587" style="fill:#7a4a3f;fill-rule:nonzero;"/><path d="M131.989,187.451c-0.334,0.383 -1.809,1.546 -1.621,1.967c1.104,2.45 2.6,4.721 3.962,7.054c1.167,-0.683 2.888,-1.096 3.392,-2.108c1.125,-2.225 -2.371,-6.884 -5.733,-6.913m30.525,-2.25c-1.892,-2.4 -3.454,-4.654 -5.359,-6.587c-0.416,-0.425 -2.295,0.041 -3.041,0.645c-0.538,0.446 -0.617,1.884 -0.375,2.725c0.404,1.384 0.929,2.996 1.958,3.859c1.183,0.991 2.942,1.462 4.525,1.733c0.483,0.088 1.217,-1.217 2.292,-2.375m-56.884,-14.208c-0.691,-0.209 -1.308,-0.617 -1.758,-0.484c-2.304,0.675 -2.871,-1.133 -3.883,-2.437c-2.334,-2.992 -4.742,-5.883 -8.988,-6.292c-0.475,-0.041 -0.875,-1.004 -1.283,-1.562c-0.458,-0.638 -0.883,-1.309 -1.321,-1.963c-0.458,0.704 -1.233,1.371 -1.317,2.117c-0.816,7.683 -1.7,15.392 1.767,22.767c0.242,0.516 -0.096,1.287 -0.104,1.941c-0.008,0.534 0.075,1.071 0.121,1.604c0.45,-0.279 1.066,-0.454 1.325,-0.854c3.141,-4.941 7.679,-8.354 12.533,-11.458c0.896,-0.575 1.463,-1.663 2.908,-3.379m46.088,22.721c-5.883,0.062 -10.429,1.887 -13.021,7.15c-2.587,5.27 -1.112,11.462 3.933,13.733c2.709,1.221 6.296,0.425 9.45,0.787c1.105,0.125 2.884,0.871 2.988,1.542c0.171,1.1 -0.463,2.704 -1.317,3.492c-1.791,1.65 -3.879,3.037 -5.983,4.3c-2.796,1.679 -5.563,3.746 -8.633,4.546c-3.755,0.97 -7.83,1.162 -11.73,0.97c-1.837,-0.087 -4.137,-1.45 -5.283,-2.954c-2.667,-3.491 -2.717,-7.4 -0.321,-11.291c0.475,-0.78 0.129,-2.046 0.163,-3.088c-0.838,0.513 -1.713,0.971 -2.496,1.554c-2.413,1.788 -4.779,3.642 -7.196,5.434c-0.975,0.725 -2.021,1.354 -3.037,2.029c1.395,0.108 2.791,0.304 4.179,0.275c0.479,-0.009 0.937,-0.575 1.421,-0.867c3.191,-1.904 3.67,-1.75 3.6,1.867c-0.109,6.308 4.27,9.996 9.4,9.85c3.816,-0.113 7.745,-0.088 11.404,-0.996c3.087,-0.763 5.887,-2.725 8.754,-4.267c4.154,-2.233 8.117,-4.891 12.421,-6.783c4.133,-1.813 8.708,-2.629 12.896,-4.342c7.387,-3.016 9.983,-10.775 6.354,-17.812c-0.229,-0.442 0.354,-1.884 0.55,-1.884c5.2,0.046 7.108,-3.9 9.225,-7.479c0.429,-0.725 0.037,-1.925 0.021,-2.904c-0.725,0.517 -1.838,0.883 -2.121,1.579c-1.904,4.696 -5.913,6.629 -10.409,7.484c-2.27,0.429 -2.429,0.958 -1.129,2.408c4.196,4.667 3.496,11.342 -3.104,15.246c-3.829,2.262 -8.192,3.666 -12.387,5.266c-0.55,0.209 -1.759,-0.541 -2.296,-1.162c-2.846,-3.296 -0.554,-5.517 1.791,-7.7c3.892,-3.608 3.592,-10.821 -0.875,-13.575c-2.1,-1.288 -4.787,-1.629 -7.212,-2.408m-29.092,61.279c-3.129,0 -6.262,0.108 -9.383,-0.05c-1.55,-0.079 -3.713,0.25 -3.446,-2.6c0.025,-0.254 -1.846,-0.992 -2.829,-0.975c-3.471,0.054 -6.946,0.404 -10.421,0.504c-3.212,0.092 -5.254,-1.108 -5.208,-4.763c0.012,-0.666 -1.271,-1.929 -1.934,-1.916c-1.995,0.041 -2.65,-0.613 -2.641,-2.567c0.008,-1.237 -0.596,-2.487 -0.925,-3.733c-1.259,0.466 -2.525,0.904 -3.767,1.412c-0.754,0.317 -1.458,0.746 -2.187,1.117c-0.159,-0.75 -0.484,-1.517 -0.45,-2.263c0.1,-2.179 0.45,-4.345 0.466,-6.516c0.009,-0.775 -0.491,-1.746 -1.083,-2.234c-0.288,-0.233 -1.421,0.321 -2.017,0.734c-0.829,0.571 -1.496,1.366 -2.279,2.016c-0.704,0.588 -1.462,1.105 -2.196,1.659c-0.179,-0.959 -0.671,-1.975 -0.487,-2.859c1.783,-8.683 1.866,-17.783 7.521,-25.454c2.708,-3.683 4.458,-8.075 6.562,-12.187c0.267,-0.517 0.292,-1.392 0.029,-1.904c-6.354,-12.5 -6.462,-25.713 -4.308,-39.075c0.729,-4.521 2.096,-4.43 6.6,-2.538c7.692,3.225 13.646,8.721 20.012,13.725c0.53,0.413 0.871,1.054 1.375,1.517c1.05,0.962 2.35,2.771 3.18,2.591c1.208,-0.266 2.425,-1.825 3.054,-3.108c2.225,-4.562 0.821,-9.233 0.029,-13.862c-0.708,-4.155 0.825,-6.346 4.717,-6.767c2.112,-0.229 3.45,0.4 3.312,2.754c-0.146,2.517 -0.471,5.033 -0.467,7.55c0.005,0.963 0.7,1.925 1.08,2.892c0.75,-0.667 1.733,-1.209 2.204,-2.025c2.2,-3.788 4.229,-7.667 6.383,-11.475c0.346,-0.609 1.05,-1.021 1.588,-1.525c0.391,0.621 1.004,1.187 1.15,1.858c1.225,5.758 0.529,11.263 -1.875,16.688c-1.005,2.27 -1.338,4.862 -1.8,7.341c-0.113,0.625 0.458,1.367 0.716,2.05c0.729,-0.562 1.846,-0.991 2.117,-1.725c1.154,-3.054 2,-6.229 3.096,-9.312c0.266,-0.738 0.958,-1.709 1.629,-1.875c9.037,-2.25 18.217,-3.159 27.496,-2.113c2.212,0.246 4.287,1.546 6.5,1.913c4.058,0.675 8.171,1.112 12.271,1.471c3.07,0.266 4.916,1.437 4.979,4.77c0.054,2.625 -0.096,5.446 4.133,5.146c0.792,-0.058 2.029,1.859 2.529,3.079c0.454,1.096 0.229,2.492 0.234,3.759c0.012,2.841 1.112,4.429 4.291,4.446c4.759,0.033 6.1,2.308 3.692,6.412c-1.196,2.029 -1.075,3.229 0.083,5.396c1.059,1.979 0.946,5.246 0.075,7.446c-3.654,9.196 -10.458,16.275 -17.058,23.45c-4.413,4.804 -8.767,9.658 -13.229,14.416c-4.954,5.288 -11.121,8.805 -17.746,11.6c-11.304,4.784 -23.196,6.23 -35.367,5.709" style="fill:#caccce;fill-rule:nonzero;"/><path d="M202.178,180.564c-3.179,-0.021 -4.279,-1.604 -4.292,-4.45c-0.004,-1.263 0.221,-2.654 -0.233,-3.754c-0.504,-1.225 -1.738,-3.134 -2.533,-3.084c-1.275,0.096 -2.117,-0.125 -2.721,-0.508c-6.338,2.95 -12.513,6.221 -18.325,10.121c-5.379,3.608 -10.192,7.804 -14.854,12.271c-1.296,1.246 -2.617,2.408 -3.975,3.512c1.308,0.359 2.583,0.775 3.687,1.454c4.467,2.75 4.763,9.959 0.875,13.571c-2.35,2.179 -4.642,4.404 -1.792,7.7c0.534,0.617 1.746,1.375 2.296,1.167c4.196,-1.604 8.55,-3.008 12.379,-5.271c6.609,-3.9 7.309,-10.579 3.113,-15.25c-1.308,-1.442 -1.146,-1.975 1.129,-2.404c4.492,-0.85 8.504,-2.788 10.408,-7.488c0.28,-0.691 1.392,-1.058 2.121,-1.575c0.017,0.98 0.409,2.18 -0.021,2.905c-2.116,3.579 -4.029,7.529 -9.229,7.479c-0.191,0 -0.783,1.441 -0.55,1.887c3.634,7.029 1.038,14.796 -6.354,17.804c-4.192,1.717 -8.758,2.53 -12.892,4.346c-4.308,1.892 -8.266,4.55 -12.425,6.788c-2.862,1.541 -5.662,3.496 -8.75,4.266c-3.658,0.909 -7.587,0.884 -11.408,0.988c-5.125,0.146 -9.508,-3.538 -9.396,-9.846c0.067,-3.621 -0.408,-3.767 -3.604,-1.867c-0.483,0.288 -0.942,0.863 -1.417,0.867c-1.391,0.029 -2.783,-0.167 -4.179,-0.275c1.017,-0.675 2.063,-1.3 3.038,-2.029c2.412,-1.788 4.779,-3.642 7.196,-5.438c0.783,-0.575 1.658,-1.037 2.491,-1.554c-0.029,1.042 0.317,2.317 -0.158,3.088c-2.396,3.896 -2.35,7.8 0.321,11.3c1.141,1.491 3.437,2.858 5.283,2.954c3.9,0.187 7.975,0 11.725,-0.979c3.071,-0.792 5.842,-2.863 8.633,-4.542c2.109,-1.267 4.196,-2.65 5.988,-4.304c0.854,-0.788 1.483,-2.392 1.312,-3.488c-0.104,-0.67 -1.887,-1.416 -2.983,-1.537c-3.162,-0.367 -6.75,0.425 -9.454,-0.796c-4.158,-1.867 -5.846,-6.408 -4.875,-10.896c-1.333,0.542 -2.671,1.075 -3.996,1.642c-4.908,2.079 -9.796,4.237 -14.596,6.562c-14.283,6.934 -28.437,15.9 -37.675,28.709c0.196,-0.1 0.384,-0.221 0.588,-0.304c1.237,-0.513 2.504,-0.946 3.762,-1.413c0.334,1.246 0.934,2.492 0.925,3.733c-0.008,1.955 0.642,2.613 2.646,2.567c0.663,-0.012 1.946,1.246 1.933,1.917c-0.045,3.65 1.996,4.854 5.209,4.762c3.475,-0.1 6.946,-0.454 10.421,-0.504c0.983,-0.012 2.85,0.717 2.829,0.975c-0.267,2.846 1.896,2.525 3.441,2.604c3.121,0.159 6.255,0.042 9.388,0.042c12.171,0.521 24.062,-0.921 35.367,-5.7c6.616,-2.804 12.791,-6.317 17.745,-11.604c4.459,-4.754 8.813,-9.617 13.23,-14.417c6.595,-7.171 13.4,-14.254 17.054,-23.45c0.875,-2.2 0.983,-5.462 -0.075,-7.446c-1.159,-2.171 -1.275,-3.371 -0.084,-5.4c2.413,-4.1 1.071,-6.375 -3.687,-6.408" style="fill:#ebecec;fill-rule:nonzero;"/><path d="M197.143,102.551c-1.638,0.888 -2.55,1.179 -3.184,1.758c-3.841,3.521 -6.829,8.842 -5.312,14.1c0.187,0.642 0.825,1.159 1.258,1.734c0.367,-0.688 1.092,-1.4 1.042,-2.05c-0.325,-3.934 0.608,-7.409 3.383,-10.296c0.913,-0.963 2.063,-1.725 2.9,-2.742c0.296,-0.371 -0.017,-1.233 -0.087,-2.504m6.087,37.333c0.267,0.913 0.554,2.875 1.429,4.525c0.45,0.85 2.363,1.846 2.888,1.546c0.958,-0.558 1.983,-2.079 1.896,-3.108c-0.192,-2.204 -0.913,-4.413 -1.738,-6.496c-0.35,-0.883 -1.517,-1.442 -2.312,-2.15c-0.671,0.867 -1.463,1.671 -1.967,2.625c-0.292,0.554 -0.113,1.346 -0.196,3.058m34.304,0.505c-0.679,-2.384 -0.925,-4.375 -1.841,-5.992c-0.521,-0.929 -2.125,-1.633 -3.267,-1.667c-0.571,-0.016 -1.65,1.659 -1.704,2.613c-0.092,1.766 -0.075,3.841 0.775,5.271c0.783,1.325 2.725,1.987 4.154,2.929c0.654,-1.1 1.312,-2.2 1.883,-3.154m-24.371,11.6c0.021,6.8 7.175,11.55 13.113,9.191c0.529,-0.212 0.862,-0.9 1.287,-1.366c-0.529,-0.38 -1.025,-0.971 -1.612,-1.088c-1.696,-0.346 -3.421,-0.537 -5.142,-0.712c-4.679,-0.48 -5.266,-4.634 -4.487,-8.38c0.879,-4.237 4.158,-6.258 7.854,-5.183c0.421,0.121 0.971,-0.183 1.467,-0.292c-0.18,-0.379 -0.263,-0.854 -0.55,-1.112c-1.675,-1.563 -6.575,-1.563 -8.1,0.087c-2.434,2.638 -4.375,5.53 -3.83,8.855m16.405,25.954c-0.209,0.246 -0.405,0.491 -0.605,0.737c1.067,0.65 2.059,1.617 3.213,1.888c5.358,1.266 9.746,-1.329 13.508,-4.425c2.088,-1.725 4.3,-4.925 4.154,-7.321c-0.22,-3.717 1.592,-5.238 3.905,-7.079c0.612,-0.488 0.775,-1.525 1.145,-2.313c-0.85,0.079 -1.729,0.038 -2.533,0.259c-2.596,0.725 -5.175,1.533 -7.75,2.329c-1.083,0.333 -2.15,0.708 -3.225,1.062c1,0.613 2.038,1.767 3,1.721c3.392,-0.171 3.204,1.796 2.783,3.983c-0.754,3.896 -6.829,8.821 -11.358,9.134c-2.075,0.141 -4.162,0.025 -6.237,0.025m50.929,-54.225c0.337,2.458 0.516,4.954 1.058,7.371c1.242,5.587 4.617,9.4 10.1,11.366c5.721,2.059 11.121,4.696 14.446,10.042c0.921,1.492 1.858,3.833 1.296,5.146c-0.867,2.008 -2.688,4.104 -5.592,3.616c-2.367,-0.395 -4.7,-0.975 -7.054,-1.466c-0.671,-0.142 -1.358,-0.363 -2.029,-0.346c-7.846,0.237 -15.146,2.308 -19.792,8.892c-2.85,4.045 -2.496,9.212 -1.229,14.02c1.162,4.409 1.137,4.825 -3.471,5.713c-7.429,1.425 -14.908,2.633 -22.392,3.758c-4.187,0.629 -8.45,0.763 -12.645,1.371c-7.367,1.067 -14.088,-1.542 -20.892,-3.512c-2.642,-0.763 -4.408,-2.409 -3.988,-5.938c0.596,-4.929 0.33,-6.367 -5.125,-5.837c-1.8,0.175 -2.466,-0.596 -2.47,-2.38c-0.017,-4.183 -0.4,-8.166 -5.93,-8.87c-0.433,-0.05 -0.85,-1.709 -0.941,-2.65c-0.471,-4.721 -2.475,-7.205 -7.242,-6.684c-5.179,0.563 -9.425,-1.883 -13.85,-3.287c-1.754,-0.559 -2.812,-4.825 -3.254,-7.554c-1.225,-7.642 2.004,-14.863 2.758,-22.338c0.221,-2.154 0.592,-4.042 2.859,-5.367c2.225,-1.308 2.85,-3.608 2.379,-6.32c-0.867,-4.896 -3.734,-8.617 -6.717,-12.33c-1.604,-2 -4.162,-4.012 -4.317,-6.166c-0.15,-1.967 2.017,-4.475 3.759,-6.129c4.083,-3.892 9.625,-2.088 14.483,-3.055c3.575,-0.708 7.221,-1.204 10.658,-2.329c4.35,-1.421 5.709,-4.962 5.409,-9.271c-0.063,-0.916 0.096,-1.862 -0.05,-2.762c-0.471,-2.8 0.8,-3.488 3.296,-2.813c4.987,1.35 10.087,2.392 14.912,4.184c2.438,0.912 4.571,2.975 6.454,4.891c1.325,1.346 1.584,2.825 -0.6,4.525c-5.987,4.663 -10.3,10.505 -10.175,18.55c0.05,3.421 2.046,5.559 5,7.071c8.629,4.429 17.821,2.888 26.879,2.471c2.592,-0.117 5.163,-0.942 7.713,-1.554c4.004,-0.971 7.337,0.562 10.242,2.937c0.787,0.642 1.112,2.709 0.695,3.738c-1.266,3.125 -3.441,5.571 -7.087,6.125c-3.05,0.467 -5.025,-1.038 -6.367,-3.579c-0.3,-0.563 -0.775,-1.246 -0.666,-1.771c0.762,-3.713 -1.43,-2.4 -2.655,-1.35c-3.42,2.925 -5.266,6.667 -5.116,11.287c0.121,3.967 1.596,6.705 5.416,8.63c6.63,3.345 13.521,2.983 20.242,1.554c4.938,-1.046 7.342,-5.759 9.85,-9.825c0.396,-0.646 0.721,-1.329 1.079,-1.996l0.663,0.221Z" style="fill:#edab7a;fill-rule:nonzero;"/><path d="M269.287,167.421c-4.654,3.254 -7.221,8.82 -8.404,14.191c-0.554,2.521 -0.833,5.221 -0.717,7.896c2.692,-0.462 5.384,-0.921 8.067,-1.437c4.604,-0.888 4.629,-1.305 3.467,-5.713c-1.267,-4.804 -1.625,-9.975 1.233,-14.021c0.887,-1.262 1.9,-2.312 2.975,-3.258c-2.371,0.187 -4.642,0.958 -6.621,2.342" style="fill:#df8f5b;fill-rule:nonzero;"/><path d="M213.162,151.989c-0.425,-2.592 0.679,-4.913 2.333,-7.071c-0.904,0.479 -1.75,1.096 -2.442,1.913c-2.97,3.525 -4.675,9.979 -1.27,13.766c2.92,3.238 8.762,4.134 12.037,1.142c-5.283,0.454 -10.637,-3.871 -10.658,-9.75" style="fill:#df8f5b;fill-rule:nonzero;"/><path d="M194.754,166.63c0.779,-4.371 2.029,-8.841 0.804,-13.1c-0.863,-3.004 -2.896,-5.696 -4.479,-8.362c-1.263,-2.121 -2.504,-4.267 -3.284,-6.613c-1.47,-4.454 -0.304,-8.825 1.796,-12.875c2.45,-4.729 6.671,-9.116 7.159,-14.625c0.158,-1.791 -0.075,-3.3 -0.8,-4.741c-0.559,0.483 -1.117,0.958 -1.621,1.479c-2.775,2.891 -3.709,6.371 -3.384,10.3c0.055,0.65 -0.675,1.362 -1.037,2.046c-0.433,-0.571 -1.075,-1.084 -1.263,-1.73c-1.516,-5.262 1.475,-10.579 5.317,-14.095c0.113,-0.109 0.25,-0.2 0.392,-0.292c-1.059,-1.321 -2.171,-2.6 -3.188,-3.954c-1.391,-1.846 -3.396,-4.846 -1.1,-6.804c1.734,-1.484 4.571,-1.671 6.742,-1.838c3.562,-0.275 7.15,-0.179 10.717,-0.112c2.925,0.054 5.854,0.1 8.783,0.054c1.771,-3.988 4.804,-7.3 8.475,-10.159c2.183,-1.7 1.929,-3.175 0.6,-4.52c-1.883,-1.921 -4.017,-3.984 -6.454,-4.892c-4.821,-1.792 -9.925,-2.838 -14.909,-4.188c-2.495,-0.675 -3.766,0.013 -3.304,2.817c0.159,0.896 -0.008,1.842 0.059,2.754c0.3,4.309 -1.063,7.85 -5.413,9.275c-3.433,1.125 -7.083,1.621 -10.654,2.334c-4.863,0.962 -10.404,-0.842 -14.488,3.045c-1.741,1.663 -3.904,4.167 -3.762,6.134c0.158,2.15 2.717,4.162 4.325,6.162c2.983,3.721 5.85,7.434 6.712,12.334c0.475,2.708 -0.15,5.012 -2.375,6.316c-2.266,1.325 -2.641,3.221 -2.862,5.371c-0.75,7.475 -3.983,14.696 -2.754,22.338c0.441,2.729 1.496,6.995 3.25,7.554c4.425,1.408 8.671,3.85 13.85,3.287c4.766,-0.516 6.771,1.963 7.241,6.684c0.092,0.92 0.488,2.483 0.909,2.616" style="fill:#df8f5b;fill-rule:nonzero;"/><path d="M262.885,242.851c-0.379,2.167 -1.17,5.188 -1.362,8.238c-0.154,2.55 -0.333,5.687 2.7,6.825c3.475,1.296 5.996,-1.029 7.792,-3.538c4.266,-5.97 8.583,-11.95 12.237,-18.287c2.575,-4.479 4.113,-9.542 6.05,-14.375c0.183,-0.458 -0.121,-1.104 -0.171,-1.663c-0.108,-1.05 -0.204,-2.095 -0.3,-3.141c0.996,0.187 2.063,0.216 2.979,0.591c7.542,3.105 13.55,8.371 17.35,15.238c3.975,7.187 6.225,15.212 5.738,23.683c-0.325,5.6 1.525,7.534 7.421,7.975c5.325,0.388 10.671,0.592 15.962,1.238c6.571,0.804 12.046,3.704 17.4,7.812c7.963,6.113 8.284,13.688 6.534,22.104c-0.967,4.642 -4.713,7.513 -8.05,10.496c-4.792,4.292 -10.709,6.179 -16.78,8.054c-11.158,3.45 -22.433,6.109 -34.112,6.175c-7.042,0.038 -14.154,-0.6 -21.113,-1.704c-10.395,-1.654 -20.704,-0.483 -31.05,-0.037c-3.441,0.146 -6.862,0.658 -10.433,1.016c2.767,-5.12 7.775,-7.241 12.396,-9.262c10.421,-4.558 20.733,-9.479 32.133,-11.546c9.021,-1.633 17.929,-3.854 26.871,-5.912c3.796,-0.875 7.8,-1.48 11.204,-3.188c2.275,-1.129 4.384,-3.737 5.267,-6.146c1.037,-2.837 -1.133,-5.208 -3.85,-6.354c-3.404,-1.437 -6.938,-2.587 -10.479,-3.667c-0.284,-0.083 -1.246,1.296 -1.542,2.113c-1.854,5.075 -3.458,10.175 -7.683,14.087c-2.954,2.734 -6.467,3.417 -10.013,3.455c-7.775,0.087 -15.55,-0.317 -23.325,-0.625c-1.075,-0.046 -2.1,-0.821 -3.187,-1.113c-6.992,-1.904 -13.875,-0.083 -20.788,0.654c-1.6,0.171 -3.241,0.634 -4.796,0.425c-3.987,-0.541 -7.941,-1.308 -11.879,-2.146c-0.908,-0.187 -1.683,-1.004 -2.521,-1.533c0.605,-0.767 1.05,-1.829 1.846,-2.271c7.275,-4.079 15.196,-5.679 23.492,-5.529c0.783,0.013 1.521,0.871 2.337,1.188c0.775,0.295 1.625,0.395 2.442,0.583c-0.037,-0.842 0.254,-1.917 -0.158,-2.492c-2.442,-3.35 -5.196,-6.483 -7.55,-9.887c-1.767,-2.55 -3.217,-5.346 -4.584,-8.142c-1.116,-2.296 -0.433,-4.083 1.609,-5.917c4.954,-4.437 9.591,-9.216 13.966,-13.475" style="fill:#caccce;fill-rule:nonzero;"/><path d="M262.885,242.851c-2.925,2.846 -6.02,5.917 -9.204,8.971c0.004,0.013 0.021,0.017 0.025,0.029c1.529,4.013 3.338,8.013 5.788,11.559c2.25,3.262 5.312,6.496 9.541,6.8c2.813,0.204 4.834,-1.671 6.35,-3.804c1.896,-2.659 3.275,-5.642 4.988,-8.413c3.467,-5.604 8.708,-10.396 14.437,-13.679c5.113,-2.921 11.225,-4.871 17.142,-3.546c0.679,0.154 1.321,0.379 1.963,0.604c-0.963,-2.987 -2.225,-5.871 -3.755,-8.633c-3.8,-6.867 -9.808,-12.133 -17.35,-15.238c-0.916,-0.375 -1.983,-0.404 -2.979,-0.591c0.096,1.046 0.192,2.091 0.3,3.141c0.05,0.559 0.354,1.205 0.171,1.663c-1.937,4.833 -3.475,9.896 -6.05,14.375c-3.654,6.337 -7.971,12.317 -12.237,18.287c-1.796,2.509 -4.317,4.834 -7.792,3.538c-3.033,-1.133 -2.854,-4.275 -2.7,-6.825c0.192,-3.05 0.983,-6.071 1.362,-8.238" style="fill:#a7a9ac;fill-rule:nonzero;"/><path d="M293.807,314.614c-0.804,-0.029 -1.2,-1 -0.829,-1.62c6.046,-10.242 19.367,-11.871 27.917,-19.288c-3.688,-1.75 -8.609,-0.346 -12.405,0.2c-0.008,0 -0.016,-0.004 -0.025,-0.004c-7.395,1.733 -14.791,3.487 -22.258,4.842c-11.404,2.066 -21.712,6.987 -32.133,11.545c-4.621,2.025 -9.629,4.142 -12.4,9.263c3.566,-0.358 6.996,-0.871 10.437,-1.017c10.342,-0.446 20.65,-1.616 31.046,0.038c6.958,1.1 14.075,1.741 21.113,1.704c11.579,-0.067 22.762,-2.683 33.825,-6.088c-14.621,-2.133 -29.592,0.95 -44.288,0.425" style="fill:#ebecec;fill-rule:nonzero;"/><path d="M209.191,214.756c-0.113,0.55 -0.292,1.45 -0.471,2.345c1.188,0.192 2.367,0.496 3.554,0.542c1.509,0.054 3.042,-0.308 4.509,-0.121c1.6,0.2 3.141,0.825 4.704,1.267c-0.875,1.312 -1.754,2.617 -2.625,3.937c-2.225,3.363 -5.134,6.388 -5.096,10.838c0.033,4.279 0.925,5.612 5.371,5.95c2.65,0.2 2.837,1.225 2.183,3.254c-0.242,0.758 -0.333,1.571 -0.462,2.367c-1.05,6.375 0.075,7.254 6.458,7.666c4.75,0.309 3.721,-3.72 5.4,-5.662c0.633,-0.733 0.829,-1.879 1.096,-2.875c0.471,-1.775 1.112,-2.871 3.35,-2.033c1.812,0.679 2.629,-0.421 3.058,-2.209c0.575,-2.416 1.417,-4.775 2.317,-7.104c0.321,-0.825 1.437,-2.179 1.675,-2.083c1.596,0.671 2.541,1.862 1.666,3.746c-1.283,2.75 -2.812,5.429 -3.741,8.3c-1.104,3.42 -1.721,7 -2.45,10.533c-0.125,0.612 0.033,1.712 0.425,1.921c4.208,2.262 3.379,7.116 5.579,10.404c2.304,3.442 4.387,7.033 6.533,10.583c0.279,0.459 0.375,1.021 0.538,1.488c-4.692,0.812 -9.25,1.446 -13.721,2.441c-2.4,0.538 -4.604,1.9 -6.996,2.542c-2.712,0.733 -5.542,1.533 -8.3,1.475c-4.258,-0.075 -8.496,-0.971 -12.758,-1.304c-1.967,-0.15 -2.713,-0.958 -2.554,-2.792c0.783,-9.046 -4.642,-15.637 -9.096,-22.616c-0.913,-1.43 -1.609,-3.038 -2.729,-4.28c-0.596,-0.666 -1.888,-0.725 -2.859,-1.058c0.042,0.863 -0.221,1.904 0.171,2.558c3.121,5.242 6.992,10.15 9.379,15.688c2.009,4.658 4.838,9.833 1.442,15.225c-0.458,0.729 -1.117,1.675 -1.833,1.829c-3.125,0.671 -6.288,1.258 -9.467,1.554c-8.642,0.796 -17.363,1.034 -25.938,2.267c-6.291,0.904 -12.32,3.612 -18.612,4.45c-5.917,0.787 -12.038,0.437 -18.038,0.071c-2.354,-0.146 -3.154,-2.309 -2.237,-4.725c1.671,-4.4 4.796,-7.75 8.771,-9.875c8.208,-4.392 16.946,-7.425 26.408,-7.875c0.467,-0.021 1.004,0.091 1.375,-0.1c0.65,-0.342 1.204,-0.875 1.796,-1.334c-0.583,-0.42 -1.133,-1.129 -1.758,-1.208c-1.25,-0.162 -2.567,-0.104 -3.813,0.096c-4.921,0.779 -8.346,-1.754 -11.967,-4.567c-2.912,-2.258 -3.933,-5.391 -5.47,-8.312c-0.184,-0.346 0.845,-1.813 1.55,-2.038c3.787,-1.225 7.75,-1.971 11.475,-3.35c9.433,-3.491 17.879,-8.433 24.495,-16.266c5.167,-6.13 10.842,-11.846 16.305,-17.734c0.366,-0.396 0.754,-0.908 1.225,-1.037c3.408,-0.984 6.841,-1.879 10.183,-2.779" style="fill:#caccce;fill-rule:nonzero;"/><path d="M176.837,288.209c-3.788,-3.725 -10.259,-3.784 -15.221,-3.746c-5.646,0.046 -11.371,0.783 -16.996,0.154c-0.55,-0.067 -1.029,-0.596 -1.004,-1.146c0.05,-0.921 0.325,-1.783 0.529,-2.662c-2.137,-0.355 -4.4,0.087 -6.492,0.445c-0.116,0.021 -0.229,0.038 -0.345,0.055c-3.934,2.129 -7.03,5.454 -8.692,9.825c-0.917,2.416 -0.117,4.583 2.237,4.725c6,0.366 12.121,0.72 18.038,-0.071c6.292,-0.842 12.325,-3.546 18.612,-4.45c3.588,-0.517 7.2,-0.838 10.821,-1.125c-0.387,-0.725 -0.875,-1.404 -1.487,-2.004" style="fill:#ebecec;fill-rule:nonzero;"/><path d="M188.246,232.157c6.329,-2.066 12.971,-3.379 19.625,-3.808c0.504,-0.033 1.179,0.329 1.242,0.896c0.3,2.916 -0.079,5.879 -0.338,8.783c-0.316,3.471 -0.645,6.971 -0.491,10.458c0.108,2.488 0.412,5.467 2.083,7.459c1.546,1.837 5.3,1.3 7.417,1.25c2.979,-0.067 6.162,-0.404 9.096,0.25c3.154,0.704 6.337,1.721 9.258,3.096c4.571,2.17 8.542,5.52 10.046,10.47c0.766,2.534 0.825,5.18 0.5,7.805c2.004,-0.33 4.025,-0.65 6.075,-1.005c-0.163,-0.466 -0.254,-1.033 -0.534,-1.491c-2.15,-3.546 -4.229,-7.138 -6.533,-10.584c-2.2,-3.283 -1.371,-8.137 -5.579,-10.4c-0.392,-0.208 -0.554,-1.308 -0.425,-1.925c0.729,-3.529 1.346,-7.108 2.45,-10.533c0.929,-2.867 2.458,-5.542 3.737,-8.3c0.875,-1.879 -0.07,-3.071 -1.662,-3.742c-0.233,-0.1 -1.35,1.255 -1.675,2.088c-0.9,2.321 -1.742,4.683 -2.321,7.1c-0.425,1.787 -1.242,2.883 -3.054,2.204c-2.238,-0.833 -2.879,0.263 -3.35,2.038c-0.267,0.995 -0.463,2.137 -1.092,2.87c-1.687,1.946 -0.654,5.971 -5.404,5.667c-6.387,-0.412 -7.512,-1.292 -6.458,-7.671c0.129,-0.787 0.221,-1.608 0.462,-2.362c0.654,-2.029 0.467,-3.059 -2.187,-3.259c-4.442,-0.333 -5.329,-1.666 -5.371,-5.945c-0.038,-4.45 2.871,-7.471 5.1,-10.842c0.871,-1.317 1.75,-2.621 2.625,-3.933c-1.563,-0.442 -3.104,-1.071 -4.7,-1.271c-1.475,-0.188 -3.008,0.175 -4.508,0.125c-1.196,-0.046 -2.375,-0.354 -3.559,-0.546c0.179,-0.896 0.359,-1.796 0.471,-2.342c-3.342,0.9 -6.775,1.8 -10.183,2.775c-0.471,0.138 -0.859,0.642 -1.225,1.042c-4.696,5.058 -9.492,10.037 -14.046,15.212c1.492,-0.604 3.008,-1.137 4.508,-1.629" style="fill:#a7a9ac;fill-rule:nonzero;"/><path d="M253.292,224.851c-1.109,1.037 -2.446,1.916 -3.263,3.145c-1.433,2.142 -2.733,2.034 -4.479,0.438c-2.571,-2.35 -4,-1.95 -4.996,1.454c-0.675,2.308 -1.025,4.717 -1.7,7.021c-0.1,0.35 -1.633,0.712 -1.737,0.562c-1.229,-1.829 -2.204,-0.775 -2.759,0.35c-1.545,3.138 -3.179,6.288 -4.22,9.605c-0.88,2.8 -2.867,2.604 -4.621,2.054c-0.838,-0.267 -1.804,-2.334 -1.571,-3.317c1.454,-6.092 4.45,-11.483 8.537,-16.254c3.284,-3.829 6.671,-7.592 9.946,-11.442c0.246,-0.283 -0.029,-1.012 -0.062,-1.537c-0.642,0.071 -1.538,-0.109 -1.888,0.241c-3.454,3.505 -6.937,6.975 -10.15,10.688c-1.821,2.104 -3.108,4.654 -4.704,6.958c-1.575,2.267 -5.208,3.292 -7.371,1.396c-1.108,-0.967 -1.641,-4.071 -0.908,-5.337c2.133,-3.655 4.662,-7.255 7.729,-10.159c4.088,-3.862 8.846,-7.025 13.246,-10.575c0.446,-0.358 0.404,-1.308 0.587,-1.983c-0.612,0 -1.395,-0.242 -1.812,0.046c-2.15,1.471 -4.171,3.116 -6.308,4.616c-1.596,1.117 -2.838,3.788 -5.425,1.396c-0.192,-0.175 -0.934,0.025 -1.275,0.259c-2.396,1.637 -3.246,-0.192 -3.659,-1.842c-1.362,-5.479 -0.116,-10.442 3.967,-14.429c0.525,-0.513 2.633,-0.167 3.462,0.483c4.259,3.263 8.767,4.8 14.313,4.196c7.417,-0.813 15.012,-1.883 22.354,-1.129c6.792,0.687 14.346,1.037 19.446,7.046c0.517,0.616 1.154,1.225 1.387,1.945c2.092,6.417 2.463,12.784 -0.979,18.925c-2.858,5.1 -5.596,10.28 -8.679,15.246c-2.008,3.229 -4.387,6.279 -6.942,9.117c-0.704,0.779 -3.616,0.992 -3.791,0.629c-0.784,-1.583 -1.609,-3.65 -1.184,-5.217c1.109,-4.108 3.046,-7.995 4.234,-12.091c0.304,-1.042 -0.938,-2.525 -1.475,-3.809c-0.638,0.467 -1.429,0.825 -1.904,1.425c-3.05,3.859 -5.809,7.975 -9.113,11.605c-2.687,2.95 -5.725,5.791 -9.133,7.825c-2.634,1.575 -4.554,0.041 -3.713,-2.913c1.571,-5.483 3.675,-10.854 5.946,-16.104c1.483,-3.429 3.658,-6.558 5.517,-9.825c-0.284,-0.238 -0.567,-0.471 -0.85,-0.708" style="fill:#edab7a;fill-rule:nonzero;"/><path d="M144.836,267.172c1.963,1.342 4.196,2.867 6.425,4.392c-0.483,0.575 -0.866,1.429 -1.483,1.662c-3.629,1.383 -7.554,2.179 -10.908,4.021c-3.609,1.979 -6.905,4.679 -9.946,7.483c-2.417,2.225 -5.204,2.484 -8.254,-0.125c-1.825,-1.558 -2.05,-5.441 -0.159,-7.2c3.417,-3.162 7.109,-5.891 11.854,-6.954c3.909,-0.875 7.759,-2.029 12.471,-3.279" style="fill:#caccce;fill-rule:nonzero;"/><path d="M230.441,196.18c0.854,-0.063 1.504,-0.088 2.15,-0.15c8.946,-0.909 17.913,-1.625 26.817,-2.817c4.15,-0.55 8.196,-1.967 12.258,-3.108c1.584,-0.446 2.204,-0.254 3.071,1.421c1.629,3.162 3.95,5.962 5.929,8.954c0.363,0.537 0.479,1.237 0.704,1.866c-0.525,0.096 -1.079,0.363 -1.566,0.267c-5.579,-1.075 -11.167,-2.129 -16.721,-3.346c-7.15,-1.562 -14.15,0.35 -21.221,0.667c-4.108,0.187 -8.396,0.925 -11.421,-3.754" style="fill:#5cb1e3;fill-rule:nonzero;"/><path d="M139.353,149.265c-0.783,-6.538 3.875,-11.125 7.817,-16.038c0.208,-0.254 0.533,-0.429 0.8,-0.641c1.067,-0.842 2.617,-2.613 3.113,-2.355c1.629,0.825 3.412,2.138 4.17,3.721c2.405,4.984 4.434,10.142 6.438,15.3c0.342,0.863 -0.067,2.921 -0.304,2.95c-1.579,0.184 -3.263,0.779 -3.975,-1.875c-0.921,-3.408 -2.463,-6.704 -4.096,-9.858c-1.225,-2.363 -3.754,-2.354 -4.738,-0.008c-1.508,3.604 -3.012,7.32 -3.658,11.129c-0.454,2.687 -1.967,3.1 -3.892,3.375c-0.483,0.062 -1.487,-0.792 -1.595,-1.35c-0.25,-1.213 -0.08,-2.517 -0.08,-4.35" style="fill:#caccce;fill-rule:nonzero;"/><path d="M210.303,191.494c3.434,1.108 6.863,2.121 10.196,3.4c0.467,0.179 0.9,1.971 0.546,2.483c-3.3,4.829 -4.925,9.946 -3.583,15.8c0.146,0.634 -0.163,1.942 -0.454,2c-1.217,0.246 -2.509,0.134 -3.767,0.154c0.008,-0.75 -0.079,-1.52 0.05,-2.258c0.483,-2.737 -0.617,-3.8 -3.204,-2.65c-2.342,1.042 -4.434,2.617 -6.659,3.913c-0.7,0.408 -1.479,0.683 -2.545,0.695c5.716,-6.92 9.516,-14.42 9.42,-23.537" style="fill:#5cb1e3;fill-rule:nonzero;"/><path d="M149.184,153.151c-2.696,0.255 -3.421,-0.262 -1.787,-2.904c1.033,-1.683 1.112,-3.921 1.791,-5.846c0.267,-0.754 1,-1.35 1.517,-2.016c0.504,0.65 1.158,1.237 1.483,1.971c0.809,1.837 1.496,3.729 2.175,5.62c0.48,1.346 0.488,2.467 -1.433,2.617c-1.258,0.104 -2.5,0.367 -3.746,0.558" style="fill:#f7aab6;fill-rule:nonzero;"/><path d="M150.946,197.386c-8.096,-0.929 -10.579,4.433 -10.783,9.446c-0.05,1.133 0.742,2.642 1.642,3.417c3.825,3.283 7.704,2.858 11.97,0.329c4.167,-2.471 6.18,-5.559 5.017,-9.725c-1.146,-4.125 -4.633,-3.342 -7.846,-3.467m0.775,-3.671c2.421,0.775 5.109,1.117 7.209,2.409c4.466,2.75 4.766,9.962 0.879,13.575c-2.35,2.179 -4.642,4.404 -1.796,7.7c0.537,0.616 1.75,1.375 2.296,1.166c4.2,-1.604 8.554,-3.012 12.383,-5.271c6.608,-3.904 7.308,-10.579 3.108,-15.25c-1.304,-1.445 -1.145,-1.975 1.13,-2.408c4.495,-0.85 8.504,-2.783 10.408,-7.483c0.283,-0.696 1.396,-1.063 2.121,-1.579c0.016,0.983 0.412,2.183 -0.021,2.904c-2.113,3.579 -4.029,7.529 -9.225,7.483c-0.2,0 -0.783,1.438 -0.55,1.879c3.633,7.038 1.029,14.804 -6.358,17.813c-4.188,1.712 -8.759,2.529 -12.892,4.341c-4.304,1.892 -8.263,4.55 -12.421,6.792c-2.862,1.542 -5.667,3.496 -8.754,4.263c-3.658,0.904 -7.583,0.883 -11.404,0.991c-5.125,0.146 -9.513,-3.537 -9.396,-9.846c0.067,-3.62 -0.408,-3.766 -3.604,-1.866c-0.484,0.287 -0.942,0.854 -1.421,0.862c-1.392,0.029 -2.779,-0.166 -4.175,-0.271c1.012,-0.675 2.062,-1.304 3.033,-2.029c2.417,-1.791 4.784,-3.65 7.196,-5.437c0.788,-0.579 1.658,-1.038 2.496,-1.554c-0.033,1.041 0.317,2.312 -0.163,3.087c-2.391,3.896 -2.35,7.8 0.321,11.3c1.142,1.496 3.442,2.858 5.288,2.95c3.9,0.192 7.971,0 11.725,-0.975c3.071,-0.796 5.841,-2.862 8.633,-4.542c2.108,-1.266 4.192,-2.654 5.983,-4.304c0.859,-0.787 1.488,-2.391 1.317,-3.491c-0.104,-0.671 -1.887,-1.413 -2.983,-1.538c-3.163,-0.362 -6.75,0.429 -9.454,-0.792c-5.042,-2.27 -6.521,-8.458 -3.93,-13.729c2.588,-5.266 7.138,-7.091 13.021,-7.15" style="fill:#231f20;fill-rule:nonzero;"/><path d="M90.147,180.408c2.925,-2.446 5.446,-4.383 7.733,-6.567c0.608,-0.583 1.042,-2.308 0.654,-2.787c-1.604,-1.975 -3.446,-3.796 -5.433,-5.383c-0.758,-0.609 -2.171,-0.634 -3.229,-0.496c-0.313,0.041 -0.646,1.554 -0.604,2.375c0.22,4.187 0.558,8.362 0.879,12.858m15.487,-9.417c-1.45,1.713 -2.012,2.805 -2.912,3.38c-4.854,3.108 -9.392,6.516 -12.534,11.458c-0.254,0.404 -0.875,0.575 -1.325,0.854c-0.045,-0.537 -0.129,-1.071 -0.12,-1.604c0.008,-0.654 0.35,-1.421 0.108,-1.938c-3.471,-7.379 -2.588,-15.087 -1.767,-22.77c0.075,-0.742 0.859,-1.409 1.313,-2.113c0.441,0.654 0.862,1.321 1.325,1.958c0.4,0.563 0.804,1.521 1.279,1.563c4.242,0.408 6.658,3.3 8.987,6.292c1.017,1.304 1.575,3.116 3.884,2.437c0.454,-0.129 1.062,0.275 1.762,0.483" style="fill:#231f20;fill-rule:nonzero;"/><path d="M162.513,185.202c-1.075,1.158 -1.808,2.462 -2.292,2.375c-1.583,-0.271 -3.337,-0.746 -4.525,-1.733c-1.029,-0.863 -1.554,-2.475 -1.958,-3.859c-0.242,-0.841 -0.163,-2.279 0.375,-2.725c0.746,-0.608 2.625,-1.071 3.042,-0.646c1.904,1.93 3.466,4.188 5.358,6.588" style="fill:#231f20;fill-rule:nonzero;"/><path d="M131.989,187.451c3.362,0.029 6.858,4.688 5.733,6.913c-0.504,1.012 -2.225,1.425 -3.392,2.108c-1.362,-2.333 -2.858,-4.604 -3.962,-7.054c-0.188,-0.421 1.287,-1.584 1.621,-1.967" style="fill:#231f20;fill-rule:nonzero;"/><path d="M229.565,177.944c2.079,0 4.166,0.116 6.237,-0.025c4.529,-0.313 10.613,-5.238 11.363,-9.134c0.42,-2.187 0.608,-4.154 -2.78,-3.983c-0.97,0.046 -2.004,-1.113 -3.008,-1.721c1.079,-0.354 2.146,-0.733 3.229,-1.067c2.575,-0.791 5.15,-1.6 7.746,-2.325c0.808,-0.225 1.688,-0.179 2.533,-0.258c-0.366,0.788 -0.529,1.825 -1.141,2.313c-2.309,1.841 -4.125,3.358 -3.904,7.079c0.141,2.391 -2.067,5.596 -4.159,7.321c-3.758,3.091 -8.15,5.691 -13.504,4.425c-1.154,-0.271 -2.146,-1.238 -3.212,-1.888c0.2,-0.246 0.4,-0.492 0.6,-0.737" style="fill:#231f20;fill-rule:nonzero;"/><path d="M213.162,151.989c-0.546,-3.321 1.4,-6.217 3.829,-8.854c1.525,-1.65 6.425,-1.65 8.104,-0.092c0.288,0.267 0.367,0.738 0.546,1.117c-0.492,0.104 -1.046,0.412 -1.467,0.291c-3.696,-1.075 -6.975,0.946 -7.854,5.184c-0.779,3.75 -0.187,7.896 4.488,8.379c1.72,0.175 3.45,0.367 5.141,0.708c0.588,0.121 1.084,0.713 1.617,1.088c-0.425,0.466 -0.763,1.154 -1.288,1.366c-5.941,2.363 -13.091,-2.387 -13.116,-9.187" style="fill:#231f20;fill-rule:nonzero;"/><path d="M237.534,140.388c-0.571,0.954 -1.229,2.058 -1.883,3.154c-1.429,-0.946 -3.371,-1.6 -4.154,-2.925c-0.85,-1.438 -0.867,-3.508 -0.775,-5.275c0.054,-0.954 1.133,-2.633 1.7,-2.613c1.146,0.038 2.75,0.742 3.271,1.667c0.916,1.621 1.158,3.613 1.841,5.992" style="fill:#231f20;fill-rule:nonzero;"/><path d="M203.229,139.885c0.087,-1.709 -0.096,-2.504 0.196,-3.054c0.504,-0.955 1.295,-1.767 1.966,-2.634c0.796,0.709 1.963,1.275 2.313,2.159c0.825,2.079 1.55,4.291 1.737,6.495c0.092,1.025 -0.937,2.546 -1.891,3.1c-0.53,0.309 -2.438,-0.695 -2.888,-1.541c-0.875,-1.654 -1.167,-3.613 -1.433,-4.525" style="fill:#231f20;fill-rule:nonzero;"/><path d="M197.143,102.551c0.07,1.271 0.383,2.133 0.087,2.504c-0.837,1.017 -1.987,1.779 -2.9,2.742c-2.775,2.887 -3.708,6.362 -3.383,10.296c0.05,0.65 -0.675,1.362 -1.042,2.05c-0.433,-0.575 -1.071,-1.092 -1.258,-1.734c-1.517,-5.258 1.471,-10.579 5.312,-14.1c0.634,-0.579 1.546,-0.87 3.184,-1.758" style="fill:#231f20;fill-rule:nonzero;"/><path d="M150.946,197.386c3.213,0.125 6.7,-0.658 7.846,3.467c1.163,4.166 -0.85,7.254 -5.017,9.725c-4.266,2.529 -8.145,2.954 -11.97,-0.329c-0.9,-0.775 -1.692,-2.284 -1.642,-3.417c0.204,-5.013 2.687,-10.375 10.783,-9.446" style="fill:#f7aab6;fill-rule:nonzero;"/><path d="M90.147,180.408c-0.321,-4.496 -0.659,-8.671 -0.879,-12.858c-0.042,-0.821 0.291,-2.334 0.604,-2.375c1.058,-0.138 2.471,-0.113 3.229,0.496c1.987,1.587 3.829,3.408 5.433,5.383c0.388,0.479 -0.046,2.204 -0.654,2.787c-2.287,2.184 -4.808,4.121 -7.733,6.567" style="fill:#f7aab6;fill-rule:nonzero;"/><path d="M153.159,198.956c-1.554,-0.904 -3.741,-0.517 -4.887,0.863c-1.146,1.379 -1.109,3.583 0.083,4.92c1.192,1.338 3.392,1.65 4.917,0.696c1.179,-0.741 1.891,-2.187 1.675,-3.554c-0.217,-1.371 -1.396,-2.554 -2.784,-2.717" style="fill:#fff;fill-rule:nonzero;"/><g opacity="0.27"><path d="M152.453,246.834c-7.938,1.233 -16.096,1.825 -24.125,1.45c-8.005,-0.383 -16.642,-1.142 -23.809,-4.983c-3.296,-1.767 -6.604,-4.367 -7.721,-8.046c-1.154,-3.809 -0.112,-7.846 -0.812,-11.729c-1.167,0.254 -2.313,0.575 -3.45,0.954c-0.904,0.296 -1.908,0.712 -2.879,0.604c-2.079,-0.233 -2.25,-2.563 -2.259,-4.196c-0.012,-4.404 0.796,-8.871 1.971,-13.104c2.442,-8.804 6.909,-16.879 11.604,-24.683c-1.733,-1.142 -3.216,-2.588 -4.579,-4.146c-2.358,1.979 -4.496,4.191 -6.208,6.875c-0.25,0.404 -0.875,0.575 -1.325,0.854c-0.042,-0.538 -0.125,-1.071 -0.121,-1.608c0.013,-0.65 0.35,-1.417 0.108,-1.934c-3.466,-7.379 -2.583,-15.087 -1.766,-22.775c0.079,-0.737 0.862,-1.404 1.312,-2.108c0.204,0.292 0.404,0.587 0.604,0.883c0,-2.512 0.359,-5.008 1.105,-7.387c-0.63,-0.304 -1.209,-0.679 -1.859,-0.954c-4.508,-1.892 -5.871,-1.984 -6.6,2.541c-2.158,13.359 -2.046,26.571 4.304,39.071c0.263,0.508 0.242,1.383 -0.025,1.904c-2.104,4.113 -3.85,8.5 -6.566,12.192c-5.65,7.671 -5.734,16.767 -7.521,25.446c-0.179,0.883 0.312,1.904 0.487,2.862c0.738,-0.55 1.496,-1.071 2.2,-1.658c0.78,-0.65 1.45,-1.446 2.275,-2.013c0.6,-0.416 1.73,-0.97 2.021,-0.741c0.596,0.491 1.088,1.466 1.084,2.233c-0.021,2.179 -0.367,4.346 -0.467,6.517c-0.029,0.754 0.292,1.512 0.45,2.271c0.725,-0.375 1.433,-0.805 2.187,-1.121c1.238,-0.513 2.505,-0.946 3.767,-1.413c0.325,1.246 0.929,2.492 0.925,3.738c-0.012,1.95 0.642,2.604 2.638,2.562c0.666,-0.012 1.945,1.25 1.937,1.917c-0.046,3.65 1.996,4.854 5.208,4.762c3.48,-0.1 6.946,-0.45 10.425,-0.504c0.98,-0.016 2.846,0.721 2.821,0.975c-0.266,2.85 1.904,2.525 3.45,2.6c3.121,0.159 6.254,0.05 9.384,0.05c12.175,0.517 24.062,-0.921 35.366,-5.704c4.284,-1.817 8.338,-3.987 12.038,-6.683c-5.717,1.925 -11.629,3.3 -17.579,4.229" style="fill:#808285;fill-rule:nonzero;"/></g></g></svg>