<svg clip-rule="evenodd" fill-rule="evenodd" stroke-miterlimit="10" viewBox="0 0 466 343" xmlns="http://www.w3.org/2000/svg"><g opacity=".7"><path d="m21.324 21.016v291.671h423.371v-52.541h-14.792v-52.65l14.792-29.43v-7.137l-14.792-27.763v-56.175h14.792v-65.975z" fill="#97d8e3" fill-rule="nonzero"/><path d="m429.906 207.497 14.787-29.429v-7.137l-14.787-27.767v-56.175h14.787v-65.975h-423.371v291.675h423.371v-52.542h-14.787z" fill="none" stroke="#00b0c4" stroke-width="4.11"/></g><path d="m332.85 216.141c-2.504 5.908.983 9.416 6.321 8.337 1.354-.275 2.641-1.158 3.796-1.992.595-.42.833-1.341 1.229-2.041-.659-.159-1.317-.471-1.967-.454-3.571.087-6.875-.45-9.379-3.85zm4.787 10.741c-3.908-.075-5.95 2.463-4.783 6.088.571 1.762 1.621 2.833 3.604 1.471.696-.48 1.679-.663 2.192-1.267 1.662-1.958 3.171-4.046 4.737-6.083-1.666-.071-3.341-.142-5.004-.209-.25-.008-.5 0-.746 0zm7.217 3.888c-2.662 4.787-6.379 5.491-10.458 6.308-1.65.329-2.692 3.7-4.013 5.683 1.442.55 2.892 1.596 4.313 1.563 5.237-.133 9.846-5.996 10.158-13.554zm2.367-21.175c.454-4.934-6.675-10.321-10.121-10.929-.646-.117-1.654.158-2.025.625-.342.437-.358 1.712-.004 2.029 2.921 2.562 1.391 5.258.212 7.779-1.737 3.704.621 7.912 4.713 8.617 3.05.525 7.441-3.013 7.225-8.121zm-58.471-8.279c1.321-.084 2.358-.025 3.329-.242 1.138-.263 2.221-.763 3.329-1.154-.716-1.092-1.229-2.429-2.187-3.217-1.984-1.629-4.134-3.071-6.338-4.392-7.908-4.741-15.983-8.737-25.641-8.662-6.638.054-13.3-.696-19.921-1.417-4.034-.437-7.967-1.696-12-2.187-1.592-.192-3.342.629-4.954 1.196-.155.054.012 2.175.329 2.266 3.441.967 6.921 1.809 10.425 2.517 6.337 1.279 12.666 2.587 19.046 3.617 7.37 1.191 14.779 2.183 22.195 3.07 3.042.367 5.121 1.33 4.93 4.788-.134 2.587 1.287 3.546 3.629 3.633 1.379.05 2.762.129 3.829.184zm33.487-48.921c-.454.246-2.12.762-3.266 1.833-5.313 4.971-10.863 9.763-15.604 15.25-5.342 6.175-9.3 13.129-7.371 22.025 1.354 6.25 4.104 8.054 8.971 5.221 1.262-.733 2.454-1.588 3.637-2.442 1.908-1.383 2.071-2.566-.192-3.904-.825-.479-1.895-2.129-1.65-2.579 1.984-3.6 4.263-7.038 6.434-10.533 4.275-6.855 8.641-13.646 12.762-20.588 2.271-3.825 1.946-4.167-3.721-4.283zm11.342 1.712c-.475-.187-.946-.375-1.421-.571-3.133 4.938-6.275 9.871-9.396 14.817-3.204 5.063-6.283 10.208-9.62 15.183-1.588 2.371-2.734 4.321.287 6.434.763.529 1.379 1.687 1.496 2.629.342 2.737.542 5.512.542 8.275.02 22.912-.013 45.825-.03 68.742v9.983c3.988-5.413 7.575-10.754 9.946-16.596 1.825-4.508 4.109-8.521 7.029-12.304 1.088-1.413 2.5-2.846-.904-3.546-4.187-.862-4.804-3.283-2.741-7.137.879-1.638 1.008-3.713 1.308-5.621.358-2.213.592-4.45.746-6.692.066-.937.079-2.087-.388-2.833-1.841-2.954-1.491-7.375.938-10.017.454-.492.912-1.183.954-1.804.262-3.938.487-7.879.579-11.821.258-11.579.471-23.162.663-34.737.066-4.13.012-8.255.012-12.384zm-95.3 113.225c-1.458.292-2.658.613-3.879.746-3.492.392-6.992.779-10.5.983-.654.042-1.35-.754-2.029-1.158.587-.337 1.137-.862 1.766-.979 3.417-.633 6.946-.854 10.259-1.833 2.387-.705 5.133-1.888 6.512-3.759 1.171-1.579.617-4.437.834-6.737-1.517.379-3.013.858-4.546 1.112-4.809.779-9.629 1.509-14.463 2.129-.491.067-1.091-.75-1.641-1.154.554-.587 1.012-1.371 1.687-1.704.621-.308 1.479-.158 2.238-.154 5.658.004 10.941-1.492 15.708-4.471 1.033-.646 1.733-2.279 1.983-3.575.179-.912-.662-2.017-1.046-3.033-.966.596-1.916 1.216-2.891 1.787-.538.317-1.104.767-1.684.804-5.758.359-11.516.705-17.287.875-.642.021-1.321-1.062-1.988-1.633.65-.612 1.259-1.692 1.95-1.75 3.509-.287 7.05-.146 10.55-.483 2.046-.2 4.1-.829 6.017-1.592 2.533-.996 3.313-3.042 2.142-5.508-1.204-2.525-3.284-4.138-6.034-2.646-5.983 3.254-11.429-.138-17.041-1.113-.675-.116-1.475-2.012-1.471-3.079.021-2.687.575-5.371.642-8.062.012-.521-1.421-1.654-1.888-1.517-5.146 1.529-10.242 3.929-11.546 9.433-1.829 7.73-2.533 15.721-3.691 23.6-.309 2.088-.088 4.359-.85 6.246-2.359 5.809-5.063 11.479-7.696 17.179-.2.438-.871.65-1.325.971-.242-.637-.854-1.408-.679-1.891 1.495-4.038 3.225-7.992 4.7-12.042 1.266-3.463 2.337-7 3.375-10.542.166-.575-.305-1.341-.484-2.021-.612.342-1.291.605-1.829 1.042-2.65 2.15-5.179 4.467-7.917 6.496-3.437 2.537-7.075 4.796-10.52 7.325-.546.4-1.005 1.858-.709 2.342 3.367 5.441 6.725 10.9 10.4 16.129 2.946 4.191 8.188 5.921 12.054 3.987 2.588-1.3 4.796-3.358 7.184-5.062 2-1.425 3.604-2.742.387-4.754-.55-.342-.191-2.138-.254-3.267 1.013.267 2.117.362 3.017.837 1.333.705 2.425 2.021 3.812 2.484 6.534 2.179 13.071.812 19.217-1.288 4.229-1.446 9.129-3.237 9.454-9.7zm-63.483 9.867c-.709 3.546-1.592 6.767-1.959 10.05-.77 6.871-1.362 13.767-1.77 20.671-.067 1.121.895 2.966 1.845 3.366 3.371 1.405 6.913 2.425 10.434 3.425 6.166 1.746 12.279 3.93 18.575 4.942 15.721 2.517 31.6 2.379 47.462 1.496 3.879-.221 7.9-.346 11.554-1.479 2.846-.884 5.642-2.904 7.625-5.154.771-.875-.75-3.755-1.191-5.73-.138-.608.046-1.387-.275-1.841-.7-.992-1.475-2.35-2.479-2.638-4.417-1.262-8.88-2.762-13.413-3.141-10.417-.867-19.433-5.942-29.121-8.967-1.079-.342-2.491-1.65-2.621-2.646-.662-5.192-3.183-7.754-8.566-7.129-.463.054-.996-.396-1.454-.321-.921.163-2.255.229-2.655.838-2.8 4.295-6.825 6.475-11.62 7.945-4.034 1.242-10.442-.325-12.93-3.762-2.42-3.342-4.945-6.604-7.441-9.925zm39.25-65.9h-.167c0-1.138-.108-2.283.021-3.396.329-2.712-1.046-2.846-3.333-2.904-8.263-.204-16.58-.267-24.746-1.342-4.059-.533-7.796-3.287-11.779-4.758-1.605-.592-3.746-1.075-5.184-.488-3.162 1.292-5.958 3.438-9.037 4.98-4.596 2.291-8.963 10.65-8.017 15.545 1.504 7.817 2.858 15.659 4.404 23.463 1.404 7.075 2.859 14.146 4.6 21.146.313 1.246 2.284 3.108 3.259 2.979 2.516-.342 5.237-1.175 7.295-2.633 6.871-4.875 13.3-10.388 20.284-15.084 3.575-2.404 3.475-5.504 3.662-8.879.021-.379.046-.758.079-1.133 1.155-12.817 4.992-17.592 16.78-21.129.775-.234 1.6-1.375 1.795-2.234.305-1.312.084-2.75.084-4.133zm97.908-14.446c-1.942.838-3.937 1.508-5.75 2.513-6.646 3.675-13.487 6.554-21.292 4.987-2.9-.583-3.279.483-3.312 3.058-.225 18.888-.5 37.78-.975 56.667-.308 12.079-.938 24.15-1.521 36.221-.179 3.758 1.521 6.233 5.246 5.842 6.412-.671 12.871-1.546 19.104-3.121 4.142-1.054 7.004-5.054 7.342-8.913 1.004-11.371 1.337-22.821 1.45-34.241.146-14.859-.188-29.721-.288-44.58-.037-6.012-.004-12.033-.004-18.433zm-94.721 9.813h.246c0 6.679-.071 13.354.067 20.029.025 1.216.7 3.329 1.379 3.462 2.825.546 5.917 1.15 8.637.538 9.784-2.179 12.196-.754 14.617 9.496.238.987 1.154 1.812 1.742 2.729 1.75 2.741 2.258 5.35-.017 8.229-.671.85-.646 2.733-.225 3.875.917 2.487 1.333 4.537-.487 6.971-1.171 1.562-1.471 3.85-1.917 5.866-.933 4.271-2.675 8.117-6.717 10.105-3.308 1.629-6.991 2.487-10.429 3.875-1.146.462-2.808 1.404-2.921 2.287-.246 2.05-.804 4.533 2.425 5.454 4.279 1.213 8.421 2.904 12.659 4.259 5.583 1.787 11.179 3.562 16.833 5.104 2.525.687 5.358.375 7.779 1.262 3.338 1.221 7.342-.216 10.267 2.804.471.48 3.283-.166 3.404-.683.775-3.142 1.367-6.383 1.496-9.617.5-12.454.796-24.916 1.171-37.37.245-8.188.47-16.371.783-24.555.337-9 1.1-18.004 1.054-27.004-.037-6.896-1.421-7.896-8.217-8.741-4.987-.621-10.033-.93-14.954-1.909-10.375-2.066-20.691-4.462-31.021-6.762-1.55-.346-3.116-.754-4.566-1.367-2.175-.925-3.188-.742-3.129 2.013.133 6.545.041 13.104.041 19.65zm-42.379-109.73c.679 2.038 1.05 3.338 1.542 4.592 3.208 8.171 1.308 17.5-9.009 19.271-2.783.475-3.166 1.246-2.504 3.854.775 3.05 1.713 6.492.996 9.371-.879 3.546-3.212 6.8-5.233 9.975-3.817 5.996-5.342 6.067-9.963.921-3.208-3.571-9.25-4.775-12.579-2.167-4.692 3.671-8.092 8.288-7.7 14.592.208 3.429.908 6.866 1.738 10.208 2.429 9.804 14.929 13.308 22.508 6.438.592-.538 1.5-.721 2.258-1.071.079.925.342 1.875.184 2.75-.121.679-.955 1.208-1.142 1.896-.225.837-.504 2.133-.071 2.612 2.779 3.083 5.375 6.521 8.729 8.846 5.921 4.108 11.934 9.167 18.642 10.792 8.967 2.17 18.404 4.887 28.025 2.091 1.837-.533 2.504-1.075 2.504-2.908-.004-4.788.479-9.596.096-14.346-.263-3.287 1.154-2.575 3.15-2.412 1.258.104 2.883-.267 3.817-1.05 3.887-3.23 8.112-4.3 13.108-3.438 9.204 1.592 18.45 2.942 27.696 4.296 4.454.65 8.95 1.037 13.421 1.629 2.462.329 4.216-.304 4.741-2.967.604-3.079 1.413-6.141 1.746-9.25 1.779-16.75-2.471-32.491-8.437-47.866-3.38-8.729-7.263-17.267-10.709-25.971-1.179-2.967-2.621-4.583-6.125-4.608-6.679-.042-9.596-2.513-12.062-8.963-.171-.45-1.779-.854-2.359-.562-1.958.979-3.629 2.937-5.641 3.333-7.309 1.433-14.388.983-20.342-4.371-.583-.525-1.533-.633-2.321-.937-.204.687-.425 1.375-.616 2.07-1.017 3.675-1.725 7.48-3.159 10.984-.737 1.812-2.5 3.529-4.233 4.546-6.413 3.758-13.067 4-19.979 1.004-3.171-1.371-6.663-2.009-10.717-3.184zm91.492-11.266c.366.133.741.279 1.112.412-.816 1.679-1.737 3.321-2.412 5.054-.463 1.196-1.167 2.763-.759 3.755 1.955 4.766 4.363 9.337 6.388 14.075 1.517 3.55 2.804 7.208 4.008 10.883 3.117 9.525 6.121 19.092 9.209 28.633.266.838.783 1.596 1.187 2.392.904-.517 1.925-.913 2.708-1.579 2.346-1.979 2.321-3.979.796-6.792-2.941-5.408-2.562-6.687 1.521-11.046 3.167-3.383 5.246-7.216 3.358-11.771-1.337-3.22-3.354-6.237-5.495-9.008-1.367-1.762-1.759-3.233-.013-4.446 3.754-2.608 6.333-5.916 8.354-10.046 2.738-5.587 2.867-10.616-1.15-15.125-1.912-2.145-4.525-3.679-6.871-5.425-1.816-1.345-3.983-2.316-1.575-5.154 1.492-1.758 2.555-3.971 3.467-6.129 1.625-3.85 3.85-7.279 1.946-12.192-3.004-7.775-8.354-11.554-16.546-10.07-.846.15-1.804-.321-2.712-.505.187-.925.175-1.962.6-2.762.912-1.721 2.395-3.196 3.045-4.992 4.213-11.696-1.7-19.958-13.704-20.016-10.962-.055-21.446 2.325-29.916 10.162-1.063.979-2.025 1.563-2.988-.683-3.212-7.513-9.654-10.788-17.342-10.892-3.97-.054-8.204 1.238-11.879 2.892-4.162 1.883-8.996 3.316-11.437 7.7-1.475 2.641-2.65 2.371-4.604.666-4.063-3.537-8.613-5.975-14.259-4.729-3.133.688-6.291 1.404-9.279 2.538-3.096 1.175-6.337 2.433-8.883 4.45-2.638 2.1-6.192 4.104-5.338 8.675.125.654-.941 2.133-1.616 2.241-3.617.575-7.35.513-10.913 1.271-9.55 2.034-16.508 8.071-22.104 15.663-.946 1.275-.596 4.291.271 5.904.887 1.658 3.225 2.496 4.771 3.871.75.671 1.504 1.721 1.57 2.65.046.608-1.029 1.466-1.775 1.937-1.02.642-2.162 1.3-3.325 1.471-5.883.879-10.525 3.988-14.875 7.775-4.262 3.708-6.437 9.783-3.708 12.846 4.5 5.037 9.229 10.212 17.088 9.504 4.325-.387 7.975 1.513 11.758 3.125-5.346 0-10.446.1-15.542-.025-6.3-.162-11.612 4.821-13.766 10.746-1.8 4.95.641 13.846 4.629 16.825 3.516 2.633 7.291 4.921 10.862 7.479.696.5 1.25 1.538 1.342 2.383.046.4-1.071 1.192-1.775 1.371-1.329.342-2.879.054-4.075.6-1.683.763-3.804 1.709-4.554 3.179-2.671 5.234.116 14.363 5.246 17.496 3.52 2.15 7.3 3.892 11.041 5.65 2.796 1.304 3.059 2.446.729 4.588-2.654 2.441-3.133 7.012-1.45 10.191 1.984 3.734 4.592 6.467 8.546 8.317 5.192 2.429 10.025 2.725 15.225.171 1.396-.683 4.075-.867 5.017-.013 4.95 4.488 9.937 6.288 16.45 3.146 3.017-1.454 2.2-2.012.392-3.537-1.984-1.675-4.138-3.325-5.555-5.429-2.725-4.03-5.879-5.93-11.008-5.38-3.192.338-7.079-.162-9.767-1.766-8.22-4.896-8.941-13.825-8.966-21.946-.013-4.404 1.116-9.658 5.412-13.392 6.288-5.471 13.025-8 19.538.029 2.341 2.896 3.496 2.759 5.508-.479.325-.525.588-1.108.996-1.562 4.375-4.892 6.996-10.2 3.546-16.675-.554-1.029-1.954-1.967-3.134-2.254-5.295-1.3-10.691-2.196-15.954-3.609-1.325-.358-2.271-2.091-4.083-3.866 1.558 0 1.692-.03 1.808.004 9.088 2.458 18.017 5.787 27.634 1.766 4.491-1.879 6.912-7.112 5.45-11.537-1.009-3.063-1.896-6.213-2.367-9.4-.546-3.663.808-4.754 4.296-3.575 3.262 1.096 6.512 2.367 9.533 3.987 5.108 2.738 10.433 2.6 15.638 1.134 2.2-.621 4.3-2.667 5.787-4.571 4.342-5.592 3.475-12.3 3.263-18.758-.259-7.721-4.03-15.071-1.159-23.23 1.784-5.066 4.617-8.67 8.804-11.429 1.288-.854 3.242-.721 4.892-1.037-6.725 4.062-12.112 10.966-11.296 19.416.413 4.275 1.442 8.496 1.963 12.763.958 7.762 6.25 11.137 12.987 12.971 5.504 1.5 10.404-.5 14.667-3.713 4.579-3.45 8.6-7.65 13.225-11.033 3.046-2.225 7.183-3.871 10.529-1.471 2.146 1.542 3.133 4.975 4.088 7.754.333.967-.821 2.634-1.63 3.738-.437.6-1.566.687-2.383 1.012.121-.733.454-1.5.333-2.187-.366-2.179-.52-4.55-1.554-6.392-.458-.821-3.233-1.25-4.279-.658-3.817 2.179-7.342 4.854-10.983 7.337-2.45 1.671-2.504 3.538-1.025 6.054 4.025 6.813 10.587 8.171 16.862 3.296.763-.596 1.588-1.112 2.388-1.662zm-106.717 113.758c-3.408-.437-7.154-.146-10.158-1.496-4.263-1.904-7.65-3.046-12.788-1.696-7.137 1.888-14.421-.479-19.541-6.533-3.521-4.154-5.559-9.046-3.575-14.558 1.2-3.346.5-4.484-2.934-6.038-9.725-4.4-14.575-9.533-13.483-21.087.537-5.692 2.092-7.313 8.754-8.809-8.079-4.529-13.737-10.537-14.662-19.112-.967-8.946 3.1-15.733 11.12-19.008-3.116-2.909-6.666-5.509-9.3-8.838-4.875-6.158-1.495-11.658 3.155-16.821 4.166-4.629 9.475-7.562 15.6-9 .475-.108 1.162-1.654.987-1.837-6.279-6.838-6.483-10.509-.142-17.059 6.046-6.25 13.105-11.008 21.817-12.85 2.388-.5 4.792-.95 7.142-1.587.691-.188 1.55-.817 1.791-1.45 2.017-5.288 5.846-8.821 10.975-10.758 5.646-2.125 11.392-4.134 17.246-5.542 5.079-1.221 9.267 1.896 13.525 4.187.684.367 2.109.417 2.567-.029 5.567-5.433 12.396-8.012 19.925-8.979 2.858-.371 5.792-.725 8.633-.471 5.063.454 9.613 2.259 12.775 6.588 2.842 3.879 5.867 1.516 8.6 0 9.767-5.413 20.279-7.854 31.046-5.179 9.65 2.4 14 9.137 11.738 20.304-.767 3.808-1.259 5.329 3.454 7.091 10.262 3.85 16.554 17.85 8.483 28-.912 1.146-1.692 2.621-1.892 4.038-.141.992.509 2.692 1.313 3.121 6.479 3.479 9.758 8.512 9.7 16.091-.054 7.046-4.158 11.696-8.379 16.342-1.396 1.533-1.617 2.021-.588 4.129 2.184 4.463 4.3 9.359 4.604 14.192.184 2.917-2.775 6.317-4.954 8.983-1.408 1.725-2.429 2.859-1.529 5.171.808 2.071 1.446 4.325 1.554 6.529.163 3.192-.241 6.229-4.208 7.434-2.738.845-3.467 3.033-3.371 6.041.163 5.375-.029 10.821-.696 16.154-.371 2.975-2.125 5.759-2.979 8.709-.242.812.2 2.371.854 2.8 3.246 2.162 6.654 4.075 10.029 6.033.388.229 1.217.404 1.334.246.316-.454.475-1.088.508-1.658.233-3.992-.154-8.121.75-11.95 1.75-7.334 7.129-12.496 12.179-17.713 2.942-3.046 5.846-6.237 9.254-8.675 2.142-1.533 5.18-2.467 7.821-2.479 3.659-.017 6.871.125 8.563-3.875.183-.429 1.004-.938 1.396-.846.4.096.833.854.912 1.375.579 3.817 1.575 7.663 1.5 11.479-.212 11.029-.829 22.059-1.379 33.079-.158 3.113.608 4.738 4.204 5.13 5.583.608 11.333 7.05 11.225 12.679-.067 3.637-1.596 7.216-2.112 10.875-.417 2.954-.855 6.083-.325 8.954 1.362 7.325-2.746 12.412-7.371 16.479-2.229 1.95-3.209 4.233-4.667 6.338-3.004 4.35-5.637 8.979-8.183 13.625-3.188 5.829-6.329 11.7-9.109 17.733-1.987 4.312-3.166 8.992-5.041 13.367-.984 2.291-2.371 4.587-4.117 6.35-3.825 3.875-9.117 4.995-14.167 5.908-4.15.746-8.545.617-12.779.25-2.858-.25-5.616-1.625-8.441-2.4-.775-.213-1.65-.063-2.48-.083.013 1.091-.291 2.316.096 3.25 2.217 5.304 1.179 8.7-4.2 10.941-3.608 1.509-7.496 2.846-11.35 3.188-17.091 1.525-34.241 1.883-51.25-.692-7.691-1.167-15.221-3.517-22.75-5.583-4.133-1.134-8.187-2.638-12.154-4.284-2.742-1.137-2.337-3.708-2.079-6.154 1.208-11.575 2.483-23.146 3.437-34.754.405-4.975.08-5-4.691-4.279-5.784.875-7.667-.433-8.879-6.217-1.513-7.216-3.121-14.412-4.467-21.662-1.2-6.479-2.325-13-3.092-19.55-1.046-8.929.867-16.709 9.696-21.592z" fill="none" stroke="#fff" stroke-linecap="round" stroke-linejoin="round" stroke-width="13.45"/><g fill-rule="nonzero"><path d="m332.85 216.141c-2.504 5.908.983 9.416 6.321 8.337 1.354-.275 2.641-1.158 3.796-1.992.595-.42.833-1.341 1.229-2.041-.659-.159-1.317-.471-1.967-.454-3.571.087-6.875-.45-9.379-3.85m4.787 10.741c-3.908-.075-5.95 2.463-4.783 6.088.571 1.762 1.621 2.833 3.604 1.471.696-.48 1.679-.663 2.192-1.267 1.662-1.958 3.171-4.046 4.737-6.083-1.666-.071-3.341-.142-5.004-.209-.25-.008-.5 0-.746 0m7.217 3.888c-2.662 4.787-6.379 5.491-10.458 6.308-1.65.329-2.692 3.7-4.013 5.683 1.442.55 2.892 1.596 4.313 1.563 5.237-.133 9.846-5.996 10.158-13.554m2.367-21.175c.454-4.934-6.675-10.321-10.121-10.929-.646-.117-1.654.158-2.025.625-.342.437-.358 1.712-.004 2.029 2.921 2.562 1.391 5.258.212 7.779-1.737 3.704.621 7.912 4.713 8.617 3.05.525 7.441-3.013 7.225-8.121m-58.471-8.279c1.321-.084 2.358-.025 3.329-.242 1.138-.263 2.221-.763 3.329-1.154-.716-1.092-1.229-2.429-2.187-3.217-1.984-1.629-4.134-3.071-6.338-4.392-7.908-4.741-15.983-8.737-25.641-8.662-6.638.054-13.3-.696-19.921-1.417-4.034-.437-7.967-1.696-12-2.187-1.592-.192-3.342.629-4.954 1.196-.155.054.012 2.175.329 2.266 3.441.967 6.921 1.809 10.425 2.517 6.337 1.279 12.666 2.587 19.046 3.617 7.37 1.191 14.779 2.183 22.195 3.07 3.042.367 5.121 1.33 4.93 4.788-.134 2.587 1.287 3.546 3.629 3.633 1.379.05 2.762.129 3.829.184m33.487-48.921c-.454.246-2.12.762-3.266 1.833-5.313 4.971-10.863 9.763-15.604 15.25-5.342 6.175-9.3 13.129-7.371 22.025 1.354 6.25 4.104 8.054 8.971 5.221 1.262-.733 2.454-1.588 3.637-2.442 1.908-1.383 2.071-2.566-.192-3.904-.825-.479-1.895-2.129-1.65-2.579 1.984-3.6 4.263-7.038 6.434-10.533 4.275-6.855 8.641-13.646 12.762-20.588 2.271-3.825 1.946-4.167-3.721-4.283m11.342 1.712c-.475-.187-.946-.375-1.421-.571-3.133 4.938-6.275 9.871-9.396 14.817-3.204 5.063-6.283 10.208-9.62 15.183-1.588 2.371-2.734 4.321.287 6.434.763.529 1.379 1.687 1.496 2.629.342 2.737.542 5.512.542 8.275.02 22.912-.013 45.825-.03 68.742v9.983c3.988-5.413 7.575-10.754 9.946-16.596 1.825-4.508 4.109-8.521 7.029-12.304 1.088-1.413 2.5-2.846-.904-3.546-4.187-.862-4.804-3.283-2.741-7.137.879-1.638 1.008-3.713 1.308-5.621.358-2.213.592-4.45.746-6.692.066-.937.079-2.087-.388-2.833-1.841-2.954-1.491-7.375.938-10.017.454-.492.912-1.183.954-1.804.262-3.938.487-7.879.579-11.821.258-11.579.471-23.162.663-34.737.066-4.13.012-8.255.012-12.384m-95.3 113.225c-1.458.292-2.658.613-3.879.746-3.492.392-6.992.779-10.5.983-.654.042-1.35-.754-2.029-1.158.587-.337 1.137-.862 1.766-.979 3.417-.633 6.946-.854 10.259-1.833 2.387-.705 5.133-1.888 6.512-3.759 1.171-1.579.617-4.437.834-6.737-1.517.379-3.013.858-4.546 1.112-4.809.779-9.629 1.509-14.463 2.129-.491.067-1.091-.75-1.641-1.154.554-.587 1.012-1.371 1.687-1.704.621-.308 1.479-.158 2.238-.154 5.658.004 10.941-1.492 15.708-4.471 1.033-.646 1.733-2.279 1.983-3.575.179-.912-.662-2.017-1.046-3.033-.966.596-1.916 1.216-2.891 1.787-.538.317-1.104.767-1.684.804-5.758.359-11.516.705-17.287.875-.642.021-1.321-1.062-1.988-1.633.65-.612 1.259-1.692 1.95-1.75 3.509-.287 7.05-.146 10.55-.483 2.046-.2 4.1-.829 6.017-1.592 2.533-.996 3.313-3.042 2.142-5.508-1.204-2.525-3.284-4.138-6.034-2.646-5.983 3.254-11.429-.138-17.041-1.113-.675-.116-1.475-2.012-1.471-3.079.021-2.687.575-5.371.642-8.062.012-.521-1.421-1.654-1.888-1.517-5.146 1.529-10.242 3.929-11.546 9.433-1.829 7.73-2.533 15.721-3.691 23.6-.309 2.088-.088 4.359-.85 6.246-2.359 5.809-5.063 11.479-7.696 17.179-.2.438-.871.65-1.325.971-.242-.637-.854-1.408-.679-1.891 1.495-4.038 3.225-7.992 4.7-12.042 1.266-3.463 2.337-7 3.375-10.542.166-.575-.305-1.341-.484-2.021-.612.342-1.291.605-1.829 1.042-2.65 2.15-5.179 4.467-7.917 6.496-3.437 2.537-7.075 4.796-10.52 7.325-.546.4-1.005 1.858-.709 2.342 3.367 5.441 6.725 10.9 10.4 16.129 2.946 4.191 8.188 5.921 12.054 3.987 2.588-1.3 4.796-3.358 7.184-5.062 2-1.425 3.604-2.742.387-4.754-.55-.342-.191-2.138-.254-3.267 1.013.267 2.117.362 3.017.837 1.333.705 2.425 2.021 3.812 2.484 6.534 2.179 13.071.812 19.217-1.288 4.229-1.446 9.129-3.237 9.454-9.7m-63.483 9.867c-.709 3.546-1.592 6.767-1.959 10.05-.77 6.871-1.362 13.767-1.77 20.671-.067 1.121.895 2.966 1.845 3.366 3.371 1.405 6.913 2.425 10.434 3.425 6.166 1.746 12.279 3.93 18.575 4.942 15.721 2.517 31.6 2.379 47.462 1.496 3.879-.221 7.9-.346 11.554-1.479 2.846-.884 5.642-2.904 7.625-5.154.771-.875-.75-3.755-1.191-5.73-.138-.608.046-1.387-.275-1.841-.7-.992-1.475-2.35-2.479-2.638-4.417-1.262-8.88-2.762-13.413-3.141-10.417-.867-19.433-5.942-29.121-8.967-1.079-.342-2.491-1.65-2.621-2.646-.662-5.192-3.183-7.754-8.566-7.129-.463.054-.996-.396-1.454-.321-.921.163-2.255.229-2.655.838-2.8 4.295-6.825 6.475-11.62 7.945-4.034 1.242-10.442-.325-12.93-3.762-2.42-3.342-4.945-6.604-7.441-9.925m39.25-65.9h-.167c0-1.138-.108-2.283.021-3.396.329-2.712-1.046-2.846-3.333-2.904-8.263-.204-16.58-.267-24.746-1.342-4.059-.533-7.796-3.287-11.779-4.758-1.605-.592-3.746-1.075-5.184-.488-3.162 1.292-5.958 3.438-9.037 4.98-4.596 2.291-8.963 10.65-8.017 15.545 1.504 7.817 2.858 15.659 4.404 23.463 1.404 7.075 2.859 14.146 4.6 21.146.313 1.246 2.284 3.108 3.259 2.979 2.516-.342 5.237-1.175 7.295-2.633 6.871-4.875 13.3-10.388 20.284-15.084 3.575-2.404 3.475-5.504 3.662-8.879.021-.379.046-.758.079-1.133 1.155-12.817 4.992-17.592 16.78-21.129.775-.234 1.6-1.375 1.795-2.234.305-1.312.084-2.75.084-4.133m97.908-14.446c-1.942.838-3.937 1.508-5.75 2.513-6.646 3.675-13.487 6.554-21.292 4.987-2.9-.583-3.279.483-3.312 3.058-.225 18.888-.5 37.78-.975 56.667-.308 12.079-.938 24.15-1.521 36.221-.179 3.758 1.521 6.233 5.246 5.842 6.412-.671 12.871-1.546 19.104-3.121 4.142-1.054 7.004-5.054 7.342-8.913 1.004-11.371 1.337-22.821 1.45-34.241.146-14.859-.188-29.721-.288-44.58-.037-6.012-.004-12.033-.004-18.433m-94.721 9.813h.246c0 6.679-.071 13.354.067 20.029.025 1.216.7 3.329 1.379 3.462 2.825.546 5.917 1.15 8.637.538 9.784-2.179 12.196-.754 14.617 9.496.238.987 1.154 1.812 1.742 2.729 1.75 2.741 2.258 5.35-.017 8.229-.671.85-.646 2.733-.225 3.875.917 2.487 1.333 4.537-.487 6.971-1.171 1.562-1.471 3.85-1.917 5.866-.933 4.271-2.675 8.117-6.717 10.105-3.308 1.629-6.991 2.487-10.429 3.875-1.146.462-2.808 1.404-2.921 2.287-.246 2.05-.804 4.533 2.425 5.454 4.279 1.213 8.421 2.904 12.659 4.259 5.583 1.787 11.179 3.562 16.833 5.104 2.525.687 5.358.375 7.779 1.262 3.338 1.221 7.342-.216 10.267 2.804.471.48 3.283-.166 3.404-.683.775-3.142 1.367-6.383 1.496-9.617.5-12.454.796-24.916 1.171-37.37.245-8.188.47-16.371.783-24.555.337-9 1.1-18.004 1.054-27.004-.037-6.896-1.421-7.896-8.217-8.741-4.987-.621-10.033-.93-14.954-1.909-10.375-2.066-20.691-4.462-31.021-6.762-1.55-.346-3.116-.754-4.566-1.367-2.175-.925-3.188-.742-3.129 2.013.133 6.545.041 13.104.041 19.65m-42.379-109.73c.679 2.038 1.05 3.338 1.542 4.592 3.208 8.171 1.308 17.5-9.009 19.271-2.783.475-3.166 1.246-2.504 3.854.775 3.05 1.713 6.492.996 9.371-.879 3.546-3.212 6.8-5.233 9.975-3.817 5.996-5.342 6.067-9.963.921-3.208-3.571-9.25-4.775-12.579-2.167-4.692 3.671-8.092 8.288-7.7 14.592.208 3.429.908 6.866 1.738 10.208 2.429 9.804 14.929 13.308 22.508 6.438.592-.538 1.5-.721 2.258-1.071.079.925.342 1.875.184 2.75-.121.679-.955 1.208-1.142 1.896-.225.837-.504 2.133-.071 2.612 2.779 3.083 5.375 6.521 8.729 8.846 5.921 4.108 11.934 9.167 18.642 10.792 8.967 2.17 18.404 4.887 28.025 2.091 1.837-.533 2.504-1.075 2.504-2.908-.004-4.788.479-9.596.096-14.346-.263-3.287 1.154-2.575 3.15-2.412 1.258.104 2.883-.267 3.817-1.05 3.887-3.23 8.112-4.3 13.108-3.438 9.204 1.592 18.45 2.942 27.696 4.296 4.454.65 8.95 1.037 13.421 1.629 2.462.329 4.216-.304 4.741-2.967.604-3.079 1.413-6.141 1.746-9.25 1.779-16.75-2.471-32.491-8.437-47.866-3.38-8.729-7.263-17.267-10.709-25.971-1.179-2.967-2.621-4.583-6.125-4.608-6.679-.042-9.596-2.513-12.062-8.963-.171-.45-1.779-.854-2.359-.562-1.958.979-3.629 2.937-5.641 3.333-7.309 1.433-14.388.983-20.342-4.371-.583-.525-1.533-.633-2.321-.937-.204.687-.425 1.375-.616 2.07-1.017 3.675-1.725 7.48-3.159 10.984-.737 1.812-2.5 3.529-4.233 4.546-6.413 3.758-13.067 4-19.979 1.004-3.171-1.371-6.663-2.009-10.717-3.184m91.492-11.266c.366.133.741.279 1.112.412-.816 1.679-1.737 3.321-2.412 5.054-.463 1.196-1.167 2.763-.759 3.755 1.955 4.766 4.363 9.337 6.388 14.075 1.517 3.55 2.804 7.208 4.008 10.883 3.117 9.525 6.121 19.092 9.209 28.633.266.838.783 1.596 1.187 2.392.904-.517 1.925-.913 2.708-1.579 2.346-1.979 2.321-3.979.796-6.792-2.941-5.408-2.562-6.687 1.521-11.046 3.167-3.383 5.246-7.216 3.358-11.771-1.337-3.22-3.354-6.237-5.495-9.008-1.367-1.762-1.759-3.233-.013-4.446 3.754-2.608 6.333-5.916 8.354-10.046 2.738-5.587 2.867-10.616-1.15-15.125-1.912-2.145-4.525-3.679-6.871-5.425-1.816-1.345-3.983-2.316-1.575-5.154 1.492-1.758 2.555-3.971 3.467-6.129 1.625-3.85 3.85-7.279 1.946-12.192-3.004-7.775-8.354-11.554-16.546-10.07-.846.15-1.804-.321-2.712-.505.187-.925.175-1.962.6-2.762.912-1.721 2.395-3.196 3.045-4.992 4.213-11.696-1.7-19.958-13.704-20.016-10.962-.055-21.446 2.325-29.916 10.162-1.063.979-2.025 1.563-2.988-.683-3.212-7.513-9.654-10.788-17.342-10.892-3.97-.054-8.204 1.238-11.879 2.892-4.162 1.883-8.996 3.316-11.437 7.7-1.475 2.641-2.65 2.371-4.604.666-4.063-3.537-8.613-5.975-14.259-4.729-3.133.688-6.291 1.404-9.279 2.538-3.096 1.175-6.337 2.433-8.883 4.45-2.638 2.1-6.192 4.104-5.338 8.675.125.654-.941 2.133-1.616 2.241-3.617.575-7.35.513-10.913 1.271-9.55 2.034-16.508 8.071-22.104 15.663-.946 1.275-.596 4.291.271 5.904.887 1.658 3.225 2.496 4.771 3.871.75.671 1.504 1.721 1.57 2.65.046.608-1.029 1.466-1.775 1.937-1.02.642-2.162 1.3-3.325 1.471-5.883.879-10.525 3.988-14.875 7.775-4.262 3.708-6.437 9.783-3.708 12.846 4.5 5.037 9.229 10.212 17.088 9.504 4.325-.387 7.975 1.513 11.758 3.125-5.346 0-10.446.1-15.542-.025-6.3-.162-11.612 4.821-13.766 10.746-1.8 4.95.641 13.846 4.629 16.825 3.516 2.633 7.291 4.921 10.862 7.479.696.5 1.25 1.538 1.342 2.383.046.4-1.071 1.192-1.775 1.371-1.329.342-2.879.054-4.075.6-1.683.763-3.804 1.709-4.554 3.179-2.671 5.234.116 14.363 5.246 17.496 3.52 2.15 7.3 3.892 11.041 5.65 2.796 1.304 3.059 2.446.729 4.588-2.654 2.441-3.133 7.012-1.45 10.191 1.984 3.734 4.592 6.467 8.546 8.317 5.192 2.429 10.025 2.725 15.225.171 1.396-.683 4.075-.867 5.017-.013 4.95 4.488 9.937 6.288 16.45 3.146 3.017-1.454 2.2-2.012.392-3.537-1.984-1.675-4.138-3.325-5.555-5.429-2.725-4.03-5.879-5.93-11.008-5.38-3.192.338-7.079-.162-9.767-1.766-8.22-4.896-8.941-13.825-8.966-21.946-.013-4.404 1.116-9.658 5.412-13.392 6.288-5.471 13.025-8 19.538.029 2.341 2.896 3.496 2.759 5.508-.479.325-.525.588-1.108.996-1.562 4.375-4.892 6.996-10.2 3.546-16.675-.554-1.029-1.954-1.967-3.134-2.254-5.295-1.3-10.691-2.196-15.954-3.609-1.325-.358-2.271-2.091-4.083-3.866 1.558 0 1.692-.03 1.808.004 9.088 2.458 18.017 5.787 27.634 1.766 4.491-1.879 6.912-7.112 5.45-11.537-1.009-3.063-1.896-6.213-2.367-9.4-.546-3.663.808-4.754 4.296-3.575 3.262 1.096 6.512 2.367 9.533 3.987 5.108 2.738 10.433 2.6 15.638 1.134 2.2-.621 4.3-2.667 5.787-4.571 4.342-5.592 3.475-12.3 3.263-18.758-.259-7.721-4.03-15.071-1.159-23.23 1.784-5.066 4.617-8.67 8.804-11.429 1.288-.854 3.242-.721 4.892-1.037-6.725 4.062-12.112 10.966-11.296 19.416.413 4.275 1.442 8.496 1.963 12.763.958 7.762 6.25 11.137 12.987 12.971 5.504 1.5 10.404-.5 14.667-3.713 4.579-3.45 8.6-7.65 13.225-11.033 3.046-2.225 7.183-3.871 10.529-1.471 2.146 1.542 3.133 4.975 4.088 7.754.333.967-.821 2.634-1.63 3.738-.437.6-1.566.687-2.383 1.012.121-.733.454-1.5.333-2.187-.366-2.179-.52-4.55-1.554-6.392-.458-.821-3.233-1.25-4.279-.658-3.817 2.179-7.342 4.854-10.983 7.337-2.45 1.671-2.504 3.538-1.025 6.054 4.025 6.813 10.587 8.171 16.862 3.296.763-.596 1.588-1.112 2.388-1.662m-106.717 113.758c-3.408-.437-7.154-.146-10.158-1.496-4.263-1.904-7.65-3.046-12.788-1.696-7.137 1.888-14.421-.479-19.541-6.533-3.521-4.154-5.559-9.046-3.575-14.558 1.2-3.346.5-4.484-2.934-6.038-9.725-4.4-14.575-9.533-13.483-21.087.537-5.692 2.092-7.313 8.754-8.809-8.079-4.529-13.737-10.537-14.662-19.112-.967-8.946 3.1-15.733 11.12-19.008-3.116-2.909-6.666-5.509-9.3-8.838-4.875-6.158-1.495-11.658 3.155-16.821 4.166-4.629 9.475-7.562 15.6-9 .475-.108 1.162-1.654.987-1.837-6.279-6.838-6.483-10.509-.142-17.059 6.046-6.25 13.105-11.008 21.817-12.85 2.388-.5 4.792-.95 7.142-1.587.691-.188 1.55-.817 1.791-1.45 2.017-5.288 5.846-8.821 10.975-10.758 5.646-2.125 11.392-4.134 17.246-5.542 5.079-1.221 9.267 1.896 13.525 4.187.684.367 2.109.417 2.567-.029 5.567-5.433 12.396-8.012 19.925-8.979 2.858-.371 5.792-.725 8.633-.471 5.063.454 9.613 2.259 12.775 6.588 2.842 3.879 5.867 1.516 8.6 0 9.767-5.413 20.279-7.854 31.046-5.179 9.65 2.4 14 9.137 11.738 20.304-.767 3.808-1.259 5.329 3.454 7.091 10.262 3.85 16.554 17.85 8.483 28-.912 1.146-1.692 2.621-1.892 4.038-.141.992.509 2.692 1.313 3.121 6.479 3.479 9.758 8.512 9.7 16.091-.054 7.046-4.158 11.696-8.379 16.342-1.396 1.533-1.617 2.021-.588 4.129 2.184 4.463 4.3 9.359 4.604 14.192.184 2.917-2.775 6.317-4.954 8.983-1.408 1.725-2.429 2.859-1.529 5.171.808 2.071 1.446 4.325 1.554 6.529.163 3.192-.241 6.229-4.208 7.434-2.738.845-3.467 3.033-3.371 6.041.163 5.375-.029 10.821-.696 16.154-.371 2.975-2.125 5.759-2.979 8.709-.242.812.2 2.371.854 2.8 3.246 2.162 6.654 4.075 10.029 6.033.388.229 1.217.404 1.334.246.316-.454.475-1.088.508-1.658.233-3.992-.154-8.121.75-11.95 1.75-7.334 7.129-12.496 12.179-17.713 2.942-3.046 5.846-6.237 9.254-8.675 2.142-1.533 5.18-2.467 7.821-2.479 3.659-.017 6.871.125 8.563-3.875.183-.429 1.004-.938 1.396-.846.4.096.833.854.912 1.375.579 3.817 1.575 7.663 1.5 11.479-.212 11.029-.829 22.059-1.379 33.079-.158 3.113.608 4.738 4.204 5.13 5.583.608 11.333 7.05 11.225 12.679-.067 3.637-1.596 7.216-2.112 10.875-.417 2.954-.855 6.083-.325 8.954 1.362 7.325-2.746 12.412-7.371 16.479-2.229 1.95-3.209 4.233-4.667 6.338-3.004 4.35-5.637 8.979-8.183 13.625-3.188 5.829-6.329 11.7-9.109 17.733-1.987 4.312-3.166 8.992-5.041 13.367-.984 2.291-2.371 4.587-4.117 6.35-3.825 3.875-9.117 4.995-14.167 5.908-4.15.746-8.545.617-12.779.25-2.858-.25-5.616-1.625-8.441-2.4-.775-.213-1.65-.063-2.48-.083.013 1.091-.291 2.316.096 3.25 2.217 5.304 1.179 8.7-4.2 10.941-3.608 1.509-7.496 2.846-11.35 3.188-17.091 1.525-34.241 1.883-51.25-.692-7.691-1.167-15.221-3.517-22.75-5.583-4.133-1.134-8.187-2.638-12.154-4.284-2.742-1.137-2.337-3.708-2.079-6.154 1.208-11.575 2.483-23.146 3.437-34.754.405-4.975.08-5-4.691-4.279-5.784.875-7.667-.433-8.879-6.217-1.513-7.216-3.121-14.412-4.467-21.662-1.2-6.479-2.325-13-3.092-19.55-1.046-8.929.867-16.709 9.696-21.592" fill="#231f20"/><path d="m266.345 85.667c-.796.55-1.621 1.067-2.388 1.662-6.27 4.88-12.837 3.517-16.858-3.291-1.483-2.517-1.425-4.384 1.021-6.059 3.642-2.479 7.171-5.158 10.987-7.333 1.042-.592 3.817-.158 4.275.654 1.038 1.85 1.188 4.217 1.559 6.396.116.688-.213 1.454-.338 2.188.817-.321 1.946-.417 2.388-1.017.804-1.104 1.958-2.767 1.625-3.738-.954-2.775-1.938-6.212-4.088-7.75-3.341-2.4-7.479-.758-10.529 1.475-4.625 3.375-8.642 7.58-13.221 11.03-4.266 3.212-9.162 5.212-14.666 3.712-6.738-1.837-12.034-5.204-12.992-12.971-.521-4.271-1.55-8.487-1.963-12.766-.812-8.45 4.571-15.35 11.296-19.413-1.646.317-3.6.179-4.891 1.033-4.188 2.767-7.021 6.367-8.805 11.438-2.87 8.15.9 15.504 1.159 23.221.212 6.458 1.079 13.166-3.263 18.758-1.487 1.913-3.583 3.954-5.787 4.575-5.204 1.467-10.529 1.604-15.634-1.137-3.025-1.617-6.275-2.892-9.537-3.988-3.488-1.179-4.838-.087-4.296 3.583.471 3.18 1.358 6.334 2.371 9.396 1.462 4.425-.963 9.659-5.45 11.534-9.621 4.02-18.55.695-27.638-1.767-.116-.033-.25-.004-1.808-.004 1.813 1.779 2.763 3.512 4.083 3.866 5.263 1.413 10.663 2.309 15.959 3.613 1.179.292 2.579 1.225 3.129 2.254 3.45 6.475.829 11.783-3.546 16.675-.404.45-.671 1.033-.992 1.563-2.016 3.237-3.17 3.375-5.512.479-6.508-8.034-13.246-5.5-19.538-.029-4.295 3.729-5.42 8.987-5.408 13.387.025 8.121.742 17.058 8.963 21.95 2.691 1.604 6.579 2.104 9.77 1.763 5.125-.542 8.28 1.35 11.005 5.383 1.416 2.104 3.575 3.754 5.554 5.429 1.812 1.525 2.625 2.083-.392 3.538-6.508 3.141-11.496 1.341-16.446-3.146-.941-.854-3.625-.675-5.016.012-5.2 2.554-10.038 2.254-15.23-.175-3.954-1.846-6.562-4.575-8.545-8.312-1.684-3.179-1.205-7.75 1.45-10.192 2.329-2.142 2.066-3.283-.725-4.592-3.746-1.754-7.525-3.495-11.046-5.641-5.129-3.142-7.913-12.267-5.246-17.5.754-1.471 2.875-2.413 4.558-3.184 1.196-.541 2.742-.258 4.071-.6.704-.179 1.825-.962 1.779-1.37-.096-.846-.65-1.88-1.346-2.384-3.566-2.558-7.341-4.841-10.858-7.471-3.992-2.987-6.429-11.879-4.633-16.829 2.154-5.925 7.471-10.904 13.766-10.75 5.096.129 10.196.029 15.542.029-3.783-1.612-7.429-3.516-11.758-3.125-7.859.705-12.588-4.47-17.084-9.508-2.733-3.054-.554-9.129 3.705-12.846 4.35-3.783 8.991-6.891 14.875-7.771 1.162-.17 2.304-.829 3.325-1.475.745-.466 1.825-1.32 1.779-1.933-.071-.929-.821-1.983-1.575-2.65-1.546-1.379-3.884-2.217-4.771-3.875-.867-1.608-1.213-4.625-.271-5.904 5.596-7.588 12.554-13.625 22.108-15.658 3.563-.763 7.296-.7 10.909-1.275.675-.105 1.741-1.58 1.621-2.238-.855-4.571 2.7-6.579 5.337-8.675 2.542-2.021 5.788-3.275 8.879-4.446 2.988-1.133 6.146-1.858 9.279-2.546 5.646-1.241 10.2 1.192 14.263 4.734 1.95 1.7 3.125 1.971 4.6-.671 2.446-4.375 7.275-5.813 11.442-7.692 3.67-1.658 7.908-2.95 11.875-2.896 7.691.1 14.133 3.375 17.345 10.892.959 2.246 1.921 1.667 2.984.679 8.475-7.833 18.958-10.216 29.916-10.158 12.005.058 17.921 8.317 13.705 20.012-.65 1.796-2.134 3.275-3.042 4.992-.429.804-.417 1.838-.6 2.771.908.175 1.862.654 2.708.5 8.192-1.488 13.542 2.296 16.55 10.071 1.9 4.916-.321 8.337-1.95 12.191-.908 2.159-1.975 4.367-3.466 6.13-2.405 2.837-.242 3.804 1.575 5.154 2.345 1.741 4.958 3.275 6.87 5.425 4.021 4.504 3.884 9.533 1.15 15.121-2.02 4.133-4.6 7.445-8.354 10.05-1.746 1.212-1.35 2.679.013 4.441 2.146 2.775 4.162 5.796 5.496 9.013 1.891 4.554-.188 8.387-3.355 11.766-4.083 4.359-4.466 5.638-1.525 11.05 1.53 2.817 1.555 4.809-.791 6.788-.788.667-1.804 1.067-2.713 1.587-.404-.795-.921-1.558-1.187-2.395-3.084-9.542-6.088-19.109-9.209-28.638-1.2-3.671-2.491-7.333-4.008-10.883-2.025-4.738-4.433-9.309-6.387-14.071-.409-.992.295-2.558.758-3.754.675-1.738 1.596-3.375 2.412-5.05-.37-.142-.741-.279-1.112-.421" fill="#594a42"/><path d="m207.943 54.236c-.433.875-.812 1.771-1.279 2.63-3.658 6.787-8.917 14.308-16.642 16.733-4.179 1.308-8.179 1.233-12.283-.288-3.512-1.304-6.779-2.979-10.454-3.658 1.067 3.663 1.4 7.492.479 11.229-1.721 7-7.404 12.088-13.537 15.375-6.121 3.284-13.067 5.05-20 5.638 2.52 2.812 2.437 7.221 1.745 10.962-.733 4.004-2.112 7.8-3.483 11.613 1.479-.9 3.125-1.475 4.946-1.409 5.225.205 8.892 5.117 9.842 9.884.437 2.225.312 4.387-.205 6.433 1.65.804 3.292 2.15 4.921 4.158 2.346 2.892 3.5 2.759 5.513-.479.325-.525.587-1.108.991-1.562 4.375-4.892 6.996-10.2 3.55-16.675-.554-1.029-1.95-1.963-3.133-2.254-5.296-1.3-10.696-2.196-15.958-3.613-1.321-.354-2.271-2.083-4.084-3.862 1.559 0 1.696-.03 1.809.004 9.087 2.458 18.021 5.787 27.637 1.766 4.488-1.879 6.917-7.112 5.454-11.537-1.016-3.063-1.904-6.217-2.375-9.4-.541-3.663.809-4.754 4.296-3.579 3.263 1.1 6.513 2.371 9.538 3.991 5.104 2.742 10.433 2.6 15.633 1.134 2.204-.621 4.304-2.667 5.788-4.571 4.345-5.592 3.479-12.3 3.262-18.758-.221-6.655-3.033-13.042-1.971-19.905" fill="#705d53"/><path d="m296.311 96.184c2.733-5.588 2.866-10.617-1.154-15.121-1.913-2.15-4.53-3.683-6.875-5.425-1.813-1.35-3.975-2.317-1.567-5.154 1.492-1.763 2.554-3.971 3.462-6.129 1.625-3.854 3.85-7.279 1.95-12.192-2.237-5.792-5.779-9.35-10.82-10.187.945 2.104 1.487 4.37 1.141 6.708-.891 6.058-6.704 9.775-12.487 10.158-7.375.488-13.6-3.908-17.388-9.916-2.904 1.491-5.471 4.07-7.858 6.162-3.433 2.988-6.833 6.021-10.446 8.8-3.212 2.471-6.692 4.958-10.558 6.296-2.938 1.017-6.292 1.212-8.846-.838-1.067-.854-1.825-1.962-2.454-3.158.254 1.479.529 2.954.712 4.433.95 7.767 6.25 11.138 12.984 12.975 5.508 1.5 10.408-.5 14.666-3.712 4.579-3.45 8.6-7.654 13.225-11.029 3.046-2.229 7.188-3.875 10.529-1.475 2.146 1.537 3.134 4.975 4.092 7.75.333.971-.825 2.633-1.633 3.737-.434.6-1.567.696-2.384 1.017.125-.733.459-1.5.338-2.188-.367-2.179-.521-4.545-1.558-6.395-.455-.813-3.234-1.246-4.275-.655-3.817 2.175-7.346 4.855-10.984 7.334-2.45 1.675-2.508 3.541-1.025 6.058 4.025 6.808 10.584 8.171 16.863 3.292.762-.596 1.583-1.113 2.387-1.663.367.142.738.279 1.113.421-.817 1.675-1.738 3.313-2.413 5.046-.462 1.2-1.171 2.767-.758 3.758 1.95 4.763 4.362 9.334 6.383 14.071 1.521 3.55 2.809 7.213 4.009 10.883 3.12 9.525 6.125 19.096 9.208 28.634.271.841.783 1.604 1.183 2.396.913-.517 1.929-.917 2.717-1.584 2.346-1.983 2.321-3.975.792-6.791-2.938-5.409-2.563-6.688 1.52-11.046 3.171-3.379 5.246-7.213 3.359-11.767-1.334-3.221-3.35-6.237-5.492-9.012-1.367-1.763-1.758-3.234-.012-4.442 3.75-2.608 6.333-5.917 8.354-10.05" fill="#705d53"/><path d="m135.909 162.473c.579-.217.863-.242 1.021-.4 1.783-1.796 3.267-4.134 5.396-5.292 2.725-1.483 5.066.858 7.416 2.129.434.234 1.084.079 1.634.1-.138-.937-.009-2.041-.467-2.783-1.287-2.063-6.979-2.917-10.271-1.717-3.575 1.304-5.154 3.884-4.729 7.963m108.221-27.688c.729 2.184 1.033 3.659 1.758 4.888.217.371 2.146.371 2.359.004 1.425-2.475 3.195-4.992 3.683-7.704.492-2.725-2.158-3.925-4.167-2.584-1.737 1.159-2.558 3.7-3.633 5.396m-3.879-33.15c-.104.05-.738.354-1.367.659.463.425.858 1.012 1.404 1.241 5.788 2.45 10.863 5.617 13.217 11.929.271.734 1.658 1.05 2.533 1.563.209-.904.888-2.058.554-2.671-1.329-2.45-2.704-4.971-4.554-7.012-2.946-3.238-6.487-5.721-11.787-5.709m-37.967 18.559c1.642-2.23 2.638-4.105 4.104-5.467 3.729-3.454 6.738-7.925 12.304-8.979.917-.167 1.63-1.388 2.434-2.125-1.113-.379-2.292-1.209-3.338-1.071-5.291.708-8.6 4.579-11.729 8.312-1.996 2.375-4.933 4.684-3.775 9.33m8.313 18.045c.175.08.341.155.516.234 0 .625-.221 1.366.038 1.858.654 1.217 1.325 2.933 2.362 3.263.825.262 2.679-.975 3.238-2.009 1.112-2.041 2.004-4.362 2.271-6.65.154-1.325-.838-3.071-1.842-4.116-.463-.467-2.821-.084-3.271.6-1.375 2.091-2.242 4.525-3.312 6.82m30.295 20.934c.184.262.363.525.546.783 1.525-.662 3.2-1.108 4.534-2.033 5.345-3.725 3.75-13.113-2.155-16.409-3.679-2.058-7.762-1.891-11.712-.679-.733.225-1.192 1.338-1.771 2.034.721.033 1.592.35 2.142.058 3.083-1.617 5.746-.292 8.437.992 5.296 2.516 6.154 8.116 1.954 12.283-.829.821-1.329 1.975-1.975 2.971m-31.808 34.783c-4.783-2.304-9.029-5.083-9.825-10.708-.508-3.604-.721-7.267-.783-10.909-.017-1.008.771-2.25 1.562-3.004 1.221-1.162 2.913-1.846 4.113-3.029.841-.829 1.187-2.15 1.754-3.25-1.175.267-2.438.346-3.513.838-4.304 1.983-8.529 4.141-12.837 6.133-1.213.567-2.596.783-3.896 1.162 1.483.538 2.954 1.109 4.45 1.605.333.108.771.05 1.125-.063 3.65-1.137 4.479.429 4.15 3.854-.525 5.525.817 10.592 4.175 15.179 2.258 3.084 5.658 4.155 9.525 2.192m-34.233-97.021c4.058 1.175 7.55 1.813 10.721 3.184 6.908 2.995 13.566 2.754 19.979-1.005 1.733-1.016 3.496-2.733 4.233-4.545 1.433-3.505 2.142-7.309 3.154-10.984.196-.696.417-1.379.621-2.071.788.305 1.738.417 2.321.938 5.954 5.358 13.033 5.804 20.337 4.371 2.017-.396 3.684-2.354 5.646-3.334.579-.291 2.188.113 2.359.563 2.466 6.45 5.383 8.925 12.062 8.967 3.504.025 4.946 1.637 6.121 4.604 3.45 8.704 7.333 17.241 10.712 25.971 5.967 15.375 10.217 31.12 8.438 47.866-.333 3.113-1.142 6.171-1.75 9.254-.521 2.659-2.275 3.292-4.738 2.963-4.47-.592-8.966-.975-13.42-1.629-9.246-1.35-18.492-2.704-27.7-4.292-4.992-.862-9.217.204-13.105 3.433-.933.784-2.558 1.155-3.816 1.05-1.996-.162-3.413-.875-3.15 2.413.383 4.75-.104 9.558-.1 14.346 0 1.837-.663 2.375-2.5 2.908-9.621 2.796-19.059.083-28.025-2.092-6.709-1.62-12.721-6.683-18.642-10.791-3.354-2.325-5.95-5.763-8.729-8.846-.433-.479-.154-1.775.071-2.613.187-.683 1.021-1.212 1.137-1.891.163-.875-.1-1.829-.179-2.754-.758.35-1.667.533-2.258 1.075-7.579 6.866-20.079 3.362-22.509-6.438-.829-3.346-1.529-6.779-1.737-10.208-.392-6.309 3.008-10.925 7.696-14.592 3.333-2.612 9.375-1.408 12.583 2.163 4.621 5.141 6.146 5.079 9.963-.921 2.02-3.175 4.354-6.429 5.233-9.975.717-2.879-.221-6.321-.996-9.371-.662-2.608-.279-3.379 2.504-3.854 10.317-1.767 12.217-11.096 9.009-19.267-.492-1.258-.863-2.558-1.546-4.596" fill="#edab7a"/><path d="m149.742 158.912c-2.35-1.275-4.692-3.616-7.417-2.137-2.125 1.162-3.612 3.5-5.4 5.3-.154.158-.441.179-1.016.4-.421-4.079 1.154-6.659 4.729-7.963 3.287-1.2 8.983-.346 10.271 1.717.458.737.329 1.842.462 2.783-.546-.021-1.191.134-1.629-.1m36.654 37.413c-6.466-5.317-10.491-13.009-12.654-20.988-2.133-7.871-3.004-16.841.092-24.566 2.771-6.925 8.15-12.009 13.012-17.455 5.367-6.004 8.979-12.391 8.813-20.658-.021-.925.846-1.658 1.704-1.75 3.404-.367 6.812-1.008 10.183-1.787 2.725-3.117 5.771-5.971 10.242-6.567 1.05-.142 2.225.692 3.342 1.071-.6.546-1.146 1.354-1.763 1.804 1.492-.6 2.988-1.188 4.429-1.888 7.634-3.695 15.017-9.662 15.65-18.445-1.037.766-2.079 1.504-3.229 1.729-7.304 1.429-14.383.979-20.333-4.371-.584-.529-1.538-.638-2.321-.938-.208.692-.429 1.375-.621 2.071-1.017 3.675-1.725 7.475-3.158 10.984-.738 1.808-2.5 3.525-4.238 4.545-6.408 3.755-13.062 4-19.975 1.005-3.171-1.375-6.662-2.009-10.721-3.184.684 2.038 1.055 3.338 1.55 4.588 3.209 8.175 1.305 17.508-9.008 19.271-2.787.479-3.171 1.25-2.508 3.858.779 3.05 1.712 6.492 1 9.367-.884 3.55-3.213 6.804-5.234 9.979-3.816 6-5.345 6.062-9.966.921-3.204-3.571-9.25-4.775-12.579-2.171-4.696 3.671-8.088 8.287-7.705 14.596.213 3.433.913 6.866 1.738 10.208 2.433 9.804 14.933 13.308 22.512 6.433.588-.533 1.5-.716 2.259-1.066.079.92.341 1.875.183 2.754-.121.671-.954 1.204-1.137 1.891-.225.838-.509 2.134-.075 2.609 2.775 3.083 5.379 6.525 8.729 8.85 5.921 4.108 11.933 9.171 18.641 10.791 8.971 2.171 18.405 4.884 28.025 2.088.455-.129.83-.263 1.142-.413-9.125 2.021-18.575.955-26.021-5.166" fill="#df8f5b"/><path d="m217.234 206.666c0-6.55.096-13.1-.046-19.654-.058-2.75.954-2.937 3.129-2.012 1.455.616 3.017 1.029 4.567 1.366 10.329 2.305 20.646 4.7 31.029 6.767 4.913.979 9.963 1.288 14.95 1.908 6.796.846 8.175 1.842 8.213 8.742.05 9-.713 18-1.054 27.004-.309 8.179-.53 16.363-.78 24.55-.379 12.459-.675 24.921-1.17 37.375-.13 3.229-.721 6.471-1.492 9.621-.129.513-2.938 1.158-3.413.675-2.925-3.017-6.925-1.579-10.262-2.8-2.421-.887-5.254-.575-7.779-1.267-5.654-1.541-11.246-3.312-16.829-5.1-4.246-1.358-8.388-3.045-12.663-4.262-3.229-.921-2.675-3.4-2.425-5.45.108-.883 1.775-1.829 2.917-2.288 3.446-1.391 7.125-2.25 10.433-3.875 4.038-1.987 5.783-5.833 6.721-10.104.437-2.021.742-4.308 1.908-5.866 1.825-2.434 1.404-4.484.488-6.971-.417-1.146-.442-3.021.233-3.875 2.267-2.879 1.767-5.488.017-8.229-.588-.917-1.513-1.742-1.746-2.734-2.421-10.25-4.833-11.675-14.613-9.487-2.729.608-5.812.004-8.641-.542-.679-.133-1.359-2.25-1.384-3.467-.133-6.675-.062-13.35-.062-20.025z" fill="#0783c7"/><path d="m311.953 196.854c0 6.4-.033 12.417.008 18.429.1 14.863.429 29.725.284 44.579-.113 11.425-.442 22.875-1.446 34.242-.342 3.862-3.204 7.862-7.346 8.917-6.233 1.575-12.688 2.445-19.104 3.12-3.725.392-5.425-2.083-5.246-5.841.583-12.071 1.212-24.142 1.521-36.221.479-18.888.754-37.783.979-56.671.033-2.575.408-3.637 3.312-3.054 7.805 1.567 14.642-1.317 21.292-4.992 1.808-1 3.808-1.671 5.746-2.508" fill="#ed1c24"/><path d="m214.043 211.299c0 1.383.221 2.82-.083 4.137-.192.854-1.017 1.996-1.796 2.225-11.779 3.542-15.621 8.317-16.775 21.138-.034.375-.063.75-.084 1.129-.179 3.375-.087 6.479-3.658 8.879-6.979 4.7-13.412 10.208-20.287 15.079-2.059 1.458-4.775 2.296-7.296 2.638-.975.133-2.942-1.73-3.254-2.984-1.746-6.996-3.196-14.066-4.6-21.141-1.55-7.809-2.9-15.65-4.409-23.459-.946-4.9 3.421-13.258 8.021-15.554 3.075-1.537 5.871-3.683 9.038-4.975 1.437-.587 3.575-.108 5.179.483 3.983 1.471 7.721 4.23 11.783 4.763 8.171 1.075 16.483 1.137 24.746 1.346 2.283.05 3.658.191 3.333 2.9-.133 1.116-.021 2.262-.021 3.396z" fill="#f6ef6e"/><path d="m180.865 254.129c-4.279-10.838-7.233-23.492-5.17-35.146.887-4.992 2.875-9.875 6.766-13.275.967-.846 2.021-1.529 3.117-2.113-3.967-.612-7.633-3.258-11.542-4.696-1.6-.591-3.741-1.075-5.175-.487-3.162 1.287-5.962 3.437-9.041 4.975-4.596 2.296-8.963 10.654-8.021 15.55 1.508 7.812 2.862 15.658 4.408 23.462 1.408 7.075 2.858 14.146 4.604 21.146.313 1.25 2.279 3.109 3.25 2.979 2.525-.341 5.246-1.179 7.304-2.637 3.513-2.492 6.913-5.15 10.33-7.783-.28-.659-.571-1.317-.83-1.975" fill="#d2cc60"/><path d="m174.795 277.2c2.496 3.321 5.021 6.584 7.442 9.925 2.488 3.438 8.9 5 12.929 3.763 4.796-1.471 8.821-3.65 11.621-7.95.4-.604 1.733-.675 2.658-.834.455-.079.988.375 1.455.321 5.379-.625 7.9 1.938 8.562 7.129.129.996 1.546 2.305 2.621 2.642 9.687 3.029 18.704 8.104 29.125 8.971 4.529.379 8.992 1.879 13.408 3.142 1.004.287 1.779 1.645 2.479 2.633.321.458.138 1.237.275 1.846.442 1.975 1.963 4.854 1.192 5.729-1.983 2.25-4.775 4.271-7.625 5.15-3.654 1.133-7.675 1.262-11.554 1.479-15.863.888-31.742 1.021-47.463-1.496-6.295-1.008-12.404-3.191-18.575-4.937-3.52-1-7.062-2.021-10.433-3.429-.946-.396-1.912-2.242-1.846-3.363.409-6.904 1-13.8 1.771-20.671.367-3.283 1.25-6.508 1.958-10.05" fill="#f6ef6e"/><path d="m193.693 304.906c.483-1.725 1.433-4.5 3.05-5.546 1.296-.846 3.25-.538 4.721-.771 1.812-.288 3.504-.958 5.266-1.433 1.925-.521 3.884-.913 5.85-1.205 4.363-.645 8.784-.8 13.192-.87 1.388-.021 2.792-.038 4.188-.055-2.605-1.012-5.213-1.995-7.875-2.833-1.08-.333-2.496-1.642-2.621-2.637-.663-5.192-3.184-7.759-8.567-7.13-.462.055-.996-.4-1.454-.32-.925.154-2.254.225-2.654.833-2.8 4.296-6.825 6.475-11.621 7.95-4.033 1.242-10.442-.325-12.933-3.763-2.421-3.345-4.942-6.608-7.438-9.925-.708 3.542-1.592 6.767-1.962 10.046-.767 6.875-1.359 13.771-1.771 20.675-.063 1.121.896 2.963 1.85 3.363 3.371 1.408 6.908 2.429 10.429 3.425 3.896 1.104 7.771 2.35 11.679 3.4-1.671-4.192-2.525-8.942-1.329-13.204" fill="#d2cc60"/><path d="m238.278 267.333c-.325 6.463-5.225 8.254-9.454 9.7-6.146 2.104-12.679 3.467-19.217 1.288-1.387-.463-2.475-1.775-3.812-2.484-.9-.475-2.005-.571-3.017-.837.062 1.125-.292 2.925.258 3.271 3.217 2.012 1.609 3.32-.391 4.75-2.388 1.704-4.592 3.762-7.18 5.058-3.866 1.933-9.108.204-12.054-3.979-3.679-5.234-7.037-10.692-10.404-16.134-.296-.483.163-1.937.708-2.345 3.446-2.521 7.088-4.788 10.521-7.325 2.742-2.025 5.267-4.342 7.917-6.496.537-.434 1.221-.692 1.833-1.034.175.675.646 1.438.479 2.017-1.037 3.542-2.108 7.083-3.375 10.546-1.47 4.046-3.204 7.996-4.695 12.042-.18.479.433 1.245.675 1.887.458-.321 1.125-.537 1.329-.975 2.633-5.696 5.333-11.367 7.691-17.175.767-1.883.546-4.162.85-6.242 1.163-7.883 1.863-15.879 3.692-23.604 1.304-5.504 6.4-7.908 11.546-9.429.471-.142 1.9.992 1.887 1.508-.066 2.692-.62 5.375-.641 8.067-.004 1.067.796 2.963 1.471 3.079 5.612.971 11.058 4.363 17.045 1.113 2.746-1.492 4.825.121 6.03 2.646 1.17 2.466.395 4.508-2.142 5.512-1.917.758-3.971 1.388-6.017 1.583-3.5.338-7.041.196-10.55.484-.691.058-1.296 1.146-1.946 1.754.663.571 1.342 1.65 1.984 1.633 5.771-.171 11.529-.512 17.291-.875.575-.037 1.142-.483 1.68-.8.979-.575 1.925-1.196 2.891-1.796.384 1.017 1.225 2.13 1.05 3.034-.254 1.3-.95 2.929-1.987 3.579-4.763 2.979-10.046 4.471-15.709 4.467-.754 0-1.612-.15-2.233.154-.679.337-1.133 1.116-1.687 1.704.55.408 1.15 1.221 1.637 1.158 4.833-.616 9.654-1.354 14.463-2.133 1.533-.246 3.029-.733 4.545-1.104-.212 2.291.342 5.154-.829 6.737-1.383 1.863-4.129 3.05-6.516 3.759-3.313.97-6.842 1.2-10.259 1.825-.629.12-1.179.641-1.766.979.679.408 1.375 1.2 2.029 1.162 3.508-.208 7.008-.596 10.5-.983 1.221-.133 2.421-.458 3.879-.746" fill="#edab7a"/><path d="m333.577 154.11c0 4.125.058 8.254-.009 12.379-.187 11.58-.408 23.155-.666 34.738-.088 3.942-.317 7.883-.58 11.817-.041.629-.5 1.32-.95 1.812-2.429 2.638-2.783 7.058-.937 10.017.467.741.454 1.891.387 2.833-.154 2.233-.387 4.475-.745 6.688-.3 1.908-.434 3.983-1.313 5.625-2.054 3.85-1.446 6.266 2.746 7.133 3.404.7 1.987 2.133.904 3.542-2.925 3.787-5.204 7.804-7.033 12.308-2.371 5.837-5.959 11.183-9.946 16.596v-9.979c.017-22.917.054-45.83.033-68.746-.004-2.763-.2-5.538-.541-8.279-.121-.938-.738-2.096-1.496-2.625-3.025-2.113-1.875-4.063-.288-6.434 3.338-4.975 6.417-10.116 9.617-15.183 3.121-4.946 6.267-9.879 9.4-14.817.471.192.946.388 1.417.575" fill="#0783c7"/><path d="m322.237 152.395c5.667.117 5.988.454 3.721 4.279-4.121 6.946-8.492 13.738-12.758 20.592-2.18 3.496-4.455 6.933-6.434 10.533-.25.45.825 2.1 1.642 2.584 2.267 1.329 2.104 2.516.2 3.9-1.183.854-2.375 1.708-3.638 2.441-4.866 2.834-7.616 1.034-8.975-5.22-1.933-8.896 2.03-15.855 7.371-22.025 4.742-5.488 10.288-10.28 15.6-15.25 1.146-1.071 2.817-1.588 3.271-1.834" fill="#fff"/><path d="m288.751 201.313c-1.067-.05-2.45-.129-3.829-.179-2.342-.088-3.767-1.046-3.625-3.638.187-3.458-1.892-4.42-4.938-4.787-7.412-.888-14.821-1.879-22.192-3.067-6.379-1.033-12.708-2.341-19.041-3.621-3.504-.704-6.988-1.545-10.429-2.512-.317-.092-.484-2.217-.33-2.267 1.613-.562 3.363-1.391 4.955-1.196 4.033.488 7.966 1.746 12 2.184 6.616.721 13.279 1.471 19.92 1.421 9.659-.071 17.734 3.916 25.642 8.662 2.204 1.317 4.35 2.758 6.333 4.388.963.787 1.475 2.129 2.192 3.216-1.108.392-2.192.896-3.329 1.154-.971.221-2.008.159-3.329.242" fill="#fff"/><path d="m347.221 209.595c.216 5.109-4.175 8.642-7.225 8.121-4.092-.704-6.45-4.908-4.713-8.617 1.179-2.52 2.713-5.216-.212-7.783-.354-.312-.338-1.587.008-2.029.367-.463 1.375-.733 2.025-.625 3.442.608 10.571 6 10.117 10.933" fill="#edab7a"/><path d="m344.854 230.768c-.313 7.562-4.921 13.421-10.159 13.558-1.42.033-2.87-1.017-4.308-1.567 1.317-1.983 2.358-5.354 4.013-5.683 4.075-.812 7.791-1.517 10.454-6.308" fill="#edab7a"/><path d="m337.635 226.884c.25 0 .5-.008.745 0 1.671.067 3.338.138 5.005.205-1.563 2.037-3.071 4.129-4.73 6.079-.52.608-1.5.796-2.2 1.275-1.979 1.354-3.033.291-3.6-1.475-1.17-3.621.875-6.163 4.78-6.084" fill="#edab7a"/><path d="m332.85 216.141c2.504 3.4 5.808 3.937 9.379 3.85.65-.017 1.308.295 1.967.454-.396.7-.634 1.621-1.229 2.041-1.155.834-2.442 1.717-3.796 1.992-5.338 1.079-8.825-2.429-6.321-8.337" fill="#edab7a"/><path d="m209.084 193.958c-3.871 1.958-7.267.891-9.525-2.192-3.362-4.587-4.7-9.658-4.171-15.183.329-3.421-.504-4.988-4.158-3.85-.35.108-.788.171-1.121.058-1.496-.492-2.971-1.062-4.454-1.6 1.308-.379 2.683-.596 3.904-1.162 4.3-1.992 8.529-4.15 12.838-6.134 1.07-.491 2.333-.571 3.512-.837-.571 1.1-.921 2.416-1.758 3.25-1.2 1.183-2.892 1.862-4.117 3.025-.787.754-1.579 1.996-1.562 3.008.066 3.638.275 7.304.787 10.908.796 5.621 5.038 8.405 9.825 10.709" fill="#231f20"/><path d="m240.892 159.175c.65-1.004 1.146-2.154 1.971-2.975 4.2-4.166 3.35-9.762-1.95-12.283-2.692-1.279-5.354-2.608-8.433-.992-.555.292-1.421-.021-2.146-.054.579-.704 1.041-1.812 1.766-2.033 3.959-1.213 8.042-1.384 11.717.675 5.904 3.3 7.5 12.687 2.158 16.404-1.337.933-3.016 1.375-4.537 2.037-.179-.262-.367-.52-.546-.779" fill="#231f20"/><path d="m210.599 138.238c1.066-2.296 1.933-4.725 3.312-6.821.45-.679 2.809-1.067 3.267-.596 1.008 1.042 1.996 2.792 1.842 4.113-.263 2.287-1.159 4.612-2.267 6.654-.558 1.029-2.417 2.271-3.242 2.008-1.033-.329-1.708-2.05-2.358-3.267-.258-.487-.042-1.233-.042-1.858-.171-.079-.341-.154-.512-.233" fill="#231f20"/><path d="m202.284 120.192c-1.162-4.646 1.779-6.954 3.775-9.329 3.129-3.729 6.433-7.604 11.729-8.312 1.046-.138 2.221.691 3.342 1.075-.808.733-1.525 1.954-2.438 2.12-5.566 1.055-8.575 5.53-12.304 8.984-1.466 1.358-2.462 3.237-4.104 5.462" fill="#231f20"/><path d="m240.252 101.636c5.3-.013 8.838 2.475 11.783 5.704 1.855 2.041 3.23 4.566 4.559 7.012.333.613-.346 1.767-.559 2.675-.87-.508-2.258-.829-2.533-1.562-2.354-6.317-7.429-9.475-13.212-11.929-.546-.234-.942-.821-1.405-1.242.634-.304 1.263-.608 1.367-.658" fill="#231f20"/><path d="m244.127 134.786c1.08-1.696 1.9-4.238 3.638-5.396 2.012-1.342 4.662-.142 4.162 2.587-.487 2.709-2.254 5.221-3.683 7.696-.208.371-2.142.371-2.358-.004-.725-1.225-1.025-2.7-1.759-4.883" fill="#231f20"/><path d="m135.909 162.473c-.425-4.079 1.154-6.659 4.729-7.963 3.292-1.2 8.984-.346 10.271 1.717.458.742.329 1.846.467 2.783-.55-.021-1.2.134-1.634-.1-2.35-1.271-4.691-3.612-7.416-2.129-2.129 1.158-3.613 3.496-5.396 5.292-.158.158-.442.183-1.021.4" fill="#231f20"/><path d="m308.471 278.055c-4.004-14.117-5.896-28.679-8.759-43.042-1.091-5.483-7.695-24.075 1.063-28.017 5.662-2.545 5.971 23.013 6.383 27.934 1.096 12.983-2.166 30.866 1.313 43.125" fill="#fff"/><path d="m228.391 342.127-1.612.075c0-.029-.004-.063-.004-.092.533 0 1.066 0 1.604.004z" fill="#fff"/></g></svg>