<?xml version="1.0" encoding="UTF-8" standalone="no"?>
<!DOCTYPE svg PUBLIC "-//W3C//DTD SVG 1.1//EN" "http://www.w3.org/Graphics/SVG/1.1/DTD/svg11.dtd">
<svg width="100%" height="100%" viewBox="0 0 30 30" version="1.1" xmlns="http://www.w3.org/2000/svg" xmlns:xlink="http://www.w3.org/1999/xlink" xml:space="preserve" xmlns:serif="http://www.serif.com/" style="fill-rule:evenodd;clip-rule:evenodd;stroke-linejoin:round;stroke-miterlimit:2;">
    <g transform="matrix(0.906685,0,0,0.931306,2.03292,-0.496974)">
        <g transform="matrix(0.667694,0.667694,-0.594778,0.594778,13.7892,-0.892687)">
            <path d="M13.193,11.863C8.416,11.863 4.61,15.831 4.61,20.608C4.61,22.061 5.327,23.818 6.433,25.517C8.66,28.942 12.368,32.263 12.368,32.263C12.851,32.694 13.535,32.694 14.017,32.263C14.017,32.263 17.725,28.942 19.953,25.517C21.058,23.818 21.775,22.061 21.775,20.608C21.775,15.831 17.969,11.863 13.193,11.863ZM13.193,29.163C14.1,28.285 15.6,26.754 16.892,25.064C17.648,24.075 18.336,23.034 18.76,22.042C18.977,21.535 19.128,21.053 19.128,20.608C19.128,17.372 16.429,14.835 13.193,14.835C9.956,14.835 7.258,17.372 7.258,20.608C7.258,21.053 7.409,21.535 7.626,22.042C8.049,23.034 8.737,24.075 9.493,25.064C10.786,26.754 12.286,28.285 13.193,29.163Z" style="fill:white;"/>
        </g>
        <g transform="matrix(0.849713,0.849713,-0.849713,0.849713,16.2618,-11.2393)">
            <path d="M10.176,15.622C10.287,15.943 10.548,16.189 10.874,16.282C11.201,16.375 11.552,16.303 11.815,16.09C12.655,15.407 13.775,14.997 15,14.997C16.225,14.997 17.345,15.407 18.185,16.09C18.448,16.303 18.799,16.375 19.126,16.282C19.452,16.189 19.713,15.943 19.824,15.622C19.931,15.314 19.989,14.982 19.989,14.637C19.989,14.637 19.989,6.863 19.989,6.863C19.989,5.199 18.638,3.849 16.974,3.849L13.026,3.849C11.362,3.849 10.011,5.199 10.011,6.863C10.011,6.863 10.011,14.637 10.011,14.637C10.011,14.982 10.069,15.314 10.176,15.622ZM17.908,13.514L17.908,6.863C17.908,6.348 17.49,5.929 16.974,5.929C16.974,5.929 13.026,5.929 13.026,5.929C12.51,5.929 12.092,6.348 12.092,6.863L12.092,13.514C12.971,13.131 13.957,12.916 15,12.916C16.043,12.916 17.029,13.131 17.908,13.514Z" style="fill:white;"/>
        </g>
    </g>
</svg>
