<?xml version="1.0" encoding="UTF-8" standalone="no"?>
<!DOCTYPE svg PUBLIC "-//W3C//DTD SVG 1.1//EN" "http://www.w3.org/Graphics/SVG/1.1/DTD/svg11.dtd">
<svg width="100%" height="100%" viewBox="0 0 174 180" version="1.1" xmlns="http://www.w3.org/2000/svg" xmlns:xlink="http://www.w3.org/1999/xlink" xml:space="preserve" xmlns:serif="http://www.serif.com/" style="fill-rule:evenodd;clip-rule:evenodd;stroke-linejoin:round;stroke-miterlimit:2;">
    <g transform="matrix(1,0,0,1,-8788.83,-12357.7)">
        <g transform="matrix(5.55556,0,0,5.55556,7263.77,9566.93)">
            <g transform="matrix(1,0,0,1,283.282,503.906)">
                <path d="M0,29.211C-0.348,29.316 -0.525,29.395 -0.709,29.421C-1.251,29.499 -1.796,29.55 -2.338,29.623C-2.611,29.66 -3.016,29.628 -2.956,30.035C-2.906,30.364 -2.553,30.269 -2.298,30.233C-0.868,30.034 0.569,29.946 2.013,29.981C2.329,29.988 2.655,29.992 2.96,29.924C5.562,29.34 8.213,29.248 10.859,29.089C13.275,28.943 15.688,28.761 18.101,28.574C18.741,28.524 19.206,28.272 19.414,27.547C19.592,26.924 19.99,26.362 20.292,25.775C20.363,25.639 20.441,25.506 20.563,25.288C20.32,25.288 20.18,25.277 20.042,25.289C18.464,25.427 16.886,25.569 15.309,25.708C14.792,25.754 14.269,25.76 13.758,25.845C11.26,26.26 8.76,26.67 6.27,27.131C3.772,27.594 1.259,27.88 -1.279,27.951C-1.508,27.958 -1.741,27.982 -1.964,28.03C-2.304,28.104 -2.473,28.327 -2.527,28.72C-2.03,28.633 -1.608,28.553 -1.184,28.486C-0.729,28.416 -0.271,28.36 0.185,28.296C0.714,28.221 0.845,28.232 1.563,28.462C0.708,28.578 0.029,28.654 -0.643,28.767C-1.315,28.879 -2.012,28.904 -2.641,29.217C-1.816,29.281 -1.01,28.93 0,29.211M-3.68,30.183C-3.579,30 -3.539,29.954 -3.526,29.901C-3.311,29.035 -3.141,28.154 -2.42,27.516C-2.317,27.424 -2.278,27.192 -2.301,27.039C-2.419,26.244 -2.54,25.448 -2.711,24.663C-3.012,23.287 -3.393,21.928 -3.663,20.546C-4.153,18.033 -4.597,15.513 -5.042,12.991C-5.411,10.895 -5.795,8.799 -5.745,6.652C-5.733,6.168 -5.846,5.682 -5.884,5.195C-5.959,4.251 -6.027,3.305 -6.088,2.359C-6.103,2.13 -6.073,1.898 -6.081,1.668C-6.094,1.24 -6.28,1.096 -6.684,1.239C-7.233,1.436 -7.539,1.853 -7.762,2.394C-8.411,3.966 -8.227,5.623 -8.171,7.229C-8.109,9.031 -7.746,10.823 -7.498,12.618C-7.213,14.669 -6.958,16.725 -6.603,18.763C-6.278,20.631 -5.881,22.489 -5.435,24.332C-5.009,26.09 -4.481,27.823 -3.988,29.565C-3.937,29.747 -3.819,29.909 -3.68,30.183M-5.589,2.597L-5.642,2.603C-5.573,3.232 -5.505,3.859 -5.436,4.488C-5.352,5.261 -5.25,6.032 -5.185,6.806C-5.094,7.867 -5.085,8.939 -4.942,9.992C-4.74,11.475 -4.464,12.948 -4.191,14.421C-3.682,17.166 -3.167,19.911 -2.624,22.65C-2.411,23.722 -2.101,24.774 -1.861,25.84C-1.773,26.232 -1.767,26.641 -1.712,27.041C-1.671,27.342 -1.491,27.5 -1.183,27.494C-1.039,27.492 -0.895,27.482 -0.752,27.468C1.313,27.274 3.376,27.085 5.417,26.687C7.648,26.251 9.894,25.886 12.131,25.475C13.492,25.224 14.851,25.001 16.239,24.94C17.504,24.884 18.766,24.725 20.025,24.587C20.51,24.534 20.989,24.417 21.468,24.32C21.708,24.273 21.793,24.116 21.746,23.874C21.5,22.604 21.294,21.323 21.006,20.063C20.679,18.632 20.187,17.234 19.93,15.794C19.365,12.621 18.903,9.43 18.398,6.247C18.2,4.996 18.026,3.739 17.788,2.496C17.593,1.479 17.326,0.476 17.074,-0.53C16.98,-0.906 16.753,-1.1 16.318,-1.06C15.228,-0.958 14.133,-0.897 13.04,-0.813C11.086,-0.664 9.133,-0.5 7.178,-0.361C5.855,-0.267 4.529,-0.216 3.206,-0.127C2.689,-0.093 2.173,-0.018 1.66,0.056C-0.279,0.335 -2.217,0.62 -4.153,0.91C-4.605,0.978 -5.052,1.074 -5.5,1.157C-5.53,1.608 -5.56,2.06 -5.589,2.51C-5.591,2.539 -5.589,2.568 -5.589,2.597M-8.773,5.575C-8.723,4.405 -8.583,3.272 -8.173,2.172C-7.835,1.265 -7.194,0.781 -6.243,0.698C-5.068,0.595 -3.894,0.474 -2.726,0.309C-0.816,0.038 1.084,-0.306 2.997,-0.559C4.138,-0.709 5.294,-0.75 6.444,-0.834C8.714,-1.001 10.984,-1.164 13.254,-1.327C14.29,-1.401 15.327,-1.455 16.36,-1.552C16.913,-1.603 17.263,-1.38 17.411,-0.877C17.728,0.199 18.089,1.27 18.296,2.368C18.647,4.234 18.881,6.121 19.187,7.996C19.33,8.877 19.538,9.746 19.691,10.625C20.043,12.639 20.329,14.664 20.739,16.665C21.022,18.044 21.51,19.38 21.828,20.754C22.093,21.901 22.256,23.073 22.441,24.238C22.514,24.7 22.427,24.759 21.935,24.963C21.706,25.058 21.479,25.203 21.306,25.381C20.588,26.116 20.077,26.988 19.819,27.981C19.674,28.536 19.339,28.805 18.824,28.922C18.571,28.979 18.318,29.051 18.062,29.068C14.697,29.295 11.329,29.48 7.968,29.747C6.334,29.878 4.712,30.159 3.086,30.373C2.858,30.403 2.632,30.46 2.403,30.471C0.706,30.55 -0.993,30.621 -2.691,30.694C-2.835,30.701 -2.98,30.7 -3.123,30.717C-3.973,30.814 -4.283,30.645 -4.531,29.842C-4.871,28.742 -5.176,27.633 -5.487,26.524C-5.697,25.776 -5.921,25.031 -6.088,24.273C-6.452,22.615 -6.82,20.956 -7.118,19.286C-7.426,17.559 -7.684,15.82 -7.907,14.079C-8.144,12.223 -8.319,10.358 -8.511,8.497C-8.611,7.524 -8.686,6.549 -8.773,5.575" style="fill:rgb(35,31,32);fill-rule:nonzero;"/>
            </g>
        </g>
        <g transform="matrix(5.55556,0,0,5.55556,7263.77,9566.93)">
            <g transform="matrix(1,0,0,1,277.693,527.71)">
                <path d="M0,-21.207C0,-21.235 -0.001,-21.265 0,-21.294C0.029,-21.744 0.059,-22.195 0.089,-22.646C0.538,-22.729 0.984,-22.826 1.436,-22.894C3.373,-23.184 5.311,-23.469 7.249,-23.748C7.763,-23.822 8.278,-23.896 8.795,-23.931C10.119,-24.02 11.444,-24.07 12.768,-24.165C14.722,-24.304 16.675,-24.468 18.629,-24.617C19.722,-24.701 20.817,-24.762 21.908,-24.863C22.342,-24.903 22.57,-24.71 22.664,-24.334C22.915,-23.328 23.182,-22.325 23.377,-21.308C23.616,-20.064 23.789,-18.808 23.988,-17.557C24.493,-14.374 24.955,-11.183 25.52,-8.01C25.776,-6.569 26.268,-5.172 26.595,-3.741C26.884,-2.48 27.09,-1.2 27.335,0.07C27.382,0.313 27.298,0.469 27.058,0.517C26.578,0.613 26.1,0.73 25.615,0.783C24.355,0.921 23.094,1.08 21.829,1.136C20.44,1.197 19.081,1.42 17.72,1.671C15.483,2.082 13.238,2.447 11.006,2.883C8.965,3.281 6.902,3.471 4.837,3.664C4.694,3.678 4.55,3.689 4.407,3.69C4.099,3.696 3.918,3.538 3.877,3.237C3.823,2.837 3.816,2.428 3.728,2.036C3.488,0.97 3.178,-0.082 2.965,-1.153C2.422,-3.893 1.907,-6.638 1.398,-9.383C1.125,-10.855 0.849,-12.329 0.647,-13.811C0.504,-14.865 0.495,-15.936 0.405,-16.998C0.339,-17.771 0.238,-18.543 0.153,-19.315C0.084,-19.944 0.016,-20.572 -0.053,-21.201L0,-21.207Z" style="fill:rgb(248,237,47);fill-rule:nonzero;"/>
            </g>
        </g>
        <g transform="matrix(5.55556,0,0,5.55556,7263.77,9566.93)">
            <g transform="matrix(1,0,0,1,279.602,505.002)">
                <path d="M0,29.087C-0.139,28.814 -0.256,28.651 -0.308,28.469C-0.801,26.728 -1.329,24.994 -1.755,23.236C-2.201,21.394 -2.598,19.535 -2.923,17.667C-3.277,15.629 -3.533,13.573 -3.817,11.523C-4.066,9.728 -4.429,7.936 -4.491,6.133C-4.546,4.527 -4.731,2.87 -4.082,1.298C-3.859,0.757 -3.553,0.34 -3.003,0.144C-2.6,0 -2.414,0.145 -2.4,0.572C-2.393,0.802 -2.423,1.034 -2.408,1.264C-2.347,2.209 -2.279,3.155 -2.204,4.1C-2.166,4.586 -2.053,5.072 -2.064,5.557C-2.115,7.703 -1.731,9.799 -1.361,11.896C-0.917,14.417 -0.473,16.938 0.018,19.45C0.288,20.832 0.668,22.191 0.969,23.567C1.14,24.353 1.261,25.149 1.379,25.943C1.402,26.097 1.363,26.328 1.26,26.42C0.54,27.059 0.369,27.94 0.154,28.806C0.142,28.858 0.102,28.904 0,29.087" style="fill:rgb(237,28,36);fill-rule:nonzero;"/>
            </g>
        </g>
        <g transform="matrix(5.55556,0,0,5.55556,7263.77,9566.93)">
            <g transform="matrix(1,0,0,1,283.282,530.336)">
                <path d="M0,2.781C-1.01,2.5 -1.816,2.851 -2.641,2.787C-2.012,2.474 -1.315,2.449 -0.643,2.337C0.029,2.224 0.708,2.148 1.563,2.032C0.845,1.802 0.714,1.791 0.185,1.866C-0.271,1.93 -0.729,1.986 -1.184,2.056C-1.608,2.123 -2.03,2.203 -2.527,2.29C-2.473,1.897 -2.304,1.674 -1.964,1.6C-1.741,1.552 -1.508,1.528 -1.279,1.521C1.259,1.45 3.772,1.164 6.27,0.701C8.76,0.24 11.26,-0.17 13.758,-0.585C14.269,-0.67 14.792,-0.676 15.309,-0.722C16.886,-0.861 18.464,-1.003 20.042,-1.141C20.18,-1.153 20.32,-1.142 20.563,-1.142C20.441,-0.924 20.363,-0.791 20.292,-0.655C19.99,-0.068 19.592,0.494 19.414,1.117C19.206,1.842 18.741,2.094 18.101,2.144C15.688,2.331 13.275,2.513 10.859,2.659C8.213,2.818 5.562,2.91 2.96,3.494C2.655,3.562 2.329,3.558 2.013,3.551C0.569,3.516 -0.868,3.604 -2.298,3.803C-2.553,3.839 -2.906,3.934 -2.956,3.605C-3.016,3.198 -2.611,3.23 -2.338,3.193C-1.796,3.12 -1.251,3.069 -0.709,2.991C-0.525,2.965 -0.348,2.886 0,2.781" style="fill:rgb(255,252,217);fill-rule:nonzero;"/>
            </g>
        </g>
        <g transform="matrix(5.55556,0,0,5.55556,7263.77,9566.93)">
            <g opacity="0.2">
                <g transform="matrix(1,0,0,1,299.843,534.142)">
                    <path d="M0,-31.577C-3.595,-30.568 -7.189,-29.558 -10.784,-28.549C-12.039,-28.197 -13.329,-27.827 -14.358,-27.028C-15.297,-26.3 -15.949,-25.266 -16.516,-24.223C-19.084,-19.501 -20.324,-14.065 -20.058,-8.696C-19.962,-6.765 -19.495,-4.566 -17.799,-3.638C-16.685,-3.027 -15.29,-3.131 -14.164,-2.54C-15.122,-2.346 -16.08,-2.15 -17.038,-1.956C-17.267,-1.909 -17.506,-1.857 -17.685,-1.706C-17.857,-1.559 -17.947,-1.341 -18.066,-1.147C-18.566,-0.339 -19.705,0 -20.565,-0.404C-22.125,-6.279 -23.342,-12.027 -24.353,-18.021C-24.76,-20.44 -25.169,-22.88 -25.079,-25.332C-25.044,-26.272 -24.927,-27.239 -24.466,-28.06C-24.006,-28.881 -23.125,-29.342 -22.195,-29.482C-13.564,-30.794 -7.351,-31.014 0,-31.577" style="fill:rgb(59,35,20);fill-rule:nonzero;"/>
                </g>
            </g>
        </g>
        <g transform="matrix(5.55556,0,0,5.55556,7263.77,9566.93)">
            <g transform="matrix(0.993319,-0.115397,-0.054323,1.01304,0,0)">
                <g transform="matrix(1.13742,0,0.0854307,1,-90.0168,0)">
                    <text x="314.709px" y="547.46px" style="font-family:'ITCAvantGardeStd-Bold', 'ITC Avant Garde Gothic Std', sans-serif;font-weight:700;font-size:10.102px;fill:rgb(0,174,239);">A</text>
                </g>
                <g transform="matrix(1.13742,0,0.0854307,1,-92.7807,0)">
                    <text x="328.919px" y="556.956px" style="font-family:'ITCAvantGardeStd-Bold', 'ITC Avant Garde Gothic Std', sans-serif;font-weight:700;font-size:10.102px;fill:rgb(0,174,239);">Z</text>
                </g>
            </g>
        </g>
        <g transform="matrix(5.55556,0,0,5.55556,7263.77,9566.93)">
            <g transform="matrix(1.12358,-0.147951,0.130547,0.991442,-27.8741,3.67041)">
                <text x="210.93px" y="541.883px" style="font-family:'ITCAvantGardeStd-Bold', 'ITC Avant Garde Gothic Std', sans-serif;font-weight:700;font-size:4.964px;fill:rgb(42,56,144);">De la</text>
            </g>
        </g>
        <g transform="matrix(5.55556,0,0,5.55556,7263.77,9566.93)">
            <g transform="matrix(1.12358,-0.147951,0.130547,0.991442,-28.2451,3.71926)">
                <text x="213.737px" y="555.098px" style="font-family:'ITCAvantGardeStd-Bold', 'ITC Avant Garde Gothic Std', sans-serif;font-weight:700;font-size:4.964px;fill:rgb(42,56,144);">a la</text>
            </g>
        </g>
    </g>
</svg>
