<?xml version="1.0" encoding="UTF-8" standalone="no"?>
<!DOCTYPE svg PUBLIC "-//W3C//DTD SVG 1.1//EN" "http://www.w3.org/Graphics/SVG/1.1/DTD/svg11.dtd">
<svg width="100%" height="100%" viewBox="0 0 70 177" version="1.1" xmlns="http://www.w3.org/2000/svg" xmlns:xlink="http://www.w3.org/1999/xlink" xml:space="preserve" xmlns:serif="http://www.serif.com/" style="fill-rule:evenodd;clip-rule:evenodd;stroke-linejoin:round;stroke-miterlimit:2;">
    <g transform="matrix(1,0,0,1,-7997.64,-11635.2)">
        <g transform="matrix(5.55556,0,0,5.55556,7263.77,9566.93)">
            <g transform="matrix(1,0,0,1,142.999,373.155)">
                <path d="M0,29.932C0.107,29.371 0.215,28.917 0.276,28.457C0.326,28.083 0.094,27.959 -0.239,28.03C-0.43,28.071 -0.618,28.145 -0.792,28.234C-1.496,28.598 -1.511,28.775 -0.872,29.306C-0.633,29.504 -0.368,29.67 0,29.932M-4.211,26.591C-3.629,27.118 -3.14,27.568 -2.642,28.009C-2.329,28.287 -2.06,28.24 -1.692,28.005C-1.168,27.669 -0.57,27.438 0.016,27.212C0.672,26.958 0.857,26.668 0.718,25.939C0.588,25.261 0.378,25.08 -0.366,25.172C-1.675,25.332 -2.944,25.634 -4.211,26.591M0.239,24.366C-0.139,22.314 -0.436,20.347 -0.874,18.411C-1.392,16.121 -2.163,13.882 -2.589,11.578C-3.25,8.009 -4.25,4.528 -5.079,1.004C-5.319,-0.015 -5.743,-0.312 -6.711,0.07C-7.63,0.432 -8.497,0.94 -9.356,1.438C-9.964,1.791 -10.205,2.373 -10.072,3.079C-9.865,4.174 -9.69,5.276 -9.429,6.358C-9.066,7.869 -8.645,9.365 -8.233,10.863C-7.009,15.318 -5.778,19.771 -4.547,24.224C-4.473,24.493 -4.373,24.755 -4.303,25.024C-4.191,25.454 -3.919,25.507 -3.581,25.319C-2.438,24.683 -1.164,24.56 0.239,24.366M1.585,26.646C1.244,27.9 0.93,29.163 0.548,30.406C0.386,30.932 0.167,31.006 -0.221,30.711C-1.484,29.748 -2.738,28.772 -3.949,27.745C-4.259,27.483 -4.487,27.041 -4.597,26.64C-5.489,23.373 -6.343,20.097 -7.209,16.823C-7.26,16.631 -7.319,16.44 -7.374,16.248C-8.267,13.148 -9.188,10.056 -10.038,6.944C-10.394,5.641 -10.608,4.299 -10.869,2.971C-10.984,2.385 -10.818,1.834 -10.396,1.432C-9.938,0.995 -9.442,0.574 -8.896,0.264C-8.206,-0.128 -7.458,-0.429 -6.716,-0.717C-5.799,-1.074 -5.072,-0.788 -4.641,0.11C-4.437,0.536 -4.329,1.011 -4.208,1.472C-3.713,3.36 -3.093,5.227 -2.772,7.145C-2.082,11.283 -0.729,15.255 0.114,19.351C0.547,21.455 0.988,23.558 1.412,25.664C1.475,25.973 1.467,26.297 1.492,26.614C1.523,26.624 1.554,26.635 1.585,26.646" style="fill:rgb(35,31,32);fill-rule:nonzero;"/>
            </g>
        </g>
        <g transform="matrix(5.55556,0,0,5.55556,7263.77,9566.93)">
            <g transform="matrix(1,0,0,1,143.238,373.984)">
                <path d="M0,23.537C-1.403,23.731 -2.677,23.854 -3.819,24.49C-4.158,24.678 -4.43,24.625 -4.542,24.195C-4.612,23.926 -4.712,23.664 -4.786,23.395C-6.017,18.942 -7.248,14.489 -8.472,10.034C-8.884,8.536 -9.305,7.039 -9.668,5.529C-9.929,4.447 -10.104,3.345 -10.311,2.25C-10.444,1.544 -10.203,0.962 -9.595,0.609C-8.736,0.111 -7.869,-0.397 -6.95,-0.759C-5.982,-1.141 -5.558,-0.844 -5.318,0.175C-4.488,3.699 -3.489,7.18 -2.828,10.748C-2.401,13.053 -1.631,15.292 -1.112,17.582C-0.674,19.517 -0.377,21.485 0,23.537" style="fill:rgb(0,165,225);fill-rule:nonzero;"/>
            </g>
        </g>
        <g transform="matrix(5.55556,0,0,5.55556,7263.77,9566.93)">
            <g transform="matrix(1,0,0,1,138.788,399.931)">
                <path d="M0,-0.185C1.267,-1.143 2.536,-1.444 3.845,-1.604C4.589,-1.696 4.799,-1.516 4.929,-0.837C5.068,-0.108 4.883,0.182 4.227,0.436C3.641,0.662 3.043,0.893 2.519,1.229C2.151,1.463 1.882,1.511 1.569,1.233C1.071,0.792 0.582,0.342 0,-0.185" style="fill:rgb(255,229,166);fill-rule:nonzero;"/>
            </g>
        </g>
        <g transform="matrix(5.55556,0,0,5.55556,7263.77,9566.93)">
            <g transform="matrix(1,0,0,1,142.999,401.114)">
                <path d="M0,1.973C-0.368,1.711 -0.633,1.545 -0.872,1.347C-1.511,0.816 -1.496,0.639 -0.792,0.275C-0.618,0.186 -0.43,0.112 -0.239,0.071C0.094,0 0.326,0.124 0.276,0.498C0.215,0.958 0.107,1.412 0,1.973" style="fill:rgb(0,165,225);fill-rule:nonzero;"/>
            </g>
        </g>
        <g transform="matrix(5.55556,0,0,5.55556,7263.77,9566.93)">
            <g transform="matrix(1,0,0,1,137.478,383.441)">
                <path d="M0,-9.713C0.684,-6.518 1.008,-3.246 0.964,0.022C1.003,-0.422 0.823,-0.853 0.647,-1.262C-0.159,-3.135 -0.942,-5.019 -1.772,-6.881C-2.056,-7.518 -2.527,-8.052 -2.156,-8.721C-2.008,-8.986 -0.005,-9.735 0,-9.713" style="fill:white;fill-rule:nonzero;"/>
            </g>
        </g>
    </g>
</svg>
