<svg clip-rule="evenodd" fill-rule="evenodd" stroke-linejoin="round" stroke-miterlimit="2" viewBox="0 0 70 177" xmlns="http://www.w3.org/2000/svg"><g fill-rule="nonzero"><path d="m0 29.932c.107-.561.215-1.015.276-1.475.05-.374-.182-.498-.515-.427-.191.041-.379.115-.553.204-.704.364-.719.541-.08 1.072.239.198.504.364.872.626m-4.211-3.341c.582.527 1.071.977 1.569 1.418.313.278.582.231.95-.004.524-.336 1.122-.567 1.708-.793.656-.254.841-.544.702-1.273-.13-.678-.34-.859-1.084-.767-1.309.16-2.578.462-3.845 1.419m4.45-2.225c-.378-2.052-.675-4.019-1.113-5.955-.518-2.29-1.289-4.529-1.715-6.833-.661-3.569-1.661-7.05-2.49-10.574-.24-1.019-.664-1.316-1.632-.934-.919.362-1.786.87-2.645 1.368-.608.353-.849.935-.716 1.641.207 1.095.382 2.197.643 3.279.363 1.511.784 3.007 1.196 4.505 1.224 4.455 2.455 8.908 3.686 13.361.074.269.174.531.244.8.112.43.384.483.722.295 1.143-.636 2.417-.759 3.82-.953m1.346 2.28c-.341 1.254-.655 2.517-1.037 3.76-.162.526-.381.6-.769.305-1.263-.963-2.517-1.939-3.728-2.966-.31-.262-.538-.704-.648-1.105-.892-3.267-1.746-6.543-2.612-9.817-.051-.192-.11-.383-.165-.575-.893-3.1-1.814-6.192-2.664-9.304-.356-1.303-.57-2.645-.831-3.973-.115-.586.051-1.137.473-1.539.458-.437.954-.858 1.5-1.168.69-.392 1.438-.693 2.18-.981.917-.357 1.644-.071 2.075.827.204.426.312.901.433 1.362.495 1.888 1.115 3.755 1.436 5.673.69 4.138 2.043 8.11 2.886 12.206.433 2.104.874 4.207 1.298 6.313.063.309.055.633.08.95.031.01.062.021.093.032" fill="#231f20" transform="matrix(5.55556 0 0 5.55556 60.56952444 4.8149918)"/><path d="m0 23.537c-1.403.194-2.677.317-3.819.953-.339.188-.611.135-.723-.295-.07-.269-.17-.531-.244-.8-1.231-4.453-2.462-8.906-3.686-13.361-.412-1.498-.833-2.995-1.196-4.505-.261-1.082-.436-2.184-.643-3.279-.133-.706.108-1.288.716-1.641.859-.498 1.726-1.006 2.645-1.368.968-.382 1.392-.085 1.632.934.83 3.524 1.829 7.005 2.49 10.573.427 2.305 1.197 4.544 1.716 6.834.438 1.935.735 3.903 1.112 5.955" fill="#00a5e1" transform="matrix(5.55556 0 0 5.55556 61.89730328 9.42055104)"/><path d="m0-.185c1.267-.958 2.536-1.259 3.845-1.419.744-.092.954.088 1.084.767.139.729-.046 1.019-.702 1.273-.586.226-1.184.457-1.708.793-.368.234-.637.282-.95.004-.498-.441-.987-.891-1.569-1.418" fill="#ffe5a6" transform="matrix(5.55556 0 0 5.55556 37.17506128 153.57066636)"/><path d="m0 1.973c-.368-.262-.633-.428-.872-.626-.639-.531-.624-.708.08-1.072.174-.089.362-.163.553-.204.333-.071.565.053.515.427-.061.46-.169.914-.276 1.475" fill="#00a5e1" transform="matrix(5.55556 0 0 5.55556 60.56952444 160.14289384)"/><path d="m0-9.713c.684 3.195 1.008 6.467.964 9.735.039-.444-.141-.875-.317-1.284-.806-1.873-1.589-3.757-2.419-5.619-.284-.637-.755-1.171-.384-1.84.148-.265 2.151-1.014 2.156-.992" fill="#fff" transform="matrix(5.55556 0 0 5.55556 29.89727768 61.95948196)"/></g></svg>