<?xml version="1.0" encoding="UTF-8" standalone="no"?>
<!DOCTYPE svg PUBLIC "-//W3C//DTD SVG 1.1//EN" "http://www.w3.org/Graphics/SVG/1.1/DTD/svg11.dtd">
<svg width="100%" height="100%" viewBox="0 0 174 180" version="1.1" xmlns="http://www.w3.org/2000/svg" xmlns:xlink="http://www.w3.org/1999/xlink" xml:space="preserve" xmlns:serif="http://www.serif.com/" style="fill-rule:evenodd;clip-rule:evenodd;stroke-linejoin:round;stroke-miterlimit:2;">
    <g transform="matrix(1,0,0,1,-8604.6,-12357.7)">
        <g transform="matrix(5.55556,0,0,5.55556,7263.77,9566.93)">
            <g transform="matrix(1,0,0,1,250.121,503.906)">
                <path d="M0,29.211C-0.348,29.316 -0.525,29.395 -0.709,29.421C-1.251,29.499 -1.796,29.55 -2.338,29.623C-2.611,29.66 -3.016,29.628 -2.956,30.035C-2.906,30.364 -2.553,30.269 -2.298,30.233C-0.868,30.034 0.569,29.946 2.013,29.981C2.329,29.988 2.655,29.992 2.96,29.924C5.562,29.34 8.213,29.248 10.859,29.089C13.275,28.943 15.688,28.761 18.101,28.574C18.741,28.524 19.206,28.272 19.414,27.547C19.592,26.924 19.99,26.362 20.292,25.775C20.363,25.639 20.441,25.506 20.563,25.288C20.32,25.288 20.18,25.277 20.042,25.289C18.464,25.427 16.886,25.569 15.309,25.708C14.792,25.754 14.269,25.76 13.758,25.845C11.26,26.26 8.76,26.67 6.27,27.131C3.772,27.594 1.259,27.88 -1.279,27.951C-1.508,27.958 -1.741,27.982 -1.964,28.03C-2.303,28.104 -2.473,28.327 -2.527,28.72C-2.03,28.633 -1.608,28.553 -1.184,28.486C-0.729,28.416 -0.271,28.36 0.185,28.296C0.714,28.221 0.845,28.232 1.563,28.462C0.708,28.578 0.029,28.654 -0.643,28.767C-1.315,28.879 -2.012,28.904 -2.641,29.217C-1.816,29.281 -1.01,28.93 0,29.211M-3.68,30.183C-3.579,30 -3.539,29.954 -3.526,29.901C-3.311,29.035 -3.141,28.154 -2.419,27.516C-2.317,27.424 -2.278,27.192 -2.301,27.039C-2.419,26.244 -2.54,25.448 -2.711,24.663C-3.012,23.287 -3.393,21.928 -3.663,20.546C-4.153,18.033 -4.597,15.513 -5.042,12.991C-5.411,10.895 -5.795,8.799 -5.745,6.652C-5.733,6.168 -5.846,5.682 -5.884,5.195C-5.959,4.251 -6.027,3.305 -6.088,2.359C-6.103,2.13 -6.073,1.898 -6.081,1.668C-6.094,1.24 -6.28,1.096 -6.684,1.239C-7.233,1.436 -7.539,1.853 -7.762,2.394C-8.411,3.966 -8.227,5.623 -8.171,7.229C-8.109,9.031 -7.746,10.823 -7.498,12.618C-7.213,14.669 -6.958,16.725 -6.603,18.763C-6.278,20.631 -5.881,22.489 -5.435,24.332C-5.009,26.09 -4.481,27.823 -3.988,29.565C-3.937,29.747 -3.819,29.909 -3.68,30.183M-5.589,2.597L-5.642,2.603C-5.573,3.232 -5.505,3.859 -5.436,4.488C-5.352,5.261 -5.25,6.032 -5.185,6.806C-5.094,7.867 -5.085,8.939 -4.942,9.992C-4.74,11.475 -4.464,12.948 -4.191,14.421C-3.682,17.166 -3.167,19.911 -2.624,22.65C-2.411,23.722 -2.101,24.774 -1.861,25.84C-1.773,26.232 -1.767,26.641 -1.712,27.041C-1.671,27.342 -1.491,27.5 -1.183,27.494C-1.039,27.492 -0.895,27.482 -0.752,27.468C1.313,27.274 3.376,27.085 5.417,26.687C7.648,26.251 9.894,25.886 12.131,25.475C13.492,25.224 14.851,25.001 16.239,24.94C17.504,24.884 18.766,24.725 20.025,24.587C20.51,24.534 20.989,24.417 21.468,24.32C21.708,24.273 21.793,24.116 21.746,23.874C21.5,22.604 21.294,21.323 21.006,20.063C20.679,18.632 20.187,17.234 19.93,15.794C19.365,12.621 18.903,9.43 18.398,6.247C18.2,4.996 18.026,3.739 17.788,2.496C17.593,1.479 17.326,0.476 17.074,-0.53C16.98,-0.906 16.753,-1.1 16.318,-1.06C15.228,-0.958 14.133,-0.897 13.04,-0.813C11.086,-0.664 9.133,-0.5 7.178,-0.361C5.855,-0.267 4.529,-0.216 3.206,-0.127C2.689,-0.093 2.173,-0.018 1.66,0.056C-0.279,0.335 -2.217,0.62 -4.153,0.91C-4.604,0.978 -5.052,1.074 -5.5,1.157C-5.53,1.608 -5.56,2.06 -5.589,2.51C-5.591,2.539 -5.589,2.568 -5.589,2.597M-8.773,5.575C-8.723,4.405 -8.583,3.272 -8.173,2.172C-7.835,1.265 -7.194,0.781 -6.243,0.698C-5.068,0.595 -3.894,0.474 -2.726,0.309C-0.816,0.038 1.084,-0.306 2.997,-0.559C4.138,-0.709 5.294,-0.75 6.444,-0.834C8.714,-1.001 10.984,-1.164 13.254,-1.327C14.29,-1.401 15.327,-1.455 16.36,-1.552C16.913,-1.603 17.263,-1.38 17.411,-0.877C17.728,0.199 18.089,1.27 18.296,2.368C18.647,4.234 18.882,6.121 19.187,7.996C19.33,8.877 19.538,9.746 19.691,10.625C20.043,12.639 20.329,14.664 20.739,16.665C21.022,18.044 21.51,19.38 21.828,20.754C22.093,21.901 22.256,23.073 22.441,24.238C22.514,24.7 22.427,24.759 21.935,24.963C21.706,25.058 21.479,25.203 21.306,25.381C20.588,26.116 20.077,26.988 19.819,27.981C19.674,28.536 19.339,28.805 18.824,28.922C18.571,28.979 18.318,29.051 18.062,29.068C14.697,29.295 11.329,29.48 7.968,29.747C6.334,29.878 4.712,30.159 3.086,30.373C2.858,30.403 2.632,30.46 2.403,30.471C0.706,30.55 -0.993,30.621 -2.691,30.694C-2.835,30.701 -2.98,30.7 -3.123,30.717C-3.973,30.814 -4.283,30.645 -4.531,29.842C-4.871,28.742 -5.176,27.633 -5.487,26.524C-5.697,25.776 -5.921,25.031 -6.088,24.273C-6.452,22.615 -6.82,20.956 -7.118,19.286C-7.426,17.559 -7.684,15.82 -7.907,14.079C-8.144,12.223 -8.319,10.358 -8.511,8.497C-8.611,7.524 -8.686,6.549 -8.773,5.575" style="fill:rgb(35,31,32);fill-rule:nonzero;"/>
            </g>
        </g>
        <g transform="matrix(5.55556,0,0,5.55556,7263.77,9566.93)">
            <g transform="matrix(1,0,0,1,244.532,527.71)">
                <path d="M0,-21.207C0,-21.235 -0.001,-21.265 0,-21.294C0.029,-21.744 0.059,-22.195 0.089,-22.646C0.538,-22.729 0.985,-22.826 1.436,-22.894C3.373,-23.184 5.311,-23.469 7.249,-23.748C7.763,-23.822 8.278,-23.896 8.795,-23.931C10.119,-24.02 11.444,-24.07 12.768,-24.165C14.722,-24.304 16.675,-24.468 18.629,-24.617C19.722,-24.701 20.817,-24.762 21.908,-24.863C22.342,-24.903 22.57,-24.71 22.664,-24.334C22.915,-23.328 23.182,-22.325 23.377,-21.308C23.616,-20.064 23.789,-18.808 23.988,-17.557C24.493,-14.374 24.955,-11.183 25.52,-8.01C25.776,-6.569 26.268,-5.172 26.595,-3.741C26.884,-2.48 27.09,-1.2 27.335,0.07C27.382,0.313 27.298,0.469 27.058,0.517C26.578,0.613 26.1,0.73 25.615,0.783C24.355,0.921 23.094,1.08 21.829,1.136C20.44,1.197 19.081,1.42 17.72,1.671C15.483,2.082 13.238,2.447 11.006,2.883C8.965,3.281 6.902,3.471 4.837,3.664C4.694,3.678 4.55,3.689 4.407,3.69C4.099,3.696 3.918,3.538 3.877,3.237C3.823,2.837 3.816,2.428 3.728,2.036C3.488,0.97 3.178,-0.082 2.965,-1.153C2.422,-3.893 1.907,-6.638 1.398,-9.383C1.125,-10.855 0.849,-12.329 0.647,-13.811C0.504,-14.865 0.495,-15.936 0.405,-16.998C0.339,-17.771 0.238,-18.543 0.153,-19.315C0.084,-19.944 0.016,-20.572 -0.053,-21.201L0,-21.207Z" style="fill:rgb(246,160,173);fill-rule:nonzero;"/>
            </g>
        </g>
        <g transform="matrix(5.55556,0,0,5.55556,7263.77,9566.93)">
            <g transform="matrix(1,0,0,1,246.441,505.002)">
                <path d="M0,29.087C-0.139,28.814 -0.256,28.651 -0.308,28.469C-0.801,26.728 -1.329,24.994 -1.755,23.236C-2.201,21.394 -2.598,19.535 -2.923,17.667C-3.277,15.629 -3.533,13.573 -3.817,11.523C-4.066,9.728 -4.429,7.936 -4.491,6.133C-4.546,4.527 -4.731,2.87 -4.082,1.298C-3.859,0.757 -3.553,0.34 -3.003,0.144C-2.6,0 -2.414,0.145 -2.4,0.572C-2.393,0.802 -2.423,1.034 -2.408,1.264C-2.347,2.209 -2.279,3.155 -2.204,4.1C-2.166,4.586 -2.053,5.072 -2.064,5.557C-2.115,7.703 -1.731,9.799 -1.361,11.896C-0.917,14.417 -0.473,16.938 0.018,19.45C0.288,20.832 0.668,22.191 0.969,23.567C1.14,24.353 1.261,25.149 1.379,25.943C1.402,26.097 1.363,26.328 1.261,26.42C0.54,27.059 0.369,27.94 0.154,28.806C0.142,28.858 0.102,28.904 0,29.087" style="fill:rgb(237,28,36);fill-rule:nonzero;"/>
            </g>
        </g>
        <g transform="matrix(5.55556,0,0,5.55556,7263.77,9566.93)">
            <g transform="matrix(1,0,0,1,250.121,530.336)">
                <path d="M0,2.781C-1.01,2.5 -1.816,2.851 -2.641,2.787C-2.012,2.474 -1.315,2.449 -0.643,2.337C0.029,2.224 0.708,2.148 1.563,2.032C0.845,1.802 0.714,1.791 0.185,1.866C-0.271,1.93 -0.729,1.986 -1.184,2.056C-1.608,2.123 -2.03,2.203 -2.527,2.29C-2.473,1.897 -2.303,1.674 -1.964,1.6C-1.741,1.552 -1.508,1.528 -1.279,1.521C1.259,1.45 3.772,1.164 6.27,0.701C8.76,0.24 11.26,-0.17 13.758,-0.585C14.269,-0.67 14.792,-0.676 15.309,-0.722C16.886,-0.861 18.464,-1.003 20.042,-1.141C20.18,-1.153 20.32,-1.142 20.563,-1.142C20.441,-0.924 20.363,-0.791 20.292,-0.655C19.99,-0.068 19.592,0.494 19.414,1.117C19.206,1.842 18.741,2.094 18.101,2.144C15.688,2.331 13.275,2.513 10.859,2.659C8.213,2.818 5.562,2.91 2.96,3.494C2.655,3.562 2.329,3.558 2.013,3.551C0.569,3.516 -0.868,3.604 -2.298,3.803C-2.553,3.839 -2.906,3.934 -2.956,3.605C-3.016,3.198 -2.611,3.23 -2.338,3.193C-1.796,3.12 -1.251,3.069 -0.709,2.991C-0.525,2.965 -0.348,2.886 0,2.781" style="fill:rgb(255,252,217);fill-rule:nonzero;"/>
            </g>
        </g>
        <g transform="matrix(5.55556,0,0,5.55556,7263.77,9566.93)">
            <g opacity="0.2">
                <g transform="matrix(1,0,0,1,266.682,534.142)">
                    <path d="M0,-31.577C-3.595,-30.568 -7.189,-29.558 -10.784,-28.549C-12.039,-28.197 -13.329,-27.827 -14.358,-27.028C-15.297,-26.3 -15.949,-25.266 -16.516,-24.223C-19.084,-19.501 -20.324,-14.065 -20.058,-8.696C-19.962,-6.765 -19.495,-4.566 -17.799,-3.638C-16.685,-3.027 -15.29,-3.131 -14.164,-2.54C-15.122,-2.346 -16.08,-2.15 -17.038,-1.956C-17.267,-1.909 -17.506,-1.857 -17.685,-1.706C-17.857,-1.559 -17.947,-1.341 -18.066,-1.147C-18.566,-0.339 -19.705,0 -20.565,-0.404C-22.125,-6.279 -23.342,-12.027 -24.353,-18.021C-24.76,-20.44 -25.169,-22.88 -25.079,-25.332C-25.044,-26.272 -24.927,-27.239 -24.466,-28.06C-24.006,-28.881 -23.125,-29.342 -22.195,-29.482C-13.564,-30.794 -7.351,-31.014 0,-31.577" style="fill:rgb(59,35,20);fill-rule:nonzero;"/>
                </g>
            </g>
        </g>
        <g transform="matrix(5.55556,0,0,5.55556,7263.77,9566.93)">
            <clipPath id="_clip1">
                <path d="M266.44,502.847C265.348,502.949 264.254,503.009 263.161,503.093C261.207,503.243 259.254,503.406 257.299,503.545C255.975,503.639 254.651,503.691 253.327,503.779C252.81,503.813 252.294,503.888 251.781,503.962C249.842,504.242 247.904,504.527 245.967,504.817C245.517,504.884 245.069,504.98 244.62,505.064C244.59,505.515 244.561,505.966 244.532,506.416C244.53,506.446 244.532,506.474 244.532,506.504L244.48,506.509C244.547,507.138 244.616,507.766 244.685,508.395C244.77,509.168 244.87,509.939 244.936,510.712C245.027,511.774 245.036,512.845 245.179,513.898C245.381,515.381 245.657,516.854 245.93,518.327C246.439,521.072 246.955,523.817 247.497,526.557C247.711,527.628 248.019,528.68 248.26,529.746C248.347,530.139 248.354,530.547 248.408,530.948C248.45,531.248 248.631,531.407 248.938,531.401C249.081,531.398 249.225,531.387 249.368,531.374C251.434,531.18 253.498,530.991 255.537,530.593C257.769,530.157 260.015,529.792 262.252,529.382C263.614,529.13 264.973,528.907 266.36,528.846C267.625,528.79 268.888,528.631 270.146,528.493C270.631,528.441 271.111,528.323 271.589,528.226C271.831,528.179 271.913,528.023 271.867,527.781C271.621,526.511 271.415,525.23 271.127,523.969C270.799,522.539 270.308,521.141 270.051,519.7C269.486,516.527 269.024,513.336 268.52,510.154C268.322,508.903 268.147,507.646 267.908,506.402C267.713,505.385 267.448,504.382 267.196,503.376C267.109,503.033 266.912,502.842 266.546,502.842C266.512,502.842 266.477,502.844 266.44,502.847Z" clip-rule="nonzero"/>
            </clipPath>
            <g clip-path="url(#_clip1)">
                <g transform="matrix(1,0,0,1,260.374,529.005)">
                    <path d="M0,-15.901C-0.485,-16.403 -1.194,-16.458 -1.667,-16.018C-1.8,-15.894 -1.843,-15.674 -1.927,-15.5C-1.735,-15.431 -1.544,-15.358 -1.349,-15.299C-1.309,-15.288 -1.25,-15.325 -1.204,-15.346C-0.805,-15.529 -0.408,-15.713 0,-15.901M5.851,-2.128C5.922,-2.142 5.992,-2.156 6.063,-2.171C6.41,-2.814 6.117,-3.401 5.824,-3.987C5.713,-4.211 5.548,-4.293 5.305,-4.184C5.025,-4.059 4.981,-3.846 5.102,-3.598C5.343,-3.103 5.601,-2.617 5.851,-2.128M5.583,0.63C6.258,0.224 6.794,-0.237 6.863,-0.541C6.898,-0.695 6.826,-0.875 6.803,-1.043C6.219,-0.89 5.698,-0.755 5.172,-0.62C5.324,-0.158 5.452,0.233 5.583,0.63M-5.571,0.314C-5.364,-0.123 -5.164,-0.544 -4.965,-0.965C-4.932,-1.037 -4.892,-1.11 -4.879,-1.186C-4.849,-1.366 -4.805,-1.55 -4.82,-1.728C-4.842,-1.983 -5.038,-2.103 -5.273,-2.001C-5.434,-1.931 -5.6,-1.816 -5.702,-1.676C-6.1,-1.13 -6.046,-0.352 -5.571,0.314M-4.168,0.993C-4.654,0.992 -5.1,0.983 -5.545,1.001C-5.609,1.003 -5.715,1.135 -5.721,1.213C-5.731,1.369 -5.698,1.531 -5.661,1.685C-5.54,2.185 -5.248,2.331 -4.534,2.265C-4.192,2.234 -4.191,2.234 -4.173,1.562C-4.169,1.381 -4.17,1.202 -4.168,0.993M3.113,-3.803C3.177,-3.705 3.208,-3.626 3.265,-3.578C3.827,-3.103 4.239,-2.533 4.47,-1.827C4.542,-1.604 4.687,-1.4 4.825,-1.207C4.998,-0.964 5.248,-1.011 5.475,-1.111C5.714,-1.216 5.74,-1.45 5.672,-1.656C5.599,-1.88 5.449,-2.079 5.351,-2.297C5.132,-2.779 4.888,-3.255 4.726,-3.756C4.607,-4.122 4.77,-4.344 5.125,-4.52C5.462,-4.687 5.787,-4.672 5.99,-4.38C6.465,-3.695 6.875,-2.975 6.567,-2.082C6.507,-1.905 6.49,-1.713 6.436,-1.44C7.12,-1.856 7.321,-2.356 7.172,-3.005C7.107,-3.291 7.055,-3.58 6.979,-3.862C6.814,-4.465 6.422,-4.88 5.868,-5.148C5.24,-5.451 5.25,-5.436 4.729,-4.957C4.437,-4.689 4.104,-4.463 3.781,-4.231C3.57,-4.079 3.343,-3.95 3.113,-3.803M-2.373,-16.032C-2.268,-16.126 -2.171,-16.214 -2.072,-16.3C-1.576,-16.729 -1.525,-16.949 -1.83,-17.506C-2.066,-17.938 -2.389,-18.288 -2.895,-18.39C-3.094,-18.43 -3.353,-18.48 -3.508,-18.391C-4.069,-18.071 -4.623,-17.632 -4.669,-16.972C-4.712,-16.36 -4.499,-15.728 -4.379,-15.109C-4.367,-15.046 -4.21,-14.951 -4.145,-14.967C-3.709,-15.075 -3.276,-15.198 -2.853,-15.346C-2.79,-15.368 -2.723,-15.603 -2.762,-15.649C-2.932,-15.847 -3.15,-16.003 -3.33,-16.193C-3.409,-16.276 -3.438,-16.406 -3.49,-16.514C-3.351,-16.53 -3.178,-16.606 -3.078,-16.55C-2.829,-16.413 -2.614,-16.214 -2.373,-16.032M0.937,-16.162C1.753,-15.936 2.415,-15.753 3.077,-15.571C3.205,-15.536 3.343,-15.468 3.462,-15.491C3.597,-15.517 3.799,-15.604 3.828,-15.706C4.012,-16.366 4.228,-17.033 4.061,-17.733C3.938,-18.249 3.501,-18.592 3.043,-18.547C1.858,-18.428 0.939,-17.869 0.286,-16.873C0.166,-16.69 0.155,-16.538 0.343,-16.393C0.534,-16.247 0.623,-16.418 0.742,-16.505C1.018,-16.711 1.291,-16.92 1.577,-17.11C1.683,-17.18 1.819,-17.231 1.944,-17.236C2.025,-17.24 2.123,-17.155 2.185,-17.085C2.204,-17.063 2.144,-16.931 2.09,-16.895C1.743,-16.664 1.387,-16.446 0.937,-16.162M-3.038,-3.097C-3.619,-3.381 -4.112,-3.639 -4.621,-3.863C-4.803,-3.943 -5.025,-3.977 -5.225,-3.965C-5.896,-3.928 -6.358,-3.551 -6.67,-2.981C-7.006,-2.369 -7.041,-1.704 -6.893,-1.044C-6.833,-0.772 -6.624,-0.533 -6.477,-0.268C-6.371,-0.776 -6.334,-1.233 -6.171,-1.64C-6.061,-1.914 -5.813,-2.181 -5.557,-2.336C-4.956,-2.698 -4.333,-2.295 -4.396,-1.595C-4.424,-1.286 -4.555,-0.982 -4.657,-0.682C-4.743,-0.431 -4.879,-0.196 -4.949,0.058C-5.032,0.359 -4.873,0.518 -4.575,0.485C-4.281,0.452 -4.073,0.331 -4.031,0.008C-3.889,-1.082 -3.533,-2.105 -3.038,-3.097M0.958,2.372C1.22,2.324 1.376,2.293 1.534,2.265C2.533,2.086 3.498,1.796 4.391,1.311C5.071,0.941 5.138,0.728 4.826,0.024C4.504,-0.705 4.18,-1.434 3.805,-2.135C3.621,-2.479 3.325,-2.766 3.068,-3.069C2.687,-3.519 2.23,-3.623 1.641,-3.482C0.501,-3.211 -0.658,-3.032 -1.839,-3.126C-2.323,-3.165 -2.626,-2.962 -2.836,-2.513C-3.458,-1.182 -3.648,0.234 -3.707,1.675C-3.726,2.142 -3.636,2.225 -3.203,2.362C-3.026,2.417 -2.842,2.479 -2.66,2.484C-1.417,2.513 -0.165,2.776 0.958,2.372M-0.91,-13.333C-0.963,-13.288 -1.021,-13.261 -1.041,-13.218C-1.885,-11.292 -3.296,-9.899 -5.105,-8.871C-5.276,-8.774 -5.439,-8.59 -5.511,-8.409C-5.79,-7.699 -5.781,-6.965 -5.672,-6.213C-5.586,-5.618 -5.32,-5.169 -4.857,-4.81C-4.774,-4.746 -4.71,-4.656 -4.64,-4.577C-4.115,-3.984 -3.408,-3.729 -2.665,-3.654C-1.119,-3.498 0.413,-3.689 1.924,-4.022C2.766,-4.208 3.548,-4.543 4.187,-5.136C5.138,-6.023 5.673,-7.07 5.354,-8.415C5.268,-8.777 5.117,-9.034 4.686,-9.085C3.154,-9.262 1.951,-10.047 0.955,-11.186C0.332,-11.9 -0.289,-12.617 -0.91,-13.333M-7.759,-7.761C-7.67,-7.94 -7.547,-8.111 -7.503,-8.3C-7.472,-8.438 -7.501,-8.63 -7.58,-8.746C-7.816,-9.094 -8.573,-9.212 -8.937,-8.984C-9.969,-8.339 -10.097,-6.725 -9.106,-5.96C-8.373,-5.393 -7.545,-4.939 -6.564,-4.914C-6.015,-4.899 -5.894,-5.012 -6.019,-5.547C-6.247,-6.523 -6.331,-7.491 -5.978,-8.457C-5.963,-8.498 -5.993,-8.554 -6.002,-8.606C-6.178,-8.673 -6.359,-8.723 -6.517,-8.814C-6.589,-8.855 -6.628,-8.974 -6.651,-9.065C-6.657,-9.086 -6.534,-9.172 -6.47,-9.172C-5.649,-9.171 -4.99,-9.573 -4.362,-10.027C-3.135,-10.915 -2.132,-12.001 -1.487,-13.39C-1.409,-13.559 -1.332,-13.73 -1.238,-13.89C-1.044,-14.22 -0.888,-14.217 -0.667,-13.881C-0.507,-13.638 -0.391,-13.356 -0.195,-13.147C0.533,-12.37 1.257,-11.586 2.037,-10.862C2.86,-10.097 3.867,-9.689 4.995,-9.603C5.127,-9.593 5.261,-9.592 5.392,-9.57C5.627,-9.531 5.789,-9.427 5.743,-9.143C5.727,-9.044 5.738,-8.932 5.765,-8.834C5.981,-8.019 6.026,-7.216 5.696,-6.413C5.564,-6.091 5.649,-5.912 5.986,-5.804C6.232,-5.726 6.508,-5.695 6.765,-5.713C7.135,-5.739 7.503,-5.818 7.868,-5.892C8.863,-6.094 9.508,-7.124 9.274,-8.126C9.172,-8.564 8.75,-8.767 8.378,-8.495C8.171,-8.343 8.013,-8.226 7.746,-8.26C7.659,-8.271 7.476,-8.145 7.473,-8.077C7.466,-7.907 7.508,-7.716 7.593,-7.572C7.625,-7.517 7.841,-7.535 7.954,-7.575C8.041,-7.606 8.088,-7.735 8.17,-7.797C8.242,-7.851 8.338,-7.874 8.424,-7.909C8.458,-7.815 8.527,-7.717 8.52,-7.627C8.497,-7.336 8.339,-7.14 8.051,-7.048C7.426,-6.851 6.977,-7.156 6.975,-7.81C6.974,-8.18 7.093,-8.561 7.037,-8.918C6.887,-9.863 6.708,-10.808 6.476,-11.737C6.049,-13.45 4.997,-14.589 3.264,-15.054C3.033,-15.116 2.796,-15.171 2.577,-15.263C1.668,-15.648 0.731,-15.647 -0.15,-15.288C-0.87,-14.994 -1.556,-14.764 -2.335,-14.931C-2.457,-14.957 -2.598,-14.903 -2.729,-14.883C-5.086,-14.538 -7.193,-12.3 -7.469,-10.267C-7.534,-9.791 -7.652,-9.39 -7.272,-8.942C-6.897,-8.501 -7.185,-7.927 -7.759,-7.761M6.658,-5.209C7.318,-4.504 7.495,-3.759 7.625,-2.989C7.699,-2.547 7.669,-2.135 7.416,-1.766C7.253,-1.53 7.202,-1.332 7.33,-1.043C7.523,-0.605 7.393,-0.187 7.003,0.09C6.117,0.72 5.23,1.354 4.306,1.926C3.909,2.172 3.431,2.323 2.969,2.423C1.577,2.727 0.224,3.258 -1.257,3.061C-2.518,2.892 -3.792,2.823 -5.06,2.701C-5.752,2.633 -6.095,2.355 -6.104,1.637C-6.113,0.998 -6.323,0.548 -6.79,0.133C-8.021,-0.965 -7.641,-3.772 -5.702,-4.321C-5.65,-4.336 -5.584,-4.334 -5.551,-4.367C-5.489,-4.427 -5.446,-4.508 -5.396,-4.581C-5.486,-4.609 -5.614,-4.691 -5.662,-4.657C-6.126,-4.336 -6.626,-4.429 -7.13,-4.494C-8.01,-4.606 -8.745,-5.064 -9.403,-5.588C-10.36,-6.346 -10.466,-7.888 -9.732,-8.834C-9.443,-9.206 -9.093,-9.493 -8.612,-9.526C-8.158,-9.557 -7.954,-9.766 -7.913,-10.214C-7.768,-11.774 -6.871,-12.913 -5.783,-13.935C-5.61,-14.098 -5.405,-14.228 -5.21,-14.368C-4.798,-14.664 -4.798,-14.662 -4.97,-15.124C-5.185,-15.705 -5.304,-16.301 -5.234,-16.922C-5.132,-17.831 -4.55,-18.436 -3.808,-18.816C-3.141,-19.159 -2.448,-18.971 -1.908,-18.419C-1.569,-18.072 -1.313,-17.67 -1.221,-17.179C-1.186,-16.999 -1.16,-16.765 -0.91,-16.798C-0.64,-16.835 -0.317,-16.612 -0.102,-16.946C-0.015,-17.08 0.077,-17.211 0.168,-17.342C0.852,-18.334 1.851,-18.783 2.997,-18.956C3.633,-19.051 4.324,-18.503 4.523,-17.81C4.725,-17.113 4.512,-16.439 4.429,-15.758C4.423,-15.706 4.412,-15.65 4.387,-15.605C4.225,-15.31 4.288,-15.134 4.615,-14.995C5.192,-14.748 5.607,-14.291 5.997,-13.812C6.514,-13.177 6.788,-12.43 6.972,-11.65C7.138,-10.951 7.247,-10.239 7.397,-9.536C7.511,-9.001 7.531,-8.997 8.09,-9.022C8.223,-9.028 8.356,-9.046 8.488,-9.038C9.65,-8.974 9.687,-8.826 9.774,-7.757C9.861,-6.712 8.992,-5.659 7.957,-5.452C7.57,-5.375 7.182,-5.306 6.658,-5.209" style="fill:rgb(35,31,32);fill-rule:nonzero;"/>
                </g>
                <g transform="matrix(1,0,0,1,252.615,516.219)">
                    <path d="M0,5.023C0.574,4.858 0.862,4.285 0.487,3.843C0.107,3.395 0.225,2.995 0.29,2.518C0.566,0.485 2.673,-1.752 5.03,-2.098C5.162,-2.118 5.302,-2.171 5.424,-2.146C6.204,-1.979 6.889,-2.208 7.609,-2.502C8.49,-2.862 9.428,-2.863 10.336,-2.478C10.555,-2.385 10.792,-2.331 11.023,-2.269C12.756,-1.803 13.808,-0.664 14.235,1.048C14.467,1.977 14.646,2.922 14.796,3.868C14.852,4.224 14.733,4.605 14.734,4.975C14.736,5.629 15.185,5.934 15.81,5.737C16.099,5.645 16.256,5.45 16.279,5.159C16.286,5.068 16.217,4.97 16.183,4.877C16.098,4.912 16.001,4.934 15.93,4.988C15.847,5.05 15.8,5.179 15.713,5.21C15.6,5.251 15.384,5.268 15.352,5.213C15.267,5.069 15.225,4.878 15.232,4.709C15.235,4.64 15.418,4.514 15.505,4.525C15.772,4.559 15.931,4.442 16.137,4.291C16.509,4.018 16.932,4.221 17.034,4.66C17.267,5.662 16.623,6.691 15.627,6.893C15.262,6.967 14.895,7.046 14.524,7.073C14.267,7.09 13.991,7.059 13.746,6.981C13.409,6.874 13.324,6.694 13.456,6.373C13.786,5.569 13.741,4.766 13.524,3.952C13.498,3.853 13.486,3.742 13.502,3.642C13.548,3.358 13.386,3.254 13.151,3.215C13.021,3.193 12.887,3.192 12.754,3.182C11.626,3.096 10.619,2.688 9.796,1.923C9.017,1.2 8.292,0.416 7.564,-0.362C7.369,-0.571 7.252,-0.853 7.092,-1.096C6.871,-1.432 6.715,-1.435 6.521,-1.105C6.427,-0.945 6.351,-0.774 6.272,-0.605C5.627,0.785 4.624,1.871 3.397,2.758C2.77,3.212 2.11,3.615 1.29,3.614C1.226,3.614 1.103,3.7 1.108,3.72C1.131,3.811 1.17,3.93 1.242,3.971C1.4,4.062 1.582,4.112 1.757,4.179C1.767,4.231 1.796,4.288 1.782,4.329C1.429,5.294 1.512,6.262 1.74,7.239C1.865,7.773 1.745,7.886 1.195,7.872C0.214,7.846 -0.614,7.392 -1.347,6.826C-2.338,6.06 -2.21,4.446 -1.178,3.801C-0.814,3.574 -0.057,3.691 0.18,4.04C0.258,4.156 0.288,4.347 0.256,4.485C0.212,4.674 0.089,4.845 0,5.023" style="fill:rgb(35,31,32);fill-rule:nonzero;"/>
                </g>
                <g transform="matrix(1,0,0,1,258.744,522.486)">
                    <path d="M0,-3.792C-0.156,-3.933 -0.286,-4.136 -0.403,-4.129C-0.526,-4.122 -0.723,-3.921 -0.734,-3.791C-0.753,-3.577 -0.66,-3.349 -0.583,-3.138C-0.571,-3.104 -0.337,-3.089 -0.312,-3.13C-0.196,-3.32 -0.117,-3.533 0,-3.792M1.646,-3.557C1.588,-3.771 1.589,-3.868 1.542,-3.919C1.445,-4.023 1.305,-4.188 1.213,-4.17C1.103,-4.148 1.01,-3.972 0.938,-3.847C0.906,-3.79 0.938,-3.692 0.951,-3.614C1.019,-3.196 1.288,-2.862 1.4,-2.993C1.552,-3.168 1.597,-3.434 1.646,-3.557M0.858,-2.611C0.391,-2.791 0.077,-2.778 -0.168,-2.468C-0.388,-2.191 -0.385,-1.556 -0.189,-1.254C0.021,-0.929 0.509,-0.777 0.947,-0.919C1.034,-0.947 1.1,-1.043 1.175,-1.107C1.085,-1.18 1.004,-1.272 0.901,-1.316C0.809,-1.356 0.691,-1.332 0.589,-1.354C0.371,-1.399 0.179,-1.492 0.149,-1.744C0.117,-2.017 0.134,-2.277 0.437,-2.41C0.543,-2.456 0.646,-2.51 0.858,-2.611M3.277,-1.528C3.063,-1.298 2.976,-1.2 2.885,-1.107C2.569,-0.786 2.279,-0.431 1.928,-0.153C1.225,0.402 0.584,0.341 -0.058,-0.289C-0.171,-0.4 -0.265,-0.536 -0.392,-0.628C-0.46,-0.677 -0.579,-0.654 -0.675,-0.664C-0.685,-0.563 -0.73,-0.45 -0.699,-0.364C-0.438,0.342 0.311,0.802 1.064,0.732C2.06,0.641 2.981,-0.101 3.284,-1.066C3.312,-1.154 3.284,-1.261 3.277,-1.528M0.721,-6.813C1.342,-6.098 1.962,-5.381 2.585,-4.667C3.581,-3.527 4.784,-2.743 6.316,-2.565C6.748,-2.515 6.898,-2.258 6.984,-1.896C7.304,-0.551 6.768,0.496 5.817,1.383C5.179,1.977 4.396,2.312 3.555,2.497C2.043,2.83 0.512,3.021 -1.034,2.865C-1.777,2.79 -2.485,2.535 -3.01,1.942C-3.08,1.863 -3.144,1.773 -3.227,1.709C-3.689,1.351 -3.956,0.901 -4.042,0.306C-4.151,-0.446 -4.16,-1.18 -3.88,-1.89C-3.809,-2.071 -3.646,-2.255 -3.475,-2.352C-1.666,-3.38 -0.254,-4.772 0.59,-6.699C0.609,-6.742 0.667,-6.769 0.721,-6.813" style="fill:rgb(254,220,196);fill-rule:nonzero;"/>
                </g>
                <g transform="matrix(1,0,0,1,261.331,525.785)">
                    <path d="M0,5.592C-1.122,5.995 -2.374,5.733 -3.617,5.703C-3.799,5.698 -3.984,5.637 -4.161,5.581C-4.593,5.445 -4.684,5.362 -4.665,4.895C-4.605,3.453 -4.415,2.037 -3.793,0.706C-3.583,0.258 -3.281,0.055 -2.797,0.094C-1.615,0.188 -0.456,0.009 0.684,-0.262C1.273,-0.403 1.729,-0.3 2.111,0.151C2.368,0.453 2.663,0.74 2.847,1.084C3.223,1.785 3.546,2.515 3.869,3.243C4.18,3.947 4.113,4.16 3.434,4.53C2.541,5.016 1.575,5.306 0.576,5.485C0.419,5.513 0.262,5.543 0,5.592" style="fill:rgb(0,174,239);fill-rule:nonzero;"/>
                </g>
                <g transform="matrix(1,0,0,1,257.336,528.642)">
                    <path d="M0,-2.735C-0.495,-1.743 -0.851,-0.719 -0.993,0.37C-1.035,0.694 -1.243,0.814 -1.537,0.847C-1.834,0.88 -1.994,0.721 -1.911,0.42C-1.841,0.166 -1.705,-0.069 -1.619,-0.32C-1.517,-0.62 -1.386,-0.923 -1.358,-1.233C-1.295,-1.932 -1.918,-2.336 -2.519,-1.973C-2.775,-1.819 -3.023,-1.551 -3.133,-1.278C-3.296,-0.871 -3.333,-0.414 -3.439,0.094C-3.586,-0.171 -3.794,-0.41 -3.855,-0.681C-4.002,-1.341 -3.968,-2.006 -3.632,-2.619C-3.32,-3.189 -2.858,-3.566 -2.187,-3.603C-1.987,-3.615 -1.765,-3.581 -1.583,-3.501C-1.074,-3.277 -0.581,-3.019 0,-2.735" style="fill:rgb(0,174,239);fill-rule:nonzero;"/>
                </g>
                <g transform="matrix(1,0,0,1,261.311,511.105)">
                    <path d="M0,1.738C0.449,1.454 0.805,1.236 1.152,1.005C1.207,0.968 1.266,0.837 1.248,0.815C1.186,0.745 1.087,0.66 1.006,0.664C0.882,0.669 0.745,0.719 0.639,0.79C0.354,0.98 0.081,1.189 -0.195,1.394C-0.315,1.482 -0.403,1.653 -0.594,1.507C-0.783,1.362 -0.771,1.21 -0.652,1.027C0.002,0.031 0.921,-0.529 2.105,-0.647C2.563,-0.693 3,-0.349 3.124,0.167C3.291,0.867 3.075,1.534 2.89,2.194C2.862,2.296 2.659,2.383 2.524,2.409C2.405,2.431 2.267,2.364 2.14,2.329C1.478,2.147 0.816,1.964 0,1.738" style="fill:rgb(237,28,36);fill-rule:nonzero;"/>
                </g>
                <g transform="matrix(1,0,0,1,258.001,511.606)">
                    <path d="M0,1.367C-0.241,1.184 -0.456,0.986 -0.705,0.848C-0.805,0.793 -0.978,0.869 -1.117,0.885C-1.065,0.993 -1.036,1.123 -0.957,1.206C-0.777,1.396 -0.559,1.552 -0.389,1.75C-0.35,1.796 -0.417,2.031 -0.479,2.053C-0.903,2.201 -1.336,2.324 -1.772,2.431C-1.837,2.448 -1.994,2.353 -2.006,2.29C-2.126,1.671 -2.339,1.039 -2.296,0.427C-2.25,-0.234 -1.696,-0.672 -1.135,-0.992C-0.979,-1.081 -0.721,-1.031 -0.521,-0.991C-0.016,-0.889 0.307,-0.539 0.543,-0.108C0.848,0.45 0.797,0.67 0.301,1.098C0.202,1.184 0.105,1.273 0,1.367" style="fill:rgb(237,28,36);fill-rule:nonzero;"/>
                </g>
                <g transform="matrix(1,0,0,1,263.487,526.393)">
                    <path d="M0,-1.192C0.23,-1.338 0.458,-1.467 0.668,-1.62C0.992,-1.852 1.324,-2.078 1.616,-2.345C2.137,-2.825 2.127,-2.839 2.755,-2.537C3.31,-2.269 3.702,-1.854 3.866,-1.251C3.942,-0.968 3.994,-0.679 4.06,-0.394C4.208,0.255 4.007,0.755 3.323,1.171C3.377,0.898 3.394,0.706 3.455,0.53C3.762,-0.364 3.353,-1.084 2.877,-1.769C2.674,-2.061 2.35,-2.076 2.013,-1.909C1.657,-1.733 1.495,-1.51 1.613,-1.145C1.775,-0.643 2.02,-0.168 2.238,0.315C2.336,0.533 2.486,0.731 2.559,0.955C2.627,1.162 2.601,1.395 2.362,1.5C2.135,1.6 1.885,1.647 1.712,1.405C1.574,1.211 1.43,1.007 1.357,0.785C1.126,0.079 0.714,-0.492 0.152,-0.966C0.095,-1.014 0.064,-1.093 0,-1.192" style="fill:rgb(0,174,239);fill-rule:nonzero;"/>
                </g>
                <g transform="matrix(1,0,0,1,256.206,531.326)">
                    <path d="M0,-1.329C-0.002,-1.12 -0.001,-0.94 -0.005,-0.76C-0.023,-0.088 -0.024,-0.088 -0.366,-0.057C-1.08,0.01 -1.372,-0.137 -1.493,-0.637C-1.53,-0.791 -1.563,-0.953 -1.553,-1.108C-1.547,-1.186 -1.441,-1.318 -1.377,-1.32C-0.932,-1.339 -0.486,-1.33 0,-1.329" style="fill:rgb(254,220,196);fill-rule:nonzero;"/>
                </g>
                <g transform="matrix(1,0,0,1,254.803,526.901)">
                    <path d="M0,2.417C-0.475,1.751 -0.529,0.973 -0.13,0.427C-0.028,0.287 0.137,0.172 0.298,0.103C0.534,0 0.729,0.12 0.751,0.375C0.766,0.553 0.722,0.737 0.692,0.917C0.68,0.993 0.64,1.066 0.606,1.138C0.408,1.56 0.208,1.98 0,2.417" style="fill:rgb(237,28,36);fill-rule:nonzero;"/>
                </g>
                <g transform="matrix(0.807754,0.58952,0.58952,-0.807754,265.55,529.207)">
                    <path d="M0.58,-0.106C0.241,0.138 -0.094,0.378 -0.488,0.662C-0.143,1.082 0.197,1.498 0.58,1.965C0.698,1.843 0.861,1.74 0.924,1.595C1.047,1.308 0.886,0.62 0.58,-0.106" style="fill:rgb(254,220,196);fill-rule:nonzero;"/>
                </g>
                <g transform="matrix(1,0,0,1,266.225,524.712)">
                    <path d="M0,2.165C-0.25,1.676 -0.508,1.189 -0.75,0.694C-0.87,0.446 -0.826,0.233 -0.546,0.108C-0.303,0 -0.138,0.082 -0.027,0.306C0.266,0.892 0.559,1.478 0.212,2.122C0.141,2.137 0.071,2.15 0,2.165" style="fill:rgb(237,28,36);fill-rule:nonzero;"/>
                </g>
                <g transform="matrix(1,0,0,1,260.374,513.16)">
                    <path d="M0,-0.056C-0.408,0.132 -0.805,0.316 -1.204,0.499C-1.25,0.52 -1.309,0.557 -1.349,0.546C-1.544,0.487 -1.735,0.414 -1.927,0.345C-1.843,0.171 -1.8,-0.049 -1.667,-0.173C-1.194,-0.613 -0.485,-0.558 0,-0.056" style="fill:rgb(237,28,36);fill-rule:nonzero;"/>
                </g>
                <g transform="matrix(1,0,0,1,262.021,523.287)">
                    <path d="M0,-2.33C0.006,-2.062 0.034,-1.956 0.006,-1.868C-0.296,-0.902 -1.217,-0.161 -2.213,-0.069C-2.966,0 -3.716,-0.46 -3.976,-1.166C-4.008,-1.252 -3.962,-1.365 -3.952,-1.466C-3.856,-1.456 -3.737,-1.478 -3.669,-1.43C-3.542,-1.338 -3.449,-1.202 -3.335,-1.091C-2.693,-0.461 -2.052,-0.399 -1.349,-0.955C-0.998,-1.232 -0.708,-1.588 -0.393,-1.909C-0.301,-2.002 -0.214,-2.1 0,-2.33" style="fill:rgb(35,31,32);fill-rule:nonzero;"/>
                </g>
                <g transform="matrix(1,0,0,1,259.602,521.528)">
                    <path d="M0,-1.654C-0.212,-1.552 -0.315,-1.499 -0.421,-1.453C-0.725,-1.32 -0.742,-1.059 -0.709,-0.787C-0.679,-0.535 -0.488,-0.442 -0.27,-0.396C-0.167,-0.375 -0.049,-0.399 0.043,-0.359C0.146,-0.315 0.227,-0.222 0.317,-0.15C0.241,-0.086 0.176,0.01 0.088,0.038C-0.35,0.18 -0.838,0.029 -1.048,-0.297C-1.243,-0.598 -1.246,-1.234 -1.027,-1.51C-0.781,-1.821 -0.467,-1.834 0,-1.654" style="fill:rgb(35,31,32);fill-rule:nonzero;"/>
                </g>
                <g transform="matrix(1,0,0,1,260.39,518.992)">
                    <path d="M0,-0.063C-0.049,0.06 -0.095,0.326 -0.246,0.5C-0.359,0.631 -0.627,0.297 -0.696,-0.121C-0.708,-0.199 -0.741,-0.296 -0.708,-0.353C-0.637,-0.478 -0.543,-0.655 -0.434,-0.676C-0.341,-0.694 -0.202,-0.53 -0.105,-0.425C-0.057,-0.375 -0.059,-0.278 0,-0.063" style="fill:rgb(35,31,32);fill-rule:nonzero;"/>
                </g>
                <g transform="matrix(1,0,0,1,258.744,519.053)">
                    <path d="M0,-0.359C-0.117,-0.1 -0.196,0.113 -0.312,0.303C-0.337,0.344 -0.571,0.329 -0.583,0.295C-0.66,0.084 -0.753,-0.144 -0.734,-0.358C-0.723,-0.488 -0.526,-0.689 -0.403,-0.696C-0.286,-0.703 -0.156,-0.5 0,-0.359" style="fill:rgb(35,31,32);fill-rule:nonzero;"/>
                </g>
            </g>
        </g>
        <g transform="matrix(5.55556,0,0,5.55556,7263.77,9566.93)">
            <g transform="matrix(0.993318,-0.115407,-0.0543127,1.01304,0,0)">
                <g transform="matrix(1.13741,0,0.0854305,1,-83.7033,0)">
                    <text x="276.873px" y="534.439px" style="font-family:'ITCAvantGardeStd-Bk', 'ITC Avant Garde Gothic Std', sans-serif;font-weight:300;font-size:4.946px;fill:rgb(35,31,32);">Blanca</text>
                </g>
                <g transform="matrix(1.13741,0,0.0854305,1,-84.136,0)">
                    <text x="277.768px" y="538.065px" style="font-family:'ITCAvantGardeStd-Bk', 'ITC Avant Garde Gothic Std', sans-serif;font-weight:300;font-size:4.946px;fill:white;">Nieves</text>
                </g>
            </g>
        </g>
    </g>
</svg>
