<?xml version="1.0" encoding="UTF-8" standalone="no"?>
<!DOCTYPE svg PUBLIC "-//W3C//DTD SVG 1.1//EN" "http://www.w3.org/Graphics/SVG/1.1/DTD/svg11.dtd">
<svg width="100%" height="100%" viewBox="0 0 177 104" version="1.1" xmlns="http://www.w3.org/2000/svg" xmlns:xlink="http://www.w3.org/1999/xlink" xml:space="preserve" xmlns:serif="http://www.serif.com/" style="fill-rule:evenodd;clip-rule:evenodd;stroke-linecap:round;stroke-linejoin:round;stroke-miterlimit:1.5;">
    <g transform="matrix(1,0,0,1,-11,-56)">
        <g transform="matrix(1,0,0,1,0,-26.7094)">
            <g>
                <g transform="matrix(1,0,0,1,4.74902,0)">
                    <g transform="matrix(0.762251,0,0,0.762251,0.247896,30.1555)">
                        <g transform="matrix(1,0,0,1,22.2919,-6.82129)">
                            <path d="M77.708,95.44C77.708,93.873 76.779,92.455 75.341,91.83C70.607,89.772 59.859,85.099 53.265,82.233C52.048,81.704 50.647,81.823 49.538,82.551C48.428,83.278 47.76,84.516 47.76,85.842C47.76,103.536 47.76,155.167 47.76,169.848C47.76,170.892 48.174,171.893 48.913,172.631C49.651,173.369 50.652,173.784 51.696,173.784C57.433,173.784 68.035,173.784 73.772,173.784C75.946,173.784 77.708,172.022 77.708,169.848C77.708,155.636 77.708,107.186 77.708,95.44Z" style="fill:rgb(140,57,29);"/>
                        </g>
                        <g transform="matrix(1,0,0,1,22.2919,-6.82129)">
                            <path d="M79.676,95.44C79.676,93.089 78.282,90.963 76.126,90.026C71.391,87.967 60.643,83.295 54.049,80.428C52.224,79.635 50.123,79.814 48.459,80.905C46.794,81.996 45.792,83.852 45.792,85.842C45.792,103.536 45.792,155.167 45.792,169.848C45.792,171.414 46.414,172.916 47.521,174.023C48.628,175.13 50.13,175.752 51.696,175.752C57.433,175.752 68.035,175.752 73.772,175.752C77.033,175.752 79.676,173.109 79.676,169.848L79.676,95.44ZM75.74,95.44L75.74,169.848C75.74,170.935 74.859,171.816 73.772,171.816C68.035,171.816 57.433,171.816 51.696,171.816C51.174,171.816 50.673,171.609 50.304,171.24C49.935,170.871 49.728,170.37 49.728,169.848C49.728,155.167 49.728,103.536 49.728,85.842C49.728,85.179 50.062,84.56 50.617,84.196C51.171,83.833 51.872,83.773 52.48,84.037C59.074,86.904 69.822,91.577 74.557,93.635C75.275,93.947 75.74,94.656 75.74,95.44Z"/>
                        </g>
                        <g transform="matrix(1,0,0,1,-3.45508,-6.82129)">
                            <path d="M77.708,83.775C77.708,82.731 77.293,81.73 76.555,80.992C75.817,80.254 74.816,79.84 73.772,79.84C68.035,79.84 57.433,79.84 51.696,79.84C50.652,79.84 49.651,80.254 48.913,80.992C48.174,81.73 47.76,82.731 47.76,83.775C47.76,99.081 47.76,154.543 47.76,169.848C47.76,170.892 48.174,171.893 48.913,172.631C49.651,173.369 50.652,173.784 51.696,173.784C57.433,173.784 68.035,173.784 73.772,173.784C74.816,173.784 75.817,173.369 76.555,172.631C77.293,171.893 77.708,170.892 77.708,169.848C77.708,154.543 77.708,99.081 77.708,83.775Z" style="fill:rgb(205,79,37);"/>
                        </g>
                        <g transform="matrix(1,0,0,1,-3.45508,-6.82129)">
                            <path d="M79.676,83.775C79.676,82.21 79.054,80.708 77.947,79.601C76.84,78.494 72.714,76.56 71.149,76.56C65.411,76.56 60.057,76.56 54.319,76.56C52.754,76.56 48.628,78.494 47.521,79.601C46.414,80.708 45.792,82.21 45.792,83.775C45.792,99.081 45.792,154.543 45.792,169.848C45.792,171.414 46.414,172.916 47.521,174.023C48.628,175.13 50.13,175.752 51.696,175.752C57.433,175.752 68.035,175.752 73.772,175.752C75.338,175.752 76.84,175.13 77.947,174.023C79.054,172.916 79.676,171.414 79.676,169.848L79.676,83.775ZM75.74,83.775L75.74,169.848C75.74,170.37 75.533,170.871 75.164,171.24C74.795,171.609 74.294,171.816 73.772,171.816C68.035,171.816 57.433,171.816 51.696,171.816C51.174,171.816 50.673,171.609 50.304,171.24C49.935,170.871 49.728,170.37 49.728,169.848C49.728,154.543 49.728,99.081 49.728,83.775C49.728,83.253 49.935,82.753 50.304,82.384C50.673,82.015 51.174,81.807 51.696,81.807C57.433,81.807 68.035,81.807 73.772,81.807C74.294,81.807 74.795,82.015 75.164,82.384C75.533,82.753 75.74,83.253 75.74,83.775Z"/>
                        </g>
                    </g>
                    <g transform="matrix(0.762251,0,0,0.762251,28.0962,30.1555)">
                        <g transform="matrix(1,0,0,1,22.2919,-6.82129)">
                            <path d="M77.708,95.44C77.708,93.873 76.779,92.455 75.341,91.83C70.607,89.772 59.859,85.099 53.265,82.233C52.048,81.704 50.647,81.823 49.538,82.551C48.428,83.278 47.76,84.516 47.76,85.842C47.76,103.536 47.76,155.167 47.76,169.848C47.76,170.892 48.174,171.893 48.913,172.631C49.651,173.369 50.652,173.784 51.696,173.784C57.433,173.784 68.035,173.784 73.772,173.784C75.946,173.784 77.708,172.022 77.708,169.848C77.708,155.636 77.708,107.186 77.708,95.44Z" style="fill:rgb(140,140,91);stroke:black;stroke-width:3.94px;"/>
                        </g>
                        <g transform="matrix(1,0,0,1,-3.45508,-6.82129)">
                            <path d="M77.708,83.775C77.708,82.731 77.293,81.73 76.555,80.992C75.817,80.254 74.816,79.84 73.772,79.84C68.035,79.84 57.433,79.84 51.696,79.84C50.652,79.84 49.651,80.254 48.913,80.992C48.174,81.73 47.76,82.731 47.76,83.775C47.76,99.081 47.76,154.543 47.76,169.848C47.76,170.892 48.174,171.893 48.913,172.631C49.651,173.369 50.652,173.784 51.696,173.784C57.433,173.784 68.035,173.784 73.772,173.784C74.816,173.784 75.817,173.369 76.555,172.631C77.293,171.893 77.708,170.892 77.708,169.848C77.708,154.543 77.708,99.081 77.708,83.775Z" style="fill:rgb(184,185,31);"/>
                        </g>
                        <g transform="matrix(1,0,0,1,-3.45508,-6.82129)">
                            <path d="M79.676,83.775C79.676,82.21 79.054,82.02 77.947,80.913C76.84,79.806 75.338,79.184 73.772,79.184C68.035,79.184 57.433,79.184 51.696,79.184C50.13,79.184 48.628,79.806 47.521,80.913C46.414,82.02 45.792,82.21 45.792,83.775C45.792,99.081 45.792,154.543 45.792,169.848C45.792,171.414 46.414,172.916 47.521,174.023C48.628,175.13 50.13,175.752 51.696,175.752C57.433,175.752 68.035,175.752 73.772,175.752C75.338,175.752 76.84,175.13 77.947,174.023C79.054,172.916 79.676,171.414 79.676,169.848L79.676,83.775ZM75.74,83.775L75.74,169.848C75.74,170.37 75.533,170.871 75.164,171.24C74.795,171.609 74.294,171.816 73.772,171.816C68.035,171.816 57.433,171.816 51.696,171.816C51.174,171.816 50.673,171.609 50.304,171.24C49.935,170.871 49.728,170.37 49.728,169.848C49.728,154.543 49.728,99.081 49.728,83.775C49.728,83.253 49.935,82.753 50.304,82.384C50.673,82.015 51.174,81.807 51.696,81.807C57.433,81.807 68.035,81.807 73.772,81.807C74.294,81.807 74.795,82.015 75.164,82.384C75.533,82.753 75.74,83.253 75.74,83.775Z"/>
                        </g>
                    </g>
                    <g transform="matrix(0.762251,0,0,0.762251,55.9446,30.1555)">
                        <g transform="matrix(1,0,0,1,22.2919,-6.82129)">
                            <path d="M77.708,95.44C77.708,93.873 76.779,92.455 75.341,91.83C70.607,89.772 59.859,85.099 53.265,82.233C52.048,81.704 50.647,81.823 49.538,82.551C48.428,83.278 47.76,84.516 47.76,85.842C47.76,103.536 47.76,155.167 47.76,169.848C47.76,170.892 48.174,171.893 48.913,172.631C49.651,173.369 50.652,173.784 51.696,173.784C57.433,173.784 68.035,173.784 73.772,173.784C75.946,173.784 77.708,172.022 77.708,169.848C77.708,155.636 77.708,107.186 77.708,95.44Z" style="fill:rgb(138,64,66);stroke:black;stroke-width:3.94px;"/>
                        </g>
                        <g transform="matrix(1,0,0,1,-3.45508,-6.82129)">
                            <path d="M77.708,83.775C77.708,82.731 77.293,81.73 76.555,80.992C75.817,80.254 74.816,79.84 73.772,79.84C68.035,79.84 57.433,79.84 51.696,79.84C50.652,79.84 49.651,80.254 48.913,80.992C48.174,81.73 47.76,82.731 47.76,83.775C47.76,99.081 47.76,154.543 47.76,169.848C47.76,170.892 48.174,171.893 48.913,172.631C49.651,173.369 50.652,173.784 51.696,173.784C57.433,173.784 68.035,173.784 73.772,173.784C74.816,173.784 75.817,173.369 76.555,172.631C77.293,171.893 77.708,170.892 77.708,169.848C77.708,154.543 77.708,99.081 77.708,83.775Z" style="fill:rgb(201,29,33);"/>
                        </g>
                        <g transform="matrix(1,0,0,1,-3.45508,-6.82129)">
                            <path d="M79.676,83.775C79.676,82.21 79.054,80.708 77.947,79.601C76.84,78.494 74.026,79.184 72.46,79.184C66.723,79.184 57.433,77.872 51.696,77.872C50.13,77.872 48.628,78.494 47.521,79.601C46.414,80.708 45.792,82.21 45.792,83.775C45.792,99.081 45.792,154.543 45.792,169.848C45.792,171.414 46.414,172.916 47.521,174.023C48.628,175.13 50.13,175.752 51.696,175.752C57.433,175.752 68.035,175.752 73.772,175.752C75.338,175.752 76.84,175.13 77.947,174.023C79.054,172.916 79.676,171.414 79.676,169.848L79.676,83.775ZM75.74,83.775L75.74,169.848C75.74,170.37 75.533,170.871 75.164,171.24C74.795,171.609 74.294,171.816 73.772,171.816C68.035,171.816 57.433,171.816 51.696,171.816C51.174,171.816 50.673,171.609 50.304,171.24C49.935,170.871 49.728,170.37 49.728,169.848C49.728,154.543 49.728,99.081 49.728,83.775C49.728,83.253 49.935,82.753 50.304,82.384C50.673,82.015 51.174,81.807 51.696,81.807C57.433,81.807 68.035,81.807 73.772,81.807C74.294,81.807 74.795,82.015 75.164,82.384C75.533,82.753 75.74,83.253 75.74,83.775Z"/>
                        </g>
                    </g>
                    <g transform="matrix(0.762251,0,0,0.762251,83.7929,30.1555)">
                        <g transform="matrix(0.583932,0,0,1,42.1633,-6.82129)">
                            <path d="M77.708,94.836C77.708,93.592 76.701,92.421 74.993,91.679C71.287,90.068 64.431,87.087 58.525,84.519C56.48,83.631 53.753,83.491 51.475,84.159C49.197,84.827 47.76,86.188 47.76,87.676C47.76,106.86 47.76,155.645 47.76,169.848C47.76,170.892 48.47,171.893 49.734,172.631C50.998,173.369 52.712,173.784 54.5,173.784C59.416,173.784 66.052,173.784 70.968,173.784C72.756,173.784 74.47,173.369 75.734,172.631C76.998,171.893 77.708,170.892 77.708,169.848C77.708,155.377 77.708,105.412 77.708,94.836Z" style="fill:rgb(157,124,126);"/>
                        </g>
                        <g transform="matrix(0.583932,0,0,1,42.1633,-6.82129)">
                            <path d="M81.078,94.836C81.078,92.97 79.568,91.214 77.005,90.1C73.3,88.489 66.443,85.509 60.537,82.941C57.471,81.608 53.379,81.399 49.963,82.401C46.546,83.403 44.39,85.444 44.39,87.676C44.39,106.86 44.39,155.645 44.39,169.848C44.39,171.414 45.455,172.916 47.351,174.023C49.247,175.13 51.819,175.752 54.5,175.752C59.416,175.752 66.052,175.752 70.968,175.752C73.649,175.752 76.221,175.13 78.117,174.023C80.013,172.916 81.078,171.414 81.078,169.848C81.078,155.377 81.078,105.412 81.078,94.836ZM74.338,94.836C74.338,105.412 74.338,155.377 74.338,169.848C74.338,170.37 73.983,170.871 73.351,171.24C72.719,171.609 71.862,171.816 70.968,171.816C66.052,171.816 59.416,171.816 54.5,171.816C53.606,171.816 52.749,171.609 52.117,171.24C51.485,170.871 51.13,170.37 51.13,169.848C51.13,155.645 51.13,106.86 51.13,87.676C51.13,86.932 51.849,86.252 52.987,85.918C54.126,85.584 55.49,85.654 56.512,86.098C62.418,88.665 69.275,91.646 72.981,93.257C73.835,93.629 74.338,94.214 74.338,94.836Z"/>
                        </g>
                        <g transform="matrix(1,0,0,1,-3.45508,-6.82129)">
                            <path d="M77.708,83.775C77.708,82.731 77.293,81.73 76.555,80.992C75.817,80.254 74.816,79.84 73.772,79.84C68.035,79.84 57.433,79.84 51.696,79.84C50.652,79.84 49.651,80.254 48.913,80.992C48.174,81.73 47.76,82.731 47.76,83.775C47.76,99.081 47.76,154.543 47.76,169.848C47.76,170.892 48.174,171.893 48.913,172.631C49.651,173.369 50.652,173.784 51.696,173.784C57.433,173.784 68.035,173.784 73.772,173.784C74.816,173.784 75.817,173.369 76.555,172.631C77.293,171.893 77.708,170.892 77.708,169.848C77.708,154.543 77.708,99.081 77.708,83.775Z" style="fill:rgb(244,133,141);"/>
                        </g>
                        <g transform="matrix(1,0,0,1,-3.45508,-6.82129)">
                            <path d="M79.676,83.775C79.676,82.21 79.054,80.708 77.947,79.601C76.84,78.494 74.026,79.184 72.46,79.184C66.723,79.184 57.433,79.184 51.696,79.184C50.13,79.184 48.628,78.494 47.521,79.601C46.414,80.708 45.792,82.21 45.792,83.775C45.792,99.081 45.792,154.543 45.792,169.848C45.792,171.414 46.414,172.916 47.521,174.023C48.628,175.13 50.13,175.752 51.696,175.752C57.433,175.752 68.035,175.752 73.772,175.752C75.338,175.752 76.84,175.13 77.947,174.023C79.054,172.916 79.676,171.414 79.676,169.848L79.676,83.775ZM75.74,83.775L75.74,169.848C75.74,170.37 75.533,170.871 75.164,171.24C74.795,171.609 74.294,171.816 73.772,171.816C68.035,171.816 57.433,171.816 51.696,171.816C51.174,171.816 50.673,171.609 50.304,171.24C49.935,170.871 49.728,170.37 49.728,169.848C49.728,154.543 49.728,99.081 49.728,83.775C49.728,83.253 49.935,82.753 50.304,82.384C50.673,82.015 51.174,81.807 51.696,81.807C57.433,81.807 68.035,81.807 73.772,81.807C74.294,81.807 74.795,82.015 75.164,82.384C75.533,82.753 75.74,83.253 75.74,83.775Z"/>
                        </g>
                    </g>
                </g>
                <g transform="matrix(-0.121988,0,0,0.656166,40.2143,38.0154)">
                    <path d="M98.538,116.997C96.98,116.66 94.71,116.466 92.321,116.466C72.863,116.466 -16.921,116.466 -55.643,116.466C-58.846,116.466 -61.756,116.813 -63.093,117.354C-64.429,117.896 -63.948,118.532 -61.859,118.984C-31.603,125.528 48.217,142.792 63.23,146.039C64.787,146.376 67.057,146.569 69.446,146.569C88.905,146.569 178.688,146.569 217.41,146.569C220.614,146.569 223.524,146.222 224.86,145.681C226.197,145.14 225.715,144.504 223.627,144.052C193.37,137.508 113.55,120.244 98.538,116.997Z" style="fill:rgb(129,104,52);"/>
                </g>
                <g transform="matrix(-0.121988,0,0,0.656166,40.2143,38.0154)">
                    <path d="M115.633,114.265C130.646,117.512 170.896,128.626 201.153,135.17C208.983,136.864 236.823,144.906 231.811,146.936C226.799,148.966 176.615,146.936 164.602,146.936C125.88,146.936 88.905,150.76 69.446,150.76C60.487,150.76 51.973,150.034 46.134,148.771C31.121,145.524 -48.699,128.26 -78.955,121.715C-86.786,120.022 -88.592,117.635 -83.58,115.606C-78.568,113.576 -67.656,112.275 -55.643,112.275C-16.921,112.275 72.863,112.275 92.321,112.275C101.28,112.275 109.794,113.002 115.634,114.265L115.633,114.265ZM186.162,142.378L76.032,142.378L-24.395,120.657L85.735,120.657L186.162,142.378Z"/>
                </g>
                <g transform="matrix(0.121988,0,0,0.656166,152.579,38.0154)">
                    <path d="M115.634,114.265C109.794,113.002 101.28,112.275 92.321,112.275C72.863,112.275 -16.921,112.275 -55.643,112.275C-67.656,112.275 -78.568,113.576 -83.58,115.606C-88.592,117.635 -86.786,120.022 -78.955,121.715C-48.699,128.26 31.121,145.524 46.134,148.771C51.973,150.034 60.487,150.76 69.446,150.76C88.905,150.76 155.825,146.936 194.547,146.936C206.56,146.936 218.488,143.309 223.5,141.28C228.512,139.25 226.705,136.864 218.874,135.17L115.634,114.265Z"/>
                </g>
                <g transform="matrix(1,0,0,1,-20.9625,0.970312)">
                    <path d="M183.408,119.466C183.408,117.809 182.065,116.466 180.409,116.466C162.81,116.466 73.152,116.466 55.554,116.466C53.897,116.466 52.554,117.809 52.554,119.466C52.554,130.156 52.554,166.32 52.554,177.01C52.554,178.667 53.897,180.01 55.554,180.01C73.152,180.01 162.81,180.01 180.409,180.01C182.065,180.01 183.408,178.667 183.408,177.01C183.408,166.32 183.408,130.156 183.408,119.466Z" style="fill:rgb(169,150,111);"/>
                </g>
                <g transform="matrix(1,0,0,1,-20.9625,0.970312)">
                    <path d="M188.908,119.466C188.908,114.772 185.103,110.966 180.409,110.966C162.81,110.966 73.152,110.966 55.554,110.966C50.859,110.966 48.524,115.954 48.524,120.648C48.524,131.338 50.191,170.062 50.191,180.752C50.191,185.447 50.859,185.51 55.554,185.51C73.152,185.51 162.81,185.51 180.409,185.51C185.103,185.51 187.462,181.02 187.462,176.326L188.908,119.466ZM183.408,119.466C183.408,117.809 182.065,116.466 180.409,116.466C162.81,116.466 73.152,116.466 55.554,116.466C53.897,116.466 52.554,117.809 52.554,119.466C52.554,130.156 52.554,166.32 52.554,177.01C52.554,178.667 53.897,180.01 55.554,180.01C73.152,180.01 162.81,180.01 180.409,180.01C182.065,180.01 183.408,178.667 183.408,177.01C183.408,166.32 183.408,130.156 183.408,119.466Z"/>
                </g>
                <path d="M31.591,136.017L31.591,120.436C31.591,118.78 32.934,117.436 34.591,117.436C52.19,117.436 141.847,117.436 159.446,117.436C161.103,117.436 162.446,118.78 162.446,120.436C162.446,131.127 162.446,159.396 162.446,170.086C162.446,170.487 54.548,175.119 54.548,175.119L31.591,136.017Z" style="fill:rgb(129,104,52);"/>
                <g transform="matrix(0.771625,0,0,0.656166,9.96829,38.0154)">
                    <path d="M197.987,117.178C197.75,116.735 197.336,116.466 196.891,116.466C185.831,116.466 49.963,116.466 30.371,116.466C29.899,116.466 29.464,116.768 29.236,117.254C29.008,117.74 29.023,118.333 29.274,118.802C34.826,129.166 57.094,170.739 60.284,176.694C60.522,177.137 60.936,177.406 61.381,177.406C72.441,177.406 208.308,177.406 227.901,177.406C228.373,177.406 228.807,177.104 229.035,176.618C229.263,176.132 229.249,175.539 228.997,175.07C223.446,164.706 201.177,123.133 197.987,117.178Z" style="fill:rgb(164,143,99);"/>
                </g>
                <g transform="matrix(0.771625,0,0,0.656166,9.96829,38.0154)">
                    <path d="M201.003,114.944C200.113,113.283 198.56,112.275 196.891,112.275C185.831,112.275 49.963,112.275 30.371,112.275C28.601,112.275 26.971,113.406 26.116,115.229C25.261,117.051 25.315,119.275 26.259,121.036C31.81,131.4 54.079,172.973 57.269,178.928C58.159,180.589 67.625,180.454 69.294,180.454C80.354,180.454 200.166,178.835 219.758,178.835C221.528,178.835 228.342,179.228 229.197,177.406C230.052,175.584 228.701,173.359 227.758,171.598L201.003,114.944ZM62.633,173.215L223.792,173.215L199.527,117.609L29.296,117.609L62.633,173.215Z"/>
                </g>
                <circle cx="49.37" cy="100" r="6.481" style="fill:white;"/>
                <g transform="matrix(0.551397,0,0,0.551397,106.121,38.8138)">
                    <circle cx="49.37" cy="100" r="6.481" style="fill:white;"/>
                </g>
                <rect x="74.455" y="93.519" width="7.611" height="14.21" style="fill:white;"/>
                <g transform="matrix(1,0,0,1,27.7656,0)">
                    <rect x="74.455" y="93.519" width="7.611" height="14.21"/>
                </g>
                <g transform="matrix(1,0,0,0.543891,54.923,49.136)">
                    <rect x="74.455" y="93.519" width="7.611" height="14.21"/>
                </g>
            </g>
        </g>
    </g>
</svg>
