<svg clip-rule="evenodd" fill-rule="evenodd" stroke-linejoin="round" stroke-miterlimit="2" viewBox="0 0 182 150" xmlns="http://www.w3.org/2000/svg"><g fill-rule="nonzero"><path d="m0-20.819c-.235-.468-.388-.832-.591-1.166-.471-.771-1.165-1.211-2.071-1.3-.435-.043-.786.122-1.001.5-.44.773-.5 1.821.554 2.414.27.153.563.264.84.405.292.148.53.156.706-.18.037-.071.178-.089.271-.131.024.1.089.211.065.298-.23.844-.504 1.678-.709 2.527-.322 1.344-.624 2.693-.89 4.048-.406 2.075-.822 4.15-1.142 6.24-.217 1.419-.311 2.861-.397 4.295-.098 1.621.287 1.626-1.602 1.612-.604-.003-1.106.204-1.546.588-.921.808-.773 1.606.368 2.021.053.019.105.046.16.057 1.605.297 2.299-.013 2.902-1.332.036-.077.062-.158.093-.236.309-.783.304-.774 1.017-.409.351.181.715.345 1.088.472 2.074.704 4.204 1.07 6.4 1.101 1.213.018 2.426.118 3.636.218 2.632.219 5.249.244 7.823-.471.408-.113.81-.248 1.22-.353.092-.024.246.006.297.07.05.063.046.246-.009.298-.285.269-.151.518.022.749.134.179.284.372.473.478 1.097.62 2.253.706 3.419.231.526-.214.697-.775.431-1.278-.306-.578-.739-.994-1.455-.999-.453-.004-.906-.021-1.356-.068-.561-.058-.7-.258-.519-.795.225-.668.501-1.318.746-1.98.136-.368.319-.736.367-1.117.14-1.119.281-2.244.317-3.369.092-2.909.123-5.819.188-8.728.018-.798-.055-1.575-.309-2.337-.098-.292-.159-.599-.206-.904-.014-.087.056-.243.128-.274.076-.032.219.022.298.082.085.066.147.176.186.279.107.281.325.271.559.241 1.695-.217 2.807-1.628 2.582-3.18-.117-.801-.442-1.07-1.261-.98-1.357.15-2.674 1.283-3.024 2.604-.103.389-.318.509-.573.261-.523-.509-1.21-.614-1.854-.736-1.441-.274-2.897-.485-4.375-.423-.282.011-.564-.027-.847-.036-2.316-.079-4.632-.18-6.949-.223-.844-.016-1.698.061-2.533.187-.653.098-1.35.151-1.937.729m19.046 20.051c.682.091 1.215.136 1.737.236.935.181 1.702 1.109 1.672 1.974-.019.553-.234 1.004-.759 1.22-1.363.563-2.71.507-3.973-.27-.292-.18-.509-.524-.685-.836-.183-.322-.363-.434-.742-.344-.822.196-1.655.352-2.489.493-.472.08-.952.131-1.43.143-2.377.061-4.747-.071-7.112-.302-.393-.038-.791-.04-1.186-.049-2.515-.052-4.937-.512-7.221-1.605-.071-.034-.16-.033-.28-.057-.146.303-.279.613-.44.906-.457.828-1.109 1.316-2.113 1.287-.747-.023-1.464-.071-2.095-.535-.618-.455-.806-1.004-.479-1.698.412-.877 1.119-1.404 2.086-1.544.334-.048.679-.075 1.014-.05.388.028.47-.138.499-.487.145-1.715.263-3.434.492-5.138.354-2.629.84-5.235 1.543-7.799.35-1.278.615-2.577.924-3.867.069-.286-.036-.4-.318-.462-.356-.08-.719-.176-1.043-.336-1.348-.668-1.586-2.577-.452-3.569.672-.587 1.431-.443 2.151-.137.691.294 1.217.798 1.581 1.475.296.552.322.552.898.363 1.004-.331 2.044-.442 3.089-.467 1.385-.034 2.772-.043 4.157-.017 1.949.037 3.906.023 5.842.211 1.363.133 2.751.274 4.065.761.71.262.712.214 1.155-.358.293-.378.603-.749.948-1.08.663-.634 1.474-.923 2.392-.907.678.011 1.024.263 1.247.922.571 1.69-.475 3.437-1.79 3.932-.343.128-.699.223-1.052.324-.243.068-.375.15-.329.467.291 1.995.212 3.997.087 6.001-.053.845-.038 1.695-.033 2.543.008 1.217-.081 2.424-.283 3.626-.061.359-.06.733-.047 1.098.024.696-.162 1.334-.443 1.963-.275.614-.501 1.251-.785 1.969" fill="#231f20" transform="matrix(5.55556 0 0 5.55556 48.36875872 132.52165008)"/><path d="m0-5.91c-.013.033-.026.067-.039.101.768.601 1.532 1.207 2.31 1.795.081.061.242.017.366.022-.037-.122-.036-.293-.118-.358-.572-.456-1.147-.909-1.752-1.319-.212-.143-.509-.164-.767-.241m-2.807 5.754.124.187c.146-.066.294-.128.436-.2 1.258-.634 2.49-1.328 3.778-1.892 2.349-1.03 4.702-2.065 7.233-2.593.055-.011.121-.02.158-.054.057-.051.144-.143.129-.185-.033-.091-.128-.232-.19-.228-.249.017-.502.059-.742.129-3.26.953-6.379 2.256-9.379 3.843-.539.286-1.032.66-1.547.993m-1.959-13.304c.588-.578 1.284-.631 1.937-.729.835-.126 1.689-.202 2.533-.187 2.317.043 4.633.144 6.949.223.283.01.566.047.847.036 1.479-.062 2.935.149 4.375.423.644.122 1.331.227 1.854.736.255.248.47.128.573-.261.35-1.321 1.667-2.454 3.025-2.604.819-.09 1.143.18 1.26.98.225 1.552-.886 2.963-2.581 3.18-.235.03-.453.04-.56-.241-.039-.103-.101-.213-.185-.278-.079-.061-.222-.115-.299-.082-.071.03-.141.186-.128.273.048.306.109.612.206.904.254.762.328 1.539.31 2.337-.065 2.909-.097 5.819-.189 8.728-.036 1.126-.176 2.25-.316 3.369-.048.382-.232.749-.368 1.117-.245.662-.521 1.313-.746 1.98-.18.538-.042.737.519.795.45.047.904.064 1.356.068.716.006 1.15.422 1.455.999.267.503.096 1.064-.43 1.278-1.167.475-2.322.389-3.42-.23-.189-.107-.339-.3-.472-.479-.174-.231-.307-.479-.023-.749.055-.052.059-.235.01-.298-.051-.064-.205-.093-.297-.07-.41.105-.812.24-1.221.353-2.573.715-5.19.69-7.822.471-1.21-.099-2.424-.2-3.636-.218-2.196-.031-4.326-.397-6.4-1.101-.374-.127-.737-.291-1.088-.472-.714-.365-.709-.374-1.018.409-.031.078-.057.16-.092.237-.604 1.318-1.298 1.629-2.902 1.331-.056-.011-.107-.037-.161-.057-1.141-.415-1.289-1.213-.367-2.02.439-.385.942-.592 1.545-.588 1.889.013 1.504.008 1.602-1.613.087-1.434.18-2.876.398-4.295.319-2.089.735-4.165 1.142-6.24.265-1.355.568-2.704.89-4.048.204-.849.479-1.683.709-2.527.024-.087-.041-.198-.065-.298-.093.042-.235.06-.272.131-.176.336-.413.328-.706.18-.277-.141-.57-.252-.84-.405-1.054-.592-.994-1.641-.554-2.414.215-.378.566-.543 1.002-.5.905.089 1.6.529 2.07 1.3.203.334.357.698.591 1.166" fill="#f27791" transform="matrix(5.55556 0 0 5.55556 74.84655768 91.63272848)"/><path d="m0 23.899c-.411-.134-.817-.314-1.137-.61-.252-.235-.415-.527-.562-.834-.146-.308-.296-.585-.578-.79-.221-.162-.491-.218-.757-.255-.752-.105-1.528-.039-2.281.021-.726.058-1.446.103-2.173.133-1.181.049-2.364.105-3.547.081-1.078-.02-2.143-.124-3.208-.293-1.672-.265-3.418-.622-4.861-1.556-.688-.446-1.361-1.066-1.678-1.838-.355-.865-.28-1.824-.115-2.722.183-.998.424-1.989.642-2.981.259-1.183.539-2.363.842-3.537.15-.582.306-1.162.467-1.741.088-.313.169-.62.302-.918.282-.628.611-1.232.875-1.868.119-.285.238-.583.292-.89.035-.201.049-.351-.127-.468-.245-.164-.543-.26-.819-.359-.355-.126-.714-.241-1.07-.368-.672-.239-1.285-.522-1.726-1.109-.432-.577-.483-1.256-.417-1.941-.123-.027-.241-.064-.374-.077-.436-.043-.787.122-1.002.5-.44.773-.5 1.821.554 2.414.27.152.563.264.84.404.293.149.53.157.706-.179.037-.072.179-.089.272-.131.024.1.089.211.065.298-.23.843-.505 1.677-.709 2.527-.322 1.344-.625 2.692-.89 4.048-.407 2.075-.823 4.15-1.142 6.24-.218 1.419-.312 2.861-.398 4.295-.098 1.621.287 1.626-1.602 1.612-.603-.004-1.106.204-1.545.588-.922.808-.774 1.606.367 2.021.054.019.105.046.16.056 1.605.298 2.299-.012 2.903-1.331.035-.077.061-.158.092-.236.309-.783.304-.774 1.018-.409.351.18.714.345 1.088.472 2.074.704 4.204 1.07 6.4 1.101 1.212.018 2.426.118 3.636.218 2.632.219 5.249.244 7.822-.471.409-.113.811-.248 1.221-.353.091-.024.246.006.297.07.049.062.045.246-.01.298-.284.269-.151.517.023.749.133.179.283.372.472.478 1.098.62 2.253.705 3.42.231.193-.078.337-.204.431-.358-.833.106-1.693.025-2.479-.232" fill="#ef447e" transform="matrix(5.55556 0 0 5.55556 155.86328916 8.83266224)"/><g fill="#231f20"><path d="m0 4.782c.515-.333 1.008-.707 1.547-.993 3-1.587 6.119-2.89 9.379-3.843.241-.07.493-.112.742-.129.062-.004.157.137.19.228.015.042-.072.134-.129.185-.037.034-.103.043-.158.054-2.531.528-4.884 1.563-7.233 2.593-1.288.564-2.52 1.259-3.777 1.892-.143.073-.291.134-.436.2z" transform="matrix(5.55556 0 0 5.55556 59.2465452 64.1993732)"/><path d="m0-1.957c.258.077.555.098.767.241.605.41 1.18.863 1.752 1.319.082.065.081.236.118.358-.124-.005-.285.039-.366-.022-.778-.588-1.542-1.194-2.31-1.795.013-.034.026-.068.039-.101" transform="matrix(5.55556 0 0 5.55556 74.84655768 69.6715998)"/></g></g></svg>