<svg clip-rule="evenodd" fill-rule="evenodd" stroke-linejoin="round" stroke-miterlimit="2" viewBox="0 0 182 150" xmlns="http://www.w3.org/2000/svg"><g fill-rule="nonzero"><path d="m0-20.818c-.235-.469-.388-.832-.591-1.166-.471-.772-1.165-1.211-2.071-1.3-.435-.043-.786.122-1.001.5-.44.773-.5 1.821.554 2.414.27.153.563.264.84.404.292.148.53.157.706-.18.037-.071.178-.088.271-.13.024.1.089.211.065.298-.23.844-.504 1.677-.709 2.527-.322 1.344-.624 2.693-.89 4.048-.406 2.075-.822 4.15-1.142 6.239-.217 1.42-.311 2.861-.397 4.296-.097 1.621.287 1.625-1.602 1.612-.604-.004-1.106.204-1.546.588-.921.807-.773 1.606.368 2.021.053.019.105.046.16.056 1.605.298 2.299-.012 2.902-1.331.036-.077.062-.158.093-.237.309-.782.304-.773 1.017-.408.351.18.715.345 1.088.472 2.074.704 4.204 1.07 6.4 1.101 1.213.018 2.426.117 3.636.218 2.632.219 5.249.243 7.823-.471.408-.113.81-.249 1.22-.353.092-.024.246.006.297.07.05.063.046.246-.009.298-.285.268-.151.518.022.749.134.179.284.372.473.478 1.097.62 2.253.706 3.419.231.526-.214.697-.775.431-1.278-.306-.578-.739-.994-1.455-.999-.453-.005-.906-.021-1.356-.068-.561-.058-.7-.259-.519-.795.225-.668.501-1.319.746-1.98.136-.368.319-.736.367-1.117.14-1.119.281-2.244.317-3.369.092-2.909.123-5.819.188-8.728.018-.798-.055-1.576-.309-2.337-.098-.292-.159-.6-.206-.904-.014-.088.056-.243.128-.274.076-.032.219.021.298.082.085.065.147.175.186.279.107.281.325.27.559.241 1.695-.217 2.807-1.628 2.582-3.18-.117-.801-.442-1.07-1.261-.98-1.357.149-2.674 1.283-3.024 2.603-.103.39-.318.509-.573.262-.523-.509-1.21-.615-1.854-.736-1.441-.274-2.897-.485-4.375-.424-.282.012-.564-.027-.847-.035-2.316-.079-4.632-.181-6.949-.223-.844-.016-1.698.061-2.533.187-.653.098-1.35.151-1.937.729m19.046 20.051c.682.091 1.215.135 1.737.236.935.181 1.702 1.109 1.672 1.974-.019.553-.234 1.004-.759 1.219-1.363.564-2.71.508-3.973-.269-.292-.18-.509-.525-.685-.836-.183-.322-.363-.434-.742-.344-.822.196-1.655.351-2.489.493-.472.08-.952.131-1.43.143-2.377.061-4.747-.071-7.112-.302-.393-.039-.791-.04-1.186-.049-2.515-.053-4.937-.512-7.221-1.605-.071-.034-.16-.034-.28-.057-.146.303-.279.613-.44.906-.457.828-1.109 1.316-2.113 1.287-.747-.023-1.464-.071-2.095-.535-.618-.456-.806-1.005-.479-1.699.412-.876 1.119-1.403 2.086-1.543.334-.049.679-.076 1.014-.05.388.028.47-.139.499-.488.145-1.714.263-3.433.492-5.137.354-2.629.84-5.236 1.543-7.799.35-1.278.615-2.578.924-3.867.069-.286-.036-.4-.318-.462-.356-.08-.719-.176-1.043-.336-1.348-.668-1.586-2.577-.452-3.569.672-.588 1.431-.443 2.151-.137.691.294 1.217.797 1.581 1.475.296.552.322.551.898.363 1.004-.331 2.044-.442 3.089-.467 1.385-.035 2.772-.043 4.157-.017 1.949.037 3.906.022 5.842.211 1.363.133 2.751.274 4.065.761.71.262.712.213 1.155-.358.293-.378.603-.75.948-1.08.663-.634 1.474-.923 2.392-.908.678.012 1.024.263 1.247.923.571 1.69-.475 3.437-1.79 3.932-.343.128-.699.223-1.052.324-.243.068-.375.15-.329.467.291 1.995.212 3.997.087 6.001-.053.844-.038 1.695-.033 2.543.008 1.216-.081 2.424-.283 3.626-.061.358-.06.732-.047 1.098.024.696-.162 1.333-.443 1.962-.275.615-.501 1.251-.785 1.97" fill="#231f20" transform="matrix(5.55556 0 0 5.55556 48.37166504 132.52154408)"/><path d="m0-5.912c-.013.034-.026.068-.039.102.768.6 1.532 1.207 2.31 1.794.081.062.242.018.366.023-.037-.122-.036-.293-.118-.358-.572-.456-1.147-.909-1.752-1.319-.212-.144-.509-.165-.767-.242m-2.807 5.755c.041.062.083.125.124.186.146-.065.294-.127.436-.199 1.258-.634 2.49-1.328 3.778-1.892 2.349-1.03 4.702-2.065 7.233-2.593.055-.012.121-.02.158-.054.057-.052.144-.143.129-.185-.033-.091-.128-.232-.19-.228-.249.017-.502.059-.742.129-3.26.953-6.379 2.255-9.379 3.843-.539.286-1.032.66-1.547.993m-1.959-13.304c.588-.578 1.284-.631 1.937-.729.835-.126 1.689-.202 2.533-.187 2.317.042 4.633.144 6.949.223.283.009.566.047.847.035 1.479-.061 2.935.15 4.375.424.644.121 1.331.227 1.854.736.255.247.47.128.573-.262.35-1.32 1.667-2.454 3.025-2.603.819-.09 1.143.18 1.26.98.225 1.552-.886 2.963-2.581 3.18-.235.029-.453.04-.56-.241-.039-.104-.101-.214-.185-.278-.079-.062-.222-.115-.299-.083-.071.031-.141.186-.128.274.048.305.109.612.206.904.254.761.328 1.539.31 2.337-.065 2.909-.097 5.819-.189 8.728-.036 1.126-.176 2.25-.316 3.369-.048.382-.232.749-.368 1.117-.245.661-.521 1.313-.746 1.98-.18.537-.042.737.519.795.45.047.904.063 1.356.068.716.006 1.15.422 1.455.999.267.503.096 1.064-.43 1.278-1.167.475-2.322.389-3.42-.23-.189-.107-.339-.3-.472-.479-.174-.231-.307-.48-.023-.749.055-.052.059-.235.01-.298-.051-.064-.205-.093-.297-.07-.41.104-.812.24-1.221.353-2.573.714-5.19.69-7.822.471-1.21-.1-2.424-.2-3.636-.218-2.196-.031-4.326-.397-6.4-1.101-.374-.127-.737-.292-1.088-.472-.714-.365-.709-.374-1.018.408-.031.079-.057.161-.092.238-.604 1.318-1.298 1.629-2.902 1.33-.056-.01-.107-.036-.161-.056-1.141-.415-1.289-1.214-.367-2.02.439-.385.942-.593 1.545-.588 1.889.012 1.505.008 1.602-1.613.087-1.435.18-2.876.398-4.296.319-2.088.735-4.164 1.142-6.239.265-1.355.568-2.704.89-4.048.204-.85.479-1.683.709-2.527.024-.087-.041-.198-.065-.298-.093.042-.235.059-.272.13-.176.337-.413.328-.706.18-.277-.14-.57-.251-.84-.404-1.054-.592-.994-1.641-.554-2.414.215-.378.566-.543 1.002-.5.905.089 1.6.528 2.07 1.3.203.334.357.697.591 1.166" fill="#ffdd7e" transform="matrix(5.55556 0 0 5.55556 74.84390844 91.64928916)"/><path d="m0 23.899c-.411-.134-.817-.314-1.137-.611-.252-.235-.415-.526-.562-.833-.146-.308-.296-.586-.578-.79-.221-.162-.491-.219-.757-.255-.752-.105-1.528-.039-2.281.02-.726.059-1.446.103-2.173.133-1.181.05-2.364.106-3.547.082-1.078-.021-2.143-.124-3.208-.293-1.672-.266-3.418-.623-4.861-1.557-.688-.445-1.361-1.066-1.678-1.838-.355-.865-.28-1.824-.115-2.722.183-.997.424-1.989.642-2.98.259-1.184.539-2.363.842-3.537.15-.582.306-1.162.467-1.741.088-.314.169-.621.302-.918.282-.628.611-1.232.875-1.868.119-.286.238-.584.292-.89.035-.202.049-.351-.127-.469-.245-.163-.543-.259-.819-.358-.355-.127-.714-.241-1.07-.368-.672-.24-1.285-.522-1.726-1.11-.432-.577-.483-1.255-.417-1.94-.123-.028-.241-.064-.374-.077-.436-.043-.787.122-1.002.5-.44.773-.5 1.821.554 2.414.27.152.563.264.84.403.293.149.53.158.706-.179.037-.072.179-.088.272-.13.024.1.089.211.065.298-.23.843-.505 1.677-.709 2.527-.322 1.344-.625 2.692-.89 4.048-.407 2.075-.823 4.15-1.142 6.239-.218 1.42-.312 2.861-.398 4.296-.098 1.621.287 1.625-1.602 1.612-.603-.004-1.106.204-1.545.588-.922.807-.774 1.606.367 2.021.054.019.105.046.16.055 1.605.299 2.299-.011 2.903-1.33.035-.077.061-.158.092-.237.309-.782.304-.773 1.018-.408.351.18.714.345 1.088.472 2.074.704 4.204 1.07 6.4 1.101 1.212.018 2.426.117 3.636.218 2.632.219 5.249.243 7.822-.471.409-.113.811-.249 1.221-.353.091-.024.246.006.297.07.049.062.045.246-.01.298-.284.268-.151.517.023.749.133.179.283.372.472.478 1.098.62 2.253.705 3.42.231.193-.079.337-.205.431-.358-.833.106-1.693.024-2.479-.232" fill="#fec148" transform="matrix(5.55556 0 0 5.55556 155.86063992 8.8381118)"/><g fill="#231f20"><path d="m0 4.782c.515-.333 1.008-.707 1.547-.993 3-1.588 6.119-2.89 9.379-3.843.241-.07.493-.112.742-.129.062-.004.157.137.19.228.015.042-.072.133-.129.185-.037.034-.103.042-.158.054-2.531.528-4.884 1.563-7.233 2.593-1.288.564-2.52 1.259-3.777 1.892-.143.073-.291.134-.436.2-.042-.062-.083-.125-.125-.187" transform="matrix(5.55556 0 0 5.55556 59.24945152 64.21037832)"/><path d="m0-1.958c.258.077.555.098.767.242.605.41 1.18.863 1.752 1.319.082.065.081.236.118.358-.124-.005-.285.039-.366-.023-.778-.587-1.542-1.194-2.31-1.794.013-.034.026-.068.039-.102" transform="matrix(5.55556 0 0 5.55556 74.84390844 69.68260492)"/></g></g></svg>