<?xml version="1.0" encoding="UTF-8" standalone="no"?>
<!DOCTYPE svg PUBLIC "-//W3C//DTD SVG 1.1//EN" "http://www.w3.org/Graphics/SVG/1.1/DTD/svg11.dtd">
<svg width="100%" height="100%" viewBox="0 0 174 180" version="1.1" xmlns="http://www.w3.org/2000/svg" xmlns:xlink="http://www.w3.org/1999/xlink" xml:space="preserve" xmlns:serif="http://www.serif.com/" style="fill-rule:evenodd;clip-rule:evenodd;stroke-linejoin:round;stroke-miterlimit:2;">
    <g transform="matrix(1,0,0,1,-8490.05,-12490.7)">
        <g transform="matrix(5.55556,0,0,5.55556,7263.77,9566.93)">
            <g transform="matrix(1,0,0,1,223.913,551.645)">
                <path d="M0,-21.207C0,-21.235 -0.001,-21.265 0,-21.293C0.029,-21.744 0.059,-22.195 0.089,-22.646C0.538,-22.729 0.985,-22.826 1.436,-22.894C3.373,-23.184 5.311,-23.468 7.249,-23.748C7.763,-23.822 8.278,-23.895 8.795,-23.931C10.119,-24.019 11.444,-24.07 12.768,-24.164C14.722,-24.303 16.675,-24.468 18.629,-24.617C19.722,-24.701 20.817,-24.762 21.908,-24.863C22.342,-24.903 22.57,-24.71 22.664,-24.334C22.915,-23.328 23.182,-22.324 23.377,-21.308C23.616,-20.063 23.789,-18.808 23.988,-17.557C24.493,-14.373 24.955,-11.182 25.52,-8.01C25.776,-6.568 26.268,-5.171 26.595,-3.74C26.884,-2.479 27.09,-1.2 27.335,0.07C27.382,0.313 27.298,0.469 27.058,0.518C26.578,0.614 26.1,0.73 25.615,0.783C24.355,0.922 23.094,1.08 21.829,1.136C20.44,1.197 19.081,1.421 17.72,1.671C15.483,2.082 13.238,2.448 11.006,2.884C8.965,3.282 6.902,3.472 4.837,3.664C4.694,3.678 4.55,3.689 4.407,3.691C4.099,3.696 3.918,3.538 3.877,3.237C3.823,2.838 3.816,2.428 3.728,2.037C3.488,0.97 3.178,-0.081 2.965,-1.153C2.422,-3.892 1.907,-6.637 1.398,-9.383C1.125,-10.854 0.849,-12.328 0.647,-13.811C0.504,-14.864 0.495,-15.936 0.405,-16.997C0.339,-17.771 0.238,-18.543 0.153,-19.315C0.084,-19.943 0.016,-20.572 -0.053,-21.2C-0.035,-21.202 -0.018,-21.204 0,-21.207" style="fill:rgb(152,215,215);fill-rule:nonzero;"/>
            </g>
        </g>
        <g transform="matrix(5.55556,0,0,5.55556,7263.77,9566.93)">
            <g transform="matrix(1,0,0,1,234.68,541.849)">
                <path d="M0,-1.446C0.007,-1.446 0.014,-1.445 0.021,-1.444C0.026,-1.401 0.027,-1.357 0.036,-1.315C0.066,-1.157 0.17,-1.086 0.33,-1.108C0.474,-1.129 0.542,-1.232 0.579,-1.352C0.636,-1.534 0.618,-1.721 0.56,-1.899C0.5,-2.081 0.289,-2.12 0.159,-1.979C0.111,-1.925 0.067,-1.858 0.049,-1.79C0.021,-1.678 0.015,-1.561 0,-1.446M2.546,0.784C2.517,0.717 2.49,0.65 2.458,0.585C2.453,0.575 2.425,0.573 2.409,0.575C2.401,0.575 2.388,0.591 2.388,0.601C2.387,0.644 2.392,0.687 2.391,0.731C2.386,1.065 2.254,1.343 2.003,1.559C1.784,1.747 1.509,1.734 1.298,1.537C1.165,1.413 1.071,1.262 0.997,1.097C0.98,1.058 0.963,1.018 0.94,0.982C0.933,0.97 0.906,0.962 0.892,0.966C0.876,0.97 0.855,0.991 0.855,1.003C0.858,1.064 0.854,1.129 0.876,1.183C0.952,1.374 1.058,1.549 1.212,1.689C1.412,1.868 1.643,1.919 1.9,1.829C2.272,1.7 2.577,1.198 2.546,0.784M2.941,-1.726L2.94,-1.726C2.936,-1.769 2.936,-1.813 2.925,-1.855C2.887,-2.013 2.829,-2.164 2.681,-2.255C2.522,-2.352 2.345,-2.276 2.313,-2.092C2.279,-1.897 2.321,-1.712 2.413,-1.538C2.435,-1.496 2.472,-1.459 2.509,-1.425C2.594,-1.349 2.721,-1.334 2.82,-1.387C2.917,-1.44 2.96,-1.524 2.951,-1.633C2.948,-1.665 2.944,-1.695 2.941,-1.726M1.386,0.18C1.735,0.126 2.041,-0.009 2.295,-0.253C2.504,-0.453 2.563,-0.9 2.164,-1.089C1.899,-1.214 1.622,-1.263 1.334,-1.242C1.003,-1.217 0.539,-0.811 0.631,-0.265C0.667,-0.05 0.805,0.116 1.019,0.157C1.138,0.179 1.263,0.173 1.386,0.18M4.234,-3.95C4.327,-3.778 4.42,-3.626 4.493,-3.465C4.681,-3.045 4.931,-2.661 5.166,-2.267C5.357,-1.946 5.583,-1.653 5.856,-1.398C5.983,-1.28 6.12,-1.174 6.256,-1.067C6.339,-1.003 6.357,-0.938 6.333,-0.83C6.264,-0.509 6.181,-0.192 6.065,0.116C5.914,0.514 5.677,0.858 5.406,1.185C4.97,1.712 4.388,1.996 3.767,2.23C3.469,2.342 3.17,2.42 2.852,2.448C2.482,2.481 2.116,2.551 1.747,2.596C1.563,2.618 1.377,2.622 1.191,2.633C1.117,2.638 1.042,2.63 0.969,2.644C0.666,2.698 0.367,2.683 0.065,2.626C-0.269,2.564 -0.604,2.514 -0.93,2.407C-1.383,2.257 -1.754,1.985 -2.104,1.676C-2.589,1.247 -2.882,0.689 -3.132,0.105C-3.146,0.073 -3.141,0.021 -3.124,-0.011C-3.092,-0.071 -3.049,-0.126 -3.004,-0.176C-2.683,-0.531 -2.457,-0.941 -2.301,-1.389C-2.108,-1.944 -1.915,-2.5 -1.738,-3.06C-1.632,-3.395 -1.534,-3.737 -1.562,-4.096C-1.563,-4.106 -1.553,-4.117 -1.54,-4.144C-1.519,-4.104 -1.499,-4.076 -1.489,-4.045C-1.264,-3.367 -0.745,-3.004 -0.114,-2.76C-0.091,-2.752 -0.067,-2.746 -0.042,-2.742C0.289,-2.699 0.621,-2.647 0.955,-2.673C1.399,-2.707 1.842,-2.766 2.287,-2.805C2.582,-2.832 2.846,-2.958 3.125,-3.037C3.386,-3.112 3.612,-3.25 3.823,-3.415C3.976,-3.535 4.1,-3.679 4.179,-3.86C4.191,-3.885 4.209,-3.909 4.234,-3.95" style="fill:rgb(197,173,212);fill-rule:nonzero;"/>
            </g>
        </g>
        <g transform="matrix(5.55556,0,0,5.55556,7263.77,9566.93)">
            <g transform="matrix(1,0,0,1,240.936,541.393)">
                <path d="M0,-0.611C-0.136,-0.717 -0.273,-0.824 -0.4,-0.942C-0.673,-1.197 -0.899,-1.49 -1.091,-1.811C-1.325,-2.205 -1.576,-2.589 -1.764,-3.008C-1.836,-3.17 -1.93,-3.322 -2.022,-3.494C-2.047,-3.453 -2.065,-3.429 -2.077,-3.404C-2.157,-3.223 -2.28,-3.079 -2.434,-2.959C-2.644,-2.794 -2.87,-2.656 -3.131,-2.581C-3.41,-2.502 -3.675,-2.376 -3.97,-2.349C-4.415,-2.31 -4.857,-2.251 -5.302,-2.216C-5.5,-2.202 -5.698,-2.215 -5.896,-2.236C-5.717,-2.152 -5.535,-2.079 -5.349,-2.015C-5.142,-1.946 -4.929,-1.903 -4.71,-1.883C-3.807,-1.802 -2.936,-2.11 -2.064,-2.298C-2.043,-2.301 -2.025,-2.288 -2.017,-2.27C-1.995,-2.22 -1.974,-2.171 -1.954,-2.121C-1.776,-1.683 -1.657,-1.221 -1.588,-0.756C-1.515,-0.263 -1.498,0.242 -1.568,0.736C-1.634,1.196 -1.783,1.656 -2.06,2.035C-2.345,2.425 -2.765,2.692 -3.208,2.871C-3.218,2.875 -3.229,2.878 -3.238,2.883C-2.981,2.846 -2.734,2.779 -2.489,2.686C-1.868,2.452 -1.286,2.168 -0.85,1.641C-0.579,1.314 -0.342,0.97 -0.191,0.572C-0.075,0.264 0.008,-0.052 0.077,-0.374C0.101,-0.482 0.083,-0.547 0,-0.611" style="fill:rgb(180,146,196);fill-rule:nonzero;"/>
            </g>
        </g>
        <g transform="matrix(5.55556,0,0,5.55556,7263.77,9566.93)">
            <g transform="matrix(1,0,0,1,237.028,542.3)">
                <path d="M0,-1.402C0.185,-1.184 0.115,-0.864 -0.053,-0.704C-0.308,-0.46 -0.613,-0.325 -0.962,-0.271C-1.085,-0.278 -1.21,-0.272 -1.33,-0.295C-1.383,-0.305 -1.433,-0.324 -1.476,-0.348C-1.469,-0.311 -1.455,-0.274 -1.426,-0.242C-1.346,-0.15 -1.222,-0.103 -1.108,-0.072C-0.843,0 -0.547,0 -0.282,-0.069C-0.163,-0.101 -0.042,-0.15 0.052,-0.232C0.112,-0.284 0.156,-0.351 0.197,-0.418C0.25,-0.502 0.296,-0.591 0.326,-0.686C0.371,-0.831 0.377,-0.99 0.304,-1.127C0.238,-1.251 0.124,-1.339 0,-1.402" style="fill:rgb(180,146,196);fill-rule:nonzero;"/>
            </g>
        </g>
        <g transform="matrix(5.55556,0,0,5.55556,7263.77,9566.93)">
            <g transform="matrix(1,0,0,1,238.303,534.8)">
                <path d="M0,9.496C0.188,9.42 0.376,9.342 0.566,9.27C0.852,9.162 1.116,9.012 1.362,8.834C1.671,8.611 1.913,8.318 2.136,8.013C2.468,7.559 2.65,7.042 2.762,6.497C2.776,6.431 2.781,6.362 2.789,6.295C2.802,6.177 2.801,6.176 2.944,6.181C2.925,6.143 2.917,6.108 2.895,6.086C2.794,5.985 2.696,5.881 2.586,5.791C2.222,5.495 1.916,5.149 1.679,4.744C1.507,4.45 1.326,4.162 1.163,3.863C1.012,3.587 0.878,3.302 0.736,3.02C0.693,2.935 0.68,2.85 0.691,2.753C0.719,2.507 0.742,2.261 0.753,2.015C0.771,1.629 0.63,1.292 0.374,1.017C0.201,0.832 -0.036,0.72 -0.278,0.635C-0.4,0.592 -0.525,0.554 -0.65,0.52C-1.059,0.411 -1.448,0.442 -1.8,0.7C-1.964,0.821 -2.127,0.945 -2.291,1.067C-2.55,1.26 -2.646,1.535 -2.684,1.838C-2.753,2.381 -2.517,2.786 -2.095,3.099C-1.895,3.247 -1.66,3.304 -1.413,3.304C-1.271,3.304 -1.142,3.249 -1.044,3.151C-0.936,3.042 -0.831,2.926 -0.747,2.798C-0.609,2.59 -0.628,2.361 -0.708,2.138C-0.788,1.913 -0.981,1.846 -1.191,1.815C-1.488,1.773 -1.759,1.953 -1.831,2.23C-1.877,2.406 -1.81,2.537 -1.635,2.591C-1.578,2.608 -1.513,2.613 -1.453,2.609C-1.278,2.596 -1.242,2.543 -1.269,2.337C-1.305,2.369 -1.332,2.397 -1.364,2.421C-1.436,2.474 -1.555,2.475 -1.625,2.424C-1.685,2.381 -1.686,2.318 -1.671,2.256C-1.641,2.128 -1.489,1.995 -1.353,1.974C-0.983,1.917 -0.721,2.204 -0.821,2.566C-0.885,2.797 -1.037,2.973 -1.238,3.093C-1.357,3.164 -1.5,3.157 -1.637,3.126C-1.841,3.079 -2.016,2.981 -2.167,2.835C-2.562,2.453 -2.609,2.011 -2.441,1.522C-2.405,1.416 -2.327,1.311 -2.241,1.239C-2.042,1.072 -1.832,0.918 -1.617,0.772C-1.378,0.609 -1.102,0.591 -0.83,0.644C-0.483,0.713 -0.149,0.826 0.146,1.034C0.24,1.1 0.318,1.174 0.373,1.273C0.409,1.339 0.443,1.405 0.481,1.469C0.58,1.635 0.611,1.812 0.595,2.003C0.58,2.182 0.59,2.364 0.556,2.539C0.518,2.729 0.512,2.929 0.422,3.109C0.361,3.233 0.289,3.346 0.187,3.439C-0.025,3.637 -0.268,3.78 -0.544,3.867C-0.585,3.88 -0.627,3.892 -0.667,3.909C-1.192,4.127 -1.755,4.131 -2.307,4.197C-2.722,4.247 -3.137,4.231 -3.546,4.168C-3.731,4.14 -3.916,4.058 -4.08,3.964C-4.261,3.86 -4.429,3.727 -4.583,3.586C-4.689,3.487 -4.782,3.362 -4.847,3.231C-4.987,2.949 -5.095,2.656 -5.12,2.333C-5.146,1.998 -5.159,1.667 -5.077,1.338C-5.013,1.081 -4.914,0.853 -4.699,0.675C-4.597,0.59 -4.496,0.52 -4.376,0.475C-4.106,0.369 -3.836,0.26 -3.562,0.166C-3.416,0.116 -3.263,0.083 -3.11,0.062C-2.483,-0.024 -1.859,-0.055 -1.227,0.067C-0.653,0.178 -0.118,0.369 0.388,0.653C0.637,0.792 0.9,0.907 1.136,1.064C1.945,1.601 2.592,2.291 3.048,3.152C3.32,3.667 3.443,4.216 3.427,4.797C3.426,4.834 3.424,4.872 3.429,4.908C3.445,5.018 3.419,5.114 3.35,5.203C3.316,5.246 3.287,5.297 3.269,5.348C3.259,5.377 3.276,5.416 3.281,5.45C3.309,5.434 3.345,5.424 3.364,5.4C3.403,5.352 3.431,5.297 3.468,5.247C3.602,5.065 3.763,4.914 3.953,4.791C4.263,4.592 4.598,4.449 4.958,4.371C5.263,4.305 5.434,4.431 5.471,4.741C5.555,5.444 5.134,6.18 4.485,6.459C4.314,6.533 4.142,6.601 3.973,6.678C3.922,6.701 3.834,6.717 3.863,6.8C3.891,6.879 3.964,6.848 4.024,6.837C4.127,6.816 4.23,6.79 4.334,6.783C4.632,6.761 4.875,6.987 4.886,7.286C4.889,7.388 4.847,7.469 4.777,7.533C4.705,7.6 4.627,7.664 4.544,7.716C4.231,7.911 3.888,8.037 3.535,8.132C3.404,8.166 3.268,8.183 3.129,8.153C3.107,8.148 3.067,8.183 3.051,8.209C3.044,8.219 3.072,8.266 3.095,8.278C3.143,8.306 3.199,8.317 3.248,8.343C3.438,8.443 3.453,8.603 3.284,8.736C3.084,8.894 2.854,8.952 2.604,8.925C2.463,8.909 2.324,8.877 2.183,8.855C2.096,8.842 2.075,8.861 2.063,8.947C2.021,9.238 1.852,9.379 1.562,9.387C1.365,9.392 1.168,9.416 0.972,9.438C0.683,9.472 0.394,9.512 0.105,9.547C0.072,9.551 0.038,9.54 0.004,9.535C0.002,9.522 0.001,9.509 0,9.496" style="fill:rgb(244,124,32);fill-rule:nonzero;"/>
            </g>
        </g>
        <g transform="matrix(5.55556,0,0,5.55556,7263.77,9566.93)">
            <g transform="matrix(1,0,0,1,236.356,537.964)">
                <path d="M0,-2.157C-0.1,-2.082 -0.199,-2.005 -0.294,-1.925C-0.381,-1.852 -0.458,-1.748 -0.495,-1.641C-0.663,-1.153 -0.616,-0.711 -0.221,-0.329C-0.069,-0.182 0.105,-0.085 0.31,-0.038C0.446,-0.007 0.589,0 0.708,-0.071C0.838,-0.149 0.945,-0.253 1.023,-0.377C0.923,-0.285 0.797,-0.217 0.665,-0.181C0.51,-0.14 0.342,-0.145 0.195,-0.213C0.049,-0.279 -0.083,-0.378 -0.182,-0.505C-0.366,-0.74 -0.409,-1.05 -0.365,-1.338C-0.319,-1.636 -0.186,-1.921 0,-2.157" style="fill:rgb(249,157,58);fill-rule:nonzero;"/>
            </g>
        </g>
        <g transform="matrix(5.55556,0,0,5.55556,7263.77,9566.93)">
            <g transform="matrix(1,0,0,1,238.49,535.836)">
                <path d="M0,2.403C0.102,2.309 0.174,2.197 0.235,2.073C0.325,1.892 0.331,1.693 0.369,1.503C0.403,1.328 0.393,1.145 0.408,0.966C0.421,0.812 0.401,0.667 0.341,0.528C0.381,0.768 0.361,1.019 0.296,1.257C0.197,1.615 -0.065,1.891 -0.366,2.095C-0.685,2.311 -1.05,2.457 -1.417,2.565C-1.765,2.669 -2.115,2.753 -2.479,2.764C-2.843,2.777 -3.218,2.724 -3.55,2.565C-3.868,2.413 -4.128,2.156 -4.278,1.837C-4.39,1.595 -4.417,1.315 -4.42,1.052C-4.425,0.725 -4.386,0.395 -4.307,0.077C-4.231,-0.224 -4.121,-0.526 -3.941,-0.781C-3.935,-0.79 -3.928,-0.799 -3.921,-0.808C-4.136,-0.729 -4.35,-0.646 -4.563,-0.562C-4.683,-0.516 -4.784,-0.447 -4.886,-0.362C-5.101,-0.183 -5.2,0.045 -5.264,0.301C-5.346,0.631 -5.333,0.962 -5.307,1.297C-5.282,1.62 -5.174,1.913 -5.034,2.195C-4.969,2.326 -4.876,2.451 -4.77,2.549C-4.616,2.691 -4.448,2.824 -4.267,2.927C-4.103,3.021 -3.918,3.103 -3.733,3.132C-3.324,3.195 -2.909,3.211 -2.494,3.161C-1.942,3.094 -1.379,3.09 -0.854,2.873C-0.814,2.856 -0.772,2.843 -0.731,2.831C-0.455,2.744 -0.212,2.6 0,2.403" style="fill:rgb(249,157,58);fill-rule:nonzero;"/>
            </g>
        </g>
        <g transform="matrix(5.55556,0,0,5.55556,7263.77,9566.93)">
            <g transform="matrix(1,0,0,1,234.919,535.916)">
                <path d="M0,8.778C-0.042,8.791 -0.078,8.81 -0.116,8.813C-0.4,8.838 -0.684,8.857 -0.968,8.883C-1.159,8.901 -1.351,8.917 -1.538,8.954C-1.847,9.015 -2.022,8.927 -2.142,8.623C-2.168,8.555 -2.211,8.543 -2.274,8.568C-2.4,8.619 -2.524,8.676 -2.652,8.72C-2.917,8.81 -3.177,8.802 -3.423,8.662C-3.553,8.589 -3.572,8.466 -3.481,8.349C-3.456,8.316 -3.42,8.289 -3.386,8.262C-3.357,8.239 -3.316,8.227 -3.295,8.199C-3.277,8.174 -3.27,8.133 -3.274,8.103C-3.276,8.091 -3.329,8.074 -3.352,8.081C-3.907,8.229 -4.428,8.085 -4.945,7.903C-4.963,7.897 -4.979,7.886 -4.995,7.878C-5.219,7.759 -5.281,7.653 -5.254,7.436C-5.229,7.229 -5.074,7.046 -4.873,7.005C-4.771,6.984 -4.664,6.984 -4.559,6.977C-4.522,6.975 -4.482,6.99 -4.449,6.98C-4.412,6.969 -4.363,6.945 -4.352,6.915C-4.333,6.865 -4.381,6.841 -4.425,6.829C-4.461,6.82 -4.498,6.813 -4.534,6.806C-4.698,6.775 -4.862,6.743 -5.026,6.713C-5.523,6.62 -5.883,6.342 -6.121,5.902C-6.241,5.678 -6.352,5.452 -6.36,5.188C-6.368,4.932 -6.253,4.776 -5.995,4.774C-5.313,4.77 -4.679,4.916 -4.176,5.422C-4.149,5.448 -4.085,5.481 -4.074,5.472C-4.027,5.43 -4.061,5.383 -4.09,5.342C-4.094,5.338 -4.098,5.332 -4.103,5.329C-4.337,5.163 -4.348,4.899 -4.391,4.653C-4.468,4.204 -4.474,3.754 -4.354,3.31C-4.24,2.884 -4.087,2.473 -3.883,2.082C-3.632,1.599 -3.296,1.179 -2.935,0.779C-2.807,0.637 -2.655,0.517 -2.509,0.393C-2.311,0.224 -2.109,0.061 -1.907,-0.102C-1.84,-0.156 -1.768,-0.202 -1.674,-0.237C-1.685,-0.206 -1.693,-0.175 -1.706,-0.145C-1.868,0.232 -1.927,0.626 -1.895,1.033C-1.888,1.113 -1.882,1.194 -1.871,1.273C-1.857,1.373 -1.871,1.467 -1.887,1.567C-1.916,1.737 -1.921,1.911 -1.931,2.083C-1.944,2.317 -2.11,2.902 -2.221,3.111C-2.252,3.171 -2.269,3.238 -2.285,3.303C-2.413,3.828 -2.594,4.335 -2.801,4.832C-2.926,5.13 -3.108,5.396 -3.307,5.651C-3.402,5.772 -3.483,5.905 -3.566,6.035C-3.579,6.054 -3.567,6.09 -3.566,6.118C-3.545,6.112 -3.521,6.109 -3.501,6.098C-3.43,6.059 -3.434,6.128 -3.42,6.158C-3.332,6.355 -3.253,6.557 -3.159,6.751C-2.904,7.275 -2.509,7.675 -2.052,8.03C-1.539,8.428 -0.946,8.594 -0.32,8.687C-0.223,8.701 -0.125,8.718 -0.028,8.736C-0.021,8.738 -0.016,8.755 0,8.778" style="fill:rgb(244,124,32);fill-rule:nonzero;"/>
            </g>
        </g>
        <g transform="matrix(5.55556,0,0,5.55556,7263.77,9566.93)">
            <g transform="matrix(1,0,0,1,231.741,535.719)">
                <path d="M0,8.917C-0.019,8.757 0.042,8.628 0.143,8.507C0.231,8.4 0.347,8.304 0.408,8.178C0.199,8.116 -0.036,8.14 -0.25,8.143C-0.463,8.146 -0.692,8.15 -0.896,8.075C-0.981,8.043 -1.065,7.995 -1.125,7.925C-1.174,7.865 -1.22,7.785 -1.211,7.705C-1.195,7.558 -1.009,7.504 -0.89,7.471C-0.74,7.431 -0.582,7.413 -0.434,7.364C-0.603,7.167 -0.851,7.048 -1.073,6.925C-1.234,6.835 -1.382,6.729 -1.53,6.62C-1.686,6.506 -1.84,6.388 -1.986,6.259C-2.107,6.151 -2.237,6.034 -2.317,5.891C-2.372,5.795 -2.39,5.663 -2.343,5.56C-2.304,5.476 -2.216,5.446 -2.129,5.448C-2.011,5.451 -1.895,5.497 -1.788,5.543C-1.654,5.602 -1.526,5.673 -1.4,5.747C-1.284,5.816 -1.169,5.89 -1.056,5.965C-1.003,5.999 -0.951,6.035 -0.896,6.068C-0.812,5.472 -0.718,4.878 -0.608,4.285C-0.559,4.017 -0.506,3.748 -0.451,3.48C-0.402,3.248 -0.354,3.014 -0.295,2.783C-0.194,2.39 -0.04,2.009 0.163,1.656C0.449,1.162 0.848,0.719 1.343,0.442C1.375,0.311 1.417,0.181 1.472,0.053C1.484,0.022 1.494,-0.009 1.504,-0.039C1.41,-0.005 1.338,0.042 1.271,0.096C1.069,0.259 0.867,0.422 0.668,0.591C0.522,0.715 0.371,0.835 0.243,0.977C-0.119,1.377 -0.455,1.797 -0.706,2.279C-0.91,2.671 -1.062,3.082 -1.177,3.508C-1.296,3.951 -1.29,4.401 -1.213,4.851C-1.17,5.097 -1.16,5.36 -0.925,5.526C-0.92,5.529 -0.916,5.535 -0.913,5.54C-0.883,5.581 -0.85,5.628 -0.896,5.67C-0.908,5.679 -0.972,5.646 -0.998,5.619C-1.501,5.113 -2.136,4.968 -2.817,4.972C-3.075,4.974 -3.19,5.13 -3.183,5.386C-3.174,5.649 -3.063,5.876 -2.943,6.1C-2.705,6.54 -2.345,6.817 -1.849,6.91C-1.685,6.94 -1.521,6.973 -1.356,7.004C-1.32,7.011 -1.283,7.018 -1.248,7.026C-1.203,7.038 -1.155,7.063 -1.174,7.112C-1.186,7.143 -1.234,7.167 -1.271,7.178C-1.305,7.188 -1.345,7.173 -1.381,7.175C-1.486,7.182 -1.593,7.182 -1.695,7.202C-1.896,7.243 -2.051,7.427 -2.077,7.634C-2.104,7.851 -2.041,7.957 -1.817,8.075C-1.801,8.084 -1.785,8.095 -1.768,8.101C-1.25,8.282 -0.729,8.427 -0.174,8.278C-0.151,8.271 -0.099,8.289 -0.097,8.301C-0.092,8.331 -0.099,8.372 -0.118,8.396C-0.139,8.425 -0.179,8.437 -0.208,8.46C-0.242,8.486 -0.278,8.514 -0.304,8.547C-0.395,8.664 -0.375,8.786 -0.246,8.859C-0.163,8.906 -0.078,8.938 0.008,8.956C0.005,8.943 0.001,8.931 0,8.917" style="fill:rgb(249,157,58);fill-rule:nonzero;"/>
            </g>
        </g>
        <g transform="matrix(5.55556,0,0,5.55556,7263.77,9566.93)">
            <g transform="matrix(1,0,0,1,236.613,531.77)">
                <path d="M0,2.847C-0.035,2.612 0.067,2.43 0.208,2.256C0.564,1.817 0.952,1.41 1.409,1.073C1.423,1.062 1.433,1.046 1.459,1.015C1.368,0.984 1.295,1.003 1.23,1.043C1.141,1.099 1.05,1.155 0.972,1.225C0.595,1.566 0.226,1.913 -0.04,2.355C-0.045,2.364 -0.06,2.368 -0.07,2.373C-0.081,2.368 -0.095,2.368 -0.103,2.36C-0.266,2.217 -0.265,2.217 -0.188,2.011C-0.145,1.895 -0.103,1.779 -0.067,1.66C0.11,1.071 0.412,0.548 0.775,0.057C0.974,-0.214 1.18,-0.475 1.451,-0.679C1.688,-0.858 1.947,-0.983 2.249,-0.999C2.522,-1.012 2.778,-0.958 3.003,-0.791C3.175,-0.662 3.272,-0.491 3.317,-0.283C3.397,0.087 3.362,0.443 3.208,0.787C3.126,0.968 3.05,1.151 2.975,1.334C2.894,1.532 2.86,1.74 2.876,1.951C2.897,2.204 2.925,2.457 2.958,2.709C2.976,2.85 3.016,2.988 3.037,3.127C3.07,3.346 2.99,3.543 2.89,3.729C2.824,3.853 2.778,3.859 2.65,3.793C2.435,3.684 2.218,3.577 2.007,3.46C1.429,3.14 0.804,2.976 0.155,2.887C0.112,2.881 0.07,2.873 0.027,2.865C0.017,2.862 0.007,2.852 0,2.847" style="fill:rgb(191,219,129);fill-rule:nonzero;"/>
            </g>
        </g>
        <g transform="matrix(5.55556,0,0,5.55556,7263.77,9566.93)">
            <g transform="matrix(1,0,0,1,234.542,533.056)">
                <path d="M0,1.789C-0.176,1.862 -0.339,1.937 -0.507,1.998C-1.039,2.19 -1.494,2.506 -1.92,2.87C-2.085,3.011 -2.254,3.145 -2.423,3.281C-2.505,3.348 -2.538,3.35 -2.616,3.28C-2.764,3.149 -2.855,2.979 -2.905,2.793C-2.934,2.687 -2.937,2.571 -2.932,2.461C-2.918,2.112 -2.983,1.771 -3.022,1.428C-3.024,1.41 -3.033,1.393 -3.037,1.375C-3.098,1.129 -3.232,0.923 -3.377,0.721C-3.493,0.56 -3.6,0.394 -3.708,0.228C-3.89,-0.055 -3.933,-0.373 -3.905,-0.698C-3.877,-1.015 -3.687,-1.233 -3.415,-1.376C-3.119,-1.532 -2.802,-1.561 -2.478,-1.475C-2.23,-1.408 -2.001,-1.298 -1.796,-1.145C-1.374,-0.828 -0.978,-0.48 -0.653,-0.064C-0.448,0.198 -0.28,0.489 -0.097,0.768C-0.045,0.846 -0.003,0.929 0.054,1.002C0.11,1.074 0.108,1.133 0.048,1.198C0.016,1.234 -0.01,1.275 -0.042,1.318C-0.402,0.947 -0.822,0.675 -1.256,0.424C-1.352,0.368 -1.457,0.327 -1.56,0.285C-1.635,0.256 -1.715,0.246 -1.81,0.289C-1.786,0.311 -1.771,0.335 -1.749,0.345C-1.251,0.573 -0.8,0.877 -0.374,1.218C-0.104,1.434 -0.107,1.437 0,1.789" style="fill:rgb(191,219,129);fill-rule:nonzero;"/>
            </g>
        </g>
        <g transform="matrix(5.55556,0,0,5.55556,7263.77,9566.93)">
            <g transform="matrix(1,0,0,1,234.252,549.217)">
                <path d="M0,-1.799C0.243,-1.512 0.509,-1.536 0.791,-1.624C0.932,-1.668 1.078,-1.694 1.222,-1.727C1.315,-1.748 1.393,-1.72 1.457,-1.65C1.741,-1.336 2.096,-1.362 2.453,-1.462C2.617,-1.508 2.77,-1.529 2.941,-1.515C3.104,-1.501 3.276,-1.523 3.436,-1.561C3.621,-1.605 3.774,-1.715 3.868,-1.888C3.92,-1.986 3.999,-2.033 4.107,-2.032C4.243,-2.031 4.378,-2.028 4.514,-2.025C4.563,-2.024 4.613,-2.009 4.661,-2.012C4.989,-2.038 5.029,-2.028 5.267,-2.326C5.346,-2.218 5.376,-2.094 5.41,-1.974C5.514,-1.612 5.515,-1.266 5.293,-0.927C5.111,-0.651 4.881,-0.435 4.615,-0.251C4.231,0.013 3.818,0.222 3.379,0.379C3.058,0.493 2.729,0.527 2.393,0.477C1.807,0.39 1.246,0.227 0.72,-0.051C0.484,-0.175 0.303,-0.361 0.137,-0.561C-0.052,-0.791 -0.062,-1.075 -0.061,-1.354C-0.061,-1.487 -0.026,-1.621 0,-1.799" style="fill:rgb(0,174,92);fill-rule:nonzero;"/>
            </g>
        </g>
        <g transform="matrix(5.55556,0,0,5.55556,7263.77,9566.93)">
            <g transform="matrix(1,0,0,1,233.368,551.755)">
                <path d="M0,-0.528C0.05,-0.533 0.081,-0.538 0.111,-0.54C0.444,-0.556 0.652,-0.75 0.802,-1.027C0.862,-1.138 0.854,-1.24 0.773,-1.336C0.738,-1.378 0.702,-1.421 0.661,-1.459C0.369,-1.73 0.005,-1.812 -0.376,-1.837C-0.424,-1.84 -0.493,-1.813 -0.521,-1.776C-0.646,-1.614 -0.743,-1.433 -0.785,-1.231C-0.817,-1.081 -0.787,-0.934 -0.69,-0.811C-0.509,-0.581 -0.287,-0.447 0,-0.528M0.208,1.547C-0.213,1.583 -0.628,1.507 -1.008,1.284C-1.302,1.113 -1.587,0.926 -1.829,0.681C-1.999,0.509 -2.106,0.303 -2.19,0.082C-2.204,0.048 -2.213,0.01 -2.213,-0.026C-2.221,-0.591 -2.083,-1.093 -1.59,-1.44C-1.408,-1.568 -1.236,-1.711 -1.05,-1.833C-0.706,-2.059 -0.334,-2.111 0.068,-2.009C0.448,-1.915 0.779,-1.739 1.102,-1.522C1.361,-1.347 1.6,-1.157 1.809,-0.926C1.939,-0.782 2.038,-0.621 2.102,-0.436C2.13,-0.353 2.123,-0.284 2.084,-0.206C1.918,0.132 1.684,0.417 1.419,0.681C1.28,0.821 1.139,0.961 0.99,1.091C0.845,1.216 0.691,1.331 0.538,1.446C0.434,1.523 0.407,1.527 0.208,1.547" style="fill:rgb(191,219,129);fill-rule:nonzero;"/>
            </g>
        </g>
        <g transform="matrix(5.55556,0,0,5.55556,7263.77,9566.93)">
            <g transform="matrix(1,0,0,1,241.177,550.87)">
                <path d="M0,-0.472C0.263,-0.451 0.457,-0.592 0.593,-0.831C0.7,-1.019 0.702,-1.208 0.597,-1.395C0.515,-1.541 0.409,-1.669 0.283,-1.781C0.221,-1.835 0.16,-1.86 0.082,-1.827C-0.083,-1.759 -0.25,-1.697 -0.411,-1.619C-0.643,-1.509 -0.798,-1.321 -0.917,-1.097C-0.976,-0.985 -0.957,-0.886 -0.875,-0.79C-0.671,-0.549 -0.427,-0.407 -0.098,-0.461C-0.073,-0.465 -0.049,-0.466 0,-0.472M0.157,-2.055C0.349,-2.088 0.568,-2.055 0.776,-1.965C1.021,-1.861 1.265,-1.752 1.501,-1.632C1.905,-1.427 2.11,-1.073 2.232,-0.651C2.335,-0.299 2.242,0.014 2.061,0.303C1.81,0.706 1.48,1.043 1.083,1.306C0.787,1.503 0.45,1.582 0.101,1.611C0.042,1.616 -0.022,1.599 -0.079,1.578C-0.346,1.477 -0.598,1.344 -0.84,1.193C-1.124,1.016 -1.403,0.832 -1.651,0.607C-1.774,0.496 -1.881,0.365 -1.987,0.237C-2.016,0.203 -2.033,0.142 -2.025,0.099C-2,-0.039 -1.983,-0.186 -1.924,-0.311C-1.775,-0.625 -1.587,-0.912 -1.33,-1.157C-1.146,-1.331 -0.981,-1.528 -0.771,-1.67C-0.5,-1.855 -0.22,-2.028 0.157,-2.055" style="fill:rgb(191,219,129);fill-rule:nonzero;"/>
            </g>
        </g>
        <g transform="matrix(5.55556,0,0,5.55556,7263.77,9566.93)">
            <g transform="matrix(1,0,0,1,234.864,547.864)">
                <path d="M0,-3.021C-0.011,-2.983 -0.016,-2.959 -0.025,-2.936C-0.253,-2.406 -0.4,-1.849 -0.547,-1.293C-0.576,-1.186 -0.622,-1.103 -0.707,-1.032C-0.902,-0.871 -1.09,-0.7 -1.284,-0.537C-1.538,-0.322 -1.836,-0.186 -2.14,-0.062C-2.291,0 -2.444,-0.002 -2.596,-0.043C-3.169,-0.202 -3.478,-0.604 -3.615,-1.161C-3.619,-1.178 -3.62,-1.198 -3.625,-1.215C-3.732,-1.66 -3.531,-1.984 -3.211,-2.255C-2.956,-2.472 -2.649,-2.598 -2.328,-2.669C-1.888,-2.766 -1.442,-2.843 -0.997,-2.912C-0.674,-2.961 -0.347,-2.984 0,-3.021" style="fill:rgb(197,173,212);fill-rule:nonzero;"/>
            </g>
        </g>
        <g transform="matrix(5.55556,0,0,5.55556,7263.77,9566.93)">
            <g transform="matrix(1,0,0,1,238.374,546.774)">
                <path d="M0,-2.306C0.057,-2.316 0.086,-2.323 0.116,-2.325C0.634,-2.368 1.151,-2.419 1.67,-2.448C2.052,-2.468 2.437,-2.478 2.815,-2.396C3.079,-2.339 3.322,-2.247 3.542,-2.085C3.86,-1.85 3.958,-1.531 3.937,-1.158C3.92,-0.867 3.829,-0.598 3.669,-0.357C3.502,-0.104 3.257,0.048 2.97,0.134C2.843,0.172 2.712,0.144 2.584,0.118C2.162,0.034 1.766,-0.118 1.404,-0.357C1.312,-0.418 1.21,-0.465 1.11,-0.515C1.024,-0.558 0.963,-0.62 0.918,-0.707C0.746,-1.042 0.571,-1.377 0.389,-1.707C0.302,-1.864 0.195,-2.009 0.098,-2.159C0.071,-2.2 0.043,-2.241 0,-2.306" style="fill:rgb(197,173,212);fill-rule:nonzero;"/>
            </g>
        </g>
        <g transform="matrix(5.55556,0,0,5.55556,7263.77,9566.93)">
            <g transform="matrix(1,0,0,1,236.723,546)">
                <path d="M0,-0.458C0.293,-0.505 0.586,-0.551 0.88,-0.597C0.904,-0.601 0.929,-0.604 0.953,-0.61C1.159,-0.663 1.204,-0.715 1.164,-0.924C1.129,-1.104 1.067,-1.28 1.013,-1.457C0.98,-1.563 0.981,-1.57 1.089,-1.587C1.132,-1.594 1.175,-1.598 1.218,-1.604C1.451,-1.637 1.45,-1.637 1.578,-1.448C1.863,-1.027 2.107,-0.583 2.333,-0.13C2.358,-0.08 2.375,-0.023 2.409,0.02C2.491,0.124 2.466,0.221 2.409,0.326C2.345,0.443 2.277,0.552 2.133,0.578C1.972,0.607 1.826,0.581 1.702,0.465C1.516,0.291 1.447,0.31 1.296,0.495C1.205,0.607 1.089,0.688 0.958,0.749C0.857,0.797 0.758,0.815 0.653,0.774C0.506,0.717 0.389,0.77 0.282,0.869C0.21,0.937 0.137,1.003 0.06,1.064C-0.083,1.177 -0.25,1.179 -0.418,1.157C-0.469,1.151 -0.52,1.115 -0.564,1.084C-0.69,0.994 -0.814,0.901 -0.937,0.808C-1.034,0.731 -1.133,0.724 -1.249,0.77C-1.404,0.831 -1.562,0.887 -1.722,0.932C-1.904,0.983 -2.077,0.963 -2.226,0.828C-2.287,0.772 -2.313,0.711 -2.294,0.631C-2.269,0.528 -2.243,0.427 -2.215,0.325C-2.089,-0.146 -1.953,-0.615 -1.768,-1.069C-1.759,-1.092 -1.747,-1.114 -1.74,-1.138C-1.703,-1.266 -1.627,-1.334 -1.485,-1.321C-1.418,-1.314 -1.349,-1.329 -1.281,-1.335C-1.217,-1.341 -1.19,-1.315 -1.201,-1.248C-1.218,-1.145 -1.239,-1.041 -1.245,-0.937C-1.252,-0.826 -1.252,-0.714 -1.241,-0.604C-1.228,-0.468 -1.194,-0.43 -1.056,-0.417C-0.909,-0.403 -0.759,-0.403 -0.611,-0.413C-0.408,-0.426 -0.205,-0.454 -0.002,-0.476C-0.001,-0.47 0,-0.464 0,-0.458" style="fill:rgb(191,219,129);fill-rule:nonzero;"/>
            </g>
        </g>
        <g transform="matrix(5.55556,0,0,5.55556,7263.77,9566.93)">
            <g transform="matrix(1,0,0,1,241.197,550.585)">
                <path d="M0,-1.905C-0.51,-1.737 -0.943,-1.489 -1.3,-1.11C-1.368,-1.039 -1.437,-0.968 -1.507,-0.898C-1.771,-0.637 -1.96,-0.328 -2.104,0.011C-2.145,0.106 -2.158,0.212 -2.189,0.338C-2.244,0.275 -2.295,0.225 -2.334,0.167C-2.532,-0.125 -2.727,-0.418 -2.922,-0.711C-2.966,-0.777 -3.012,-0.844 -3.055,-0.912C-3.105,-0.992 -3.101,-1.007 -3.016,-1.052C-2.821,-1.159 -2.617,-1.254 -2.433,-1.376C-2.217,-1.518 -2.01,-1.678 -1.813,-1.845C-1.721,-1.924 -1.658,-2.036 -1.586,-2.136C-1.509,-2.243 -1.513,-2.241 -1.391,-2.211C-1.241,-2.175 -1.089,-2.145 -0.938,-2.112C-0.625,-2.044 -0.313,-1.974 0,-1.905" style="fill:rgb(197,173,212);fill-rule:nonzero;"/>
            </g>
        </g>
        <g transform="matrix(5.55556,0,0,5.55556,7263.77,9566.93)">
            <g transform="matrix(1,0,0,1,233.003,550.612)">
                <path d="M0,-1.065C0.292,-1.199 0.583,-1.333 0.875,-1.465C1.015,-1.53 1.158,-1.588 1.296,-1.659C1.364,-1.693 1.416,-1.709 1.475,-1.643C1.764,-1.324 2.15,-1.17 2.543,-1.034C2.742,-0.964 2.946,-0.915 3.148,-0.855C3.17,-0.848 3.19,-0.834 3.21,-0.824C3.096,-0.376 2.767,0.421 2.602,0.644C2.364,0.137 1.965,-0.204 1.513,-0.507C1.053,-0.816 0.563,-1.004 0,-1.065" style="fill:rgb(197,173,212);fill-rule:nonzero;"/>
            </g>
        </g>
        <g transform="matrix(5.55556,0,0,5.55556,7263.77,9566.93)">
            <g transform="matrix(1,0,0,1,234.366,547.169)">
                <path d="M0,-0.28C0.045,-0.256 0.074,-0.246 0.095,-0.227C0.293,-0.057 0.517,-0.073 0.745,-0.141C0.869,-0.179 0.995,-0.218 1.111,-0.273C1.216,-0.325 1.295,-0.308 1.381,-0.237C1.491,-0.146 1.611,-0.069 1.718,0.024C1.809,0.103 1.906,0.122 2.024,0.125C2.304,0.129 2.53,0.03 2.715,-0.176C2.775,-0.242 2.843,-0.301 2.941,-0.267C3.262,-0.157 3.487,-0.333 3.708,-0.52C3.74,-0.548 3.767,-0.584 3.793,-0.618C3.836,-0.676 3.882,-0.676 3.933,-0.629C3.956,-0.607 3.98,-0.589 4.004,-0.568C4.165,-0.43 4.353,-0.421 4.546,-0.462C4.652,-0.484 4.74,-0.543 4.801,-0.635C4.837,-0.691 4.875,-0.745 4.927,-0.821C4.986,-0.7 5.038,-0.596 5.085,-0.492C5.095,-0.471 5.096,-0.441 5.087,-0.421C5.018,-0.262 4.923,-0.124 4.737,-0.095C4.641,-0.081 4.541,-0.086 4.442,-0.089C4.294,-0.093 4.146,-0.109 3.998,-0.111C3.867,-0.112 3.755,-0.063 3.684,0.053C3.481,0.384 3.17,0.46 2.815,0.408C2.637,0.383 2.473,0.399 2.309,0.469C2.157,0.535 1.998,0.541 1.835,0.522C1.688,0.504 1.557,0.453 1.458,0.343C1.321,0.19 1.158,0.16 0.969,0.22C0.839,0.26 0.708,0.296 0.579,0.337C0.309,0.421 0.1,0.363 -0.046,0.153C-0.068,0.121 -0.083,0.073 -0.077,0.036C-0.06,-0.065 -0.029,-0.164 0,-0.28" style="fill:rgb(103,198,187);fill-rule:nonzero;"/>
            </g>
        </g>
        <g transform="matrix(5.55556,0,0,5.55556,7263.77,9566.93)">
            <g transform="matrix(1,0,0,1,236.702,544.52)">
                <path d="M0,0.866C-0.222,0.889 -0.443,0.917 -0.665,0.934C-0.775,0.943 -0.887,0.934 -0.998,0.935C-1.067,0.936 -1.098,0.9 -1.106,0.836C-1.134,0.617 -1.09,0.405 -1.055,0.191C-1.045,0.132 -0.996,0.118 -0.943,0.116C-0.702,0.106 -0.461,0.101 -0.221,0.086C-0.092,0.077 0.037,0.053 0.165,0.033C0.36,0.003 0.555,-0.03 0.75,-0.062C0.848,-0.077 0.871,-0.071 0.905,0.022C0.965,0.191 1.027,0.36 1.068,0.533C1.104,0.682 1.086,0.708 0.936,0.734C0.656,0.783 0.374,0.817 0.092,0.857C0.062,0.861 0.031,0.863 0,0.867L0,0.866Z" style="fill:rgb(197,173,212);fill-rule:nonzero;"/>
            </g>
        </g>
        <g transform="matrix(5.55556,0,0,5.55556,7263.77,9566.93)">
            <g transform="matrix(1,0,0,1,236.385,534.137)">
                <path d="M0,0.47C-0.222,0.485 -0.444,0.491 -0.665,0.517C-0.971,0.553 -1.275,0.604 -1.581,0.648C-1.605,0.652 -1.629,0.657 -1.654,0.66C-1.737,0.667 -1.779,0.648 -1.781,0.567C-1.784,0.471 -1.772,0.369 -1.738,0.281C-1.691,0.157 -1.591,0.066 -1.469,0.012C-1.09,-0.153 -0.695,-0.197 -0.291,-0.112C-0.061,-0.063 0.107,0.125 0.127,0.331C0.138,0.449 0.117,0.474 0,0.47" style="fill:rgb(191,219,129);fill-rule:nonzero;"/>
            </g>
        </g>
        <g transform="matrix(5.55556,0,0,5.55556,7263.77,9566.93)">
            <g transform="matrix(1,0,0,1,236.046,540.768)">
                <path d="M0,1.08C0.306,1.045 0.523,0.926 0.68,0.808C0.756,0.75 0.832,0.678 0.878,0.595C0.989,0.398 0.858,0.137 0.644,0.104C0.53,0.182 0.455,0.072 0.362,0.046C0.172,-0.01 -0.019,-0.061 -0.213,0.039C-0.449,0.16 -0.625,0.486 -0.594,0.75C-0.571,0.948 -0.438,1.078 -0.24,1.089C-0.161,1.094 -0.08,1.083 0,1.08M0.02,1.262C-0.103,1.255 -0.228,1.261 -0.348,1.238C-0.561,1.197 -0.699,1.032 -0.735,0.816C-0.828,0.27 -0.363,-0.135 -0.032,-0.16C0.256,-0.182 0.533,-0.132 0.797,-0.007C1.197,0.182 1.138,0.629 0.929,0.829C0.674,1.073 0.369,1.208 0.02,1.262" style="fill:rgb(35,31,32);fill-rule:nonzero;"/>
            </g>
        </g>
        <g transform="matrix(5.55556,0,0,5.55556,7263.77,9566.93)">
            <g transform="matrix(1,0,0,1,237.621,539.89)">
                <path d="M0,0.233C0.003,0.264 0.007,0.295 0.01,0.326C0.019,0.435 -0.023,0.519 -0.121,0.572C-0.22,0.626 -0.347,0.61 -0.432,0.534C-0.469,0.501 -0.506,0.463 -0.528,0.421C-0.62,0.248 -0.662,0.062 -0.628,-0.133C-0.596,-0.317 -0.418,-0.393 -0.26,-0.295C-0.112,-0.204 -0.054,-0.054 -0.016,0.104C-0.005,0.146 -0.005,0.19 -0.001,0.233L0,0.233Z" style="fill:rgb(35,31,32);fill-rule:nonzero;"/>
            </g>
        </g>
        <g transform="matrix(5.55556,0,0,5.55556,7263.77,9566.93)">
            <g transform="matrix(1,0,0,1,237.226,543.557)">
                <path d="M0,-0.923C0.031,-0.51 -0.274,-0.007 -0.646,0.122C-0.903,0.212 -1.134,0.161 -1.334,-0.019C-1.488,-0.158 -1.594,-0.333 -1.67,-0.525C-1.692,-0.578 -1.688,-0.644 -1.69,-0.704C-1.691,-0.717 -1.669,-0.737 -1.654,-0.741C-1.64,-0.745 -1.613,-0.737 -1.606,-0.726C-1.583,-0.69 -1.566,-0.65 -1.549,-0.611C-1.475,-0.445 -1.381,-0.294 -1.248,-0.17C-1.037,0.026 -0.762,0.04 -0.543,-0.149C-0.292,-0.364 -0.16,-0.643 -0.155,-0.977C-0.154,-1.021 -0.159,-1.064 -0.158,-1.107C-0.158,-1.116 -0.145,-1.133 -0.137,-1.133C-0.121,-1.135 -0.093,-1.132 -0.088,-1.122C-0.056,-1.058 -0.029,-0.99 0,-0.923" style="fill:rgb(35,31,32);fill-rule:nonzero;"/>
            </g>
        </g>
        <g transform="matrix(5.55556,0,0,5.55556,7263.77,9566.93)">
            <g transform="matrix(1,0,0,1,234.68,540.089)">
                <path d="M0,0.314C0.015,0.199 0.021,0.082 0.049,-0.03C0.067,-0.098 0.111,-0.165 0.159,-0.219C0.289,-0.36 0.5,-0.321 0.56,-0.139C0.618,0.039 0.636,0.226 0.579,0.408C0.542,0.528 0.474,0.631 0.33,0.652C0.17,0.674 0.066,0.603 0.036,0.445C0.027,0.403 0.026,0.359 0.021,0.316C0.014,0.315 0.007,0.314 0,0.314" style="fill:rgb(35,31,32);fill-rule:nonzero;"/>
            </g>
        </g>
        <g transform="matrix(5.55556,0,0,5.55556,7263.77,9566.93)">
            <g transform="matrix(1,0,0,1,233.421,550.131)">
                <path d="M0,0.961C0.328,0.911 0.388,0.889 0.529,0.705C0.729,0.444 0.723,0.422 0.47,0.193C0.258,0.001 -0.012,-0.047 -0.276,-0.108C-0.374,-0.131 -0.463,-0.099 -0.515,-0.007C-0.578,0.106 -0.651,0.217 -0.69,0.337C-0.749,0.519 -0.712,0.688 -0.565,0.826C-0.435,0.949 -0.291,1.012 -0.11,0.974C-0.074,0.966 -0.037,0.965 0,0.961M-0.053,1.096C-0.34,1.177 -0.562,1.043 -0.744,0.813C-0.84,0.69 -0.87,0.543 -0.838,0.393C-0.796,0.19 -0.7,0.01 -0.575,-0.152C-0.546,-0.189 -0.478,-0.216 -0.43,-0.213C-0.048,-0.188 0.316,-0.106 0.608,0.165C0.648,0.203 0.685,0.246 0.72,0.288C0.801,0.384 0.809,0.485 0.749,0.597C0.599,0.874 0.391,1.067 0.058,1.084C0.027,1.086 -0.003,1.091 -0.053,1.096" style="fill:rgb(35,31,32);fill-rule:nonzero;"/>
            </g>
        </g>
        <g transform="matrix(5.55556,0,0,5.55556,7263.77,9566.93)">
            <g transform="matrix(1,0,0,1,241.108,549.205)">
                <path d="M0,1.065L0,1.072C0.068,1.064 0.136,1.06 0.203,1.049C0.422,1.015 0.621,0.765 0.607,0.544C0.593,0.317 0.456,0.162 0.3,0.016C0.217,-0.062 0.125,-0.07 0.026,-0.024C-0.063,0.017 -0.149,0.068 -0.239,0.109C-0.457,0.207 -0.604,0.378 -0.726,0.576C-0.789,0.678 -0.786,0.717 -0.705,0.807C-0.537,0.993 -0.347,1.133 -0.074,1.074C-0.05,1.068 -0.024,1.068 0,1.065M0.069,1.194C0.02,1.2 -0.004,1.201 -0.029,1.205C-0.358,1.259 -0.603,1.117 -0.807,0.876C-0.888,0.78 -0.907,0.681 -0.848,0.569C-0.729,0.345 -0.574,0.157 -0.342,0.046C-0.182,-0.031 -0.014,-0.093 0.151,-0.162C0.229,-0.194 0.29,-0.169 0.352,-0.115C0.478,-0.003 0.583,0.125 0.666,0.271C0.771,0.458 0.769,0.647 0.662,0.835C0.526,1.074 0.332,1.214 0.069,1.194" style="fill:rgb(35,31,32);fill-rule:nonzero;"/>
            </g>
        </g>
        <g transform="matrix(5.55556,0,0,5.55556,7263.77,9566.93)">
            <g transform="matrix(1,0,0,1,236.046,540.721)">
                <path d="M0,1.127C-0.08,1.13 -0.161,1.141 -0.24,1.136C-0.438,1.125 -0.571,0.995 -0.594,0.797C-0.625,0.533 -0.449,0.207 -0.213,0.086C-0.019,-0.014 0.172,0.037 0.362,0.093C0.455,0.119 0.53,0.229 0.644,0.151C0.858,0.184 0.989,0.445 0.878,0.642C0.832,0.725 0.756,0.797 0.68,0.855C0.523,0.973 0.306,1.092 0,1.127" style="fill:rgb(120,84,163);fill-rule:nonzero;"/>
            </g>
        </g>
        <g transform="matrix(5.55556,0,0,5.55556,7263.77,9566.93)">
            <g transform="matrix(1,0,0,1,233.421,550.051)">
                <path d="M0,1.041C-0.037,1.045 -0.074,1.046 -0.11,1.054C-0.291,1.092 -0.435,1.029 -0.565,0.906C-0.712,0.768 -0.749,0.599 -0.69,0.417C-0.651,0.297 -0.578,0.186 -0.515,0.073C-0.463,-0.019 -0.374,-0.051 -0.276,-0.028C-0.012,0.033 0.258,0.081 0.47,0.273C0.723,0.502 0.729,0.524 0.529,0.785C0.388,0.969 0.328,0.991 0,1.041" style="fill:rgb(197,173,212);fill-rule:nonzero;"/>
            </g>
        </g>
        <g transform="matrix(5.55556,0,0,5.55556,7263.77,9566.93)">
            <g transform="matrix(1,0,0,1,241.108,549.203)">
                <path d="M0,1.067C-0.024,1.07 -0.05,1.07 -0.074,1.076C-0.347,1.135 -0.537,0.995 -0.705,0.809C-0.786,0.719 -0.789,0.68 -0.726,0.578C-0.604,0.38 -0.457,0.209 -0.239,0.111C-0.149,0.07 -0.063,0.019 0.026,-0.022C0.125,-0.068 0.217,-0.06 0.3,0.018C0.456,0.164 0.593,0.319 0.607,0.546C0.621,0.767 0.422,1.017 0.203,1.051C0.136,1.062 0.068,1.066 0,1.074L0,1.067" style="fill:rgb(197,173,212);fill-rule:nonzero;"/>
            </g>
        </g>
        <g transform="matrix(5.55556,0,0,5.55556,7263.77,9566.93)">
            <g transform="matrix(1,0,0,1,236.066,541.63)">
                <path d="M0,-0.723C-0.255,-0.68 -0.459,-0.433 -0.452,-0.174C-0.451,-0.131 -0.444,-0.086 -0.422,-0.049C-0.369,0.045 -0.241,0.067 -0.135,0.048C0.15,-0.006 0.358,-0.318 0.298,-0.601C0.29,-0.638 0.278,-0.676 0.251,-0.702C0.162,-0.79 0.012,-0.699 -0.112,-0.714" style="fill:white;fill-rule:nonzero;"/>
            </g>
        </g>
        <g transform="matrix(5.55556,0,0,5.55556,7263.77,9566.93)">
            <g transform="matrix(-0.105421,-0.994428,-0.994428,0.105421,233.767,541.19)">
                <path d="M-1.09,-1.211C-1.695,-1.211 -2.186,-0.721 -2.185,-0.116C-2.185,0.49 -1.695,0.98 -1.09,0.98C-0.484,0.98 0.006,0.49 0.007,-0.116C0.006,-0.721 -0.484,-1.212 -1.09,-1.211" style="fill:rgb(184,151,198);fill-rule:nonzero;"/>
            </g>
        </g>
        <g transform="matrix(5.55556,0,0,5.55556,7263.77,9566.93)">
            <g transform="matrix(-0.10497,-0.994475,-0.994475,0.10497,238.469,540.495)">
                <path d="M-1.09,-1.212C-1.695,-1.211 -2.185,-0.721 -2.186,-0.116C-2.186,0.489 -1.696,0.98 -1.09,0.98C-0.485,0.98 0.005,0.49 0.007,-0.116C0.006,-0.72 -0.483,-1.211 -1.09,-1.212" style="fill:rgb(180,146,196);fill-rule:nonzero;"/>
            </g>
        </g>
        <g transform="matrix(5.55556,0,0,5.55556,7263.77,9566.93)">
            <g transform="matrix(1,0,0,1,231.979,533.408)">
                <path d="M0,-1.622C-0.241,-1.584 -0.493,-1.542 -0.685,-1.393C-0.896,-1.229 -1.005,-0.946 -0.966,-0.682C-0.928,-0.417 -0.748,-0.18 -0.508,-0.06C-0.339,0.023 -0.131,0.047 0.035,-0.043C0.122,-0.091 0.191,-0.166 0.248,-0.248C0.363,-0.413 0.434,-0.609 0.45,-0.81C0.467,-1.018 0.422,-1.238 0.294,-1.403C0.166,-1.568 -0.054,-1.669 -0.258,-1.624C-0.458,-1.58 -0.605,-1.416 -0.739,-1.261" style="fill:white;fill-rule:nonzero;"/>
            </g>
        </g>
        <g transform="matrix(5.55556,0,0,5.55556,7263.77,9566.93)">
            <g transform="matrix(1,0,0,1,231.814,535.062)">
                <path d="M0,0.236C0.005,0.479 0.182,0.736 0.426,0.741C0.485,0.743 0.546,0.728 0.592,0.69C0.655,0.638 0.679,0.552 0.691,0.471C0.717,0.298 0.708,0.121 0.663,-0.049C0.625,-0.196 0.461,-0.507 0.259,-0.443C0.091,-0.39 -0.003,0.091 0,0.236" style="fill:white;fill-rule:nonzero;"/>
            </g>
        </g>
        <g transform="matrix(5.55556,0,0,5.55556,7263.77,9566.93)">
            <g transform="matrix(1,0,0,1,238.689,532.646)">
                <path d="M0,-1.384C-0.499,-1.242 -0.936,-0.892 -1.182,-0.435C-1.242,-0.323 -1.286,-0.17 -1.195,-0.081C-1.114,0 -0.978,-0.028 -0.871,-0.071C-0.602,-0.177 -0.357,-0.346 -0.161,-0.559C-0.029,-0.7 0.084,-0.874 0.088,-1.068C0.09,-1.117 0.083,-1.169 0.055,-1.211C0.016,-1.272 -0.058,-1.3 -0.129,-1.312C-0.304,-1.342 -0.49,-1.293 -0.627,-1.181" style="fill:white;fill-rule:nonzero;"/>
            </g>
        </g>
        <g transform="matrix(5.55556,0,0,5.55556,7263.77,9566.93)">
            <g transform="matrix(1,0,0,1,233.077,545.793)">
                <path d="M0,1.147C0.695,0.517 1.304,-0.207 1.805,-1C1.5,-0.292 1.278,0.452 1.143,1.211C0.781,1.386 0.455,1.627 0.101,1.817C-0.253,2.007 -0.654,2.147 -1.053,2.095C-1.146,2.083 -1.404,2.017 -1.357,1.876C-1.337,1.816 -0.95,1.769 -0.875,1.74C-0.545,1.611 -0.259,1.381 0,1.147" style="fill:rgb(180,146,196);fill-rule:nonzero;"/>
            </g>
        </g>
        <g transform="matrix(5.55556,0,0,5.55556,7263.77,9566.93)">
            <g opacity="0.2">
                <g transform="matrix(1,0,0,1,237.723,545.429)">
                    <path d="M0,3.238C0.501,2.692 0.674,1.906 0.617,1.167C0.561,0.427 0.297,-0.279 0.019,-0.965C0.134,-1.099 0.356,-1.085 0.5,-0.985C0.645,-0.884 0.73,-0.72 0.81,-0.564C1.064,-0.063 1.318,0.437 1.573,0.938C1.73,1.248 1.89,1.562 1.964,1.902C2.04,2.242 2.022,2.615 1.842,2.913C1.695,3.158 1.454,3.329 1.219,3.494C0.772,3.807 0.306,4.13 -0.231,4.23C-0.571,4.294 -1.272,4.337 -1.534,4.07C-1.027,3.759 -0.445,3.723 0,3.238" style="fill:rgb(6,103,56);fill-rule:nonzero;"/>
                </g>
            </g>
        </g>
        <g transform="matrix(5.55556,0,0,5.55556,7263.77,9566.93)">
            <g transform="matrix(1,0,0,1,236.385,549.537)">
                <path d="M0,-14.93C0.117,-14.926 0.138,-14.951 0.127,-15.069C0.107,-15.275 -0.061,-15.463 -0.291,-15.512C-0.695,-15.597 -1.09,-15.553 -1.469,-15.388C-1.591,-15.334 -1.691,-15.243 -1.738,-15.119C-1.772,-15.031 -1.784,-14.929 -1.781,-14.833C-1.779,-14.752 -1.737,-14.733 -1.654,-14.74C-1.629,-14.743 -1.605,-14.748 -1.581,-14.752C-1.275,-14.796 -0.971,-14.847 -0.665,-14.883C-0.444,-14.909 -0.222,-14.915 0,-14.93M0.316,-4.152L0.316,-4.151C0.347,-4.155 0.378,-4.157 0.409,-4.16C0.69,-4.201 0.972,-4.235 1.252,-4.284C1.403,-4.31 1.42,-4.335 1.385,-4.485C1.343,-4.658 1.281,-4.826 1.221,-4.995C1.187,-5.089 1.165,-5.095 1.067,-5.079C0.872,-5.047 0.676,-5.015 0.481,-4.985C0.353,-4.965 0.225,-4.941 0.096,-4.932C-0.145,-4.916 -0.386,-4.911 -0.626,-4.902C-0.68,-4.9 -0.729,-4.886 -0.739,-4.826C-0.773,-4.613 -0.817,-4.401 -0.79,-4.182C-0.782,-4.117 -0.751,-4.081 -0.682,-4.082C-0.571,-4.083 -0.459,-4.075 -0.349,-4.083C-0.126,-4.101 0.095,-4.128 0.316,-4.152M-2.02,-2.649C-2.049,-2.533 -2.079,-2.434 -2.097,-2.332C-2.103,-2.296 -2.088,-2.247 -2.066,-2.216C-1.919,-2.006 -1.71,-1.948 -1.44,-2.032C-1.311,-2.073 -1.18,-2.109 -1.05,-2.149C-0.861,-2.208 -0.698,-2.179 -0.562,-2.026C-0.462,-1.915 -0.332,-1.865 -0.184,-1.847C-0.021,-1.827 0.138,-1.833 0.289,-1.9C0.453,-1.97 0.618,-1.986 0.796,-1.96C1.15,-1.909 1.461,-1.985 1.664,-2.316C1.735,-2.432 1.848,-2.481 1.979,-2.48C2.127,-2.478 2.275,-2.462 2.423,-2.457C2.521,-2.454 2.621,-2.45 2.718,-2.464C2.904,-2.492 2.999,-2.631 3.068,-2.789C3.077,-2.81 3.075,-2.84 3.066,-2.861C3.018,-2.965 2.966,-3.069 2.908,-3.19C2.856,-3.114 2.817,-3.06 2.781,-3.004C2.72,-2.911 2.632,-2.853 2.527,-2.83C2.333,-2.789 2.145,-2.799 1.984,-2.937C1.961,-2.957 1.936,-2.976 1.914,-2.997C1.862,-3.044 1.817,-3.044 1.773,-2.987C1.747,-2.952 1.721,-2.916 1.688,-2.889C1.467,-2.701 1.242,-2.526 0.921,-2.636C0.823,-2.67 0.756,-2.611 0.696,-2.544C0.511,-2.339 0.285,-2.24 0.004,-2.243C-0.114,-2.246 -0.21,-2.266 -0.301,-2.345C-0.409,-2.438 -0.529,-2.515 -0.639,-2.606C-0.724,-2.677 -0.803,-2.694 -0.909,-2.642C-1.025,-2.586 -1.151,-2.548 -1.275,-2.51C-1.503,-2.442 -1.726,-2.426 -1.924,-2.596C-1.946,-2.615 -1.975,-2.624 -2.02,-2.649M-3.382,0.009C-2.819,0.07 -2.33,0.258 -1.87,0.567C-1.417,0.871 -1.018,1.212 -0.78,1.718C-0.615,1.496 -0.287,0.699 -0.172,0.251C-0.192,0.241 -0.212,0.226 -0.234,0.219C-0.436,0.16 -0.641,0.11 -0.839,0.041C-1.232,-0.096 -1.619,-0.249 -1.908,-0.569C-1.967,-0.634 -2.018,-0.618 -2.086,-0.584C-2.224,-0.514 -2.367,-0.455 -2.507,-0.391C-2.799,-0.258 -3.091,-0.124 -3.382,0.009M4.812,-0.858C4.499,-0.927 4.186,-0.996 3.873,-1.065C3.722,-1.098 3.57,-1.127 3.421,-1.163C3.299,-1.194 3.302,-1.196 3.226,-1.089C3.154,-0.989 3.09,-0.876 2.999,-0.798C2.801,-0.631 2.595,-0.471 2.379,-0.328C2.194,-0.206 1.991,-0.112 1.795,-0.005C1.711,0.041 1.706,0.055 1.757,0.135C1.8,0.203 1.845,0.27 1.89,0.337C2.085,0.63 2.28,0.923 2.478,1.215C2.517,1.272 2.568,1.322 2.622,1.385C2.654,1.259 2.667,1.153 2.707,1.058C2.851,0.719 3.04,0.41 3.304,0.149C3.375,0.08 3.443,0.008 3.511,-0.063C3.868,-0.442 4.301,-0.69 4.812,-0.858M0.338,-3.995C0.337,-4.001 0.336,-4.007 0.336,-4.013C0.133,-3.992 -0.07,-3.963 -0.273,-3.951C-0.421,-3.941 -0.571,-3.941 -0.718,-3.954C-0.856,-3.967 -0.89,-4.005 -0.903,-4.142C-0.914,-4.251 -0.914,-4.364 -0.907,-4.474C-0.901,-4.578 -0.88,-4.682 -0.863,-4.785C-0.852,-4.853 -0.879,-4.878 -0.943,-4.872C-1.011,-4.867 -1.08,-4.852 -1.147,-4.859C-1.29,-4.871 -1.365,-4.803 -1.402,-4.675C-1.409,-4.652 -1.421,-4.629 -1.43,-4.607C-1.615,-4.153 -1.751,-3.684 -1.877,-3.212C-1.905,-3.111 -1.931,-3.009 -1.956,-2.907C-1.976,-2.826 -1.949,-2.765 -1.888,-2.709C-1.739,-2.575 -1.566,-2.554 -1.384,-2.606C-1.224,-2.651 -1.066,-2.706 -0.911,-2.768C-0.795,-2.814 -0.696,-2.806 -0.599,-2.73C-0.476,-2.636 -0.352,-2.543 -0.226,-2.453C-0.182,-2.422 -0.131,-2.386 -0.081,-2.38C0.087,-2.359 0.255,-2.361 0.397,-2.473C0.475,-2.534 0.548,-2.601 0.62,-2.668C0.727,-2.768 0.844,-2.821 0.991,-2.763C1.096,-2.722 1.195,-2.741 1.296,-2.788C1.427,-2.85 1.542,-2.93 1.634,-3.042C1.785,-3.228 1.854,-3.246 2.04,-3.073C2.164,-2.956 2.31,-2.93 2.471,-2.959C2.615,-2.986 2.683,-3.094 2.747,-3.211C2.804,-3.317 2.829,-3.413 2.747,-3.518C2.713,-3.561 2.696,-3.617 2.671,-3.667C2.445,-4.12 2.201,-4.565 1.916,-4.986C1.788,-5.174 1.789,-5.174 1.556,-5.141C1.513,-5.135 1.47,-5.131 1.427,-5.124C1.319,-5.108 1.318,-5.101 1.351,-4.994C1.405,-4.818 1.467,-4.642 1.502,-4.461C1.542,-4.252 1.497,-4.201 1.291,-4.148C1.267,-4.142 1.242,-4.138 1.218,-4.134C0.924,-4.088 0.631,-4.042 0.338,-3.995M1.989,-5.07C2.032,-5.004 2.06,-4.963 2.086,-4.922C2.184,-4.773 2.291,-4.627 2.377,-4.471C2.56,-4.141 2.734,-3.806 2.907,-3.471C2.952,-3.384 3.013,-3.322 3.099,-3.279C3.199,-3.229 3.301,-3.182 3.393,-3.12C3.755,-2.881 4.15,-2.73 4.573,-2.646C4.701,-2.619 4.832,-2.592 4.959,-2.629C5.246,-2.715 5.491,-2.867 5.658,-3.12C5.818,-3.362 5.909,-3.63 5.925,-3.921C5.947,-4.294 5.849,-4.614 5.531,-4.849C5.311,-5.011 5.067,-5.103 4.804,-5.159C4.425,-5.242 4.041,-5.232 3.659,-5.211C3.14,-5.183 2.623,-5.131 2.104,-5.088C2.075,-5.086 2.045,-5.079 1.989,-5.07M-1.521,-4.695C-1.868,-4.658 -2.195,-4.635 -2.518,-4.585C-2.963,-4.517 -3.409,-4.44 -3.849,-4.343C-4.17,-4.272 -4.477,-4.146 -4.732,-3.929C-5.052,-3.658 -5.253,-3.333 -5.146,-2.889C-5.141,-2.871 -5.14,-2.852 -5.136,-2.834C-4.999,-2.278 -4.69,-1.875 -4.117,-1.717C-3.965,-1.676 -3.812,-1.674 -3.661,-1.736C-3.357,-1.86 -3.059,-1.995 -2.805,-2.21C-2.611,-2.373 -2.423,-2.544 -2.228,-2.705C-2.143,-2.777 -2.097,-2.86 -2.068,-2.967C-1.921,-3.523 -1.774,-4.079 -1.546,-4.61C-1.537,-4.632 -1.532,-4.657 -1.521,-4.695M4.949,-0.722C4.572,-0.695 4.292,-0.522 4.021,-0.337C3.811,-0.195 3.646,0.002 3.462,0.176C3.205,0.421 3.017,0.708 2.868,1.022C2.809,1.147 2.792,1.294 2.767,1.432C2.759,1.475 2.776,1.536 2.805,1.57C2.911,1.698 3.018,1.829 3.141,1.94C3.389,2.165 3.668,2.349 3.952,2.526C4.194,2.677 4.446,2.81 4.713,2.911C4.77,2.932 4.834,2.949 4.893,2.944C5.242,2.915 5.579,2.836 5.875,2.639C6.272,2.376 6.602,2.039 6.853,1.636C7.034,1.347 7.127,1.034 7.024,0.682C6.902,0.26 6.697,-0.094 6.293,-0.299C6.057,-0.419 5.813,-0.528 5.568,-0.632C5.36,-0.722 5.141,-0.755 4.949,-0.722M-2.81,3.764C-2.611,3.744 -2.583,3.74 -2.48,3.663C-2.326,3.549 -2.172,3.433 -2.028,3.308C-1.878,3.178 -1.738,3.038 -1.598,2.898C-1.334,2.634 -1.1,2.349 -0.934,2.011C-0.895,1.933 -0.887,1.864 -0.916,1.781C-0.979,1.596 -1.079,1.435 -1.209,1.291C-1.417,1.06 -1.656,0.87 -1.916,0.695C-2.238,0.478 -2.57,0.302 -2.949,0.208C-3.352,0.106 -3.724,0.158 -4.067,0.384C-4.253,0.507 -4.426,0.649 -4.608,0.777C-5.101,1.124 -5.238,1.626 -5.231,2.191C-5.23,2.227 -5.221,2.265 -5.208,2.299C-5.124,2.52 -5.016,2.726 -4.847,2.898C-4.604,3.143 -4.319,3.33 -4.026,3.502C-3.646,3.724 -3.23,3.8 -2.81,3.764M-2.133,-2.119C-2.159,-1.942 -2.193,-1.808 -2.194,-1.674C-2.194,-1.396 -2.185,-1.112 -1.996,-0.881C-1.83,-0.681 -1.648,-0.495 -1.413,-0.371C-0.887,-0.093 -0.326,0.07 0.26,0.157C0.596,0.207 0.925,0.173 1.246,0.058C1.686,-0.098 2.098,-0.308 2.482,-0.572C2.749,-0.755 2.978,-0.971 3.16,-1.247C3.382,-1.586 3.381,-1.932 3.277,-2.294C3.243,-2.414 3.213,-2.538 3.134,-2.647C2.896,-2.348 2.856,-2.359 2.528,-2.332C2.48,-2.329 2.43,-2.344 2.381,-2.345C2.246,-2.349 2.11,-2.352 1.974,-2.353C1.866,-2.354 1.788,-2.306 1.735,-2.208C1.641,-2.035 1.488,-1.925 1.303,-1.881C1.143,-1.843 0.971,-1.822 0.808,-1.835C0.637,-1.85 0.484,-1.828 0.32,-1.783C-0.037,-1.683 -0.392,-1.657 -0.676,-1.97C-0.74,-2.04 -0.817,-2.069 -0.911,-2.047C-1.055,-2.014 -1.201,-1.989 -1.342,-1.945C-1.624,-1.857 -1.89,-1.832 -2.133,-2.119M-1.843,-14.693C-1.95,-15.044 -1.947,-15.048 -2.217,-15.264C-2.643,-15.605 -3.094,-15.909 -3.592,-16.137C-3.614,-16.147 -3.629,-16.17 -3.653,-16.193C-3.559,-16.236 -3.479,-16.226 -3.403,-16.197C-3.3,-16.155 -3.195,-16.114 -3.1,-16.058C-2.666,-15.807 -2.246,-15.534 -1.886,-15.163C-1.854,-15.206 -1.828,-15.247 -1.795,-15.284C-1.735,-15.349 -1.733,-15.408 -1.79,-15.48C-1.846,-15.553 -1.889,-15.636 -1.94,-15.713C-2.124,-15.992 -2.291,-16.284 -2.496,-16.545C-2.821,-16.961 -3.217,-17.31 -3.64,-17.626C-3.844,-17.78 -4.073,-17.89 -4.321,-17.956C-4.646,-18.042 -4.962,-18.014 -5.258,-17.858C-5.53,-17.715 -5.72,-17.496 -5.748,-17.18C-5.776,-16.855 -5.733,-16.536 -5.551,-16.253C-5.443,-16.087 -5.336,-15.921 -5.221,-15.761C-5.075,-15.559 -4.941,-15.353 -4.88,-15.107C-4.876,-15.089 -4.867,-15.072 -4.865,-15.054C-4.827,-14.71 -4.761,-14.369 -4.775,-14.021C-4.78,-13.91 -4.777,-13.794 -4.749,-13.689C-4.698,-13.502 -4.607,-13.332 -4.459,-13.201C-4.381,-13.132 -4.348,-13.134 -4.266,-13.201C-4.097,-13.336 -3.928,-13.471 -3.764,-13.612C-3.337,-13.976 -2.882,-14.291 -2.35,-14.484C-2.182,-14.544 -2.02,-14.619 -1.843,-14.693M0.228,-14.92C0.235,-14.915 0.244,-14.906 0.255,-14.903C0.297,-14.894 0.34,-14.886 0.383,-14.88C1.032,-14.791 1.657,-14.627 2.234,-14.307C2.446,-14.19 2.663,-14.083 2.877,-13.974C3.005,-13.909 3.052,-13.914 3.118,-14.038C3.217,-14.224 3.298,-14.421 3.265,-14.64C3.244,-14.78 3.203,-14.917 3.185,-15.058C3.152,-15.31 3.125,-15.563 3.104,-15.816C3.087,-16.028 3.121,-16.236 3.202,-16.433C3.277,-16.617 3.354,-16.799 3.435,-16.98C3.59,-17.325 3.625,-17.68 3.544,-18.05C3.5,-18.258 3.403,-18.429 3.23,-18.558C3.005,-18.725 2.75,-18.78 2.477,-18.766C2.175,-18.75 1.916,-18.625 1.678,-18.447C1.408,-18.243 1.202,-17.981 1.002,-17.71C0.639,-17.219 0.338,-16.697 0.161,-16.107C0.125,-15.989 0.083,-15.872 0.04,-15.756C-0.037,-15.55 -0.039,-15.55 0.125,-15.408C0.133,-15.4 0.146,-15.399 0.158,-15.394C0.168,-15.4 0.183,-15.404 0.188,-15.412C0.453,-15.854 0.823,-16.201 1.2,-16.542C1.277,-16.613 1.368,-16.668 1.458,-16.724C1.522,-16.764 1.596,-16.784 1.687,-16.752C1.66,-16.721 1.65,-16.705 1.636,-16.695C1.179,-16.358 0.792,-15.951 0.436,-15.511C0.295,-15.337 0.192,-15.156 0.228,-14.92M-1.466,-4.843C-1.482,-4.867 -1.487,-4.883 -1.495,-4.885C-1.592,-4.903 -1.689,-4.92 -1.787,-4.934C-2.412,-5.027 -3.005,-5.193 -3.519,-5.591C-3.975,-5.946 -4.371,-6.346 -4.625,-6.87C-4.72,-7.064 -4.798,-7.266 -4.887,-7.463C-4.9,-7.493 -4.896,-7.562 -4.968,-7.523C-4.987,-7.512 -5.011,-7.509 -5.033,-7.503C-5.033,-7.532 -5.045,-7.567 -5.033,-7.586C-4.95,-7.716 -4.869,-7.849 -4.773,-7.97C-4.574,-8.225 -4.393,-8.492 -4.268,-8.789C-4.06,-9.286 -3.879,-9.793 -3.751,-10.318C-3.735,-10.383 -3.718,-10.451 -3.687,-10.51C-3.577,-10.719 -3.411,-11.304 -3.397,-11.538C-3.387,-11.71 -3.382,-11.884 -3.354,-12.054C-3.337,-12.154 -3.324,-12.248 -3.337,-12.348C-3.349,-12.427 -3.354,-12.508 -3.361,-12.588C-3.394,-12.995 -3.334,-13.389 -3.172,-13.766C-3.16,-13.796 -3.151,-13.827 -3.14,-13.858C-3.234,-13.824 -3.306,-13.777 -3.373,-13.723C-3.575,-13.56 -3.777,-13.397 -3.976,-13.228C-4.122,-13.104 -4.273,-12.984 -4.401,-12.842C-4.763,-12.442 -5.099,-12.022 -5.35,-11.539C-5.554,-11.148 -5.706,-10.737 -5.821,-10.311C-5.94,-9.868 -5.934,-9.417 -5.857,-8.968C-5.814,-8.722 -5.804,-8.458 -5.569,-8.292C-5.564,-8.289 -5.56,-8.284 -5.557,-8.279C-5.527,-8.238 -5.494,-8.191 -5.541,-8.149C-5.552,-8.14 -5.616,-8.173 -5.642,-8.2C-6.146,-8.705 -6.78,-8.851 -7.461,-8.847C-7.719,-8.845 -7.834,-8.689 -7.827,-8.433C-7.818,-8.169 -7.708,-7.943 -7.587,-7.719C-7.349,-7.279 -6.989,-7.001 -6.493,-6.909C-6.329,-6.878 -6.165,-6.846 -6,-6.815C-5.964,-6.808 -5.927,-6.801 -5.892,-6.792C-5.847,-6.781 -5.799,-6.756 -5.818,-6.706C-5.83,-6.676 -5.878,-6.652 -5.916,-6.641C-5.949,-6.631 -5.989,-6.646 -6.025,-6.644C-6.13,-6.637 -6.237,-6.637 -6.339,-6.617C-6.54,-6.576 -6.695,-6.392 -6.721,-6.185C-6.748,-5.968 -6.685,-5.862 -6.461,-5.743C-6.445,-5.735 -6.429,-5.724 -6.412,-5.718C-5.895,-5.536 -5.373,-5.392 -4.818,-5.54C-4.795,-5.547 -4.743,-5.53 -4.741,-5.518C-4.736,-5.488 -4.743,-5.447 -4.762,-5.422C-4.783,-5.394 -4.823,-5.382 -4.853,-5.359C-4.886,-5.332 -4.922,-5.305 -4.948,-5.272C-5.039,-5.155 -5.019,-5.033 -4.89,-4.959C-4.644,-4.819 -4.383,-4.811 -4.119,-4.901C-3.99,-4.945 -3.866,-5.002 -3.74,-5.053C-3.678,-5.078 -3.635,-5.066 -3.608,-4.998C-3.488,-4.694 -3.313,-4.606 -3.004,-4.667C-2.817,-4.704 -2.625,-4.72 -2.434,-4.738C-2.15,-4.764 -1.866,-4.784 -1.583,-4.808C-1.544,-4.811 -1.508,-4.83 -1.466,-4.843M1.917,-5.242C1.919,-5.229 1.92,-5.215 1.921,-5.202C1.955,-5.198 1.99,-5.187 2.023,-5.191C2.312,-5.226 2.6,-5.266 2.889,-5.299C3.085,-5.322 3.283,-5.346 3.48,-5.351C3.77,-5.359 3.938,-5.499 3.98,-5.79C3.992,-5.876 4.013,-5.896 4.101,-5.882C4.241,-5.861 4.38,-5.828 4.521,-5.813C4.771,-5.785 5.002,-5.843 5.201,-6.001C5.371,-6.134 5.355,-6.294 5.166,-6.395C5.116,-6.42 5.06,-6.432 5.012,-6.459C4.99,-6.472 4.962,-6.519 4.968,-6.529C4.985,-6.555 5.024,-6.589 5.047,-6.584C5.185,-6.555 5.322,-6.572 5.452,-6.606C5.806,-6.701 6.149,-6.826 6.461,-7.022C6.545,-7.074 6.623,-7.138 6.695,-7.204C6.764,-7.269 6.807,-7.35 6.803,-7.451C6.792,-7.75 6.55,-7.977 6.252,-7.954C6.147,-7.948 6.045,-7.921 5.942,-7.901C5.881,-7.89 5.808,-7.859 5.781,-7.938C5.752,-8.021 5.839,-8.036 5.89,-8.06C6.059,-8.136 6.232,-8.204 6.402,-8.279C7.051,-8.558 7.473,-9.293 7.388,-9.996C7.351,-10.307 7.18,-10.433 6.875,-10.367C6.515,-10.288 6.18,-10.146 5.87,-9.947C5.681,-9.824 5.519,-9.672 5.385,-9.491C5.349,-9.441 5.32,-9.385 5.281,-9.337C5.262,-9.314 5.227,-9.303 5.199,-9.287C5.194,-9.322 5.177,-9.361 5.187,-9.39C5.205,-9.441 5.233,-9.492 5.268,-9.534C5.337,-9.623 5.363,-9.719 5.347,-9.829C5.342,-9.866 5.343,-9.904 5.344,-9.941C5.36,-10.522 5.238,-11.071 4.965,-11.585C4.509,-12.447 3.862,-13.136 3.054,-13.673C2.817,-13.83 2.554,-13.946 2.306,-14.084C1.799,-14.368 1.265,-14.56 0.691,-14.67C0.059,-14.792 -0.565,-14.761 -1.193,-14.675C-1.345,-14.655 -1.499,-14.621 -1.644,-14.572C-1.919,-14.478 -2.188,-14.368 -2.459,-14.263C-2.579,-14.217 -2.679,-14.148 -2.781,-14.063C-2.997,-13.884 -3.095,-13.657 -3.159,-13.4C-3.242,-13.071 -3.229,-12.74 -3.203,-12.405C-3.177,-12.081 -3.07,-11.788 -2.929,-11.506C-2.864,-11.375 -2.771,-11.25 -2.665,-11.152C-2.511,-11.01 -2.343,-10.877 -2.162,-10.774C-1.998,-10.68 -1.813,-10.598 -1.629,-10.57C-1.22,-10.506 -0.805,-10.491 -0.39,-10.54C0.163,-10.607 0.725,-10.611 1.25,-10.828C1.291,-10.845 1.332,-10.858 1.374,-10.87C1.65,-10.957 1.893,-11.101 2.104,-11.298C2.206,-11.392 2.279,-11.504 2.34,-11.628C2.429,-11.809 2.436,-12.008 2.473,-12.199C2.508,-12.373 2.498,-12.556 2.513,-12.735C2.529,-12.925 2.498,-13.103 2.398,-13.269C2.36,-13.332 2.327,-13.399 2.291,-13.464C2.236,-13.564 2.158,-13.638 2.064,-13.703C1.769,-13.911 1.434,-14.025 1.087,-14.093C0.815,-14.147 0.54,-14.128 0.301,-13.965C0.086,-13.82 -0.125,-13.665 -0.323,-13.498C-0.41,-13.426 -0.487,-13.322 -0.524,-13.215C-0.692,-12.727 -0.645,-12.284 -0.25,-11.903C-0.098,-11.756 0.077,-11.659 0.281,-11.612C0.417,-11.58 0.561,-11.574 0.679,-11.645C0.88,-11.765 1.033,-11.941 1.097,-12.171C1.197,-12.534 0.935,-12.821 0.564,-12.764C0.429,-12.742 0.277,-12.61 0.247,-12.482C0.231,-12.419 0.232,-12.357 0.292,-12.314C0.363,-12.263 0.482,-12.264 0.554,-12.317C0.585,-12.34 0.613,-12.368 0.648,-12.401C0.676,-12.195 0.64,-12.142 0.464,-12.128C0.404,-12.124 0.34,-12.129 0.282,-12.147C0.108,-12.201 0.04,-12.331 0.086,-12.507C0.158,-12.784 0.43,-12.964 0.727,-12.922C0.936,-12.892 1.13,-12.825 1.209,-12.6C1.289,-12.376 1.309,-12.148 1.171,-11.94C1.086,-11.812 0.982,-11.696 0.874,-11.586C0.775,-11.489 0.647,-11.434 0.504,-11.434C0.257,-11.434 0.022,-11.491 -0.178,-11.639C-0.6,-11.951 -0.835,-12.357 -0.767,-12.9C-0.729,-13.202 -0.632,-13.478 -0.374,-13.67C-0.209,-13.792 -0.047,-13.916 0.118,-14.037C0.469,-14.295 0.858,-14.326 1.267,-14.217C1.393,-14.184 1.517,-14.146 1.64,-14.103C1.882,-14.018 2.118,-13.906 2.292,-13.72C2.548,-13.446 2.689,-13.109 2.671,-12.723C2.659,-12.477 2.636,-12.231 2.609,-11.985C2.598,-11.888 2.61,-11.802 2.654,-11.717C2.796,-11.436 2.929,-11.151 3.081,-10.874C3.244,-10.576 3.424,-10.287 3.596,-9.993C3.833,-9.588 4.14,-9.243 4.504,-8.947C4.614,-8.857 4.711,-8.752 4.812,-8.652C4.834,-8.629 4.843,-8.594 4.862,-8.557C4.718,-8.562 4.719,-8.561 4.706,-8.443C4.699,-8.375 4.693,-8.307 4.68,-8.241C4.568,-7.696 4.385,-7.178 4.054,-6.725C3.83,-6.419 3.588,-6.126 3.28,-5.904C3.034,-5.726 2.769,-5.576 2.483,-5.467C2.293,-5.396 2.106,-5.318 1.917,-5.242M2.529,-11.638C2.503,-11.597 2.485,-11.574 2.474,-11.548C2.394,-11.367 2.271,-11.223 2.117,-11.103C1.907,-10.938 1.681,-10.8 1.419,-10.725C1.141,-10.646 0.876,-10.52 0.581,-10.493C0.136,-10.454 -0.306,-10.395 -0.751,-10.361C-1.085,-10.335 -1.417,-10.387 -1.748,-10.43C-1.772,-10.434 -1.797,-10.44 -1.82,-10.449C-2.451,-10.692 -2.969,-11.055 -3.194,-11.733C-3.205,-11.764 -3.225,-11.792 -3.245,-11.832C-3.258,-11.805 -3.269,-11.794 -3.268,-11.784C-3.239,-11.425 -3.337,-11.083 -3.443,-10.748C-3.621,-10.188 -3.813,-9.632 -4.006,-9.077C-4.163,-8.629 -4.389,-8.219 -4.709,-7.865C-4.755,-7.814 -4.797,-7.759 -4.829,-7.7C-4.846,-7.667 -4.852,-7.616 -4.838,-7.583C-4.587,-6.999 -4.295,-6.441 -3.809,-6.012C-3.459,-5.703 -3.089,-5.431 -2.636,-5.282C-2.31,-5.174 -1.975,-5.124 -1.64,-5.062C-1.339,-5.005 -1.04,-4.991 -0.737,-5.044C-0.664,-5.058 -0.588,-5.05 -0.514,-5.055C-0.329,-5.066 -0.143,-5.07 0.042,-5.092C0.41,-5.137 0.776,-5.207 1.146,-5.241C1.464,-5.268 1.764,-5.346 2.062,-5.458C2.683,-5.692 3.265,-5.976 3.701,-6.503C3.972,-6.83 4.208,-7.174 4.359,-7.573C4.476,-7.88 4.559,-8.197 4.628,-8.518C4.651,-8.626 4.633,-8.691 4.551,-8.755C4.415,-8.862 4.277,-8.968 4.151,-9.086C3.877,-9.341 3.651,-9.634 3.46,-9.955C3.226,-10.349 2.975,-10.733 2.787,-11.153C2.714,-11.314 2.621,-11.466 2.529,-11.638M-2.07,-0.709C-2.135,-0.825 -2.2,-0.916 -2.241,-1.019C-2.33,-1.241 -2.355,-1.476 -2.33,-1.711C-2.305,-1.938 -2.258,-2.162 -2.222,-2.388C-2.217,-2.416 -2.217,-2.445 -2.212,-2.514C-2.295,-2.442 -2.351,-2.397 -2.401,-2.347C-2.744,-2.015 -3.138,-1.763 -3.586,-1.599C-3.808,-1.518 -4.03,-1.52 -4.258,-1.595C-4.796,-1.772 -5.096,-2.163 -5.26,-2.681C-5.318,-2.865 -5.364,-3.052 -5.327,-3.246C-5.308,-3.349 -5.282,-3.453 -5.237,-3.546C-5.062,-3.907 -4.774,-4.154 -4.411,-4.314C-4.162,-4.423 -3.905,-4.513 -3.634,-4.556C-3.604,-4.561 -3.575,-4.571 -3.525,-4.583C-3.603,-4.686 -3.668,-4.778 -3.742,-4.865C-3.755,-4.88 -3.801,-4.88 -3.827,-4.872C-3.892,-4.853 -3.954,-4.821 -4.018,-4.801C-4.335,-4.701 -4.65,-4.674 -4.954,-4.846C-5.113,-4.937 -5.161,-5.048 -5.119,-5.218C-5.11,-5.252 -5.096,-5.285 -5.079,-5.336C-5.147,-5.342 -5.207,-5.349 -5.267,-5.352C-5.634,-5.367 -5.994,-5.423 -6.339,-5.551C-6.454,-5.594 -6.562,-5.659 -6.666,-5.726C-6.821,-5.826 -6.876,-5.981 -6.854,-6.16C-6.823,-6.403 -6.71,-6.593 -6.482,-6.702C-6.455,-6.715 -6.427,-6.729 -6.384,-6.749C-6.468,-6.769 -6.538,-6.786 -6.608,-6.803C-7.046,-6.904 -7.385,-7.144 -7.623,-7.527C-7.748,-7.727 -7.853,-7.938 -7.921,-8.163C-7.976,-8.344 -7.988,-8.529 -7.906,-8.707C-7.839,-8.855 -7.729,-8.937 -7.566,-8.96C-7.323,-8.994 -7.084,-8.979 -6.846,-8.932C-6.547,-8.872 -6.256,-8.791 -5.989,-8.637C-5.97,-8.625 -5.947,-8.621 -5.914,-8.61C-5.952,-8.81 -5.992,-8.996 -6.02,-9.184C-6.1,-9.708 -6.022,-10.218 -5.86,-10.719C-5.639,-11.406 -5.307,-12.029 -4.836,-12.577C-4.713,-12.723 -4.602,-12.879 -4.475,-13.043C-4.634,-13.129 -4.707,-13.294 -4.799,-13.448C-4.892,-13.603 -4.919,-13.771 -4.911,-13.947C-4.893,-14.326 -4.95,-14.701 -5.015,-15.073C-5.038,-15.202 -5.109,-15.326 -5.173,-15.446C-5.225,-15.543 -5.299,-15.628 -5.361,-15.721C-5.471,-15.886 -5.581,-16.051 -5.687,-16.218C-5.869,-16.502 -5.897,-16.826 -5.885,-17.148C-5.871,-17.534 -5.651,-17.809 -5.314,-17.979C-4.995,-18.141 -4.651,-18.17 -4.301,-18.094C-4.037,-18.037 -3.791,-17.93 -3.577,-17.768C-3.021,-17.348 -2.508,-16.882 -2.125,-16.292C-1.971,-16.054 -1.843,-15.798 -1.702,-15.551C-1.649,-15.457 -1.649,-15.457 -1.547,-15.503C-1.321,-15.608 -1.088,-15.7 -0.836,-15.697C-0.633,-15.695 -0.43,-15.666 -0.229,-15.637C-0.151,-15.625 -0.119,-15.638 -0.098,-15.714C-0.034,-15.941 0.032,-16.167 0.105,-16.39C0.287,-16.946 0.604,-17.425 0.949,-17.889C1.038,-18.008 1.132,-18.123 1.229,-18.237C1.413,-18.451 1.633,-18.619 1.887,-18.743C2.21,-18.899 2.551,-18.937 2.9,-18.861C3.34,-18.764 3.624,-18.43 3.697,-17.986C3.755,-17.631 3.712,-17.297 3.576,-16.969C3.523,-16.844 3.477,-16.715 3.415,-16.594C3.258,-16.285 3.214,-15.961 3.246,-15.62C3.271,-15.343 3.31,-15.068 3.381,-14.797C3.463,-14.483 3.364,-14.2 3.208,-13.93C3.19,-13.899 3.164,-13.872 3.135,-13.833C3.18,-13.797 3.22,-13.761 3.264,-13.728C3.735,-13.373 4.187,-12.997 4.544,-12.523C4.885,-12.071 5.177,-11.591 5.342,-11.044C5.421,-10.783 5.463,-10.514 5.465,-10.24C5.467,-10.106 5.47,-9.971 5.473,-9.816C5.519,-9.848 5.552,-9.869 5.583,-9.894C5.917,-10.174 6.305,-10.348 6.72,-10.464C6.832,-10.495 6.953,-10.5 7.07,-10.506C7.194,-10.513 7.297,-10.458 7.377,-10.362C7.503,-10.21 7.548,-10.031 7.534,-9.841C7.51,-9.537 7.437,-9.243 7.309,-8.964C7.155,-8.631 6.91,-8.386 6.583,-8.222C6.503,-8.181 6.421,-8.143 6.321,-8.093C6.627,-8.047 6.815,-7.888 6.908,-7.617C6.966,-7.444 6.938,-7.288 6.814,-7.151C6.701,-7.025 6.568,-6.925 6.419,-6.846C6.128,-6.692 5.826,-6.567 5.505,-6.491C5.458,-6.479 5.411,-6.461 5.367,-6.448C5.365,-6.43 5.359,-6.415 5.364,-6.409C5.51,-6.201 5.461,-6.031 5.261,-5.882C5.018,-5.701 4.737,-5.674 4.447,-5.691C4.35,-5.697 4.252,-5.715 4.154,-5.728C4.112,-5.647 4.07,-5.565 4.028,-5.483C4.014,-5.456 4.001,-5.43 3.979,-5.385C4.14,-5.379 4.285,-5.377 4.43,-5.367C4.69,-5.35 4.945,-5.306 5.192,-5.216C5.437,-5.127 5.639,-4.982 5.817,-4.795C5.993,-4.61 6.078,-4.39 6.086,-4.141C6.099,-3.762 6.03,-3.398 5.819,-3.077C5.586,-2.725 5.27,-2.492 4.832,-2.467C4.747,-2.461 4.659,-2.47 4.574,-2.487C4.132,-2.572 3.715,-2.72 3.336,-2.969C3.3,-2.993 3.262,-3.015 3.224,-3.034C3.203,-3.046 3.179,-3.052 3.132,-3.07C3.151,-3.017 3.164,-2.981 3.177,-2.945C3.238,-2.789 3.298,-2.634 3.36,-2.479C3.514,-2.091 3.56,-1.701 3.367,-1.298C3.521,-1.23 3.681,-1.223 3.836,-1.202C4.008,-1.179 4.182,-1.165 4.349,-1.126C4.753,-1.032 5.161,-0.946 5.553,-0.814C5.867,-0.707 6.169,-0.555 6.462,-0.396C6.809,-0.206 7.019,0.106 7.139,0.478C7.166,0.561 7.189,0.644 7.209,0.728C7.289,1.076 7.197,1.396 7.021,1.688C6.748,2.138 6.385,2.511 5.942,2.798C5.6,3.019 5.211,3.093 4.809,3.106C4.756,3.107 4.7,3.087 4.648,3.068C4.374,2.967 4.12,2.825 3.871,2.674C3.573,2.496 3.295,2.29 3.025,2.072C2.996,2.049 2.966,2.025 2.942,1.998C2.587,1.593 2.206,1.211 1.942,0.733C1.841,0.549 1.709,0.383 1.597,0.206C1.551,0.133 1.506,0.124 1.428,0.157C1.011,0.332 0.579,0.374 0.135,0.294C0.053,0.279 0.011,0.295 -0.019,0.377C-0.095,0.586 -0.187,0.79 -0.26,1C-0.384,1.358 -0.535,1.703 -0.741,2.022C-0.761,2.053 -0.781,2.085 -0.798,2.118C-0.976,2.477 -1.237,2.773 -1.517,3.056C-1.782,3.325 -2.054,3.587 -2.372,3.796C-2.462,3.855 -2.555,3.89 -2.662,3.908C-3.283,4.007 -3.842,3.859 -4.35,3.5C-4.531,3.371 -4.715,3.243 -4.881,3.095C-5.282,2.738 -5.465,2.299 -5.377,1.751C-5.31,1.328 -5.127,0.979 -4.795,0.708C-4.377,0.364 -3.931,0.066 -3.427,-0.141C-3.159,-0.251 -2.899,-0.384 -2.631,-0.496C-2.473,-0.564 -2.306,-0.613 -2.143,-0.671C-2.121,-0.679 -2.1,-0.693 -2.07,-0.709" style="fill:rgb(35,31,32);fill-rule:nonzero;"/>
            </g>
        </g>
        <g transform="matrix(5.55556,0,0,5.55556,7263.77,9566.93)">
            <g transform="matrix(1,0,0,1,231.355,551.354)">
                <path d="M0,-0.163C-0.046,-0.004 -0.029,0.173 0.047,0.319C0.125,0.467 0.275,0.588 0.441,0.582C0.563,0.578 0.675,0.507 0.754,0.413C0.919,0.217 0.945,-0.086 0.814,-0.308C0.758,-0.403 0.568,-0.744 0.456,-0.747C0.292,-0.751 0.037,-0.288 0,-0.163" style="fill:white;fill-rule:nonzero;"/>
            </g>
        </g>
        <g transform="matrix(5.55556,0,0,5.55556,7263.77,9566.93)">
            <g transform="matrix(1,0,0,1,229.503,527.842)">
                <path d="M0,29.21C-0.348,29.315 -0.525,29.395 -0.709,29.421C-1.251,29.498 -1.796,29.549 -2.338,29.622C-2.611,29.659 -3.016,29.628 -2.956,30.035C-2.906,30.364 -2.553,30.269 -2.298,30.232C-0.868,30.033 0.569,29.945 2.013,29.981C2.329,29.988 2.655,29.991 2.96,29.923C5.562,29.339 8.213,29.247 10.859,29.088C13.275,28.943 15.688,28.76 18.101,28.573C18.741,28.524 19.206,28.271 19.414,27.547C19.592,26.923 19.99,26.362 20.292,25.774C20.363,25.638 20.441,25.506 20.563,25.287C20.32,25.287 20.18,25.276 20.042,25.289C18.464,25.427 16.886,25.568 15.309,25.707C14.792,25.753 14.269,25.759 13.758,25.844C11.26,26.259 8.76,26.669 6.27,27.131C3.772,27.593 1.259,27.88 -1.279,27.951C-1.508,27.957 -1.741,27.981 -1.964,28.029C-2.303,28.103 -2.473,28.327 -2.527,28.72C-2.03,28.632 -1.608,28.552 -1.184,28.486C-0.729,28.415 -0.271,28.359 0.185,28.295C0.714,28.22 0.845,28.231 1.563,28.462C0.708,28.578 0.029,28.653 -0.643,28.766C-1.315,28.878 -2.012,28.903 -2.641,29.216C-1.816,29.281 -1.01,28.93 0,29.21M-3.68,30.183C-3.579,29.999 -3.539,29.953 -3.525,29.9C-3.311,29.034 -3.141,28.154 -2.419,27.515C-2.317,27.424 -2.278,27.191 -2.301,27.039C-2.419,26.244 -2.54,25.447 -2.711,24.663C-3.012,23.287 -3.393,21.927 -3.663,20.545C-4.153,18.033 -4.597,15.512 -5.042,12.99C-5.411,10.894 -5.795,8.798 -5.745,6.651C-5.733,6.168 -5.846,5.682 -5.884,5.195C-5.959,4.25 -6.027,3.305 -6.088,2.358C-6.103,2.129 -6.073,1.898 -6.081,1.667C-6.094,1.24 -6.28,1.096 -6.684,1.239C-7.233,1.436 -7.539,1.852 -7.762,2.393C-8.411,3.966 -8.227,5.622 -8.171,7.229C-8.109,9.03 -7.746,10.823 -7.498,12.617C-7.213,14.668 -6.958,16.724 -6.603,18.763C-6.278,20.63 -5.881,22.489 -5.435,24.332C-5.009,26.09 -4.481,27.823 -3.988,29.564C-3.937,29.746 -3.819,29.909 -3.68,30.183M-5.589,2.596C-5.607,2.599 -5.625,2.601 -5.642,2.603C-5.573,3.231 -5.505,3.859 -5.436,4.487C-5.352,5.26 -5.25,6.031 -5.185,6.806C-5.094,7.867 -5.085,8.939 -4.942,9.991C-4.74,11.475 -4.464,12.948 -4.191,14.42C-3.682,17.166 -3.167,19.911 -2.624,22.649C-2.411,23.722 -2.101,24.773 -1.861,25.84C-1.773,26.231 -1.767,26.641 -1.712,27.04C-1.671,27.341 -1.491,27.499 -1.183,27.494C-1.039,27.491 -0.895,27.481 -0.752,27.467C1.313,27.274 3.376,27.085 5.417,26.687C7.648,26.251 9.894,25.885 12.131,25.474C13.492,25.224 14.851,25 16.239,24.939C17.504,24.883 18.766,24.725 20.025,24.586C20.51,24.533 20.989,24.417 21.468,24.32C21.708,24.272 21.793,24.115 21.746,23.873C21.5,22.603 21.294,21.323 21.006,20.063C20.679,18.632 20.187,17.234 19.93,15.793C19.365,12.621 18.903,9.43 18.398,6.246C18.2,4.995 18.026,3.739 17.788,2.495C17.593,1.479 17.326,0.475 17.074,-0.531C16.98,-0.907 16.753,-1.101 16.318,-1.061C15.228,-0.959 14.133,-0.898 13.04,-0.814C11.086,-0.665 9.133,-0.5 7.178,-0.361C5.855,-0.268 4.529,-0.216 3.206,-0.128C2.689,-0.093 2.173,-0.019 1.66,0.055C-0.279,0.335 -2.216,0.619 -4.153,0.909C-4.604,0.977 -5.052,1.073 -5.5,1.156C-5.53,1.607 -5.56,2.059 -5.589,2.51C-5.591,2.538 -5.589,2.567 -5.589,2.596M-8.773,5.574C-8.723,4.405 -8.583,3.271 -8.173,2.171C-7.835,1.264 -7.193,0.781 -6.243,0.697C-5.068,0.594 -3.894,0.473 -2.726,0.308C-0.816,0.037 1.084,-0.306 2.997,-0.559C4.138,-0.71 5.294,-0.751 6.444,-0.835C8.714,-1.002 10.984,-1.165 13.254,-1.328C14.29,-1.402 15.327,-1.456 16.36,-1.552C16.913,-1.603 17.263,-1.381 17.411,-0.878C17.728,0.198 18.089,1.269 18.296,2.368C18.647,4.233 18.882,6.121 19.187,7.995C19.33,8.876 19.538,9.746 19.691,10.625C20.043,12.638 20.329,14.664 20.739,16.665C21.022,18.044 21.51,19.38 21.828,20.753C22.093,21.9 22.256,23.073 22.441,24.238C22.514,24.7 22.427,24.758 21.935,24.962C21.706,25.058 21.479,25.203 21.306,25.38C20.588,26.115 20.077,26.988 19.819,27.981C19.674,28.536 19.339,28.804 18.824,28.921C18.571,28.979 18.318,29.051 18.062,29.067C14.697,29.294 11.329,29.48 7.968,29.747C6.334,29.877 4.712,30.158 3.086,30.372C2.858,30.402 2.632,30.459 2.403,30.47C0.706,30.549 -0.993,30.62 -2.691,30.694C-2.835,30.7 -2.98,30.699 -3.123,30.716C-3.973,30.813 -4.283,30.644 -4.531,29.841C-4.871,28.742 -5.176,27.632 -5.487,26.524C-5.697,25.776 -5.921,25.03 -6.088,24.273C-6.452,22.614 -6.82,20.956 -7.118,19.285C-7.426,17.558 -7.684,15.819 -7.907,14.078C-8.144,12.222 -8.319,10.358 -8.511,8.496C-8.611,7.523 -8.686,6.549 -8.773,5.574" style="fill:rgb(35,31,32);fill-rule:nonzero;"/>
            </g>
        </g>
        <g transform="matrix(5.55556,0,0,5.55556,7263.77,9566.93)">
            <g transform="matrix(1,0,0,1,225.823,528.938)">
                <path d="M0,29.087C-0.139,28.814 -0.256,28.65 -0.308,28.469C-0.801,26.728 -1.329,24.994 -1.755,23.236C-2.201,21.394 -2.598,19.534 -2.923,17.667C-3.277,15.628 -3.533,13.572 -3.817,11.522C-4.066,9.728 -4.429,7.935 -4.491,6.133C-4.546,4.526 -4.731,2.87 -4.082,1.297C-3.859,0.756 -3.553,0.34 -3.003,0.144C-2.6,0 -2.414,0.145 -2.4,0.571C-2.393,0.802 -2.423,1.033 -2.408,1.263C-2.347,2.209 -2.279,3.154 -2.204,4.1C-2.166,4.586 -2.053,5.072 -2.064,5.556C-2.115,7.702 -1.731,9.798 -1.361,11.895C-0.917,14.416 -0.473,16.938 0.018,19.449C0.288,20.831 0.668,22.191 0.969,23.567C1.14,24.352 1.261,25.149 1.379,25.943C1.402,26.096 1.363,26.328 1.261,26.419C0.54,27.059 0.369,27.939 0.155,28.805C0.142,28.858 0.102,28.903 0,29.087" style="fill:rgb(19,117,188);fill-rule:nonzero;"/>
            </g>
        </g>
        <g transform="matrix(5.55556,0,0,5.55556,7263.77,9566.93)">
            <g transform="matrix(1,0,0,1,229.503,554.272)">
                <path d="M0,2.78C-1.01,2.5 -1.816,2.851 -2.641,2.786C-2.012,2.473 -1.315,2.448 -0.643,2.336C0.029,2.223 0.708,2.148 1.563,2.032C0.845,1.801 0.714,1.79 0.185,1.865C-0.271,1.929 -0.729,1.985 -1.184,2.056C-1.608,2.122 -2.03,2.202 -2.527,2.29C-2.473,1.897 -2.303,1.673 -1.964,1.599C-1.741,1.551 -1.508,1.527 -1.279,1.521C1.259,1.45 3.772,1.163 6.27,0.701C8.76,0.239 11.26,-0.171 13.758,-0.586C14.269,-0.671 14.792,-0.677 15.309,-0.723C16.886,-0.862 18.464,-1.003 20.042,-1.141C20.18,-1.154 20.32,-1.143 20.563,-1.143C20.441,-0.924 20.363,-0.792 20.292,-0.656C19.99,-0.068 19.592,0.493 19.414,1.117C19.206,1.841 18.741,2.094 18.101,2.143C15.688,2.33 13.275,2.513 10.859,2.658C8.213,2.817 5.562,2.909 2.96,3.493C2.655,3.561 2.329,3.558 2.013,3.551C0.569,3.515 -0.868,3.603 -2.298,3.802C-2.553,3.839 -2.906,3.934 -2.956,3.605C-3.016,3.198 -2.611,3.229 -2.338,3.192C-1.796,3.119 -1.251,3.068 -0.709,2.991C-0.525,2.965 -0.348,2.885 0,2.78" style="fill:rgb(255,252,217);fill-rule:nonzero;"/>
            </g>
        </g>
        <g transform="matrix(5.55556,0,0,5.55556,7263.77,9566.93)">
            <g opacity="0.2">
                <g transform="matrix(1,0,0,1,246.064,558.076)">
                    <path d="M0,-31.577C-3.595,-30.567 -7.189,-29.558 -10.784,-28.549C-12.039,-28.196 -13.329,-27.827 -14.358,-27.028C-15.297,-26.3 -15.949,-25.266 -16.516,-24.223C-19.084,-19.5 -20.324,-14.064 -20.058,-8.696C-19.962,-6.765 -19.495,-4.565 -17.799,-3.637C-16.685,-3.026 -15.29,-3.131 -14.164,-2.54C-15.122,-2.345 -16.08,-2.15 -17.038,-1.955C-17.267,-1.909 -17.506,-1.857 -17.685,-1.706C-17.857,-1.559 -17.947,-1.341 -18.066,-1.147C-18.566,-0.339 -19.705,0 -20.565,-0.403C-22.125,-6.278 -23.342,-12.027 -24.353,-18.02C-24.76,-20.44 -25.169,-22.88 -25.079,-25.332C-25.044,-26.272 -24.927,-27.239 -24.466,-28.059C-24.006,-28.881 -23.125,-29.341 -22.195,-29.482C-13.564,-30.793 -7.351,-31.014 0,-31.577" style="fill:rgb(59,35,20);fill-rule:nonzero;"/>
                </g>
            </g>
        </g>
        <g transform="matrix(5.55556,0,0,5.55556,7263.77,9566.93)">
            <g transform="matrix(1.12981,-0.131265,0.030547,1.00318,-82.4242,9.57628)">
                <text x="257.969px" y="556.362px" style="font-family:'ITCAvantGardeStd-Bk', 'ITC Avant Garde Gothic Std', sans-serif;font-weight:300;font-size:4.946px;fill:rgb(35,31,32);">Cmic</text>
            </g>
        </g>
    </g>
</svg>
