<?xml version="1.0" encoding="UTF-8" standalone="no"?>
<!DOCTYPE svg PUBLIC "-//W3C//DTD SVG 1.1//EN" "http://www.w3.org/Graphics/SVG/1.1/DTD/svg11.dtd">
<svg width="100%" height="100%" viewBox="0 0 299 119" version="1.1" xmlns="http://www.w3.org/2000/svg" xmlns:xlink="http://www.w3.org/1999/xlink" xml:space="preserve" xmlns:serif="http://www.serif.com/" style="fill-rule:evenodd;clip-rule:evenodd;stroke-linejoin:round;stroke-miterlimit:2;">
    <g transform="matrix(1,0,0,1,-8008.7,-13182)">
        <g transform="matrix(5.55556,0,0,5.55556,7263.77,9566.93)">
            <g transform="matrix(1,0,0,1,144.949,662.656)">
                <path d="M0,-2.608C0.284,-2.567 0.435,-2.53 0.588,-2.525C3.258,-2.437 5.928,-2.356 8.598,-2.265C8.915,-2.254 9.236,-2.219 9.544,-2.146C11.653,-1.643 13.797,-1.535 15.955,-1.528C16.46,-1.527 16.882,-1.661 17.281,-1.967C18.261,-2.721 19.263,-3.447 20.249,-4.194C22.506,-5.903 24.762,-7.616 27.013,-9.335C27.17,-9.455 27.279,-9.636 27.494,-9.886C26.505,-9.928 25.67,-9.953 24.837,-10.001C22.41,-10.139 19.984,-10.312 17.556,-10.421C16.042,-10.489 14.52,-10.417 13.008,-10.509C12.486,-10.541 12.094,-10.454 11.675,-10.182C10.771,-9.597 9.854,-9.034 8.927,-8.486C6.937,-7.308 4.935,-6.151 2.944,-4.974C1.883,-4.346 0.976,-3.527 0,-2.608M11.207,-10.519C11.175,-10.61 11.143,-10.702 11.111,-10.794C10.92,-10.831 10.729,-10.901 10.538,-10.901C8.341,-10.902 6.145,-10.891 3.948,-10.887C3.564,-10.886 3.312,-10.658 3.003,-10.465C1.549,-9.559 0.116,-8.584 -1.437,-7.88C-4.101,-6.675 -6.69,-5.357 -9.113,-3.723C-10.368,-2.878 -10.358,-2.863 -10.071,-1.409C-10.056,-1.331 -10.031,-1.254 -10.014,-1.176C-9.583,0.809 -9.105,2.787 -8.745,4.786C-8.614,5.515 -8.45,5.603 -7.868,5.633C-4.72,5.798 -1.571,5.977 1.577,6.152C1.976,6.174 2.374,6.196 2.772,6.225C4.523,6.353 6.273,6.483 8.024,6.617C8.739,6.67 9.454,6.732 10.168,6.793C11.36,6.895 12.552,6.991 13.743,7.103C14.933,7.215 16.127,7.304 17.309,7.477C19.4,7.784 21.482,8.149 23.569,8.482C23.804,8.52 24.048,8.502 24.287,8.516C24.745,8.541 24.934,8.311 24.941,7.871C24.967,6.198 24.991,4.525 25.035,2.852C25.058,1.981 25.11,1.111 25.176,0.243C25.185,0.124 25.354,0.018 25.448,-0.094C25.578,0.025 25.764,0.121 25.822,0.268C25.89,0.443 25.835,0.663 25.856,0.86C25.887,1.147 25.937,1.432 25.987,1.775C27.417,0.947 28.717,0.174 30.037,-0.566C31.34,-1.296 32.492,-2.28 33.908,-2.838C33.524,-2.384 33.11,-1.962 32.62,-1.663C30.679,-0.475 28.735,0.71 26.747,1.816C26.049,2.203 25.72,2.643 25.847,3.418C25.882,3.634 25.911,3.852 25.954,4.147C27.906,2.797 30.12,2.067 31.816,0.496C31.845,0.469 31.886,0.44 31.92,0.441C32.027,0.443 32.176,0.422 32.229,0.482C32.283,0.543 32.29,0.739 32.237,0.788C31.767,1.213 31.326,1.703 30.786,2.017C29.338,2.861 27.851,3.638 26.366,4.415C26.112,4.549 25.859,4.597 25.852,4.96C25.831,6.084 25.79,7.208 25.756,8.33C27.164,7.267 28.526,6.228 29.9,5.206C31.887,3.73 33.887,2.272 35.874,0.794C37.189,-0.184 38.524,-1.128 40.035,-1.795C40.436,-1.971 40.835,-2.172 41.188,-2.427C41.393,-2.577 41.616,-2.845 41.637,-3.078C41.697,-3.738 41.658,-4.408 41.658,-5.219C40.793,-4.867 40.033,-4.556 39.272,-4.246C39.865,-4.785 40.495,-5.206 41.154,-5.574C41.709,-5.883 41.923,-6.33 41.936,-6.944C41.947,-7.501 42.037,-8.054 42.076,-8.611C42.089,-8.795 42.052,-8.984 42.038,-9.17C41.816,-9.134 41.567,-9.149 41.377,-9.051C40.669,-8.686 39.991,-8.26 39.28,-7.898C37.432,-6.956 35.57,-6.039 33.717,-5.105C31.435,-3.957 29.157,-2.797 26.87,-1.656C26.668,-1.555 26.418,-1.549 26.19,-1.5C27.693,-2.564 29.267,-3.406 30.837,-4.254C32.419,-5.108 33.985,-5.99 35.58,-6.818C37.161,-7.639 38.769,-8.409 40.365,-9.201C40.1,-9.406 39.883,-9.446 39.664,-9.454C36.751,-9.555 33.839,-9.652 30.926,-9.752C30.767,-9.756 30.598,-9.74 30.449,-9.784C29.416,-10.089 28.625,-9.684 27.815,-9.061C25.031,-6.918 22.205,-4.83 19.396,-2.718C18.936,-2.373 18.481,-2.02 18.024,-1.671C18.047,-1.59 18.069,-1.511 18.091,-1.431C18.552,-1.388 19.013,-1.336 19.475,-1.304C20.787,-1.216 22.101,-1.147 23.413,-1.044C23.567,-1.032 23.708,-0.856 23.855,-0.755C23.72,-0.633 23.586,-0.409 23.45,-0.407C22.813,-0.397 22.176,-0.44 21.541,-0.481C19.831,-0.591 18.123,-0.781 16.412,-0.808C14.291,-0.842 12.191,-1.038 10.098,-1.349C9.468,-1.443 8.846,-1.639 8.214,-1.674C5.902,-1.802 3.588,-1.921 1.273,-1.97C-1.722,-2.034 -4.721,-1.925 -7.706,-2.284C-8.398,-2.367 -9.111,-2.366 -9.683,-2.903C-9.004,-2.944 -8.339,-2.881 -7.672,-2.842C-5.719,-2.729 -3.765,-2.627 -1.812,-2.518C-1.393,-2.495 -1.088,-2.637 -0.757,-2.935C0.52,-4.083 1.88,-5.119 3.333,-6.049C5.153,-7.216 7.016,-8.289 8.962,-9.226C9.738,-9.6 10.46,-10.085 11.207,-10.519M7.869,-11.942C9.393,-11.781 11.288,-11.58 13.184,-11.383C13.541,-11.347 13.899,-11.323 14.258,-11.313C17.051,-11.243 19.846,-11.192 22.639,-11.101C23.594,-11.07 24.544,-10.908 25.5,-10.864C27.613,-10.767 29.729,-10.719 31.843,-10.63C33.558,-10.559 35.271,-10.451 36.985,-10.372C38.5,-10.302 40.017,-10.248 41.533,-10.191C42.713,-10.146 42.81,-10.059 42.836,-8.859C42.843,-8.544 42.793,-8.226 42.762,-7.91C42.735,-7.631 42.633,-7.343 42.678,-7.08C42.935,-5.601 42.377,-4.183 42.364,-2.724C42.361,-2.44 42.044,-2.116 41.799,-1.888C41.572,-1.678 41.255,-1.556 40.964,-1.426C38.905,-0.505 37.102,0.801 35.326,2.175C33.589,3.518 31.761,4.742 29.987,6.036C28.73,6.954 27.487,7.891 26.255,8.842C25.802,9.192 25.405,9.334 24.762,9.298C21.725,9.127 18.755,8.509 15.756,8.097C15.244,8.026 14.718,8.062 14.202,8.017C12.852,7.901 11.503,7.765 10.153,7.64C9.717,7.6 9.279,7.572 8.842,7.539C6.932,7.398 5.022,7.254 3.112,7.119C2.674,7.087 2.234,7.089 1.795,7.063C-0.476,6.929 -2.746,6.796 -5.017,6.652C-6.012,6.589 -7.012,6.548 -7.998,6.41C-9.093,6.255 -9.25,6.074 -9.421,4.993C-9.746,2.943 -10.133,0.911 -10.724,-1.085C-11.007,-2.04 -10.895,-2.989 -10.002,-3.666C-9.398,-4.123 -8.839,-4.662 -8.181,-5.02C-5.973,-6.222 -3.702,-7.308 -1.511,-8.539C-0.059,-9.355 1.292,-10.349 2.699,-11.249C2.953,-11.411 3.249,-11.575 3.539,-11.603C4.849,-11.733 6.164,-11.814 7.869,-11.942" style="fill:rgb(35,31,32);fill-rule:nonzero;"/>
            </g>
        </g>
        <g transform="matrix(5.55556,0,0,5.55556,7263.77,9566.93)">
            <g transform="matrix(1,0,0,1,153.441,658.061)">
                <path d="M0,6.83C-1.545,6.527 -5.847,6.545 -7.029,6.815C-3.14,7.207 -1.157,7.232 0,6.83M1.906,6.102C1.91,6.006 1.915,5.908 1.919,5.811C1.733,5.764 1.549,5.707 1.36,5.67C1.009,5.601 0.658,5.521 0.303,5.483C-3.59,5.067 -7.494,5.208 -11.396,5.26C-11.829,5.266 -12.25,5.323 -12.613,5.628C-10.171,5.736 -7.744,5.689 -5.318,5.75C-2.909,5.81 -0.502,5.98 1.906,6.102M2.715,-5.924C1.968,-5.489 1.246,-5.005 0.471,-4.631C-1.476,-3.693 -3.338,-2.621 -5.159,-1.454C-6.612,-0.524 -7.972,0.513 -9.249,1.66C-9.58,1.958 -9.885,2.101 -10.304,2.077C-12.257,1.969 -14.21,1.866 -16.164,1.753C-16.831,1.714 -17.496,1.651 -18.174,1.692C-17.603,2.229 -16.89,2.228 -16.197,2.311C-13.212,2.67 -10.213,2.561 -7.219,2.625C-4.904,2.675 -2.59,2.793 -0.278,2.921C0.354,2.956 0.976,3.152 1.606,3.246C3.7,3.558 5.799,3.753 7.92,3.787C9.631,3.814 11.339,4.004 13.049,4.114C13.685,4.155 14.322,4.198 14.958,4.188C15.095,4.186 15.228,3.962 15.363,3.84C15.216,3.739 15.075,3.563 14.921,3.552C13.609,3.448 12.295,3.379 10.983,3.291C10.521,3.26 10.061,3.207 9.6,3.164C9.577,3.084 9.555,3.005 9.533,2.925C9.99,2.575 10.444,2.223 10.905,1.877C13.713,-0.234 16.54,-2.322 19.324,-4.466C20.133,-5.089 20.924,-5.494 21.957,-5.189C22.106,-5.145 22.275,-5.161 22.435,-5.156C25.347,-5.057 28.26,-4.96 31.172,-4.858C31.391,-4.851 31.608,-4.811 31.874,-4.606C30.277,-3.814 28.669,-3.044 27.088,-2.223C25.494,-1.395 23.927,-0.513 22.346,0.341C20.775,1.189 19.201,2.031 17.699,3.096C17.926,3.046 18.176,3.04 18.378,2.939C20.665,1.798 22.943,0.639 25.226,-0.51C27.079,-1.443 28.94,-2.36 30.789,-3.303C31.499,-3.665 32.177,-4.091 32.886,-4.456C33.076,-4.554 33.325,-4.539 33.546,-4.575C33.561,-4.389 33.598,-4.2 33.584,-4.016C33.545,-3.459 33.456,-2.905 33.444,-2.349C33.432,-1.734 33.217,-1.288 32.663,-0.979C32.003,-0.61 31.373,-0.19 30.781,0.35C31.541,0.039 32.302,-0.272 33.167,-0.624C33.167,0.187 33.206,0.857 33.145,1.518C33.124,1.75 32.901,2.018 32.696,2.168C32.343,2.423 31.944,2.624 31.543,2.801C30.032,3.468 28.698,4.411 27.382,5.39C25.396,6.867 23.395,8.325 21.409,9.802C20.034,10.823 18.672,11.862 17.264,12.925C17.298,11.804 17.339,10.68 17.36,9.556C17.367,9.192 17.62,9.144 17.875,9.011C19.359,8.233 20.846,7.456 22.294,6.612C22.834,6.298 23.275,5.809 23.745,5.383C23.798,5.334 23.791,5.139 23.737,5.077C23.685,5.018 23.536,5.038 23.429,5.036C23.394,5.035 23.353,5.064 23.325,5.091C21.628,6.662 19.415,7.392 17.462,8.742C17.419,8.447 17.39,8.229 17.355,8.014C17.229,7.238 17.557,6.798 18.255,6.411C20.243,5.306 22.187,4.12 24.128,2.933C24.618,2.634 25.032,2.211 25.417,1.757C24,2.315 22.848,3.3 21.545,4.029C20.226,4.769 18.925,5.542 17.496,6.37C17.445,6.027 17.395,5.742 17.365,5.455C17.344,5.258 17.398,5.038 17.33,4.863C17.272,4.717 17.086,4.62 16.956,4.501C16.862,4.613 16.693,4.72 16.684,4.838C16.618,5.706 16.566,6.576 16.543,7.447C16.499,9.12 16.475,10.793 16.449,12.467C16.442,12.906 16.253,13.137 15.795,13.111C15.556,13.098 15.313,13.115 15.078,13.077C12.99,12.744 10.908,12.379 8.817,12.072C7.636,11.899 6.441,11.81 5.251,11.698C4.061,11.586 2.868,11.49 1.676,11.389C0.962,11.327 0.248,11.266 -0.468,11.212C-2.218,11.078 -3.969,10.948 -5.72,10.82C-6.118,10.791 -6.516,10.769 -6.915,10.747C-10.063,10.572 -13.211,10.393 -16.36,10.228C-16.941,10.198 -17.105,10.11 -17.237,9.381C-17.597,7.382 -18.075,5.404 -18.506,3.419C-18.523,3.341 -18.547,3.265 -18.562,3.186C-18.85,1.732 -18.859,1.718 -17.605,0.872C-15.182,-0.762 -12.592,-2.08 -9.929,-3.285C-8.376,-3.988 -6.943,-4.964 -5.489,-5.87C-5.18,-6.063 -4.927,-6.291 -4.543,-6.292C-2.347,-6.296 -0.15,-6.307 2.046,-6.306C2.237,-6.306 2.428,-6.235 2.619,-6.198C2.651,-6.107 2.683,-6.015 2.715,-5.924" style="fill:rgb(255,220,45);fill-rule:nonzero;"/>
            </g>
        </g>
        <g transform="matrix(5.55556,0,0,5.55556,7263.77,9566.93)">
            <g transform="matrix(1,0,0,1,146.411,658.075)">
                <path d="M0,6.801C1.183,6.53 5.484,6.513 7.029,6.816C5.873,7.218 3.889,7.193 0,6.801M20.8,11.326C18.787,11.235 16.782,10.904 14.82,10.45C13.032,10.038 11.255,9.526 9.552,8.837C9.415,8.781 9.292,8.532 9.464,8.435C10.627,7.778 11.992,7.667 13.294,7.524C14.343,7.407 15.521,7.307 16.445,6.746C14.523,6.503 12.585,6.43 10.65,6.382C8.763,6.335 6.874,6.301 4.993,6.13C4.13,6.052 3.272,5.937 2.414,5.816C2.264,5.795 2.114,5.77 1.964,5.746C1.879,5.744 1.795,5.738 1.711,5.736C-0.714,5.675 -3.142,5.722 -5.584,5.614C-5.221,5.309 -4.799,5.251 -4.367,5.245C-2.941,5.227 -1.515,5.202 -0.089,5.192C-0.523,4.978 -0.901,4.679 -1.055,4.193C-1.217,3.681 -1.123,3.13 -0.934,2.603C-3.681,2.566 -6.431,2.625 -9.168,2.297C-9.86,2.214 -10.574,2.215 -11.145,1.677C-10.466,1.637 -9.801,1.699 -9.134,1.739C-7.181,1.852 -5.228,1.954 -3.274,2.063C-2.855,2.086 -2.55,1.944 -2.219,1.646C-0.943,0.498 0.417,-0.538 1.871,-1.469C3.691,-2.636 5.553,-3.708 7.5,-4.645C8.275,-5.019 8.998,-5.504 9.744,-5.938C9.712,-6.03 9.681,-6.121 9.649,-6.213C9.458,-6.25 9.267,-6.32 9.075,-6.32C6.879,-6.321 4.683,-6.31 2.486,-6.306C2.102,-6.305 1.849,-6.077 1.541,-5.885C0.086,-4.978 -1.347,-4.003 -2.899,-3.3C-5.563,-2.095 -8.152,-0.776 -10.576,0.858C-11.83,1.703 -11.82,1.718 -11.533,3.172C-11.518,3.25 -11.493,3.326 -11.477,3.405C-11.045,5.39 -10.568,7.367 -10.208,9.366C-10.076,10.096 -9.912,10.184 -9.331,10.214C-6.182,10.379 -3.034,10.558 0.114,10.733C0.513,10.755 0.912,10.777 1.31,10.806C3.061,10.934 4.811,11.064 6.562,11.197C7.277,11.251 7.991,11.313 8.706,11.373C9.897,11.475 11.09,11.572 12.281,11.684C13.471,11.796 14.665,11.885 15.846,12.058C17.937,12.364 20.02,12.73 22.107,13.063C22.342,13.101 22.585,13.083 22.825,13.097C23.283,13.122 23.472,12.892 23.479,12.451C23.484,12.051 23.495,11.651 23.501,11.249C22.604,11.35 21.701,11.367 20.8,11.326" style="fill:rgb(253,187,50);fill-rule:nonzero;"/>
            </g>
        </g>
        <g transform="matrix(5.55556,0,0,5.55556,7263.77,9566.93)">
            <g transform="matrix(1,0,0,1,144.949,653.196)">
                <path d="M0,6.852C0.976,5.933 1.883,5.114 2.944,4.486C4.935,3.309 6.937,2.152 8.927,0.974C9.854,0.426 10.771,-0.137 11.675,-0.722C12.094,-0.994 12.486,-1.081 13.008,-1.049C14.52,-0.957 16.042,-1.029 17.556,-0.961C19.984,-0.852 22.41,-0.679 24.837,-0.541C25.67,-0.493 26.505,-0.468 27.494,-0.426C27.279,-0.176 27.17,0.005 27.013,0.125C24.762,1.844 22.506,3.557 20.249,5.266C19.263,6.013 18.261,6.739 17.281,7.493C16.882,7.799 16.46,7.933 15.955,7.932C13.797,7.925 11.653,7.817 9.544,7.314C9.236,7.241 8.915,7.206 8.598,7.195C5.928,7.104 3.258,7.023 0.588,6.935C0.435,6.93 0.284,6.893 0,6.852" style="fill:rgb(72,195,204);fill-rule:nonzero;"/>
            </g>
        </g>
        <g transform="matrix(5.55556,0,0,5.55556,7263.77,9566.93)">
            <g transform="matrix(1,0,0,1,155.346,663.129)">
                <path d="M0,1.035C-2.408,0.913 -4.815,0.743 -7.224,0.682C-9.649,0.622 -12.077,0.669 -14.519,0.56C-14.156,0.256 -13.734,0.198 -13.302,0.192C-9.399,0.14 -5.496,0 -1.603,0.416C-1.248,0.454 -0.896,0.533 -0.545,0.602C-0.357,0.639 -0.172,0.696 0.014,0.744C0.009,0.841 0.004,0.938 0,1.035" style="fill:rgb(35,31,32);fill-rule:nonzero;"/>
            </g>
        </g>
        <g transform="matrix(5.55556,0,0,5.55556,7263.77,9566.93)">
            <g transform="matrix(1,0,0,1,153.441,664.99)">
                <path d="M0,-0.099C-1.157,0.303 -3.14,0.278 -7.029,-0.114C-5.847,-0.384 -1.545,-0.402 0,-0.099" style="fill:rgb(35,31,32);fill-rule:nonzero;"/>
            </g>
        </g>
        <g transform="matrix(5.55556,0,0,5.55556,7263.77,9566.93)">
            <g transform="matrix(-0.100839,-0.994903,-0.994903,0.100839,176.506,651.97)">
                <path d="M-2.416,-5.844C-2.746,-4.6 -2.064,-2.33 -2.098,-0.962C-2.113,-0.325 -1.978,0.754 -2.416,1.276C-2.608,1.506 -3.751,2.029 -4.057,1.894C-5.369,1.316 -2.704,-4.762 -2.416,-5.844" style="fill:white;fill-rule:nonzero;"/>
            </g>
        </g>
        <g transform="matrix(5.55556,0,0,5.55556,7263.77,9566.93)">
            <g transform="matrix(1,0,0,1,185.628,659.066)">
                <path d="M0,0.203C-0.974,0.258 -1.948,0.311 -2.921,0.365C-2.984,0.369 -3.052,0.371 -3.105,0.337C-3.164,0.298 -3.188,0.223 -3.195,0.152C-3.227,-0.155 -3.014,-0.429 -2.813,-0.664C-2.106,-1.498 -1.399,-2.332 -0.692,-3.165C-2.557,-2.495 -4.316,-1.532 -5.888,-0.324C-6.033,-0.212 -6.186,-0.084 -6.226,0.096C-6.294,0.406 -5.996,0.667 -5.725,0.833C-5.108,1.212 -4.446,1.519 -3.758,1.746C-4.37,1.544 -5.491,2.948 -5.611,3.368C-3.678,2.641 -1.803,1.23 0,0.203" style="fill:white;fill-rule:nonzero;"/>
            </g>
        </g>
        <g transform="matrix(5.55556,0,0,5.55556,7263.77,9566.93)">
            <g transform="matrix(0.420471,-0.275577,1.32526,0.327058,-92.7906,60.8151)">
                <text x="-1417.71px" y="639.347px" style="font-family:'ITCAvantGardeStd-Bk', 'ITC Avant Garde Gothic Std', sans-serif;font-weight:300;font-size:8.495px;fill:rgb(35,31,32);">Hojas</text>
            </g>
        </g>
    </g>
</svg>
