<?xml version="1.0" encoding="UTF-8" standalone="no"?>
<!DOCTYPE svg PUBLIC "-//W3C//DTD SVG 1.1//EN" "http://www.w3.org/Graphics/SVG/1.1/DTD/svg11.dtd">
<svg width="100%" height="100%" viewBox="0 0 299 119" version="1.1" xmlns="http://www.w3.org/2000/svg" xmlns:xlink="http://www.w3.org/1999/xlink" xml:space="preserve" xmlns:serif="http://www.serif.com/" style="fill-rule:evenodd;clip-rule:evenodd;stroke-linejoin:round;stroke-miterlimit:2;">
    <g transform="matrix(1,0,0,1,-8196.53,-13276.7)">
        <g transform="matrix(5.55556,0,0,5.55556,7263.77,9566.93)">
            <g transform="matrix(1,0,0,1,178.757,679.71)">
                <path d="M0,-2.609C0.284,-2.567 0.436,-2.531 0.588,-2.526C3.258,-2.438 5.929,-2.357 8.599,-2.265C8.915,-2.255 9.237,-2.22 9.544,-2.147C11.653,-1.643 13.798,-1.535 15.955,-1.529C16.46,-1.527 16.882,-1.661 17.282,-1.967C18.262,-2.721 19.263,-3.448 20.249,-4.194C22.507,-5.903 24.762,-7.616 27.013,-9.335C27.17,-9.455 27.28,-9.637 27.494,-9.886C26.506,-9.928 25.671,-9.953 24.837,-10.001C22.41,-10.139 19.984,-10.313 17.556,-10.421C16.042,-10.49 14.521,-10.417 13.009,-10.509C12.486,-10.542 12.095,-10.454 11.676,-10.182C10.772,-9.597 9.854,-9.035 8.927,-8.486C6.937,-7.308 4.935,-6.151 2.945,-4.974C1.884,-4.346 0.977,-3.527 0,-2.609M11.207,-10.519C11.175,-10.611 11.143,-10.702 11.111,-10.794C10.92,-10.831 10.729,-10.901 10.538,-10.901C8.342,-10.902 6.145,-10.891 3.949,-10.887C3.565,-10.886 3.312,-10.658 3.003,-10.465C1.549,-9.559 0.116,-8.584 -1.437,-7.881C-4.1,-6.675 -6.689,-5.358 -9.113,-3.724C-10.368,-2.879 -10.357,-2.863 -10.07,-1.409C-10.055,-1.331 -10.031,-1.255 -10.014,-1.176C-9.583,0.809 -9.105,2.787 -8.745,4.786C-8.613,5.514 -8.449,5.603 -7.868,5.633C-4.719,5.798 -1.571,5.977 1.577,6.152C1.976,6.174 2.375,6.195 2.772,6.224C4.523,6.353 6.274,6.483 8.024,6.616C8.74,6.67 9.454,6.732 10.168,6.792C11.36,6.894 12.553,6.991 13.743,7.103C14.933,7.215 16.127,7.303 17.309,7.477C19.4,7.784 21.482,8.149 23.57,8.482C23.805,8.519 24.048,8.501 24.287,8.515C24.745,8.541 24.934,8.31 24.941,7.87C24.967,6.198 24.991,4.524 25.035,2.852C25.058,1.981 25.11,1.111 25.176,0.243C25.186,0.123 25.354,0.017 25.448,-0.094C25.578,0.025 25.765,0.12 25.822,0.268C25.891,0.443 25.836,0.662 25.857,0.86C25.887,1.147 25.937,1.432 25.988,1.775C27.417,0.947 28.718,0.173 30.037,-0.566C31.34,-1.297 32.492,-2.281 33.909,-2.838C33.524,-2.385 33.11,-1.963 32.621,-1.663C30.679,-0.476 28.735,0.71 26.747,1.815C26.049,2.203 25.721,2.642 25.847,3.417C25.882,3.634 25.911,3.852 25.955,4.147C27.907,2.797 30.121,2.067 31.817,0.495C31.845,0.469 31.886,0.439 31.921,0.44C32.027,0.443 32.177,0.422 32.229,0.481C32.283,0.543 32.291,0.739 32.237,0.787C31.767,1.213 31.326,1.702 30.786,2.017C29.338,2.861 27.852,3.638 26.367,4.415C26.112,4.548 25.859,4.596 25.852,4.959C25.831,6.084 25.79,7.208 25.756,8.329C27.165,7.267 28.526,6.228 29.9,5.206C31.887,3.73 33.888,2.272 35.874,0.794C37.19,-0.185 38.524,-1.128 40.035,-1.795C40.436,-1.972 40.835,-2.172 41.188,-2.428C41.394,-2.577 41.616,-2.845 41.637,-3.078C41.698,-3.739 41.658,-4.408 41.658,-5.219C40.794,-4.867 40.033,-4.556 39.272,-4.246C39.865,-4.785 40.495,-5.207 41.155,-5.575C41.709,-5.884 41.923,-6.33 41.936,-6.945C41.947,-7.501 42.038,-8.054 42.077,-8.611C42.09,-8.796 42.053,-8.984 42.039,-9.171C41.816,-9.134 41.568,-9.15 41.378,-9.051C40.669,-8.686 39.991,-8.26 39.281,-7.899C37.432,-6.957 35.571,-6.039 33.717,-5.106C31.435,-3.957 29.157,-2.798 26.871,-1.657C26.668,-1.555 26.418,-1.549 26.19,-1.5C27.693,-2.564 29.267,-3.407 30.838,-4.255C32.419,-5.108 33.986,-5.991 35.58,-6.819C37.162,-7.64 38.77,-8.41 40.366,-9.202C40.101,-9.406 39.883,-9.446 39.665,-9.454C36.752,-9.555 33.839,-9.653 30.926,-9.752C30.767,-9.757 30.599,-9.74 30.449,-9.784C29.417,-10.089 28.625,-9.684 27.816,-9.061C25.032,-6.918 22.206,-4.83 19.396,-2.719C18.937,-2.374 18.482,-2.02 18.025,-1.671C18.047,-1.591 18.069,-1.511 18.091,-1.431C18.553,-1.388 19.013,-1.336 19.475,-1.305C20.788,-1.217 22.102,-1.147 23.413,-1.045C23.567,-1.032 23.708,-0.856 23.855,-0.756C23.72,-0.634 23.587,-0.41 23.45,-0.408C22.814,-0.398 22.177,-0.441 21.541,-0.482C19.831,-0.591 18.124,-0.781 16.413,-0.808C14.292,-0.842 12.192,-1.039 10.099,-1.349C9.468,-1.443 8.847,-1.639 8.214,-1.674C5.902,-1.802 3.588,-1.922 1.273,-1.97C-1.721,-2.034 -4.721,-1.926 -7.705,-2.284C-8.398,-2.367 -9.111,-2.366 -9.682,-2.904C-9.003,-2.945 -8.338,-2.881 -7.671,-2.842C-5.718,-2.729 -3.765,-2.628 -1.812,-2.518C-1.393,-2.495 -1.087,-2.638 -0.756,-2.935C0.52,-4.083 1.88,-5.119 3.333,-6.05C5.154,-7.216 7.016,-8.289 8.963,-9.227C9.738,-9.6 10.46,-10.086 11.207,-10.519M7.869,-11.942C9.394,-11.782 11.289,-11.58 13.184,-11.384C13.541,-11.347 13.899,-11.323 14.258,-11.314C17.052,-11.243 19.846,-11.192 22.639,-11.101C23.594,-11.07 24.544,-10.908 25.5,-10.865C27.613,-10.768 29.729,-10.719 31.843,-10.63C33.558,-10.559 35.271,-10.451 36.985,-10.372C38.501,-10.302 40.018,-10.248 41.534,-10.191C42.714,-10.147 42.81,-10.059 42.836,-8.86C42.843,-8.544 42.793,-8.226 42.763,-7.91C42.736,-7.632 42.633,-7.343 42.679,-7.08C42.936,-5.601 42.378,-4.184 42.364,-2.724C42.362,-2.44 42.044,-2.116 41.799,-1.889C41.573,-1.679 41.256,-1.556 40.965,-1.426C38.905,-0.505 37.102,0.801 35.326,2.174C33.59,3.518 31.762,4.741 29.988,6.036C28.73,6.953 27.488,7.891 26.255,8.842C25.802,9.192 25.405,9.333 24.763,9.297C21.725,9.127 18.756,8.509 15.756,8.096C15.244,8.026 14.719,8.062 14.202,8.017C12.852,7.9 11.503,7.764 10.154,7.64C9.717,7.6 9.279,7.572 8.842,7.539C6.932,7.398 5.023,7.254 3.113,7.118C2.675,7.086 2.234,7.089 1.796,7.063C-0.475,6.929 -2.746,6.796 -5.016,6.652C-6.011,6.588 -7.012,6.548 -7.997,6.41C-9.093,6.255 -9.249,6.073 -9.42,4.992C-9.745,2.942 -10.133,0.911 -10.724,-1.086C-11.006,-2.04 -10.895,-2.989 -10.001,-3.666C-9.398,-4.124 -8.838,-4.663 -8.181,-5.021C-5.973,-6.222 -3.701,-7.308 -1.51,-8.54C-0.058,-9.355 1.293,-10.35 2.7,-11.249C2.954,-11.411 3.25,-11.575 3.54,-11.604C4.85,-11.733 6.165,-11.814 7.869,-11.942" style="fill:rgb(35,31,32);fill-rule:nonzero;"/>
            </g>
        </g>
        <g transform="matrix(5.55556,0,0,5.55556,7263.77,9566.93)">
            <g transform="matrix(1,0,0,1,187.249,675.115)">
                <path d="M0,6.83C-1.545,6.527 -5.846,6.544 -7.029,6.814C-3.14,7.207 -1.156,7.232 0,6.83M1.906,6.101C1.911,6.005 1.916,5.908 1.92,5.811C1.734,5.764 1.549,5.706 1.361,5.669C1.01,5.6 0.659,5.52 0.303,5.483C-3.589,5.067 -7.493,5.208 -11.396,5.26C-11.828,5.265 -12.25,5.323 -12.613,5.628C-10.171,5.736 -7.743,5.688 -5.318,5.75C-2.909,5.81 -0.502,5.98 1.906,6.101M2.715,-5.924C1.969,-5.49 1.247,-5.005 0.471,-4.632C-1.476,-3.693 -3.338,-2.621 -5.158,-1.455C-6.611,-0.524 -7.972,0.513 -9.248,1.66C-9.579,1.957 -9.884,2.101 -10.303,2.077C-12.256,1.968 -14.21,1.866 -16.163,1.753C-16.83,1.714 -17.495,1.65 -18.174,1.691C-17.603,2.229 -16.89,2.228 -16.197,2.311C-13.212,2.669 -10.213,2.561 -7.218,2.625C-4.903,2.674 -2.589,2.793 -0.277,2.921C0.355,2.956 0.977,3.152 1.607,3.246C3.7,3.557 5.8,3.753 7.921,3.787C9.632,3.814 11.339,4.004 13.049,4.113C13.685,4.154 14.322,4.197 14.958,4.187C15.095,4.185 15.229,3.961 15.364,3.839C15.216,3.739 15.075,3.563 14.921,3.551C13.61,3.448 12.296,3.378 10.983,3.29C10.521,3.26 10.061,3.207 9.6,3.164C9.578,3.084 9.555,3.004 9.533,2.925C9.99,2.575 10.445,2.222 10.905,1.876C13.714,-0.234 16.54,-2.322 19.324,-4.466C20.133,-5.089 20.925,-5.494 21.958,-5.189C22.107,-5.145 22.275,-5.162 22.435,-5.156C25.348,-5.058 28.26,-4.96 31.173,-4.858C31.392,-4.851 31.609,-4.811 31.874,-4.607C30.278,-3.815 28.67,-3.045 27.088,-2.224C25.494,-1.396 23.928,-0.513 22.346,0.341C20.775,1.188 19.202,2.031 17.699,3.096C17.927,3.046 18.177,3.04 18.379,2.938C20.666,1.797 22.943,0.639 25.226,-0.511C27.079,-1.443 28.94,-2.361 30.789,-3.304C31.5,-3.665 32.178,-4.091 32.886,-4.456C33.076,-4.555 33.325,-4.539 33.547,-4.575C33.561,-4.389 33.598,-4.2 33.585,-4.016C33.546,-3.459 33.456,-2.905 33.444,-2.35C33.432,-1.734 33.218,-1.289 32.663,-0.98C32.003,-0.611 31.374,-0.19 30.781,0.35C31.542,0.039 32.302,-0.272 33.167,-0.624C33.167,0.187 33.206,0.856 33.146,1.518C33.125,1.75 32.902,2.018 32.696,2.167C32.344,2.423 31.944,2.623 31.543,2.801C30.033,3.468 28.698,4.41 27.382,5.39C25.396,6.867 23.396,8.325 21.409,9.802C20.035,10.823 18.673,11.862 17.265,12.925C17.298,11.804 17.339,10.68 17.36,9.555C17.367,9.191 17.621,9.143 17.875,9.011C19.36,8.233 20.847,7.456 22.294,6.612C22.834,6.297 23.275,5.809 23.746,5.382C23.799,5.334 23.792,5.139 23.737,5.076C23.685,5.018 23.536,5.038 23.429,5.035C23.395,5.034 23.354,5.064 23.325,5.09C21.629,6.662 19.415,7.392 17.463,8.742C17.419,8.447 17.391,8.229 17.355,8.013C17.229,7.237 17.558,6.798 18.255,6.41C20.244,5.306 22.187,4.119 24.129,2.933C24.619,2.633 25.033,2.21 25.417,1.757C24,2.314 22.848,3.299 21.545,4.029C20.226,4.768 18.925,5.542 17.496,6.37C17.446,6.027 17.396,5.742 17.365,5.455C17.344,5.258 17.399,5.038 17.331,4.863C17.273,4.716 17.086,4.62 16.957,4.501C16.862,4.612 16.694,4.719 16.685,4.838C16.619,5.706 16.566,6.576 16.543,7.447C16.5,9.119 16.476,10.793 16.449,12.466C16.442,12.905 16.253,13.137 15.795,13.11C15.557,13.097 15.313,13.114 15.078,13.077C12.991,12.744 10.908,12.379 8.817,12.072C7.636,11.898 6.441,11.81 5.251,11.698C4.061,11.586 2.869,11.489 1.677,11.388C0.962,11.327 0.248,11.266 -0.467,11.211C-2.218,11.078 -3.968,10.948 -5.719,10.819C-6.117,10.79 -6.516,10.769 -6.915,10.747C-10.063,10.572 -13.211,10.393 -16.359,10.228C-16.941,10.198 -17.105,10.109 -17.236,9.381C-17.597,7.382 -18.074,5.404 -18.505,3.419C-18.522,3.341 -18.547,3.265 -18.562,3.186C-18.849,1.732 -18.859,1.717 -17.604,0.871C-15.181,-0.763 -12.592,-2.08 -9.928,-3.286C-8.375,-3.988 -6.942,-4.964 -5.488,-5.87C-5.18,-6.063 -4.927,-6.291 -4.543,-6.292C-2.347,-6.296 -0.15,-6.307 2.046,-6.306C2.238,-6.306 2.429,-6.235 2.62,-6.198C2.651,-6.107 2.684,-6.016 2.715,-5.924" style="fill:rgb(237,28,36);fill-rule:nonzero;"/>
            </g>
        </g>
        <g transform="matrix(5.55556,0,0,5.55556,7263.77,9566.93)">
            <g transform="matrix(1,0,0,1,180.219,675.13)">
                <path d="M0,6.799C1.183,6.528 5.484,6.512 7.029,6.815C5.873,7.217 3.889,7.192 0,6.799M20.801,11.325C18.787,11.233 16.783,10.902 14.82,10.449C13.032,10.037 11.255,9.524 9.552,8.836C9.415,8.78 9.292,8.53 9.464,8.434C10.627,7.777 11.992,7.665 13.295,7.522C14.343,7.406 15.522,7.306 16.445,6.744C14.524,6.502 12.586,6.428 10.65,6.38C8.764,6.333 6.875,6.299 4.994,6.129C4.131,6.051 3.272,5.936 2.415,5.815C2.264,5.793 2.114,5.768 1.964,5.745C1.88,5.742 1.795,5.737 1.711,5.735C-0.714,5.673 -3.142,5.721 -5.584,5.612C-5.221,5.308 -4.799,5.249 -4.366,5.244C-2.94,5.225 -1.515,5.201 -0.089,5.191C-0.522,4.977 -0.901,4.677 -1.054,4.192C-1.216,3.679 -1.123,3.129 -0.934,2.601C-3.681,2.565 -6.43,2.624 -9.167,2.296C-9.86,2.213 -10.573,2.214 -11.145,1.676C-10.466,1.635 -9.801,1.698 -9.134,1.737C-7.181,1.851 -5.227,1.952 -3.274,2.062C-2.855,2.085 -2.55,1.942 -2.219,1.645C-0.942,0.497 0.418,-0.539 1.871,-1.471C3.691,-2.637 5.554,-3.709 7.5,-4.647C8.276,-5.02 8.998,-5.506 9.745,-5.939C9.713,-6.031 9.681,-6.122 9.649,-6.214C9.458,-6.251 9.267,-6.321 9.076,-6.321C6.879,-6.322 4.683,-6.311 2.486,-6.307C2.103,-6.306 1.85,-6.078 1.541,-5.886C0.087,-4.979 -1.346,-4.004 -2.899,-3.302C-5.562,-2.096 -8.152,-0.778 -10.575,0.856C-11.83,1.701 -11.82,1.717 -11.533,3.171C-11.518,3.249 -11.493,3.325 -11.476,3.403C-11.045,5.389 -10.568,7.366 -10.207,9.365C-10.076,10.094 -9.912,10.183 -9.33,10.213C-6.182,10.378 -3.033,10.557 0.115,10.732C0.513,10.754 0.912,10.775 1.31,10.804C3.061,10.933 4.812,11.063 6.562,11.195C7.277,11.25 7.992,11.312 8.706,11.372C9.898,11.474 11.09,11.57 12.281,11.683C13.471,11.795 14.665,11.883 15.847,12.057C17.937,12.363 20.02,12.729 22.107,13.062C22.342,13.099 22.586,13.081 22.825,13.095C23.283,13.121 23.472,12.89 23.479,12.45C23.485,12.05 23.495,11.649 23.501,11.248C22.605,11.348 21.701,11.366 20.801,11.325" style="fill:rgb(190,30,45);fill-rule:nonzero;"/>
            </g>
        </g>
        <g transform="matrix(5.55556,0,0,5.55556,7263.77,9566.93)">
            <g transform="matrix(1,0,0,1,178.757,670.25)">
                <path d="M0,6.851C0.977,5.933 1.884,5.114 2.945,4.486C4.935,3.309 6.937,2.152 8.927,0.974C9.854,0.425 10.772,-0.137 11.676,-0.722C12.095,-0.994 12.486,-1.082 13.009,-1.049C14.521,-0.957 16.042,-1.03 17.556,-0.961C19.984,-0.853 22.41,-0.679 24.837,-0.541C25.671,-0.493 26.506,-0.468 27.494,-0.426C27.28,-0.177 27.17,0.005 27.013,0.125C24.762,1.844 22.507,3.557 20.249,5.266C19.263,6.012 18.262,6.739 17.282,7.493C16.882,7.799 16.46,7.933 15.955,7.931C13.798,7.925 11.653,7.817 9.544,7.313C9.237,7.24 8.915,7.205 8.599,7.195C5.929,7.103 3.258,7.022 0.588,6.934C0.436,6.929 0.284,6.893 0,6.851" style="fill:white;fill-rule:nonzero;"/>
            </g>
        </g>
        <g transform="matrix(5.55556,0,0,5.55556,7263.77,9566.93)">
            <g transform="matrix(1,0,0,1,189.155,680.182)">
                <path d="M0,1.034C-2.408,0.913 -4.815,0.743 -7.224,0.682C-9.649,0.621 -12.077,0.669 -14.52,0.56C-14.156,0.256 -13.734,0.197 -13.302,0.192C-9.399,0.14 -5.496,0 -1.603,0.416C-1.248,0.453 -0.896,0.532 -0.545,0.601C-0.357,0.638 -0.172,0.696 0.014,0.744C0.009,0.841 0.004,0.937 0,1.034" style="fill:rgb(35,31,32);fill-rule:nonzero;"/>
            </g>
        </g>
        <g transform="matrix(5.55556,0,0,5.55556,7263.77,9566.93)">
            <g transform="matrix(1,0,0,1,187.249,682.044)">
                <path d="M0,-0.099C-1.156,0.303 -3.14,0.278 -7.029,-0.115C-5.846,-0.385 -1.545,-0.402 0,-0.099" style="fill:rgb(35,31,32);fill-rule:nonzero;"/>
            </g>
        </g>
        <g transform="matrix(5.55556,0,0,5.55556,7263.77,9566.93)">
            <g transform="matrix(-0.1007,-0.994917,-0.994917,0.1007,210.315,669.023)">
                <path d="M-2.416,-5.844C-2.745,-4.6 -2.063,-2.329 -2.098,-0.962C-2.114,-0.325 -1.978,0.755 -2.416,1.276C-2.609,1.506 -3.751,2.029 -4.057,1.894C-5.37,1.316 -2.702,-4.762 -2.416,-5.844" style="fill:white;fill-rule:nonzero;"/>
            </g>
        </g>
        <g transform="matrix(5.55556,0,0,5.55556,7263.77,9566.93)">
            <g transform="matrix(1,0,0,1,219.436,676.119)">
                <path d="M0,0.204C-0.974,0.258 -1.948,0.312 -2.921,0.366C-2.984,0.369 -3.052,0.372 -3.105,0.337C-3.164,0.299 -3.188,0.224 -3.196,0.153C-3.227,-0.154 -3.014,-0.428 -2.813,-0.664C-2.106,-1.497 -1.399,-2.331 -0.692,-3.165C-2.557,-2.494 -4.317,-1.531 -5.888,-0.323C-6.033,-0.211 -6.186,-0.083 -6.226,0.097C-6.294,0.407 -5.996,0.667 -5.725,0.834C-5.108,1.213 -4.446,1.519 -3.758,1.747C-4.37,1.545 -5.491,2.949 -5.611,3.369C-3.678,2.642 -1.803,1.231 0,0.204" style="fill:white;fill-rule:nonzero;"/>
            </g>
        </g>
        <g transform="matrix(5.55556,0,0,5.55556,7263.77,9566.93)">
            <g transform="matrix(0.420471,-0.275577,1.32526,0.327058,-84.7792,55.5645)">
                <text x="-1459.73px" y="672.142px" style="font-family:'ITCAvantGardeStd-Bk', 'ITC Avant Garde Gothic Std', sans-serif;font-weight:300;font-size:8.495px;fill:rgb(35,31,32);">Hojas</text>
            </g>
        </g>
    </g>
</svg>
