<?xml version="1.0" encoding="UTF-8" standalone="no"?>
<!DOCTYPE svg PUBLIC "-//W3C//DTD SVG 1.1//EN" "http://www.w3.org/Graphics/SVG/1.1/DTD/svg11.dtd">
<svg width="100%" height="100%" viewBox="0 0 299 119" version="1.1" xmlns="http://www.w3.org/2000/svg" xmlns:xlink="http://www.w3.org/1999/xlink" xml:space="preserve" xmlns:serif="http://www.serif.com/" style="fill-rule:evenodd;clip-rule:evenodd;stroke-linejoin:round;stroke-miterlimit:2;">
    <g transform="matrix(1,0,0,1,-8996.95,-13251.3)">
        <g transform="matrix(5.55556,0,0,5.55556,7263.77,9566.93)">
            <g transform="matrix(1,0,0,1,322.832,675.128)">
                <path d="M0,-2.608C0.284,-2.567 0.436,-2.53 0.588,-2.525C3.258,-2.437 5.929,-2.356 8.598,-2.264C8.915,-2.254 9.237,-2.219 9.544,-2.146C11.653,-1.642 13.798,-1.534 15.955,-1.528C16.46,-1.526 16.882,-1.66 17.282,-1.967C18.262,-2.721 19.263,-3.447 20.249,-4.193C22.507,-5.903 24.762,-7.615 27.013,-9.334C27.17,-9.454 27.279,-9.636 27.494,-9.885C26.506,-9.927 25.671,-9.953 24.837,-10C22.41,-10.138 19.984,-10.312 17.556,-10.42C16.042,-10.489 14.521,-10.416 13.009,-10.508C12.486,-10.541 12.094,-10.453 11.676,-10.182C10.772,-9.597 9.854,-9.034 8.927,-8.485C6.937,-7.307 4.935,-6.151 2.945,-4.973C1.884,-4.346 0.977,-3.527 0,-2.608M11.207,-10.519C11.175,-10.61 11.143,-10.702 11.111,-10.793C10.92,-10.831 10.729,-10.9 10.538,-10.9C8.342,-10.902 6.145,-10.891 3.949,-10.886C3.565,-10.886 3.312,-10.657 3.003,-10.464C1.549,-9.559 0.116,-8.584 -1.437,-7.88C-4.1,-6.674 -6.689,-5.357 -9.113,-3.723C-10.368,-2.878 -10.357,-2.862 -10.07,-1.409C-10.055,-1.331 -10.031,-1.254 -10.014,-1.176C-9.583,0.81 -9.105,2.788 -8.745,4.786C-8.613,5.515 -8.449,5.604 -7.868,5.634C-4.719,5.799 -1.571,5.978 1.577,6.153C1.976,6.174 2.375,6.196 2.772,6.225C4.523,6.354 6.274,6.484 8.024,6.617C8.74,6.671 9.454,6.733 10.168,6.793C11.36,6.895 12.553,6.991 13.743,7.104C14.933,7.216 16.127,7.304 17.309,7.478C19.4,7.784 21.482,8.15 23.57,8.483C23.805,8.52 24.048,8.502 24.287,8.516C24.745,8.542 24.934,8.311 24.941,7.871C24.967,6.199 24.991,4.525 25.035,2.852C25.058,1.982 25.11,1.112 25.176,0.243C25.186,0.124 25.354,0.018 25.448,-0.094C25.578,0.025 25.764,0.121 25.822,0.269C25.891,0.444 25.836,0.663 25.857,0.861C25.887,1.148 25.937,1.433 25.988,1.776C27.417,0.948 28.718,0.174 30.037,-0.565C31.34,-1.296 32.492,-2.28 33.909,-2.838C33.524,-2.384 33.11,-1.962 32.621,-1.662C30.679,-0.475 28.735,0.711 26.747,1.816C26.049,2.204 25.721,2.643 25.847,3.418C25.882,3.635 25.911,3.853 25.955,4.148C27.907,2.797 30.121,2.067 31.817,0.496C31.845,0.469 31.886,0.44 31.921,0.441C32.027,0.444 32.177,0.423 32.229,0.482C32.283,0.543 32.291,0.74 32.237,0.788C31.767,1.214 31.326,1.703 30.786,2.017C29.338,2.862 27.852,3.638 26.367,4.416C26.112,4.549 25.859,4.597 25.852,4.96C25.831,6.084 25.79,7.208 25.756,8.33C27.165,7.268 28.526,6.229 29.9,5.207C31.887,3.731 33.888,2.272 35.874,0.794C37.19,-0.184 38.524,-1.127 40.035,-1.795C40.436,-1.971 40.835,-2.172 41.188,-2.427C41.393,-2.577 41.616,-2.845 41.637,-3.078C41.698,-3.738 41.659,-4.407 41.659,-5.218C40.793,-4.866 40.034,-4.555 39.272,-4.245C39.865,-4.785 40.495,-5.206 41.155,-5.574C41.709,-5.883 41.923,-6.329 41.936,-6.944C41.948,-7.5 42.038,-8.054 42.077,-8.61C42.089,-8.795 42.052,-8.983 42.039,-9.17C41.817,-9.133 41.568,-9.149 41.377,-9.051C40.669,-8.685 39.992,-8.26 39.281,-7.898C37.432,-6.956 35.571,-6.038 33.717,-5.105C31.435,-3.956 29.157,-2.797 26.871,-1.656C26.668,-1.555 26.418,-1.549 26.19,-1.5C27.693,-2.564 29.267,-3.406 30.838,-4.254C32.419,-5.108 33.986,-5.99 35.58,-6.818C37.162,-7.639 38.77,-8.409 40.366,-9.201C40.101,-9.406 39.883,-9.446 39.665,-9.453C36.752,-9.555 33.839,-9.652 30.926,-9.751C30.767,-9.756 30.598,-9.739 30.449,-9.784C29.417,-10.089 28.625,-9.683 27.815,-9.06C25.032,-6.918 22.206,-4.829 19.396,-2.718C18.937,-2.373 18.482,-2.019 18.025,-1.67C18.047,-1.59 18.069,-1.51 18.091,-1.431C18.553,-1.388 19.013,-1.335 19.475,-1.304C20.788,-1.216 22.102,-1.146 23.413,-1.044C23.567,-1.031 23.708,-0.855 23.855,-0.755C23.72,-0.633 23.587,-0.409 23.45,-0.407C22.814,-0.397 22.177,-0.44 21.541,-0.481C19.831,-0.591 18.124,-0.78 16.413,-0.807C14.292,-0.841 12.192,-1.038 10.099,-1.348C9.468,-1.442 8.846,-1.638 8.214,-1.673C5.902,-1.801 3.588,-1.921 1.273,-1.969C-1.721,-2.034 -4.721,-1.925 -7.705,-2.283C-8.398,-2.366 -9.111,-2.366 -9.682,-2.903C-9.004,-2.944 -8.338,-2.88 -7.671,-2.842C-5.718,-2.729 -3.765,-2.627 -1.812,-2.517C-1.393,-2.495 -1.087,-2.637 -0.756,-2.935C0.52,-4.082 1.88,-5.118 3.333,-6.049C5.154,-7.215 7.016,-8.288 8.963,-9.226C9.738,-9.6 10.46,-10.085 11.207,-10.519M7.869,-11.942C9.394,-11.781 11.289,-11.579 13.184,-11.383C13.541,-11.346 13.899,-11.322 14.258,-11.313C17.052,-11.242 19.846,-11.192 22.639,-11.1C23.594,-11.07 24.544,-10.908 25.5,-10.864C27.613,-10.767 29.729,-10.718 31.843,-10.63C33.558,-10.558 35.271,-10.451 36.985,-10.372C38.501,-10.301 40.017,-10.248 41.534,-10.19C42.713,-10.146 42.81,-10.058 42.836,-8.859C42.843,-8.543 42.793,-8.225 42.762,-7.909C42.736,-7.631 42.633,-7.343 42.679,-7.08C42.935,-5.6 42.377,-4.183 42.365,-2.723C42.362,-2.439 42.044,-2.115 41.799,-1.888C41.573,-1.678 41.255,-1.556 40.964,-1.425C38.905,-0.504 37.102,0.802 35.326,2.175C33.59,3.518 31.762,4.742 29.988,6.037C28.73,6.954 27.487,7.892 26.255,8.842C25.802,9.192 25.405,9.334 24.763,9.298C21.725,9.127 18.756,8.51 15.756,8.097C15.244,8.027 14.718,8.062 14.202,8.018C12.852,7.901 11.503,7.765 10.154,7.641C9.717,7.601 9.279,7.572 8.842,7.539C6.932,7.399 5.023,7.254 3.113,7.119C2.675,7.087 2.234,7.089 1.796,7.064C-0.475,6.93 -2.746,6.796 -5.016,6.653C-6.011,6.589 -7.012,6.549 -7.998,6.411C-9.093,6.256 -9.249,6.074 -9.42,4.993C-9.745,2.943 -10.133,0.912 -10.724,-1.085C-11.006,-2.04 -10.895,-2.988 -10.001,-3.665C-9.398,-4.123 -8.838,-4.662 -8.181,-5.02C-5.973,-6.221 -3.701,-7.307 -1.511,-8.539C-0.058,-9.354 1.293,-10.349 2.699,-11.248C2.954,-11.411 3.25,-11.575 3.54,-11.603C4.85,-11.733 6.165,-11.814 7.869,-11.942" style="fill:rgb(35,31,32);fill-rule:nonzero;"/>
            </g>
        </g>
        <g transform="matrix(5.55556,0,0,5.55556,7263.77,9566.93)">
            <g transform="matrix(1,0,0,1,331.324,670.533)">
                <path d="M0,6.831C-1.545,6.528 -5.846,6.545 -7.029,6.815C-3.14,7.208 -1.156,7.233 0,6.831M1.906,6.102C1.911,6.006 1.916,5.909 1.92,5.812C1.734,5.764 1.549,5.707 1.361,5.67C1.01,5.601 0.659,5.521 0.303,5.483C-3.589,5.067 -7.493,5.209 -11.396,5.26C-11.828,5.266 -12.25,5.323 -12.613,5.629C-10.171,5.737 -7.743,5.689 -5.318,5.75C-2.909,5.81 -0.502,5.98 1.906,6.102M2.715,-5.924C1.969,-5.489 1.247,-5.005 0.471,-4.631C-1.476,-3.692 -3.338,-2.62 -5.158,-1.454C-6.611,-0.523 -7.972,0.514 -9.248,1.66C-9.579,1.958 -9.884,2.101 -10.303,2.078C-12.256,1.969 -14.21,1.866 -16.163,1.753C-16.83,1.715 -17.496,1.651 -18.174,1.692C-17.603,2.229 -16.89,2.229 -16.197,2.312C-13.212,2.67 -10.213,2.561 -7.218,2.626C-4.903,2.675 -2.589,2.794 -0.277,2.922C0.354,2.957 0.976,3.153 1.607,3.247C3.7,3.558 5.8,3.754 7.921,3.788C9.632,3.815 11.339,4.004 13.049,4.114C13.685,4.155 14.322,4.198 14.958,4.188C15.095,4.186 15.229,3.962 15.364,3.84C15.216,3.74 15.075,3.564 14.921,3.552C13.61,3.449 12.296,3.379 10.983,3.291C10.521,3.261 10.061,3.207 9.6,3.164C9.578,3.085 9.555,3.005 9.533,2.926C9.99,2.576 10.445,2.223 10.905,1.877C13.714,-0.233 16.54,-2.322 19.324,-4.465C20.133,-5.088 20.925,-5.494 21.958,-5.189C22.106,-5.144 22.275,-5.161 22.435,-5.155C25.347,-5.057 28.26,-4.96 31.173,-4.857C31.392,-4.851 31.609,-4.811 31.874,-4.606C30.278,-3.814 28.67,-3.044 27.088,-2.223C25.494,-1.395 23.927,-0.513 22.346,0.342C20.775,1.189 19.202,2.031 17.699,3.096C17.927,3.046 18.177,3.04 18.379,2.939C20.666,1.798 22.943,0.64 25.226,-0.51C27.079,-1.442 28.94,-2.36 30.789,-3.303C31.5,-3.665 32.178,-4.09 32.886,-4.456C33.076,-4.554 33.325,-4.538 33.547,-4.575C33.561,-4.388 33.598,-4.199 33.585,-4.015C33.546,-3.459 33.456,-2.904 33.444,-2.349C33.432,-1.733 33.218,-1.288 32.663,-0.979C32.003,-0.61 31.373,-0.19 30.781,0.351C31.542,0.04 32.302,-0.271 33.167,-0.623C33.167,0.188 33.206,0.857 33.146,1.518C33.124,1.75 32.901,2.019 32.696,2.168C32.344,2.423 31.944,2.624 31.543,2.801C30.033,3.469 28.698,4.411 27.382,5.39C25.396,6.867 23.396,8.326 21.409,9.803C20.034,10.824 18.673,11.863 17.265,12.925C17.298,11.804 17.339,10.68 17.36,9.556C17.367,9.192 17.621,9.144 17.875,9.012C19.36,8.233 20.847,7.457 22.294,6.612C22.834,6.298 23.275,5.81 23.746,5.383C23.799,5.335 23.792,5.139 23.737,5.077C23.685,5.019 23.536,5.039 23.429,5.036C23.395,5.035 23.354,5.064 23.325,5.091C21.629,6.662 19.415,7.393 17.463,8.743C17.419,8.448 17.391,8.23 17.355,8.014C17.229,7.238 17.558,6.799 18.255,6.411C20.244,5.307 22.187,4.12 24.129,2.934C24.619,2.634 25.033,2.211 25.417,1.757C24,2.315 22.848,3.3 21.545,4.03C20.226,4.769 18.925,5.543 17.496,6.371C17.446,6.028 17.396,5.743 17.365,5.456C17.344,5.258 17.399,5.039 17.331,4.864C17.272,4.717 17.086,4.62 16.957,4.501C16.862,4.613 16.694,4.72 16.685,4.838C16.618,5.707 16.566,6.577 16.543,7.447C16.5,9.12 16.476,10.794 16.449,12.467C16.442,12.906 16.253,13.138 15.795,13.111C15.556,13.098 15.313,13.115 15.078,13.078C12.991,12.745 10.908,12.379 8.817,12.073C7.636,11.899 6.441,11.811 5.251,11.699C4.061,11.586 2.869,11.49 1.677,11.389C0.962,11.328 0.248,11.267 -0.467,11.212C-2.218,11.079 -3.968,10.949 -5.719,10.82C-6.117,10.791 -6.516,10.769 -6.915,10.748C-10.063,10.573 -13.211,10.394 -16.36,10.229C-16.941,10.199 -17.105,10.11 -17.236,9.381C-17.597,7.383 -18.074,5.405 -18.505,3.419C-18.522,3.342 -18.547,3.265 -18.562,3.186C-18.849,1.733 -18.859,1.718 -17.604,0.872C-15.181,-0.762 -12.592,-2.079 -9.928,-3.285C-8.375,-3.988 -6.942,-4.964 -5.489,-5.869C-5.18,-6.062 -4.927,-6.291 -4.543,-6.291C-2.347,-6.296 -0.15,-6.307 2.046,-6.305C2.237,-6.305 2.429,-6.235 2.62,-6.197C2.651,-6.107 2.684,-6.015 2.715,-5.924" style="fill:rgb(215,223,34);fill-rule:nonzero;"/>
            </g>
        </g>
        <g transform="matrix(5.55556,0,0,5.55556,7263.77,9566.93)">
            <g transform="matrix(1,0,0,1,324.295,670.548)">
                <path d="M0,6.8C1.183,6.529 5.484,6.513 7.029,6.816C5.873,7.218 3.889,7.193 0,6.8M20.801,11.325C18.787,11.234 16.783,10.903 14.82,10.45C13.032,10.037 11.255,9.525 9.552,8.836C9.415,8.781 9.292,8.531 9.464,8.434C10.627,7.777 11.992,7.666 13.294,7.523C14.343,7.407 15.522,7.307 16.445,6.745C14.524,6.502 12.586,6.429 10.65,6.381C8.764,6.334 6.875,6.3 4.994,6.13C4.131,6.052 3.272,5.937 2.415,5.816C2.264,5.794 2.114,5.769 1.964,5.745C1.88,5.743 1.795,5.738 1.711,5.735C-0.714,5.674 -3.142,5.722 -5.584,5.613C-5.221,5.308 -4.799,5.25 -4.366,5.244C-2.94,5.226 -1.515,5.202 -0.089,5.191C-0.522,4.978 -0.901,4.678 -1.055,4.192C-1.216,3.68 -1.123,3.13 -0.934,2.602C-3.681,2.566 -6.431,2.625 -9.167,2.297C-9.86,2.214 -10.573,2.214 -11.145,1.677C-10.466,1.636 -9.801,1.699 -9.134,1.738C-7.181,1.851 -5.227,1.953 -3.274,2.063C-2.855,2.085 -2.55,1.943 -2.219,1.645C-0.942,0.498 0.418,-0.538 1.871,-1.47C3.691,-2.636 5.554,-3.708 7.5,-4.646C8.276,-5.02 8.998,-5.505 9.745,-5.939C9.713,-6.03 9.681,-6.122 9.649,-6.213C9.458,-6.251 9.267,-6.32 9.076,-6.32C6.879,-6.322 4.683,-6.311 2.486,-6.306C2.103,-6.306 1.85,-6.077 1.541,-5.885C0.087,-4.979 -1.346,-4.004 -2.899,-3.301C-5.563,-2.095 -8.152,-0.777 -10.575,0.857C-11.83,1.702 -11.82,1.718 -11.533,3.171C-11.518,3.249 -11.493,3.326 -11.476,3.404C-11.045,5.39 -10.568,7.367 -10.208,9.365C-10.076,10.095 -9.912,10.184 -9.331,10.214C-6.182,10.379 -3.034,10.558 0.115,10.733C0.513,10.754 0.912,10.776 1.31,10.805C3.061,10.934 4.812,11.064 6.562,11.196C7.277,11.251 7.992,11.313 8.706,11.373C9.898,11.475 11.09,11.571 12.281,11.684C13.471,11.796 14.665,11.884 15.847,12.058C17.937,12.363 20.02,12.73 22.107,13.063C22.342,13.1 22.585,13.082 22.825,13.096C23.283,13.122 23.472,12.891 23.479,12.451C23.485,12.05 23.495,11.65 23.501,11.249C22.605,11.349 21.701,11.367 20.801,11.325" style="fill:rgb(148,201,61);fill-rule:nonzero;"/>
            </g>
        </g>
        <g transform="matrix(5.55556,0,0,5.55556,7263.77,9566.93)">
            <g transform="matrix(1,0,0,1,322.832,665.669)">
                <path d="M0,6.851C0.977,5.932 1.884,5.113 2.945,4.486C4.935,3.308 6.937,2.152 8.927,0.974C9.854,0.425 10.772,-0.138 11.676,-0.723C12.094,-0.994 12.486,-1.082 13.009,-1.049C14.521,-0.957 16.042,-1.03 17.556,-0.961C19.984,-0.853 22.41,-0.679 24.837,-0.541C25.671,-0.494 26.506,-0.468 27.494,-0.426C27.279,-0.177 27.17,0.005 27.013,0.125C24.762,1.844 22.507,3.556 20.249,5.266C19.263,6.012 18.262,6.738 17.282,7.492C16.882,7.799 16.46,7.933 15.955,7.931C13.798,7.925 11.653,7.817 9.544,7.313C9.237,7.24 8.915,7.205 8.598,7.195C5.929,7.103 3.258,7.022 0.588,6.934C0.436,6.929 0.284,6.892 0,6.851" style="fill:rgb(214,114,173);fill-rule:nonzero;"/>
            </g>
        </g>
        <g transform="matrix(5.55556,0,0,5.55556,7263.77,9566.93)">
            <g transform="matrix(1,0,0,1,333.23,675.6)">
                <path d="M0,1.035C-2.408,0.913 -4.815,0.743 -7.225,0.682C-9.649,0.622 -12.077,0.67 -14.52,0.561C-14.156,0.256 -13.734,0.198 -13.302,0.192C-9.399,0.141 -5.496,0 -1.603,0.416C-1.248,0.454 -0.896,0.533 -0.545,0.602C-0.357,0.639 -0.172,0.696 0.014,0.745C0.009,0.842 0.004,0.938 0,1.035" style="fill:rgb(35,31,32);fill-rule:nonzero;"/>
            </g>
        </g>
        <g transform="matrix(5.55556,0,0,5.55556,7263.77,9566.93)">
            <g transform="matrix(1,0,0,1,331.324,677.463)">
                <path d="M0,-0.099C-1.156,0.303 -3.14,0.278 -7.029,-0.115C-5.846,-0.385 -1.545,-0.402 0,-0.099" style="fill:rgb(35,31,32);fill-rule:nonzero;"/>
            </g>
        </g>
        <g transform="matrix(5.55556,0,0,5.55556,7263.77,9566.93)">
            <g transform="matrix(-0.100839,-0.994903,-0.994903,0.100839,354.389,664.442)">
                <path d="M-2.416,-5.844C-2.745,-4.601 -2.064,-2.33 -2.097,-0.962C-2.113,-0.326 -1.977,0.754 -2.416,1.276C-2.608,1.505 -3.751,2.028 -4.056,1.893C-5.37,1.316 -2.703,-4.763 -2.416,-5.844" style="fill:white;fill-rule:nonzero;"/>
            </g>
        </g>
        <g transform="matrix(5.55556,0,0,5.55556,7263.77,9566.93)">
            <g transform="matrix(1,0,0,1,363.511,671.538)">
                <path d="M0,0.204C-0.974,0.258 -1.948,0.311 -2.921,0.365C-2.984,0.369 -3.052,0.371 -3.105,0.337C-3.164,0.299 -3.188,0.224 -3.196,0.153C-3.227,-0.155 -3.014,-0.428 -2.813,-0.664C-2.106,-1.498 -1.399,-2.331 -0.691,-3.165C-2.557,-2.494 -4.317,-1.532 -5.888,-0.323C-6.033,-0.212 -6.186,-0.083 -6.226,0.096C-6.294,0.406 -5.996,0.667 -5.726,0.833C-5.108,1.213 -4.446,1.519 -3.758,1.746C-4.37,1.545 -5.491,2.949 -5.611,3.369C-3.678,2.641 -1.803,1.231 0,0.204" style="fill:white;fill-rule:nonzero;"/>
            </g>
        </g>
        <g transform="matrix(5.55556,0,0,5.55556,7263.77,9566.93)">
            <g transform="matrix(0.420471,-0.275577,1.32526,0.327058,-33.2993,21.8244)">
                <text x="-1476.35px" y="747.287px" style="font-family:'ITCAvantGardeStd-Bk', 'ITC Avant Garde Gothic Std', sans-serif;font-weight:300;font-size:8.495px;fill:rgb(35,31,32);">Hojas</text>
            </g>
        </g>
    </g>
</svg>
