<?xml version="1.0" encoding="UTF-8" standalone="no"?>
<!DOCTYPE svg PUBLIC "-//W3C//DTD SVG 1.1//EN" "http://www.w3.org/Graphics/SVG/1.1/DTD/svg11.dtd">
<svg width="100%" height="100%" viewBox="0 0 177 180" version="1.1" xmlns="http://www.w3.org/2000/svg" xmlns:xlink="http://www.w3.org/1999/xlink" xml:space="preserve" xmlns:serif="http://www.serif.com/" style="fill-rule:evenodd;clip-rule:evenodd;stroke-linejoin:round;stroke-miterlimit:2;">
    <g transform="matrix(1,0,0,1,-8048.81,-12357.7)">
        <g transform="matrix(5.55556,0,0,5.55556,7263.77,9566.93)">
            <g transform="matrix(1,0,0,1,150.08,503.906)">
                <path d="M0,29.211C-0.348,29.316 -0.525,29.395 -0.709,29.421C-1.251,29.499 -1.796,29.55 -2.338,29.623C-2.611,29.66 -3.016,29.628 -2.956,30.035C-2.906,30.364 -2.553,30.269 -2.298,30.233C-0.868,30.034 0.568,29.946 2.013,29.981C2.329,29.988 2.655,29.992 2.96,29.924C5.562,29.34 8.213,29.248 10.859,29.089C13.275,28.943 15.688,28.761 18.101,28.574C18.741,28.524 19.206,28.272 19.414,27.547C19.592,26.924 19.989,26.362 20.292,25.775C20.362,25.639 20.441,25.506 20.563,25.288C20.32,25.288 20.18,25.277 20.042,25.289C18.463,25.427 16.886,25.569 15.308,25.708C14.792,25.754 14.268,25.76 13.758,25.845C11.26,26.26 8.76,26.67 6.27,27.131C3.772,27.594 1.259,27.88 -1.279,27.951C-1.509,27.958 -1.741,27.982 -1.964,28.03C-2.304,28.104 -2.474,28.327 -2.527,28.72C-2.03,28.633 -1.608,28.553 -1.184,28.486C-0.729,28.416 -0.271,28.36 0.185,28.296C0.714,28.221 0.845,28.232 1.563,28.462C0.708,28.578 0.029,28.654 -0.644,28.767C-1.315,28.879 -2.012,28.904 -2.641,29.217C-1.816,29.281 -1.01,28.93 0,29.211M-3.68,30.183C-3.579,30 -3.539,29.954 -3.526,29.901C-3.311,29.035 -3.141,28.154 -2.42,27.516C-2.317,27.424 -2.278,27.192 -2.301,27.039C-2.419,26.244 -2.54,25.448 -2.711,24.663C-3.012,23.287 -3.393,21.928 -3.663,20.546C-4.153,18.033 -4.598,15.513 -5.042,12.991C-5.411,10.895 -5.795,8.799 -5.745,6.652C-5.733,6.168 -5.846,5.682 -5.885,5.195C-5.959,4.251 -6.027,3.305 -6.088,2.359C-6.103,2.13 -6.073,1.898 -6.081,1.668C-6.094,1.24 -6.28,1.096 -6.684,1.239C-7.233,1.436 -7.539,1.853 -7.762,2.394C-8.411,3.966 -8.227,5.623 -8.171,7.229C-8.109,9.031 -7.747,10.823 -7.498,12.618C-7.214,14.669 -6.958,16.725 -6.603,18.763C-6.278,20.631 -5.881,22.489 -5.435,24.332C-5.009,26.09 -4.481,27.823 -3.988,29.565C-3.937,29.747 -3.819,29.909 -3.68,30.183M-5.589,2.597L-5.642,2.603C-5.574,3.232 -5.505,3.859 -5.437,4.488C-5.352,5.261 -5.25,6.032 -5.185,6.806C-5.094,7.867 -5.085,8.939 -4.942,9.992C-4.741,11.475 -4.464,12.948 -4.191,14.421C-3.682,17.166 -3.168,19.911 -2.624,22.65C-2.411,23.722 -2.101,24.774 -1.861,25.84C-1.773,26.232 -1.767,26.641 -1.712,27.041C-1.672,27.342 -1.491,27.5 -1.183,27.494C-1.039,27.492 -0.895,27.482 -0.752,27.468C1.312,27.274 3.376,27.085 5.417,26.687C7.648,26.251 9.894,25.886 12.131,25.475C13.492,25.224 14.851,25.001 16.239,24.94C17.504,24.884 18.765,24.725 20.025,24.587C20.51,24.534 20.988,24.417 21.468,24.32C21.708,24.273 21.793,24.116 21.746,23.874C21.5,22.604 21.294,21.323 21.006,20.063C20.679,18.632 20.187,17.234 19.93,15.794C19.365,12.621 18.903,9.43 18.398,6.247C18.2,4.996 18.026,3.739 17.788,2.496C17.593,1.479 17.326,0.476 17.074,-0.53C16.98,-0.906 16.753,-1.1 16.318,-1.06C15.227,-0.958 14.132,-0.897 13.04,-0.813C11.085,-0.664 9.133,-0.5 7.178,-0.361C5.855,-0.267 4.529,-0.216 3.206,-0.127C2.688,-0.093 2.173,-0.018 1.66,0.056C-0.279,0.335 -2.217,0.62 -4.154,0.91C-4.605,0.978 -5.052,1.074 -5.5,1.157C-5.53,1.608 -5.56,2.06 -5.589,2.51C-5.591,2.539 -5.589,2.568 -5.589,2.597M-8.773,5.575C-8.723,4.405 -8.583,3.272 -8.173,2.172C-7.835,1.265 -7.194,0.781 -6.243,0.698C-5.068,0.595 -3.894,0.474 -2.727,0.309C-0.816,0.038 1.084,-0.306 2.997,-0.559C4.138,-0.709 5.294,-0.75 6.444,-0.834C8.714,-1.001 10.984,-1.164 13.254,-1.327C14.29,-1.401 15.327,-1.455 16.36,-1.552C16.913,-1.603 17.263,-1.38 17.411,-0.877C17.728,0.199 18.089,1.27 18.296,2.368C18.647,4.234 18.881,6.121 19.187,7.996C19.33,8.877 19.538,9.746 19.691,10.625C20.043,12.639 20.329,14.664 20.739,16.665C21.022,18.044 21.51,19.38 21.828,20.754C22.093,21.901 22.256,23.073 22.44,24.238C22.514,24.7 22.427,24.759 21.935,24.963C21.706,25.058 21.479,25.203 21.306,25.381C20.587,26.116 20.077,26.988 19.818,27.981C19.674,28.536 19.338,28.805 18.823,28.922C18.571,28.979 18.318,29.051 18.062,29.068C14.697,29.295 11.329,29.48 7.968,29.747C6.334,29.878 4.712,30.159 3.086,30.373C2.858,30.403 2.632,30.46 2.403,30.471C0.705,30.55 -0.993,30.621 -2.691,30.694C-2.835,30.701 -2.98,30.7 -3.123,30.717C-3.973,30.814 -4.283,30.645 -4.531,29.842C-4.871,28.742 -5.176,27.633 -5.487,26.524C-5.697,25.776 -5.921,25.031 -6.088,24.273C-6.452,22.615 -6.82,20.956 -7.118,19.286C-7.426,17.559 -7.684,15.82 -7.907,14.079C-8.144,12.223 -8.32,10.358 -8.511,8.497C-8.611,7.524 -8.687,6.549 -8.773,5.575" style="fill:rgb(35,31,32);fill-rule:nonzero;"/>
            </g>
        </g>
        <g transform="matrix(5.55556,0,0,5.55556,7263.77,9566.93)">
            <g transform="matrix(1,0,0,1,144.491,527.71)">
                <path d="M0,-21.207C0,-21.235 -0.002,-21.265 0,-21.294C0.029,-21.744 0.059,-22.195 0.089,-22.646C0.538,-22.729 0.984,-22.826 1.436,-22.894C3.373,-23.184 5.311,-23.469 7.249,-23.748C7.763,-23.822 8.278,-23.896 8.795,-23.931C10.119,-24.02 11.444,-24.07 12.767,-24.165C14.722,-24.304 16.675,-24.468 18.629,-24.617C19.722,-24.701 20.816,-24.762 21.908,-24.863C22.342,-24.903 22.57,-24.71 22.664,-24.334C22.915,-23.328 23.182,-22.325 23.377,-21.308C23.616,-20.064 23.789,-18.808 23.988,-17.557C24.493,-14.374 24.955,-11.183 25.52,-8.01C25.776,-6.569 26.268,-5.172 26.595,-3.741C26.883,-2.48 27.09,-1.2 27.335,0.07C27.382,0.313 27.297,0.469 27.057,0.517C26.578,0.613 26.1,0.73 25.615,0.783C24.354,0.921 23.094,1.08 21.829,1.136C20.44,1.197 19.081,1.42 17.72,1.671C15.483,2.082 13.238,2.447 11.006,2.883C8.965,3.281 6.902,3.471 4.837,3.664C4.694,3.678 4.55,3.689 4.406,3.69C4.098,3.696 3.917,3.538 3.877,3.237C3.822,2.837 3.816,2.428 3.728,2.036C3.488,0.97 3.178,-0.082 2.965,-1.153C2.421,-3.893 1.907,-6.638 1.398,-9.383C1.125,-10.855 0.849,-12.329 0.647,-13.811C0.504,-14.865 0.495,-15.936 0.405,-16.998C0.339,-17.771 0.238,-18.543 0.153,-19.315C0.084,-19.944 0.016,-20.572 -0.053,-21.201L0,-21.207Z" style="fill:rgb(0,193,243);fill-rule:nonzero;"/>
            </g>
        </g>
        <g transform="matrix(5.55556,0,0,5.55556,7263.77,9566.93)">
            <g transform="matrix(1,0,0,1,146.4,505.002)">
                <path d="M0,29.087C-0.139,28.814 -0.257,28.651 -0.308,28.469C-0.801,26.728 -1.329,24.994 -1.755,23.236C-2.201,21.394 -2.598,19.535 -2.923,17.667C-3.278,15.629 -3.534,13.573 -3.817,11.523C-4.066,9.728 -4.429,7.936 -4.491,6.133C-4.546,4.527 -4.731,2.87 -4.082,1.298C-3.859,0.757 -3.553,0.34 -3.003,0.144C-2.6,0 -2.414,0.145 -2.4,0.572C-2.393,0.802 -2.423,1.034 -2.408,1.264C-2.347,2.209 -2.279,3.155 -2.205,4.1C-2.166,4.586 -2.053,5.072 -2.064,5.557C-2.115,7.703 -1.731,9.799 -1.362,11.896C-0.917,14.417 -0.473,16.938 0.018,19.45C0.287,20.832 0.668,22.191 0.969,23.567C1.14,24.353 1.261,25.149 1.379,25.943C1.402,26.097 1.363,26.328 1.26,26.42C0.54,27.059 0.369,27.94 0.154,28.806C0.141,28.858 0.102,28.904 0,29.087" style="fill:rgb(241,90,41);fill-rule:nonzero;"/>
            </g>
        </g>
        <g transform="matrix(5.55556,0,0,5.55556,7263.77,9566.93)">
            <g transform="matrix(1,0,0,1,150.08,530.336)">
                <path d="M0,2.781C-1.01,2.5 -1.816,2.851 -2.641,2.787C-2.012,2.474 -1.315,2.449 -0.644,2.337C0.029,2.224 0.708,2.148 1.563,2.032C0.845,1.802 0.714,1.791 0.185,1.866C-0.271,1.93 -0.729,1.986 -1.184,2.056C-1.608,2.123 -2.03,2.203 -2.527,2.29C-2.474,1.897 -2.304,1.674 -1.964,1.6C-1.741,1.552 -1.509,1.528 -1.279,1.521C1.259,1.45 3.772,1.164 6.27,0.701C8.76,0.24 11.26,-0.17 13.758,-0.585C14.268,-0.67 14.792,-0.676 15.308,-0.722C16.886,-0.861 18.463,-1.003 20.042,-1.141C20.18,-1.153 20.32,-1.142 20.563,-1.142C20.441,-0.924 20.362,-0.791 20.292,-0.655C19.989,-0.068 19.592,0.494 19.414,1.117C19.206,1.842 18.741,2.094 18.101,2.144C15.688,2.331 13.275,2.513 10.859,2.659C8.213,2.818 5.562,2.91 2.96,3.494C2.655,3.562 2.329,3.558 2.013,3.551C0.568,3.516 -0.868,3.604 -2.298,3.803C-2.553,3.839 -2.906,3.934 -2.956,3.605C-3.016,3.198 -2.611,3.23 -2.338,3.193C-1.796,3.12 -1.251,3.069 -0.709,2.991C-0.525,2.965 -0.348,2.886 0,2.781" style="fill:rgb(255,252,217);fill-rule:nonzero;"/>
            </g>
        </g>
        <g transform="matrix(5.55556,0,0,5.55556,7263.77,9566.93)">
            <g opacity="0.2">
                <g transform="matrix(1,0,0,1,166.641,534.142)">
                    <path d="M0,-31.577C-3.595,-30.568 -7.189,-29.558 -10.785,-28.549C-12.04,-28.197 -13.329,-27.827 -14.358,-27.028C-15.297,-26.3 -15.949,-25.266 -16.517,-24.223C-19.084,-19.501 -20.324,-14.065 -20.058,-8.696C-19.962,-6.765 -19.495,-4.566 -17.799,-3.638C-16.685,-3.027 -15.29,-3.131 -14.165,-2.54C-15.122,-2.346 -16.08,-2.15 -17.038,-1.956C-17.267,-1.909 -17.506,-1.857 -17.685,-1.706C-17.858,-1.559 -17.948,-1.341 -18.067,-1.147C-18.566,-0.339 -19.705,0 -20.565,-0.404C-22.125,-6.279 -23.342,-12.027 -24.353,-18.021C-24.76,-20.44 -25.17,-22.88 -25.079,-25.332C-25.044,-26.272 -24.927,-27.239 -24.467,-28.06C-24.006,-28.881 -23.125,-29.342 -22.195,-29.482C-13.564,-30.794 -7.351,-31.014 0,-31.577" style="fill:rgb(59,35,20);fill-rule:nonzero;"/>
                </g>
            </g>
        </g>
        <g transform="matrix(5.55556,0,0,5.55556,7263.77,9566.93)">
            <clipPath id="_clip1">
                <path d="M166.398,502.847C165.307,502.949 164.212,503.009 163.12,503.093C161.165,503.243 159.214,503.406 157.258,503.545C155.935,503.639 154.609,503.691 153.286,503.779C152.768,503.813 152.253,503.888 151.739,503.962C149.801,504.242 147.863,504.527 145.926,504.817C145.475,504.884 145.028,504.98 144.58,505.064C144.55,505.515 144.519,505.966 144.491,506.416C144.49,506.446 144.491,506.474 144.491,506.504L144.438,506.509C144.506,507.138 144.574,507.766 144.644,508.395C144.728,509.168 144.829,509.939 144.896,510.712C144.986,511.774 144.995,512.845 145.138,513.898C145.339,515.381 145.616,516.854 145.888,518.327C146.398,521.072 146.912,523.817 147.456,526.557C147.669,527.628 147.979,528.68 148.218,529.746C148.307,530.139 148.313,530.547 148.369,530.948C148.408,531.248 148.588,531.407 148.897,531.401C149.041,531.398 149.185,531.387 149.328,531.374C151.393,531.18 153.456,530.991 155.497,530.593C157.729,530.157 159.974,529.792 162.212,529.382C163.572,529.13 164.93,528.907 166.319,528.846C167.585,528.79 168.845,528.631 170.105,528.493C170.59,528.441 171.068,528.323 171.547,528.226C171.788,528.179 171.873,528.023 171.826,527.781C171.581,526.511 171.374,525.23 171.086,523.969C170.759,522.539 170.267,521.141 170.01,519.7C169.445,516.527 168.983,513.336 168.478,510.154C168.279,508.903 168.107,507.646 167.868,506.402C167.674,505.385 167.406,504.382 167.154,503.376C167.068,503.033 166.871,502.842 166.506,502.842C166.471,502.842 166.436,502.844 166.398,502.847Z" clip-rule="nonzero"/>
            </clipPath>
            <g clip-path="url(#_clip1)">
                <g transform="matrix(1,0,0,1,168.71,522.661)">
                    <path d="M0,-4.577C0.36,-4.328 0.563,-3.901 1.006,-3.737C1.005,-4.524 1,-4.53 0.339,-4.56C0.226,-4.565 0.113,-4.571 0,-4.577M-7.586,-9.09C-7.38,-9.08 -7.175,-9.072 -6.969,-9.058C-6.402,-9.02 -5.823,-9.038 -5.27,-8.929C-4.005,-8.679 -2.717,-8.484 -1.589,-7.785C-1.523,-7.745 -1.443,-7.728 -1.373,-7.693C-0.926,-7.471 -0.514,-7.506 -0.137,-7.843C-0.527,-8.785 -1.366,-9.539 -2.023,-9.987C-2.477,-10.296 -2.983,-10.455 -3.527,-10.385C-4.206,-10.297 -4.888,-10.203 -5.549,-10.035C-6.267,-9.853 -6.958,-9.574 -7.586,-9.09M-1.31,-5.698L-1.292,-5.552C-1.156,-5.481 -1.012,-5.422 -0.883,-5.339C-0.083,-4.83 0.8,-4.825 1.675,-4.988C2.618,-5.165 3.285,-5.741 3.703,-6.617C4.073,-7.39 3.949,-7.65 3.106,-7.728C2.441,-7.79 1.777,-7.787 1.112,-7.694C0.113,-7.556 -0.77,-7.172 -1.536,-6.518C-1.684,-6.392 -1.821,-6.25 -1.95,-6.102C-1.993,-6.054 -1.995,-5.968 -2.016,-5.898C-1.927,-5.885 -1.839,-5.87 -1.75,-5.86C-1.732,-5.858 -1.713,-5.872 -1.695,-5.881C-0.67,-6.375 0.45,-6.479 1.549,-6.666C1.642,-6.681 1.744,-6.677 1.834,-6.655C1.875,-6.645 1.911,-6.574 1.928,-6.523C1.936,-6.499 1.902,-6.437 1.875,-6.428C1.729,-6.376 1.583,-6.32 1.431,-6.292C1.027,-6.216 0.617,-6.168 0.215,-6.079C-0.297,-5.967 -0.802,-5.826 -1.31,-5.698M-10.571,-7.35C-10.549,-7.295 -10.527,-7.239 -10.506,-7.184C-10.081,-7.202 -9.648,-7.176 -9.232,-7.246C-8.298,-7.402 -7.367,-7.446 -6.422,-7.388C-5.16,-7.31 -4.004,-6.931 -2.918,-6.304C-2.816,-6.245 -2.719,-6.16 -2.61,-6.139C-2.513,-6.118 -2.365,-6.133 -2.303,-6.195C-1.961,-6.534 -1.638,-6.892 -1.28,-7.275C-2.075,-7.585 -2.781,-8.039 -3.641,-8.247C-4.833,-8.534 -6.022,-8.711 -7.241,-8.745C-8.636,-8.784 -8.237,-8.9 -9.431,-8.156C-9.825,-7.91 -10.191,-7.62 -10.571,-7.35M-16.502,2.143C-16.501,2.135 -16.501,2.127 -16.501,2.118C-15.757,2.156 -15.013,2.222 -14.269,2.226C-13.447,2.231 -12.625,2.191 -11.803,2.149C-11.178,2.116 -10.553,2.067 -9.931,1.993C-9.683,1.964 -9.436,1.87 -9.204,1.771C-9.012,1.689 -8.916,1.512 -8.915,1.295C-8.913,1.066 -9.045,0.927 -9.243,0.858C-9.407,0.799 -9.582,0.743 -9.753,0.738C-10.202,0.725 -10.652,0.736 -11.102,0.743C-11.788,0.752 -12.476,0.802 -13.161,0.769C-13.854,0.735 -14.555,0.843 -15.243,0.674C-15.298,0.66 -15.36,0.669 -15.419,0.669C-16.339,0.654 -17.26,0.644 -18.18,0.625C-18.514,0.619 -18.847,0.583 -19.18,0.581C-19.486,0.579 -19.657,0.699 -19.733,0.925C-19.839,1.237 -19.703,1.644 -19.396,1.776C-19.112,1.898 -18.805,2.001 -18.5,2.031C-17.836,2.096 -17.168,2.109 -16.502,2.143M-14.908,-3.57C-14.328,-3.971 -13.795,-4.375 -13.226,-4.718C-12.879,-4.926 -12.487,-5.095 -12.094,-5.181C-10.479,-5.538 -8.845,-5.645 -7.187,-5.547C-6.231,-5.489 -5.33,-5.363 -4.489,-4.866C-3.679,-4.388 -2.798,-4.022 -2.014,-3.508C-0.607,-2.585 0.233,-1.338 -0.083,0.45C-0.116,0.636 0.094,1.036 0.281,1.123C0.335,1.15 0.444,1.136 0.487,1.097C0.715,0.884 0.962,0.679 1.143,0.428C1.347,0.145 1.47,-0.196 1.659,-0.493C2.078,-1.153 2.028,-1.789 1.604,-2.42C1.505,-2.565 1.397,-2.707 1.314,-2.86C1.088,-3.278 0.671,-3.49 0.323,-3.766C-0.305,-4.265 -0.962,-4.729 -1.626,-5.18C-2.013,-5.442 -2.448,-5.633 -2.842,-5.886C-4.542,-6.977 -6.413,-7.225 -8.376,-7.028C-8.844,-6.981 -9.311,-6.87 -9.777,-6.869C-10.743,-6.869 -11.688,-6.727 -12.626,-6.528C-13.524,-6.338 -14.345,-5.978 -15.022,-5.342C-15.133,-5.238 -15.292,-5.097 -15.288,-4.977C-15.269,-4.5 -15.331,-3.988 -14.908,-3.57M-7.199,-1.984C-7.269,-2.028 -7.344,-2.059 -7.399,-2.112C-7.956,-2.652 -7.88,-3.13 -7.176,-3.421C-6.465,-3.714 -5.761,-3.663 -5.072,-3.322C-4.639,-3.107 -4.348,-2.776 -4.265,-2.301C-4.187,-1.847 -4.283,-1.439 -4.704,-1.169C-4.875,-1.058 -4.855,-0.919 -4.767,-0.763C-4.544,-0.37 -4.262,-0.255 -3.72,-0.342C-3.397,-0.394 -3.344,-0.355 -3.314,-0.034C-3.303,0.082 -3.329,0.211 -3.289,0.315C-3.25,0.412 -3.156,0.541 -3.068,0.557C-2.687,0.622 -2.32,0.855 -1.904,0.641C-1.74,0.556 -1.523,0.569 -1.329,0.549C-1.114,0.527 -0.896,0.53 -0.684,0.494C-0.608,0.482 -0.496,0.39 -0.488,0.323C-0.43,-0.181 -0.314,-0.711 -0.543,-1.185C-0.938,-2.005 -1.425,-2.765 -2.268,-3.212C-3.151,-3.681 -4.042,-4.138 -4.912,-4.631C-5.565,-5 -6.262,-5.129 -6.996,-5.162C-8.391,-5.224 -9.773,-5.137 -11.161,-4.983C-12.467,-4.839 -13.467,-4.158 -14.434,-3.377C-15.25,-2.717 -14.697,-1.835 -14.055,-1.539C-13.996,-1.513 -13.865,-1.517 -13.843,-1.554C-13.712,-1.77 -13.578,-1.992 -13.502,-2.23C-13.479,-2.307 -13.637,-2.435 -13.696,-2.549C-13.727,-2.607 -13.756,-2.716 -13.727,-2.747C-13.686,-2.791 -13.59,-2.791 -13.518,-2.798C-13.481,-2.801 -13.441,-2.782 -13.405,-2.767C-12.658,-2.476 -11.967,-2.663 -11.332,-3.064C-10.887,-3.346 -10.495,-3.71 -10.063,-4.015C-9.762,-4.228 -9.443,-4.421 -9.115,-4.591C-8.925,-4.688 -8.705,-4.708 -8.512,-4.46C-8.673,-4.412 -8.8,-4.374 -8.927,-4.337C-9.443,-4.184 -9.827,-3.86 -10.081,-3.395C-10.328,-2.943 -10.271,-2.682 -9.866,-2.376C-9.389,-2.014 -8.846,-1.793 -8.257,-1.694C-7.897,-1.634 -7.552,-1.674 -7.199,-1.984M-14.313,0.336C-14.087,0.36 -13.954,0.388 -13.82,0.386C-13.017,0.376 -12.214,0.35 -11.411,0.348C-10.725,0.347 -10.038,0.353 -9.353,0.392C-8.958,0.414 -8.601,0.834 -8.571,1.228C-8.537,1.666 -8.737,1.992 -9.153,2.138C-9.375,2.216 -9.604,2.298 -9.835,2.318C-10.849,2.406 -11.865,2.481 -12.881,2.546C-13.409,2.58 -13.938,2.577 -14.466,2.605C-14.741,2.619 -14.797,2.681 -14.79,2.981C-14.775,3.61 -14.503,4.142 -14.005,4.492C-13.595,4.781 -13.121,5.017 -12.641,5.162C-11.534,5.498 -10.402,5.749 -9.231,5.717C-8.8,5.704 -8.37,5.651 -7.94,5.658C-7.063,5.676 -6.227,5.468 -5.399,5.223C-4.791,5.043 -4.248,4.722 -3.779,4.294C-3.625,4.152 -3.483,3.972 -3.401,3.781C-3.231,3.387 -3.082,2.98 -2.969,2.566C-2.906,2.335 -2.784,2.184 -2.606,2.055C-2.285,1.822 -1.917,1.786 -1.538,1.812C-1.234,1.832 -1.048,1.957 -1.107,2.094C-1.193,2.292 -1.377,2.18 -1.52,2.194C-1.559,2.198 -1.598,2.19 -1.637,2.19C-2.228,2.191 -2.396,2.311 -2.576,2.858C-2.698,3.227 -2.538,3.533 -2.148,3.574C-1.863,3.605 -1.554,3.594 -1.28,3.516C-0.731,3.36 -0.356,2.942 0.007,2.526C0.331,2.152 -0.036,1.827 -0.093,1.488C-0.123,1.306 -0.32,1.148 -0.454,0.987C-0.484,0.95 -0.562,0.946 -0.619,0.939C-1.131,0.875 -1.64,0.891 -2.133,1.049C-2.298,1.102 -2.449,1.278 -2.6,1.272C-2.756,1.265 -2.894,1.065 -3.06,1.017C-3.389,0.923 -3.631,0.764 -3.713,0.416C-3.754,0.239 -3.859,0.163 -4.044,0.147C-4.604,0.096 -4.972,-0.22 -5.211,-0.72C-5.415,-1.145 -5.427,-1.139 -5.055,-1.421C-4.537,-1.812 -4.48,-2.326 -4.966,-2.747C-5.591,-3.289 -6.36,-3.376 -7.105,-2.989C-7.365,-2.853 -7.364,-2.589 -7.105,-2.441C-6.997,-2.38 -6.848,-2.394 -6.719,-2.367C-6.615,-2.346 -6.468,-2.348 -6.419,-2.281C-6.314,-2.137 -6.453,-2.039 -6.554,-1.943C-7.066,-1.455 -7.655,-1.188 -8.375,-1.34C-9.366,-1.547 -10.308,-1.834 -10.688,-2.979C-11.331,-2.509 -12.029,-2.215 -12.82,-2.199C-13.036,-2.195 -13.121,-2.056 -13.205,-1.891C-13.481,-1.35 -13.766,-0.813 -14.042,-0.271C-14.13,-0.099 -14.201,0.081 -14.313,0.336M-14.078,-1.092C-14.213,-1.176 -14.327,-1.246 -14.44,-1.318C-15.005,-1.676 -15.31,-2.169 -15.192,-2.852C-15.142,-3.139 -15.16,-3.371 -15.343,-3.621C-15.65,-4.041 -15.581,-4.563 -15.598,-5.046C-15.604,-5.203 -15.43,-5.392 -15.296,-5.524C-14.561,-6.253 -13.648,-6.642 -12.65,-6.856C-12.324,-6.927 -11.998,-7.003 -11.667,-7.038C-11.371,-7.069 -11.171,-7.215 -10.964,-7.415C-10.641,-7.726 -10.276,-7.996 -9.929,-8.284C-9.75,-8.433 -9.572,-8.585 -9.39,-8.731C-9.299,-8.804 -9.208,-8.883 -9.104,-8.931C-8.304,-9.304 -7.508,-9.687 -6.697,-10.033C-5.584,-10.506 -4.426,-10.773 -3.206,-10.753C-2.651,-10.744 -2.164,-10.569 -1.726,-10.25C-1.022,-9.738 -0.397,-9.149 0.037,-8.378C0.301,-7.91 0.317,-7.902 0.822,-8.002C1.582,-8.152 2.344,-8.148 3.109,-8.078C3.284,-8.062 3.46,-8.034 3.629,-7.985C4.214,-7.816 4.394,-7.561 4.225,-6.996C4.027,-6.332 3.708,-5.721 3.132,-5.289C2.688,-4.956 2.211,-4.695 1.65,-4.606C1.295,-4.55 1.288,-4.522 1.337,-4.191C1.418,-3.649 1.527,-3.13 1.868,-2.664C2.417,-1.912 2.417,-1.113 2,-0.275C1.681,0.366 1.348,0.981 0.755,1.409C0.557,1.552 0.481,1.729 0.515,1.966C0.586,2.462 0.386,2.846 0.009,3.152C-0.22,3.337 -0.428,3.557 -0.679,3.702C-1.28,4.051 -1.92,4.207 -2.582,3.862C-2.796,3.751 -2.919,3.824 -3.018,3.993C-3.549,4.907 -4.433,5.322 -5.372,5.64C-6.288,5.948 -7.244,6.059 -8.208,6.093C-8.639,6.108 -9.069,6.125 -9.5,6.145C-10.64,6.196 -11.71,5.832 -12.788,5.553C-13.252,5.433 -13.709,5.194 -14.104,4.915C-14.741,4.469 -15.119,3.835 -15.144,3.028C-15.156,2.652 -15.159,2.645 -15.544,2.624C-16.152,2.593 -16.762,2.588 -17.369,2.542C-17.916,2.501 -18.461,2.43 -19.003,2.352C-19.194,2.323 -19.384,2.251 -19.561,2.17C-20.083,1.93 -20.336,1.252 -20.104,0.722C-19.956,0.384 -19.692,0.2 -19.318,0.21C-18.866,0.221 -18.415,0.251 -17.963,0.262C-17.003,0.285 -16.042,0.298 -15.081,0.324C-14.881,0.329 -14.748,0.271 -14.659,0.083C-14.475,-0.305 -14.279,-0.687 -14.078,-1.092" style="fill:rgb(35,31,32);fill-rule:nonzero;"/>
                </g>
                <g transform="matrix(1,0,0,1,159.566,525.629)">
                    <path d="M0,-3.563C0.011,-3.925 -0.066,-4.06 -0.235,-4.101C-0.417,-4.146 -0.624,-4.029 -0.674,-3.808C-0.717,-3.621 -0.721,-3.42 -0.706,-3.228C-0.699,-3.151 -0.605,-3.032 -0.536,-3.02C-0.438,-3.002 -0.278,-3.034 -0.229,-3.103C-0.11,-3.273 -0.041,-3.476 0,-3.563M1.368,-3.542C1.287,-3.682 1.245,-3.856 1.138,-3.917C0.963,-4.018 0.811,-3.897 0.704,-3.739C0.553,-3.516 0.528,-3.266 0.583,-3.015C0.637,-2.775 0.929,-2.695 1.074,-2.895C1.204,-3.074 1.264,-3.303 1.368,-3.542M-0.059,1.596C0.243,1.527 0.559,1.493 0.845,1.382C1.525,1.118 2.041,0.633 2.426,0.023C2.552,-0.177 2.633,-0.396 2.877,-0.488C2.929,-0.507 2.988,-0.551 3.011,-0.599C3.058,-0.699 3.083,-0.81 3.118,-0.916C3.013,-0.922 2.886,-0.97 2.807,-0.928C2.485,-0.757 2.168,-0.778 1.839,-0.888C1.748,-0.919 1.651,-0.945 1.555,-0.951C1.509,-0.953 1.433,-0.914 1.418,-0.875C1.402,-0.834 1.431,-0.762 1.46,-0.718C1.492,-0.672 1.548,-0.642 1.593,-0.604C1.736,-0.486 2.012,-0.344 1.996,-0.253C1.962,-0.064 1.791,0.114 1.647,0.269C1.503,0.426 1.325,0.554 1.158,0.691C0.584,1.162 -0.066,1.18 -0.735,0.975C-1.033,0.884 -1.307,0.718 -1.598,0.602C-1.672,0.573 -1.77,0.601 -1.857,0.604C-1.837,0.694 -1.841,0.802 -1.79,0.869C-1.721,0.959 -1.615,1.026 -1.516,1.087C-1.075,1.365 -0.594,1.519 -0.059,1.596M-5.17,-2.632C-5.057,-2.887 -4.986,-3.068 -4.899,-3.24C-4.623,-3.782 -4.338,-4.319 -4.061,-4.86C-3.978,-5.024 -3.893,-5.164 -3.676,-5.167C-2.885,-5.183 -2.188,-5.477 -1.544,-5.948C-1.164,-4.802 -0.222,-4.515 0.769,-4.308C1.488,-4.157 2.077,-4.423 2.59,-4.912C2.69,-5.007 2.829,-5.105 2.724,-5.25C2.676,-5.316 2.528,-5.314 2.424,-5.335C2.295,-5.363 2.146,-5.348 2.039,-5.41C1.779,-5.557 1.778,-5.822 2.039,-5.958C2.784,-6.344 3.553,-6.257 4.178,-5.715C4.663,-5.294 4.607,-4.781 4.089,-4.389C3.717,-4.108 3.729,-4.114 3.933,-3.688C4.172,-3.188 4.539,-2.873 5.1,-2.822C5.285,-2.805 5.389,-2.729 5.431,-2.552C5.512,-2.205 5.754,-2.045 6.084,-1.952C6.25,-1.904 6.388,-1.704 6.544,-1.697C6.695,-1.69 6.845,-1.867 7.01,-1.919C7.503,-2.078 8.012,-2.093 8.524,-2.03C8.582,-2.022 8.659,-2.018 8.69,-1.981C8.823,-1.821 9.021,-1.663 9.051,-1.48C9.107,-1.141 9.475,-0.816 9.15,-0.443C8.788,-0.027 8.413,0.391 7.863,0.547C7.589,0.625 7.28,0.636 6.995,0.606C6.605,0.565 6.445,0.258 6.567,-0.111C6.748,-0.658 6.916,-0.778 7.506,-0.779C7.545,-0.779 7.585,-0.77 7.624,-0.774C7.767,-0.789 7.951,-0.676 8.037,-0.875C8.096,-1.011 7.909,-1.136 7.605,-1.157C7.227,-1.182 6.859,-1.146 6.538,-0.914C6.36,-0.785 6.237,-0.633 6.174,-0.403C6.062,0.011 5.913,0.418 5.743,0.813C5.661,1.003 5.519,1.184 5.364,1.326C4.896,1.753 4.353,2.075 3.744,2.254C2.917,2.499 2.081,2.708 1.203,2.69C0.774,2.682 0.343,2.736 -0.087,2.749C-1.258,2.781 -2.39,2.53 -3.498,2.194C-3.978,2.048 -4.452,1.813 -4.862,1.524C-5.36,1.173 -5.632,0.641 -5.646,0.012C-5.653,-0.288 -5.597,-0.349 -5.323,-0.364C-4.794,-0.391 -4.265,-0.388 -3.738,-0.422C-2.722,-0.488 -1.706,-0.562 -0.691,-0.651C-0.46,-0.67 -0.231,-0.752 -0.01,-0.831C0.406,-0.976 0.606,-1.302 0.572,-1.741C0.542,-2.134 0.185,-2.554 -0.209,-2.577C-0.894,-2.616 -1.582,-2.622 -2.268,-2.621C-3.071,-2.619 -3.874,-2.592 -4.677,-2.583C-4.81,-2.581 -4.944,-2.608 -5.17,-2.632" style="fill:rgb(254,220,196);fill-rule:nonzero;"/>
                </g>
                <g transform="matrix(1,0,0,1,161.511,520.276)">
                    <path d="M0,0.401C-0.353,0.712 -0.698,0.752 -1.058,0.691C-1.647,0.592 -2.19,0.371 -2.667,0.009C-3.072,-0.297 -3.129,-0.558 -2.882,-1.01C-2.628,-1.475 -2.245,-1.799 -1.728,-1.952C-1.602,-1.989 -1.475,-2.027 -1.313,-2.075C-1.506,-2.323 -1.727,-2.303 -1.916,-2.205C-2.245,-2.036 -2.563,-1.843 -2.865,-1.629C-3.296,-1.325 -3.688,-0.96 -4.133,-0.679C-4.768,-0.278 -5.459,-0.091 -6.206,-0.382C-6.242,-0.397 -6.282,-0.415 -6.319,-0.412C-6.392,-0.406 -6.487,-0.406 -6.528,-0.362C-6.557,-0.33 -6.528,-0.222 -6.497,-0.163C-6.438,-0.05 -6.28,0.078 -6.304,0.155C-6.379,0.393 -6.514,0.615 -6.645,0.832C-6.667,0.868 -6.797,0.873 -6.856,0.846C-7.498,0.55 -8.052,-0.331 -7.235,-0.992C-6.269,-1.773 -5.269,-2.453 -3.962,-2.598C-2.574,-2.751 -1.192,-2.839 0.203,-2.777C0.937,-2.744 1.634,-2.615 2.287,-2.245C3.157,-1.752 4.048,-1.296 4.931,-0.827C5.773,-0.379 6.261,0.38 6.656,1.2C6.885,1.674 6.769,2.204 6.71,2.709C6.703,2.775 6.59,2.867 6.515,2.88C6.303,2.916 6.085,2.913 5.87,2.934C5.676,2.955 5.459,2.941 5.294,3.026C4.878,3.24 4.512,3.007 4.13,2.942C4.043,2.926 3.949,2.797 3.91,2.7C3.87,2.596 3.896,2.467 3.885,2.351C3.855,2.03 3.802,1.991 3.479,2.044C2.937,2.13 2.654,2.015 2.432,1.623C2.344,1.466 2.323,1.327 2.495,1.216C2.916,0.946 3.012,0.539 2.934,0.085C2.851,-0.391 2.56,-0.722 2.126,-0.937C1.438,-1.278 0.733,-1.328 0.022,-1.036C-0.682,-0.745 -0.757,-0.267 -0.2,0.273C-0.146,0.326 -0.07,0.357 0,0.401" style="fill:rgb(35,31,32);fill-rule:nonzero;"/>
                </g>
                <g transform="matrix(1,0,0,1,153.802,520.156)">
                    <path d="M0,-1.065C-0.423,-1.483 -0.361,-1.995 -0.38,-2.472C-0.385,-2.591 -0.225,-2.733 -0.115,-2.836C0.563,-3.473 1.383,-3.833 2.282,-4.023C3.22,-4.222 4.165,-4.364 5.13,-4.364C5.597,-4.365 6.063,-4.476 6.531,-4.523C8.495,-4.72 10.365,-4.472 12.065,-3.38C12.459,-3.128 12.895,-2.937 13.282,-2.674C13.946,-2.224 14.603,-1.759 15.231,-1.261C15.579,-0.985 15.996,-0.773 16.222,-0.355C16.305,-0.202 16.413,-0.06 16.511,0.085C16.936,0.716 16.986,1.352 16.566,2.012C16.378,2.309 16.254,2.65 16.05,2.933C15.87,3.184 15.623,3.389 15.395,3.602C15.352,3.641 15.243,3.655 15.188,3.628C15.002,3.541 14.792,3.141 14.825,2.956C15.141,1.167 14.3,-0.08 12.894,-1.003C12.109,-1.517 11.229,-1.882 10.419,-2.361C9.578,-2.858 8.677,-2.984 7.721,-3.042C6.063,-3.14 4.429,-3.033 2.814,-2.675C2.42,-2.589 2.028,-2.42 1.682,-2.212C1.112,-1.87 0.58,-1.465 0,-1.065" style="fill:rgb(255,223,96);fill-rule:nonzero;"/>
                </g>
                <g transform="matrix(1,0,0,1,152.208,523.329)">
                    <path d="M0,1.475C-0.667,1.441 -1.334,1.428 -1.998,1.364C-2.303,1.333 -2.61,1.23 -2.894,1.108C-3.201,0.976 -3.337,0.57 -3.231,0.257C-3.155,0.032 -2.984,-0.088 -2.678,-0.087C-2.345,-0.085 -2.012,-0.048 -1.678,-0.043C-0.758,-0.024 0.163,-0.013 1.083,0.001C1.142,0.001 1.204,-0.007 1.259,0.006C1.947,0.175 2.648,0.067 3.341,0.101C4.026,0.134 4.714,0.084 5.4,0.076C5.85,0.069 6.3,0.057 6.749,0.071C6.92,0.076 7.095,0.131 7.259,0.19C7.457,0.259 7.589,0.398 7.587,0.627C7.586,0.844 7.49,1.021 7.298,1.103C7.066,1.203 6.819,1.296 6.571,1.326C5.949,1.399 5.324,1.449 4.699,1.481C3.877,1.523 3.055,1.563 2.233,1.558C1.489,1.554 0.745,1.489 0.001,1.451C0.001,1.459 0,1.467 0,1.475" style="fill:rgb(248,170,151);fill-rule:nonzero;"/>
                </g>
                <g transform="matrix(1,0,0,1,158.139,514.993)">
                    <path d="M0,0.318C0.379,0.048 0.746,-0.242 1.14,-0.488C2.334,-1.232 1.935,-1.116 3.33,-1.077C4.548,-1.042 5.737,-0.866 6.93,-0.578C7.79,-0.37 8.496,0.084 9.291,0.393C8.933,0.776 8.61,1.134 8.268,1.473C8.206,1.536 8.058,1.55 7.961,1.53C7.852,1.508 7.754,1.423 7.653,1.365C6.567,0.738 5.411,0.358 4.149,0.281C3.204,0.222 2.273,0.266 1.339,0.422C0.923,0.493 0.49,0.466 0.065,0.484C0.043,0.429 0.021,0.374 0,0.318" style="fill:rgb(241,90,41);fill-rule:nonzero;"/>
                </g>
                <g transform="matrix(1,0,0,1,167.4,515.744)">
                    <path d="M0,1.219C0.508,1.091 1.013,0.95 1.525,0.838C1.927,0.749 2.337,0.701 2.741,0.625C2.893,0.597 3.04,0.541 3.185,0.49C3.212,0.48 3.246,0.418 3.238,0.394C3.221,0.343 3.185,0.272 3.145,0.262C3.054,0.24 2.952,0.236 2.859,0.251C1.76,0.438 0.64,0.542 -0.385,1.036C-0.403,1.045 -0.422,1.059 -0.44,1.057C-0.529,1.047 -0.617,1.032 -0.706,1.019C-0.685,0.949 -0.683,0.864 -0.64,0.815C-0.511,0.667 -0.374,0.525 -0.226,0.399C0.54,-0.255 1.423,-0.638 2.422,-0.777C3.087,-0.87 3.751,-0.873 4.416,-0.811C5.259,-0.733 5.383,-0.473 5.013,0.3C4.595,1.176 3.928,1.752 2.985,1.929C2.11,2.092 1.227,2.087 0.427,1.578C0.298,1.495 0.154,1.436 0.018,1.365L0,1.219Z" style="fill:rgb(237,28,36);fill-rule:nonzero;"/>
                </g>
                <g transform="matrix(1,0,0,1,161.123,513.825)">
                    <path d="M0,-0.254C0.628,-0.738 1.319,-1.018 2.037,-1.199C2.699,-1.367 3.381,-1.461 4.059,-1.549C4.603,-1.619 5.109,-1.46 5.563,-1.151C6.22,-0.703 7.06,0.051 7.449,0.993C7.073,1.33 6.661,1.365 6.213,1.142C6.144,1.107 6.063,1.091 5.998,1.051C4.87,0.351 3.581,0.157 2.317,-0.093C1.763,-0.202 1.185,-0.185 0.617,-0.223C0.412,-0.236 0.206,-0.244 0,-0.254" style="fill:rgb(255,223,96);fill-rule:nonzero;"/>
                </g>
                <g transform="matrix(1,0,0,1,168.71,518.924)">
                    <path d="M0,-0.84C0.113,-0.834 0.226,-0.828 0.339,-0.823C1,-0.793 1.005,-0.787 1.006,0C0.563,-0.164 0.36,-0.591 0,-0.84" style="fill:rgb(241,90,41);fill-rule:nonzero;"/>
                </g>
                <g transform="matrix(1,0,0,1,159.508,524.66)">
                    <path d="M0,2.566C-0.536,2.489 -1.017,2.335 -1.458,2.057C-1.557,1.996 -1.663,1.929 -1.731,1.838C-1.782,1.772 -1.778,1.664 -1.798,1.574C-1.711,1.571 -1.614,1.543 -1.54,1.572C-1.249,1.688 -0.975,1.854 -0.677,1.945C-0.008,2.15 0.643,2.131 1.217,1.661C1.384,1.524 1.562,1.396 1.706,1.239C1.85,1.084 2.021,0.906 2.055,0.716C2.071,0.626 1.795,0.484 1.651,0.366C1.606,0.328 1.55,0.297 1.519,0.252C1.489,0.208 1.461,0.136 1.477,0.094C1.492,0.056 1.567,0.017 1.614,0.019C1.709,0.025 1.806,0.05 1.898,0.082C2.227,0.192 2.543,0.212 2.865,0.042C2.945,0 3.072,0.047 3.177,0.054C3.142,0.16 3.117,0.271 3.069,0.371C3.046,0.419 2.988,0.462 2.936,0.482C2.691,0.574 2.611,0.793 2.484,0.993C2.099,1.603 1.584,2.087 0.903,2.352C0.618,2.462 0.302,2.497 0,2.566" style="fill:rgb(35,31,32);fill-rule:nonzero;"/>
                </g>
                <g transform="matrix(1,0,0,1,160.934,522.458)">
                    <path d="M0,-0.37C-0.104,-0.132 -0.164,0.098 -0.294,0.276C-0.439,0.477 -0.731,0.397 -0.785,0.156C-0.84,-0.095 -0.815,-0.345 -0.665,-0.567C-0.558,-0.725 -0.405,-0.847 -0.23,-0.746C-0.124,-0.684 -0.081,-0.511 0,-0.37" style="fill:rgb(35,31,32);fill-rule:nonzero;"/>
                </g>
                <g transform="matrix(1,0,0,1,159.566,522.044)">
                    <path d="M0,0.022C-0.041,0.109 -0.11,0.312 -0.229,0.482C-0.278,0.551 -0.438,0.583 -0.536,0.565C-0.605,0.553 -0.699,0.434 -0.706,0.357C-0.721,0.165 -0.717,-0.036 -0.674,-0.223C-0.624,-0.444 -0.417,-0.561 -0.235,-0.516C-0.066,-0.475 0.011,-0.34 0,0.022" style="fill:rgb(35,31,32);fill-rule:nonzero;"/>
                </g>
            </g>
        </g>
        <g transform="matrix(5.55556,0,0,5.55556,7263.77,9566.93)">
            <g transform="matrix(1.12981,-0.131265,0.030547,1.00318,-68.3329,7.93911)">
                <text x="175.498px" y="522.961px" style="font-family:'ITCAvantGardeStd-Bk', 'ITC Avant Garde Gothic Std', sans-serif;font-weight:300;font-size:4.946px;fill:rgb(35,31,32);">Cuento</text>
            </g>
        </g>
        <g transform="matrix(5.55556,0,0,5.55556,7263.77,9566.93)">
            <g transform="matrix(1.12983,-0.131261,0.0305319,1.00318,-68.6814,7.97927)">
                <text x="175.706px" y="526.636px" style="font-family:'ITCAvantGardeStd-Bk', 'ITC Avant Garde Gothic Std', sans-serif;font-weight:300;font-size:4.664px;fill:white;">Pinocho</text>
            </g>
        </g>
    </g>
</svg>
