<?xml version="1.0" encoding="UTF-8" standalone="no"?>
<!DOCTYPE svg PUBLIC "-//W3C//DTD SVG 1.1//EN" "http://www.w3.org/Graphics/SVG/1.1/DTD/svg11.dtd">
<svg width="100%" height="100%" viewBox="0 0 158 182" version="1.1" xmlns="http://www.w3.org/2000/svg" xmlns:xlink="http://www.w3.org/1999/xlink" xml:space="preserve" xmlns:serif="http://www.serif.com/" style="fill-rule:evenodd;clip-rule:evenodd;stroke-linejoin:round;stroke-miterlimit:2;">
    <g transform="matrix(1,0,0,1,-8234.59,-12357.7)">
        <g transform="matrix(5.55556,0,0,5.55556,7263.77,9566.93)">
            <g transform="matrix(1,0,0,1,179.767,505.748)">
                <path d="M0,25.803C-0.362,25.837 -0.551,25.879 -0.737,25.868C-1.283,25.837 -1.828,25.779 -2.374,25.742C-2.648,25.724 -3.039,25.613 -3.061,26.024C-3.078,26.356 -2.712,26.332 -2.456,26.348C-1.015,26.438 0.411,26.637 1.819,26.959C2.127,27.03 2.447,27.098 2.759,27.091C5.425,27.036 8.041,27.475 10.666,27.845C13.063,28.184 15.464,28.485 17.866,28.782C18.502,28.861 19.009,28.705 19.356,28.036C19.655,27.461 20.156,26.99 20.57,26.475C20.666,26.355 20.77,26.24 20.932,26.051C20.694,26.003 20.559,25.965 20.421,25.949C18.847,25.77 17.273,25.595 15.699,25.417C15.183,25.36 14.669,25.261 14.152,25.242C11.622,25.153 9.09,25.057 6.559,25.013C4.018,24.97 1.499,24.75 -1.003,24.315C-1.229,24.276 -1.461,24.252 -1.69,24.255C-2.037,24.26 -2.249,24.446 -2.379,24.82C-1.875,24.833 -1.445,24.838 -1.017,24.858C-0.556,24.879 -0.097,24.915 0.363,24.944C0.896,24.976 1.022,25.012 1.681,25.381C0.82,25.324 0.139,25.264 -0.542,25.241C-1.224,25.216 -1.911,25.103 -2.589,25.283C-1.794,25.511 -0.934,25.327 0,25.803M-3.8,26.024C-3.664,25.865 -3.616,25.827 -3.593,25.779C-3.21,24.973 -2.868,24.144 -2.034,23.66C-1.915,23.591 -1.831,23.372 -1.823,23.218C-1.781,22.415 -1.741,21.611 -1.752,20.808C-1.773,19.399 -1.875,17.991 -1.865,16.583C-1.846,14.024 -1.78,11.464 -1.713,8.906C-1.658,6.777 -1.618,4.647 -1.141,2.553C-1.033,2.081 -1.047,1.582 -0.988,1.098C-0.874,0.157 -0.751,-0.784 -0.623,-1.722C-0.592,-1.951 -0.517,-2.172 -0.478,-2.399C-0.406,-2.82 -0.56,-2.999 -0.984,-2.938C-1.562,-2.855 -1.944,-2.509 -2.271,-2.022C-3.219,-0.61 -3.368,1.05 -3.633,2.635C-3.931,4.413 -3.933,6.242 -4.046,8.051C-4.175,10.116 -4.334,12.183 -4.392,14.25C-4.445,16.146 -4.426,18.046 -4.355,19.941C-4.288,21.748 -4.116,23.552 -3.979,25.357C-3.965,25.545 -3.882,25.729 -3.8,26.024M-0.181,-1.39C-0.199,-1.392 -0.217,-1.393 -0.234,-1.395C-0.292,-0.765 -0.35,-0.136 -0.408,0.493C-0.479,1.268 -0.533,2.043 -0.622,2.816C-0.745,3.873 -0.949,4.925 -1.019,5.986C-1.116,7.479 -1.139,8.978 -1.164,10.475C-1.212,13.267 -1.254,16.06 -1.266,18.852C-1.271,19.945 -1.176,21.036 -1.153,22.13C-1.145,22.531 -1.22,22.933 -1.247,23.336C-1.267,23.639 -1.121,23.83 -0.818,23.886C-0.676,23.912 -0.533,23.931 -0.39,23.946C1.671,24.167 3.731,24.393 5.811,24.408C8.084,24.425 10.358,24.514 12.632,24.556C14.015,24.581 15.391,24.633 16.765,24.849C18.015,25.046 19.283,25.142 20.545,25.257C21.031,25.302 21.522,25.282 22.012,25.283C22.257,25.283 22.371,25.148 22.373,24.901C22.385,23.607 22.437,22.312 22.406,21.019C22.37,19.552 22.166,18.084 22.201,16.621C22.279,13.4 22.461,10.181 22.6,6.96C22.654,5.695 22.735,4.429 22.749,3.163C22.76,2.127 22.697,1.091 22.651,0.055C22.634,-0.332 22.45,-0.567 22.016,-0.614C20.926,-0.731 19.841,-0.89 18.754,-1.025C16.809,-1.267 14.862,-1.495 12.919,-1.748C11.604,-1.92 10.294,-2.133 8.98,-2.309C8.466,-2.379 7.947,-2.409 7.428,-2.438C5.473,-2.55 3.518,-2.657 1.562,-2.758C1.106,-2.781 0.648,-2.776 0.192,-2.784C0.073,-2.347 -0.045,-1.912 -0.164,-1.475C-0.171,-1.447 -0.176,-1.419 -0.181,-1.39M-3.894,0.895C-3.612,-0.241 -3.25,-1.325 -2.629,-2.321C-2.117,-3.142 -1.392,-3.489 -0.444,-3.382C0.728,-3.249 1.903,-3.134 3.08,-3.063C5.006,-2.948 6.936,-2.906 8.861,-2.773C10.009,-2.694 11.15,-2.505 12.294,-2.358C14.552,-2.07 16.809,-1.778 19.066,-1.486C20.096,-1.352 21.123,-1.199 22.155,-1.088C22.707,-1.028 23.005,-0.74 23.05,-0.218C23.146,0.9 23.288,2.021 23.271,3.139C23.244,5.037 23.099,6.934 23.024,8.831C22.99,9.723 23.021,10.616 22.996,11.509C22.94,13.551 22.817,15.594 22.821,17.636C22.824,19.044 23.036,20.45 23.074,21.86C23.105,23.037 23.032,24.218 22.981,25.397C22.961,25.864 22.864,25.904 22.341,26.006C22.098,26.053 21.846,26.151 21.642,26.29C20.792,26.867 20.117,27.621 19.667,28.542C19.415,29.058 19.032,29.254 18.504,29.266C18.246,29.272 17.983,29.292 17.729,29.258C14.386,28.811 11.048,28.322 7.701,27.915C6.074,27.718 4.429,27.67 2.792,27.557C2.563,27.54 2.331,27.551 2.104,27.516C0.424,27.256 -1.254,26.988 -2.933,26.722C-3.075,26.699 -3.217,26.67 -3.36,26.657C-4.212,26.583 -4.482,26.356 -4.566,25.521C-4.68,24.375 -4.759,23.227 -4.843,22.079C-4.9,21.304 -4.971,20.529 -4.983,19.753C-5.011,18.056 -5.042,16.357 -5.001,14.66C-4.959,12.907 -4.866,11.152 -4.737,9.401C-4.6,7.534 -4.401,5.673 -4.219,3.81C-4.123,2.837 -4.003,1.866 -3.894,0.895" style="fill:rgb(35,31,32);fill-rule:nonzero;"/>
            </g>
        </g>
        <g transform="matrix(5.55556,0,0,5.55556,7263.77,9566.93)">
            <g transform="matrix(1,0,0,1,179.586,529.656)">
                <path d="M0,-25.298C0.005,-25.326 0.01,-25.355 0.017,-25.383C0.136,-25.819 0.254,-26.255 0.374,-26.692C0.83,-26.684 1.287,-26.689 1.743,-26.665C3.699,-26.565 5.654,-26.457 7.609,-26.346C8.128,-26.317 8.647,-26.286 9.161,-26.217C10.476,-26.04 11.785,-25.827 13.101,-25.655C15.043,-25.402 16.99,-25.175 18.935,-24.933C20.022,-24.798 21.107,-24.639 22.197,-24.522C22.631,-24.475 22.815,-24.239 22.833,-23.853C22.878,-22.817 22.941,-21.78 22.93,-20.744C22.916,-19.479 22.835,-18.213 22.781,-16.947C22.643,-13.727 22.46,-10.508 22.382,-7.286C22.347,-5.823 22.551,-4.356 22.587,-2.889C22.619,-1.596 22.566,-0.301 22.554,0.993C22.552,1.24 22.438,1.376 22.193,1.376C21.704,1.375 21.212,1.394 20.726,1.349C19.464,1.234 18.196,1.139 16.946,0.941C15.572,0.725 14.196,0.674 12.813,0.648C10.539,0.606 8.266,0.517 5.992,0.501C3.912,0.485 1.853,0.26 -0.209,0.038C-0.352,0.023 -0.495,0.005 -0.637,-0.022C-0.939,-0.077 -1.085,-0.269 -1.065,-0.571C-1.039,-0.975 -0.964,-1.377 -0.972,-1.777C-0.995,-2.871 -1.09,-3.963 -1.085,-5.056C-1.073,-7.848 -1.031,-10.641 -0.983,-13.433C-0.958,-14.93 -0.935,-16.429 -0.837,-17.922C-0.768,-18.983 -0.564,-20.034 -0.441,-21.092C-0.352,-21.864 -0.297,-22.64 -0.227,-23.414C-0.169,-24.044 -0.111,-24.673 -0.053,-25.303C-0.036,-25.301 -0.018,-25.3 0,-25.298" style="fill:rgb(248,237,47);fill-rule:nonzero;"/>
            </g>
        </g>
        <g transform="matrix(5.55556,0,0,5.55556,7263.77,9566.93)">
            <g transform="matrix(1,0,0,1,175.967,502.75)">
                <path d="M0,29.022C-0.082,28.727 -0.165,28.543 -0.179,28.355C-0.315,26.55 -0.488,24.747 -0.555,22.939C-0.626,21.044 -0.645,19.144 -0.592,17.249C-0.534,15.181 -0.375,13.115 -0.246,11.049C-0.132,9.241 -0.131,7.412 0.167,5.633C0.432,4.048 0.581,2.388 1.53,0.976C1.856,0.49 2.239,0.143 2.816,0.06C3.241,0 3.395,0.178 3.323,0.599C3.284,0.827 3.208,1.047 3.177,1.276C3.049,2.214 2.927,3.155 2.813,4.096C2.753,4.581 2.767,5.08 2.66,5.551C2.183,7.645 2.142,9.775 2.087,11.904C2.021,14.462 1.954,17.022 1.935,19.582C1.925,20.989 2.027,22.397 2.048,23.806C2.06,24.609 2.019,25.414 1.977,26.216C1.969,26.371 1.885,26.589 1.766,26.659C0.933,27.142 0.59,27.971 0.208,28.777C0.184,28.826 0.136,28.863 0,29.022" style="fill:rgb(0,174,239);fill-rule:nonzero;"/>
            </g>
        </g>
        <g transform="matrix(5.55556,0,0,5.55556,7263.77,9566.93)">
            <g transform="matrix(1,0,0,1,179.767,533.058)">
                <path d="M0,-1.507C-0.934,-1.983 -1.794,-1.799 -2.589,-2.027C-1.911,-2.207 -1.224,-2.094 -0.542,-2.069C0.139,-2.046 0.82,-1.986 1.681,-1.929C1.022,-2.298 0.896,-2.334 0.363,-2.366C-0.097,-2.395 -0.556,-2.431 -1.017,-2.452C-1.445,-2.472 -1.875,-2.477 -2.379,-2.49C-2.249,-2.864 -2.037,-3.05 -1.69,-3.055C-1.461,-3.058 -1.229,-3.034 -1.003,-2.995C1.499,-2.56 4.018,-2.34 6.559,-2.297C9.09,-2.253 11.622,-2.157 14.152,-2.068C14.669,-2.049 15.183,-1.95 15.699,-1.893C17.273,-1.715 18.847,-1.54 20.421,-1.361C20.559,-1.345 20.694,-1.307 20.932,-1.259C20.77,-1.07 20.666,-0.955 20.57,-0.835C20.156,-0.32 19.655,0.151 19.356,0.726C19.009,1.395 18.502,1.551 17.866,1.472C15.464,1.175 13.063,0.874 10.666,0.535C8.041,0.165 5.425,-0.274 2.759,-0.219C2.447,-0.212 2.127,-0.28 1.819,-0.351C0.411,-0.673 -1.015,-0.872 -2.456,-0.962C-2.712,-0.978 -3.078,-0.954 -3.061,-1.286C-3.039,-1.697 -2.648,-1.586 -2.374,-1.568C-1.828,-1.531 -1.283,-1.473 -0.737,-1.442C-0.551,-1.431 -0.362,-1.473 0,-1.507" style="fill:rgb(255,252,217);fill-rule:nonzero;"/>
            </g>
        </g>
        <g transform="matrix(5.55556,0,0,5.55556,7263.77,9566.93)">
            <g opacity="0.2">
                <g transform="matrix(1,0,0,1,202.078,529.518)">
                    <path d="M0,-24.613C-3.724,-24.339 -7.448,-24.065 -11.171,-23.792C-12.471,-23.696 -13.809,-23.591 -14.977,-23.012C-16.042,-22.485 -16.886,-21.602 -17.65,-20.692C-21.106,-16.576 -23.403,-11.496 -24.21,-6.181C-24.501,-4.27 -24.48,-2.021 -23.004,-0.774C-22.033,0.046 -20.645,0.222 -19.66,1.025C-20.637,1.025 -21.615,1.026 -22.592,1.026C-22.826,1.026 -23.071,1.029 -23.276,1.141C-23.475,1.25 -23.606,1.448 -23.761,1.613C-24.412,2.306 -25.595,2.411 -26.358,1.844C-26.717,-4.223 -26.766,-10.099 -26.563,-16.175C-26.482,-18.627 -26.397,-21.098 -25.82,-23.483C-25.599,-24.398 -25.292,-25.322 -24.677,-26.035C-24.063,-26.748 -23.108,-27.024 -22.168,-26.977C-13.449,-26.544 -7.316,-25.523 0,-24.613" style="fill:rgb(59,35,20);fill-rule:nonzero;"/>
                </g>
            </g>
        </g>
        <g transform="matrix(5.55556,0,0,5.55556,7263.77,9566.93)">
            <g transform="matrix(1,0,0,1,187.955,520.211)">
                <path d="M0,1.171C0.027,1.107 0.053,1.042 0.08,0.978C-0.103,0.897 -0.279,0.768 -0.47,0.742C-1.411,0.615 -2.32,0.274 -3.295,0.35C-2.244,0.833 -1.132,1.044 0,1.171M-4.849,1.84C-4.75,1.925 -4.706,1.995 -4.647,2.01C-3.845,2.211 -3.042,2.408 -2.236,2.598C-2.102,2.629 -1.955,2.63 -1.816,2.617C-1.762,2.612 -1.684,2.54 -1.671,2.486C-1.66,2.438 -1.713,2.329 -1.755,2.319C-2.672,2.096 -3.556,1.716 -4.519,1.71C-4.615,1.709 -4.712,1.783 -4.849,1.84M-5.514,3.564C-5.016,3.745 -4.645,3.877 -4.276,4.014C-3.654,4.244 -3.034,4.481 -2.411,4.707C-2.28,4.754 -2.137,4.795 -2.001,4.792C-1.932,4.791 -1.847,4.697 -1.804,4.625C-1.786,4.594 -1.843,4.493 -1.891,4.454C-1.962,4.396 -2.051,4.351 -2.14,4.319C-2.943,4.032 -3.746,3.745 -4.552,3.466C-4.823,3.371 -5.1,3.328 -5.514,3.564M2.626,6.895C1.344,6.858 0.06,6.842 -1.222,6.78C-2.461,6.721 -3.688,6.546 -4.877,6.18C-5.58,5.964 -6.264,5.684 -6.955,5.428C-7.088,5.379 -7.216,5.314 -7.345,5.253C-8.212,4.842 -8.313,4.149 -7.794,3.298C-7.697,3.139 -7.542,3.015 -7.409,2.877C-6.132,1.559 -4.793,0.312 -3.342,-0.816C-2.365,-1.576 -1.441,-2.403 -0.483,-3.187C-0.281,-3.353 -0.191,-3.544 -0.163,-3.794C-0.095,-4.385 -0.021,-4.975 0.064,-5.565C0.12,-5.957 0.188,-5.991 0.582,-5.92C1.33,-5.785 2.077,-5.643 2.828,-5.529C3.101,-5.488 3.197,-5.377 3.161,-5.109C3.099,-4.637 3.049,-4.163 3,-3.689C2.982,-3.524 2.961,-3.354 2.98,-3.192C2.997,-3.05 3.087,-2.876 3.258,-2.983C3.541,-3.16 3.659,-2.931 3.784,-2.794C4.443,-2.074 5.096,-1.35 5.729,-0.607C6.393,0.171 7.062,0.949 7.673,1.77C8.354,2.683 8.992,3.629 9.611,4.586C10.362,5.747 9.579,6.608 8.655,6.817C7.917,6.983 7.155,7.067 6.399,7.118C5.761,7.162 5.115,7.117 4.474,7.09C3.856,7.064 3.24,7.009 2.623,6.966C2.624,6.942 2.625,6.918 2.626,6.895" style="fill:white;fill-rule:nonzero;"/>
            </g>
        </g>
        <g transform="matrix(5.55556,0,0,5.55556,7263.77,9566.93)">
            <g transform="matrix(1,0,0,1,187.957,525.716)">
                <path d="M0,-7.103L-5.839,-1.914C-6.543,-1.289 -6.147,-0.124 -5.208,-0.057L7.18,0.818C8.104,0.882 8.665,-0.185 8.085,-0.909L3.353,-6.819C2.522,-7.855 0.993,-7.985 0,-7.103" style="fill:rgb(47,197,244);fill-rule:nonzero;"/>
            </g>
        </g>
        <g transform="matrix(5.55556,0,0,5.55556,7263.77,9566.93)">
            <g transform="matrix(1,0,0,1,189.285,523.703)">
                <path d="M0,-9.566C1.411,-9.31 2.427,-9.362 3.441,-9.51C3.828,-9.567 4.207,-9.737 4.392,-10.082C4.945,-11.117 5.031,-12.132 3.561,-12.503C2.918,-12.665 2.25,-12.735 1.622,-12.938C0.417,-13.329 -0.774,-13.077 -1.973,-12.964C-2.065,-12.956 -2.156,-12.916 -2.245,-12.882C-2.855,-12.65 -3.146,-12.196 -3.138,-11.497C-3.13,-10.876 -2.813,-10.406 -2.214,-10.216C-1.354,-9.945 -0.485,-9.708 0,-9.566M1.296,3.403C1.295,3.426 1.293,3.451 1.292,3.474C1.91,3.517 2.526,3.572 3.144,3.598C3.785,3.625 4.43,3.67 5.068,3.626C5.824,3.576 6.587,3.491 7.325,3.325C8.248,3.117 9.032,2.255 8.28,1.094C7.662,0.137 7.023,-0.809 6.342,-1.722C5.731,-2.543 5.062,-3.321 4.398,-4.099C3.766,-4.841 3.112,-5.566 2.454,-6.286C2.329,-6.422 2.21,-6.652 1.928,-6.475C1.756,-6.368 1.666,-6.542 1.649,-6.684C1.631,-6.846 1.652,-7.016 1.669,-7.181C1.719,-7.655 1.769,-8.129 1.831,-8.601C1.866,-8.869 1.771,-8.98 1.497,-9.021C0.746,-9.135 -0.001,-9.277 -0.749,-9.412C-1.143,-9.483 -1.21,-9.449 -1.267,-9.057C-1.351,-8.467 -1.426,-7.877 -1.493,-7.286C-1.522,-7.036 -1.611,-6.845 -1.814,-6.679C-2.772,-5.895 -3.695,-5.068 -4.672,-4.308C-6.124,-3.18 -7.463,-1.933 -8.739,-0.615C-8.872,-0.477 -9.028,-0.353 -9.125,-0.194C-9.644,0.657 -9.542,1.35 -8.675,1.761C-8.546,1.822 -8.419,1.887 -8.285,1.936C-7.594,2.192 -6.911,2.472 -6.208,2.688C-5.019,3.054 -3.792,3.229 -2.552,3.288C-1.271,3.35 0.013,3.367 1.296,3.403M1.975,3.926C0.574,3.872 -0.828,3.839 -2.227,3.761C-4.5,3.634 -6.72,3.263 -8.792,2.25C-10.082,1.619 -10.312,0.33 -9.311,-0.73C-7.902,-2.22 -6.389,-3.595 -4.752,-4.835C-3.88,-5.495 -3.032,-6.188 -2.183,-6.878C-2.065,-6.975 -1.951,-7.128 -1.921,-7.273C-1.793,-7.902 -1.7,-8.538 -1.587,-9.17C-1.532,-9.479 -1.624,-9.676 -1.948,-9.75C-2.086,-9.781 -2.215,-9.849 -2.35,-9.897C-3.116,-10.168 -3.509,-10.78 -3.43,-11.6C-3.374,-12.178 -3.254,-12.736 -2.729,-13.087C-2.518,-13.227 -2.289,-13.391 -2.051,-13.427C-0.729,-13.63 0.593,-13.726 1.909,-13.335C2.522,-13.152 3.157,-13.044 3.779,-12.891C4.181,-12.794 4.54,-12.604 4.804,-12.28C4.921,-12.136 5.029,-11.967 5.083,-11.793C5.442,-10.63 4.664,-9.348 3.47,-9.132C3.167,-9.077 2.855,-9.05 2.547,-9.042C2.295,-9.035 2.22,-8.918 2.211,-8.688C2.201,-8.403 2.19,-8.114 2.136,-7.835C2.049,-7.399 2.141,-7.131 2.56,-6.86C3.027,-6.557 3.404,-6.094 3.772,-5.66C4.771,-4.478 5.799,-3.314 6.713,-2.067C7.441,-1.074 8.262,-0.139 8.808,0.989C9.374,2.16 8.956,3.336 7.704,3.726C7.03,3.935 6.31,4.026 5.603,4.092C4.895,4.16 4.177,4.156 3.465,4.136C2.967,4.122 2.471,4.028 1.975,3.969L1.975,3.926Z" style="fill:rgb(35,31,32);fill-rule:nonzero;"/>
            </g>
        </g>
        <g transform="matrix(5.55556,0,0,5.55556,7263.77,9566.93)">
            <g transform="matrix(1,0,0,1,188.514,513.585)">
                <path d="M0,-2.403C-0.117,-2.423 -0.242,-2.485 -0.32,-2.448C-0.485,-2.37 -0.664,-2.267 -0.769,-2.125C-1.034,-1.764 -0.925,-1.382 -0.516,-1.094C-0.026,-0.749 1.715,-0.331 2.426,-0.399C2.686,-0.424 2.948,-0.458 3.198,-0.528C3.775,-0.691 4.087,-1.232 3.918,-1.803C3.87,-1.966 3.725,-2.119 3.587,-2.23C3.52,-2.284 3.368,-2.232 3.255,-2.228C3.27,-2.128 3.257,-2.012 3.303,-1.928C3.612,-1.361 3.514,-1.106 2.909,-0.954C2.816,-0.93 2.723,-0.898 2.629,-0.897C1.743,-0.885 0.869,-0.993 0.04,-1.306C-0.591,-1.546 -0.602,-1.762 -0.078,-2.235C-0.047,-2.263 -0.04,-2.315 0,-2.403M0.771,0.552C0.286,0.41 -0.583,0.173 -1.443,-0.098C-2.042,-0.288 -2.359,-0.757 -2.367,-1.379C-2.375,-2.078 -2.084,-2.532 -1.474,-2.764C-1.385,-2.798 -1.294,-2.838 -1.202,-2.846C-0.003,-2.959 1.188,-3.211 2.393,-2.82C3.021,-2.617 3.689,-2.547 4.332,-2.384C5.802,-2.014 5.716,-0.999 5.163,0.036C4.978,0.381 4.599,0.551 4.212,0.608C3.198,0.756 2.182,0.808 0.771,0.552" style="fill:rgb(186,227,229);fill-rule:nonzero;"/>
            </g>
        </g>
        <g transform="matrix(5.55556,0,0,5.55556,7263.77,9566.93)">
            <g transform="matrix(1,0,0,1,182.44,524.77)">
                <path d="M0,-0.996C0.414,-1.231 0.691,-1.188 0.962,-1.094C1.768,-0.814 2.571,-0.527 3.375,-0.24C3.463,-0.209 3.552,-0.164 3.624,-0.105C3.671,-0.066 3.728,0.034 3.71,0.066C3.667,0.138 3.583,0.232 3.513,0.233C3.377,0.235 3.234,0.194 3.104,0.148C2.48,-0.079 1.86,-0.315 1.238,-0.546C0.869,-0.683 0.499,-0.814 0,-0.996" style="fill:rgb(35,31,32);fill-rule:nonzero;"/>
            </g>
        </g>
        <g transform="matrix(5.55556,0,0,5.55556,7263.77,9566.93)">
            <g transform="matrix(1,0,0,1,183.106,522.71)">
                <path d="M0,-0.659C0.136,-0.716 0.233,-0.79 0.33,-0.789C1.293,-0.783 2.177,-0.403 3.094,-0.18C3.136,-0.17 3.189,-0.061 3.177,-0.013C3.165,0.041 3.087,0.113 3.032,0.118C2.894,0.131 2.747,0.13 2.612,0.099C1.807,-0.091 1.004,-0.288 0.202,-0.489C0.143,-0.504 0.099,-0.574 0,-0.659" style="fill:rgb(35,31,32);fill-rule:nonzero;"/>
            </g>
        </g>
        <g transform="matrix(5.55556,0,0,5.55556,7263.77,9566.93)">
            <g transform="matrix(0.674158,-0.738588,-0.738588,-0.674158,187.762,520.048)">
                <path d="M-0.855,-1.041C-1.524,-0.119 -2.118,0.844 -2.47,1.946C-1.757,1.277 -1.396,0.376 -0.855,-0.405C-0.745,-0.563 -0.722,-0.78 -0.659,-0.97C-0.724,-0.993 -0.79,-1.018 -0.855,-1.041" style="fill:rgb(35,31,32);fill-rule:nonzero;"/>
            </g>
        </g>
        <g transform="matrix(5.55556,0,0,5.55556,7263.77,9566.93)">
            <g transform="matrix(1,0,0,1,188.514,513.172)">
                <path d="M0,-1.99C-0.04,-1.902 -0.047,-1.85 -0.078,-1.822C-0.602,-1.349 -0.591,-1.133 0.04,-0.893C0.869,-0.58 1.743,-0.472 2.629,-0.484C2.723,-0.485 2.816,-0.517 2.909,-0.541C3.514,-0.693 3.612,-0.948 3.303,-1.515C3.257,-1.599 3.27,-1.715 3.255,-1.815C3.368,-1.819 3.52,-1.871 3.587,-1.817C3.725,-1.706 3.87,-1.553 3.918,-1.39C4.087,-0.819 3.775,-0.278 3.198,-0.115C2.948,-0.045 2.686,-0.011 2.426,0.014C1.715,0.082 -0.026,-0.336 -0.516,-0.681C-0.925,-0.969 -1.034,-1.351 -0.769,-1.712C-0.664,-1.854 -0.485,-1.957 -0.32,-2.035C-0.242,-2.072 -0.117,-2.01 0,-1.99" style="fill:rgb(35,31,32);fill-rule:nonzero;"/>
            </g>
        </g>
        <g transform="matrix(5.55556,0,0,5.55556,7263.77,9566.93)">
            <g transform="matrix(1.13335,0.0962101,-0.169697,0.989191,-83.5947,-7.09633)">
                <text x="305.43px" y="490.763px" style="font-family:'ITCAvantGardeStd-Bk', 'ITC Avant Garde Gothic Std', sans-serif;font-weight:300;font-size:4.946px;fill:rgb(35,31,32);">Química</text>
            </g>
        </g>
    </g>
</svg>
