<?xml version="1.0" encoding="UTF-8" standalone="no"?>
<!DOCTYPE svg PUBLIC "-//W3C//DTD SVG 1.1//EN" "http://www.w3.org/Graphics/SVG/1.1/DTD/svg11.dtd">
<svg width="100%" height="100%" viewBox="0 0 158 182" version="1.1" xmlns="http://www.w3.org/2000/svg" xmlns:xlink="http://www.w3.org/1999/xlink" xml:space="preserve" xmlns:serif="http://www.serif.com/" style="fill-rule:evenodd;clip-rule:evenodd;stroke-linejoin:round;stroke-miterlimit:2;">
    <g transform="matrix(1,0,0,1,-8867.06,-12488.6)">
        <g transform="matrix(5.55556,0,0,5.55556,7263.77,9566.93)">
            <g transform="matrix(1,0,0,1,293.612,529.304)">
                <path d="M0,25.804C-0.362,25.838 -0.551,25.879 -0.737,25.868C-1.283,25.837 -1.828,25.779 -2.374,25.742C-2.648,25.724 -3.039,25.613 -3.061,26.024C-3.078,26.356 -2.712,26.332 -2.456,26.349C-1.015,26.438 0.411,26.637 1.82,26.959C2.127,27.03 2.447,27.098 2.759,27.092C5.425,27.036 8.041,27.475 10.667,27.845C13.063,28.184 15.464,28.485 17.866,28.783C18.503,28.861 19.009,28.705 19.356,28.036C19.655,27.461 20.156,26.991 20.57,26.475C20.666,26.356 20.77,26.241 20.932,26.051C20.694,26.003 20.559,25.965 20.421,25.95C18.847,25.77 17.273,25.595 15.699,25.417C15.184,25.36 14.669,25.261 14.153,25.242C11.622,25.153 9.09,25.057 6.559,25.013C4.019,24.97 1.499,24.75 -1.003,24.315C-1.229,24.276 -1.461,24.253 -1.69,24.256C-2.037,24.26 -2.248,24.446 -2.379,24.82C-1.875,24.833 -1.445,24.838 -1.017,24.859C-0.556,24.879 -0.097,24.916 0.363,24.944C0.897,24.976 1.022,25.012 1.681,25.381C0.82,25.325 0.14,25.264 -0.542,25.241C-1.223,25.216 -1.911,25.103 -2.589,25.283C-1.794,25.512 -0.934,25.327 0,25.804M-3.8,26.024C-3.664,25.866 -3.616,25.827 -3.593,25.779C-3.21,24.973 -2.868,24.144 -2.034,23.66C-1.915,23.592 -1.831,23.372 -1.823,23.218C-1.781,22.415 -1.741,21.611 -1.752,20.808C-1.773,19.4 -1.875,17.992 -1.865,16.583C-1.846,14.024 -1.779,11.464 -1.713,8.906C-1.658,6.777 -1.617,4.647 -1.141,2.553C-1.033,2.081 -1.046,1.582 -0.988,1.098C-0.873,0.157 -0.751,-0.783 -0.623,-1.722C-0.592,-1.95 -0.517,-2.172 -0.478,-2.399C-0.406,-2.82 -0.56,-2.999 -0.983,-2.938C-1.561,-2.855 -1.944,-2.508 -2.27,-2.022C-3.219,-0.61 -3.368,1.05 -3.633,2.635C-3.931,4.413 -3.932,6.242 -4.046,8.051C-4.175,10.116 -4.334,12.183 -4.392,14.251C-4.445,16.146 -4.426,18.046 -4.355,19.941C-4.288,21.748 -4.115,23.552 -3.979,25.357C-3.965,25.545 -3.881,25.729 -3.8,26.024M-0.181,-1.39C-0.199,-1.391 -0.216,-1.393 -0.234,-1.395C-0.292,-0.765 -0.35,-0.135 -0.408,0.493C-0.478,1.268 -0.533,2.043 -0.622,2.816C-0.745,3.873 -0.949,4.925 -1.019,5.986C-1.116,7.48 -1.139,8.978 -1.164,10.475C-1.211,13.268 -1.254,16.06 -1.266,18.853C-1.271,19.945 -1.176,21.037 -1.153,22.13C-1.145,22.532 -1.22,22.934 -1.247,23.336C-1.266,23.639 -1.121,23.83 -0.818,23.886C-0.676,23.912 -0.533,23.931 -0.39,23.946C1.672,24.167 3.731,24.393 5.811,24.408C8.084,24.425 10.358,24.514 12.632,24.556C14.015,24.581 15.391,24.633 16.765,24.85C18.015,25.046 19.283,25.142 20.545,25.258C21.031,25.302 21.522,25.283 22.012,25.283C22.257,25.283 22.371,25.148 22.374,24.901C22.385,23.607 22.438,22.312 22.406,21.019C22.37,19.552 22.167,18.084 22.202,16.621C22.279,13.4 22.462,10.181 22.6,6.96C22.655,5.695 22.735,4.429 22.749,3.163C22.76,2.127 22.698,1.091 22.651,0.056C22.634,-0.332 22.45,-0.566 22.016,-0.614C20.927,-0.731 19.842,-0.889 18.754,-1.025C16.809,-1.267 14.863,-1.495 12.919,-1.748C11.604,-1.92 10.295,-2.133 8.98,-2.309C8.466,-2.379 7.947,-2.409 7.429,-2.438C5.473,-2.55 3.518,-2.657 1.562,-2.758C1.106,-2.781 0.649,-2.776 0.192,-2.784C0.074,-2.347 -0.045,-1.911 -0.164,-1.475C-0.171,-1.447 -0.175,-1.419 -0.181,-1.39M-3.894,0.895C-3.612,-0.241 -3.249,-1.325 -2.628,-2.321C-2.117,-3.142 -1.392,-3.488 -0.444,-3.382C0.728,-3.249 1.903,-3.133 3.08,-3.063C5.006,-2.948 6.937,-2.906 8.861,-2.773C10.009,-2.694 11.15,-2.505 12.294,-2.358C14.552,-2.069 16.809,-1.778 19.066,-1.486C20.096,-1.352 21.123,-1.198 22.155,-1.088C22.707,-1.028 23.005,-0.74 23.05,-0.217C23.146,0.9 23.288,2.022 23.272,3.139C23.245,5.037 23.099,6.934 23.025,8.831C22.99,9.723 23.021,10.616 22.996,11.509C22.94,13.552 22.817,15.594 22.821,17.636C22.824,19.044 23.036,20.45 23.074,21.86C23.106,23.037 23.032,24.218 22.981,25.397C22.961,25.865 22.864,25.904 22.341,26.006C22.098,26.053 21.846,26.151 21.642,26.29C20.792,26.868 20.118,27.621 19.667,28.542C19.415,29.058 19.033,29.254 18.504,29.266C18.246,29.272 17.983,29.292 17.729,29.259C14.386,28.811 11.049,28.322 7.701,27.915C6.075,27.718 4.43,27.67 2.792,27.557C2.563,27.54 2.331,27.551 2.104,27.516C0.425,27.256 -1.254,26.988 -2.933,26.722C-3.075,26.7 -3.217,26.67 -3.36,26.658C-4.212,26.583 -4.482,26.357 -4.566,25.521C-4.68,24.375 -4.758,23.227 -4.843,22.079C-4.9,21.305 -4.971,20.529 -4.983,19.753C-5.01,18.056 -5.042,16.357 -5.001,14.66C-4.959,12.907 -4.866,11.152 -4.737,9.401C-4.6,7.534 -4.401,5.673 -4.218,3.811C-4.123,2.837 -4.003,1.867 -3.894,0.895" style="fill:rgb(35,31,32);fill-rule:nonzero;"/>
            </g>
        </g>
        <g transform="matrix(5.55556,0,0,5.55556,7263.77,9566.93)">
            <g transform="matrix(1,0,0,1,293.431,553.212)">
                <path d="M0,-25.298C0.006,-25.326 0.01,-25.355 0.018,-25.383C0.136,-25.819 0.255,-26.255 0.374,-26.692C0.83,-26.684 1.287,-26.689 1.743,-26.665C3.699,-26.565 5.654,-26.457 7.61,-26.346C8.128,-26.317 8.647,-26.286 9.162,-26.217C10.476,-26.04 11.786,-25.827 13.101,-25.655C15.044,-25.402 16.99,-25.175 18.935,-24.933C20.023,-24.797 21.108,-24.639 22.197,-24.522C22.631,-24.474 22.815,-24.239 22.833,-23.852C22.879,-22.817 22.941,-21.78 22.93,-20.744C22.916,-19.479 22.836,-18.213 22.781,-16.947C22.643,-13.727 22.46,-10.508 22.383,-7.286C22.348,-5.823 22.551,-4.356 22.587,-2.889C22.619,-1.596 22.566,-0.301 22.555,0.993C22.552,1.24 22.438,1.376 22.193,1.376C21.704,1.376 21.212,1.394 20.726,1.35C19.464,1.234 18.196,1.139 16.946,0.942C15.572,0.725 14.196,0.674 12.813,0.648C10.539,0.606 8.266,0.517 5.992,0.501C3.912,0.485 1.853,0.26 -0.209,0.038C-0.352,0.023 -0.495,0.005 -0.637,-0.022C-0.939,-0.077 -1.085,-0.269 -1.065,-0.571C-1.039,-0.974 -0.964,-1.376 -0.972,-1.777C-0.995,-2.87 -1.089,-3.963 -1.085,-5.055C-1.073,-7.848 -1.03,-10.64 -0.983,-13.433C-0.958,-14.93 -0.935,-16.428 -0.837,-17.922C-0.768,-18.983 -0.563,-20.034 -0.441,-21.092C-0.352,-21.864 -0.297,-22.64 -0.227,-23.414C-0.169,-24.043 -0.111,-24.673 -0.053,-25.303C-0.035,-25.301 -0.018,-25.299 0,-25.298" style="fill:rgb(242,120,151);fill-rule:nonzero;"/>
            </g>
        </g>
        <g transform="matrix(5.55556,0,0,5.55556,7263.77,9566.93)">
            <g transform="matrix(1,0,0,1,289.812,526.306)">
                <path d="M0,29.022C-0.081,28.727 -0.165,28.543 -0.179,28.355C-0.315,26.55 -0.488,24.747 -0.555,22.939C-0.626,21.044 -0.645,19.144 -0.591,17.25C-0.534,15.181 -0.375,13.115 -0.246,11.049C-0.132,9.241 -0.131,7.412 0.167,5.633C0.433,4.048 0.581,2.388 1.53,0.976C1.856,0.491 2.239,0.143 2.817,0.06C3.241,0 3.395,0.178 3.323,0.599C3.284,0.827 3.208,1.048 3.178,1.276C3.049,2.215 2.927,3.155 2.813,4.096C2.754,4.581 2.767,5.08 2.66,5.551C2.183,7.645 2.143,9.775 2.087,11.904C2.021,14.462 1.955,17.022 1.935,19.582C1.925,20.99 2.027,22.398 2.048,23.806C2.06,24.609 2.02,25.414 1.978,26.216C1.969,26.371 1.885,26.59 1.766,26.659C0.933,27.142 0.59,27.971 0.208,28.777C0.185,28.826 0.136,28.864 0,29.022" style="fill:rgb(42,56,144);fill-rule:nonzero;"/>
            </g>
        </g>
        <g transform="matrix(5.55556,0,0,5.55556,7263.77,9566.93)">
            <g transform="matrix(1,0,0,1,293.612,556.614)">
                <path d="M0,-1.506C-0.934,-1.983 -1.794,-1.798 -2.589,-2.027C-1.911,-2.207 -1.223,-2.094 -0.542,-2.069C0.14,-2.046 0.82,-1.985 1.681,-1.929C1.022,-2.298 0.897,-2.334 0.363,-2.366C-0.097,-2.394 -0.556,-2.431 -1.017,-2.451C-1.445,-2.472 -1.875,-2.477 -2.379,-2.49C-2.248,-2.864 -2.037,-3.05 -1.69,-3.054C-1.461,-3.057 -1.229,-3.034 -1.003,-2.995C1.499,-2.56 4.019,-2.34 6.559,-2.297C9.09,-2.253 11.622,-2.157 14.153,-2.068C14.669,-2.049 15.184,-1.95 15.699,-1.893C17.273,-1.715 18.847,-1.54 20.421,-1.36C20.559,-1.345 20.694,-1.307 20.932,-1.259C20.77,-1.069 20.666,-0.954 20.57,-0.835C20.156,-0.319 19.655,0.151 19.356,0.726C19.009,1.395 18.503,1.551 17.866,1.473C15.464,1.175 13.063,0.874 10.667,0.535C8.041,0.165 5.425,-0.274 2.759,-0.218C2.447,-0.212 2.127,-0.28 1.82,-0.351C0.411,-0.673 -1.015,-0.872 -2.456,-0.961C-2.712,-0.978 -3.078,-0.954 -3.061,-1.286C-3.039,-1.697 -2.648,-1.586 -2.374,-1.568C-1.828,-1.531 -1.283,-1.473 -0.737,-1.442C-0.551,-1.431 -0.362,-1.472 0,-1.506" style="fill:rgb(255,252,217);fill-rule:nonzero;"/>
            </g>
        </g>
        <g transform="matrix(5.55556,0,0,5.55556,7263.77,9566.93)">
            <g opacity="0.2">
                <g transform="matrix(1,0,0,1,315.922,553.075)">
                    <path d="M0,-24.612C-3.724,-24.339 -7.448,-24.065 -11.171,-23.792C-12.471,-23.696 -13.809,-23.591 -14.977,-23.012C-16.042,-22.485 -16.885,-21.602 -17.65,-20.692C-21.106,-16.575 -23.402,-11.496 -24.21,-6.181C-24.501,-4.27 -24.48,-2.021 -23.004,-0.774C-22.033,0.046 -20.645,0.222 -19.66,1.025C-20.637,1.025 -21.614,1.026 -22.592,1.026C-22.826,1.026 -23.071,1.029 -23.276,1.142C-23.474,1.251 -23.606,1.448 -23.761,1.613C-24.412,2.306 -25.595,2.411 -26.358,1.844C-26.716,-4.223 -26.766,-10.099 -26.563,-16.174C-26.481,-18.626 -26.397,-21.098 -25.82,-23.483C-25.599,-24.398 -25.292,-25.322 -24.677,-26.035C-24.063,-26.748 -23.108,-27.023 -22.168,-26.977C-13.449,-26.544 -7.316,-25.523 0,-24.612" style="fill:rgb(59,35,20);fill-rule:nonzero;"/>
                </g>
            </g>
        </g>
        <g transform="matrix(5.55556,0,0,5.55556,7263.77,9566.93)">
            <g transform="matrix(1,0,0,1,300.445,541.558)">
                <path d="M0,0.938C0.021,0.886 0.043,0.835 0.064,0.784C-0.082,0.718 -0.224,0.615 -0.376,0.594C-1.13,0.494 -1.859,0.219 -2.64,0.281C-1.798,0.667 -0.907,0.836 0,0.938M-3.885,1.474C-3.806,1.542 -3.77,1.598 -3.723,1.61C-3.081,1.772 -2.437,1.93 -1.792,2.082C-1.684,2.107 -1.566,2.107 -1.456,2.097C-1.412,2.093 -1.349,2.036 -1.339,1.992C-1.33,1.954 -1.373,1.867 -1.406,1.859C-2.141,1.679 -2.849,1.375 -3.621,1.37C-3.698,1.37 -3.776,1.429 -3.885,1.474M-4.418,2.856C-4.019,3.001 -3.722,3.107 -3.427,3.216C-2.928,3.401 -2.431,3.59 -1.932,3.771C-1.827,3.81 -1.712,3.842 -1.603,3.84C-1.547,3.839 -1.479,3.764 -1.445,3.706C-1.431,3.681 -1.477,3.6 -1.515,3.569C-1.572,3.522 -1.644,3.487 -1.714,3.461C-2.358,3.231 -3.001,3.001 -3.647,2.777C-3.864,2.702 -4.086,2.667 -4.418,2.856M2.104,5.525C1.077,5.496 0.048,5.482 -0.979,5.433C-1.972,5.385 -2.956,5.245 -3.908,4.952C-4.471,4.779 -5.019,4.554 -5.573,4.349C-5.68,4.31 -5.782,4.258 -5.885,4.209C-6.58,3.879 -6.661,3.324 -6.245,2.642C-6.167,2.515 -6.042,2.416 -5.937,2.305C-4.914,1.25 -3.841,0.251 -2.677,-0.654C-1.895,-1.263 -1.155,-1.925 -0.387,-2.554C-0.225,-2.687 -0.153,-2.84 -0.13,-3.04C-0.076,-3.513 -0.016,-3.987 0.051,-4.459C0.096,-4.773 0.151,-4.801 0.467,-4.744C1.066,-4.635 1.664,-4.522 2.266,-4.43C2.485,-4.397 2.562,-4.308 2.533,-4.094C2.483,-3.715 2.443,-3.335 2.404,-2.957C2.39,-2.824 2.373,-2.688 2.388,-2.557C2.401,-2.443 2.474,-2.304 2.611,-2.39C2.837,-2.532 2.932,-2.348 3.032,-2.239C3.56,-1.662 4.084,-1.082 4.591,-0.487C5.123,0.137 5.659,0.76 6.148,1.417C6.693,2.149 7.206,2.908 7.701,3.674C8.303,4.605 7.675,5.295 6.936,5.461C6.344,5.594 5.733,5.663 5.127,5.704C4.616,5.739 4.099,5.704 3.585,5.681C3.09,5.66 2.597,5.616 2.102,5.582C2.103,5.563 2.104,5.543 2.104,5.525" style="fill:white;fill-rule:nonzero;"/>
            </g>
        </g>
        <g transform="matrix(5.55556,0,0,5.55556,7263.77,9566.93)">
            <g transform="matrix(1,0,0,1,300.447,545.969)">
                <path d="M0,-5.691L-4.679,-1.533C-5.244,-1.032 -4.926,-0.099 -4.173,-0.045L5.752,0.656C6.494,0.707 6.942,-0.148 6.478,-0.728L2.686,-5.463C2.021,-6.295 0.795,-6.398 0,-5.691" style="fill:rgb(47,197,244);fill-rule:nonzero;"/>
            </g>
        </g>
        <g transform="matrix(5.55556,0,0,5.55556,7263.77,9566.93)">
            <g transform="matrix(1,0,0,1,301.511,544.356)">
                <path d="M0,-7.666C1.13,-7.46 1.945,-7.502 2.757,-7.621C3.067,-7.666 3.371,-7.803 3.519,-8.078C3.963,-8.908 4.031,-9.722 2.853,-10.019C2.338,-10.148 1.802,-10.205 1.3,-10.367C0.334,-10.681 -0.621,-10.479 -1.581,-10.389C-1.655,-10.382 -1.728,-10.35 -1.799,-10.322C-2.288,-10.137 -2.521,-9.772 -2.514,-9.213C-2.508,-8.715 -2.254,-8.338 -1.774,-8.187C-1.085,-7.97 -0.389,-7.779 0,-7.666M1.038,2.727C1.038,2.745 1.037,2.765 1.036,2.783C1.53,2.817 2.024,2.861 2.519,2.883C3.033,2.905 3.55,2.94 4.061,2.905C4.667,2.864 5.278,2.796 5.869,2.663C6.609,2.497 7.237,1.807 6.635,0.876C6.139,0.109 5.627,-0.649 5.082,-1.381C4.592,-2.038 4.056,-2.661 3.524,-3.285C3.018,-3.88 2.494,-4.46 1.966,-5.037C1.866,-5.146 1.771,-5.33 1.544,-5.188C1.407,-5.103 1.335,-5.241 1.322,-5.355C1.307,-5.486 1.324,-5.622 1.337,-5.755C1.377,-6.134 1.417,-6.514 1.467,-6.893C1.495,-7.106 1.418,-7.195 1.2,-7.229C0.598,-7.32 0,-7.434 -0.6,-7.542C-0.916,-7.6 -0.97,-7.571 -1.015,-7.258C-1.083,-6.785 -1.143,-6.312 -1.197,-5.838C-1.22,-5.639 -1.291,-5.485 -1.454,-5.353C-2.221,-4.724 -2.961,-4.062 -3.744,-3.452C-4.907,-2.548 -5.98,-1.549 -7.003,-0.493C-7.109,-0.383 -7.234,-0.283 -7.312,-0.156C-7.727,0.525 -7.646,1.081 -6.952,1.411C-6.848,1.46 -6.746,1.512 -6.639,1.551C-6.085,1.756 -5.538,1.98 -4.974,2.153C-4.022,2.446 -3.038,2.587 -2.045,2.635C-1.019,2.684 0.01,2.697 1.038,2.727M1.582,3.146C0.46,3.103 -0.664,3.076 -1.785,3.014C-3.605,2.911 -5.385,2.614 -7.044,1.803C-8.079,1.297 -8.262,0.264 -7.46,-0.585C-6.332,-1.779 -5.12,-2.881 -3.808,-3.874C-3.109,-4.403 -2.43,-4.959 -1.75,-5.513C-1.655,-5.589 -1.563,-5.712 -1.54,-5.828C-1.437,-6.332 -1.362,-6.842 -1.271,-7.349C-1.228,-7.596 -1.301,-7.754 -1.561,-7.812C-1.671,-7.838 -1.775,-7.893 -1.883,-7.931C-2.497,-8.147 -2.812,-8.638 -2.748,-9.296C-2.703,-9.759 -2.608,-10.205 -2.186,-10.486C-2.018,-10.599 -1.834,-10.73 -1.643,-10.76C-0.584,-10.923 0.476,-10.999 1.529,-10.685C2.021,-10.538 2.529,-10.452 3.028,-10.33C3.35,-10.251 3.638,-10.1 3.85,-9.84C3.943,-9.725 4.03,-9.59 4.073,-9.45C4.36,-8.519 3.737,-7.491 2.78,-7.317C2.537,-7.273 2.288,-7.252 2.041,-7.245C1.839,-7.239 1.779,-7.145 1.772,-6.962C1.764,-6.733 1.755,-6.502 1.711,-6.278C1.642,-5.929 1.715,-5.715 2.051,-5.497C2.426,-5.255 2.728,-4.884 3.022,-4.535C3.823,-3.588 4.647,-2.655 5.379,-1.656C5.962,-0.86 6.62,-0.112 7.058,0.792C7.511,1.73 7.176,2.673 6.173,2.985C5.633,3.152 5.056,3.226 4.489,3.279C3.922,3.333 3.347,3.33 2.776,3.313C2.377,3.302 1.98,3.227 1.582,3.18L1.582,3.146Z" style="fill:rgb(35,31,32);fill-rule:nonzero;"/>
            </g>
        </g>
        <g transform="matrix(5.55556,0,0,5.55556,7263.77,9566.93)">
            <g transform="matrix(1,0,0,1,300.893,536.249)">
                <path d="M0,-1.926C-0.093,-1.942 -0.194,-1.991 -0.256,-1.962C-0.389,-1.899 -0.532,-1.818 -0.616,-1.703C-0.828,-1.414 -0.741,-1.109 -0.414,-0.877C-0.021,-0.6 1.375,-0.265 1.944,-0.321C2.152,-0.34 2.363,-0.367 2.563,-0.424C3.025,-0.555 3.275,-0.989 3.14,-1.446C3.102,-1.576 2.985,-1.698 2.875,-1.787C2.821,-1.83 2.699,-1.789 2.608,-1.786C2.62,-1.705 2.61,-1.613 2.646,-1.545C2.895,-1.091 2.815,-0.887 2.331,-0.765C2.257,-0.746 2.182,-0.72 2.107,-0.719C1.397,-0.71 0.697,-0.796 0.032,-1.048C-0.473,-1.239 -0.482,-1.412 -0.062,-1.792C-0.038,-1.814 -0.031,-1.856 0,-1.926M0.618,0.441C0.229,0.328 -0.467,0.137 -1.156,-0.079C-1.636,-0.231 -1.89,-0.608 -1.896,-1.106C-1.903,-1.665 -1.669,-2.03 -1.181,-2.215C-1.11,-2.242 -1.037,-2.275 -0.963,-2.281C-0.002,-2.371 0.953,-2.573 1.918,-2.26C2.42,-2.098 2.957,-2.041 3.471,-1.911C4.649,-1.614 4.581,-0.801 4.137,0.029C3.989,0.304 3.685,0.441 3.375,0.486C2.563,0.605 1.748,0.647 0.618,0.441" style="fill:rgb(186,227,229);fill-rule:nonzero;"/>
            </g>
        </g>
        <g transform="matrix(5.55556,0,0,5.55556,7263.77,9566.93)">
            <g transform="matrix(1,0,0,1,296.026,545.211)">
                <path d="M0,-0.797C0.332,-0.986 0.554,-0.951 0.771,-0.876C1.417,-0.652 2.061,-0.422 2.704,-0.192C2.775,-0.166 2.847,-0.131 2.904,-0.084C2.942,-0.053 2.988,0.028 2.973,0.053C2.939,0.111 2.871,0.186 2.815,0.187C2.706,0.189 2.592,0.157 2.487,0.118C1.987,-0.063 1.49,-0.252 0.992,-0.437C0.697,-0.546 0.4,-0.652 0,-0.797" style="fill:rgb(35,31,32);fill-rule:nonzero;"/>
            </g>
        </g>
        <g transform="matrix(5.55556,0,0,5.55556,7263.77,9566.93)">
            <g transform="matrix(1,0,0,1,296.56,543.561)">
                <path d="M0,-0.529C0.109,-0.574 0.187,-0.633 0.264,-0.633C1.036,-0.629 1.744,-0.324 2.479,-0.144C2.512,-0.136 2.555,-0.05 2.546,-0.011C2.536,0.033 2.473,0.09 2.429,0.094C2.318,0.104 2.201,0.104 2.093,0.078C1.448,-0.073 0.804,-0.231 0.162,-0.393C0.115,-0.405 0.079,-0.461 0,-0.529" style="fill:rgb(35,31,32);fill-rule:nonzero;"/>
            </g>
        </g>
        <g transform="matrix(5.55556,0,0,5.55556,7263.77,9566.93)">
            <g transform="matrix(0.675013,-0.737805,-0.737805,-0.675013,300.291,541.429)">
                <path d="M-0.684,-0.833C-1.221,-0.095 -1.698,0.676 -1.981,1.558C-1.408,1.023 -1.119,0.3 -0.684,-0.324C-0.597,-0.45 -0.577,-0.624 -0.527,-0.777C-0.579,-0.796 -0.631,-0.814 -0.684,-0.833" style="fill:rgb(35,31,32);fill-rule:nonzero;"/>
            </g>
        </g>
        <g transform="matrix(5.55556,0,0,5.55556,7263.77,9566.93)">
            <g transform="matrix(1,0,0,1,300.893,535.919)">
                <path d="M0,-1.596C-0.031,-1.526 -0.038,-1.484 -0.062,-1.462C-0.482,-1.082 -0.473,-0.909 0.032,-0.718C0.697,-0.466 1.397,-0.38 2.107,-0.389C2.182,-0.39 2.257,-0.416 2.331,-0.435C2.815,-0.557 2.895,-0.761 2.646,-1.215C2.61,-1.283 2.62,-1.375 2.608,-1.456C2.699,-1.459 2.821,-1.5 2.875,-1.457C2.985,-1.368 3.102,-1.246 3.14,-1.116C3.275,-0.659 3.025,-0.225 2.563,-0.094C2.363,-0.037 2.152,-0.01 1.944,0.009C1.375,0.065 -0.021,-0.27 -0.414,-0.547C-0.741,-0.779 -0.828,-1.084 -0.616,-1.373C-0.532,-1.488 -0.389,-1.569 -0.256,-1.632C-0.194,-1.661 -0.093,-1.612 0,-1.596" style="fill:rgb(35,31,32);fill-rule:nonzero;"/>
            </g>
        </g>
        <g transform="matrix(5.55556,0,0,5.55556,7263.77,9566.93)">
            <g transform="matrix(1,0,0,1,304.757,545.653)">
                <path d="M0,3.328C0.004,3.311 0.009,3.296 0.013,3.279C0.184,3.307 0.353,3.342 0.524,3.357C0.567,3.362 0.656,3.307 0.655,3.282C0.653,3.217 0.63,3.134 0.583,3.092C0.531,3.045 0.446,3.029 0.374,3.009C-0.273,2.832 -0.92,2.655 -1.568,2.48C-1.622,2.466 -1.681,2.458 -1.736,2.464C-1.766,2.468 -1.805,2.502 -1.816,2.531C-1.828,2.561 -1.825,2.62 -1.805,2.636C-1.7,2.716 -1.596,2.812 -1.476,2.854C-0.987,3.022 -0.493,3.172 0,3.328M-0.335,1.301C-0.333,1.286 -0.33,1.27 -0.328,1.256C-0.518,1.224 -0.708,1.192 -0.897,1.164C-1.106,1.132 -1.315,1.098 -1.525,1.078C-1.569,1.074 -1.641,1.117 -1.659,1.157C-1.673,1.189 -1.637,1.26 -1.604,1.294C-1.566,1.333 -1.509,1.365 -1.456,1.378C-0.725,1.544 0.005,1.709 0.738,1.865C0.827,1.885 0.928,1.856 1.021,1.84C1.054,1.834 1.107,1.796 1.106,1.774C1.105,1.723 1.092,1.649 1.057,1.626C0.961,1.564 0.855,1.502 0.746,1.48C0.388,1.411 0.025,1.359 -0.335,1.301M1.189,0.771C1.229,0.757 1.312,0.727 1.396,0.697C1.359,0.619 1.342,0.494 1.283,0.469C0.914,0.315 0.543,0.157 0.159,0.054C-0.285,-0.065 -0.743,-0.13 -1.195,-0.214C-1.352,-0.243 -1.515,-0.407 -1.669,-0.23C-1.762,-0.122 -1.584,0.054 -1.252,0.14C-0.715,0.281 -0.171,0.395 0.368,0.53C0.628,0.595 0.882,0.681 1.189,0.771M0.118,-1.148C0.116,-1.139 0.114,-1.13 0.112,-1.121C-0.246,-1.179 -0.604,-1.246 -0.964,-1.291C-1.091,-1.307 -1.227,-1.274 -1.354,-1.243C-1.371,-1.238 -1.383,-1.113 -1.359,-1.064C-1.341,-1.026 -1.26,-1.014 -1.206,-1.003C-0.345,-0.823 0.517,-0.645 1.378,-0.469C1.471,-0.45 1.569,-0.441 1.663,-0.448C1.709,-0.453 1.786,-0.507 1.787,-0.539C1.788,-0.605 1.765,-0.696 1.718,-0.73C1.626,-0.793 1.515,-0.841 1.405,-0.866C0.978,-0.966 0.547,-1.055 0.118,-1.148M9.672,-2.802C9.63,-2.546 9.597,-2.34 9.563,-2.135C9.103,0.734 8.624,3.599 8.196,6.474C8.108,7.069 7.799,7.353 7.297,7.521C7.099,7.588 6.885,7.629 6.676,7.641C6.062,7.68 5.452,7.693 4.836,7.6C3.982,7.472 3.117,7.414 2.261,7.296C1.173,7.145 0.109,6.879 -0.935,6.539C-1.495,6.357 -1.969,6.032 -2.384,5.621C-2.743,5.265 -2.803,4.837 -2.722,4.345C-2.337,2.01 -1.972,-0.329 -1.6,-2.666C-1.53,-3.104 -1.462,-3.54 -1.388,-3.977C-1.366,-4.105 -1.324,-4.23 -1.29,-4.365C-1.207,-4.352 -1.146,-4.356 -1.1,-4.332C0.345,-3.578 1.92,-3.218 3.48,-2.809C5.024,-2.404 6.588,-2.331 8.165,-2.518C8.64,-2.573 9.106,-2.693 9.672,-2.802" style="fill:white;fill-rule:nonzero;"/>
            </g>
        </g>
        <g transform="matrix(5.55556,0,0,5.55556,7263.77,9566.93)">
            <g transform="matrix(1,0,0,1,309.717,543.211)">
                <path d="M0,9.286L-5.021,8.472C-6.072,8.301 -6.792,7.302 -6.621,6.252L-5.65,0.269C-5.607,0.008 -5.358,-0.171 -5.097,-0.129L2.792,1.151C3.053,1.194 3.232,1.443 3.19,1.705L2.219,7.687C2.048,8.737 1.05,9.457 0,9.286" style="fill:rgb(215,223,34);fill-rule:nonzero;"/>
            </g>
        </g>
        <g transform="matrix(5.55556,0,0,5.55556,7263.77,9566.93)">
            <g transform="matrix(1,0,0,1,309.088,552.923)">
                <path d="M0,-14.999C0.002,-15.02 0.004,-15.042 0.006,-15.063C-1.139,-15.186 -2.284,-15.305 -3.429,-15.43C-4.212,-15.516 -4.899,-15.223 -5.569,-14.883C-5.711,-14.811 -5.842,-14.656 -5.909,-14.509C-6.058,-14.179 -6.171,-13.831 -6.283,-13.485C-6.372,-13.208 -6.281,-12.978 -6.109,-12.737C-5.625,-12.058 -4.915,-11.73 -4.175,-11.449C-3.764,-11.292 -3.339,-11.165 -2.913,-11.051C-1.893,-10.779 -0.874,-10.499 0.156,-10.272C0.639,-10.166 1.148,-10.181 1.645,-10.128C2.648,-10.02 3.644,-10.08 4.615,-10.342C5.017,-10.449 5.4,-10.645 5.773,-10.837C5.915,-10.91 6.035,-11.066 6.115,-11.213C6.33,-11.606 6.502,-12.061 6.38,-12.48C6.265,-12.879 5.886,-13.152 5.504,-13.355C5.369,-13.428 5.231,-13.497 5.087,-13.552C4.351,-13.829 3.613,-14.102 2.875,-14.375C2.821,-14.395 2.764,-14.405 2.707,-14.418C1.805,-14.611 0.902,-14.806 0,-14.999M5.341,-10.072C4.775,-9.964 4.309,-9.844 3.834,-9.788C2.257,-9.602 0.693,-9.675 -0.851,-10.079C-2.411,-10.488 -3.986,-10.849 -5.431,-11.603C-5.477,-11.626 -5.538,-11.622 -5.621,-11.636C-5.655,-11.5 -5.697,-11.375 -5.719,-11.247C-5.793,-10.811 -5.861,-10.374 -5.931,-9.937C-6.303,-7.6 -6.668,-5.261 -7.053,-2.926C-7.134,-2.434 -7.074,-2.006 -6.715,-1.649C-6.3,-1.238 -5.826,-0.913 -5.266,-0.731C-4.222,-0.392 -3.158,-0.125 -2.07,0.025C-1.214,0.144 -0.349,0.201 0.505,0.33C1.121,0.423 1.731,0.409 2.345,0.371C2.554,0.358 2.768,0.317 2.966,0.251C3.468,0.083 3.777,-0.201 3.865,-0.797C4.292,-3.671 4.771,-6.536 5.232,-9.405C5.266,-9.61 5.299,-9.816 5.341,-10.072M-6.739,-7.064C-6.501,-8.527 -6.272,-9.991 -6.02,-11.451C-5.963,-11.781 -5.977,-12.061 -6.235,-12.29C-6.788,-12.779 -6.714,-13.375 -6.533,-13.989C-6.5,-14.1 -6.425,-14.199 -6.405,-14.31C-6.223,-15.309 -5.401,-15.539 -4.61,-15.748C-4.192,-15.858 -3.73,-15.857 -3.292,-15.831C-1.968,-15.748 -0.645,-15.645 0.635,-15.248C0.873,-15.175 1.125,-15.15 1.371,-15.103C2.239,-14.934 3.098,-14.736 3.915,-14.378C4.477,-14.132 5.057,-13.928 5.629,-13.703C6.079,-13.526 6.363,-13.152 6.668,-12.81C6.865,-12.59 6.857,-12.302 6.783,-12.04C6.621,-11.473 6.527,-10.873 5.999,-10.473C5.868,-10.374 5.803,-10.149 5.768,-9.971C5.634,-9.271 5.521,-8.568 5.406,-7.865C5.102,-6.004 4.805,-4.142 4.495,-2.28C4.387,-1.636 4.242,-0.997 4.129,-0.353C4.068,-0.004 3.883,0.23 3.59,0.422C2.991,0.815 2.314,0.859 1.645,0.831C0.224,0.771 -1.199,0.668 -2.595,0.379C-3.497,0.193 -4.397,-0.022 -5.274,-0.299C-6.154,-0.577 -6.893,-1.072 -7.368,-1.918C-7.507,-2.165 -7.523,-2.371 -7.481,-2.622C-7.25,-4.008 -7.022,-5.395 -6.794,-6.78C-6.778,-6.876 -6.763,-6.971 -6.748,-7.065C-6.745,-7.065 -6.742,-7.064 -6.739,-7.064" style="fill:rgb(35,31,32);fill-rule:nonzero;"/>
            </g>
        </g>
        <g transform="matrix(5.55556,0,0,5.55556,7263.77,9566.93)">
            <g transform="matrix(1,0,0,1,305.775,541.796)">
                <path d="M0,-3.281C-0.001,-3.302 -0.002,-3.323 -0.003,-3.343C-0.286,-3.327 -0.572,-3.335 -0.849,-3.287C-1.201,-3.226 -1.48,-2.901 -1.502,-2.569C-1.525,-2.23 -1.308,-2.038 -1.042,-1.898C-0.119,-1.413 0.869,-1.087 1.877,-0.843C2.717,-0.638 3.582,-0.542 4.43,-0.368C5.273,-0.195 6.11,-0.223 6.952,-0.352C7.444,-0.427 7.869,-0.64 8.234,-0.967C8.498,-1.202 8.485,-1.601 8.215,-1.828C8.156,-1.878 8.041,-1.881 7.956,-1.869C7.929,-1.865 7.882,-1.723 7.906,-1.679C8.088,-1.349 7.898,-1.17 7.645,-1.034C7.443,-0.927 7.229,-0.811 7.008,-0.776C6.25,-0.656 5.489,-0.537 4.717,-0.694C3.681,-0.904 2.629,-1.053 1.608,-1.322C0.795,-1.535 0.016,-1.881 -0.772,-2.18C-0.968,-2.255 -1.181,-2.367 -1.162,-2.625C-1.142,-2.89 -0.934,-3.014 -0.706,-3.088C-0.474,-3.162 -0.235,-3.218 0,-3.281M3.313,-3.872C4.215,-3.678 5.118,-3.484 6.02,-3.291C6.077,-3.278 6.134,-3.268 6.187,-3.248C6.926,-2.974 7.664,-2.702 8.4,-2.425C8.544,-2.37 8.682,-2.301 8.817,-2.228C9.199,-2.025 9.578,-1.752 9.693,-1.353C9.815,-0.933 9.643,-0.479 9.428,-0.086C9.348,0.061 9.228,0.217 9.086,0.29C8.713,0.482 8.33,0.678 7.928,0.785C6.957,1.047 5.961,1.107 4.958,0.999C4.461,0.947 3.952,0.961 3.469,0.855C2.439,0.628 1.42,0.348 0.4,0.076C-0.026,-0.038 -0.451,-0.165 -0.862,-0.322C-1.602,-0.603 -2.312,-0.93 -2.796,-1.61C-2.968,-1.85 -3.059,-2.081 -2.97,-2.358C-2.858,-2.704 -2.745,-3.052 -2.596,-3.382C-2.529,-3.529 -2.398,-3.683 -2.256,-3.756C-1.586,-4.095 -0.899,-4.388 -0.116,-4.302C1.029,-4.177 2.174,-4.058 3.319,-3.936C3.317,-3.915 3.315,-3.893 3.313,-3.872" style="fill:rgb(232,242,212);fill-rule:nonzero;"/>
            </g>
        </g>
        <g transform="matrix(5.55556,0,0,5.55556,7263.77,9566.93)">
            <g transform="matrix(1,0,0,1,304.875,545.053)">
                <path d="M0,-0.548C0.429,-0.455 0.86,-0.366 1.288,-0.267C1.397,-0.241 1.509,-0.194 1.601,-0.13C1.647,-0.097 1.67,-0.005 1.669,0.06C1.668,0.093 1.591,0.146 1.545,0.151C1.451,0.159 1.354,0.149 1.261,0.131C0.399,-0.045 -0.462,-0.224 -1.323,-0.403C-1.378,-0.414 -1.458,-0.427 -1.477,-0.464C-1.501,-0.514 -1.489,-0.639 -1.471,-0.644C-1.344,-0.674 -1.209,-0.707 -1.082,-0.692C-0.722,-0.647 -0.364,-0.579 -0.005,-0.522C-0.003,-0.53 -0.002,-0.539 0,-0.548" style="fill:rgb(35,31,32);fill-rule:nonzero;"/>
            </g>
        </g>
        <g transform="matrix(5.55556,0,0,5.55556,7263.77,9566.93)">
            <g transform="matrix(1,0,0,1,305.946,545.245)">
                <path d="M0,1.179C-0.307,1.088 -0.561,1.002 -0.821,0.938C-1.36,0.803 -1.904,0.689 -2.441,0.548C-2.773,0.461 -2.951,0.285 -2.858,0.178C-2.704,0 -2.541,0.164 -2.384,0.194C-1.932,0.278 -1.474,0.343 -1.03,0.461C-0.646,0.565 -0.275,0.723 0.094,0.876C0.153,0.902 0.17,1.027 0.207,1.105C0.123,1.135 0.04,1.164 0,1.179" style="fill:rgb(35,31,32);fill-rule:nonzero;"/>
            </g>
        </g>
        <g transform="matrix(5.55556,0,0,5.55556,7263.77,9566.93)">
            <g transform="matrix(1,0,0,1,304.422,547.31)">
                <path d="M0,-0.357C0.36,-0.298 0.723,-0.247 1.081,-0.177C1.19,-0.156 1.296,-0.093 1.392,-0.032C1.427,-0.008 1.44,0.065 1.441,0.117C1.442,0.138 1.389,0.176 1.356,0.182C1.263,0.199 1.162,0.227 1.073,0.207C0.34,0.051 -0.39,-0.114 -1.121,-0.28C-1.174,-0.293 -1.231,-0.325 -1.269,-0.364C-1.302,-0.398 -1.338,-0.468 -1.324,-0.501C-1.306,-0.541 -1.234,-0.584 -1.19,-0.58C-0.98,-0.56 -0.771,-0.526 -0.562,-0.494C-0.373,-0.465 -0.183,-0.433 0.007,-0.402C0.005,-0.387 0.002,-0.372 0,-0.357" style="fill:rgb(35,31,32);fill-rule:nonzero;"/>
            </g>
        </g>
        <g transform="matrix(5.55556,0,0,5.55556,7263.77,9566.93)">
            <g transform="matrix(1,0,0,1,304.757,548.145)">
                <path d="M0,0.836C-0.493,0.68 -0.987,0.53 -1.476,0.362C-1.596,0.32 -1.7,0.224 -1.805,0.144C-1.825,0.128 -1.828,0.069 -1.816,0.039C-1.805,0.01 -1.766,-0.024 -1.736,-0.028C-1.681,-0.034 -1.622,-0.026 -1.568,-0.012C-0.92,0.163 -0.273,0.34 0.374,0.517C0.446,0.537 0.531,0.553 0.583,0.6C0.63,0.642 0.653,0.725 0.655,0.79C0.656,0.815 0.567,0.87 0.524,0.865C0.353,0.85 0.184,0.815 0.013,0.787C0.009,0.804 0.004,0.819 0,0.836" style="fill:rgb(35,31,32);fill-rule:nonzero;"/>
            </g>
        </g>
        <g transform="matrix(5.55556,0,0,5.55556,7263.77,9566.93)">
            <g transform="matrix(1,0,0,1,305.775,541.539)">
                <path d="M0,-3.024C-0.235,-2.961 -0.474,-2.905 -0.706,-2.831C-0.934,-2.757 -1.142,-2.633 -1.162,-2.368C-1.181,-2.11 -0.968,-1.998 -0.772,-1.923C0.016,-1.624 0.795,-1.278 1.608,-1.065C2.629,-0.796 3.681,-0.647 4.717,-0.437C5.489,-0.28 6.25,-0.399 7.008,-0.519C7.229,-0.554 7.443,-0.67 7.645,-0.777C7.898,-0.913 8.088,-1.092 7.906,-1.422C7.882,-1.466 7.929,-1.608 7.956,-1.612C8.041,-1.624 8.156,-1.621 8.215,-1.571C8.485,-1.344 8.498,-0.945 8.234,-0.71C7.869,-0.383 7.444,-0.17 6.952,-0.095C6.11,0.034 5.273,0.062 4.43,-0.111C3.582,-0.285 2.717,-0.381 1.877,-0.586C0.869,-0.83 -0.119,-1.156 -1.042,-1.641C-1.308,-1.781 -1.525,-1.973 -1.502,-2.312C-1.48,-2.644 -1.201,-2.969 -0.849,-3.03C-0.572,-3.078 -0.286,-3.07 -0.003,-3.086C-0.002,-3.066 -0.001,-3.045 0,-3.024" style="fill:rgb(35,31,32);fill-rule:nonzero;"/>
            </g>
        </g>
        <g transform="matrix(5.55556,0,0,5.55556,7263.77,9566.93)">
            <g transform="matrix(1.13334,0.096206,-0.1697,0.989191,-100.992,-8.57295)">
                <text x="423.938px" y="504.545px" style="font-family:'ITCAvantGardeStd-Bk', 'ITC Avant Garde Gothic Std', sans-serif;font-weight:300;font-size:4.368px;fill:white;">Química</text>
            </g>
        </g>
    </g>
</svg>
