<svg clip-rule="evenodd" fill-rule="evenodd" stroke-linejoin="round" stroke-miterlimit="2" viewBox="0 0 40 180" xmlns="http://www.w3.org/2000/svg"><g fill-rule="nonzero"><path d="m0 30.381c.246-.515.465-.927.641-1.357.144-.349-.05-.527-.391-.543-.193-.009-.395.015-.585.057-.773.173-.833.341-.35 1.017.181.252.395.479.685.826m-3.227-4.3c.43.657.789 1.217 1.159 1.77.233.348.505.371.92.237.592-.192 1.229-.265 1.853-.334.699-.079.951-.313 1.002-1.053.046-.69-.111-.917-.854-1.017-1.307-.177-2.611-.207-4.08.397m4.869-1.024c.155-2.081.367-4.059.434-6.042.079-2.347-.098-4.708.073-7.045.266-3.62.181-7.24.272-10.86.026-1.046-.308-1.441-1.341-1.317-.981.118-1.949.389-2.906.653-.677.187-1.058.689-1.108 1.406-.078 1.111-.188 2.222-.211 3.335-.031 1.553-.003 3.107.015 4.661.055 4.619.117 9.239.178 13.859.004.278.035.557.034.836-.001.444.249.564.624.468 1.266-.325 2.53-.121 3.936.046m.724 2.547c-.648 1.127-1.272 2.269-1.956 3.374-.29.468-.521.485-.821.1-.978-1.251-1.943-2.514-2.855-3.814-.233-.332-.342-.817-.346-1.233-.034-3.386-.03-6.772-.038-10.158 0-.2-.009-.399-.014-.598-.077-3.226-.184-6.451-.218-9.676-.014-1.351.119-2.703.203-4.054.038-.597.338-1.087.849-1.369.553-.306 1.14-.588 1.747-.749.767-.204 1.566-.306 2.357-.397.978-.112 1.608.349 1.798 1.327.09.463.074.95.074 1.427-.001 1.951.126 3.916-.051 5.852-.381 4.177-.079 8.363-.302 12.539-.114 2.145-.221 4.29-.345 6.435-.018.315-.107.626-.163.939.027.019.054.037.081.055" fill="#231f20" transform="matrix(5.55556 0 0 5.55556 21.56637636 5.481659)"/><path d="m0 25.339c-1.406-.167-2.67-.372-3.936-.046-.375.095-.625-.024-.624-.469 0-.278-.03-.557-.034-.835-.061-4.62-.123-9.24-.178-13.859-.019-1.554-.046-3.108-.015-4.662.023-1.112.133-2.223.211-3.335.05-.716.43-1.218 1.108-1.405.957-.264 1.925-.535 2.906-.654 1.033-.123 1.367.272 1.341 1.318-.091 3.619-.006 7.24-.272 10.86-.172 2.337.006 4.698-.073 7.045-.067 1.983-.279 3.961-.434 6.042" fill="#ed1c24" transform="matrix(5.55556 0 0 5.55556 30.68860588 3.91499108)"/><path d="m0-1.537c1.469-.604 2.772-.574 4.08-.397.742.1.899.327.853 1.017-.05.74-.302.974-1.002 1.052-.624.07-1.261.143-1.853.334-.415.135-.687.112-.92-.236-.369-.553-.729-1.113-1.158-1.77" fill="#ffe5a6" transform="matrix(5.55556 0 0 5.55556 3.63858424 158.91511508)"/><path d="m0 1.909c-.29-.347-.504-.574-.685-.826-.483-.676-.423-.844.35-1.017.19-.042.392-.066.585-.057.341.016.535.194.391.543-.176.43-.395.842-.641 1.357" fill="#ed1c24" transform="matrix(5.55556 0 0 5.55556 21.56637636 163.65956332)"/><path d="m0-9.638c-.148 3.264-.665 6.512-1.536 9.661.151-.419.086-.882.019-1.322-.304-2.016-.584-4.038-.915-6.049-.113-.688-.434-1.324.095-1.876.211-.22 2.338-.437 2.337-.414" fill="#fff" transform="matrix(5.55556 0 0 5.55556 33.24971904 62.2594822)"/></g></svg>