<?xml version="1.0" encoding="UTF-8" standalone="no"?>
<!DOCTYPE svg PUBLIC "-//W3C//DTD SVG 1.1//EN" "http://www.w3.org/Graphics/SVG/1.1/DTD/svg11.dtd">
<svg width="100%" height="100%" viewBox="0 0 129 180" version="1.1" xmlns="http://www.w3.org/2000/svg" xmlns:xlink="http://www.w3.org/1999/xlink" xml:space="preserve" xmlns:serif="http://www.serif.com/" style="fill-rule:evenodd;clip-rule:evenodd;stroke-linejoin:round;stroke-miterlimit:2;">
    <g transform="matrix(1,0,0,1,-1368,-2819)">
        <g id="corazon" transform="matrix(1,0,0,1,199.386,307.845)">
            <g transform="matrix(4.16667,0,0,4.16667,1284.11,2562.02)">
                <path d="M0,18.949C0.613,16.844 0.802,14.769 0.701,12.65C0.664,11.886 0.409,11.414 -0.417,11.353C-0.637,11.336 -0.854,11.211 -1.065,11.118C-2.83,10.347 -4.584,9.557 -6.356,8.807C-6.952,8.555 -7.577,8.324 -8.212,8.225C-9.003,8.104 -9.107,8.233 -9.394,8.986C-9.615,9.561 -9.803,10.152 -10.079,10.7C-10.635,11.801 -11.524,12.134 -12.687,11.712C-12.972,11.609 -13.25,11.457 -13.498,11.281C-14.44,10.613 -15.386,9.949 -16.294,9.237C-16.818,8.826 -17.344,8.618 -18.002,8.808C-18.371,8.915 -18.756,8.971 -19.12,9.092C-21.015,9.718 -22.637,10.819 -24.19,12.036C-24.346,12.16 -24.501,12.417 -24.488,12.6C-24.432,13.402 -24.458,14.253 -24.185,14.986C-23.689,16.316 -23.015,17.581 -22.387,18.858C-22.234,19.167 -22.085,19.527 -21.599,19.736C-21.656,19.362 -21.71,19.103 -21.732,18.843C-21.836,17.655 -22.005,16.467 -22.013,15.279C-22.023,13.771 -21.305,12.533 -20.224,11.528C-19.423,10.784 -18.63,10.862 -17.919,11.684C-17.667,11.974 -17.437,12.29 -17.25,12.623C-16.91,13.228 -16.649,13.878 -16.285,14.466C-15.699,15.412 -15.1,16.357 -14.422,17.238C-13.86,17.965 -13.063,18.34 -12.11,18.368C-11.507,18.386 -11.067,18.213 -10.807,17.639C-10.49,16.936 -10.143,16.249 -9.814,15.552C-9.335,14.538 -8.784,13.579 -8.016,12.741C-7.108,11.753 -5.942,11.687 -4.731,11.663C-3.718,11.643 -3.246,12.375 -2.736,13.044C-2.458,13.407 -2.21,13.809 -2.032,14.231C-1.42,15.682 -0.845,17.15 -0.25,18.609C-0.208,18.71 -0.119,18.791 0,18.949M-0.9,21.152C-1.002,20.394 -1.08,19.632 -1.213,18.878C-1.518,17.143 -2.479,15.666 -3.154,14.077C-3.328,13.667 -3.68,13.323 -3.989,12.982C-4.134,12.821 -4.359,12.656 -4.561,12.636C-5.658,12.531 -6.769,12.538 -7.485,13.555C-8.079,14.398 -8.588,15.306 -9.094,16.208C-9.45,16.844 -9.714,17.532 -10.06,18.175C-10.476,18.954 -11.111,19.325 -12.038,19.291C-13.135,19.251 -14.078,18.912 -14.844,18.141C-15.249,17.733 -15.659,17.307 -15.957,16.821C-16.577,15.806 -17.119,14.744 -17.704,13.707C-17.968,13.241 -18.217,12.755 -18.548,12.338C-19.009,11.759 -19.368,11.748 -19.882,12.299C-20.715,13.189 -21.341,14.204 -21.316,15.479C-21.301,16.285 -21.259,17.096 -21.148,17.893C-20.908,19.621 -20.518,21.363 -19.517,22.783C-17.637,25.451 -15.326,27.687 -12.266,29.038C-11.037,29.58 -9.788,29.828 -8.456,29.783C-7.126,29.738 -5.986,29.27 -5.015,28.37C-3.648,27.104 -2.536,25.643 -1.637,24.012C-1.146,23.12 -0.703,22.227 -0.9,21.152M-19.794,-6.161C-20.193,-5.437 -20.524,-4.879 -20.814,-4.301C-21.155,-3.624 -21.159,-3.592 -20.523,-3.078C-19.262,-2.06 -18.49,-0.679 -17.675,0.671C-17.596,0.803 -17.534,0.949 -17.497,1.096C-17.381,1.557 -17.556,1.83 -18.03,1.932C-18.179,1.962 -18.337,1.979 -18.49,1.971C-19.633,1.905 -20.487,2.42 -21.169,3.291C-21.289,3.442 -21.395,3.605 -21.53,3.741C-22.012,4.226 -22.405,4.134 -22.624,3.486C-23.017,2.32 -23.399,1.151 -23.799,-0.013C-24.063,-0.782 -24.361,-0.909 -25.078,-0.567C-25.32,-0.452 -25.548,-0.302 -25.768,-0.148C-26.367,0.271 -26.41,0.496 -25.91,1.048C-25.447,1.562 -24.913,2.012 -24.445,2.523C-24.057,2.948 -23.681,3.395 -23.374,3.879C-23.079,4.343 -23.141,4.746 -23.567,4.978C-24.71,5.603 -25.247,6.659 -25.609,7.806C-25.942,8.863 -26.15,9.961 -26.388,11.045C-26.432,11.25 -26.359,11.48 -26.341,11.698C-26.092,11.664 -25.802,11.703 -25.604,11.584C-24.811,11.113 -24.037,10.611 -23.279,10.086C-21.745,9.023 -20.108,8.183 -18.273,7.796C-17.254,7.581 -16.333,7.697 -15.484,8.46C-14.658,9.201 -13.71,9.815 -12.769,10.414C-11.816,11.02 -11.319,10.833 -10.894,9.801C-10.66,9.231 -10.465,8.646 -10.251,8.068C-9.991,7.37 -9.488,7.07 -8.743,7.048C-7.909,7.023 -7.137,7.221 -6.394,7.553C-5.093,8.134 -3.814,8.76 -2.503,9.314C-1.512,9.732 -0.508,10.155 0.529,10.417C1.678,10.706 2.214,10.029 1.828,8.89C1.441,7.745 0.827,6.744 -0.033,5.873C-2.007,3.873 -4.365,2.443 -6.843,1.188C-7.286,0.964 -7.773,0.823 -8.248,0.671C-8.627,0.551 -8.84,0.716 -8.853,1.12C-8.857,1.234 -8.852,1.351 -8.858,1.466C-8.875,1.773 -8.856,2.146 -9.283,2.148C-9.664,2.15 -9.76,1.821 -9.804,1.498C-9.815,1.421 -9.825,1.345 -9.83,1.268C-9.981,-0.919 -10.169,-3.105 -10.266,-5.295C-10.342,-6.987 -10.295,-8.685 -10.319,-10.38C-10.329,-11.069 -10.466,-11.191 -11.135,-11.171C-11.403,-11.162 -11.69,-11.149 -11.929,-11.046C-12.916,-10.623 -13.89,-10.167 -14.866,-9.718C-15.212,-9.559 -15.198,-9.237 -15.2,-8.924C-15.204,-7.73 -15.194,-6.536 -15.218,-5.342C-15.264,-2.94 -14.985,-0.578 -14.4,1.749C-14.343,1.973 -14.244,2.205 -14.266,2.422C-14.286,2.62 -14.444,2.802 -14.542,2.992C-14.726,2.895 -14.961,2.839 -15.082,2.689C-15.219,2.52 -15.287,2.274 -15.331,2.05C-15.62,0.592 -16.346,-0.689 -16.972,-2.006C-17.669,-3.469 -18.566,-4.806 -19.794,-6.161M-16.261,-2.733C-16.261,-4.794 -16.228,-6.716 -16.274,-8.634C-16.298,-9.632 -16.018,-10.343 -15.041,-10.738C-14.364,-11.011 -13.733,-11.389 -13.074,-11.706C-12.25,-12.104 -11.365,-12.156 -10.475,-12.082C-9.684,-12.016 -9.39,-11.708 -9.359,-10.9C-9.326,-10.053 -9.363,-9.205 -9.338,-8.358C-9.266,-6.012 -9.187,-3.664 -9.094,-1.319C-9.061,-0.527 -9.025,-0.568 -8.237,-0.374C-7.572,-0.21 -6.898,-0.006 -6.287,0.299C-3.695,1.593 -1.276,3.134 0.765,5.233C1.754,6.25 2.468,7.406 2.944,8.727C3.297,9.709 3.089,10.575 2.303,11.229C1.929,11.541 1.819,11.808 1.855,12.293C2.011,14.454 1.879,16.599 1.305,18.703C0.923,20.112 0.675,21.569 0.163,22.927C-0.804,25.486 -2.385,27.66 -4.456,29.458C-5.574,30.429 -6.876,30.862 -8.365,30.937C-11.734,31.105 -14.402,29.583 -16.778,27.466C-19.206,25.303 -21.103,22.667 -22.918,19.985C-23.94,18.477 -24.617,16.791 -25.197,15.075C-25.365,14.581 -25.328,14.014 -25.371,13.479C-25.423,12.834 -25.416,12.833 -26.026,12.832C-26.103,12.831 -26.18,12.847 -26.257,12.847C-27.313,12.843 -27.699,12.48 -27.53,11.45C-27.262,9.823 -27.069,8.17 -26.298,6.664C-25.89,5.87 -25.446,5.121 -24.759,4.525C-24.255,4.087 -24.253,4.046 -24.713,3.513C-25.189,2.96 -25.717,2.451 -26.215,1.916C-26.45,1.663 -26.706,1.417 -26.886,1.127C-27.277,0.499 -27.19,-0.033 -26.597,-0.494C-25.873,-1.055 -25.183,-1.685 -24.132,-1.565C-23.345,-1.476 -23.257,-1.446 -22.998,-0.685C-22.654,0.325 -22.282,1.326 -21.879,2.451C-20.914,1.614 -20.03,0.871 -18.638,0.96C-19.321,-0.413 -20.03,-1.524 -21.082,-2.394C-21.289,-2.564 -21.515,-2.715 -21.718,-2.892C-22.04,-3.174 -22.174,-3.537 -21.964,-3.927C-21.494,-4.808 -21.049,-5.711 -20.484,-6.529C-20.004,-7.223 -19.521,-7.23 -18.98,-6.568C-18.205,-5.616 -17.518,-4.591 -16.801,-3.591C-16.624,-3.346 -16.478,-3.08 -16.261,-2.733" style="fill:rgb(35,31,32);fill-rule:nonzero;"/>
            </g>
            <g transform="matrix(4.16667,0,0,4.16667,1227.85,2598.3)">
                <path d="M0,-16.907C0.323,-17.016 0.719,-17.127 1.092,-17.292C1.189,-17.335 1.275,-17.562 1.25,-17.68C1.225,-17.798 1.052,-17.975 0.95,-17.97C0.27,-17.941 -0.41,-17.883 -1.085,-17.8C-1.189,-17.786 -1.347,-17.601 -1.346,-17.497C-1.346,-17.385 -1.208,-17.214 -1.094,-17.174C-0.774,-17.064 -0.436,-17.008 0,-16.907M-6.292,-14.871C-5.064,-13.515 -4.167,-12.178 -3.471,-10.715C-2.843,-9.398 -2.117,-8.116 -1.829,-6.659C-1.786,-6.436 -1.716,-6.19 -1.579,-6.02C-1.459,-5.871 -1.224,-5.815 -1.039,-5.718C-0.943,-5.906 -0.784,-6.09 -0.764,-6.286C-0.742,-6.504 -0.841,-6.737 -0.898,-6.96C-1.483,-9.288 -1.761,-11.65 -1.715,-14.051C-1.692,-15.245 -1.702,-16.439 -1.698,-17.634C-1.696,-17.946 -1.709,-18.268 -1.363,-18.427C-0.388,-18.877 0.585,-19.333 1.573,-19.756C1.812,-19.858 2.1,-19.872 2.367,-19.879C3.035,-19.9 3.173,-19.778 3.183,-19.09C3.208,-17.395 3.16,-15.697 3.236,-14.005C3.333,-11.815 3.521,-9.629 3.672,-7.441C3.676,-7.364 3.688,-7.287 3.698,-7.211C3.743,-6.889 3.837,-6.559 4.219,-6.561C4.646,-6.563 4.628,-6.936 4.644,-7.244C4.65,-7.358 4.645,-7.474 4.649,-7.59C4.662,-7.993 4.875,-8.159 5.254,-8.037C5.73,-7.887 6.217,-7.745 6.659,-7.521C9.138,-6.265 11.495,-4.836 13.47,-2.837C14.33,-1.964 14.944,-0.963 15.33,0.182C15.716,1.32 15.18,1.996 14.032,1.707C12.994,1.446 11.991,1.024 11,0.605C9.688,0.051 8.409,-0.576 7.108,-1.156C6.365,-1.488 5.594,-1.686 4.76,-1.661C4.015,-1.639 3.511,-1.339 3.251,-0.641C3.036,-0.064 2.842,0.522 2.608,1.091C2.184,2.124 1.686,2.311 0.734,1.704C-0.207,1.106 -1.156,0.491 -1.981,-0.249C-2.832,-1.013 -3.752,-1.128 -4.77,-0.913C-6.607,-0.526 -8.242,0.314 -9.777,1.376C-10.535,1.902 -11.309,2.403 -12.102,2.876C-12.299,2.993 -12.59,2.956 -12.838,2.988C-12.856,2.771 -12.93,2.54 -12.885,2.336C-12.647,1.251 -12.44,0.154 -12.106,-0.903C-11.745,-2.049 -11.208,-3.107 -10.064,-3.73C-9.638,-3.964 -9.578,-4.367 -9.872,-4.831C-10.179,-5.315 -10.555,-5.761 -10.944,-6.186C-11.41,-6.697 -11.944,-7.147 -12.408,-7.661C-12.908,-8.214 -12.865,-8.437 -12.265,-8.858C-12.046,-9.012 -11.817,-9.16 -11.575,-9.276C-10.859,-9.618 -10.561,-9.492 -10.297,-8.723C-9.897,-7.559 -9.515,-6.389 -9.121,-5.223C-8.903,-4.576 -8.509,-4.483 -8.027,-4.968C-7.893,-5.103 -7.786,-5.267 -7.667,-5.419C-6.985,-6.288 -6.131,-6.804 -4.987,-6.738C-4.835,-6.73 -4.678,-6.746 -4.527,-6.778C-4.053,-6.879 -3.879,-7.151 -3.995,-7.613C-4.032,-7.76 -4.094,-7.907 -4.173,-8.037C-4.987,-9.389 -5.761,-10.769 -7.021,-11.787C-7.657,-12.301 -7.652,-12.333 -7.312,-13.01C-7.022,-13.589 -6.691,-14.147 -6.292,-14.871" style="fill:white;fill-rule:nonzero;"/>
            </g>
            <g transform="matrix(4.16667,0,0,4.16667,1280.36,2647.12)">
                <path d="M0,0.728C0.197,1.803 -0.248,2.696 -0.739,3.588C-1.636,5.219 -2.75,6.68 -4.117,7.946C-5.087,8.846 -6.226,9.314 -7.557,9.359C-8.889,9.404 -10.139,9.156 -11.367,8.614C-14.428,7.263 -16.738,5.027 -18.619,2.358C-19.62,0.939 -20.008,-0.803 -20.248,-2.531C-20.359,-3.328 -20.402,-4.139 -20.417,-4.945C-20.441,-6.221 -19.816,-7.235 -18.982,-8.125C-18.469,-8.676 -18.11,-8.666 -17.649,-8.086C-17.317,-7.669 -17.069,-7.184 -16.805,-6.718C-16.219,-5.68 -15.678,-4.618 -15.057,-3.603C-14.761,-3.117 -14.351,-2.691 -13.946,-2.283C-13.178,-1.512 -12.236,-1.173 -11.139,-1.133C-10.213,-1.1 -9.578,-1.47 -9.16,-2.249C-8.816,-2.892 -8.551,-3.58 -8.194,-4.216C-7.69,-5.118 -7.18,-6.026 -6.586,-6.869C-5.871,-7.886 -4.76,-7.893 -3.663,-7.788C-3.46,-7.769 -3.235,-7.603 -3.089,-7.442C-2.781,-7.102 -2.43,-6.757 -2.255,-6.347C-1.58,-4.758 -0.619,-3.281 -0.313,-1.546C-0.18,-0.792 -0.102,-0.03 0,0.728" style="fill:white;fill-rule:nonzero;"/>
            </g>
            <g transform="matrix(4.16667,0,0,4.16667,1284.11,2599.06)">
                <path d="M0,10.058C-0.119,9.9 -0.208,9.819 -0.25,9.718C-0.845,8.259 -1.42,6.791 -2.032,5.34C-2.21,4.918 -2.458,4.516 -2.736,4.153C-3.246,3.484 -3.718,2.752 -4.731,2.772C-5.942,2.796 -7.108,2.862 -8.016,3.85C-8.784,4.688 -9.335,5.647 -9.814,6.661C-10.143,7.358 -10.49,8.045 -10.807,8.748C-11.067,9.322 -11.507,9.495 -12.11,9.477C-13.063,9.449 -13.86,9.074 -14.422,8.347C-15.1,7.466 -15.699,6.521 -16.285,5.575C-16.649,4.987 -16.91,4.337 -17.25,3.732C-17.437,3.399 -17.667,3.083 -17.919,2.793C-18.63,1.971 -19.423,1.893 -20.224,2.637C-21.305,3.642 -22.023,4.88 -22.013,6.388C-22.005,7.576 -21.836,8.764 -21.732,9.952C-21.71,10.212 -21.656,10.471 -21.599,10.845C-22.085,10.636 -22.234,10.276 -22.387,9.967C-23.015,8.69 -23.689,7.425 -24.185,6.095C-24.458,5.362 -24.432,4.511 -24.488,3.709C-24.501,3.526 -24.346,3.269 -24.19,3.145C-22.637,1.928 -21.015,0.827 -19.12,0.201C-18.756,0.08 -18.371,0.024 -18.002,-0.083C-17.344,-0.273 -16.818,-0.065 -16.294,0.346C-15.386,1.058 -14.44,1.722 -13.498,2.39C-13.25,2.566 -12.972,2.718 -12.687,2.821C-11.524,3.243 -10.635,2.91 -10.079,1.809C-9.803,1.261 -9.615,0.67 -9.394,0.095C-9.107,-0.658 -9.003,-0.787 -8.212,-0.666C-7.577,-0.567 -6.952,-0.336 -6.356,-0.084C-4.584,0.666 -2.83,1.456 -1.065,2.227C-0.854,2.32 -0.637,2.445 -0.417,2.462C0.409,2.523 0.664,2.995 0.701,3.759C0.802,5.878 0.613,7.953 0,10.058" style="fill:white;fill-rule:nonzero;"/>
            </g>
            <g transform="matrix(4.16667,0,0,4.16667,1227.85,2523.41)">
                <path d="M0,1.068C-0.436,0.967 -0.774,0.911 -1.094,0.801C-1.208,0.761 -1.346,0.59 -1.346,0.478C-1.347,0.374 -1.189,0.189 -1.085,0.175C-0.41,0.092 0.27,0.034 0.95,0.005C1.052,0 1.225,0.177 1.25,0.295C1.275,0.413 1.189,0.64 1.092,0.683C0.719,0.848 0.323,0.959 0,1.068" style="fill:rgb(35,31,32);fill-rule:nonzero;"/>
            </g>
            <g transform="matrix(4.16667,0,0,4.16667,1228.31,2598.14)">
                <path d="M0,-16.913C0.323,-17.022 0.719,-17.133 1.093,-17.298C1.189,-17.341 1.275,-17.568 1.251,-17.686C1.226,-17.804 1.052,-17.982 0.95,-17.977C0.27,-17.947 -0.41,-17.889 -1.085,-17.806C-1.189,-17.793 -1.347,-17.607 -1.346,-17.503C-1.346,-17.391 -1.208,-17.22 -1.095,-17.18C-0.774,-17.07 -0.436,-17.014 0,-16.913M-6.294,-14.876C-5.065,-13.52 -4.168,-12.183 -3.472,-10.72C-2.844,-9.401 -2.118,-8.12 -1.829,-6.662C-1.786,-6.439 -1.717,-6.193 -1.58,-6.023C-1.459,-5.873 -1.225,-5.818 -1.04,-5.72C-0.943,-5.909 -0.784,-6.092 -0.764,-6.289C-0.743,-6.507 -0.841,-6.74 -0.898,-6.963C-1.483,-9.291 -1.762,-11.654 -1.716,-14.056C-1.693,-15.25 -1.702,-16.445 -1.698,-17.64C-1.696,-17.953 -1.71,-18.275 -1.364,-18.434C-0.388,-18.883 0.585,-19.339 1.574,-19.763C1.813,-19.865 2.1,-19.879 2.368,-19.886C3.036,-19.906 3.174,-19.785 3.184,-19.096C3.209,-17.401 3.161,-15.703 3.237,-14.01C3.334,-11.819 3.522,-9.633 3.673,-7.444C3.677,-7.367 3.689,-7.29 3.699,-7.214C3.744,-6.892 3.838,-6.562 4.22,-6.564C4.647,-6.566 4.629,-6.939 4.646,-7.247C4.651,-7.362 4.646,-7.477 4.65,-7.593C4.664,-7.996 4.877,-8.162 5.256,-8.041C5.731,-7.89 6.218,-7.748 6.661,-7.525C9.141,-6.268 11.499,-4.839 13.474,-2.839C14.334,-1.966 14.948,-0.965 15.335,0.181C15.721,1.319 15.185,1.996 14.036,1.707C12.998,1.445 11.994,1.023 11.003,0.604C9.691,0.05 8.411,-0.577 7.111,-1.158C6.367,-1.489 5.595,-1.687 4.761,-1.663C4.016,-1.641 3.512,-1.341 3.252,-0.643C3.037,-0.065 2.843,0.521 2.609,1.09C2.184,2.123 1.687,2.31 0.734,1.704C-0.207,1.106 -1.156,0.491 -1.982,-0.25C-2.832,-1.014 -3.753,-1.13 -4.772,-0.915C-6.609,-0.527 -8.245,0.313 -9.78,1.376C-10.538,1.902 -11.312,2.403 -12.105,2.876C-12.303,2.993 -12.594,2.956 -12.842,2.988C-12.86,2.77 -12.934,2.54 -12.889,2.336C-12.651,1.251 -12.444,0.153 -12.11,-0.904C-11.748,-2.051 -11.211,-3.109 -10.067,-3.732C-9.641,-3.966 -9.58,-4.369 -9.875,-4.833C-10.182,-5.317 -10.558,-5.764 -10.947,-6.189C-11.414,-6.7 -11.948,-7.15 -12.412,-7.664C-12.911,-8.217 -12.869,-8.441 -12.269,-8.861C-12.049,-9.016 -11.821,-9.164 -11.579,-9.28C-10.862,-9.622 -10.564,-9.496 -10.3,-8.726C-9.9,-7.562 -9.518,-6.391 -9.124,-5.225C-8.905,-4.578 -8.512,-4.486 -8.03,-4.971C-7.896,-5.106 -7.789,-5.27 -7.669,-5.421C-6.987,-6.291 -6.133,-6.807 -4.989,-6.741C-4.836,-6.733 -4.679,-6.749 -4.529,-6.781C-4.054,-6.882 -3.88,-7.154 -3.996,-7.616C-4.033,-7.764 -4.095,-7.91 -4.174,-8.041C-4.989,-9.393 -5.762,-10.773 -7.023,-11.791C-7.659,-12.306 -7.654,-12.338 -7.314,-13.015C-7.024,-13.594 -6.693,-14.152 -6.294,-14.876" style="fill:rgb(240,51,163);fill-rule:nonzero;"/>
            </g>
            <g transform="matrix(4.16667,0,0,4.16667,1280.84,2646.96)">
                <path d="M0,0.728C0.197,1.803 -0.248,2.696 -0.739,3.588C-1.637,5.22 -2.75,6.682 -4.118,7.948C-5.088,8.848 -6.228,9.317 -7.559,9.361C-8.892,9.407 -10.142,9.159 -11.37,8.617C-14.432,7.265 -16.743,5.028 -18.625,2.359C-19.626,0.939 -20.014,-0.803 -20.254,-2.532C-20.365,-3.329 -20.408,-4.14 -20.423,-4.947C-20.447,-6.223 -19.822,-7.237 -18.988,-8.128C-18.474,-8.679 -18.115,-8.669 -17.654,-8.089C-17.323,-7.672 -17.074,-7.187 -16.81,-6.72C-16.224,-5.682 -15.683,-4.62 -15.062,-3.604C-14.765,-3.118 -14.355,-2.692 -13.95,-2.284C-13.182,-1.512 -12.239,-1.174 -11.143,-1.133C-10.216,-1.101 -9.58,-1.471 -9.163,-2.25C-8.819,-2.893 -8.553,-3.581 -8.196,-4.217C-7.692,-5.12 -7.182,-6.028 -6.588,-6.871C-5.872,-7.889 -4.761,-7.896 -3.664,-7.791C-3.461,-7.771 -3.236,-7.605 -3.09,-7.444C-2.782,-7.104 -2.43,-6.76 -2.256,-6.349C-1.581,-4.759 -0.619,-3.282 -0.313,-1.547C-0.18,-0.793 -0.102,-0.03 0,0.728" style="fill:rgb(240,51,163);fill-rule:nonzero;"/>
            </g>
            <g transform="matrix(4.16667,0,0,4.16667,1284.59,2598.89)">
                <path d="M0,10.062C-0.119,9.904 -0.208,9.823 -0.25,9.722C-0.845,8.262 -1.421,6.794 -2.033,5.342C-2.21,4.921 -2.459,4.519 -2.737,4.155C-3.247,3.486 -3.719,2.754 -4.732,2.774C-5.944,2.798 -7.111,2.864 -8.018,3.852C-8.787,4.69 -9.337,5.65 -9.817,6.664C-10.146,7.361 -10.493,8.048 -10.81,8.751C-11.07,9.326 -11.51,9.499 -12.114,9.48C-13.067,9.453 -13.864,9.077 -14.426,8.35C-15.104,7.47 -15.703,6.524 -16.29,5.578C-16.654,4.989 -16.915,4.339 -17.255,3.735C-17.442,3.401 -17.673,3.085 -17.924,2.795C-18.636,1.973 -19.429,1.894 -20.23,2.639C-21.311,3.644 -22.03,4.882 -22.019,6.391C-22.012,7.58 -21.843,8.768 -21.739,9.956C-21.716,10.216 -21.662,10.475 -21.605,10.849C-22.092,10.641 -22.241,10.28 -22.393,9.971C-23.022,8.694 -23.696,7.428 -24.192,6.097C-24.465,5.364 -24.439,4.513 -24.496,3.711C-24.508,3.528 -24.353,3.271 -24.197,3.147C-22.644,1.929 -21.021,0.828 -19.126,0.202C-18.761,0.081 -18.377,0.025 -18.007,-0.083C-17.35,-0.273 -16.823,-0.064 -16.299,0.347C-15.391,1.059 -14.445,1.724 -13.502,2.392C-13.254,2.568 -12.976,2.72 -12.691,2.823C-11.527,3.245 -10.638,2.912 -10.082,1.811C-9.806,1.263 -9.618,0.671 -9.397,0.096C-9.11,-0.657 -9.006,-0.787 -8.215,-0.665C-7.579,-0.567 -6.954,-0.335 -6.358,-0.084C-4.586,0.667 -2.831,1.458 -1.066,2.229C-0.854,2.322 -0.637,2.447 -0.417,2.463C0.409,2.524 0.664,2.997 0.701,3.762C0.802,5.88 0.613,7.957 0,10.062" style="fill:rgb(240,51,163);fill-rule:nonzero;"/>
            </g>
            <g transform="matrix(4.16667,0,0,4.16667,1228.31,2523.21)">
                <path d="M0,1.069C-0.436,0.968 -0.774,0.912 -1.095,0.802C-1.208,0.762 -1.346,0.591 -1.346,0.479C-1.347,0.375 -1.189,0.189 -1.085,0.176C-0.41,0.093 0.27,0.035 0.95,0.005C1.052,0 1.226,0.178 1.251,0.296C1.275,0.414 1.189,0.641 1.093,0.684C0.719,0.849 0.323,0.96 0,1.069" style="fill:rgb(240,51,163);fill-rule:nonzero;"/>
            </g>
        </g>
    </g>
</svg>
