<svg clip-rule="evenodd" fill-rule="evenodd" stroke-linecap="round" stroke-linejoin="round" stroke-miterlimit="10" viewBox="0 0 873 1722" xmlns="http://www.w3.org/2000/svg"><path d="m0-8.691c-.088-.039-.175-.076-.263-.115-.601 1.368-1.207 2.734-1.8 4.106-1.022 2.368-2.005 4.752-3.061 7.105-1.421 3.161-2.91 6.292-4.345 9.447-2.387 5.244-3.654 10.866-5.482 16.299-.155.457-.068.742.392.9.848.29 1.435.886 1.87 1.64 1.043 1.8 2.057 3.611 2.584 5.652.152.588.376 1.188.71 1.687.26.389.704.804 1.134.901.853.193 1.752.188 2.633.236.31.015.485-.184.503-.511.028-.537.055-1.076.105-1.611.263-2.797.656-5.588.774-8.389.178-4.275.615-8.515 1.169-12.755.636-4.883 1.129-9.785 1.624-14.685.294-2.911.65-5.81 1.216-8.683.08-.407.158-.816.237-1.224zm85.774-.29c.023.426.007.617.047.794 1.193 5.197 1.434 10.515 2.031 15.787.276 2.447.555 4.893.844 7.338.33 2.788.73 5.57.992 8.365.237 2.529.322 5.07.489 7.605.047.729.154 1.454.219 2.182.164 1.838.321 3.678.475 5.518.032.368.204.573.583.561.614-.02 1.228-.053 1.842-.078 1.148-.046 1.83-.706 2.237-1.714.13-.32.241-.652.322-.987.507-2.087 1.556-3.927 2.621-5.759.395-.678.942-1.193 1.682-1.523.731-.325.715-.362.477-1.122-.505-1.617-1.082-3.215-1.504-4.852-1.277-4.941-3.133-9.664-5.253-14.291-2.196-4.794-4.597-9.496-6.442-14.45-.334-.898-.786-1.756-1.192-2.627-.09-.193-.227-.363-.47-.747zm-95.651-112.441c.052-.006.104-.014.156-.021 0-.378.008-.756-.002-1.134-.049-1.964-.148-3.927-.145-5.891.005-3.929.072-7.858.099-11.787.021-3.01.387-5.995.81-8.964.462-3.235 1.112-6.443 1.644-9.669.347-2.106 1.104-4.084 1.768-6.093 1.043-3.151 2.227-6.24 3.889-9.124 1.406-2.443 2.911-4.813 4.988-6.765 2.343-2.203 5.007-3.967 7.721-5.66 2.761-1.724 5.72-3.017 8.849-3.901 2.296-.649 4.595-1.295 6.917-1.841 2.664-.627 5.385-.911 8.11-1.161 1.379-.126 2.749-.406 4.128-.463 1.996-.083 3.996.004 5.994-.035 3.059-.061 6.049.583 9.075.861 3.264.299 6.457 1.049 9.596 1.997 2.579.778 5.18 1.501 7.612 2.695 2.879 1.412 5.585 3.126 8.136 5.052 1.528 1.153 3 2.442 4.26 3.877 2.771 3.156 4.735 6.827 6.224 10.741.89 2.338 1.779 4.688 2.457 7.092.634 2.253 1.044 4.574 1.453 6.884.395 2.234.65 4.492.988 6.737.548 3.625.77 7.276.778 10.934.012 4.777-.094 9.553-.147 14.33-.005.422-.001.845-.001 1.267.83-2.608 1.538-5.207 2.053-7.844.552-2.831.946-5.694 1.36-8.55.22-1.522.447-3.057.474-4.591.073-4.083.064-8.169.037-12.254-.01-1.456-.162-2.914-.259-4.371-.011-.19-.081-.376-.111-.565-.305-1.895-.701-3.775-.593-5.721.049-.876-.057-1.767-.16-2.645-.133-1.106-.386-2.201-.493-3.309-.137-1.434-.445-2.811-1.053-4.117-.78-1.676-1.511-3.377-2.364-5.015-.601-1.156-1.311-2.266-2.077-3.321-.722-.994-1.547-1.92-2.391-2.819-.707-.754-1.504-1.426-2.265-2.13-.112-.103-.261-.168-.374-.27-.59-.524-.512-1.135.199-1.438.425-.179.877-.292 1.308-.459 1.436-.554 2.654-1.41 3.532-2.689.783-1.139.35-2.062-1.031-2.14-.84-.048-1.695-.003-2.532.093-1.5.175-2.929.635-4.331 1.195-.453.181-.959.315-1.443.319-.56.004-.787-.552-.443-.989.188-.236.446-.421.687-.609.637-.499 1.298-.967 1.919-1.483 1.259-1.042 2.308-2.266 3.065-3.723.476-.917.644-1.88.416-2.906-.237-1.075-.399-1.223-1.498-.997-.674.138-1.347.338-1.982.603-2.532 1.058-4.934 2.349-7.113 4.037-.867.671-1.163.652-2.074.108-.461-.274-.943-.528-1.446-.711-2.211-.8-4.46-1.466-6.768-1.935-3.395-.689-6.795-1.353-10.169-2.135-2.527-.584-5.052-.992-7.656-.916-4.697.138-9.397.186-14.092.343-2.616.088-5.229.275-7.837.499-3.608.309-7.179.894-10.739 1.558-3.065.572-6.174 1.003-9.104 2.098-4.001 1.496-7.971 3.08-11.909 4.73-2.033.852-3.87 2.101-5.449 3.649-1.951 1.913-3.876 3.861-5.697 5.898-1.017 1.14-1.856 2.455-2.657 3.764-.365.599-.557 1.363-.625 2.073-.174 1.782.375 2.379 2.169 2.498.999.066 2.001.06 3.002.103.341.014.701.027 1.017.139.476.168.577.678.209 1.015-.251.229-.572.385-.869.561-2.612 1.557-4.892 3.48-6.602 6.023-.235.348-.458.726-.58 1.122-.306.995-.034 1.443 1.005 1.611.91.148 1.835.208 2.752.304.69.07 1.388.09 2.067.214.67.121.814.706.329 1.186-.135.134-.305.232-.46.347-.681.503-1.407.957-2.037 1.519-1.434 1.281-2.84 2.596-4.217 3.939-.405.394-.74.899-.982 1.413-.385.818-.118 1.436.704 1.77.35.143.74.227 1.117.254 2.252.165 4.448-.127 6.586-.865 1.043-.36.71-.414 1.419.376.07.079.105.19.202.371-.493.197-.937.433-1.409.549-.633.155-.87.489-.865 1.14.036 5.005-.291 10.02.235 15.012.327 3.098.723 6.196 1.274 9.261.549 3.066 1.328 6.09 2.013 9.131.057.25.165.49.249.734zm104.013-8.623c-.094-3.949-.176-8.031-.296-12.112-.036-1.152-.158-2.305-.29-3.451-.272-2.332-.58-4.659-.867-6.989-.164-1.334-.287-2.676-.479-4.005-.397-2.754-1.196-5.402-2.122-8.023-1.093-3.093-2.25-6.152-3.904-8.996-1.418-2.439-2.988-4.755-5.115-6.662-2.165-1.941-4.55-3.568-7.036-5.039-1.684-.997-3.419-1.984-5.251-2.643-2.93-1.052-5.923-1.98-8.954-2.687-5.221-1.215-10.534-1.762-15.904-1.903-4.066-.107-8.075.329-12.085.803-5.188.614-10.171 2.101-15.082 3.839-.722.256-1.406.623-2.097.963-2.391 1.179-4.622 2.622-6.801 4.147-1.995 1.395-3.877 2.943-5.385 4.866-2.369 3.021-4.205 6.359-5.561 9.951-.747 1.982-1.51 3.965-2.1 5.997-.577 1.991-1.056 4.026-1.375 6.072-.415 2.656-.573 5.35-.94 8.014-.433 3.133-.707 6.282-.761 9.433-.075 4.428.057 8.86.109 13.29.042 3.738.244 7.47.79 11.168.232 1.565.086 3.264 1.222 4.611.204.243.09.522-.174.691-.59.378-1.389.161-1.786-.424-.207-.306-.45-.649-.763-.809-2.358-1.204-4.812-2.047-7.524-1.896-.877.048-1.663.279-2.382.766-2.7 1.827-4.03 4.36-3.989 7.629.017 1.342.21 2.642 1.027 3.722.645.851 1.369 1.678 2.194 2.349 1.56 1.271 3.422 1.821 5.421 2.075 4.15.529 7.639-.887 10.779-3.447.237-.193.423-.447.636-.669.361-.375.452-.735.14-1.229-.237-.375-.353-.843-.446-1.285-.066-.322.105-.629.444-.722.361-.1.535.159.705.445.374.625.727 1.275 1.188 1.832 1.307 1.578 2.788 2.976 4.435 4.204.894.668 1.763 1.375 2.585 2.129 1.487 1.362 3.068 2.565 4.909 3.42.8.373 1.536.883 2.32 1.297 2.619 1.382 5.246 2.756 7.878 4.115.372.192.789.312 1.199.413 2.355.578 4.705 1.184 7.074 1.698 3.473.754 7.014.918 10.551 1.094.267.014.538-.031.807-.037.961-.021 1.933-.135 2.882-.034 2.092.222 4.151-.149 6.226-.208.767-.022 1.535-.113 2.298-.21 3.716-.47 7.31-1.505 10.934-2.399.297-.074.595-.173.87-.308 1.728-.846 3.474-1.663 5.17-2.569 2.243-1.197 4.455-2.449 6.658-3.717.697-.401 1.345-.899 1.973-1.407 1.584-1.285 3.158-2.584 4.71-3.909 1.876-1.601 3.745-3.211 4.882-5.481.092-.182.446-.381.617-.337.194.051.463.386.441.566-.056.48-.169.993-.414 1.401-.299.499-.244.873.133 1.23.529.502 1.046 1.028 1.636 1.451 3.928 2.817 8.197 3.625 12.793 1.949 3.947-1.44 5.913-4.534 5.556-8.68-.257-2.992-1.833-5.182-4.414-6.639-.512-.29-1.16-.412-1.76-.466-2.751-.253-5.241.651-7.64 1.858-.314.158-.61.487-.757.809-.271.586-.708.64-1.238.583-.833-.091-.988-.422-.566-1.138.23-.392.52-.798.585-1.228.346-2.322.749-4.644.91-6.981.276-3.995.386-8.001.571-12.141zm-129.193 305.102c-.496.177-.985.377-1.489.529-2.48.754-4.222 2.416-5.72 4.458-1.95 2.659-1.138 6.23.481 8.285.541.686 1.278 1.11 2.116 1.337.537.148.729.014.75-.528.027-.692.008-1.387.022-2.081.021-1.095.273-2.145.753-3.121 2.302-4.68 7.129-5.522 11.331-3.802.651.266 1.182.846 1.736 1.32.135.117.258.466.187.569-.206.297-.481.117-.686-.066-1.543-1.375-3.388-1.639-5.377-1.663-2.916-.037-5.952 2.341-6.503 5.392-.168.94-.248 1.916-.215 2.869.108 3.016 1.427 5.403 3.973 7.042 2.061 1.326 4.393 1.651 6.769 1.451 2.627-.219 4.313-2.011 5.911-3.875.192-.224.381-.476.627-.621.284-.169.581-.206.971-.09 2.363.704 4.803.63 7.224.488 1.063-.061 2.142-.36 3.046-1.001 1.349-.959 2.706-1.913 3.996-2.949 1.591-1.278 3.096-2.664 4.673-3.961 2.569-2.109 5.255-4.032 8.46-5.098.877-.29 1.714-.706 2.598-.963 1.069-.31 2.159-.629 3.26-.73 1.137-.104 1.79-.678 2.109-1.657.295-.908.532-1.853.646-2.8.281-2.313.035-4.608-.353-6.898-.246-1.462-.712-2.833-1.411-4.134-.401-.746-.793-1.498-1.195-2.245-.217-.403-.401-.812-.961-.902-.176-.028-.37-.366-.43-.596-.075-.289-.021-.612-.022-.92-.005-2.235.214-4.452.429-6.678.266-2.769.685-5.492 1.349-8.192.588-2.39 1.124-4.798 1.555-7.222.275-1.548.3-3.138.47-4.707.256-2.372.567-4.738.808-7.111.334-3.298.893-6.557 1.52-9.809.619-3.213 1.193-6.433 1.798-9.647.484-2.571.834-5.18 1.507-7.701 1.909-7.148 3.574-14.346 4.973-21.611 1.106-5.745 2.252-11.484 3.456-17.209.609-2.9 1.388-5.765 2.087-8.646.087-.357.28-.679.014-1.089-.489-.755-.308-1.076.567-1.162.152-.015.308-.006.462-.006 6.434 0 12.869-.002 19.304 0 .269 0 .546-.002.805.055.514.114.753.563.416.933-.355.39-.304.714-.203 1.146 1.003 4.273 2.046 8.536 2.961 12.829 1.034 4.856 1.949 9.737 2.915 14.608 1.117 5.627 2.316 11.234 3.811 16.777.711 2.637 1.329 5.303 1.871 7.98.458 2.261.69 4.568 1.119 6.836.915 4.84 2.047 9.641 2.586 14.548.264 2.41.559 4.817.806 7.228.141 1.379.103 2.782.339 4.141.469 2.69 1.05 5.361 1.624 8.031.533 2.484 1.262 4.927 1.387 7.484.035.693.052 1.394.186 2.071.437 2.211.328 4.451.404 6.68.017.495-.073.891-.66 1.059-.248.071-.491.349-.625.594-.646 1.184-1.273 2.379-1.868 3.588-.237.48-.429.994-.552 1.515-.559 2.37-.889 4.77-.783 7.213.061 1.389.194 2.771.776 4.059.343.754.768 1.404 1.723 1.514 3.422.393 6.494 1.857 9.599 3.203.21.091.406.223.593.36 1.584 1.159 3.207 2.274 4.739 3.501 2.612 2.093 5.062 4.387 7.817 6.314 1.185.828 2.474 1.329 3.857 1.394 2.379.113 4.777.196 7.106-.525.517-.16 1.117.056 1.394.513.884 1.462 2.214 2.45 3.626 3.31.635.387 1.417.661 2.154.726 1.101.099 2.237.071 3.331-.084 3.301-.467 5.697-2.201 7.022-5.311.783-1.836.818-3.743.462-5.673-.447-2.42-1.859-4.083-4.063-5.119-1.088-.511-2.24-.494-3.398-.482-1.509.013-2.89.4-4.09 1.346-.182.144-.355.315-.562.399-.146.06-.343-.007-.516-.017.035-.171.013-.394.115-.506.849-.928 1.843-1.665 3.105-1.882.982-.169 1.985-.224 2.98-.298 3.076-.23 6.63 2.321 7.548 5.86.325 1.253.274 2.52.302 3.788.015.719.148.803.841.613.885-.242 1.621-.726 2.157-1.466 1.521-2.098 2.336-5.568.154-8.392-1.498-1.94-3.22-3.515-5.633-4.207-.485-.139-.949-.356-1.625-.613 2.038-.486 3.685-.186 5.178.889 1.849 1.331 3.28 3.017 4.257 5.085.346.732.476.795 1.233.703 2.219-.269 3.329-2.417 2.242-4.387-.258-.469-.589-.91-.951-1.305-1.503-1.634-3.222-2.868-5.573-2.877-.207 0-.414-.103-.693-.176.382-.545.855-.639 1.356-.69 1.377-.14 2.614.278 3.684 1.086.855.645 1.627 1.408 2.385 2.169.324.324.617.41 1.022.269 1.062-.374 1.761-1.036 1.949-2.207.197-1.236-.245-2.136-1.342-2.656-.687-.327-1.431-.556-2.173-.732-.594-.143-1.224-.131-1.835-.21-.286-.037-.566-.125-.916-.205.286-.514.694-.632 1.105-.679 1.154-.134 2.302-.16 3.427.239 1.181.42 1.327.316 1.209-.911-.039-.405-.196-.823-.391-1.185-.604-1.126-1.65-1.741-2.811-2.073-1.508-.43-3.022-.521-4.44.436-.667.449-1.413.785-2.14 1.135-.221.106-.614.214-.738.105-.537-.473-1.159-.354-1.76-.351-1.98.009-3.92-.171-5.749-1.027-.413-.194-.876-.288-1.317-.421-2.399-.721-4.813-1.424-7.038-2.587-1.944-1.016-3.827-2.154-5.71-3.283-2.047-1.226-4.13-2.407-5.864-4.09-.144-.14-.399-.208-.61-.23-.844-.088-.879-.098-.961-.921-.07-.689-.102-1.383-.158-2.075-.256-3.106-.652-6.205-.575-9.332.004-.154-.046-.306-.06-.459-.278-3.067-.566-6.131-.828-9.199-.116-1.343-.19-2.689-.271-4.035-.138-2.304-.365-4.61-.38-6.915-.046-7.672-.067-15.342.004-23.012.059-6.17-.243-12.319-.755-18.463-.108-1.305-.213-2.608-.325-3.913-.188-2.185-.37-4.373-.576-6.557-.184-1.954-.4-3.905-.6-5.858-.175-1.722-.384-3.443-.514-5.17-.138-1.842-.192-3.692-.295-5.538-.065-1.191-.171-2.381-.22-3.573-.022-.482-.162-.814-.644-.964-.183-.058-.36-.143-.526-.237-1.936-1.115-3.203-2.634-3.029-5.025.026-.344.036-.695.017-1.039-.092-1.556.761-2.539 2.017-3.221.376-.204.498-.378.462-.783-.162-1.801-.299-3.605-.442-5.408-.138-1.764-.286-3.529-.408-5.294-.095-1.383-.096-2.776-.249-4.152-.431-3.864-.937-7.717-1.378-11.579-.387-3.403-.763-6.808-1.079-10.218-.384-4.147-.969-8.257-1.98-12.301-.514-2.054-1.062-4.103-1.47-6.178-.507-2.567-.87-5.161-1.324-7.737-.883-5.003-1.768-10.007-2.688-15.004-.706-3.824-1.458-7.641-2.729-11.331-.326-.947-.668-1.89-.934-2.854-.108-.386-.055-.825-.025-1.237.007-.098.209-.246.329-.254.115-.009.305.108.351.218.213.493.37 1.012.578 1.509 1.452 3.459 2.469 7.05 3.195 10.722.605 3.058 1.132 6.131 1.694 9.197.819 4.468 1.622 8.938 2.467 13.401.257 1.357.511 2.735.98 4.026.525 1.442 1.315 2.783 1.951 4.186 1.16 2.56 2.3 5.129 3.432 7.702.526 1.197.99 2.424 1.527 3.617 1.917 4.249 3.927 8.456 5.757 12.741 1.513 3.543 2.74 7.195 3.486 10.998.311 1.584.793 3.135 1.179 4.704.101.409.264.56.722.498.404-.055.834.056 1.248.121.083.014.214.168.201.234-.023.13-.112.322-.212.351-.291.081-.606.079-.906.138-1.133.23-2.343.419-3.011 1.477-1.173 1.86-2.158 3.821-2.707 5.976-.133.518-.304 1.04-.547 1.515-.581 1.137-1.48 1.86-2.809 1.922-1.34.064-2.679.112-4.017.184-.176.01-.374.089-.517.196-.547.405-.934.913-.935 1.64-.001.462-.003.926-.038 1.385-.132 1.668.772 2.756 2.025 3.645.154.11.339.192.52.236.517.126 1.046.201 1.557.345.687.195 1.363.19 2.052.028 2.072-.489 3.521-1.83 4.714-3.491.809-1.125 1.512-2.326 2.332-3.443.901-1.224 2.172-1.322 3.276-.318 2.08 1.893 3.497 4.196 4.138 6.939.341 1.46.492 2.966.871 4.414.847 3.242 1.718 6.476 2.298 9.776.341 1.937 1.43 3.273 3.03 4.286 1.021.646 2.143.851 3.324.71 1.028-.123 1.372-.559 1.418-1.597.12-2.761-.248-5.431-1.129-8.073-.888-2.661-1.577-5.393-2.297-8.11-.404-1.525-.658-3.093-1.516-4.463-.079-.126-.126-.285-.146-.434-.047-.371.036-.749.423-.837.192-.045.53.133.659.313.356.497.7 1.022.932 1.584.293.708.527 1.451.686 2.2.713 3.358 1.703 6.639 2.747 9.903.518 1.62.916 3.259 1.012 4.967.024.414.107.859.289 1.227.717 1.448 1.45 2.89 2.243 4.298.659 1.171 3.341 1.758 4.464 1.032.16-.104.338-.23.42-.39.292-.575.727-1.155.785-1.763.167-1.76.253-3.531-.318-5.267-.373-1.133-.667-2.295-.926-3.459-1.063-4.794-2.576-9.435-4.662-13.883-.34-.724-.581-1.511-1.234-2.062-.188-.158-.029-.52.212-.485.285.044.617.13.814.318.301.286.527.662.743 1.024.367.618.594 1.342 1.459 1.495.193.032.349.288.513.45.99.985 1.836 2.086 2.465 3.333.676 1.34 1.303 2.705 1.946 4.063.881 1.863 2.134 3.474 3.46 5.028.633.743 1.465 1.099 2.463 1.041.46-.027.924-.001 1.387-.002.869-.001 1.477-.427 1.785-1.215.181-.458.281-.956.349-1.445.186-1.332-.284-2.502-.97-3.605-1.809-2.909-3.577-5.845-5.451-8.713-.918-1.405-1.753-2.918-3.229-3.876-.127-.082-.237-.203-.328-.324-.228-.306-.547-.626-.197-1.016.33-.367.696-.202 1.03.038.094.067.171.16.269.219 1.162.693 1.895 1.782 2.676 2.836.22.297.516.546.812.773.42.324.917.56 1.303.916 1.198 1.104 2.492 2.072 3.934 2.821.528.276 1.151.429 1.749.504.598.073.875-.177.952-.763.145-1.126.134-2.246-.602-3.208-.35-.458-.724-.901-1.126-1.313-2.139-2.193-4.629-3.963-7.191-5.592-2.359-1.499-4.515-3.205-6.548-5.104-.47-.44-1.027-.804-1.587-1.129-1.131-.658-2.282-1.283-3.443-1.888-.767-.401-1.32-.907-1.307-1.855.003-.223-.102-.449-.171-.669-.845-2.679-1.691-5.359-2.539-8.036-2.014-6.351-4.372-12.587-6.243-18.987-1.926-6.589-4.377-12.995-7.215-19.247-1.163-2.56-2.29-5.137-3.552-7.648-2.057-4.096-4.201-8.149-6.33-12.21-1.393-2.661-2.721-5.365-4.263-7.938-1.537-2.564-2.726-5.318-4.589-7.715-1.889-2.43-3.601-4.992-5.926-7.054-.314-.279-.56-.634-.849-.941-.582-.614-1.11-1.298-1.768-1.814-1.698-1.33-3.44-2.605-5.564-3.224-1.181-.344-2.331-.795-3.508-1.153-4.419-1.344-8.85-2.647-13.261-4.017-.908-.283-1.757-.769-2.618-1.191-1.193-.583-1.887-1.544-2.073-2.866-.021-.151-.098-.293-.125-.445-.089-.501-.361-.709-.887-.672-1.074.079-2.153.163-3.229.159-2.464-.009-4.927-.08-7.391-.106-.681-.007-1.364.055-2.046.085-.196.58-.416 1.153-.581 1.74-.173.617-.466 1.14-.989 1.517-1.26.91-2.604 1.636-4.145 1.964-.714.152-1.42.353-2.119.568-4.122 1.264-8.252 2.508-12.358 3.821-2.09.668-4.138 1.448-5.91 2.826-1.159.9-2.354 1.74-3.194 2.978-.15.221-.328.442-.539.6-1.377 1.029-2.387 2.398-3.445 3.718-1.801 2.245-3.58 4.505-4.955 7.053-.769 1.424-1.588 2.819-2.375 4.233-.824 1.481-1.663 2.954-2.446 4.458-1.227 2.357-2.42 4.732-3.615 7.107-2.582 5.123-5.391 10.125-7.693 15.399-3.243 7.426-6.018 15.004-8.391 22.751-1.737 5.667-3.741 11.254-5.594 16.888-.842 2.558-1.605 5.142-2.4 7.716-.067.22-.139.448-.147.674-.026.605-.328.99-.849 1.272-1.217.659-2.435 1.321-3.624 2.031-.688.412-1.352.878-1.97 1.388-.979.809-1.854 1.755-2.875 2.501-2.331 1.702-4.77 3.257-7.075 4.991-1.501 1.129-2.885 2.427-4.247 3.726-.974.927-1.303 2.148-1.162 3.495.104.992.457 1.316 1.442 1.1.553-.122 1.102-.351 1.6-.628 1.385-.77 2.642-1.727 3.8-2.811.251-.235.507-.536.813-.626.613-.179.955-.599 1.281-1.088.277-.416.541-.86.9-1.199.695-.657 1.443-1.259 2.188-1.861.226-.182.502-.168.729.065.227.231.231.503.056.735-.228.304-.506.57-.769.847-.527.554-1.141 1.046-1.573 1.665-2.297 3.28-4.518 6.611-6.499 10.096-.418.734-.85 1.474-1.149 2.259-.408 1.076-.375 2.2.051 3.276.358.902.998 1.445 2.038 1.386.384-.022.772-.025 1.155.001 1.088.07 1.978-.339 2.643-1.166 1.327-1.65 2.637-3.305 3.51-5.271.689-1.545 1.414-3.09 2.288-4.534.786-1.297 1.608-2.634 3.143-3.262.208-.085.328-.405.47-.628.289-.454.55-.928.853-1.373.223-.327.529-.569.96-.535.102.007.233.083.281.167.042.073.021.22-.028.303-.35.591-.768 1.149-1.067 1.765-1.487 3.056-2.673 6.232-3.591 9.501-.852 3.039-1.721 6.081-2.366 9.167-.3 1.439-.327 3.031-.05 4.47.354 1.832 1.252 2.513 3.271 2.176.303-.05.597-.16.9-.207.709-.111 1.176-.525 1.509-1.134.424-.777.928-1.52 1.27-2.332.442-1.052 1.179-1.987 1.222-3.209.054-1.547.419-3.04.887-4.517 1.083-3.414 2.137-6.837 2.867-10.35.125-.602.274-1.213.526-1.769.315-.694.728-1.349 1.145-1.991.097-.151.449-.306.563-.241.202.113.397.378.435.605.038.239-.055.543-.188.759-.676 1.105-.956 2.345-1.288 3.572-.801 2.973-1.519 5.975-2.472 8.899-.862 2.647-1.245 5.312-1.131 8.073.043 1.041.396 1.484 1.412 1.607 1.055.127 2.09.004 3.021-.539 1.688-.987 3.027-2.256 3.305-4.328.036-.267.107-.53.169-.792.584-2.471 1.177-4.941 1.751-7.415.288-1.236.55-2.479.81-3.72.173-.83.28-1.674.489-2.493.698-2.725 2.112-5.027 4.204-6.905.981-.881 2.17-.793 3.057.183.129.141.244.299.352.459.543.794 1.146 1.558 1.611 2.395.689 1.243 1.633 2.23 2.738 3.087 1.522 1.182 3.179 1.695 5.074 1.013.216-.077.451-.231.654-.199.581.093.95-.252 1.334-.561 1.492-1.2 2.116-3.579 1.422-5.357-.237-.607-.936-1.153-1.428-1.173-1.34-.053-2.679-.135-4.019-.195-1.052-.048-1.844-.571-2.388-1.418-.348-.541-.658-1.151-.801-1.772-.437-1.905-1.379-3.583-2.204-5.323-.557-1.175-1.474-1.837-2.674-2.178-.331-.092-.675-.144-1.015-.199-.228-.036-.474 0-.684-.075-.145-.053-.279-.225-.341-.375-.023-.057.158-.271.272-.296.333-.074.681-.117 1.024-.123.763-.011.765.002.924-.652.519-2.132 1.015-4.272 1.559-6.397 1.218-4.754 2.989-9.308 5.054-13.754 1.655-3.564 3.448-7.074 4.882-10.725 1.638-4.168 3.647-8.155 5.491-12.222.363-.799.687-1.641.856-2.497.552-2.794 1.014-5.606 1.526-8.408.713-3.9 1.462-7.795 2.153-11.699.751-4.252 1.619-8.473 3.029-12.563.49-1.419 1.048-2.815 1.594-4.215.06-.154.249-.258.378-.385.149.155.377.288.428.471.069.243.037.534-.021.789-.102.449-.235.895-.393 1.328-1.443 3.956-2.415 8.035-3.148 12.174-.531 2.992-1.036 5.991-1.57 8.983-.561 3.146-1.155 6.284-1.713 9.43-.323 1.818-.562 3.651-.921 5.461-.276 1.395-.682 2.765-1.028 4.146-1.001 4.001-1.838 8.031-2.205 12.146-.151 1.688-.317 3.373-.488 5.058-.199 1.951-.404 3.903-.62 5.852-.173 1.569-.319 3.143-.56 4.701-.532 3.428-.941 6.865-1.103 10.331-.069 1.461-.12 2.926-.238 4.384-.221 2.723-.476 5.444-.742 8.164-.048.482.037.716.513.978 1.204.665 2.028 1.639 1.948 3.148-.032.614-.008 1.233.01 1.85.018.637-.169 1.21-.471 1.763-.671 1.232-1.656 2.122-2.942 2.659-.529.219-.766.519-.786 1.114-.057 1.693-.182 3.384-.278 5.076-.091 1.575-.133 3.157-.281 4.727-.262 2.796-.62 5.585-.879 8.381-.337 3.642-.619 7.288-.923 10.931-.095 1.15-.187 2.303-.27 3.455-.2 2.801-.539 5.603-.566 8.407-.084 8.786-.102 17.574-.04 26.362.034 4.706-.214 9.394-.526 14.082-.087 1.306-.217 2.608-.343 3.911-.235 2.452-.648 4.901-.682 7.356-.045 3.242-.414 6.453-.626 9.677-.039.616-.075 1.233-.151 1.844-.076.604-.233.803-.794.734-.473-.058-.699.188-1.002.418-1.132.863-2.237 1.769-3.43 2.54-1.68 1.088-3.447 2.041-5.146 3.103-2.501 1.562-5.174 2.716-7.992 3.567-1.509.456-2.989 1.009-4.491 1.491-.473.151-.968.266-1.461.308-1.111.098-2.227.126-3.34.209-.371.028-.798.044-1.09.233-.406.263-.705.181-1.062-.016-.843-.462-1.689-.923-2.544-1.362-.339-.173-.699-.372-1.065-.413-1.572-.173-3.088.036-4.424.95-1.11.76-1.825 1.758-1.683 3.198.042.431.251.711.768.448 1.181-.597 2.454-.597 3.732-.457.481.052.953.146 1.31.769-.984.115-1.816.209-2.648.31-1.134.137-2.182.495-3.028 1.293-.245.229-.491.52-.593.829-.424 1.3.206 2.703 1.438 3.311.863.429.955.364 1.677-.309.841-.784 1.709-1.557 2.649-2.215.969-.678 2.109-.93 3.304-.797.478.054.953.145 1.28.736-.348.059-.565.121-.783.13-2.956.124-4.945 1.81-6.406 4.159-1.193 1.921-.037 4.114 2.18 4.401.768.099.91.029 1.246-.676.928-1.951 2.273-3.557 3.972-4.884 1.555-1.217 3.276-1.623 5.241-1.004zm19.162-341.545c-1.172-.134-2.091-.218-3.004-.345-2.175-.305-2.939-1.732-1.986-3.727.231-.483.542-.933.858-1.368 1.3-1.792 2.87-3.317 4.651-4.627.214-.158.425-.323.767-.585-.351-.074-.579-.137-.812-.169-.496-.069-.997-.102-1.491-.181-1.715-.277-2.432-1.159-2.553-2.889-.121-1.712.465-3.173 1.369-4.556 1.248-1.911 2.735-3.629 4.305-5.276.825-.865 1.689-1.691 2.521-2.549 2.226-2.299 4.793-4.122 7.732-5.377 4.462-1.906 8.911-3.87 13.623-5.09 2.419-.627 4.887-1.078 7.351-1.507 2.843-.495 5.696-.954 8.561-1.284 2.676-.31 5.369-.46 8.058-.627 2.461-.153 4.923-.284 7.387-.333 3.736-.075 7.476-.143 11.211-.063 1.485.031 2.983.377 4.434.739 3.403.846 6.83 1.558 10.279 2.188 3.188.582 6.315 1.396 9.222 2.885.361.185.577.02.823-.17 1.809-1.398 3.792-2.507 5.858-3.465.939-.435 1.924-.786 2.909-1.106.467-.152.984-.186 1.48-.194 1.098-.017 1.746.449 2.042 1.495.388 1.372.378 2.739-.232 4.064-.537 1.166-1.295 2.183-2.144 3.136-.177.2-.355.396-.628.699.318 0 .515.016.708-.003 1.186-.108 2.372-.288 3.56-.311.59-.012 1.225.173 1.773.42 1.068.481 1.517 1.439 1.218 2.579-.142.543-.405 1.089-.741 1.541-.764 1.031-1.731 1.855-2.873 2.46-.368.196-.731.4-1.137.623 1.125 1.241 2.172 2.454 3.282 3.605 1.601 1.657 2.824 3.549 3.76 5.645.581 1.3 1.212 2.579 1.812 3.872.636 1.37 1.062 2.789 1.24 4.306.274 2.367.834 4.703.749 7.109-.011.308.051.644-.05.919-.497 1.358-.022 2.655.191 3.969.043.265.128.526.148.792.313 4.186.421 8.378.451 12.577.029 4.141-.535 8.213-1.035 12.303-.521 4.257-1.596 8.393-2.536 12.559-.345 1.535-.864 3.036-1.951 4.256-.117.132-.183.341-.207.522-.216 1.751-.419 3.503-.642 5.386.314-.118.586-.198.836-.319 2.152-1.035 4.395-1.596 6.806-1.528 1.363.039 2.577.384 3.678 1.169 2.658 1.891 4.256 4.417 4.538 7.697.185 2.148.004 4.229-1.302 6.08-1.42 2.013-3.224 3.551-5.565 4.315-5.057 1.65-9.812 1.102-14.057-2.284-.8-.637-1.434-1.484-2.195-2.288-.101.086-.271.221-.428.37-1.116 1.06-2.201 2.152-3.348 3.175-1.264 1.128-2.601 2.172-3.871 3.293-1.018.899-2.118 1.66-3.31 2.304-1.288.695-2.548 1.442-3.833 2.14-1.352.736-2.718 1.449-4.087 2.154-.856.441-1.718.871-2.596 1.266-.699.314-1.407.644-2.143.837-2.309.603-4.621 1.203-6.956 1.691-1.691.353-3.42.529-5.133.774-.607.087-.624.149-.563.719.181 1.713 1.339 2.531 2.788 3.031.979.338 2.014.511 3.01.804 3.288.963 6.575 1.928 9.85 2.93 2.061.632 4.137 1.239 6.14 2.025 2.836 1.113 5.28 2.835 7.216 5.227.217.268.435.546.697.766 2.066 1.719 3.571 3.923 5.192 6.022.507.656.805 1.473 1.205 2.213.147.27.31.532.469.795 1.689 2.805 3.419 5.586 5.053 8.424 1.209 2.102 2.294 4.277 3.428 6.422 1.695 3.2 3.343 6.426 5.087 9.6 2.044 3.722 3.652 7.643 5.398 11.504 2.626 5.805 4.705 11.807 6.514 17.902 2.06 6.946 4.501 13.762 6.743 20.646.726 2.23 1.35 4.494 1.978 6.755.137.486.359.834.787 1.072.974.543 1.933 1.117 2.927 1.622.865.441 1.669.941 2.368 1.626 1.902 1.869 4.004 3.464 6.267 4.898 2.661 1.688 5.213 3.562 7.458 5.81 1.334 1.335 2.239 2.841 2.092 4.813-.012.153-.004.309-.026.461-.223 1.55-.96 2.197-2.503 2.017-.705-.082-1.426-.339-2.059-.669-.779-.407-1.479-.969-2.209-1.471-.279-.192-.546-.4-.958-.512.139.243.271.489.417.726 1.346 2.2 2.726 4.38 4.032 6.603.905 1.535 1.031 3.204.54 4.914-.43 1.503-1.684 2.634-3.573 2.72-2.56.118-4.288-.92-5.728-2.954-1.437-2.032-2.553-4.203-3.539-6.469-.383-.879-.879-1.71-1.349-2.549-.177-.316-.423-.593-.74-.825.427 1.188.847 2.378 1.283 3.562 1.225 3.336 1.864 6.833 2.849 10.234.457 1.577.697 3.155.605 4.786-.056.959-.121 1.924-.574 2.806-.69 1.346-1.717 2.186-3.304 2.055-.875-.073-1.752-.219-2.611-.408-.755-.167-1.264-.711-1.65-1.36-.45-.758-.89-1.522-1.353-2.315-1.096 1.741-2.516 2.314-4.701 1.914-.837-.154-1.651-.407-2.34-.936-.673-.514-1.362-1.016-1.978-1.594-.354-.332-.642-.776-.843-1.224-.298-.663-.57-1.357-.717-2.067-.658-3.167-1.366-6.317-2.255-9.431-.378-1.325-.512-2.72-.774-4.081-.517-2.685-1.692-5.02-3.704-6.907-.791-.741-1.093-.729-1.739.165-.585.812-1.196 1.616-1.683 2.488-.834 1.494-2.076 2.567-3.434 3.527-1.097.776-2.336 1.145-3.69 1.158-.81.008-.867.068-.819.866.131 2.191.289 4.38.434 6.569.095 1.422.158 2.846.288 4.264.153 1.686.373 3.366.544 5.051.223 2.182.445 4.364.633 6.55.311 3.605.606 7.211.883 10.819.133 1.728.232 3.458.305 5.19.466 11.017.095 22.04.24 33.06.028 2.268.221 4.534.351 6.8.08 1.423.156 2.846.282 4.265.202 2.299.483 4.591.659 6.893.153 1.996.197 4.001.303 6 .078 1.461.178 2.92.272 4.379.053.806.16 1.611.164 2.416.003.555.231.881.623 1.262 1.509 1.466 3.279 2.556 5.053 3.64 2.004 1.224 4.029 2.42 6.07 3.584 2.327 1.325 4.886 2.067 7.427 2.849.736.225 1.477.443 2.189.732 1.05.427 2.126.648 3.26.653 1.308.005 2.614.074 3.921.095.222.004.458-.063.669-.148.32-.13.656-.259.928-.465 1.163-.878 2.484-.946 3.855-.823 1.425.126 2.707.636 3.804 1.53 1.459 1.189 1.924 2.747 1.413 4.552-.111.392-.07.626.172.928 1.48 1.853.962 4.573-1.084 5.764-.231.134-.474.271-.73.342-.423.117-.527.319-.429.759.106.482.122.995.11 1.492-.044 1.978-1.413 3.394-3.403 3.553-1.19.093-1.209.093-1.2 1.316.011 1.758-.524 3.341-1.52 4.764-.879 1.258-2.054 2.101-3.633 2.169-.599.027-.854.239-1.053.789-.921 2.53-2.541 4.468-4.998 5.647-1.371.658-2.823 1.011-4.344 1.064-.693.024-1.388-.01-2.081.016-1.289.049-2.417-.395-3.461-1.1-1.128-.764-2.089-1.712-2.873-2.819-.409-.577-.843-.776-1.556-.596-2.036.51-4.122.555-6.203.474-1.835-.07-3.545-.54-5.098-1.618-2.761-1.914-5.236-4.181-7.851-6.273-1.591-1.274-3.218-2.535-4.966-3.572-1.375-.815-2.943-1.323-4.455-1.888-1.217-.455-2.424-.909-3.771-1.003-1.291-.091-2.328-.965-3.331-1.74-.279-.215-.42-.632-.577-.978-.662-1.467-.842-3.047-.9-4.619-.049-1.301.098-2.611.205-3.914.063-.766.21-1.525.326-2.286.283-1.858 1.065-3.53 1.957-5.158.462-.844.932-1.685 1.413-2.521.315-.545.467-1.109.469-1.753.008-1.663-.098-3.306-.387-4.945-.14-.793-.125-1.611-.214-2.415-.324-2.958-1.151-5.812-1.867-8.687-.82-3.297-1.347-6.632-1.502-10.033-.064-1.379-.278-2.754-.444-4.129-.263-2.178-.473-4.364-.832-6.527-.495-2.999-1.127-5.977-1.664-8.969-.475-2.651-.944-5.306-1.334-7.97-.476-3.248-1.256-6.419-2.118-9.579-1.602-5.874-2.844-11.83-3.964-17.812-1.617-8.628-3.125-17.277-5.218-25.809-.372-1.519-.351-1.52-1.905-1.52-5.241.001-10.481 0-15.721-.001-.193 0-.385-.006-.578-.001-.879.019-.888.018-1.069.856-1.044 4.815-2.131 9.623-3.111 14.452-.844 4.149-1.557 8.324-2.344 12.484-1.294 6.851-2.86 13.635-4.66 20.373-.753 2.817-1.125 5.737-1.658 8.611-.603 3.254-1.166 6.516-1.792 9.765-.649 3.366-1.149 6.751-1.533 10.158-.355 3.137-.634 6.279-.937 9.42-.188 1.943-.676 3.864-1.095 5.781-.518 2.369-1.13 4.717-1.645 7.087-.213.974-.288 1.978-.411 2.97-.085.687-.169 1.375-.216 2.065-.105 1.534-.18 3.07-.282 4.605-.041.616.228 1.119.514 1.624.494.871.978 1.748 1.482 2.614 1.27 2.17 1.812 4.548 2.161 7.012.312 2.199.296 4.379-.053 6.553-.14.865-.487 1.699-.774 2.535-.084.244-.24.509-.443.658-1.206.888-2.401 1.795-4.019 1.816-.486.007-.987.175-1.452.347-1.735.637-3.509 1.201-5.169 1.998-1.341.645-2.608 1.498-3.789 2.412-2.16 1.674-4.21 3.49-6.348 5.193-1.356 1.079-2.767 2.091-4.19 3.078-1.344.932-2.919 1.187-4.506 1.252-2.121.088-4.242.018-6.317-.493-.626-.155-1.01.023-1.372.524-.908 1.261-1.991 2.347-3.333 3.158-.912.55-1.881.898-2.955.845-1.343-.065-2.709-.029-4.021-.272-3.375-.625-5.791-2.56-7.213-5.702-.158-.35-.315-.705-.427-1.072-.096-.311-.278-.429-.587-.435-2.287-.046-3.659-1.382-4.622-3.292-.564-1.119-.897-2.292-.873-3.556.005-.269-.011-.539-.001-.808.015-.44-.187-.639-.627-.611-.834.053-1.597-.176-2.313-.593-1.013-.587-1.562-1.479-1.646-2.626-.045-.608-.021-1.239.092-1.837.087-.451-.023-.641-.433-.756-.219-.062-.431-.168-.633-.278-1.589-.864-2.435-2.948-1.902-4.674.046-.147.084-.305.167-.43.275-.413.721-.779.816-1.225.096-.446-.177-.961-.244-1.45-.201-1.497.496-2.629 1.581-3.526 1.744-1.444 3.812-1.784 5.985-1.473.58.083 1.124.478 1.665.768.716.385 1.391.656 2.28.541 1.214-.157 2.463-.009 3.693-.068.684-.032 1.379-.157 2.036-.352 1.365-.403 2.698-.913 4.06-1.324 2.965-.895 5.799-2.058 8.417-3.743 2.168-1.396 4.422-2.661 6.589-4.062.963-.622 1.792-1.45 2.701-2.16.285-.222.327-.491.341-.808.136-3.23.466-6.447.572-9.684.09-2.763.492-5.515.744-8.275.108-1.187.166-2.38.277-3.569.59-6.302.466-12.623.477-18.939.011-6.823-.033-13.645.067-20.466.045-3.074.381-6.145.59-9.217.163-2.38.318-4.763.506-7.142.166-2.109.398-4.215.556-6.326.288-3.877 1.021-7.706 1.122-11.605.064-2.461.313-4.917.472-7.377.046-.709.03-.751-.644-.75-2.996.004-5.028-1.688-6.747-3.872-.736-.935-1.338-1.976-2.003-2.969-.128-.192-.254-.389-.402-.564-.491-.582-.814-.637-1.352-.132-1.128 1.059-2.122 2.224-2.792 3.648-.662 1.408-1.108 2.881-1.314 4.413-.269 1.992-.814 3.914-1.321 5.851-.497 1.897-.878 3.824-1.306 5.738-.093.414-.16.833-.26 1.244-.712 2.914-2.706 4.589-5.449 5.417-.815.246-1.763.208-2.627.106-1.073-.127-1.86-.825-2.472-1.902-.426.749-.784 1.375-1.14 2.002-.387.681-.837 1.316-1.602 1.599-.502.185-1.031.345-1.561.4-.723.073-1.466.113-2.184.03-1.277-.147-2.48-1.42-2.77-2.934-.337-1.752-.425-3.532.014-5.276.781-3.099 1.595-6.19 2.469-9.263.464-1.628 1.085-3.209 1.633-4.812.094-.28.173-.565.078-.943-.402.667-.843 1.313-1.198 2.004-.491.959-.98 1.928-1.358 2.935-.799 2.13-2.171 3.896-3.512 5.681-1.042 1.389-2.461 2.052-4.209 1.982-.346-.014-.694-.006-1.04-.008-1.483-.007-2.475-.775-3.058-2.072-.641-1.426-.685-2.911-.191-4.394.144-.437.324-.875.561-1.267 1.296-2.141 2.615-4.266 3.925-6.398.152-.248.299-.5.319-.886-.448.331-.879.686-1.347.989-.774.5-1.538 1.036-2.369 1.422-.537.25-1.183.332-1.786.359-1.08.048-1.636-.367-1.935-1.428-.394-1.393-.251-2.761.467-4.023.321-.563.716-1.109 1.176-1.564.984-.975 1.968-1.972 3.071-2.802 1.814-1.364 3.685-2.661 5.599-3.88 1.899-1.21 3.601-2.642 5.201-4.207.726-.71 1.544-1.258 2.443-1.72.992-.509 1.955-1.075 2.931-1.616.386-.212.645-.498.775-.947.395-1.367.825-2.726 1.255-4.084.998-3.156 1.998-6.31 3.006-9.464 1.701-5.319 3.466-10.618 5.099-15.956 2.044-6.681 4.655-13.136 7.483-19.515 1.36-3.066 2.85-6.061 4.444-9.012 1.812-3.356 3.52-6.767 5.335-10.12 1.558-2.879 3.183-5.722 4.815-8.56.98-1.701 2.047-3.353 3.043-5.045.466-.791.756-1.7 1.296-2.428 1.65-2.223 3.251-4.498 5.404-6.293.146-.123.295-.258.401-.415 1.291-1.9 3.159-3.142 5.04-4.349.77-.496 1.614-.923 2.481-1.213 3.066-1.023 6.166-1.944 9.235-2.96 2.928-.969 5.886-1.813 8.888-2.517.626-.147 1.211-.475 1.813-.726 1.17-.486 1.587-1.484 1.798-2.63.066-.366.008-.602-.418-.637-3.39-.283-6.694-1.006-9.963-1.915-.593-.165-1.211-.247-1.794-.439-.909-.298-1.811-.629-2.694-.999-.78-.327-1.537-.713-2.291-1.099-1.302-.666-2.602-1.336-3.887-2.034-1.49-.809-2.946-1.678-4.444-2.469-1.518-.801-2.793-1.908-4.057-3.041-.803-.718-1.623-1.422-2.472-2.084-1.433-1.118-2.797-2.301-3.961-3.702-.092-.111-.226-.188-.337-.28-.552.651-1.008 1.334-1.602 1.862-3.031 2.691-6.57 3.903-10.633 3.572-1.942-.158-3.82-.529-5.527-1.498-2.461-1.397-4.487-3.275-5.106-6.117-1.092-5.008.945-9.561 5.392-11.895.592-.31 1.313-.445 1.988-.51 2.432-.233 4.753.242 6.967 1.26.382.176.764.352 1.237.569 0-.276.021-.482-.004-.683-.181-1.49-.363-2.981-.565-4.468-.04-.293-.092-.641-.271-.849-1.095-1.267-1.557-2.815-1.955-4.378-.456-1.789-.807-3.606-1.242-5.4-.782-3.226-1.187-6.511-1.601-9.794-.216-1.718-.39-3.443-.536-5.169-.087-1.034-.109-2.076-.114-3.114-.011-2.313-.003-4.626.024-6.938.01-.962.107-1.923.127-2.885.016-.733-.039-.75-.806-.697-1.19.082-2.382.23-3.57.199-.748-.019-1.534-.213-2.224-.509-1.296-.556-1.773-1.72-1.318-3.055.17-.498.464-.976.786-1.397 1.441-1.878 3.219-3.415 5.053-4.89.293-.235.58-.477 1.042-.858z" fill="none" stroke="#fff" stroke-width="7.71" transform="matrix(4.16667 0 0 4.16667 258.01109367 879.33122513)"/><g fill-rule="nonzero"><path d="m0-8.691c-.088-.039-.175-.076-.263-.115-.601 1.368-1.207 2.734-1.8 4.106-1.022 2.368-2.005 4.752-3.061 7.105-1.421 3.161-2.91 6.292-4.345 9.447-2.387 5.244-3.654 10.866-5.482 16.299-.155.457-.068.742.392.9.848.29 1.435.886 1.87 1.64 1.043 1.8 2.057 3.611 2.584 5.652.152.588.376 1.188.71 1.687.26.389.704.804 1.134.901.853.193 1.752.188 2.633.236.31.015.485-.184.503-.511.028-.537.055-1.076.105-1.611.263-2.797.656-5.588.774-8.389.178-4.275.615-8.515 1.169-12.755.636-4.883 1.129-9.785 1.624-14.685.294-2.911.65-5.81 1.216-8.683.08-.407.158-.816.237-1.224m85.774-.29c.023.426.007.617.047.794 1.193 5.197 1.434 10.515 2.031 15.787.276 2.447.555 4.893.844 7.338.33 2.788.73 5.57.992 8.365.237 2.529.322 5.07.489 7.605.047.729.154 1.454.219 2.182.164 1.838.321 3.678.475 5.518.032.368.204.573.583.561.614-.02 1.228-.053 1.842-.078 1.148-.046 1.83-.706 2.237-1.714.13-.32.241-.652.322-.987.507-2.087 1.556-3.927 2.621-5.759.395-.678.942-1.193 1.682-1.523.731-.325.715-.362.477-1.122-.505-1.617-1.082-3.215-1.504-4.852-1.277-4.941-3.133-9.664-5.253-14.291-2.196-4.794-4.597-9.496-6.442-14.45-.334-.898-.786-1.756-1.192-2.627-.09-.193-.227-.363-.47-.747m-95.651-112.441c.052-.006.104-.014.156-.021 0-.378.008-.756-.002-1.134-.049-1.964-.148-3.927-.145-5.891.005-3.929.072-7.858.099-11.787.021-3.01.387-5.995.81-8.964.462-3.235 1.112-6.443 1.644-9.669.347-2.106 1.104-4.084 1.768-6.093 1.043-3.151 2.227-6.24 3.889-9.124 1.406-2.443 2.911-4.813 4.988-6.765 2.343-2.203 5.007-3.967 7.721-5.66 2.761-1.724 5.72-3.017 8.849-3.901 2.296-.649 4.595-1.295 6.917-1.841 2.664-.627 5.385-.911 8.11-1.161 1.379-.126 2.749-.406 4.128-.463 1.996-.083 3.996.004 5.994-.035 3.059-.061 6.049.583 9.075.861 3.264.299 6.457 1.049 9.596 1.997 2.579.778 5.18 1.501 7.612 2.695 2.879 1.412 5.585 3.126 8.136 5.052 1.528 1.153 3 2.442 4.26 3.877 2.771 3.156 4.735 6.827 6.224 10.741.89 2.338 1.779 4.688 2.457 7.092.634 2.253 1.044 4.574 1.453 6.884.395 2.234.65 4.492.988 6.737.548 3.625.77 7.276.778 10.934.012 4.777-.094 9.553-.147 14.33-.005.422-.001.845-.001 1.267.83-2.608 1.538-5.207 2.053-7.844.552-2.831.946-5.694 1.36-8.55.22-1.522.447-3.057.474-4.591.073-4.083.064-8.169.037-12.254-.01-1.456-.162-2.914-.259-4.371-.011-.19-.081-.376-.111-.565-.305-1.895-.701-3.775-.593-5.721.049-.876-.057-1.767-.16-2.645-.133-1.106-.386-2.201-.493-3.309-.137-1.434-.445-2.811-1.053-4.117-.78-1.676-1.511-3.377-2.364-5.015-.601-1.156-1.311-2.266-2.077-3.321-.722-.994-1.547-1.92-2.391-2.819-.707-.754-1.504-1.426-2.265-2.13-.112-.103-.261-.168-.374-.27-.59-.524-.512-1.135.199-1.438.425-.179.877-.292 1.308-.459 1.436-.554 2.654-1.41 3.532-2.689.783-1.139.35-2.062-1.031-2.14-.84-.048-1.695-.003-2.532.093-1.5.175-2.929.635-4.331 1.195-.453.181-.959.315-1.443.319-.56.004-.787-.552-.443-.989.188-.236.446-.421.687-.609.637-.499 1.298-.967 1.919-1.483 1.259-1.042 2.308-2.266 3.065-3.723.476-.917.644-1.88.416-2.906-.237-1.075-.399-1.223-1.498-.997-.674.138-1.347.338-1.982.603-2.532 1.058-4.934 2.349-7.113 4.037-.867.671-1.163.652-2.074.108-.461-.274-.943-.528-1.446-.711-2.211-.8-4.46-1.466-6.768-1.935-3.395-.689-6.795-1.353-10.169-2.135-2.527-.584-5.052-.992-7.656-.916-4.697.138-9.397.186-14.092.343-2.616.088-5.229.275-7.837.499-3.608.309-7.179.894-10.739 1.558-3.065.572-6.174 1.003-9.104 2.098-4.001 1.496-7.971 3.08-11.909 4.73-2.033.852-3.87 2.101-5.449 3.649-1.951 1.913-3.876 3.861-5.697 5.898-1.017 1.14-1.856 2.455-2.657 3.764-.365.599-.557 1.363-.625 2.073-.174 1.782.375 2.379 2.169 2.498.999.066 2.001.06 3.002.103.341.014.701.027 1.017.139.476.168.577.678.209 1.015-.251.229-.572.385-.869.561-2.612 1.557-4.892 3.48-6.602 6.023-.235.348-.458.726-.58 1.122-.306.995-.034 1.443 1.005 1.611.91.148 1.835.208 2.752.304.69.07 1.388.09 2.067.214.67.121.814.706.329 1.186-.135.134-.305.232-.46.347-.681.503-1.407.957-2.037 1.519-1.434 1.281-2.84 2.596-4.217 3.939-.405.394-.74.899-.982 1.413-.385.818-.118 1.436.704 1.77.35.143.74.227 1.117.254 2.252.165 4.448-.127 6.586-.865 1.043-.36.71-.414 1.419.376.07.079.105.19.202.371-.493.197-.937.433-1.409.549-.633.155-.87.489-.865 1.14.036 5.005-.291 10.02.235 15.012.327 3.098.723 6.196 1.274 9.261.549 3.066 1.328 6.09 2.013 9.131.057.25.165.49.249.734m104.013-8.623c-.094-3.949-.176-8.031-.296-12.112-.036-1.152-.158-2.305-.29-3.451-.272-2.332-.58-4.659-.867-6.989-.164-1.334-.287-2.676-.479-4.005-.397-2.754-1.196-5.402-2.122-8.023-1.093-3.093-2.25-6.152-3.904-8.996-1.418-2.439-2.988-4.755-5.115-6.662-2.165-1.941-4.55-3.568-7.036-5.039-1.684-.997-3.419-1.984-5.251-2.643-2.93-1.052-5.923-1.98-8.954-2.687-5.221-1.215-10.534-1.762-15.904-1.903-4.066-.107-8.075.329-12.085.803-5.188.614-10.171 2.101-15.082 3.839-.722.256-1.406.623-2.097.963-2.391 1.179-4.622 2.622-6.801 4.147-1.995 1.395-3.877 2.943-5.385 4.866-2.369 3.021-4.205 6.359-5.561 9.951-.747 1.982-1.51 3.965-2.1 5.997-.577 1.991-1.056 4.026-1.375 6.072-.415 2.656-.573 5.35-.94 8.014-.433 3.133-.707 6.282-.761 9.433-.075 4.428.057 8.86.109 13.29.042 3.738.244 7.47.79 11.168.232 1.565.086 3.264 1.222 4.611.204.243.09.522-.174.691-.59.378-1.389.161-1.786-.424-.207-.306-.45-.649-.763-.809-2.358-1.204-4.812-2.047-7.524-1.896-.877.048-1.663.279-2.382.766-2.7 1.827-4.03 4.36-3.989 7.629.017 1.342.21 2.642 1.027 3.722.645.851 1.369 1.678 2.194 2.349 1.56 1.271 3.422 1.821 5.421 2.075 4.15.529 7.639-.887 10.779-3.447.237-.193.423-.447.636-.669.361-.375.452-.735.14-1.229-.237-.375-.353-.843-.446-1.285-.066-.322.105-.629.444-.722.361-.1.535.159.705.445.374.625.727 1.275 1.188 1.832 1.307 1.578 2.788 2.976 4.435 4.204.894.668 1.763 1.375 2.585 2.129 1.487 1.362 3.068 2.565 4.909 3.42.8.373 1.536.883 2.32 1.297 2.619 1.382 5.246 2.756 7.878 4.115.372.192.789.312 1.199.413 2.355.578 4.705 1.184 7.074 1.698 3.473.754 7.014.918 10.551 1.094.267.014.538-.031.807-.037.961-.021 1.933-.135 2.882-.034 2.092.222 4.151-.149 6.226-.208.767-.022 1.535-.113 2.298-.21 3.716-.47 7.31-1.505 10.934-2.399.297-.074.595-.173.87-.308 1.728-.846 3.474-1.663 5.17-2.569 2.243-1.197 4.455-2.449 6.658-3.717.697-.401 1.345-.899 1.973-1.407 1.584-1.285 3.158-2.584 4.71-3.909 1.876-1.601 3.745-3.211 4.882-5.481.092-.182.446-.381.617-.337.194.051.463.386.441.566-.056.48-.169.993-.414 1.401-.299.499-.244.873.133 1.23.529.502 1.046 1.028 1.636 1.451 3.928 2.817 8.197 3.625 12.793 1.949 3.947-1.44 5.913-4.534 5.556-8.68-.257-2.992-1.833-5.182-4.414-6.639-.512-.29-1.16-.412-1.76-.466-2.751-.253-5.241.651-7.64 1.858-.314.158-.61.487-.757.809-.271.586-.708.64-1.238.583-.833-.091-.988-.422-.566-1.138.23-.392.52-.798.585-1.228.346-2.322.749-4.644.91-6.981.276-3.995.386-8.001.571-12.141m-129.193 305.102c-.496.177-.985.377-1.489.529-2.48.754-4.222 2.416-5.72 4.458-1.95 2.659-1.138 6.23.481 8.285.541.686 1.278 1.11 2.116 1.337.537.148.729.014.75-.528.027-.692.008-1.387.022-2.081.021-1.095.273-2.145.753-3.121 2.302-4.68 7.129-5.522 11.331-3.802.651.266 1.182.846 1.736 1.32.135.117.258.466.187.569-.206.297-.481.117-.686-.066-1.543-1.375-3.388-1.639-5.377-1.663-2.916-.037-5.952 2.341-6.503 5.392-.168.94-.248 1.916-.215 2.869.108 3.016 1.427 5.403 3.973 7.042 2.061 1.326 4.393 1.651 6.769 1.451 2.627-.219 4.313-2.011 5.911-3.875.192-.224.381-.476.627-.621.284-.169.581-.206.971-.09 2.363.704 4.803.63 7.224.488 1.063-.061 2.142-.36 3.046-1.001 1.349-.959 2.706-1.913 3.996-2.949 1.591-1.278 3.096-2.664 4.673-3.961 2.569-2.109 5.255-4.032 8.46-5.098.877-.29 1.714-.706 2.598-.963 1.069-.31 2.159-.629 3.26-.73 1.137-.104 1.79-.678 2.109-1.657.295-.908.532-1.853.646-2.8.281-2.313.035-4.608-.353-6.898-.246-1.462-.712-2.833-1.411-4.134-.401-.746-.793-1.498-1.195-2.245-.217-.403-.401-.812-.961-.902-.176-.028-.37-.366-.43-.596-.075-.289-.021-.612-.022-.92-.005-2.235.214-4.452.429-6.678.266-2.769.685-5.492 1.349-8.192.588-2.39 1.124-4.798 1.555-7.222.275-1.548.3-3.138.47-4.707.256-2.372.567-4.738.808-7.111.334-3.298.893-6.557 1.52-9.809.619-3.213 1.193-6.433 1.798-9.647.484-2.571.834-5.18 1.507-7.701 1.909-7.148 3.574-14.346 4.973-21.611 1.106-5.745 2.252-11.484 3.456-17.209.609-2.9 1.388-5.765 2.087-8.646.087-.357.28-.679.014-1.089-.489-.755-.308-1.076.567-1.162.152-.015.308-.006.462-.006 6.434 0 12.869-.002 19.304 0 .269 0 .546-.002.805.055.514.114.753.563.416.933-.355.39-.304.714-.203 1.146 1.003 4.273 2.046 8.536 2.961 12.829 1.034 4.856 1.949 9.737 2.915 14.608 1.117 5.627 2.316 11.234 3.811 16.777.711 2.637 1.329 5.303 1.871 7.98.458 2.261.69 4.568 1.119 6.836.915 4.84 2.047 9.641 2.586 14.548.264 2.41.559 4.817.806 7.228.141 1.379.103 2.782.339 4.141.469 2.69 1.05 5.361 1.624 8.031.533 2.484 1.262 4.927 1.387 7.484.035.693.052 1.394.186 2.071.437 2.211.328 4.451.404 6.68.017.495-.073.891-.66 1.059-.248.071-.491.349-.625.594-.646 1.184-1.273 2.379-1.868 3.588-.237.48-.429.994-.552 1.515-.559 2.37-.889 4.77-.783 7.213.061 1.389.194 2.771.776 4.059.343.754.768 1.404 1.723 1.514 3.422.393 6.494 1.857 9.599 3.203.21.091.406.223.593.36 1.584 1.159 3.207 2.274 4.739 3.501 2.612 2.093 5.062 4.387 7.817 6.314 1.185.828 2.474 1.329 3.857 1.394 2.379.113 4.777.196 7.106-.525.517-.16 1.117.056 1.394.513.884 1.462 2.214 2.45 3.626 3.31.635.387 1.417.661 2.154.726 1.101.099 2.237.071 3.331-.084 3.301-.467 5.697-2.201 7.022-5.311.783-1.836.818-3.743.462-5.673-.447-2.42-1.859-4.083-4.063-5.119-1.088-.511-2.24-.494-3.398-.482-1.509.013-2.89.4-4.09 1.346-.182.144-.355.315-.562.399-.146.06-.343-.007-.516-.017.035-.171.013-.394.115-.506.849-.928 1.843-1.665 3.105-1.882.982-.169 1.985-.224 2.98-.298 3.076-.23 6.63 2.321 7.548 5.86.325 1.253.274 2.52.302 3.788.015.719.148.803.841.613.885-.242 1.621-.726 2.157-1.466 1.521-2.098 2.336-5.568.154-8.392-1.498-1.94-3.22-3.515-5.633-4.207-.485-.139-.949-.356-1.625-.613 2.038-.486 3.685-.186 5.178.889 1.849 1.331 3.28 3.017 4.257 5.085.346.732.476.795 1.233.703 2.219-.269 3.329-2.417 2.242-4.387-.258-.469-.589-.91-.951-1.305-1.503-1.634-3.222-2.868-5.573-2.877-.207 0-.414-.103-.693-.176.382-.545.855-.639 1.356-.69 1.377-.14 2.614.278 3.684 1.086.855.645 1.627 1.408 2.385 2.169.324.324.617.41 1.022.269 1.062-.374 1.761-1.036 1.949-2.207.197-1.236-.245-2.136-1.342-2.656-.687-.327-1.431-.556-2.173-.732-.594-.143-1.224-.131-1.835-.21-.286-.037-.566-.125-.916-.205.286-.514.694-.632 1.105-.679 1.154-.134 2.302-.16 3.427.239 1.181.42 1.327.316 1.209-.911-.039-.405-.196-.823-.391-1.185-.604-1.126-1.65-1.741-2.811-2.073-1.508-.43-3.022-.521-4.44.436-.667.449-1.413.785-2.14 1.135-.221.106-.614.214-.738.105-.537-.473-1.159-.354-1.76-.351-1.98.009-3.92-.171-5.749-1.027-.413-.194-.876-.288-1.317-.421-2.399-.721-4.813-1.424-7.038-2.587-1.944-1.016-3.827-2.154-5.71-3.283-2.047-1.226-4.13-2.407-5.864-4.09-.144-.14-.399-.208-.61-.23-.844-.088-.879-.098-.961-.921-.07-.689-.102-1.383-.158-2.075-.256-3.106-.652-6.205-.575-9.332.004-.154-.046-.306-.06-.459-.278-3.067-.566-6.131-.828-9.199-.116-1.343-.19-2.689-.271-4.035-.138-2.304-.365-4.61-.38-6.915-.046-7.672-.067-15.342.004-23.012.059-6.17-.243-12.319-.755-18.463-.108-1.305-.213-2.608-.325-3.913-.188-2.185-.37-4.373-.576-6.557-.184-1.954-.4-3.905-.6-5.858-.175-1.722-.384-3.443-.514-5.17-.138-1.842-.192-3.692-.295-5.538-.065-1.191-.171-2.381-.22-3.573-.022-.482-.162-.814-.644-.964-.183-.058-.36-.143-.526-.237-1.936-1.115-3.203-2.634-3.029-5.025.026-.344.036-.695.017-1.039-.092-1.556.761-2.539 2.017-3.221.376-.204.498-.378.462-.783-.162-1.801-.299-3.605-.442-5.408-.138-1.764-.286-3.529-.408-5.294-.095-1.383-.096-2.776-.249-4.152-.431-3.864-.937-7.717-1.378-11.579-.387-3.403-.763-6.808-1.079-10.218-.384-4.147-.969-8.257-1.98-12.301-.514-2.054-1.062-4.103-1.47-6.178-.507-2.567-.87-5.161-1.324-7.737-.883-5.003-1.768-10.007-2.688-15.004-.706-3.824-1.458-7.641-2.729-11.331-.326-.947-.668-1.89-.934-2.854-.108-.386-.055-.825-.025-1.237.007-.098.209-.246.329-.254.115-.009.305.108.351.218.213.493.37 1.012.578 1.509 1.452 3.459 2.469 7.05 3.195 10.722.605 3.058 1.132 6.131 1.694 9.197.819 4.468 1.622 8.938 2.467 13.401.257 1.357.511 2.735.98 4.026.525 1.442 1.315 2.783 1.951 4.186 1.16 2.56 2.3 5.129 3.432 7.702.526 1.197.99 2.424 1.527 3.617 1.917 4.249 3.927 8.456 5.757 12.741 1.513 3.543 2.74 7.195 3.486 10.998.311 1.584.793 3.135 1.179 4.704.101.409.264.56.722.498.404-.055.834.056 1.248.121.083.014.214.168.201.234-.023.13-.112.322-.212.351-.291.081-.606.079-.906.138-1.133.23-2.343.419-3.011 1.477-1.173 1.86-2.158 3.821-2.707 5.976-.133.518-.304 1.04-.547 1.515-.581 1.137-1.48 1.86-2.809 1.922-1.34.064-2.679.112-4.017.184-.176.01-.374.089-.517.196-.547.405-.934.913-.935 1.64-.001.462-.003.926-.038 1.385-.132 1.668.772 2.756 2.025 3.645.154.11.339.192.52.236.517.126 1.046.201 1.557.345.687.195 1.363.19 2.052.028 2.072-.489 3.521-1.83 4.714-3.491.809-1.125 1.512-2.326 2.332-3.443.901-1.224 2.172-1.322 3.276-.318 2.08 1.893 3.497 4.196 4.138 6.939.341 1.46.492 2.966.871 4.414.847 3.242 1.718 6.476 2.298 9.776.341 1.937 1.43 3.273 3.03 4.286 1.021.646 2.143.851 3.324.71 1.028-.123 1.372-.559 1.418-1.597.12-2.761-.248-5.431-1.129-8.073-.888-2.661-1.577-5.393-2.297-8.11-.404-1.525-.658-3.093-1.516-4.463-.079-.126-.126-.285-.146-.434-.047-.371.036-.749.423-.837.192-.045.53.133.659.313.356.497.7 1.022.932 1.584.293.708.527 1.451.686 2.2.713 3.358 1.703 6.639 2.747 9.903.518 1.62.916 3.259 1.012 4.967.024.414.107.859.289 1.227.717 1.448 1.45 2.89 2.243 4.298.659 1.171 3.341 1.758 4.464 1.032.16-.104.338-.23.42-.39.292-.575.727-1.155.785-1.763.167-1.76.253-3.531-.318-5.267-.373-1.133-.667-2.295-.926-3.459-1.063-4.794-2.576-9.435-4.662-13.883-.34-.724-.581-1.511-1.234-2.062-.188-.158-.029-.52.212-.485.285.044.617.13.814.318.301.286.527.662.743 1.024.367.618.594 1.342 1.459 1.495.193.032.349.288.513.45.99.985 1.836 2.086 2.465 3.333.676 1.34 1.303 2.705 1.946 4.063.881 1.863 2.134 3.474 3.46 5.028.633.743 1.465 1.099 2.463 1.041.46-.027.924-.001 1.387-.002.869-.001 1.477-.427 1.785-1.215.181-.458.281-.956.349-1.445.186-1.332-.284-2.502-.97-3.605-1.809-2.909-3.577-5.845-5.451-8.713-.918-1.405-1.753-2.918-3.229-3.876-.127-.082-.237-.203-.328-.324-.228-.306-.547-.626-.197-1.016.33-.367.696-.202 1.03.038.094.067.171.16.269.219 1.162.693 1.895 1.782 2.676 2.836.22.297.516.546.812.773.42.324.917.56 1.303.916 1.198 1.104 2.492 2.072 3.934 2.821.528.276 1.151.429 1.749.504.598.073.875-.177.952-.763.145-1.126.134-2.246-.602-3.208-.35-.458-.724-.901-1.126-1.313-2.139-2.193-4.629-3.963-7.191-5.592-2.359-1.499-4.515-3.205-6.548-5.104-.47-.44-1.027-.804-1.587-1.129-1.131-.658-2.282-1.283-3.443-1.888-.767-.401-1.32-.907-1.307-1.855.003-.223-.102-.449-.171-.669-.845-2.679-1.691-5.359-2.539-8.036-2.014-6.351-4.372-12.587-6.243-18.987-1.926-6.589-4.377-12.995-7.215-19.247-1.163-2.56-2.29-5.137-3.552-7.648-2.057-4.096-4.201-8.149-6.33-12.21-1.393-2.661-2.721-5.365-4.263-7.938-1.537-2.564-2.726-5.318-4.589-7.715-1.889-2.43-3.601-4.992-5.926-7.054-.314-.279-.56-.634-.849-.941-.582-.614-1.11-1.298-1.768-1.814-1.698-1.33-3.44-2.605-5.564-3.224-1.181-.344-2.331-.795-3.508-1.153-4.419-1.344-8.85-2.647-13.261-4.017-.908-.283-1.757-.769-2.618-1.191-1.193-.583-1.887-1.544-2.073-2.866-.021-.151-.098-.293-.125-.445-.089-.501-.361-.709-.887-.672-1.074.079-2.153.163-3.229.159-2.464-.009-4.927-.08-7.391-.106-.681-.007-1.364.055-2.046.085-.196.58-.416 1.153-.581 1.74-.173.617-.466 1.14-.989 1.517-1.26.91-2.604 1.636-4.145 1.964-.714.152-1.42.353-2.119.568-4.122 1.264-8.252 2.508-12.358 3.821-2.09.668-4.138 1.448-5.91 2.826-1.159.9-2.354 1.74-3.194 2.978-.15.221-.328.442-.539.6-1.377 1.029-2.387 2.398-3.445 3.718-1.801 2.245-3.58 4.505-4.955 7.053-.769 1.424-1.588 2.819-2.375 4.233-.824 1.481-1.663 2.954-2.446 4.458-1.227 2.357-2.42 4.732-3.615 7.107-2.582 5.123-5.391 10.125-7.693 15.399-3.243 7.426-6.018 15.004-8.391 22.751-1.737 5.667-3.741 11.254-5.594 16.888-.842 2.558-1.605 5.142-2.4 7.716-.067.22-.139.448-.147.674-.026.605-.328.99-.849 1.272-1.217.659-2.435 1.321-3.624 2.031-.688.412-1.352.878-1.97 1.388-.979.809-1.854 1.755-2.875 2.501-2.331 1.702-4.77 3.257-7.075 4.991-1.501 1.129-2.885 2.427-4.247 3.726-.974.927-1.303 2.148-1.162 3.495.104.992.457 1.316 1.442 1.1.553-.122 1.102-.351 1.6-.628 1.385-.77 2.642-1.727 3.8-2.811.251-.235.507-.536.813-.626.613-.179.955-.599 1.281-1.088.277-.416.541-.86.9-1.199.695-.657 1.443-1.259 2.188-1.861.226-.182.502-.168.729.065.227.231.231.503.056.735-.228.304-.506.57-.769.847-.527.554-1.141 1.046-1.573 1.665-2.297 3.28-4.518 6.611-6.499 10.096-.418.734-.85 1.474-1.149 2.259-.408 1.076-.375 2.2.051 3.276.358.902.998 1.445 2.038 1.386.384-.022.772-.025 1.155.001 1.088.07 1.978-.339 2.643-1.166 1.327-1.65 2.637-3.305 3.51-5.271.689-1.545 1.414-3.09 2.288-4.534.786-1.297 1.608-2.634 3.143-3.262.208-.085.328-.405.47-.628.289-.454.55-.928.853-1.373.223-.327.529-.569.96-.535.102.007.233.083.281.167.042.073.021.22-.028.303-.35.591-.768 1.149-1.067 1.765-1.487 3.056-2.673 6.232-3.591 9.501-.852 3.039-1.721 6.081-2.366 9.167-.3 1.439-.327 3.031-.05 4.47.354 1.832 1.252 2.513 3.271 2.176.303-.05.597-.16.9-.207.709-.111 1.176-.525 1.509-1.134.424-.777.928-1.52 1.27-2.332.442-1.052 1.179-1.987 1.222-3.209.054-1.547.419-3.04.887-4.517 1.083-3.414 2.137-6.837 2.867-10.35.125-.602.274-1.213.526-1.769.315-.694.728-1.349 1.145-1.991.097-.151.449-.306.563-.241.202.113.397.378.435.605.038.239-.055.543-.188.759-.676 1.105-.956 2.345-1.288 3.572-.801 2.973-1.519 5.975-2.472 8.899-.862 2.647-1.245 5.312-1.131 8.073.043 1.041.396 1.484 1.412 1.607 1.055.127 2.09.004 3.021-.539 1.688-.987 3.027-2.256 3.305-4.328.036-.267.107-.53.169-.792.584-2.471 1.177-4.941 1.751-7.415.288-1.236.55-2.479.81-3.72.173-.83.28-1.674.489-2.493.698-2.725 2.112-5.027 4.204-6.905.981-.881 2.17-.793 3.057.183.129.141.244.299.352.459.543.794 1.146 1.558 1.611 2.395.689 1.243 1.633 2.23 2.738 3.087 1.522 1.182 3.179 1.695 5.074 1.013.216-.077.451-.231.654-.199.581.093.95-.252 1.334-.561 1.492-1.2 2.116-3.579 1.422-5.357-.237-.607-.936-1.153-1.428-1.173-1.34-.053-2.679-.135-4.019-.195-1.052-.048-1.844-.571-2.388-1.418-.348-.541-.658-1.151-.801-1.772-.437-1.905-1.379-3.583-2.204-5.323-.557-1.175-1.474-1.837-2.674-2.178-.331-.092-.675-.144-1.015-.199-.228-.036-.474 0-.684-.075-.145-.053-.279-.225-.341-.375-.023-.057.158-.271.272-.296.333-.074.681-.117 1.024-.123.763-.011.765.002.924-.652.519-2.132 1.015-4.272 1.559-6.397 1.218-4.754 2.989-9.308 5.054-13.754 1.655-3.564 3.448-7.074 4.882-10.725 1.638-4.168 3.647-8.155 5.491-12.222.363-.799.687-1.641.856-2.497.552-2.794 1.014-5.606 1.526-8.408.713-3.9 1.462-7.795 2.153-11.699.751-4.252 1.619-8.473 3.029-12.563.49-1.419 1.048-2.815 1.594-4.215.06-.154.249-.258.378-.385.149.155.377.288.428.471.069.243.037.534-.021.789-.102.449-.235.895-.393 1.328-1.443 3.956-2.415 8.035-3.148 12.174-.531 2.992-1.036 5.991-1.57 8.983-.561 3.146-1.155 6.284-1.713 9.43-.323 1.818-.562 3.651-.921 5.461-.276 1.395-.682 2.765-1.028 4.146-1.001 4.001-1.838 8.031-2.205 12.146-.151 1.688-.317 3.373-.488 5.058-.199 1.951-.404 3.903-.62 5.852-.173 1.569-.319 3.143-.56 4.701-.532 3.428-.941 6.865-1.103 10.331-.069 1.461-.12 2.926-.238 4.384-.221 2.723-.476 5.444-.742 8.164-.048.482.037.716.513.978 1.204.665 2.028 1.639 1.948 3.148-.032.614-.008 1.233.01 1.85.018.637-.169 1.21-.471 1.763-.671 1.232-1.656 2.122-2.942 2.659-.529.219-.766.519-.786 1.114-.057 1.693-.182 3.384-.278 5.076-.091 1.575-.133 3.157-.281 4.727-.262 2.796-.62 5.585-.879 8.381-.337 3.642-.619 7.288-.923 10.931-.095 1.15-.187 2.303-.27 3.455-.2 2.801-.539 5.603-.566 8.407-.084 8.786-.102 17.574-.04 26.362.034 4.706-.214 9.394-.526 14.082-.087 1.306-.217 2.608-.343 3.911-.235 2.452-.648 4.901-.682 7.356-.045 3.242-.414 6.453-.626 9.677-.039.616-.075 1.233-.151 1.844-.076.604-.233.803-.794.734-.473-.058-.699.188-1.002.418-1.132.863-2.237 1.769-3.43 2.54-1.68 1.088-3.447 2.041-5.146 3.103-2.501 1.562-5.174 2.716-7.992 3.567-1.509.456-2.989 1.009-4.491 1.491-.473.151-.968.266-1.461.308-1.111.098-2.227.126-3.34.209-.371.028-.798.044-1.09.233-.406.263-.705.181-1.062-.016-.843-.462-1.689-.923-2.544-1.362-.339-.173-.699-.372-1.065-.413-1.572-.173-3.088.036-4.424.95-1.11.76-1.825 1.758-1.683 3.198.042.431.251.711.768.448 1.181-.597 2.454-.597 3.732-.457.481.052.953.146 1.31.769-.984.115-1.816.209-2.648.31-1.134.137-2.182.495-3.028 1.293-.245.229-.491.52-.593.829-.424 1.3.206 2.703 1.438 3.311.863.429.955.364 1.677-.309.841-.784 1.709-1.557 2.649-2.215.969-.678 2.109-.93 3.304-.797.478.054.953.145 1.28.736-.348.059-.565.121-.783.13-2.956.124-4.945 1.81-6.406 4.159-1.193 1.921-.037 4.114 2.18 4.401.768.099.91.029 1.246-.676.928-1.951 2.273-3.557 3.972-4.884 1.555-1.217 3.276-1.623 5.241-1.004m19.162-341.545c-1.172-.134-2.091-.218-3.004-.345-2.175-.305-2.939-1.732-1.986-3.727.231-.483.542-.933.858-1.368 1.3-1.792 2.87-3.317 4.651-4.627.214-.158.425-.323.767-.585-.351-.074-.579-.137-.812-.169-.496-.069-.997-.102-1.491-.181-1.715-.277-2.432-1.159-2.553-2.889-.121-1.712.465-3.173 1.369-4.556 1.248-1.911 2.735-3.629 4.305-5.276.825-.865 1.689-1.691 2.521-2.549 2.226-2.299 4.793-4.122 7.732-5.377 4.462-1.906 8.911-3.87 13.623-5.09 2.419-.627 4.887-1.078 7.351-1.507 2.843-.495 5.696-.954 8.561-1.284 2.676-.31 5.369-.46 8.058-.627 2.461-.153 4.923-.284 7.387-.333 3.736-.075 7.476-.143 11.211-.063 1.485.031 2.983.377 4.434.739 3.403.846 6.83 1.558 10.279 2.188 3.188.582 6.315 1.396 9.222 2.885.361.185.577.02.823-.17 1.809-1.398 3.792-2.507 5.858-3.465.939-.435 1.924-.786 2.909-1.106.467-.152.984-.186 1.48-.194 1.098-.017 1.746.449 2.042 1.495.388 1.372.378 2.739-.232 4.064-.537 1.166-1.295 2.183-2.144 3.136-.177.2-.355.396-.628.699.318 0 .515.016.708-.003 1.186-.108 2.372-.288 3.56-.311.59-.012 1.225.173 1.773.42 1.068.481 1.517 1.439 1.218 2.579-.142.543-.405 1.089-.741 1.541-.764 1.031-1.731 1.855-2.873 2.46-.368.196-.731.4-1.137.623 1.125 1.241 2.172 2.454 3.282 3.605 1.601 1.657 2.824 3.549 3.76 5.645.581 1.3 1.212 2.579 1.812 3.872.636 1.37 1.062 2.789 1.24 4.306.274 2.367.834 4.703.749 7.109-.011.308.051.644-.05.919-.497 1.358-.022 2.655.191 3.969.043.265.128.526.148.792.313 4.186.421 8.378.451 12.577.029 4.141-.535 8.213-1.035 12.303-.521 4.257-1.596 8.393-2.536 12.559-.345 1.535-.864 3.036-1.951 4.256-.117.132-.183.341-.207.522-.216 1.751-.419 3.503-.642 5.386.314-.118.586-.198.836-.319 2.152-1.035 4.395-1.596 6.806-1.528 1.363.039 2.577.384 3.678 1.169 2.658 1.891 4.256 4.417 4.538 7.697.185 2.148.004 4.229-1.302 6.08-1.42 2.013-3.224 3.551-5.565 4.315-5.057 1.65-9.812 1.102-14.057-2.284-.8-.637-1.434-1.484-2.195-2.288-.101.086-.271.221-.428.37-1.116 1.06-2.201 2.152-3.348 3.175-1.264 1.128-2.601 2.172-3.871 3.293-1.018.899-2.118 1.66-3.31 2.304-1.288.695-2.548 1.442-3.833 2.14-1.352.736-2.718 1.449-4.087 2.154-.856.441-1.718.871-2.596 1.266-.699.314-1.407.644-2.143.837-2.309.603-4.621 1.203-6.956 1.691-1.691.353-3.42.529-5.133.774-.607.087-.624.149-.563.719.181 1.713 1.339 2.531 2.788 3.031.979.338 2.014.511 3.01.804 3.288.963 6.575 1.928 9.85 2.93 2.061.632 4.137 1.239 6.14 2.025 2.836 1.113 5.28 2.835 7.216 5.227.217.268.435.546.697.766 2.066 1.719 3.571 3.923 5.192 6.022.507.656.805 1.473 1.205 2.213.147.27.31.532.469.795 1.689 2.805 3.419 5.586 5.053 8.424 1.209 2.102 2.294 4.277 3.428 6.422 1.695 3.2 3.343 6.426 5.087 9.6 2.044 3.722 3.652 7.643 5.398 11.504 2.626 5.805 4.705 11.807 6.514 17.902 2.06 6.946 4.501 13.762 6.743 20.646.726 2.23 1.35 4.494 1.978 6.755.137.486.359.834.787 1.072.974.543 1.933 1.117 2.927 1.622.865.441 1.669.941 2.368 1.626 1.902 1.869 4.004 3.464 6.267 4.898 2.661 1.688 5.213 3.562 7.458 5.81 1.334 1.335 2.239 2.841 2.092 4.813-.012.153-.004.309-.026.461-.223 1.55-.96 2.197-2.503 2.017-.705-.082-1.426-.339-2.059-.669-.779-.407-1.479-.969-2.209-1.471-.279-.192-.546-.4-.958-.512.139.243.271.489.417.726 1.346 2.2 2.726 4.38 4.032 6.603.905 1.535 1.031 3.204.54 4.914-.43 1.503-1.684 2.634-3.573 2.72-2.56.118-4.288-.92-5.728-2.954-1.437-2.032-2.553-4.203-3.539-6.469-.383-.879-.879-1.71-1.349-2.549-.177-.316-.423-.593-.74-.825.427 1.188.847 2.378 1.283 3.562 1.225 3.336 1.864 6.833 2.849 10.234.457 1.577.697 3.155.605 4.786-.056.959-.121 1.924-.574 2.806-.69 1.346-1.717 2.186-3.304 2.055-.875-.073-1.752-.219-2.611-.408-.755-.167-1.264-.711-1.65-1.36-.45-.758-.89-1.522-1.353-2.315-1.096 1.741-2.516 2.314-4.701 1.914-.837-.154-1.651-.407-2.34-.936-.673-.514-1.362-1.016-1.978-1.594-.354-.332-.642-.776-.843-1.224-.298-.663-.57-1.357-.717-2.067-.658-3.167-1.366-6.317-2.255-9.431-.378-1.325-.512-2.72-.774-4.081-.517-2.685-1.692-5.02-3.704-6.907-.791-.741-1.093-.729-1.739.165-.585.812-1.196 1.616-1.683 2.488-.834 1.494-2.076 2.567-3.434 3.527-1.097.776-2.336 1.145-3.69 1.158-.81.008-.867.068-.819.866.131 2.191.289 4.38.434 6.569.095 1.422.158 2.846.288 4.264.153 1.686.373 3.366.544 5.051.223 2.182.445 4.364.633 6.55.311 3.605.606 7.211.883 10.819.133 1.728.232 3.458.305 5.19.466 11.017.095 22.04.24 33.06.028 2.268.221 4.534.351 6.8.08 1.423.156 2.846.282 4.265.202 2.299.483 4.591.659 6.893.153 1.996.197 4.001.303 6 .078 1.461.178 2.92.272 4.379.053.806.16 1.611.164 2.416.003.555.231.881.623 1.262 1.509 1.466 3.279 2.556 5.053 3.64 2.004 1.224 4.029 2.42 6.07 3.584 2.327 1.325 4.886 2.067 7.427 2.849.736.225 1.477.443 2.189.732 1.05.427 2.126.648 3.26.653 1.308.005 2.614.074 3.921.095.222.004.458-.063.669-.148.32-.13.656-.259.928-.465 1.163-.878 2.484-.946 3.855-.823 1.425.126 2.707.636 3.804 1.53 1.459 1.189 1.924 2.747 1.413 4.552-.111.392-.07.626.172.928 1.48 1.853.962 4.573-1.084 5.764-.231.134-.474.271-.73.342-.423.117-.527.319-.429.759.106.482.122.995.11 1.492-.044 1.978-1.413 3.394-3.403 3.553-1.19.093-1.209.093-1.2 1.316.011 1.758-.524 3.341-1.52 4.764-.879 1.258-2.054 2.101-3.633 2.169-.599.027-.854.239-1.053.789-.921 2.53-2.541 4.468-4.998 5.647-1.371.658-2.823 1.011-4.344 1.064-.693.024-1.388-.01-2.081.016-1.289.049-2.417-.395-3.461-1.1-1.128-.764-2.089-1.712-2.873-2.819-.409-.577-.843-.776-1.556-.596-2.036.51-4.122.555-6.203.474-1.835-.07-3.545-.54-5.098-1.618-2.761-1.914-5.236-4.181-7.851-6.273-1.591-1.274-3.218-2.535-4.966-3.572-1.375-.815-2.943-1.323-4.455-1.888-1.217-.455-2.424-.909-3.771-1.003-1.291-.091-2.328-.965-3.331-1.74-.279-.215-.42-.632-.577-.978-.662-1.467-.842-3.047-.9-4.619-.049-1.301.098-2.611.205-3.914.063-.766.21-1.525.326-2.286.283-1.858 1.065-3.53 1.957-5.158.462-.844.932-1.685 1.413-2.521.315-.545.467-1.109.469-1.753.008-1.663-.098-3.306-.387-4.945-.14-.793-.125-1.611-.214-2.415-.324-2.958-1.151-5.812-1.867-8.687-.82-3.297-1.347-6.632-1.502-10.033-.064-1.379-.278-2.754-.444-4.129-.263-2.178-.473-4.364-.832-6.527-.495-2.999-1.127-5.977-1.664-8.969-.475-2.651-.944-5.306-1.334-7.97-.476-3.248-1.256-6.419-2.118-9.579-1.602-5.874-2.844-11.83-3.964-17.812-1.617-8.628-3.125-17.277-5.218-25.809-.372-1.519-.351-1.52-1.905-1.52-5.241.001-10.481 0-15.721-.001-.193 0-.385-.006-.578-.001-.879.019-.888.018-1.069.856-1.044 4.815-2.131 9.623-3.111 14.452-.844 4.149-1.557 8.324-2.344 12.484-1.294 6.851-2.86 13.635-4.66 20.373-.753 2.817-1.125 5.737-1.658 8.611-.603 3.254-1.166 6.516-1.792 9.765-.649 3.366-1.149 6.751-1.533 10.158-.355 3.137-.634 6.279-.937 9.42-.188 1.943-.676 3.864-1.095 5.781-.518 2.369-1.13 4.717-1.645 7.087-.213.974-.288 1.978-.411 2.97-.085.687-.169 1.375-.216 2.065-.105 1.534-.18 3.07-.282 4.605-.041.616.228 1.119.514 1.624.494.871.978 1.748 1.482 2.614 1.27 2.17 1.812 4.548 2.161 7.012.312 2.199.296 4.379-.053 6.553-.14.865-.487 1.699-.774 2.535-.084.244-.24.509-.443.658-1.206.888-2.401 1.795-4.019 1.816-.486.007-.987.175-1.452.347-1.735.637-3.509 1.201-5.169 1.998-1.341.645-2.608 1.498-3.789 2.412-2.16 1.674-4.21 3.49-6.348 5.193-1.356 1.079-2.767 2.091-4.19 3.078-1.344.932-2.919 1.187-4.506 1.252-2.121.088-4.242.018-6.317-.493-.626-.155-1.01.023-1.372.524-.908 1.261-1.991 2.347-3.333 3.158-.912.55-1.881.898-2.955.845-1.343-.065-2.709-.029-4.021-.272-3.375-.625-5.791-2.56-7.213-5.702-.158-.35-.315-.705-.427-1.072-.096-.311-.278-.429-.587-.435-2.287-.046-3.659-1.382-4.622-3.292-.564-1.119-.897-2.292-.873-3.556.005-.269-.011-.539-.001-.808.015-.44-.187-.639-.627-.611-.834.053-1.597-.176-2.313-.593-1.013-.587-1.562-1.479-1.646-2.626-.045-.608-.021-1.239.092-1.837.087-.451-.023-.641-.433-.756-.219-.062-.431-.168-.633-.278-1.589-.864-2.435-2.948-1.902-4.674.046-.147.084-.305.167-.43.275-.413.721-.779.816-1.225.096-.446-.177-.961-.244-1.45-.201-1.497.496-2.629 1.581-3.526 1.744-1.444 3.812-1.784 5.985-1.473.58.083 1.124.478 1.665.768.716.385 1.391.656 2.28.541 1.214-.157 2.463-.009 3.693-.068.684-.032 1.379-.157 2.036-.352 1.365-.403 2.698-.913 4.06-1.324 2.965-.895 5.799-2.058 8.417-3.743 2.168-1.396 4.422-2.661 6.589-4.062.963-.622 1.792-1.45 2.701-2.16.285-.222.327-.491.341-.808.136-3.23.466-6.447.572-9.684.09-2.763.492-5.515.744-8.275.108-1.187.166-2.38.277-3.569.59-6.302.466-12.623.477-18.939.011-6.823-.033-13.645.067-20.466.045-3.074.381-6.145.59-9.217.163-2.38.318-4.763.506-7.142.166-2.109.398-4.215.556-6.326.288-3.877 1.021-7.706 1.122-11.605.064-2.461.313-4.917.472-7.377.046-.709.03-.751-.644-.75-2.996.004-5.028-1.688-6.747-3.872-.736-.935-1.338-1.976-2.003-2.969-.128-.192-.254-.389-.402-.564-.491-.582-.814-.637-1.352-.132-1.128 1.059-2.122 2.224-2.792 3.648-.662 1.408-1.108 2.881-1.314 4.413-.269 1.992-.814 3.914-1.321 5.851-.497 1.897-.878 3.824-1.306 5.738-.093.414-.16.833-.26 1.244-.712 2.914-2.706 4.589-5.449 5.417-.815.246-1.763.208-2.627.106-1.073-.127-1.86-.825-2.472-1.902-.426.749-.784 1.375-1.14 2.002-.387.681-.837 1.316-1.602 1.599-.502.185-1.031.345-1.561.4-.723.073-1.466.113-2.184.03-1.277-.147-2.48-1.42-2.77-2.934-.337-1.752-.425-3.532.014-5.276.781-3.099 1.595-6.19 2.469-9.263.464-1.628 1.085-3.209 1.633-4.812.094-.28.173-.565.078-.943-.402.667-.843 1.313-1.198 2.004-.491.959-.98 1.928-1.358 2.935-.799 2.13-2.171 3.896-3.512 5.681-1.042 1.389-2.461 2.052-4.209 1.982-.346-.014-.694-.006-1.04-.008-1.483-.007-2.475-.775-3.058-2.072-.641-1.426-.685-2.911-.191-4.394.144-.437.324-.875.561-1.267 1.296-2.141 2.615-4.266 3.925-6.398.152-.248.299-.5.319-.886-.448.331-.879.686-1.347.989-.774.5-1.538 1.036-2.369 1.422-.537.25-1.183.332-1.786.359-1.08.048-1.636-.367-1.935-1.428-.394-1.393-.251-2.761.467-4.023.321-.563.716-1.109 1.176-1.564.984-.975 1.968-1.972 3.071-2.802 1.814-1.364 3.685-2.661 5.599-3.88 1.899-1.21 3.601-2.642 5.201-4.207.726-.71 1.544-1.258 2.443-1.72.992-.509 1.955-1.075 2.931-1.616.386-.212.645-.498.775-.947.395-1.367.825-2.726 1.255-4.084.998-3.156 1.998-6.31 3.006-9.464 1.701-5.319 3.466-10.618 5.099-15.956 2.044-6.681 4.655-13.136 7.483-19.515 1.36-3.066 2.85-6.061 4.444-9.012 1.812-3.356 3.52-6.767 5.335-10.12 1.558-2.879 3.183-5.722 4.815-8.56.98-1.701 2.047-3.353 3.043-5.045.466-.791.756-1.7 1.296-2.428 1.65-2.223 3.251-4.498 5.404-6.293.146-.123.295-.258.401-.415 1.291-1.9 3.159-3.142 5.04-4.349.77-.496 1.614-.923 2.481-1.213 3.066-1.023 6.166-1.944 9.235-2.96 2.928-.969 5.886-1.813 8.888-2.517.626-.147 1.211-.475 1.813-.726 1.17-.486 1.587-1.484 1.798-2.63.066-.366.008-.602-.418-.637-3.39-.283-6.694-1.006-9.963-1.915-.593-.165-1.211-.247-1.794-.439-.909-.298-1.811-.629-2.694-.999-.78-.327-1.537-.713-2.291-1.099-1.302-.666-2.602-1.336-3.887-2.034-1.49-.809-2.946-1.678-4.444-2.469-1.518-.801-2.793-1.908-4.057-3.041-.803-.718-1.623-1.422-2.472-2.084-1.433-1.118-2.797-2.301-3.961-3.702-.092-.111-.226-.188-.337-.28-.552.651-1.008 1.334-1.602 1.862-3.031 2.691-6.57 3.903-10.633 3.572-1.942-.158-3.82-.529-5.527-1.498-2.461-1.397-4.487-3.275-5.106-6.117-1.092-5.008.945-9.561 5.392-11.895.592-.31 1.313-.445 1.988-.51 2.432-.233 4.753.242 6.967 1.26.382.176.764.352 1.237.569 0-.276.021-.482-.004-.683-.181-1.49-.363-2.981-.565-4.468-.04-.293-.092-.641-.271-.849-1.095-1.267-1.557-2.815-1.955-4.378-.456-1.789-.807-3.606-1.242-5.4-.782-3.226-1.187-6.511-1.601-9.794-.216-1.718-.39-3.443-.536-5.169-.087-1.034-.109-2.076-.114-3.114-.011-2.313-.003-4.626.024-6.938.01-.962.107-1.923.127-2.885.016-.733-.039-.75-.806-.697-1.19.082-2.382.23-3.57.199-.748-.019-1.534-.213-2.224-.509-1.296-.556-1.773-1.72-1.318-3.055.17-.498.464-.976.786-1.397 1.441-1.878 3.219-3.415 5.053-4.89.293-.235.58-.477 1.042-.858" fill="#231f20" transform="matrix(4.16667 0 0 4.16667 258.01109367 879.33122513)"/><path d="m0 189.034c-.04-.536-.067-1.074-.136-1.607-.015-.119-.2-.314-.286-.304-.164.021-.426.144-.447.26-.086.488-.155.993-.128 1.485.067 1.242-.323 2.353-.883 3.422-.25.477-.533.937-.793 1.41-.129.236-.275.474-.339.729-.038.153.017.424.125.495.119.078.364.022.526-.045.131-.053.239-.193.326-.318 1.15-1.665 2.166-3.382 2.035-5.527m72.701-2.052c-.16.259-.352.429-.367.615-.053.691-.074 1.385-.06 2.077.038 1.949 1.026 3.507 2.107 5.021.045.063.106.143.169.152.207.032.436.088.622.029.072-.025.125-.364.061-.504-.238-.524-.509-1.035-.802-1.533-.795-1.352-1.33-2.769-1.198-4.379.027-.338-.018-.693-.097-1.025-.036-.148-.238-.256-.435-.453m-114.515 24.28c-1.965-.619-3.686-.214-5.241 1.003-1.699 1.328-3.044 2.934-3.973 4.884-.335.705-.478.776-1.245.676-2.218-.287-3.375-2.479-2.18-4.4 1.461-2.35 3.45-4.037 6.406-4.16.217-.009.433-.07.782-.129-.326-.592-.802-.682-1.28-.736-1.194-.133-2.334.119-3.304.796-.94.659-1.808 1.43-2.648 2.216-.722.673-.814.738-1.678.308-1.231-.609-1.863-2.012-1.437-3.31.102-.311.348-.6.592-.83.846-.798 1.895-1.155 3.029-1.293.831-.101 1.664-.195 2.647-.31-.356-.623-.829-.716-1.309-.769-1.278-.14-2.552-.14-3.732.458-.518.262-.726-.018-.768-.448-.143-1.441.571-2.439 1.682-3.198 1.336-.915 2.852-1.124 4.424-.951.367.04.726.24 1.065.414.856.438 1.7.9 2.544 1.362.358.196.656.279 1.061.015.293-.189.721-.204 1.092-.232 1.112-.083 2.229-.113 3.339-.209.493-.043.989-.157 1.46-.31 1.502-.482 2.983-1.033 4.493-1.489 2.818-.852 5.49-2.006 7.991-3.568 1.699-1.061 3.465-2.014 5.147-3.102 1.191-.771 2.297-1.679 3.429-2.54.304-.231.529-.477 1.003-.42.561.071.717-.128.792-.733.076-.611.113-1.228.153-1.844.211-3.224.581-6.434.625-9.678.034-2.454.448-4.903.683-7.356.125-1.301.255-2.604.342-3.909.313-4.689.56-9.376.527-14.083-.062-8.787-.045-17.576.039-26.362.027-2.804.366-5.605.567-8.407.083-1.152.175-2.304.27-3.454.304-3.644.585-7.291.923-10.931.259-2.796.617-5.585.879-8.381.147-1.571.19-3.152.279-4.728.098-1.692.221-3.382.278-5.075.02-.596.258-.895.787-1.116 1.286-.535 2.271-1.426 2.942-2.658.302-.553.489-1.125.471-1.763-.018-.616-.043-1.235-.01-1.849.08-1.509-.743-2.484-1.947-3.148-.477-.263-.561-.497-.514-.979.267-2.72.52-5.44.741-8.164.119-1.458.171-2.922.238-4.384.163-3.466.573-6.904 1.103-10.33.241-1.558.388-3.133.561-4.701.216-1.951.422-3.901.62-5.853.172-1.686.338-3.371.488-5.058.367-4.115 1.203-8.145 2.206-12.145.345-1.381.751-2.752 1.028-4.147.358-1.809.598-3.642.921-5.46.558-3.146 1.151-6.285 1.712-9.43.535-2.993 1.039-5.991 1.569-8.984.735-4.139 1.706-8.217 3.149-12.174.158-.433.291-.878.394-1.327.057-.256.088-.547.021-.79-.051-.182-.28-.315-.429-.47-.129.127-.318.23-.377.384-.547 1.399-1.104 2.796-1.594 4.215-1.41 4.089-2.278 8.312-3.03 12.563-.69 3.904-1.44 7.798-2.152 11.699-.512 2.802-.975 5.614-1.526 8.408-.169.856-.494 1.699-.856 2.497-1.845 4.068-3.853 8.054-5.491 12.222-1.435 3.651-3.228 7.162-4.883 10.726-2.064 4.446-3.836 8.999-5.053 13.753-.545 2.126-1.04 4.265-1.559 6.398-.159.654-.161.64-.925.652-.343.006-.69.048-1.024.122-.114.025-.296.239-.271.296.06.151.195.322.341.375.209.075.456.04.683.075.341.055.684.106 1.016.2 1.2.34 2.116 1.003 2.673 2.178.824 1.739 1.767 3.418 2.205 5.322.143.622.451 1.232.8 1.773.545.846 1.336 1.37 2.388 1.418 1.34.059 2.68.141 4.02.195.491.02 1.189.566 1.428 1.173.694 1.778.07 4.155-1.423 5.357-.383.308-.752.652-1.334.561-.202-.033-.438.121-.654.198-1.895.683-3.552.168-5.075-1.012-1.104-.857-2.047-1.844-2.737-3.087-.464-.838-1.067-1.601-1.611-2.397-.109-.159-.222-.316-.352-.458-.888-.975-2.075-1.063-3.057-.183-2.092 1.878-3.505 4.18-4.203 6.905-.21.82-.317 1.664-.49 2.492-.259 1.242-.522 2.486-.809 3.722-.575 2.474-1.168 4.944-1.753 7.415-.06.262-.132.524-.167.79-.278 2.074-1.617 3.342-3.305 4.329-.932.544-1.966.666-3.021.539-1.016-.123-1.37-.567-1.412-1.607-.114-2.76.269-5.426 1.13-8.073.953-2.924 1.671-5.925 2.472-8.898.331-1.229.612-2.468 1.288-3.572.133-.216.227-.52.188-.759-.038-.229-.233-.493-.434-.606-.114-.064-.466.09-.564.241-.417.643-.829 1.296-1.145 1.991-.251.556-.401 1.168-.526 1.769-.73 3.514-1.784 6.935-2.866 10.349-.469 1.478-.834 2.972-.888 4.519-.043 1.222-.779 2.157-1.222 3.209-.341.811-.845 1.554-1.271 2.332-.331.609-.799 1.023-1.507 1.134-.304.047-.597.157-.901.207-2.019.335-2.917-.344-3.27-2.176-.278-1.44-.251-3.032.05-4.471.645-3.086 1.513-6.128 2.366-9.167.918-3.269 2.104-6.445 3.59-9.501.3-.615.717-1.173 1.067-1.764.049-.083.071-.232.028-.305-.048-.084-.18-.159-.28-.167-.431-.033-.738.209-.961.536-.303.446-.563.919-.853 1.373-.141.223-.262.542-.469.628-1.535.629-2.358 1.965-3.144 3.263-.874 1.444-1.6 2.988-2.287 4.534-.873 1.965-2.184 3.621-3.51 5.271-.667.826-1.555 1.235-2.643 1.165-.384-.025-.771-.022-1.156-.001-1.039.06-1.679-.484-2.037-1.385-.426-1.077-.459-2.201-.051-3.276.298-.785.731-1.526 1.148-2.26 1.981-3.484 4.203-6.815 6.499-10.095.433-.619 1.046-1.112 1.573-1.665.263-.277.541-.543.77-.848.173-.231.17-.503-.056-.735-.228-.234-.503-.246-.73-.064-.745.602-1.493 1.203-2.187 1.861-.359.338-.623.782-.901 1.199-.326.489-.667.907-1.281 1.088-.306.089-.561.391-.812.625-1.159 1.085-2.416 2.04-3.801 2.811-.498.276-1.047.507-1.6.628-.984.215-1.338-.109-1.441-1.1-.141-1.347.187-2.567 1.162-3.495 1.362-1.299 2.744-2.596 4.246-3.725 2.306-1.735 4.744-3.29 7.075-4.991 1.022-.746 1.896-1.692 2.876-2.501.618-.51 1.281-.977 1.97-1.389 1.188-.709 2.405-1.371 3.623-2.031.521-.282.823-.666.848-1.272.01-.225.08-.455.149-.673.794-2.575 1.558-5.158 2.398-7.716 1.853-5.634 3.858-11.222 5.595-16.89 2.374-7.745 5.148-15.323 8.391-22.75 2.303-5.273 5.112-10.275 7.692-15.398 1.197-2.375 2.389-4.751 3.617-7.109.783-1.502 1.621-2.975 2.445-4.457.787-1.413 1.607-2.809 2.375-4.232 1.375-2.549 3.155-4.809 4.955-7.054 1.059-1.32 2.068-2.689 3.446-3.718.211-.158.388-.379.539-.6.839-1.237 2.035-2.078 3.193-2.978 1.773-1.377 3.821-2.157 5.911-2.826 4.106-1.313 8.235-2.558 12.357-3.822.7-.214 1.405-.414 2.12-.567 1.54-.327 2.884-1.054 4.145-1.964.523-.377.815-.899.988-1.516.166-.588.385-1.161.581-1.74.682-.031 1.364-.093 2.047-.085 2.463.026 4.926.096 7.391.106 1.076.004 2.155-.08 3.229-.159.526-.039.797.17.887.672.026.151.103.293.125.444.185 1.323.879 2.282 2.072 2.867.862.421 1.71.908 2.618 1.19 4.41 1.37 8.842 2.674 13.262 4.018 1.177.357 2.326.809 3.508 1.153 2.124.619 3.865 1.892 5.563 3.224.658.516 1.187 1.199 1.767 1.813.29.307.536.663.851.941 2.324 2.062 4.036 4.624 5.926 7.055 1.863 2.396 3.051 5.15 4.587 7.713 1.544 2.575 2.871 5.279 4.264 7.94 2.128 4.061 4.273 8.113 6.331 12.209 1.261 2.511 2.389 5.089 3.551 7.649 2.839 6.252 5.29 12.657 7.216 19.245 1.87 6.402 4.228 12.638 6.242 18.988.849 2.678 1.695 5.356 2.539 8.036.069.22.175.447.172.669-.014.947.539 1.454 1.307 1.855 1.16.606 2.312 1.23 3.443 1.888.559.326 1.116.689 1.587 1.129 2.031 1.899 4.189 3.606 6.547 5.105 2.562 1.628 5.052 3.399 7.191 5.592.402.412.777.855 1.126 1.313.736.961.747 2.082.602 3.208-.076.585-.354.836-.951.762-.598-.074-1.221-.227-1.75-.503-1.442-.749-2.737-1.718-3.933-2.821-.387-.357-.883-.592-1.303-.916-.296-.227-.593-.477-.812-.773-.781-1.054-1.516-2.143-2.678-2.838-.097-.057-.173-.151-.268-.217-.334-.24-.7-.405-1.029-.038-.351.389-.031.71.196 1.015.092.122.202.242.328.323 1.476.959 2.311 2.472 3.229 3.878 1.874 2.867 3.642 5.803 5.451 8.712.687 1.103 1.156 2.273.97 3.604-.067.49-.168.989-.348 1.446-.309.788-.917 1.214-1.786 1.215-.462.001-.926-.025-1.387.002-.998.059-1.83-.298-2.463-1.04-1.327-1.554-2.578-3.165-3.459-5.029-.644-1.357-1.27-2.723-1.946-4.064-.63-1.246-1.475-2.346-2.466-3.332-.164-.162-.32-.417-.512-.451-.866-.151-1.093-.876-1.461-1.493-.215-.363-.441-.739-.741-1.024-.198-.188-.529-.275-.815-.318-.24-.036-.399.327-.212.485.653.549.894 1.338 1.234 2.062 2.086 4.447 3.599 9.088 4.663 13.882.258 1.165.553 2.327.925 3.459.571 1.737.486 3.508.318 5.267-.058.609-.492 1.187-.786 1.764-.081.16-.259.285-.418.388-1.123.727-3.806.141-4.465-1.03-.792-1.408-1.525-2.85-2.242-4.298-.182-.369-.266-.813-.29-1.228-.097-1.707-.493-3.346-1.012-4.967-1.043-3.264-2.033-6.544-2.748-9.902-.159-.75-.393-1.493-.684-2.201-.233-.562-.577-1.087-.932-1.583-.13-.182-.468-.358-.66-.314-.386.088-.469.467-.422.837.019.15.066.309.145.435.859 1.37 1.111 2.938 1.515 4.463.72 2.716 1.41 5.447 2.299 8.11.881 2.642 1.249 5.311 1.129 8.072-.047 1.039-.39 1.474-1.42 1.597-1.18.142-2.301-.064-3.323-.71-1.599-1.013-2.689-2.349-3.03-4.285-.58-3.3-1.45-6.536-2.298-9.776-.379-1.448-.53-2.954-.871-4.415-.641-2.743-2.058-5.046-4.138-6.938-1.103-1.004-2.375-.907-3.275.318-.822 1.116-1.524 2.317-2.332 3.443-1.193 1.661-2.642 3.002-4.715 3.491-.689.162-1.365.166-2.052-.028-.511-.145-1.041-.219-1.557-.346-.181-.044-.367-.126-.519-.236-1.255-.89-2.158-1.977-2.026-3.644.036-.46.038-.924.039-1.386.001-.726.387-1.235.934-1.64.144-.106.341-.186.517-.195 1.339-.072 2.678-.121 4.016-.184 1.33-.063 2.229-.786 2.811-1.923.242-.475.413-.998.546-1.515.549-2.154 1.534-4.115 2.707-5.975.669-1.059 1.879-1.247 3.011-1.477.3-.061.614-.058.907-.14.1-.028.188-.22.212-.35.011-.065-.119-.22-.202-.233-.413-.067-.843-.176-1.247-.122-.458.061-.622-.088-.722-.497-.387-1.571-.869-3.121-1.18-4.706-.746-3.801-1.973-7.453-3.486-10.996-1.831-4.285-3.84-8.492-5.756-12.742-.537-1.193-1.001-2.419-1.529-3.617-1.131-2.574-2.27-5.142-3.431-7.702-.636-1.403-1.426-2.745-1.95-4.186-.47-1.291-.724-2.669-.981-4.025-.844-4.463-1.647-8.934-2.466-13.401-.562-3.067-1.089-6.141-1.695-9.198-.727-3.671-1.742-7.263-3.194-10.722-.208-.496-.365-1.015-.578-1.509-.048-.11-.237-.226-.351-.218-.121.008-.322.157-.329.255-.03.411-.083.849.024 1.236.267.964.607 1.908.934 2.855 1.272 3.689 2.024 7.505 2.729 11.331.919 4.997 1.804 10.001 2.688 15.003.455 2.577.817 5.171 1.323 7.737.41 2.075.958 4.125 1.472 6.178 1.011 4.045 1.595 8.155 1.979 12.302.316 3.41.691 6.815 1.08 10.217.44 3.862.946 7.716 1.376 11.579.155 1.377.156 2.769.25 4.153.123 1.765.269 3.529.409 5.294.142 1.802.279 3.606.441 5.407.036.405-.085.58-.462.784-1.256.682-2.109 1.664-2.016 3.22.019.344.007.694-.018 1.04-.174 2.39 1.094 3.909 3.03 5.024.165.095.343.18.525.238.482.15.623.482.644.964.048 1.191.155 2.381.221 3.573.103 1.846.157 3.695.295 5.538.129 1.726.337 3.447.514 5.17.199 1.952.415 3.904.599 5.857.207 2.185.388 4.372.577 6.558.112 1.304.216 2.608.325 3.912.512 6.145.813 12.294.755 18.464-.072 7.67-.05 15.34-.004 23.01.014 2.307.242 4.613.379 6.917.081 1.346.156 2.692.272 4.035.262 3.067.549 6.132.828 9.198.013.154.064.306.06.458-.077 3.128.319 6.227.573 9.334.057.691.09 1.385.158 2.074.082.824.118.834.962.92.212.024.466.092.61.232 1.734 1.682 3.817 2.862 5.864 4.09 1.883 1.129 3.766 2.265 5.71 3.282 2.225 1.164 4.639 1.867 7.038 2.588.442.132.903.227 1.318.42 1.829.856 3.768 1.036 5.749 1.027.601-.003 1.223-.121 1.759.352.125.109.516.001.738-.105.728-.351 1.473-.686 2.14-1.136 1.418-.956 2.932-.867 4.44-.436 1.162.331 2.208.947 2.811 2.073.195.363.351.78.391 1.185.118 1.227-.027 1.331-1.209.911-1.125-.399-2.272-.373-3.427-.239-.41.047-.818.166-1.105.68.351.08.63.168.916.204.611.079 1.241.068 1.835.21.742.177 1.487.405 2.173.731 1.097.521 1.539 1.421 1.341 2.657-.187 1.172-.887 1.834-1.947 2.206-.405.143-.698.056-1.022-.268-.759-.76-1.531-1.523-2.385-2.168-1.071-.808-2.307-1.226-3.685-1.087-.5.051-.974.145-1.356.691.28.073.486.175.694.175 2.35.009 4.069 1.244 5.572 2.878.363.394.693.836.951 1.303 1.086 1.971-.022 4.119-2.243 4.388-.756.093-.887.029-1.232-.703-.977-2.068-2.407-3.753-4.256-5.084-1.493-1.075-3.141-1.375-5.179-.89.676.258 1.14.475 1.625.614 2.413.691 4.135 2.266 5.633 4.205 2.183 2.825 1.367 6.296-.153 8.394-.537.739-1.273 1.223-2.158 1.465-.692.189-.825.105-.841-.613-.028-1.268.024-2.535-.301-3.788-.918-3.538-4.474-6.089-7.548-5.861-.995.076-1.998.13-2.98.299-1.262.217-2.257.955-3.107 1.883-.1.111-.08.335-.115.505.175.01.372.077.516.018.208-.084.381-.256.562-.4 1.202-.945 2.581-1.332 4.091-1.345 1.159-.012 2.311-.03 3.399.482 2.203 1.036 3.616 2.697 4.062 5.119.356 1.929.321 3.836-.462 5.673-1.325 3.109-3.72 4.843-7.021 5.31-1.095.155-2.23.183-3.331.085-.738-.066-1.52-.339-2.155-.727-1.411-.86-2.742-1.847-3.626-3.31-.277-.457-.876-.673-1.393-.513-2.329.722-4.728.639-7.107.526-1.382-.067-2.671-.566-3.856-1.394-2.755-1.928-5.205-4.221-7.819-6.314-1.532-1.228-3.154-2.342-4.738-3.502-.187-.137-.382-.269-.592-.359-3.107-1.347-6.178-2.811-9.599-3.203-.956-.11-1.382-.761-1.723-1.514-.583-1.288-.715-2.67-.776-4.061-.106-2.442.224-4.842.783-7.211.122-.521.315-1.036.551-1.516.596-1.209 1.222-2.404 1.868-3.587.135-.245.378-.524.625-.594.588-.168.677-.564.66-1.06-.076-2.229.034-4.468-.404-6.68-.133-.676-.152-1.378-.185-2.07-.126-2.558-.855-5.002-1.388-7.484-.573-2.67-1.156-5.342-1.623-8.031-.236-1.359-.199-2.763-.34-4.141-.246-2.412-.541-4.818-.806-7.228-.538-4.908-1.67-9.708-2.585-14.549-.429-2.267-.663-4.574-1.12-6.836-.542-2.677-1.159-5.343-1.871-7.979-1.494-5.544-2.695-11.15-3.811-16.778-.966-4.87-1.88-9.753-2.915-14.609-.915-4.291-1.958-8.555-2.96-12.827-.102-.433-.154-.756.202-1.147.338-.37.098-.818-.415-.933-.261-.057-.536-.054-.805-.054-6.435-.003-12.87-.001-19.305 0-.154 0-.309-.01-.462.006-.874.086-1.055.407-.567 1.162.266.409.074.731-.014 1.089-.699 2.881-1.477 5.745-2.086 8.644-1.205 5.726-2.351 11.466-3.458 17.211-1.398 7.264-3.063 14.462-4.972 21.61-.673 2.52-1.023 5.129-1.506 7.701-.606 3.214-1.18 6.435-1.799 9.647-.626 3.252-1.185 6.512-1.52 9.809-.24 2.374-.551 4.74-.808 7.112-.17 1.568-.195 3.158-.469 4.706-.431 2.424-.967 4.832-1.556 7.222-.664 2.701-1.083 5.424-1.349 8.193-.214 2.226-.433 4.442-.428 6.678.001.307-.053.63.021.92.06.228.254.568.431.596.56.089.742.499.96.902.401.746.794 1.497 1.196 2.244.699 1.301 1.164 2.673 1.411 4.134.388 2.29.633 4.586.353 6.899-.115.946-.351 1.891-.646 2.799-.319.98-.973 1.554-2.111 1.658-1.1.101-2.189.419-3.258.73-.885.257-1.722.672-2.598.963-3.205 1.065-5.891 2.989-8.461 5.098-1.577 1.297-3.082 2.681-4.673 3.961-1.29 1.036-2.646 1.989-3.996 2.949-.903.641-1.982.94-3.045 1.001-2.421.141-4.861.215-7.225-.489-.39-.116-.686-.079-.97.09-.246.146-.435.398-.627.621-1.599 1.864-3.285 3.656-5.911 3.876-2.377.2-4.71-.126-6.769-1.452-2.547-1.638-3.866-4.025-3.974-7.042-.034-.953.047-1.928.216-2.868.549-3.052 3.585-5.429 6.502-5.393 1.99.025 3.835.289 5.377 1.664.205.182.481.362.686.065.071-.103-.051-.451-.188-.57-.553-.473-1.084-1.052-1.734-1.319-4.204-1.719-9.03-.878-11.332 3.803-.48.975-.731 2.026-.752 3.121-.014.694.004 1.387-.023 2.08-.021.542-.213.675-.75.529-.838-.228-1.574-.651-2.115-1.337-1.62-2.056-2.432-5.627-.482-8.285 1.498-2.043 3.239-3.704 5.72-4.458.504-.153.994-.352 1.49-.529" fill="#fedcc4" transform="matrix(4.16667 0 0 4.16667 286.16944953 728.48110445)"/><path d="m0 201.469c-.686-.327-1.431-.553-2.173-.732-.594-.141-1.224-.131-1.835-.21-.286-.037-.566-.123-.916-.203.287-.515.694-.634 1.105-.681 1.154-.133 2.302-.16 3.428.239 1.181.42 1.325.317 1.209-.911-.04-.405-.196-.821-.391-1.184-.604-1.126-1.65-1.742-2.812-2.074-1.508-.43-3.022-.52-4.44.436-.667.449-1.412.786-2.14 1.136-.221.107-.613.215-.737.106-.538-.475-1.16-.356-1.76-.353-1.981.01-3.92-.169-5.749-1.026-.414-.194-.877-.288-1.318-.421-2.399-.721-4.813-1.423-7.038-2.587-1.944-1.017-3.827-2.155-5.71-3.284-2.047-1.226-4.13-2.407-5.863-4.089-.145-.139-.4-.209-.611-.231-.843-.088-.879-.097-.961-.921-.069-.689-.102-1.383-.158-2.073-.256-3.108-.651-6.206-.575-9.335.004-.151-.046-.304-.059-.458-.279-3.065-.565-6.131-.829-9.198-.115-1.342-.19-2.689-.271-4.034-.137-2.305-.365-4.611-.379-6.917-.047-7.67-.068-15.341.003-23.01.059-6.172-.243-12.321-.754-18.465-.108-1.303-.213-2.608-.325-3.911-.188-2.187-.371-4.373-.577-6.558-.184-1.953-.4-3.906-.6-5.857-.175-1.724-.384-3.444-.513-5.171-.138-1.843-.192-3.692-.295-5.539-.066-1.19-.172-2.38-.222-3.572-.02-.483-.161-.813-.643-.965-.182-.056-.36-.14-.526-.237-1.936-1.114-3.203-2.633-3.029-5.025.026-.345.038-.693.017-1.039-.092-1.555.761-2.539 2.017-3.22.376-.205.498-.378.462-.783-.162-1.801-.299-3.605-.441-5.409-.139-1.764-.287-3.528-.409-5.294-.095-1.382-.096-2.775-.249-4.151-.431-3.862-.937-7.717-1.378-11.579-.387-3.402-.763-6.809-1.078-10.219-.385-4.146-.969-8.255-1.981-12.301-.513-2.052-1.06-4.102-1.47-6.178-.507-2.566-.87-5.159-1.324-7.736-.662-3.752-1.337-7.501-2.016-11.25 0 .107-.001.215-.002.322-.027 5.977-.332 11.947-.721 17.91-.763 11.716-1.814 23.417-1.814 35.168 0 9.792.426 19.66-.462 29.419-.34 3.745-.85 7.699-.26 11.441.278 1.767.977 3.461 2.924 3.855.784.158 1.586.166 2.359.382.928.259 1.584.788 2.298 1.412.663.576 1.544 1.165 1.783 2.06.126.475.138.989.235 1.471.182.917.473 1.811.694 2.719 1.228 5.036 1.741 10.223 2.035 15.387.298 5.223.346 10.456.542 15.683.206 5.535.919 10.986 1.413 16.497.989 11.023 1.321 22.107 2.933 33.07.197 1.34.426 2.752 1.133 3.932.71 1.184 1.876 1.986 3.044 2.67 1.826 1.066 3.733 2.037 5.616 3 7.91 4.043 15.932 7.874 23.955 11.689.282-.176.589-.241.912-.273 1.376-.141 2.613.279 3.683 1.087.856.645 1.627 1.407 2.387 2.168.323.324.616.41 1.021.268 1.061-.373 1.76-1.035 1.948-2.206.198-1.236-.245-2.136-1.342-2.657" fill="#fcc3a0" transform="matrix(4.16667 0 0 4.16667 821.8407114 751.7519564)"/><path d="m0-134.504c-.628.518-1.235 1.061-1.794 1.653-3.387 3.59-5.653 8.128-7.553 12.633-1.869 4.43-3.325 9.013-5.074 13.487-4.725 12.091-8.754 24.439-12.087 36.985-1.65 6.208-3.132 12.462-4.424 18.755-.532 2.594-.763 5.133-.279 7.757.41 2.223 1.236 4.331 2.231 6.353.908 1.841 1.937 3.621 2.936 5.414.084-.091.271-.172.402-.189.085-.01.27.186.286.304.059.45.087.905.118 1.359.926 1.721 1.791 3.473 2.453 5.326.811 2.264 1.353 4.638 1.334 7.052-.021 2.471-.49 4.934-1.317 7.26-1.369 3.841-3.625 7.315-6.418 10.355 1.606-1.082 3.305-2.007 5.187-2.633.877-.29 1.714-.706 2.599-.963 1.069-.31 2.158-.629 3.258-.73 1.138-.104 1.792-.678 2.111-1.657.295-.908.531-1.853.646-2.8.28-2.313.034-4.608-.353-6.898-.248-1.462-.713-2.833-1.412-4.134-.401-.747-.794-1.499-1.195-2.245-.218-.403-.4-.812-.96-.902-.178-.028-.372-.367-.431-.596-.075-.289-.022-.612-.022-.92-.004-2.236.215-4.452.429-6.678.266-2.769.685-5.492 1.349-8.192.587-2.39 1.124-4.799 1.555-7.222.275-1.548.299-3.139.47-4.707.256-2.372.568-4.738.808-7.111.334-3.298.893-6.557 1.519-9.809.62-3.213 1.194-6.433 1.799-9.647.484-2.571.834-5.18 1.507-7.701 1.908-7.148 3.573-14.346 4.972-21.611 1.107-5.745 2.253-11.485 3.457-17.209.61-2.9 1.388-5.765 2.087-8.646.088-.357.279-.679.014-1.089-.1-.153-.164-.285-.208-.404" fill="#fcc3a0" transform="matrix(4.16667 0 0 4.16667 391.25286693 1640.05683371)"/><path d="m0 51.668c-.292.082-.606.079-.906.14-1.133.229-2.343.417-3.011 1.477-1.174 1.859-2.159 3.821-2.707 5.974-.133.518-.305 1.041-.547 1.515-.581 1.138-1.481 1.861-2.81 1.923-1.339.064-2.678.112-4.017.185-.175.009-.373.088-.517.194-.546.406-.933.913-.934 1.64-.001.463-.003.927-.039 1.387-.132 1.667.772 2.754 2.026 3.645.152.108.338.19.52.234.516.128 1.046.202 1.556.346.687.195 1.363.19 2.052.028 2.073-.488 3.522-1.831 4.715-3.491.189-.264.363-.539.545-.809.589-2.796 4.697-5.578 6.467-7.013 2.09-1.694 4.046-4.131 3.916-6.967-.064-1.403-.619-2.737-1.234-3.98-.752-1.516-1.629-2.967-2.432-4.455-3.971-7.364-7.177-15.124-10.158-22.932-1.523-3.985-3.059-7.978-4.452-12.009-1.452-4.207-3.22-8.294-4.987-12.373-.884-2.04-1.77-4.078-2.624-6.13-.429-1.032-.85-2.067-1.257-3.107-.314-.798-.772-1.542-1.206-2.278-.718-1.222-1.473-2.425-2.156-3.667.507 2.645.973 5.297 1.459 7.945.819 4.468 1.622 8.938 2.467 13.401.256 1.356.511 2.735.98 4.026.525 1.441 1.314 2.783 1.95 4.186 1.161 2.56 2.3 5.128 3.432 7.701.527 1.198.991 2.425 1.528 3.618 1.917 4.248 3.926 8.456 5.757 12.741 1.512 3.543 2.74 7.195 3.486 10.997.31 1.585.792 3.135 1.179 4.706.1.409.264.558.722.497.404-.055.834.055 1.248.122.083.012.213.167.201.233-.025.129-.112.322-.212.35" fill="#fcc3a0" transform="matrix(4.16667 0 0 4.16667 689.38643877 785.5853168)"/><path d="m0 92.646c.914.03 1.771-.18 2.593-.529 1.947-.824 3.606-2.055 4.988-3.646.852-.978 1.379-2.132 1.522-3.429.041-.369-.028-.762-.114-1.128-.064-.283-.363-.32-.508-.078-.157.262-.299.541-.394.83-.675 2.021-2.035 3.499-3.707 4.74-1.687 1.252-3.519 2.034-5.676 1.872-.335-.025-.696.027-1.016.132-.178.059-.414.307-.407.459.007.154.263.39.444.426.751.15 1.515.239 2.275.351m50.644-15.09c.576 0 1.168-.085 1.725.021.742.143 1.475.388 2.175.677.461.19.834.548.906 1.11.064.509-.264.769-.618 1.018-.03.022-.068.049-.078.081-.033.104-.109.246-.069.308.075.111.215.241.337.249 1.095.07 2.099-.908 2.084-1.993-.007-.658-.278-1.186-.738-1.631-.828-.801-1.823-1.269-2.95-1.457-2.198-.366-4.373-.15-6.505.397-1.42.366-2.752.981-3.81 2.056-.288.294-.69.568-.456 1.068.16.34.592.339 1.218-.078 2.059-1.373 4.335-1.913 6.779-1.826m-112.336-1.804c-.43.046-1.201.084-1.955.221-1.04.189-1.963.648-2.744 1.383-.682.642-.916 1.419-.698 2.309.216.888 1.018 1.091 1.744 1.331.163.054.398-.11.599-.173-.064-.163-.083-.389-.202-.475-.374-.266-.701-.59-.528-1.044.142-.368.426-.737.746-.967.697-.504 1.509-.765 2.378-.782.885-.019 1.771-.031 2.656-.004 1.962.058 3.792.572 5.454 1.643.29.187.59.371.909.493.145.055.428.015.506-.089.115-.155.187-.433.127-.609-.082-.241-.265-.486-.472-.638-.618-.453-1.238-.918-1.91-1.276-1.956-1.044-4.107-1.219-6.61-1.323m53.698 11.562c-.578 0-1.154-.016-1.731.006-.34.013-.687.056-1.017.141-.34.088-.486.357-.447.709.038.358.265.554.603.597.416.052.836.079 1.255.099 1.881.086 3.776.297 5.615-.284 3.392-1.071 6.387-2.828 8.95-5.306 1.012-.977 1.747-2.137 2.356-3.395.659-1.36.804-2.797.696-4.276-.018-.222-.059-.489-.194-.645-.158-.181-.448-.379-.65-.351-.189.026-.375.32-.49.535-.084.156-.057.375-.065.567-.101 2.12-.93 3.947-2.26 5.565-.316.385-.659.76-1.038 1.081-3.353 2.84-6.979 5.059-11.583 4.957m2.655-16.656c-.312-.098-.421-.166-.525-.16-1.651.114-3.229-.276-4.721-.887-2.426-.991-3.96-2.769-4.181-5.466-.062-.757.047-1.533.132-2.295.149-1.332.812-2.386 1.85-3.216 1.816-1.454 3.91-1.775 6.11-1.337 1.006.2 2.022.596 2.294 1.835.03.136.272.328.391.313.142-.018.318-.214.373-.37.239-.686.048-1.285-.448-1.799-.926-.963-2.102-1.365-3.389-1.569-5.183-.825-9.508 3.254-8.936 8.46.105.953.209 1.904.649 2.794 1.891 3.822 6.31 5.208 10.401 3.697m-12.411-20.772c-.036-.003-.071-.006-.106-.009 0-.577.041-1.159-.013-1.731-.05-.53-.113-1.09-.328-1.565-.79-1.754-2.977-2.138-4.222-.884-.756.761-1.352 1.591-1.608 2.62-.366 1.475-.405 2.972-.055 4.462.312 1.322 1.089 2.29 2.322 2.847 1.027.464 2.452.45 3.123-1.022.222-.488.451-.995.534-1.516.17-1.059.241-2.134.353-3.202m25.556-.07c0 .616-.029 1.234.007 1.849.064 1.127.329 2.2.907 3.188.436.745 1.071 1.089 1.92 1.011 1.533-.141 2.56-1 3.135-2.376.63-1.506.559-3.08.301-4.661-.224-1.358-.874-2.451-1.941-3.302-.99-.79-2.326-.752-3.279.089-.672.593-1.002 1.357-1.043 2.239-.03.653-.006 1.309-.007 1.963m38.424 3.72c-.185 4.139-.294 8.145-.571 12.14-.161 2.337-.564 4.659-.91 6.98-.064.43-.355.837-.585 1.229-.421.716-.267 1.046.567 1.137.529.058.966.004 1.237-.582.147-.322.443-.651.758-.809 2.398-1.207 4.889-2.112 7.639-1.859.6.055 1.248.176 1.761.467 2.581 1.456 4.156 3.647 4.413 6.639.357 4.146-1.609 7.24-5.556 8.679-4.596 1.676-8.865.868-12.793-1.948-.59-.422-1.106-.95-1.636-1.451-.377-.358-.432-.732-.133-1.23.245-.407.358-.921.414-1.401.022-.18-.247-.515-.441-.566-.17-.044-.525.154-.617.336-1.136 2.271-3.006 3.881-4.882 5.482-1.552 1.324-3.126 2.624-4.71 3.909-.627.508-1.276 1.005-1.972 1.407-2.202 1.268-4.416 2.52-6.658 3.717-1.696.906-3.442 1.723-5.171 2.569-.275.135-.573.234-.87.308-3.624.894-7.218 1.928-10.934 2.399-.763.096-1.531.189-2.298.211-2.075.059-4.134.429-6.226.206-.949-.1-1.921.015-2.882.035-.269.006-.54.05-.807.038-3.536-.177-7.077-.342-10.551-1.096-2.369-.514-4.718-1.119-7.074-1.698-.41-.1-.827-.22-1.199-.412-2.632-1.36-5.258-2.733-7.878-4.116-.784-.413-1.518-.924-2.32-1.296-1.841-.856-3.422-2.058-4.909-3.42-.821-.753-1.691-1.462-2.585-2.129-1.646-1.228-3.128-2.626-4.434-4.205-.461-.557-.815-1.206-1.188-1.83-.171-.287-.344-.545-.705-.446-.339.093-.511.4-.444.721.092.443.209.91.445 1.285.312.495.222.855-.14 1.231-.213.221-.399.475-.635.668-3.14 2.56-6.629 3.976-10.78 3.447-1.999-.254-3.86-.805-5.421-2.075-.824-.671-1.548-1.498-2.193-2.35-.818-1.08-1.011-2.378-1.027-3.721-.042-3.27 1.289-5.802 3.988-7.629.719-.487 1.505-.718 2.383-.767 2.712-.15 5.165.693 7.524 1.898.312.159.555.503.762.808.397.585 1.197.803 1.787.425.264-.17.378-.45.173-.693-1.136-1.346-.99-3.045-1.221-4.61-.547-3.697-.749-7.43-.791-11.168-.052-4.43-.184-8.862-.109-13.29.054-3.151.328-6.301.761-9.433.367-2.664.525-5.358.94-8.014.319-2.047.798-4.081 1.376-6.073.59-2.031 1.352-4.014 2.099-5.996 1.356-3.592 3.193-6.93 5.561-9.951 1.508-1.924 3.39-3.47 5.385-4.866 2.179-1.525 4.411-2.969 6.802-4.147.69-.34 1.375-.707 2.098-.963 4.909-1.738 9.892-3.225 15.08-3.838 4.01-.475 8.02-.911 12.085-.804 5.371.141 10.684.687 15.904 1.903 3.032.707 6.024 1.635 8.954 2.687 1.832.658 3.567 1.646 5.252 2.644 2.485 1.471 4.87 3.096 7.036 5.037 2.127 1.908 3.696 4.225 5.114 6.663 1.655 2.844 2.812 5.902 3.904 8.995.927 2.622 1.725 5.269 2.122 8.024.192 1.33.315 2.67.479 4.005.287 2.33.596 4.657.867 6.988.132 1.147.254 2.3.29 3.453.122 4.08.203 8.162.296 12.112" fill="#fedcc4" transform="matrix(4.16667 0 0 4.16667 457.61958669 114.4181132)"/><path d="m0 68.032c-.121-.008-.261-.138-.336-.249-.041-.061.035-.204.069-.308.01-.032.047-.059.078-.081.354-.249.682-.508.617-1.017-.071-.562-.444-.921-.905-1.111-.701-.288-1.433-.534-2.175-.677-.557-.106-1.149-.021-1.725-.021-2.444-.087-4.72.453-6.779 1.826-.626.417-1.057.417-1.217.079-.235-.5.167-.775.456-1.069 1.056-1.075 2.388-1.69 3.809-2.056 2.132-.547 4.307-.763 6.505-.397 1.127.188 2.122.657 2.949 1.457.461.445.732.974.74 1.631.014 1.085-.99 2.063-2.086 1.993m5.519-2.142c-.258-2.992-1.834-5.182-4.414-6.639-.514-.29-1.162-.412-1.762-.467-2.749-.252-5.24.652-7.638 1.859-.315.158-.611.487-.759.809-.27.586-.707.64-1.237.582-.833-.09-.987-.421-.567-1.136.232-.393.521-.8.586-1.23.346-2.321.749-4.643.91-6.98.276-3.995.385-8.001.571-12.14-.093-3.95-.175-8.032-.297-12.112-.034-1.153-.157-2.305-.29-3.452-.271-2.332-.578-4.659-.866-6.988-.164-1.336-.287-2.676-.479-4.006-.397-2.755-1.195-5.402-2.122-8.023-1.092-3.093-2.249-6.152-3.904-8.996-1.419-2.438-2.988-4.755-5.115-6.663-2.165-1.94-4.55-3.566-7.036-5.038-1.685-.997-3.419-1.984-5.251-2.643-2.93-1.052-5.922-1.98-8.953-2.687-1.051-.245-2.107-.455-3.164-.648 3.093 1.625 5.956 3.685 8.527 6.048 3.652 3.354 6.74 7.274 9.315 11.504 2.655 4.36 4.752 9.048 6.34 13.897 1.594 4.87 2.663 9.919 3.14 15.023.451 4.834.394 9.727-.379 14.526-.366 2.277-.886 4.532-1.597 6.727-.932 2.867-2.274 5.584-3.685 8.241-3.187 5.988-7.178 11.65-11.939 16.495-4.131 4.204-8.894 7.807-14.081 10.607-5.144 2.776-10.872 4.808-16.755 5.047-2.353.095-4.674-.146-6.91-.689-.331.106-.668.201-1.007.29.698.165 1.394.335 2.094.487 3.473.753 7.015.918 10.551 1.095.267.012.537-.032.807-.038.961-.02 1.932-.135 2.882-.034 2.092.222 4.151-.148 6.226-.207.768-.022 1.535-.114 2.299-.211 3.715-.47 7.31-1.505 10.933-2.399.298-.074.595-.173.87-.308 1.729-.846 3.474-1.662 5.171-2.569 2.241-1.197 4.455-2.448 6.657-3.717.697-.401 1.346-.899 1.973-1.407 1.585-1.285 3.158-2.585 4.71-3.908 1.875-1.602 3.746-3.212 4.881-5.481.092-.184.447-.381.618-.338.193.051.463.386.441.566-.056.48-.17.994-.414 1.401-.298.498-.243.872.134 1.23.529.502 1.046 1.029 1.635 1.451 3.928 2.816 8.197 3.625 12.793 1.949 3.947-1.44 5.913-4.534 5.557-8.68" fill="#fcc3a0" transform="matrix(4.16667 0 0 4.16667 686.87393676 168.53065649)"/><path d="m0 84.417c-.084-.245-.193-.484-.249-.736-.685-3.04-1.463-6.065-2.014-9.13-.549-3.065-.946-6.162-1.272-9.26-.527-4.993-.201-10.008-.237-15.013-.004-.65.234-.985.866-1.14.473-.115.916-.352 1.409-.549-.097-.181-.131-.291-.203-.371-.707-.789-.376-.736-1.418-.375-2.137.738-4.334 1.029-6.586.864-.378-.027-.767-.111-1.116-.253-.823-.335-1.09-.953-.705-1.77.241-.514.578-1.019.981-1.414 1.377-1.344 2.784-2.658 4.217-3.938.631-.562 1.356-1.016 2.039-1.52.154-.114.325-.213.46-.347.484-.481.341-1.064-.329-1.186-.68-.123-1.378-.143-2.067-.214-.919-.095-1.844-.156-2.754-.303-1.037-.168-1.31-.616-1.004-1.611.122-.397.346-.774.58-1.123 1.709-2.543 3.99-4.465 6.602-6.022.296-.178.618-.332.869-.561.368-.338.267-.848-.208-1.016-.317-.111-.676-.124-1.018-.138-1-.044-2.004-.038-3.003-.104-1.793-.118-2.342-.716-2.169-2.499.069-.708.26-1.473.627-2.071.799-1.31 1.639-2.625 2.657-3.764 1.819-2.038 3.744-3.986 5.697-5.9 1.578-1.547 3.415-2.796 5.447-3.647 3.939-1.651 7.909-3.236 11.91-4.73 2.93-1.096 6.039-1.526 9.105-2.099 3.558-.664 7.13-1.249 10.738-1.558 2.607-.223 5.222-.411 7.836-.499 4.696-.157 9.396-.205 14.094-.342 2.604-.078 5.128.33 7.655.915 3.373.782 6.774 1.447 10.169 2.136 2.308.469 4.557 1.135 6.768 1.934.502.182.985.438 1.446.712.911.543 1.207.563 2.074-.109 2.179-1.689 4.582-2.979 7.113-4.037.635-.265 1.308-.465 1.983-.604 1.098-.224 1.26-.077 1.497.998.228 1.027.061 1.99-.416 2.907-.757 1.456-1.806 2.679-3.065 3.722-.621.516-1.282.985-1.918 1.483-.241.189-.501.373-.688.609-.345.437-.116.994.443.989.484-.004.989-.137 1.443-.318 1.402-.561 2.831-1.02 4.331-1.195.837-.097 1.692-.142 2.533-.095 1.38.079 1.813 1.001 1.029 2.142-.878 1.277-2.095 2.134-3.531 2.689-.431.165-.883.279-1.308.459-.711.302-.789.914-.199 1.437.114.102.261.168.374.271.762.704 1.558 1.376 2.266 2.13.842.897 1.669 1.825 2.391 2.819.765 1.055 1.476 2.164 2.076 3.319.854 1.639 1.583 3.341 2.364 5.017.609 1.305.915 2.683 1.053 4.116.106 1.109.361 2.203.493 3.31.103.876.208 1.768.16 2.645-.109 1.945.287 3.825.594 5.72.03.19.098.376.111.566.096 1.456.248 2.913.258 4.371.027 4.085.037 8.171-.037 12.254-.028 1.533-.254 3.069-.475 4.591-.413 2.856-.808 5.718-1.359 8.549-.515 2.637-1.223 5.237-2.054 7.845 0-.423-.004-.845.001-1.267.054-4.777.159-9.555.149-14.332-.008-3.657-.232-7.309-.778-10.933-.34-2.244-.593-4.502-.989-6.736-.408-2.31-.818-4.632-1.453-6.885-.677-2.404-1.566-4.754-2.456-7.092-1.49-3.913-3.454-7.585-6.224-10.74-1.262-1.436-2.733-2.725-4.261-3.878-2.552-1.926-5.256-3.639-8.137-5.053-2.431-1.193-5.032-1.916-7.611-2.694-3.139-.947-6.332-1.697-9.595-1.997-3.027-.278-6.017-.922-9.076-.861-1.998.04-3.999-.047-5.994.036-1.38.057-2.749.336-4.128.463-2.724.248-5.446.534-8.11 1.16-2.322.546-4.621 1.193-6.916 1.841-3.13.885-6.089 2.178-8.85 3.901-2.714 1.694-5.378 3.458-7.722 5.661-2.075 1.951-3.58 4.321-4.988 6.763-1.662 2.886-2.846 5.975-3.887 9.125-.665 2.009-1.421 3.988-1.769 6.094-.533 3.225-1.181 6.433-1.643 9.668-.423 2.969-.79 5.953-.811 8.964-.028 3.93-.094 7.859-.099 11.787-.002 1.964.096 3.928.145 5.892.009.377.001.755.001 1.134-.052.007-.103.014-.155.021" fill="#997048" transform="matrix(4.16667 0 0 4.16667 216.85689408 21.67220567)"/><path d="m0-7.953c.198.197.399.305.435.452.079.332.124.688.097 1.026-.132 1.61.403 3.026 1.199 4.379.293.497.564 1.008.802 1.533.062.14.01.479-.062.503-.186.06-.415.004-.622-.029-.063-.009-.124-.089-.169-.151-1.08-1.515-2.069-3.074-2.107-5.021-.014-.692.007-1.387.061-2.077.014-.186.206-.357.366-.615" fill="#231f20" transform="matrix(4.16667 0 0 4.16667 589.0905252 1540.7109209)"/><path d="m0-4.047c.131 2.145-.885 3.862-2.035 5.527-.087.125-.195.265-.326.318-.162.067-.407.123-.526.045-.108-.071-.163-.342-.125-.495.064-.255.21-.493.339-.729.26-.473.543-.933.793-1.41.56-1.069.95-2.18.883-3.422-.027-.492.042-.997.128-1.485.021-.116.283-.239.447-.26.086-.01.271.185.286.304.069.533.096 1.071.136 1.607" fill="#231f20" transform="matrix(4.16667 0 0 4.16667 286.16944953 1532.98591472)"/><path d="m0-1.044c.001-.655-.022-1.31.007-1.963.04-.882.372-1.648 1.043-2.24.952-.84 2.289-.879 3.279-.088 1.067.851 1.717 1.943 1.941 3.302.258 1.581.329 3.154-.301 4.66-.575 1.376-1.603 2.235-3.136 2.376-.848.079-1.483-.265-1.919-1.01-.578-.989-.844-2.063-.907-3.189-.036-.614-.007-1.232-.007-1.848" fill="#231f20" transform="matrix(4.16667 0 0 4.16667 490.14461271 326.3349494)"/><path d="m0-.76c-.112 1.068-.183 2.142-.353 3.202-.084.52-.312 1.029-.534 1.515-.672 1.474-2.096 1.486-3.123 1.023-1.233-.557-2.011-1.526-2.321-2.847-.35-1.489-.313-2.987.054-4.463.255-1.027.852-1.858 1.608-2.619 1.245-1.254 3.431-.87 4.223.883.215.475.277 1.036.326 1.566.055.572.013 1.154.013 1.731.036.003.071.006.107.009" fill="#231f20" transform="matrix(4.16667 0 0 4.16667 383.66119419 325.44328202)"/><path d="m0 14.264c-4.091 1.512-8.51.125-10.401-3.696-.439-.89-.544-1.842-.648-2.793-.572-5.208 3.753-9.287 8.936-8.461 1.287.204 2.462.605 3.389 1.568.495.514.686 1.114.447 1.799-.055.156-.231.353-.372.371-.12.015-.362-.178-.392-.314-.272-1.239-1.288-1.634-2.293-1.834-2.2-.438-4.295-.117-6.111 1.337-1.037.83-1.701 1.883-1.85 3.216-.085.762-.194 1.538-.132 2.295.222 2.696 1.756 4.475 4.181 5.466 1.493.61 3.07 1.001 4.722.887.104-.007.213.062.524.159" fill="#231f20" transform="matrix(4.16667 0 0 4.16667 435.37373556 349.38913451)"/><path d="m0 10.886c4.605.101 8.231-2.117 11.584-4.957.379-.322.721-.697 1.037-1.081 1.331-1.618 2.16-3.444 2.26-5.565.009-.192-.018-.412.066-.568.114-.215.3-.507.489-.534.203-.029.492.171.65.351.135.155.177.423.194.645.108 1.479-.037 2.915-.695 4.277-.609 1.257-1.345 2.417-2.356 3.393-2.564 2.478-5.559 4.236-8.95 5.307-1.84.58-3.734.37-5.615.283-.42-.019-.84-.046-1.256-.098-.338-.043-.565-.239-.603-.597-.039-.353.107-.621.447-.709.33-.085.677-.128 1.017-.141.577-.022 1.153-.006 1.731-.006" fill="#231f20" transform="matrix(4.16667 0 0 4.16667 424.30706004 432.86836796)"/><path d="m0-5.298c2.503.104 4.654.28 6.61 1.323.673.358 1.293.823 1.91 1.276.207.153.39.397.471.638.06.176-.011.454-.127.609-.076.104-.361.144-.505.09-.319-.123-.619-.307-.909-.494-1.662-1.071-3.492-1.585-5.454-1.643-.885-.027-1.771-.014-2.656.004-.868.017-1.682.279-2.378.782-.32.23-.603.599-.745.967-.175.454.152.778.526 1.044.12.085.138.312.204.475-.203.063-.437.227-.6.173-.726-.24-1.528-.444-1.744-1.331-.217-.89.015-1.667.698-2.309.782-.735 1.704-1.194 2.745-1.383.753-.137 1.524-.175 1.954-.221" fill="#231f20" transform="matrix(4.16667 0 0 4.16667 200.56938105 452.1267167)"/><path d="m0-1.551c-2.444-.087-4.72.453-6.779 1.826-.626.417-1.057.418-1.217.078-.235-.499.167-.775.456-1.068 1.056-1.076 2.388-1.69 3.809-2.056 2.132-.547 4.308-.763 6.505-.397 1.127.188 2.122.657 2.95 1.456.46.446.731.975.738 1.632.015 1.085-.989 2.063-2.084 1.993-.121-.009-.262-.138-.337-.25-.041-.06.036-.203.069-.307.01-.032.047-.059.078-.081.354-.25.682-.509.617-1.017-.071-.562-.444-.922-.905-1.111-.701-.289-1.433-.535-2.175-.677-.557-.106-1.148-.021-1.725-.021" fill="#231f20" transform="matrix(4.16667 0 0 4.16667 668.63642217 444.02671022)"/><path d="m0 9.022c-.76-.112-1.524-.201-2.275-.351-.181-.036-.437-.272-.444-.426-.007-.152.229-.4.407-.459.32-.105.681-.157 1.016-.132 2.157.162 3.989-.62 5.676-1.872 1.672-1.241 3.032-2.719 3.707-4.74.095-.289.237-.568.394-.83.145-.242.444-.205.508.078.086.366.155.759.114 1.128-.143 1.297-.67 2.451-1.522 3.429-1.382 1.591-3.041 2.822-4.988 3.646-.822.349-1.679.559-2.593.529" fill="#231f20" transform="matrix(4.16667 0 0 4.16667 457.61958669 462.85172528)"/></g></svg>