<?xml version="1.0" encoding="UTF-8" standalone="no"?>
<!DOCTYPE svg PUBLIC "-//W3C//DTD SVG 1.1//EN" "http://www.w3.org/Graphics/SVG/1.1/DTD/svg11.dtd">
<svg width="100%" height="100%" viewBox="0 0 602 409" version="1.1" xmlns="http://www.w3.org/2000/svg" xmlns:xlink="http://www.w3.org/1999/xlink" xml:space="preserve" xmlns:serif="http://www.serif.com/" style="fill-rule:evenodd;clip-rule:evenodd;stroke-linejoin:round;stroke-miterlimit:2;">
    <g transform="matrix(1,0,0,1,-189,-1850)">
        <g id="l4">
            <g transform="matrix(4.16667,0,0,4.16667,565.317,2173.45)">
                <path d="M0,-76.357C0,-75.78 0.634,-75.314 1.415,-75.314L37.996,-75.314C45.276,-75.314 51.198,-70.949 51.198,-65.584L51.198,-10.774C51.198,-5.408 45.276,-1.043 37.996,-1.043L-8.694,-1.043C-9.476,-1.043 -10.109,-0.576 -10.109,0C-10.109,0.576 -9.476,1.043 -8.694,1.043L37.996,1.043C46.837,1.043 54.029,-4.258 54.029,-10.774L54.029,-65.584C54.029,-72.1 46.837,-77.4 37.996,-77.4L1.415,-77.4C0.634,-77.4 0,-76.933 0,-76.357" style="fill:rgb(0,183,197);fill-rule:nonzero;"/>
            </g>
            <g transform="matrix(4.16667,0,0,4.16667,547.809,1885.16)">
                <path d="M0,81.305C0.553,80.898 0.553,80.237 0,79.83C-0.553,79.422 -1.449,79.422 -2.002,79.83L-9.98,85.711L-9.98,73.509C-9.98,70.552 -13.242,68.147 -17.253,68.147L-69.946,68.147C-77.226,68.147 -83.148,63.783 -83.148,58.417L-83.148,3.607C-83.148,-1.759 -77.226,-6.124 -69.946,-6.124L-28.16,-6.124C-27.378,-6.124 -26.744,-6.59 -26.744,-7.167C-26.744,-7.742 -27.378,-8.21 -28.16,-8.21L-69.946,-8.21C-78.787,-8.21 -85.978,-2.908 -85.978,3.607L-85.978,58.417C-85.978,64.932 -78.787,70.233 -69.946,70.233L-17.253,70.233C-14.803,70.233 -12.811,71.702 -12.811,73.509L-12.811,85.332L-20.276,79.83C-20.828,79.422 -21.725,79.422 -22.278,79.83C-22.554,80.034 -22.692,80.3 -22.692,80.568C-22.692,80.834 -22.554,81.102 -22.278,81.305L-11.139,89.515L0,81.305Z" style="fill:rgb(0,183,197);fill-rule:nonzero;"/>
            </g>
            <g transform="matrix(45.8333,0,0,45.8333,209.96,1959.4)">
                <path d="M0.067,-0.74L0.067,0L0.15,0L0.15,-0.291L0.269,-0.291C0.365,-0.291 0.415,-0.303 0.464,-0.341C0.509,-0.376 0.54,-0.447 0.54,-0.517C0.54,-0.586 0.51,-0.655 0.461,-0.693C0.415,-0.728 0.366,-0.74 0.262,-0.74L0.067,-0.74ZM0.15,-0.667L0.266,-0.667C0.329,-0.667 0.367,-0.66 0.404,-0.636C0.437,-0.615 0.46,-0.568 0.46,-0.515C0.46,-0.463 0.437,-0.416 0.405,-0.395C0.368,-0.371 0.33,-0.364 0.268,-0.364L0.15,-0.364L0.15,-0.667Z" style="fill:rgb(0,183,198);fill-rule:nonzero;"/>
            </g>
            <g transform="matrix(45.8333,0,0,45.8333,235.259,1959.4)">
                <path d="M0.567,-0.538L0.493,-0.538L0.493,-0.234C0.493,-0.122 0.429,-0.055 0.317,-0.054C0.196,-0.053 0.144,-0.131 0.144,-0.247L0.144,-0.538L0.071,-0.538L0.071,-0.233C0.071,-0.102 0.13,0.012 0.298,0.015C0.394,0.016 0.467,-0.026 0.497,-0.096L0.497,0L0.567,0L0.567,-0.538Z" style="fill:rgb(0,183,198);fill-rule:nonzero;"/>
            </g>
            <g transform="matrix(45.8333,0,0,45.8333,264.546,1959.4)">
                <path d="M0.595,-0.248C0.603,-0.334 0.573,-0.417 0.511,-0.477C0.46,-0.526 0.39,-0.553 0.314,-0.553C0.153,-0.553 0.031,-0.426 0.031,-0.268C0.031,-0.134 0.128,0.015 0.315,0.015C0.37,0.015 0.423,0 0.468,-0.029C0.514,-0.058 0.552,-0.102 0.577,-0.16L0.5,-0.16C0.465,-0.09 0.398,-0.049 0.315,-0.049C0.224,-0.048 0.109,-0.113 0.105,-0.248L0.595,-0.248ZM0.106,-0.307C0.113,-0.405 0.199,-0.49 0.315,-0.49C0.426,-0.493 0.517,-0.401 0.522,-0.307L0.106,-0.307Z" style="fill:rgb(0,183,198);fill-rule:nonzero;"/>
            </g>
            <g transform="matrix(45.8333,0,0,45.8333,293.329,1959.4)">
                <path d="M0.61,-0.74L0.536,-0.74L0.536,-0.429C0.512,-0.485 0.434,-0.553 0.316,-0.553C0.155,-0.553 0.039,-0.43 0.039,-0.27C0.039,-0.119 0.145,0.015 0.317,0.015C0.429,0.015 0.501,-0.04 0.539,-0.111L0.539,0L0.61,0L0.61,-0.74ZM0.112,-0.27C0.112,-0.391 0.203,-0.485 0.327,-0.485C0.387,-0.485 0.441,-0.462 0.479,-0.423C0.518,-0.385 0.541,-0.333 0.541,-0.272C0.543,-0.212 0.52,-0.157 0.481,-0.117C0.443,-0.078 0.388,-0.054 0.328,-0.054C0.188,-0.054 0.113,-0.161 0.112,-0.269L0.112,-0.27Z" style="fill:rgb(0,183,198);fill-rule:nonzero;"/>
            </g>
            <g transform="matrix(45.8333,0,0,45.8333,324.679,1959.4)">
                <path d="M0.595,-0.248C0.603,-0.334 0.573,-0.417 0.511,-0.477C0.46,-0.526 0.39,-0.553 0.314,-0.553C0.153,-0.553 0.031,-0.426 0.031,-0.268C0.031,-0.134 0.128,0.015 0.315,0.015C0.37,0.015 0.423,0 0.468,-0.029C0.514,-0.058 0.552,-0.102 0.577,-0.16L0.5,-0.16C0.465,-0.09 0.398,-0.049 0.315,-0.049C0.224,-0.048 0.109,-0.113 0.105,-0.248L0.595,-0.248ZM0.106,-0.307C0.113,-0.405 0.199,-0.49 0.315,-0.49C0.426,-0.493 0.517,-0.401 0.522,-0.307L0.106,-0.307Z" style="fill:rgb(0,183,198);fill-rule:nonzero;"/>
            </g>
            <g transform="matrix(45.8333,0,0,45.8333,366.661,1959.4)">
                <path d="M0.072,0L0.145,0L0.145,-0.293C0.145,-0.415 0.203,-0.48 0.307,-0.48L0.314,-0.48L0.314,-0.553C0.251,-0.551 0.181,-0.53 0.142,-0.45L0.142,-0.538L0.072,-0.538L0.072,0Z" style="fill:rgb(0,183,198);fill-rule:nonzero;"/>
            </g>
            <g transform="matrix(45.8333,0,0,45.8333,379.678,1959.4)">
                <path d="M0.595,-0.248C0.603,-0.334 0.573,-0.417 0.511,-0.477C0.46,-0.526 0.39,-0.553 0.314,-0.553C0.153,-0.553 0.031,-0.426 0.031,-0.268C0.031,-0.134 0.128,0.015 0.315,0.015C0.37,0.015 0.423,0 0.468,-0.029C0.514,-0.058 0.552,-0.102 0.577,-0.16L0.5,-0.16C0.465,-0.09 0.398,-0.049 0.315,-0.049C0.224,-0.048 0.109,-0.113 0.105,-0.248L0.595,-0.248ZM0.106,-0.307C0.113,-0.405 0.199,-0.49 0.315,-0.49C0.426,-0.493 0.517,-0.401 0.522,-0.307L0.106,-0.307Z" style="fill:rgb(0,183,198);fill-rule:nonzero;"/>
            </g>
            <g transform="matrix(45.8333,0,0,45.8333,408.461,1959.4)">
                <path d="M0.61,-0.74L0.536,-0.74L0.536,-0.429C0.512,-0.485 0.434,-0.553 0.316,-0.553C0.155,-0.553 0.039,-0.43 0.039,-0.27C0.039,-0.119 0.145,0.015 0.317,0.015C0.429,0.015 0.501,-0.04 0.539,-0.111L0.539,0L0.61,0L0.61,-0.74ZM0.112,-0.27C0.112,-0.391 0.203,-0.485 0.327,-0.485C0.387,-0.485 0.441,-0.462 0.479,-0.423C0.518,-0.385 0.541,-0.333 0.541,-0.272C0.543,-0.212 0.52,-0.157 0.481,-0.117C0.443,-0.078 0.388,-0.054 0.328,-0.054C0.188,-0.054 0.113,-0.161 0.112,-0.269L0.112,-0.27Z" style="fill:rgb(0,183,198);fill-rule:nonzero;"/>
            </g>
            <g transform="matrix(45.8333,0,0,45.8333,439.81,1959.4)">
                <path d="M0.567,-0.538L0.493,-0.538L0.493,-0.234C0.493,-0.122 0.429,-0.055 0.317,-0.054C0.196,-0.053 0.144,-0.131 0.144,-0.247L0.144,-0.538L0.071,-0.538L0.071,-0.233C0.071,-0.102 0.13,0.012 0.298,0.015C0.394,0.016 0.467,-0.026 0.497,-0.096L0.497,0L0.567,0L0.567,-0.538Z" style="fill:rgb(0,183,198);fill-rule:nonzero;"/>
            </g>
            <g transform="matrix(45.8333,0,0,45.8333,469.097,1959.4)">
                <path d="M0.519,-0.182C0.496,-0.117 0.427,-0.055 0.324,-0.054C0.208,-0.054 0.112,-0.142 0.112,-0.269C0.112,-0.331 0.137,-0.389 0.173,-0.424C0.218,-0.466 0.262,-0.485 0.325,-0.485C0.401,-0.485 0.486,-0.443 0.52,-0.352L0.596,-0.352C0.559,-0.481 0.443,-0.553 0.322,-0.553C0.159,-0.553 0.038,-0.428 0.038,-0.269C0.038,-0.125 0.145,0.015 0.327,0.015C0.456,0.015 0.561,-0.068 0.596,-0.182L0.519,-0.182Z" style="fill:rgb(0,183,198);fill-rule:nonzero;"/>
            </g>
            <g transform="matrix(45.8333,0,0,45.8333,497.972,1959.4)">
                <path d="M0.072,-0.637L0.146,-0.637L0.146,-0.74L0.072,-0.74L0.072,-0.637ZM0.072,0L0.146,0L0.146,-0.538L0.072,-0.538L0.072,0Z" style="fill:rgb(0,183,198);fill-rule:nonzero;"/>
            </g>
            <g transform="matrix(45.8333,0,0,45.8333,507.963,1959.4)">
                <path d="M0.072,0L0.145,0L0.145,-0.293C0.145,-0.415 0.203,-0.48 0.307,-0.48L0.314,-0.48L0.314,-0.553C0.251,-0.551 0.181,-0.53 0.142,-0.45L0.142,-0.538L0.072,-0.538L0.072,0Z" style="fill:rgb(0,183,198);fill-rule:nonzero;"/>
            </g>
            <g transform="matrix(45.8333,0,0,45.8333,535.921,1959.4)">
                <rect x="0.072" y="-0.74" width="0.074" height="0.74" style="fill:rgb(0,183,198);fill-rule:nonzero;"/>
            </g>
            <g transform="matrix(45.8333,0,0,45.8333,545.866,1959.4)">
                <path d="M0.612,-0.538L0.538,-0.538L0.538,-0.425C0.512,-0.486 0.433,-0.553 0.318,-0.553C0.154,-0.553 0.039,-0.427 0.039,-0.269C0.039,-0.121 0.143,0.015 0.318,0.015C0.414,0.015 0.496,-0.03 0.538,-0.111L0.538,0L0.612,0L0.612,-0.538ZM0.112,-0.269C0.112,-0.389 0.202,-0.485 0.326,-0.485C0.421,-0.485 0.493,-0.43 0.523,-0.356C0.535,-0.33 0.541,-0.3 0.54,-0.27C0.54,-0.241 0.534,-0.211 0.522,-0.185C0.493,-0.109 0.423,-0.054 0.328,-0.054C0.18,-0.054 0.113,-0.171 0.112,-0.268L0.112,-0.269Z" style="fill:rgb(0,183,198);fill-rule:nonzero;"/>
            </g>
            <g transform="matrix(45.8333,0,0,45.8333,590.416,1959.4)">
                <path d="M0.072,0.204L0.146,0.204L0.146,-0.11C0.171,-0.054 0.248,0.015 0.367,0.015C0.534,0.015 0.643,-0.117 0.643,-0.267C0.643,-0.406 0.548,-0.553 0.367,-0.553C0.264,-0.553 0.186,-0.504 0.142,-0.426L0.142,-0.538L0.072,-0.538L0.072,0.204ZM0.569,-0.269C0.569,-0.146 0.476,-0.054 0.355,-0.054C0.295,-0.054 0.241,-0.077 0.203,-0.115C0.164,-0.154 0.141,-0.208 0.141,-0.268C0.141,-0.329 0.164,-0.383 0.201,-0.422C0.24,-0.461 0.293,-0.485 0.353,-0.485C0.498,-0.485 0.569,-0.371 0.569,-0.27L0.569,-0.269Z" style="fill:rgb(0,183,198);fill-rule:nonzero;"/>
            </g>
            <g transform="matrix(45.8333,0,0,45.8333,621.765,1959.4)">
                <path d="M0.072,0L0.145,0L0.145,-0.293C0.145,-0.415 0.203,-0.48 0.307,-0.48L0.314,-0.48L0.314,-0.553C0.251,-0.551 0.181,-0.53 0.142,-0.45L0.142,-0.538L0.072,-0.538L0.072,0Z" style="fill:rgb(0,183,198);fill-rule:nonzero;"/>
            </g>
            <g transform="matrix(45.8333,0,0,45.8333,634.598,1959.4)">
                <path d="M0.039,-0.269C0.039,-0.118 0.151,0.014 0.324,0.014C0.498,0.014 0.61,-0.118 0.61,-0.269C0.61,-0.42 0.498,-0.553 0.324,-0.553C0.151,-0.553 0.039,-0.42 0.039,-0.27L0.039,-0.269ZM0.112,-0.269C0.112,-0.392 0.205,-0.484 0.324,-0.484C0.444,-0.484 0.536,-0.392 0.536,-0.269C0.536,-0.146 0.444,-0.054 0.324,-0.054C0.205,-0.054 0.112,-0.146 0.112,-0.268L0.112,-0.269Z" style="fill:rgb(0,183,198);fill-rule:nonzero;"/>
            </g>
            <g transform="matrix(45.8333,0,0,45.8333,664.343,1959.4)">
                <path d="M0.61,-0.74L0.536,-0.74L0.536,-0.429C0.512,-0.485 0.434,-0.553 0.316,-0.553C0.155,-0.553 0.039,-0.43 0.039,-0.27C0.039,-0.119 0.145,0.015 0.317,0.015C0.429,0.015 0.501,-0.04 0.539,-0.111L0.539,0L0.61,0L0.61,-0.74ZM0.112,-0.27C0.112,-0.391 0.203,-0.485 0.327,-0.485C0.387,-0.485 0.441,-0.462 0.479,-0.423C0.518,-0.385 0.541,-0.333 0.541,-0.272C0.543,-0.212 0.52,-0.157 0.481,-0.117C0.443,-0.078 0.388,-0.054 0.328,-0.054C0.188,-0.054 0.113,-0.161 0.112,-0.269L0.112,-0.27Z" style="fill:rgb(0,183,198);fill-rule:nonzero;"/>
            </g>
            <g transform="matrix(45.8333,0,0,45.8333,695.693,1959.4)">
                <path d="M0.567,-0.538L0.493,-0.538L0.493,-0.234C0.493,-0.122 0.429,-0.055 0.317,-0.054C0.196,-0.053 0.144,-0.131 0.144,-0.247L0.144,-0.538L0.071,-0.538L0.071,-0.233C0.071,-0.102 0.13,0.012 0.298,0.015C0.394,0.016 0.467,-0.026 0.497,-0.096L0.497,0L0.567,0L0.567,-0.538Z" style="fill:rgb(0,183,198);fill-rule:nonzero;"/>
            </g>
            <g transform="matrix(45.8333,0,0,45.8333,724.98,1959.4)">
                <path d="M0.519,-0.182C0.496,-0.117 0.427,-0.055 0.324,-0.054C0.208,-0.054 0.112,-0.142 0.112,-0.269C0.112,-0.331 0.137,-0.389 0.173,-0.424C0.218,-0.466 0.262,-0.485 0.325,-0.485C0.401,-0.485 0.486,-0.443 0.52,-0.352L0.596,-0.352C0.559,-0.481 0.443,-0.553 0.322,-0.553C0.159,-0.553 0.038,-0.428 0.038,-0.269C0.038,-0.125 0.145,0.015 0.327,0.015C0.456,0.015 0.561,-0.068 0.596,-0.182L0.519,-0.182Z" style="fill:rgb(0,183,198);fill-rule:nonzero;"/>
            </g>
            <g transform="matrix(45.8333,0,0,45.8333,753.855,1959.4)">
                <rect x="0" y="-0.317" width="0.271" height="0.073" style="fill:rgb(0,183,198);fill-rule:nonzero;"/>
            </g>
            <g transform="matrix(45.8333,0,0,45.8333,256.664,2017.73)">
                <path d="M0.519,-0.182C0.496,-0.117 0.427,-0.055 0.324,-0.054C0.208,-0.054 0.112,-0.142 0.112,-0.269C0.112,-0.331 0.137,-0.389 0.173,-0.424C0.218,-0.466 0.262,-0.485 0.325,-0.485C0.401,-0.485 0.486,-0.443 0.52,-0.352L0.596,-0.352C0.559,-0.481 0.443,-0.553 0.322,-0.553C0.159,-0.553 0.038,-0.428 0.038,-0.269C0.038,-0.125 0.145,0.015 0.327,0.015C0.456,0.015 0.561,-0.068 0.596,-0.182L0.519,-0.182Z" style="fill:rgb(0,183,198);fill-rule:nonzero;"/>
            </g>
            <g transform="matrix(45.8333,0,0,45.8333,285.538,2017.73)">
                <path d="M0.072,-0.637L0.146,-0.637L0.146,-0.74L0.072,-0.74L0.072,-0.637ZM0.072,0L0.146,0L0.146,-0.538L0.072,-0.538L0.072,0Z" style="fill:rgb(0,183,198);fill-rule:nonzero;"/>
            </g>
            <g transform="matrix(45.8333,0,0,45.8333,295.53,2017.73)">
                <path d="M0.039,-0.269C0.039,-0.118 0.151,0.014 0.324,0.014C0.498,0.014 0.61,-0.118 0.61,-0.269C0.61,-0.42 0.498,-0.553 0.324,-0.553C0.151,-0.553 0.039,-0.42 0.039,-0.27L0.039,-0.269ZM0.112,-0.269C0.112,-0.392 0.205,-0.484 0.324,-0.484C0.444,-0.484 0.536,-0.392 0.536,-0.269C0.536,-0.146 0.444,-0.054 0.324,-0.054C0.205,-0.054 0.112,-0.146 0.112,-0.268L0.112,-0.269ZM0.201,-0.648L0.225,-0.6L0.466,-0.729L0.439,-0.783L0.201,-0.648Z" style="fill:rgb(0,183,198);fill-rule:nonzero;"/>
            </g>
            <g transform="matrix(45.8333,0,0,45.8333,325.275,2017.73)">
                <path d="M0.072,0L0.146,0L0.146,-0.304C0.146,-0.416 0.21,-0.483 0.321,-0.484C0.442,-0.486 0.494,-0.407 0.494,-0.291L0.494,0L0.567,0L0.567,-0.306C0.567,-0.437 0.508,-0.551 0.341,-0.553C0.245,-0.555 0.172,-0.512 0.141,-0.442C0.142,-0.478 0.142,-0.508 0.142,-0.538L0.072,-0.538L0.072,0Z" style="fill:rgb(0,183,198);fill-rule:nonzero;"/>
            </g>
            <g transform="matrix(45.8333,0,0,45.8333,367.718,2017.73)">
                <path d="M0.61,-0.74L0.536,-0.74L0.536,-0.429C0.512,-0.485 0.434,-0.553 0.316,-0.553C0.155,-0.553 0.039,-0.43 0.039,-0.27C0.039,-0.119 0.145,0.015 0.317,0.015C0.429,0.015 0.501,-0.04 0.539,-0.111L0.539,0L0.61,0L0.61,-0.74ZM0.112,-0.27C0.112,-0.391 0.203,-0.485 0.327,-0.485C0.387,-0.485 0.441,-0.462 0.479,-0.423C0.518,-0.385 0.541,-0.333 0.541,-0.272C0.543,-0.212 0.52,-0.157 0.481,-0.117C0.443,-0.078 0.388,-0.054 0.328,-0.054C0.188,-0.054 0.113,-0.161 0.112,-0.269L0.112,-0.27Z" style="fill:rgb(0,183,198);fill-rule:nonzero;"/>
            </g>
            <g transform="matrix(45.8333,0,0,45.8333,399.068,2017.73)">
                <path d="M0.595,-0.248C0.603,-0.334 0.573,-0.417 0.511,-0.477C0.46,-0.526 0.39,-0.553 0.314,-0.553C0.153,-0.553 0.031,-0.426 0.031,-0.268C0.031,-0.134 0.128,0.015 0.315,0.015C0.37,0.015 0.423,0 0.468,-0.029C0.514,-0.058 0.552,-0.102 0.577,-0.16L0.5,-0.16C0.465,-0.09 0.398,-0.049 0.315,-0.049C0.224,-0.048 0.109,-0.113 0.105,-0.248L0.595,-0.248ZM0.106,-0.307C0.113,-0.405 0.199,-0.49 0.315,-0.49C0.426,-0.493 0.517,-0.401 0.522,-0.307L0.106,-0.307Z" style="fill:rgb(0,183,198);fill-rule:nonzero;"/>
            </g>
            <g transform="matrix(45.8333,0,0,45.8333,441.053,2017.73)">
                <path d="M0.519,-0.182C0.496,-0.117 0.427,-0.055 0.324,-0.054C0.208,-0.054 0.112,-0.142 0.112,-0.269C0.112,-0.331 0.137,-0.389 0.173,-0.424C0.218,-0.466 0.262,-0.485 0.325,-0.485C0.401,-0.485 0.486,-0.443 0.52,-0.352L0.596,-0.352C0.559,-0.481 0.443,-0.553 0.322,-0.553C0.159,-0.553 0.038,-0.428 0.038,-0.269C0.038,-0.125 0.145,0.015 0.327,0.015C0.456,0.015 0.561,-0.068 0.596,-0.182L0.519,-0.182Z" style="fill:rgb(0,183,198);fill-rule:nonzero;"/>
            </g>
            <g transform="matrix(45.8333,0,0,45.8333,469.927,2017.73)">
                <path d="M0.039,-0.269C0.039,-0.118 0.151,0.014 0.324,0.014C0.498,0.014 0.61,-0.118 0.61,-0.269C0.61,-0.42 0.498,-0.553 0.324,-0.553C0.151,-0.553 0.039,-0.42 0.039,-0.27L0.039,-0.269ZM0.112,-0.269C0.112,-0.392 0.205,-0.484 0.324,-0.484C0.444,-0.484 0.536,-0.392 0.536,-0.269C0.536,-0.146 0.444,-0.054 0.324,-0.054C0.205,-0.054 0.112,-0.146 0.112,-0.268L0.112,-0.269Z" style="fill:rgb(0,183,198);fill-rule:nonzero;"/>
            </g>
            <g transform="matrix(45.8333,0,0,45.8333,499.673,2017.73)">
                <rect x="0.072" y="-0.74" width="0.074" height="0.74" style="fill:rgb(0,183,198);fill-rule:nonzero;"/>
            </g>
            <g transform="matrix(45.8333,0,0,45.8333,509.618,2017.73)">
                <path d="M0.612,-0.538L0.538,-0.538L0.538,-0.425C0.512,-0.486 0.433,-0.553 0.318,-0.553C0.154,-0.553 0.039,-0.427 0.039,-0.269C0.039,-0.121 0.143,0.015 0.318,0.015C0.414,0.015 0.496,-0.03 0.538,-0.111L0.538,0L0.612,0L0.612,-0.538ZM0.112,-0.269C0.112,-0.389 0.202,-0.485 0.326,-0.485C0.421,-0.485 0.493,-0.43 0.523,-0.356C0.535,-0.33 0.541,-0.3 0.54,-0.27C0.54,-0.241 0.534,-0.211 0.522,-0.185C0.493,-0.109 0.423,-0.054 0.328,-0.054C0.18,-0.054 0.113,-0.171 0.112,-0.268L0.112,-0.269ZM0.219,-0.648L0.243,-0.6L0.484,-0.729L0.457,-0.783L0.219,-0.648Z" style="fill:rgb(0,183,198);fill-rule:nonzero;"/>
            </g>
            <g transform="matrix(45.8333,0,0,45.8333,540.968,2017.73)">
                <path d="M0.61,-0.538L0.537,-0.538L0.537,-0.427C0.507,-0.493 0.425,-0.553 0.319,-0.553C0.155,-0.553 0.038,-0.429 0.038,-0.268C0.038,-0.113 0.151,0.015 0.319,0.015C0.423,0.015 0.498,-0.038 0.536,-0.114L0.536,-0.045C0.536,0.089 0.431,0.169 0.328,0.169C0.294,0.169 0.248,0.158 0.209,0.13C0.177,0.108 0.158,0.082 0.145,0.059L0.06,0.059C0.094,0.156 0.192,0.233 0.326,0.233C0.399,0.233 0.477,0.202 0.53,0.15C0.577,0.105 0.61,0.04 0.61,-0.062L0.61,-0.538ZM0.112,-0.27C0.112,-0.396 0.208,-0.484 0.326,-0.484C0.403,-0.484 0.457,-0.452 0.49,-0.409C0.524,-0.366 0.539,-0.313 0.539,-0.268C0.538,-0.209 0.516,-0.155 0.479,-0.116C0.441,-0.077 0.389,-0.054 0.328,-0.054C0.189,-0.054 0.112,-0.16 0.112,-0.269L0.112,-0.27Z" style="fill:rgb(0,183,198);fill-rule:nonzero;"/>
            </g>
            <g transform="matrix(45.8333,0,0,45.8333,572.18,2017.73)">
                <path d="M0.595,-0.248C0.603,-0.334 0.573,-0.417 0.511,-0.477C0.46,-0.526 0.39,-0.553 0.314,-0.553C0.153,-0.553 0.031,-0.426 0.031,-0.268C0.031,-0.134 0.128,0.015 0.315,0.015C0.37,0.015 0.423,0 0.468,-0.029C0.514,-0.058 0.552,-0.102 0.577,-0.16L0.5,-0.16C0.465,-0.09 0.398,-0.049 0.315,-0.049C0.224,-0.048 0.109,-0.113 0.105,-0.248L0.595,-0.248ZM0.106,-0.307C0.113,-0.405 0.199,-0.49 0.315,-0.49C0.426,-0.493 0.517,-0.401 0.522,-0.307L0.106,-0.307Z" style="fill:rgb(0,183,198);fill-rule:nonzero;"/>
            </g>
            <g transform="matrix(45.8333,0,0,45.8333,600.963,2017.73)">
                <path d="M0.072,0L0.146,0L0.146,-0.304C0.146,-0.416 0.21,-0.483 0.321,-0.484C0.442,-0.486 0.494,-0.407 0.494,-0.291L0.494,0L0.567,0L0.567,-0.306C0.567,-0.437 0.508,-0.551 0.341,-0.553C0.245,-0.555 0.172,-0.512 0.141,-0.442C0.142,-0.478 0.142,-0.508 0.142,-0.538L0.072,-0.538L0.072,0Z" style="fill:rgb(0,183,198);fill-rule:nonzero;"/>
            </g>
            <g transform="matrix(45.8333,0,0,45.8333,630.205,2017.73)">
                <path d="M0.039,-0.269C0.039,-0.118 0.151,0.014 0.324,0.014C0.498,0.014 0.61,-0.118 0.61,-0.269C0.61,-0.42 0.498,-0.553 0.324,-0.553C0.151,-0.553 0.039,-0.42 0.039,-0.27L0.039,-0.269ZM0.112,-0.269C0.112,-0.392 0.205,-0.484 0.324,-0.484C0.444,-0.484 0.536,-0.392 0.536,-0.269C0.536,-0.146 0.444,-0.054 0.324,-0.054C0.205,-0.054 0.112,-0.146 0.112,-0.268L0.112,-0.269Z" style="fill:rgb(0,183,198);fill-rule:nonzero;"/>
            </g>
            <g transform="matrix(45.8333,0,0,45.8333,658.804,2017.73)">
                <path d="M0.185,-0.111L0.106,-0.111L0.043,0.075L0.11,0.075L0.185,-0.111Z" style="fill:rgb(0,183,198);fill-rule:nonzero;"/>
            </g>
            <g transform="matrix(45.8333,0,0,45.8333,679.889,2017.73)">
                <rect x="0.072" y="-0.74" width="0.074" height="0.74" style="fill:rgb(0,183,198);fill-rule:nonzero;"/>
            </g>
            <g transform="matrix(45.8333,0,0,45.8333,689.835,2017.73)">
                <path d="M0.039,-0.269C0.039,-0.118 0.151,0.014 0.324,0.014C0.498,0.014 0.61,-0.118 0.61,-0.269C0.61,-0.42 0.498,-0.553 0.324,-0.553C0.151,-0.553 0.039,-0.42 0.039,-0.27L0.039,-0.269ZM0.112,-0.269C0.112,-0.392 0.205,-0.484 0.324,-0.484C0.444,-0.484 0.536,-0.392 0.536,-0.269C0.536,-0.146 0.444,-0.054 0.324,-0.054C0.205,-0.054 0.112,-0.146 0.112,-0.268L0.112,-0.269Z" style="fill:rgb(0,183,198);fill-rule:nonzero;"/>
            </g>
            <g transform="matrix(45.8333,0,0,45.8333,250.889,2076.07)">
                <path d="M0.61,-0.538L0.539,-0.538L0.539,-0.43C0.502,-0.497 0.428,-0.553 0.318,-0.553C0.151,-0.553 0.039,-0.425 0.039,-0.266C0.039,-0.115 0.148,0.015 0.314,0.015C0.435,0.015 0.511,-0.054 0.536,-0.109L0.536,0.204L0.61,0.204L0.61,-0.538ZM0.112,-0.268C0.113,-0.372 0.184,-0.485 0.328,-0.485C0.387,-0.485 0.442,-0.461 0.48,-0.421C0.519,-0.382 0.542,-0.328 0.54,-0.268C0.54,-0.208 0.517,-0.154 0.479,-0.116C0.44,-0.077 0.387,-0.054 0.327,-0.054C0.203,-0.054 0.112,-0.149 0.112,-0.267L0.112,-0.268Z" style="fill:rgb(0,183,198);fill-rule:nonzero;"/>
            </g>
            <g transform="matrix(45.8333,0,0,45.8333,282.147,2076.07)">
                <path d="M0.567,-0.538L0.493,-0.538L0.493,-0.234C0.493,-0.122 0.429,-0.055 0.317,-0.054C0.196,-0.053 0.144,-0.131 0.144,-0.247L0.144,-0.538L0.071,-0.538L0.071,-0.233C0.071,-0.102 0.13,0.012 0.298,0.015C0.394,0.016 0.467,-0.026 0.497,-0.096L0.497,0L0.567,0L0.567,-0.538Z" style="fill:rgb(0,183,198);fill-rule:nonzero;"/>
            </g>
            <g transform="matrix(45.8333,0,0,45.8333,311.434,2076.07)">
                <path d="M0.595,-0.248C0.603,-0.334 0.573,-0.417 0.511,-0.477C0.46,-0.526 0.39,-0.553 0.314,-0.553C0.153,-0.553 0.031,-0.426 0.031,-0.268C0.031,-0.134 0.128,0.015 0.315,0.015C0.37,0.015 0.423,0 0.468,-0.029C0.514,-0.058 0.552,-0.102 0.577,-0.16L0.5,-0.16C0.465,-0.09 0.398,-0.049 0.315,-0.049C0.224,-0.048 0.109,-0.113 0.105,-0.248L0.595,-0.248ZM0.106,-0.307C0.113,-0.405 0.199,-0.49 0.315,-0.49C0.426,-0.493 0.517,-0.401 0.522,-0.307L0.106,-0.307Z" style="fill:rgb(0,183,198);fill-rule:nonzero;"/>
            </g>
            <g transform="matrix(45.8333,0,0,45.8333,353.417,2076.07)">
                <path d="M0.072,0.204L0.146,0.204L0.146,-0.11C0.171,-0.054 0.248,0.015 0.367,0.015C0.534,0.015 0.643,-0.117 0.643,-0.267C0.643,-0.406 0.548,-0.553 0.367,-0.553C0.264,-0.553 0.186,-0.504 0.142,-0.426L0.142,-0.538L0.072,-0.538L0.072,0.204ZM0.569,-0.269C0.569,-0.146 0.476,-0.054 0.355,-0.054C0.295,-0.054 0.241,-0.077 0.203,-0.115C0.164,-0.154 0.141,-0.208 0.141,-0.268C0.141,-0.329 0.164,-0.383 0.201,-0.422C0.24,-0.461 0.293,-0.485 0.353,-0.485C0.498,-0.485 0.569,-0.371 0.569,-0.27L0.569,-0.269Z" style="fill:rgb(0,183,198);fill-rule:nonzero;"/>
            </g>
            <g transform="matrix(45.8333,0,0,45.8333,384.767,2076.07)">
                <path d="M0.072,0L0.145,0L0.145,-0.293C0.145,-0.415 0.203,-0.48 0.307,-0.48L0.314,-0.48L0.314,-0.553C0.251,-0.551 0.181,-0.53 0.142,-0.45L0.142,-0.538L0.072,-0.538L0.072,0Z" style="fill:rgb(0,183,198);fill-rule:nonzero;"/>
            </g>
            <g transform="matrix(45.8333,0,0,45.8333,397.6,2076.07)">
                <path d="M0.039,-0.269C0.039,-0.118 0.151,0.014 0.324,0.014C0.498,0.014 0.61,-0.118 0.61,-0.269C0.61,-0.42 0.498,-0.553 0.324,-0.553C0.151,-0.553 0.039,-0.42 0.039,-0.27L0.039,-0.269ZM0.112,-0.269C0.112,-0.392 0.205,-0.484 0.324,-0.484C0.444,-0.484 0.536,-0.392 0.536,-0.269C0.536,-0.146 0.444,-0.054 0.324,-0.054C0.205,-0.054 0.112,-0.146 0.112,-0.268L0.112,-0.269Z" style="fill:rgb(0,183,198);fill-rule:nonzero;"/>
            </g>
            <g transform="matrix(45.8333,0,0,45.8333,426.2,2076.07)">
                <path d="M0.509,-0.538L0.431,-0.538L0.259,-0.091L0.086,-0.538L0.008,-0.538L0.22,0L0.297,0L0.509,-0.538Z" style="fill:rgb(0,183,198);fill-rule:nonzero;"/>
            </g>
            <g transform="matrix(45.8333,0,0,45.8333,448.795,2076.07)">
                <path d="M0.039,-0.269C0.039,-0.118 0.151,0.014 0.324,0.014C0.498,0.014 0.61,-0.118 0.61,-0.269C0.61,-0.42 0.498,-0.553 0.324,-0.553C0.151,-0.553 0.039,-0.42 0.039,-0.27L0.039,-0.269ZM0.112,-0.269C0.112,-0.392 0.205,-0.484 0.324,-0.484C0.444,-0.484 0.536,-0.392 0.536,-0.269C0.536,-0.146 0.444,-0.054 0.324,-0.054C0.205,-0.054 0.112,-0.146 0.112,-0.268L0.112,-0.269Z" style="fill:rgb(0,183,198);fill-rule:nonzero;"/>
            </g>
            <g transform="matrix(45.8333,0,0,45.8333,478.541,2076.07)">
                <path d="M0.519,-0.182C0.496,-0.117 0.427,-0.055 0.324,-0.054C0.208,-0.054 0.112,-0.142 0.112,-0.269C0.112,-0.331 0.137,-0.389 0.173,-0.424C0.218,-0.466 0.262,-0.485 0.325,-0.485C0.401,-0.485 0.486,-0.443 0.52,-0.352L0.596,-0.352C0.559,-0.481 0.443,-0.553 0.322,-0.553C0.159,-0.553 0.038,-0.428 0.038,-0.269C0.038,-0.125 0.145,0.015 0.327,0.015C0.456,0.015 0.561,-0.068 0.596,-0.182L0.519,-0.182Z" style="fill:rgb(0,183,198);fill-rule:nonzero;"/>
            </g>
            <g transform="matrix(45.8333,0,0,45.8333,507.415,2076.07)">
                <path d="M0.612,-0.538L0.538,-0.538L0.538,-0.425C0.512,-0.486 0.433,-0.553 0.318,-0.553C0.154,-0.553 0.039,-0.427 0.039,-0.269C0.039,-0.121 0.143,0.015 0.318,0.015C0.414,0.015 0.496,-0.03 0.538,-0.111L0.538,0L0.612,0L0.612,-0.538ZM0.112,-0.269C0.112,-0.389 0.202,-0.485 0.326,-0.485C0.421,-0.485 0.493,-0.43 0.523,-0.356C0.535,-0.33 0.541,-0.3 0.54,-0.27C0.54,-0.241 0.534,-0.211 0.522,-0.185C0.493,-0.109 0.423,-0.054 0.328,-0.054C0.18,-0.054 0.113,-0.171 0.112,-0.268L0.112,-0.269Z" style="fill:rgb(0,183,198);fill-rule:nonzero;"/>
            </g>
            <g transform="matrix(45.8333,0,0,45.8333,551.965,2076.07)">
                <path d="M0.612,-0.538L0.538,-0.538L0.538,-0.425C0.512,-0.486 0.433,-0.553 0.318,-0.553C0.154,-0.553 0.039,-0.427 0.039,-0.269C0.039,-0.121 0.143,0.015 0.318,0.015C0.414,0.015 0.496,-0.03 0.538,-0.111L0.538,0L0.612,0L0.612,-0.538ZM0.112,-0.269C0.112,-0.389 0.202,-0.485 0.326,-0.485C0.421,-0.485 0.493,-0.43 0.523,-0.356C0.535,-0.33 0.541,-0.3 0.54,-0.27C0.54,-0.241 0.534,-0.211 0.522,-0.185C0.493,-0.109 0.423,-0.054 0.328,-0.054C0.18,-0.054 0.113,-0.171 0.112,-0.268L0.112,-0.269Z" style="fill:rgb(0,183,198);fill-rule:nonzero;"/>
            </g>
            <g transform="matrix(45.8333,0,0,45.8333,583.315,2076.07)">
                <path d="M0.072,0L0.145,0L0.145,-0.293C0.145,-0.415 0.203,-0.48 0.307,-0.48L0.314,-0.48L0.314,-0.553C0.251,-0.551 0.181,-0.53 0.142,-0.45L0.142,-0.538L0.072,-0.538L0.072,0Z" style="fill:rgb(0,183,198);fill-rule:nonzero;"/>
            </g>
            <g transform="matrix(45.8333,0,0,45.8333,598.073,2076.07)">
                <path d="M0.072,0L0.145,0L0.145,-0.293C0.145,-0.415 0.203,-0.48 0.307,-0.48L0.314,-0.48L0.314,-0.553C0.251,-0.551 0.181,-0.53 0.142,-0.45L0.142,-0.538L0.072,-0.538L0.072,0Z" style="fill:rgb(0,183,198);fill-rule:nonzero;"/>
            </g>
            <g transform="matrix(45.8333,0,0,45.8333,612.831,2076.07)">
                <path d="M0.567,-0.538L0.493,-0.538L0.493,-0.234C0.493,-0.122 0.429,-0.055 0.317,-0.054C0.196,-0.053 0.144,-0.131 0.144,-0.247L0.144,-0.538L0.071,-0.538L0.071,-0.233C0.071,-0.102 0.13,0.012 0.298,0.015C0.394,0.016 0.467,-0.026 0.497,-0.096L0.497,0L0.567,0L0.567,-0.538Z" style="fill:rgb(0,183,198);fill-rule:nonzero;"/>
            </g>
            <g transform="matrix(45.8333,0,0,45.8333,642.118,2076.07)">
                <path d="M0.61,-0.538L0.537,-0.538L0.537,-0.427C0.507,-0.493 0.425,-0.553 0.319,-0.553C0.155,-0.553 0.038,-0.429 0.038,-0.268C0.038,-0.113 0.151,0.015 0.319,0.015C0.423,0.015 0.498,-0.038 0.536,-0.114L0.536,-0.045C0.536,0.089 0.431,0.169 0.328,0.169C0.294,0.169 0.248,0.158 0.209,0.13C0.177,0.108 0.158,0.082 0.145,0.059L0.06,0.059C0.094,0.156 0.192,0.233 0.326,0.233C0.399,0.233 0.477,0.202 0.53,0.15C0.577,0.105 0.61,0.04 0.61,-0.062L0.61,-0.538ZM0.112,-0.27C0.112,-0.396 0.208,-0.484 0.326,-0.484C0.403,-0.484 0.457,-0.452 0.49,-0.409C0.524,-0.366 0.539,-0.313 0.539,-0.268C0.538,-0.209 0.516,-0.155 0.479,-0.116C0.441,-0.077 0.389,-0.054 0.328,-0.054C0.189,-0.054 0.112,-0.16 0.112,-0.269L0.112,-0.27Z" style="fill:rgb(0,183,198);fill-rule:nonzero;"/>
            </g>
            <g transform="matrix(45.8333,0,0,45.8333,673.33,2076.07)">
                <path d="M0.612,-0.538L0.538,-0.538L0.538,-0.425C0.512,-0.486 0.433,-0.553 0.318,-0.553C0.154,-0.553 0.039,-0.427 0.039,-0.269C0.039,-0.121 0.143,0.015 0.318,0.015C0.414,0.015 0.496,-0.03 0.538,-0.111L0.538,0L0.612,0L0.612,-0.538ZM0.112,-0.269C0.112,-0.389 0.202,-0.485 0.326,-0.485C0.421,-0.485 0.493,-0.43 0.523,-0.356C0.535,-0.33 0.541,-0.3 0.54,-0.27C0.54,-0.241 0.534,-0.211 0.522,-0.185C0.493,-0.109 0.423,-0.054 0.328,-0.054C0.18,-0.054 0.113,-0.171 0.112,-0.268L0.112,-0.269Z" style="fill:rgb(0,183,198);fill-rule:nonzero;"/>
            </g>
            <g transform="matrix(45.8333,0,0,45.8333,704.68,2076.07)">
                <path d="M0.387,-0.403C0.382,-0.512 0.298,-0.553 0.223,-0.553C0.132,-0.553 0.055,-0.496 0.055,-0.399C0.057,-0.314 0.117,-0.283 0.194,-0.26C0.287,-0.233 0.327,-0.208 0.329,-0.147C0.33,-0.092 0.287,-0.046 0.225,-0.046C0.171,-0.046 0.116,-0.079 0.113,-0.153L0.04,-0.153C0.041,-0.04 0.137,0.015 0.224,0.015C0.326,0.015 0.406,-0.057 0.402,-0.156C0.398,-0.271 0.312,-0.293 0.235,-0.314C0.17,-0.333 0.131,-0.354 0.129,-0.405C0.127,-0.452 0.163,-0.492 0.222,-0.492C0.276,-0.492 0.314,-0.46 0.314,-0.403L0.387,-0.403Z" style="fill:rgb(0,183,198);fill-rule:nonzero;"/>
            </g>
            <g transform="matrix(45.8333,0,0,45.8333,270.918,2134.4)">
                <path d="M0.124,0.204L0.204,0.204L0.511,-0.538L0.43,-0.538L0.256,-0.103L0.087,-0.538L0.008,-0.538L0.216,-0.01L0.124,0.204Z" style="fill:rgb(0,183,198);fill-rule:nonzero;"/>
            </g>
            <g transform="matrix(45.8333,0,0,45.8333,307.585,2134.4)">
                <path d="M0.316,-0.479L0.316,0L0.39,0L0.39,-0.74L0.316,-0.74L0.316,-0.538L0.158,-0.538L0.158,-0.575C0.158,-0.692 0.237,-0.692 0.274,-0.694L0.274,-0.753C0.216,-0.753 0.085,-0.748 0.085,-0.582L0.085,-0.538L0.006,-0.538L0.006,-0.479L0.085,-0.479L0.085,0L0.158,0L0.158,-0.479L0.316,-0.479Z" style="fill:rgb(0,183,198);fill-rule:nonzero;"/>
            </g>
            <g transform="matrix(45.8333,0,0,45.8333,328.76,2134.4)">
                <path d="M0.612,-0.538L0.538,-0.538L0.538,-0.425C0.512,-0.486 0.433,-0.553 0.318,-0.553C0.154,-0.553 0.039,-0.427 0.039,-0.269C0.039,-0.121 0.143,0.015 0.318,0.015C0.414,0.015 0.496,-0.03 0.538,-0.111L0.538,0L0.612,0L0.612,-0.538ZM0.112,-0.269C0.112,-0.389 0.202,-0.485 0.326,-0.485C0.421,-0.485 0.493,-0.43 0.523,-0.356C0.535,-0.33 0.541,-0.3 0.54,-0.27C0.54,-0.241 0.534,-0.211 0.522,-0.185C0.493,-0.109 0.423,-0.054 0.328,-0.054C0.18,-0.054 0.113,-0.171 0.112,-0.268L0.112,-0.269Z" style="fill:rgb(0,183,198);fill-rule:nonzero;"/>
            </g>
            <g transform="matrix(45.8333,0,0,45.8333,360.11,2134.4)">
                <path d="M0.519,-0.182C0.496,-0.117 0.427,-0.055 0.324,-0.054C0.208,-0.054 0.112,-0.142 0.112,-0.269C0.112,-0.331 0.137,-0.389 0.173,-0.424C0.218,-0.466 0.262,-0.485 0.325,-0.485C0.401,-0.485 0.486,-0.443 0.52,-0.352L0.596,-0.352C0.559,-0.481 0.443,-0.553 0.322,-0.553C0.159,-0.553 0.038,-0.428 0.038,-0.269C0.038,-0.125 0.145,0.015 0.327,0.015C0.456,0.015 0.561,-0.068 0.596,-0.182L0.519,-0.182Z" style="fill:rgb(0,183,198);fill-rule:nonzero;"/>
            </g>
            <g transform="matrix(45.8333,0,0,45.8333,388.985,2134.4)">
                <path d="M0.072,-0.637L0.146,-0.637L0.146,-0.74L0.072,-0.74L0.072,-0.637ZM0.072,0L0.146,0L0.146,-0.538L0.072,-0.538L0.072,0Z" style="fill:rgb(0,183,198);fill-rule:nonzero;"/>
            </g>
            <g transform="matrix(45.8333,0,0,45.8333,398.976,2134.4)">
                <path d="M0.61,-0.74L0.536,-0.74L0.536,-0.429C0.512,-0.485 0.434,-0.553 0.316,-0.553C0.155,-0.553 0.039,-0.43 0.039,-0.27C0.039,-0.119 0.145,0.015 0.317,0.015C0.429,0.015 0.501,-0.04 0.539,-0.111L0.539,0L0.61,0L0.61,-0.74ZM0.112,-0.27C0.112,-0.391 0.203,-0.485 0.327,-0.485C0.387,-0.485 0.441,-0.462 0.479,-0.423C0.518,-0.385 0.541,-0.333 0.541,-0.272C0.543,-0.212 0.52,-0.157 0.481,-0.117C0.443,-0.078 0.388,-0.054 0.328,-0.054C0.188,-0.054 0.113,-0.161 0.112,-0.269L0.112,-0.27Z" style="fill:rgb(0,183,198);fill-rule:nonzero;"/>
            </g>
            <g transform="matrix(45.8333,0,0,45.8333,430.326,2134.4)">
                <path d="M0.595,-0.248C0.603,-0.334 0.573,-0.417 0.511,-0.477C0.46,-0.526 0.39,-0.553 0.314,-0.553C0.153,-0.553 0.031,-0.426 0.031,-0.268C0.031,-0.134 0.128,0.015 0.315,0.015C0.37,0.015 0.423,0 0.468,-0.029C0.514,-0.058 0.552,-0.102 0.577,-0.16L0.5,-0.16C0.465,-0.09 0.398,-0.049 0.315,-0.049C0.224,-0.048 0.109,-0.113 0.105,-0.248L0.595,-0.248ZM0.106,-0.307C0.113,-0.405 0.199,-0.49 0.315,-0.49C0.426,-0.493 0.517,-0.401 0.522,-0.307L0.106,-0.307Z" style="fill:rgb(0,183,198);fill-rule:nonzero;"/>
            </g>
            <g transform="matrix(45.8333,0,0,45.8333,459.11,2134.4)">
                <path d="M0.013,0L0.405,0L0.405,-0.059L0.102,-0.059L0.394,-0.478L0.394,-0.538L0.025,-0.538L0.025,-0.479L0.311,-0.479L0.013,-0.054L0.013,0Z" style="fill:rgb(0,183,198);fill-rule:nonzero;"/>
            </g>
            <g transform="matrix(45.8333,0,0,45.8333,491.514,2134.4)">
                <path d="M0.595,-0.248C0.603,-0.334 0.573,-0.417 0.511,-0.477C0.46,-0.526 0.39,-0.553 0.314,-0.553C0.153,-0.553 0.031,-0.426 0.031,-0.268C0.031,-0.134 0.128,0.015 0.315,0.015C0.37,0.015 0.423,0 0.468,-0.029C0.514,-0.058 0.552,-0.102 0.577,-0.16L0.5,-0.16C0.465,-0.09 0.398,-0.049 0.315,-0.049C0.224,-0.048 0.109,-0.113 0.105,-0.248L0.595,-0.248ZM0.106,-0.307C0.113,-0.405 0.199,-0.49 0.315,-0.49C0.426,-0.493 0.517,-0.401 0.522,-0.307L0.106,-0.307Z" style="fill:rgb(0,183,198);fill-rule:nonzero;"/>
            </g>
            <g transform="matrix(45.8333,0,0,45.8333,520.297,2134.4)">
                <path d="M0.072,0L0.146,0L0.146,-0.304C0.146,-0.416 0.21,-0.483 0.321,-0.484C0.442,-0.486 0.494,-0.407 0.494,-0.291L0.494,0L0.567,0L0.567,-0.306C0.567,-0.437 0.508,-0.551 0.341,-0.553C0.245,-0.555 0.172,-0.512 0.141,-0.442C0.142,-0.478 0.142,-0.508 0.142,-0.538L0.072,-0.538L0.072,0Z" style="fill:rgb(0,183,198);fill-rule:nonzero;"/>
            </g>
            <g transform="matrix(45.8333,0,0,45.8333,562.739,2134.4)">
                <rect x="0.072" y="-0.74" width="0.074" height="0.74" style="fill:rgb(0,183,198);fill-rule:nonzero;"/>
            </g>
            <g transform="matrix(45.8333,0,0,45.8333,572.685,2134.4)">
                <path d="M0.612,-0.538L0.538,-0.538L0.538,-0.425C0.512,-0.486 0.433,-0.553 0.318,-0.553C0.154,-0.553 0.039,-0.427 0.039,-0.269C0.039,-0.121 0.143,0.015 0.318,0.015C0.414,0.015 0.496,-0.03 0.538,-0.111L0.538,0L0.612,0L0.612,-0.538ZM0.112,-0.269C0.112,-0.389 0.202,-0.485 0.326,-0.485C0.421,-0.485 0.493,-0.43 0.523,-0.356C0.535,-0.33 0.541,-0.3 0.54,-0.27C0.54,-0.241 0.534,-0.211 0.522,-0.185C0.493,-0.109 0.423,-0.054 0.328,-0.054C0.18,-0.054 0.113,-0.171 0.112,-0.268L0.112,-0.269Z" style="fill:rgb(0,183,198);fill-rule:nonzero;"/>
            </g>
            <g transform="matrix(45.8333,0,0,45.8333,617.235,2134.4)">
                <path d="M0.072,0.204L0.146,0.204L0.146,-0.11C0.171,-0.054 0.248,0.015 0.367,0.015C0.534,0.015 0.643,-0.117 0.643,-0.267C0.643,-0.406 0.548,-0.553 0.367,-0.553C0.264,-0.553 0.186,-0.504 0.142,-0.426L0.142,-0.538L0.072,-0.538L0.072,0.204ZM0.569,-0.269C0.569,-0.146 0.476,-0.054 0.355,-0.054C0.295,-0.054 0.241,-0.077 0.203,-0.115C0.164,-0.154 0.141,-0.208 0.141,-0.268C0.141,-0.329 0.164,-0.383 0.201,-0.422C0.24,-0.461 0.293,-0.485 0.353,-0.485C0.498,-0.485 0.569,-0.371 0.569,-0.27L0.569,-0.269Z" style="fill:rgb(0,183,198);fill-rule:nonzero;"/>
            </g>
            <g transform="matrix(45.8333,0,0,45.8333,648.585,2134.4)">
                <path d="M0.072,-0.637L0.146,-0.637L0.146,-0.74L0.072,-0.74L0.072,-0.637ZM0.072,0L0.146,0L0.146,-0.538L0.072,-0.538L0.072,0Z" style="fill:rgb(0,183,198);fill-rule:nonzero;"/>
            </g>
            <g transform="matrix(45.8333,0,0,45.8333,658.576,2134.4)">
                <path d="M0.595,-0.248C0.603,-0.334 0.573,-0.417 0.511,-0.477C0.46,-0.526 0.39,-0.553 0.314,-0.553C0.153,-0.553 0.031,-0.426 0.031,-0.268C0.031,-0.134 0.128,0.015 0.315,0.015C0.37,0.015 0.423,0 0.468,-0.029C0.514,-0.058 0.552,-0.102 0.577,-0.16L0.5,-0.16C0.465,-0.09 0.398,-0.049 0.315,-0.049C0.224,-0.048 0.109,-0.113 0.105,-0.248L0.595,-0.248ZM0.106,-0.307C0.113,-0.405 0.199,-0.49 0.315,-0.49C0.426,-0.493 0.517,-0.401 0.522,-0.307L0.106,-0.307Z" style="fill:rgb(0,183,198);fill-rule:nonzero;"/>
            </g>
            <g transform="matrix(45.8333,0,0,45.8333,687.36,2134.4)">
                <rect x="0.072" y="-0.74" width="0.074" height="0.74" style="fill:rgb(0,183,198);fill-rule:nonzero;"/>
            </g>
            <g transform="matrix(45.8333,0,0,45.8333,697.305,2134.4)">
                <rect x="0.106" y="-0.11" width="0.078" height="0.11" style="fill:rgb(0,183,198);fill-rule:nonzero;"/>
            </g>
        </g>
    </g>
</svg>
