<svg clip-rule="evenodd" fill-rule="evenodd" stroke-linejoin="round" stroke-miterlimit="2" viewBox="0 0 602 408" xmlns="http://www.w3.org/2000/svg"><g fill-rule="nonzero"><path d="m0-76.355c0 .576.634 1.043 1.415 1.043h36.581c7.28 0 13.202 4.365 13.202 9.73v54.81c0 5.366-5.922 9.73-13.202 9.73h-46.69c-.782 0-1.415.467-1.415 1.043s.633 1.043 1.415 1.043h46.69c8.841 0 16.033-5.3 16.033-11.816v-54.81c0-6.516-7.192-11.817-16.033-11.817h-36.581c-.781 0-1.415.467-1.415 1.044" fill="#927c46" transform="matrix(4.16667 0 0 4.16667 376.317 323)"/><path d="m0 81.305c.553-.407.553-1.068 0-1.475-.553-.408-1.449-.408-2.002 0l-7.978 5.881v-12.202c0-2.957-3.262-5.362-7.273-5.362h-52.693c-7.28 0-13.202-4.364-13.202-9.73v-54.81c0-5.366 5.922-9.731 13.202-9.731h41.786c.782 0 1.416-.466 1.416-1.042s-.634-1.044-1.416-1.044h-41.786c-8.841 0-16.032 5.302-16.032 11.817v54.81c0 6.515 7.191 11.816 16.032 11.816h52.693c2.45 0 4.442 1.47 4.442 3.276v11.823l-7.465-5.502c-.552-.408-1.449-.408-2.002 0-.276.204-.414.47-.414.738 0 .266.138.534.414.737l11.139 8.21z" fill="#927c46" transform="matrix(4.16667 0 0 4.16667 358.809 34.71)"/><g fill="#927c45"><path d="m.074 0h.41v-.073h-.328v-.264h.326v-.073h-.326v-.257h.328v-.073h-.41z" transform="matrix(45.8333 0 0 45.8333 128.943 76.38)"/><path d="m157.0379976 42.463358h3.3916642v33.916642h-3.3916642z" stroke-width="45.8333"/><path d="m.612-.538h-.074v.113c-.026-.061-.105-.128-.22-.128-.164 0-.279.126-.279.284 0 .148.104.284.279.284.096 0 .178-.045.22-.126v.111h.074zm-.5.269c0-.12.09-.216.214-.216.095 0 .167.055.197.129.012.026.018.056.017.086 0 .029-.006.059-.018.085-.029.076-.099.131-.194.131-.148 0-.215-.117-.216-.214z" transform="matrix(45.8333 0 0 45.8333 176.884 76.38)"/><path d="m211.5339976 42.463358h3.3916642v33.916642h-3.3916642z" stroke-width="45.8333"/><path d="m.61-.538h-.071v.108c-.037-.067-.111-.123-.221-.123-.167 0-.279.128-.279.287 0 .151.109.281.275.281.121 0 .197-.069.222-.124v.313h.074zm-.498.27c.001-.104.072-.217.216-.217.059 0 .114.024.152.064.039.039.062.093.06.153 0 .06-.023.114-.061.152-.039.039-.092.062-.152.062-.124 0-.215-.095-.215-.213z" transform="matrix(45.8333 0 0 45.8333 218.179 76.38)"/><path d="m.567-.538h-.074v.304c0 .112-.064.179-.176.18-.121.001-.173-.077-.173-.193v-.291h-.073v.305c0 .131.059.245.227.248.096.001.169-.041.199-.111v.096h.07z" transform="matrix(45.8333 0 0 45.8333 249.437 76.38)"/><path d="m.072-.637h.074v-.103h-.074zm0 .637h.074v-.538h-.074z" transform="matrix(45.8333 0 0 45.8333 278.724 76.38)"/><path d="m.114 0h.073v-.479h.118v-.059h-.118v-.202h-.073v.202h-.106v.059h.106z" transform="matrix(45.8333 0 0 45.8333 288.716 76.38)"/><path d="m.072 0h.073v-.293c0-.122.058-.187.162-.187h.007v-.073c-.063.002-.133.023-.172.103v-.088h-.07z" transform="matrix(45.8333 0 0 45.8333 303.107 76.38)"/><path d="m.612-.538h-.074v.113c-.026-.061-.105-.128-.22-.128-.164 0-.279.126-.279.284 0 .148.104.284.279.284.096 0 .178-.045.22-.126v.111h.074zm-.5.269c0-.12.09-.216.214-.216.095 0 .167.055.197.129.012.026.018.056.017.086 0 .029-.006.059-.018.085-.029.076-.099.131-.194.131-.148 0-.215-.117-.216-.214zm.107-.379.024.048.241-.129-.027-.054z" transform="matrix(45.8333 0 0 45.8333 315.94 76.38)"/><path d="m.072 0h.074v-.304c0-.112.064-.179.175-.18.121-.002.173.077.173.193v.291h.073v-.306c0-.131-.059-.245-.226-.247-.096-.002-.169.041-.2.111.001-.036.001-.066.001-.096h-.07z" transform="matrix(45.8333 0 0 45.8333 347.29 76.38)"/><path d="m.61-.74h-.074v.311c-.024-.056-.102-.124-.22-.124-.161 0-.277.123-.277.283 0 .151.106.285.278.285.112 0 .184-.055.222-.126v.111h.071zm-.498.47c0-.121.091-.215.215-.215.06 0 .114.023.152.062.039.038.062.09.062.151.002.06-.021.115-.06.155-.038.039-.093.063-.153.063-.14 0-.215-.107-.216-.215z" transform="matrix(45.8333 0 0 45.8333 389.731 76.38)"/><path d="m.595-.248c.008-.086-.022-.169-.084-.229-.051-.049-.121-.076-.197-.076-.161 0-.283.127-.283.285 0 .134.097.283.284.283.055 0 .108-.015.153-.044.046-.029.084-.073.109-.131h-.077c-.035.07-.102.111-.185.111-.091.001-.206-.064-.21-.199zm-.489-.059c.007-.098.093-.183.209-.183.111-.003.202.089.207.183z" transform="matrix(45.8333 0 0 45.8333 421.081 76.38)"/><path d="m.092-.637h.074v-.103h-.074zm.074.099h-.074v.532c0 .08-.007.14-.085.153-.004.001-.009.001-.014.001v.062c.008-.001.016-.001.023-.001.142-.016.15-.121.15-.217z" transform="matrix(45.8333 0 0 45.8333 449.864 76.38)"/><path d="m.612-.538h-.074v.113c-.026-.061-.105-.128-.22-.128-.164 0-.279.126-.279.284 0 .148.104.284.279.284.096 0 .178-.045.22-.126v.111h.074zm-.5.269c0-.12.09-.216.214-.216.095 0 .167.055.197.129.012.026.018.056.017.086 0 .029-.006.059-.018.085-.029.076-.099.131-.194.131-.148 0-.215-.117-.216-.214z" transform="matrix(45.8333 0 0 45.8333 461.459 76.38)"/><path d="m.072 0h.073v-.293c0-.122.058-.187.162-.187h.007v-.073c-.063.002-.133.023-.172.103v-.088h-.07z" transform="matrix(45.8333 0 0 45.8333 50.568 134.71)"/><path d="m.595-.248c.008-.086-.022-.169-.084-.229-.051-.049-.121-.076-.197-.076-.161 0-.283.127-.283.285 0 .134.097.283.284.283.055 0 .108-.015.153-.044.046-.029.084-.073.109-.131h-.077c-.035.07-.102.111-.185.111-.091.001-.206-.064-.21-.199zm-.489-.059c.007-.098.093-.183.209-.183.111-.003.202.089.207.183z" transform="matrix(45.8333 0 0 45.8333 63.584 134.71)"/><path d="m.387-.403c-.005-.109-.089-.15-.164-.15-.091 0-.168.057-.168.154.002.085.062.116.139.139.093.027.133.052.135.113.001.055-.042.101-.104.101-.054 0-.109-.033-.112-.107h-.073c.001.113.097.168.184.168.102 0 .182-.072.178-.171-.004-.115-.09-.137-.167-.158-.065-.019-.104-.04-.106-.091-.002-.047.034-.087.093-.087.054 0 .092.032.092.089z" transform="matrix(45.8333 0 0 45.8333 92.367 134.71)"/><path d="m.072-.637h.074v-.103h-.074zm0 .637h.074v-.538h-.074z" transform="matrix(45.8333 0 0 45.8333 112.992 134.71)"/><path d="m.61-.74h-.074v.311c-.024-.056-.102-.124-.22-.124-.161 0-.277.123-.277.283 0 .151.106.285.278.285.112 0 .184-.055.222-.126v.111h.071zm-.498.47c0-.121.091-.215.215-.215.06 0 .114.023.152.062.039.038.062.09.062.151.002.06-.021.115-.06.155-.038.039-.093.063-.153.063-.14 0-.215-.107-.216-.215z" transform="matrix(45.8333 0 0 45.8333 122.984 134.71)"/><path d="m.567-.538h-.074v.304c0 .112-.064.179-.176.18-.121.001-.173-.077-.173-.193v-.291h-.073v.305c0 .131.059.245.227.248.096.001.169-.041.199-.111v.096h.07z" transform="matrix(45.8333 0 0 45.8333 154.333 134.71)"/><path d="m.039-.269c0 .151.112.283.285.283.174 0 .286-.132.286-.283s-.112-.284-.286-.284c-.173 0-.285.133-.285.283zm.073 0c0-.123.093-.215.212-.215.12 0 .212.092.212.215s-.092.215-.212.215c-.119 0-.212-.092-.212-.214z" transform="matrix(45.8333 0 0 45.8333 183.621 134.71)"/><path d="m.387-.403c-.005-.109-.089-.15-.164-.15-.091 0-.168.057-.168.154.002.085.062.116.139.139.093.027.133.052.135.113.001.055-.042.101-.104.101-.054 0-.109-.033-.112-.107h-.073c.001.113.097.168.184.168.102 0 .182-.072.178-.171-.004-.115-.09-.137-.167-.158-.065-.019-.104-.04-.106-.091-.002-.047.034-.087.093-.087.054 0 .092.032.092.089z" transform="matrix(45.8333 0 0 45.8333 213.366 134.71)"/><path d="m.61-.538h-.071v.108c-.037-.067-.111-.123-.221-.123-.167 0-.279.128-.279.287 0 .151.109.281.275.281.121 0 .197-.069.222-.124v.313h.074zm-.498.27c.001-.104.072-.217.216-.217.059 0 .114.024.152.064.039.039.062.093.06.153 0 .06-.023.114-.061.152-.039.039-.092.062-.152.062-.124 0-.215-.095-.215-.213z" transform="matrix(45.8333 0 0 45.8333 247.191 134.71)"/><path d="m.567-.538h-.074v.304c0 .112-.064.179-.176.18-.121.001-.173-.077-.173-.193v-.291h-.073v.305c0 .131.059.245.227.248.096.001.169-.041.199-.111v.096h.07z" transform="matrix(45.8333 0 0 45.8333 278.449 134.71)"/><path d="m.595-.248c.008-.086-.022-.169-.084-.229-.051-.049-.121-.076-.197-.076-.161 0-.283.127-.283.285 0 .134.097.283.284.283.055 0 .108-.015.153-.044.046-.029.084-.073.109-.131h-.077c-.035.07-.102.111-.185.111-.091.001-.206-.064-.21-.199zm-.489-.059c.007-.098.093-.183.209-.183.111-.003.202.089.207.183z" transform="matrix(45.8333 0 0 45.8333 307.736 134.71)"/><path d="m.072.204h.074v-.314c.025.056.102.125.221.125.167 0 .276-.132.276-.282 0-.139-.095-.286-.276-.286-.103 0-.181.049-.225.127v-.112h-.07zm.497-.473c0 .123-.093.215-.214.215-.06 0-.114-.023-.152-.061-.039-.039-.062-.093-.062-.153 0-.061.023-.115.06-.154.039-.039.092-.063.152-.063.145 0 .216.114.216.215z" transform="matrix(45.8333 0 0 45.8333 349.719 134.71)"/><path d="m.072 0h.073v-.293c0-.122.058-.187.162-.187h.007v-.073c-.063.002-.133.023-.172.103v-.088h-.07z" transform="matrix(45.8333 0 0 45.8333 381.069 134.71)"/><path d="m.039-.269c0 .151.112.283.285.283.174 0 .286-.132.286-.283s-.112-.284-.286-.284c-.173 0-.285.133-.285.283zm.073 0c0-.123.093-.215.212-.215.12 0 .212.092.212.215s-.092.215-.212.215c-.119 0-.212-.092-.212-.214z" transform="matrix(45.8333 0 0 45.8333 393.902 134.71)"/><path d="m.61-.74h-.074v.311c-.024-.056-.102-.124-.22-.124-.161 0-.277.123-.277.283 0 .151.106.285.278.285.112 0 .184-.055.222-.126v.111h.071zm-.498.47c0-.121.091-.215.215-.215.06 0 .114.023.152.062.039.038.062.09.062.151.002.06-.021.115-.06.155-.038.039-.093.063-.153.063-.14 0-.215-.107-.216-.215z" transform="matrix(45.8333 0 0 45.8333 423.648 134.71)"/><path d="m.567-.538h-.074v.304c0 .112-.064.179-.176.18-.121.001-.173-.077-.173-.193v-.291h-.073v.305c0 .131.059.245.227.248.096.001.169-.041.199-.111v.096h.07z" transform="matrix(45.8333 0 0 45.8333 454.997 134.71)"/><path d="m.519-.182c-.023.065-.092.127-.195.128-.116 0-.212-.088-.212-.215 0-.062.025-.12.061-.155.045-.042.089-.061.152-.061.076 0 .161.042.195.133h.076c-.037-.129-.153-.201-.274-.201-.163 0-.284.125-.284.284 0 .144.107.284.289.284.129 0 .234-.083.269-.197z" transform="matrix(45.8333 0 0 45.8333 484.285 134.71)"/><path d="m.595-.248c.008-.086-.022-.169-.084-.229-.051-.049-.121-.076-.197-.076-.161 0-.283.127-.283.285 0 .134.097.283.284.283.055 0 .108-.015.153-.044.046-.029.084-.073.109-.131h-.077c-.035.07-.102.111-.185.111-.091.001-.206-.064-.21-.199zm-.489-.059c.007-.098.093-.183.209-.183.111-.003.202.089.207.183z" transform="matrix(45.8333 0 0 45.8333 513.159 134.71)"/><path d="m.072 0h.074v-.304c0-.112.064-.179.175-.18.121-.002.173.077.173.193v.291h.073v-.306c0-.131-.059-.245-.226-.247-.096-.002-.169.041-.2.111.001-.036.001-.066.001-.096h-.07z" transform="matrix(45.8333 0 0 45.8333 541.942 134.71)"/><path d="m.072 0h.074v-.3c0-.057.013-.098.036-.129.022-.032.064-.057.114-.055.055.001.093.022.118.057.021.033.03.068.028.128v.299h.074v-.299c0-.061.005-.091.032-.129.025-.037.071-.056.118-.056.051 0 .085.017.107.045.031.035.04.086.04.143v.296h.074v-.299c0-.095-.014-.153-.061-.2-.037-.038-.09-.054-.145-.054-.06 0-.113.023-.148.06-.02.021-.031.042-.039.057-.003-.006-.021-.042-.035-.056-.038-.043-.091-.061-.147-.061-.061 0-.136.032-.17.1v-.085h-.07z" transform="matrix(45.8333 0 0 45.8333 95.576 193.05)"/><path d="m.612-.538h-.074v.113c-.026-.061-.105-.128-.22-.128-.164 0-.279.126-.279.284 0 .148.104.284.279.284.096 0 .178-.045.22-.126v.111h.074zm-.5.269c0-.12.09-.216.214-.216.095 0 .167.055.197.129.012.026.018.056.017.086 0 .029-.006.059-.018.085-.029.076-.099.131-.194.131-.148 0-.215-.117-.216-.214z" transform="matrix(45.8333 0 0 45.8333 139.393 193.05)"/><path d="m.072 0h.074v-.304c0-.112.064-.179.175-.18.121-.002.173.077.173.193v.291h.073v-.306c0-.131-.059-.245-.226-.247-.096-.002-.169.041-.2.111.001-.036.001-.066.001-.096h-.07z" transform="matrix(45.8333 0 0 45.8333 170.743 193.05)"/><path d="m.519-.182c-.023.065-.092.127-.195.128-.116 0-.212-.088-.212-.215 0-.062.025-.12.061-.155.045-.042.089-.061.152-.061.076 0 .161.042.195.133h.076c-.037-.129-.153-.201-.274-.201-.163 0-.284.125-.284.284 0 .144.107.284.289.284.129 0 .234-.083.269-.197z" transform="matrix(45.8333 0 0 45.8333 199.985 193.05)"/><path d="m.072 0h.074v-.306c0-.049.014-.093.043-.125.028-.032.072-.053.131-.053.064 0 .106.02.135.055.027.035.039.084.039.142v.287h.073v-.29c0-.077-.014-.142-.051-.189s-.093-.074-.178-.074c-.076-.002-.159.032-.192.103v-.29h-.074z" transform="matrix(45.8333 0 0 45.8333 228.63 193.05)"/><path d="m.612-.538h-.074v.113c-.026-.061-.105-.128-.22-.128-.164 0-.279.126-.279.284 0 .148.104.284.279.284.096 0 .178-.045.22-.126v.111h.074zm-.5.269c0-.12.09-.216.214-.216.095 0 .167.055.197.129.012.026.018.056.017.086 0 .029-.006.059-.018.085-.029.076-.099.131-.194.131-.148 0-.215-.117-.216-.214z" transform="matrix(45.8333 0 0 45.8333 257.826 193.05)"/><path d="m.387-.403c-.005-.109-.089-.15-.164-.15-.091 0-.168.057-.168.154.002.085.062.116.139.139.093.027.133.052.135.113.001.055-.042.101-.104.101-.054 0-.109-.033-.112-.107h-.073c.001.113.097.168.184.168.102 0 .182-.072.178-.171-.004-.115-.09-.137-.167-.158-.065-.019-.104-.04-.106-.091-.002-.047.034-.087.093-.087.054 0 .092.032.092.089z" transform="matrix(45.8333 0 0 45.8333 289.176 193.05)"/><path d="m.612-.538h-.074v.113c-.026-.061-.105-.128-.22-.128-.164 0-.279.126-.279.284 0 .148.104.284.279.284.096 0 .178-.045.22-.126v.111h.074zm-.5.269c0-.12.09-.216.214-.216.095 0 .167.055.197.129.012.026.018.056.017.086 0 .029-.006.059-.018.085-.029.076-.099.131-.194.131-.148 0-.215-.117-.216-.214z" transform="matrix(45.8333 0 0 45.8333 323.001 193.05)"/><path d="m.072 0h.074v-.3c0-.057.013-.098.036-.129.022-.032.064-.057.114-.055.055.001.093.022.118.057.021.033.03.068.028.128v.299h.074v-.299c0-.061.005-.091.032-.129.025-.037.071-.056.118-.056.051 0 .085.017.107.045.031.035.04.086.04.143v.296h.074v-.299c0-.095-.014-.153-.061-.2-.037-.038-.09-.054-.145-.054-.06 0-.113.023-.148.06-.02.021-.031.042-.039.057-.003-.006-.021-.042-.035-.056-.038-.043-.091-.061-.147-.061-.061 0-.136.032-.17.1v-.085h-.07z" transform="matrix(45.8333 0 0 45.8333 354.351 193.05)"/><path d="m.612-.538h-.074v.113c-.026-.061-.105-.128-.22-.128-.164 0-.279.126-.279.284 0 .148.104.284.279.284.096 0 .178-.045.22-.126v.111h.074zm-.5.269c0-.12.09-.216.214-.216.095 0 .167.055.197.129.012.026.018.056.017.086 0 .029-.006.059-.018.085-.029.076-.099.131-.194.131-.148 0-.215-.117-.216-.214z" transform="matrix(45.8333 0 0 45.8333 398.168 193.05)"/><path d="m.072 0h.073v-.293c0-.122.058-.187.162-.187h.007v-.073c-.063.002-.133.023-.172.103v-.088h-.07z" transform="matrix(45.8333 0 0 45.8333 429.518 193.05)"/><path d="m.072-.637h.074v-.103h-.074zm0 .637h.074v-.538h-.074z" transform="matrix(45.8333 0 0 45.8333 444.276 193.05)"/><path d="m457.5679976 159.133358h3.3916642v33.916642h-3.3916642z" stroke-width="45.8333"/><path d="m467.5139976 159.133358h3.3916642v33.916642h-3.3916642z" stroke-width="45.8333"/><path d="m.612-.538h-.074v.113c-.026-.061-.105-.128-.22-.128-.164 0-.279.126-.279.284 0 .148.104.284.279.284.096 0 .178-.045.22-.126v.111h.074zm-.5.269c0-.12.09-.216.214-.216.095 0 .167.055.197.129.012.026.018.056.017.086 0 .029-.006.059-.018.085-.029.076-.099.131-.194.131-.148 0-.215-.117-.216-.214z" transform="matrix(45.8333 0 0 45.8333 474.16 193.05)"/><path d="m.387-.403c-.005-.109-.089-.15-.164-.15-.091 0-.168.057-.168.154.002.085.062.116.139.139.093.027.133.052.135.113.001.055-.042.101-.104.101-.054 0-.109-.033-.112-.107h-.073c.001.113.097.168.184.168.102 0 .182-.072.178-.171-.004-.115-.09-.137-.167-.158-.065-.019-.104-.04-.106-.091-.002-.047.034-.087.093-.087.054 0 .092.032.092.089z" transform="matrix(45.8333 0 0 45.8333 505.51 193.05)"/><path d="m.124.204h.08l.307-.742h-.081l-.174.435-.169-.435h-.079l.208.528z" transform="matrix(45.8333 0 0 45.8333 96.814 251.38)"/><path d="m.61-.74h-.074v.311c-.024-.056-.102-.124-.22-.124-.161 0-.277.123-.277.283 0 .151.106.285.278.285.112 0 .184-.055.222-.126v.111h.071zm-.498.47c0-.121.091-.215.215-.215.06 0 .114.023.152.062.039.038.062.09.062.151.002.06-.021.115-.06.155-.038.039-.093.063-.153.063-.14 0-.215-.107-.216-.215z" transform="matrix(45.8333 0 0 45.8333 133.48 251.38)"/><path d="m.595-.248c.008-.086-.022-.169-.084-.229-.051-.049-.121-.076-.197-.076-.161 0-.283.127-.283.285 0 .134.097.283.284.283.055 0 .108-.015.153-.044.046-.029.084-.073.109-.131h-.077c-.035.07-.102.111-.185.111-.091.001-.206-.064-.21-.199zm-.489-.059c.007-.098.093-.183.209-.183.111-.003.202.089.207.183z" transform="matrix(45.8333 0 0 45.8333 164.83 251.38)"/><path d="m.072 0h.071v-.111c.04.077.119.126.22.126.163 0 .279-.123.279-.285 0-.168-.124-.283-.277-.283-.093.001-.174.047-.219.123v-.31h-.074zm.496-.269c0 .104-.073.215-.216.215-.125 0-.21-.099-.21-.216 0-.119.089-.215.213-.215.12 0 .213.092.213.215z" transform="matrix(45.8333 0 0 45.8333 193.613 251.38)"/><path d="m.072-.637h.074v-.103h-.074zm0 .637h.074v-.538h-.074z" transform="matrix(45.8333 0 0 45.8333 224.779 251.38)"/><path d="m238.0709976 217.463358h3.3916642v33.916642h-3.3916642z" stroke-width="45.8333"/><path d="m.072-.637h.074v-.103h-.074zm0 .637h.074v-.538h-.074z" transform="matrix(45.8333 0 0 45.8333 244.716 251.38)"/><path d="m.114 0h.073v-.479h.118v-.059h-.118v-.202h-.073v.202h-.106v.059h.106z" transform="matrix(45.8333 0 0 45.8333 254.708 251.38)"/><path d="m.612-.538h-.074v.113c-.026-.061-.105-.128-.22-.128-.164 0-.279.126-.279.284 0 .148.104.284.279.284.096 0 .178-.045.22-.126v.111h.074zm-.5.269c0-.12.09-.216.214-.216.095 0 .167.055.197.129.012.026.018.056.017.086 0 .029-.006.059-.018.085-.029.076-.099.131-.194.131-.148 0-.215-.117-.216-.214z" transform="matrix(45.8333 0 0 45.8333 267.724 251.38)"/><path d="m.072 0h.074v-.3c0-.057.013-.098.036-.129.022-.032.064-.057.114-.055.055.001.093.022.118.057.021.033.03.068.028.128v.299h.074v-.299c0-.061.005-.091.032-.129.025-.037.071-.056.118-.056.051 0 .085.017.107.045.031.035.04.086.04.143v.296h.074v-.299c0-.095-.014-.153-.061-.2-.037-.038-.09-.054-.145-.054-.06 0-.113.023-.148.06-.02.021-.031.042-.039.057-.003-.006-.021-.042-.035-.056-.038-.043-.091-.061-.147-.061-.061 0-.136.032-.17.1v-.085h-.07z" transform="matrix(45.8333 0 0 45.8333 299.074 251.38)"/><path d="m.072-.637h.074v-.103h-.074zm0 .637h.074v-.538h-.074z" transform="matrix(45.8333 0 0 45.8333 342.89 251.38)"/><path d="m.595-.248c.008-.086-.022-.169-.084-.229-.051-.049-.121-.076-.197-.076-.161 0-.283.127-.283.285 0 .134.097.283.284.283.055 0 .108-.015.153-.044.046-.029.084-.073.109-.131h-.077c-.035.07-.102.111-.185.111-.091.001-.206-.064-.21-.199zm-.489-.059c.007-.098.093-.183.209-.183.111-.003.202.089.207.183z" transform="matrix(45.8333 0 0 45.8333 352.881 251.38)"/><path d="m.072 0h.074v-.304c0-.112.064-.179.175-.18.121-.002.173.077.173.193v.291h.073v-.306c0-.131-.059-.245-.226-.247-.096-.002-.169.041-.2.111.001-.036.001-.066.001-.096h-.07z" transform="matrix(45.8333 0 0 45.8333 381.664 251.38)"/><path d="m.114 0h.073v-.479h.118v-.059h-.118v-.202h-.073v.202h-.106v.059h.106z" transform="matrix(45.8333 0 0 45.8333 410.906 251.38)"/><path d="m.039-.269c0 .151.112.283.285.283.174 0 .286-.132.286-.283s-.112-.284-.286-.284c-.173 0-.285.133-.285.283zm.073 0c0-.123.093-.215.212-.215.12 0 .212.092.212.215s-.092.215-.212.215c-.119 0-.212-.092-.212-.214z" transform="matrix(45.8333 0 0 45.8333 423.922 251.38)"/><path d="m.595-.248c.008-.086-.022-.169-.084-.229-.051-.049-.121-.076-.197-.076-.161 0-.283.127-.283.285 0 .134.097.283.284.283.055 0 .108-.015.153-.044.046-.029.084-.073.109-.131h-.077c-.035.07-.102.111-.185.111-.091.001-.206-.064-.21-.199zm-.489-.059c.007-.098.093-.183.209-.183.111-.003.202.089.207.183z" transform="matrix(45.8333 0 0 45.8333 466.868 251.38)"/><path d="m.072 0h.074v-.304c0-.112.064-.179.175-.18.121-.002.173.077.173.193v.291h.073v-.306c0-.131-.059-.245-.226-.247-.096-.002-.169.041-.2.111.001-.036.001-.066.001-.096h-.07z" transform="matrix(45.8333 0 0 45.8333 495.651 251.38)"/><path d="m192.8349976 275.793358h3.3916642v33.916642h-3.3916642z" stroke-width="45.8333"/><path d="m.039-.269c0 .151.112.283.285.283.174 0 .286-.132.286-.283s-.112-.284-.286-.284c-.173 0-.285.133-.285.283zm.073 0c0-.123.093-.215.212-.215.12 0 .212.092.212.215s-.092.215-.212.215c-.119 0-.212-.092-.212-.214z" transform="matrix(45.8333 0 0 45.8333 199.48 309.71)"/><path d="m.387-.403c-.005-.109-.089-.15-.164-.15-.091 0-.168.057-.168.154.002.085.062.116.139.139.093.027.133.052.135.113.001.055-.042.101-.104.101-.054 0-.109-.033-.112-.107h-.073c.001.113.097.168.184.168.102 0 .182-.072.178-.171-.004-.115-.09-.137-.167-.158-.065-.019-.104-.04-.106-.091-.002-.047.034-.087.093-.087.054 0 .092.032.092.089z" transform="matrix(45.8333 0 0 45.8333 229.225 309.71)"/><path d="m.61-.74h-.074v.311c-.024-.056-.102-.124-.22-.124-.161 0-.277.123-.277.283 0 .151.106.285.278.285.112 0 .184-.055.222-.126v.111h.071zm-.498.47c0-.121.091-.215.215-.215.06 0 .114.023.152.062.039.038.062.09.062.151.002.06-.021.115-.06.155-.038.039-.093.063-.153.063-.14 0-.215-.107-.216-.215z" transform="matrix(45.8333 0 0 45.8333 263.05 309.71)"/><path d="m.072-.637h.074v-.103h-.074zm0 .637h.074v-.538h-.074z" transform="matrix(45.8333 0 0 45.8333 294.399 309.71)"/><path d="m.595-.248c.008-.086-.022-.169-.084-.229-.051-.049-.121-.076-.197-.076-.161 0-.283.127-.283.285 0 .134.097.283.284.283.055 0 .108-.015.153-.044.046-.029.084-.073.109-.131h-.077c-.035.07-.102.111-.185.111-.091.001-.206-.064-.21-.199zm-.489-.059c.007-.098.093-.183.209-.183.111-.003.202.089.207.183z" transform="matrix(45.8333 0 0 45.8333 304.391 309.71)"/><path d="m.072 0h.074v-.304c0-.112.064-.179.175-.18.121-.002.173.077.173.193v.291h.073v-.306c0-.131-.059-.245-.226-.247-.096-.002-.169.041-.2.111.001-.036.001-.066.001-.096h-.07z" transform="matrix(45.8333 0 0 45.8333 333.173 309.71)"/><path d="m.114 0h.073v-.479h.118v-.059h-.118v-.202h-.073v.202h-.106v.059h.106z" transform="matrix(45.8333 0 0 45.8333 362.415 309.71)"/><path d="m.595-.248c.008-.086-.022-.169-.084-.229-.051-.049-.121-.076-.197-.076-.161 0-.283.127-.283.285 0 .134.097.283.284.283.055 0 .108-.015.153-.044.046-.029.084-.073.109-.131h-.077c-.035.07-.102.111-.185.111-.091.001-.206-.064-.21-.199zm-.489-.059c.007-.098.093-.183.209-.183.111-.003.202.089.207.183z" transform="matrix(45.8333 0 0 45.8333 375.431 309.71)"/><path d="m.387-.403c-.005-.109-.089-.15-.164-.15-.091 0-.168.057-.168.154.002.085.062.116.139.139.093.027.133.052.135.113.001.055-.042.101-.104.101-.054 0-.109-.033-.112-.107h-.073c.001.113.097.168.184.168.102 0 .182-.072.178-.171-.004-.115-.09-.137-.167-.158-.065-.019-.104-.04-.106-.091-.002-.047.034-.087.093-.087.054 0 .092.032.092.089z" transform="matrix(45.8333 0 0 45.8333 404.214 309.71)"/><path d="m429.1003298 304.668337h3.5749974v5.041663h-3.5749974z" stroke-width="45.8333"/></g></g></svg>