<?xml version="1.0" encoding="UTF-8" standalone="no"?>
<!DOCTYPE svg PUBLIC "-//W3C//DTD SVG 1.1//EN" "http://www.w3.org/Graphics/SVG/1.1/DTD/svg11.dtd">
<svg width="100%" height="100%" viewBox="0 0 602 328" version="1.1" xmlns="http://www.w3.org/2000/svg" xmlns:xlink="http://www.w3.org/1999/xlink" xml:space="preserve" xmlns:serif="http://www.serif.com/" style="fill-rule:evenodd;clip-rule:evenodd;stroke-linejoin:round;stroke-miterlimit:2;">
    <g transform="matrix(1,0,0,1,-189,-2582)">
        <g id="l6">
            <g transform="matrix(4.16667,0,0,4.16667,189.566,2632.06)">
                <path d="M0,54.81L0,0.001C0,-6.515 7.192,-11.817 16.032,-11.817L57.456,-11.817C58.238,-11.817 58.872,-11.349 58.872,-10.773C58.872,-10.198 58.238,-9.73 57.456,-9.73L16.032,-9.73C8.753,-9.73 2.831,-5.365 2.831,0.001L2.831,54.81C2.831,60.176 8.753,64.541 16.032,64.541L128.176,64.541C135.456,64.541 141.378,60.176 141.378,54.81L141.378,0.001C141.378,-5.365 135.456,-9.73 128.176,-9.73L91.595,-9.73C90.814,-9.73 90.18,-10.198 90.18,-10.773C90.18,-11.349 90.814,-11.817 91.595,-11.817L128.176,-11.817C137.017,-11.817 144.209,-6.515 144.209,0.001L144.209,54.81C144.209,61.326 137.017,66.627 128.176,66.627L16.032,66.627C7.192,66.627 0,61.326 0,54.81" style="fill:rgb(189,87,161);fill-rule:nonzero;"/>
            </g>
            <g transform="matrix(45.8333,0,0,45.8333,230.493,2688.88)">
                <path d="M0.182,-0.208L0.527,-0.208L0.613,0L0.703,0L0.397,-0.74L0.317,-0.74L0.008,0L0.097,0L0.182,-0.208ZM0.502,-0.276L0.207,-0.276L0.354,-0.647L0.502,-0.276Z" style="fill:rgb(189,86,160);fill-rule:nonzero;"/>
            </g>
            <g transform="matrix(45.8333,0,0,45.8333,261.568,2688.88)">
                <path d="M0.567,-0.538L0.493,-0.538L0.493,-0.234C0.493,-0.122 0.429,-0.055 0.317,-0.054C0.196,-0.053 0.144,-0.131 0.144,-0.247L0.144,-0.538L0.071,-0.538L0.071,-0.233C0.071,-0.102 0.13,0.012 0.298,0.015C0.394,0.016 0.467,-0.026 0.497,-0.096L0.497,0L0.567,0L0.567,-0.538Z" style="fill:rgb(189,86,160);fill-rule:nonzero;"/>
            </g>
            <g transform="matrix(45.8333,0,0,45.8333,290.855,2688.88)">
                <path d="M0.072,0L0.146,0L0.146,-0.3C0.146,-0.357 0.159,-0.398 0.182,-0.429C0.204,-0.461 0.246,-0.486 0.296,-0.484C0.351,-0.483 0.389,-0.462 0.414,-0.427C0.435,-0.394 0.444,-0.359 0.442,-0.299L0.442,0L0.516,0L0.516,-0.299C0.516,-0.36 0.521,-0.39 0.548,-0.428C0.573,-0.465 0.619,-0.484 0.666,-0.484C0.717,-0.484 0.751,-0.467 0.773,-0.439C0.804,-0.404 0.813,-0.353 0.813,-0.296L0.813,0L0.887,0L0.887,-0.299C0.887,-0.394 0.873,-0.452 0.826,-0.499C0.789,-0.537 0.736,-0.553 0.681,-0.553C0.621,-0.553 0.568,-0.53 0.533,-0.493C0.513,-0.472 0.502,-0.451 0.494,-0.436C0.491,-0.442 0.473,-0.478 0.459,-0.492C0.421,-0.535 0.368,-0.553 0.312,-0.553C0.251,-0.553 0.176,-0.521 0.142,-0.453L0.142,-0.538L0.072,-0.538L0.072,0Z" style="fill:rgb(189,86,160);fill-rule:nonzero;"/>
            </g>
            <g transform="matrix(45.8333,0,0,45.8333,334.671,2688.88)">
                <path d="M0.595,-0.248C0.603,-0.334 0.573,-0.417 0.511,-0.477C0.46,-0.526 0.39,-0.553 0.314,-0.553C0.153,-0.553 0.031,-0.426 0.031,-0.268C0.031,-0.134 0.128,0.015 0.315,0.015C0.37,0.015 0.423,0 0.468,-0.029C0.514,-0.058 0.552,-0.102 0.577,-0.16L0.5,-0.16C0.465,-0.09 0.398,-0.049 0.315,-0.049C0.224,-0.048 0.109,-0.113 0.105,-0.248L0.595,-0.248ZM0.106,-0.307C0.113,-0.405 0.199,-0.49 0.315,-0.49C0.426,-0.493 0.517,-0.401 0.522,-0.307L0.106,-0.307Z" style="fill:rgb(189,86,160);fill-rule:nonzero;"/>
            </g>
            <g transform="matrix(45.8333,0,0,45.8333,363.454,2688.88)">
                <path d="M0.072,0L0.146,0L0.146,-0.304C0.146,-0.416 0.21,-0.483 0.321,-0.484C0.442,-0.486 0.494,-0.407 0.494,-0.291L0.494,0L0.567,0L0.567,-0.306C0.567,-0.437 0.508,-0.551 0.341,-0.553C0.245,-0.555 0.172,-0.512 0.141,-0.442C0.142,-0.478 0.142,-0.508 0.142,-0.538L0.072,-0.538L0.072,0Z" style="fill:rgb(189,86,160);fill-rule:nonzero;"/>
            </g>
            <g transform="matrix(45.8333,0,0,45.8333,392.696,2688.88)">
                <path d="M0.114,0L0.187,0L0.187,-0.479L0.305,-0.479L0.305,-0.538L0.187,-0.538L0.187,-0.74L0.114,-0.74L0.114,-0.538L0.008,-0.538L0.008,-0.479L0.114,-0.479L0.114,0Z" style="fill:rgb(189,86,160);fill-rule:nonzero;"/>
            </g>
            <g transform="matrix(45.8333,0,0,45.8333,405.712,2688.88)">
                <path d="M0.612,-0.538L0.538,-0.538L0.538,-0.425C0.512,-0.486 0.433,-0.553 0.318,-0.553C0.154,-0.553 0.039,-0.427 0.039,-0.269C0.039,-0.121 0.143,0.015 0.318,0.015C0.414,0.015 0.496,-0.03 0.538,-0.111L0.538,0L0.612,0L0.612,-0.538ZM0.112,-0.269C0.112,-0.389 0.202,-0.485 0.326,-0.485C0.421,-0.485 0.493,-0.43 0.523,-0.356C0.535,-0.33 0.541,-0.3 0.54,-0.27C0.54,-0.241 0.534,-0.211 0.522,-0.185C0.493,-0.109 0.423,-0.054 0.328,-0.054C0.18,-0.054 0.113,-0.171 0.112,-0.268L0.112,-0.269Z" style="fill:rgb(189,86,160);fill-rule:nonzero;"/>
            </g>
            <g transform="matrix(45.8333,0,0,45.8333,450.262,2688.88)">
                <rect x="0.072" y="-0.74" width="0.074" height="0.74" style="fill:rgb(189,86,160);fill-rule:nonzero;"/>
            </g>
            <g transform="matrix(45.8333,0,0,45.8333,460.208,2688.88)">
                <path d="M0.612,-0.538L0.538,-0.538L0.538,-0.425C0.512,-0.486 0.433,-0.553 0.318,-0.553C0.154,-0.553 0.039,-0.427 0.039,-0.269C0.039,-0.121 0.143,0.015 0.318,0.015C0.414,0.015 0.496,-0.03 0.538,-0.111L0.538,0L0.612,0L0.612,-0.538ZM0.112,-0.269C0.112,-0.389 0.202,-0.485 0.326,-0.485C0.421,-0.485 0.493,-0.43 0.523,-0.356C0.535,-0.33 0.541,-0.3 0.54,-0.27C0.54,-0.241 0.534,-0.211 0.522,-0.185C0.493,-0.109 0.423,-0.054 0.328,-0.054C0.18,-0.054 0.113,-0.171 0.112,-0.268L0.112,-0.269Z" style="fill:rgb(189,86,160);fill-rule:nonzero;"/>
            </g>
            <g transform="matrix(45.8333,0,0,45.8333,504.757,2688.88)">
                <path d="M0.085,0L0.158,0L0.158,-0.479L0.274,-0.479L0.274,-0.538L0.158,-0.538L0.158,-0.575C0.158,-0.692 0.237,-0.692 0.274,-0.694L0.274,-0.753C0.216,-0.753 0.085,-0.748 0.085,-0.582L0.085,-0.538L0.006,-0.538L0.006,-0.479L0.085,-0.479L0.085,0Z" style="fill:rgb(189,86,160);fill-rule:nonzero;"/>
            </g>
            <g transform="matrix(45.8333,0,0,45.8333,517.59,2688.88)">
                <path d="M0.072,0L0.145,0L0.145,-0.293C0.145,-0.415 0.203,-0.48 0.307,-0.48L0.314,-0.48L0.314,-0.553C0.251,-0.551 0.181,-0.53 0.142,-0.45L0.142,-0.538L0.072,-0.538L0.072,0Z" style="fill:rgb(189,86,160);fill-rule:nonzero;"/>
            </g>
            <g transform="matrix(45.8333,0,0,45.8333,530.607,2688.88)">
                <path d="M0.595,-0.248C0.603,-0.334 0.573,-0.417 0.511,-0.477C0.46,-0.526 0.39,-0.553 0.314,-0.553C0.153,-0.553 0.031,-0.426 0.031,-0.268C0.031,-0.134 0.128,0.015 0.315,0.015C0.37,0.015 0.423,0 0.468,-0.029C0.514,-0.058 0.552,-0.102 0.577,-0.16L0.5,-0.16C0.465,-0.09 0.398,-0.049 0.315,-0.049C0.224,-0.048 0.109,-0.113 0.105,-0.248L0.595,-0.248ZM0.106,-0.307C0.113,-0.405 0.199,-0.49 0.315,-0.49C0.426,-0.493 0.517,-0.401 0.522,-0.307L0.106,-0.307Z" style="fill:rgb(189,86,160);fill-rule:nonzero;"/>
            </g>
            <g transform="matrix(45.8333,0,0,45.8333,559.39,2688.88)">
                <path d="M0.519,-0.182C0.496,-0.117 0.427,-0.055 0.324,-0.054C0.208,-0.054 0.112,-0.142 0.112,-0.269C0.112,-0.331 0.137,-0.389 0.173,-0.424C0.218,-0.466 0.262,-0.485 0.325,-0.485C0.401,-0.485 0.486,-0.443 0.52,-0.352L0.596,-0.352C0.559,-0.481 0.443,-0.553 0.322,-0.553C0.159,-0.553 0.038,-0.428 0.038,-0.269C0.038,-0.125 0.145,0.015 0.327,0.015C0.456,0.015 0.561,-0.068 0.596,-0.182L0.519,-0.182Z" style="fill:rgb(189,86,160);fill-rule:nonzero;"/>
            </g>
            <g transform="matrix(45.8333,0,0,45.8333,588.265,2688.88)">
                <path d="M0.567,-0.538L0.493,-0.538L0.493,-0.234C0.493,-0.122 0.429,-0.055 0.317,-0.054C0.196,-0.053 0.144,-0.131 0.144,-0.247L0.144,-0.538L0.071,-0.538L0.071,-0.233C0.071,-0.102 0.13,0.012 0.298,0.015C0.394,0.016 0.467,-0.026 0.497,-0.096L0.497,0L0.567,0L0.567,-0.538Z" style="fill:rgb(189,86,160);fill-rule:nonzero;"/>
            </g>
            <g transform="matrix(45.8333,0,0,45.8333,617.552,2688.88)">
                <path d="M0.595,-0.248C0.603,-0.334 0.573,-0.417 0.511,-0.477C0.46,-0.526 0.39,-0.553 0.314,-0.553C0.153,-0.553 0.031,-0.426 0.031,-0.268C0.031,-0.134 0.128,0.015 0.315,0.015C0.37,0.015 0.423,0 0.468,-0.029C0.514,-0.058 0.552,-0.102 0.577,-0.16L0.5,-0.16C0.465,-0.09 0.398,-0.049 0.315,-0.049C0.224,-0.048 0.109,-0.113 0.105,-0.248L0.595,-0.248ZM0.106,-0.307C0.113,-0.405 0.199,-0.49 0.315,-0.49C0.426,-0.493 0.517,-0.401 0.522,-0.307L0.106,-0.307Z" style="fill:rgb(189,86,160);fill-rule:nonzero;"/>
            </g>
            <g transform="matrix(45.8333,0,0,45.8333,646.335,2688.88)">
                <path d="M0.072,0L0.146,0L0.146,-0.304C0.146,-0.416 0.21,-0.483 0.321,-0.484C0.442,-0.486 0.494,-0.407 0.494,-0.291L0.494,0L0.567,0L0.567,-0.306C0.567,-0.437 0.508,-0.551 0.341,-0.553C0.245,-0.555 0.172,-0.512 0.141,-0.442C0.142,-0.478 0.142,-0.508 0.142,-0.538L0.072,-0.538L0.072,0Z" style="fill:rgb(189,86,160);fill-rule:nonzero;"/>
            </g>
            <g transform="matrix(45.8333,0,0,45.8333,675.576,2688.88)">
                <path d="M0.519,-0.182C0.496,-0.117 0.427,-0.055 0.324,-0.054C0.208,-0.054 0.112,-0.142 0.112,-0.269C0.112,-0.331 0.137,-0.389 0.173,-0.424C0.218,-0.466 0.262,-0.485 0.325,-0.485C0.401,-0.485 0.486,-0.443 0.52,-0.352L0.596,-0.352C0.559,-0.481 0.443,-0.553 0.322,-0.553C0.159,-0.553 0.038,-0.428 0.038,-0.269C0.038,-0.125 0.145,0.015 0.327,0.015C0.456,0.015 0.561,-0.068 0.596,-0.182L0.519,-0.182Z" style="fill:rgb(189,86,160);fill-rule:nonzero;"/>
            </g>
            <g transform="matrix(45.8333,0,0,45.8333,704.451,2688.88)">
                <path d="M0.072,-0.637L0.146,-0.637L0.146,-0.74L0.072,-0.74L0.072,-0.637ZM0.072,0L0.146,0L0.146,-0.538L0.072,-0.538L0.072,0Z" style="fill:rgb(189,86,160);fill-rule:nonzero;"/>
            </g>
            <g transform="matrix(45.8333,0,0,45.8333,714.442,2688.88)">
                <path d="M0.612,-0.538L0.538,-0.538L0.538,-0.425C0.512,-0.486 0.433,-0.553 0.318,-0.553C0.154,-0.553 0.039,-0.427 0.039,-0.269C0.039,-0.121 0.143,0.015 0.318,0.015C0.414,0.015 0.496,-0.03 0.538,-0.111L0.538,0L0.612,0L0.612,-0.538ZM0.112,-0.269C0.112,-0.389 0.202,-0.485 0.326,-0.485C0.421,-0.485 0.493,-0.43 0.523,-0.356C0.535,-0.33 0.541,-0.3 0.54,-0.27C0.54,-0.241 0.534,-0.211 0.522,-0.185C0.493,-0.109 0.423,-0.054 0.328,-0.054C0.18,-0.054 0.113,-0.171 0.112,-0.268L0.112,-0.269Z" style="fill:rgb(189,86,160);fill-rule:nonzero;"/>
            </g>
            <g transform="matrix(45.8333,0,0,45.8333,258.772,2747.22)">
                <path d="M0.519,-0.182C0.496,-0.117 0.427,-0.055 0.324,-0.054C0.208,-0.054 0.112,-0.142 0.112,-0.269C0.112,-0.331 0.137,-0.389 0.173,-0.424C0.218,-0.466 0.262,-0.485 0.325,-0.485C0.401,-0.485 0.486,-0.443 0.52,-0.352L0.596,-0.352C0.559,-0.481 0.443,-0.553 0.322,-0.553C0.159,-0.553 0.038,-0.428 0.038,-0.269C0.038,-0.125 0.145,0.015 0.327,0.015C0.456,0.015 0.561,-0.068 0.596,-0.182L0.519,-0.182Z" style="fill:rgb(189,86,160);fill-rule:nonzero;"/>
            </g>
            <g transform="matrix(45.8333,0,0,45.8333,287.647,2747.22)">
                <path d="M0.612,-0.538L0.538,-0.538L0.538,-0.425C0.512,-0.486 0.433,-0.553 0.318,-0.553C0.154,-0.553 0.039,-0.427 0.039,-0.269C0.039,-0.121 0.143,0.015 0.318,0.015C0.414,0.015 0.496,-0.03 0.538,-0.111L0.538,0L0.612,0L0.612,-0.538ZM0.112,-0.269C0.112,-0.389 0.202,-0.485 0.326,-0.485C0.421,-0.485 0.493,-0.43 0.523,-0.356C0.535,-0.33 0.541,-0.3 0.54,-0.27C0.54,-0.241 0.534,-0.211 0.522,-0.185C0.493,-0.109 0.423,-0.054 0.328,-0.054C0.18,-0.054 0.113,-0.171 0.112,-0.268L0.112,-0.269Z" style="fill:rgb(189,86,160);fill-rule:nonzero;"/>
            </g>
            <g transform="matrix(45.8333,0,0,45.8333,318.997,2747.22)">
                <path d="M0.072,0L0.145,0L0.145,-0.293C0.145,-0.415 0.203,-0.48 0.307,-0.48L0.314,-0.48L0.314,-0.553C0.251,-0.551 0.181,-0.53 0.142,-0.45L0.142,-0.538L0.072,-0.538L0.072,0Z" style="fill:rgb(189,86,160);fill-rule:nonzero;"/>
            </g>
            <g transform="matrix(45.8333,0,0,45.8333,332.288,2747.22)">
                <path d="M0.61,-0.74L0.536,-0.74L0.536,-0.429C0.512,-0.485 0.434,-0.553 0.316,-0.553C0.155,-0.553 0.039,-0.43 0.039,-0.27C0.039,-0.119 0.145,0.015 0.317,0.015C0.429,0.015 0.501,-0.04 0.539,-0.111L0.539,0L0.61,0L0.61,-0.74ZM0.112,-0.27C0.112,-0.391 0.203,-0.485 0.327,-0.485C0.387,-0.485 0.441,-0.462 0.479,-0.423C0.518,-0.385 0.541,-0.333 0.541,-0.272C0.543,-0.212 0.52,-0.157 0.481,-0.117C0.443,-0.078 0.388,-0.054 0.328,-0.054C0.188,-0.054 0.113,-0.161 0.112,-0.269L0.112,-0.27Z" style="fill:rgb(189,86,160);fill-rule:nonzero;"/>
            </g>
            <g transform="matrix(45.8333,0,0,45.8333,363.638,2747.22)">
                <path d="M0.072,-0.637L0.146,-0.637L0.146,-0.74L0.072,-0.74L0.072,-0.637ZM0.072,0L0.146,0L0.146,-0.538L0.072,-0.538L0.072,0Z" style="fill:rgb(189,86,160);fill-rule:nonzero;"/>
            </g>
            <g transform="matrix(45.8333,0,0,45.8333,373.629,2747.22)">
                <path d="M0.612,-0.538L0.538,-0.538L0.538,-0.425C0.512,-0.486 0.433,-0.553 0.318,-0.553C0.154,-0.553 0.039,-0.427 0.039,-0.269C0.039,-0.121 0.143,0.015 0.318,0.015C0.414,0.015 0.496,-0.03 0.538,-0.111L0.538,0L0.612,0L0.612,-0.538ZM0.112,-0.269C0.112,-0.389 0.202,-0.485 0.326,-0.485C0.421,-0.485 0.493,-0.43 0.523,-0.356C0.535,-0.33 0.541,-0.3 0.54,-0.27C0.54,-0.241 0.534,-0.211 0.522,-0.185C0.493,-0.109 0.423,-0.054 0.328,-0.054C0.18,-0.054 0.113,-0.171 0.112,-0.268L0.112,-0.269Z" style="fill:rgb(189,86,160);fill-rule:nonzero;"/>
            </g>
            <g transform="matrix(45.8333,0,0,45.8333,404.979,2747.22)">
                <path d="M0.519,-0.182C0.496,-0.117 0.427,-0.055 0.324,-0.054C0.208,-0.054 0.112,-0.142 0.112,-0.269C0.112,-0.331 0.137,-0.389 0.173,-0.424C0.218,-0.466 0.262,-0.485 0.325,-0.485C0.401,-0.485 0.486,-0.443 0.52,-0.352L0.596,-0.352C0.559,-0.481 0.443,-0.553 0.322,-0.553C0.159,-0.553 0.038,-0.428 0.038,-0.269C0.038,-0.125 0.145,0.015 0.327,0.015C0.456,0.015 0.561,-0.068 0.596,-0.182L0.519,-0.182Z" style="fill:rgb(189,86,160);fill-rule:nonzero;"/>
            </g>
            <g transform="matrix(45.8333,0,0,45.8333,433.853,2747.22)">
                <path d="M0.612,-0.538L0.538,-0.538L0.538,-0.425C0.512,-0.486 0.433,-0.553 0.318,-0.553C0.154,-0.553 0.039,-0.427 0.039,-0.269C0.039,-0.121 0.143,0.015 0.318,0.015C0.414,0.015 0.496,-0.03 0.538,-0.111L0.538,0L0.612,0L0.612,-0.538ZM0.112,-0.269C0.112,-0.389 0.202,-0.485 0.326,-0.485C0.421,-0.485 0.493,-0.43 0.523,-0.356C0.535,-0.33 0.541,-0.3 0.54,-0.27C0.54,-0.241 0.534,-0.211 0.522,-0.185C0.493,-0.109 0.423,-0.054 0.328,-0.054C0.18,-0.054 0.113,-0.171 0.112,-0.268L0.112,-0.269Z" style="fill:rgb(189,86,160);fill-rule:nonzero;"/>
            </g>
            <g transform="matrix(45.8333,0,0,45.8333,465.203,2747.22)">
                <path d="M0.185,-0.111L0.106,-0.111L0.043,0.075L0.11,0.075L0.185,-0.111Z" style="fill:rgb(189,86,160);fill-rule:nonzero;"/>
            </g>
            <g transform="matrix(45.8333,0,0,45.8333,486.286,2747.22)">
                <path d="M0.072,0.204L0.146,0.204L0.146,-0.11C0.171,-0.054 0.248,0.015 0.367,0.015C0.534,0.015 0.643,-0.117 0.643,-0.267C0.643,-0.406 0.548,-0.553 0.367,-0.553C0.264,-0.553 0.186,-0.504 0.142,-0.426L0.142,-0.538L0.072,-0.538L0.072,0.204ZM0.569,-0.269C0.569,-0.146 0.476,-0.054 0.355,-0.054C0.295,-0.054 0.241,-0.077 0.203,-0.115C0.164,-0.154 0.141,-0.208 0.141,-0.268C0.141,-0.329 0.164,-0.383 0.201,-0.422C0.24,-0.461 0.293,-0.485 0.353,-0.485C0.498,-0.485 0.569,-0.371 0.569,-0.27L0.569,-0.269Z" style="fill:rgb(189,86,160);fill-rule:nonzero;"/>
            </g>
            <g transform="matrix(45.8333,0,0,45.8333,517.636,2747.22)">
                <path d="M0.039,-0.269C0.039,-0.118 0.151,0.014 0.324,0.014C0.498,0.014 0.61,-0.118 0.61,-0.269C0.61,-0.42 0.498,-0.553 0.324,-0.553C0.151,-0.553 0.039,-0.42 0.039,-0.27L0.039,-0.269ZM0.112,-0.269C0.112,-0.392 0.205,-0.484 0.324,-0.484C0.444,-0.484 0.536,-0.392 0.536,-0.269C0.536,-0.146 0.444,-0.054 0.324,-0.054C0.205,-0.054 0.112,-0.146 0.112,-0.268L0.112,-0.269Z" style="fill:rgb(189,86,160);fill-rule:nonzero;"/>
            </g>
            <g transform="matrix(45.8333,0,0,45.8333,547.381,2747.22)">
                <path d="M0.072,0L0.145,0L0.145,-0.293C0.145,-0.415 0.203,-0.48 0.307,-0.48L0.314,-0.48L0.314,-0.553C0.251,-0.551 0.181,-0.53 0.142,-0.45L0.142,-0.538L0.072,-0.538L0.072,0Z" style="fill:rgb(189,86,160);fill-rule:nonzero;"/>
            </g>
            <g transform="matrix(45.8333,0,0,45.8333,575.339,2747.22)">
                <rect x="0.072" y="-0.74" width="0.074" height="0.74" style="fill:rgb(189,86,160);fill-rule:nonzero;"/>
            </g>
            <g transform="matrix(45.8333,0,0,45.8333,585.285,2747.22)">
                <path d="M0.039,-0.269C0.039,-0.118 0.151,0.014 0.324,0.014C0.498,0.014 0.61,-0.118 0.61,-0.269C0.61,-0.42 0.498,-0.553 0.324,-0.553C0.151,-0.553 0.039,-0.42 0.039,-0.27L0.039,-0.269ZM0.112,-0.269C0.112,-0.392 0.205,-0.484 0.324,-0.484C0.444,-0.484 0.536,-0.392 0.536,-0.269C0.536,-0.146 0.444,-0.054 0.324,-0.054C0.205,-0.054 0.112,-0.146 0.112,-0.268L0.112,-0.269Z" style="fill:rgb(189,86,160);fill-rule:nonzero;"/>
            </g>
            <g transform="matrix(45.8333,0,0,45.8333,628.231,2747.22)">
                <path d="M0.61,-0.538L0.539,-0.538L0.539,-0.43C0.502,-0.497 0.428,-0.553 0.318,-0.553C0.151,-0.553 0.039,-0.425 0.039,-0.266C0.039,-0.115 0.148,0.015 0.314,0.015C0.435,0.015 0.511,-0.054 0.536,-0.109L0.536,0.204L0.61,0.204L0.61,-0.538ZM0.112,-0.268C0.113,-0.372 0.184,-0.485 0.328,-0.485C0.387,-0.485 0.442,-0.461 0.48,-0.421C0.519,-0.382 0.542,-0.328 0.54,-0.268C0.54,-0.208 0.517,-0.154 0.479,-0.116C0.44,-0.077 0.387,-0.054 0.327,-0.054C0.203,-0.054 0.112,-0.149 0.112,-0.267L0.112,-0.268Z" style="fill:rgb(189,86,160);fill-rule:nonzero;"/>
            </g>
            <g transform="matrix(45.8333,0,0,45.8333,659.489,2747.22)">
                <path d="M0.567,-0.538L0.493,-0.538L0.493,-0.234C0.493,-0.122 0.429,-0.055 0.317,-0.054C0.196,-0.053 0.144,-0.131 0.144,-0.247L0.144,-0.538L0.071,-0.538L0.071,-0.233C0.071,-0.102 0.13,0.012 0.298,0.015C0.394,0.016 0.467,-0.026 0.497,-0.096L0.497,0L0.567,0L0.567,-0.538Z" style="fill:rgb(189,86,160);fill-rule:nonzero;"/>
            </g>
            <g transform="matrix(45.8333,0,0,45.8333,688.776,2747.22)">
                <path d="M0.595,-0.248C0.603,-0.334 0.573,-0.417 0.511,-0.477C0.46,-0.526 0.39,-0.553 0.314,-0.553C0.153,-0.553 0.031,-0.426 0.031,-0.268C0.031,-0.134 0.128,0.015 0.315,0.015C0.37,0.015 0.423,0 0.468,-0.029C0.514,-0.058 0.552,-0.102 0.577,-0.16L0.5,-0.16C0.465,-0.09 0.398,-0.049 0.315,-0.049C0.224,-0.048 0.109,-0.113 0.105,-0.248L0.595,-0.248ZM0.106,-0.307C0.113,-0.405 0.199,-0.49 0.315,-0.49C0.426,-0.493 0.517,-0.401 0.522,-0.307L0.106,-0.307Z" style="fill:rgb(189,86,160);fill-rule:nonzero;"/>
            </g>
            <g transform="matrix(45.8333,0,0,45.8333,256.893,2805.55)">
                <path d="M0.61,-0.74L0.536,-0.74L0.536,-0.429C0.512,-0.485 0.434,-0.553 0.316,-0.553C0.155,-0.553 0.039,-0.43 0.039,-0.27C0.039,-0.119 0.145,0.015 0.317,0.015C0.429,0.015 0.501,-0.04 0.539,-0.111L0.539,0L0.61,0L0.61,-0.74ZM0.112,-0.27C0.112,-0.391 0.203,-0.485 0.327,-0.485C0.387,-0.485 0.441,-0.462 0.479,-0.423C0.518,-0.385 0.541,-0.333 0.541,-0.272C0.543,-0.212 0.52,-0.157 0.481,-0.117C0.443,-0.078 0.388,-0.054 0.328,-0.054C0.188,-0.054 0.113,-0.161 0.112,-0.269L0.112,-0.27Z" style="fill:rgb(189,86,160);fill-rule:nonzero;"/>
            </g>
            <g transform="matrix(45.8333,0,0,45.8333,288.243,2805.55)">
                <path d="M0.595,-0.248C0.603,-0.334 0.573,-0.417 0.511,-0.477C0.46,-0.526 0.39,-0.553 0.314,-0.553C0.153,-0.553 0.031,-0.426 0.031,-0.268C0.031,-0.134 0.128,0.015 0.315,0.015C0.37,0.015 0.423,0 0.468,-0.029C0.514,-0.058 0.552,-0.102 0.577,-0.16L0.5,-0.16C0.465,-0.09 0.398,-0.049 0.315,-0.049C0.224,-0.048 0.109,-0.113 0.105,-0.248L0.595,-0.248ZM0.106,-0.307C0.113,-0.405 0.199,-0.49 0.315,-0.49C0.426,-0.493 0.517,-0.401 0.522,-0.307L0.106,-0.307Z" style="fill:rgb(189,86,160);fill-rule:nonzero;"/>
            </g>
            <g transform="matrix(45.8333,0,0,45.8333,317.026,2805.55)">
                <path d="M0.387,-0.403C0.382,-0.512 0.298,-0.553 0.223,-0.553C0.132,-0.553 0.055,-0.496 0.055,-0.399C0.057,-0.314 0.117,-0.283 0.194,-0.26C0.287,-0.233 0.327,-0.208 0.329,-0.147C0.33,-0.092 0.287,-0.046 0.225,-0.046C0.171,-0.046 0.116,-0.079 0.113,-0.153L0.04,-0.153C0.041,-0.04 0.137,0.015 0.224,0.015C0.326,0.015 0.406,-0.057 0.402,-0.156C0.398,-0.271 0.312,-0.293 0.235,-0.314C0.17,-0.333 0.131,-0.354 0.129,-0.405C0.127,-0.452 0.163,-0.492 0.222,-0.492C0.276,-0.492 0.314,-0.46 0.314,-0.403L0.387,-0.403Z" style="fill:rgb(189,86,160);fill-rule:nonzero;"/>
            </g>
            <g transform="matrix(45.8333,0,0,45.8333,337.65,2805.55)">
                <path d="M0.61,-0.538L0.537,-0.538L0.537,-0.427C0.507,-0.493 0.425,-0.553 0.319,-0.553C0.155,-0.553 0.038,-0.429 0.038,-0.268C0.038,-0.113 0.151,0.015 0.319,0.015C0.423,0.015 0.498,-0.038 0.536,-0.114L0.536,-0.045C0.536,0.089 0.431,0.169 0.328,0.169C0.294,0.169 0.248,0.158 0.209,0.13C0.177,0.108 0.158,0.082 0.145,0.059L0.06,0.059C0.094,0.156 0.192,0.233 0.326,0.233C0.399,0.233 0.477,0.202 0.53,0.15C0.577,0.105 0.61,0.04 0.61,-0.062L0.61,-0.538ZM0.112,-0.27C0.112,-0.396 0.208,-0.484 0.326,-0.484C0.403,-0.484 0.457,-0.452 0.49,-0.409C0.524,-0.366 0.539,-0.313 0.539,-0.268C0.538,-0.209 0.516,-0.155 0.479,-0.116C0.441,-0.077 0.389,-0.054 0.328,-0.054C0.189,-0.054 0.112,-0.16 0.112,-0.269L0.112,-0.27Z" style="fill:rgb(189,86,160);fill-rule:nonzero;"/>
            </g>
            <g transform="matrix(45.8333,0,0,45.8333,368.863,2805.55)">
                <path d="M0.612,-0.538L0.538,-0.538L0.538,-0.425C0.512,-0.486 0.433,-0.553 0.318,-0.553C0.154,-0.553 0.039,-0.427 0.039,-0.269C0.039,-0.121 0.143,0.015 0.318,0.015C0.414,0.015 0.496,-0.03 0.538,-0.111L0.538,0L0.612,0L0.612,-0.538ZM0.112,-0.269C0.112,-0.389 0.202,-0.485 0.326,-0.485C0.421,-0.485 0.493,-0.43 0.523,-0.356C0.535,-0.33 0.541,-0.3 0.54,-0.27C0.54,-0.241 0.534,-0.211 0.522,-0.185C0.493,-0.109 0.423,-0.054 0.328,-0.054C0.18,-0.054 0.113,-0.171 0.112,-0.268L0.112,-0.269Z" style="fill:rgb(189,86,160);fill-rule:nonzero;"/>
            </g>
            <g transform="matrix(45.8333,0,0,45.8333,400.212,2805.55)">
                <path d="M0.387,-0.403C0.382,-0.512 0.298,-0.553 0.223,-0.553C0.132,-0.553 0.055,-0.496 0.055,-0.399C0.057,-0.314 0.117,-0.283 0.194,-0.26C0.287,-0.233 0.327,-0.208 0.329,-0.147C0.33,-0.092 0.287,-0.046 0.225,-0.046C0.171,-0.046 0.116,-0.079 0.113,-0.153L0.04,-0.153C0.041,-0.04 0.137,0.015 0.224,0.015C0.326,0.015 0.406,-0.057 0.402,-0.156C0.398,-0.271 0.312,-0.293 0.235,-0.314C0.17,-0.333 0.131,-0.354 0.129,-0.405C0.127,-0.452 0.163,-0.492 0.222,-0.492C0.276,-0.492 0.314,-0.46 0.314,-0.403L0.387,-0.403Z" style="fill:rgb(189,86,160);fill-rule:nonzero;"/>
            </g>
            <g transform="matrix(45.8333,0,0,45.8333,420.837,2805.55)">
                <path d="M0.114,0L0.187,0L0.187,-0.479L0.305,-0.479L0.305,-0.538L0.187,-0.538L0.187,-0.74L0.114,-0.74L0.114,-0.538L0.008,-0.538L0.008,-0.479L0.114,-0.479L0.114,0Z" style="fill:rgb(189,86,160);fill-rule:nonzero;"/>
            </g>
            <g transform="matrix(45.8333,0,0,45.8333,433.854,2805.55)">
                <path d="M0.612,-0.538L0.538,-0.538L0.538,-0.425C0.512,-0.486 0.433,-0.553 0.318,-0.553C0.154,-0.553 0.039,-0.427 0.039,-0.269C0.039,-0.121 0.143,0.015 0.318,0.015C0.414,0.015 0.496,-0.03 0.538,-0.111L0.538,0L0.612,0L0.612,-0.538ZM0.112,-0.269C0.112,-0.389 0.202,-0.485 0.326,-0.485C0.421,-0.485 0.493,-0.43 0.523,-0.356C0.535,-0.33 0.541,-0.3 0.54,-0.27C0.54,-0.241 0.534,-0.211 0.522,-0.185C0.493,-0.109 0.423,-0.054 0.328,-0.054C0.18,-0.054 0.113,-0.171 0.112,-0.268L0.112,-0.269Z" style="fill:rgb(189,86,160);fill-rule:nonzero;"/>
            </g>
            <g transform="matrix(45.8333,0,0,45.8333,478.403,2805.55)">
                <rect x="0.072" y="-0.74" width="0.074" height="0.74" style="fill:rgb(189,86,160);fill-rule:nonzero;"/>
            </g>
            <g transform="matrix(45.8333,0,0,45.8333,488.349,2805.55)">
                <path d="M0.612,-0.538L0.538,-0.538L0.538,-0.425C0.512,-0.486 0.433,-0.553 0.318,-0.553C0.154,-0.553 0.039,-0.427 0.039,-0.269C0.039,-0.121 0.143,0.015 0.318,0.015C0.414,0.015 0.496,-0.03 0.538,-0.111L0.538,0L0.612,0L0.612,-0.538ZM0.112,-0.269C0.112,-0.389 0.202,-0.485 0.326,-0.485C0.421,-0.485 0.493,-0.43 0.523,-0.356C0.535,-0.33 0.541,-0.3 0.54,-0.27C0.54,-0.241 0.534,-0.211 0.522,-0.185C0.493,-0.109 0.423,-0.054 0.328,-0.054C0.18,-0.054 0.113,-0.171 0.112,-0.268L0.112,-0.269Z" style="fill:rgb(189,86,160);fill-rule:nonzero;"/>
            </g>
            <g transform="matrix(45.8333,0,0,45.8333,519.699,2805.55)">
                <path d="M0.387,-0.403C0.382,-0.512 0.298,-0.553 0.223,-0.553C0.132,-0.553 0.055,-0.496 0.055,-0.399C0.057,-0.314 0.117,-0.283 0.194,-0.26C0.287,-0.233 0.327,-0.208 0.329,-0.147C0.33,-0.092 0.287,-0.046 0.225,-0.046C0.171,-0.046 0.116,-0.079 0.113,-0.153L0.04,-0.153C0.041,-0.04 0.137,0.015 0.224,0.015C0.326,0.015 0.406,-0.057 0.402,-0.156C0.398,-0.271 0.312,-0.293 0.235,-0.314C0.17,-0.333 0.131,-0.354 0.129,-0.405C0.127,-0.452 0.163,-0.492 0.222,-0.492C0.276,-0.492 0.314,-0.46 0.314,-0.403L0.387,-0.403Z" style="fill:rgb(189,86,160);fill-rule:nonzero;"/>
            </g>
            <g transform="matrix(45.8333,0,0,45.8333,553.523,2805.55)">
                <path d="M0.612,-0.538L0.538,-0.538L0.538,-0.425C0.512,-0.486 0.433,-0.553 0.318,-0.553C0.154,-0.553 0.039,-0.427 0.039,-0.269C0.039,-0.121 0.143,0.015 0.318,0.015C0.414,0.015 0.496,-0.03 0.538,-0.111L0.538,0L0.612,0L0.612,-0.538ZM0.112,-0.269C0.112,-0.389 0.202,-0.485 0.326,-0.485C0.421,-0.485 0.493,-0.43 0.523,-0.356C0.535,-0.33 0.541,-0.3 0.54,-0.27C0.54,-0.241 0.534,-0.211 0.522,-0.185C0.493,-0.109 0.423,-0.054 0.328,-0.054C0.18,-0.054 0.113,-0.171 0.112,-0.268L0.112,-0.269Z" style="fill:rgb(189,86,160);fill-rule:nonzero;"/>
            </g>
            <g transform="matrix(45.8333,0,0,45.8333,584.873,2805.55)">
                <path d="M0.072,0L0.145,0L0.145,-0.293C0.145,-0.415 0.203,-0.48 0.307,-0.48L0.314,-0.48L0.314,-0.553C0.251,-0.551 0.181,-0.53 0.142,-0.45L0.142,-0.538L0.072,-0.538L0.072,0Z" style="fill:rgb(189,86,160);fill-rule:nonzero;"/>
            </g>
            <g transform="matrix(45.8333,0,0,45.8333,600.869,2805.55)">
                <path d="M0.114,0L0.187,0L0.187,-0.479L0.305,-0.479L0.305,-0.538L0.187,-0.538L0.187,-0.74L0.114,-0.74L0.114,-0.538L0.008,-0.538L0.008,-0.479L0.114,-0.479L0.114,0Z" style="fill:rgb(189,86,160);fill-rule:nonzero;"/>
            </g>
            <g transform="matrix(45.8333,0,0,45.8333,613.885,2805.55)">
                <path d="M0.595,-0.248C0.603,-0.334 0.573,-0.417 0.511,-0.477C0.46,-0.526 0.39,-0.553 0.314,-0.553C0.153,-0.553 0.031,-0.426 0.031,-0.268C0.031,-0.134 0.128,0.015 0.315,0.015C0.37,0.015 0.423,0 0.468,-0.029C0.514,-0.058 0.552,-0.102 0.577,-0.16L0.5,-0.16C0.465,-0.09 0.398,-0.049 0.315,-0.049C0.224,-0.048 0.109,-0.113 0.105,-0.248L0.595,-0.248ZM0.106,-0.307C0.113,-0.405 0.199,-0.49 0.315,-0.49C0.426,-0.493 0.517,-0.401 0.522,-0.307L0.106,-0.307Z" style="fill:rgb(189,86,160);fill-rule:nonzero;"/>
            </g>
            <g transform="matrix(45.8333,0,0,45.8333,642.668,2805.55)">
                <path d="M0.072,0L0.145,0L0.145,-0.293C0.145,-0.415 0.203,-0.48 0.307,-0.48L0.314,-0.48L0.314,-0.553C0.251,-0.551 0.181,-0.53 0.142,-0.45L0.142,-0.538L0.072,-0.538L0.072,0Z" style="fill:rgb(189,86,160);fill-rule:nonzero;"/>
            </g>
            <g transform="matrix(45.8333,0,0,45.8333,657.426,2805.55)">
                <path d="M0.072,-0.637L0.146,-0.637L0.146,-0.74L0.072,-0.74L0.072,-0.637ZM0.072,0L0.146,0L0.146,-0.538L0.072,-0.538L0.072,0Z" style="fill:rgb(189,86,160);fill-rule:nonzero;"/>
            </g>
            <g transform="matrix(45.8333,0,0,45.8333,667.418,2805.55)">
                <path d="M0.612,-0.538L0.538,-0.538L0.538,-0.425C0.512,-0.486 0.433,-0.553 0.318,-0.553C0.154,-0.553 0.039,-0.427 0.039,-0.269C0.039,-0.121 0.143,0.015 0.318,0.015C0.414,0.015 0.496,-0.03 0.538,-0.111L0.538,0L0.612,0L0.612,-0.538ZM0.112,-0.269C0.112,-0.389 0.202,-0.485 0.326,-0.485C0.421,-0.485 0.493,-0.43 0.523,-0.356C0.535,-0.33 0.541,-0.3 0.54,-0.27C0.54,-0.241 0.534,-0.211 0.522,-0.185C0.493,-0.109 0.423,-0.054 0.328,-0.054C0.18,-0.054 0.113,-0.171 0.112,-0.268L0.112,-0.269Z" style="fill:rgb(189,86,160);fill-rule:nonzero;"/>
            </g>
            <g transform="matrix(45.8333,0,0,45.8333,698.767,2805.55)">
                <path d="M0.387,-0.403C0.382,-0.512 0.298,-0.553 0.223,-0.553C0.132,-0.553 0.055,-0.496 0.055,-0.399C0.057,-0.314 0.117,-0.283 0.194,-0.26C0.287,-0.233 0.327,-0.208 0.329,-0.147C0.33,-0.092 0.287,-0.046 0.225,-0.046C0.171,-0.046 0.116,-0.079 0.113,-0.153L0.04,-0.153C0.041,-0.04 0.137,0.015 0.224,0.015C0.326,0.015 0.406,-0.057 0.402,-0.156C0.398,-0.271 0.312,-0.293 0.235,-0.314C0.17,-0.333 0.131,-0.354 0.129,-0.405C0.127,-0.452 0.163,-0.492 0.222,-0.492C0.276,-0.492 0.314,-0.46 0.314,-0.403L0.387,-0.403Z" style="fill:rgb(189,86,160);fill-rule:nonzero;"/>
            </g>
            <g transform="matrix(45.8333,0,0,45.8333,349.385,2863.88)">
                <path d="M0.124,0.204L0.204,0.204L0.511,-0.538L0.43,-0.538L0.256,-0.103L0.087,-0.538L0.008,-0.538L0.216,-0.01L0.124,0.204Z" style="fill:rgb(189,86,160);fill-rule:nonzero;"/>
            </g>
            <g transform="matrix(45.8333,0,0,45.8333,386.051,2863.88)">
                <path d="M0.595,-0.248C0.603,-0.334 0.573,-0.417 0.511,-0.477C0.46,-0.526 0.39,-0.553 0.314,-0.553C0.153,-0.553 0.031,-0.426 0.031,-0.268C0.031,-0.134 0.128,0.015 0.315,0.015C0.37,0.015 0.423,0 0.468,-0.029C0.514,-0.058 0.552,-0.102 0.577,-0.16L0.5,-0.16C0.465,-0.09 0.398,-0.049 0.315,-0.049C0.224,-0.048 0.109,-0.113 0.105,-0.248L0.595,-0.248ZM0.106,-0.307C0.113,-0.405 0.199,-0.49 0.315,-0.49C0.426,-0.493 0.517,-0.401 0.522,-0.307L0.106,-0.307Z" style="fill:rgb(189,86,160);fill-rule:nonzero;"/>
            </g>
            <g transform="matrix(45.8333,0,0,45.8333,414.834,2863.88)">
                <rect x="0.072" y="-0.74" width="0.074" height="0.74" style="fill:rgb(189,86,160);fill-rule:nonzero;"/>
            </g>
            <g transform="matrix(45.8333,0,0,45.8333,437.979,2863.88)">
                <path d="M0.519,-0.182C0.496,-0.117 0.427,-0.055 0.324,-0.054C0.208,-0.054 0.112,-0.142 0.112,-0.269C0.112,-0.331 0.137,-0.389 0.173,-0.424C0.218,-0.466 0.262,-0.485 0.325,-0.485C0.401,-0.485 0.486,-0.443 0.52,-0.352L0.596,-0.352C0.559,-0.481 0.443,-0.553 0.322,-0.553C0.159,-0.553 0.038,-0.428 0.038,-0.269C0.038,-0.125 0.145,0.015 0.327,0.015C0.456,0.015 0.561,-0.068 0.596,-0.182L0.519,-0.182Z" style="fill:rgb(189,86,160);fill-rule:nonzero;"/>
            </g>
            <g transform="matrix(45.8333,0,0,45.8333,466.854,2863.88)">
                <path d="M0.039,-0.269C0.039,-0.118 0.151,0.014 0.324,0.014C0.498,0.014 0.61,-0.118 0.61,-0.269C0.61,-0.42 0.498,-0.553 0.324,-0.553C0.151,-0.553 0.039,-0.42 0.039,-0.27L0.039,-0.269ZM0.112,-0.269C0.112,-0.392 0.205,-0.484 0.324,-0.484C0.444,-0.484 0.536,-0.392 0.536,-0.269C0.536,-0.146 0.444,-0.054 0.324,-0.054C0.205,-0.054 0.112,-0.146 0.112,-0.268L0.112,-0.269Z" style="fill:rgb(189,86,160);fill-rule:nonzero;"/>
            </g>
            <g transform="matrix(45.8333,0,0,45.8333,496.599,2863.88)">
                <path d="M0.072,0L0.145,0L0.145,-0.293C0.145,-0.415 0.203,-0.48 0.307,-0.48L0.314,-0.48L0.314,-0.553C0.251,-0.551 0.181,-0.53 0.142,-0.45L0.142,-0.538L0.072,-0.538L0.072,0Z" style="fill:rgb(189,86,160);fill-rule:nonzero;"/>
            </g>
            <g transform="matrix(45.8333,0,0,45.8333,509.432,2863.88)">
                <path d="M0.612,-0.538L0.538,-0.538L0.538,-0.425C0.512,-0.486 0.433,-0.553 0.318,-0.553C0.154,-0.553 0.039,-0.427 0.039,-0.269C0.039,-0.121 0.143,0.015 0.318,0.015C0.414,0.015 0.496,-0.03 0.538,-0.111L0.538,0L0.612,0L0.612,-0.538ZM0.112,-0.269C0.112,-0.389 0.202,-0.485 0.326,-0.485C0.421,-0.485 0.493,-0.43 0.523,-0.356C0.535,-0.33 0.541,-0.3 0.54,-0.27C0.54,-0.241 0.534,-0.211 0.522,-0.185C0.493,-0.109 0.423,-0.054 0.328,-0.054C0.18,-0.054 0.113,-0.171 0.112,-0.268L0.112,-0.269Z" style="fill:rgb(189,86,160);fill-rule:nonzero;"/>
            </g>
            <g transform="matrix(45.8333,0,0,45.8333,540.781,2863.88)">
                <path d="M0.013,0L0.405,0L0.405,-0.059L0.102,-0.059L0.394,-0.478L0.394,-0.538L0.025,-0.538L0.025,-0.479L0.311,-0.479L0.013,-0.054L0.013,0Z" style="fill:rgb(189,86,160);fill-rule:nonzero;"/>
            </g>
            <g transform="matrix(45.8333,0,0,45.8333,559.985,2863.88)">
                <path d="M0.039,-0.269C0.039,-0.118 0.151,0.014 0.324,0.014C0.498,0.014 0.61,-0.118 0.61,-0.269C0.61,-0.42 0.498,-0.553 0.324,-0.553C0.151,-0.553 0.039,-0.42 0.039,-0.27L0.039,-0.269ZM0.112,-0.269C0.112,-0.392 0.205,-0.484 0.324,-0.484C0.444,-0.484 0.536,-0.392 0.536,-0.269C0.536,-0.146 0.444,-0.054 0.324,-0.054C0.205,-0.054 0.112,-0.146 0.112,-0.268L0.112,-0.269ZM0.201,-0.648L0.225,-0.6L0.466,-0.729L0.439,-0.783L0.201,-0.648Z" style="fill:rgb(189,86,160);fill-rule:nonzero;"/>
            </g>
            <g transform="matrix(45.8333,0,0,45.8333,589.73,2863.88)">
                <path d="M0.072,0L0.146,0L0.146,-0.304C0.146,-0.416 0.21,-0.483 0.321,-0.484C0.442,-0.486 0.494,-0.407 0.494,-0.291L0.494,0L0.567,0L0.567,-0.306C0.567,-0.437 0.508,-0.551 0.341,-0.553C0.245,-0.555 0.172,-0.512 0.141,-0.442C0.142,-0.478 0.142,-0.508 0.142,-0.538L0.072,-0.538L0.072,0Z" style="fill:rgb(189,86,160);fill-rule:nonzero;"/>
            </g>
            <g transform="matrix(45.8333,0,0,45.8333,618.972,2863.88)">
                <rect x="0.106" y="-0.11" width="0.078" height="0.11" style="fill:rgb(189,86,160);fill-rule:nonzero;"/>
            </g>
        </g>
    </g>
</svg>
