<svg clip-rule="evenodd" fill-rule="evenodd" stroke-linejoin="round" stroke-miterlimit="2" viewBox="0 0 296 211" xmlns="http://www.w3.org/2000/svg"><g fill-rule="nonzero"><g fill="#f9b3dd"><path d="m0-22.405c0 .448.021.676-.003.898-.325 2.861-.303 5.751-.956 8.592-.473 2.064-.923 4.122-1.6 6.132-.277.824-.714 1.447-1.508 1.778-2.091.874-4.099 1.939-6.347 2.434-1.687.371-3.318.992-5.002 1.388-1.797.421-3.614.796-5.443 1.023-1.289.16-2.616.092-3.921.031-1.305-.062-2.605-.239-3.906-.372-1.007-.102-1.966-.379-2.853-.869-.761-.421-.843-.528-.614-1.372.523-1.93 1.093-3.846 1.657-5.765.53-1.807 1.114-3.601 1.604-5.419.616-2.273 1.469-4.453 2.423-6.681.394.229.745.439 1.101.638 2.08 1.157 4.38 1.661 6.659 2.214.512.125 1.073.073 1.611.064 1.999-.032 4.005.002 5.997-.144 2.296-.168 4.408-1.055 6.458-2.041 1.282-.618 2.502-1.358 3.751-2.043.229-.126.462-.252.892-.486" transform="matrix(4.16667 0 0 4.16667 143.343 180.471)"/><path d="m0-22.483c1.171.656 2.108 1.178 3.041 1.704 2.158 1.217 4.423 2.176 6.848 2.695.935.199 1.905.288 2.861.316 1.655.049 3.312.021 4.968.007.46-.005.936-.01 1.373-.13 2.516-.684 5.104-1.19 7.349-2.803.155.316.297.576.414.845 1.118 2.587 1.904 5.28 2.641 7.996.563 2.077 1.321 4.101 1.953 6.161.304.992.483 2.022.782 3.016.169.56-.006.931-.48 1.13-.812.343-1.632.762-2.485.886-1.787.261-3.596.412-5.401.495-3.623.165-7.104-.684-10.559-1.648-1.186-.331-2.356-.723-3.553-1.009-2.044-.488-3.864-1.505-5.769-2.326-.72-.309-1.093-.878-1.368-1.609-.928-2.465-1.381-5.039-1.874-7.61-.279-1.44-.488-2.879-.483-4.351.002-.651-.11-1.301-.158-1.953-.039-.528-.06-1.059-.1-1.812" transform="matrix(4.16667 0 0 4.16667 153.983 180.751)"/><path d="m0 23.725c-1.345-.056-2.697-.046-4.034-.183-1.698-.174-3.298-.786-4.848-1.458-2.05-.89-3.997-1.981-5.875-3.201-.393-.255-.504-.541-.513-.937-.023-.924-.002-1.85-.058-2.771-.199-3.297.169-6.526 1.07-9.698.157-.556.302-1.119.387-1.688.132-.894.603-1.561 1.267-2.127.235-.199.522-.367.684-.616.456-.701 1.13-.78 1.882-.848 2.193-.198 4.174.498 6.132 1.338 1.72.737 3.175 1.81 4.514 3.139 2.565 2.549 4.707 5.374 6.38 8.581.888 1.703 1.935 3.322 2.88 4.996.302.533.525 1.114.751 1.687.26.661.194 1.01-.429 1.364-.798.454-1.64.854-2.502 1.167-1.046.38-2.126.677-3.207.95-.592.149-1.212.215-1.822.242-.884.04-1.771.01-2.657.01 0 .018-.001.036-.002.053" transform="matrix(4.16667 0 0 4.16667 216.893 3.731)"/><path d="m0 4.355c0 1.272-.005 2.544.002 3.816.002.456-.148.747-.573 1.019-2.475 1.581-5.027 2.995-7.825 3.934-1.583.533-3.189.87-4.87.842-1.503-.026-3.007-.001-4.51-.007-.385 0-.788.036-1.151-.061-2.043-.547-4.123-.988-6.021-1.979-.17-.09-.343-.18-.498-.292-.602-.438-.734-.781-.417-1.488.518-1.16 1.042-2.324 1.666-3.429 1.079-1.911 2.237-3.778 3.361-5.664 1.676-2.811 3.89-5.177 6.305-7.341 1.696-1.52 3.847-2.232 5.984-2.913 1.355-.432 2.741-.351 4.125-.212.651.067 1.164.324 1.354 1.054.068.257.34.481.558.676.553.493.951 1.041 1.112 1.804.413 1.96.951 3.892 1.33 5.858.171.896.09 1.841.113 2.764.013.539.002 1.079.002 1.619z" transform="matrix(4.16667 0 0 4.16667 144.183 44.201)"/><path d="m0-10.17c.812.327 1.614.68 2.438.974 1.084.387 2.173.772 3.282 1.079 2.112.586 4.223 1.192 6.364 1.651 2.633.563 5.293 1.109 8.005.845 2.287-.225 4.625-.213 6.801-1.121.425-.178.838-.388 1.249-.595.332-.167.513-.062.563.288.148 1.065.337 2.127.425 3.198.112 1.374-.657 2.28-1.824 2.805-1.576.709-3.238 1.046-4.945.501-1.648-.525-3.271-1.133-4.915-1.671-.983-.32-1.991-.56-2.981-.862-1.213-.367-2.419-.761-3.626-1.146-2.344-.751-4.689-1.504-7.032-2.257-1.83-.588-2.94-1.981-4.021-3.402.073-.096.146-.191.217-.287" transform="matrix(4.16667 0 0 4.16667 170.213 207.251)"/><path d="m0-4.857c.49.242.892.454 1.305.641 1.311.595 2.71.777 4.127.991 3.201.485 6.366.46 9.519-.235 1.951-.429 3.893-.906 5.829-1.404 1.601-.412 3.201-.834 4.773-1.342 1.049-.341 2.048-.839 3.152-1.301.084.486-.117.762-.333 1.014-1.166 1.366-2.466 2.475-4.274 2.999-2.843.822-5.636 1.819-8.451 2.74-.256.083-.51.201-.773.23-2.139.233-4.044 1.213-6.044 1.884-.765.258-1.541.48-2.306.74-1.617.55-3.194.311-4.75-.239-1.599-.564-2.374-1.658-2.255-3.339.078-1.105.307-2.199.481-3.379" transform="matrix(4.16667 0 0 4.16667 7.873 195.971)"/></g><path d="m1084.3 2805.77c.04-.31 4.81 5.66 6.51 6.82 2.89 1.96 3.98 4.92 4.74 8.07.9 3.75 1.73 7.5 2.6 11.25 1.16 4.98 2.33 9.95 3.5 14.93.32.02.62.04.93.07.38-1.21.81-2.41 1.1-3.64 1.81-7.63 3.57-15.29 5.38-22.93.76-3.18 2.03-6.03 4.93-7.97 2.03-1.35 9.16-7.18 9.65-7.22 3.21-.21 6.43-.56 9.62-.39 15.61.84 29.4 6.23 40.75 17.13 6.48 6.23 12.9 12.55 18.02 20.02 2.27 3.3 4.52 6.62 6.61 10.04 4.27 6.98 8.48 14 12.59 21.07 1.85 3.19 3.56 6.48 5.09 9.83 7.95 17.4 14.78 35.18 19.4 53.81 1.49 6.05 3.83 11.9 5.8 17.83 4.1 12.38 6.58 25.1 8.15 38.04 1.31 10.81-5.08 17.3-13.45 19.98-7.38 2.37-14.82 2.89-22.23.59-6.89-2.13-13.62-4.78-20.45-7.08-3.19-1.07-6.47-1.8-9.69-2.78-6.13-1.86-12.24-3.77-18.36-5.69-7.64-2.4-15.19-5.18-22.94-7.19-8.83-2.29-15.55-7.38-21.19-14.21-1.11-1.33-2.06-2.92-2.62-4.55-3.24-9.4-7.09-18.67-9.3-28.31-2.72-11.83-5.32-23.78-5.6-36.05-.14-6.08-.95-12.15-1.77-18.23-.5 7-1.15 13.99-1.45 21-.38 8.87-2.65 17.42-4 26.13-1.61 10.37-5.33 20.11-8.82 29.92-.16.45-.36.89-.51 1.35-3.65 11.27-11.55 18.23-22.49 21.92-8.81 2.97-17.75 5.56-26.58 8.47-6.99 2.31-13.91 4.73-21.18 6.29-6.05 1.28-11.8 4.07-17.657 6.27-6.65 2.5-13.371 4.4-20.617 4.11-4.408-.19-8.621-1.06-12.625-2.74-6.154-2.59-12.071-7.94-11.267-17.67 1.225-14.82 4.692-29.09 9.234-43.18 3.004-9.31 5.587-18.75 8.608-28.04 6.458-19.87 13.617-39.44 25.2-57.07 2.904-4.41 5.364-9.12 7.944-13.74 7.23-12.93 17.36-23.43 28.09-33.39 2.44-2.25 5.44-3.99 8.38-5.59 6.37-3.47 13.17-5.97 20.24-7.52 7.12-1.54 14.31-1.04 21.73.24zm39.46 163.13c-.3.4-.6.8-.9 1.2 4.5 5.91 9.12 11.72 16.74 14.17 9.76 3.14 19.53 6.27 29.3 9.4 5.03 1.6 10.05 3.24 15.1 4.77 4.12 1.26 8.32 2.26 12.42 3.59 6.85 2.24 13.6 4.77 20.47 6.96 7.11 2.27 14.03.87 20.6-2.08 4.86-2.19 8.06-5.97 7.6-11.69-.37-4.46-1.16-8.88-1.78-13.32-.2-1.46-.96-1.89-2.34-1.2-1.72.87-3.43 1.74-5.2 2.48-9.07 3.79-18.8 3.73-28.33 4.67-11.3 1.1-22.38-1.17-33.34-3.52-8.93-1.91-17.72-4.44-26.52-6.87-4.61-1.29-9.15-2.89-13.66-4.5-3.44-1.22-6.78-2.7-10.16-4.06zm-162.298 10.86c-.725 4.91-1.679 9.47-2.004 14.07-.496 7.01 2.729 11.56 9.391 13.91 6.484 2.29 13.05 3.29 19.788 1 3.187-1.09 6.421-2.01 9.604-3.08 8.329-2.8 16.269-6.88 25.179-7.85 1.1-.13 2.15-.62 3.22-.97 11.72-3.83 23.36-7.98 35.2-11.41 7.53-2.18 12.95-6.8 17.8-12.49.9-1.05 1.74-2.2 1.39-4.22-4.6 1.92-8.76 4-13.13 5.42-6.55 2.11-13.21 3.87-19.88 5.59-8.06 2.07-16.15 4.06-24.28 5.85-13.14 2.89-26.316 2.99-39.653.97-5.9-.89-11.725-1.64-17.192-4.12-1.717-.78-3.392-1.67-5.433-2.67zm135.428-88.6c-1.79.98-2.75 1.5-3.71 2.03-5.2 2.85-10.29 5.94-15.63 8.5-8.53 4.12-17.33 7.82-26.9 8.51-8.29.61-16.65.47-24.98.6-2.24.04-4.57.25-6.71-.27-9.49-2.3-19.073-4.39-27.732-9.21-1.487-.83-2.945-1.71-4.587-2.66-3.971 9.28-7.529 18.35-10.092 27.82-2.046 7.58-4.475 15.05-6.683 22.57-2.346 8-4.725 15.98-6.9 24.02-.954 3.52-.613 3.96 2.558 5.71 3.696 2.05 7.688 3.2 11.884 3.63 5.416.55 10.833 1.28 16.266 1.55 5.442.25 10.966.53 16.336-.13 7.61-.95 15.19-2.51 22.67-4.26 7.01-1.66 13.81-4.24 20.84-5.79 9.36-2.06 17.73-6.5 26.43-10.14 3.31-1.38 5.13-3.97 6.29-7.4 2.82-8.37 4.69-16.95 6.66-25.55 2.72-11.83 2.63-23.86 3.98-35.78.1-.93.01-1.88.01-3.75zm10.64-.04c.17 3.14.26 5.35.41 7.54.2 2.72.67 5.43.66 8.14-.02 6.13.86 12.12 2.01 18.13 2.06 10.7 3.94 21.42 7.81 31.69 1.15 3.04 2.7 5.41 5.7 6.71 7.94 3.41 15.52 7.65 24.03 9.68 4.99 1.2 9.86 2.83 14.8 4.21 14.39 4.02 28.9 7.55 43.98 6.86 7.53-.34 15.06-.97 22.5-2.06 3.56-.51 6.97-2.26 10.35-3.68 1.97-.84 2.7-2.38 2-4.72-1.24-4.14-1.99-8.43-3.25-12.56-2.64-8.58-5.8-17.01-8.14-25.66-3.07-11.32-6.35-22.53-11-33.31-.49-1.12-1.08-2.2-1.73-3.52-9.35 6.72-20.12 8.82-30.61 11.68-1.82.5-3.8.51-5.72.53-6.89.07-13.8.19-20.69-.02-3.99-.12-8.02-.49-11.92-1.32-10.1-2.16-19.53-6.16-28.52-11.22-3.89-2.2-7.8-4.37-12.67-7.1zm62.9 15.51c0-.07.01-.14.01-.22 3.68 0 7.38.12 11.06-.04 2.54-.11 5.13-.39 7.59-1.01 4.5-1.14 9-2.37 13.36-3.96 3.6-1.3 7.1-2.97 10.42-4.86 2.6-1.47 2.88-2.92 1.79-5.68-.94-2.39-1.87-4.81-3.13-7.03-3.93-6.97-8.29-13.71-11.99-20.81-6.98-13.36-15.9-25.13-26.59-35.74-5.57-5.54-11.63-10.01-18.79-13.08-8.16-3.5-16.41-6.4-25.55-5.57-3.13.28-5.93.61-7.84 3.53-.67 1.04-1.87 1.74-2.85 2.57-2.76 2.35-4.73 5.14-5.27 8.86-.35 2.37-.96 4.71-1.61 7.03-3.76 13.21-5.29 26.66-4.46 40.39.23 3.84.14 7.7.24 11.55.04 1.65.5 2.84 2.14 3.9 7.82 5.08 15.93 9.63 24.47 13.33 6.46 2.8 13.12 5.35 20.19 6.08 5.57.56 11.2.52 16.81.76zm-72.7-40.23h.2c0-2.24.04-4.49-.01-6.74-.1-3.85.24-7.78-.48-11.52-1.57-8.18-3.82-16.23-5.53-24.4-.67-3.17-2.33-5.46-4.64-7.51-.9-.82-2.04-1.74-2.32-2.82-.79-3.04-2.93-4.11-5.64-4.38-5.76-.59-11.54-.92-17.18.87-8.9 2.84-17.86 5.81-24.93 12.14-10.06 9.02-19.28 18.87-26.26 30.58-4.68 7.86-9.5 15.63-13.999 23.6-2.6 4.6-4.783 9.44-6.942 14.27-1.316 2.95-.766 4.38 1.738 6.2.646.47 1.362.85 2.075 1.22 7.908 4.12 16.568 5.96 25.078 8.24 1.51.41 3.19.25 4.8.26 6.25.02 12.52-.08 18.78.02 7 .12 13.7-1.28 20.29-3.5 11.65-3.92 22.29-9.8 32.59-16.39 1.77-1.13 2.4-2.34 2.39-4.24-.03-5.3-.01-10.6-.01-15.9z" fill="#231f20" transform="translate(-954 -2804)"/></g></svg>