<?xml version="1.0" encoding="UTF-8" standalone="no"?>
<!DOCTYPE svg PUBLIC "-//W3C//DTD SVG 1.1//EN" "http://www.w3.org/Graphics/SVG/1.1/DTD/svg11.dtd">
<svg width="100%" height="100%" viewBox="0 0 601 341" version="1.1" xmlns="http://www.w3.org/2000/svg" xmlns:xlink="http://www.w3.org/1999/xlink" xml:space="preserve" xmlns:serif="http://www.serif.com/" style="fill-rule:evenodd;clip-rule:evenodd;stroke-linejoin:round;stroke-miterlimit:2;">
    <g transform="matrix(1,0,0,1,-1670,-813)">
        <g id="r1">
            <g transform="matrix(4.16667,0,0,4.16667,2028.34,842.077)">
                <path d="M0,67.956C0.553,67.618 0.553,67.07 0,66.732C-0.553,66.394 -1.449,66.394 -2.002,66.732L-9.98,71.609L-9.98,60.964C-9.98,58.513 -13.242,56.519 -17.253,56.519L-69.946,56.519C-77.226,56.519 -83.148,52.899 -83.148,48.449L-83.148,2.992C-83.148,-1.457 -77.226,-5.077 -69.946,-5.077L42.198,-5.077C49.477,-5.077 55.399,-1.457 55.399,2.992L55.399,48.449C55.399,52.899 49.477,56.519 42.198,56.519L-4.492,56.519C-5.274,56.519 -5.908,56.906 -5.908,57.384C-5.908,57.862 -5.274,58.249 -4.492,58.249L42.198,58.249C51.038,58.249 58.23,53.853 58.23,48.449L58.23,2.992C58.23,-2.412 51.038,-6.808 42.198,-6.808L-69.946,-6.808C-78.787,-6.808 -85.978,-2.412 -85.978,2.992L-85.978,48.449C-85.978,53.853 -78.787,58.249 -69.946,58.249L-17.253,58.249C-14.804,58.249 -12.811,59.467 -12.811,60.964L-12.811,71.296L-20.276,66.732C-20.829,66.394 -21.725,66.394 -22.278,66.732C-22.555,66.901 -22.692,67.123 -22.692,67.344C-22.692,67.566 -22.555,67.787 -22.278,67.956L-11.139,74.764L0,67.956Z" style="fill:rgb(0,142,211);fill-rule:nonzero;"/>
            </g>
            <g transform="matrix(45.8333,0,0,45.8333,1810.83,906.654)">
                <path d="M0.361,-0.536L0.361,-0.416L0.216,-0.416L0.216,-0.536L0.361,-0.536ZM0.216,-0.332L0.361,-0.332L0.361,-0.318C0.361,-0.265 0.337,-0.212 0.289,-0.159L0.254,-0.121C0.208,-0.069 0.184,-0.023 0.184,0.018C0.184,0.078 0.222,0.108 0.298,0.108C0.347,0.108 0.404,0.094 0.467,0.065L0.467,0.175C0.402,0.195 0.339,0.205 0.277,0.205C0.2,0.205 0.139,0.19 0.094,0.16C0.05,0.131 0.027,0.09 0.027,0.039C0.027,-0.008 0.054,-0.057 0.107,-0.107L0.141,-0.139C0.171,-0.168 0.191,-0.192 0.201,-0.212C0.211,-0.232 0.216,-0.258 0.216,-0.29L0.216,-0.332Z" style="fill:rgb(0,143,212);fill-rule:nonzero;"/>
            </g>
            <g transform="matrix(45.8333,0,0,45.8333,1834.71,906.654)">
                <path d="M0.672,-0.029C0.602,0.002 0.518,0.018 0.421,0.018C0.303,0.018 0.211,-0.015 0.145,-0.082C0.078,-0.149 0.045,-0.242 0.045,-0.361C0.045,-0.483 0.079,-0.577 0.145,-0.642C0.212,-0.708 0.307,-0.741 0.43,-0.741C0.509,-0.741 0.587,-0.731 0.665,-0.713L0.665,-0.595C0.577,-0.626 0.503,-0.642 0.443,-0.642C0.367,-0.642 0.308,-0.617 0.267,-0.569C0.226,-0.521 0.205,-0.452 0.205,-0.363C0.205,-0.276 0.227,-0.208 0.272,-0.159C0.316,-0.11 0.378,-0.086 0.457,-0.086C0.528,-0.086 0.6,-0.104 0.672,-0.14L0.672,-0.029Z" style="fill:rgb(0,143,212);fill-rule:nonzero;"/>
            </g>
            <g transform="matrix(45.8333,0,0,45.8333,1868.47,906.654)">
                <path d="M0.315,0.012C0.232,0.012 0.165,-0.013 0.116,-0.064C0.067,-0.114 0.042,-0.182 0.042,-0.268C0.042,-0.355 0.067,-0.423 0.116,-0.473C0.166,-0.523 0.234,-0.548 0.319,-0.548C0.404,-0.548 0.472,-0.523 0.522,-0.473C0.571,-0.423 0.596,-0.355 0.596,-0.269C0.596,-0.181 0.571,-0.112 0.521,-0.063C0.472,-0.013 0.403,0.012 0.315,0.012ZM0.318,-0.078C0.401,-0.078 0.442,-0.142 0.442,-0.269C0.442,-0.327 0.431,-0.373 0.409,-0.407C0.387,-0.441 0.357,-0.458 0.319,-0.458C0.281,-0.458 0.251,-0.441 0.229,-0.407C0.207,-0.373 0.196,-0.327 0.196,-0.268C0.196,-0.21 0.207,-0.164 0.229,-0.129C0.25,-0.095 0.28,-0.078 0.318,-0.078ZM0.226,-0.626L0.344,-0.783L0.476,-0.783L0.319,-0.626L0.226,-0.626Z" style="fill:rgb(0,143,212);fill-rule:nonzero;"/>
            </g>
            <g transform="matrix(45.8333,0,0,45.8333,1898.84,906.654)">
                <path d="M0.09,0L0.09,-0.536L0.229,-0.536L0.229,-0.435C0.271,-0.511 0.332,-0.548 0.41,-0.548C0.45,-0.548 0.483,-0.538 0.509,-0.519C0.535,-0.499 0.551,-0.471 0.557,-0.435C0.607,-0.511 0.668,-0.548 0.739,-0.548C0.837,-0.548 0.886,-0.494 0.886,-0.386L0.886,0L0.747,0L0.747,-0.339C0.747,-0.402 0.726,-0.434 0.684,-0.434C0.64,-0.434 0.598,-0.403 0.557,-0.34L0.557,0L0.418,0L0.418,-0.339C0.418,-0.403 0.397,-0.435 0.354,-0.435C0.312,-0.435 0.27,-0.403 0.229,-0.34L0.229,0L0.09,0Z" style="fill:rgb(0,143,212);fill-rule:nonzero;"/>
            </g>
            <g transform="matrix(45.8333,0,0,45.8333,1944.39,906.654)">
                <path d="M0.315,0.012C0.232,0.012 0.165,-0.013 0.116,-0.064C0.067,-0.114 0.042,-0.182 0.042,-0.268C0.042,-0.355 0.067,-0.423 0.116,-0.473C0.166,-0.523 0.234,-0.548 0.319,-0.548C0.404,-0.548 0.472,-0.523 0.522,-0.473C0.571,-0.423 0.596,-0.355 0.596,-0.269C0.596,-0.181 0.571,-0.112 0.521,-0.063C0.472,-0.013 0.403,0.012 0.315,0.012ZM0.318,-0.078C0.401,-0.078 0.442,-0.142 0.442,-0.269C0.442,-0.327 0.431,-0.373 0.409,-0.407C0.387,-0.441 0.357,-0.458 0.319,-0.458C0.281,-0.458 0.251,-0.441 0.229,-0.407C0.207,-0.373 0.196,-0.327 0.196,-0.268C0.196,-0.21 0.207,-0.164 0.229,-0.129C0.25,-0.095 0.28,-0.078 0.318,-0.078Z" style="fill:rgb(0,143,212);fill-rule:nonzero;"/>
            </g>
            <g transform="matrix(45.8333,0,0,45.8333,1985.31,906.654)">
                <path d="M0.353,-0.058C0.305,-0.011 0.253,0.012 0.198,0.012C0.151,0.012 0.113,-0.002 0.084,-0.031C0.055,-0.059 0.04,-0.097 0.04,-0.142C0.04,-0.201 0.064,-0.247 0.111,-0.279C0.158,-0.311 0.226,-0.327 0.314,-0.327L0.353,-0.327L0.353,-0.376C0.353,-0.432 0.321,-0.459 0.258,-0.459C0.201,-0.459 0.145,-0.444 0.087,-0.412L0.087,-0.511C0.152,-0.536 0.217,-0.548 0.281,-0.548C0.422,-0.548 0.492,-0.493 0.492,-0.381L0.492,-0.144C0.492,-0.102 0.505,-0.081 0.532,-0.081C0.537,-0.081 0.543,-0.081 0.551,-0.083L0.555,-0.001C0.524,0.008 0.497,0.012 0.474,0.012C0.414,0.012 0.376,-0.011 0.359,-0.058L0.353,-0.058ZM0.353,-0.135L0.353,-0.244L0.319,-0.244C0.225,-0.244 0.179,-0.215 0.179,-0.156C0.179,-0.136 0.185,-0.12 0.199,-0.106C0.212,-0.093 0.229,-0.086 0.249,-0.086C0.283,-0.086 0.318,-0.102 0.353,-0.135Z" style="fill:rgb(0,143,212);fill-rule:nonzero;"/>
            </g>
            <g transform="matrix(45.8333,0,0,45.8333,2013.36,906.654)">
                <path d="M0.105,0L0.105,-0.446L0.032,-0.446L0.032,-0.536L0.105,-0.536L0.105,-0.575C0.105,-0.714 0.171,-0.783 0.303,-0.783C0.346,-0.783 0.39,-0.777 0.435,-0.765L0.435,-0.667C0.394,-0.684 0.357,-0.693 0.325,-0.693C0.275,-0.693 0.25,-0.655 0.25,-0.58L0.25,-0.536L0.386,-0.536L0.386,-0.446L0.25,-0.446L0.25,0L0.105,0Z" style="fill:rgb(0,143,212);fill-rule:nonzero;"/>
            </g>
            <g transform="matrix(45.8333,0,0,45.8333,2033.46,906.654)">
                <path d="M0.527,-0.018C0.458,0.002 0.393,0.012 0.332,0.012C0.242,0.012 0.171,-0.013 0.12,-0.064C0.068,-0.115 0.042,-0.184 0.042,-0.272C0.042,-0.355 0.066,-0.422 0.113,-0.472C0.16,-0.523 0.223,-0.548 0.301,-0.548C0.379,-0.548 0.437,-0.524 0.473,-0.474C0.509,-0.425 0.527,-0.346 0.527,-0.239L0.194,-0.239C0.204,-0.137 0.26,-0.086 0.363,-0.086C0.411,-0.086 0.466,-0.097 0.527,-0.12L0.527,-0.018ZM0.192,-0.321L0.385,-0.321C0.385,-0.412 0.355,-0.458 0.296,-0.458C0.236,-0.458 0.202,-0.412 0.192,-0.321Z" style="fill:rgb(0,143,212);fill-rule:nonzero;"/>
            </g>
            <g transform="matrix(45.8333,0,0,45.8333,2061.42,906.654)">
                <path d="M0.486,-0.012C0.426,0.004 0.37,0.012 0.319,0.012C0.234,0.012 0.166,-0.013 0.116,-0.063C0.067,-0.114 0.042,-0.182 0.042,-0.269C0.042,-0.356 0.068,-0.425 0.119,-0.474C0.17,-0.524 0.24,-0.548 0.331,-0.548C0.374,-0.548 0.424,-0.541 0.481,-0.527L0.481,-0.423C0.422,-0.442 0.375,-0.452 0.339,-0.452C0.296,-0.452 0.261,-0.435 0.235,-0.402C0.208,-0.369 0.195,-0.325 0.195,-0.27C0.195,-0.213 0.21,-0.168 0.238,-0.134C0.267,-0.1 0.305,-0.083 0.352,-0.083C0.395,-0.083 0.44,-0.093 0.486,-0.112L0.486,-0.012Z" style="fill:rgb(0,143,212);fill-rule:nonzero;"/>
            </g>
            <g transform="matrix(45.8333,0,0,45.8333,2086.92,906.654)">
                <path d="M0.367,-0.003C0.332,0.007 0.305,0.012 0.285,0.012C0.16,0.012 0.097,-0.046 0.097,-0.164L0.097,-0.446L0.037,-0.446L0.037,-0.536L0.097,-0.536L0.097,-0.626L0.242,-0.643L0.242,-0.536L0.356,-0.536L0.356,-0.446L0.242,-0.446L0.242,-0.183C0.242,-0.117 0.269,-0.084 0.322,-0.084C0.335,-0.084 0.349,-0.086 0.367,-0.091L0.367,-0.003Z" style="fill:rgb(0,143,212);fill-rule:nonzero;"/>
            </g>
            <g transform="matrix(45.8333,0,0,45.8333,2106.6,906.654)">
                <path d="M0.353,-0.058C0.305,-0.011 0.253,0.012 0.198,0.012C0.151,0.012 0.113,-0.002 0.084,-0.031C0.055,-0.059 0.04,-0.097 0.04,-0.142C0.04,-0.201 0.064,-0.247 0.111,-0.279C0.158,-0.311 0.226,-0.327 0.314,-0.327L0.353,-0.327L0.353,-0.376C0.353,-0.432 0.321,-0.459 0.258,-0.459C0.201,-0.459 0.145,-0.444 0.087,-0.412L0.087,-0.511C0.152,-0.536 0.217,-0.548 0.281,-0.548C0.422,-0.548 0.492,-0.493 0.492,-0.381L0.492,-0.144C0.492,-0.102 0.505,-0.081 0.532,-0.081C0.537,-0.081 0.543,-0.081 0.551,-0.083L0.555,-0.001C0.524,0.008 0.497,0.012 0.474,0.012C0.414,0.012 0.376,-0.011 0.359,-0.058L0.353,-0.058ZM0.353,-0.135L0.353,-0.244L0.319,-0.244C0.225,-0.244 0.179,-0.215 0.179,-0.156C0.179,-0.136 0.185,-0.12 0.199,-0.106C0.212,-0.093 0.229,-0.086 0.249,-0.086C0.283,-0.086 0.318,-0.102 0.353,-0.135Z" style="fill:rgb(0,143,212);fill-rule:nonzero;"/>
            </g>
            <g transform="matrix(45.8333,0,0,45.8333,1837.55,964.988)">
                <path d="M0.527,-0.018C0.458,0.002 0.393,0.012 0.332,0.012C0.242,0.012 0.171,-0.013 0.12,-0.064C0.068,-0.115 0.042,-0.184 0.042,-0.272C0.042,-0.355 0.066,-0.422 0.113,-0.472C0.16,-0.523 0.223,-0.548 0.301,-0.548C0.379,-0.548 0.437,-0.524 0.473,-0.474C0.509,-0.425 0.527,-0.346 0.527,-0.239L0.194,-0.239C0.204,-0.137 0.26,-0.086 0.363,-0.086C0.411,-0.086 0.466,-0.097 0.527,-0.12L0.527,-0.018ZM0.192,-0.321L0.385,-0.321C0.385,-0.412 0.355,-0.458 0.296,-0.458C0.236,-0.458 0.202,-0.412 0.192,-0.321Z" style="fill:rgb(0,143,212);fill-rule:nonzero;"/>
            </g>
            <g transform="matrix(45.8333,0,0,45.8333,1864.8,964.988)">
                <rect x="0.09" y="-0.771" width="0.145" height="0.771" style="fill:rgb(0,143,212);fill-rule:nonzero;"/>
            </g>
            <g transform="matrix(45.8333,0,0,45.8333,1895.61,964.988)">
                <path d="M0.486,-0.012C0.426,0.004 0.37,0.012 0.319,0.012C0.234,0.012 0.166,-0.013 0.116,-0.063C0.067,-0.114 0.042,-0.182 0.042,-0.269C0.042,-0.356 0.068,-0.425 0.119,-0.474C0.17,-0.524 0.24,-0.548 0.331,-0.548C0.374,-0.548 0.424,-0.541 0.481,-0.527L0.481,-0.423C0.422,-0.442 0.375,-0.452 0.339,-0.452C0.296,-0.452 0.261,-0.435 0.235,-0.402C0.208,-0.369 0.195,-0.325 0.195,-0.27C0.195,-0.213 0.21,-0.168 0.238,-0.134C0.267,-0.1 0.305,-0.083 0.352,-0.083C0.395,-0.083 0.44,-0.093 0.486,-0.112L0.486,-0.012Z" style="fill:rgb(0,143,212);fill-rule:nonzero;"/>
            </g>
            <g transform="matrix(45.8333,0,0,45.8333,1920.4,964.988)">
                <path d="M0.315,0.012C0.232,0.012 0.165,-0.013 0.116,-0.064C0.067,-0.114 0.042,-0.182 0.042,-0.268C0.042,-0.355 0.067,-0.423 0.116,-0.473C0.166,-0.523 0.234,-0.548 0.319,-0.548C0.404,-0.548 0.472,-0.523 0.522,-0.473C0.571,-0.423 0.596,-0.355 0.596,-0.269C0.596,-0.181 0.571,-0.112 0.521,-0.063C0.472,-0.013 0.403,0.012 0.315,0.012ZM0.318,-0.078C0.401,-0.078 0.442,-0.142 0.442,-0.269C0.442,-0.327 0.431,-0.373 0.409,-0.407C0.387,-0.441 0.357,-0.458 0.319,-0.458C0.281,-0.458 0.251,-0.441 0.229,-0.407C0.207,-0.373 0.196,-0.327 0.196,-0.268C0.196,-0.21 0.207,-0.164 0.229,-0.129C0.25,-0.095 0.28,-0.078 0.318,-0.078Z" style="fill:rgb(0,143,212);fill-rule:nonzero;"/>
            </g>
            <g transform="matrix(45.8333,0,0,45.8333,1950.07,964.988)">
                <path d="M0.09,0L0.09,-0.536L0.235,-0.536L0.235,-0.435C0.282,-0.511 0.343,-0.548 0.417,-0.548C0.465,-0.548 0.503,-0.533 0.531,-0.503C0.558,-0.473 0.572,-0.431 0.572,-0.379L0.572,0L0.428,0L0.428,-0.343C0.428,-0.404 0.408,-0.435 0.367,-0.435C0.321,-0.435 0.277,-0.402 0.235,-0.337L0.235,0L0.09,0Z" style="fill:rgb(0,143,212);fill-rule:nonzero;"/>
            </g>
            <g transform="matrix(45.8333,0,0,45.8333,1980.56,964.988)">
                <path d="M0.076,-0.017L0.076,-0.123C0.148,-0.093 0.209,-0.078 0.26,-0.078C0.319,-0.078 0.349,-0.098 0.349,-0.139C0.349,-0.165 0.324,-0.188 0.275,-0.207L0.227,-0.227C0.174,-0.248 0.136,-0.271 0.113,-0.296C0.09,-0.321 0.079,-0.351 0.079,-0.388C0.079,-0.438 0.098,-0.478 0.137,-0.506C0.175,-0.534 0.23,-0.548 0.299,-0.548C0.343,-0.548 0.395,-0.542 0.455,-0.529L0.455,-0.428C0.397,-0.448 0.349,-0.458 0.311,-0.458C0.251,-0.458 0.221,-0.439 0.221,-0.402C0.221,-0.378 0.243,-0.357 0.288,-0.34L0.33,-0.324C0.392,-0.3 0.436,-0.276 0.461,-0.252C0.485,-0.228 0.498,-0.196 0.498,-0.158C0.498,-0.107 0.477,-0.066 0.435,-0.035C0.393,-0.003 0.339,0.012 0.271,0.012C0.207,0.012 0.142,0.002 0.076,-0.017Z" style="fill:rgb(0,143,212);fill-rule:nonzero;"/>
            </g>
            <g transform="matrix(45.8333,0,0,45.8333,2006.88,964.988)">
                <path d="M0.422,0L0.422,-0.101C0.375,-0.026 0.314,0.012 0.239,0.012C0.191,0.012 0.154,-0.003 0.126,-0.033C0.098,-0.063 0.084,-0.105 0.084,-0.157L0.084,-0.536L0.229,-0.536L0.229,-0.193C0.229,-0.132 0.249,-0.102 0.29,-0.102C0.336,-0.102 0.38,-0.134 0.422,-0.199L0.422,-0.536L0.566,-0.536L0.566,0L0.422,0Z" style="fill:rgb(0,143,212);fill-rule:nonzero;"/>
            </g>
            <g transform="matrix(45.8333,0,0,45.8333,2037.37,964.988)">
                <path d="M0.09,0L0.09,-0.536L0.229,-0.536L0.229,-0.435C0.271,-0.511 0.332,-0.548 0.41,-0.548C0.45,-0.548 0.483,-0.538 0.509,-0.519C0.535,-0.499 0.551,-0.471 0.557,-0.435C0.607,-0.511 0.668,-0.548 0.739,-0.548C0.837,-0.548 0.886,-0.494 0.886,-0.386L0.886,0L0.747,0L0.747,-0.339C0.747,-0.402 0.726,-0.434 0.684,-0.434C0.64,-0.434 0.598,-0.403 0.557,-0.34L0.557,0L0.418,0L0.418,-0.339C0.418,-0.403 0.397,-0.435 0.354,-0.435C0.312,-0.435 0.27,-0.403 0.229,-0.34L0.229,0L0.09,0Z" style="fill:rgb(0,143,212);fill-rule:nonzero;"/>
            </g>
            <g transform="matrix(45.8333,0,0,45.8333,2082.22,964.988)">
                <path d="M0.315,0.012C0.232,0.012 0.165,-0.013 0.116,-0.064C0.067,-0.114 0.042,-0.182 0.042,-0.268C0.042,-0.355 0.067,-0.423 0.116,-0.473C0.166,-0.523 0.234,-0.548 0.319,-0.548C0.404,-0.548 0.472,-0.523 0.522,-0.473C0.571,-0.423 0.596,-0.355 0.596,-0.269C0.596,-0.181 0.571,-0.112 0.521,-0.063C0.472,-0.013 0.403,0.012 0.315,0.012ZM0.318,-0.078C0.401,-0.078 0.442,-0.142 0.442,-0.269C0.442,-0.327 0.431,-0.373 0.409,-0.407C0.387,-0.441 0.357,-0.458 0.319,-0.458C0.281,-0.458 0.251,-0.441 0.229,-0.407C0.207,-0.373 0.196,-0.327 0.196,-0.268C0.196,-0.21 0.207,-0.164 0.229,-0.129C0.25,-0.095 0.28,-0.078 0.318,-0.078Z" style="fill:rgb(0,143,212);fill-rule:nonzero;"/>
            </g>
            <g transform="matrix(45.8333,0,0,45.8333,1837.59,1023.32)">
                <path d="M0.428,0L0.428,-0.101C0.391,-0.026 0.332,0.012 0.252,0.012C0.188,0.012 0.137,-0.011 0.101,-0.059C0.064,-0.106 0.045,-0.171 0.045,-0.253C0.045,-0.343 0.066,-0.415 0.108,-0.468C0.149,-0.522 0.205,-0.548 0.275,-0.548C0.331,-0.548 0.382,-0.526 0.428,-0.482L0.428,-0.771L0.573,-0.771L0.573,0L0.428,0ZM0.428,-0.396C0.393,-0.435 0.356,-0.455 0.316,-0.455C0.28,-0.455 0.252,-0.438 0.231,-0.403C0.21,-0.369 0.199,-0.323 0.199,-0.266C0.199,-0.156 0.234,-0.101 0.305,-0.101C0.348,-0.101 0.389,-0.129 0.428,-0.184L0.428,-0.396Z" style="fill:rgb(0,143,212);fill-rule:nonzero;"/>
            </g>
            <g transform="matrix(45.8333,0,0,45.8333,1868.76,1023.32)">
                <path d="M0.527,-0.018C0.458,0.002 0.393,0.012 0.332,0.012C0.242,0.012 0.171,-0.013 0.12,-0.064C0.068,-0.115 0.042,-0.184 0.042,-0.272C0.042,-0.355 0.066,-0.422 0.113,-0.472C0.16,-0.523 0.223,-0.548 0.301,-0.548C0.379,-0.548 0.437,-0.524 0.473,-0.474C0.509,-0.425 0.527,-0.346 0.527,-0.239L0.194,-0.239C0.204,-0.137 0.26,-0.086 0.363,-0.086C0.411,-0.086 0.466,-0.097 0.527,-0.12L0.527,-0.018ZM0.192,-0.321L0.385,-0.321C0.385,-0.412 0.355,-0.458 0.296,-0.458C0.236,-0.458 0.202,-0.412 0.192,-0.321Z" style="fill:rgb(0,143,212);fill-rule:nonzero;"/>
            </g>
            <g transform="matrix(45.8333,0,0,45.8333,1910.19,1023.32)">
                <path d="M0.353,-0.058C0.305,-0.011 0.253,0.012 0.198,0.012C0.151,0.012 0.113,-0.002 0.084,-0.031C0.055,-0.059 0.04,-0.097 0.04,-0.142C0.04,-0.201 0.064,-0.247 0.111,-0.279C0.158,-0.311 0.226,-0.327 0.314,-0.327L0.353,-0.327L0.353,-0.376C0.353,-0.432 0.321,-0.459 0.258,-0.459C0.201,-0.459 0.145,-0.444 0.087,-0.412L0.087,-0.511C0.152,-0.536 0.217,-0.548 0.281,-0.548C0.422,-0.548 0.492,-0.493 0.492,-0.381L0.492,-0.144C0.492,-0.102 0.505,-0.081 0.532,-0.081C0.537,-0.081 0.543,-0.081 0.551,-0.083L0.555,-0.001C0.524,0.008 0.497,0.012 0.474,0.012C0.414,0.012 0.376,-0.011 0.359,-0.058L0.353,-0.058ZM0.353,-0.135L0.353,-0.244L0.319,-0.244C0.225,-0.244 0.179,-0.215 0.179,-0.156C0.179,-0.136 0.185,-0.12 0.199,-0.106C0.212,-0.093 0.229,-0.086 0.249,-0.086C0.283,-0.086 0.318,-0.102 0.353,-0.135Z" style="fill:rgb(0,143,212);fill-rule:nonzero;"/>
            </g>
            <g transform="matrix(45.8333,0,0,45.8333,1937.94,1023.32)">
                <rect x="0.09" y="-0.771" width="0.145" height="0.771" style="fill:rgb(0,143,212);fill-rule:nonzero;"/>
            </g>
            <g transform="matrix(45.8333,0,0,45.8333,1953.64,1023.32)">
                <path d="M0.486,-0.012C0.426,0.004 0.37,0.012 0.319,0.012C0.234,0.012 0.166,-0.013 0.116,-0.063C0.067,-0.114 0.042,-0.182 0.042,-0.269C0.042,-0.356 0.068,-0.425 0.119,-0.474C0.17,-0.524 0.24,-0.548 0.331,-0.548C0.374,-0.548 0.424,-0.541 0.481,-0.527L0.481,-0.423C0.422,-0.442 0.375,-0.452 0.339,-0.452C0.296,-0.452 0.261,-0.435 0.235,-0.402C0.208,-0.369 0.195,-0.325 0.195,-0.27C0.195,-0.213 0.21,-0.168 0.238,-0.134C0.267,-0.1 0.305,-0.083 0.352,-0.083C0.395,-0.083 0.44,-0.093 0.486,-0.112L0.486,-0.012Z" style="fill:rgb(0,143,212);fill-rule:nonzero;"/>
            </g>
            <g transform="matrix(45.8333,0,0,45.8333,1978.83,1023.32)">
                <path d="M0.315,0.012C0.232,0.012 0.165,-0.013 0.116,-0.064C0.067,-0.114 0.042,-0.182 0.042,-0.268C0.042,-0.355 0.067,-0.423 0.116,-0.473C0.166,-0.523 0.234,-0.548 0.319,-0.548C0.404,-0.548 0.472,-0.523 0.522,-0.473C0.571,-0.423 0.596,-0.355 0.596,-0.269C0.596,-0.181 0.571,-0.112 0.521,-0.063C0.472,-0.013 0.403,0.012 0.315,0.012ZM0.318,-0.078C0.401,-0.078 0.442,-0.142 0.442,-0.269C0.442,-0.327 0.431,-0.373 0.409,-0.407C0.387,-0.441 0.357,-0.458 0.319,-0.458C0.281,-0.458 0.251,-0.441 0.229,-0.407C0.207,-0.373 0.196,-0.327 0.196,-0.268C0.196,-0.21 0.207,-0.164 0.229,-0.129C0.25,-0.095 0.28,-0.078 0.318,-0.078Z" style="fill:rgb(0,143,212);fill-rule:nonzero;"/>
            </g>
            <g transform="matrix(45.8333,0,0,45.8333,2008.9,1023.32)">
                <path d="M0.09,0L0.09,-0.771L0.235,-0.771L0.235,-0.435C0.282,-0.511 0.343,-0.548 0.417,-0.548C0.465,-0.548 0.503,-0.533 0.531,-0.503C0.558,-0.473 0.572,-0.431 0.572,-0.379L0.572,0L0.428,0L0.428,-0.343C0.428,-0.404 0.408,-0.435 0.367,-0.435C0.321,-0.435 0.277,-0.402 0.235,-0.337L0.235,0L0.09,0Z" style="fill:rgb(0,143,212);fill-rule:nonzero;"/>
            </g>
            <g transform="matrix(45.8333,0,0,45.8333,2039.8,1023.32)">
                <path d="M0.315,0.012C0.232,0.012 0.165,-0.013 0.116,-0.064C0.067,-0.114 0.042,-0.182 0.042,-0.268C0.042,-0.355 0.067,-0.423 0.116,-0.473C0.166,-0.523 0.234,-0.548 0.319,-0.548C0.404,-0.548 0.472,-0.523 0.522,-0.473C0.571,-0.423 0.596,-0.355 0.596,-0.269C0.596,-0.181 0.571,-0.112 0.521,-0.063C0.472,-0.013 0.403,0.012 0.315,0.012ZM0.318,-0.078C0.401,-0.078 0.442,-0.142 0.442,-0.269C0.442,-0.327 0.431,-0.373 0.409,-0.407C0.387,-0.441 0.357,-0.458 0.319,-0.458C0.281,-0.458 0.251,-0.441 0.229,-0.407C0.207,-0.373 0.196,-0.327 0.196,-0.268C0.196,-0.21 0.207,-0.164 0.229,-0.129C0.25,-0.095 0.28,-0.078 0.318,-0.078Z" style="fill:rgb(0,143,212);fill-rule:nonzero;"/>
            </g>
            <g transform="matrix(45.8333,0,0,45.8333,2069.88,1023.32)">
                <rect x="0.09" y="-0.771" width="0.145" height="0.771" style="fill:rgb(0,143,212);fill-rule:nonzero;"/>
            </g>
            <g transform="matrix(45.8333,0,0,45.8333,2085.58,1023.32)">
                <path d="M0.136,0L0.136,-0.121L0.281,-0.121L0.281,0L0.136,0ZM0.281,-0.205L0.136,-0.205L0.136,-0.218C0.136,-0.271 0.16,-0.324 0.208,-0.377L0.243,-0.415C0.29,-0.467 0.313,-0.513 0.313,-0.554C0.313,-0.614 0.275,-0.645 0.199,-0.645C0.15,-0.645 0.094,-0.63 0.03,-0.601L0.03,-0.711C0.095,-0.731 0.158,-0.741 0.22,-0.741C0.297,-0.741 0.358,-0.726 0.403,-0.696C0.448,-0.667 0.47,-0.626 0.47,-0.575C0.47,-0.528 0.443,-0.479 0.39,-0.429L0.357,-0.397C0.326,-0.368 0.306,-0.344 0.296,-0.324C0.286,-0.304 0.281,-0.278 0.281,-0.246L0.281,-0.205Z" style="fill:rgb(0,143,212);fill-rule:nonzero;"/>
            </g>
        </g>
    </g>
</svg>
