<svg clip-rule="evenodd" fill-rule="evenodd" stroke-linejoin="round" stroke-miterlimit="2" viewBox="0 0 601 408" xmlns="http://www.w3.org/2000/svg"><g fill-rule="nonzero"><path d="m0-76.357c0 .577.634 1.043 1.415 1.043h36.581c7.28 0 13.202 4.365 13.202 9.73v54.81c0 5.366-5.922 9.73-13.202 9.73h-46.691c-.781 0-1.414.467-1.414 1.044 0 .576.633 1.043 1.414 1.043h46.691c8.841 0 16.033-5.301 16.033-11.817v-54.81c0-6.516-7.192-11.816-16.033-11.816h-36.581c-.781 0-1.415.466-1.415 1.043" fill="#927c46" transform="matrix(4.16667 0 0 4.16667 375.85 323.13)"/><path d="m0 81.305c.553-.407.553-1.068 0-1.475-.553-.408-1.449-.408-2.002 0l-7.978 5.88v-12.202c0-2.956-3.262-5.36-7.273-5.36h-52.693c-7.28 0-13.202-4.365-13.202-9.731v-54.81c0-5.366 5.922-9.731 13.202-9.731h41.786c.782 0 1.416-.466 1.416-1.043 0-.575-.634-1.043-1.416-1.043h-41.786c-8.841 0-16.032 5.302-16.032 11.817v54.81c0 6.515 7.191 11.816 16.032 11.816h52.693c2.449 0 4.442 1.47 4.442 3.275v11.824l-7.465-5.502c-.553-.408-1.449-.408-2.002 0-.277.203-.414.47-.414.737s.137.534.414.738l11.139 8.21z" fill="#927c46" transform="matrix(4.16667 0 0 4.16667 358.34 34.84)"/><g fill="#927c45"><path d="m.067-.74v.74h.083v-.291h.119c.096 0 .146-.012.195-.05.045-.035.076-.106.076-.176 0-.069-.03-.138-.079-.176-.046-.035-.095-.047-.199-.047zm.083.073h.116c.063 0 .101.007.138.031.033.021.056.068.056.121 0 .052-.023.099-.055.12-.037.024-.075.031-.137.031h-.118z" transform="matrix(45.8333 0 0 45.8333 132.03 102.87)"/><path d="m.567-.538h-.074v.304c0 .112-.064.179-.176.18-.121.001-.173-.077-.173-.193v-.291h-.073v.305c0 .131.059.245.227.248.096.001.169-.041.199-.111v.096h.07z" transform="matrix(45.8333 0 0 45.8333 157.33 102.87)"/><path d="m.595-.248c.008-.086-.022-.169-.084-.229-.051-.049-.121-.076-.197-.076-.161 0-.283.127-.283.285 0 .134.097.283.284.283.055 0 .108-.015.153-.044.046-.029.084-.073.109-.131h-.077c-.035.07-.102.111-.185.111-.091.001-.206-.064-.21-.199zm-.489-.059c.007-.098.093-.183.209-.183.111-.003.202.089.207.183z" transform="matrix(45.8333 0 0 45.8333 186.61 102.87)"/><path d="m.61-.74h-.074v.311c-.024-.056-.102-.124-.22-.124-.161 0-.277.123-.277.283 0 .151.106.285.278.285.112 0 .184-.055.222-.126v.111h.071zm-.498.47c0-.121.091-.215.215-.215.06 0 .114.023.152.062.039.038.062.09.062.151.002.06-.021.115-.06.155-.038.039-.093.063-.153.063-.14 0-.215-.107-.216-.215z" transform="matrix(45.8333 0 0 45.8333 215.4 102.87)"/><path d="m.595-.248c.008-.086-.022-.169-.084-.229-.051-.049-.121-.076-.197-.076-.161 0-.283.127-.283.285 0 .134.097.283.284.283.055 0 .108-.015.153-.044.046-.029.084-.073.109-.131h-.077c-.035.07-.102.111-.185.111-.091.001-.206-.064-.21-.199zm-.489-.059c.007-.098.093-.183.209-.183.111-.003.202.089.207.183z" transform="matrix(45.8333 0 0 45.8333 246.75 102.87)"/><path d="m.072.204h.074v-.314c.025.056.102.125.221.125.167 0 .276-.132.276-.282 0-.139-.095-.286-.276-.286-.103 0-.181.049-.225.127v-.112h-.07zm.497-.473c0 .123-.093.215-.214.215-.06 0-.114-.023-.152-.061-.039-.039-.062-.093-.062-.153 0-.061.023-.115.06-.154.039-.039.092-.063.152-.063.145 0 .216.114.216.215z" transform="matrix(45.8333 0 0 45.8333 288.73 102.87)"/><path d="m.072 0h.073v-.293c0-.122.058-.187.162-.187h.007v-.073c-.063.002-.133.023-.172.103v-.088h-.07z" transform="matrix(45.8333 0 0 45.8333 320.08 102.87)"/><path d="m.039-.269c0 .151.112.283.285.283.174 0 .286-.132.286-.283s-.112-.284-.286-.284c-.173 0-.285.133-.285.283zm.073 0c0-.123.093-.215.212-.215.12 0 .212.092.212.215s-.092.215-.212.215c-.119 0-.212-.092-.212-.214z" transform="matrix(45.8333 0 0 45.8333 332.91 102.87)"/><path d="m.61-.74h-.074v.311c-.024-.056-.102-.124-.22-.124-.161 0-.277.123-.277.283 0 .151.106.285.278.285.112 0 .184-.055.222-.126v.111h.071zm-.498.47c0-.121.091-.215.215-.215.06 0 .114.023.152.062.039.038.062.09.062.151.002.06-.021.115-.06.155-.038.039-.093.063-.153.063-.14 0-.215-.107-.216-.215z" transform="matrix(45.8333 0 0 45.8333 362.66 102.87)"/><path d="m.567-.538h-.074v.304c0 .112-.064.179-.176.18-.121.001-.173-.077-.173-.193v-.291h-.073v.305c0 .131.059.245.227.248.096.001.169-.041.199-.111v.096h.07z" transform="matrix(45.8333 0 0 45.8333 394.01 102.87)"/><path d="m.519-.182c-.023.065-.092.127-.195.128-.116 0-.212-.088-.212-.215 0-.062.025-.12.061-.155.045-.042.089-.061.152-.061.076 0 .161.042.195.133h.076c-.037-.129-.153-.201-.274-.201-.163 0-.284.125-.284.284 0 .144.107.284.289.284.129 0 .234-.083.269-.197z" transform="matrix(45.8333 0 0 45.8333 423.29 102.87)"/><path d="m.072-.637h.074v-.103h-.074zm0 .637h.074v-.538h-.074z" transform="matrix(45.8333 0 0 45.8333 452.17 102.87)"/><path d="m.072 0h.073v-.293c0-.122.058-.187.162-.187h.007v-.073c-.063.002-.133.023-.172.103v-.088h-.07z" transform="matrix(45.8333 0 0 45.8333 462.16 102.87)"/><path d="m.387-.403c-.005-.109-.089-.15-.164-.15-.091 0-.168.057-.168.154.002.085.062.116.139.139.093.027.133.052.135.113.001.055-.042.101-.104.101-.054 0-.109-.033-.112-.107h-.073c.001.113.097.168.184.168.102 0 .182-.072.178-.171-.004-.115-.09-.137-.167-.158-.065-.019-.104-.04-.106-.091-.002-.047.034-.087.093-.087.054 0 .092.032.092.089z" transform="matrix(45.8333 0 0 45.8333 52.05 161.2)"/><path d="m.612-.538h-.074v.113c-.026-.061-.105-.128-.22-.128-.164 0-.279.126-.279.284 0 .148.104.284.279.284.096 0 .178-.045.22-.126v.111h.074zm-.5.269c0-.12.09-.216.214-.216.095 0 .167.055.197.129.012.026.018.056.017.086 0 .029-.006.059-.018.085-.029.076-.099.131-.194.131-.148 0-.215-.117-.216-.214z" transform="matrix(45.8333 0 0 45.8333 72.67 161.2)"/><path d="m.072 0h.074v-.304c0-.112.064-.179.175-.18.121-.002.173.077.173.193v.291h.073v-.306c0-.131-.059-.245-.226-.247-.096-.002-.169.041-.2.111.001-.036.001-.066.001-.096h-.07z" transform="matrix(45.8333 0 0 45.8333 104.02 161.2)"/><path d="m.61-.538h-.073v.111c-.03-.066-.112-.126-.218-.126-.164 0-.281.124-.281.285 0 .155.113.283.281.283.104 0 .179-.053.217-.129v.069c0 .134-.105.214-.208.214-.034 0-.08-.011-.119-.039-.032-.022-.051-.048-.064-.071h-.085c.034.097.132.174.266.174.073 0 .151-.031.204-.083.047-.045.08-.11.08-.212zm-.498.268c0-.126.096-.214.214-.214.077 0 .131.032.164.075.034.043.049.096.049.141-.001.059-.023.113-.06.152-.038.039-.09.062-.151.062-.139 0-.216-.106-.216-.215z" transform="matrix(45.8333 0 0 45.8333 133.26 161.2)"/><path d="m.072 0h.073v-.293c0-.122.058-.187.162-.187h.007v-.073c-.063.002-.133.023-.172.103v-.088h-.07z" transform="matrix(45.8333 0 0 45.8333 164.47 161.2)"/><path d="m.612-.538h-.074v.113c-.026-.061-.105-.128-.22-.128-.164 0-.279.126-.279.284 0 .148.104.284.279.284.096 0 .178-.045.22-.126v.111h.074zm-.5.269c0-.12.09-.216.214-.216.095 0 .167.055.197.129.012.026.018.056.017.086 0 .029-.006.059-.018.085-.029.076-.099.131-.194.131-.148 0-.215-.117-.216-.214z" transform="matrix(45.8333 0 0 45.8333 177.31 161.2)"/><path d="m.61-.74h-.074v.311c-.024-.056-.102-.124-.22-.124-.161 0-.277.123-.277.283 0 .151.106.285.278.285.112 0 .184-.055.222-.126v.111h.071zm-.498.47c0-.121.091-.215.215-.215.06 0 .114.023.152.062.039.038.062.09.062.151.002.06-.021.115-.06.155-.038.039-.093.063-.153.063-.14 0-.215-.107-.216-.215z" transform="matrix(45.8333 0 0 45.8333 208.66 161.2)"/><path d="m.039-.269c0 .151.112.283.285.283.174 0 .286-.132.286-.283s-.112-.284-.286-.284c-.173 0-.285.133-.285.283zm.073 0c0-.123.093-.215.212-.215.12 0 .212.092.212.215s-.092.215-.212.215c-.119 0-.212-.092-.212-.214z" transform="matrix(45.8333 0 0 45.8333 240.01 161.2)"/><path d="m.387-.403c-.005-.109-.089-.15-.164-.15-.091 0-.168.057-.168.154.002.085.062.116.139.139.093.027.133.052.135.113.001.055-.042.101-.104.101-.054 0-.109-.033-.112-.107h-.073c.001.113.097.168.184.168.102 0 .182-.072.178-.171-.004-.115-.09-.137-.167-.158-.065-.019-.104-.04-.106-.091-.002-.047.034-.087.093-.087.054 0 .092.032.092.089z" transform="matrix(45.8333 0 0 45.8333 269.75 161.2)"/><path d="m.595-.248c.008-.086-.022-.169-.084-.229-.051-.049-.121-.076-.197-.076-.161 0-.283.127-.283.285 0 .134.097.283.284.283.055 0 .108-.015.153-.044.046-.029.084-.073.109-.131h-.077c-.035.07-.102.111-.185.111-.091.001-.206-.064-.21-.199zm-.489-.059c.007-.098.093-.183.209-.183.111-.003.202.089.207.183z" transform="matrix(45.8333 0 0 45.8333 303.58 161.2)"/><path d="m.072 0h.074v-.304c0-.112.064-.179.175-.18.121-.002.173.077.173.193v.291h.073v-.306c0-.131-.059-.245-.226-.247-.096-.002-.169.041-.2.111.001-.036.001-.066.001-.096h-.07z" transform="matrix(45.8333 0 0 45.8333 332.36 161.2)"/><path d="m.595-.248c.008-.086-.022-.169-.084-.229-.051-.049-.121-.076-.197-.076-.161 0-.283.127-.283.285 0 .134.097.283.284.283.055 0 .108-.015.153-.044.046-.029.084-.073.109-.131h-.077c-.035.07-.102.111-.185.111-.091.001-.206-.064-.21-.199zm-.489-.059c.007-.098.093-.183.209-.183.111-.003.202.089.207.183z" transform="matrix(45.8333 0 0 45.8333 374.8 161.2)"/><path d="m406.8799976 127.283358h3.3916642v33.916642h-3.3916642z" stroke-width="45.8333"/><path d="m.114 0h.073v-.479h.118v-.059h-.118v-.202h-.073v.202h-.106v.059h.106z" transform="matrix(45.8333 0 0 45.8333 426.73 161.2)"/><path d="m.072 0h.073v-.293c0-.122.058-.187.162-.187h.007v-.073c-.063.002-.133.023-.172.103v-.088h-.07z" transform="matrix(45.8333 0 0 45.8333 441.12 161.2)"/><path d="m.612-.538h-.074v.113c-.026-.061-.105-.128-.22-.128-.164 0-.279.126-.279.284 0 .148.104.284.279.284.096 0 .178-.045.22-.126v.111h.074zm-.5.269c0-.12.09-.216.214-.216.095 0 .167.055.197.129.012.026.018.056.017.086 0 .029-.006.059-.018.085-.029.076-.099.131-.194.131-.148 0-.215-.117-.216-.214z" transform="matrix(45.8333 0 0 45.8333 453.95 161.2)"/><path d="m.519-.182c-.023.065-.092.127-.195.128-.116 0-.212-.088-.212-.215 0-.062.025-.12.061-.155.045-.042.089-.061.152-.061.076 0 .161.042.195.133h.076c-.037-.129-.153-.201-.274-.201-.163 0-.284.125-.284.284 0 .144.107.284.289.284.129 0 .234-.083.269-.197z" transform="matrix(45.8333 0 0 45.8333 485.3 161.2)"/><path d="m.114 0h.073v-.479h.118v-.059h-.118v-.202h-.073v.202h-.106v.059h.106z" transform="matrix(45.8333 0 0 45.8333 514.18 161.2)"/><path d="m.039-.269c0 .151.112.283.285.283.174 0 .286-.132.286-.283s-.112-.284-.286-.284c-.173 0-.285.133-.285.283zm.073 0c0-.123.093-.215.212-.215.12 0 .212.092.212.215s-.092.215-.212.215c-.119 0-.212-.092-.212-.214z" transform="matrix(45.8333 0 0 45.8333 527.19 161.2)"/><path d="m.61-.74h-.074v.311c-.024-.056-.102-.124-.22-.124-.161 0-.277.123-.277.283 0 .151.106.285.278.285.112 0 .184-.055.222-.126v.111h.071zm-.498.47c0-.121.091-.215.215-.215.06 0 .114.023.152.062.039.038.062.09.062.151.002.06-.021.115-.06.155-.038.039-.093.063-.153.063-.14 0-.215-.107-.216-.215z" transform="matrix(45.8333 0 0 45.8333 28.53 219.53)"/><path d="m.072-.637h.074v-.103h-.074zm0 .637h.074v-.538h-.074z" transform="matrix(45.8333 0 0 45.8333 59.88 219.53)"/><path d="m.61-.538h-.073v.111c-.03-.066-.112-.126-.218-.126-.164 0-.281.124-.281.285 0 .155.113.283.281.283.104 0 .179-.053.217-.129v.069c0 .134-.105.214-.208.214-.034 0-.08-.011-.119-.039-.032-.022-.051-.048-.064-.071h-.085c.034.097.132.174.266.174.073 0 .151-.031.204-.083.047-.045.08-.11.08-.212zm-.498.268c0-.126.096-.214.214-.214.077 0 .131.032.164.075.034.043.049.096.049.141-.001.059-.023.113-.06.152-.038.039-.09.062-.151.062-.139 0-.216-.106-.216-.215z" transform="matrix(45.8333 0 0 45.8333 69.88 219.53)"/><path d="m.595-.248c.008-.086-.022-.169-.084-.229-.051-.049-.121-.076-.197-.076-.161 0-.283.127-.283.285 0 .134.097.283.284.283.055 0 .108-.015.153-.044.046-.029.084-.073.109-.131h-.077c-.035.07-.102.111-.185.111-.091.001-.206-.064-.21-.199zm-.489-.059c.007-.098.093-.183.209-.183.111-.003.202.089.207.183z" transform="matrix(45.8333 0 0 45.8333 101.09 219.53)"/><path d="m.387-.403c-.005-.109-.089-.15-.164-.15-.091 0-.168.057-.168.154.002.085.062.116.139.139.093.027.133.052.135.113.001.055-.042.101-.104.101-.054 0-.109-.033-.112-.107h-.073c.001.113.097.168.184.168.102 0 .182-.072.178-.171-.004-.115-.09-.137-.167-.158-.065-.019-.104-.04-.106-.091-.002-.047.034-.087.093-.087.054 0 .092.032.092.089z" transform="matrix(45.8333 0 0 45.8333 129.87 219.53)"/><path d="m.114 0h.073v-.479h.118v-.059h-.118v-.202h-.073v.202h-.106v.059h.106z" transform="matrix(45.8333 0 0 45.8333 150.5 219.53)"/><path d="m.072-.637h.074v-.103h-.074zm0 .637h.074v-.538h-.074z" transform="matrix(45.8333 0 0 45.8333 164.89 219.53)"/><path d="m.509-.538h-.078l-.172.447-.173-.447h-.078l.212.538h.077z" transform="matrix(45.8333 0 0 45.8333 174.88 219.53)"/><path d="m.039-.269c0 .151.112.283.285.283.174 0 .286-.132.286-.283s-.112-.284-.286-.284c-.173 0-.285.133-.285.283zm.073 0c0-.123.093-.215.212-.215.12 0 .212.092.212.215s-.092.215-.212.215c-.119 0-.212-.092-.212-.214z" transform="matrix(45.8333 0 0 45.8333 197.47 219.53)"/><path d="m.185-.111h-.079l-.063.186h.067z" transform="matrix(45.8333 0 0 45.8333 226.07 219.53)"/><path d="m.595-.248c.008-.086-.022-.169-.084-.229-.051-.049-.121-.076-.197-.076-.161 0-.283.127-.283.285 0 .134.097.283.284.283.055 0 .108-.015.153-.044.046-.029.084-.073.109-.131h-.077c-.035.07-.102.111-.185.111-.091.001-.206-.064-.21-.199zm-.489-.059c.007-.098.093-.183.209-.183.111-.003.202.089.207.183z" transform="matrix(45.8333 0 0 45.8333 247.16 219.53)"/><path d="m.387-.403c-.005-.109-.089-.15-.164-.15-.091 0-.168.057-.168.154.002.085.062.116.139.139.093.027.133.052.135.113.001.055-.042.101-.104.101-.054 0-.109-.033-.112-.107h-.073c.001.113.097.168.184.168.102 0 .182-.072.178-.171-.004-.115-.09-.137-.167-.158-.065-.019-.104-.04-.106-.091-.002-.047.034-.087.093-.087.054 0 .092.032.092.089z" transform="matrix(45.8333 0 0 45.8333 275.94 219.53)"/><path d="m.072.204h.074v-.314c.025.056.102.125.221.125.167 0 .276-.132.276-.282 0-.139-.095-.286-.276-.286-.103 0-.181.049-.225.127v-.112h-.07zm.497-.473c0 .123-.093.215-.214.215-.06 0-.114-.023-.152-.061-.039-.039-.062-.093-.062-.153 0-.061.023-.115.06-.154.039-.039.092-.063.152-.063.145 0 .216.114.216.215z" transform="matrix(45.8333 0 0 45.8333 296.56 219.53)"/><path d="m.595-.248c.008-.086-.022-.169-.084-.229-.051-.049-.121-.076-.197-.076-.161 0-.283.127-.283.285 0 .134.097.283.284.283.055 0 .108-.015.153-.044.046-.029.084-.073.109-.131h-.077c-.035.07-.102.111-.185.111-.091.001-.206-.064-.21-.199zm-.489-.059c.007-.098.093-.183.209-.183.111-.003.202.089.207.183z" transform="matrix(45.8333 0 0 45.8333 327.91 219.53)"/><path d="m.519-.182c-.023.065-.092.127-.195.128-.116 0-.212-.088-.212-.215 0-.062.025-.12.061-.155.045-.042.089-.061.152-.061.076 0 .161.042.195.133h.076c-.037-.129-.153-.201-.274-.201-.163 0-.284.125-.284.284 0 .144.107.284.289.284.129 0 .234-.083.269-.197z" transform="matrix(45.8333 0 0 45.8333 356.7 219.53)"/><path d="m.072-.637h.074v-.103h-.074zm0 .637h.074v-.538h-.074z" transform="matrix(45.8333 0 0 45.8333 385.57 219.53)"/><path d="m.612-.538h-.074v.113c-.026-.061-.105-.128-.22-.128-.164 0-.279.126-.279.284 0 .148.104.284.279.284.096 0 .178-.045.22-.126v.111h.074zm-.5.269c0-.12.09-.216.214-.216.095 0 .167.055.197.129.012.026.018.056.017.086 0 .029-.006.059-.018.085-.029.076-.099.131-.194.131-.148 0-.215-.117-.216-.214z" transform="matrix(45.8333 0 0 45.8333 395.56 219.53)"/><path d="m430.2099976 185.613358h3.3916642v33.916642h-3.3916642z" stroke-width="45.8333"/><path d="m.072 0h.074v-.3c0-.057.013-.098.036-.129.022-.032.064-.057.114-.055.055.001.093.022.118.057.021.033.03.068.028.128v.299h.074v-.299c0-.061.005-.091.032-.129.025-.037.071-.056.118-.056.051 0 .085.017.107.045.031.035.04.086.04.143v.296h.074v-.299c0-.095-.014-.153-.061-.2-.037-.038-.09-.054-.145-.054-.06 0-.113.023-.148.06-.02.021-.031.042-.039.057-.003-.006-.021-.042-.035-.056-.038-.043-.091-.061-.147-.061-.061 0-.136.032-.17.1v-.085h-.07z" transform="matrix(45.8333 0 0 45.8333 436.86 219.53)"/><path d="m.595-.248c.008-.086-.022-.169-.084-.229-.051-.049-.121-.076-.197-.076-.161 0-.283.127-.283.285 0 .134.097.283.284.283.055 0 .108-.015.153-.044.046-.029.084-.073.109-.131h-.077c-.035.07-.102.111-.185.111-.091.001-.206-.064-.21-.199zm-.489-.059c.007-.098.093-.183.209-.183.111-.003.202.089.207.183z" transform="matrix(45.8333 0 0 45.8333 480.67 219.53)"/><path d="m.072 0h.074v-.304c0-.112.064-.179.175-.18.121-.002.173.077.173.193v.291h.073v-.306c0-.131-.059-.245-.226-.247-.096-.002-.169.041-.2.111.001-.036.001-.066.001-.096h-.07z" transform="matrix(45.8333 0 0 45.8333 509.46 219.53)"/><path d="m.114 0h.073v-.479h.118v-.059h-.118v-.202h-.073v.202h-.106v.059h.106z" transform="matrix(45.8333 0 0 45.8333 538.7 219.53)"/><path d="m.595-.248c.008-.086-.022-.169-.084-.229-.051-.049-.121-.076-.197-.076-.161 0-.283.127-.283.285 0 .134.097.283.284.283.055 0 .108-.015.153-.044.046-.029.084-.073.109-.131h-.077c-.035.07-.102.111-.185.111-.091.001-.206-.064-.21-.199zm-.489-.059c.007-.098.093-.183.209-.183.111-.003.202.089.207.183z" transform="matrix(45.8333 0 0 45.8333 551.71 219.53)"/><path d="m.595-.248c.008-.086-.022-.169-.084-.229-.051-.049-.121-.076-.197-.076-.161 0-.283.127-.283.285 0 .134.097.283.284.283.055 0 .108-.015.153-.044.046-.029.084-.073.109-.131h-.077c-.035.07-.102.111-.185.111-.091.001-.206-.064-.21-.199zm-.489-.059c.007-.098.093-.183.209-.183.111-.003.202.089.207.183z" transform="matrix(45.8333 0 0 45.8333 34.95 277.87)"/><path d="m.072 0h.074v-.304c0-.112.064-.179.175-.18.121-.002.173.077.173.193v.291h.073v-.306c0-.131-.059-.245-.226-.247-.096-.002-.169.041-.2.111.001-.036.001-.066.001-.096h-.07z" transform="matrix(45.8333 0 0 45.8333 63.73 277.87)"/><path d="m.595-.248c.008-.086-.022-.169-.084-.229-.051-.049-.121-.076-.197-.076-.161 0-.283.127-.283.285 0 .134.097.283.284.283.055 0 .108-.015.153-.044.046-.029.084-.073.109-.131h-.077c-.035.07-.102.111-.185.111-.091.001-.206-.064-.21-.199zm-.489-.059c.007-.098.093-.183.209-.183.111-.003.202.089.207.183z" transform="matrix(45.8333 0 0 45.8333 106.18 277.87)"/><path d="m.387-.403c-.005-.109-.089-.15-.164-.15-.091 0-.168.057-.168.154.002.085.062.116.139.139.093.027.133.052.135.113.001.055-.042.101-.104.101-.054 0-.109-.033-.112-.107h-.073c.001.113.097.168.184.168.102 0 .182-.072.178-.171-.004-.115-.09-.137-.167-.158-.065-.019-.104-.04-.106-.091-.002-.047.034-.087.093-.087.054 0 .092.032.092.089z" transform="matrix(45.8333 0 0 45.8333 134.96 277.87)"/><path d="m.039-.269c0 .151.112.283.285.283.174 0 .286-.132.286-.283s-.112-.284-.286-.284c-.173 0-.285.133-.285.283zm.073 0c0-.123.093-.215.212-.215.12 0 .212.092.212.215s-.092.215-.212.215c-.119 0-.212-.092-.212-.214zm.089-.379.024.048.241-.129-.027-.054z" transform="matrix(45.8333 0 0 45.8333 155.58 277.87)"/><path d="m.085 0h.073v-.479h.116v-.059h-.116v-.037c0-.117.079-.117.116-.119v-.059c-.058 0-.189.005-.189.171v.044h-.079v.059h.079z" transform="matrix(45.8333 0 0 45.8333 185.33 277.87)"/><path d="m.612-.538h-.074v.113c-.026-.061-.105-.128-.22-.128-.164 0-.279.126-.279.284 0 .148.104.284.279.284.096 0 .178-.045.22-.126v.111h.074zm-.5.269c0-.12.09-.216.214-.216.095 0 .167.055.197.129.012.026.018.056.017.086 0 .029-.006.059-.018.085-.029.076-.099.131-.194.131-.148 0-.215-.117-.216-.214z" transform="matrix(45.8333 0 0 45.8333 196.92 277.87)"/><path d="m.61-.538h-.073v.111c-.03-.066-.112-.126-.218-.126-.164 0-.281.124-.281.285 0 .155.113.283.281.283.104 0 .179-.053.217-.129v.069c0 .134-.105.214-.208.214-.034 0-.08-.011-.119-.039-.032-.022-.051-.048-.064-.071h-.085c.034.097.132.174.266.174.073 0 .151-.031.204-.083.047-.045.08-.11.08-.212zm-.498.268c0-.126.096-.214.214-.214.077 0 .131.032.164.075.034.043.049.096.049.141-.001.059-.023.113-.06.152-.038.039-.09.062-.151.062-.139 0-.216-.106-.216-.215z" transform="matrix(45.8333 0 0 45.8333 228.27 277.87)"/><path d="m.039-.269c0 .151.112.283.285.283.174 0 .286-.132.286-.283s-.112-.284-.286-.284c-.173 0-.285.133-.285.283zm.073 0c0-.123.093-.215.212-.215.12 0 .212.092.212.215s-.092.215-.212.215c-.119 0-.212-.092-.212-.214z" transform="matrix(45.8333 0 0 45.8333 259.49 277.87)"/><path d="m.124.204h.08l.307-.742h-.081l-.174.435-.169-.435h-.079l.208.528z" transform="matrix(45.8333 0 0 45.8333 302.43 277.87)"/><path d="m.595-.248c.008-.086-.022-.169-.084-.229-.051-.049-.121-.076-.197-.076-.161 0-.283.127-.283.285 0 .134.097.283.284.283.055 0 .108-.015.153-.044.046-.029.084-.073.109-.131h-.077c-.035.07-.102.111-.185.111-.091.001-.206-.064-.21-.199zm-.489-.059c.007-.098.093-.183.209-.183.111-.003.202.089.207.183z" transform="matrix(45.8333 0 0 45.8333 339.1 277.87)"/><path d="m.387-.403c-.005-.109-.089-.15-.164-.15-.091 0-.168.057-.168.154.002.085.062.116.139.139.093.027.133.052.135.113.001.055-.042.101-.104.101-.054 0-.109-.033-.112-.107h-.073c.001.113.097.168.184.168.102 0 .182-.072.178-.171-.004-.115-.09-.137-.167-.158-.065-.019-.104-.04-.106-.091-.002-.047.034-.087.093-.087.054 0 .092.032.092.089z" transform="matrix(45.8333 0 0 45.8333 367.88 277.87)"/><path d="m.114 0h.073v-.479h.118v-.059h-.118v-.202h-.073v.202h-.106v.059h.106z" transform="matrix(45.8333 0 0 45.8333 388.51 277.87)"/><path d="m.039-.269c0 .151.112.283.285.283.174 0 .286-.132.286-.283s-.112-.284-.286-.284c-.173 0-.285.133-.285.283zm.073 0c0-.123.093-.215.212-.215.12 0 .212.092.212.215s-.092.215-.212.215c-.119 0-.212-.092-.212-.214zm.089-.379.024.048.241-.129-.027-.054z" transform="matrix(45.8333 0 0 45.8333 401.52 277.87)"/><path d="m.072 0h.074v-.3c0-.057.013-.098.036-.129.022-.032.064-.057.114-.055.055.001.093.022.118.057.021.033.03.068.028.128v.299h.074v-.299c0-.061.005-.091.032-.129.025-.037.071-.056.118-.056.051 0 .085.017.107.045.031.035.04.086.04.143v.296h.074v-.299c0-.095-.014-.153-.061-.2-.037-.038-.09-.054-.145-.054-.06 0-.113.023-.148.06-.02.021-.031.042-.039.057-.003-.006-.021-.042-.035-.056-.038-.043-.091-.061-.147-.061-.061 0-.136.032-.17.1v-.085h-.07z" transform="matrix(45.8333 0 0 45.8333 431.27 277.87)"/><path d="m.612-.538h-.074v.113c-.026-.061-.105-.128-.22-.128-.164 0-.279.126-.279.284 0 .148.104.284.279.284.096 0 .178-.045.22-.126v.111h.074zm-.5.269c0-.12.09-.216.214-.216.095 0 .167.055.197.129.012.026.018.056.017.086 0 .029-.006.059-.018.085-.029.076-.099.131-.194.131-.148 0-.215-.117-.216-.214z" transform="matrix(45.8333 0 0 45.8333 475.08 277.87)"/><path d="m.61-.538h-.073v.111c-.03-.066-.112-.126-.218-.126-.164 0-.281.124-.281.285 0 .155.113.283.281.283.104 0 .179-.053.217-.129v.069c0 .134-.105.214-.208.214-.034 0-.08-.011-.119-.039-.032-.022-.051-.048-.064-.071h-.085c.034.097.132.174.266.174.073 0 .151-.031.204-.083.047-.045.08-.11.08-.212zm-.498.268c0-.126.096-.214.214-.214.077 0 .131.032.164.075.034.043.049.096.049.141-.001.059-.023.113-.06.152-.038.039-.09.062-.151.062-.139 0-.216-.106-.216-.215z" transform="matrix(45.8333 0 0 45.8333 506.43 277.87)"/><path d="m.039-.269c0 .151.112.283.285.283.174 0 .286-.132.286-.283s-.112-.284-.286-.284c-.173 0-.285.133-.285.283zm.073 0c0-.123.093-.215.212-.215.12 0 .212.092.212.215s-.092.215-.212.215c-.119 0-.212-.092-.212-.214z" transform="matrix(45.8333 0 0 45.8333 537.65 277.87)"/><path d="m571.0083298 272.828337h3.5749974v5.041663h-3.5749974z" stroke-width="45.8333"/></g></g></svg>