<svg clip-rule="evenodd" fill-rule="evenodd" stroke-linejoin="round" stroke-miterlimit="2" viewBox="0 0 601 409" xmlns="http://www.w3.org/2000/svg"><g fill="#71bf44" fill-rule="nonzero"><path d="m0-76.357c0 .577.634 1.043 1.415 1.043h36.581c7.28 0 13.202 4.365 13.202 9.73v54.81c0 5.366-5.922 9.731-13.202 9.731h-46.691c-.781 0-1.414.467-1.414 1.043s.633 1.043 1.414 1.043h46.691c8.841 0 16.033-5.301 16.033-11.817v-54.81c0-6.516-7.192-11.816-16.033-11.816h-36.581c-.781 0-1.415.467-1.415 1.043" transform="matrix(4.16667 0 0 4.16667 375.85 323.45)"/><path d="m0 81.305c.553-.407.553-1.068 0-1.475-.553-.408-1.449-.408-2.002 0l-7.978 5.881v-12.202c0-2.957-3.262-5.362-7.273-5.362h-52.693c-7.28 0-13.202-4.364-13.202-9.73v-54.81c0-5.366 5.922-9.731 13.202-9.731h41.786c.782 0 1.416-.466 1.416-1.043 0-.575-.634-1.043-1.416-1.043h-41.786c-8.841 0-16.032 5.302-16.032 11.817v54.81c0 6.515 7.191 11.816 16.032 11.816h52.693c2.449 0 4.442 1.469 4.442 3.276v11.823l-7.465-5.502c-.553-.408-1.449-.408-2.002 0-.277.204-.414.47-.414.738 0 .266.137.534.414.737l11.139 8.21z" transform="matrix(4.16667 0 0 4.16667 358.34 35.16)"/><path d="m.182-.208h.345l.086.208h.09l-.306-.74h-.08l-.309.74h.089zm.32-.068h-.295l.147-.371z" transform="matrix(45.8333 0 0 45.8333 72.17 76.12)"/><path d="m.085 0h.073v-.479h.116v-.059h-.116v-.037c0-.117.079-.117.116-.119v-.059c-.058 0-.189.005-.189.171v.044h-.079v.059h.079z" transform="matrix(45.8333 0 0 45.8333 104.76 76.12)"/><path d="m.595-.248c.008-.086-.022-.169-.084-.229-.051-.049-.121-.076-.197-.076-.161 0-.283.127-.283.285 0 .134.097.283.284.283.055 0 .108-.015.153-.044.046-.029.084-.073.109-.131h-.077c-.035.07-.102.111-.185.111-.091.001-.206-.064-.21-.199zm-.489-.059c.007-.098.093-.183.209-.183.111-.003.202.089.207.183z" transform="matrix(45.8333 0 0 45.8333 116.35 76.12)"/><path d="m.519-.182c-.023.065-.092.127-.195.128-.116 0-.212-.088-.212-.215 0-.062.025-.12.061-.155.045-.042.089-.061.152-.061.076 0 .161.042.195.133h.076c-.037-.129-.153-.201-.274-.201-.163 0-.284.125-.284.284 0 .144.107.284.289.284.129 0 .234-.083.269-.197z" transform="matrix(45.8333 0 0 45.8333 145.13 76.12)"/><path d="m.114 0h.073v-.479h.118v-.059h-.118v-.202h-.073v.202h-.106v.059h.106z" transform="matrix(45.8333 0 0 45.8333 174.01 76.12)"/><path d="m.612-.538h-.074v.113c-.026-.061-.105-.128-.22-.128-.164 0-.279.126-.279.284 0 .148.104.284.279.284.096 0 .178-.045.22-.126v.111h.074zm-.5.269c0-.12.09-.216.214-.216.095 0 .167.055.197.129.012.026.018.056.017.086 0 .029-.006.059-.018.085-.029.076-.099.131-.194.131-.148 0-.215-.117-.216-.214z" transform="matrix(45.8333 0 0 45.8333 187.02 76.12)"/><path d="m234.8699976 42.203358h3.3916642v33.916642h-3.3916642z" stroke-width="45.8333"/><path d="m.612-.538h-.074v.113c-.026-.061-.105-.128-.22-.128-.164 0-.279.126-.279.284 0 .148.104.284.279.284.096 0 .178-.045.22-.126v.111h.074zm-.5.269c0-.12.09-.216.214-.216.095 0 .167.055.197.129.012.026.018.056.017.086 0 .029-.006.059-.018.085-.029.076-.099.131-.194.131-.148 0-.215-.117-.216-.214z" transform="matrix(45.8333 0 0 45.8333 241.52 76.12)"/><path d="m.387-.403c-.005-.109-.089-.15-.164-.15-.091 0-.168.057-.168.154.002.085.062.116.139.139.093.027.133.052.135.113.001.055-.042.101-.104.101-.054 0-.109-.033-.112-.107h-.073c.001.113.097.168.184.168.102 0 .182-.072.178-.171-.004-.115-.09-.137-.167-.158-.065-.019-.104-.04-.106-.091-.002-.047.034-.087.093-.087.054 0 .092.032.092.089z" transform="matrix(45.8333 0 0 45.8333 272.87 76.12)"/><path d="m.072 0h.074v-.304c0-.112.064-.179.175-.18.121-.002.173.077.173.193v.291h.073v-.306c0-.131-.059-.245-.226-.247-.096-.002-.169.041-.2.111.001-.036.001-.066.001-.096h-.07z" transform="matrix(45.8333 0 0 45.8333 306.69 76.12)"/><path d="m.595-.248c.008-.086-.022-.169-.084-.229-.051-.049-.121-.076-.197-.076-.161 0-.283.127-.283.285 0 .134.097.283.284.283.055 0 .108-.015.153-.044.046-.029.084-.073.109-.131h-.077c-.035.07-.102.111-.185.111-.091.001-.206-.064-.21-.199zm-.489-.059c.007-.098.093-.183.209-.183.111-.003.202.089.207.183z" transform="matrix(45.8333 0 0 45.8333 335.94 76.12)"/><path d="m.567-.538h-.074v.304c0 .112-.064.179-.176.18-.121.001-.173-.077-.173-.193v-.291h-.073v.305c0 .131.059.245.227.248.096.001.169-.041.199-.111v.096h.07z" transform="matrix(45.8333 0 0 45.8333 364.72 76.12)"/><path d="m.072 0h.073v-.293c0-.122.058-.187.162-.187h.007v-.073c-.063.002-.133.023-.172.103v-.088h-.07z" transform="matrix(45.8333 0 0 45.8333 394.01 76.12)"/><path d="m.039-.269c0 .151.112.283.285.283.174 0 .286-.132.286-.283s-.112-.284-.286-.284c-.173 0-.285.133-.285.283zm.073 0c0-.123.093-.215.212-.215.12 0 .212.092.212.215s-.092.215-.212.215c-.119 0-.212-.092-.212-.214z" transform="matrix(45.8333 0 0 45.8333 406.84 76.12)"/><path d="m.072 0h.074v-.304c0-.112.064-.179.175-.18.121-.002.173.077.173.193v.291h.073v-.306c0-.131-.059-.245-.226-.247-.096-.002-.169.041-.2.111.001-.036.001-.066.001-.096h-.07z" transform="matrix(45.8333 0 0 45.8333 436.58 76.12)"/><path d="m.612-.538h-.074v.113c-.026-.061-.105-.128-.22-.128-.164 0-.279.126-.279.284 0 .148.104.284.279.284.096 0 .178-.045.22-.126v.111h.074zm-.5.269c0-.12.09-.216.214-.216.095 0 .167.055.197.129.012.026.018.056.017.086 0 .029-.006.059-.018.085-.029.076-.099.131-.194.131-.148 0-.215-.117-.216-.214z" transform="matrix(45.8333 0 0 45.8333 465.83 76.12)"/><path d="m.387-.403c-.005-.109-.089-.15-.164-.15-.091 0-.168.057-.168.154.002.085.062.116.139.139.093.027.133.052.135.113.001.055-.042.101-.104.101-.054 0-.109-.033-.112-.107h-.073c.001.113.097.168.184.168.102 0 .182-.072.178-.171-.004-.115-.09-.137-.167-.158-.065-.019-.104-.04-.106-.091-.002-.047.034-.087.093-.087.054 0 .092.032.092.089z" transform="matrix(45.8333 0 0 45.8333 497.18 76.12)"/><path d="m.185-.111h-.079l-.063.186h.067z" transform="matrix(45.8333 0 0 45.8333 517.25 76.12)"/><path d="m.039-.269c0 .151.112.283.285.283.174 0 .286-.132.286-.283s-.112-.284-.286-.284c-.173 0-.285.133-.285.283zm.073 0c0-.123.093-.215.212-.215.12 0 .212.092.212.215s-.092.215-.212.215c-.119 0-.212-.092-.212-.214z" transform="matrix(45.8333 0 0 45.8333 26.84 134.46)"/><path d="m.519-.182c-.023.065-.092.127-.195.128-.116 0-.212-.088-.212-.215 0-.062.025-.12.061-.155.045-.042.089-.061.152-.061.076 0 .161.042.195.133h.076c-.037-.129-.153-.201-.274-.201-.163 0-.284.125-.284.284 0 .144.107.284.289.284.129 0 .234-.083.269-.197z" transform="matrix(45.8333 0 0 45.8333 56.58 134.46)"/><path d="m.612-.538h-.074v.113c-.026-.061-.105-.128-.22-.128-.164 0-.279.126-.279.284 0 .148.104.284.279.284.096 0 .178-.045.22-.126v.111h.074zm-.5.269c0-.12.09-.216.214-.216.095 0 .167.055.197.129.012.026.018.056.017.086 0 .029-.006.059-.018.085-.029.076-.099.131-.194.131-.148 0-.215-.117-.216-.214z" transform="matrix(45.8333 0 0 45.8333 85.46 134.46)"/><path d="m.387-.403c-.005-.109-.089-.15-.164-.15-.091 0-.168.057-.168.154.002.085.062.116.139.139.093.027.133.052.135.113.001.055-.042.101-.104.101-.054 0-.109-.033-.112-.107h-.073c.001.113.097.168.184.168.102 0 .182-.072.178-.171-.004-.115-.09-.137-.167-.158-.065-.019-.104-.04-.106-.091-.002-.047.034-.087.093-.087.054 0 .092.032.092.089z" transform="matrix(45.8333 0 0 45.8333 116.81 134.46)"/><path d="m.072-.637h.074v-.103h-.074zm0 .637h.074v-.538h-.074z" transform="matrix(45.8333 0 0 45.8333 137.43 134.46)"/><path d="m.039-.269c0 .151.112.283.285.283.174 0 .286-.132.286-.283s-.112-.284-.286-.284c-.173 0-.285.133-.285.283zm.073 0c0-.123.093-.215.212-.215.12 0 .212.092.212.215s-.092.215-.212.215c-.119 0-.212-.092-.212-.214z" transform="matrix(45.8333 0 0 45.8333 147.43 134.46)"/><path d="m.072 0h.074v-.304c0-.112.064-.179.175-.18.121-.002.173.077.173.193v.291h.073v-.306c0-.131-.059-.245-.226-.247-.096-.002-.169.041-.2.111.001-.036.001-.066.001-.096h-.07z" transform="matrix(45.8333 0 0 45.8333 177.17 134.46)"/><path d="m.612-.538h-.074v.113c-.026-.061-.105-.128-.22-.128-.164 0-.279.126-.279.284 0 .148.104.284.279.284.096 0 .178-.045.22-.126v.111h.074zm-.5.269c0-.12.09-.216.214-.216.095 0 .167.055.197.129.012.026.018.056.017.086 0 .029-.006.059-.018.085-.029.076-.099.131-.194.131-.148 0-.215-.117-.216-.214z" transform="matrix(45.8333 0 0 45.8333 206.41 134.46)"/><path d="m.072 0h.074v-.304c0-.112.064-.179.175-.18.121-.002.173.077.173.193v.291h.073v-.306c0-.131-.059-.245-.226-.247-.096-.002-.169.041-.2.111.001-.036.001-.066.001-.096h-.07z" transform="matrix(45.8333 0 0 45.8333 237.76 134.46)"/><path d="m.61-.74h-.074v.311c-.024-.056-.102-.124-.22-.124-.161 0-.277.123-.277.283 0 .151.106.285.278.285.112 0 .184-.055.222-.126v.111h.071zm-.498.47c0-.121.091-.215.215-.215.06 0 .114.023.152.062.039.038.062.09.062.151.002.06-.021.115-.06.155-.038.039-.093.063-.153.063-.14 0-.215-.107-.216-.215z" transform="matrix(45.8333 0 0 45.8333 267 134.46)"/><path d="m.039-.269c0 .151.112.283.285.283.174 0 .286-.132.286-.283s-.112-.284-.286-.284c-.173 0-.285.133-.285.283zm.073 0c0-.123.093-.215.212-.215.12 0 .212.092.212.215s-.092.215-.212.215c-.119 0-.212-.092-.212-.214z" transform="matrix(45.8333 0 0 45.8333 298.35 134.46)"/><path d="m.072 0h.073v-.293c0-.122.058-.187.162-.187h.007v-.073c-.063.002-.133.023-.172.103v-.088h-.07z" transform="matrix(45.8333 0 0 45.8333 341.3 134.46)"/><path d="m.595-.248c.008-.086-.022-.169-.084-.229-.051-.049-.121-.076-.197-.076-.161 0-.283.127-.283.285 0 .134.097.283.284.283.055 0 .108-.015.153-.044.046-.029.084-.073.109-.131h-.077c-.035.07-.102.111-.185.111-.091.001-.206-.064-.21-.199zm-.489-.059c.007-.098.093-.183.209-.183.111-.003.202.089.207.183z" transform="matrix(45.8333 0 0 45.8333 354.32 134.46)"/><path d="m.61-.74h-.074v.311c-.024-.056-.102-.124-.22-.124-.161 0-.277.123-.277.283 0 .151.106.285.278.285.112 0 .184-.055.222-.126v.111h.071zm-.498.47c0-.121.091-.215.215-.215.06 0 .114.023.152.062.039.038.062.09.062.151.002.06-.021.115-.06.155-.038.039-.093.063-.153.063-.14 0-.215-.107-.216-.215z" transform="matrix(45.8333 0 0 45.8333 383.1 134.46)"/><path d="m.567-.538h-.074v.304c0 .112-.064.179-.176.18-.121.001-.173-.077-.173-.193v-.291h-.073v.305c0 .131.059.245.227.248.096.001.169-.041.199-.111v.096h.07z" transform="matrix(45.8333 0 0 45.8333 414.45 134.46)"/><path d="m.519-.182c-.023.065-.092.127-.195.128-.116 0-.212-.088-.212-.215 0-.062.025-.12.061-.155.045-.042.089-.061.152-.061.076 0 .161.042.195.133h.076c-.037-.129-.153-.201-.274-.201-.163 0-.284.125-.284.284 0 .144.107.284.289.284.129 0 .234-.083.269-.197z" transform="matrix(45.8333 0 0 45.8333 443.74 134.46)"/><path d="m.519-.182c-.023.065-.092.127-.195.128-.116 0-.212-.088-.212-.215 0-.062.025-.12.061-.155.045-.042.089-.061.152-.061.076 0 .161.042.195.133h.076c-.037-.129-.153-.201-.274-.201-.163 0-.284.125-.284.284 0 .144.107.284.289.284.129 0 .234-.083.269-.197z" transform="matrix(45.8333 0 0 45.8333 472.61 134.46)"/><path d="m.072-.637h.074v-.103h-.074zm0 .637h.074v-.538h-.074z" transform="matrix(45.8333 0 0 45.8333 501.48 134.46)"/><path d="m.039-.269c0 .151.112.283.285.283.174 0 .286-.132.286-.283s-.112-.284-.286-.284c-.173 0-.285.133-.285.283zm.073 0c0-.123.093-.215.212-.215.12 0 .212.092.212.215s-.092.215-.212.215c-.119 0-.212-.092-.212-.214zm.089-.379.024.048.241-.129-.027-.054z" transform="matrix(45.8333 0 0 45.8333 511.48 134.46)"/><path d="m.072 0h.074v-.304c0-.112.064-.179.175-.18.121-.002.173.077.173.193v.291h.073v-.306c0-.131-.059-.245-.226-.247-.096-.002-.169.041-.2.111.001-.036.001-.066.001-.096h-.07z" transform="matrix(45.8333 0 0 45.8333 541.22 134.46)"/><path d="m.61-.74h-.074v.311c-.024-.056-.102-.124-.22-.124-.161 0-.277.123-.277.283 0 .151.106.285.278.285.112 0 .184-.055.222-.126v.111h.071zm-.498.47c0-.121.091-.215.215-.215.06 0 .114.023.152.062.039.038.062.09.062.151.002.06-.021.115-.06.155-.038.039-.093.063-.153.063-.14 0-.215-.107-.216-.215z" transform="matrix(45.8333 0 0 45.8333 9.33 192.79)"/><path d="m.595-.248c.008-.086-.022-.169-.084-.229-.051-.049-.121-.076-.197-.076-.161 0-.283.127-.283.285 0 .134.097.283.284.283.055 0 .108-.015.153-.044.046-.029.084-.073.109-.131h-.077c-.035.07-.102.111-.185.111-.091.001-.206-.064-.21-.199zm-.489-.059c.007-.098.093-.183.209-.183.111-.003.202.089.207.183z" transform="matrix(45.8333 0 0 45.8333 40.68 192.79)"/><path d="m85.9599976 158.873358h3.3916642v33.916642h-3.3916642z" stroke-width="45.8333"/><path d="m.612-.538h-.074v.113c-.026-.061-.105-.128-.22-.128-.164 0-.279.126-.279.284 0 .148.104.284.279.284.096 0 .178-.045.22-.126v.111h.074zm-.5.269c0-.12.09-.216.214-.216.095 0 .167.055.197.129.012.026.018.056.017.086 0 .029-.006.059-.018.085-.029.076-.099.131-.194.131-.148 0-.215-.117-.216-.214z" transform="matrix(45.8333 0 0 45.8333 92.61 192.79)"/><path d="m.072 0h.074v-.3c0-.057.013-.098.036-.129.022-.032.064-.057.114-.055.055.001.093.022.118.057.021.033.03.068.028.128v.299h.074v-.299c0-.061.005-.091.032-.129.025-.037.071-.056.118-.056.051 0 .085.017.107.045.031.035.04.086.04.143v.296h.074v-.299c0-.095-.014-.153-.061-.2-.037-.038-.09-.054-.145-.054-.06 0-.113.023-.148.06-.02.021-.031.042-.039.057-.003-.006-.021-.042-.035-.056-.038-.043-.091-.061-.147-.061-.061 0-.136.032-.17.1v-.085h-.07z" transform="matrix(45.8333 0 0 45.8333 137.16 192.79)"/><path d="m.595-.248c.008-.086-.022-.169-.084-.229-.051-.049-.121-.076-.197-.076-.161 0-.283.127-.283.285 0 .134.097.283.284.283.055 0 .108-.015.153-.044.046-.029.084-.073.109-.131h-.077c-.035.07-.102.111-.185.111-.091.001-.206-.064-.21-.199zm-.489-.059c.007-.098.093-.183.209-.183.111-.003.202.089.207.183z" transform="matrix(45.8333 0 0 45.8333 180.98 192.79)"/><path d="m.072 0h.074v-.3c0-.057.013-.098.036-.129.022-.032.064-.057.114-.055.055.001.093.022.118.057.021.033.03.068.028.128v.299h.074v-.299c0-.061.005-.091.032-.129.025-.037.071-.056.118-.056.051 0 .085.017.107.045.031.035.04.086.04.143v.296h.074v-.299c0-.095-.014-.153-.061-.2-.037-.038-.09-.054-.145-.054-.06 0-.113.023-.148.06-.02.021-.031.042-.039.057-.003-.006-.021-.042-.035-.056-.038-.043-.091-.061-.147-.061-.061 0-.136.032-.17.1v-.085h-.07z" transform="matrix(45.8333 0 0 45.8333 209.76 192.79)"/><path d="m.039-.269c0 .151.112.283.285.283.174 0 .286-.132.286-.283s-.112-.284-.286-.284c-.173 0-.285.133-.285.283zm.073 0c0-.123.093-.215.212-.215.12 0 .212.092.212.215s-.092.215-.212.215c-.119 0-.212-.092-.212-.214z" transform="matrix(45.8333 0 0 45.8333 253.57 192.79)"/><path d="m.072 0h.073v-.293c0-.122.058-.187.162-.187h.007v-.073c-.063.002-.133.023-.172.103v-.088h-.07z" transform="matrix(45.8333 0 0 45.8333 283.32 192.79)"/><path d="m.072-.637h.074v-.103h-.074zm0 .637h.074v-.538h-.074z" transform="matrix(45.8333 0 0 45.8333 298.08 192.79)"/><path d="m.612-.538h-.074v.113c-.026-.061-.105-.128-.22-.128-.164 0-.279.126-.279.284 0 .148.104.284.279.284.096 0 .178-.045.22-.126v.111h.074zm-.5.269c0-.12.09-.216.214-.216.095 0 .167.055.197.129.012.026.018.056.017.086 0 .029-.006.059-.018.085-.029.076-.099.131-.194.131-.148 0-.215-.117-.216-.214z" transform="matrix(45.8333 0 0 45.8333 308.07 192.79)"/><path d="m.185-.111h-.079l-.063.186h.067z" transform="matrix(45.8333 0 0 45.8333 339.42 192.79)"/><path d="m.519-.182c-.023.065-.092.127-.195.128-.116 0-.212-.088-.212-.215 0-.062.025-.12.061-.155.045-.042.089-.061.152-.061.076 0 .161.042.195.133h.076c-.037-.129-.153-.201-.274-.201-.163 0-.284.125-.284.284 0 .144.107.284.289.284.129 0 .234-.083.269-.197z" transform="matrix(45.8333 0 0 45.8333 360.5 192.79)"/><path d="m.039-.269c0 .151.112.283.285.283.174 0 .286-.132.286-.283s-.112-.284-.286-.284c-.173 0-.285.133-.285.283zm.073 0c0-.123.093-.215.212-.215.12 0 .212.092.212.215s-.092.215-.212.215c-.119 0-.212-.092-.212-.214z" transform="matrix(45.8333 0 0 45.8333 389.38 192.79)"/><path d="m.072 0h.074v-.304c0-.112.064-.179.175-.18.121-.002.173.077.173.193v.291h.073v-.306c0-.131-.059-.245-.226-.247-.096-.002-.169.041-.2.111.001-.036.001-.066.001-.096h-.07z" transform="matrix(45.8333 0 0 45.8333 419.12 192.79)"/><path d="m.085 0h.073v-.479h.116v-.059h-.116v-.037c0-.117.079-.117.116-.119v-.059c-.058 0-.189.005-.189.171v.044h-.079v.059h.079z" transform="matrix(45.8333 0 0 45.8333 448.36 192.79)"/><path d="m.567-.538h-.074v.304c0 .112-.064.179-.176.18-.121.001-.173-.077-.173-.193v-.291h-.073v.305c0 .131.059.245.227.248.096.001.169-.041.199-.111v.096h.07z" transform="matrix(45.8333 0 0 45.8333 461.2 192.79)"/><path d="m.387-.403c-.005-.109-.089-.15-.164-.15-.091 0-.168.057-.168.154.002.085.062.116.139.139.093.027.133.052.135.113.001.055-.042.101-.104.101-.054 0-.109-.033-.112-.107h-.073c.001.113.097.168.184.168.102 0 .182-.072.178-.171-.004-.115-.09-.137-.167-.158-.065-.019-.104-.04-.106-.091-.002-.047.034-.087.093-.087.054 0 .092.032.092.089z" transform="matrix(45.8333 0 0 45.8333 490.49 192.79)"/><path d="m.072-.637h.074v-.103h-.074zm0 .637h.074v-.538h-.074z" transform="matrix(45.8333 0 0 45.8333 511.11 192.79)"/><path d="m.039-.269c0 .151.112.283.285.283.174 0 .286-.132.286-.283s-.112-.284-.286-.284c-.173 0-.285.133-.285.283zm.073 0c0-.123.093-.215.212-.215.12 0 .212.092.212.215s-.092.215-.212.215c-.119 0-.212-.092-.212-.214zm.089-.379.024.048.241-.129-.027-.054z" transform="matrix(45.8333 0 0 45.8333 521.1 192.79)"/><path d="m.072 0h.074v-.304c0-.112.064-.179.175-.18.121-.002.173.077.173.193v.291h.073v-.306c0-.131-.059-.245-.226-.247-.096-.002-.169.041-.2.111.001-.036.001-.066.001-.096h-.07z" transform="matrix(45.8333 0 0 45.8333 550.85 192.79)"/><path d="m.185-.111h-.079l-.063.186h.067z" transform="matrix(45.8333 0 0 45.8333 580.09 192.79)"/><path d="m.595-.248c.008-.086-.022-.169-.084-.229-.051-.049-.121-.076-.197-.076-.161 0-.283.127-.283.285 0 .134.097.283.284.283.055 0 .108-.015.153-.044.046-.029.084-.073.109-.131h-.077c-.035.07-.102.111-.185.111-.091.001-.206-.064-.21-.199zm-.489-.059c.007-.098.093-.183.209-.183.111-.003.202.089.207.183z" transform="matrix(45.8333 0 0 45.8333 114.75 251.12)"/><path d="m.072 0h.074v-.304c0-.112.064-.179.175-.18.121-.002.173.077.173.193v.291h.073v-.306c0-.131-.059-.245-.226-.247-.096-.002-.169.041-.2.111.001-.036.001-.066.001-.096h-.07z" transform="matrix(45.8333 0 0 45.8333 143.53 251.12)"/><path d="m.114 0h.073v-.479h.118v-.059h-.118v-.202h-.073v.202h-.106v.059h.106z" transform="matrix(45.8333 0 0 45.8333 172.77 251.12)"/><path d="m.567-.538h-.074v.304c0 .112-.064.179-.176.18-.121.001-.173-.077-.173-.193v-.291h-.073v.305c0 .131.059.245.227.248.096.001.169-.041.199-.111v.096h.07z" transform="matrix(45.8333 0 0 45.8333 187.16 251.12)"/><path d="m.072 0h.074v-.3c0-.057.013-.098.036-.129.022-.032.064-.057.114-.055.055.001.093.022.118.057.021.033.03.068.028.128v.299h.074v-.299c0-.061.005-.091.032-.129.025-.037.071-.056.118-.056.051 0 .085.017.107.045.031.035.04.086.04.143v.296h.074v-.299c0-.095-.014-.153-.061-.2-.037-.038-.09-.054-.145-.054-.06 0-.113.023-.148.06-.02.021-.031.042-.039.057-.003-.006-.021-.042-.035-.056-.038-.043-.091-.061-.147-.061-.061 0-.136.032-.17.1v-.085h-.07z" transform="matrix(45.8333 0 0 45.8333 216.45 251.12)"/><path d="m.595-.248c.008-.086-.022-.169-.084-.229-.051-.049-.121-.076-.197-.076-.161 0-.283.127-.283.285 0 .134.097.283.284.283.055 0 .108-.015.153-.044.046-.029.084-.073.109-.131h-.077c-.035.07-.102.111-.185.111-.091.001-.206-.064-.21-.199zm-.489-.059c.007-.098.093-.183.209-.183.111-.003.202.089.207.183z" transform="matrix(45.8333 0 0 45.8333 260.27 251.12)"/><path d="m.519-.182c-.023.065-.092.127-.195.128-.116 0-.212-.088-.212-.215 0-.062.025-.12.061-.155.045-.042.089-.061.152-.061.076 0 .161.042.195.133h.076c-.037-.129-.153-.201-.274-.201-.163 0-.284.125-.284.284 0 .144.107.284.289.284.129 0 .234-.083.269-.197z" transform="matrix(45.8333 0 0 45.8333 289.05 251.12)"/><path d="m.072-.637h.074v-.103h-.074zm0 .637h.074v-.538h-.074z" transform="matrix(45.8333 0 0 45.8333 317.92 251.12)"/><path d="m.072 0h.074v-.3c0-.057.013-.098.036-.129.022-.032.064-.057.114-.055.055.001.093.022.118.057.021.033.03.068.028.128v.299h.074v-.299c0-.061.005-.091.032-.129.025-.037.071-.056.118-.056.051 0 .085.017.107.045.031.035.04.086.04.143v.296h.074v-.299c0-.095-.014-.153-.061-.2-.037-.038-.09-.054-.145-.054-.06 0-.113.023-.148.06-.02.021-.031.042-.039.057-.003-.006-.021-.042-.035-.056-.038-.043-.091-.061-.147-.061-.061 0-.136.032-.17.1v-.085h-.07z" transform="matrix(45.8333 0 0 45.8333 327.92 251.12)"/><path d="m.072-.637h.074v-.103h-.074zm0 .637h.074v-.538h-.074z" transform="matrix(45.8333 0 0 45.8333 371.73 251.12)"/><path d="m.595-.248c.008-.086-.022-.169-.084-.229-.051-.049-.121-.076-.197-.076-.161 0-.283.127-.283.285 0 .134.097.283.284.283.055 0 .108-.015.153-.044.046-.029.084-.073.109-.131h-.077c-.035.07-.102.111-.185.111-.091.001-.206-.064-.21-.199zm-.489-.059c.007-.098.093-.183.209-.183.111-.003.202.089.207.183z" transform="matrix(45.8333 0 0 45.8333 381.72 251.12)"/><path d="m.072 0h.074v-.304c0-.112.064-.179.175-.18.121-.002.173.077.173.193v.291h.073v-.306c0-.131-.059-.245-.226-.247-.096-.002-.169.041-.2.111.001-.036.001-.066.001-.096h-.07z" transform="matrix(45.8333 0 0 45.8333 410.51 251.12)"/><path d="m.114 0h.073v-.479h.118v-.059h-.118v-.202h-.073v.202h-.106v.059h.106z" transform="matrix(45.8333 0 0 45.8333 439.75 251.12)"/><path d="m.039-.269c0 .151.112.283.285.283.174 0 .286-.132.286-.283s-.112-.284-.286-.284c-.173 0-.285.133-.285.283zm.073 0c0-.123.093-.215.212-.215.12 0 .212.092.212.215s-.092.215-.212.215c-.119 0-.212-.092-.212-.214z" transform="matrix(45.8333 0 0 45.8333 452.76 251.12)"/><path d="m.595-.248c.008-.086-.022-.169-.084-.229-.051-.049-.121-.076-.197-.076-.161 0-.283.127-.283.285 0 .134.097.283.284.283.055 0 .108-.015.153-.044.046-.029.084-.073.109-.131h-.077c-.035.07-.102.111-.185.111-.091.001-.206-.064-.21-.199zm-.489-.059c.007-.098.093-.183.209-.183.111-.003.202.089.207.183z" transform="matrix(45.8333 0 0 45.8333 78.95 309.46)"/><path d="m.072 0h.074v-.304c0-.112.064-.179.175-.18.121-.002.173.077.173.193v.291h.073v-.306c0-.131-.059-.245-.226-.247-.096-.002-.169.041-.2.111.001-.036.001-.066.001-.096h-.07z" transform="matrix(45.8333 0 0 45.8333 107.73 309.46)"/><path d="m.072 0h.071v-.111c.04.077.119.126.22.126.163 0 .279-.123.279-.285 0-.168-.124-.283-.277-.283-.093.001-.174.047-.219.123v-.31h-.074zm.496-.269c0 .104-.073.215-.216.215-.125 0-.21-.099-.21-.216 0-.119.089-.215.213-.215.12 0 .213.092.213.215z" transform="matrix(45.8333 0 0 45.8333 150.18 309.46)"/><path d="m.072 0h.073v-.293c0-.122.058-.187.162-.187h.007v-.073c-.063.002-.133.023-.172.103v-.088h-.07z" transform="matrix(45.8333 0 0 45.8333 181.34 309.46)"/><path d="m.612-.538h-.074v.113c-.026-.061-.105-.128-.22-.128-.164 0-.279.126-.279.284 0 .148.104.284.279.284.096 0 .178-.045.22-.126v.111h.074zm-.5.269c0-.12.09-.216.214-.216.095 0 .167.055.197.129.012.026.018.056.017.086 0 .029-.006.059-.018.085-.029.076-.099.131-.194.131-.148 0-.215-.117-.216-.214z" transform="matrix(45.8333 0 0 45.8333 194.18 309.46)"/><path d="m.013 0h.392v-.059h-.303l.292-.419v-.06h-.369v.059h.286l-.298.425z" transform="matrix(45.8333 0 0 45.8333 225.52 309.46)"/><path d="m.039-.269c0 .151.112.283.285.283.174 0 .286-.132.286-.283s-.112-.284-.286-.284c-.173 0-.285.133-.285.283zm.073 0c0-.123.093-.215.212-.215.12 0 .212.092.212.215s-.092.215-.212.215c-.119 0-.212-.092-.212-.214z" transform="matrix(45.8333 0 0 45.8333 244.73 309.46)"/><path d="m.387-.403c-.005-.109-.089-.15-.164-.15-.091 0-.168.057-.168.154.002.085.062.116.139.139.093.027.133.052.135.113.001.055-.042.101-.104.101-.054 0-.109-.033-.112-.107h-.073c.001.113.097.168.184.168.102 0 .182-.072.178-.171-.004-.115-.09-.137-.167-.158-.065-.019-.104-.04-.106-.091-.002-.047.034-.087.093-.087.054 0 .092.032.092.089z" transform="matrix(45.8333 0 0 45.8333 274.47 309.46)"/><path d="m.124.204h.08l.307-.742h-.081l-.174.435-.169-.435h-.079l.208.528z" transform="matrix(45.8333 0 0 45.8333 308.3 309.46)"/><path d="m.072.204h.074v-.314c.025.056.102.125.221.125.167 0 .276-.132.276-.282 0-.139-.095-.286-.276-.286-.103 0-.181.049-.225.127v-.112h-.07zm.497-.473c0 .123-.093.215-.214.215-.06 0-.114-.023-.152-.061-.039-.039-.062-.093-.062-.153 0-.061.023-.115.06-.154.039-.039.092-.063.152-.063.145 0 .216.114.216.215z" transform="matrix(45.8333 0 0 45.8333 344.97 309.46)"/><path d="m.072-.637h.074v-.103h-.074zm0 .637h.074v-.538h-.074z" transform="matrix(45.8333 0 0 45.8333 376.32 309.46)"/><path d="m.595-.248c.008-.086-.022-.169-.084-.229-.051-.049-.121-.076-.197-.076-.161 0-.283.127-.283.285 0 .134.097.283.284.283.055 0 .108-.015.153-.044.046-.029.084-.073.109-.131h-.077c-.035.07-.102.111-.185.111-.091.001-.206-.064-.21-.199zm-.489-.059c.007-.098.093-.183.209-.183.111-.003.202.089.207.183z" transform="matrix(45.8333 0 0 45.8333 386.31 309.46)"/><path d="m.072 0h.073v-.293c0-.122.058-.187.162-.187h.007v-.073c-.063.002-.133.023-.172.103v-.088h-.07z" transform="matrix(45.8333 0 0 45.8333 415.09 309.46)"/><path d="m.072 0h.074v-.304c0-.112.064-.179.175-.18.121-.002.173.077.173.193v.291h.073v-.306c0-.131-.059-.245-.226-.247-.096-.002-.169.041-.2.111.001-.036.001-.066.001-.096h-.07z" transform="matrix(45.8333 0 0 45.8333 429.85 309.46)"/><path d="m.612-.538h-.074v.113c-.026-.061-.105-.128-.22-.128-.164 0-.279.126-.279.284 0 .148.104.284.279.284.096 0 .178-.045.22-.126v.111h.074zm-.5.269c0-.12.09-.216.214-.216.095 0 .167.055.197.129.012.026.018.056.017.086 0 .029-.006.059-.018.085-.029.076-.099.131-.194.131-.148 0-.215-.117-.216-.214z" transform="matrix(45.8333 0 0 45.8333 459.09 309.46)"/><path d="m.387-.403c-.005-.109-.089-.15-.164-.15-.091 0-.168.057-.168.154.002.085.062.116.139.139.093.027.133.052.135.113.001.055-.042.101-.104.101-.054 0-.109-.033-.112-.107h-.073c.001.113.097.168.184.168.102 0 .182-.072.178-.171-.004-.115-.09-.137-.167-.158-.065-.019-.104-.04-.106-.091-.002-.047.034-.087.093-.087.054 0 .092.032.092.089z" transform="matrix(45.8333 0 0 45.8333 490.44 309.46)"/><path d="m515.3283298 304.418337h3.5749974v5.041663h-3.5749974z" stroke-width="45.8333"/></g></svg>