<svg clip-rule="evenodd" fill-rule="evenodd" stroke-linejoin="round" stroke-miterlimit="2" viewBox="0 0 601 328" xmlns="http://www.w3.org/2000/svg"><g fill-rule="nonzero"><path d="m0 54.81v-54.809c0-6.516 7.192-11.818 16.032-11.818h41.424c.782 0 1.416.468 1.416 1.044 0 .575-.634 1.043-1.416 1.043h-41.424c-7.279 0-13.201 4.365-13.201 9.731v54.809c0 5.366 5.922 9.731 13.201 9.731h112.144c7.28 0 13.202-4.365 13.202-9.731v-54.809c0-5.366-5.922-9.731-13.202-9.731h-36.581c-.781 0-1.415-.468-1.415-1.043 0-.576.634-1.044 1.415-1.044h36.581c8.841 0 16.033 5.302 16.033 11.818v54.809c0 6.516-7.192 11.817-16.033 11.817h-112.144c-8.84 0-16.032-5.301-16.032-11.817" fill="#00b7c5" transform="matrix(4.16667 0 0 4.16667 .1 50.06)"/><g fill="#00b7c6"><path d="m.182-.208h.345l.086.208h.09l-.306-.74h-.08l-.309.74h.089zm.32-.068h-.295l.147-.371z" transform="matrix(45.8333 0 0 45.8333 36.65 106.84)"/><path d="m.085 0h.073v-.479h.116v-.059h-.116v-.037c0-.117.079-.117.116-.119v-.059c-.058 0-.189.005-.189.171v.044h-.079v.059h.079z" transform="matrix(45.8333 0 0 45.8333 69.23 106.84)"/><path d="m.595-.248c.008-.086-.022-.169-.084-.229-.051-.049-.121-.076-.197-.076-.161 0-.283.127-.283.285 0 .134.097.283.284.283.055 0 .108-.015.153-.044.046-.029.084-.073.109-.131h-.077c-.035.07-.102.111-.185.111-.091.001-.206-.064-.21-.199zm-.489-.059c.007-.098.093-.183.209-.183.111-.003.202.089.207.183z" transform="matrix(45.8333 0 0 45.8333 80.83 106.84)"/><path d="m.519-.182c-.023.065-.092.127-.195.128-.116 0-.212-.088-.212-.215 0-.062.025-.12.061-.155.045-.042.089-.061.152-.061.076 0 .161.042.195.133h.076c-.037-.129-.153-.201-.274-.201-.163 0-.284.125-.284.284 0 .144.107.284.289.284.129 0 .234-.083.269-.197z" transform="matrix(45.8333 0 0 45.8333 109.61 106.84)"/><path d="m.114 0h.073v-.479h.118v-.059h-.118v-.202h-.073v.202h-.106v.059h.106z" transform="matrix(45.8333 0 0 45.8333 138.49 106.84)"/><path d="m.612-.538h-.074v.113c-.026-.061-.105-.128-.22-.128-.164 0-.279.126-.279.284 0 .148.104.284.279.284.096 0 .178-.045.22-.126v.111h.074zm-.5.269c0-.12.09-.216.214-.216.095 0 .167.055.197.129.012.026.018.056.017.086 0 .029-.006.059-.018.085-.029.076-.099.131-.194.131-.148 0-.215-.117-.216-.214z" transform="matrix(45.8333 0 0 45.8333 151.5 106.84)"/><path d="m199.3499976 72.923358h3.3916642v33.916642h-3.3916642z" stroke-width="45.8333"/><path d="m.612-.538h-.074v.113c-.026-.061-.105-.128-.22-.128-.164 0-.279.126-.279.284 0 .148.104.284.279.284.096 0 .178-.045.22-.126v.111h.074zm-.5.269c0-.12.09-.216.214-.216.095 0 .167.055.197.129.012.026.018.056.017.086 0 .029-.006.059-.018.085-.029.076-.099.131-.194.131-.148 0-.215-.117-.216-.214z" transform="matrix(45.8333 0 0 45.8333 206 106.84)"/><path d="m.072 0h.071v-.111c.04.077.119.126.22.126.163 0 .279-.123.279-.285 0-.168-.124-.283-.277-.283-.093.001-.174.047-.219.123v-.31h-.074zm.496-.269c0 .104-.073.215-.216.215-.125 0-.21-.099-.21-.216 0-.119.089-.215.213-.215.12 0 .213.092.213.215z" transform="matrix(45.8333 0 0 45.8333 250.55 106.84)"/><path d="m.612-.538h-.074v.113c-.026-.061-.105-.128-.22-.128-.164 0-.279.126-.279.284 0 .148.104.284.279.284.096 0 .178-.045.22-.126v.111h.074zm-.5.269c0-.12.09-.216.214-.216.095 0 .167.055.197.129.012.026.018.056.017.086 0 .029-.006.059-.018.085-.029.076-.099.131-.194.131-.148 0-.215-.117-.216-.214z" transform="matrix(45.8333 0 0 45.8333 281.72 106.84)"/><path d="m.072 0h.073v-.293c0-.122.058-.187.162-.187h.007v-.073c-.063.002-.133.023-.172.103v-.088h-.07z" transform="matrix(45.8333 0 0 45.8333 313.07 106.84)"/><path d="m.072 0h.073v-.293c0-.122.058-.187.162-.187h.007v-.073c-.063.002-.133.023-.172.103v-.088h-.07z" transform="matrix(45.8333 0 0 45.8333 327.82 106.84)"/><path d="m.595-.248c.008-.086-.022-.169-.084-.229-.051-.049-.121-.076-.197-.076-.161 0-.283.127-.283.285 0 .134.097.283.284.283.055 0 .108-.015.153-.044.046-.029.084-.073.109-.131h-.077c-.035.07-.102.111-.185.111-.091.001-.206-.064-.21-.199zm-.489-.059c.007-.098.093-.183.209-.183.111-.003.202.089.207.183z" transform="matrix(45.8333 0 0 45.8333 340.84 106.84)"/><path d="m.072 0h.073v-.293c0-.122.058-.187.162-.187h.007v-.073c-.063.002-.133.023-.172.103v-.088h-.07z" transform="matrix(45.8333 0 0 45.8333 369.62 106.84)"/><path d="m.612-.538h-.074v.113c-.026-.061-.105-.128-.22-.128-.164 0-.279.126-.279.284 0 .148.104.284.279.284.096 0 .178-.045.22-.126v.111h.074zm-.5.269c0-.12.09-.216.214-.216.095 0 .167.055.197.129.012.026.018.056.017.086 0 .029-.006.059-.018.085-.029.076-.099.131-.194.131-.148 0-.215-.117-.216-.214z" transform="matrix(45.8333 0 0 45.8333 382.46 106.84)"/><path d="m.61-.74h-.074v.311c-.024-.056-.102-.124-.22-.124-.161 0-.277.123-.277.283 0 .151.106.285.278.285.112 0 .184-.055.222-.126v.111h.071zm-.498.47c0-.121.091-.215.215-.215.06 0 .114.023.152.062.039.038.062.09.062.151.002.06-.021.115-.06.155-.038.039-.093.063-.153.063-.14 0-.215-.107-.216-.215z" transform="matrix(45.8333 0 0 45.8333 427.01 106.84)"/><path d="m.595-.248c.008-.086-.022-.169-.084-.229-.051-.049-.121-.076-.197-.076-.161 0-.283.127-.283.285 0 .134.097.283.284.283.055 0 .108-.015.153-.044.046-.029.084-.073.109-.131h-.077c-.035.07-.102.111-.185.111-.091.001-.206-.064-.21-.199zm-.489-.059c.007-.098.093-.183.209-.183.111-.003.202.089.207.183z" transform="matrix(45.8333 0 0 45.8333 458.36 106.84)"/><path d="m503.6399976 72.923358h3.3916642v33.916642h-3.3916642z" stroke-width="45.8333"/><path d="m.039-.269c0 .151.112.283.285.283.174 0 .286-.132.286-.283s-.112-.284-.286-.284c-.173 0-.285.133-.285.283zm.073 0c0-.123.093-.215.212-.215.12 0 .212.092.212.215s-.092.215-.212.215c-.119 0-.212-.092-.212-.214z" transform="matrix(45.8333 0 0 45.8333 510.28 106.84)"/><path d="m.387-.403c-.005-.109-.089-.15-.164-.15-.091 0-.168.057-.168.154.002.085.062.116.139.139.093.027.133.052.135.113.001.055-.042.101-.104.101-.054 0-.109-.033-.112-.107h-.073c.001.113.097.168.184.168.102 0 .182-.072.178-.171-.004-.115-.09-.137-.167-.158-.065-.019-.104-.04-.106-.091-.002-.047.034-.087.093-.087.054 0 .092.032.092.089z" transform="matrix(45.8333 0 0 45.8333 540.03 106.84)"/><path d="m.072-.637h.074v-.103h-.074zm0 .637h.074v-.538h-.074z" transform="matrix(45.8333 0 0 45.8333 47.74 165.17)"/><path d="m.072 0h.074v-.304c0-.112.064-.179.175-.18.121-.002.173.077.173.193v.291h.073v-.306c0-.131-.059-.245-.226-.247-.096-.002-.169.041-.2.111.001-.036.001-.066.001-.096h-.07z" transform="matrix(45.8333 0 0 45.8333 57.73 165.17)"/><path d="m.114 0h.073v-.479h.118v-.059h-.118v-.202h-.073v.202h-.106v.059h.106z" transform="matrix(45.8333 0 0 45.8333 86.97 165.17)"/><path d="m.595-.248c.008-.086-.022-.169-.084-.229-.051-.049-.121-.076-.197-.076-.161 0-.283.127-.283.285 0 .134.097.283.284.283.055 0 .108-.015.153-.044.046-.029.084-.073.109-.131h-.077c-.035.07-.102.111-.185.111-.091.001-.206-.064-.21-.199zm-.489-.059c.007-.098.093-.183.209-.183.111-.003.202.089.207.183z" transform="matrix(45.8333 0 0 45.8333 99.99 165.17)"/><path d="m.387-.403c-.005-.109-.089-.15-.164-.15-.091 0-.168.057-.168.154.002.085.062.116.139.139.093.027.133.052.135.113.001.055-.042.101-.104.101-.054 0-.109-.033-.112-.107h-.073c.001.113.097.168.184.168.102 0 .182-.072.178-.171-.004-.115-.09-.137-.167-.158-.065-.019-.104-.04-.106-.091-.002-.047.034-.087.093-.087.054 0 .092.032.092.089z" transform="matrix(45.8333 0 0 45.8333 128.77 165.17)"/><path d="m.114 0h.073v-.479h.118v-.059h-.118v-.202h-.073v.202h-.106v.059h.106z" transform="matrix(45.8333 0 0 45.8333 149.4 165.17)"/><path d="m.072-.637h.074v-.103h-.074zm0 .637h.074v-.538h-.074z" transform="matrix(45.8333 0 0 45.8333 163.79 165.17)"/><path d="m.072 0h.074v-.304c0-.112.064-.179.175-.18.121-.002.173.077.173.193v.291h.073v-.306c0-.131-.059-.245-.226-.247-.096-.002-.169.041-.2.111.001-.036.001-.066.001-.096h-.07z" transform="matrix(45.8333 0 0 45.8333 173.78 165.17)"/><path d="m.039-.269c0 .151.112.283.285.283.174 0 .286-.132.286-.283s-.112-.284-.286-.284c-.173 0-.285.133-.285.283zm.073 0c0-.123.093-.215.212-.215.12 0 .212.092.212.215s-.092.215-.212.215c-.119 0-.212-.092-.212-.214z" transform="matrix(45.8333 0 0 45.8333 203.02 165.17)"/><path d="m.387-.403c-.005-.109-.089-.15-.164-.15-.091 0-.168.057-.168.154.002.085.062.116.139.139.093.027.133.052.135.113.001.055-.042.101-.104.101-.054 0-.109-.033-.112-.107h-.073c.001.113.097.168.184.168.102 0 .182-.072.178-.171-.004-.115-.09-.137-.167-.158-.065-.019-.104-.04-.106-.091-.002-.047.034-.087.093-.087.054 0 .092.032.092.089z" transform="matrix(45.8333 0 0 45.8333 232.77 165.17)"/><path d="m.185-.111h-.079l-.063.186h.067z" transform="matrix(45.8333 0 0 45.8333 252.84 165.17)"/><path d="m.072.204h.074v-.314c.025.056.102.125.221.125.167 0 .276-.132.276-.282 0-.139-.095-.286-.276-.286-.103 0-.181.049-.225.127v-.112h-.07zm.497-.473c0 .123-.093.215-.214.215-.06 0-.114-.023-.152-.061-.039-.039-.062-.093-.062-.153 0-.061.023-.115.06-.154.039-.039.092-.063.152-.063.145 0 .216.114.216.215z" transform="matrix(45.8333 0 0 45.8333 273.92 165.17)"/><path d="m.072 0h.073v-.293c0-.122.058-.187.162-.187h.007v-.073c-.063.002-.133.023-.172.103v-.088h-.07z" transform="matrix(45.8333 0 0 45.8333 305.27 165.17)"/><path d="m.039-.269c0 .151.112.283.285.283.174 0 .286-.132.286-.283s-.112-.284-.286-.284c-.173 0-.285.133-.285.283zm.073 0c0-.123.093-.215.212-.215.12 0 .212.092.212.215s-.092.215-.212.215c-.119 0-.212-.092-.212-.214z" transform="matrix(45.8333 0 0 45.8333 318.11 165.17)"/><path d="m.509-.538h-.078l-.172.447-.173-.447h-.078l.212.538h.077z" transform="matrix(45.8333 0 0 45.8333 346.71 165.17)"/><path d="m.039-.269c0 .151.112.283.285.283.174 0 .286-.132.286-.283s-.112-.284-.286-.284c-.173 0-.285.133-.285.283zm.073 0c0-.123.093-.215.212-.215.12 0 .212.092.212.215s-.092.215-.212.215c-.119 0-.212-.092-.212-.214z" transform="matrix(45.8333 0 0 45.8333 369.3 165.17)"/><path d="m.519-.182c-.023.065-.092.127-.195.128-.116 0-.212-.088-.212-.215 0-.062.025-.12.061-.155.045-.042.089-.061.152-.061.076 0 .161.042.195.133h.076c-.037-.129-.153-.201-.274-.201-.163 0-.284.125-.284.284 0 .144.107.284.289.284.129 0 .234-.083.269-.197z" transform="matrix(45.8333 0 0 45.8333 399.05 165.17)"/><path d="m.612-.538h-.074v.113c-.026-.061-.105-.128-.22-.128-.164 0-.279.126-.279.284 0 .148.104.284.279.284.096 0 .178-.045.22-.126v.111h.074zm-.5.269c0-.12.09-.216.214-.216.095 0 .167.055.197.129.012.026.018.056.017.086 0 .029-.006.059-.018.085-.029.076-.099.131-.194.131-.148 0-.215-.117-.216-.214z" transform="matrix(45.8333 0 0 45.8333 427.92 165.17)"/><path d="m.072 0h.074v-.304c0-.112.064-.179.175-.18.121-.002.173.077.173.193v.291h.073v-.306c0-.131-.059-.245-.226-.247-.096-.002-.169.041-.2.111.001-.036.001-.066.001-.096h-.07z" transform="matrix(45.8333 0 0 45.8333 459.27 165.17)"/><path d="m.61-.74h-.074v.311c-.024-.056-.102-.124-.22-.124-.161 0-.277.123-.277.283 0 .151.106.285.278.285.112 0 .184-.055.222-.126v.111h.071zm-.498.47c0-.121.091-.215.215-.215.06 0 .114.023.152.062.039.038.062.09.062.151.002.06-.021.115-.06.155-.038.039-.093.063-.153.063-.14 0-.215-.107-.216-.215z" transform="matrix(45.8333 0 0 45.8333 488.51 165.17)"/><path d="m.039-.269c0 .151.112.283.285.283.174 0 .286-.132.286-.283s-.112-.284-.286-.284c-.173 0-.285.133-.285.283zm.073 0c0-.123.093-.215.212-.215.12 0 .212.092.212.215s-.092.215-.212.215c-.119 0-.212-.092-.212-.214z" transform="matrix(45.8333 0 0 45.8333 519.86 165.17)"/><path d="m.61-.538h-.071v.108c-.037-.067-.111-.123-.221-.123-.167 0-.279.128-.279.287 0 .151.109.281.275.281.121 0 .197-.069.222-.124v.313h.074zm-.498.27c.001-.104.072-.217.216-.217.059 0 .114.024.152.064.039.039.062.093.06.153 0 .06-.023.114-.061.152-.039.039-.092.062-.152.062-.124 0-.215-.095-.215-.213z" transform="matrix(45.8333 0 0 45.8333 19.96 223.5)"/><path d="m.567-.538h-.074v.304c0 .112-.064.179-.176.18-.121.001-.173-.077-.173-.193v-.291h-.073v.305c0 .131.059.245.227.248.096.001.169-.041.199-.111v.096h.07z" transform="matrix(45.8333 0 0 45.8333 51.22 223.5)"/><path d="m.595-.248c.008-.086-.022-.169-.084-.229-.051-.049-.121-.076-.197-.076-.161 0-.283.127-.283.285 0 .134.097.283.284.283.055 0 .108-.015.153-.044.046-.029.084-.073.109-.131h-.077c-.035.07-.102.111-.185.111-.091.001-.206-.064-.21-.199zm-.489-.059c.007-.098.093-.183.209-.183.111-.003.202.089.207.183z" transform="matrix(45.8333 0 0 45.8333 80.51 223.5)"/><path d="m.072.204h.074v-.314c.025.056.102.125.221.125.167 0 .276-.132.276-.282 0-.139-.095-.286-.276-.286-.103 0-.181.049-.225.127v-.112h-.07zm.497-.473c0 .123-.093.215-.214.215-.06 0-.114-.023-.152-.061-.039-.039-.062-.093-.062-.153 0-.061.023-.115.06-.154.039-.039.092-.063.152-.063.145 0 .216.114.216.215z" transform="matrix(45.8333 0 0 45.8333 122.49 223.5)"/><path d="m.567-.538h-.074v.304c0 .112-.064.179-.176.18-.121.001-.173-.077-.173-.193v-.291h-.073v.305c0 .131.059.245.227.248.096.001.169-.041.199-.111v.096h.07z" transform="matrix(45.8333 0 0 45.8333 153.84 223.5)"/><path d="m.595-.248c.008-.086-.022-.169-.084-.229-.051-.049-.121-.076-.197-.076-.161 0-.283.127-.283.285 0 .134.097.283.284.283.055 0 .108-.015.153-.044.046-.029.084-.073.109-.131h-.077c-.035.07-.102.111-.185.111-.091.001-.206-.064-.21-.199zm-.489-.059c.007-.098.093-.183.209-.183.111-.003.202.089.207.183z" transform="matrix(45.8333 0 0 45.8333 183.13 223.5)"/><path d="m.61-.74h-.074v.311c-.024-.056-.102-.124-.22-.124-.161 0-.277.123-.277.283 0 .151.106.285.278.285.112 0 .184-.055.222-.126v.111h.071zm-.498.47c0-.121.091-.215.215-.215.06 0 .114.023.152.062.039.038.062.09.062.151.002.06-.021.115-.06.155-.038.039-.093.063-.153.063-.14 0-.215-.107-.216-.215z" transform="matrix(45.8333 0 0 45.8333 211.91 223.5)"/><path d="m.612-.538h-.074v.113c-.026-.061-.105-.128-.22-.128-.164 0-.279.126-.279.284 0 .148.104.284.279.284.096 0 .178-.045.22-.126v.111h.074zm-.5.269c0-.12.09-.216.214-.216.095 0 .167.055.197.129.012.026.018.056.017.086 0 .029-.006.059-.018.085-.029.076-.099.131-.194.131-.148 0-.215-.117-.216-.214z" transform="matrix(45.8333 0 0 45.8333 243.26 223.5)"/><path d="m.072 0h.074v-.304c0-.112.064-.179.175-.18.121-.002.173.077.173.193v.291h.073v-.306c0-.131-.059-.245-.226-.247-.096-.002-.169.041-.2.111.001-.036.001-.066.001-.096h-.07z" transform="matrix(45.8333 0 0 45.8333 274.61 223.5)"/><path d="m.072.204h.074v-.314c.025.056.102.125.221.125.167 0 .276-.132.276-.282 0-.139-.095-.286-.276-.286-.103 0-.181.049-.225.127v-.112h-.07zm.497-.473c0 .123-.093.215-.214.215-.06 0-.114-.023-.152-.061-.039-.039-.062-.093-.062-.153 0-.061.023-.115.06-.154.039-.039.092-.063.152-.063.145 0 .216.114.216.215z" transform="matrix(45.8333 0 0 45.8333 317.05 223.5)"/><path d="m.072 0h.073v-.293c0-.122.058-.187.162-.187h.007v-.073c-.063.002-.133.023-.172.103v-.088h-.07z" transform="matrix(45.8333 0 0 45.8333 348.4 223.5)"/><path d="m.595-.248c.008-.086-.022-.169-.084-.229-.051-.049-.121-.076-.197-.076-.161 0-.283.127-.283.285 0 .134.097.283.284.283.055 0 .108-.015.153-.044.046-.029.084-.073.109-.131h-.077c-.035.07-.102.111-.185.111-.091.001-.206-.064-.21-.199zm-.489-.059c.007-.098.093-.183.209-.183.111-.003.202.089.207.183z" transform="matrix(45.8333 0 0 45.8333 361.42 223.5)"/><path d="m.387-.403c-.005-.109-.089-.15-.164-.15-.091 0-.168.057-.168.154.002.085.062.116.139.139.093.027.133.052.135.113.001.055-.042.101-.104.101-.054 0-.109-.033-.112-.107h-.073c.001.113.097.168.184.168.102 0 .182-.072.178-.171-.004-.115-.09-.137-.167-.158-.065-.019-.104-.04-.106-.091-.002-.047.034-.087.093-.087.054 0 .092.032.092.089z" transform="matrix(45.8333 0 0 45.8333 390.2 223.5)"/><path d="m.595-.248c.008-.086-.022-.169-.084-.229-.051-.049-.121-.076-.197-.076-.161 0-.283.127-.283.285 0 .134.097.283.284.283.055 0 .108-.015.153-.044.046-.029.084-.073.109-.131h-.077c-.035.07-.102.111-.185.111-.091.001-.206-.064-.21-.199zm-.489-.059c.007-.098.093-.183.209-.183.111-.003.202.089.207.183z" transform="matrix(45.8333 0 0 45.8333 410.82 223.5)"/><path d="m.072 0h.074v-.304c0-.112.064-.179.175-.18.121-.002.173.077.173.193v.291h.073v-.306c0-.131-.059-.245-.226-.247-.096-.002-.169.041-.2.111.001-.036.001-.066.001-.096h-.07z" transform="matrix(45.8333 0 0 45.8333 439.61 223.5)"/><path d="m.114 0h.073v-.479h.118v-.059h-.118v-.202h-.073v.202h-.106v.059h.106z" transform="matrix(45.8333 0 0 45.8333 468.85 223.5)"/><path d="m.612-.538h-.074v.113c-.026-.061-.105-.128-.22-.128-.164 0-.279.126-.279.284 0 .148.104.284.279.284.096 0 .178-.045.22-.126v.111h.074zm-.5.269c0-.12.09-.216.214-.216.095 0 .167.055.197.129.012.026.018.056.017.086 0 .029-.006.059-.018.085-.029.076-.099.131-.194.131-.148 0-.215-.117-.216-.214z" transform="matrix(45.8333 0 0 45.8333 481.86 223.5)"/><path d="m.072 0h.073v-.293c0-.122.058-.187.162-.187h.007v-.073c-.063.002-.133.023-.172.103v-.088h-.07z" transform="matrix(45.8333 0 0 45.8333 513.21 223.5)"/><path d="m.387-.403c-.005-.109-.089-.15-.164-.15-.091 0-.168.057-.168.154.002.085.062.116.139.139.093.027.133.052.135.113.001.055-.042.101-.104.101-.054 0-.109-.033-.112-.107h-.073c.001.113.097.168.184.168.102 0 .182-.072.178-.171-.004-.115-.09-.137-.167-.158-.065-.019-.104-.04-.106-.091-.002-.047.034-.087.093-.087.054 0 .092.032.092.089z" transform="matrix(45.8333 0 0 45.8333 527.97 223.5)"/><path d="m.595-.248c.008-.086-.022-.169-.084-.229-.051-.049-.121-.076-.197-.076-.161 0-.283.127-.283.285 0 .134.097.283.284.283.055 0 .108-.015.153-.044.046-.029.084-.073.109-.131h-.077c-.035.07-.102.111-.185.111-.091.001-.206-.064-.21-.199zm-.489-.059c.007-.098.093-.183.209-.183.111-.003.202.089.207.183z" transform="matrix(45.8333 0 0 45.8333 548.6 223.5)"/><path d="m.072-.637h.074v-.103h-.074zm0 .637h.074v-.538h-.074z" transform="matrix(45.8333 0 0 45.8333 43.93 281.84)"/><path d="m.072 0h.074v-.304c0-.112.064-.179.175-.18.121-.002.173.077.173.193v.291h.073v-.306c0-.131-.059-.245-.226-.247-.096-.002-.169.041-.2.111.001-.036.001-.066.001-.096h-.07z" transform="matrix(45.8333 0 0 45.8333 53.93 281.84)"/><path d="m.085 0h.073v-.479h.116v-.059h-.116v-.037c0-.117.079-.117.116-.119v-.059c-.058 0-.189.005-.189.171v.044h-.079v.059h.079z" transform="matrix(45.8333 0 0 45.8333 83.17 281.84)"/><path d="m.595-.248c.008-.086-.022-.169-.084-.229-.051-.049-.121-.076-.197-.076-.161 0-.283.127-.283.285 0 .134.097.283.284.283.055 0 .108-.015.153-.044.046-.029.084-.073.109-.131h-.077c-.035.07-.102.111-.185.111-.091.001-.206-.064-.21-.199zm-.489-.059c.007-.098.093-.183.209-.183.111-.003.202.089.207.183z" transform="matrix(45.8333 0 0 45.8333 94.76 281.84)"/><path d="m.519-.182c-.023.065-.092.127-.195.128-.116 0-.212-.088-.212-.215 0-.062.025-.12.061-.155.045-.042.089-.061.152-.061.076 0 .161.042.195.133h.076c-.037-.129-.153-.201-.274-.201-.163 0-.284.125-.284.284 0 .144.107.284.289.284.129 0 .234-.083.269-.197z" transform="matrix(45.8333 0 0 45.8333 123.55 281.84)"/><path d="m.519-.182c-.023.065-.092.127-.195.128-.116 0-.212-.088-.212-.215 0-.062.025-.12.061-.155.045-.042.089-.061.152-.061.076 0 .161.042.195.133h.076c-.037-.129-.153-.201-.274-.201-.163 0-.284.125-.284.284 0 .144.107.284.289.284.129 0 .234-.083.269-.197z" transform="matrix(45.8333 0 0 45.8333 152.42 281.84)"/><path d="m.072-.637h.074v-.103h-.074zm0 .637h.074v-.538h-.074z" transform="matrix(45.8333 0 0 45.8333 181.29 281.84)"/><path d="m.039-.269c0 .151.112.283.285.283.174 0 .286-.132.286-.283s-.112-.284-.286-.284c-.173 0-.285.133-.285.283zm.073 0c0-.123.093-.215.212-.215.12 0 .212.092.212.215s-.092.215-.212.215c-.119 0-.212-.092-.212-.214z" transform="matrix(45.8333 0 0 45.8333 191.29 281.84)"/><path d="m.072 0h.074v-.304c0-.112.064-.179.175-.18.121-.002.173.077.173.193v.291h.073v-.306c0-.131-.059-.245-.226-.247-.096-.002-.169.041-.2.111.001-.036.001-.066.001-.096h-.07z" transform="matrix(45.8333 0 0 45.8333 221.03 281.84)"/><path d="m.595-.248c.008-.086-.022-.169-.084-.229-.051-.049-.121-.076-.197-.076-.161 0-.283.127-.283.285 0 .134.097.283.284.283.055 0 .108-.015.153-.044.046-.029.084-.073.109-.131h-.077c-.035.07-.102.111-.185.111-.091.001-.206-.064-.21-.199zm-.489-.059c.007-.098.093-.183.209-.183.111-.003.202.089.207.183z" transform="matrix(45.8333 0 0 45.8333 250.27 281.84)"/><path d="m.387-.403c-.005-.109-.089-.15-.164-.15-.091 0-.168.057-.168.154.002.085.062.116.139.139.093.027.133.052.135.113.001.055-.042.101-.104.101-.054 0-.109-.033-.112-.107h-.073c.001.113.097.168.184.168.102 0 .182-.072.178-.171-.004-.115-.09-.137-.167-.158-.065-.019-.104-.04-.106-.091-.002-.047.034-.087.093-.087.054 0 .092.032.092.089z" transform="matrix(45.8333 0 0 45.8333 279.06 281.84)"/><path d="m.085 0h.073v-.479h.116v-.059h-.116v-.037c0-.117.079-.117.116-.119v-.059c-.058 0-.189.005-.189.171v.044h-.079v.059h.079z" transform="matrix(45.8333 0 0 45.8333 312.88 281.84)"/><path d="m.072 0h.073v-.293c0-.122.058-.187.162-.187h.007v-.073c-.063.002-.133.023-.172.103v-.088h-.07z" transform="matrix(45.8333 0 0 45.8333 325.71 281.84)"/><path d="m.595-.248c.008-.086-.022-.169-.084-.229-.051-.049-.121-.076-.197-.076-.161 0-.283.127-.283.285 0 .134.097.283.284.283.055 0 .108-.015.153-.044.046-.029.084-.073.109-.131h-.077c-.035.07-.102.111-.185.111-.091.001-.206-.064-.21-.199zm-.489-.059c.007-.098.093-.183.209-.183.111-.003.202.089.207.183z" transform="matrix(45.8333 0 0 45.8333 338.73 281.84)"/><path d="m.519-.182c-.023.065-.092.127-.195.128-.116 0-.212-.088-.212-.215 0-.062.025-.12.061-.155.045-.042.089-.061.152-.061.076 0 .161.042.195.133h.076c-.037-.129-.153-.201-.274-.201-.163 0-.284.125-.284.284 0 .144.107.284.289.284.129 0 .234-.083.269-.197z" transform="matrix(45.8333 0 0 45.8333 367.51 281.84)"/><path d="m.567-.538h-.074v.304c0 .112-.064.179-.176.18-.121.001-.173-.077-.173-.193v-.291h-.073v.305c0 .131.059.245.227.248.096.001.169-.041.199-.111v.096h.07z" transform="matrix(45.8333 0 0 45.8333 396.39 281.84)"/><path d="m.595-.248c.008-.086-.022-.169-.084-.229-.051-.049-.121-.076-.197-.076-.161 0-.283.127-.283.285 0 .134.097.283.284.283.055 0 .108-.015.153-.044.046-.029.084-.073.109-.131h-.077c-.035.07-.102.111-.185.111-.091.001-.206-.064-.21-.199zm-.489-.059c.007-.098.093-.183.209-.183.111-.003.202.089.207.183z" transform="matrix(45.8333 0 0 45.8333 425.67 281.84)"/><path d="m.072 0h.074v-.304c0-.112.064-.179.175-.18.121-.002.173.077.173.193v.291h.073v-.306c0-.131-.059-.245-.226-.247-.096-.002-.169.041-.2.111.001-.036.001-.066.001-.096h-.07z" transform="matrix(45.8333 0 0 45.8333 454.46 281.84)"/><path d="m.114 0h.073v-.479h.118v-.059h-.118v-.202h-.073v.202h-.106v.059h.106z" transform="matrix(45.8333 0 0 45.8333 483.7 281.84)"/><path d="m.595-.248c.008-.086-.022-.169-.084-.229-.051-.049-.121-.076-.197-.076-.161 0-.283.127-.283.285 0 .134.097.283.284.283.055 0 .108-.015.153-.044.046-.029.084-.073.109-.131h-.077c-.035.07-.102.111-.185.111-.091.001-.206-.064-.21-.199zm-.489-.059c.007-.098.093-.183.209-.183.111-.003.202.089.207.183z" transform="matrix(45.8333 0 0 45.8333 496.71 281.84)"/><path d="m.387-.403c-.005-.109-.089-.15-.164-.15-.091 0-.168.057-.168.154.002.085.062.116.139.139.093.027.133.052.135.113.001.055-.042.101-.104.101-.054 0-.109-.033-.112-.107h-.073c.001.113.097.168.184.168.102 0 .182-.072.178-.171-.004-.115-.09-.137-.167-.158-.065-.019-.104-.04-.106-.091-.002-.047.034-.087.093-.087.054 0 .092.032.092.089z" transform="matrix(45.8333 0 0 45.8333 525.5 281.84)"/><path d="m550.3883298 276.798337h3.5749974v5.041663h-3.5749974z" stroke-width="45.8333"/></g></g></svg>