<svg clip-rule="evenodd" fill-rule="evenodd" stroke-linejoin="round" stroke-miterlimit="2" viewBox="0 0 65 96" xmlns="http://www.w3.org/2000/svg"><g fill-rule="nonzero" stroke="#000" transform="translate(-1100 -2302.392)"><path d="m0 13.807c-2.285.01-4.33-1.37-5.201-3.509-.996-2.45-.978-4.878.295-7.218.76-1.398 2.067-2.248 3.432-2.981.204-.109.512-.069.763-.033.604.087 1.199.243 1.804.318 1.659.205 2.425 1.354 1.891 2.952-.155.462-.397.932-.714 1.301-1.062 1.24-.973 2.6-.508 4.008.155.473.425.908.58 1.38.142.432.264.889.284 1.34.063 1.482-.791 2.373-2.28 2.441-.116.005-.23.001-.346.001" fill="#f466ba" stroke-width=".47" transform="matrix(6.6458 0 0 6.6458 1141.73 2304.25)"/><path d="m1153.08 2393.39c-8.51-3.06-15.44-8.66-19.16-15.91-6.62-12.93-6.5-25.74 1.96-38.09 5.05-7.38 13.74-11.87 22.81-15.74.99-.42 2.36-.42 3.67-.31-.18.99-.45 2.02-.8 3.08-1.03 3.07-2.64 6.19-4.75 8.64-7.05 8.24-6.46 17.28-3.37 26.64 1.03 3.14 2.82 6.03 3.85 9.17.95 2.87 1.76 5.91 1.89 8.91.26 6.25-1.93 10.92-6.1 13.61z" fill="#f287b7" stroke-width="3.13"/></g></svg>