<?xml version="1.0" encoding="UTF-8" standalone="no"?><!DOCTYPE svg PUBLIC "-//W3C//DTD SVG 1.1//EN" "http://www.w3.org/Graphics/SVG/1.1/DTD/svg11.dtd"><svg width="100%" height="100%" viewBox="0 0 46 46" version="1.1" xmlns="http://www.w3.org/2000/svg" xmlns:xlink="http://www.w3.org/1999/xlink" xml:space="preserve" xmlns:serif="http://www.serif.com/" style="fill-rule:evenodd;clip-rule:evenodd;stroke-linejoin:round;stroke-miterlimit:2;"><g><path d="M44.408,23.899c0,11.56 -9.371,20.93 -20.93,20.93c-11.56,0 -20.93,-9.37 -20.93,-20.93c0,-11.56 9.37,-20.93 20.93,-20.93c11.559,0 20.93,9.37 20.93,20.93" style="fill:#009ee2;fill-rule:nonzero;"/><path d="M23.478,3.469c-11.265,0 -20.43,9.165 -20.43,20.43c0,11.265 9.165,20.43 20.43,20.43c11.265,0 20.43,-9.165 20.43,-20.43c0,-11.265 -9.165,-20.43 -20.43,-20.43m0,41.86c-11.816,0 -21.43,-9.613 -21.43,-21.43c0,-11.816 9.614,-21.43 21.43,-21.43c11.816,0 21.43,9.614 21.43,21.43c0,11.817 -9.614,21.43 -21.43,21.43" style="fill:#231f20;fill-rule:nonzero;"/><path d="M42.548,21.481c0,11.559 -9.371,20.93 -20.93,20.93c-11.56,0 -20.93,-9.371 -20.93,-20.93c0,-11.56 9.37,-20.93 20.93,-20.93c11.559,0 20.93,9.37 20.93,20.93" style="fill:#00b7f1;fill-rule:nonzero;"/><path d="M21.618,1.051c-11.265,0 -20.43,9.165 -20.43,20.43c0,11.265 9.165,20.43 20.43,20.43c11.265,0 20.43,-9.165 20.43,-20.43c0,-11.265 -9.165,-20.43 -20.43,-20.43m0,41.86c-11.816,0 -21.43,-9.613 -21.43,-21.43c0,-11.816 9.614,-21.43 21.43,-21.43c11.816,0 21.43,9.614 21.43,21.43c0,11.817 -9.614,21.43 -21.43,21.43" style="fill:#231f20;fill-rule:nonzero;"/><path d="M36.408,21.481c0,8.168 -6.622,14.791 -14.791,14.791c-8.168,0 -14.791,-6.623 -14.791,-14.791c0,-8.169 6.623,-14.791 14.791,-14.791c8.169,0 14.791,6.622 14.791,14.791" style="fill:#00b7f1;fill-rule:nonzero;"/><path d="M21.618,7.19c-7.88,0 -14.291,6.411 -14.291,14.291c0,7.879 6.411,14.29 14.291,14.29c7.88,0 14.291,-6.411 14.291,-14.29c0,-7.88 -6.411,-14.291 -14.291,-14.291m0,29.581c-8.432,0 -15.291,-6.859 -15.291,-15.29c0,-8.432 6.859,-15.291 15.291,-15.291c8.431,0 15.291,6.859 15.291,15.291c0,8.431 -6.86,15.29 -15.291,15.29" style="fill:#231f20;fill-rule:nonzero;"/><g opacity="0.59"><path d="M2.722,21.947c-0.417,-3.977 0.671,-8.167 2.973,-11.599c2.281,-3.471 5.832,-6.068 9.787,-7.382c1.981,-0.65 4.086,-0.961 6.159,-0.945c2.081,0.057 4.112,0.339 6.096,0.937c2.014,0.588 3.867,1.707 5.346,3.115c1.477,1.422 2.673,3.04 3.732,4.73c-1.411,-1.409 -2.799,-2.835 -4.369,-3.966c-1.548,-1.156 -3.281,-1.952 -5.113,-2.356c-3.746,-0.787 -7.665,-0.835 -11.228,0.382c-1.793,0.57 -3.495,1.427 -5.04,2.509c-1.565,1.061 -2.931,2.391 -4.112,3.882c-2.345,3.006 -3.816,6.729 -4.231,10.693" style="fill:#fff;fill-rule:nonzero;"/></g></g></svg>