<?xml version="1.0" encoding="UTF-8" standalone="no"?>
<!DOCTYPE svg PUBLIC "-//W3C//DTD SVG 1.1//EN" "http://www.w3.org/Graphics/SVG/1.1/DTD/svg11.dtd">
<svg width="100%" height="100%" viewBox="0 0 327 305" version="1.1" xmlns="http://www.w3.org/2000/svg" xmlns:xlink="http://www.w3.org/1999/xlink" xml:space="preserve" xmlns:serif="http://www.serif.com/" style="fill-rule:evenodd;clip-rule:evenodd;stroke-linejoin:round;stroke-miterlimit:2;">
    <g transform="matrix(1,0,0,1,-25887.8,-1540.8)">
        <g transform="matrix(5.55556,0,0,5.55556,25423.2,0)">
            <g transform="matrix(1,0,0,1,93.71,306.245)">
                <path d="M0,20.054C-0.391,20.106 -4.518,20.691 -4.653,20.082C-4.745,19.667 0.5,18.617 1.04,18.423C1.238,18.352 1.156,18.038 0.952,18.105C0.281,18.327 -1.352,18.411 -2.754,18.693C-3.818,18.702 -4.882,18.719 -5.944,18.662C-6.271,18.645 -7.485,18.39 -7.58,18.571C-7.27,17.981 -4.902,17.822 -4.348,17.725C-1.282,17.189 2.379,16.481 5.489,17.05C5.666,17.082 5.747,16.869 5.643,16.773C5.664,16.695 5.652,16.608 5.573,16.533C3.475,14.544 1.227,12.719 -0.822,10.68C-3.031,8.481 -10.667,-0.324 -2.738,-0.612C-2.714,-0.613 -2.704,-0.631 -2.684,-0.637C-2.842,7.113 1.883,14.893 10.576,16.665C10.53,17.218 10.426,17.762 10.216,18.283C10.029,18.749 9.775,19.123 9.478,19.439C6.227,18.984 3.221,19.627 0,20.054" style="fill:rgb(25,155,144);fill-rule:nonzero;"/>
            </g>
        </g>
        <g transform="matrix(5.55556,0,0,5.55556,25423.2,0)">
            <g transform="matrix(0.641844,-0.766835,-0.766835,-0.641844,109.925,324.427)">
                <path d="M-0.472,-0.071C-0.795,0.092 -1.125,0.405 -1.476,0.52C-1.21,1.052 -0.869,1.543 -0.472,2.001C-0.017,1.267 0.451,0.547 0.933,-0.152C0.514,-0.464 -0.02,-0.3 -0.472,-0.071" style="fill:rgb(25,155,144);fill-rule:nonzero;"/>
            </g>
        </g>
        <g transform="matrix(5.55556,0,0,5.55556,25423.2,0)">
            <g transform="matrix(1,0,0,1,108.078,286.159)">
                <path d="M0,36.642C-0.027,36.638 -0.05,36.644 -0.076,36.646C-0.152,35.702 -0.095,34.721 0.046,33.746C0.089,33.453 -0.32,33.32 -0.411,33.621C-1.35,36.733 -0.459,40.241 2.26,42.116C2.295,42.158 2.339,42.194 2.402,42.215C3.915,42.718 5.863,42.358 7.172,43.351C5.565,44.837 3,44.176 1.074,43.696C1.053,43.691 1.035,43.695 1.015,43.694C-0.525,43.341 -1.703,44.583 -3.308,44.235C-5.106,43.845 -6.547,43.224 -8.441,43.329C-8.464,43.331 -8.48,43.34 -8.501,43.345C-8.51,43.346 -8.517,43.342 -8.526,43.344C-9.128,43.43 -10.993,44.24 -10.442,43.134C-10.104,42.457 -8.501,42.078 -7.875,41.843C-6.729,41.411 -5.458,41.039 -4.551,40.169C-2.607,38.303 -2.975,34.969 -3.64,32.631C-3.729,32.318 -4.154,32.458 -4.112,32.761C-3.963,33.844 -3.757,34.998 -3.762,36.13C-18.548,32.996 -20.168,14.374 -9.128,5.842C-9.101,5.864 -9.073,5.888 -9.046,5.909C-8.689,6.186 -8.178,5.699 -8.539,5.4C-10.062,4.139 -12.127,2.513 -11.452,0.272C-10.748,-2.064 -6.099,-3.161 -4.55,-1.052C-4.509,-0.996 -4.451,-0.971 -4.392,-0.961C-4.391,-0.959 -4.391,-0.957 -4.39,-0.956C-4.343,-0.878 -4.246,-0.89 -4.197,-0.956C-3.854,-1.417 -3.843,-2.052 -3.703,-2.602C-3.408,-3.755 -2.936,-4.772 -2.284,-5.775C-1.513,-6.962 -0.347,-7.504 1.001,-7.845C2.382,-8.195 3.584,-7.513 3.685,-6.007C3.718,-5.497 3.712,-4.985 3.707,-4.475C3.259,-4.379 2.816,-4.275 2.394,-4.15C2.22,-4.098 2.254,-3.841 2.436,-3.836C4.363,-3.783 6.279,-4.272 8.199,-4.427C10.309,-4.597 12.04,-3.853 13.993,-3.205C14.353,-3.086 14.488,-3.631 14.147,-3.765C13.907,-3.859 13.667,-3.952 13.428,-4.045C13.615,-6.059 16.534,-7.101 18.287,-6.952C21.188,-6.706 20.184,-2.861 19.597,-1.078C19.543,-0.916 19.661,-0.79 19.799,-0.756C19.82,-0.688 19.88,-0.636 19.969,-0.668C20.948,-1.021 21.905,-0.695 22.708,-0.097C23.746,0.675 23.962,1.892 23.359,3.008C22.619,4.38 21.46,5.149 20.21,6.001C20.023,6.13 20.132,6.458 20.373,6.386C21.124,6.159 22.001,5.595 22.75,4.868C22.755,4.874 22.757,4.882 22.764,4.888C29.394,11.189 29.506,20.564 24.645,28.012C18.933,36.764 9.638,38.066 0,36.642" style="fill:rgb(25,155,144);fill-rule:nonzero;"/>
            </g>
        </g>
        <g transform="matrix(5.55556,0,0,5.55556,25423.2,0)">
            <g transform="matrix(0.966372,0.257146,0.257146,-0.966372,121.674,325.479)">
                <path d="M0.25,0.391C-0.723,0.136 -2.995,-0.487 -3.367,0.923C-2.094,1.455 -0.885,2.078 0.25,2.802C0.4,1.936 0.458,1.135 0.372,0.398C0.335,0.403 0.294,0.403 0.25,0.391" style="fill:rgb(25,155,144);fill-rule:nonzero;"/>
            </g>
        </g>
        <g transform="matrix(5.55556,0,0,5.55556,25423.2,0)">
            <g transform="matrix(1,0,0,1,136.648,324.119)">
                <path d="M0,3.806C-0.055,4.232 -2.438,4.162 -3.004,4.149C-4.207,3.338 -6.837,3.2 -7.509,3.182C-7.771,3.175 -7.759,3.556 -7.509,3.581C-7.13,3.619 -3.278,3.946 -3.188,4.832C-3.051,6.178 -6.059,5.322 -6.705,5.171C-9.711,4.47 -12.022,4.608 -15.051,5.21C-15.512,5.301 -17.719,5.854 -17.943,5.67C-18.899,4.886 -17.716,4.706 -17.23,4.492C-16.66,4.241 -16.128,4.036 -15.63,3.66C-14.05,2.47 -13.583,0.458 -13.552,-1.433C-12.774,-1.7 -12.015,-2.011 -11.277,-2.372C-11.417,-0.083 -10.119,1.208 -8.255,1.869C-8.217,1.915 -8.16,1.948 -8.084,1.951C-8.057,1.952 -8.031,1.952 -8.004,1.953C-7.582,2.087 -7.136,2.193 -6.672,2.27C-5.074,2.539 -3.44,2.487 -1.86,2.868C-1.442,2.969 0.071,3.251 0,3.806" style="fill:rgb(25,155,144);fill-rule:nonzero;"/>
            </g>
        </g>
        <g transform="matrix(5.55556,0,0,5.55556,25423.2,0)">
            <g transform="matrix(1,0,0,1,136.013,307.367)">
                <path d="M0,16.642C-0.089,16.652 -0.149,16.702 -0.187,16.764C-1.216,16.703 -2.248,16.663 -3.269,16.441C-3.476,16.396 -3.564,16.707 -3.357,16.759C-2.488,16.977 -1.649,17.093 -0.759,17.16C-0.199,17.202 0.557,17.1 1.093,17.288C2.262,17.697 1.5,17.676 0.676,17.809C-2.013,18.244 -4.704,18.36 -7.42,18.229C-9.172,17.691 -10.443,16.624 -10.272,14.205C-10.272,14.199 -10.277,14.197 -10.277,14.191C-7.38,12.693 -4.818,10.419 -2.754,7.117C-1.005,4.318 0.101,1.3 0.494,-1.718C8.068,-1.279 0.561,7.379 -1.628,9.558C-3.676,11.597 -5.925,13.422 -8.023,15.412C-8.104,15.488 -8.115,15.577 -8.091,15.657C-8.184,15.769 -8.108,15.974 -7.935,15.921C-4.969,15.015 -1.362,15.277 1.693,15.432C2.219,15.459 4.913,15.346 5.206,15.891C5.149,15.786 0.495,16.587 0,16.642" style="fill:rgb(25,155,144);fill-rule:nonzero;"/>
            </g>
        </g>
        <g transform="matrix(5.55556,0,0,5.55556,25423.2,0)">
            <g opacity="0.2">
                <g transform="matrix(1,0,0,1,88.3804,306.916)">
                    <path d="M0,2.013C0.302,1.48 0.785,1.093 1.368,0.907C1.809,0.767 2.274,0.74 2.734,0.771C2.67,0.08 2.631,-0.613 2.646,-1.308C2.625,-1.302 2.616,-1.283 2.592,-1.283C-1.201,-1.145 -1.429,0.942 -0.397,3.321C-0.396,2.863 -0.226,2.411 0,2.013" style="fill:white;fill-rule:nonzero;"/>
                </g>
            </g>
        </g>
        <g transform="matrix(5.55556,0,0,5.55556,25423.2,0)">
            <g opacity="0.2">
                <g transform="matrix(1,0,0,1,87.6006,322.726)">
                    <path d="M0,2.164C0.379,2.089 0.758,2.016 1.136,1.937C1.767,1.808 2.387,1.648 3.012,1.497C4.419,1.157 5.882,1.086 7.322,1.02C7.896,0.993 8.46,0.989 9.033,1.032C9.631,1.077 10.226,1.146 10.823,1.198C11.408,1.249 11.998,1.288 12.586,1.261C13.073,1.239 13.567,1.166 14.024,0.989C13.74,0.724 13.32,0.645 12.95,0.585C12.551,0.519 12.138,0.468 11.762,0.311C11.841,0.414 11.766,0.599 11.598,0.568C8.488,0 4.828,0.708 1.761,1.244C1.207,1.34 -1.161,1.499 -1.47,2.089C-1.388,1.932 -0.454,2.105 0,2.164" style="fill:white;fill-rule:nonzero;"/>
                </g>
            </g>
        </g>
        <g transform="matrix(5.55556,0,0,5.55556,25423.2,0)">
            <g opacity="0.2">
                <g transform="matrix(1,0,0,1,97.0942,278.7)">
                    <path d="M0,9.595C0.026,9.43 0.061,9.266 0.11,9.107C0.171,8.911 0.277,8.733 0.395,8.567C0.666,8.184 1.02,7.867 1.407,7.607C1.795,7.346 2.21,7.167 2.649,7.013C3.166,6.833 3.701,6.746 4.249,6.776C5.29,6.832 6.269,7.237 7.266,7.505C7.291,7.46 7.316,7.415 7.341,7.37C7.679,6.753 7.983,6.117 8.306,5.491C8.673,4.779 9.058,4.072 9.502,3.403C9.923,2.769 10.399,2.153 10.988,1.665C11.507,1.234 12.121,0.912 12.801,0.852C13.453,0.796 14.081,1 14.645,1.313C14.479,-0.091 13.32,-0.724 11.985,-0.386C10.636,-0.045 9.471,0.497 8.699,1.684C8.048,2.687 7.576,3.703 7.281,4.857C7.14,5.407 7.129,6.042 6.787,6.503C6.738,6.569 6.64,6.581 6.594,6.503C6.593,6.502 6.593,6.5 6.592,6.498C6.532,6.488 6.475,6.463 6.433,6.407C4.884,4.298 0.235,5.395 -0.468,7.731C-0.761,8.702 -0.538,9.558 -0.068,10.319C-0.057,10.076 -0.038,9.834 0,9.595" style="fill:white;fill-rule:nonzero;"/>
                </g>
            </g>
        </g>
        <g transform="matrix(5.55556,0,0,5.55556,25423.2,0)">
            <g opacity="0.2">
                <g transform="matrix(1,0,0,1,123.669,288.633)">
                    <path d="M0,-8.397C0.699,-8.636 1.495,-8.766 2.207,-8.504C2.949,-8.232 3.495,-7.556 3.647,-6.785C3.804,-5.998 3.586,-5.19 3.35,-4.442C3.119,-3.713 2.816,-2.972 2.764,-2.201C3.446,-2.157 4.108,-2.401 4.776,-2.507C5.402,-2.607 6.031,-2.559 6.551,-2.163C6.958,-1.853 7.218,-1.373 7.362,-0.89C7.551,-0.255 7.573,0.492 7.373,1.152C7.513,0.959 7.648,0.757 7.768,0.534C8.371,-0.582 8.154,-1.799 7.117,-2.571C6.313,-3.169 5.357,-3.495 4.377,-3.142C4.289,-3.11 4.229,-3.162 4.208,-3.23C4.07,-3.264 3.952,-3.39 4.005,-3.552C4.593,-5.335 5.597,-9.18 2.696,-9.426C1.252,-9.549 -0.977,-8.863 -1.826,-7.493C-1.25,-7.856 -0.644,-8.177 0,-8.397" style="fill:white;fill-rule:nonzero;"/>
                </g>
            </g>
        </g>
        <g transform="matrix(5.55556,0,0,5.55556,25423.2,0)">
            <g opacity="0.2">
                <g transform="matrix(1,0,0,1,110.453,283.062)">
                    <path d="M0,-0.623C-0.096,-0.58 -0.219,-0.517 -0.261,-0.413C-0.346,-0.202 -0.014,-0.026 0.13,0.042C0.48,0.208 0.875,0.256 1.256,0.284C1.797,0.323 2.34,0.303 2.881,0.289C3.436,0.273 3.993,0.261 4.546,0.31C5.084,0.358 5.623,0.386 6.162,0.402C8.303,0.465 10.459,0.398 12.562,0.877C12.609,0.673 12.581,0.475 12.445,0.306C12.298,0.122 12.09,-0.007 11.883,-0.114C11.871,-0.121 11.858,-0.124 11.846,-0.131C11.787,-0.092 11.71,-0.078 11.618,-0.109C9.665,-0.756 7.934,-1.5 5.824,-1.331C4.019,-1.185 2.217,-0.749 0.406,-0.741C0.266,-0.714 0.128,-0.68 0,-0.623" style="fill:white;fill-rule:nonzero;"/>
                </g>
            </g>
        </g>
        <g transform="matrix(5.55556,0,0,5.55556,25423.2,0)">
            <g opacity="0.2">
                <g transform="matrix(1,0,0,1,122.672,290.926)">
                    <path d="M0,-1.485C-0.601,-1.342 -1.198,-1.207 -1.81,-1.12C-4.273,-0.77 -6.761,-1.001 -9.232,-1.124C-9.871,-1.156 -10.509,-1.179 -11.148,-1.18C-11.79,-1.181 -12.431,-1.151 -13.071,-1.115C-14.002,-1.063 -14.935,-1.005 -15.867,-1.021C-14.836,-0.618 -13.757,-0.342 -12.668,-0.154C-11.396,0.066 -10.106,0.173 -8.817,0.205C-7.542,0.237 -6.264,0.193 -4.994,0.084C-3.834,-0.016 -2.69,-0.2 -1.539,-0.362C-0.45,-0.516 0.735,-0.729 1.533,-1.545C1.048,-1.722 0.482,-1.599 0,-1.485" style="fill:white;fill-rule:nonzero;"/>
                </g>
            </g>
        </g>
        <g transform="matrix(5.55556,0,0,5.55556,25423.2,0)">
            <g opacity="0.2">
                <g transform="matrix(1,0,0,1,127.45,308.194)">
                    <path d="M0,-12.973C-0.436,-13.493 -0.921,-14.028 -1.488,-14.409C-2.077,-14.805 -2.75,-14.997 -3.459,-14.972C-4.146,-14.947 -4.814,-14.757 -5.474,-14.582C-6.233,-14.382 -6.994,-14.204 -7.772,-14.091C-9.363,-13.859 -10.974,-13.821 -12.579,-13.815C-14.063,-13.809 -15.546,-13.817 -17.019,-14.018C-18.26,-14.189 -19.468,-14.509 -20.65,-14.915C-20.682,-14.879 -20.747,-14.864 -20.785,-14.916C-20.806,-14.945 -20.834,-14.963 -20.859,-14.987C-20.959,-15.023 -21.061,-15.054 -21.161,-15.091C-21.203,-15.106 -21.215,-15.143 -21.212,-15.179C-21.33,-15.206 -21.453,-15.218 -21.576,-15.209C-21.982,-15.182 -22.381,-15.028 -22.746,-14.857C-23.179,-14.656 -23.591,-14.41 -23.986,-14.144C-24.357,-13.895 -24.715,-13.626 -25.054,-13.335C-25.288,-13.135 -25.516,-12.925 -25.703,-12.679C-26.598,-11.503 -27.121,-10.104 -27.039,-8.615C-26.962,-7.232 -26.412,-5.918 -25.705,-4.743C-24.965,-3.514 -24.042,-2.399 -23.064,-1.353C-22.225,-0.455 -21.219,0.269 -20.117,0.81C-17.894,1.901 -15.367,2.245 -12.914,2.224C-11.664,2.214 -10.416,2.108 -9.18,1.93C-7.92,1.749 -6.659,1.508 -5.429,1.183C-3.973,0.798 -2.542,0.284 -1.2,-0.402C-0.609,-0.703 -0.024,-1.027 0.478,-1.466C0.909,-1.842 1.279,-2.284 1.58,-2.77C2.79,-4.732 2.841,-7.283 2.082,-9.416C1.619,-10.715 0.883,-11.919 0,-12.973" style="fill:white;fill-rule:nonzero;"/>
                </g>
            </g>
        </g>
        <g transform="matrix(5.55556,0,0,5.55556,25423.2,0)">
            <g opacity="0.2">
                <g transform="matrix(1,0,0,1,101.786,328.157)">
                    <path d="M0,-0.152C0.311,-0.085 0.626,0.007 0.917,0.136C1.197,0.26 1.458,0.419 1.727,0.562C1.996,0.704 2.276,0.827 2.579,0.873C2.917,0.924 3.268,0.878 3.601,0.815C3.943,0.75 4.281,0.662 4.625,0.601C4.958,0.541 5.287,0.529 5.625,0.534C5.881,0.537 6.14,0.546 6.395,0.511C6.653,0.475 6.9,0.391 7.142,0.296C6.974,0.107 6.784,-0.065 6.589,-0.224C6.35,-0.421 6.094,-0.617 5.813,-0.752C5.26,-1.017 4.75,-0.627 4.256,-0.425C3.72,-0.206 3.119,-0.276 2.582,-0.456C2.09,-0.621 1.634,-0.883 1.13,-1.013C0.98,-1.052 0.826,-1.069 0.671,-1.076C0.048,-0.743 -0.634,-0.504 -1.291,-0.264C-0.857,-0.273 -0.424,-0.243 0,-0.152" style="fill:white;fill-rule:nonzero;"/>
                </g>
            </g>
        </g>
        <g transform="matrix(5.55556,0,0,5.55556,25423.2,0)">
            <g opacity="0.2">
                <g transform="matrix(1,0,0,1,129.139,325.301)">
                    <path d="M0,2.399C-0.064,2.392 -0.111,2.362 -0.144,2.321C-0.489,2.326 -0.821,2.184 -0.894,1.791C-0.903,1.745 -0.881,1.708 -0.837,1.691C-0.026,1.398 0.876,1.452 1.716,1.567C2.122,1.622 2.524,1.697 2.925,1.778C3.275,1.849 3.625,1.943 3.979,1.988C4.584,2.067 5.194,2.107 5.801,2.167C6.349,2.221 6.896,2.294 7.437,2.396C7.146,1.991 6.005,1.772 5.648,1.686C4.069,1.305 2.435,1.357 0.837,1.088C0.373,1.01 -0.073,0.904 -0.496,0.771C-0.522,0.77 -0.548,0.77 -0.575,0.769C-0.651,0.765 -0.708,0.732 -0.747,0.686C-1.82,0.306 -2.693,-0.293 -3.225,-1.162C-3.387,-0.728 -3.767,-0.399 -4.117,-0.119C-4.324,0.046 -4.537,0.206 -4.735,0.381C-4.936,0.559 -5.096,0.753 -5.242,0.977C-5.357,1.153 -5.529,1.397 -5.509,1.622C-5.496,1.761 -5.368,1.817 -5.248,1.847C-5.048,1.896 -4.835,1.892 -4.631,1.892C-4.385,1.892 -4.138,1.885 -3.892,1.896C-3.162,1.926 -2.513,2.253 -1.827,2.467C-1.437,2.588 -1.028,2.655 -0.625,2.724C-0.193,2.797 0.242,2.855 0.678,2.907C1.113,2.959 1.548,3.006 1.983,3.061C2.301,3.102 2.625,3.133 2.938,3.206C3.343,3.299 3.746,3.402 4.146,3.517C4.193,3.531 4.24,3.547 4.288,3.561C3.956,2.742 0.365,2.436 0,2.399" style="fill:white;fill-rule:nonzero;"/>
                </g>
            </g>
        </g>
        <g transform="matrix(5.55556,0,0,5.55556,25423.2,0)">
            <g opacity="0.2">
                <g transform="matrix(1,0,0,1,134.662,327.645)">
                    <path d="M0,-0.041C-0.315,-0.07 -0.631,-0.097 -0.946,-0.127C-1.217,-0.154 -1.494,-0.173 -1.762,-0.228C-2.526,-0.382 -3.288,-0.558 -4.063,-0.647C-4.779,-0.729 -5.532,-0.747 -6.224,-0.52C-6.141,-0.287 -5.93,-0.202 -5.702,-0.194C-5.687,-0.275 -5.635,-0.347 -5.523,-0.344C-4.852,-0.327 -2.221,-0.188 -1.018,0.623C-0.452,0.636 1.931,0.706 1.986,0.28C1.989,0.258 1.975,0.24 1.973,0.219C1.322,0.091 0.661,0.02 0,-0.041" style="fill:white;fill-rule:nonzero;"/>
                </g>
            </g>
        </g>
        <g transform="matrix(5.55556,0,0,5.55556,25423.2,0)">
            <g opacity="0.2">
                <g transform="matrix(1,0,0,1,137.87,308.107)">
                    <path d="M0,0.387C0.537,0.738 0.906,1.293 1.008,1.926C1.057,2.228 1.075,2.536 1.076,2.845C2.433,0.232 2.584,-2.23 -1.363,-2.458C-1.472,-1.62 -1.642,-0.782 -1.859,0.051C-1.223,-0.073 -0.547,0.03 0,0.387" style="fill:white;fill-rule:nonzero;"/>
                </g>
            </g>
        </g>
        <g transform="matrix(5.55556,0,0,5.55556,25423.2,0)">
            <g opacity="0.2">
                <g transform="matrix(1,0,0,1,127.698,322.645)">
                    <path d="M0,1.015C0.299,1.183 0.659,1.233 0.996,1.253C1.426,1.278 1.858,1.25 2.285,1.203C3.16,1.107 4.023,0.923 4.884,0.743C5.245,0.668 5.603,0.598 5.969,0.551C6.581,0.473 7.195,0.413 7.81,0.369C9.1,0.274 10.395,0.242 11.688,0.259C12.063,0.264 12.438,0.282 12.813,0.295C11.892,0.121 10.387,0.174 10.008,0.155C6.953,0 3.346,-0.263 0.38,0.643C0.327,0.66 0.287,0.647 0.254,0.625C0.131,0.726 0.016,0.836 -0.097,0.949C-0.065,0.971 -0.034,0.996 0,1.015" style="fill:white;fill-rule:nonzero;"/>
                </g>
            </g>
        </g>
        <g transform="matrix(5.55556,0,0,5.55556,25423.2,0)">
            <g transform="matrix(1,0,0,1,103.991,289.637)">
                <path d="M0,-4.719C-0.634,-7.582 -5.939,-6.365 -7.375,-4.879C-9.91,-2.257 -7.075,0.906 -4.93,2.559C-4.534,2.863 -4.007,2.185 -4.393,1.863C-5.942,0.571 -8.43,-1.466 -7.121,-3.77C-6.022,-5.705 -1.881,-6.208 -0.466,-4.448C-0.278,-4.215 0.055,-4.472 0,-4.719" style="fill:rgb(35,31,32);fill-rule:nonzero;"/>
            </g>
        </g>
        <g transform="matrix(5.55556,0,0,5.55556,25423.2,0)">
            <g transform="matrix(1,0,0,1,103.882,276.91)">
                <path d="M0,8.334C0.367,7.983 0.388,7.424 0.502,6.944C0.778,5.786 1.202,4.758 1.833,3.749C2.639,2.459 3.769,1.842 5.22,1.483C6.35,1.204 7.431,1.544 7.754,2.815C7.915,3.447 7.825,4.21 7.82,4.856C7.815,5.42 8.668,5.416 8.692,4.856C8.75,3.545 8.924,1.675 7.665,0.841C6.308,-0.058 4.325,0.727 3.022,1.339C1.636,1.99 0.872,3.537 0.303,4.895C0.007,5.599 -0.802,7.614 -0.195,8.334C-0.146,8.392 -0.05,8.382 0,8.334" style="fill:rgb(35,31,32);fill-rule:nonzero;"/>
            </g>
        </g>
        <g transform="matrix(5.55556,0,0,5.55556,25423.2,0)">
            <g transform="matrix(1,0,0,1,110.514,281.439)">
                <path d="M0,0.921C1.917,1.044 3.851,0.517 5.763,0.364C7.868,0.196 9.587,0.946 11.539,1.579C11.985,1.724 12.146,1.056 11.729,0.89C7.908,-0.632 3.913,-0.803 -0.053,0.534C-0.265,0.606 -0.224,0.906 0,0.921" style="fill:rgb(35,31,32);fill-rule:nonzero;"/>
            </g>
        </g>
        <g transform="matrix(5.55556,0,0,5.55556,25423.2,0)">
            <g transform="matrix(1,0,0,1,121.561,281.641)">
                <path d="M0,0.538C0.127,-1.478 3.073,-2.516 4.804,-2.365C7.658,-2.116 6.588,1.683 6.054,3.423C5.945,3.78 6.471,3.999 6.654,3.676C7.757,1.735 8.239,-2.518 5.287,-3.052C3.025,-3.461 -0.547,-2.07 -0.683,0.538C-0.705,0.978 -0.027,0.974 0,0.538" style="fill:rgb(35,31,32);fill-rule:nonzero;"/>
            </g>
        </g>
        <g transform="matrix(5.55556,0,0,5.55556,25423.2,0)">
            <g transform="matrix(1,0,0,1,128.056,291.156)">
                <path d="M0,-5.632C0.968,-5.947 1.9,-5.629 2.689,-5.042C3.706,-4.285 3.914,-3.115 3.324,-2.023C2.583,-0.65 1.422,0.07 0.208,0.962C-0.018,1.128 0.105,1.515 0.408,1.436C2.248,0.951 4.815,-1.634 4.496,-3.702C4.21,-5.559 1.459,-7.147 -0.142,-5.968C-0.296,-5.854 -0.214,-5.562 0,-5.632" style="fill:rgb(35,31,32);fill-rule:nonzero;"/>
            </g>
        </g>
        <g transform="matrix(5.55556,0,0,5.55556,25423.2,0)">
            <g transform="matrix(1,0,0,1,109.227,283.479)">
                <path d="M0,-0.594C0.049,-0.694 0.09,-0.791 0.132,-0.894C0.271,-1.238 -0.233,-1.485 -0.467,-1.243C-0.835,-0.863 -1.074,-0.385 -1.151,0.14C-1.2,0.475 -1.272,1.135 -0.852,1.272C0.149,1.599 0.147,-0.856 0.161,-1.349C0.173,-1.759 -0.331,-1.809 -0.538,-1.538C-0.935,-1.019 -1.412,-0.362 -1.324,0.336C-1.274,0.732 -0.925,1.059 -0.542,0.796C-0.084,0.481 0.071,-0.236 0.125,-0.747C0.166,-1.144 0.312,-1.919 -0.214,-2.052C-0.776,-2.193 -1.066,-1.364 -1.235,-0.978C-1.453,-0.477 -1.725,0.163 -1.436,0.69C-1.229,1.067 -0.713,1.32 -0.382,0.954C0.04,0.489 0.196,-0.407 0.184,-1.008C0.177,-1.385 -0.448,-1.507 -0.505,-1.101C-0.575,-0.613 -0.626,0.109 -0.967,0.499C-0.88,0.463 -0.792,0.427 -0.705,0.39C-0.986,0.411 -0.386,-1.239 -0.168,-1.374C-0.264,-1.362 -0.36,-1.349 -0.457,-1.337C-0.427,-1.333 -0.398,-1.329 -0.37,-1.325C-0.444,-1.382 -0.519,-1.439 -0.593,-1.496C-0.537,-1.411 -0.583,-0.938 -0.6,-0.747C-0.628,-0.447 -0.699,0.036 -0.974,0.224C-0.881,0.212 -0.789,0.199 -0.696,0.187C-0.566,0.216 -0.41,-0.397 -0.339,-0.517C-0.208,-0.744 -0.049,-0.952 0.11,-1.16C-0.123,-1.223 -0.356,-1.286 -0.589,-1.349C-0.598,-1.029 -0.617,-0.709 -0.657,-0.39C-0.682,-0.199 -0.7,0.481 -0.884,0.593C-0.788,0.58 -0.69,0.567 -0.594,0.555C-0.613,0.552 -0.632,0.549 -0.651,0.546C-0.563,0.634 -0.476,0.721 -0.388,0.809C-0.594,0.318 -0.257,-0.362 0.04,-0.736L-0.559,-0.894C-0.519,-0.791 -0.478,-0.694 -0.431,-0.594C-0.352,-0.429 -0.08,-0.432 0,-0.594" style="fill:rgb(35,31,32);fill-rule:nonzero;"/>
            </g>
        </g>
        <g transform="matrix(5.55556,0,0,5.55556,25423.2,0)">
            <g transform="matrix(1,0,0,1,126.913,285.217)">
                <path d="M0,-3.163C-0.008,-3.17 -0.015,-3.178 -0.023,-3.186C-0.145,-3.306 -0.309,-3.309 -0.456,-3.242C-0.896,-3.038 -1.096,-2.539 -1.208,-2.096C-1.301,-1.73 -1.506,-0.969 -1.183,-0.659C-0.344,0.146 0.195,-2.323 0.239,-2.741C0.278,-3.106 -0.204,-3.225 -0.433,-3.019C-0.733,-2.75 -1.004,-2.34 -0.969,-1.921C-0.943,-1.603 -0.45,-1.373 -0.291,-1.737C-0.167,-2.018 -0.114,-2.249 0.124,-2.463L-0.548,-2.741C-0.577,-2.471 -0.636,-2.207 -0.722,-1.949C-0.776,-1.787 -0.891,-1.351 -1.043,-1.258C-0.943,-1.271 -0.844,-1.284 -0.744,-1.297C-0.764,-1.301 -0.785,-1.304 -0.805,-1.308C-0.728,-1.248 -0.65,-1.189 -0.573,-1.129C-0.553,-0.991 -0.547,-1.011 -0.557,-1.188C-0.555,-1.287 -0.55,-1.386 -0.541,-1.484C-0.519,-1.693 -0.477,-1.907 -0.415,-2.108C-0.366,-2.266 -0.31,-2.419 -0.195,-2.543C-0.112,-2.632 -0.021,-2.676 0.05,-2.778C0.128,-2.892 0.095,-3.069 0,-3.163" style="fill:rgb(35,31,32);fill-rule:nonzero;"/>
            </g>
        </g>
        <g transform="matrix(5.55556,0,0,5.55556,25423.2,0)">
            <g transform="matrix(1,0,0,1,99.1626,286.968)">
                <path d="M0,0.619C0.366,1.079 1.121,1.075 1.655,1.008C2.37,0.918 3.131,0.599 3.622,0.062C3.788,-0.12 3.565,-0.46 3.344,-0.299C2.893,0.027 2.489,0.328 1.943,0.477C1.451,0.612 0.624,0.766 0.19,0.429C0.054,0.323 -0.109,0.482 0,0.619" style="fill:rgb(35,31,32);fill-rule:nonzero;"/>
            </g>
        </g>
        <g transform="matrix(5.55556,0,0,5.55556,25423.2,0)">
            <g transform="matrix(0.00877452,0.999962,0.999962,-0.00877452,117.31,276.38)">
                <path d="M11.353,-16.078C16.427,-8.797 16.631,3.805 11.99,11.297C11.743,11.698 11.116,11.345 11.353,10.932C15.903,3.005 15.039,-7.875 11.021,-15.88C10.909,-16.103 11.21,-16.283 11.353,-16.078" style="fill:rgb(35,31,32);fill-rule:nonzero;"/>
            </g>
        </g>
        <g transform="matrix(5.55556,0,0,5.55556,25423.2,0)">
            <g transform="matrix(1,0,0,1,129.007,288.961)">
                <path d="M0,-2.431C-0.516,-2.226 -0.56,-1.369 -0.396,-0.921C-0.214,-0.423 0.373,0.045 0.906,-0.22C1.17,-0.351 1.059,-0.702 0.832,-0.79C0.515,-0.912 0.256,-0.969 0.204,-1.368C0.164,-1.677 0.366,-1.972 0.279,-2.273C0.248,-2.381 0.116,-2.476 0,-2.431" style="fill:rgb(35,31,32);fill-rule:nonzero;"/>
            </g>
        </g>
        <g transform="matrix(5.55556,0,0,5.55556,25423.2,0)">
            <g transform="matrix(-0.983724,0.179688,0.179688,0.983724,95.0339,323.251)">
                <path d="M-9.57,-30.688C4.594,-25.031 4.92,-4.231 -9.241,1.441C-9.69,1.62 -10.021,0.942 -9.57,0.761C4.758,-5.001 2.857,-23.718 -9.769,-30.139C-10.093,-30.304 -9.929,-30.832 -9.57,-30.688" style="fill:rgb(35,31,32);fill-rule:nonzero;"/>
            </g>
        </g>
        <g transform="matrix(5.55556,0,0,5.55556,25423.2,0)">
            <g transform="matrix(0.93011,-0.367281,-0.367281,-0.93011,111.974,326.787)">
                <path d="M-1.477,-0.433C-3.317,2.283 -2.421,5.213 -0.971,7.85C-0.806,8.15 -1.277,8.375 -1.477,8.133C-3.575,5.573 -3.988,1.848 -2.08,-0.907C-1.798,-1.314 -1.201,-0.839 -1.477,-0.433" style="fill:rgb(35,31,32);fill-rule:nonzero;"/>
            </g>
        </g>
        <g transform="matrix(5.55556,0,0,5.55556,25423.2,0)">
            <g transform="matrix(0.138955,-0.990299,-0.990299,-0.138955,113.961,326.059)">
                <path d="M-2.851,-2.428C-1.717,-0.796 -2.425,1.212 -2.063,3.033C-1.964,3.533 -2.759,3.638 -2.851,3.135C-3.15,1.489 -2.401,-0.541 -3.443,-1.982C-3.724,-2.368 -3.123,-2.82 -2.851,-2.428" style="fill:rgb(35,31,32);fill-rule:nonzero;"/>
            </g>
        </g>
        <g transform="matrix(5.55556,0,0,5.55556,25423.2,0)">
            <g transform="matrix(0.198095,0.980183,0.980183,-0.198095,111.495,326.999)">
                <path d="M2.956,-3.177C3.954,-1.06 5.207,1.722 3.579,3.843C3.288,4.224 2.663,3.814 2.956,3.431C4.392,1.547 3.155,-0.969 2.27,-2.831C2.059,-3.277 2.745,-3.625 2.956,-3.177" style="fill:rgb(35,31,32);fill-rule:nonzero;"/>
            </g>
        </g>
        <g transform="matrix(5.55556,0,0,5.55556,25423.2,0)">
            <g transform="matrix(1,0,0,1,99.6362,330.533)">
                <path d="M0,-0.326C1.052,-0.391 2.05,-0.308 3.08,-0.059C3.873,0.133 4.773,0.694 5.567,0.77C6.902,0.899 7.98,-0.353 9.332,-0.014C9.803,0.104 10.004,-0.622 9.533,-0.742C7.959,-1.142 6.77,0.14 5.153,-0.21C3.349,-0.601 1.901,-1.225 0,-1.12C-0.509,-1.092 -0.511,-0.294 0,-0.326" style="fill:rgb(35,31,32);fill-rule:nonzero;"/>
            </g>
        </g>
        <g transform="matrix(5.55556,0,0,5.55556,25423.2,0)">
            <g transform="matrix(1,0,0,1,103.9,330.594)">
                <path d="M0,-11.739C0.207,-10.031 0.593,-8.242 0.124,-6.537C-0.396,-4.649 -1.924,-4.019 -3.623,-3.385C-5.276,-2.767 -6.987,-2.332 -7.548,-0.469C-7.615,-0.247 -7.467,-0.034 -7.261,0.036C-6.227,0.39 -5.208,-0.243 -4.159,-0.404C-3.658,-0.481 -3.874,-1.233 -4.369,-1.163C-4.96,-1.079 -6.718,-0.313 -6.208,-1.245C-5.84,-1.919 -4.321,-2.276 -3.678,-2.52C-2.52,-2.958 -1.237,-3.334 -0.321,-4.214C1.633,-6.092 1.303,-9.47 0.593,-11.819C0.499,-12.129 -0.043,-12.091 0,-11.739" style="fill:rgb(35,31,32);fill-rule:nonzero;"/>
            </g>
        </g>
        <g transform="matrix(5.55556,0,0,5.55556,25423.2,0)">
            <g transform="matrix(1,0,0,1,130.804,324.382)">
                <path d="M0,-33.298C6.488,-27.02 6.765,-17.976 2.034,-10.527C-3.66,-1.561 -12.935,-0.241 -22.705,-1.661C-23.25,-1.74 -23.485,-0.904 -22.935,-0.825C-12.731,0.641 -3.041,-0.678 2.686,-10.146C7.424,-17.982 7.236,-27.231 0.395,-33.693C0.134,-33.939 -0.259,-33.548 0,-33.298" style="fill:rgb(35,31,32);fill-rule:nonzero;"/>
            </g>
        </g>
        <g transform="matrix(5.55556,0,0,5.55556,25423.2,0)">
            <g transform="matrix(1,0,0,1,122.628,331.267)">
                <path d="M0,-8.874C-0.177,-6.131 -0.973,-4.259 -3.567,-3.168C-4.125,-2.934 -5.275,-2.601 -5.354,-1.858C-5.452,-0.92 -4.628,-0.829 -3.923,-0.859C-1.288,-0.976 1.232,-2.094 3.89,-2.003C4.874,-1.97 11.077,0.34 11.658,-1.774C12.198,-3.733 7.426,-3.997 6.511,-4.012C6.187,-4.018 6.204,-3.554 6.511,-3.52C6.811,-3.487 10.767,-3.104 10.786,-2.27C10.815,-1.073 7.958,-1.893 7.332,-2.039C4.315,-2.743 1.991,-2.603 -1.049,-2C-1.483,-1.914 -3.731,-1.362 -3.923,-1.542C-4.7,-2.269 -3.678,-2.38 -3.193,-2.594C-2.613,-2.851 -2.074,-3.061 -1.567,-3.445C0.099,-4.709 0.552,-6.885 0.525,-8.874C0.521,-9.214 0.021,-9.209 0,-8.874" style="fill:rgb(35,31,32);fill-rule:nonzero;"/>
            </g>
        </g>
        <g transform="matrix(5.55556,0,0,5.55556,25423.2,0)">
            <g transform="matrix(1,0,0,1,125.336,328.777)">
                <path d="M0,-7.205C-0.285,-4.163 1.897,-2.8 4.626,-2.339C6.224,-2.069 7.858,-2.119 9.438,-1.738C9.745,-1.663 11.352,-1.321 11.284,-0.9C11.21,-0.438 8.518,-0.566 8.213,-0.568C7.829,-0.57 7.828,0.028 8.213,0.029C8.895,0.032 11.564,0.289 11.896,-0.744C12.17,-1.601 10.633,-2.006 10.102,-2.162C6.74,-3.149 0.084,-1.882 0.446,-7.205C0.466,-7.494 0.026,-7.488 0,-7.205" style="fill:rgb(35,31,32);fill-rule:nonzero;"/>
            </g>
        </g>
        <g transform="matrix(5.55556,0,0,5.55556,25423.2,0)">
            <g transform="matrix(1,0,0,1,136.301,322.875)">
                <path d="M0,-17.185C7.825,-16.877 0.225,-8.169 -1.96,-5.995C-4.01,-3.955 -6.261,-2.136 -8.355,-0.141C-8.663,0.152 -8.203,0.606 -7.891,0.324C-3.931,-3.258 1.661,-7.114 3.699,-12.253C5.12,-15.834 3.769,-17.764 0,-17.789C-0.39,-17.791 -0.388,-17.2 0,-17.185" style="fill:rgb(35,31,32);fill-rule:nonzero;"/>
            </g>
        </g>
        <g transform="matrix(5.55556,0,0,5.55556,25423.2,0)">
            <g transform="matrix(1,0,0,1,132.645,325.769)">
                <path d="M0,-1.606C0.872,-1.384 1.714,-1.267 2.608,-1.199C3.183,-1.155 3.904,-1.24 4.46,-1.068C5.614,-0.712 4.836,-0.771 4.029,-0.641C1.336,-0.208 -1.359,-0.095 -4.082,-0.229C-4.457,-0.247 -4.457,0.339 -4.082,0.355C-1.994,0.447 0.088,0.4 2.165,0.158C3.46,0.007 5.1,-0.031 6.274,-0.598C6.383,-0.65 6.41,-0.78 6.392,-0.887C6.303,-1.419 5.713,-1.387 5.262,-1.468C3.556,-1.775 1.816,-1.634 0.108,-1.999C-0.146,-2.053 -0.255,-1.671 0,-1.606" style="fill:rgb(35,31,32);fill-rule:nonzero;"/>
            </g>
        </g>
        <g transform="matrix(5.55556,0,0,5.55556,25423.2,0)">
            <g transform="matrix(1,0,0,1,128.088,323.454)">
                <path d="M0,-0.128C2.966,-1.021 6.564,-0.757 9.618,-0.602C10.597,-0.552 12.229,-0.685 13.103,-0.149C12.959,-0.237 13.107,-0.244 12.748,-0.208C12.44,-0.178 12.113,-0.054 11.807,0.004C10.524,0.246 9.22,0.354 7.924,0.5C7.553,0.541 7.542,1.125 7.924,1.09C9.344,0.961 10.792,0.811 12.188,0.517C12.517,0.448 13.378,0.368 13.566,0.005C14.001,-0.828 12.42,-0.912 11.941,-0.975C9.856,-1.247 7.718,-1.253 5.62,-1.201C3.743,-1.154 1.686,-1.155 -0.11,-0.526C-0.358,-0.44 -0.258,-0.05 0,-0.128" style="fill:rgb(35,31,32);fill-rule:nonzero;"/>
            </g>
        </g>
        <g transform="matrix(5.55556,0,0,5.55556,25423.2,0)">
            <g transform="matrix(1,0,0,1,90.9722,323.478)">
                <path d="M0,-18.391C-3.76,-18.366 -5.125,-16.447 -3.699,-12.855C-1.661,-7.717 3.931,-3.86 7.891,-0.279C8.203,0.003 8.663,-0.45 8.355,-0.743C6.261,-2.738 4.01,-4.558 1.96,-6.597C-0.225,-8.772 -7.826,-17.48 0,-17.787C0.387,-17.803 0.391,-18.394 0,-18.391" style="fill:rgb(35,31,32);fill-rule:nonzero;"/>
            </g>
        </g>
        <g transform="matrix(5.55556,0,0,5.55556,25423.2,0)">
            <g transform="matrix(1,0,0,1,94.6519,327.878)">
                <path d="M0,-3.565C-1.315,-3.134 -6.142,-3.252 -6.099,-1.407C-6.097,-1.298 -6.023,-1.195 -5.916,-1.167C-1.2,0.083 3.771,-2.425 8.603,-1.661C8.971,-1.602 9.128,-2.167 8.757,-2.224C5.418,-2.738 2.348,-2.067 -0.949,-1.628C-1.311,-1.58 -5.48,-1.014 -5.583,-1.596C-5.636,-1.899 -0.413,-2.984 0.108,-3.173C0.352,-3.261 0.252,-3.648 0,-3.565" style="fill:rgb(35,31,32);fill-rule:nonzero;"/>
            </g>
        </g>
        <g transform="matrix(5.55556,0,0,5.55556,25423.2,0)">
            <g transform="matrix(1,0,0,1,99.2983,325.123)">
                <path d="M0,-2.189C-1.81,-2.595 -3.782,-2.377 -5.608,-2.214C-7.708,-2.027 -9.835,-1.773 -11.888,-1.281C-12.318,-1.178 -14.102,-0.887 -13.563,-0.091C-13.343,0.233 -12.549,0.226 -12.227,0.259C-10.782,0.406 -9.299,0.384 -7.85,0.346C-7.471,0.336 -7.469,-0.246 -7.85,-0.244C-9.078,-0.239 -10.306,-0.205 -11.533,-0.27C-11.902,-0.289 -12.305,-0.379 -12.673,-0.37C-13.11,-0.359 -12.884,-0.49 -13.13,-0.269C-12.444,-0.885 -10.776,-0.952 -9.922,-1.102C-6.862,-1.637 -3.214,-2.344 -0.11,-1.79C0.148,-1.744 0.263,-2.13 0,-2.189" style="fill:rgb(35,31,32);fill-rule:nonzero;"/>
            </g>
        </g>
        <g transform="matrix(5.55556,0,0,5.55556,25423.2,0)">
            <g transform="matrix(1,0,0,1,108.434,323.454)">
                <path d="M0,2.107C0.46,2.427 1.451,1.944 1.895,1.696C2.458,1.383 2.88,0.845 2.829,0.174C2.791,-0.32 2.084,-0.235 2.152,0.265C2.236,0.885 1.506,1.224 1.039,1.403C0.674,1.544 0.178,1.556 -0.058,1.887C-0.111,1.962 -0.066,2.061 0,2.107" style="fill:rgb(35,31,32);fill-rule:nonzero;"/>
            </g>
        </g>
        <g transform="matrix(5.55556,0,0,5.55556,25423.2,0)">
            <g transform="matrix(1,0,0,1,118.384,325.689)">
                <path d="M0,-2.277C-0.614,-1.762 0.091,-0.945 0.563,-0.611C1.47,0.03 2.559,0.096 3.633,0.088C4.068,0.084 4.068,-0.587 3.633,-0.588C2.538,-0.592 0.247,-0.531 0.313,-2.147C0.32,-2.319 0.114,-2.373 0,-2.277" style="fill:rgb(35,31,32);fill-rule:nonzero;"/>
            </g>
        </g>
        <g transform="matrix(5.55556,0,0,5.55556,25423.2,0)">
            <g opacity="0.15">
                <g transform="matrix(1,0,0,1,100.689,331.711)">
                    <path d="M0,-9.041C-0.403,-9.041 -0.772,-8.908 -1.128,-8.848C-4.201,-8.328 -14.215,-9.125 -16.296,-7.787C-18.619,-6.294 -15.734,-3.439 -7.439,-1.282C0.856,0.875 5.309,0.25 10.12,0.416C14.931,0.581 21.573,-0.342 24.393,-1.005C27.213,-1.669 27.667,-0.243 33.958,-0.781C36.572,-1.005 45.665,-8.009 39.617,-8.756C30.221,-9.916 17.639,-8.099 12.828,-8.099C8.017,-8.099 4.147,-9.041 0,-9.041" style="fill:rgb(35,31,32);fill-rule:nonzero;"/>
                </g>
            </g>
        </g>
    </g>
</svg>
