<svg clip-rule="evenodd" fill-rule="evenodd" stroke-miterlimit="10" viewBox="0 0 1762 1039" xmlns="http://www.w3.org/2000/svg"><g fill="none" stroke="#231f20"><path d="m849.46276372 257.71350776h227.75573776v219.96128708h-227.75573776z" stroke-width="5.55556"/><path d="m1380.69096648 257.71350776h227.76129332v219.96128708h-227.76129332z" stroke-width="5.55556"/><path d="m-16.78 10.093h24.188l10.409 20.757-23.811-.603z" transform="matrix(2.94070235256 -4.71343710408 -4.71343710408 -2.94070235256 759.98491436 420.56363804)"/><path d="m27.88432868 498.25814464h446.250357v446.250357h-446.250357z" stroke-width="5.55556"/><path d="m0 53.51h80.325v-53.51h-48.764z" transform="matrix(5.55556 0 0 5.55556 27.88432868 200.9856846)"/><path d="m-226.694-26.775h226.694v26.775h-226.694z" transform="matrix(-5.55556 0 0 5.55556 474.26801912 943.19183392)"/><path d="m-226.694-106.546h226.694v106.546h-226.694z" transform="matrix(-5.55556 0 0 5.55556 474.26801912 794.44171492)"/><ellipse cx="30.048" rx="30.047" ry="30.048" transform="matrix(0 5.55556 5.55556 0 264.4234068 677.10273216)"/><ellipse cx="30.048" rx="30.047" ry="30.048" transform="matrix(0 5.55556 5.55556 0 1118.85186812 677.10273216)"/><ellipse cx="30.048" rx="30.047" ry="30.048" transform="matrix(0 5.55556 5.55556 0 1504.51328776 677.0971766)"/><path d="m0-31.137-24.382 31.137h48.764z" transform="matrix(5.55556 0 0 5.55556 338.6734662 200.98012904)"/></g></svg>