<?xml version="1.0" encoding="UTF-8" standalone="no"?>
<!DOCTYPE svg PUBLIC "-//W3C//DTD SVG 1.1//EN" "http://www.w3.org/Graphics/SVG/1.1/DTD/svg11.dtd">
<svg width="100%" height="100%" viewBox="0 0 2221 226" version="1.1" xmlns="http://www.w3.org/2000/svg" xmlns:xlink="http://www.w3.org/1999/xlink" xml:space="preserve" xmlns:serif="http://www.serif.com/" style="fill-rule:evenodd;clip-rule:evenodd;stroke-linecap:round;stroke-linejoin:round;stroke-miterlimit:10;">
    <g transform="matrix(1,0,0,1,-22590.5,-21072.7)">
        <g transform="matrix(5.55556,0,0,5.55556,21791.3,19133.9)">
            <g transform="matrix(1,0,0,1,534.082,348.984)">
                <path d="M0,40.535L-380.763,40.535C-385.988,40.535 -390.224,36.3 -390.224,31.074L-390.224,9.461C-390.224,4.236 -385.988,0 -380.763,0L0,0C5.226,0 9.461,4.236 9.461,9.461L9.461,31.074C9.461,36.3 5.226,40.535 0,40.535" style="fill:rgb(226,239,214);fill-rule:nonzero;"/>
            </g>
        </g>
        <g transform="matrix(5.55556,0,0,5.55556,21791.3,19133.9)">
            <g transform="matrix(1,0,0,1,-7.50615,0)">
                <g transform="matrix(0,-1,-1,0,184.902,352.745)">
                    <path d="M-15.947,-15.947C-24.755,-15.947 -31.892,-8.807 -31.892,-0.001C-31.892,8.807 -24.755,15.947 -15.947,15.947C-7.14,15.947 -0.001,8.807 -0.001,-0.001C-0.001,-8.807 -7.14,-15.947 -15.947,-15.947" style="fill:rgb(222,181,213);fill-rule:nonzero;"/>
                </g>
                <g transform="matrix(-1,0,0,1,462.312,-27.973)">
                    <rect x="206.376" y="380.717" width="49.56" height="31.893" style="fill:rgb(253,205,157);stroke:rgb(246,139,30);stroke-width:0.43px;"/>
                </g>
                <g transform="matrix(0,-1,-1,0,277.41,352.745)">
                    <path d="M-15.947,-15.947C-24.755,-15.947 -31.892,-8.807 -31.892,-0.001C-31.892,8.807 -24.755,15.947 -15.947,15.947C-7.14,15.947 -0.001,8.807 -0.001,-0.001C-0.001,-8.807 -7.14,-15.947 -15.947,-15.947" style="fill:rgb(222,181,213);fill-rule:nonzero;"/>
                </g>
                <g transform="matrix(-1,0,0,1,647.326,-27.973)">
                    <rect x="298.883" y="380.717" width="49.56" height="31.893" style="fill:rgb(253,205,157);stroke:rgb(246,139,30);stroke-width:0.43px;"/>
                </g>
                <g transform="matrix(0,-1,-1,0,369.917,352.745)">
                    <path d="M-15.947,-15.947C-24.755,-15.947 -31.892,-8.807 -31.892,-0.001C-31.892,8.807 -24.755,15.947 -15.947,15.947C-7.14,15.947 -0.001,8.807 -0.001,-0.001C-0.001,-8.807 -7.14,-15.947 -15.947,-15.947" style="fill:rgb(222,181,213);fill-rule:nonzero;"/>
                </g>
                <g transform="matrix(-1,0,0,1,832.34,-27.973)">
                    <rect x="391.39" y="380.717" width="49.56" height="31.893" style="fill:rgb(253,205,157);stroke:rgb(246,139,30);stroke-width:0.43px;"/>
                </g>
                <g transform="matrix(0,-1,-1,0,462.424,352.745)">
                    <path d="M-15.947,-15.947C-24.755,-15.947 -31.892,-8.808 -31.892,-0.001C-31.892,8.807 -24.755,15.947 -15.947,15.947C-7.14,15.947 -0.001,8.807 -0.001,-0.001C-0.001,-8.808 -7.14,-15.947 -15.947,-15.947" style="fill:rgb(222,181,213);fill-rule:nonzero;"/>
                </g>
                <g transform="matrix(-1,0,0,1,1017.36,-27.973)">
                    <rect x="483.897" y="380.717" width="49.561" height="31.893" style="fill:rgb(253,205,157);stroke:rgb(246,139,30);stroke-width:0.43px;"/>
                </g>
            </g>
        </g>
        <g transform="matrix(5.55556,0,0,5.55556,21791.3,19133.9)">
            <g transform="matrix(0,-1,-1,0,177.342,352.745)">
                <ellipse cx="-15.947" cy="0" rx="15.946" ry="15.947" style="fill:none;stroke:rgb(189,86,160);stroke-width:0.43px;"/>
            </g>
        </g>
        <g transform="matrix(5.55556,0,0,5.55556,21791.3,19133.9)">
            <g transform="matrix(0,-1,-1,0,269.85,352.745)">
                <ellipse cx="-15.947" cy="0" rx="15.946" ry="15.947" style="fill:none;stroke:rgb(189,86,160);stroke-width:0.43px;"/>
            </g>
        </g>
        <g transform="matrix(5.55556,0,0,5.55556,21791.3,19133.9)">
            <g transform="matrix(0,-1,-1,0,362.357,352.745)">
                <ellipse cx="-15.947" cy="0" rx="15.946" ry="15.947" style="fill:none;stroke:rgb(189,86,160);stroke-width:0.43px;"/>
            </g>
        </g>
        <g transform="matrix(5.55556,0,0,5.55556,21791.3,19133.9)">
            <g transform="matrix(0,-1,-1,0,454.864,352.745)">
                <ellipse cx="-15.947" cy="0" rx="15.946" ry="15.947" style="fill:none;stroke:rgb(189,86,160);stroke-width:0.43px;"/>
            </g>
        </g>
    </g>
</svg>
