<svg clip-rule="evenodd" fill-rule="evenodd" stroke-linecap="round" stroke-linejoin="round" stroke-miterlimit="10" viewBox="0 0 1952 181" xmlns="http://www.w3.org/2000/svg"><g stroke-width=".43"><g fill="#baa7d1" stroke="#74489d"><path d="m168.831 330.469h32.052v32.052h-32.052z" transform="matrix(-5.55556 0 0 5.55556 1117.16830984 -1834.67745616)"/><path d="m275.07 330.469h32.052v32.052h-32.052z" transform="matrix(-5.55556 0 0 5.55556 2297.60258752 -1834.67745616)"/><path d="m381.308 330.469h32.052v32.052h-32.052z" transform="matrix(-5.55556 0 0 5.55556 3478.02575408 -1834.67745616)"/><path d="m487.546 330.469h32.052v32.052h-32.052z" transform="matrix(-5.55556 0 0 5.55556 4658.4266984 -1834.67745616)"/></g><path d="m0-31.978-16.812 12.214 6.422 19.764h20.78l6.422-19.764z" fill="#cbbea4" fill-rule="nonzero" stroke="#927c45" transform="matrix(5.55556 0 0 5.55556 385.29550212 179.33526616)"/><path d="m0-31.978-16.812 12.214 6.421 19.764h20.782l6.421-19.764z" fill="#cbbea4" fill-rule="nonzero" stroke="#927c45" transform="matrix(5.55556 0 0 5.55556 975.5070854 179.33526616)"/><path d="m0-31.978-16.812 12.214 6.422 19.764h20.781l6.421-19.764z" fill="#cbbea4" fill-rule="nonzero" stroke="#927c45" transform="matrix(5.55556 0 0 5.55556 1565.71866868 179.33526616)"/></g></svg>