<svg clip-rule="evenodd" fill-rule="evenodd" stroke-linecap="round" stroke-linejoin="round" stroke-miterlimit="10" viewBox="0 0 2028 180" xmlns="http://www.w3.org/2000/svg"><path d="m-15.947-15.947c-8.808 0-15.945 7.14-15.945 15.946 0 8.808 7.137 15.948 15.945 15.948 8.807 0 15.946-7.14 15.946-15.948 0-8.806-7.139-15.946-15.946-15.946" fill="#deb5d5" fill-rule="nonzero" transform="matrix(0 -5.55556 -5.55556 0 89.73415512 1.1960122)"/><ellipse cx="-15.947" fill="none" rx="15.946" ry="15.947" stroke="#bd56a0" stroke-width=".43" transform="matrix(0 -5.55556 -5.55556 0 89.73415512 1.1960122)"/><path d="m206.376 380.717h49.56v31.893h-49.56z" fill="#fdcd9d" stroke="#f68b1e" stroke-width=".43" transform="matrix(-5.55556 0 0 5.55556 1630.90205472 -2113.90567988)"/><path d="m-15.947-15.947c-8.808 0-15.945 7.14-15.945 15.946 0 8.808 7.137 15.948 15.945 15.948 8.807 0 15.946-7.14 15.946-15.948 0-8.806-7.139-15.946-15.946-15.946" fill="#deb5d5" fill-rule="nonzero" transform="matrix(0 -5.55556 -5.55556 0 603.6678996 1.1960122)"/><ellipse cx="-15.947" fill="none" rx="15.946" ry="15.947" stroke="#bd56a0" stroke-width=".43" transform="matrix(0 -5.55556 -5.55556 0 603.6678996 1.1960122)"/><path d="m298.883 380.717h49.56v31.893h-49.56z" fill="#fdcd9d" stroke="#f68b1e" stroke-width=".43" transform="matrix(-5.55556 0 0 5.55556 2658.75843256 -2113.90567988)"/><path d="m-15.947-15.947c-8.808 0-15.945 7.14-15.945 15.946 0 8.808 7.137 15.948 15.945 15.948 8.807 0 15.946-7.14 15.946-15.948 0-8.806-7.139-15.946-15.946-15.946" fill="#deb5d5" fill-rule="nonzero" transform="matrix(0 -5.55556 -5.55556 0 1117.59608852 1.1960122)"/><ellipse cx="-15.947" fill="none" rx="15.946" ry="15.947" stroke="#bd56a0" stroke-width=".43" transform="matrix(0 -5.55556 -5.55556 0 1117.59608852 1.1960122)"/><path d="m391.39 380.717h49.56v31.893h-49.56z" fill="#fdcd9d" stroke="#f68b1e" stroke-width=".43" transform="matrix(-5.55556 0 0 5.55556 3686.6148104 -2113.90567988)"/><path d="m-15.947-15.947c-8.808 0-15.945 7.139-15.945 15.946 0 8.808 7.137 15.948 15.945 15.948 8.807 0 15.946-7.14 15.946-15.948 0-8.807-7.139-15.946-15.946-15.946" fill="#deb5d5" fill-rule="nonzero" transform="matrix(0 -5.55556 -5.55556 0 1631.52427744 1.1960122)"/><g stroke-width=".43"><ellipse cx="-15.947" fill="none" rx="15.946" ry="15.947" stroke="#bd56a0" transform="matrix(0 -5.55556 -5.55556 0 1631.52427744 1.1960122)"/><path d="m483.897 380.717h49.561v31.893h-49.561z" fill="#fdcd9d" stroke="#f68b1e" transform="matrix(-5.55556 0 0 5.55556 4714.5045216 -2113.90567988)"/></g></svg>