<svg clip-rule="evenodd" fill-rule="evenodd" stroke-linecap="round" stroke-linejoin="round" stroke-miterlimit="10" viewBox="0 0 1910 181" xmlns="http://www.w3.org/2000/svg"><g stroke-width=".43"><path d="m0 31.893h-31.893l15.744-31.893z" fill="#92c5eb" fill-rule="nonzero" stroke="#008fd4" transform="matrix(5.55556 0 0 5.55556 178.31203584 1.23468656)"/><path d="m228.001 428.826h32.052v32.052h-32.052z" fill="#baa7d1" stroke="#74489d" transform="matrix(-5.55556 0 0 5.55556 1733.81328024 -2381.133886)"/><path d="m0 31.893h-31.893l15.744-31.893z" fill="#92c5eb" fill-rule="nonzero" stroke="#008fd4" transform="matrix(5.55556 0 0 5.55556 755.07916392 1.23468656)"/><path d="m331.819 428.826h32.052v32.052h-32.052z" fill="#baa7d1" stroke="#74489d" transform="matrix(-5.55556 0 0 5.55556 2887.3475364 -2381.133886)"/><path d="m0 31.893h-31.893l15.744-31.893z" fill="#92c5eb" fill-rule="nonzero" stroke="#008fd4" transform="matrix(5.55556 0 0 5.55556 1331.846292 1.23468656)"/><path d="m0 31.893h-31.893l15.744-31.893z" fill="#92c5eb" fill-rule="nonzero" stroke="#008fd4" transform="matrix(5.55556 0 0 5.55556 1908.61897564 1.23468656)"/><path d="m435.637 428.826h32.052v32.052h-32.052z" fill="#baa7d1" stroke="#74489d" transform="matrix(-5.55556 0 0 5.55556 4040.88179256 -2381.133886)"/></g></svg>