<svg clip-rule="evenodd" fill-rule="evenodd" stroke-linecap="round" stroke-linejoin="round" stroke-miterlimit="10" viewBox="0 0 2221 226" xmlns="http://www.w3.org/2000/svg"><path d="m0 40.536h-380.763c-5.225 0-9.461-4.236-9.461-9.461v-21.613c0-5.226 4.236-9.462 9.461-9.462h380.763c5.226 0 9.461 4.236 9.461 9.462v21.613c0 5.225-4.235 9.461-9.461 9.461" fill="#fee5cc" fill-rule="nonzero" transform="matrix(5.55556 0 0 5.55556 2167.92459592 .07355652)"/><g stroke-width=".43"><path d="m0 31.893h-31.893l15.744-31.893z" fill="#92c5eb" fill-rule="nonzero" stroke="#008fd4" transform="matrix(5.55556 0 0 5.55556 333.688684088 23.73468656)"/><path d="m228.001 428.826h32.052v32.052h-32.052z" fill="#baa7d1" stroke="#74489d" transform="matrix(-5.55556 0 0 5.55556 1889.189928488 -2358.633886)"/><path d="m0 31.893h-31.893l15.744-31.893z" fill="#92c5eb" fill-rule="nonzero" stroke="#008fd4" transform="matrix(5.55556 0 0 5.55556 910.455812168 23.73468656)"/><path d="m331.819 428.826h32.052v32.052h-32.052z" fill="#baa7d1" stroke="#74489d" transform="matrix(-5.55556 0 0 5.55556 3042.724184648 -2358.633886)"/><path d="m0 31.893h-31.893l15.744-31.893z" fill="#92c5eb" fill-rule="nonzero" stroke="#008fd4" transform="matrix(5.55556 0 0 5.55556 1487.222940248 23.73468656)"/><path d="m0 31.893h-31.893l15.744-31.893z" fill="#92c5eb" fill-rule="nonzero" stroke="#008fd4" transform="matrix(5.55556 0 0 5.55556 2063.995623888 23.73468656)"/><path d="m435.637 428.826h32.052v32.052h-32.052z" fill="#baa7d1" stroke="#74489d" transform="matrix(-5.55556 0 0 5.55556 4196.258440808 -2358.633886)"/></g></svg>