<?xml version="1.0" encoding="UTF-8" standalone="no"?>
<!DOCTYPE svg PUBLIC "-//W3C//DTD SVG 1.1//EN" "http://www.w3.org/Graphics/SVG/1.1/DTD/svg11.dtd">
<svg width="100%" height="100%" viewBox="0 0 1886 1227" version="1.1" xmlns="http://www.w3.org/2000/svg" xmlns:xlink="http://www.w3.org/1999/xlink" xml:space="preserve" xmlns:serif="http://www.serif.com/" style="fill-rule:evenodd;clip-rule:evenodd;stroke-linecap:round;stroke-linejoin:round;stroke-miterlimit:10;">
    <g transform="matrix(1,0,0,1,-4482,-3065)">
        <g transform="matrix(4.16667,0,0,4.16667,3712.5,2868.75)">
            <g transform="matrix(-1,0,0,1,864.364,-173.231)">
                <rect x="231.567" y="343.668" width="401.23" height="97.895" style="fill:rgb(233,178,89);stroke:rgb(29,33,28);stroke-width:3px;"/>
            </g>
            <g transform="matrix(1,0,0,1,231.567,239.887)">
                <path d="M0,-69.449L-42.343,-0.845L1.114,0L0,-69.449Z" style="fill:rgb(170,129,63);fill-rule:nonzero;stroke:rgb(29,33,28);stroke-width:9px;"/>
            </g>
            <g transform="matrix(-0.525214,0.85097,0.85097,0.525214,671.35,315.427)">
                <path d="M-103.133,-108.957L-22.515,-108.957L60.791,-57.542L-19.827,-57.542L-103.133,-108.957Z" style="fill:rgb(170,129,63);fill-rule:nonzero;stroke:rgb(29,33,28);stroke-width:9px;"/>
            </g>
            <g transform="matrix(1,0,0,1,347.821,96.0957)">
                <path d="M0,-40.858C-4.002,-40.717 -7.958,-40.025 -11.658,-38.823C-7.598,-34.763 -4.184,-29.522 -4.139,-29.443C-1.059,-23.971 -0.92,-19.22 -0.775,-14.193L-0.707,-12.13C-0.555,-8.227 -0.492,-4.227 -0.665,-0.159C-0.313,-0.106 0.049,-0.045 0.392,0C3.137,-13.524 3.055,-27.427 0,-40.858" style="fill:rgb(168,131,72);fill-rule:nonzero;"/>
            </g>
            <g transform="matrix(1,0,0,1,371.773,191.992)">
                <path d="M0,-75.597C2.597,-76.331 5.451,-75.264 6.383,-73.218C7.313,-71.169 5.964,-68.913 3.369,-68.179C-5.907,-65.555 -15.107,-64.224 -23.771,-64.224C-24.596,-64.224 -25.391,-64.29 -26.204,-64.314C-26.397,-64.24 -26.545,-64.111 -26.751,-64.056C-27.27,-63.918 -27.806,-63.85 -28.342,-63.85C-29.225,-63.85 -30.1,-64.034 -30.878,-64.397L-31.373,-64.627C-32.805,-64.765 -34.24,-64.899 -35.631,-65.117C-49.869,-67.351 -62.188,-74.05 -68.584,-83.034C-69.933,-84.932 -69.081,-87.332 -66.677,-88.399C-64.276,-89.466 -61.231,-88.791 -59.881,-86.894C-55.782,-81.135 -48.408,-76.597 -39.58,-74.156C-37.174,-79.363 -35.79,-84.493 -35.104,-89.996C-37.637,-90.574 -40.138,-91.185 -42.589,-91.792C-51.696,-94.053 -60.321,-96.2 -69.35,-95.958C-82.641,-95.626 -96.038,-89.655 -105.186,-79.988C-113.167,-71.551 -118.084,-60.58 -119.802,-47.379C-121.187,-36.743 -120.794,-21.243 -111.079,-7.796C-102.323,4.32 -86.688,12.382 -71.245,12.742C-68.646,12.811 -65.971,12.67 -63.145,12.525C-60.707,12.402 -58.237,12.277 -55.741,12.277C-52.23,12.277 -48.672,12.525 -45.099,13.372C-42.002,14.106 -39.271,15.206 -36.629,16.269C-34.323,17.199 -32.146,18.076 -29.956,18.61C-21.766,20.603 -12.39,18.07 -4.242,15.539C4.553,12.805 11.638,10.226 17.621,6.525C23.746,2.735 29.221,-2.575 34.848,-10.183C43.905,-22.427 53.598,-41.022 48.335,-60.081C44.011,-75.733 26.556,-91.586 5.829,-89.94C2.453,-89.67 -0.597,-89.244 -3.542,-88.831C-7.459,-88.283 -11.272,-87.761 -15.456,-87.633C-16.896,-82.384 -18.747,-77.223 -21.002,-72.17C-14.292,-72.42 -7.203,-73.558 0,-75.597" style="fill:rgb(187,13,17);fill-rule:nonzero;"/>
            </g>
            <g transform="matrix(1,0,0,1,429.86,176.843)">
                <path d="M0,-46.611C-5.355,-65.983 -26.742,-84.764 -53.264,-82.63C-57.011,-82.33 -60.245,-81.878 -63.37,-81.44C-66.284,-81.034 -68.947,-80.672 -71.643,-80.478C-72.161,-77.795 -72.814,-75.134 -73.543,-72.484C-69.359,-72.612 -65.546,-73.133 -61.629,-73.682C-58.684,-74.095 -55.634,-74.521 -52.258,-74.791C-31.531,-76.437 -14.076,-60.584 -9.752,-44.932C-4.489,-25.873 -14.182,-7.278 -23.239,4.966C-28.866,12.575 -34.341,17.884 -40.466,21.674C-46.449,25.375 -53.534,27.954 -62.329,30.688C-70.477,33.219 -79.853,35.752 -88.043,33.759C-90.232,33.225 -92.41,32.348 -94.716,31.418C-97.357,30.355 -100.089,29.255 -103.186,28.521C-106.759,27.674 -110.317,27.426 -113.828,27.426C-116.324,27.426 -118.794,27.551 -121.231,27.674C-124.058,27.819 -126.732,27.96 -129.332,27.891C-144.774,27.532 -160.41,19.469 -169.166,7.353C-178.881,-6.094 -179.273,-21.594 -177.889,-32.23C-176.171,-45.431 -171.254,-56.402 -163.272,-64.839C-154.125,-74.506 -140.728,-80.477 -127.437,-80.809C-118.408,-81.051 -109.783,-78.904 -100.676,-76.643C-98.225,-76.036 -95.724,-75.424 -93.19,-74.847C-92.866,-77.441 -92.672,-80.111 -92.606,-82.93C-94.282,-83.33 -95.954,-83.731 -97.682,-84.16C-107.182,-86.517 -117.027,-88.961 -127.753,-88.685C-144.051,-88.278 -160.321,-81.125 -171.27,-69.553C-180.348,-59.96 -185.915,-47.673 -187.82,-33.035C-190.016,-16.139 -186.564,-0.824 -177.838,11.255C-167.396,25.706 -148.473,35.327 -129.628,35.768C-126.556,35.84 -123.523,35.686 -120.594,35.538C-115.374,35.274 -110.449,35.026 -106.055,36.068C-103.823,36.597 -101.604,37.492 -99.255,38.438C-96.672,39.478 -94.001,40.554 -90.982,41.287C-87.928,42.033 -84.842,42.35 -81.745,42.35C-73.965,42.35 -66.139,40.338 -58.672,38.019C-50.928,35.612 -42.02,32.645 -34.31,27.876C-27.158,23.45 -20.899,17.433 -14.618,8.94C-4.667,-4.514 5.948,-25.071 0,-46.611" style="fill:rgb(30,19,15);fill-rule:nonzero;"/>
            </g>
            <g transform="matrix(1,0,0,1,346.594,95.9365)">
                <path d="M0,7.016C0.63,4.745 1.153,2.456 1.619,0.16C1.276,0.115 0.914,0.053 0.562,0C0.464,2.318 0.309,4.651 0,7.016" style="fill:rgb(30,19,15);fill-rule:nonzero;"/>
            </g>
            <g transform="matrix(1,0,0,1,311.892,124.793)">
                <path d="M0,-19.695C-1.351,-21.592 -4.396,-22.267 -6.796,-21.2C-9.2,-20.133 -10.052,-17.733 -8.703,-15.836C-2.308,-6.851 10.012,-0.152 24.25,2.082C25.641,2.3 27.076,2.434 28.508,2.572L21.719,-0.591C19.604,-1.575 18.713,-3.628 19.613,-5.429C19.869,-5.941 20.065,-6.448 20.301,-6.957C11.473,-9.398 4.099,-13.936 0,-19.695" style="fill:rgb(30,19,15);fill-rule:nonzero;"/>
            </g>
            <g transform="matrix(1,0,0,1,345.569,115.75)">
                <path d="M0,11.928C0.813,11.951 1.608,12.018 2.433,12.018C11.097,12.018 20.297,10.687 29.573,8.063C32.168,7.328 33.518,5.073 32.587,3.024C31.655,0.978 28.801,-0.09 26.204,0.645C19.001,2.684 11.912,3.822 5.202,4.072C4.324,6.038 3.481,8.017 2.481,9.945C2.014,10.845 1.094,11.507 0,11.928" style="fill:rgb(30,19,15);fill-rule:nonzero;"/>
            </g>
            <g transform="matrix(1,0,0,1,340.895,127.912)">
                <path d="M0,-0.317C0.778,0.045 1.653,0.23 2.536,0.23C3.072,0.23 3.608,0.162 4.127,0.024C4.333,-0.031 4.48,-0.16 4.674,-0.234C2.926,-0.286 1.201,-0.383 -0.495,-0.547L0,-0.317Z" style="fill:rgb(30,19,15);fill-rule:nonzero;"/>
            </g>
            <g transform="matrix(1,0,0,1,343.501,118.577)">
                <path d="M0,-15.172C-2.306,-15.581 -4.581,-16.068 -6.832,-16.581C-7.519,-11.077 -8.902,-5.947 -11.309,-0.74C-9.398,-0.213 -7.444,0.252 -5.414,0.57C-1.408,1.197 2.851,1.409 7.27,1.245C9.524,-3.808 11.375,-8.969 12.815,-14.218C8.984,-14.101 4.845,-14.312 0,-15.172" style="fill:rgb(30,19,15);fill-rule:nonzero;"/>
            </g>
            <g transform="matrix(1,0,0,1,347.156,47.552)">
                <path d="M0,48.385C0.173,44.317 0.11,40.317 -0.042,36.413L-0.11,34.351C-0.255,29.323 -0.394,24.573 -3.474,19.101C-3.519,19.022 -6.933,13.781 -10.993,9.721C-7.293,8.519 -3.337,7.826 0.665,7.686C3.72,21.116 3.802,35.02 1.057,48.544C4.737,49.023 7.928,49.038 11.061,48.813C13.996,33.608 13.622,17.981 9.681,2.989C9.225,1.258 7.362,-0.022 5.128,-0.14C-4.653,-0.653 -14.489,1.427 -22.621,5.73C-22.621,5.732 -22.623,5.732 -22.625,5.734L-22.627,5.734C-24.914,6.946 -25.525,9.393 -23.989,11.199C-23.188,12.143 -21.962,12.725 -20.646,12.894C-18.352,14.717 -13.538,20.697 -12.594,22.303C-10.326,26.33 -10.222,29.949 -10.089,34.531L-10.021,36.656C-9.886,40.099 -9.832,43.308 -9.903,46.361C-7.082,47.032 -4.287,47.664 -1.468,48.164C-0.959,48.255 -0.489,48.312 0,48.385" style="fill:rgb(30,19,15);fill-rule:nonzero;"/>
            </g>
            <g transform="matrix(1,0,0,1,343.501,94.9837)">
                <path d="M0,8.421C4.845,9.281 8.984,9.492 12.815,9.375C13.544,6.725 14.197,4.065 14.716,1.381C11.583,1.607 8.393,1.591 4.712,1.112C4.246,3.409 3.723,5.698 3.093,7.969C3.401,5.604 3.557,3.271 3.655,0.953C3.166,0.88 2.696,0.823 2.188,0.733C-0.632,0.233 -3.427,-0.399 -6.248,-1.071C-6.313,1.748 -6.508,4.418 -6.832,7.012C-4.581,7.525 -2.306,8.012 0,8.421" style="fill:rgb(30,19,15);fill-rule:nonzero;"/>
            </g>
            <g transform="matrix(1,0,0,1,343.501,94.9837)">
                <path d="M0,8.421C4.845,9.281 8.984,9.492 12.815,9.375C13.544,6.725 14.197,4.065 14.716,1.381C11.583,1.607 8.393,1.591 4.712,1.112C4.246,3.409 3.723,5.698 3.093,7.969C3.401,5.604 3.557,3.271 3.655,0.953C3.166,0.88 2.696,0.823 2.188,0.733C-0.632,0.233 -3.427,-0.399 -6.248,-1.071C-6.313,1.748 -6.508,4.418 -6.832,7.012C-4.581,7.525 -2.306,8.012 0,8.421" style="fill:rgb(30,19,15);fill-rule:nonzero;"/>
            </g>
            <g transform="matrix(1,0,0,1,333.611,121.314)">
                <path d="M0,2.888L6.789,6.051C8.485,6.215 10.21,6.313 11.958,6.365C13.052,5.944 13.972,5.282 14.439,4.381C15.439,2.453 16.282,0.475 17.16,-1.492C12.741,-1.328 8.482,-1.54 4.477,-2.167C2.446,-2.485 0.492,-2.95 -1.418,-3.477C-1.653,-2.968 -1.85,-2.462 -2.105,-1.95C-3.006,-0.148 -2.115,1.905 0,2.888" style="fill:rgb(30,19,15);fill-rule:nonzero;"/>
            </g>
            <g transform="matrix(1,0,0,1,333.611,121.314)">
                <path d="M0,2.888L6.789,6.051C8.485,6.215 10.21,6.313 11.958,6.365C13.052,5.944 13.972,5.282 14.439,4.381C15.439,2.453 16.282,0.475 17.16,-1.492C12.741,-1.328 8.482,-1.54 4.477,-2.167C2.446,-2.485 0.492,-2.95 -1.418,-3.477C-1.653,-2.968 -1.85,-2.462 -2.105,-1.95C-3.006,-0.148 -2.115,1.905 0,2.888" style="fill:rgb(30,19,15);fill-rule:nonzero;"/>
            </g>
            <g opacity="0.42">
                <g transform="matrix(1,0,0,1,311.263,141.145)">
                    <path d="M0,-18.347C-4.235,-21.016 -8.035,-24.116 -12.487,-26.553C-16.94,-28.99 -22.288,-30.763 -27.673,-30.285C-33.058,-29.809 -38.269,-26.554 -38.757,-22.294C-39.019,-20.011 -37.965,-17.768 -36.771,-15.678C-31.737,-6.858 -23.49,1.143 -12.354,5.183C-7.708,6.869 -2.701,7.826 2.269,8.773C11.309,10.496 20.444,12.229 29.743,12.3C44.658,12.416 59.25,8.201 71.896,1.958C76.006,-0.072 80.048,-2.401 82.638,-5.636C84.264,-7.668 85.257,-10.246 84.128,-12.479C82.755,-15.195 78.608,-16.495 74.92,-16.227C68.249,-15.74 64.576,-11.374 58.461,-9.846C51.971,-8.223 45.068,-7.539 38.272,-7.659C24.517,-7.899 10.787,-11.548 0,-18.347" style="fill:white;fill-rule:nonzero;"/>
                </g>
            </g>
            <g transform="matrix(1,0,0,1,541.219,104.338)">
                <path d="M0,-40.858C-4.003,-40.717 -7.958,-40.025 -11.658,-38.823C-7.598,-34.763 -4.184,-29.522 -4.139,-29.443C-1.059,-23.971 -0.92,-19.22 -0.775,-14.193L-0.708,-12.13C-0.555,-8.227 -0.492,-4.227 -0.665,-0.159C-0.313,-0.106 0.048,-0.045 0.392,0C3.136,-13.524 3.055,-27.427 0,-40.858" style="fill:rgb(168,131,72);fill-rule:nonzero;"/>
            </g>
            <g transform="matrix(1,0,0,1,565.17,200.234)">
                <path d="M0,-75.597C2.597,-76.33 5.451,-75.264 6.383,-73.217C7.313,-71.169 5.964,-68.913 3.369,-68.179C-5.907,-65.555 -15.107,-64.224 -23.771,-64.224C-24.596,-64.224 -25.391,-64.29 -26.205,-64.314C-26.397,-64.24 -26.545,-64.111 -26.751,-64.056C-27.27,-63.918 -27.806,-63.85 -28.342,-63.85C-29.225,-63.85 -30.101,-64.034 -30.878,-64.397L-31.373,-64.627C-32.806,-64.765 -34.24,-64.899 -35.631,-65.117C-49.869,-67.351 -62.189,-74.05 -68.584,-83.034C-69.933,-84.932 -69.081,-87.332 -66.677,-88.399C-64.277,-89.465 -61.231,-88.791 -59.881,-86.894C-55.782,-81.135 -48.408,-76.596 -39.58,-74.156C-37.175,-79.363 -35.791,-84.493 -35.104,-89.996C-37.637,-90.574 -40.138,-91.185 -42.59,-91.792C-51.696,-94.053 -60.321,-96.2 -69.35,-95.958C-82.641,-95.626 -96.038,-89.655 -105.186,-79.988C-113.168,-71.551 -118.085,-60.579 -119.802,-47.379C-121.187,-36.743 -120.795,-21.243 -111.079,-7.796C-102.324,4.32 -86.688,12.382 -71.245,12.742C-68.646,12.811 -65.972,12.67 -63.145,12.525C-60.707,12.402 -58.237,12.278 -55.741,12.278C-52.23,12.278 -48.672,12.525 -45.099,13.372C-42.003,14.106 -39.271,15.206 -36.63,16.269C-34.323,17.199 -32.146,18.076 -29.956,18.61C-21.766,20.603 -12.39,18.07 -4.242,15.539C4.553,12.805 11.638,10.226 17.621,6.525C23.746,2.735 29.221,-2.575 34.848,-10.183C43.905,-22.427 53.597,-41.022 48.335,-60.081C44.011,-75.732 26.556,-91.586 5.829,-89.94C2.452,-89.67 -0.597,-89.244 -3.542,-88.831C-7.459,-88.283 -11.273,-87.761 -15.456,-87.633C-16.896,-82.384 -18.747,-77.223 -21.002,-72.17C-14.292,-72.42 -7.204,-73.558 0,-75.597" style="fill:rgb(187,13,17);fill-rule:nonzero;"/>
            </g>
            <g transform="matrix(1,0,0,1,623.257,185.085)">
                <path d="M0,-46.611C-5.355,-65.983 -26.743,-84.764 -53.264,-82.63C-57.011,-82.33 -60.245,-81.878 -63.37,-81.44C-66.284,-81.033 -68.947,-80.673 -71.644,-80.478C-72.161,-77.795 -72.815,-75.134 -73.543,-72.484C-69.36,-72.612 -65.546,-73.133 -61.629,-73.682C-58.684,-74.095 -55.635,-74.521 -52.258,-74.791C-31.531,-76.437 -14.076,-60.583 -9.752,-44.932C-4.49,-25.873 -14.182,-7.278 -23.239,4.966C-28.866,12.575 -34.341,17.884 -40.466,21.674C-46.449,25.375 -53.534,27.954 -62.329,30.688C-70.477,33.219 -79.853,35.752 -88.043,33.759C-90.232,33.225 -92.41,32.348 -94.717,31.418C-97.358,30.355 -100.09,29.255 -103.186,28.521C-106.759,27.674 -110.317,27.427 -113.828,27.427C-116.324,27.427 -118.794,27.551 -121.231,27.674C-124.059,27.819 -126.733,27.96 -129.332,27.891C-144.774,27.532 -160.411,19.469 -169.166,7.353C-178.882,-6.094 -179.273,-21.594 -177.889,-32.23C-176.172,-45.43 -171.255,-56.402 -163.272,-64.839C-154.125,-74.506 -140.728,-80.477 -127.437,-80.809C-118.408,-81.05 -109.783,-78.904 -100.677,-76.643C-98.225,-76.036 -95.724,-75.424 -93.19,-74.847C-92.866,-77.441 -92.672,-80.111 -92.606,-82.93C-94.282,-83.33 -95.954,-83.731 -97.682,-84.16C-107.183,-86.517 -117.027,-88.961 -127.753,-88.685C-144.052,-88.278 -160.321,-81.125 -171.271,-69.553C-180.348,-59.96 -185.916,-47.673 -187.82,-33.035C-190.016,-16.139 -186.564,-0.824 -177.839,11.255C-167.396,25.706 -148.474,35.327 -129.628,35.768C-126.556,35.84 -123.524,35.686 -120.594,35.538C-115.375,35.274 -110.45,35.026 -106.056,36.068C-103.823,36.597 -101.604,37.492 -99.255,38.438C-96.672,39.478 -94.001,40.554 -90.982,41.287C-87.928,42.033 -84.842,42.35 -81.745,42.35C-73.965,42.35 -66.139,40.338 -58.672,38.019C-50.928,35.613 -42.021,32.645 -34.31,27.876C-27.158,23.451 -20.899,17.433 -14.618,8.94C-4.667,-4.513 5.948,-25.071 0,-46.611" style="fill:rgb(30,19,15);fill-rule:nonzero;"/>
            </g>
            <g transform="matrix(1,0,0,1,539.99,104.179)">
                <path d="M0,7.016C0.63,4.745 1.154,2.456 1.62,0.16C1.276,0.115 0.915,0.053 0.563,0C0.464,2.318 0.31,4.651 0,7.016" style="fill:rgb(30,19,15);fill-rule:nonzero;"/>
            </g>
            <g transform="matrix(1,0,0,1,505.289,133.036)">
                <path d="M0,-19.696C-1.351,-21.593 -4.396,-22.267 -6.796,-21.201C-9.2,-20.134 -10.052,-17.734 -8.703,-15.837C-2.309,-6.852 10.012,-0.153 24.25,2.081C25.641,2.299 27.075,2.433 28.508,2.571L21.719,-0.592C19.604,-1.575 18.713,-3.629 19.613,-5.43C19.869,-5.942 20.065,-6.449 20.301,-6.958C11.473,-9.398 4.099,-13.937 0,-19.696" style="fill:rgb(30,19,15);fill-rule:nonzero;"/>
            </g>
            <g transform="matrix(1,0,0,1,538.965,123.993)">
                <path d="M0,11.927C0.814,11.95 1.609,12.017 2.434,12.017C11.098,12.017 20.298,10.686 29.574,8.062C32.169,7.327 33.519,5.072 32.588,3.024C31.656,0.977 28.802,-0.09 26.205,0.644C19.001,2.683 11.913,3.821 5.203,4.071C4.325,6.037 3.482,8.016 2.482,9.944C2.015,10.844 1.095,11.506 0,11.927" style="fill:rgb(30,19,15);fill-rule:nonzero;"/>
            </g>
            <g transform="matrix(1,0,0,1,534.292,136.154)">
                <path d="M0,-0.317C0.777,0.045 1.653,0.23 2.536,0.23C3.072,0.23 3.608,0.162 4.127,0.024C4.333,-0.031 4.48,-0.16 4.673,-0.234C2.926,-0.286 1.201,-0.383 -0.495,-0.547L0,-0.317Z" style="fill:rgb(30,19,15);fill-rule:nonzero;"/>
            </g>
            <g transform="matrix(1,0,0,1,536.899,126.819)">
                <path d="M0,-15.172C-2.306,-15.581 -4.581,-16.068 -6.832,-16.581C-7.52,-11.077 -8.903,-5.947 -11.309,-0.74C-9.398,-0.213 -7.445,0.252 -5.414,0.57C-1.408,1.197 2.851,1.409 7.27,1.245C9.524,-3.808 11.375,-8.969 12.815,-14.218C8.983,-14.1 4.845,-14.312 0,-15.172" style="fill:rgb(30,19,15);fill-rule:nonzero;"/>
            </g>
            <g transform="matrix(1,0,0,1,540.554,55.7941)">
                <path d="M0,48.385C0.173,44.317 0.11,40.317 -0.043,36.413L-0.11,34.351C-0.255,29.324 -0.394,24.573 -3.474,19.101C-3.519,19.022 -6.933,13.781 -10.993,9.721C-7.293,8.519 -3.338,7.826 0.665,7.686C3.72,21.116 3.801,35.02 1.057,48.544C4.736,49.023 7.928,49.038 11.06,48.813C13.996,33.608 13.621,17.981 9.68,2.99C9.224,1.258 7.362,-0.022 5.128,-0.14C-4.653,-0.653 -14.489,1.427 -22.621,5.731C-22.621,5.732 -22.623,5.732 -22.625,5.734L-22.627,5.734C-24.914,6.946 -25.526,9.393 -23.99,11.199C-23.188,12.143 -21.962,12.725 -20.646,12.894C-18.352,14.718 -13.538,20.697 -12.595,22.303C-10.327,26.33 -10.222,29.949 -10.089,34.532L-10.021,36.657C-9.886,40.099 -9.832,43.309 -9.903,46.361C-7.082,47.032 -4.287,47.664 -1.468,48.164C-0.96,48.255 -0.489,48.312 0,48.385" style="fill:rgb(30,19,15);fill-rule:nonzero;"/>
            </g>
            <g transform="matrix(1,0,0,1,536.899,103.227)">
                <path d="M0,8.42C4.845,9.28 8.983,9.492 12.815,9.374C13.543,6.724 14.197,4.064 14.715,1.38C11.583,1.606 8.392,1.59 4.712,1.111C4.246,3.408 3.722,5.697 3.092,7.968C3.401,5.603 3.556,3.27 3.655,0.952C3.166,0.879 2.695,0.822 2.188,0.732C-0.632,0.232 -3.427,-0.4 -6.248,-1.072C-6.313,1.747 -6.508,4.417 -6.832,7.011C-4.581,7.524 -2.306,8.011 0,8.42" style="fill:rgb(30,19,15);fill-rule:nonzero;"/>
            </g>
            <g transform="matrix(1,0,0,1,536.899,103.227)">
                <path d="M0,8.42C4.845,9.28 8.983,9.492 12.815,9.374C13.543,6.724 14.197,4.064 14.715,1.38C11.583,1.606 8.392,1.59 4.712,1.111C4.246,3.408 3.722,5.697 3.092,7.968C3.401,5.603 3.556,3.27 3.655,0.952C3.166,0.879 2.695,0.822 2.188,0.732C-0.632,0.232 -3.427,-0.4 -6.248,-1.072C-6.313,1.747 -6.508,4.417 -6.832,7.011C-4.581,7.524 -2.306,8.011 0,8.42" style="fill:rgb(30,19,15);fill-rule:nonzero;"/>
            </g>
            <g transform="matrix(1,0,0,1,527.008,129.555)">
                <path d="M0,2.89L6.789,6.052C8.485,6.216 10.21,6.314 11.957,6.366C13.052,5.945 13.972,5.283 14.439,4.382C15.439,2.454 16.282,0.476 17.16,-1.491C12.741,-1.327 8.482,-1.539 4.477,-2.166C2.445,-2.484 0.492,-2.949 -1.418,-3.476C-1.653,-2.967 -1.85,-2.461 -2.105,-1.949C-3.006,-0.147 -2.115,1.907 0,2.89" style="fill:rgb(30,19,15);fill-rule:nonzero;"/>
            </g>
            <g transform="matrix(1,0,0,1,527.008,129.555)">
                <path d="M0,2.89L6.789,6.052C8.485,6.216 10.21,6.314 11.957,6.366C13.052,5.945 13.972,5.283 14.439,4.382C15.439,2.454 16.282,0.476 17.16,-1.491C12.741,-1.327 8.482,-1.539 4.477,-2.166C2.445,-2.484 0.492,-2.949 -1.418,-3.476C-1.653,-2.967 -1.85,-2.461 -2.105,-1.949C-3.006,-0.147 -2.115,1.907 0,2.89" style="fill:rgb(30,19,15);fill-rule:nonzero;"/>
            </g>
            <g opacity="0.42">
                <g transform="matrix(1,0,0,1,504.659,149.387)">
                    <path d="M0,-18.347C-4.234,-21.016 -8.034,-24.116 -12.487,-26.553C-16.939,-28.99 -22.287,-30.763 -27.672,-30.285C-33.057,-29.809 -38.268,-26.554 -38.756,-22.294C-39.018,-20.011 -37.964,-17.768 -36.771,-15.678C-31.736,-6.858 -23.489,1.143 -12.353,5.183C-7.707,6.869 -2.7,7.826 2.27,8.773C11.31,10.496 20.444,12.229 29.744,12.3C44.658,12.416 59.251,8.202 71.896,1.958C76.007,-0.072 80.048,-2.4 82.638,-5.636C84.265,-7.668 85.258,-10.246 84.129,-12.479C82.756,-15.194 78.609,-16.495 74.921,-16.227C68.25,-15.74 64.577,-11.374 58.462,-9.845C51.972,-8.223 45.069,-7.539 38.272,-7.659C24.518,-7.899 10.788,-11.548 0,-18.347" style="fill:white;fill-rule:nonzero;"/>
                </g>
            </g>
            <g transform="matrix(1,0,0,1,249.587,169.531)">
                <path d="M0,-34.781C-3.299,-32.986 -6.187,-30.743 -8.517,-28.176C-2.346,-26.433 4.07,-23.42 4.161,-23.372C10.449,-20.022 13.759,-16.052 17.26,-11.851L18.703,-10.132C21.456,-6.886 24.196,-3.521 26.783,0C27.117,-0.103 27.465,-0.202 27.786,-0.308C21.025,-12.923 11.613,-24.675 0,-34.781" style="fill:rgb(168,131,72);fill-rule:nonzero;"/>
            </g>
            <g transform="matrix(1,0,0,1,310.986,262.773)">
                <path d="M0,-86.205C1.709,-87.914 4.845,-88.205 7.011,-86.86C9.175,-85.514 9.548,-83.036 7.841,-81.327C1.74,-75.219 -5.165,-70.238 -12.51,-66.611C-13.208,-66.266 -13.927,-65.989 -14.633,-65.669C-14.746,-65.525 -14.785,-65.354 -14.923,-65.222C-15.27,-64.887 -15.678,-64.605 -16.133,-64.381C-16.882,-64.011 -17.748,-63.801 -18.65,-63.782L-19.225,-63.77C-20.531,-63.287 -21.838,-62.8 -23.163,-62.402C-36.735,-58.336 -51.681,-58.856 -63.139,-63.796C-65.558,-64.84 -66.448,-67.231 -65.127,-69.142C-63.81,-71.051 -60.774,-71.754 -58.354,-70.712C-51.01,-67.545 -41.709,-66.785 -32.585,-68.412C-34.045,-73.834 -36.318,-78.761 -39.435,-83.716C-41.97,-83.143 -44.5,-82.614 -46.987,-82.103C-56.227,-80.207 -64.98,-78.416 -72.473,-74.431C-83.517,-68.585 -90.861,-57.914 -92.12,-45.888C-93.218,-35.394 -90.015,-24.035 -82.6,-12.125C-76.627,-2.529 -65.879,10.446 -48.607,17.779C-33.044,24.385 -14.371,24.673 -1.037,18.513C1.213,17.483 3.385,16.243 5.685,14.938C7.668,13.813 9.678,12.673 11.794,11.628C14.771,10.157 17.953,8.878 21.552,8.1C24.669,7.426 27.724,7.215 30.678,7.01C33.258,6.832 35.693,6.664 37.908,6.2C46.19,4.461 52.437,-1.612 57.643,-7.169C63.262,-13.168 67.535,-18.321 70.12,-23.964C72.767,-29.742 73.84,-36.535 73.497,-45.341C72.949,-59.513 68.67,-79.334 51.401,-93.288C37.22,-104.746 11.769,-110.878 -4.695,-100.805C-7.377,-99.162 -9.676,-97.524 -11.896,-95.941C-14.847,-93.837 -17.729,-91.797 -21.189,-89.937C-18.884,-84.884 -16.985,-79.734 -15.502,-74.507C-9.98,-77.528 -4.736,-81.461 0,-86.205" style="fill:rgb(187,13,17);fill-rule:nonzero;"/>
            </g>
            <g transform="matrix(1,0,0,1,369.527,274.456)">
                <path d="M0,-110.478C-17.558,-124.658 -48.309,-131.625 -69.357,-118.712C-72.332,-116.889 -74.77,-115.151 -77.126,-113.472C-79.322,-111.908 -81.337,-110.486 -83.492,-109.193C-82.128,-106.701 -80.895,-104.172 -79.73,-101.621C-76.271,-103.48 -73.388,-105.52 -70.437,-107.624C-68.217,-109.207 -65.918,-110.845 -63.236,-112.488C-46.772,-122.561 -21.321,-116.429 -7.14,-104.971C10.129,-91.017 14.408,-71.196 14.956,-57.024C15.299,-48.218 14.226,-41.425 11.579,-35.647C8.994,-30.004 4.721,-24.851 -0.898,-18.852C-6.104,-13.295 -12.351,-7.222 -20.633,-5.483C-22.848,-5.019 -25.283,-4.851 -27.863,-4.673C-30.817,-4.468 -33.872,-4.257 -36.989,-3.583C-40.588,-2.805 -43.771,-1.526 -46.747,-0.055C-48.863,0.99 -50.873,2.129 -52.856,3.254C-55.156,4.56 -57.328,5.8 -59.578,6.83C-72.912,12.99 -91.585,12.702 -107.148,6.096C-124.42,-1.237 -135.168,-14.212 -141.141,-23.808C-148.556,-35.718 -151.759,-47.078 -150.661,-57.571C-149.402,-69.597 -142.058,-80.268 -131.014,-86.114C-123.521,-90.099 -114.768,-91.89 -105.528,-93.787C-103.041,-94.297 -100.511,-94.827 -97.976,-95.399C-99.443,-97.732 -101.073,-100.078 -102.912,-102.495C-104.601,-102.131 -106.287,-101.772 -108.04,-101.412C-117.679,-99.433 -127.667,-97.382 -136.574,-92.659C-150.117,-85.49 -159.103,-72.614 -160.609,-58.22C-161.858,-46.287 -158.322,-33.54 -150.101,-20.332C-140.608,-5.09 -127.392,6.449 -111.878,13.035C-93.315,20.914 -70.809,21.147 -54.537,13.63C-51.884,12.406 -49.417,11.005 -47.032,9.654C-42.785,7.244 -38.777,4.972 -34.352,4.015C-32.104,3.53 -29.622,3.359 -26.994,3.177C-24.105,2.978 -21.118,2.772 -18.066,2.13C-14.976,1.483 -12.146,0.46 -9.521,-0.836C-2.926,-4.094 2.357,-9.076 7.129,-14.168C12.076,-19.451 17.634,-25.696 20.966,-32.967C24.055,-39.713 25.316,-47.434 24.935,-57.264C24.331,-72.835 19.517,-94.707 0,-110.478" style="fill:rgb(30,19,15);fill-rule:nonzero;"/>
            </g>
            <g transform="matrix(1,0,0,1,280.608,169.223)">
                <path d="M0,6.491C-0.992,4.303 -2.086,2.142 -3.234,0C-3.556,0.106 -3.903,0.205 -4.237,0.308C-2.764,2.313 -1.327,4.356 0,6.491" style="fill:rgb(30,19,15);fill-rule:nonzero;"/>
            </g>
            <g transform="matrix(1,0,0,1,252.631,203.395)">
                <path d="M0,-11.334C-2.42,-12.376 -5.455,-11.673 -6.772,-9.764C-8.094,-7.854 -7.203,-5.462 -4.784,-4.418C6.674,0.521 21.619,1.042 35.191,-3.024C36.517,-3.422 37.823,-3.909 39.13,-4.393L31.249,-4.231C28.796,-4.179 26.66,-5.547 26.213,-7.451C26.086,-7.992 25.912,-8.504 25.77,-9.034C16.646,-7.407 7.345,-8.167 0,-11.334" style="fill:rgb(30,19,15);fill-rule:nonzero;"/>
            </g>
            <g transform="matrix(1,0,0,1,296.353,174.568)">
                <path d="M0,22.536C0.706,22.216 1.425,21.939 2.123,21.594C9.468,17.967 16.373,12.986 22.474,6.878C24.181,5.169 23.808,2.691 21.644,1.345C19.478,0 16.342,0.291 14.633,2C9.896,6.744 4.652,10.677 -0.869,13.698C-0.291,15.733 0.324,17.764 0.771,19.816C0.98,20.775 0.645,21.722 0,22.536" style="fill:rgb(30,19,15);fill-rule:nonzero;"/>
            </g>
            <g transform="matrix(1,0,0,1,292.335,197.116)">
                <path d="M0,1.875C0.902,1.856 1.769,1.646 2.518,1.276C2.973,1.052 3.381,0.771 3.728,0.436C3.865,0.303 3.904,0.132 4.018,-0.012C2.501,0.676 0.974,1.315 -0.574,1.887L0,1.875Z" style="fill:rgb(30,19,15);fill-rule:nonzero;"/>
            </g>
            <g transform="matrix(1,0,0,1,278.29,189.804)">
                <path d="M0,-12.412C-2.229,-11.793 -4.486,-11.254 -6.739,-10.747C-3.623,-5.792 -1.35,-0.865 0.11,4.557C2.084,4.205 4.053,3.78 5.988,3.2C9.806,2.055 13.558,0.451 17.193,-1.538C15.71,-6.766 13.812,-11.915 11.506,-16.969C8.336,-15.265 4.685,-13.711 0,-12.412" style="fill:rgb(30,19,15);fill-rule:nonzero;"/>
            </g>
            <g transform="matrix(1,0,0,1,276.37,127.842)">
                <path d="M0,41.69C-2.587,38.169 -5.327,34.803 -8.08,31.558L-9.523,29.838C-13.024,25.637 -16.334,21.668 -22.622,18.318C-22.713,18.27 -29.129,15.256 -35.3,13.514C-32.971,10.947 -30.082,8.704 -26.783,6.909C-15.17,17.015 -5.758,28.767 1.003,41.381C4.444,40.247 7.16,38.924 9.664,37.421C1.936,23.302 -8.882,10.211 -22.297,-0.847C-23.847,-2.124 -26.286,-2.43 -28.26,-1.595C-36.896,2.066 -43.836,7.948 -47.839,15C-47.838,15.002 -47.839,15.003 -47.84,15.004L-47.842,15.005C-48.965,16.991 -47.84,19.321 -45.323,20.21C-44.011,20.673 -42.58,20.654 -41.351,20.246C-38.18,20.832 -30.082,23.884 -28.202,24.851C-23.574,27.316 -21.053,30.34 -17.861,34.169L-16.376,35.942C-13.948,38.803 -11.746,41.503 -9.756,44.12C-6.912,43.507 -4.118,42.874 -1.392,42.117C-0.9,41.981 -0.464,41.832 0,41.69" style="fill:rgb(30,19,15);fill-rule:nonzero;"/>
            </g>
            <g transform="matrix(1,0,0,1,278.29,166.928)">
                <path d="M0,10.464C4.685,9.165 8.336,7.611 11.506,5.907C10.342,3.356 9.108,0.827 7.744,-1.665C5.24,-0.162 2.524,1.16 -0.917,2.295C0.231,4.438 1.325,6.598 2.317,8.786C0.99,6.651 -0.446,4.609 -1.92,2.604C-2.384,2.745 -2.82,2.895 -3.312,3.03C-6.038,3.787 -8.832,4.421 -11.676,5.033C-9.837,7.45 -8.207,9.796 -6.739,12.129C-4.486,11.622 -2.229,11.083 0,10.464" style="fill:rgb(30,19,15);fill-rule:nonzero;"/>
            </g>
            <g transform="matrix(1,0,0,1,278.29,166.928)">
                <path d="M0,10.464C4.685,9.165 8.336,7.611 11.506,5.907C10.342,3.356 9.108,0.827 7.744,-1.665C5.24,-0.162 2.524,1.16 -0.917,2.295C0.231,4.438 1.325,6.598 2.317,8.786C0.99,6.651 -0.446,4.609 -1.92,2.604C-2.384,2.745 -2.82,2.895 -3.312,3.03C-6.038,3.787 -8.832,4.421 -11.676,5.033C-9.837,7.45 -8.207,9.796 -6.739,12.129C-4.486,11.622 -2.229,11.083 0,10.464" style="fill:rgb(30,19,15);fill-rule:nonzero;"/>
            </g>
            <g transform="matrix(1,0,0,1,283.88,188.32)">
                <path d="M0,10.844L7.881,10.683C9.429,10.112 10.956,9.472 12.473,8.784C13.117,7.97 13.453,7.024 13.244,6.065C12.797,4.012 12.182,1.982 11.604,-0.053C7.968,1.936 4.216,3.539 0.398,4.685C-1.537,5.265 -3.506,5.69 -5.479,6.041C-5.337,6.572 -5.163,7.083 -5.036,7.624C-4.589,9.529 -2.453,10.897 0,10.844" style="fill:rgb(30,19,15);fill-rule:nonzero;"/>
            </g>
            <g transform="matrix(1,0,0,1,283.88,188.32)">
                <path d="M0,10.844L7.881,10.683C9.429,10.112 10.956,9.472 12.473,8.784C13.117,7.97 13.453,7.024 13.244,6.065C12.797,4.012 12.182,1.982 11.604,-0.053C7.968,1.936 4.216,3.539 0.398,4.685C-1.537,5.265 -3.506,5.69 -5.479,6.041C-5.337,6.572 -5.163,7.083 -5.036,7.624C-4.589,9.529 -2.453,10.897 0,10.844" style="fill:rgb(30,19,15);fill-rule:nonzero;"/>
            </g>
            <g opacity="0.42">
                <g transform="matrix(1,0,0,1,263.991,201.711)">
                    <path d="M0,5.619C-5.383,5.13 -10.688,4.093 -16.1,3.89C-21.513,3.689 -27.237,4.425 -31.481,7.084C-35.726,9.743 -37.956,14.683 -35.508,18.499C-34.195,20.545 -31.795,22.005 -29.38,23.277C-19.185,28.646 -6.816,31.975 5.339,30.738C10.41,30.223 15.297,28.937 20.146,27.66C28.969,25.336 37.877,22.98 45.809,19.147C58.53,13.001 68.068,3.318 74.594,-7.269C76.714,-10.71 78.575,-14.376 78.597,-18.203C78.61,-20.608 77.72,-23.209 75.263,-24.629C72.273,-26.356 67.884,-25.723 64.938,-23.95C59.61,-20.745 59.43,-15.507 55.273,-11.651C50.861,-7.558 45.469,-4.088 39.628,-1.344C27.806,4.212 13.714,6.866 0,5.619" style="fill:white;fill-rule:nonzero;"/>
                </g>
            </g>
            <g transform="matrix(1,0,0,1,503.197,169.353)">
                <path d="M0,-40.857C-4.003,-40.717 -7.959,-40.025 -11.659,-38.823C-7.598,-34.763 -4.185,-29.521 -4.14,-29.443C-1.059,-23.97 -0.921,-19.22 -0.776,-14.192L-0.708,-12.13C-0.556,-8.226 -0.493,-4.227 -0.666,-0.159C-0.313,-0.105 0.048,-0.044 0.392,0C3.136,-13.524 3.055,-27.427 0,-40.857" style="fill:rgb(168,131,72);fill-rule:nonzero;"/>
            </g>
            <g transform="matrix(1,0,0,1,527.149,265.248)">
                <path d="M0,-75.595C2.597,-76.329 5.451,-75.263 6.383,-73.216C7.312,-71.168 5.964,-68.911 3.368,-68.178C-5.908,-65.554 -15.108,-64.223 -23.772,-64.223C-24.596,-64.223 -25.392,-64.288 -26.205,-64.313C-26.397,-64.239 -26.545,-64.11 -26.751,-64.055C-27.27,-63.916 -27.806,-63.849 -28.342,-63.849C-29.226,-63.849 -30.101,-64.033 -30.879,-64.395L-31.373,-64.625C-32.806,-64.764 -34.241,-64.898 -35.632,-65.116C-49.87,-67.35 -62.189,-74.049 -68.584,-83.033C-69.934,-84.931 -69.081,-87.331 -66.678,-88.398C-64.277,-89.464 -61.232,-88.79 -59.881,-86.893C-55.782,-81.133 -48.409,-76.595 -39.581,-74.155C-37.175,-79.362 -35.791,-84.491 -35.104,-89.995C-37.637,-90.573 -40.138,-91.183 -42.59,-91.791C-51.696,-94.052 -60.321,-96.199 -69.351,-95.957C-82.641,-95.624 -96.039,-89.654 -105.187,-79.986C-113.168,-71.55 -118.085,-60.578 -119.803,-47.377C-121.187,-36.742 -120.795,-21.242 -111.08,-7.795C-102.324,4.321 -86.688,12.384 -71.245,12.744C-68.646,12.813 -65.972,12.672 -63.145,12.527C-60.708,12.403 -58.237,12.279 -55.742,12.279C-52.23,12.279 -48.673,12.527 -45.099,13.373C-42.003,14.107 -39.271,15.208 -36.63,16.271C-34.323,17.2 -32.146,18.078 -29.956,18.612C-21.766,20.604 -12.391,18.071 -4.243,15.54C4.552,12.806 11.637,10.227 17.62,6.526C23.746,2.736 29.221,-2.574 34.847,-10.182C43.905,-22.425 53.597,-41.021 48.335,-60.08C44.011,-75.731 26.556,-91.585 5.829,-89.938C2.452,-89.669 -0.597,-89.242 -3.543,-88.83C-7.459,-88.282 -11.273,-87.759 -15.456,-87.631C-16.897,-82.382 -18.748,-77.221 -21.003,-72.169C-14.292,-72.418 -7.204,-73.557 0,-75.595" style="fill:rgb(187,13,17);fill-rule:nonzero;"/>
            </g>
            <g transform="matrix(1,0,0,1,585.236,250.1)">
                <path d="M0,-46.611C-5.356,-65.983 -26.743,-84.764 -53.264,-82.63C-57.011,-82.33 -60.245,-81.877 -63.371,-81.44C-66.284,-81.033 -68.947,-80.672 -71.644,-80.477C-72.162,-77.795 -72.815,-75.133 -73.543,-72.483C-69.36,-72.611 -65.546,-73.133 -61.63,-73.682C-58.684,-74.094 -55.635,-74.521 -52.258,-74.79C-31.531,-76.437 -14.076,-60.583 -9.752,-44.932C-4.49,-25.873 -14.182,-7.277 -23.24,4.966C-28.866,12.575 -34.341,17.884 -40.467,21.674C-46.45,25.375 -53.535,27.954 -62.33,30.688C-70.478,33.219 -79.853,35.752 -88.043,33.76C-90.232,33.226 -92.41,32.348 -94.717,31.419C-97.358,30.356 -100.09,29.255 -103.186,28.521C-106.76,27.675 -110.317,27.427 -113.829,27.427C-116.324,27.427 -118.795,27.551 -121.231,27.675C-124.059,27.82 -126.733,27.961 -129.332,27.892C-144.775,27.532 -160.411,19.469 -169.167,7.353C-178.882,-6.094 -179.273,-21.594 -177.89,-32.229C-176.172,-45.43 -171.255,-56.402 -163.273,-64.838C-154.126,-74.506 -140.728,-80.476 -127.438,-80.809C-118.408,-81.05 -109.783,-78.904 -100.677,-76.643C-98.225,-76.035 -95.724,-75.424 -93.19,-74.847C-92.867,-77.44 -92.673,-80.111 -92.607,-82.93C-94.283,-83.33 -95.954,-83.731 -97.683,-84.159C-107.183,-86.517 -117.028,-88.961 -127.753,-88.685C-144.052,-88.277 -160.321,-81.125 -171.271,-69.553C-180.348,-59.96 -185.916,-47.673 -187.821,-33.035C-190.017,-16.138 -186.565,-0.823 -177.839,11.256C-167.396,25.706 -148.474,35.327 -129.629,35.768C-126.556,35.84 -123.524,35.686 -120.594,35.538C-115.375,35.274 -110.45,35.026 -106.056,36.068C-103.823,36.597 -101.604,37.492 -99.256,38.438C-96.672,39.478 -94.001,40.554 -90.983,41.288C-87.928,42.033 -84.842,42.35 -81.746,42.35C-73.965,42.35 -66.14,40.338 -58.672,38.019C-50.929,35.613 -42.021,32.646 -34.31,27.876C-27.158,23.451 -20.9,17.433 -14.618,8.94C-4.668,-4.513 5.948,-25.071 0,-46.611" style="fill:rgb(30,19,15);fill-rule:nonzero;"/>
            </g>
            <g transform="matrix(1,0,0,1,501.969,169.193)">
                <path d="M0,7.016C0.63,4.745 1.153,2.456 1.62,0.16C1.276,0.115 0.915,0.054 0.562,0C0.464,2.318 0.31,4.651 0,7.016" style="fill:rgb(30,19,15);fill-rule:nonzero;"/>
            </g>
            <g transform="matrix(1,0,0,1,467.268,198.052)">
                <path d="M0,-19.697C-1.352,-21.594 -4.396,-22.268 -6.797,-21.202C-9.2,-20.135 -10.053,-17.735 -8.703,-15.838C-2.309,-6.853 10.011,-0.154 24.249,2.08C25.64,2.298 27.075,2.432 28.508,2.571L21.719,-0.593C19.604,-1.576 18.712,-3.629 19.613,-5.431C19.869,-5.943 20.064,-6.449 20.3,-6.959C11.472,-9.399 4.099,-13.937 0,-19.697" style="fill:rgb(30,19,15);fill-rule:nonzero;"/>
            </g>
            <g transform="matrix(1,0,0,1,500.944,189.008)">
                <path d="M0,11.927C0.813,11.951 1.609,12.017 2.433,12.017C11.097,12.017 20.297,10.686 29.573,8.062C32.169,7.328 33.518,5.072 32.588,3.024C31.656,0.977 28.802,-0.09 26.205,0.645C19.001,2.683 11.913,3.822 5.202,4.071C4.324,6.038 3.481,8.017 2.481,9.944C2.015,10.844 1.094,11.506 0,11.927" style="fill:rgb(30,19,15);fill-rule:nonzero;"/>
            </g>
            <g transform="matrix(1,0,0,1,496.27,201.169)">
                <path d="M0,-0.316C0.778,0.045 1.653,0.23 2.537,0.23C3.073,0.23 3.609,0.163 4.128,0.024C4.334,-0.031 4.481,-0.16 4.674,-0.234C2.927,-0.286 1.201,-0.383 -0.494,-0.546L0,-0.316Z" style="fill:rgb(30,19,15);fill-rule:nonzero;"/>
            </g>
            <g transform="matrix(1,0,0,1,498.877,191.833)">
                <path d="M0,-15.17C-2.307,-15.579 -4.581,-16.067 -6.832,-16.58C-7.52,-11.075 -8.903,-5.946 -11.31,-0.739C-9.399,-0.211 -7.445,0.253 -5.414,0.571C-1.408,1.199 2.85,1.41 7.269,1.246C9.523,-3.806 11.374,-8.967 12.815,-14.216C8.983,-14.099 4.844,-14.311 0,-15.17" style="fill:rgb(30,19,15);fill-rule:nonzero;"/>
            </g>
            <g transform="matrix(1,0,0,1,502.531,120.81)">
                <path d="M0,48.384C0.173,44.316 0.11,40.317 -0.042,36.412L-0.11,34.351C-0.255,29.322 -0.393,24.572 -3.474,19.1C-3.519,19.022 -6.932,13.78 -10.993,9.72C-7.293,8.518 -3.337,7.825 0.666,7.686C3.721,21.115 3.802,35.019 1.058,48.543C4.737,49.022 7.928,49.038 11.061,48.813C13.996,33.607 13.622,17.98 9.681,2.988C9.225,1.257 7.362,-0.023 5.128,-0.141C-4.653,-0.654 -14.488,1.427 -22.62,5.73C-22.62,5.731 -22.622,5.731 -22.624,5.733L-22.626,5.733C-24.913,6.946 -25.525,9.392 -23.989,11.198C-23.187,12.142 -21.962,12.724 -20.646,12.894C-18.351,14.717 -13.537,20.696 -12.594,22.302C-10.326,26.329 -10.221,29.949 -10.089,34.53L-10.021,36.655C-9.886,40.098 -9.832,43.308 -9.903,46.36C-7.082,47.031 -4.286,47.664 -1.467,48.164C-0.959,48.254 -0.488,48.311 0,48.384" style="fill:rgb(30,19,15);fill-rule:nonzero;"/>
            </g>
            <g transform="matrix(1,0,0,1,498.877,168.241)">
                <path d="M0,8.422C4.844,9.281 8.983,9.493 12.815,9.376C13.543,6.726 14.196,4.065 14.715,1.382C11.582,1.608 8.392,1.591 4.712,1.112C4.245,3.409 3.722,5.698 3.092,7.969C3.401,5.604 3.556,3.271 3.654,0.953C3.166,0.88 2.695,0.823 2.188,0.734C-0.632,0.234 -3.428,-0.399 -6.249,-1.071C-6.314,1.748 -6.509,4.419 -6.832,7.012C-4.581,7.525 -2.307,8.013 0,8.422" style="fill:rgb(30,19,15);fill-rule:nonzero;"/>
            </g>
            <g transform="matrix(1,0,0,1,498.877,168.241)">
                <path d="M0,8.422C4.844,9.281 8.983,9.493 12.815,9.376C13.543,6.726 14.196,4.065 14.715,1.382C11.582,1.608 8.392,1.591 4.712,1.112C4.245,3.409 3.722,5.698 3.092,7.969C3.401,5.604 3.556,3.271 3.654,0.953C3.166,0.88 2.695,0.823 2.188,0.734C-0.632,0.234 -3.428,-0.399 -6.249,-1.071C-6.314,1.748 -6.509,4.419 -6.832,7.012C-4.581,7.525 -2.307,8.013 0,8.422" style="fill:rgb(30,19,15);fill-rule:nonzero;"/>
            </g>
            <g transform="matrix(1,0,0,1,488.987,194.569)">
                <path d="M0,2.89L6.789,6.053C8.484,6.216 10.21,6.314 11.957,6.366C13.051,5.945 13.972,5.283 14.438,4.382C15.438,2.455 16.281,0.477 17.159,-1.491C12.74,-1.327 8.482,-1.538 4.477,-2.166C2.445,-2.484 0.491,-2.948 -1.419,-3.476C-1.654,-2.966 -1.85,-2.461 -2.105,-1.949C-3.007,-0.146 -2.115,1.907 0,2.89" style="fill:rgb(30,19,15);fill-rule:nonzero;"/>
            </g>
            <g transform="matrix(1,0,0,1,488.987,194.569)">
                <path d="M0,2.89L6.789,6.053C8.484,6.216 10.21,6.314 11.957,6.366C13.051,5.945 13.972,5.283 14.438,4.382C15.438,2.455 16.281,0.477 17.159,-1.491C12.74,-1.327 8.482,-1.538 4.477,-2.166C2.445,-2.484 0.491,-2.948 -1.419,-3.476C-1.654,-2.966 -1.85,-2.461 -2.105,-1.949C-3.007,-0.146 -2.115,1.907 0,2.89" style="fill:rgb(30,19,15);fill-rule:nonzero;"/>
            </g>
            <g opacity="0.42">
                <g transform="matrix(1,0,0,1,466.638,214.402)">
                    <path d="M0,-18.346C-4.234,-21.015 -8.034,-24.116 -12.487,-26.552C-16.94,-28.99 -22.287,-30.763 -27.672,-30.285C-33.057,-29.808 -38.268,-26.553 -38.757,-22.293C-39.019,-20.011 -37.965,-17.768 -36.771,-15.678C-31.736,-6.858 -23.489,1.143 -12.354,5.183C-7.707,6.869 -2.701,7.826 2.269,8.773C11.31,10.497 20.444,12.229 29.744,12.301C44.658,12.417 59.251,8.202 71.896,1.959C76.007,-0.072 80.048,-2.4 82.638,-5.635C84.265,-7.667 85.258,-10.245 84.128,-12.479C82.755,-15.194 78.608,-16.495 74.92,-16.226C68.249,-15.74 64.577,-11.374 58.462,-9.845C51.972,-8.223 45.068,-7.539 38.272,-7.658C24.518,-7.898 10.788,-11.547 0,-18.346" style="fill:white;fill-rule:nonzero;"/>
                </g>
            </g>
            <g transform="matrix(-1,0,0,1,779.679,-36.021)">
                <rect x="189.224" y="275.063" width="401.231" height="97.895" style="fill:rgb(233,178,89);stroke:rgb(29,33,28);stroke-width:9px;"/>
            </g>
        </g>
    </g>
</svg>
