<?xml version="1.0" encoding="UTF-8" standalone="no"?>
<!DOCTYPE svg PUBLIC "-//W3C//DTD SVG 1.1//EN" "http://www.w3.org/Graphics/SVG/1.1/DTD/svg11.dtd">
<svg width="100%" height="100%" viewBox="0 0 1727 1485" version="1.1" xmlns="http://www.w3.org/2000/svg" xmlns:xlink="http://www.w3.org/1999/xlink" xml:space="preserve" xmlns:serif="http://www.serif.com/" style="fill-rule:evenodd;clip-rule:evenodd;stroke-linecap:round;stroke-linejoin:round;stroke-miterlimit:10;">
    <g transform="matrix(1,0,0,1,-11721,-3035)">
        <g transform="matrix(4.16667,0,0,4.16667,11035.6,2929.65)">
            <g transform="matrix(-1,0,0,1,790.75,-116.902)">
                <rect x="229.822" y="311.522" width="331.106" height="105.858" style="fill:rgb(233,178,89);stroke:rgb(29,33,28);stroke-width:3px;"/>
            </g>
            <g transform="matrix(-0.134084,0.99097,0.99097,0.134084,261.932,243.24)">
                <path d="M-43.876,-38.339L33.501,-38.339" style="fill:none;fill-rule:nonzero;stroke:rgb(29,33,28);stroke-width:3px;"/>
            </g>
            <g transform="matrix(0.171612,0.985165,0.985165,-0.171612,604.231,219.8)">
                <path d="M-32.238,-38.339L45.595,-38.339" style="fill:none;fill-rule:nonzero;stroke:rgb(29,33,28);stroke-width:9px;"/>
            </g>
            <g transform="matrix(1,0,0,1,276.355,94.6224)">
                <path d="M0,39.234C0.6,39.236 1.182,39.306 1.777,39.321C2.04,33.984 -1.897,25.717 -5.708,17.722C-8.562,11.736 -11.46,5.654 -13.106,-0.087L-17.773,7.012C-17.795,7.042 -17.815,7.072 -17.836,7.103C-17.82,7.954 -18.053,8.711 -18.398,9.381C-8.014,16.935 -3.315,25.898 0,39.234" style="fill:rgb(168,131,72);fill-rule:nonzero;"/>
            </g>
            <g transform="matrix(1,0,0,1,274.386,157.279)">
                <path d="M0,5.114C4.66,4.602 7.348,2.888 7.729,2.09C7.486,1.582 6.294,0.707 4.281,0C2.976,1.918 1.543,3.656 0,5.114" style="fill:rgb(124,153,31);fill-rule:nonzero;"/>
            </g>
            <g transform="matrix(1,0,0,1,261.211,159.354)">
                <path d="M0,0.085C0.152,0.48 1.246,1.307 3.165,2.012C2.77,0.717 2.769,-0.608 3.044,-1.927C1.195,-1.214 0.149,-0.374 0,0.085" style="fill:rgb(124,153,31);fill-rule:nonzero;"/>
            </g>
            <g transform="matrix(1,0,0,1,243.477,133.197)">
                <path d="M0,18.528C1.119,17.356 2.157,16.113 3.198,14.872C5.007,12.716 6.878,10.487 9.177,8.488C13.861,4.417 19.355,2.519 24.394,3.196C21.682,-4.023 15.997,-8.301 6.919,-10.221C-6.3,-13.026 -20.147,-4.74 -29.408,1.732C-30.801,2.707 -32.195,3.701 -33.596,4.698C-41.998,10.68 -50.624,16.821 -60.549,20.064C-52.489,26.132 -42.938,29.889 -33.434,30.604C-20.828,31.554 -8.007,26.925 0,18.528" style="fill:rgb(98,174,40);fill-rule:nonzero;"/>
            </g>
            <g transform="matrix(1,0,0,1,285.291,271.003)">
                <path d="M0,-127.951C-0.651,-125.769 -1.479,-123.514 -2.467,-121.288C2.514,-119.216 5.673,-115.742 5.673,-111.635C5.673,-104.964 -2.619,-99.93 -13.612,-99.93C-24.607,-99.93 -32.899,-104.964 -32.899,-111.635C-32.899,-117.716 -25.98,-122.387 -16.436,-123.175C-16.207,-123.608 -16.019,-124.008 -15.854,-124.388C-16.299,-125.209 -17.09,-125.875 -18.319,-126.118C-20.768,-126.6 -23.918,-125.429 -26.73,-122.986C-28.513,-121.436 -30.087,-119.559 -31.755,-117.572C-32.911,-116.191 -34.073,-114.813 -35.316,-113.509C-42.972,-105.48 -53.738,-100.4 -65.344,-98.994C-72.216,-88.653 -75.848,-76.664 -75.848,-64.32C-75.848,-28.854 -45.953,0 -9.207,0C27.539,0 57.435,-28.854 57.435,-64.32C57.435,-96.764 32.394,-123.6 0,-127.951" style="fill:rgb(241,152,0);fill-rule:nonzero;"/>
            </g>
            <g transform="matrix(1,0,0,1,276.084,85.3768)">
                <path d="M0,185.626C-36.746,185.626 -66.641,156.772 -66.641,121.306C-66.641,108.962 -63.009,96.973 -56.137,86.632C-44.531,85.226 -33.765,80.146 -26.109,72.117C-24.866,70.813 -23.704,69.435 -22.548,68.054C-20.88,66.066 -19.306,64.189 -17.523,62.64C-14.711,60.197 -11.561,59.025 -9.112,59.508C-7.883,59.751 -7.092,60.417 -6.647,61.238C-6.812,61.618 -7,62.018 -7.229,62.451C-16.773,63.239 -23.692,67.91 -23.692,73.991C-23.692,80.662 -15.4,85.695 -4.405,85.695C6.588,85.695 14.88,80.662 14.88,73.991C14.88,69.884 11.721,66.41 6.74,64.338C7.728,62.112 8.556,59.856 9.207,57.675C41.601,62.025 66.642,88.862 66.642,121.306C66.642,156.772 36.746,185.626 0,185.626M-93.155,67.884C-83.23,64.641 -74.604,58.5 -66.202,52.518C-64.802,51.521 -63.407,50.526 -62.015,49.552C-52.754,43.08 -38.906,34.794 -25.687,37.599C-16.609,39.519 -10.925,43.797 -8.213,51.016C-13.251,50.339 -18.745,52.236 -23.43,56.308C-25.729,58.307 -27.6,60.535 -29.408,62.691C-30.449,63.933 -31.487,65.176 -32.606,66.348C-40.613,74.745 -53.435,79.374 -66.04,78.424C-75.544,77.709 -85.096,73.951 -93.155,67.884M-17.564,16.349C-17.544,16.317 -17.523,16.287 -17.502,16.258L-12.835,9.158C-11.188,14.899 -8.29,20.981 -5.437,26.968C-1.626,34.963 2.312,43.23 2.049,48.566C1.453,48.552 0.871,48.481 0.271,48.48C-3.044,35.144 -7.742,26.181 -18.127,18.627C-17.781,17.956 -17.549,17.199 -17.564,16.349M-11.708,75.989C-13.627,75.284 -14.721,74.457 -14.873,74.063C-14.724,73.604 -13.678,72.764 -11.829,72.051C-12.104,73.369 -12.104,74.694 -11.708,75.989M6.031,73.991C5.65,74.79 2.963,76.504 -1.697,77.016C-0.154,75.558 1.278,73.819 2.584,71.901C4.597,72.608 5.789,73.483 6.031,73.991M10.843,49.307C10.849,49.215 10.863,49.113 10.867,49.022C11.254,41.599 7.042,32.763 2.585,23.408C-2.299,13.162 -7.833,1.548 -4.214,-3.955L-11.669,-8.521C-11.673,-8.515 -11.678,-8.508 -11.682,-8.5L-24.956,11.691C-25.377,12.33 -26.204,13.588 -26.406,15.212C-26.425,15.234 -26.445,15.257 -26.467,15.279C-27.494,16.407 -28.902,17.951 -28.578,20.213L-28.184,22.316L-26.49,23.377C-22.546,25.846 -19.475,28.425 -16.996,31.341C-19.11,30.516 -21.342,29.794 -23.798,29.274C-40.491,25.736 -56.557,35.219 -67.19,42.65C-68.605,43.641 -70.023,44.649 -71.443,45.661C-81.28,52.663 -91.449,59.906 -102.908,61.402L-111.511,62.525L-105.504,68.572C-94.976,79.17 -80.841,85.856 -66.727,86.918C-66.66,86.923 -66.595,86.921 -66.528,86.926C-72.383,97.461 -75.468,109.231 -75.468,121.306C-75.468,161.47 -41.613,194.147 0,194.147C41.613,194.147 75.47,161.47 75.47,121.306C75.47,84.704 47.324,54.408 10.843,49.307" style="fill:rgb(30,19,15);fill-rule:nonzero;"/>
            </g>
            <g opacity="0.42">
                <g transform="matrix(0,-1,-1,0,300.773,165.151)">
                    <path d="M-39.417,-39.418C-57.015,-39.418 -71.279,-21.77 -71.279,0C-71.279,21.77 -57.015,39.417 -39.417,39.417C-21.82,39.417 -7.556,21.77 -7.556,0C-7.556,-21.77 -21.82,-39.418 -39.417,-39.418" style="fill:rgb(255,243,101);fill-rule:nonzero;"/>
                </g>
            </g>
            <g transform="matrix(1,0,0,1,382.783,43.263)">
                <path d="M0,39.234C0.599,39.236 1.181,39.305 1.776,39.321C2.039,33.984 -1.897,25.717 -5.709,17.722C-8.563,11.736 -11.461,5.654 -13.107,-0.087L-17.774,7.011C-17.795,7.042 -17.816,7.072 -17.837,7.103C-17.821,7.954 -18.054,8.711 -18.398,9.381C-8.015,16.935 -3.316,25.898 0,39.234" style="fill:rgb(168,131,72);fill-rule:nonzero;"/>
            </g>
            <g transform="matrix(1,0,0,1,380.813,105.918)">
                <path d="M0,5.115C4.66,4.603 7.348,2.888 7.729,2.09C7.486,1.583 6.294,0.707 4.281,0C2.977,1.919 1.543,3.657 0,5.115" style="fill:rgb(124,153,31);fill-rule:nonzero;"/>
            </g>
            <g transform="matrix(1,0,0,1,367.637,107.995)">
                <path d="M0,0.085C0.152,0.479 1.246,1.307 3.165,2.012C2.771,0.716 2.769,-0.609 3.044,-1.927C1.195,-1.215 0.149,-0.375 0,0.085" style="fill:rgb(124,153,31);fill-rule:nonzero;"/>
            </g>
            <g transform="matrix(1,0,0,1,349.904,81.8371)">
                <path d="M0,18.528C1.119,17.356 2.157,16.113 3.199,14.872C5.008,12.715 6.878,10.487 9.177,8.488C13.861,4.416 19.356,2.519 24.395,3.196C21.683,-4.023 15.997,-8.301 6.92,-10.222C-6.3,-13.026 -20.146,-4.741 -29.407,1.732C-30.801,2.707 -32.195,3.7 -33.596,4.697C-41.997,10.679 -50.624,16.82 -60.548,20.064C-52.489,26.132 -42.938,29.888 -33.434,30.604C-20.828,31.554 -8.007,26.924 0,18.528" style="fill:rgb(98,174,40);fill-rule:nonzero;"/>
            </g>
            <g transform="matrix(1,0,0,1,391.717,219.642)">
                <path d="M0,-127.95C-0.651,-125.768 -1.479,-123.513 -2.467,-121.288C2.514,-119.215 5.673,-115.741 5.673,-111.635C5.673,-104.963 -2.619,-99.93 -13.612,-99.93C-24.607,-99.93 -32.899,-104.963 -32.899,-111.635C-32.899,-117.715 -25.98,-122.387 -16.436,-123.174C-16.207,-123.607 -16.018,-124.007 -15.854,-124.387C-16.298,-125.208 -17.09,-125.874 -18.319,-126.117C-20.768,-126.599 -23.918,-125.429 -26.729,-122.985C-28.513,-121.435 -30.087,-119.558 -31.754,-117.572C-32.911,-116.19 -34.073,-114.812 -35.316,-113.508C-42.971,-105.479 -53.737,-100.399 -65.344,-98.993C-72.215,-88.652 -75.847,-76.663 -75.847,-64.319C-75.847,-28.853 -45.953,0 -9.207,0C27.539,0 57.435,-28.853 57.435,-64.319C57.435,-96.764 32.394,-123.599 0,-127.95" style="fill:rgb(241,152,0);fill-rule:nonzero;"/>
            </g>
            <g transform="matrix(1,0,0,1,382.51,34.0175)">
                <path d="M0,185.625C-36.746,185.625 -66.64,156.771 -66.64,121.306C-66.64,108.962 -63.008,96.973 -56.137,86.632C-44.53,85.226 -33.764,80.146 -26.109,72.117C-24.866,70.812 -23.704,69.435 -22.547,68.053C-20.88,66.066 -19.306,64.189 -17.522,62.64C-14.711,60.196 -11.561,59.025 -9.112,59.508C-7.883,59.751 -7.091,60.417 -6.647,61.238C-6.811,61.618 -7,62.018 -7.229,62.451C-16.773,63.238 -23.692,67.91 -23.692,73.99C-23.692,80.662 -15.4,85.694 -4.405,85.694C6.588,85.694 14.88,80.662 14.88,73.99C14.88,69.884 11.721,66.41 6.74,64.337C7.729,62.111 8.556,59.856 9.207,57.675C41.601,62.025 66.642,88.861 66.642,121.306C66.642,156.771 36.746,185.625 0,185.625M-93.154,67.884C-83.23,64.64 -74.604,58.499 -66.202,52.517C-64.802,51.52 -63.407,50.526 -62.014,49.552C-52.753,43.079 -38.906,34.794 -25.687,37.598C-16.609,39.519 -10.924,43.797 -8.212,51.016C-13.25,50.339 -18.745,52.235 -23.43,56.308C-25.729,58.307 -27.599,60.534 -29.407,62.691C-30.449,63.933 -31.487,65.176 -32.606,66.348C-40.613,74.744 -53.435,79.374 -66.04,78.424C-75.544,77.708 -85.096,73.951 -93.154,67.884M-17.564,16.349C-17.544,16.317 -17.522,16.287 -17.502,16.257L-12.835,9.158C-11.188,14.899 -8.29,20.981 -5.437,26.968C-1.625,34.963 2.312,43.23 2.049,48.566C1.453,48.551 0.871,48.481 0.272,48.48C-3.044,35.144 -7.742,26.181 -18.126,18.627C-17.781,17.956 -17.549,17.199 -17.564,16.349M-11.708,75.989C-13.627,75.284 -14.721,74.456 -14.873,74.062C-14.724,73.603 -13.678,72.763 -11.829,72.051C-12.104,73.368 -12.103,74.693 -11.708,75.989M6.031,73.99C5.65,74.789 2.963,76.504 -1.697,77.016C-0.154,75.558 1.279,73.819 2.584,71.9C4.597,72.607 5.789,73.483 6.031,73.99M10.843,49.307C10.849,49.215 10.863,49.112 10.868,49.022C11.254,41.599 7.042,32.762 2.585,23.408C-2.298,13.162 -7.833,1.548 -4.214,-3.955L-11.669,-8.521C-11.673,-8.516 -11.678,-8.509 -11.682,-8.5L-24.956,11.69C-25.377,12.33 -26.204,13.588 -26.406,15.212C-26.425,15.233 -26.445,15.257 -26.466,15.278C-27.494,16.407 -28.902,17.951 -28.578,20.213L-28.184,22.316L-26.49,23.376C-22.545,25.845 -19.475,28.425 -16.996,31.341C-19.11,30.515 -21.342,29.794 -23.797,29.273C-40.491,25.736 -56.557,35.218 -67.189,42.65C-68.605,43.641 -70.022,44.648 -71.443,45.66C-81.28,52.663 -91.449,59.905 -102.908,61.401L-111.511,62.524L-105.503,68.572C-94.976,79.17 -80.841,85.855 -66.727,86.918C-66.66,86.923 -66.595,86.92 -66.528,86.925C-72.383,97.461 -75.468,109.23 -75.468,121.306C-75.468,161.469 -41.613,194.146 0,194.146C41.613,194.146 75.47,161.469 75.47,121.306C75.47,84.704 47.324,54.408 10.843,49.307" style="fill:rgb(30,19,15);fill-rule:nonzero;"/>
            </g>
            <g opacity="0.42">
                <g transform="matrix(0,-1,-1,0,407.2,113.791)">
                    <path d="M-39.417,-39.417C-57.015,-39.417 -71.28,-21.77 -71.28,-0.001C-71.28,21.77 -57.015,39.417 -39.417,39.417C-21.82,39.417 -7.555,21.77 -7.555,-0.001C-7.555,-21.77 -21.82,-39.417 -39.417,-39.417" style="fill:rgb(255,243,101);fill-rule:nonzero;"/>
                </g>
            </g>
            <g transform="matrix(1,0,0,1,494.136,101.281)">
                <path d="M0,39.234C0.6,39.236 1.182,39.305 1.777,39.321C2.04,33.983 -1.897,25.717 -5.708,17.721C-8.562,11.736 -11.46,5.654 -13.106,-0.087L-17.773,7.011C-17.795,7.042 -17.815,7.071 -17.836,7.103C-17.82,7.954 -18.053,8.711 -18.398,9.381C-8.014,16.935 -3.315,25.898 0,39.234" style="fill:rgb(168,131,72);fill-rule:nonzero;"/>
            </g>
            <g transform="matrix(1,0,0,1,492.168,163.936)">
                <path d="M0,5.114C4.66,4.603 7.348,2.888 7.729,2.09C7.486,1.583 6.294,0.707 4.281,0C2.976,1.919 1.543,3.656 0,5.114" style="fill:rgb(124,153,31);fill-rule:nonzero;"/>
            </g>
            <g transform="matrix(1,0,0,1,478.992,166.012)">
                <path d="M0,0.086C0.152,0.48 1.246,1.308 3.165,2.012C2.77,0.717 2.769,-0.608 3.044,-1.926C1.195,-1.214 0.149,-0.374 0,0.086" style="fill:rgb(124,153,31);fill-rule:nonzero;"/>
            </g>
            <g transform="matrix(1,0,0,1,461.258,139.855)">
                <path d="M0,18.528C1.119,17.356 2.157,16.113 3.198,14.872C5.007,12.715 6.878,10.486 9.177,8.488C13.861,4.416 19.356,2.518 24.395,3.196C21.682,-4.023 15.997,-8.301 6.919,-10.222C-6.3,-13.026 -20.147,-4.741 -29.408,1.731C-30.801,2.707 -32.195,3.7 -33.596,4.697C-41.998,10.679 -50.624,16.82 -60.549,20.063C-52.489,26.131 -42.938,29.888 -33.434,30.604C-20.828,31.554 -8.007,26.924 0,18.528" style="fill:rgb(98,174,40);fill-rule:nonzero;"/>
            </g>
            <g transform="matrix(1,0,0,1,503.072,277.66)">
                <path d="M0,-127.951C-0.651,-125.768 -1.479,-123.514 -2.467,-121.288C2.514,-119.216 5.673,-115.742 5.673,-111.635C5.673,-104.963 -2.619,-99.93 -13.612,-99.93C-24.607,-99.93 -32.899,-104.963 -32.899,-111.635C-32.899,-117.715 -25.98,-122.387 -16.436,-123.174C-16.207,-123.607 -16.019,-124.007 -15.854,-124.387C-16.299,-125.208 -17.09,-125.874 -18.319,-126.117C-20.768,-126.599 -23.918,-125.429 -26.73,-122.985C-28.513,-121.436 -30.087,-119.558 -31.754,-117.572C-32.911,-116.19 -34.073,-114.812 -35.316,-113.508C-42.972,-105.479 -53.738,-100.399 -65.344,-98.993C-72.216,-88.653 -75.848,-76.664 -75.848,-64.32C-75.848,-28.854 -45.953,0 -9.207,0C27.539,0 57.435,-28.854 57.435,-64.32C57.435,-96.764 32.394,-123.599 0,-127.951" style="fill:rgb(241,152,0);fill-rule:nonzero;"/>
            </g>
            <g transform="matrix(1,0,0,1,493.865,92.0351)">
                <path d="M0,185.625C-36.746,185.625 -66.641,156.771 -66.641,121.305C-66.641,108.961 -63.009,96.972 -56.137,86.632C-44.531,85.226 -33.765,80.146 -26.109,72.117C-24.866,70.812 -23.704,69.435 -22.547,68.053C-20.88,66.066 -19.306,64.188 -17.523,62.64C-14.711,60.196 -11.561,59.025 -9.112,59.508C-7.883,59.751 -7.092,60.417 -6.647,61.238C-6.812,61.618 -7,62.018 -7.229,62.451C-16.773,63.238 -23.692,67.91 -23.692,73.99C-23.692,80.662 -15.4,85.694 -4.405,85.694C6.588,85.694 14.88,80.662 14.88,73.99C14.88,69.883 11.721,66.409 6.74,64.337C7.728,62.111 8.556,59.856 9.207,57.674C41.601,62.025 66.642,88.861 66.642,121.305C66.642,156.771 36.746,185.625 0,185.625M-93.155,67.883C-83.23,64.64 -74.604,58.499 -66.202,52.517C-64.802,51.52 -63.407,50.526 -62.015,49.551C-52.754,43.079 -38.906,34.794 -25.687,37.598C-16.609,39.519 -10.925,43.797 -8.212,51.016C-13.25,50.338 -18.745,52.235 -23.43,56.308C-25.729,58.306 -27.6,60.534 -29.408,62.691C-30.449,63.933 -31.487,65.176 -32.606,66.348C-40.613,74.744 -53.435,79.374 -66.04,78.424C-75.544,77.708 -85.096,73.95 -93.155,67.883M-17.564,16.349C-17.544,16.316 -17.523,16.287 -17.502,16.257L-12.835,9.158C-11.188,14.899 -8.29,20.981 -5.437,26.967C-1.626,34.963 2.312,43.229 2.049,48.566C1.453,48.551 0.871,48.481 0.271,48.479C-3.044,35.144 -7.742,26.181 -18.127,18.627C-17.781,17.956 -17.549,17.199 -17.564,16.349M-11.708,75.988C-13.627,75.284 -14.721,74.456 -14.873,74.062C-14.724,73.603 -13.678,72.763 -11.829,72.051C-12.104,73.368 -12.104,74.693 -11.708,75.988M6.031,73.99C5.65,74.789 2.963,76.504 -1.697,77.015C-0.154,75.557 1.278,73.819 2.584,71.9C4.597,72.607 5.789,73.483 6.031,73.99M10.843,49.307C10.849,49.215 10.863,49.112 10.867,49.021C11.254,41.599 7.042,32.762 2.585,23.407C-2.299,13.162 -7.833,1.548 -4.214,-3.956L-11.669,-8.521C-11.673,-8.516 -11.678,-8.509 -11.682,-8.5L-24.956,11.69C-25.377,12.33 -26.204,13.588 -26.406,15.212C-26.425,15.233 -26.445,15.257 -26.467,15.278C-27.494,16.406 -28.902,17.951 -28.578,20.213L-28.184,22.316L-26.49,23.376C-22.545,25.845 -19.475,28.425 -16.996,31.341C-19.11,30.515 -21.342,29.794 -23.798,29.273C-40.491,25.735 -56.557,35.218 -67.19,42.65C-68.605,43.641 -70.023,44.648 -71.443,45.66C-81.28,52.663 -91.449,59.905 -102.908,61.401L-111.511,62.524L-105.504,68.572C-94.976,79.169 -80.841,85.855 -66.727,86.918C-66.66,86.923 -66.595,86.92 -66.528,86.925C-72.383,97.46 -75.468,109.23 -75.468,121.305C-75.468,161.469 -41.613,194.146 0,194.146C41.613,194.146 75.47,161.469 75.47,121.305C75.47,84.704 47.324,54.408 10.843,49.307" style="fill:rgb(30,19,15);fill-rule:nonzero;"/>
            </g>
            <g opacity="0.42">
                <g transform="matrix(0,-1,-1,0,518.555,171.809)">
                    <path d="M-39.417,-39.417C-57.015,-39.417 -71.28,-21.769 -71.28,0.001C-71.28,21.771 -57.015,39.417 -39.417,39.417C-21.82,39.417 -7.555,21.771 -7.555,0.001C-7.555,-21.769 -21.82,-39.417 -39.417,-39.417" style="fill:rgb(255,243,101);fill-rule:nonzero;"/>
                </g>
            </g>
            <g transform="matrix(1,0,0,1,369.909,158.274)">
                <path d="M0,39.234C0.6,39.236 1.181,39.305 1.777,39.321C2.039,33.984 -1.897,25.717 -5.708,17.722C-8.562,11.736 -11.46,5.654 -13.106,-0.087L-17.774,7.012C-17.795,7.042 -17.815,7.072 -17.836,7.103C-17.82,7.954 -18.054,8.711 -18.398,9.381C-8.014,16.935 -3.315,25.898 0,39.234" style="fill:rgb(168,131,72);fill-rule:nonzero;"/>
            </g>
            <g transform="matrix(1,0,0,1,367.94,220.93)">
                <path d="M0,5.114C4.66,4.602 7.348,2.888 7.729,2.09C7.486,1.582 6.293,0.706 4.281,0C2.976,1.918 1.543,3.656 0,5.114" style="fill:rgb(124,153,31);fill-rule:nonzero;"/>
            </g>
            <g transform="matrix(1,0,0,1,354.764,223.006)">
                <path d="M0,0.085C0.152,0.479 1.245,1.307 3.164,2.012C2.77,0.717 2.769,-0.608 3.044,-1.927C1.195,-1.214 0.149,-0.375 0,0.085" style="fill:rgb(124,153,31);fill-rule:nonzero;"/>
            </g>
            <g transform="matrix(1,0,0,1,337.031,196.848)">
                <path d="M0,18.528C1.119,17.356 2.157,16.113 3.198,14.872C5.007,12.716 6.878,10.487 9.176,8.488C13.86,4.416 19.355,2.519 24.394,3.196C21.682,-4.023 15.997,-8.301 6.919,-10.222C-6.301,-13.026 -20.147,-4.74 -29.408,1.732C-30.801,2.707 -32.196,3.701 -33.596,4.697C-41.998,10.68 -50.624,16.821 -60.549,20.064C-52.49,26.132 -42.938,29.889 -33.434,30.604C-20.828,31.554 -8.007,26.925 0,18.528" style="fill:rgb(98,174,40);fill-rule:nonzero;"/>
            </g>
            <g transform="matrix(1,0,0,1,378.844,334.654)">
                <path d="M0,-127.951C-0.651,-125.769 -1.479,-123.514 -2.468,-121.288C2.514,-119.216 5.673,-115.742 5.673,-111.635C5.673,-104.964 -2.619,-99.931 -13.612,-99.931C-24.607,-99.931 -32.899,-104.964 -32.899,-111.635C-32.899,-117.716 -25.981,-122.387 -16.436,-123.175C-16.207,-123.608 -16.019,-124.008 -15.854,-124.388C-16.299,-125.209 -17.09,-125.875 -18.319,-126.118C-20.768,-126.6 -23.918,-125.429 -26.73,-122.986C-28.513,-121.436 -30.087,-119.559 -31.755,-117.572C-32.911,-116.191 -34.073,-114.813 -35.316,-113.509C-42.972,-105.48 -53.738,-100.4 -65.345,-98.994C-72.216,-88.653 -75.848,-76.664 -75.848,-64.32C-75.848,-28.854 -45.953,0 -9.207,0C27.539,0 57.435,-28.854 57.435,-64.32C57.435,-96.764 32.393,-123.6 0,-127.951" style="fill:rgb(241,152,0);fill-rule:nonzero;"/>
            </g>
            <g transform="matrix(1,0,0,1,369.637,149.028)">
                <path d="M0,185.626C-36.746,185.626 -66.641,156.772 -66.641,121.306C-66.641,108.962 -63.009,96.973 -56.138,86.632C-44.531,85.226 -33.765,80.146 -26.109,72.117C-24.866,70.813 -23.704,69.435 -22.548,68.054C-20.88,66.066 -19.306,64.189 -17.523,62.64C-14.711,60.197 -11.561,59.025 -9.112,59.508C-7.883,59.751 -7.092,60.417 -6.647,61.238C-6.812,61.618 -7,62.018 -7.229,62.451C-16.774,63.239 -23.692,67.91 -23.692,73.991C-23.692,80.662 -15.4,85.694 -4.405,85.694C6.588,85.694 14.88,80.662 14.88,73.991C14.88,69.884 11.721,66.41 6.739,64.338C7.728,62.111 8.556,59.856 9.207,57.675C41.6,62.025 66.642,88.862 66.642,121.306C66.642,156.772 36.746,185.626 0,185.626M-93.155,67.884C-83.23,64.641 -74.604,58.5 -66.202,52.517C-64.803,51.521 -63.407,50.526 -62.015,49.552C-52.754,43.08 -38.907,34.794 -25.687,37.598C-16.609,39.519 -10.925,43.797 -8.213,51.016C-13.251,50.339 -18.746,52.235 -23.431,56.308C-25.729,58.307 -27.6,60.535 -29.408,62.691C-30.449,63.933 -31.487,65.176 -32.606,66.348C-40.613,74.745 -53.435,79.374 -66.04,78.424C-75.544,77.709 -85.097,73.951 -93.155,67.884M-17.564,16.349C-17.544,16.317 -17.523,16.287 -17.503,16.258L-12.835,9.158C-11.188,14.899 -8.29,20.981 -5.437,26.968C-1.626,34.963 2.311,43.23 2.049,48.566C1.452,48.551 0.871,48.481 0.271,48.48C-3.044,35.144 -7.742,26.181 -18.127,18.627C-17.782,17.956 -17.549,17.199 -17.564,16.349M-11.709,75.989C-13.628,75.284 -14.721,74.456 -14.873,74.063C-14.724,73.603 -13.678,72.764 -11.829,72.051C-12.104,73.369 -12.104,74.694 -11.709,75.989M6.031,73.991C5.65,74.79 2.963,76.504 -1.697,77.016C-0.154,75.558 1.278,73.819 2.584,71.901C4.596,72.607 5.789,73.483 6.031,73.991M10.843,49.307C10.849,49.215 10.862,49.113 10.867,49.022C11.254,41.599 7.041,32.762 2.584,23.408C-2.299,13.162 -7.833,1.548 -4.214,-3.955L-11.67,-8.521C-11.673,-8.515 -11.679,-8.508 -11.682,-8.5L-24.956,11.691C-25.377,12.33 -26.205,13.588 -26.406,15.212C-26.426,15.234 -26.446,15.257 -26.467,15.279C-27.494,16.407 -28.903,17.951 -28.579,20.213L-28.184,22.316L-26.491,23.377C-22.546,25.846 -19.475,28.425 -16.996,31.341C-19.11,30.516 -21.342,29.794 -23.798,29.274C-40.491,25.736 -56.558,35.219 -67.19,42.65C-68.606,43.641 -70.023,44.649 -71.444,45.661C-81.28,52.663 -91.45,59.906 -102.909,61.401L-111.511,62.525L-105.504,68.572C-94.976,79.17 -80.841,85.856 -66.727,86.918C-66.66,86.923 -66.595,86.921 -66.528,86.926C-72.383,97.461 -75.469,109.231 -75.469,121.306C-75.469,161.469 -41.613,194.147 0,194.147C41.613,194.147 75.47,161.469 75.47,121.306C75.47,84.704 47.323,54.408 10.843,49.307" style="fill:rgb(30,19,15);fill-rule:nonzero;"/>
            </g>
            <g opacity="0.42">
                <g transform="matrix(0,-1,-1,0,394.327,228.803)">
                    <path d="M-39.417,-39.418C-57.015,-39.418 -71.279,-21.77 -71.279,0C-71.279,21.77 -57.015,39.417 -39.417,39.417C-21.82,39.417 -7.556,21.77 -7.556,0C-7.556,-21.77 -21.82,-39.418 -39.417,-39.418" style="fill:rgb(255,243,101);fill-rule:nonzero;"/>
                </g>
            </g>
            <g transform="matrix(-1,0,0,1,793.733,36.454)">
                <rect x="219.447" y="234.844" width="354.839" height="105.858" style="fill:rgb(233,178,89);stroke:rgb(29,33,28);stroke-width:9px;"/>
            </g>
        </g>
    </g>
</svg>
