<svg clip-rule="evenodd" fill-rule="evenodd" stroke-linejoin="round" stroke-miterlimit="2" viewBox="0 0 489 177" xmlns="http://www.w3.org/2000/svg"><g fill-rule="nonzero"><path d="m477.352 176.566h-466.259c-6.05 0-11-4.95-11-11v-154.33c0-6.05 4.95-11 11-11h466.259c6.05 0 11 4.95 11 11v154.33c0 6.05-4.95 11-11 11" fill="#91d9f8"/><g fill="#fff"><path d="m80.981 6.578c-1.777-2.095-4.438-4.031-7.066-3.232-1.335.406-2.372 1.455-3.226 2.559-4.487 5.803-5.186 14.28-1.709 20.739.117-4.096-3.564-7.913-7.663-7.943-4.098-.032-7.836 3.729-7.782 7.827-3.223-2.832-7.166-5.023-11.437-5.431-4.272-.408-8.867 1.207-11.357 4.7-2.49 3.494-2.301 8.874.919 11.71 2.313 2.037 5.605 2.496 8.688 2.526 6.882.066 13.774-1.58 19.883-4.75-3.482 1.392-2.983 7.04.084 9.197 3.067 2.158 7.185 1.818 10.893 1.257 2.584-.39 5.224-.868 7.473-2.199 2.25-1.33 4.061-3.698 4.017-6.311.011 4.078 2.634 7.854 6.102 9.997 3.469 2.144 7.664 2.837 11.742 2.787 1.951-.024 4-.242 5.608-1.347 4.1-2.814 2.975-9.067 1.285-13.743.37 3.706 4.998 5.163 8.72 5.277 4.718.145 9.828-.615 13.206-3.912 3.379-3.297 3.817-9.762-.143-12.331-1.566-1.016-3.496-1.272-5.359-1.399-5.595-.383-11.253.166-16.671 1.617 2.088-5.706-1.123-12.794-6.789-14.987-4.077-1.577-7.677-.25-11.259 1.718-1.97 1.082-2.151 2.89-4.284 1.867-1.114-.534-2.884-5.025-3.875-6.193"/><path d="m430.509 54.98c-1.451-1.711-3.624-3.292-5.77-2.639-1.09.331-1.937 1.188-2.634 2.089-3.664 4.739-4.235 11.661-1.395 16.936.095-3.345-2.911-6.462-6.258-6.487-3.346-.025-6.399 3.045-6.354 6.391-2.633-2.312-5.852-4.102-9.34-4.435-3.487-.333-7.239.986-9.272 3.839-2.035 2.853-1.88 7.245.75 9.561 1.888 1.664 4.577 2.038 7.094 2.063 5.619.054 11.247-1.29 16.236-3.879-2.843 1.137-2.437 5.749.068 7.511 2.505 1.761 5.867 1.484 8.895 1.026 2.11-.319 4.265-.709 6.102-1.795 1.838-1.087 3.316-3.02 3.28-5.154.009 3.329 2.151 6.413 4.983 8.163 2.832 1.751 6.259 2.317 9.588 2.276 1.593-.02 3.266-.198 4.58-1.1 3.347-2.298 2.428-7.404 1.049-11.222.302 3.026 4.081 4.216 7.121 4.309 3.852.118 8.025-.502 10.783-3.194 2.759-2.693 3.116-7.971-.117-10.07-1.279-.829-2.855-1.038-4.375-1.142-4.57-.313-9.19.135-13.614 1.32 1.705-4.659-.917-10.447-5.544-12.237-3.329-1.288-6.269-.204-9.194 1.403-1.607.883-1.756 2.36-3.498 1.524-.909-.436-2.354-4.103-3.164-5.057"/><path d="m194.587 19.446c-.95-1.12-2.372-2.155-3.777-1.728-.714.217-1.268.778-1.724 1.368-2.399 3.102-2.773 7.634-.914 11.087.062-2.19-1.906-4.23-4.097-4.247-2.191-.016-4.189 1.994-4.16 4.185-1.723-1.514-3.831-2.686-6.114-2.903-2.283-.219-4.74.644-6.071 2.512s-1.23 4.744.491 6.26c1.237 1.089 2.997 1.334 4.645 1.35 3.679.036 7.363-.844 10.629-2.539-1.862.744-1.595 3.763.045 4.917 1.639 1.153 3.84.971 5.822.672 1.382-.209 2.793-.464 3.996-1.176 1.203-.711 2.171-1.977 2.147-3.374.006 2.18 1.408 4.199 3.262 5.345s4.097 1.516 6.277 1.489c1.043-.012 2.138-.129 2.999-.719 2.191-1.504 1.59-4.848.687-7.347.197 1.981 2.671 2.76 4.661 2.821 2.522.077 5.254-.329 7.06-2.092 1.806-1.762 2.04-5.218-.077-6.591-.837-.544-1.869-.681-2.865-.748-2.991-.206-6.016.088-8.912.864 1.116-3.051-.6-6.84-3.629-8.012-2.179-.843-4.104-.133-6.019.919-1.053.578-1.15 1.545-2.29.998-.596-.286-1.542-2.686-2.072-3.311"/><path d="m298.632 6.614c-.949-1.12-2.372-2.155-3.777-1.728-.713.217-1.268.778-1.724 1.368-2.399 3.103-2.772 7.634-.914 11.088.062-2.19-1.905-4.231-4.097-4.248-2.19-.016-4.189 1.994-4.16 4.185-1.723-1.514-3.831-2.685-6.114-2.903s-4.739.645-6.07 2.512c-1.332 1.868-1.231 4.744.49 6.26 1.237 1.09 2.997 1.335 4.645 1.35 3.679.036 7.364-.844 10.629-2.539-1.861.745-1.595 3.764.045 4.917 1.64 1.154 3.841.972 5.822.672 1.382-.209 2.793-.464 3.996-1.175 1.203-.712 2.171-1.977 2.148-3.374.005 2.179 1.407 4.198 3.262 5.344 1.853 1.146 4.097 1.517 6.276 1.49 1.044-.013 2.139-.13 2.999-.72 2.191-1.504 1.59-4.847.687-7.347.197 1.981 2.671 2.76 4.661 2.821 2.522.077 5.255-.328 7.06-2.091 1.806-1.763 2.04-5.219-.077-6.592-.837-.543-1.869-.68-2.864-.748-2.991-.205-6.017.088-8.912.864 1.116-3.05-.601-6.839-3.63-8.011-2.179-.844-4.104-.134-6.019.918-1.052.578-1.15 1.545-2.29.998-.595-.285-1.542-2.686-2.072-3.311"/></g><path d="m477.101 176.566h-465.758c-6.05 0-11-4.95-11-11v-42.789h487.758v42.789c0 6.05-4.95 11-11 11" fill="#9acc5b"/></g></svg>