<?xml version="1.0" encoding="UTF-8" standalone="no"?><!DOCTYPE svg PUBLIC "-//W3C//DTD SVG 1.1//EN" "http://www.w3.org/Graphics/SVG/1.1/DTD/svg11.dtd"><svg width="100%" height="100%" viewBox="0 0 93 136" version="1.1" xmlns="http://www.w3.org/2000/svg" xmlns:xlink="http://www.w3.org/1999/xlink" xml:space="preserve" xmlns:serif="http://www.serif.com/" style="fill-rule:evenodd;clip-rule:evenodd;stroke-linejoin:round;stroke-miterlimit:2;"><g><path d="M92.193,123.913c0,6.469 -18.811,11.713 -42.015,11.713c-23.204,0 -42.014,-5.244 -42.014,-11.713c0,-6.469 18.81,-11.713 42.014,-11.713c23.204,0 42.015,5.244 42.015,11.713" style="fill:#5dbc61;fill-rule:nonzero;"/><path d="M65.228,107.314c0,0.101 0,0.203 0.001,0.304c0.501,0 1.005,-0.031 1.504,0.008c0.746,0.057 1.487,0.177 2.232,0.239c0.237,0.019 0.595,0.169 0.637,-0.248c0.006,-0.064 -0.362,-0.221 -0.567,-0.241c-0.863,-0.084 -1.728,-0.153 -2.594,-0.187c-0.404,-0.016 -0.846,-0.154 -1.213,0.125m-33.752,-41.548c-0.912,-0.349 -1.827,-0.69 -2.734,-1.052c-1.128,-0.449 -1.203,-0.422 -1.581,0.738c-0.019,0.056 0.04,0.138 0.098,0.317c1.359,0.255 2.774,0.126 4.217,-0.003m4.921,-0.101c0.877,-0.087 1.581,-0.171 2.286,-0.222c0.381,-0.027 0.723,-0.062 0.799,-0.527c0.074,-0.457 -0.157,-0.87 -0.593,-1.053c-0.536,-0.225 -1.21,-0.067 -1.606,0.438c-0.291,0.372 -0.52,0.794 -0.886,1.364m-33.784,-11.549c-0.227,-1.428 -0.445,-2.807 -0.666,-4.206c-0.447,0.119 -0.845,0.214 -0.837,0.737c0.011,0.752 -0.023,1.511 0.072,2.253c0.116,0.906 0.451,1.143 1.431,1.216m40.91,-4.914c-1.406,-0.063 -4.123,0.221 -4.704,0.477c1.361,1.85 3.47,1.672 4.704,-0.477m-39.164,-0.205c-1.568,0.192 -1.597,0.222 -1.564,1.626c0.01,0.396 -0.01,0.799 0.054,1.187c0.097,0.583 0.239,1.16 0.397,1.73c0.086,0.316 0.324,0.442 0.648,0.297c0.272,-0.122 0.651,-0.151 0.499,-0.631c-0.441,-1.388 -0.351,-2.792 -0.034,-4.209m46.853,23.266c-0.355,0.532 -0.674,0.901 -0.87,1.326c-0.485,1.056 -1.341,1.523 -2.431,1.671c-0.198,0.027 -0.4,0.022 -0.594,0.061c-0.503,0.099 -0.671,0.352 -0.553,0.846c0.119,0.499 0.504,0.327 0.759,0.214c1.344,-0.591 2.683,-1.196 4.002,-1.84c0.795,-0.39 0.806,-0.555 0.295,-1.354c-0.168,-0.262 -0.342,-0.521 -0.608,-0.924m-44.615,-21.811c0.015,0 0.029,-0.001 0.043,-0.002c0,-0.398 0.024,-0.798 -0.008,-1.193c-0.021,-0.283 0.194,-0.673 -0.24,-0.816c-0.43,-0.141 -1.015,0.126 -1.218,0.517c-0.054,0.105 -0.114,0.215 -0.134,0.33c-0.208,1.148 -0.2,2.297 0.035,3.438c0.037,0.18 0.207,0.485 0.291,0.477c0.383,-0.038 0.761,-0.148 1.13,-0.269c0.28,-0.092 0.257,-0.312 0.225,-0.58c-0.077,-0.63 -0.087,-1.268 -0.124,-1.902m39.901,33.968c-0.095,-0.487 -0.211,-0.854 -0.233,-1.227c-0.135,-2.329 -0.474,-4.65 -0.298,-6.994c0.047,-0.626 -0.041,-0.677 -0.677,-0.683c-0.24,-0.002 -0.479,0.016 -0.717,0.037c-0.352,0.032 -0.46,0.254 -0.449,0.578c0.064,1.75 0.104,3.502 0.194,5.251c0.032,0.627 0.17,1.25 0.289,1.869c0.025,0.132 0.157,0.283 0.281,0.351c0.512,0.28 1.04,0.532 1.61,0.818m-34.214,-37.636c0.299,1.76 0.575,3.437 0.877,5.108c0.102,0.572 0.273,0.677 0.82,0.576c0.43,-0.079 0.855,-0.187 1.276,-0.304c0.292,-0.08 0.476,-0.231 0.411,-0.602c-0.197,-1.135 -0.358,-2.275 -0.54,-3.412c-0.049,-0.313 -0.114,-0.625 -0.187,-0.934c-0.105,-0.442 -0.367,-0.706 -0.848,-0.655c-0.586,0.062 -1.17,0.143 -1.809,0.223m35.841,18.195c0.221,0.691 0.393,1.217 0.555,1.747c0.163,0.529 0.469,0.743 1.062,0.688c1.544,-0.143 3.093,-0.214 4.639,-0.327c0.275,-0.021 0.55,-0.089 0.814,-0.173c0.138,-0.045 0.304,-0.143 0.366,-0.264c0.386,-0.746 -0.248,-1.754 -1.097,-1.752c-1.83,0.004 -3.661,0.016 -5.491,0.028c-0.23,0.002 -0.46,0.028 -0.848,0.053m-24.385,17.216c0.803,-0.27 1.437,-0.505 2.085,-0.693c0.421,-0.123 0.558,-0.355 0.536,-0.785c-0.059,-1.114 -0.089,-2.23 -0.112,-3.345c-0.04,-1.899 -0.042,-1.908 -1.917,-1.885c-0.696,0.009 -0.7,0.009 -0.694,0.769c0.014,1.594 0.03,3.188 0.051,4.782c0.004,0.351 0.029,0.701 0.051,1.157m23.404,2.571c0.837,0.795 1.453,1.396 2.092,1.973c0.136,0.123 0.351,0.219 0.532,0.221c1.708,0.024 3.417,0.031 5.126,0.022c0.178,-0.001 0.504,-0.128 0.509,-0.211c0.035,-0.618 0.087,-1.254 -0.025,-1.856c-0.095,-0.51 -0.632,-0.376 -1.009,-0.372c-2.105,0.027 -4.21,0.07 -6.315,0.112c-0.193,0.004 -0.385,0.046 -0.91,0.111m3.282,2.968c1.601,2.409 3.12,4.693 4.51,6.784c0.251,-1.947 0.529,-4.116 0.813,-6.285c0.048,-0.367 -0.116,-0.502 -0.468,-0.501c-1.593,0.006 -3.186,0.002 -4.855,0.002m4.465,-42.739c-0.519,0.281 -0.818,0.481 -1.145,0.612c-0.648,0.258 -0.855,0.7 -0.841,1.394c0.051,2.752 0.052,5.504 0.057,8.256c0.002,0.871 0.194,0.897 1.037,0.795c0.43,-0.052 0.625,-0.291 0.636,-0.716c0.01,-0.358 0.054,-0.715 0.063,-1.074c0.067,-2.63 0.131,-5.26 0.192,-7.89c0.009,-0.389 0.001,-0.778 0.001,-1.377m-47.453,5.119c0,0.635 -0.02,1.27 0.011,1.904c0.01,0.237 0.131,0.466 0.466,0.361c1.175,-0.368 2.351,-0.731 3.526,-1.099c0.344,-0.108 0.547,-0.34 0.5,-0.709c-0.133,-1.02 -0.279,-2.037 -0.429,-3.055c-0.056,-0.391 -0.268,-0.539 -0.671,-0.419c-0.493,0.149 -1.004,0.244 -1.494,0.402c-2.375,0.766 -1.893,0.234 -1.909,2.615m38.839,-1.503c-0.968,-0.065 -1.571,0.202 -1.931,1.019c-0.186,0.425 -0.519,0.809 -0.858,1.138c-1.618,1.567 -4.201,1.361 -5.248,-0.536c-0.441,-0.797 -0.978,-0.797 -1.644,-0.807c-0.392,-0.006 -0.511,0.244 -0.335,0.551c0.414,0.723 0.853,1.436 1.318,2.128c0.371,0.552 0.945,0.85 1.564,1.047c1.044,0.333 2.123,0.348 3.201,0.29c0.266,-0.014 0.56,-0.113 0.78,-0.262c1.612,-1.091 2.71,-2.545 3.153,-4.568m-17.913,27.087l0,-0.126c-0.159,0 -0.32,-0.001 -0.48,0c-0.887,0.005 -0.912,0.051 -0.869,0.956c0.02,0.413 0.122,0.69 0.582,0.74c0.316,0.034 0.628,0.152 0.941,0.15c1.789,-0.017 3.562,0.307 5.37,0.075c1.817,-0.234 3.665,-0.22 5.496,-0.359c1.032,-0.078 2.06,-0.226 3.084,-0.382c0.346,-0.054 0.914,0.095 0.897,-0.521c-0.018,-0.713 -0.617,-0.471 -0.999,-0.474c-4.675,-0.03 -9.348,-0.042 -14.022,-0.059m-5.063,-15.972c-0.724,-0.059 -1.75,1.265 -1.469,1.927c0.067,0.161 0.251,0.324 0.419,0.382c0.373,0.131 0.772,0.182 1.154,0.29c1.95,0.548 3.902,1.091 5.844,1.665c0.609,0.18 1.194,0.442 1.784,0.682c0.53,0.216 0.926,0.166 1.342,-0.317c0.879,-1.02 0.916,-1.082 -0.272,-1.667c-2.727,-1.344 -5.612,-2.235 -8.566,-2.921c-0.078,-0.018 -0.158,-0.028 -0.236,-0.041m47.274,31.77c-0.558,0.035 -1.116,0.062 -1.671,0.11c-0.197,0.017 -0.388,0.085 -0.581,0.13c-1.279,0.297 -1.279,0.297 -1.209,1.572c0.005,0.079 -0.001,0.159 0.004,0.239c0.018,0.298 0.19,0.419 0.473,0.39c0.474,-0.049 0.958,-0.202 1.417,-0.144c1.384,0.175 2.748,0.468 4.023,1.071c1.229,0.583 2.197,1.437 2.733,2.717c0.323,0.77 0.628,1.547 0.956,2.314c0.072,0.169 0.179,0.389 0.325,0.449c0.47,0.191 1.175,-0.321 1.127,-0.844c-0.104,-1.146 -0.186,-2.304 -0.43,-3.424c-0.22,-1.012 -0.657,-1.992 -1.529,-2.639c-1.667,-1.236 -3.483,-2.089 -5.638,-1.941m-17.217,-17.857c0.021,0.05 0.044,0.1 0.065,0.15c0.117,0.015 0.235,0.039 0.353,0.043c2.63,0.083 5.261,0.142 7.889,0.257c0.912,0.04 1.816,0.226 2.725,0.333c1.258,0.148 1.717,0.739 1.961,2.05c0.238,1.283 0.481,2.563 0.588,3.881c0.27,3.339 0.51,6.669 0.207,10.016c-0.021,0.226 0.024,0.459 0.045,0.782c0.924,-0.155 1.777,-0.293 2.628,-0.443c0.365,-0.064 0.393,-0.334 0.36,-0.637c-0.077,-0.711 -0.155,-1.422 -0.22,-2.133c-0.061,-0.673 -0.082,-1.35 -0.164,-2.02c-0.235,-1.931 -0.829,-3.804 -0.867,-5.774c-0.017,-0.862 -0.239,-1.729 -0.443,-2.576c-0.187,-0.771 -0.472,-1.518 -0.72,-2.273c-0.415,-1.266 -1.482,-2.745 -3.391,-2.693c-0.239,0.006 -0.478,-0.004 -0.717,-0.008c-3.161,-0.05 -6.281,0.387 -9.401,0.802c-0.304,0.04 -0.599,0.16 -0.898,0.243m-9.795,9.324c0,-0.734 0.006,-1.328 -0.001,-1.921c-0.011,-0.996 -0.029,-1.993 -0.046,-2.989c-0.007,-0.386 -0.143,-0.597 -0.589,-0.501c-1.764,0.38 -3.563,0.334 -5.352,0.432c-3.486,0.192 -6.968,0.434 -10.511,-0.196c0,0.646 -0.019,1.237 0.007,1.826c0.013,0.315 0.12,0.624 0.154,0.939c0.044,0.409 0.264,0.539 0.649,0.489c0.276,-0.037 0.555,-0.058 0.834,-0.066c1.712,-0.053 3.429,-0.196 5.136,-0.12c1.544,0.069 3.1,0.276 4.609,0.611c1.548,0.343 3.046,0.917 4.567,1.385c0.183,0.055 0.375,0.077 0.543,0.111m26.196,23.497l0,0.052c1.238,0 2.476,0.041 3.71,-0.011c1.366,-0.058 1.563,-0.31 1.535,-1.656c-0.018,-0.851 -0.019,-0.83 -0.866,-0.884c-2.187,-0.141 -4.373,-0.303 -6.558,-0.455c-2.027,-0.141 -4.052,-0.277 -6.079,-0.423c-0.515,-0.037 -1.029,-0.096 -1.544,-0.151c-1.028,-0.111 -2.057,-0.225 -3.085,-0.34c-0.399,-0.045 -0.577,0.118 -0.6,0.529c-0.042,0.754 -0.146,1.505 -0.183,2.259c-0.041,0.811 -0.02,0.819 0.754,0.811c0.759,-0.007 1.518,-0.06 2.275,-0.041c3.547,0.094 7.094,0.205 10.641,0.31m-32.977,-31.443c0.001,-0.017 0.001,-0.035 0.002,-0.052c0.119,0 0.239,-0.003 0.359,0c3.398,0.1 6.788,-0.014 10.167,-0.413c0.762,-0.091 1.53,-0.167 2.022,-0.858c0.3,-0.422 0.574,-0.867 0.821,-1.322c0.234,-0.435 0.065,-0.922 -0.417,-1.37c-0.453,-0.419 -1.209,-0.632 -1.533,-0.416c-0.092,0.062 -0.174,0.171 -0.211,0.276c-0.178,0.501 -0.615,0.7 -1.025,0.953c-0.214,0.131 -0.43,0.353 -0.515,0.582c-0.271,0.733 -0.847,1.037 -1.536,1.181c-0.467,0.099 -0.953,0.108 -1.422,0.194c-0.219,0.041 -0.493,0.11 -0.619,0.266c-0.608,0.752 -1.342,0.594 -2.069,0.306c-0.681,-0.271 -1.216,-0.74 -1.616,-1.373c-0.606,-0.959 -0.612,-0.91 -1.726,-0.735c-0.782,0.123 -1.59,0.207 -2.375,0.145c-0.93,-0.073 -1.888,-0.419 -2.3,-1.291c-0.348,-0.736 -0.761,-0.777 -1.394,-0.637c-0.232,0.051 -0.482,0.025 -0.714,0.078c-2.37,0.553 -4.763,0.424 -7.139,0.137c-0.714,-0.085 -1.24,0.056 -1.768,0.436c-0.389,0.279 -0.751,0.597 -1.146,0.868c-0.653,0.449 -0.572,1.044 -0.439,1.706c0.138,0.688 0.671,0.703 1.166,0.821c0.115,0.027 0.237,0.03 0.357,0.036c1.988,0.09 3.976,0.201 5.964,0.261c3.035,0.093 6.071,0.149 9.106,0.221m29.808,45.334c0.519,-0.078 1.238,-0.133 1.931,-0.299c2.436,-0.581 5.054,-2.751 5.422,-5.723c0.257,-2.081 -1.484,-4.766 -3.517,-5.249c-0.039,-0.009 -0.079,-0.011 -0.118,-0.02c-0.579,-0.132 -1.156,-0.27 -1.736,-0.395c-1.292,-0.279 -2.576,-0.541 -3.85,0.127c-2.708,1.419 -4.096,3.703 -4.32,6.69c-0.136,1.801 0.712,3.131 2.299,3.995c1.153,0.629 2.416,0.756 3.889,0.874m-39.634,-56.221c-1.039,-0.291 -1.949,-0.554 -2.864,-0.798c-0.297,-0.08 -0.556,0.006 -0.697,0.309c-0.709,1.519 -1.457,3.027 -1.386,4.773c0.038,0.947 0.233,1.202 1.18,1.318c0.99,0.121 1.988,0.174 2.982,0.257c2.132,0.179 4.197,-0.431 6.305,-0.539c0.678,-0.034 0.745,-0.069 0.739,0.513c-0.006,0.735 0.392,1.122 0.985,1.335c0.478,0.173 1,0.298 1.505,0.31c0.591,0.014 1.218,-0.022 1.772,-0.207c1.153,-0.387 1.866,-0.075 2.396,1.028c0.22,0.462 0.743,0.811 1.191,1.121c0.229,0.16 0.597,0.122 0.902,0.174c0.048,-0.339 0.133,-0.678 0.13,-1.015c-0.002,-0.181 -0.13,-0.379 -0.246,-0.534c-0.335,-0.444 -0.684,-0.878 -1.044,-1.301c-0.203,-0.238 -0.556,-0.466 -0.245,-0.787c0.282,-0.29 0.594,-0.023 0.845,0.165c0.156,0.118 0.299,0.27 0.408,0.433c0.355,0.527 0.687,1.069 1.039,1.599c0.127,0.192 0.258,0.487 0.434,0.525c0.71,0.154 1.432,0.165 2.07,-0.276c0.317,-0.219 0.321,-0.498 0.137,-0.831c-0.321,-0.58 -0.773,-1.006 -1.358,-1.307c-0.674,-0.347 -1.346,-0.699 -2.005,-1.074c-0.1,-0.058 -0.121,-0.256 -0.178,-0.388c0.145,-0.037 0.318,-0.145 0.43,-0.1c1.255,0.501 2.56,0.913 3.495,1.989c0.38,0.436 0.715,0.427 1.106,0.052c0.306,-0.294 0.307,-0.66 -0.094,-1.039c-0.283,-0.268 -0.633,-0.49 -0.988,-0.654c-1.527,-0.708 -3.118,-1.205 -4.801,-1.385c-0.251,-0.026 -0.648,0.062 -0.602,-0.347c0.013,-0.12 0.436,-0.249 0.681,-0.272c0.27,-0.026 0.553,0.049 0.824,0.109c0.544,0.12 1.08,0.276 1.625,0.389c0.779,0.161 1.834,-0.251 2.226,-0.845c0.384,-0.581 0.135,-1.122 -0.552,-1.14c-0.597,-0.015 -1.2,-0.009 -1.795,0.047c-2.141,0.205 -4.28,0.436 -6.42,0.656c-0.871,0.09 -1.741,0.239 -2.614,0.253c-2.076,0.033 -4.154,0.025 -6.23,-0.018c-0.589,-0.012 -1.182,-0.17 -1.757,-0.32c-0.353,-0.092 -0.515,-0.31 -0.255,-0.715c0.271,-0.422 0.452,-0.902 0.724,-1.463m28.944,34.151c0.14,1.025 0.276,1.925 0.377,2.827c0.036,0.326 0.147,0.513 0.483,0.563c0.355,0.053 0.702,0.166 1.058,0.195c2.061,0.169 4.126,0.32 6.188,0.477c1.469,0.113 2.937,0.238 4.407,0.337c2.105,0.142 4.211,0.301 6.318,0.385c1.226,0.048 1.494,-0.361 1.371,-1.624c-0.142,-1.462 -0.669,-2.784 -1.413,-4.021c-0.261,-0.433 -0.613,-0.855 -1.02,-1.148c-1.824,-1.315 -3.899,-1.894 -6.102,-1.495c-2.635,0.477 -5.131,1.482 -7.561,2.58c-1.045,0.473 -2.092,0.698 -3.192,0.843c-0.271,0.036 -0.544,0.05 -0.914,0.081m-34.322,-27.966c-0.129,-0.675 -0.265,-1.2 -0.323,-1.733c-0.058,-0.542 0.022,-1.06 -0.353,-1.584c-0.275,-0.383 -0.255,-0.984 -0.341,-1.493c-0.047,-0.274 -0.012,-0.561 -0.062,-0.834c-0.462,-2.503 -0.916,-5.008 -1.415,-7.504c-0.241,-1.208 -0.524,-2.414 -0.881,-3.592c-0.276,-0.909 -0.412,-0.967 -1.296,-0.8c-1.174,0.222 -2.344,0.481 -3.5,0.782c-0.834,0.216 -0.857,0.324 -0.606,1.197c0.022,0.077 0.051,0.152 0.072,0.229c0.972,3.82 1.996,7.628 2.896,11.465c0.5,2.128 0.757,4.311 1.191,6.456c0.261,1.285 0.724,2.53 0.972,3.816c0.445,2.305 0.791,4.63 1.193,6.944c0.057,0.325 0.196,0.637 0.3,0.967c1.103,-0.673 2.079,-1.283 3.072,-1.868c0.374,-0.221 0.418,-0.55 0.418,-0.921c0.004,-1.157 0.014,-2.316 0.014,-3.473c0,-0.639 -0.012,-1.278 -0.025,-1.916c-0.024,-1.052 0.012,-1.197 -1.117,-1.175c-0.316,0.006 -0.636,-0.05 -0.949,-0.11c-1.113,-0.21 -1.314,-0.425 -1.471,-1.522c-0.147,-1.018 -0.013,-1.896 1.02,-2.447c0.451,-0.24 0.832,-0.613 1.191,-0.884m34.026,-21.083l-0.048,0c0,0.24 0.003,0.479 -0.001,0.719c-0.005,0.28 0.001,0.561 -0.025,0.838c-0.073,0.772 0.237,0.979 0.921,0.646c1.501,-0.731 2.991,-1.448 4.278,-2.594c4.087,-3.64 7.142,-8.039 9.76,-12.784c0.173,-0.315 0.341,-0.634 0.525,-0.942c0.306,-0.508 0.717,-0.811 1.354,-0.835c1.439,-0.055 2.477,-0.767 3.163,-2.029c0.362,-0.666 0.78,-1.301 1.148,-1.963c0.412,-0.739 1.01,-1.093 1.865,-1.041c0.518,0.031 1.044,-0.041 1.558,0.014c1.085,0.118 1.837,-0.379 2.451,-1.196c0.442,-0.586 0.35,-0.924 -0.38,-1.101c-0.419,-0.102 -0.87,-0.09 -1.307,-0.101c-0.879,-0.022 -1.763,0.032 -2.635,-0.049c-0.832,-0.078 -1.061,-0.69 -0.547,-1.359c0.24,-0.313 0.548,-0.578 0.845,-0.843c0.684,-0.611 1.404,-1.187 2.066,-1.822c0.57,-0.548 0.562,-1.128 0.067,-1.684c-0.227,-0.253 -0.449,-0.301 -0.698,-0.019c-1.21,1.371 -3.058,2.08 -3.941,3.799c-0.06,0.117 -0.359,0.214 -0.498,0.169c-0.276,-0.09 -0.31,-0.369 -0.157,-0.59c0.36,-0.523 0.696,-1.084 1.149,-1.517c0.631,-0.605 1.391,-1.074 2.037,-1.665c0.401,-0.365 0.824,-0.798 1.005,-1.286c0.313,-0.84 -0.307,-1.408 -1.175,-1.183c-0.154,0.041 -0.309,0.093 -0.449,0.168c-1.228,0.665 -2.453,1.335 -3.678,2.006c-0.48,0.264 -0.772,0.685 -0.947,1.191c-0.195,0.564 -0.357,1.141 -0.578,1.694c-0.059,0.147 -0.278,0.23 -0.424,0.343c-0.114,-0.183 -0.358,-0.4 -0.319,-0.541c0.185,-0.69 0.397,-1.382 0.694,-2.031c0.464,-1.016 0.998,-2 1.513,-2.993c0.271,-0.521 0.389,-1.059 0.137,-1.607c-0.084,-0.183 -0.286,-0.408 -0.463,-0.437c-1.171,-0.193 -2.504,0.598 -2.993,1.707c-0.744,1.69 -1.196,3.469 -1.557,5.267c-0.215,1.066 -0.285,2.162 0.808,2.899c0.065,0.043 0.112,0.113 0.162,0.175c0.705,0.87 0.73,1.91 0.705,2.951c-0.003,0.131 -0.228,0.352 -0.361,0.359c-0.13,0.008 -0.297,-0.184 -0.401,-0.323c-0.061,-0.082 -0.04,-0.232 -0.039,-0.351c0.01,-1.146 -0.389,-2.106 -1.296,-2.832c-0.479,-0.383 -0.649,-0.889 -0.616,-1.484c0.013,-0.239 -0.008,-0.481 0.019,-0.718c0.083,-0.699 -0.255,-1.239 -0.667,-1.735c-0.379,-0.457 -1.528,-0.646 -1.981,-0.309c-0.144,0.107 -0.241,0.431 -0.194,0.61c0.09,0.34 0.267,0.671 0.469,0.964c0.768,1.115 1.04,2.229 0.576,3.605c-0.524,1.556 0.204,2.925 1.669,3.681c0.071,0.036 0.149,0.058 0.22,0.095c0.891,0.453 1.013,0.644 0.618,1.595c-0.333,0.805 -0.756,1.589 -1.247,2.308c-0.922,1.351 -1.916,2.652 -2.89,3.968c-2.357,3.185 -5.069,5.959 -8.81,7.525c-0.348,0.146 -0.466,0.398 -0.462,0.752c0.008,0.639 0.002,1.277 0.002,1.916m-3.692,-2.622c-1.364,0.496 -2.62,0.999 -3.908,1.399c-0.575,0.179 -0.845,0.479 -0.968,1.036c-0.355,1.61 -1.218,2.914 -2.404,4.052c-0.96,0.92 -2.009,1.405 -3.353,1.142c-0.31,-0.06 -0.638,-0.029 -0.956,-0.044c-1.675,-0.08 -3.011,-0.758 -3.836,-2.256c-0.397,-0.721 -0.712,-1.485 -1.096,-2.296c-1.286,0.624 -2.597,1.204 -3.849,1.89c-0.69,0.379 -1.349,0.87 -1.907,1.426c-1.666,1.664 -3.278,3.38 -4.899,5.086c-0.262,0.275 -0.64,0.509 -0.563,1.008c1.486,0.435 2.988,0.82 4.45,1.321c1.449,0.496 2.858,1.109 4.283,1.67c1.353,-3.459 2.991,-6.224 4.146,-6.885c-0.337,1.165 -0.804,2.155 -1.328,3.129c-0.565,1.054 -1.119,2.116 -1.616,3.203c-0.206,0.449 -0.453,0.932 -0.175,1.486c0.223,0.442 0.032,0.843 -0.28,1.201c-0.47,0.54 -0.922,1.095 -1.46,1.739c0.659,0 1.181,-0.041 1.693,0.008c1,0.098 1.675,-0.342 2.194,-1.151c0.277,-0.434 0.576,-0.868 0.936,-1.232c0.56,-0.567 1.29,-0.643 2.005,-0.391c0.721,0.253 1.22,0.75 1.224,1.595c0,0.189 0.041,0.378 0.067,0.602c1.053,-0.121 2.04,-0.263 3.031,-0.342c0.755,-0.059 1.518,-0.068 2.275,-0.047c0.607,0.017 0.978,0.288 1.074,0.767c0.128,0.639 0.15,1.277 -0.416,1.768c-0.238,0.207 -0.463,0.428 -0.751,0.696c0.411,0.206 0.777,0.351 1.1,0.561c0.365,0.238 0.678,0.552 1.036,0.801c0.387,0.269 0.788,0.204 1.261,-0.006c-0.234,-0.621 -0.444,-1.175 -0.652,-1.73c-1.494,-3.992 -2.137,-8.154 -2.459,-12.378c-0.011,-0.134 0.158,-0.283 0.35,-0.601c0.137,0.544 0.28,0.881 0.296,1.225c0.029,0.561 0.273,0.747 0.824,0.759c1.486,0.033 2.942,-0.125 4.396,-0.429c0.53,-0.11 0.602,-0.336 0.585,-0.811c-0.103,-2.869 -0.173,-5.739 -0.259,-8.608c-0.003,-0.112 -0.054,-0.223 -0.091,-0.363m14.442,41.287c0.101,-3.786 0.019,-7.561 -0.707,-11.296c-0.173,-0.891 -0.562,-1.372 -1.422,-1.519c-0.628,-0.108 -1.26,-0.224 -1.894,-0.252c-2.87,-0.13 -5.74,-0.227 -8.609,-0.343c-0.456,-0.018 -0.82,0.149 -1.225,0.357c-1.557,0.798 -3.033,1.767 -4.75,2.231c-1.009,0.272 -1.043,0.309 -0.977,1.419c0.102,1.708 0.277,3.411 0.403,5.117c0.033,0.442 0.271,0.504 0.64,0.483c2.227,-0.128 4.453,-0.245 6.68,-0.363c0.159,-0.008 0.319,-0.007 0.478,0.006c0.751,0.063 1.034,0.215 1.151,0.965c0.188,1.214 0.393,2.454 0.335,3.67c-0.106,2.183 -0.392,4.358 -0.63,6.533c-0.037,0.333 -0.201,0.659 -0.34,0.972c-0.199,0.447 0.043,1.385 0.428,1.409c1.276,0.077 2.608,0.176 3.749,-0.461c1.864,-1.042 3.854,-1.72 5.863,-2.379c0.809,-0.265 0.821,-0.261 0.824,-1.168c0.008,-1.794 0.003,-3.588 0.003,-5.381m-34.375,-6.279c-1.456,0.12 -2.979,0.144 -4.466,0.386c-5.336,0.869 -9.157,4.037 -11.946,8.432c-1.677,2.642 -2.538,5.663 -2.48,8.868c0.022,1.198 -0.005,2.395 0.007,3.593c0.005,0.478 0.011,0.963 0.097,1.431c0.705,3.837 2.27,7.292 4.685,10.357c0.368,0.466 0.804,0.882 1.24,1.289c1.738,1.623 3.658,2.903 6.013,3.515c1.46,0.38 2.834,1.08 4.365,1.219c0.914,0.083 1.833,0.113 2.742,0.224c2.282,0.279 4.539,-0.041 6.802,-0.232c1.977,-0.167 3.801,-0.886 5.585,-1.675c1.683,-0.745 3.26,-1.711 4.588,-3.004c1.521,-1.48 2.839,-3.14 3.986,-4.924c1.158,-1.803 1.96,-3.782 2.1,-5.916c0.162,-2.457 0.262,-4.921 -0.403,-7.369c-0.454,-1.669 -1.008,-3.292 -1.868,-4.762c-1.23,-2.096 -2.601,-4.12 -4.422,-5.777c-0.794,-0.721 -1.544,-1.545 -2.46,-2.066c-1.344,-0.766 -2.789,-1.387 -4.248,-1.913c-1.459,-0.526 -2.965,-0.997 -4.491,-1.243c-1.764,-0.284 -3.572,-0.298 -5.426,-0.433m6.02,-62.854c0.574,-0.132 0.943,-0.261 1.319,-0.284c0.186,-0.012 0.385,0.168 0.578,0.262c-0.125,0.134 -0.229,0.355 -0.378,0.391c-1.325,0.326 -2.218,1.164 -2.951,2.274c-0.458,0.694 -1.044,1.307 -1.603,1.931c-0.388,0.434 -0.91,0.644 -1.493,0.67c-0.462,0.021 -0.685,-0.213 -0.597,-0.654c0.079,-0.389 0.219,-0.766 0.327,-1.15c0.554,-1.986 0.74,-4.993 0.416,-6.599c-0.117,0.769 -0.221,1.557 -0.355,2.34c-0.435,2.549 -1.206,4.969 -2.886,6.998c-0.505,0.61 -1.062,1.219 -1.711,1.658c-0.72,0.485 -0.867,1.023 -0.63,1.786c0.092,0.302 0.156,0.625 0.167,0.94c0.122,3.433 0.157,6.865 -0.517,10.253c-0.11,0.553 -0.122,0.916 0.418,1.183c0.111,0.054 0.162,0.229 0.382,0.561c-0.747,-0.168 -1.289,-0.247 -1.803,-0.413c-1.004,-0.326 -2.025,-0.441 -3.071,-0.377c-1.352,0.081 -2.087,0.799 -2.048,2.135c0.085,2.897 2,4.207 4.138,4.108c1.339,-0.063 1.984,-0.573 2.351,-1.906c0.047,-0.169 0.185,-0.423 0.304,-0.437c0.191,-0.023 0.442,0.074 0.598,0.204c0.577,0.488 1.087,1.062 1.693,1.508c1.664,1.225 3.5,2.118 5.586,2.265c2.919,0.207 5.823,-0.014 8.689,-0.622c0.694,-0.147 1.366,-0.538 2.051,-0.547c0.879,-0.012 1.644,-0.282 2.417,-0.594c2.264,-0.91 4.455,-1.969 6.487,-3.325c0.522,-0.347 0.997,-0.809 1.384,-1.304c1.475,-1.889 2.216,-4.05 2.16,-6.45c-0.028,-1.232 -0.139,-2.463 -0.248,-3.692c-0.194,-2.205 -0.752,-4.325 -1.716,-6.313c-1.167,-2.404 -2.348,-4.806 -3.647,-7.139c-0.91,-1.633 -2.029,-3.15 -3.054,-4.719c-0.335,-0.514 -0.798,-0.739 -1.418,-0.714c-0.353,0.013 -0.717,-0.039 -1.065,-0.116c-0.776,-0.173 -1.549,-0.366 -2.316,-0.578c-0.795,-0.22 -1.582,-0.474 -2.479,-0.745c-0.045,0.35 -0.079,0.692 -0.134,1.029c-0.153,0.943 -0.214,1.917 -0.503,2.817c-0.251,0.78 -0.71,1.512 -1.177,2.196c-0.315,0.458 -0.777,0.347 -1.006,-0.181c-0.174,-0.401 -0.306,-0.825 -0.407,-1.25c-0.193,-0.813 -0.346,-1.637 -0.526,-2.454c-0.059,-0.271 -0.134,-0.542 -0.226,-0.804c-0.086,-0.249 -0.204,-0.487 -0.308,-0.729c0.026,2.242 -0.274,4.385 -1.192,6.587m6.469,-17.316c-0.02,-0.081 -0.04,-0.163 -0.06,-0.245c-0.192,-0.016 -0.384,-0.047 -0.576,-0.047c-1.209,0.004 -2.385,0.242 -3.519,0.635c-2.79,0.968 -5.562,1.991 -8.351,2.963c-2.229,0.778 -4.319,1.872 -6.478,2.807c-3.03,1.31 -5.834,2.967 -8.378,5.059c-0.546,0.448 -1.011,1.013 -1.436,1.583c-0.231,0.31 -0.437,0.554 -0.835,0.576c-1.668,0.09 -3.066,0.874 -4.374,1.799c-0.84,0.595 -1.617,1.304 -2.328,2.051c-0.535,0.563 -0.947,1.259 -0.809,2.256c0.352,-0.203 0.605,-0.373 0.878,-0.501c0.971,-0.456 1.943,-0.911 2.928,-1.335c0.318,-0.136 0.763,-0.312 0.972,0.079c0.219,0.411 -0.228,0.601 -0.492,0.834c-1.427,1.255 -2.607,2.694 -3.29,4.494c-0.167,0.442 -0.381,0.879 -0.123,1.466c0.348,-0.258 0.669,-0.481 0.972,-0.723c0.656,-0.523 1.298,-1.062 1.956,-1.581c0.185,-0.145 0.391,-0.286 0.611,-0.359c0.413,-0.137 0.721,0.178 0.576,0.595c-0.144,0.413 -0.346,0.806 -0.524,1.207c-0.911,2.041 -1.25,4.196 -1.225,6.409c0.005,0.478 -0.034,1.05 0.469,1.396c0.297,-0.35 0.645,-0.67 0.877,-1.059c0.385,-0.651 0.671,-1.361 1.053,-2.014c0.12,-0.204 0.417,-0.304 0.634,-0.452c0.099,0.235 0.278,0.469 0.281,0.705c0.011,1.036 -0.078,2.075 -0.04,3.109c0.07,1.877 0.643,3.595 1.758,5.128c1.121,1.54 2.584,2.706 4.098,3.818c0.264,0.195 0.611,0.279 0.995,0.446c0.061,-0.373 0.081,-0.61 0.142,-0.835c0.305,-1.132 1.078,-1.799 2.215,-1.88c0.946,-0.067 1.906,0.065 2.859,0.114c0.261,0.013 0.523,0.045 0.825,0.072c0.832,-4.079 0.973,-8.084 0.441,-12.17c-1.049,0.314 -1.724,1.296 -2.841,1.12c1.334,-1.017 2.645,-1.989 3.923,-3.002c1.44,-1.139 2.519,-2.579 3.163,-4.291c0.46,-1.226 0.822,-2.499 1.117,-3.777c0.286,-1.238 0.416,-2.512 0.649,-3.765c0.067,-0.36 0.037,-0.913 0.584,-0.89c0.443,0.018 0.435,0.508 0.502,0.845c0.424,2.098 0.275,4.21 0.087,6.313c-0.076,0.85 -0.343,1.683 -0.565,2.722c0.367,-0.269 0.598,-0.398 0.779,-0.578c0.941,-0.941 1.606,-2.079 2.238,-3.234c1.486,-2.718 1.841,-5.661 1.668,-8.697c-0.022,-0.382 -0.09,-0.779 0.356,-0.882c0.434,-0.1 0.49,0.362 0.568,0.629c0.462,1.566 0.889,3.141 1.319,4.716c0.155,0.562 0.286,1.13 0.463,1.834c0.575,-0.621 0.856,-1.196 0.961,-1.814c0.247,-1.449 0.425,-2.91 0.646,-4.364c0.032,-0.211 0.142,-0.411 0.217,-0.616c0.204,0.081 0.458,0.112 0.606,0.253c0.761,0.727 1.682,1.028 2.699,1.157c0.591,0.075 1.201,0.152 1.751,0.363c1.014,0.39 2.025,0.374 3.062,0.199c0.746,-0.126 1.491,-0.262 2.241,-0.357c0.147,-0.019 0.315,0.128 0.473,0.198c-0.091,0.122 -0.157,0.307 -0.278,0.356c-0.733,0.295 -1.479,0.558 -2.225,0.834c0.877,1.274 1.78,2.577 2.673,3.885c0.878,1.284 1.375,2.807 2.477,4.099c0,-1.423 0.143,-2.715 -0.032,-3.962c-0.284,-2.007 -0.676,-4.011 -1.21,-5.965c-0.643,-2.352 -1.683,-4.502 -4.079,-5.626c-0.072,-0.034 -0.15,-0.077 -0.196,-0.137c-0.184,-0.243 -0.511,-0.508 -0.491,-0.737c0.02,-0.216 0.386,-0.45 0.647,-0.582c0.353,-0.177 0.755,-0.253 1.129,-0.391c0.538,-0.2 1.144,-0.255 1.661,-0.74c-1.37,-0.408 -2.69,-0.485 -3.997,-0.444c-2.364,0.073 -4.674,0.526 -6.944,1.187c-0.265,0.077 -0.539,0.171 -0.809,0.174c-0.16,0.002 -0.411,-0.129 -0.455,-0.257c-0.049,-0.143 0.042,-0.395 0.159,-0.519c0.156,-0.168 0.396,-0.258 0.598,-0.385c0.668,-0.423 1.336,-0.848 2.004,-1.272m-22.857,64.387c0.421,-0.932 0.781,-1.728 1.176,-2.598c-0.271,-0.134 -0.493,-0.288 -0.74,-0.36c-1.234,-0.355 -1.309,-1.21 -0.898,-2.283c0.244,-0.637 0.637,-1.296 1.419,-1.534c0.209,-0.063 0.405,-0.24 0.558,-0.409c1.046,-1.148 2.071,-2.315 3.121,-3.46c0.7,-0.764 1.46,-1.475 2.139,-2.256c1.101,-1.263 2.45,-2.156 3.966,-2.829c0.611,-0.272 1.214,-0.563 2.044,-0.949c-2.224,-0.829 -4.118,-1.8 -5.677,-3.449c-0.206,0.262 -0.359,0.428 -0.478,0.615c-0.653,1.017 -1.649,1.396 -2.777,1.334c-2.131,-0.117 -3.76,-1.036 -4.456,-3.18c-0.187,-0.58 -0.533,-0.904 -1.057,-1.194c-2.344,-1.302 -4.252,-3.086 -5.687,-5.361c-0.921,-1.46 -1.193,-3.11 -1.378,-4.783c-0.03,-0.277 -0.037,-0.555 -0.063,-0.971c-0.325,0.446 -0.557,0.807 -0.831,1.132c-0.746,0.885 -1.723,0.702 -2.094,-0.401c-0.112,-0.333 -0.144,-0.701 -0.162,-1.056c-0.112,-2.091 0.052,-4.146 0.827,-6.118c0.043,-0.109 0.073,-0.224 0.096,-0.339c0.006,-0.027 -0.042,-0.064 -0.119,-0.172c-0.363,0.297 -0.716,0.602 -1.086,0.885c-0.317,0.242 -0.625,0.518 -0.982,0.677c-0.803,0.358 -1.393,0.001 -1.345,-0.858c0.038,-0.663 0.153,-1.367 0.431,-1.961c0.522,-1.113 1.187,-2.158 1.814,-3.269c-0.356,-0.059 -0.618,0.251 -0.918,0.444c-0.509,0.326 -1.038,0.74 -1.636,0.289c-0.582,-0.438 -0.379,-1.062 -0.232,-1.654c0.203,-0.81 0.701,-1.444 1.254,-2.013c1.408,-1.446 3.041,-2.587 4.948,-3.284c0.626,-0.229 1.388,-0.183 1.93,-0.519c0.506,-0.313 0.73,-1.05 1.204,-1.451c1.094,-0.928 2.229,-1.819 3.413,-2.627c1.851,-1.263 3.839,-2.285 5.909,-3.159c1.543,-0.651 3.012,-1.487 4.577,-2.075c3.511,-1.32 7.054,-2.552 10.596,-3.786c1.485,-0.518 3.034,-0.683 4.605,-0.608c0.199,0.009 0.403,-0.007 0.598,0.028c0.505,0.091 0.696,0.478 0.374,0.86c-0.33,0.392 -0.748,0.711 -1.273,1.195c1.229,-0.184 2.243,-0.341 3.259,-0.489c2.119,-0.308 4.218,-0.185 6.295,0.319c0.456,0.111 1.088,0.141 1.173,0.672c0.103,0.652 -0.588,0.79 -1.033,0.987c-0.827,0.367 -1.69,0.65 -2.548,0.972c0.073,0.127 0.092,0.217 0.144,0.244c2.246,1.158 3.336,3.229 3.941,5.484c1.051,3.929 1.883,7.92 1.498,12.041c-0.056,0.594 0.12,1.096 0.382,1.598c1.078,2.069 1.758,4.269 2.185,6.558c0.391,2.092 0.593,4.217 0.328,6.311c-0.373,2.944 -1.589,5.503 -4.214,7.175c-0.343,0.219 -0.532,0.438 -0.395,0.876c0.077,0.248 0.043,0.531 0.065,0.91c1.201,-0.527 2.25,-1.072 3.171,-1.835c2.32,-1.92 4.359,-4.094 6.022,-6.617c0.635,-0.966 1.352,-1.878 2.015,-2.826c0.321,-0.458 0.63,-0.927 0.894,-1.418c0.539,-1.003 0.515,-1.002 -0.496,-1.617c-1.173,-0.711 -1.891,-1.709 -1.816,-3.138c0.033,-0.633 0.085,-1.272 0.217,-1.889c0.135,-0.625 0.058,-1.181 -0.248,-1.728c-0.293,-0.522 -0.603,-1.038 -0.85,-1.582c-0.552,-1.217 -0.132,-1.859 1.22,-2.038c1.119,-0.148 2.058,0.091 2.804,1.184c0.124,-0.343 0.204,-0.544 0.269,-0.749c0.429,-1.325 0.849,-2.654 1.283,-3.978c0.271,-0.827 0.887,-1.318 1.691,-1.553c0.57,-0.166 1.162,-0.298 1.753,-0.343c0.847,-0.063 1.094,0.176 1.356,1.019c0.2,0.638 0.185,1.258 -0.068,1.872c-0.134,0.322 -0.289,0.636 -0.512,1.124c0.976,-0.517 1.79,-0.972 2.627,-1.38c0.426,-0.208 0.88,-0.408 1.342,-0.479c1.067,-0.165 1.825,0.36 1.98,1.414c0.08,0.547 0.238,0.937 0.678,1.292c0.706,0.57 0.943,1.777 -0.009,2.621c-0.89,0.79 -1.738,1.629 -2.765,2.598c0.838,0.008 1.505,-0.013 2.168,0.027c0.676,0.04 1.365,0.065 2.015,0.23c1.168,0.297 1.487,1.215 0.807,2.201c-0.687,0.999 -1.548,1.705 -2.867,1.654c-0.636,-0.025 -1.276,0.076 -1.914,0.075c-0.536,0 -0.91,0.203 -1.173,0.669c-0.371,0.661 -0.765,1.309 -1.15,1.961c-0.802,1.355 -1.916,2.247 -3.548,2.308c-0.817,0.031 -1.226,0.431 -1.576,1.163c-2.352,4.907 -5.458,9.263 -9.478,12.973c-1.571,1.45 -3.399,2.351 -5.343,3.097c-0.74,0.285 -0.74,0.25 -0.781,1.083c-0.038,0.756 -0.125,1.509 -0.16,2.265c-0.028,0.626 -0.342,0.93 -0.947,1.024c-1.3,0.202 -2.591,0.467 -3.895,0.635c-1.025,0.132 -2.064,0.164 -3.099,0.23c-0.693,0.044 -0.78,0.088 -0.683,0.777c0.151,1.064 0.361,2.12 0.56,3.177c0.134,0.704 0.295,1.403 0.44,2.105c0.106,0.513 0.389,0.691 0.934,0.675c1.957,-0.059 3.916,-0.056 5.873,-0.085c1.151,-0.018 1.516,0.25 1.761,1.329c0.386,1.697 0.034,2.188 -1.695,2.323c-1.353,0.105 -2.707,0.187 -4.061,0.283c-0.238,0.017 -0.478,0.036 -0.713,0.082c-0.303,0.058 -0.431,0.17 -0.393,0.567c0.099,1.023 0.738,1.596 1.481,2.162c0.495,0.378 0.96,0.824 1.341,1.315c0.603,0.779 0.567,0.798 1.567,0.609c3.379,-0.644 6.783,-0.96 10.23,-1.008c2.487,-0.035 4.096,1.553 4.551,3.589c0.112,0.503 0.356,0.974 0.489,1.473c0.226,0.844 0.54,1.692 0.586,2.551c0.094,1.761 0.432,3.472 0.735,5.2c0.268,1.525 0.333,3.085 0.487,4.63c0.015,0.159 0.016,0.319 0.035,0.478c0.085,0.736 0.102,0.739 0.848,0.881c1.503,0.287 2.907,0.813 4.227,1.607c1.489,0.895 2.248,2.247 2.542,3.874c0.204,1.133 0.279,2.294 0.351,3.446c0.057,0.935 -0.062,1.047 -0.976,1.371c-0.15,0.053 -0.299,0.122 -0.454,0.15c-0.366,0.067 -0.572,0.242 -0.541,0.644c0.062,0.805 -0.155,1.486 -0.816,2.016c-0.149,0.119 -0.177,0.42 -0.21,0.644c-0.059,0.394 -0.124,0.795 -0.106,1.19c0.043,0.92 -0.391,1.429 -1.27,1.584c-0.507,0.09 -1.017,0.188 -1.529,0.214c-0.718,0.037 -1.439,-0.006 -2.157,0.026c-0.152,0.007 -0.388,0.171 -0.42,0.303c-0.037,0.152 0.062,0.403 0.188,0.513c0.171,0.15 0.425,0.204 0.641,0.306c0.322,0.155 0.674,0.274 0.958,0.482c1.062,0.782 1.997,1.549 2.161,3.094c0.161,1.502 0.21,2.92 -0.286,4.349c-1.101,3.17 -4.073,4.713 -6.668,4.831c-1.234,0.055 -2.48,0.106 -3.688,-0.254c-1.976,-0.59 -3.564,-1.627 -4.179,-3.731c-0.32,-1.097 -0.299,-2.238 -0.045,-3.32c0.584,-2.48 1.973,-4.416 4.222,-5.688c0.138,-0.079 0.32,-0.129 0.404,-0.248c0.127,-0.18 0.281,-0.427 0.244,-0.61c-0.033,-0.164 -0.294,-0.36 -0.482,-0.397c-0.428,-0.083 -0.873,-0.099 -1.312,-0.103c-1.998,-0.017 -3.996,-0.023 -5.994,-0.027c-0.731,-0.002 -0.739,0.004 -0.965,0.75c-0.439,1.459 -1.011,2.857 -1.879,4.12c-1.246,1.814 -2.609,3.541 -4.198,5.06c-1.248,1.192 -2.737,2.08 -4.305,2.797c-1.851,0.846 -3.746,1.574 -5.792,1.832c-2.907,0.365 -5.817,0.422 -8.731,0.182c-1.918,-0.158 -3.786,-0.535 -5.566,-1.312c-0.729,-0.318 -1.504,-0.534 -2.268,-0.766c-0.896,-0.273 -1.676,-0.719 -2.367,-1.356c-0.556,-0.514 -1.191,-0.942 -1.756,-1.447c-2.378,-2.124 -3.926,-4.807 -5.112,-7.717c-0.695,-1.703 -1.233,-3.465 -1.417,-5.299c-0.116,-1.147 -0.021,-2.314 -0.072,-3.469c-0.137,-3.147 0.687,-6.079 1.947,-8.916c0.457,-1.027 1.089,-1.936 1.863,-2.766c0.898,-0.962 1.714,-2.001 2.57,-3.001c0.193,-0.226 0.257,-0.432 0.188,-0.754c-0.52,-2.412 -1.005,-4.83 -1.501,-7.247c-0.088,-0.429 -0.141,-0.868 -0.268,-1.285c-0.719,-2.369 -1.096,-4.808 -1.588,-7.228c-0.752,-3.704 -1.724,-7.364 -2.624,-11.038c-0.275,-1.122 -0.605,-2.232 -0.932,-3.341c-0.205,-0.693 -0.31,-1.312 0.469,-1.762c0.513,-0.295 0.076,-0.686 0.048,-1.146c-1.946,0.705 -3.81,1.392 -5.683,2.054c-1.052,0.372 -2.118,0.704 -3.181,1.048c-0.189,0.061 -0.386,0.109 -0.582,0.138c-1.353,0.205 -2.142,-0.318 -2.497,-1.63c-0.267,-0.983 -0.225,-1.977 -0.112,-2.97c0.056,-0.498 0.297,-0.838 0.792,-1.096c1.462,-0.761 2.977,-1.315 4.588,-1.681c1.944,-0.442 3.846,-1.063 5.788,-1.512c1.001,-0.231 2.046,-0.307 3.077,-0.361c0.778,-0.04 0.841,0.038 1.036,0.849c0.186,0.772 0.302,1.562 0.429,2.348c0.12,0.747 0.213,1.498 0.318,2.248c0.058,0.42 0.255,0.683 0.718,0.57c1.048,-0.256 1.565,0.336 1.914,1.185c0.166,0.403 0.335,0.816 0.422,1.24c0.377,1.832 0.728,3.67 1.082,5.507c0.383,1.988 0.758,3.977 1.162,6.093" style="fill:#231f20;fill-rule:nonzero;"/><path d="M44.469,1.449c-0.668,0.424 -1.336,0.849 -2.004,1.271c-0.202,0.128 -0.442,0.217 -0.599,0.385c-0.116,0.125 -0.208,0.377 -0.159,0.519c0.045,0.129 0.296,0.26 0.455,0.258c0.271,-0.003 0.544,-0.097 0.81,-0.175c2.269,-0.66 4.58,-1.113 6.943,-1.186c1.308,-0.041 2.628,0.035 3.997,0.444c-0.516,0.484 -1.123,0.54 -1.66,0.739c-0.374,0.139 -0.776,0.215 -1.13,0.392c-0.26,0.131 -0.627,0.366 -0.646,0.582c-0.021,0.229 0.306,0.494 0.491,0.737c0.046,0.06 0.124,0.103 0.195,0.137c2.397,1.124 3.437,3.274 4.079,5.626c0.535,1.954 0.927,3.958 1.21,5.965c0.176,1.247 0.033,2.539 0.033,3.961c-1.102,-1.292 -1.599,-2.815 -2.477,-4.098c-0.893,-1.308 -1.796,-2.611 -2.673,-3.885c0.745,-0.276 1.491,-0.54 2.225,-0.835c0.121,-0.048 0.186,-0.233 0.278,-0.355c-0.158,-0.07 -0.326,-0.217 -0.473,-0.198c-0.75,0.095 -1.496,0.231 -2.242,0.357c-1.036,0.175 -2.048,0.191 -3.061,-0.199c-0.55,-0.211 -1.16,-0.289 -1.751,-0.363c-1.017,-0.129 -1.939,-0.431 -2.699,-1.157c-0.148,-0.141 -0.402,-0.172 -0.606,-0.254c-0.075,0.206 -0.185,0.405 -0.218,0.617c-0.22,1.454 -0.398,2.915 -0.645,4.363c-0.106,0.619 -0.386,1.193 -0.961,1.814c-0.177,-0.704 -0.309,-1.271 -0.463,-1.833c-0.431,-1.575 -0.857,-3.15 -1.319,-4.716c-0.078,-0.267 -0.134,-0.729 -0.569,-0.629c-0.445,0.102 -0.378,0.5 -0.355,0.882c0.173,3.036 -0.182,5.979 -1.668,8.696c-0.632,1.156 -1.297,2.294 -2.238,3.235c-0.181,0.179 -0.413,0.308 -0.78,0.577c0.223,-1.039 0.49,-1.871 0.566,-2.721c0.188,-2.103 0.337,-4.215 -0.087,-6.313c-0.068,-0.338 -0.059,-0.827 -0.502,-0.846c-0.547,-0.022 -0.518,0.531 -0.584,0.891c-0.234,1.253 -0.363,2.526 -0.65,3.765c-0.294,1.278 -0.656,2.55 -1.117,3.777c-0.643,1.711 -1.722,3.151 -3.162,4.291c-1.278,1.013 -2.59,1.984 -3.924,3.002c1.118,0.175 1.792,-0.807 2.842,-1.121c0.531,4.086 0.391,8.092 -0.441,12.171c-0.302,-0.027 -0.564,-0.059 -0.825,-0.072c-0.954,-0.05 -1.914,-0.182 -2.859,-0.115c-1.138,0.081 -1.91,0.749 -2.216,1.881c-0.06,0.225 -0.08,0.462 -0.141,0.835c-0.384,-0.167 -0.731,-0.251 -0.995,-0.446c-1.514,-1.112 -2.977,-2.278 -4.098,-3.819c-1.115,-1.533 -1.689,-3.251 -1.758,-5.127c-0.038,-1.035 0.051,-2.073 0.04,-3.109c-0.003,-0.236 -0.182,-0.471 -0.281,-0.705c-0.217,0.148 -0.515,0.248 -0.634,0.452c-0.383,0.653 -0.668,1.363 -1.054,2.014c-0.231,0.389 -0.58,0.708 -0.877,1.059c-0.502,-0.347 -0.463,-0.918 -0.468,-1.397c-0.026,-2.212 0.314,-4.368 1.224,-6.408c0.179,-0.401 0.381,-0.794 0.525,-1.207c0.145,-0.417 -0.163,-0.732 -0.576,-0.595c-0.22,0.073 -0.426,0.213 -0.611,0.359c-0.658,0.519 -1.301,1.058 -1.956,1.58c-0.304,0.243 -0.624,0.466 -0.972,0.724c-0.258,-0.587 -0.044,-1.024 0.123,-1.466c0.683,-1.8 1.863,-3.239 3.29,-4.494c0.264,-0.233 0.711,-0.424 0.492,-0.834c-0.209,-0.391 -0.655,-0.215 -0.972,-0.079c-0.985,0.423 -1.957,0.879 -2.929,1.335c-0.272,0.127 -0.525,0.297 -0.878,0.501c-0.137,-0.997 0.275,-1.693 0.81,-2.256c0.711,-0.747 1.487,-1.456 2.328,-2.051c1.308,-0.925 2.706,-1.71 4.374,-1.799c0.398,-0.022 0.604,-0.266 0.835,-0.577c0.425,-0.569 0.89,-1.134 1.436,-1.583c2.544,-2.091 5.347,-3.748 8.378,-5.059c2.159,-0.934 4.249,-2.028 6.478,-2.806c2.789,-0.973 5.561,-1.995 8.351,-2.963c1.134,-0.393 2.309,-0.631 3.519,-0.635c0.192,0 0.384,0.03 0.575,0.047c0.021,0.081 0.04,0.163 0.061,0.245" style="fill:#603812;fill-rule:nonzero;"/><path d="M21.866,39.128c-1.602,-1.534 -2.493,-3.711 -3.07,-5.812c-0.545,-1.984 -0.826,-4.048 -0.906,-6.105c-1.103,0.036 -2.211,0.213 -3.305,-0.014c-0.122,-0.025 -0.24,-0.131 -0.231,-0.265c0.073,-0.95 0.226,-1.894 0.414,-2.828c0.42,-2.074 1.036,-4.149 2.01,-6.035c0.79,-1.529 1.962,-3.222 3.743,-3.64c0.186,-0.044 0.403,0.102 0.339,0.311c-0.474,1.574 -1.356,2.948 -2.085,4.406c-0.709,1.418 -1.107,2.887 -0.973,4.457c0.604,-0.482 1.207,-0.965 1.798,-1.462c1.407,-1.18 2.778,-2.411 4.038,-3.747c1.077,-1.142 2.102,-2.381 2.86,-3.765c-0.628,0.029 -1.247,0.207 -1.843,0.393c-0.731,0.228 -1.457,0.477 -2.214,0.61c-0.182,0.032 -0.384,-0.22 -0.253,-0.378c1.284,-1.552 2.738,-2.957 4.3,-4.226c2.779,-2.258 5.871,-4.089 8.987,-5.837c2.312,-1.296 4.649,-2.554 6.926,-3.913c-0.71,0.107 -1.407,0.278 -2.088,0.514c-2.79,0.967 -5.561,1.99 -8.35,2.963c-2.23,0.778 -4.32,1.872 -6.479,2.806c-3.03,1.311 -5.834,2.967 -8.378,5.059c-0.546,0.449 -1.011,1.014 -1.435,1.583c-0.232,0.311 -0.438,0.555 -0.835,0.576c-1.667,0.09 -3.067,0.875 -4.374,1.8c-0.841,0.594 -1.617,1.304 -2.328,2.051c-0.536,0.563 -0.948,1.259 -0.81,2.255c0.353,-0.203 0.605,-0.373 0.878,-0.501c0.972,-0.455 1.943,-0.911 2.929,-1.334c0.317,-0.136 0.762,-0.313 0.971,0.078c0.219,0.411 -0.227,0.602 -0.492,0.834c-1.427,1.255 -2.606,2.694 -3.29,4.495c-0.167,0.442 -0.381,0.879 -0.123,1.465c0.349,-0.257 0.669,-0.48 0.973,-0.723c0.655,-0.523 1.298,-1.061 1.956,-1.58c0.184,-0.146 0.39,-0.287 0.61,-0.36c0.413,-0.136 0.722,0.179 0.576,0.596c-0.143,0.413 -0.345,0.806 -0.524,1.207c-0.91,2.04 -1.25,4.195 -1.225,6.408c0.005,0.479 -0.034,1.05 0.469,1.397c0.297,-0.351 0.646,-0.67 0.877,-1.06c0.386,-0.65 0.671,-1.361 1.054,-2.013c0.119,-0.205 0.417,-0.305 0.633,-0.453c0.099,0.235 0.279,0.47 0.282,0.705c0.01,1.037 -0.078,2.075 -0.04,3.11c0.069,1.876 0.642,3.594 1.757,5.127c1.122,1.54 2.584,2.706 4.098,3.819c0.265,0.194 0.611,0.278 0.995,0.446c0.062,-0.374 0.081,-0.61 0.142,-0.836c0.284,-1.052 0.985,-1.681 1.995,-1.833c-0.337,-0.222 -0.662,-0.466 -0.959,-0.751" style="fill:#7c4b21;fill-rule:nonzero;"/><path d="M28.994,42.527c-0.458,-0.253 -0.715,-0.512 -0.982,-0.524c-1.03,-0.046 -2.081,-0.128 -3.085,0.034c-0.572,0.093 -1.079,0.622 -1.592,0.986c-0.082,0.058 -0.105,0.319 -0.044,0.419c0.051,0.082 0.275,0.105 0.405,0.076c0.147,-0.033 0.285,-0.14 0.407,-0.24c0.623,-0.509 1.346,-0.664 2.127,-0.604c0.671,0.053 1.339,0.14 2.011,0.169c0.177,0.008 0.361,-0.145 0.753,-0.316m21.634,-22.851c-0.401,-1.595 -1.058,-3.001 -2.577,-3.697c-0.555,-0.255 -1.314,-0.114 -1.972,-0.062c-0.218,0.017 -0.448,0.294 -0.61,0.502c-0.152,0.195 -0.041,0.404 0.206,0.41c0.272,0.006 0.552,-0.047 0.82,-0.114c0.738,-0.183 1.356,0.052 1.821,0.598c0.407,0.478 0.735,1.027 1.073,1.56c0.191,0.3 0.308,0.647 0.506,0.941c0.097,0.144 0.303,0.214 0.46,0.318c0.09,-0.15 0.181,-0.302 0.273,-0.456m-3.317,5.116c0.147,0.53 0.256,1.075 0.451,1.587c0.162,0.427 0.479,0.752 1.001,0.698c0.553,-0.058 0.811,-0.434 0.957,-0.933c0.189,-0.649 0.082,-1.261 -0.192,-1.859c-0.389,-0.852 -0.835,-1.17 -1.412,-1.006c-0.5,0.143 -0.71,0.582 -0.805,1.513m-9.271,3.524c0.014,-1.089 -0.413,-2.078 -1.004,-2.552c-0.719,-0.577 -1.398,-0.365 -1.606,0.519c-0.082,0.346 -0.157,0.708 -0.142,1.059c0.034,0.842 0.177,1.667 0.812,2.298c0.568,0.562 1.339,0.448 1.66,-0.273c0.174,-0.39 0.225,-0.835 0.28,-1.051m5.688,0.67c0.504,-0.43 0.887,-0.845 1.349,-1.131c0.647,-0.4 1.373,-0.442 2.046,-0.034c0.711,0.433 0.786,1.131 0.719,1.891c-0.102,1.135 -0.693,1.83 -1.787,2.108c-0.193,0.05 -0.418,0.032 -0.581,0.127c-0.215,0.126 -0.384,0.333 -0.573,0.505c0.224,0.134 0.436,0.296 0.675,0.393c0.136,0.055 0.323,0.035 0.473,-0.007c1.537,-0.425 2.634,-1.137 2.632,-2.92c0,-0.399 0.015,-0.8 -0.021,-1.196c-0.08,-0.875 -0.655,-1.594 -1.504,-1.806c-1.212,-0.302 -2.3,-0.007 -3.205,0.856c-0.321,0.307 -0.561,0.686 -0.223,1.214m-6.831,6.462c0.164,0.2 0.348,0.355 0.446,0.553c0.425,0.857 0.832,1.725 1.236,2.593c0.576,1.235 1.237,2.417 2.172,3.424c0.981,1.058 2.139,1.774 3.623,1.881c2.421,0.175 3.363,-0.921 3.729,-3.101c0.216,-1.289 0.255,-2.615 0.288,-3.926c0.015,-0.571 0.236,-0.876 0.704,-1.118c1.31,-0.68 2.075,-1.841 2.656,-3.137c0.14,-0.315 0.175,-0.688 0.203,-1.038c0.009,-0.105 -0.155,-0.25 -0.273,-0.324c-0.04,-0.024 -0.22,0.093 -0.271,0.183c-0.257,0.45 -0.471,0.925 -0.739,1.368c-0.63,1.04 -1.406,1.913 -2.544,2.456c-1.029,0.491 -2.107,0.722 -3.216,0.869c-2.313,0.306 -4.541,-0.066 -6.682,-0.935c-0.978,-0.397 -0.972,-0.578 -0.259,-1.411c0.086,-0.099 0.128,-0.235 0.267,-0.497c-1.395,0.037 -1.796,1.018 -2.214,1.869c-0.504,1.026 -0.391,1.487 0.277,2.12c0.233,-0.579 -0.012,-1.305 0.597,-1.829m1.103,-16.684c0.918,-2.202 1.218,-4.344 1.191,-6.587c0.105,0.242 0.222,0.48 0.309,0.729c0.092,0.263 0.166,0.533 0.225,0.805c0.18,0.816 0.333,1.64 0.527,2.453c0.1,0.426 0.232,0.849 0.406,1.25c0.23,0.529 0.691,0.639 1.006,0.181c0.468,-0.684 0.927,-1.416 1.178,-2.195c0.289,-0.901 0.349,-1.874 0.503,-2.818c0.054,-0.337 0.088,-0.679 0.133,-1.029c0.898,0.271 1.684,0.525 2.48,0.745c0.766,0.212 1.539,0.405 2.315,0.578c0.348,0.077 0.712,0.13 1.066,0.116c0.62,-0.025 1.083,0.2 1.418,0.714c1.024,1.57 2.143,3.086 3.053,4.719c1.299,2.333 2.48,4.735 3.647,7.139c0.965,1.988 1.522,4.108 1.717,6.313c0.108,1.229 0.219,2.461 0.248,3.692c0.055,2.4 -0.686,4.562 -2.16,6.45c-0.387,0.495 -0.863,0.957 -1.384,1.304c-2.032,1.356 -4.224,2.415 -6.488,3.326c-0.773,0.311 -1.538,0.581 -2.417,0.593c-0.685,0.009 -1.357,0.4 -2.05,0.547c-2.866,0.608 -5.771,0.829 -8.69,0.622c-2.086,-0.147 -3.922,-1.04 -5.586,-2.265c-0.605,-0.446 -1.116,-1.02 -1.693,-1.508c-0.155,-0.13 -0.406,-0.227 -0.598,-0.204c-0.119,0.014 -0.257,0.268 -0.303,0.437c-0.368,1.333 -1.012,1.843 -2.352,1.906c-2.138,0.1 -4.053,-1.211 -4.138,-4.108c-0.039,-1.336 0.697,-2.054 2.048,-2.135c1.046,-0.064 2.068,0.051 3.071,0.377c0.514,0.166 1.056,0.245 1.803,0.413c-0.22,-0.332 -0.27,-0.506 -0.382,-0.561c-0.54,-0.267 -0.528,-0.63 -0.418,-1.183c0.674,-3.388 0.639,-6.82 0.517,-10.253c-0.011,-0.315 -0.074,-0.637 -0.167,-0.94c-0.236,-0.763 -0.09,-1.3 0.63,-1.786c0.649,-0.439 1.206,-1.048 1.712,-1.658c1.68,-2.029 2.45,-4.449 2.886,-6.998c0.133,-0.783 0.238,-1.571 0.354,-2.34c0.324,1.607 0.139,4.613 -0.416,6.599c-0.107,0.385 -0.248,0.761 -0.327,1.15c-0.088,0.441 0.136,0.675 0.598,0.654c0.583,-0.026 1.104,-0.236 1.493,-0.67c0.558,-0.623 1.144,-1.237 1.602,-1.931c0.734,-1.11 1.626,-1.948 2.951,-2.274c0.15,-0.036 0.253,-0.256 0.378,-0.391c-0.193,-0.094 -0.391,-0.274 -0.578,-0.262c-0.376,0.024 -0.745,0.152 -1.318,0.284" style="fill:#fdcfaf;fill-rule:nonzero;"/><path d="M59.174,31.877c-0.194,-2.205 -0.752,-4.325 -1.717,-6.313c-1.167,-2.404 -2.347,-4.806 -3.646,-7.139c-0.91,-1.633 -2.03,-3.15 -3.054,-4.719c-0.335,-0.514 -0.798,-0.739 -1.418,-0.714c-0.353,0.013 -0.718,-0.039 -1.065,-0.116c-0.777,-0.173 -1.549,-0.366 -2.316,-0.578c-0.796,-0.22 -1.582,-0.474 -2.479,-0.745c-0.045,0.35 -0.079,0.692 -0.134,1.029c-0.153,0.943 -0.214,1.917 -0.503,2.817c-0.251,0.78 -0.71,1.512 -1.178,2.196c-0.314,0.458 -0.776,0.347 -1.006,-0.181c-0.173,-0.401 -0.305,-0.825 -0.406,-1.25c-0.193,-0.813 -0.347,-1.637 -0.526,-2.454c-0.06,-0.271 -0.134,-0.541 -0.226,-0.804c-0.087,-0.249 -0.204,-0.487 -0.308,-0.729c0.026,2.242 -0.274,4.385 -1.192,6.587c0.573,-0.132 0.943,-0.261 1.319,-0.284c0.186,-0.012 0.384,0.168 0.578,0.262c-0.125,0.135 -0.229,0.355 -0.378,0.391c-1.325,0.326 -2.218,1.164 -2.951,2.274c-0.159,0.24 -0.345,0.461 -0.528,0.684c1.694,-0.692 3.157,-2.186 4.421,-3.36c0.111,-0.103 0.323,-0.016 0.375,0.108c0.276,0.656 0.69,1.498 1.441,1.705c0.571,0.157 1.155,-0.136 1.607,-0.463c1.144,-0.83 1.99,-2.116 2.645,-3.37c-0.011,0.003 -0.022,0.001 -0.034,0.004c-0.267,0.067 -0.548,0.12 -0.82,0.114c-0.247,-0.006 -0.357,-0.215 -0.206,-0.41c0.162,-0.208 0.392,-0.485 0.61,-0.502c0.658,-0.052 1.417,-0.193 1.972,0.062c1.519,0.696 2.177,2.102 2.577,3.697c-0.092,0.154 -0.183,0.305 -0.272,0.456c-0.158,-0.104 -0.364,-0.174 -0.46,-0.318c-0.199,-0.294 -0.316,-0.642 -0.507,-0.941c-0.338,-0.534 -0.666,-1.082 -1.072,-1.56c-0.318,-0.373 -0.711,-0.586 -1.161,-0.635c0.015,0.71 0.13,1.419 0.232,2.12c0.223,1.532 0.46,3.094 0.404,4.647c0.092,-0.075 0.199,-0.13 0.324,-0.166c0.578,-0.164 1.023,0.154 1.412,1.006c0.274,0.598 0.381,1.21 0.192,1.859c-0.146,0.499 -0.403,0.875 -0.957,0.933c-0.522,0.054 -0.839,-0.271 -1.001,-0.698c-0.114,-0.301 -0.199,-0.614 -0.279,-0.928c-0.18,0.53 -0.449,1.014 -0.841,1.399c0.171,0.018 0.339,0.023 0.514,0.066c0.849,0.211 1.424,0.931 1.504,1.806c0.036,0.396 0.021,0.797 0.022,1.196c0,0.434 -0.067,0.803 -0.188,1.121c0.078,0 0.156,-0.008 0.233,-0.005c0.767,0.031 1.842,0.336 2.383,0.968c0.098,-0.189 0.195,-0.379 0.3,-0.564c0.051,-0.09 0.232,-0.207 0.272,-0.183c0.117,0.074 0.281,0.219 0.272,0.324c-0.028,0.35 -0.062,0.723 -0.203,1.038c-0.581,1.296 -1.346,2.457 -2.656,3.136c-0.468,0.243 -0.689,0.548 -0.703,1.119c-0.008,0.294 -0.016,0.589 -0.026,0.884c1.055,-0.507 1.917,-1.419 2.782,-2.177c0.111,-0.098 0.325,-0.021 0.375,0.108c0.691,1.764 0.771,3.755 0.624,5.626c-0.12,1.53 -0.436,3.053 -0.881,4.531c1.597,-0.724 3.147,-1.544 4.612,-2.521c0.522,-0.347 0.997,-0.809 1.384,-1.304c1.475,-1.889 2.216,-4.05 2.16,-6.45c-0.028,-1.232 -0.14,-2.463 -0.248,-3.692" style="fill:#f1b57f;fill-rule:nonzero;"/><path d="M49.35,100.448c0.201,-1.512 -0.223,-3.174 -0.732,-4.816c-0.552,-1.777 -1.448,-3.394 -2.723,-4.737c-1.16,-1.222 -2.611,-2.095 -4.175,-2.742c-1.474,-0.612 -2.959,-1.202 -4.451,-1.771c-0.974,-0.372 -1.986,-0.536 -3.038,-0.591c-1.899,-0.099 -3.62,0.58 -5.356,1.132c-3.407,1.082 -6.15,3.179 -8.413,5.908c-1.352,1.632 -2.218,3.53 -2.51,5.617c-0.384,2.737 -0.42,5.476 0.374,8.182c0.228,0.777 0.436,1.542 0.927,2.179c1.047,1.359 2.11,2.707 3.214,4.019c0.352,0.418 0.82,0.768 1.294,1.05c2.598,1.541 5.434,2.254 8.441,2.36c2.541,0.089 5.015,-0.352 7.443,-1.017c2.482,-0.679 4.726,-1.872 6.192,-4.054c2.12,-3.154 3.675,-6.544 3.513,-10.719m-17.37,-18.83c1.854,0.136 3.662,0.149 5.426,0.434c1.526,0.246 3.032,0.716 4.491,1.242c1.459,0.527 2.904,1.147 4.248,1.913c0.916,0.521 1.666,1.345 2.46,2.067c1.821,1.656 3.192,3.68 4.422,5.777c0.86,1.469 1.414,3.092 1.868,4.761c0.665,2.448 0.565,4.912 0.403,7.369c-0.14,2.135 -0.942,4.114 -2.1,5.916c-1.147,1.785 -2.465,3.444 -3.986,4.924c-1.328,1.294 -2.905,2.26 -4.589,3.004c-1.783,0.789 -3.607,1.508 -5.585,1.675c-2.262,0.191 -4.519,0.512 -6.801,0.232c-0.909,-0.111 -1.828,-0.141 -2.742,-0.224c-1.531,-0.138 -2.905,-0.839 -4.365,-1.218c-2.355,-0.612 -4.275,-1.893 -6.013,-3.516c-0.436,-0.407 -0.872,-0.823 -1.24,-1.289c-2.415,-3.065 -3.98,-6.52 -4.685,-10.357c-0.086,-0.468 -0.092,-0.953 -0.097,-1.431c-0.013,-1.198 0.015,-2.395 -0.007,-3.593c-0.058,-3.205 0.803,-6.226 2.48,-8.868c2.789,-4.395 6.61,-7.563 11.946,-8.431c1.487,-0.243 3.01,-0.267 4.466,-0.387" style="fill:#403f41;fill-rule:nonzero;"/><path d="M66.354,87.897c0,1.793 0.005,3.587 -0.003,5.381c-0.003,0.907 -0.015,0.903 -0.824,1.168c-2.009,0.659 -3.999,1.337 -5.863,2.379c-1.141,0.637 -2.473,0.538 -3.748,0.461c-0.386,-0.024 -0.628,-0.962 -0.429,-1.409c0.139,-0.313 0.304,-0.639 0.34,-0.972c0.238,-2.175 0.524,-4.35 0.63,-6.533c0.058,-1.216 -0.147,-2.456 -0.335,-3.67c-0.117,-0.75 -0.4,-0.902 -1.151,-0.965c-0.159,-0.013 -0.319,-0.014 -0.478,-0.006c-2.227,0.118 -4.453,0.235 -6.68,0.363c-0.369,0.021 -0.607,-0.041 -0.64,-0.483c-0.126,-1.706 -0.301,-3.409 -0.403,-5.117c-0.066,-1.11 -0.032,-1.147 0.977,-1.419c1.717,-0.464 3.193,-1.433 4.75,-2.231c0.405,-0.208 0.769,-0.375 1.225,-0.357c2.869,0.116 5.739,0.213 8.609,0.343c0.634,0.028 1.266,0.144 1.894,0.252c0.86,0.147 1.249,0.628 1.422,1.519c0.726,3.735 0.808,7.51 0.707,11.296" style="fill:#9b8579;fill-rule:nonzero;"/><path d="M51.912,46.61c0.037,0.14 0.089,0.251 0.092,0.363c0.086,2.869 0.155,5.74 0.259,8.608c0.016,0.475 -0.056,0.701 -0.585,0.811c-1.454,0.304 -2.911,0.462 -4.397,0.429c-0.551,-0.012 -0.795,-0.198 -0.823,-0.759c-0.017,-0.344 -0.159,-0.681 -0.297,-1.224c-0.191,0.317 -0.36,0.466 -0.35,0.6c0.323,4.224 0.965,8.386 2.459,12.379c0.208,0.554 0.418,1.108 0.653,1.73c-0.474,0.209 -0.874,0.274 -1.262,0.005c-0.357,-0.249 -0.671,-0.563 -1.035,-0.8c-0.323,-0.211 -0.69,-0.356 -1.101,-0.562c0.288,-0.268 0.513,-0.489 0.751,-0.696c0.567,-0.491 0.544,-1.129 0.416,-1.768c-0.095,-0.479 -0.467,-0.75 -1.074,-0.767c-0.757,-0.021 -1.519,-0.012 -2.274,0.047c-0.992,0.08 -1.979,0.221 -3.032,0.342c-0.026,-0.224 -0.067,-0.413 -0.067,-0.602c-0.004,-0.844 -0.503,-1.342 -1.224,-1.595c-0.714,-0.251 -1.445,-0.176 -2.005,0.391c-0.36,0.364 -0.659,0.798 -0.936,1.232c-0.519,0.809 -1.193,1.249 -2.193,1.151c-0.513,-0.049 -1.035,-0.008 -1.694,-0.008c0.538,-0.643 0.99,-1.199 1.46,-1.739c0.313,-0.358 0.503,-0.758 0.28,-1.201c-0.278,-0.554 -0.031,-1.037 0.175,-1.486c0.497,-1.087 1.051,-2.149 1.617,-3.203c0.523,-0.974 0.991,-1.964 1.328,-3.129c-1.156,0.661 -2.793,3.427 -4.147,6.885c-1.425,-0.561 -2.834,-1.174 -4.283,-1.67c-1.462,-0.501 -2.964,-0.886 -4.449,-1.321c-0.077,-0.499 0.301,-0.733 0.562,-1.007c1.621,-1.707 3.234,-3.423 4.9,-5.087c0.557,-0.556 1.216,-1.047 1.907,-1.426c1.252,-0.686 2.562,-1.266 3.848,-1.89c0.384,0.811 0.7,1.575 1.096,2.296c0.825,1.498 2.161,2.176 3.836,2.256c0.318,0.016 0.647,-0.016 0.956,0.044c1.344,0.263 2.394,-0.222 3.354,-1.142c1.185,-1.138 2.049,-2.442 2.403,-4.052c0.123,-0.557 0.394,-0.857 0.969,-1.036c1.288,-0.4 2.544,-0.903 3.907,-1.399" style="fill:#6dbce9;fill-rule:nonzero;"/><path d="M55.604,49.233c0,-0.639 0.006,-1.278 -0.002,-1.917c-0.004,-0.354 0.114,-0.605 0.462,-0.751c3.741,-1.567 6.453,-4.341 8.811,-7.526c0.973,-1.315 1.967,-2.617 2.889,-3.967c0.491,-0.72 0.914,-1.504 1.247,-2.308c0.395,-0.951 0.273,-1.143 -0.618,-1.596c-0.071,-0.036 -0.149,-0.058 -0.22,-0.095c-1.465,-0.755 -2.193,-2.124 -1.669,-3.681c0.464,-1.376 0.192,-2.49 -0.576,-3.605c-0.202,-0.292 -0.379,-0.623 -0.469,-0.963c-0.047,-0.18 0.05,-0.503 0.194,-0.611c0.453,-0.336 1.602,-0.147 1.981,0.309c0.412,0.497 0.75,1.037 0.667,1.735c-0.027,0.237 -0.006,0.479 -0.019,0.718c-0.033,0.595 0.137,1.101 0.616,1.484c0.907,0.727 1.306,1.686 1.296,2.833c-0.001,0.119 -0.022,0.269 0.039,0.35c0.104,0.139 0.271,0.332 0.401,0.324c0.133,-0.008 0.358,-0.228 0.361,-0.36c0.025,-1.04 0,-2.08 -0.704,-2.95c-0.051,-0.062 -0.098,-0.132 -0.163,-0.176c-1.093,-0.736 -1.023,-1.833 -0.808,-2.899c0.361,-1.797 0.813,-3.577 1.557,-5.266c0.489,-1.109 1.822,-1.9 2.993,-1.707c0.177,0.029 0.38,0.253 0.463,0.437c0.252,0.547 0.134,1.085 -0.137,1.607c-0.515,0.992 -1.049,1.977 -1.513,2.993c-0.297,0.649 -0.509,1.34 -0.694,2.03c-0.039,0.141 0.205,0.359 0.319,0.541c0.146,-0.112 0.365,-0.195 0.424,-0.342c0.221,-0.554 0.383,-1.13 0.578,-1.694c0.175,-0.506 0.467,-0.927 0.947,-1.191c1.225,-0.672 2.451,-1.341 3.678,-2.006c0.14,-0.076 0.295,-0.128 0.449,-0.168c0.868,-0.226 1.488,0.342 1.175,1.182c-0.181,0.488 -0.604,0.922 -1.005,1.287c-0.646,0.59 -1.406,1.06 -2.037,1.664c-0.453,0.434 -0.789,0.995 -1.149,1.518c-0.153,0.22 -0.118,0.499 0.157,0.589c0.139,0.045 0.438,-0.051 0.498,-0.169c0.883,-1.719 2.731,-2.428 3.941,-3.798c0.249,-0.283 0.471,-0.234 0.698,0.019c0.495,0.555 0.503,1.136 -0.067,1.683c-0.662,0.636 -1.382,1.211 -2.066,1.823c-0.297,0.265 -0.605,0.53 -0.845,0.842c-0.514,0.669 -0.285,1.282 0.547,1.359c0.872,0.082 1.756,0.028 2.635,0.049c0.437,0.011 0.888,0 1.307,0.101c0.73,0.177 0.822,0.516 0.38,1.102c-0.614,0.817 -1.366,1.314 -2.451,1.196c-0.514,-0.056 -1.04,0.017 -1.558,-0.014c-0.855,-0.053 -1.453,0.301 -1.865,1.04c-0.368,0.662 -0.786,1.298 -1.148,1.964c-0.686,1.262 -1.724,1.974 -3.163,2.028c-0.637,0.025 -1.048,0.328 -1.354,0.836c-0.184,0.308 -0.352,0.627 -0.525,0.941c-2.618,4.745 -5.673,9.145 -9.76,12.784c-1.287,1.147 -2.777,1.863 -4.278,2.594c-0.684,0.333 -0.994,0.127 -0.921,-0.645c0.026,-0.278 0.02,-0.559 0.025,-0.838c0.004,-0.24 0.001,-0.479 0.001,-0.719l0.048,0Z" style="fill:#fdcfaf;fill-rule:nonzero;"/><path d="M21.578,70.316c-0.358,0.271 -0.739,0.643 -1.19,0.884c-1.034,0.55 -1.167,1.429 -1.021,2.447c0.157,1.096 0.358,1.312 1.472,1.522c0.312,0.059 0.633,0.116 0.948,0.11c1.13,-0.023 1.094,0.122 1.117,1.174c0.014,0.638 0.026,1.278 0.026,1.916c0,1.158 -0.01,2.316 -0.014,3.474c-0.001,0.37 -0.045,0.7 -0.419,0.92c-0.992,0.585 -1.969,1.196 -3.071,1.869c-0.105,-0.331 -0.244,-0.642 -0.3,-0.968c-0.402,-2.313 -0.748,-4.638 -1.194,-6.943c-0.248,-1.287 -0.71,-2.531 -0.971,-3.817c-0.435,-2.144 -0.692,-4.327 -1.192,-6.455c-0.9,-3.837 -1.923,-7.645 -2.896,-11.466c-0.021,-0.077 -0.05,-0.151 -0.071,-0.228c-0.251,-0.874 -0.229,-0.981 0.605,-1.198c1.156,-0.301 2.326,-0.56 3.5,-0.782c0.885,-0.167 1.021,-0.109 1.296,0.8c0.357,1.178 0.641,2.384 0.882,3.593c0.499,2.496 0.952,5.001 1.414,7.504c0.051,0.272 0.016,0.56 0.062,0.834c0.086,0.508 0.067,1.109 0.341,1.493c0.375,0.524 0.295,1.041 0.354,1.584c0.057,0.532 0.193,1.057 0.322,1.733" style="fill:#f5803b;fill-rule:nonzero;"/><path d="M55.9,98.282c0.37,-0.032 0.644,-0.045 0.914,-0.081c1.1,-0.145 2.148,-0.371 3.192,-0.843c2.43,-1.098 4.926,-2.103 7.561,-2.58c2.203,-0.399 4.278,0.18 6.103,1.495c0.406,0.293 0.758,0.715 1.019,1.148c0.744,1.237 1.272,2.559 1.413,4.021c0.123,1.262 -0.144,1.672 -1.371,1.624c-2.107,-0.084 -4.213,-0.243 -6.318,-0.386c-1.47,-0.099 -2.938,-0.224 -4.407,-0.336c-2.062,-0.158 -4.127,-0.309 -6.188,-0.477c-0.356,-0.029 -0.703,-0.143 -1.058,-0.195c-0.336,-0.05 -0.447,-0.238 -0.483,-0.563c-0.101,-0.903 -0.237,-1.802 -0.377,-2.827" style="fill:#594a42;fill-rule:nonzero;"/><path d="M26.956,64.131c-0.271,0.561 -0.452,1.041 -0.724,1.463c-0.259,0.404 -0.097,0.622 0.255,0.715c0.575,0.15 1.168,0.307 1.757,0.32c2.076,0.043 4.154,0.051 6.231,0.017c0.873,-0.014 1.743,-0.162 2.614,-0.252c2.139,-0.22 4.278,-0.451 6.42,-0.656c0.594,-0.057 1.197,-0.062 1.795,-0.047c0.686,0.018 0.935,0.559 0.551,1.139c-0.391,0.594 -1.447,1.007 -2.225,0.845c-0.545,-0.113 -1.081,-0.268 -1.625,-0.389c-0.272,-0.06 -0.555,-0.134 -0.824,-0.109c-0.246,0.024 -0.668,0.153 -0.682,0.272c-0.046,0.41 0.352,0.321 0.603,0.348c1.682,0.179 3.274,0.677 4.8,1.384c0.356,0.165 0.705,0.387 0.989,0.655c0.4,0.378 0.399,0.744 0.093,1.038c-0.39,0.375 -0.725,0.385 -1.105,-0.052c-0.936,-1.075 -2.24,-1.488 -3.495,-1.989c-0.113,-0.045 -0.285,0.063 -0.431,0.1c0.058,0.133 0.078,0.331 0.179,0.388c0.658,0.376 1.331,0.727 2.005,1.075c0.585,0.301 1.037,0.726 1.357,1.306c0.185,0.333 0.181,0.612 -0.137,0.831c-0.637,0.441 -1.36,0.431 -2.07,0.277c-0.176,-0.038 -0.307,-0.333 -0.434,-0.526c-0.351,-0.529 -0.683,-1.071 -1.039,-1.599c-0.109,-0.163 -0.252,-0.315 -0.408,-0.432c-0.251,-0.188 -0.562,-0.455 -0.845,-0.165c-0.31,0.32 0.042,0.549 0.246,0.787c0.36,0.423 0.709,0.856 1.044,1.3c0.116,0.156 0.244,0.354 0.246,0.534c0.003,0.338 -0.082,0.677 -0.13,1.015c-0.306,-0.051 -0.673,-0.014 -0.903,-0.174c-0.448,-0.31 -0.97,-0.658 -1.191,-1.12c-0.529,-1.104 -1.242,-1.415 -2.396,-1.028c-0.553,0.185 -1.18,0.221 -1.772,0.207c-0.505,-0.012 -1.026,-0.138 -1.505,-0.31c-0.593,-0.213 -0.99,-0.601 -0.984,-1.335c0.006,-0.582 -0.062,-0.548 -0.739,-0.513c-2.109,0.107 -4.173,0.717 -6.305,0.539c-0.994,-0.083 -1.992,-0.137 -2.983,-0.257c-0.947,-0.116 -1.141,-0.372 -1.179,-1.319c-0.072,-1.745 0.676,-3.253 1.385,-4.772c0.141,-0.303 0.401,-0.389 0.698,-0.31c0.915,0.245 1.825,0.508 2.863,0.799" style="fill:#fdcfaf;fill-rule:nonzero;"/><path d="M65.889,117.038c1.5,-0.136 2.58,-0.645 3.336,-1.725c0.443,-0.634 0.42,-1.559 0.005,-2.126c-0.862,-1.179 -2.857,-1.801 -4.183,-1.246c-0.335,0.14 -0.707,0.434 -0.845,0.751c-0.265,0.605 -0.382,1.276 -0.545,1.923c-0.202,0.795 0.083,1.44 0.759,1.836c0.499,0.292 1.083,0.437 1.473,0.587m0.702,3.313c-1.473,-0.118 -2.736,-0.246 -3.89,-0.874c-1.586,-0.864 -2.434,-2.194 -2.298,-3.995c0.224,-2.987 1.612,-5.271 4.32,-6.691c1.273,-0.667 2.558,-0.405 3.85,-0.126c0.58,0.125 1.157,0.263 1.736,0.395c0.039,0.009 0.079,0.011 0.118,0.02c2.033,0.482 3.774,3.167 3.517,5.249c-0.368,2.972 -2.987,5.142 -5.422,5.723c-0.694,0.166 -1.412,0.221 -1.931,0.299" style="fill:#403f41;fill-rule:nonzero;"/><path d="M31.072,72.582c-1.063,-0.527 -1.909,-0.416 -2.73,-0.399c-2.107,0.045 -4.213,0.128 -6.32,0.195c-0.198,0.007 -0.408,-0.02 -0.593,0.037c-0.181,0.055 -0.336,0.196 -0.503,0.299c3.106,0.295 6.16,0.217 9.213,0.125c0.219,-0.007 0.436,-0.116 0.933,-0.257m5.71,2.436c-3.035,-0.072 -6.07,-0.129 -9.106,-0.221c-1.988,-0.061 -3.976,-0.172 -5.963,-0.262c-0.12,-0.005 -0.243,-0.009 -0.358,-0.036c-0.495,-0.118 -1.028,-0.133 -1.166,-0.82c-0.133,-0.663 -0.214,-1.258 0.44,-1.707c0.394,-0.271 0.756,-0.589 1.145,-0.868c0.528,-0.379 1.054,-0.521 1.769,-0.435c2.376,0.287 4.768,0.415 7.138,-0.137c0.232,-0.054 0.482,-0.027 0.714,-0.078c0.633,-0.141 1.046,-0.1 1.394,0.637c0.412,0.872 1.37,1.217 2.301,1.291c0.784,0.062 1.592,-0.023 2.375,-0.146c1.113,-0.175 1.12,-0.223 1.725,0.736c0.401,0.632 0.936,1.102 1.616,1.372c0.727,0.289 1.461,0.446 2.07,-0.305c0.126,-0.156 0.399,-0.226 0.618,-0.266c0.47,-0.087 0.955,-0.096 1.422,-0.194c0.689,-0.145 1.265,-0.448 1.536,-1.182c0.085,-0.229 0.302,-0.45 0.516,-0.582c0.41,-0.253 0.846,-0.451 1.024,-0.952c0.037,-0.105 0.119,-0.215 0.211,-0.276c0.324,-0.217 1.08,-0.004 1.533,0.416c0.482,0.447 0.651,0.934 0.417,1.369c-0.247,0.456 -0.52,0.9 -0.82,1.322c-0.492,0.691 -1.261,0.768 -2.023,0.858c-3.379,0.4 -6.768,0.513 -10.167,0.414c-0.12,-0.004 -0.24,-0.001 -0.359,-0.001c-0.001,0.018 -0.001,0.035 -0.002,0.053" style="fill:#f99f3e;fill-rule:nonzero;"/><path d="M69.76,106.46c-3.547,-0.104 -7.094,-0.216 -10.642,-0.309c-0.756,-0.02 -1.515,0.034 -2.274,0.041c-0.774,0.007 -0.795,0 -0.754,-0.811c0.037,-0.754 0.141,-1.505 0.183,-2.26c0.023,-0.411 0.201,-0.574 0.599,-0.529c1.029,0.116 2.058,0.23 3.086,0.341c0.515,0.055 1.029,0.114 1.544,0.151c2.027,0.145 4.052,0.282 6.078,0.422c2.186,0.153 4.371,0.314 6.559,0.455c0.847,0.055 0.848,0.034 0.866,0.885c0.027,1.345 -0.169,1.598 -1.535,1.656c-1.234,0.052 -2.473,0.011 -3.71,0.011l0,-0.053Z" style="fill:#f99f3e;fill-rule:nonzero;"/><path d="M43.563,82.964c-0.168,-0.034 -0.36,-0.056 -0.543,-0.112c-1.521,-0.468 -3.019,-1.041 -4.567,-1.385c-1.509,-0.335 -3.065,-0.542 -4.609,-0.61c-1.707,-0.076 -3.424,0.067 -5.135,0.119c-0.28,0.009 -0.559,0.03 -0.835,0.066c-0.385,0.051 -0.605,-0.079 -0.649,-0.488c-0.034,-0.315 -0.141,-0.625 -0.154,-0.939c-0.026,-0.589 -0.007,-1.181 -0.007,-1.827c3.543,0.63 7.025,0.388 10.511,0.197c1.789,-0.098 3.588,-0.052 5.352,-0.433c0.446,-0.096 0.582,0.115 0.589,0.502c0.017,0.996 0.035,1.993 0.046,2.989c0.007,0.593 0.001,1.186 0.001,1.921" style="fill:#9b8579;fill-rule:nonzero;"/><path d="M53.358,73.639c0.299,-0.083 0.594,-0.203 0.898,-0.243c3.121,-0.415 6.24,-0.851 9.401,-0.801c0.239,0.003 0.478,0.014 0.718,0.007c1.908,-0.051 2.975,1.427 3.39,2.693c0.248,0.756 0.533,1.503 0.72,2.274c0.204,0.846 0.426,1.713 0.443,2.575c0.038,1.97 0.632,3.843 0.867,5.775c0.083,0.67 0.103,1.346 0.165,2.019c0.064,0.712 0.142,1.422 0.219,2.133c0.033,0.303 0.005,0.573 -0.36,0.637c-0.851,0.15 -1.704,0.288 -2.628,0.444c-0.02,-0.324 -0.065,-0.556 -0.045,-0.783c0.303,-3.347 0.064,-6.676 -0.207,-10.016c-0.106,-1.318 -0.35,-2.598 -0.588,-3.881c-0.244,-1.311 -0.703,-1.902 -1.961,-2.05c-0.909,-0.106 -1.813,-0.292 -2.724,-0.332c-2.629,-0.116 -5.26,-0.175 -7.89,-0.258c-0.118,-0.004 -0.235,-0.028 -0.353,-0.043c-0.021,-0.049 -0.044,-0.1 -0.065,-0.15" style="fill:#9b8579;fill-rule:nonzero;"/><path d="M70.575,91.496c2.155,-0.148 3.972,0.705 5.639,1.941c0.872,0.646 1.308,1.627 1.528,2.639c0.244,1.12 0.326,2.278 0.431,3.424c0.048,0.523 -0.658,1.035 -1.127,0.844c-0.147,-0.06 -0.253,-0.28 -0.325,-0.449c-0.329,-0.767 -0.633,-1.545 -0.957,-2.315c-0.536,-1.279 -1.503,-2.133 -2.733,-2.716c-1.274,-0.603 -2.639,-0.896 -4.022,-1.071c-0.459,-0.058 -0.944,0.095 -1.417,0.143c-0.284,0.03 -0.455,-0.091 -0.474,-0.389c-0.005,-0.08 0.001,-0.16 -0.004,-0.239c-0.069,-1.275 -0.069,-1.275 1.209,-1.572c0.193,-0.045 0.385,-0.113 0.581,-0.13c0.556,-0.048 1.113,-0.075 1.671,-0.11" style="fill:#594a42;fill-rule:nonzero;"/><path d="M23.302,59.726c0.078,0.013 0.158,0.023 0.235,0.041c2.954,0.686 5.84,1.577 8.567,2.92c1.187,0.586 1.151,0.647 0.272,1.668c-0.416,0.483 -0.812,0.533 -1.343,0.317c-0.589,-0.24 -1.174,-0.502 -1.783,-0.682c-1.942,-0.574 -3.894,-1.117 -5.844,-1.665c-0.382,-0.108 -0.782,-0.16 -1.154,-0.29c-0.168,-0.059 -0.352,-0.221 -0.42,-0.382c-0.28,-0.662 0.745,-1.986 1.47,-1.927" style="fill:#3198d4;fill-rule:nonzero;"/><path d="M28.364,75.699c4.674,0.017 9.348,0.029 14.022,0.059c0.382,0.003 0.981,-0.24 0.999,0.474c0.017,0.616 -0.55,0.467 -0.897,0.52c-1.023,0.157 -2.052,0.305 -3.084,0.383c-1.831,0.139 -3.679,0.125 -5.496,0.358c-1.808,0.233 -3.581,-0.091 -5.37,-0.075c-0.313,0.003 -0.625,-0.115 -0.941,-0.149c-0.46,-0.05 -0.562,-0.327 -0.582,-0.74c-0.043,-0.906 -0.018,-0.952 0.87,-0.956c0.16,-0.001 0.32,0 0.479,0l0,0.126Z" style="fill:#6dbce9;fill-rule:nonzero;"/><path d="M46.277,48.611c-0.442,2.023 -1.541,3.478 -3.153,4.568c-0.22,0.149 -0.514,0.248 -0.78,0.262c-1.078,0.058 -2.157,0.044 -3.201,-0.289c-0.619,-0.198 -1.193,-0.496 -1.564,-1.048c-0.465,-0.692 -0.904,-1.405 -1.318,-2.128c-0.175,-0.307 -0.057,-0.556 0.335,-0.551c0.666,0.01 1.203,0.01 1.644,0.808c1.047,1.896 3.63,2.102 5.248,0.535c0.339,-0.328 0.672,-0.713 0.858,-1.137c0.36,-0.818 0.963,-1.084 1.931,-1.02" style="fill:#3198d4;fill-rule:nonzero;"/><path d="M7.438,50.114c0.016,-2.38 -0.466,-1.849 1.909,-2.615c0.49,-0.158 1.001,-0.253 1.494,-0.402c0.403,-0.12 0.615,0.028 0.671,0.419c0.15,1.018 0.296,2.036 0.429,3.056c0.047,0.368 -0.156,0.601 -0.5,0.709c-1.175,0.368 -2.351,0.73 -3.525,1.098c-0.336,0.106 -0.457,-0.124 -0.467,-0.361c-0.031,-0.633 -0.011,-1.269 -0.011,-1.904" style="fill:#9770b1;fill-rule:nonzero;"/><path d="M54.892,44.995c0,0.599 0.008,0.988 -0.001,1.377c-0.061,2.63 -0.125,5.26 -0.192,7.89c-0.009,0.358 -0.053,0.716 -0.063,1.074c-0.012,0.425 -0.206,0.663 -0.637,0.716c-0.842,0.102 -1.034,0.076 -1.036,-0.795c-0.005,-2.752 -0.007,-5.504 -0.057,-8.256c-0.014,-0.694 0.193,-1.136 0.84,-1.394c0.328,-0.131 0.626,-0.331 1.146,-0.612" style="fill:#3198d4;fill-rule:nonzero;"/><path d="M47.144,84.766c0.525,-0.065 0.717,-0.107 0.91,-0.111c2.105,-0.042 4.21,-0.085 6.315,-0.112c0.377,-0.005 0.914,-0.138 1.009,0.372c0.112,0.601 0.06,1.238 0.025,1.856c-0.005,0.083 -0.331,0.21 -0.509,0.211c-1.709,0.009 -3.418,0.002 -5.126,-0.022c-0.181,-0.002 -0.396,-0.098 -0.532,-0.221c-0.639,-0.577 -1.255,-1.179 -2.092,-1.973" style="fill:#f99f3e;fill-rule:nonzero;"/><path d="M23.74,82.195c-0.021,-0.456 -0.047,-0.806 -0.051,-1.157c-0.02,-1.594 -0.037,-3.188 -0.051,-4.782c-0.005,-0.76 -0.002,-0.76 0.695,-0.769c1.875,-0.022 1.877,-0.014 1.916,1.885c0.023,1.115 0.054,2.231 0.112,3.345c0.023,0.43 -0.115,0.663 -0.536,0.785c-0.648,0.189 -1.281,0.423 -2.085,0.693" style="fill:#c2d0d7;fill-rule:nonzero;"/><path d="M48.126,64.979c0.388,-0.025 0.617,-0.051 0.848,-0.052c1.83,-0.013 3.661,-0.025 5.491,-0.029c0.848,-0.002 1.482,1.007 1.097,1.753c-0.063,0.12 -0.228,0.219 -0.367,0.263c-0.263,0.084 -0.539,0.153 -0.813,0.173c-1.546,0.114 -3.096,0.184 -4.64,0.328c-0.593,0.054 -0.898,-0.159 -1.061,-0.689c-0.162,-0.529 -0.334,-1.055 -0.555,-1.747" style="fill:#f99f3e;fill-rule:nonzero;"/><path d="M12.284,46.785c0.64,-0.08 1.224,-0.161 1.81,-0.223c0.48,-0.051 0.743,0.213 0.847,0.655c0.073,0.309 0.138,0.621 0.188,0.934c0.181,1.137 0.343,2.277 0.54,3.411c0.064,0.372 -0.119,0.522 -0.411,0.603c-0.421,0.117 -0.847,0.224 -1.277,0.304c-0.547,0.101 -0.718,-0.004 -0.82,-0.576c-0.302,-1.671 -0.577,-3.348 -0.877,-5.108" style="fill:#c2d0d7;fill-rule:nonzero;"/><path d="M46.498,84.421c-0.569,-0.286 -1.098,-0.538 -1.609,-0.819c-0.124,-0.067 -0.256,-0.218 -0.282,-0.35c-0.119,-0.62 -0.256,-1.243 -0.289,-1.869c-0.09,-1.749 -0.13,-3.501 -0.193,-5.252c-0.012,-0.324 0.097,-0.545 0.448,-0.577c0.238,-0.021 0.478,-0.04 0.717,-0.037c0.637,0.005 0.725,0.056 0.678,0.682c-0.177,2.345 0.163,4.665 0.298,6.995c0.021,0.373 0.137,0.739 0.232,1.227" style="fill:#c2d0d7;fill-rule:nonzero;"/><path d="M6.598,50.453c0.037,0.634 0.047,1.272 0.124,1.902c0.032,0.268 0.055,0.488 -0.226,0.58c-0.368,0.121 -0.747,0.231 -1.129,0.268c-0.084,0.009 -0.254,-0.296 -0.291,-0.477c-0.235,-1.141 -0.243,-2.29 -0.036,-3.437c0.021,-0.115 0.08,-0.225 0.135,-0.331c0.203,-0.39 0.788,-0.657 1.218,-0.516c0.434,0.142 0.219,0.532 0.24,0.816c0.031,0.395 0.008,0.795 0.008,1.193c-0.014,0.001 -0.028,0.002 -0.043,0.002" style="fill:#d0a6cd;fill-rule:nonzero;"/><path d="M51.213,72.263c0.266,0.403 0.439,0.662 0.607,0.924c0.511,0.799 0.5,0.965 -0.295,1.354c-1.319,0.644 -2.658,1.249 -4.001,1.841c-0.255,0.112 -0.64,0.284 -0.759,-0.215c-0.118,-0.493 0.05,-0.746 0.552,-0.846c0.195,-0.038 0.397,-0.034 0.594,-0.06c1.091,-0.148 1.947,-0.616 2.432,-1.671c0.195,-0.426 0.515,-0.795 0.87,-1.327" style="fill:#6dbce9;fill-rule:nonzero;"/><path d="M4.359,48.997c-0.316,1.417 -0.407,2.821 0.034,4.209c0.153,0.48 -0.226,0.509 -0.499,0.631c-0.324,0.145 -0.561,0.018 -0.648,-0.298c-0.158,-0.569 -0.3,-1.146 -0.397,-1.729c-0.064,-0.388 -0.044,-0.791 -0.053,-1.188c-0.034,-1.403 -0.004,-1.434 1.563,-1.625" style="fill:#9770b1;fill-rule:nonzero;"/><path d="M43.523,49.203c-1.234,2.149 -3.343,2.327 -4.704,0.477c0.581,-0.256 3.298,-0.54 4.704,-0.477" style="fill:#fdcfaf;fill-rule:nonzero;"/><path d="M2.613,54.117c-0.979,-0.073 -1.314,-0.31 -1.431,-1.216c-0.094,-0.742 -0.061,-1.501 -0.072,-2.253c-0.008,-0.524 0.391,-0.618 0.837,-0.737c0.222,1.399 0.439,2.778 0.666,4.206" style="fill:#d0a6cd;fill-rule:nonzero;"/><path d="M36.397,65.665c0.366,-0.57 0.595,-0.991 0.886,-1.363c0.396,-0.505 1.07,-0.664 1.606,-0.438c0.436,0.183 0.667,0.595 0.593,1.052c-0.076,0.465 -0.418,0.5 -0.799,0.528c-0.705,0.051 -1.409,0.134 -2.286,0.221" style="fill:#fdcfaf;fill-rule:nonzero;"/><path d="M31.476,65.766c-1.443,0.129 -2.858,0.258 -4.217,0.002c-0.058,-0.178 -0.117,-0.26 -0.098,-0.316c0.377,-1.16 0.453,-1.187 1.581,-0.738c0.907,0.362 1.822,0.702 2.734,1.052" style="fill:#6dbce9;fill-rule:nonzero;"/><path d="M65.228,107.314c0.367,-0.279 0.809,-0.141 1.213,-0.125c0.866,0.034 1.731,0.103 2.594,0.187c0.205,0.02 0.573,0.177 0.567,0.241c-0.042,0.417 -0.4,0.267 -0.637,0.248c-0.745,-0.062 -1.486,-0.182 -2.232,-0.239c-0.499,-0.039 -1.003,-0.008 -1.504,-0.008c-0.001,-0.101 -0.001,-0.203 -0.001,-0.304" style="fill:#c2d0d7;fill-rule:nonzero;"/><path d="M40.273,39.912c1.05,1.775 2.381,3.046 4.473,3.196c0.799,0.058 1.579,-0.168 2.017,-0.991c0.162,-0.304 0.151,-0.535 -0.16,-0.694c-0.601,-0.307 -1.191,-0.65 -1.82,-0.885c-1.415,-0.527 -2.86,-0.939 -4.51,-0.626m-1.875,-3.701c0.531,1.113 0.925,1.972 1.358,2.809c0.062,0.121 0.33,0.228 0.474,0.201c2.192,-0.422 4.185,0.2 6.126,1.124c0.238,0.112 0.485,0.205 0.78,0.329c0.178,-1.412 0.344,-2.732 0.53,-4.2c-3.125,0.94 -6.093,0.845 -9.268,-0.263m-1.501,-0.763c-0.609,0.524 -0.364,1.25 -0.598,1.829c-0.668,-0.633 -0.78,-1.094 -0.276,-2.12c0.418,-0.851 0.818,-1.832 2.214,-1.869c-0.139,0.262 -0.182,0.397 -0.268,0.497c-0.713,0.833 -0.718,1.014 0.26,1.411c2.141,0.869 4.368,1.24 6.682,0.935c1.109,-0.147 2.187,-0.378 3.216,-0.869c1.137,-0.543 1.914,-1.416 2.543,-2.456c0.269,-0.443 0.483,-0.918 0.74,-1.369c0.051,-0.089 0.231,-0.207 0.271,-0.182c0.117,0.074 0.281,0.219 0.273,0.324c-0.029,0.35 -0.063,0.723 -0.203,1.038c-0.582,1.296 -1.346,2.457 -2.657,3.136c-0.467,0.242 -0.688,0.548 -0.703,1.118c-0.033,1.312 -0.072,2.638 -0.288,3.927c-0.366,2.179 -1.309,3.276 -3.729,3.101c-1.484,-0.108 -2.642,-0.823 -3.623,-1.881c-0.935,-1.007 -1.596,-2.189 -2.172,-3.424c-0.405,-0.869 -0.811,-1.736 -1.237,-2.594c-0.097,-0.197 -0.281,-0.353 -0.445,-0.552" style="fill:#231f20;fill-rule:nonzero;"/><path d="M43.728,28.987c-0.338,-0.529 -0.099,-0.908 0.223,-1.214c0.905,-0.863 1.993,-1.158 3.205,-0.856c0.848,0.211 1.424,0.931 1.504,1.806c0.036,0.396 0.02,0.797 0.021,1.195c0.002,1.783 -1.096,2.496 -2.633,2.921c-0.149,0.041 -0.337,0.061 -0.472,0.006c-0.24,-0.096 -0.452,-0.258 -0.675,-0.393c0.188,-0.172 0.357,-0.378 0.573,-0.504c0.162,-0.095 0.388,-0.078 0.58,-0.127c1.095,-0.279 1.686,-0.974 1.787,-2.108c0.068,-0.76 -0.008,-1.458 -0.718,-1.891c-0.673,-0.408 -1.399,-0.367 -2.046,0.034c-0.462,0.286 -0.845,0.701 -1.349,1.131" style="fill:#231f20;fill-rule:nonzero;"/><path d="M38.04,28.316c-0.055,0.216 -0.105,0.661 -0.28,1.051c-0.321,0.72 -1.092,0.835 -1.659,0.273c-0.636,-0.631 -0.779,-1.456 -0.813,-2.298c-0.015,-0.351 0.06,-0.713 0.142,-1.059c0.208,-0.884 0.887,-1.096 1.606,-0.519c0.591,0.474 1.018,1.463 1.004,2.552" style="fill:#231f20;fill-rule:nonzero;"/><path d="M47.311,24.792c0.095,-0.931 0.305,-1.37 0.805,-1.513c0.577,-0.164 1.022,0.154 1.412,1.006c0.273,0.598 0.381,1.21 0.191,1.859c-0.145,0.499 -0.403,0.875 -0.957,0.933c-0.521,0.054 -0.839,-0.271 -1.001,-0.698c-0.194,-0.512 -0.304,-1.057 -0.45,-1.587" style="fill:#231f20;fill-rule:nonzero;"/><path d="M50.628,19.677c-0.092,0.154 -0.183,0.305 -0.272,0.456c-0.158,-0.104 -0.364,-0.175 -0.46,-0.319c-0.199,-0.294 -0.316,-0.641 -0.507,-0.941c-0.338,-0.533 -0.666,-1.081 -1.073,-1.56c-0.464,-0.545 -1.083,-0.78 -1.821,-0.597c-0.267,0.066 -0.548,0.12 -0.82,0.113c-0.247,-0.006 -0.358,-0.215 -0.206,-0.41c0.162,-0.207 0.392,-0.484 0.61,-0.501c0.658,-0.053 1.417,-0.193 1.972,0.061c1.519,0.697 2.177,2.102 2.577,3.698" style="fill:#231f20;fill-rule:nonzero;"/><path d="M28.994,42.527c-0.392,0.171 -0.576,0.324 -0.753,0.316c-0.672,-0.029 -1.34,-0.116 -2.011,-0.169c-0.781,-0.06 -1.504,0.095 -2.127,0.604c-0.122,0.1 -0.26,0.207 -0.407,0.24c-0.13,0.029 -0.354,0.006 -0.405,-0.076c-0.061,-0.1 -0.038,-0.361 0.044,-0.419c0.513,-0.364 1.02,-0.893 1.592,-0.986c1.004,-0.162 2.055,-0.08 3.085,-0.034c0.267,0.012 0.524,0.271 0.982,0.524" style="fill:#231f20;fill-rule:nonzero;"/><path d="M34.442,105.701c0.319,0 0.646,0.044 0.956,-0.007c1.851,-0.309 2.754,-1.021 2.991,-2.725c0.221,-1.591 -0.188,-2.995 -1.325,-4.153c-0.191,-0.194 -0.434,-0.359 -0.683,-0.47c-1.351,-0.603 -2.749,-0.665 -4.203,-0.418c-0.979,0.167 -1.531,0.785 -2.005,1.538c-0.187,0.298 -0.327,0.636 -0.437,0.972c-0.676,2.067 0.119,3.867 1.924,4.705c0.882,0.409 1.81,0.597 2.782,0.558m13.979,-6.891c-2.221,0.61 -4.253,1.17 -6.286,1.725c-0.769,0.21 -1.537,0.431 -2.315,0.603c-0.388,0.085 -0.524,0.266 -0.522,0.652c0.003,0.677 0.054,1.374 -0.088,2.025c-0.114,0.513 -0.038,0.84 0.353,1.134c1.654,1.248 3.304,2.502 4.968,3.736c0.251,0.186 0.589,0.251 0.858,0.418c0.408,0.254 0.665,0.147 0.843,-0.27c0.47,-1.098 0.913,-2.21 1.42,-3.292c1.009,-2.157 0.715,-4.429 0.769,-6.731m-12.601,-1.844c0.042,-0.18 0.101,-0.405 0.147,-0.632c0.524,-2.536 0.972,-5.092 2.023,-7.487c0.031,-0.072 0.048,-0.152 0.065,-0.229c0.144,-0.637 0.084,-0.747 -0.507,-0.994c-2.167,-0.908 -4.36,-1.28 -6.625,-0.351c-0.22,0.091 -0.456,0.148 -0.687,0.209c-1.511,0.4 -1.428,0.252 -0.947,1.847c0.034,0.114 0.103,0.216 0.148,0.327c0.446,1.108 0.915,2.209 1.329,3.33c0.387,1.047 0.734,2.11 1.061,3.177c0.136,0.446 0.346,0.659 0.837,0.665c1.028,0.016 2.056,0.086 3.156,0.138m-1.676,15.059c0.027,0.002 0.054,0.005 0.08,0.007c0,0.876 0.011,1.752 -0.004,2.627c-0.008,0.445 0.151,0.69 0.621,0.632c0.592,-0.071 1.185,-0.138 1.771,-0.241c2.008,-0.351 3.967,-0.854 5.758,-1.875c1.129,-0.643 2.025,-1.54 2.801,-2.562c0.36,-0.475 0.298,-0.581 -0.252,-0.88c-0.522,-0.282 -1.071,-0.54 -1.531,-0.906c-1.428,-1.137 -3.096,-1.969 -4.312,-3.378c-0.247,-0.286 -0.484,-0.191 -0.694,0.064c-0.708,0.858 -1.715,1.112 -2.733,1.332c-1.03,0.222 -1.061,0.208 -1.173,1.263c-0.138,1.302 -0.223,2.611 -0.332,3.917m-2.472,3.298c0.439,0 0.877,-0.002 1.316,0.001c0.335,0.002 0.525,-0.144 0.527,-0.493c0.001,-0.239 -0.002,-0.478 -0.001,-0.717c0.003,-2.267 -0.152,-4.542 0.368,-6.78c0.101,-0.432 -0.208,-0.434 -0.468,-0.512c-0.835,-0.25 -1.725,-0.396 -2.486,-0.791c-0.648,-0.337 -1.084,-0.283 -1.597,0.147c-1.596,1.336 -3.409,2.344 -5.199,3.387c-0.514,0.3 -0.993,0.662 -1.484,1.002c-0.35,0.242 -0.483,0.528 -0.129,0.874c0.594,0.58 1.114,1.278 1.801,1.712c2.232,1.41 4.708,2.103 7.352,2.17m-3.539,-27.1c-0.468,0.223 -0.855,0.414 -1.247,0.593c-1.966,0.899 -3.5,2.34 -4.976,3.876c-1.159,1.206 -2.011,2.572 -2.55,4.145c-0.28,0.819 -0.273,0.842 0.513,1.1c0.113,0.038 0.231,0.062 0.346,0.092c2.713,0.699 5.497,0.955 8.264,1.317c0.215,0.028 0.511,-0.146 0.687,-0.312c0.547,-0.517 1.023,-1.114 1.593,-1.603c0.326,-0.28 0.44,-0.516 0.298,-0.914c-0.971,-2.736 -1.933,-5.476 -2.928,-8.294m-9.172,10.258c-0.298,2.148 -0.422,4.109 -0.1,6.103c0.333,2.059 1.063,3.899 2.455,5.466c0.281,0.317 0.491,0.411 0.888,0.105c0.721,-0.559 1.509,-1.036 2.269,-1.544c1.524,-1.016 3.043,-2.037 4.573,-3.043c0.414,-0.271 0.522,-0.533 0.183,-0.955c-0.688,-0.854 -0.858,-1.862 -0.78,-2.928c0.034,-0.469 0.061,-0.938 0.098,-1.499c-3.168,-0.525 -6.396,-0.699 -9.586,-1.705m20.472,2.028c0.287,-0.085 0.476,-0.145 0.668,-0.196c1.464,-0.388 2.937,-0.744 4.389,-1.171c1.03,-0.303 2.045,-0.668 3.042,-1.067c0.671,-0.269 0.694,-0.399 0.533,-1.109c-0.414,-1.82 -1.222,-3.457 -2.389,-4.903c-0.394,-0.487 -0.886,-0.91 -1.385,-1.294c-1.212,-0.931 -2.591,-1.546 -4.023,-2.071c-1.192,-0.437 -1.176,-0.479 -1.601,0.655c-0.056,0.149 -0.129,0.292 -0.19,0.439c-0.918,2.225 -1.298,4.592 -1.81,6.922c-0.068,0.306 -0.095,0.635 0.263,0.841c1.019,0.586 1.598,1.524 2.065,2.562c0.078,0.173 0.307,0.279 0.438,0.392m9.916,-0.061c0.162,4.175 -1.392,7.565 -3.512,10.719c-1.466,2.182 -3.71,3.375 -6.193,4.055c-2.428,0.664 -4.902,1.105 -7.443,1.016c-3.007,-0.106 -5.843,-0.819 -8.441,-2.36c-0.474,-0.282 -0.942,-0.632 -1.294,-1.05c-1.104,-1.312 -2.167,-2.66 -3.213,-4.019c-0.492,-0.637 -0.7,-1.402 -0.928,-2.179c-0.794,-2.706 -0.758,-5.445 -0.374,-8.182c0.292,-2.087 1.158,-3.985 2.511,-5.617c2.262,-2.729 5.005,-4.826 8.413,-5.908c1.735,-0.552 3.457,-1.231 5.355,-1.132c1.052,0.055 2.065,0.219 3.038,0.591c1.492,0.569 2.977,1.159 4.451,1.771c1.564,0.647 3.015,1.52 4.175,2.742c1.276,1.343 2.171,2.96 2.723,4.737c0.51,1.642 0.933,3.304 0.732,4.816" style="fill:#231f20;fill-rule:nonzero;"/><path d="M66.751,112.883c-0.993,-0.259 -1.709,0.519 -2.082,1.31c-0.414,0.881 -0.059,1.587 0.885,1.806c1.011,0.234 2.384,-0.312 2.958,-1.178c0.346,-0.522 0.291,-0.928 -0.161,-1.389c-0.46,-0.469 -1.041,-0.552 -1.6,-0.549m-0.862,4.156c-0.39,-0.151 -0.974,-0.296 -1.473,-0.587c-0.677,-0.396 -0.961,-1.042 -0.76,-1.837c0.163,-0.647 0.281,-1.317 0.545,-1.922c0.139,-0.317 0.511,-0.611 0.846,-0.751c1.326,-0.555 3.321,0.067 4.183,1.246c0.415,0.567 0.438,1.492 -0.005,2.126c-0.756,1.08 -1.836,1.589 -3.336,1.725" style="fill:#231f20;fill-rule:nonzero;"/><path d="M31.072,72.582c-0.497,0.141 -0.714,0.25 -0.933,0.257c-3.053,0.092 -6.107,0.17 -9.213,-0.125c0.167,-0.103 0.322,-0.244 0.503,-0.299c0.185,-0.057 0.395,-0.03 0.593,-0.037c2.107,-0.067 4.213,-0.15 6.32,-0.195c0.821,-0.017 1.667,-0.128 2.73,0.399" style="fill:#231f20;fill-rule:nonzero;"/><path d="M38.398,36.211c3.175,1.108 6.143,1.203 9.268,0.263c-0.186,1.468 -0.352,2.788 -0.53,4.2c-0.295,-0.124 -0.542,-0.216 -0.78,-0.329c-1.941,-0.924 -3.934,-1.546 -6.126,-1.124c-0.145,0.028 -0.412,-0.08 -0.474,-0.2c-0.433,-0.838 -0.827,-1.697 -1.358,-2.81" style="fill:#be1e2d;fill-rule:nonzero;"/><path d="M40.273,39.912c1.65,-0.313 3.095,0.099 4.51,0.626c0.629,0.235 1.219,0.578 1.82,0.885c0.311,0.159 0.322,0.39 0.16,0.694c-0.438,0.823 -1.218,1.049 -2.017,0.991c-2.092,-0.15 -3.423,-1.421 -4.473,-3.196" style="fill:#f8bfc3;fill-rule:nonzero;"/><path d="M39.434,100.509c-0.131,-0.112 -0.36,-0.218 -0.438,-0.392c-0.467,-1.037 -1.046,-1.976 -2.065,-2.562c-0.358,-0.205 -0.331,-0.534 -0.264,-0.84c0.513,-2.331 0.893,-4.698 1.811,-6.922c0.06,-0.148 0.134,-0.291 0.189,-0.44c0.426,-1.134 0.41,-1.092 1.602,-0.655c1.432,0.525 2.811,1.14 4.022,2.071c0.499,0.385 0.992,0.807 1.386,1.295c1.167,1.445 1.975,3.082 2.389,4.902c0.161,0.71 0.138,0.841 -0.533,1.109c-0.997,0.399 -2.012,0.765 -3.042,1.067c-1.453,0.427 -2.925,0.783 -4.389,1.171c-0.192,0.051 -0.381,0.112 -0.668,0.196" style="fill:#fff;fill-rule:nonzero;"/><path d="M18.961,98.481c3.19,1.005 6.419,1.18 9.587,1.705c-0.037,0.561 -0.065,1.03 -0.099,1.499c-0.078,1.066 0.092,2.073 0.781,2.928c0.338,0.422 0.23,0.684 -0.183,0.955c-1.53,1.006 -3.05,2.026 -4.573,3.043c-0.761,0.508 -1.548,0.984 -2.27,1.543c-0.396,0.307 -0.606,0.212 -0.888,-0.105c-1.391,-1.567 -2.122,-3.406 -2.455,-5.465c-0.322,-1.994 -0.198,-3.955 0.1,-6.103" style="fill:#fff;fill-rule:nonzero;"/><path d="M28.134,88.223c0.994,2.818 1.957,5.558 2.928,8.294c0.141,0.398 0.028,0.634 -0.298,0.914c-0.57,0.489 -1.046,1.086 -1.594,1.603c-0.176,0.166 -0.472,0.34 -0.686,0.312c-2.767,-0.362 -5.551,-0.618 -8.264,-1.317c-0.115,-0.03 -0.233,-0.054 -0.347,-0.092c-0.786,-0.258 -0.793,-0.281 -0.512,-1.1c0.539,-1.573 1.39,-2.939 2.549,-4.145c1.477,-1.536 3.01,-2.977 4.977,-3.876c0.392,-0.179 0.778,-0.37 1.247,-0.593" style="fill:#fff;fill-rule:nonzero;"/><path d="M31.673,115.323c-2.645,-0.067 -5.12,-0.76 -7.353,-2.17c-0.686,-0.434 -1.207,-1.132 -1.8,-1.712c-0.355,-0.347 -0.221,-0.632 0.129,-0.874c0.491,-0.34 0.969,-0.702 1.484,-1.002c1.79,-1.043 3.602,-2.051 5.198,-3.388c0.514,-0.429 0.949,-0.483 1.598,-0.146c0.761,0.395 1.65,0.541 2.485,0.791c0.261,0.078 0.57,0.08 0.469,0.512c-0.521,2.238 -0.365,4.513 -0.368,6.78c-0.001,0.239 0.002,0.478 0.001,0.717c-0.002,0.348 -0.193,0.495 -0.528,0.493c-0.438,-0.003 -0.877,-0.001 -1.315,-0.001" style="fill:#fff;fill-rule:nonzero;"/><path d="M34.144,112.025c0.108,-1.306 0.194,-2.614 0.332,-3.917c0.112,-1.055 0.143,-1.041 1.173,-1.263c1.017,-0.22 2.025,-0.473 2.733,-1.332c0.21,-0.255 0.447,-0.349 0.694,-0.064c1.215,1.409 2.883,2.241 4.312,3.378c0.46,0.366 1.009,0.624 1.53,0.906c0.551,0.299 0.613,0.405 0.252,0.88c-0.775,1.022 -1.672,1.919 -2.8,2.562c-1.791,1.021 -3.75,1.524 -5.758,1.875c-0.586,0.103 -1.179,0.17 -1.771,0.242c-0.47,0.057 -0.63,-0.187 -0.621,-0.632c0.015,-0.876 0.004,-1.752 0.004,-2.628c-0.026,-0.002 -0.053,-0.005 -0.08,-0.007" style="fill:#fff;fill-rule:nonzero;"/><path d="M35.82,96.966c-1.1,-0.052 -2.128,-0.123 -3.156,-0.138c-0.49,-0.007 -0.701,-0.219 -0.837,-0.665c-0.327,-1.067 -0.674,-2.131 -1.061,-3.177c-0.414,-1.121 -0.883,-2.222 -1.329,-3.33c-0.045,-0.111 -0.114,-0.213 -0.148,-0.327c-0.481,-1.595 -0.564,-1.447 0.947,-1.847c0.231,-0.061 0.467,-0.118 0.688,-0.209c2.264,-0.93 4.458,-0.557 6.625,0.351c0.59,0.247 0.65,0.357 0.506,0.993c-0.017,0.078 -0.034,0.158 -0.065,0.23c-1.051,2.394 -1.499,4.951 -2.023,7.487c-0.046,0.227 -0.105,0.452 -0.147,0.632" style="fill:#fff;fill-rule:nonzero;"/><path d="M48.422,98.81c-0.055,2.301 0.239,4.573 -0.77,6.731c-0.506,1.082 -0.95,2.193 -1.419,3.292c-0.178,0.416 -0.435,0.523 -0.843,0.27c-0.27,-0.167 -0.608,-0.232 -0.859,-0.418c-1.664,-1.234 -3.313,-2.489 -4.967,-3.736c-0.391,-0.295 -0.467,-0.621 -0.354,-1.135c0.143,-0.65 0.092,-1.347 0.089,-2.025c-0.002,-0.385 0.134,-0.566 0.521,-0.651c0.779,-0.172 1.546,-0.393 2.316,-0.603c2.032,-0.555 4.064,-1.115 6.286,-1.725" style="fill:#fff;fill-rule:nonzero;"/><path d="M34.442,105.701c-0.972,0.039 -1.9,-0.149 -2.782,-0.558c-1.805,-0.838 -2.6,-2.638 -1.924,-4.705c0.11,-0.336 0.25,-0.674 0.437,-0.972c0.474,-0.753 1.026,-1.371 2.005,-1.538c1.454,-0.247 2.852,-0.185 4.203,0.418c0.249,0.111 0.492,0.276 0.683,0.47c1.137,1.158 1.546,2.562 1.325,4.153c-0.237,1.704 -1.14,2.416 -2.991,2.725c-0.31,0.051 -0.637,0.007 -0.956,0.007" style="fill:#c2d0d7;fill-rule:nonzero;"/><path d="M66.751,112.883c0.559,-0.003 1.14,0.08 1.6,0.549c0.452,0.461 0.507,0.867 0.161,1.389c-0.574,0.866 -1.947,1.412 -2.958,1.178c-0.944,-0.219 -1.299,-0.925 -0.885,-1.806c0.373,-0.791 1.089,-1.569 2.082,-1.31" style="fill:#c2d0d7;fill-rule:nonzero;"/><path d="M15.19,93.325c-0.823,2.293 -0.97,4.778 -0.854,7.211c0.122,2.594 0.567,5.268 2.022,7.418c0.332,-2.908 -0.129,-5.852 0.04,-8.774c0.084,-1.461 0.331,-2.913 0.728,-4.321c0.423,-1.506 1.494,-2.963 1.829,-4.435c0.254,-1.116 -0.291,-1.623 -1.434,-0.92c-1.102,0.679 -1.916,2.666 -2.331,3.821" style="fill:#fff;fill-rule:nonzero;"/><g><path d="M32.904,134.233l2.086,0l0,-4.214l3.332,0l0,-1.834l-3.332,0l0,-2.478l3.416,0l0,-1.834l-5.502,0l0,10.36Z" style="fill:#fff;fill-rule:nonzero;"/><path d="M39.82,125.511l1.834,0l0,-1.638l-1.834,0l0,1.638Zm0,8.722l1.834,0l0,-7.686l-1.834,0l0,7.686Z" style="fill:#fff;fill-rule:nonzero;"/><path d="M51.328,123.873l-1.834,0l0,3.668c-0.28,-0.448 -1.106,-1.232 -2.576,-1.232c-2.086,0 -3.864,1.582 -3.864,4.074c0,2.24 1.526,4.088 3.892,4.088c1.568,0 2.296,-0.77 2.632,-1.344l0,1.106l1.75,0l0,-10.36Zm-6.44,6.496c0,-1.204 0.868,-2.352 2.366,-2.352c0.658,0 1.246,0.252 1.666,0.672c0.42,0.406 0.686,0.98 0.686,1.652c0.028,0.672 -0.224,1.274 -0.658,1.708c-0.434,0.434 -1.036,0.7 -1.708,0.7c-1.414,0 -2.352,-1.064 -2.352,-2.366l0,-0.014Z" style="fill:#fff;fill-rule:nonzero;"/><path d="M60.708,130.999c0.154,-1.344 -0.196,-2.548 -1.134,-3.514c-0.714,-0.742 -1.722,-1.176 -2.87,-1.176c-2.324,0 -4.032,1.918 -4.032,4.102c0,2.142 1.694,4.06 4.06,4.06c0.798,0 1.554,-0.224 2.198,-0.672c0.644,-0.434 1.19,-1.078 1.554,-1.932l-1.89,0c-0.35,0.63 -0.952,1.036 -1.848,1.036c-1.05,0.014 -2.142,-0.672 -2.226,-1.904l6.188,0Zm-6.16,-1.4c0.07,-0.756 0.812,-1.736 2.17,-1.736c1.344,-0.014 2.114,1.008 2.184,1.736l-4.354,0Z" style="fill:#fff;fill-rule:nonzero;"/><rect x="62.108" y="123.873" width="1.834" height="10.36" style="fill:#fff;fill-rule:nonzero;"/></g></g></svg>