<svg clip-rule="evenodd" fill-rule="evenodd" stroke-linejoin="round" stroke-miterlimit="2" viewBox="0 0 85 125" xmlns="http://www.w3.org/2000/svg"><g fill-rule="nonzero"><path d="m84.15 113.265c0 6.149-18.811 11.134-42.014 11.134-23.204 0-42.015-4.985-42.015-11.134s18.811-11.134 42.015-11.134c23.203 0 42.014 4.985 42.014 11.134" fill="#5dbc61"/><path d="m42.235 60.075c-1.292 0-2.449-.006-3.604.003-.382.004-.466.264-.335.557.088.196.252.396.435.505 1.117.666 2.659.236 3.504-1.065m-19.427 29.175c-.586.136-1.055.255-1.53.349-.284.056-.745-.022-.827.126-.148.267-.164.689-.065.991.139.422.374.848.675 1.174.588.636 1.182.511 1.487-.316.276-.753.441-1.543.26-2.324m9.785 10.945c.018.172.012.451.081.709.274 1.026 1.741 1.504 2.427.752.352-.388.566-.917.772-1.412.051-.122-.132-.48-.27-.521-.776-.233-1.568-.416-2.361-.586-.367-.079-.591.104-.615.495-.009.155-.019.309-.034.563m13.828.019c-.001-.563-.116-.665-.71-.505-.704.19-1.395.423-2.09.644-.988.315-1.074.482-.679 1.466.111.276.265.595.496.745.262.17.648.271.954.227.699-.1 2.225-1.801 2.029-2.577m3.508-27.094c.642-.187 1.253-.308 1.818-.542 1.066-.44 2.125-.906 3.147-1.438.679-.352.893-1.141.613-1.786-.218-.505-.56-.601-.99-.272-.122.093-.222.215-.34.314-1.321 1.109-2.504 2.434-4.32 2.772-.038.008-.093.02-.104.046-.084.192-.222.39-.213.58.005.113.247.215.389.326m-23.82-4.118c-.74.905-.805 1.747-.068 2.333 1.428 1.137 2.933 2.157 4.919 2.299.091-.365.195-.73.271-1.102.062-.307-.054-.535-.381-.608-1.201-.27-2.167-1.012-3.187-1.628-.55-.332-1.001-.825-1.554-1.294m4.69 5.886c-.218.265-.308.343-.36.441-1.054 1.977-2.096 3.96-3.16 5.932-.168.312-.128.553-.006.865.209.534.474 1.1.471 1.652-.006.833.197 1.498.799 2.074.223.214.345.533.577.905.12-.35.216-.56.264-.781.32-1.469.606-2.946.948-4.41.393-1.679.814-3.345.48-5.097-.084-.446-.013-.921-.013-1.581m14.624-15.298c-.627.085-1.165.114-1.676.245-.214.055-.477.29-.542.498-.379 1.212-1.387 1.642-2.442 1.919-1.522.401-2.896-.355-3.407-1.791-.109-.306-.229-.464-.55-.457-.233.005-.466-.013-.698-.001-.554.03-.699.167-.591.717.08.408.196.866.451 1.172.883 1.06 1.952 1.905 3.383 2.04.884.084 1.784.066 2.671.005 1.803-.125 2.843-1.066 3.192-2.822.091-.453.128-.916.209-1.525m9.684 38.39c-.454-.477-.918-.552-1.434-.364-1.321.48-2.697.68-4.081.876-.53.075-1.036.313-1.556.47-.51.153-.712.443-.704 1.018.023 1.569-.938 2.606-2.156 3.367-.965.603-2.516.371-2.956-1.204-.093-.334-.107-.689-.192-1.025-.031-.122-.148-.286-.252-.308-.127-.026-.349.034-.409.131-.139.225-.26.489-.29.748-.1.884-.192 1.771-.221 2.658-.033.989.058 1.075 1.017 1.401.182.062.371.11.561.144 1.295.24 2.606.412 3.881.728 1.03.256 2.002.049 2.997-.091.565-.079.875-.414 1.012-.96.124-.488.298-.962.44-1.446.735-2.507 2.177-4.517 4.343-6.143m8.82-52.631c.599-.138 1.008-.218 1.408-.327 1.151-.314 2.134.071 3.046.73.185.133.363.307.47.502.077.142.103.405.02.513-.079.103-.361.149-.498.091-.353-.151-.668-.391-1.014-.562-1.015-.502-2.087-.532-2.976.138-1.101.831-2.14 1.766-2.779 3.054-.188.379-.139.668.091.956.512.642 1.098 1.135 1.911 1.44 1.707.638 3.339.452 4.987-.15.794-.29 1.386-.81 1.89-1.478.993-1.315 1.004-2.792.798-4.32-.256-1.905-2.083-2.924-3.743-2.923-1.575.002-2.675.86-3.611 2.336m-48.134.484c.182-.848-.311-1.415-.662-1.966-1.425-2.236-4.557-2.314-6.075-.146-.364.52-.619 1.174-.736 1.802-.406 2.177.019 4.124 1.981 5.421.796.527 1.699.943 2.61 1.236 1.305.419 2.949.046 3.712-1.394.09-.169.198-.362.351-.458.652-.409.602-.89.215-1.445-.11-.158-.162-.354-.266-.516-.922-1.426-2.227-2.239-3.926-2.338-.886-.052-1.354.328-1.631 1.176-.086.263-.152.533-.269.952-.53-.667-.705-1.205-.383-1.844.333-.658.807-1.153 1.575-1.229.857-.085 1.707-.043 2.512.315.311.139.623.273.992.434m11.335 27.484c-.192.449-.363.834-.521 1.224-.848 2.082-1.704 4.161-2.53 6.252-.175.445-.384.709-.904.734-.893.042-1.224.725-1.455 1.449-.105.328-.163.687-.158 1.032.01.791-.45 1.296-.994 1.756-.206.174-.457.291-.677.45-.686.496-.777 1.165-.197 1.771.261.274.591.508.931.677.839.417 1.369.238 1.861-.564.339-.553.42-1.155.35-1.791-.039-.348-.069-.708.301-.932.726-.438 1.134-1.15 1.593-1.823.108-.159.325-.244.491-.362.066.242.184.486.18.726-.004.168-.157.349-.276.497-.364.451-.748.886-1.117 1.333-.144.175-.369.359-.382.551-.043.611-.012 1.228.007 1.842.013.454.086.908.071 1.36-.022.657-.139 1.312-.141 1.969-.002.541.537.8.995.507.453-.289.715-.691.658-1.266-.086-.884-.176-1.77-.205-2.656-.006-.221.17-.583.345-.645.356-.125.406.262.473.505.062.221.052.461.081.692.075.575.14 1.153.239 1.724.021.122.156.297.26.313.121.019.289-.082.394-.178.109-.1.178-.251.246-.389.379-.773.34-1.573.138-2.38-.084-.335-.2-.665-.244-1.005-.013-.097.159-.252.28-.317.062-.033.24.045.295.122.133.186.244.394.329.608.161.403.297.816.519 1.436.201-1.034-.053-1.696-.536-2.297-.267-.333-.548-.656-.789-1.005-.1-.145-.209-.389-.153-.519.4-.93.087-1.748-.351-2.547-.184-.337-.202-.634-.018-.984.687-1.303 1.341-2.624 2.026-3.928.481-.918.996-1.818 1.374-2.795-.942-.388-1.793-.738-2.789-1.147m33.212 8.468c-.191.092-.454.264-.743.349-.801.236-1.673-.109-2.137-.808-.46-.691-.44-1.673.09-2.273.12-.135.378-.146.572-.214-.034.17-.065.34-.104.509-.051.224-.136.442-.16.668-.06.549.146.986.614 1.29.498.323.957.211 1.396-.126.092-.07.177-.153.275-.215.481-.302.632-.269.947.187.286.412.553.84.864 1.232.461.581 1.181.696 1.831.884.475.138.849-.155.995-.589.142-.422-.096-.656-.42-.846-.334-.196-.667-.395-1.007-.58-.574-.312-.924-.754-1.113-1.406-.438-1.514-1.488-2.227-3.043-2.051-.589.066-.927-.027-1.216-.575-.705-1.335-1.471-2.639-2.22-3.951-.736-1.29-.741-1.287-2.035-.576-.64.351-.613.336-.242 1.03.857 1.605 1.688 3.226 2.526 4.842.246.474.344.944-.044 1.407-.231.276-.235.554.039.824.334.329.19.623-.093.897-.223.216-.433.446-.668.648-.854.733-1.034 1.687-.923 2.739.051.477.267.59.706.421.333-.129.439-.359.498-.702.077-.45.243-.889.414-1.315.034-.087.258-.134.394-.13.057.002.163.185.154.278-.031.344-.142.684-.149 1.027-.017.807-.058 1.622.04 2.418.062.504.619.625.973.246.164-.176.262-.472.275-.719.036-.736.007-1.474.02-2.211.005-.268.028-.544.103-.799.032-.112.211-.25.325-.252.112-.002.305.138.327.243.069.338.094.688.104 1.034.023.853-.001 1.708.051 2.559.036.577.338.75.856.588.774-.243.868-.479.517-1.254-.128-.282-.289-.564-.336-.862-.073-.453-.089-.922-.066-1.381.007-.146.213-.283.329-.424.102.136.261.261.293.412.056.262.015.542.045.811.08.724.422 1.337.922 1.837.64.64 1.517.373 1.632-.525.088-.683.009-1.391-.033-2.086-.01-.171-.134-.367-.263-.494-.681-.67-1.38-1.321-2.112-2.016m-23.265 18.019c-.369.775-.627 1.378-.939 1.952-.353.652-.907 1.046-1.67 1.099-1.423.099-2.596-.886-2.692-2.304-.028-.418.024-.854.118-1.263.095-.414-.063-.573-.428-.647-.303-.062-.602-.144-.904-.208-.982-.21-1.985-.349-2.943-.638-1.652-.5-3.258-.302-5.155.113.454.373.778.584 1.032.86.443.483.991.945 1.233 1.524.772 1.846 1.983 3.528 2.157 5.606.037.43.301.709.776.701.852-.015 1.713.035 2.555-.067 1.381-.167 2.76-.384 4.119-.674.901-.193 1.77-.542 2.646-.841.425-.145.566-.469.529-.918-.065-.77-.066-1.545-.138-2.315-.056-.607-.178-1.209-.296-1.98m3.846 6.733c-.039 1.27.094 1.509 1.198 1.705 1.179.208 2.392.25 3.56.505 3.433.748 6.919.825 10.403.857 1.866.017 3.703-.291 5.419-1.112.651-.312.81-.48.663-1.15-.334-1.516-.738-3.02-1.578-4.347-.497-.783-1.054-1.538-1.661-2.238-.553-.638-1.194-1.204-1.828-1.767-.576-.512-1.229-.397-1.843-.071-.268.142-.49.377-.714.59-1.405 1.338-2.384 2.942-2.964 4.792-.221.702-.462 1.397-.678 2.1-.135.441-.381.755-.845.867-1.217.296-2.456.436-3.692.245-1.796-.277-3.579-.638-5.44-.976m-3.447-.522c-1.431.323-2.776.671-4.139.924-1.75.326-3.507.636-5.304.582-1.381-.041-1.785-.332-2.021-1.715-.146-.851-.379-1.654-.771-2.423-.264-.517-.523-1.045-.7-1.596-.383-1.189-1.154-2.084-2.023-2.935-.567-.555-1.083-.706-1.853-.339-2.998 1.434-4.86 3.895-6.305 6.758-.018.035-.033.071-.045.108-.313.939-.224 1.255.548 1.92.117.1.245.191.375.273 1.164.737 2.419 1.215 3.799 1.352 1.003.099 2.004.213 3.007.31 1.195.116 2.4.371 3.585.3 2.316-.139 4.633-.387 6.928-.739 1.289-.198 2.541-.665 3.793-1.064.777-.247 1.189-.814 1.126-1.716m6.091-27.419c1.368.049 2.716-.083 4.035-.44.365-.099.708-.293 1.051-.464.472-.237.661-.632.579-1.152-.128-.801-.233-1.609-.4-2.402-.232-1.098-.556-2.178-.76-3.28-.239-1.292-.381-2.602-.591-3.9-.058-.356-.214-.762.27-.849.459-.083.522.355.604.698.035.151.101.296.125.448.174 1.11.35 2.219.505 3.332.124.888.107.875 1.008.611 1.523-.446 2.538-1.601 3.666-2.596.313-.277.197-.624.053-.966-.529-1.26-1.183-2.442-2.054-3.501-.566-.688-1.136-1.374-1.686-2.076-.801-1.021-1.774-1.846-2.868-2.526-.532-.331-.763-.196-.868.416-.118.685-.184 1.384-.365 2.052-.323 1.199-1.072 2.056-2.279 2.442-.514.164-1.046.31-1.58.367-2.018.217-3.924.036-5.608-1.326-1.003-.811-1.671-1.688-1.647-3.024.012-.673-.292-.884-.867-.546-.695.408-1.392.877-1.939 1.46-1.843 1.965-3.228 4.261-4.524 6.605-.395.715-.355.845.365 1.329.803.54 1.643 1.034 2.497 1.49 1.034.551 1.175.461 1.423-.719.016-.075.005-.157.027-.231.48-1.593.95-3.19 1.459-4.773.082-.253.218-.711.602-.544.39.169.107.562.021.824-.785 2.399-1.347 4.85-1.772 7.334-.229 1.34-.41 2.683-.323 4.048.048.766.06.843.835 1.021.791.181 1.597.344 2.405.393 2.865.176 5.733.3 8.601.445m10.724 17.994c.01-.095.021-.19.032-.285-.426-.327-.868-.636-1.274-.985-.88-.755-1.582-1.518-1.648-2.859-.103-2.082-.612-4.126-1.165-6.149-.283-1.039-.379-2.129-.561-3.195-.209-1.22-.395-2.445-.637-3.658-.134-.673-.183-.688-.852-.495-1.544.445-3.117.593-4.717.537-1.862-.066-3.725-.125-5.587-.188-.155-.005-.311-.016-.465-.035-1.688-.214-3.404-.212-5.066-.632-.448-.113-.614.088-.689.517-.18 1.029-.425 2.046-.609 3.074-.845 4.735-2.114 9.362-3.556 13.945-.061.194-.193.366-.336.629.669.169 1.263.335 1.865.467 1.285.28 2.577.53 3.861.818.604.134 1.187.369 1.795.48.796.147 1.603.27 2.41.308.866.04.919-.011 1.078-.858.22-1.178.362-2.371.562-3.553.347-2.059.714-4.114 1.069-6.172.112-.647.234-1.295.315-1.947.142-1.159.13-1.158-1.001-1.155-.18.001-.361-.037-.638-.068.472-.607 1.078-.611 1.631-.648.929-.063 1.863-.054 2.795-.058.285-.002.713-.118.717.34.003.426-.414.408-.711.393-.517-.027-.666.2-.661.69.01.97-.03 1.94-.056 2.91-.065 2.363-.131 4.726-.205 7.088-.009.304.023.662-.119.901-.562.941-.546 1.973-.644 3.049.844.054 1.587-.155 2.317-.384 1.661-.521 3.311-1.082 4.97-1.609.405-.129.83-.197 1.247-.283 1.511-.312 3.022-.62 4.533-.93m-37.755-58.879c.141.364.226.578.308.794.649 1.709.916 3.369-.51 4.875-.138.145-.141.496-.092.728.361 1.724 1.133 3.282 1.932 4.84 1.779 3.468 4.523 5.867 8.067 7.384 1.604.687 3.245 1.29 4.876 1.91.396.15.82.264 1.24.307 2.001.205 3.982.563 6.011.563 2.723-.001 5.417-.055 8.077-.765 2.416-.645 4.679-1.619 6.917-2.713 1.631-.798 3.062-1.826 4.33-3.098.602-.603 1.165-1.247 1.724-1.892 1.605-1.85 2.84-3.935 3.914-6.148-3.579-.298-5.319-4.619-3.761-7.689-2.879-1.554-4.487-3.845-3.05-8-.496-.082-.99-.154-1.479-.247-.944-.179-1.522-.745-1.664-1.696-.068-.453-.11-.928-.05-1.377.11-.822.304-1.632.462-2.45-.483-.108-.965-.139-1.376-.326-.584-.266-.904-.199-1.339.343-.999 1.249-2.942 1.639-4.228.978-.224-.115-.429-.269-.629-.396-.346.382-.632.697-.918 1.012-.992 1.09-2.261 1.302-3.627 1.069-.697-.119-1.376-.421-1.722-1.08-.252-.479-.584-.551-1.041-.512-.231.02-.472.023-.697-.023-1.281-.266-2.732-.966-2.563-2.751.108-1.141.048-1.148-1.054-1.363-.109-.021-.226-.003-.386-.003-.046.199-.096.38-.13.564-.246 1.313-.968 2.186-2.313 2.446-.835.163-1.678.345-2.524.384-.97.045-.97.064-.984.964-.021 1.285-.751 2.211-1.973 2.549-.482.134-.99.214-1.489.232-.487.018-.599.24-.541.659.079.575.191 1.149.22 1.728.066 1.317-.385 2.03-1.601 2.538-.463.193-.955.321-1.442.447-.628.162-.631.149-.511.813.359 1.975-.375 3.215-2.292 3.84-.367.12-.753.18-1.127.278-.292.077-.58.17-.965.284m-1.074 5.052c1.001-.896 1.224-1.432.98-2.576-.12-.563-.31-1.12-.545-1.646-.68-1.524-.609-1.624 1.057-1.86.757-.107 1.532-.294 2.224-.608 1.082-.491 1.498-1.798 1.02-2.882-.071-.161-.22-.333-.376-.404-.28-.127-.704-.183-.546-.57.079-.194.509-.273.796-.346.26-.066.55-.013.809-.082.707-.187 1.422-.368 2.103-.632.593-.231.902-.715.834-1.386-.071-.692-.171-1.383-.195-2.076-.018-.504-.166-.882-.572-1.2-.235-.184-.434-.455-.554-.729-.077-.178.018-.431.036-.65.202.05.417.073.601.16.133.063.219.217.335.32.961.848 2.747.78 3.588-.187.239-.272.431-.684.437-1.035.008-.483-.191-.966-.283-1.452-.034-.176-.087-.466-.007-.52.164-.11.41-.107.625-.128.067-.007.137.074.211.09 1.395.305 2.773.29 4.109-.268 1.267-.53 1.744-1.823 1.099-3.033-.37-.693-.442-1.402-.254-2.139.372-1.457 1.21-2.58 2.478-3.391.664-.425 1.39-.462 2.132-.346.149.024.272.219.406.335-.143.075-.287.217-.43.216-2.134-.004-4.081 2.161-3.768 4.241.042.278.226.561.412.786.595.724 1.41.477 2.168.423.224-.016.437-.182.661-.196.162-.01.424.078.474.194.055.129-.043.367-.144.506-.109.149-.321.218-.452.357-.691.734-.678 2.024.028 2.609.57.473 1.25.575 1.968.565.466-.005.695-.275.865-.651.127-.279.35-.461.646-.349.361.138.354.447.252.783-.067.218-.073.457-.094.687-.041.442.166.766.553.935 1.009.441 2.008.563 2.976-.145.87-.637 1.493-1.458 1.934-2.43.128-.283.213-.597.396-.836.111-.146.423-.29.552-.232.151.069.283.359.281.552-.003.381-.12.761-.158 1.144-.042.412.156.643.577.72 1.694.312 3.096-.884 3.02-2.577-.011-.226-.025-.486.074-.671.093-.175.338-.379.507-.37.162.007.356.247.453.429.085.158.046.38.078.571.092.563.427.893.984 1.004.267.053.531.129.8.16 1.247.141 2.292-.559 2.636-1.779.095-.333.133-.682.183-1.026.033-.226.007-.524.327-.491.13.013.321.255.339.41.167 1.397.207 2.591-1.46 3.446-.773.397-1.203.96-1.344 1.764-.105.607-.173 1.227-.176 1.842-.004 1.203.463 1.687 1.689 1.711.69.014 1.382-.122 2.075-.15.199-.008.486.066.59.207.186.251.065.52-.217.674-.876.481-1.176 1.311-1.306 2.218-.06.418-.057.857-.009 1.278.14 1.223.77 2.193 1.727 2.925.87.664 1.789 1.265 2.988.818.103-.038.341.047.38.135.05.112.01.372-.075.42-.391.219-.796.454-1.226.553-.362.083-.583.23-.625.569-.076.61-.154 1.227-.151 1.84.007 1.458.664 2.625 1.802 3.491.914.695 2.007.717 2.954.196 1.31-.72 2.611-1.16 4.11-.842.157.033.41-.013.507-.121 1.063-1.188.923-3.361-.771-3.476-.113-.008-.231-.043-.333-.093-.408-.203-.463-.691-.084-.934.223-.144.494-.218.749-.306.852-.295 1.447-.868 1.878-1.649 1.041-1.882.958-3.791.121-5.702-.426-.969-.94-1.862-2.1-2.174-.508-.137-.608-.575-.312-1.015.172-.253.412-.463.631-.682.439-.439.925-.837 1.323-1.31 1.631-1.941 2.169-4.17 1.583-6.633-.342-1.437-1.387-2.096-2.865-1.918-.115.014-.235.055-.346.04-.293-.041-.582-.105-.872-.16.057-.286.066-.594.182-.854.205-.459.504-.875.714-1.332.749-1.629.562-3.188-.506-4.601-1.678-2.22-5.197-3.09-7.527-1.662-.611.375-.933.296-1.052-.28-.257-1.244-1.034-2.16-1.867-3.022-1.783-1.844-4.069-1.905-6.013-.215-.651.566-.795.575-1.264-.124-.764-1.137-1.839-1.782-3.158-1.98-1.872-.28-3.625.047-5.145 1.264-.769.616-.777.584-1.439-.218-.363-.439-.794-.863-1.278-1.155-1.853-1.117-3.773-1.008-5.679-.131-.85.392-1.412 1.071-1.668 1.986-.051.185-.082.384-.173.548-.173.313-.533.373-.781.123-.217-.219-.377-.493-.579-.727-1.032-1.188-2.351-1.659-3.87-1.338-.782.165-1.556.501-2.253.9-1.062.606-1.786 1.492-1.704 2.825.007.115-.001.234-.025.347-.095.452-.444.655-.863.465-.28-.126-.529-.321-.79-.487-1.157-.735-2.413-.991-3.78-.887-1.71.13-2.812 1.7-2.332 3.17.084.258.123.53.211.786.128.37.347.817-.068 1.039-.199.106-.638-.128-.916-.296-.954-.572-1.9-.621-2.869-.065-.966.556-1.577 1.422-1.793 2.472-.199.967-.346 2.004.57 2.799.226.197.38.489.532.757.433.759.988 1.38 1.812 1.73.255.109.554.284.392.59-.095.18-.407.292-.64.34-.217.045-.465-.081-.69-.053-.726.09-1.485.112-2.161.355-1.028.369-1.664 1.175-1.646 2.305.014.894.193 1.798.779 2.517.586.718 1.242 1.377 1.876 2.054.21.225.486.397.658.644.233.336.059.677-.35.773-.112.026-.234.008-.347.03-1.075.21-1.394.594-1.292 1.679.043.454.18.911.344 1.341.381.996 1.055 1.802 1.786 2.56.215.224.461.421.658.66.315.383.227.742-.225.915-.288.11-.615.125-.894.252-.666.301-1.382.555-1.956.989-1.306.988-1.431 2.16-.46 3.553.324.464.827.808 1.268 1.184.205.173.505.247.679.44.271.3.536.349.925.278 1.344-.247 2.528.148 3.574 1.003.205.167.413.333.612.494m17.097 16.875c-2.727-.713-5.359-1.686-7.834-2.959-2.604-1.339-4.899-3.147-6.417-5.757-.093-.16-.231-.294-.396-.5-.123.182-.217.291-.278.417-.983 2.038-2.864 2.855-5.154 2.235-1.341-.363-2.516-1.009-3.535-1.946-1.118-1.028-1.686-2.303-1.686-3.821 0-.582-.022-1.17.06-1.743.197-1.396.801-2.584 1.956-3.45.091-.069.173-.154.253-.238.023-.025.024-.072.053-.163-.359-.252-.734-.513-1.107-.777-.687-.487-1.16-1.138-1.444-1.926-.52-1.445-.202-2.809.984-3.785.531-.436 1.181-.732 1.791-1.064.265-.145.568-.221.816-.314-.596-.858-1.21-1.658-1.723-2.517-.292-.489-.487-1.062-.606-1.622-.267-1.262-.167-2.427 1.318-3.078-.308-.327-.551-.604-.813-.862-.999-.981-1.632-2.151-1.903-3.527-.356-1.809.439-3.326 2.159-4.035.463-.191.951-.32 1.543-.516-.313-.411-.544-.822-.873-1.127-1.211-1.125-1.197-2.552-.995-3.999.126-.896.568-1.689 1.174-2.371.948-1.068 2.13-1.507 3.548-1.296.153.023.308.039.461.053.038.004.077-.009.188-.025.01-.123.05-.267.027-.399-.361-2.029 1.055-3.836 3.362-3.988 1.27-.083 2.476.109 3.604.72.231.125.477.225.731.344.42-2.342 2.054-3.426 4.073-4.063 2.069-.652 3.915-.195 5.446 1.389 1.763-3.262 7.356-4.038 10.378-.551 2.8-1.916 7.034-2.138 9.59.774.212-.142.427-.296.653-.434 1.775-1.085 4.361-1.116 6.17.534.836.764 1.55 1.628 2.108 2.62.362.645.371.629 1.067.459 2.209-.539 4.301-.345 6.232.964 2.358 1.599 3.349 4.47 1.975 7.258-.083.169-.148.349-.232.549.149.059.247.127.349.134 1.778.121 3.032 1.096 3.298 2.857.273 1.809.257 3.635-.593 5.353-.649 1.314-1.586 2.382-2.772 3.37 1.935 1.334 2.72 3.266 2.879 5.459.162 2.252-.514 4.215-2.391 5.622.294.476.635.897.832 1.377.399.969.166 1.923-.326 2.789-.284.499-.288.784.219 1.136.725.503 1.141 1.253 1.324 2.124.42 1.997.428 3.916-.888 5.654-.458.605-.961 1.133-1.64 1.447-2.169 1.007-4.384 1.221-6.663.344-.942-.362-1.614-1.037-2.258-1.876-.261.263-.487.46-.677.687-1.848 2.201-3.973 4.039-6.669 5.14-1.758.718-3.517 1.438-5.274 2.161-.058.025-.092.106-.138.16.008.037.003.093.025.107 1.74 1.096 2.955 2.726 4.277 4.242.949 1.087 1.695 2.312 2.226 3.663.152.386.304.727.769.942 1.301.603 1.703 1.746.98 2.969-.364.616-.289 1 .052 1.544.555.886 1.018 1.83 1.522 2.748.205.374.409.749.624 1.116.254.436.609.639 1.145.647.491.008.994.128 1.468.276 1.043.326 1.736 1.045 1.956 2.112.134.652.504 1.015 1.048 1.294.275.141.534.316.795.484.795.513.937.818.759 1.609-.173.768-.598 1.123-1.467 1.232-.183.023-.365.061-.545.091 0 .824.103 1.607-.024 2.351-.212 1.245-.996 1.746-2.185 1.421-.445-.123-.696-.065-1.027.204-.681.554-1.406.822-2.215.176-.136-.109-.425-.109-.616-.058-1.287.345-1.78.027-1.945-1.301-.028-.224-.033-.45-.053-.745-.214.042-.353.074-.493.096-1.064.165-1.419-.104-1.503-1.187-.09-1.172.147-2.242 1.049-3.082.377-.351.677-.687.461-1.3-.097-.278.043-.693.189-.99.191-.39.209-.734.013-1.104-.89-1.679-1.784-3.356-2.67-5.037-.137-.26-.335-.279-.584-.214-.599.157-1.201.304-1.8.463-.273.073-.337.245-.286.528.129.723.244 1.451.322 2.181.036.342.113.808-.065 1.021-.555.663-.233 1.316-.137 1.98.222 1.532.447 3.063.682 4.592.071.459.143.923.273 1.367.637 2.161 1.076 4.364 1.327 6.598.138 1.227.57 2.176 1.671 2.871.79.5 1.708.974 1.955 2.052.032.139.287.243.455.33 1.765.923 3.043 2.325 4.222 3.915 1.164 1.57 1.88 3.285 2.39 5.125.094.336.177.68.211 1.025.109 1.081-.219 1.526-1.221 1.955-2.485 1.065-5.103 1.346-7.75 1.181-3.167-.197-6.352-.292-9.462-1.053-.711-.174-1.458-.206-2.188-.302-.154-.02-.311-.024-.462-.057-1.557-.33-1.831-.61-2.025-2.206-.069-.575-.127-1.172-.049-1.739.185-1.336-.099-2.732.505-4.015.043-.092.045-.227.014-.326-.423-1.327.003-2.594.253-3.877.118-.604.271-1.218.268-1.827-.016-2.797.107-5.582.455-8.358.061-.484.008-.981-.146-1.501-.067.124-.171.243-.196.375-.394 2.131-.806 4.259-1.157 6.397-.302 1.831-.498 3.679-.807 5.509-.136.813-.149 1.714-.973 2.27-.122.082-.128.426-.093.633.336 2.043.187 4.1.184 6.151-.001.813-.444 1.361-1.166 1.736-1.221.635-2.536 1.005-3.866 1.243-2.902.518-5.827.896-8.788.758-.967-.045-1.931-.153-2.893-.26-1.194-.132-2.399-.22-3.572-.461-1.533-.315-2.96-.891-4.109-2.042-.563-.564-.696-1.184-.564-1.908.048-.264.129-.532.248-.773 1.332-2.689 3.107-4.974 5.689-6.618 1.754-1.116 3.673-1.351 5.652-1.428 1.09-.042 1.512-.275 1.807-1.239.534-1.74 1.053-3.485 1.576-5.229.095-.318.296-.639-.062-1.062-.16.396-.286.738-.437 1.07-.256.563-.629 1.007-1.314.955-.323-.025-.505.069-.656.34-.541.974-1.362 1.226-2.369.823-.315-.127-.472-.032-.713.142-.821.592-1.564.529-2.278-.184-.67-.67-.963-1.501-.862-2.44.066-.617-.077-1.064-.53-1.548-.968-1.033-.788-2.172.405-2.928.802-.51 1.293-1.061 1.357-2.119.075-1.235.621-2.349 2.062-2.607.387-.069.488-.344.605-.626.727-1.757 1.45-3.515 2.172-5.273.103-.252.182-.513.282-.765.172-.428.553-.898.471-1.267-.081-.362-.635-.614-.973-.923-1.096-1.005-.931-2.824.373-3.573.408-.234.634-.534.837-.914 1.17-2.197 2.507-4.285 4.14-6.169.526-.606 1.157-1.121 1.739-1.676" fill="#231f20"/><path d="m15.46 42.762c-.199-.161-.407-.326-.612-.494-1.046-.854-2.23-1.25-3.575-1.003-.388.072-.653.023-.924-.277-.174-.194-.474-.268-.679-.441-.441-.375-.944-.72-1.268-1.184-.971-1.392-.846-2.564.46-3.553.574-.434 1.29-.687 1.956-.989.279-.126.606-.141.894-.251.452-.173.54-.532.225-.916-.197-.239-.443-.435-.658-.659-.732-.759-1.405-1.564-1.786-2.561-.164-.429-.302-.886-.345-1.34-.102-1.086.218-1.47 1.292-1.68.114-.022.236-.004.348-.03.409-.096.583-.436.35-.772-.172-.247-.448-.42-.658-.644-.634-.678-1.291-1.337-1.876-2.055-.586-.718-.765-1.622-.779-2.517-.018-1.13.618-1.936 1.646-2.305.676-.243 1.435-.265 2.161-.355.224-.028.473.099.69.054.233-.048.545-.16.64-.34.162-.306-.137-.481-.392-.59-.824-.35-1.379-.971-1.812-1.731-.152-.267-.306-.56-.532-.756-.916-.796-.769-1.833-.57-2.8.216-1.049.827-1.915 1.793-2.471.969-.557 1.915-.508 2.868.065.279.167.718.402.917.295.415-.222.196-.669.068-1.039-.088-.255-.127-.528-.211-.785-.48-1.471.622-3.04 2.332-3.17 1.367-.105 2.623.152 3.78.887.261.166.51.36.79.487.419.189.768-.014.863-.465.024-.113.032-.233.025-.347-.082-1.334.642-2.22 1.704-2.826.697-.398 1.471-.734 2.253-.9 1.518-.32 2.838.151 3.87 1.339.202.234.362.507.579.726.248.251.608.19.78-.122.092-.165.122-.363.174-.548.256-.915.818-1.595 1.668-1.986 1.906-.878 3.826-.987 5.678.13.485.292.916.716 1.279 1.156.662.801.67.833 1.439.218 1.52-1.217 3.273-1.545 5.145-1.264 1.319.197 2.394.843 3.158 1.98.469.698.613.69 1.264.124 1.944-1.691 4.23-1.63 6.013.214.833.862 1.61 1.778 1.867 3.022.119.576.44.655 1.052.28 2.33-1.427 5.849-.558 7.527 1.663 1.067 1.412 1.255 2.972.506 4.601-.21.456-.509.873-.714 1.331-.116.261-.125.568-.183.855.291.054.58.119.873.159.111.016.23-.025.346-.04 1.478-.178 2.523.481 2.864 1.918.586 2.464.049 4.693-1.583 6.633-.397.473-.883.872-1.322 1.311-.22.218-.459.428-.631.682-.296.439-.196.878.312 1.014 1.16.313 1.674 1.205 2.099 2.175.838 1.911.921 3.819-.12 5.702-.431.78-1.026 1.353-1.878 1.648-.255.089-.526.163-.749.306-.379.243-.324.731.084.935.102.05.22.085.332.092 1.695.116 1.834 2.289.772 3.476-.097.109-.35.155-.507.121-1.499-.318-2.8.123-4.11.843-.948.52-2.04.498-2.954-.197-1.138-.866-1.795-2.032-1.802-3.49-.003-.613.075-1.23.151-1.841.042-.338.263-.486.625-.569.429-.098.835-.333 1.226-.553.085-.047.125-.307.075-.42-.039-.088-.277-.173-.38-.134-1.199.447-2.119-.155-2.988-.819-.957-.732-1.587-1.701-1.727-2.925-.049-.421-.051-.859.009-1.278.13-.907.43-1.737 1.306-2.217.282-.155.403-.423.217-.675-.104-.141-.391-.214-.59-.206-.693.027-1.386.163-2.076.15-1.225-.024-1.692-.509-1.688-1.711.002-.615.071-1.236.176-1.842.14-.804.571-1.368 1.344-1.765 1.667-.855 1.627-2.048 1.46-3.445-.019-.155-.209-.397-.339-.411-.32-.033-.294.266-.327.491-.05.344-.088.694-.183 1.027-.344 1.219-1.389 1.92-2.636 1.778-.269-.03-.533-.107-.8-.16-.557-.11-.892-.441-.985-1.004-.031-.191.008-.412-.077-.57-.097-.182-.291-.422-.453-.43-.169-.008-.414.196-.507.37-.099.185-.085.445-.074.671.076 1.694-1.327 2.89-3.02 2.578-.421-.078-.619-.309-.578-.721.039-.383.156-.762.159-1.144.002-.192-.13-.483-.281-.552-.129-.058-.441.086-.552.232-.183.24-.268.554-.396.836-.441.972-1.064 1.793-1.934 2.43-.968.708-1.967.587-2.976.145-.387-.169-.594-.492-.553-.934.021-.231.027-.47.094-.688.102-.336.108-.644-.252-.782-.296-.113-.519.07-.646.349-.17.376-.399.645-.865.651-.718.009-1.399-.092-1.968-.565-.706-.585-.719-1.876-.028-2.609.131-.139.343-.208.452-.358.101-.138.199-.377.143-.505-.049-.116-.312-.205-.473-.195-.224.014-.437.18-.661.196-.758.055-1.573.301-2.168-.422-.186-.226-.37-.508-.412-.786-.313-2.08 1.634-4.246 3.768-4.241.143 0 .287-.141.43-.216-.134-.116-.257-.312-.406-.335-.742-.116-1.468-.08-2.132.345-1.268.811-2.106 1.935-2.478 3.391-.188.738-.116 1.447.254 2.139.645 1.21.168 2.504-1.099 3.033-1.336.559-2.714.574-4.109.269-.074-.017-.144-.097-.211-.09-.215.021-.461.017-.625.128-.08.054-.027.344.007.519.092.487.291.97.283 1.452-.006.351-.199.763-.437 1.036-.841.966-2.627 1.035-3.588.186-.116-.102-.202-.257-.335-.319-.184-.088-.399-.11-.601-.161-.018.22-.113.473-.036.651.12.273.319.545.554.728.406.318.554.696.572 1.2.024.694.124 1.385.194 2.077.069.671-.24 1.154-.834 1.385-.68.265-1.395.445-2.103.633-.258.068-.548.016-.808.082-.287.073-.717.152-.797.346-.157.386.267.443.547.569.156.071.305.243.376.405.478 1.084.062 2.391-1.02 2.881-.693.314-1.467.501-2.224.608-1.666.236-1.737.337-1.057 1.86.235.526.425 1.084.545 1.646.244 1.145.02 1.681-.98 2.576" fill="#594a42"/><path d="m11.411 38.596c.062-1.305.689-2.534 1.389-3.608.412-.634.878-1.19 1.385-1.747.51-.562 1.062-1.164 1.35-1.876.294-.731.08-1.43-.328-2.065-.397-.619-.832-1.178-1.08-1.879-.332-.936-.522-2.043.062-2.924.471-.709 1.305-1.086 2.068-1.393.862-.348 1.777-.623 2.556-1.143.387-.259.752-.578.95-1.008.21-.454.224-.958.136-1.443-.4-2.211-2.409-4.239-1.806-6.602.267-1.045 1.063-1.873 2.069-2.233 1.099-.392 2.322-.349 3.467-.256 1.303.105 2.595.323 3.899.423 1.145.087 2.393.108 3.428-.468 1.044-.58 1.237-1.675 1.432-2.754.091-.507.194-1.018.425-1.483.261-.527.656-.913 1.155-1.216.597-.363 1.243-.452 1.932-.388.565.052 1.19.261 1.757.137.688-.15.931-.96.909-1.58-.021-.581-.182-1.164.003-1.724-1.533-.561-3.101-.37-4.659.347-.851.392-1.413 1.071-1.668 1.986-.052.185-.083.384-.174.548-.173.313-.533.373-.781.123-.216-.219-.376-.493-.579-.727-1.031-1.188-2.351-1.659-3.87-1.338-.781.165-1.555.501-2.253.9-1.062.606-1.786 1.492-1.704 2.825.008.115-.001.234-.025.347-.095.452-.444.655-.863.465-.279-.126-.529-.321-.79-.487-1.157-.735-2.413-.991-3.779-.887-1.711.13-2.813 1.7-2.332 3.17.084.258.122.53.211.786.128.37.346.817-.069 1.039-.198.106-.638-.129-.916-.296-.954-.572-1.9-.621-2.868-.065-.967.556-1.578 1.422-1.794 2.472-.199.967-.346 2.004.57 2.799.227.197.38.489.533.757.432.759.987 1.38 1.811 1.73.256.109.554.284.392.59-.095.18-.406.292-.64.34-.217.045-.465-.081-.69-.053-.726.09-1.485.112-2.161.355-1.028.369-1.664 1.175-1.645 2.305.014.894.192 1.798.778 2.517.586.718 1.243 1.377 1.876 2.054.21.225.486.397.658.644.233.336.059.677-.35.773-.112.026-.233.008-.347.03-1.074.21-1.394.594-1.292 1.679.043.454.18.911.344 1.34.381.997 1.055 1.803 1.786 2.561.215.224.462.421.658.66.315.383.227.742-.224.915-.289.11-.616.125-.895.252-.666.301-1.382.555-1.955.989-1.306.988-1.431 2.16-.461 3.553.324.464.827.808 1.268 1.184.205.173.505.247.679.44.271.3.536.349.925.278.354-.066.697-.083 1.03-.062-.593-.739-.939-1.629-.893-2.608" fill="#776258"/><path d="m53.253 19.135c-.351-.876-.584-1.789-.879-2.682-.436.281-.893.533-1.362.753-1.168.547-2.522 1.045-3.833.946-.54-.041-1.077-.225-1.458-.621-.359-.373-.503-.87-.55-1.373-1.082.276-2.106.754-3.179 1.064-.977.284-2.016.442-3.007.134-.758-.237-1.217-.679-1.595-1.356-.259-.464-.648-1.414-.621-2.158-1.787.45-3.232 2.325-2.959 4.137.042.278.227.561.412.786.595.724 1.411.477 2.168.423.224-.016.438-.182.661-.196.162-.01.424.078.474.194.055.129-.043.367-.144.506-.108.149-.32.218-.451.357-.691.733-.678 2.024.027 2.609.57.473 1.25.575 1.968.565.467-.005.696-.275.866-.651.126-.279.35-.461.645-.349.361.138.355.447.253.782-.067.219-.073.458-.095.688-.041.442.166.766.553.935 1.01.441 2.008.563 2.976-.145.87-.637 1.494-1.458 1.934-2.431.128-.282.213-.596.396-.835.111-.146.423-.291.552-.232.152.068.283.359.282.552-.003.381-.12.761-.159 1.144-.042.412.157.642.577.72 1.694.312 3.097-.884 3.02-2.578-.01-.225-.024-.485.074-.67.094-.175.339-.379.507-.371.162.008.356.248.454.43.085.158.045.38.077.57.092.563.427.894.985 1.005.266.053.53.129.799.16.54.061 1.038-.044 1.461-.272-.917-.529-1.451-1.596-1.829-2.54" fill="#776258"/><path d="m29.957 31.283c.125-.182.233-.329.329-.483.572-.924 1.2-1.795 2.106-2.435.161-.114.392-.388.35-.488-.158-.381-.492-.263-.783-.135-.14.062-.278.142-.396.239-.819.677-1.387 1.55-1.86 2.484-.077.153-.053.374-.025.555.013.083.15.147.279.263m5.447 23.829c.901 1.478 2.775 2.05 4.221 1.443.308-.129.578-.368.83-.596.088-.08.069-.279.1-.423-.134-.017-.295-.091-.398-.043-1.373.641-2.703.469-4.025-.158-.227-.108-.485-.151-.728-.223m12.916-24.646c-.026-.228-.02-.349-.055-.457-.482-1.494-1.47-2.505-2.941-3.043-.138-.051-.322-.076-.451-.027-.162.061-.318.192-.414.335-.029.043.131.251.24.338.117.094.275.139.418.196 1.023.411 1.711 1.158 2.164 2.142.097.211.172.438.305.622.1.138.278.22.421.327.12-.166.24-.332.313-.433m-5.391 4.781c-.082.976.091 1.68.561 2.292.332.434.775.625 1.327.559.565-.067.788-.489.891-.948.126-.561.212-1.143.217-1.718.006-.596-.254-1.131-.668-1.57-.416-.441-.953-.536-1.503-.373-.543.161-.776.614-.821 1.156-.022.27-.004.543-.004.602m-10.54 1.395c.017.309.007.622.055.926.155.975 1.113 1.388 1.919.839.994-.677 1.454-2.755.841-3.801-.544-.928-1.523-.996-2.176-.143-.492.642-.695 1.373-.639 2.179m8.019 8.023c-.606-.098-1.058-.195-1.515-.24-1.805-.181-2.844-1.69-2.444-3.761.274-1.413 1.625-2.216 3.002-1.844.322.088.596.343.91.483.15.067.34.043.512.06-.027-.168.001-.38-.091-.499-.801-1.038-2.147-1.315-3.35-.744-2.651 1.26-2.671 5.228-.451 6.71 1.024.682 2.378.663 3.427-.165m8.693 2.821c-.191-.994-.497-1.459-1.176-1.918-1.183-.8-3.197-.4-3.935.795-.067.108-.029.282-.04.425.138.007.299.063.409.011.243-.116.448-.313.693-.423.151-.068.346-.036.522-.05.007.147.036.296.017.439-.391 3.024-3.037 5.418-6.095 5.557-2.777.126-5.071-.875-6.941-2.897-.186-.202-.368-.51-.633-.246-.131.13-.074.484-.041.729.018.136.154.263.253.381 2.5 2.995 7.191 4.303 10.946 2.139 1.925-1.11 3.777-3.066 3.206-6.36.586-.216 1.044.044 1.483.388.406.319.816.632 1.332 1.03m-32.567-9.775c.384-.114.673-.207.965-.284.374-.099.76-.159 1.127-.278 1.917-.626 2.651-1.865 2.292-3.841-.121-.664-.117-.65.511-.812.487-.126.979-.254 1.442-.447 1.216-.509 1.667-1.221 1.601-2.539-.029-.578-.141-1.153-.221-1.728-.057-.418.055-.64.542-.658.499-.019 1.007-.099 1.489-.232 1.222-.338 1.951-1.265 1.972-2.549.015-.901.015-.919.985-.964.846-.04 1.689-.222 2.524-.384 1.344-.26 2.067-1.134 2.313-2.446.034-.184.084-.366.13-.564.16 0 .277-.019.386.002 1.102.215 1.162.223 1.054 1.364-.169 1.784 1.282 2.485 2.563 2.75.225.047.466.044.697.024.457-.039.789.033 1.041.511.346.66 1.025.961 1.721 1.08 1.367.234 2.636.021 3.627-1.069.287-.315.573-.63.919-1.011.2.127.405.28.629.396 1.285.66 3.229.271 4.228-.978.434-.543.755-.609 1.339-.343.411.187.893.218 1.376.326-.159.817-.352 1.628-.462 2.45-.06.449-.018.924.05 1.377.142.95.72 1.516 1.664 1.695.489.093.983.165 1.479.247-1.437 4.156.171 6.446 3.049 8.001-1.557 3.07.183 7.39 3.762 7.688-1.075 2.214-2.309 4.298-3.914 6.149-.559.644-1.122 1.288-1.724 1.892-1.269 1.271-2.699 2.3-4.331 3.098-2.237 1.094-4.5 2.068-6.916 2.713-2.66.709-5.354.763-8.077.764-2.03 0-4.01-.358-6.012-.562-.419-.044-.843-.158-1.239-.308-1.632-.619-3.272-1.223-4.876-1.909-3.544-1.518-6.288-3.916-8.067-7.385-.799-1.558-1.571-3.116-1.932-4.84-.049-.232-.046-.582.092-.728 1.426-1.505 1.159-3.166.51-4.875-.082-.216-.167-.43-.308-.793" fill="#edab7a"/><path d="m48.007 30.899c-.143-.107-.32-.189-.42-.327-.134-.184-.208-.411-.305-.622-.454-.985-1.142-1.732-2.165-2.142-.143-.057-.3-.103-.418-.196-.109-.088-.269-.295-.24-.338.096-.143.253-.274.414-.335.13-.049.313-.024.451.027 1.472.537 2.459 1.549 2.941 3.043.035.107.029.228.055.456-.073.101-.193.267-.313.434m11.56 5.908c-2.879-1.555-4.487-3.845-3.05-8.001-.496-.082-.989-.154-1.479-.247-.944-.179-1.522-.745-1.664-1.696-.068-.453-.11-.927-.05-1.377.11-.821.304-1.632.463-2.449-.484-.109-.966-.139-1.377-.326-.584-.267-.904-.2-1.339.343-.999 1.248-2.942 1.638-4.228.977-.224-.115-.428-.269-.628-.396-.347.382-.633.697-.919 1.012-.992 1.09-2.261 1.302-3.627 1.069-.697-.119-1.376-.421-1.722-1.08-.252-.479-.584-.55-1.041-.511-.231.02-.472.023-.697-.024-1.281-.266-2.732-.966-2.563-2.75.108-1.141.048-1.149-1.054-1.364-.109-.021-.226-.003-.386-.003-.046.199-.096.38-.13.564-.246 1.313-.968 2.186-2.313 2.447-.835.162-1.678.344-2.524.383-.97.045-.97.063-.984.964-.021 1.285-.751 2.212-1.973 2.55-.482.133-.99.213-1.489.232-.487.018-.599.239-.541.658.079.575.192 1.15.22 1.728.031.602-.054 1.074-.264 1.461.712.211 1.437.285 2.157.039.69-.236 1.278-.672 1.762-1.213.909-1.014 1.504-2.279 2.54-3.183.079-.069.215-.047.291.01.424.31.862.668 1.315 1.016.19-.038.367-.009.469.237.011.025.004.061-.014.102.936.674 1.949 1.228 3.091 1.174 1.719-.082 2.935-1.651 4.052-2.772.111-.111.321-.008.375.108.46.981 1.028 1.911 1.758 2.715 1.062 1.169 2.49 2.024 4.098 2.083 1.787.065 3.416-.846 4.72-1.993.156-.138.407.044.401.225-.056 1.626.344 3.241 1.088 4.685.391.758.876 1.466 1.445 2.102.512.572 1.114 1.025 1.676 1.541.277.255.557.535.7.89.117.289.122.599.102.906-.082 1.244-.206 2.431.116 3.659.345 1.317.981 2.532 1.389 3.827.39 1.232.488 2.489.088 3.731-.264.819-.584 1.63-.945 2.423.274-.241.547-.486.808-.747.602-.604 1.165-1.248 1.724-1.892 1.605-1.851 2.84-3.935 3.914-6.149-3.579-.298-5.319-4.618-3.761-7.688" fill="#d69865"/><path d="m54.289 96.59c-1.511.31-3.022.618-4.533.93-.417.086-.842.153-1.247.282-1.659.528-3.309 1.089-4.97 1.61-.73.229-1.474.438-2.317.384.098-1.076.082-2.108.644-3.049.142-.24.11-.597.119-.901.074-2.362.139-4.725.204-7.088.027-.97.067-1.94.057-2.91-.005-.49.144-.717.661-.691.297.016.714.034.711-.392-.004-.458-.432-.342-.717-.341-.932.004-1.866-.004-2.796.059-.552.037-1.158.041-1.63.648.276.031.458.069.638.068 1.131-.003 1.143-.005 1.001 1.155-.081.652-.203 1.299-.315 1.947-.355 2.058-.722 4.113-1.07 6.172-.199 1.182-.341 2.375-.562 3.553-.158.847-.211.897-1.077.857-.807-.037-1.614-.16-2.41-.307-.608-.111-1.191-.346-1.795-.481-1.284-.287-2.576-.537-3.861-.818-.602-.131-1.196-.297-1.865-.466.143-.263.275-.435.336-.629 1.441-4.583 2.711-9.21 3.556-13.945.184-1.028.428-2.045.609-3.074.075-.429.24-.63.689-.517 1.662.42 3.378.418 5.066.632.154.019.31.03.464.035 1.863.063 3.725.122 5.588.188 1.599.056 3.173-.092 4.717-.537.669-.193.718-.178.852.495.242 1.213.428 2.438.637 3.658.182 1.066.278 2.156.561 3.195.553 2.023 1.062 4.067 1.165 6.149.066 1.34.767 2.104 1.647 2.859.407.349.848.658 1.275.985-.011.095-.022.19-.032.285" fill="#87d4ec"/><path d="m43.565 78.595c-2.867-.144-5.736-.268-8.601-.444-.807-.05-1.614-.212-2.404-.394-.776-.178-.787-.254-.836-1.02-.086-1.366.094-2.709.323-4.048.425-2.485.987-4.936 1.772-7.334.086-.263.369-.656-.02-.825-.384-.167-.521.292-.602.544-.509 1.584-.979 3.181-1.46 4.774-.022.073-.01.155-.026.231-.249 1.179-.39 1.269-1.423.718-.855-.456-1.694-.949-2.497-1.49-.72-.483-.761-.614-.366-1.328 1.296-2.345 2.681-4.641 4.524-6.605.547-.583 1.244-1.053 1.94-1.461.574-.337.878-.126.866.547-.023 1.336.644 2.212 1.647 3.024 1.684 1.361 3.59 1.543 5.608 1.325.534-.057 1.066-.202 1.58-.366 1.207-.386 1.956-1.243 2.28-2.442.18-.668.247-1.367.364-2.052.106-.613.337-.748.868-.417 1.094.68 2.067 1.506 2.868 2.527.55.702 1.12 1.387 1.687 2.076.87 1.058 1.525 2.241 2.054 3.5.143.342.26.69-.053.966-1.129.995-2.144 2.151-3.667 2.597-.901.263-.884.276-1.008-.612-.155-1.112-.331-2.221-.504-3.331-.024-.152-.09-.297-.126-.448-.081-.344-.145-.782-.604-.699-.483.088-.328.494-.27.849.211 1.298.352 2.609.591 3.901.204 1.102.529 2.181.76 3.279.167.794.272 1.601.4 2.403.083.519-.107.915-.579 1.151-.342.172-.685.365-1.05.465-1.32.357-2.668.489-4.036.439" fill="#ffdd09"/><path d="m37.474 106.014c.063.902-.349 1.469-1.126 1.716-1.252.399-2.504.867-3.793 1.064-2.295.352-4.612.6-6.929.739-1.184.071-2.389-.184-3.584-.3-1.003-.097-2.005-.211-3.007-.31-1.38-.137-2.636-.615-3.799-1.352-.131-.082-.258-.173-.375-.273-.773-.665-.862-.981-.548-1.92.012-.037.027-.073.044-.108 1.446-2.863 3.307-5.324 6.306-6.757.769-.368 1.286-.217 1.853.338.869.851 1.64 1.746 2.022 2.935.178.551.437 1.079.701 1.596.392.769.625 1.572.771 2.424.235 1.382.64 1.673 2.021 1.714 1.797.054 3.553-.256 5.304-.582 1.363-.253 2.708-.601 4.139-.924" fill="#fff"/><path d="m40.921 106.536c1.861.338 3.644.699 5.44.977 1.236.19 2.475.05 3.692-.246.464-.112.71-.426.845-.867.216-.703.457-1.398.678-2.1.58-1.849 1.559-3.453 2.964-4.792.224-.213.446-.448.714-.59.614-.326 1.267-.441 1.843.071.634.563 1.275 1.129 1.828 1.767.607.7 1.164 1.455 1.661 2.238.84 1.327 1.244 2.831 1.578 4.347.147.67-.013.839-.663 1.15-1.716.821-3.553 1.129-5.419 1.112-3.484-.032-6.97-.109-10.403-.857-1.168-.254-2.381-.297-3.56-.505-1.104-.196-1.237-.435-1.198-1.705" fill="#fff"/><path d="m37.075 99.803c.118.772.24 1.373.296 1.98.071.77.073 1.545.138 2.315.037.45-.104.773-.529.918-.876.299-1.745.648-2.646.841-1.36.291-2.738.508-4.119.674-.842.102-1.703.052-2.556.067-.474.009-.739-.27-.775-.7-.175-2.078-1.386-3.761-2.157-5.606-.242-.58-.79-1.041-1.233-1.525-.254-.276-.579-.487-1.032-.86 1.896-.415 3.503-.613 5.155-.113.958.29 1.96.428 2.942.638.303.065.601.147.904.208.366.074.524.233.429.647-.094.41-.147.845-.119 1.263.096 1.419 1.269 2.404 2.693 2.305.762-.053 1.317-.448 1.67-1.1.312-.574.569-1.177.939-1.952" fill="#ed1c24"/><path d="m60.341 81.784c.732.695 1.431 1.346 2.112 2.016.129.127.252.323.263.494.042.695.121 1.403.033 2.086-.116.898-.993 1.165-1.632.525-.501-.5-.843-1.113-.922-1.837-.03-.269.01-.549-.045-.811-.033-.151-.192-.276-.294-.412-.115.141-.321.278-.328.424-.023.459-.007.928.065 1.381.048.298.209.58.337.862.351.775.257 1.011-.518 1.254-.517.162-.819-.011-.855-.588-.053-.851-.028-1.706-.052-2.559-.01-.346-.034-.696-.103-1.034-.022-.105-.215-.245-.328-.243-.114.002-.293.14-.325.252-.074.255-.097.531-.102.799-.014.737.016 1.475-.021 2.211-.012.247-.111.543-.275.719-.353.379-.911.258-.973-.246-.097-.796-.057-1.611-.039-2.418.007-.343.117-.683.149-1.027.009-.093-.098-.276-.155-.278-.135-.004-.359.043-.394.13-.17.426-.336.865-.413 1.315-.059.343-.165.573-.498.702-.44.169-.656.056-.707-.421-.111-1.052.07-2.006.924-2.739.235-.202.445-.432.668-.648.283-.274.427-.568.093-.897-.274-.27-.27-.548-.04-.824.388-.463.291-.933.044-1.407-.838-1.616-1.668-3.237-2.526-4.842-.371-.694-.398-.679.242-1.03 1.295-.711 1.299-.714 2.035.576.749 1.312 1.516 2.616 2.221 3.951.289.548.627.641 1.216.575 1.555-.176 2.605.537 3.043 2.051.189.652.539 1.094 1.112 1.406.341.185.674.384 1.008.58.323.19.562.424.42.846-.146.434-.52.727-.995.589-.65-.188-1.371-.303-1.831-.884-.312-.392-.578-.82-.864-1.232-.316-.456-.467-.489-.948-.187-.098.062-.182.145-.275.216-.438.336-.898.448-1.395.125-.469-.304-.674-.741-.615-1.29.025-.226.109-.444.161-.668.039-.169.069-.339.103-.509-.194.068-.452.079-.571.214-.531.6-.55 1.582-.091 2.274.464.698 1.337 1.043 2.138.807.288-.085.552-.257.743-.349" fill="#edab7a"/><path d="m27.128 73.316c.996.41 1.847.76 2.789 1.147-.378.978-.893 1.877-1.374 2.795-.685 1.304-1.339 2.625-2.026 3.929-.184.349-.166.646.018.983.438.799.751 1.617.351 2.547-.056.13.053.374.153.519.241.35.522.673.789 1.005.483.601.737 1.263.536 2.298-.222-.621-.359-1.034-.519-1.437-.085-.213-.196-.421-.329-.607-.055-.078-.233-.156-.295-.123-.121.065-.293.22-.28.317.044.34.16.67.244 1.005.202.808.241 1.607-.138 2.381-.068.137-.137.288-.246.388-.105.096-.273.198-.394.178-.104-.016-.239-.191-.26-.312-.099-.572-.165-1.149-.239-1.725-.029-.23-.019-.471-.081-.691-.067-.244-.117-.631-.473-.506-.175.062-.351.425-.345.645.029.887.119 1.772.205 2.657.057.574-.205.976-.658 1.266-.458.292-.997.033-.995-.508.002-.656.119-1.312.141-1.969.015-.452-.058-.906-.072-1.359-.018-.615-.049-1.232-.006-1.843.013-.192.238-.376.382-.551.369-.447.753-.882 1.117-1.333.119-.148.272-.328.276-.496.004-.241-.114-.485-.18-.727-.166.119-.383.204-.491.362-.459.674-.867 1.385-1.593 1.824-.37.223-.34.583-.301.931.07.636-.011 1.238-.35 1.792-.492.801-1.022.981-1.861.563-.34-.169-.67-.403-.932-.677-.579-.606-.488-1.274.198-1.771.219-.158.471-.276.677-.45.543-.46 1.004-.965.994-1.756-.005-.344.053-.704.158-1.032.231-.723.562-1.407 1.455-1.449.52-.024.728-.289.904-.733.826-2.091 1.682-4.17 2.53-6.253.158-.39.329-.774.521-1.224" fill="#edab7a"/><path d="m15.793 45.833c-.369-.161-.681-.295-.992-.434-.805-.358-1.655-.4-2.512-.316-.768.077-1.243.572-1.575 1.23-.322.639-.147 1.177.383 1.843.117-.419.183-.688.269-.951.277-.848.745-1.228 1.631-1.177 1.699.1 3.004.913 3.925 2.339.105.162.157.358.267.515.387.555.437 1.037-.215 1.446-.153.096-.262.288-.351.458-.763 1.44-2.407 1.813-3.712 1.394-.911-.293-1.814-.709-2.61-1.236-1.962-1.298-2.387-3.245-1.981-5.421.117-.628.371-1.282.736-1.803 1.518-2.167 4.65-2.089 6.074.147.351.551.845 1.118.663 1.966" fill="#edab7a"/><path d="m63.928 45.348c.936-1.476 2.036-2.334 3.611-2.335 1.66-.002 3.486 1.017 3.743 2.922.206 1.528.194 3.005-.798 4.32-.505.668-1.097 1.188-1.89 1.478-1.648.602-3.28.788-4.987.15-.813-.305-1.4-.798-1.911-1.44-.23-.288-.28-.577-.091-.956.638-1.287 1.678-2.223 2.779-3.054.888-.67 1.961-.64 2.976-.138.346.171.66.411 1.014.562.137.058.418.012.498-.091.083-.107.057-.371-.021-.513-.106-.195-.285-.369-.469-.502-.912-.659-1.895-1.044-3.046-.73-.401.109-.809.189-1.408.327" fill="#edab7a"/><path d="m55.107 97.979c-2.167 1.626-3.608 3.636-4.343 6.144-.142.483-.316.958-.44 1.445-.137.546-.447.881-1.012.96-.995.14-1.967.347-2.997.092-1.275-.317-2.586-.489-3.881-.728-.19-.035-.379-.083-.561-.145-.959-.326-1.05-.412-1.017-1.4.029-.888.121-1.775.221-2.659.03-.259.151-.522.29-.748.06-.097.282-.157.409-.13.104.022.221.186.252.307.085.337.099.692.192 1.025.44 1.575 1.991 1.807 2.956 1.204 1.218-.761 2.179-1.798 2.156-3.367-.008-.575.193-.865.704-1.018.52-.156 1.026-.395 1.556-.47 1.384-.196 2.76-.396 4.081-.876.516-.188.98-.113 1.434.364" fill="#ed1c24"/><path d="m45.424 59.59c-.082.608-.119 1.072-.209 1.525-.349 1.756-1.39 2.697-3.193 2.822-.887.061-1.787.079-2.67-.005-1.432-.135-2.5-.98-3.384-2.04-.255-.306-.371-.764-.451-1.173-.108-.549.038-.687.592-.716.232-.013.465.005.697.001.322-.007.442.151.551.457.51 1.436 1.885 2.192 3.407 1.791 1.054-.277 2.062-.707 2.442-1.919.065-.208.327-.443.541-.498.512-.131 1.049-.161 1.677-.245" fill="#a5c7d0"/><path d="m26.109 69.001c.553.469 1.004.962 1.554 1.294 1.02.617 1.986 1.358 3.187 1.628.327.074.443.302.381.608-.076.372-.18.737-.271 1.102-1.986-.141-3.491-1.161-4.919-2.299-.737-.586-.672-1.428.068-2.333" fill="#a5c7d0"/><path d="m49.929 73.12c-.142-.112-.384-.213-.389-.326-.009-.191.129-.389.213-.581.011-.025.067-.038.104-.045 1.817-.338 2.999-1.664 4.32-2.773.118-.099.218-.22.34-.314.43-.329.772-.232.991.272.279.646.065 1.434-.614 1.787-1.022.531-2.081.997-3.147 1.438-.565.233-1.176.355-1.818.542" fill="#a5c7d0"/><path d="m46.421 100.214c.196.775-1.33 2.477-2.028 2.577-.307.044-.692-.057-.954-.227-.231-.15-.386-.469-.497-.745-.395-.984-.309-1.151.679-1.466.695-.221 1.387-.454 2.09-.644.594-.161.709-.058.71.505" fill="#fff"/><path d="m32.593 100.195c.015-.254.025-.408.034-.563.024-.391.248-.574.615-.495.793.17 1.585.353 2.361.586.138.041.322.399.27.521-.206.494-.42 1.024-.772 1.411-.686.752-2.153.275-2.427-.752-.069-.257-.063-.536-.081-.708" fill="#fff"/><path d="m22.808 89.25c.181.78.016 1.571-.261 2.323-.304.827-.898.952-1.487.317-.3-.326-.535-.752-.674-1.175-.099-.301-.083-.723.065-.99.082-.148.543-.07.827-.126.474-.094.944-.214 1.53-.349" fill="#edab7a"/><path d="m42.235 60.075c-.845 1.301-2.387 1.731-3.504 1.065-.183-.109-.347-.309-.435-.505-.131-.293-.047-.553.335-.557 1.155-.009 2.312-.003 3.604-.003" fill="#edab7a"/><g fill="#231f20"><path d="m49.101 47.486c-.516-.398-.925-.711-1.331-1.03-.44-.345-.898-.604-1.484-.388.572 3.293-1.28 5.25-3.206 6.36-3.754 2.164-8.445.856-10.946-2.139-.098-.118-.234-.245-.253-.382-.033-.244-.09-.598.041-.728.265-.264.447.044.634.246 1.87 2.022 4.163 3.022 6.941 2.897 3.058-.139 5.704-2.533 6.095-5.557.018-.143-.011-.292-.017-.439-.176.014-.372-.018-.523.05-.244.11-.45.307-.692.423-.11.052-.272-.004-.409-.011.01-.143-.028-.317.04-.426.738-1.194 2.751-1.594 3.934-.794.679.459.986.924 1.176 1.918"/><path d="m40.408 44.665c-1.049.828-2.403.848-3.427.165-2.22-1.482-2.2-5.45.45-6.709 1.204-.572 2.55-.295 3.351.743.091.119.063.331.091.499-.172-.017-.362.007-.512-.06-.314-.139-.588-.395-.911-.483-1.376-.372-2.728.431-3.001 1.844-.4 2.071.639 3.581 2.443 3.761.458.045.91.142 1.516.24"/><path d="m32.389 36.642c-.055-.806.147-1.537.639-2.179.653-.853 1.632-.785 2.176.143.613 1.046.153 3.124-.841 3.801-.806.549-1.764.136-1.918-.839-.049-.304-.039-.617-.056-.926"/><path d="m42.929 35.247c0-.059-.018-.332.004-.602.045-.542.279-.995.822-1.156.549-.163 1.087-.068 1.502.373.414.439.674.974.669 1.571-.006.574-.092 1.156-.218 1.717-.102.459-.325.881-.891.949-.552.065-.995-.126-1.327-.56-.47-.612-.643-1.315-.561-2.292"/><path d="m48.32 30.466c-.073.101-.193.268-.313.434-.143-.107-.32-.189-.42-.328-.134-.184-.208-.411-.306-.621-.453-.985-1.141-1.732-2.164-2.143-.143-.057-.3-.102-.418-.196-.109-.087-.269-.294-.24-.338.096-.142.253-.273.414-.334.13-.049.313-.024.451.026 1.472.538 2.459 1.55 2.941 3.043.035.108.029.229.055.457"/><path d="m35.404 55.112c.244.073.501.115.729.223 1.321.627 2.651.799 4.024.158.103-.048.264.026.398.043-.03.145-.012.343-.1.423-.252.228-.522.467-.829.596-1.447.608-3.321.036-4.222-1.443"/><path d="m29.957 31.283c-.129-.116-.266-.18-.279-.263-.028-.181-.052-.402.025-.555.473-.934 1.041-1.807 1.86-2.484.118-.097.256-.177.396-.239.291-.128.625-.246.783.135.042.1-.189.374-.35.488-.906.64-1.534 1.511-2.106 2.435-.096.154-.204.301-.329.483"/></g><path d="m29.405 122.207h5.488v-1.834h-3.402v-8.526h-2.086z" fill="#fff"/><path d="m42.971 114.521h-1.834v4.242c0 1.092-.448 1.96-1.764 1.96-1.302.014-1.68-.882-1.68-2.016v-4.186h-1.834v4.648c0 1.344.476 3.262 2.996 3.276 1.386.014 2.072-.658 2.394-1.26v1.022h1.722z" fill="#fff"/><path d="m44.791 113.485h1.834v-1.638h-1.834zm0 8.722h1.834v-7.686h-1.834z" fill="#fff"/><path d="m53.569 116.593c-.154-1.848-1.694-2.31-2.73-2.31-1.484 0-2.758.938-2.758 2.45.014 1.106.854 1.68 1.89 2.002 1.414.49 1.988.672 1.988 1.33.014.518-.476.896-1.05.896-.35 0-1.064-.168-1.134-.994h-1.834c.14 1.862 1.75 2.478 2.94 2.478 1.61 0 2.94-1.008 2.912-2.59-.014-1.652-1.344-2.016-2.576-2.352-.728-.21-1.288-.476-1.302-.966 0-.378.294-.77.91-.77.714 0 .924.42.938.826z" fill="#fff"/></g></svg>