<?xml version="1.0" encoding="UTF-8" standalone="no"?><!DOCTYPE svg PUBLIC "-//W3C//DTD SVG 1.1//EN" "http://www.w3.org/Graphics/SVG/1.1/DTD/svg11.dtd"><svg width="100%" height="100%" viewBox="0 0 85 131" version="1.1" xmlns="http://www.w3.org/2000/svg" xmlns:xlink="http://www.w3.org/1999/xlink" xml:space="preserve" xmlns:serif="http://www.serif.com/" style="fill-rule:evenodd;clip-rule:evenodd;stroke-linejoin:round;stroke-miterlimit:2;"><g><path d="M84.052,118.92c0,6.363 -18.811,11.521 -42.014,11.521c-23.204,0 -42.014,-5.158 -42.014,-11.521c0,-6.362 18.81,-11.521 42.014,-11.521c23.203,0 42.014,5.159 42.014,11.521" style="fill:#5dbc61;fill-rule:nonzero;"/><path d="M31.224,23.435c0.015,0 0.031,0 0.046,0.001l0,-1.288l-0.046,0l0,1.287Zm19.399,57.776c0.356,-0.565 0.64,-0.955 0.854,-1.379c0.093,-0.183 0.112,-0.457 0.05,-0.654c-0.096,-0.306 -0.378,-0.223 -0.607,-0.146c-0.299,0.1 -0.592,0.217 -0.893,0.329c0.009,0.16 -0.012,0.286 0.026,0.391c0.164,0.45 0.346,0.892 0.57,1.459m-20.818,-13.082l0.284,-0.062c0.106,-2.444 0.666,-4.856 0.517,-7.39c-1.456,1.294 -2.84,2.524 -4.316,3.834c0.634,0.561 1.298,1.084 1.881,1.685c0.587,0.604 1.093,1.285 1.634,1.933m6.738,-14.271c-2.143,-0.092 -2.145,-0.091 -1.72,2.027c0.056,0.278 0.155,0.547 0.207,0.825c0.07,0.373 0.313,0.585 0.651,0.641c1.254,0.205 2.511,0.167 3.759,-0.072c0.514,-0.098 0.749,-0.431 0.743,-0.958c-0.007,-0.691 0.021,-1.383 0.006,-2.074c-0.016,-0.741 -0.116,-0.824 -0.877,-0.739c-0.924,0.104 -1.846,0.232 -2.769,0.35m-7.063,34.208c1.936,0.111 3.721,0.546 5.56,0.374c0.648,-0.06 1.295,-0.135 1.943,-0.18c0.996,-0.071 0.997,-0.062 1.005,-1.04c0.002,-0.163 -0.011,-0.327 0.002,-0.488c0.036,-0.462 -0.158,-0.658 -0.634,-0.659c-0.649,0 -1.303,-0.022 -1.948,-0.097c-1.572,-0.184 -3.142,-0.399 -4.71,-0.613c-0.391,-0.053 -0.634,0.082 -0.722,0.465c-0.153,0.673 -0.299,1.348 -0.496,2.238m21.923,-1.962c-0.255,-0.524 -0.461,-0.915 -0.638,-1.317c-0.338,-0.767 -0.339,-0.796 -1.15,-0.574c-2.431,0.666 -4.913,1.059 -7.406,1.366c-0.877,0.107 -0.86,0.38 -0.693,1.015c0.107,0.401 0.116,0.918 0.769,0.914c1.665,-0.012 3.33,0.005 4.995,0.002c0.159,0 0.323,-0.04 0.475,-0.094c1.179,-0.419 2.357,-0.846 3.648,-1.312m-4.592,-20.725c-0.089,0.018 -0.178,0.037 -0.267,0.055c0.267,1.007 0.509,2.023 0.815,3.019c0.12,0.391 0.178,0.726 -0.163,0.988c-0.444,0.343 -0.394,0.763 -0.256,1.209c0.279,0.892 0.557,1.784 0.848,2.671c0.467,1.425 0.907,2.861 1.431,4.265c0.371,0.995 0.425,0.981 1.469,0.63c0.175,-0.059 0.476,-0.198 0.468,-0.274c-0.096,-0.908 0.388,-1.79 -0.057,-2.736c-0.896,-1.912 -1.659,-3.886 -2.497,-5.826c-0.58,-1.341 -1.193,-2.668 -1.791,-4.001m13.777,43.825c-1.715,-2.241 -3.741,-3.657 -6.397,-3.941c-1.866,-0.199 -3.753,-0.046 -5.584,0.397c-1.324,0.319 -2.533,0.887 -3.33,2.097c-0.357,0.542 -0.809,1.022 -1.182,1.555c-0.292,0.418 -0.569,0.859 -0.624,1.394c1.485,0.228 1.439,0.197 2.165,-0.902c0.944,-1.43 2.164,-2.573 3.918,-2.904c1.82,-0.344 3.645,-0.279 5.458,0.136c1.348,0.308 2.56,0.831 3.383,2.005c0.303,0.432 0.685,0.537 1.17,0.403c0.273,-0.074 0.549,-0.13 1.023,-0.24m-15.672,-20.921c0.72,2.568 1.393,4.983 2.075,7.397c0.264,0.937 0.556,1.866 0.815,2.804c0.093,0.342 0.254,0.479 0.611,0.373c0.192,-0.058 0.402,-0.061 0.599,-0.108c1.708,-0.411 1.785,-0.5 1.266,-2.199c-0.793,-2.595 -1.828,-5.125 -2.044,-7.872c-0.011,-0.14 -0.231,-0.373 -0.36,-0.377c-0.963,-0.033 -1.927,-0.018 -2.962,-0.018m6.672,10.459c-1.235,0.355 -2.403,0.66 -3.55,1.032c-0.521,0.169 -0.627,0.467 -0.383,0.959c0.176,0.353 0.452,0.663 0.718,0.961c0.159,0.178 0.417,0.27 0.571,0.45c0.104,0.122 0.106,0.331 0.153,0.501c-0.15,0.02 -0.337,0.108 -0.443,0.049c-0.422,-0.237 -0.841,-0.492 -1.219,-0.793c-0.321,-0.256 -0.582,-0.22 -0.866,0.017c-0.296,0.246 -0.326,0.549 -0.161,0.874c0.072,0.143 0.181,0.269 0.277,0.399c0.293,0.39 0.588,0.779 0.884,1.167c0.617,0.808 0.647,0.877 1.594,0.482c0.938,-0.39 1.885,-0.449 2.865,-0.429c0.529,0.01 1.058,-0.012 1.587,0.004c0.421,0.013 0.55,-0.179 0.571,-0.584c0.039,-0.727 0.148,-1.45 0.215,-2.176c0.162,-1.734 -0.008,-1.889 -1.739,-1.612c-0.033,0.005 -0.06,0.054 -0.005,0.002c0,0.679 0.017,1.277 -0.016,1.872c-0.004,0.108 -0.201,0.277 -0.32,0.287c-0.111,0.009 -0.278,-0.132 -0.345,-0.25c-0.075,-0.133 -0.072,-0.313 -0.089,-0.475c-0.095,-0.842 -0.185,-1.685 -0.299,-2.737m-16.958,-9.499c-0.091,0 -0.376,-0.009 -0.661,0.001c-0.792,0.028 -0.794,0.031 -0.814,0.818c-0.036,1.465 -0.04,2.932 -0.113,4.394c-0.109,2.191 -0.287,4.379 -0.394,6.57c-0.054,1.102 0.193,1.292 1.276,1.191c0.745,-0.07 1.168,-0.687 1.747,-1.036c0.095,-0.058 0.099,-0.299 0.108,-0.457c0.087,-1.582 0.165,-3.164 0.248,-4.745c0.101,-1.948 0.184,-3.898 0.314,-5.844c0.064,-0.978 0.103,-0.976 -0.907,-0.94c-0.203,0.007 -0.406,0.023 -0.804,0.048m-9.289,26.558c0.002,-0.052 0.003,-0.103 0.005,-0.155c1.386,0 2.776,0.056 4.159,-0.012c2.074,-0.102 4.144,-0.279 6.215,-0.45c0.604,-0.051 1.201,-0.199 1.803,-0.29c0.724,-0.107 1.012,-0.593 1.136,-1.246c0.102,-0.532 -0.044,-0.747 -0.557,-0.597c-1.957,0.574 -3.958,0.45 -5.952,0.445c-1.305,-0.003 -2.611,-0.036 -3.915,-0.074c-1.122,-0.032 -1.329,-0.22 -1.495,-1.337c-0.096,-0.643 -0.19,-1.29 -0.229,-1.939c-0.078,-1.286 -0.654,-2.313 -1.493,-3.26c-0.488,-0.551 -0.969,-0.605 -1.622,-0.397c-2.056,0.655 -3.648,1.983 -5.02,3.557c-0.806,0.925 -1.313,2.06 -1.185,3.37c0.097,1.002 0.907,1.949 1.81,2.01c2.112,0.14 4.226,0.252 6.34,0.375m-0.111,-9.791c1.724,1.446 2.201,3.256 2.252,5.237c0.007,0.242 0.038,0.488 0.096,0.723c0.084,0.349 0.291,0.537 0.689,0.549c1.384,0.045 2.768,0.1 4.148,0.189c1.968,0.128 3.892,-0.196 5.824,-0.484c0.467,-0.07 0.518,-0.321 0.453,-0.676c-0.271,-1.515 -0.897,-2.878 -1.907,-4.034c-0.404,-0.463 -0.5,-0.851 -0.256,-1.419c0.369,-0.858 0.698,-1.738 0.967,-2.632c0.407,-1.357 0.054,-1.687 -1.345,-1.321c-0.232,0.06 -0.502,0.128 -0.661,0.287c-0.604,0.597 -1.311,0.772 -2.128,0.669c-0.38,-0.049 -0.539,0.123 -0.397,0.51c0.195,0.535 0.402,1.066 0.562,1.611c0.03,0.102 -0.101,0.321 -0.212,0.375c-0.114,0.055 -0.351,0.027 -0.434,-0.06c-0.162,-0.17 -0.289,-0.394 -0.369,-0.618c-0.288,-0.803 -0.569,-1.61 -0.815,-2.427c-0.28,-0.923 -0.398,-1.034 -1.335,-0.909c-0.3,0.04 -0.587,0.169 -0.971,0.285c0.718,1.278 1.55,2.378 1.928,3.791c-2.006,-0.078 -3.956,-0.261 -6.089,0.354m22.303,9.248c1.483,0.02 2.931,-0.152 4.363,-0.517c0.589,-0.151 1.205,-0.19 1.801,-0.321c2.183,-0.484 4.362,-0.981 6.542,-1.481c0.631,-0.144 0.981,-0.547 1.008,-1.203c0.012,-0.285 0.028,-0.572 0.003,-0.854c-0.06,-0.646 -0.18,-0.717 -0.848,-0.649c-0.485,0.05 -0.973,0.057 -1.461,0.087c-0.484,0.029 -0.866,-0.114 -1.132,-0.557c-0.704,-1.173 -1.824,-1.741 -3.117,-1.915c-1.204,-0.163 -2.427,-0.181 -3.643,-0.258c-1.934,-0.121 -3.366,0.804 -4.512,2.239c-0.373,0.466 -0.478,1.256 -0.928,1.522c-0.499,0.294 -1.257,0.129 -1.892,0.227c-0.193,0.029 -0.472,0.239 -0.507,0.408c-0.139,0.674 -0.241,1.363 -0.273,2.049c-0.033,0.711 0.112,0.851 0.829,0.919c1.254,0.118 2.511,0.204 3.767,0.304m-16.648,-60.406c-0.563,0.462 -0.94,0.76 -1.303,1.074c-0.523,0.452 -1.019,0.939 -1.557,1.373c-2.032,1.64 -3.991,3.349 -5.67,5.367c-1.225,1.473 -1.284,1.992 -0.11,3.51c1.103,1.424 2.379,2.671 3.845,3.729c0.658,0.476 1.257,1.034 1.873,1.566c0.273,0.235 0.375,0.524 0.185,0.87c-0.078,0.142 -0.149,0.291 -0.201,0.444c-0.568,1.66 0.159,3.134 1.814,3.693c0.256,0.086 0.505,0.191 0.804,0.305c-0.607,0.485 -0.882,0.566 -1.458,0.411c-0.314,-0.084 -0.608,-0.245 -0.924,-0.32c-0.451,-0.105 -0.863,0.162 -1.192,0.66c-0.198,0.298 -0.125,0.541 0.077,0.773c1.117,1.282 4.145,1.586 5.097,-0.779c0.713,-1.773 0.577,-3.582 0.319,-5.406c-0.099,-0.7 -0.369,-1.154 -1.177,-1.279c-0.602,-0.093 -1.328,-0.268 -1.235,-1.206c0.011,-0.122 -0.27,-0.27 -0.41,-0.411c-0.314,-0.319 -0.675,-0.606 -0.928,-0.968c-0.777,-1.115 -1.773,-2.008 -2.764,-2.917c-0.474,-0.434 -0.846,-0.982 -1.241,-1.496c-0.078,-0.102 -0.048,-0.287 -0.068,-0.434c0.181,0.018 0.443,-0.033 0.528,0.066c0.361,0.423 0.636,0.353 1.008,-0.001c0.912,-0.868 1.861,-1.697 2.79,-2.548c0.539,-0.495 1.262,-0.914 1.545,-1.53c0.301,-0.658 0.189,-1.507 0.24,-2.275c0.046,-0.676 0.069,-1.354 0.113,-2.271m13.312,-1.623c-0.06,0.035 -0.122,0.069 -0.183,0.104c0.244,1.389 0.455,2.785 0.744,4.165c0.224,1.069 0.42,2.174 0.85,3.166c2.059,4.747 4.186,9.463 6.312,14.179c0.246,0.545 0.384,1.003 0.158,1.615c-0.239,0.649 -0.188,1.373 0.106,2.031c0.368,0.817 0.31,1.474 -0.31,2.227c-0.709,0.862 -1.005,1.929 -0.304,3.168c0.214,-0.64 0.384,-1.161 0.563,-1.68c0.091,-0.269 0.161,-0.558 0.313,-0.79c0.083,-0.128 0.317,-0.16 0.482,-0.235c0.064,0.17 0.203,0.351 0.178,0.506c-0.051,0.317 -0.202,0.618 -0.291,0.93c-0.202,0.705 -0.383,1.415 -0.588,2.117c-0.136,0.468 -0.038,0.881 0.222,1.275c0.247,0.374 0.654,0.484 1.178,0.307c0.443,-0.15 0.442,-0.447 0.4,-0.87c-0.101,-1.01 -0.111,-2.03 -0.146,-3.046c-0.006,-0.158 0.036,-0.323 0.085,-0.476c0.019,-0.061 0.12,-0.144 0.175,-0.138c0.109,0.012 0.277,0.054 0.307,0.129c0.088,0.218 0.157,0.458 0.167,0.692c0.026,0.611 -0.059,1.236 0.041,1.831c0.12,0.712 0.33,1.422 0.609,2.089c0.22,0.528 0.695,0.667 1.092,0.475c0.368,-0.177 0.592,-0.699 0.469,-1.154c-0.053,-0.194 -0.173,-0.369 -0.239,-0.56c-0.213,-0.616 -0.458,-1.225 -0.608,-1.855c-0.11,-0.468 -0.101,-0.967 -0.118,-1.453c-0.003,-0.083 0.125,-0.23 0.204,-0.239c0.086,-0.01 0.243,0.089 0.271,0.174c0.116,0.346 0.164,0.717 0.297,1.056c0.339,0.868 0.659,1.75 1.089,2.574c0.233,0.448 0.613,0.916 1.263,0.744c0.369,-0.097 0.613,-0.889 0.507,-1.522c-0.007,-0.04 -0.022,-0.079 -0.035,-0.117c-0.35,-1.066 -0.441,-2.241 -1.389,-3.049c-0.236,-0.201 -0.395,-0.526 -0.51,-0.825c-0.236,-0.609 -0.604,-0.944 -1.292,-0.83c-0.159,0.027 -0.328,0.008 -0.489,-0.011c-2.049,-0.244 -2.331,-1.706 -2.012,-3.179c0.036,-0.168 0.348,-0.398 0.52,-0.388c0.351,0.019 0.22,0.319 0.197,0.561c-0.143,1.591 0.265,2.068 1.844,2.183c0.122,0.009 0.25,0.033 0.366,0.008c0.856,-0.183 1.276,0.242 1.539,1.003c0.13,0.376 0.366,0.737 0.627,1.041c0.288,0.334 0.626,0.654 1.005,0.874c0.641,0.371 1.158,0.082 1.161,-0.652c0.002,-0.384 -0.108,-0.814 -0.3,-1.145c-1.027,-1.758 -2.314,-3.232 -4.368,-3.843c-0.733,-0.218 -1.224,-0.696 -1.542,-1.438c-0.863,-2.023 -1.809,-4.009 -2.704,-6.019c-1.141,-2.568 -2.341,-5.115 -3.373,-7.728c-0.996,-2.52 -2.332,-4.839 -3.762,-7.119c-0.202,-0.323 -0.515,-0.577 -0.778,-0.863m-1.101,-0.468c-0.635,0.182 -1.094,0.356 -1.569,0.437c-0.47,0.08 -0.592,0.333 -0.586,0.758c0.011,0.774 0.02,1.551 -0.016,2.324c-0.056,1.197 -0.216,1.41 -1.352,1.7c-1.283,0.329 -2.592,0.256 -3.889,0.098c-0.757,-0.092 -1.258,-0.534 -1.37,-1.338c-0.078,-0.563 -0.209,-1.121 -0.258,-1.687c-0.103,-1.2 -0.088,-1.201 -1.27,-1.38c-0.041,-0.006 -0.08,-0.021 -0.12,-0.027c-0.931,-0.137 -0.987,-0.096 -1.014,0.816c-0.083,2.85 -0.112,5.702 -0.261,8.549c-0.103,1.946 -0.346,3.887 -0.576,5.825c-0.119,1.003 -0.097,1.187 0.875,1.299c1.897,0.217 3.802,0.394 5.708,0.501c2.177,0.122 4.3,-0.34 6.393,-0.861c0.926,-0.231 1.933,-0.341 2.77,-1.048c-1.545,-5.177 -2.686,-10.453 -3.465,-15.966m-10.059,18.369c0.742,1.553 0.619,2.959 0.522,4.326c-0.111,1.562 -0.544,3.047 -1.915,4.068c-0.233,0.174 -0.446,0.478 -0.513,0.759c-0.272,1.147 -0.511,2.303 -0.709,3.465c-0.139,0.813 -0.049,0.939 0.763,1.034c1.74,0.203 3.483,0.366 5.227,0.531c0.364,0.035 0.734,-0.003 1.102,0.01c0.431,0.015 0.681,-0.124 0.717,-0.609c0.063,-0.852 0.195,-1.698 0.257,-2.55c0.031,-0.437 0.114,-0.971 -0.09,-1.293c-0.147,-0.231 -0.736,-0.168 -1.12,-0.269c-0.14,-0.038 -0.256,-0.17 -0.384,-0.259c0.141,-0.117 0.276,-0.327 0.421,-0.335c0.936,-0.049 1.875,-0.08 2.813,-0.064c0.651,0.012 0.647,0.066 0.419,0.773c-0.073,0.223 -0.112,0.486 -0.068,0.711c0.207,1.037 0.454,2.065 0.675,3.099c0.074,0.346 0.241,0.462 0.605,0.402c2.529,-0.422 5.081,-0.724 7.548,-1.459c0.794,-0.237 0.89,-0.314 0.618,-1.12c-0.597,-1.772 -1.277,-3.516 -1.905,-5.277c-0.179,-0.504 -0.451,-0.779 -1.018,-0.888c-1.084,-0.207 -1.918,-0.891 -2.606,-1.72c-0.277,-0.334 -0.435,-0.774 -0.604,-1.183c-0.036,-0.086 0.097,-0.277 0.198,-0.368c0.043,-0.039 0.243,0.023 0.307,0.096c0.13,0.152 0.21,0.346 0.322,0.516c0.513,0.773 1.247,1.277 2.072,1.659c0.135,0.063 0.344,0.102 0.452,0.039c0.087,-0.051 0.13,-0.289 0.095,-0.418c-0.391,-1.452 -0.789,-2.902 -1.228,-4.34c-0.043,-0.141 -0.39,-0.303 -0.562,-0.272c-0.598,0.11 -1.178,0.316 -1.77,0.459c-1.826,0.443 -3.665,0.722 -5.552,0.802c-1.023,0.043 -2.026,0.1 -3.038,-0.07c-0.593,-0.1 -1.195,-0.15 -2.051,-0.255m19.253,-51.887c-0.11,2.16 -0.166,4.115 -0.326,6.062c-0.12,1.456 -0.336,2.908 -0.588,4.348c-0.151,0.86 -0.385,1.003 -1.247,1.037c-0.734,0.03 -1.47,0.008 -2.204,0.009l-1.58,0c0.346,0.568 0.615,0.97 0.837,1.397c0.055,0.107 -0.006,0.4 -0.073,0.42c-0.162,0.049 -0.425,0.06 -0.525,-0.038c-0.229,-0.224 -0.4,-0.513 -0.565,-0.793c-0.431,-0.731 -1.088,-1.084 -1.909,-1.15c-1.379,-0.111 -2.759,-0.205 -4.138,-0.299c-0.91,-0.062 -1.003,-0.127 -1.235,-1.03c-0.535,-2.097 -0.805,-4.236 -0.988,-6.386c-0.139,-1.621 -0.25,-3.244 -0.373,-4.866c-0.158,1.228 -0.305,2.463 -0.353,3.702c-0.097,2.526 -0.136,5.054 -0.209,7.582c-0.034,1.209 -0.117,1.326 -1.248,1.233c-1.011,-0.084 -2.014,-0.281 -3.018,-0.447c-0.536,-0.088 -0.887,-0.403 -0.972,-0.957c-0.082,-0.521 -0.162,-1.044 -0.211,-1.57c-0.086,-0.91 -0.149,-1.824 -0.221,-2.736c-0.185,0.411 -0.213,0.815 -0.219,1.218c-0.017,1.183 -0.021,2.366 -0.037,3.549c-0.019,1.343 -0.06,1.317 -1.357,1.457c-1.429,0.155 -2.842,0.239 -4.259,-0.05c-0.698,-0.142 -1.176,0.161 -1.529,0.744c-0.167,0.276 -0.363,0.536 -0.561,0.791c-0.041,0.051 -0.187,0.093 -0.218,0.065c-0.08,-0.072 -0.188,-0.201 -0.169,-0.278c0.069,-0.272 0.148,-0.556 0.294,-0.791c0.296,-0.477 0.727,-0.883 0.045,-1.432c-0.176,-0.142 -0.123,-0.617 -0.109,-0.936c0.071,-1.628 0.12,-3.259 0.262,-4.882c0.165,-1.904 0.408,-3.802 0.636,-5.699c0.105,-0.874 0.255,-1.741 0.425,-2.882c-0.295,0.344 -0.422,0.45 -0.496,0.585c-0.888,1.613 -1.585,3.298 -2.026,5.095c-0.7,2.852 -1.149,5.744 -1.436,8.662c-0.048,0.481 -0.179,0.736 -0.708,0.782c-1.297,0.114 -2.588,0.292 -3.885,0.417c-0.716,0.069 -0.759,0.043 -0.781,0.763c-0.055,1.794 -0.041,3.59 -0.111,5.382c-0.044,1.121 0.176,2.188 0.467,3.25c0.899,3.278 2.946,5.806 5.471,7.929c1.633,1.374 3.698,2.054 5.709,2.73c1.036,0.349 2.134,0.508 3.195,0.786c2.054,0.538 4.112,0.974 6.259,0.97c1.24,-0.003 2.422,-0.358 3.631,-0.428c2.386,-0.137 4.524,-1.109 6.625,-2.025c1.682,-0.733 3.259,-1.8 4.71,-3.031c1.507,-1.279 2.836,-2.691 3.971,-4.281c1.019,-1.427 1.573,-3.069 1.423,-4.828c-0.165,-1.942 -0.487,-3.873 -0.766,-5.805c-0.199,-1.379 -0.214,-1.403 -1.638,-1.585c-0.49,-0.063 -0.746,-0.258 -0.827,-0.723c-0.063,-0.36 -0.169,-0.717 -0.186,-1.079c-0.077,-1.749 -0.143,-3.499 -0.187,-5.249c-0.039,-1.505 0.019,-3.017 -0.472,-4.709m-23.779,60.794c-0.848,-0.154 -1.485,-0.579 -2.028,-1.152c-0.58,-0.614 -0.638,-1.204 -0.119,-1.859c0.298,-0.375 0.695,-0.672 1.098,-1.05c-0.553,-1.068 -0.713,-2.207 -0.296,-3.385c0.126,-0.358 0.022,-0.643 -0.26,-0.868c-0.478,-0.382 -0.958,-0.762 -1.448,-1.128c-1.644,-1.23 -3.077,-2.659 -4.278,-4.332c-0.901,-1.257 -0.765,-2.713 0.162,-3.704c1.28,-1.368 2.544,-2.762 3.933,-4.014c1.665,-1.5 3.455,-2.86 5.186,-4.285c0.153,-0.126 0.317,-0.272 0.397,-0.445c0.135,-0.288 0.095,-0.573 -0.269,-0.677c-1.056,-0.299 -2.101,-0.665 -3.177,-0.861c-2.416,-0.439 -4.541,-1.546 -6.634,-2.736c-0.418,-0.237 -0.771,-0.603 -1.119,-0.944c-0.582,-0.572 -1.136,-1.172 -1.702,-1.76c-0.912,-0.949 -1.671,-2.001 -2.209,-3.21c-0.169,-0.38 -0.288,-0.817 -0.772,-1.116c-0.018,0.335 -0.039,0.574 -0.043,0.814c-0.04,2.17 0.302,4.305 0.664,6.431c0.477,2.807 1.038,5.6 1.546,8.402c0.097,0.535 0.115,1.086 0.195,1.891c-0.52,-0.484 -0.606,-0.865 -0.694,-1.249c-0.561,-2.459 -1.196,-4.904 -1.665,-7.381c-0.422,-2.235 -0.861,-4.498 -0.936,-6.761c-0.115,-3.459 0.076,-6.928 0.139,-10.392c0.016,-0.816 0.032,-1.632 0.07,-2.447c0.023,-0.485 -0.121,-0.773 -0.659,-0.813c-0.653,-0.049 -0.809,-0.004 -0.932,0.65c-0.174,0.918 -0.347,1.848 -0.382,2.778c-0.112,2.974 -0.144,5.951 -0.242,8.926c-0.035,1.056 -0.164,2.11 -0.271,3.163c-0.017,0.172 -0.146,0.333 -0.223,0.499c-0.2,-0.336 -0.256,-0.64 -0.255,-0.944c0.005,-2.244 0.033,-4.488 0.031,-6.732c-0.004,-2.615 0.133,-5.214 0.74,-7.769c0.081,-0.338 0.152,-0.605 -0.227,-0.836c-0.159,-0.098 -0.203,-0.383 -0.299,-0.583c0.221,-0.058 0.439,-0.141 0.664,-0.167c0.199,-0.023 0.41,0 0.61,0.033c2.033,0.343 4.061,0.233 6.094,-0.02c0.482,-0.06 0.705,-0.167 0.769,-0.696c0.188,-1.575 0.443,-3.142 0.675,-4.712c0.55,-3.721 1.805,-7.181 3.854,-10.344c0.175,-0.272 0.353,-0.583 0.611,-0.749c0.198,-0.126 0.551,-0.123 0.781,-0.035c0.111,0.042 0.185,0.44 0.125,0.628c-0.546,1.716 -0.85,3.476 -1.029,5.261c-0.224,2.226 -0.441,4.453 -0.654,6.681c-0.066,0.689 -0.115,1.379 -0.165,2.07c-0.024,0.325 -0.045,0.651 -0.049,0.977c-0.004,0.311 0.118,0.522 0.448,0.636c1.659,0.572 3.341,0.688 5.063,0.358c0.437,-0.083 0.606,-0.278 0.619,-0.73c0.039,-1.425 0.152,-2.849 0.18,-4.275c0.036,-1.882 0.352,-3.724 0.683,-5.568c0.287,-1.6 0.549,-3.206 0.832,-4.807c0.042,-0.237 0.11,-0.483 0.229,-0.687c0.06,-0.103 0.263,-0.163 0.403,-0.166c0.091,-0.001 0.24,0.12 0.266,0.214c0.054,0.19 0.066,0.401 0.053,0.601c-0.085,1.34 -0.22,2.679 -0.265,4.021c-0.095,2.811 -0.154,5.623 -0.207,8.435c-0.008,0.443 0.101,0.887 0.143,1.332c0.046,0.51 0.26,0.803 0.822,0.861c0.924,0.096 1.841,0.259 2.885,0.413c0.021,-0.524 0.043,-0.961 0.055,-1.398c0.081,-2.892 0.15,-5.785 0.242,-8.677c0.06,-1.848 0.55,-3.618 1.046,-5.383c0.055,-0.194 0.136,-0.393 0.256,-0.551c0.084,-0.11 0.27,-0.224 0.387,-0.204c0.125,0.022 0.282,0.183 0.319,0.313c0.075,0.27 0.106,0.558 0.107,0.839c0.001,0.448 -0.074,0.897 -0.052,1.343c0.138,2.848 0.242,5.699 0.464,8.541c0.103,1.332 0.45,2.644 0.67,3.969c0.085,0.514 0.329,0.774 0.875,0.821c1.216,0.106 2.426,0.33 3.644,0.38c1.753,0.072 3.512,0.045 5.267,0.033c1.293,-0.008 1.185,0.243 1.419,-1.252c0.294,-1.886 0.419,-3.803 0.527,-5.712c0.139,-2.441 0.182,-4.888 0.281,-7.331c0.017,-0.403 0.058,-0.909 0.595,-0.912c0.5,-0.003 0.448,0.518 0.508,0.849c0.233,1.28 0.396,2.574 0.647,3.851c0.326,1.647 0.493,3.3 0.46,4.979c-0.02,1.101 -0.021,2.203 0.006,3.304c0.014,0.567 0.144,1.132 0.157,1.699c0.015,0.605 0.29,0.86 0.878,0.923c0.764,0.083 1.521,0.229 2.28,0.354c0.252,0.041 0.653,-0.096 0.604,0.371c-0.038,0.364 -0.372,0.375 -0.662,0.391c-0.082,0.004 -0.164,-0.006 -0.245,0.004c-0.554,0.072 -0.643,0.158 -0.526,0.688c0.672,3.061 1.225,6.141 1.478,9.27c0.148,1.824 0.369,3.647 0.419,5.474c0.063,2.323 -0.011,4.65 -0.038,6.975c-0.002,0.169 -0.104,0.336 -0.217,0.679c-0.588,-0.921 -0.716,-1.746 -0.716,-2.61c-0.002,-2.529 0.006,-5.058 -0.021,-7.588c-0.006,-0.599 -0.132,-1.197 -0.225,-1.973c-3.025,5.089 -7.387,8.224 -12.631,10.195c0.492,0.535 0.989,0.972 1.361,1.498c1.437,2.036 2.702,4.169 3.651,6.487c0.88,2.149 1.798,4.284 2.757,6.399c1.161,2.561 2.375,5.098 3.585,7.637c0.169,0.355 0.374,0.794 0.686,0.962c0.834,0.447 1.737,0.766 2.709,1.177c-0.487,-2.969 -0.871,-5.8 -0.517,-8.671c0.093,0.562 0.08,1.135 0.169,1.693c0.39,2.451 0.794,4.901 1.229,7.344c0.162,0.908 0.413,1.344 1.473,1.168c0.482,-0.08 0.975,-0.091 1.459,-0.161c0.412,-0.059 0.664,-0.282 0.637,-0.742c-0.012,-0.202 -0.004,-0.409 0.02,-0.611c0.057,-0.47 0.129,-0.937 0.195,-1.406c0.697,0.054 0.717,0.697 0.957,1.127c0.637,1.143 0.889,1.256 2.159,0.815c0.22,-0.076 0.425,-0.198 0.621,-0.291c-0.03,-0.146 -0.02,-0.242 -0.063,-0.292c-1.386,-1.587 -2.224,-3.504 -3.188,-5.34c-0.625,-1.191 -1.179,-2.433 -0.935,-3.852c0.02,-0.117 -0.01,-0.244 -0.025,-0.365c-0.321,-2.459 -0.701,-4.913 -0.947,-7.379c-0.227,-2.266 -0.389,-4.546 -0.432,-6.822c-0.04,-2.116 0.095,-4.236 0.187,-6.354c0.079,-1.79 0.179,-3.581 0.318,-5.367c0.199,-2.557 0.521,-5.108 0.643,-7.668c0.159,-3.296 0.322,-6.601 -0.192,-9.89c-0.226,-1.447 -0.302,-2.928 -0.654,-4.342c-0.833,-3.339 -2.222,-6.469 -3.933,-9.451c-0.361,-0.631 -0.791,-1.254 -1.307,-1.76c-1.59,-1.559 -3.45,-2.725 -5.528,-3.54c-1.177,-0.462 -2.343,-0.95 -3.525,-1.396c-0.837,-0.316 -1.679,-0.639 -2.544,-0.858c-1.533,-0.387 -3.055,-0.809 -4.673,-0.778c-1.094,0.021 -2.191,-0.21 -3.288,-0.273c-2.492,-0.142 -4.992,-0.122 -7.444,0.336c-1.389,0.259 -2.747,0.769 -4.068,1.292c-3.789,1.501 -7.629,2.88 -10.8,5.615c-1.961,1.693 -3.909,3.339 -4.917,5.816c-0.168,0.413 -0.446,0.781 -0.627,1.19c-0.378,0.853 -0.75,1.711 -1.077,2.584c-0.328,0.877 -0.636,1.765 -0.888,2.666c-0.548,1.959 -1.245,3.902 -1.531,5.902c-0.415,2.895 -0.611,5.83 -0.731,8.755c-0.134,3.257 -0.197,6.518 0.161,9.778c0.285,2.589 0.358,5.201 0.603,7.795c0.365,3.874 0.197,7.732 -0.171,11.593c-0.174,1.823 -0.33,3.65 -0.405,5.479c-0.045,1.104 -0.098,2.183 -0.42,3.256c-0.257,0.853 -0.348,1.755 -0.522,2.634c-0.092,0.467 0.062,0.815 0.499,0.992c0.895,0.364 1.8,0.703 2.766,1.079c0.143,-0.485 0.251,-0.828 0.345,-1.176c0.308,-1.139 0.606,-2.28 0.919,-3.417c0.064,-0.233 0.131,-0.487 0.274,-0.67c0.103,-0.132 0.335,-0.217 0.509,-0.217c0.106,0 0.27,0.186 0.305,0.316c0.105,0.392 0.175,0.795 0.229,1.198c0.157,1.169 0.317,2.339 0.44,3.512c0.05,0.482 0.297,0.627 0.726,0.606c0.462,-0.023 0.44,-0.388 0.511,-0.702c0.242,-1.067 0.482,-2.136 0.751,-3.197c0.068,-0.269 0.208,-0.536 0.373,-0.761c0.225,-0.307 0.642,-0.236 0.779,0.113c0.058,0.148 0.061,0.317 0.095,0.475c0.286,1.353 0.59,2.703 0.853,4.061c0.119,0.609 0.458,0.922 1.052,1.003c0.83,0.113 1.658,0.229 2.58,0.357c-0.174,-3.341 -0.949,-6.507 -0.667,-9.743c0.253,0.736 0.502,1.474 0.604,2.232c0.293,2.176 0.531,4.36 0.781,6.542c0.12,1.053 0.277,1.19 1.293,1.137c0.416,-0.022 0.564,-0.184 0.544,-0.607c-0.075,-1.586 -0.149,-3.173 -0.165,-4.761c-0.005,-0.541 0.162,-1.084 0.268,-1.74c0.495,0.615 0.448,1.197 0.474,1.764c0.076,1.628 0.163,3.256 0.23,4.885c0.016,0.383 0.145,0.567 0.555,0.643c0.675,0.124 1.327,0.363 1.999,0.508c0.551,0.118 1.121,0.26 1.673,0.227c0.804,-0.049 1.6,-0.245 2.457,-0.388m35.659,-2.801c-0.101,1.096 -0.096,1.119 -1.097,1.328c-0.632,0.133 -1.28,0.186 -1.975,0.282c-0.009,0.523 0.349,0.89 0.588,1.28c0.556,0.904 0.307,1.739 -0.181,2.528c-0.143,0.232 -0.516,0.364 -0.81,0.452c-0.687,0.206 -0.679,0.181 -0.55,0.873c0.082,0.437 0.128,0.882 0.163,1.325c0.101,1.268 -1.149,2.59 -2.51,1.615c-0.058,-0.042 -0.155,-0.031 -0.192,-0.038c-0.31,0.289 -0.565,0.627 -0.902,0.819c-0.593,0.336 -1.37,0.176 -1.858,-0.428c-0.317,-0.391 -0.557,-0.426 -1.013,-0.286c-0.412,0.128 -0.907,0.145 -1.329,0.05c-1.323,-0.3 -2.311,0.596 -3.456,0.91c-0.095,0.026 -0.153,0.427 -0.119,0.636c0.307,1.978 0.846,3.896 1.504,5.785c0.308,0.884 0.561,1.787 0.837,2.682c0.108,0.348 0.164,0.714 0.595,0.853c0.393,0.127 0.577,0.447 0.588,0.846c0.014,0.454 0.286,0.52 0.655,0.506c0.449,-0.016 0.898,-0.019 1.346,-0.009c0.541,0.012 0.832,0.341 0.876,0.841c0.042,0.484 0.017,0.976 -0.015,1.462c-0.022,0.365 -0.132,0.723 -0.146,1.087c-0.022,0.566 -0.173,1.234 0.069,1.67c0.201,0.36 0.891,0.454 1.367,0.655c2.05,0.865 3.704,2.19 4.89,4.094c0.674,1.083 0.68,2.243 0.495,3.43c-0.098,0.628 -0.539,1.021 -1.129,1.165c-2.175,0.533 -4.357,1.039 -6.541,1.536c-0.595,0.136 -1.219,0.152 -1.804,0.312c-2.856,0.778 -5.757,0.444 -8.647,0.396c-0.317,-0.005 -0.643,-0.116 -0.948,-0.223c-0.509,-0.177 -0.772,-0.529 -0.804,-1.098c-0.185,-3.25 0.857,-6.012 3.286,-8.199c0.474,-0.427 1.09,-0.695 1.681,-1.061c-0.129,-0.72 -0.701,-1.165 -1.076,-1.719c-0.78,-1.15 -0.743,-1.617 0.356,-2.435c0.293,-0.218 0.341,-0.465 0.453,-0.778c0.476,-1.333 0.004,-2.53 -0.362,-3.77c-0.715,-2.422 -1.382,-4.858 -2.067,-7.289c-0.289,-1.028 -0.288,-1.029 -1.403,-1.037c-1.922,-0.015 -1.966,-0.014 -2.354,-1.857c-0.386,-1.829 -0.69,-3.674 -1.059,-5.67c-0.187,1.323 -0.365,2.497 -0.513,3.675c-0.034,0.272 0.036,0.557 0.06,0.835c0.014,0.156 0.109,0.377 0.039,0.456c-0.559,0.629 -0.368,1.384 -0.392,2.101c-0.03,0.955 -0.017,0.985 -0.989,1.17c-0.405,0.077 -0.547,0.24 -0.567,0.628c-0.023,0.404 -0.141,0.804 -0.157,1.209c-0.131,3.178 -0.248,6.357 -0.369,9.536c-0.028,0.737 -0.016,0.805 0.801,0.841c0.771,0.035 1.252,0.39 1.076,1.387c-0.181,1.032 -0.5,2.052 -0.86,3.04c-0.227,0.619 -0.272,1.033 0.18,1.635c1.252,1.664 2,3.545 1.831,5.693c-0.01,0.121 0.012,0.247 -0.008,0.367c-0.293,1.85 -0.62,2.166 -2.068,2.43c-0.84,0.153 -1.685,0.319 -2.534,0.375c-2.931,0.195 -5.864,0.45 -8.798,0.478c-2.482,0.023 -4.969,-0.211 -7.449,-0.386c-1.319,-0.093 -2.362,-1.273 -2.468,-2.597c-0.171,-2.136 0.755,-3.788 2.267,-5.175c3.163,-2.904 6.926,-3.986 11.156,-3.619c0.073,0.006 0.149,-0.044 0.337,-0.103c-0.267,-0.46 -0.522,-0.903 -0.78,-1.343c-0.165,-0.281 -0.361,-0.547 -0.502,-0.84c-0.469,-0.975 -0.261,-1.453 0.781,-1.659c0.554,-0.11 1.134,-0.108 1.702,-0.118c0.362,-0.006 0.507,-0.159 0.534,-0.504c0.053,-0.691 0.148,-1.379 0.184,-2.07c0.117,-2.238 0.212,-4.477 0.323,-6.716c0.022,-0.446 0.068,-0.893 0.122,-1.337c0.124,-1.023 0.067,-1.073 -1.011,-1.142c-0.73,-0.047 -1.457,-0.142 -2.183,-0.231c-0.516,-0.062 -0.672,-0.411 -0.619,-0.875c0.027,-0.241 0.102,-0.476 0.154,-0.714c0.411,-1.869 0.826,-3.736 1.231,-5.605c0.135,-0.62 0.035,-0.718 -0.619,-0.63c-1.086,0.148 -2.167,0.368 -3.258,0.434c-0.672,0.04 -1.403,-0.032 -2.029,-0.263c-1.247,-0.46 -2.516,-0.602 -3.826,-0.687c-1.541,-0.101 -3.079,-0.299 -4.607,-0.528c-1.02,-0.152 -1.665,-0.714 -1.787,-1.846c-0.089,-0.836 -0.372,-1.65 -0.638,-2.77c-0.387,0.88 -0.526,1.527 -0.532,2.188c-0.016,1.65 -0.472,1.708 -1.763,1.298c-0.895,-0.283 -0.93,-0.204 -1.055,-1.13c-0.142,-1.044 -0.262,-2.092 -0.426,-3.417c-0.547,1.396 -0.743,2.576 -0.935,3.758c-0.108,0.664 -0.244,0.781 -0.887,0.573c-1.045,-0.337 -2.102,-0.668 -3.093,-1.134c-0.982,-0.461 -1.1,-0.843 -0.874,-1.875c0.26,-1.191 0.548,-2.376 0.805,-3.568c0.068,-0.316 0.089,-0.646 0.094,-0.969c0.014,-0.98 -0.021,-1.96 0.02,-2.938c0.048,-1.178 0.121,-2.356 0.24,-3.528c0.334,-3.287 0.639,-6.569 0.318,-9.88c-0.29,-2.999 -0.516,-6.004 -0.744,-9.008c-0.306,-4.028 -0.468,-8.057 -0.125,-12.093c0.152,-1.786 0.191,-3.581 0.322,-5.369c0.057,-0.769 0.181,-1.537 0.339,-2.292c0.67,-3.196 1.63,-6.32 2.784,-9.36c1.331,-3.506 3.427,-6.475 6.453,-8.876c3.237,-2.57 6.946,-4.066 10.686,-5.585c0.301,-0.123 0.622,-0.203 0.917,-0.338c2.034,-0.936 4.187,-1.257 6.405,-1.428c2.254,-0.173 4.476,-0.149 6.698,0.251c0.159,0.029 0.334,0.067 0.486,0.033c1.92,-0.444 3.675,0.377 5.495,0.696c1.83,0.321 3.484,1.14 5.181,1.829c1.319,0.535 2.638,1.089 3.899,1.747c2.735,1.429 4.733,3.58 5.944,6.427c0.861,2.025 1.735,4.047 2.507,6.105c0.355,0.944 0.543,1.963 0.699,2.965c0.293,1.889 0.61,3.784 0.725,5.689c0.121,1.991 0.064,3.997 -0.004,5.993c-0.049,1.463 -0.269,2.92 -0.367,4.382c-0.253,3.82 -0.544,7.641 -0.695,11.466c-0.09,2.276 0.033,4.563 0.107,6.844c0.046,1.424 0.141,2.849 0.28,4.267c0.198,2.024 0.46,4.041 0.687,6.061c0.114,1.011 0.272,2.023 0.3,3.037c0.029,1.05 0.307,2.018 0.762,2.932c0.544,1.095 1.156,2.156 1.761,3.219c0.447,0.784 0.988,1.483 1.76,2.002c0.487,0.327 0.45,0.622 -0.044,0.932c-0.843,0.528 -1.778,0.812 -2.756,0.951c-0.686,0.097 -1.088,-0.404 -1.523,-0.91" style="fill:#231f20;fill-rule:nonzero;"/><path d="M54.306,47.929c-0.121,0.003 -0.242,0.006 -0.363,0.008c-0.01,0.432 -0.04,0.864 -0.028,1.294c0.092,3.096 0.164,6.193 0.301,9.286c0.1,2.278 0.247,4.555 0.458,6.823c0.085,0.917 0.212,1.877 0.902,2.625c0.039,-0.415 -0.002,-0.813 -0.044,-1.211c-0.118,-1.092 -0.3,-2.182 -0.342,-3.278c-0.123,-3.258 -0.173,-6.52 -0.289,-9.779c-0.048,-1.342 -0.174,-2.682 -0.299,-4.019c-0.055,-0.587 -0.194,-1.166 -0.296,-1.749m-17.417,-44.171c-0.474,0.042 -1.413,0.075 -2.334,0.222c-1.444,0.23 -2.874,0.56 -4.316,0.805c-2.793,0.475 -5.49,1.319 -8.014,2.545c-3.365,1.634 -6.07,4.121 -8.001,7.346c-0.636,1.064 -1.274,2.201 -1.239,3.525c0.011,0.414 -0.207,1.016 0.381,1.146c0.507,0.112 0.562,-0.498 0.768,-0.814c1.322,-2.028 2.747,-3.975 4.836,-5.278c1.797,-1.121 3.642,-2.169 5.503,-3.181c1.331,-0.724 2.77,-1.194 4.279,-1.4c1.694,-0.232 3.385,-0.519 5.087,-0.643c1.46,-0.105 2.96,-0.187 4.397,0.028c2.613,0.391 5.235,0.857 7.775,1.572c3.612,1.019 6.846,2.812 9.498,5.54c0.368,0.378 0.775,0.723 1.196,1.04c0.259,0.194 0.576,0.326 0.887,0.033c0.26,-0.245 0.194,-0.507 0.072,-0.782c-0.032,-0.074 -0.049,-0.157 -0.088,-0.227c-1.113,-2.004 -2.309,-3.961 -4.233,-5.295c-1.639,-1.136 -3.351,-2.167 -5.043,-3.224c-3.348,-2.092 -7.047,-2.889 -11.411,-2.958m-8.379,76.279c-0.857,0.143 -1.652,0.339 -2.456,0.388c-0.552,0.033 -1.123,-0.109 -1.673,-0.227c-0.672,-0.144 -1.325,-0.384 -1.999,-0.508c-0.411,-0.075 -0.539,-0.26 -0.556,-0.643c-0.067,-1.629 -0.153,-3.257 -0.229,-4.885c-0.027,-0.567 0.02,-1.149 -0.474,-1.763c-0.107,0.655 -0.274,1.198 -0.268,1.739c0.016,1.588 0.09,3.175 0.165,4.762c0.02,0.422 -0.128,0.584 -0.544,0.606c-1.016,0.053 -1.173,-0.083 -1.294,-1.137c-0.249,-2.182 -0.488,-4.366 -0.781,-6.542c-0.102,-0.758 -0.351,-1.496 -0.604,-2.232c-0.282,3.236 0.494,6.402 0.668,9.743c-0.922,-0.128 -1.751,-0.243 -2.58,-0.357c-0.594,-0.081 -0.934,-0.393 -1.052,-1.003c-0.264,-1.358 -0.568,-2.707 -0.854,-4.061c-0.033,-0.158 -0.036,-0.326 -0.094,-0.474c-0.137,-0.35 -0.555,-0.42 -0.78,-0.114c-0.165,0.225 -0.304,0.492 -0.373,0.762c-0.268,1.061 -0.509,2.129 -0.751,3.196c-0.071,0.314 -0.048,0.68 -0.51,0.703c-0.429,0.021 -0.677,-0.125 -0.727,-0.606c-0.122,-1.174 -0.282,-2.343 -0.439,-3.513c-0.055,-0.402 -0.125,-0.806 -0.229,-1.197c-0.035,-0.13 -0.2,-0.316 -0.305,-0.316c-0.174,0 -0.406,0.085 -0.509,0.216c-0.144,0.184 -0.211,0.437 -0.275,0.67c-0.312,1.138 -0.611,2.279 -0.918,3.417c-0.095,0.348 -0.202,0.692 -0.345,1.176c-0.967,-0.375 -1.871,-0.715 -2.766,-1.079c-0.437,-0.177 -0.592,-0.525 -0.499,-0.992c0.173,-0.879 0.265,-1.78 0.521,-2.633c0.322,-1.074 0.375,-2.152 0.421,-3.256c0.075,-1.829 0.23,-3.657 0.404,-5.48c0.369,-3.861 0.536,-7.718 0.171,-11.593c-0.244,-2.594 -0.317,-5.206 -0.602,-7.794c-0.359,-3.26 -0.295,-6.522 -0.162,-9.779c0.12,-2.925 0.317,-5.86 0.731,-8.755c0.286,-2 0.984,-3.943 1.531,-5.902c0.252,-0.901 0.56,-1.789 0.889,-2.666c0.327,-0.873 0.699,-1.73 1.077,-2.583c0.181,-0.41 0.459,-0.777 0.627,-1.19c1.007,-2.478 2.955,-4.124 4.916,-5.816c3.171,-2.736 7.012,-4.115 10.8,-5.616c1.322,-0.523 2.679,-1.032 4.068,-1.292c2.452,-0.458 4.953,-0.478 7.444,-0.336c1.098,0.063 2.195,0.294 3.288,0.273c1.618,-0.03 3.141,0.392 4.673,0.779c0.865,0.219 1.707,0.541 2.544,0.857c1.183,0.446 2.349,0.935 3.526,1.396c2.078,0.816 3.937,1.981 5.528,3.54c0.515,0.506 0.945,1.129 1.306,1.76c1.711,2.982 3.1,6.113 3.933,9.452c0.353,1.414 0.429,2.895 0.654,4.341c0.514,3.289 0.351,6.595 0.193,9.891c-0.122,2.56 -0.445,5.11 -0.644,7.667c-0.138,1.787 -0.239,3.577 -0.317,5.368c-0.093,2.117 -0.228,4.237 -0.188,6.353c0.043,2.277 0.205,4.556 0.432,6.823c0.246,2.466 0.626,4.919 0.947,7.378c0.016,0.122 0.045,0.248 0.026,0.365c-0.244,1.42 0.309,2.661 0.934,3.853c0.964,1.835 1.802,3.753 3.189,5.34c0.043,0.049 0.033,0.145 0.062,0.292c-0.195,0.093 -0.4,0.214 -0.621,0.291c-1.269,0.44 -1.521,0.327 -2.158,-0.815c-0.24,-0.431 -0.261,-1.074 -0.957,-1.127c-0.067,0.468 -0.139,0.936 -0.195,1.405c-0.025,0.202 -0.033,0.409 -0.021,0.612c0.027,0.459 -0.225,0.682 -0.637,0.741c-0.483,0.07 -0.976,0.081 -1.459,0.161c-1.059,0.176 -1.31,-0.259 -1.472,-1.167c-0.436,-2.444 -0.839,-4.893 -1.23,-7.345c-0.089,-0.557 -0.076,-1.13 -0.169,-1.693c-0.353,2.872 0.031,5.703 0.518,8.671c-0.973,-0.411 -1.875,-0.73 -2.709,-1.177c-0.313,-0.167 -0.518,-0.606 -0.687,-0.962c-1.21,-2.538 -2.424,-5.075 -3.585,-7.636c-0.959,-2.116 -1.877,-4.25 -2.756,-6.4c-0.95,-2.318 -2.214,-4.451 -3.652,-6.487c-0.372,-0.526 -0.869,-0.963 -1.36,-1.497c5.244,-1.971 9.605,-5.107 12.631,-10.196c0.092,0.777 0.218,1.374 0.224,1.974c0.028,2.529 0.02,5.058 0.022,7.587c0,0.864 0.128,1.689 0.716,2.61c0.113,-0.343 0.214,-0.51 0.216,-0.678c0.028,-2.326 0.102,-4.652 0.038,-6.975c-0.049,-1.828 -0.271,-3.65 -0.418,-5.475c-0.253,-3.129 -0.806,-6.209 -1.479,-9.27c-0.116,-0.529 -0.027,-0.616 0.526,-0.688c0.081,-0.01 0.163,0 0.245,-0.004c0.291,-0.016 0.625,-0.026 0.663,-0.391c0.048,-0.467 -0.353,-0.33 -0.605,-0.371c-0.759,-0.124 -1.516,-0.271 -2.279,-0.353c-0.588,-0.064 -0.863,-0.319 -0.878,-0.924c-0.014,-0.567 -0.144,-1.131 -0.157,-1.698c-0.028,-1.101 -0.027,-2.204 -0.006,-3.305c0.032,-1.678 -0.135,-3.332 -0.46,-4.979c-0.251,-1.276 -0.414,-2.57 -0.648,-3.851c-0.059,-0.33 -0.007,-0.851 -0.507,-0.849c-0.538,0.003 -0.579,0.509 -0.595,0.912c-0.1,2.444 -0.143,4.891 -0.281,7.331c-0.109,1.91 -0.234,3.827 -0.528,5.713c-0.233,1.494 -0.126,1.243 -1.419,1.252c-1.755,0.012 -3.513,0.038 -5.266,-0.034c-1.218,-0.05 -2.428,-0.274 -3.645,-0.38c-0.546,-0.047 -0.79,-0.307 -0.875,-0.821c-0.22,-1.324 -0.566,-2.637 -0.67,-3.969c-0.221,-2.842 -0.326,-5.693 -0.464,-8.541c-0.021,-0.446 0.053,-0.895 0.052,-1.343c-0.001,-0.28 -0.031,-0.569 -0.106,-0.838c-0.037,-0.13 -0.195,-0.291 -0.32,-0.313c-0.117,-0.021 -0.302,0.094 -0.386,0.204c-0.121,0.157 -0.202,0.357 -0.256,0.55c-0.496,1.766 -0.987,3.536 -1.046,5.383c-0.093,2.892 -0.161,5.785 -0.242,8.677c-0.013,0.437 -0.035,0.875 -0.056,1.398c-1.043,-0.153 -1.96,-0.317 -2.885,-0.413c-0.562,-0.058 -0.775,-0.35 -0.822,-0.86c-0.041,-0.446 -0.15,-0.89 -0.142,-1.333c0.053,-2.812 0.111,-5.624 0.206,-8.435c0.046,-1.341 0.181,-2.68 0.266,-4.021c0.012,-0.199 0,-0.41 -0.053,-0.601c-0.027,-0.093 -0.175,-0.215 -0.267,-0.214c-0.139,0.003 -0.342,0.063 -0.403,0.166c-0.119,0.205 -0.186,0.45 -0.228,0.687c-0.284,1.602 -0.545,3.207 -0.833,4.808c-0.331,1.843 -0.646,3.686 -0.682,5.568c-0.028,1.425 -0.141,2.849 -0.181,4.274c-0.013,0.453 -0.181,0.647 -0.618,0.73c-1.723,0.33 -3.405,0.214 -5.063,-0.358c-0.331,-0.114 -0.452,-0.324 -0.449,-0.636c0.004,-0.325 0.025,-0.652 0.049,-0.977c0.051,-0.69 0.099,-1.381 0.165,-2.07c0.213,-2.227 0.431,-4.454 0.654,-6.68c0.18,-1.785 0.484,-3.546 1.029,-5.262c0.06,-0.188 -0.014,-0.586 -0.125,-0.628c-0.229,-0.088 -0.583,-0.091 -0.78,0.036c-0.258,0.166 -0.436,0.477 -0.612,0.749c-2.048,3.163 -3.303,6.623 -3.854,10.343c-0.232,1.57 -0.487,3.137 -0.675,4.712c-0.063,0.529 -0.286,0.636 -0.769,0.696c-2.033,0.253 -4.06,0.363 -6.094,0.021c-0.2,-0.034 -0.41,-0.056 -0.61,-0.033c-0.224,0.025 -0.443,0.108 -0.664,0.166c0.097,0.2 0.141,0.485 0.3,0.583c0.379,0.231 0.307,0.498 0.226,0.836c-0.607,2.555 -0.743,5.155 -0.74,7.769c0.003,2.244 -0.026,4.488 -0.031,6.732c0,0.304 0.056,0.608 0.256,0.944c0.077,-0.166 0.205,-0.327 0.223,-0.499c0.107,-1.052 0.235,-2.106 0.27,-3.162c0.099,-2.975 0.13,-5.953 0.242,-8.927c0.035,-0.93 0.209,-1.859 0.382,-2.777c0.124,-0.654 0.28,-0.7 0.933,-0.651c0.537,0.04 0.682,0.328 0.659,0.813c-0.038,0.815 -0.055,1.631 -0.07,2.447c-0.064,3.464 -0.254,6.934 -0.14,10.392c0.076,2.263 0.514,4.526 0.937,6.762c0.468,2.476 1.103,4.922 1.665,7.381c0.087,0.383 0.174,0.765 0.694,1.249c-0.081,-0.806 -0.098,-1.356 -0.196,-1.892c-0.507,-2.802 -1.069,-5.595 -1.546,-8.401c-0.361,-2.127 -0.704,-4.262 -0.664,-6.432c0.005,-0.24 0.025,-0.479 0.044,-0.813c0.483,0.298 0.603,0.735 0.772,1.115c0.537,1.21 1.296,2.261 2.208,3.21c0.566,0.589 1.12,1.188 1.703,1.76c0.348,0.342 0.701,0.707 1.118,0.944c2.093,1.19 4.219,2.297 6.635,2.737c1.075,0.195 2.12,0.562 3.176,0.86c0.365,0.104 0.405,0.389 0.27,0.678c-0.08,0.173 -0.245,0.318 -0.398,0.444c-1.731,1.426 -3.521,2.786 -5.185,4.286c-1.389,1.251 -2.653,2.646 -3.933,4.013c-0.928,0.992 -1.064,2.448 -0.162,3.704c1.201,1.674 2.634,3.103 4.278,4.333c0.49,0.366 0.97,0.746 1.448,1.127c0.281,0.226 0.385,0.511 0.259,0.869c-0.416,1.177 -0.256,2.316 0.296,3.384c-0.402,0.379 -0.8,0.675 -1.097,1.051c-0.519,0.654 -0.462,1.244 0.118,1.858c0.543,0.574 1.181,0.998 2.028,1.152" style="fill:#c5712c;fill-rule:nonzero;"/><path d="M38.236,8.058c-1.437,-0.215 -2.937,-0.133 -4.397,-0.028c-1.702,0.124 -3.393,0.411 -5.086,0.643c-1.51,0.206 -2.949,0.676 -4.279,1.4c-1.862,1.012 -3.706,2.06 -5.504,3.181c-2.089,1.304 -3.514,3.25 -4.836,5.278c-0.206,0.316 -0.26,0.926 -0.768,0.814c-0.588,-0.13 -0.37,-0.732 -0.381,-1.145c-0.035,-1.325 0.603,-2.462 1.24,-3.526c1.93,-3.225 4.636,-5.712 8,-7.346c2.524,-1.226 5.221,-2.07 8.014,-2.545c1.443,-0.245 2.872,-0.575 4.317,-0.805c0.921,-0.147 1.86,-0.18 2.333,-0.222c4.365,0.07 8.064,0.866 11.411,2.958c1.692,1.057 3.405,2.089 5.043,3.224c1.924,1.334 3.121,3.291 4.233,5.295c0.039,0.071 0.056,0.153 0.089,0.227c0.122,0.275 0.187,0.537 -0.073,0.782c-0.311,0.294 -0.627,0.161 -0.886,-0.033c-0.422,-0.317 -0.828,-0.662 -1.197,-1.04c-2.652,-2.728 -5.885,-4.521 -9.498,-5.54c-2.54,-0.715 -5.162,-1.18 -7.775,-1.572m8.23,10.929c0.148,-0.122 0.35,0.014 0.396,0.167c0.652,2.158 1.534,4.242 2.115,6.423c0.364,1.367 0.549,2.768 0.64,4.176c0.902,0.021 0.847,0.077 1.055,-1.256c0.293,-1.886 0.418,-3.803 0.527,-5.712c0.139,-2.441 0.182,-4.888 0.281,-7.331c0.017,-0.404 0.058,-0.91 0.595,-0.913c0.5,-0.002 0.448,0.519 0.508,0.849c0.233,1.281 0.396,2.575 0.647,3.852c0.325,1.646 0.492,3.3 0.46,4.978c-0.02,1.101 -0.021,2.204 0.006,3.305c0.014,0.567 0.144,1.131 0.157,1.699c0.011,0.44 0.164,0.692 0.473,0.823c0.018,-0.412 0.044,-0.823 0.076,-1.235c0.142,-1.785 0.397,-3.573 0.843,-5.31c0.387,-1.506 0.919,-3.103 1.945,-4.304c0.101,-0.117 0.285,-0.11 0.382,0.013c1.786,2.251 2.643,5.109 3.167,7.892c0.481,2.552 0.682,5.146 0.852,7.734c0.169,2.56 0.373,5.116 0.619,7.669c0.032,-0.492 0.048,-0.985 0.087,-1.476c0.199,-2.557 0.521,-5.107 0.643,-7.667c0.158,-3.296 0.321,-6.602 -0.192,-9.891c-0.226,-1.446 -0.302,-2.928 -0.655,-4.341c-0.833,-3.34 -2.221,-6.47 -3.932,-9.452c-0.362,-0.631 -0.791,-1.254 -1.307,-1.76c-1.591,-1.559 -3.45,-2.724 -5.528,-3.54c-1.177,-0.461 -2.343,-0.949 -3.526,-1.396c-0.836,-0.316 -1.678,-0.638 -2.543,-0.857c-1.533,-0.387 -3.055,-0.809 -4.673,-0.778c-1.094,0.02 -2.191,-0.211 -3.288,-0.273c-2.492,-0.143 -4.993,-0.123 -7.444,0.335c-1.389,0.26 -2.747,0.769 -4.069,1.293c-3.788,1.5 -7.629,2.879 -10.799,5.615c-1.844,1.591 -3.666,3.151 -4.716,5.39c0.013,0.16 0.028,0.319 0.041,0.479c0.318,3.806 0.763,7.644 2.404,11.133c1.225,-1.157 2.119,-2.628 3.021,-4.035c1,-1.56 2.045,-3.121 3.482,-4.316c0.166,-0.138 0.484,0.078 0.39,0.283c-1.02,2.227 -1.737,4.9 -1.253,7.359c0.691,-0.538 1.31,-1.159 1.883,-1.822c0.205,-0.237 0.405,-0.478 0.606,-0.717c0.677,-2.772 1.779,-5.385 3.356,-7.82c0.176,-0.273 0.354,-0.583 0.612,-0.749c0.197,-0.127 0.551,-0.124 0.78,-0.036c0.111,0.042 0.186,0.44 0.125,0.629c-0.417,1.313 -0.691,2.652 -0.878,4.008c0.503,-0.386 1.014,-0.762 1.549,-1.114c0.862,-0.568 1.739,-1.113 2.586,-1.703c0.175,-0.122 0.477,0.065 0.39,0.283c-1.186,2.959 -0.409,5.971 0.807,8.761c0.091,-1.625 0.355,-3.225 0.643,-4.825c0.287,-1.601 0.549,-3.206 0.832,-4.808c0.042,-0.237 0.11,-0.482 0.229,-0.686c0.06,-0.104 0.263,-0.164 0.403,-0.166c0.091,-0.002 0.24,0.12 0.266,0.213c0.053,0.191 0.066,0.402 0.053,0.602c-0.045,0.706 -0.102,1.411 -0.153,2.117c0.091,-0.264 0.17,-0.532 0.277,-0.791c0.875,-2.121 2.303,-3.897 4.16,-5.242c0.198,-0.144 0.43,0.074 0.389,0.283c-0.27,1.395 -0.52,2.794 -0.728,4.199c-0.393,2.655 -0.648,5.342 -0.578,8.028c0.018,0.724 0.072,1.449 0.147,2.173c0.051,-1.927 0.1,-3.854 0.161,-5.781c0.06,-1.847 0.55,-3.617 1.046,-5.382c0.055,-0.194 0.136,-0.394 0.256,-0.551c0.084,-0.11 0.269,-0.225 0.387,-0.204c0.125,0.022 0.282,0.183 0.319,0.313c0.075,0.269 0.105,0.558 0.106,0.839c0.001,0.447 -0.073,0.896 -0.051,1.342c0.136,2.848 0.242,5.699 0.464,8.541c0.099,1.281 0.421,2.544 0.641,3.817c2.417,-3.068 3.976,-6.832 7.028,-9.375" style="fill:#db8437;fill-rule:nonzero;"/><path d="M40.913,33.67c0.195,0.573 0.329,1.261 0.654,1.843c0.328,0.588 1.123,0.514 1.323,-0.127c0.234,-0.754 0.308,-1.567 0.369,-2.36c0.022,-0.294 -0.125,-0.658 -0.314,-0.897c-0.205,-0.262 -0.523,-0.521 -0.836,-0.592c-0.401,-0.091 -0.671,0.267 -0.797,0.617c-0.162,0.451 -0.249,0.929 -0.399,1.516m-12.084,1.039c-0.063,-0.611 -0.111,-1.161 -0.527,-1.628c-0.278,-0.313 -0.538,-0.626 -1.014,-0.514c-0.457,0.107 -0.712,0.476 -0.745,0.874c-0.069,0.845 -0.072,1.699 -0.026,2.545c0.023,0.423 0.318,0.756 0.772,0.832c0.451,0.076 0.841,-0.143 1.019,-0.518c0.237,-0.5 0.353,-1.058 0.521,-1.591m14.904,7.391c0.147,0.008 0.258,0.025 0.368,0.019c0.144,-0.008 0.286,-0.033 0.428,-0.051c-0.067,-0.138 -0.102,-0.319 -0.211,-0.404c-0.154,-0.119 -0.356,-0.2 -0.55,-0.24c-0.667,-0.139 -1.867,0.364 -2.497,1.112c0.705,-0.139 1.275,-0.251 1.864,-0.367c0.144,1.17 -0.371,2.075 -0.956,2.892c-1.501,2.096 -3.442,3.458 -6.17,3.28c-0.403,-0.026 -0.798,-0.155 -1.2,-0.198c-0.139,-0.015 -0.29,0.089 -0.435,0.138c0.083,0.118 0.142,0.275 0.254,0.344c0.171,0.103 0.377,0.149 0.572,0.21c2.17,0.679 4.088,0.143 5.868,-1.173c1.866,-1.379 2.875,-3.156 2.665,-5.562m-6.486,0.595c-0.142,-0.099 -0.174,-0.141 -0.208,-0.143c-0.486,-0.028 -0.973,-0.063 -1.459,-0.071c-2.242,-0.036 -3.699,-2.444 -2.48,-4.636c0.704,-1.266 2.289,-1.621 3.482,-0.798c0.168,0.115 0.292,0.321 0.472,0.381c0.24,0.081 0.513,0.061 0.772,0.084c-0.057,-0.22 -0.053,-0.489 -0.183,-0.651c-0.748,-0.938 -1.757,-1.324 -2.927,-1.153c-1.694,0.247 -2.891,1.611 -3.026,3.509c-0.173,2.438 1.51,4.177 3.749,4.219c0.656,0.012 1.29,-0.11 1.808,-0.741m15.043,-23.453c0.491,1.693 0.433,3.204 0.472,4.71c0.044,1.75 0.11,3.5 0.187,5.249c0.017,0.362 0.123,0.719 0.186,1.078c0.081,0.465 0.337,0.661 0.827,0.724c1.424,0.182 1.439,0.206 1.638,1.584c0.279,1.933 0.601,3.863 0.766,5.806c0.15,1.758 -0.404,3.401 -1.423,4.827c-1.134,1.591 -2.464,3.002 -3.971,4.282c-1.451,1.231 -3.028,2.297 -4.71,3.031c-2.101,0.915 -4.239,1.887 -6.625,2.025c-1.209,0.07 -2.391,0.425 -3.631,0.427c-2.147,0.005 -4.205,-0.431 -6.259,-0.97c-1.061,-0.278 -2.159,-0.437 -3.195,-0.785c-2.011,-0.676 -4.076,-1.356 -5.709,-2.73c-2.525,-2.123 -4.572,-4.652 -5.471,-7.93c-0.291,-1.062 -0.511,-2.128 -0.467,-3.249c0.071,-1.793 0.056,-3.589 0.112,-5.382c0.021,-0.721 0.064,-0.695 0.78,-0.764c1.297,-0.125 2.588,-0.302 3.885,-0.416c0.529,-0.046 0.66,-0.301 0.708,-0.782c0.287,-2.919 0.736,-5.81 1.436,-8.662c0.441,-1.797 1.138,-3.482 2.026,-5.095c0.074,-0.135 0.201,-0.241 0.496,-0.586c-0.17,1.141 -0.32,2.009 -0.425,2.882c-0.228,1.898 -0.471,3.796 -0.636,5.699c-0.142,1.623 -0.191,3.254 -0.262,4.883c-0.014,0.319 -0.067,0.794 0.109,0.935c0.682,0.55 0.251,0.955 -0.045,1.432c-0.146,0.236 -0.225,0.519 -0.294,0.792c-0.019,0.077 0.089,0.206 0.169,0.278c0.032,0.028 0.178,-0.014 0.218,-0.065c0.198,-0.256 0.394,-0.516 0.561,-0.792c0.353,-0.582 0.831,-0.885 1.529,-0.743c1.417,0.288 2.83,0.205 4.259,0.05c1.297,-0.141 1.338,-0.114 1.357,-1.458c0.016,-1.182 0.02,-2.365 0.037,-3.548c0.006,-0.404 0.034,-0.808 0.219,-1.218c0.072,0.912 0.135,1.826 0.221,2.736c0.049,0.526 0.129,1.048 0.211,1.57c0.086,0.553 0.436,0.869 0.972,0.957c1.004,0.166 2.007,0.363 3.018,0.446c1.131,0.094 1.214,-0.024 1.248,-1.233c0.073,-2.527 0.112,-5.055 0.209,-7.581c0.048,-1.239 0.195,-2.475 0.353,-3.702c0.123,1.621 0.234,3.245 0.373,4.865c0.184,2.151 0.453,4.29 0.988,6.387c0.232,0.903 0.325,0.967 1.235,1.029c1.379,0.094 2.759,0.188 4.138,0.299c0.821,0.066 1.478,0.42 1.909,1.15c0.165,0.28 0.336,0.569 0.565,0.794c0.1,0.098 0.363,0.087 0.525,0.037c0.067,-0.02 0.128,-0.313 0.073,-0.42c-0.222,-0.426 -0.491,-0.828 -0.837,-1.397c0.62,0 1.1,0.001 1.58,0c0.734,0 1.47,0.021 2.204,-0.008c0.862,-0.034 1.097,-0.178 1.247,-1.037c0.252,-1.44 0.468,-2.893 0.588,-4.349c0.16,-1.947 0.216,-3.902 0.326,-6.062" style="fill:#fedcc4;fill-rule:nonzero;"/><path d="M21.923,28.916c0.41,0.711 0.907,1.379 1.541,1.9c0.077,-0.242 0.031,-0.492 -0.33,-0.783c-0.176,-0.141 -0.123,-0.617 -0.109,-0.935c0.071,-1.629 0.121,-3.26 0.262,-4.883c0.165,-1.903 0.408,-3.801 0.636,-5.699c0.105,-0.873 0.255,-1.741 0.425,-2.882c-0.295,0.345 -0.422,0.451 -0.496,0.586c-0.888,1.613 -1.585,3.298 -2.026,5.094c-0.435,1.772 -0.764,3.561 -1.026,5.36c0.349,0.761 0.705,1.518 1.123,2.242" style="fill:#fbc098;fill-rule:nonzero;"/><path d="M56.366,38.393c-0.165,-1.943 -0.487,-3.874 -0.767,-5.806c-0.198,-1.379 -0.213,-1.402 -1.638,-1.585c-0.49,-0.063 -0.745,-0.258 -0.826,-0.723c-0.063,-0.359 -0.169,-0.717 -0.186,-1.078c-0.077,-1.749 -0.144,-3.499 -0.188,-5.249c-0.039,-1.506 0.02,-3.017 -0.471,-4.71c-0.111,2.16 -0.166,4.115 -0.326,6.062c-0.121,1.456 -0.336,2.908 -0.588,4.349c-0.151,0.859 -0.385,1.003 -1.247,1.037c-0.734,0.029 -1.47,0.008 -2.204,0.008c-0.48,0.001 -0.96,0 -1.58,0c0.346,0.569 0.615,0.971 0.836,1.397c0.056,0.107 -0.005,0.4 -0.072,0.42c-0.162,0.05 -0.425,0.061 -0.525,-0.038c-0.229,-0.224 -0.4,-0.513 -0.565,-0.793c-0.431,-0.731 -1.09,-1.084 -1.909,-1.15c-1.379,-0.111 -2.759,-0.205 -4.139,-0.299c-0.909,-0.062 -1.002,-0.127 -1.234,-1.03c-0.535,-2.096 -0.805,-4.235 -0.988,-6.386c-0.139,-1.621 -0.25,-3.244 -0.373,-4.865c-0.158,1.227 -0.305,2.462 -0.353,3.702c-0.097,2.526 -0.137,5.054 -0.209,7.581c-0.034,1.209 -0.117,1.326 -1.248,1.233c-1.012,-0.083 -2.014,-0.281 -3.018,-0.446c-0.536,-0.089 -0.887,-0.404 -0.973,-0.957c-0.081,-0.522 -0.161,-1.045 -0.21,-1.57c-0.086,-0.911 -0.149,-1.824 -0.221,-2.736c-0.185,0.41 -0.213,0.814 -0.219,1.218c-0.017,1.183 -0.021,2.366 -0.038,3.548c-0.018,1.344 -0.059,1.317 -1.356,1.458c-1.429,0.155 -2.842,0.238 -4.259,-0.05c-0.49,-0.1 -0.867,0.029 -1.174,0.312c1.03,0.576 2.226,0.679 3.388,0.642c3.466,-0.11 6.937,-1.135 10.404,-0.494c0.154,0.029 0.316,0.227 0.192,0.377c-0.113,0.137 -0.227,0.282 -0.295,0.447c-0.049,0.117 -0.069,0.229 -0.055,0.314c0.015,0.078 0.07,0.158 0.113,0.198c0.109,0.102 0.202,0.146 0.332,0.201c0.734,0.313 1.611,0.335 2.396,0.362c0.143,0.006 0.287,0 0.431,0.002c0.098,-0.416 0.183,-0.796 0.308,-1.142c0.126,-0.35 0.396,-0.708 0.797,-0.617c0.313,0.071 0.631,0.33 0.836,0.592c0.189,0.239 0.336,0.602 0.314,0.897c-0.006,0.078 -0.014,0.158 -0.02,0.236c0.192,-0.008 0.386,-0.013 0.578,-0.022c1.03,-0.05 2.06,-0.12 3.091,-0.171c0.62,-0.03 1.301,-0.11 1.916,0.009c0.14,0.026 0.219,0.129 0.23,0.265c0.017,0.205 0.032,0.41 0.042,0.616c0.103,1.955 -0.036,3.926 -0.298,5.864c-0.306,2.258 -0.794,4.498 -1.498,6.667c-0.49,1.507 -1.092,2.991 -1.842,4.393c0.268,-0.116 0.536,-0.234 0.803,-0.35c1.683,-0.734 3.26,-1.801 4.71,-3.032c1.508,-1.279 2.837,-2.691 3.972,-4.281c1.019,-1.426 1.572,-3.069 1.423,-4.827" style="fill:#fbc098;fill-rule:nonzero;"/><path d="M33.037,71.13c0.856,0.104 1.458,0.155 2.051,0.254c1.012,0.171 2.015,0.113 3.038,0.07c1.887,-0.079 3.726,-0.358 5.552,-0.801c0.592,-0.144 1.172,-0.349 1.77,-0.459c0.172,-0.032 0.519,0.13 0.562,0.271c0.439,1.438 0.837,2.889 1.228,4.34c0.035,0.129 -0.008,0.367 -0.095,0.419c-0.108,0.063 -0.317,0.023 -0.452,-0.039c-0.825,-0.383 -1.559,-0.887 -2.072,-1.659c-0.112,-0.17 -0.192,-0.364 -0.322,-0.516c-0.064,-0.073 -0.264,-0.135 -0.307,-0.096c-0.101,0.091 -0.234,0.281 -0.198,0.367c0.169,0.41 0.327,0.85 0.604,1.184c0.688,0.829 1.522,1.513 2.606,1.72c0.567,0.109 0.839,0.384 1.018,0.888c0.628,1.761 1.308,3.505 1.905,5.276c0.272,0.807 0.176,0.884 -0.617,1.12c-2.468,0.735 -5.02,1.038 -7.549,1.459c-0.364,0.061 -0.531,-0.055 -0.605,-0.401c-0.221,-1.034 -0.468,-2.063 -0.675,-3.1c-0.044,-0.224 -0.005,-0.487 0.068,-0.71c0.228,-0.708 0.232,-0.761 -0.419,-0.773c-0.938,-0.017 -1.877,0.015 -2.813,0.064c-0.145,0.008 -0.28,0.218 -0.421,0.334c0.128,0.089 0.244,0.222 0.384,0.259c0.384,0.101 0.973,0.039 1.12,0.27c0.204,0.322 0.121,0.855 0.09,1.293c-0.062,0.851 -0.194,1.698 -0.257,2.549c-0.036,0.485 -0.286,0.625 -0.717,0.609c-0.368,-0.012 -0.738,0.025 -1.102,-0.009c-1.744,-0.165 -3.487,-0.328 -5.227,-0.532c-0.812,-0.094 -0.902,-0.22 -0.763,-1.033c0.198,-1.162 0.437,-2.319 0.709,-3.466c0.067,-0.28 0.28,-0.584 0.513,-0.758c1.371,-1.021 1.804,-2.506 1.915,-4.069c0.097,-1.366 0.22,-2.772 -0.522,-4.325" style="fill:#f289b4;fill-rule:nonzero;"/><path d="M43.095,52.761c0.779,5.513 1.92,10.79 3.466,15.966c-0.838,0.707 -1.845,0.818 -2.771,1.048c-2.092,0.522 -4.216,0.983 -6.392,0.861c-1.907,-0.106 -3.811,-0.283 -5.708,-0.501c-0.973,-0.112 -0.994,-0.296 -0.876,-1.298c0.23,-1.938 0.473,-3.879 0.576,-5.826c0.149,-2.846 0.178,-5.699 0.262,-8.549c0.026,-0.911 0.083,-0.952 1.014,-0.815c0.04,0.006 0.079,0.02 0.119,0.027c1.183,0.178 1.167,0.18 1.27,1.379c0.049,0.566 0.18,1.124 0.259,1.687c0.112,0.805 0.613,1.247 1.37,1.338c1.297,0.158 2.605,0.231 3.889,-0.097c1.135,-0.291 1.295,-0.503 1.351,-1.701c0.036,-0.773 0.027,-1.549 0.017,-2.323c-0.006,-0.425 0.116,-0.678 0.586,-0.759c0.474,-0.081 0.933,-0.255 1.568,-0.437" style="fill:#8ac643;fill-rule:nonzero;"/><path d="M44.197,53.229c0.263,0.286 0.576,0.54 0.778,0.863c1.43,2.279 2.766,4.599 3.762,7.119c1.032,2.612 2.231,5.159 3.373,7.727c0.895,2.01 1.841,3.997 2.704,6.02c0.318,0.741 0.809,1.219 1.542,1.438c2.054,0.611 3.341,2.085 4.367,3.843c0.193,0.331 0.303,0.761 0.301,1.144c-0.003,0.735 -0.52,1.023 -1.161,0.652c-0.379,-0.219 -0.717,-0.539 -1.005,-0.873c-0.262,-0.305 -0.497,-0.665 -0.627,-1.042c-0.263,-0.76 -0.683,-1.186 -1.539,-1.003c-0.116,0.025 -0.244,0.001 -0.366,-0.008c-1.579,-0.115 -1.987,-0.591 -1.844,-2.182c0.023,-0.242 0.153,-0.542 -0.197,-0.562c-0.172,-0.01 -0.484,0.22 -0.521,0.388c-0.318,1.473 -0.036,2.935 2.013,3.179c0.161,0.02 0.33,0.038 0.488,0.012c0.689,-0.115 1.057,0.221 1.292,0.83c0.116,0.298 0.275,0.624 0.511,0.825c0.948,0.807 1.039,1.983 1.389,3.048c0.012,0.039 0.028,0.078 0.035,0.118c0.105,0.633 -0.138,1.424 -0.507,1.522c-0.65,0.172 -1.03,-0.296 -1.264,-0.745c-0.429,-0.824 -0.75,-1.705 -1.088,-2.573c-0.133,-0.339 -0.181,-0.711 -0.297,-1.057c-0.029,-0.084 -0.185,-0.183 -0.271,-0.174c-0.079,0.01 -0.207,0.157 -0.204,0.24c0.017,0.486 0.008,0.984 0.118,1.452c0.15,0.631 0.395,1.24 0.608,1.855c0.066,0.192 0.186,0.366 0.239,0.561c0.123,0.455 -0.101,0.976 -0.469,1.154c-0.397,0.192 -0.872,0.052 -1.093,-0.476c-0.278,-0.666 -0.488,-1.377 -0.608,-2.088c-0.101,-0.595 -0.016,-1.22 -0.041,-1.831c-0.01,-0.234 -0.079,-0.474 -0.167,-0.693c-0.03,-0.075 -0.198,-0.116 -0.308,-0.128c-0.054,-0.007 -0.155,0.076 -0.174,0.138c-0.049,0.153 -0.091,0.318 -0.085,0.476c0.035,1.016 0.045,2.036 0.146,3.046c0.042,0.423 0.043,0.72 -0.4,0.869c-0.524,0.177 -0.931,0.068 -1.178,-0.307c-0.26,-0.393 -0.358,-0.806 -0.222,-1.274c0.205,-0.703 0.386,-1.413 0.588,-2.117c0.089,-0.313 0.239,-0.613 0.291,-0.93c0.025,-0.155 -0.114,-0.337 -0.179,-0.506c-0.165,0.075 -0.398,0.106 -0.481,0.235c-0.152,0.232 -0.222,0.521 -0.313,0.79c-0.179,0.518 -0.349,1.039 -0.563,1.679c-0.701,-1.238 -0.405,-2.306 0.304,-3.168c0.62,-0.752 0.677,-1.41 0.31,-2.227c-0.295,-0.657 -0.345,-1.381 -0.106,-2.03c0.225,-0.612 0.088,-1.07 -0.158,-1.615c-2.126,-4.717 -4.253,-9.433 -6.312,-14.179c-0.431,-0.993 -0.626,-2.097 -0.85,-3.167c-0.29,-1.379 -0.5,-2.775 -0.745,-4.164c0.062,-0.035 0.123,-0.07 0.184,-0.104" style="fill:#fedcc4;fill-rule:nonzero;"/><path d="M30.885,54.851c-0.044,0.918 -0.067,1.596 -0.113,2.272c-0.052,0.767 0.061,1.617 -0.241,2.274c-0.282,0.617 -1.005,1.035 -1.544,1.53c-0.929,0.852 -1.878,1.68 -2.79,2.549c-0.372,0.354 -0.647,0.423 -1.008,0.001c-0.085,-0.1 -0.347,-0.048 -0.528,-0.066c0.02,0.146 -0.01,0.331 0.068,0.433c0.395,0.514 0.767,1.062 1.24,1.496c0.992,0.91 1.988,1.803 2.765,2.917c0.253,0.363 0.614,0.65 0.928,0.969c0.14,0.141 0.421,0.288 0.41,0.411c-0.093,0.938 0.633,1.112 1.234,1.205c0.808,0.125 1.079,0.58 1.178,1.28c0.258,1.823 0.394,3.633 -0.319,5.406c-0.952,2.364 -3.98,2.06 -5.097,0.778c-0.203,-0.232 -0.275,-0.474 -0.078,-0.772c0.33,-0.498 0.742,-0.766 1.193,-0.66c0.316,0.074 0.61,0.235 0.924,0.319c0.576,0.156 0.851,0.074 1.458,-0.41c-0.299,-0.114 -0.548,-0.219 -0.805,-0.306c-1.654,-0.558 -2.381,-2.032 -1.813,-3.693c0.052,-0.153 0.123,-0.301 0.201,-0.443c0.19,-0.346 0.088,-0.636 -0.185,-0.871c-0.617,-0.531 -1.215,-1.09 -1.873,-1.565c-1.466,-1.059 -2.742,-2.305 -3.845,-3.73c-1.174,-1.517 -1.115,-2.037 0.11,-3.509c1.678,-2.018 3.638,-3.728 5.67,-5.368c0.538,-0.434 1.034,-0.92 1.557,-1.373c0.363,-0.314 0.74,-0.611 1.303,-1.074" style="fill:#fedcc4;fill-rule:nonzero;"/><path d="M47.533,115.258c-1.256,-0.1 -2.513,-0.187 -3.767,-0.305c-0.717,-0.068 -0.862,-0.208 -0.829,-0.918c0.032,-0.687 0.134,-1.375 0.273,-2.049c0.035,-0.169 0.314,-0.379 0.507,-0.409c0.635,-0.097 1.393,0.068 1.892,-0.227c0.45,-0.265 0.555,-1.055 0.928,-1.521c1.146,-1.435 2.578,-2.361 4.512,-2.239c1.215,0.077 2.439,0.095 3.643,0.257c1.293,0.175 2.413,0.743 3.117,1.915c0.266,0.444 0.648,0.587 1.132,0.558c0.488,-0.03 0.976,-0.038 1.461,-0.087c0.668,-0.068 0.788,0.003 0.848,0.649c0.025,0.282 0.009,0.569 -0.003,0.854c-0.027,0.655 -0.377,1.059 -1.008,1.203c-2.18,0.5 -4.359,0.997 -6.542,1.481c-0.596,0.131 -1.212,0.17 -1.801,0.32c-1.432,0.366 -2.88,0.538 -4.363,0.518" style="fill:#fff;fill-rule:nonzero;"/><path d="M25.23,106.01c2.133,-0.615 4.083,-0.432 6.089,-0.354c-0.378,-1.413 -1.21,-2.513 -1.927,-3.791c0.383,-0.116 0.671,-0.245 0.97,-0.285c0.937,-0.125 1.055,-0.014 1.335,0.909c0.246,0.817 0.528,1.624 0.815,2.427c0.08,0.224 0.207,0.448 0.369,0.618c0.083,0.087 0.32,0.116 0.434,0.06c0.111,-0.053 0.243,-0.273 0.212,-0.375c-0.16,-0.545 -0.367,-1.076 -0.562,-1.611c-0.142,-0.387 0.017,-0.558 0.397,-0.51c0.817,0.103 1.524,-0.072 2.128,-0.669c0.159,-0.158 0.429,-0.227 0.661,-0.287c1.399,-0.365 1.752,-0.035 1.345,1.321c-0.268,0.894 -0.598,1.775 -0.967,2.632c-0.244,0.568 -0.148,0.956 0.256,1.419c1.01,1.156 1.636,2.519 1.907,4.034c0.065,0.355 0.014,0.606 -0.453,0.676c-1.931,0.288 -3.856,0.613 -5.823,0.485c-1.381,-0.09 -2.765,-0.144 -4.148,-0.189c-0.399,-0.013 -0.605,-0.201 -0.69,-0.55c-0.057,-0.235 -0.089,-0.481 -0.096,-0.723c-0.051,-1.981 -0.527,-3.791 -2.252,-5.237" style="fill:#0bb2e8;fill-rule:nonzero;"/><path d="M25.341,115.801c-2.113,-0.124 -4.228,-0.235 -6.339,-0.375c-0.904,-0.061 -1.714,-1.008 -1.811,-2.01c-0.127,-1.31 0.379,-2.446 1.185,-3.37c1.373,-1.575 2.964,-2.902 5.02,-3.558c0.653,-0.208 1.134,-0.153 1.622,0.397c0.84,0.948 1.416,1.975 1.493,3.261c0.039,0.649 0.134,1.296 0.229,1.939c0.166,1.117 0.373,1.305 1.495,1.337c1.305,0.038 2.61,0.07 3.915,0.074c1.994,0.005 3.996,0.129 5.953,-0.445c0.512,-0.15 0.658,0.064 0.556,0.597c-0.124,0.653 -0.412,1.138 -1.135,1.246c-0.603,0.091 -1.2,0.239 -1.804,0.289c-2.07,0.172 -4.141,0.348 -6.214,0.451c-1.384,0.067 -2.773,0.012 -4.16,0.012c-0.002,0.052 -0.003,0.103 -0.005,0.155" style="fill:#fff;fill-rule:nonzero;"/><path d="M34.63,89.242c0.398,-0.024 0.601,-0.041 0.805,-0.048c1.009,-0.036 0.97,-0.037 0.906,0.94c-0.13,1.946 -0.213,3.896 -0.314,5.844c-0.083,1.582 -0.161,3.163 -0.248,4.745c-0.008,0.158 -0.013,0.4 -0.108,0.457c-0.579,0.349 -1.002,0.966 -1.747,1.036c-1.083,0.102 -1.33,-0.088 -1.276,-1.191c0.107,-2.191 0.285,-4.378 0.394,-6.569c0.073,-1.463 0.077,-2.929 0.113,-4.394c0.02,-0.788 0.022,-0.791 0.814,-0.819c0.285,-0.009 0.571,-0.001 0.661,-0.001" style="fill:#fedcc4;fill-rule:nonzero;"/><path d="M51.588,98.742c0.114,1.052 0.204,1.895 0.299,2.737c0.017,0.161 0.014,0.342 0.09,0.475c0.066,0.118 0.233,0.259 0.344,0.25c0.12,-0.01 0.316,-0.179 0.321,-0.287c0.032,-0.595 0.015,-1.193 0.015,-1.872c-0.054,0.051 -0.028,0.003 0.005,-0.002c1.732,-0.277 1.902,-0.122 1.739,1.612c-0.067,0.726 -0.175,1.449 -0.214,2.176c-0.022,0.405 -0.151,0.597 -0.572,0.584c-0.529,-0.016 -1.058,0.006 -1.587,-0.005c-0.98,-0.019 -1.926,0.04 -2.865,0.43c-0.947,0.395 -0.976,0.326 -1.594,-0.482c-0.295,-0.388 -0.59,-0.777 -0.883,-1.167c-0.097,-0.13 -0.205,-0.256 -0.278,-0.399c-0.165,-0.325 -0.134,-0.628 0.161,-0.874c0.285,-0.238 0.545,-0.273 0.867,-0.017c0.378,0.301 0.797,0.556 1.218,0.793c0.106,0.059 0.293,-0.029 0.443,-0.049c-0.047,-0.17 -0.049,-0.379 -0.153,-0.501c-0.154,-0.18 -0.412,-0.272 -0.571,-0.45c-0.265,-0.298 -0.542,-0.608 -0.718,-0.961c-0.244,-0.492 -0.137,-0.79 0.383,-0.959c1.148,-0.372 2.316,-0.678 3.55,-1.032" style="fill:#0bb2e8;fill-rule:nonzero;"/><path d="M44.916,88.283c1.035,0 1.999,-0.015 2.962,0.018c0.129,0.004 0.35,0.236 0.36,0.377c0.216,2.747 1.251,5.276 2.044,7.872c0.519,1.699 0.443,1.788 -1.266,2.199c-0.197,0.047 -0.407,0.05 -0.599,0.108c-0.356,0.106 -0.518,-0.031 -0.611,-0.373c-0.259,-0.938 -0.551,-1.868 -0.815,-2.804c-0.681,-2.414 -1.355,-4.83 -2.075,-7.397" style="fill:#fedcc4;fill-rule:nonzero;"/><path d="M60.588,109.203c-0.474,0.111 -0.75,0.167 -1.022,0.241c-0.486,0.133 -0.868,0.029 -1.17,-0.404c-0.824,-1.173 -2.036,-1.696 -3.384,-2.005c-1.813,-0.415 -3.638,-0.479 -5.458,-0.136c-1.754,0.331 -2.974,1.474 -3.918,2.905c-0.726,1.099 -0.68,1.129 -2.165,0.902c0.055,-0.536 0.332,-0.977 0.624,-1.395c0.373,-0.533 0.825,-1.012 1.182,-1.554c0.797,-1.21 2.006,-1.778 3.331,-2.098c1.831,-0.442 3.717,-0.596 5.584,-0.396c2.655,0.283 4.681,1.699 6.396,3.94" style="fill:#0bb2e8;fill-rule:nonzero;"/><path d="M46.811,65.379c0.598,1.333 1.211,2.66 1.791,4.001c0.838,1.939 1.601,3.914 2.497,5.826c0.444,0.946 -0.039,1.828 0.057,2.736c0.008,0.076 -0.293,0.215 -0.468,0.273c-1.044,0.352 -1.099,0.366 -1.47,-0.629c-0.523,-1.405 -0.964,-2.84 -1.43,-4.266c-0.291,-0.887 -0.57,-1.778 -0.848,-2.67c-0.139,-0.446 -0.189,-0.867 0.256,-1.209c0.341,-0.263 0.283,-0.598 0.163,-0.989c-0.307,-0.995 -0.548,-2.011 -0.816,-3.018c0.089,-0.018 0.178,-0.037 0.268,-0.055" style="fill:#c5712c;fill-rule:nonzero;"/><path d="M51.403,86.104c-1.291,0.466 -2.469,0.893 -3.648,1.312c-0.152,0.054 -0.316,0.094 -0.475,0.094c-1.665,0.003 -3.33,-0.014 -4.995,-0.002c-0.653,0.004 -0.662,-0.513 -0.769,-0.914c-0.168,-0.635 -0.184,-0.907 0.693,-1.015c2.493,-0.307 4.975,-0.7 7.406,-1.366c0.81,-0.222 0.811,-0.192 1.149,0.574c0.178,0.402 0.384,0.793 0.639,1.317" style="fill:#f16f8b;fill-rule:nonzero;"/><path d="M29.48,88.066c0.197,-0.89 0.343,-1.564 0.497,-2.238c0.087,-0.383 0.33,-0.518 0.721,-0.465c1.569,0.214 3.138,0.429 4.71,0.613c0.645,0.075 1.299,0.097 1.948,0.097c0.476,0.001 0.67,0.197 0.634,0.659c-0.012,0.162 0,0.325 -0.002,0.488c-0.008,0.978 -0.008,0.97 -1.005,1.04c-0.648,0.045 -1.295,0.12 -1.943,0.181c-1.839,0.171 -3.624,-0.264 -5.56,-0.375" style="fill:#f16f8b;fill-rule:nonzero;"/><path d="M36.543,53.858c0.923,-0.118 1.845,-0.246 2.77,-0.35c0.76,-0.085 0.86,-0.002 0.876,0.74c0.015,0.691 -0.013,1.382 -0.005,2.073c0.005,0.527 -0.23,0.86 -0.744,0.958c-1.248,0.239 -2.504,0.277 -3.759,0.072c-0.338,-0.055 -0.58,-0.267 -0.651,-0.64c-0.051,-0.279 -0.151,-0.548 -0.207,-0.826c-0.425,-2.118 -0.423,-2.119 1.72,-2.027" style="fill:#fedcc4;fill-rule:nonzero;"/><path d="M29.805,68.129c-0.542,-0.647 -1.047,-1.329 -1.634,-1.933c-0.583,-0.601 -1.247,-1.124 -1.881,-1.685c1.475,-1.31 2.86,-2.54 4.316,-3.834c0.149,2.535 -0.411,4.946 -0.517,7.39l-0.284,0.062Z" style="fill:#c5712c;fill-rule:nonzero;"/><path d="M31.224,23.435l0,-1.287l0.046,0l0,1.288c-0.015,-0.001 -0.031,-0.001 -0.046,-0.001" style="fill:#fedcc4;fill-rule:nonzero;"/><path d="M55.201,13.558c0.044,-0.032 0.087,-0.063 0.13,-0.095c-0.112,-0.196 -0.209,-0.401 -0.339,-0.584c-0.712,-1.008 -1.548,-1.886 -2.608,-2.541c-1.594,-0.983 -3.173,-1.988 -4.763,-2.978c-2.954,-1.841 -6.215,-2.576 -9.654,-2.651c-2.209,-0.047 -4.364,0.243 -6.534,0.723c-2.432,0.538 -4.824,1.138 -7.161,2.004c-4.026,1.491 -7.044,4.171 -9.336,7.725c-0.478,0.742 -0.849,1.566 -1.115,2.53c0.968,-1.209 1.776,-2.397 2.763,-3.413c2.221,-2.287 5.061,-3.68 7.86,-5.096c1.907,-0.965 3.983,-1.392 6.104,-1.63c3.368,-0.378 6.727,-0.681 10.084,0.101c1.188,0.277 2.379,0.581 3.586,0.731c3.206,0.398 5.969,1.846 8.644,3.514c0.811,0.505 1.562,1.104 2.339,1.66m-18.312,-9.801c4.365,0.07 8.064,0.866 11.412,2.959c1.691,1.057 3.404,2.088 5.043,3.224c1.923,1.333 3.12,3.29 4.232,5.295c0.039,0.07 0.057,0.153 0.089,0.227c0.122,0.275 0.187,0.537 -0.072,0.782c-0.312,0.293 -0.628,0.161 -0.887,-0.034c-0.422,-0.316 -0.828,-0.661 -1.196,-1.039c-2.653,-2.729 -5.886,-4.522 -9.498,-5.54c-2.541,-0.716 -5.163,-1.181 -7.776,-1.573c-1.436,-0.214 -2.937,-0.133 -4.397,-0.027c-1.702,0.123 -3.393,0.411 -5.086,0.642c-1.51,0.207 -2.949,0.677 -4.279,1.4c-1.861,1.012 -3.706,2.061 -5.503,3.182c-2.09,1.303 -3.515,3.25 -4.836,5.278c-0.206,0.316 -0.261,0.926 -0.768,0.814c-0.589,-0.131 -0.371,-0.732 -0.382,-1.146c-0.035,-1.325 0.603,-2.461 1.24,-3.525c1.931,-3.225 4.636,-5.712 8,-7.346c2.524,-1.226 5.222,-2.071 8.014,-2.545c1.443,-0.246 2.872,-0.576 4.317,-0.806c0.921,-0.146 1.86,-0.179 2.333,-0.222" style="fill:#231f20;fill-rule:nonzero;"/><path d="M54.306,47.929c0.102,0.583 0.241,1.162 0.296,1.749c0.125,1.337 0.251,2.677 0.299,4.019c0.116,3.259 0.166,6.521 0.289,9.779c0.042,1.096 0.224,2.186 0.342,3.278c0.042,0.398 0.083,0.796 0.044,1.211c-0.69,-0.748 -0.817,-1.708 -0.902,-2.625c-0.211,-2.268 -0.358,-4.545 -0.458,-6.823c-0.137,-3.093 -0.209,-6.19 -0.301,-9.286c-0.012,-0.43 0.018,-0.862 0.028,-1.294c0.121,-0.002 0.242,-0.005 0.363,-0.008" style="fill:#231f20;fill-rule:nonzero;"/><path d="M37.247,42.696c-0.518,0.631 -1.152,0.753 -1.808,0.741c-2.239,-0.042 -3.921,-1.781 -3.749,-4.22c0.135,-1.897 1.332,-3.262 3.026,-3.509c1.17,-0.17 2.179,0.216 2.927,1.154c0.13,0.162 0.126,0.431 0.183,0.65c-0.259,-0.023 -0.532,-0.002 -0.772,-0.083c-0.18,-0.061 -0.304,-0.266 -0.472,-0.381c-1.193,-0.824 -2.778,-0.469 -3.482,0.798c-1.219,2.192 0.238,4.6 2.48,4.636c0.486,0.007 0.973,0.043 1.459,0.07c0.034,0.002 0.066,0.045 0.208,0.144" style="fill:#231f20;fill-rule:nonzero;"/><path d="M43.733,42.1c0.21,2.406 -0.799,4.183 -2.665,5.562c-1.78,1.316 -3.698,1.852 -5.869,1.173c-0.194,-0.061 -0.401,-0.108 -0.571,-0.211c-0.113,-0.068 -0.171,-0.226 -0.254,-0.343c0.145,-0.05 0.296,-0.153 0.434,-0.139c0.403,0.043 0.798,0.173 1.2,0.199c2.729,0.178 4.669,-1.184 6.17,-3.281c0.585,-0.816 1.101,-1.721 0.956,-2.891c-0.588,0.116 -1.158,0.228 -1.863,0.367c0.63,-0.748 1.829,-1.251 2.497,-1.112c0.194,0.04 0.396,0.12 0.55,0.24c0.108,0.084 0.144,0.266 0.211,0.404c-0.143,0.017 -0.284,0.043 -0.428,0.051c-0.11,0.005 -0.222,-0.011 -0.368,-0.019" style="fill:#231f20;fill-rule:nonzero;"/><path d="M28.829,34.709c-0.168,0.533 -0.284,1.091 -0.521,1.591c-0.178,0.375 -0.568,0.594 -1.019,0.518c-0.454,-0.076 -0.749,-0.409 -0.773,-0.832c-0.045,-0.846 -0.042,-1.7 0.027,-2.545c0.033,-0.399 0.288,-0.767 0.744,-0.874c0.477,-0.112 0.737,0.201 1.015,0.514c0.416,0.467 0.464,1.017 0.527,1.628" style="fill:#231f20;fill-rule:nonzero;"/><path d="M40.913,33.67c0.15,-0.587 0.237,-1.065 0.399,-1.516c0.126,-0.35 0.396,-0.708 0.797,-0.617c0.313,0.071 0.631,0.33 0.836,0.592c0.189,0.239 0.336,0.603 0.314,0.897c-0.061,0.793 -0.135,1.606 -0.369,2.36c-0.2,0.641 -0.995,0.715 -1.323,0.127c-0.325,-0.582 -0.459,-1.27 -0.654,-1.843" style="fill:#231f20;fill-rule:nonzero;"/><path d="M55.201,13.558c-0.777,-0.556 -1.528,-1.155 -2.339,-1.66c-2.675,-1.668 -5.438,-3.116 -8.644,-3.514c-1.207,-0.15 -2.398,-0.454 -3.586,-0.731c-3.357,-0.782 -6.716,-0.479 -10.084,-0.101c-2.121,0.238 -4.197,0.665 -6.104,1.63c-2.799,1.416 -5.639,2.809 -7.86,5.096c-0.987,1.016 -1.795,2.204 -2.763,3.413c0.266,-0.964 0.637,-1.788 1.115,-2.53c2.292,-3.554 5.31,-6.234 9.336,-7.725c2.337,-0.866 4.729,-1.466 7.161,-2.004c2.17,-0.48 4.325,-0.77 6.534,-0.723c3.439,0.075 6.7,0.81 9.654,2.651c1.59,0.99 3.169,1.995 4.763,2.978c1.06,0.655 1.896,1.533 2.608,2.541c0.13,0.183 0.227,0.388 0.339,0.584c-0.043,0.032 -0.086,0.063 -0.13,0.095" style="fill:#f289b4;fill-rule:nonzero;"/><g><path d="M20.075,128.249l-0.056,-8.302l2.912,8.302l1.372,0l2.898,-8.302l-0.056,8.302l1.932,0l0,-10.36l-2.828,0l-2.618,7.434l-2.66,-7.434l-2.814,0l0,10.36l1.918,0Z" style="fill:#fff;fill-rule:nonzero;"/><path d="M30.561,124.399c0,1.988 1.442,4.074 4.116,4.074c2.674,0 4.116,-2.086 4.116,-4.074c0,-1.974 -1.442,-4.06 -4.116,-4.06c-2.674,0 -4.116,2.086 -4.116,4.046l0,0.014Zm1.834,0c0,-1.358 1.022,-2.352 2.282,-2.352c1.26,0 2.268,0.994 2.268,2.352c0,1.358 -1.008,2.352 -2.268,2.352c-1.26,0 -2.282,-0.994 -2.282,-2.338l0,-0.014Zm0.532,-5.838l0.532,1.106l3.416,-1.624l-0.602,-1.33l-3.346,1.848Z" style="fill:#fff;fill-rule:nonzero;"/><path d="M40.207,128.249l1.834,0l0,-4.242c0,-1.078 0.448,-1.946 1.75,-1.96c1.288,0 1.666,0.882 1.666,2.03l0,4.172l1.834,0l0,-4.634c0,-1.358 -0.476,-3.276 -2.982,-3.29c-1.372,-0.014 -2.058,0.658 -2.394,1.26c0.014,-0.364 0.014,-0.686 0.014,-1.022l-1.722,0l0,7.686Z" style="fill:#fff;fill-rule:nonzero;"/><path d="M49.083,119.527l1.834,0l0,-1.638l-1.834,0l0,1.638Zm0,8.722l1.834,0l0,-7.686l-1.834,0l0,7.686Z" style="fill:#fff;fill-rule:nonzero;"/><path d="M58.491,125.449c-0.28,0.63 -0.924,1.316 -2.072,1.316c-1.302,0 -2.268,-0.98 -2.268,-2.366c0,-0.672 0.238,-1.288 0.63,-1.708c0.448,-0.434 0.966,-0.672 1.638,-0.658c1.008,0 1.75,0.574 2.072,1.386l1.876,0c-0.448,-1.876 -2.086,-3.094 -4.018,-3.094c-2.296,0 -4.046,1.806 -4.046,4.074c0,2.198 1.68,4.088 4.116,4.088c1.988,0 3.514,-1.33 3.948,-3.038l-1.876,0Z" style="fill:#fff;fill-rule:nonzero;"/><path d="M69.663,120.563l-1.834,0l0,1.12c-0.336,-0.616 -1.19,-1.358 -2.59,-1.358c-2.156,0 -3.906,1.652 -3.906,4.074c0,2.17 1.442,4.088 3.906,4.088c1.078,0 2.1,-0.448 2.59,-1.344l0,1.106l1.834,0l0,-7.686Zm-6.496,3.864c0,-1.19 0.84,-2.394 2.324,-2.394c1.106,0 1.82,0.63 2.142,1.358c0.154,0.336 0.224,0.714 0.21,1.078c-0.028,0.378 -0.112,0.742 -0.294,1.078c-0.35,0.7 -1.022,1.232 -2.044,1.232c-1.652,0 -2.338,-1.386 -2.338,-2.338l0,-0.014Z" style="fill:#fff;fill-rule:nonzero;"/></g></g></svg>