<svg clip-rule="evenodd" fill-rule="evenodd" stroke-linejoin="round" stroke-miterlimit="2" viewBox="0 0 102 172" xmlns="http://www.w3.org/2000/svg"><g fill-rule="nonzero"><path d="m101.998 159.052c0 6.576-18.811 11.907-42.015 11.907s-42.014-5.331-42.014-11.907 18.81-11.906 42.014-11.906 42.015 5.33 42.015 11.906" fill="#5dbc61"/><path d="m56.087 60.405c1.072-.037 1.072-.037 1.456-.85-.483.282-.894.522-1.456.85m-8.892 77.569c.128 1.286.44 1.211 1.309 1.173.597-.027 1.194-.021 1.79-.048.149-.006.423-.08.423-.125.004-.337-.033-.677-.084-1.012-.047-.309-.275-.334-.537-.305-.944.108-1.888.207-2.901.317m33.194 9.535c.575.082 1.137-.034 1.623-.433.481-.397.811-.897.715-1.538-.068-.446-.743-.711-1.517-.654-.233.016-.47.065-.694.133-.4.12-.554.313-.389.789.172.495.17 1.05.262 1.703m-6.269-1.443c-.082.004-.217-.024-.318.022-.393.175-.84.308-1.133.594-.143.14.019.58.026.886.008.317-.014.636-.005.954.017.627.255.862.858.902.59.038 1.101-.166 1.562-.505.643-.472.861-1.043.656-1.649-.249-.733-.868-1.197-1.646-1.204m3.722-1.128c-.507.196-1.03.358-1.516.598-.347.172-.538.459-.228.866.346.456.518.981.454 1.561-.052.457.203.545.575.498.854-.109 1.598-.466 2.218-1.052.395-.373.457-.924.19-1.419-.35-.649-.892-.993-1.693-1.052m-8.833 5.076c.891-.183 1.762-.439 2.443-1.107.547-.536.622-1.052.283-1.726-.526-1.05-2.264-1.328-3.068-.472-.108.115-.146.356-.122.525.131.889.292 1.774.464 2.78m-14.371-7.713c-.799.771-1.495 1.36-2.09 2.038-.707.808-1.298 1.713-1.592 2.767-.133.478.035.7.532.629.942-.135 1.875-.324 2.806-.521.444-.094.656-.43.665-.875.02-.912.055-1.826.023-2.737-.014-.369-.188-.733-.344-1.301m8.192-5.056c.236.914.408 1.681.647 2.428.054.17.341.388.511.379 1.189-.06 2.376-.155 3.559-.283.346-.037.55-.304.479-.696-.153-.843-.306-1.686-.479-2.639-1.516.721-3.049.84-4.717.811m-.414 7.712.222.189c.339-.251.72-.463 1.01-.762.704-.729 1.506-1.312 2.435-1.694 1.321-.544 2.668-1.027 4.001-1.542.125-.048.233-.139.438-.265-.776-.276-1.386-.646-2.161-.453-.725.183-1.473.292-2.217.389-.749.096-1.509.112-2.257.216-.239.033-.603.186-.658.363-.362 1.164-.687 2.343-.813 3.559m-42.143-88.493c1.122.024 2.134-.226 2.882-1.14.471-.575.582-1.239.242-1.76-.497-.757-1.09-1.354-2.129-1.252-.37.036-.778-.055-1.135-.183-.549-.196-.872-.189-1.229.249-.774.948-.798 2.049-.512 3.161.124.483.538.78 1.049.864.273.044.554.042.832.061m46.45-4.183h-.026c.018.319.005.642.057.954.267 1.581 1.736 2.407 3.236 1.815 1.404-.553 2.121-1.614 2.249-3.1.054-.619-.011-1.279-.423-1.693-.453-.456-1.073-.901-1.683-1.017-1.857-.355-3.311.327-3.409 2.563-.007.159-.001.318-.001.478m-31.599 99.79c.307-.061.816-.138 1.313-.263.445-.111.671-.404.57-.889-.188-.896-.357-1.796-.568-2.686-.036-.15-.296-.392-.365-.366-.69.269-1.138-.236-1.654-.486-.876-.426-1.785-.678-2.764-.68-.626 0-1.039.278-1.312.85-.662 1.387-.259 2.74 1.135 3.599 1.048.647 2.232.812 3.645.921m7.548-.094c-.386-1.137-.754-2.187-1.098-3.245-.405-1.249-.78-2.507-1.184-3.756-.173-.532-.298-.591-.762-.323-1.095.631-2.174 1.29-3.337 1.985.818.651 1.022 1.545 1.199 2.446.186.936.363 1.874.528 2.813.05.293.108.589.461.59 1.379.006 2.79.237 4.193-.51m21.894-.508c.01-.05.021-.101.031-.152.358 0 .724.049 1.072-.009 1.06-.178 1.849-.726 2.165-1.798.282-.953-.177-2.321-.943-2.916-1.205-.935-4.356-.623-5.352.529-1.081 1.253-.759 3.087.746 3.767.704.319 1.518.394 2.281.579m-14.246-14.689c-.077-.368-.122-.595-.172-.821-.682-3.027-1.636-5.996-1.908-9.108-.025-.291-.172-.455-.452-.431-.792.069-1.587.128-2.37.258-.825.137-.846.219-.681 1.028.311 1.522.597 3.049.925 4.566.304 1.401.643 2.793.982 4.185.073.3.145.7.559.667 1.019-.083 2.033-.221 3.117-.344m13.868-63.67c-.794-.288-1.385-.502-1.977-.716-2.06-.746-4.115-1.503-6.182-2.232-.61-.216-.748-.118-.77.458-.104 2.664.17 5.277 1.077 7.868 2.747-1.57 5.118-3.577 7.852-5.378m-17.975-10.466v.006c-.159 0-.319.005-.479 0-1.456-.057-1.485-.058-1.523 1.334-.015.561-.243.783-.759.855-.511.071-1.022.169-1.524.291-.884.214-1.057.488-.791 1.345.115.369.291.763.553 1.036.644.677 1.46 1.134 2.371 1.321 2.707.558 5.129-.9 6.326-3.051.193-.345.142-.826.204-1.244-.381-.045-.771-.164-1.141-.12-1.174.139-1.171.162-1.233-.965-.005-.08-.008-.16-.005-.239.016-.392-.148-.588-.563-.573-.478.018-.958.004-1.436.004m20.514 73.21c-.085-.219-.113-.334-.17-.431-1.417-2.356-2.019-5.014-2.817-7.598-.092-.299-.089-.628-.137-.942-.1-.629-.186-1.262-.317-1.885-.071-.343-.244-.508-.687-.409-.655.145-1.339.161-2.013.212-.706.052-.734.048-.567.79.422 1.863.876 3.719 1.307 5.581.333 1.434.637 2.876.986 4.307.233.959.258.94 1.167.977 1.094.046 2.131-.182 3.248-.602m-22.788-65.795v.029c1.196 0 2.394.049 3.587-.011 2.107-.104 4.209-.293 6.316-.404.532-.029.658-.239.673-.723.023-.792.138-1.581.179-2.374.039-.715.022-1.434.042-2.15.012-.431-.218-.565-.598-.528-.556.052-1.11.119-1.664.175-.904.09-.959.085-1.014.951-.058.9-.497 1.583-1.042 2.226-.784.926-1.747 1.588-2.873 2.08-1.107.484-2.187.695-3.355.339-.151-.046-.325-.018-.473-.068-1.585-.534-3.074-1.178-3.473-3.066-.087-.409-.146-1.056-.388-1.147-.386-.147-.915.077-1.381.151-.157.025-.314.061-.464.112-.634.214-.793.363-.762 1.033.04.87.158 1.739.276 2.603.101.74.156.77.911.771 1.834.004 3.669.001 5.503.001m24.15 76.214c1.16-.873 2.348-1.109 3.601-.369.355.21.584.047.862-.122.715-.437 1.499-.595 2.293-.321.464.16.696-.011 1.036-.28.887-.702 1.893-.991 3.019-.587.209.075.525.179.658.083.8-.578 1.717-.554 2.882-.539-.896-.807-1.534-1.616-2.365-2.074-1.142-.63-2.433-1.05-3.779-.974-1.349.076-2.69.258-4.034.402-2.423.26-4.6 1.243-6.735 2.331-.308.157-.566.413-.897.659 1.841.376 1.905.409 3.459 1.791m-31.379-72.096c.465 0 .736.006 1.007-.001 3.346-.088 6.691-.218 10.038-.252 2.125-.021 4.189-.433 6.269-.756.172-.027.433-.268.44-.42.037-.78.005-1.564-.003-2.332-2.073.139-4.018.361-5.964.381-3.306.034-6.616-.048-9.924-.11-.364-.007-.626.008-.757.378-.346.969-.69 1.94-1.106 3.112m15.534 10.442c-2.129.206-4.181.417-6.237.598-1.349.12-2.702.178-4.05.297-2.386.212-4.771.264-7.155.007-.42-.046-.599.075-.65.464-.145 1.128-.292 2.256-.447 3.46 1.246.036 2.395.102 3.542.094 1.793-.011 3.588-.033 5.378-.127 1.429-.075 2.856-.233 4.275-.413 1.3-.165 2.591-.403 3.882-.624.263-.045.546-.082.631-.441.265-1.107.552-2.208.831-3.315m-14.341.309c.003.046.006.091.01.136 3.773-.289 7.546-.56 11.317-.88.988-.084 1.967-.3 2.943-.492.299-.059.656-.171.84-.384.351-.407.446-.939.26-1.467-.188-.53-.667-.508-1.106-.498-.775.017-1.497-.037-2.082-.678-.169-.185-.575-.22-.87-.213-1.713.044-3.425.184-5.136.173-2.712-.017-5.423-.129-8.135-.2-.725-.02-.749-.025-.903.717-.218 1.051-.385 2.112-.599 3.163-.085.42.059.618.467.621.998.008 1.996.002 2.994.002m16.532 56.656c-.204-.348-.333-.705-.575-.953-.498-.511-1.069-1.121-1.822-.969-1.214.246-2.425.29-3.643.256-.572-.015-1.05.127-1.369.569-1.306 1.819-3.097 2.943-5.161 3.702-.591.217-.671.363-.477.998.464 1.522.958 3.035 1.441 4.551.024.076.071.144.097.219.108.327.308.449.637.288.569-.28 1.164-.52 1.7-.853 1.166-.723 2.368-1.288 3.773-1.359.967-.049.961-.09 1.189-1.122.043-.193.11-.382.188-.565.839-1.95 2.097-3.551 4.022-4.762m28.72 5.508c-.745.941-1.675 1.397-2.774 1.1-.552-.15-.89-.013-1.292.263-.706.486-1.49.805-2.356.721-.519-.05-.886.101-1.31.384-.743.497-1.59.836-2.473.35-.613-.337-1.116-.24-1.669.116-.683.438-1.439.71-2.27.58-.379-.06-.586.118-.804.377-.829.987-1.907 1.429-3.182 1.324-1.139-.094-2.274-.251-3.524-.393-.058.332-.145.755-.203 1.181-.066.488.132.846.573 1.081.532.283 1.059.537 1.696.48.435-.039.878-.006 1.317.014 2.313.105 4.626.006 6.916-.288 2.326-.299 4.639-.711 6.943-1.149 1.404-.266 2.834-.437 4.173-1.001 1.283-.541 1.321-.557 1.327-1.908.002-.399.022-.8-.01-1.196-.063-.775-.286-1.482-1.078-2.036m-27.926-69.033c-.188-1.092-.364-2.108-.537-3.124-.141-.829-.223-.888-1.113-.786-.119.013-.239.023-.356.044-1.77.326-3.551.485-5.353.467-1.756-.017-3.512.023-5.268.046-1.794.024-3.588.101-5.38.056-.501-.012-.746.06-.859.522-.329 1.354-.657 2.707-.982 4.062-.081.337.026.546.403.555.199.004.4.009.599.009 3.594-.002 7.186-.003 10.78-.007.32 0 .643.01.957-.036.47-.068 1.045-.051 1.363-.32.244-.207.157-.801.219-1.223.089-.601.411-1.061.979-1.248.512-.169 1.09-.117 1.42.359.581.838 1.36.862 2.229.71.269-.047.544-.053.899-.086m3.031 12.381c-.461.806-1.056 1.239-1.822.92-.727-.302-1.387.381-2.066.008-.169-.094-.302-.253-.46-.368-.157-.114-.317-.281-.49-.302-.84-.103-1.392-.545-1.705-1.314-.104-.255-.264-.346-.56-.269-2.33.603-4.73.639-7.108.853-1.11.1-2.221.239-3.333.263-2.113.044-4.229.028-6.344.012-.472-.004-.744.083-.767.63-.044.992-.188 1.982-.21 2.974-.037 1.662-.102 1.466 1.39 1.381 2.822-.16 5.641-.305 8.456-.643 3.396-.408 6.829-.491 10.221-1.008 1.862-.284 3.614-.873 5.426-1.621-.209-.504-.387-.934-.628-1.516m1.048 2.376c-1.633.499-3.16 1.133-4.749 1.41-2.31.402-4.662.569-7.001.794-1.428.137-2.879.09-4.291.311-2.926.457-5.87.535-8.817.654-.199.008-.422-.052-.592.019-.182.076-.447.266-.45.411-.02 1.115.008 2.232.034 3.348.008.328.202.508.535.52.239.009.478.021.717.01 1.953-.088 3.905-.18 5.857-.276.197-.009.391-.068.589-.092 1.699-.207 3.397-.428 5.099-.613 1.464-.159 2.935-.262 4.399-.419 1.387-.149 2.764-.369 4.152-.497 1.885-.173 3.675-.694 5.437-1.344.26-.096.506-.233.754-.364.252-.134.318-.334.172-.592-.624-1.108-1.247-2.216-1.845-3.28m-22.225 59.457c-1.28.647-2.455.781-3.657.514-.656-.146-1.315-.33-1.931-.593-.516-.222-.918-.14-1.331.173-.426.325-.379.757-.279 1.197.132.582.271 1.163.416 1.742.196.787.201.78 1.011.891 2.713.369 5.422.115 8.119-.148 3.051-.297 6.082-.794 9.133-1.102 2.703-.272 5.366-.68 7.966-1.489.583-.182.931-.489.965-1.056.054-.872.052-1.749.022-2.622-.009-.26-.118-.646-.306-.749-.922-.505-1.791-1.136-2.984-.909-1.76.334-3.536.596-5.318.787-.733.079-1.405.225-2.049.564-1.02.537-2.043 1.073-3.072 1.592-.27.136-.279.32-.263.582.062.975.041.946-.817 1.272-1.276.485-2.6.302-3.91.354-.752.03-1.462.006-1.715-1m27.565-51.292c-.325-.436-.552-.752-.79-1.06-.511-.663-1.032-1.318-1.541-1.983-.457-.597-.44-.564-1.154-.33-1.513.493-3.018 1.034-4.565 1.383-1.196.269-2.45.276-3.678.4-1.426.145-2.852.286-4.276.435-1.783.186-3.565.379-5.347.569-1.741.185-3.48.409-5.225.544-1.231.094-2.472.065-3.709.095-.713.018-.796.078-.703.744.137.984.328 1.961.493 2.941.074.436.348.59.764.579 1.272-.032 2.553.136 3.805-.236.342-.102.699-.175 1.053-.207 1.784-.167 3.569-.307 5.352-.471 2.457-.227 4.927-.301 7.365-.738 1.171-.21 2.369-.266 3.552-.418 2.377-.304 4.674-.966 6.977-1.594.52-.143 1.009-.401 1.627-.653m-28.162-32.444c-.187.537-.33.927-.461 1.321-.563 1.702-1.123 3.405-1.686 5.107-.15.454-.338.898-.46 1.358-.964 3.66-1.947 7.314-2.861 10.986-.646 2.589-1.079 5.234-1.818 7.793-.633 2.196-1.105 4.399-1.29 6.668-.034.427-.183.666-.619.721-.154.019-.302.103-.448.166-1.866.804-2.962 2.243-2.97 4.247-.006 1.423.454 2.836 1.311 4.028.231.323.691.528 1.088.675.594.221.826.056.879-.564.085-.984-.058-1.885-.812-2.644-.581-.585-.52-.772-.157-1.473.308-.598.526-1.241.814-1.85.073-.153.263-.251.399-.375.092.155.27.315.26.463-.023.35-.092.713-.222 1.038-.194.478-.455.929-.696 1.408.215.323.465.637.646.987.182.351.332.729.43 1.112.379 1.492.013 2.306-1.407 2.977.448.584.848 1.172 1.317 1.698.323.36.791.377 1.219.171.387-.186.444-.583.363-.934-.15-.653-.335-1.303-.577-1.926-.236-.603-.474-1.195-.371-1.85.024-.153.208-.281.317-.421.108.106.273.192.317.32.378 1.086.705 2.19 1.11 3.265.147.39.403.781.713 1.055.355.314.864.067.84-.404-.022-.462-.151-.941-.338-1.367-.287-.657-.675-1.267-.993-1.91-.139-.282-.236-.593-.298-.902-.025-.127.092-.282.145-.425.166.071.409.096.483.221.325.548.562 1.15.906 1.685.274.427.648.793.998 1.167.056.06.262.073.318.021.102-.096.233-.299.193-.383-.148-.318-.333-.629-.554-.901-.455-.555-.965-1.065-1.4-1.634-.1-.132.01-.425.023-.643.17.065.376.09.505.203.418.365.791.781 1.217 1.135.118.097.451.122.526.037.139-.155.205-.413.214-.632.005-.126-.142-.281-.256-.385-.469-.429-.912-.904-1.44-1.247-.546-.355-.843-.775-.611-1.386.413-1.084.041-1.929-.658-2.738-.192-.221-.364-.548-.365-.828-.005-.753.014-1.52.156-2.257.358-1.876.783-3.739 1.193-5.605.068-.307.115-.665.303-.892.634-.768.651-1.684.742-2.594.134-1.348.247-2.698.434-4.037.215-1.538.485-3.067.759-4.595.696-3.891 1.627-7.718 3.169-11.375.09-.212.216-.471.166-.667-.174-.671-.419-1.324-.705-2.189m2.183 38.72c.022.256.02.619.087.969.323 1.679.615 3.367 1.011 5.03.819 3.444 1.691 6.877 2.556 10.31.107.422.275.834.457 1.231.526 1.141.801 1.28 2.049 1.101.118-.017.232-.063.35-.078.946-.124 1.893-.241 2.839-.368.392-.053.781-.133 1.173-.193.48-.074.562-.292.382-.749-.846-2.153-1.374-4.402-1.952-6.637-.759-2.93-1.513-5.852-1.561-8.911-.017-1.028-.259-2.05-.371-3.078-.046-.41-.215-.528-.624-.488-1.624.158-3.249.28-4.874.428-.353.033-.701.129-1.054.18-.329.047-.497.205-.471.553.016.198.003.398.003.7m13.481-2.586c.415 1.777.832 3.394 1.164 5.029.435 2.144.763 4.311 1.211 6.453.512 2.455 1.107 4.893 1.662 7.34.163.72.313.807 1.071.736 1.067-.101 2.142-.244 3.21-.217 1.123.03 2.122-.301 3.115-.723.564-.239.574-.32.363-.916-.52-1.465-1.05-2.926-1.556-4.396-1.431-4.149-2.4-8.423-3.392-12.69-.35-1.507-.328-1.511-1.88-1.215-.157.03-.316.042-.475.062-1.457.174-2.914.348-4.493.537m3.393-38.971c-.103 1.027-.223 1.852-.259 2.681-.036.814-.001.818.787 1.087 2.302.784 4.602 1.576 6.91 2.343.751.249 1.525.423 2.285.645.167.048.318.153.476.231-.088.169-.134.396-.271.495-.515.373-1.067.695-1.593 1.052-2.244 1.522-4.485 3.05-6.728 4.577-.13.089-.299.157-.379.281-.303.47-.68.354-1.033.125-.505-.33-1.043-.362-1.61-.287-.992.131-1.885.052-2.563-.857-.32-.429-.802-.289-1.03.196-.474 1.008.279 2.254 1.391 2.302.279.011.56-.001.837.029.707.078 1.141.456 1.367 1.149.208.637.001 1.173-.243 1.724-.452 1.021-.949 2.024-1.342 3.067-.347.918-.372 1.876.086 2.787.173.344.489.611.864.495.258-.08.536-.357.642-.613.179-.435.209-.929.337-1.389.213-.766.431-1.531.692-2.281.101-.291.292-.571.506-.794.1-.104.353-.061.537-.085.019.177.104.379.045.525-.262.662-.618 1.29-.841 1.963-.335 1.015-.595 2.056-.865 3.091-.031.122.061.394.116.399.218.023.561.046.643-.075.26-.387.439-.831.623-1.264.465-1.098.904-2.207 1.379-3.3.101-.234.269-.595.595-.365.123.087.068.487.024.731-.034.187-.201.345-.269.531-.391 1.083-.783 2.167-1.14 3.262-.047.142.083.485.16.494.203.024.54-.018.613-.151.305-.552.567-1.134.777-1.729.212-.598.321-1.232.524-1.834.065-.192.302-.477.435-.465.374.037.286.391.287.66.001.595-.035 1.195.025 1.785.029.29.178.624.385.82.163.155.552.243.74.151.166-.082.262-.449.261-.69-.001-.216-.153-.446-.278-.645-.53-.838-.76-1.746-.688-2.735.052-.712.154-1.428.12-2.137-.117-2.416-.503-1.907 1.549-3.293 2.658-1.794 4.956-4.017 7.496-5.946.411-.312.775-.69 1.136-1.062.655-.68.612-1.545.503-2.373-.095-.718-.805-.835-1.349-1.029-1.088-.387-2.188-.756-3.304-1.05-2.547-.67-5.08-1.362-7.515-2.389-.87-.366-1.82-.542-2.853-.84m-33.5-14.492c-.486-.944-.797-1.678-1.222-2.34-.522-.813-1.305-1.275-2.297-1.325-.398-.02-.799-.02-1.196-.058-.137-.013-.265-.116-.397-.178.117-.137.217-.373.353-.397.914-.159 1.824-.188 2.691.253.232.119.609.318.733.226.648-.478.739.057.91.441.161.365.288.744.437 1.114.428 1.071.768 2.184 1.696 2.983.228.196.317.546.488.814.275.431.531.88.852 1.273 1.414 1.729 3.205 3.018 5.152 4.04 1.584.831 3.292 1.427 4.947 2.123.108.045.233.055.35.073 2.165.327 4.269.969 6.466 1.164 1.833.162 3.661.392 5.497.26 1.063-.077 2.128-.306 3.164-.574 1.195-.311 2.375-.7 3.533-1.132.891-.332 1.766-.732 2.594-1.198.728-.409 1.408-.917 2.06-1.443 1.209-.975 2.507-1.882 3.536-3.026 1.139-1.268 2.048-2.75 2.995-4.178.369-.556.673-1.199.826-1.845.243-1.021.632-1.884 1.406-2.643.791-.775 1.609-1.448 2.68-1.724.529-.136 1.108-.193 1.651-.141.793.076 1.127.519 1.159 1.442-1.332-1.179-2.625-.762-3.864.01-1.264.788-1.907 1.954-1.897 3.56.349-.159.636-.277.912-.416 1.24-.621 2.429-.519 3.436.403.462.423.827.961 1.191 1.478.336.477.453.532.93.208.13-.09.257-.191.366-.306 1.295-1.377 1.896-3.044 1.869-4.901-.021-1.442-1.562-3.16-2.937-3.216-2.193-.088-4.188.488-5.689 2.237-.155.18-.313.362-.495.512-.07.058-.244.074-.313.026-.074-.053-.098-.199-.111-.308-.008-.072.053-.148.07-.225.204-.941-.036-1.457-.874-1.891-.213-.111-.426-.223-.629-.35-1.274-.799-2.044-1.897-1.949-3.458.045-.739.159-1.475.247-2.251-.517-.233-1.12-.451-1.667-.765-1.017-.581-1.75-1.439-1.899-2.622-.179-1.407.024-2.786.681-4.071.161-.314.335-.621.537-.994-1.14-.659-2.348-1.186-2.764-2.642-1.484 1.319-3.075 1.53-4.779.879-1.876-.718-2.518-2.202-2.356-4.145-3.819 2.165-7.336 1.27-8.727-3.333-.692 1.401-1.803 2.263-3.197 2.73-.941.315-1.922.518-2.891.739-.709.161-.773.143-.713.903.108 1.402-.487 2.466-1.455 3.391-1.115 1.066-2.477 1.572-3.98 1.758-.549.068-1.286-.06-1.595.247-.293.291-.185 1.033-.175 1.575.018 1.089-.435 1.959-1.252 2.598-.558.435-1.228.734-1.866 1.056-.571.288-.606.277-.334.86.593 1.275.656 2.529-.048 3.785-.423.753-1.028 1.308-1.774 1.735-.601.343-.619.378-.25.979.538.876.772 1.843.867 2.836.082.858-.279 1.572-1.062 1.992-.815.437-1.517.276-2.261-.357-.512-.436-1.054-.872-1.654-1.164-1.171-.569-2.315-.475-3.357.388-.663.549-1.205 1.197-1.472 2.003-.514 1.552-.569 3.049.731 4.324.677.662 1.498 1.044 2.343 1.413.397.173.634.128.874-.278.58-.982 1.499-1.232 2.581-1.072.423.062.854.075 1.587.136m2.42 3.455c-.266 1.444-1.066 2.11-2.141 2.499-1.084.392-2.207.396-3.309.165-.989-.207-1.629-1.03-1.722-2.059-.039-.435-.017-.877.005-1.315.02-.367-.068-.576-.482-.668-.954-.211-1.785-.7-2.525-1.322-.777-.654-1.386-1.428-1.559-2.476-.435-2.616.655-4.612 2.548-5.891.833-.563 1.764-.709 2.752-.488 1.214.272 2.179.936 3.033 1.819.538.557 1.313.421 1.666-.268.12-.234.133-.536.145-.81.049-1.226-.527-2.222-1.191-3.19-.373-.545-.315-.738.238-1.026.247-.129.52-.21.765-.342 1.315-.712 2.008-1.768 1.876-3.315-.053-.618-.154-1.256-.616-1.634-.28-.231-.817-.189-1.24-.197-.607-.012-1.1-.201-1.417-.73-.069-.116-.091-.333-.026-.434.056-.088.274-.124.406-.101.425.074.845.275 1.264.268 1.402-.021 2.673-.512 3.735-1.408.402-.339.778-.872.875-1.374.161-.83.34-1.757-.547-2.414-.127-.094-.154-.433-.098-.621.03-.103.327-.138.508-.181.071-.017.157.024.233.045 1.849.52 3.558.054 5.165-.832.889-.491 1.571-1.256 1.889-2.247.267-.831.199-1.64-.362-2.381-.201-.266-.011-.551.33-.578.156-.013.317.019.475.035 1.825.189 3.487-.326 5.027-1.245 1.013-.604 1.676-1.484 1.634-2.737-.019-.555-.092-1.107-.148-1.66-.016-.158-.102-.319-.078-.466.022-.128.14-.315.241-.334.114-.02.294.089.379.195.093.117.115.293.163.446.298.948.571 1.906.901 2.843.25.713.534 1.419.869 2.095.473.951 1.277 1.551 2.311 1.742 1.291.238 2.558.116 3.672-.665.421-.295.773-.688 1.18-1.004.168-.131.459-.298.585-.234.153.078.263.381.266.588.007.717-.043 1.436-.066 2.153-.029.934.421 1.624 1.191 2.074 1.369.799 3.39.859 4.576-.87.136-.197.232-.432.401-.593.214-.203.493-.5.726-.483.4.028.353.453.345.771-.007.28-.022.559-.039.838-.034.513.122.963.537 1.268 1.524 1.118 3.147 1.9 5.114 1.366.268-.072.607-.248.725.083.059.17-.163.536-.357.676-.276.199-.639.359-.973.376-.592.032-1.213.029-1.781-.119-.556-.144-.826.046-1.055.48-.595 1.122-.793 2.318-.77 3.583.019 1.025.465 1.775 1.297 2.278.503.305 1.087.479 1.641.693.222.086.47.102.695.181.515.183.624.451.376.899-.058.103-.156.183-.221.283-.648 1.02-.656 2.857.153 3.709.531.557 1.253 1.026 1.979 1.272.605.205.916.475.954 1.088.774-.36 1.439-.732 2.147-.982.709-.25 1.454-.43 2.197-.552 2.775-.454 5.312 2.021 4.969 4.816-.264 2.142-.975 4.036-2.957 5.195-.487.284-.708.617-.752 1.216-.172 2.316-2.283 3.922-4.312 3.772-1.67-.123-2.955-1.231-3.121-2.892-.043-.434-.043-.872-.066-1.355-.134.099-.26.147-.316.237-1.672 2.711-3.962 4.781-6.652 6.442-.217.134-.39.34-.615.541 1.769 1.46 3.573 2.399 5.886 1.614.42-.142.976-.105 1.405.04 1.283.436 2.591.422 3.911.387 1.562-.041 2.796-.659 3.497-2.097.296-.607.72-.761 1.345-.745.917.022 1.84.01 2.754-.066 1.372-.114 2.552-.674 3.386-1.796.772-1.038.508-2.281-.567-2.948-.102-.063-.268-.098-.298-.183-.085-.239-.198-.522-.134-.74.038-.13.387-.224.599-.229.179-.004.372.127.542.226.578.339 1.209.409 1.854.352 1.279-.114 2.525-.382 3.695-.929 1.452-.679 2.599-1.696 3.432-3.069.423-.697.497-1.447.233-2.188-.698-1.956-3.831-3.274-5.572-1.721-.238.212-.488.414-.75.594-.252.173-.524.214-.743-.065-.21-.27-.142-.54.078-.753.372-.361.771-.695 1.155-1.043.473-.429.983-.825 1.405-1.299.901-1.012.967-2.221.118-3.272-.861-1.068-1.94-1.788-3.421-1.571-.197.029-.398.062-.597.053-.536-.026-.761-.4-.412-.801.968-1.108 1.316-2.455 1.535-3.834.242-1.513.234-3.016-.595-4.409-.722-1.213-1.652-1.935-3.147-1.563-.115.028-.243.05-.357.029-.26-.049-.627-.05-.74-.215-.106-.154-.007-.535.12-.746 1.217-2.026.986-4.058-.03-6.043-.737-1.443-1.931-1.951-3.378-1.594-.23.058-.452.158-.667.26-.321.15-.686.443-.974.121-.16-.178-.088-.581-.084-.882.004-.277.101-.556.08-.828-.143-1.786-.678-3.446-1.743-4.899-.863-1.176-1.966-1.53-3.388-1.154-.153.04-.296.12-.449.166-.719.216-.953.072-1.026-.663-.039-.396-.028-.797-.041-1.197-.033-1.015-.321-1.967-.775-2.864-.73-1.443-1.763-1.96-3.347-1.651-1.337.262-2.644.609-3.683 1.594-.346.328-.669.181-.77-.279-.016-.077-.022-.16-.015-.238.076-.858-.395-1.441-1.002-1.934-1.262-1.025-2.688-1.742-4.292-2.018-1.486-.256-2.823.036-3.559 1.703-.132.298-.271.688-.635.584-.235-.067-.404-.421-.566-.67-.082-.126-.061-.315-.123-.459-.562-1.284-1.45-2.223-2.892-2.412-1.162-.153-2.314.008-3.397.497-.962.433-1.893.895-2.061 2.118-.045.327-.3.458-.632.346-.189-.064-.368-.172-.561-.208-1.386-.261-2.809-.435-4.122.15-1.725.77-3.137 1.918-3.579 3.906-.122.548-.479.828-1.025.814-.556-.014-1.117-.05-1.666-.138-1.91-.309-3.59.094-4.869 1.613-.536.637-1.048 1.321-.495 2.264.27.458.054.76-.481.795-.597.039-1.2-.002-1.797.034-2.145.129-4.592 1.982-5.28 3.976-.471 1.367-.031 2.653 1.179 3.425.202.128.436.212.621.358.279.221.218.661-.112.781-.218.079-.47.061-.702.109-1.443.295-2.899.538-4.32.916-1.217.323-1.819 1.256-1.885 2.489-.047.875-.094 1.769.024 2.632.222 1.629.634 3.21 1.781 4.492.163.183.226.456.334.688-.247.072-.491.185-.743.207-.514.046-1.054-.042-1.547.078-.648.158-1.289.408-1.878.722-.461.246-.841.703-.824 1.251.048 1.476.161 2.952 1.653 3.823.303.178.299.616-.015.772-.201.1-.457.141-.686.13-.637-.031-1.272-.13-1.91-.153-.921-.032-1.847-.018-2.652.53-1.284.874-1.856 2.806-1.505 4.025.354 1.234 1.619 2.303 3.082 2.482.237.029.479.011.719.027.158.011.346-.002.465.078.143.098.312.282.313.43.001.147-.165.379-.307.425-.255.084-.548.07-.826.077-1.039.025-1.47.335-1.688 1.299-.84 3.703 1.387 6.935 4.566 7.688 1.436.341 2.898.582 4.35-.058.514-.227.698-.088.89.451.094.263.149.539.235.805.387 1.211 1.05 2.248 2.066 3.015 1.463 1.102 3.042 1.56 4.807.707.286-.138.599-.221.892-.347.677-.29 1.252-.108 1.75.381.341.336.64.715.989 1.043 1.49 1.406 3.204 1.701 5.084.923.958-.396 1.893-.853 2.821-1.318.565-.283 1.051-.275 1.542.15.933.809 1.894.717 2.84.019.403-.297.787-.622 1.273-1.009-4.803-1.261-9.128-3.073-12.614-6.903m7.871 41.06c-.443 1.838-.861 3.484-1.229 5.14-.231 1.034-.276 2.038.596 2.885.639.62.647 1.479.44 2.254-.175.649.044.917.54 1.242.493.324.917.767 1.326 1.201.53.56.615 1.396.116 1.957-.329.369-.44.625-.31 1.132.202.79-.02 1.082-.905 1.362-.345.11-.444.27-.449.58-.003.199.004.403-.036.596-.135.667-.619 1.007-1.309.915-.234-.032-.479-.085-.686-.193-.294-.156-.472-.099-.734.111-.978.785-2.128.66-2.915-.361-.407-.529-.66-1.175-.989-1.765-.13-.233-.224-.557-.427-.667-1.1-.6-1.413-1.682-1.769-2.741-.14-.415-.245-.842-.343-1.269-.398-1.746-.051-3.351 1.142-4.671.547-.604 1.297-1.068 2.033-1.442.535-.271.765-.581.839-1.149.157-1.223.245-2.476.587-3.65 1.798-6.165 2.781-12.528 4.585-18.688.514-1.759 1.159-3.48 1.74-5.219.29-.87.553-1.749.858-2.613.358-1.014.761-2.012 1.119-3.025.144-.407.255-.833.319-1.26.138-.926.375-1.255 1.294-1.472.888-.21 1.773-.372 2.715-.348.813.02 1.642-.266 2.452-.467.439-.109.556-.509.511-1.193-.03-.467-.36-.419-.669-.497-1.395-.349-2.879-.078-4.252-.615-.138-.054-.411.154-.583.289-.626.49-1.202 1.055-1.863 1.493-1.094.726-2.268.802-3.363.018-.552-.395-.999-.321-1.529-.043-.672.352-1.367.662-2.049.995-2.353 1.145-5.025.356-6.581-1.322-1.055-1.137-1.114-1.189-2.487-.543-2.507 1.179-5.897-.226-7.314-2.895-.351-.662-.596-1.38-.852-1.985-1.115.033-2.186.097-3.257.091-3.622-.022-6.759-3.327-6.741-6.782.007-1.287-.011-2.565.895-3.708-.324-.224-.621-.409-.899-.621-1.589-1.22-1.989-2.502-1.46-4.687.465-1.929 2.049-3.107 3.896-3.162.628-.019 1.257-.003 1.935-.003-.267-.817-.549-1.517-.723-2.243-.533-2.236.559-3.856 2.82-4.245.422-.072.845-.14 1.347-.223-.288-.688-.57-1.253-.766-1.846-.63-1.915-.947-3.86-.548-5.881.276-1.396 1.089-2.289 2.412-2.708.795-.252 1.623-.406 2.438-.594.344-.079.693-.132 1.116-.21-.315-.579-.678-1.051-.845-1.584-.521-1.662-.113-3.165 1.018-4.453 1.509-1.718 3.349-2.82 5.708-2.862.345-.006.671-.034.63-.495-.086-.966.381-1.681 1.008-2.339.786-.824 1.665-1.526 2.818-1.699.74-.112 1.504-.068 2.258-.081.238-.004.478.038.717.051 1.27.068 1.251.057 1.807-1.114 1.023-2.153 3.806-4.339 7.369-3.815.237.034.47.09.705.139.343.071.587-.001.796-.337.979-1.576 2.589-2.022 4.276-2.299.312-.051.64-.012.958-.035 1.881-.133 3.22.707 4.146 2.294.077.131.169.253.245.366.124-.036.227-.032.263-.08 1.137-1.496 2.733-1.563 4.348-1.259 1.669.315 3.167 1.09 4.466 2.206.211.18.395.394.576.607.276.323.491.86.817.934.352.08.802-.264 1.207-.431 1.013-.416 2.07-.54 3.159-.578 1.308-.045 2.204.568 2.895 1.59.808 1.193 1.056 2.566 1.246 3.955.027.193.035.389.061.679.262-.022.485-.018.699-.063 1.524-.316 2.764.17 3.72 1.362 1.208 1.507 1.805 3.265 2.019 5.165.034.309.05.62.08 1.008.334-.072.593-.139.855-.181 1.414-.228 2.591.147 3.506 1.306 1.318 1.673 1.698 3.567 1.399 5.629-.073.503-.22.995-.345 1.547.253.033.446.087.635.078 1.159-.054 1.969.528 2.626 1.404 1.172 1.564 1.491 3.348 1.201 5.222-.193 1.251-.581 2.472-.903 3.797 1.533.219 2.919.904 3.811 2.338.942 1.513.714 2.959-.454 4.4.361.068.612.111.86.164 1.34.285 2.477.912 3.272 2.048.853 1.218.967 2.498.23 3.827-1.268 2.283-3.265 3.568-5.747 4.137-.96.22-1.961.267-2.953.394-.023.053-.093.132-.078.188.603 2.11-.279 3.304-2.006 4.368-.894.551-1.906.811-2.964.835-.679.016-1.36.033-2.039.011-.452-.015-.745.152-.967.543-.954 1.676-2.523 2.226-4.331 2.316-1.408.07-2.789-.032-4.131-.522-.274-.1-.641-.14-.904-.043-1.829.672-3.458.221-4.986-.826-.52-.357-.916-.626-1.51.006-.515.547-1.313.615-2.006.223-.475-.27-.882-.216-1.363-.064-1.634.517-3.278 1.004-4.922 1.488-.375.11-.341.382-.342.662-.002.355.184.503.524.484.556-.032 1.113-.053 1.668-.102 1.19-.107 2.378-.261 3.571-.332.683-.041.713.042.758.754.05.805.044.823.802 1.058 3.424 1.062 6.855 2.098 10.274 3.177 1.102.347 2.184.764 3.249 1.212.621.261 1.333.591 1.44 1.324.141.972.299 2.006-.383 2.884-.292.376-.605.75-.965 1.059-1.453 1.246-2.895 2.51-4.405 3.685-1.354 1.054-2.771 2.03-4.2 2.979-.603.4-.871.844-.834 1.572.047.954.004 1.913-.022 2.87-.024.858.105 1.654.626 2.381.223.31.365.719.422 1.101.151 1.035-.398 1.591-1.445 1.521-.225-.015-.446-.083-.748-.142.102.33.142.606.267.836 1.454 2.7 2.703 5.528 4.902 7.762.39.396.728.851 1.043 1.311.336.49.298.796-.205 1.104-.541.33-1.126.613-1.725.814-1.096.366-2.218.657-3.328.98-.805.234-.852.281-.661 1.069.634 2.632 1.308 5.256 1.925 7.893.803 3.426 1.977 6.729 3.25 10 .23.589.263 1.108-.324 1.465-.495.302-.4.716-.34 1.155.411 2.974 1.24 5.831 2.411 8.593.172.404.321.818.487 1.224.15.365.259.738.77.803.395.05.574.38.641.77.152.903.36 1.798.466 2.706.053.457.125.746.657.781.31.02.628.132.917.258 1.173.513 2.362.57 3.62.342 2.096-.379 4.139-.082 6.096.745.358.152.674.417.987.658.188.145.307.385.503.51 1.281.814 1.781 2.026 1.866 3.481.012.212.146.471.307.612.992.868 1.252 2.007 1.239 3.242-.027 2.737-.043 2.636-2.372 3.451-1.456.509-3.014.753-4.541 1.033-1.92.353-3.846.752-5.786.885-1.821.125-3.606.637-5.47.403-1.221-.154-2.475-.077-3.713-.05-.817.019-1.492-.308-2.086-.78-.282-.225-.473-.633-.575-.994-.094-.331-.103-.744.01-1.064.303-.858.097-1.545-.293-2.358-.577-1.207-.199-2.437.64-3.45.373-.45.532-.872.621-1.459.213-1.413.583-2.807.965-4.188.156-.561.2-1.062.059-1.631-1.067-4.332-2.108-8.67-3.157-13.007-.01-.038-.028-.076-.031-.115-.159-1.763-.297-1.52-1.881-1.378-.119.011-.238.03-.356.049-1.083.162-1.419-.067-1.669-1.153-.32-1.398-.585-2.811-.962-4.193-.934-3.428-1.398-6.949-2.147-10.413-.286-1.324-.645-2.632-.947-3.951-.077-.332-.218-.492-.563-.462-1.112.097-2.227.162-3.335.295-.909.108-.938.147-.89 1.039.046.873.175 1.742.25 2.614.213 2.505.503 4.994 1.193 7.424.652 2.299 1.251 4.613 1.909 6.911.162.567.448 1.101.703 1.639.233.493.197.725-.253.983-.205.117-.44.183-.664.267-.818.306-.881.354-.682 1.209.845 3.648 1.719 7.289 2.569 10.936.094.398.265.605.688.692 1.602.327 2.543 1.359 3.076 2.872.544 1.543.721 3.094.395 4.703-.17.835-.151.838.679 1.211.181.082.356.189.545.246.946.285 1.317.974 1.336 1.897.016.879.033 1.758-.001 2.636-.044 1.118-.368 1.496-1.422 1.766-1.504.387-2.992.874-4.52 1.123-2.162.354-4.354.532-6.534.783-2.533.291-5.062.642-7.603.85-2.508.205-5.027.237-7.539-.065-.571-.068-.865-.291-.967-.851-.144-.784-.296-1.569-.509-2.336-.235-.847-.013-1.485.705-1.973.095-.064.155-.178.247-.287-.148-.191-.295-.374-.436-.562-.926-1.232-.723-2.965-.074-4.075.389-.664.981-1.013 1.779-1.028.814-.016 1.605.081 2.325.459.452.238.768.158 1.197-.096 1.303-.772 2.646-1.476 3.982-2.19.589-.315 1.148-.711 1.911-.437.249.09.617-.094.912-.205 1.714-.645 3.173-1.654 4.391-3.03.423-.477.549-.948.33-1.531-1.016-2.698-1.477-5.533-2.038-8.343-.202-1.015-.369-2.038-.514-3.063-.053-.373-.192-.615-.569-.638-.526-.032-.78-.401-.95-.8-.358-.841-.735-1.686-.97-2.564-.775-2.887-1.533-5.779-2.212-8.689-.497-2.132-.868-4.294-1.276-6.447-.066-.349-.039-.716-.048-1.075-.022-.868-.021-.857-.825-.904-.876-.051-1.752-.117-2.626-.19-.735-.061-.947-.186-1.067-.885-.289-1.686-.557-3.378-.758-5.077-.164-1.383-.219-2.779-.337-4.37" fill="#231f20"/><path d="m40.868 8.469c.056-.078.11-.155.166-.233-.349-.646-.917-1.063-1.58-1.358-.963-.429-1.975-.594-3.033-.565-2.125.058-3.542 1.303-3.742 3.41-.048.509-.192.683-.709.685-1.991.006-3.299 1.07-4.032 2.833-.199.48-.394.582-.851.564-2.285-.092-4.693 2.134-4.212 5.252.106.696.474 1.268 1.094 1.641.085.051.253.049.334-.004.065-.042.104-.214.074-.301-.131-.376-.313-.735-.439-1.112-.82-2.453 1.284-4.903 3.786-4.417.86.167.99.074 1.064-.752.101-1.144 1.117-2.383 2.212-2.699.905-.26 1.545-.043 2.171.735.099.123.188.304.317.342.206.062.47.091.653.009.106-.047.173-.359.13-.518-.071-.262-.257-.491-.371-.745-.111-.25-.243-.508-.276-.773-.237-1.889.929-3.264 2.835-3.402 1.282-.092 2.453.212 3.535.894.286.181.582.343.874.514m-16.405 46.194c3.486 3.83 7.81 5.642 12.614 6.903-.486.387-.87.712-1.273 1.009-.947.698-1.908.79-2.84-.019-.492-.425-.977-.433-1.542-.15-.928.465-1.864.922-2.822 1.318-1.879.778-3.593.483-5.084-.922-.348-.329-.647-.708-.988-1.044-.498-.489-1.073-.671-1.75-.381-.293.126-.606.209-.892.347-1.765.853-3.344.395-4.807-.707-1.017-.767-1.679-1.804-2.066-3.015-.086-.266-.141-.542-.235-.805-.192-.539-.376-.678-.89-.451-1.453.64-2.915.399-4.35.058-3.179-.753-5.406-3.985-4.566-7.688.217-.964.649-1.273 1.688-1.299.277-.007.57.007.826-.077.142-.046.308-.278.307-.425-.001-.148-.17-.332-.314-.429-.118-.081-.306-.068-.465-.079-.239-.016-.481.002-.718-.026-1.463-.18-2.728-1.249-3.082-2.483-.351-1.219.22-3.151 1.505-4.025.804-.548 1.731-.562 2.652-.53.638.023 1.272.122 1.91.153.229.011.484-.03.686-.13.314-.156.318-.594.014-.772-1.491-.871-1.604-2.347-1.652-3.823-.018-.548.363-1.005.824-1.251.589-.314 1.23-.564 1.878-.722.492-.12 1.032-.032 1.547-.078.252-.022.496-.135.743-.207-.108-.232-.171-.505-.334-.688-1.147-1.282-1.559-2.863-1.781-4.492-.118-.863-.071-1.757-.025-2.632.067-1.233.668-2.166 1.886-2.489 1.421-.378 2.877-.621 4.32-.916.232-.048.484-.03.702-.109.33-.12.39-.56.112-.781-.186-.146-.419-.23-.621-.358-1.21-.772-1.65-2.058-1.179-3.425.688-1.994 3.135-3.847 5.28-3.976.597-.036 1.2.005 1.796-.034.536-.035.751-.336.482-.795-.553-.943-.041-1.627.495-2.264 1.279-1.519 2.959-1.922 4.869-1.613.549.088 1.109.124 1.666.138.546.014.902-.266 1.025-.814.442-1.988 1.854-3.136 3.579-3.905 1.313-.586 2.736-.412 4.122-.151.193.036.372.144.561.208.332.112.587-.019.632-.346.168-1.223 1.099-1.685 2.061-2.118 1.083-.488 2.235-.65 3.397-.497 1.441.189 2.33 1.128 2.892 2.412.062.144.041.333.123.459.162.249.331.603.566.67.363.104.503-.286.635-.584.736-1.667 2.073-1.959 3.558-1.703 1.605.276 3.031.993 4.292 2.018.608.493 1.079 1.076 1.002 1.934-.006.078-.001.161.016.238.101.461.424.607.77.279 1.039-.985 2.345-1.332 3.683-1.594 1.584-.309 2.616.208 3.347 1.651.454.897.742 1.849.774 2.864.014.4.003.801.042 1.198.073.734.307.878 1.026.662.153-.046.296-.126.449-.166 1.422-.376 2.525-.022 3.388 1.154 1.065 1.454 1.6 3.113 1.743 4.899.021.272-.076.551-.08.828-.004.301-.077.704.084.882.288.322.653.029.974-.121.215-.102.437-.202.667-.26 1.447-.357 2.641.151 3.378 1.594 1.016 1.986 1.247 4.017.029 6.043-.127.211-.225.592-.12.746.114.165.481.166.741.215.114.021.242-.001.357-.029 1.495-.372 2.425.35 3.146 1.563.83 1.393.837 2.896.596 4.409-.22 1.379-.567 2.726-1.535 3.834-.35.401-.124.775.412.801.198.009.4-.024.597-.053 1.48-.217 2.559.503 3.421 1.571.848 1.051.783 2.26-.118 3.272-.422.474-.932.87-1.405 1.299-.385.348-.783.682-1.155 1.043-.221.213-.288.483-.078.753.219.279.491.238.743.065.262-.18.512-.382.75-.594 1.741-1.553 4.874-.235 5.571 1.721.265.741.191 1.491-.232 2.188-.833 1.373-1.981 2.39-3.432 3.069-1.171.547-2.416.815-3.695.929-.646.058-1.276-.013-1.855-.352-.169-.099-.362-.23-.542-.226-.211.005-.56.099-.598.229-.065.218.049.501.134.74.03.085.196.12.297.183 1.076.667 1.339 1.91.568 2.948-.834 1.122-2.014 1.682-3.386 1.796-.914.076-1.837.088-2.754.066-.625-.016-1.05.138-1.346.745-.701 1.438-1.934 2.056-3.497 2.097-1.319.035-2.628.049-3.911-.387-.428-.145-.984-.182-1.404-.04-2.314.785-4.117-.154-5.887-1.614.226-.201.399-.407.615-.541 2.691-1.661 4.981-3.731 6.653-6.441.055-.091.181-.139.316-.238.023.483.023.921.066 1.355.166 1.661 1.451 2.769 3.121 2.892 2.029.15 4.139-1.456 4.311-3.772.045-.599.266-.932.753-1.216 1.982-1.159 2.693-3.053 2.956-5.195.344-2.795-2.193-5.27-4.968-4.816-.744.122-1.488.302-2.197.552-.708.25-1.373.622-2.147.982-.038-.613-.349-.883-.954-1.088-.726-.246-1.449-.715-1.979-1.272-.809-.852-.802-2.689-.153-3.709.064-.1.163-.18.221-.283.248-.448.139-.716-.376-.899-.225-.079-.473-.095-.695-.181-.554-.214-1.138-.388-1.641-.693-.832-.503-1.279-1.253-1.297-2.278-.024-1.265.175-2.461.769-3.583.23-.434.499-.624 1.056-.48.567.148 1.188.151 1.781.119.334-.017.696-.177.973-.376.194-.14.416-.506.356-.675-.117-.332-.456-.156-.724-.083-1.967.533-3.59-.249-5.115-1.367-.415-.305-.57-.755-.537-1.268.018-.279.033-.558.039-.838.009-.318.056-.743-.344-.771-.233-.017-.512.28-.726.483-.169.161-.266.396-.401.594-1.186 1.729-3.207 1.668-4.576.869-.77-.45-1.22-1.139-1.191-2.074.023-.717.072-1.436.066-2.153-.003-.207-.114-.51-.266-.588-.126-.064-.417.103-.585.234-.407.317-.759.709-1.181 1.005-1.113.78-2.381.902-3.672.664-1.033-.191-1.837-.791-2.31-1.742-.335-.676-.619-1.382-.869-2.095-.33-.937-.603-1.895-.902-2.843-.048-.152-.069-.329-.163-.446-.085-.106-.264-.215-.379-.195-.1.019-.218.206-.24.334-.024.147.062.308.077.466.057.553.13 1.106.149 1.66.042 1.253-.621 2.133-1.634 2.738-1.54.918-3.202 1.433-5.027 1.244-.159-.016-.319-.048-.475-.035-.341.027-.531.312-.33.578.56.741.629 1.55.362 2.381-.318.991-1 1.756-1.889 2.247-1.607.886-3.316 1.352-5.165.832-.077-.021-.163-.062-.233-.045-.182.043-.478.078-.509.181-.055.188-.028.527.099.621.887.657.708 1.584.547 2.414-.097.502-.473 1.035-.875 1.374-1.063.896-2.333 1.387-3.736 1.408-.418.007-.838-.194-1.263-.268-.132-.023-.35.013-.406.101-.065.101-.043.318.026.434.316.529.809.718 1.417.73.423.008.96-.034 1.24.197.462.378.563 1.016.615 1.634.133 1.547-.56 2.603-1.876 3.315-.245.132-.517.213-.764.342-.553.288-.612.482-.239 1.026.665.968 1.241 1.964 1.192 3.19-.012.274-.026.576-.146.81-.352.689-1.128.825-1.666.268-.853-.883-1.818-1.547-3.032-1.819-.988-.221-1.919-.075-2.752.488-1.893 1.279-2.983 3.275-2.549 5.891.174 1.048.783 1.822 1.56 2.476.74.622 1.571 1.111 2.524 1.322.414.092.502.301.483.668-.022.438-.044.88-.005 1.315.093 1.029.733 1.852 1.722 2.059 1.102.231 2.225.227 3.309-.165 1.074-.389 1.875-1.055 2.141-2.499" fill="#231f20"/><path d="m10.302 54.415c.908-1.203 2.116-2.209 3.397-3.022-.214-.235-.393-.495-.548-.769-1.111-.889-2.047-2.017-2.731-3.244-1.281-2.302-1.813-5.681.408-7.605.851-.737 1.937-1.158 2.99-1.512 1.079-.362 2.178-.663 3.233-1.091-.406-.961-1.045-1.811-1.538-2.726-.459-.851-.845-1.823-.684-2.807.142-.859.725-1.555 1.439-2.021 1.371-.895 3.03-1.042 4.583-1.431-.459-1.066-1.269-2-1.954-2.918-1.275-1.708-3.166-4.119-1.92-6.316.223-.394.566-.732 1.034-.788.453-.056.903.142 1.294.348.853.451 1.744 1.172 2.752 1.154-.258-1.136-.467-2.283-.565-3.445-.089-1.07-.082-2.165.081-3.231-.034.005-.057.018-.095.021-.597.039-1.199-.002-1.797.034-2.145.129-4.592 1.982-5.279 3.976-.472 1.368-.032 2.653 1.178 3.425.202.129.436.212.621.359.279.22.218.66-.112.78-.218.079-.47.061-.702.109-1.442.296-2.898.538-4.319.916-1.218.323-1.82 1.257-1.886 2.489-.047.876-.094 1.769.024 2.632.222 1.629.634 3.21 1.782 4.492.163.183.225.457.334.688-.248.072-.492.186-.743.208-.515.045-1.055-.042-1.548.077-.648.158-1.289.408-1.877.722-.461.246-.842.703-.825 1.251.048 1.476.161 2.953 1.653 3.824.303.177.3.615-.015.772-.201.1-.457.14-.686.129-.637-.031-1.272-.13-1.91-.152-.921-.033-1.847-.018-2.652.529-1.284.874-1.855 2.806-1.505 4.025.355 1.235 1.619 2.303 3.082 2.482.237.03.48.011.719.027.158.011.347-.002.465.078.143.098.312.282.313.43.001.147-.165.379-.306.426-.256.084-.549.069-.827.076-1.039.026-1.47.335-1.688 1.299-.84 3.703 1.388 6.935 4.566 7.689.595.141 1.195.26 1.796.312-.1-.94.386-1.931.968-2.701" fill="#1375bc"/><path d="m37.892 26.646c-.075-.07-.15-.204-.241-.215-.229-.028-.488-.062-.693.015-2.175.821-3.445 2.477-4.163 4.612-.047.139.105.344.164.519.162-.069.339-.117.481-.216.089-.061.13-.196.18-.304.823-1.795 1.963-3.273 3.917-3.951.105-.037.197-.133.274-.221.046-.052.05-.142.081-.239m11.028-.824c-.106.064-.478.161-.527.345-.092.342.285.398.55.467.114.03.235.038.353.053 1.721.211 2.959 1.071 3.64 2.691.092.219.228.419.356.621.085.132.168.3.295.363.157.077.415.14.526.062.118-.083.14-.335.154-.518.008-.104-.075-.221-.134-.323-.277-.483-.558-.962-.84-1.442-.943-1.608-2.473-2.151-4.373-2.319m-.761 11.485c-.034.012-.067.025-.1.037.181.683.257 1.417.566 2.035.431.858 1.382.843 1.929.063.777-1.11.768-2.975-.02-4.075-.294-.41-.669-.717-1.194-.658-.602.066-.883.536-1.001 1.06-.112.501-.125 1.024-.18 1.538m-8.318 5.187c-.19 1.703 1.671 3.865 3.418 4.276.379.088.798.084 1.187.035.258-.033.514-.198.735-.356.102-.072.139-.266.15-.41.004-.041-.179-.12-.285-.142-.114-.022-.237.004-.357.006-1.841.025-2.957-1.024-3.693-2.561-.417-.875-.208-1.849.406-2.437.643-.617 1.489-.706 2.44-.256.287.136.565.302.864.4.107.035.288-.064.39-.152.039-.034-.012-.237-.077-.317-.717-.867-2.34-1.295-3.399-.911-1.171.425-1.787 1.402-1.779 2.825m-1.832-4.873c-.035-.436-.009-.887-.116-1.305-.272-1.064-1.408-1.363-2.109-.518-.951 1.147-1.195 2.491-.76 3.929.178.59.611.949 1.215 1.003.529.047.881-.302 1.162-.716.492-.725.648-1.531.608-2.393m5.306 20.465c.321 0 .481.012.64-.002 1.976-.158 3.671-.777 4.56-2.746.18-.399.373-.799.616-1.162.468-.698.586-1.468.577-2.28-.009-.759-.029-1.52.002-2.277.032-.746.283-.962 1.029-1.042.591-.063 1.187-.119 1.768-.24.407-.084 1.043-.196.874-.724-.133-.416-.728-.1-1.075-.016-.871.211-1.728.28-2.605.087-.572-.126-.603-.119-.5.563.061.406-.228.469-.45.591-1.367.754-2.783 1.403-4.3 1.793-1.907.49-3.804.492-5.621-.351-1.082-.502-2.114-1.11-3.177-1.652-.115-.058-.286-.002-.432.002.016.142-.023.354.056.416.592.466 1.162.99 1.825 1.326.99.502 1.534 1.274 1.87 2.287.411 1.244.884 2.468 1.334 3.7.039.108.076.234.155.307.856.786 1.687 1.635 2.854 1.42m-21.272-6.879c-.733-.061-1.164-.074-1.587-.136-1.082-.16-2.001.09-2.581 1.072-.24.406-.477.451-.874.278-.844-.368-1.666-.751-2.342-1.413-1.301-1.275-1.246-2.772-.732-4.324.268-.806.81-1.454 1.472-2.002 1.042-.864 2.186-.957 3.357-.389.6.292 1.142.728 1.655 1.165.744.632 1.445.793 2.26.356.783-.42 1.144-1.133 1.062-1.991-.095-.993-.328-1.961-.866-2.837-.37-.6-.352-.636.25-.979.746-.426 1.35-.982 1.773-1.735.704-1.255.642-2.509.048-3.784-.272-.584-.236-.573.334-.861.639-.322 1.308-.621 1.866-1.056.817-.639 1.271-1.509 1.252-2.597-.01-.543-.118-1.285.175-1.576.309-.306 1.047-.179 1.596-.247 1.502-.186 2.864-.692 3.979-1.758.968-.925 1.564-1.988 1.455-3.391-.059-.76.004-.741.713-.902.97-.222 1.95-.425 2.892-.74 1.393-.466 2.505-1.328 3.196-2.73 1.392 4.603 4.908 5.498 8.727 3.333-.162 1.944.48 3.427 2.356 4.145 1.704.651 3.296.44 4.779-.879.416 1.456 1.624 1.983 2.764 2.643-.201.373-.376.679-.536.993-.657 1.285-.861 2.664-.682 4.072.15 1.183.882 2.04 1.9 2.622.546.313 1.149.531 1.667.765-.088.776-.203 1.511-.248 2.251-.094 1.561.675 2.658 1.95 3.458.203.127.416.238.629.349.837.434 1.078.951.874 1.891-.018.077-.079.154-.071.225.013.109.037.255.112.308.068.048.243.032.312-.025.183-.151.34-.333.495-.513 1.501-1.749 3.496-2.325 5.69-2.236 1.375.055 2.916 1.773 2.936 3.215.028 1.857-.574 3.524-1.869 4.901-.108.116-.235.217-.366.306-.477.324-.594.27-.93-.207-.364-.518-.728-1.056-1.19-1.479-1.008-.922-2.197-1.023-3.437-.402-.276.138-.562.257-.912.415-.01-1.605.633-2.771 1.898-3.56 1.238-.772 2.531-1.188 3.863-.01-.031-.922-.365-1.365-1.158-1.441-.543-.052-1.122.004-1.652.14-1.071.276-1.888.949-2.679 1.724-.775.759-1.164 1.622-1.407 2.643-.153.646-.457 1.289-.826 1.845-.947 1.429-1.855 2.911-2.995 4.178-1.028 1.144-2.327 2.052-3.536 3.027-.651.526-1.332 1.033-2.06 1.442-.828.466-1.703.866-2.593 1.199-1.159.431-2.338.821-3.534 1.131-1.036.269-2.1.497-3.164.574-1.836.132-3.664-.098-5.497-.26-2.197-.194-4.301-.836-6.466-1.163-.117-.019-.242-.028-.35-.074-1.654-.696-3.362-1.292-4.946-2.123-1.948-1.021-3.739-2.31-5.153-4.039-.321-.394-.577-.843-.851-1.273-.171-.268-.261-.618-.489-.814-.927-.8-1.268-1.913-1.696-2.984-.148-.37-.275-.749-.436-1.113-.171-.385-.263-.92-.911-.441-.124.091-.501-.108-.733-.226-.866-.442-1.776-.413-2.69-.253-.137.024-.237.259-.354.396.132.062.261.165.398.178.396.038.797.038 1.196.058.991.051 1.774.513 2.297 1.326.424.661.735 1.395 1.221 2.339" fill="#edab7a"/><path d="m73.113 42.032c-2.193-.089-4.187.487-5.689 2.236-.156.181-.313.363-.496.513-.069.057-.244.073-.312.025-.074-.052-.099-.198-.111-.308-.008-.071.052-.148.07-.225.204-.94-.036-1.456-.874-1.891-.213-.11-.426-.222-.629-.349-1.274-.8-2.044-1.897-1.949-3.458.045-.74.159-1.475.247-2.251-.518-.234-1.12-.452-1.667-.765-1.018-.582-1.75-1.439-1.9-2.622-.178-1.408.025-2.787.682-4.072.16-.313.335-.62.536-.993-1.139-.659-2.347-1.187-2.763-2.643-1.484 1.32-3.076 1.531-4.78.879-1.876-.718-2.517-2.201-2.355-4.144-3.82 2.165-7.336 1.269-8.728-3.334-.691 1.402-1.803 2.264-3.196 2.73-.941.316-1.922.519-2.892.74-.709.161-.772.142-.713.902.109 1.403-.487 2.467-1.455 3.391-1.115 1.067-2.476 1.573-3.979 1.758-.391.048-.871.004-1.231.081.254.132.516.249.792.339 1.525.495 3.14.138 4.559-.512.172-.079.335-.176.503-.262.598-.564 1.311-1.024 2.171-1.349.564-.409 1.116-.835 1.652-1.272.133-.109.374-.001.396.166.113.893.395 1.836 1.13 2.416 1.147.906 2.84.662 4.154.333 1.472-.369 2.871-.971 4.255-1.585-.12-.066-.196-.165-.149-.339.049-.183.421-.281.528-.344 1.899.167 3.429.71 4.373 2.318.281.479.562.959.84 1.442.058.102.141.219.133.324-.013.182-.036.435-.154.517-.11.078-.369.015-.525-.061-.127-.063-.21-.231-.295-.364-.128-.201-.265-.402-.357-.62-.68-1.62-1.919-2.48-3.639-2.692-.119-.014-.24-.023-.354-.053.021.049.028.101.008.152-.184.471-.304.958-.348 1.462-.174 2.005.745 4.01 2.167 5.392.697.677 1.637 1.35 2.612 1.526 1.015.183 2.173-.032 3.123.443.692.346.998 1.19 1.224 1.881.29.886.457 1.811.593 2.731.11.75.16 1.512.298 2.257.159.861.258 1.733.304 2.607.183 3.487-.492 7.065-2 10.218-.883 1.846-2.074 3.568-3.567 4.959.281-.098.565-.19.844-.294.891-.332 1.766-.733 2.594-1.199.727-.408 1.408-.916 2.059-1.442 1.209-.975 2.508-1.882 3.536-3.027 1.14-1.267 2.048-2.749 2.995-4.178.37-.556.673-1.198.827-1.844.243-1.022.631-1.885 1.406-2.643.791-.775 1.608-1.449 2.68-1.725.529-.136 1.108-.192 1.651-.14.793.075 1.127.519 1.158 1.442-1.332-1.179-2.625-.763-3.863.009-1.265.789-1.907 1.955-1.898 3.561.35-.159.636-.278.913-.416 1.24-.621 2.428-.52 3.436.402.462.423.826.962 1.19 1.479.336.477.454.531.93.207.131-.089.258-.19.366-.305 1.295-1.378 1.897-3.045 1.87-4.902-.021-1.442-1.562-3.159-2.937-3.215" fill="#d69865"/><path d="m55.543 65.7c1.033.297 1.983.473 2.853.84 2.435 1.027 4.968 1.719 7.515 2.389 1.116.293 2.216.662 3.304 1.049.544.194 1.254.311 1.349 1.03.109.827.152 1.693-.503 2.372-.361.373-.725.75-1.136 1.062-2.54 1.929-4.838 4.153-7.496 5.947-2.052 1.386-1.666.876-1.549 3.292.034.709-.068 1.426-.12 2.138-.072.989.158 1.896.688 2.735.125.198.277.428.278.645.001.24-.095.608-.261.69-.188.091-.577.004-.74-.151-.207-.196-.356-.531-.385-.82-.06-.59-.024-1.19-.026-1.786 0-.268.088-.622-.286-.659-.133-.013-.37.273-.435.465-.203.601-.312 1.235-.524 1.833-.21.596-.472 1.178-.777 1.73-.073.132-.41.175-.613.151-.077-.01-.207-.353-.16-.494.357-1.095.749-2.179 1.14-3.263.068-.185.235-.343.269-.53.044-.245.099-.644-.024-.731-.326-.23-.494.13-.595.364-.475 1.094-.914 2.202-1.379 3.3-.184.434-.363.878-.623 1.264-.082.122-.425.098-.643.076-.055-.005-.147-.277-.116-.399.27-1.036.53-2.076.865-3.091.223-.673.579-1.302.841-1.963.059-.147-.026-.349-.045-.526-.184.024-.437-.018-.537.086-.214.223-.405.503-.506.794-.261.75-.479 1.515-.692 2.281-.128.459-.159.953-.337 1.389-.106.256-.384.533-.642.613-.375.115-.691-.152-.864-.495-.458-.911-.433-1.87-.086-2.788.393-1.042.89-2.046 1.342-3.066.244-.551.451-1.087.243-1.725-.226-.693-.66-1.07-1.367-1.149-.277-.03-.558-.017-.837-.029-1.112-.047-1.865-1.294-1.391-2.301.228-.485.71-.625 1.029-.196.679.908 1.572.987 2.564.856.567-.074 1.104-.042 1.61.288.353.229.73.345 1.033-.126.08-.123.249-.191.379-.281 2.243-1.526 4.484-3.054 6.728-4.577.526-.357 1.078-.679 1.593-1.051.137-.1.183-.327.271-.495-.158-.079-.309-.183-.476-.232-.76-.221-1.535-.396-2.286-.645-2.307-.766-4.607-1.558-6.909-2.343-.788-.268-.823-.273-.787-1.086.036-.829.155-1.655.259-2.681" fill="#edab7a"/><path d="m52.151 104.67c1.578-.188 3.035-.363 4.492-.537.159-.019.319-.031.476-.061 1.552-.297 1.529-.293 1.88 1.215.992 4.266 1.961 8.54 3.391 12.69.506 1.469 1.036 2.93 1.557 4.395.211.596.2.677-.363.916-.994.422-1.993.753-3.116.724-1.067-.028-2.142.116-3.21.216-.757.071-.908-.016-1.071-.736-.555-2.447-1.149-4.884-1.662-7.34-.447-2.142-.775-4.308-1.211-6.453-.332-1.634-.749-3.252-1.163-5.029" fill="#c15e97"/><path d="m38.669 107.256c0-.301.013-.501-.003-.7-.026-.347.142-.506.471-.553.353-.05.701-.147 1.054-.18 1.624-.148 3.25-.27 4.874-.427.409-.04.578.077.624.487.112 1.028.354 2.051.371 3.079.047 3.059.802 5.98 1.561 8.911.578 2.235 1.106 4.483 1.952 6.637.18.456.098.674-.383.748-.391.06-.78.14-1.172.193-.946.128-1.893.244-2.839.368-.118.016-.232.061-.35.078-1.248.179-1.523.04-2.049-1.101-.182-.396-.35-.809-.457-1.231-.865-3.433-1.737-6.865-2.556-10.309-.396-1.663-.688-3.351-1.011-5.03-.067-.35-.066-.713-.087-.97" fill="#c15e97"/><path d="m36.487 68.537c.285.865.53 1.518.704 2.188.051.197-.075.456-.165.668-1.543 3.657-2.474 7.483-3.17 11.374-.273 1.528-.544 3.058-.759 4.595-.186 1.34-.299 2.69-.433 4.037-.091.91-.109 1.826-.742 2.595-.188.227-.236.585-.303.892-.41 1.866-.835 3.729-1.194 5.605-.141.736-.161 1.504-.156 2.256.001.28.174.607.365.829.7.809 1.072 1.653.659 2.738-.233.611.064 1.031.611 1.386.527.343.971.817 1.439 1.246.115.104.261.259.256.385-.008.219-.075.477-.214.633-.075.084-.408.059-.525-.037-.427-.354-.8-.77-1.218-1.136-.129-.112-.335-.138-.505-.203-.012.219-.123.512-.022.643.435.57.944 1.08 1.399 1.635.222.272.407.583.555.901.039.084-.092.287-.193.383-.056.052-.262.039-.319-.022-.349-.374-.723-.739-.998-1.167-.343-.534-.581-1.136-.905-1.684-.074-.125-.317-.15-.483-.221-.053.143-.17.298-.145.425.062.308.158.619.298.901.317.644.706 1.254.993 1.91.187.427.316.906.338 1.368.023.471-.485.717-.841.403-.309-.273-.565-.665-.713-1.054-.404-1.076-.731-2.179-1.109-3.265-.044-.128-.209-.215-.317-.321-.11.14-.293.269-.318.422-.102.655.136 1.247.371 1.85.242.623.428 1.273.577 1.925.081.352.025.749-.362.935-.429.206-.896.189-1.22-.172-.468-.526-.869-1.113-1.316-1.698 1.42-.67 1.786-1.484 1.406-2.976-.097-.383-.248-.761-.43-1.112-.18-.351-.43-.664-.645-.987.24-.48.502-.93.695-1.408.13-.326.2-.688.223-1.038.01-.148-.168-.309-.261-.463-.136.124-.325.222-.398.375-.288.608-.506 1.252-.815 1.849-.362.702-.424.888.158 1.473.753.76.897 1.661.812 2.644-.054.62-.285.786-.88.565-.396-.148-.856-.353-1.088-.675-.856-1.192-1.316-2.605-1.31-4.029.008-2.003 1.103-3.442 2.969-4.246.147-.063.294-.147.449-.166.435-.056.585-.294.619-.721.184-2.269.657-4.472 1.29-6.669.738-2.559 1.172-5.204 1.817-7.792.914-3.672 1.898-7.327 2.862-10.986.122-.461.309-.905.46-1.358.563-1.702 1.123-3.406 1.686-5.107.131-.394.274-.784.461-1.321" fill="#edab7a"/><path d="m64.648 100.981c-.617.251-1.106.51-1.627.652-2.303.629-4.6 1.29-6.977 1.595-1.182.152-2.38.208-3.551.418-2.439.437-4.908.511-7.366.737-1.783.164-3.568.305-5.351.472-.355.032-.712.105-1.054.207-1.252.372-2.533.204-3.804.236-.416.011-.691-.144-.764-.579-.165-.98-.357-1.957-.493-2.941-.093-.666-.011-.726.703-.744 1.236-.031 2.477-.001 3.709-.095 1.745-.135 3.483-.359 5.224-.544 1.783-.19 3.565-.383 5.347-.569 1.425-.149 2.851-.29 4.276-.435 1.228-.124 2.483-.131 3.678-.4 1.547-.349 3.053-.89 4.566-1.384.713-.233.697-.266 1.154.331.509.665 1.029 1.32 1.541 1.983.237.308.465.623.789 1.06" fill="#15baa5"/><path d="m37.083 152.272c.253 1.006.963 1.03 1.715 1 1.309-.052 2.634.131 3.91-.354.857-.325.879-.296.817-1.272-.016-.262-.007-.445.263-.582 1.029-.519 2.052-1.054 3.072-1.591.644-.339 1.316-.486 2.049-.565 1.781-.19 3.558-.453 5.318-.787 1.193-.226 2.062.404 2.984.91.187.102.297.489.306.748.03.873.032 1.751-.022 2.622-.034.567-.382.874-.965 1.056-2.6.809-5.263 1.217-7.967 1.489-3.05.308-6.082.805-9.132 1.102-2.697.263-5.406.517-8.119.148-.81-.111-.815-.103-1.011-.89-.145-.58-.284-1.16-.416-1.743-.1-.44-.147-.872.279-1.196.413-.314.815-.395 1.331-.174.616.264 1.275.448 1.931.593 1.202.267 2.377.133 3.657-.514" fill="#fff579"/><path d="m59.308 92.816c.599 1.063 1.222 2.172 1.846 3.28.145.258.08.458-.173.592-.247.13-.493.268-.754.364-1.762.65-3.552 1.171-5.437 1.344-1.387.128-2.765.348-4.152.497-1.464.157-2.934.26-4.398.419-1.703.185-3.401.405-5.1.612-.197.025-.392.083-.589.093-1.952.096-3.904.188-5.856.276-.24.011-.479-.001-.718-.01-.333-.012-.526-.193-.534-.52-.027-1.116-.055-2.233-.034-3.348.003-.145.267-.335.449-.411.171-.071.393-.011.593-.02 2.946-.118 5.89-.196 8.816-.653 1.412-.222 2.863-.174 4.291-.311 2.339-.225 4.691-.392 7.001-.794 1.589-.277 3.116-.911 4.749-1.41" fill="#dae246"/><path d="m58.26 90.439c.241.582.419 1.012.628 1.516-1.812.749-3.564 1.338-5.426 1.622-3.391.517-6.825.599-10.221 1.007-2.815.338-5.634.483-8.456.644-1.492.085-1.427.28-1.39-1.382.022-.992.166-1.981.21-2.973.023-.547.296-.634.767-.63 2.116.015 4.231.031 6.344-.013 1.112-.023 2.223-.163 3.333-.263 2.378-.214 4.778-.25 7.108-.853.296-.076.457.014.56.269.314.769.865 1.212 1.705 1.314.173.021.333.189.49.303.159.115.291.273.46.367.679.374 1.339-.31 2.066-.008.766.319 1.361-.113 1.822-.92" fill="#15baa5"/><path d="m55.229 78.058c-.354.033-.63.039-.898.086-.87.152-1.649.128-2.23-.71-.33-.476-.907-.527-1.42-.358-.567.186-.889.646-.978 1.248-.063.421.024 1.015-.219 1.222-.318.269-.894.252-1.363.321-.315.045-.638.035-.957.035-3.594.004-7.187.006-10.781.007-.199 0-.399-.004-.598-.009-.377-.009-.485-.218-.404-.555.326-1.354.654-2.708.983-4.061.112-.463.357-.535.858-.522 1.792.045 3.586-.033 5.38-.057 1.756-.022 3.513-.063 5.269-.045 1.801.017 3.583-.142 5.352-.468.117-.021.237-.031.357-.044.889-.102.971-.043 1.113.786.173 1.017.349 2.032.536 3.124" fill="#dae246"/><path d="m83.155 147.092c.792.554 1.015 1.261 1.077 2.036.032.396.013.797.011 1.196-.006 1.351-.044 1.367-1.327 1.908-1.339.564-2.77.735-4.173 1.001-2.305.438-4.617.85-6.943 1.149-2.291.293-4.603.393-6.916.288-.439-.02-.882-.053-1.317-.014-.638.057-1.164-.197-1.696-.481-.442-.234-.64-.592-.573-1.08.057-.426.145-.849.203-1.181 1.25.142 2.384.299 3.524.393 1.275.105 2.353-.337 3.182-1.324.218-.259.425-.437.803-.377.832.13 1.587-.142 2.271-.58.553-.356 1.056-.453 1.669-.116.883.486 1.729.147 2.473-.35.423-.283.791-.434 1.31-.384.865.084 1.65-.235 2.356-.721.402-.276.74-.413 1.292-.263 1.098.297 2.029-.159 2.774-1.1" fill="#fff579"/><path d="m54.435 141.583c-1.925 1.211-3.183 2.813-4.021 4.763-.079.182-.146.372-.189.565-.227 1.031-.222 1.072-1.188 1.121-1.406.071-2.608.636-3.774 1.36-.536.332-1.131.572-1.7.853-.328.161-.528.039-.637-.289-.025-.075-.073-.143-.096-.218-.484-1.517-.978-3.03-1.442-4.552-.193-.635-.114-.78.478-.998 2.063-.759 3.854-1.882 5.161-3.702.318-.442.797-.584 1.368-.569 1.219.035 2.43-.01 3.644-.255.752-.152 1.324.457 1.822.968.241.248.37.605.574.953" fill="#edab7a"/><path d="m37.903 84.928c-.998 0-1.996.005-2.994-.002-.408-.004-.553-.202-.467-.621.214-1.052.381-2.113.599-3.164.154-.741.177-.736.903-.717 2.712.072 5.423.183 8.135.201 1.711.011 3.423-.129 5.136-.173.294-.007.701.028.87.213.585.641 1.306.695 2.082.678.438-.01.918-.032 1.105.498.187.527.092 1.059-.26 1.466-.183.214-.541.325-.839.384-.976.193-1.956.409-2.944.492-3.77.32-7.544.592-11.316.881-.004-.046-.007-.091-.01-.136" fill="#15baa5"/><path d="m52.244 84.619c-.279 1.106-.566 2.208-.831 3.315-.085.359-.368.396-.631.441-1.291.221-2.582.459-3.882.624-1.42.18-2.846.337-4.275.412-1.79.095-3.585.116-5.378.128-1.148.008-2.296-.059-3.542-.095.155-1.203.302-2.331.447-3.46.051-.388.23-.509.65-.464 2.383.257 4.769.205 7.155-.006 1.348-.119 2.701-.177 4.05-.297 2.055-.181 4.108-.392 6.237-.598" fill="#dae246"/><path d="m36.71 74.177c.416-1.172.76-2.143 1.105-3.112.132-.37.394-.385.758-.378 3.308.062 6.617.144 9.924.11 1.946-.02 3.891-.242 5.964-.381.008.768.04 1.552.003 2.332-.007.152-.268.393-.44.42-2.08.323-4.144.735-6.269.756-3.347.034-6.692.164-10.038.252-.271.007-.542.001-1.007.001" fill="#15baa5"/><path d="m68.089 146.273c-1.554-1.382-1.618-1.415-3.459-1.791.331-.247.589-.502.897-.659 2.135-1.089 4.312-2.071 6.735-2.331 1.344-.144 2.685-.326 4.034-.402 1.346-.076 2.637.344 3.779.974.831.458 1.469 1.267 2.365 2.074-1.164-.015-2.082-.039-2.882.539-.133.096-.448-.008-.657-.083-1.127-.404-2.133-.115-3.02.587-.34.269-.572.44-1.036.28-.794-.274-1.578-.116-2.293.321-.277.169-.507.332-.862.122-1.253-.74-2.441-.505-3.601.369" fill="#fff579"/><path d="m43.939 70.059c-1.834 0-3.669.002-5.503-.001-.755-.001-.809-.032-.91-.771-.118-.864-.236-1.733-.276-2.603-.032-.67.127-.819.761-1.034.151-.05.308-.087.464-.112.467-.074.995-.297 1.381-.15.242.091.302.737.389 1.147.398 1.888 1.887 2.531 3.472 3.066.149.05.323.022.473.068 1.168.355 2.248.145 3.355-.339 1.126-.492 2.089-1.154 2.873-2.08.545-.643.985-1.326 1.042-2.227.055-.865.111-.86 1.014-.95.555-.056 1.109-.123 1.664-.176.38-.036.611.098.599.528-.021.717-.004 1.435-.042 2.151-.041.793-.156 1.582-.18 2.374-.014.484-.14.694-.673.722-2.106.112-4.209.301-6.315.405-1.193.06-2.392.011-3.588.011z" fill="#dae246"/><path d="m66.727 135.853c-1.116.42-2.153.648-3.248.603-.908-.038-.934-.019-1.167-.978-.349-1.431-.652-2.873-.985-4.307-.432-1.861-.886-3.717-1.308-5.581-.167-.742-.139-.737.567-.79.674-.051 1.359-.067 2.013-.212.443-.098.616.066.688.41.13.623.216 1.255.316 1.884.049.314.045.643.138.942.798 2.584 1.399 5.242 2.816 7.598.058.097.085.212.17.431" fill="#edab7a"/><path d="m46.213 62.644c.479 0 .958.014 1.436-.004.415-.015.579.181.563.572-.003.08 0 .16.005.24.062 1.127.059 1.104 1.233.964.37-.043.76.076 1.141.121-.062.418-.011.899-.204 1.244-1.197 2.151-3.619 3.609-6.326 3.051-.911-.188-1.727-.645-2.371-1.321-.262-.274-.438-.667-.553-1.036-.266-.857-.093-1.131.791-1.346.502-.121 1.013-.219 1.524-.291.516-.071.744-.293.759-.855.038-1.391.067-1.39 1.523-1.334.16.006.32.001.479.001z" fill="#edab7a"/><path d="m50.32 136.779c-1.084.124-2.099.262-3.117.344-.414.034-.487-.366-.56-.666-.339-1.392-.677-2.785-.981-4.185-.328-1.518-.614-3.045-.925-4.566-.165-.81-.145-.891.681-1.029.783-.129 1.578-.188 2.37-.257.28-.025.427.14.452.431.271 3.112 1.226 6.081 1.907 9.107.051.226.096.453.173.821" fill="#edab7a"/><path d="m64.567 151.469c-.764-.186-1.577-.261-2.281-.579-1.505-.68-1.827-2.515-.746-3.767.996-1.153 4.146-1.464 5.351-.529.767.595 1.226 1.963.944 2.916-.317 1.072-1.106 1.62-2.165 1.797-.348.059-.714.01-1.073.01-.009.05-.02.101-.03.152" fill="#edab7a"/><path d="m42.672 151.976c-1.403.747-2.813.517-4.193.51-.353-.001-.411-.297-.461-.59-.165-.939-.342-1.877-.528-2.813-.177-.9-.38-1.794-1.199-2.446 1.163-.695 2.242-1.354 3.337-1.985.464-.268.589-.209.762.323.404 1.249.779 2.507 1.184 3.756.344 1.058.712 2.108 1.098 3.245" fill="#fff579"/><path d="m35.124 152.07c-1.413-.108-2.597-.274-3.646-.92-1.393-.859-1.796-2.212-1.134-3.599.273-.572.686-.851 1.312-.85.979.001 1.888.254 2.764.679.516.25.964.756 1.654.487.069-.026.329.216.364.365.211.89.381 1.79.569 2.686.1.485-.125.778-.571.89-.497.124-1.005.202-1.312.262" fill="#edab7a"/><path d="m66.723 52.281c0-.16-.006-.319.001-.478.099-2.236 1.553-2.918 3.409-2.563.611.116 1.231.561 1.684 1.017.411.414.476 1.074.423 1.693-.128 1.486-.846 2.547-2.249 3.1-1.5.592-2.97-.234-3.237-1.815-.052-.312-.039-.635-.056-.954z" fill="#fff579"/><path d="m20.273 56.463c-.277-.019-.559-.016-.832-.061-.511-.084-.925-.381-1.049-.863-.286-1.113-.262-2.214.513-3.162.356-.437.68-.445 1.228-.248.358.127.765.219 1.135.182 1.039-.101 1.633.496 2.129 1.253.341.521.23 1.184-.241 1.759-.748.914-1.761 1.164-2.883 1.14" fill="#fff579"/><path d="m62.416 144.956c.126-1.216.451-2.395.812-3.559.056-.176.419-.33.659-.363.748-.103 1.508-.12 2.257-.216.744-.096 1.492-.206 2.217-.388.775-.194 1.385.176 2.16.452-.204.126-.312.218-.437.265-1.333.516-2.68.998-4.001 1.542-.929.382-1.731.965-2.436 1.694-.29.299-.67.511-1.009.762-.075-.063-.148-.126-.222-.189" fill="#edab7a"/><path d="m62.83 137.244c1.668.029 3.201-.09 4.717-.811.173.953.326 1.796.479 2.64.071.391-.134.658-.479.695-1.183.128-2.37.223-3.559.283-.17.009-.457-.209-.512-.379-.238-.747-.41-1.514-.646-2.428" fill="#fff579"/><path d="m54.638 142.301c.156.568.33.932.344 1.301.032.911-.003 1.825-.023 2.737-.009.445-.22.781-.665.875-.93.197-1.864.386-2.805.521-.497.071-.665-.151-.533-.629.294-1.054.885-1.959 1.592-2.767.595-.678 1.291-1.267 2.09-2.038" fill="#fff579"/><path d="m69.009 150.014c-.172-1.006-.333-1.891-.464-2.78-.024-.169.014-.41.122-.526.804-.856 2.542-.578 3.069.473.338.674.263 1.19-.284 1.726-.681.668-1.552.923-2.443 1.107" fill="#edab7a"/><path d="m77.842 144.937c.801.06 1.343.403 1.693 1.053.267.494.205 1.045-.19 1.419-.62.585-1.364.942-2.218 1.051-.372.047-.627-.041-.575-.498.064-.58-.107-1.105-.454-1.561-.31-.407-.119-.693.228-.865.486-.241 1.009-.403 1.516-.599" fill="#edab7a"/><path d="m74.12 146.066c.777.007 1.396.471 1.646 1.204.205.606-.013 1.176-.656 1.649-.461.339-.972.543-1.562.504-.603-.039-.841-.274-.859-.901-.008-.318.014-.637.006-.955-.008-.305-.169-.746-.026-.885.293-.286.74-.419 1.133-.595.101-.045.236-.017.318-.021" fill="#edab7a"/><path d="m80.389 147.508c-.092-.653-.09-1.208-.262-1.702-.165-.477-.01-.669.389-.789.225-.069.461-.117.694-.134.775-.056 1.45.208 1.517.655.097.641-.234 1.141-.715 1.537-.485.399-1.048.516-1.623.433" fill="#edab7a"/><path d="m47.195 137.973c1.013-.11 1.957-.209 2.9-.316.262-.03.491-.005.538.304.05.335.087.675.083 1.012 0 .045-.273.119-.422.125-.596.027-1.194.021-1.79.048-.87.038-1.181.114-1.309-1.173" fill="#fff579"/><path d="m56.087 60.405c.562-.328.973-.568 1.456-.85-.384.813-.384.813-1.456.85" fill="#231f20"/><path d="m40.868 8.469c-.292-.171-.588-.333-.874-.514-1.082-.682-2.253-.986-3.535-.894-1.906.138-3.072 1.513-2.835 3.402.033.265.165.523.276.773.114.254.3.483.371.745.043.159-.024.471-.13.518-.183.082-.447.053-.653-.009-.129-.038-.218-.219-.317-.342-.626-.778-1.266-.995-2.171-.735-1.095.316-2.111 1.555-2.212 2.699-.074.826-.204.919-1.064.752-2.502-.486-4.606 1.964-3.786 4.417.126.377.308.736.439 1.112.03.087-.009.259-.074.301-.081.053-.249.055-.334.004-.62-.373-.988-.945-1.094-1.641-.481-3.118 1.927-5.344 4.212-5.252.457.018.652-.084.851-.564.733-1.763 2.041-2.827 4.032-2.833.517-.002.661-.176.709-.685.2-2.107 1.617-3.352 3.742-3.41 1.058-.029 2.07.136 3.033.565.663.295 1.231.712 1.58 1.358-.056.078-.11.155-.166.233" fill="#1375bc"/><g fill="#231f20"><path d="m48.226 53.556c-.495.046-.963.052-1.414.139-1.712.331-3.223 1.142-4.728 1.98-.639.357-.816.764.076 1.289.229.134.528.197.798.207.557.02 1.121.022 1.674-.039 1.902-.207 3.166-1.443 3.594-3.576m.639-3.455c-1.528.534-3.002 1.1-4.509 1.564-1.539.474-3.12.198-4.785-.006.398 1.357.76 2.589 1.497 3.752.386-.244.708-.461 1.043-.659 1.584-.937 3.226-1.736 5.085-1.946 1.725-.194 1.732-.182 1.722-1.936-.001-.271-.037-.542-.053-.769m-5.55 7.985c-1.167.215-1.998-.634-2.854-1.421-.079-.072-.116-.198-.155-.306-.45-1.232-.923-2.456-1.334-3.7-.336-1.014-.88-1.786-1.87-2.287-.663-.336-1.233-.86-1.825-1.326-.079-.062-.04-.274-.056-.416.146-.004.317-.06.432-.002 1.063.542 2.095 1.15 3.177 1.652 1.817.842 3.714.841 5.621.351 1.517-.39 2.933-1.039 4.3-1.793.222-.122.511-.185.45-.591-.103-.682-.072-.69.5-.564.877.194 1.734.125 2.605-.086.347-.084.942-.4 1.075.016.169.527-.467.64-.874.724-.581.121-1.177.177-1.768.24-.746.08-.997.295-1.029 1.042-.031.757-.011 1.518-.002 2.276.009.813-.109 1.582-.577 2.281-.243.362-.436.763-.616 1.162-.889 1.968-2.584 2.588-4.56 2.746-.159.014-.319.002-.64.002"/><path d="m38.009 37.621c.04.862-.116 1.668-.608 2.393-.282.414-.633.764-1.163.716-.603-.054-1.037-.413-1.214-1.003-.435-1.438-.191-2.781.759-3.928.702-.846 1.838-.547 2.11.518.107.417.081.868.116 1.304"/><path d="m39.841 42.494c-.008-1.423.607-2.4 1.778-2.825 1.06-.384 2.683.044 3.4.911.065.08.116.283.077.317-.103.088-.283.187-.39.152-.3-.098-.577-.264-.864-.4-.951-.45-1.797-.361-2.44.256-.614.588-.824 1.562-.406 2.437.736 1.537 1.852 2.586 3.693 2.561.12-.002.243-.028.357-.006.106.022.289.101.285.142-.011.143-.049.338-.15.41-.221.158-.477.323-.736.356-.388.049-.807.053-1.186-.036-1.747-.41-3.608-2.572-3.418-4.275"/><path d="m48.158 37.307c.056-.514.068-1.038.181-1.539.118-.524.398-.993 1.001-1.06.524-.058.899.249 1.193.659.788 1.1.798 2.965.021 4.075-.547.78-1.499.795-1.929-.063-.31-.618-.386-1.352-.567-2.035.034-.012.067-.025.1-.037"/><path d="m48.92 25.823c1.899.168 3.43.71 4.373 2.318.281.48.563.96.84 1.442.058.102.141.219.134.324-.014.183-.036.435-.155.518-.11.078-.369.015-.525-.062-.127-.063-.21-.231-.295-.364-.128-.201-.265-.402-.356-.62-.681-1.62-1.919-2.48-3.64-2.691-.118-.015-.239-.023-.354-.053-.264-.069-.641-.125-.549-.467.048-.184.421-.281.527-.345"/><path d="m37.892 26.646c-.031.097-.035.187-.081.239-.077.088-.169.184-.274.221-1.954.678-3.094 2.156-3.917 3.951-.05.108-.091.243-.18.304-.142.099-.319.147-.481.216-.059-.175-.211-.38-.164-.519.718-2.135 1.988-3.791 4.163-4.612.205-.077.464-.043.693-.015.091.011.166.145.241.215"/></g><path d="m48.864 50.101c.017.228.053.499.054.77.009 1.753.003 1.741-1.723 1.936-1.858.21-3.501 1.008-5.085 1.945-.335.198-.657.415-1.043.66-.736-1.164-1.099-2.396-1.497-3.753 1.665.204 3.246.48 4.785.006 1.507-.464 2.982-1.03 4.509-1.564" fill="#be1e2d"/><path d="m48.226 53.556c-.428 2.133-1.692 3.369-3.594 3.576-.553.061-1.117.059-1.674.039-.27-.01-.569-.073-.798-.207-.892-.525-.715-.932-.076-1.289 1.505-.838 3.016-1.649 4.728-1.98.451-.087.919-.093 1.414-.139" fill="#f8bfc3"/><path d="m41.717 165.547c-.014 2.002 1.204 3.416 3.556 3.416 2.436 0 3.458-1.554 3.458-3.22 0-1.47-.882-2.226-2.464-2.912-1.75-.728-2.31-.924-2.296-1.694 0-.7.588-1.176 1.274-1.176 1.022 0 1.204.798 1.288 1.274h2.058c-.084-2.296-1.904-3.024-3.276-3.024-1.68 0-3.43 1.078-3.43 3.066 0 1.96 1.806 2.604 2.59 2.884 1.442.574 2.184.798 2.184 1.68 0 .728-.616 1.372-1.414 1.372-.448 0-1.386-.266-1.456-1.666z" fill="#fff"/><path d="m49.627 164.917c0 1.988 1.442 4.074 4.116 4.074s4.116-2.086 4.116-4.074c0-1.974-1.442-4.06-4.116-4.06s-4.116 2.086-4.116 4.046zm1.834 0c0-1.358 1.022-2.352 2.282-2.352s2.268.994 2.268 2.352-1.008 2.352-2.268 2.352-2.282-.994-2.282-2.338z" fill="#fff"/><path d="m59.273 168.767h1.834v-4.242c0-1.078.448-1.946 1.75-1.96 1.288 0 1.666.882 1.666 2.03v4.172h1.834v-4.634c0-1.358-.476-3.276-2.982-3.29-1.372-.014-2.058.658-2.394 1.26.014-.364.014-.686.014-1.022h-1.722z" fill="#fff"/><path d="m68.149 160.045h1.834v-1.638h-1.834zm0 8.722h1.834v-7.686h-1.834z" fill="#fff"/><path d="m79.713 161.081h-1.834v1.12c-.336-.616-1.19-1.358-2.59-1.358-2.156 0-3.906 1.652-3.906 4.074 0 2.17 1.442 4.088 3.906 4.088 1.078 0 2.1-.448 2.59-1.344v1.106h1.834zm-6.496 3.864c0-1.19.84-2.394 2.324-2.394 1.106 0 1.82.63 2.142 1.358.154.336.224.714.21 1.078-.028.378-.112.742-.294 1.078-.35.7-1.022 1.232-2.044 1.232-1.652 0-2.338-1.386-2.338-2.338z" fill="#fff"/></g></svg>