<?xml version="1.0" encoding="UTF-8" standalone="no"?>
<!DOCTYPE svg PUBLIC "-//W3C//DTD SVG 1.1//EN" "http://www.w3.org/Graphics/SVG/1.1/DTD/svg11.dtd">
<svg width="100%" height="100%" viewBox="0 0 758 471" version="1.1" xmlns="http://www.w3.org/2000/svg" xmlns:xlink="http://www.w3.org/1999/xlink" xml:space="preserve" xmlns:serif="http://www.serif.com/" style="fill-rule:evenodd;clip-rule:evenodd;stroke-linecap:round;stroke-linejoin:round;stroke-miterlimit:10;">
    <g id="Mesa-de-trabajo1" serif:id="Mesa de trabajo1" transform="matrix(1,0,0,1,-121.477,-69.5299)">
        <rect x="121.477" y="69.53" width="757.902" height="470.47" style="fill:none;"/>
        <g transform="matrix(16.5332,0,0,11.7004,-838.37,-6.05968)">
            <g id="Capa-1" serif:id="Capa 1">
                <g id="f2">
                    <g class="lado" transform="matrix(-2.48986,0,0,2.48986,238.314,-125.746)">
                        <path d="M67.177,57.165L59.162,57.165" style="fill:none;stroke:rgb(246,143,53);stroke-width:1px;"/>
                    </g>
                    <g class="lado" serif:id="lado" transform="matrix(-2.48986,0,0,2.48986,238.314,-125.746)">
                        <path d="M59.162,57.165L59.162,65.18" style="fill:none;stroke:rgb(246,143,53);stroke-width:1px;"/>
                    </g>
                    <g class="lado" serif:id="lado" transform="matrix(-2.48986,0,0,2.48986,238.314,-125.746)">
                        <path d="M59.162,65.18L67.177,65.18" style="fill:none;stroke:rgb(246,143,53);stroke-width:1px;"/>
                    </g>
                    <g class="lado" serif:id="lado" transform="matrix(-2.48986,0,0,2.48986,238.314,-125.746)">
                        <path d="M67.177,65.18L67.177,57.165" style="fill:none;stroke:rgb(246,143,53);stroke-width:1px;"/>
                    </g>
                    <g class="angulo" transform="matrix(0.033525,0,0,0.0473723,60.5357,7.45541)">
                        <circle cx="313.703" cy="192.767" r="78.284" style="fill:none;stroke:rgb(128,128,128);stroke-width:10.82px;stroke-miterlimit:1.5;stroke-dasharray:21.65,32.47,0,0;"/>
                    </g>
                    <g class="angulo" serif:id="angulo" transform="matrix(0.033525,0,0,0.0473723,60.5281,27.4117)">
                        <circle cx="313.703" cy="192.767" r="78.284" style="fill:none;stroke:rgb(128,128,128);stroke-width:10.82px;stroke-miterlimit:1.5;stroke-dasharray:21.65,32.47,0,0;"/>
                    </g>
                    <g class="angulo" serif:id="angulo" transform="matrix(0.033525,0,0,0.0473723,80.3912,7.45541)">
                        <circle cx="313.703" cy="192.767" r="78.284" style="fill:none;stroke:rgb(128,128,128);stroke-width:10.82px;stroke-miterlimit:1.5;stroke-dasharray:21.65,32.47,0,0;"/>
                    </g>
                    <g class="angulo" serif:id="angulo" transform="matrix(0.033525,0,0,0.0473723,80.3836,27.4117)">
                        <circle cx="313.703" cy="192.767" r="78.284" style="fill:none;stroke:rgb(128,128,128);stroke-width:10.82px;stroke-miterlimit:1.5;stroke-dasharray:21.65,32.47,0,0;"/>
                    </g>
                    <g class="esquina" transform="matrix(1,0,0,1,43.1953,0)">
                        <g id="dot" transform="matrix(0.0604845,0,0,0.0854674,13.8629,0.679628)">
                            <circle cx="231.372" cy="419.621" r="18.059" style="fill:rgb(120,196,236);"/>
                        </g>
                        <g id="dot1" serif:id="dot" transform="matrix(0.0604845,0,0,0.0854674,33.8191,-19.2766)">
                            <circle cx="231.372" cy="419.621" r="18.059" style="fill:rgb(120,196,236);"/>
                        </g>
                        <g id="linea" transform="matrix(-2.48986,0,0,2.48986,14.0486,22.573)">
                            <path d="M-5.546,5.611L-13.561,-2.404" style="fill:none;fill-rule:nonzero;stroke:rgb(120,196,236);stroke-width:0.27px;stroke-dasharray:0.53,0.8,0,0;"/>
                        </g>
                    </g>
                    <g class="esquina" serif:id="esquina" transform="matrix(1,0,0,1,43.1953,0)">
                        <g id="dot2" serif:id="dot" transform="matrix(0.0604845,0,0,0.0854674,13.8629,-19.2766)">
                            <circle cx="231.372" cy="419.621" r="18.059" style="fill:rgb(120,196,236);"/>
                        </g>
                        <g id="dot3" serif:id="dot" transform="matrix(0.0604845,0,0,0.0854674,33.8191,0.679628)">
                            <circle cx="231.372" cy="419.621" r="18.059" style="fill:rgb(120,196,236);"/>
                        </g>
                        <g id="linea1" serif:id="linea" transform="matrix(-2.48986,0,0,2.48986,14.0486,22.573)">
                            <path d="M-5.546,-2.404L-13.561,5.611" style="fill:none;fill-rule:nonzero;stroke:rgb(120,196,236);stroke-width:0.27px;stroke-dasharray:0.53,0.8,0,0;"/>
                        </g>
                    </g>
                </g>
            </g>
        </g>
    </g>
</svg>
