<?xml version="1.0" encoding="UTF-8" standalone="no"?><!DOCTYPE svg PUBLIC "-//W3C//DTD SVG 1.1//EN" "http://www.w3.org/Graphics/SVG/1.1/DTD/svg11.dtd"><svg width="100%" height="100%" viewBox="0 0 212 51" version="1.1" xmlns="http://www.w3.org/2000/svg" xmlns:xlink="http://www.w3.org/1999/xlink" xml:space="preserve" xmlns:serif="http://www.serif.com/" style="fill-rule:evenodd;clip-rule:evenodd;stroke-miterlimit:10;"><g><path d="M11.87,27.49l0,-6.029l-6.614,-3.322l6.617,-3.931c0.024,-4.929 4.062,-8.954 8.997,-8.954l176.173,0c4.95,0 9,4.049 9,9l0,21.684c0,4.95 -4.05,9 -9,9l-176.173,0c-4.95,0 -9,-4.05 -9,-9l0,-1.196l-6.614,-3.321l6.614,-3.931Z" style="fill:#fff7dc;fill-rule:nonzero;stroke:#ffd400;stroke-width:1px;"/><g><rect x="49.997" y="11.543" width="1.937" height="9.62" style="fill:#f68b1e;fill-rule:nonzero;"/><path d="M53.416,21.163l1.703,0l0,-3.939c0,-1.001 0.416,-1.807 1.625,-1.82c1.196,0 1.547,0.819 1.547,1.885l0,3.874l1.703,0l0,-4.303c0,-1.261 -0.442,-3.042 -2.769,-3.055c-1.274,-0.013 -1.911,0.611 -2.223,1.17c0.013,-0.338 0.013,-0.637 0.013,-0.949l-1.599,0l0,7.137Z" style="fill:#f68b1e;fill-rule:nonzero;"/><path d="M68.704,11.543l-1.703,0l0,3.406c-0.26,-0.416 -1.027,-1.144 -2.392,-1.144c-1.937,0 -3.588,1.469 -3.588,3.783c0,2.08 1.417,3.796 3.614,3.796c1.456,0 2.132,-0.715 2.444,-1.248l0,1.027l1.625,0l0,-9.62Zm-5.98,6.032c0,-1.118 0.806,-2.184 2.197,-2.184c0.611,0 1.157,0.234 1.547,0.624c0.39,0.377 0.637,0.91 0.637,1.534c0.026,0.624 -0.208,1.183 -0.611,1.586c-0.403,0.403 -0.962,0.65 -1.586,0.65c-1.313,0 -2.184,-0.988 -2.184,-2.197l0,-0.013Z" style="fill:#f68b1e;fill-rule:nonzero;"/><path d="M70.147,13.064l1.703,0l0,-1.521l-1.703,0l0,1.521Zm0,8.099l1.703,0l0,-7.137l-1.703,0l0,7.137Z" style="fill:#f68b1e;fill-rule:nonzero;"/><path d="M78.623,18.563c-0.26,0.585 -0.858,1.222 -1.924,1.222c-1.209,0 -2.106,-0.91 -2.106,-2.197c0,-0.624 0.221,-1.196 0.585,-1.586c0.416,-0.403 0.897,-0.624 1.521,-0.611c0.936,0 1.625,0.533 1.924,1.287l1.742,0c-0.416,-1.742 -1.937,-2.873 -3.731,-2.873c-2.132,0 -3.757,1.677 -3.757,3.783c0,2.041 1.56,3.796 3.822,3.796c1.846,0 3.263,-1.235 3.666,-2.821l-1.742,0Z" style="fill:#f68b1e;fill-rule:nonzero;"/><path d="M88.737,14.026l-1.703,0l0,1.04c-0.312,-0.572 -1.105,-1.261 -2.405,-1.261c-2.002,0 -3.627,1.534 -3.627,3.783c0,2.015 1.339,3.796 3.627,3.796c1.001,0 1.95,-0.416 2.405,-1.248l0,1.027l1.703,0l0,-7.137Zm-6.032,3.588c0,-1.105 0.78,-2.223 2.158,-2.223c1.027,0 1.69,0.585 1.989,1.261c0.143,0.312 0.208,0.663 0.195,1.001c-0.026,0.351 -0.104,0.689 -0.273,1.001c-0.325,0.65 -0.949,1.144 -1.898,1.144c-1.534,0 -2.171,-1.287 -2.171,-2.171l0,-0.013Z" style="fill:#f68b1e;fill-rule:nonzero;"/><path d="M100.827,18.16c0.143,-1.248 -0.182,-2.366 -1.053,-3.263c-0.663,-0.689 -1.599,-1.092 -2.665,-1.092c-2.158,0 -3.744,1.781 -3.744,3.809c0,1.989 1.573,3.77 3.77,3.77c0.741,0 1.443,-0.208 2.041,-0.624c0.598,-0.403 1.105,-1.001 1.443,-1.794l-1.755,0c-0.325,0.585 -0.884,0.962 -1.716,0.962c-0.975,0.013 -1.989,-0.624 -2.067,-1.768l5.746,0Zm-5.72,-1.3c0.065,-0.702 0.754,-1.612 2.015,-1.612c1.248,-0.013 1.963,0.936 2.028,1.612l-4.043,0Z" style="fill:#f68b1e;fill-rule:nonzero;"/><rect x="101.867" y="11.543" width="1.703" height="9.62" style="fill:#f68b1e;fill-rule:nonzero;"/><path d="M115.946,11.543l-1.703,0l0,3.406c-0.26,-0.416 -1.027,-1.144 -2.392,-1.144c-1.937,0 -3.588,1.469 -3.588,3.783c0,2.08 1.417,3.796 3.614,3.796c1.456,0 2.132,-0.715 2.444,-1.248l0,1.027l1.625,0l0,-9.62Zm-5.98,6.032c0,-1.118 0.806,-2.184 2.197,-2.184c0.611,0 1.157,0.234 1.547,0.624c0.39,0.377 0.637,0.91 0.637,1.534c0.026,0.624 -0.208,1.183 -0.611,1.586c-0.403,0.403 -0.962,0.65 -1.586,0.65c-1.313,0 -2.184,-0.988 -2.184,-2.197l0,-0.013Z" style="fill:#f68b1e;fill-rule:nonzero;"/><path d="M117.389,13.064l1.703,0l0,-1.521l-1.703,0l0,1.521Zm0,8.099l1.703,0l0,-7.137l-1.703,0l0,7.137Z" style="fill:#f68b1e;fill-rule:nonzero;"/><path d="M127.867,14.026l-1.703,0l0,1.04c-0.312,-0.572 -1.105,-1.261 -2.405,-1.261c-2.002,0 -3.627,1.534 -3.627,3.783c0,2.015 1.339,3.796 3.627,3.796c1.001,0 1.95,-0.416 2.405,-1.248l0,1.027l1.703,0l0,-7.137Zm-6.032,3.588c0,-1.105 0.78,-2.223 2.158,-2.223c1.027,0 1.69,0.585 1.989,1.261c0.143,0.312 0.208,0.663 0.195,1.001c-0.026,0.351 -0.104,0.689 -0.273,1.001c-0.325,0.65 -0.949,1.144 -1.898,1.144c-1.534,0 -2.171,-1.287 -2.171,-2.171l0,-0.013Zm0.728,-5.447l0.507,1.027l3.172,-1.508l-0.572,-1.235l-3.107,1.716Z" style="fill:#f68b1e;fill-rule:nonzero;"/><rect x="129.297" y="11.543" width="1.703" height="9.62" style="fill:#f68b1e;fill-rule:nonzero;"/><path d="M132.04,17.588c0,1.846 1.339,3.783 3.822,3.783c2.483,0 3.822,-1.937 3.822,-3.783c0,-1.833 -1.339,-3.77 -3.822,-3.77c-2.483,0 -3.822,1.937 -3.822,3.757l0,0.013Zm1.703,0c0,-1.261 0.949,-2.184 2.119,-2.184c1.17,0 2.106,0.923 2.106,2.184c0,1.261 -0.936,2.184 -2.106,2.184c-1.17,0 -2.119,-0.923 -2.119,-2.171l0,-0.013Z" style="fill:#f68b1e;fill-rule:nonzero;"/><path d="M148.03,14.026l-1.716,0l0,0.962c-0.403,-0.702 -1.287,-1.17 -2.314,-1.17c-1.976,0 -3.64,1.482 -3.64,3.809c0,2.197 1.586,3.757 3.64,3.757c1.209,0 1.963,-0.637 2.314,-1.274l0,0.598c0,1.443 -1.105,2.145 -2.119,2.145c-0.208,0 -0.585,-0.052 -0.936,-0.247c-0.312,-0.156 -0.585,-0.403 -0.741,-0.728l-1.976,0c0.26,1.105 1.326,2.431 3.549,2.431c1.469,0 2.665,-0.65 3.276,-1.469c0.442,-0.598 0.663,-1.352 0.663,-2.522l0,-6.292Zm-5.967,3.549c0,-1.274 0.975,-2.171 2.132,-2.171c0.741,0 1.274,0.286 1.612,0.715c0.351,0.416 0.52,0.988 0.52,1.534c-0.013,0.611 -0.234,1.144 -0.611,1.521c-0.377,0.39 -0.884,0.611 -1.521,0.611c-1.235,0 -2.132,-0.949 -2.132,-2.197l0,-0.013Z" style="fill:#f68b1e;fill-rule:nonzero;"/><path d="M149.044,17.588c0,1.846 1.339,3.783 3.822,3.783c2.483,0 3.822,-1.937 3.822,-3.783c0,-1.833 -1.339,-3.77 -3.822,-3.77c-2.483,0 -3.822,1.937 -3.822,3.757l0,0.013Zm1.703,0c0,-1.261 0.949,-2.184 2.119,-2.184c1.17,0 2.106,0.923 2.106,2.184c0,1.261 -0.936,2.184 -2.106,2.184c-1.17,0 -2.119,-0.923 -2.119,-2.171l0,-0.013Z" style="fill:#f68b1e;fill-rule:nonzero;"/><path d="M161.017,17.588c0,1.846 1.339,3.783 3.822,3.783c2.483,0 3.822,-1.937 3.822,-3.783c0,-1.833 -1.339,-3.77 -3.822,-3.77c-2.483,0 -3.822,1.937 -3.822,3.757l0,0.013Zm1.703,0c0,-1.261 0.949,-2.184 2.119,-2.184c1.17,0 2.106,0.923 2.106,2.184c0,1.261 -0.936,2.184 -2.106,2.184c-1.17,0 -2.119,-0.923 -2.119,-2.171l0,-0.013Z" style="fill:#f68b1e;fill-rule:nonzero;"/></g><g><path d="M24.309,34.566c-0.26,0.585 -0.858,1.222 -1.924,1.222c-1.209,0 -2.106,-0.91 -2.106,-2.197c0,-0.624 0.221,-1.196 0.585,-1.586c0.416,-0.403 0.897,-0.624 1.521,-0.611c0.936,0 1.625,0.533 1.924,1.287l1.742,0c-0.416,-1.742 -1.937,-2.873 -3.731,-2.873c-2.132,0 -3.757,1.677 -3.757,3.783c0,2.041 1.56,3.796 3.822,3.796c1.846,0 3.263,-1.235 3.666,-2.821l-1.742,0Z" style="fill:#f68b1e;fill-rule:nonzero;"/><path d="M26.688,33.591c0,1.846 1.339,3.783 3.822,3.783c2.483,0 3.822,-1.937 3.822,-3.783c0,-1.833 -1.339,-3.77 -3.822,-3.77c-2.483,0 -3.822,1.937 -3.822,3.757l0,0.013Zm1.703,0c0,-1.261 0.949,-2.184 2.119,-2.184c1.17,0 2.106,0.923 2.106,2.184c0,1.261 -0.936,2.184 -2.106,2.184c-1.17,0 -2.119,-0.923 -2.119,-2.171l0,-0.013Z" style="fill:#f68b1e;fill-rule:nonzero;"/><path d="M35.385,37.166l1.703,0l0,-3.861c0,-0.416 0.065,-0.858 0.273,-1.235c0.208,-0.364 0.598,-0.663 1.222,-0.663c0.611,0.013 0.962,0.286 1.17,0.663c0.182,0.364 0.221,0.767 0.221,1.183l0,3.913l1.703,0l0,-3.913c0,-0.429 0.026,-0.806 0.247,-1.196c0.221,-0.39 0.637,-0.65 1.235,-0.65c0.598,0 0.936,0.234 1.118,0.585c0.247,0.377 0.286,0.871 0.286,1.326l0,3.848l1.703,0l0,-3.913c0,-1.469 -0.13,-2.054 -0.78,-2.73c-0.546,-0.559 -1.3,-0.715 -1.898,-0.715c-0.754,0 -1.378,0.286 -1.82,0.702c-0.234,0.221 -0.39,0.455 -0.52,0.676c-0.091,-0.182 -0.273,-0.481 -0.429,-0.65c-0.52,-0.559 -1.17,-0.728 -1.755,-0.728c-1.235,0 -1.924,0.793 -2.08,1.118l0,-0.897l-1.599,0l0,7.137Z" style="fill:#f68b1e;fill-rule:nonzero;"/><path d="M54.664,34.163c0.143,-1.248 -0.182,-2.366 -1.053,-3.263c-0.663,-0.689 -1.599,-1.092 -2.665,-1.092c-2.158,0 -3.744,1.781 -3.744,3.809c0,1.989 1.573,3.77 3.77,3.77c0.741,0 1.443,-0.208 2.041,-0.624c0.598,-0.403 1.105,-1.001 1.443,-1.794l-1.755,0c-0.325,0.585 -0.884,0.962 -1.716,0.962c-0.975,0.013 -1.989,-0.624 -2.067,-1.768l5.746,0Zm-5.72,-1.3c0.065,-0.702 0.754,-1.612 2.015,-1.612c1.248,-0.013 1.963,0.936 2.028,1.612l-4.043,0Z" style="fill:#f68b1e;fill-rule:nonzero;"/><path d="M55.704,37.166l1.703,0l0,-3.939c0,-1.001 0.416,-1.807 1.625,-1.82c1.196,0 1.547,0.819 1.547,1.885l0,3.874l1.703,0l0,-4.303c0,-1.261 -0.442,-3.042 -2.769,-3.055c-1.274,-0.013 -1.911,0.611 -2.223,1.17c0.013,-0.338 0.013,-0.637 0.013,-0.949l-1.599,0l0,7.137Z" style="fill:#f68b1e;fill-rule:nonzero;"/><path d="M64.154,37.166l1.703,0l0,-5.824l1.222,0l0,-1.313l-1.222,0l0,-2.483l-1.703,0l0,2.483l-1.183,0l0,1.313l1.183,0l0,5.824Z" style="fill:#f68b1e;fill-rule:nonzero;"/><path d="M74.853,30.029l-1.703,0l0,1.04c-0.312,-0.572 -1.105,-1.261 -2.405,-1.261c-2.002,0 -3.627,1.534 -3.627,3.783c0,2.015 1.339,3.796 3.627,3.796c1.001,0 1.95,-0.416 2.405,-1.248l0,1.027l1.703,0l0,-7.137Zm-6.032,3.588c0,-1.105 0.78,-2.223 2.158,-2.223c1.027,0 1.69,0.585 1.989,1.261c0.143,0.312 0.208,0.663 0.195,1.001c-0.026,0.351 -0.104,0.689 -0.273,1.001c-0.325,0.65 -0.949,1.144 -1.898,1.144c-1.534,0 -2.171,-1.287 -2.171,-2.171l0,-0.013Z" style="fill:#f68b1e;fill-rule:nonzero;"/><path d="M76.27,37.166l1.703,0l0,-3.848c0,-1.235 0.611,-1.794 1.807,-1.794l0.078,0l0,-1.716c-1.079,0.013 -1.664,0.52 -1.976,1.157l0,-0.936l-1.612,0l0,7.137Z" style="fill:#f68b1e;fill-rule:nonzero;"/><path d="M80.638,29.067l1.703,0l0,-1.521l-1.703,0l0,1.521Zm0,8.099l1.703,0l0,-7.137l-1.703,0l0,7.137Z" style="fill:#f68b1e;fill-rule:nonzero;"/><path d="M83.381,33.591c0,1.846 1.339,3.783 3.822,3.783c2.483,0 3.822,-1.937 3.822,-3.783c0,-1.833 -1.339,-3.77 -3.822,-3.77c-2.483,0 -3.822,1.937 -3.822,3.757l0,0.013Zm1.703,0c0,-1.261 0.949,-2.184 2.119,-2.184c1.17,0 2.106,0.923 2.106,2.184c0,1.261 -0.936,2.184 -2.106,2.184c-1.17,0 -2.119,-0.923 -2.119,-2.171l0,-0.013Z" style="fill:#f68b1e;fill-rule:nonzero;"/><path d="M103.037,27.546l-1.703,0l0,3.406c-0.26,-0.416 -1.027,-1.144 -2.392,-1.144c-1.937,0 -3.588,1.469 -3.588,3.783c0,2.08 1.417,3.796 3.614,3.796c1.456,0 2.132,-0.715 2.444,-1.248l0,1.027l1.625,0l0,-9.62Zm-5.98,6.032c0,-1.118 0.806,-2.184 2.197,-2.184c0.611,0 1.157,0.234 1.547,0.624c0.39,0.377 0.637,0.91 0.637,1.534c0.026,0.624 -0.208,1.183 -0.611,1.586c-0.403,0.403 -0.962,0.65 -1.586,0.65c-1.313,0 -2.184,-0.988 -2.184,-2.197l0,-0.013Z" style="fill:#f68b1e;fill-rule:nonzero;"/><path d="M111.487,34.163c0.143,-1.248 -0.182,-2.366 -1.053,-3.263c-0.663,-0.689 -1.599,-1.092 -2.665,-1.092c-2.158,0 -3.744,1.781 -3.744,3.809c0,1.989 1.573,3.77 3.77,3.77c0.741,0 1.443,-0.208 2.041,-0.624c0.598,-0.403 1.105,-1.001 1.443,-1.794l-1.755,0c-0.325,0.585 -0.884,0.962 -1.716,0.962c-0.975,0.013 -1.989,-0.624 -2.067,-1.768l5.746,0Zm-5.72,-1.3c0.065,-0.702 0.754,-1.612 2.015,-1.612c1.248,-0.013 1.963,0.936 2.028,1.612l-4.043,0Z" style="fill:#f68b1e;fill-rule:nonzero;"/><path d="M122.758,30.029l-1.703,0l0,3.939c0,1.014 -0.416,1.82 -1.638,1.82c-1.209,0.013 -1.56,-0.819 -1.56,-1.872l0,-3.887l-1.703,0l0,4.316c0,1.248 0.442,3.029 2.782,3.042c1.287,0.013 1.924,-0.611 2.223,-1.17l0,0.949l1.599,0l0,-7.137Z" style="fill:#f68b1e;fill-rule:nonzero;"/><path d="M124.188,37.166l1.703,0l0,-3.939c0,-1.001 0.416,-1.807 1.625,-1.82c1.196,0 1.547,0.819 1.547,1.885l0,3.874l1.703,0l0,-4.303c0,-1.261 -0.442,-3.042 -2.769,-3.055c-1.274,-0.013 -1.911,0.611 -2.223,1.17c0.013,-0.338 0.013,-0.637 0.013,-0.949l-1.599,0l0,7.137Z" style="fill:#f68b1e;fill-rule:nonzero;"/><path d="M135.199,39.662l1.703,0l0,-3.445c0.286,0.455 1.04,1.17 2.431,1.17c2.093,0 3.536,-1.703 3.536,-3.731c0,-1.729 -1.053,-3.848 -3.549,-3.848c-1.183,0 -2.015,0.546 -2.522,1.261l0,-1.04l-1.599,0l0,9.633Zm5.967,-6.058c0,1.17 -0.871,2.197 -2.171,2.197c-0.611,0 -1.157,-0.247 -1.547,-0.637c-0.39,-0.39 -0.624,-0.936 -0.624,-1.547c0,-0.624 0.234,-1.183 0.611,-1.573c0.39,-0.403 0.923,-0.65 1.547,-0.65c1.443,0 2.184,1.17 2.184,2.197l0,0.013Z" style="fill:#f68b1e;fill-rule:nonzero;"/><path d="M150.942,34.163c0.143,-1.248 -0.182,-2.366 -1.053,-3.263c-0.663,-0.689 -1.599,-1.092 -2.665,-1.092c-2.158,0 -3.744,1.781 -3.744,3.809c0,1.989 1.573,3.77 3.77,3.77c0.741,0 1.443,-0.208 2.041,-0.624c0.598,-0.403 1.105,-1.001 1.443,-1.794l-1.755,0c-0.325,0.585 -0.884,0.962 -1.716,0.962c-0.975,0.013 -1.989,-0.624 -2.067,-1.768l5.746,0Zm-5.72,-1.3c0.065,-0.702 0.754,-1.612 2.015,-1.612c1.248,-0.013 1.963,0.936 2.028,1.612l-4.043,0Z" style="fill:#f68b1e;fill-rule:nonzero;"/><path d="M151.969,37.166l1.703,0l0,-3.848c0,-1.235 0.611,-1.794 1.807,-1.794l0.078,0l0,-1.716c-1.079,0.013 -1.664,0.52 -1.976,1.157l0,-0.936l-1.612,0l0,7.137Z" style="fill:#f68b1e;fill-rule:nonzero;"/><path d="M161.017,31.953c-0.143,-1.716 -1.573,-2.145 -2.535,-2.145c-1.378,0 -2.561,0.871 -2.561,2.275c0.013,1.027 0.793,1.56 1.755,1.859c1.313,0.455 1.846,0.624 1.846,1.235c0.013,0.481 -0.442,0.832 -0.975,0.832c-0.325,0 -0.988,-0.156 -1.053,-0.923l-1.703,0c0.13,1.729 1.625,2.301 2.73,2.301c1.495,0 2.73,-0.936 2.704,-2.405c-0.013,-1.534 -1.248,-1.872 -2.392,-2.184c-0.676,-0.195 -1.196,-0.442 -1.209,-0.897c0,-0.351 0.273,-0.715 0.845,-0.715c0.663,0 0.858,0.39 0.871,0.767l1.677,0Z" style="fill:#f68b1e;fill-rule:nonzero;"/><path d="M161.862,33.591c0,1.846 1.339,3.783 3.822,3.783c2.483,0 3.822,-1.937 3.822,-3.783c0,-1.833 -1.339,-3.77 -3.822,-3.77c-2.483,0 -3.822,1.937 -3.822,3.757l0,0.013Zm1.703,0c0,-1.261 0.949,-2.184 2.119,-2.184c1.17,0 2.106,0.923 2.106,2.184c0,1.261 -0.936,2.184 -2.106,2.184c-1.17,0 -2.119,-0.923 -2.119,-2.171l0,-0.013Z" style="fill:#f68b1e;fill-rule:nonzero;"/><path d="M170.559,37.166l1.703,0l0,-3.939c0,-1.001 0.416,-1.807 1.625,-1.82c1.196,0 1.547,0.819 1.547,1.885l0,3.874l1.703,0l0,-4.303c0,-1.261 -0.442,-3.042 -2.769,-3.055c-1.274,-0.013 -1.911,0.611 -2.223,1.17c0.013,-0.338 0.013,-0.637 0.013,-0.949l-1.599,0l0,7.137Z" style="fill:#f68b1e;fill-rule:nonzero;"/><path d="M185.899,30.029l-1.703,0l0,1.04c-0.312,-0.572 -1.105,-1.261 -2.405,-1.261c-2.002,0 -3.627,1.534 -3.627,3.783c0,2.015 1.339,3.796 3.627,3.796c1.001,0 1.95,-0.416 2.405,-1.248l0,1.027l1.703,0l0,-7.137Zm-6.032,3.588c0,-1.105 0.78,-2.223 2.158,-2.223c1.027,0 1.69,0.585 1.989,1.261c0.143,0.312 0.208,0.663 0.195,1.001c-0.026,0.351 -0.104,0.689 -0.273,1.001c-0.325,0.65 -0.949,1.144 -1.898,1.144c-1.534,0 -2.171,-1.287 -2.171,-2.171l0,-0.013Z" style="fill:#f68b1e;fill-rule:nonzero;"/><path d="M187.641,29.067l1.703,0l0,-1.521l-1.703,0l0,1.521Zm1.703,0.962l-1.703,0l0,7.059c0,0.715 -0.039,1.365 -0.897,1.43l-0.247,0l0,1.326l0.442,0c2.171,-0.078 2.405,-1.3 2.405,-2.808l0,-7.007Z" style="fill:#f68b1e;fill-rule:nonzero;"/><path d="M197.911,34.163c0.143,-1.248 -0.182,-2.366 -1.053,-3.263c-0.663,-0.689 -1.599,-1.092 -2.665,-1.092c-2.158,0 -3.744,1.781 -3.744,3.809c0,1.989 1.573,3.77 3.77,3.77c0.741,0 1.443,-0.208 2.041,-0.624c0.598,-0.403 1.105,-1.001 1.443,-1.794l-1.755,0c-0.325,0.585 -0.884,0.962 -1.716,0.962c-0.975,0.013 -1.989,-0.624 -2.067,-1.768l5.746,0Zm-5.72,-1.3c0.065,-0.702 0.754,-1.612 2.015,-1.612c1.248,-0.013 1.963,0.936 2.028,1.612l-4.043,0Z" style="fill:#f68b1e;fill-rule:nonzero;"/><rect x="199.003" y="35.242" width="1.781" height="1.924" style="fill:#f68b1e;fill-rule:nonzero;"/></g></g></svg>