<svg clip-rule="evenodd" fill-rule="evenodd" viewBox="0 0 205 205" xmlns="http://www.w3.org/2000/svg"><g fill-rule="nonzero" stroke="#69dfff" stroke-width=".85"><path d="m0 45.523h45.523l-22.761-45.523z" fill="#c8f7ff" transform="matrix(4.16667 0 0 4.16667 7.30172471 7.75258286)"/><g fill="#9ee9ff"><path d="m0-4.771-2.36 4.771h5.095c1.265-3.601-2.735-4.771-2.735-4.771z" transform="matrix(4.16667 0 0 4.16667 17.13506591 197.43606794)"/><path d="m0-4.771 2.36 4.771h-5.095c-1.265-3.601 2.735-4.771 2.735-4.771z" transform="matrix(4.16667 0 0 4.16667 187.16020193 197.43606794)"/><path d="m0 3.719-2.991-6.08-2.96 6.08c3.469 2.361 5.951 0 5.951 0z" transform="matrix(4.16667 0 0 4.16667 114.61847723 17.14425704)"/></g></g></svg>