<?xml version="1.0" encoding="UTF-8" standalone="no"?>
<!DOCTYPE svg PUBLIC "-//W3C//DTD SVG 1.1//EN" "http://www.w3.org/Graphics/SVG/1.1/DTD/svg11.dtd">
<svg width="100%" height="100%" viewBox="0 0 418 356" version="1.1" xmlns="http://www.w3.org/2000/svg" xmlns:xlink="http://www.w3.org/1999/xlink" xml:space="preserve" xmlns:serif="http://www.serif.com/" style="fill-rule:evenodd;clip-rule:evenodd;">
    <g transform="matrix(1,0,0,1,-3043.56,-4245.66)">
        <g transform="matrix(4.16667,0,0,4.16667,2723.92,3587.6)">
            <g transform="matrix(1,0,0,1,87.2811,241.201)">
                <path d="M0,-81.205C-4.697,-81.205 -8.504,-77.398 -8.504,-72.701L-8.504,-8.504C-8.504,-3.808 -4.697,0 0,0L79.06,0C83.757,0 87.564,-3.808 87.564,-8.504L87.564,-72.701C87.564,-77.398 83.757,-81.205 79.06,-81.205L0,-81.205Z" style="fill:rgb(190,229,234);fill-rule:nonzero;stroke:rgb(0,183,198);stroke-width:1px;"/>
            </g>
        </g>
        <g transform="matrix(4.16667,0,0,4.16667,2723.92,3587.6)">
            <g transform="matrix(1,0,0,1,102.25,165.034)">
                <path d="M0,44.993L49.122,44.993L24.562,0L0,44.993Z" style="fill:rgb(255,247,220);fill-rule:nonzero;stroke:rgb(255,223,105);stroke-width:0.94px;"/>
            </g>
        </g>
        <g transform="matrix(4.16667,0,0,4.16667,2723.92,3587.6)">
            <g transform="matrix(1,0,0,1,-10.8,-1.7053e-13)">
                <text x="104.116px" y="236.445px" style="font-family:'MyriadPro-Semibold', 'Myriad Pro', sans-serif;font-weight:600;font-size:11px;fill:rgb(35,31,32);">3<tspan x="109.743px 111.751px 114.309px 119.628px 125.75px 131.684px 136.002px 138.01px 140.557px 146.591px 152.581px 157.899px 160.457px 165.864px 170.061px " y="236.445px 236.445px 236.445px 236.445px 236.445px 236.445px 236.445px 236.445px 236.445px 236.445px 236.445px 236.445px 236.445px 236.445px 236.445px "> lados iguales.</tspan></text>
            </g>
        </g>
        <g transform="matrix(4.16667,0,0,4.16667,2723.92,3587.6)">
            <text x="99.321px" y="224.571px" style="font-family:'LucidaGrande-Bold', 'Lucida Grande', sans-serif;font-weight:600;font-size:10px;fill:rgb(0,183,198);">E<tspan x="105.579px 112.458px 119.277px 122.781px 126.286px 132.417px 136.722px 142.833px 147.631px " y="224.571px 224.571px 224.571px 224.571px 224.571px 224.571px 224.571px 224.571px 224.571px ">quilátero</tspan></text>
        </g>
    </g>
</svg>
