<?xml version="1.0" encoding="UTF-8" standalone="no"?>
<!DOCTYPE svg PUBLIC "-//W3C//DTD SVG 1.1//EN" "http://www.w3.org/Graphics/SVG/1.1/DTD/svg11.dtd">
<svg width="100%" height="100%" viewBox="0 0 418 356" version="1.1" xmlns="http://www.w3.org/2000/svg" xmlns:xlink="http://www.w3.org/1999/xlink" xml:space="preserve" xmlns:serif="http://www.serif.com/" style="fill-rule:evenodd;clip-rule:evenodd;">
    <g transform="matrix(1,0,0,1,-4433.42,-4245.66)">
        <g transform="matrix(4.16667,0,0,4.16667,2723.92,3587.6)">
            <g transform="matrix(1,0,0,1,420.846,241.201)">
                <path d="M0,-81.205C-4.697,-81.205 -8.504,-77.398 -8.504,-72.701L-8.504,-8.504C-8.504,-3.808 -4.697,0 0,0L79.06,0C83.757,0 87.564,-3.808 87.564,-8.504L87.564,-72.701C87.564,-77.398 83.757,-81.205 79.06,-81.205L0,-81.205Z" style="fill:rgb(190,229,234);fill-rule:nonzero;stroke:rgb(0,183,198);stroke-width:1px;"/>
            </g>
        </g>
        <g transform="matrix(4.16667,0,0,4.16667,2723.92,3587.6)">
            <g transform="matrix(1,0,0,1,442.864,165.97)">
                <path d="M0,46.047L46.658,46.047L-12.133,0L0,46.047Z" style="fill:rgb(255,247,220);fill-rule:nonzero;stroke:rgb(255,223,105);stroke-width:0.85px;"/>
            </g>
        </g>
        <g transform="matrix(4.16667,0,0,4.16667,2723.92,3587.6)">
            <text x="420.652px" y="236.445px" style="font-family:'MyriadPro-Semibold', 'Myriad Pro', sans-serif;font-weight:600;font-size:11px;fill:rgb(35,31,32);">N<tspan x="427.85px 430.362px 436.351px 442.35px 448.305px 454.294px 456.267px 458.79px 464.075px 470.162px 476.062px 478.036px 480.548px 486.547px 492.503px 497.787px 500.2px " y="236.445px 236.445px 236.445px 236.445px 236.445px 236.445px 236.445px 236.445px 236.445px 236.445px 236.445px 236.445px 236.445px 236.445px 236.445px 236.445px 236.445px ">ingún lado igual.</tspan></text>
        </g>
        <g transform="matrix(4.16667,0,0,4.16667,2723.92,3587.6)">
            <text x="437.891px" y="224.571px" style="font-family:'LucidaGrande-Bold', 'Lucida Grande', sans-serif;font-weight:600;font-size:10px;fill:rgb(113,191,68);">Esc<tspan x="455.02px " y="224.571px ">a</tspan>le<tspan x="470.155px " y="224.571px ">n</tspan>o</text>
        </g>
    </g>
</svg>
