<?xml version="1.0" encoding="UTF-8" standalone="no"?>
<!DOCTYPE svg PUBLIC "-//W3C//DTD SVG 1.1//EN" "http://www.w3.org/Graphics/SVG/1.1/DTD/svg11.dtd">
<svg width="100%" height="100%" viewBox="0 0 418 356" version="1.1" xmlns="http://www.w3.org/2000/svg" xmlns:xlink="http://www.w3.org/1999/xlink" xml:space="preserve" xmlns:serif="http://www.serif.com/" style="fill-rule:evenodd;clip-rule:evenodd;">
    <g transform="matrix(1,0,0,1,-3724.24,-4245.66)">
        <g transform="matrix(4.16667,0,0,4.16667,2723.92,3587.6)">
            <g transform="matrix(1,0,0,1,250.645,241.201)">
                <path d="M0,-81.205C-4.697,-81.205 -8.504,-77.398 -8.504,-72.701L-8.504,-8.504C-8.504,-3.808 -4.697,0 0,0L79.06,0C83.757,0 87.564,-3.808 87.564,-8.504L87.564,-72.701C87.564,-77.398 83.757,-81.205 79.06,-81.205L0,-81.205Z" style="fill:rgb(190,229,234);fill-rule:nonzero;stroke:rgb(0,183,198);stroke-width:1px;"/>
            </g>
        </g>
        <g transform="matrix(4.16667,0,0,4.16667,2723.92,3587.6)">
            <g transform="matrix(1,0,0,1,273.555,163.92)">
                <path d="M0,48.756L33.24,48.756L16.62,0L0,48.756Z" style="fill:rgb(255,247,220);fill-rule:nonzero;stroke:rgb(255,223,105);stroke-width:0.9px;"/>
            </g>
        </g>
        <g transform="matrix(4.16667,0,0,4.16667,2723.92,3587.6)">
            <g transform="matrix(1,0,0,1,-9.6,-3.41061e-13)">
                <text x="267.837px" y="236.445px" style="font-family:'MyriadPro-Semibold', 'Myriad Pro', sans-serif;font-weight:600;font-size:11px;fill:rgb(35,31,32);">2<tspan x="273.464px 275.472px 278.03px 283.349px 289.471px 295.405px 299.723px 301.731px 304.278px 310.312px 316.302px 321.62px 324.178px 329.585px 333.782px " y="236.445px 236.445px 236.445px 236.445px 236.445px 236.445px 236.445px 236.445px 236.445px 236.445px 236.445px 236.445px 236.445px 236.445px 236.445px "> lados iguales.</tspan></text>
            </g>
        </g>
        <g transform="matrix(4.16667,0,0,4.16667,2723.92,3587.6)">
            <text x="267.121px" y="224.571px" style="font-family:'LucidaGrande-Bold', 'Lucida Grande', sans-serif;font-weight:600;font-size:10px;fill:rgb(246,139,30);">Isós<tspan x="288.025px " y="224.571px ">c</tspan>ele<tspan x="308.211px " y="224.571px ">s</tspan></text>
        </g>
    </g>
</svg>
