<?xml version="1.0" encoding="UTF-8" standalone="no"?><!DOCTYPE svg PUBLIC "-//W3C//DTD SVG 1.1//EN" "http://www.w3.org/Graphics/SVG/1.1/DTD/svg11.dtd"><svg width="100%" height="100%" viewBox="0 0 200 200" version="1.1" xmlns="http://www.w3.org/2000/svg" xmlns:xlink="http://www.w3.org/1999/xlink" xml:space="preserve" xmlns:serif="http://www.serif.com/" style="fill-rule:evenodd;clip-rule:evenodd;stroke-linejoin:round;stroke-miterlimit:2;"><path class="relleno" d="M38.465,160.95c-0.023,0.054 -0.041,0.088 -0.051,0.108l0.051,-0.108Zm0.504,0.625c-0.003,0.001 -0.249,0.042 -0.416,-0.125c-0.074,-0.074 -0.184,-0.185 -0.074,-0.529l10.502,-22.205l12.305,12.305l-22.317,10.554Zm33.267,-13.29l-20.52,-20.519l5.034,-5.033l20.519,20.519l-5.033,5.033Zm11.876,-11.876l-20.52,-20.519l67.24,-67.24l20.519,20.52l-67.239,67.239Zm53.562,-94.602l5.423,-5.422l20.519,20.519l-5.423,5.423l-20.519,-20.52Z" style="fill:#eb118b;fill-rule:nonzero;"/><path d="M145.925,25.528c-1.562,-1.562 -4.094,-1.562 -5.657,0c-15.124,15.124 -86.274,86.274 -99.957,99.958c-1.259,1.259 -1.259,3.3 0,4.559c0,0 0,0 0,0.001c0.841,0.841 1.063,2.119 0.555,3.195c-2.745,5.802 -11.207,23.695 -11.214,23.709c-0.002,0.004 -0.004,0.008 -0.006,0.012c-1.092,2.358 -1.881,7.384 2.063,11.33c2.234,2.234 4.814,2.949 7.066,2.949c1.725,0 3.258,-0.42 4.293,-0.9c0.004,-0.002 0.007,-0.003 0.011,-0.005c0.014,-0.007 17.884,-8.458 23.681,-11.2c1.076,-0.509 2.355,-0.287 3.196,0.554c0,0 0,0 0,0c1.259,1.26 3.3,1.26 4.559,0c13.684,-13.683 84.834,-84.833 99.959,-99.958c0.75,-0.75 1.171,-1.767 1.171,-2.828c0,-1.061 -0.421,-2.078 -1.171,-2.828c-6.436,-6.436 -22.113,-22.113 -28.549,-28.548Zm-107.46,135.422c-0.023,0.054 -0.041,0.088 -0.051,0.108l0.051,-0.108Zm0.566,0.596c-0.145,0.069 -0.317,0.049 -0.443,-0.051c-0.008,-0.02 -0.022,-0.032 -0.035,-0.045c-0.072,-0.073 -0.179,-0.179 -0.081,-0.506c0.002,-0.008 0.005,-0.015 0.009,-0.023c0.011,-0.027 4.974,-10.521 8.072,-17.071c0.556,-1.176 1.65,-2.008 2.932,-2.231c1.282,-0.222 2.592,0.193 3.512,1.113c1.371,1.37 2.902,2.902 4.273,4.272c0.92,0.921 1.335,2.231 1.112,3.513c-0.222,1.282 -1.054,2.376 -2.231,2.932c-6.296,2.977 -16.245,7.683 -17.12,8.097Zm35.72,-15.777c-1.389,1.389 -3.642,1.389 -5.031,0c-3.945,-3.945 -11.543,-11.542 -15.488,-15.487c-1.389,-1.39 -1.389,-3.643 0,-5.032c0.001,-0.001 0.001,-0.001 0.002,-0.002c1.389,-1.389 3.642,-1.389 5.031,0c3.945,3.945 11.543,11.543 15.488,15.488c1.389,1.389 1.389,3.642 0,5.031c-0.001,0.001 -0.001,0.001 -0.002,0.002Zm12.189,-12.189c-0.75,0.75 -1.768,1.172 -2.828,1.172c-1.061,0 -2.079,-0.422 -2.829,-1.172c-3.915,-3.915 -10.947,-10.946 -14.862,-14.862c-0.75,-0.75 -1.172,-1.767 -1.172,-2.828c0,-1.061 0.422,-2.079 1.172,-2.829c10.967,-10.967 50.615,-50.615 61.582,-61.582c0.751,-0.75 1.768,-1.172 2.829,-1.172c1.061,0 2.078,0.422 2.828,1.172c3.916,3.915 10.947,10.947 14.863,14.862c1.562,1.562 1.562,4.095 -0.001,5.657c-10.966,10.967 -50.615,50.615 -61.582,61.582Zm53.445,-89.062c-1.497,-1.497 -1.497,-3.924 0,-5.422c0.001,0 0.001,0 0.001,0c1.497,-1.497 3.925,-1.497 5.422,0c3.93,3.93 11.167,11.167 15.097,15.097c0.719,0.719 1.123,1.694 1.123,2.711c0,1.017 -0.404,1.992 -1.123,2.711c0,0 0,0 0,0.001c-0.719,0.719 -1.695,1.123 -2.711,1.123c-1.017,0 -1.993,-0.404 -2.712,-1.123c-3.929,-3.93 -11.167,-11.168 -15.097,-15.098Z" style="fill-rule:nonzero;"/></svg>