<?xml version="1.0" encoding="UTF-8" standalone="no"?>
<!DOCTYPE svg PUBLIC "-//W3C//DTD SVG 1.1//EN" "http://www.w3.org/Graphics/SVG/1.1/DTD/svg11.dtd">
<svg width="100%" height="100%" viewBox="0 0 567 142" version="1.1" xmlns="http://www.w3.org/2000/svg" xmlns:xlink="http://www.w3.org/1999/xlink" xml:space="preserve" xmlns:serif="http://www.serif.com/" style="fill-rule:evenodd;clip-rule:evenodd;">
    <g transform="matrix(1,0,0,1,-25820,-6780.08)">
        <g transform="matrix(5.55556,0,0,5.55556,25423.2,4783.46)">
            <g transform="matrix(1,0,0,1,81.996,382.888)">
                <path d="M0,-21.435C-4.697,-21.435 -8.504,-17.628 -8.504,-12.931L-8.504,-8.504C-8.504,-3.808 -4.697,0 0,0L80.893,0C85.59,0 89.397,-3.808 89.397,-8.504L89.397,-12.931C89.397,-17.628 85.59,-21.435 80.893,-21.435L0,-21.435Z" style="fill:white;fill-rule:nonzero;stroke:rgb(170,225,250);stroke-width:1px;"/>
            </g>
        </g>
        <g transform="matrix(5.55556,0,0,5.55556,25423.2,4783.46)">
            <text x="87.646px" y="376.01px" style="font-family:'ITCAvantGardeStd-Bk', 'ITC Avant Garde Gothic Std', sans-serif;font-weight:300;font-size:11px;fill:rgb(236,0,140);">Ingr<tspan x="107.82px " y="376.01px ">e</tspan>dient<tspan x="141.699px " y="376.01px ">e</tspan>s</text>
        </g>
    </g>
</svg>
