<?xml version="1.0" encoding="UTF-8" standalone="no"?>
<!DOCTYPE svg PUBLIC "-//W3C//DTD SVG 1.1//EN" "http://www.w3.org/Graphics/SVG/1.1/DTD/svg11.dtd">
<svg width="100%" height="100%" viewBox="0 0 820 621" version="1.1" xmlns="http://www.w3.org/2000/svg" xmlns:xlink="http://www.w3.org/1999/xlink" xml:space="preserve" xmlns:serif="http://www.serif.com/" style="fill-rule:evenodd;clip-rule:evenodd;stroke-linejoin:round;stroke-miterlimit:2;">
    <g transform="matrix(1,0,0,1,-27706.7,-7249.22)">
        <g transform="matrix(5.55556,0,0,5.55556,25423.2,4783.46)">
            <g transform="matrix(0,-1,-1,0,484.793,429.508)">
                <path d="M-73.769,-73.769C-102.661,-73.769 -126.082,-40.742 -126.082,0.001C-126.082,40.742 -102.661,73.769 -73.769,73.769C-44.877,73.769 -21.456,40.742 -21.456,0.001C-21.456,-40.742 -44.877,-73.769 -73.769,-73.769" style="fill:rgb(246,240,133);fill-rule:nonzero;"/>
            </g>
        </g>
        <g transform="matrix(5.55556,0,0,5.55556,25423.2,4783.46)">
            <g opacity="0.5">
                <g transform="matrix(1,0,0,1,511.854,483.972)">
                    <path d="M0,-19.028C-0.387,-18.851 -0.785,-18.696 -1.158,-18.495C-5.773,-16.01 -10.106,-13.093 -14.263,-9.91C-16.577,-8.137 -18.832,-6.297 -20.912,-4.246C-24.204,-1.003 -26.902,2.694 -29.311,6.618C-29.437,6.822 -29.555,7.03 -29.672,7.239C-29.837,7.535 -30.047,7.601 -30.362,7.439C-31.656,6.771 -31.729,6.613 -31.083,5.247C-30.229,3.446 -29.392,1.633 -28.46,-0.13C-26.638,-3.578 -24.203,-6.592 -21.524,-9.398C-19.819,-11.185 -17.978,-12.841 -16.187,-14.545C-15.087,-15.59 -13.969,-16.614 -12.859,-17.647C-11.482,-18.93 -9.994,-20.068 -8.377,-21.031C-6.696,-22.032 -5.027,-23.053 -3.308,-23.982C-2.259,-24.549 -1.139,-24.992 -0.026,-25.43C1.086,-25.87 2.22,-26.259 3.358,-26.627C4.114,-26.87 4.896,-27.035 5.666,-27.235C7.091,-27.606 8.334,-27.125 9.542,-26.432C10.232,-26.037 10.528,-25.453 10.57,-24.668C10.648,-23.19 10.258,-21.808 9.67,-20.497C9.15,-19.338 8.576,-18.174 7.837,-17.147C6.161,-14.818 4.527,-12.454 2.56,-10.343C0.288,-7.907 -2.219,-5.764 -5.01,-3.947C-5.543,-3.599 -6.093,-3.252 -6.55,-2.814C-8.499,-0.949 -10.846,0.355 -13.052,1.858C-13.612,2.239 -14.21,2.567 -14.76,2.962C-15.583,3.556 -16.516,3.868 -17.459,4.207C-18.956,4.748 -20.404,5.425 -21.867,6.058C-23.366,6.706 -24.85,7.391 -26.357,8.019C-26.904,8.246 -27.5,8.358 -28.075,8.512C-28.229,8.553 -28.391,8.578 -28.549,8.576C-29.256,8.57 -29.568,8.059 -29.175,7.476C-27.902,5.592 -26.638,3.701 -25.3,1.863C-22.073,-2.571 -17.992,-6.129 -13.662,-9.439C-10.011,-12.232 -6.138,-14.692 -2.282,-17.182C-1.468,-17.708 -0.68,-18.274 0.121,-18.822C0.08,-18.89 0.04,-18.959 0,-19.028" style="fill:rgb(155,218,234);fill-rule:nonzero;"/>
                </g>
            </g>
        </g>
        <g transform="matrix(5.55556,0,0,5.55556,25423.2,4783.46)">
            <g opacity="0.5">
                <g transform="matrix(1,0,0,1,480.682,444.33)">
                    <path d="M0,37.686C-0.646,36.985 -0.964,36.459 -0.781,35.496C-0.415,33.554 -0.676,31.602 -1.549,29.784C-1.842,29.173 -2.126,28.545 -2.515,27.998C-2.867,27.501 -2.902,27.099 -2.579,26.593C-1.849,25.451 -1.153,24.287 -0.435,23.136C-0.354,23.008 -0.213,22.919 -0.052,22.766C0.584,23.972 0.184,25.237 0.334,26.535C0.966,26.149 1.146,25.582 1.201,25.01C1.295,24.06 1.373,23.082 0.963,22.181C0.706,21.618 0.85,21.204 1.204,20.764C2.78,18.809 4.346,16.844 5.91,14.879C6.351,14.325 6.773,13.756 7.129,13.117C6.567,13.393 6.104,13.773 5.711,14.245C4.104,16.174 2.499,18.106 0.892,20.035C0.719,20.242 0.528,20.433 0.294,20.689C-0.114,20.289 -0.474,19.927 -0.841,19.575C-1.726,18.725 -2.77,18.324 -4.002,18.466C-4.199,18.49 -4.402,18.502 -4.589,18.564C-4.905,18.668 -5.218,18.844 -5.116,19.239C-5.014,19.636 -4.709,19.605 -4.349,19.53C-2.842,19.215 -1.286,20.012 -0.617,21.431C-0.529,21.618 -0.498,21.931 -0.596,22.091C-1.543,23.651 -2.523,25.19 -3.487,26.724C-4.57,25.912 -5.606,25.121 -6.659,24.351C-6.978,24.119 -7.331,23.926 -7.687,23.754C-8.387,23.417 -8.468,23.397 -8.179,22.691C-7.454,20.923 -6.748,19.137 -5.864,17.448C-4.323,14.5 -2.213,11.94 -0.122,9.367C1.839,6.955 4.177,4.998 6.738,3.271C9.03,1.726 11.584,0.859 14.252,0.289C15.603,0 16.35,0.381 16.907,1.692C17.245,2.486 17.487,3.36 17.568,4.217C17.695,5.56 17.722,6.922 17.659,8.271C17.591,9.755 17.047,11.122 16.475,12.499C14.807,16.511 12.503,20.124 9.939,23.604C9.092,24.755 8.409,26.032 7.68,27.267C5.747,30.539 3.417,33.524 1.056,36.486C0.734,36.889 0.375,37.262 0,37.686" style="fill:rgb(155,218,234);fill-rule:nonzero;"/>
                </g>
            </g>
        </g>
        <g transform="matrix(5.55556,0,0,5.55556,25423.2,4783.46)">
            <g transform="matrix(1,0,0,1,415.601,477.858)">
                <path d="M0,31.662C0.551,30.094 1.106,28.528 1.649,26.959C2.417,24.74 3.637,22.795 5.157,21.017C6.479,19.472 7.637,17.765 9.087,16.356C12.681,12.87 16.645,9.862 21.162,7.621C23.666,6.378 26.146,5.102 28.84,4.303C32.176,3.311 35.568,2.636 39.044,2.403C39.198,2.392 39.351,2.343 39.501,2.303C39.522,2.297 39.53,2.243 39.588,2.112C39.328,2.049 39.088,1.955 38.842,1.935C36.554,1.753 34.305,2.039 32.072,2.516C31.448,2.648 30.826,2.792 30.197,2.891C29.758,2.962 29.536,2.724 29.738,2.347C30.13,1.616 30.595,0.923 31.064,0.237C31.269,-0.062 31.582,-0.041 31.926,0.072C32.795,0.356 33.684,0.585 34.556,0.86C35.914,1.288 37.311,1.309 38.705,1.21C39.325,1.165 39.934,0.943 40.637,0.78C40.735,1.148 40.848,1.521 40.936,1.9C41.316,3.552 41.939,5.109 42.915,6.489C44.242,8.364 45.917,9.719 48.285,10.182C50.199,10.556 52.091,10.766 53.959,10.195C55.865,9.614 57.699,8.821 59.415,7.777C61.039,6.79 62.395,5.519 63.563,3.85C64.416,4.907 64.711,6.035 64.705,7.231C64.687,10.986 62.915,13.679 59.604,15.373C58.325,16.027 57.044,16.7 55.701,17.191C54.628,17.584 53.464,17.745 52.33,17.95C51.602,18.082 50.854,18.107 49.977,18.194C50.217,17.641 50.41,17.218 50.584,16.787C50.718,16.456 50.841,16.118 50.937,15.775C50.962,15.685 50.891,15.488 50.828,15.471C50.697,15.435 50.478,15.432 50.41,15.512C50.208,15.752 50.049,16.031 49.896,16.309C49.59,16.868 49.31,17.442 49.001,18C47.995,19.82 46.385,20.927 44.454,21.463C43.321,21.777 42.06,21.796 40.913,21.37C38.593,20.509 36.849,18.883 35.394,16.933C35.202,16.677 35.164,16.272 35.143,15.931C35.105,15.334 35.166,14.732 35.135,14.136C35.065,12.828 34.389,12.163 33.094,12.226C32.547,12.253 32.309,12.036 32.076,11.614C31.26,10.134 31.376,9.821 32.985,9.411C33.591,9.258 34.206,9.143 34.817,9.011C35.064,9.553 35.32,10.091 35.557,10.638C35.73,11.04 35.916,11.443 36.031,11.864C36.463,13.445 37.385,14.774 38.398,15.987C39.264,17.022 40.426,17.782 41.878,17.905C43.738,18.061 45.678,16.697 46.096,14.887C46.215,14.374 46.128,13.92 45.853,13.414C44.604,11.121 42.639,9.581 40.524,8.199C40.078,7.907 39.497,7.773 38.958,7.684C37.514,7.444 36.074,7.688 34.695,8.06C30.452,9.204 26.306,10.622 22.464,12.811C22.325,12.891 22.187,12.975 22.04,13.034C19.457,14.048 17.168,15.571 14.91,17.147C14.388,17.513 13.856,17.873 13.375,18.289C10.419,20.843 7.483,23.422 4.525,25.974C2.894,27.382 1.841,29.226 0.648,30.969C0.477,31.22 0.306,31.472 0.135,31.724L0,31.662Z" style="fill:rgb(131,175,185);fill-rule:nonzero;"/>
            </g>
        </g>
        <g transform="matrix(5.55556,0,0,5.55556,25423.2,4783.46)">
            <g transform="matrix(1,0,0,1,462.513,479.897)">
                <path d="M0,-4.121C0.932,-4.137 1.974,-4.961 2.293,-5.936C2.583,-6.823 2.187,-7.43 1.255,-7.523C0.069,-7.642 -1.012,-6.687 -1.169,-5.383C-1.268,-4.567 -0.842,-4.107 0,-4.121M5.534,-11.553C7.22,-11.754 8.791,-11.283 10.256,-10.742C11.485,-10.287 12.574,-9.358 13.616,-8.507C15.14,-7.26 16.005,-5.562 16.512,-3.675C17.111,-1.443 16.751,0.555 15.231,2.361C13.807,4.055 12.041,5.235 10.033,6.083C8.79,6.608 7.594,7.259 6.218,7.445C5.103,7.596 4.002,7.659 2.896,7.413C2.546,7.335 2.195,7.252 1.84,7.205C-0.577,6.888 -2.21,5.443 -3.437,3.473C-4.547,1.688 -5.271,-0.25 -5.269,-2.382C-5.269,-3.047 -5.165,-3.743 -4.944,-4.367C-4.612,-5.302 -4.218,-6.235 -3.696,-7.074C-3.241,-7.805 -2.68,-8.558 -1.982,-9.03C0.287,-10.568 2.708,-11.78 5.534,-11.553" style="fill:white;fill-rule:nonzero;"/>
            </g>
        </g>
        <g transform="matrix(5.55556,0,0,5.55556,25423.2,4783.46)">
            <g transform="matrix(1,0,0,1,490.745,533.453)">
                <path d="M0,9.33C0.243,9.195 0.437,9.063 0.648,8.975C2.434,8.22 3.993,7.145 5.364,5.771C6.207,4.926 7.116,4.144 8.004,3.345C10.005,1.543 11.288,-0.745 12.36,-3.161C12.642,-3.795 12.72,-4.52 12.928,-5.344C14.263,-4.748 15.542,-4.217 16.784,-3.609C17.929,-3.049 19.061,-2.454 20.147,-1.791C22.41,-0.411 22.062,-0.713 21.507,1.456C20.941,3.67 20.12,5.783 18.834,7.687C18.278,8.511 17.726,9.351 17.061,10.082C15.988,11.26 14.814,12.345 13.701,13.485C12.875,14.331 11.938,14.674 10.781,14.267C10.559,14.188 10.315,14.161 10.079,14.133C6.399,13.695 3.26,12.045 0.374,9.822C0.28,9.75 0.195,9.665 0.112,9.58C0.086,9.554 0.079,9.509 0,9.33" style="fill:rgb(131,175,185);fill-rule:nonzero;"/>
            </g>
        </g>
        <g transform="matrix(5.55556,0,0,5.55556,25423.2,4783.46)">
            <g transform="matrix(1,0,0,1,483.086,497.6)">
                <path d="M0,4.334C-0.483,5.176 -0.483,5.176 -1.199,4.934C-1.974,4.672 -2.757,5.045 -2.79,5.851C-2.835,6.938 -3.438,7.442 -4.293,7.927C-5.509,8.617 -6.676,9.41 -8.047,9.748C-9.731,10.163 -11.359,10.84 -13.163,10.731C-14.521,10.65 -15.702,10.268 -16.832,9.489C-19.294,7.793 -20.53,5.394 -21.117,2.56C-21.211,2.106 -21.158,1.815 -20.705,1.594C-19.868,1.186 -19.157,0.595 -18.62,-0.164C-18.25,-0.686 -17.772,-0.762 -17.182,-0.822C-15.562,-0.988 -13.882,-0.873 -12.335,-1.436C-9.374,-2.513 -6.414,-3.64 -4.182,-6.016C-3.806,-6.417 -3.521,-6.506 -3.089,-6.155C-2.657,-5.804 -2.169,-5.519 -1.757,-5.148C-1.421,-4.847 -1.483,-4.578 -1.889,-4.435C-3.122,-3.999 -4.356,-3.563 -5.604,-3.173C-6.07,-3.027 -6.21,-2.681 -6.328,-2.306C-6.5,-1.76 -6.34,-1.283 -5.928,-0.893C-5.303,-0.3 -4.233,-0.198 -3.36,-0.541C-2.288,-0.962 -1.197,-1.348 -0.091,-1.671C0.771,-1.922 0.917,-1.803 1.292,-0.991C1.663,-0.187 1.536,0.649 1.438,1.479C1.396,1.838 1.08,1.847 0.794,1.871C-0.159,1.955 -1.112,2.048 -2.065,2.133C-2.264,2.151 -2.467,2.135 -2.661,2.169C-3.097,2.244 -3.383,2.501 -3.476,2.938C-3.569,3.384 -3.385,3.765 -3.009,3.949C-2.67,4.116 -2.261,4.186 -1.877,4.208C-1.258,4.245 -0.626,4.117 0,4.334" style="fill:rgb(88,140,134);fill-rule:nonzero;"/>
            </g>
        </g>
        <g transform="matrix(5.55556,0,0,5.55556,25423.2,4783.46)">
            <g transform="matrix(1,0,0,1,454.055,470.069)">
                <path d="M0,-0.277C0.903,-0.293 2.201,-1.523 2.264,-2.422C2.292,-2.825 2.151,-3.097 1.737,-3.232C1.294,-3.377 0.857,-3.366 0.473,-3.142C-0.291,-2.699 -0.721,-1.987 -0.862,-1.133C-0.955,-0.577 -0.599,-0.267 0,-0.277M-0.822,8.063C-2.593,8.006 -4.299,7.557 -5.923,6.923C-7.516,6.302 -8.57,4.989 -9.122,3.392C-9.357,2.712 -9.317,1.886 -9.215,1.153C-9.073,0.134 -8.787,-0.87 -8.505,-1.864C-8.083,-3.351 -7.018,-4.413 -5.906,-5.374C-3.388,-7.548 -0.447,-8.404 2.865,-7.903C3.22,-7.85 3.581,-7.782 3.934,-7.804C5.11,-7.878 6.122,-7.483 7.061,-6.814C7.417,-6.56 7.803,-6.348 8.173,-6.112C9.266,-5.415 9.949,-4.404 10.314,-3.186C10.535,-2.453 10.369,-2.242 9.677,-1.911C8.635,-1.414 7.599,-0.901 6.579,-0.357C5.65,0.139 4.887,0.844 4.313,1.729C3.309,3.276 2.448,4.89 2.243,6.763C2.202,7.137 2.013,7.321 1.711,7.478C0.917,7.893 0.086,8.127 -0.822,8.063" style="fill:white;fill-rule:nonzero;"/>
            </g>
        </g>
        <g transform="matrix(5.55556,0,0,5.55556,25423.2,4783.46)">
            <g transform="matrix(1,0,0,1,464.37,467.296)">
                <path d="M0,-0.414C-0.365,-1.632 -1.049,-2.643 -2.142,-3.341C-2.456,-3.541 -2.779,-3.728 -3.089,-3.935C-2.97,-3.206 -2.984,-2.455 -3.098,-1.726C-3.387,0.133 -4.175,1.924 -5.2,3.521C-4.771,3.085 -4.286,2.709 -3.735,2.415C-2.716,1.871 -1.68,1.358 -0.638,0.86C0.055,0.53 0.221,0.319 0,-0.414" style="fill:rgb(232,233,234);fill-rule:nonzero;"/>
            </g>
        </g>
        <g transform="matrix(5.55556,0,0,5.55556,25423.2,4783.46)">
            <g transform="matrix(1,0,0,1,453.103,474.838)">
                <path d="M0,1.078C-2.126,1.727 -4.568,1.679 -6.577,0.668C-6.867,0.521 -7.143,0.349 -7.408,0.162C-6.817,1.045 -6.011,1.749 -4.971,2.154C-3.347,2.788 -1.64,3.237 0.13,3.294C1.038,3.358 1.869,3.124 2.663,2.709C2.965,2.552 3.154,2.368 3.195,1.994C3.367,0.425 4.001,-0.962 4.792,-2.28C3.516,-0.76 1.923,0.49 0,1.078" style="fill:rgb(232,233,234);fill-rule:nonzero;"/>
            </g>
        </g>
        <g transform="matrix(5.55556,0,0,5.55556,25423.2,4783.46)">
            <g transform="matrix(1,0,0,1,502.878,541.5)">
                <path d="M0,-13.743C-0.153,-12.327 -0.578,-11.107 -1.212,-9.937C-2.227,-8.066 -3.429,-6.354 -5.028,-4.93C-6.128,-3.95 -7.206,-2.943 -8.256,-1.91C-9.478,-0.707 -11.051,-0.091 -12.517,0.702C-12.689,0.796 -13.079,0.694 -13.252,0.546C-13.795,0.082 -14.345,-0.397 -14.779,-0.959C-16.388,-3.037 -17.959,-5.144 -19.526,-7.254C-20.036,-7.939 -20.008,-7.978 -19.265,-8.407C-18.989,-8.566 -18.684,-8.684 -18.434,-8.877C-17.521,-9.582 -16.776,-9.789 -15.641,-8.98C-14.167,-7.932 -12.387,-7.874 -10.604,-8.506C-7.342,-9.662 -4.526,-11.458 -2.275,-14.097C-1.957,-14.472 -1.674,-14.539 -1.256,-14.318C-0.87,-14.114 -0.462,-13.952 0,-13.743" style="fill:rgb(88,140,134);fill-rule:nonzero;"/>
            </g>
        </g>
        <g transform="matrix(5.55556,0,0,5.55556,25423.2,4783.46)">
            <g transform="matrix(1,0,0,1,513.469,548.403)">
                <path d="M0,-14.884C1.264,-13.749 2.33,-12.706 3.132,-11.416C3.384,-11.011 3.62,-10.595 3.849,-10.176C3.962,-9.968 4.108,-9.746 4.123,-9.524C4.239,-7.835 4.054,-6.183 3.316,-4.64C2.557,-3.049 1.212,-2.063 -0.334,-1.345C-2.31,-0.427 -6.58,0 -8.979,-0.45C-8.054,-1.383 -7.192,-2.311 -6.269,-3.171C-3.541,-5.706 -1.749,-8.792 -0.75,-12.36C-0.536,-13.122 -0.3,-13.878 0,-14.884" style="fill:rgb(88,140,134);fill-rule:nonzero;"/>
            </g>
        </g>
        <g transform="matrix(5.55556,0,0,5.55556,25423.2,4783.46)">
            <g transform="matrix(1,0,0,1,484.793,526.284)">
                <path d="M0,-6.561C0.084,-6.709 0.146,-6.976 0.312,-7.092C1.166,-7.687 1.968,-8.332 2.617,-9.154C2.795,-9.378 3.01,-9.397 3.228,-9.192C3.576,-8.866 3.923,-8.536 4.277,-8.216C5.844,-6.801 7.424,-5.406 9.178,-4.217C9.914,-3.717 9.885,-3.674 9.366,-2.915C7.886,-0.746 5.897,0.909 3.848,2.496C3.407,2.836 3.22,2.809 2.896,2.288C2.076,0.967 1.312,-0.391 0.963,-1.924C0.655,-3.281 0.401,-4.649 0.123,-6.012C0.091,-6.167 0.054,-6.323 0,-6.561" style="fill:rgb(131,175,185);fill-rule:nonzero;"/>
            </g>
        </g>
        <g transform="matrix(5.55556,0,0,5.55556,25423.2,4783.46)">
            <g transform="matrix(1,0,0,1,481.57,533.345)">
                <path d="M0,-12.235C0.139,-11.729 0.255,-11.321 0.361,-10.91C1.002,-8.441 1.721,-6.002 2.974,-3.757C3.051,-3.618 3.124,-3.476 3.204,-3.339C3.422,-2.965 3.643,-2.593 3.862,-2.22C3.464,-1.905 3.091,-1.55 2.663,-1.281C0.629,0 1.069,-0.091 0.104,-2.007C-1.132,-4.459 -2.25,-6.968 -3.4,-9.462C-3.713,-10.139 -3.665,-10.122 -2.974,-10.493C-2.205,-10.905 -1.472,-11.385 -0.721,-11.833C-0.525,-11.95 -0.323,-12.055 0,-12.235" style="fill:rgb(131,175,185);fill-rule:nonzero;"/>
            </g>
        </g>
        <g transform="matrix(5.55556,0,0,5.55556,25423.2,4783.46)">
            <g transform="matrix(1,0,0,1,479.809,522.6)">
                <path d="M0,-9.815C0.485,-7.451 0.944,-5.116 1.457,-2.794C1.562,-2.321 1.479,-2.072 1.072,-1.832C0.217,-1.325 -0.594,-0.744 -1.458,-0.256C-1.935,0.012 -2.235,-0.102 -2.392,-0.613C-3.063,-2.819 -3.701,-5.036 -4.32,-7.258C-4.363,-7.413 -4.188,-7.778 -4.059,-7.808C-2.551,-8.169 -1.351,-9.133 -0.009,-9.814C0.018,-9.827 0.061,-9.805 0,-9.815" style="fill:rgb(88,140,134);fill-rule:nonzero;"/>
            </g>
        </g>
        <g transform="matrix(5.55556,0,0,5.55556,25423.2,4783.46)">
            <g transform="matrix(1,0,0,1,475.313,505.885)">
                <path d="M0,8.352C-0.457,7.27 -0.676,6.146 -0.727,5.007C-0.743,4.64 -0.719,4.348 -0.954,4.028C-1.103,3.826 -1.09,3.5 -1.131,3.227C-1.187,2.858 -1.016,2.619 -0.668,2.499C-0.518,2.448 -0.367,2.397 -0.215,2.35C1.16,1.918 2.452,1.314 3.656,0.519C3.916,0.347 4.2,0.211 4.577,0C4.63,0.345 4.702,0.596 4.703,0.848C4.708,2.241 4.669,3.634 4.703,5.026C4.719,5.654 4.521,6.099 3.992,6.419C2.742,7.177 1.566,8.087 0,8.352" style="fill:rgb(131,175,185);fill-rule:nonzero;"/>
            </g>
        </g>
        <g transform="matrix(5.55556,0,0,5.55556,25423.2,4783.46)">
            <g transform="matrix(1,0,0,1,457.636,489.183)">
                <path d="M0,5.734C-0.966,5.86 -1.713,5.23 -2.478,4.652C-2.813,4.399 -2.849,4.056 -2.7,3.685C-2.231,2.514 -1.64,1.448 -0.396,0.914C-0.032,0.756 0.396,0.625 0.645,0.347C1.069,-0.126 1.341,0.105 1.584,0.447C2.115,1.192 2.64,1.947 3.096,2.739C3.233,2.977 3.225,3.375 3.137,3.654C2.744,4.899 1.448,5.761 0,5.734" style="fill:rgb(247,176,187);fill-rule:nonzero;"/>
            </g>
        </g>
        <g transform="matrix(5.55556,0,0,5.55556,25423.2,4783.46)">
            <g transform="matrix(1,0,0,1,458.075,489.374)">
                <path d="M0,-0.563C-1.899,-0.024 -3.233,1.136 -3.925,3.161C-5.561,1.404 -5.812,-0.798 -6.877,-2.612C-4.128,-3.724 -2.082,-2.891 0,-0.563" style="fill:rgb(190,30,45);fill-rule:nonzero;"/>
            </g>
        </g>
        <g transform="matrix(5.55556,0,0,5.55556,25423.2,4783.46)">
            <g transform="matrix(1,0,0,1,488.784,523.821)">
                <path d="M0,5.767C2.451,3.865 4.771,1.997 6.428,-0.643C7.187,-0.071 7.885,0.439 8.563,0.973C8.88,1.223 8.679,1.482 8.479,1.681C7.665,2.495 6.891,3.36 6.004,4.087C4.861,5.026 3.533,5.672 2.118,6.123C1.222,6.41 0.994,6.379 0,5.767" style="fill:rgb(88,140,134);fill-rule:nonzero;"/>
            </g>
        </g>
        <g transform="matrix(5.55556,0,0,5.55556,25423.2,4783.46)">
            <g transform="matrix(1,0,0,1,484.787,510.381)">
                <path d="M0,8.24C-0.953,5.503 -0.956,2.749 -1.271,0C-1.117,0.278 -0.935,0.544 -0.817,0.836C-0.177,2.439 0.703,3.882 1.887,5.151C2.52,5.83 2.49,5.951 1.876,6.65C1.355,7.244 0.812,7.818 0,8.24" style="fill:rgb(88,140,134);fill-rule:nonzero;"/>
            </g>
        </g>
        <g transform="matrix(5.55556,0,0,5.55556,25423.2,4783.46)">
            <g transform="matrix(1,0,0,1,453.296,541.206)">
                <path d="M0,-0.911C-0.247,-0.314 -0.426,0.212 -0.679,0.7C-0.89,1.107 -1.287,1.193 -1.707,1.039C-2.149,0.878 -2.108,0.512 -2.042,0.144C-1.938,-0.437 -1.828,-1.018 -1.746,-1.602C-1.698,-1.95 -1.465,-2.098 -1.183,-2.101C-0.989,-2.104 -0.736,-1.997 -0.612,-1.851C-0.369,-1.567 -0.197,-1.223 0,-0.911" style="fill:rgb(131,175,185);fill-rule:nonzero;"/>
            </g>
        </g>
        <g transform="matrix(5.55556,0,0,5.55556,25423.2,4783.46)">
            <g transform="matrix(0.938197,0.346102,0.346102,-0.938197,461.947,475.44)">
                <path d="M0.648,-0.119C-0.138,-0.424 -0.696,-0.14 -0.886,0.66C-1.19,1.938 -0.506,3.208 0.648,3.507C1.554,3.742 2.136,3.31 2.171,2.377C2.209,1.352 1.516,0.218 0.648,-0.119" style="fill:rgb(35,31,32);fill-rule:nonzero;"/>
            </g>
        </g>
        <g transform="matrix(5.55556,0,0,5.55556,25423.2,4783.46)">
            <g transform="matrix(1,0,0,1,454.055,466.702)">
                <path d="M0,3.09C-0.599,3.1 -0.955,2.79 -0.862,2.234C-0.721,1.38 -0.291,0.668 0.473,0.225C0.857,0.001 1.294,-0.01 1.737,0.135C2.151,0.27 2.292,0.542 2.264,0.945C2.201,1.844 0.903,3.074 0,3.09" style="fill:rgb(35,31,32);fill-rule:nonzero;"/>
            </g>
        </g>
        <g transform="matrix(5.55556,0,0,5.55556,25423.2,4783.46)">
            <g transform="matrix(1,0,0,1,490.501,456.397)">
                <path d="M0,-5.139C1.346,-5.69 2.741,-6.125 4.035,-6.788C4.434,-6.992 4.838,-7.234 5.062,-7.619C5.549,-8.456 4.904,-9.593 4.002,-9.944C3.1,-10.293 2.081,-10.071 1.163,-9.766C-3.476,-8.226 -9.088,-3.769 -10.823,0.978C-12.35,5.154 -8.961,0.985 -7.661,-0.224C-5.428,-2.301 -2.825,-3.983 0,-5.139" style="fill:white;fill-rule:nonzero;"/>
            </g>
        </g>
        <g transform="matrix(5.55556,0,0,5.55556,25423.2,4783.46)">
            <g transform="matrix(1,0,0,1,468.573,472.985)">
                <path d="M0,12.139C2.928,11.22 5.173,8.615 6.005,5.66C6.836,2.705 6.351,-0.527 5.027,-3.296C6.524,-3.454 7.755,-2.158 8.581,-0.899C10.594,2.166 11.746,6.371 9.687,9.405C8.615,10.983 6.869,11.945 5.187,12.844C2.646,14.202 -0.157,15.593 -2.988,15.057C-4.738,14.726 -7.012,13.53 -7.818,11.965C-5.275,12.476 -2.538,12.935 0,12.139" style="fill:rgb(232,233,234);fill-rule:nonzero;"/>
            </g>
        </g>
        <g transform="matrix(5.55556,0,0,5.55556,25423.2,4783.46)">
            <g transform="matrix(1,0,0,1,514.575,466.457)">
                <path d="M0,-5.013C0.739,-5.325 1.524,-5.666 1.966,-6.335C-0.012,-7.458 -2.473,-6.395 -4.467,-5.301C-8.155,-3.28 -12.89,-1.068 -15.681,2.107C-13.485,2.445 -10.71,0.068 -8.813,-0.903C-5.928,-2.38 -2.986,-3.751 0,-5.013" style="fill:white;fill-rule:nonzero;"/>
            </g>
        </g>
        <g transform="matrix(5.55556,0,0,5.55556,25423.2,4783.46)">
            <g opacity="0.2">
                <g transform="matrix(1,0,0,1,475.576,530.825)">
                    <path d="M0,-31.914C1.339,-29.483 -0.033,-25.918 -2.721,-25.228C-1.098,-25.858 0.774,-24.755 1.643,-23.245C2.51,-21.735 2.643,-19.931 2.841,-18.201C3.247,-14.646 4.012,-11.143 4.852,-7.665C5.394,-5.423 5.979,-3.157 7.126,-1.157C8.273,0.844 10.065,2.579 12.296,3.162C17.518,4.528 22.716,-0.648 27.996,0.469C30.643,1.028 32.758,3.141 33.942,5.572C35.127,8.005 35.51,10.741 35.76,13.435C35.852,14.416 36,15.53 36.81,16.094C38.224,17.078 40.019,15.512 40.912,14.038C41.709,12.725 42.42,11.311 42.578,9.782C42.84,7.268 41.541,4.79 39.716,3.041C37.89,1.292 35.581,0.15 33.298,-0.936C27.547,-3.677 21.643,-6.286 16.687,-10.288C11.73,-14.29 7.742,-19.964 7.316,-26.32C7.275,-26.929 7.271,-27.557 7.476,-28.131C7.751,-28.899 8.37,-29.489 8.777,-30.197C9.865,-32.086 9.258,-34.584 7.899,-36.29C6.541,-37.995 4.574,-39.084 2.661,-40.128C4.85,-42.436 5.412,-46.138 4.01,-48.992C0.42,-46.011 -4.002,-44.042 -8.62,-43.369C-7.124,-40.205 -8.096,-36.068 -10.844,-33.9C-10.676,-34.033 -5.75,-34.431 -5.028,-34.456C-3.049,-34.524 -0.993,-33.719 0,-31.914" style="fill:rgb(59,35,20);fill-rule:nonzero;"/>
                </g>
            </g>
        </g>
        <g transform="matrix(5.55556,0,0,5.55556,25423.2,4783.46)">
            <g transform="matrix(1,0,0,1,528.438,498.526)">
                <path d="M0,-1.276C0.314,-1.038 0.638,-0.826 0.921,-0.569C1.186,-0.329 1.393,-0.027 1.648,0.223C2.787,1.331 4.262,1.721 5.743,2.056C6.244,2.169 6.64,2.364 6.948,2.751C7.235,3.111 7.13,3.427 6.656,3.539C6.351,3.612 6.02,3.651 5.709,3.62C4.384,3.485 3.129,3.166 2.047,2.31C1.555,1.92 0.994,1.595 0.421,1.338C-0.067,1.12 -0.152,0.714 -0.275,0.301C-0.375,-0.038 -0.422,-0.531 -0.87,-0.427C-1.361,-0.313 -1.138,0.149 -1.03,0.472C-0.879,0.923 -0.695,1.364 -0.518,1.805C-0.145,2.725 0.237,3.642 0.607,4.564C0.666,4.709 0.69,4.872 0.711,5.03C0.811,5.785 0.516,6.08 -0.249,5.912C-1.197,5.703 -1.918,5.158 -2.32,4.259C-2.613,3.605 -2.939,2.949 -3.108,2.258C-3.458,0.825 -5.001,-0.081 -6.731,0.569C-7.531,0.87 -8.271,1.307 -8.703,2.057C-9.586,3.587 -10.987,3.444 -12.392,3.265C-12.968,3.192 -13.106,2.849 -13.033,2.064C-12.966,1.347 -12.827,1.126 -12.191,1.184C-11.115,1.281 -10.26,0.912 -9.448,0.252C-8.631,-0.414 -7.718,-0.888 -6.596,-0.774C-6.437,-0.758 -6.259,-0.917 -6.089,-0.994C-6.18,-1.192 -6.222,-1.506 -6.37,-1.569C-7.063,-1.864 -7.771,-2.152 -8.502,-2.326C-10.554,-2.814 -12.614,-3.275 -14.683,-3.687C-16.009,-3.952 -17.351,-4.152 -18.693,-4.312C-20.591,-4.538 -22.492,-4.8 -24.398,-4.867C-27.106,-4.963 -29.821,-4.935 -32.532,-4.888C-36.886,-4.811 -41.2,-4.327 -45.446,-3.351C-46.483,-3.114 -47.509,-2.721 -48.458,-2.24C-49.272,-1.826 -49.926,-2.109 -50.602,-2.417C-50.961,-2.58 -50.946,-3.083 -50.604,-3.31C-50.341,-3.483 -50.032,-3.591 -49.736,-3.709C-47.21,-4.709 -44.596,-5.362 -41.916,-5.819C-37.893,-6.505 -33.839,-6.729 -29.769,-6.77C-27.773,-6.791 -25.777,-6.741 -23.782,-6.79C-21.133,-6.855 -18.532,-6.425 -15.942,-5.995C-12.802,-5.471 -9.678,-4.832 -6.569,-4.138C-4.285,-3.629 -4.278,-3.503 -2.145,-4.473C-0.844,-5.065 0.374,-5.841 1.624,-6.542C1.867,-6.677 2.082,-6.863 2.323,-7.002C2.603,-7.163 2.952,-7.356 3.185,-7.034C3.347,-6.807 3.42,-6.44 3.379,-6.158C3.272,-5.439 2.688,-5.064 2.084,-4.88C1.41,-4.674 0.905,-4.107 0.17,-4.054C0.126,-4.051 0.043,-3.732 0.087,-3.596C0.129,-3.469 0.304,-3.366 0.441,-3.295C1.825,-2.583 3.198,-1.855 4.811,-1.777C5.738,-1.732 6.264,-1.415 6.129,-1.067C5.895,-0.463 5.305,-0.53 4.802,-0.531C3.447,-0.534 2.088,-0.516 0.902,-1.361C0.652,-1.539 0.318,-1.622 0,-1.276" style="fill:rgb(155,192,186);fill-rule:nonzero;"/>
            </g>
        </g>
        <g transform="matrix(5.55556,0,0,5.55556,25423.2,4783.46)">
            <g transform="matrix(1,0,0,1,446.557,507.088)">
                <path d="M0,-3.644C0.146,-4.848 0.249,-5.877 -0.067,-6.89C-0.388,-7.916 -0.906,-8.236 -1.962,-8.024C-2.626,-7.891 -3.3,-7.741 -3.788,-7.21C-3.856,-7.136 -3.906,-6.928 -3.867,-6.895C-3.767,-6.808 -3.587,-6.712 -3.482,-6.748C-2.994,-6.916 -2.534,-7.172 -2.04,-7.313C-1.198,-7.554 -0.869,-7.34 -0.655,-6.488C-0.32,-5.157 -0.718,-3.98 -1.472,-2.899C-1.749,-2.502 -2.569,-2.254 -2.996,-2.417C-3.517,-2.616 -3.647,-3.076 -3.682,-3.576C-3.689,-3.694 -3.668,-3.814 -3.663,-3.933C-3.654,-4.147 -3.442,-4.411 -3.784,-4.544C-4.048,-4.647 -4.332,-4.39 -4.371,-3.959C-4.403,-3.606 -4.41,-3.234 -4.338,-2.889C-4.153,-2.008 -3.632,-1.602 -2.713,-1.657C-2.245,-1.684 -1.787,-1.863 -1.319,-1.936C-1.189,-1.956 -0.975,-1.879 -0.915,-1.778C-0.861,-1.687 -0.923,-1.463 -1.01,-1.367C-1.193,-1.161 -1.42,-0.99 -1.642,-0.822C-2.454,-0.21 -2.909,0.597 -2.947,1.613C-2.998,2.968 -2.989,4.327 -3.066,5.68C-3.151,7.151 -2.537,8.405 -1.908,9.648C-1.558,10.339 -0.406,10.541 0.448,10.098C0.94,9.843 1.426,9.545 1.85,9.19C4.085,7.314 6.166,5.3 7.874,2.9C9.235,0.985 10.792,-0.791 12.235,-2.648C12.97,-3.592 13.646,-4.58 14.352,-5.546C14.44,-5.669 14.543,-5.783 14.747,-6.033C15.056,-5.143 15.357,-4.374 15.573,-3.583C15.636,-3.356 15.507,-3.029 15.373,-2.802C14.906,-2.015 14.459,-1.206 13.898,-0.488C11.021,3.203 7.849,6.623 4.285,9.661C3.288,10.51 2.208,11.298 1.062,11.926C0.284,12.353 -0.661,12.576 -1.555,12.666C-2.656,12.776 -3.429,12.079 -3.934,11.148C-4.605,9.908 -4.918,8.551 -5.135,7.164C-5.489,4.903 -5.387,2.63 -5.364,0.36C-5.359,-0.112 -5.292,-0.588 -5.194,-1.051C-5.114,-1.431 -5.101,-1.759 -5.425,-2.028C-6.399,-2.834 -6.292,-3.872 -5.904,-4.865C-5.575,-5.708 -5.113,-6.517 -4.607,-7.273C-3.31,-9.213 -1.711,-10.873 0.259,-12.155C1.035,-12.661 1.493,-13.369 1.653,-14.29C1.749,-14.838 1.899,-15.38 2.072,-15.91C2.205,-16.316 2.586,-16.42 2.917,-16.169C3.324,-15.86 3.51,-15.43 3.509,-14.92C3.507,-13.748 3.229,-12.635 2.787,-11.556C2.639,-11.195 2.397,-11.175 2.028,-11.184C1.404,-11.201 0.774,-11.095 0.152,-11.002C0.058,-10.989 -0.007,-10.771 -0.086,-10.647C0.04,-10.599 0.165,-10.512 0.292,-10.51C0.609,-10.506 0.929,-10.559 1.246,-10.554C2.835,-10.529 3.794,-9.148 3.221,-7.677C3.085,-7.329 2.809,-7.035 2.503,-6.574C2.298,-7.07 2.198,-7.399 2.034,-7.693C1.397,-8.832 0.552,-9.677 -0.882,-9.617C-1.079,-9.608 -1.284,-9.588 -1.471,-9.528C-1.774,-9.428 -2.163,-9.287 -2.083,-8.915C-1.99,-8.48 -1.616,-8.655 -1.303,-8.725C0.237,-9.072 1.648,-7.786 1.468,-6.217C1.351,-5.204 1.12,-4.257 0,-3.644" style="fill:rgb(155,192,186);fill-rule:nonzero;"/>
            </g>
        </g>
        <g transform="matrix(5.55556,0,0,5.55556,25423.2,4783.46)">
            <g transform="matrix(1,0,0,1,484.017,520.617)">
                <path d="M0,-20.503C0.437,-20.503 0.874,-20.51 1.31,-20.501C1.867,-20.489 2.437,-20.532 2.98,-20.436C5.02,-20.075 7.052,-19.676 9.084,-19.274C9.552,-19.181 10.025,-19.069 10.462,-18.885C14.097,-17.347 17.777,-15.901 21.335,-14.201C24.026,-12.915 26.636,-11.406 28.692,-9.151C28.994,-8.821 29.284,-8.675 29.737,-8.856C31.36,-9.504 34.065,-8.344 34.905,-6.392C35.104,-5.933 35.147,-5.387 35.168,-4.877C35.188,-4.377 35.058,-3.91 34.378,-3.928C33.94,-3.94 33.789,-3.608 33.636,-3.265C33.227,-2.342 33.218,-2.346 32.285,-2.466C31.617,-2.552 31.45,-2.471 31.123,-1.898C31.084,-1.829 31.055,-1.754 31.018,-1.684C30.352,-0.402 30.127,-0.327 28.8,-0.939C28.146,-1.238 27.86,-1.22 27.379,-0.56C26.96,0.016 26.486,0.029 25.913,-0.145C25.035,-0.412 24.819,-0.734 24.952,-1.639C25.01,-2.031 25.098,-2.426 25.226,-2.8C25.294,-3.002 25.515,-3.335 25.603,-3.316C25.956,-3.237 26.451,-3.422 26.628,-2.909C26.714,-2.663 26.657,-2.257 27.049,-2.315C27.487,-2.38 27.36,-2.81 27.367,-3.104C27.38,-3.58 27.362,-4.061 27.315,-4.535C27.303,-4.658 27.152,-4.825 27.032,-4.861C26.943,-4.888 26.77,-4.759 26.688,-4.655C26.557,-4.486 26.482,-4.132 26.361,-4.122C26.019,-4.093 25.66,-4.184 25.317,-4.265C25.237,-4.283 25.148,-4.445 25.139,-4.549C25.074,-5.274 25.033,-6.021 25.715,-6.504C26.229,-6.868 26.789,-7.172 27.347,-7.47C27.876,-7.752 27.903,-7.92 27.481,-8.321C26.544,-9.215 25.494,-9.903 24.235,-10.269C23.818,-10.39 23.405,-10.574 23.036,-10.802C20.849,-12.151 18.416,-12.966 16.082,-13.989C13.563,-15.094 11.001,-16.101 8.472,-17.183C7.478,-17.607 6.483,-17.967 5.403,-18.14C4.306,-18.315 3.243,-18.708 2.146,-18.902C0.508,-19.193 -1.121,-19.654 -2.82,-19.391C-3.038,-19.357 -3.295,-19.422 -3.5,-19.514C-3.787,-19.643 -3.808,-20.048 -3.537,-20.187C-3.295,-20.312 -3.017,-20.427 -2.751,-20.436C-1.834,-20.466 -0.917,-20.447 0,-20.447L0,-20.503Z" style="fill:rgb(155,192,186);fill-rule:nonzero;"/>
            </g>
        </g>
        <g transform="matrix(5.55556,0,0,5.55556,25423.2,4783.46)">
            <g transform="matrix(1,0,0,1,482.033,530.577)">
                <path d="M0,-24.949C0.115,-24.165 0.24,-23.381 0.345,-22.595C0.58,-20.821 0.896,-19.052 1.01,-17.27C1.121,-15.506 1.562,-13.812 1.864,-12.09C2.223,-10.053 2.569,-8.01 3.035,-5.995C3.46,-4.155 4.258,-2.453 5.486,-0.993C6.485,0.196 7.749,0.569 9.247,0.09C11.666,-0.683 13.638,-2.133 15.365,-3.951C15.42,-4.009 15.485,-4.065 15.518,-4.135C16.375,-5.963 17.912,-7.277 19.087,-8.864C19.177,-8.986 19.241,-9.138 19.279,-9.286C19.318,-9.438 19.286,-9.609 19.329,-9.761C19.51,-10.402 19.525,-11.238 20.259,-11.459C21.149,-11.725 22.111,-11.658 22.845,-10.957C23.477,-10.351 24.09,-9.711 24.612,-9.012C25.351,-8.025 25.993,-6.967 26.685,-5.944C26.997,-5.481 27.015,-4.971 26.959,-4.449C26.926,-4.142 26.702,-4.036 26.445,-4.122C26.108,-4.234 25.788,-4.402 25.468,-4.562C24.08,-5.256 22.964,-6.253 22.134,-7.567C22.049,-7.702 21.963,-7.837 21.87,-7.966C21.253,-8.824 20.958,-8.791 20.471,-7.874C19.895,-6.786 19.354,-5.668 18.663,-4.655C17.127,-2.402 15.007,-0.789 12.622,0.481C11.886,0.873 11.084,1.142 10.326,1.498C8.205,2.495 5.354,2.075 3.658,-0.568C2.747,-1.989 2.066,-3.517 1.571,-5.122C0.373,-9.007 -0.654,-12.934 -1.25,-16.963C-1.297,-17.277 -1.309,-17.598 -1.311,-17.917C-1.332,-20.588 -1.348,-23.26 -1.366,-25.931C-1.369,-26.466 -1.283,-26.987 -0.788,-27.273C-0.492,-27.444 -0.002,-26.768 0.085,-26.036C0.128,-25.683 0.093,-25.32 0.093,-24.962C0.062,-24.958 0.031,-24.954 0,-24.949" style="fill:rgb(155,192,186);fill-rule:nonzero;"/>
            </g>
        </g>
        <g transform="matrix(5.55556,0,0,5.55556,25423.2,4783.46)">
            <g transform="matrix(1,0,0,1,473.581,551.464)">
                <path d="M0,-40.469C-0.155,-39.865 -0.354,-39.137 -0.528,-38.404C-1.164,-35.734 -1.806,-33.066 -2.418,-30.391C-3.174,-27.087 -3.438,-23.705 -3.932,-20.362C-4.329,-17.671 -4.186,-14.95 -3.993,-12.244C-3.906,-11.015 -3.793,-9.782 -3.597,-8.566C-3.402,-7.364 -3.332,-6.112 -2.492,-5.091C-2.329,-4.894 -2.292,-4.47 -2.38,-4.214C-2.546,-3.735 -2.799,-3.268 -3.099,-2.856C-3.804,-1.891 -4.556,-0.959 -5.292,-0.017C-5.942,0.815 -6.777,1.421 -7.697,1.919C-7.836,1.994 -7.981,2.088 -8.133,2.108C-9.386,2.274 -9.841,2.107 -9.525,0.76C-9.428,0.338 -9.279,-0.093 -9.058,-0.461C-8.157,-1.962 -7.341,-3.54 -5.766,-4.492C-5.418,-4.701 -5.3,-5.004 -5.327,-5.4C-5.439,-6.989 -5.535,-8.579 -5.65,-10.168C-5.773,-11.874 -5.991,-13.577 -6.028,-15.284C-6.098,-18.512 -6.113,-21.745 -5.77,-24.961C-5.389,-28.526 -4.876,-32.072 -3.997,-35.553C-3.666,-36.865 -3.291,-38.166 -2.901,-39.462C-2.548,-40.636 -1.82,-41.582 -0.949,-42.423C-0.619,-42.743 -0.368,-42.684 -0.289,-42.263C-0.187,-41.716 -0.111,-41.165 0,-40.469" style="fill:rgb(155,192,186);fill-rule:nonzero;"/>
            </g>
        </g>
        <g transform="matrix(5.55556,0,0,5.55556,25423.2,4783.46)">
            <g transform="matrix(1,0,0,1,466.4,537.783)">
                <path d="M0,-29.413C-0.745,-28.693 -1.489,-28.078 -2.106,-27.354C-3.009,-26.295 -3.862,-25.187 -4.66,-24.048C-6.17,-21.892 -7.749,-19.771 -9.075,-17.505C-11.012,-14.196 -12.58,-10.703 -13.418,-6.927C-13.539,-6.383 -13.702,-5.848 -13.839,-5.308C-13.977,-4.761 -13.934,-4.311 -13.354,-3.988C-12.908,-3.739 -12.534,-3.362 -12.12,-3.053C-11.318,-2.454 -10.961,-1.672 -11.055,-0.666C-11.177,0.641 -12.082,1.26 -13.305,0.757C-13.821,0.545 -14.26,0.491 -14.794,0.642C-15.541,0.852 -15.966,0.516 -16.109,-0.281C-16.285,-1.264 -16.835,-1.743 -17.786,-1.711C-17.912,-1.706 -18.034,-1.571 -18.157,-1.496C-18.067,-1.378 -18,-1.218 -17.881,-1.151C-17.676,-1.037 -17.43,-0.997 -17.214,-0.898C-16.813,-0.716 -16.774,-0.366 -16.841,0.013C-16.908,0.399 -17.19,0.488 -17.533,0.543C-19.031,0.785 -20.682,-0.955 -20,-2.476C-19.141,-4.394 -18.257,-4.739 -16.702,-4.562C-15.855,-4.467 -15.882,-4.486 -15.612,-5.338C-15.227,-6.553 -14.892,-7.798 -14.364,-8.952C-12.659,-12.687 -11.173,-16.529 -9.103,-20.089C-8.202,-21.637 -7.199,-23.13 -6.172,-24.6C-5.236,-25.938 -4.208,-27.214 -3.212,-28.511C-2.945,-28.858 -2.66,-29.194 -2.36,-29.514C-1.272,-30.673 -1.23,-30.668 0,-29.413" style="fill:rgb(155,192,186);fill-rule:nonzero;"/>
            </g>
        </g>
        <g transform="matrix(5.55556,0,0,5.55556,25423.2,4783.46)">
            <g transform="matrix(1,0,0,1,449.332,538.706)">
                <path d="M0,3.368C-1.015,3.347 -1.41,2.851 -1.177,1.963C-1.087,1.62 -0.917,1.297 -0.776,0.968C-0.596,0.542 0.265,0 0.71,0.025C0.965,0.04 1.554,0.778 1.637,1.187C1.758,1.778 1.062,3.074 0.49,3.285C0.309,3.351 0.102,3.352 0,3.368" style="fill:rgb(155,192,186);fill-rule:nonzero;"/>
            </g>
        </g>
        <g transform="matrix(5.55556,0,0,5.55556,25423.2,4783.46)">
            <g transform="matrix(1,0,0,1,450.288,504.186)">
                <path d="M0,-2.622C-0.318,-2.06 -0.578,-1.374 -1.031,-0.858C-1.52,-0.301 -2.164,0.133 -2.789,0.548C-3.016,0.698 -3.391,0.702 -3.68,0.656C-3.869,0.627 -4.026,0.39 -4.198,0.245C-4.023,0.118 -3.862,-0.096 -3.674,-0.122C-2.61,-0.272 -2.093,-1.021 -1.804,-1.908C-1.611,-2.498 -1.26,-2.854 -0.773,-3.138C-0.621,-3.226 -0.373,-3.324 -0.26,-3.259C-0.135,-3.187 -0.115,-2.933 0,-2.622" style="fill:rgb(155,192,186);fill-rule:nonzero;"/>
            </g>
        </g>
        <g transform="matrix(5.55556,0,0,5.55556,25423.2,4783.46)">
            <g transform="matrix(1,0,0,1,455.237,540.777)">
                <path d="M0,-0.278C-0.011,0.652 -0.356,1.065 -1.059,1.043C-1.447,1.031 -1.661,0.853 -1.593,0.447C-1.534,0.097 -1.422,-0.245 -1.377,-0.595C-1.334,-0.936 -1.457,-1.343 -0.886,-1.34C-0.32,-1.336 -0.125,-1.178 -0.031,-0.583C-0.013,-0.465 -0.007,-0.346 0,-0.278" style="fill:rgb(155,192,186);fill-rule:nonzero;"/>
            </g>
        </g>
        <g transform="matrix(5.55556,0,0,5.55556,25423.2,4783.46)">
            <g transform="matrix(1,0,0,1,446.254,540.414)">
                <path d="M0,-2.325C0.656,-1.929 1.189,-1.606 1.775,-1.253C1.731,-1.106 1.7,-0.913 1.617,-0.745C1.444,-0.394 1.296,0 0.764,-0.11C0.186,-0.23 -0.184,-0.587 -0.233,-1.125C-0.248,-1.28 -0.243,-1.443 -0.211,-1.596C-0.163,-1.82 -0.084,-2.039 0,-2.325" style="fill:rgb(155,192,186);fill-rule:nonzero;"/>
            </g>
        </g>
        <g transform="matrix(5.55556,0,0,5.55556,25423.2,4783.46)">
            <g transform="matrix(1,0,0,1,446.254,460.105)">
                <path d="M0,77.984C-0.084,78.27 -0.163,78.489 -0.211,78.713C-0.243,78.866 -0.248,79.029 -0.233,79.184C-0.184,79.722 0.186,80.079 0.764,80.199C1.296,80.309 1.444,79.915 1.617,79.564C1.7,79.396 1.731,79.203 1.775,79.056C1.189,78.703 0.656,78.38 0,77.984M8.982,80.393C8.976,80.325 8.97,80.206 8.951,80.088C8.857,79.493 8.662,79.336 8.097,79.332C7.525,79.328 7.648,79.735 7.605,80.076C7.561,80.426 7.448,80.768 7.39,81.118C7.321,81.524 7.535,81.702 7.924,81.714C8.626,81.736 8.972,81.323 8.982,80.393M7.042,80.189C6.845,79.878 6.673,79.533 6.43,79.249C6.306,79.103 6.053,78.996 5.859,78.999C5.577,79.002 5.344,79.15 5.296,79.498C5.214,80.082 5.104,80.663 5,81.244C4.934,81.612 4.893,81.978 5.335,82.139C5.755,82.293 6.152,82.207 6.363,81.8C6.616,81.312 6.795,80.786 7.042,80.189M4.033,41.459C3.918,41.148 3.898,40.893 3.773,40.822C3.66,40.756 3.412,40.855 3.26,40.943C2.773,41.226 2.422,41.583 2.229,42.172C1.94,43.059 1.423,43.808 0.359,43.959C0.171,43.985 0.01,44.199 -0.165,44.326C0.007,44.47 0.164,44.708 0.354,44.737C0.643,44.783 1.018,44.779 1.244,44.629C1.869,44.213 2.514,43.78 3.002,43.222C3.455,42.707 3.715,42.021 4.033,41.459M3.077,81.968C3.179,81.953 3.386,81.952 3.567,81.885C4.139,81.674 4.835,80.379 4.714,79.788C4.631,79.379 4.042,78.64 3.787,78.626C3.342,78.6 2.481,79.142 2.301,79.568C2.16,79.897 1.99,80.22 1.9,80.563C1.667,81.452 2.063,81.948 3.077,81.968M38.532,58.515C39.344,58.093 39.888,57.519 40.408,56.925C41.022,56.226 41.052,56.105 40.419,55.426C39.235,54.157 38.355,52.714 37.715,51.111C37.598,50.819 37.415,50.553 37.262,50.275C37.576,53.024 37.579,55.778 38.532,58.515M42.529,69.482C43.523,70.094 43.751,70.125 44.647,69.838C46.063,69.387 47.391,68.741 48.533,67.802C49.42,67.075 50.194,66.21 51.009,65.396C51.208,65.197 51.409,64.938 51.093,64.688C50.414,64.154 49.717,63.644 48.957,63.072C47.301,65.713 44.98,67.58 42.529,69.482M11.82,28.706C9.738,26.378 7.692,25.545 4.943,26.657C6.009,28.47 6.26,30.672 7.896,32.429C8.587,30.405 9.921,29.245 11.82,28.706M11.382,34.811C12.83,34.838 14.126,33.976 14.519,32.731C14.606,32.452 14.615,32.054 14.478,31.816C14.021,31.024 13.497,30.269 12.966,29.524C12.723,29.182 12.451,28.951 12.026,29.424C11.777,29.702 11.35,29.834 10.985,29.991C9.742,30.525 9.15,31.591 8.682,32.762C8.533,33.133 8.569,33.476 8.904,33.729C9.669,34.307 10.416,34.937 11.382,34.811M29.059,54.131C30.625,53.867 31.801,52.957 33.051,52.199C33.58,51.879 33.777,51.433 33.762,50.805C33.728,49.414 33.767,48.02 33.762,46.628C33.761,46.376 33.688,46.125 33.636,45.78C33.259,45.991 32.975,46.127 32.715,46.298C31.511,47.093 30.219,47.698 28.844,48.13C28.691,48.176 28.541,48.227 28.391,48.279C28.043,48.398 27.871,48.637 27.928,49.006C27.969,49.28 27.956,49.605 28.104,49.807C28.34,50.128 28.315,50.42 28.332,50.787C28.383,51.925 28.602,53.049 29.059,54.131M33.555,52.679C33.615,52.689 33.572,52.668 33.546,52.68C32.204,53.361 31.004,54.325 29.496,54.686C29.366,54.716 29.191,55.082 29.234,55.236C29.854,57.459 30.491,59.675 31.163,61.881C31.319,62.392 31.62,62.506 32.097,62.238C32.961,61.751 33.771,61.17 34.627,60.663C35.033,60.422 35.116,60.173 35.012,59.701C34.499,57.379 34.04,55.044 33.555,52.679M35.315,61.005C34.992,61.184 34.79,61.29 34.595,61.407C33.844,61.854 33.11,62.335 32.342,62.747C31.65,63.118 31.603,63.1 31.915,63.778C33.065,66.271 34.184,68.781 35.419,71.232C36.385,73.148 35.944,73.24 37.979,71.959C38.406,71.689 38.779,71.335 39.178,71.019C38.958,70.646 38.737,70.274 38.52,69.901C38.439,69.763 38.366,69.622 38.289,69.482C37.036,67.238 36.317,64.798 35.677,62.33C35.57,61.919 35.454,61.51 35.315,61.005M38.538,59.618C38.592,59.856 38.629,60.011 38.661,60.167C38.939,61.53 39.193,62.898 39.501,64.255C39.85,65.788 40.614,67.146 41.435,68.466C41.758,68.988 41.945,69.015 42.386,68.674C44.436,67.088 46.424,65.433 47.904,63.264C48.423,62.505 48.452,62.462 47.716,61.962C45.962,60.773 44.382,59.378 42.815,57.963C42.461,57.643 42.114,57.313 41.766,56.987C41.548,56.782 41.333,56.8 41.155,57.025C40.506,57.847 39.704,58.492 38.851,59.087C38.685,59.203 38.622,59.469 38.538,59.618M20.146,48.264C18.915,47.009 18.873,47.005 17.785,48.164C17.485,48.483 17.2,48.819 16.934,49.167C15.938,50.463 14.909,51.739 13.974,53.078C12.946,54.547 11.943,56.041 11.043,57.588C8.973,61.148 7.486,64.99 5.781,68.725C5.254,69.88 4.919,71.125 4.533,72.339C4.264,73.191 4.29,73.211 3.443,73.115C1.889,72.938 1.005,73.283 0.146,75.201C-0.536,76.722 1.114,78.463 2.612,78.22C2.955,78.166 3.237,78.076 3.305,77.69C3.371,77.311 3.332,76.962 2.932,76.779C2.716,76.68 2.47,76.64 2.265,76.526C2.146,76.46 2.078,76.299 1.988,76.181C2.111,76.106 2.233,75.971 2.359,75.966C3.311,75.934 3.86,76.414 4.036,77.396C4.18,78.193 4.604,78.529 5.352,78.319C5.886,78.169 6.324,78.222 6.841,78.434C8.063,78.937 8.969,78.318 9.091,77.011C9.185,76.005 8.827,75.223 8.025,74.625C7.611,74.315 7.237,73.938 6.791,73.689C6.212,73.366 6.169,72.917 6.307,72.37C6.443,71.83 6.606,71.295 6.728,70.751C7.565,66.974 9.134,63.481 11.07,60.172C12.396,57.906 13.976,55.785 15.485,53.63C16.283,52.49 17.137,51.382 18.039,50.323C18.656,49.599 19.4,48.984 20.146,48.264M67.215,73.414C66.915,74.42 66.679,75.175 66.465,75.938C65.466,79.505 63.674,82.591 60.946,85.127C60.022,85.987 59.161,86.915 58.236,87.847C60.635,88.297 64.905,87.871 66.881,86.953C68.427,86.235 69.771,85.249 70.531,83.658C71.269,82.115 71.454,80.463 71.338,78.774C71.323,78.551 71.177,78.33 71.063,78.122C70.835,77.703 70.599,77.287 70.347,76.881C69.545,75.591 68.479,74.548 67.215,73.414M27.326,50.889C27.215,50.193 27.139,49.642 27.037,49.095C26.958,48.674 26.707,48.615 26.377,48.935C25.506,49.776 24.778,50.722 24.425,51.896C24.035,53.192 23.66,54.494 23.329,55.805C22.45,59.287 21.937,62.833 21.557,66.397C21.213,69.613 21.229,72.846 21.298,76.074C21.335,77.781 21.553,79.484 21.676,81.19C21.791,82.779 21.887,84.37 21.999,85.959C22.026,86.354 21.908,86.657 21.561,86.866C19.985,87.818 19.169,89.396 18.269,90.897C18.047,91.265 17.898,91.696 17.801,92.118C17.485,93.465 17.94,93.632 19.193,93.466C19.345,93.446 19.49,93.352 19.629,93.277C20.549,92.779 21.384,92.173 22.034,91.341C22.771,90.399 23.522,89.467 24.228,88.503C24.527,88.09 24.78,87.624 24.946,87.144C25.034,86.888 24.997,86.464 24.834,86.267C23.994,85.247 23.924,83.995 23.729,82.793C23.533,81.576 23.42,80.343 23.333,79.114C23.141,76.408 22.997,73.687 23.395,70.997C23.888,67.653 24.152,64.271 24.908,60.967C25.521,58.293 26.162,55.625 26.798,52.955C26.972,52.221 27.171,51.494 27.326,50.889M35.778,45.522C35.81,45.517 35.84,45.513 35.871,45.509C35.871,45.151 35.906,44.788 35.863,44.435C35.776,43.703 35.286,43.027 34.99,43.198C34.495,43.484 34.409,44.005 34.412,44.54C34.431,47.212 34.446,49.883 34.468,52.554C34.47,52.873 34.481,53.194 34.528,53.508C35.124,57.537 36.151,61.464 37.35,65.349C37.845,66.954 38.525,68.482 39.437,69.903C41.132,72.547 43.983,72.966 46.104,71.969C46.862,71.613 47.664,71.344 48.4,70.952C50.785,69.682 52.905,68.069 54.441,65.816C55.133,64.803 55.673,63.685 56.249,62.597C56.736,61.68 57.031,61.647 57.648,62.505C57.741,62.634 57.827,62.769 57.912,62.904C58.742,64.218 59.858,65.215 61.246,65.909C61.566,66.069 61.887,66.237 62.224,66.349C62.48,66.435 62.704,66.329 62.737,66.022C62.793,65.5 62.775,64.99 62.463,64.527C61.771,63.505 61.129,62.446 60.391,61.459C59.868,60.76 59.255,60.12 58.623,59.514C57.89,58.813 56.928,58.746 56.037,59.012C55.304,59.233 55.288,60.069 55.107,60.711C55.064,60.862 55.097,61.033 55.058,61.185C55.02,61.333 54.955,61.485 54.865,61.607C53.69,63.194 52.153,64.508 51.296,66.337C51.264,66.406 51.198,66.463 51.144,66.52C49.416,68.338 47.444,69.788 45.025,70.561C43.527,71.04 42.264,70.667 41.265,69.478C40.036,68.018 39.238,66.316 38.813,64.476C38.348,62.462 38.001,60.419 37.643,58.381C37.341,56.659 36.899,54.965 36.788,53.201C36.675,51.42 36.358,49.65 36.123,47.877C36.019,47.09 35.894,46.306 35.778,45.522M56.624,67.652C56.162,67.443 55.754,67.281 55.368,67.077C54.95,66.856 54.667,66.923 54.349,67.297C52.098,69.937 49.282,71.733 46.02,72.889C44.237,73.521 42.457,73.463 40.983,72.415C39.848,71.606 39.104,71.813 38.19,72.518C37.94,72.711 37.635,72.829 37.359,72.988C36.616,73.417 36.588,73.456 37.098,74.141C38.665,76.251 40.236,78.358 41.845,80.436C42.279,80.998 42.829,81.477 43.372,81.941C43.545,82.088 43.935,82.191 44.107,82.097C45.573,81.304 47.146,80.688 48.368,79.485C49.418,78.452 50.496,77.445 51.596,76.465C53.195,75.041 54.397,73.329 55.412,71.458C56.046,70.288 56.471,69.068 56.624,67.652M37.763,40.008L37.763,40.064C36.846,40.064 35.929,40.046 35.012,40.076C34.746,40.085 34.468,40.2 34.226,40.325C33.955,40.463 33.976,40.869 34.263,40.998C34.468,41.089 34.725,41.155 34.942,41.121C36.642,40.857 38.271,41.318 39.909,41.609C41.006,41.803 42.068,42.196 43.166,42.372C44.246,42.545 45.24,42.904 46.234,43.329C48.764,44.411 51.325,45.418 53.845,46.522C56.179,47.546 58.611,48.36 60.799,49.71C61.168,49.937 61.581,50.122 61.998,50.243C63.257,50.608 64.307,51.297 65.244,52.19C65.666,52.591 65.639,52.759 65.109,53.042C64.552,53.339 63.992,53.643 63.478,54.007C62.796,54.491 62.837,55.238 62.901,55.963C62.911,56.066 63,56.228 63.08,56.247C63.423,56.328 63.781,56.419 64.124,56.389C64.245,56.38 64.319,56.025 64.451,55.856C64.532,55.753 64.706,55.624 64.795,55.65C64.915,55.686 65.065,55.853 65.078,55.976C65.125,56.451 65.143,56.931 65.13,57.408C65.123,57.702 65.25,58.131 64.812,58.197C64.42,58.255 64.477,57.848 64.391,57.602C64.214,57.089 63.719,57.274 63.365,57.195C63.277,57.176 63.057,57.509 62.988,57.712C62.86,58.086 62.772,58.48 62.715,58.873C62.582,59.777 62.798,60.099 63.676,60.367C64.249,60.541 64.723,60.527 65.142,59.952C65.623,59.292 65.909,59.273 66.563,59.573C67.89,60.184 68.114,60.109 68.78,58.828C68.817,58.757 68.847,58.682 68.886,58.614C69.213,58.041 69.38,57.96 70.048,58.046C70.98,58.166 70.989,58.17 71.398,57.247C71.552,56.903 71.703,56.572 72.141,56.584C72.82,56.601 72.951,56.134 72.931,55.634C72.91,55.125 72.866,54.579 72.668,54.12C71.828,52.168 69.123,51.007 67.5,51.656C67.047,51.837 66.757,51.69 66.455,51.36C64.398,49.105 61.789,47.596 59.098,46.31C55.54,44.61 51.859,43.165 48.225,41.627C47.788,41.442 47.314,41.331 46.847,41.238C44.814,40.836 42.782,40.436 40.743,40.076C40.199,39.979 39.63,40.022 39.072,40.01C38.637,40.002 38.199,40.008 37.763,40.008M4.061,35.32C3.857,35.734 3.356,36.069 3.721,36.49C4.481,37.37 4.526,38.34 4.351,39.398C4.315,39.61 4.325,39.887 4.435,40.057C4.976,40.899 4.808,41.734 4.436,42.549C3.827,43.884 2.644,44.653 1.472,45.417C1.317,45.517 1.084,45.564 0.9,45.54C0.33,45.463 0.027,45.817 -0.294,46.184C-0.528,46.451 -0.771,46.726 -1.061,46.925C-1.716,47.379 -1.969,47.986 -1.963,48.764C-1.954,49.961 -1.943,51.16 -2.021,52.351C-2.101,53.597 -1.738,54.712 -1.207,55.797C-0.788,56.653 -0.146,56.842 0.63,56.292C2.786,54.76 4.69,52.957 6.326,50.877C8.198,48.497 10.077,46.121 11.928,43.723C12.797,42.596 13.644,41.447 14.416,40.092C13.327,40.092 12.378,40.113 11.432,40.084C10.959,40.069 10.447,40.06 10.024,39.881C8.665,39.305 7.338,38.648 6.272,37.586C5.546,36.861 4.838,36.118 4.061,35.32M0.303,43.338C1.423,42.725 1.653,41.779 1.771,40.765C1.951,39.197 0.54,37.911 -1,38.257C-1.313,38.328 -1.687,38.503 -1.78,38.068C-1.86,37.696 -1.472,37.554 -1.168,37.455C-0.981,37.394 -0.776,37.375 -0.579,37.366C0.854,37.305 1.7,38.15 2.337,39.29C2.501,39.584 2.601,39.913 2.806,40.409C3.111,39.948 3.388,39.654 3.523,39.305C4.097,37.835 3.138,36.454 1.549,36.428C1.231,36.423 0.912,36.476 0.595,36.472C0.468,36.47 0.343,36.383 0.217,36.336C0.296,36.212 0.36,35.994 0.455,35.98C1.077,35.887 1.707,35.782 2.331,35.798C2.7,35.807 2.941,35.788 3.09,35.426C3.531,34.347 3.81,33.235 3.812,32.062C3.813,31.552 3.627,31.123 3.22,30.813C2.889,30.562 2.508,30.667 2.375,31.073C2.202,31.602 2.052,32.144 1.956,32.692C1.796,33.614 1.338,34.322 0.562,34.828C-1.408,36.11 -3.007,37.769 -4.305,39.71C-4.811,40.465 -5.272,41.274 -5.602,42.118C-5.989,43.111 -6.097,44.148 -5.122,44.955C-4.798,45.223 -4.812,45.551 -4.892,45.931C-4.989,46.394 -5.057,46.871 -5.062,47.342C-5.084,49.613 -5.187,51.885 -4.832,54.146C-4.615,55.534 -4.303,56.89 -3.631,58.13C-3.126,59.061 -2.354,59.758 -1.252,59.648C-0.358,59.558 0.587,59.336 1.365,58.909C2.511,58.281 3.591,57.493 4.588,56.643C8.151,53.605 11.324,50.185 14.201,46.495C14.762,45.777 15.209,44.967 15.676,44.18C15.81,43.954 15.938,43.627 15.876,43.399C15.66,42.608 15.358,41.839 15.05,40.95C14.846,41.2 14.743,41.313 14.654,41.436C13.949,42.403 13.272,43.39 12.538,44.335C11.095,46.191 9.538,47.967 8.177,49.882C6.469,52.283 4.388,54.297 2.152,56.172C1.729,56.528 1.243,56.826 0.751,57.081C-0.104,57.523 -1.255,57.322 -1.605,56.63C-2.234,55.387 -2.849,54.133 -2.764,52.663C-2.687,51.309 -2.695,49.951 -2.645,48.595C-2.606,47.58 -2.151,46.772 -1.339,46.161C-1.117,45.993 -0.891,45.822 -0.707,45.616C-0.62,45.519 -0.559,45.296 -0.612,45.205C-0.672,45.103 -0.887,45.027 -1.017,45.046C-1.484,45.12 -1.942,45.298 -2.41,45.326C-3.329,45.38 -3.851,44.974 -4.035,44.093C-4.107,43.749 -4.101,43.377 -4.068,43.023C-4.029,42.592 -3.745,42.336 -3.481,42.438C-3.14,42.572 -3.352,42.836 -3.36,43.049C-3.365,43.169 -3.387,43.289 -3.379,43.407C-3.345,43.907 -3.214,44.367 -2.693,44.565C-2.267,44.728 -1.446,44.48 -1.169,44.084C-0.415,43.003 -0.018,41.826 -0.353,40.495C-0.566,39.642 -0.896,39.428 -1.737,39.67C-2.231,39.81 -2.691,40.066 -3.18,40.234C-3.284,40.27 -3.464,40.174 -3.564,40.088C-3.604,40.054 -3.554,39.846 -3.485,39.772C-2.997,39.242 -2.323,39.091 -1.659,38.959C-0.604,38.747 -0.085,39.066 0.235,40.092C0.552,41.105 0.448,42.134 0.303,43.338M82.184,37.144C82.502,36.798 82.836,36.881 83.086,37.059C84.271,37.904 85.631,37.886 86.985,37.889C87.488,37.89 88.078,37.958 88.313,37.353C88.447,37.005 87.922,36.688 86.994,36.643C85.382,36.565 84.009,35.838 82.625,35.126C82.487,35.054 82.313,34.951 82.271,34.824C82.227,34.688 82.31,34.369 82.354,34.366C83.089,34.313 83.594,33.746 84.268,33.541C84.871,33.356 85.456,32.981 85.563,32.262C85.604,31.98 85.53,31.613 85.368,31.386C85.136,31.064 84.786,31.257 84.507,31.419C84.266,31.557 84.051,31.743 83.808,31.879C82.558,32.579 81.34,33.355 80.039,33.947C77.905,34.918 77.898,34.792 75.614,34.282C72.506,33.588 69.382,32.949 66.241,32.425C63.651,31.995 61.051,31.565 58.401,31.63C56.406,31.679 54.41,31.63 52.415,31.65C48.345,31.691 44.291,31.915 40.268,32.601C37.588,33.058 34.974,33.712 32.447,34.712C32.151,34.829 31.843,34.937 31.58,35.11C31.237,35.338 31.223,35.84 31.582,36.004C32.258,36.311 32.911,36.594 33.726,36.18C34.675,35.699 35.7,35.306 36.737,35.069C40.983,34.093 45.298,33.609 49.651,33.532C52.362,33.485 55.077,33.458 57.785,33.553C59.691,33.62 61.593,33.882 63.49,34.108C64.833,34.268 66.175,34.468 67.501,34.733C69.569,35.145 71.63,35.606 73.682,36.094C74.412,36.268 75.12,36.556 75.813,36.851C75.962,36.914 76.004,37.228 76.095,37.426C75.925,37.504 75.747,37.662 75.588,37.646C74.466,37.532 73.553,38.006 72.735,38.672C71.924,39.333 71.068,39.701 69.992,39.604C69.356,39.546 69.218,39.767 69.15,40.484C69.077,41.269 69.216,41.612 69.792,41.685C71.196,41.864 72.598,42.007 73.48,40.477C73.912,39.727 74.652,39.29 75.452,38.989C77.183,38.339 78.726,39.245 79.075,40.678C79.244,41.369 79.57,42.025 79.863,42.679C80.266,43.578 80.986,44.124 81.935,44.333C82.699,44.501 82.994,44.205 82.895,43.45C82.874,43.293 82.85,43.13 82.791,42.984C82.421,42.062 82.039,41.145 81.666,40.225C81.488,39.784 81.305,39.343 81.153,38.892C81.046,38.569 80.822,38.107 81.313,37.993C81.762,37.889 81.809,38.382 81.908,38.721C82.031,39.134 82.116,39.54 82.604,39.758C83.178,40.015 83.738,40.34 84.23,40.73C85.313,41.587 86.567,41.905 87.893,42.04C88.203,42.071 88.534,42.032 88.84,41.96C89.313,41.847 89.419,41.531 89.132,41.171C88.823,40.784 88.428,40.589 87.927,40.476C86.445,40.141 84.971,39.752 83.832,38.643C83.576,38.393 83.369,38.091 83.104,37.851C82.821,37.594 82.498,37.382 82.184,37.144M6.979,18.026C7.887,18.09 8.718,17.856 9.512,17.441C9.813,17.284 10.003,17.1 10.044,16.726C10.249,14.853 11.109,13.239 12.114,11.692C12.688,10.807 13.451,10.102 14.38,9.606C15.399,9.062 16.436,8.549 17.478,8.052C18.17,7.721 18.336,7.51 18.115,6.777C17.75,5.559 17.066,4.548 15.974,3.851C15.604,3.615 15.218,3.403 14.861,3.149C13.923,2.48 12.911,2.086 11.734,2.159C11.382,2.181 11.021,2.113 10.666,2.06C7.354,1.559 4.413,2.415 1.895,4.589C0.783,5.55 -0.282,6.612 -0.704,8.099C-0.986,9.093 -1.272,10.097 -1.414,11.116C-1.517,11.849 -1.557,12.675 -1.321,13.355C-0.77,14.952 0.285,16.265 1.878,16.886C3.502,17.52 5.208,17.969 6.979,18.026M36.832,41.829C36.206,41.612 35.574,41.74 34.955,41.703C34.571,41.68 34.162,41.611 33.823,41.444C33.447,41.259 33.263,40.879 33.356,40.432C33.449,39.996 33.735,39.739 34.171,39.664C34.365,39.63 34.568,39.646 34.767,39.628C35.72,39.543 36.673,39.45 37.626,39.366C37.912,39.341 38.229,39.333 38.271,38.973C38.368,38.144 38.495,37.307 38.124,36.504C37.749,35.692 37.603,35.573 36.741,35.824C35.635,36.147 34.544,36.533 33.472,36.954C32.599,37.296 31.529,37.195 30.904,36.602C30.492,36.212 30.332,35.735 30.504,35.189C30.622,34.814 30.762,34.467 31.228,34.322C32.476,33.931 33.71,33.496 34.943,33.06C35.349,32.917 35.411,32.648 35.075,32.346C34.663,31.976 34.175,31.691 33.743,31.339C33.312,30.989 33.026,31.078 32.65,31.479C30.418,33.855 27.458,34.982 24.497,36.059C22.95,36.622 21.271,36.506 19.65,36.672C19.06,36.733 18.582,36.809 18.212,37.331C17.675,38.089 16.964,38.68 16.127,39.088C15.674,39.31 15.621,39.601 15.715,40.054C16.302,42.888 17.538,45.288 20,46.984C21.13,47.762 22.311,48.145 23.669,48.226C25.473,48.335 27.101,47.658 28.785,47.243C30.156,46.905 31.323,46.112 32.539,45.421C33.394,44.937 33.997,44.433 34.042,43.345C34.075,42.54 34.858,42.167 35.633,42.428C36.349,42.671 36.349,42.671 36.832,41.829M44.49,82.677C44.569,82.856 44.576,82.901 44.603,82.927C44.686,83.012 44.771,83.097 44.864,83.17C47.75,85.392 50.89,87.043 54.569,87.48C54.806,87.508 55.049,87.536 55.271,87.615C56.428,88.021 57.365,87.678 58.191,86.833C59.305,85.692 60.479,84.607 61.551,83.429C62.216,82.698 62.769,81.858 63.324,81.035C64.61,79.13 65.432,77.017 65.997,74.803C66.552,72.634 66.9,72.936 64.638,71.556C63.551,70.893 62.419,70.298 61.274,69.738C60.032,69.13 58.753,68.599 57.418,68.004C57.21,68.828 57.132,69.552 56.851,70.186C55.778,72.602 54.495,74.89 52.494,76.692C51.606,77.492 50.697,78.273 49.854,79.119C48.483,80.493 46.924,81.567 45.139,82.322C44.927,82.411 44.733,82.543 44.49,82.677M21.793,8.239C18.967,8.011 16.546,9.223 14.276,10.761C13.579,11.234 13.018,11.987 12.563,12.717C12.041,13.556 11.646,14.49 11.314,15.424C11.094,16.048 10.99,16.745 10.99,17.41C10.988,19.542 11.712,21.479 12.822,23.264C14.049,25.235 15.682,26.679 18.099,26.997C18.454,27.044 18.805,27.127 19.155,27.205C20.261,27.451 21.361,27.387 22.477,27.237C23.853,27.05 25.049,26.4 26.292,25.875C28.3,25.027 30.065,23.846 31.49,22.153C33.01,20.346 33.37,18.348 32.771,16.117C32.264,14.229 31.398,12.532 29.875,11.285C28.833,10.433 27.744,9.505 26.515,9.049C25.05,8.508 23.479,8.038 21.793,8.239M-30.653,49.415L-30.519,49.476C-30.348,49.224 -30.177,48.972 -30.005,48.721C-28.812,46.979 -27.76,45.134 -26.128,43.726C-23.17,41.174 -20.234,38.595 -17.278,36.042C-16.797,35.626 -16.266,35.265 -15.743,34.9C-13.485,33.324 -11.196,31.8 -8.613,30.787C-8.466,30.728 -8.328,30.643 -8.189,30.564C-4.348,28.375 -0.201,26.957 4.042,25.813C5.421,25.441 6.86,25.197 8.305,25.437C8.844,25.526 9.425,25.66 9.871,25.952C11.985,27.334 13.95,28.874 15.199,31.167C15.475,31.672 15.562,32.127 15.442,32.639C15.024,34.45 13.085,35.814 11.225,35.658C9.772,35.535 8.61,34.775 7.745,33.74C6.731,32.527 5.81,31.198 5.378,29.617C5.263,29.196 5.077,28.793 4.903,28.39C4.667,27.843 4.411,27.305 4.164,26.763C3.553,26.896 2.938,27.01 2.332,27.164C0.723,27.574 0.606,27.886 1.423,29.367C1.655,29.789 1.894,30.005 2.44,29.979C3.735,29.916 4.412,30.581 4.481,31.888C4.513,32.485 4.452,33.087 4.489,33.683C4.511,34.025 4.549,34.429 4.74,34.686C6.195,36.635 7.939,38.261 10.26,39.123C11.406,39.548 12.668,39.53 13.801,39.215C15.731,38.679 17.342,37.573 18.348,35.753C18.656,35.195 18.937,34.621 19.243,34.062C19.396,33.784 19.555,33.505 19.757,33.264C19.824,33.184 20.044,33.188 20.175,33.223C20.237,33.241 20.309,33.438 20.283,33.528C20.187,33.871 20.064,34.209 19.931,34.54C19.757,34.97 19.563,35.393 19.323,35.947C20.2,35.86 20.948,35.835 21.677,35.703C22.811,35.498 23.975,35.337 25.048,34.944C26.391,34.453 27.672,33.78 28.95,33.126C32.262,31.431 34.033,28.739 34.052,24.984C34.058,23.788 33.763,22.66 32.91,21.603C31.741,23.272 30.386,24.543 28.762,25.53C27.046,26.574 25.212,27.367 23.306,27.948C21.437,28.518 19.546,28.308 17.632,27.934C15.264,27.471 13.589,26.117 12.262,24.242C11.286,22.862 10.663,21.304 10.282,19.653C10.194,19.274 10.082,18.901 9.983,18.533C9.28,18.696 8.672,18.918 8.052,18.963C6.657,19.062 5.261,19.041 3.902,18.613C3.03,18.338 2.142,18.109 1.272,17.825C0.929,17.712 0.615,17.691 0.411,17.99C-0.059,18.675 -0.523,19.369 -0.915,20.099C-1.117,20.476 -0.896,20.714 -0.456,20.644C0.173,20.545 0.795,20.401 1.419,20.268C3.651,19.792 5.9,19.505 8.188,19.688C8.435,19.708 8.675,19.801 8.935,19.865C8.877,19.996 8.869,20.049 8.848,20.055C8.697,20.095 8.545,20.145 8.391,20.156C4.915,20.388 1.522,21.064 -1.813,22.055C-4.507,22.855 -6.987,24.13 -9.491,25.374C-14.009,27.615 -17.973,30.623 -21.566,34.109C-23.017,35.517 -24.175,37.224 -25.496,38.77C-27.017,40.547 -28.236,42.493 -29.004,44.712C-29.547,46.281 -30.103,47.846 -30.653,49.415M34.428,21.911C34.803,21.487 35.162,21.114 35.483,20.711C37.845,17.749 40.175,14.763 42.107,11.492C42.837,10.256 43.52,8.98 44.367,7.829C46.931,4.349 49.234,0.736 50.902,-3.276C51.475,-4.654 52.019,-6.02 52.087,-7.504C52.149,-8.853 52.123,-10.215 51.996,-11.558C51.915,-12.415 51.673,-13.289 51.335,-14.083C50.777,-15.394 50.03,-15.775 48.68,-15.487C46.012,-14.916 43.458,-14.049 41.166,-12.504C38.604,-10.777 36.267,-8.821 34.306,-6.409C32.215,-3.835 30.104,-1.275 28.563,1.672C27.68,3.362 26.974,5.148 26.249,6.916C25.96,7.622 26.041,7.642 26.74,7.979C27.097,8.151 27.45,8.343 27.769,8.576C28.821,9.345 29.857,10.136 30.94,10.949C31.904,9.415 32.885,7.876 33.832,6.316C33.93,6.156 33.898,5.842 33.811,5.656C33.142,4.237 31.586,3.44 30.079,3.755C29.719,3.83 29.414,3.861 29.312,3.463C29.21,3.069 29.522,2.893 29.839,2.789C30.025,2.727 30.229,2.714 30.426,2.691C31.658,2.548 32.702,2.95 33.587,3.799C33.954,4.152 34.313,4.513 34.722,4.914C34.956,4.658 35.146,4.466 35.319,4.259C36.927,2.331 38.532,0.399 40.139,-1.531C40.531,-2.002 40.995,-2.382 41.557,-2.659C41.201,-2.019 40.778,-1.451 40.338,-0.896C38.773,1.069 37.208,3.034 35.632,4.989C35.277,5.428 35.134,5.842 35.391,6.406C35.801,7.307 35.723,8.285 35.629,9.235C35.573,9.806 35.394,10.374 34.762,10.759C34.611,9.462 35.012,8.197 34.376,6.991C34.215,7.144 34.073,7.233 33.993,7.361C33.274,8.511 32.579,9.675 31.849,10.818C31.525,11.324 31.561,11.726 31.913,12.222C32.302,12.77 32.586,13.398 32.879,14.008C33.752,15.827 34.013,17.779 33.646,19.72C33.464,20.684 33.782,21.21 34.428,21.911M65.6,4.838C65.64,4.908 65.68,4.976 65.721,5.045C64.92,5.592 64.132,6.159 63.317,6.684C59.462,9.174 55.589,11.634 51.938,14.427C47.607,17.738 43.526,21.296 40.3,25.729C38.962,27.567 37.697,29.459 36.425,31.342C36.031,31.925 36.344,32.436 37.051,32.443C37.209,32.445 37.371,32.42 37.524,32.379C38.1,32.224 38.695,32.113 39.242,31.885C40.75,31.257 42.233,30.573 43.732,29.924C45.195,29.292 46.644,28.615 48.141,28.074C49.084,27.734 50.017,27.422 50.84,26.829C51.39,26.433 51.987,26.105 52.548,25.724C54.754,24.221 57.101,22.918 59.05,21.052C59.507,20.615 60.057,20.267 60.59,19.92C63.381,18.102 65.888,15.96 68.159,13.523C70.127,11.413 71.761,9.048 73.437,6.719C74.176,5.693 74.75,4.529 75.27,3.37C75.857,2.058 76.248,0.676 76.17,-0.801C76.128,-1.586 75.832,-2.17 75.142,-2.566C73.934,-3.258 72.69,-3.74 71.266,-3.369C70.495,-3.168 69.714,-3.003 68.958,-2.76C67.819,-2.393 66.686,-2.003 65.573,-1.564C64.461,-1.125 63.341,-0.683 62.292,-0.116C60.572,0.813 58.903,1.835 57.223,2.836C55.605,3.798 54.117,4.936 52.74,6.219C51.631,7.253 50.513,8.277 49.413,9.322C47.622,11.025 45.78,12.681 44.075,14.468C41.396,17.274 38.962,20.289 37.14,23.737C36.208,25.5 35.37,27.312 34.517,29.114C33.871,30.479 33.943,30.637 35.237,31.305C35.553,31.467 35.763,31.402 35.928,31.105C36.045,30.896 36.163,30.688 36.289,30.484C38.697,26.56 41.396,22.864 44.688,19.621C46.768,17.57 49.022,15.729 51.337,13.957C55.493,10.773 59.826,7.856 64.441,5.372C64.814,5.171 65.213,5.015 65.6,4.838M38.672,35.532C39.257,36.596 39.337,37.623 39.226,38.666C39.166,39.219 39.438,39.303 39.907,39.379C42.15,39.739 44.393,40.111 46.62,40.553C47.55,40.739 48.462,41.062 49.349,41.409C51.465,42.237 53.574,43.086 55.661,43.985C57.748,44.885 59.848,45.755 61.791,46.967C63.485,48.026 65.229,49.001 66.617,50.471C66.893,50.763 67.175,50.82 67.576,50.757C69.932,50.392 72.26,51.611 73.333,53.729C73.668,54.389 73.774,55.09 73.714,55.82C73.654,56.548 73.426,57.174 72.581,57.276C72.178,57.325 72.089,57.609 71.944,57.895C71.439,58.895 71.284,59.006 70.177,58.821C69.7,58.741 69.557,58.93 69.374,59.291C68.629,60.758 67.962,61.003 66.388,60.394C66.101,60.283 65.848,60.167 65.665,60.486C65.053,61.561 64.179,61.345 63.275,60.99C62.079,60.519 61.815,60.052 62.034,58.777C62.081,58.504 62.156,58.231 62.252,57.97C62.496,57.316 62.523,56.731 62.195,56.041C61.746,55.096 62.09,54.163 62.931,53.487C63.33,53.167 63.758,52.881 64.224,52.544C63.829,51.89 63.275,51.567 62.642,51.292C61.475,50.783 60.341,50.198 59.183,49.67C57.259,48.793 55.337,47.911 53.396,47.075C50.94,46.018 48.455,45.034 46.008,43.959C45.051,43.538 44.088,43.211 43.063,43.005C41.656,42.724 40.267,42.36 38.875,42.008C38.319,41.869 37.854,41.853 37.579,42.478C37.502,42.654 37.36,42.831 37.201,42.936C36.44,43.441 36.432,44.113 36.632,44.914C37.27,47.473 38.05,49.978 39.254,52.337C39.974,53.745 41.055,54.88 42.127,55.997C43.785,57.724 45.558,59.334 47.528,60.717C48.407,61.335 49.214,62.056 50.053,62.73C50.395,63.005 50.731,63.288 51.079,63.554C51.771,64.085 51.872,64.185 52.456,63.313C52.966,62.552 53.546,61.839 54.065,61.086C54.214,60.871 54.27,60.588 54.352,60.331C54.46,59.991 54.521,59.632 54.657,59.305C55.04,58.395 55.726,57.953 56.732,58.026C57.754,58.1 58.709,58.329 59.44,59.11C60.917,60.689 62.266,62.36 63.283,64.284C63.574,64.836 63.7,65.393 63.671,66.006C63.615,67.142 63.145,67.505 62.025,67.162C60.949,66.832 59.943,66.315 59.13,65.531C58.389,64.817 57.736,64.012 56.986,63.183C56.472,64.087 55.931,65.037 55.339,66.075C55.787,66.293 56.169,66.494 56.563,66.667C59.338,67.889 62.099,69.14 64.74,70.639C67.835,72.395 70.273,74.798 71.963,77.938C72.111,78.214 72.255,78.541 72.251,78.841C72.226,80.922 72.149,82.997 70.896,84.802C69.552,86.743 67.64,87.822 65.403,88.368C63.853,88.747 62.271,88.869 60.667,88.942C57.636,89.082 54.705,88.531 51.791,87.874C49.914,87.45 48.201,86.532 46.577,85.51C43.748,83.731 41.259,81.58 39.379,78.765C38.517,77.472 37.531,76.26 36.601,75.012C35.499,73.535 34.679,71.898 33.906,70.235C32.981,68.245 32.042,66.261 31.145,64.259C29.685,61.003 28.916,57.529 28.021,54.096C27.922,53.714 27.821,53.334 27.692,52.843C26.865,54.543 26.713,56.297 26.321,57.98C25.807,60.191 25.356,62.42 24.958,64.655C24.707,66.064 24.681,67.514 24.416,68.921C23.638,73.047 23.734,77.171 24.292,81.307C24.44,82.409 24.364,83.546 24.807,84.6C24.973,84.996 25.108,85.426 25.367,85.755C25.756,86.252 25.87,86.765 25.634,87.317C25.385,87.897 25.108,88.48 24.748,88.996C24.133,89.879 23.449,90.713 22.784,91.561C22.062,92.482 21.18,93.205 20.165,93.802C19.495,94.198 18.816,94.262 18.094,94.19C17.433,94.124 17.095,93.787 17.018,93.124C16.928,92.35 17.055,91.596 17.435,90.921C18.353,89.288 19.2,87.589 20.859,86.536C21.256,86.284 21.33,85.942 21.292,85.512C21.186,84.32 21.169,83.116 20.992,81.935C20.613,79.4 20.496,76.855 20.562,74.298C20.635,71.508 20.61,68.708 20.859,65.931C21.267,61.402 22.083,56.927 23.434,52.574C23.795,51.41 24.397,50.321 24.893,49.191C24.099,49.103 23.152,49.142 22.308,48.868C21.248,48.525 20.569,48.934 19.85,49.576C18.437,50.834 17.299,52.31 16.237,53.866C14.438,56.502 12.472,59.029 10.997,61.873C9.321,65.103 7.953,68.455 7.187,72.033C7.071,72.57 7.146,72.964 7.574,73.3C7.887,73.547 8.188,73.808 8.495,74.061C9.853,75.179 10.155,76.534 9.343,78.103C9.159,78.457 9.115,78.678 9.329,79.06C9.548,79.452 9.633,79.968 9.625,80.427C9.603,81.849 8.996,82.347 7.567,82.197C7.226,82.161 6.92,81.995 6.572,82.312C6.03,82.807 5.389,82.785 4.835,82.309C4.514,82.034 4.31,82.207 3.995,82.29C3.474,82.424 2.895,82.463 2.361,82.388C1.891,82.323 1.431,82.031 1.418,81.456C1.406,80.919 1.103,80.842 0.666,80.749C-0.546,80.488 -0.849,80.05 -0.758,78.819C-0.737,78.544 -0.636,78.275 -0.615,78C-0.587,77.614 -0.536,77.213 -0.606,76.838C-0.877,75.418 -0.176,73.665 1.016,72.854C1.537,72.5 2.106,72.411 2.722,72.415C3.648,72.42 3.661,72.405 3.956,71.501C5.508,66.742 7.736,62.281 9.978,57.827C11.166,55.463 12.699,53.323 14.333,51.251C15.123,50.249 15.878,49.216 16.685,48.228C17.11,47.707 17.614,47.25 18.142,46.703C17.625,46.037 17.098,45.358 16.516,44.608C16.399,44.723 16.276,44.807 16.206,44.922C14.599,47.565 12.541,49.851 10.442,52.093C9.054,53.577 7.532,54.935 6.084,56.364C4.795,57.633 3.332,58.674 1.782,59.586C0.693,60.225 -0.532,60.469 -1.789,60.374C-2.919,60.289 -3.695,59.572 -4.235,58.648C-4.926,57.468 -5.304,56.163 -5.526,54.815C-5.979,52.079 -5.894,49.327 -5.749,46.577C-5.716,45.948 -5.741,45.42 -6.228,44.94C-6.756,44.419 -6.766,43.719 -6.656,43.029C-6.459,41.784 -5.956,40.654 -5.232,39.638C-3.813,37.646 -2.22,35.803 -0.157,34.445C0.935,33.726 1.3,32.678 1.35,31.484C1.367,31.074 1.177,30.639 1.016,30.242C0.719,29.509 0.372,28.797 -0.005,27.962C-0.335,28.052 -0.764,28.117 -1.147,28.284C-3.269,29.204 -5.383,30.141 -7.49,31.091C-8.145,31.386 -8.759,31.767 -9.413,32.061C-12.569,33.482 -15.367,35.436 -17.961,37.708C-18.561,38.232 -19.256,38.646 -19.852,39.174C-22.029,41.107 -24.28,42.971 -26.31,45.05C-27.548,46.318 -28.437,47.929 -29.474,49.391C-29.75,49.782 -29.982,50.203 -30.263,50.59C-30.398,50.779 -30.573,50.961 -30.771,51.077C-31.295,51.386 -31.713,51.133 -31.702,50.494C-31.694,50.059 -31.668,49.6 -31.527,49.195C-30.744,46.936 -29.96,44.675 -29.104,42.444C-28.525,40.938 -27.52,39.678 -26.502,38.444C-25.106,36.752 -23.825,34.943 -22.274,33.407C-18.771,29.937 -14.85,26.997 -10.437,24.743C-7.878,23.436 -5.341,22.086 -2.567,21.266C-2.274,21.179 -1.926,21.111 -1.893,20.692C-1.777,19.256 -0.939,18.188 -0.007,17.104C-0.337,16.736 -0.652,16.385 -0.967,16.035C-2.05,14.823 -2.604,13.456 -2.509,11.78C-2.411,10.038 -2.12,8.336 -1.302,6.822C-0.096,4.591 1.745,2.986 4.086,1.921C6.276,0.924 8.528,0.73 10.868,1.044C11.5,1.129 12.146,1.136 12.766,1.266C13.382,1.396 13.986,1.606 14.574,1.837C14.938,1.98 15.273,2.339 15.434,1.635C15.447,1.578 15.806,1.519 15.944,1.586C16.229,1.721 16.48,1.93 16.729,2.129C18.086,3.208 19.645,3.445 21.256,3.014C22.519,2.677 23.724,2.124 24.953,1.664C25.091,1.612 25.222,1.546 25.425,1.455C24.379,3.592 22.089,4.351 17.697,4.037C18.45,4.981 18.919,5.974 19.064,7.11C19.083,7.254 19.393,7.465 19.568,7.466C21.042,7.479 22.517,7.452 23.99,7.431C24.107,7.43 24.224,7.379 24.341,7.375C24.684,7.366 25.133,7.501 25.343,7.333C25.575,7.145 25.583,6.684 25.702,6.347C26.892,2.971 28.557,-0.156 30.712,-3.009C31.891,-4.57 33.079,-6.129 34.378,-7.588C37.638,-11.253 41.418,-14.191 46.212,-15.607C47.279,-15.921 48.341,-16.254 49.482,-16.269C50.188,-16.278 50.677,-16.017 51.15,-15.525C52.058,-14.579 52.438,-13.401 52.613,-12.177C52.93,-9.956 52.984,-7.722 52.446,-5.517C52.306,-4.939 52.131,-4.361 51.898,-3.814C50.379,-0.244 48.648,3.213 46.299,6.324C44.804,8.302 43.563,10.441 42.25,12.538C40.216,15.782 37.996,18.909 35.43,21.764C34.846,22.414 34.542,22.966 34.875,23.875C35.098,24.482 34.99,25.21 35.04,26.037C35.267,25.661 35.457,25.396 35.597,25.108C38.284,19.557 42.267,15.007 46.684,10.801C48.388,9.178 50.193,7.661 51.906,6.046C54.369,3.724 57.271,2.052 60.123,0.286C63.218,-1.631 66.643,-2.699 70.044,-3.84C71.921,-4.47 73.733,-4.259 75.449,-3.223C76.348,-2.68 76.809,-1.937 76.858,-0.884C76.932,0.671 76.543,2.13 75.947,3.53C75.496,4.589 75.005,5.659 74.355,6.603C72.523,9.266 70.65,11.906 68.427,14.267C66.312,16.514 63.948,18.465 61.39,20.193C60.335,20.905 59.392,21.78 58.355,22.522C56.702,23.706 55.019,24.846 53.339,25.991C52.679,26.44 51.982,26.836 51.323,27.285C50.424,27.898 49.438,28.272 48.403,28.617C46.934,29.108 45.529,29.799 44.102,30.416C43.485,30.681 42.88,30.973 42.081,31.339C42.45,31.379 42.626,31.429 42.794,31.41C48.277,30.764 53.786,30.652 59.292,30.808C61.87,30.881 64.449,31.303 67.004,31.715C69.796,32.165 72.562,32.782 75.336,33.335C75.727,33.412 76.112,33.521 76.491,33.645C77.404,33.945 78.279,33.879 79.168,33.507C80.61,32.904 81.976,32.169 83.273,31.301C83.638,31.058 84.01,30.813 84.41,30.643C85.522,30.172 86.549,30.974 86.383,32.175C86.265,33.032 85.744,33.623 85.016,34.035C84.577,34.283 84.114,34.491 83.532,34.781C84.514,35.359 85.423,35.697 86.408,35.834C86.843,35.894 87.294,35.885 87.712,36.003C88.082,36.107 88.477,36.277 88.752,36.534C89.336,37.079 89.185,37.987 88.466,38.324C88.116,38.487 87.706,38.538 87.316,38.593C87.002,38.638 86.679,38.615 86.359,38.618C86.082,38.621 85.805,38.619 85.277,38.619C86.281,39.258 87.18,39.463 88.08,39.649C88.724,39.781 89.29,40.02 89.727,40.539C90.498,41.455 90.257,42.398 89.107,42.749C88.697,42.873 88.231,42.941 87.813,42.881C86.387,42.679 84.978,42.392 83.813,41.441C83.572,41.244 83.307,41.075 82.847,40.746C83.018,41.288 83.115,41.612 83.223,41.932C83.388,42.421 83.609,42.898 83.72,43.4C83.987,44.62 83.304,45.38 82.061,45.197C80.719,44.999 79.673,44.304 79.092,43.041C78.793,42.389 78.562,41.707 78.306,41.037C77.771,39.638 76.952,39.283 75.586,39.851C74.979,40.104 74.473,40.484 74.129,41.046C73.025,42.849 71.182,42.912 69.355,42.422C68.786,42.269 68.33,41.924 68.289,41.274C68.238,40.474 68.197,39.644 68.923,39.082C69.122,38.926 69.454,38.837 69.703,38.872C70.823,39.03 71.723,38.619 72.556,37.923C72.911,37.626 73.327,37.4 73.839,37.06C65.475,34.755 57.143,33.894 48.683,34.375C45.363,34.562 42.021,34.709 38.672,35.532" style="fill:rgb(35,31,32);fill-rule:nonzero;"/>
            </g>
        </g>
    </g>
</svg>
