<?xml version="1.0" encoding="UTF-8" standalone="no"?>
<!DOCTYPE svg PUBLIC "-//W3C//DTD SVG 1.1//EN" "http://www.w3.org/Graphics/SVG/1.1/DTD/svg11.dtd">
<svg width="100%" height="100%" viewBox="0 0 472 142" version="1.1" xmlns="http://www.w3.org/2000/svg" xmlns:xlink="http://www.w3.org/1999/xlink" xml:space="preserve" xmlns:serif="http://www.serif.com/" style="fill-rule:evenodd;clip-rule:evenodd;">
    <g transform="matrix(1,0,0,1,-25820,-6581.22)">
        <g transform="matrix(5.55556,0,0,5.55556,25423.2,4783.46)">
            <g transform="matrix(1,0,0,1,81.996,347.093)">
                <path d="M0,-21.435C-4.697,-21.435 -8.504,-17.628 -8.504,-12.931L-8.504,-8.504C-8.504,-3.808 -4.697,0 0,0L63.78,0C68.476,0 72.283,-3.808 72.283,-8.504L72.283,-12.931C72.283,-17.628 68.476,-21.435 63.78,-21.435L0,-21.435Z" style="fill:white;fill-rule:nonzero;stroke:rgb(170,225,250);stroke-width:1px;"/>
            </g>
        </g>
        <g transform="matrix(5.55556,0,0,5.55556,25423.2,4783.46)">
            <text x="98.173px" y="340.491px" style="font-family:'ITCAvantGardeStd-Bk', 'ITC Avant Garde Gothic Std', sans-serif;font-weight:300;font-size:11px;fill:rgb(236,0,140);">Título</text>
        </g>
    </g>
</svg>
