<svg clip-rule="evenodd" fill-rule="evenodd" stroke-miterlimit="10" viewBox="0 0 29 48" xmlns="http://www.w3.org/2000/svg"><path d="m17.496 21.49c1.496 5.018 1.625 10.435.371 15.518-.492 1.995-1.063 4.457.474 5.82.782.693 1.925.85 2.957.679 2.218-.371 4.038-2.105 4.985-4.145.946-2.04 1.13-4.352 1.059-6.6-.299-9.359-4.687-18.011-7.909-26.803-.585-1.595-1.188-3.284-2.493-4.371-1.305-1.087-3.56-1.228-4.519.174-.787 1.153-.376 2.707.063 4.032.86 2.599 1.72 5.2 2.581 7.8-4.589 4.89-7.296 11.394-8.313 18.023-.343 2.235-.374 4.77 1.123 6.467-.146-7.292 3.13-14.581 8.681-19.313.566.72.678 1.842.94 2.719" fill="#cb3f26" fill-rule="nonzero"/><path d="m16.639 17.925.379.481c.493.624.687 1.455.858 2.186.058.252.116.499.184.729 1.534 5.144 1.665 10.618.379 15.829-.425 1.722-1.007 4.084.293 5.236.565.502 1.487.704 2.468.539 1.858-.31 3.601-1.77 4.548-3.812.771-1.659 1.09-3.672 1.005-6.334-.23-7.211-2.982-14.146-5.644-20.854-.749-1.886-1.523-3.836-2.229-5.764-.584-1.592-1.157-3.155-2.317-4.122-.633-.527-1.564-.798-2.368-.683-.395.054-.938.227-1.287.738-.639.935-.265 2.305.135 3.514l2.69 8.132-.239.256c-4.196 4.473-7.094 10.762-8.16 17.71-.249 1.624-.245 2.967.017 4.05.502-6.683 3.702-13.069 8.822-17.434zm3.888 26.235c-1.009 0-1.92-.309-2.576-.892-1.833-1.625-1.153-4.386-.656-6.402 1.236-5.005 1.11-10.265-.364-15.209-.075-.251-.138-.521-.203-.796-.094-.404-.19-.814-.33-1.167-5.118 4.642-8.073 11.458-7.934 18.377l.032 1.606-1.063-1.203c-1.335-1.514-1.748-3.785-1.263-6.947 1.081-7.048 3.998-13.453 8.226-18.079l-2.471-7.47c-.354-1.068-1.011-3.055.01-4.549.462-.675 1.206-1.116 2.096-1.24 1.136-.164 2.394.204 3.286.944 1.404 1.172 2.06 2.962 2.639 4.541.731 1.994 1.502 3.938 2.248 5.817 2.699 6.801 5.49 13.834 5.726 21.251.091 2.852-.262 5.035-1.113 6.867-1.109 2.389-3.187 4.105-5.423 4.478-.295.049-.585.073-.867.073" fill="#781e20" fill-rule="nonzero"/><path d="m24.704 39.488c0 2.043-1.592 3.699-3.555 3.699s-3.555-1.656-3.555-3.699 1.592-3.699 3.555-3.699 3.555 1.656 3.555 3.699" fill="#9d5e6a" fill-rule="nonzero"/><path d="m24.704 39.488c0-2.042-1.593-3.699-3.555-3.699s-3.555 1.657-3.555 3.699c0 2.041 1.593 3.699 3.555 3.699s3.555-1.658 3.555-3.699z" fill="none" stroke="#d9bc9d" stroke-width=".5"/><path d="m23.265 39.488c0 1.237-.942 2.24-2.104 2.24-1.163 0-2.105-1.003-2.105-2.24s.942-2.24 2.105-2.24c1.162 0 2.104 1.003 2.104 2.24" fill="#a41f23" fill-rule="nonzero"/><path d="m23.265 39.488c0-1.237-.943-2.24-2.104-2.24-1.162 0-2.105 1.003-2.105 2.24 0 1.236.943 2.24 2.105 2.24 1.161 0 2.104-1.004 2.104-2.24z" fill="none" stroke="#fbc0a5" stroke-width=".5"/><g fill-rule="nonzero"><path d="m22.024 20.273c1.16 4.789 1.388 9.803.666 14.677.842.21 1.589.778 2.016 1.535 1.021-5.982.088-12.165-1.781-17.939-1.034-3.192-2.351-6.284-3.783-9.316-1.02-2.161-2.294-6.447-4.18-7.84-1.32 1.959 2.345 6.68 3.197 8.467 1.594 3.348 2.99 6.805 3.865 10.416" fill="#fff" opacity=".29"/><path d="m22.835 39.354c.042-.022.086-.051.104-.095.017-.039.01-.083.002-.124-.147-.739-.765-1.374-1.508-1.5-.755-.127-2.14.433-1.424 1.24.703.792 1.891.999 2.826.479" fill="#231f20"/><path d="m11.255 19.19c-.198 1.202-.949 2.168-1.777 2.875-.841.727-1.812 1.212-2.725 1.691-.918.48-1.811.962-2.543 1.638-.739.673-1.343 1.502-1.848 2.388-1.008 1.78-1.679 3.769-1.909 5.818-.229 2.044.006 4.17.85 6.078-.921-1.872-1.25-4.011-1.099-6.1.151-2.095.752-4.156 1.718-6.034.487-.939 1.085-1.84 1.857-2.603.773-.772 1.713-1.324 2.613-1.842.904-.52 1.792-1.016 2.504-1.687.714-.66 1.265-1.483 1.369-2.366z" fill="#781e20"/><path d="m3.668 26.453c-.854 1.394-.636 3.292-.071 4.949.563 1.695 1.46 3.376 1.701 5.27.238 1.881-.101 3.727-.423 5.524l-.98 5.412.732-5.451c.243-1.809.485-3.645.177-5.411-.303-1.764-1.238-3.346-1.913-5.089-.339-.878-.597-1.808-.665-2.784-.069-.968.072-2.011.577-2.921z" fill="#781e20"/></g></svg>