<?xml version="1.0" encoding="UTF-8" standalone="no"?>
<!DOCTYPE svg PUBLIC "-//W3C//DTD SVG 1.1//EN" "http://www.w3.org/Graphics/SVG/1.1/DTD/svg11.dtd">
<svg width="100%" height="100%" viewBox="0 0 37 52" version="1.1" xmlns="http://www.w3.org/2000/svg" xmlns:xlink="http://www.w3.org/1999/xlink" xml:space="preserve" xmlns:serif="http://www.serif.com/" style="fill-rule:evenodd;clip-rule:evenodd;stroke-linejoin:round;stroke-miterlimit:2;">
    <g>
        <path d="M13.577,9.219C13.404,9.665 13.24,10.087 13.185,10.362C12.916,11.727 13.227,13.193 14.009,14.353C15.039,13.272 16.249,12.341 17.539,11.592C17.28,10.587 17.574,9.943 17.84,9.375L17.945,9.149C18.133,8.728 18.335,8.418 18.58,8.174C19.283,7.478 20.448,7.29 21.411,7.721C22.174,8.063 22.765,8.782 23.034,9.626C23.195,9.604 23.359,9.575 23.518,9.56C24.609,9.455 25.716,9.475 26.786,9.491C27.162,9.498 27.534,9.504 27.9,9.506C27.804,9.231 27.666,8.969 27.456,8.762L26.596,7.913L27.813,8C28.326,8.036 28.861,7.64 28.966,7.15C29.057,6.721 28.829,6.241 28.451,6.009L26.381,7.385L26.118,7.059C25.787,6.649 25.321,6.353 24.804,6.226L23.921,6.008L24.628,5.446C25.309,4.903 25.892,4.218 26.314,3.463C26.513,3.107 26.806,2.447 26.527,2.016C26.316,1.69 25.835,1.549 24.991,1.551C24.911,1.552 24.78,1.554 24.732,1.579C24.628,1.635 24.596,1.97 24.577,2.171C24.485,3.148 24.135,3.915 23.564,4.393C22.865,4.978 21.619,5.092 20.95,4.323L20.783,4.132L20.863,3.894C21.169,2.984 21.389,2.058 20.936,1.459C20.537,0.93 19.693,0.836 19.033,0.976C18.92,1.001 18.779,1.038 18.709,1.1C18.559,1.236 18.623,1.601 18.753,1.904L18.821,2.056C19.006,2.472 19.237,2.99 19.073,3.538L18.989,3.816L18.697,3.855C16.485,4.151 15.062,4.899 13.963,6.336C14.076,6.63 14.143,6.927 14.143,7.218C14.143,7.759 13.855,8.5 13.577,9.219" style="fill:rgb(203,63,38);fill-rule:nonzero;"/>
        <g opacity="0.29">
            <path d="M18.861,6.53C20.379,6.163 22.047,6.438 23.357,7.274C24.109,7.755 24.793,8.559 24.63,9.425C25.315,9.365 26.009,9.398 26.684,9.524C26.063,7.928 24.768,6.596 23.172,5.91C24.467,4.852 25.162,3.13 24.957,1.49C24.653,2.019 24.55,2.637 24.272,3.18C23.587,4.518 21.755,5.158 20.36,4.545C20.233,4.489 20.103,4.418 20.038,4.298C19.979,4.189 19.983,4.06 19.991,3.938C20.058,2.949 20.237,1.781 19.483,1.12C19.3,0.961 18.94,0.896 18.87,1.126C18.845,1.209 18.875,1.297 18.903,1.379C19.085,1.92 19.185,2.487 19.199,3.057C19.21,3.5 19.153,3.979 18.846,4.303C18.536,4.631 18.052,4.718 17.609,4.818C16.548,5.054 15.486,5.479 14.765,6.278C14.233,6.868 13.927,7.616 13.63,8.348C13.236,9.32 12.841,10.418 13.259,11.381C13.32,11.523 13.425,11.676 13.583,11.685C13.748,11.694 13.87,11.545 13.961,11.41C15.343,9.371 16.173,7.182 18.861,6.53" style="fill:white;fill-rule:nonzero;"/>
        </g>
        <path d="M19.747,18.044C20.02,18.081 20.297,18.1 20.577,18.088C20.731,17.701 20.919,17.275 21.143,16.841C20.658,17.181 20.194,17.586 19.747,18.044" style="fill:rgb(120,30,32);fill-rule:nonzero;"/>
        <path d="M29.762,5.171C29.26,4.214 29.202,3.261 29.634,3.043C30.066,2.826 30.824,3.425 31.326,4.382C31.828,5.34 31.886,6.292 31.453,6.51C31.022,6.728 30.264,6.128 29.762,5.171M29.744,9.437C30.098,9.021 30.458,8.585 30.808,8.155C31.194,7.684 31.566,7.23 31.899,6.844C32.047,6.672 32.2,6.493 32.248,6.319C32.292,6.163 32.261,5.959 32.225,5.781C32.045,4.892 31.631,4.056 31.028,3.365C30.807,3.112 30.625,2.957 30.437,2.861C30.035,2.656 29.479,2.688 28.982,2.943C28.558,3.16 28.157,3.53 27.72,4.107C27.234,4.745 26.84,5.444 26.531,6.181C26.536,6.186 26.542,6.19 26.548,6.194L28.344,5L28.561,5.074C29.474,5.391 30.056,6.403 29.858,7.333C29.718,7.985 29.209,8.525 28.584,8.764C28.712,8.991 28.797,9.238 28.857,9.491C29.155,9.483 29.45,9.461 29.744,9.437" style="fill:rgb(203,63,38);fill-rule:nonzero;"/>
        <path d="M25.804,5.601C25.791,5.613 25.782,5.627 25.769,5.64C25.774,5.642 25.778,5.645 25.782,5.647C25.788,5.631 25.797,5.617 25.804,5.601" style="fill:rgb(120,30,32);fill-rule:nonzero;"/>
        <path d="M22.721,15.979C22.328,16.508 21.919,17.268 21.61,17.963C22.284,17.836 22.974,17.637 23.682,17.428C24.75,17.113 25.843,16.793 26.95,16.724L26.817,16.676L27.325,15.333C25.558,15.216 24.038,15.435 22.721,15.979" style="fill:rgb(203,63,38);fill-rule:nonzero;"/>
        <path d="M11.377,6.678C11.016,5.991 10.975,5.306 11.285,5.15C11.596,4.993 12.14,5.424 12.501,6.112C12.862,6.799 12.903,7.484 12.593,7.64C12.282,7.797 11.738,7.366 11.377,6.678M12.29,10.193C12.359,9.842 12.537,9.385 12.724,8.902C12.962,8.288 13.231,7.594 13.231,7.218C13.231,6.506 12.513,5.443 11.485,4.632C11.433,4.591 11.292,4.545 11.128,4.537C11.142,4.549 11.026,4.647 10.876,5.009C10.386,6.182 10.344,7.213 10.431,8.4L10.606,10.794L9.564,8.622C8.892,7.224 7.756,6.056 6.363,5.331C5.335,4.797 3.794,4.467 2.834,5.287C2.331,5.718 2.029,6.431 1.885,7.531C1.838,7.89 1.814,8.256 1.964,8.504C2.165,8.836 2.678,8.968 3.174,9.097L3.344,9.141C6.339,9.93 9.076,12.872 9.346,15.582C9.759,15.56 10.173,15.566 10.583,15.612C11.372,15.699 12.004,15.907 12.518,16.227C12.783,15.819 13.076,15.427 13.39,15.049C12.374,13.667 11.96,11.865 12.29,10.193" style="fill:rgb(0,110,154);fill-rule:nonzero;"/>
        <path d="M32.043,20.053C30.663,18.638 29.439,17.878 28.19,17.666C26.823,17.434 25.424,17.847 23.945,18.283C22.338,18.76 20.683,19.237 19.056,18.819C18.598,19.377 18.16,19.994 17.749,20.686C17.361,21.338 16.889,22.132 16.023,22.359C15.844,22.405 15.666,22.421 15.492,22.421C15.302,22.421 15.119,22.401 14.949,22.38C14.51,22.325 12.272,21.988 11.423,20.762C11.183,20.415 11.077,20.022 11.105,19.611C9.988,20.874 9.062,22.525 8.344,24.544C6.251,30.428 6.564,37.054 9.203,42.724C10.939,46.453 15.06,49.236 20.228,50.167C21.456,50.388 22.443,50.417 23.338,50.264C25.069,49.964 26.773,48.864 28.136,47.164C29.389,45.603 30.243,43.741 31.069,41.942C32.989,37.762 34.974,33.441 35.39,28.809C35.509,27.478 35.467,26.407 35.256,25.44C34.868,23.656 33.787,21.844 32.043,20.053" style="fill:rgb(203,63,38);fill-rule:nonzero;"/>
        <path d="M31.57,12.279C31.927,11.261 32.589,10.561 33.048,10.717C33.507,10.871 33.591,11.822 33.233,12.84C32.876,13.857 32.214,14.556 31.755,14.402C31.296,14.247 31.213,13.297 31.57,12.279M12.177,20.26C12.634,20.919 13.957,21.354 15.065,21.493C15.314,21.525 15.574,21.551 15.788,21.494C16.29,21.363 16.627,20.797 16.952,20.25C18.396,17.822 20.129,16.146 22.11,15.255C24.45,14.202 27.352,14.126 30.983,15.024C31.393,15.126 31.77,15.221 32.075,15.125C32.384,15.031 32.641,14.735 32.879,14.441C33.467,13.709 34.08,12.831 34.163,11.873C34.233,11.056 33.758,10.077 32.938,9.918C32.552,9.842 32.128,9.94 31.679,10.045L31.433,10.1C31.025,10.19 30.613,10.252 30.2,10.297C30.19,10.308 30.179,10.321 30.17,10.333L30.133,10.301C29.008,10.419 27.876,10.403 26.771,10.384C25.724,10.368 24.646,10.349 23.607,10.45C19.062,10.887 13.35,14.457 12.046,19.459C11.967,19.761 12.008,20.016 12.177,20.26" style="fill:rgb(203,63,38);fill-rule:nonzero;"/>
        <path d="M7.483,24.249C8.488,21.422 9.898,19.263 11.668,17.82C11.788,17.542 11.919,17.269 12.064,17.001C11.664,16.742 11.148,16.574 10.481,16.499C7.258,16.133 3.794,18.219 2.21,21.436C0.821,24.258 0.714,27.84 1.907,31.521C2.494,33.329 3.862,36.407 6.627,37.851C5.663,33.353 5.933,28.605 7.483,24.249" style="fill:rgb(203,63,38);fill-rule:nonzero;"/>
        <path d="M35.39,28.809C34.974,33.441 32.99,37.762 31.07,41.942C30.244,43.742 29.389,45.603 28.137,47.164C26.773,48.864 25.069,49.964 23.338,50.264C22.444,50.417 21.456,50.388 20.228,50.167C15.06,49.236 10.939,46.454 9.203,42.724C6.564,37.054 6.251,30.428 8.344,24.544C9.062,22.525 9.988,20.874 11.105,19.611C11.078,20.022 11.183,20.415 11.424,20.762C12.273,21.988 14.51,22.326 14.95,22.38C15.119,22.401 15.302,22.421 15.493,22.421C15.666,22.421 15.845,22.405 16.023,22.359C16.89,22.132 17.361,21.338 17.749,20.686C18.16,19.995 18.598,19.377 19.057,18.819C20.683,19.237 22.339,18.76 23.946,18.284C25.425,17.847 26.824,17.434 28.191,17.666C29.439,17.878 30.663,18.638 32.043,20.053C33.787,21.844 34.868,23.656 35.257,25.44C35.468,26.408 35.51,27.478 35.39,28.809M1.908,31.522C0.714,27.84 0.822,24.258 2.21,21.437C3.794,18.219 7.259,16.133 10.481,16.499C11.148,16.575 11.664,16.743 12.064,17.001C11.919,17.269 11.788,17.542 11.668,17.821C9.898,19.263 8.489,21.422 7.483,24.249C5.933,28.606 5.663,33.353 6.627,37.851C3.863,36.408 2.494,33.33 1.908,31.522M23.607,10.451C24.646,10.35 25.725,10.369 26.771,10.385C27.876,10.404 29.009,10.419 30.133,10.302L30.17,10.333C30.18,10.322 30.191,10.309 30.201,10.297C30.614,10.252 31.025,10.191 31.434,10.101L31.68,10.045C32.129,9.941 32.553,9.843 32.939,9.918C33.758,10.078 34.233,11.057 34.163,11.873C34.081,12.831 33.468,13.709 32.879,14.442C32.642,14.736 32.385,15.032 32.076,15.125C31.77,15.222 31.394,15.126 30.984,15.025C27.352,14.126 24.451,14.203 22.111,15.255C20.129,16.147 18.397,17.823 16.953,20.25C16.627,20.797 16.291,21.364 15.789,21.495C15.575,21.552 15.314,21.526 15.065,21.494C13.957,21.355 12.635,20.919 12.178,20.261C12.009,20.017 11.968,19.762 12.047,19.459C13.35,14.457 19.062,10.888 23.607,10.451M18.669,9.748L18.78,9.508C18.922,9.189 19.065,8.966 19.229,8.803C19.661,8.373 20.42,8.261 21.034,8.535C21.534,8.758 21.928,9.226 22.134,9.786C20.895,10.051 19.618,10.509 18.383,11.135C18.3,10.579 18.458,10.197 18.669,9.748M29.858,7.333C30.057,6.404 29.475,5.391 28.562,5.075L28.345,5L26.548,6.195C26.543,6.19 26.536,6.186 26.532,6.181C26.841,5.445 27.235,4.746 27.721,4.107C28.158,3.531 28.559,3.161 28.983,2.944C29.479,2.688 30.036,2.657 30.438,2.862C30.625,2.957 30.807,3.113 31.029,3.366C31.631,4.056 32.045,4.892 32.225,5.782C32.262,5.959 32.292,6.163 32.249,6.32C32.2,6.494 32.047,6.672 31.899,6.844C31.566,7.23 31.194,7.684 30.808,8.156C30.458,8.585 30.098,9.021 29.745,9.437C29.451,9.461 29.156,9.483 28.858,9.492C28.798,9.239 28.712,8.992 28.585,8.764C29.21,8.525 29.719,7.986 29.858,7.333M25.805,5.601C25.797,5.617 25.789,5.631 25.782,5.647C25.778,5.645 25.774,5.642 25.77,5.64C25.783,5.627 25.792,5.613 25.805,5.601M20.577,18.088C20.297,18.1 20.02,18.081 19.747,18.044C20.194,17.586 20.658,17.181 21.142,16.841C20.919,17.276 20.731,17.702 20.577,18.088M26.817,16.676L26.95,16.724C25.843,16.793 24.75,17.113 23.682,17.428C22.974,17.637 22.284,17.836 21.61,17.963C21.919,17.268 22.328,16.508 22.721,15.979C24.038,15.435 25.558,15.216 27.325,15.332L26.817,16.676ZM36.148,25.252C35.724,23.306 34.565,21.349 32.703,19.436C31.745,18.454 30.252,17.11 28.347,16.787C28.155,16.754 27.964,16.733 27.772,16.72L28.264,15.42C29.055,15.519 29.889,15.675 30.773,15.894C31.252,16.014 31.794,16.147 32.348,15.979C32.905,15.809 33.284,15.381 33.595,14.995C34.267,14.159 34.969,13.142 35.072,11.949C35.174,10.753 34.455,9.302 33.116,9.041C32.538,8.928 31.972,9.06 31.47,9.175L31.236,9.229C31.183,9.24 31.13,9.244 31.077,9.254C31.225,9.074 31.375,8.893 31.52,8.714C31.9,8.249 32.267,7.801 32.595,7.42C32.787,7.198 33.027,6.919 33.128,6.555C33.222,6.219 33.177,5.888 33.12,5.608C32.909,4.567 32.425,3.591 31.721,2.785C31.518,2.553 31.238,2.262 30.858,2.069C30.188,1.727 29.329,1.757 28.56,2.151C28.114,2.38 27.754,2.702 27.46,3.018C27.604,2.455 27.563,1.949 27.297,1.538C26.777,0.732 25.718,0.663 24.981,0.658C24.806,0.66 24.543,0.663 24.296,0.796C23.765,1.079 23.708,1.687 23.669,2.092C23.62,2.607 23.461,3.305 22.973,3.713C22.67,3.965 22.161,4.062 21.824,3.885C22.149,2.837 22.31,1.775 21.669,0.927C20.983,0.02 19.715,-0.083 18.838,0.104C18.598,0.157 18.322,0.238 18.094,0.441C17.654,0.837 17.588,1.497 17.914,2.251L17.986,2.413C18.082,2.63 18.176,2.839 18.207,3.025C16.1,3.363 14.652,4.118 13.5,5.47C13.69,5.749 13.851,6.04 13.964,6.336C15.063,4.899 16.486,4.151 18.697,3.855L18.99,3.816L19.073,3.538C19.238,2.991 19.007,2.472 18.821,2.056L18.754,1.904C18.623,1.601 18.559,1.236 18.71,1.1C18.779,1.038 18.92,1.001 19.034,0.976C19.693,0.836 20.537,0.93 20.936,1.459C21.39,2.058 21.169,2.984 20.864,3.894L20.784,4.132L20.95,4.323C21.619,5.092 22.865,4.978 23.565,4.393C24.135,3.915 24.485,3.148 24.577,2.171C24.597,1.97 24.628,1.635 24.733,1.58C24.781,1.554 24.912,1.552 24.991,1.551C25.835,1.549 26.316,1.69 26.527,2.016C26.806,2.447 26.514,3.107 26.314,3.463C25.893,4.218 25.309,4.903 24.628,5.446L23.921,6.008L24.804,6.226C25.321,6.353 25.788,6.649 26.119,7.059L26.381,7.385L28.451,6.009C28.829,6.242 29.057,6.721 28.966,7.15C28.862,7.64 28.327,8.037 27.813,8L26.597,7.913L27.457,8.762C27.667,8.969 27.804,9.231 27.901,9.506C27.534,9.504 27.163,9.498 26.787,9.492C25.717,9.475 24.61,9.455 23.518,9.56C23.359,9.576 23.196,9.604 23.035,9.626C22.765,8.782 22.175,8.063 21.412,7.721C20.448,7.29 19.283,7.478 18.58,8.174C18.335,8.418 18.133,8.728 17.945,9.149L17.84,9.375C17.574,9.943 17.281,10.587 17.54,11.592C16.249,12.341 15.039,13.272 14.01,14.353C14.07,14.443 14.127,14.536 14.193,14.621L13.466,15.159C13.439,15.123 13.417,15.085 13.391,15.049C13.077,15.427 12.784,15.819 12.519,16.227C12.005,15.907 11.373,15.7 10.584,15.612C10.174,15.566 9.76,15.56 9.347,15.582C9.348,15.597 9.351,15.611 9.352,15.624L8.444,15.704C8.444,15.697 8.442,15.69 8.441,15.684C5.552,16.172 2.791,18.202 1.39,21.048C-0.101,24.077 -0.226,27.892 1.038,31.792C1.715,33.88 3.373,37.54 6.89,38.958C7.262,40.373 7.752,41.76 8.373,43.094C10.233,47.089 14.602,50.061 20.064,51.046C20.836,51.185 21.527,51.254 22.165,51.254C22.633,51.254 23.072,51.216 23.497,51.143C25.449,50.806 27.351,49.588 28.853,47.716C30.175,46.07 31.053,44.158 31.902,42.308C33.852,38.062 35.869,33.669 36.298,28.888C36.426,27.465 36.378,26.31 36.148,25.252" style="fill:rgb(120,30,32);fill-rule:nonzero;"/>
        <path d="M9.352,15.624C9.351,15.61 9.347,15.597 9.346,15.582C9.076,12.872 6.34,9.93 3.345,9.141L3.174,9.097C2.678,8.968 2.165,8.836 1.965,8.504C1.815,8.256 1.838,7.89 1.885,7.53C2.03,6.431 2.331,5.718 2.834,5.287C3.794,4.467 5.335,4.797 6.364,5.331C7.756,6.056 8.893,7.224 9.564,8.622L10.607,10.794L10.431,8.399C10.344,7.213 10.387,6.182 10.876,5.009C11.027,4.646 11.142,4.549 11.129,4.537C11.292,4.545 11.433,4.591 11.485,4.632C12.514,5.442 13.232,6.506 13.232,7.218C13.232,7.594 12.962,8.288 12.725,8.901C12.537,9.385 12.36,9.842 12.29,10.192C11.96,11.864 12.374,13.667 13.391,15.049C13.417,15.085 13.438,15.123 13.466,15.158L14.193,14.621C14.127,14.535 14.07,14.442 14.009,14.353C13.227,13.192 12.916,11.727 13.185,10.361C13.24,10.087 13.404,9.665 13.577,9.219C13.855,8.5 14.144,7.759 14.144,7.218C14.144,6.927 14.076,6.63 13.963,6.336C13.851,6.04 13.689,5.749 13.499,5.47C13.093,4.871 12.555,4.329 12.057,3.936C11.744,3.688 11.317,3.649 11.148,3.644C10.732,3.657 10.323,3.975 10.032,4.67C9.718,5.424 9.565,6.118 9.509,6.816C8.785,5.877 7.854,5.095 6.79,4.542C5.507,3.876 3.543,3.495 2.234,4.615C1.34,5.38 1.091,6.581 0.981,7.417C0.913,7.935 0.89,8.478 1.18,8.959C1.572,9.606 2.332,9.803 2.942,9.96L3.107,10.003C5.731,10.694 8.217,13.345 8.441,15.684C8.441,15.689 8.443,15.696 8.444,15.703L9.352,15.624Z" style="fill:rgb(20,65,106);fill-rule:nonzero;"/>
        <path d="M31.755,14.402C32.214,14.556 32.876,13.857 33.234,12.84C33.591,11.822 33.508,10.871 33.048,10.716C32.589,10.561 31.927,11.261 31.57,12.279C31.213,13.297 31.296,14.247 31.755,14.402" style="fill:rgb(120,30,32);fill-rule:nonzero;"/>
        <path d="M31.454,6.51C31.886,6.292 31.829,5.34 31.327,4.382C30.824,3.425 30.067,2.826 29.635,3.043C29.203,3.261 29.26,4.214 29.763,5.171C30.265,6.128 31.022,6.728 31.454,6.51" style="fill:rgb(120,30,32);fill-rule:nonzero;"/>
        <path d="M12.593,7.64C12.903,7.484 12.862,6.799 12.501,6.112C12.14,5.424 11.596,4.994 11.285,5.15C10.975,5.306 11.016,5.991 11.377,6.678C11.739,7.367 12.282,7.797 12.593,7.64" style="fill:rgb(20,65,106);fill-rule:nonzero;"/>
        <g opacity="0.29">
            <path d="M10.612,12.286C9.894,10.838 9.109,9.405 8.042,8.181C6.975,6.957 5.6,5.944 4.013,5.53C3.784,5.471 3.546,5.424 3.312,5.462C2.514,5.592 2.229,6.555 2.112,7.34C3.154,7.618 4.174,7.969 5.165,8.39C5.78,8.65 6.399,8.948 6.861,9.426C7.438,10.022 8.608,11.1 8.949,11.851C9.402,12.852 10.953,15.436 11.741,15.864C12.866,16.474 10.879,12.824 10.612,12.286" style="fill:white;fill-rule:nonzero;"/>
        </g>
        <g opacity="0.29">
            <path d="M11.392,9.612C11.372,8.613 11.348,7.588 10.971,6.659C11.278,7.181 11.674,7.764 12.287,7.825C12.472,7.843 12.677,7.8 12.797,7.661C13.007,7.417 12.86,7.038 12.957,6.734C13.233,7.101 13.213,7.655 12.91,8.002C12.749,8.186 12.523,8.311 12.373,8.506C12.227,8.695 12.167,8.933 12.115,9.166C11.849,10.363 11.8,11.547 11.769,12.764C11.437,12.368 11.437,11.984 11.429,11.499C11.419,10.87 11.405,10.241 11.392,9.612" style="fill:white;fill-rule:nonzero;"/>
        </g>
        <g opacity="0.29">
            <path d="M23.005,12.592C25.857,11.907 28.846,12.17 31.769,12.438C31.704,11.624 32.096,10.788 32.769,10.308C32.432,10.023 31.927,10.013 31.501,10.14C31.074,10.267 30.695,10.509 30.289,10.689C28.298,11.568 25.989,10.861 23.808,10.948C21.94,11.024 20.128,11.701 18.562,12.703C16.995,13.704 15.659,15.02 14.472,16.437C13.731,17.321 13.023,18.294 12.815,19.421C12.756,19.739 12.747,20.096 12.94,20.359C13.714,21.412 14.464,19.11 14.713,18.695C15.311,17.695 16.049,16.776 16.894,15.964C18.582,14.342 20.705,13.145 23.005,12.592" style="fill:white;fill-rule:nonzero;"/>
        </g>
        <path d="M8.64,42.708C9.078,42.358 9.471,41.982 9.684,41.567C9.921,41.194 9.914,40.531 10.299,39.833C11.051,38.683 11.95,37.882 12.757,36.97C14.373,35.188 15.519,33.005 16.64,30.846C15.733,33.098 14.813,35.388 13.314,37.405C12.586,38.392 11.747,39.353 11.252,40.308C11.052,40.697 11.117,41.319 10.825,42.056C10.541,42.76 10.057,43.287 9.584,43.748L8.64,42.708Z" style="fill:rgb(136,31,33);fill-rule:nonzero;"/>
        <path d="M10.221,39.927C10.947,39.046 11.786,38.258 12.729,37.629C13.67,36.996 14.698,36.531 15.73,36.158C16.762,35.781 17.804,35.492 18.793,35.092C19.775,34.697 20.721,34.144 21.353,33.264C20.828,34.206 19.908,34.896 18.947,35.406C17.98,35.924 16.967,36.324 16.013,36.797C14.078,37.7 12.457,39.031 11.383,40.728L10.221,39.927Z" style="fill:rgb(136,31,33);fill-rule:nonzero;"/>
        <path d="M11.852,46.594C12.809,45.532 13.993,44.761 15.194,44.146C16.4,43.528 17.639,43.049 18.849,42.543C20.054,42.039 21.236,41.487 22.31,40.76C23.378,40.038 24.341,39.12 24.946,37.96C24.451,39.169 23.554,40.201 22.524,41.037C21.491,41.879 20.33,42.554 19.157,43.171C16.835,44.384 14.397,45.537 12.955,47.472L11.852,46.594Z" style="fill:rgb(136,31,33);fill-rule:nonzero;"/>
        <path d="M19.464,18.344C20.724,18.822 21.472,19.348 21.797,20.527C22.123,21.722 21.864,22.965 21.254,23.948C20.633,24.96 19.666,25.573 18.846,26.246C18.033,26.907 17.248,27.748 17.165,28.845C17.125,27.742 17.849,26.759 18.613,26.001C19.385,25.23 20.234,24.531 20.653,23.628C21.087,22.737 21.162,21.689 20.82,20.833C20.487,19.974 19.728,19.288 18.904,19.082L19.464,18.344Z" style="fill:rgb(20,65,106);fill-rule:nonzero;"/>
        <path d="M21.272,23.36C21.611,23.819 22.081,24.263 22.447,24.834C22.823,25.411 22.986,26.089 22.994,26.732C23.014,28.044 22.466,29.205 21.951,30.313C22.331,29.151 22.711,27.934 22.539,26.765C22.459,26.185 22.247,25.643 21.888,25.218C21.529,24.782 21.039,24.417 20.573,23.933L21.272,23.36Z" style="fill:rgb(20,65,106);fill-rule:nonzero;"/>
        <path d="M8.611,23.617C8.698,24.471 9.611,25.351 10.343,26.316C11.085,27.276 11.788,28.364 12.058,29.606C12.193,30.22 12.224,30.862 12.101,31.484C11.986,32.111 11.677,32.68 11.334,33.17C10.993,33.668 10.616,34.125 10.341,34.64C10.068,35.149 9.877,35.732 9.973,36.323C9.819,35.743 9.954,35.12 10.186,34.569C10.419,34.011 10.759,33.508 11.042,32.996C11.667,31.994 11.761,30.839 11.397,29.776C11.056,28.714 10.346,27.805 9.555,26.959C9.157,26.528 8.736,26.136 8.304,25.664C7.883,25.195 8.243,25.821 8.066,25.068L8.611,23.617Z" style="fill:rgb(20,65,106);fill-rule:nonzero;"/>
        <path d="M27.075,17.609C26.596,17.876 25.803,19.031 25.673,19.64C25.557,20.249 25.608,20.929 25.838,21.542C26.283,22.765 27.452,23.76 28.629,24.674C29.817,25.591 31.141,26.578 31.971,27.987C32.391,28.677 32.668,29.494 32.666,30.332C32.669,31.178 32.358,31.965 31.972,32.648C30.404,35.373 27.572,37.301 24.477,37.799C22.937,38.049 21.388,37.994 19.907,38.36C19.173,38.545 18.462,38.849 17.851,39.298C17.244,39.744 16.743,40.363 16.542,41.095C16.715,40.356 17.197,39.709 17.799,39.233C18.403,38.753 19.116,38.415 19.862,38.198C21.361,37.771 22.931,37.768 24.415,37.469C27.385,36.884 30.009,34.919 31.368,32.334C31.7,31.692 31.928,31.011 31.897,30.34C31.871,29.668 31.628,29.007 31.239,28.421C30.47,27.216 29.254,26.361 28.006,25.473C26.782,24.569 25.413,23.588 24.719,21.959C24.393,21.166 24.279,20.295 24.411,19.417C24.55,18.547 24.567,18.269 25.425,17.756L27.075,17.609Z" style="fill:rgb(20,65,106);fill-rule:nonzero;"/>
        <path d="M26.213,37.268C25.564,37.299 25.019,37.435 24.511,37.079C24.003,36.725 23.647,36.242 23.391,35.744C23.134,35.242 22.957,34.724 22.83,34.191C22.708,33.66 22.667,33.096 22.81,32.575C22.743,33.11 22.861,33.638 23.048,34.127C23.24,34.618 23.486,35.095 23.783,35.516C24.079,35.937 24.447,36.296 24.871,36.509C25.289,36.723 26.827,36.58 27.263,36.496L26.213,37.268Z" style="fill:rgb(20,65,106);fill-rule:nonzero;"/>
        <path d="M26.187,16.794C27.405,16.771 28.425,17.402 29.117,18.165C29.823,18.953 30.208,19.873 30.524,20.749C30.815,21.623 31.162,22.481 31.297,23.471C31.425,24.461 31.23,25.467 30.804,26.339C30.386,27.216 29.708,27.968 28.95,28.525C28.203,29.098 27.416,29.568 26.807,30.226C25.569,31.523 24.922,33.377 25.104,35.192C24.809,33.392 25.333,31.451 26.549,30.005C27.154,29.27 27.943,28.731 28.622,28.139C29.313,27.56 29.853,26.867 30.178,26.068C30.505,25.276 30.61,24.411 30.452,23.598C30.293,22.781 29.907,21.944 29.567,21.11C29.218,20.293 28.812,19.521 28.244,18.967C27.681,18.411 26.926,18.065 26.259,18.133L26.187,16.794Z" style="fill:rgb(120,30,32);fill-rule:nonzero;"/>
        <path d="M28.837,28.338C28.888,29.512 29.286,30.799 29.91,31.697C30.214,32.14 30.65,32.493 31.199,32.649C31.745,32.808 32.361,32.789 32.95,32.656C32.397,32.894 31.778,33.038 31.134,32.978C30.488,32.924 29.854,32.595 29.388,32.13C28.914,31.67 28.575,31.08 28.343,30.484C28.108,29.884 27.964,29.274 27.824,28.696L28.837,28.338Z" style="fill:rgb(120,30,32);fill-rule:nonzero;"/>
    </g>
</svg>
