<svg clip-rule="evenodd" fill-rule="evenodd" stroke-linejoin="round" stroke-miterlimit="2" viewBox="0 0 168 137" xmlns="http://www.w3.org/2000/svg" xmlns:xlink="http://www.w3.org/1999/xlink"><linearGradient id="a" gradientUnits="userSpaceOnUse" x1="3.37975" x2="161.06475" y1="69.4365" y2="69.4365"><stop offset="0" stop-color="#d9964e"/><stop offset=".48" stop-color="#d9964e"/><stop offset="1" stop-color="#e4c89e"/></linearGradient><clipPath id="b"><path clip-rule="nonzero" d="m4.416 4.723h155.906v130.394h-155.906z"/></clipPath><clipPath id="c"><path clip-rule="nonzero" d="m4.416 4.723h155.906v130.394h-155.906z"/></clipPath><g clip-path="url(#b)" fill-rule="nonzero"><path d="m3.38.233h157.685v23.123c-4.9-4.663-11.26-7.772-18.012-8.811-4.715-.726-9.54-.418-14.092 1.032-8.297 2.645-15.099 5.823-23.552 1.18-4.408-2.422-7.951-6.471-13.07-7.458-6.354-1.225-12.122 2.741-18.145 3.938-7.841 1.559-14.247-3.024-20.749-6.623-5.254-2.908-10.289-4.385-16.334-4.279-11.711.204-24.433 2.395-33.731 9.872v-11.974z" fill="#662c91"/><path d="m22.917 4.723c-6.742 1.299-13.04 3.661-18.501 7.635v122.759h97.493c-.576-1.918-1.4-3.679-3.263-4.769-1.96-1.146-4.103-1.126-6.231-.774-.415.119-.83.238-1.248.356-.016.005-.022-.02-.005-.025.335-.096.671-.192 1.009-.288-.378.067-.753.14-1.125.221-.135.129-.311.144-.449.078-.315-.012-.411-.447-.112-.596.729-1.389 1.578-2.596 1.263-4.297-.133-.723-.604-1.756-.88-2.355-.909-1.972-2.319-3.689-4.556-3.782-.457 1.555.963 2.94.351 4.491-.687 1.732-3.275 2.262-4.8 2.499-3.129.486-8.7-.018-9.052-3.926-.143-1.582.981-3.119 1.645-4.48 2.172-4.453 3.465-8.969-1.753-12.214-2.096-1.304-4.922-1.733-7.31-1.798-7.639-.208-14.856 3.217-22.484 3.238-4.951.012-10.315-1.609-13.351-5.777-3.263-4.478-2.07-9.889-.4-14.74 2.744-7.975 4.962-15.403 3.834-23.958-1.121-8.513-5.13-18.498-13.835-21.59-.025.016-.049.03-.075.046-.378.254-.723-.352-.355-.605 7.41-5.119 16.298-6.075 24.74-2.946 9.268 3.435 14.729 12.673 24.971 13.706 5.257.53 10.55-.795 15.133-3.358 4.793-2.683 7.038-6.495 10.507-10.417 2.509-2.838 7.525-2.562 8.07 1.434 1.69-1.669 2.993-3.166 3.637-5.75 1.271-5.106-2.796-7.513-7.229-7.887-.515-.044-.53-.813 0-.813 3.578 0 7.628 1.652 8.401 5.555.775 3.933-2.067 8.546-5.541 10.188-.207.097-.434-.156-.254-.331.077-.074.148-.144.224-.217-.068-.073-.12-.165-.128-.29-.399-6.718-6.888-.341-8.213 1.445-.945 1.274-1.986 2.475-3.129 3.576-2.217 2.135-4.792 3.934-7.57 5.257-5.321 2.535-11.431 3.418-17.192 2.017-.443-.108-.874-.235-1.297-.373 5.115 8.042 6.661 20.336 4.418 29.41-.953 3.846-2.852 7.696-6.366 9.792-1.574.94-3.368 1.443-5.187 1.602-1.431.125-2.818-.131-4.241-.135-2.349-.006-4.483.979-5.389 2.759 2.069.353 4.877 1.939 3.68 3.951-.503.845-1.712 1.367-2.741 1.72.363 1.634.801 3.296 1.71 4.717 9.058-1.863 18.801-5.316 25.411 1.143 3.048 2.981 3.156 6.594 1.314 10.228-1.537 3.034-4.938 6.232 1.021 8.62 2.717 1.089 7.481.196 7.971-3.364.157-1.148-.493-1.614-.036-2.655-.064-.185-.006-.423.218-.454.018-.002.036-.002.053-.002.016 0 .033 0 .049-.002.116-.059.255-.061.374-.016 2.448-.112 4.218 1.604 5.299 3.744 1.306 2.576 1.634 4.678.242 7.019 2.467-.659 5.144-.615 7.409.685 2.136 1.226 3.078 3.267 3.736 5.487h57.519v-111.053c-8.552-8.082-21.112-11.176-32.69-7.029-7.066 2.532-13.191 4.742-20.525 1.583-7.34-3.161-11.744-10.092-20.672-8.216-6.178 1.299-11.625 4.947-18.176 3.991-6.898-1.006-12.439-5.816-18.594-8.665-.828-.384-1.675-.718-2.537-1.005h-24.21z" fill="url(#a)"/><g clip-path="url(#c)"><path d="m28.447 94.81c-.242-4.06 1.56-8.011 2.888-11.753 2.03-5.721 3.145-11.6 2.816-17.69-.54-10.009-4.649-21.266-14.628-24.963 8.268-5.304 18.102-5.307 26.84-.971 6.115 3.035 10.064 8.478 16.283 10.991-.031.107-.029.229.029.359 4.448 9.928 8.676 23.862 2.734 34.153-1.412 2.445-3.452 4.36-6.169 5.244-3.039.989-5.967.003-9.024.458-2.729.407-4.221 1.757-4.592 3.759-.073.101-.08.233-.053.358-.096.828-.014 1.757.238 2.771-5.479.914-12.365.84-17.178-1.338-.087-.446-.156-.902-.184-1.378" fill="#fdceae"/><path d="m48.368 97.915c.549-.155.319-.985-.236-.854-.444.105-.908.202-1.38.292-.16-.793-.145-1.514.011-2.158 1.059.176 2.185.453 2.833 1.304 1.24 1.631-.473 2.493-1.914 2.993-.027.002-.047.017-.073.026-.361.123-.702.224-.97.308-1.751.549-3.671.938-5.073 2.2-.145.131.042.367.207.268 1.758-1.05 3.587-1.474 5.517-2.083.045-.015.098-.031.145-.046.076 1.681.636 3.191 1.329 4.713-3.758.724-7.375 1.1-10.568.287-4.24-1.079-8.048-3.793-9.314-7.967 5.728 2.501 13.716 2.348 19.486.717" fill="#9e1e63"/><path d="m58.839 74.639c1.456-.546 2.896-1.22 3.678.215-3.585 2.078-8.561 4.349-13.03 4.357 1.841-.578 3.506-1.477 5.222-2.46 1.338-.765 2.683-1.568 4.13-2.112" fill="#be1e2d"/><path d="m117.638 30.854c1.385-.088 5.656-.214 6.657 1.285.657.986-.426 2.62-.753 3.581-.533 1.565-.687 3.207-.696 4.867-.043.003-.087.01-.133.031-1.75.799-4.049.492-5.906.361-1.945-.137-3.772-.467-5.585-1.165-.031-.597-.067-1.197-.105-1.805-.288-4.74 1.544-6.838 6.521-7.155" fill="#6c3f98"/><path d="m111.256 40.52c2.055.784 4.151 1.098 6.352 1.214 1.786.094 3.568.265 5.238-.41.034 1.749.199 3.509.254 5.213.004.118.047.207.104.282-.025.043-.051.09-.077.128-.161.24-.337.469-.511.699-1.552-.912-3.658-.741-4.854.764-.994-.667-2.412-.965-3.408-.977-.634-.008-2.293.244-3.413.802-.13-.292-.322-.543-.565-.746.877-2.308.972-4.608.88-6.969" fill="#9e1e63"/><path d="m104.667 51.022c.112-.593.51-.884.806-1.364.623-1.01 1.088-1.827 2.422-1.888 1.001-.047 1.676.353 2.343.928-.325.305-.482.667-.343 1.094.058.181.287.254.427.113.946-.943 2.223-1.494 3.559-1.576 1.289-.08 4.238.354 4.166 2.206-.022.571.834.557.88 0 .056-.693-.205-1.256-.645-1.701 1.499-1.29 3.363-1.345 4.747.157.351.379.893-.178.563-.561-.121-.14-.264-.253-.402-.372.189-.223.377-.445.551-.68.058-.076.123-.157.19-.242 1.939.322 3.078 1.979 2.8 3.959-.082.586-.336 1.105-.687 1.558-.07.055-.124.128-.163.214-.619.693-1.496 1.181-2.417 1.383.303-.675.393-1.435.041-2.078-.17-.31-.687-.176-.673.182.044 1.126-.105 2.083-1.127 2.762-.876.583-1.957.678-2.988.648.055-.111.129-.208.17-.331.195-.588-.705-.817-.918-.253-.656 1.744-3.906 1.821-5.348 1.654-1.932-.225-2.6-1.189-3.641-2.586-.043-.089-.105-.163-.189-.21-.143-.097-.318-.087-.448-.009-1.311.422-2.734-.008-3.386-1.294-.259-.51-.397-1.151-.29-1.713" fill="#6c3f98"/><path d="m128.244 75.107c-.65 4.529 0 10.025 1.917 14.226-.124-.106-.301-.151-.487-.06-8.679 4.255-19.422 2.048-28.354.095 1.918-4.179 2.612-9.759 1.937-14.262-1.12-7.456-6.193-14.871 1.738-20.618.04-.029.064-.066.094-.1.951.716 2.208 1.046 3.435.684.384.8.574 1.527 1.473 2.037.93.527 2.152.697 3.205.746 1.568.073 3.835-.186 5.026-1.401.052.033.11.059.183.066 1.462.131 3.08-.031 4.207-1.076.121-.112.235-.241.346-.377 1.224-.079 2.402-.553 3.29-1.333 8.02 6.242 3.12 13.497 1.99 21.373" fill="#9e1e63"/><path d="m4.194 23.042c7.124-3.383 14.943-5.544 22.851-5.679 3.862-.065 7.608-.223 11.245 1.295 1.898.793 3.659 1.879 5.409 2.948 1.788 1.092 3.608 2.086 5.443 3.093 3.638 1.996 7.097 4.386 10.996 5.867 2.655 1.009 5.522 1.401 8.319 1.839 2.778.435 5.633.766 8.446.517 2.518-.222 5.426-1.043 6.249-3.742.39-1.277.13-2.562-.181-3.823-.217-.878-.523-1.855-.273-2.759.274-.986 1.185-1.555 2.078-1.921 1.626-.668 3.455-.898 5.195-1.037 3.757-.301 7.897-.093 11.485 1.158 3.925 1.369 7.505 3.681 11.689 4.244 4.102.553 8.695.989 12.621-.595 2.075-.838 4.051-1.991 6.226-2.567 1.424-.377 2.98-.449 4.447-.426 6.016.095 11.637 2.778 16.42 6.262 2.953 2.151 5.669 4.593 8.206 7.225v-10.151c-8.559-8.62-21.516-12.024-33.435-7.754-7.066 2.531-13.19 4.742-20.524 1.583-7.341-3.162-11.744-10.093-20.672-8.216-6.178 1.299-11.626 4.946-18.177 3.991-6.896-1.006-12.439-5.817-18.593-8.666-8.109-3.754-17.873-2.67-26.441-1.063-7.289 1.367-14.067 3.962-19.843 8.474v10.316c.273-.135.539-.283.814-.413" fill="#fff" opacity=".2"/><path d="m9.328 122.64c2.692 1.957 5.865 3.06 9.165 3.402 4.224.438 8.479.705 12.646 1.567 2.112.436 4.195 1.03 6.185 1.87 1.796.759 3.437 1.755 4.981 2.942 1.34 1.031 2.609 2.169 3.909 3.266h10.479c-1.116-1.673-2.21-3.361-3.402-4.982-1.948-2.648-4.267-5.037-7.298-6.418-3.637-1.657-7.687-1.604-11.602-1.622-3.619-.016-7.287.078-10.861-.582-3.485-.643-6.69-2.146-9.262-4.608-3.061-2.931-5.16-6.691-6.154-10.8-1.007-4.161-1.024-8.541-.403-12.763.311-2.113 1.007-4.077 1.829-6.041.831-1.982 1.732-3.955 2.243-6.052.509-2.086.492-4.164.008-6.251-.476-2.056-1.234-4.07-2.229-5.929-.461-.861-.98-1.701-1.605-2.453-.67-.806-1.496-1.428-2.41-1.932-.7-.386-1.433-.706-2.167-1.023v51.894c1.625 2.468 3.548 4.77 5.948 6.515" fill="#fff" opacity=".2"/><path d="m98.646 130.348c-1.96-1.146-4.103-1.126-6.23-.774-.416.119-.832.237-1.249.356-.016.005-.023-.02-.006-.025l1.009-.288c-.377.066-.752.139-1.126.22-.134.13-.309.145-.447.078-.314-.011-.411-.446-.112-.595.729-1.389 1.577-2.597 1.264-4.297-.133-.724-.606-1.757-.88-2.355-.91-1.972-2.32-3.689-4.556-3.782-.458 1.555.961 2.94.349 4.49-.686 1.733-3.274 2.263-4.799 2.499-3.131.487-8.701-.017-9.053-3.925-.142-1.582.981-3.119 1.646-4.481 2.172-4.452 3.465-8.968-1.754-12.214-2.096-1.303-4.922-1.733-7.309-1.798-7.641-.208-14.856 3.218-22.484 3.239-4.951.012-10.315-1.61-13.351-5.778-3.263-4.477-2.069-9.888-.4-14.74 2.744-7.975 4.961-15.402 3.834-23.957-1.121-8.513-5.13-18.498-13.835-21.591-.025.017-.051.03-.075.047-.377.252-.719-.346-.359-.602.071-.411.175-.813.333-1.2 1.328-3.265 5.258-4.536 8.429-5.124 2.613-.484 5.235-.805 7.895-.863 2.636-.057 5.38.015 7.966.574 4.802 1.039 8.921 3.919 13.082 6.378 4.342 2.566 9.234 4.354 14.343 3.604.978-.144 1.946-.348 2.856-.742.822-.355 1.606-.804 2.337-1.319 1.246-.876 2.877-2.284 2.808-3.968-.493.324-1.002.624-1.531.887-4.828 2.396-10.422 2.089-15.488.706-2.623-.717-5.123-1.808-7.423-3.259-1.132-.715-2.22-1.505-3.258-2.35-1.062-.865-2.047-1.822-3.115-2.68-1.113-.894-2.284-1.576-3.636-2.041-1.304-.449-2.654-.761-4.01-1-2.794-.493-5.643-.693-8.477-.759-3.138-.073-6.291-.029-9.404.401-2.846.394-5.565 1.19-8.222 2.269-2.42.983-4.781 2.141-6.992 3.536-1.355.855-2.657 1.824-3.836 2.919v9.602c.201-.066.402-.134.605-.192 5.425-1.537 11.498-.447 16.147 2.709 2.315 1.571 4.274 3.665 5.594 6.138 1.466 2.749 2.118 5.928 2.025 9.032-.199 6.65-3.619 12.642-6.252 18.574-1.35 3.037-2.577 6.171-3.131 9.463-.535 3.175-.374 6.531.334 9.668.58 2.569 1.616 5.065 3.267 7.135 1.526 1.914 3.541 3.386 5.822 4.273 2.528.983 5.278 1.257 7.972 1.091 1.596-.098 3.179-.351 4.736-.711 1.841-.427 3.619-1.073 5.401-1.697 3.751-1.314 7.619-2.653 11.648-2.558 1.971.046 3.957.438 5.773 1.214 1.218.52 2.328 1.346 2.873 2.586 1.053 2.395-.039 5.282-.788 7.601-.803 2.483-2.074 5.45-1.227 8.081.68 2.116 2.832 2.927 4.855 3.213 3.258.462 6.504-.282 9.762-.026 1.925.151 3.818.589 5.621 1.282 1.683.646 3.431 1.461 4.886 2.539.265.195.504.407.733.626h12.038c-.588-2.135-1.381-4.142-3.428-5.339" fill="#fff" opacity=".2"/><path d="m115.075 39.695c-.011-.452-.37-.786-.697-1.05-.041-.033-.037-.108 0-.142.27-.252.555-.487.843-.718.158-.127.325-.25.458-.402.078-.087.12-.168.081-.254-.072-.157-.261-.268-.398-.358-.31-.204-.639-.381-.965-.558-.046-.026-.063-.092-.035-.137.302-.489.815-.777 1.331-.997-.27-.241-.453-.559-.704-.82-.048-.05-.032-.153.044-.167 1.63-.297 3.444.369 4.967-.45-.153-.222-.362-.388-.618-.48-.584-.209-1.236-.174-1.846-.186-.57-.012-1.211-.021-1.711-.333-.064-.04-.064-.133 0-.173.428-.263.94-.37 1.431-.446 1.115-.174 2.249-.176 3.365-.347.565-.086 1.253-.22 1.755-.566-1.658-.387-3.824-.315-4.738-.257-4.976.318-6.808 2.415-6.52 7.155.037.608.073 1.208.104 1.806 1.168.449 2.345.734 3.553.925.154-.331.309-.686.3-1.045" fill="#fff" opacity=".2"/><path d="m110.804 46.112c.018.093.047.185.121.241.136.102.346.037.488-.012.261-.09.511-.227.703-.426.164-.169.285-.371.388-.581.212-.43.349-.895.587-1.313.257-.45.632-.785 1.126-.954.041-.014.093.009.113.046.305.542.35 1.161.385 1.768.013.207.02.42.072.622.036.132.097.267.235.317.21.075.471-.022.667-.095.322-.119.633-.27.905-.481 1.045-.809 1.548-2.189 1.837-3.433.003-.016.015-.021.023-.032-.282-.015-.564-.031-.846-.045-2.2-.116-4.297-.431-6.352-1.214.073 1.891.02 3.743-.452 5.592" fill="#fff" opacity=".2"/><path d="m120.993 47.124c.388.042.77.135 1.134.287-.048-.148-.092-.298-.13-.45-.154-.608-.25-1.229-.415-1.834-.137-.501-.332-1.006-.694-1.387-.627.944-.5 2.369.173 3.249.05.065-.004.123-.068.135" fill="#fff" opacity=".2"/><path d="m105.206 51.729c.415.146.861.194 1.301.202.056-.394.068-.792.124-1.185.045-.32.137-.632.332-.895.247-.333.608-.569.978-.745.405-.193.845-.31 1.288-.37.32-.043.651-.042.973.003.014-.014.023-.029.036-.041-.667-.575-1.342-.975-2.344-.929-1.334.062-1.798.879-2.421 1.889-.296.48-.694.771-.806 1.363-.022.113-.026.23-.029.348.142.163.347.282.568.36" fill="#fff" opacity=".2"/><path d="m120.922 51.452c-.021.078-.132.123-.178.032-.016-.034-.042-.043-.065-.06-.085.008-.171.027-.256.063-.032.014-.063.009-.088-.004-.034.023-.068.047-.095.068-.197.151-.374.341-.52.542-.154.213-.222.432-.142.694.092.3.303.55.359.863.033.184.027.364-.014.546-.038.17-.095.336-.124.508.332.113.673.081.947-.163.549-.486.726-1.371.684-2.072-.018-.295-.078-.638-.279-.869-.067-.077-.146-.12-.229-.148" fill="#fff" opacity=".2"/><path d="m123.523 52.219c.032-.106.073-.209.1-.317.14-.566.231-1.154.219-1.739-.007-.371-.062-.835-.305-1.146-.139.119-.343.151-.507-.027-1.385-1.501-3.248-1.447-4.747-.157.154.157.276.332.38.518.59-.277 1.248-.484 1.903-.422.554.052 1.046.315 1.362.78.269.394.389.854.397 1.324.008.427.008.862.097 1.281.032.149.074.342.192.45.068.063.146.059.223.03.003-.144.001-.291-.004-.441-.014-.358.503-.491.672-.182.009.015.01.032.018.048" fill="#fff" opacity=".2"/><path d="m123.931 47.135c-.066.085-.132.166-.189.243-.174.234-.363.456-.551.679.059.052.115.11.174.162.342-.269.759-.307 1.163-.137.382.162.708.45.971.765.266.317.44.657.58 1.043.234.641.415 1.337.414 2.023.115-.257.198-.529.239-.819.277-1.98-.862-3.637-2.801-3.959" fill="#fff" opacity=".2"/><path d="m109.913 50.334c-.316.746-.577 1.572-.369 2.383.14.553.471 1.02.864 1.424.378.388.843.766 1.376.909.226.061.468.071.686-.023.16-.068.243-.201.291-.364.135-.453.075-.964.053-1.429-.018-.405-.079-.889.091-1.271.251-.563.806-.947 1.362-1.166.526-.206 1.186-.309 1.683.02.42.277.837.969 1.416.82.38-.099.613-.486.739-.874-.036-.063-.061-.135-.058-.228.072-1.852-2.877-2.286-4.166-2.206-1.336.082-2.614.633-3.559 1.576-.071.071-.164.087-.246.063-.056.122-.111.243-.163.366" fill="#fff" opacity=".2"/><path d="m111.916 60.79c-.221-.325-.536-.572-.911-.694-.345-.112-.713-.141-1.072-.162-.24-.015-.491-.023-.708-.135-.247-.125-.4-.373-.513-.615-.172-.369-.24-.766-.384-1.143-.045-.117-.108-.227-.185-.326-.004-.002-.007.002-.012 0-.401-.146-.771-.352-1.144-.555-.321-.175-.662-.354-1.035-.37-.473-.02-.888.227-1.259.495-.794.573-1.394 1.401-1.789 2.291-.882 1.996-.494 4.319.355 6.255.428.976.84 1.958 1.166 2.974.313.98.543 1.985.677 3.006.072.552.124 1.109.128 1.666.005.585-.031 1.17-.073 1.753-.084 1.144-.202 2.297-.092 3.444.083.866.295 1.767.835 2.469.192.25.448.498.766.565.338.073.639-.123.858-.363.722-.788.859-1.926.885-2.947.014-.518.003-1.036.029-1.554.028-.512.118-1.011.224-1.512.451-2.132 1.104-4.255 2.133-6.185.491-.921.99-1.834 1.33-2.825.339-.992.513-2.032.449-3.08-.027-.455-.096-.911-.204-1.353-.096-.386-.229-.768-.454-1.099" fill="#fff" opacity=".2"/><path d="m113.854 76.546c-.034-.895-.076-1.799-.036-2.693.023-.531.069-1.076-.028-1.6-.041-.222-.108-.461-.263-.631-.068-.073-.15-.11-.234-.141-.006.001-.011.005-.019.004-.192-.029-.39-.001-.561.096-.384.218-.586.68-.717 1.08-.171.516-.259 1.057-.318 1.595-.048.434-.071.868-.095 1.304-.041.797-.146 1.597-.258 2.386-.132.924-.309 1.843-.574 2.739-.129.436-.281.867-.459 1.287-.154.367-.319.748-.536 1.084-.221.344-.522.644-.8.943-.376.405-.755.808-1.109 1.234-.324.39-.643.806-.851 1.273-.144.325-.239.731-.012 1.042.127.173.325.286.521.363.371.148.773.255 1.171.285.657.05 1.261-.152 1.781-.55.551-.424.995-.977 1.457-1.492.552-.615 1.049-1.255 1.411-2.004.688-1.431.778-3.03.702-4.592-.049-1.004-.135-2.006-.173-3.012" fill="#fff" opacity=".2"/><path d="m125.488 57.668c-.155-.348-.328-.703-.567-1.001-.16-.198-.38-.393-.642-.391-.242.232-.518.415-.841.536-.438.164-.9.268-1.31.502-.458.263-.856.703-1.139 1.144-.27.419-.449.911-.397 1.416.035.326.2.594.456.794.249.195.542.328.812.49.288.172.557.38.745.661.524.78.529 1.831.474 2.733-.143 2.354-.654 4.667-.946 7.004-.145 1.15-.24 2.311-.215 3.471.008.429.057.859.11 1.285.077.631.181 1.262.327 1.883.129.548.281 1.126.581 1.609.096.153.217.315.386.392.154.072.319.032.468-.061.235-.147.37-.413.453-.669.108-.328.151-.675.174-1.019.042-.663-.008-1.325-.038-1.988-.045-.989.082-1.994.273-2.963.439-2.217 1.305-4.319 1.826-6.515.13-.548.257-1.097.328-1.656.07-.552.098-1.109.089-1.666-.015-1.132-.178-2.26-.463-3.354-.236-.905-.562-1.784-.944-2.637" fill="#fff" opacity=".2"/><path d="m119.936 61.917c-.01 0-.016.005-.026.001-.123-.048-.237-.112-.343-.191-.484-.363-.78-.91-1.177-1.355-.161-.183-.352-.374-.596-.44-.27-.073-.533.062-.74.229-.263.213-.473.475-.706.718-.169.178-.369.277-.606.335-.385.095-.784.116-1.171.196-.214.045-.465.104-.589.301-.15.237-.137.567-.139.834-.002.362-.003.725.019 1.086.032.524.118 1.118.553 1.469.234.19.533.28.826.331.465.079.943.051 1.412.039.467-.013.931-.019 1.394.053.487.076.959.274 1.46.213.244-.03.473-.125.678-.259.207-.136.357-.317.489-.525.249-.396.42-.869.418-1.342-.002-.452-.224-.824-.547-1.127-.203-.191-.414-.371-.609-.566" fill="#fff" opacity=".2"/><path d="m64.671 81.913c-.635 1.578-1.6 2.958-2.904 4.056-2.621 2.206-6.151 3.147-9.527 3.185-1.718.02-3.449-.195-5.099-.679-1.568-.458-2.991-1.208-4.366-2.078-1.721-1.09-3.37-2.323-4.861-3.713-1.277-1.192-2.623-2.594-3.195-4.283-.012-.034-.003-.061.014-.082-.016-.021-.023-.048-.014-.08.089-.326.175-.652.257-.979.651-2.582 1.096-5.218 1.29-7.875.19-2.598.139-5.215-.189-7.8s-.942-5.134-1.847-7.577c-.914-2.464-2.124-4.854-3.623-7.016-1.437-2.073-3.297-3.855-5.519-5.065-.001 0-.001-.001-.001-.001-.056.003-.11.015-.166.015-.129 0-.129-.199 0-.2.41-.001.807-.08 1.203-.174.354-.101.709-.2 1.066-.292 3.387-.869 6.913-1.303 10.406-.976 3.389.318 6.667 1.37 9.627 3.051.802.455 1.579.953 2.331 1.487.625.444 1.274.858 1.881 1.327.579.447 1.137.963 1.481 1.618.406.773.569 1.636.795 2.47.132.487.292.967.524 1.415.213.411.493.79.763 1.165.55.766 1.144 1.498 1.742 2.227 1.138 1.388 2.303 2.773 3.2 4.335.802 1.4 1.188 2.973.767 4.562-.399 1.505-1.405 2.764-2.575 3.757.297.281.663.453 1.06.548.97.233 1.983.133 2.967.267.838.114 1.71.415 2.323 1.021.589.584.868 1.392 1.033 2.188.229 1.104.311 2.245.317 3.37.011 2.292-.301 4.669-1.161 6.806m-1.996-31.13c-.058-.13-.06-.252-.029-.359-6.219-2.513-10.168-7.955-16.284-10.99-8.737-4.336-18.571-4.334-26.839.97 9.979 3.697 14.088 14.955 14.628 24.963.329 6.091-.786 11.97-2.816 17.691-1.328 3.742-3.13 7.693-2.888 11.752.028.476.097.932.183 1.378 1.382.625 2.945 1.06 4.586 1.366-.009-.016-.02-.032-.029-.047-.597-1.026-1.009-2.205-1.105-3.392-.066-.824.024-1.939.845-2.384.42-.226.921-.206 1.373-.099.74.175 1.419.565 2.049.977 1.504.984 2.974 2.038 4.62 2.779.831.373 1.715.667 2.625.762.662.07 1.326.024 1.963-.146-.034-.438-.032-.855.014-1.248-.027-.125-.02-.257.053-.359.371-2.002 1.862-3.351 4.592-3.758 3.057-.455 5.985.531 9.024-.458 2.717-.884 4.757-2.799 6.169-5.245 5.942-10.291 1.714-24.224-2.734-34.153" fill="#eeb47d"/><path d="m48.787 79.682s4.418 4.418 8.137 3.095c3.719-1.324 7.214-5.117 6.216-7.489-2.022 1.024-9.186 4.494-14.353 4.394" fill="#be1e2d"/><g fill="#231f20"><path d="m18.913 40.533c8.879 2.989 12.946 13.094 14.082 21.688 1.131 8.556-1.087 15.983-3.831 23.959-1.669 4.85-2.862 10.258.398 14.733 3.035 4.167 8.398 5.788 13.347 5.776 7.627-.02 14.843-3.446 22.483-3.239 2.389.065 5.215.496 7.313 1.799 5.222 3.248 3.93 7.768 1.755 12.223-.664 1.361-1.786 2.895-1.644 4.476.35 3.905 5.918 4.406 9.045 3.921 1.523-.236 4.111-.765 4.794-2.496.64-1.619-.962-3.055-.297-4.696.186-.457-.54-.732-.779-.329-.757 1.274.056 1.704-.116 2.962-.487 3.566-5.257 4.462-7.978 3.371-5.967-2.392-2.564-5.593-1.026-8.629 1.841-3.633 1.734-7.241-1.314-10.22-9.603-9.388-25.836 2.166-36.951-.662-5.006-1.273-9.424-4.816-9.754-10.36-.242-4.061 1.56-8.012 2.888-11.755 2.03-5.721 3.144-11.598 2.818-17.689-.545-10.185-4.774-21.679-15.14-25.168-.213-.072-.304.264-.093.335"/><path d="m85.732 118.879c2.586-.217 4.151 1.646 5.141 3.788.275.597.749 1.63.882 2.355.32 1.734-.564 2.963-1.315 4.382-.234.443.371.772.657.385 2.01-2.712 1.778-4.967.315-7.861-1.152-2.278-3.072-4.107-5.772-3.726-.381.054-.294.709.092.677"/><path d="m91.167 129.93c.651-.187 1.302-.372 1.953-.558.016-.004.009-.03-.007-.025-.651.186-1.301.372-1.953.558-.016.004-.009.03.007.025"/><path d="m90.692 129.912c2.676-.601 5.463-1.021 7.955.435 2.296 1.34 3.019 3.699 3.64 6.115.136.531.961.305.822-.227-.688-2.637-1.555-5.173-4.044-6.603-2.617-1.504-5.785-1.334-8.543-.333-.382.138-.234.704.17.613"/><path d="m19.081 40.677c8.358-5.595 18.39-5.664 27.284-1.25 6.9 3.424 11.034 9.92 18.79 11.807 5.759 1.401 11.868.518 17.187-2.016 2.777-1.323 5.353-3.123 7.569-5.256 1.143-1.101 2.183-2.301 3.128-3.575 1.328-1.791 7.825-8.171 8.226-1.441.035.594.96.602.931 0-.206-4.432-5.513-4.826-8.115-1.885-3.468 3.922-5.713 7.735-10.508 10.418-4.583 2.565-9.878 3.889-15.137 3.359-10.242-1.034-15.702-10.27-24.972-13.706-8.439-3.129-17.328-2.174-24.737 2.939-.369.254-.024.859.354.606"/><path d="m101.416 39.783c3.471-1.641 6.31-6.257 5.532-10.187-.772-3.905-4.819-5.538-8.392-5.556-.53-.003-.516.773 0 .814 4.439.352 8.504 2.788 7.234 7.888-.764 3.068-2.457 4.601-4.628 6.711-.18.175.048.428.254.33"/><path d="m.689 15.445c6.313-5.965 14.078-9.202 22.532-10.787 8.569-1.607 18.335-2.691 26.446 1.064 6.153 2.849 11.695 7.66 18.59 8.665 6.551.954 11.997-2.692 18.176-3.991 8.928-1.877 13.332 5.053 20.674 8.216 7.332 3.159 13.456.948 20.521-1.583 14.75-5.284 31.094 1.178 38.722 14.741.28.499 1.029.057.764-.447-4.764-9.075-13.985-15.221-24.062-16.772-4.716-.725-9.538-.418-14.09 1.033-8.3 2.645-15.103 5.823-23.557 1.179-4.408-2.422-7.949-6.47-13.066-7.457-6.354-1.226-12.121 2.74-18.143 3.937-7.844 1.559-14.251-3.023-20.755-6.623-5.253-2.908-10.286-4.384-16.33-4.279-13.07.228-27.428 2.908-36.844 12.682-.267.277.143.686.422.422"/><path d="m27.898 96.736c5.77 2.971 14.361 2.898 20.468 1.173.541-.153.314-.972-.232-.842-5.835 1.381-14.314 1.647-19.832-1.022-.46-.222-.865.454-.404.691"/><path d="m46.774 97.527c-.874-3.794 2.182-6.005 5.706-5.997 1.424.004 2.812.261 4.242.136 1.818-.16 3.61-.663 5.183-1.602 3.512-2.095 5.411-5.944 6.362-9.787 2.297-9.285.634-21.954-4.77-29.975-.346-.512-1.063-.073-.817.477 4.449 9.932 8.678 23.867 2.734 34.16-1.412 2.447-3.454 4.363-6.172 5.248-3.04.989-5.969.002-9.026.458-4.063.606-5.389 3.295-4.34 7.129.158.58 1.032.336.898-.247"/><path d="m41.772 102.294c1.758-1.05 3.587-1.474 5.517-2.083 1.096-.346 2.851-.902 3.483-1.964 1.474-2.476-3.116-4.284-4.936-3.988-.389.063-.394.732 0 .791 1.26.188 2.923.338 3.763 1.444 1.574 2.073-1.616 2.91-2.96 3.332-1.752.549-3.672.938-5.074 2.2-.145.131.042.367.207.268"/><path d="m47.418 99.759c-.005 1.975.687 3.698 1.508 5.458.261.558 1.176.042.833-.487-.98-1.513-1.415-3.305-1.793-5.045-.068-.312-.547-.237-.548.074"/><path d="m46.872 79.564c5.217 1.479 11.821-1.584 16.246-4.162.43-.25.04-.921-.391-.668-4.261 2.496-10.61 5.361-15.691 4.234-.386-.085-.548.487-.164.596"/><path d="m47.909 79.617c2.503-.482 4.607-1.609 6.8-2.865 1.337-.766 2.682-1.569 4.13-2.113 1.554-.583 3.091-1.312 3.828.537.154.386.747.248.639-.177-.652-2.568-2.326-1.952-4.665-1.077-3.799 1.42-6.861 4.243-10.879 5.164-.348.08-.198.598.147.531"/><path d="m56.226 83.154c2.698-.104 5.106-2.259 5.919-4.747.168-.515-.65-.74-.81-.224-.777 2.508-2.694 3.909-5.18 4.449-.292.063-.228.534.071.522"/><path d="m56.299 68.346c2.688-.8 4.816-2.925 4.903-5.87.164-5.581-11.244-11.904-6.109-16.812.172-.164-.005-.519-.246-.422-2.3.926-2.376 3.34-1.695 5.561 1.496 4.882 13.494 13.423 2.978 16.929-.386.129-.227.732.169.614"/><path d="m38.203 56.21c3.711.287 6.79.309 10.107-1.637.437-.256.04-.939-.398-.679-1.496.887-3.067 1.493-4.796 1.737-1.653.233-3.259-.025-4.913.067-.331.019-.327.487 0 .512"/><path d="m48.384 54.685c.597.143 1.283.114 1.82-.211.311-.188.107-.756-.258-.612-.466.185-.885.3-1.388.19-.41-.09-.587.534-.174.633"/><path d="m46.162 49.25c.362.829.867 1.441 1.032 2.375.161.91.185 1.813.474 2.698.155.475.899.277.753-.207-.402-1.34-.209-4.763-2.07-5.112-.152-.028-.249.11-.189.246"/><path d="m33.119 48.973c.594-1.437 2.772-3.497 4.101-4.26 1.585-.911 3.534-1.445 5.316-1.783.649-.124.37-1.098-.273-.987-2.075.356-4.708 1.151-6.363 2.52-.945.782-1.79 1.797-2.621 2.7-.524.57-.907.93-.837 1.718.036.402.529.451.677.092"/><path d="m101.153 89.756c2.039-4.225 2.795-10.005 2.097-14.649-1.121-7.459-6.193-14.876 1.741-20.625.536-.389.05-1.278-.529-.907-3.906 2.501-5.705 6.49-5.173 11.088.479 4.151 2.689 7.89 3.033 12.079.35 4.252-.47 8.752-1.739 12.774-.105.332.415.562.57.24"/><path d="m130.912 89.516c-1.274-4.033-2.064-8.509-1.743-12.773.316-4.192 2.561-7.929 3.037-12.08.553-4.813-1.606-9.308-5.625-12.005-.571-.384-1.056.51-.529.907 8.322 6.281 3.338 13.595 2.197 21.543-.672 4.682.04 10.39 2.094 14.648.153.319.675.095.569-.24"/><path d="m111.107 48.837c-.164-1.511-1.857-2.139-3.212-2.109-1.995.042-2.796 1.362-3.795 2.856-1.995 2.986 1.465 6.522 4.588 5.44.63-.219.359-1.226-.277-1.006-1.331.459-2.794.029-3.458-1.28-.26-.511-.4-1.153-.292-1.717.112-.594.51-.886.807-1.367.624-1.012 1.091-1.83 2.427-1.891 1.191-.055 1.929.512 2.725 1.276.162.156.514.057.487-.202"/><path d="m108.228 54.525c.636 1.012.67 1.957 1.772 2.58.929.525 2.149.695 3.202.744 1.936.09 4.974-.3 5.679-2.417.193-.58-.696-.806-.905-.25-.658 1.748-3.91 1.825-5.355 1.658-1.99-.231-2.63-1.243-3.724-2.706-.291-.388-.94-.042-.669.391"/><path d="m118.411 56.52c1.462.131 3.08-.031 4.207-1.075.834-.774 1.481-2.191.888-3.273-.17-.31-.687-.176-.673.182.044 1.126-.105 2.083-1.127 2.762-.963.641-2.177.7-3.295.643-.494-.026-.481.718 0 .761"/><path d="m122.791 55.087c2.416-.082 4.722-1.71 4.954-4.194.23-2.452-1.469-4.687-3.981-4.778-.645-.024-.608.904 0 .978 2.048.249 3.26 1.96 2.973 4.003-.258 1.851-2.132 3.135-3.946 3.249-.473.031-.48.758 0 .742"/><path d="m110.323 49.905c.95-.947 2.216-1.5 3.559-1.583 1.293-.08 4.245.355 4.172 2.213-.021.562.822.549.867 0 .18-2.195-2.836-3.075-4.567-3.096-1.055-.013-4.999.69-4.459 2.353.059.181.287.254.428.113"/><path d="m118.211 48.888c1.511-1.349 3.412-1.422 4.819.103.35.379.892-.178.561-.561-1.498-1.737-4.375-1.875-5.844-.006-.257.326.141.752.464.464"/><path d="m122.976 48.322c.272-.3.524-.619.766-.944.215-.29.569-.644.546-1.024-.015-.261-.256-.376-.484-.277-.322.141-.486.588-.677.87-.22.327-.458.64-.697.954-.24.313.283.711.546.421"/><path d="m110.35 47.569c1.213-3.144.962-6.274.762-9.56-.289-4.743 1.547-6.843 6.526-7.161 1.389-.089 5.658-.214 6.662 1.287.66.989-.423 2.623-.752 3.587-1.171 3.441-.555 7.252-.441 10.815.019.641 1.021.643.997 0-.11-2.911-.608-6.147-.024-9.023.299-1.467 1.373-2.841 1.501-4.325.274-3.161-4.651-3.453-6.861-3.512-3.257-.086-7.727.838-8.619 4.477-.427 1.741-.065 3.632.088 5.382.235 2.683.194 5.228-.548 7.838-.132.464.542.628.709.195"/><path d="m113.599 33.638c1.157.225 1.964.769 3.196.818 1.78.072 3.614.097 5.39-.025.362-.024.363-.54 0-.564-1.675-.109-3.375-.043-5.053-.016-.942.016-1.642-.106-2.543-.383-.517-.161-.41-.202-.941-.191-.2.004-.26.32-.049.361"/><path d="m110.918 40.403c2.162.883 4.37 1.208 6.689 1.331 1.868.098 3.732.291 5.467-.498.418-.19.056-.808-.361-.618-1.75.8-4.049.493-5.906.362-1.992-.14-3.859-.477-5.714-1.21-.395-.156-.56.476-.175.633"/><path d="m100.923 89.751c8.229 3.438 21.029 4.458 29.187.271.495-.254.06-.985-.433-.743-8.771 4.3-19.646 2.004-28.632.03-.296-.066-.389.331-.122.442"/></g></g></g></svg>