<svg clip-rule="evenodd" fill-rule="evenodd" stroke-linejoin="round" stroke-miterlimit="2" viewBox="0 0 139 29" xmlns="http://www.w3.org/2000/svg"><g fill-rule="nonzero"><path d="m2.975 18.527c-.162 0-.322-.027-.475-.079-.188-.064-.357-.178-.504-.34-.106-.119-.233-.283-.294-.523-.056-.217-.047-.402-.029-.569.024-.215.075-.4.163-.582.101-.208.244-.362.349-.474.142-.15.307-.266.507-.356.168-.077.367-.126.59-.145.059-.006.114-.008.166-.008.149 0 .285.021.416.066.222.075.392.18.521.32.142.158.242.334.293.514.056.219.07.405.048.599-.027.229-.103.408-.181.567-.094.196-.227.34-.334.457-.156.167-.341.299-.536.387-.199.092-.382.144-.573.161-.014.001-.112.005-.127.005m-1.736 9.321c-.135 0-.265-.055-.36-.154-.105-.108-.154-.258-.136-.408l.554-4.477.102-.736c.036-.243.088-.503.139-.747.051-.234.1-.48.148-.726.054-.258.12-.564.189-.851.05-.21.229-.365.444-.383 0 0 1.033-.088 1.048-.088.125 0 .246.047.339.133.103.095.161.23.161.37-.001.146-.019.702-.02.818 0 .256-.018.515-.036.757l-.051.707c-.022.296-.039.524-.07.754l-.571 4.476c-.03.233-.219.414-.454.434 0 0-1.412.121-1.426.121" fill="#fff"/><path d="m3.366 20.778h.005zm.082-5.828c-.066 0-.136.004-.21.01-.278.024-.534.088-.757.19-.258.116-.474.269-.659.465-.122.131-.301.323-.435.598-.113.233-.182.477-.211.748-.022.205-.035.454.041.749.088.345.272.58.401.726.181.198.38.343.6.438-.405.058-.735.358-.831.759-.069.293-.137.604-.19.862-.049.251-.098.493-.147.72-.055.262-.109.531-.146.78l-.102.74-.556 4.489c-.037.3.063.6.272.817.189.196.45.306.721.306.028 0 .056-.001.085-.003l1.384-.119c.469-.04.847-.403.907-.87l.571-4.478c.031-.238.05-.478.067-.707l.005-.069.036-.5.015-.212c.019-.248.037-.52.037-.79.001-.112.005-.236.009-.364.005-.149.011-.303.011-.452.002-.28-.115-.549-.321-.74-.082-.075-.175-.136-.274-.18.038-.015.077-.032.116-.049.247-.112.488-.285.674-.484.141-.153.307-.335.435-.599.096-.197.191-.424.226-.724.029-.252.011-.503-.057-.767-.079-.279-.217-.524-.406-.734-.19-.208-.435-.361-.733-.463-.185-.062-.374-.093-.578-.093m-.082 4.828c-.001.277-.019.573-.02.818 0 .245-.017.492-.034.722-.017.231-.034.478-.051.708-.018.231-.034.476-.067.724l-.572 4.479-1.383.118.554-4.477c.033-.248.068-.495.1-.727.035-.231.085-.481.134-.716.05-.232.1-.481.15-.731.051-.249.116-.549.184-.832zm.082-3.828c.093 0 .174.012.256.04.115.039.23.096.312.185.082.091.148.2.181.312.032.128.049.257.032.406-.018.149-.067.268-.134.403-.065.137-.165.243-.264.351-.098.105-.231.198-.363.258-.131.061-.264.105-.411.118-.028.003-.057.004-.084.004-.115 0-.218-.02-.312-.053-.114-.039-.213-.112-.295-.202-.082-.092-.148-.184-.181-.312-.032-.127-.031-.243-.015-.391.016-.149.05-.282.116-.418s.165-.244.264-.351c.1-.105.214-.181.347-.241.132-.06.281-.09.427-.103.044-.004.085-.006.124-.006" fill="#662c91"/><path d="m4.39 24.766c-.137 0-.27-.057-.364-.158-.105-.111-.153-.264-.131-.416 0 0 .083-.551.1-.696.04-.345.292-.648.627-.753.091-.028.414-.115.667-.183l1.072-8.593c-.185-.02-.366-.039-.43-.048-.421-.059-.691-.407-.643-.829l.084-.712c.028-.236.218-.419.454-.439 0 0 4.015-.343 4.029-.343.137 0 .269.057.364.157.105.112.153.265.13.416 0 .001-.081.551-.098.696-.039.342-.285.632-.629.738-.006.002-.353.101-.649.181l-1.041 8.337 3.263-.279c.066-.315.115-.549.127-.598.114-.385.449-.66.822-.693 0 0 .837-.071.851-.071.136 0 .267.056.362.155.104.109.154.26.134.41l-.336 2.578c-.03.233-.219.414-.452.434 0 0-8.299.709-8.313.709" fill="#fff"/><path d="m9.854 13.096h.005zm.005-2h-.031c-.024.001-.048.002-.071.004l-1.174.101-1.599.137-1.201.102c-.473.041-.852.407-.908.879l-.084.714c-.079.672.354 1.251 1.011 1.372l-.968 7.76c-.16.043-.301.082-.355.098-.527.164-.919.636-.982 1.177-.016.141-.097.677-.097.678-.045.303.051.609.261.832.189.203.454.316.728.316.028 0 .057-.002.086-.004l1.202-.103 6.557-.561.147-.012.363-.031c.468-.041.846-.401.906-.867l.336-2.579c.039-.3-.06-.601-.269-.82-.19-.198-.451-.309-.722-.309-.029 0-.058.001-.086.004l-.807.069c-.584.051-1.087.462-1.253 1.022-.005.017-.01.034-.014.05-.006.029-.026.118-.054.25l-2.278.195.923-7.391c.188-.052.333-.095.337-.096.538-.167.922-.622.985-1.161.012-.11.063-.459.085-.61.016-.07.023-.142.023-.216 0-.552-.444-1-.997-1zm-.005 1s-.083.563-.1.711c-.017.15-.132.273-.28.319-.15.045-.94.259-.956.261l-1.16 9.285 4.249-.364c.1-.482.185-.882.201-.948.049-.168.215-.296.379-.311l.808-.069-.336 2.578-.363.032-.148.012-6.556.561-1.203.103s.084-.563.102-.712c.017-.147.131-.288.28-.334.148-.045.972-.263.972-.263l1.176-9.434s-.774-.08-.921-.1c-.149-.02-.231-.127-.214-.276.017-.148.084-.71.084-.71l1.202-.103 1.582-.135.017-.001zm0 0h.005" fill="#662c91"/><path d="m18.647 16.226c-.845.072-1.586.511-2.206 1.304-.642.832-.969 1.761-.972 2.76-.002.82.181 1.126.29 1.235.056.056.146.122.345.122.469-.037.864-.326 1.261-.864.435-.583.815-1.374 1.1-2.291l.289-2.275zm-3.182 7.682c-.647 0-1.186-.212-1.602-.629-.555-.556-.847-1.457-.843-2.605.003-1.597.572-3.105 1.645-4.362 1.101-1.29 2.518-2.043 4.097-2.178.226-.019.441-.029.645-.029.593 0 1.118.084 1.606.258.222.079.358.301.329.534l-.81 6.383c.201.02.395.039.458.05.384.051.67.383.667.787l-.001.699c0 .26-.198.476-.457.498l-2.092.179c-.015.002-.103.005-.118.005-.337 0-.544-.136-.658-.251-.149-.149-.234-.348-.255-.592-.356.374-.785.716-1.306.958-.311.155-.665.252-1.041.283-.09.008-.179.012-.264.012" fill="#fff"/><path d="m16.098 21.147c-.039-.072-.13-.303-.129-.855.002-.886.295-1.713.87-2.459.399-.511.838-.843 1.33-1.004l-.207 1.595c-.265.828-.609 1.538-.996 2.057-.387.525-.659.65-.818.664l-.044.002zm3.308-7.542c-.218 0-.446.01-.687.031-1.713.146-3.247.96-4.435 2.352-1.15 1.347-1.761 2.968-1.765 4.685-.003 1.283.339 2.306.99 2.959.506.508 1.182.776 1.956.776.099 0 .202-.005.307-.013.438-.038.852-.152 1.232-.34.328-.152.622-.34.887-.55.029.036.058.067.086.096.181.181.503.398 1.012.398.051 0 .104-.003.16-.008l.757-.065 1.335-.114c.517-.044.914-.476.915-.994l.001-.703c.005-.637-.44-1.168-1.065-1.276l.746-5.879c.059-.466-.215-.911-.657-1.068-.543-.193-1.124-.287-1.775-.287m-3.302 8.542c.042 0 .084-.002.128-.006.676-.057 1.188-.591 1.535-1.062.496-.663.893-1.532 1.175-2.438l.369-2.842c-.098-.076-.209-.103-.312-.103-.017 0-.034.001-.05.002l-.345.03c-1.17.1-1.996.775-2.557 1.494-.594.77-1.075 1.791-1.078 3.068-.002 1.239.38 1.857 1.135 1.857m3.302-7.542c.538 0 1.002.073 1.44.229l-.874 6.89c.049.012.807.078.938.099.149.02.248.142.247.29l-.001.703-1.336.114-.756.065c-.026.002-.051.004-.075.004-.293 0-.419-.166-.418-.468l.152-1.665c-.513.944-1.173 1.833-2.164 2.293-.28.139-.576.214-.873.239-.075.006-.15.01-.221.01-1.402 0-1.95-1.224-1.946-2.733.004-1.701.683-3.05 1.526-4.038.842-.987 2.063-1.86 3.759-2.005.211-.018.411-.027.602-.027" fill="#662c91"/><path d="m25.615 22.95c-.135 0-.266-.055-.36-.153-.105-.109-.155-.259-.136-.409l.828-6.667-.406-.043c-.371-.043-.705-.319-.653-.842l.085-.719c.028-.235.218-.419.454-.439 0 0 2.067-.176 2.071-.176.423 0 .711.193.834.506.658-.528 1.34-.824 2.037-.884.092-.008.182-.012.267-.012.812 0 1.441.347 1.821.98.586-.676 1.466-1.272 2.591-1.368.144-.013.283-.019.416-.019.887 0 1.572.267 2.035.793.537.609.733 1.521.583 2.712l-.457 3.624c.094.011.407.046.407.046.442.051.711.396.666.84l-.084.719c-.028.236-.218.419-.455.439 0 0-2.697.23-2.711.23-.135 0-.266-.055-.36-.154-.105-.108-.155-.258-.136-.408l.672-5.336c.064-.525.006-.92-.165-1.113-.042-.047-.168-.189-.563-.189-.052 0-.105.002-.161.007-1.034.088-1.505.979-1.595 1.715l-.655 5.335c-.029.235-.218.417-.453.437 0 0-1.495.128-1.509.128-.135 0-.265-.055-.36-.153-.104-.108-.154-.258-.136-.408l.655-5.335c.07-.558.019-.966-.144-1.15-.035-.04-.143-.161-.494-.161-.049 0-.099.002-.152.006-.514.045-1.039.368-1.562.962l-.754 6.095c-.028.234-.217.416-.453.436 0 0-1.494.128-1.508.128" fill="#fff"/><path d="m35.465 12.206c-.147 0-.301.007-.46.021-.918.078-1.803.482-2.507 1.108-.468-.467-1.104-.722-1.862-.722-.099 0-.203.004-.31.013-.648.056-1.278.286-1.886.685-.228-.198-.528-.313-.864-.313-.028 0-.105.004-.133.006l-2.059.176c-.473.041-.852.408-.908.879l-.084.71c-.072.712.344 1.278.996 1.393l-.766 6.165c-.037.299.063.6.272.817.19.197.45.307.721.307.028 0 .057-.002.085-.004l1.466-.126c.471-.04.849-.405.907-.873l.734-5.937c.394-.418.781-.653 1.128-.683.037-.003.073-.005.108-.005.085 0 .129.01.145.015-.01.014.064.212-.002.734l-.656 5.337c-.036.299.064.598.273.816.189.196.45.306.72.306.028 0 .057-.002.086-.004l1.465-.126c.471-.04.849-.405.908-.874l.654-5.335c.071-.577.408-1.215 1.141-1.278.041-.004.08-.005.118-.005.146 0 .197.027.198.027.02.03.092.244.035.716l-.672 5.332c-.038.3.061.6.271.818.189.197.45.307.72.307.029 0 .058-.001.086-.004l2.669-.228c.473-.04.852-.407.908-.879l.084-.709c.071-.71-.35-1.276-1.01-1.392l.394-3.124c.169-1.339-.068-2.384-.704-3.105-.387-.439-1.118-.962-2.409-.962m0 1c1.672 0 2.356 1.076 2.121 2.942l-.521 4.13c.527.053.824.092.922.101.165.019.23.126.214.292l-.084.71-2.669.228.672-5.336c.142-1.163-.225-1.864-1.224-1.864-.066 0-.134.003-.204.008-1.169.101-1.913 1.047-2.048 2.153l-.655 5.335-1.466.126.655-5.335c.158-1.253-.221-1.873-1.135-1.873-.062 0-.127.003-.194.009-.675.058-1.351.475-1.997 1.249l-.772 6.244-1.465.126.89-7.171c-.511-.053-.824-.092-.922-.1-.165-.019-.214-.128-.198-.293l.084-.71 2.06-.177c.017-.001.032-.002.047-.002.184 0 .285.104.315.282l-.003.851c.81-.92 1.651-1.433 2.524-1.508.077-.007.152-.01.224-.01 1.02 0 1.531.646 1.683 1.579.463-.955 1.486-1.86 2.771-1.969.13-.012.255-.017.375-.017" fill="#662c91"/><path d="m43.129 14.115c-.821.07-1.459.599-1.896 1.571-.037.077-.072.154-.104.231.507-.125.889-.243 1.147-.332.434-.147.794-.308 1.072-.478.342-.224.439-.375.439-.695.001-.101-.031-.145-.057-.172-.082-.082-.258-.13-.471-.13-.043 0-.086.002-.13.005m-1.601 7.574c-1.445 0-2.497-.735-2.962-2.069-.158-.423-.239-.943-.239-1.536.005-1.795.694-3.133 1.271-3.939.887-1.238 2.108-1.958 3.531-2.079.127-.011.25-.016.37-.016 1.154 0 2.035.495 2.417 1.358.127.286.19.565.19.829-.002 1.009-.392 1.724-1.261 2.316-.434.304-1.009.579-1.751.835-.591.204-1.34.394-2.333.593.005.591.133 1.026.368 1.263.182.182.444.27.804.27.066 0 .135-.003.207-.009.544-.047 1.003-.233 1.402-.568l.143-.123c.173-.148.342-.292.52-.415.157-.11.338-.179.508-.193h.016c.307 0 .52.097.676.27l.365.415c.167.191.166.475-.003.664-.84.937-1.898 1.95-3.842 2.117-.136.011-.269.017-.397.017" fill="#fff"/><path d="m42.225 15.074c.274-.277.59-.43.947-.461.005 0 .009 0 .013-.001-.031.023-.071.05-.124.085-.2.122-.487.253-.836.377m1.274-3.524c-.133 0-.271.005-.412.018-1.573.134-2.92.924-3.895 2.286-.62.866-1.36 2.303-1.364 4.228-.001.653.091 1.232.273 1.722.525 1.508 1.777 2.385 3.427 2.385.142 0 .289-.006.441-.019 2.023-.173 3.2-1.199 4.171-2.281.337-.377.34-.948.006-1.328l-.361-.41c-.263-.292-.613-.448-.993-.448-.029 0-.094.003-.123.005-.254.022-.521.121-.749.28-.207.144-.387.298-.562.448l-.139.119c-.316.266-.684.414-1.122.451-.057.005-.111.008-.164.008-.217 0-.368-.042-.449-.123-.049-.049-.146-.184-.194-.509.809-.173 1.445-.342 1.967-.521.787-.272 1.403-.567 1.882-.904.994-.676 1.464-1.543 1.467-2.719 0-.335-.078-.682-.233-1.032-.465-1.053-1.513-1.656-2.874-1.656m-3.104 5.043c.841-.169 1.533-.36 2.044-.535.511-.173.89-.353 1.171-.525.428-.281.677-.564.678-1.12.001-.549-.461-.803-1.029-.803-.056 0-.114.002-.172.007-1.202.103-1.913.98-2.31 1.864-.165.342-.298.713-.382 1.112m3.104-4.043c.967 0 1.664.393 1.96 1.061.098.22.147.428.147.624-.002.915-.382 1.455-1.042 1.904-.397.279-.941.538-1.632.776-.693.239-1.583.447-2.67.654l-.001.18v.179c-.004 1.301.5 2.086 1.672 2.086.08 0 .163-.004.25-.011.724-.062 1.269-.337 1.681-.683.214-.181.412-.362.627-.511.082-.057.181-.097.264-.104.012-.001.025-.002.037-.002.086 0 .17.028.242.108l.361.41c-.858.957-1.815 1.807-3.512 1.953-.122.01-.241.015-.355.015-1.333 0-2.128-.696-2.49-1.734-.147-.397-.211-.864-.21-1.371.003-1.488.517-2.725 1.177-3.648.661-.923 1.668-1.744 3.167-1.872.112-.01.221-.014.327-.014" fill="#662c91"/><path d="m49.214 11.089c-.158 0-.316-.026-.469-.078-.189-.065-.364-.184-.509-.345-.102-.111-.23-.275-.292-.523-.036-.138-.071-.319-.044-.565.022-.191.076-.369.178-.581.101-.207.223-.374.375-.515.149-.141.311-.249.495-.333.153-.07.342-.156.577-.177.015-.002.089-.005.104-.005.2 0 .371.05.498.094.204.069.37.175.504.325.125.139.222.3.292.481.093.243.083.472.062.643-.025.232-.103.407-.179.565-.102.211-.247.364-.388.497-.12.112-.283.252-.496.35-.208.094-.391.145-.58.161-.014.002-.113.006-.128.006m-3.409 13.095c-.309 0-.579-.038-.823-.116-.244-.079-.389-.329-.336-.579l.167-.799c.093-.345.362-.552.726-.583l.314-.026c.3-.027.525-.104.632-.219.134-.145.231-.406.267-.715l.898-7.274c-.121-.016-.26-.034-.417-.056-.425-.049-.688-.38-.644-.821l.085-.719c.028-.235.218-.419.455-.439 0 0 2.681-.229 2.695-.229.135 0 .265.054.36.152.105.109.155.259.136.409l-1.109 8.986c-.155 1.269-.77 2.176-1.83 2.695-.393.176-.796.281-1.215.317-.126.011-.245.016-.361.016" fill="#fff"/><path d="m49.824 13.109h.005zm-.196-5.641c-.047 0-.095.002-.143.006-.325.029-.577.144-.744.22-.235.107-.441.246-.63.424-.197.184-.354.398-.479.654-.084.175-.192.43-.228.746-.029.263-.011.494.058.758.086.345.273.582.406.729.082.091.173.174.27.245l-1.052.09c-.473.04-.852.408-.908.879l-.084.71c-.07.697.347 1.253 1 1.372l-.838 6.78c-.03.261-.1.399-.136.439h-.001c-.006 0-.095.045-.31.063l-.312.026c-.571.049-1.016.4-1.159.917-.006.021-.011.041-.015.062l-.167.799c-.104.501.185.999.672 1.157.295.095.614.141.976.141.129 0 .264-.006.404-.018.476-.041.934-.16 1.363-.352 1.233-.604 1.962-1.671 2.136-3.098l1.109-8.985c.037-.3-.063-.6-.272-.817-.058-.06-.124-.113-.194-.157.17-.105.304-.221.408-.319.171-.162.362-.362.5-.648.097-.203.192-.432.225-.729.024-.204.041-.524-.092-.871-.092-.239-.221-.452-.383-.635-.197-.217-.439-.373-.725-.469-.157-.054-.38-.119-.655-.119m.196 4.641-1.109 8.987c-.135 1.106-.663 1.87-1.554 2.306-.313.141-.66.236-1.038.269-.111.009-.217.014-.319.014-.248 0-.471-.029-.669-.093l.167-.799c.032-.117.131-.175.28-.187l.313-.027c.428-.037.758-.163.956-.376s.347-.553.398-.999l.958-7.763c-.165-.02-.461-.058-.906-.119-.165-.019-.23-.11-.214-.276l.084-.709 1.187-.102zm-.196-3.641c.124 0 .237.032.336.066.115.039.214.096.297.187.082.092.147.2.196.326.049.128.049.259.032.406-.017.15-.067.268-.133.405-.065.135-.166.242-.281.35-.115.109-.23.2-.362.26s-.264.105-.413.118c-.029.002-.057.003-.085.003-.114 0-.217-.02-.31-.051-.115-.039-.214-.114-.296-.205-.082-.09-.148-.183-.18-.31-.033-.129-.048-.241-.032-.391.017-.148.067-.282.132-.419.067-.137.15-.258.266-.366.114-.108.23-.183.362-.243.132-.061.264-.12.412-.134.02-.001.04-.002.059-.002" fill="#662c91"/><path d="m55.058 13.17c-.077 0-.156.003-.238.01-.358.031-.671.116-.929.252-.247.132-.463.312-.699.581-.193.219-.347.497-.486.874-.146.395-.249.814-.307 1.246-.052.391-.053.783-.002 1.197.039.315.114.537.234.7.125.172.281.291.493.378.16.066.348.098.574.098.079 0 .161-.004.247-.011.701-.06 1.21-.314 1.601-.799.423-.528.681-1.219.787-2.11.108-.909.033-1.545-.23-1.946-.132-.201-.384-.47-1.045-.47m-1.667 7.5c-.484 0-.931-.068-1.327-.202-.542-.184-.998-.494-1.358-.921-.371-.442-.621-.946-.744-1.499-.133-.602-.156-1.252-.069-1.931.084-.67.266-1.304.555-1.937.279-.612.634-1.143 1.055-1.579.425-.439.935-.8 1.517-1.073.563-.264 1.186-.427 1.85-.483.167-.015.329-.022.486-.022.486 0 .934.068 1.33.202.571.195 1.033.499 1.374.904.352.42.598.93.727 1.517.128.571.146 1.199.054 1.917-.09.706-.271 1.363-.54 1.951-.276.603-.62 1.114-1.053 1.562-.45.466-.955.831-1.501 1.088-.565.264-1.193.427-1.868.485-.167.014-.329.021-.488.021" fill="#fff"/><path d="m53.698 18.006c-.16 0-.286-.02-.383-.06-.129-.053-.21-.113-.281-.21-.067-.092-.113-.245-.141-.467-.046-.372-.046-.721.001-1.069.054-.396.148-.78.281-1.141.116-.317.241-.544.391-.715.196-.223.369-.369.563-.472s.442-.169.733-.193c.068-.006.133-.009.196-.009.466 0 .571.159.627.245.132.201.265.645.151 1.612-.095.796-.318 1.403-.682 1.857-.302.375-.688.564-1.252.613-.071.006-.139.009-.204.009m1.657-7.483c-.171 0-.347.008-.528.023-.722.062-1.402.24-2.02.529-.638.299-1.198.696-1.664 1.179-.46.476-.847 1.054-1.15 1.718-.31.678-.505 1.36-.597 2.083-.094.736-.068 1.443.077 2.1.141.634.426 1.209.85 1.713.419.499.951.86 1.579 1.074.448.151.949.229 1.489.229.172 0 .349-.008.531-.024.734-.062 1.419-.241 2.036-.53.601-.282 1.156-.683 1.648-1.193.475-.492.85-1.048 1.149-1.702.29-.635.485-1.341.581-2.096.099-.777.079-1.461-.061-2.091-.147-.663-.428-1.246-.833-1.728-.401-.476-.937-.831-1.593-1.054-.451-.153-.953-.23-1.494-.23m-1.657 8.483c.093 0 .189-.004.289-.013.824-.07 1.467-.387 1.947-.983.478-.597.777-1.374.895-2.365s.037-1.752-.308-2.279c-.304-.463-.788-.696-1.463-.696-.09 0-.184.004-.281.012-.412.035-.791.134-1.121.308-.33.177-.594.412-.841.694-.248.282-.429.625-.579 1.03-.149.405-.266.856-.333 1.352-.067.497-.051.936-.002 1.325.047.387.146.69.326.936s.41.422.707.544c.224.092.476.135.764.135m1.657-7.483c.432 0 .825.059 1.171.176.461.157.855.401 1.151.752.294.351.508.789.622 1.303.114.512.13 1.084.045 1.746-.084.659-.25 1.262-.499 1.807-.248.543-.562 1.012-.958 1.422s-.842.742-1.353.982c-.511.239-1.087.388-1.698.44-.152.013-.301.02-.445.02-.431 0-.822-.06-1.168-.176-.461-.157-.839-.419-1.134-.77-.296-.351-.526-.773-.64-1.285-.113-.514-.145-1.1-.061-1.76.084-.661.267-1.249.515-1.793.248-.545.563-1.028.959-1.439.396-.409.857-.727 1.369-.967.511-.239 1.071-.386 1.681-.438.152-.014.3-.02.443-.02" fill="#662c91"/><path d="m59.22 20.075c-.135 0-.266-.055-.36-.153-.105-.109-.155-.259-.136-.409l.829-6.654c-.102-.014-.409-.056-.409-.056-.367-.043-.701-.313-.65-.826l.085-.718c.028-.236.218-.42.454-.44l2.026-.173c.015-.002.122-.007.137-.007.215 0 .688.068.783.643.645-.628 1.379-.98 2.194-1.05.101-.009.199-.013.294-.013.414 0 .77.083 1.088.253.209.112.311.355.243.583l-.333 1.125c-.127.353-.373.563-.668.587-.014.001-.027.001-.04.001-.241 0-.405-.033-.517-.061-.027-.007-.111-.023-.268-.023-.07 0-.147.004-.228.011-.748.064-1.393.597-1.917 1.587l-.645 5.229c-.029.234-.218.417-.454.437 0 0-1.494.127-1.508.127" fill="#fff"/><path d="m64.467 9.719c-.108 0-.221.005-.336.015-.73.063-1.4.318-2.004.764-.181-.181-.475-.359-.931-.359-.054 0-.114.003-.178.008l-2.028.174c-.472.04-.852.407-.907.878l-.084.71c-.071.704.345 1.265.997 1.378l-.768 6.164c-.037.299.063.6.272.817.189.197.45.307.72.307.029 0 .057-.002.085-.004l1.466-.125c.471-.04.85-.405.907-.874l.634-5.135c.43-.779.926-1.197 1.475-1.244.066-.006.128-.009.185-.009.106 0 .154.01.154.01.14.035.359.078.579.078.029 0 .108-.004.136-.006.494-.043.899-.374 1.085-.887.007-.019.013-.038.019-.057l.333-1.125c.134-.455-.068-.941-.486-1.165-.392-.21-.825-.313-1.325-.313m0 1c.321 0 .602.06.852.194l-.333 1.125c-.049.135-.132.223-.23.231-.016.002-.033.003-.051.003-.095 0-.22-.019-.345-.05-.097-.024-.229-.038-.388-.038-.084 0-.174.004-.27.013-.956.081-1.748.738-2.36 1.934l-.656 5.318-1.466.125.891-7.152c-.511-.054-.823-.109-.923-.118-.164-.019-.213-.111-.196-.277l.084-.71 2.026-.173c.034-.003.066-.005.094-.005.236 0 .301.101.301.363l-.054 1.297c.761-1.292 1.686-1.976 2.773-2.069.086-.007.17-.011.251-.011" fill="#662c91"/><path d="m68.229 22.265c-.31 0-.579-.038-.822-.117s-.388-.327-.336-.577l.166-.799c.052-.186.208-.538.726-.584l.316-.027c.609-.052.819-.271.899-.937l.891-7.176-.364-.015c-.826-.131-.838-.713-.823-.889l.071-.609c.027-.237.217-.421.454-.441l.912-.078.051-.422c.261-2.094 1.675-3.501 3.69-3.673.127-.011.251-.017.37-.017.309 0 .591.038.838.113.239.072.389.31.35.558l-.118.729c-.087.632-.724.687-.996.71l-.263.022c-.888.077-1.339.572-1.461 1.605l-.018.166s1.829-.156 1.843-.156c.136 0 .266.055.36.154.106.109.155.26.136.41l-.135 1.057c-.03.233-.218.414-.453.434l-1.968.169-.909 7.362c-.229 1.77-1.339 2.866-3.046 3.012-.125.011-.245.016-.361.016" fill="#fff"/><path d="m74.432 5.405c-.134 0-.272.006-.414.019-2.263.193-3.851 1.767-4.143 4.107l-.003.022-.507.044c-.474.04-.854.409-.909.881l-.068.594c-.052.62.277 1.276 1.12 1.439l-.825 6.651c-.057.469-.101.472-.446.502l-.313.026c-.569.05-1.012.399-1.158.909-.007.024-.013.048-.018.072l-.166.798c-.103.5.186.998.671 1.155.294.095.614.142.976.142.13 0 .265-.006.405-.018 1.933-.165 3.24-1.452 3.498-3.443l.455-3.683.406-3.282 1.563-.134c.47-.041.847-.403.906-.87l.126-.987c.013-.063.02-.129.02-.197 0-.552-.446-1-.997-1h-.016c-.029.001-.059.002-.087.005l-1.142.098c.182-.599.55-.687.919-.719l.263-.023c1.077-.092 1.383-.676 1.449-1.149l.115-.708c.08-.495-.218-.972-.698-1.117-.295-.089-.625-.134-.982-.134m.174 4.747h.005m-.179-3.747c.252 0 .484.028.692.091l-.117.729c-.032.232-.248.266-.545.292l-.262.022c-1.12.096-1.765.773-1.915 2.044l-.085.775 2.406-.206-.135 1.057-2.372.203c-.32 2.595-.639 5.172-.959 7.765-.184 1.421-1.027 2.441-2.591 2.575-.111.009-.218.014-.32.014-.247 0-.47-.029-.667-.093l.165-.799c.034-.116.133-.174.282-.187l.313-.027c.905-.077 1.252-.532 1.353-1.375l.958-7.714-.907-.037c-.263-.043-.361-.149-.345-.347l.069-.594 1.317-.112.101-.826c.218-1.751 1.341-3.073 3.235-3.235.113-.01.223-.015.329-.015" fill="#662c91"/><path d="m75.192 18.708c-.136 0-.266-.055-.36-.153-.105-.109-.155-.259-.136-.409l.828-6.654c-.103-.013-.407-.056-.407-.056-.442-.05-.698-.382-.651-.829l.085-.715c.028-.236.217-.42.454-.44l2.025-.173c.015-.001.124-.006.139-.006.241 0 .435.072.577.214.128.128.183.284.206.428.644-.628 1.378-.979 2.192-1.049.102-.009.2-.013.296-.013.415 0 .772.083 1.088.253.207.113.309.355.241.582l-.332 1.124c-.13.356-.376.564-.669.589h-.038c-.239 0-.404-.032-.517-.06-.03-.007-.114-.023-.272-.023-.069 0-.145.003-.225.01-.75.064-1.394.597-1.918 1.587l-.644 5.229c-.028.234-.218.417-.453.437 0 0-1.495.127-1.509.127" fill="#fff"/><path d="m80.44 8.352c-.109 0-.223.005-.339.015-.73.063-1.399.319-2.003.765-.165-.165-.46-.36-.93-.36-.056 0-.116.003-.181.009l-2.026.173c-.472.04-.851.407-.907.879l-.084.709c-.071.705.345 1.265.997 1.377l-.768 6.165c-.037.3.063.6.272.817.19.197.45.307.721.307.028 0 .057-.001.085-.003l1.466-.126c.47-.04.849-.405.907-.874l.633-5.135c.429-.779.925-1.197 1.475-1.244.066-.006.127-.008.184-.008.105 0 .153.009.153.009.143.035.363.078.581.078.048 0 .093-.002.135-.006.491-.042.897-.372 1.085-.882.007-.021.015-.042.021-.063l.332-1.124c.133-.453-.068-.938-.484-1.163-.385-.209-.831-.315-1.325-.315m0 1c.32 0 .602.06.85.194l-.332 1.124c-.05.136-.132.224-.231.233-.016.001-.033.002-.051.002-.095 0-.22-.019-.345-.05-.097-.024-.23-.037-.389-.037-.083 0-.173.003-.269.012-.957.081-1.749.738-2.36 1.934l-.655 5.318-1.466.126.891-7.153c-.512-.054-.824-.109-.922-.118-.166-.018-.215-.111-.198-.277l.084-.71 2.026-.173c.034-.003.065-.005.095-.005.235 0 .3.101.299.364l-.052 1.297c.76-1.293 1.685-1.976 2.772-2.069.087-.008.172-.012.253-.012" fill="#662c91"/><path d="m85.726 10.487c-.844.072-1.586.511-2.205 1.303-.641.832-.969 1.762-.971 2.761-.002.82.181 1.125.289 1.235.057.056.147.121.345.121.47-.036.864-.325 1.26-.863.436-.584.816-1.375 1.101-2.291l.289-2.275zm-3.182 7.681c-.646 0-1.184-.211-1.6-.628-.556-.557-.848-1.458-.845-2.606.004-1.597.572-3.105 1.646-4.361 1.117-1.309 2.495-2.042 4.096-2.178.227-.02.44-.03.644-.03.594 0 1.119.085 1.608.258.222.079.359.301.329.534l-.809 6.384c.199.019.392.039.455.049.385.053.669.383.669.784l-.002.704c-.001.259-.199.474-.457.496l-2.091.18c-.015.001-.105.005-.118.005-.337 0-.544-.137-.658-.251-.15-.149-.235-.348-.256-.592-.356.374-.784.716-1.305.958-.31.153-.663.25-1.041.282-.091.008-.18.012-.265.012" fill="#fff"/><path d="m83.178 15.407c-.038-.072-.13-.303-.128-.855.002-.887.294-1.714.869-2.459.399-.511.838-.843 1.33-1.003l-.207 1.594c-.265.829-.609 1.539-.996 2.056-.303.412-.591.646-.818.665l-.043.002zm3.308-7.542c-.218 0-.447.01-.688.031-1.713.147-3.246.96-4.434 2.352-1.151 1.348-1.761 2.969-1.765 4.685-.004 1.283.339 2.306.99 2.959.506.508 1.183.776 1.955.776.1 0 .202-.005.308-.013.441-.039.856-.153 1.232-.34.328-.152.622-.34.887-.549.028.035.058.066.086.095.181.181.503.398 1.012.398.05 0 .104-.002.16-.007l.758-.065 1.333-.114c.516-.045.913-.476.915-.994l.002-.702c.001-.641-.445-1.171-1.065-1.278l.746-5.879c.06-.466-.215-.911-.658-1.068-.543-.193-1.124-.287-1.774-.287m-3.301 8.542c.041 0 .084-.002.128-.006.675-.057 1.187-.59 1.534-1.062.496-.663.894-1.531 1.176-2.438l.368-2.842c-.098-.076-.209-.103-.312-.103-.016 0-.033.001-.049.003l-.347.03c-1.168.1-1.994.774-2.556 1.493-.595.771-1.074 1.792-1.077 3.068-.003 1.239.379 1.857 1.135 1.857m3.301-7.542c.538 0 1.002.074 1.44.229l-.874 6.891c.049.011.807.078.939.098.148.021.246.142.246.29l-.002.703-1.334.114-.757.065c-.027.003-.052.004-.075.004-.293 0-.42-.166-.419-.468l.153-1.664c-.514.943-1.174 1.832-2.164 2.293-.279.138-.576.213-.873.238-.076.007-.15.01-.222.01-1.4 0-1.949-1.224-1.945-2.733.004-1.7.682-3.049 1.525-4.037.842-.988 2.063-1.861 3.76-2.006.211-.018.411-.027.602-.027" fill="#662c91"/><path d="m93.054 9.826c-.205.018-.385.075-.566.181-.167.097-.313.228-.423.382-.116.163-.209.355-.275.571-.066.211-.096.421-.096.664-.001.238.037.559.221.752.069.067.184.145.447.145.044 0 .089-.002.136-.006.216-.019.4-.079.563-.184.188-.123.33-.258.43-.412.128-.195.222-.393.289-.606.074-.24.11-.453.111-.65.001-.33-.069-.576-.196-.691-.113-.103-.276-.152-.499-.152-.046 0-.093.002-.142.006m.166 6.719c-.286.007-.506.012-.711.029-.437.038-.782.1-1.054.19-.312.105-.54.209-.695.318-.162.112-.269.219-.323.321-.061.106-.092.219-.092.319-.001.211.063.325.236.421.17.096.427.144.763.144.115 0 .237-.006.365-.017.31-.026.591-.091.839-.194.296-.124.495-.235.646-.363.174-.149.293-.29.372-.445.074-.142.111-.294.111-.457.001-.123.001-.196-.014-.261-.101-.004-.2-.007-.297-.007zm-2.136 3.772c-.293 0-.578-.022-.846-.065-.457-.074-.839-.198-1.167-.38-.369-.205-.639-.46-.829-.781-.195-.307-.298-.671-.298-1.068.001-.534.149-1.015.44-1.429.275-.394.624-.725 1.035-.981.402-.253.852-.451 1.376-.605.529-.153 1.015-.244 1.533-.287.184-.017.37-.02.554-.02-.004-.054-.006-.107-.006-.161 0-.063.004-.129.011-.198-.211.057-.439.096-.7.118-.082.008-.164.011-.244.011-.267 0-.542-.038-.82-.113-.319-.084-.61-.241-.913-.494-.28-.233-.496-.541-.639-.914-.145-.379-.213-.781-.211-1.229 0-.463.082-.902.25-1.34.182-.478.418-.877.719-1.219.328-.371.725-.68 1.183-.92.484-.251 1.029-.405 1.622-.455.118-.01.233-.015.345-.015.492 0 .95.099 1.361.294 0 0 2.161-.184 2.175-.184.137 0 .268.056.362.155.105.111.154.262.133.413l-.067.494c-.034.204-.102.332-.162.437-.114.198-.305.341-.538.401l-.553.143c.037.182.036.374.035.561 0 .322-.041.622-.122.889-.072.237-.147.482-.268.711-.108.206-.217.41-.343.597-.064.098-.119.199-.174.301l-.104.186c-.074.127-.124.262-.173.388-.069.177-.091.312-.091.453-.001.143.024.252.075.326.099.148.211.304.323.463.183.254.302.476.42.7.173.333.245.672.245 1.084-.001.481-.106.92-.32 1.344-.214.418-.514.798-.893 1.131-.394.347-.868.634-1.368.831-.529.209-1.142.348-1.772.401-.199.017-.391.026-.576.026" fill="#fff"/><path d="m90.848 17.718c.002-.023.007-.038.013-.048.017-.033.049-.084.181-.176.118-.081.309-.167.573-.255.23-.077.545-.133.937-.166.178-.015.366-.02.566-.025-.052.095-.131.186-.249.287-.106.088-.268.177-.512.279-.203.084-.429.136-.69.159-.114.009-.22.014-.322.014-.296 0-.439-.044-.497-.069m1.514-5.696c-.078 0-.107-.011-.107-.011-.01-.012-.062-.134-.061-.383 0-.195.023-.359.072-.516.053-.171.12-.311.207-.433.067-.094.158-.177.261-.235.125-.074.231-.108.363-.119.033-.003.066-.005.099-.005.121 0 .165.023.165.023-.006.002.03.108.03.321-.001.145-.03.31-.09.503-.052.169-.124.321-.227.478-.062.094-.157.182-.289.269-.089.057-.198.092-.331.103-.031.003-.062.005-.092.005m1.116-4.75c-.125 0-.253.006-.386.017-.659.056-1.267.227-1.808.509-.515.27-.961.617-1.33 1.034-.34.386-.607.836-.812 1.372-.189.492-.281.989-.282 1.518-.002.51.078.97.244 1.405.173.455.438.833.788 1.123.172.143.342.26.516.356-.468.155-.879.348-1.256.585-.465.29-.863.666-1.178 1.118-.351.498-.529 1.075-.53 1.712 0 .494.129.949.384 1.352.217.368.559.692.999.936.38.21.815.353 1.33.436.295.048.608.072.928.072.199 0 .405-.009.619-.027.677-.058 1.338-.208 1.912-.434.554-.219 1.078-.537 1.514-.921.426-.374.765-.804 1.007-1.278.249-.491.375-1.018.376-1.571.001-.488-.093-.915-.276-1.268-.138-.261-.271-.514-.437-.745l-.045-.063c-.106-.149-.212-.298-.305-.438.002 0 0-.021 0-.055 0-.096.014-.167.028-.201l.029-.074c.047-.122.092-.238.139-.32l.109-.195c.049-.091.098-.182.158-.273.138-.205.252-.419.367-.638.14-.267.225-.547.3-.793.096-.314.144-.662.145-1.035.001-.06.001-.121 0-.185l.144-.037c.362-.092.664-.319.846-.637.083-.144.175-.328.219-.585l.072-.528c.04-.3-.057-.603-.267-.823-.19-.199-.452-.31-.724-.31-.028 0-.057.001-.086.003l-2.002.171c-.445-.189-.931-.285-1.449-.285m-2.133 11.515c.128 0 .264-.006.407-.018.364-.031.692-.108.989-.232.296-.123.561-.26.776-.442.214-.182.38-.375.494-.598.116-.222.166-.456.166-.685.001-.146.001-.261-.03-.388-.033-.113-.067-.24-.114-.35-.241-.02-.457-.03-.671-.03-.052 0-.103 0-.154.002-.262.006-.51.011-.741.03-.445.038-.84.104-1.17.215s-.609.231-.824.382c-.215.149-.38.31-.479.497-.099.173-.149.373-.149.552-.001.393.163.674.491.858.252.14.591.207 1.009.207m1.017-5.765c.057 0 .117-.003.179-.008.295-.026.56-.113.791-.263.232-.151.429-.331.578-.557.148-.226.264-.464.347-.732.083-.27.133-.535.134-.796.001-.474-.114-.841-.36-1.064-.209-.191-.492-.282-.835-.282-.06 0-.121.003-.185.008-.297.026-.545.113-.775.248-.231.133-.428.314-.577.523-.15.208-.265.447-.347.715-.084.268-.118.533-.118.811-.002.491.129.855.36 1.097.21.206.469.3.808.3m1.116-4.75c.48 0 .894.105 1.264.305l2.273-.194-.067.494c-.017.1-.05.168-.1.254-.05.087-.132.142-.229.167l-1.041.269c.049.143.082.272.116.432.033.144.032.307.031.486 0 .278-.034.526-.101.746-.066.217-.132.435-.231.623-.1.19-.199.378-.316.55-.114.174-.197.344-.296.517-.1.172-.166.357-.233.526-.066.169-.098.367-.098.564-.001.229.046.438.161.607.115.171.247.355.378.54.132.184.246.404.361.623.114.219.163.492.163.804-.001.391-.085.758-.267 1.117-.182.358-.446.692-.776.982-.329.289-.742.553-1.222.742-.476.188-1.037.317-1.629.367-.185.016-.363.024-.534.024-.271 0-.526-.019-.768-.058-.395-.064-.724-.169-1.004-.324-.279-.155-.493-.349-.64-.597-.148-.234-.229-.506-.229-.815.001-.427.117-.81.349-1.141.231-.331.528-.618.891-.845.362-.228.775-.409 1.252-.549.479-.138.94-.227 1.434-.269.198-.017.396-.018.592-.019.199 0 .38.001.578.016-.049-.093-.082-.205-.115-.316-.032-.112-.05-.225-.049-.356 0-.163.034-.347.084-.53.049-.183.15-.389.265-.628-.215.166-.444.284-.708.388-.265.104-.545.16-.873.189-.067.005-.134.008-.199.008-.242 0-.472-.036-.691-.095-.281-.075-.51-.218-.723-.396-.214-.177-.378-.409-.494-.709-.114-.301-.179-.638-.177-1.047 0-.393.067-.775.217-1.163.148-.389.347-.75.627-1.068.282-.317.627-.591 1.04-.808.413-.214.89-.353 1.433-.4.104-.008.204-.013.301-.013" fill="#662c91"/><path d="m101.944 9.099c-.845.072-1.587.511-2.204 1.303-.643.831-.971 1.761-.973 2.761-.002.82.181 1.125.29 1.234.057.057.148.122.347.123.468-.037.862-.327 1.259-.864.434-.584.814-1.375 1.099-2.291l.289-2.275zm-3.18 7.682c-.647 0-1.185-.212-1.602-.629-.556-.556-.848-1.457-.846-2.606.005-1.595.573-3.103 1.645-4.36 1.118-1.309 2.497-2.042 4.097-2.179.227-.019.442-.029.646-.029.594 0 1.119.084 1.606.257.222.079.359.301.329.534l-.808 6.384c.199.019.391.039.454.049.385.053.669.383.669.784l-.002.704c-.001.26-.199.475-.457.497l-2.091.179c-.015.002-.104.005-.117.005-.337 0-.544-.136-.657-.251-.15-.149-.236-.348-.256-.593-.356.375-.785.717-1.306.959-.312.154-.665.251-1.04.283-.091.008-.179.012-.264.012" fill="#fff"/><path d="m99.396 14.019c-.038-.071-.13-.302-.129-.854.002-.888.295-1.715.869-2.459.4-.511.838-.844 1.33-1.004l-.206 1.594c-.265.829-.609 1.539-.997 2.057-.302.411-.591.645-.817.664l-.042.002zm3.308-7.542c-.218 0-.447.011-.688.031-1.714.147-3.247.96-4.435 2.353-1.15 1.347-1.76 2.967-1.765 4.683-.002 1.284.341 2.308.992 2.961.506.507 1.183.775 1.955.775.1 0 .201-.004.307-.013.439-.038.853-.152 1.23-.339.328-.153.623-.341.888-.55.029.035.059.067.087.095.181.182.503.398 1.011.398.05 0 .104-.002.16-.007l.758-.065 1.333-.114c.516-.044.913-.476.915-.994l.002-.702c.001-.641-.444-1.17-1.064-1.277l.745-5.88c.06-.467-.215-.912-.657-1.069-.543-.192-1.124-.286-1.774-.286m-3.3 8.542c.041 0 .084-.001.128-.005.675-.058 1.186-.592 1.533-1.062.495-.664.893-1.532 1.175-2.439l.368-2.842c-.097-.075-.208-.102-.31-.102-.016 0-.034 0-.05.002l-.347.03c-1.169.1-1.995.774-2.556 1.493-.595.771-1.075 1.792-1.078 3.068-.003 1.239.381 1.857 1.137 1.857m3.3-7.542c.537 0 1.002.074 1.439.229l-.873 6.891c.049.011.806.078.938.098.149.021.246.142.246.291l-.002.702-1.333.115-.758.065c-.027.002-.052.003-.075.003-.292 0-.418-.166-.417-.468l.151-1.664c-.514.943-1.173 1.833-2.164 2.293-.279.138-.576.213-.871.238-.076.007-.151.01-.222.01-1.4 0-1.95-1.224-1.947-2.733.005-1.701.684-3.049 1.525-4.037.843-.987 2.064-1.86 3.76-2.005.211-.018.411-.028.603-.028" fill="#662c91"/><path d="m105.653 16.102c-.136 0-.266-.055-.36-.153-.105-.109-.155-.259-.136-.409l.828-6.666-.408-.044c-.368-.042-.703-.317-.651-.842l.086-.719c.028-.235.218-.418.454-.438 0 0 2.066-.177 2.069-.177.458 0 .759.226.862.583.775-.59 1.586-.925 2.422-.996.122-.011.24-.015.354-.015.825 0 1.503.273 1.962.792.548.619.762 1.558.621 2.715l-.457 3.632c.099.014.399.056.399.056.455.053.718.383.673.825l-.085.719c-.028.236-.217.419-.453.439 0 0-2.698.23-2.711.23-.136 0-.266-.055-.361-.154-.104-.108-.154-.258-.135-.408l.671-5.32c.066-.533.011-.917-.16-1.11-.044-.05-.178-.203-.622-.203-.06 0-.124.003-.189.009-.641.054-1.282.413-1.959 1.094l-.751 5.997c-.029.234-.219.416-.453.436 0 0-1.496.127-1.51.127" fill="#fff"/><path d="m111.174 5.725c-.128 0-.26.006-.396.018-.77.065-1.517.327-2.232.781-.236-.237-.561-.374-.932-.374-.028 0-.104.003-.132.006l-2.058.175c-.473.041-.852.408-.908.878l-.085.71c-.072.714.344 1.28.996 1.394l-.766 6.165c-.037.3.063.6.272.817.189.197.45.306.72.306.029 0 .057-.001.085-.003l1.467-.125c.471-.041.849-.404.907-.873l.729-5.823c.539-.511 1.052-.791 1.527-.831.051-.005.1-.007.148-.007.189 0 .252.038.253.038.022.032.092.243.032.713l-.671 5.319c-.037.299.063.6.272.818.189.196.45.307.72.307.029 0 .057-.001.086-.004l2.668-.228c.473-.041.852-.408.907-.879l.084-.71c.072-.702-.351-1.261-1.011-1.376l.396-3.14c.202-1.651-.292-2.603-.741-3.111-.388-.439-1.108-.961-2.337-.961m0 1c1.594 0 2.307 1.145 2.086 2.947l-.521 4.13c.526.053.823.11.922.117.165.019.23.111.213.277l-.084.71-2.668.228.671-5.32c.156-1.246-.273-1.875-1.277-1.875-.075 0-.153.003-.233.01-.807.069-1.599.529-2.391 1.365l-.772 6.162-1.467.125.891-7.169c-.512-.054-.823-.092-.923-.101-.164-.019-.214-.127-.197-.293l.085-.71 2.059-.176c.016-.002.032-.002.046-.002.185 0 .286.102.316.281l-.003.899c.924-.96 1.898-1.502 2.935-1.591.108-.009.211-.014.312-.014" fill="#662c91"/><path d="m117.346 15.202c-1.048 0-1.888-.375-2.495-1.115-.697-.824-.961-1.99-.777-3.461.186-1.426.684-2.555 1.522-3.454.898-.966 2.039-1.514 3.39-1.63.11-.009.223-.014.34-.014.655 0 1.417.148 2.268.438.225.077.364.302.334.538l-.285 2.183c-.031.233-.22.413-.454.433 0 0-.664.056-.668.056-.458 0-.733-.256-.778-.649-.018-.061-.011-.193.006-.511 0 0 .014-.267.016-.301-.029-.003-.055-.005-.078-.006-.129-.008-.236-.012-.34-.012-.178 0-.355.009-.524.024-.216.019-.487.105-.761.242-.261.132-.485.311-.681.548-.444.537-.711 1.227-.816 2.108-.1.853 0 1.525.289 1.946.226.318.548.47 1.008.47.064 0 .13-.003.199-.009.592-.051 1.13-.291 1.647-.734.158-.125.353-.255.613-.277.004 0 .009-.001.014-.001.365 0 .595.14.719.379l.314.459c.128.188.112.439-.039.61-.893 1.016-2.098 1.595-3.579 1.722-.138.012-.273.018-.404.018" fill="#fff"/><path d="m119.327 5.028c-.133 0-.261.005-.384.016-1.479.127-2.728.728-3.714 1.788-.911.978-1.451 2.197-1.651 3.727-.203 1.62.099 2.916.897 3.857.685.837 1.681 1.285 2.871 1.285.144 0 .294-.006.447-.019 1.613-.138 2.93-.774 3.912-1.89.301-.342.332-.844.077-1.221l-.325-.481c-.221-.364-.609-.579-1.051-.579-.028 0-.101.003-.13.005-.396.035-.681.227-.861.369-.468.4-.914.601-1.397.643-.053.004-.105.006-.156.006-.385 0-.514-.137-.605-.265-.207-.303-.281-.872-.196-1.592.094-.782.325-1.387.706-1.848.151-.182.322-.32.521-.42.214-.108.425-.177.576-.19.122-.01.247-.018.375-.021-.009.186-.008.31.014.434.092.62.577 1.047 1.197 1.047.029 0 .097-.003.125-.005l.656-.056c.469-.04.846-.401.908-.867l.284-2.182c.061-.472-.218-.922-.668-1.076-.903-.309-1.72-.465-2.428-.465m0 1c.589 0 1.293.134 2.104.411l-.285 2.183-.658.055c-.014.002-.026.002-.038.002-.138 0-.195-.075-.21-.209-.016-.064.001-.277.019-.622.017-.345.017-.525.017-.541-.247-.06-.427-.094-.577-.098-.117-.009-.235-.012-.351-.012-.194 0-.384.01-.569.026-.298.025-.627.135-.941.292-.313.158-.594.377-.842.677-.494.598-.81 1.376-.928 2.368-.116.99.013 1.763.373 2.288.323.453.788.686 1.421.686.078 0 .158-.003.241-.01.692-.059 1.336-.344 1.93-.853.115-.091.214-.148.329-.158.016-.002.03-.002.044-.002.093 0 .16.03.202.111l.346.51c-.81.92-1.897 1.438-3.247 1.554-.124.01-.244.015-.361.015-.897 0-1.6-.311-2.109-.932-.607-.717-.835-1.743-.668-3.081.169-1.29.615-2.341 1.393-3.175.808-.87 1.831-1.367 3.066-1.473.096-.008.195-.012.299-.012" fill="#662c91"/><path d="m124.055 4.686c-.155 0-.302-.025-.461-.081-.198-.067-.385-.188-.521-.339-.136-.152-.236-.326-.289-.503-.054-.182-.071-.377-.051-.582.025-.202.083-.385.181-.59.101-.206.224-.373.376-.515.145-.135.306-.244.492-.329.204-.094.387-.145.579-.162.014-.001.116-.005.13-.005.159 0 .317.026.468.077.205.07.37.175.506.323.129.149.226.308.293.483.095.241.083.472.062.646-.026.231-.106.412-.179.563-.107.221-.259.377-.394.501-.112.107-.277.249-.494.347-.128.059-.328.14-.575.161-.015.001-.108.005-.123.005m-1.904 10.005c-.136 0-.266-.055-.361-.154-.104-.109-.154-.259-.135-.409l.842-6.666c-.185-.019-.365-.039-.43-.048-.418-.057-.689-.405-.642-.827l.085-.713c.027-.235.217-.419.453-.439 0 0 2.698-.23 2.712-.23.136 0 .266.055.36.153.105.109.155.26.136.41l-.842 6.648c.186.02.367.041.43.049.415.057.691.421.64.846l-.081.708c-.028.236-.218.421-.454.441 0 0-2.699.231-2.713.231" fill="#fff"/><path d="m124.675 6.704h.005zm-.186-5.625c-.056 0-.114.002-.173.008-.245.02-.489.087-.743.204-.235.108-.44.246-.627.423-.194.179-.351.394-.479.653-.127.264-.199.497-.229.74-.03.289-.006.551.067.797.074.25.212.49.395.695.082.091.177.174.28.247l-1.059.09c-.473.04-.852.408-.908.879l-.084.71c-.073.679.357 1.255 1.01 1.374l-.628 4.959-.153 1.207c-.037.3.063.6.272.818.189.197.45.307.721.307.028 0 .056-.001.086-.004l2.669-.228c.474-.041.854-.409.909-.882l.081-.709c.078-.669-.362-1.267-1.008-1.388l.779-6.149c.038-.3-.061-.601-.27-.818-.062-.064-.13-.118-.203-.163.17-.107.305-.227.402-.317.15-.139.35-.345.494-.641.099-.204.193-.43.228-.727.024-.212.041-.536-.094-.884-.09-.23-.217-.44-.377-.623-.206-.224-.446-.379-.729-.474-.201-.069-.414-.104-.629-.104m.186 4.625-.906 7.155s.774.08.921.101c.148.02.23.143.213.292l-.082.709-2.67.229.152-1.206.755-5.966s-.774-.08-.923-.1c-.148-.02-.23-.126-.213-.276l.084-.709zm-.186-3.625c.115 0 .218.02.31.051.115.039.214.096.297.187.08.092.147.2.196.326.05.128.049.259.031.407-.016.149-.066.267-.132.404-.066.136-.164.243-.282.35-.114.108-.229.2-.362.26-.133.061-.264.105-.412.118-.027.002-.054.003-.079.003-.111 0-.206-.021-.299-.053-.115-.039-.231-.111-.313-.202s-.148-.2-.181-.311c-.033-.112-.047-.241-.032-.39.018-.148.067-.283.133-.421.067-.135.149-.257.266-.365.114-.108.231-.183.361-.243.132-.061.264-.104.413-.117.029-.003.058-.004.085-.004" fill="#662c91"/><path d="m130.709 6.637c-.844.072-1.585.511-2.203 1.303-.644.834-.972 1.764-.974 2.762-.002.818.181 1.124.29 1.233.057.057.148.122.347.123.473-.037.856-.319 1.26-.865.435-.584.815-1.375 1.099-2.29l.289-2.275zm-3.18 7.682c-.646 0-1.185-.212-1.601-.629-.556-.557-.848-1.458-.845-2.606.004-1.596.572-3.104 1.645-4.361 1.099-1.289 2.516-2.043 4.096-2.178.227-.02.441-.03.644-.03.595 0 1.121.085 1.609.258.221.079.358.302.328.534l-.809 6.384c.199.02.392.039.456.049.385.053.669.384.669.784l-.002.704c-.001.259-.199.475-.457.497l-2.093.179c-.014.001-.104.005-.117.005-.337 0-.544-.136-.657-.251-.15-.149-.235-.348-.256-.591-.356.374-.785.715-1.305.957-.309.154-.663.251-1.041.283-.091.008-.179.012-.264.012" fill="#fff"/><path d="m128.161 11.558c-.038-.071-.131-.301-.129-.854.002-.886.295-1.713.871-2.46.399-.511.837-.843 1.33-1.003l-.208 1.594c-.264.828-.608 1.538-.996 2.058-.302.41-.591.644-.817.663l-.043.002zm3.308-7.542c-.218 0-.447.011-.688.031-1.713.147-3.246.96-4.434 2.352-1.151 1.349-1.76 2.97-1.764 4.685-.004 1.283.339 2.306.99 2.959.506.508 1.183.776 1.955.776.1 0 .202-.004.308-.013.439-.038.854-.152 1.233-.34.327-.152.621-.34.886-.549.028.035.058.067.086.095.181.181.503.398 1.011.398.05 0 .104-.002.16-.007l.758-.065 1.334-.114c.516-.044.913-.475.915-.993l.002-.703c.001-.641-.446-1.171-1.066-1.277l.746-5.88c.059-.466-.214-.91-.657-1.068-.542-.193-1.123-.287-1.775-.287m-3.3 8.542c.041 0 .084-.002.128-.005.675-.058 1.186-.591 1.534-1.062.495-.664.893-1.532 1.175-2.439l.369-2.842c-.099-.075-.209-.102-.311-.102-.017 0-.034.001-.05.002l-.347.03c-1.17.1-1.995.775-2.556 1.493-.595.771-1.076 1.792-1.079 3.069-.003 1.238.381 1.856 1.137 1.856m3.3-7.542c.538 0 1.004.074 1.44.229l-.874 6.891c.05.011.807.078.94.099.148.02.246.142.246.29l-.002.702-1.334.115-.758.064c-.027.003-.052.004-.075.004-.292 0-.419-.166-.418-.468l.153-1.664c-.514.944-1.174 1.833-2.164 2.293-.279.139-.576.213-.873.238-.076.007-.15.01-.222.01-1.4 0-1.949-1.224-1.945-2.733.004-1.7.682-3.049 1.524-4.037.843-.988 2.064-1.86 3.76-2.006.211-.018.411-.027.602-.027" fill="#662c91"/><path d="m134.937 9.51c-.125 0-.246-.047-.339-.132-.103-.096-.162-.229-.161-.37.001-.148.019-.688.019-.802.001-.257.018-.517.036-.758l.05-.705c.02-.243.052-.501.088-.758l.588-4.719c.03-.234.218-.416.453-.436 0 0 1.414-.121 1.428-.121.136 0 .266.055.36.154.105.108.155.258.136.408l-.623 4.971-.069.495c-.034.24-.086.501-.138.744l-.149.727c-.044.218-.101.463-.158.712l-.028.117c-.049.212-.228.368-.445.386 0 0-1.034.087-1.048.087m-.142 4.227c-.16 0-.319-.027-.472-.078-.206-.071-.369-.176-.504-.322-.136-.15-.225-.315-.28-.524-.053-.216-.067-.4-.045-.59.023-.193.08-.377.18-.583.093-.194.211-.324.316-.438.156-.167.34-.298.534-.388.207-.095.391-.146.58-.162.015-.001.112-.005.127-.005.159 0 .317.026.471.078.191.066.361.181.506.343.098.108.233.257.295.508.052.205.066.392.042.585-.02.188-.078.374-.179.582-.094.193-.226.338-.332.455-.15.158-.319.273-.536.373-.206.093-.388.144-.577.16-.014.002-.111.006-.126.006" fill="#fff"/><path d="m135.232 10.146c-.056 0-.113.002-.172.007-.246.021-.482.086-.741.204-.255.118-.495.29-.679.487-.132.142-.289.315-.417.578-.125.258-.197.494-.225.742-.03.252-.012.493.053.76.079.301.208.54.397.746.188.208.427.363.708.459.211.072.424.107.639.107.053 0 .11-.003.166-.007.25-.021.486-.086.745-.205.276-.125.498-.278.675-.466.142-.156.31-.339.437-.603.124-.253.196-.49.226-.738.029-.255.01-.507-.058-.77-.089-.364-.288-.584-.406-.716-.203-.225-.445-.387-.715-.48-.206-.07-.419-.105-.633-.105m1.867-7.937h.005zm0-2.001c-.028 0-.057.002-.086.004l-1.384.119c-.47.04-.848.404-.907.873l-.589 4.725c-.035.254-.069.522-.088.77l-.016.218-.035.493c-.02.253-.037.525-.038.795 0 .108-.004.224-.008.343-.005.15-.01.305-.011.459 0 .281.117.548.323.738.186.171.428.264.677.264.028 0 .057-.001.085-.003l1.006-.086c.433-.037.792-.349.89-.772l.032-.137c.056-.246.112-.489.156-.706l.024-.123c.041-.203.081-.404.123-.594.055-.257.109-.529.146-.783.024-.164.048-.34.072-.518l.03-.218.59-4.736c.037-.3-.062-.601-.272-.818-.189-.197-.449-.307-.72-.307m-1.867 10.938c.114 0 .217.02.31.052.115.039.212.112.294.203.083.092.15.167.182.296.032.127.049.257.031.405-.016.149-.065.283-.132.42-.066.136-.166.243-.264.35-.1.106-.231.183-.362.243-.133.06-.265.105-.413.117-.029.003-.056.004-.083.004-.116 0-.219-.02-.313-.052-.114-.039-.213-.097-.296-.187-.083-.091-.13-.185-.164-.313-.031-.128-.048-.257-.031-.406s.066-.283.133-.42c.065-.136.148-.224.247-.332.099-.107.232-.199.363-.259.132-.06.265-.105.413-.118.029-.002.058-.003.085-.003m1.867-9.938-.59 4.726c-.034.248-.065.496-.1.728-.033.232-.084.482-.133.713-.051.233-.1.482-.15.732-.05.249-.118.534-.183.817l-1.006.085c.001-.277.018-.556.019-.801.001-.246.017-.493.035-.722.017-.23.034-.477.051-.707.017-.231.049-.479.084-.727l.588-4.725z" fill="#662c91"/></g></svg>