<svg clip-rule="evenodd" fill-rule="evenodd" stroke-linejoin="round" stroke-miterlimit="2" viewBox="0 0 156 137" xmlns="http://www.w3.org/2000/svg" xmlns:xlink="http://www.w3.org/1999/xlink"><linearGradient id="a" gradientTransform="matrix(0 -130.601 130.601 0 77.9212 130.614)" gradientUnits="userSpaceOnUse" x1="0" x2="1" y1="0" y2="0"><stop offset="0" stop-color="#fff"/><stop offset="1" stop-color="#24aae1"/></linearGradient><radialGradient id="b" cx="0" cy="0" gradientTransform="matrix(27.139 -6.01197 6.22587 9.72393 82.5334 46.5751)" gradientUnits="userSpaceOnUse" r="1"><stop offset="0" stop-color="#fff200"/><stop offset=".5" stop-color="#fff200"/><stop offset="1" stop-color="#fff"/></radialGradient><radialGradient id="c" cx="83.6168" cy="50.2822" gradientUnits="userSpaceOnUse" r="19.4081"><stop offset="0" stop-color="#fff"/><stop offset="1" stop-color="#ffd540"/></radialGradient><clipPath id="d"><path clip-rule="nonzero" d="m.114.095h155.868v130.395h-155.868z"/></clipPath><path d="m.114.096v130.394h9.341c.918-10.125 4.959-19.293 10.772-27.448-4.393-7.205-10.903-14.159-12.451-22.78-.306-1.702-.255-3.212.078-4.55-.036-.109 0-.194.069-.247 1.589-5.701 8.364-8.187 14.25-9.05.061-.009.114-.001.167.009 1.143-2.236.803-4.385 2.302-6.932.164-.279.344-.539.532-.79-3.131-4.183-.176-8.494 3.747-10.981 6.043-3.832 13.555-5.942 20.644-4.306.17.038.267.136.314.253 3.892-1.18 7.543-1.095 9.506 1.173.649.045 1.298.138 1.941.281 3.472-.866 6.95-.57 8.37 2.706.005.013.003.025.009.038.417.153.831.353 1.238.601 3.073-.961 5.918-.604 7.408 2.412 1.583.395 3.123.927 4.612 1.584 1.418-2.84 2.922-7.353 6.221-8.537 1.172-.421 2.262-.372 3.366.196.64.327 1.096.85 1.655 1.287 1.809 1.411 3.236 1.744 5.403 2.015.017.003.027.018.043.024 2.257-4.41 10.362-3.273 14.283-2.417 6.605 1.445 11.423 5.281 13.929 11.708.031.078.036.149.028.213 2.819 2.141 4.374 4.675 2.435 7.374.115.324.21.656.293.993 2.055 2.307 2.827 4.937 1.2 7.744-.101.172-.283.216-.449.179.035.559.035 1.136-.028 1.742-.015.152-.102.252-.208.309.369.892.636 1.845.771 2.871.003.03-.006.053-.007.083.242.023.469.184.472.497.043 4.461-.213 12.087-3.912 15.335 2.169 2.341 4.197 4.828 6.059 7.454 5.821 8.218 11.112 18.591 12.714 28.957h8.752v-130.394h-155.869z" fill="url(#a)" fill-rule="nonzero"/><g clip-path="url(#d)"><path d="m74.992 24.844c-.165 7.135-8.521 3.954-10.741 3.563-2.221-.391-2.614-1.045-1.698 3.789.912 4.834-2.614 6.139-7.71 6.793-5.095.653-2.918 2.488-.913 4.573 16.33 16.984 52.257 8.493 51.358 6.13-.9-2.361 2.86-6 4.559-7.045 1.696-1.046 1.045-1.568-3.398-2.351-4.441-.784-1.698-3.789 1.046-6.925 2.743-3.136-1.96-1.175-7.577-.261-5.619.914-5.227-4.442-5.881-7.447-.652-3.005-2.351-.784-5.617 1.829s-8.237-1.53-9.612-3.974c-1.244-2.213-2.096-3.14-2.673-3.14-.809 0-1.081 1.817-1.143 4.466z" fill="url(#b)" fill-rule="nonzero"/><path d="m64.209 50.282c0 10.712 8.696 19.408 19.408 19.408 10.711 0 19.408-8.696 19.408-19.408s-8.697-19.408-19.408-19.408c-10.712 0-19.408 8.696-19.408 19.408z" fill="url(#c)"/><g fill-rule="nonzero"><path d="m10.361 130.55c1.433-11.891 6.913-23.173 14.73-32.334-.779 3.646 4.839 2.438 6.979 1.525 2.173-.926 4.81-1.438 7.146-1.653.675-.061 2.58-.382 3.023.226.788 1.076-1.975 2.96-2.785 3.564-.011.007-.022.007-.032.015-.133.098-.266.197-.399.297-.227.169-.284.447-.087.67 2.018 2.263 4.948 2.476 7.724 3.205.889.233 1.843.46 2.64.937 1.388.83 1.288 1.447 2.022 2.728.619 1.079 1.689 1.463 2.852 1.805.038.012.071.007.106.009 2.706.432 5.341-.368 8.043-.336.626.008 1.379-.051 1.517.651.188.944-1.243 1.598-1.889 1.963-1.04.587-1.892 1.111-2.296 2.237-.031.046-.057.099-.069.167-.008.04-.004.075-.004.112-.007.128.04.233.122.309.053.053.116.102.198.135 1.67.688 4.513 1.641 3.618 3.872-.406 1.013-1.276 1.787-1.636 2.841-1.05 3.077 1.769 5.425 4.19 7.055h-55.713z" fill="#374e9b"/><path d="m11.745 74.42c3.65-1.465 9.09-3.281 11.463-6.599 1.012-1.414 1.102-3.022 1.477-4.669 1.243-5.468 5.59-7.371 10.679-7.781-.209.686-.307 1.359-.257 2.007-.064-.018-.133-.027-.211-.012-3.851.705-6.07 3.42-7.683 6.853-1.28 2.722-2.044 5.605-3.938 7.988-1.274 1.604-2.963 3.191-4.878 4.022-2.124.921-7.445 2.438-9.442.061.178-.97.525-1.963 1.11-2.995 2.347-4.146 7.401-5.146 11.737-5.903-.366.495-.814.996-1.403 1.511-2.415 2.114-6.089 3.5-8.982 4.738-.44.187-.121.96.328.779" fill="#f7931d"/><path d="m128.108 93.523c-7.448-7.887-16.608-13.959-27.102-17.263-.161-1.688-.582-3.375-1.03-4.858-.216-.713-.465-1.414-.734-2.107.056-.052.104-.119.124-.219.517-2.659 1.304-5.889-.531-8.203-1-1.261-2.419-1.906-3.85-2.566-.962-.444-2.634-.958-3.383-1.84-.985-1.16-.81-2.867-.846-4.263 4.084.033 9.341-1.078 10.912-.052-.448 1.338 1.482 2.122 3.36 2.343.018.079.061.152.165.184.408.13.6.753.793 1.09.228.397.442.816.713 1.185-1.51.936-1.965 2.76.332 4.154.173.105.385.186.613.254 1.038 1.374 1.25 3.448 1.726 5.058-.315.405-.459.922-.294 1.559.177.68.762 1.137 1.424 1.305.008.028.006.056.028.084 1.766 2.208 2.604 4.623 4.868 6.429 1.914 1.528 4.171 2.548 6.51 3.227 2.39.695 7.61 2.432 9.521-.088.045 4.375-.195 11.15-3.319 14.587" fill="#f15a29"/><path d="m63.782 78.136c-.006-.009-.005-.017-.012-.025-1.766-2.513-1.7-6.012-4.114-8.112-2.058-1.789-4.962-1.892-7.507-1.526-4.222.607-8.658 1.966-12.513 3.778-2.186 1.028-4.268 2.272-6.297 3.576-2.495 1.607-13.113 10.122-14.527 1.275-.014-.095-.06-.156-.115-.199.314-.145.609-.29.861-.438 2.797-1.631 4.805-3.696 6.278-6.578 2.394-4.683 3.269-10.407 9.291-11.686.045-.009.077-.03.112-.048.147.557.403 1.093.798 1.596.114.145.251.181.382.159 2.379.16 3.852-.8 5.077-2.281.04.028.078.059.142.058 1.318-.008 2.64.214 3.932.471-.042.852.357 1.578 1.421 2.069.036.016.069.016.105.025.053.022.106.044.171.05 1.533.129 2.932-.402 4.217-1.217 2.301.715 4.879 1.336 7.307 1.494.305.723 1.07 1.158 2.473.992.753-.089 1.35-.289 1.871-.559.034.021.071.039.12.048 7.952 1.47 15.254-1.268 21.118-6.634 3.554 1.868 6.71 4.395 9.341 7.685 2.21 2.764 5.11 7.693 5.979 12.304-.001.01-.007.018-.008.029-.626 10.555-21.265 6.963-27.457 5.561-2.816-.637-5.624-1.343-8.446-1.867" fill="#f15a29"/><path d="m43.017 55.43c.031.007.057.022.091.024 1.135.07 2.26.204 3.385.349-.374.576-.655 1.138-.805 1.667-1.253-.233-2.526-.391-3.803-.34.389-.524.759-1.096 1.132-1.7" fill="#f7931d"/><path d="m53.829 57.255c.043.025.082.053.137.068 1.609.428 3.239.876 4.884 1.153-.144.442-.218.872-.215 1.268-2.106-.416-4.216-.8-6.32-1.237.524-.391 1.029-.816 1.514-1.252" fill="#f7931d"/><path d="m107.008 54.506c.179-.034.364-.049.545-.077.034.031.066.059.101.094.207.21.377.462.485.737.142.362.149.749.215 1.126-.37.049-.72.14-1.043.268-.002-.005-.002-.011-.005-.017-.281-.584-.68-1.148-1.048-1.682-.096-.139-.195-.271-.304-.392.38.006.74-.012 1.054-.057" fill="#f7931d"/><path d="m109.099 56.334c-.146-.553-.15-1.123-.443-1.65-.067-.12-.151-.249-.245-.377 7.519-.809 16.352 3.017 20.596 9.324-5.494-4.482-15.483-7.373-19.908-7.297" fill="#be1e2d"/><path d="m110.031 61.669c.433 1.243.847 2.496 1.321 3.722-.502.08-1.009.263-1.428.54-.244-.998-.516-1.998-.839-2.97-.161-.484-.34-.976-.589-1.421.487.069 1.01.107 1.535.129" fill="#f7931d"/><path d="m115.02 70.143c5.563 1.388 9.99 3.754 14.423 7.022-5.135.012-10.986-3.803-14.889-7.122.154.036.312.064.466.1" fill="#be1e2d"/><path d="m113.168 69.749c2.63 2.646 5.595 4.768 9.023 6.287 2.588 1.147 5.393 2.572 8.262 2.026.041-.007.071-.027.105-.043.076.058.152.115.229.174-2.003 2.874-10.682-.585-12.698-1.706-3.274-1.821-4.432-4.732-6.909-7.081.47.073.946.133 1.41.22.193.037.385.085.578.123" fill="#f7931d"/><path d="m115.306 69.105c-1.009-.236-2.021-.447-3.042-.629-.54-.097-1.596-.05-1.999-.502-.255-.286-.183-.677.019-.971.348-.511.948-.577 1.515-.604.009 0 .015.004.025.004 6.993-.109 17.181 3.043 18.945 10.752-3.909-4.38-9.912-6.665-15.463-8.05" fill="#d7df22"/><path d="m112.043 65.334c-.377-1.228-.844-2.436-1.308-3.636.622.022 1.205.045 1.646.115 2.405.385 4.805.864 7.14 1.565 5.474 1.643 10.681 4.558 11.129 10.636-3.391-6.047-12.012-8.704-18.607-8.68" fill="#be1e2d"/><path d="m122.775 63.358c-3.227-1.311-6.676-2.047-10.104-2.595-1.387-.221-8.088-.669-5.493-3.081.379-.353.923-.545 1.562-.636.097.022.196.01.281-.032 3.823-.335 10.937 2.925 12.978 3.882 4.288 2.01 10.722 5.635 9.338 11.134-.792-4.211-4.383-6.975-8.562-8.672" fill="#d7df22"/><path d="m129.93 63.075c-3.693-7.502-15.898-11.009-23.209-9.614-7.107 1.017-3.355-2.104-1.458-2.584 1.229-.311 2.624-.205 3.871-.091 3.097.283 6.171 1.174 9.075 2.256 2.858 1.064 13.709 5.446 11.721 10.033" fill="#d7df22"/><path d="m114.164 50.688c-2.353-.61-6.01-1.554-8.876-.996-1.455-1.295-3.186-1.697-5.127-1.522 2.892-4.958 12.159-2.956 16.307-1.595 4.554 1.494 8.141 4.994 10.138 9.35-4.3-2.741-10.312-4.684-12.442-5.237" fill="#be1e2d"/><path d="m99.413 48.271c-.859.15-1.698.405-2.534.651-.862.254-1.706.572-2.583.773-.63.145-7.808 1.26-4.492-2.82.25-.307-.179-.749-.441-.44-1.356 1.6-.777 3.47 1.208 4.223 4.639 1.757 9.077-3.603 13.625-.665-.441.167-.852.381-1.222.655-.404.3-.687.578-.905.844-3.103-2.705-15.662 3.362-15.885-2.918.606-1.097 1.569-2.822 2.707-3.378 1.268-.619 4.107.658 5.126 1.239 1.964 1.12 3.28 1.626 5.558 1.352-.061.154-.113.317-.162.484" fill="#f7931d"/><path d="m85.611 49.645c.225 1.884 2.172 2.465 4.653 2.548-.161 2.281-.452 3.983 1.563 5.489 1.292.965 2.918 1.35 4.298 2.16 3.143 1.844 3.033 4.967 2.535 8.078-2.945-6.553-8.266-12.004-14.723-15.113.565-1.051 1.113-2.109 1.674-3.162" fill="#be1e2d"/><path d="m83.534 53.989c-5.593 4.853-12.061 7.446-19.536 6.455.574-.465 1.075-1.037 1.62-1.673.072.036.154.061.259.053 5.422-.407 11.223-2.012 15.224-5.895.829.323 1.641.674 2.433 1.06" fill="#f7931d"/><path d="m66.591 57.688c2.749-2.939 5.952-4.869 9.625-6.426.061.106.163.194.324.233 1.224.294 2.405.667 3.566 1.076-4.241 2.83-8.41 4.604-13.515 5.117" fill="#be1e2d"/><path d="m76.828 50.45c-.013-.002-.022.001-.035 0-.074-.065-.177-.101-.313-.068-3.193.779-6.1 2.476-8.577 4.62-1.336 1.157-2.332 2.71-3.647 3.843-.587.505-2.729 2.202-3.646 1.783-1.266-.58-.794-2.043-.312-2.874 2.279-3.938 12.649-12.098 16.763-7.252-.079-.015-.155-.038-.233-.052" fill="#d7df22"/><path d="m59.414 57.237c-.046.079-.087.16-.13.24-1.533-.247-3.052-.65-4.554-1.052.363-.34.716-.675 1.058-.99 4.337-3.992 8.079-7.478 13.906-6.531-4.364 1.843-8.836 5.865-10.28 8.333" fill="#be1e2d"/><path d="m59.93 50.344c-3.479 2.583-7.78 9.111-12.514 8.859-2.849-1.665 6.363-9.16 7.596-10.061 2.999-2.193 10.48-5.377 13.352-1.699-2.942-.397-5.979 1.078-8.434 2.901" fill="#d7df22"/><path d="m53.855 48.667c-.976.756-4.531 3.477-6.657 6.162-1.182-.155-2.364-.293-3.552-.384 3.662-5.621 9.146-8.516 15.612-8.704-2.159.814-4.139 1.947-5.403 2.926" fill="#be1e2d"/><path d="m47.563 48.547c-3.711 2.656-6.202 10.49-10.926 10.338-4.009-5.822 14.797-18.349 21.269-14.127-3.691.143-7.353 1.649-10.343 3.789" fill="#d7df22"/><path d="m35.788 54.275c-3.569.239-7.485 1.019-9.961 3.706-3.673-6.497 4.853-10.245 9.211-12.089 4.252-1.8 8.797-2.35 13.376-1.746-5.336 2.038-10.746 6.172-12.626 10.129" fill="#be1e2d"/><path d="m8.855 77.011c2.093 1.99 6.438 1.276 9.255.144-.009.043-.014.09-.007.141 1.299 8.612 11.174 2.355 14.978-.113 5.093-3.305 10.378-5.556 16.272-7.008 4.657-1.147 8.841-1.21 11.386 3.645.721 1.377.92 2.734 1.62 4.069-3.527-.567-7.082-.781-10.71-.138-6.027 1.07-12.822 3.443-17.633 7.32-5.388 4.341-9.818 10.234-13.753 15.9-3.292-5.166-6.905-9.848-9.319-15.581-1.204-2.859-2.364-5.529-2.089-8.379" fill="#be1e2d"/><path d="m20.668 101.614c.006-.008.015-.011.021-.02 5.631-7.642 11.797-16.106 20.877-19.766 9.619-3.877 17.685-3.826 27.736-1.463 7.334 1.725 14.261 2.969 21.788 1.649 3.883-.68 7.354-1.463 8.842-4.445-.145 2.646-1.284 4.957-4.056 6.36-7.47 3.785-18.569 2.583-26.37.633-6.257-1.563-12.438-4.086-19.008-3.628-11.19.78-20.335 9.744-27.039 17.945-.861 1.051-1.689 2.126-2.49 3.214-.1-.161-.201-.319-.301-.479" fill="#8cc63f"/><path d="m73.564 130.551c-.004-.064-.024-.127-.083-.168-1.303-.911-2.724-1.632-4.117-2.395-.757-.414-1.272-.769-1.644-1.571-.152-.329-.536-1.229-.581-1.782 1.376-.143 4.102.237 5.173.603 1.119.384 1.765 1.288 2.699 1.894 1.982 1.285 4.032 2.052 5.949 3.418h-7.396z" fill="#374e9b"/><path d="m82.342 130.55c-1.218-1.17-2.56-2.126-4.067-2.896-.561-.285-1.163-.49-1.723-.775-.966-.493-1.665-1.282-2.56-1.83-1.872-1.146-5.349-1.705-7.421-1.295-.204.041-.301.174-.329.326-.001.002-.003.004-.004.007-.003.011-.003.022-.006.032l-.003.012c-.182.645.23 1.441.425 2.05.222.693.409 1.354.981 1.843.751.642 1.839.998 2.714 1.427.804.395 1.611.769 2.441 1.099h-5.008c-.028-.028-.049-.06-.088-.084-1.966-1.23-5.578-3.331-5.095-6.183.215-1.268 1.264-2.147 1.754-3.287.362-.843.479-1.591-.001-2.419-.376-.648-3.715-3.011-3.893-2.111.001-.005-.001-.009 0-.015.608-1.947 3.29-1.878 4.1-3.714.345-.782.339-1.63-.429-2.123-.988-.634-2.643-.292-3.706-.181-1.98.204-4.016.569-6.001.233-.004-.001-.005-.003-.009-.004-2.004-.587-2.125-2.162-3.367-3.453-.702-.729-1.616-1.185-2.557-1.53-1.278-.468-2.638-.664-3.961-.969-.58-.134-4.998-1.842-4.676-2.08.01-.009.015-.02.026-.03 2.352-1.807 5.59-5.428.46-5.349-2.344.036-4.748.624-6.976 1.311-1.791.551-9.502 4.157-7.629-1.072.002-.004-.002-.007-.001-.012 2.187-2.491 4.539-4.827 7.04-6.957 7.344-6.256 15.577-9.888 25.347-7.906 7.534 1.53 14.489 4.401 22.278 4.636 5.359.162 14.086.183 18.354-3.659 1.835-1.653 2.381-3.952 2.315-6.327 12.058 3.986 23.031 12.109 31.221 22.445-3.633.342-6.35-2.942-9.041-4.93-.931-.687-4.846-3.381-6.128-1.991-1.007 1.093.51 2.865 1.131 3.705 1.567 2.115 3.988 4.205 4.958 6.737-1.595-.269-3.183-.327-4.811-.138-.346.04-.549.288-.488.64.478 2.703 3.277 4.67 3.122 7.477-1.166 4.438-7.083 3.769-10.223 6.046-.886.643-1.213 1.098-.777 2.171.781 1.919 3.387 2.215 2.761 4.663-2.661 1.312-8.548-3.182-10.87-4.171-2.066-.88-5.005-2.048-7.065-.52-1.657 1.227-2.265 3.363-.727 4.83 1.117 1.066 3.02 1.512 4.387 2.136 2.269 1.037 4.173 2.338 5.789 4.185z" fill="#0c9344"/><path d="m105.073 130.55c-1.738-2.631-4.323-4.073-7.171-5.355-1.612-.726-4.586-1.462-3.417-3.891.997-2.073 3.283-1.785 5.116-1.259 3.206.923 6.032 2.9 9.074 4.218 1.431.621 3.272 1.474 4.753.566.038-.022.059-.051.085-.079.014-.012.028-.021.039-.036.026-.032.042-.066.057-.101.011-.023.027-.039.035-.064.45-1.415.225-2.419-.774-3.509-.61-.665-1.842-1.224-1.814-2.223.032-1.13 2.019-1.637 2.996-1.964 3.175-1.064 7.023-1.691 7.963-5.425.008-.03.002-.056.004-.084.004-.018.013-.03.015-.05.215-2.834-2.257-4.703-3.009-7.245 1.607-.143 3.183-.07 4.778.263.013.003.024-.002.036 0 .033.004.064.003.097.001.035-.002.072-.002.104-.011.22-.057.399-.248.364-.518 0-.01-.001-.02-.002-.031-.002-.013.002-.022-.002-.036-.509-1.926-1.922-3.514-3.152-5.028-.897-1.105-1.898-2.168-2.67-3.366-.126-.194-.873-1.204-.782-1.429.347-.86 2.231.046 2.664.236 4.314 1.897 7.19 7.3 12.468 6.414 6.809 8.851 11.594 19.24 13.316 30.006z" fill="#374e9b"/><path d="m38.292 107.397c1.27-.882 2.58-1.701 3.919-2.471-1.214-.423-2.344-1.022-3.274-2.066-.198-.223-.141-.501.086-.67.133-.1.266-.198.399-.297.011-.008.021-.008.032-.015.811-.604 3.573-2.488 2.785-3.564-.443-.607-2.347-.287-3.022-.226-2.337.215-4.974.727-7.147 1.654-2.139.913-7.757 2.12-6.978-1.526-7.818 9.161-13.298 20.444-14.731 32.334h9.203c3.787-9.353 10.456-17.406 18.728-23.153" fill="#fff" opacity=".2"/><path d="m101.066 77.265c.002.07-.002.14-.001.209.225.161.455.313.669.49.594.49 1.148 1.093 1.281 1.879.157.93-.256 1.878-.695 2.672-1.231 2.224-3.142 3.906-5.441 4.955-2.302 1.049-4.792 1.637-7.289 1.988-2.533.357-5.114.511-7.672.497-2.733-.013-5.447-.353-8.123-.897-2.661-.541-5.273-1.278-7.91-1.921-5.086-1.242-10.296-2.15-15.544-2.189-4.554-.036-9.135.632-13.353 2.359-1.44.967-2.843 2.044-4.216 3.214-2.501 2.13-4.852 4.466-7.04 6.957-.001.005.003.008.001.013-1.873 5.228 5.839 1.623 7.63 1.071 2.227-.687 4.632-1.275 6.975-1.311 5.13-.079 1.892 3.542-.46 5.349-.01.01-.015.021-.026.03-.231.171 1.993 1.105 3.474 1.663 2.883-1.567 5.904-2.878 9.019-3.922 5.867-1.966 12.069-2.791 18.222-3.185 3.114-.2 6.235-.283 9.355-.316 3.058-.032 6.122-.068 9.174.13 5.535.36 11.001 1.469 16.157 3.538 5.204 2.089 10.251 4.986 14.465 8.701.432.38.855.772 1.271 1.172-.337-2.399-2.65-4.24-3.08-6.678-.062-.352.141-.6.487-.64 1.628-.189 3.216-.131 4.812.138-.97-2.531-3.392-4.622-4.958-6.737-.622-.839-2.139-2.612-1.131-3.705 1.281-1.39 5.196 1.304 6.128 1.992 2.69 1.987 5.407 5.271 9.041 4.929-8.191-10.336-19.163-18.459-31.222-22.445" fill="#fff" opacity=".2"/><path d="m121.248 98.689c1.23 1.515 2.644 3.103 3.152 5.028.004.014 0 .024.002.036.001.011.002.021.002.032.035.269-.143.461-.364.517-.032.009-.068.009-.104.011-.033.002-.064.003-.097-.001-.012-.002-.023.003-.035 0-1.596-.333-3.172-.405-4.779-.263.752 2.542 3.224 4.411 3.009 7.245-.002.02-.011.033-.015.05-.001.029.004.054-.003.084 0 .003-.002.006-.002.009 2.69 2.768 5.04 5.908 7.045 9.179 1.886 3.08 3.636 6.279 5.043 9.609.045.108.087.217.132.325h12.01c-1.722-10.765-6.507-21.155-13.315-30.006-5.279.886-8.155-4.517-12.469-6.414-.433-.19-2.316-1.095-2.664-.236-.091.226.656 1.235.782 1.43.773 1.197 1.774 2.261 2.67 3.365" fill="#fff" opacity=".2"/><path d="m31.362 56.103c-2.938.913-5.28 2.705-6.368 5.958.001.056 0 .113.001.17.018 1.014.08 2.036.303 3.028.142.634.364 1.262.702 1.82.387-.955.769-1.917 1.213-2.86.994-2.116 2.221-3.954 3.916-5.222.004-.971.046-1.943.233-2.894" fill="#fff" opacity=".2"/><path d="m22.269 68.908c-2.146 2.125-5.548 3.554-8.48 4.707-.441.501-.787 1.083-.898 1.748-.075.45-.048.937.135 1.359.125.29.318.54.521.781 1.872-.188 3.773-.807 4.851-1.275.559-.243 1.097-.555 1.612-.909-.229-.097-.461-.188-.69-.286-.264-.111-.611-.241-.759-.506-.16-.286.051-.586.244-.792.398-.423.909-.723 1.381-1.054.492-.346.97-.718 1.388-1.153.394-.409.759-.894.883-1.46.09-.414-.001-.806-.188-1.16" fill="#fff" opacity=".2"/><path d="m10.557 74.088c.193.009.446.023.664-.024-.032-.169.015-.346.196-.423.117-.05.241-.102.359-.152.061-.194.093-.404.132-.576.097-.439.22-.889.533-1.228.175-.191.387-.361.591-.52.202-.159.414-.306.633-.441.849-.521 1.791-.851 2.68-1.293.672-.333 1.277-.753 1.774-1.292-3.237.805-6.354 2.155-8.053 5.156-.138.242-.259.481-.37.719.286.033.573.062.861.074" fill="#fff" opacity=".2"/><path d="m127.221 82.416c-.693.828-1.914.986-2.928.962-.662-.016-1.339-.09-1.968-.303-.668-.226-1.305-.541-1.944-.837-.681-.315-1.371-.634-2.098-.826-.529-.141-1.293-.281-1.792.031-.394.246-.088.737.109 1.011.331.462.761.856 1.186 1.228.191.167.385.328.581.487.278.225.532.477.803.71.667.57 1.383 1.082 2.13 1.54 1.505.924 3.15 1.667 4.822 2.23 1.206.407 2.433.845 3.701 1.012.126.017.252.026.379.036 1.145-3.45 1.257-7.693 1.226-10.76-.819 1.08-2.248 1.375-3.801 1.308.152.758.11 1.555-.406 2.171" fill="#fff" opacity=".2"/><path d="m109.422 78.883c-.142-.441-.435-.814-.793-1.102-.412-.33-.889-.568-1.303-.894-.416-.328-.731-.751-.852-1.274-.16-.686.112-1.279.372-1.9.125-.3.248-.623.228-.953-.02-.329-.112-.661-.272-.949-.285-.515-.77-.878-1.211-1.25-.521-.44-.999-.928-1.459-1.43-.928-1.013-1.875-2.22-2.058-3.624-.088-.676.071-1.275.411-1.857.166-.282.349-.551.499-.84.174-.337.282-.711.346-1.084.257-1.474-.336-2.91-1.035-4.176-.715-1.295-1.573-2.504-2.187-3.855-.279-.613-.531-1.291-.545-1.971-1.809-.045-4.324.278-6.726.417.076.446.279.859.521 1.237.507.797 1.174 1.476 1.771 2.204.527.644 1.047 1.342 1.16 2.188.051.378-.005.748-.1 1.111.997.503 1.929 1.089 2.646 1.992 1.522 1.919 1.24 4.468.805 6.799.022.021.048.036.07.057.79.725 1.49 1.544 2.11 2.418.166.234.324.474.482.714.148.224.304.435.413.683.157.361.207.74.158 1.13-.05.401-.162.792-.217 1.192-.073.527-.072 1.074.094 1.582.247.757.794 1.344 1.357 1.897 1.802.682 3.568 1.437 5.285 2.277.134-.206.109-.495.03-.739" fill="#fff" opacity=".2"/><path d="m85.303 58.516c1.251.639 2.847 1.493 3.377 2.89.865 2.277-2.088 3.381-3.71 3.914-2.739.901-5.607 1.354-8.419 1.966-1.135.247-2.285.497-3.375.905-.453.17-1.457.509-1.449 1.133.005.405.437.683.758.84.598.294 1.284.419 1.938.514 1.642.239 3.319.238 4.975.212 1.743-.028 3.496-.022 5.235-.14 1.46-.1 2.915-.286 4.344-.607 1.276-.285 2.452-.8 3.686-1.217.964-.327 2.085-.627 3.07-.209.848.36 1.382 1.167 1.886 1.898.502.729.898 1.511 1.33 2.283.202.361.413.717.637 1.065-.965-4.48-3.733-9.179-5.872-11.854-2.631-3.291-5.787-5.817-9.341-7.685-.896.82-1.831 1.571-2.792 2.262 1.222.651 2.484 1.198 3.722 1.83" fill="#fff" opacity=".2"/><path d="m76.843 80.019c-.624-.397-1.248-.784-1.828-1.244-.537-.427-1.04-.895-1.536-1.367-.465-.443-.948-.87-1.378-1.348-.712-.791-1.426-1.82-2.445-2.233-.458-.186-.978-.219-1.465-.234-.574-.018-1.148.009-1.72.045-.497.031-.993.075-1.491.099-.642.031-1.287.018-1.93.038-.375.011-.751.022-1.126.036.342.971.654 1.961 1.076 2.895.531.045 1.063.113 1.585.22.277.058.547.141.824.19.245.044.486.109.72.193.457.161.917.393 1.262.741.269.274.343.589.437.937 1.467.334 2.933.683 4.401 1.015 1.467.332 3.747.786 6.376 1.146-.589-.373-1.174-.754-1.762-1.129" fill="#fff" opacity=".2"/><path d="m27.916 68.718c1.979.679 4.051.402 6.089.239 1.079-.087 2.164-.131 3.242-.013.69.074 1.339.262 1.869.729.658.58.994 1.397 1.267 2.254 3.028-1.353 6.359-2.432 9.655-3.086.119-.404.274-.8.421-1.182.301-.775.709-1.635.644-2.487-.032-.422-.221-.79-.542-1.063-.542-.46-1.341-.452-2.017-.53-1.657-.192-3.336-.196-5.001-.267-1.698-.072-3.4-.234-5.091-.419-1.628-.179-3.3-.407-4.84-.986-.914-.344-2.032-.936-2.196-1.95-2.387 1.989-3.44 5.157-4.766 8.183.408.224.826.427 1.266.578" fill="#fff" opacity=".2"/><path d="m22.837 81.055c.03-.135.059-.271.075-.41.178-1.45-.296-2.921-1.156-4.084-.271-.366-.614-.636-.999-.863-.384.264-.779.522-1.198.766-.252.148-.548.293-.862.438.055.043.101.104.116.199.486 3.045 2.063 4.033 4.024 3.954" fill="#fff" opacity=".2"/><path d="m125.337 60.777c-.021.129-.06.248-.099.366 1.381.759 2.667 1.59 3.769 2.488-1.091-1.621-2.488-3.074-4.085-4.331.264.466.507.904.415 1.477" fill="#fff" opacity=".2"/><path d="m126.105 75.78c-.032.314.013.626.083.934 1.1.286 2.192.455 3.254.452-1.054-.777-2.108-1.499-3.176-2.173-.07.26-.134.519-.161.787" fill="#fff" opacity=".2"/><path d="m127.337 79.295c1.533.078 2.821-.199 3.45-1.102-.077-.059-.153-.116-.229-.174-.033.016-.064.036-.105.044-1.313.25-2.611.076-3.884-.285.253.508.554.993.768 1.517" fill="#fff" opacity=".2"/><path d="m126.406 71.753c.137.628.196 1.261.143 1.891 1.554.997 2.997 2.141 4.219 3.511-.634-2.775-2.371-4.951-4.648-6.605.092.401.198.801.286 1.203" fill="#fff" opacity=".5"/><path d="m124.935 66.95c.121.756.562 1.411.826 2.12 2.03 1.29 3.755 2.924 4.889 4.944-.293-3.968-2.619-6.583-5.72-8.381-.017.44-.064.88.005 1.317" fill="#fff" opacity=".2"/><path d="m124.266 62.422c-.227.63.18 1.243.441 1.829 3.313 1.72 5.963 4.235 6.63 7.779 1.137-4.514-2.995-7.763-6.884-9.895-.078.088-.148.181-.187.287" fill="#fff" opacity=".5"/><path d="m123.836 56.918c0 .001.001.002.002.004 2.647 1.583 4.853 3.638 6.092 6.153 1.302-3.005-2.906-5.922-6.767-7.876.249.563.461 1.136.673 1.719" fill="#fff" opacity=".5"/><path d="m104.423 45.771c.256.273.615.448.953.596.455.199.933.347 1.411.48.949.262 1.917.452 2.886.623 2.657.468 5.304 1.185 7.761 2.312 1.505.69 2.957 1.542 4.059 2.796.294.334.562.689.812 1.057 1.486.677 2.975 1.445 4.302 2.29-1.997-4.356-5.584-7.856-10.139-9.35-2.89-.948-8.261-2.2-12.233-1.2.013.143.079.279.188.396" fill="#fff" opacity=".2"/><path d="m92.986 51.004c-.056.127-.103.256-.133.389 2.385-.253 4.952-.726 6.877-.622.252-.66.749-1.199 1.298-1.663-2.672.055-5.331 1.746-8.042 1.896" fill="#fff" opacity=".2"/><path d="m88.112 46.403c.408.01.816.035 1.224.071.01-.012.016-.026.027-.039.168-.198.401-.087.484.099.211.024.423.043.633.074.331.047.661.103.988.175.354.078.696.195 1.04.306.833.268 1.678.545 2.555.611.517.038 1.028-.004 1.531-.093-.828-.236-1.627-.63-2.577-1.172-1.019-.58-3.858-1.858-5.127-1.239-.487.239-.939.696-1.348 1.222.19-.003.38-.019.57-.015" fill="#fff" opacity=".2"/><path d="m96.125 59.841c-.07-.041-.146-.071-.218-.11-.11.288-.223.575-.305.873-.087.316-.107.639-.107.966 0 .387.05.775.126 1.158.816 1.145 1.572 2.334 2.226 3.579.325.215.638.443.946.681.353-2.791.162-5.487-2.668-7.147" fill="#fff" opacity=".2"/><path d="m80.584 56.125c.037.023.076.042.113.064.969-.67 1.916-1.401 2.837-2.2-.792-.386-1.603-.738-2.432-1.06-.765.742-1.612 1.377-2.493 1.96.657.414 1.311.832 1.975 1.236" fill="#fff" opacity=".2"/><path d="m77.467 54.181c.883-.494 1.76-1.023 2.639-1.61-1.16-.41-2.342-.783-3.566-1.077-.161-.039-.263-.126-.324-.232-.812.344-1.597.71-2.362 1.097 1.276.48 2.459 1.124 3.613 1.822" fill="#fff" opacity=".2"/><path d="m69 50.924c.316.137.665.206.998.293.823.217 1.645.443 2.46.689 1.279-.655 2.621-1.182 4.022-1.524.136-.033.239.003.313.068.013.001.022-.003.035 0 .078.014.154.037.234.052-1.98-2.332-5.407-1.65-8.684.121.206.104.41.209.622.301" fill="#fff" opacity=".4"/><path d="m66.442 49.716c.303.112.597.245.886.385.78-.455 1.574-.863 2.366-1.197-1.84-.299-3.472-.154-4.981.307.584.143 1.166.297 1.729.505" fill="#fff" opacity=".2"/><path d="m58.577 47.502c.646.143 1.287.305 1.921.493.65.192 1.28.443 1.93.638.057.017.116.03.173.046 1.833-.934 3.817-1.499 5.762-1.236-2.137-2.737-6.823-1.673-10.319-.046.177.037.356.066.533.105" fill="#fff" opacity=".4"/><path d="m56.351 47.073c.891-.482 1.877-.944 2.907-1.333-2.009.059-3.921.379-5.715.96.94.097 1.877.216 2.808.373" fill="#fff" opacity=".2"/><path d="m46.218 46.53c1.437-.049 2.877-.085 4.315-.042.167.005.336.021.504.028 2.166-1.014 4.511-1.666 6.869-1.758-2.707-1.766-7.571-.597-12.021 1.782.11-.003.222-.006.333-.01" fill="#fff" opacity=".4"/><path d="m36 46.824c2.138.408 4.34.045 6.481-.133.321-.027.642-.036.962-.054 1.589-.992 3.284-1.847 4.971-2.491-4.579-.604-9.124-.054-13.376 1.745-.251.106-.517.22-.792.338.551.278 1.141.478 1.754.595" fill="#fff" opacity=".2"/><path d="m42.888 75.913c.87.327 1.823.401 2.744.444.981.047 1.964.032 2.944.077.431.02.855.075 1.284.113.646.057 1.296.09 1.944.111 1.281.041 2.563.028 3.844.007 1.269-.021 2.538-.036 3.807-.042.792-.005 1.584.001 2.375.027-.336-.924-.588-1.858-1.078-2.801-.853.023-1.707.033-2.561.001-1.325-.05-2.605-.25-3.894-.546-1.637-.377-4.34-.996-4.455-3.084-.003-.053.008-.106.008-.16-.166.039-.33.075-.496.116-3.017.743-5.871 1.699-8.624 2.894.377 1.219.85 2.352 2.158 2.843" fill="#fff" opacity=".2"/><path d="m22.721 93.183c-.598-1.032-1.306-1.994-1.929-3.01-.26-.423-.509-.858-.69-1.323-.231-.595-.352-1.285-.333-1.925.014-.51.146-1.002.385-1.452.237-.447.56-.843.878-1.234.635-.788 1.263-1.61 1.618-2.549-2.238.051-4.04-1.045-4.546-4.394-.007-.051-.002-.097.007-.141-1.164.467-2.589.861-4.008 1.024.291.387.514.807.473 1.331-.061.828-.62 1.473-1.163 2.051-.516.55-1.162 1.143-1.269 1.931-.121.88.492 1.726.996 2.386.296.388.613.757.921 1.135.287.352.545.712.788 1.095.624.982 1.268 1.957 1.782 3.004.516 1.05.896 2.178.991 3.349.06.74-.026 1.468-.217 2.171.956 1.431 1.92 2.865 2.859 4.339 1.085-1.562 2.212-3.14 3.383-4.699.005-.035.024-.068.028-.105.112-1.051-.444-2.104-.954-2.984" fill="#fff" opacity=".2"/><path d="m83.912 85.464c-.396-.58.2-1.202.545-1.685-.648-.115-1.281-.291-1.896-.526-.646-.246-1.269-.546-1.878-.873-3.779-.338-7.524-1.107-11.381-2.015-.044-.01-.086-.018-.13-.029.181.131.356.271.51.432.226.238.334.54.243.868-.079.286-.304.481-.49.699-1.14 1.33 1.565 2.549 2.542 2.774.013.002.017.012.026.018 4.257.887 9.168 1.471 13.854 1.201-.732-.109-1.48-.183-1.945-.864" fill="#fff" opacity=".4"/><path d="m10.343 130.682c1.768-15.525 10.594-30.09 22.425-40.166 7.346-6.257 15.581-9.89 25.353-7.906 7.534 1.528 14.488 4.4 22.277 4.635 5.357.162 14.085.183 18.35-3.659 3.391-3.053 2.393-8.311 1.222-12.182-3.172-10.487-12.352-18.947-23.144-20.948-.668-.124-.962.869-.284 1.032 6.849 1.648 12.744 5.071 17.177 10.616 4.083 5.106 10.532 17.592 2.16 21.832-7.472 3.783-18.572 2.583-26.375.633-6.256-1.564-12.436-4.086-19.006-3.629-11.188.779-20.331 9.744-27.035 17.942-7.543 9.227-12.857 19.828-13.928 31.8-.046.521.75.507.808 0" fill="#231f20"/><path d="m65.877 58.818c5.45-.41 11.249-2.027 15.268-5.93.334-.324-.109-.937-.509-.66-4.613 3.19-9.11 5.119-14.759 5.547-.665.05-.671 1.093 0 1.043" fill="#231f20"/><path d="m53.968 57.316c1.721.458 3.464.947 5.227 1.214.661.101.946-.911.279-1.012-1.763-.267-3.506-.757-5.227-1.215-.653-.174-.932.839-.279 1.013" fill="#231f20"/><path d="m43.107 55.448c1.432.088 2.849.271 4.269.459.668.089.662-.963 0-1.049-1.421-.186-2.837-.368-4.269-.453-.671-.04-.668 1.002 0 1.043" fill="#231f20"/><path d="m11.744 74.414c3.648-1.465 9.087-3.281 11.459-6.597 1.011-1.413 1.102-3.021 1.476-4.667 1.294-5.691 5.946-7.528 11.3-7.832.672-.039.675-1.092 0-1.05-4.19.259-8.913 1.232-11.227 5.164-2.054 3.491-.64 6.231-4.35 9.477-2.415 2.113-6.088 3.5-8.982 4.737-.433.185-.119.946.324.768" fill="#231f20"/><path d="m76.48 50.383c-3.19.799-6.093 2.478-8.572 4.625-1.336 1.157-2.332 2.71-3.648 3.843-.589.506-2.731 2.203-3.65 1.784-1.272-.579-.801-2.05-.318-2.884 2.429-4.197 14.036-13.181 17.492-6.143.274.557 1.061.069.822-.481-3.603-8.259-16.529 1.571-19.187 6.114-1.253 2.145-1.248 4.687 1.845 4.321 2.606-.308 3.448-1.834 5.082-3.632 2.909-3.202 6.345-5.254 10.322-6.863.413-.167.267-.798-.188-.684" fill="#231f20"/><path d="m47.541 59.284c-3.278-1.513 6.213-9.231 7.467-10.147 3.209-2.346 11.538-5.825 13.886-.842.29.614 1.163.077.901-.527-2.622-6.053-12.28-1.928-15.937.904-1.762 1.366-11.999 9.177-6.864 11.547.629.29 1.18-.643.547-.935" fill="#231f20"/><path d="m71.501 48.688c-3.812-2.66-8.21-.832-11.568 1.662-3.516 2.611-7.871 9.261-12.665 8.86-.695-.058-.691 1.025 0 1.083 3.436.29 6.205-2.735 8.515-4.861 4.701-4.328 8.743-8.137 15.483-6.186.348.1.508-.368.235-.558" fill="#231f20"/><path d="m36.733 59.052c-4.71-6.063 16.734-19.949 22.109-13.492.414.497 1.121-.216.71-.71-6.108-7.341-29.41 7.392-23.51 14.893.389.496 1.072-.201.691-.691" fill="#231f20"/><path d="m62.307 45.283c-5.055-1.49-10.555.275-14.739 3.27-3.781 2.705-6.284 10.793-11.18 10.343-.64-.059-.645.958 0 1.004 3.635.258 5.163-2.079 6.899-4.92 4.189-6.853 10.976-9.89 18.945-9.143.325.03.371-.467.075-.554" fill="#231f20"/><path d="m26.014 58.309c-4.194-6.689 4.605-10.555 9.021-12.424 4.564-1.931 9.462-2.442 14.38-1.611.592.1.86-.778.253-.918-7.087-1.634-14.597.476-20.638 4.307-3.979 2.523-6.944 6.889-3.645 11.131.28.36.867-.105.629-.485" fill="#231f20"/><path d="m22.281 66.359c-7.328 1.073-16.044 4.658-14.394 13.84 1.556 8.658 8.116 15.633 12.508 22.87.333.548 1.197.047.862-.504-3.538-5.82-7.659-10.854-10.319-17.173-1.711-4.063-3.347-7.742-.879-12.1 2.482-4.382 7.984-5.252 12.469-6.035.596-.103.335-.983-.247-.898" fill="#231f20"/><path d="m7.961 75.663c1.587 4.181 8.749 2.464 11.597.8 2.793-1.632 4.8-3.7 6.272-6.579 2.396-4.685 3.272-10.41 9.295-11.69.54-.114.308-.92-.227-.822-3.85.705-6.067 3.418-7.679 6.85-1.279 2.723-2.044 5.606-3.939 7.989-1.275 1.604-2.965 3.187-4.882 4.018-2.325 1.008-8.492 2.746-9.924-.708-.128-.308-.636-.182-.513.142" fill="#231f20"/><path d="m41.639 57.685c1.395-.009 2.797.238 4.16.515.442.089.629-.591.187-.677-1.43-.278-2.888-.479-4.347-.389-.352.021-.358.553 0 .551" fill="#231f20"/><path d="m51.414 59.062c2.432.759 5.187 1.433 7.741 1.55.424.019.526-.662.102-.748-2.547-.516-5.107-.948-7.651-1.498-.453-.098-.637.557-.192.696" fill="#231f20"/><path d="m63.255 61.058c8.084 1.494 15.501-1.362 21.411-6.906.405-.381-.198-.977-.607-.608-5.851 5.272-12.668 8.067-20.616 6.83-.442-.068-.641.601-.188.684" fill="#231f20"/><path d="m18.104 77.297c1.299 8.61 11.174 2.348 14.975-.119 5.093-3.305 10.379-5.557 16.273-7.009 4.661-1.147 8.848-1.208 11.394 3.649.861 1.644.966 3.259 2.085 4.842.398.564 1.337.026.935-.547-1.766-2.511-1.7-6.009-4.113-8.109-2.056-1.788-4.958-1.891-7.502-1.525-4.221.608-8.656 1.965-12.512 3.777-2.185 1.027-4.266 2.271-6.296 3.577-2.498 1.608-13.115 10.124-14.53 1.269-.074-.468-.778-.267-.709.195" fill="#231f20"/><path d="m20.689 101.594c5.633-7.646 11.791-16.111 20.875-19.772 9.619-3.877 17.688-3.828 27.739-1.464 7.333 1.724 14.258 2.968 21.784 1.649 4.988-.874 9.313-1.898 9.596-7.566.031-.639-.953-.634-.991 0-.627 10.562-21.269 6.969-27.466 5.568-6.802-1.539-13.552-3.497-20.575-2.251-6.026 1.068-12.821 3.441-17.631 7.318-5.472 4.41-9.963 10.414-13.943 16.161-.263.378.346.718.612.357" fill="#231f20"/><path d="m111.823 66.397c7.28-.113 18.045 3.291 19.149 11.702.085.648 1.117.656 1.031 0-1.186-9.03-12.24-12.86-20.18-12.759-.68.009-.681 1.067 0 1.057" fill="#231f20"/><path d="m115.304 69.112c-1.008-.237-2.021-.448-3.041-.63-.543-.097-1.598-.05-2.003-.503-.257-.288-.185-.682.019-.979.355-.522.967-.582 1.545-.61.667-.031.673-1.069 0-1.043-1.392.053-3.187.915-2.741 2.63.176.678.76 1.133 1.418 1.3.677.172 1.403.213 2.091.343.814.154 1.623.328 2.43.516.665.157.949-.868.282-1.024" fill="#231f20"/><path d="m131.7 78.282c-3.853-5.118-10.381-7.67-16.396-9.17-.665-.166-.948.859-.283 1.024 6.338 1.582 11.215 4.427 16.282 8.452.202.16.585-.056.397-.306" fill="#231f20"/><path d="m131.447 74.921c.593-5.879-3.6-9.496-8.674-11.557-3.226-1.31-6.675-2.047-10.104-2.594-1.39-.222-8.105-.675-5.493-3.094 2.61-2.418 12.372 2.063 14.826 3.214 4.424 2.074 11.309 5.94 9.16 11.789-.165.448.532.725.761.321 5.488-9.679-16.935-17.205-23.39-16.633-2.712.24-4.569 2.869-1.5 4.735 1.202.732 3.962.484 5.35.706 2.405.384 4.804.863 7.139 1.564 5.736 1.721 11.224 4.842 11.17 11.549-.004.495.707.474.755 0" fill="#231f20"/><path d="m106.722 53.468c-7.122 1.019-3.36-2.116-1.461-2.597 1.23-.312 2.625-.205 3.873-.091 3.098.283 6.173 1.174 9.076 2.256 3.005 1.119 14.836 5.897 11.339 10.732-.38.525.491 1.026.866.507 4.912-6.787-12.318-12.558-16.252-13.579-3.056-.794-8.331-2.164-11.186-.041-3.904 2.902 1.503 4.206 4.029 3.845.679-.097.391-1.128-.284-1.032" fill="#231f20"/><path d="m130.851 65.807c-1.762-9.362-15.977-13.896-24.129-12.34-.675.129-.39 1.16.284 1.032 8.673-1.657 19.761 3.369 23.347 11.518.132.3.551.073.498-.21" fill="#231f20"/><path d="m89.363 46.435c-1.356 1.6-.778 3.472 1.209 4.223 4.851 1.833 9.474-4.117 14.244-.226.423.345 1.026-.223.612-.613-1.52-1.433-3.353-1.849-5.419-1.632-1.07.113-2.101.439-3.128.742-.863.254-1.706.571-2.584.772-.633.145-7.805 1.25-4.494-2.825.25-.307-.178-.75-.44-.441" fill="#231f20"/><path d="m107.23 54.046c.096.211.263.314.423.477.207.21.378.461.485.737.197.5.132 1.052.325 1.554.17.44.887.249.715-.198-.245-.637-.18-1.315-.523-1.931-.24-.433-.671-1.013-1.206-1.019-.207-.003-.294.213-.219.38" fill="#231f20"/><path d="m109.853 61.149c.537 1.505 1.014 3.043 1.604 4.527.154.387.765.243.639-.175-.456-1.531-1.067-3.028-1.636-4.519-.142-.374-.745-.218-.607.167" fill="#231f20"/><path d="m113.059 69.643c2.657 2.695 5.661 4.847 9.136 6.387 2.587 1.146 5.389 2.571 8.258 2.025.509-.097.4-.964-.124-.915-5.795.541-12.733-4.313-16.788-7.98-.324-.293-.793.168-.482.483" fill="#231f20"/><path d="m99.82 48.793c2.445-5.769 12.33-3.641 16.649-2.224 4.906 1.609 8.713 5.529 10.593 10.355.216.553 1.117.313.899-.247-2.505-6.426-7.323-10.258-13.924-11.702-4.241-.928-13.405-2.205-14.727 3.603-.065.291.381.52.51.215" fill="#231f20"/><path d="m99.713 47.362c-2.167-.273-3.599-.601-5.407-2.012-.56-.436-1.015-.959-1.654-1.286-1.102-.566-2.191-.615-3.362-.195-3.331 1.196-4.831 5.798-6.264 8.628-.273.54.525 1.016.816.477.777-1.44 1.509-2.906 2.3-4.338.604-1.093 1.586-2.878 2.746-3.445 1.267-.62 4.114.658 5.134 1.239 2.02 1.152 3.342 1.667 5.746 1.338.252-.034.152-.38-.055-.406" fill="#231f20"/><path d="m85.856 47.728c-2.528 8.089 13.64 2.271 15.995 4.558.276.269.781-.084.552-.425-2.498-3.708-17.041 3.776-16.193-4.085.023-.209-.296-.234-.354-.048" fill="#231f20"/><path d="m105.193 54.679c.408.13.6.753.793 1.09.233.406.451.836.73 1.212.26.35.784.058.589-.344-.281-.585-.679-1.148-1.048-1.683-.242-.351-.486-.688-.924-.781-.33-.07-.464.403-.14.506" fill="#231f20"/><path d="m107.473 61.13c1.217 1.382 1.399 3.657 1.918 5.366.123.405.73.238.633-.174-.265-1.127-.573-2.262-.939-3.36-.269-.809-.558-1.655-1.209-2.236-.275-.246-.646.128-.403.404" fill="#231f20"/><path d="m110.528 69.368c1.767 2.208 2.608 4.619 4.873 6.425 1.914 1.525 4.169 2.546 6.507 3.225 2.516.732 8.184 2.631 9.8-.523.266-.521-.501-.978-.787-.461-1.768 3.197-10.777-.395-12.836-1.541-3.432-1.91-4.516-5.025-7.255-7.427-.21-.184-.472.09-.302.302" fill="#231f20"/><path d="m128.109 94.399c1.915-1.387 2.537-3.723 3.145-5.929.884-3.213 1.247-6.463 1.214-9.79-.005-.667-1.045-.668-1.036 0 .058 4.536-.139 11.885-3.693 15.24-.246.232.084.685.37.479" fill="#231f20"/><path d="m90.274 52.053c-.157 2.353-.506 4.092 1.554 5.627 1.293.964 2.921 1.346 4.3 2.155 3.457 2.028 2.986 5.6 2.383 9.005-.096.551.74.792.849.234.517-2.657 1.303-5.885-.53-8.197-1-1.261-2.418-1.904-3.848-2.565-.96-.444-2.633-.964-3.38-1.845-1.019-1.203-.795-2.991-.849-4.414-.011-.31-.458-.306-.479 0" fill="#231f20"/><path d="m100.593 77.095c24.394 7.824 44.456 32.624 46.239 58.486.043.626 1.002.64.985 0-.331-12.013-6.413-24.525-13.202-34.107-8.353-11.794-19.91-20.942-33.778-25.265-.566-.176-.806.706-.244.886" fill="#231f20"/><path d="m59.592 116.228c-.051.259.073.45.312.549 1.674.689 4.52 1.644 3.623 3.881-.407 1.012-1.276 1.786-1.636 2.84-1.221 3.576 2.794 6.168 5.322 7.79.513.329.993-.494.478-.816-1.97-1.233-5.581-3.335-5.098-6.189.215-1.271 1.264-2.149 1.754-3.289.361-.843.478-1.587 0-2.413-.374-.644-3.719-3.006-3.895-2.116.112-.561-.75-.801-.86-.237" fill="#231f20"/><path d="m54.176 111.526c2.743.47 5.411-.356 8.147-.323.63.008 1.385-.051 1.525.656.186.948-1.243 1.604-1.894 1.97-1.091.616-1.98 1.153-2.355 2.4-.164.544.682.775.848.234.599-1.964 3.294-1.887 4.106-3.729.344-.778.338-1.623-.427-2.114-.986-.633-2.64-.29-3.702-.18-1.983.204-4.023.57-6.012.232-.557-.095-.798.758-.236.854" fill="#231f20"/><path d="m39.425 101.899-.398.296c-.224.167-.281.441-.085.66 2.016 2.264 4.946 2.476 7.72 3.204.89.234 1.844.46 2.642.938 1.39.831 1.288 1.449 2.024 2.731.619 1.077 1.688 1.459 2.848 1.802.552.162.788-.7.237-.861-2.006-.587-2.128-2.163-3.371-3.455-.701-.728-1.614-1.184-2.553-1.528-1.279-.469-2.639-.665-3.961-.97-.579-.132-5.014-1.842-4.679-2.091.429-.32.011-1.049-.424-.726" fill="#231f20"/><path d="m25.348 97.385c-1.839 4.65 4.434 3.334 6.723 2.356 2.173-.925 4.809-1.438 7.146-1.652.676-.061 2.578-.382 3.024.225.833 1.135-2.274 3.166-2.901 3.651-.427.331.172.922.594.595.93-.723 3.876-2.607 3.315-4.258-.399-1.181-2.159-1.079-3.121-1.044-2.353.086-4.764.659-6.995 1.375-.908.292-1.605.725-2.454 1.103-1.816.807-6.224 1.325-4.945-2.245.088-.245-.293-.341-.386-.106" fill="#231f20"/><path d="m66.821 124.667c1.232-.249 4.337.171 5.492.566 1.121.384 1.767 1.288 2.701 1.894 2.259 1.465 4.607 2.248 6.741 4.028.408.341.991-.215.593-.594-1.224-1.169-2.566-2.128-4.078-2.9-.559-.285-1.161-.49-1.72-.775-.967-.493-1.666-1.282-2.562-1.83-1.871-1.147-5.346-1.705-7.416-1.294-.592.117-.342 1.024.249.905" fill="#231f20"/><path d="m73.481 130.383c-1.304-.912-2.726-1.629-4.12-2.389-.759-.414-1.275-.772-1.647-1.575-.184-.398-.713-1.637-.565-2.081.19-.574-.718-.822-.905-.25-.213.65.217 1.471.416 2.091.221.692.408 1.352.978 1.84.751.642 1.838.999 2.711 1.429.976.483 1.946.95 2.97 1.319.237.086.345-.256.162-.384" fill="#231f20"/><path d="m124.395 103.719c-.509-1.925-1.922-3.512-3.151-5.025-.898-1.105-1.898-2.169-2.671-3.367-.127-.197-.873-1.204-.783-1.431.347-.873 2.236.036 2.673.228 4.33 1.904 7.213 7.35 12.531 6.407.568-.101.328-.968-.24-.868-3.874.688-6.703-2.804-9.509-4.877-.928-.684-4.843-3.38-6.121-1.992-1.004 1.09.513 2.861 1.132 3.696 1.719 2.321 4.488 4.606 5.215 7.484.151.597 1.081.344.924-.255" fill="#231f20"/><path d="m122.027 111.295c.231-3.046-2.646-4.978-3.149-7.829-.162.211-.322.421-.482.632 1.828-.229 3.605-.168 5.409.208.597.125.854-.787.253-.917-1.884-.409-3.744-.512-5.662-.289-.342.04-.542.285-.48.632.482 2.731 3.337 4.708 3.12 7.563-.048.636.943.633.991 0" fill="#231f20"/><path d="m113.639 124.548c.448-1.413.225-2.414-.773-3.503-.612-.668-1.843-1.225-1.815-2.228.032-1.135 2.019-1.641 3-1.97 3.172-1.062 7.019-1.689 7.959-5.42.156-.618-.8-.883-.955-.264-1.134 4.5-7.089 3.811-10.243 6.1-.884.64-1.21 1.091-.775 2.161.803 1.978 3.552 2.223 2.709 4.879-.18.568.712.811.893.245" fill="#231f20"/><path d="m105.288 130.861c-1.736-2.84-4.424-4.33-7.388-5.662-1.616-.726-4.593-1.462-3.421-3.898.999-2.076 3.288-1.79 5.124-1.261 3.207.922 6.033 2.899 9.075 4.217 1.429.621 3.267 1.473 4.748.568.507-.311.043-1.111-.467-.8-2.584 1.581-8.669-3.09-11.041-4.1-2.064-.877-4.999-2.046-7.058-.521-1.653 1.226-2.26 3.355-.726 4.821 1.117 1.066 3.018 1.513 4.384 2.138 2.528 1.156 4.604 2.636 6.333 4.836.196.251.6-.072.437-.338" fill="#231f20"/></g></g></svg>