<svg clip-rule="evenodd" fill-rule="evenodd" stroke-linejoin="round" stroke-miterlimit="2" viewBox="0 0 90 30" xmlns="http://www.w3.org/2000/svg"><g fill="#fff" fill-rule="nonzero"><path d="m2.506 3.805c.555 0 1.005.45 1.005 1.005 0 .556-.45 1.005-1.005 1.005s-1.005-.449-1.005-1.005c0-.555.45-1.005 1.005-1.005m.66 3.12c0 3.21.494 6.72.494 6.72-.164.165-1.139.21-1.139.21-.75 0-1.185-.196-1.17-.271.015-.09.33-1.484.33-2.024 0-.555.21-4.035.255-4.59 0 0 .285-.12.615-.12.39 0 .615.075.615.075"/><path d="m8.955 4.285c.721 0 1.23.015 1.23.045 0 .585-.464 1.47-.525 1.455-.24 0-2.205.074-2.43.225-.014.014-.014.195-.014.464 0 .736.029 2.071.074 2.116.21.21 2.145.24 2.58.24.856 0 1.561-.106 1.575-.106.015 0 .031 0 .031.015 0 .495-.406 1.275-.75 1.606-.045.044-1.066.149-2.97.149-1.186 0-2.311-.06-2.356-.119-.059-.045-.09-1.351-.09-2.115 0-.691.015-1.47.031-2.236-.346-.3-.766-1.125-.766-1.619 0-.016.316-.03.795-.046 0-.63.016-1.199.016-1.619s-.016-.676-.031-.705c-.24-.24-.689-1.38-.689-1.605.119-.121 3.975-.166 5.265-.166.705 0 1.259.016 1.259.061 0 .705-.554 1.515-.645 1.5-.045-.016-.225-.03-.449-.03-.87 0-2.656.105-2.776.224-.075.076-.09 1.006-.09 1.651 0 .36.015.63.015.63.601-.015 1.2-.015 1.71-.015"/><path d="m14.22 7.705c0 .569 0 1.034.03 1.274.075.63.255.93.435 1.201 0 .179-1.034.809-1.665.809-.06 0-.375-.389-.465-1.319-.015-.24-.015-.84-.015-1.575 0-1.531.06-3.045.06-5.43 0-1.515-.06-1.89-.06-2.055 0-.21.87-.54 1.41-.54.135 0 .375.03.375.06-.03.225-.075 2.775-.075 3.9s-.03 2.249-.03 3.675"/><path d="m17.415 7.705c0 .569 0 1.034.03 1.274.075.63.255.93.435 1.201 0 .179-1.034.809-1.665.809-.06 0-.375-.389-.465-1.319-.015-.24-.015-.84-.015-1.575 0-1.531.06-3.045.06-5.43 0-1.515-.06-1.89-.06-2.055 0-.21.87-.54 1.41-.54.135 0 .375.03.375.06-.03.225-.075 2.775-.075 3.9s-.03 2.249-.03 3.675"/><path d="m22.126 5.83h-.12c-.016-.03-.03-.105-.03-.195 0-.165.03-.375.045-.435-.72 0-1.68.659-1.68 2.1 0 .15 0 1.8 1.439 1.8.705 0 1.486-.526 1.486-1.861 0-1.289-.826-1.409-1.14-1.409m-3.495 1.515c0-1.83 1.364-3.75 3.854-3.75 0 0 .72.03.811.12.015.014.029.105.029.21 0 .195-.029.45-.045.54.151.014 1.71.525 1.71 2.639 0 1.786-1.125 3.51-3.21 3.51-2.009 0-3.149-1.394-3.149-3.269"/><path d="m26.341 11.14c-.15 0-.585-.63-.585-1.335v-.105c1.725 0 2.399-.765 2.399-1.245 0-.87-2.399-1.335-2.399-2.625 0-1.245 1.875-2.445 3.569-2.445.165 0 .63.615.646 1.26-.226 0-2.085.315-2.085 1.11 0 .75 2.34 1.185 2.385 2.745 0 1.755-2.76 2.64-3.93 2.64"/><path d="m35.955 2.29c.615 0 1.125.015 1.125.045 0 .72-.271 1.305-.436 1.305h-.705c-.014 1.11-.029 2.339-.029 3.344s.015 1.801.045 2.116c.075.66.39 1.065.615 1.275 0 .18-.915.795-1.665.795-.06 0-.54-.481-.63-1.41-.03-.241-.03-.856-.03-1.606 0-1.619.03-3.885.045-4.484-.465 0-.84.015-.84.015-.045-.045-.075-.27-.075-.525 0-.346.045-.75.135-.825 0 0 .33-.015.795-.03-.015-1.125-.09-1.26-.09-1.425 0-.21.9-.54 1.44-.54.135 0 .375.03.375.06-.015.195-.045.93-.075 1.89"/><path d="m40.11 5.02c-.811 0-1.545.96-1.545 2.146 0 .165 0 .209.06.209.63-.015 1.95-.915 1.95-1.919 0-.316-.24-.436-.465-.436m-3.3 2.385c0-1.949 1.2-3.735 3.63-3.735.705 0 1.89.3 1.89 1.635 0 1.276-1.125 2.64-3.045 3.3 0 .09.315.405 1.095.405.645 0 1.334-.12 1.799-.405 0 0 .016-.015.031-.015.03 0 .045.196.045.285 0 .36-.09.99-.375 1.35 0 0-.51.345-1.965.345-2.1 0-3.105-1.41-3.105-3.165"/><path d="m47.864 7.705c0 .569 0 1.034.03 1.274.075.63.255.93.435 1.201 0 .179-1.034.809-1.665.809-.06 0-.375-.389-.465-1.319-.015-.24-.015-.84-.015-1.575 0-1.531.06-3.045.06-5.43 0-1.515-.06-1.89-.06-2.055 0-.21.87-.54 1.41-.54.135 0 .375.03.375.06-.03.225-.075 2.775-.075 3.9s-.03 2.249-.03 3.675"/><path d="m51.059 7.705c0 .569 0 1.034.03 1.274.075.63.255.93.435 1.201 0 .179-1.034.809-1.665.809-.06 0-.375-.389-.465-1.319-.015-.24-.015-.84-.015-1.575 0-1.531.06-3.045.06-5.43 0-1.515-.06-1.89-.06-2.055 0-.21.87-.54 1.41-.54.135 0 .375.03.375.06-.03.225-.075 2.775-.075 3.9s-.03 2.249-.03 3.675"/><path d="m55.574 5.02c-.811 0-1.545.96-1.545 2.146 0 .165 0 .209.06.209.63-.015 1.95-.915 1.95-1.919 0-.316-.24-.436-.465-.436m-3.3 2.385c0-1.949 1.2-3.735 3.63-3.735.705 0 1.89.3 1.89 1.635 0 1.276-1.125 2.64-3.045 3.3 0 .09.315.405 1.095.405.645 0 1.334-.12 1.799-.405 0 0 .016-.015.031-.015.03 0 .045.196.045.285 0 .36-.09.99-.375 1.35 0 0-.51.345-1.965.345-2.1 0-3.105-1.41-3.105-3.165"/><path d="m62.219 2.92c.015-.12.585-.225.93-.225.825 0 .915.15.915.15 0 .6-2.085 7.274-2.281 7.47-.194.195-1.439.24-1.439.24-.465 0-.69-.09-.69-.09 0-.721-1.905-5.535-1.905-6.63 0-.045.494-.436 1.59-.436 0 0 .915 3.721 1.38 4.755 0 0 .015.076.06 0 .375-.674 1.365-4.439 1.44-5.234"/><path d="m68.039 7.27c0-.18 0-.33-.015-.33-.54 0-2.205.27-2.205 1.351 0 .375.255.734.93.734.391 0 1.29-.194 1.29-1.185zm1.71 1.8c.105.721.301.99.511 1.185 0 .18-.96.825-1.665.825-.061 0-.391-.345-.481-1.155 0 0 0-.03-.014-.03-.016 0-.045.03-.045.03s-.795.63-1.906.63c-1.349 0-2.174-.705-2.174-1.98 0-2.624 3.464-2.97 3.764-2.97.016 0 .03-.015.03-.015 0-.434-.554-.735-1.86-.735-.404 0-.915.03-1.095.061h-.014c0-.436.359-1.186.524-1.366.016-.014.33-.104 1.05-.104 2.28 0 3.33.854 3.33 2.67v.764c0 .75 0 1.875.045 2.19"/><path d="m74.954 5.649c-.045-.015-.195-.029-.195-.029-1.531 0-1.935 1.335-1.935 1.425v1.319c0 .855 0 1.801-.045 1.846-.36.344-1.261.404-1.65.404-.06 0-.12 0-.12-.045.09-.495.105-1.395.105-2.37 0-1.199-.03-2.534-.03-3.404 0-.541.015-.901.059-.946.21-.21.826-.42 1.366-.42.134 0 .315.031.315.075-.016.135-.045.706-.045 1.095 0 .03 0 .346.029.346.016 0 .031 0 .061-.03 0 0 .84-1.201 2.234-1.201 0 0 .121.196.121.571 0 1.005-.27 1.364-.27 1.364"/><path d="m77.488 2.439c0-.255.721-1.274 1.11-1.499.316 0 .915.435.915.675-.434.269-1.32 1.095-1.485 1.29-.194 0-.51-.301-.54-.466m1.665 4.83c0-.18 0-.33-.015-.33-.54 0-2.205.271-2.205 1.351 0 .375.255.734.93.734.391 0 1.29-.194 1.29-1.185zm1.71 1.8c.105.721.301.99.511 1.185 0 .18-.96.825-1.665.825-.061 0-.391-.345-.481-1.155 0 0 0-.03-.014-.03-.016 0-.045.03-.045.03s-.795.63-1.906.63c-1.349 0-2.174-.705-2.174-1.98 0-2.624 3.464-2.97 3.764-2.97.016 0 .031-.015.031-.015 0-.434-.555-.735-1.861-.735-.404 0-.915.03-1.095.061h-.014c0-.436.359-1.186.524-1.366.016-.014.33-.104 1.05-.104 2.28 0 3.33.854 3.33 2.67v.764c0 .75 0 1.875.045 2.19"/><path d="m82.259 4.975c0-.569.016-.944.075-1.005.21-.21.825-.42 1.365-.42.135 0 .315.03.315.075-.015.121-.045.496-.045.781 0 .239.016.299.045.299.016 0 .046-.03.046-.03s.72-.945 1.845-.945c1.875 0 1.919 2.46 1.919 5.025 0 .99-.044 1.755-.044 1.755 0 .075-.646.3-1.291.3-.285 0-.495-.075-.495-.075.076-.675.15-1.575.15-2.565 0-1.455-.06-2.594-.885-2.594-.975 0-1.245 1.064-1.245 1.064 0-.015.016.96.016 1.905 0 .826-.016 1.62-.061 1.665-.3.3-1.14.405-1.545.405-.12 0-.225 0-.225-.045.076-.48.105-1.305.105-2.22 0-1.185-.045-2.49-.045-3.375"/><path d="m4.094 22.27c0-.18 0-.33-.015-.33-.54 0-2.205.27-2.205 1.351 0 .375.255.734.93.734.391 0 1.29-.194 1.29-1.185zm1.71 1.8c.105.721.301.99.511 1.185 0 .18-.96.825-1.665.825-.061 0-.391-.345-.481-1.155 0 0 0-.03-.014-.03-.016 0-.045.03-.045.03s-.795.63-1.906.63c-1.349 0-2.174-.705-2.174-1.98 0-2.624 3.464-2.97 3.764-2.97.016 0 .03-.015.03-.015 0-.434-.554-.735-1.86-.735-.404 0-.915.03-1.095.061h-.014c0-.436.359-1.186.524-1.366.016-.014.33-.104 1.05-.104 2.28 0 3.33.854 3.33 2.67v.764c0 .75 0 1.875.045 2.19"/><path d="m13.77 20.365c.015-.03-.226-.03-.226-.03-1.335 0-2.054.974-2.054 2.175 0 .689.314 1.259 1.035 1.259.87 0 1.199-1.019 1.199-1.2 0-.225.016-1.845.046-2.204m1.619.375c0 1.14.016 2.579.09 3.029.075.555.285.991.495 1.2 0 .18-1.05.795-1.68.795-.059 0-.42-.434-.479-1.139 0-.045-.016-.045-.03-.045-.015 0-.045.029-.045.029-.526.75-1.351.901-1.875.901-1.425 0-2.175-1.38-2.175-2.581 0-2.115 1.305-4.049 4.05-4.139 0-.165-.031-1.351-.031-2.22 0-.525.015-.945.045-.976.21-.209.84-.524 1.38-.524.135 0 .375.029.375.06-.059 1.245-.12 4.11-.12 5.61"/><path d="m20.31 20.83h-.12c-.016-.03-.03-.105-.03-.195 0-.165.03-.375.045-.435-.72 0-1.68.659-1.68 2.1 0 .15 0 1.8 1.439 1.8.705 0 1.486-.526 1.486-1.861 0-1.289-.826-1.409-1.14-1.409m-3.495 1.515c0-1.83 1.364-3.75 3.854-3.75 0 0 .72.03.811.12.015.014.029.105.029.21 0 .195-.029.45-.045.54.151.014 1.71.525 1.71 2.639 0 1.786-1.125 3.51-3.21 3.51-2.009 0-3.149-1.394-3.149-3.269"/><path d="m24.3 19.975c0-.569.016-.944.075-1.005.21-.21.825-.42 1.365-.42.135 0 .315.03.315.075-.015.121-.045.496-.045.781 0 .239.016.299.045.299.016 0 .046-.03.046-.03s.72-.945 1.845-.945c1.875 0 1.919 2.46 1.919 5.025 0 .99-.044 1.755-.044 1.755 0 .075-.646.3-1.291.3-.285 0-.495-.075-.495-.075.076-.675.15-1.575.15-2.565 0-1.455-.06-2.594-.885-2.594-.975 0-1.245 1.064-1.245 1.064 0-.015.016.96.016 1.905 0 .826-.016 1.62-.061 1.665-.3.3-1.14.405-1.545.405-.12 0-.225 0-.225-.045.076-.48.105-1.305.105-2.22 0-1.185-.045-2.49-.045-3.375"/><path d="m34.86 20.365c.015-.03-.226-.03-.226-.03-1.335 0-2.054.974-2.054 2.175 0 .689.314 1.259 1.035 1.259.87 0 1.199-1.019 1.199-1.2 0-.225.016-1.845.046-2.204m1.619.375c0 1.14.016 2.579.09 3.029.075.555.285.991.495 1.2 0 .18-1.05.795-1.68.795-.059 0-.42-.434-.479-1.139 0-.045-.016-.045-.03-.045-.015 0-.045.029-.045.029-.526.75-1.351.901-1.875.901-1.425 0-2.175-1.38-2.175-2.581 0-2.115 1.305-4.049 4.05-4.139 0-.165-.031-1.351-.031-2.22 0-.525.015-.945.045-.976.21-.209.84-.524 1.38-.524.135 0 .375.029.375.06-.059 1.245-.12 4.11-.12 5.61"/><path d="m41.205 20.02c-.811 0-1.545.96-1.545 2.146 0 .165 0 .209.06.209.63-.015 1.95-.915 1.95-1.919 0-.316-.24-.436-.465-.436m-3.3 2.385c0-1.949 1.2-3.735 3.63-3.735.705 0 1.89.3 1.89 1.635 0 1.276-1.125 2.64-3.045 3.3 0 .09.315.405 1.095.405.645 0 1.334-.12 1.799-.405 0 0 .016-.015.031-.015.03 0 .045.196.045.285 0 .36-.09.99-.375 1.35 0 0-.51.345-1.965.345-2.1 0-3.105-1.41-3.105-3.165"/><path d="m51.255 20.875c0-.315-.016-.585-.016-.766-.989 0-2.25.75-2.25 2.056 0 1.439 1.29 1.71 2.221 1.71.015-.495.045-1.995.045-3m1.935 2.91c.089 0 .195 0 .285-.015 0 0 .03 0 .03.015 0 .18-.105.869-.601 1.529-.029.061-.045.3-.045.63 0 .51.045 1.231.121 1.71.06.436.27.72.405.885-.226.315-1.141.69-1.71.69-.165-.24-.316-.509-.391-1.275-.045-.39-.045-1.29-.045-2.505-1.154 0-3.989-.135-3.989-3.09 0-3.029 2.955-3.749 4.034-3.749.016-.046.016-.405.016-.45.194-.27.795-.435 1.335-.435.075 0 .314.015.345.045.03.225-.076 3.105-.076 4.95 0 .42 0 .795.016 1.065z"/><path d="m58.319 24.34c0-.03-.015-.03-.015-.03-.48.735-1.275 1.215-1.98 1.215-1.35 0-1.694-1.335-1.8-2.445-.015-.195-.03-.57-.03-1.005 0-1.155.06-2.76.136-2.925 0 0 .389-.315 1.259-.315 0 0 .345 0 .42.075 0 .105-.09 1.305-.09 2.4 0 .33.015.645.03.915 0 0-.015 1.215.841 1.215.779 0 1.229-1.005 1.214-1.14v-.51c0-1.065.045-2.85.09-2.955.09-.15.66-.435 1.335-.435.09 0 .33.015.375.06 0 .105-.12 2.535-.12 4.185 0 .585.015 1.08.06 1.32.089.63.225.93.405 1.2 0 .18-1.035.81-1.665.81-.06 0-.375-.39-.45-1.321z"/><path d="m63.209 19.24c0 .074-.045 1.814-.045 3.194 0 .691.015 1.29.045 1.545.075.63.226.93.405 1.2 0 .18-1.035.81-1.665.81-.059 0-.36-.39-.45-1.319-.015-.196-.03-.691-.03-1.306 0-1.545.046-3.824.105-3.944 0 0 .345-.271 1.215-.271 0 0 .345 0 .42.091m-.93-.945c-.554 0-.915-.361-.915-1.02 0-.511.526-1.006 1.065-1.006.54 0 .93.375.93 1.006 0 .539-.54 1.02-1.08 1.02"/><path d="m67.513 20.02c-.811 0-1.545.96-1.545 2.146 0 .165 0 .209.06.209.63-.015 1.95-.915 1.95-1.919 0-.316-.24-.436-.465-.436m-3.3 2.385c0-1.949 1.2-3.735 3.63-3.735.705 0 1.89.3 1.89 1.635 0 1.276-1.125 2.64-3.045 3.3 0 .09.315.405 1.095.405.645 0 1.334-.12 1.799-.405 0 0 .016-.015.031-.015.03 0 .045.196.045.285 0 .36-.09.99-.375 1.35 0 0-.51.345-1.965.345-2.1 0-3.105-1.41-3.105-3.165"/><path d="m74.593 20.649c-.045-.015-.195-.029-.195-.029-1.531 0-1.935 1.335-1.935 1.425v1.319c0 .855 0 1.801-.045 1.846-.36.344-1.261.404-1.65.404-.06 0-.12 0-.12-.045.09-.495.105-1.395.105-2.37 0-1.199-.03-2.534-.03-3.404 0-.541.015-.901.059-.946.21-.21.826-.42 1.366-.42.134 0 .315.031.315.075-.016.135-.045.706-.045 1.095 0 .03 0 .346.029.346.016 0 .031 0 .061-.03 0 0 .84-1.201 2.234-1.201 0 0 .121.196.121.571 0 1.005-.27 1.364-.27 1.364"/><path d="m78.793 22.27c0-.18 0-.33-.015-.33-.54 0-2.205.27-2.205 1.351 0 .375.255.734.93.734.391 0 1.29-.194 1.29-1.185zm1.71 1.8c.105.721.301.99.511 1.185 0 .18-.96.825-1.665.825-.061 0-.391-.345-.481-1.155 0 0 0-.03-.014-.03-.016 0-.045.03-.045.03s-.795.63-1.906.63c-1.349 0-2.174-.705-2.174-1.98 0-2.624 3.464-2.97 3.764-2.97.016 0 .03-.015.03-.015 0-.434-.554-.735-1.86-.735-.404 0-.915.03-1.095.061h-.014c0-.436.359-1.186.524-1.366.016-.014.33-.104 1.05-.104 2.28 0 3.33.854 3.33 2.67v.764c0 .75 0 1.875.045 2.19"/><path d="m82.124 26.14c-.15 0-.585-.63-.585-1.335v-.105c1.725 0 2.399-.765 2.399-1.245 0-.87-2.399-1.335-2.399-2.625 0-1.245 1.875-2.445 3.569-2.445.165 0 .63.615.646 1.26-.226 0-2.085.315-2.085 1.11 0 .75 2.34 1.185 2.385 2.745 0 1.755-2.76 2.64-3.93 2.64"/><path d="m87.898 25.284c-.555 0-1.005-.449-1.005-1.005 0-.555.45-1.005 1.005-1.005.556 0 1.006.45 1.006 1.005 0 .556-.45 1.005-1.006 1.005m-.645-3.135c0-3.21-.509-6.719-.509-6.719.165-.166 1.139-.195 1.139-.195.75 0 1.185.195 1.17.27-.014.09-.314 1.469-.314 2.025 0 .54-.226 4.02-.256 4.59 0 0-.3.104-.614.104-.406 0-.616-.075-.616-.075"/></g></svg>