<svg enable-background="new 0 0 557.86 531.82" viewBox="0 0 557.86 531.82" xmlns="http://www.w3.org/2000/svg"><path d="m185.9 124.28c-.76-3.9-1.43-7.81-2.13-11.71-1.2-6.7-1.24-13.47-1.15-20.24.04-2.71-.24-5.36-1.07-7.95-.32-1-.75-1.32-1.87-1.06-3.46.82-6.83.52-10.02-1.17-3.32-1.76-3.98-4.42-1.83-7.44.54-.76 1.09-1.52 1.94-2.7-1.76 0-3.04 0-4.31 0-1.6 0-2.92-.61-4-1.77-2.17-2.33-2.2-4.59.55-6.19 8.05-4.68 13.44-11.92 18.99-19.04 3.04-3.9 6.09-7.79 9.24-11.6 3.44-4.17 7.38-7.74 12.15-10.45 4.35-2.47 8.96-3.51 13.85-3.72 5.42-.24 10.65.33 15.73 2.57 5 2.21 10.23 3.87 15.29 5.93 1.46.6 2.24-.19 3.16-.85 3.98-2.86 8.34-4.97 13.11-6.01 6.74-1.46 13.6-2.35 20.48-1.69 6.18.59 11 3.94 15.06 8.52 2.2 2.48 4.46 4.93 6.86 7.22 7.11 6.78 15.87 10.51 25.14 13.24 1.96.58 3.93 1.1 5.88 1.71 2.02.63 2.35 1.14 2.51 3.18.14 1.82-.41 3.36-1.55 4.77-1.95 2.42-3.83 4.9-5.82 7.44.64.91 1.29 1.75 1.86 2.64 2.47 3.86 2.22 7.14-.72 10.56-1.71 1.99-3.69 3.59-6.17 4.53-2.31.87-4.57 1.87-6.91 2.65-1.29.43-1.57 1.19-1.61 2.4-.08 3.11-.29 6.21-.41 9.32-.28 7.1-1.61 14.05-2.94 21.01-.06.32-.18.62-.23.94-.18 1.16-.79 2.55-.36 3.41.4.8 1.99.94 2.94 1.56 7.88 5.11 11.54 11.6 5.18 21.47-3.47 5.38-8.82 7.63-15.03 8.16-2.75.24-5.03-.87-7.15-2.45-.5-.37-1-.76-1.77-1.35-.69 2.8-1.43 5.37-1.94 7.98-1.55 7.96-5.05 15.11-9.62 21.63-2.56 3.65-6.16 6.59-10.5 8.32-1.47.59-2.88 1.33-4.27 1.97.71 2.54 2.01 3.7 4.52 3.4.9-.11 1.92.23 2.81.57 7.61 2.88 14.59 6.87 20.8 12.12 1.45 1.22 2.5 2.93 3.63 4.5 1.95 2.7 3.74 5.52 5.75 8.18 2.29 3.03 4.01 6.34 5.6 9.77 3.3 7.11 6.51 14.28 10.08 21.26 2.51 4.92 4.24 10.08 5.95 15.29 1.2 3.66 2.61 7.26 3.93 10.88.11.3.28.58.4.88 1.81 4.19 1.58 4.71-2.72 6.21-1.12.39-2.2.88-3.33 1.23-1.27.39-1.66 1.25-1.48 2.47.11.74.22 1.49.41 2.21 2.07 7.91 3.21 15.97 4.25 24.06.6 4.67 1.7 9.28 2.57 13.91.36 1.9.94 3.78 1.02 5.69.08 1.85.76 3.32 1.79 4.72.83 1.12 1.74 2.19 2.53 3.34 4.51 6.55 9.01 13.1 13.47 19.69 1.95 2.88 3.07 6.14 4.04 9.45.24.82.34 1.69.39 2.54.22 3.8-1.88 5.82-5.69 5.48-.83-.07-1.64-.32-2.73-.54 0 2.78.1 5.45-.03 8.1-.11 2.35-.31 4.71-.75 7.02-.64 3.35-3.79 5.04-6.86 3.51-1.69-.85-2.62-.49-3.95.52-2.89 2.19-5.04 1.82-7.02-1.15-.53-.79-.91-1.23-1.91-1.33-3.39-.34-5.23-2.37-5.42-5.92-.09-1.72-.05-3.44.01-5.16.16-5.15.39-10.3.53-15.46.04-1.38-.03-2.79-.25-4.16-.12-.73-.88-1.06-1.46-.44-.94 1.02-1.96 2.06-2.56 3.29-1.43 2.95-4.01 4.76-6.49 6.57-1 .73-2.76.42-4.39.61.15 1.19.3 2.64.54 4.09 1 6.14 2.2 12.25 3 18.41 1.25 9.6 3.25 19.01 5.89 28.33 1.46 5.15 2.26 10.47 3.45 15.7 1.26 5.54 2.83 11.02 3.88 16.6 1.07 5.68 1.7 11.45 2.46 17.19.28 2.13.41 4.28.52 6.42.1 1.91-.15 3.91 1.86 5.14.33.2.66.68.69 1.05.19 2.42 1.95 2.57 3.71 2.54 5.54-.11 10.47 1.99 15.43 4.04 2.38.98 4.73 2.07 7.13 2.99 2.68 1.03 4.89 2.65 6.74 4.82 1.74 2.05 3.67 3.95 5.26 6.11 1.65 2.24 3.08 4.66 4.41 7.1 1.03 1.88.91 3.92.13 5.93-1.24 3.19-3.45 4.52-6.96 4.5-13.13-.08-26.26-.03-39.38.11-6.45.07-12.9.39-19.34.68-3 .13-6 .66-8.99.63-3.96-.03-7.92-.43-11.88-.68-3.21-.2-6.42-.44-9.63-.63-.96-.06-1.94.03-2.9-.01-2.53-.1-2.97-.54-3.05-3.08-.19-6.09 1.02-11.94 3.07-17.65-.86-.57-1.93-.98-2.49-1.75-.51-.71-.49-1.81-.67-2.75-.47-2.42-.93-4.85-1.37-7.27-.19-1.05-.39-2.11-.44-3.18-.25-6.12-.41-12.24-.69-18.36-.12-2.57-.51-5.12-.71-7.69-.64-8.02-1-16.08-1.94-24.07-1.24-10.5-1.05-21.02-1.25-31.55-.05-2.57-.35-5.14-.64-7.7-.93-8.02-1.23-16.06-1.11-24.13.01-.77-.4-2.18-.69-2.2-1.23-.09-2.53.13-3.73.49-.27.08-.34 1.15-.34 1.76-.01 3.23.1 6.45.05 9.68-.21 13.86-.39 27.73-.72 41.59-.1 4.29-.66 8.56-.98 12.85-.1 1.39-.15 2.79-.14 4.19.06 6.88-.36 13.73-1.19 20.57-.41 3.41-.42 6.86-.58 10.3-.3 6.54-.45 13.1-.91 19.63-.23 3.27-.06 6.66-1.6 9.75-.22.44-.2 1.05-.13 1.56.58 4.35 1.06 8.71 2.26 12.96.14.51.23 1.06.24 1.59.05 2.19-.9 3.42-3.2 3.69-4.37.52-8.76.9-13.15 1.31-3.31.31-6.63.59-9.94.87-2.24.19-4.49.47-6.73.53-10.32.27-20.65.46-30.97.7-5.48.13-10.96.39-16.44.4-3.65.01-7.32-.18-10.95-.53-1.43-.14-2.9-.77-4.18-1.48-1.48-.82-2.05-2.21-2.13-4.03-.17-3.92 1.32-7.2 3.67-10.07 5.92-7.22 12.64-13.5 21.62-16.84 1.91-.71 3.79-1.51 5.7-2.25 2.74-1.06 5.56-1.58 8.52-1.43 1.03.05 2.49.16 3.05-.43 1.37-1.43 3.2-2.67 3.45-4.9.6-5.33 1.58-10.65 1.66-15.99.23-14.4.1-28.81.06-43.22-.02-7.42.37-14.82 1.28-22.18.1-.85.11-1.72.13-2.58.24-9.56.39-19.13.75-28.68.16-4.39.8-8.77 1.07-13.16.2-3.22.11-6.45.22-9.67.12-3.54.29-7.07.51-10.61.07-1.06.05-1.87-1.2-2.24-1.11-.33-1.31-1.34-1.28-2.36.15-4.72.16-9.45.54-14.15.54-6.65.82-13.3.66-19.96-.04-1.88-.1-1.86-1.98-2.14-1.91-.29-3.81-.61-5.71-.96-1.03-.19-1.66.19-2.01 1.13-.23.6-.44 1.21-.63 1.82-2.2 7.07-4.49 14.12-6.56 21.23-.96 3.29-1.65 6.67-2.16 10.06-.72 4.81-1.99 9.44-3.59 14.01-.61 1.75-.61 1.84 1.03 2.65 3.25 1.61 5.54 4.05 6.71 7.47 1.15 3.35 2.35 6.69 3.24 10.11 1.22 4.7 3.18 8.84 6.93 12.09 2.26 1.96 2.28 4.65.2 6.78-2.13 2.19-4.95 3.23-7.88 3.11-2.64-.11-4.49-1.93-5.46-4.42-.51-1.3-.78-2.7-1.36-3.95-.77-1.64-1.7-3.22-2.65-4.77-.24-.39-.86-.82-1.26-.77-.34.04-.75.67-.89 1.12-.23.7-.37 1.47-.38 2.21-.03 4.41-.11 8.82.02 13.23.07 2.13.61 4.24.87 6.37.16 1.27.21 2.56.3 3.85.34 4.78-4.05 8.74-8.67 7.95-.35-.06-.95.3-1.14.63-.68 1.21-1.09 2.63-2.8 2.81-1.79.18-3.62-.01-4.75-1.44-1.09-1.39-2.11-1.24-3.6-.92-2.25.48-4.26-.27-5.62-2.27-1.48-2.17-2.48-4.51-2.44-7.21.03-1.93.01-3.86.01-5.78-1.39.24-2.65.69-3.88.63-1.92-.09-3.12-1.43-3.2-3.37-.1-2.36-.04-4.68.65-7.02 2.18-7.43 4.67-14.74 7.93-21.77 1.79-3.86 4.16-7.26 7.43-10.03.82-.69 1.55-1.5 2.35-2.21 1.1-.98 1.61-2.16 1.73-3.66.28-3.53.6-7.06 1.14-10.55 1.92-12.52 4.43-24.92 8.26-37.03.55-1.74.96-3.52 1.41-5.29.33-1.28.17-2.27-1.31-2.82-3.44-1.27-5.85-3.93-8.41-6.39-.95-.91-1.09-1.87-.79-3.19 1.26-5.49 3.52-10.61 5.8-15.7 2.37-5.29 5.16-10.39 7.66-15.62 1.48-3.1 2.71-6.31 4.12-9.44 1.18-2.64 2.2-5.4 3.74-7.81 3.99-6.24 7.67-12.69 12.64-18.27 4.01-4.52 8.15-8.87 13.01-12.47 3.5-2.59 7.31-4.54 11.62-5.33 1.16-.21 1.94-.61 2.53-1.68.61-1.11 1.47-2.08 2.32-3.25-.73-.33-1.4-.62-2.06-.93-3.3-1.54-6.65-2.99-9.89-4.66-1.2-.62-2.22-1.68-3.19-2.67-3.09-3.16-5.89-6.51-7.69-10.64-.94-2.16-2.27-4.14-3.36-6.23-1.5-2.88-2.52-5.92-2.88-9.17-.13-1.13-.53-2.23-.93-3.82-1.26 1.15-1.91 1.88-2.69 2.43-.69.48-1.5 1.05-2.28 1.09-3.97.23-7.97.53-11.66-1.51-1.13-.62-2.26-1.26-3.43-1.8-8.26-3.88-9.22-14.43-7.02-20.06 1.67-4.27 5.05-7 8.98-7.77zm2.6 2.15c1.4.1 2.83.44 4.25 1.03.48.2.97.4 1.67.68.12-.78.3-1.38.3-1.98.01-11.33 1.85-22.43 4.09-33.5 1.15-5.67 2.07-11.39 3.1-17.09.22-1.23.5-2.45.85-4.17-3.87 1.51-7.2 2.89-10.6 4.1-2.83 1-5.71 1.87-8.61 2.65-1.12.3-2.34.25-3.52.25-.5 0-1.11-.19-1.48-.51-.34-.29-.53-.88-.54-1.35-.01-.2.59-.55.95-.6 1.17-.16 2.39-.05 3.52-.32 2.5-.6 5-1.26 7.43-2.1 2.94-1.02 5.86-2.14 8.71-3.39 7.27-3.2 13.01-8.27 17.47-14.81 1.93-2.84 3.79-5.69 6.24-8.18 4.39-4.46 9.44-5.96 15.56-4.64 6.34 1.37 8.52 2.63 13.51 8.89.47-.56.96-1.04 1.35-1.6 1.67-2.43 3.79-4.39 6.28-5.94 2.14-1.33 4.45-2.11 7.01-2.12 6.3-.03 11.79 1.79 16.26 6.48 2.89 3.03 6.12 5.72 9.11 8.66 2.59 2.55 5.06 5.23 7.59 7.85.37.39.68.86 1.11 1.16 4.48 3.18 9.07 6.21 14.45 7.66 1.5.4 3.17.2 4.76.18.5-.01 1.19-.44 1.27.33.06.52-.26 1.29-.68 1.61-.46.35-1.23.48-1.84.41-2.12-.25-4.38-.23-6.29-1.03-3.36-1.4-6.5-3.3-9.72-5.04-.93-.5-1.8-1.13-3.05-1.93-.09 1.21-.22 2.11-.2 3 .21 10.1.45 20.2.66 30.3.08 3.76-.01 7.53.11 11.29s.39 7.51.62 11.26c.02.28.21.56.4 1.03 3.2-1.6 6.55-2.13 10.03-1.94 1.03.05 1.51-.39 1.68-1.47.8-4.97 1.71-9.93 2.52-14.9 1.02-6.27 1.46-12.57 1.34-18.93-.06-3.21.09-3.1 3.22-4.16 2.94-.99 5.93-2.06 8.61-3.59 1.89-1.08 3.49-2.85 4.88-4.59 1.47-1.84.67-3.92-.37-5.74-.58-1.02-1.47-1.85-2.14-2.82-1.03-1.49-.9-1.97.28-3.35 2.02-2.37 3.95-4.81 5.91-7.23.27-.33.51-.7.67-1.1.73-1.78.27-2.75-1.66-3.24-6.69-1.68-13.2-3.91-19.42-6.88-2.02-.96-3.89-2.26-5.73-3.54-1.68-1.16-3.24-2.49-4.84-3.76-3.12-2.48-5.88-5.26-8.37-8.43-4.05-5.14-9.53-7.98-16.16-8.1-2.88-.05-5.78.36-8.67.61-6.04.51-11.95 1.62-17.27 4.71-2.59 1.51-4.98 3.36-7.48 5.01-.38.25-.92.27-1.39.39.03-.39.17-.81.07-1.16-.12-.44-.33-1.04-.68-1.21-.76-.37-1.64-.48-2.45-.75-1.93-.65-3.88-1.25-5.77-2.01-3.19-1.27-6.31-2.73-9.52-3.95-1.38-.52-2.91-.74-4.4-.91-9.46-1.08-18.18.46-25.54 7.11-3.05 2.76-5.72 5.79-8.25 9.01-5.39 6.83-10.9 13.58-16.47 20.27-1.29 1.54-2.98 2.77-4.59 4.01-1.53 1.19-3.21 2.16-4.76 3.33-.55.41-1.34 1.31-1.21 1.64.33.8 1.05 1.58 1.81 2.03.58.34 1.46.2 2.22.2 1.4.02 2.8-.09 4.19-.01 1.77.11 2.44 1.35 1.59 2.9-.36.65-.9 1.2-1.36 1.8-.59.77-1.26 1.49-1.74 2.32-.8 1.39-.55 2.45.83 3.28 2.56 1.55 5.32 2.26 8.34 1.69 1.16-.22 2.33-.38 3.51-.43.98-.05 1.6.5 1.73 1.53.51 4.04 1.62 8.01 1.26 12.13-.03.32.01.65-.01.97-.46 8.54.69 16.92 2.28 25.28.2 1.05.32 2.13.32 3.19zm141.39 360.98c-.72-1.48-1.44-2.38-1.57-3.36-.72-5.51-1.21-11.05-1.96-16.55-.86-6.27-1.8-12.53-3.77-18.59-.56-1.73-1.02-3.51-1.33-5.3-1.47-8.58-3.62-16.98-5.96-25.36-1.53-5.46-2.6-11.06-3.57-16.65-1.61-9.29-2.99-18.63-4.45-27.95-.51-3.28-1.16-6.56-1.39-9.86-.58-8.24-.82-16.5-1.48-24.73-.33-4.19-.04-4.09-4.45-3.53-3.4.43-6.74 1.33-10.14 1.74-4.9.6-9.83 1.01-14.75 1.39-6 .47-12 1.06-18 1.16-10.11.18-20.23.09-30.34-.03-3.21-.04-6.44-.39-9.61-.9-5.55-.89-5.48-.98-5.48 4.72 0 6.13.22 12.28-.23 18.38-.63 8.68-1.15 17.36-1.26 26.06-.08 6.34-.36 12.68-.56 19.02-.02.75-.1 1.5-.16 2.25-.35 4.6-.96 9.2-1 13.8-.05 6.55.51 13.1.48 19.64-.04 9.67-.32 19.34-.58 29-.07 2.67-.11 5.42-.77 7.98-.86 3.34.29 7.1-2.53 10.12 5.42.36 10.43.91 15.45.97 5.16.06 10.11.88 14.64 3.27 5.39 2.85 11.2 4.14 17.32 5.55.14-1.03.34-1.95.39-2.88.24-4.39.46-8.79.65-13.19.25-5.69.45-11.38.69-17.07.04-.97.13-1.93.21-2.89.35-4.28.79-8.55 1.04-12.83.21-3.54.14-7.09.34-10.63.23-3.96.78-7.91.91-11.88.37-10.85.61-21.7.89-32.56.1-3.97.18-7.95.25-11.93.06-2.9.07-5.81.15-8.71.03-1.19-.35-1.79-1.65-1.75-1.18.04-2.37-.01-3.54-.18-.39-.06-.7-.63-1.04-.96.31-.24.62-.49.95-.71.08-.05.21-.02.32-.03 7.52-.28 15.03-.57 22.55-.83.63-.02 1.31.06 1.89.28.27.1.47.65.51 1.02.02.22-.29.65-.52.7-.62.13-1.27.14-1.91.14-2.26.01-4.52.02-6.78-.02-1.13-.02-1.86.26-1.82 1.59.21 6.98.34 13.96.62 20.93.15 3.75.67 7.49.83 11.24.26 6.23.24 12.47.54 18.69.4 8.15.98 16.29 1.54 24.43.23 3.32.62 6.62.93 9.94.48 5.13 1.33 10.25 1.37 15.38.06 8.19.56 16.29 2.09 24.34.32 1.68.62 1.81 2.41 1.31 2.06-.58 4.14-1.07 6.24-1.45 2.63-.48 5.37-.55 7.93-1.28 3.5-1 6.96-2.27 10.29-3.76 7.86-3.51 16.17-5.01 24.64-5.88 1.14-.12 2.24-.5 3.54-.81zm-118.95-258.17c.29.01.57.03.86.04.15.68.41 1.36.42 2.04.06 4.19.23 8.39.03 12.57-.28 5.79-1.12 11.55-1.23 17.34-.2 10.53-.03 21.07-.01 31.6 0 1.17-.07 2.36.88 3.32.24.24.38.9.22 1.18-1.26 2.23-.56 4.63-.67 6.95-.21 4.28-.31 8.58-.49 12.86-.21 5.04-.51 10.07-.66 15.11-.08 2.59-.01 2.78 2.47 3.15 4.76.73 9.55 1.56 14.35 1.74 7.95.3 15.92.05 23.87.14 10.12.12 20.15-1.02 30.22-1.76 8.17-.61 16.1-2.57 24.2-3.44 1.82-.19 1.9-.38 1.66-1.94-.75-4.98-1.57-9.95-2.26-14.93-.6-4.35-1.14-8.72-1.56-13.09-.53-5.44-.9-10.89-1.38-16.33-.12-1.39-.4-2.76-.59-4.14-.4-2.86-.61-5.77-1.2-8.59-1.45-6.94-2.88-13.86-2.75-21.01.05-2.56-.42-5.12-.67-7.69-.27-2.78-.56-5.55-.83-8.33-.3-3.09-.59-6.18-.89-9.27-.01-.11-.01-.22.01-.32.08-.81.36-1.61 1.27-1.5.45.05 1.09.7 1.19 1.17.33 1.57.49 3.17.65 4.77.14 1.39.16 2.78.28 4.17.54 5.98 1.55 11.96 1.54 17.94-.01 8.49 2.58 16.51 3.62 24.79.13 1.01.62 1.45 1.79 1.07 7.89-2.54 15.73-5.16 22.71-9.79 1.73-1.15 1.78-1.12 1.27-3.08-1.28-4.9-3.07-9.58-5.31-14.14-3.61-7.32-7.01-14.75-10.41-22.17-1.66-3.63-3.55-7.1-5.92-10.32-1.78-2.42-3.5-4.9-5.1-7.44-1.46-2.31-3.18-4.34-5.34-5.97-5.52-4.17-11.43-7.64-17.91-10.13-1.22-.47-2.42-.86-3.86-.19.12.51.22 1.01.35 1.49.78 3.11 2.01 6.19 2.26 9.35.37 4.69.24 9.44-.02 14.15-.18 3.32-1.9 6.13-4.28 8.45-1.51 1.48-3.85 1.67-5.62.45-.88-.61-1.6-1.43-2.44-2.09-1.04-.81-1.88-1.94-3.53-2.35.39 4.54.83 8.79 1.11 13.05.32 4.93.31 9.89.81 14.8.36 3.58.17 7.08-.27 10.6-.33 2.66-1.83 3.99-4.53 4.07-2.26.07-4.52.04-6.77-.08-3.07-.16-5.26-1.88-6.12-4.84-.32-1.12-.49-2.33-.45-3.49.15-5.15.35-10.3.62-15.45.14-2.68.48-5.34.73-8.02.34-3.63.7-7.26 1.01-10.89.06-.7-.07-1.41-.14-2.64-1.43 1.5-2.48 2.7-3.64 3.79-.93.87-1.88 1.83-3.01 2.36-2.03.97-4.19 1.19-6.03-.48-2.74-2.49-4.88-5.36-5.96-9.01-1.34-4.54-1.27-9.11-.85-13.72.18-1.98.46-3.95.73-6.22-1.13.31-2.03.38-2.73.79-3.24 1.89-6.56 3.68-9.59 5.87-4.56 3.28-8.2 7.54-11.86 11.79-5.23 6.07-9.03 13.07-13.35 19.73-.75 1.15-1.22 2.52-1.65 3.84-1.66 5.02-4 9.72-6.43 14.4-2.32 4.48-4.33 9.12-6.56 13.65-.69 1.41-.46 2.45.7 3.4.5.41.96.88 1.49 1.23 7.58 5.05 15.61 8.97 24.77 10.2 4.31.58 4.23.68 4.3-3.54.14-8.06-.01-16.14.64-24.16.61-7.49 1.3-14.96 1.32-22.49.03-1.43.35-2.9.52-4.37zm85.81-144.33c0-6.99.04-11.94-.04-16.88-.02-1.01-.21-2.25-.81-2.96-2.08-2.45-4.32-4.77-6.61-7.04-2.37-2.34-4.87-4.55-7.29-6.83-1.17-1.1-2.23-2.34-3.48-3.36-4.15-3.39-9.01-4.7-14.18-3.63-6.05 1.24-9.84 5.34-12.05 10.99-.2.51-.65.93-.99 1.39-.34-.38-.75-.72-1-1.15-.81-1.37-1.42-2.88-2.36-4.16-2.92-3.97-7.02-5.75-11.84-6.33-4.33-.53-8 .35-11.24 3.45-2.21 2.11-4.05 4.46-5.61 7.02-2.55 4.18-5.67 7.82-9.57 10.79-1.2.91-2.4 1.83-3.49 2.86-.5.47-.93 1.17-1.07 1.83-.51 2.41-.89 4.85-1.32 7.28-1.01 5.7-1.98 11.4-3.03 17.09-1.7 9.18-3.44 18.35-3.46 27.74-.01 2.36.25 4.76-.07 7.08-.29 2.11.1 3.99.68 5.95 1.79 6.01 4.38 11.66 7.55 17.05.94 1.59 1.94 3.06 1.02 5.06-.22.47.12 1.26.33 1.85.65 1.82 1.24 3.67 2.08 5.4 1.22 2.51 2.75 4.87 3.95 7.39 3.6 7.57 9.41 12.65 17.19 15.56 1.8.68 3.63 1.47 5.51 1.73 3.08.43 6.21.56 9.32.65 7 .21 14-.11 20.88-1.35 5.75-1.04 10.99-3.45 15.64-7.19 3.74-3 5.93-6.99 8.15-11.06 3.45-6.32 4.87-13.27 6.5-20.16.57-2.39 1.16-4.82 1.33-7.26.35-5.03.53-10.07.56-15.11.02-3.21-.45-6.42-.52-9.64-.3-12.02-.48-24.06-.66-34.05zm-113.53 264.3c.31-1.11.55-1.92.75-2.74 1.21-4.78 2.48-9.55 3.61-14.35.98-4.17 1.63-8.42 2.74-12.55 1.22-4.56 2.81-9.01 4.2-13.52.76-2.46 1.44-4.94 2.14-7.42.26-.94.12-1.62-1.01-1.94-3.82-1.09-7.61-2.27-11.41-3.4-1.63-.48-1.84-.36-2.2 1.22-.64 2.82-1.19 5.67-1.89 8.47-3.68 14.67-7.01 29.41-8.04 44.56-.05.8-.28 1.76-.79 2.34-1.75 2.01-3.79 3.77-5.46 5.84-1.81 2.24-3.59 4.59-4.92 7.13-3.9 7.46-6.34 15.49-8.63 23.54-.48 1.7-.22 3.62-.17 5.44.01.32.89.96 1.01.88 1.07-.66 2.18-1.35 3.03-2.26.43-.46.45-1.39.49-2.11.22-4.22 1.04-8.3 2.63-12.21.34-.84.83-1.63 1.36-2.65 1.07 1.31.58 2.35.3 3.32-2.44 8.28-2.51 16.71-1.78 25.21.16 1.89 1.04 3.5 2.32 4.85.78.83 2.76 1.1 3.61.49 1.24-.89.37-1.92.01-2.87-.46-1.2-1.03-2.37-1.41-3.6-.48-1.53-1.09-3.09-1.17-4.66-.38-7.66.56-15.21 2.12-22.69.15-.71.19-1.77 1.64-1.83-.29 3.23-.53 6.41-.86 9.57-.92 8.83-1.45 17.59 3.25 25.71.21.37.26.84.5 1.18.38.51.81 1.02 1.32 1.39 1.36.99 2.5.73 3.01-.84.39-1.19.67-2.52.57-3.76-.34-4.48-1.03-8.93-1.25-13.41-.23-4.72-.09-9.45-.09-14.18 0-1.29 0-2.59.16-3.86.05-.42.61-.77.94-1.15.32.36.77.68.91 1.11.16.48.08 1.06.05 1.6-.46 8.38.2 16.74.7 25.1.12 2.04.39 4.1 1.73 5.77.35.43 1.07.87 1.58.82 2.3-.23 4.29-2.43 4.35-4.81.05-2.04.21-4.15-.23-6.1-1.18-5.32-1-10.67-.93-16.03.05-3.47.88-6.8 2.44-9.93.68-1.36 1.77-2.03 2-1.43.21.54-.18 1.31-.32 1.98-.04.21-.09.42-.15.68 2.97 1.82 4.62 4.64 5.74 7.84.32.91.62 1.83.95 2.74 1.45 4.03 3.48 4.9 7.45 3.18.39-.17.79-.34 1.16-.55 2.36-1.35 2.62-2.93.61-4.8-3.33-3.11-5.39-6.92-6.59-11.25-.69-2.48-1.3-4.98-2.07-7.44-1.62-5.3-3.87-10.11-10.01-11.62zm151.9 11.08c.53 1.75.71 3.13.61 4.67-.37 5.68-.59 11.37-.8 17.06-.1 2.8-.38 5.54-1.23 8.25-.37 1.17-.36 2.58-.12 3.8.33 1.68 2.09 2.23 3.51 1.24 1.44-1 2.45-2.28 3.11-3.98 1.42-3.66 1.96-7.49 2.19-11.33.27-4.38.58-8.79-.3-13.17-.25-1.26-.32-2.56-.37-3.84-.01-.34.42-1 .53-.98.46.1.9.37 1.3.65.14.1.19.38.22.59.27 2.34.72 4.68.76 7.02.12 7.19.33 14.42-2.29 21.33-.45 1.2.16 1.86 1.09 2.33 1.94.99 3.75.03 4.24-2.38.82-4.02 1.2-8.09.56-12.16-.95-6.04-2.04-12.05-3.02-18.09-.11-.7-1.08-1.77.29-2.06.38-.08 1.1 1.06 1.53 1.73.28.43.34 1.01.45 1.54.58 2.73 1.08 5.47 1.73 8.18.29 1.23.73 2.48 1.34 3.58.86 1.54 2.85 2.08 4.5 1.43 1.66-.65 2.25-1.83 1.65-3.97-1.2-4.25-2.75-8.33-5.33-12.01-4.93-7.04-9.7-14.19-14.54-21.29-1.51-2.23-3.03-4.42-2.61-7.38.11-.8-.34-1.67-.51-2.51-.87-4.31-2.02-8.58-2.55-12.93-1.15-9.49-2.79-18.87-4.7-28.23-.19-.91-.61-1.44-1.53-1.05-3.26 1.39-6.49 2.85-9.73 4.27-.99.44-1.02 1.14-.82 2.12 1.31 6.18 2.57 12.38 3.83 18.57 1.07 5.25 2.14 10.5 3.18 15.76.64 3.26 1.21 6.53 1.86 9.79.44 2.22-.31 3.93-1.89 5.5-1.13 1.12-2.28 2.36-2.93 3.77-1.31 2.81-2.51 5.72-3.33 8.7-.91 3.3-2.2 6.3-4.71 8.64-1.71 1.59-1.52 3.47-1.13 5.37.33 1.6 3 2.87 4.03 1.94 1.96-1.78 4.29-3.13 5.6-5.68.9-1.75 2.57-3.11 3.89-4.64.4-.46.8-.92 1.17-1.41.29-.38.53-.79.79-1.19.45.39 1.14.71 1.29 1.19.53 1.73 1.22 3.52 1.22 5.28 0 7.2-.28 14.39-.32 21.59-.01 1.44.46 2.93.95 4.31.21.58 1.02 1.28 1.59 1.31.52.02 1.25-.69 1.6-1.25 1.67-2.66 1.68-5.75 1.88-8.71.39-5.89.51-11.8.76-17.7.04-1.17-.05-2.4 1.51-3.57zm-82.51 154.37c-.61-3.99-1.24-7.66-1.7-11.36-.18-1.42-.8-2.13-2.15-2.36-.53-.09-1.03-.35-1.55-.41-4.54-.55-8.64-2.36-12.77-4.22-2.9-1.31-6.04-2.34-9.18-2.81-4.11-.61-8.32-.62-12.49-.76-3.21-.11-6.44.21-9.62-.06-6.64-.57-12.78.87-18.64 3.88-.86.44-1.76.81-2.65 1.18-6.51 2.76-11.16 7.81-16.44 13.06 1.4-.09 2.22-.14 3.03-.2 1.92-.14 3.84-.41 5.76-.42 2.68-.01 4.73 1.24 6.08 3.56.38.65.71 1.33.97 2.03.43 1.19 1.27 1.57 2.48 1.61 3.97.12 7.93.4 11.9.45 15.14.19 30.26-.21 45.32-1.94 3.83-.43 7.65-.81 11.65-1.23zm116.27-5.99c-1.94-2.17-3.54-3.76-4.89-5.53-1.89-2.49-4.28-4.14-7.17-5.26-2.6-1.01-5.06-2.39-7.7-3.28-4.24-1.42-8.36-3.31-13.03-3.29-1.85.01-3.71-.77-5.57-1.18-.49-.11-1-.25-1.48-.2-2.35.25-4.71.45-7.03.87-5.27.96-10.62 1.63-15.66 3.63-4.19 1.67-8.39 3.33-12.63 4.88-1.6.58-3.3.92-4.99 1.2-2.43.4-4.89.66-7.34.93-2.23.25-3.47 1.52-3.95 3.64-.61 2.72-1.24 5.43-1.79 8.17-.35 1.76-.09 2.1 1.78 2.05 3.54-.11 7.08-.43 10.62-.51 12.14-.28 24.29-.48 36.44-.74 9.99-.21 19.99-.45 29.98-.67.32-.01.69.08.96-.05.54-.24 1.31-.48 1.5-.93.96-2.22 2.81-2.79 4.94-2.99s4.24-.44 7.01-.74zm-22.33 13.14c0-.02 0-.04 0-.05 7.31 0 14.61.02 21.92-.01 2.61-.01 4.12-1.42 4.48-4 .27-1.96-.56-3.55-1.53-5.12-.5-.8-1.14-1.22-2.11-1.19-2.26.05-4.52-.04-6.77.13-1.48.11-3.03.41-3.46 2.29-.29 1.26-1.19 1.59-2.41 1.62-4.61.13-9.22.37-13.83.49-8.27.22-16.53.42-24.8.56-7.09.12-14.18.19-21.27.23-6.44.03-12.88-.03-19.31-.01-.61 0-1.7.16-1.74.39-.24 1.34-.38 2.74-.19 4.06.05.33 1.44.66 2.22.65 3.65-.03 7.31-.18 10.9.62 4.25.94 8.54.8 12.83.66 2.57-.08 5.12-.5 7.69-.6 7.4-.28 14.81-.54 22.22-.69 5.06-.12 10.11-.03 15.16-.03zm-38.05-160.39c.21.07.41.14.62.21.67-.93 1.52-1.79 1.97-2.82.82-1.85 1.42-3.8 2.07-5.72 1.6-4.67 2.95-9.49 7.25-12.59.8-.58.46-1.26.42-2.01-.24-4.75-1.61-9.27-2.62-13.87-1.57-7.22-2.68-14.53-4.01-21.8-.56-3.05-1.1-6.11-1.81-9.13-.39-1.67-.54-1.65-2.24-1.12-.61.19-1.23.4-1.82.65-2.64 1.13-2.56 1.18-2.62 4.05-.11 5.18.73 10.26 1.49 15.35.9 6.03 1.96 12.04 3.01 18.05.41 2.33.23 2.96-2.22 3.78-1.33.45-1.64 1.14-1.54 2.35.23 2.88.39 5.77.62 8.65.21 2.67.48 5.34.72 8.01.24 2.64.47 5.3.71 7.96zm-54.06-145.82c-.87.93-1.31 1.56-1.89 2.01-1.87 1.46-2.24 3.34-2.34 5.65-.31 7.39-1 14.77-1.41 22.16-.28 5.04-.42 10.08-.47 15.12-.02 2.79 1.47 4.37 4.23 4.78 1.27.19 2.57.13 3.86.17 4.73.15 5.37-.47 5.46-5.25.01-.43.02-.86.01-1.29-.24-6.65-.47-13.3-.71-19.95 0-.11-.01-.22-.03-.32-.73-4.99-1.38-9.99-1.28-15.06.02-.89-.34-1.94-.87-2.65-1.34-1.78-2.88-3.42-4.56-5.37zm-75.23 309.37v.09c10.96-.28 21.93-.54 32.89-.83 5.48-.15 10.97-.25 16.45-.57 4.39-.26 8.76-.82 13.14-1.22 2.99-.28 5.99-.48 8.98-.78.84-.09 1.71-.3 2.48-.66.36-.17.73-.82.72-1.24-.06-2-.76-2.63-2.79-2.5-3.32.21-6.69.25-9.96.81-8.84 1.5-17.76 1.66-26.67 1.8-9.36.15-18.72.02-28.08-.04-4.57-.03-5.6.99-7.83-4.68-.84-2.13-2.54-3.17-4.84-3.02-2.24.15-4.49.63-6.72.56-3.43-.1-4.66 2.14-5.67 4.73-.31.79-.47 1.66-.6 2.5-.39 2.43.57 3.92 3.06 4.42 1.78.36 3.62.56 5.44.61 3.32.09 6.66.02 10 .02zm73.23-310.83c-3.4-1.11-5.05-3.59-6.02-6.49-.84-2.53-1.38-5.17-1.97-7.78-.38-1.67-.57-3.38-.92-5.06-.17-.83-.42-1.62-1.46-1.91-3.65-.99-6.96.18-8.97 3.4-.67 1.07-1.22 2.3-1.5 3.53-1.21 5.4-1.21 10.89-.55 16.33.47 3.82 2.43 7.07 5.38 9.64 1.62 1.41 2.8 1.55 4.64.39.63-.4 1.21-.89 1.73-1.43 2.67-2.8 5.31-5.61 7.94-8.45.56-.59 1.01-1.28 1.7-2.17zm48.3-78.68c1.98-1.08 3.74-2.35 5.71-3.04 3.62-1.28 6.97.09 8.56 3.12.67 1.27.68 2.58-.1 2.9-1.33.54-1.59-.69-2.04-1.47-1.47-2.53-3.14-3.03-6.36-2.16-2.04.55-3.57 1.95-4.58 3.83-1 1.88-1.84 3.76-2.24 5.94-.37 2 .06 2.99 1.56 4.3 2.19 1.9 4.45 2.88 7.31 2.53 5.56-.68 9.96-3.24 12.87-8.07 3.19-5.31 2.53-9.99-1.89-14.43-.45-.46-.84-1.02-1.36-1.36-.97-.64-1.96-1.46-3.05-1.67-2.4-.46-4.87-.83-7.3-.78-1.76.04-3.56.67-5.26 1.28-1.56.57-2.23 1.91-2.13 3.6.12 1.8.21 3.61.3 5.48zm-44.31 78.61c3.88 5.12 8 9.6 12.82 13.41 1.24.98 1.97.9 3.09-.26 2.41-2.51 3.58-5.59 3.73-9.02.1-2.25-.05-4.52.03-6.77.23-6.32-1.77-12.04-4.56-17.57-.33-.65-.81-1.29-1.37-1.75-1.67-1.37-3.28-.72-3.73 1.36-.32 1.46-.63 2.94-1.17 4.33-1.33 3.39-2.79 6.73-4.21 10.09-1.01 2.38-2 4.77-4.63 6.18zm-61.09-77.79c-.22-1.56-.4-3.02-.66-4.46-.07-.38-.33-.83-.64-1.04-3.36-2.34-8.07-3.08-11.39-.36-4.83 3.96-5.4 6.59-4.37 13.77.32 2.23 1.25 4.35 3.05 5.88 4.7 3.99 10.05 6.09 16.31 5.29 2.81-.36 4.26-3.11 3.07-5.7-1.21-2.63-2.28-5.33-3.64-7.87-1.73-3.22-4.45-5.13-8.23-5.28-1.59-.06-2.65.59-3.17 2.15-.28.84-.69 1.63-1.11 2.62-2.5-3.88 1.01-7.64 4.67-6.93 1.96.37 3.85 1.19 6.11 1.93zm-19.68 136.62c-1.24 3.04-2.51 5.97-3.02 9.15-.09.55.06 1.35.41 1.71 2.49 2.53 5.04 4.98 8.58 6.06 3.28 1 6.48 2.34 9.81 3.13 5 1.17 10.07 2.04 15.13 2.93 1.72.3 2.1-.12 2.09-1.88-.01-2.03-.15-4.07-.17-6.1-.01-1.28-.69-1.53-1.83-1.65-4.69-.5-9.39-1.01-13.63-3.36-.65-.36-1.43-.47-2.1-.79-2.4-1.17-4.88-2.23-7.15-3.61-2.74-1.66-5.3-3.62-8.12-5.59zm129.79 19.09c3.91-1.72 7.6-3.44 11.36-4.98 5.26-2.16 10.58-4.19 15.87-6.29 1.75-.7 1.86-.94 1.17-2.58-.84-1.98-1.71-3.94-2.59-5.9-.76-1.71-.82-1.78-2.58-.7-5.9 3.62-12.2 6.31-18.88 8.1-1.45.39-2.89.85-4.35 1.18-1.35.31-1.7 1.14-1.49 2.37.48 2.83.96 5.66 1.49 8.8zm-60.21-98.52c.6 2.94 1.14 5.64 1.71 8.33.59 2.73 1.3 5.43 2.85 7.81 2.23 3.42 6.37 3.25 8.18-.38 1.29-2.59 2.6-5.19 3.67-7.88.95-2.38 1.67-4.87 2.34-7.35.42-1.57.06-1.89-1.57-1.85-.32.01-.64.05-.96.07-2.89.2-5.77.39-8.66.61-2.42.19-4.86.41-7.56.64z"/><path d="m329.89 487.41c-1.3.3-2.4.69-3.53.8-8.48.87-16.78 2.37-24.64 5.88-3.33 1.49-6.79 2.75-10.29 3.76-2.55.73-5.29.8-7.93 1.28-2.1.38-4.19.88-6.24 1.45-1.79.5-2.09.37-2.41-1.31-1.53-8.04-2.03-16.15-2.09-24.34-.04-5.13-.88-10.25-1.37-15.38-.31-3.31-.7-6.62-.93-9.94-.56-8.14-1.14-16.28-1.54-24.43-.31-6.22-.29-12.46-.54-18.69-.15-3.75-.68-7.49-.83-11.24-.28-6.97-.41-13.96-.62-20.93-.04-1.33.69-1.61 1.82-1.59 2.26.04 4.52.03 6.78.02.64 0 1.29-.01 1.91-.14.22-.05.54-.47.52-.7-.04-.37-.24-.92-.51-1.02-.58-.22-1.26-.3-1.89-.28-7.52.26-15.03.55-22.55.83-.11 0-.24-.02-.32.03-.33.22-.63.47-.95.71.35.34.66.9 1.04.96 1.16.18 2.36.23 3.54.18 1.3-.05 1.68.56 1.65 1.75-.08 2.9-.09 5.81-.15 8.71-.08 3.98-.15 7.95-.25 11.93-.28 10.85-.51 21.71-.89 32.56-.14 3.97-.69 7.91-.91 11.88-.2 3.54-.13 7.09-.34 10.63-.26 4.28-.69 8.55-1.04 12.83-.08.96-.17 1.93-.21 2.89-.24 5.69-.44 11.38-.69 17.07-.19 4.4-.41 8.79-.65 13.19-.05.93-.25 1.85-.39 2.88-6.12-1.41-11.93-2.71-17.32-5.55-4.53-2.39-9.48-3.21-14.64-3.27-5.02-.06-10.03-.61-15.45-.97 2.82-3.02 1.67-6.78 2.53-10.12.66-2.56.69-5.31.77-7.98.26-9.67.55-19.33.58-29 .03-6.55-.53-13.1-.48-19.64.03-4.6.64-9.2 1-13.8.06-.75.13-1.5.16-2.25.2-6.34.47-12.68.56-19.02.12-8.71.64-17.38 1.26-26.06.44-6.1.23-12.25.23-18.38 0-5.7-.07-5.6 5.48-4.72 3.17.51 6.4.86 9.61.9 10.11.13 20.23.21 30.34.03 6.01-.11 12.01-.7 18-1.16 4.92-.38 9.85-.79 14.75-1.39 3.4-.42 6.74-1.31 10.14-1.74 4.4-.56 4.11-.66 4.45 3.53.66 8.23.9 16.49 1.48 24.73.23 3.3.88 6.58 1.39 9.86 1.46 9.32 2.83 18.65 4.45 27.95.97 5.59 2.05 11.2 3.57 16.65 2.34 8.38 4.49 16.79 5.96 25.36.31 1.79.77 3.57 1.33 5.3 1.97 6.06 2.91 12.32 3.77 18.59.75 5.5 1.24 11.04 1.96 16.55.11.99.84 1.89 1.56 3.37z" fill="#abc4e7"/><path d="m210.94 229.24c-.17 1.47-.49 2.94-.49 4.41-.02 7.52-.71 14.99-1.32 22.49-.66 8.02-.5 16.1-.64 24.16-.07 4.22 0 4.12-4.3 3.54-9.17-1.23-17.2-5.15-24.77-10.2-.53-.36-.99-.83-1.49-1.23-1.16-.94-1.39-1.99-.7-3.4 2.22-4.53 4.24-9.17 6.56-13.65 2.42-4.68 4.77-9.38 6.43-14.4.44-1.32.91-2.68 1.65-3.84 4.32-6.66 8.12-13.66 13.35-19.73 3.66-4.25 7.3-8.51 11.86-11.79 3.03-2.19 6.36-3.98 9.59-5.87.7-.41 1.59-.47 2.73-.79-.27 2.27-.55 4.24-.73 6.22-.42 4.61-.49 9.19.85 13.72 1.08 3.65 3.21 6.52 5.96 9.01 1.84 1.67 4.01 1.45 6.03.48 1.13-.54 2.08-1.49 3.01-2.36 1.16-1.09 2.21-2.29 3.64-3.79.07 1.23.2 1.94.14 2.64-.31 3.63-.67 7.26-1.01 10.89-.25 2.67-.58 5.34-.73 8.02-.27 5.15-.47 10.3-.62 15.45-.03 1.16.13 2.37.45 3.49.86 2.96 3.05 4.68 6.12 4.84 2.25.12 4.52.14 6.77.08 2.7-.08 4.2-1.42 4.53-4.07.44-3.52.63-7.02.27-10.6-.5-4.91-.49-9.87-.81-14.8-.28-4.26-.72-8.51-1.11-13.05 1.65.4 2.49 1.54 3.53 2.35.84.66 1.57 1.49 2.44 2.09 1.76 1.22 4.11 1.03 5.62-.45 2.38-2.33 4.09-5.13 4.28-8.45.26-4.71.39-9.46.02-14.15-.25-3.15-1.47-6.23-2.26-9.35-.12-.49-.23-.98-.35-1.49 1.44-.68 2.63-.28 3.86.19 6.47 2.49 12.39 5.96 17.91 10.13 2.16 1.63 3.89 3.67 5.34 5.97 1.6 2.54 3.32 5.02 5.1 7.44 2.38 3.22 4.26 6.69 5.92 10.32 3.4 7.42 6.8 14.84 10.41 22.17 2.24 4.56 4.03 9.24 5.31 14.14.51 1.95.47 1.93-1.27 3.08-6.98 4.63-14.83 7.25-22.71 9.79-1.17.38-1.66-.06-1.79-1.07-1.04-8.28-3.63-16.3-3.62-24.79.01-5.98-1-11.96-1.54-17.94-.12-1.39-.14-2.79-.28-4.17-.16-1.6-.32-3.2-.65-4.77-.1-.47-.74-1.12-1.19-1.17-.92-.1-1.2.7-1.27 1.5-.01.11-.02.22-.01.32.29 3.09.59 6.18.89 9.27.27 2.78.56 5.55.83 8.33.25 2.56.71 5.13.67 7.69-.13 7.16 1.3 14.07 2.75 21.01.59 2.82.81 5.72 1.2 8.59.19 1.38.47 2.75.59 4.14.48 5.44.85 10.89 1.38 16.33.43 4.37.96 8.74 1.56 13.09.69 4.99 1.51 9.95 2.26 14.93.23 1.56.16 1.74-1.66 1.94-8.11.87-16.03 2.83-24.2 3.44-10.07.75-20.1 1.88-30.22 1.76-7.96-.09-15.93.15-23.87-.14-4.8-.18-9.59-1.01-14.35-1.74-2.48-.38-2.55-.56-2.47-3.15.16-5.04.45-10.07.66-15.11.18-4.29.27-8.58.49-12.86.12-2.32-.58-4.72.67-6.95.16-.28.02-.94-.22-1.18-.96-.96-.88-2.15-.88-3.32-.02-10.53-.18-21.07.01-31.6.11-5.78.95-11.55 1.23-17.34.2-4.18.03-8.38-.03-12.57-.01-.68-.28-1.36-.42-2.04-.32-.05-.6-.07-.89-.08z" fill="#cd7d31"/><g fill="#eed6be"><path d="m296.75 84.91c.18 9.99.37 22.02.63 34.05.07 3.22.54 6.43.52 9.64-.03 5.04-.22 10.09-.56 15.11-.17 2.44-.76 4.87-1.33 7.26-1.64 6.89-3.05 13.84-6.5 20.16-2.22 4.07-4.41 8.06-8.15 11.06-4.64 3.73-9.88 6.15-15.64 7.19-6.88 1.24-13.88 1.56-20.88 1.35-3.11-.09-6.24-.22-9.32-.65-1.88-.26-3.71-1.05-5.51-1.73-7.78-2.91-13.59-7.99-17.19-15.56-1.2-2.52-2.73-4.88-3.95-7.39-.84-1.73-1.43-3.58-2.08-5.4-.21-.6-.55-1.38-.33-1.85.91-2-.09-3.47-1.02-5.06-3.18-5.39-5.76-11.04-7.55-17.05-.58-1.95-.98-3.83-.68-5.95.32-2.32.07-4.72.07-7.08.02-9.39 1.77-18.56 3.46-27.74 1.05-5.69 2.02-11.39 3.03-17.09.43-2.43.81-4.87 1.32-7.28.14-.66.57-1.36 1.07-1.83 1.09-1.03 2.29-1.95 3.49-2.86 3.9-2.97 7.02-6.61 9.57-10.79 1.57-2.57 3.4-4.91 5.61-7.02 3.25-3.1 6.91-3.98 11.24-3.45 4.83.59 8.92 2.36 11.84 6.33.94 1.27 1.55 2.78 2.36 4.16.25.43.66.77 1 1.15.34-.46.79-.88.99-1.39 2.21-5.65 6-9.75 12.05-10.99 5.17-1.06 10.03.24 14.18 3.63 1.24 1.02 2.3 2.26 3.48 3.36 2.42 2.28 4.92 4.49 7.29 6.83 2.29 2.26 4.53 4.59 6.61 7.04.61.71.8 1.96.81 2.96.11 4.95.07 9.9.07 16.88zm-47.12 93.77c1.85-.13 3.22.04 4.4-.36 4.09-1.4 8.19-3.16 10.89-6.58 4.41-5.59 8.19-11.62 7.95-19.19-.06-1.96.54-3.48 1.96-4.88 1.56-1.55 2.61-3.68 5.14-3.99.18-.02.45-.51.41-.72-.05-.24-.39-.6-.62-.61-1.38-.07-2.8-.23-4.13.04-.5.1-.7 1.34-1.17 1.96-2.63 3.52-6.29 5.7-10.48 6.35-5.28.82-10.67 1.16-16.03 1.29-4.38.11-8.82-.1-13.16-.71-3.93-.55-8.29-.43-11.13-4.12-.12-.16-.65-.21-.81-.08-.21.16-.36.58-.31.84.31 1.63 1.49 2.64 2.84 3.28 1.44.69 3 1.15 4.56 1.53 3.12.76 3.33.93 3.58 3.95.2 2.35.36 4.7.64 7.04.51 4.24 1.95 8.1 4.73 11.43 1.08 1.29 2.33 2.26 3.97 2.55 2.43.42 4.87.71 6.77.98zm.3-34.09c2.48-.31 5.04-.52 7.55-1 1.63-.31 2.9-1.39 3.59-2.96.14-.33-.05-.8-.09-1.2-.28.05-.63.02-.84.17-2.46 1.85-5.27 2.24-8.24 2.15-1.82-.05-3.66.11-5.47-.04-1.69-.14-3.4-.45-5.04-.9-2.18-.59-3.44-2.05-3.56-4.41-.2-3.77.03-7.47 1.24-11.09 2.56-7.63 5.5-15.11 8.96-22.38 1.01-2.12 1.79-4.36 2.58-6.58.14-.39-.15-.93-.25-1.4-.42.27-.86.51-1.25.81-.15.12-.18.38-.28.57-4.41 8.48-8.4 17.13-11.5 26.2-1.45 4.23-2.03 8.49-2.06 12.93-.04 5.34 2.79 7.35 6.58 8.14 2.6.54 5.3.66 8.08.99zm14.95-46.33c.15 2 .14 3.3.37 4.56.33 1.86 1.66 3.19 3.06 3.31 1.47.12 2.9-.88 3.64-2.65 1.26-3 1.22-6.05.23-9.11-.54-1.65-1.88-2.86-3.17-2.78-1.53.1-2.7.97-3.17 2.37-.53 1.6-.75 3.31-.96 4.3zm-26.73 1.56c-.12-1.92-.08-3.12-.29-4.27-.3-1.63-1.57-2.76-3-2.94-1.6-.21-2.73.57-3.44 1.87-1.69 3.12-1.72 6.34-.17 9.53.6 1.23 1.68 2.05 3.08 1.94 1.35-.1 2.51-.87 2.93-2.19.5-1.49.71-3.08.89-3.94zm23.11-27.85c-1.39.06-2.8.06-4.18.23-.35.04-.62.68-.92 1.04.3.24.58.66.9.7 1.06.14 2.14.17 3.21.18 5.02.07 9.47 1.54 13.2 5.05 1.56 1.47 3.32 2.71 5.04 4.01.59.45 1.28.81 1.97 1.05.31.1.89-.1 1.1-.36s.25-.85.09-1.16c-.23-.45-.66-.83-1.07-1.16-2.09-1.69-4.18-3.37-6.3-5.01-3.82-2.97-7.99-5.02-13.04-4.57zm-46.81 14.48c.37.71.6 1.15.84 1.59.4-.28.96-.47 1.17-.85 1.87-3.48 4.92-5.63 8.34-7.29 2.89-1.4 5.89-2.58 8.82-3.9.76-.34 1.51-.78 2.15-1.31.21-.18.23-.85.07-1.16-.16-.3-.64-.57-1-.6-.39-.04-.84.15-1.22.32-3.92 1.74-7.93 3.3-11.69 5.33-2.12 1.14-3.93 2.95-5.67 4.66-.86.82-1.24 2.15-1.81 3.21z"/><path d="m183.22 349.21c6.14 1.51 8.39 6.33 10.04 11.6.77 2.46 1.38 4.96 2.07 7.44 1.2 4.33 3.26 8.14 6.59 11.25 2.01 1.88 1.75 3.46-.61 4.8-.37.21-.77.38-1.16.55-3.97 1.71-6 .84-7.45-3.18-.33-.91-.63-1.83-.95-2.74-1.12-3.2-2.77-6.02-5.74-7.84.06-.27.11-.47.15-.68.13-.67.53-1.45.32-1.98-.24-.6-1.32.07-2 1.43-1.57 3.12-2.39 6.46-2.44 9.93-.08 5.36-.26 10.72.93 16.03.44 1.96.27 4.07.23 6.1-.05 2.38-2.05 4.58-4.35 4.81-.5.05-1.23-.39-1.58-.82-1.34-1.67-1.61-3.73-1.73-5.77-.5-8.36-1.15-16.71-.7-25.1.03-.53.11-1.11-.05-1.6-.14-.42-.6-.74-.91-1.11-.33.38-.89.73-.94 1.15-.16 1.27-.16 2.57-.16 3.86 0 4.73-.15 9.46.09 14.18.22 4.48.91 8.94 1.25 13.41.09 1.24-.18 2.57-.57 3.76-.51 1.57-1.65 1.83-3.01.84-.51-.37-.94-.88-1.32-1.39-.25-.33-.29-.81-.5-1.18-4.7-8.12-4.17-16.88-3.25-25.71.33-3.16.57-6.34.86-9.57-1.45.06-1.49 1.12-1.64 1.83-1.56 7.48-2.51 15.04-2.12 22.69.08 1.57.69 3.13 1.17 4.66.38 1.23.95 2.39 1.41 3.6.36.95 1.23 1.98-.01 2.87-.85.61-2.82.34-3.61-.49-1.28-1.36-2.15-2.97-2.32-4.85-.72-8.49-.66-16.93 1.78-25.21.28-.96.77-2.01-.3-3.32-.53 1.02-1.02 1.81-1.36 2.65-1.6 3.91-2.42 8-2.63 12.21-.04.72-.06 1.65-.49 2.11-.85.91-1.96 1.6-3.03 2.26-.12.08-1-.56-1.01-.88-.05-1.82-.31-3.74.17-5.44 2.29-8.05 4.73-16.09 8.63-23.54 1.33-2.54 3.11-4.89 4.92-7.13 1.67-2.07 3.71-3.83 5.46-5.84.5-.58.73-1.54.79-2.34 1.03-15.15 4.36-29.89 8.04-44.56.7-2.81 1.25-5.65 1.89-8.47.36-1.58.57-1.7 2.2-1.22 3.81 1.13 7.6 2.31 11.41 3.4 1.14.32 1.28 1 1.01 1.94-.7 2.48-1.38 4.96-2.14 7.42-1.39 4.51-2.98 8.97-4.2 13.52-1.11 4.13-1.76 8.38-2.74 12.55-1.13 4.8-2.4 9.57-3.61 14.35-.24.84-.48 1.65-.78 2.76z"/><path d="m335.12 360.29c-1.57 1.18-1.48 2.41-1.53 3.57-.25 5.9-.37 11.81-.76 17.7-.2 2.96-.21 6.05-1.88 8.71-.35.56-1.08 1.27-1.6 1.25-.57-.02-1.39-.72-1.59-1.31-.49-1.38-.95-2.87-.95-4.31.04-7.2.33-14.39.32-21.59 0-1.77-.69-3.55-1.22-5.28-.15-.48-.85-.8-1.29-1.19-.26.4-.5.81-.79 1.19-.37.48-.77.95-1.17 1.41-1.32 1.54-3 2.89-3.89 4.64-1.31 2.55-3.64 3.9-5.6 5.68-1.03.93-3.7-.34-4.03-1.94-.39-1.9-.58-3.78 1.13-5.37 2.51-2.34 3.8-5.34 4.71-8.64.82-2.98 2.03-5.89 3.33-8.7.66-1.41 1.81-2.65 2.93-3.77 1.58-1.57 2.33-3.28 1.89-5.5-.65-3.26-1.21-6.53-1.86-9.79-1.04-5.26-2.11-10.51-3.18-15.76-1.26-6.19-2.52-12.39-3.83-18.57-.21-.97-.18-1.68.82-2.12 3.24-1.43 6.47-2.88 9.73-4.27.92-.39 1.34.14 1.53 1.05 1.91 9.35 3.55 18.74 4.7 28.23.53 4.35 1.67 8.62 2.55 12.93.17.84.62 1.71.51 2.51-.42 2.95 1.09 5.15 2.61 7.38 4.83 7.11 9.6 14.26 14.54 21.29 2.58 3.68 4.13 7.76 5.33 12.01.6 2.14.01 3.32-1.65 3.97-1.65.65-3.64.11-4.5-1.43-.61-1.1-1.05-2.35-1.34-3.58-.65-2.71-1.15-5.45-1.73-8.18-.11-.52-.17-1.11-.45-1.54-.43-.67-1.15-1.81-1.53-1.73-1.38.29-.4 1.36-.29 2.06.98 6.03 2.07 12.05 3.02 18.09.64 4.08.26 8.15-.56 12.16-.49 2.4-2.3 3.36-4.24 2.38-.92-.47-1.54-1.13-1.09-2.33 2.62-6.91 2.41-14.13 2.29-21.33-.04-2.34-.49-4.68-.76-7.02-.02-.21-.07-.49-.22-.59-.4-.28-.84-.55-1.3-.65-.11-.02-.54.64-.53.98.05 1.29.12 2.59.37 3.84.88 4.38.56 8.79.3 13.17-.23 3.84-.77 7.67-2.19 11.33-.66 1.7-1.67 2.99-3.11 3.98-1.42.99-3.18.44-3.51-1.24-.24-1.22-.25-2.63.12-3.8.86-2.71 1.13-5.45 1.23-8.25.21-5.69.43-11.38.8-17.06.12-1.55-.06-2.92-.59-4.67z"/></g><path d="m252.61 514.66c-4.01.43-7.83.8-11.64 1.24-15.06 1.73-30.18 2.13-45.32 1.94-3.97-.05-7.93-.33-11.9-.45-1.21-.04-2.05-.41-2.48-1.61-.25-.7-.59-1.38-.97-2.03-1.35-2.32-3.4-3.58-6.08-3.56-1.92.01-3.84.27-5.76.42-.81.06-1.63.11-3.03.2 5.29-5.25 9.94-10.3 16.44-13.06.89-.38 1.79-.74 2.65-1.18 5.86-3.01 12-4.45 18.64-3.88 3.19.27 6.42-.05 9.62.06 4.17.14 8.38.14 12.49.76 3.14.47 6.28 1.5 9.18 2.81 4.13 1.86 8.22 3.67 12.77 4.22.53.06 1.03.32 1.55.41 1.35.23 1.97.94 2.15 2.36.45 3.68 1.08 7.36 1.69 11.35z" fill="#74543c"/><path d="m368.88 508.67c-2.76.3-4.88.54-7 .74-2.14.2-3.98.77-4.94 2.99-.19.45-.96.68-1.5.93-.27.12-.64.04-.96.05-9.99.23-19.99.46-29.98.67-12.15.25-24.29.46-36.44.74-3.54.08-7.08.4-10.62.51-1.87.06-2.13-.28-1.78-2.05.55-2.73 1.18-5.45 1.79-8.17.47-2.12 1.72-3.39 3.95-3.64 2.45-.28 4.91-.54 7.34-.93 1.69-.28 3.39-.61 4.99-1.2 4.24-1.54 8.44-3.21 12.63-4.88 5.04-2 10.39-2.67 15.66-3.63 2.32-.42 4.68-.62 7.03-.87.48-.05.99.1 1.48.2 1.86.41 3.71 1.19 5.57 1.18 4.66-.02 8.78 1.87 13.03 3.29 2.64.88 5.1 2.27 7.7 3.28 2.89 1.12 5.28 2.77 7.17 5.26 1.34 1.77 2.94 3.36 4.88 5.53z" fill="#74543c"/><path d="m346.55 521.81c-5.05 0-10.1-.08-15.15.02-7.41.15-14.82.41-22.22.69-2.57.1-5.12.52-7.69.6-4.29.14-8.59.28-12.83-.66-3.59-.8-7.25-.65-10.9-.62-.77.01-2.17-.33-2.22-.65-.19-1.33-.05-2.73.19-4.06.04-.23 1.13-.39 1.74-.39 6.44-.01 12.88.04 19.31.01 7.09-.04 14.18-.11 21.27-.23 8.27-.15 16.53-.34 24.8-.56 4.61-.12 9.22-.37 13.83-.49 1.22-.03 2.12-.36 2.41-1.62.43-1.88 1.98-2.18 3.46-2.29 2.25-.17 4.51-.07 6.77-.13.97-.02 1.61.39 2.11 1.19.98 1.57 1.81 3.17 1.53 5.12-.36 2.57-1.86 3.99-4.48 4-7.31.02-14.61.01-21.92.01-.01.02-.01.04-.01.06z" fill="#fff"/><path d="m254.44 215.6c1.68 1.95 3.22 3.59 4.56 5.38.53.71.89 1.76.87 2.65-.1 5.07.54 10.06 1.28 15.06.02.11.02.21.03.32.24 6.65.48 13.3.71 19.95.02.43 0 .86-.01 1.29-.09 4.79-.73 5.4-5.46 5.25-1.29-.04-2.59.02-3.86-.17-2.76-.41-4.26-1.99-4.23-4.78.04-5.04.18-10.09.47-15.12.41-7.39 1.1-14.77 1.41-22.16.1-2.31.46-4.19 2.34-5.65.58-.47 1.03-1.09 1.89-2.02z" fill="#e3b959"/><path d="m179.21 524.97c-3.34 0-6.67.07-10.01-.03-1.82-.05-3.65-.25-5.44-.61-2.49-.51-3.45-1.99-3.06-4.42.13-.85.29-1.71.6-2.5 1.01-2.59 2.25-4.83 5.67-4.73 2.23.07 4.48-.41 6.72-.56 2.3-.15 4 .89 4.84 3.02 2.23 5.66 3.27 4.65 7.83 4.68 9.36.06 18.73.19 28.08.04 8.91-.14 17.83-.3 26.67-1.8 3.27-.55 6.63-.6 9.96-.81 2.03-.13 2.73.5 2.79 2.5.01.42-.35 1.07-.72 1.24-.76.36-1.63.57-2.48.66-2.99.3-5.99.5-8.98.78-4.38.4-8.75.97-13.14 1.22-5.47.32-10.96.43-16.45.57-10.96.3-21.93.56-32.89.83.01-.02.01-.05.01-.08z" fill="#fff"/><path d="m252.44 214.14c-.69.89-1.15 1.58-1.7 2.18-2.63 2.83-5.27 5.65-7.94 8.45-.51.54-1.1 1.03-1.73 1.43-1.84 1.16-3.01 1.02-4.64-.39-2.96-2.57-4.92-5.82-5.38-9.64-.66-5.44-.66-10.93.55-16.33.28-1.23.83-2.45 1.5-3.53 2.01-3.22 5.32-4.39 8.97-3.4 1.04.28 1.29 1.08 1.46 1.91.35 1.68.55 3.39.92 5.06.59 2.61 1.12 5.25 1.97 7.78.97 2.9 2.62 5.37 6.02 6.48z" fill="#e3b959"/><path d="m300.74 135.46c-.1-1.87-.18-3.68-.29-5.48-.1-1.69.57-3.03 2.13-3.6 1.69-.62 3.49-1.25 5.26-1.28 2.43-.05 4.9.32 7.3.78 1.09.21 2.08 1.03 3.05 1.67.52.35.91.91 1.36 1.36 4.42 4.44 5.09 9.12 1.89 14.43-2.91 4.83-7.31 7.4-12.87 8.07-2.86.35-5.12-.63-7.31-2.53-1.5-1.31-1.92-2.3-1.56-4.3.4-2.18 1.24-4.07 2.24-5.94s2.53-3.28 4.58-3.83c3.22-.87 4.89-.37 6.36 2.16.45.78.71 2.01 2.04 1.47.78-.32.77-1.63.1-2.9-1.6-3.03-4.95-4.4-8.56-3.12-1.98.69-3.74 1.96-5.72 3.04z" fill="#eed6be"/><path d="m256.43 214.07c2.63-1.4 3.62-3.8 4.63-6.18 1.42-3.36 2.88-6.7 4.21-10.09.54-1.38.86-2.87 1.17-4.33.45-2.08 2.05-2.73 3.73-1.36.56.46 1.04 1.1 1.37 1.75 2.78 5.52 4.79 11.25 4.56 17.57-.08 2.25.07 4.52-.03 6.77-.15 3.44-1.32 6.51-3.73 9.02-1.11 1.16-1.84 1.24-3.09.26-4.82-3.82-8.94-8.29-12.82-13.41z" fill="#e3b959"/><path d="m195.34 136.28c-2.26-.74-4.15-1.56-6.12-1.94-3.66-.71-7.17 3.05-4.67 6.93.42-.98.83-1.78 1.11-2.62.52-1.55 1.58-2.21 3.17-2.15 3.78.15 6.5 2.06 8.23 5.28 1.36 2.54 2.43 5.24 3.64 7.87 1.19 2.58-.26 5.34-3.07 5.7-6.26.8-11.6-1.3-16.31-5.29-1.8-1.53-2.73-3.65-3.05-5.88-1.04-7.18-.47-9.81 4.37-13.77 3.32-2.72 8.03-1.98 11.39.36.31.22.57.66.64 1.04.27 1.45.45 2.91.67 4.47z" fill="#eed6be"/><path d="m175.66 272.9c2.83 1.97 5.38 3.93 8.11 5.59 2.27 1.39 4.75 2.44 7.15 3.61.67.33 1.45.43 2.1.79 4.24 2.35 8.94 2.86 13.63 3.36 1.13.12 1.82.37 1.83 1.65.02 2.03.16 4.07.17 6.1.01 1.76-.36 2.18-2.09 1.88-5.06-.89-10.13-1.76-15.13-2.93-3.33-.78-6.53-2.13-9.81-3.13-3.54-1.08-6.09-3.53-8.58-6.06-.36-.37-.5-1.17-.41-1.71.51-3.18 1.79-6.11 3.03-9.15z" fill="#e3b959"/><path d="m305.45 291.99c-.53-3.14-1.01-5.97-1.48-8.81-.21-1.23.14-2.06 1.49-2.37 1.46-.33 2.9-.79 4.35-1.18 6.68-1.79 12.98-4.48 18.88-8.1 1.75-1.08 1.82-1 2.58.7.87 1.96 1.75 3.92 2.59 5.9.69 1.64.58 1.89-1.17 2.58-5.29 2.1-10.61 4.13-15.87 6.29-3.77 1.55-7.46 3.27-11.37 4.99z" fill="#e3b959"/><path d="m245.24 193.47c2.7-.23 5.13-.45 7.57-.63 2.88-.22 5.77-.41 8.66-.61.32-.02.64-.06.96-.07 1.63-.04 1.99.28 1.57 1.85-.67 2.48-1.39 4.97-2.34 7.35-1.07 2.69-2.38 5.29-3.67 7.88-1.81 3.62-5.95 3.8-8.18.38-1.55-2.38-2.26-5.08-2.85-7.81-.58-2.7-1.11-5.4-1.72-8.34z" fill="#eed6be"/><path d="m249.63 178.68c-1.9-.27-4.34-.56-6.76-.99-1.64-.29-2.9-1.26-3.97-2.55-2.77-3.33-4.21-7.19-4.73-11.43-.28-2.34-.44-4.69-.64-7.04-.25-3.02-.46-3.19-3.58-3.95-1.55-.38-3.12-.84-4.56-1.53-1.35-.65-2.53-1.66-2.84-3.28-.05-.26.11-.68.31-.84.17-.13.69-.08.81.08 2.85 3.69 7.2 3.57 11.13 4.12 4.34.61 8.77.82 13.16.71 5.35-.13 10.74-.47 16.03-1.29 4.19-.65 7.85-2.83 10.48-6.35.47-.62.67-1.86 1.17-1.96 1.33-.27 2.75-.1 4.13-.04.23.01.58.37.62.61.04.22-.23.7-.41.72-2.53.31-3.58 2.44-5.14 3.99-1.41 1.4-2.02 2.92-1.96 4.88.24 7.58-3.54 13.61-7.95 19.19-2.7 3.42-6.8 5.18-10.89 6.58-1.19.41-2.56.24-4.41.37zm20.58-27.47c-1.95.68-3.52 1.46-5.18 1.76-2.1.37-4.27.29-6.4.52-5.98.65-11.94 1.27-17.96.58-1.28-.15-2.58-.1-3.86-.19-1.22-.09-1.46.53-1.31 1.57.23 1.59.36 3.19.62 4.77.41 2.53.83 5.07 1.35 7.58.16.78.68 1.48 1.03 2.19.41-.15.67-.16.79-.3 3.38-3.93 7.8-5.8 12.75-6.95 4.84-1.12 9.67-1.94 14.64-1.82 1.56.04 2.3-.63 2.83-2.01.91-2.37.92-4.78.7-7.7zm-2.67 11.95c-1.73 0-2.9-.14-4.03.03-4.02.6-8.05 1.18-12.02 2.01-3.84.79-7.27 2.55-10.24 5.15-1.69 1.48-1.72 2.02-.15 3.61.44.45.97.98 1.54 1.11 3.12.71 6.29 1.69 9.5 1.08 5.01-.96 9.15-3.57 12.24-7.65 1.15-1.51 1.95-3.26 3.16-5.34z"/><path d="m249.93 144.59c-2.78-.33-5.47-.45-8.08-.99-3.79-.8-6.62-2.81-6.58-8.14.03-4.44.62-8.71 2.06-12.93 3.1-9.06 7.09-17.72 11.5-26.2.1-.19.13-.45.28-.57.39-.3.83-.54 1.25-.81.09.47.39 1.01.25 1.4-.8 2.22-1.57 4.46-2.58 6.58-3.45 7.28-6.4 14.75-8.96 22.38-1.21 3.62-1.44 7.32-1.24 11.09.12 2.36 1.38 3.82 3.56 4.41 1.64.45 3.34.76 5.04.9 1.81.15 3.65-.01 5.47.04 2.96.08 5.78-.31 8.24-2.15.21-.16.56-.12.84-.17.04.4.23.87.09 1.2-.69 1.58-1.96 2.65-3.59 2.96-2.51.48-5.07.68-7.55 1z"/><path d="m264.88 98.26c.21-1 .43-2.7.97-4.3.47-1.4 1.64-2.27 3.17-2.37 1.28-.09 2.63 1.13 3.17 2.78 1 3.06 1.03 6.11-.23 9.11-.74 1.77-2.17 2.77-3.64 2.65-1.41-.12-2.73-1.45-3.06-3.31-.24-1.26-.23-2.56-.38-4.56z"/><path d="m238.15 99.82c-.18.86-.4 2.45-.88 3.95-.43 1.32-1.59 2.09-2.93 2.19-1.4.1-2.48-.71-3.08-1.94-1.55-3.19-1.52-6.41.17-9.53.71-1.3 1.84-2.07 3.44-1.87 1.43.18 2.7 1.31 3 2.94.21 1.15.17 2.34.28 4.26z"/><path d="m261.26 71.97c5.05-.46 9.22 1.6 13.06 4.57 2.12 1.64 4.21 3.33 6.3 5.01.41.33.84.71 1.07 1.16.16.31.11.9-.09 1.16-.21.26-.79.47-1.1.36-.7-.24-1.38-.6-1.97-1.05-1.71-1.29-3.48-2.54-5.04-4.01-3.73-3.52-8.18-4.98-13.2-5.05-1.07-.01-2.15-.05-3.21-.18-.33-.04-.6-.46-.9-.7.31-.36.58-1 .92-1.04 1.36-.17 2.76-.16 4.16-.23z"/><path d="m214.45 86.45c.57-1.06.94-2.38 1.8-3.22 1.74-1.72 3.55-3.52 5.67-4.66 3.76-2.03 7.78-3.59 11.69-5.33.39-.17.83-.36 1.22-.32.37.04.85.3 1 .6.16.31.15.98-.07 1.16-.64.53-1.39.97-2.15 1.31-2.93 1.32-5.93 2.5-8.82 3.9-3.42 1.66-6.47 3.81-8.34 7.29-.21.38-.77.57-1.17.85-.22-.44-.46-.88-.83-1.58z"/><path d="m270.21 151.21c.22 2.93.21 5.33-.7 7.71-.53 1.38-1.28 2.05-2.83 2.01-4.96-.13-9.8.7-14.64 1.82-4.95 1.14-9.38 3.02-12.75 6.95-.12.13-.37.15-.79.3-.34-.71-.86-1.41-1.03-2.19-.53-2.51-.95-5.05-1.35-7.58-.25-1.58-.39-3.19-.62-4.77-.15-1.05.09-1.67 1.31-1.57 1.28.1 2.58.05 3.86.19 6.02.69 11.99.06 17.96-.58 2.13-.23 4.3-.14 6.4-.52 1.65-.31 3.22-1.09 5.18-1.77z" fill="#921b31"/><path d="m267.54 163.16c-1.22 2.09-2.02 3.83-3.15 5.32-3.09 4.08-7.23 6.69-12.24 7.65-3.21.61-6.38-.37-9.5-1.08-.57-.13-1.1-.66-1.54-1.11-1.58-1.59-1.54-2.12.15-3.61 2.97-2.6 6.4-4.35 10.24-5.15 3.98-.82 8-1.41 12.02-2.01 1.12-.16 2.3-.01 4.02-.01z" fill="#ffb9de"/><path d="m188.5 126.43c1.4.1 2.83.44 4.25 1.03.48.2.97.4 1.67.68.12-.78.3-1.38.3-1.98.01-11.33 1.85-22.43 4.09-33.5 1.15-5.67 2.07-11.39 3.1-17.09.22-1.23.5-2.45.85-4.17-3.87 1.51-7.2 2.89-10.6 4.1-2.83 1-5.71 1.87-8.61 2.65-1.12.3-2.34.25-3.52.25-.5 0-1.11-.19-1.48-.51-.34-.29-.53-.88-.54-1.35-.01-.2.59-.55.95-.6 1.17-.16 2.39-.05 3.52-.32 2.5-.6 5-1.26 7.43-2.1 2.94-1.02 5.86-2.14 8.71-3.39 7.27-3.2 13.01-8.27 17.47-14.81 1.93-2.84 3.79-5.69 6.24-8.18 4.39-4.46 9.44-5.96 15.56-4.64 6.34 1.37 8.52 2.63 13.51 8.89.47-.56.96-1.04 1.35-1.6 1.67-2.43 3.79-4.39 6.28-5.94 2.14-1.33 4.45-2.11 7.01-2.12 6.3-.03 11.79 1.79 16.26 6.48 2.89 3.03 6.12 5.72 9.11 8.66 2.59 2.55 5.06 5.23 7.59 7.85.37.39.68.86 1.11 1.16 4.48 3.18 9.07 6.21 14.45 7.66 1.5.4 3.17.2 4.76.18.5-.01 1.19-.44 1.27.33.06.52-.26 1.29-.68 1.61-.46.35-1.23.48-1.84.41-2.12-.25-4.38-.23-6.29-1.03-3.36-1.4-6.5-3.3-9.72-5.04-.93-.5-1.8-1.13-3.05-1.93-.09 1.21-.22 2.11-.2 3 .21 10.1.45 20.2.66 30.3.08 3.76-.01 7.53.11 11.29s.39 7.51.62 11.26c.02.28.21.56.4 1.03 3.2-1.6 6.55-2.13 10.03-1.94 1.03.05 1.51-.39 1.68-1.47.8-4.97 1.71-9.93 2.52-14.9 1.02-6.27 1.46-12.57 1.34-18.93-.06-3.21.09-3.1 3.22-4.16 2.94-.99 5.93-2.06 8.61-3.59 1.89-1.08 3.49-2.85 4.88-4.59 1.47-1.84.67-3.92-.37-5.74-.58-1.02-1.47-1.85-2.14-2.82-1.03-1.49-.9-1.97.28-3.35 2.02-2.37 3.95-4.81 5.91-7.23.27-.33.51-.7.67-1.1.73-1.78.27-2.75-1.66-3.24-6.69-1.68-13.2-3.91-19.42-6.88-2.02-.96-3.89-2.26-5.73-3.54-1.68-1.16-3.24-2.49-4.84-3.76-3.12-2.48-5.88-5.26-8.37-8.43-4.05-5.14-9.53-7.98-16.16-8.1-2.88-.05-5.78.36-8.67.61-6.04.51-11.95 1.62-17.27 4.71-2.59 1.51-4.98 3.36-7.48 5.01-.38.25-.92.27-1.39.39.03-.39.17-.81.07-1.16-.12-.44-.33-1.04-.68-1.21-.76-.37-1.64-.48-2.45-.75-1.93-.65-3.88-1.25-5.77-2.01-3.19-1.27-6.31-2.73-9.52-3.95-1.38-.52-2.91-.74-4.4-.91-9.46-1.08-18.18.46-25.54 7.11-3.05 2.76-5.72 5.79-8.25 9.01-5.39 6.83-10.9 13.58-16.47 20.27-1.29 1.54-2.98 2.77-4.59 4.01-1.53 1.19-3.21 2.16-4.76 3.33-.55.41-1.34 1.31-1.21 1.64.33.8 1.05 1.58 1.81 2.03.58.34 1.46.2 2.22.2 1.4.02 2.8-.09 4.19-.01 1.77.11 2.44 1.35 1.59 2.9-.36.65-.9 1.2-1.36 1.8-.59.77-1.26 1.49-1.74 2.32-.8 1.39-.55 2.45.83 3.28 2.56 1.55 5.32 2.26 8.34 1.69 1.16-.22 2.33-.38 3.51-.43.98-.05 1.6.5 1.73 1.53.51 4.04 1.62 8.01 1.26 12.13-.03.32.01.65-.01.97-.46 8.54.69 16.92 2.28 25.28.2 1.05.32 2.13.32 3.19z" fill="#74543c"/></svg>