<?xml version="1.0" encoding="utf-8"?>
<!-- Generator: Adobe Illustrator 24.2.1, SVG Export Plug-In . SVG Version: 6.00 Build 0)  -->
<svg version="1.1" xmlns="http://www.w3.org/2000/svg" xmlns:xlink="http://www.w3.org/1999/xlink" x="0px" y="0px"
	 viewBox="0 0 557.86 531.82" style="enable-background:new 0 0 557.86 531.82;" xml:space="preserve">
<style type="text/css">
	.st0{fill:#50443D;}
	.st1{fill:#D2A273;}
	.st2{fill:#5CACBB;}
	.st3{fill:#ABC4E7;}
	.st4{fill:#CD3C31;}
	.st5{fill:#FFFFFF;}
	.st6{fill:#CD7D31;}
	.st7{fill:#EED6BE;}
	.st8{fill:#74543C;}
	.st9{fill:#E3B959;}
	.st10{fill:#921B31;}
	.st11{fill:#FFB9DE;}
	.st12{fill:#C1E0C6;}
	.st13{fill:#7B5CAA;}
	.st14{fill:#E8C449;}
	.st15{fill:#B4714C;}
	.st16{fill:#D6CF38;}
	.st17{display:none;}
	.st18{display:inline;opacity:0.4;fill:#BC1D6C;}
</style>
<g id="Capa_1">
	<g>
		<path d="M221.84,383.86c1.74,2.59,3.59,4.01,5.7,5.13c1.33,0.7,2.64,1.52,4.06,1.95c2.96,0.89,3.77,5.14,2.5,7.67
			c-1.09,2.18-3.24,2.67-5.35,3.16c-1.81,0.41-3.1-0.42-4.15-1.82c-0.45-0.6-0.97-1.15-1.51-1.67c-0.85-0.82-1.9-1.03-2.98-0.6
			c-1.02,0.41-1.35,1.33-1.34,2.37c0.01,2.04,0.07,4.08,0.09,6.13c0.03,3.11,0.31,6.25-0.81,9.26c-0.3,0.8-0.63,1.6-1.08,2.32
			c-0.68,1.08-1.7,1.61-3.01,1.44c-0.96-0.13-1.99-0.1-2.85-0.47c-2.81-1.22-5.7-2.36-8.27-4c-1.83-1.17-2.49-3.44-2.91-5.59
			c-0.24-1.21-0.61-1.88-2.11-1.74c-2.32,0.21-3.48-1.46-4.2-3.34c-0.74-1.93-0.89-3.96-0.45-6.02c1.37-6.5,3.6-12.6,8.19-17.6
			c0.29-0.32,0.56-0.65,0.83-0.98c0.66-0.81,0.66-1.6-0.21-2.21c-2.81-1.98-2.36-4.6-1.35-7.21c0.89-2.3,2.18-4.45,3.05-6.75
			c5.61-14.9,13.73-28.4,22.78-41.4c3.68-5.29,7.23-10.68,11.02-15.89c4.37-6,10.09-10.53,16.34-14.44
			c0.79-0.49,1.54-1.04,2.74-1.85c-3.33-0.91-6.14-1.86-9.03-2.43c-5.1-1.01-9.99-2.69-14.64-4.89c-4.56-2.15-8.81-4.96-12.41-8.57
			c-2.34-2.34-4.5-4.86-6.93-7.51c-0.38,0.74-0.72,1.35-1.01,1.98c-0.36,0.78-0.65,1.59-1,2.38c-2.07,4.54-4.06,5.86-9.02,5.55
			c-4.83-0.3-9.47-1.45-12.74-5.31c-3.53-4.15-6.12-8.8-5.96-14.54c0.07-2.56,0.8-4.91,2.25-6.95c0.94-1.31,0.74-2.28-0.06-3.47
			c-4.82-7.23-7.39-15.24-8.05-23.85c-0.38-4.92-0.48-9.86-0.67-14.79c-0.06-1.6-0.01-3.2-0.01-5.09c-4.08,1.04-5.9-1.52-7.24-4.39
			c-0.85-1.81-1.45-3.89-1.55-5.87c-0.19-3.85,0.05-7.73,0.14-11.6c0.02-0.96,0.27-1.93,0.23-2.89c-0.28-6.16,2.48-10.98,6.64-15.18
			c1.13-1.15,2.36-2.2,3.53-3.31c0.77-0.74,1.5-1.51,2.53-2.55c-0.93-0.36-1.55-0.62-2.18-0.85c-1.61-0.59-3.32-0.97-4.8-1.77
			c-3.35-1.82-5.03-5.98-4.12-9.67c0.81-3.29,3.07-4.6,6.3-3.49c1.52,0.52,2.93,1.32,4.4,1.99c1.36,0.62,2.73,1.23,4.53,2.04
			c-0.19-1.02-0.21-1.71-0.45-2.31c-1.46-3.69-1.57-7.53-1.44-11.42c0.04-1.29,0.47-2.3,1.75-2.81c1.22-0.48,2.1,0.25,2.88,0.96
			c2.45,2.25,4.88,4.54,7.25,6.89c0.72,0.72,1.2,1.02,2.12,0.27c9.35-7.7,20.49-11.68,31.91-14.88c7.12-2,14.4-3.48,21.66-4.92
			c3.99-0.79,8.08-1.24,12.15-1.43c8.7-0.41,17.4-0.67,26.11-0.77c3.99-0.05,7.86,1.08,11.62,2.42c2.78,0.99,2.99,1.44,2.46,4.36
			c3.51,0.31,7.07,0.39,10.54,0.97c9.12,1.53,18.22,3.36,26.82,6.76c10.47,4.14,19.92,10.11,28.21,17.81
			c0.39,0.36,0.77,0.75,1.08,1.19c1.36,1.9,0.87,3.28-1.36,3.77c-0.72,0.16-1.46,0.19-2.4,0.31c3.51,5.78,4.39,12.23,6.05,18.43
			c0.44,1.64,0.48,3.39,0.67,5.1c1.08,10.1,1.28,20.13-2.26,29.91c-1.42,3.93-2.49,7.99-3.75,11.98
			c-1.66,5.24-3.82,10.23-6.54,15.03c-1.4,2.47-2.2,5.29-3.36,8.15c1.08,0.24,1.78,0.44,2.5,0.56c6,0.93,8.5,5.07,9.94,10.44
			c2.63,9.83-6.75,23-20.09,21.51c-2.95-0.33-6.36-2.09-9.58-5c-5.05,5.68-10.6,10.88-17.35,14.51c-6.74,3.63-13.84,6.39-21.71,7.59
			c0.52,0.34,0.94,0.68,1.42,0.9c6.59,2.99,12.11,7.35,16.48,13.11c5.73,7.56,10.79,15.53,15.02,24.03
			c1.91,3.84,4.21,7.49,6.21,11.29c1.35,2.56,2.54,5.21,3.69,7.86c1.06,2.46,2.06,4.96,2.92,7.51c1.29,3.86,2.49,7.76,3.63,11.66
			c0.93,3.19,1.68,6.42,2.58,9.61c0.13,0.45,0.6,0.85,1,1.16c4.85,3.85,8.85,8.45,12.03,13.76c0.6,1,1.05,2.11,1.44,3.22
			c0.72,2.08,0.07,3.85-1.58,5.18c-1.53,1.23-3.19,1.04-4.79,0c-0.35-0.22-0.74-0.37-1.24-0.62c-0.68,1.19-0.31,2.39-0.49,3.5
			c-0.4,2.43-0.59,4.92-1.31,7.25c-0.82,2.65-2.19,3.19-4.98,2.68c-0.48-0.09-1.25-0.27-1.44-0.04c-1.73,2.17-4.44,1.13-6.57,2.02
			c-0.64,0.27-1.9-0.31-2.57-0.87c-1.33-1.1-2.27-2.55-2.58-4.34c-0.77-4.44-1.59-8.86-2.38-13.3c-0.09-0.52-0.15-1.04-0.31-2.27
			c-0.92,1.34-1.51,2.16-2.05,3.01c-0.64,0.99-1.18,2.06-1.86,3.01c-1.66,2.32-6,1.61-6.92-1.06c-0.66-1.92-0.69-3.78-0.13-5.68
			c1.11-3.73,3.29-6.79,6.29-9.16c1.16-0.91,1.43-1.72,0.99-2.94c-0.93-2.63-1.88-5.24-2.82-7.86c-0.83-2.32-1.6-4.67-2.51-6.95
			c-1.16-2.89-2.39-5.75-3.68-8.58c-3.12-6.84-6.17-13.71-10.15-20.13c-1.45-2.35-2.44-4.99-4.08-7.38
			c0.19,1.22,0.36,2.44,0.57,3.65c1.42,8.24,2.82,16.49,4.29,24.72c0.77,4.32,1.67,8.62,2.53,12.93c0.28,1.39,0.11,2.64-1.32,3.26
			c-1.12,0.49-1.3,1.18-1.07,2.3c0.37,1.78,0.61,3.59,0.85,5.4c1.28,9.67,2.49,19.35,3.84,29.01c0.94,6.69,2.33,13.32,3.03,20.03
			c0.59,5.68,1.81,11.22,2.61,16.84c0.77,5.41,0.92,10.9,1.42,16.35c0.19,2.02,0.52,4.04,0.94,6.02c0.6,2.81,0.68,2.67,3.43,2.91
			c3.62,0.32,7.25,0.62,10.78,1.74c7.07,2.26,11,7.17,12.48,14.23c0.44,2.09,0.77,4.24,0.72,6.36c-0.03,1.42-0.61,2.95-1.33,4.2
			c-0.46,0.81-1.56,1.56-2.49,1.74c-3.27,0.6-6.58,0.98-9.88,1.38c-4.58,0.55-9.17,1.04-13.76,1.54c-1.28,0.14-2.57,0.27-3.85,0.29
			c-8.82,0.15-17.64,0.17-26.43-0.6c-2.99-0.26-5.94-0.86-8.92-1.29c-1.17-0.17-1.55-0.94-1.74-1.99
			c-0.87-4.72-0.84-9.42,0.45-14.04c0.95-3.4,2.12-6.73,3.22-10.18c-2.15-1.78-2.04-1.79-2.23-4.95c-0.21-3.53-0.65-7.04-1-10.56
			c-0.09-0.96-0.29-1.92-0.3-2.88c-0.25-14.08-0.58-28.15-0.67-42.23c-0.04-7.3,0.36-14.61,0.55-21.91c0.02-0.64,0-1.29,0.03-1.93
			c0.05-1.09-0.45-1.56-1.54-1.54c-1.7,0.03-3.41,0.01-5.22,0.01c-0.4,6.81,0.17,13.5,0.82,20.18c0.33,3.42,0.59,6.85,0.69,10.28
			c0.3,9.66,0.5,19.33,0.73,29c0.16,6.87,0.74,13.71,1.75,20.51c0.06,0.42,0.11,0.85,0.14,1.28c0.23,3.43-0.23,4.09-3.5,5.09
			c-0.41,0.13-0.84,0.17-1.25,0.3c-0.88,0.27-1.08,0.78-0.8,1.71c1.6,5.26,2.52,10.62,2.37,16.14c-0.01,0.32-0.01,0.65-0.03,0.97
			c-0.24,4.51-0.72,5.25-5.05,5.94c-4.13,0.66-8.3,1.26-12.47,1.42c-9.35,0.36-18.7,0.52-28.06,0.58
			c-5.37,0.04-10.74-0.32-16.12-0.4c-2.79-0.05-5.17-1.36-7.69-2.24c-1.12-0.39-1.56-1.33-1.62-2.54c-0.13-2.72,0.13-5.4,1.2-7.89
			c1.39-3.26,2.82-6.51,4.52-9.61c0.79-1.45,2.06-2.82,3.44-3.73c7.07-4.61,14.75-6.88,23.27-5.35c0.63,0.11,1.28,0.22,1.92,0.25
			c1.43,0.07,1.64-0.15,1.59-1.67c-0.15-5.48-0.08-10.98-0.51-16.43c-1.93-24.58-0.95-49.21-1.17-73.81
			c-0.02-2.03,0.2-4.07,0.39-6.1c0.1-1.02-0.2-1.66-1.2-1.95c-0.62-0.18-1.23-0.4-1.84-0.61c-2.34-0.78-2.74-1.29-2.44-3.74
			c0.64-5.32,1.33-10.64,2.06-15.95c0.84-6.03,1.75-12.05,2.75-18.86c-1,1.82-1.72,2.98-2.29,4.2c-3.93,8.36-8.16,16.57-11.55,25.18
			c-1.72,4.35-2.46,8.87-3.29,13.41c-0.32,1.78-0.9,3.53-1.4,5.28C225.26,382.9,224.39,384.18,221.84,383.86z M186.68,130.84
			c-0.25,0.14-0.5,0.28-0.74,0.42c-0.2,4.21,0.49,8.25,2.37,12.09c0.42,0.87,0.95,1.7,1.27,2.6c0.41,1.14-0.21,1.98-1.39,1.86
			c-0.95-0.09-1.92-0.33-2.79-0.7c-2.96-1.27-5.87-2.67-8.83-3.94c-2.29-0.98-3.48-0.22-3.69,2.23c-0.26,3.1,1.05,5.46,3.95,6.72
			c1.47,0.64,3.06,0.97,4.59,1.46c2.95,0.94,3.52,2.66,1.63,5.01c-0.54,0.67-1.18,1.25-1.8,1.85c-1.69,1.66-3.45,3.25-5.06,4.97
			c-2.4,2.56-4.28,5.52-4.55,9.06c-0.41,5.46-0.63,10.94-0.6,16.42c0.01,2.07,0.8,4.19,1.51,6.19c0.33,0.94,1.2,1.77,2.01,2.44
			c0.94,0.78,1.79-0.22,2.67-0.47c1.32-0.38,2.15,0,2.42,1.28c0.2,0.93,0.15,1.92,0.17,2.88c0.13,6.65-0.1,13.3,0.66,19.96
			c0.93,8.17,3.78,15.57,7.8,22.81c2.26-0.98,4.44-2.22,7.05-1.73c0.4,0.08,1.18-0.54,1.41-1.02c2.51-5.22,5.48-10.23,7.08-15.87
			c1.26-4.44,2.6-8.87,4.12-13.22c4.62-13.22,7.28-26.89,9.56-40.66c0.09-0.52,0.12-1.18,0.45-1.5c1.13-1.13,0.74-2.35,0.45-3.61
			c-0.76-3.37-1.22-6.77-0.92-10.22c0.07-0.82,0.42-1.61,0.69-2.4c0.04-0.12,0.37-0.21,0.55-0.18c0.17,0.03,0.42,0.22,0.44,0.36
			c0.08,0.74,0.14,1.49,0.12,2.23c-0.16,6.13,1.4,11.91,3.52,17.57c2.33,6.21,6.66,10.45,12.93,12.62c2.53,0.88,5.12,1.62,7.7,2.36
			c0.65,0.19,1.38,0.11,2.22,0.17c-0.5-1.39-0.94-2.49-1.29-3.61c-0.93-2.97-2.02-5.92-1.82-9.1c0.04-0.65,0.39-1.62,0.85-1.8
			c0.51-0.2,1.34,0.28,1.97,0.58c0.37,0.17,0.6,0.61,0.93,0.88c4.04,3.4,8.29,6.52,13.04,8.86c2,0.99,4.17,1.8,6.35,2.25
			c6.91,1.45,13.92,0.94,20.89,0.49c6.1-0.39,12.18-1.11,18.27-1.68c0.67-0.06,1.34-0.16,2.1-0.26c-2.22-4.06-2.33-4.8-1.18-7.19
			c1.78,2.8,3.57,5.63,5.48,8.64c-1.37,0.43-2.94,0.93-4.79,1.51c2.86,2.75,5.6,5.14,9,6.53c5.59,2.29,11.39,3.83,17.44,4.36
			c2.35,0.21,4.69,0.55,7.02,0.92c0.29,0.05,0.7,0.59,0.7,0.91c0.01,0.24-0.52,0.7-0.83,0.72c-1.5,0.08-3.01,0.09-4.51,0.03
			c-1.28-0.04-1.77,0.54-1.62,1.75c0.07,0.53,0.09,1.07,0.21,1.59c0.91,3.97,1.82,7.94,2.77,11.91c1.9,7.93,3.82,15.85,5.76,23.77
			c0.46,1.88,0.03,3.99,1.43,5.82c2.49-3.39,5.56-5.83,9.44-7.16c1.46-0.5,1.75-1.74,2.21-2.94c1.09-2.79,2.2-5.58,3.36-8.35
			c1.88-4.44,4.01-8.79,5.67-13.31c1.74-4.73,3.11-9.6,4.52-14.44c1.42-4.86,2.43-9.79,2.18-14.91c-0.13-2.79-0.02-5.6-0.22-8.38
			c-0.33-4.6-0.67-9.21-2.18-13.63c-0.42-1.21-0.7-2.48-0.99-3.73c-0.88-3.8-1.84-7.53-5.17-10.1c-0.41-0.31-0.77-1.31-0.57-1.64
			c0.32-0.53,1.1-0.98,1.74-1.06c1.24-0.16,2.51-0.05,3.79-0.05c-0.05-0.43-0.02-0.56-0.08-0.63c-0.26-0.34-0.51-0.69-0.82-0.97
			c-8.9-7.81-18.78-14.02-30.07-17.73c-4.68-1.54-9.52-2.63-14.32-3.81c-8.52-2.1-17.13-3.03-25.87-1.51
			c-0.31,0.05-0.7,0.14-0.95,0.01c-0.53-0.27-1.27-0.6-1.4-1.05c-0.12-0.43,0.3-1.18,0.71-1.54c0.45-0.41,1.15-0.54,1.74-0.8
			c1.26-0.57,2.51-1.14,4.18-1.9c-4.09-1.42-7.76-2.5-11.66-2.4c-6.98,0.17-13.97,0.31-20.95,0.67c-4.82,0.24-9.65,0.62-14.43,1.29
			c-11.94,1.69-23.61,4.53-34.89,8.88c-7.85,3.03-15.47,6.5-21.76,12.3c-0.24,0.22-0.49,0.43-0.77,0.58
			c-0.64,0.35-1.16,0.41-1.48-0.47c-0.31-0.89-0.56-1.93-1.18-2.56C191.4,135.13,189.01,133.01,186.68,130.84z M198.66,244.63
			c2.81,0.97,4.81,2.54,6.35,4.69c0.2,0.28,0.15,0.74,0.21,1.11c-0.39-0.03-0.83,0.06-1.14-0.11c-0.57-0.29-1.09-0.7-1.57-1.12
			c-2.04-1.81-4.55-2.34-7.13-2.67c-1.91-0.25-3.75,0.19-5.11,1.49c-2.05,1.96-3.56,4.34-3.83,7.26
			c-0.55,5.91,1.98,10.69,6.01,14.66c2.8,2.76,6.59,3.34,10.39,3.78c2.78,0.32,4.63-0.84,5.77-3.12c0.96-1.91,1.68-3.95,2.32-5.99
			c0.6-1.89,0.21-3.72-1.44-4.93c-2.43-1.78-5-3.36-8.18-3.41c-2.93-0.04-5.6,0.41-7.15,3.34c-0.15,0.29-0.65,0.4-0.99,0.6
			c-0.19-0.47-0.59-0.96-0.54-1.4c0.25-2.12,2.5-4.29,4.86-4.55c3.99-0.43,7.87-0.45,11.54,1.81c2.6,1.6,4.44,3.64,5.67,6.36
			c0.52,1.15,1.06,2.34,1.82,3.33c6.68,8.75,15.49,14.41,25.96,17.6c10.6,3.23,21.44,5.25,32.47,6.18
			c10.38,0.88,20.61-0.59,30.63-3.05c11.51-2.83,21.53-8.49,29.64-17.3c2.79-3.03,5.3-6.29,6.49-10.26c1.35-4.49,4.4-6.98,8.69-8.18
			c3.07-0.86,5.23,0.04,6.96,2.63c0.92,1.37,1.07,2.5,0.3,2.86c-1.2,0.55-1.69-0.54-2.3-1.21c-0.79-0.86-1.41-1.89-2.76-2.04
			c-2.37-0.27-7.07,2.31-7.59,4.58c-0.53,2.35-1.39,4.5-2.57,6.55c-0.42,0.73-0.49,1.37,0.16,2.03c2.99,2.99,6.57,4.44,10.77,3.88
			c6.44-0.87,10.74-4.5,13.1-10.54c1.59-4.07,1.48-10.23-2.94-14.24c-1.17-1.07-3.06-1.44-4.68-1.9c-1.01-0.28-2.11-0.17-2.91,0.86
			c-0.23,0.29-1.07,0.41-1.42,0.22c-1.18-0.64-2.19-0.11-3,0.49c-1.88,1.4-3.7,2.9-5.39,4.52c-1.27,1.21-2.3,2.67-3.82,4.47
			c-0.64-2.4-1.29-4.21-1.6-6.08c-1.3-7.84-3.04-15.57-5.18-23.23c-1.79-6.4-3.67-12.8-4.04-19.49c-0.07-1.2-0.66-1.62-1.79-1.84
			c-3.05-0.6-6.11-1.22-9.11-2.02c-5.05-1.34-9.7-3.48-13.49-7.22c-0.92-0.9-1.86-1.81-2.91-2.54c-0.64-0.44-1.53-0.8-2.27-0.75
			c-3.53,0.24-7.07,0.55-10.58,0.99c-7.05,0.88-14.07,1.38-21.2,0.68c-5.6-0.55-10.72-2.16-15.42-5.15
			c-2.36-1.5-4.62-3.15-6.94-4.71c-0.55-0.37-1.16-0.68-2.14-1.24c0.25,1.26,0.31,2,0.56,2.67c0.98,2.73,2.04,5.42,3.01,8.15
			c0.63,1.8,0.08,2.41-1.94,2.4c-0.31,0-0.63,0.18-0.94,0.27c0.8,2.18-1.13,2.04-2.22,2.69c-0.91,0.54-1.85,1.18-2.46,2.01
			c-1.33,1.8-2.43,3.78-3.7,5.62c-0.32,0.46-0.94,0.72-1.42,1.08c-0.31-0.62-1-1.35-0.85-1.83c0.43-1.42,1.05-2.83,1.86-4.07
			c1.83-2.8,4.07-5.21,7.89-6.26c-3.84-1.19-7.15-2.13-10.39-3.25c-6.57-2.27-11.19-6.65-13.85-13.09c-0.3-0.73-0.73-1.41-1.16-2.25
			c-0.3,0.46-0.47,0.62-0.51,0.8c-1.89,9.02-3.47,18.12-5.75,27.04c-2.02,7.89-4.84,15.57-7.26,23.36
			c-1.37,4.43-2.95,8.74-5.38,12.73C200.18,240.92,199.57,242.65,198.66,244.63z M255.67,292.96c-6.44,4.1-11.77,8.59-16,14.26
			c-2.7,3.62-5.08,7.46-7.69,11.14c-6.28,8.87-12.25,17.93-17.38,27.52c-2.03,3.79-3.97,7.63-5.78,11.52
			c-1.9,4.09-3.6,8.27-5.36,12.42c-0.34,0.79-0.67,1.59-0.87,2.42c-0.32,1.36,0.04,2.43,1.26,3.35c4.81,3.64,10.46,4.82,16.22,5.71
			c0.53,0.08,1.08-0.02,1.61,0.01c1.01,0.05,1.66-0.44,1.91-1.37c0.55-2.07,1.23-4.13,1.5-6.24c0.44-3.43,1.15-6.77,2.32-10.01
			c4-11.05,9.48-21.41,14.64-31.93c0.5-1.02,0.9-2.15,2.43-2.3c0.45-0.04,1-1.02,1.18-1.66c0.56-2.07,0.94-4.18,1.45-6.27
			c0.86-3.54,1.74-7.09,2.69-10.6c0.19-0.71,0.78-1.32,1.18-1.97c0.23,0.08,0.46,0.17,0.69,0.25c-0.13,1.02-0.2,2.05-0.4,3.05
			c-1.38,6.83-3.01,13.62-4.13,20.5c-1.86,11.43-3.4,22.9-5.06,34.36c-0.24,1.68-0.06,2.09,1.68,2.51
			c3.54,0.86,7.11,1.64,10.69,2.32c7.51,1.42,15.06,2.15,22.73,2.33c9.7,0.23,19.33-0.83,29-0.99c2.34-0.04,4.69-0.52,7-0.98
			c1.93-0.39,2.02-0.69,1.53-2.66c-0.33-1.35-0.77-2.69-1.02-4.06c-1.14-6.44-2.23-12.89-3.33-19.33
			c-1.12-6.55-2.35-13.09-3.34-19.66c-0.79-5.19-1.3-10.42-1.93-15.63c-0.1-0.79-0.06-1.62,0.92-1.74c1.04-0.13,1.53,0.59,1.72,1.53
			c0.06,0.31,0.05,0.64,0.07,0.96c0.22,2.67,0.37,5.35,0.71,8.01c0.13,1.02,0.61,2.02,1.08,2.95c1.41,2.77,2.92,5.49,4.36,8.25
			c1.14,2.18,2.28,4.37,3.36,6.59c4.13,8.5,8.42,16.94,12.29,25.56c2.28,5.08,3.95,10.43,5.75,15.72c0.42,1.23,1.04,1.42,2.11,1.37
			c4.32-0.2,8.05-2.16,11.85-3.92c1.05-0.49,1.24-1.37,0.9-2.44c-0.58-1.84-1.19-3.68-1.65-5.56c-2.79-11.32-6.8-22.15-12.86-32.17
			c-0.78-1.29-1.52-2.6-2.18-3.95c-4.52-9.19-9.76-17.93-15.89-26.14c-4-5.35-8.94-9.56-14.78-12.75c-1.92-1.05-3.97-1.7-6.18-1.47
			c-0.38,0.04-0.88,0.5-1.04,0.88c-0.19,0.47-0.03,1.07-0.12,1.59c-1.07,6.41-3.81,11.64-10.32,14.01
			c-6.22,2.26-12.48,1.68-18.65-0.22c-3.31-1.02-5.76-3.18-7.62-6.14C257.29,299.24,255.87,296.54,255.67,292.96z M273.97,389.16
			c0.9-1.01,2.14-0.73,3.26-0.78c5.26-0.22,10.51-0.4,15.77-0.59c0.75-0.03,1.53-0.09,2.24,0.1c0.37,0.1,0.69,0.66,0.86,1.08
			c0.04,0.11-0.53,0.64-0.87,0.7c-1.37,0.24-2.76,0.49-4.15,0.53c-1.99,0.06-2.09,0.74-2.08,2.41c0.04,8.71-0.08,17.42,0.03,26.13
			c0.15,12.35,0.43,24.71,0.72,37.06c0.06,2.46,0.37,4.91,0.58,7.36c0.22,2.56,0.54,5.12,0.68,7.69c0.14,2.7,0.14,2.81,2.84,3.27
			c8.32,1.42,16.63,2.04,24.96,0.06c1.46-0.35,2.98-0.4,4.44-0.73c2.19-0.49,3.11-1.32,2.29-3.59c-0.58-1.59-0.78-3.35-0.9-5.05
			c-0.55-7.81-1.14-15.6-2.63-23.31c-0.71-3.68-0.93-7.45-1.49-11.16c-0.97-6.36-2.07-12.7-3.04-19.05
			c-0.92-6.04-1.75-12.09-2.59-18.14c-0.69-4.99-1.31-9.99-2.01-14.98c-0.38-2.71-0.51-2.79-3.3-2.6
			c-5.89,0.39-11.78,0.99-17.68,1.17c-13.66,0.41-27.3,0.21-40.76-2.64c-4-0.85-4.08-0.76-4.07,3.23
			c0.02,19.57,0.06,39.14,0.11,58.71c0,1.29,0.09,2.58,0.16,3.87c0.36,6.86,0.76,13.73,1.08,20.59c0.12,2.68,0.07,5.38,0.11,8.06
			c0.05,3.8,0.05,3.81,3.75,4.68c0.62,0.15,1.27,0.22,1.9,0.3c2.13,0.25,4.25,0.49,6.38,0.71c2.24,0.23,4.48,0.52,6.72,0.59
			c3.01,0.1,6.02,0.04,9.04,0.02c0.86-0.01,1.73-0.02,2.57-0.18c2.95-0.58,3.32-1.24,2.98-4.17c-0.64-5.54-1.45-11.08-1.71-16.64
			c-0.45-9.44-0.48-18.9-0.77-28.35c-0.16-5.04-0.49-10.08-0.78-15.12c-0.31-5.46-0.67-10.92-0.96-16.38
			c-0.06-1.16,0.61-2.76,0.06-3.38c-0.68-0.78-2.28-0.76-3.48-1.1C274.15,389.5,274.11,389.37,273.97,389.16z M252.6,494.23
			c0,0.02,0,0.04,0,0.05c5.49,0,10.97,0.08,16.46-0.04c2.67-0.06,5.33-0.51,8-0.76c1.33-0.13,1.93-0.81,1.74-2.14
			c-0.48-3.39-0.73-6.84-1.54-10.16c-0.91-3.74-1.22-3.72-5.11-3.76c-4.08-0.04-8.16,0.26-12.21-0.61c-1.88-0.4-3.81-0.58-5.72-0.79
			c-1.99-0.22-4.08-0.04-5.97-0.58c-6.91-1.97-13.7-2.08-20.55,0.33c-5.54,1.95-9.87,4.97-12,10.78c-1.2,3.28-1.15,4.36,1.97,5.89
			c1.22,0.6,2.63,1,3.99,1.1c4.28,0.33,8.58,0.58,12.87,0.66C240.55,494.31,246.57,494.23,252.6,494.23z M303.7,495.67
			c6.26-0.31,10.86-0.73,15.47-0.73c7.63-0.01,15.26-0.06,22.79-1.4c3.15-0.56,6.21-1.64,9.31-2.48c0.87-0.23,1.33-0.82,1.1-1.66
			c-0.87-3.2-1.64-6.5-4.37-8.76c-2.17-1.8-4.57-3.23-7.36-3.82c-1.78-0.37-3.58-0.82-5.38-0.88c-4.06-0.13-8.19-0.52-12.16,0.07
			c-7.24,1.09-14.45,2.01-21.78,1.47c-2.13-0.16-4.26-0.47-6.38-0.76c-1.12-0.16-1.86,0.2-2.29,1.25
			c-1.78,4.38-3.46,8.79-3.68,13.58c-0.1,2.12,0.12,2.38,2.28,2.66C295.93,494.81,300.61,495.31,303.7,495.67z M357.49,388.24
			c1.44,1.63,1.87,3.31,1.79,4.75c-0.13,2.43,1.29,3.42,2.98,4.41c1.7,0.99,3.3,0.16,3.24-1.79c-0.03-0.93-0.31-1.94-0.75-2.75
			c-3.02-5.52-7.01-10.26-11.6-14.54c-0.76-0.71-1.37-0.74-2.27-0.27c-3.91,2.04-7.89,3.91-12.4,4.19
			c-0.32,0.02-0.64,0.11-0.93,0.24c-4.05,1.84-6.95,4.86-8.88,8.83c-0.88,1.8-1.11,3.71-0.73,5.65c0.31,1.56,1.87,2.41,3.18,1.73
			c0.61-0.32,1.09-1,1.49-1.61c0.89-1.34,1.55-2.87,2.6-4.05c0.72-0.82,2.01-1.73,2.93-1.63c1.41,0.15,1.11,1.81,1.26,2.94
			c0.01,0.11,0.01,0.21,0.02,0.32c0.27,4.73,1.22,9.35,2.45,13.91c0.14,0.51,0.21,1.1,0.51,1.51c0.67,0.9,1.14,2.38,2.58,2
			c1.35-0.36,0.95-1.77,0.95-2.78c0.03-5.47,0.27-10.95-0.98-16.35c-0.08-0.37,0.35-0.85,0.54-1.28c0.39,0.28,0.93,0.49,1.14,0.87
			c0.3,0.54,0.46,1.21,0.51,1.84c0.27,2.99,0.57,5.97,0.71,8.96c0.12,2.47,0,4.94,0.05,7.41c0.01,0.45,0.33,0.9,0.51,1.35
			c0.46-0.23,1.02-0.36,1.36-0.71c1.44-1.46,1.9-3.35,1.92-5.31c0.05-4.08-0.03-8.16,0.06-12.24c0.02-0.93-0.75-2.18,0.72-2.77
			c0.37,0.95,0.75,1.89,1.11,2.85c0.07,0.19,0.04,0.43,0.04,0.64c-0.09,4.71,0.55,9.45-0.51,14.13c-0.2,0.87-0.16,1.77,0.89,2.13
			c1,0.34,1.79-0.2,2.09-1.03c0.58-1.6,1.28-3.27,1.31-4.92c0.1-4.82-0.1-9.64-0.17-14.46
			C357.22,389.82,357.36,389.25,357.49,388.24z M210.77,416.93c-0.22-1.14-0.47-1.94-0.51-2.75c-0.26-5.68-0.48-11.36-0.7-17.04
			c-0.01-0.32,0.01-0.68,0.15-0.94c0.13-0.24,0.45-0.51,0.69-0.52c0.26-0.01,0.7,0.22,0.76,0.43c0.22,0.82,0.39,1.66,0.44,2.5
			c0.22,4.5,0.36,9.01,0.61,13.51c0.06,1.15,0.33,2.33,0.72,3.41c0.18,0.51,0.87,1.13,1.34,1.14c0.43,0.01,1.15-0.65,1.29-1.14
			c0.5-1.85,1.05-3.73,1.14-5.63c0.17-3.54-0.03-7.09,0.04-10.63c0.06-2.82,1.5-4.14,4.26-4.1c2.09,0.03,3.59,1.09,4.91,2.66
			c1.55,1.84,3.14,1.99,5.07,0.8c1.84-1.14,1.89-4.29,0.02-5.4c-1.38-0.82-2.87-1.47-4.3-2.21c-2.43-1.24-4.79-2.74-5.96-5.21
			c-0.77-1.64-1.91-2.05-3.37-2.47c-3.7-1.06-7.4-2.15-11.06-3.38c-1.04-0.35-1.52-0.07-2.18,0.63c-5.18,5.38-8.03,11.89-9.02,19.19
			c-0.2,1.48,0.44,3.14,0.94,4.63c0.19,0.58,1,1.07,1.64,1.36c0.8,0.35,1.4-0.24,1.31-1.16c-0.23-2.35-0.48-4.69-0.72-7.04
			c-0.18-1.8-0.19-3.57,0.96-5.21c1.13,0.66,1.23,1.61,1.29,2.55c0.07,1.07,0.02,2.15,0.12,3.22c0.36,3.95,0.57,7.92,1.82,11.72
			c0.45,1.38,0.93,2.74,2.51,3.6c-0.36-3.24-0.8-6.19-0.97-9.16c-0.18-2.92-0.15-5.86,1.32-9.37c0.28,1.35,0.47,1.92,0.5,2.51
			c0.22,3.64,0.3,7.29,0.63,10.92c0.16,1.79,0.67,3.56,1.17,5.31C208.06,415.13,209.07,416.15,210.77,416.93z M276.04,307.07
			c1.49,0,2.46,0.01,3.42,0c6.52-0.11,12.69-5.66,13.46-12.12c0.08-0.64,0.05-1.29,0.08-1.93c0.05-0.94-0.42-1.43-1.34-1.36
			c-1.6,0.13-3.2,0.44-4.8,0.44c-1.39,0-2.2,0.52-2.69,1.78c-1.12,2.87-3.42,4.45-6.29,4.97c-2.18,0.4-4.46,0.43-6.68,0.32
			c-3.62-0.18-5.45-2.63-6.57-5.76c-0.14-0.39,0-0.92-0.21-1.25c-0.29-0.47-0.72-0.94-1.21-1.19c-0.45-0.23-1.05-0.15-1.58-0.24
			c-3.07-0.55-3.57-0.16-3.59,2.94c0,0.64-0.09,1.36,0.16,1.91c2.09,4.56,4.5,8.8,9.79,10.42
			C270.81,306.87,273.64,307.22,276.04,307.07z M213.89,491.84c-1.38,1.92-1.1,4.02-1.14,6.01c-0.01,0.48,0.51,1.24,0.97,1.43
			c2.27,0.94,4.49,2.04,7.06,2.02c17.38-0.14,34.79,0.71,52.12-1.3c1.48-0.17,2.97-0.47,4.41-0.87c1.22-0.34,1.75-1.5,1.37-2.83
			c-0.36-1.28-1.36-0.63-2.12-0.57c-3.41,0.27-6.82,0.76-10.24,0.82c-7.19,0.14-14.39,0.08-21.58,0.07c-2.68,0-5.37-0.03-8.04-0.18
			c-4.29-0.23-8.56-0.74-12.85-0.8C220.02,495.59,216.61,494.83,213.89,491.84z M352.99,493.09c-3.05,0.85-5.78,1.88-8.61,2.33
			c-4.33,0.69-8.71,1.14-13.08,1.39c-5.89,0.34-11.8,0.44-17.7,0.54c-6.11,0.11-12.23,0.56-18.31-0.53
			c-1.69-0.3-3.37-0.62-5.04-0.99c-0.86-0.19-1.21,0.17-1.27,0.93c-0.04,0.53-0.02,1.07,0.01,1.61c0.12,1.96,0.12,2,2.24,2.32
			c2.97,0.44,5.93,1.02,8.92,1.17c16.76,0.84,33.45,0.28,50.03-2.49c1.61-0.27,2.51-0.99,2.78-2.63
			C353.13,495.71,352.99,494.62,352.99,493.09z M281.9,292.56c-4.85-0.53-9.58-1.06-14.31-1.51c-0.32-0.03-0.98,0.56-1,0.89
			c-0.1,1.49,2.23,4.52,3.78,4.69c2.1,0.22,4.27,0.38,6.35,0.11C279.11,296.41,281.1,295.2,281.9,292.56z"/>
		<path class="st0" d="M186.68,130.84c2.33,2.17,4.72,4.29,6.96,6.55c0.62,0.63,0.87,1.67,1.18,2.56c0.31,0.89,0.84,0.83,1.48,0.47
			c0.28-0.15,0.54-0.36,0.77-0.58c6.29-5.81,13.91-9.27,21.76-12.3c11.27-4.35,22.94-7.2,34.89-8.88c4.78-0.67,9.61-1.05,14.43-1.29
			c6.98-0.35,13.96-0.5,20.95-0.67c3.89-0.09,7.56,0.98,11.66,2.4c-1.67,0.76-2.93,1.33-4.18,1.9c-0.59,0.26-1.29,0.39-1.74,0.8
			c-0.4,0.37-0.83,1.12-0.71,1.54c0.13,0.45,0.87,0.78,1.4,1.05c0.25,0.13,0.64,0.05,0.95-0.01c8.74-1.52,17.35-0.59,25.87,1.51
			c4.8,1.18,9.63,2.27,14.32,3.81c11.29,3.71,21.16,9.93,30.07,17.73c0.32,0.28,0.56,0.64,0.82,0.97c0.06,0.07,0.03,0.21,0.08,0.63
			c-1.28,0-2.56-0.11-3.79,0.05c-0.64,0.08-1.41,0.53-1.74,1.06c-0.2,0.32,0.16,1.32,0.57,1.64c3.33,2.57,4.29,6.3,5.17,10.1
			c0.29,1.25,0.57,2.52,0.99,3.73c1.51,4.42,1.86,9.03,2.18,13.63c0.2,2.78,0.09,5.59,0.22,8.38c0.24,5.12-0.77,10.05-2.18,14.91
			c-1.41,4.84-2.78,9.71-4.52,14.44c-1.66,4.52-3.79,8.87-5.67,13.31c-1.17,2.76-2.27,5.55-3.36,8.35c-0.47,1.2-0.76,2.44-2.21,2.94
			c-3.88,1.33-6.95,3.78-9.44,7.16c-1.4-1.83-0.97-3.94-1.43-5.82c-1.93-7.92-3.85-15.84-5.76-23.77
			c-0.95-3.96-1.86-7.93-2.77-11.91c-0.12-0.52-0.15-1.06-0.21-1.59c-0.15-1.22,0.34-1.8,1.62-1.75c1.5,0.05,3.01,0.05,4.51-0.03
			c0.31-0.02,0.84-0.47,0.83-0.72c-0.01-0.32-0.41-0.86-0.7-0.91c-2.33-0.36-4.67-0.71-7.02-0.92c-6.05-0.53-11.85-2.07-17.44-4.36
			c-3.4-1.39-6.14-3.78-9-6.53c1.85-0.59,3.42-1.08,4.79-1.51c-1.91-3.01-3.7-5.83-5.48-8.64c-1.15,2.4-1.04,3.13,1.18,7.19
			c-0.76,0.09-1.43,0.2-2.1,0.26c-6.09,0.58-12.17,1.29-18.27,1.68c-6.97,0.45-13.98,0.95-20.89-0.49
			c-2.18-0.46-4.35-1.27-6.35-2.25c-4.75-2.34-9-5.46-13.04-8.86c-0.33-0.28-0.56-0.71-0.93-0.88c-0.63-0.3-1.46-0.78-1.97-0.58
			c-0.46,0.18-0.81,1.16-0.85,1.8c-0.21,3.18,0.89,6.13,1.82,9.1c0.35,1.13,0.79,2.23,1.29,3.61c-0.84-0.06-1.57,0.02-2.22-0.17
			c-2.58-0.74-5.16-1.48-7.7-2.36c-6.28-2.17-10.6-6.41-12.93-12.62c-2.12-5.66-3.68-11.44-3.52-17.57
			c0.02-0.74-0.04-1.49-0.12-2.23c-0.01-0.14-0.27-0.33-0.44-0.36c-0.18-0.03-0.51,0.06-0.55,0.18c-0.27,0.79-0.62,1.59-0.69,2.4
			c-0.3,3.46,0.15,6.86,0.92,10.22c0.29,1.26,0.68,2.48-0.45,3.61c-0.33,0.33-0.36,0.98-0.45,1.5c-2.28,13.77-4.94,27.44-9.56,40.66
			c-1.52,4.36-2.86,8.78-4.12,13.22c-1.6,5.64-4.57,10.65-7.08,15.87c-0.23,0.48-1,1.09-1.41,1.02c-2.61-0.49-4.79,0.75-7.05,1.73
			c-4.02-7.24-6.87-14.64-7.8-22.81c-0.76-6.66-0.53-13.3-0.66-19.96c-0.02-0.96,0.02-1.95-0.17-2.88
			c-0.27-1.28-1.11-1.66-2.42-1.28c-0.88,0.25-1.73,1.25-2.67,0.47c-0.8-0.67-1.68-1.5-2.01-2.44c-0.71-2-1.5-4.11-1.51-6.19
			c-0.03-5.47,0.2-10.96,0.6-16.42c0.26-3.54,2.15-6.5,4.55-9.06c1.62-1.72,3.38-3.31,5.06-4.97c0.61-0.6,1.26-1.18,1.8-1.85
			c1.9-2.35,1.33-4.07-1.63-5.01c-1.53-0.49-3.13-0.82-4.59-1.46c-2.9-1.26-4.2-3.62-3.95-6.72c0.2-2.45,1.4-3.22,3.69-2.23
			c2.96,1.27,5.87,2.67,8.83,3.94c0.87,0.37,1.84,0.61,2.79,0.7c1.18,0.12,1.8-0.72,1.39-1.86c-0.32-0.9-0.84-1.74-1.27-2.6
			c-1.88-3.84-2.57-7.89-2.37-12.09C186.19,131.12,186.44,130.98,186.68,130.84z"/>
		<path class="st1" d="M198.66,244.63c0.91-1.98,1.53-3.71,2.46-5.24c2.43-3.99,4-8.3,5.38-12.73c2.41-7.79,5.24-15.47,7.26-23.36
			c2.28-8.92,3.86-18.02,5.75-27.04c0.04-0.19,0.21-0.34,0.51-0.8c0.44,0.84,0.86,1.52,1.16,2.25c2.66,6.44,7.28,10.82,13.85,13.09
			c3.24,1.12,6.55,2.05,10.39,3.25c-3.82,1.05-6.06,3.46-7.89,6.26c-0.81,1.24-1.43,2.65-1.86,4.07c-0.15,0.48,0.54,1.22,0.85,1.83
			c0.48-0.35,1.1-0.61,1.42-1.08c1.27-1.85,2.37-3.82,3.7-5.62c0.61-0.83,1.56-1.47,2.46-2.01c1.09-0.65,3.02-0.51,2.22-2.69
			c0.31-0.09,0.63-0.27,0.94-0.27c2.03,0.01,2.58-0.61,1.94-2.4c-0.96-2.73-2.03-5.42-3.01-8.15c-0.24-0.68-0.3-1.42-0.56-2.67
			c0.98,0.57,1.58,0.87,2.14,1.24c2.32,1.56,4.58,3.22,6.94,4.71c4.71,2.99,9.82,4.6,15.42,5.15c7.13,0.7,14.15,0.2,21.2-0.68
			c3.51-0.44,7.05-0.75,10.58-0.99c0.75-0.05,1.63,0.31,2.27,0.75c1.05,0.73,2,1.63,2.91,2.54c3.79,3.74,8.44,5.88,13.49,7.22
			c3,0.8,6.06,1.43,9.11,2.02c1.12,0.22,1.72,0.64,1.79,1.84c0.37,6.7,2.25,13.1,4.04,19.49c2.14,7.66,3.88,15.39,5.18,23.23
			c0.31,1.87,0.96,3.68,1.6,6.08c1.52-1.8,2.55-3.26,3.82-4.47c1.69-1.62,3.52-3.12,5.39-4.52c0.81-0.61,1.82-1.13,3-0.49
			c0.35,0.19,1.19,0.06,1.42-0.22c0.81-1.03,1.91-1.14,2.91-0.86c1.63,0.46,3.51,0.83,4.68,1.9c4.41,4.02,4.53,10.17,2.94,14.24
			c-2.36,6.04-6.65,9.67-13.1,10.54c-4.2,0.56-7.79-0.89-10.77-3.88c-0.66-0.66-0.58-1.3-0.16-2.03c1.18-2.06,2.04-4.2,2.57-6.55
			c0.52-2.27,5.22-4.85,7.59-4.58c1.35,0.15,1.97,1.18,2.76,2.04c0.62,0.67,1.11,1.76,2.3,1.21c0.77-0.36,0.61-1.49-0.3-2.86
			c-1.73-2.58-3.89-3.48-6.96-2.63c-4.29,1.2-7.35,3.69-8.69,8.18c-1.19,3.98-3.7,7.23-6.49,10.26
			c-8.11,8.81-18.13,14.47-29.64,17.3c-10.02,2.46-20.25,3.93-30.63,3.05c-11.03-0.93-21.87-2.95-32.47-6.18
			c-10.47-3.19-19.28-8.84-25.96-17.6c-0.76-1-1.3-2.18-1.82-3.33c-1.23-2.73-3.07-4.77-5.67-6.36c-3.67-2.25-7.55-2.24-11.54-1.81
			c-2.36,0.26-4.61,2.43-4.86,4.55c-0.05,0.44,0.35,0.93,0.54,1.4c0.34-0.2,0.83-0.31,0.99-0.6c1.55-2.93,4.22-3.39,7.15-3.34
			c3.18,0.05,5.75,1.63,8.18,3.41c1.65,1.21,2.04,3.04,1.44,4.93c-0.65,2.04-1.36,4.09-2.32,5.99c-1.15,2.29-2.99,3.45-5.77,3.12
			c-3.8-0.44-7.6-1.02-10.39-3.78c-4.03-3.98-6.56-8.75-6.01-14.66c0.27-2.91,1.79-5.3,3.83-7.26c1.36-1.31,3.2-1.74,5.11-1.49
			c2.58,0.33,5.09,0.87,7.13,2.67c0.48,0.43,1,0.83,1.57,1.12c0.31,0.16,0.76,0.08,1.14,0.11c-0.06-0.37-0.01-0.83-0.21-1.11
			C203.47,247.17,201.47,245.6,198.66,244.63z M292.91,250.25c1.11,1.29,2.98-0.12,3.29,1.46c0.24,1.2,0.07,2.63-0.38,3.78
			c-0.62,1.57-1.5,3.12-2.58,4.42c-2.46,2.96-5.62,4.98-9.38,5.95c-4.31,1.11-8.65,1.17-13.1,0.79c-7.17-0.62-13.26-3.34-18.49-8.18
			c-1.81-1.68-3.61-3.38-5.43-5.05c-0.47-0.43-0.97-0.87-1.54-1.13c-0.31-0.14-0.89-0.05-1.14,0.17c-0.16,0.14-0.1,0.84,0.11,1.07
			c2.65,2.81,5.24,5.69,8.06,8.33c4.27,3.99,9.43,6.21,15.17,7.32c3.86,0.74,7.71,0.47,11.56,0.54c3.19,0.05,6.2-0.75,9.02-2.12
			c6.06-2.93,9.89-7.54,10.01-14.53c0.04-2.21,0.72-2.22,2.58-2.06c0.41,0.04,0.83,0.21,1.21,0.39c0.62,0.29,1.36,0.58,1.61-0.22
			c0.15-0.47-0.17-1.33-0.56-1.66c-0.53-0.45-1.36-0.81-2.05-0.79c-2.24,0.06-4.48,0.27-6.71,0.54
			C293.78,249.3,293.41,249.84,292.91,250.25z M278.88,229.09c0.31-0.4,0.54-0.56,0.55-0.73c0.02-0.42,0.03-0.87-0.1-1.26
			c-1-3.04-3.29-4.79-6.23-5.54c-2.16-0.55-4.45-0.81-6.68-0.81c-4.86-0.01-8.04,2.46-9.6,7.1c-1.01,3.02-0.95,6.14-0.79,9.25
			c0.23,4.57,2.65,7.6,6.88,9.19c3.2,1.2,6.56,1.09,9.87,0.67c0.98-0.12,1.95-0.85,2.76-1.5c0.38-0.3,0.38-1.08,0.55-1.65
			c-0.49-0.01-1.04-0.18-1.46-0.02c-3.4,1.3-6.82,0.77-10.14-0.12c-2.74-0.74-4.69-2.61-5.35-5.5c-0.8-3.53-0.69-7.04,0.65-10.43
			c0.89-2.27,2.56-3.77,5.04-3.97c2.01-0.16,4.06-0.05,6.08,0.07c2.47,0.15,4.53,1.21,6.11,3.16
			C277.59,227.72,278.23,228.37,278.88,229.09z M289.7,214.04c-0.12,0.02-0.23,0.05-0.35,0.07c0.41,1.86,0.72,3.74,1.25,5.57
			c0.34,1.16,1.15,2.07,2.49,2.24c1.52,0.19,2.42-0.76,3.05-1.92c0.45-0.83,0.74-1.76,0.99-2.68c0.63-2.26,0.23-4.49-0.57-6.61
			c-0.68-1.8-2.24-2.57-4.12-2.33c-1.63,0.21-2.53,1.3-2.73,3.41C289.65,212.53,289.7,213.29,289.7,214.04z M256.79,212.77
			c-0.17-1.22-0.23-1.85-0.35-2.48c-0.28-1.5-1.07-2.57-2.68-2.78c-1.5-0.2-2.73,0.31-3.61,1.57c-1.59,2.25-1.63,7.85-0.2,10.17
			c1.27,2.05,4.38,2.07,5.08-0.25C255.71,216.77,256.31,214.51,256.79,212.77z M292.8,196.06c-0.88,0.1-1.27,0.03-1.5,0.19
			c-0.38,0.28-0.77,0.66-0.92,1.08c-0.07,0.19,0.38,0.68,0.69,0.85c0.46,0.26,1,0.37,1.51,0.51c3.17,0.86,5.91,2.51,8.28,4.72
			c1.39,1.3,2.52,2.89,3.78,4.35c0.56,0.65,1.23,1.49,2.11,0.92c1-0.65,0.58-1.71,0.15-2.6c-0.18-0.38-0.47-0.71-0.72-1.06
			c-2.37-3.27-5.41-5.77-9.05-7.47C295.6,196.85,293.93,196.45,292.8,196.06z M285.6,273.69c-3.12,3.16-6.45,3.12-9.97,2.65
			c-2.36-0.31-4.67-0.58-6.72-1.91c-0.19-0.12-0.67-0.04-0.82,0.12c-0.16,0.17-0.22,0.7-0.08,0.83c0.83,0.79,1.62,1.76,2.63,2.21
			c3.85,1.75,7.96,1.52,12.01,1C284.76,278.32,285.55,276.92,285.6,273.69z"/>
		<path class="st2" d="M255.67,292.96c0.2,3.58,1.62,6.28,3.28,8.93c1.85,2.96,4.31,5.12,7.62,6.14c6.18,1.9,12.44,2.48,18.65,0.22
			c6.5-2.36,9.25-7.6,10.32-14.01c0.09-0.53-0.08-1.13,0.12-1.59c0.16-0.38,0.65-0.84,1.04-0.88c2.21-0.23,4.26,0.42,6.18,1.47
			c5.84,3.19,10.78,7.4,14.78,12.75c6.13,8.21,11.38,16.95,15.89,26.14c0.66,1.35,1.4,2.67,2.18,3.95
			c6.06,10.02,10.07,20.84,12.86,32.17c0.46,1.87,1.07,3.71,1.65,5.56c0.34,1.08,0.15,1.95-0.9,2.44c-3.8,1.76-7.53,3.73-11.85,3.92
			c-1.06,0.05-1.69-0.14-2.11-1.37c-1.8-5.28-3.47-10.64-5.75-15.72c-3.87-8.62-8.16-17.05-12.29-25.56
			c-1.08-2.22-2.22-4.41-3.36-6.59c-1.44-2.76-2.95-5.48-4.36-8.25c-0.48-0.93-0.95-1.94-1.08-2.95c-0.34-2.66-0.49-5.34-0.71-8.01
			c-0.03-0.32-0.01-0.65-0.07-0.96c-0.18-0.94-0.68-1.66-1.72-1.53c-0.98,0.12-1.02,0.95-0.92,1.74c0.63,5.21,1.14,10.44,1.93,15.63
			c1,6.57,2.22,13.11,3.34,19.66c1.11,6.44,2.19,12.89,3.33,19.33c0.24,1.37,0.68,2.7,1.02,4.06c0.48,1.97,0.4,2.27-1.53,2.66
			c-2.31,0.46-4.66,0.94-7,0.98c-9.67,0.16-19.3,1.21-29,0.99c-7.66-0.18-15.22-0.9-22.73-2.33c-3.58-0.68-7.15-1.46-10.69-2.32
			c-1.74-0.42-1.93-0.83-1.68-2.51c1.66-11.46,3.2-22.94,5.06-34.36c1.12-6.87,2.75-13.67,4.13-20.5c0.2-1,0.27-2.03,0.4-3.05
			c-0.23-0.08-0.46-0.17-0.69-0.25c-0.41,0.65-0.99,1.26-1.18,1.97c-0.96,3.52-1.83,7.06-2.69,10.6c-0.51,2.08-0.88,4.2-1.45,6.27
			c-0.17,0.64-0.72,1.61-1.18,1.66c-1.52,0.15-1.93,1.28-2.43,2.3c-5.16,10.51-10.64,20.88-14.64,31.93
			c-1.18,3.25-1.88,6.58-2.32,10.01c-0.27,2.11-0.95,4.17-1.5,6.24c-0.25,0.93-0.9,1.42-1.91,1.37c-0.54-0.03-1.09,0.07-1.61-0.01
			c-5.76-0.89-11.41-2.07-16.22-5.71c-1.22-0.92-1.58-1.99-1.26-3.35c0.2-0.83,0.53-1.63,0.87-2.42c1.77-4.15,3.47-8.33,5.36-12.42
			c1.81-3.9,3.75-7.74,5.78-11.52c5.13-9.59,11.1-18.65,17.38-27.52c2.61-3.68,4.99-7.53,7.69-11.14
			C243.9,301.55,249.22,297.06,255.67,292.96z"/>
		<path class="st3" d="M273.97,389.16c0.14,0.22,0.17,0.35,0.24,0.37c1.2,0.34,2.79,0.32,3.48,1.1c0.55,0.63-0.12,2.23-0.06,3.38
			c0.29,5.46,0.65,10.92,0.96,16.38c0.28,5.04,0.62,10.08,0.78,15.12c0.3,9.45,0.33,18.91,0.77,28.35
			c0.26,5.56,1.07,11.1,1.71,16.64c0.34,2.93-0.03,3.58-2.98,4.17c-0.84,0.16-1.71,0.18-2.57,0.18c-3.01,0.02-6.03,0.08-9.04-0.02
			c-2.24-0.08-4.48-0.37-6.72-0.59c-2.13-0.21-4.25-0.46-6.38-0.71c-0.64-0.07-1.28-0.15-1.9-0.3c-3.7-0.87-3.7-0.88-3.75-4.68
			c-0.03-2.69,0.02-5.38-0.11-8.06c-0.32-6.87-0.72-13.73-1.08-20.59c-0.07-1.29-0.16-2.58-0.16-3.87
			c-0.05-19.57-0.09-39.14-0.11-58.71c0-3.99,0.07-4.08,4.07-3.23c13.46,2.86,27.1,3.05,40.76,2.64c5.9-0.18,11.79-0.78,17.68-1.17
			c2.79-0.18,2.92-0.11,3.3,2.6c0.7,4.99,1.32,9.99,2.01,14.98c0.84,6.05,1.67,12.1,2.59,18.14c0.97,6.36,2.07,12.69,3.04,19.05
			c0.56,3.71,0.78,7.48,1.49,11.16c1.49,7.71,2.08,15.5,2.63,23.31c0.12,1.7,0.32,3.47,0.9,5.05c0.83,2.27-0.1,3.09-2.29,3.59
			c-1.46,0.33-2.99,0.38-4.44,0.73c-8.33,1.98-16.65,1.37-24.96-0.06c-2.7-0.46-2.69-0.57-2.84-3.27c-0.14-2.57-0.46-5.12-0.68-7.69
			c-0.21-2.45-0.52-4.9-0.58-7.36c-0.28-12.35-0.56-24.71-0.72-37.06c-0.11-8.71,0.01-17.42-0.03-26.13
			c-0.01-1.67,0.09-2.35,2.08-2.41c1.39-0.04,2.77-0.29,4.15-0.53c0.34-0.06,0.92-0.59,0.87-0.7c-0.17-0.42-0.49-0.99-0.86-1.08
			c-0.71-0.18-1.49-0.12-2.24-0.1c-5.26,0.18-10.51,0.37-15.77,0.59C276.11,388.43,274.87,388.14,273.97,389.16z"/>
		<path class="st4" d="M252.6,494.23c-6.02,0-12.05,0.08-18.07-0.03c-4.29-0.08-8.59-0.33-12.87-0.66c-1.35-0.1-2.77-0.5-3.99-1.1
			c-3.12-1.53-3.17-2.6-1.97-5.89c2.12-5.8,6.46-8.82,12-10.78c6.85-2.41,13.64-2.3,20.55-0.33c1.89,0.54,3.98,0.36,5.97,0.58
			c1.91,0.21,3.85,0.38,5.72,0.79c4.05,0.87,8.14,0.57,12.21,0.61c3.88,0.04,4.19,0.02,5.11,3.76c0.81,3.31,1.06,6.77,1.54,10.16
			c0.19,1.33-0.42,2.01-1.74,2.14c-2.67,0.25-5.33,0.7-8,0.76c-5.48,0.12-10.97,0.04-16.46,0.04
			C252.6,494.26,252.6,494.24,252.6,494.23z"/>
		<path class="st4" d="M303.7,495.67c-3.08-0.36-7.77-0.86-12.44-1.46c-2.16-0.28-2.38-0.54-2.28-2.66c0.22-4.79,1.9-9.2,3.68-13.58
			c0.43-1.06,1.17-1.41,2.29-1.25c2.12,0.3,4.25,0.61,6.38,0.76c7.33,0.54,14.54-0.38,21.78-1.47c3.97-0.6,8.11-0.2,12.16-0.07
			c1.8,0.06,3.6,0.51,5.38,0.88c2.8,0.59,5.2,2.02,7.36,3.82c2.73,2.26,3.5,5.55,4.37,8.76c0.23,0.84-0.23,1.43-1.1,1.66
			c-3.1,0.84-6.16,1.92-9.31,2.48c-7.53,1.34-15.16,1.39-22.79,1.4C314.56,494.94,309.95,495.35,303.7,495.67z"/>
		<path class="st1" d="M357.49,388.24c-0.13,1.01-0.28,1.58-0.27,2.15c0.06,4.82,0.27,9.65,0.17,14.46
			c-0.04,1.65-0.74,3.32-1.31,4.92c-0.3,0.83-1.09,1.37-2.09,1.03c-1.05-0.36-1.09-1.26-0.89-2.13c1.06-4.68,0.41-9.42,0.51-14.13
			c0-0.21,0.03-0.45-0.04-0.64c-0.35-0.96-0.73-1.9-1.11-2.85c-1.47,0.59-0.7,1.84-0.72,2.77c-0.08,4.08,0,8.16-0.06,12.24
			c-0.03,1.97-0.49,3.85-1.92,5.31c-0.34,0.35-0.9,0.48-1.36,0.71c-0.18-0.45-0.5-0.9-0.51-1.35c-0.05-2.47,0.07-4.95-0.05-7.41
			c-0.14-2.99-0.43-5.98-0.71-8.96c-0.06-0.63-0.21-1.3-0.51-1.84c-0.21-0.38-0.75-0.59-1.14-0.87c-0.19,0.43-0.63,0.91-0.54,1.28
			c1.24,5.4,1.01,10.88,0.98,16.35c-0.01,1.01,0.4,2.42-0.95,2.78c-1.43,0.38-1.91-1.1-2.58-2c-0.3-0.41-0.37-0.99-0.51-1.51
			c-1.23-4.57-2.17-9.18-2.45-13.91c-0.01-0.11-0.01-0.22-0.02-0.32c-0.14-1.13,0.16-2.78-1.26-2.94c-0.93-0.1-2.21,0.82-2.93,1.63
			c-1.05,1.19-1.71,2.72-2.6,4.05c-0.4,0.61-0.88,1.29-1.49,1.61c-1.3,0.69-2.87-0.17-3.18-1.73c-0.38-1.94-0.15-3.86,0.73-5.65
			c1.93-3.97,4.83-6.99,8.88-8.83c0.29-0.13,0.62-0.22,0.93-0.24c4.51-0.28,8.49-2.15,12.4-4.19c0.9-0.47,1.5-0.45,2.27,0.27
			c4.59,4.28,8.58,9.02,11.6,14.54c0.45,0.82,0.73,1.82,0.75,2.75c0.06,1.96-1.54,2.79-3.24,1.79c-1.69-0.99-3.11-1.97-2.98-4.41
			C359.37,391.55,358.93,389.87,357.49,388.24z"/>
		<path class="st1" d="M210.77,416.93c-1.7-0.78-2.71-1.8-3.13-3.27c-0.5-1.74-1.01-3.51-1.17-5.31c-0.33-3.63-0.42-7.28-0.63-10.92
			c-0.03-0.59-0.23-1.16-0.5-2.51c-1.47,3.51-1.49,6.45-1.32,9.37c0.18,2.97,0.62,5.92,0.97,9.16c-1.58-0.86-2.06-2.22-2.51-3.6
			c-1.25-3.81-1.47-7.78-1.82-11.72c-0.1-1.07-0.04-2.15-0.12-3.22c-0.06-0.94-0.17-1.9-1.29-2.55c-1.14,1.64-1.14,3.4-0.96,5.21
			c0.24,2.35,0.49,4.69,0.72,7.04c0.09,0.93-0.51,1.52-1.31,1.16c-0.64-0.28-1.44-0.78-1.64-1.36c-0.5-1.49-1.14-3.15-0.94-4.63
			c0.99-7.3,3.84-13.81,9.02-19.19c0.67-0.7,1.15-0.97,2.18-0.63c3.65,1.22,7.35,2.31,11.06,3.38c1.46,0.42,2.59,0.83,3.37,2.47
			c1.17,2.48,3.53,3.97,5.96,5.21c1.43,0.73,2.92,1.38,4.3,2.21c1.87,1.12,1.82,4.26-0.02,5.4c-1.93,1.2-3.51,1.04-5.07-0.8
			c-1.33-1.57-2.82-2.63-4.91-2.66c-2.76-0.04-4.2,1.28-4.26,4.1c-0.08,3.54,0.13,7.1-0.04,10.63c-0.09,1.89-0.64,3.78-1.14,5.63
			c-0.13,0.49-0.85,1.16-1.29,1.14c-0.47-0.01-1.16-0.64-1.34-1.14c-0.39-1.09-0.66-2.26-0.72-3.41c-0.25-4.5-0.39-9-0.61-13.51
			c-0.04-0.84-0.22-1.68-0.44-2.5c-0.06-0.21-0.5-0.44-0.76-0.43c-0.25,0.01-0.56,0.28-0.69,0.52c-0.15,0.26-0.17,0.63-0.15,0.94
			c0.22,5.68,0.44,11.36,0.7,17.04C210.3,414.99,210.55,415.79,210.77,416.93z"/>
		<path class="st4" d="M276.04,307.07c-2.4,0.14-5.23-0.2-8.05-1.07c-5.29-1.62-7.7-5.87-9.79-10.42c-0.25-0.55-0.17-1.27-0.16-1.91
			c0.02-3.1,0.52-3.49,3.59-2.94c0.53,0.09,1.13,0.01,1.58,0.24c0.49,0.25,0.92,0.72,1.21,1.19c0.21,0.33,0.07,0.86,0.21,1.25
			c1.12,3.13,2.95,5.58,6.57,5.76c2.22,0.11,4.51,0.08,6.68-0.32c2.87-0.52,5.17-2.1,6.29-4.97c0.49-1.26,1.3-1.78,2.69-1.78
			c1.6,0,3.2-0.31,4.8-0.44c0.92-0.07,1.39,0.41,1.34,1.36c-0.03,0.64,0,1.29-0.08,1.93c-0.77,6.46-6.94,12.01-13.46,12.12
			C278.49,307.09,277.53,307.07,276.04,307.07z"/>
		<path class="st5" d="M213.89,491.84c2.72,2.99,6.13,3.75,9.95,3.8c4.29,0.06,8.56,0.57,12.85,0.8c2.68,0.14,5.36,0.17,8.04,0.18
			c7.19,0.01,14.39,0.07,21.58-0.07c3.42-0.07,6.83-0.55,10.24-0.82c0.76-0.06,1.77-0.72,2.12,0.57c0.37,1.34-0.15,2.5-1.37,2.83
			c-1.44,0.4-2.92,0.69-4.41,0.87c-17.33,2.01-34.74,1.16-52.12,1.3c-2.57,0.02-4.79-1.08-7.06-2.02c-0.46-0.19-0.97-0.94-0.97-1.43
			C212.79,495.86,212.51,493.76,213.89,491.84z"/>
		<path class="st5" d="M352.99,493.09c0,1.53,0.14,2.61-0.03,3.65c-0.27,1.64-1.17,2.36-2.78,2.63
			c-16.58,2.77-33.28,3.33-50.03,2.49c-2.99-0.15-5.95-0.73-8.92-1.17c-2.12-0.32-2.12-0.36-2.24-2.32
			c-0.03-0.53-0.06-1.08-0.01-1.61c0.06-0.76,0.41-1.13,1.27-0.93c1.67,0.38,3.36,0.69,5.04,0.99c6.08,1.09,12.2,0.64,18.31,0.53
			c5.9-0.11,11.81-0.21,17.7-0.54c4.37-0.25,8.76-0.71,13.08-1.39C347.21,494.97,349.93,493.94,352.99,493.09z"/>
		<path class="st1" d="M281.9,292.56c-0.8,2.64-2.79,3.86-5.18,4.17c-2.08,0.28-4.25,0.12-6.35-0.11c-1.55-0.17-3.88-3.2-3.78-4.69
			c0.02-0.34,0.68-0.93,1-0.89C272.33,291.49,277.05,292.03,281.9,292.56z"/>
		<path d="M292.91,250.25c0.51-0.41,0.87-0.96,1.29-1.01c2.23-0.26,4.47-0.47,6.71-0.54c0.69-0.02,1.51,0.34,2.05,0.79
			c0.4,0.34,0.71,1.2,0.56,1.66c-0.25,0.8-1,0.51-1.61,0.22c-0.38-0.18-0.8-0.35-1.21-0.39c-1.86-0.16-2.54-0.15-2.58,2.06
			c-0.12,6.99-3.95,11.6-10.01,14.53c-2.82,1.36-5.84,2.17-9.02,2.12c-3.86-0.07-7.71,0.21-11.56-0.54
			c-5.74-1.11-10.9-3.33-15.17-7.32c-2.82-2.63-5.41-5.52-8.06-8.33c-0.21-0.22-0.27-0.92-0.11-1.07c0.25-0.22,0.83-0.32,1.14-0.17
			c0.57,0.27,1.07,0.7,1.54,1.13c1.82,1.67,3.62,3.37,5.43,5.05c5.23,4.84,11.32,7.56,18.49,8.18c4.45,0.38,8.79,0.32,13.1-0.79
			c3.75-0.97,6.92-2.98,9.38-5.95c1.08-1.3,1.96-2.85,2.58-4.42c0.45-1.15,0.62-2.58,0.38-3.78
			C295.89,250.13,294.02,251.55,292.91,250.25z"/>
		<path d="M278.88,229.09c-0.65-0.72-1.3-1.37-1.87-2.08c-1.58-1.95-3.63-3.01-6.11-3.16c-2.02-0.12-4.06-0.23-6.08-0.07
			c-2.47,0.19-4.15,1.7-5.04,3.97c-1.33,3.39-1.45,6.9-0.65,10.43c0.66,2.89,2.6,4.76,5.35,5.5c3.32,0.89,6.74,1.42,10.14,0.12
			c0.42-0.16,0.97,0,1.46,0.02c-0.17,0.56-0.17,1.34-0.55,1.65c-0.81,0.65-1.78,1.38-2.76,1.5c-3.31,0.42-6.67,0.53-9.87-0.67
			c-4.22-1.59-6.65-4.62-6.88-9.19c-0.16-3.11-0.22-6.23,0.79-9.25c1.56-4.64,4.74-7.11,9.6-7.1c2.23,0,4.52,0.26,6.68,0.81
			c2.93,0.75,5.23,2.49,6.23,5.54c0.13,0.39,0.13,0.84,0.1,1.26C279.42,228.54,279.19,228.7,278.88,229.09z"/>
		<path d="M289.7,214.04c0-0.75-0.06-1.5,0.01-2.25c0.2-2.11,1.1-3.2,2.73-3.41c1.88-0.24,3.44,0.53,4.12,2.33
			c0.81,2.12,1.2,4.34,0.57,6.61c-0.26,0.92-0.54,1.85-0.99,2.68c-0.64,1.16-1.53,2.11-3.05,1.92c-1.34-0.16-2.15-1.08-2.49-2.24
			c-0.53-1.82-0.85-3.71-1.25-5.57C289.47,214.08,289.59,214.06,289.7,214.04z"/>
		<path d="M256.79,212.77c-0.49,1.74-1.08,4-1.75,6.23c-0.7,2.32-3.81,2.3-5.08,0.25c-1.43-2.31-1.39-7.92,0.2-10.17
			c0.89-1.26,2.12-1.77,3.61-1.57c1.61,0.21,2.39,1.28,2.68,2.78C256.56,210.91,256.63,211.55,256.79,212.77z"/>
		<path d="M292.8,196.06c1.13,0.38,2.8,0.79,4.33,1.5c3.65,1.7,6.68,4.2,9.05,7.47c0.25,0.35,0.54,0.68,0.72,1.06
			c0.43,0.89,0.85,1.95-0.15,2.6c-0.88,0.57-1.55-0.27-2.11-0.92c-1.25-1.46-2.38-3.04-3.78-4.35c-2.36-2.21-5.11-3.86-8.28-4.72
			c-0.51-0.14-1.06-0.26-1.51-0.51c-0.31-0.18-0.76-0.67-0.69-0.85c0.15-0.42,0.54-0.8,0.92-1.08
			C291.52,196.09,291.92,196.16,292.8,196.06z"/>
		<path d="M285.6,273.69c-0.06,3.23-0.84,4.63-2.97,4.91c-4.04,0.53-8.15,0.76-12.01-1c-1.01-0.46-1.8-1.42-2.63-2.21
			c-0.13-0.13-0.08-0.66,0.08-0.83c0.15-0.17,0.64-0.24,0.82-0.12c2.05,1.33,4.36,1.6,6.72,1.91
			C279.15,276.81,282.49,276.85,285.6,273.69z"/>
	</g>
</g>
<g id="Capa_2" class="st17">
</g>
</svg>
