<?xml version="1.0" encoding="utf-8"?>
<!-- Generator: Adobe Illustrator 24.2.1, SVG Export Plug-In . SVG Version: 6.00 Build 0)  -->
<svg version="1.1" xmlns="http://www.w3.org/2000/svg" xmlns:xlink="http://www.w3.org/1999/xlink" x="0px" y="0px"
	 viewBox="0 0 557.86 531.82" style="enable-background:new 0 0 557.86 531.82;" xml:space="preserve">
<style type="text/css">
	.st0{fill:#50443D;}
	.st1{fill:#D2A273;}
	.st2{fill:#5CACBB;}
	.st3{fill:#ABC4E7;}
	.st4{fill:#CD3C31;}
	.st5{fill:#FFFFFF;}
	.st6{fill:#CD7D31;}
	.st7{fill:#EED6BE;}
	.st8{fill:#74543C;}
	.st9{fill:#E3B959;}
	.st10{fill:#921B31;}
	.st11{fill:#FFB9DE;}
	.st12{fill:#C1E0C6;}
	.st13{fill:#7B5CAA;}
	.st14{fill:#E8C449;}
	.st15{fill:#B4714C;}
	.st16{fill:#D6CF38;}
	.st17{display:none;}
	.st18{display:inline;opacity:0.4;fill:#BC1D6C;}
</style>
<g id="Capa_1">
	<g>
		<path d="M219.81,398.86c-0.11,0.7-0.23,1.21-0.26,1.73c-0.33,5.96-4.94,6.58-9,4.9c-1.5-0.62-2.82-1.63-3.47-3.22
			c-0.84-2.08-1.59-4.19-2.38-6.29c-0.43-1.15-0.86-2.3-1.29-3.44c-0.22,0.01-0.45,0.02-0.67,0.03c-0.43,1.29-0.95,2.56-1.26,3.87
			c-0.95,3.96-1.81,7.95-2.71,11.92c-1.04,4.61-3.28,6.74-8.6,7.09c-1.15,0.08-2.27,0.62-3.42,0.8c-3.07,0.49-4.49,0.14-5.5-2.5
			c-0.33-0.85-0.78-1.27-1.85-1.4c-3.3-0.4-5.56-2.95-5.76-6.27c-0.1-1.59-0.02-3.2-0.02-5.1c-0.65,0.09-1.13,0.14-1.6,0.23
			c-1.53,0.32-2.46-0.42-3.09-1.71c-0.98-1.99-1.46-4.13-0.89-6.26c0.81-3.01,2.06-5.82,4.2-8.24c4.73-5.37,10.58-9.07,17.01-11.96
			c2.88-1.29,5.93-1.88,9.09-1.85c0.76,0.01,1.48,0.1,1.8-0.89c2.07-6.35,6.22-11.49,9.93-16.88c4.83-7,10.19-13.59,16.03-19.77
			c3.1-3.28,6.45-6.32,9.68-9.47c0.54-0.53,1.05-1.08,1.61-1.58c0.82-0.74,1.06-1.5,0.44-2.55c-0.6-1.01-1.07-2.11-1.48-3.22
			c-0.93-2.52-0.55-3.43,1.99-4.52c3.06-1.32,6.16-2.54,9.23-3.82c0.47-0.2,0.92-0.48,1.82-0.96c-2.66-0.35-4.82-0.77-6.99-0.89
			c-5.68-0.31-11.37-0.49-17.05-0.72c-0.54-0.02-1.11,0.08-1.61-0.07c-6.68-2.01-13.77-2.04-20.39-4.46
			c-3.1-1.13-4.52-2.96-4.51-6.13c0-0.62-0.1-1.24-0.18-2.1c-0.63,0.44-1.1,0.7-1.48,1.06c-1.19,1.14-2.53,1.07-3.9,0.52
			c-0.99-0.4-2-0.84-2.88-1.44c-5.07-3.44-10.2-6.8-15.12-10.44c-3.36-2.49-6.5-5.3-9.59-8.13c-1.57-1.44-2.87-3.19-4.18-4.89
			c-1.96-2.55-3.81-5.19-5.72-7.79c-0.98-1.34-0.8-1.95,0.85-2.59c0.8-0.31,1.63-0.53,2.46-0.78c4.56-1.39,8.42-3.82,11.21-7.74
			c2.06-2.89,4.07-5.81,5.98-8.79c1.83-2.86,2.56-6.13,3.11-9.42c1.49-8.9,2.67-17.82,2.61-26.88c-0.06-7.99,2.31-15.48,5.59-22.65
			c3.52-7.7,8.21-14.64,15.08-19.82c1.28-0.97,1.66-2.23,1.86-3.59c1.62-10.93,8.37-18.42,16.9-24.45
			c6.87-4.86,14.62-8.31,22.54-11.04c6.36-2.19,13.07-3.42,19.67-4.83c4.61-0.99,9.3-1.62,13.96-2.3c2.76-0.4,5.55-0.79,8.33-0.84
			c7.21-0.13,14.41-0.13,21.62-0.05c2.13,0.02,4.32,0.27,6.38,0.8c8,2.07,16.06,4.01,23.92,6.54c7.2,2.32,13.44,6.63,19.71,10.82
			c10.02,6.71,17.6,15.69,24.5,25.36c1.81,2.54,3.88,4.91,5.5,7.55c2.02,3.28,3.79,6.73,5.49,10.19c1.75,3.56,3.3,7.23,4.92,10.86
			c0.44,0.98,0.9,1.96,1.24,2.97c1.01,3.06,0.58,4.13-2.36,5.25c-3.92,1.49-7.89,2.82-11.84,4.22c-0.59,0.21-1.17,0.46-1.81,0.71
			c1.51,7.13,1.08,14.22,1.1,21.29c0.02,5.7-0.14,11.4-0.15,17.09c-0.02,10.77,4.03,20.11,10.38,28.53
			c1.52,2.02,3.79,3.47,5.72,5.18c0.56,0.5,1.21,0.91,1.69,1.48c0.76,0.9,0.91,1.92,0.17,2.96c-1.86,2.63-3.62,5.34-5.61,7.87
			c-1.68,2.14-3.88,3.75-6.51,4.59c-5.32,1.71-10.66,3.31-15.98,5.02c-7.79,2.51-15.82,3.95-23.83,5.48
			c-2.55,0.49-4.89,0.75-6.84-1.42c-0.68-0.76-1.42-0.74-2.26-0.11c-2.78,2.08-6.15,2.42-9.41,3.06c-1.89,0.38-3.79,0.73-5.7,1.01
			c-4.03,0.58-8.08,1.03-12.09,1.7c-1.28,0.21-3.17-1.31-3.66,0.47c-0.3,1.1,2.03,0.99,2.89,1.88c0.3,0.31,0.69,0.52,0.99,0.83
			c3.87,3.89,7.68,7.84,10.56,12.55c1.57,2.57,3,5.22,4.43,7.86c1.34,2.49,1.11,3.3-1.21,4.75c-0.27,0.17-0.56,0.32-0.84,0.48
			c-3.5,1.99-3.36,1.94-2.11,5.6c1.24,3.65,2.09,7.43,3.22,11.11c2.48,8.13,5.72,15.97,9.24,23.7c2.13,4.69,4.15,9.44,6.18,14.18
			c0.69,1.6,1.52,3,3.08,3.97c1.45,0.91,2.66,2.18,4.07,3.17c4.09,2.89,7.47,6.43,10.21,10.63c0.7,1.07,1.61,2.01,2.47,2.97
			c2.5,2.81,5.03,5.59,7.52,8.41c1.17,1.33,1.87,2.85,1.73,4.7c-0.15,2-0.9,2.93-2.87,3.28c-0.52,0.09-1.07,0.11-1.61,0.08
			c-1.15-0.07-1.43,0.55-1.49,1.58c-0.12,1.82-0.38,3.62-0.55,5.43c-0.3,3.17-4.28,6.14-7.66,5.08c-1.26-0.39-1.88-0.04-2.71,0.82
			c-2.08,2.15-4.32,2.43-7.04,1.26c-0.84-0.36-1.79-0.6-2.69-0.63c-2.61-0.09-4.28-1.08-5.14-3.55c-0.56-1.61-1-3.31-1.17-5
			c-0.36-3.52-0.38-7.08-0.81-10.59c-0.25-2.09-0.96-4.15-1.6-6.17c-0.16-0.5-0.86-1.13-1.32-1.14c-0.44-0.01-1.1,0.63-1.31,1.13
			c-0.62,1.48-1.08,3.03-1.59,4.56c-0.87,2.61-2.57,4.38-5.15,5.4c-3.34,1.32-6.07-0.26-6.48-3.87c-0.11-0.95-0.09-1.9-0.15-3.14
			c-1.46,0.24-2.8,0.4-4.12,0.7c-5.25,1.2-10.57,1.82-15.93,2.15c-2.26,0.14-2.43,0.2-2.25,2.42c0.24,2.99,0.64,5.97,0.97,8.96
			c0.09,0.85,0.17,1.71,0.25,2.56c0.56,5.98,1.17,11.95,1.66,17.93c0.22,2.67,0.23,5.36,0.31,8.05c0.03,1.04,0.01,2.08,0.01,3.29
			c1.74-0.91,3.11-1.77,4.59-2.34c1.08-0.42,2.3-0.62,3.46-0.61c2.39,0.02,3.78,1.32,4.15,3.67c0.11,0.73,0.1,1.47,0.16,2.46
			c1.91-0.4,3.64-0.78,5.37-1.12c6.67-1.3,13.24-1.06,19.7,1.19c2.13,0.74,4.32,1.28,6.47,1.98c4.28,1.39,7.88,3.92,11.1,6.99
			c3.25,3.1,5.06,6.9,5.06,11.46c0,2.26,0.07,4.52-0.02,6.77c-0.09,2.26-0.63,2.85-2.81,3.17c-3.08,0.45-6.16,0.9-9.25,1.21
			c-8.46,0.86-16.97,1.1-25.45,0.66c-9.11-0.48-18.2-1.27-27.35-1.17c-5.5,0.06-10.89-0.96-16.13-2.65
			c-2.16-0.7-3.07-1.76-3.12-3.92c-0.19-7.7,1.27-14.97,5.73-21.42c0.73-1.05,1.48-2.21,2.5-2.9c1.15-0.78,1.42-1.44,1.26-2.84
			c-0.36-3.3-0.48-6.64-0.49-9.97c-0.02-8.6,0.06-17.2,0.15-25.8c0.03-2.67,0.22-5.34,0.34-8.28c-0.66-0.06-1.48-0.25-2.28-0.2
			c-6.98,0.38-13.66-1.21-20.29-3.11c-1.76-0.5-3.52-0.98-5.29-1.45c-1.21-0.32-2.08-0.09-2.44,1.3c-0.43,1.66-1.1,3.26-1.48,4.93
			c-2.18,9.51-4.33,19.03-6.41,28.56c-0.46,2.09-0.54,4.26-0.92,6.37c-0.63,3.48-1.3,6.96-2.08,10.4c-0.21,0.91-0.43,1.5,0.49,2.18
			c5.24,3.9,8,9.42,9.97,15.45c0.4,1.23,0.86,2.43,1.21,3.67c0.26,0.93,0.49,1.88,0.56,2.84c0.22,2.92-0.7,4.28-3.52,4.78
			c-3.48,0.62-7,1.04-10.51,1.49c-2.98,0.39-5.97,0.7-8.95,1.05c-0.43,0.05-0.86,0.14-1.28,0.13c-8.82-0.12-17.63-0.24-26.44-0.4
			c-2.8-0.05-5.59-0.15-8.38-0.36c-4.38-0.33-8.79-0.56-13.12-1.25c-2.16-0.34-4.26-1.45-6.24-2.49c-2.33-1.22-3.02-3.5-3.1-6
			c-0.23-6.81,2.46-12.4,7.49-16.77c3.4-2.95,7.14-5.52,11.67-6.58c0.52-0.12,1.06-0.25,1.59-0.25c5.05-0.03,10.11-0.4,15.12,0.57
			c1.16,0.22,2.32,0.45,3.45,0.77c2.78,0.79,2.77,0.81,2.92-1.91c0.03-0.54,0.05-1.08,0.12-1.61c0.39-3.12,2.18-4.53,5.34-4.04
			c2.11,0.33,4.18,0.87,6.61,1.39c1.45-3.43,2.69-7.15,3.53-10.99c2.56-11.63,5.24-23.23,8.99-34.56c0.14-0.41,0.24-0.83,0.43-1.21
			c0.55-1.14,0.14-1.78-0.98-2.22c-3.2-1.26-6.46-2.41-9.55-3.9c-3.96-1.91-7.77-4.13-11.65-6.21
			C221.48,399.73,220.72,399.34,219.81,398.86z M203.97,165.54c-0.23,0.04-0.35,0.03-0.42,0.09c-0.34,0.26-0.68,0.51-1,0.8
			c-6.5,5.93-10.87,13.28-14.01,21.39c-2.77,7.17-4.44,14.58-3.98,22.35c0.08,1.39,0.07,2.81-0.1,4.19
			c-0.77,6.28-1.54,12.56-2.45,18.82c-0.6,4.18-1.8,8.18-4.23,11.72c-1.58,2.31-3.09,4.66-4.75,6.91
			c-3.08,4.17-6.94,7.31-11.97,8.88c-0.69,0.21-1.34,0.56-2.29,0.96c3.09,4.13,5.47,8.45,9.13,11.86
			c7.35,6.85,15.79,12.23,24.02,17.9c0.18,0.12,0.38,0.21,0.56,0.32c1.55,0.96,3,1.06,4.35-0.38c0.36-0.39,0.82-0.7,1.29-0.96
			c1.49-0.83,2.48-0.36,2.74,1.32c0.24,1.59,0.46,3.19,0.63,4.79c0.12,1.1,0.69,1.8,1.68,2.14c3.55,1.22,7.06,2.56,10.87,2.86
			c2.02,0.16,4.01,0.67,6.01,1.06c1.16,0.23,2.28,0.7,3.44,0.77c8.66,0.51,17.32,0.94,25.98,1.42c1.28,0.07,2.59,0.14,3.84,0.41
			c1.32,0.28,2.5,0.22,3.76-0.32c3.01-1.29,6.19-1.74,9.45-1.67c2.15,0.05,4.3,0.11,6.45,0.15c0.64,0.01,1.3,0.09,1.93,0
			c0.83-0.11,1.73-1.75,1.43-2.87c-0.11-0.41-0.87-0.86-1.37-0.92c-9.48-1.17-18.41-4.26-27.06-8.13c-3.41-1.53-6.66-3.51-9.74-5.63
			c-2.04-1.4-3.67-3.4-5.36-5.01c-1.12,1.57-2.04,3.33-3.38,4.65c-4.79,4.71-10.41,6.61-17.3,5.83c-6.23-0.7-12.79-7.59-13.17-13.6
			c-0.3-4.68,0.47-9.21,2.03-13.61c1.04-2.93,2.9-5.25,5.71-6.73c2.63-1.38,5.4-2.16,8.39-1.75c1.59,0.21,2.31-0.39,2.77-1.91
			c0.64-2.15,1.49-4.26,2.4-6.32c1.73-3.9,2.6-7.96,2.46-12.21c-0.18-5.69-0.43-11.37-0.68-17.06c-0.02-0.36-0.28-0.71-0.43-1.06
			c-6.68,2.93-8.21,3.1-10.86,1.83c0.98-0.31,1.77-0.59,2.56-0.82c3.35-0.98,6.38-2.59,9.03-4.85c5.75-4.9,11.01-10.28,15.55-16.31
			c3.7-4.92,7.05-10.13,8.6-16.13c1.47-5.7,2.4-11.55,3.45-17.35c0.82-4.53,0.64-9.2,1.97-13.66c0.13-0.44,0.46-0.82,0.92-1.62
			c0.22,0.88,0.37,1.27,0.4,1.66c0.35,4.25,2.26,7.75,5.04,10.9c3.92,4.45,7.8,8.9,13.3,11.52c0.97,0.46,1.9,1.03,2.74,1.7
			c4.05,3.23,8.72,5.04,13.73,6.05c2.68,0.54,5.4,0.94,8.51,1.47c-0.55-1.26-0.94-2.02-1.22-2.81c-1.97-5.56-3.94-11.13-5.86-16.71
			c-0.31-0.91-0.54-2.01,0.46-2.65c1.1-0.71,1.78,0.29,2.44,0.94c3.52,3.45,7.65,5.91,12.24,7.6c8.98,3.32,18.17,5.95,27.56,7.8
			c6.84,1.34,13.72,2.5,20.6,3.63c9.21,1.52,18.38,3.37,27.77,3.52c1,0.02,2.2-0.26,3.01,1.16c-1.87,1.01-3.84,1.29-5.87,1.34
			c-6.49,0.15-12.81-1.18-19.16-2.23c-0.9-0.15-1.8-0.58-2.79,0.22c0.45,0.83,0.8,1.61,1.26,2.32c4.33,6.73,7.55,13.99,10.23,21.49
			c2.62,7.33,4.1,14.93,3.96,22.71c-0.08,4.69-0.84,9.37-1.46,14.03c-0.45,3.42-1.46,6.71-3.08,9.79c-0.18,0.34-0.21,0.75-0.37,1.37
			c0.83,0.05,1.45,0.1,2.08,0.11c2.6,0.05,4.66,1.24,5.83,3.45c2.51,4.75,3.41,9.65,0.81,14.77c-3.39,6.68-10.12,8.72-16.41,8.76
			c-0.62,0-1.25-0.26-1.86-0.45c-2.87-0.9-5.56-2.09-7.33-4.53c-3.52,2.87-6.73,5.75-10.2,8.26c-4,2.89-8.2,5.53-12.4,8.14
			c-1.43,0.89-3.08,1.55-4.72,1.99c-3.42,0.92-6.89,1.64-10.35,2.41c-0.83,0.19-1.69,0.26-2.54,0.35c-2.45,0.27-4.92,0.42-7.35,0.8
			c-4.16,0.65-4.37,0.95-4.74,5.18c-0.13,1.52,0.06,1.8,1.53,1.67c3.74-0.31,7.48-0.62,10.95-2.33c1.02-0.5,2.25-0.65,3.4-0.83
			c4.66-0.72,9.42-0.66,14-1.94c1.34-0.37,2.76-0.43,4.12-0.72c2.92-0.64,5.94-0.91,8.54-2.67c2.41-1.64,3.26-1.65,5.46,0.22
			c1.42,1.21,2.8,1.38,4.46,1.01c1.78-0.4,3.57-0.76,5.36-1.08c10.71-1.89,21.08-5.08,31.44-8.3c4.64-1.44,8.23-4.1,10.65-8.32
			c0.48-0.84,0.93-1.73,1.59-2.42c1.6-1.68,0.98-2.23-0.51-3.29c-6.01-4.29-9.51-10.38-12.44-16.94
			c-4.32-9.66-4.16-19.84-3.82-30.08c0.2-5.9,0.43-11.81,0.32-17.72c-0.06-3.08-0.78-6.15-1.32-9.2c-0.18-1.03,0.09-1.69,0.92-2.14
			c0.56-0.3,1.2-0.48,1.81-0.69c3.56-1.22,7.13-2.4,10.67-3.67c3.31-1.19,3.28-1.23,1.75-4.57c-2.1-4.59-4.11-9.23-6.27-13.79
			c-1.1-2.32-2.26-4.66-3.73-6.76c-3.2-4.58-6.64-8.99-9.94-13.51c-5.3-7.26-11.51-13.6-18.9-18.77
			c-7.24-5.07-14.62-9.86-23.23-12.35c-2.27-0.66-4.51-1.42-6.8-2.01c-4.78-1.23-9.53-2.67-14.39-3.47
			c-9.28-1.54-18.7-1.15-28.01-0.43c-8.21,0.64-16.38,2.15-24.49,3.69c-5.47,1.04-10.93,2.42-16.15,4.3
			c-6.15,2.22-12.05,5.12-17.81,8.31c-6.8,3.77-12.03,9.02-16.09,15.47c-2.15,3.41-4.22,7.05-3.16,11.44
			c0.04,0.19,0.03,0.5-0.09,0.6c-1.29,1.05-0.69,2.61-1.12,3.89c-0.05,0.14-0.31,0.21-0.6,0.39
			C204.77,166.63,204.35,166.06,203.97,165.54z M253.13,157.91c-0.88,5.23-1.86,10.27-2.56,15.35c-1.3,9.39-5.03,17.68-10.74,25.2
			c-4.19,5.5-8.95,10.45-14.07,15.05c-1.24,1.11-1.84,2.19-1.67,3.88c0.43,4.16,0.77,8.33,1.07,12.51
			c0.48,6.81,0.35,13.53-2.89,19.83c-0.78,1.51-1.12,3.24-1.77,4.83c-0.65,1.6-0.27,2.73,0.92,4.01c1.29,1.39,2.18,3.17,3.16,4.82
			c0.15,0.25,0,0.93-0.24,1.1c-0.25,0.18-0.93,0.12-1.13-0.1c-0.8-0.86-1.52-1.81-2.2-2.77c-0.9-1.26-2.06-2.11-3.48-2.75
			c-4.55-2.05-11.54,0.61-13.44,5.21c-1.67,4.04-2.36,8.19-2.21,12.56c0.11,3.11,1.41,5.53,3.39,7.78
			c2.87,3.28,6.52,4.41,10.71,4.15c6.39-0.41,11.35-3.11,13.94-9.21c1.53-3.62,1.5-3.96,4.31-0.52c3.26,3.99,7.17,7.09,11.93,9.11
			c3.16,1.34,6.33,2.68,9.51,3.99c8.23,3.39,16.81,5.21,25.68,5.57c7.31,0.29,14.63,0.11,21.84-1.32c3.47-0.69,7-0.84,10.49-1.5
			c6.94-1.3,12.85-4.3,18.65-8.21c8.27-5.57,15.83-11.85,22.2-19.5c6.26-7.53,11.13-15.69,12.71-25.63
			c1.25-7.85,1.33-15.62-0.24-23.37c-2.17-10.75-6.58-20.63-12.17-30.02c-0.77-1.29-1.77-2.55-2.12-3.96
			c-0.5-2.01-1.79-2.37-3.5-2.62c-11.6-1.66-23.07-3.93-34.3-7.32c-7.31-2.21-14.65-4.35-21-8.86c-0.09-0.07-0.32,0.06-0.87,0.18
			c1.92,4.72,3.81,9.39,5.71,14.05c0.28,0.69,0.71,1.34,0.9,2.06c0.39,1.45-0.27,2.32-1.73,2.4c-0.53,0.03-1.07-0.06-1.6-0.15
			c-2.12-0.34-4.24-0.66-6.35-1.04c-5.97-1.09-11.7-2.77-16.63-6.57c-1.7-1.31-3.69-2.21-5.44-3.45c-2.09-1.49-4.28-2.93-6.04-4.77
			C258.81,164.76,256.07,161.33,253.13,157.91z M293.11,416.91c0.01,0.15,0.02,0.31,0.02,0.46c6.1-0.38,12.22-0.56,18.29-1.21
			c3.71-0.4,7.41-1.27,10.97-2.4c3.83-1.22,3.94-1.9,2.54-5.63c-0.11-0.3-0.25-0.6-0.35-0.9c-2.62-8.05-5.39-16.07-7.82-24.18
			c-1.84-6.15-3.3-12.42-4.82-18.67c-0.28-1.14-0.61-1.64-1.83-1.68c-4.29-0.13-8.58-0.31-12.87-0.57
			c-6.31-0.39-12.63-0.8-18.93-1.33c-3.31-0.28-6.59-1.15-9.89-1.21c-6.27-0.11-12.4-0.95-18.46-2.43c-1.22-0.3-2.03-0.1-2.76,0.93
			c-1.92,2.72-3.99,5.33-5.85,8.08c-3.75,5.54-7.97,10.64-13.09,15.01c-2.94,2.5-5.71,5.22-8.4,7.99c-3.44,3.55-3.38,4.05,0.91,6.88
			c10.21,6.74,21.36,11.46,33.11,14.77c4.95,1.39,9.97,2.58,14.96,3.85c5.42,1.38,10.87,2.48,16.52,2.24
			C287.94,416.82,290.53,416.91,293.11,416.91z M317.56,359.92c-0.1-0.69-0.11-1.12-0.22-1.52c-1.25-4.32-2.6-8.62-3.75-12.97
			c-1.53-5.8-2.93-11.63-4.35-17.46c-0.38-1.56-0.68-3.15-0.88-4.74c-0.05-0.39,0.4-1.09,0.76-1.2c0.37-0.12,1.16,0.19,1.32,0.52
			c0.41,0.85,0.6,1.82,0.82,2.75c0.73,3.13,1.42,6.27,2.16,9.39c0.22,0.93,0.68,1.58,1.83,1.15c3.41-1.28,6.88-2.43,10.23-3.85
			c1.91-0.81,1.79-0.98,0.85-2.92c-3.15-6.43-7.4-12.06-12.3-17.24c-1.75-1.85-3.74-3.25-6.33-3.53c-2.23-0.24-4.47-0.42-6.71-0.5
			c-1.48-0.05-3.27-0.35-4.37,0.33c-0.93,0.58-1.08,2.42-1.57,3.7c-1.18,3.1-3.24,4.57-6.66,4.52c-2.04-0.03-4.07-0.3-6.11-0.44
			c-2.07-0.14-3.58-1.21-4.93-2.71c-1.46-1.64-2.01-3.53-1.82-5.65c0.13-1.4-0.58-2.02-1.83-2.09c-5.37-0.27-10.72-0.59-15.87,1.6
			c-5.14,2.18-10.35,4.19-15.53,6.27c-4.32,1.73-4.42,2.01-1.86,5.97c0.4,0.63,0.89,1.23,1.44,1.72c2.87,2.55,5.78,5.06,8.79,7.69
			c0.58-0.73,1.01-1.18,1.35-1.7c1.72-2.59,3.38-5.23,5.16-7.78c0.53-0.76,1.37-1.31,2.12-1.89c0.14-0.11,0.58,0.07,0.81,0.22
			c0.1,0.06,0.11,0.42,0.03,0.59c-0.18,0.38-0.47,0.71-0.68,1.09c-3.54,6.38-7.19,12.71-10.56,19.18
			c-1.73,3.32-3.06,6.86-4.36,10.38c-0.9,2.42-0.45,3.18,1.8,4.39c0.47,0.25,0.97,0.45,1.48,0.61c5.34,1.69,10.82,2.67,16.4,3.07
			c3.32,0.24,6.67,0.28,9.94,0.83c8.72,1.45,17.49,1.94,26.31,2c1.29,0.01,2.57,0.19,3.86,0.2
			C308.64,359.94,312.91,359.92,317.56,359.92z M187.23,413.78c-0.32-1.88-0.75-3.76-0.96-5.66c-0.78-7.12,0.21-13.93,3.88-20.2
			c0.48-0.82,1.11-1.57,1.74-2.29c0.16-0.18,0.66-0.24,0.87-0.13c0.22,0.12,0.46,0.58,0.39,0.8c-0.42,1.31-0.79,2.67-1.42,3.89
			c-3.25,6.27-3.81,12.88-2.67,19.73c0.09,0.53,0.17,1.07,0.38,1.56c0.52,1.2,1.27,1.53,2.6,1.18c1.88-0.5,3.35-1.5,3.92-3.45
			c0.6-2.06,1.15-4.13,1.65-6.22c0.68-2.82,1.14-5.69,1.98-8.46c0.52-1.71,1.35-3.43,2.45-4.83c0.79-1.01,2.22-1.54,3.41-2.22
			c0.17-0.1,0.65,0.12,0.83,0.32c0.13,0.16,0.1,0.72-0.02,0.79c-2.28,1.21-1.34,2.64-0.43,4.2c0.47,0.81,0.57,1.83,0.92,2.73
			c0.78,1.99,1.48,4.04,2.47,5.92c1.05,1.99,2.95,2.69,5.18,2.56c1.38-0.08,2.36-0.81,2.46-2.11c0.18-2.4,0.81-4.92-1.33-6.96
			c-1.28-1.23-1.57-2.73-0.54-4.39c0.36-0.59,0.54-1.41,0.5-2.11c-0.27-4.91-1.82-9.5-4.14-13.75c-0.82-1.51-0.83-2.57-0.08-3.81
			c1.77-2.94,3.35-6.05,5.49-8.7c7.1-8.78,14.63-17.18,23.02-24.77c2.68-2.43,5.31-4.92,8.06-7.48c-0.42-0.44-0.75-0.86-1.14-1.19
			c-1.73-1.44-3.52-2.82-5.21-4.3c-1.67-1.47-1.63-1.52-3.33,0.13c-10.36,10.06-19.93,20.8-27.97,32.82
			c-2.92,4.37-6.16,8.56-7.78,13.67c-0.62,1.94-2.19,2.47-4,2.66c-1.92,0.21-3.91,0.17-5.73,0.72c-8.5,2.55-15.38,7.57-20.84,14.48
			c-1.92,2.43-2.76,5.37-1.88,8.51c0.21,0.75,0.88,1.92,1.35,1.92c0.96,0.01,2.01-0.52,2.85-1.07c0.45-0.3,0.57-1.12,0.79-1.72
			c0.52-1.41,0.93-2.86,1.52-4.24c1.54-3.6,3.83-6.71,6.51-9.53c0.29-0.31,0.92-0.29,1.4-0.42c0.02,0.49,0.24,1.12,0.02,1.46
			c-1.04,1.63-2.21,3.16-3.3,4.76c-3.4,5-5.29,10.5-5.57,16.56c-0.1,2.02,0.73,3.56,2.33,4.68c0.48,0.34,1.17,0.37,1.76,0.54
			c0.15-0.57,0.53-1.2,0.41-1.72c-1.39-6.26,0.61-11.89,3.25-17.38c0.64-1.33,1.31-2.75,3.31-3.17c-0.1,0.81-0.05,1.55-0.3,2.17
			c-0.39,0.99-0.99,1.9-1.47,2.86c-3.05,6.01-3.68,12.28-1.86,18.76C183.64,414.39,184.3,414.64,187.23,413.78z M357.76,429.89
			c0,0.81,0,2.32,0,3.82c0,2.25,1.26,3.05,3.33,2.15c1.88-0.82,2.83-2.35,2.99-4.27c0.24-2.99,0.49-5.99-0.91-8.85
			c-1.03-2.12-1.87-4.33-2.79-6.5c-0.33-0.79-0.75-1.57-0.91-2.4c-0.07-0.38,0.28-0.97,0.63-1.24c0.22-0.17,0.91-0.06,1.13,0.17
			c0.43,0.44,0.75,1.03,1.01,1.6c0.95,2.16,1.84,4.35,2.77,6.51c0.77,1.77,2.3,2.76,4.01,2.64c1.21-0.08,1.87-0.87,1.39-1.93
			c-0.48-1.05-1.18-2.04-1.92-2.93c-2.81-3.38-5.69-6.7-8.52-10.06c-2.27-2.71-4.3-5.66-6.81-8.12c-2.6-2.54-5.58-4.72-8.52-6.87
			c-1.64-1.2-2.73-2.64-3.51-4.48c-2.4-5.63-4.93-11.21-7.34-16.83c-3.43-8-6.59-16.09-8.72-24.55c-0.84-3.32-1.96-6.57-2.91-9.86
			c-0.26-0.91-0.82-1.25-1.67-1c-1.23,0.36-2.44,0.83-3.66,1.23c-2.58,0.84-2.58,0.83-1.76,3.52c1.49,4.92,3,9.84,4.43,14.78
			c0.48,1.63,0.93,3.27,0.32,5.05c-0.23,0.68-0.03,1.76,0.39,2.37c2.62,3.85,4.34,8.14,6.19,12.36c1.9,4.32,3.72,8.68,5.47,13.06
			c1.12,2.81,1.06,5.65-0.36,8.41c-1.03,2-1.91,4.09-3.01,6.06c-0.95,1.71-1.14,3.29-0.45,5.19c1.22,3.36,0.7,4.43-2.43,6.3
			c-2.28,1.36-2.77,2.48-2.21,4.99c0.47,2.1,1.83,2.79,3.81,1.99c1.57-0.63,2.78-1.63,3.45-3.2c0.46-1.08,0.79-2.22,1.22-3.31
			c0.5-1.3,0.89-2.67,1.6-3.85c0.97-1.61,3.03-1.93,4.47-0.71c0.79,0.66,1.41,1.61,1.87,2.55c1.4,2.86,1.59,5.97,1.76,9.09
			c0.17,3.21,0.41,6.42,0.74,9.62c0.11,1.04,0.46,2.12,0.93,3.06c0.98,1.93,2.31,1.99,3.62,0.21c1.77-2.41,1.97-5.21,1.54-8.01
			c-0.55-3.6-1.34-7.16-2.03-10.74c-0.34-1.79-0.74-3.57-1.01-5.37c-0.11-0.73,0.81-1.25,1.28-0.72c0.6,0.68,1.19,1.51,1.39,2.37
			c0.73,3.13,1.3,6.3,1.91,9.45c0.91,4.67,1.55,9.33-0.52,13.9c-0.48,1.05,0.15,1.62,1.05,1.95c1.76,0.64,3.78-0.44,4.47-2.64
			c0.47-1.52,0.67-3.15,0.78-4.74c0.36-5.77-1.05-11.28-2.55-16.77c-0.17-0.62-0.47-1.22-0.52-1.84c-0.03-0.34,0.25-0.88,0.54-1.03
			c0.27-0.13,0.96,0.04,1.08,0.28c0.68,1.33,1.51,2.66,1.79,4.09C356.92,420.26,358.28,424.62,357.76,429.89z M280.93,483.29
			c-0.24,1.15-0.57,2.16-0.63,3.18c-0.1,1.6-0.11,3.23,0.06,4.82c0.05,0.46,0.76,1.07,1.29,1.23c2.25,0.68,4.52,1.55,6.84,1.75
			c4.91,0.43,9.86,0.52,14.8,0.7c2.58,0.1,5.16,0.02,7.74,0.17c5.35,0.31,10.69,0.95,16.04,1.04c6.33,0.1,12.68,0.42,19-0.49
			c4.03-0.58,8.1-0.93,12.15-1.33c1.11-0.11,1.48-0.71,1.48-1.69c0.01-1.93,0.01-3.87-0.01-5.8c-0.04-3.62-1.43-6.67-3.96-9.22
			c-3.15-3.17-6.73-5.69-11-7.11c-2.44-0.81-4.95-1.44-7.39-2.24c-0.99-0.32-1.63,0-2.27,0.67c-2.34,2.44-3.99,5.28-5.15,8.46
			c-1.1,3.02-2.4,5.97-3.7,8.92c-1.1,2.49-2.9,3.78-5.82,3.61c-4.18-0.24-8.39,0.09-12.46-1.26c-0.4-0.13-0.85-0.1-1.28-0.16
			C298.05,487.53,289.4,486.66,280.93,483.29z M254.99,487.13c-3.71,0.54-7.26,0.79-10.67,1.62c-5.2,1.27-10.44,1.36-15.69,1.03
			c-4.59-0.29-9.19-0.65-13.69-1.89c-2.86-0.79-4.68-2.19-5.54-5.13c-0.9-3.08-2.05-6.12-3.44-9.01c-0.81-1.68-2.09-3.29-3.52-4.5
			c-2.57-2.16-5.57-2.84-8.65-0.95c-2.56,1.57-5.32,2.96-7.49,4.98c-3.78,3.52-6.18,7.81-6.22,13.3c-0.03,3.13,1.25,4.76,3.95,5.82
			c3.56,1.39,7.26,1.86,11.03,1.99c2.47,0.08,4.95-0.03,7.42,0.11c5.89,0.32,11.78,0.83,17.67,1.09c10.99,0.49,21.86-0.87,32.7-2.47
			c3.01-0.45,3.48-1.03,2.88-3.94C255.55,488.35,255.15,487.58,254.99,487.13z M254.39,484.94c-1.64-5.21-4.05-9.72-8.06-13.41
			c-2.25-2.06-4.51-3.52-7.67-2.98c-0.31,0.05-0.65,0.04-0.96-0.03c-3.32-0.75-6.56-1.63-7.26-5.72c-0.23-1.35-1.04-2.04-2.39-2.18
			c-1.27-0.14-2.54-0.45-3.81-0.47c-1.61-0.03-2.33,0.63-2.6,2.24c-0.31,1.85-0.1,3.61,1.04,5.22c0.37,0.53,0.77,1.55,0.52,1.91
			c-0.63,0.91-1.49,0.19-2.27-0.13c-1.78-0.72-3.56-1.47-5.39-2.03c-4.02-1.22-8.12-0.93-12.86-0.69c3.7,2.42,5.36,5.51,6.6,8.87
			c0.82,2.21,1.73,4.4,2.39,6.66c0.55,1.86,1.62,2.71,3.48,3.28c5.94,1.82,12.07,1.78,18.15,2.26c1.58,0.13,3.21-0.1,4.79-0.33
			C243.37,486.66,248.65,485.82,254.39,484.94z M287.91,468.03c-2.51,2.3-5.34,7.21-6.27,10.79c-0.51,1.95-0.37,2.42,1.69,3.08
			c2.65,0.84,5.35,1.63,8.09,2.1c8.56,1.45,17.16,2.67,25.81,3.52c5.26,0.52,5.54,0.29,7.84-4.47c2.51-5.18,3.3-11.22,7.98-15.39
			c-5.41-1.47-5.19-0.96-12.69-0.02c-4.12,0.52-7.69,1.89-10.02,5.6c-0.25,0.39-1.14,0.73-1.56,0.59c-0.89-0.31-0.88-1.17-0.42-1.87
			c0.77-1.16,1.55-2.33,2.48-3.37c1.02-1.14,1.31-2.43,1.2-3.87c-0.12-1.63-0.56-2.1-2.17-2.15c-3.5-0.09-6.14,1.57-7.44,4.66
			c-1.05,2.48-2.95,3.3-5.16,3.8c-1.34,0.3-2.78,0.2-4.18,0.25c-1.61,0.06-2.92-0.57-3.95-1.81
			C288.74,468.98,288.32,468.51,287.91,468.03z M218.13,386.68c3.28-2.97,6.67-6.09,10.12-9.14c3.72-3.3,6.96-6.99,9.78-11.1
			c1.88-2.74,3.99-5.33,6.05-7.95c1.71-2.17,1.78-2.2-0.39-3.85c-1.96-1.5-2.63-3.3-1.81-5.65c0.46-1.32,0.78-2.69,1.33-3.96
			c1.37-3.15,2.84-6.26,4.25-9.39c0.23-0.52,0.34-1.1,0.51-1.65c-1.52,0.5-2.59,1.32-3.55,2.26c-5.43,5.36-11.01,10.58-16.19,16.17
			c-4.96,5.35-10.09,10.6-13.88,16.92c-0.66,1.1-1.64,2.19-1.78,3.36c-0.1,0.79,1.06,1.71,1.58,2.61c0.37,0.65,0.68,1.35,0.92,2.06
			C216.12,380.48,217.13,383.61,218.13,386.68z M240.42,466.89c0.03-0.11,0.07-0.22,0.1-0.34c0.43,0,0.86,0.01,1.29,0
			c2.35-0.06,2.42-0.05,2.91-2.47c0.56-2.72,0.91-5.49,1.45-8.22c1.71-8.62,3.37-17.24,5.23-25.83c1.04-4.81,2.43-9.55,3.66-14.32
			c0.42-1.62,0.42-1.63-1.31-2.12c-1.45-0.41-2.91-0.75-4.35-1.19c-2.67-0.81-2.46-0.71-3.17,1.59c-1.69,5.54-3.19,11.13-4.73,16.71
			c-2.8,10.12-4.39,20.57-8.36,30.37c-0.74,1.81-0.09,3.4,1.8,4.2C236.69,466.02,238.59,466.37,240.42,466.89z M289.33,442.45
			c-0.03,0-0.05,0-0.08,0c0,3.33-0.09,6.67,0.02,10c0.14,4.4,0.45,8.79,0.67,13.18c0.08,1.56,0.78,2.8,2.22,3.25
			c2.24,0.7,4.54,0.34,6.53-0.84c1.59-0.95,1.31-2.78,1.37-4.36c0.02-0.54,0.04-1.08,0-1.61c-0.39-5.24-0.77-10.48-1.19-15.72
			c-0.1-1.28-0.41-2.54-0.51-3.83c-0.49-5.99-0.9-11.98-1.43-17.96c-0.13-1.46-0.14-3.47-1.04-4.17c-1.09-0.85-3.05-0.62-4.64-0.8
			c-0.91-0.1-1.35,0.34-1.42,1.29c-0.12,1.82-0.45,3.63-0.48,5.45C289.29,431.7,289.33,437.07,289.33,442.45z M362.12,262.37
			c0.86,0.15,1.51,0.18,2.1,0.37c2.42,0.79,4.25,3.81,3.71,6.07c-0.21,0.89-0.67,1.68-1.69,1.61c-1.12-0.07-0.8-1.04-0.84-1.74
			c-0.01-0.11,0.02-0.22,0.01-0.32c-0.37-2.79-2.21-3.93-4.79-2.87c-0.77,0.32-1.52,0.85-2.07,1.47c-2.02,2.22-3.92,4.54-5.93,6.77
			c-0.76,0.84-0.61,1.53,0.07,2.22c1.89,1.92,4.28,2.86,6.9,2.95c6.33,0.23,11.56-3.17,13.69-9.15c1.39-3.89,0.51-7.67-2.08-10.84
			c-2.01-2.44-6.01-1.92-7.68,0.78C363.01,260.5,362.63,261.37,362.12,262.37z M326.19,403.61c1.13-2.13,1.84-3.77,2.82-5.25
			c1.97-2.98,1.96-5.91,0.53-9.12c-2.79-6.27-5.3-12.65-8.13-18.9c-1.1-2.42-2.74-4.6-4.16-6.87c-0.56-0.89-1.5-0.96-2.25-0.53
			c-0.34,0.19-0.48,1.16-0.33,1.68c0.54,1.96,1.33,3.85,1.86,5.81c1.92,7.13,3.69,14.3,5.69,21.41
			C323.29,395.61,324.72,399.29,326.19,403.61z M286.94,300c0,0.04,0,0.08,0,0.12c-0.64,0-1.31-0.09-1.93,0.02
			c-2.05,0.35-4.78-1.22-6.02,0.67c-1.13,1.72-0.9,4.32-1.26,6.53c-0.03,0.21,0.01,0.43-0.01,0.64c-0.23,2.44,2.95,5.91,5.53,5.7
			c1.37-0.11,2.77,0.21,4.16,0.37c2.78,0.33,4.63-0.66,5.44-3.37c0.88-2.97,1.51-6.03,2.14-9.07c0.28-1.32-0.09-1.6-1.6-1.61
			C291.24,299.99,289.09,300,286.94,300z"/>
		<path class="st15" d="M203.97,165.54c0.38,0.52,0.8,1.09,1.21,1.64c0.29-0.18,0.55-0.25,0.6-0.39c0.43-1.28-0.17-2.84,1.12-3.89
			c0.12-0.1,0.14-0.41,0.09-0.6c-1.05-4.39,1.02-8.03,3.16-11.44c4.06-6.45,9.29-11.7,16.09-15.47c5.76-3.19,11.66-6.08,17.81-8.31
			c5.22-1.89,10.69-3.27,16.15-4.3c8.11-1.54,16.28-3.05,24.49-3.69c9.3-0.72,18.72-1.11,28.01,0.43c4.86,0.8,9.61,2.25,14.39,3.47
			c2.29,0.59,4.53,1.35,6.8,2.01c8.61,2.49,15.99,7.28,23.23,12.35c7.39,5.17,13.6,11.51,18.9,18.77c3.3,4.51,6.74,8.93,9.94,13.51
			c1.47,2.1,2.63,4.44,3.73,6.76c2.16,4.56,4.17,9.2,6.27,13.79c1.53,3.34,1.56,3.38-1.75,4.57c-3.54,1.27-7.11,2.45-10.67,3.67
			c-0.61,0.21-1.24,0.38-1.81,0.69c-0.83,0.45-1.1,1.11-0.92,2.14c0.54,3.05,1.26,6.13,1.32,9.2c0.11,5.9-0.13,11.81-0.32,17.72
			c-0.34,10.24-0.5,20.42,3.82,30.08c2.93,6.56,6.43,12.65,12.44,16.94c1.48,1.06,2.11,1.61,0.51,3.29
			c-0.66,0.69-1.11,1.58-1.59,2.42c-2.42,4.22-6.01,6.88-10.65,8.32c-10.36,3.22-20.73,6.41-31.44,8.3
			c-1.8,0.32-3.58,0.68-5.36,1.08c-1.66,0.37-3.04,0.2-4.46-1.01c-2.19-1.88-3.04-1.86-5.46-0.22c-2.6,1.76-5.62,2.03-8.54,2.67
			c-1.36,0.3-2.78,0.35-4.12,0.72c-4.59,1.27-9.35,1.22-14,1.94c-1.15,0.18-2.38,0.33-3.4,0.83c-3.47,1.71-7.21,2.02-10.95,2.33
			c-1.47,0.12-1.66-0.15-1.53-1.67c0.37-4.23,0.58-4.53,4.74-5.18c2.43-0.38,4.9-0.53,7.35-0.8c0.85-0.09,1.71-0.17,2.54-0.35
			c3.46-0.77,6.93-1.49,10.35-2.41c1.64-0.44,3.28-1.1,4.72-1.99c4.2-2.61,8.39-5.25,12.4-8.14c3.47-2.51,6.68-5.38,10.2-8.26
			c1.76,2.44,4.46,3.63,7.33,4.53c0.61,0.19,1.24,0.45,1.86,0.45c6.29-0.03,13.02-2.08,16.41-8.76c2.6-5.12,1.7-10.02-0.81-14.77
			c-1.17-2.21-3.23-3.4-5.83-3.45c-0.62-0.01-1.24-0.07-2.08-0.11c0.16-0.62,0.19-1.03,0.37-1.37c1.61-3.08,2.62-6.37,3.08-9.79
			c0.62-4.66,1.38-9.35,1.46-14.03c0.14-7.78-1.34-15.38-3.96-22.71c-2.68-7.5-5.9-14.77-10.23-21.49
			c-0.46-0.71-0.81-1.49-1.26-2.32c0.98-0.8,1.88-0.37,2.79-0.22c6.35,1.04,12.67,2.37,19.16,2.23c2.04-0.05,4.01-0.33,5.87-1.34
			c-0.81-1.42-2.01-1.14-3.01-1.16c-9.39-0.16-18.56-2.01-27.77-3.52c-6.88-1.13-13.76-2.28-20.6-3.63
			c-9.39-1.85-18.58-4.48-27.56-7.8c-4.59-1.7-8.72-4.16-12.24-7.6c-0.66-0.65-1.34-1.65-2.44-0.94c-0.99,0.64-0.77,1.73-0.46,2.65
			c1.92,5.58,3.89,11.14,5.86,16.71c0.28,0.79,0.67,1.55,1.22,2.81c-3.11-0.53-5.83-0.93-8.51-1.47c-5.01-1.02-9.68-2.82-13.73-6.05
			c-0.83-0.67-1.77-1.24-2.74-1.7c-5.5-2.62-9.39-7.07-13.3-11.52c-2.77-3.15-4.69-6.65-5.04-10.9c-0.03-0.4-0.19-0.79-0.4-1.66
			c-0.47,0.8-0.79,1.19-0.92,1.62c-1.32,4.46-1.15,9.13-1.97,13.66c-1.05,5.8-1.99,11.65-3.45,17.35c-1.54,6-4.9,11.21-8.6,16.13
			c-4.54,6.04-9.8,11.42-15.55,16.31c-2.65,2.26-5.68,3.87-9.03,4.85c-0.8,0.23-1.58,0.5-2.56,0.82c2.65,1.27,4.18,1.1,10.86-1.83
			c0.15,0.35,0.42,0.7,0.43,1.06c0.25,5.69,0.5,11.37,0.68,17.06c0.14,4.25-0.73,8.31-2.46,12.21c-0.91,2.06-1.76,4.17-2.4,6.32
			c-0.45,1.53-1.18,2.13-2.77,1.91c-2.99-0.4-5.76,0.37-8.39,1.75c-2.81,1.48-4.67,3.8-5.71,6.73c-1.56,4.39-2.33,8.92-2.03,13.61
			c0.38,6.01,6.94,12.9,13.17,13.6c6.89,0.78,12.51-1.12,17.3-5.83c1.35-1.33,2.27-3.09,3.38-4.65c1.68,1.61,3.31,3.61,5.36,5.01
			c3.09,2.12,6.33,4.1,9.74,5.63c8.65,3.87,17.57,6.96,27.06,8.13c0.51,0.06,1.26,0.51,1.37,0.92c0.3,1.12-0.6,2.75-1.43,2.87
			c-0.63,0.08-1.29,0.01-1.93,0c-2.15-0.05-4.3-0.1-6.45-0.15c-3.26-0.08-6.45,0.37-9.45,1.67c-1.26,0.54-2.44,0.6-3.76,0.32
			c-1.25-0.27-2.55-0.34-3.84-0.41c-8.66-0.48-17.32-0.91-25.98-1.42c-1.16-0.07-2.29-0.55-3.44-0.77c-2-0.39-3.99-0.89-6.01-1.06
			c-3.81-0.31-7.32-1.65-10.87-2.86c-0.99-0.34-1.57-1.05-1.68-2.14c-0.17-1.6-0.38-3.2-0.63-4.79c-0.26-1.68-1.25-2.15-2.74-1.32
			c-0.46,0.26-0.92,0.58-1.29,0.96c-1.35,1.44-2.81,1.34-4.35,0.38c-0.18-0.11-0.38-0.2-0.56-0.32
			c-8.23-5.66-16.67-11.04-24.02-17.9c-3.66-3.41-6.05-7.73-9.13-11.86c0.95-0.4,1.6-0.75,2.29-0.96c5.03-1.57,8.9-4.71,11.97-8.88
			c1.66-2.25,3.17-4.6,4.75-6.91c2.43-3.54,3.63-7.55,4.23-11.72c0.9-6.26,1.68-12.54,2.45-18.82c0.17-1.38,0.18-2.8,0.1-4.19
			c-0.46-7.77,1.21-15.18,3.98-22.35c3.13-8.11,7.5-15.46,14.01-21.39c0.31-0.29,0.66-0.54,1-0.8
			C203.62,165.57,203.74,165.59,203.97,165.54z"/>
		<path class="st7" d="M253.13,157.91c2.94,3.42,5.68,6.86,8.71,10.01c1.76,1.83,3.95,3.28,6.04,4.77c1.75,1.24,3.75,2.15,5.44,3.45
			c4.93,3.79,10.65,5.47,16.63,6.57c2.11,0.39,4.23,0.71,6.35,1.04c0.53,0.08,1.07,0.17,1.6,0.15c1.47-0.08,2.12-0.95,1.73-2.4
			c-0.19-0.72-0.62-1.36-0.9-2.06c-1.9-4.66-3.79-9.32-5.71-14.05c0.54-0.12,0.77-0.25,0.87-0.18c6.35,4.5,13.69,6.65,21,8.86
			c11.23,3.39,22.7,5.66,34.3,7.32c1.71,0.24,2.99,0.6,3.5,2.62c0.35,1.41,1.35,2.67,2.12,3.96c5.6,9.38,10.01,19.26,12.17,30.02
			c1.56,7.75,1.49,15.52,0.24,23.37c-1.58,9.94-6.45,18.11-12.71,25.63c-6.37,7.66-13.93,13.93-22.2,19.5
			c-5.79,3.9-11.71,6.91-18.65,8.21c-3.49,0.65-7.02,0.81-10.49,1.5c-7.21,1.43-14.53,1.61-21.84,1.32
			c-8.87-0.36-17.46-2.17-25.68-5.57c-3.18-1.31-6.34-2.65-9.51-3.99c-4.75-2.02-8.66-5.11-11.93-9.11
			c-2.81-3.44-2.78-3.1-4.31,0.52c-2.58,6.1-7.54,8.8-13.94,9.21c-4.19,0.27-7.84-0.87-10.71-4.15c-1.97-2.25-3.28-4.67-3.39-7.78
			c-0.15-4.37,0.54-8.53,2.21-12.56c1.9-4.6,8.89-7.26,13.44-5.21c1.42,0.64,2.58,1.49,3.48,2.75c0.68,0.96,1.4,1.9,2.2,2.77
			c0.2,0.22,0.89,0.27,1.13,0.1c0.24-0.17,0.39-0.85,0.24-1.1c-0.98-1.66-1.87-3.43-3.16-4.82c-1.19-1.28-1.57-2.41-0.92-4.01
			c0.65-1.59,0.99-3.32,1.77-4.83c3.24-6.3,3.37-13.01,2.89-19.83c-0.3-4.17-0.64-8.35-1.07-12.51c-0.18-1.69,0.43-2.77,1.67-3.88
			c5.12-4.6,9.89-9.55,14.07-15.05c5.71-7.51,9.44-15.81,10.74-25.2C251.27,168.18,252.25,163.14,253.13,157.91z M265.32,241.19
			c2.47,2.17,4.66,4.04,6.76,6.01c0.5,0.47,0.82,1.24,0.98,1.93c0.54,2.29,0.93,4.62,1.44,6.92c1.88,8.61,5.4,16.54,10.5,23.69
			c3.88,5.44,8.87,8.95,16.06,8.19c4.59-0.49,8.14-2.37,10.52-6.43c1.67-2.85,2.63-5.9,2.83-9.14c0.32-5.36,0.59-10.72,0.61-16.08
			c0.01-2.16,0.58-3.26,2.67-4.03c3.76-1.38,6.97-3.79,10.04-6.35c2.12-1.77,2.72-4.04,2.07-6.66c-0.08-0.31-0.55-0.61-0.91-0.73
			c-0.16-0.05-0.57,0.29-0.69,0.54c-0.23,0.48-0.34,1.01-0.49,1.53c-0.48,1.6-1.38,2.9-2.78,3.83c-2.33,1.54-4.61,3.16-6.99,4.6
			c-2.31,1.39-5.4,0.69-7.53,2.66c-0.07,0.06-0.21,0.04-0.31,0.05c-8.49,1.35-16.9,1.12-25.19-1.32c-6.22-1.83-11.54-5.16-16.1-9.73
			c-1.14-1.14-1.11-1.51,0.33-2.42c0.91-0.57,1.92-0.99,2.81-1.58c0.26-0.17,0.45-0.8,0.33-1.08c-0.12-0.29-0.64-0.44-1.01-0.58
			c-0.18-0.07-0.44-0.01-0.63,0.07c-3.27,1.35-6.01,3.36-7.72,6.5c-0.66,1.21-0.97,2.59,0.54,3.83
			C264.07,244,264.64,242.71,265.32,241.19z M303.81,207.85c-0.32,0-0.86,0.02-1.39,0c-4.94-0.17-9.29,3.51-10.8,7.76
			c-0.41,1.14-0.24,2.5-0.25,3.76c0,0.18,0.45,0.5,0.71,0.52c0.26,0.02,0.62-0.2,0.8-0.42c0.19-0.23,0.2-0.6,0.32-0.89
			c2.29-5.72,5.42-7.68,11.6-7.65c2.96,0.02,4.86,1.38,6.22,3.8c2.9,5.16,2.16,12.6-2.54,17.25c-3.04,3-6.47,4.08-10.55,2.17
			c-0.66-0.31-1.43-0.45-2.17-0.54c-0.37-0.04-1.04,0.14-1.11,0.36c-0.14,0.44-0.05,1.03,0.12,1.48c0.14,0.37,0.5,0.72,0.84,0.94
			c1.54,1,3.13,1.78,5.05,1.92c5.16,0.37,8.87-2.04,11.79-5.96c3.11-4.19,4.2-9,3.21-14.04C314.46,212.1,310.9,207.17,303.81,207.85
			z M279.49,209.58c-0.26-3.07-1.11-5.83-2.62-8.33c-1.41-2.33-3.72-2.17-5,0.21c-0.2,0.38-0.46,0.77-0.5,1.18
			c-0.26,2.33-0.78,4.7-0.58,6.99c0.17,1.95,0.88,4,1.89,5.7c1.41,2.38,4.13,2.22,5.3-0.27C278.77,213.36,279,211.41,279.49,209.58z
			 M316.91,205.13c0.04,2.66,0.54,5.17,1.98,7.41c1.5,2.33,3.92,2.31,5.5,0.02c0.3-0.43,0.58-0.95,0.66-1.46
			c0.33-2.22,0.78-4.45,0.78-6.67c0-1.32-0.57-2.73-1.18-3.96c-0.81-1.62-2.42-2.06-4.12-1.94c-1.71,0.12-2.75,1.16-3.08,2.81
			C317.19,202.58,317.08,203.86,316.91,205.13z M257.02,196.68c0.17,0.67,0.28,1.43,0.56,2.11c0.14,0.33,0.72,0.78,0.9,0.71
			c0.41-0.17,0.77-0.6,1.02-1c0.15-0.24,0.05-0.63,0.1-0.95c1.07-6.64,4.37-11.77,10.22-15.19c0.37-0.22,0.89-0.3,1.12-0.61
			c0.41-0.55,0.99-1.29,0.89-1.83c-0.17-0.92-1.12-0.86-1.86-0.56c-0.99,0.4-2.01,0.79-2.89,1.38c-4.88,3.22-7.87,7.8-9.48,13.35
			C257.36,194.91,257.22,195.76,257.02,196.68z M218.98,267.85c-3.54-0.01-5.63,0.39-7.37,1.45c-2.02,1.22-3.5,2.87-3.69,5.34
			c-0.07,0.93-0.21,2.06,0.89,2.5c0.15,0.06,0.93-1.18,1.25-1.89c2.56-5.62,10.76-6.73,14.77-1.97c0.55,0.66,1.05,1.39,1.7,1.92
			c0.32,0.26,0.99,0.24,1.42,0.11c0.19-0.06,0.29-0.74,0.24-1.12c-0.06-0.4-0.32-0.79-0.54-1.16
			C225.56,269.59,222.86,267.2,218.98,267.85z"/>
		<path class="st13" d="M293.11,416.91c-2.58,0-5.16-0.09-7.74,0.02c-5.65,0.24-11.1-0.86-16.52-2.24c-4.99-1.27-10-2.46-14.96-3.85
			c-11.75-3.3-22.89-8.02-33.11-14.77c-4.29-2.83-4.35-3.33-0.91-6.88c2.69-2.77,5.46-5.49,8.4-7.99
			c5.12-4.37,9.33-9.47,13.09-15.01c1.87-2.75,3.93-5.37,5.85-8.08c0.73-1.03,1.54-1.23,2.76-0.93c6.06,1.49,12.19,2.32,18.46,2.43
			c3.3,0.06,6.58,0.93,9.89,1.21c6.3,0.53,12.62,0.94,18.93,1.33c4.29,0.26,8.58,0.43,12.87,0.57c1.22,0.04,1.55,0.54,1.83,1.68
			c1.52,6.24,2.98,12.51,4.82,18.67c2.43,8.11,5.19,16.12,7.82,24.18c0.1,0.31,0.23,0.6,0.35,0.9c1.4,3.72,1.29,4.41-2.54,5.63
			c-3.56,1.13-7.27,2-10.97,2.4c-6.07,0.65-12.19,0.83-18.29,1.21C293.12,417.22,293.11,417.06,293.11,416.91z"/>
		<path class="st4" d="M317.56,359.92c-4.65,0-8.93,0.02-13.2-0.01c-1.29-0.01-2.57-0.19-3.86-0.2c-8.82-0.06-17.59-0.54-26.31-2
			c-3.27-0.55-6.62-0.59-9.94-0.83c-5.59-0.4-11.06-1.38-16.4-3.07c-0.51-0.16-1.01-0.36-1.48-0.61c-2.25-1.21-2.7-1.97-1.8-4.39
			c1.3-3.52,2.63-7.06,4.36-10.38c3.37-6.47,7.02-12.8,10.56-19.18c0.21-0.37,0.49-0.7,0.68-1.09c0.08-0.16,0.07-0.53-0.03-0.59
			c-0.24-0.15-0.67-0.33-0.81-0.22c-0.75,0.57-1.59,1.13-2.12,1.89c-1.78,2.55-3.44,5.19-5.16,7.78c-0.34,0.51-0.77,0.97-1.35,1.7
			c-3.02-2.63-5.92-5.14-8.79-7.69c-0.55-0.49-1.04-1.1-1.44-1.72c-2.56-3.96-2.46-4.24,1.86-5.97c5.18-2.08,10.4-4.09,15.53-6.27
			c5.15-2.19,10.5-1.87,15.87-1.6c1.25,0.06,1.96,0.69,1.83,2.09c-0.19,2.12,0.35,4.01,1.82,5.65c1.34,1.5,2.86,2.57,4.93,2.71
			c2.04,0.14,4.07,0.41,6.11,0.44c3.42,0.05,5.48-1.42,6.66-4.52c0.49-1.28,0.64-3.12,1.57-3.7c1.11-0.69,2.89-0.39,4.37-0.33
			c2.24,0.08,4.48,0.26,6.71,0.5c2.59,0.27,4.58,1.67,6.33,3.53c4.9,5.18,9.15,10.81,12.3,17.24c0.95,1.93,1.07,2.11-0.85,2.92
			c-3.35,1.42-6.82,2.56-10.23,3.85c-1.15,0.43-1.61-0.22-1.83-1.15c-0.74-3.13-1.43-6.26-2.16-9.39c-0.22-0.93-0.41-1.9-0.82-2.75
			c-0.16-0.33-0.95-0.64-1.32-0.52c-0.36,0.12-0.81,0.81-0.76,1.2c0.19,1.59,0.5,3.18,0.88,4.74c1.42,5.83,2.81,11.66,4.35,17.46
			c1.15,4.35,2.5,8.64,3.75,12.97C317.45,358.8,317.47,359.23,317.56,359.92z M284.59,327.97c-0.43-0.62-0.77-1.32-1.3-1.83
			c-1.93-1.84-4.28-2.84-6.9-3.18c-3.25-0.41-5.18,1.02-5.65,4.25c-0.39,2.63-0.03,5.22,1.47,7.42c2.47,3.63,5.02,7.22,7.76,10.65
			c2.05,2.57,3.54,2.67,6.48,1.18c3.77-1.91,7-4.56,10.17-7.31c2.1-1.82,3.16-3.99,3.07-6.76c-0.03-1.07-0.01-2.15,0.04-3.22
			c0.1-1.89-0.91-3.07-2.53-3.7c-3.47-1.35-6.9-1.54-10.13,0.72C286.38,326.69,285.7,327.18,284.59,327.97z"/>
		<path class="st7" d="M187.23,413.78c-2.93,0.85-3.59,0.61-4.29-1.9c-1.82-6.48-1.19-12.75,1.86-18.76
			c0.49-0.96,1.08-1.87,1.47-2.86c0.25-0.62,0.2-1.36,0.3-2.17c-2,0.42-2.67,1.84-3.31,3.17c-2.63,5.49-4.63,11.11-3.25,17.38
			c0.11,0.52-0.26,1.14-0.41,1.72c-0.59-0.17-1.28-0.21-1.76-0.54c-1.6-1.12-2.42-2.66-2.33-4.68c0.29-6.05,2.18-11.56,5.57-16.56
			c1.09-1.6,2.26-3.13,3.3-4.76c0.22-0.34,0-0.97-0.02-1.46c-0.47,0.13-1.1,0.12-1.4,0.42c-2.68,2.83-4.97,5.94-6.51,9.53
			c-0.59,1.38-1,2.83-1.52,4.24c-0.22,0.6-0.34,1.42-0.79,1.72c-0.84,0.56-1.89,1.08-2.85,1.07c-0.47,0-1.14-1.18-1.35-1.92
			c-0.87-3.13-0.04-6.07,1.88-8.51c5.46-6.91,12.34-11.93,20.84-14.48c1.82-0.55,3.81-0.51,5.73-0.72c1.8-0.19,3.38-0.72,4-2.66
			c1.62-5.11,4.86-9.31,7.78-13.67c8.05-12.03,17.61-22.76,27.97-32.82c1.7-1.65,1.66-1.6,3.33-0.13c1.69,1.49,3.48,2.86,5.21,4.3
			c0.4,0.33,0.73,0.75,1.14,1.19c-2.76,2.56-5.38,5.05-8.06,7.48c-8.39,7.6-15.92,15.99-23.02,24.77c-2.14,2.65-3.72,5.76-5.49,8.7
			c-0.75,1.24-0.74,2.3,0.08,3.81c2.31,4.25,3.86,8.85,4.14,13.75c0.04,0.7-0.14,1.52-0.5,2.11c-1.03,1.66-0.75,3.16,0.54,4.39
			c2.14,2.05,1.51,4.56,1.33,6.96c-0.1,1.29-1.08,2.02-2.46,2.11c-2.23,0.14-4.13-0.57-5.18-2.56c-1-1.88-1.69-3.93-2.47-5.92
			c-0.35-0.89-0.45-1.91-0.92-2.73c-0.9-1.56-1.85-2.99,0.43-4.2c0.12-0.07,0.15-0.63,0.02-0.79c-0.17-0.21-0.66-0.42-0.83-0.32
			c-1.19,0.68-2.62,1.2-3.41,2.22c-1.09,1.4-1.93,3.12-2.45,4.83c-0.84,2.76-1.3,5.64-1.98,8.46c-0.5,2.08-1.05,4.16-1.65,6.22
			c-0.57,1.95-2.04,2.96-3.92,3.45c-1.33,0.35-2.08,0.02-2.6-1.18c-0.21-0.48-0.29-1.03-0.38-1.56c-1.14-6.85-0.58-13.46,2.67-19.73
			c0.63-1.22,1-2.57,1.42-3.89c0.07-0.22-0.17-0.68-0.39-0.8c-0.22-0.12-0.72-0.05-0.87,0.13c-0.63,0.72-1.26,1.47-1.74,2.29
			c-3.67,6.27-4.66,13.08-3.88,20.2C186.48,410.02,186.9,411.9,187.23,413.78z"/>
		<path class="st7" d="M357.76,429.89c0.52-5.27-0.84-9.62-1.7-14.03c-0.28-1.43-1.11-2.76-1.79-4.09
			c-0.12-0.24-0.81-0.41-1.08-0.28c-0.29,0.14-0.57,0.69-0.54,1.03c0.05,0.62,0.35,1.22,0.52,1.84c1.5,5.49,2.91,11.01,2.55,16.77
			c-0.1,1.59-0.3,3.22-0.78,4.74c-0.68,2.2-2.71,3.28-4.47,2.64c-0.9-0.33-1.53-0.9-1.05-1.95c2.07-4.57,1.43-9.23,0.52-13.9
			c-0.61-3.16-1.19-6.32-1.91-9.45c-0.2-0.86-0.79-1.69-1.39-2.37c-0.47-0.53-1.39-0.01-1.28,0.72c0.27,1.8,0.67,3.58,1.01,5.37
			c0.69,3.58,1.48,7.14,2.03,10.74c0.43,2.8,0.23,5.59-1.54,8.01c-1.31,1.78-2.63,1.72-3.62-0.21c-0.48-0.94-0.83-2.01-0.93-3.06
			c-0.33-3.2-0.57-6.41-0.74-9.62c-0.16-3.12-0.36-6.23-1.76-9.09c-0.46-0.94-1.09-1.89-1.87-2.55c-1.44-1.22-3.5-0.9-4.47,0.71
			c-0.71,1.18-1.1,2.55-1.6,3.85c-0.42,1.1-0.75,2.23-1.22,3.31c-0.67,1.56-1.88,2.56-3.45,3.2c-1.98,0.8-3.34,0.11-3.81-1.99
			c-0.56-2.51-0.07-3.63,2.21-4.99c3.13-1.87,3.65-2.94,2.43-6.3c-0.69-1.9-0.51-3.48,0.45-5.19c1.1-1.97,1.97-4.06,3.01-6.06
			c1.42-2.76,1.48-5.6,0.36-8.41c-1.75-4.38-3.58-8.74-5.47-13.06c-1.85-4.22-3.58-8.5-6.19-12.36c-0.42-0.62-0.62-1.69-0.39-2.37
			c0.61-1.78,0.16-3.42-0.32-5.05c-1.44-4.94-2.95-9.86-4.43-14.78c-0.81-2.69-0.82-2.69,1.76-3.52c1.22-0.4,2.43-0.86,3.66-1.23
			c0.85-0.25,1.41,0.08,1.67,1c0.96,3.29,2.08,6.54,2.91,9.86c2.13,8.46,5.29,16.55,8.72,24.55c2.41,5.63,4.93,11.2,7.34,16.83
			c0.78,1.83,1.87,3.28,3.51,4.48c2.94,2.16,5.93,4.33,8.52,6.87c2.51,2.46,4.54,5.41,6.81,8.12c2.83,3.37,5.71,6.68,8.52,10.06
			c0.74,0.89,1.44,1.88,1.92,2.93c0.49,1.06-0.17,1.85-1.39,1.93c-1.71,0.12-3.24-0.86-4.01-2.64c-0.94-2.16-1.83-4.35-2.77-6.51
			c-0.25-0.58-0.57-1.16-1.01-1.6c-0.23-0.23-0.92-0.34-1.13-0.17c-0.34,0.27-0.7,0.87-0.63,1.24c0.16,0.83,0.58,1.61,0.91,2.4
			c0.92,2.17,1.76,4.39,2.79,6.5c1.4,2.86,1.15,5.87,0.91,8.85c-0.15,1.91-1.11,3.45-2.99,4.27c-2.07,0.9-3.33,0.1-3.33-2.15
			C357.76,432.2,357.76,430.7,357.76,429.89z"/>
		<path class="st5" d="M280.93,483.29c8.47,3.37,17.12,4.24,25.73,5.26c0.43,0.05,0.88,0.02,1.28,0.16
			c4.06,1.35,8.28,1.02,12.46,1.26c2.92,0.17,4.72-1.12,5.82-3.61c1.3-2.95,2.6-5.9,3.7-8.92c1.16-3.19,2.8-6.02,5.15-8.46
			c0.65-0.68,1.28-1,2.27-0.67c2.45,0.8,4.95,1.43,7.39,2.24c4.27,1.42,7.85,3.94,11,7.11c2.53,2.55,3.93,5.6,3.96,9.22
			c0.02,1.93,0.01,3.87,0.01,5.8c0,0.98-0.37,1.58-1.48,1.69c-4.06,0.4-8.12,0.76-12.15,1.33c-6.32,0.9-12.67,0.59-19,0.49
			c-5.35-0.08-10.69-0.72-16.04-1.04c-2.57-0.15-5.16-0.07-7.74-0.17c-4.93-0.18-9.88-0.27-14.8-0.7c-2.32-0.2-4.58-1.07-6.84-1.75
			c-0.53-0.16-1.24-0.77-1.29-1.23c-0.17-1.59-0.15-3.22-0.06-4.82C280.36,485.45,280.69,484.44,280.93,483.29z"/>
		<path class="st5" d="M254.99,487.13c0.16,0.45,0.56,1.22,0.73,2.04c0.6,2.91,0.14,3.49-2.88,3.94c-10.84,1.6-21.71,2.97-32.7,2.47
			c-5.89-0.26-11.78-0.77-17.67-1.09c-2.47-0.13-4.95-0.03-7.42-0.11c-3.77-0.12-7.47-0.59-11.03-1.99
			c-2.71-1.06-3.98-2.69-3.95-5.82c0.04-5.49,2.44-9.78,6.22-13.3c2.17-2.02,4.93-3.41,7.49-4.98c3.09-1.89,6.09-1.21,8.65,0.95
			c1.43,1.21,2.72,2.81,3.52,4.5c1.39,2.89,2.54,5.93,3.44,9.01c0.86,2.94,2.68,4.34,5.54,5.13c4.5,1.24,9.1,1.6,13.69,1.89
			c5.25,0.33,10.49,0.23,15.69-1.03C247.73,487.92,251.28,487.67,254.99,487.13z"/>
		<path class="st13" d="M254.39,484.94c-5.74,0.88-11.02,1.72-16.31,2.48c-1.58,0.23-3.21,0.46-4.79,0.33
			c-6.08-0.48-12.21-0.44-18.15-2.26c-1.87-0.57-2.94-1.41-3.48-3.28c-0.66-2.26-1.57-4.45-2.39-6.66c-1.25-3.37-2.91-6.45-6.6-8.87
			c4.74-0.24,8.84-0.53,12.86,0.69c1.84,0.56,3.61,1.31,5.39,2.03c0.78,0.31,1.64,1.03,2.27,0.13c0.25-0.36-0.15-1.38-0.52-1.91
			c-1.14-1.61-1.34-3.37-1.04-5.22c0.27-1.61,0.99-2.27,2.6-2.24c1.27,0.02,2.54,0.33,3.81,0.47c1.35,0.15,2.16,0.84,2.39,2.18
			c0.7,4.09,3.93,4.96,7.26,5.72c0.31,0.07,0.65,0.08,0.96,0.03c3.16-0.55,5.42,0.91,7.67,2.98
			C250.34,475.22,252.75,479.74,254.39,484.94z"/>
		<path class="st13" d="M287.91,468.03c0.41,0.48,0.83,0.95,1.23,1.44c1.03,1.24,2.34,1.87,3.95,1.81c1.4-0.05,2.83,0.05,4.18-0.25
			c2.22-0.49,4.11-1.32,5.16-3.8c1.31-3.09,3.94-4.76,7.44-4.66c1.62,0.04,2.05,0.52,2.17,2.15c0.11,1.45-0.18,2.73-1.2,3.87
			c-0.92,1.04-1.71,2.2-2.48,3.37c-0.46,0.7-0.47,1.57,0.42,1.87c0.42,0.14,1.32-0.2,1.56-0.59c2.33-3.72,5.9-5.09,10.02-5.6
			c7.5-0.94,7.27-1.45,12.69,0.02c-4.69,4.17-5.48,10.21-7.98,15.39c-2.3,4.76-2.58,4.99-7.84,4.47
			c-8.65-0.86-17.25-2.07-25.81-3.52c-2.74-0.46-5.44-1.26-8.09-2.1c-2.06-0.65-2.2-1.13-1.69-3.08
			C282.57,475.24,285.4,470.33,287.91,468.03z"/>
		<path class="st7" d="M240.42,466.89c-1.83-0.52-3.74-0.87-5.48-1.61c-1.89-0.8-2.54-2.39-1.8-4.2c3.97-9.8,5.57-20.25,8.36-30.37
			c1.54-5.58,3.04-11.18,4.73-16.71c0.7-2.3,0.49-2.4,3.17-1.59c1.44,0.43,2.9,0.78,4.35,1.19c1.73,0.49,1.73,0.5,1.31,2.12
			c-1.23,4.77-2.62,9.51-3.66,14.32c-1.86,8.59-3.52,17.21-5.23,25.83c-0.54,2.73-0.9,5.49-1.45,8.22
			c-0.49,2.42-0.56,2.41-2.91,2.47c-0.43,0.01-0.86,0-1.29,0C240.49,466.67,240.46,466.78,240.42,466.89z"/>
		<path class="st7" d="M289.33,442.45c0-5.38-0.04-10.75,0.02-16.13c0.02-1.82,0.36-3.63,0.48-5.45c0.06-0.95,0.51-1.4,1.42-1.29
			c1.59,0.18,3.55-0.05,4.64,0.8c0.9,0.7,0.91,2.72,1.04,4.17c0.53,5.98,0.94,11.97,1.43,17.96c0.1,1.28,0.41,2.54,0.51,3.83
			c0.42,5.24,0.8,10.48,1.19,15.72c0.04,0.53,0.02,1.08,0,1.61c-0.07,1.58,0.22,3.42-1.37,4.36c-1.99,1.18-4.29,1.54-6.53,0.84
			c-1.43-0.45-2.14-1.69-2.22-3.25c-0.21-4.39-0.52-8.78-0.67-13.18c-0.11-3.33-0.02-6.67-0.02-10
			C289.28,442.45,289.31,442.45,289.33,442.45z"/>
		<path class="st7" d="M362.12,262.37c0.52-1,0.89-1.87,1.38-2.67c1.66-2.7,5.67-3.22,7.68-0.78c2.6,3.16,3.47,6.95,2.08,10.84
			c-2.13,5.98-7.36,9.37-13.69,9.15c-2.63-0.09-5.01-1.04-6.9-2.95c-0.68-0.69-0.83-1.37-0.07-2.22c2.01-2.22,3.91-4.55,5.93-6.77
			c0.56-0.61,1.31-1.15,2.07-1.47c2.58-1.07,4.42,0.08,4.79,2.87c0.01,0.1-0.01,0.21-0.01,0.32c0.04,0.7-0.28,1.67,0.84,1.74
			c1.03,0.07,1.48-0.73,1.69-1.61c0.54-2.26-1.3-5.29-3.71-6.07C363.62,262.56,362.98,262.52,362.12,262.37z"/>
		<path class="st7" d="M286.94,300c2.15,0,4.3-0.01,6.45,0c1.5,0.01,1.87,0.29,1.6,1.61c-0.64,3.04-1.26,6.1-2.14,9.07
			c-0.81,2.72-2.65,3.7-5.44,3.37c-1.38-0.16-2.79-0.48-4.16-0.37c-2.58,0.21-5.76-3.26-5.53-5.7c0.02-0.21-0.03-0.43,0.01-0.64
			c0.36-2.21,0.13-4.82,1.26-6.53c1.24-1.89,3.97-0.32,6.02-0.67c0.63-0.11,1.29-0.02,1.93-0.02
			C286.94,300.08,286.94,300.04,286.94,300z"/>
		<path d="M265.32,241.19c-0.68,1.52-1.25,2.81-1.88,4.22c-1.51-1.24-1.2-2.62-0.54-3.83c1.72-3.14,4.46-5.16,7.72-6.5
			c0.19-0.08,0.45-0.13,0.63-0.07c0.37,0.14,0.89,0.29,1.01,0.58c0.12,0.27-0.07,0.9-0.33,1.08c-0.89,0.59-1.9,1.01-2.81,1.58
			c-1.44,0.91-1.47,1.28-0.33,2.42c4.56,4.57,9.88,7.9,16.1,9.73c8.29,2.44,16.7,2.67,25.19,1.32c0.11-0.02,0.25,0.01,0.31-0.05
			c2.14-1.97,5.23-1.26,7.53-2.66c2.39-1.44,4.67-3.06,6.99-4.6c1.4-0.93,2.3-2.23,2.78-3.83c0.15-0.51,0.26-1.05,0.49-1.53
			c0.12-0.25,0.53-0.6,0.69-0.54c0.35,0.12,0.83,0.42,0.91,0.73c0.65,2.62,0.05,4.89-2.07,6.66c-3.07,2.56-6.27,4.96-10.04,6.35
			c-2.09,0.77-2.66,1.87-2.67,4.03c-0.02,5.36-0.28,10.73-0.61,16.08c-0.2,3.24-1.16,6.29-2.83,9.14
			c-2.38,4.07-5.93,5.95-10.52,6.43c-7.19,0.76-12.19-2.75-16.06-8.19c-5.1-7.16-8.62-15.08-10.5-23.69c-0.5-2.3-0.9-4.62-1.44-6.92
			c-0.16-0.69-0.48-1.46-0.98-1.93C269.98,245.23,267.79,243.37,265.32,241.19z M277.26,257.23c1.35,5.38,3.22,9.89,5.58,14.23
			c0.68,1.26,1.41,1.54,2.84,1.19c2.9-0.72,5.88-1.15,8.83-1.7c4.96-0.92,9.6,0.1,14.05,2.28c0.75,0.37,1.51,0.73,2.55,1.24
			c0.27-1.12,0.64-2.02,0.68-2.93c0.23-4.72,0.38-9.44,0.53-14.16c0.02-0.51-0.21-1.03-0.43-2.01c-0.73,1.34-1.2,2.17-1.65,3.02
			c-2.13,4-7.07,6.74-11.5,5.97C291.46,263.09,284.17,261.77,277.26,257.23z M284.9,275.25c1.48,2.03,2.43,3.74,3.76,5.1
			c3.35,3.43,7.23,5.63,12.33,4.97c3.41-0.44,6.12-1.81,7.99-4.75c1.5-2.35,1.47-2.79-1.06-4.19c-1.49-0.82-3.07-1.62-4.71-2.03
			C297.23,272.84,291.32,273.52,284.9,275.25z M275.54,249.57c-0.11,2.96,1.07,4.65,3,5.83c1.73,1.06,3.45,2.3,5.35,2.91
			c3.87,1.24,7.86,2.12,11.81,3.12c0.83,0.21,1.69,0.33,2.54,0.45c4.83,0.68,8.72-1.79,10.39-6.76
			C297.19,256.08,286.11,255.11,275.54,249.57z"/>
		<path d="M303.81,207.85c7.09-0.68,10.64,4.25,11.85,10.44c0.99,5.04-0.1,9.85-3.21,14.04c-2.92,3.93-6.63,6.33-11.79,5.96
			c-1.92-0.14-3.51-0.92-5.05-1.92c-0.35-0.22-0.7-0.57-0.84-0.94c-0.17-0.46-0.26-1.04-0.12-1.48c0.07-0.22,0.74-0.4,1.11-0.36
			c0.74,0.08,1.5,0.23,2.17,0.54c4.07,1.91,7.51,0.83,10.55-2.17c4.7-4.64,5.44-12.09,2.54-17.25c-1.36-2.42-3.27-3.78-6.22-3.8
			c-6.18-0.03-9.31,1.93-11.6,7.65c-0.12,0.3-0.13,0.66-0.32,0.89c-0.18,0.22-0.54,0.44-0.8,0.42c-0.26-0.02-0.71-0.33-0.71-0.52
			c0.01-1.26-0.15-2.61,0.25-3.76c1.51-4.25,5.86-7.93,10.8-7.76C302.96,207.87,303.5,207.85,303.81,207.85z"/>
		<path d="M279.49,209.58c-0.49,1.83-0.72,3.79-1.52,5.48c-1.17,2.49-3.9,2.65-5.3,0.27c-1-1.7-1.72-3.75-1.89-5.7
			c-0.19-2.3,0.32-4.66,0.58-6.99c0.04-0.41,0.3-0.8,0.5-1.18c1.28-2.38,3.6-2.54,5-0.21C278.38,203.75,279.23,206.51,279.49,209.58
			z"/>
		<path d="M316.91,205.13c0.17-1.27,0.28-2.55,0.53-3.8c0.33-1.65,1.38-2.69,3.08-2.81c1.69-0.12,3.31,0.32,4.12,1.94
			c0.61,1.22,1.19,2.63,1.18,3.96c0,2.23-0.45,4.46-0.78,6.67c-0.08,0.51-0.36,1.02-0.66,1.46c-1.59,2.3-4,2.32-5.5-0.02
			C317.45,210.3,316.95,207.79,316.91,205.13z"/>
		<path d="M257.02,196.68c0.2-0.92,0.34-1.77,0.58-2.59c1.6-5.55,4.6-10.14,9.48-13.35c0.88-0.58,1.9-0.97,2.89-1.38
			c0.74-0.3,1.68-0.35,1.86,0.56c0.1,0.54-0.48,1.28-0.89,1.83c-0.23,0.31-0.75,0.39-1.12,0.61c-5.85,3.42-9.16,8.55-10.22,15.19
			c-0.05,0.32,0.05,0.71-0.1,0.95c-0.26,0.4-0.61,0.83-1.02,1c-0.18,0.08-0.76-0.38-0.9-0.71
			C257.3,198.11,257.19,197.36,257.02,196.68z"/>
		<path d="M218.98,267.85c3.88-0.66,6.58,1.74,8.68,5.18c0.22,0.36,0.48,0.75,0.54,1.16c0.05,0.37-0.05,1.06-0.24,1.12
			c-0.43,0.13-1.1,0.15-1.42-0.11c-0.66-0.53-1.15-1.27-1.7-1.92c-4.01-4.76-12.22-3.65-14.77,1.97c-0.32,0.71-1.1,1.95-1.25,1.89
			c-1.1-0.44-0.96-1.57-0.89-2.5c0.19-2.47,1.67-4.12,3.69-5.34C213.36,268.24,215.44,267.84,218.98,267.85z"/>
		<path d="M284.59,327.97c1.11-0.79,1.79-1.28,2.48-1.76c3.23-2.26,6.66-2.07,10.13-0.72c1.62,0.63,2.63,1.81,2.53,3.7
			c-0.06,1.07-0.08,2.15-0.04,3.22c0.09,2.77-0.97,4.94-3.07,6.76c-3.18,2.74-6.41,5.39-10.17,7.31c-2.94,1.49-4.43,1.39-6.48-1.18
			c-2.74-3.43-5.29-7.02-7.76-10.65c-1.5-2.2-1.86-4.79-1.47-7.42c0.48-3.24,2.4-4.66,5.65-4.25c2.62,0.33,4.98,1.34,6.9,3.18
			C283.82,326.65,284.16,327.36,284.59,327.97z M297.58,330.95c0.04-2.54-0.53-3.22-2.97-3.71c-2.85-0.57-5.31,0.12-7.36,2.19
			c-0.6,0.6-1.06,1.34-1.62,1.98c-0.89,1.01-1.88,0.91-2.06-0.35c-0.27-1.88-1.28-3.12-2.72-4.15c-1.52-1.08-3.19-1.74-5.08-1.78
			c-2.09-0.04-2.9,0.66-3.1,2.79c-0.18,1.98,0.14,3.94,1.26,5.55c2.49,3.6,5.09,7.14,7.8,10.59c1.24,1.58,1.85,1.67,3.58,0.51
			c3.1-2.08,6.06-4.39,9.09-6.59C296.8,336.23,297.54,333.75,297.58,330.95z"/>
		<path class="st10" d="M277.26,257.23c6.91,4.54,14.21,5.86,21.48,7.13c4.42,0.77,9.37-1.97,11.5-5.97
			c0.45-0.85,0.92-1.69,1.65-3.02c0.22,0.98,0.45,1.5,0.43,2.01c-0.14,4.72-0.3,9.44-0.53,14.16c-0.04,0.92-0.41,1.81-0.68,2.93
			c-1.05-0.51-1.8-0.87-2.55-1.24c-4.45-2.19-9.09-3.21-14.05-2.28c-2.95,0.55-5.92,0.98-8.83,1.7c-1.43,0.36-2.16,0.07-2.84-1.19
			C280.48,267.12,278.61,262.6,277.26,257.23z"/>
		<path class="st11" d="M284.9,275.25c6.43-1.73,12.33-2.41,18.31-0.89c1.64,0.42,3.21,1.21,4.71,2.03c2.53,1.4,2.56,1.84,1.06,4.19
			c-1.87,2.94-4.58,4.31-7.99,4.75c-5.1,0.66-8.98-1.55-12.33-4.97C287.33,279,286.37,277.29,284.9,275.25z"/>
		<path class="st5" d="M275.54,249.57c10.57,5.54,21.65,6.51,33.09,5.55c-1.67,4.97-5.56,7.44-10.39,6.76
			c-0.85-0.12-1.71-0.24-2.54-0.45c-3.95-1-7.94-1.88-11.81-3.12c-1.9-0.61-3.62-1.85-5.35-2.91
			C276.61,254.22,275.42,252.53,275.54,249.57z"/>
		<path class="st16" d="M297.58,330.95c-0.04,2.8-0.78,5.28-3.18,7.02c-3.03,2.2-5.98,4.5-9.09,6.59c-1.73,1.16-2.34,1.07-3.58-0.51
			c-2.71-3.45-5.31-6.98-7.8-10.59c-1.11-1.61-1.44-3.57-1.26-5.55c0.2-2.12,1.01-2.82,3.1-2.79c1.89,0.03,3.56,0.7,5.08,1.78
			c1.44,1.03,2.45,2.26,2.72,4.15c0.18,1.26,1.17,1.37,2.06,0.35c0.56-0.64,1.02-1.38,1.62-1.98c2.04-2.06,4.51-2.76,7.36-2.19
			C297.05,327.72,297.62,328.41,297.58,330.95z"/>
	</g>
</g>
<g id="Capa_2" class="st17">
	<path class="st18" d="M154.95,419.36c-2.27-3.85-4.73-7.66-7.11-11.34l-0.04-0.06c-0.93-1.43-1.85-2.87-2.77-4.31
		c1.39-0.83,2.63-2.38,2.61-5.28c-0.01-0.64-0.03-1.31-0.09-2.18c-0.04-0.66-0.09-1.32-0.13-1.99c-0.08-1.12-0.16-2.24-0.21-3.36
		c-0.02-0.49-0.02-0.99-0.01-1.53c0.01-0.66,0.02-1.35-0.03-2.06c-0.25-3.63-2.11-5.4-5.71-5.4l-0.28,0l-0.42,0.01
		c-0.22,0.01-0.43,0.01-0.64,0.01l-9.08-0.1c-8.25-0.09-16.5-0.18-24.76-0.3c-2.8-0.04-5.6-0.1-8.4-0.17
		c-3.86-0.09-7.85-0.18-11.81-0.2c-1.36-0.01-2.78-0.05-4.03-0.09c-1.48-0.04-3.02-0.09-4.55-0.09c-2.66,0-4.84,0.14-6.87,0.45
		c-2.12,0.32-3.89,0.86-4.06,4.17c-0.08,1.53-0.04,3.06-0.01,4.54c0.02,0.66,0.03,1.32,0.04,1.98c0,0.56,0,1.13,0,1.69
		c-0.01,1.25-0.02,2.67,0.08,4.06c0.09,1.2,0.33,2.92,1.45,3.95l0.29,0.26c0.45,0.42,0.96,0.89,1.56,1.31
		c-0.2,0.2-0.39,0.39-0.56,0.59c-2.75,3.07-5.88,6.7-8.21,11.01c-2.36,4.37-3.81,7.88-4.7,11.35c-0.38,1.47-0.64,2.93-0.88,4.35
		c-0.21,1.2-0.43,2.44-0.71,3.62c-1.64,6.83-0.71,13.53,0.41,19.19c0.63,3.2,1.7,6.23,2.76,9.03c1.49,3.95,3.06,6.96,4.92,9.48
		c0.74,1,1.52,1.97,2.31,2.93c0.86,1.06,1.76,2.16,2.54,3.26c1.4,1.98,3,3.79,4.52,5.44c1.7,1.86,3.64,2.1,5.14,2.1
		c0.22,0,0.45-0.01,0.68-0.02c3.36-0.14,6.37-0.21,9.2-0.22h0.16c1.95,0,3.98,0.04,5.77,0.07l0.13,0c1.68,0.03,3.37,0.06,5.05,0.07
		l0.33,0c1.24,0,2.47-0.03,3.71-0.05c1.21-0.03,2.42-0.05,3.63-0.05l0.57,0c1.11,0.01,2.23,0.06,3.32,0.12
		c1.03,0.05,2.19,0.11,3.33,0.12c1.1,0.01,2.2,0.01,3.3,0.01l4.99-0.01c2.56,0,5.58,0.02,8.54,0.15c0.81,0.04,1.61,0.05,2.39,0.05
		c2.08,0,4.04-0.12,6-0.38c0.74-0.1,2.12-0.41,3.02-1.4c2.51-2.77,4.94-5.6,7.42-8.5c1.65-1.92,2.74-4.09,3.83-6.23
		c0.39-0.77,0.8-1.57,1.21-2.32c3.45-6.19,5.33-12.73,5.59-19.46l0.01-0.36c0.19-4.94,0.39-10.05-0.29-15.15
		C158.75,427.6,157.26,423.29,154.95,419.36z"/>
	<path class="st18" d="M221.79,192.96c-0.1,0.4-0.18,0.82-0.22,1.26c-0.05,0.56-0.12,1.11-0.18,1.67l-0.01,0.07
		c-0.25,2.12-0.51,4.31-0.07,6.72c0.82,4.52,2.06,9.27,5.49,13.31c2.44,2.88,4.96,5.85,8.6,7.94c0.76,0.43,1.54,0.94,2.31,1.44
		c1.48,0.96,3.01,1.95,4.74,2.68c3.3,1.38,6.73,2.43,10.07,3.46l1.13,0.35c3.52,1.09,7.11,1.45,10.59,1.79
		c0.95,0.09,1.9,0.19,2.85,0.3c1.05,0.12,2.08,0.14,2.94,0.14c0.31,0,1.82-0.01,1.82-0.01c0.51,0,1.02,0.01,1.53,0.03
		c0.17,0.01,0.33,0.01,0.5,0.01c0.75,0,1.45-0.09,2.12-0.22c0.52,1.1,1.05,2.19,1.58,3.26l0.07,0.15c0.41,0.83,0.83,1.67,1.23,2.51
		c0.58,1.22,1.29,2.33,1.99,3.43c0.45,0.7,0.91,1.42,1.3,2.13c0.71,1.28,1.67,2.25,2.53,3.11c0.55,0.56,1.07,1.08,1.47,1.63
		c0.43,0.59,1,0.83,1.29,0.96c2.27,1.72,4.87,1.95,7.11,1.95h0l0.23,0c4.68-0.03,8.43-0.68,11.8-2.02l0.83-0.33
		c2.96-1.18,6.03-2.4,8.88-4.03c0.54-0.31,1.09-0.6,1.65-0.9c1.85-0.98,3.75-2,5.45-3.58c0.74-0.69,1.63-1.29,2.6-1.93
		c0.74-0.49,1.5-1,2.23-1.59c5.24-4.18,9.44-9.58,12.49-16.05c0.92-1.95,1.54-3.73,1.89-5.44l0.2-0.94c0.34-1.62,0.7-3.3,0.79-5.09
		c0.08-1.47,0.14-3.04-0.05-4.69c-0.36-3.3-1.51-6.44-3.72-10.18c-0.94-1.59-2.01-3.23-3.47-4.7c0.33-0.17,0.66-0.37,0.97-0.64
		c2.23-1.93,2.28-3.95,2.1-4.99c-0.18-1.11-0.93-3.1-3.85-4c-0.87-0.27-1.75-0.41-2.57-0.52c-1.57-0.22-3.13-0.32-4.64-0.32
		c-0.99,0-1.99,0.05-2.96,0.14c0.11-1.65-0.62-3.19-2.06-4.14c-1.44-0.95-2.93-1.43-4.44-1.43c-1.11,0-2.22,0.26-3.29,0.78
		c-0.1,0.05-0.21,0.1-0.31,0.15c-0.35-0.35-0.7-0.71-1.05-1.06c-1.69-1.72-3.79-2.8-6.24-3.21c-0.35-0.06-0.69-0.09-1.01-0.09
		c-1.51,0-2.73,0.66-3.46,1.83c-0.38-0.25-0.74-0.5-1.1-0.76c-1.63-1.2-3.4-1.81-5.25-1.81c-1.52,0-3.11,0.42-4.73,1.25
		c-1.32,0.67-2.21,1.67-2.57,2.88c-0.26,0.86-0.23,1.78,0.07,2.71c-0.52,0.14-1.04,0.33-1.55,0.58c-0.09,0.05-0.18,0.09-0.28,0.13
		c-0.87-1.84-1.86-3.66-3-5.44c-1.15-1.79-2.31-3.24-3.56-4.43l-0.67-0.65c-1.16-1.13-2.37-2.3-3.82-3.32
		c-1.18-0.83-2.45-1.69-3.94-2.42c-2.95-1.43-6.18-2.12-10.45-2.23c-0.37-0.01-0.74-0.02-1.1-0.02c-1.57,0-2.91,0.11-4.13,0.34
		c0-0.22-0.02-0.45-0.05-0.69c-0.46-3.03-2.24-4.19-3.26-4.62c-0.61-0.26-1.25-0.39-1.9-0.39c-1.32,0-2.6,0.52-3.79,1.55
		c-0.69,0.59-1.27,1.26-1.8,1.89c-1.55,1.86-2.86,3.81-3.91,5.82c-0.74-0.44-1.56-0.68-2.42-0.68c-0.7,0-1.39,0.15-2.06,0.46
		c-2.78,1.26-4.43,3.46-4.76,6.34c0,0.02,0,0.03-0.01,0.05c-0.38,0.08-0.75,0.17-1.13,0.25c-2.37,0.52-4.41,1.73-6.07,3.6
		c-1,1.13-1.46,2.33-1.34,3.59c0.03,0.36,0.11,0.71,0.24,1.05c-0.27,0.12-0.54,0.23-0.81,0.34c-3.48,1.37-5.51,4.23-5.87,8.26
		c-0.17,1.95,0.53,3.2,1.15,3.9C220.14,192.08,220.8,192.63,221.79,192.96z"/>
	<path class="st18" d="M388.4,384.43c-0.74-0.9-1.49-1.79-2.24-2.68c-0.5-0.6-1.01-1.19-1.51-1.79c-0.05-0.06-0.09-0.13-0.14-0.2
		c-0.13-0.2-0.31-0.48-0.57-0.74c-0.77-0.74-2.05-1.23-3.25-1.23c-0.61,0-1.15,0.13-1.59,0.38c-1.74,1-1.35,2.68-1.2,3.32
		c0.03,0.13,0.06,0.25,0.08,0.38c0.59,5.95-0.98,11.59-4.79,17.19c-0.58-0.53-1.18-1.06-1.85-1.52c-2.88-1.99-6.14-2.95-9.97-2.95
		c-1.09,0-2.24,0.08-3.44,0.24c-0.56,0.07-1.12,0.15-1.66,0.21c-3.35-5.19-4.52-6.56-10.16-9.64c-3.71-2.02-7.45-3.05-11.13-3.05
		c-0.63,0-1.27,0.03-1.91,0.09c-1.34,0.13-2.62,0.46-3.87,0.77c-0.92,0.23-1.79,0.46-2.66,0.6c-5.39,0.87-9.9,3.75-13.8,8.82
		c-0.59,0.77-1.1,1.57-1.6,2.35c-0.02,0.03-0.04,0.06-0.06,0.09c-0.7-0.25-1.37-0.48-2.1-0.64c-0.78-0.17-1.56-0.39-2.34-0.6
		c-1.97-0.53-4.01-1.09-6.1-1.09c-0.12,0-0.23,0-0.35,0.01c-7.38,0.23-12.93,2.55-16.97,7.11c-3.56,4.01-5.16,8.43-4.76,13.16
		c-2.5-2.03-5.09-4.12-8.34-5.33c-2.28-0.85-4.68-1.49-7.32-1.94c-1.21-0.21-2.47-0.31-3.85-0.31c-2.05,0-4.08,0.22-6.04,0.44
		c-0.6,0.07-1.21,0.13-1.81,0.19c-1.12,0.11-2.15,0.54-3.07,0.91c-0.22,0.09-0.44,0.18-0.66,0.26c-3.11,1.2-5.7,3.1-8.09,4.94
		c-5.06,3.91-7.6,9.44-7.77,16.9c-0.03,1.44,0.37,2.83,0.76,4.18c0.09,0.32,0.19,0.65,0.28,0.98c-0.45,0.39-0.94,0.81-1.43,1.23
		c-0.2,0.17-0.4,0.32-0.61,0.48c-0.49,0.37-1.04,0.78-1.5,1.33c-2.63,3.14-5.53,6.89-6.73,11.67c-1.37,5.45-0.74,9.62,1.97,13.1
		c1.36,1.75,2.97,3.52,5.07,5.56c0.64,0.62,1.4,1.05,2.07,1.43c0.44,0.25,0.86,0.49,1.2,0.75c3.16,2.42,7.06,3.72,11.94,3.96
		c1.02,0.05,1.92,0.08,2.74,0.08c3.82,0,6.86-0.54,9.63-1.74c2.25,4.46,6.05,7.29,9.54,9.49c2.49,1.57,4.46,2.56,6.4,3.21
		c2.12,0.71,4.34,1.06,6.8,1.06c1.3,0,2.65-0.1,4.11-0.29c4.14-0.56,8.99-1.51,13.49-4.28c4.82-2.97,8.19-6.41,10.49-10.72
		c5.21,3.37,10.89,3.83,15.35,3.83c0.8,0,1.6-0.02,2.4-0.05c6.17-0.22,11.66-2.41,16.7-6.69c0.1,0.35,0.2,0.68,0.31,1.01
		c0.7,2.19,1.58,4.92,3.83,7.03c3.8,3.55,8.32,5.36,13.44,5.36c1.24,0,2.52-0.11,3.81-0.33c8.53-1.45,14.17-6.5,16.31-14.61
		c1.06-4.03,1.08-8.17,1.01-11.74c-0.11-5.61-1.59-9.84-4.63-13.21c0.52-0.67,1.06-1.37,1.56-2.09c2.54-3.66,5.01-8.19,4.13-14.03
		c-0.57-3.77-1.69-7.94-5.6-10.69c2.93-2.28,5.52-4.44,7.62-7.26c0.6-0.8,1.27-1.64,1.99-2.48c3.58-4.18,5.14-8.14,4.89-12.45
		C390.7,389.51,390.3,386.74,388.4,384.43z"/>
	<path class="st18" d="M215.06,450.05l-0.79-0.41c-1.49-0.78-3.03-1.59-4.68-2.24c-6.04-2.36-11.15-3.46-16.1-3.46
		c-0.47,0-0.95,0.01-1.31,0.03l-1.45,0c-9.55,0-17.1,4.31-22.46,12.81c-1.89,3-2.64,6.08-2.21,9.14c0.18,1.29,0.56,2.46,0.96,3.66
		c0.12,0.36,0.24,0.73,0.35,1.09c1.9,6.33,6.39,10.63,13.7,13.14c2.96,1.02,6.01,1.44,9.41,1.85c1.13,0.14,2.35,0.2,3.61,0.2
		c1.16,0,2.37-0.06,3.68-0.17c3.39-0.29,6.48-1.39,9.48-2.47l0.61-0.22c5.57-1.98,9.68-5.68,12.2-10.98c1.41-2.95,2.06-5.46,2-7.65
		c-0.14-4.89-1.86-9.28-4.99-12.68C216.6,451.17,215.93,450.51,215.06,450.05z"/>
	<path class="st18" d="M453.95,99.16c-1.65-7.32-4.21-16.86-9.49-25.71c-3.89-6.52-8.81-12.15-14.63-16.75
		c-1.92-1.52-3.99-2.53-6.03-3.53c-0.75-0.37-1.5-0.73-2.23-1.13c-3.4-1.82-6.98-3.05-10.44-4.24c-0.93-0.32-1.86-0.64-2.78-0.97
		c-5.08-1.82-10.68-2.98-17.09-3.56c-2.7-0.25-5.77-0.52-8.79-0.53l-0.24,0c-2.52,0-5.05,0.12-7.51,0.23
		c-1.06,0.05-2.12,0.1-3.18,0.14c-0.2,0.01-0.39,0.01-0.59,0.01c-0.62,0-1.33,0-2.09,0.17l-2.01,0.43
		c-5.1,1.08-10.37,2.2-15.42,4.17c-0.6,0.24-1.21,0.47-1.81,0.7c-4,1.54-8.13,3.13-11.93,5.59c-5.35,3.46-10.48,6.98-14.51,12.04
		c-0.61,0.76-1.26,1.52-1.9,2.26c-1.23,1.44-2.51,2.92-3.61,4.57c-3.66,5.5-6.16,11.57-8.57,17.43l-0.27,0.64
		c-1.29,3.12-1.83,6.33-2.36,9.43c-0.24,1.4-0.48,2.84-0.79,4.21c-0.39,1.74-0.49,3.46-0.59,5.12l-0.02,0.26
		c-0.25,4.16-0.11,8.49,0.42,13.24c0.71,6.34,2.27,12.45,4.77,18.68c1.04,2.6,2.12,4.79,3.3,6.68c1.61,2.59,3.46,5.02,5.26,7.38
		c3.3,4.33,6.21,7.32,9.45,9.69c1.41,1.04,2.85,2.04,4.33,3.09l0.09,0.06c0.94,0.66,1.87,1.32,2.8,1.98c4.6,3.3,9.2,5.68,14.04,7.28
		c2.67,0.88,5.59,1.81,8.93,2.85c0.46,0.14,0.92,0.29,1.4,0.44c1.65,0.53,3.35,1.07,5.12,1.44c1,0.21,1.99,0.22,2.87,0.24
		c0.77,0.01,1.5,0.03,2.09,0.17c2.55,0.61,5.23,0.91,7.97,0.91c0.89,0,1.81-0.03,2.67-0.09c0.66,0,1.32,0.03,2.02,0.05
		c0.73,0.03,1.46,0.05,2.19,0.05c1.11,0,2.04-0.06,2.92-0.2c4.77-0.73,8.62-1.53,12.13-2.53c5.83-1.66,10.9-3.36,15.52-5.18
		c3.66-1.45,6.73-3.09,9.36-5.01l0.38-0.27c3.04-2.21,6.17-4.5,8.82-7.55c3.34-3.85,6.08-7.52,8.38-11.22
		c3.33-5.36,6.16-11.55,8.91-19.49c1.97-5.68,3.16-11.53,3.54-17.4C455.08,110.3,455.21,104.76,453.95,99.16z"/>
	<path class="st18" d="M510.86,120.14c-0.3-3.45-1.18-6.87-2.08-10.05c-1.14-4-2.65-8.17-5.98-11.58c-1.66-1.69-2.31-3.88-2.78-5.99
		c-0.14-0.62-0.26-1.23-0.39-1.85c-0.18-0.87-0.36-1.74-0.56-2.61c-1.11-4.72-3.09-9.08-5.37-13.88c-1.41-2.96-4.14-4.82-7.69-5.23
		c-1.29-0.15-2.59-0.16-3.86-0.02c-3.35,0.35-6.69,1.68-10.23,4.07c-0.68,0.45-1.29,1.1-1.88,1.98c-0.83,1.24-1.05,2.55-0.62,3.66
		c0.44,1.15,1.53,1.99,3.06,2.37c0.34,0.08,0.67,0.12,0.96,0.16c0.19,0.02,0.38,0.04,0.56,0.08c2.43,0.51,4.77,1.08,6.75,2.38
		c0.9,0.59,1.31,1.09,1.4,1.36c0.83,2.53,1.45,5.28,1.95,7.48c0.09,0.42,0.04,0.98-0.02,1.56l-0.04,0.4
		c-0.04,0.5-0.24,0.79-0.7,1.03c-1.25,0.66-2.94,1.54-3.67,3.46c-2.03,0.8-2.89,2.52-3.58,3.91c-0.55,1.1-0.97,2.24-1.38,3.34
		c-0.21,0.56-0.41,1.11-0.64,1.67l-1.48,3.66c-1.47,3.64-2.98,7.4-4.53,11.07c-0.31,0.74-0.62,1.49-0.93,2.24
		c-1.84,4.46-3.75,9.07-6.57,13.12c-1.3,1.86-2.55,3.79-3.75,5.65c-1.1,1.69-2.23,3.44-3.39,5.12c-0.92,1.33-1.94,2.66-2.92,3.94
		c-0.77,1-1.57,2.04-2.33,3.09c-3.8,5.26-7.47,9.61-11.22,13.3c-2.33,2.29-4.28,4.19-6.39,6.07l-1.05,0.94
		c-2.16,1.93-4.4,3.93-6.77,5.63c-5.85,4.2-11.3,7.83-16.66,11.1c-4.81,2.93-9.55,6.09-14.14,9.15c-2.5,1.67-5.01,3.34-7.53,4.98
		L382.7,208c-5.32,3.48-10.83,7.07-16.86,9.48c-0.31,0.12-0.63,0.24-0.94,0.35c-0.94,0.33-1.91,0.68-2.77,1.29
		c-1.75,1.24-3.35,2.71-4.83,4.11c-0.69,0.65-1.57,1.69-1.84,2.88c-0.97,4.28-0.14,7.93,2.47,10.87c1.04,1.17,2.28,1.85,3.77,2.07
		c1.32,0.19,2.64,0.53,3.99,0.89c4.92,1.32,9.84,2.06,14.63,2.22c5.71,0.19,11.56,0.2,17.88,0.04c3.51-0.09,7.06-0.34,10.5-0.58
		c1.54-0.11,3.07-0.21,4.61-0.31c1-0.06,2.01-0.14,2.99-0.25c6.65-0.7,12.99-2.43,18.85-5.15c1.28-0.59,2.64-1.13,3.96-1.64
		c0.67-0.26,1.33-0.52,1.99-0.79c0.33-0.14,0.67-0.27,1.01-0.39c0.85-0.33,1.72-0.66,2.57-1.1c2.04-1.06,4.07-2.14,6.1-3.23
		c0.91-0.49,1.82-0.97,2.73-1.45l4.52-19.24c0,0,3.1-15.65,5.08-19.16c1.99-3.51,7.44-11.59,9.26-13.08
		c1.82-1.49,6.49-5.53,10.96-4.04c4.47,1.49,6.88,10.25,5.32,17.81c-0.96,4.64-1.81,9.01-4.09,14.84c3.33-3.58,5.81-6.9,7.7-10.33
		c3.17-5.76,6.77-12.28,8.74-19.43c0.61-2.21,1.31-4.45,1.98-6.62c0.64-2.04,1.3-4.16,1.88-6.26c0.91-3.24,1.69-6.56,2.44-9.77
		l0.23-1c0.3-1.27,0.62-2.54,0.94-3.81c1.16-4.61,2.36-9.39,2.56-14.29C511.16,129.4,511.27,124.76,510.86,120.14z"/>
</g>
</svg>
