<?xml version="1.0" encoding="utf-8"?>
<!-- Generator: Adobe Illustrator 24.2.1, SVG Export Plug-In . SVG Version: 6.00 Build 0)  -->
<svg version="1.1" xmlns="http://www.w3.org/2000/svg" xmlns:xlink="http://www.w3.org/1999/xlink" x="0px" y="0px"
	 viewBox="0 0 557.86 531.82" style="enable-background:new 0 0 557.86 531.82;" xml:space="preserve">
<style type="text/css">
	.st0{fill:#50443D;}
	.st1{fill:#D2A273;}
	.st2{fill:#5CACBB;}
	.st3{fill:#ABC4E7;}
	.st4{fill:#CD3C31;}
	.st5{fill:#FFFFFF;}
	.st6{fill:#CD7D31;}
	.st7{fill:#EED6BE;}
	.st8{fill:#74543C;}
	.st9{fill:#E3B959;}
	.st10{fill:#921B31;}
	.st11{fill:#FFB9DE;}
	.st12{fill:#C1E0C6;}
	.st13{fill:#7B5CAA;}
	.st14{fill:#E8C449;}
	.st15{fill:#B4714C;}
	.st16{fill:#D6CF38;}
	.st17{display:none;}
	.st18{display:inline;opacity:0.4;fill:#BC1D6C;}
</style>
<g id="Capa_1">
	<g>
		<path d="M343.21,257.04c-0.38,1.43-0.71,2.42-0.9,3.44c-1.22,6.69-4.31,12.33-9.42,16.83c-0.95,0.84-2.02,1.69-3.19,2.09
			c-1.44,0.49-1.78,1.2-1.56,2.6c1.05,6.45,2.16,12.9,3.01,19.38c0.68,5.21,1.2,10.45,1.47,15.69c0.35,6.75,0.36,13.52,0.61,20.28
			c0.04,1,0.45,2.07,0.97,2.94c2.51,4.25,5.41,8.31,7.61,12.71c3.18,6.35,4.32,13.23,3.83,20.33c-0.13,1.97-0.65,2.52-2.55,2.54
			c-1.25,0.01-2.5-0.25-3.99-0.41c-0.19,0.85-0.37,1.77-0.61,2.68c-0.47,1.76-0.88,3.54-1.48,5.25c-0.53,1.5-1.65,2.65-3.28,2.76
			c-1.34,0.09-1.79,0.84-2.32,1.83c-1.66,3.1-2.74,3.61-6.21,3.15c-0.51-0.07-1.05-0.08-1.56-0.04c-2.53,0.2-3.92-0.65-4.42-3.05
			c-0.3-1.46-0.27-2.99-0.32-4.49c-0.15-4.51-0.26-9.02-0.42-13.52c-0.02-0.57-0.28-1.13-0.58-2.25c-0.64,1.24-0.97,1.98-1.39,2.67
			c-1.72,2.83-5.1,2.87-6.72-0.04c-0.65-1.16-0.97-2.65-0.98-3.99c-0.03-7.31,1.61-14.31,4.96-20.77c1.25-2.41,3.39-4.39,5.3-6.42
			c0.72-0.77,1.11-1.25,0.94-2.42c-1.13-7.63-2.18-15.27-4.05-22.78c-1.03-4.14-1.2-8.49-2.06-12.68
			c-1.36-6.62-2.96-13.18-4.51-19.76c-0.1-0.42-0.58-1.02-0.94-1.06c-2.77-0.29-5.56-0.55-8.35-0.65c-1.45-0.05-1.61,0.31-1.4,1.78
			c1.59,11.08,4.35,21.87,7.9,32.47c1.05,3.15,2.02,6.35,2.73,9.59c0.83,3.77,1.19,7.5-0.23,11.39c-0.89,2.44-0.77,5.29-0.91,7.96
			c-0.14,2.79-0.16,5.59-0.04,8.38c0.24,5.84-0.81,11.55-1.52,17.3c-0.5,4.04-1.06,8.08-1.66,12.11
			c-0.94,6.36-1.93,12.72-2.88,19.08c-0.72,4.77-1.29,9.56-2.16,14.3c-1.28,6.96-2.82,13.87-4.13,20.82
			c-0.74,3.89-1.39,7.82-1.81,11.75c-0.74,6.93-1.28,13.88-1.87,20.83c-0.1,1.12-0.42,1.86-1.72,1.8c-0.42-0.02-0.85,0.1-1.27,0.19
			c-2.77,0.63-2.8,0.63-3.06,3.59c-0.21,2.35-0.35,4.71-0.52,7.06c-0.08,1.16,0.44,1.8,1.61,1.97c4.67,0.68,9.32,1.56,14.01,2.04
			c8.19,0.83,15.78,3.26,22.52,8.01c5.26,3.7,7.54,8.88,7.12,15.32c-0.1,1.53-0.87,2.11-2.19,2.23c-2.78,0.26-5.56,0.59-8.35,0.67
			c-4.09,0.11-8.18,0.1-12.26,0.02c-6.01-0.12-12.03-0.31-18.04-0.54c-4.61-0.18-9.22-0.48-13.83-0.73
			c-1.71-0.09-3.23,0.27-4.91,0.92c-2.75,1.06-5.82,1.44-8.79,1.76c-13.73,1.48-27.51,0.8-41.27,0.65c-1.6-0.02-3.2-0.34-4.8-0.55
			c-3.19-0.42-6.38-0.82-9.57-1.29c-1.06-0.16-2.1-0.45-3.13-0.76c-3.74-1.15-4.94-3.45-3.66-7.15c1-2.89,2.56-5.4,5.05-7.32
			c3.95-3.04,8.28-5.29,12.88-7.2c7.83-3.25,16.12-4.44,24.34-6.02c1.68-0.32,3.32-0.86,4.97-1.36c0.91-0.27,1.42-0.84,1.28-1.92
			c-0.39-2.87-0.75-5.74-1.04-8.62c-0.1-1.03-0.41-1.62-1.53-1.57c-1.8,0.08-2.32-1.09-2.69-2.59
			c-3.45-14.28-7.01-28.54-10.39-42.84c-1.85-7.82-3.43-15.71-5.11-23.57c-1.74-8.18-3.59-16.34-5.12-24.56
			c-0.86-4.63-1.2-9.36-1.72-14.05c-0.48-4.37-0.96-8.74-1.3-13.13c-0.32-4.17-0.5-8.35-0.65-12.54c-0.05-1.31-0.09-2.33-1.81-2.34
			c-1.32-0.01-1.82-0.98-1.91-2.17c-0.06-0.75-0.11-1.52,0-2.25c0.44-2.97,0.74-5.98,1.48-8.89c1.34-5.3,2.99-10.53,4.43-15.81
			c1.78-6.52,3.49-13.06,5.22-19.59c0.11-0.41,0.24-0.83,0.28-1.26c0.13-1.28-0.41-1.75-1.73-1.48c-0.73,0.15-1.42,0.52-2.15,0.66
			c-1.99,0.39-3.98,0.9-5.99,1c-1.43,0.07-2.12,0.45-2.46,1.86c-1.11,4.58-2.46,9.11-3.49,13.72c-1.37,6.18-2.82,12.36-3.67,18.62
			c-0.76,5.62-0.79,11.34-1.06,17.03c-0.02,0.47,0.5,1.12,0.95,1.44c5.47,3.95,8.77,9.31,10.46,15.76c0.51,1.97,1.2,3.91,1.55,5.91
			c0.39,2.31,0.51,4.66,0.71,7c0.04,0.42-0.09,0.86-0.2,1.27c-1.15,4.3-3.87,5.11-6.91,1.88c-2.05-2.18-3.77-4.67-5.81-7.24
			c-0.26,1.48-0.56,2.88-0.76,4.29c-0.86,6.23-0.48,12.41,0.56,18.6c0.28,1.67,0.21,3.44,0.06,5.15c-0.2,2.36-1.65,3.41-3.97,3.86
			c-3.7,0.71-6.31-0.33-7.74-3.92c-0.07-0.17-0.31-0.28-0.46-0.41c-0.21,0.03-0.42,0.02-0.61,0.09c-3.08,1.06-4.2,0.72-5.3-2.15
			c-1.37-3.6-2.78-7.23-2.61-11.21c0.03-0.64-0.07-1.28-0.14-2.47c-0.67,1.14-1.02,1.87-1.49,2.52c-1.04,1.43-2.59,1.55-3.87,0.34
			c-1.47-1.4-1.73-3.21-1.45-5.07c0.38-2.54,0.67-5.15,1.48-7.57c1.87-5.6,3.91-11.15,6.14-16.61c1.09-2.66,2.7-5.12,4.24-7.57
			c0.66-1.06,1.02-2.06,1-3.29c-0.06-3.01-0.16-6.03-0.01-9.03c0.2-3.96,0.59-7.91,0.99-11.86c0.44-4.37,0.84-8.76,1.54-13.1
			c1.01-6.24,2.28-12.44,3.44-18.66c0.14-0.74,0.45-1.46,0.45-2.2c0-0.39-0.43-1.1-0.74-1.14c-3.01-0.42-5.11-2.41-6.89-4.49
			c-4.46-5.24-8.78-10.64-10.73-17.44c-0.61-2.15-0.99-4.36-1.5-6.71c-0.9,1.71-1.37,3.53-1.42,5.51
			c-0.12,5.08,0.77,10.05,1.55,15.03c0.02,0.11,0.09,0.21,0.09,0.31c-0.03,1.14,0.35,2.62-0.22,3.33c-0.94,1.17-2.44,0.34-3.52-0.29
			c-1.28-0.75-2.55-1.63-3.58-2.69c-4.62-4.75-7.33-10.53-8.84-16.92c-2.15-9.17-2.94-18.48-2.17-27.83
			c0.9-10.8,2.62-21.49,5.1-32.07c1.41-6.04,2.14-12.24,3.17-18.37c0.64-3.81,1.19-7.63,1.95-11.41c1.19-5.91,0.57-11.76-0.24-17.62
			c-0.61-4.46-1.3-8.92-1.74-13.39c-1.08-11.13-1.14-22.31-1.23-33.48c-0.08-10.17,2.29-19.74,6.66-28.92
			c2.94-6.18,6.39-11.91,11.56-16.51c5.04-4.48,10.73-7.87,16.89-10.53c0.77-0.33,1.67-0.36,2.47-0.65c0.58-0.21,1.26-0.48,1.6-0.94
			c2.78-3.75,6.8-5.8,10.74-7.99c6.71-3.73,14.09-5.16,21.53-6.31c8.74-1.34,17.57-1.68,26.38-1.28c9.77,0.45,19.46,1.74,28.89,4.56
			c3.19,0.95,6.48,1.56,9.68,2.46c3.65,1.03,7.02,2.67,9.99,5.1c1.74,1.43,3.63,2.68,5.44,4.04c1.63,1.23,3.33,2.39,4.82,3.77
			c4.58,4.22,9.07,8.56,13.62,12.81c3.34,3.13,5.89,6.79,7.89,10.9c1.93,3.96,4.1,7.8,6.25,11.65c2.79,4.97,4.26,10.14,4.25,15.96
			c-0.02,9.42-1.84,18.32-5.75,26.85c-0.94,2.05-1.68,4.19-2.63,6.24c-1.43,3.07-2.6,6.14-1.02,9.52
			c0.92,7.77,2.36,15.47,2.02,23.38c-0.24,5.68-0.19,11.41,0.23,17.08c0.33,4.47,1.31,8.9,2.2,13.31
			c1.17,5.78,2.85,11.47,3.73,17.28c1.26,8.36,2.82,16.71,2.45,25.27c-0.18,4.06,0.65,8.15,0.47,12.21
			c-0.36,8.31-3.02,15.78-9.36,21.56c-0.77,0.7-1.71,1.36-2.69,1.67c-1.73,0.55-2.39-0.3-2.34-2.19c0.11-4.4,0.08-8.8,0.1-13.2
			C343.49,257.76,343.42,257.65,343.21,257.04z M346.25,270c6.01-4.99,8.41-11.35,8.95-19.14c0.34-5.01-0.47-10.09-0.36-15.13
			c0.18-8.12-1.45-16.03-2.59-23.97c-0.79-5.5-2.45-10.87-3.64-16.32c-0.68-3.14-1.48-6.3-1.72-9.48c-0.44-5.89-0.61-11.8-0.7-17.7
			c-0.1-6.98,0.26-13.98-1.33-20.85c-0.57-2.46-0.07-5.14-1.66-7.43c-0.36-0.52-0.03-1.67,0.24-2.45c0.97-2.84,1.95-5.69,3.1-8.46
			c2.64-6.34,5.44-12.59,6.54-19.48c0.9-5.67,1.31-11.29,0.32-16.96c-0.62-3.56-2.46-6.63-4.09-9.77c-2.18-4.2-4.39-8.38-6.75-12.47
			c-1.28-2.22-2.79-4.34-4.42-6.31c-1.43-1.73-3.17-3.21-4.8-4.76c-3.74-3.55-7.41-7.18-11.3-10.57c-2.75-2.39-5.87-4.35-8.72-6.64
			c-3.32-2.68-6.97-4.69-11.12-5.65c-9.61-2.24-19.03-5.25-28.99-5.96c-12.04-0.85-24.01-1-36,0.84
			c-9.53,1.46-18.32,4.53-26.14,10.24c-1.12,0.82-2.22,1.55-2.79,2.99c-0.29,0.73-1.39,1.23-2.22,1.64
			c-3.28,1.59-6.74,2.88-9.89,4.69c-7.4,4.25-13.53,9.89-17.54,17.55c-1.45,2.76-2.82,5.57-4.04,8.43
			c-2.58,6.08-4.42,12.46-4.5,19.02c-0.15,11.82,0.2,23.65,0.62,35.46c0.17,4.81,1.02,9.59,1.68,14.37
			c0.92,6.62,1.35,13.23,0.19,19.88c-0.53,3.06-0.89,6.16-1.37,9.23c-0.97,6.25-1.66,12.56-3.02,18.73
			c-2.31,10.49-4.28,21.04-5.21,31.73c-0.83,9.55-0.34,19.1,1.83,28.5c1.41,6.08,3.93,11.59,8.26,16.17
			c0.85,0.9,1.87,1.63,3.03,2.62c-0.48-5.1-0.98-9.76-1.34-14.44c-0.32-4.09,0.57-7.9,3.12-11.23c0.66-0.86,1.29-1.97,2.52-1.68
			c1.36,0.32,1.1,1.65,1.13,2.7c0.01,0.32,0.02,0.65-0.01,0.97c-0.54,6.26,2.03,11.51,5.37,16.5c1.19,1.79,2.37,3.62,3.79,5.21
			c1.71,1.91,3.54,3.76,5.58,5.29c1.73,1.3,3.16,1.02,3.87-1.28c2.57-8.31,5.24-16.59,7.9-24.86c2.44-7.57,4.77-15.18,8.67-22.18
			c0.6-1.08,0.81-2.1,0.45-3.37c-0.62-2.2,0.12-4.03,2.06-5.29c2.06-1.34,4-3,6.25-3.92c4.46-1.83,9.07-3.34,13.67-4.78
			c1.49-0.47,2.32-1.05,2.77-2.61c1.18-4.05,3.41-7.39,7.23-9.5c0.23-0.13,0.35-0.45,0.51-0.67c-13.59-2.93-25.72-9.1-37.75-16.53
			c0,3.68,0.2,6.91-0.05,10.1c-0.33,4.34-3.59,6.65-7.88,5.91c-0.74-0.13-1.48-0.29-2.2-0.51c-2.49-0.78-3.56-2.1-3.5-4.71
			c0.03-1.59,0.38-3.18,0.61-4.76c0.11-0.78,0.28-1.56,0.45-2.44c-5.49,1.02-10.35,0.32-14.68-2.91c-2.95-2.2-4.66-5.05-4.37-8.83
			c0.16-2.02,0.25-4.12,0.87-6.03c2.85-8.8,8.87-12.67,17.54-9.25c3.37,1.33,3.48,1.03,5.05-1.99c0.55-1.05,1.06-2.11,1.52-3.2
			c2.46-5.84,5.05-11.63,7.29-17.56c3.09-8.13,5.95-16.35,8.84-24.56c2.25-6.39,4.02-12.9,4.84-19.66
			c0.48-3.94,1.24-7.84,1.65-11.78c0.53-5.11,2.1-10.1,1.66-15.31c-0.04-0.51,0.08-1.11,0.34-1.55c0.23-0.39,0.75-0.61,1.14-0.9
			c0.24,0.41,0.71,0.84,0.68,1.24c-0.23,3.44,1.84,5.33,4.5,6.82c0.84,0.47,1.76,0.8,2.62,1.24c3.15,1.61,6.26,3.33,9.46,4.83
			c2.22,1.04,4.51,2.09,6.89,2.62c4.81,1.08,9.7,1.82,14.56,2.67c1.79,0.31,3.6,0.69,5.41,0.75c6.77,0.23,13.55,0.21,20.31,0.54
			c4.49,0.22,8.99,0.66,13.42,1.42c3.59,0.61,7.12,1.74,10.23,3.77c0.61,0.4,1.38,1.51,1.21,1.95c-0.44,1.14-1.42,0.35-2.14,0.05
			c-0.9-0.36-1.74-0.86-2.63-1.23c-2.75-1.15-5.57-2.08-8.66-2.39c-0.35,1.42,0.4,2.43,0.84,3.46c4.77,11.04,9.65,22.03,14.31,33.12
			c1.87,4.45,3.15,9.14,4.95,13.62c1.51,3.74,2.52,7.51,2.53,11.55c0.01,2.63,0.09,2.63,2.67,3.1c4.27,0.78,8.04,4.2,8.78,8.03
			c0.26,1.37,0.42,2.76,0.53,4.15c0.26,3.53-0.9,6.54-3.39,9.05c-1.86,1.88-4.09,3.12-6.6,3.88c-0.88,0.27-1.13,0.7-1.02,1.65
			c0.18,1.59,0.3,3.22,0.15,4.81c-0.25,2.65-2.04,4.31-4.71,4.37c-1.6,0.04-3.23-0.12-4.8-0.42c-2.35-0.44-3.26-1.63-3.35-4.01
			c-0.04-1.13-0.01-2.27-0.01-3.66c-2.78,2.43-5.21,4.7-7.79,6.79c-4.98,4.02-10.32,7.37-16.71,8.71c-3.67,0.77-7.34,1.58-11,2.41
			c-0.97,0.22-1.91,0.56-3.04,0.9c2.01,2.68,3.18,5.31,3.79,8.18c0.21,1,0.64,1.75,1.86,1.89c4.67,0.53,8.92,2.33,13,4.54
			c2.54,1.38,5.02,2.86,7.5,4.35c1.37,0.83,2.26,2.07,2.12,3.72c-0.13,1.51,0.51,2.61,1.22,3.86c2.78,4.84,5.91,9.56,7.94,14.71
			c2.6,6.57,4.46,13.45,6.28,20.29c1.57,5.9,2.61,11.94,3.92,17.91c0.38,1.73,1.19,2.1,2.73,1.33c0.38-0.19,0.75-0.44,1.05-0.74
			c3.84-3.68,7.32-7.59,8.7-12.93c1.13-4.37,2.31-8.72,2.49-13.26c0.03-0.64,0.09-1.29,0.28-1.9c0.11-0.36,0.55-0.92,0.76-0.88
			c0.46,0.07,0.98,0.38,1.27,0.75c0.32,0.4,0.51,0.97,0.58,1.49c0.52,4.15,1.1,8.29,1.46,12.45
			C346.42,264.85,346.25,267.22,346.25,270z M191.63,171.95c-0.17-0.35-0.4-0.62-0.41-0.9c-0.08-2.84,2.5-5.15,5.64-4.68
			c4.76,0.71,8.78,2.77,11.21,7.21c0.29,0.53,0.73,1.01,1.18,1.43c0.76,0.73,1.58,1.39,2.36,2.09c0.8,0.72,1.49,1.6,2.38,2.16
			c3.71,2.35,7.22,4.98,11.43,6.54c3.3,1.23,6.26,3.39,9.56,4.62c5.22,1.93,10.48,3.77,16.05,4.67c8.17,1.32,16.27,1.17,24.36-0.32
			c4.43-0.82,8.82-1.85,13.23-2.76c4.55-0.95,8.96-2.26,12.98-4.66c5.59-3.33,10.38-7.62,14.85-12.31
			c6.07-6.35,9.58-13.89,10.7-22.54c0.56-4.3,0.13-8.63-1.16-12.75c-1.6-5.12-3.48-10.16-5.46-15.15
			c-2.66-6.68-5.52-13.28-8.32-19.91c-2.67-6.33-5.38-12.64-8.01-18.98c-0.34-0.83-0.81-1.22-1.61-1.3
			c-0.85-0.09-1.71-0.17-2.57-0.2c-7.74-0.21-15.48-0.39-23.22-0.64c-1.92-0.06-3.85-0.27-5.75-0.58
			c-4.02-0.65-8.04-1.39-12.04-2.14c-3.69-0.7-7.41-1.24-10.79-3.08c-5.45-2.97-10.97-5.83-16.49-8.75
			c-0.58,4.34-1.11,8.58-1.72,12.8c-0.75,5.2-1.43,10.41-2.39,15.57c-1.87,10.09-5.97,19.5-9.42,29.08
			c-2.5,6.96-5.68,13.68-8.57,20.51c-1.83,4.34-3.5,8.76-6.53,12.56c1.12,1.18,2.22,2.21,3.16,3.37c0.66,0.82,1.17,1.78,1.61,2.74
			c0.13,0.27-0.09,0.92-0.35,1.09c-0.27,0.18-0.92,0.14-1.17-0.08c-0.72-0.63-1.36-1.36-1.97-2.11c-1.97-2.39-4.38-4.23-7.34-5.04
			c-5.65-1.54-8.8-0.43-11.79,4.45c-1.55,2.52-2.15,5.36-2.36,8.28c-0.22,3.07,1.05,5.4,3.47,7.2c3.38,2.52,7.23,3.18,11.31,2.79
			c2.69-0.26,3.32-1.42,1.89-3.83c-0.65-1.09-0.35-1.76,0.24-2.59c1.14-1.58,2.78-2.15,4.78-2.17c-1.9-2.33-4.3-3.9-6.51-4.25
			c-2.23-0.34-4.33-0.25-5.62,2.06C192.35,171.71,191.96,171.78,191.63,171.95z M240.89,212.35c-6.56,2.01-12.84,3.44-18.27,7.13
			c-0.44,0.3-0.84,0.66-1.28,0.97c-1.62,1.14-2.11,2.52-1.28,4.45c1.02,2.36,2.03,4.76,2.7,7.23c1.48,5.47,2.98,10.96,4.03,16.53
			c1.6,8.43,2.59,16.95,2.54,25.56c-0.01,2.01-0.49,4.08,0.47,6.03c0.12,0.25,0.1,0.72-0.06,0.92c-1.27,1.57-0.74,3.53-1.22,5.26
			c-1.76,6.41-3.52,12.83-5.32,19.23c-1.36,4.85-2.87,9.67-4.11,14.55c-0.66,2.58-0.99,5.26-1.31,7.92
			c-0.29,2.44-0.12,2.54,2.39,3.1c0.52,0.12,1.03,0.3,1.54,0.46c11.38,3.5,21.8,9.07,32.02,15.03c2.01,1.17,3.72,2.87,5.54,4.38
			c1.53,1.27,3.01,2.6,4.68,4.05c0.56-5.65,0.36-129.41-0.23-131.98c-0.57,0.65-1.07,1.17-1.5,1.75c-1.94,2.57-3.72,5.29-5.85,7.69
			c-1.39,1.58-3.18,2.89-4.98,4c-1.95,1.21-3.77,0.8-5.14-0.99c-1.83-2.39-3.45-4.9-4.1-7.94c-0.75-3.47-1.44-6.93-1.26-10.51
			C240.95,215.79,240.89,214.4,240.89,212.35z M266.3,357.5c3.04-2.03,5.47-3.78,8.02-5.33c8.73-5.28,17.5-10.48,26.25-15.72
			c1.85-1.1,3.69-2.2,5.54-3.3c0.75-0.45,1.46-0.92,1.4-1.97c-0.12-2.14,0.05-4.34-0.4-6.4c-0.73-3.35-1.81-6.62-2.83-9.89
			c-2.68-8.6-5.49-17.16-6.87-26.1c-0.75-4.87-1.96-9.69-1.45-14.68c0.7-6.93,1.06-13.89,2.42-20.75
			c2.12-10.72,3.41-21.61,6.58-32.12c0.77-2.55,0.47-3.05-1.91-4.28c-1.23-0.64-2.58-1.14-3.68-1.96
			c-4.02-3.05-8.71-4.59-13.42-6.08c-0.44-0.14-0.99,0.06-1.58,0.12c0.96,5.85,0.83,11.53,0.48,17.2
			c-0.25,4.11-1.42,8.04-3.89,11.44c-1.46,2-3.41,2.16-5.21,0.46c-0.85-0.81-1.56-1.77-2.32-2.68c-2.3-2.76-4.6-5.53-7.13-8.57
			C266.3,270.45,266.3,313.62,266.3,357.5z M221.22,334.24c0,2.96-0.18,5.74,0.04,8.48c0.44,5.34,1.08,10.66,1.68,15.99
			c0.53,4.79,0.85,9.63,1.73,14.36c1.74,9.37,3.75,18.69,5.73,28.01c1.67,7.86,3.34,15.72,5.2,23.53
			c3.23,13.55,6.64,27.06,9.92,40.6c0.25,1.04,0.72,1.45,1.73,1.46c4.07,0.03,8.14,0.06,12.22,0.16c3.24,0.08,3.24,0.13,2.91-3.21
			c-0.03-0.32-0.07-0.64-0.06-0.96c0.26-7.35-1.58-14.49-2.17-21.75c-0.52-6.4-1.85-12.72-1.86-19.19
			c-0.01-3.64-0.45-7.28-0.76-10.91c-0.31-3.63-0.81-7.25-1.01-10.89c-0.29-5.47-0.44-10.94-0.56-16.42
			c-0.2-9.13-0.4-18.25,0.43-27.36c0.47-5.13,0.23-5.33-4.19-7.82c-0.56-0.32-1.15-0.59-1.72-0.89c-4.38-2.29-8.69-4.71-13.14-6.83
			c-4.26-2.03-8.66-3.77-13.02-5.57C223.36,334.62,222.29,334.5,221.22,334.24z M306.56,335.82c-3.38,1.82-6.54,3.41-9.59,5.18
			c-4.27,2.48-8.47,5.08-12.67,7.68c-3.65,2.27-7.22,4.65-10.88,6.91c-1.8,1.11-2.19,2.58-2.02,4.62c0.51,5.98,1.1,11.98,1.12,17.97
			c0.04,10.52-0.34,21.04-0.52,31.56c-0.14,8.26,0.23,16.54-0.67,24.78c-0.38,3.52-0.45,7.07-0.79,10.59
			c-0.52,5.33-1.24,10.65-1.72,15.98c-0.5,5.58,0.1,6.17,5.75,6.4c1.07,0.04,2.15,0.01,3.23,0.04c0.86,0.02,1.76-0.06,2.57,0.17
			c2.7,0.78,5.33,0.16,7.98-0.23c1.17-0.17,1.63-0.79,1.71-1.93c0.39-5.56,0.68-11.14,1.3-16.68c0.59-5.32,1.24-10.66,2.4-15.88
			c2.43-10.89,4.4-21.85,5.93-32.9c1.1-7.96,2.35-15.9,3.52-23.85c0.76-5.19,1.8-10.37,2.19-15.59
			C306.02,352.56,306.19,344.42,306.56,335.82z M307.2,224.76c-0.23,0.06-0.46,0.12-0.68,0.19c-0.36,1.33-0.78,2.65-1.07,4
			c-0.83,3.76-1.71,7.52-2.37,11.32c-0.25,1.44-0.37,3.15,0.17,4.43c1.58,3.69,2.43,7.56,3.29,11.43
			c1.51,6.81,3.29,13.57,4.41,20.44c0.83,5.09,1.82,10.12,3.01,15.12c1.02,4.28,2.03,8.56,2.9,12.87c0.61,3.04,0.71,6.21,1.51,9.19
			c2.13,7.9,2.98,16.01,4.39,24.03c0.17,0.95-0.1,1.59-0.99,2.12c-3.38,2-5.4,5.13-6.93,8.63c-2.4,5.46-3.57,11.21-3.98,17.14
			c-0.1,1.44,0.07,2.8,1.04,3.94c1.02,1.2,2.06,1.12,2.77-0.26c0.69-1.33,1.19-2.77,1.84-4.12c0.71-1.46,0.98-2.82-0.21-4.19
			c-0.2-0.23-0.08-0.73-0.11-1.1c0.49,0.04,1.27-0.09,1.42,0.15c0.76,1.26,1.61,2.56,1.96,3.96c1.07,4.27,1.8,8.6,1.52,13.05
			c-0.16,2.57-0.05,5.16-0.02,7.74c0.02,1.47-0.21,3.06,1.46,3.93c0.8-1.09,2.01-2.07,2.32-3.28c0.65-2.58,1.03-5.26,1.16-7.92
			c0.23-4.94,0.19-9.89,0.29-14.83c0.02-0.85,0.1-1.71,0.25-2.55c0.04-0.26,0.44-0.7,0.57-0.67c0.35,0.1,0.89,0.37,0.93,0.63
			c0.26,1.8,0.58,3.61,0.55,5.41c-0.05,4.4-0.32,8.8-0.42,13.2c-0.08,3.26-0.59,6.41-1.96,9.39c-0.22,0.47-0.37,0.97-0.56,1.49
			c2.38,0.33,2.97,0.14,3.79-1.46c0.49-0.95,0.86-1.98,1.13-3.01c1.31-5,2.22-10.05,2.13-15.25c-0.03-1.82,0.02-3.65,0.16-5.47
			c0.03-0.42,0.6-0.79,0.92-1.18c0.3,0.38,0.65,0.74,0.87,1.16c0.14,0.26,0.09,0.63,0.1,0.95c0.06,5.37,0.23,10.75-1.23,16.01
			c-0.25,0.89-0.34,1.82-0.59,3.21c0.86-0.46,1.46-0.58,1.66-0.93c0.52-0.93,1.03-1.92,1.24-2.94c0.48-2.31,0.8-4.64,1.14-6.98
			c0.67-4.57,1.29-9.15,0.6-13.78c-0.08-0.51-0.08-1.08,0.06-1.57c0.1-0.35,0.61-0.9,0.77-0.85c0.44,0.14,0.95,0.47,1.15,0.87
			c0.23,0.44,0.2,1.04,0.2,1.58c-0.03,3.54-0.05,7.09-0.14,10.63c-0.04,1.69,0.75,3.01,2.2,3.35c1.01,0.24,1.82-0.2,1.76-1.23
			c-0.19-3.53-0.16-7.13-0.86-10.57c-1.5-7.39-5.92-13.51-9.39-20.03c-2.67-2.25-2.91-5.19-2.6-8.42c0.21-2.12-0.04-4.29-0.11-6.44
			c-0.15-4.3-0.25-8.6-0.52-12.88c-0.21-3.42-0.58-6.84-1-10.24c-0.48-3.83-1.06-7.65-1.68-11.45c-0.76-4.65-1.55-9.3-2.44-13.92
			c-0.81-4.21-1.8-8.39-2.66-12.59c-2.72-13.42-6.57-26.44-13.28-38.48C308.48,226.68,307.82,225.73,307.2,224.76z M207.8,352.71
			c0.22,0.04,0.44,0.08,0.66,0.11c0.09,0.3,0.35,0.66,0.26,0.88c-0.92,2.19-0.14,4.16,0.71,6.12c1.28,2.91,3.32,5.26,5.63,7.37
			c0.79,0.72,1.61,0.55,2.11-0.43c0.76-1.46,1.22-3,0.84-4.66c-0.7-3.03-1.55-6.02-2.16-9.06c-0.87-4.33-2.78-8.11-5.6-11.45
			c-1.1-1.3-2.15-2.86-3.59-3.6c-1.51-0.78-1.61-1.77-1.7-3.08c-0.67-9.27,0.24-18.41,1.95-27.54c2.77-14.79,7.12-29.15,11.32-43.56
			c1.16-3.99,3.16-7.74,4.77-11.6c0.53-1.27,1.12-2.44,0.75-3.99c-1.09-4.59-1.89-9.25-3-13.83c-0.46-1.91-0.85-3.95-2.41-5.8
			c-0.53,0.95-1.01,1.63-1.32,2.38c-1.08,2.58-2.21,5.13-3.11,7.77c-1.73,5.08-3.36,10.19-4.94,15.32c-3,9.74-6.09,19.46-8.86,29.26
			c-2.34,8.27-3.37,16.8-4.34,25.33c-0.89,7.78-1.74,15.57-1.7,23.42c0.01,1.06,0.03,2.16,0.27,3.18c0.25,1.06-0.08,1.78-0.63,2.66
			c-1.76,2.82-3.69,5.59-4.94,8.64c-2.37,5.75-4.41,11.64-6.39,17.54c-0.71,2.11-0.94,4.4-1.24,6.63c-0.1,0.8,0.15,1.69,0.43,2.47
			c0.26,0.74,1.03,0.74,1.42,0.04c0.63-1.12,1.04-2.41,1.84-3.38c0.89-1.09,1.3-2.18,1.18-3.53c-0.04-0.42-0.05-0.87,0.05-1.29
			c0.55-2.39,1.11-4.79,1.74-7.16c0.19-0.71,0.6-1.58,1.55-1.11c0.31,0.16,0.29,1.06,0.33,1.63c0.02,0.3-0.17,0.62-0.29,0.91
			c-1.25,3.04-1.57,6.22-1.42,9.48c0.08,1.82,0.11,3.66,0.03,5.48c-0.16,3.75,1.13,7.18,2.25,10.64c0.16,0.5,0.41,1.04,0.78,1.39
			c0.34,0.32,0.97,0.63,1.36,0.52c0.41-0.11,0.95-0.7,0.96-1.1c0.04-0.95-0.05-1.95-0.35-2.85c-1.67-5.06-1.83-10.33-2.39-15.55
			c-0.06-0.53-0.07-1.08,0.02-1.6c0.04-0.23,0.37-0.46,0.63-0.58c0.13-0.06,0.47,0.08,0.54,0.22c0.29,0.56,0.65,1.14,0.73,1.74
			c0.28,2.02,0.54,4.05,0.66,6.08c0.29,4.88,1.57,9.53,3.37,14.02c0.54,1.34,1.64,2.46,2.55,3.64c0.13,0.18,0.64,0.24,0.86,0.13
			c0.18-0.1,0.36-0.61,0.26-0.79c-1.6-2.92-1.85-6.15-2.17-9.34c-0.44-4.38-0.8-8.76-1.11-13.14c-0.05-0.75-0.28-2.04,0.91-2.05
			c1.08-0.01,1.03,1.2,1.11,2.02c0.49,5.01,0.95,10.03,1.4,15.05c0.2,2.27,0.63,4.48,1.94,6.39c0.26,0.38,0.86,0.84,1.22,0.77
			c0.4-0.07,0.98-0.67,1-1.07c0.11-1.7,0.29-3.44,0.01-5.1c-1.14-6.83-1.46-13.67-0.31-20.51
			C204.82,359.54,206.22,356.07,207.8,352.71z M269.43,358.4c-1.24,0.66-2.09,1.11-2.93,1.57c-1.18,0.64-1.75,0.37-2.49-0.88
			c-0.9-1.52-2.31-2.77-3.63-4c-0.85-0.79-1.49-0.44-1.75,0.75c-0.07,0.31-0.11,0.64-0.12,0.96c-0.21,6.33-0.56,12.66-0.56,18.99
			c0,6.44,0.29,12.88,0.56,19.32c0.16,3.75,0.49,7.5,0.81,11.24c0.29,3.42,0.74,6.82,0.99,10.24c0.3,4.17,0.36,8.36,0.72,12.53
			c0.4,4.7,0.74,9.43,1.57,14.06c1.35,7.52,1.66,15.13,2.33,22.71c0.12,1.31,0.29,2.6-1.45,3.12c-0.33,0.1-0.65,0.86-0.65,1.32
			c0.01,3.65-0.03,7.31,0.2,10.96c0.14,2.2,1.67,2.68,3.41,1.29c0.59-0.47,1.27-0.84,1.78-1.38c0.49-0.52,1.04-1.14,1.18-1.8
			c0.62-2.94,1.08-5.91,1.64-8.86c0.18-0.92-0.16-1.45-0.97-1.76c-0.5-0.19-1.01-0.36-1.53-0.5c-2.17-0.63-2.32-0.66-2.23-2.77
			c0.18-3.96,0.43-7.93,0.8-11.88c0.7-7.58,1.59-15.14,2.22-22.73c0.38-4.6,0.48-9.22,0.58-13.84c0.27-12.46,0.59-24.91,0.66-37.37
			c0.04-6-0.4-12.01-0.66-18.02C269.88,360.73,269.65,359.79,269.43,358.4z M240.45,510.77c4.44-0.21,9.69-0.41,14.93-0.71
			c2.99-0.17,5.99-0.41,8.97-0.77c1.69-0.21,3.35-0.74,5.03-1.08c0.87-0.17,1.35-0.67,1.39-1.51c0.19-4.22-0.14-8.35-2.02-12.24
			c-0.43-0.88-0.96-0.84-1.82-0.57c-3.05,0.97-6.12,1.94-9.24,2.66c-3.54,0.82-7.14,1.42-10.73,2.01c-1.89,0.31-3.82,0.44-5.73,0.6
			c-2.78,0.23-5.14-0.74-6.79-2.94c-3.24-4.32-7.84-5.38-12.81-5.47c-1.57-0.03-3.26,0.19-4.71,0.77c-3.69,1.49-7.16,3.4-10.26,5.97
			c-1.62,1.34-2.83,2.91-3.7,4.79c-1.61,3.46-1.01,5.02,2.74,5.72c4.73,0.88,9.52,1.66,14.31,2.01
			C226.53,510.49,233.08,510.52,240.45,510.77z M313.97,508.34c0-0.03,0-0.07,0-0.1c2.58,0,5.16,0.02,7.74-0.01
			c1.4-0.02,2.8-0.04,4.18-0.21c2.77-0.34,3.4-1.08,2.77-3.79c-0.94-4.07-2.74-7.68-6.39-10.08c-4.34-2.85-8.96-5.03-14.02-6.3
			c-1.53-0.38-2.74-0.2-3.92,0.67c-1.9,1.4-3.75,2.87-5.62,4.3c-2.83,2.16-5.96,3.4-9.58,3.08c-4.08-0.36-8.14-0.91-11.55-3.46
			c-2.41-1.79-4.72-3.71-7.06-5.59c-0.67-0.54-1.23-1.21-1.93-1.7c-0.28-0.2-0.89-0.26-1.14-0.09c-0.26,0.18-0.47,0.8-0.35,1.09
			c0.45,1.08,0.95,2.17,1.61,3.14c3.18,4.68,4.67,9.83,4.63,15.47c-0.01,1.92,0.09,1.93,2.01,2.03c4.72,0.25,9.43,0.54,14.15,0.72
			C297.66,507.83,305.81,508.07,313.97,508.34z M225.1,488.25c0,0.21,0.01,0.43,0.01,0.64c0.78,0.2,1.55,0.41,2.33,0.58
			c3.02,0.66,5.78,1.84,7.63,4.42c2.35,3.27,5.63,3.76,9.18,3.14c5.28-0.93,10.54-2,15.78-3.14c1.87-0.41,3.68-1.15,5.5-1.79
			c1.02-0.36,1.32-1.1,0.66-2c-1.14-1.55-2.2-3.2-3.55-4.54c-1.57-1.55-2.3-3.25-2.27-5.44c0.05-3.01-0.02-6.01-0.1-9.02
			c-0.05-1.76-0.32-2.08-2.06-2.2c-1.82-0.12-3.65-0.09-5.48-0.08c-2.87,0.01-2.92,0.03-2.72,2.77c0.19,2.67,0.44,5.34,0.76,8
			c0.17,1.38-0.21,2.3-1.53,2.8c-1.7,0.64-3.36,1.47-5.11,1.88c-3.44,0.8-6.95,1.31-10.41,2.02
			C230.84,486.88,227.97,487.59,225.1,488.25z M242.59,216.72c0.52,3.15,1.11,6.29,1.54,9.45c0.41,2.99,1.92,5.43,3.65,7.76
			c1.03,1.39,1.61,1.61,2.96,0.62c1.8-1.31,3.54-2.78,4.97-4.47c2.07-2.45,3.79-5.18,5.73-7.74c1.38-1.83,1.39-1.74-0.19-3.31
			c-3.1-3.08-6.18-6.18-9.21-9.33c-1.09-1.14-0.99-1.19,0.33-2.3c0.36-0.31,0.66-0.8,0.79-1.27c0.45-1.65,0.82-3.32,1.19-4.99
			c0.12-0.52,0.17-1.06,0.22-1.59c0.1-1.05-0.48-1.37-1.38-1.11c-0.81,0.24-1.64,0.53-2.36,0.97c-2.62,1.61-4.63,3.77-5.91,6.6
			C243.41,209.41,242.85,212.97,242.59,216.72z M282.84,219.32c0.93-5.6-1.34-11.12-2.97-16.72c-0.46-1.57-1.64-2.98-2.67-4.33
			c-0.39-0.51-1.25-0.84-1.94-0.92c-1.24-0.15-1.7,0.59-1.55,1.95c0.36,3.09,0.67,6.18,0.99,9.28c0.18,1.71-0.34,3.14-1.55,4.39
			c-1.87,1.93-3.73,3.88-5.48,5.91c-1.99,2.31-2.09,2.82-0.25,5.34c2.52,3.47,5.24,6.79,7.91,10.15c2.88,3.63,3.65,3.5,5.39-0.71
			C282.58,229.2,283.22,224.56,282.84,219.32z M302.13,487.21c-1.03-0.27-1.34-0.37-1.65-0.43c-4.65-0.82-9.3-1.6-13.94-2.46
			c-2.77-0.52-3.08-0.86-2.99-3.57c0.09-2.79,0.31-5.57,0.56-8.35c0.17-1.99,0.12-2.15-1.99-2.26c-2.47-0.13-4.95-0.11-7.41-0.34
			c-1.31-0.12-1.77,0.42-1.94,1.53c-0.41,2.65-1.03,5.29-1.18,7.95c-0.1,1.76-0.93,2.94-2.08,4.04c2.85,3.09,6.08,5.37,9.45,7.51
			c3.5,2.22,7.46,2.72,11.4,2.95c1.69,0.1,3.61-0.73,5.13-1.63C297.68,490.88,299.6,489.14,302.13,487.21z M264.64,218.67
			c2.35-2.57,4.64-5.11,6.97-7.61c0.81-0.87,1.02-1.82,0.85-2.96c-0.41-2.75-0.74-5.52-1.15-8.27c-0.29-1.9-0.32-1.85-2.16-1.72
			c-2.46,0.17-4.93,0.26-7.4,0.36c-1.07,0.04-2.17-0.1-3.22,0.06c-0.49,0.07-1.2,0.56-1.32,1c-0.72,2.58-1.38,5.18-1.87,7.82
			c-0.16,0.87-0.09,2.13,0.43,2.72C258.46,213.09,261,216.32,264.64,218.67z M298.72,277.95c2.03,0.13,3.84,0.31,5.65,0.36
			c4.47,0.11,5.2,1.19,3.98-4.47c-1.4-6.49-2.81-12.98-4.34-19.44c-0.48-2.03-0.56-4.24-1.93-6.16
			C299.85,255.79,298.02,272.15,298.72,277.95z M225.19,254.22c-0.34,0.17-0.61,0.21-0.7,0.36c-0.43,0.74-0.81,1.51-1.19,2.27
			c-3.61,7.26-4.84,15.29-7.39,22.9c-0.5,1.48,0.05,2.03,1.67,1.71c2.52-0.5,4.97-1.31,7.48-1.81c1.35-0.27,1.7-0.91,1.74-2.18
			c0.18-6.12-0.21-12.21-0.83-18.29C225.8,257.53,225.46,255.9,225.19,254.22z M329.89,173.08c4.11-1.42,7.78-3.35,8.82-7.98
			c0.4-1.8,0.01-3.8-0.11-5.7c-0.18-3-1.96-4.87-4.51-6.16c-3.97-2.02-4.8-1.47-4.73,3.02c0.02,1.13,0.42,1.56,1.51,1.46
			c0.43-0.04,0.86-0.06,1.29-0.02c1.81,0.17,2.8,1.02,2.99,2.75c0.06,0.54-0.19,1.35-0.58,1.64c-0.66,0.49-1.05-0.16-1.44-0.73
			c-1.22-1.79-2.88-2.03-4.51-0.74c-1.21,0.95-2.28,4.84-1.66,6.24C327.83,168.79,328.77,170.7,329.89,173.08z M209.33,186.41
			c0.11-0.01,0.22-0.02,0.33-0.03c-0.28-2.22-0.47-4.46-0.87-6.66c-0.39-2.15-1.29-2.89-3.35-3.19c-1.99-0.29-3.05,0.3-3.05,2.25
			c0,3.58-0.73,7.01-1.48,10.46c-0.18,0.83-0.2,1.72-0.1,2.56c0.07,0.59,0.33,1.36,0.77,1.66c1.57,1.06,3.42,1.43,5.22,0.92
			c1.75-0.5,2.35-2.12,2.5-3.79C209.42,189.21,209.33,187.81,209.33,186.41z M324.98,168.62c-1.52,2.14-3.1,4.17-3.88,6.63
			c-0.55,1.73-0.9,3.53-1.21,5.33c-0.21,1.21-0.07,2.63,1.34,2.91c1.76,0.34,3.64,0.42,5.41,0.21c0.71-0.08,1.5-1.14,1.88-1.94
			c0.34-0.72,0.4-1.74,0.19-2.52c-0.88-3.3-1.9-6.57-2.91-9.84C325.72,169.15,325.36,168.98,324.98,168.62z"/>
		<path class="st0" d="M346.25,270c0-2.77,0.17-5.14-0.04-7.48c-0.36-4.16-0.94-8.3-1.46-12.45c-0.07-0.52-0.26-1.09-0.58-1.49
			c-0.29-0.37-0.81-0.68-1.27-0.75c-0.21-0.03-0.65,0.52-0.76,0.88c-0.19,0.6-0.26,1.26-0.28,1.9c-0.18,4.54-1.36,8.9-2.49,13.26
			c-1.39,5.34-4.86,9.25-8.7,12.93c-0.31,0.29-0.67,0.55-1.05,0.74c-1.53,0.77-2.35,0.4-2.73-1.33c-1.31-5.97-2.36-12.01-3.92-17.91
			c-1.82-6.84-3.68-13.72-6.28-20.29c-2.04-5.15-5.17-9.87-7.94-14.71c-0.72-1.25-1.35-2.36-1.22-3.86
			c0.14-1.65-0.75-2.89-2.12-3.72c-2.48-1.49-4.96-2.98-7.5-4.35c-4.08-2.21-8.33-4.01-13-4.54c-1.21-0.14-1.64-0.88-1.86-1.89
			c-0.61-2.88-1.78-5.51-3.79-8.18c1.13-0.34,2.07-0.68,3.04-0.9c3.66-0.83,7.33-1.64,11-2.41c6.39-1.34,11.74-4.7,16.71-8.71
			c2.58-2.08,5.01-4.35,7.79-6.79c0,1.39-0.03,2.53,0.01,3.66c0.09,2.38,1,3.57,3.35,4.01c1.57,0.3,3.2,0.46,4.8,0.42
			c2.66-0.06,4.46-1.72,4.71-4.37c0.15-1.59,0.03-3.22-0.15-4.81c-0.11-0.95,0.14-1.38,1.02-1.65c2.51-0.76,4.74-2,6.6-3.88
			c2.49-2.52,3.66-5.53,3.39-9.05c-0.1-1.39-0.27-2.79-0.53-4.15c-0.73-3.83-4.51-7.25-8.78-8.03c-2.59-0.47-2.67-0.47-2.67-3.1
			c-0.01-4.05-1.03-7.82-2.53-11.55c-1.8-4.48-3.08-9.17-4.95-13.62c-4.66-11.08-9.54-22.08-14.31-33.12
			c-0.45-1.04-1.19-2.04-0.84-3.46c3.09,0.32,5.9,1.24,8.66,2.39c0.89,0.37,1.73,0.87,2.63,1.23c0.73,0.29,1.7,1.09,2.14-0.05
			c0.17-0.44-0.6-1.55-1.21-1.95c-3.11-2.03-6.64-3.16-10.23-3.77c-4.43-0.75-8.93-1.2-13.42-1.42c-6.76-0.33-13.54-0.31-20.31-0.54
			c-1.81-0.06-3.62-0.44-5.41-0.75c-4.86-0.84-9.75-1.59-14.56-2.67c-2.37-0.53-4.66-1.58-6.89-2.62c-3.2-1.5-6.31-3.22-9.46-4.83
			c-0.86-0.44-1.78-0.77-2.62-1.24c-2.66-1.49-4.73-3.37-4.5-6.82c0.03-0.4-0.44-0.83-0.68-1.24c-0.39,0.29-0.91,0.51-1.14,0.9
			c-0.26,0.44-0.38,1.04-0.34,1.55c0.44,5.21-1.13,10.21-1.66,15.31c-0.41,3.94-1.17,7.85-1.65,11.78
			c-0.82,6.75-2.59,13.27-4.84,19.66c-2.89,8.21-5.75,16.43-8.84,24.56c-2.25,5.92-4.84,11.71-7.29,17.56
			c-0.46,1.09-0.97,2.16-1.52,3.2c-1.57,3.02-1.68,3.32-5.05,1.99c-8.67-3.42-14.69,0.45-17.54,9.25c-0.62,1.91-0.71,4.01-0.87,6.03
			c-0.3,3.77,1.42,6.63,4.37,8.83c4.33,3.23,9.19,3.93,14.68,2.91c-0.16,0.88-0.33,1.65-0.45,2.44c-0.23,1.58-0.57,3.17-0.61,4.76
			c-0.06,2.61,1.01,3.93,3.5,4.71c0.72,0.22,1.46,0.38,2.2,0.51c4.29,0.75,7.55-1.56,7.88-5.91c0.24-3.19,0.05-6.42,0.05-10.1
			c12.03,7.43,24.16,13.6,37.75,16.53c-0.16,0.22-0.28,0.54-0.51,0.67c-3.81,2.1-6.05,5.44-7.23,9.5c-0.45,1.56-1.28,2.15-2.77,2.61
			c-4.61,1.44-9.21,2.95-13.67,4.78c-2.24,0.92-4.18,2.58-6.25,3.92c-1.94,1.27-2.69,3.09-2.06,5.29c0.36,1.26,0.15,2.29-0.45,3.37
			c-3.9,7-6.24,14.61-8.67,22.18c-2.67,8.28-5.33,16.56-7.9,24.86c-0.71,2.3-2.14,2.58-3.87,1.28c-2.04-1.53-3.87-3.39-5.58-5.29
			c-1.43-1.59-2.6-3.42-3.79-5.21c-3.34-4.99-5.91-10.25-5.37-16.5c0.03-0.32,0.01-0.65,0.01-0.97c-0.03-1.06,0.22-2.38-1.13-2.7
			c-1.22-0.29-1.86,0.82-2.52,1.68c-2.55,3.33-3.44,7.14-3.12,11.23c0.36,4.68,0.86,9.34,1.34,14.44c-1.16-1-2.18-1.73-3.03-2.62
			c-4.33-4.58-6.85-10.09-8.26-16.17c-2.17-9.4-2.66-18.95-1.83-28.5c0.93-10.69,2.9-21.24,5.21-31.73
			c1.36-6.17,2.05-12.48,3.02-18.73c0.48-3.07,0.83-6.17,1.37-9.23c1.16-6.64,0.72-13.25-0.19-19.88
			c-0.66-4.78-1.51-9.57-1.68-14.37c-0.42-11.81-0.77-23.64-0.62-35.46c0.08-6.56,1.92-12.94,4.5-19.02
			c1.22-2.87,2.59-5.67,4.04-8.43c4.01-7.66,10.14-13.3,17.54-17.55c3.15-1.81,6.61-3.1,9.89-4.69c0.83-0.4,1.92-0.91,2.22-1.64
			c0.58-1.44,1.67-2.17,2.79-2.99c7.81-5.71,16.61-8.78,26.14-10.24c11.99-1.84,23.96-1.69,36-0.84c9.95,0.7,19.38,3.72,28.99,5.96
			c4.15,0.97,7.8,2.97,11.12,5.65c2.84,2.29,5.97,4.25,8.72,6.64c3.89,3.38,7.55,7.02,11.3,10.57c1.64,1.55,3.37,3.03,4.8,4.76
			c1.64,1.97,3.14,4.09,4.42,6.31c2.36,4.09,4.57,8.28,6.75,12.47c1.63,3.14,3.47,6.21,4.09,9.77c0.98,5.67,0.58,11.29-0.32,16.96
			c-1.1,6.89-3.9,13.14-6.54,19.48c-1.15,2.77-2.13,5.62-3.1,8.46c-0.27,0.78-0.6,1.93-0.24,2.45c1.6,2.29,1.09,4.97,1.66,7.43
			c1.59,6.87,1.23,13.87,1.33,20.85c0.08,5.9,0.26,11.82,0.7,17.7c0.24,3.19,1.03,6.34,1.72,9.48c1.18,5.45,2.85,10.82,3.64,16.32
			c1.14,7.95,2.77,15.85,2.59,23.97c-0.11,5.04,0.71,10.12,0.36,15.13C354.66,258.65,352.25,265,346.25,270z"/>
		<path class="st1" d="M191.63,171.95c0.32-0.17,0.72-0.24,0.84-0.46c1.29-2.32,3.39-2.41,5.62-2.06c2.21,0.34,4.61,1.92,6.51,4.25
			c-2.01,0.02-3.65,0.6-4.78,2.17c-0.6,0.83-0.9,1.49-0.24,2.59c1.43,2.41,0.81,3.57-1.89,3.83c-4.08,0.39-7.93-0.28-11.31-2.79
			c-2.42-1.8-3.69-4.13-3.47-7.2c0.21-2.93,0.81-5.76,2.36-8.28c2.99-4.87,6.14-5.99,11.79-4.45c2.96,0.8,5.37,2.65,7.34,5.04
			c0.61,0.74,1.25,1.48,1.97,2.11c0.25,0.22,0.89,0.26,1.17,0.08c0.26-0.17,0.48-0.82,0.35-1.09c-0.45-0.96-0.95-1.93-1.61-2.74
			c-0.94-1.16-2.04-2.19-3.16-3.37c3.03-3.8,4.7-8.23,6.53-12.56c2.88-6.83,6.06-13.55,8.57-20.51c3.45-9.59,7.54-18.99,9.42-29.08
			c0.96-5.16,1.64-10.37,2.39-15.57c0.61-4.22,1.14-8.46,1.72-12.8c5.53,2.93,11.04,5.79,16.49,8.75c3.38,1.84,7.11,2.39,10.79,3.08
			c4.01,0.76,8.02,1.49,12.04,2.14c1.9,0.31,3.83,0.51,5.75,0.58c7.74,0.25,15.48,0.42,23.22,0.64c0.86,0.02,1.72,0.11,2.57,0.2
			c0.81,0.08,1.27,0.47,1.61,1.3c2.63,6.35,5.34,12.66,8.01,18.98c2.79,6.63,5.66,13.23,8.32,19.91c1.98,4.99,3.86,10.03,5.46,15.15
			c1.29,4.12,1.72,8.45,1.16,12.75c-1.12,8.64-4.63,16.19-10.7,22.54c-4.48,4.69-9.27,8.97-14.85,12.31
			c-4.02,2.4-8.43,3.71-12.98,4.66c-4.41,0.92-8.8,1.95-13.23,2.76c-8.09,1.49-16.19,1.65-24.36,0.32
			c-5.57-0.9-10.83-2.74-16.05-4.67c-3.3-1.22-6.26-3.39-9.56-4.62c-4.21-1.56-7.73-4.19-11.43-6.54c-0.89-0.56-1.58-1.44-2.38-2.16
			c-0.78-0.7-1.6-1.37-2.36-2.09c-0.44-0.43-0.89-0.9-1.18-1.43c-2.43-4.44-6.45-6.5-11.21-7.21c-3.14-0.47-5.72,1.84-5.64,4.68
			C191.23,171.33,191.47,171.6,191.63,171.95z M271.02,186.62c0.75,0,1.52,0.11,2.25-0.02c2.87-0.49,5.8-0.99,7.76-3.45
			c2.44-3.05,4.28-6.39,5.13-10.27c1.05-4.81,2.23-9.6,3.4-14.39c0.62-2.56,1.37-5.08,4.64-5.4c0.2-0.02,0.39-0.18,0.58-0.27
			c0.75-0.34,1.34-0.82,0.99-1.72c-0.33-0.85-1.04-0.97-1.87-0.72c-1.53,0.47-3.13,0.8-4.6,1.42c-5.84,2.42-11.96,3.41-18.22,3.43
			c-3.32,0.01-6.63-0.39-9.95-0.59c-6.91-0.41-13.57-1.9-20.02-4.41c-2.11-0.82-4.26-1.5-5.65-3.49c-0.17-0.24-0.72-0.23-1.09-0.33
			c-0.1,0.39-0.38,0.84-0.28,1.17c0.59,1.87,1.96,3.19,3.75,3.71c2.83,0.82,3.77,2.96,4.36,5.43c1.51,6.21,3.99,11.99,7.3,17.45
			C254.42,182.25,261.6,186.37,271.02,186.62z M265.99,141.99c5.1-0.32,9.67-1.46,13.88-3.7c1.28-0.68,2.35-1.87,3.33-2.99
			c1.43-1.62,1.47-2.86,0.18-4.62c-1.39-1.9-2.86-3.76-4.4-5.54c-3.73-4.31-7.44-8.6-9.7-13.94c-0.66-1.56-1.73-2.95-2.67-4.39
			c-0.14-0.21-0.65-0.42-0.81-0.32c-0.33,0.2-0.72,0.57-0.76,0.92c-0.06,0.5,0.05,1.08,0.28,1.54c2.25,4.5,4.06,9.23,7.48,13.09
			c2.35,2.65,4.57,5.41,6.76,8.19c2.1,2.68,1.86,3.76-1.1,5.49c-0.92,0.54-1.93,0.98-2.96,1.23c-2.8,0.7-5.63,1.29-8.45,1.9
			c-0.63,0.13-1.32,0.05-1.89,0.29c-0.42,0.17-0.97,0.75-0.93,1.09c0.05,0.53,0.49,1.09,0.9,1.48
			C265.38,141.97,265.9,141.97,265.99,141.99z M252.98,114.61c-0.12-0.02-0.23-0.04-0.35-0.05c0-1.17,0.11-2.36-0.03-3.51
			c-0.18-1.57-1.17-2.69-2.23-2.79c-0.99-0.1-2.2,0.92-2.76,2.32c-0.04,0.1-0.06,0.2-0.09,0.31c-0.97,3.05-0.76,6.11,0.06,9.14
			c0.26,0.96,0.83,1.81,1.92,1.91c1.23,0.12,2.08-0.61,2.36-1.73C252.33,118.36,252.62,116.48,252.98,114.61z M278.86,114.59
			c0.23,1.51,0.44,3.08,0.73,4.64c0.23,1.24,0.91,2.19,2.25,2.37c1.15,0.15,2.22-0.71,2.64-2.3c0.79-2.96,0.57-5.9-0.39-8.8
			c-0.03-0.1-0.09-0.19-0.15-0.28c-0.55-0.84-1.2-1.49-2.3-1.47c-1.14,0.02-1.82,0.69-2.07,1.68
			C279.25,111.75,279.1,113.12,278.86,114.59z M251.26,88.38c-0.54-0.37-0.9-0.81-1.33-0.89c-1.35-0.25-2.52,0.24-3.52,1.15
			c-3.2,2.9-5.9,6.19-7.69,10.14c-0.43,0.95-0.71,2.04-0.71,3.07c0,0.57,0.71,1.14,1.1,1.71c0.32-0.5,0.72-0.96,0.96-1.49
			c2.19-5.07,4.86-9.72,10.03-12.38C250.53,89.47,250.78,88.93,251.26,88.38z M274.58,88.71c-0.42,0-0.68-0.08-0.84,0.02
			c-0.41,0.25-0.77,0.58-1.15,0.89c0.31,0.36,0.56,0.88,0.95,1.04c1.89,0.76,3.84,1.37,5.72,2.14c2.52,1.03,4.79,2.4,6.3,4.79
			c0.48,0.76,1.07,1.97,2.2,1.08c0.96-0.76,0.3-1.78-0.26-2.57c-0.55-0.79-1.1-1.62-1.81-2.24
			C282.43,91.04,278.41,89.87,274.58,88.71z"/>
		<path class="st12" d="M240.89,212.35c0,2.05,0.06,3.44-0.01,4.82c-0.17,3.58,0.51,7.04,1.26,10.51c0.66,3.05,2.28,5.55,4.1,7.94
			c1.37,1.79,3.18,2.2,5.14,0.99c1.8-1.12,3.59-2.43,4.98-4c2.13-2.41,3.9-5.12,5.85-7.69c0.43-0.57,0.94-1.09,1.5-1.75
			c0.59,2.57,0.8,126.33,0.23,131.98c-1.66-1.45-3.14-2.78-4.68-4.05c-1.81-1.5-3.52-3.2-5.54-4.38
			c-10.22-5.96-20.64-11.53-32.02-15.03c-0.51-0.16-1.02-0.34-1.54-0.46c-2.52-0.56-2.69-0.66-2.39-3.1
			c0.32-2.66,0.65-5.34,1.31-7.92c1.25-4.88,2.75-9.7,4.11-14.55c1.79-6.4,3.56-12.82,5.32-19.23c0.47-1.73-0.05-3.69,1.22-5.26
			c0.16-0.2,0.18-0.67,0.06-0.92c-0.96-1.95-0.48-4.03-0.47-6.03c0.05-8.61-0.94-17.13-2.54-25.56c-1.05-5.57-2.56-11.05-4.03-16.53
			c-0.67-2.47-1.68-4.87-2.7-7.23c-0.83-1.93-0.34-3.3,1.28-4.45c0.44-0.31,0.84-0.67,1.28-0.97
			C228.05,215.78,234.33,214.35,240.89,212.35z M261.68,327.14c0-1.19,0.05-1.63-0.01-2.05c-0.39-3.06-3.07-4.22-5.62-2.48
			c-1.64,1.12-2.39,2.74-2.64,4.58c-0.29,2.11,1.42,4.3,3.49,4.74c2.19,0.47,3.81-0.58,4.52-3.02
			C261.66,328.1,261.67,327.22,261.68,327.14z M260.45,270.51c0.06-2.2-0.73-3.69-2.64-4.52c-1.66-0.71-1.98-0.56-2.66,1.25
			c-0.18,0.47-0.44,0.94-0.77,1.32c-1.04,1.24-1.09,2.69-1.21,4.22c-0.18,2.34,2.57,4.01,4.81,2.48
			C259.7,274.08,260.53,272.43,260.45,270.51z M260.9,298.02c0.04-2.04-0.97-3.82-2.4-4.43c-1.24-0.53-2.78-0.24-3.09,0.77
			c-0.56,1.83-1.01,3.72-1.29,5.61c-0.16,1.06,0.19,2.15,1.28,2.75c1.04,0.56,2.62,0.31,3.59-0.58
			C260.25,300.99,260.74,299.48,260.9,298.02z M257.07,248.1c2.99,0.03,5.52-2.76,5.22-5.69c-0.14-1.39-0.98-2.1-2.15-2.52
			c-1.09-0.39-2.26-0.95-3.3,0.09c-1.48,1.47-2.57,3.14-2.49,5.36C254.41,247.32,255.13,248.08,257.07,248.1z"/>
		<path class="st12" d="M266.3,357.5c0-43.88,0-87.05,0-130.64c2.53,3.05,4.83,5.81,7.13,8.57c0.76,0.91,1.46,1.87,2.32,2.68
			c1.8,1.7,3.75,1.55,5.21-0.46c2.47-3.4,3.64-7.33,3.89-11.44c0.34-5.67,0.48-11.35-0.48-17.2c0.59-0.05,1.14-0.25,1.58-0.12
			c4.71,1.49,9.4,3.02,13.42,6.08c1.09,0.83,2.44,1.32,3.68,1.96c2.38,1.24,2.68,1.73,1.91,4.28c-3.17,10.51-4.46,21.4-6.58,32.12
			c-1.36,6.86-1.71,13.82-2.42,20.75c-0.51,4.99,0.7,9.81,1.45,14.68c1.38,8.94,4.19,17.5,6.87,26.1c1.02,3.28,2.1,6.55,2.83,9.89
			c0.45,2.07,0.28,4.26,0.4,6.4c0.06,1.04-0.65,1.52-1.4,1.97c-1.85,1.1-3.69,2.2-5.54,3.3c-8.76,5.23-17.53,10.44-26.25,15.72
			C271.77,353.72,269.34,355.48,266.3,357.5z"/>
		<path class="st13" d="M221.22,334.24c1.07,0.26,2.14,0.39,3.09,0.78c4.36,1.8,8.76,3.54,13.02,5.57
			c4.46,2.12,8.77,4.54,13.14,6.83c0.57,0.3,1.16,0.57,1.72,0.89c4.42,2.49,4.65,2.69,4.19,7.82c-0.83,9.12-0.63,18.24-0.43,27.36
			c0.12,5.47,0.27,10.95,0.56,16.42c0.19,3.64,0.7,7.25,1.01,10.89c0.31,3.63,0.75,7.27,0.76,10.91c0.02,6.47,1.34,12.79,1.86,19.19
			c0.59,7.26,2.42,14.4,2.17,21.75c-0.01,0.32,0.03,0.64,0.06,0.96c0.33,3.35,0.34,3.3-2.91,3.21c-4.07-0.1-8.14-0.12-12.22-0.16
			c-1.02-0.01-1.48-0.42-1.73-1.46c-3.29-13.54-6.69-27.05-9.92-40.6c-1.86-7.81-3.53-15.67-5.2-23.53
			c-1.98-9.32-3.99-18.64-5.73-28.01c-0.88-4.73-1.19-9.56-1.73-14.36c-0.59-5.33-1.24-10.65-1.68-15.99
			C221.03,339.98,221.22,337.2,221.22,334.24z"/>
		<path class="st13" d="M306.56,335.82c-0.38,8.6-0.54,16.74-1.16,24.85c-0.39,5.22-1.43,10.4-2.19,15.59
			c-1.17,7.95-2.41,15.89-3.52,23.85c-1.53,11.05-3.5,22.01-5.93,32.9c-1.16,5.21-1.81,10.56-2.4,15.88
			c-0.62,5.54-0.9,11.12-1.3,16.68c-0.08,1.14-0.54,1.76-1.71,1.93c-2.65,0.39-5.28,1-7.98,0.23c-0.81-0.23-1.71-0.15-2.57-0.17
			c-1.07-0.03-2.15,0-3.23-0.04c-5.65-0.22-6.26-0.82-5.75-6.4c0.48-5.34,1.2-10.65,1.72-15.98c0.34-3.52,0.41-7.07,0.79-10.59
			c0.9-8.25,0.53-16.52,0.67-24.78c0.18-10.52,0.55-21.04,0.52-31.56c-0.02-5.99-0.61-11.99-1.12-17.97
			c-0.17-2.04,0.22-3.51,2.02-4.62c3.65-2.26,7.23-4.64,10.88-6.91c4.2-2.61,8.4-5.2,12.67-7.68
			C300.03,339.23,303.18,337.64,306.56,335.82z"/>
		<path class="st1" d="M307.2,224.76c0.61,0.97,1.27,1.92,1.83,2.92c6.71,12.04,10.56,25.07,13.28,38.48
			c0.85,4.2,1.85,8.38,2.66,12.59c0.89,4.63,1.68,9.27,2.44,13.92c0.62,3.81,1.2,7.63,1.68,11.45c0.43,3.4,0.79,6.82,1,10.24
			c0.27,4.29,0.37,8.59,0.52,12.88c0.08,2.15,0.32,4.32,0.11,6.44c-0.31,3.23-0.08,6.16,2.6,8.42c3.46,6.53,7.88,12.64,9.39,20.03
			c0.7,3.44,0.67,7.04,0.86,10.57c0.06,1.03-0.75,1.47-1.76,1.23c-1.45-0.34-2.24-1.66-2.2-3.35c0.09-3.54,0.11-7.09,0.14-10.63
			c0-0.53,0.03-1.13-0.2-1.58c-0.2-0.4-0.71-0.74-1.15-0.87c-0.17-0.05-0.67,0.5-0.77,0.85c-0.15,0.49-0.14,1.06-0.06,1.57
			c0.69,4.64,0.07,9.21-0.6,13.78c-0.34,2.33-0.66,4.67-1.14,6.98c-0.21,1.03-0.72,2.02-1.24,2.94c-0.2,0.35-0.8,0.47-1.66,0.93
			c0.25-1.38,0.35-2.32,0.59-3.21c1.46-5.26,1.29-10.64,1.23-16.01c0-0.32,0.04-0.69-0.1-0.95c-0.22-0.42-0.58-0.78-0.87-1.16
			c-0.32,0.39-0.89,0.77-0.92,1.18c-0.14,1.82-0.19,3.65-0.16,5.47c0.09,5.2-0.82,10.25-2.13,15.25c-0.27,1.03-0.65,2.06-1.13,3.01
			c-0.82,1.61-1.41,1.79-3.79,1.46c0.19-0.52,0.34-1.02,0.56-1.49c1.37-2.98,1.88-6.13,1.96-9.39c0.11-4.4,0.37-8.8,0.42-13.2
			c0.02-1.8-0.3-3.62-0.55-5.41c-0.04-0.26-0.57-0.53-0.93-0.63c-0.13-0.03-0.53,0.41-0.57,0.67c-0.14,0.84-0.23,1.7-0.25,2.55
			c-0.1,4.94-0.06,9.89-0.29,14.83c-0.13,2.66-0.51,5.34-1.16,7.92c-0.31,1.21-1.52,2.2-2.32,3.28c-1.67-0.87-1.44-2.46-1.46-3.93
			c-0.03-2.58-0.14-5.17,0.02-7.74c0.28-4.46-0.44-8.78-1.52-13.05c-0.35-1.4-1.2-2.7-1.96-3.96c-0.15-0.25-0.93-0.11-1.42-0.15
			c0.03,0.38-0.09,0.88,0.11,1.1c1.19,1.37,0.91,2.74,0.21,4.19c-0.66,1.35-1.15,2.78-1.84,4.12c-0.72,1.39-1.75,1.46-2.77,0.26
			c-0.97-1.14-1.14-2.49-1.04-3.94c0.41-5.93,1.58-11.68,3.98-17.14c1.54-3.5,3.56-6.63,6.93-8.63c0.89-0.53,1.16-1.16,0.99-2.12
			c-1.41-8.02-2.26-16.13-4.39-24.03c-0.8-2.98-0.9-6.15-1.51-9.19c-0.87-4.31-1.88-8.59-2.9-12.87c-1.2-5-2.18-10.03-3.01-15.12
			c-1.12-6.87-2.9-13.63-4.41-20.44c-0.86-3.88-1.71-7.74-3.29-11.43c-0.54-1.28-0.42-2.99-0.17-4.43c0.66-3.8,1.54-7.55,2.37-11.32
			c0.3-1.35,0.71-2.67,1.07-4C306.75,224.88,306.98,224.82,307.2,224.76z"/>
		<path class="st1" d="M207.8,352.71c-1.58,3.36-2.98,6.83-3.59,10.51c-1.15,6.84-0.83,13.68,0.31,20.51c0.28,1.66,0.1,3.4-0.01,5.1
			c-0.03,0.4-0.6,1-1,1.07c-0.36,0.06-0.96-0.39-1.22-0.77c-1.32-1.91-1.74-4.12-1.94-6.39c-0.45-5.02-0.91-10.03-1.4-15.05
			c-0.08-0.82-0.02-2.03-1.11-2.02c-1.19,0.02-0.96,1.31-0.91,2.05c0.31,4.39,0.67,8.77,1.11,13.14c0.32,3.2,0.57,6.43,2.17,9.34
			c0.1,0.18-0.08,0.69-0.26,0.79c-0.22,0.11-0.73,0.05-0.86-0.13c-0.9-1.18-2.01-2.3-2.55-3.64c-1.8-4.49-3.08-9.14-3.37-14.02
			c-0.12-2.03-0.38-4.06-0.66-6.08c-0.09-0.61-0.44-1.18-0.73-1.74c-0.07-0.14-0.42-0.28-0.54-0.22c-0.25,0.12-0.58,0.35-0.63,0.58
			c-0.09,0.52-0.08,1.07-0.02,1.6c0.56,5.22,0.72,10.5,2.39,15.55c0.3,0.9,0.39,1.9,0.35,2.85c-0.02,0.4-0.56,0.99-0.96,1.1
			c-0.39,0.1-1.02-0.2-1.36-0.52c-0.37-0.35-0.62-0.89-0.78-1.39c-1.12-3.47-2.41-6.89-2.25-10.64c0.08-1.82,0.05-3.66-0.03-5.48
			c-0.15-3.26,0.17-6.43,1.42-9.48c0.12-0.3,0.31-0.61,0.29-0.91c-0.03-0.57-0.02-1.47-0.33-1.63c-0.95-0.48-1.36,0.4-1.55,1.11
			c-0.63,2.37-1.19,4.77-1.74,7.16c-0.1,0.41-0.09,0.86-0.05,1.29c0.12,1.36-0.28,2.45-1.18,3.53c-0.8,0.97-1.21,2.26-1.84,3.38
			c-0.39,0.7-1.16,0.7-1.42-0.04c-0.28-0.78-0.53-1.67-0.43-2.47c0.29-2.23,0.53-4.52,1.24-6.63c1.98-5.9,4.02-11.79,6.39-17.54
			c1.26-3.04,3.19-5.82,4.94-8.64c0.55-0.88,0.88-1.6,0.63-2.66c-0.24-1.03-0.27-2.12-0.27-3.18c-0.04-7.85,0.81-15.64,1.7-23.42
			c0.97-8.53,2.01-17.06,4.34-25.33c2.77-9.81,5.86-19.52,8.86-29.26c1.58-5.13,3.21-10.24,4.94-15.32c0.9-2.64,2.04-5.2,3.11-7.77
			c0.31-0.75,0.79-1.43,1.32-2.38c1.56,1.85,1.95,3.89,2.41,5.8c1.11,4.58,1.91,9.24,3,13.83c0.37,1.55-0.22,2.72-0.75,3.99
			c-1.6,3.86-3.6,7.61-4.77,11.6c-4.19,14.41-8.55,28.77-11.32,43.56c-1.71,9.13-2.62,18.26-1.95,27.54c0.09,1.31,0.19,2.3,1.7,3.08
			c1.44,0.74,2.49,2.3,3.59,3.6c2.82,3.34,4.74,7.12,5.6,11.45c0.61,3.04,1.46,6.04,2.16,9.06c0.38,1.65-0.08,3.2-0.84,4.66
			c-0.51,0.97-1.32,1.15-2.11,0.43c-2.31-2.11-4.36-4.46-5.63-7.37c-0.86-1.95-1.63-3.93-0.71-6.12c0.09-0.22-0.16-0.58-0.26-0.88
			C208.24,352.79,208.02,352.75,207.8,352.71z"/>
		<path class="st14" d="M240.45,510.77c-7.36-0.25-13.92-0.29-20.44-0.76c-4.8-0.35-9.58-1.13-14.31-2.01
			c-3.75-0.7-4.36-2.26-2.74-5.72c0.87-1.87,2.08-3.45,3.7-4.79c3.1-2.57,6.57-4.48,10.26-5.97c1.44-0.58,3.13-0.8,4.71-0.77
			c4.97,0.09,9.57,1.14,12.81,5.47c1.65,2.2,4.01,3.18,6.79,2.94c1.91-0.16,3.84-0.29,5.73-0.6c3.59-0.59,7.19-1.19,10.73-2.01
			c3.12-0.72,6.18-1.69,9.24-2.66c0.86-0.27,1.39-0.31,1.82,0.57c1.88,3.88,2.21,8.02,2.02,12.24c-0.04,0.85-0.52,1.34-1.39,1.51
			c-1.68,0.34-3.33,0.88-5.03,1.08c-2.98,0.36-5.97,0.6-8.97,0.77C250.14,510.36,244.89,510.57,240.45,510.77z"/>
		<path class="st14" d="M313.97,508.34c-8.15-0.27-16.31-0.51-24.46-0.82c-4.72-0.18-9.43-0.47-14.15-0.72
			c-1.92-0.1-2.03-0.12-2.01-2.03c0.04-5.64-1.45-10.79-4.63-15.47c-0.66-0.97-1.15-2.06-1.61-3.14c-0.12-0.28,0.09-0.91,0.35-1.09
			c0.26-0.17,0.86-0.11,1.14,0.09c0.69,0.5,1.26,1.17,1.93,1.7c2.34,1.88,4.65,3.8,7.06,5.59c3.41,2.54,7.47,3.1,11.55,3.46
			c3.61,0.32,6.75-0.93,9.58-3.08c1.88-1.43,3.73-2.9,5.62-4.3c1.17-0.87,2.39-1.05,3.92-0.67c5.07,1.27,9.69,3.45,14.02,6.3
			c3.65,2.4,5.45,6.01,6.39,10.08c0.62,2.71,0,3.45-2.77,3.79c-1.38,0.17-2.79,0.19-4.18,0.21c-2.58,0.03-5.16,0.01-7.74,0.01
			C313.97,508.27,313.97,508.31,313.97,508.34z"/>
		<path class="st1" d="M225.1,488.25c2.87-0.66,5.74-1.37,8.62-1.97c3.46-0.71,6.97-1.23,10.41-2.02c1.75-0.41,3.41-1.24,5.11-1.88
			c1.32-0.49,1.7-1.42,1.53-2.8c-0.33-2.66-0.57-5.33-0.76-8c-0.2-2.75-0.15-2.76,2.72-2.77c1.83-0.01,3.66-0.04,5.48,0.08
			c1.74,0.12,2.01,0.44,2.06,2.2c0.08,3.01,0.15,6.01,0.1,9.02c-0.04,2.19,0.69,3.89,2.27,5.44c1.36,1.34,2.41,2.99,3.55,4.54
			c0.67,0.91,0.36,1.64-0.66,2c-1.82,0.64-3.62,1.39-5.5,1.79c-5.24,1.14-10.5,2.22-15.78,3.14c-3.56,0.62-6.83,0.13-9.18-3.14
			c-1.85-2.57-4.62-3.75-7.63-4.42c-0.78-0.17-1.55-0.39-2.33-0.58C225.11,488.68,225.1,488.47,225.1,488.25z"/>
		<path class="st12" d="M242.59,216.72c0.26-3.75,0.82-7.31,2.34-10.7c1.28-2.83,3.29-4.99,5.91-6.6c0.72-0.44,1.54-0.73,2.36-0.97
			c0.9-0.26,1.48,0.06,1.38,1.11c-0.05,0.53-0.1,1.07-0.22,1.59c-0.37,1.67-0.75,3.34-1.19,4.99c-0.13,0.46-0.42,0.96-0.79,1.27
			c-1.32,1.11-1.43,1.16-0.33,2.3c3.03,3.15,6.11,6.26,9.21,9.33c1.58,1.56,1.57,1.48,0.19,3.31c-1.94,2.56-3.66,5.29-5.73,7.74
			c-1.43,1.69-3.17,3.16-4.97,4.47c-1.35,0.98-1.93,0.76-2.96-0.62c-1.73-2.33-3.24-4.77-3.65-7.76
			C243.7,223.01,243.11,219.87,242.59,216.72z"/>
		<path class="st12" d="M282.84,219.32c0.38,5.24-0.26,9.88-2.1,14.33c-1.75,4.22-2.51,4.34-5.39,0.71
			c-2.67-3.36-5.39-6.69-7.91-10.15c-1.83-2.52-1.74-3.03,0.25-5.34c1.75-2.03,3.61-3.98,5.48-5.91c1.21-1.25,1.73-2.68,1.55-4.39
			c-0.33-3.09-0.63-6.19-0.99-9.28c-0.16-1.36,0.3-2.1,1.55-1.95c0.69,0.08,1.54,0.41,1.94,0.92c1.03,1.35,2.21,2.75,2.67,4.33
			C281.5,208.2,283.77,213.73,282.84,219.32z"/>
		<path class="st1" d="M302.13,487.21c-2.53,1.92-4.45,3.67-6.64,4.96c-1.52,0.9-3.44,1.72-5.13,1.63c-3.94-0.22-7.9-0.73-11.4-2.95
			c-3.37-2.14-6.6-4.43-9.45-7.51c1.14-1.11,1.98-2.28,2.08-4.04c0.15-2.66,0.76-5.3,1.18-7.95c0.17-1.11,0.63-1.65,1.94-1.53
			c2.46,0.23,4.94,0.21,7.41,0.34c2.11,0.11,2.17,0.27,1.99,2.26c-0.24,2.78-0.46,5.56-0.56,8.35c-0.09,2.71,0.21,3.05,2.99,3.57
			c4.64,0.86,9.29,1.64,13.94,2.46C300.79,486.84,301.09,486.94,302.13,487.21z"/>
		<path class="st1" d="M264.64,218.67c-3.64-2.35-6.17-5.58-8.87-8.61c-0.52-0.59-0.6-1.85-0.43-2.72c0.49-2.63,1.15-5.24,1.87-7.82
			c0.12-0.44,0.83-0.93,1.32-1c1.05-0.15,2.14-0.02,3.22-0.06c2.47-0.1,4.94-0.19,7.4-0.36c1.83-0.13,1.87-0.18,2.16,1.72
			c0.42,2.75,0.75,5.52,1.15,8.27c0.17,1.14-0.05,2.09-0.85,2.96C269.28,213.56,266.98,216.1,264.64,218.67z"/>
		<path class="st0" d="M298.72,277.95c-0.7-5.8,1.14-22.16,3.35-29.72c1.37,1.92,1.45,4.13,1.93,6.16
			c1.53,6.46,2.94,12.95,4.34,19.44c1.22,5.66,0.49,4.58-3.98,4.47C302.56,278.26,300.75,278.09,298.72,277.95z"/>
		<path class="st0" d="M225.19,254.22c0.27,1.68,0.61,3.31,0.78,4.96c0.62,6.08,1,12.17,0.83,18.29c-0.04,1.28-0.39,1.91-1.74,2.18
			c-2.51,0.5-4.97,1.31-7.48,1.81c-1.62,0.32-2.16-0.23-1.67-1.71c2.55-7.61,3.78-15.64,7.39-22.9c0.38-0.77,0.77-1.53,1.19-2.27
			C224.57,254.43,224.85,254.39,225.19,254.22z"/>
		<path class="st1" d="M329.89,173.08c-1.13-2.38-2.07-4.29-2.94-6.23c-0.63-1.4,0.45-5.29,1.66-6.24c1.63-1.29,3.29-1.05,4.51,0.74
			c0.39,0.57,0.78,1.22,1.44,0.73c0.4-0.29,0.64-1.1,0.58-1.64c-0.19-1.73-1.19-2.58-2.99-2.75c-0.42-0.04-0.86-0.02-1.29,0.02
			c-1.09,0.1-1.49-0.33-1.51-1.46c-0.07-4.49,0.75-5.04,4.73-3.02c2.55,1.3,4.32,3.17,4.51,6.16c0.12,1.9,0.51,3.9,0.11,5.7
			C337.68,169.73,334,171.66,329.89,173.08z"/>
		<path class="st14" d="M209.33,186.41c0,1.39,0.09,2.79-0.02,4.18c-0.14,1.67-0.75,3.29-2.5,3.79c-1.8,0.52-3.65,0.14-5.22-0.92
			c-0.44-0.3-0.7-1.07-0.77-1.66c-0.1-0.84-0.08-1.73,0.1-2.56c0.74-3.45,1.48-6.88,1.48-10.46c0-1.95,1.06-2.54,3.05-2.25
			c2.06,0.3,2.96,1.05,3.35,3.19c0.4,2.2,0.59,4.44,0.87,6.66C209.55,186.4,209.44,186.4,209.33,186.41z"/>
		<path class="st14" d="M324.98,168.62c0.39,0.36,0.75,0.53,0.82,0.78c1.01,3.27,2.02,6.54,2.91,9.84c0.21,0.78,0.15,1.8-0.19,2.52
			c-0.38,0.79-1.17,1.85-1.88,1.94c-1.78,0.21-3.65,0.13-5.41-0.21c-1.4-0.27-1.54-1.7-1.34-2.91c0.31-1.79,0.65-3.6,1.21-5.33
			C321.88,172.8,323.45,170.77,324.98,168.62z"/>
		<path d="M271.02,186.62c-9.42-0.25-16.6-4.37-21.5-12.45c-3.31-5.45-5.8-11.24-7.3-17.45c-0.6-2.47-1.54-4.61-4.36-5.43
			c-1.8-0.52-3.16-1.83-3.75-3.71c-0.1-0.33,0.17-0.78,0.28-1.17c0.37,0.1,0.92,0.08,1.09,0.33c1.39,2,3.54,2.67,5.65,3.49
			c6.45,2.51,13.11,4,20.02,4.41c3.32,0.2,6.63,0.6,9.95,0.59c6.26-0.02,12.38-1.01,18.22-3.43c1.48-0.61,3.07-0.94,4.6-1.42
			c0.82-0.25,1.54-0.13,1.87,0.72c0.34,0.9-0.24,1.39-0.99,1.72c-0.2,0.09-0.38,0.25-0.58,0.27c-3.27,0.32-4.02,2.83-4.64,5.4
			c-1.17,4.79-2.35,9.58-3.4,14.39c-0.85,3.88-2.69,7.23-5.13,10.27c-1.96,2.45-4.89,2.96-7.76,3.45
			C272.54,186.72,271.77,186.62,271.02,186.62z M243.77,153.88c2.44,8.28,4.64,13.32,7.69,18.46c0.81,1.37,1.68,1.7,3.14,1.42
			c5.54-1.06,11.13-0.46,16.71-0.35c0.52,0.01,1.04,0.23,1.56,0.38c2.27,0.62,4.54,1.28,6.82,1.87c2.41,0.62,2.67,0.46,3.29-2.04
			c1.31-5.3,2.6-10.61,3.89-15.92c0.16-0.67,0.28-1.36,0.46-2.23c-1.27,0.28-2.2,0.6-3.14,0.68c-2,0.18-3.05,1.06-3.87,3.05
			c-2.12,5.16-7.01,8.17-12.27,7.58c-7.25-0.81-13.38-3.71-17.3-10.26c-0.29-0.49-0.84-0.99-1.36-1.15
			C247.67,154.82,245.9,154.43,243.77,153.88z M254.22,176.02c0.58,0.79,0.83,1.26,1.2,1.61c5.43,5.18,11.91,7,19.27,6.01
			c2.43-0.33,4.07-1.72,5.29-3.79c0.65-1.11,0.2-1.6-0.78-1.87c-2.68-0.74-5.35-1.71-8.08-2.05c-3.82-0.48-7.7-0.56-11.56-0.62
			C257.9,175.28,256.24,175.73,254.22,176.02z M253.37,156.37c2.21,2.84,6.17,5.79,9.46,6.75c2.23,0.65,4.61,1.07,6.93,1.07
			c3.81,0,7.12-2.99,8.13-6.95C269.82,158.71,261.88,157.2,253.37,156.37z"/>
		<path d="M265.99,141.99c-0.09-0.02-0.61-0.02-0.88-0.28c-0.41-0.4-0.85-0.96-0.9-1.48c-0.04-0.34,0.52-0.92,0.93-1.09
			c0.57-0.24,1.27-0.15,1.89-0.29c2.82-0.61,5.65-1.2,8.45-1.9c1.03-0.26,2.04-0.7,2.96-1.23c2.96-1.73,3.2-2.8,1.1-5.49
			c-2.18-2.79-4.41-5.54-6.76-8.19c-3.41-3.85-5.23-8.59-7.48-13.09c-0.23-0.45-0.34-1.04-0.28-1.54c0.04-0.34,0.43-0.72,0.76-0.92
			c0.16-0.09,0.67,0.11,0.81,0.32c0.93,1.44,2.01,2.83,2.67,4.39c2.26,5.34,5.97,9.63,9.7,13.94c1.54,1.78,3.01,3.64,4.4,5.54
			c1.29,1.77,1.26,3-0.18,4.62c-0.98,1.11-2.05,2.3-3.33,2.99C275.66,140.54,271.09,141.67,265.99,141.99z"/>
		<path d="M252.98,114.61c-0.36,1.87-0.64,3.75-1.11,5.59c-0.28,1.12-1.13,1.85-2.36,1.73c-1.09-0.1-1.66-0.95-1.92-1.91
			c-0.83-3.03-1.03-6.09-0.06-9.14c0.03-0.1,0.05-0.21,0.09-0.31c0.56-1.4,1.77-2.42,2.76-2.32c1.06,0.1,2.05,1.22,2.23,2.79
			c0.13,1.16,0.03,2.34,0.03,3.51C252.74,114.57,252.86,114.59,252.98,114.61z"/>
		<path d="M278.86,114.59c0.24-1.47,0.39-2.85,0.72-4.17c0.25-0.99,0.93-1.66,2.07-1.68c1.11-0.02,1.76,0.64,2.3,1.47
			c0.06,0.09,0.12,0.18,0.15,0.28c0.96,2.9,1.18,5.84,0.39,8.8c-0.42,1.59-1.5,2.46-2.64,2.3c-1.35-0.18-2.02-1.12-2.25-2.37
			C279.3,117.67,279.09,116.1,278.86,114.59z"/>
		<path d="M251.26,88.38c-0.48,0.56-0.74,1.09-1.16,1.31c-5.17,2.66-7.84,7.31-10.03,12.38c-0.23,0.54-0.63,1-0.96,1.49
			c-0.39-0.57-1.1-1.14-1.1-1.71c0-1.03,0.28-2.12,0.71-3.07c1.79-3.96,4.49-7.25,7.69-10.14c1.01-0.91,2.18-1.4,3.52-1.15
			C250.36,87.57,250.73,88,251.26,88.38z"/>
		<path d="M274.58,88.71c3.83,1.16,7.86,2.32,11.11,5.14c0.72,0.62,1.26,1.45,1.81,2.24c0.56,0.79,1.22,1.81,0.26,2.57
			c-1.13,0.89-1.71-0.32-2.2-1.08c-1.52-2.39-3.79-3.76-6.3-4.79c-1.88-0.77-3.83-1.38-5.72-2.14c-0.39-0.16-0.64-0.68-0.95-1.04
			c0.38-0.3,0.74-0.63,1.15-0.89C273.9,88.63,274.16,88.71,274.58,88.71z"/>
		<path d="M261.68,327.14c-0.01,0.08-0.02,0.96-0.25,1.77c-0.7,2.44-2.33,3.49-4.52,3.02c-2.07-0.44-3.78-2.64-3.49-4.74
			c0.25-1.84,1-3.46,2.64-4.58c2.54-1.74,5.23-0.58,5.62,2.48C261.73,325.51,261.68,325.94,261.68,327.14z M259.19,326.67
			c0-1.58-0.87-2.31-1.92-1.72c-0.93,0.52-1.67,2.14-1.18,3.03c0.32,0.57,1.01,1.17,1.62,1.3c0.92,0.19,1.2-0.68,1.34-1.45
			C259.12,327.41,259.15,326.98,259.19,326.67z"/>
		<path d="M260.45,270.51c0.09,1.92-0.74,3.58-2.47,4.75c-2.24,1.52-4.99-0.14-4.81-2.48c0.12-1.52,0.17-2.98,1.21-4.22
			c0.32-0.39,0.59-0.85,0.77-1.32c0.69-1.81,1.01-1.97,2.66-1.25C259.72,266.81,260.51,268.31,260.45,270.51z M256.25,274
			c0.73-0.86,1.43-1.49,1.86-2.27c0.39-0.71,0.62-1.66-0.26-2.25c-0.59-0.39-1.99,0.32-2.29,1.2c-0.23,0.67-0.28,1.43-0.24,2.14
			C255.35,273.13,255.78,273.42,256.25,274z"/>
		<path d="M260.9,298.02c-0.16,1.45-0.65,2.96-1.91,4.12c-0.98,0.89-2.55,1.15-3.59,0.58c-1.09-0.59-1.44-1.68-1.28-2.75
			c0.28-1.89,0.73-3.78,1.29-5.61c0.31-1.02,1.85-1.31,3.09-0.77C259.93,294.21,260.94,295.98,260.9,298.02z M256.73,300.72
			c1.7-0.77,1.81-2.09,1.6-3.51c-0.03-0.23-0.36-0.56-0.59-0.59c-0.23-0.02-0.6,0.21-0.73,0.43
			C256.35,298.18,256.25,299.37,256.73,300.72z"/>
		<path d="M257.07,248.1c-1.94-0.02-2.66-0.78-2.73-2.75c-0.08-2.23,1.02-3.89,2.49-5.36c1.04-1.04,2.21-0.48,3.3-0.09
			c1.17,0.42,2.01,1.13,2.15,2.52C262.59,245.33,260.06,248.13,257.07,248.1z M256.98,245.9c1.44,0.08,3.1-1.33,3.17-2.52
			c0.02-0.34-0.48-0.95-0.83-1.02c-1.5-0.32-3.08,1.51-2.65,2.98C256.76,245.62,256.97,245.87,256.98,245.9z"/>
		<path class="st10" d="M243.77,153.88c2.14,0.55,3.9,0.93,5.62,1.47c0.53,0.17,1.07,0.66,1.36,1.15
			c3.92,6.55,10.05,9.45,17.3,10.26c5.26,0.58,10.15-2.42,12.27-7.58c0.82-1.99,1.87-2.87,3.87-3.05c0.95-0.08,1.87-0.4,3.14-0.68
			c-0.18,0.88-0.29,1.56-0.46,2.23c-1.29,5.31-2.57,10.62-3.89,15.92c-0.62,2.5-0.88,2.66-3.29,2.04c-2.28-0.58-4.55-1.24-6.82-1.87
			c-0.52-0.14-1.04-0.37-1.56-0.38c-5.57-0.11-11.17-0.71-16.71,0.35c-1.46,0.28-2.33-0.05-3.14-1.42
			C248.41,167.2,246.21,162.16,243.77,153.88z"/>
		<path class="st11" d="M254.22,176.02c2.01-0.29,3.67-0.74,5.32-0.71c3.86,0.06,7.74,0.14,11.56,0.62c2.74,0.34,5.4,1.32,8.08,2.05
			c0.98,0.27,1.43,0.76,0.78,1.87c-1.22,2.07-2.86,3.46-5.29,3.79c-7.36,0.99-13.84-0.83-19.27-6.01
			C255.05,177.28,254.8,176.8,254.22,176.02z"/>
		<path class="st5" d="M253.37,156.37c8.51,0.83,16.45,2.34,24.51,0.86c-1,3.96-4.32,6.95-8.13,6.95c-2.31,0-4.7-0.42-6.93-1.07
			C259.54,162.16,255.59,159.22,253.37,156.37z"/>
		<path class="st5" d="M259.19,326.67c-0.04,0.31-0.07,0.74-0.14,1.16c-0.14,0.77-0.42,1.64-1.34,1.45c-0.62-0.13-1.3-0.73-1.62-1.3
			c-0.49-0.88,0.25-2.51,1.18-3.03C258.32,324.36,259.19,325.08,259.19,326.67z"/>
		<path class="st5" d="M256.25,274c-0.47-0.58-0.91-0.87-0.92-1.18c-0.04-0.71,0.01-1.47,0.24-2.14c0.3-0.88,1.69-1.59,2.29-1.2
			c0.88,0.59,0.65,1.54,0.26,2.25C257.68,272.51,256.98,273.14,256.25,274z"/>
		<path class="st5" d="M256.73,300.72c-0.48-1.35-0.38-2.54,0.29-3.67c0.13-0.22,0.5-0.46,0.73-0.43c0.22,0.02,0.55,0.35,0.59,0.59
			C258.54,298.62,258.43,299.94,256.73,300.72z"/>
		<path class="st5" d="M256.98,245.9c-0.02-0.03-0.23-0.27-0.31-0.56c-0.43-1.48,1.15-3.3,2.65-2.98c0.35,0.07,0.85,0.68,0.83,1.02
			C260.09,244.57,258.43,245.97,256.98,245.9z"/>
	</g>
</g>
<g id="Capa_2" class="st17">
</g>
</svg>
