<svg clip-rule="evenodd" fill-rule="evenodd" viewBox="0 0 870 604" xmlns="http://www.w3.org/2000/svg"><path d="m0-18.106c-4.227 0-7.654 3.427-7.654 7.654v2.799c0 4.227 3.427 7.653 7.654 7.653h134.95c4.227 0 7.654-3.426 7.654-7.653v-2.799c0-4.227-3.427-7.654-7.654-7.654z" fill="#f2f8ee" fill-rule="nonzero" transform="matrix(5.55556 0 0 5.55556 67.032 593.2)"/><path d="m.653-.225c-.016.027-.085.135-.228.135-.156 0-.268-.127-.268-.281 0-.15.11-.279.267-.279.13.001.205.091.229.139h.125c-.036-.102-.154-.242-.353-.243-.229 0-.386.18-.386.383 0 .21.164.385.387.385.168 0 .305-.104.351-.239z" fill="#71bf44" fill-rule="nonzero" transform="matrix(70.000056 0 0 70.000056 200.9291348 573.85469648)"/><path d="m.569-.544h-.104v.304c0 .093-.047.158-.149.159-.107 0-.145-.07-.145-.168v-.295h-.104v.319c0 .113.045.24.22.241.097.001.158-.044.184-.1v.084h.098z" fill="#71bf44" fill-rule="nonzero" transform="matrix(70.000056 0 0 70.000056 257.699180216 573.85469648)"/><path d="m307.049219696 522.05465504h7.280005824v51.80004144h-7.280005824z" fill="#71bf44" fill-rule="nonzero" stroke-width="70.000056"/><path d="m.107 0h.104v-.463h.105v-.081h-.105v-.196h-.104v.196h-.098v.081h.098z" fill="#71bf44" fill-rule="nonzero" transform="matrix(70.000056 0 0 70.000056 319.089229328 573.85469648)"/><path d="m.569-.544h-.104v.304c0 .093-.047.158-.149.159-.107 0-.145-.07-.145-.168v-.295h-.104v.319c0 .113.045.24.22.241.097.001.158-.044.184-.1v.084h.098z" fill="#71bf44" fill-rule="nonzero" transform="matrix(70.000056 0 0 70.000056 341.909247584 573.85469648)"/><path d="m.068 0h.104v-.294c0-.108.051-.162.149-.162h.007v-.104c-.074.001-.131.032-.162.096v-.08h-.098z" fill="#71bf44" fill-rule="nonzero" transform="matrix(70.000056 0 0 70.000056 386.499283256 573.85469648)"/><path d="m.622-.544h-.104v.096c-.025-.052-.094-.112-.202-.112-.158 0-.279.122-.279.288 0 .152.104.288.279.288.086 0 .164-.038.202-.111v.095h.104zm-.481.273c0-.102.074-.192.188-.192.087 0 .148.049.174.112.012.025.017.053.016.081s-.007.056-.019.081c-.027.062-.086.108-.169.108-.132 0-.189-.108-.19-.189z" fill="#71bf44" fill-rule="nonzero" transform="matrix(70.000056 0 0 70.000056 407.71263356 573.85469648)"/><path d="m.068 0h.104v-.298c0-.044.009-.082.029-.111.018-.03.054-.054.103-.053.051.001.083.022.103.054.018.03.023.063.022.108v.3h.105v-.3c0-.046.003-.076.025-.11.02-.033.059-.052.105-.052.049 0 .078.017.097.045.024.031.03.076.03.121v.296h.104v-.3c0-.104-.012-.156-.06-.205-.04-.041-.096-.055-.146-.055-.059 0-.109.022-.144.057-.019.019-.03.038-.039.054-.006-.01-.021-.039-.035-.053-.038-.043-.09-.058-.14-.058-.079 0-.142.047-.165.093v-.077h-.098z" fill="#71bf44" fill-rule="nonzero" transform="matrix(70.000056 0 0 70.000056 476.732688776 573.85469648)"/><path d="m.622-.544h-.104v.096c-.025-.052-.094-.112-.202-.112-.158 0-.279.122-.279.288 0 .152.104.288.279.288.086 0 .164-.038.202-.111v.095h.104zm-.481.273c0-.102.074-.192.188-.192.087 0 .148.049.174.112.012.025.017.053.016.081s-.007.056-.019.081c-.027.062-.086.108-.169.108-.132 0-.189-.108-.19-.189z" fill="#71bf44" fill-rule="nonzero" transform="matrix(70.000056 0 0 70.000056 543.932742536 573.85469648)"/><path d="m.123.198h.111l.297-.742h-.112l-.152.398-.15-.398h-.112l.208.528z" fill="#71bf44" fill-rule="nonzero" transform="matrix(70.000056 0 0 70.000056 591.53500284 573.85469648)"/><path d="m.622-.544h-.104v.096c-.025-.052-.094-.112-.202-.112-.158 0-.279.122-.279.288 0 .152.104.288.279.288.086 0 .164-.038.202-.111v.095h.104zm-.481.273c0-.102.074-.192.188-.192.087 0 .148.049.174.112.012.025.017.053.016.081s-.007.056-.019.081c-.027.062-.086.108-.169.108-.132 0-.189-.108-.19-.189z" fill="#71bf44" fill-rule="nonzero" transform="matrix(70.000056 0 0 70.000056 626.955031176 573.85469648)"/><path d="m0-18.106c-4.227 0-7.654 3.427-7.654 7.654v2.799c0 4.227 3.427 7.653 7.654 7.653h134.95c4.227 0 7.654-3.426 7.654-7.653v-2.799c0-4.227-3.427-7.654-7.654-7.654z" fill="none" stroke="#71bf44" stroke-width=".9" transform="matrix(5.55556 0 0 5.55556 67.032 593.2)"/><g fill-rule="nonzero"><path d="m0-12.684c-.023-.442-.299-.856-.649-1.202-.134-.133-.453-.234-.593-.164-.158.08-.279.364-.294.569-.038.496.528 1.177 1.032 1.322.272.077.491-.115.504-.525m-11.885 4.166c.036.78.346 1.278.86 1.626.155.104.483.137.615.041.14-.101.252-.445.183-.594-.216-.472-.495-.923-.811-1.336-.107-.14-.436-.244-.587-.181-.153.063-.212.354-.26.444m4.601 14.838c1.177.403 2.169.79 3.19 1.082 1.839.527 3.623.487 5.214-.749.496-.387.994-.783 1.422-1.239.208-.221.304-.581.36-.895.023-.125-.175-.324-.318-.422-.045-.03-.313.135-.354.254-.207.598-.603 1.033-1.111 1.37-.444.293-.919.54-1.367.827-.378.242-.782.316-1.226.35-1.681.129-3.221-.42-4.766-.938-.727-.245-.762-.416-.71-1.206.026-.387-.039-.783-.101-1.17-.012-.075-.194-.157-.307-.171-.064-.009-.166.099-.215.178-.048.081-.072.189-.073.285-.002.939-.058 1.863-.559 2.702-.044.071.022.275.1.33.08.058.288.061.35-.001.207-.21.372-.461.471-.587m.643-10.709c-.785.03-1.095.477-1.178 1.124-.078.615.232 1.034.73 1.307.345.19.726.351 1.11.43 1.569.323 3.153.535 4.761.42 1.062-.077 2.117-.187 3.119-.599.743-.306 1.096-.652 1.005-1.404-.075-.617.131-1.086.355-1.609.298-.694.198-1.38-.325-1.952-.187-.203-.41-.56-.736-.319-.39.288-.006.518.172.722.42.482.559.969.091 1.563-.151-.215-.287-.398-.41-.589-1.181-1.814-2.306-3.668-3.552-5.437-1.458-2.067-3.018-4.063-4.544-6.083-.178-.237-.398-.453-.636-.627-.096-.071-.302-.034-.437.015-.041.015-.06.26-.005.347.423.677.835 1.366 1.311 2.005 1.156 1.547 2.381 3.043 3.511 4.607 1.444 2 2.784 4.071 3.959 6.242.838 1.546.496 1.715-.916 2.036-2.203.502-4.432.359-6.637-.109-.258-.055-.52-.141-.749-.266-.551-.302-.653-.691-.356-1.248.106-.198.237-.384.357-.576m-13.165-11.971c-.251.976-.438 1.811-.682 2.629-.292.988-.163 1.988-.138 2.981.014.579.453.967.939 1.212.775.393 1.592.64 2.493.529.244-.03.363-.092.437-.294.034-.093.075-.191.077-.288.025-1.844.829-3.487 1.376-5.191.251-.778.697-1.509 1.137-2.21.96-1.53.983-1.516-.346-2.64-.021-.019-.028-.056-.091-.182.513-.321 1.034-.657 1.564-.977 1.264-.764 2.644-1.254 4.046-1.693.321-.1.509-.014.637.279.052.122.123.237.187.354.2.361.482.504.911.432 2.448-.41 4.919-.293 7.384-.296.262 0 .525.071.785.121.858.165 1.135-.003 1.353-.874.073-.287.096-.589.117-.886.018-.265.003-.531.003-.836.75.682 1.637 2.05 2.16 3.28.522 1.227 1.041 2.453 1.583 3.67.726 1.631 1.096 3.356 1.278 5.112.137 1.329.297 2.628.744 3.904.293.837.345 1.756.527 2.634.4 1.925.599 3.873.68 5.834.01.263.009.541-.055.793-.5 1.932-.944 3.882-1.556 5.779-.352 1.097-.936 2.142-1.788 2.966-1.16 1.122-2.643 1.555-4.194 1.632-1.83.092-3.666.017-5.5.044-1.57.023-3.128-.104-4.675-.355-.382-.062-.789-.181-1.105-.392-1.449-.967-2.943-1.811-4.644-2.273-.782-.211-.767-.125-.852-1.092-.169-1.935-.748-3.726-2.19-5.119-.959-.925-1.93-1.84-2.952-2.692-.422-.35-.968-.602-1.499-.754-.82-.235-1.606-.668-2.513-.541-.445.062-.58-.281-.624-.621-.09-.692-.195-1.39-.194-2.085.002-1.433.065-2.866.11-4.298.069-2.143 1.024-3.9 2.425-5.451.73-.809 1.543-1.522 2.645-2.145" fill="#efbe8d" transform="matrix(5.55556 0 0 5.55556 366.007 316.7)"/><path d="m0 5.816c5.043-3.184 12.69-2.483 18.309-1.897-.091-.214-.185-.427-.276-.64-.523-1.23-1.41-2.598-2.16-3.279 0 .303.015.57-.004.834-.021.297-.043.6-.116.888-.219.87-.495 1.038-1.354.873-.26-.05-.523-.122-.785-.121-2.465.003-4.935-.114-7.383.295-.43.072-.711-.07-.911-.432-.065-.117-.135-.231-.188-.352-.127-.294-.316-.38-.637-.279-1.401.438-2.781.928-4.045 1.692-.53.32-1.051.656-1.564.977.062.127.069.164.092.183.721.61 1.032.889 1.022 1.258" fill="#a87b50" opacity=".2" transform="matrix(5.55556 0 0 5.55556 291.06254024 182.28771656)"/><path d="m0-1.345c-1.608.115-3.191-.097-4.761-.42-.384-.08-.765-.24-1.111-.43-.187-.103-.335-.235-.459-.382.239 1.544.62 3.138 2.393 3.428 2.324.381 5.289-.416 6.409-2.577-.804.233-1.635.321-2.471.381" fill="#a87b50" opacity=".2" transform="matrix(5.55556 0 0 5.55556 359.24037256 317.98782512)"/><path d="m0 25.969c-3.245-.019-6.77.115-9.813-1.212-1.797-.784-2.897-2.061-3.289-3.98-.211-1.028-.205-2.092-.456-3.112-.393-1.605-1.352-2.675-2.474-3.826-1.961-2.013-2.637-4.805-2.406-7.583-.332-.097-.658-.223-.974-.383-.485-.245-.924-.633-.939-1.211-.024-.993-.154-1.995.139-2.981.244-.818.431-1.654.681-2.63-1.101.624-1.914 1.336-2.645 2.146-1.4 1.55-2.355 3.306-2.424 5.451-.046 1.432-.109 2.865-.11 4.296-.002.696.103 1.394.193 2.087.045.34.179.683.625.621.906-.127 1.693.306 2.513.541.531.151 1.077.404 1.498.753 1.022.852 1.994 1.767 2.952 2.693 1.443 1.392 2.021 3.183 2.191 5.118.084.967.07.881.851 1.093 1.702.461 3.196 1.305 4.645 2.272.317.211.723.33 1.104.392 1.547.252 3.105.378 4.676.355 1.833-.027 3.67.049 5.5-.043 1.359-.069 2.667-.41 3.751-1.249-1.845.426-3.778.404-5.789.392" fill="#a87b50" opacity=".2" transform="matrix(5.55556 0 0 5.55556 364.47371008 231.05442224)"/><path d="m0-31.766c-.484.418-.957.827-1.418 1.226-2.518-1.807-5.301-2.835-8.293-3.363-2.155-.382-4.323-.171-6.486-.201-.099-.001-.202.007-.298.029-.471.107-.609.366-.407.799.067.144.192.262.385.518-.278-.043-.425-.041-.552-.09-1.088-.409-2.132-.426-3.146.24-.612.401-1.261.745-1.89 1.121-1.756 1.049-3.126 2.491-4.154 4.241-.777 1.32-1.475 2.687-2.19 4.043-.761 1.443-1.031 3.024-1.144 4.62-.178 2.509.127 4.989.637 7.441.141.675.432 1.328.726 1.958.11.237.4.44.655.545.33.136.706.16 1.114.241-.136.373-.469.52-.745.728-.451.341-.436.629.048.909.247.142.513.251.772.375-.064.126-.079.215-.125.238-.916.433-.959 1.144-.693 2 .623 2.005 1.201 4.023 2.116 5.921.477.99.987 1.965 1.489 2.943.184.359.376.708.135 1.125-.436-.271-.854-.541-1.285-.786-.095-.054-.24-.018-.363-.024.037.143.03.325.118.419.25.265.51.544.818.73.755.454.91 1.082.627 1.965-1.134-.534-2.045-1.459-3.473-1.865.215.294.288.461.414.558.687.528 1.383 1.044 2.082 1.554.77.563.772.558.396 1.462-.526 1.269-1.241 2.432-2.026 3.553-.19.271-.408.535-.658.75-1.011.867-2.04 1.716-3.065 2.566-.098.08-.222.13-.459.265.057-.295.06-.481.13-.637.993-2.244.958-4.614.789-6.979-.227-3.182-1.245-6.125-2.966-8.808-.353-.55-.857-1.006-1.306-1.491-.452-.489-.911-.972-1.388-1.435-.454-.44-.448-.942-.24-1.471.231-.586.556-1.136.533-1.802-.004-.142.14-.292.228-.43.142-.225.314-.434.437-.669.112-.211.413-.463.096-.667-.097-.063-.437.187-.621.345-.172.149-.288.364-.424.554-.224.312-.458.563-.909.418-.432-.141-.748-.291-.836-.838-.346-2.132-.815-4.247-1.11-6.386-.149-1.079-.065-2.199-.011-3.297.072-1.461.194-2.922.338-4.379.157-1.621.336-3.241.554-4.855.175-1.283.408-2.559.644-3.834.064-.355.213-.699.352-1.036.153-.367.428-.492.808-.32.122.055.243.114.37.153.501.155.687.006.641-.506-.105-1.192-.214-2.384-.316-3.576-.01-.131-.011-.273.027-.395.31-.989.716-1.926 1.431-2.798.434.755.433 1.677 1.325 2.28-.121-.398-.195-.638-.266-.88-.112-.383-.195-.777-.337-1.148-.282-.734-.122-1.332.401-1.913.441-.49.795-1.058 1.259-1.688.259.604.466 1.112.702 1.606.034.073.203.081.31.12.02-.092.067-.188.052-.275-.02-.129-.082-.251-.128-.377-.116-.312-.214-.632-.349-.936-.153-.348-.108-.628.162-.905 1.447-1.482 2.945-2.874 4.794-3.885 1.676-.918 3.395-1.696 5.215-2.25.533-.163 1.105-.251 1.663-.265 1.261-.032 2.52-.087 3.786.136.934.165 1.798.472 2.643.86.194.089.365.279.489.462.766 1.132 1.534 2.266 1.782 3.653.022.129.077.256.139.372.161.302.424.331.618.035.218-.333.377-.704.571-1.052.919-1.642.46-1.531 2.355-.681.595.267 1.085.762 1.626 1.149.298.212.337.461.16.776-.213.378-.417.762-.605 1.152-.114.237-.214.488-.276.744-.022.089.093.212.144.319.081-.047.195-.077.235-.148.163-.29.29-.601.455-.889.215-.373.453-.73.719-1.152.961.708 1.682 1.564 2.453 2.391-.196.308-.392.575-.54.867-.042.082.028.246.091.345.022.034.211.015.269-.038.216-.203.409-.43.673-.714.719.726 1.442 1.403 2.102 2.137.823.917 1.607 1.871 2.381 2.83.345.428.32.491-.112.785-.938.635-1.89 1.252-2.829 1.885-.255.171-.46.195-.71-.026-1.197-1.057-2.438-2.064-3.605-3.152-2.693-2.512-5.912-4.058-9.361-5.198-.063-.021-.129-.034-.19-.059-2.187-.908-4.484-.943-6.79-.825-1.332.068-2.527.628-3.594 1.387-1.247.887-2.458 1.834-3.616 2.833-.464.402-.819.976-1.1 1.534-.641 1.275-1.265 2.566-1.793 3.891-1.13 2.844-2.353 5.659-2.975 8.678-.464 2.255-.841 4.516-.58 6.835.04.362.031.733.014 1.099-.083 1.754.324 3.44.687 5.132.028.129.082.254.136.375.027.057.081.101.237.291-.091-.846-.182-1.54-.237-2.239-.08-1.028-.17-2.059-.19-3.089-.027-1.368-.025-2.736.023-4.103.074-2.141.555-4.213 1.149-6.264.791-2.725 1.947-5.313 3.005-7.934.481-1.193 1.251-2.273 1.901-3.396.116-.2.267-.391.44-.541 1.496-1.286 3.067-2.465 4.882-3.273.363-.162.751-.331 1.138-.361 1.796-.139 3.599-.24 5.369.211 2.564.652 4.974 1.692 7.32 2.91 1.47.764 2.695 1.829 3.924 2.907.523.461 1.072.899 1.641 1.303.686.485 1.313 1.02 1.83 1.751" fill="#10a8e1" transform="matrix(5.55556 0 0 5.55556 214.535 326.4)"/><path d="m2.997-.536c.069.286.137.573.21.856.105.41-.003.66-.21.89-1.11-.775-2.356-1.344-3.527-2.046 1.178-.108 2.358.068 3.527.3" fill="#7bc1eb" transform="matrix(-5.08809 2.23061 2.23061 5.08809 25.607 279.1)"/><path d="m0-3.251c-.388-.077-.435.267-.998 1.274-.195.349-.353.72-.572 1.052-.193.297-.457.268-.617-.035-.062-.116-.116-.243-.14-.371-.247-1.387-1.016-2.521-1.782-3.653-.124-.183-.295-.373-.488-.462-.845-.388-1.709-.696-2.644-.86-.012-.003-.025-.003-.037-.006.773 2.535 1.321 5.124 1.886 7.711.006.003.013.005.019.007 1.417.468 2.79 1.01 4.108 1.655.331-2.123.952-4.188 1.265-6.312" fill="#7bc1eb" transform="matrix(5.55556 0 0 5.55556 174.218 91.8)"/><path d="m0 10.49c-1.008-1.449-1.713-3.018-2.325-4.667-.099-.266.159-.585.434-.568 1.35.078 2.407-.259 2.347-1.755-.033-.857-.17-1.712-.284-2.561-.053-.391.28-.69.661-.508 1.71.82 1.455-2.088 1.097-4.161-.2.197-.402.392-.599.593-.271.277-.317.558-.162.905.134.305.233.625.348.937.045.125.108.248.129.377.015.086-.033.182-.052.274-.107-.039-.276-.047-.311-.119-.235-.495-.442-1.002-.702-1.607-.463.63-.817 1.199-1.259 1.688-.523.581-.682 1.179-.401 1.913.142.371.225.766.337 1.149.071.241.146.482.267.879-.893-.603-.891-1.525-1.325-2.279-.715.871-1.122 1.809-1.431 2.797-.039.123-.039.265-.027.395.102 1.193.211 2.384.316 3.577.045.512-.141.66-.642.506-.127-.039-.247-.099-.37-.154-.379-.172-.655-.046-.807.322-.139.336-.288.679-.354 1.035-.011.063-.022.127-.034.19 1.33 1.371 2.73 2.676 4.011 4.095.126.142.137.304.088.445.008.011.014.021.021.032.333-1.218.746-2.408 1.193-3.586-.06-.032-.117-.076-.164-.144" fill="#7bc1eb" transform="matrix(5.55556 0 0 5.55556 40.721 109)"/><path d="m0-6.768c1.174 2.192 2.379 4.373 3.027 6.768.46-.743.881-1.509 1.218-2.323.376-.903.375-.899-.397-1.461-.698-.511-1.394-1.027-2.08-1.555-.127-.097-.2-.263-.415-.558 1.428.406 2.34 1.331 3.474 1.866.102-.32.145-.604.125-.861-1.386-1.182-3.151-1.682-4.952-1.876" fill="#7bc1eb" transform="matrix(5.55556 0 0 5.55556 56.896 394)"/><path d="m0-40.33c-.898-.152-1.819-.219-2.728-.278-1.027-.066-2.58-.307-3.552.098-1.149.48-.774 1.203-1.447 1.956-.452.505-1.343.674-1.962.834-1.485.385-2.678.747-3.867 1.797-2.312 2.042-3.583 5.066-4.038 8.061-.543 3.568.127 7.144.299 10.714.105 2.183.308 4.912-.211 6.977-.96 3.816 3.017 8.691 6.508 10.756-.486-.946-.978-1.89-1.44-2.849-.915-1.896-1.493-3.915-2.116-5.919-.266-.856-.223-1.568.692-2.001.047-.022.061-.111.125-.238-.258-.124-.524-.232-.772-.375-.484-.28-.498-.567-.047-.908.276-.209.609-.355.745-.729-.407-.081-.784-.104-1.114-.24-.255-.105-.545-.31-.656-.545-.293-.63-.584-1.284-.725-1.96-.51-2.45-.815-4.932-.637-7.439.113-1.597.382-3.178 1.144-4.621.714-1.355 1.413-2.722 2.189-4.042 1.029-1.751 2.399-3.192 4.156-4.242.628-.375 1.278-.719 1.889-1.121 1.014-.666 2.058-.648 3.145-.239.128.048.275.046.553.09-.194-.256-.318-.374-.385-.518-.202-.433-.064-.693.406-.8.097-.021.199-.029.299-.028 2.163.029 4.332-.181 6.486.199.149.027.292.068.441.098-.759-1.25-1.738-2.211-3.38-2.488" fill="#0099d9" transform="matrix(5.55556 0 0 5.55556 144.259 348.8)"/><path d="m0-1.628c-.084-.258.063-.443.26-.515-.378-.312-.762-.615-1.158-.904-.313 1.184-.726 2.326-1.235 3.431.922.279 1.819.625 2.692 1.035-.078-1.029-.233-2.048-.559-3.047" fill="#7bc1eb" transform="matrix(5.55556 0 0 5.55556 187.607 139.5)"/><path d="m0 15.643c.048-.516-.2-.868-.4-1.234-.336-.613-.684-1.222-1.066-1.808-1.481-2.264-2.204-4.839-3.019-7.375-.809-2.513-1.333-5.085-1.319-7.738.006-1.305.298-2.556.815-3.777.82-1.939 2.059-3.574 3.473-5.092.428-.46.92-.877 1.442-1.226.375-.25.835-.428 1.281-.511 1.078-.201 2.173-.31 3.256-.488 1.927-.316 3.861-.178 5.788-.083.969.049 1.833.558 2.736 1.074-.131.183-.224.351-.351.488-1.166 1.259-2.102 2.675-2.785 4.244-.281.648-.665 1.131-1.305 1.432-.292.137-.551.343-.845.53-.417-.961-.198-2.029-.813-3.065-.086.306-.178.469-.167.624.064.862.129 1.725.244 2.581.064.474-.081.768-.544.95-.593-1.482-.323-3.105-.874-4.636-.062.234-.166.465-.179.701-.072 1.239.034 2.466.368 3.662.148.534.096.931-.358 1.32-.525.449-.97.993-1.502 1.551-.507-.668-.564-1.405-.681-2.092-.143-.847-.166-1.715-.237-2.573-.029-.359.021-.737-.281-1.025-.399.207-.328.572-.333.888-.009.796-.128 1.555-.319 2.343-.252 1.045-.148 2.177-.181 3.273-.007.23.041.464.082.694.093.526-.05.948-.414 1.362-.653.739-.464 1.219.503 1.436.673.15.675.15.714.81.16 2.748.796 5.387 1.793 7.947.567 1.458 1.098 2.93 1.674 4.385.144.364.074.622-.142.913-.278.374-.548.758-.77 1.166-.19.347-.347.724-.449 1.106-.151.568.129.807.714.659.032-.008.063-.018.095-.029.309-.111.693-.388.906-.291.283.129.466.533.631.85 1.051 2.007 2.089 4.021 3.123 6.037.117.229.183.485.316.845-1.022-.202-1.756-.977-2.986-.922.475.312.766.511 1.065.696.708.439 1.405.896 2.133 1.297.39.215.574.533.704.919.364 1.078.614 2.179.619 3.324.006 1.13.001 2.261.001 3.645-.334-.494-.557-.774-.728-1.083-.516-.927-1.257-1.63-2.118-2.224-.905-.624-1.768-1.317-2.713-1.868-1.351-.789-2.758-1.48-4.145-2.206-.678-.356-1.373-.682-2.045-1.05-.651-.355-.753-.592-.568-1.302.167-.644.395-1.273.561-1.916.151-.582-.056-.799-.574-.562-.827.381-1.415.106-2.081-.421-1.52-1.201-2.755-2.607-3.606-4.348-.044-.089-.087-.18-.121-.273-.009-.024.016-.061.037-.126.37-.362 1.071.075 1.408-.515-.34-.349-.737-.219-1.127-.169-.609.079-1.1-.293-1.156-.903-.01-.102.157-.285.276-.321.413-.126.85-.176 1.258-.311.332-.11.738-.112.95-.504-.555-.244-1.057-.015-1.566.111-1.375.338-1.395.344-1.859-.985-.481-1.381-.915-2.78-1.378-4.169-.19-.568-.162-1.048.453-1.337.03-.014.058-.036.079-.06.283-.312.791-.496.75-.994-.048-.571-.663-.299-.955-.533-.049-.04-.081-.103-.136-.175.288-.303.605-.589.866-.919.327-.417.252-.672-.238-.811-.347-.1-.717-.136-1.079-.171-.747-.072-1.229-.437-1.397-1.18-.167-.745-.289-1.502-.403-2.258-.293-1.95-.352-3.911-.276-5.881.067-1.695.476-3.288 1.274-4.781.519-.971 1.033-1.944 1.567-2.905 1.194-2.149 2.849-3.844 4.997-5.052.464-.261.936-.519 1.363-.834.538-.398 1.129-.383 1.721-.286.553.09 1.1.239 1.631.419.189.063.315.301.484.442.116.094.257.156.386.233.082-.161.234-.323.233-.485-.001-.221-.096-.451-.189-.66-.122-.268-.282-.519-.429-.782 2.896-1.062 10.534.702 13.914 3.227-.333.434-.66.879-1.006 1.306-.332.41-.683.804-1.011 1.189-.545-.309-1.027-.596-1.522-.859-.658-.349-1.363-.528-2.113-.524-.533.002-1.068 0-1.601-.024-2.074-.092-4.126.087-6.156.52-.065.015-.13.046-.194.045-1.816-.036-3.05 1.014-4.153 2.265-1.324 1.504-2.553 3.073-3.327 4.957-.512 1.246-.862 2.502-.882 3.865-.044 2.93.449 5.763 1.384 8.529.47 1.388.919 2.784 1.444 4.151.697 1.818 1.721 3.457 2.945 4.969.216.268.475.502.715.752" fill="#f493ad" transform="matrix(5.55556 0 0 5.55556 118.175 245.6)"/><path d="m0 .752c-.014-.381-.014-.762.007-1.145.005-.074.027-.148.045-.222.11-1.586.344-3.176.438-4.772-.463.031-.925.077-1.387.154-.36.059-.724.106-1.086.157 0 .032.008.061.002.095-.322 1.84-.436 3.702-.611 5.557.184.268.164.588.19.898.07.858.093 1.726.237 2.573.117.687.173 1.425.681 2.092.532-.558.976-1.102 1.502-1.552.187-.16.292-.324.357-.497-.29-1.11-.385-2.223-.375-3.338" fill="#f8b8c4" transform="matrix(5.55556 0 0 5.55556 147.956 199.1)"/><path d="m0 2.212c-.022.024-.049.047-.079.06-.344.162-.5.386-.541.649.064-.041.138-.072.232-.073 1.708-.015 3.408-.176 5.116-.208-.407-1.108-.782-2.229-1.16-3.349-.065.127-.186.225-.374.224-.862-.003-1.708-.041-2.541-.139-.033.069-.067.136-.128.215-.261.331-.578.617-.866.92.055.072.086.135.136.176.291.233.907-.038.955.531.04.499-.467.684-.75.994" fill="#f8b8c4" transform="matrix(5.55556 0 0 5.55556 70.36 282.7)"/><path d="m0 1.02c-.258-.675-.518-1.349-.774-2.025-1.521.77-2.903 1.769-3.979 3.03 1.557-.528 3.142-.836 4.753-1.005" fill="#f8b8c4" transform="matrix(5.55556 0 0 5.55556 149.691 316.9)"/><path d="m0-5.735c-.838.468-1.589 1.025-2.276 1.712.416.186.846.213 1.374-.03.518-.238.726-.02.574.561-.166.644-.394 1.272-.561 1.916-.185.711-.084.947.568 1.302.172.096.35.183.526.274.045-1.915.024-3.831-.205-5.735" fill="#f8b8c4" transform="matrix(5.55556 0 0 5.55556 122.221 397.2)"/><path d="m0-4.544c-.13-.386-.314-.704-.704-.919-.622-.342-1.221-.725-1.823-1.103-1-.241-2.017-.386-3.067-.403 1.019 1.211 2.147 2.327 3.057 3.632 1.103 1.583 1.972 3.316 3.019 4.935.133.205.067.399-.071.524.065.093.134.191.209.303 0-1.384.005-2.515-.001-3.646-.005-1.144-.255-2.245-.619-3.323" fill="#f8b8c4" transform="matrix(5.55556 0 0 5.55556 182.262 429)"/><path d="m0 2.231c-.965-1.414-1.952-2.806-3.032-4.123-.569.67-1.096 1.381-1.538 2.175-.181.327-.354.657-.531.986 1.383.745 2.704 1.591 3.98 2.517.125.091.18.213.19.337.334-.606.717-1.179 1.124-1.735-.071-.033-.139-.078-.193-.157" fill="#f8b8c4" transform="matrix(5.55556 0 0 5.55556 95.597 179)"/><path d="m0-25.6c.364.059.718.136 1.076.172 1.158.117 2.324.171 3.473.343.749.112 1.501.319 2.205.602 1.733.694 3.476 1.399 4.672 2.948.323.419.613.866.899 1.313.142.222.301.378.564.261.267-.117.268-.349.173-.593-.084-.215-.164-.432-.273-.718.253-.151.486-.364.758-.44 1.234-.343 2.308-1.017 3.44-1.573.342-.168.763-.25 1.144-.247.614.007.989.393 1.05.997.079.773-.019 1.539-.299 2.257-.211.54-.639.924-1.165 1.19-1.068.54-2.146 1.063-3.195 1.638-1.491.818-2.689 1.945-3.521 3.45-.321.581-.72 1.116-1.078 1.676-.512.802-1.264 1.245-2.158 1.508-1.302.384-2.444 1.067-3.392 2.032-.435.443-.873.951-1.108 1.514-.51 1.223-.966 2.469-1.11 3.819-.096.883-.351 1.76-.626 2.61-1.046 3.233-2.148 6.45-3.959 9.355-.632 1.013-1.383 1.958-2.141 2.884-1.312 1.603-3.084 2.363-5.099 2.645-2.152.301-4.302.409-6.491 0 .455-.623.897-1.217 1.33-1.82.991-1.377 1.562-2.924 1.839-4.59.049-.295.068-.613.197-.873.599-1.217.603-2.514.538-3.815-.027-.541.146-.931.507-1.336.64-.719 1.223-1.494 1.791-2.274 1.627-2.234 3.248-4.477 4.464-6.971.393-.805.676-1.663.996-2.503.227-.595.072-1.124-.375-1.551-.263-.251-.566-.465-.871-.665-.579-.379-.875-.908-.853-1.594.017-.495.093-.989.122-1.484.038-.663.098-1.33.064-1.991-.012-.266-.2-.559-.386-.774-.775-.901-1.714-1.573-2.867-1.919-.752-.226-1.254-.72-1.566-1.434-.409-.934-.311-1.479.481-2.111.306-.244.674-.519 1.039-.563 1.353-.161 2.719-.299 4.015.342.53.262.915.632 1.176 1.171.446.923.58 1.912.631 2.906.044.827.181.975.889 1.025.411.029.682.242.862.59.2.383.387.773.581 1.159.118.238.203.507.374.698.099.112.352.156.511.12.091-.021.225-.299.184-.397-.487-1.175-.69-2.565-2.16-3.038-.262-.085-.356-.243-.374-.511-.07-1.001-.305-1.957-.683-2.897-.143-.354-.06-.856.06-1.25.471-1.545.737-3.115.605-4.725-.095-1.157-.286-2.307-.455-3.457-.213-1.447-.483-2.886-.661-4.336-.177-1.449.826-2.778 2.635-3.082.857-.145 1.545.09 2.061.863.53.796.918 1.596.89 2.589-.054 1.932-.009 3.868-.083 5.8-.053 1.393-.237 2.781-.344 4.172-.022.281-.133.42-.395.486-.226.059-.56-.054-.608.397" fill="#efbe8d" transform="matrix(5.55556 0 0 5.55556 693.952 417.8)"/><path d="m0 8.079c-.707 1.185-2.744 4.145-4.478 3.202-.875-.475-.896-1.743-.839-2.581.182-2.712 1.44-4.856-.816-7.151-.057-.058-.09-.12-.11-.183-.097.115-.188.236-.288.348-.36.404-.534.795-.507 1.337.065 1.3.061 2.596-.538 3.813-.129.261-.148.58-.196.875-.278 1.666-.849 3.212-1.84 4.59-.433.602-.874 1.197-1.33 1.82 2.189.408 4.34.3 6.491 0 2.016-.283 3.788-1.043 5.1-2.646.757-.926 1.509-1.871 2.141-2.884 1.81-2.904 2.912-6.122 3.959-9.355.275-.85.529-1.727.625-2.61.118-1.098.445-2.127.837-3.132-4.852 2.007-5.855 10.611-8.211 14.557" fill="#a87b50" opacity=".2" transform="matrix(5.55556 0 0 5.55556 664.95172824 417.23790452)"/><path d="m0 2.033c1.319.153 2.578.581 3.878.824.906.168 1.333.349 1.212-.778-.062-.578-.308-1.031-.703-1.446-2.352-2.469-8.557-2.176-11.603-.793.135.527.227 1.063.265 1.612.019.268.113.427.375.511 1.009.326 1.419 1.083 1.736 1.906 1.218-1.555 2.81-2.072 4.84-1.836" fill="#a87b50" opacity=".2" transform="matrix(5.55556 0 0 5.55556 715.76843556 297.74892004)"/><path d="m0 21.688c-.155-.928.247-1.559.544-2.214.109-.241.294-.458.352-.707.036-.152-.063-.385-.18-.506-.06-.062-.344-.013-.436.078-.473.466-.928.953-1.366 1.454-.196.222-.338.491-.531.782-.44-.566-.335-1.186-.16-1.723.857-2.638 2.412-4.656 5.167-5.535.35-.111.696-.239 1.052-.315 1.753-.371 3.214-1.24 4.453-2.521.618-.639.649-.652 1.42-.192.857.511 1.681 1.074 2.515 1.622.333.219.644.475.985.681 1.704 1.029 2.803 2.522 3.42 4.394.09.271.052.703.441.683.419-.023.445-.458.444-.777-.003-2.295.249-4.606-.226-6.876-.195-.935-.56-1.847-.943-2.728-.61-1.405-1.278-2.785-1.968-4.153-.223-.441-.253-.824.032-1.201.317-.421.614-.897 1.03-1.196.752-.539 1.578-.978 2.386-1.433.87-.49 1.755-.954 2.637-1.424.23-.121.471-.219.611-.284.671 1.251 1.327 2.442 1.953 3.649.753 1.451 1.829 2.616 3.123 3.585.328.246.421.442.216.818-.756 1.395-.835 2.928-.835 4.466 0 1.419.627 2.165 2.008 2.425.292.054.612.108.893.043.623-.144 1.17-.093 1.766.19.803.38 1.703.287 2.563.186.582-.068 1.126-.36 1.316-.943.146-.447.383-.432.741-.424 1.396.031 1.824-.276 2.326-1.554.246-.63.445-1.256.227-1.999.306-.017.564-.055.818-.041.493.027.91-.143 1.307-.41.699-.471 1.194-1.008 1.09-1.961-.074-.679.005-.707.724-.654.728.053 1.455.136 2.18.233.522.07.586.577.874.945-.094.117-.155.233-.25.306-.76.583-.729 1.412-.574 2.195.095.477.022.803-.241 1.178-.184.262-.313.589-.377.905-.153.748-.438 1.041-1.203 1.181-.487.089-.975.187-1.446.337-.493.157-.891.431-.968 1.025-.019.142-.219.317-.372.371-.246.088-.524.081-.787.122-1.455.225-2.654.877-3.431 2.161-.483.796-.924 1.62-1.349 2.448-.135.262-.259.43-.577.45-.396.025-.792.093-1.185.161-.817.14-1.596.228-2.441-.059-.983-.334-1.995-.13-2.832.536-.329.262-.566.345-.966.134-.705-.375-1.499-.298-2.258-.23-.639.059-1.104.492-1.387 1.037-.238.46-.551.615-1.029.54-.065-.011-.133.003-.2-.003-1.883-.155-2.397 1.029-2.568 2.375-.028.226-.024.458-.039.77-.836-.052-1.578-.31-2.303-.597-.191-.074-.332-.315-.46-.504-.204-.304-.376-.628-.564-.943-.302-.507-.407-.546-.956-.3-.242.109-.462.268-.704.378-1.059.486-2.116.974-3.185 1.435-.268.115-.58.176-.873.182-2.417.048-4.386-.925-6.003-2.677-.297-.322-.375-.682-.233-1.109.041-.126-.012-.387-.098-.43-.151-.073-.41-.097-.536-.012-.438.298-.849.642-1.254.988-.423.36-.828.741-1.32 1.186" fill="#603812" transform="matrix(5.55556 0 0 5.55556 88.407 355.1)"/><path d="m0-12.216c-.725-.097-1.451-.18-2.179-.233-.72-.052-.798-.025-.724.653.103.953-.392 1.491-1.09 1.961-.398.269-.815.439-1.307.411-.255-.015-.512.023-.818.04.218.745.02 1.371-.227 2-.501 1.277-.93 1.586-2.326 1.553-.358-.008-.595-.021-.741.424-.19.584-.735.876-1.316.945-.859.099-1.76.194-2.563-.187-.597-.283-1.143-.335-1.767-.191-.28.066-.601.012-.893-.043-1.38-.259-2.008-1.005-2.008-2.424 0-1.538.081-3.071.837-4.465.204-.377.111-.574-.217-.819-1.295-.97-2.371-2.134-3.123-3.584-.467-.899-.953-1.797-1.446-2.711-1.256 2.238-1.389 5.692-.251 7.686.459.805.802.883.822 1.856.034 1.7-1.573 3.724.411 4.96 1.476.92 8.389-.354 7.188 3.212-.481 1.429-2.316 1.815-3.606 2.005-.931.137-1.877.17-2.818.17-.672 0-1.938-.3-2.58-.098-.298.094-.727 1.015-1.147 1.56-.676.877-1.469 1.67-2.354 2.338-.588.443-1.223.834-1.887 1.094.067.077.139.144.222.176.724.286 1.467.544 2.303.597.014-.313.011-.544.04-.771.17-1.346.684-2.53 2.567-2.375.066.006.134-.007.199.003.479.075.791-.08 1.031-.539.281-.546.747-.979 1.387-1.037.758-.069 1.552-.145 2.258.229.398.211.635.128.965-.134.837-.667 1.848-.869 2.833-.535.844.286 1.622.198 2.44.057.393-.067.788-.136 1.185-.16.318-.02.441-.188.576-.45.426-.829.867-1.652 1.349-2.448.778-1.283 1.976-1.936 3.432-2.162.262-.04.541-.034.786-.12.154-.054.354-.23.372-.372.077-.594.475-.868.968-1.025.471-.149.961-.248 1.448-.337.764-.14 1.049-.433 1.202-1.181.064-.316.192-.643.377-.905.263-.375.336-.7.24-1.179-.154-.783-.185-1.611.575-2.194.095-.072.155-.189.249-.306-.286-.367-.35-.875-.874-.945" fill="#3b2314" opacity=".2" transform="matrix(5.55556 0 0 5.55556 333.3736852 451.86571)"/><path d="m0-27.078c-1.615.241-3.045.366-4.432.682-2.01.458-4.102.492-6.061 1.194-1.033.37-2.069.732-3.091 1.131-1.27.495-2.536 1.004-3.79 1.54-2.956 1.262-5.79 2.765-8.161 4.956-1.784 1.651-3.378 3.499-4.433 5.743-.369.783-.77 1.553-1.193 2.308-1.023 1.834-1.477 3.826-1.787 5.883-.268 1.775-.175 3.508.229 5.244.196.84.573 1.579 1.218 2.133.398.344.602.657.402 1.178-.067.178-.04.392-.062.655-1.084-.652-1.965-1.439-2.772-2.33-2.582-2.854-4.03-6.247-4.676-9.992-.18-1.042-.096-2.128-.131-3.194-.144-4.319 1.501-7.98 4.172-11.25.948-1.16 1.931-2.292 2.941-3.399.603-.66 1.227-1.333 1.95-1.846 1.549-1.096 3.105-2.21 4.774-3.1 2.499-1.335 5.131-2.362 7.996-2.693 1.455-.168 2.899-.412 4.369-.338.629.031 1.257.093 1.884.161.66.071 1.318.159 1.976.253.796.112 1.568.293 2.269.718.339.206.697.407 1.073.526 2.154.682 3.587 2.329 5.336 3.837" fill="#e9ba45" transform="matrix(5.55556 0 0 5.55556 382.979 300.3)"/><path d="m0 31.654c-.644-.554-1.022-1.293-1.218-2.133-.404-1.736-.496-3.469-.228-5.245.309-2.056.764-4.048 1.787-5.882.252-.452.478-.918.712-1.379-4.344-.716-3.604-5.677-2.017-9.119 1.277-2.769 3.299-4.957 5.361-7.161.829-.884 1.689-1.763 2.605-2.568-.134.07-.27.137-.404.208-1.669.891-3.225 2.005-4.774 3.101-.723.512-1.346 1.185-1.949 1.846-1.01 1.107-1.994 2.239-2.942 3.399-2.671 3.27-4.316 6.931-4.173 11.249.036 1.066-.048 2.152.132 3.194.647 3.745 2.095 7.138 4.677 9.993.806.89 1.687 1.678 2.771 2.33.022-.263-.005-.478.063-.655.2-.521-.004-.835-.403-1.178" fill="#a87b50" opacity=".2" transform="matrix(5.55556 0 0 5.55556 207.97358488 145.20435356)"/><path d="m0-10.279c1.374.447 2.622.79 3.821 1.257 2.032.791 3.695 2.084 5.007 3.845.975 1.309 2.048 2.544 3.022 3.851.555.744 1.042 1.545 1.482 2.363.568 1.055 1.061 2.151 1.582 3.232.245.505.244.515-.24.733-.942.423-1.893.825-2.83 1.258-.291.134-.488.124-.684-.146-1.955-2.68-4.392-4.916-6.707-7.262-.723-.734-1.532-1.383-2.307-2.062-.87-.763-1.955-1.129-2.98-1.602-.305-.142-.583-.043-.766.268-.287.486-.583.966-.945 1.562-.115-.232-.187-.387-.268-.537-.216-.411-.423-.829-.661-1.228-.222-.371-.593-.69-.701-1.086-.305-1.116-1.198-1.378-2.123-1.648-.379-.111-.751-.248-1.22-.404 1.275-1.645 2.541-3.165 4.174-4.346.729-.527 1.459-1.057 2.139-1.644 1.749-1.507 3.828-2.266 6.042-2.699.499-.099 1.052.049 1.575.111 1.596.192 2.854 1.041 4.014 2.08.3.268.378.541.146.869-.25.353-.531.685-.776 1.041-.335.488-.168.834.426.844.397.007.795-.056 1.192-.098.519-.057 1.037-.124 1.768-.213-.237.42-.37.66-.508.898-.118.201-.27.386-.358.598-.141.338.034.604.404.606.499.003.999-.022 1.497-.056.449-.03.762.143.98.538.222.4.473.784.723 1.197-.888.687-2.109.664-2.784 1.602.397.223.687-.035.983-.137.566-.196 1.116-.439 1.668-.674.298-.127.514-.073.653.228.042.091.088.18.128.272.488 1.097.438 1.211-.687 1.652-.341.135-.686.262-1.01.432-.152.081-.255.252-.463.468 1.04.123 1.713-.6 2.661-.699.183.59.458 1.176.536 1.786.273 2.143.573 4.288.471 6.461-.034.72-.018.722-.657.909-.447.13-.897.252-1.341.392-.383.121-.614.021-.771-.373-.307-.772-.672-1.523-.986-2.293-.663-1.62-1.572-3.071-2.745-4.379-.799-.89-1.502-1.871-2.197-2.848-1.843-2.593-4.38-4.132-7.399-4.96-.615-.17-1.23-.209-1.98.041" fill="#39b54a" transform="matrix(5.55556 0 0 5.55556 178.696 96)"/><path d="m0 14.073c-.086.168-.258.288-.494.221-2.868-.823-4.721-2.315-6.692-4.515-1.149-1.282-2.196-2.664-3.384-3.91-.864-.907-1.877-1.938-3.122-2.28-1.28-.352-2.604.188-3.821.501-.222.057-.508-.073-.555-.314-.379-1.967-.438-3.943-.446-5.941-1.498 1.149-2.7 2.575-3.9 4.123.469.156.841.294 1.221.404.924.27 1.818.532 2.123 1.648.107.396.478.716.7 1.086.239.399.445.817.662 1.228.081.15.153.305.268.537.361-.595.657-1.076.944-1.563.184-.31.461-.409.766-.267 1.025.473 2.111.839 2.98 1.601.775.68 1.584 1.329 2.307 2.062 2.315 2.347 4.752 4.583 6.708 7.263.195.27.393.281.683.146.937-.432 1.888-.835 2.83-1.259.485-.217.485-.227.241-.733z" fill="#14a24b" transform="matrix(5.55556 0 0 5.55556 261.451 41.3)"/><path d="m0-2.652c.232-.328.154-.601-.146-.869-.196-.177-.397-.344-.599-.506-1.57 1.25-2.743 3.407-3.03 5.402 1.791-.727 3.627-1.329 5.433-2.019.286-.109.481.082.528.316.113-.196.234-.416.424-.751-.731.089-1.249.157-1.769.213-.396.043-.794.107-1.191.099-.594-.01-.761-.356-.426-.845.245-.356.526-.687.776-1.04" fill="#77c043" transform="matrix(5.55556 0 0 5.55556 237.429 35.7)"/><path d="m0-.563c-.95.099-1.623.822-2.662.699.208-.216.311-.388.463-.468.324-.17.67-.298 1.011-.432 1.125-.442 1.174-.555.687-1.653-.035-.076-.071-.15-.107-.225-.033.082-.089.158-.194.211-1.411.702-2.873 1.376-4.046 2.425.182.214.167.634-.186.768-.314.119-.592.312-.87.497-.037.025-.074.032-.11.045.174.211.338.432.52.636.04.045.075.093.115.139.052-.055.118-.103.214-.123 1.873-.393 3.753-.731 5.638-1.04-.113-.502-.322-.989-.473-1.479" fill="#77c043" transform="matrix(5.55556 0 0 5.55556 273.529 71.3)"/><path d="m0 23.56c.4-1.662.733-3.286 1.19-4.875.408-1.42.547-2.873.698-4.321.145-1.386.133-2.79.16-4.188.02-1.044-.179-2.055-.636-3-.934-1.935-2.042-3.74-3.934-5.089.29-.219.515-.468.795-.587 1.811-.763 3.624-1.542 5.669-1.276.033.004.067.004.1.003.946-.017 1.8.454 2.819.309.906-.128 1.893.254 2.837.45 2.006.417 3.563 1.582 4.94 3.035.231.243.316.508.229.819-.678 2.436-1.4 4.859-2.617 7.094-.25.46-.614.858-.976 1.353-.193-.193-.34-.31-.451-.453-1.468-1.896-2.929-3.795-4.399-5.69-.141-.182-.309-.346-.488-.492-.051-.043-.205-.024-.263.025-.058.046-.097.191-.067.253.118.237.248.473.409.684 1.265 1.672 2.52 3.353 3.816 5.001 1.965 2.499 3.666 5.157 4.874 8.104.299.728.447 1.527.588 2.307.092.506.006.544-.538.57-.133.006-.266.002-.4.002-4.498.001-8.997.003-13.496.001-.294 0-.587-.025-.859-.039" fill="#efbe8d" transform="matrix(5.55556 0 0 5.55556 460.946 360.4)"/><path d="m0 14.507c-.491-3.405.925-6.574.012-10.014-.881-3.318-2.912-6.06-5.505-8.249-.038-.033-.06-.071-.083-.107l-.318.133c-.28.118-.505.368-.795.587 1.892 1.348 3 3.154 3.934 5.088.457.947.656 1.957.636 3.001-.027 1.397-.016 2.801-.16 4.188-.151 1.448-.291 2.902-.698 4.321-.456 1.588-.79 3.213-1.19 4.875.272.013.566.039.859.039 1.735.001 3.471 0 5.207 0-.971-.97-1.663-2.227-1.899-3.862" fill="#a87b50" opacity=".2" transform="matrix(5.55556 0 0 5.55556 484.096028 389.4212156)"/><path d="m0 5.91c.362-.495.725-.893.976-1.353.329-.605.618-1.226.883-1.855-1.968-1.252-4.198-2.702-6.507-2.674 1.401 1.809 2.796 3.62 4.197 5.429.112.143.258.26.451.453" fill="#a87b50" opacity=".2" transform="matrix(5.55556 0 0 5.55556 523.58494848 401.34344736)"/><path d="m0 29.757c-1.191-1.042-1.399-2.439-1.512-3.834-.193-2.387.181-4.713.944-6.978.116-.345.251-.689.417-1.014.723-1.426 1.382-2.893 2.213-4.255 1.801-2.951 4.206-5.322 7.219-7.049 1.821-1.043 3.647-2.077 5.677-2.688.539-.162 1.066-.391 1.566-.652 1.786-.933 3.686-1.533 5.638-1.985.517-.12 1.048-.182 1.572-.275 1.471-.26 2.94-.54 4.416-.779.755-.122 1.52-.214 2.283-.238.34-.01.726.118 1.023.296 1.423.855 2.232 2.154 2.589 3.753.043.196.06.397.116.588.227.768-.025 1.372-.617 1.863-.231.191-.474.365-.795.61-.293-.487-.562-.963-.861-1.419-.308-.472-.645-.923-.971-1.389.442-.312.793.03 1.164.038.163.004.331-.142.495-.22-.065-.139-.097-.317-.203-.411-.341-.3-.76-.405-1.211-.361-.595.06-1.191.124-1.786.193-1.651.192-3.302.388-4.953.586-.164.02-.331.046-.489.094-2.416.74-4.849 1.433-7.238 2.253-1.06.363-2.078.912-3.036 1.506-2.176 1.349-4.314 2.763-6.447 4.179-1.485.987-2.745 2.206-3.73 3.713-.903 1.379-1.363 2.894-1.429 4.511-.067 1.598-.033 3.202.007 4.801.013.558.155 1.117.273 1.669.113.536.028.955-.426 1.018-.835.114-1.13.739-1.518 1.307-.128.187-.258.375-.39.569" fill="#c59148" transform="matrix(5.55556 0 0 5.55556 212.118 155.1)"/><path d="m0-11.241c-.626.995-.124 2.318-.669 3.341-.221.416-.428.506-.713.849-1.047 1.268-.586 2.489-.548 3.993.041 1.551-.353 2.657-1.459 3.276.198.805.556 1.56 1.27 2.186.134-.194.262-.382.391-.569.389-.568.683-1.192 1.518-1.308.454-.062.539-.48.425-1.018-.117-.55-.259-1.11-.273-1.668-.038-1.599-.073-3.203-.007-4.801.068-1.617.528-3.133 1.43-4.511.527-.806 1.138-1.524 1.814-2.174-.983.939-2.462 1.263-3.179 2.404" fill="#e9bf45" transform="matrix(5.55556 0 0 5.55556 223.885 307)"/><path d="m0-5.749c-.176-.787-.464-1.502-.878-2.128-.13-.035-.26-.078-.391-.139-.945-.445-1.352-1.571-2.525-1.589-2.199-.035-2.908 4.181-5.147 3.413-1.064-.364-1.511-2.676-2.959-1.835-.781.454-.93 1.881-1.676 2.479-.575.46-1.159.54-1.881.418-.877-.146-1.899-1.168-2.693-1.094-.207.092-.419.17-.632.245-1.12.709-2.268 2.752-3.164 3.418-1.47 1.092-3.844.887-4.83 2.523-.665 1.105-.824 2.42-1.578 3.484-.115.164-.244.311-.385.445.586-.562 1.22-1.073 1.906-1.53 2.134-1.417 4.272-2.831 6.449-4.18.957-.594 1.975-1.142 3.035-1.506 2.389-.819 4.822-1.512 7.238-2.253.158-.048.324-.074.489-.094 1.651-.198 3.302-.393 4.954-.585.594-.071 1.19-.134 1.785-.193.45-.045.87.06 1.211.361.106.093.138.272.203.411-.164.078-.332.223-.495.22-.371-.009-.722-.35-1.165-.039.327.465.664.918.972 1.389.299.457.568.933.861 1.42.32-.245.564-.419.794-.61.593-.491.845-1.096.618-1.864-.057-.19-.073-.393-.116-.587" fill="#e9bf45" transform="matrix(5.55556 0 0 5.55556 401.257 209.5)"/><path d="m0-17.681c.457.268.903.537 1.355.795 1.678.955 3.328 1.966 5.047 2.84 1.296.658 1.846 1.617 1.817 3.034-.02.974-.232 1.907-.367 2.858-.201 1.403-.637 2.714-1.125 4.023-.583 1.561-1.683 2.7-3.002 3.646-.578.414-1.276.485-1.914.221-1.351-.559-2.674-1.185-3.996-1.811-.178-.084-.357-.3-.409-.489-.509-1.846-1.418-3.511-2.306-5.186-.184-.35-.488-.723-.467-1.069.018-.281.467-.518.678-.81.663-.916 1.352-1.819 1.942-2.782.75-1.219 1.427-2.483 2.105-3.744.247-.458.408-.962.642-1.526" fill="#ffd940" transform="matrix(5.55556 0 0 5.55556 562.768 496)"/><path d="m0 7.743c-2.497-3.2.288-8.352 1.598-11.47.071-.169.21-.253.356-.281-.096-.055-.192-.111-.288-.166-.453-.258-.898-.526-1.355-.795-.235.565-.396 1.068-.643 1.526-.679 1.261-1.355 2.525-2.104 3.745-.592.962-1.279 1.866-1.942 2.781-.212.291-.661.528-.679.811-.022.344.283.718.468 1.067.886 1.677 1.795 3.341 2.305 5.187.053.189.232.405.409.489 1.322.625 2.645 1.252 3.995 1.811.639.264 1.338.194 1.915-.22.811-.582 1.519-1.25 2.095-2.03-2.295-.031-4.73-.659-6.13-2.455" fill="#febf40" transform="matrix(5.55556 0 0 5.55556 561.046 425.4)"/><path d="m0-1.631c-.671.444-1.221.812-1.778 1.173-.081.052-.211.046-.273.11-.122.129-.213.287-.317.433.174.067.354.2.522.188.78-.064 1.498.195 2.374.359-.359.299-.639.505-.881.749-.099.099-.191.309-.149.416.043.113.252.23.385.226.51-.015.979.091 1.479.344-.143.442-.55.598-.799.888-.198.232-.16.486.134.527 1.283.174 1.596.977 1.451 2.117-.024.191-.003.387-.003.65-.992-.123-1.799-.795-3.028-.578.451.232.691.381.95.483.465.182.942.334 1.412.505.75.275.813.415.524 1.176-.033.087-.115.156-.172.229-1.768-.55-3.591-.717-5.399-.944-.515-.064-.613-.035-.694-.691-.547-4.414-1.49-8.732-3.495-12.74-.593-1.187-1.381-2.276-2.083-3.409-.099-.16-.216-.31-.402-.575 1.279.15 2.424.293 3.527.699.528.195 1.088.308 1.613.514.425.166.898.334 1.208.644.513.513.986 1.099 1.344 1.729.871 1.534 1.667 3.11 2.55 4.778" fill="#ffc920" transform="matrix(5.55556 0 0 5.55556 337.274 73.6)"/><path d="m0 3.266c.005-.006.009-.018.015-.023.242-.244.522-.45.881-.75-.877-.165-1.593-.422-2.375-.359-.167.012-.347-.121-.521-.187.104-.146.195-.305.316-.433.062-.065.193-.058.275-.111.555-.361 1.106-.729 1.777-1.173-.015-.029-.03-.056-.046-.085-1.975-.162-3.949-.139-5.897.249.297.951.54 1.917.762 2.889 1.611-.013 3.212-.101 4.813-.017" fill="#ffe217" transform="matrix(5.55556 0 0 5.55556 335.229 63.2)"/><path d="m0 1.777c1.498.314 3.053.165 4.55-.15-.267-.363-.555-.713-.87-1.028-.31-.31-.783-.478-1.208-.644-.27-.107-.549-.188-.829-.269-.474.755-1.063 1.417-1.643 2.091" fill="#ffe217" transform="matrix(5.55556 0 0 5.55556 295.19 25)"/><path d="m0-.087c-.133 1.724 1.019 3.729 3.212 3.551.983-.078 1.363-.429 1.612-1.414.328-1.299-.87-3.768-1.992-4.416-.922-.534-2.272-.282-2.866.554-.175.247-.389.573-.13.808.332.301.146.608.164.917m3.686 6.427c-2.017.144-3.215-1.167-4.242-2.495-.968-1.251-1.755-2.677-2.411-4.123-.624-1.372-.447-2.866.042-4.286.072-.211.329-.374.527-.526.443-.341.926-.634 1.349-.996.566-.485 1.216-.339 1.809-.228 1.463.272 2.781.868 3.821 1.992.586.633 1.221 1.221 1.837 1.826.994.977 1.411 2.232 1.702 3.546.065.291.13.584.172.879.084.6.124 1.198-.287 1.719-.04.052-.088.109-.102.17-.274 1.18-1.181 1.745-2.195 2.121-.636.235-1.346.274-2.022.401" fill="#10a8e1" transform="matrix(5.55556 0 0 5.55556 232.668 347)"/><path d="m0 13.394c.893-2.222 1.75-4.312 2.572-6.415.496-1.27.957-2.554 1.393-3.844.369-1.092.981-2.042 1.655-2.95.911-1.23 2.819-.992 3.559.419.283.537.445 1.115.375 1.732-.106.955-.226 1.908-.342 2.862-.135 1.11-.605 2.108-1.108 3.081-.947 1.832-1.935 3.643-2.901 5.464-.35.662-.356.696-1.056.434-.978-.366-1.994-.499-3.021-.603-.356-.037-.708-.112-1.126-.18" fill="#efbe8d" transform="matrix(5.55556 0 0 5.55556 708.432 198.3)"/><path d="m0-11.075c.242-.419.417-.701.569-.995.09-.174.257-.428.196-.54-.371-.679.202-.766.57-.979.82-.476 1.705-.733 2.65-.82.263-.023.443.008.576.257 1.067 1.995 2.41 3.844 3.191 5.989.968 2.663 1.713 5.387 2.219 8.174.142.785.267 1.572.384 2.362.035.226.065.493-.279.528-1.354.14-2.709.284-4.065.402-.62.054-.621.026-.647-.659-.044-1.198-.077-2.396-.137-3.593-.085-1.694-.335-3.349-.803-4.998-.416-1.464-1-2.81-1.815-4.075-.072-.112-.147-.221-.219-.334-.311-.482-.722-.768-1.327-.723-.295.023-.594.004-1.063.004" fill="#ffc920" transform="matrix(5.55556 0 0 5.55556 252.613 98.5)"/><path d="m0 3.857h-.9c-.668-.001-1.217-.175-1.571-.828-.202-.372-.524-.689-.838-.982-.102-.095-.349-.035-.53-.046-.009.181-.09.401-.016.534.179.317.448.58.646.887.288.445.607.885.802 1.371.377.938.018 1.621-.925 1.953-.744.262-1.385.138-2.077-.281-1.393-.84-2.126-2.126-2.48-3.604-.211-.883-.122-1.852-.078-2.779.025-.542.41-.898.975-.985.492-.077.985-.18 1.48-.202 1.386-.061 2.658.32 3.687 1.251.507.459.927.539 1.585.375 1.44-.358 2.32-1.224 2.79-2.585.346-1.002.689-1.087 1.569-.462.976.692 1.159 1.672.999 2.746-.082.554-.253 1.108-.472 1.624-.441 1.03-1.311 1.583-2.364 1.807-.744.157-1.514.184-2.274.269-.003-.022-.005-.042-.008-.063" fill="#efbe8d" transform="matrix(5.55556 0 0 5.55556 302.663 470.1)"/><path d="m0-15.661c.642-.238.971-.043 1.289.3 1.049 1.135 1.793 2.478 2.596 3.779.146.237.214.571.196.852-.075 1.158-.117 2.328-.322 3.465-.282 1.567-.699 3.11-1.065 4.66-.176.744-.372 1.481-.554 2.222-.084.343-.29.508-.646.486-.132-.009-.266-.001-.4-.001-3.097.013-6.197.136-9.288.008-2.962-.123-5.612-1.105-7.355-3.735-.516-.778-1.02-1.564-1.491-2.37-.38-.652-.339-.717.456-1.284.13.227.234.467.39.664.224.281.441.635.745.77.535.238.949.555 1.288 1.028.62.865 1.575.936 2.512.897.324-.014.544-.045.781.215 1.031 1.134 2.289 1.526 3.798 1.155.197-.048.474.137.687.26 1.765 1.022 3.584 1.195 5.437.297 1.412-.684 2.222-1.782 2.074-3.427-.039-.432-.022-.679.516-.866.799-.273 1.268-.955 1.279-1.847.012-.981-.128-1.931-.776-2.727-.175-.215-.289-.415-.189-.722.521-1.6-.112-2.78-1.396-3.707-.133-.097-.273-.182-.562-.372" fill="#efbe8d" transform="matrix(5.55556 0 0 5.55556 421.913 462.9)"/><path d="m0-6.006c.716 0 1.376-.01 2.035.002 1.461.027 2.921.098 4.381.08.621-.007 1.251-.148 1.854-.311.439-.12.687-.032.88.367.116.236.281.452.448.659.197.243.374.356.753.18.668-.308 1.023-.029 1.261.66.178.519.491.99.728 1.453-.165.541-.364 1.097-.498 1.668-.075.323-.236.356-.497.302-.195-.041-.39-.096-.586-.106-.764-.038-1.459.137-1.979.741-.314.364-.597.46-1.116.289-.687-.226-1.449-.223-2.124.189-.216.132-.416.182-.629-.021-.531-.504-1.208-.659-1.896-.81-.199-.044-.438-.182-.536-.349-.352-.597-.661-1.22-.967-1.843-.493-1.006-.97-2.02-1.512-3.15" fill="#efbe8d" transform="matrix(5.55556 0 0 5.55556 340.257 417.6)"/><path d="m0 10.816c-.647-.533-1.155-1.014-1.725-1.402-.574-.391-1.21-.688-1.902-1.072.279-.283.567-.54.815-.83.845-.987 1.673-1.99 2.516-2.978 1.298-1.522 2.582-3.06 4.292-4.156.588-.376.989-.378 1.475-.033.286.204.457.46.486.828.097 1.291-.058 2.505-.792 3.63-1.228 1.882-2.662 3.576-4.336 5.075-.318.284-.57.641-.829.938" fill="#efbe8d" transform="matrix(5.55556 0 0 5.55556 760.722 234.1)"/><path d="m0 5.869c-.773-.006-1.514-.116-2.215-.49-1.426-.763-1.738-2.657-1.091-3.92.289-.563.833-.788 1.353-.951 1.683-.527 3.265-.407 4.661.843 1.57 1.407.948 3.105-.247 3.872-.767.492-1.35.665-2.461.646" fill="#7ccff4" transform="matrix(5.55556 0 0 5.55556 402.935 417.1)"/><path d="m0-9.447c.07 0 .203-.008.337.002.691.051.672.075.563.752-.35 2.173-.143 4.255 1.178 6.104.227.318.572.551.861.824.399.377.402.711.01 1.104-.632.635-1.711.748-2.351.121-1.309-1.286-2.514-2.674-3.275-4.372-.478-1.068-.332-2.177.15-3.194.472-.996 1.353-1.428 2.527-1.341" fill="#efbe8d" transform="matrix(5.55556 0 0 5.55556 250.035 516.1)"/><path d="m0 1.449c-.036 1.426-.299 2.629-.851 3.736-.421.842-1.117 1.484-1.941 1.951-.372.211-.515.106-.59-.323-.123-.685-.267-1.367-.364-2.056-.048-.342-.156-.701.24-.985 1.227-.879 1.454-2.156 1.309-3.548-.091-.869-.344-1.677-.877-2.402-.435-.591-.936-1.04-1.681-1.132-.295-.037-.516-.121-.579-.434-.116-.585-.228-1.172-.335-1.759-.06-.329.148-.395.411-.395.033 0 .069.004.098.017 1.696.773 3.481 1.43 4.082 3.495.278.954.639 1.883.925 2.834.112.376.121.781.153 1.001" fill="#10a8e1" transform="matrix(5.55556 0 0 5.55556 440.324 262.3)"/><path d="m0 4.353h-2.665c-1.628 0-3.255.007-4.882-.002-.605-.004-.619-.021-.622-.613-.006-1.029-.005-2.059.02-3.088.014-.574.077-.636.638-.642 1.195-.015 2.391-.015 3.586.01.204.004.486.097.592.247.962 1.36 2.092 2.572 3.238 3.771.039.042.038.122.095.317" fill="#fbb040" transform="matrix(5.55556 0 0 5.55556 452.379 467.3)"/><path d="m0 9.635c-.544-.144-1.116-.274-1.673-.449-.573-.181-.797-.583-.835-1.202-.123-1.949.524-3.73 1.111-5.525.086-.259.328-.508.561-.671.761-.532 1.545-1.034 2.336-1.524.427-.264 1.44.18 1.571.664.015.058.01.131-.011.188-.034.092-.076.187-.138.263-1.388 1.741-1.864 3.873-2.509 5.925-.225.716-.269 1.488-.413 2.331" fill="#603812" transform="matrix(5.55556 0 0 5.55556 269.418 209.8)"/><path d="m0 8.476c-1.303-1.25-2.452-2.496-3.432-3.889-.136-.194-.249-.503-.196-.714.263-1.062.6-2.106.879-3.165.187-.708.323-.566.738-.426.978.328 1.965.63 2.925 1.001.738.285.746.331.576 1.104-.405 1.849-.836 3.692-1.263 5.537-.037.159-.123.305-.227.552" fill="#ffd940" transform="matrix(5.55556 0 0 5.55556 456.624 442.4)"/><path d="m0-2.955c.122-.463.193-.928.367-1.348.573-1.382 1.171-1.687 2.874-1.367.484.09.511.21.386.689-.125.48-.247.962-.322 1.452-.185 1.213.175 2.302.849 3.296.372.55.776 1.079 1.172 1.612.398.537.34.963-.223 1.297-.552.328-1.115.359-1.694.012-.848-.509-1.514-1.202-1.996-2.049-.411-.72-.771-1.474-1.09-2.239-.174-.417-.217-.89-.323-1.355" fill="#efbe8d" transform="matrix(5.55556 0 0 5.55556 211.94 498)"/><path d="m0 2.569c.854-1.477 1.462-3.199 3.294-3.893.584-.221 1.221-.3 1.837-.437.312-.069.465.059.576.375.231.658.535 1.291.787 1.942.051.13.066.374-.01.436-.423.349-.484.862-.657 1.321-.408 1.08-1.174 1.762-2.289 2.036-.173.043-.446.05-.548-.052-.81-.801-1.865-1.137-2.869-1.57-.027-.011-.04-.05-.121-.158" fill="#efbe8d" transform="matrix(5.55556 0 0 5.55556 280.024 444.9)"/><path d="m0 13.246c.213-.198.411-.416.643-.591 1.464-1.109 2.379-2.601 2.916-4.318.626-2.003 1.101-4.047 1.063-6.165-.01-.589-.159-1.178-.27-1.763-.092-.487.046-.708.515-.705.501.002.915.188 1.157.648.123.235.255.482.296.738.209 1.318.316 2.635-.133 3.938-.161.469-.292.954-.374 1.443-.326 1.951-1.186 3.666-2.337 5.237-.43.586-.988 1.081-1.51 1.594-.129.128-.346.226-.526.23-.455.013-.913-.037-1.368-.061-.024-.075-.049-.15-.072-.225" fill="#fbb040" transform="matrix(5.55556 0 0 5.55556 585.924 423.2)"/><path d="m0 .009c0 .6.002 1.2-.001 1.8-.001.237-.117.375-.363.375-1.266 0-2.533-.002-3.799-.007-.065 0-.13-.028-.195-.044-.975-.245-1.061-.396-.84-1.381.166-.746.321-1.494.459-2.246.063-.344.205-.535.579-.544 1.232-.033 2.464-.078 3.696-.125.337-.012.481.128.471.472-.014.567-.003 1.134-.003 1.7z" fill="#ffd940" transform="matrix(5.55556 0 0 5.55556 403.513 479.3)"/><path d="m0-7.099c.089 1.781.814 3.361 1.38 4.986.053.154.159.29.241.434.106.186.401.312.228.593-.153.248-.292.538-.516.705-.511.381-2.372.309-2.891-.091-.175-.135-.323-.344-.407-.55-.682-1.676-.797-3.408-.492-5.183.066-.386.205-.556.63-.583.586-.038 1.165-.192 1.827-.311" fill="#10a8e1" transform="matrix(5.55556 0 0 5.55556 267.99 423.8)"/><path d="m0 6.095c-1.244-.363-2.419-.704-3.594-1.048-.489-.144-.523-.162-.355-.702.395-1.269.664-2.563.816-3.881.029-.251.085-.464.401-.447.894.05 1.789.095 2.682.157.235.017.466.094.47.405.022 1.825-.026 3.645-.368 5.445-.006.029-.038.052-.052.071" fill="#fbb040" transform="matrix(5.55556 0 0 5.55556 465.579 412.4)"/><path d="m0 11.122c-.138-.125-.24-.195-.313-.289-.682-.87-.641-.839.049-1.683.478-.585.904-1.238 1.222-1.922.972-2.078 1.659-4.261 2.205-6.487.155-.632.34-.741.852-.424.678.419 1.17.925 1.041 1.857-.093.666-.215 1.292-.523 1.898-1.085 2.134-2.389 4.135-3.708 6.127-.215.325-.523.588-.825.923" fill="#fbb040" transform="matrix(5.55556 0 0 5.55556 530.318 382)"/><path d="m0-2.137c.269-.711.549-1.451.869-2.298.365.251.73.462 1.052.728.918.764 1.852 1.514 2.718 2.335.781.74 1.187 1.671 1.039 2.786-.074.555-.262.767-.814.815-.792.069-1.422-.041-1.958-.823-.841-1.225-1.882-2.314-2.906-3.543" fill="#fbb040" transform="matrix(5.55556 0 0 5.55556 438.835 307.1)"/><path d="m0-4.691c1.569.454 3.027.877 4.565 1.321-.218.994-.441 1.992-.654 2.992-.063.293-.224.378-.503.299-1.278-.364-2.566-.692-3.832-1.096-.823-.262-.875-.437-.549-1.252.309-.769.654-1.524.973-2.264" fill="#fbb040" transform="matrix(5.55556 0 0 5.55556 349.007 487.4)"/><path d="m0 5.171c-.544.019-.914-.196-1.223-.676-.392-.607-.885-1.153-1.363-1.699-.393-.449-.836-.855-1.242-1.294-.151-.162-.389-.39-.36-.543.061-.31.241-.619.446-.868.086-.105.372-.11.543-.068 1.572.382 2.99 1.103 4.301 2.033.713.505 1.001 1.338.763 2.005-.199.557-1.148 1.122-1.865 1.11" fill="#10a8e1" transform="matrix(5.55556 0 0 5.55556 302.835 367.2)"/><path d="m0 2.826c-.191.443-.383 1.049-.7 1.579-.294.489-1.2.538-1.703.099-.285-.25-.521-.61-.656-.965-.376-.994-.719-2.002-1.013-3.021-.136-.471-.159-.982-.165-1.476-.004-.198.122-.468.279-.586.468-.355.534-.573 1.041.019.432.503.931.95 1.415 1.406.674.636 1.034 1.458 1.388 2.284.063.147.058.324.114.661" fill="#fbb040" transform="matrix(5.55556 0 0 5.55556 295.879 388.7)"/><path d="m0 6.158c-1.28.363-2.169.131-2.935-.944-.517-.725-.911-1.544-1.318-2.341-.361-.707-.198-1.435.075-2.127.283-.717 1.335-1.109 2.03-.765.104.052.208.287.176.4-.325 1.153.067 2.166.581 3.156.457.879.928 1.75 1.391 2.621" fill="#efbe8d" transform="matrix(5.55556 0 0 5.55556 219.601 475.5)"/><path d="m0 .109c-.049.265-.077.496-.138.718-.059.221-.202.285-.45.261-2.087-.197-4.174-.222-6.259.031-.625.075-1.254.106-1.877.189-.281.038-.437-.063-.561-.292-.11-.201-.145-.371.118-.473.063-.024.122-.057.185-.075 1.504-.408 2.995-.882 4.518-1.202 1.196-.251 2.432-.313 3.65-.459.357-.044.582.122.665.456.072.286.104.581.149.846" fill="#603812" transform="matrix(5.55556 0 0 5.55556 374.774 186.1)"/><path d="m0 5.547c-1.085-.092-1.576-.458-1.863-1.421-.257-.859-.51-1.721-.823-2.56-.151-.406-.139-.686.224-.94.19-.133.352-.304.527-.458.189-.168.361-.134.509.053 1.011 1.276 2.048 2.532 3.015 3.841.44.595.379.68-.314 1.008-.408.194-.848.32-1.275.477" fill="#10a8e1" transform="matrix(5.55556 0 0 5.55556 445.335 298.2)"/><path d="m0-4.555c.777.002 1.88.895 2.08 1.715.093.386.147.785.184 1.181.059.637-.296 1.079-.781 1.41-.37.251-.781.13-1.158-.182-.559-.466-1.143-.901-1.726-1.336-.253-.189-.655-.21-.676-.647-.023-.438-.005-.861.274-1.237.402-.539 1.117-.906 1.803-.904" fill="#7ccff4" transform="matrix(5.55556 0 0 5.55556 421.913 425.6)"/><path d="m0-5.99c-.117.785-.245 1.499-.328 2.219-.128 1.114.188 2.169.468 3.23.152.579.102.671-.471.649-.423-.018-.861-.085-1.258-.225-.429-.15-.719-.504-.735-.981-.046-1.427-.102-2.857.431-4.229.306-.786.297-.793 1.136-.742.254.015.507.052.757.079" fill="#fbb040" transform="matrix(5.55556 0 0 5.55556 251.024 419.8)"/><path d="m0 4.383c-1.01 0-1.966.014-2.92-.017-.132-.004-.381-.255-.364-.354.235-1.335-.464-2.366-1.087-3.467.301-.322.728-.193 1.085-.298.887-.261 1.338.118 1.778.861.543.918 1.109 1.813 1.431 2.838.036.118.044.244.077.437" fill="#ffd940" transform="matrix(5.55556 0 0 5.55556 466.796 384.8)"/><path d="m0-6.775c.225.3.409.439.445.61.186.905.572 1.773.478 2.73-.031.33.002.665-.004.997-.013.661.051 1.37-.689 1.721-.302.144.023.717-.442.628-.219-.041-.371-.354-.592-.475-.398-.219-.827-.385-1.274-.588.399-.813.896-1.659 1.235-2.565.343-.921.532-1.901.843-3.058" fill="#603812" transform="matrix(5.55556 0 0 5.55556 418.39 376.2)"/><path d="m0-4.224c-.736 1.271-.868 2.543-.391 3.871.105.289-.004.426-.31.462-.92.108-1.704-.161-2.355-.814-.411-.412-.532-.877-.344-1.454.493-1.511 1.683-2.282 3.4-2.065" fill="#7ccff4" transform="matrix(5.55556 0 0 5.55556 382.224 444.4)"/><path d="m0-2.178c-.556.734-1.073 1.494-1.182 2.454-.017.143-.234.327-.395.379-.801.264-1.872-.241-2.263-1.032-.359-.723-.142-1.765.485-2.261.151-.12.335-.225.521-.27.779-.189 2.066.146 2.834.73" fill="#7ccff4" transform="matrix(5.55556 0 0 5.55556 365.557 433.2)"/><path d="m0 1.363c0 .132.009.266-.002.398-.022.281-.167.451-.456.347-.733-.261-1.442-.164-2.133.12-.396.162-.636-.017-.849-.298-.895-1.184-.283-2.724 1.168-2.93.189-.027.399-.005.583.049.975.29 1.704 1.295 1.689 2.314" fill="#7ccff4" transform="matrix(5.55556 0 0 5.55556 429.207 385.4)"/><path d="m0 4.393c.065-.284.096-.55.187-.794.476-1.281.481-2.588.242-3.912-.033-.187-.119-.439.17-.465.166-.014.377.088.509.204.111.099.153.289.202.446.387 1.231.747 2.47 1.162 3.691.176.516-.064.84-.385 1.132-.36.326-.804.49-1.275.257-.291-.144-.541-.369-.812-.559" fill="#fbb040" transform="matrix(5.55556 0 0 5.55556 419.529 309.7)"/><path d="m0-3.46c.31-.451.601-.876.916-1.334.513.615.97 1.178 1.447 1.726.217.249.456.486.715.692.696.55.703.542.346 1.413-.314.766-.63 1.53-.945 2.297-.612-.209-.61-.209-.561-.725.025-.263.046-.527.06-.793.064-1.194-.423-2.127-1.366-2.837-.184-.137-.373-.268-.612-.439" fill="#ffd940" transform="matrix(5.55556 0 0 5.55556 324.768 469.2)"/><path d="m0 2.285c.938-.563 1.326-1.372 1.721-2.285 1.828 1.174 3.905 1.632 5.927 2.285z" fill="#efbe8d" transform="matrix(5.55556 0 0 5.55556 324.713 478.6)"/><path d="m0 5.814c-.089-1.804-1.145-3.22-.985-4.91.016-.165-.012-.333 0-.499.023-.311.233-.405.486-.31.209.077.422.207.57.372.543.605.946 1.284.958 2.133.006.466.031.932.023 1.397-.012.709-.303 1.277-1.052 1.817" fill="#fbb040" transform="matrix(5.55556 0 0 5.55556 417.929 247.2)"/><path d="m0-4.323c.081.092.184.168.236.272.294.587.582 1.176.857 1.772.062.134.134.336.077.439-.3.551-.62 1.092-.973 1.608-.158.232-.441.172-.527-.101-.309-.974-.728-1.912-.838-2.953-.049-.459.028-.693.461-.81.223-.06.44-.141.707-.227" fill="#fbb040" transform="matrix(5.55556 0 0 5.55556 320.807 449.7)"/><path d="m0 3.687c-.732-.363-.875-.932-.946-1.534-.073-.617.043-1.195.482-1.661.448-.474 1.617-.492 2.118-.051.261.228.261.471-.048.608-1.098.486-1.557 1.37-1.606 2.638" fill="#7ccff4" transform="matrix(5.55556 0 0 5.55556 339.018 407.7)"/><path d="m0 1.15c-.229.023-.46.032-.687.07-.381.065-.89.336-1.113.183-.475-.326-.812-.86-1.184-1.327-.141-.178.058-.482.327-.446.453.062.934.128 1.333.33.517.263.964.664 1.44 1.004-.039.062-.077.124-.116.186" fill="#fbb040" transform="matrix(5.55556 0 0 5.55556 449.724 375.1)"/><path d="m-1.677-2.156c-.095.673-.153 1.286-.275 1.888-.064.314.005.524.275.656.565.279 1.334-.235 1.299-.858-.051-.914-.483-1.465-1.299-1.686" fill="#7ccff4" transform="matrix(-3.88667 -3.96964 -3.96964 3.88667 395.963 377.5)"/><path d="m0 1.812c-.247.022-.376.035-.507.045-.371.027-.744.058-.956-.347-.193-.368-.092-1.081.208-1.411.186-.202.377-.134.481.071.256.5.482 1.017.774 1.642" fill="#7ccff4" transform="matrix(5.55556 0 0 5.55556 345.707 394.4)"/><path d="m0 9.729c-.12.192-.251.378-.357.577-.297.555-.195.945.356 1.246.23.126.492.212.749.267 2.205.468 4.434.611 6.637.109 1.412-.322 1.754-.49.917-2.036-1.177-2.171-2.516-4.243-3.96-6.242-1.13-1.565-2.355-3.06-3.511-4.608-.476-.638-.888-1.327-1.311-2.004-.055-.087-.036-.332.005-.347.135-.049.341-.087.437-.016.238.175.458.391.636.628 1.526 2.019 3.086 4.016 4.544 6.083 1.246 1.768 2.371 3.622 3.552 5.438.123.19.259.372.41.587.468-.594.328-1.081-.09-1.561-.179-.204-.563-.436-.173-.724.326-.24.55.116.736.32.523.571.623 1.258.325 1.952-.225.523-.43.992-.356 1.609.091.752-.262 1.099-1.004 1.404-1.003.412-2.057.523-3.119.599-1.608.115-3.192-.097-4.761-.42-.384-.079-.765-.239-1.11-.43-.498-.274-.808-.692-.73-1.307.083-.647.392-1.093 1.178-1.124" fill="#231f20" transform="matrix(5.55556 0 0 5.55556 329.113 238.2)"/><path d="m0 1.306c-.099.127-.265.377-.472.587-.061.063-.27.059-.351.002-.077-.055-.142-.26-.099-.331.502-.838.557-1.763.56-2.701.001-.097.024-.205.073-.286.048-.078.15-.186.214-.177.113.013.295.094.308.171.062.386.126.782.101 1.169-.052.79-.017.961.71 1.206 1.543.518 3.085 1.067 4.765.939.445-.035.847-.108 1.226-.35.448-.287.923-.534 1.367-.827.508-.338.905-.773 1.111-1.371.041-.118.31-.284.354-.254.144.098.342.298.319.422-.057.314-.152.674-.361.896-.428.455-.925.852-1.421 1.238-1.591 1.237-3.377 1.276-5.215.75-1.02-.293-2.013-.68-3.189-1.083" fill="#231f20" transform="matrix(5.55556 0 0 5.55556 325.54 344.5)"/><path d="m0-1.256c.047-.09.105-.381.259-.445.151-.062.481.042.588.182.316.413.595.864.811 1.336.068.149-.044.493-.185.595-.131.095-.46.062-.614-.043-.514-.347-.823-.845-.859-1.625" fill="#231f20" transform="matrix(5.55556 0 0 5.55556 299.979 276.3)"/><path d="m0 .834c-.013.41-.232.602-.504.525-.504-.145-1.07-.826-1.032-1.322.015-.205.136-.489.294-.569.14-.07.459.031.593.164.35.346.626.76.649 1.202" fill="#231f20" transform="matrix(5.55556 0 0 5.55556 366.007 241.6)"/><path d="m0 1.511c.013 1.328-.245 1.564-1.182 1.5-.561-.038-1.029-.258-1.402-.67-.78-.865-.928-1.894-.687-2.983.135-.606.832-.922 1.42-.697.182.07.367.179.501.317.788.811 1.24 1.785 1.35 2.533" fill="#fbb040" transform="matrix(5.55556 0 0 5.55556 254.718 345)"/><path d="m0-3.098s12.058-2.498 16.341 1.549c4.282 4.047-6.683-2.574-14.117.574-7.435 3.147-6.916-.314-2.224-2.123" fill="#fff" transform="matrix(5.55556 0 0 5.55556 262.985 148.5)"/><path d="m0-21.365s-6.191.318.167 7.132 8.802 5.231 8.802 5.231 2.502 3.931-1.661 4.062c-4.164.131-4.168 4.01-4.168 4.01s-1.99.93-1.992-1.206c-.002-2.134-.193-5.726-.193-5.726s-9.51-10.498-.955-13.503" fill="#262261" opacity=".2" transform="matrix(5.55556 0 0 5.55556 231.74027056 425.5879112)"/><path d="m0 1.568c-.11-.748-.562-1.722-1.35-2.533-.134-.138-.319-.247-.501-.317-.588-.225-1.285.091-1.42.697-.241 1.089-.093 2.118.687 2.983.373.412.841.632 1.402.67.937.064 1.195-.172 1.182-1.5m-3.97-1.242c-.018-.309.168-.616-.164-.917-.259-.236-.045-.561.131-.808.593-.837 1.943-1.087 2.865-.554 1.122.648 2.321 3.116 1.993 4.415-.249.985-.63 1.337-1.612 1.415-2.193.177-3.346-1.828-3.213-3.551" fill="#231f20" transform="matrix(5.55556 0 0 5.55556 254.718 344.7)"/><path d="m1.964-7.012s-4.4 9.479-3.715 10.414c.686.936 3.942.093 3.715-.948-.227-1.042-1.794.568-1.553-.826.241-1.395 4.337-12.945 1.553-8.64" fill="#fff" opacity=".3" transform="matrix(-5.38281541736 1.3746122108 1.3746122108 5.38281541736 358.44037192 282.62113016)"/><path d="m0-7.654s2.719 5.36-2.085 6.505c-4.805 1.145-13.248-2.101-12.988 1.624s3.263 5.796 3.263 5.796h-8.608s3.868-3.44.621-7.684c0 0-2.393-1.185-2.612 2.011-.22 3.198-6.053-.795-6.053-.795s.788-4.926 6.172-4.986c0 0-1.802-1.684 2.783-1.617 0 0-.917-2.115 1.2-2.167 2.118-.052.687-4.729.687-4.729l8.271-.229s-11.562 4.862-4.118 8.903c7.446 4.042 11.596 3.056 13.467-2.632" fill="#a87b50" opacity=".2" transform="matrix(5.55556 0 0 5.55556 438.14599124 460.27682784)"/><path d="m0 52.249c-.292-.625-.518-1.142-.774-1.642-.104-.205-.295-.273-.481-.071-.3.33-.401 1.043-.208 1.411.212.405.585.374.956.347.131-.01.26-.023.507-.045m11.76-5.173c-.728-.429-1.424-.352-2.114.251-.469.41-.298 1.321.296 1.529.284.1.482.003.663-.264.343-.506.74-.978 1.155-1.516m6.963 1.037c.039-.062.078-.125.117-.187-.477-.341-.925-.74-1.44-1.003-.399-.204-.881-.268-1.334-.33-.269-.037-.468.268-.327.445.372.467.708 1.002 1.184 1.328.223.153.731-.118 1.114-.183.226-.038.457-.048.686-.07m-19.926 8.4c.048-1.268.507-2.152 1.604-2.638.311-.137.311-.379.049-.609-.5-.44-1.669-.422-2.118.052-.438.466-.554 1.044-.481 1.662.07.601.213 1.17.946 1.533m-3.279-.447c-.267.086-.484.167-.707.227-.434.117-.511.351-.462.81.11 1.04.529 1.978.838 2.953.087.273.37.333.527.101.354-.517.673-1.058.973-1.608.057-.103-.014-.305-.076-.439-.275-.596-.564-1.185-.857-1.772-.052-.104-.156-.181-.236-.272m17.482-26.311c.748-.54 1.041-1.108 1.053-1.817.008-.465-.018-.93-.025-1.397-.01-.849-.415-1.528-.957-2.133-.148-.164-.361-.295-.57-.372-.254-.096-.463-.002-.486.31-.013.166.016.334 0 .499-.16 1.69.896 3.106.985 4.91m-16.779 38.12h7.648c-2.021-.653-4.098-1.111-5.927-2.284-.395.911-.782 1.72-1.721 2.284m.01-7.442c.239.172.428.301.612.439.943.711 1.43 1.642 1.366 2.837-.014.265-.035.53-.06.794-.049.514-.052.514.561.724.315-.767.631-1.532.944-2.298.358-.87.351-.862-.345-1.413-.259-.205-.498-.442-.715-.692-.477-.547-.934-1.11-1.447-1.725-.315.459-.607.883-.916 1.334m17.058-20.865c.27.19.521.415.811.559.471.233.916.068 1.275-.257.322-.292.561-.616.385-1.133-.415-1.22-.775-2.46-1.161-3.691-.05-.156-.091-.346-.203-.445-.132-.116-.343-.219-.509-.204-.289.025-.202.278-.169.465.237 1.324.233 2.631-.243 3.911-.09.244-.122.511-.186.795m1.741 10.608c.015-1.018-.714-2.024-1.689-2.314-.184-.054-.394-.075-.583-.049-1.451.206-2.063 1.746-1.168 2.93.213.281.453.46.848.298.691-.282 1.401-.38 2.134-.119.289.103.434-.067.456-.348.01-.131.002-.264.002-.398m-11.457 5.066c-.768-.585-2.055-.918-2.835-.729-.185.044-.369.15-.52.27-.628.495-.844 1.537-.485 2.26.391.791 1.462 1.296 2.263 1.033.161-.053.378-.237.394-.38.109-.96.627-1.719 1.183-2.454m3.001-.044c-1.718-.217-2.908.556-3.401 2.065-.189.577-.066 1.042.344 1.454.651.655 1.436.923 2.355.815.306-.036.414-.174.311-.462-.479-1.327-.346-2.601.391-3.872m6.509-14.823c-.311 1.157-.499 2.137-.843 3.059-.338.905-.836 1.751-1.234 2.565.447.202.875.369 1.275.587.219.121.371.434.59.475.465.09.141-.484.443-.627.739-.352.676-1.061.688-1.722.006-.332-.027-.666.005-.996.093-.957-.293-1.826-.479-2.73-.035-.171-.219-.31-.445-.611m8.713 12.705c-.032-.193-.04-.32-.077-.438-.322-1.025-.888-1.919-1.43-2.837-.439-.744-.891-1.123-1.779-.862-.357.106-.784-.023-1.085.299.624 1.101 1.322 2.132 1.087 3.467-.017.099.233.35.365.354.954.031 1.91.017 2.919.017m-38.839-4.066c-.25-.027-.503-.063-.757-.079-.838-.05-.83-.043-1.136.743-.533 1.371-.477 2.801-.43 4.229.015.477.305.831.733.982.399.138.836.206 1.259.223.573.023.623-.069.47-.649-.279-1.059-.595-2.116-.467-3.23.084-.719.211-1.434.328-2.219m30.76 2.479c-.686-.002-1.401.365-1.803.904-.279.376-.297.798-.274 1.237.022.437.423.457.676.646.583.436 1.167.871 1.727 1.336.376.312.788.434 1.157.182.485-.33.84-.772.781-1.41-.037-.396-.091-.794-.184-1.181-.2-.819-1.303-1.712-2.08-1.714m4.216-12.834c.426-.157.867-.283 1.276-.477.692-.329.754-.413.314-1.008-.968-1.309-2.005-2.566-3.015-3.842-.149-.187-.321-.22-.511-.052-.173.154-.337.325-.526.458-.363.254-.374.534-.224.94.313.839.566 1.701.822 2.56.288.963.779 1.329 1.864 1.421m-12.701-25.62c-.045-.265-.078-.56-.15-.846-.083-.334-.307-.5-.664-.457-1.219.146-2.454.208-3.65.459-1.523.321-3.014.794-4.518 1.203-.063.018-.123.05-.186.074-.263.102-.227.272-.118.474.125.229.28.328.562.291.623-.083 1.252-.114 1.876-.189 2.086-.252 4.173-.227 6.26-.03.248.023.391-.041.45-.261.06-.222.088-.454.138-.718m-27.932 58.148c-.462-.872-.934-1.743-1.39-2.622-.514-.99-.907-2.002-.582-3.155.033-.113-.072-.349-.176-.401-.694-.344-1.746.049-2.03.765-.273.692-.436 1.42-.074 2.128.406.797.8 1.615 1.317 2.34.767 1.075 1.655 1.307 2.935.945m13.732-18.956c-.056-.338-.052-.514-.115-.661-.353-.826-.713-1.648-1.388-2.284-.484-.456-.982-.903-1.414-1.406-.509-.592-.575-.374-1.042-.019-.156.118-.282.388-.28.586.008.494.031 1.005.166 1.476.294 1.019.636 2.027 1.013 3.02.135.356.371.716.657.966.503.439 1.409.39 1.702-.099.317-.53.51-1.136.701-1.579m1.251-1.522c.718.012 1.665-.552 1.865-1.11.238-.666-.05-1.5-.764-2.005-1.31-.929-2.729-1.651-4.299-2.033-.173-.042-.458-.037-.545.069-.204.248-.385.557-.445.867-.029.153.209.381.36.543.406.439.848.845 1.242 1.294.478.546.971 1.092 1.362 1.699.31.48.68.695 1.224.676m8.311 11.769c-.319.74-.664 1.495-.972 2.264-.327.816-.275.99.548 1.253 1.266.404 2.554.731 3.832 1.095.279.079.439-.005.503-.299.213-1 .436-1.998.654-2.991-1.538-.445-2.996-.867-4.565-1.322m16.169-29.909c1.025 1.228 2.065 2.317 2.906 3.543.537.782 1.167.892 1.957.823.553-.048.742-.26.815-.815.148-1.115-.259-2.046-1.039-2.786-.866-.821-1.799-1.572-2.719-2.335-.32-.266-.686-.478-1.05-.728-.321.847-.601 1.587-.87 2.298m16.467 26.747c.302-.335.61-.599.825-.924 1.319-1.991 2.623-3.992 3.708-6.127.308-.606.43-1.231.523-1.898.129-.931-.363-1.437-1.041-1.857-.512-.317-.697-.207-.852.424-.546 2.227-1.234 4.409-2.205 6.487-.318.684-.744 1.338-1.223 1.923-.689.843-.73.812-.048 1.682.073.094.175.164.313.29m-11.653.449c.014-.018.045-.042.052-.071.343-1.8.389-3.62.368-5.445-.004-.312-.235-.388-.471-.405-.893-.062-1.787-.107-2.682-.157-.316-.017-.371.196-.4.447-.152 1.319-.422 2.612-.817 3.881-.167.54-.134.557.356.701 1.174.345 2.35.686 3.594 1.049m-35.566-11.142c-.663.12-1.241.273-1.827.311-.425.028-.564.198-.631.583-.305 1.774-.189 3.507.493 5.184.084.205.233.414.407.549.519.4 2.38.472 2.891.091.224-.167.362-.457.516-.705.173-.281-.122-.406-.228-.593-.082-.144-.188-.28-.242-.434-.565-1.625-1.29-3.205-1.379-4.986m24.394 17.096h.004c0-.566-.011-1.133.003-1.699.01-.344-.134-.484-.472-.471-1.231.045-2.463.09-3.695.123-.374.01-.516.201-.58.544-.137.752-.292 1.501-.459 2.247-.22.985-.134 1.136.841 1.381.065.016.13.043.195.043 1.266.005 2.533.008 3.799.009.246 0 .362-.14.363-.376.003-.6.001-1.2.001-1.801m32.834 3.135c.024.076.048.15.073.225.455.024.912.074 1.368.062.179-.005.396-.103.525-.231.522-.513 1.08-1.007 1.51-1.594 1.151-1.571 2.012-3.286 2.338-5.237.082-.489.213-.974.373-1.443.448-1.302.341-2.62.133-3.938-.04-.256-.173-.503-.297-.738-.24-.46-.655-.646-1.155-.648-.47-.003-.608.218-.515.705.111.585.259 1.174.27 1.763.038 2.118-.437 4.162-1.064 6.165-.537 1.717-1.452 3.209-2.917 4.318-.231.175-.429.393-.642.591m-55.061-6.765c.081.107.094.146.12.157 1.005.434 2.059.769 2.869 1.571.103.101.376.094.548.051 1.116-.274 1.881-.956 2.289-2.036.174-.46.235-.972.658-1.32.076-.063.06-.307.01-.437-.252-.651-.556-1.283-.787-1.941-.111-.317-.264-.445-.577-.375-.615.136-1.253.215-1.837.436-1.833.693-2.439 2.417-3.293 3.894m-12.257 4.035c.107.465.15.937.324 1.356.318.765.678 1.518 1.089 2.238.484.847 1.148 1.539 1.997 2.049.578.348 1.142.315 1.694-.012.563-.334.62-.761.223-1.297-.396-.533-.8-1.062-1.173-1.612-.673-.995-1.033-2.083-.849-3.297.075-.488.197-.972.322-1.451.126-.479.098-.599-.386-.69-1.702-.319-2.3-.014-2.873 1.367-.175.421-.245.885-.368 1.349m44.045 1.415c.102-.246.19-.393.226-.553.428-1.844.857-3.688 1.264-5.536.169-.772.161-.818-.577-1.104-.96-.371-1.947-.673-2.924-1.001-.417-.14-.552-.282-.738.426-.279 1.059-.617 2.102-.88 3.165-.052.211.061.52.197.713.978 1.394 2.127 2.64 3.432 3.89m-33.697-40.699c.143-.843.188-1.615.413-2.331.645-2.052 1.119-4.184 2.509-5.924.061-.077.103-.171.138-.264.02-.057.026-.13.011-.187-.132-.485-1.144-.929-1.572-.665-.79.49-1.574.992-2.336 1.524-.233.163-.475.412-.56.671-.587 1.796-1.234 3.577-1.112 5.525.039.619.262 1.021.835 1.202.557.176 1.129.305 1.674.449m32.932 41.06c-.057-.196-.056-.275-.095-.317-1.146-1.199-2.276-2.411-3.238-3.771-.106-.151-.389-.244-.591-.247-1.196-.025-2.392-.026-3.588-.01-.56.006-.623.068-.637.642-.024 1.029-.025 2.059-.02 3.088.003.592.017.609.621.612 1.627.009 3.256.003 4.883.003zm-2.169-39.806c-.032-.22-.042-.626-.154-1.001-.286-.951-.646-1.88-.925-2.834-.601-2.065-2.385-2.722-4.082-3.495-.029-.013-.065-.017-.097-.017-.263 0-.472.066-.411.395.107.587.218 1.174.334 1.76.062.312.285.397.58.434.744.092 1.245.54 1.68 1.131.534.724.787 1.533.878 2.402.145 1.392-.082 2.669-1.31 3.548-.397.284-.288.643-.239.985.097.69.241 1.371.363 2.056.076.429.218.534.591.323.823-.467 1.52-1.109 1.94-1.95.553-1.108.816-2.311.852-3.737m-34.253 34.801c-1.175-.088-2.055.344-2.527 1.34-.482 1.017-.629 2.127-.15 3.195.76 1.697 1.966 3.085 3.275 4.372.639.627 1.718.514 2.352-.121.391-.393.388-.727-.011-1.103-.289-.274-.635-.507-.861-.825-1.321-1.848-1.528-3.931-1.179-6.104.109-.676.128-.701-.563-.752-.133-.011-.266-.002-.336-.002m27.522-2.514c1.112.02 1.694-.153 2.461-.646 1.195-.767 1.817-2.465.247-3.871-1.395-1.251-2.978-1.37-4.661-.844-.52.163-1.063.388-1.352.951-.647 1.263-.336 3.158 1.09 3.92.702.374 1.442.484 2.215.49m64.402-27.997c.26-.297.512-.654.829-.938 1.674-1.499 3.107-3.193 4.337-5.075.734-1.125.888-2.339.791-3.63-.028-.368-.199-.624-.485-.828-.487-.345-.888-.343-1.475.033-1.711 1.095-2.995 2.634-4.293 4.156-.844.988-1.67 1.991-2.515 2.977-.248.291-.536.549-.816.831.692.384 1.328.681 1.901 1.072.571.388 1.079.869 1.726 1.402m-75.683 16.206c.541 1.129 1.019 2.143 1.512 3.15.305.622.615 1.245.967 1.843.097.166.337.305.535.349.688.15 1.366.306 1.897.811.213.202.411.152.628.02.676-.412 1.438-.415 2.124-.189.52.171.802.075 1.117-.289.52-.604 1.214-.78 1.978-.741.197.01.392.065.586.105.261.054.422.021.497-.301.134-.572.333-1.128.499-1.669-.238-.462-.551-.934-.728-1.452-.238-.69-.594-.969-1.261-.66-.38.176-.557.063-.754-.181-.166-.206-.331-.422-.447-.659-.194-.397-.442-.487-.88-.367-.603.164-1.234.304-1.854.312-1.46.018-2.92-.054-4.381-.08-.66-.012-1.32-.002-2.035-.002m14.697-1.486c.289.19.429.274.562.37 1.284.928 1.916 2.108 1.396 3.708-.1.307.014.506.188.722.649.797.788 1.746.776 2.727-.01.892-.479 1.574-1.278 1.848-.539.186-.555.434-.516.866.148 1.644-.662 2.743-2.075 3.427-1.853.896-3.672.724-5.436-.297-.213-.124-.49-.31-.688-.26-1.509.371-2.766-.022-3.798-1.157-.236-.26-.457-.227-.781-.214-.937.04-1.891-.032-2.512-.896-.339-.474-.752-.79-1.287-1.028-.305-.135-.521-.49-.745-.771-.156-.197-.26-.437-.39-.664-.795.567-.837.632-.456 1.285.471.804.975 1.592 1.49 2.369 1.744 2.631 4.394 3.612 7.356 3.735 3.091.128 6.191.006 9.288-.008.133-.001.267-.007.4.001.356.022.561-.142.646-.486.181-.74.378-1.478.554-2.221.366-1.551.783-3.093 1.064-4.66.206-1.138.247-2.308.322-3.465.018-.282-.049-.616-.195-.852-.803-1.301-1.548-2.645-2.597-3.78-.318-.342-.646-.538-1.288-.299m-21.465 20.812c.003.021.005.042.008.063.76-.085 1.531-.111 2.274-.27 1.052-.223 1.923-.776 2.364-1.807.219-.515.39-1.069.472-1.623.16-1.075-.023-2.054-.999-2.746-.88-.625-1.223-.54-1.569.462-.47 1.36-1.35 2.227-2.789 2.585-.658.163-1.08.084-1.586-.374-1.029-.932-2.301-1.313-3.686-1.251-.496.02-.989.125-1.48.201-.566.087-.951.442-.976.985-.044.927-.133 1.895.078 2.779.354 1.477 1.087 2.764 2.48 3.604.692.419 1.333.543 2.077.281.943-.332 1.302-1.016.925-1.953-.195-.487-.514-.926-.803-1.37-.197-.308-.467-.571-.645-.888-.074-.133.007-.354.016-.534.18.011.428-.049.53.045.314.294.636.611.838.983.354.652.903.826 1.571.828zm-9.009-81.826c.468 0 .767.019 1.063-.004.605-.046 1.015.241 1.326.724.072.112.148.221.22.334.815 1.264 1.398 2.61 1.814 4.074.468 1.65.719 3.304.803 4.999.061 1.196.094 2.394.138 3.592.026.685.027.713.647.659 1.356-.117 2.711-.262 4.065-.401.344-.036.314-.302.279-.529-.118-.789-.242-1.577-.384-2.362-.507-2.787-1.251-5.511-2.219-8.173-.782-2.146-2.124-3.995-3.191-5.99-.133-.249-.313-.28-.576-.256-.945.086-1.831.343-2.65.819-.368.214-.941.3-.57.979.061.112-.106.366-.196.541-.152.293-.328.576-.569.994m82.047 42.429c.417.067.769.143 1.125.18 1.028.103 2.043.236 3.022.602.701.262.705.228 1.055-.433.966-1.822 1.955-3.632 2.901-5.464.503-.974.974-1.971 1.109-3.082.116-.954.236-1.907.343-2.862.069-.616-.094-1.195-.375-1.732-.741-1.41-2.648-1.649-3.561-.419-.673.908-1.285 1.859-1.653 2.95-.437 1.291-.898 2.575-1.394 3.844-.822 2.104-1.679 4.194-2.572 6.416m-81.953 19.717c.677-.128 1.387-.166 2.024-.401 1.013-.376 1.92-.941 2.195-2.121.014-.062.061-.119.102-.17.411-.521.37-1.119.287-1.719-.042-.295-.108-.588-.172-.879-.292-1.314-.708-2.569-1.703-3.546-.616-.605-1.25-1.194-1.837-1.826-1.04-1.124-2.357-1.72-3.82-1.993-.593-.11-1.243-.256-1.809.229-.424.362-.907.655-1.35.996-.198.152-.454.314-.527.526-.488 1.42-.666 2.914-.042 4.286.657 1.445 1.443 2.872 2.411 4.123 1.028 1.329 2.225 2.639 4.241 2.495m15.145-57.19c-.883-1.667-1.68-3.244-2.551-4.778-.357-.63-.831-1.216-1.344-1.729-.309-.31-.783-.479-1.207-.645-.525-.204-1.085-.318-1.613-.513-1.104-.407-2.248-.549-3.527-.699.186.265.303.415.402.575.702 1.133 1.49 2.222 2.083 3.408 2.005 4.009 2.948 8.327 3.494 12.741.081.657.179.627.694.692 1.809.226 3.632.393 5.4.944.057-.074.139-.143.172-.231.289-.759.226-.9-.525-1.175-.469-.172-.946-.322-1.412-.506-.258-.102-.498-.25-.949-.481 1.228-.219 2.036.453 3.027.577 0-.262-.02-.459.004-.65.145-1.14-.168-1.943-1.452-2.118-.293-.04-.331-.294-.133-.526.249-.289.655-.446.798-.889-.499-.253-.968-.358-1.478-.343-.133.004-.342-.113-.386-.226-.042-.107.051-.316.15-.416.242-.244.522-.45.881-.75-.877-.164-1.594-.421-2.374-.359-.169.013-.348-.12-.522-.186.103-.146.194-.306.317-.433.062-.065.192-.059.273-.112.556-.361 1.106-.728 1.778-1.172m-22.965 48.819c-3.712-2.415-6.048-5.766-7.338-9.866-1.277-4.056-1.506-8.136-.091-12.278-.144.053-.247.063-.308.119-1.255 1.143-2.509 2.287-3.755 3.44-.341.316-.641.679-.986.99-.243.221-.514.155-.682-.109-.143-.22-.243-.474-.326-.724-.177-.531-.33-1.07-.492-1.606-.096.982-.093 1.949.024 2.902.088.723.124 1.382-.45 1.934-.059.056-.056.178-.095.314.143.041.26.086.381.108.937.164.925.164 1.046 1.096.163 1.252.298 2.51.529 3.75.536 2.864 1.697 5.533 2.731 8.233.356.935.344 1.637-.316 2.37-.339.377-.616.816-.744 1.44.464-.149.801-.283 1.152-.357.119-.025.339.061.395.163.452.809.873 1.637 1.314 2.454.135.251.302.486.472.756.128-.12.218-.173.263-.251.667-1.143 1.731-1.829 2.843-2.443 1.311-.725 2.644-1.411 3.964-2.117.139-.074.262-.177.469-.318m63.555 11.178c-.235.565-.396 1.068-.643 1.526-.678 1.261-1.355 2.526-2.104 3.745-.591.962-1.28 1.865-1.942 2.781-.212.292-.661.529-.679.81-.022.346.284.719.468 1.069.887 1.676 1.796 3.34 2.305 5.186.052.189.232.405.41.489 1.322.626 2.644 1.253 3.995 1.811.639.264 1.337.194 1.914-.22 1.32-.947 2.419-2.086 3.002-3.647.489-1.309.925-2.62 1.125-4.022.136-.952.347-1.885.367-2.859.029-1.416-.522-2.376-1.817-3.034-1.719-.873-3.368-1.885-5.046-2.84-.453-.258-.899-.527-1.355-.795m-63.118-13.94c.133-.194.262-.382.39-.569.388-.568.684-1.193 1.518-1.308.454-.062.539-.481.426-1.017-.117-.552-.26-1.111-.273-1.669-.04-1.599-.073-3.203-.007-4.801.066-1.617.526-3.133 1.429-4.512.985-1.506 2.244-2.725 3.729-3.712 2.134-1.416 4.272-2.83 6.448-4.179.958-.594 1.976-1.143 3.036-1.506 2.389-.82 4.822-1.513 7.238-2.253.158-.048.324-.075.489-.094 1.651-.198 3.302-.394 4.953-.586.595-.07 1.191-.134 1.786-.193.451-.044.87.06 1.211.361.106.094.138.272.204.411-.165.078-.333.224-.496.22-.371-.008-.723-.35-1.164-.039.326.466.663.918.971 1.39.299.456.568.932.861 1.419.32-.245.564-.419.795-.61.592-.491.844-1.095.617-1.863-.056-.191-.072-.393-.116-.588-.357-1.599-1.166-2.899-2.589-3.753-.297-.178-.682-.307-1.023-.296-.763.024-1.528.116-2.283.238-1.476.239-2.944.518-4.416.779-.524.093-1.055.155-1.572.275-1.952.452-3.852 1.052-5.637 1.985-.501.261-1.028.49-1.567.652-2.031.611-3.856 1.645-5.677 2.688-3.014 1.727-5.417 4.098-7.219 7.049-.831 1.361-1.49 2.829-2.213 4.255-.166.325-.301.669-.417 1.014-.763 2.265-1.137 4.591-.943 6.978.112 1.394.32 2.792 1.511 3.834m44.789 30.758c.273.013.566.039.859.039 4.499.002 8.998 0 13.497-.001.133 0 .267.005.4-.002.543-.027.629-.065.538-.57-.142-.78-.29-1.579-.588-2.307-1.208-2.947-2.909-5.604-4.874-8.104-1.297-1.648-2.551-3.33-3.817-5.001-.159-.21-.291-.446-.409-.684-.03-.062.01-.207.067-.254.059-.048.212-.066.264-.024.178.146.347.311.488.492 1.469 1.894 2.931 3.795 4.399 5.689.111.143.257.26.451.454.361-.496.725-.894.975-1.353 1.217-2.235 1.94-4.657 2.617-7.094.087-.311.002-.577-.228-.82-1.378-1.453-2.934-2.617-4.94-3.033-.945-.198-1.931-.579-2.838-.45-1.019.144-1.873-.327-2.818-.311-.033.001-.067.003-.1-.002-2.045-.265-3.858.513-5.67 1.276-.28.118-.505.369-.794.587 1.892 1.348 3 3.154 3.934 5.089.457.946.656 1.956.636 3-.027 1.397-.016 2.801-.161 4.188-.15 1.448-.29 2.902-.697 4.321-.456 1.589-.79 3.213-1.191 4.875m-50.805-81.42c.749-.25 1.365-.211 1.98-.042 3.02.829 5.556 2.369 7.399 4.961.695.977 1.398 1.958 2.196 2.848 1.174 1.308 2.084 2.758 2.745 4.378.315.771.681 1.521.987 2.294.157.394.388.494.771.372.444-.139.894-.261 1.342-.391.638-.187.622-.19.657-.909.101-2.173-.199-4.318-.473-6.461-.077-.61-.352-1.196-.534-1.786-.95.099-1.623.822-2.663.699.208-.216.312-.387.464-.468.323-.17.67-.298 1.011-.432 1.125-.441 1.173-.555.686-1.653-.041-.091-.086-.18-.128-.271-.14-.301-.356-.355-.654-.228-.551.234-1.1.478-1.667.674-.296.102-.586.36-.983.137.675-.938 1.895-.915 2.784-1.602-.251-.413-.501-.797-.723-1.198-.218-.394-.53-.567-.979-.537-.499.034-.999.059-1.498.056-.37-.002-.545-.268-.404-.606.088-.212.239-.398.357-.598.139-.238.271-.478.509-.898-.73.089-1.25.156-1.769.213-.396.042-.795.105-1.191.098-.594-.01-.761-.355-.425-.844.245-.357.525-.688.775-1.041.233-.328.154-.601-.145-.869-1.161-1.039-2.419-1.888-4.014-2.08-.524-.063-1.077-.21-1.576-.111-2.213.433-4.294 1.192-6.043 2.7-.679.586-1.409 1.116-2.138 1.643-1.634 1.18-2.899 2.701-4.173 4.346.468.156.839.293 1.219.404.925.27 1.818.532 2.122 1.648.109.396.48.715.702 1.086.239.399.444.817.662 1.228.08.15.152.304.267.537.361-.596.657-1.076.945-1.563.183-.31.461-.409.766-.267 1.025.473 2.11.839 2.979 1.601.777.68 1.585 1.329 2.308 2.062 2.315 2.347 4.752 4.583 6.707 7.263.196.27.394.28.683.146.938-.433 1.889-.835 2.831-1.259.484-.217.484-.228.24-.733-.521-1.08-1.014-2.177-1.582-3.231-.44-.817-.928-1.619-1.482-2.363-.974-1.308-2.048-2.543-3.023-3.851-1.311-1.761-2.974-3.054-5.005-3.845-1.2-.467-2.447-.81-3.822-1.257m36.772 19.971c-1.749-1.507-3.183-3.155-5.338-3.837-.376-.119-.733-.319-1.072-.525-.701-.426-1.474-.606-2.269-.719-.657-.093-1.316-.181-1.977-.253-.626-.068-1.253-.129-1.882-.16-1.471-.075-2.915.169-4.371.337-2.864.331-5.495 1.359-7.995 2.693-1.669.89-3.225 2.005-4.774 3.1-.724.513-1.346 1.187-1.949 1.847-1.01 1.106-1.995 2.238-2.942 3.399-2.671 3.27-4.316 6.931-4.173 11.25.035 1.065-.048 2.151.132 3.193.647 3.745 2.094 7.138 4.677 9.992.805.891 1.686 1.678 2.772 2.331.021-.264-.006-.478.062-.655.2-.521-.005-.835-.403-1.178-.645-.555-1.023-1.293-1.217-2.134-.405-1.736-.498-3.469-.23-5.244.31-2.056.765-4.048 1.788-5.882.422-.756.823-1.526 1.191-2.309 1.055-2.243 2.65-4.092 4.435-5.743 2.369-2.191 5.204-3.694 8.16-4.956 1.255-.536 2.52-1.045 3.79-1.54 1.022-.398 2.058-.761 3.09-1.13 1.96-.703 4.052-.737 6.063-1.194 1.386-.316 2.816-.442 4.432-.683m-53.024 58.625c.492-.444.897-.825 1.32-1.185.405-.346.816-.69 1.254-.988.126-.085.385-.061.536.012.086.042.139.304.098.429-.142.428-.064.788.233 1.109 1.617 1.753 3.586 2.726 6.003 2.677.293-.006.605-.067.873-.182 1.069-.46 2.126-.948 3.185-1.435.242-.11.462-.269.704-.377.549-.247.654-.208.956.299.188.315.36.64.564.943.128.19.269.43.46.505.725.287 1.467.544 2.303.597.015-.312.011-.544.039-.77.171-1.347.685-2.53 2.568-2.375.067.006.135-.008.2.002.478.075.791-.08 1.029-.539.283-.545.748-.979 1.387-1.037.759-.069 1.553-.145 2.258.229.4.211.637.129.966-.133.837-.667 1.849-.87 2.832-.536.845.286 1.624.198 2.441.058.393-.068.789-.136 1.186-.16.317-.02.44-.188.576-.45.425-.829.866-1.653 1.349-2.448.777-1.284 1.976-1.936 3.431-2.162.263-.041.541-.034.787-.121.153-.054.353-.229.372-.371.077-.594.475-.869.968-1.026.471-.149.959-.248 1.446-.336.765-.141 1.05-.433 1.203-1.182.064-.316.193-.642.377-.904.263-.376.336-.701.241-1.179-.155-.783-.186-1.611.575-2.195.094-.072.155-.189.249-.306-.287-.367-.352-.874-.874-.945-.725-.097-1.452-.18-2.18-.233-.719-.052-.798-.025-.724.654.104.953-.391 1.49-1.09 1.961-.397.268-.814.438-1.307.41-.254-.014-.512.024-.818.041.218.744.019 1.37-.227 2-.502 1.277-.93 1.585-2.326 1.553-.358-.008-.595-.023-.741.424-.19.583-.734.876-1.316.943-.86.101-1.76.195-2.563-.185-.596-.284-1.143-.335-1.766-.191-.281.066-.601.012-.893-.043-1.381-.26-2.008-1.006-2.008-2.425 0-1.537.079-3.071.835-4.465.205-.377.112-.573-.216-.819-1.294-.969-2.37-2.134-3.123-3.584-.625-1.207-1.282-2.398-1.953-3.65-.14.065-.381.164-.611.285-.882.469-1.767.934-2.637 1.423-.808.456-1.634.895-2.386 1.433-.416.299-.713.775-1.03 1.196-.285.378-.255.76-.032 1.202.69 1.368 1.358 2.747 1.969 4.152.382.881.747 1.793.942 2.728.475 2.27.223 4.581.226 6.876.001.32-.025.755-.444.778-.389.02-.351-.413-.441-.683-.616-1.872-1.716-3.366-3.42-4.394-.341-.206-.651-.463-.985-.682-.834-.547-1.658-1.111-2.515-1.622-.771-.46-.802-.446-1.42.193-1.239 1.281-2.7 2.149-4.453 2.52-.356.076-.702.204-1.052.316-2.755.879-4.31 2.897-5.167 5.535-.175.537-.279 1.157.16 1.722.193-.29.335-.559.531-.782.438-.5.893-.987 1.366-1.454.092-.091.376-.139.436-.077.117.12.216.353.18.506-.058.249-.243.465-.352.706-.297.656-.699 1.286-.544 2.214m108.997-35.994c.048-.45.384-.338.609-.396.261-.067.372-.206.394-.486.107-1.392.292-2.78.345-4.172.073-1.931.029-3.867.082-5.8.028-.994-.359-1.793-.89-2.59-.515-.773-1.204-1.007-2.061-.863-1.809.305-2.812 1.634-2.634 3.083.177 1.45.448 2.89.66 4.336.17 1.149.36 2.299.456 3.457.131 1.609-.135 3.179-.605 4.725-.12.393-.203.895-.06 1.25.378.939.612 1.895.682 2.897.019.267.112.426.374.51 1.47.474 1.673 1.863 2.161 3.04.041.097-.092.375-.184.396-.159.036-.412-.009-.511-.12-.171-.192-.256-.461-.375-.699-.193-.386-.38-.775-.579-1.158-.18-.347-.453-.561-.863-.59-.709-.051-.846-.197-.889-1.025-.052-.994-.185-1.984-.632-2.906-.26-.539-.646-.909-1.175-1.17-1.296-.642-2.663-.504-4.016-.342-.365.043-.732.317-1.038.561-.792.632-.891 1.177-.482 2.112.312.713.815 1.208 1.567 1.434 1.152.346 2.092 1.017 2.867 1.918.185.215.373.508.387.774.032.662-.027 1.328-.065 1.992-.029.495-.106.988-.122 1.484-.023.686.273 1.214.852 1.595.306.199.609.414.872.664.446.426.601.956.375 1.551-.32.839-.604 1.698-.996 2.503-1.217 2.494-2.838 4.736-4.464 6.971-.568.78-1.151 1.554-1.792 2.273-.36.405-.533.795-.507 1.337.065 1.3.061 2.597-.538 3.814-.128.26-.147.579-.196.875-.277 1.665-.849 3.211-1.84 4.59-.433.602-.874 1.197-1.33 1.819 2.19.409 4.34.301 6.492 0 2.015-.282 3.787-1.043 5.099-2.645.758-.927 1.509-1.872 2.141-2.884 1.81-2.904 2.913-6.123 3.959-9.355.275-.85.529-1.728.625-2.611.146-1.349.6-2.595 1.11-3.818.236-.563.673-1.07 1.108-1.515.948-.964 2.09-1.648 3.392-2.031.895-.264 1.647-.707 2.159-1.508.358-.56.756-1.096 1.078-1.676.832-1.505 2.029-2.633 3.521-3.45 1.049-.575 2.126-1.097 3.195-1.638.525-.267.954-.651 1.164-1.191.28-.718.379-1.484.3-2.256-.062-.604-.437-.99-1.05-.996-.382-.005-.801.078-1.143.246-1.133.556-2.207 1.23-3.441 1.572-.272.076-.505.289-.759.441.109.287.189.503.274.719.094.243.093.475-.174.592-.262.116-.422-.04-.563-.261-.286-.448-.575-.894-.899-1.313-1.197-1.549-2.94-2.255-4.672-2.949-.704-.281-1.456-.489-2.206-.601-1.149-.172-2.314-.227-3.472-.344-.358-.036-.712-.112-1.077-.172m-103.638 10.252c-.241-.249-.5-.484-.717-.752-1.224-1.512-2.246-3.151-2.945-4.969-.524-1.367-.973-2.763-1.442-4.151-.936-2.765-1.429-5.599-1.385-8.528.02-1.364.37-2.62.882-3.866.775-1.883 2.004-3.452 3.328-4.956 1.102-1.252 2.336-2.301 4.152-2.265.064.001.129-.031.195-.045 2.029-.434 4.08-.612 6.156-.521.533.025 1.066.027 1.6.025.751-.004 1.454.174 2.113.525.495.262.977.549 1.521.857.329-.384.681-.778 1.012-1.188.346-.428.674-.872 1.007-1.307-3.38-2.525-11.019-4.288-13.914-3.227.147.263.307.514.428.783.094.208.188.438.189.66.001.161-.15.323-.233.485-.129-.077-.271-.14-.385-.234-.169-.141-.295-.378-.484-.442-.531-.179-1.078-.328-1.631-.419-.592-.097-1.183-.112-1.723.287-.425.315-.898.573-1.361.834-2.15 1.208-3.804 2.903-4.998 5.053-.534.96-1.048 1.933-1.567 2.903-.798 1.494-1.207 3.087-1.273 4.782-.078 1.97-.017 3.931.276 5.88.113.757.235 1.513.403 2.258.168.743.649 1.109 1.396 1.18.363.035.733.071 1.08.171.489.141.563.395.237.811-.26.33-.577.617-.865.919.055.073.086.136.136.176.291.234.907-.038.954.532.041.498-.466.683-.749.994-.023.024-.05.047-.079.06-.616.289-.643.77-.454 1.338.464 1.388.897 2.787 1.379 4.169.463 1.33.483 1.322 1.858.984.509-.125 1.011-.354 1.566-.111-.211.392-.618.395-.949.504-.409.135-.846.185-1.258.311-.119.037-.286.22-.277.322.056.61.547.981 1.157.903.39-.051.786-.179 1.127.168-.338.591-1.039.153-1.409.516-.021.065-.047.101-.038.125.035.093.079.184.122.274.851 1.74 2.087 3.147 3.606 4.347.667.528 1.255.803 2.081.422.518-.238.725-.019.575.561-.166.645-.394 1.273-.562 1.916-.185.711-.083.947.568 1.303.672.368 1.367.693 2.046 1.05 1.386.725 2.794 1.416 4.144 2.205.946.552 1.809 1.245 2.712 1.868.862.595 1.604 1.297 2.119 2.224.172.309.394.59.729 1.084 0-1.384.004-2.516-.001-3.646-.006-1.144-.256-2.245-.619-3.323-.131-.387-.314-.705-.704-.919-.729-.401-1.426-.859-2.134-1.297-.299-.185-.589-.385-1.065-.696 1.231-.054 1.965.721 2.987.922-.134-.361-.199-.616-.317-.845-1.033-2.017-2.071-4.031-3.122-6.038-.166-.317-.349-.721-.632-.85-.213-.097-.598.181-.905.291-.032.012-.063.022-.096.03-.585.148-.866-.092-.714-.66.102-.382.259-.758.449-1.105.223-.408.493-.792.771-1.167.216-.29.285-.549.14-.913-.576-1.454-1.106-2.927-1.673-4.384-.996-2.56-1.632-5.199-1.793-7.947-.038-.66-.04-.66-.713-.811-.969-.217-1.157-.696-.504-1.435.365-.413.507-.836.414-1.363-.041-.229-.088-.463-.082-.693.034-1.095-.07-2.228.182-3.273.19-.789.309-1.547.319-2.344.005-.316-.066-.681.332-.887.302.287.252.667.281 1.024.071.858.094 1.726.238 2.573.117.689.173 1.425.681 2.093.532-.558.975-1.103 1.501-1.552.455-.389.507-.786.358-1.319-.334-1.196-.439-2.423-.368-3.662.014-.236.116-.468.178-.701.553 1.531.282 3.153.875 4.635.464-.182.608-.476.544-.95-.115-.855-.179-1.718-.244-2.58-.011-.155.082-.318.166-.624.617 1.036.396 2.103.815 3.064.293-.187.553-.393.844-.529.64-.301 1.024-.785 1.306-1.432.682-1.569 1.617-2.985 2.784-4.245.127-.136.22-.303.351-.488-.902-.516-1.767-1.025-2.736-1.073-1.926-.096-3.861-.234-5.787.083-1.083.178-2.178.287-3.257.488-.446.083-.905.26-1.28.511-.522.348-1.014.766-1.443 1.226-1.414 1.518-2.652 3.153-3.473 5.091-.517 1.222-.808 2.473-.815 3.778-.013 2.652.511 5.225 1.319 7.739.815 2.534 1.538 5.109 3.02 7.374.382.585.729 1.195 1.065 1.808.2.365.447.718.401 1.233m17.344-32.882c-.517-.731-1.144-1.265-1.829-1.751-.57-.403-1.118-.842-1.643-1.302-1.227-1.079-2.452-2.144-3.924-2.908-2.345-1.217-4.754-2.258-7.319-2.91-1.77-.451-3.573-.351-5.368-.211-.387.03-.776.2-1.139.361-1.815.808-3.385 1.987-4.881 3.273-.175.15-.325.341-.44.541-.651 1.124-1.42 2.202-1.902 3.396-1.058 2.622-2.214 5.21-3.004 7.934-.595 2.051-1.076 4.123-1.15 6.264-.047 1.366-.051 2.736-.023 4.102.021 1.032.111 2.061.191 3.09.055.699.146 1.394.237 2.238-.158-.189-.212-.233-.237-.289-.055-.122-.11-.246-.137-.375-.363-1.693-.769-3.379-.687-5.132.018-.367.027-.738-.015-1.1-.261-2.319.116-4.579.581-6.835.622-3.019 1.846-5.834 2.976-8.677.527-1.326 1.15-2.617 1.792-3.892.281-.558.636-1.133 1.101-1.533 1.158-1 2.368-1.947 3.615-2.834 1.066-.758 2.262-1.319 3.594-1.387 2.306-.118 4.604-.083 6.79.824.061.026.127.04.19.061 3.45 1.139 6.667 2.685 9.361 5.197 1.167 1.088 2.408 2.096 3.605 3.152.25.221.456.198.709.026.941-.634 1.891-1.25 2.83-1.885.433-.294.457-.357.112-.784-.774-.96-1.558-1.914-2.381-2.831-.66-.733-1.383-1.41-2.102-2.137-.263.284-.457.511-.673.713-.057.054-.247.073-.269.039-.063-.098-.133-.263-.091-.345.149-.292.343-.559.54-.867-.771-.827-1.492-1.683-2.454-2.391-.264.422-.503.78-.717 1.151-.166.289-.293.6-.456.891-.039.071-.154.099-.234.148-.053-.108-.166-.23-.144-.32.061-.256.162-.506.276-.745.188-.389.391-.773.604-1.151.178-.315.137-.564-.16-.776-.54-.386-1.032-.882-1.626-1.148-1.894-.85-1.435-.961-2.354.68-.196.348-.353.72-.572 1.052-.194.296-.457.267-.617-.034-.062-.118-.117-.244-.14-.372-.247-1.388-1.016-2.522-1.783-3.653-.123-.184-.294-.373-.487-.463-.846-.388-1.71-.696-2.644-.86-1.265-.223-2.524-.169-3.787-.136-.557.014-1.129.102-1.661.264-1.82.556-3.541 1.333-5.216 2.25-1.849 1.012-3.347 2.404-4.793 3.886-.271.277-.317.557-.162.905.134.304.233.625.347.937.046.125.109.248.13.376.014.087-.034.183-.052.275-.107-.039-.277-.047-.311-.119-.236-.495-.443-1.003-.703-1.607-.463.63-.816 1.198-1.258 1.688-.524.58-.682 1.179-.401 1.912.142.372.225.766.337 1.15.07.241.146.481.267.879-.893-.603-.891-1.525-1.326-2.28-.715.871-1.122 1.809-1.43 2.798-.039.123-.038.264-.027.395.101 1.192.21 2.384.316 3.576.045.512-.142.661-.642.507-.127-.04-.248-.099-.37-.154-.381-.172-.655-.047-.807.321-.14.337-.288.68-.354 1.035-.235 1.275-.469 2.551-.643 3.835-.217 1.614-.396 3.233-.555 4.854-.142 1.457-.265 2.918-.337 4.379-.054 1.098-.138 2.218.011 3.298.296 2.138.764 4.252 1.11 6.385.088.547.404.697.836.837.451.147.685-.105.908-.417.136-.19.253-.405.426-.554.184-.158.524-.407.621-.345.317.204.015.456-.096.668-.124.234-.296.443-.439.668-.087.139-.232.289-.226.43.022.666-.303 1.217-.534 1.802-.208.529-.213 1.031.24 1.471.477.463.936.946 1.388 1.434.45.485.953.942 1.306 1.492 1.722 2.684 2.739 5.627 2.966 8.808.169 2.366.204 4.735-.789 6.979-.069.156-.072.343-.13.638.237-.136.361-.185.458-.266 1.026-.85 2.055-1.699 3.067-2.567.249-.214.467-.478.657-.749.785-1.121 1.5-2.284 2.027-3.553.376-.904.374-.899-.397-1.462-.7-.51-1.395-1.026-2.081-1.554-.127-.098-.201-.264-.415-.557 1.428.405 2.34 1.33 3.474 1.864.283-.883.128-1.511-.627-1.965-.309-.186-.568-.465-.818-.73-.089-.094-.082-.276-.118-.418.122.005.267-.031.362.023.431.244.849.515 1.286.785.24-.416.048-.765-.136-1.124-.502-.978-1.011-1.953-1.489-2.944-.914-1.896-1.493-3.915-2.116-5.919-.266-.857-.222-1.568.693-2.002.046-.021.06-.11.125-.237-.259-.124-.525-.233-.772-.375-.484-.28-.499-.567-.048-.909.276-.208.61-.355.745-.729-.407-.08-.783-.104-1.114-.24-.254-.105-.544-.308-.655-.545-.294-.63-.585-1.283-.725-1.959-.511-2.45-.816-4.932-.638-7.44.113-1.596.383-3.177 1.144-4.62.715-1.356 1.413-2.722 2.19-4.043 1.028-1.75 2.399-3.192 4.155-4.241.628-.376 1.277-.719 1.89-1.121 1.013-.666 2.058-.649 3.145-.24.128.049.274.047.553.091-.195-.256-.319-.375-.386-.519-.202-.433-.063-.692.406-.8.098-.021.2-.029.299-.027 2.163.029 4.332-.182 6.486.199 2.992.53 5.776 1.556 8.294 3.365.461-.399.933-.809 1.417-1.227m7.459 13.663c-1.102.624-1.915 1.337-2.646 2.146-1.401 1.551-2.355 3.307-2.424 5.451-.046 1.433-.109 2.864-.111 4.297-.001.696.105 1.393.195 2.086.044.341.178.683.624.621.907-.127 1.692.305 2.513.541.531.152 1.077.404 1.498.754 1.022.851 1.994 1.766 2.952 2.692 1.442 1.393 2.021 3.184 2.19 5.119.085.966.071.88.852 1.092 1.702.462 3.197 1.305 4.646 2.273.315.21.722.33 1.103.391 1.547.251 3.105.378 4.676.356 1.833-.028 3.67.048 5.499-.043 1.552-.079 3.035-.512 4.195-1.634.852-.822 1.435-1.869 1.788-2.965.612-1.898 1.055-3.848 1.555-5.779.065-.253.066-.529.056-.794-.081-1.961-.28-3.909-.68-5.834-.183-.877-.235-1.796-.527-2.633-.447-1.277-.608-2.575-.745-3.904-.181-1.756-.552-3.481-1.278-5.112-.541-1.217-1.06-2.444-1.582-3.671-.523-1.23-1.41-2.597-2.16-3.278 0 .303.015.569-.003.834-.022.297-.044.599-.116.887-.219.872-.496 1.038-1.355.873-.26-.05-.523-.121-.784-.12-2.466.002-4.936-.115-7.384.295-.429.072-.711-.07-.911-.432-.065-.117-.135-.23-.188-.353-.127-.293-.316-.38-.637-.279-1.401.439-2.781.928-4.045 1.693-.53.32-1.051.655-1.564.977.062.126.069.163.092.182 1.327 1.123 1.305 1.11.344 2.639-.44.701-.885 1.432-1.136 2.211-.547 1.703-1.351 3.347-1.377 5.191 0 .096-.042.195-.077.288-.074.202-.193.264-.436.294-.902.111-1.718-.136-2.493-.529-.486-.245-.926-.634-.939-1.212-.024-.993-.155-1.994.138-2.981.243-.818.432-1.654.682-2.63m-42.329-13.52c-.121-1.213-.258-2.335-.333-3.46-.025-.386.03-.814.18-1.166.325-.761.733-1.488 1.114-2.225.06-.117.196-.207.225-.327.261-1.052 1.193-1.62 1.776-2.438.596-.835 1.329-1.578 2.044-2.321 1.971-2.045 4.304-3.556 6.939-4.608.433-.172.859-.362 1.284-.554 2.015-.911 4.151-.883 6.285-.756.543.032.852-.095 1.152-.538 1.129-1.668 2.493-3.119 4.128-4.308 1.292-.939 2.55-1.932 3.875-2.823 1.35-.91 2.934-1.311 4.508-1.534 1.773-.251 3.423.347 4.904 1.34.469.314.887.704 1.315 1.075.617.538.669.845.287 1.563-.124.233-.261.458-.414.722.548.195 1.018-.058 1.496-.075.512-.017.841-.285 1.226-.562 1.763-1.27 3.769-1.629 5.887-1.37 1.088.133 2.175.333 3.174.835.117.058.253.099.384.109 1.657.127 2.631 1.248 3.393 2.513.926 1.538 1.689 3.174 2.521 4.77.061.117.111.242.154.368.125.36.039.648-.294.861-.303.192-.596.399-1.038.698.388.098.622.157.857.216.259.065.529.099.772.202.476.202.537.487.229.938-.074.107-.174.196-.328.366.281.115.514.21.747.308.71.296.798.568.381 1.211-.089.138-.207.257-.311.384.051.061.083.128.136.16 1.041.633 1.061.632 1.057 1.872-.002 1.052.25 2.116-.159 3.154-.046.118.118.336.218.485.047.071.169.105.264.132 2.131.628 3.617 2.194 5.203 3.602.359.319.574.796.875 1.185.178.228.365.469.599.63 1.519 1.044 2.284 2.533 2.699 4.284.317 1.339.095 2.434-1.05 3.275-.266.195-.508.425-.792.664.597 1.394 1.186 2.768 1.771 4.144.106.248.282.316.546.34 2.315.206 4.507 1.81 5.316 3.946.387 1.023.718 2.074.971 3.137.151.635.149 1.321.124 1.981-.016.431.135.64.468.884 1.075.786 2.15 1.58 3.147 2.459.537.474.948 1.108 1.353 1.713.379.569.467 1.238.431 1.92-.06 1.159-.591 1.689-1.746 1.74-.165.007-.332.006-.499.001-.258-.006-.465.052-.487.361-.026.355-.296.495-.559.647-.987.571-2.025.839-3.113.53-.227.326-.447.614-.633.922-.324.534-.803.755-1.407.813-.533.052-.609.15-.477.599.402 1.37.406 2.753.204 4.152-.021.147.011.413.087.441.153.06.391.053.532-.031.518-.306 1.04-.392 1.628-.239.572.147 1.062.015 1.563-.376.486-.379 1.1-.61 1.682-.848 1.551-.634 3.131-1.143 4.847-.936.033.003.069-.007.1.001 2.095.519 4.306.357 6.367 1.059 1.398.477 2.718 1.123 3.753 2.214.465.49.94.731 1.655.696 1.126-.055 2.224.986 2.338 2.137.04.391.221.603.514.787.96.601 1.902 1.235 2.884 1.799 1.442.828 2.912 1.609 4.378 2.396.124.067.336.081.458.021.551-.271 1.099-.243 1.644-.028.524.205.852.625 1.102 1.112.03.056.086.099.174.195.289-.328.601-.629.851-.975 1.074-1.485 2.197-2.94 3.174-4.487 1.223-1.937 2.533-3.84 3.169-6.094.188-.666.18-.863-.345-1.288-.052-.042-.104-.086-.163-.115-1.682-.812-1.77-2.253-1.513-3.83.011-.065.037-.128.049-.193.301-1.696-.213-2.682-1.801-3.427-.331-.155-.68-.272-1.025-.397-1.42-.516-2.049-1.644-2.273-3.035-.052-.329.053-.758.239-1.039.675-1.016 1.588-1.707 2.872-1.734.734-.015 1.468-.019 2.202 0 .933.023 1.725.459 2.582.961.309-.967.593-1.901.635-2.907.085-1.974-.178-3.911-.5-5.854-.24-1.438-.546-2.87-.54-4.349.005-1.183.507-2.049 1.434-2.699.912-.639 1.949-.869 3.042-.727.339.044.71.231.964.463 1.123 1.03 1.825 2.277 1.815 3.853-.007 1.234.039 2.471-.015 3.702-.06 1.361-.213 2.718-.316 4.078-.039.524-.051 1.051.102 1.621.412-1.046.838-2.088 1.235-3.141.894-2.367 1.724-4.76 2.68-7.1.386-.944.939-1.858 1.588-2.645 1.121-1.357 3.452-1.704 4.782.482.423.694.602 1.484.534 2.302-.068.827-.171 1.652-.271 2.478-.187 1.548-.783 2.952-1.54 4.295-.442.784-.897 1.56-1.342 2.342-.093.165-.163.344-.188.554.574-.345.904-.902 1.308-1.392 1.381-1.67 2.763-3.336 4.597-4.554.542-.36 1.105-.462 1.712-.344.838.161 1.422.836 1.526 1.758.162 1.465-.087 2.832-.888 4.11-1.213 1.938-2.735 3.603-4.346 5.181.605-.025 1.084-.159 1.594-.42.561-.288 1.127-.572 1.698-.839.208-.098.437-.178.662-.203 1.62-.182 2.631.817 2.466 2.44-.044.429-.124.858-.226 1.277-.267 1.099-1.055 1.736-2.013 2.216-1.04.522-2.102 1.004-3.112 1.58-1.268.725-2.25 1.754-2.967 3.04-.356.637-.778 1.238-1.185 1.846-.564.844-1.391 1.339-2.342 1.606-1.425.4-2.583 1.221-3.62 2.226-.325.315-.596.737-.757 1.16-.33.868-.613 1.76-.836 2.662-.286 1.158-.416 2.359-.752 3.501-.968 3.295-2.103 6.538-3.891 9.491-.703 1.161-1.578 2.229-2.461 3.265-1.361 1.599-3.175 2.325-5.239 2.574-1.998.24-3.979.305-5.973-.002-.678-.104-1.317-.105-1.999.3-.696.414-1.561.161-2.321-.116-.463-.17-.885-.392-1.422-.341-.341.032-.723-.114-1.055-.257-1.252-.537-2.49-1.106-3.729-1.661-.008.025-.059.098-.043.147.369 1.129.144 1.125-.851 1.124-4.769-.007-9.539-.01-14.308-.002-.428.001-.854.08-1.282.121-.131.013-.263.038-.393.031-.826-.048-1.653-.146-2.479-.148-7.07-.017-14.14-.018-21.211-.023-1.667-.002-3.333.007-4.999-.008-.367-.003-.582.065-.53.489.024.197.007.4.003.6-.019 1.057-.258 1.405-1.252 1.793-.835.325-1.675.444-2.54-.026-.54.825-1.233 1.403-2.232 1.503-1.008.1-1.69-.488-2.389-1.196-.163.177-.294.352-.456.492-.826.705-2.029.79-2.955.141-.503-.353-.932-.446-1.558-.276-1.433.386-2.839-.326-3.702-1.745-.328-.54-.638-1.095-.923-1.659-.168-.332-.371-.513-.766-.517-.292-.003-.582-.124-.877-.168-1.198-.177-2.125-.726-2.628-1.878-.037-.086-.123-.152-.215-.26-.862.405-1.73.8-2.589 1.218-2.522 1.229-4.907.861-7.186-.623-.474-.308-.941-.644-1.344-1.037-.394-.384-.703-.855-1.114-1.369-.35.307-.788.691-1.225 1.075-.225.199-.43.425-.674.594-.467.321-.917.178-1.115-.348-.08-.213-.098-.449-.131-.61-.315.02-.623.111-.889.042-.428-.109-.666-.502-.684-.904-.033-.691-.107-1.435.098-2.073.974-3.018 2.905-5.121 6.048-5.971.579-.156 1.156-.317 1.726-.503 1.336-.438 2.362-1.31 3.359-2.42-1.01-.516-1.952-.986-2.884-1.477-1.507-.795-1.658-1.174-1.162-2.795.077-.251.144-.504.216-.759-1.754-.263-2.916-1.391-4.075-2.519-.233-.227-.439-.482-.679-.748-.152.963-.255 1.879-.456 2.775-.091.403-.402.753-.568 1.146-.564 1.329-1.336 2.531-2.181 3.691-.176.24-.375.474-.6.665-.99.842-2.007 1.651-2.986 2.504-.452.395-.953.428-1.496.373-.342-.035-.455-.251-.394-.559.04-.193.124-.379.203-.562 1.001-2.33 1.223-4.75.835-7.24-.149-.952-.265-1.911-.459-2.853-.409-1.984-1.32-3.766-2.339-5.49-.283-.479-.706-.879-1.089-1.292-.475-.513-.969-1.009-1.47-1.497-.544-.531-.596-1.159-.405-1.842.062-.224.15-.442.217-.665.169-.571.054-.948-.507-1.072-.849-.189-1.07-.747-1.206-1.491-.342-1.862-.734-3.715-1.103-5.572-.039-.195-.087-.396-.083-.592.045-1.997.083-3.994.158-5.991.043-1.129.09-2.265.242-3.384.317-2.337.695-4.666 1.073-6.995.063-.387.229-.767.397-1.128.451-.973.715-1.11 1.876-.982" fill="#231f20" transform="matrix(5.55556 0 0 5.55556 345.707 114.2)"/><path d="m.73-10.636s-5.16 2.368-3.8 7.14c1.362 4.772 3.244 5.482 3.8 4.682.556-.802-4.068-5.982-1.116-8.069 2.954-2.089 3.991-6.082 1.116-3.753" fill="#fff" transform="matrix(-5.33923 1.53523 1.53523 5.33923 589.057 469.2)"/></g></svg>