<?xml version="1.0" encoding="UTF-8" standalone="no"?>
<!DOCTYPE svg PUBLIC "-//W3C//DTD SVG 1.1//EN" "http://www.w3.org/Graphics/SVG/1.1/DTD/svg11.dtd">
<svg width="100%" height="100%" viewBox="0 0 542 382" version="1.1" xmlns="http://www.w3.org/2000/svg" xmlns:xlink="http://www.w3.org/1999/xlink" xml:space="preserve" xmlns:serif="http://www.serif.com/" style="fill-rule:evenodd;clip-rule:evenodd;stroke-miterlimit:10;">
    <g transform="matrix(1,0,0,1,-11494.1,-17850.9)">
        <g transform="matrix(5.55556,0,0,5.55556,10895.7,14350.4)">
            <g transform="matrix(0,-1,-1,0,138.972,636.228)">
                <path d="M-31.257,-31.256C-48.518,-31.256 -62.512,-17.262 -62.512,0C-62.512,17.263 -48.518,31.257 -31.257,31.257C-13.994,31.257 0,17.263 0,0C0,-17.262 -13.994,-31.256 -31.257,-31.256" style="fill:rgb(173,223,234);fill-rule:nonzero;"/>
            </g>
        </g>
        <g transform="matrix(5.55556,0,0,5.55556,10895.7,14350.4)">
            <clipPath id="_clip1">
                <rect x="112.274" y="636.229" width="46.096" height="56.581" clip-rule="nonzero"/>
            </clipPath>
            <g clip-path="url(#_clip1)">
                <g transform="matrix(83.6595,0,0,-83.6595,116.541,675.275)">
                    <path d="M0.319,0.298C0.253,0.312 0.183,0.334 0.119,0.312C0.05,0.289 0.004,0.218 0,0.145C-0.003,0.073 0.031,0.002 0.083,-0.049C0.135,-0.1 0.203,-0.131 0.273,-0.151C0.345,-0.171 0.43,-0.176 0.488,-0.129C0.492,-0.125 0.496,-0.122 0.5,-0.118L0.5,0.322C0.452,0.278 0.381,0.285 0.319,0.298Z" style="fill:url(#_Linear2);fill-rule:nonzero;"/>
                </g>
                <g transform="matrix(1,0,0,1,143.223,673.468)">
                    <path d="M0,-23.142C-5.535,-24.332 -11.349,-26.097 -16.717,-24.299C-22.474,-22.371 -26.359,-16.4 -26.661,-10.336C-26.961,-4.272 -24.062,1.676 -19.709,5.909C-15.357,10.142 -9.676,12.799 -3.827,14.428C2.198,16.106 9.281,16.553 14.107,12.577C15.494,11.433 16.826,9.884 18.623,9.854C19.571,9.838 20.461,10.267 21.334,10.637C25.134,12.25 29.49,12.886 33.415,11.606C37.339,10.325 40.676,6.871 41.08,2.762C41.261,0.911 40.871,-1.005 41.385,-2.793C42.722,-7.444 48.812,-8.394 52.591,-11.416C55.999,-14.141 57.496,-18.861 56.818,-23.17C56.14,-27.48 53.487,-31.332 50.028,-33.992C43.927,-38.684 35.204,-39.695 28.191,-36.522C22.727,-34.049 19.616,-29.747 15.634,-25.594C11.582,-21.368 5.373,-21.986 0,-23.142Z" style="fill:none;fill-rule:nonzero;stroke:rgb(35,31,32);stroke-width:1px;"/>
                </g>
                <g opacity="0.5">
                    <g transform="matrix(1,0,0,1,118.673,668.916)">
                        <path d="M0,-7.356C-0.517,-3.968 0.315,-0.473 1.837,2.597C3.04,5.023 4.709,7.275 6.956,8.786C9.202,10.297 12.072,11 14.686,10.296C10.639,9.903 6.891,7.231 5.2,3.534C3.508,-0.164 3.938,-4.747 6.287,-8.065C7.526,-9.817 9.23,-11.203 10.445,-12.972C10.825,-13.526 11.166,-14.153 11.145,-14.825C11.033,-18.356 6.502,-16.675 4.98,-15.58C2.388,-13.713 0.478,-10.483 0,-7.356" style="fill:white;fill-rule:nonzero;"/>
                    </g>
                </g>
            </g>
        </g>
    </g>
    <defs>
        <linearGradient id="_Linear2" x1="0" y1="0" x2="1" y2="0" gradientUnits="userSpaceOnUse" gradientTransform="matrix(1,0,0,-1,0,0.157254)"><stop offset="0" style="stop-color:rgb(247,176,193);stop-opacity:1"/><stop offset="1" style="stop-color:rgb(240,90,147);stop-opacity:1"/></linearGradient>
    </defs>
</svg>
