<?xml version="1.0" encoding="UTF-8" standalone="no"?>
<!DOCTYPE svg PUBLIC "-//W3C//DTD SVG 1.1//EN" "http://www.w3.org/Graphics/SVG/1.1/DTD/svg11.dtd">
<svg width="100%" height="100%" viewBox="0 0 548 466" version="1.1" xmlns="http://www.w3.org/2000/svg" xmlns:xlink="http://www.w3.org/1999/xlink" xml:space="preserve" xmlns:serif="http://www.serif.com/" style="fill-rule:evenodd;clip-rule:evenodd;stroke-miterlimit:10;">
    <g transform="matrix(1,0,0,1,-13184.5,-17773.2)">
        <g transform="matrix(5.55556,0,0,5.55556,10895.7,14350.4)">
            <g transform="matrix(0,-1,-1,0,468.674,616.104)">
                <path d="M-41.911,-41.91C-65.057,-41.91 -83.821,-23.146 -83.821,0C-83.821,23.148 -65.057,41.911 -41.911,41.911C-18.765,41.911 0,23.148 0,0C0,-23.146 -18.765,-41.91 -41.911,-41.91" style="fill:rgb(173,223,234);fill-rule:nonzero;"/>
            </g>
        </g>
        <g transform="matrix(5.55556,0,0,5.55556,10895.7,14350.4)">
            <clipPath id="_clip1">
                <rect x="454.811" y="619.143" width="41.285" height="70.673" clip-rule="nonzero"/>
            </clipPath>
            <g clip-path="url(#_clip1)">
                <g transform="matrix(75.602,0,0,-75.602,417.01,655.002)">
                    <path d="M0.5,-0.42L1,-0.42L0.5,0.42L0.5,-0.42Z" style="fill:url(#_Linear2);fill-rule:nonzero;"/>
                </g>
                <g transform="matrix(1,0,0,1,454.811,686.763)">
                    <path d="M0,-63.522L-37.802,0L37.801,0L0,-63.522Z" style="fill:none;fill-rule:nonzero;stroke:rgb(35,31,32);stroke-width:1px;"/>
                </g>
            </g>
        </g>
    </g>
    <defs>
        <linearGradient id="_Linear2" x1="0" y1="0" x2="1" y2="0" gradientUnits="userSpaceOnUse" gradientTransform="matrix(1,0,0,-1,0,-6.82257e-06)"><stop offset="0" style="stop-color:rgb(222,144,187);stop-opacity:1"/><stop offset="0.98" style="stop-color:rgb(0,155,218);stop-opacity:1"/><stop offset="1" style="stop-color:rgb(0,155,218);stop-opacity:1"/></linearGradient>
    </defs>
</svg>
