<?xml version="1.0" encoding="UTF-8" standalone="no"?><!DOCTYPE svg PUBLIC "-//W3C//DTD SVG 1.1//EN" "http://www.w3.org/Graphics/SVG/1.1/DTD/svg11.dtd"><svg width="100%" height="100%" viewBox="0 0 189 91" version="1.1" xmlns="http://www.w3.org/2000/svg" xmlns:xlink="http://www.w3.org/1999/xlink" xml:space="preserve" xmlns:serif="http://www.serif.com/" style="fill-rule:evenodd;clip-rule:evenodd;stroke-linejoin:round;stroke-miterlimit:2;"><g><g><clipPath id="_clip1"><path d="M14.83,2.301c-5.814,0 -10.571,4.757 -10.571,10.572l0,66.409c0,5.814 4.757,10.572 10.571,10.572l159.439,0c5.815,0 10.572,-4.758 10.572,-10.572l0,-66.409c0,-5.815 -4.757,-10.572 -10.572,-10.572l-159.439,0Z" clip-rule="nonzero"/></clipPath><g clip-path="url(#_clip1)"><rect x="2.383" y="0.035" width="184.848" height="84.403" style="fill:#9fddf9;"/><path d="M151.554,36.408c0.393,0.018 0.696,0.058 0.993,0.032c0.112,-0.011 0.294,-0.161 0.306,-0.262c0.099,-0.859 0.168,-1.72 0.245,-2.581c-0.051,-0.013 -0.104,-0.025 -0.156,-0.038c-0.449,0.923 -0.899,1.846 -1.388,2.849m9.53,-16.735c1.13,0.449 2.185,1.015 2.873,2.092c0.871,-0.623 0.884,-1.485 0.677,-2.23c-0.161,-0.585 -0.955,-0.504 -1.489,-0.654c-0.215,-0.06 -0.459,-0.002 -0.686,-0.031c-0.654,-0.08 -1.112,0.162 -1.375,0.823m-11.452,0.144c-0.719,0.176 -1.293,0.719 -1.905,1.176c-0.111,0.083 -0.169,0.257 -0.212,0.401c-0.306,1.028 -0.134,1.983 0.515,2.832c0.124,0.163 0.376,0.229 0.568,0.341c0.099,-0.195 0.251,-0.38 0.291,-0.587c0.255,-1.355 0.487,-2.716 0.743,-4.163m13.45,3.462c0.013,-1.194 -0.061,-1.503 -0.75,-1.923c-0.585,-0.356 -1.241,-0.595 -1.867,-0.885c-0.423,0.494 -0.908,0.948 -1.255,1.491c-0.769,1.2 -1.43,2.47 -2.213,3.661c-0.497,0.755 -0.498,1.205 0.513,1.732c0.359,0.186 0.812,0.239 1.228,0.264c1.875,0.117 4.541,-1.867 4.344,-4.34m-6.977,4.057c-0.6,1.158 -1.115,2.191 -1.666,3.205c-0.819,1.511 -0.84,1.663 0.759,2.251c1.477,0.545 3.029,0.888 4.557,1.287c0.511,0.134 0.681,-0.032 0.721,-0.609c0.122,-1.755 0.229,-3.51 0.344,-5.29c-1.592,0.309 -3.242,0.683 -4.715,-0.844m-4.678,-16.101c0.766,0.339 1.531,0.482 1.833,1.282c0.041,0.111 0.228,0.232 0.353,0.24c1.333,0.083 2.405,0.787 3.481,1.465c0.312,0.197 0.547,0.212 0.823,-0.028c1.025,-0.891 2.137,-0.683 3.261,-0.241c0.179,0.07 0.336,0.208 0.52,0.25c0.21,0.047 0.45,0.075 0.654,0.021c1.606,-0.423 1.765,-0.722 1.214,-2.332c-0.149,-0.434 -0.365,-0.85 -0.586,-1.253c-0.219,-0.398 -0.581,-0.616 -1.041,-0.633c-1.005,-0.036 -2.023,-0.09 -2.929,0.452c-0.51,0.305 -1.009,0.289 -1.556,0.169c-0.941,-0.207 -1.887,-0.394 -2.837,-0.55c-1.208,-0.197 -2.293,0.017 -3.19,1.158m2.425,21.659c-0.028,0.434 -0.043,0.659 -0.055,0.887c-0.11,2.307 -0.22,4.615 -0.33,6.922c-0.02,0.405 0.157,0.542 0.578,0.372c1.498,-0.605 3.014,-1.177 4.474,-1.867c2.095,-0.988 2.076,-1.028 1.97,-3.375c-0.008,-0.154 -0.018,-0.307 -0.02,-0.461c-0.004,-0.369 -0.197,-0.499 -0.552,-0.6c-1.987,-0.568 -4.089,-0.751 -6.065,-1.878m22.698,-0.086c0.233,-2.77 -0.307,-5.464 -1.056,-8.086c-0.569,-1.991 -1.473,-3.89 -2.295,-5.801c-0.301,-0.698 -0.754,-1.344 -1.212,-1.957c-0.913,-1.225 -2.141,-2.108 -3.405,-2.926c-0.303,-0.197 -0.72,-0.284 -1.088,-0.294c-1.567,-0.04 -3.046,0.403 -4.507,0.912c-0.037,0.013 -0.084,0.016 -0.108,0.041c-0.074,0.079 -0.212,0.198 -0.193,0.246c0.054,0.127 0.159,0.289 0.275,0.321c0.216,0.058 0.454,0.044 0.682,0.047c0.464,0.006 0.931,-0.037 1.388,0.01c1.25,0.127 2.321,1.088 2.553,2.331c-1.205,-1.109 -2.41,-2.061 -4.215,-1.529c0.216,0.397 0.425,0.721 0.567,1.071c0.061,0.154 0.01,0.375 -0.05,0.544c-0.017,0.045 -0.261,0.021 -0.397,0.006c-0.386,-0.041 -0.657,0.099 -0.821,0.448c0.055,0.045 0.08,0.076 0.111,0.087c0.072,0.024 0.145,0.05 0.22,0.056c2.197,0.185 3.96,1.145 5.287,2.918c0.252,0.337 0.552,0.652 0.883,0.911c1.699,1.328 2.844,3.148 4.134,4.812c1.192,1.541 2.239,3.236 2.856,5.136c0.08,0.248 0.258,0.465 0.391,0.696m-18.862,25.915c2.097,0.085 4.02,0.043 5.909,-0.433c0.371,-0.094 0.755,-0.134 1.13,-0.216c0.448,-0.098 0.521,-0.341 0.343,-0.765c-0.538,-1.279 -1.089,-2.556 -1.534,-3.868c-0.212,-0.626 -0.57,-0.856 -1.156,-0.915c-0.88,-0.089 -1.758,-0.19 -2.639,-0.283c-1.725,-0.185 -3.442,-0.416 -5.1,-0.96c-0.549,-0.182 -1.096,-0.367 -1.645,-0.548c-0.615,-0.203 -0.666,-0.187 -0.792,0.394c-0.454,2.092 -1.209,4.059 -2.369,5.867c-0.372,0.579 -0.326,0.646 0.367,0.825c2.508,0.656 5.038,1.144 7.486,0.902m-14.764,6.726c0.959,0 1.831,-0.015 2.703,0.005c0.961,0.02 1.928,0.098 2.664,-0.71c0.025,-0.027 0.068,-0.038 0.103,-0.053c2.207,-0.951 4.472,-1.716 6.898,-1.762c2.699,-0.051 5.401,-0.007 8.101,0.006c0.306,0.002 0.613,0.056 0.916,0.1c1.41,0.204 2.82,0.088 4.206,0.118c-0.862,-1.365 -1.707,-2.649 -2.489,-3.97c-0.249,-0.418 -0.47,-0.472 -0.924,-0.378c-1.506,0.305 -3.018,0.692 -4.541,0.775c-3.591,0.197 -7.165,-0.003 -10.647,-1.049c-0.904,-0.272 -0.92,-0.252 -1.492,0.526c-1.579,2.151 -3.249,4.219 -5.25,5.998c-0.08,0.071 -0.12,0.186 -0.248,0.394m17.716,-26.436c-1.104,0.532 -2.016,1.03 -2.971,1.417c-1.108,0.447 -2.249,0.819 -3.389,1.179c-0.625,0.197 -0.928,0.479 -0.966,1.212c-0.086,1.615 -0.317,3.223 -0.486,4.834c-0.074,0.715 -0.14,1.432 -0.211,2.149c0.679,0.261 1.349,0.55 2.037,0.782c2.212,0.744 4.548,0.806 6.829,1.169c0.438,0.069 0.897,0.009 1.444,0.009c-1.137,-4.214 -1.832,-8.384 -2.287,-12.751m-22.306,-9.083c0.837,-0.982 1.684,-1.926 2.475,-2.914c1.471,-1.839 2.98,-3.613 4.762,-5.186c1.227,-1.081 2.449,-2.101 3.913,-2.811c0.581,-0.284 1.003,-0.673 1.316,-1.238c0.569,-1.028 1.324,-1.885 2.375,-2.469c0.892,-0.497 1.848,-0.701 2.928,-0.71c-0.136,-0.15 -0.198,-0.254 -0.287,-0.313c-1.799,-1.157 -3.578,-1.069 -5.295,0.147c-2.429,1.717 -4.779,3.532 -6.817,5.72c-0.179,0.192 -0.329,0.495 -0.772,0.432c0.793,-1.27 1.734,-2.283 2.806,-3.176c1.036,-0.863 2.137,-1.657 3.109,-2.586c0.743,-0.709 1.518,-1.298 2.49,-1.625c0.473,-0.159 0.94,-0.331 1.485,-0.524c-0.254,-0.155 -0.435,-0.308 -0.644,-0.385c-1.683,-0.62 -3.401,-0.562 -5.122,-0.208c-0.293,0.061 -0.608,0.191 -0.834,0.382c-0.973,0.814 -2.063,1.545 -2.84,2.524c-1.66,2.094 -2.99,4.4 -3.573,7.067c-0.23,1.053 -0.514,2.095 -0.804,3.134c-0.436,1.57 -0.683,3.161 -0.671,4.739m14.24,-2.614c-0.066,-0.012 -0.131,-0.023 -0.196,-0.033c0.061,-0.599 0.06,-1.212 0.193,-1.794c0.561,-2.46 1.559,-4.763 2.617,-7.042c0.465,-0.999 0.946,-1.991 1.448,-3.047c-1.927,-0.362 -3.468,0.226 -4.552,1.702c-0.721,0.983 -1.284,2.114 -1.735,3.252c-0.687,1.734 -0.928,3.581 -0.937,5.445c-0.007,1.427 -0.009,2.86 0.115,4.28c0.12,1.379 0.357,2.753 0.633,4.11c0.146,0.718 0.017,1.522 0.595,2.289c0.388,-0.752 0.738,-1.39 1.051,-2.046c0.776,-1.629 1.568,-3.252 2.374,-4.867c1.33,-2.667 2.982,-5.14 4.352,-7.776c0.281,-0.54 0.723,-0.998 1.101,-1.485c0.261,-0.335 0.574,-0.632 0.801,-0.986c0.491,-0.767 1.168,-1.329 1.897,-1.843c0.158,-0.11 0.33,-0.203 0.489,-0.311c0.216,-0.148 0.317,-0.338 0.159,-0.586c-0.606,-0.949 -1.331,-1.765 -2.417,-2.19c-0.9,-0.352 -1.729,-0.212 -2.294,0.552c-0.96,1.298 -1.978,2.589 -2.693,4.024c-1.19,2.382 -2.063,4.908 -2.698,7.505c-0.071,0.29 -0.201,0.565 -0.303,0.847m-71.485,31.197c-0.024,-0.06 -0.048,-0.122 -0.072,-0.182c-1.119,0 -2.239,-0.037 -3.356,0.007c-3.238,0.125 -6.475,0.277 -9.713,0.429c-1.436,0.068 -2.837,0.316 -4.156,0.915c-0.721,0.327 -1.34,0.717 -1.419,1.651c-0.053,0.623 -0.479,1.046 -1.119,1.175c-0.412,0.083 -0.833,0.187 -1.249,0.174c-1.462,-0.044 -2.921,-0.153 -4.384,-0.206c-2.704,-0.097 -5.398,0.146 -8.097,0.25c-3.006,0.116 -6.019,0.097 -9.028,0.092c-2.084,-0.002 -4.168,-0.114 -6.25,-0.107c-0.558,0.002 -1.122,0.234 -1.67,0.404c-0.353,0.109 -0.617,0.371 -0.575,0.774c0.086,0.823 -0.431,1.153 -1.068,1.444c-1.808,0.825 -3.707,1.292 -5.673,1.523c-2.681,0.314 -5.361,0.631 -8.035,0.989c-0.643,0.086 -1.268,0.322 -1.891,0.524c-0.293,0.096 -0.582,0.267 -0.554,0.653c0.06,0.818 -0.494,1.05 -1.131,1.21c-0.485,0.123 -0.971,0.248 -1.458,0.363c-2.366,0.561 -4.744,1.049 -7.183,1.157c-0.286,0.013 -0.535,0.044 -0.604,0.395c-0.07,0.365 0.032,3.648 0.146,4.127c0.076,0 0.154,0.009 0.229,-0.001c3.194,-0.516 6.385,-1.06 9.585,-1.54c1.562,-0.235 3.145,-0.316 4.71,-0.532c1.793,-0.248 3.571,-0.615 5.367,-0.844c3.324,-0.42 6.662,-0.744 9.984,-1.179c1.561,-0.204 3.102,-0.566 4.651,-0.863c0.677,-0.129 1.193,-0.476 1.58,-1.067c0.612,-0.931 1.502,-1.546 2.501,-2.002c1.812,-0.826 3.734,-1.243 5.707,-1.372c2.849,-0.187 5.703,-0.325 8.556,-0.439c2.663,-0.105 5.317,-0.312 7.938,-0.772c1.743,-0.306 3.468,-0.735 5.179,-1.188c0.937,-0.249 1.03,-0.474 1.065,-1.395c0.045,-1.2 0.156,-1.369 1.248,-1.776c0.433,-0.162 0.873,-0.312 1.32,-0.429c2.161,-0.57 4.328,-1.122 6.49,-1.689c0.814,-0.212 1.62,-0.449 2.429,-0.673m71.666,-20.643c-1.89,0.707 -3.738,1.362 -5.558,2.086c-4.124,1.639 -8.394,2.554 -12.828,2.781c-1.534,0.079 -3.083,0.274 -4.577,0.622c-3.681,0.857 -7.397,1.58 -10.992,2.779c-0.437,0.146 -0.895,0.237 -1.347,0.337c-3.766,0.829 -7.536,1.647 -11.303,2.479c-3.059,0.675 -6.157,1.067 -9.283,1.185c-3.329,0.125 -6.506,0.793 -9.454,2.385c-1.81,0.975 -3.718,1.701 -5.681,2.298c-1.588,0.483 -3.166,0.996 -4.747,1.502c-2.212,0.705 -4.46,1.23 -6.788,1.338c-0.147,0.007 -0.297,-0.073 -0.445,-0.114c3.202,-0.585 6.252,-1.533 9.302,-2.502c3.093,-0.986 6.165,-1.996 9.051,-3.521c1.471,-0.779 3.048,-1.348 4.706,-1.561c1.835,-0.236 3.686,-0.339 5.529,-0.52c1.612,-0.16 3.244,-0.23 4.825,-0.546c4.386,-0.876 8.76,-1.817 13.118,-2.821c2.702,-0.624 5.375,-1.388 8.052,-2.126c4.137,-1.142 8.3,-2.106 12.621,-2.202c0.767,-0.017 1.548,-0.101 2.296,-0.272c2.558,-0.584 5.095,-1.245 7.54,-2.221c1.714,-0.685 3.45,-1.315 5.176,-1.969c-0.517,-0.058 -1.006,0.049 -1.494,0.041c-0.844,-0.014 -1.686,-0.129 -2.53,-0.143c-1.736,-0.033 -3.476,0.047 -5.199,-0.264c-0.53,-0.095 -1.068,-0.19 -1.605,-0.204c-3.243,-0.085 -6.487,-0.191 -9.731,-0.203c-3.36,-0.014 -6.721,0.041 -10.08,0.118c-5.754,0.132 -11.505,0.379 -17.259,0.433c-4.792,0.046 -9.571,0.294 -14.355,0.481c-4.13,0.161 -8.263,0.26 -12.394,0.279c-8.192,0.037 -16.384,0.03 -24.577,-0.016c-5.91,-0.032 -11.82,-0.178 -17.731,-0.236c-2.163,-0.021 -4.329,0.008 -6.489,0.122c-2.735,0.143 -5.461,0.432 -8.195,0.594c-3.315,0.195 -6.634,0.299 -9.949,0.485c-2.232,0.125 -4.462,0.31 -6.692,0.497c-1.297,0.11 -1.297,0.135 -1.297,1.454c0.001,9.744 0.001,19.487 0.002,29.23c0,0.234 -0.006,0.465 0.008,0.697c0.035,0.573 0.121,0.658 0.716,0.58c0.955,-0.125 1.915,-0.245 2.856,-0.443c1.736,-0.36 3.463,-0.772 5.19,-1.175c0.326,-0.077 0.734,-0.13 0.717,-0.604c-0.027,-0.72 0.458,-0.997 0.995,-1.269c1.165,-0.593 2.443,-0.703 3.701,-0.863c2.754,-0.349 5.527,-0.561 8.264,-1.011c1.349,-0.222 2.64,-0.83 3.942,-1.308c0.203,-0.074 0.457,-0.38 0.458,-0.578c0.002,-1.094 0.749,-1.486 1.598,-1.7c0.74,-0.185 1.519,-0.3 2.281,-0.301c4.019,-0.003 8.037,0.049 12.055,0.056c1.235,0.002 2.476,-0.028 3.705,-0.136c2.815,-0.245 5.627,-0.237 8.444,-0.031c0.923,0.067 1.854,0.076 2.778,0.036c0.405,-0.016 0.854,-0.145 1.189,-0.367c0.196,-0.13 0.214,-0.54 0.296,-0.829c0.191,-0.677 0.641,-1.135 1.235,-1.464c1.339,-0.741 2.783,-1.128 4.307,-1.211c1.462,-0.081 2.925,-0.147 4.39,-0.197c2.893,-0.101 5.789,-0.285 8.682,-0.248c2.924,0.037 5.739,-0.565 8.566,-1.126c2.079,-0.412 4.117,-1.019 6.194,-1.442c3.511,-0.716 7.043,-1.323 10.555,-2.037c2.076,-0.422 4.12,-1.001 6.193,-1.443c2.374,-0.505 4.767,-0.92 7.145,-1.41c1.661,-0.341 3.293,-0.888 4.968,-1.088c2.649,-0.317 5.235,-0.935 7.853,-1.394c2.467,-0.432 4.928,-0.919 7.367,-1.49c3.253,-0.764 6.54,-1.462 9.473,-3.196c0.098,-0.058 0.211,-0.094 0.32,-0.134c1.014,-0.367 2.019,-0.761 3.046,-1.087c0.528,-0.167 0.749,-0.455 0.758,-0.995c0.017,-0.918 0.072,-1.835 0.117,-2.877m-4.151,27.528c0.519,0.034 0.789,0.024 1.048,0.074c0.453,0.088 0.901,0.202 1.344,0.332c0.083,0.024 0.186,0.176 0.18,0.26c-0.005,0.09 -0.126,0.234 -0.208,0.242c-0.263,0.03 -0.531,0.025 -0.795,0.001c-0.344,-0.029 -0.685,-0.125 -1.03,-0.127c-2.048,-0.012 -4.096,-0.016 -6.143,0.006c-0.615,0.007 -1.23,0.122 -1.844,0.145c-0.154,0.006 -0.315,-0.152 -0.474,-0.235c0.128,-0.118 0.258,-0.34 0.385,-0.337c0.926,0.015 1.492,-0.56 2.002,-1.199c1.617,-2.02 3.274,-4.011 4.802,-6.096c1.467,-2.002 2.687,-4.177 3.221,-6.628c0.457,-2.106 0.748,-4.247 1.088,-6.377c0.115,-0.724 0.181,-1.457 0.22,-2.187c0.042,-0.802 -0.017,-0.854 -0.743,-0.631c-1.215,0.374 -2.409,0.797 -3.482,1.522c-0.406,0.274 -0.898,0.435 -1.366,0.602c-0.582,0.208 -1.181,0.359 -1.767,0.553c-0.879,0.288 -1.737,0.669 -2.634,0.878c-2.665,0.621 -5.338,1.206 -8.02,1.753c-2.758,0.563 -5.518,1.116 -8.292,1.575c-1.978,0.329 -3.948,0.664 -5.905,1.111c-2.63,0.601 -5.293,1.059 -7.93,1.633c-2.298,0.5 -4.569,1.126 -6.871,1.603c-3.51,0.727 -7.048,1.317 -10.552,2.069c-3.204,0.687 -6.389,1.469 -9.563,2.286c-2.987,0.77 -5.949,1.643 -8.924,2.465c-1.561,0.431 -3.119,0.875 -4.691,1.266c-0.829,0.207 -1.255,0.597 -1.189,1.522c0.061,0.873 -0.429,1.453 -1.267,1.717c-0.552,0.175 -1.102,0.356 -1.659,0.508c-3.63,0.994 -7.358,1.331 -11.088,1.592c-3.311,0.232 -6.632,0.321 -9.946,0.509c-1.829,0.103 -3.578,0.574 -5.225,1.386c-0.695,0.344 -1.354,0.755 -1.775,1.444c-0.563,0.916 -1.422,1.336 -2.438,1.604c-2.476,0.653 -5.012,0.85 -7.54,1.123c-1.764,0.192 -3.553,0.229 -5.291,0.553c-4.481,0.836 -9.02,1.182 -13.528,1.782c-2.408,0.32 -4.802,0.737 -7.209,1.067c-1.219,0.167 -1.109,0.252 -1.109,1.415c0.001,3.325 -0.01,6.651 0.005,9.977c0.008,1.975 -0.287,1.701 1.723,1.701c43.479,0.002 86.957,-0.004 130.436,-0.005c17.16,0 34.319,0.008 51.479,0.018c1.206,0.001 1.19,0.183 1.187,-1.174c0,-0.078 -0.001,-0.155 -0.001,-0.232c0.012,-10.945 0.015,-21.888 0.038,-32.833c0.007,-3.595 0.068,-7.189 0.1,-10.785c0.009,-1.005 0.019,-2.011 -0.001,-3.016c-0.021,-0.956 -0.142,-1.051 -1.041,-1.174c-0.611,-0.083 -1.215,-0.211 -1.819,-0.334c-2.228,-0.452 -4.451,-0.94 -6.686,-1.358c-1.475,-0.275 -2.999,-0.331 -4.447,-0.7c-3.705,-0.949 -7.472,-1.089 -11.26,-1.075c-0.606,0.003 -0.625,0.047 -0.625,0.689c0,0.231 0.008,0.465 0.042,0.694c0.364,2.477 0.702,4.96 1.109,7.431c0.483,2.936 1.187,5.834 2.366,8.557c1.165,2.69 2.587,5.267 3.92,7.881c0.124,0.242 0.413,0.435 0.67,0.563c0.228,0.112 0.528,0.072 0.778,0.157c0.196,0.066 0.47,0.185 0.519,0.341c0.094,0.302 -0.21,0.358 -0.436,0.386c-0.61,0.076 -1.223,0.199 -1.833,0.186c-2.43,-0.051 -4.858,-0.148 -7.287,-0.225c-0.811,-0.026 -1.623,-0.044 -2.433,-0.058c-2.047,-0.035 -4.095,-0.067 -6.123,0.297c-1.364,0.245 -2.682,0.641 -4.172,1.31m-2.05,-43.355c-1.358,1.173 -2.756,2.134 -3.735,3.567c-0.478,0.698 -1.01,1.378 -1.613,1.969c-1.149,1.131 -2.037,2.417 -2.643,3.907c-0.125,0.308 -0.19,0.764 -0.644,0.679c-0.467,-0.087 -0.346,-0.543 -0.334,-0.869c0.077,-2.278 0.19,-4.547 0.885,-6.752c0.579,-1.837 0.8,-3.784 1.647,-5.54c1.284,-2.67 2.796,-5.155 5.329,-6.876c0.901,-0.613 1.843,-0.939 2.912,-0.966c0.386,-0.009 0.774,-0.022 1.159,0.004c0.722,0.049 1.26,-0.075 1.772,-0.747c0.791,-1.045 2.032,-1.2 3.271,-1.021c1.067,0.155 2.127,0.378 3.182,0.601c0.429,0.092 0.791,0.115 1.207,-0.13c0.747,-0.44 1.6,-0.514 2.461,-0.539c1.193,-0.035 2.009,0.5 2.428,1.593c0.301,0.786 0.519,1.604 0.773,2.407c0.982,-0.105 1.967,-0.214 2.952,-0.315c0.562,-0.056 1.049,0.114 1.52,0.437c1.474,1.008 2.885,2.078 3.915,3.57c0.154,0.223 0.327,0.436 0.442,0.677c1.173,2.439 2.366,4.876 2.961,7.535c0.589,2.635 1.119,5.291 0.828,8.022c-0.051,0.468 0.117,1.176 -0.482,1.261c-0.485,0.07 -0.592,-0.621 -0.779,-1.021c-0.846,-1.817 -1.619,-3.67 -2.775,-5.325c-1.259,-1.806 -2.588,-3.551 -4.143,-5.117c-0.541,-0.545 -1.017,-1.157 -1.565,-1.698c-0.57,-0.563 -1.188,-1.077 -1.919,-1.734c-0.064,0.421 -0.135,0.661 -0.132,0.899c0.01,0.753 -0.254,1.378 -0.879,1.794c-0.395,0.262 -0.546,0.558 -0.569,1.038c-0.075,1.474 -0.557,2.777 -1.679,3.82c-0.283,0.263 -0.433,0.721 -0.535,1.118c-0.144,0.557 -0.246,1.138 -0.263,1.712c-0.055,1.929 -0.083,3.859 -0.084,5.788c-0.001,0.684 0.044,0.689 0.74,0.713c1.814,0.06 3.626,0.114 5.439,0.173c1.975,0.065 3.907,0.385 5.824,0.872c1.077,0.275 2.202,0.361 3.301,0.553c1.937,0.336 3.875,0.674 5.806,1.038c1.438,0.27 2.869,0.583 4.303,0.874c0.184,0.038 0.396,0.117 0.559,0.065c0.513,-0.163 0.636,0.174 0.683,0.527c0.055,0.42 0.036,0.849 0.036,1.274c0.012,10.983 0.021,21.966 0.029,32.949c0.004,4.602 0.004,9.204 0.005,13.806c0,0.309 0.002,0.618 -0.002,0.928c-0.014,1.181 -0.032,1.211 -1.262,1.212c-7.421,0.008 -14.842,0.007 -22.261,0.01c-20.253,0.009 -40.504,0.026 -60.756,0.025c-33.663,-0.003 -67.325,-0.017 -100.989,-0.028c-0.385,0 -0.78,0.026 -1.152,-0.051c-0.148,-0.031 -0.35,-0.31 -0.349,-0.476c0.023,-4.055 0.108,-8.111 0.097,-12.167c-0.003,-1.608 0.092,-3.215 0.028,-4.823c-0.01,-0.271 0.026,-0.552 -0.04,-0.805c-0.03,-0.111 -0.294,-0.259 -0.407,-0.227c-0.286,0.08 -0.547,0.252 -0.881,0.418c-0.144,-0.45 0.148,-0.617 0.407,-0.699c0.82,-0.259 0.941,-0.835 0.939,-1.611c-0.019,-9.861 -0.009,-19.722 -0.008,-29.585c0,-0.077 -0.004,-0.155 0,-0.231c0.021,-0.497 -0.006,-0.939 -0.698,-0.922c-0.117,0.003 -0.241,-0.219 -0.361,-0.337c0.12,-0.081 0.231,-0.217 0.361,-0.237c1.6,-0.248 3.197,-0.563 4.808,-0.699c3.229,-0.271 6.467,-0.443 9.703,-0.65c0.54,-0.035 1.082,-0.031 1.621,-0.06c2.544,-0.136 5.087,-0.28 7.63,-0.414c2.083,-0.109 4.164,-0.243 6.248,-0.305c2.78,-0.083 5.562,-0.166 8.342,-0.144c5.562,0.047 11.125,0.199 16.688,0.247c6.994,0.06 13.988,0.119 20.981,0.064c5.523,-0.041 11.051,-0.133 16.565,-0.432c4.631,-0.251 9.263,-0.32 13.896,-0.432c3.167,-0.076 6.333,-0.154 9.5,-0.209c4.75,-0.083 9.502,-0.193 14.254,-0.203c3.436,-0.007 6.874,0.115 10.31,0.213c0.846,0.024 1.685,0.221 2.532,0.263c1.809,0.088 3.621,0.139 5.433,0.178c0.529,0.012 0.56,-0.077 0.466,-0.641c-0.35,-2.092 -0.749,-4.178 -1.021,-6.279c-0.142,-1.105 -0.067,-2.239 -0.065,-3.36c0,-0.384 -0.086,-0.649 -0.465,-0.832c-1.091,-0.529 -1.496,-1.498 -1.602,-2.639c-0.018,-0.18 -0.047,-0.36 -0.086,-0.652" style="fill:#231f20;fill-rule:nonzero;"/><path d="M99.681,76.723c-0.215,0.163 -0.395,0.3 -0.576,0.437c0.121,0.12 0.227,0.315 0.365,0.343c0.295,0.059 0.637,0.03 0.724,-0.326c0.022,-0.087 -0.278,-0.253 -0.513,-0.454m2.712,2.233c-0.714,-0.094 -1.25,-0.188 -1.791,-0.218c-0.106,-0.007 -0.226,0.224 -0.34,0.346c0.105,0.093 0.203,0.256 0.317,0.267c0.562,0.056 1.132,0.093 1.814,-0.395m-3.252,-4.991c-0.964,-0.586 -1.767,-0.459 -2.57,-0.223c-0.077,0.024 -0.181,0.218 -0.154,0.273c0.057,0.111 0.202,0.265 0.297,0.255c0.744,-0.073 1.483,-0.182 2.427,-0.305m-5.594,2.445c-1.141,-0.41 -2.608,-0.173 -3.322,0.504c-0.106,0.103 -0.096,0.33 -0.138,0.499c0.17,0.012 0.394,0.1 0.502,0.023c0.751,-0.529 1.622,-0.679 2.49,-0.852c0.129,-0.025 0.25,-0.091 0.468,-0.174m55.057,-11.011c1.49,-0.67 2.807,-1.066 4.172,-1.311c2.028,-0.364 4.075,-0.332 6.122,-0.296c0.812,0.013 1.623,0.031 2.434,0.056c2.429,0.078 4.857,0.175 7.287,0.226c0.609,0.014 1.223,-0.109 1.833,-0.186c0.226,-0.027 0.53,-0.084 0.436,-0.386c-0.049,-0.155 -0.323,-0.275 -0.519,-0.341c-0.25,-0.084 -0.55,-0.044 -0.779,-0.156c-0.255,-0.128 -0.545,-0.322 -0.669,-0.564c-1.334,-2.613 -2.754,-5.192 -3.919,-7.881c-1.181,-2.723 -1.884,-5.621 -2.367,-8.556c-0.406,-2.471 -0.745,-4.954 -1.109,-7.432c-0.033,-0.23 -0.042,-0.463 -0.042,-0.694c0,-0.642 0.018,-0.685 0.626,-0.688c3.788,-0.014 7.554,0.126 11.259,1.074c1.448,0.37 2.972,0.425 4.448,0.7c2.234,0.417 4.458,0.906 6.686,1.358c0.603,0.123 1.208,0.251 1.818,0.335c0.9,0.123 1.021,0.218 1.041,1.172c0.02,1.006 0.01,2.012 0.001,3.017c-0.033,3.595 -0.092,7.19 -0.1,10.786c-0.023,10.943 -0.026,21.888 -0.038,32.832c0,0.077 0.001,0.154 0.001,0.232c0.003,1.356 0.02,1.176 -1.187,1.175c-17.16,-0.01 -34.318,-0.019 -51.479,-0.019c-43.478,0.001 -86.958,0.008 -130.436,0.005c-2.01,0 -1.714,0.274 -1.723,-1.7c-0.015,-3.327 -0.004,-6.652 -0.005,-9.978c0,-1.163 -0.109,-1.247 1.109,-1.415c2.406,-0.33 4.801,-0.746 7.209,-1.067c4.508,-0.599 9.047,-0.946 13.528,-1.782c1.737,-0.324 3.528,-0.361 5.291,-0.552c2.527,-0.273 5.065,-0.47 7.54,-1.124c1.017,-0.268 1.875,-0.687 2.437,-1.604c0.422,-0.689 1.08,-1.1 1.776,-1.444c1.647,-0.813 3.395,-1.283 5.225,-1.386c3.314,-0.189 6.635,-0.276 9.945,-0.509c3.731,-0.26 7.46,-0.599 11.088,-1.592c0.558,-0.151 1.108,-0.333 1.66,-0.507c0.838,-0.265 1.328,-0.845 1.267,-1.718c-0.066,-0.924 0.359,-1.315 1.19,-1.521c1.57,-0.392 3.129,-0.835 4.69,-1.267c2.974,-0.822 5.936,-1.694 8.924,-2.464c3.173,-0.818 6.359,-1.6 9.563,-2.287c3.503,-0.752 7.042,-1.343 10.551,-2.068c2.303,-0.477 4.573,-1.104 6.872,-1.604c2.637,-0.573 5.3,-1.033 7.93,-1.633c1.957,-0.446 3.927,-0.782 5.904,-1.111c2.775,-0.458 5.536,-1.013 8.292,-1.575c2.682,-0.548 5.357,-1.131 8.021,-1.753c0.898,-0.21 1.754,-0.589 2.634,-0.879c0.586,-0.193 1.186,-0.344 1.766,-0.551c0.469,-0.168 0.96,-0.328 1.367,-0.603c1.072,-0.725 2.266,-1.148 3.482,-1.521c0.726,-0.223 0.785,-0.172 0.743,0.629c-0.038,0.732 -0.105,1.465 -0.22,2.189c-0.339,2.129 -0.631,4.271 -1.089,6.376c-0.532,2.451 -1.753,4.627 -3.22,6.629c-1.528,2.085 -3.186,4.075 -4.802,6.096c-0.511,0.639 -1.076,1.213 -2.002,1.198c-0.127,-0.003 -0.256,0.218 -0.385,0.337c0.158,0.082 0.319,0.241 0.474,0.235c0.615,-0.022 1.229,-0.137 1.843,-0.144c2.048,-0.022 4.096,-0.018 6.145,-0.008c0.343,0.002 0.685,0.099 1.029,0.129c0.264,0.022 0.533,0.028 0.794,-0.001c0.083,-0.01 0.203,-0.153 0.21,-0.242c0.005,-0.086 -0.098,-0.237 -0.181,-0.261c-0.442,-0.129 -0.891,-0.244 -1.344,-0.331c-0.258,-0.051 -0.529,-0.041 -1.048,-0.074" style="fill:#ffeda7;fill-rule:nonzero;"/><path d="M2.402,87.812c0.981,-0.643 1.985,-1.241 2.963,-1.806c3.234,-1.868 6.448,-3.853 9.897,-5.303c3.976,-1.673 8.125,-2.643 12.341,-3.484c4.43,-0.883 8.981,-1.782 13.514,-1.832c3.447,-0.038 7.543,0.538 10.671,-1.251c-0.167,-0.281 -0.298,-0.581 -0.502,-0.837c-0.071,-0.09 -0.085,-0.238 0.019,-0.312c4.352,-3.097 9.547,-3.395 14.716,-3.524c2.244,-0.056 4.637,-0.098 6.697,-1.099c0.555,-0.271 1.149,-0.629 1.591,-1.066c0.379,-0.377 0.632,-0.851 0.948,-1.278c0.527,-0.713 1.259,-1.148 2.038,-1.546c3.725,-1.908 8.18,-2.311 12.273,-2.789c1.911,-0.223 3.813,-0.506 5.721,-0.74c2.082,-0.257 4.181,-0.344 6.274,-0.47c4.098,-0.249 8.762,-0.384 12.432,-2.459c-0.761,-0.656 -1.694,-1.198 -2.209,-2.078c-0.37,-0.63 -0.013,-1.262 0.451,-1.739c1.289,-1.322 3.338,-1.964 5.036,-2.551c0.995,-0.344 1.991,-0.691 2.991,-1.028c-0.023,0.006 -0.048,0.009 -0.072,0.015c-2.631,0.6 -5.293,1.06 -7.93,1.634c-2.299,0.499 -4.569,1.125 -6.872,1.602c-3.509,0.727 -7.048,1.318 -10.551,2.069c-3.204,0.687 -6.39,1.469 -9.562,2.287c-2.989,0.77 -5.951,1.642 -8.926,2.464c-1.561,0.431 -3.119,0.875 -4.69,1.267c-0.83,0.206 -1.255,0.597 -1.189,1.522c0.061,0.872 -0.429,1.452 -1.267,1.717c-0.551,0.174 -1.103,0.356 -1.66,0.508c-3.628,0.992 -7.357,1.331 -11.088,1.591c-3.31,0.232 -6.631,0.32 -9.945,0.51c-1.83,0.103 -3.578,0.573 -5.225,1.386c-0.696,0.343 -1.354,0.754 -1.776,1.443c-0.563,0.917 -1.421,1.336 -2.437,1.604c-2.475,0.654 -5.013,0.85 -7.54,1.124c-1.763,0.191 -3.554,0.228 -5.291,0.553c-4.481,0.835 -9.02,1.181 -13.529,1.782c-2.407,0.32 -4.802,0.736 -7.209,1.067c-1.217,0.167 -1.108,0.251 -1.108,1.414c0.001,3.211 -0.008,6.422 0.005,9.633" style="fill:#ffd887;fill-rule:nonzero;"/><path d="M152.777,64.088c-1.365,0.245 -2.682,0.641 -4.172,1.31c0.519,0.034 0.789,0.024 1.048,0.074c0.453,0.088 0.901,0.202 1.343,0.332c0.084,0.025 0.187,0.176 0.182,0.261c-0.006,0.089 -0.127,0.233 -0.21,0.241c-0.261,0.03 -0.53,0.024 -0.794,0.002c-0.344,-0.031 -0.686,-0.127 -1.029,-0.129c-2.048,-0.011 -4.097,-0.015 -6.145,0.008c-0.615,0.006 -1.228,0.122 -1.843,0.144c-0.155,0.006 -0.316,-0.153 -0.474,-0.235c0.129,-0.118 0.258,-0.34 0.384,-0.338c0.927,0.016 1.492,-0.559 2.002,-1.198c1.617,-2.019 3.275,-4.011 4.803,-6.096c1.299,-1.772 2.402,-3.682 3.008,-5.797c-2.127,0.025 -4.251,0.237 -6.339,0.68c-0.981,0.209 -1.952,0.467 -2.908,0.768c-0.931,0.294 -1.929,0.585 -2.796,1.04c-0.64,0.336 -1.326,0.599 -1.942,0.976c-0.277,0.168 -0.541,0.366 -0.749,0.616c-0.119,0.143 -0.221,0.299 -0.302,0.466c-0.062,0.13 -0.187,0.353 -0.171,0.497c0.025,0.204 0.312,0.397 0.456,0.515c0.217,0.18 0.446,0.348 0.65,0.543c0.167,0.161 0.336,0.351 0.384,0.584c0.041,0.197 -0.03,0.425 -0.078,0.617c-0.214,0.845 -0.795,1.531 -1.482,2.045c-0.821,0.613 -1.782,1.032 -2.733,1.399c-1.068,0.412 -2.16,0.756 -3.238,1.136c-1.745,0.617 -3.882,1.363 -4.914,3.022c2.814,1.478 5.987,2.22 9.086,2.831c2.616,0.515 5.256,0.895 7.856,1.496c2.588,0.598 5.167,1.232 7.773,1.751c2.717,0.54 5.473,0.979 8.247,1.065c2.354,0.074 4.808,-0.109 7,-1.035c-0.771,-1.662 -2.631,-2.539 -3.69,-3.995c-0.091,-0.126 -0.069,-0.263 0.068,-0.338c0.251,-0.136 0.511,-0.252 0.777,-0.354c1.409,-0.548 2.934,-0.801 4.418,-1.05c1.8,-0.302 3.608,-0.552 5.401,-0.906c1.737,-0.341 3.484,-0.767 5.103,-1.501c1.376,-0.622 2.686,-1.514 3.461,-2.843c0.385,-0.661 0.609,-1.411 0.686,-2.17c0.074,-0.73 0.088,-1.444 -0.101,-2.159c-0.345,-1.307 -1.287,-2.318 -2.397,-3.044c-1.328,-0.867 -2.877,-1.384 -4.407,-1.759c-1.736,-0.425 -3.511,-0.673 -5.288,-0.84c-1.503,-0.142 -3.008,-0.204 -4.513,-0.249c0.242,0.705 0.507,1.403 0.805,2.089c1.165,2.689 2.585,5.267 3.919,7.881c0.124,0.242 0.414,0.435 0.669,0.563c0.228,0.112 0.529,0.072 0.779,0.156c0.196,0.067 0.47,0.187 0.519,0.343c0.093,0.3 -0.21,0.358 -0.435,0.385c-0.611,0.076 -1.225,0.199 -1.834,0.186c-2.43,-0.05 -4.858,-0.148 -7.288,-0.225c-0.81,-0.025 -1.621,-0.045 -2.432,-0.059c-2.048,-0.035 -4.096,-0.067 -6.123,0.298" style="fill:#ffd887;fill-rule:nonzero;"/><path d="M114.304,43.103c2.634,-0.178 4.907,-0.678 5.66,-1.246c-1.671,-0.14 -5.004,0.592 -5.66,1.246m-98.636,11.175c0.016,0.056 0.033,0.111 0.05,0.167c0.101,-0.005 0.209,0.011 0.305,-0.019c2.738,-0.859 5.571,-1.197 8.409,-1.452c1.505,-0.136 2.98,-0.342 4.445,-0.702c3.781,-0.928 7.569,-1.826 11.354,-2.739c0.656,-0.159 1.308,-0.332 1.963,-0.5c-0.643,-0.108 -1.256,-0.093 -1.853,0.011c-3.193,0.555 -6.345,1.297 -9.448,2.234c-2.105,0.634 -4.209,1.28 -6.422,1.395c-2.316,0.122 -4.597,0.485 -6.858,0.978c-0.662,0.144 -1.297,0.414 -1.945,0.627m50.556,-8.996c-0.001,-0.06 -0.002,-0.119 -0.003,-0.179c-1.194,0 -2.389,-0.053 -3.578,0.011c-3.351,0.175 -6.699,0.443 -10.053,0.588c-2.356,0.103 -4.69,0.356 -7.01,0.752c-0.643,0.11 -1.285,0.274 -1.9,0.494c-0.607,0.216 -0.659,0.513 -0.284,1.331c0.119,-0.832 0.658,-1.05 1.317,-1.148c0.801,-0.119 1.59,-0.35 2.393,-0.41c3.578,-0.273 7.157,-0.513 10.737,-0.741c1.811,-0.116 3.625,-0.174 5.436,-0.278c0.693,-0.039 1.384,-0.118 2.073,-0.206c0.295,-0.037 0.582,-0.141 0.872,-0.214m40.072,-2.32c0.007,-0.067 0.014,-0.133 0.021,-0.199c-0.537,-0.029 -1.077,-0.096 -1.612,-0.079c-2.081,0.069 -4.163,0.13 -6.241,0.26c-2.212,0.139 -4.307,0.82 -6.385,1.547c-0.901,0.315 -1.417,0.89 -1.36,1.902c0.048,0.824 -0.358,1.399 -1.076,1.766c-0.379,0.192 -0.756,0.393 -1.151,0.542c-1.272,0.48 -2.577,0.756 -3.95,0.784c-2.12,0.041 -4.247,0.073 -6.358,0.261c-2.301,0.205 -4.591,0.546 -6.875,0.904c-1.176,0.184 -2.333,0.503 -3.484,0.809c-0.619,0.166 -1.118,0.56 -1.348,1.182c-0.529,1.437 -1.608,2.372 -2.917,2.992c-1.247,0.59 -2.56,1.077 -3.889,1.457c-2.184,0.623 -4.407,1.118 -6.61,1.682c-0.725,0.185 -1.44,0.413 -2.159,0.622c0.176,0.148 0.314,0.144 0.448,0.111c2.543,-0.622 5.092,-1.224 7.626,-1.881c1.34,-0.347 2.691,-0.704 3.975,-1.212c1.606,-0.636 3.038,-1.589 3.734,-3.27c0.303,-0.729 0.807,-1.1 1.49,-1.324c0.366,-0.119 0.741,-0.222 1.12,-0.28c1.981,-0.298 3.963,-0.599 5.949,-0.862c2.601,-0.344 5.206,-0.646 7.841,-0.546c0.462,0.017 0.926,0.016 1.39,-0.009c1.826,-0.102 3.589,-0.47 5.236,-1.302c0.967,-0.488 1.631,-1.161 1.535,-2.347c-0.058,-0.714 0.295,-1.171 0.952,-1.416c2.103,-0.784 4.254,-1.407 6.494,-1.598c1.768,-0.152 3.546,-0.161 5.318,-0.26c0.764,-0.042 1.523,-0.155 2.286,-0.236m46.46,-5.091c-0.045,1.041 -0.102,1.957 -0.117,2.875c-0.01,0.54 -0.231,0.829 -0.759,0.996c-1.027,0.326 -2.033,0.72 -3.046,1.087c-0.109,0.039 -0.222,0.076 -0.32,0.134c-2.932,1.734 -6.219,2.431 -9.473,3.195c-2.438,0.571 -4.9,1.059 -7.367,1.49c-2.617,0.46 -5.204,1.079 -7.853,1.395c-1.675,0.2 -3.307,0.747 -4.969,1.088c-2.377,0.49 -4.77,0.904 -7.144,1.41c-2.072,0.442 -4.117,1.021 -6.194,1.443c-3.511,0.714 -7.043,1.32 -10.554,2.036c-2.076,0.423 -4.115,1.032 -6.194,1.443c-2.827,0.56 -5.642,1.163 -8.566,1.125c-2.893,-0.036 -5.789,0.149 -8.683,0.248c-1.463,0.05 -2.927,0.117 -4.389,0.197c-1.524,0.084 -2.968,0.471 -4.307,1.212c-0.595,0.328 -1.044,0.787 -1.236,1.463c-0.082,0.29 -0.099,0.7 -0.295,0.831c-0.335,0.221 -0.783,0.35 -1.19,0.366c-0.923,0.04 -1.854,0.031 -2.777,-0.037c-2.817,-0.204 -5.628,-0.214 -8.443,0.032c-1.231,0.108 -2.471,0.138 -3.706,0.136c-4.018,-0.007 -8.036,-0.06 -12.054,-0.055c-0.763,0.001 -1.541,0.114 -2.281,0.3c-0.851,0.213 -1.597,0.605 -1.599,1.699c-0.001,0.199 -0.255,0.505 -0.459,0.579c-1.301,0.477 -2.591,1.086 -3.941,1.309c-2.736,0.449 -5.51,0.661 -8.264,1.01c-1.258,0.16 -2.535,0.271 -3.7,0.862c-0.538,0.272 -1.023,0.55 -0.996,1.27c0.017,0.474 -0.391,0.527 -0.718,0.603c-1.726,0.404 -3.452,0.815 -5.188,1.177c-0.942,0.197 -1.902,0.317 -2.858,0.443c-0.594,0.078 -0.679,-0.009 -0.715,-0.582c-0.013,-0.231 -0.008,-0.463 -0.008,-0.696c-0.001,-9.744 -0.001,-19.487 -0.002,-29.231c0,-1.319 0,-1.344 1.297,-1.452c2.229,-0.189 4.46,-0.373 6.693,-0.498c3.315,-0.186 6.633,-0.29 9.948,-0.485c2.734,-0.162 5.461,-0.451 8.195,-0.594c2.16,-0.115 4.326,-0.143 6.489,-0.122c5.911,0.058 11.821,0.203 17.731,0.236c8.193,0.046 16.385,0.053 24.576,0.015c4.132,-0.019 8.266,-0.118 12.395,-0.278c4.784,-0.188 9.563,-0.435 14.356,-0.481c5.753,-0.055 11.505,-0.302 17.258,-0.432c3.359,-0.077 6.72,-0.133 10.081,-0.119c3.243,0.012 6.487,0.119 9.73,0.202c0.537,0.015 1.075,0.11 1.605,0.205c1.724,0.311 3.462,0.232 5.199,0.263c0.844,0.015 1.686,0.131 2.53,0.143c0.488,0.008 0.977,-0.099 1.495,-0.04c-1.727,0.654 -3.462,1.283 -5.176,1.969c-2.445,0.977 -4.983,1.636 -7.54,2.222c-0.748,0.17 -1.53,0.253 -2.298,0.271c-4.32,0.096 -8.483,1.06 -12.619,2.202c-2.677,0.738 -5.35,1.502 -8.053,2.126c-4.359,1.004 -8.732,1.944 -13.118,2.821c-1.581,0.316 -3.214,0.386 -4.825,0.546c-1.842,0.18 -3.693,0.284 -5.528,0.521c-1.658,0.212 -3.236,0.781 -4.707,1.56c-2.885,1.526 -5.957,2.534 -9.051,3.52c-3.051,0.971 -6.1,1.918 -9.303,2.503c0.149,0.04 0.3,0.12 0.446,0.114c2.329,-0.108 4.576,-0.633 6.788,-1.338c1.581,-0.506 3.16,-1.019 4.748,-1.503c1.962,-0.597 3.87,-1.322 5.679,-2.298c2.95,-1.59 6.126,-2.259 9.455,-2.384c3.125,-0.119 6.224,-0.511 9.284,-1.185c3.766,-0.831 7.535,-1.651 11.302,-2.479c0.452,-0.1 0.91,-0.191 1.347,-0.338c3.595,-1.198 7.312,-1.921 10.992,-2.777c1.495,-0.349 3.043,-0.544 4.577,-0.623c4.435,-0.227 8.704,-1.141 12.828,-2.781c1.82,-0.724 3.668,-1.379 5.559,-2.085" style="fill:#41c4d9;fill-rule:nonzero;"/><path d="M6.059,51.057c1.448,-0.766 2.921,-1.496 4.326,-2.34c1.041,-0.626 2.119,-1.335 2.883,-2.299c-0.193,-0.115 -0.395,-0.214 -0.605,-0.297c-0.686,-0.273 -1.405,-0.47 -2.066,-0.803c-0.539,-0.272 -1.108,-0.667 -1.235,-1.298c-0.274,-1.35 1.425,-1.954 2.423,-2.244c1.229,-0.358 2.504,-0.527 3.765,-0.729c2.703,-0.436 5.432,-0.749 8.152,-1.053c2.696,-0.299 5.396,-0.553 8.099,-0.767c2.701,-0.21 5.393,-0.565 8.09,-0.836c2.366,-0.237 4.735,-0.45 7.105,-0.652c-3.993,-0.058 -7.988,-0.127 -11.981,-0.166c-2.164,-0.021 -4.33,0.008 -6.49,0.121c-2.735,0.144 -5.461,0.434 -8.195,0.595c-3.315,0.195 -6.634,0.298 -9.949,0.485c-2.232,0.125 -4.462,0.31 -6.692,0.497c-1.297,0.11 -1.297,0.135 -1.297,1.454c0.001,4.157 0.001,8.314 0.001,12.472c1.171,-0.795 2.417,-1.48 3.666,-2.14" style="fill:#00b9c3;fill-rule:nonzero;"/><path d="M46.946,47.86c1.308,-0.096 2.609,-0.271 3.9,-0.499c2.041,-0.36 4.056,-0.846 6.076,-1.318c-3.273,0.212 -6.546,0.429 -9.816,0.677c-0.803,0.062 -1.592,0.292 -2.393,0.411c-0.659,0.098 -1.197,0.316 -1.317,1.148c-0.128,-0.282 -0.187,-0.486 -0.209,-0.663c-0.204,0.159 -0.406,0.32 -0.606,0.473c-0.417,0.319 -0.854,0.625 -1.319,0.872c0.303,-0.003 0.615,0.019 0.932,0.073c-0.654,0.167 -1.307,0.341 -1.963,0.499c-3.785,0.912 -7.573,1.811 -11.354,2.74c-1.464,0.359 -2.94,0.566 -4.445,0.7c-1.199,0.109 -2.395,0.241 -3.585,0.412c-0.054,1.268 -0.545,2.434 -0.793,3.666c2.218,0.46 4.582,-0.052 6.723,-0.641c2.101,-0.574 4.145,-1.331 6.223,-1.98c1.692,-0.528 3.419,-0.858 5.16,-1.175c1.987,-0.361 3.982,-0.722 5.913,-1.32c1.586,-0.491 3.251,-1.155 4.46,-2.334c-0.583,-0.361 -0.991,-0.991 -1.607,-1.315c-0.173,-0.09 -0.245,-0.407 0.02,-0.426" style="fill:#00b9c3;fill-rule:nonzero;"/><path d="M147.197,39.956c-4.124,1.64 -8.393,2.554 -12.828,2.782c-1.534,0.078 -3.083,0.273 -4.577,0.621c-3.68,0.858 -7.397,1.581 -10.992,2.779c-0.438,0.146 -0.895,0.238 -1.347,0.337c-3.766,0.829 -7.536,1.648 -11.303,2.478c-3.059,0.675 -6.157,1.068 -9.283,1.186c-3.329,0.125 -6.506,0.793 -9.454,2.384c-1.81,0.977 -3.717,1.702 -5.68,2.299c-1.589,0.484 -3.167,0.997 -4.748,1.501c-2.044,0.653 -4.122,1.136 -6.263,1.292c-0.164,0.089 -0.326,0.183 -0.485,0.279c0.426,-0.017 0.853,-0.043 1.281,-0.057c2.893,-0.101 5.789,-0.284 8.682,-0.248c2.924,0.038 5.74,-0.565 8.566,-1.125c2.079,-0.413 4.117,-1.021 6.194,-1.443c3.512,-0.716 7.044,-1.322 10.555,-2.037c2.076,-0.423 4.12,-1 6.192,-1.442c2.375,-0.507 4.768,-0.92 7.146,-1.41c1.661,-0.342 3.294,-0.889 4.969,-1.089c2.649,-0.317 5.234,-0.935 7.852,-1.394c2.467,-0.432 4.929,-0.919 7.368,-1.491c3.252,-0.764 6.539,-1.461 9.472,-3.195c0.099,-0.058 0.211,-0.095 0.32,-0.134c1.014,-0.367 2.019,-0.761 3.046,-1.087c0.527,-0.166 0.748,-0.455 0.758,-0.996c0.016,-0.918 0.072,-1.834 0.117,-2.876c-1.89,0.707 -3.738,1.362 -5.558,2.086" style="fill:#fff;fill-rule:nonzero;"/><path d="M81.089,58.513c-0.809,0.225 -1.616,0.46 -2.428,0.674c-2.162,0.567 -4.329,1.119 -6.491,1.689c-0.446,0.117 -0.887,0.267 -1.319,0.428c-1.092,0.408 -1.204,0.577 -1.249,1.776c-0.034,0.921 -0.129,1.146 -1.066,1.395c-1.71,0.454 -3.435,0.882 -5.177,1.188c-2.622,0.46 -5.276,0.667 -7.938,0.773c-2.854,0.113 -5.708,0.252 -8.557,0.438c-1.972,0.13 -3.894,0.547 -5.707,1.373c-1,0.455 -1.89,1.07 -2.5,2.002c-0.388,0.591 -0.904,0.938 -1.581,1.067c-1.548,0.297 -3.09,0.659 -4.651,0.863c-3.323,0.434 -6.66,0.758 -9.984,1.179c-1.796,0.229 -3.573,0.596 -5.367,0.844c-1.564,0.215 -3.148,0.297 -4.71,0.531c-3.2,0.481 -6.39,1.024 -9.586,1.54c-0.075,0.011 -0.152,0.001 -0.228,0.001c-0.113,-0.479 -0.216,-3.762 -0.146,-4.126c0.069,-0.352 0.319,-0.383 0.605,-0.395c2.438,-0.109 4.815,-0.596 7.182,-1.157c0.487,-0.116 0.972,-0.241 1.459,-0.364c0.636,-0.159 1.19,-0.392 1.131,-1.21c-0.029,-0.385 0.26,-0.557 0.554,-0.652c0.622,-0.202 1.248,-0.439 1.891,-0.524c2.674,-0.359 5.354,-0.676 8.034,-0.989c1.967,-0.232 3.865,-0.698 5.673,-1.524c0.636,-0.291 1.155,-0.621 1.069,-1.443c-0.042,-0.404 0.221,-0.665 0.574,-0.775c0.549,-0.169 1.113,-0.402 1.67,-0.404c2.083,-0.006 4.167,0.105 6.251,0.107c3.008,0.006 6.021,0.024 9.027,-0.091c2.7,-0.104 5.393,-0.347 8.097,-0.25c1.462,0.053 2.922,0.161 4.384,0.205c0.415,0.014 0.837,-0.091 1.249,-0.174c0.64,-0.128 1.067,-0.551 1.119,-1.175c0.078,-0.933 0.698,-1.323 1.42,-1.65c1.319,-0.599 2.72,-0.848 4.155,-0.915c3.237,-0.152 6.474,-0.305 9.714,-0.43c1.116,-0.043 2.237,-0.007 3.356,-0.007c0.023,0.061 0.048,0.122 0.071,0.182" style="fill:#fff;fill-rule:nonzero;"/><path d="M152.574,27.316c0.102,-0.282 0.233,-0.556 0.303,-0.847c0.636,-2.597 1.509,-5.123 2.698,-7.504c0.715,-1.435 1.735,-2.726 2.694,-4.025c0.565,-0.764 1.394,-0.903 2.294,-0.551c1.085,0.424 1.81,1.24 2.416,2.189c0.158,0.248 0.058,0.438 -0.159,0.585c-0.159,0.11 -0.331,0.201 -0.488,0.313c-0.729,0.513 -1.407,1.075 -1.897,1.842c-0.228,0.355 -0.541,0.652 -0.8,0.986c-0.38,0.488 -0.822,0.945 -1.103,1.485c-1.369,2.637 -3.021,5.11 -4.351,7.776c-0.806,1.616 -1.597,3.238 -2.375,4.867c-0.312,0.657 -0.662,1.294 -1.051,2.047c-0.577,-0.767 -0.447,-1.573 -0.594,-2.29c-0.277,-1.357 -0.514,-2.73 -0.634,-4.11c-0.124,-1.419 -0.122,-2.852 -0.114,-4.28c0.009,-1.863 0.25,-3.711 0.937,-5.445c0.451,-1.138 1.013,-2.269 1.734,-3.251c1.084,-1.476 2.626,-2.065 4.553,-1.702c-0.503,1.056 -0.983,2.048 -1.448,3.046c-1.059,2.279 -2.057,4.582 -2.618,7.043c-0.133,0.581 -0.132,1.195 -0.192,1.793c0.064,0.011 0.131,0.021 0.195,0.033" style="fill:#91c84b;fill-rule:nonzero;"/><path d="M138.335,29.93c-0.013,-1.578 0.234,-3.169 0.671,-4.738c0.289,-1.039 0.574,-2.081 0.803,-3.134c0.584,-2.668 1.913,-4.974 3.574,-7.068c0.777,-0.979 1.866,-1.71 2.839,-2.524c0.227,-0.19 0.541,-0.321 0.834,-0.381c1.722,-0.354 3.439,-0.413 5.122,0.207c0.21,0.077 0.391,0.231 0.644,0.385c-0.545,0.194 -1.012,0.367 -1.485,0.525c-0.971,0.327 -1.746,0.915 -2.489,1.624c-0.973,0.929 -2.073,1.723 -3.109,2.587c-1.072,0.892 -2.013,1.905 -2.807,3.176c0.443,0.063 0.593,-0.241 0.773,-0.433c2.038,-2.187 4.388,-4.003 6.816,-5.72c1.718,-1.216 3.497,-1.304 5.294,-0.146c0.091,0.058 0.152,0.162 0.289,0.314c-1.081,0.007 -2.036,0.211 -2.929,0.708c-1.05,0.584 -1.805,1.442 -2.374,2.469c-0.313,0.565 -0.735,0.955 -1.317,1.238c-1.464,0.711 -2.685,1.73 -3.913,2.811c-1.781,1.573 -3.291,3.348 -4.761,5.186c-0.791,0.988 -1.639,1.933 -2.475,2.914" style="fill:#3fb654;fill-rule:nonzero;"/><path d="M160.64,39.013c0.456,4.367 1.15,8.537 2.287,12.752c-0.546,0 -1.006,0.059 -1.444,-0.01c-2.281,-0.362 -4.616,-0.425 -6.83,-1.169c-0.687,-0.231 -1.358,-0.521 -2.036,-0.782c0.071,-0.717 0.137,-1.433 0.212,-2.148c0.168,-1.612 0.4,-3.219 0.485,-4.835c0.039,-0.732 0.34,-1.015 0.966,-1.212c1.14,-0.359 2.281,-0.731 3.389,-1.178c0.955,-0.388 1.868,-0.886 2.971,-1.418" style="fill:#db9f51;fill-rule:nonzero;"/><path d="M142.924,65.449c0.129,-0.209 0.169,-0.323 0.249,-0.394c2.001,-1.779 3.671,-3.848 5.25,-5.997c0.571,-0.779 0.587,-0.798 1.491,-0.527c3.483,1.046 7.056,1.247 10.648,1.05c1.523,-0.083 3.035,-0.471 4.541,-0.776c0.454,-0.094 0.674,-0.04 0.923,0.378c0.784,1.321 1.627,2.605 2.49,3.97c-1.385,-0.03 -2.795,0.085 -4.205,-0.118c-0.304,-0.045 -0.612,-0.098 -0.917,-0.1c-2.701,-0.013 -5.402,-0.057 -8.102,-0.006c-2.425,0.046 -4.69,0.812 -6.898,1.762c-0.035,0.016 -0.078,0.026 -0.102,0.053c-0.737,0.808 -1.703,0.73 -2.664,0.71c-0.873,-0.02 -1.745,-0.005 -2.704,-0.005" style="fill:#db9f51;fill-rule:nonzero;"/><path d="M157.688,58.723c-2.448,0.242 -4.978,-0.246 -7.486,-0.901c-0.693,-0.18 -0.74,-0.246 -0.368,-0.826c1.161,-1.808 1.916,-3.775 2.37,-5.866c0.126,-0.582 0.177,-0.597 0.792,-0.395c0.549,0.181 1.096,0.366 1.645,0.548c1.658,0.544 3.375,0.775 5.1,0.96c0.88,0.093 1.759,0.194 2.639,0.283c0.586,0.059 0.944,0.29 1.156,0.915c0.445,1.311 0.996,2.589 1.534,3.868c0.177,0.425 0.105,0.668 -0.343,0.765c-0.374,0.082 -0.759,0.122 -1.13,0.216c-1.888,0.476 -3.811,0.518 -5.909,0.433" style="fill:#d77149;fill-rule:nonzero;"/><path d="M176.55,32.808c-0.133,-0.231 -0.31,-0.448 -0.39,-0.696c-0.617,-1.899 -1.665,-3.595 -2.857,-5.134c-1.29,-1.666 -2.434,-3.485 -4.134,-4.814c-0.329,-0.258 -0.631,-0.574 -0.883,-0.91c-1.326,-1.773 -3.09,-2.733 -5.286,-2.919c-0.075,-0.005 -0.148,-0.032 -0.22,-0.056c-0.031,-0.01 -0.056,-0.041 -0.112,-0.086c0.165,-0.349 0.436,-0.489 0.821,-0.448c0.136,0.014 0.381,0.038 0.397,-0.007c0.06,-0.168 0.111,-0.389 0.05,-0.544c-0.141,-0.35 -0.351,-0.674 -0.566,-1.07c1.805,-0.532 3.009,0.419 4.214,1.529c-0.231,-1.243 -1.303,-2.204 -2.551,-2.331c-0.459,-0.047 -0.926,-0.005 -1.389,-0.011c-0.229,-0.003 -0.466,0.013 -0.683,-0.047c-0.116,-0.032 -0.221,-0.194 -0.275,-0.321c-0.019,-0.048 0.12,-0.166 0.194,-0.246c0.024,-0.025 0.072,-0.028 0.107,-0.04c1.461,-0.51 2.94,-0.953 4.507,-0.912c0.368,0.009 0.786,0.098 1.088,0.294c1.264,0.818 2.492,1.701 3.405,2.925c0.458,0.614 0.912,1.26 1.212,1.957c0.822,1.911 1.728,3.811 2.296,5.802c0.749,2.622 1.289,5.316 1.055,8.085" style="fill:#3fb654;fill-rule:nonzero;"/><path d="M153.852,32.894c1.977,1.126 4.078,1.31 6.066,1.878c0.354,0.102 0.547,0.231 0.551,0.6c0.002,0.154 0.012,0.307 0.02,0.462c0.106,2.346 0.125,2.386 -1.97,3.374c-1.46,0.69 -2.975,1.262 -4.474,1.868c-0.42,0.169 -0.598,0.032 -0.577,-0.373c0.11,-2.306 0.219,-4.615 0.329,-6.922c0.012,-0.227 0.028,-0.454 0.055,-0.887" style="fill:#d77149;fill-rule:nonzero;"/><path d="M151.428,11.234c0.897,-1.141 1.982,-1.353 3.189,-1.156c0.951,0.154 1.896,0.342 2.837,0.549c0.548,0.12 1.046,0.136 1.557,-0.17c0.906,-0.542 1.924,-0.487 2.929,-0.45c0.459,0.016 0.822,0.234 1.041,0.632c0.221,0.404 0.436,0.819 0.585,1.253c0.552,1.609 0.393,1.909 -1.214,2.331c-0.203,0.054 -0.444,0.027 -0.653,-0.02c-0.184,-0.042 -0.341,-0.181 -0.52,-0.251c-1.124,-0.442 -2.237,-0.65 -3.261,0.241c-0.276,0.241 -0.511,0.225 -0.823,0.028c-1.078,-0.677 -2.148,-1.382 -3.482,-1.465c-0.124,-0.007 -0.311,-0.128 -0.352,-0.24c-0.302,-0.799 -1.067,-0.942 -1.833,-1.282" style="fill:#91c84b;fill-rule:nonzero;"/><path d="M156.106,27.336c1.472,1.528 3.123,1.153 4.714,0.845c-0.114,1.779 -0.221,3.535 -0.343,5.29c-0.04,0.577 -0.21,0.742 -0.721,0.609c-1.528,-0.398 -3.08,-0.743 -4.557,-1.287c-1.599,-0.589 -1.579,-0.741 -0.759,-2.251c0.551,-1.015 1.066,-2.048 1.666,-3.206" style="fill:#db9f51;fill-rule:nonzero;"/><path d="M163.083,23.279c0.197,2.473 -2.469,4.457 -4.345,4.342c-0.415,-0.026 -0.868,-0.078 -1.227,-0.266c-1.012,-0.526 -1.01,-0.975 -0.513,-1.732c0.782,-1.191 1.444,-2.46 2.213,-3.661c0.347,-0.543 0.832,-0.996 1.254,-1.491c0.626,0.291 1.283,0.529 1.868,0.886c0.689,0.421 0.762,0.728 0.75,1.922" style="fill:#754c28;fill-rule:nonzero;"/><path d="M149.632,19.817c-0.256,1.447 -0.487,2.808 -0.743,4.164c-0.039,0.206 -0.191,0.391 -0.29,0.585c-0.192,-0.11 -0.444,-0.177 -0.568,-0.339c-0.65,-0.85 -0.822,-1.804 -0.515,-2.833c0.042,-0.144 0.1,-0.318 0.211,-0.401c0.612,-0.457 1.186,-0.999 1.905,-1.176" style="fill:#754c28;fill-rule:nonzero;"/><path d="M161.084,19.674c0.263,-0.66 0.721,-0.903 1.375,-0.823c0.227,0.028 0.471,-0.03 0.686,0.031c0.534,0.15 1.328,0.068 1.489,0.654c0.207,0.744 0.195,1.607 -0.677,2.229c-0.687,-1.075 -1.743,-1.642 -2.873,-2.091" style="fill:#754c28;fill-rule:nonzero;"/><path d="M93.548,76.41c-0.219,0.084 -0.34,0.149 -0.468,0.175c-0.869,0.172 -1.739,0.323 -2.489,0.852c-0.109,0.076 -0.333,-0.011 -0.504,-0.024c0.043,-0.169 0.033,-0.396 0.139,-0.498c0.714,-0.678 2.181,-0.914 3.322,-0.505" style="fill:#231f20;fill-rule:nonzero;"/><path d="M99.141,73.964c-0.943,0.124 -1.683,0.233 -2.426,0.306c-0.095,0.009 -0.24,-0.145 -0.297,-0.255c-0.027,-0.056 0.076,-0.25 0.153,-0.272c0.803,-0.237 1.606,-0.364 2.57,0.221" style="fill:#231f20;fill-rule:nonzero;"/><path d="M102.394,78.956c-0.682,0.488 -1.253,0.451 -1.816,0.395c-0.112,-0.012 -0.21,-0.175 -0.316,-0.267c0.114,-0.122 0.234,-0.353 0.34,-0.347c0.541,0.032 1.078,0.124 1.792,0.219" style="fill:#231f20;fill-rule:nonzero;"/><path d="M99.681,76.723c0.235,0.201 0.535,0.367 0.513,0.454c-0.087,0.356 -0.429,0.385 -0.724,0.326c-0.138,-0.028 -0.244,-0.223 -0.365,-0.343c0.181,-0.137 0.361,-0.274 0.576,-0.437" style="fill:#231f20;fill-rule:nonzero;"/><path d="M106.296,42.962c-0.762,0.082 -1.521,0.194 -2.286,0.236c-1.772,0.1 -3.55,0.108 -5.318,0.261c-2.24,0.191 -4.39,0.813 -6.494,1.598c-0.657,0.245 -1.009,0.701 -0.952,1.415c0.096,1.187 -0.568,1.86 -1.535,2.348c-1.647,0.833 -3.41,1.201 -5.236,1.302c-0.463,0.026 -0.927,0.027 -1.39,0.008c-2.634,-0.1 -5.24,0.203 -7.841,0.546c-1.986,0.265 -3.968,0.564 -5.948,0.863c-0.38,0.057 -0.755,0.161 -1.121,0.28c-0.683,0.223 -1.187,0.594 -1.49,1.324c-0.696,1.682 -2.128,2.633 -3.734,3.269c-1.284,0.509 -2.634,0.866 -3.974,1.213c-2.535,0.657 -5.084,1.258 -7.627,1.881c-0.134,0.032 -0.272,0.036 -0.448,-0.111c0.719,-0.209 1.434,-0.437 2.16,-0.623c2.203,-0.563 4.425,-1.057 6.61,-1.682c1.328,-0.379 2.641,-0.866 3.888,-1.456c1.309,-0.621 2.388,-1.555 2.917,-2.992c0.231,-0.622 0.729,-1.016 1.348,-1.182c1.151,-0.307 2.309,-0.626 3.484,-0.81c2.284,-0.356 4.574,-0.699 6.875,-0.903c2.111,-0.189 4.238,-0.22 6.358,-0.262c1.373,-0.027 2.678,-0.302 3.951,-0.783c0.395,-0.15 0.771,-0.351 1.15,-0.543c0.718,-0.366 1.125,-0.941 1.077,-1.766c-0.058,-1.011 0.458,-1.586 1.36,-1.901c2.078,-0.726 4.172,-1.408 6.385,-1.547c2.078,-0.13 4.159,-0.192 6.24,-0.26c0.536,-0.018 1.075,0.05 1.612,0.078c-0.007,0.066 -0.013,0.134 -0.021,0.199" style="fill:#231f20;fill-rule:nonzero;"/><path d="M66.224,45.282c-0.29,0.073 -0.578,0.178 -0.872,0.215c-0.689,0.087 -1.38,0.166 -2.072,0.205c-1.812,0.104 -3.626,0.162 -5.437,0.279c-3.58,0.229 -7.16,0.468 -10.737,0.74c-0.804,0.061 -1.593,0.292 -2.394,0.411c-0.658,0.097 -1.197,0.315 -1.316,1.147c-0.375,-0.817 -0.323,-1.115 0.284,-1.331c0.615,-0.219 1.257,-0.384 1.899,-0.493c2.322,-0.396 4.654,-0.65 7.011,-0.753c3.355,-0.145 6.701,-0.412 10.053,-0.588c1.19,-0.063 2.384,-0.011 3.577,-0.011c0.001,0.06 0.003,0.119 0.004,0.179" style="fill:#231f20;fill-rule:nonzero;"/><path d="M15.668,54.279c0.648,-0.213 1.283,-0.483 1.945,-0.628c2.261,-0.493 4.542,-0.855 6.858,-0.977c2.213,-0.115 4.317,-0.761 6.422,-1.396c3.103,-0.936 6.255,-1.678 9.448,-2.233c0.597,-0.104 1.21,-0.12 1.853,-0.011c-0.655,0.167 -1.307,0.341 -1.963,0.5c-3.785,0.913 -7.573,1.811 -11.354,2.739c-1.465,0.36 -2.94,0.566 -4.445,0.702c-2.838,0.254 -5.671,0.593 -8.409,1.452c-0.095,0.03 -0.204,0.013 -0.305,0.018c-0.017,-0.055 -0.034,-0.11 -0.05,-0.166" style="fill:#231f20;fill-rule:nonzero;"/><path d="M114.304,43.103c0.656,-0.654 3.989,-1.386 5.66,-1.246c-0.753,0.568 -3.026,1.068 -5.66,1.246" style="fill:#231f20;fill-rule:nonzero;"/></g></g></g></svg>