<?xml version="1.0" encoding="UTF-8" standalone="no"?>
<!DOCTYPE svg PUBLIC "-//W3C//DTD SVG 1.1//EN" "http://www.w3.org/Graphics/SVG/1.1/DTD/svg11.dtd">
<svg width="100%" height="100%" viewBox="0 0 210 152" version="1.1" xmlns="http://www.w3.org/2000/svg" xmlns:xlink="http://www.w3.org/1999/xlink" xml:space="preserve" xmlns:serif="http://www.serif.com/" style="fill-rule:evenodd;clip-rule:evenodd;stroke-linejoin:round;stroke-miterlimit:2;">
    <g transform="matrix(1,0,0,1,-14894,-16243.2)">
        <g transform="matrix(5.55556,0,0,5.55556,14527.5,14350.4)">
            <g transform="matrix(1,0,0,1,80.1873,345.704)">
                <path d="M0,17.327C3.01,17.327 5.973,17.327 8.935,17.324C8.954,17.324 8.973,17.285 9.025,17.227C8.914,17.192 8.823,17.142 8.729,17.138C8.278,17.118 7.826,17.101 7.374,17.098C5.221,17.084 3.068,17.081 0.915,17.056C0.588,17.052 0.298,17.091 0,17.327M9.704,19.203C9.555,18.907 9.394,18.803 9.119,18.808C8.449,18.821 7.779,18.796 7.108,18.793C4.863,18.781 2.618,18.771 0.372,18.76C-0.017,18.758 -0.13,18.825 -0.37,19.203L9.704,19.203ZM9.62,-1.339C9.637,-1.414 9.659,-1.472 9.661,-1.531C9.692,-2.389 9.507,-3.229 9.433,-4.077C9.429,-4.124 9.42,-4.17 9.411,-4.215C9.355,-4.476 9.186,-4.627 8.929,-4.653C8.494,-4.698 8.06,-4.685 7.638,-4.544C7.478,-4.49 7.417,-4.4 7.464,-4.227C7.529,-3.988 7.576,-3.743 7.628,-3.501C7.747,-2.955 7.866,-2.409 7.98,-1.862C8.008,-1.728 8.048,-1.617 8.212,-1.631C8.646,-1.67 9.042,-1.548 9.428,-1.367C9.479,-1.343 9.544,-1.349 9.62,-1.339M-1.206,20.934C-1.187,20.971 -1.169,21.008 -1.152,21.045C-0.828,21.045 -0.504,21.046 -0.18,21.045C3.27,21.038 6.719,21.032 10.168,21.024C10.293,21.023 10.419,21.028 10.542,21.012C10.708,20.989 10.733,20.894 10.627,20.752C10.507,20.59 10.357,20.509 10.149,20.513C9.728,20.52 9.307,20.515 8.885,20.514C7.355,20.508 5.826,20.503 4.296,20.494C2.736,20.484 1.175,20.472 -0.385,20.456C-0.57,20.454 -0.717,20.512 -0.85,20.636C-0.963,20.742 -1.086,20.835 -1.206,20.934M3.945,0.133L3.945,0.144C4.179,0.13 4.415,0.135 4.644,0.097C4.904,0.054 4.939,-0.036 4.882,-0.299C4.759,-0.861 4.641,-1.423 4.524,-1.986C4.441,-2.382 4.356,-2.777 4.285,-3.176C4.25,-3.37 4.153,-3.433 3.963,-3.414C3.662,-3.384 3.375,-3.443 3.102,-3.577C3.046,-3.604 2.978,-3.637 2.925,-3.625C2.866,-3.611 2.799,-3.56 2.771,-3.506C2.746,-3.458 2.764,-3.384 2.769,-3.323C2.828,-2.656 2.886,-1.99 2.947,-1.324C2.979,-0.983 3.007,-0.641 3.053,-0.302C3.104,0.077 3.151,0.114 3.524,0.132C3.664,0.139 3.805,0.133 3.945,0.133M5.245,-0.18C5.307,-0.213 5.367,-0.231 5.411,-0.269C6.032,-0.802 6.718,-1.226 7.502,-1.477C7.677,-1.533 7.705,-1.636 7.664,-1.798C7.612,-2.01 7.577,-2.225 7.536,-2.44C7.433,-2.99 7.335,-3.541 7.226,-4.09C7.179,-4.328 7.124,-4.366 6.913,-4.271C6.226,-3.962 5.497,-3.794 4.777,-3.59C4.492,-3.508 4.487,-3.48 4.547,-3.191C4.645,-2.719 4.731,-2.245 4.834,-1.774C4.95,-1.245 5.002,-0.698 5.245,-0.18M4.627,19.496L4.627,19.48C3.331,19.48 2.035,19.482 0.739,19.479C0.38,19.477 0.021,19.46 -0.337,19.448C-0.592,19.44 -0.614,19.457 -0.624,19.692C-0.646,20.232 -0.642,20.236 -0.094,20.232C1.686,20.218 3.466,20.2 5.246,20.19C6.698,20.181 8.15,20.185 9.603,20.18C9.947,20.179 9.947,20.172 9.949,19.859C9.951,19.506 9.951,19.506 9.593,19.496C9.546,19.495 9.5,19.496 9.453,19.496L4.627,19.496ZM4.633,17.621L4.633,17.604C3.181,17.604 1.729,17.606 0.276,17.603C-0.139,17.602 -0.138,17.595 -0.086,18.031C-0.073,18.139 -0.066,18.249 -0.064,18.358C-0.061,18.522 0.032,18.574 0.179,18.565C0.475,18.549 0.771,18.52 1.067,18.518C3.628,18.507 6.189,18.501 8.751,18.492C8.875,18.492 9.01,18.512 9.123,18.473C9.229,18.436 9.353,18.354 9.399,18.259C9.633,17.778 9.526,17.621 8.991,17.621L4.633,17.621M10.809,21.293C10.521,21.315 10.25,21.354 9.978,21.353C7.824,21.346 5.671,21.328 3.518,21.318C1.957,21.31 0.396,21.308 -1.165,21.303C-1.211,21.303 -1.258,21.299 -1.305,21.3C-1.413,21.303 -1.481,21.35 -1.478,21.468C-1.475,21.546 -1.469,21.624 -1.464,21.702C-1.445,22.031 -1.445,22.033 -1.116,22.032C1.287,22.024 3.69,22.018 6.094,22.007C6.717,22.004 7.341,21.963 7.965,21.973C8.679,21.986 9.393,21.91 10.108,22.047C10.734,22.167 10.834,22.047 10.835,21.4C10.836,21.357 10.814,21.314 10.809,21.293M14.619,10.509C14.736,10.515 14.827,10.523 14.917,10.524C15.432,10.533 15.947,10.534 16.462,10.547C17.366,10.571 18.27,10.606 19.173,10.625C19.54,10.632 19.636,10.705 19.565,11.067C19.388,11.973 19.451,12.899 19.331,13.81C19.197,14.828 19.206,14.776 18.278,14.898C17.493,15.001 16.692,14.984 15.897,15.005C15.429,15.017 14.96,15.007 14.492,14.996C14.317,14.993 14.229,15.06 14.215,15.232C14.21,15.294 14.198,15.356 14.196,15.418C14.191,15.625 14.231,15.666 14.439,15.651C14.766,15.629 15.092,15.577 15.418,15.578C16.651,15.582 17.885,15.602 19.118,15.616C19.211,15.618 19.314,15.645 19.396,15.615C19.485,15.581 19.578,15.509 19.628,15.428C19.684,15.339 19.706,15.223 19.72,15.117C19.817,14.376 19.911,13.635 20.002,12.893C20.083,12.228 20.162,11.563 20.237,10.898C20.261,10.682 20.268,10.464 20.283,10.246C20.294,10.073 20.215,9.989 20.039,9.981C19.26,9.947 18.481,9.89 17.702,9.878C17.063,9.868 16.423,9.909 15.784,9.927C15.488,9.936 15.192,9.948 14.896,9.956C14.727,9.961 14.636,10.038 14.635,10.213C14.635,10.303 14.625,10.392 14.619,10.509M-7.604,16.12C-6.611,16.16 -5.643,15.975 -4.667,15.865C-4.513,15.848 -4.453,15.779 -4.451,15.626C-4.445,15.18 -4.568,15.066 -5.006,15.13C-5.037,15.135 -5.067,15.148 -5.098,15.151C-5.546,15.196 -5.994,15.264 -6.444,15.279C-7.224,15.306 -8.003,15.302 -8.784,15.306C-9.336,15.308 -9.442,15.233 -9.637,14.711C-9.669,14.624 -9.691,14.532 -9.709,14.441C-9.827,13.862 -9.95,13.283 -10.054,12.701C-10.108,12.395 -10.143,12.084 -10.152,11.774C-10.162,11.456 -10.112,11.425 -9.792,11.345C-8.625,11.054 -7.43,10.943 -6.24,10.801C-5.946,10.765 -5.652,10.733 -5.358,10.695C-5.213,10.676 -5.201,10.568 -5.208,10.451C-5.216,10.324 -5.263,10.251 -5.41,10.261C-5.892,10.293 -6.375,10.312 -6.856,10.346C-7.602,10.398 -8.346,10.459 -9.091,10.516C-9.215,10.526 -9.339,10.537 -9.462,10.552C-9.896,10.602 -10.327,10.658 -10.761,10.702C-11.06,10.733 -11.081,10.738 -11.041,11.04C-10.931,11.857 -10.826,12.675 -10.69,13.488C-10.573,14.193 -10.425,14.894 -10.271,15.593C-10.197,15.933 -10.178,15.935 -9.838,15.961C-9.094,16.017 -8.348,16.068 -7.604,16.12M4.631,9.383L4.631,9.388L1.073,9.388C0.761,9.388 0.449,9.382 0.137,9.385C-0.265,9.389 -0.281,9.403 -0.24,9.818C-0.206,10.159 -0.154,10.497 -0.104,10.836C-0.023,11.39 0.07,11.943 0.143,12.498C0.19,12.869 0.203,13.244 0.245,13.615C0.328,14.357 0.419,15.098 0.511,15.84C0.544,16.102 0.574,16.367 0.634,16.623C0.685,16.838 0.787,16.86 1.079,16.826C1.291,16.802 1.263,16.664 1.263,16.523C1.258,15.617 1.158,14.722 1.002,13.829C0.85,12.956 0.67,12.084 0.696,11.189C0.699,11.081 0.69,10.969 0.666,10.864C0.468,10.032 0.703,10.072 1.29,10.071C3.6,10.067 5.909,10.062 8.219,10.057C8.282,10.057 8.344,10.054 8.406,10.059C8.643,10.078 8.665,10.098 8.648,10.343C8.581,11.353 8.515,12.363 8.438,13.372C8.402,13.838 8.333,14.301 8.299,14.767C8.258,15.327 8.227,15.887 8.213,16.448C8.206,16.759 8.272,16.802 8.567,16.795C8.806,16.79 8.921,16.716 8.936,16.431C8.983,15.514 9.059,14.598 9.125,13.681C9.215,12.438 9.307,11.196 9.396,9.953C9.406,9.828 9.41,9.703 9.416,9.579C9.421,9.443 9.355,9.379 9.22,9.382C9.142,9.384 9.064,9.383 8.986,9.383L4.631,9.383ZM15.842,14.743L15.842,14.734C16.216,14.734 16.592,14.755 16.964,14.729C17.491,14.692 18.015,14.615 18.541,14.565C18.845,14.536 18.972,14.369 18.998,14.078C19.044,13.551 19.109,13.026 19.157,12.499C19.194,12.082 19.215,11.663 19.249,11.245C19.267,11.015 19.234,10.969 19.007,10.961C18.228,10.933 17.449,10.907 16.67,10.88C16.047,10.86 15.424,10.846 14.802,10.817C14.609,10.808 14.567,10.894 14.555,11.063C14.495,11.917 14.426,12.771 14.357,13.625C14.338,13.858 14.302,14.09 14.287,14.323C14.261,14.744 14.265,14.744 14.671,14.743L15.842,14.743M-7.625,15.022C-7.624,15.038 -7.623,15.055 -7.621,15.072C-6.737,14.994 -5.853,14.919 -4.97,14.837C-4.613,14.804 -4.606,14.795 -4.652,14.443C-4.705,14.042 -4.778,13.644 -4.833,13.244C-4.922,12.596 -4.997,11.947 -5.092,11.301C-5.143,10.961 -5.158,10.952 -5.508,10.987C-6.035,11.039 -6.562,11.096 -7.085,11.174C-7.901,11.296 -8.715,11.43 -9.526,11.577C-9.857,11.636 -9.89,11.678 -9.835,12.023C-9.704,12.852 -9.55,13.679 -9.397,14.505C-9.378,14.608 -9.31,14.703 -9.263,14.802C-9.188,14.958 -9.068,15.028 -8.889,15.024C-8.468,15.016 -8.047,15.022 -7.625,15.022M4.906,13.61L4.9,13.61C4.9,14.562 4.898,15.514 4.901,16.465C4.902,16.779 4.912,16.785 5.208,16.795C5.348,16.8 5.488,16.795 5.629,16.795C6.3,16.794 6.972,16.789 7.643,16.795C7.844,16.797 7.924,16.716 7.922,16.519C7.92,16.254 7.919,15.988 7.941,15.724C8.047,14.467 8.161,13.21 8.271,11.953C8.309,11.535 8.353,11.117 8.38,10.697C8.402,10.348 8.382,10.329 8.023,10.328C7.118,10.324 6.212,10.325 5.307,10.328C4.91,10.329 4.907,10.335 4.906,10.755C4.904,11.707 4.906,12.659 4.906,13.61M4.63,13.561L4.626,13.561C4.626,12.626 4.628,11.69 4.625,10.755C4.624,10.334 4.619,10.329 4.222,10.327C3.239,10.322 2.255,10.321 1.272,10.318C1.194,10.318 1.116,10.315 1.039,10.323C0.925,10.334 0.88,10.403 0.898,10.515C0.925,10.684 0.958,10.852 0.976,11.022C1.049,11.734 1.073,12.454 1.198,13.158C1.394,14.264 1.564,15.369 1.533,16.497C1.525,16.798 1.537,16.806 1.848,16.806C2.627,16.807 3.408,16.803 4.188,16.799C4.629,16.796 4.63,16.794 4.63,16.369L4.63,13.561M-9.626,8.278L-9.626,8.293C-8.501,8.293 -7.377,8.299 -6.253,8.291C-5.495,8.285 -5.547,8.437 -5.601,7.537C-5.603,7.506 -5.608,7.475 -5.614,7.445C-5.665,7.192 -5.692,7.164 -5.949,7.154C-6.167,7.145 -6.386,7.151 -6.605,7.146C-6.987,7.139 -7.027,7.117 -7.071,6.73C-7.118,6.327 -7.137,5.922 -7.158,5.517C-7.18,5.084 -7.175,5.084 -7.604,5.081L-7.651,5.081C-9.556,5.082 -11.461,5.083 -13.366,5.084C-13.475,5.084 -13.585,5.08 -13.694,5.087C-13.93,5.102 -13.956,5.127 -13.952,5.37C-13.949,5.557 -13.939,5.745 -13.916,5.931C-13.833,6.61 -13.743,7.289 -13.656,7.969C-13.607,8.349 -13.607,8.351 -13.231,8.344C-12.029,8.323 -10.828,8.3 -9.626,8.278M19.459,4.806L19.459,4.781C18.383,4.781 17.308,4.781 16.231,4.782C16.107,4.782 15.977,4.765 15.859,4.794C15.789,4.811 15.707,4.893 15.685,4.963C15.654,5.063 15.672,5.179 15.672,5.287C15.673,5.802 15.682,6.316 15.673,6.83C15.666,7.215 15.576,7.302 15.216,7.332C14.844,7.363 14.844,7.363 14.832,7.735C14.83,7.782 14.832,7.828 14.827,7.875C14.813,8.032 14.88,8.109 15.041,8.103C15.118,8.1 15.196,8.101 15.274,8.101C17.598,8.101 19.921,8.101 22.244,8.1C22.307,8.1 22.369,8.102 22.431,8.1C22.729,8.088 22.752,8.075 22.809,7.8C22.868,7.51 22.925,7.22 22.963,6.927C23.044,6.295 23.122,5.662 23.179,5.027C23.201,4.79 23.148,4.759 22.919,4.741C22.857,4.736 22.794,4.739 22.732,4.74C21.641,4.762 20.55,4.784 19.459,4.806M14.668,9.68C14.736,9.704 14.764,9.724 14.792,9.723C15.991,9.682 17.19,9.626 18.39,9.603C18.887,9.594 19.385,9.659 19.883,9.687C20.007,9.694 20.133,9.68 20.257,9.692C20.492,9.715 20.567,9.776 20.566,10.015C20.565,10.42 20.551,10.827 20.51,11.228C20.407,12.219 20.291,13.208 20.17,14.197C20.122,14.598 20.064,15 19.981,15.396C19.884,15.857 19.753,15.953 19.266,15.942C18.627,15.927 17.989,15.868 17.35,15.871C16.416,15.877 15.481,15.918 14.546,15.95C14.194,15.962 14.174,15.968 14.141,16.311C14.073,17.008 14.046,17.709 13.968,18.406C13.933,18.713 14,18.768 14.284,18.753C14.331,18.75 14.378,18.753 14.425,18.753L20.183,18.759C20.277,18.759 20.371,18.757 20.464,18.758C20.592,18.759 20.669,18.697 20.695,18.572C20.713,18.481 20.729,18.389 20.743,18.296C20.879,17.357 21.028,16.42 21.146,15.478C21.284,14.383 21.394,13.283 21.516,12.185C21.555,11.829 21.584,11.472 21.636,11.118C21.752,10.332 21.881,9.55 22.001,8.765C22.052,8.436 22.047,8.434 21.706,8.425C21.612,8.422 21.519,8.425 21.425,8.425C19.474,8.422 17.523,8.421 15.573,8.417C15.371,8.417 15.167,8.389 14.966,8.402C14.894,8.407 14.773,8.487 14.766,8.544C14.719,8.925 14.697,9.309 14.668,9.68M-9.202,8.632L-9.202,8.624C-10.326,8.624 -11.45,8.623 -12.574,8.625C-12.893,8.626 -12.92,8.658 -12.881,8.978C-12.833,9.365 -12.784,9.751 -12.724,10.136C-12.458,11.827 -12.192,13.518 -11.916,15.207C-11.749,16.237 -11.562,17.263 -11.386,18.291C-11.324,18.653 -11.314,18.674 -10.94,18.666C-10.176,18.65 -9.412,18.611 -8.647,18.605C-7.274,18.594 -5.9,18.6 -4.527,18.599C-4.417,18.599 -4.308,18.597 -4.199,18.595C-4.034,18.592 -3.983,18.507 -4.014,18.351C-4.089,17.969 -4.166,17.587 -4.231,17.203C-4.28,16.912 -4.314,16.618 -4.352,16.325C-4.369,16.191 -4.439,16.133 -4.573,16.151C-4.65,16.162 -4.727,16.171 -4.805,16.181C-5.408,16.252 -6.01,16.364 -6.615,16.387C-7.769,16.431 -8.923,16.412 -10.069,16.231C-10.281,16.198 -10.413,16.103 -10.47,15.9C-10.525,15.705 -10.599,15.514 -10.632,15.315C-10.826,14.179 -11.016,13.043 -11.194,11.905C-11.25,11.552 -11.269,11.193 -11.303,10.836C-11.319,10.674 -11.257,10.565 -11.092,10.524C-11.001,10.501 -10.913,10.462 -10.821,10.451C-10.204,10.369 -9.586,10.28 -8.967,10.22C-8.175,10.144 -7.382,10.092 -6.588,10.032C-6.247,10.005 -5.904,9.983 -5.562,9.962C-5.398,9.952 -5.283,9.899 -5.316,9.708C-5.358,9.463 -5.403,9.218 -5.455,8.974C-5.526,8.638 -5.529,8.634 -5.877,8.633C-6.985,8.63 -8.094,8.632 -9.202,8.632M2.879,2.348C0.775,2.331 -2.753,2.305 -6.282,2.279C-6.776,2.276 -6.791,2.279 -6.794,2.753C-6.804,4.017 -6.804,5.281 -6.802,6.545C-6.801,6.872 -6.772,6.892 -6.459,6.903C-6.381,6.906 -6.303,6.902 -6.225,6.902C-4.976,6.895 -3.727,6.887 -2.478,6.884C3.143,6.874 8.764,6.866 14.385,6.858C14.541,6.858 14.7,6.857 14.851,6.889C15.321,6.991 15.319,6.997 15.328,6.536C15.329,6.473 15.329,6.411 15.329,6.349C15.325,5.163 15.318,3.977 15.317,2.792C15.317,2.352 15.323,2.352 14.89,2.348C14.859,2.347 14.828,2.348 14.796,2.348L2.879,2.348ZM4.541,7.182L4.541,7.157L-3.987,7.157C-4.362,7.157 -4.737,7.159 -5.112,7.154C-5.291,7.152 -5.362,7.209 -5.332,7.406C-5.238,8.021 -5.165,8.64 -5.075,9.257C-4.968,9.997 -4.848,10.736 -4.741,11.476C-4.624,12.292 -4.521,13.112 -4.4,13.928C-4.239,15.022 -4.076,16.116 -3.896,17.206C-3.775,17.944 -3.619,18.676 -3.489,19.413C-3.452,19.619 -3.364,19.706 -3.146,19.695C-2.772,19.676 -2.397,19.687 -2.022,19.675C-1.727,19.665 -1.432,19.636 -1.137,19.619C-0.992,19.612 -0.893,19.561 -0.904,19.398C-0.921,19.16 -0.792,19.005 -0.601,18.915C-0.357,18.801 -0.308,18.617 -0.335,18.379C-0.351,18.24 -0.335,18.096 -0.362,17.959C-0.468,17.429 -0.576,17.188 0.115,16.951C0.264,16.9 0.332,16.786 0.316,16.622C0.268,16.11 0.233,15.597 0.176,15.086C0.111,14.513 -0.005,13.945 -0.042,13.371C-0.127,12.046 -0.374,10.747 -0.598,9.444C-0.655,9.117 -0.615,9.052 -0.292,9.041C-0.198,9.038 -0.104,9.039 -0.011,9.039C3.189,9.044 6.39,9.049 9.59,9.053C9.797,9.053 9.857,9.122 9.833,9.342C9.812,9.543 9.781,9.744 9.766,9.945C9.7,10.847 9.641,11.749 9.575,12.651C9.544,13.071 9.506,13.49 9.466,13.909C9.381,14.808 9.297,15.708 9.2,16.607C9.173,16.861 9.207,17.08 9.434,17.223C9.83,17.471 9.882,17.803 9.706,18.209C9.567,18.53 9.663,18.783 9.961,18.96C10.169,19.084 10.247,19.256 10.239,19.505C10.229,19.853 10.265,19.886 10.608,19.889C11.483,19.897 12.357,19.893 13.232,19.887C13.496,19.885 13.51,19.861 13.531,19.584C13.63,18.294 13.727,17.004 13.826,15.713C13.862,15.247 13.904,14.781 13.942,14.315C14.025,13.289 14.108,12.264 14.191,11.239C14.244,10.586 14.297,9.933 14.345,9.281C14.389,8.69 14.432,8.099 14.46,7.507C14.472,7.257 14.45,7.251 14.192,7.236C14.13,7.232 14.068,7.235 14.005,7.234C10.851,7.217 7.695,7.2 4.541,7.182M3.155,0.396C3.21,0.883 3.265,1.328 3.309,1.774C3.324,1.925 3.388,2.003 3.542,2.002C3.698,2.001 3.854,2.004 4.011,2.004C7.634,2.003 11.257,2.001 14.881,2C15.508,2 15.582,2.072 15.587,2.694C15.592,3.147 15.583,3.599 15.594,4.052C15.603,4.428 15.619,4.441 16.005,4.442C17.349,4.444 18.691,4.438 20.035,4.44C20.987,4.442 21.94,4.451 22.893,4.46C23.366,4.465 23.466,4.532 23.442,4.998C23.407,5.681 23.318,6.362 23.239,7.042C23.204,7.335 23.131,7.624 23.085,7.916C23.038,8.208 22.913,8.42 22.584,8.426C22.413,8.428 22.342,8.494 22.32,8.672C22.172,9.83 22.005,10.986 21.859,12.144C21.735,13.133 21.629,14.125 21.516,15.116C21.445,15.735 21.39,16.356 21.305,16.973C21.227,17.543 21.121,18.109 21.022,18.677C20.969,18.985 20.91,19.043 20.592,19.05C20.077,19.062 19.562,19.061 19.046,19.061C17.531,19.064 16.016,19.064 14.501,19.066C14.392,19.066 14.282,19.068 14.173,19.066C13.981,19.062 13.888,19.147 13.888,19.347C13.888,19.502 13.858,19.657 13.852,19.812C13.837,20.158 13.84,20.165 13.487,20.167C12.644,20.171 11.801,20.166 10.957,20.165L10.47,20.165C10.642,20.4 10.777,20.589 10.916,20.774C11.264,21.239 11.087,21.726 10.962,22.203C10.945,22.266 10.789,22.325 10.695,22.33C10.43,22.344 10.164,22.327 9.899,22.325C6.744,22.312 3.589,22.303 0.435,22.286C-0.143,22.283 -0.72,22.245 -1.297,22.244C-1.531,22.244 -1.644,22.137 -1.69,21.934C-1.738,21.722 -1.775,21.507 -1.811,21.292C-1.838,21.132 -1.741,21.033 -1.627,20.94C-1.434,20.783 -1.242,20.624 -1.058,20.455C-0.993,20.395 -0.935,20.311 -0.908,20.227C-0.872,20.114 -0.899,20.002 -1.044,19.983C-1.167,19.968 -1.293,19.966 -1.418,19.965C-2.074,19.957 -2.729,19.952 -3.385,19.946C-3.715,19.942 -3.751,19.909 -3.799,19.582C-3.89,18.946 -3.89,18.947 -4.539,18.946C-6.491,18.943 -8.443,18.942 -10.395,18.933C-10.691,18.932 -10.987,18.903 -11.282,18.872C-11.593,18.84 -11.622,18.805 -11.668,18.519C-11.766,17.92 -11.86,17.32 -11.962,16.722C-12.264,14.956 -12.581,13.193 -12.866,11.425C-12.995,10.626 -13.077,9.818 -13.152,9.012C-13.189,8.619 -13.198,8.6 -13.542,8.583C-13.766,8.571 -13.889,8.476 -13.912,8.251C-14.013,7.275 -14.133,6.301 -14.211,5.323C-14.254,4.782 -14.222,4.774 -13.681,4.775C-11.667,4.781 -9.652,4.789 -7.637,4.797C-7.575,4.797 -7.512,4.803 -7.45,4.8C-7.195,4.79 -7.179,4.783 -7.172,4.534C-7.163,4.159 -7.176,3.784 -7.166,3.41C-7.157,3.098 -7.138,2.786 -7.107,2.476C-7.071,2.127 -6.993,2.049 -6.632,2.037C-6.039,2.017 -5.445,2.011 -4.852,2.01C-2.462,2.005 -0.073,2.005 2.317,2.004C2.379,2.004 2.441,2.003 2.504,2.003C3.044,2.001 3.027,2.003 2.969,1.484C2.824,0.168 2.696,-1.15 2.563,-2.467C2.527,-2.823 2.5,-3.181 2.471,-3.538C2.464,-3.631 2.461,-3.726 2.47,-3.819C2.492,-4.03 2.584,-4.094 2.783,-4.027C2.945,-3.972 3.104,-3.905 3.26,-3.834C3.587,-3.683 3.923,-3.667 4.265,-3.763C5.165,-4.017 6.073,-4.239 6.942,-4.604C7.368,-4.783 7.832,-4.891 8.29,-4.971C8.556,-5.017 8.852,-4.977 9.12,-4.914C9.485,-4.829 9.744,-4.569 9.754,-4.19C9.779,-3.302 10.04,-2.433 9.965,-1.538C9.959,-1.461 9.968,-1.382 9.962,-1.304C9.937,-0.963 9.85,-0.906 9.513,-1.011C9.409,-1.043 9.301,-1.072 9.205,-1.122C8.651,-1.408 8.084,-1.355 7.523,-1.17C6.926,-0.971 6.364,-0.684 5.895,-0.264C5.309,0.26 4.64,0.458 3.871,0.399C3.654,0.383 3.436,0.396 3.155,0.396" style="fill:rgb(35,31,32);fill-rule:nonzero;"/>
            </g>
        </g>
        <g transform="matrix(5.55556,0,0,5.55556,14527.5,14350.4)">
            <g transform="matrix(1,0,0,1,84.7278,365.571)">
                <path d="M0,-12.685C3.155,-12.667 6.31,-12.65 9.465,-12.633C9.527,-12.632 9.59,-12.635 9.652,-12.631C9.909,-12.616 9.932,-12.61 9.92,-12.36C9.892,-11.768 9.848,-11.177 9.805,-10.586C9.757,-9.934 9.703,-9.281 9.65,-8.628C9.568,-7.603 9.485,-6.578 9.401,-5.552C9.363,-5.086 9.322,-4.62 9.286,-4.154C9.187,-2.863 9.089,-1.573 8.99,-0.283C8.969,-0.006 8.955,0.018 8.692,0.02C7.817,0.026 6.942,0.03 6.068,0.022C5.725,0.019 5.688,-0.014 5.699,-0.362C5.707,-0.611 5.629,-0.783 5.42,-0.907C5.123,-1.084 5.026,-1.337 5.166,-1.658C5.341,-2.064 5.29,-2.396 4.893,-2.644C4.666,-2.787 4.632,-3.006 4.66,-3.26C4.756,-4.159 4.84,-5.059 4.926,-5.958C4.966,-6.377 5.003,-6.796 5.034,-7.216C5.101,-8.118 5.16,-9.02 5.226,-9.922C5.24,-10.123 5.271,-10.324 5.293,-10.525C5.317,-10.745 5.256,-10.814 5.049,-10.814C1.849,-10.818 -1.351,-10.823 -4.551,-10.828C-4.645,-10.828 -4.739,-10.829 -4.833,-10.826C-5.156,-10.815 -5.195,-10.75 -5.139,-10.423C-4.915,-9.12 -4.668,-7.821 -4.583,-6.496C-4.546,-5.922 -4.429,-5.354 -4.365,-4.781C-4.307,-4.27 -4.273,-3.757 -4.225,-3.245C-4.209,-3.081 -4.277,-2.967 -4.425,-2.916C-5.117,-2.679 -5.009,-2.438 -4.903,-1.908C-4.875,-1.771 -4.891,-1.627 -4.875,-1.488C-4.849,-1.25 -4.897,-1.066 -5.141,-0.952C-5.332,-0.862 -5.462,-0.706 -5.445,-0.469C-5.433,-0.306 -5.532,-0.255 -5.677,-0.247C-5.973,-0.231 -6.268,-0.202 -6.563,-0.192C-6.937,-0.18 -7.313,-0.191 -7.687,-0.172C-7.905,-0.161 -7.993,-0.248 -8.029,-0.454C-8.16,-1.191 -8.315,-1.923 -8.437,-2.661C-8.617,-3.751 -8.78,-4.845 -8.941,-5.939C-9.062,-6.755 -9.164,-7.575 -9.282,-8.391C-9.389,-9.131 -9.509,-9.87 -9.616,-10.61C-9.706,-11.227 -9.778,-11.846 -9.873,-12.461C-9.902,-12.658 -9.831,-12.715 -9.652,-12.713C-9.278,-12.708 -8.903,-12.71 -8.528,-12.71L0,-12.71L0,-12.685" style="fill:rgb(255,215,113);fill-rule:nonzero;"/>
            </g>
        </g>
        <g transform="matrix(5.55556,0,0,5.55556,14527.5,14350.4)">
            <g transform="matrix(1,0,0,1,83.0661,352.629)">
                <path d="M0,-4.577L12.011,-4.577C12.444,-4.572 12.438,-4.572 12.438,-4.133C12.439,-2.947 12.446,-1.762 12.45,-0.576C12.45,-0.513 12.45,-0.451 12.449,-0.389C12.44,0.072 12.442,0.066 11.972,-0.035C11.821,-0.068 11.662,-0.067 11.506,-0.067C5.885,-0.059 0.264,-0.051 -5.357,-0.04C-6.606,-0.038 -7.855,-0.029 -9.104,-0.023C-9.182,-0.023 -9.26,-0.019 -9.338,-0.022C-9.651,-0.033 -9.68,-0.053 -9.681,-0.379C-9.683,-1.643 -9.683,-2.907 -9.673,-4.171C-9.669,-4.646 -9.655,-4.649 -9.161,-4.645C-5.632,-4.62 -2.104,-4.593 0,-4.577" style="fill:rgb(36,170,225);fill-rule:nonzero;"/>
            </g>
        </g>
        <g transform="matrix(5.55556,0,0,5.55556,14527.5,14350.4)">
            <g transform="matrix(1,0,0,1,70.9855,364.369)">
                <path d="M0,-10.033C1.108,-10.033 2.216,-10.035 3.325,-10.032C3.672,-10.032 3.675,-10.027 3.747,-9.691C3.798,-9.448 3.843,-9.202 3.885,-8.957C3.918,-8.766 3.803,-8.713 3.64,-8.703C3.298,-8.682 2.955,-8.66 2.613,-8.634C1.82,-8.574 1.026,-8.521 0.235,-8.445C-0.385,-8.385 -1.002,-8.296 -1.619,-8.215C-1.711,-8.203 -1.799,-8.164 -1.89,-8.141C-2.055,-8.1 -2.117,-7.991 -2.102,-7.829C-2.067,-7.472 -2.048,-7.114 -1.993,-6.76C-1.814,-5.622 -1.625,-4.486 -1.431,-3.35C-1.397,-3.152 -1.324,-2.96 -1.268,-2.765C-1.211,-2.562 -1.08,-2.468 -0.867,-2.434C0.279,-2.253 1.433,-2.235 2.587,-2.278C3.192,-2.301 3.793,-2.413 4.397,-2.485C4.475,-2.494 4.552,-2.503 4.629,-2.514C4.763,-2.532 4.833,-2.474 4.85,-2.341C4.887,-2.047 4.921,-1.753 4.971,-1.462C5.036,-1.078 5.113,-0.696 5.188,-0.314C5.219,-0.158 5.168,-0.073 5.003,-0.071C4.894,-0.069 4.784,-0.066 4.675,-0.066C3.301,-0.065 1.928,-0.071 0.554,-0.06C-0.21,-0.054 -0.974,-0.015 -1.738,0.001C-2.113,0.009 -2.123,-0.012 -2.185,-0.374C-2.36,-1.402 -2.547,-2.429 -2.714,-3.458C-2.99,-5.147 -3.256,-6.839 -3.522,-8.53C-3.583,-8.914 -3.631,-9.301 -3.679,-9.687C-3.719,-10.007 -3.691,-10.039 -3.372,-10.04C-2.248,-10.042 -1.124,-10.041 0,-10.041L0,-10.033Z" style="fill:rgb(254,193,67);fill-rule:nonzero;"/>
            </g>
        </g>
        <g transform="matrix(5.55556,0,0,5.55556,14527.5,14350.4)">
            <g transform="matrix(1,0,0,1,94.8551,363.182)">
                <path d="M0,-7.798C0.029,-8.169 0.051,-8.553 0.098,-8.934C0.105,-8.991 0.226,-9.071 0.298,-9.075C0.499,-9.088 0.703,-9.061 0.905,-9.06C2.855,-9.057 4.806,-9.055 6.757,-9.053C6.851,-9.053 6.944,-9.055 7.038,-9.053C7.379,-9.043 7.384,-9.041 7.333,-8.713C7.213,-7.928 7.084,-7.145 6.968,-6.36C6.916,-6.006 6.887,-5.649 6.848,-5.293C6.726,-4.194 6.616,-3.095 6.479,-1.999C6.36,-1.058 6.211,-0.12 6.075,0.819C6.062,0.911 6.045,1.003 6.027,1.095C6.001,1.219 5.924,1.281 5.796,1.28C5.703,1.279 5.609,1.281 5.515,1.281L-0.243,1.275C-0.29,1.275 -0.337,1.273 -0.384,1.275C-0.668,1.29 -0.735,1.236 -0.7,0.928C-0.622,0.232 -0.595,-0.469 -0.527,-1.167C-0.494,-1.51 -0.474,-1.515 -0.122,-1.527C0.813,-1.559 1.748,-1.601 2.682,-1.606C3.321,-1.61 3.959,-1.551 4.598,-1.536C5.085,-1.524 5.216,-1.621 5.313,-2.082C5.396,-2.477 5.454,-2.879 5.502,-3.28C5.623,-4.269 5.739,-5.258 5.842,-6.249C5.883,-6.651 5.897,-7.057 5.898,-7.462C5.899,-7.702 5.824,-7.762 5.589,-7.785C5.465,-7.798 5.339,-7.783 5.215,-7.791C4.717,-7.819 4.219,-7.883 3.722,-7.874C2.522,-7.852 1.323,-7.795 0.124,-7.754C0.096,-7.753 0.068,-7.773 0,-7.798" style="fill:rgb(254,193,67);fill-rule:nonzero;"/>
            </g>
        </g>
        <g transform="matrix(5.55556,0,0,5.55556,14527.5,14350.4)">
            <g transform="matrix(1,0,0,1,99.6467,353.744)">
                <path d="M0,-3.234C1.091,-3.256 2.182,-3.278 3.272,-3.299C3.335,-3.301 3.397,-3.304 3.459,-3.299C3.689,-3.281 3.742,-3.249 3.72,-3.012C3.662,-2.378 3.584,-1.745 3.503,-1.113C3.466,-0.82 3.409,-0.529 3.349,-0.24C3.292,0.036 3.269,0.048 2.972,0.06C2.909,0.063 2.847,0.061 2.785,0.061C0.461,0.061 -1.862,0.062 -4.186,0.062C-4.263,0.062 -4.341,0.061 -4.419,0.064C-4.58,0.07 -4.646,-0.008 -4.632,-0.164C-4.628,-0.211 -4.63,-0.258 -4.628,-0.304C-4.616,-0.676 -4.616,-0.676 -4.243,-0.708C-3.884,-0.738 -3.794,-0.824 -3.787,-1.209C-3.777,-1.723 -3.787,-2.238 -3.787,-2.752C-3.787,-2.861 -3.805,-2.977 -3.774,-3.077C-3.753,-3.147 -3.67,-3.228 -3.6,-3.245C-3.482,-3.275 -3.353,-3.258 -3.228,-3.258L0,-3.258L0,-3.234" style="fill:rgb(9,143,207);fill-rule:nonzero;"/>
            </g>
        </g>
        <g transform="matrix(5.55556,0,0,5.55556,14527.5,14350.4)">
            <g transform="matrix(1,0,0,1,70.5612,350.945)">
                <path d="M0,3.037C-1.202,3.059 -2.403,3.082 -3.605,3.103C-3.981,3.11 -3.981,3.108 -4.03,2.728C-4.117,2.049 -4.207,1.37 -4.29,0.69C-4.313,0.504 -4.323,0.316 -4.326,0.129C-4.33,-0.114 -4.304,-0.138 -4.068,-0.153C-3.959,-0.16 -3.849,-0.156 -3.74,-0.156C-1.835,-0.157 0.07,-0.158 1.975,-0.159C1.991,-0.159 2.006,-0.16 2.022,-0.159C2.451,-0.157 2.446,-0.157 2.468,0.276C2.489,0.681 2.508,1.087 2.555,1.489C2.599,1.876 2.639,1.898 3.021,1.906C3.24,1.91 3.458,1.904 3.677,1.913C3.934,1.924 3.961,1.952 4.012,2.204C4.018,2.235 4.023,2.266 4.025,2.297C4.079,3.197 4.131,3.045 3.373,3.05C2.249,3.058 1.125,3.053 0,3.053L0,3.037Z" style="fill:rgb(9,143,207);fill-rule:nonzero;"/>
            </g>
        </g>
        <g transform="matrix(5.55556,0,0,5.55556,14527.5,14350.4)">
            <g transform="matrix(1,0,0,1,84.8176,359.265)">
                <path d="M0,0.001L0,2.808C0,3.234 -0.001,3.236 -0.442,3.238C-1.223,3.242 -2.003,3.247 -2.783,3.246C-3.093,3.245 -3.105,3.238 -3.097,2.937C-3.066,1.809 -3.236,0.704 -3.433,-0.403C-3.558,-1.106 -3.582,-1.826 -3.654,-2.539C-3.672,-2.708 -3.705,-2.876 -3.732,-3.045C-3.75,-3.158 -3.706,-3.227 -3.592,-3.238C-3.515,-3.246 -3.436,-3.243 -3.358,-3.242C-2.375,-3.24 -1.392,-3.239 -0.409,-3.233C-0.011,-3.231 -0.006,-3.227 -0.005,-2.806C-0.002,-1.87 -0.004,-0.935 -0.004,0.001L0,0.001Z" style="fill:rgb(195,154,107);fill-rule:nonzero;"/>
            </g>
        </g>
        <g transform="matrix(5.55556,0,0,5.55556,14527.5,14350.4)">
            <g transform="matrix(1,0,0,1,85.093,359.217)">
                <path d="M0,0.097C0,-0.855 -0.001,-1.806 0,-2.758C0.001,-3.178 0.004,-3.184 0.401,-3.185C1.306,-3.189 2.212,-3.189 3.117,-3.185C3.476,-3.184 3.496,-3.165 3.474,-2.816C3.447,-2.397 3.403,-1.979 3.366,-1.56C3.255,-0.303 3.141,0.953 3.035,2.211C3.013,2.474 3.015,2.741 3.017,3.006C3.018,3.202 2.938,3.284 2.737,3.282C2.066,3.276 1.395,3.281 0.723,3.282C0.583,3.282 0.442,3.286 0.302,3.282C0.006,3.272 -0.004,3.266 -0.005,2.952C-0.007,2 -0.006,1.049 -0.006,0.097L0,0.097Z" style="fill:rgb(195,154,107);fill-rule:nonzero;"/>
            </g>
        </g>
        <g transform="matrix(5.55556,0,0,5.55556,14527.5,14350.4)">
            <g transform="matrix(1,0,0,1,72.5618,356.706)">
                <path d="M0,4.02C-0.421,4.02 -0.843,4.015 -1.264,4.022C-1.443,4.026 -1.562,3.956 -1.637,3.8C-1.684,3.702 -1.752,3.606 -1.771,3.503C-1.925,2.677 -2.079,1.851 -2.21,1.021C-2.264,0.676 -2.232,0.634 -1.901,0.575C-1.089,0.428 -0.275,0.294 0.541,0.172C1.064,0.094 1.591,0.037 2.118,-0.015C2.468,-0.05 2.483,-0.041 2.533,0.299C2.629,0.945 2.703,1.594 2.792,2.242C2.848,2.642 2.921,3.041 2.973,3.441C3.02,3.793 3.012,3.802 2.656,3.835C1.772,3.917 0.888,3.992 0.004,4.07C0.003,4.053 0.001,4.037 0,4.02" style="fill:rgb(120,200,239);fill-rule:nonzero;"/>
            </g>
        </g>
        <g transform="matrix(5.55556,0,0,5.55556,14527.5,14350.4)">
            <g transform="matrix(1,0,0,1,96.0291,356.524)">
                <path d="M0,3.923L-1.17,3.923C-1.577,3.923 -1.581,3.923 -1.555,3.503C-1.54,3.27 -1.504,3.038 -1.485,2.805C-1.416,1.951 -1.347,1.097 -1.287,0.243C-1.275,0.074 -1.233,-0.012 -1.04,-0.003C-0.417,0.026 0.206,0.04 0.829,0.06C1.607,0.087 2.386,0.113 3.165,0.141C3.392,0.149 3.425,0.195 3.407,0.425C3.373,0.843 3.353,1.262 3.315,1.679C3.267,2.206 3.202,2.731 3.156,3.258C3.13,3.548 3.003,3.716 2.699,3.745C2.173,3.795 1.649,3.872 1.123,3.909C0.75,3.935 0.374,3.914 0,3.914L0,3.923Z" style="fill:rgb(120,200,239);fill-rule:nonzero;"/>
            </g>
        </g>
        <g transform="matrix(5.55556,0,0,5.55556,14527.5,14350.4)">
            <g transform="matrix(1,0,0,1,84.8186,362.56)">
                <path d="M0,-7.473L4.354,-7.473C4.433,-7.473 4.511,-7.473 4.588,-7.474C4.724,-7.477 4.79,-7.413 4.784,-7.277C4.778,-7.153 4.774,-7.028 4.765,-6.903C4.675,-5.661 4.583,-4.418 4.494,-3.175C4.427,-2.258 4.352,-1.342 4.305,-0.425C4.29,-0.14 4.174,-0.066 3.936,-0.061C3.641,-0.055 3.574,-0.098 3.582,-0.409C3.596,-0.969 3.627,-1.53 3.668,-2.089C3.702,-2.555 3.771,-3.018 3.806,-3.484C3.883,-4.493 3.95,-5.503 4.017,-6.514C4.034,-6.758 4.011,-6.778 3.775,-6.797C3.713,-6.802 3.65,-6.799 3.588,-6.799C1.278,-6.794 -1.032,-6.789 -3.342,-6.785C-3.928,-6.784 -4.164,-6.824 -3.966,-5.992C-3.941,-5.887 -3.932,-5.775 -3.935,-5.667C-3.961,-4.772 -3.781,-3.9 -3.629,-3.027C-3.474,-2.135 -3.373,-1.239 -3.369,-0.333C-3.368,-0.192 -3.34,-0.055 -3.553,-0.03C-3.844,0.004 -3.947,-0.018 -3.997,-0.233C-4.058,-0.49 -4.087,-0.754 -4.12,-1.016C-4.212,-1.758 -4.303,-2.499 -4.387,-3.241C-4.429,-3.613 -4.441,-3.988 -4.489,-4.358C-4.561,-4.913 -4.655,-5.466 -4.735,-6.02C-4.785,-6.359 -4.837,-6.698 -4.871,-7.038C-4.913,-7.453 -4.896,-7.467 -4.495,-7.471C-4.183,-7.474 -3.871,-7.469 -3.558,-7.468L0,-7.468L0,-7.473Z" style="fill:rgb(246,141,63);fill-rule:nonzero;"/>
            </g>
        </g>
        <g transform="matrix(5.55556,0,0,5.55556,14527.5,14350.4)">
            <g transform="matrix(1,0,0,1,72.5838,355.996)">
                <path d="M0,5.829C-0.745,5.776 -1.49,5.726 -2.235,5.669C-2.574,5.643 -2.593,5.642 -2.668,5.301C-2.821,4.602 -2.969,3.902 -3.087,3.197C-3.223,2.384 -3.328,1.565 -3.437,0.748C-3.477,0.447 -3.456,0.442 -3.157,0.411C-2.724,0.367 -2.292,0.31 -1.859,0.26C-1.735,0.246 -1.611,0.235 -1.487,0.225C-0.743,0.167 0.002,0.107 0.747,0.055C1.229,0.021 1.711,0.002 2.193,-0.03C2.34,-0.04 2.387,0.033 2.395,0.16C2.403,0.277 2.39,0.384 2.245,0.403C1.952,0.441 1.658,0.474 1.364,0.509C0.174,0.652 -1.021,0.762 -2.188,1.054C-2.509,1.134 -2.559,1.164 -2.549,1.482C-2.54,1.792 -2.504,2.104 -2.45,2.41C-2.347,2.992 -2.223,3.57 -2.106,4.15C-2.087,4.241 -2.066,4.332 -2.033,4.419C-1.838,4.941 -1.733,5.017 -1.18,5.015C-0.4,5.011 0.38,5.014 1.159,4.988C1.609,4.973 2.057,4.904 2.506,4.859C2.537,4.856 2.566,4.844 2.597,4.839C3.035,4.774 3.159,4.888 3.153,5.334C3.151,5.487 3.09,5.556 2.936,5.574C1.961,5.683 0.992,5.869 0,5.829" style="fill:rgb(246,141,63);fill-rule:nonzero;"/>
            </g>
        </g>
        <g transform="matrix(5.55556,0,0,5.55556,14527.5,14350.4)">
            <g transform="matrix(1,0,0,1,94.8058,360.729)">
                <path d="M0,-4.516C0.007,-4.632 0.016,-4.722 0.016,-4.811C0.017,-4.987 0.108,-5.064 0.277,-5.068C0.573,-5.077 0.87,-5.089 1.166,-5.098C1.805,-5.116 2.444,-5.157 3.083,-5.146C3.862,-5.134 4.641,-5.078 5.42,-5.044C5.596,-5.036 5.675,-4.952 5.664,-4.778C5.649,-4.561 5.643,-4.343 5.618,-4.127C5.543,-3.461 5.465,-2.796 5.383,-2.132C5.292,-1.39 5.199,-0.649 5.101,0.092C5.087,0.198 5.065,0.315 5.01,0.403C4.959,0.484 4.867,0.557 4.777,0.59C4.695,0.621 4.593,0.593 4.499,0.591C3.266,0.577 2.033,0.558 0.8,0.554C0.474,0.553 0.147,0.604 -0.179,0.627C-0.387,0.641 -0.428,0.6 -0.422,0.393C-0.421,0.331 -0.408,0.269 -0.403,0.207C-0.39,0.036 -0.301,-0.032 -0.126,-0.028C0.342,-0.017 0.811,-0.007 1.279,-0.019C2.073,-0.041 2.875,-0.023 3.659,-0.127C4.587,-0.249 4.578,-0.197 4.712,-1.214C4.833,-2.125 4.77,-3.051 4.947,-3.958C5.018,-4.32 4.921,-4.392 4.555,-4.4C3.651,-4.418 2.747,-4.454 1.843,-4.477C1.329,-4.491 0.813,-4.492 0.298,-4.5C0.208,-4.502 0.118,-4.51 0,-4.516" style="fill:rgb(246,141,63);fill-rule:nonzero;"/>
            </g>
        </g>
        <g transform="matrix(5.55556,0,0,5.55556,14527.5,14350.4)">
            <g transform="matrix(1,0,0,1,90.9964,367.871)">
                <path d="M0,-0.874C0.005,-0.853 0.027,-0.81 0.026,-0.767C0.025,-0.121 -0.075,0 -0.701,-0.12C-1.417,-0.257 -2.13,-0.182 -2.844,-0.194C-3.468,-0.204 -4.092,-0.164 -4.715,-0.161C-7.119,-0.149 -9.522,-0.143 -11.925,-0.136C-12.254,-0.135 -12.254,-0.136 -12.273,-0.466C-12.278,-0.543 -12.284,-0.621 -12.287,-0.699C-12.291,-0.817 -12.222,-0.864 -12.114,-0.867C-12.067,-0.869 -12.021,-0.864 -11.974,-0.864C-10.413,-0.859 -8.852,-0.857 -7.292,-0.85C-5.138,-0.839 -2.985,-0.822 -0.832,-0.814C-0.56,-0.813 -0.288,-0.852 0,-0.874" style="fill:rgb(155,159,172);fill-rule:nonzero;"/>
            </g>
        </g>
        <g transform="matrix(5.55556,0,0,5.55556,14527.5,14350.4)">
            <g transform="matrix(1,0,0,1,84.8206,364.251)">
                <path d="M0,-0.925L4.357,-0.925C4.893,-0.925 5,-0.768 4.766,-0.288C4.72,-0.192 4.595,-0.11 4.489,-0.074C4.376,-0.035 4.242,-0.055 4.118,-0.054C1.556,-0.046 -1.005,-0.039 -3.566,-0.028C-3.862,-0.027 -4.158,0.003 -4.454,0.019C-4.601,0.027 -4.694,-0.025 -4.698,-0.189C-4.7,-0.298 -4.706,-0.407 -4.719,-0.515C-4.771,-0.952 -4.772,-0.944 -4.357,-0.944C-2.905,-0.94 -1.453,-0.942 0,-0.942L0,-0.925Z" style="fill:rgb(155,159,172);fill-rule:nonzero;"/>
            </g>
        </g>
        <g transform="matrix(5.55556,0,0,5.55556,14527.5,14350.4)">
            <g transform="matrix(1,0,0,1,84.8147,365.884)">
                <path d="M0,-0.684L4.825,-0.684C4.872,-0.684 4.919,-0.685 4.965,-0.684C5.323,-0.674 5.323,-0.674 5.321,-0.321C5.319,-0.008 5.319,-0.001 4.975,0C3.523,0.005 2.071,0.002 0.618,0.01C-1.162,0.02 -2.941,0.038 -4.721,0.052C-5.27,0.056 -5.273,0.052 -5.251,-0.488C-5.242,-0.723 -5.219,-0.74 -4.964,-0.732C-4.606,-0.72 -4.247,-0.703 -3.889,-0.701C-2.592,-0.698 -1.296,-0.7 0,-0.7L0,-0.684Z" style="fill:rgb(155,159,172);fill-rule:nonzero;"/>
            </g>
        </g>
        <g transform="matrix(5.55556,0,0,5.55556,14527.5,14350.4)">
            <g transform="matrix(1,0,0,1,87.0715,343.499)">
                <path d="M0,-0.135C-0.001,-0.55 -0.295,-0.846 -0.702,-0.843C-1.095,-0.839 -1.311,-0.568 -1.318,-0.069C-1.324,0.312 -1.072,0.545 -0.658,0.542C-0.248,0.538 0.001,0.282 0,-0.135M-1.64,2.025C-1.882,1.507 -1.934,0.961 -2.05,0.432C-2.153,-0.039 -2.24,-0.513 -2.337,-0.986C-2.397,-1.275 -2.393,-1.303 -2.107,-1.384C-1.388,-1.588 -0.658,-1.757 0.028,-2.066C0.239,-2.16 0.295,-2.123 0.342,-1.885C0.451,-1.336 0.548,-0.784 0.652,-0.234C0.692,-0.02 0.728,0.196 0.78,0.407C0.82,0.57 0.793,0.673 0.618,0.729C-0.167,0.979 -0.852,1.403 -1.474,1.937C-1.518,1.974 -1.578,1.993 -1.64,2.025" style="fill:white;fill-rule:nonzero;"/>
            </g>
        </g>
        <g transform="matrix(5.55556,0,0,5.55556,14527.5,14350.4)">
            <g transform="matrix(1,0,0,1,84.132,342.078)">
                <path d="M0,3.759C-0.14,3.759 -0.281,3.765 -0.421,3.758C-0.794,3.74 -0.84,3.703 -0.892,3.324C-0.938,2.985 -0.966,2.643 -0.998,2.302C-1.059,1.636 -1.117,0.97 -1.176,0.303C-1.181,0.242 -1.199,0.168 -1.174,0.12C-1.146,0.067 -1.079,0.015 -1.02,0.002C-0.967,-0.011 -0.898,0.023 -0.843,0.05C-0.57,0.183 -0.283,0.242 0.019,0.212C0.208,0.193 0.306,0.256 0.34,0.45C0.412,0.849 0.497,1.244 0.579,1.64C0.696,2.203 0.814,2.765 0.937,3.327C0.995,3.59 0.959,3.68 0.699,3.723C0.47,3.761 0.234,3.757 0,3.77L0,3.759" style="fill:rgb(57,181,74);fill-rule:nonzero;"/>
            </g>
        </g>
        <g transform="matrix(5.55556,0,0,5.55556,14527.5,14350.4)">
            <g transform="matrix(1,0,0,1,78.9817,366.271)">
                <path d="M0,0.367C0.119,0.268 0.243,0.175 0.356,0.069C0.488,-0.055 0.636,-0.112 0.82,-0.111C2.381,-0.095 3.941,-0.083 5.502,-0.073C7.032,-0.064 8.561,-0.059 10.091,-0.053C10.512,-0.051 10.934,-0.047 11.355,-0.054C11.563,-0.058 11.713,0.023 11.833,0.185C11.938,0.327 11.914,0.422 11.748,0.445C11.625,0.461 11.499,0.456 11.374,0.457C7.925,0.465 4.475,0.471 1.026,0.478C0.702,0.479 0.378,0.478 0.054,0.478C0.036,0.441 0.018,0.404 0,0.367" style="fill:rgb(196,200,215);fill-rule:nonzero;"/>
            </g>
        </g>
        <g transform="matrix(5.55556,0,0,5.55556,14527.5,14350.4)">
            <g transform="matrix(1,0,0,1,89.8074,341.007)">
                <path d="M0,3.359C-0.076,3.349 -0.141,3.355 -0.192,3.33C-0.578,3.15 -0.975,3.027 -1.408,3.066C-1.572,3.081 -1.612,2.969 -1.64,2.836C-1.754,2.289 -1.874,1.743 -1.992,1.197C-2.044,0.954 -2.091,0.71 -2.156,0.47C-2.203,0.297 -2.143,0.207 -1.982,0.154C-1.561,0.013 -1.126,0 -0.691,0.045C-0.435,0.071 -0.265,0.222 -0.209,0.482C-0.2,0.527 -0.191,0.574 -0.187,0.62C-0.113,1.469 0.072,2.308 0.041,3.167C0.039,3.225 0.017,3.283 0,3.359" style="fill:rgb(237,28,36);fill-rule:nonzero;"/>
            </g>
        </g>
        <g transform="matrix(5.55556,0,0,5.55556,14527.5,14350.4)">
            <g transform="matrix(1,0,0,1,89.8909,364.462)">
                <path d="M0,0.445L-10.073,0.445C-9.834,0.067 -9.721,0 -9.332,0.002C-7.086,0.013 -4.84,0.023 -2.595,0.035C-1.925,0.038 -1.254,0.063 -0.584,0.05C-0.31,0.045 -0.149,0.149 0,0.445" style="fill:rgb(196,200,215);fill-rule:nonzero;"/>
            </g>
        </g>
        <g transform="matrix(5.55556,0,0,5.55556,14527.5,14350.4)">
            <g transform="matrix(1,0,0,1,80.1873,362.756)">
                <path d="M0,0.275C0.298,0.039 0.588,0 0.915,0.004C3.068,0.029 5.221,0.032 7.374,0.046C7.826,0.049 8.278,0.066 8.729,0.086C8.823,0.09 8.914,0.14 9.025,0.175C8.973,0.233 8.954,0.272 8.935,0.272C5.973,0.275 3.01,0.275 0,0.275" style="fill:rgb(196,200,215);fill-rule:nonzero;"/>
            </g>
        </g>
        <g transform="matrix(5.55556,0,0,5.55556,14527.5,14350.4)">
            <g transform="matrix(-0.0500132,-0.998749,-0.998749,0.0500132,86.3924,342.687)">
                <path d="M-0.71,-0.644C-1.127,-0.625 -1.37,-0.363 -1.353,0.047C-1.336,0.46 -1.09,0.7 -0.71,0.675C-0.212,0.643 0.048,0.414 0.032,0.021C0.015,-0.385 -0.296,-0.664 -0.71,-0.644" style="fill:rgb(35,31,32);fill-rule:nonzero;"/>
            </g>
        </g>
        <g transform="matrix(5.55556,0,0,5.55556,14527.5,14350.4)">
            <text x="76.479px" y="351.767px" style="font-family:'ITCAvantGardeStd-Demi', 'ITC Avant Garde Gothic Std', sans-serif;font-weight:600;font-size:4.186px;fill:white;">Esc<tspan x="83.306px " y="351.767px ">u</tspan>el<tspan x="89.619px " y="351.767px ">a</tspan></text>
        </g>
    </g>
</svg>
