<?xml version="1.0" encoding="UTF-8" standalone="no"?>
<!DOCTYPE svg PUBLIC "-//W3C//DTD SVG 1.1//EN" "http://www.w3.org/Graphics/SVG/1.1/DTD/svg11.dtd">
<svg width="100%" height="100%" viewBox="0 0 152 121" version="1.1" xmlns="http://www.w3.org/2000/svg" xmlns:xlink="http://www.w3.org/1999/xlink" xml:space="preserve" xmlns:serif="http://www.serif.com/" style="fill-rule:evenodd;clip-rule:evenodd;stroke-linejoin:round;stroke-miterlimit:2;">
    <g transform="matrix(1,0,0,1,-14922.9,-15947.8)">
        <g transform="matrix(5.55556,0,0,5.55556,14527.5,14350.4)">
            <g transform="matrix(1,0,0,1,76.3367,299.821)">
                <path d="M0,0.662L0,0.697C0.434,0.697 0.868,0.699 1.302,0.697C1.966,0.694 1.956,0.692 1.967,0.049C1.983,-0.906 2.019,-1.86 2.036,-2.815C2.037,-2.881 1.964,-2.987 1.903,-3.008C1.788,-3.048 1.656,-3.052 1.531,-3.05C0.482,-3.038 -0.566,-3.026 -1.614,-3.003C-2.036,-2.994 -2.053,-2.977 -2.06,-2.518C-2.073,-1.632 -2.077,-0.747 -2.074,0.138C-2.072,0.572 -2.014,0.639 -1.572,0.657C-1.049,0.678 -0.524,0.662 0,0.662M6.423,-7.615L6.423,-7.568C5.899,-7.568 5.375,-7.577 4.852,-7.566C4.371,-7.556 4.36,-7.547 4.352,-7.079C4.338,-6.266 4.338,-5.453 4.337,-4.641C4.335,-3.941 4.338,-3.923 5.063,-3.901C6.002,-3.873 6.942,-3.876 7.881,-3.866C7.954,-3.865 8.026,-3.868 8.098,-3.875C8.289,-3.894 8.388,-3.991 8.385,-4.193C8.379,-4.627 8.378,-5.06 8.382,-5.494C8.387,-6.071 8.385,-6.65 8.412,-7.226C8.428,-7.569 8.433,-7.605 8.104,-7.612C7.544,-7.623 6.983,-7.615 6.423,-7.615M8.923,4.35L8.96,4.35C8.96,3.846 8.949,3.34 8.964,2.836C8.973,2.576 8.958,2.524 8.711,2.493C8.64,2.484 8.566,2.488 8.494,2.489C7.446,2.504 6.398,2.516 5.351,2.539C4.921,2.548 4.904,2.562 4.897,3.016C4.883,3.919 4.879,4.822 4.883,5.725C4.884,6.098 4.921,6.159 5.273,6.17C6.374,6.206 7.476,6.222 8.578,6.229C8.87,6.231 8.918,6.161 8.922,5.867C8.928,5.362 8.923,4.856 8.923,4.35M6.334,-3.164C6.334,-3.147 6.334,-3.129 6.333,-3.111C5.773,-3.111 5.213,-3.121 4.653,-3.108C4.283,-3.099 4.252,-3.069 4.246,-2.695C4.232,-1.774 4.228,-0.853 4.233,0.069C4.235,0.453 4.28,0.521 4.669,0.534C5.753,0.567 6.838,0.578 7.922,0.579C8.228,0.58 8.268,0.513 8.27,0.164C8.276,-0.649 8.274,-1.462 8.278,-2.275C8.279,-2.437 8.279,-2.601 8.298,-2.761C8.343,-3.145 8.344,-3.157 7.961,-3.162C7.419,-3.17 6.876,-3.164 6.334,-3.164M0.13,-7.615L0.13,-7.564C-0.447,-7.564 -1.025,-7.565 -1.603,-7.563C-1.808,-7.563 -1.949,-7.495 -1.949,-7.252C-1.95,-6.258 -1.958,-5.266 -1.964,-4.273C-1.965,-4.049 -1.844,-3.946 -1.631,-3.931C-1.487,-3.921 -1.343,-3.899 -1.199,-3.897C-0.368,-3.884 0.463,-3.872 1.294,-3.867C2.072,-3.863 2.069,-3.867 2.073,-4.668C2.076,-5.499 2.07,-6.33 2.097,-7.16C2.112,-7.599 2.135,-7.609 1.703,-7.614C1.179,-7.62 0.655,-7.615 0.13,-7.615M-3.239,0.321C-3.239,-2.393 -3.24,-5.108 -3.238,-7.822C-3.238,-8.392 -3.318,-8.403 -2.639,-8.401C1.218,-8.393 5.074,-8.389 8.931,-8.383C9.571,-8.381 9.633,-8.326 9.696,-7.695C9.708,-7.569 9.7,-7.442 9.7,-7.315C9.702,-2.068 9.704,3.18 9.706,8.427L9.706,8.481C9.702,8.977 9.702,8.98 9.192,8.981C7.744,8.984 6.295,8.983 4.847,8.984C4.774,8.984 4.702,8.979 4.629,8.982C4.451,8.989 4.368,8.902 4.35,8.726C4.286,8.116 4.172,7.508 4.157,6.896C4.124,5.576 4.14,4.255 4.136,2.934C4.136,2.825 4.138,2.717 4.136,2.608C4.119,1.727 4.05,1.652 3.169,1.659C1.63,1.67 0.092,1.686 -1.447,1.712C-1.679,1.715 -1.913,1.766 -2.141,1.815C-2.384,1.868 -2.501,2.029 -2.494,2.287C-2.476,2.974 -2.495,3.663 -2.445,4.348C-2.371,5.357 -2.25,6.362 -2.147,7.368C-2.1,7.835 -2.053,8.303 -1.997,8.769C-1.974,8.956 -2.043,9.043 -2.228,9.046C-2.481,9.051 -2.734,9.054 -2.988,9.06C-3.176,9.065 -3.243,8.962 -3.24,8.789C-3.237,8.681 -3.24,8.572 -3.24,8.463C-3.24,5.749 -3.24,3.035 -3.239,0.321" style="fill:white;fill-rule:nonzero;"/>
            </g>
        </g>
        <g transform="matrix(5.55556,0,0,5.55556,14527.5,14350.4)">
            <g transform="matrix(1,0,0,1,79.2639,289.618)">
                <path d="M0,1.476C-2.081,1.476 -4.161,1.474 -6.241,1.477C-6.657,1.478 -7.073,1.497 -7.488,1.521C-7.687,1.533 -7.802,1.482 -7.799,1.262C-7.795,0.9 -7.797,0.539 -7.8,0.177C-7.801,0.019 -7.728,-0.055 -7.572,-0.055C-7.446,-0.054 -7.319,-0.057 -7.192,-0.056C-2.435,-0.048 2.323,-0.041 7.081,-0.032C7.782,-0.031 7.782,-0.03 7.885,0.662C7.895,0.733 7.911,0.804 7.918,0.876C7.974,1.404 7.921,1.468 7.38,1.469C4.92,1.471 2.46,1.47 0,1.47L0,1.476Z" style="fill:rgb(18,164,222);fill-rule:nonzero;"/>
            </g>
        </g>
        <g transform="matrix(5.55556,0,0,5.55556,14527.5,14350.4)">
            <g transform="matrix(1,0,0,1,79.6214,308.293)">
                <path d="M0,-5.899C-0.405,-5.899 -0.817,-5.911 -1.228,-5.897C-2.168,-5.864 -3.107,-5.808 -4.047,-5.783C-4.832,-5.761 -4.828,-5.775 -4.725,-4.992C-4.696,-4.778 -4.679,-4.559 -4.69,-4.343C-4.743,-3.287 -4.532,-2.256 -4.403,-1.217C-4.341,-0.715 -4.29,-0.212 -4.244,0.291C-4.224,0.512 -4.367,0.564 -4.558,0.555C-4.721,0.547 -4.886,0.574 -4.91,0.33C-5.107,-1.666 -5.386,-3.654 -5.435,-5.663C-5.452,-6.349 -5.434,-6.367 -4.762,-6.38C-3.188,-6.412 -1.613,-6.442 -0.039,-6.466C0.433,-6.473 0.437,-6.461 0.487,-5.994C0.506,-5.815 0.508,-5.632 0.509,-5.452C0.521,-4.167 0.515,-2.882 0.547,-1.598C0.562,-1.003 0.649,-0.411 0.708,0.183C0.736,0.471 0.719,0.495 0.437,0.51C0.023,0.531 -0.019,0.5 -0.023,0.061C-0.034,-1.242 -0.035,-2.545 -0.045,-3.848C-0.047,-4.246 -0.076,-4.644 -0.072,-5.041C-0.069,-5.305 -0.029,-5.568 0,-5.899" style="fill:rgb(18,164,222);fill-rule:nonzero;"/>
            </g>
        </g>
        <g transform="matrix(5.55556,0,0,5.55556,14527.5,14350.4)">
            <g transform="matrix(1,0,0,1,79.2771,305.436)">
                <path d="M0,0.636C-0.015,1.198 -0.036,2.083 -0.063,2.967C-0.076,3.357 -0.084,3.365 -0.462,3.374C-0.824,3.383 -1.186,3.374 -1.547,3.381C-1.754,3.385 -1.842,3.291 -1.839,3.088C-1.835,2.853 -1.84,2.618 -1.84,2.384C-1.84,0.902 -1.839,-0.579 -1.839,-2.061L-1.839,-2.386C-1.839,-2.531 -1.785,-2.63 -1.625,-2.641C-1.193,-2.674 -0.762,-2.718 -0.33,-2.736C-0.016,-2.749 -0.003,-2.729 -0.002,-2.397C0.003,-1.494 0,-0.591 0,0.636" style="fill:rgb(195,233,251);fill-rule:nonzero;"/>
            </g>
        </g>
        <g transform="matrix(5.55556,0,0,5.55556,14527.5,14350.4)">
            <g transform="matrix(1,0,0,1,77.1253,305.781)">
                <path d="M0,0.078C0,0.872 0.002,1.667 0,2.461C-0.002,3.027 0.071,3.045 -0.601,3.038C-0.818,3.036 -1.035,3.04 -1.251,3.041C-1.426,3.042 -1.503,2.958 -1.524,2.781C-1.659,1.636 -1.823,0.494 -1.934,-0.653C-2.001,-1.353 -1.994,-2.059 -2.007,-2.763C-2.008,-2.823 -1.91,-2.936 -1.855,-2.938C-1.296,-2.959 -0.736,-2.967 -0.176,-2.962C-0.119,-2.961 -0.03,-2.86 -0.013,-2.791C0.016,-2.671 0.001,-2.54 0.001,-2.414C0.002,-1.584 0.002,-0.753 0.002,0.078L0,0.078Z" style="fill:rgb(195,233,251);fill-rule:nonzero;"/>
            </g>
        </g>
        <g transform="matrix(5.55556,0,0,5.55556,14527.5,14350.4)">
            <g transform="matrix(1,0,0,1,93.0393,287.92)">
                <path d="M0,9.176C-0.433,9.148 -0.871,9.156 -1.296,9.084C-2.693,8.846 -3.604,7.955 -4.274,6.777C-4.556,6.28 -4.651,5.738 -4.651,5.161C-4.653,4.24 -4.534,3.346 -4.084,2.541C-3.247,1.042 -1.994,0.128 -0.243,-0.023C-0.099,-0.035 0.045,-0.043 0.19,-0.048C0.68,-0.066 1.141,-0.035 1.583,0.258C2.077,0.586 2.634,0.819 3.158,1.102C3.803,1.449 4.271,1.957 4.525,2.653C4.618,2.907 4.726,3.156 4.815,3.412C5.316,4.844 5.085,6.195 4.304,7.457C3.933,8.054 3.37,8.458 2.708,8.709C1.836,9.041 0.942,9.242 0,9.176" style="fill:white;fill-rule:nonzero;"/>
            </g>
        </g>
        <g transform="matrix(5.55556,0,0,5.55556,14527.5,14350.4)">
            <g transform="matrix(1,0,0,1,92.9817,303.131)">
                <path d="M0,-0.075L0,-4.474C0,-4.601 0.001,-4.728 0.002,-4.855C0.004,-5.006 0.074,-5.114 0.23,-5.075C0.311,-5.054 0.408,-4.957 0.428,-4.878C0.462,-4.741 0.442,-4.59 0.443,-4.445C0.456,-2.146 0.471,0.154 0.479,2.453C0.481,3.175 0.473,3.898 0.45,4.62C0.441,4.937 0.353,5.039 0.195,4.999C-0.038,4.941 0.038,4.745 0.037,4.596C0.033,3.039 0.035,1.482 0.035,-0.075L0,-0.075Z" style="fill:white;fill-rule:nonzero;"/>
            </g>
        </g>
        <g transform="matrix(5.55556,0,0,5.55556,14527.5,14350.4)">
            <g transform="matrix(1,0,0,1,93.1062,308.346)">
                <path d="M0,0.566C-0.252,0.566 -0.505,0.567 -0.757,0.566C-0.889,0.565 -1.026,0.551 -1.032,0.38C-1.037,0.212 -0.958,0.115 -0.768,0.121C-0.535,0.129 -0.3,0.129 -0.067,0.114C0.181,0.098 0.43,0.072 0.674,0.027C0.84,-0.004 0.958,0.038 1.046,0.171C1.166,0.354 1.083,0.543 0.865,0.555C0.577,0.57 0.288,0.559 0,0.559L0,0.566Z" style="fill:rgb(18,164,222);fill-rule:nonzero;"/>
            </g>
        </g>
        <g transform="matrix(5.55556,0,0,5.55556,14527.5,14350.4)">
            <g transform="matrix(1,0,0,1,93.7639,297.617)">
                <path d="M0,-0.064C-0.125,0.018 -0.178,0.082 -0.235,0.085C-0.577,0.1 -0.92,0.105 -1.263,0.099C-1.311,0.098 -1.357,0.018 -1.404,-0.025C-1.366,-0.057 -1.33,-0.115 -1.292,-0.116C-0.889,-0.12 -0.483,-0.169 0,-0.064" style="fill:rgb(18,164,222);fill-rule:nonzero;"/>
            </g>
        </g>
        <g transform="matrix(5.55556,0,0,5.55556,14527.5,14350.4)">
            <g transform="matrix(1,0,0,1,76.3967,293.054)">
                <path d="M0,2.04L0,2.048C0.326,2.048 0.651,2.046 0.977,2.048C1.165,2.05 1.281,2.001 1.272,1.772C1.255,1.357 1.27,0.941 1.259,0.525C1.25,0.161 1.186,0.077 0.812,0.056C0.235,0.022 -0.344,0.025 -0.922,0.013C-1.128,0.009 -1.226,0.142 -1.237,0.315C-1.271,0.816 -1.296,1.318 -1.298,1.82C-1.298,1.992 -1.134,2.04 -0.977,2.04L0,2.04M-0.165,2.502C-0.406,2.517 -0.803,2.543 -1.2,2.562C-1.672,2.584 -1.694,2.563 -1.7,2.104C-1.71,1.328 -1.717,0.551 -1.725,-0.226C-1.727,-0.503 -1.701,-0.542 -1.419,-0.543C-0.696,-0.544 0.027,-0.533 0.75,-0.526C0.967,-0.524 1.184,-0.522 1.401,-0.523C1.619,-0.523 1.733,-0.435 1.729,-0.198C1.722,0.164 1.732,0.525 1.739,0.886C1.747,1.247 1.755,1.608 1.772,1.969C1.797,2.479 1.787,2.497 1.293,2.501C0.86,2.506 0.426,2.502 -0.165,2.502" style="fill:rgb(18,164,222);fill-rule:nonzero;"/>
            </g>
        </g>
        <g transform="matrix(5.55556,0,0,5.55556,14527.5,14350.4)">
            <g transform="matrix(1,0,0,1,82.6233,297.5)">
                <path d="M0,2.048L0,2.054C0.326,2.054 0.651,2.056 0.977,2.054C1.138,2.053 1.251,2.013 1.243,1.806C1.227,1.391 1.237,0.975 1.227,0.56C1.216,0.162 1.162,0.091 0.751,0.067C0.192,0.035 -0.368,0.036 -0.928,0.02C-1.127,0.014 -1.214,0.12 -1.269,0.298C-1.423,0.795 -1.343,1.3 -1.334,1.803C-1.332,1.974 -1.192,2.045 -1.03,2.047C-0.687,2.05 -0.343,2.048 0,2.048M-0.139,2.511C-0.466,2.528 -0.935,2.553 -1.404,2.575C-1.584,2.584 -1.728,2.542 -1.729,2.318C-1.735,1.433 -1.743,0.549 -1.75,-0.336C-1.751,-0.472 -1.675,-0.531 -1.55,-0.534C-1.37,-0.536 -1.189,-0.533 -1.009,-0.532C-0.25,-0.527 0.509,-0.528 1.268,-0.516C1.67,-0.51 1.687,-0.487 1.698,-0.077C1.717,0.608 1.733,1.294 1.746,1.979C1.755,2.502 1.747,2.508 1.195,2.511C0.798,2.513 0.4,2.511 -0.139,2.511" style="fill:rgb(18,164,222);fill-rule:nonzero;"/>
            </g>
        </g>
        <g transform="matrix(5.55556,0,0,5.55556,14527.5,14350.4)">
            <g transform="matrix(1,0,0,1,83.2595,303.138)">
                <path d="M0,2.062C0.344,2.062 0.687,2.063 1.031,2.062C1.181,2.061 1.261,2 1.257,1.833C1.248,1.4 1.254,0.966 1.242,0.532C1.233,0.188 1.167,0.103 0.839,0.084C0.261,0.053 -0.318,0.052 -0.896,0.034C-1.087,0.028 -1.192,0.109 -1.248,0.296C-1.402,0.812 -1.341,1.334 -1.311,1.855C-1.301,2.027 -1.131,2.061 -0.977,2.062L0,2.062M-0.11,2.521C-0.453,2.539 -0.904,2.571 -1.355,2.583C-1.671,2.591 -1.707,2.558 -1.711,2.255C-1.726,1.406 -1.725,0.558 -1.738,-0.291C-1.741,-0.498 -1.622,-0.529 -1.461,-0.527C-0.756,-0.52 -0.052,-0.512 0.653,-0.505C0.905,-0.503 1.158,-0.503 1.411,-0.502C1.606,-0.502 1.708,-0.415 1.712,-0.209C1.727,0.584 1.754,1.378 1.761,2.172C1.763,2.473 1.715,2.512 1.407,2.519C0.937,2.528 0.468,2.521 -0.11,2.521" style="fill:rgb(18,164,222);fill-rule:nonzero;"/>
            </g>
        </g>
        <g transform="matrix(5.55556,0,0,5.55556,14527.5,14350.4)">
            <g transform="matrix(1,0,0,1,82.7097,293.038)">
                <path d="M0,2.06L0,2.059C0.343,2.059 0.687,2.06 1.03,2.058C1.175,2.057 1.267,2.002 1.264,1.833C1.255,1.4 1.262,0.966 1.249,0.533C1.239,0.176 1.164,0.094 0.793,0.076C0.234,0.048 -0.327,0.047 -0.886,0.028C-1.112,0.02 -1.232,0.133 -1.25,0.34C-1.286,0.787 -1.32,1.236 -1.324,1.684C-1.327,1.988 -1.249,2.046 -0.922,2.058C-0.615,2.069 -0.308,2.06 0,2.06M-0.081,2.518C-0.464,2.536 -0.934,2.558 -1.403,2.582C-1.604,2.594 -1.708,2.515 -1.709,2.304C-1.71,1.454 -1.712,0.603 -1.719,-0.248C-1.72,-0.459 -1.618,-0.534 -1.418,-0.531C-0.495,-0.517 0.429,-0.516 1.352,-0.491C1.702,-0.482 1.707,-0.459 1.717,-0.105C1.739,0.637 1.759,1.378 1.768,2.12C1.772,2.502 1.759,2.51 1.365,2.516C0.912,2.523 0.459,2.518 -0.081,2.518" style="fill:rgb(18,164,222);fill-rule:nonzero;"/>
            </g>
        </g>
        <g transform="matrix(5.55556,0,0,5.55556,14527.5,14350.4)">
            <g transform="matrix(1,0,0,1,76.3567,297.599)">
                <path d="M0,2.059L0,2.065C0.308,2.065 0.615,2.062 0.922,2.065C1.121,2.067 1.213,1.998 1.201,1.776C1.181,1.398 1.195,1.018 1.189,0.639C1.182,0.162 1.107,0.074 0.624,0.053C0.136,0.032 -0.353,0.038 -0.841,0.037C-1.208,0.035 -1.29,0.071 -1.344,0.449C-1.399,0.839 -1.391,1.24 -1.387,1.637C-1.383,1.992 -1.325,2.045 -0.976,2.057C-0.651,2.068 -0.325,2.059 0,2.059M-0.197,2.52C-0.533,2.538 -0.984,2.569 -1.435,2.58C-1.721,2.587 -1.762,2.551 -1.767,2.282C-1.781,1.416 -1.782,0.549 -1.79,-0.317C-1.791,-0.451 -1.723,-0.514 -1.596,-0.524C-1.542,-0.527 -1.488,-0.528 -1.434,-0.527C-0.549,-0.521 0.336,-0.518 1.222,-0.504C1.634,-0.498 1.649,-0.476 1.66,-0.076C1.679,0.646 1.7,1.368 1.707,2.09C1.711,2.49 1.681,2.513 1.273,2.519C0.821,2.526 0.37,2.52 -0.197,2.52" style="fill:rgb(18,164,222);fill-rule:nonzero;"/>
            </g>
        </g>
        <g transform="matrix(5.55556,0,0,5.55556,14527.5,14350.4)">
            <g transform="matrix(1,0,0,1,76.3542,293.362)">
                <path d="M0,1.486L-0.756,1.486C-0.91,1.486 -0.989,1.41 -0.988,1.254C-0.987,0.947 -0.999,0.639 -0.981,0.333C-0.97,0.133 -0.858,0 -0.632,0.001C-0.163,0.004 0.308,0.002 0.778,0.003C0.931,0.003 1.009,0.083 1.012,0.236C1.012,0.255 1.016,0.273 1.015,0.291C1.012,0.648 1.009,1.006 1.006,1.364C0.655,1.406 0.304,1.449 0,1.486" style="fill:rgb(195,233,251);fill-rule:nonzero;"/>
            </g>
        </g>
        <g transform="matrix(5.55556,0,0,5.55556,14527.5,14350.4)">
            <g transform="matrix(1,0,0,1,82.4778,297.85)">
                <path d="M0,1.418C-0.168,1.427 -0.42,1.444 -0.673,1.454C-0.825,1.46 -0.913,1.385 -0.913,1.229C-0.915,0.922 -0.929,0.614 -0.908,0.309C-0.891,0.06 -0.789,-0.023 -0.514,-0.03C-0.081,-0.042 0.354,-0.033 0.787,-0.038C0.986,-0.041 1.09,0.038 1.088,0.247C1.085,0.445 1.077,0.646 1.099,0.842C1.165,1.457 1.101,1.408 0.573,1.418C0.41,1.42 0.248,1.418 0,1.418" style="fill:rgb(195,233,251);fill-rule:nonzero;"/>
            </g>
        </g>
        <g transform="matrix(5.55556,0,0,5.55556,14527.5,14350.4)">
            <g transform="matrix(1,0,0,1,83.2605,303.507)">
                <path d="M0,1.408C-0.274,1.423 -0.509,1.436 -0.743,1.449C-0.938,1.46 -1.053,1.389 -1.048,1.173C-1.043,0.902 -1.062,0.63 -1.046,0.36C-1.029,0.058 -0.941,-0.032 -0.652,-0.04C-0.218,-0.051 0.216,-0.037 0.65,-0.047C0.893,-0.052 0.963,0.069 0.962,0.285C0.96,0.575 0.964,0.864 0.98,1.153C0.992,1.35 0.891,1.408 0.721,1.408L0,1.408Z" style="fill:rgb(195,233,251);fill-rule:nonzero;"/>
            </g>
        </g>
        <g transform="matrix(5.55556,0,0,5.55556,14527.5,14350.4)">
            <g transform="matrix(1,0,0,1,82.6272,293.4)">
                <path d="M0,1.41C-0.184,1.422 -0.418,1.442 -0.652,1.452C-0.842,1.459 -0.961,1.38 -0.958,1.167C-0.954,0.897 -0.972,0.625 -0.956,0.356C-0.938,0.06 -0.847,-0.029 -0.555,-0.037C-0.123,-0.049 0.311,-0.036 0.744,-0.045C0.985,-0.049 1.054,0.071 1.05,0.29C1.044,0.56 1.062,0.831 1.063,1.101C1.065,1.377 1.049,1.396 0.754,1.408C0.52,1.417 0.285,1.41 0,1.41" style="fill:rgb(195,233,251);fill-rule:nonzero;"/>
            </g>
        </g>
        <g transform="matrix(5.55556,0,0,5.55556,14527.5,14350.4)">
            <g transform="matrix(1,0,0,1,76.3538,297.963)">
                <path d="M0,1.41C-0.36,1.428 -0.594,1.441 -0.829,1.45C-1.003,1.457 -1.101,1.379 -1.099,1.195C-1.096,0.906 -1.111,0.616 -1.092,0.327C-1.074,0.056 -0.989,-0.027 -0.721,-0.034C-0.269,-0.047 0.183,-0.036 0.635,-0.04C0.854,-0.043 0.909,0.081 0.909,0.271C0.909,0.56 0.908,0.85 0.93,1.138C0.945,1.33 0.865,1.408 0.689,1.409C0.417,1.412 0.146,1.41 0,1.41" style="fill:rgb(195,233,251);fill-rule:nonzero;"/>
            </g>
        </g>
        <g transform="matrix(5.55556,0,0,5.55556,14527.5,14350.4)">
            <g transform="matrix(-1,0,0,1,185.927,-180.17)">
                <rect x="91.781" y="469.732" width="2.365" height="6.06" style="fill:rgb(237,28,36);"/>
            </g>
        </g>
        <g transform="matrix(5.55556,0,0,5.55556,14527.5,14350.4)">
            <g transform="matrix(-1,0,0,1,185.927,-180.404)">
                <rect x="89.886" y="471.825" width="6.155" height="2.108" style="fill:rgb(237,28,36);"/>
            </g>
        </g>
        <g transform="matrix(5.55556,0,0,5.55556,14527.5,14350.4)">
            <g opacity="0.2">
                <g transform="matrix(1,0,0,1,95.2171,289.853)">
                    <path d="M0,4.943C0.431,3.733 0.232,2.378 -0.229,1.179C-0.689,-0.019 -1.396,-1.104 -2.014,-2.229C-1.38,-2.376 -0.744,-2.044 -0.177,-1.724C0.434,-1.379 1.053,-1.027 1.555,-0.536C2.735,0.622 3.096,2.434 2.813,4.063C2.739,4.489 2.624,4.913 2.413,5.29C1.954,6.113 1.08,6.638 0.17,6.882C-0.461,7.052 -1.572,7.319 -2.168,7.021C-1.164,6.695 -0.357,5.946 0,4.943" style="fill:rgb(19,117,188);fill-rule:nonzero;"/>
                </g>
            </g>
        </g>
        <g transform="matrix(5.55556,0,0,5.55556,14527.5,14350.4)">
            <g opacity="0.2">
                <g transform="matrix(1,0,0,1,81.5056,305.641)">
                    <path d="M0,-13.067C0.364,-12.936 0.735,-12.79 1.014,-12.521C1.48,-12.071 1.593,-11.377 1.666,-10.733C2.188,-6.107 1.904,-1.433 1.62,3.213C2.598,3.276 3.578,3.292 4.557,3.259C4.742,2.635 4.744,1.973 4.744,1.321C4.745,-3.997 4.746,-9.315 4.747,-14.632C5.048,-14.607 5.354,-14.631 5.649,-14.703C5.613,-15.255 5.578,-15.807 5.542,-16.359C4.835,-15.9 4.064,-15.542 3.259,-15.295C2.224,-14.977 1.142,-14.847 0.067,-14.718C-1.517,-14.528 -3.236,-14.106 -4.833,-14.25C-3.186,-14.009 -1.568,-13.631 0,-13.067" style="fill:rgb(19,117,188);fill-rule:nonzero;"/>
                </g>
            </g>
        </g>
        <g transform="matrix(5.55556,0,0,5.55556,14527.5,14350.4)">
            <g transform="matrix(1,0,0,1,77.1253,292.527)">
                <path d="M0,13.332L0.002,13.332C0.002,12.501 0.002,11.67 0.001,10.84C0.001,10.714 0.016,10.583 -0.013,10.463C-0.03,10.394 -0.119,10.293 -0.176,10.292C-0.736,10.287 -1.296,10.295 -1.855,10.316C-1.91,10.318 -2.008,10.431 -2.007,10.491C-1.994,11.195 -2.001,11.901 -1.934,12.601C-1.823,13.748 -1.659,14.89 -1.524,16.035C-1.503,16.212 -1.426,16.296 -1.251,16.295C-1.035,16.294 -0.818,16.29 -0.601,16.292C0.071,16.299 -0.002,16.281 0,15.715C0.002,14.921 0,14.126 0,13.332M2.152,13.545C2.152,12.319 2.155,11.415 2.15,10.512C2.148,10.181 2.136,10.161 1.822,10.173C1.39,10.191 0.958,10.235 0.527,10.268C0.367,10.28 0.313,10.379 0.312,10.523C0.312,10.631 0.313,10.74 0.313,10.848C0.312,12.33 0.312,13.811 0.312,15.293C0.312,15.528 0.317,15.763 0.313,15.998C0.31,16.2 0.397,16.294 0.604,16.29C0.966,16.284 1.328,16.292 1.689,16.283C2.067,16.274 2.076,16.267 2.088,15.876C2.116,14.992 2.137,14.107 2.152,13.545M2.496,9.867C2.467,10.198 2.427,10.461 2.424,10.725C2.42,11.123 2.449,11.52 2.451,11.918C2.461,13.221 2.462,14.524 2.473,15.827C2.477,16.266 2.519,16.297 2.933,16.276C3.215,16.261 3.232,16.237 3.204,15.949C3.146,15.355 3.059,14.763 3.043,14.168C3.011,12.884 3.017,11.599 3.005,10.314C3.004,10.134 3.002,9.952 2.983,9.772C2.933,9.305 2.929,9.293 2.458,9.3C0.883,9.324 -0.691,9.354 -2.266,9.386C-2.938,9.399 -2.956,9.417 -2.939,10.103C-2.89,12.112 -2.611,14.101 -2.414,16.096C-2.39,16.34 -2.225,16.313 -2.062,16.321C-1.871,16.331 -1.728,16.278 -1.748,16.057C-1.794,15.554 -1.845,15.051 -1.907,14.549C-2.036,13.51 -2.247,12.479 -2.194,11.423C-2.183,11.207 -2.2,10.988 -2.229,10.774C-2.332,9.991 -2.335,10.005 -1.551,9.983C-0.611,9.958 0.328,9.902 1.268,9.87C1.679,9.855 2.091,9.867 2.496,9.867M2.139,-1.433L2.139,-1.439C4.599,-1.439 7.059,-1.438 9.519,-1.44C10.06,-1.441 10.112,-1.505 10.057,-2.033C10.049,-2.105 10.034,-2.176 10.023,-2.248C9.92,-2.939 9.92,-2.94 9.219,-2.941C4.461,-2.95 -0.296,-2.958 -5.054,-2.965C-5.18,-2.966 -5.307,-2.963 -5.434,-2.964C-5.589,-2.964 -5.662,-2.89 -5.661,-2.732C-5.658,-2.371 -5.657,-2.009 -5.661,-1.647C-5.663,-1.427 -5.548,-1.376 -5.349,-1.388C-4.934,-1.412 -4.518,-1.431 -4.103,-1.432C-2.022,-1.436 0.058,-1.433 2.139,-1.433M-4.028,7.615L-4.028,15.758C-4.028,15.867 -4.026,15.975 -4.028,16.083C-4.032,16.257 -3.965,16.359 -3.776,16.354C-3.523,16.348 -3.27,16.345 -3.016,16.341C-2.832,16.337 -2.763,16.25 -2.785,16.063C-2.842,15.598 -2.888,15.13 -2.936,14.663C-3.039,13.656 -3.159,12.651 -3.233,11.643C-3.284,10.958 -3.264,10.269 -3.283,9.582C-3.29,9.324 -3.173,9.163 -2.93,9.11C-2.701,9.06 -2.467,9.01 -2.235,9.006C-0.697,8.981 0.842,8.964 2.381,8.954C3.262,8.947 3.331,9.021 3.347,9.903C3.35,10.011 3.348,10.12 3.348,10.228C3.352,11.549 3.335,12.871 3.368,14.191C3.384,14.802 3.497,15.411 3.562,16.021C3.58,16.196 3.663,16.283 3.841,16.276C3.913,16.274 3.985,16.279 4.058,16.279C5.506,16.278 6.955,16.278 8.403,16.275C8.913,16.275 8.913,16.271 8.917,15.776L8.917,15.722C8.916,10.474 8.914,5.227 8.912,-0.021C8.912,-0.147 8.92,-0.275 8.908,-0.4C8.845,-1.032 8.782,-1.087 8.143,-1.088C4.286,-1.094 0.429,-1.098 -3.427,-1.107C-4.106,-1.108 -4.026,-1.097 -4.027,-0.527C-4.028,2.187 -4.027,4.901 -4.028,7.615M-4.353,7.733L-4.353,-0.36C-4.353,-0.505 -4.348,-0.65 -4.356,-0.794C-4.371,-1.088 -4.379,-1.101 -4.671,-1.114C-4.96,-1.126 -5.251,-1.113 -5.54,-1.131C-5.833,-1.15 -5.944,-1.239 -5.956,-1.526C-5.975,-1.996 -5.955,-2.466 -5.946,-2.937C-5.942,-3.163 -5.803,-3.251 -5.591,-3.254C-5.337,-3.258 -5.083,-3.27 -4.83,-3.27C-0.174,-3.275 4.482,-3.279 9.138,-3.285C9.355,-3.285 9.578,-3.274 9.787,-3.32C9.995,-3.366 10.119,-3.3 10.156,-3.118C10.253,-2.642 10.351,-2.163 10.402,-1.68C10.456,-1.185 10.186,-1.14 9.83,-1.044C9.748,-1.022 9.651,-1.055 9.562,-1.067C9.36,-1.093 9.262,-1.04 9.272,-0.804C9.29,-0.407 9.27,-0.009 9.269,0.389C9.261,5.548 9.256,10.708 9.246,15.868C9.244,16.696 9.235,16.698 8.386,16.696C4.346,16.69 0.306,16.682 -3.734,16.678C-4.423,16.678 -4.353,16.64 -4.354,16.044C-4.355,13.274 -4.354,10.504 -4.354,7.733L-4.353,7.733Z" style="fill:rgb(35,31,32);fill-rule:nonzero;"/>
            </g>
        </g>
        <g transform="matrix(5.55556,0,0,5.55556,14527.5,14350.4)">
            <g transform="matrix(1,0,0,1,93.7639,299.105)">
                <path d="M0,-1.552C-0.483,-1.657 -0.889,-1.608 -1.292,-1.604C-1.33,-1.603 -1.366,-1.545 -1.404,-1.513C-1.357,-1.47 -1.311,-1.39 -1.263,-1.389C-0.92,-1.383 -0.577,-1.388 -0.235,-1.403C-0.178,-1.406 -0.125,-1.47 0,-1.552M-0.658,9.807L-0.658,9.8C-0.37,9.8 -0.081,9.812 0.207,9.796C0.425,9.784 0.508,9.595 0.388,9.412C0.301,9.28 0.182,9.238 0.017,9.268C-0.228,9.314 -0.477,9.339 -0.725,9.355C-0.958,9.37 -1.192,9.37 -1.426,9.363C-1.615,9.356 -1.695,9.454 -1.689,9.622C-1.684,9.792 -1.547,9.806 -1.415,9.807C-1.163,9.808 -0.91,9.807 -0.658,9.807M-0.782,3.951L-0.748,3.951C-0.748,5.508 -0.749,7.065 -0.745,8.622C-0.745,8.771 -0.82,8.967 -0.587,9.025C-0.43,9.065 -0.341,8.963 -0.332,8.646C-0.31,7.924 -0.301,7.201 -0.304,6.479C-0.312,4.179 -0.326,1.88 -0.339,-0.419C-0.34,-0.564 -0.32,-0.715 -0.354,-0.852C-0.374,-0.931 -0.472,-1.028 -0.552,-1.049C-0.708,-1.088 -0.778,-0.98 -0.78,-0.829C-0.781,-0.702 -0.782,-0.575 -0.782,-0.448L-0.782,3.951ZM-0.725,-2.009C0.218,-1.943 1.112,-2.144 1.983,-2.475C2.645,-2.727 3.208,-3.13 3.579,-3.728C4.361,-4.99 4.591,-6.34 4.09,-7.772C4.001,-8.028 3.894,-8.278 3.801,-8.532C3.546,-9.227 3.078,-9.735 2.434,-10.083C1.909,-10.366 1.353,-10.599 0.858,-10.927C0.416,-11.219 -0.044,-11.25 -0.535,-11.233C-0.679,-11.227 -0.824,-11.219 -0.968,-11.207C-2.719,-11.057 -3.972,-10.142 -4.809,-8.643C-5.258,-7.839 -5.377,-6.945 -5.376,-6.024C-5.375,-5.446 -5.281,-4.904 -4.999,-4.408C-4.329,-3.229 -3.418,-2.338 -2.021,-2.101C-1.596,-2.029 -1.157,-2.037 -0.725,-2.009M-0.67,10.132C-1.014,10.132 -1.358,10.133 -1.702,10.131C-1.908,10.13 -1.976,10.025 -1.976,9.821C-1.976,9.345 -1.942,9.241 -1.49,9.103C-1.223,9.022 -1.118,8.922 -1.118,8.628C-1.118,5.552 -1.103,2.475 -1.091,-0.602C-1.09,-0.839 -1.048,-1.079 -1.414,-1.107C-1.523,-1.115 -1.682,-1.265 -1.709,-1.377C-1.772,-1.627 -1.938,-1.679 -2.143,-1.712C-3.517,-1.932 -4.442,-2.788 -5.185,-3.884C-5.859,-4.878 -5.855,-5.995 -5.726,-7.127C-5.704,-7.323 -5.638,-7.514 -5.588,-7.707C-5.093,-9.632 -3.847,-10.864 -1.964,-11.377C-0.777,-11.7 0.441,-11.648 1.561,-11.002C1.953,-10.776 2.357,-10.57 2.741,-10.331C3.321,-9.97 3.794,-9.501 4.053,-8.855C4.248,-8.368 4.417,-7.871 4.597,-7.379C4.616,-7.328 4.637,-7.275 4.641,-7.222C4.708,-6.076 4.708,-4.943 4.143,-3.888C3.697,-3.055 3.047,-2.451 2.167,-2.117C1.729,-1.951 1.27,-1.837 0.815,-1.721C0.342,-1.601 0.035,-1.252 0.009,-0.743C-0.006,-0.436 -0.01,-0.128 -0.011,0.179C-0.021,2.894 -0.029,5.609 -0.037,8.324C-0.037,8.432 -0.03,8.541 -0.037,8.65C-0.048,8.842 0.041,8.927 0.22,9.001C0.668,9.186 0.757,9.375 0.718,9.839C0.701,10.04 0.608,10.139 0.416,10.142C0.054,10.148 -0.308,10.144 -0.67,10.144L-0.67,10.132Z" style="fill:rgb(35,31,32);fill-rule:nonzero;"/>
            </g>
        </g>
        <g transform="matrix(5.55556,0,0,5.55556,14527.5,14350.4)">
            <g transform="matrix(1,0,0,1,76.2321,292.604)">
                <path d="M0,2.953C0.59,2.953 1.024,2.956 1.458,2.952C1.952,2.948 1.961,2.93 1.937,2.42C1.919,2.059 1.912,1.698 1.904,1.337C1.896,0.975 1.886,0.614 1.893,0.253C1.897,0.016 1.784,-0.072 1.565,-0.072C1.349,-0.071 1.132,-0.074 0.915,-0.076C0.191,-0.082 -0.532,-0.094 -1.255,-0.092C-1.537,-0.091 -1.562,-0.052 -1.56,0.224C-1.553,1.001 -1.545,1.778 -1.535,2.555C-1.529,3.014 -1.507,3.035 -1.035,3.013C-0.638,2.994 -0.241,2.967 0,2.953M0.235,-0.398C0.759,-0.398 1.283,-0.402 1.807,-0.396C2.24,-0.391 2.216,-0.381 2.202,0.058C2.175,0.888 2.181,1.719 2.177,2.55C2.174,3.351 2.176,3.355 1.398,3.35C0.567,3.346 -0.264,3.334 -1.095,3.321C-1.239,3.319 -1.382,3.297 -1.526,3.287C-1.74,3.272 -1.861,3.168 -1.859,2.945C-1.854,1.952 -1.846,0.959 -1.845,-0.034C-1.844,-0.277 -1.703,-0.345 -1.498,-0.345C-0.92,-0.347 -0.343,-0.346 0.235,-0.346L0.235,-0.398Z" style="fill:rgb(35,31,32);fill-rule:nonzero;"/>
            </g>
        </g>
        <g transform="matrix(5.55556,0,0,5.55556,14527.5,14350.4)">
            <g transform="matrix(1,0,0,1,82.4841,297.042)">
                <path d="M0,2.969C0.54,2.969 0.937,2.971 1.334,2.969C1.886,2.966 1.894,2.96 1.885,2.437C1.873,1.751 1.856,1.066 1.837,0.38C1.826,-0.03 1.809,-0.052 1.407,-0.058C0.648,-0.07 -0.111,-0.069 -0.87,-0.074C-1.05,-0.075 -1.23,-0.079 -1.411,-0.076C-1.536,-0.073 -1.612,-0.014 -1.611,0.122C-1.604,1.007 -1.596,1.891 -1.59,2.775C-1.589,3 -1.445,3.041 -1.265,3.033C-0.796,3.011 -0.327,2.986 0,2.969M0.187,-0.385C0.729,-0.385 1.271,-0.391 1.813,-0.383C2.196,-0.378 2.196,-0.365 2.15,0.018C2.131,0.178 2.131,0.342 2.13,0.505C2.127,1.318 2.128,2.131 2.123,2.944C2.12,3.292 2.081,3.36 1.775,3.359C0.69,3.357 -0.395,3.346 -1.479,3.313C-1.868,3.301 -1.913,3.232 -1.915,2.848C-1.919,1.927 -1.915,1.005 -1.901,0.084C-1.896,-0.29 -1.864,-0.32 -1.494,-0.329C-0.934,-0.342 -0.374,-0.332 0.186,-0.332C0.187,-0.35 0.187,-0.367 0.187,-0.385" style="fill:rgb(35,31,32);fill-rule:nonzero;"/>
            </g>
        </g>
        <g transform="matrix(5.55556,0,0,5.55556,14527.5,14350.4)">
            <g transform="matrix(1,0,0,1,83.1497,302.699)">
                <path d="M0,2.96C0.578,2.96 1.047,2.967 1.517,2.958C1.825,2.951 1.873,2.912 1.871,2.611C1.864,1.817 1.837,1.023 1.822,0.23C1.818,0.024 1.716,-0.063 1.521,-0.063C1.268,-0.064 1.015,-0.064 0.763,-0.066C0.058,-0.073 -0.646,-0.081 -1.351,-0.088C-1.512,-0.09 -1.631,-0.059 -1.628,0.148C-1.615,0.997 -1.616,1.845 -1.602,2.694C-1.597,2.997 -1.561,3.03 -1.245,3.022C-0.794,3.01 -0.343,2.978 0,2.96M2.11,1.473C2.11,1.978 2.115,2.484 2.109,2.989C2.105,3.283 2.057,3.354 1.765,3.352C0.663,3.344 -0.439,3.328 -1.54,3.292C-1.892,3.281 -1.929,3.22 -1.93,2.847C-1.934,1.944 -1.93,1.041 -1.916,0.138C-1.909,-0.315 -1.892,-0.33 -1.462,-0.339C-0.415,-0.361 0.633,-0.373 1.681,-0.389C1.753,-0.39 1.827,-0.394 1.898,-0.385C2.146,-0.353 2.16,-0.302 2.151,-0.042C2.136,0.462 2.147,0.968 2.147,1.472C2.135,1.473 2.123,1.473 2.11,1.473" style="fill:rgb(35,31,32);fill-rule:nonzero;"/>
            </g>
        </g>
        <g transform="matrix(5.55556,0,0,5.55556,14527.5,14350.4)">
            <g transform="matrix(1,0,0,1,82.6286,292.599)">
                <path d="M0,2.957C0.541,2.957 0.993,2.962 1.446,2.956C1.84,2.949 1.854,2.941 1.849,2.56C1.84,1.818 1.82,1.076 1.798,0.334C1.788,-0.019 1.783,-0.042 1.433,-0.051C0.51,-0.076 -0.414,-0.077 -1.337,-0.092C-1.537,-0.095 -1.639,-0.02 -1.638,0.192C-1.631,1.042 -1.629,1.893 -1.628,2.744C-1.627,2.954 -1.523,3.033 -1.322,3.022C-0.853,2.997 -0.383,2.976 0,2.957M0.131,-0.392C0.691,-0.392 1.252,-0.4 1.812,-0.389C2.141,-0.382 2.136,-0.346 2.12,-0.003C2.093,0.573 2.095,1.151 2.09,1.729C2.086,2.163 2.087,2.596 2.093,3.029C2.096,3.232 1.997,3.329 1.806,3.348C1.734,3.355 1.662,3.357 1.589,3.356C0.65,3.347 -0.29,3.35 -1.229,3.322C-1.954,3.3 -1.957,3.282 -1.955,2.582C-1.954,1.77 -1.954,0.957 -1.94,0.144C-1.932,-0.325 -1.921,-0.334 -1.44,-0.343C-0.917,-0.354 -0.393,-0.346 0.131,-0.346L0.131,-0.392Z" style="fill:rgb(35,31,32);fill-rule:nonzero;"/>
            </g>
        </g>
        <g transform="matrix(5.55556,0,0,5.55556,14527.5,14350.4)">
            <g transform="matrix(1,0,0,1,76.1593,297.17)">
                <path d="M0,2.949C0.567,2.949 1.019,2.954 1.47,2.948C1.878,2.941 1.908,2.918 1.904,2.518C1.897,1.796 1.876,1.074 1.857,0.353C1.846,-0.048 1.831,-0.069 1.419,-0.075C0.534,-0.089 -0.352,-0.092 -1.236,-0.099C-1.291,-0.099 -1.345,-0.099 -1.399,-0.095C-1.525,-0.085 -1.593,-0.023 -1.592,0.112C-1.584,0.978 -1.583,1.845 -1.569,2.711C-1.565,2.979 -1.523,3.016 -1.238,3.009C-0.787,2.998 -0.336,2.966 0,2.949M0.177,3.313C-0.347,3.313 -0.872,3.329 -1.395,3.308C-1.837,3.29 -1.895,3.223 -1.896,2.789C-1.9,1.904 -1.896,1.019 -1.883,0.134C-1.876,-0.325 -1.859,-0.343 -1.437,-0.352C-0.389,-0.374 0.66,-0.387 1.708,-0.399C1.833,-0.401 1.965,-0.397 2.081,-0.357C2.142,-0.336 2.214,-0.23 2.213,-0.164C2.196,0.791 2.161,1.745 2.145,2.7C2.133,3.344 2.144,3.345 1.479,3.348C1.045,3.35 0.611,3.348 0.177,3.348L0.177,3.313Z" style="fill:rgb(35,31,32);fill-rule:nonzero;"/>
            </g>
        </g>
        <g transform="matrix(5.55556,0,0,5.55556,14527.5,14350.4)">
            <g transform="matrix(1,0,0,1,76.3542,293.319)">
                <path d="M0,1.529C0.304,1.492 0.655,1.449 1.006,1.407C1.009,1.049 1.012,0.691 1.015,0.334C1.016,0.316 1.012,0.298 1.012,0.279C1.009,0.126 0.931,0.046 0.778,0.046C0.308,0.045 -0.163,0.047 -0.632,0.044C-0.858,0.043 -0.97,0.176 -0.981,0.376C-0.999,0.682 -0.987,0.99 -0.988,1.297C-0.989,1.453 -0.91,1.529 -0.756,1.529L0,1.529ZM0.042,1.776L-0.934,1.776C-1.091,1.775 -1.256,1.727 -1.255,1.555C-1.254,1.054 -1.229,0.551 -1.195,0.05C-1.183,-0.123 -1.086,-0.256 -0.879,-0.251C-0.301,-0.239 0.278,-0.242 0.855,-0.209C1.229,-0.187 1.292,-0.103 1.301,0.261C1.312,0.676 1.297,1.092 1.314,1.508C1.324,1.737 1.208,1.785 1.019,1.784C0.693,1.782 0.368,1.783 0.042,1.783L0.042,1.776Z" style="fill:rgb(35,31,32);fill-rule:nonzero;"/>
            </g>
        </g>
        <g transform="matrix(5.55556,0,0,5.55556,14527.5,14350.4)">
            <g transform="matrix(1,0,0,1,82.4778,297.802)">
                <path d="M0,1.466C0.248,1.466 0.41,1.468 0.573,1.466C1.101,1.456 1.165,1.505 1.099,0.89C1.077,0.694 1.085,0.493 1.088,0.295C1.09,0.086 0.986,0.007 0.787,0.01C0.354,0.015 -0.081,0.006 -0.514,0.018C-0.789,0.025 -0.891,0.108 -0.908,0.357C-0.929,0.662 -0.915,0.97 -0.913,1.277C-0.913,1.433 -0.825,1.508 -0.673,1.502C-0.42,1.492 -0.168,1.475 0,1.466M0.146,1.746C-0.198,1.746 -0.542,1.748 -0.885,1.745C-1.046,1.743 -1.186,1.672 -1.189,1.501C-1.197,0.998 -1.278,0.492 -1.124,-0.005C-1.068,-0.182 -0.982,-0.288 -0.783,-0.283C-0.223,-0.266 0.338,-0.267 0.897,-0.235C1.307,-0.211 1.362,-0.14 1.372,0.258C1.383,0.673 1.372,1.089 1.388,1.504C1.396,1.711 1.284,1.751 1.122,1.752C0.797,1.754 0.471,1.752 0.146,1.752L0.146,1.746Z" style="fill:rgb(35,31,32);fill-rule:nonzero;"/>
            </g>
        </g>
        <g transform="matrix(5.55556,0,0,5.55556,14527.5,14350.4)">
            <g transform="matrix(1,0,0,1,83.2605,303.452)">
                <path d="M0,1.463L0.721,1.463C0.891,1.463 0.992,1.405 0.98,1.208C0.964,0.919 0.96,0.63 0.962,0.34C0.963,0.124 0.893,0.003 0.65,0.008C0.216,0.018 -0.218,0.004 -0.652,0.015C-0.941,0.023 -1.029,0.113 -1.046,0.415C-1.062,0.685 -1.043,0.957 -1.048,1.228C-1.053,1.444 -0.938,1.515 -0.743,1.504C-0.509,1.491 -0.274,1.478 0,1.463M-0.001,1.748C-0.327,1.748 -0.652,1.749 -0.978,1.748C-1.132,1.747 -1.302,1.713 -1.312,1.541C-1.342,1.021 -1.403,0.498 -1.249,-0.018C-1.193,-0.205 -1.088,-0.286 -0.897,-0.28C-0.319,-0.262 0.26,-0.261 0.838,-0.229C1.167,-0.211 1.232,-0.126 1.241,0.218C1.253,0.652 1.247,1.086 1.256,1.52C1.26,1.686 1.18,1.747 1.03,1.748C0.686,1.749 0.343,1.748 -0.001,1.748" style="fill:rgb(35,31,32);fill-rule:nonzero;"/>
            </g>
        </g>
        <g transform="matrix(5.55556,0,0,5.55556,14527.5,14350.4)">
            <g transform="matrix(1,0,0,1,82.6272,293.354)">
                <path d="M0,1.456C0.285,1.456 0.52,1.463 0.754,1.454C1.049,1.442 1.065,1.423 1.063,1.147C1.062,0.877 1.044,0.606 1.05,0.336C1.054,0.117 0.985,-0.003 0.744,0.001C0.311,0.01 -0.123,-0.003 -0.555,0.009C-0.847,0.017 -0.938,0.106 -0.956,0.402C-0.972,0.671 -0.954,0.943 -0.958,1.213C-0.961,1.426 -0.842,1.505 -0.652,1.498C-0.418,1.488 -0.184,1.468 0,1.456M0.083,1.744C-0.225,1.744 -0.533,1.752 -0.84,1.741C-1.167,1.729 -1.244,1.671 -1.242,1.368C-1.238,0.919 -1.203,0.471 -1.167,0.023C-1.15,-0.183 -1.029,-0.296 -0.804,-0.289C-0.244,-0.269 0.317,-0.269 0.876,-0.241C1.247,-0.222 1.321,-0.14 1.332,0.217C1.344,0.65 1.338,1.084 1.346,1.517C1.35,1.685 1.258,1.741 1.113,1.742C0.77,1.744 0.426,1.742 0.083,1.742L0.083,1.744Z" style="fill:rgb(35,31,32);fill-rule:nonzero;"/>
            </g>
        </g>
        <g transform="matrix(5.55556,0,0,5.55556,14527.5,14350.4)">
            <g transform="matrix(1,0,0,1,76.3538,297.923)">
                <path d="M0,1.45C0.146,1.45 0.417,1.452 0.689,1.449C0.865,1.448 0.945,1.37 0.93,1.178C0.908,0.89 0.909,0.6 0.909,0.311C0.909,0.121 0.854,-0.003 0.635,0C0.183,0.004 -0.269,-0.007 -0.721,0.006C-0.989,0.013 -1.074,0.096 -1.092,0.367C-1.111,0.656 -1.096,0.946 -1.099,1.235C-1.101,1.419 -1.003,1.497 -0.829,1.49C-0.594,1.481 -0.36,1.468 0,1.45M0.003,1.734C-0.322,1.734 -0.648,1.743 -0.973,1.732C-1.322,1.72 -1.38,1.667 -1.384,1.312C-1.388,0.915 -1.396,0.514 -1.341,0.124C-1.287,-0.254 -1.205,-0.29 -0.838,-0.288C-0.35,-0.286 0.139,-0.293 0.626,-0.272C1.11,-0.251 1.185,-0.163 1.192,0.314C1.198,0.693 1.184,1.073 1.204,1.451C1.216,1.673 1.124,1.742 0.925,1.741C0.618,1.738 0.311,1.74 0.003,1.74L0.003,1.734Z" style="fill:rgb(35,31,32);fill-rule:nonzero;"/>
            </g>
        </g>
        <g transform="matrix(5.55556,0,0,5.55556,14527.5,14350.4)">
            <g transform="matrix(1,0,0,1,75.909,303.793)">
                <path d="M0,3.817C0.025,3.927 0.055,4.044 0.136,4.123C0.217,4.203 0.367,4.223 0.438,4.134C0.489,4.071 0.482,3.98 0.473,3.899C0.32,2.605 0.415,0.785 -0.084,-0.406C-0.931,0.147 -0.188,2.994 0,3.817" style="fill:white;fill-rule:nonzero;"/>
            </g>
        </g>
    </g>
</svg>
