<svg clip-rule="evenodd" fill-rule="evenodd" stroke-miterlimit="10" viewBox="0 0 146 165" xmlns="http://www.w3.org/2000/svg"><path d="m-7.895-7.895c-4.36 0-7.895 3.535-7.895 7.895s3.535 7.895 7.895 7.895 7.895-3.535 7.895-7.895-3.535-7.895-7.895-7.895" fill="#fff" fill-rule="nonzero" transform="matrix(0 -5.55556 -5.55556 0 56.768138632 12.98472188)"/><circle cx="-7.895" fill="none" r="7.895" stroke="#ed0b6e" stroke-width=".46" transform="matrix(0 -5.55556 -5.55556 0 56.768138632 12.98472188)"/><g fill-rule="nonzero"><path d="m0-8.393c-.061.368-.137.667-.155.97-.029.463-.009.928-.028 1.392-.01.249-.036.504-.099.743-.081.306-.343.37-.576.159-.246-.222-.323-.516-.338-.836-.034-.714-.073-1.428-.111-2.142-.007-.154-.01-.309-.031-.462-.019-.15-.112-.273-.267-.236-.08.019-.135.153-.193.241-.018.028-.01.075-.009.114.029.714.069 1.427.083 2.141.007.383.011.775-.062 1.148-.067.34-.385.379-.595.092-.112-.154-.214-.332-.259-.514-.153-.618-.275-1.243-.416-1.864-.05-.225-.104-.453-.196-.662-.034-.075-.19-.145-.278-.132-.084.013-.203.129-.215.213-.027.188-.022.389.012.577.179.987.37 1.973.559 2.958.049.256.196.414.462.447.115.013.232.021.347.036.196.027.318.127.326.338.004.116.017.232.021.347.034.831.063 1.662.102 2.493.012.23.041.461.087.687.037.182.028.465.248.474.206.009.46-.103.614-.246.114-.107.142-.35.138-.531-.024-1.099-.066-2.199-.108-3.299-.008-.191.063-.3.254-.308.193-.008.387.008.58.002.532-.016.652-.147.622-.668-.024-.404-.049-.81-.075-1.214-.039-.637-.08-1.273-.12-1.91-.012-.192-.019-.384-.324-.548m-.542 2.981c.012-.341.017-.606.033-.87.037-.615.075-1.231.125-1.846.011-.132.047-.277.118-.384.079-.118.197-.244.324-.284.193-.062.332.087.408.251.08.173.137.36.182.546.033.13.033.269.042.404.065 1.022.141 2.044.188 3.067.024.524-.119.687-.615.829-.093.027-.189.06-.284.06-.552-.001-.462.2-.455.591.018.889.063 1.778.068 2.667.004.599-.336.976-.917 1.094-.444.091-.682-.013-.783-.46-.12-.525-.188-1.066-.222-1.603-.041-.637-.027-1.277-.024-1.916.001-.253-.064-.396-.351-.411-.526-.028-.776-.339-.863-.848-.148-.876-.344-1.744-.494-2.619-.051-.302-.046-.618-.029-.926.017-.318.17-.461.459-.504.343-.05.539.033.66.332.101.25.173.514.233.777.137.601.252 1.208.393 1.809.026.114.127.21.233.377.139-.381.081-.684.069-.984-.03-.773-.071-1.545-.083-2.317-.006-.36.154-.533.446-.572.331-.045.537.086.62.459.061.28.07.574.088.862.042.637.073 1.274.112 1.911.01.173.019.351.319.508" fill="#231f20" transform="matrix(5.55556 0 0 5.55556 53.127024608 75.52921636)"/><path d="m0-9.454c-.011.29-.026.496-.026.702-.002 1.682-.014 3.364.003 5.047.012 1.101.067 2.201.102 3.302.004.16.008.324.222.339.199.013.342-.075.371-.283.027-.19.045-.384.049-.576.018-.985.026-1.97.048-2.954.004-.211.034-.425.082-.63.165-.714.365-1.421.513-2.138.222-1.082-.286-2.161-1.364-2.809m-.398 3.896v-3.307c0-.116-.004-.232.002-.348.011-.206-.053-.452.194-.561.252-.112.501-.05.704.126.965.836 1.54 1.834 1.25 3.163-.106.49-.267.969-.366 1.46-.11.547-.197 1.1-.257 1.654-.041.383-.023.772-.025 1.159-.003.523.003 1.045-.003 1.567-.01.847-.281 1.077-1.11.964-.161-.022-.242-.103-.26-.257-.007-.057-.005-.116-.007-.174-.056-1.815-.111-3.63-.166-5.445.015 0 .029-.001.044-.001" fill="#231f20" transform="matrix(5.55556 0 0 5.55556 64.17814456 73.23477008)"/><path d="m0 .395h.054c0-.833.002-1.665-.001-2.497-.003-.611-.115-.727-.738-.777-.096-.008-.193-.008-.29-.009-1.317-.005-2.634-.009-3.951-.013-.096 0-.193.002-.29.004-.183.005-.292.086-.289.282.002.096.005.193.007.29.035 1.644.072 3.288.103 4.932.004.229.05.506-.059.671-.078.118-.382.09-.586.123-.155.026-.242.089-.212.27.174 1.055.167 2.12.17 3.184.001.466.061.526.524.589.569.077 1.137.129 1.717.124.984-.007 1.969.08 2.954.085.42.003.842-.096 1.262-.158.313-.047.461-.247.49-.556.029-.308.088-.613.103-.921.038-.734.094-1.47-.091-2.195-.066-.257-.164-.45-.497-.46-.37-.01-.381-.059-.38-.415.001-.851 0-1.702 0-2.553m-7.016 7.978c-.008-.145-.026-.295-.026-.445.005-3.853.015-7.706.018-11.559 0-.496-.065-.487.479-.598 1.478-.299 2.954-.61 4.439-.876 2.074-.374 4.16-.681 6.231-1.071 1.805-.341 3.611-.684 5.382-1.188.688-.196 1.389-.346 2.087-.503.524-.116.567-.078.567.455.003 2.15.002 4.299.002 6.448 0 2.653.001 5.305-.002 7.958 0 .348-.02.696-.027 1.045-.005.244-.127.339-.366.336-.562-.007-1.124-.006-1.686 0-.234.003-.371-.075-.356-.333.006-.115-.004-.231-.005-.348-.001-2.149-.001-4.298-.007-6.447-.001-.316.017-.615.212-.884.065-.091.117-.212.123-.322.017-.327.044-.598.479-.647.214-.024.239-.285.22-.483-.067-.695-.151-1.391-.532-2-.267-.425-.553-.84-.854-1.242-.403-.538-.96-.823-1.62-.931-.781-.126-1.549-.325-2.352-.302-.962.027-1.882.245-2.765.595-.856.339-1.48.979-1.969 1.744-.243.38-.342.808-.365 1.266-.036.691.088 1.347.344 1.979.093.229.207.473.378.641.192.189.23.382.229.623-.004 2.207-.002 4.415-.006 6.622 0 .458-.006.464-.502.465-2.247.002-4.494.001-6.742.002z" fill="#ed0b6e" transform="matrix(5.55556 0 0 5.55556 66.109812772 115.634804)"/><path d="m0-3.733c-.031.032-.098.161-.199.197-.307.11-.626.193-.944.272-1.482.368-2.958.766-4.45 1.089-1.776.383-3.564.71-5.349 1.045-1.843.346-3.691.664-5.534 1.011-1.215.229-2.428.477-3.637.74-.49.106-.965.281-1.449.415-.312.085-.393.048-.464-.252-.103-.432-.177-.871-.264-1.307-.04-.2.062-.273.246-.305.532-.093 1.064-.195 1.595-.296 1.101-.211 2.199-.435 3.302-.63.894-.157 1.792-.295 2.692-.414 1.976-.259 3.93-.63 5.88-1.033 1.873-.387 3.759-.714 5.637-1.077.834-.162 1.666-.341 2.493-.531.195-.045.304-.026.334.176.039.267.067.535.111.9" fill="#eda569" transform="matrix(5.55556 0 0 5.55556 139.998205216 87.10144784)"/><path d="m0-7.781c.102.143.154.219.209.293.383.519.969.586 1.44.141.194-.183.34-.415.544-.67.246.442.593.769.579 1.357-.045 2.027-.022 4.055-.025 6.083 0 .155-.005.309-.001.463.006.242-.102.348-.349.346-.734-.007-1.468.004-2.203-.005-.302-.004-.319-.026-.32-.348-.001-.657.013-1.314.021-1.97.022-1.718.044-3.437.068-5.155.002-.151.02-.302.037-.535" fill="#c3e9fb" transform="matrix(5.55556 0 0 5.55556 82.117603356 160.86261796)"/><path d="m0 8.021c-.747 0-1.479-.003-2.212.002-.214.001-.328-.083-.33-.302 0-.135-.003-.27-.004-.406-.003-2.01-.006-4.02-.01-6.03 0-.116.001-.232.002-.348.001-.166.085-.264.25-.241.552.074.917-.216 1.237-.607.023-.027.064-.04.151-.092.196.313.407.639.806.748.046.012.083.126.09.196.016.154.012.309.012.464.003 1.913.006 3.827.008 5.74z" fill="#c3e9fb" transform="matrix(5.55556 0 0 5.55556 113.13651706 117.57369444)"/><path d="m0 1.577c.053-.69.104-1.344.156-1.997.006-.077.023-.152.039-.228.137-.615.189-.647.83-.52.076.015.153.044.228.04.291-.015.415.16.473.407.139.6.301 1.197.403 1.803.079.474.097.959.114 1.44.01.319-.029.35-.317.35-.541 0-1.082-.019-1.623-.023-.224-.001-.307-.11-.304-.322.004-.328.001-.656.001-.95" fill="#08a79d" transform="matrix(5.55556 0 0 5.55556 96.006503356 94.10145344)"/><path d="m0-3.895c.549.059 1.03.229 1.36.672.368.495.728.998 1.047 1.525.157.258.238.571.309.869.184.771.134.826-.652.828-.425.001-.851-.005-1.276-.001-.23.002-.37-.071-.36-.332.046-1.15-.171-2.267-.45-3.374-.013-.049.011-.107.022-.187" fill="#89ccde" transform="matrix(5.55556 0 0 5.55556 107.999290728 110.45146652)"/><path d="m0-7.862c.03.121.054.175.055.229.03 2.396.062 4.793.083 7.19.002.14-.053.39-.115.401-.239.042-.492.016-.737-.007-.038-.003-.085-.12-.094-.189-.015-.114-.002-.231-.002-.348-.002-2.088.004-4.176-.012-6.264-.003-.338.014-.601.398-.715.139-.042.251-.172.424-.297" fill="#eda569" transform="matrix(5.55556 0 0 5.55556 79.291489984 162.11817452)"/><path d="m0 4.082c.168-1.031.318-1.979.477-2.926.145-.862.421-1.09 1.358-1.143.36-.02.395.038.353.381-.078.648-.146 1.299-.189 1.951-.031.461-.009.925-.02 1.388-.008.319-.022.34-.325.346-.518.01-1.036.003-1.654.003" fill="#89ccde" transform="matrix(5.55556 0 0 5.55556 83.254270932 87.19589236)"/><path d="m0-3.75c-.146.766-.288 1.443-.399 2.125-.063.379-.058.769-.114 1.149-.061.415-.091.426-.524.437-.443.012-.887.016-1.33.031-.216.008-.306-.075-.32-.299-.054-.873.171-1.631.805-2.265.522-.522 1.064-.991 1.882-1.178" fill="#08a79d" transform="matrix(5.55556 0 0 5.55556 84.657049832 110.12368848)"/><path d="m0-7.353c.009.17.026.339.025.509-.012 2.025-.027 4.051-.042 6.076-.001.116 0 .232-.009.348-.025.327-.132.42-.433.354-.07-.015-.142-.101-.174-.173-.03-.063-.004-.151-.004-.228.001-2.084.003-4.168.004-6.252v-.058c.008-.53.008-.53.633-.576" fill="#eda569" transform="matrix(5.55556 0 0 5.55556 118.481521336 162.42928588)"/><path d="m0 1.329c-.417.03-.638-.248-.77-.616-.172-.483-.35-.743.447-.694.423.026.847.014 1.271.022.126.002.228.04.227.194-.003.487-.654 1.109-1.175 1.094" fill="#08a79d" transform="matrix(5.55556 0 0 5.55556 100.767618276 112.2181346)"/><path d="m0-1.433h.634c.199 0 .261.108.256.295-.02.664-.724 1.162-1.344.944-.345-.122-.636-.719-.492-1.054.036-.085.162-.172.256-.183.227-.026.46-.008.69-.008z" fill="#89ccde" transform="matrix(5.55556 0 0 5.55556 115.223185396 120.495919)"/><path d="m0-1.473c.136 0 .271-.003.406.001.421.012.487.096.287.484-.138.269-.321.532-.54.739-.269.253-.581.185-.774-.137-.136-.229-.256-.477-.334-.731-.067-.219.026-.326.26-.343.23-.017.463-.004.695-.004z" fill="#89ccde" transform="matrix(5.55556 0 0 5.55556 88.568719628 120.1903632)"/><path d="m0-1.369c.571.03 1.065.053 1.56.083.184.011.25.14.157.275-.193.283-.396.566-.639.804-.213.207-.458.161-.653-.069-.241-.285-.363-.623-.425-1.093" fill="#08a79d" transform="matrix(5.55556 0 0 5.55556 70.415371772 119.3570292)"/><path d="m0-8.282c.305.164.312.356.324.548.04.637.081 1.273.12 1.91.026.404.051.81.075 1.214.03.521-.09.652-.622.668-.193.006-.387-.01-.58-.002-.191.008-.262.117-.254.308.042 1.1.084 2.2.108 3.299.004.181-.024.424-.138.531-.154.143-.408.255-.614.246-.22-.009-.211-.292-.248-.474-.046-.226-.075-.457-.087-.687-.039-.831-.068-1.662-.102-2.493-.004-.115-.017-.231-.021-.347-.008-.211-.13-.311-.326-.338-.115-.015-.232-.023-.347-.036-.266-.033-.413-.191-.462-.447-.189-.985-.38-1.971-.559-2.958-.034-.188-.039-.389-.012-.577.012-.084.131-.2.215-.213.088-.013.244.057.278.132.092.209.146.437.196.662.141.621.263 1.246.416 1.864.045.182.147.36.259.514.21.287.528.248.595-.092.073-.373.069-.765.062-1.148-.014-.714-.054-1.427-.083-2.141-.001-.039-.009-.086.009-.114.058-.088.113-.222.193-.241.155-.037.248.086.267.236.021.153.024.308.031.462.038.714.077 1.428.111 2.142.015.32.092.614.338.836.233.211.495.147.576-.159.063-.239.089-.494.099-.743.019-.464-.001-.929.028-1.392.018-.303.094-.602.155-.97" fill="#f3dc83" transform="matrix(5.55556 0 0 5.55556 53.127024608 74.9125492)"/><path d="m0-9.403c1.078.648 1.586 1.727 1.364 2.809-.148.717-.348 1.424-.513 2.138-.048.205-.078.419-.082.63-.022.984-.03 1.969-.048 2.954-.004.192-.022.386-.049.576-.029.208-.172.296-.371.283-.214-.015-.218-.179-.222-.339-.035-1.101-.09-2.201-.102-3.302-.017-1.683-.005-3.365-.003-5.047 0-.206.015-.412.026-.702" fill="#89ccde" transform="matrix(5.55556 0 0 5.55556 64.17814456 72.95143652)"/><path d="m0 4.711h.011c0-.25.003-.501-.002-.751-.002-.14-.025-.3-.209-.267-.068.013-.16.164-.157.248.017.519.054 1.038.097 1.556.005.05.091.094.139.141.04-.059.112-.115.115-.176.013-.25.006-.501.006-.751m4.385-.03h-.006c0-.271.001-.542 0-.812 0-.171-.098-.241-.257-.243-.174-.003-.31.041-.31.252.001.521.002 1.044.005 1.566.001.167.089.244.255.242.172-.002.311-.041.312-.25.002-.252.001-.503.001-.755m-.827 2.008c.001-.509.002-.507-.536-.464-.174.014-.351-.004-.522.023-.078.012-.204.095-.207.151-.013.267.008.535.017.803.203.037.405.081.609.108.114.015.232.001.349.001.184.002.294-.075.291-.273-.002-.117-.001-.233-.001-.349m-2.492.541c.896.016.956-.044.863-.723-.002-.019.005-.046-.006-.056-.073-.074-.14-.19-.227-.209-.374-.081-.753-.14-1.133-.189-.073-.009-.223.061-.225.102-.018.304-.019.61.003.913.004.048.145.112.229.124.208.029.42.033.496.038m-1.06-.61c0-.039-.002-.078.001-.117.017-.27.003-.496-.363-.523-.205-.016-.246-.207-.253-.398-.021-.483-.055-.965-.084-1.448-.007-.115 0-.234-.025-.346-.034-.151-.235-.22-.437-.167-.153.039-.142.152-.134.272.066.905.136 1.81.19 2.715.03.495.028.507.525.561.546.058.579.027.58-.549m3.556-1.922h.011c0-.269.016-.539-.01-.805-.007-.079-.127-.2-.206-.209-.247-.029-.499-.008-.748-.015-.236-.008-.357.08-.348.334.01.326.001.653.001.979 0 .891.051.93.948.822.229-.028.356-.115.353-.357-.003-.249-.001-.499-.001-.749m1.805.557c-.015-.001-.03-.002-.045-.003 0-.27.016-.542-.005-.811-.015-.209-.047-.426-.126-.618-.038-.091-.195-.174-.307-.187-.168-.019-.218.126-.222.275-.004.154-.004.308-.006.463-.003.386 0 .772-.012 1.158-.008.27-.102.472-.406.552-.424.112-.42.128-.424.571-.001.097-.003.194.001.29.017.343.072.395.425.354.21-.024.416-.087.626-.112.235-.028.329-.151.348-.379.043-.518.101-1.035.153-1.553m-3.438-.476h.001c0-.27-.003-.539.002-.808.002-.183-.063-.295-.263-.297-.365-.004-.731-.009-1.097-.013-.153-.002-.269.053-.27.225-.002.52-.006 1.039.013 1.558.003.082.115.216.193.229.377.064.76.101 1.142.136.192.018.279-.093.279-.28-.001-.25 0-.5 0-.75m2.453-4.272h-.062c0-.889.011-1.779-.006-2.669-.006-.404-.031-.414-.444-.408-1.336.022-2.672.05-4.007.082-.344.008-.37.033-.373.365-.003.387.01.774.021 1.161.035 1.316.069 2.631.111 3.946.011.338.043.37.305.371 1.355.001 2.71.002 4.065-.006.376-.002.385-.016.388-.403.007-.813.002-1.626.002-2.439m.286-.133c0 .851.001 1.702 0 2.553-.001.356.01.404.38.415.333.01.431.202.497.46.185.724.129 1.461.091 2.194-.015.308-.074.614-.103.922-.029.309-.177.509-.491.555-.419.063-.841.161-1.261.159-.985-.005-1.97-.093-2.954-.085-.58.004-1.148-.047-1.717-.124-.464-.063-.523-.124-.524-.589-.003-1.064.004-2.129-.17-3.184-.03-.182.057-.245.212-.27.204-.033.508-.005.586-.123.109-.166.063-.442.059-.671-.031-1.645-.068-3.289-.103-4.933-.002-.096-.005-.193-.007-.29-.003-.195.106-.277.289-.281.097-.002.194-.005.29-.005 1.317.005 2.634.009 3.951.014.097 0 .194 0 .29.008.623.05.735.166.738.778.003.832.001 1.664.001 2.496-.018 0-.036.001-.054.001" fill="#231f20" transform="matrix(5.55556 0 0 5.55556 40.176458692 115.75147076)"/><path d="m0 .234c0 .813.004 1.626-.002 2.439-.003.387-.013.4-.388.402-1.356.008-2.711.008-4.066.006-.262 0-.294-.032-.304-.37-.042-1.315-.076-2.631-.112-3.946-.01-.387-.024-.775-.02-1.161.003-.332.028-.358.372-.366 1.336-.031 2.672-.059 4.008-.081.413-.006.437.004.444.408.016.889.006 1.779.006 2.669z" fill="#c3e9fb" transform="matrix(5.55556 0 0 5.55556 64.523700392 117.2736942)"/><path d="m0 .072v.75c0 .187-.087.298-.279.28-.382-.035-.764-.072-1.142-.135-.078-.014-.19-.148-.193-.23-.019-.519-.014-1.038-.012-1.558.001-.172.116-.227.27-.225.365.004.731.009 1.097.013.199.002.264.114.262.297-.004.269-.002.538-.002.808z" fill="#c3e9fb" transform="matrix(5.55556 0 0 5.55556 50.89202282 141.90149168)"/><path d="m0-.446c-.052.517-.109 1.034-.152 1.552-.019.228-.114.352-.348.38-.211.025-.417.088-.626.111-.353.041-.409-.011-.425-.354-.005-.096-.002-.192-.001-.289.004-.443-.001-.46.424-.571.304-.08.398-.283.405-.553.012-.385.009-.772.013-1.158.001-.154.001-.308.005-.463.004-.148.055-.293.222-.274.112.013.269.095.307.187.079.192.111.409.127.618.02.269.005.54.005.81.015.002.029.003.044.004" fill="#ed0b6e" transform="matrix(5.55556 0 0 5.55556 69.991482544 147.42927388)"/><path d="m0-.17c0 .25-.002.5.001.749.003.241-.124.329-.353.356-.897.108-.948.069-.948-.821 0-.326.009-.654-.001-.98-.009-.253.112-.342.348-.334.249.008.501-.013.748.016.079.009.199.13.206.208.026.266.01.537.01.806z" fill="#c3e9fb" transform="matrix(5.55556 0 0 5.55556 59.965363412 142.8014924)"/><path d="m0 2.444c-.001.577-.034.607-.58.549-.497-.053-.496-.066-.525-.561-.055-.905-.124-1.81-.19-2.715-.009-.12-.019-.233.133-.272.203-.052.403.016.437.167.026.112.019.231.026.347.029.482.063.964.083 1.447.008.191.049.382.253.398.367.028.381.254.363.524-.002.038 0 .077 0 .116" fill="#ed0b6e" transform="matrix(5.55556 0 0 5.55556 40.212569832 138.95148932)"/><path d="m0 1.17c-.076-.005-.288-.009-.496-.038-.084-.012-.225-.076-.229-.124-.022-.303-.021-.609-.003-.913.002-.041.152-.111.225-.102.38.049.759.108 1.133.189.087.019.154.135.227.209.011.01.004.037.006.056.094.679.033.739-.863.723" fill="#ed0b6e" transform="matrix(5.55556 0 0 5.55556 46.098685652 149.41816436)"/><path d="m0-.127c0 .116-.001.232 0 .349.003.198-.106.275-.291.273-.116 0-.234.014-.348-.001-.204-.027-.406-.071-.61-.108-.008-.268-.029-.536-.016-.803.003-.056.129-.139.207-.151.171-.027.348-.009.522-.023.537-.043.537-.045.536.464" fill="#ed0b6e" transform="matrix(5.55556 0 0 5.55556 59.944252284 153.61816772)"/><path d="m0 .052c0 .251.001.503 0 .754-.001.21-.141.249-.312.251-.167.002-.255-.075-.256-.242-.002-.522-.004-1.045-.005-1.567 0-.21.136-.255.31-.252.159.003.257.073.258.244.001.27 0 .541 0 .812z" fill="#c3e9fb" transform="matrix(5.55556 0 0 5.55556 64.537033736 141.468158)"/><path d="m0 .124c0 .25.007.501-.006.751-.003.061-.075.117-.115.176-.048-.047-.134-.091-.139-.141-.043-.518-.08-1.037-.097-1.556-.003-.084.089-.235.157-.248.184-.033.207.127.209.267.005.25.002.501.002.751z" fill="#c3e9fb" transform="matrix(5.55556 0 0 5.55556 40.176458692 141.23482448)"/><path d="m0 1.399c.004.501.196 1.05.646 1.272-.255-.126-.122-1.711-.097-1.947.035-.339.472-1.279.314-1.537-.28-.459-.573-.115-.698.136-.198.399-.169 1.622-.165 2.076" fill="#fff" transform="matrix(5.55556 0 0 5.55556 39.927569604 112.97924632)"/><path d="m0 5.974c.134.099.338.018.429-.122.09-.14.097-.315.102-.482.05-1.703.237-3.469.134-5.166-.888-.303-.576 1.916-.587 2.409-.011.427-.355 3.157-.078 3.361" fill="#fff" transform="matrix(5.55556 0 0 5.55556 84.58371644 124.46258884)"/><path d="m0-7.843c.657.315 1.307.789 1.511 1.488.198.679-.081 1.427-.543 1.962-.463.536-1.087.902-1.699 1.258.455.465.378 1.224.641 1.819.309.701 1.147 1.121 1.893.952.036 1.877.018 3.756-.054 5.633 1.537.274 3.119.29 4.661.048.035-5.113.07-10.225.105-15.337.003-.395.008-.803.171-1.162.163-.36.527-.659.919-.617.104-.544.001-1.126-.282-1.603-1.31 1.129-2.854 1.987-4.506 2.502-.917.287-1.864.468-2.808.649-1.981.379-4.234.535-6.131 1.2.285.684 2.031.345 2.642.383 1.196.075 2.393.303 3.48.825" fill="#3b2314" opacity=".2" transform="matrix(5.55556 0 0 5.55556 98.084838352 133.1625958)"/><path d="m0 10.913h-.005c0-.5.001-1.001-.001-1.502-.001-.119-.02-.261-.173-.236-.092.015-.206.108-.244.195-.053.118-.054.263-.056.397-.01.809-.014 1.617-.02 2.426-.001.058.003.116.008.173.016.213.192.228.337.24.169.014.151-.141.152-.248.005-.482.002-.963.002-1.445m8.142-5.348c.062.47.184.808.425 1.093.195.231.44.276.653.069.243-.237.446-.521.639-.803.093-.136.027-.265-.157-.276-.494-.029-.989-.053-1.56-.083m3.268.047v.009c-.232 0-.465-.014-.696.003-.233.018-.327.124-.259.344.077.254.197.502.334.731.192.321.504.389.774.136.219-.206.401-.469.54-.738.2-.388.134-.472-.287-.484-.135-.004-.271-.001-.406-.001m4.798.094v-.006c-.231 0-.463-.018-.691.008-.094.011-.22.099-.256.184-.144.334.148.931.493 1.053.62.218 1.324-.279 1.343-.943.006-.187-.056-.296-.255-.296zm5.076 4.912h.111c0-.58.006-1.16-.003-1.74-.004-.243-.084-.291-.326-.289-.246.002-.278.151-.277.345.003 1.085.002 2.169.003 3.253 0 .058-.013.132.016.17.051.068.137.166.197.158.094-.012.216-.081.256-.162.047-.094.022-.226.023-.342.001-.464 0-.929 0-1.393m-23.141 1.321c-.071-.771-.142-1.598-.225-2.425-.031-.306-.121-.371-.404-.346-.263.023-.341.119-.309.44.025.249.094.493.118.743.048.499.074 1.001.12 1.5.034.372.152.494.498.511.065.003.158-.074.195-.138.033-.059.007-.151.007-.285m15.462-4.96c.521.015 1.172-.607 1.176-1.094.001-.154-.101-.192-.227-.194-.424-.008-.849.004-1.271-.022-.797-.049-.62.211-.447.694.132.368.352.646.769.616m6.296 3.532h-.001c0 .523-.004 1.045.003 1.567.003.186-.028.413.248.447.201.026.28-.098.282-.464.004-1.006.002-2.012.001-3.018 0-.096.022-.212-.023-.284-.05-.081-.165-.172-.25-.169-.084.003-.2.1-.238.184-.044.098-.021.228-.021.344-.002.464-.001.929-.001 1.393m-20.714-1.335c-.21 0-.42-.008-.629.001-.302.013-.342.047-.323.34.035.518.087 1.035.135 1.552.036.383.082.765.116 1.149.016.174.084.29.271.315.36.048.436-.03.433-.341-.009-.979-.003-1.958-.003-3.016m17.607-1.841c-.625.046-.625.046-.633.576v.058c-.001 2.084-.003 4.168-.004 6.252 0 .077-.026.165.004.228.032.071.104.158.173.173.302.066.409-.027.434-.355.009-.115.008-.231.009-.347.015-2.026.03-4.051.042-6.076.001-.17-.016-.339-.025-.509m-6.088-5.812c-.819.187-1.361.656-1.882 1.178-.634.634-.859 1.392-.805 2.265.014.224.103.306.319.299.444-.015.888-.019 1.331-.031.433-.011.463-.022.523-.437.057-.381.052-.77.114-1.149.112-.682.254-1.359.4-2.125m-.253 3.704c.618 0 1.136.008 1.654-.002.303-.006.317-.027.325-.347.011-.463-.011-.927.02-1.388.044-.652.111-1.302.19-1.951.041-.342.006-.4-.353-.38-.938.053-1.214.28-1.359 1.143-.159.946-.309 1.894-.477 2.925m-.713 1.542c-.174.125-.285.256-.424.297-.384.114-.401.377-.399.716.017 2.088.011 4.176.013 6.264 0 .116-.013.233.002.347.009.069.055.187.093.19.246.023.499.049.738.006.062-.01.116-.261.115-.401-.022-2.396-.053-4.793-.084-7.19 0-.054-.024-.108-.054-.229m5.167-5.332c-.011.08-.034.138-.022.186.28 1.108.496 2.225.45 3.375-.01.261.13.333.36.332.425-.004.851.001 1.277 0 .785-.001.836-.056.652-.827-.072-.298-.153-.611-.31-.869-.319-.527-.679-1.03-1.047-1.525-.33-.444-.811-.613-1.36-.672m-2.158 2.528c0 .294.003.622-.002.95-.003.212.081.321.304.322.541.004 1.082.024 1.623.024.289 0 .328-.032.317-.351-.016-.481-.034-.966-.114-1.44-.102-.606-.263-1.203-.402-1.803-.058-.247-.182-.421-.474-.406-.074.003-.151-.026-.227-.041-.642-.127-.693-.095-.83.521-.017.075-.034.151-.04.227-.052.653-.102 1.307-.155 1.997m3.083 10.67v-.876c-.002-1.913-.005-3.826-.008-5.74 0-.155.004-.31-.011-.463-.008-.071-.045-.185-.091-.197-.399-.109-.61-.435-.806-.748-.087.052-.128.065-.151.092-.32.391-.685.681-1.237.607-.165-.022-.249.075-.25.241-.001.116-.002.232-.002.348.004 2.011.007 4.02.01 6.031.001.135.004.27.005.405.001.219.115.304.329.302.733-.005 1.465-.002 2.212-.002m-5.583-8.011c-.017.234-.035.385-.037.536-.024 1.718-.046 3.436-.068 5.154-.009.657-.022 1.313-.021 1.97 0 .323.018.344.32.348.734.01 1.469-.002 2.203.005.247.003.354-.104.349-.345-.004-.154 0-.309.001-.463.003-2.028-.021-4.057.025-6.083.014-.588-.333-.916-.58-1.358-.204.255-.35.487-.543.67-.472.446-1.057.379-1.44-.141-.055-.074-.107-.15-.209-.293m10.418-9.229c-.044-.364-.072-.633-.111-.9-.03-.202-.139-.221-.334-.176-.827.191-1.659.369-2.493.531-1.878.364-3.764.69-5.637 1.078-1.95.402-3.904.774-5.88 1.033-.9.118-1.798.256-2.692.413-1.103.195-2.201.42-3.302.63-.531.101-1.063.203-1.595.296-.184.032-.286.105-.246.306.087.435.161.874.264 1.306.071.3.152.337.463.252.485-.134.96-.308 1.45-.415 1.209-.263 2.422-.51 3.637-.739 1.843-.347 3.691-.665 5.534-1.012 1.785-.335 3.573-.661 5.349-1.045 1.492-.323 2.968-.72 4.45-1.088.318-.079.637-.162.944-.272.101-.036.168-.165.199-.198m-20.315 17.242h1.007c2.248 0 4.495.001 6.743-.002.495 0 .501-.007.502-.465.003-2.207.001-4.414.005-6.621.001-.241-.037-.435-.229-.623-.171-.168-.285-.412-.378-.641-.255-.632-.379-1.288-.344-1.979.024-.458.122-.887.365-1.267.489-.764 1.113-1.405 1.969-1.744.883-.35 1.803-.568 2.765-.594.803-.023 1.572.175 2.352.302.66.107 1.218.392 1.62.931.301.402.587.816.854 1.242.381.608.465 1.304.532 2 .019.197-.006.458-.22.483-.435.048-.461.319-.479.647-.006.11-.058.231-.123.321-.194.269-.212.569-.211.884.005 2.15.005 4.298.006 6.448.001.116.011.232.005.348-.014.258.122.335.356.333.562-.006 1.124-.007 1.686 0 .24.003.362-.092.366-.336.007-.349.027-.697.027-1.045.003-2.653.002-5.305.002-7.958 0-2.15.001-4.299-.002-6.448 0-.534-.043-.572-.567-.455-.698.156-1.399.307-2.087.502-1.77.505-3.577.848-5.382 1.188-2.071.39-4.157.698-6.231 1.071-1.485.267-2.961.577-4.439.877-.544.11-.479.102-.479.598-.003 3.853-.012 7.706-.018 11.559 0 .15.018.3.027.444m-.375-9.124c0-.929.005-1.858-.002-2.788-.003-.44-.034-.455-.475-.343-.225.056-.449.118-.677.158-.243.043-.437-.056-.485-.303-.121-.624-.224-1.252-.322-1.881-.03-.197.061-.313.28-.359 2.381-.501 4.738-1.117 7.163-1.409 2.227-.268 4.429-.695 6.624-1.153 1.779-.372 3.569-.685 5.352-1.034.909-.177 1.814-.378 2.72-.567.095-.02.192-.03.285-.054.184-.048.335.026.37.189.112.526.211 1.057.273 1.59.011.103-.15.266-.27.332-.2.111-.428.177-.65.243-.178.052-.256.158-.254.336.001.096.003.193.003.29-.003 2.923-.005 5.846-.007 8.769-.001.693-.055.674.647.695.271.008.543.01.813.025.322.018.374.056.371.383-.009.832-.035 1.664-.059 2.495-.012.406-.031.812-.051 1.218-.018.37-.114.49-.478.52-.308.026-.619.011-.929.006-.217-.002-.323.088-.31.313.024.424.043.85.063 1.275.006.135.018.272.005.406-.025.256-.125.316-.388.282-.247-.032-.497-.066-.746-.066-5.83-.002-11.66.002-17.491-.001-.306 0-.619-.029-.917-.096-.431-.096-.464-.188-.44-.642.018-.347-.004-.697.006-1.045.007-.253-.113-.311-.349-.337-.652-.073-1.302-.168-1.947-.285-.452-.082-.552-.223-.598-.713-.048-.519-.077-1.041-.128-1.56-.03-.307-.11-.61-.129-.917-.028-.451.102-.602.549-.646.288-.028.58-.007.871-.007.464-.001.929-.005 1.394-.002.247.002.337-.112.335-.355-.01-.91-.007-1.82-.008-2.73-.001-.077 0-.155 0-.232z" fill="#231f20" transform="matrix(5.55556 0 0 5.55556 25.18089114 80.8292206)"/></g></svg>