<?xml version="1.0" encoding="UTF-8" standalone="no"?>
<!DOCTYPE svg PUBLIC "-//W3C//DTD SVG 1.1//EN" "http://www.w3.org/Graphics/SVG/1.1/DTD/svg11.dtd">
<svg width="100%" height="100%" viewBox="0 0 1215 118" version="1.1" xmlns="http://www.w3.org/2000/svg" xmlns:xlink="http://www.w3.org/1999/xlink" xml:space="preserve" xmlns:serif="http://www.serif.com/" style="fill-rule:evenodd;clip-rule:evenodd;stroke-linejoin:round;stroke-miterlimit:2;">
    <g transform="matrix(1,0,0,1,-987.216,-9119.2)">
        <g transform="matrix(4.16667,0,0,4.16667,0,7175.19)">
            <g transform="matrix(1,0,0,1,496.868,480.597)">
                <path d="M0,-12.76C0.959,-11.986 1.076,-11.895 1.501,-11.457C3.574,-9.322 3.688,-5.364 1.006,-2.73C-1.604,-0.165 -4.875,0 -7.181,-1.788C-7.798,-2.267 -8.759,-3.165 -9.192,-4.187L0,-12.76Z" style="fill:rgb(254,198,89);fill-rule:nonzero;"/>
            </g>
        </g>
        <g transform="matrix(4.16667,0,0,4.16667,0,7175.19)">
            <g transform="matrix(-0.730598,-0.682807,-0.682807,0.730598,486.434,472.967)">
                <path d="M-4.34,-10.881C-7.229,-10.909 -9.766,-8.185 -9.607,-4.479C-9.453,-0.871 -7.207,1.451 -4.34,1.715C-1.886,1.941 0.977,-0.808 0.927,-4.418C0.876,-8.028 -1.678,-10.856 -4.34,-10.881" style="fill:rgb(255,236,73);fill-rule:nonzero;"/>
            </g>
        </g>
        <g transform="matrix(4.16667,0,0,4.16667,0,7175.19)">
            <g transform="matrix(1,0,0,1,493.859,477.392)">
                <path d="M0,-10.282C-1.674,-10.282 -3.509,-9.523 -4.885,-8.093C-6.119,-6.807 -6.756,-5.083 -6.63,-3.359C-6.539,-2.104 -6.037,-1.036 -5.254,-0.428C-2.984,1.331 0.114,0.967 2.458,-1.336C3.74,-2.595 4.459,-4.244 4.432,-5.857C4.408,-7.184 3.896,-8.374 2.987,-9.207C2.195,-9.932 1.135,-10.282 0,-10.282M-2.055,1.24C-3.308,1.24 -4.532,0.836 -5.596,0.012C-6.503,-0.692 -7.083,-1.906 -7.186,-3.319C-7.323,-5.199 -6.63,-7.08 -5.286,-8.478C-2.773,-11.092 1.187,-11.613 3.363,-9.617C4.386,-8.679 4.963,-7.348 4.988,-5.867C5.019,-4.101 4.238,-2.304 2.848,-0.938C1.382,0.502 -0.362,1.24 -2.055,1.24" style="fill:rgb(35,31,32);fill-rule:nonzero;"/>
            </g>
        </g>
        <g transform="matrix(4.16667,0,0,4.16667,0,7175.19)">
            <g transform="matrix(1,0,0,1,491.697,468.678)">
                <path d="M0,7.697C-2.288,7.794 -2.96,5.914 -3.018,5.117C-3.109,3.858 -2.62,2.541 -1.708,1.592C-0.691,0.535 0.704,-0.097 2.025,-0.097C2.819,-0.097 3.506,0.132 3.959,0.548C4.545,1.085 4.876,1.871 4.892,2.76C4.912,3.943 4.364,5.171 3.39,6.129C2.346,7.155 1.173,7.697 0,7.697" style="fill:rgb(254,198,89);fill-rule:nonzero;"/>
            </g>
        </g>
        <g transform="matrix(4.16667,0,0,4.16667,0,7175.19)">
            <g transform="matrix(1,0,0,1,492.037,469.399)">
                <path d="M0,7.186C-2.136,7.276 -2.763,5.521 -2.816,4.777C-2.902,3.602 -2.445,2.372 -1.594,1.486C-0.646,0.499 0.658,-0.09 1.892,-0.09C2.633,-0.09 3.273,0.124 3.696,0.511C4.244,1.013 4.553,1.747 4.567,2.577C4.586,3.681 4.075,4.828 3.165,5.721C2.19,6.679 1.096,7.186 0,7.186" style="fill:rgb(255,236,73);fill-rule:nonzero;"/>
            </g>
        </g>
        <g transform="matrix(4.16667,0,0,4.16667,0,7175.19)">
            <g transform="matrix(1,0,0,1,493.722,476.099)">
                <path d="M0,-7.239C-1.247,-7.239 -2.567,-6.64 -3.533,-5.636C-4.391,-4.744 -4.852,-3.506 -4.766,-2.325C-4.716,-1.649 -4.137,0.085 -2.037,-0.003L-2.025,-0.003C-0.927,-0.003 0.178,-0.517 1.169,-1.491C2.09,-2.395 2.606,-3.55 2.588,-4.656C2.574,-5.468 2.274,-6.183 1.745,-6.669C1.344,-7.037 0.724,-7.239 0,-7.239M-2.197,0.558C-4.584,0.558 -5.263,-1.479 -5.32,-2.285C-5.418,-3.621 -4.899,-5.018 -3.935,-6.022C-2.866,-7.134 -1.396,-7.797 0,-7.797C0.863,-7.797 1.617,-7.542 2.121,-7.08C2.765,-6.49 3.128,-5.633 3.145,-4.666C3.166,-3.407 2.589,-2.105 1.56,-1.093C0.464,-0.017 -0.773,0.553 -2.02,0.554C-2.08,0.557 -2.14,0.558 -2.197,0.558" style="fill:rgb(35,31,32);fill-rule:nonzero;"/>
            </g>
        </g>
        <g transform="matrix(4.16667,0,0,4.16667,0,7175.19)">
            <g transform="matrix(1,0,0,1,493.103,467.624)">
                <path d="M0,12.649C-1.27,12.649 -2.51,12.239 -3.586,11.404C-4.049,11.045 -5.18,10.083 -5.684,8.894C-5.743,8.753 -5.678,8.589 -5.536,8.529C-5.395,8.469 -5.23,8.535 -5.171,8.676C-4.705,9.774 -3.579,10.705 -3.245,10.964C-0.943,12.749 2.199,12.379 4.575,10.045C6.696,7.961 7.4,4.114 5.065,1.71C4.665,1.297 4.552,1.206 3.672,0.496L3.59,0.429C3.47,0.333 3.451,0.158 3.548,0.038C3.645,-0.081 3.819,-0.1 3.939,-0.004L4.021,0.062C4.905,0.775 5.041,0.884 5.466,1.322C6.542,2.43 7.13,4.026 7.08,5.701C7.026,7.471 6.275,9.155 4.966,10.442C3.48,11.901 1.714,12.649 0,12.649" style="fill:rgb(35,31,32);fill-rule:nonzero;"/>
            </g>
        </g>
        <g transform="matrix(4.16667,0,0,4.16667,0,7175.19)">
            <g transform="matrix(1,0,0,1,506.09,495.07)">
                <path d="M0,-12.759C0.959,-11.986 1.076,-11.894 1.501,-11.456C3.574,-9.321 3.688,-5.363 1.006,-2.729C-1.604,-0.164 -4.875,0 -7.181,-1.787C-7.798,-2.267 -8.759,-3.165 -9.192,-4.186L0,-12.759Z" style="fill:rgb(254,198,89);fill-rule:nonzero;"/>
            </g>
        </g>
        <g transform="matrix(4.16667,0,0,4.16667,0,7175.19)">
            <g transform="matrix(-0.730598,-0.682807,-0.682807,0.730598,495.657,487.441)">
                <path d="M-4.34,-10.88C-7.23,-10.908 -9.766,-8.184 -9.608,-4.478C-9.454,-0.87 -7.207,1.452 -4.34,1.716C-1.887,1.942 0.977,-0.807 0.926,-4.417C0.876,-8.027 -1.678,-10.855 -4.34,-10.88" style="fill:rgb(255,236,73);fill-rule:nonzero;"/>
            </g>
        </g>
        <g transform="matrix(4.16667,0,0,4.16667,0,7175.19)">
            <g transform="matrix(1,0,0,1,503.081,491.867)">
                <path d="M0,-10.282C-1.674,-10.282 -3.509,-9.523 -4.885,-8.093C-6.119,-6.808 -6.756,-5.083 -6.63,-3.359C-6.539,-2.104 -6.037,-1.036 -5.254,-0.429C-2.984,1.331 0.114,0.966 2.458,-1.336C3.74,-2.595 4.459,-4.244 4.432,-5.858C4.408,-7.184 3.896,-8.374 2.987,-9.207C2.195,-9.933 1.135,-10.282 0,-10.282M-2.055,1.24C-3.308,1.24 -4.532,0.835 -5.596,0.011C-6.503,-0.693 -7.083,-1.906 -7.186,-3.319C-7.323,-5.2 -6.63,-7.08 -5.286,-8.479C-2.773,-11.092 1.187,-11.613 3.363,-9.618C4.386,-8.68 4.963,-7.348 4.988,-5.867C5.019,-4.101 4.238,-2.305 2.848,-0.938C1.382,0.501 -0.362,1.24 -2.055,1.24" style="fill:rgb(35,31,32);fill-rule:nonzero;"/>
            </g>
        </g>
        <g transform="matrix(4.16667,0,0,4.16667,0,7175.19)">
            <g transform="matrix(1,0,0,1,500.919,483.152)">
                <path d="M0,7.697C-2.288,7.794 -2.96,5.914 -3.018,5.116C-3.109,3.858 -2.62,2.54 -1.708,1.592C-0.691,0.534 0.704,-0.097 2.025,-0.097C2.819,-0.097 3.506,0.132 3.959,0.547C4.545,1.085 4.876,1.871 4.892,2.76C4.912,3.943 4.364,5.171 3.39,6.129C2.346,7.155 1.173,7.697 0,7.697" style="fill:rgb(254,198,89);fill-rule:nonzero;"/>
            </g>
        </g>
        <g transform="matrix(4.16667,0,0,4.16667,0,7175.19)">
            <g transform="matrix(1,0,0,1,501.259,483.873)">
                <path d="M0,7.186C-2.136,7.276 -2.763,5.521 -2.816,4.777C-2.902,3.601 -2.445,2.372 -1.594,1.486C-0.646,0.499 0.658,-0.09 1.892,-0.09C2.633,-0.09 3.273,0.123 3.696,0.51C4.244,1.012 4.553,1.747 4.567,2.577C4.586,3.681 4.075,4.828 3.165,5.721C2.19,6.679 1.096,7.186 0,7.186" style="fill:rgb(255,236,73);fill-rule:nonzero;"/>
            </g>
        </g>
        <g transform="matrix(4.16667,0,0,4.16667,0,7175.19)">
            <g transform="matrix(1,0,0,1,502.944,490.575)">
                <path d="M0,-7.241C-1.247,-7.241 -2.567,-6.641 -3.533,-5.637C-4.391,-4.745 -4.852,-3.508 -4.766,-2.326C-4.716,-1.65 -4.138,0.084 -2.037,-0.004L-2.025,-0.004C-0.927,-0.004 0.178,-0.519 1.169,-1.493C2.09,-2.397 2.606,-3.551 2.588,-4.658C2.574,-5.47 2.274,-6.184 1.745,-6.67C1.344,-7.038 0.724,-7.241 0,-7.241M-2.197,0.557C-4.584,0.557 -5.263,-1.48 -5.321,-2.286C-5.418,-3.622 -4.9,-5.019 -3.935,-6.023C-2.866,-7.135 -1.396,-7.798 0,-7.798C0.863,-7.798 1.617,-7.543 2.121,-7.081C2.765,-6.491 3.128,-5.634 3.145,-4.667C3.166,-3.408 2.589,-2.106 1.56,-1.095C0.464,-0.018 -0.774,0.551 -2.02,0.553C-2.08,0.556 -2.14,0.557 -2.197,0.557" style="fill:rgb(35,31,32);fill-rule:nonzero;"/>
            </g>
        </g>
        <g transform="matrix(4.16667,0,0,4.16667,0,7175.19)">
            <g transform="matrix(1,0,0,1,502.325,482.098)">
                <path d="M0,12.65C-1.27,12.65 -2.51,12.24 -3.586,11.405C-4.049,11.046 -5.18,10.083 -5.684,8.895C-5.744,8.754 -5.678,8.589 -5.536,8.53C-5.395,8.469 -5.23,8.536 -5.171,8.677C-4.705,9.775 -3.579,10.706 -3.245,10.964C-0.943,12.75 2.199,12.379 4.575,10.046C6.696,7.961 7.4,4.114 5.065,1.711C4.665,1.297 4.552,1.207 3.672,0.497L3.59,0.43C3.47,0.334 3.451,0.159 3.548,0.039C3.645,-0.081 3.819,-0.1 3.939,-0.003L4.021,0.063C4.905,0.776 5.041,0.885 5.466,1.322C6.542,2.43 7.13,4.027 7.079,5.702C7.026,7.472 6.275,9.156 4.965,10.443C3.48,11.901 1.714,12.649 0,12.65" style="fill:rgb(35,31,32);fill-rule:nonzero;"/>
            </g>
        </g>
        <g transform="matrix(4.16667,0,0,4.16667,0,7175.19)">
            <g transform="matrix(1,0,0,1,515.897,480.597)">
                <path d="M0,-12.76C0.96,-11.986 1.077,-11.895 1.502,-11.457C3.575,-9.322 3.688,-5.364 1.006,-2.73C-1.604,-0.165 -4.874,0 -7.18,-1.788C-7.797,-2.267 -8.758,-3.165 -9.191,-4.187L0,-12.76Z" style="fill:rgb(254,198,89);fill-rule:nonzero;"/>
            </g>
        </g>
        <g transform="matrix(4.16667,0,0,4.16667,0,7175.19)">
            <g transform="matrix(-0.730638,-0.682765,-0.682765,0.730638,505.465,472.968)">
                <path d="M-4.338,-10.881C-7.229,-10.909 -9.765,-8.184 -9.606,-4.479C-9.452,-0.871 -7.206,1.452 -4.338,1.715C-1.885,1.941 0.979,-0.808 0.928,-4.418C0.877,-8.028 -1.677,-10.855 -4.338,-10.881" style="fill:rgb(255,236,73);fill-rule:nonzero;"/>
            </g>
        </g>
        <g transform="matrix(4.16667,0,0,4.16667,0,7175.19)">
            <g transform="matrix(1,0,0,1,512.888,477.392)">
                <path d="M0,-10.282C-1.673,-10.282 -3.509,-9.523 -4.884,-8.093C-6.119,-6.807 -6.755,-5.083 -6.63,-3.359C-6.538,-2.104 -6.036,-1.036 -5.254,-0.428C-2.984,1.331 0.114,0.967 2.458,-1.336C3.74,-2.595 4.46,-4.244 4.432,-5.857C4.409,-7.184 3.896,-8.374 2.987,-9.207C2.196,-9.932 1.136,-10.282 0,-10.282M-2.055,1.24C-3.308,1.24 -4.532,0.836 -5.595,0.012C-6.503,-0.692 -7.082,-1.906 -7.186,-3.319C-7.322,-5.199 -6.63,-7.08 -5.285,-8.478C-2.773,-11.092 1.187,-11.613 3.364,-9.617C4.387,-8.679 4.964,-7.348 4.989,-5.867C5.02,-4.101 4.239,-2.304 2.849,-0.938C1.383,0.502 -0.361,1.24 -2.055,1.24" style="fill:rgb(35,31,32);fill-rule:nonzero;"/>
            </g>
        </g>
        <g transform="matrix(4.16667,0,0,4.16667,0,7175.19)">
            <g transform="matrix(1,0,0,1,510.726,468.678)">
                <path d="M0,7.697C-2.287,7.794 -2.959,5.914 -3.017,5.117C-3.108,3.858 -2.619,2.541 -1.708,1.592C-0.691,0.535 0.705,-0.097 2.026,-0.097C2.819,-0.097 3.506,0.132 3.959,0.548C4.546,1.085 4.877,1.871 4.893,2.76C4.913,3.943 4.365,5.171 3.391,6.129C2.346,7.155 1.174,7.697 0,7.697" style="fill:rgb(254,198,89);fill-rule:nonzero;"/>
            </g>
        </g>
        <g transform="matrix(4.16667,0,0,4.16667,0,7175.19)">
            <g transform="matrix(1,0,0,1,511.067,469.399)">
                <path d="M0,7.186C-2.136,7.276 -2.763,5.521 -2.817,4.777C-2.902,3.602 -2.445,2.372 -1.595,1.486C-0.646,0.499 0.657,-0.09 1.891,-0.09C2.632,-0.09 3.273,0.124 3.695,0.511C4.243,1.013 4.553,1.747 4.566,2.577C4.586,3.681 4.075,4.828 3.165,5.721C2.189,6.679 1.096,7.186 0,7.186" style="fill:rgb(255,236,73);fill-rule:nonzero;"/>
            </g>
        </g>
        <g transform="matrix(4.16667,0,0,4.16667,0,7175.19)">
            <g transform="matrix(1,0,0,1,512.752,476.099)">
                <path d="M0,-7.239C-1.247,-7.239 -2.567,-6.64 -3.532,-5.636C-4.39,-4.744 -4.851,-3.506 -4.765,-2.325C-4.715,-1.649 -4.137,0.085 -2.037,-0.003L-2.025,-0.003C-0.927,-0.003 0.179,-0.517 1.17,-1.491C2.091,-2.395 2.607,-3.55 2.588,-4.656C2.574,-5.468 2.275,-6.183 1.745,-6.669C1.344,-7.037 0.725,-7.239 0,-7.239M-2.197,0.558C-4.584,0.558 -5.262,-1.479 -5.32,-2.285C-5.418,-3.621 -4.899,-5.018 -3.934,-6.022C-2.866,-7.134 -1.396,-7.797 0,-7.797C0.864,-7.797 1.617,-7.542 2.122,-7.08C2.766,-6.49 3.129,-5.633 3.146,-4.666C3.167,-3.407 2.589,-2.105 1.56,-1.093C0.464,-0.017 -0.773,0.553 -2.02,0.554C-2.079,0.557 -2.139,0.558 -2.197,0.558" style="fill:rgb(35,31,32);fill-rule:nonzero;"/>
            </g>
        </g>
        <g transform="matrix(4.16667,0,0,4.16667,0,7175.19)">
            <g transform="matrix(1,0,0,1,512.133,467.624)">
                <path d="M0,12.649C-1.269,12.649 -2.509,12.239 -3.586,11.404C-4.049,11.045 -5.179,10.083 -5.683,8.894C-5.743,8.753 -5.677,8.589 -5.535,8.529C-5.394,8.469 -5.23,8.535 -5.17,8.676C-4.705,9.774 -3.578,10.705 -3.244,10.964C-0.943,12.749 2.199,12.379 4.575,10.045C6.697,7.961 7.4,4.114 5.066,1.71C4.666,1.297 4.553,1.206 3.672,0.496L3.59,0.429C3.471,0.333 3.452,0.158 3.548,0.038C3.646,-0.081 3.82,-0.1 3.939,-0.004L4.021,0.062C4.906,0.775 5.042,0.884 5.466,1.322C6.542,2.43 7.131,4.026 7.08,5.701C7.026,7.471 6.276,9.155 4.966,10.442C3.481,11.901 1.715,12.649 0,12.649" style="fill:rgb(35,31,32);fill-rule:nonzero;"/>
            </g>
        </g>
        <g transform="matrix(4.16667,0,0,4.16667,0,7175.19)">
            <g transform="matrix(1,0,0,1,525.119,495.07)">
                <path d="M0,-12.759C0.96,-11.986 1.077,-11.894 1.502,-11.456C3.575,-9.321 3.688,-5.363 1.006,-2.729C-1.604,-0.164 -4.875,0 -7.18,-1.787C-7.797,-2.267 -8.758,-3.165 -9.191,-4.186L0,-12.759Z" style="fill:rgb(254,198,89);fill-rule:nonzero;"/>
            </g>
        </g>
        <g transform="matrix(4.16667,0,0,4.16667,0,7175.19)">
            <g transform="matrix(-0.730598,-0.682807,-0.682807,0.730598,514.688,487.441)">
                <path d="M-4.338,-10.88C-7.229,-10.908 -9.764,-8.183 -9.607,-4.478C-9.453,-0.87 -7.206,1.452 -4.338,1.717C-1.886,1.942 0.978,-0.807 0.927,-4.417C0.878,-8.027 -1.677,-10.854 -4.338,-10.88" style="fill:rgb(255,236,73);fill-rule:nonzero;"/>
            </g>
        </g>
        <g transform="matrix(4.16667,0,0,4.16667,0,7175.19)">
            <g transform="matrix(1,0,0,1,522.11,491.867)">
                <path d="M0,-10.282C-1.674,-10.282 -3.509,-9.523 -4.884,-8.093C-6.119,-6.808 -6.755,-5.083 -6.63,-3.359C-6.538,-2.104 -6.036,-1.036 -5.254,-0.429C-2.984,1.331 0.114,0.966 2.458,-1.336C3.74,-2.595 4.46,-4.244 4.432,-5.858C4.409,-7.184 3.896,-8.374 2.987,-9.207C2.196,-9.933 1.135,-10.282 0,-10.282M-2.055,1.24C-3.308,1.24 -4.532,0.835 -5.595,0.011C-6.503,-0.693 -7.082,-1.906 -7.186,-3.319C-7.322,-5.2 -6.63,-7.08 -5.285,-8.479C-2.773,-11.092 1.187,-11.613 3.364,-9.618C4.387,-8.68 4.964,-7.348 4.989,-5.867C5.02,-4.101 4.239,-2.305 2.849,-0.938C1.383,0.501 -0.361,1.24 -2.055,1.24" style="fill:rgb(35,31,32);fill-rule:nonzero;"/>
            </g>
        </g>
        <g transform="matrix(4.16667,0,0,4.16667,0,7175.19)">
            <g transform="matrix(1,0,0,1,519.948,483.152)">
                <path d="M0,7.697C-2.287,7.794 -2.959,5.914 -3.017,5.116C-3.108,3.858 -2.619,2.54 -1.708,1.592C-0.691,0.534 0.705,-0.097 2.025,-0.097C2.819,-0.097 3.506,0.132 3.959,0.547C4.546,1.085 4.877,1.871 4.893,2.76C4.912,3.943 4.365,5.171 3.391,6.129C2.346,7.155 1.174,7.697 0,7.697" style="fill:rgb(254,198,89);fill-rule:nonzero;"/>
            </g>
        </g>
        <g transform="matrix(4.16667,0,0,4.16667,0,7175.19)">
            <g transform="matrix(1,0,0,1,520.289,483.873)">
                <path d="M0,7.186C-2.136,7.276 -2.763,5.521 -2.817,4.777C-2.902,3.601 -2.445,2.372 -1.595,1.486C-0.646,0.499 0.657,-0.09 1.891,-0.09C2.632,-0.09 3.273,0.123 3.695,0.51C4.243,1.012 4.553,1.747 4.566,2.577C4.586,3.681 4.075,4.828 3.165,5.721C2.189,6.679 1.096,7.186 0,7.186" style="fill:rgb(255,236,73);fill-rule:nonzero;"/>
            </g>
        </g>
        <g transform="matrix(4.16667,0,0,4.16667,0,7175.19)">
            <g transform="matrix(1,0,0,1,521.973,490.575)">
                <path d="M0,-7.241C-1.247,-7.241 -2.567,-6.641 -3.532,-5.637C-4.39,-4.745 -4.851,-3.508 -4.765,-2.326C-4.715,-1.65 -4.137,0.084 -2.037,-0.004L-2.025,-0.004C-0.927,-0.004 0.179,-0.519 1.17,-1.493C2.091,-2.397 2.607,-3.551 2.588,-4.658C2.574,-5.47 2.275,-6.184 1.745,-6.67C1.344,-7.038 0.725,-7.241 0,-7.241M-2.197,0.557C-4.584,0.557 -5.262,-1.48 -5.32,-2.286C-5.418,-3.622 -4.899,-5.019 -3.934,-6.023C-2.866,-7.135 -1.396,-7.798 0,-7.798C0.864,-7.798 1.617,-7.543 2.122,-7.081C2.766,-6.491 3.129,-5.634 3.146,-4.667C3.167,-3.408 2.589,-2.106 1.56,-1.095C0.464,-0.018 -0.773,0.551 -2.02,0.553C-2.079,0.556 -2.139,0.557 -2.197,0.557" style="fill:rgb(35,31,32);fill-rule:nonzero;"/>
            </g>
        </g>
        <g transform="matrix(4.16667,0,0,4.16667,0,7175.19)">
            <g transform="matrix(1,0,0,1,521.354,482.098)">
                <path d="M0,12.65C-1.269,12.65 -2.509,12.24 -3.586,11.405C-4.049,11.046 -5.179,10.083 -5.683,8.895C-5.743,8.754 -5.677,8.589 -5.535,8.53C-5.394,8.469 -5.23,8.536 -5.17,8.677C-4.705,9.775 -3.578,10.706 -3.244,10.964C-0.943,12.75 2.199,12.379 4.575,10.046C6.697,7.961 7.4,4.114 5.066,1.711C4.666,1.297 4.553,1.207 3.672,0.497L3.59,0.43C3.471,0.334 3.452,0.159 3.548,0.039C3.645,-0.081 3.82,-0.1 3.939,-0.003L4.021,0.063C4.906,0.776 5.042,0.885 5.466,1.322C6.542,2.43 7.131,4.027 7.08,5.702C7.026,7.472 6.276,9.156 4.966,10.443C3.481,11.901 1.715,12.649 0,12.65" style="fill:rgb(35,31,32);fill-rule:nonzero;"/>
            </g>
        </g>
        <g transform="matrix(4.16667,0,0,4.16667,0,7175.19)">
            <g transform="matrix(1,0,0,1,247.143,486.579)">
                <path d="M0,-12.759C0.96,-11.986 1.076,-11.894 1.501,-11.456C3.575,-9.321 3.688,-5.363 1.006,-2.729C-1.604,-0.164 -4.875,0 -7.18,-1.787C-7.798,-2.267 -8.759,-3.165 -9.191,-4.186L0,-12.759Z" style="fill:rgb(151,85,162);fill-rule:nonzero;"/>
            </g>
        </g>
        <g transform="matrix(4.16667,0,0,4.16667,0,7175.19)">
            <g transform="matrix(-0.730598,-0.682807,-0.682807,0.730598,236.711,478.95)">
                <path d="M-4.339,-10.88C-7.23,-10.908 -9.765,-8.184 -9.607,-4.479C-9.454,-0.871 -7.207,1.451 -4.339,1.716C-1.886,1.943 0.978,-0.807 0.927,-4.417C0.877,-8.027 -1.677,-10.855 -4.339,-10.88" style="fill:rgb(197,138,189);fill-rule:nonzero;"/>
            </g>
        </g>
        <g transform="matrix(4.16667,0,0,4.16667,0,7175.19)">
            <g transform="matrix(1,0,0,1,244.135,483.376)">
                <path d="M0,-10.282C-1.674,-10.282 -3.509,-9.523 -4.884,-8.093C-6.119,-6.808 -6.756,-5.083 -6.63,-3.359C-6.538,-2.104 -6.037,-1.036 -5.254,-0.429C-2.984,1.331 0.114,0.966 2.458,-1.336C3.74,-2.595 4.46,-4.244 4.432,-5.858C4.409,-7.184 3.896,-8.374 2.987,-9.207C2.195,-9.933 1.135,-10.282 0,-10.282M-2.055,1.24C-3.308,1.24 -4.532,0.835 -5.595,0.011C-6.503,-0.693 -7.082,-1.906 -7.186,-3.319C-7.322,-5.2 -6.63,-7.08 -5.285,-8.479C-2.773,-11.092 1.187,-11.613 3.364,-9.618C4.387,-8.68 4.963,-7.348 4.989,-5.867C5.02,-4.101 4.239,-2.305 2.848,-0.938C1.382,0.501 -0.362,1.24 -2.055,1.24" style="fill:rgb(35,31,32);fill-rule:nonzero;"/>
            </g>
        </g>
        <g transform="matrix(4.16667,0,0,4.16667,0,7175.19)">
            <g transform="matrix(1,0,0,1,241.972,474.661)">
                <path d="M0,7.697C-2.287,7.794 -2.959,5.914 -3.018,5.116C-3.109,3.858 -2.619,2.54 -1.708,1.592C-0.691,0.534 0.704,-0.097 2.025,-0.097C2.819,-0.097 3.506,0.132 3.959,0.547C4.545,1.085 4.877,1.871 4.892,2.76C4.912,3.943 4.365,5.171 3.39,6.129C2.346,7.154 1.174,7.697 0,7.697" style="fill:rgb(151,85,162);fill-rule:nonzero;"/>
            </g>
        </g>
        <g transform="matrix(4.16667,0,0,4.16667,0,7175.19)">
            <g transform="matrix(1,0,0,1,242.313,475.382)">
                <path d="M0,7.186C-2.136,7.276 -2.763,5.521 -2.817,4.777C-2.903,3.601 -2.445,2.372 -1.595,1.486C-0.646,0.499 0.657,-0.09 1.891,-0.09C2.632,-0.09 3.272,0.123 3.695,0.51C4.243,1.012 4.553,1.747 4.566,2.577C4.586,3.681 4.074,4.828 3.164,5.721C2.189,6.679 1.095,7.186 0,7.186" style="fill:rgb(197,138,189);fill-rule:nonzero;"/>
            </g>
        </g>
        <g transform="matrix(4.16667,0,0,4.16667,0,7175.19)">
            <g transform="matrix(1,0,0,1,243.998,482.084)">
                <path d="M0,-7.241C-1.247,-7.241 -2.567,-6.641 -3.532,-5.637C-4.391,-4.745 -4.851,-3.508 -4.765,-2.326C-4.716,-1.65 -4.137,0.084 -2.037,-0.004L-2.025,-0.004C-0.927,-0.004 0.179,-0.519 1.17,-1.493C2.09,-2.397 2.607,-3.551 2.588,-4.658C2.574,-5.47 2.274,-6.184 1.745,-6.67C1.344,-7.038 0.725,-7.241 0,-7.241M-2.197,0.557C-4.584,0.557 -5.262,-1.48 -5.32,-2.286C-5.418,-3.622 -4.899,-5.019 -3.934,-6.024C-2.866,-7.135 -1.396,-7.798 0,-7.798C0.864,-7.798 1.617,-7.543 2.122,-7.081C2.765,-6.491 3.128,-5.634 3.145,-4.667C3.167,-3.408 2.589,-2.106 1.56,-1.095C0.464,-0.018 -0.773,0.551 -2.02,0.553C-2.079,0.556 -2.139,0.557 -2.197,0.557" style="fill:rgb(35,31,32);fill-rule:nonzero;"/>
            </g>
        </g>
        <g transform="matrix(4.16667,0,0,4.16667,0,7175.19)">
            <g transform="matrix(1,0,0,1,243.379,473.607)">
                <path d="M0,12.65C-1.27,12.65 -2.51,12.24 -3.586,11.405C-4.049,11.046 -5.18,10.083 -5.684,8.895C-5.743,8.754 -5.678,8.589 -5.536,8.53C-5.394,8.469 -5.23,8.536 -5.171,8.677C-4.705,9.775 -3.579,10.706 -3.245,10.964C-0.943,12.75 2.199,12.379 4.575,10.046C6.697,7.961 7.4,4.114 5.066,1.711C4.665,1.297 4.553,1.207 3.672,0.497L3.59,0.43C3.47,0.334 3.451,0.159 3.548,0.039C3.645,-0.081 3.82,-0.1 3.939,-0.003L4.021,0.063C4.905,0.776 5.041,0.885 5.466,1.322C6.542,2.43 7.131,4.027 7.08,5.701C7.026,7.472 6.275,9.156 4.966,10.443C3.481,11.901 1.714,12.649 0,12.65" style="fill:rgb(35,31,32);fill-rule:nonzero;"/>
            </g>
        </g>
        <g transform="matrix(4.16667,0,0,4.16667,0,7175.19)">
            <g transform="matrix(1,0,0,1,286.684,480.597)">
                <path d="M0,-12.76C0.959,-11.986 1.076,-11.895 1.501,-11.457C3.574,-9.322 3.688,-5.364 1.006,-2.73C-1.604,-0.165 -4.875,0 -7.181,-1.788C-7.798,-2.267 -8.759,-3.165 -9.191,-4.187L0,-12.76Z" style="fill:rgb(0,167,80);fill-rule:nonzero;"/>
            </g>
        </g>
        <g transform="matrix(4.16667,0,0,4.16667,0,7175.19)">
            <g transform="matrix(-0.730598,-0.682807,-0.682807,0.730598,276.251,472.967)">
                <path d="M-4.34,-10.881C-7.229,-10.909 -9.766,-8.185 -9.607,-4.479C-9.453,-0.871 -7.207,1.451 -4.34,1.715C-1.886,1.941 0.977,-0.808 0.927,-4.418C0.876,-8.028 -1.678,-10.856 -4.34,-10.881" style="fill:rgb(119,192,67);fill-rule:nonzero;"/>
            </g>
        </g>
        <g transform="matrix(4.16667,0,0,4.16667,0,7175.19)">
            <g transform="matrix(1,0,0,1,283.675,477.392)">
                <path d="M0,-10.282C-1.674,-10.282 -3.509,-9.523 -4.884,-8.093C-6.119,-6.807 -6.756,-5.083 -6.63,-3.359C-6.539,-2.104 -6.037,-1.036 -5.254,-0.428C-2.984,1.331 0.114,0.967 2.458,-1.336C3.74,-2.595 4.459,-4.244 4.432,-5.857C4.408,-7.184 3.896,-8.374 2.987,-9.207C2.195,-9.932 1.135,-10.282 0,-10.282M-2.055,1.24C-3.308,1.24 -4.532,0.836 -5.596,0.012C-6.503,-0.692 -7.083,-1.906 -7.186,-3.319C-7.322,-5.199 -6.63,-7.08 -5.286,-8.478C-2.773,-11.092 1.187,-11.613 3.363,-9.617C4.386,-8.679 4.963,-7.348 4.988,-5.867C5.019,-4.101 4.238,-2.304 2.848,-0.938C1.382,0.502 -0.362,1.24 -2.055,1.24" style="fill:rgb(35,31,32);fill-rule:nonzero;"/>
            </g>
        </g>
        <g transform="matrix(4.16667,0,0,4.16667,0,7175.19)">
            <g transform="matrix(1,0,0,1,281.513,468.678)">
                <path d="M0,7.697C-2.288,7.794 -2.959,5.914 -3.018,5.117C-3.109,3.858 -2.619,2.541 -1.708,1.592C-0.691,0.535 0.704,-0.097 2.025,-0.097C2.819,-0.097 3.506,0.132 3.959,0.548C4.545,1.085 4.876,1.871 4.892,2.76C4.912,3.943 4.364,5.171 3.39,6.129C2.346,7.155 1.173,7.697 0,7.697" style="fill:rgb(0,167,80);fill-rule:nonzero;"/>
            </g>
        </g>
        <g transform="matrix(4.16667,0,0,4.16667,0,7175.19)">
            <g transform="matrix(1,0,0,1,281.853,469.399)">
                <path d="M0,7.186C-2.136,7.276 -2.763,5.521 -2.816,4.777C-2.902,3.602 -2.445,2.372 -1.594,1.486C-0.646,0.499 0.658,-0.09 1.892,-0.09C2.633,-0.09 3.273,0.124 3.696,0.511C4.244,1.013 4.553,1.747 4.567,2.577C4.587,3.681 4.075,4.828 3.165,5.721C2.19,6.679 1.096,7.186 0,7.186" style="fill:rgb(119,192,67);fill-rule:nonzero;"/>
            </g>
        </g>
        <g transform="matrix(4.16667,0,0,4.16667,0,7175.19)">
            <g transform="matrix(1,0,0,1,283.539,476.099)">
                <path d="M0,-7.239C-1.247,-7.239 -2.567,-6.64 -3.533,-5.636C-4.391,-4.744 -4.852,-3.506 -4.765,-2.325C-4.716,-1.649 -4.137,0.085 -2.037,-0.003L-2.025,-0.003C-0.927,-0.003 0.178,-0.517 1.169,-1.491C2.09,-2.395 2.606,-3.55 2.588,-4.656C2.574,-5.468 2.274,-6.183 1.745,-6.669C1.344,-7.037 0.724,-7.239 0,-7.239M-2.197,0.558C-4.584,0.558 -5.262,-1.479 -5.32,-2.285C-5.418,-3.621 -4.899,-5.018 -3.935,-6.022C-2.866,-7.134 -1.396,-7.797 0,-7.797C0.863,-7.797 1.617,-7.542 2.121,-7.08C2.765,-6.49 3.128,-5.633 3.145,-4.666C3.166,-3.407 2.589,-2.105 1.56,-1.093C0.464,-0.017 -0.773,0.553 -2.02,0.554C-2.08,0.557 -2.14,0.558 -2.197,0.558" style="fill:rgb(35,31,32);fill-rule:nonzero;"/>
            </g>
        </g>
        <g transform="matrix(4.16667,0,0,4.16667,0,7175.19)">
            <g transform="matrix(1,0,0,1,282.92,467.624)">
                <path d="M0,12.649C-1.27,12.649 -2.51,12.239 -3.586,11.404C-4.049,11.045 -5.18,10.083 -5.684,8.894C-5.743,8.753 -5.678,8.589 -5.536,8.529C-5.395,8.469 -5.23,8.535 -5.171,8.676C-4.705,9.774 -3.579,10.705 -3.245,10.964C-0.943,12.749 2.199,12.379 4.575,10.045C6.696,7.961 7.4,4.114 5.065,1.71C4.665,1.297 4.552,1.206 3.672,0.496L3.59,0.429C3.47,0.333 3.451,0.158 3.548,0.038C3.645,-0.081 3.819,-0.1 3.939,-0.004L4.021,0.062C4.905,0.775 5.041,0.884 5.466,1.322C6.542,2.43 7.13,4.026 7.08,5.701C7.026,7.471 6.275,9.155 4.966,10.442C3.48,11.901 1.714,12.649 0,12.649" style="fill:rgb(35,31,32);fill-rule:nonzero;"/>
            </g>
        </g>
        <g transform="matrix(4.16667,0,0,4.16667,0,7175.19)">
            <g transform="matrix(1,0,0,1,306.262,480.597)">
                <path d="M0,-12.76C0.959,-11.986 1.076,-11.895 1.501,-11.457C3.574,-9.322 3.687,-5.364 1.006,-2.73C-1.604,-0.165 -4.875,0 -7.181,-1.788C-7.798,-2.267 -8.759,-3.165 -9.192,-4.187L0,-12.76Z" style="fill:rgb(0,167,80);fill-rule:nonzero;"/>
            </g>
        </g>
        <g transform="matrix(4.16667,0,0,4.16667,0,7175.19)">
            <g transform="matrix(-0.730638,-0.682765,-0.682765,0.730638,295.83,472.968)">
                <path d="M-4.338,-10.881C-7.229,-10.909 -9.765,-8.184 -9.606,-4.479C-9.452,-0.871 -7.206,1.452 -4.338,1.715C-1.885,1.941 0.979,-0.808 0.928,-4.418C0.877,-8.028 -1.677,-10.856 -4.338,-10.881" style="fill:rgb(119,192,67);fill-rule:nonzero;"/>
            </g>
        </g>
        <g transform="matrix(4.16667,0,0,4.16667,0,7175.19)">
            <g transform="matrix(1,0,0,1,303.254,477.392)">
                <path d="M0,-10.282C-1.674,-10.282 -3.51,-9.523 -4.885,-8.093C-6.119,-6.807 -6.756,-5.083 -6.63,-3.359C-6.539,-2.104 -6.037,-1.036 -5.255,-0.428C-2.984,1.331 0.114,0.967 2.457,-1.336C3.739,-2.595 4.459,-4.244 4.432,-5.857C4.408,-7.184 3.896,-8.374 2.987,-9.207C2.195,-9.932 1.135,-10.282 0,-10.282M-2.055,1.24C-3.308,1.24 -4.532,0.836 -5.596,0.012C-6.503,-0.692 -7.083,-1.906 -7.186,-3.319C-7.323,-5.199 -6.631,-7.08 -5.286,-8.478C-2.773,-11.092 1.187,-11.613 3.363,-9.617C4.386,-8.679 4.963,-7.348 4.988,-5.867C5.019,-4.101 4.238,-2.304 2.848,-0.938C1.382,0.502 -0.362,1.24 -2.055,1.24" style="fill:rgb(35,31,32);fill-rule:nonzero;"/>
            </g>
        </g>
        <g transform="matrix(4.16667,0,0,4.16667,0,7175.19)">
            <g transform="matrix(1,0,0,1,301.092,468.678)">
                <path d="M0,7.697C-2.288,7.794 -2.96,5.914 -3.018,5.117C-3.109,3.858 -2.62,2.541 -1.708,1.592C-0.691,0.535 0.704,-0.097 2.025,-0.097C2.819,-0.097 3.506,0.132 3.958,0.548C4.545,1.085 4.876,1.871 4.892,2.76C4.912,3.943 4.364,5.171 3.39,6.129C2.345,7.155 1.173,7.697 0,7.697" style="fill:rgb(0,167,80);fill-rule:nonzero;"/>
            </g>
        </g>
        <g transform="matrix(4.16667,0,0,4.16667,0,7175.19)">
            <g transform="matrix(1,0,0,1,301.431,469.399)">
                <path d="M0,7.186C-2.136,7.276 -2.763,5.521 -2.816,4.777C-2.902,3.602 -2.445,2.372 -1.594,1.486C-0.646,0.499 0.658,-0.09 1.892,-0.09C2.633,-0.09 3.273,0.124 3.696,0.511C4.243,1.013 4.553,1.747 4.567,2.577C4.586,3.681 4.075,4.828 3.165,5.721C2.19,6.679 1.096,7.186 0,7.186" style="fill:rgb(119,192,67);fill-rule:nonzero;"/>
            </g>
        </g>
        <g transform="matrix(4.16667,0,0,4.16667,0,7175.19)">
            <g transform="matrix(1,0,0,1,303.117,476.099)">
                <path d="M0,-7.239C-1.247,-7.239 -2.568,-6.64 -3.533,-5.636C-4.391,-4.744 -4.852,-3.506 -4.766,-2.325C-4.716,-1.649 -4.138,0.085 -2.038,-0.003L-2.025,-0.003C-0.927,-0.003 0.178,-0.517 1.169,-1.491C2.09,-2.395 2.606,-3.55 2.588,-4.656C2.573,-5.468 2.274,-6.183 1.745,-6.669C1.344,-7.037 0.724,-7.239 0,-7.239M-2.198,0.558C-4.584,0.558 -5.263,-1.479 -5.321,-2.285C-5.418,-3.621 -4.9,-5.018 -3.935,-6.022C-2.866,-7.134 -1.396,-7.797 0,-7.797C0.863,-7.797 1.617,-7.542 2.121,-7.08C2.765,-6.49 3.128,-5.633 3.145,-4.666C3.166,-3.407 2.589,-2.105 1.56,-1.093C0.464,-0.017 -0.774,0.553 -2.02,0.554C-2.08,0.557 -2.14,0.558 -2.198,0.558" style="fill:rgb(35,31,32);fill-rule:nonzero;"/>
            </g>
        </g>
        <g transform="matrix(4.16667,0,0,4.16667,0,7175.19)">
            <g transform="matrix(1,0,0,1,302.497,467.624)">
                <path d="M0,12.649C-1.269,12.649 -2.509,12.239 -3.586,11.404C-4.048,11.045 -5.179,10.083 -5.683,8.894C-5.743,8.753 -5.677,8.589 -5.535,8.529C-5.394,8.469 -5.23,8.535 -5.17,8.676C-4.704,9.774 -3.578,10.705 -3.244,10.964C-0.942,12.749 2.2,12.379 4.576,10.045C6.697,7.961 7.401,4.114 5.066,1.71C4.666,1.297 4.553,1.206 3.672,0.496L3.591,0.429C3.471,0.333 3.452,0.158 3.549,0.038C3.646,-0.081 3.82,-0.1 3.94,-0.004L4.022,0.062C4.906,0.775 5.042,0.884 5.466,1.322C6.543,2.43 7.131,4.026 7.08,5.701C7.027,7.471 6.276,9.155 4.966,10.442C3.481,11.901 1.715,12.649 0,12.649" style="fill:rgb(35,31,32);fill-rule:nonzero;"/>
            </g>
        </g>
        <g transform="matrix(4.16667,0,0,4.16667,0,7175.19)">
            <g transform="matrix(1,0,0,1,325.84,480.597)">
                <path d="M0,-12.76C0.96,-11.986 1.077,-11.895 1.502,-11.457C3.575,-9.322 3.688,-5.364 1.006,-2.73C-1.604,-0.165 -4.874,0 -7.18,-1.788C-7.797,-2.267 -8.758,-3.165 -9.191,-4.187L0,-12.76Z" style="fill:rgb(0,167,80);fill-rule:nonzero;"/>
            </g>
        </g>
        <g transform="matrix(4.16667,0,0,4.16667,0,7175.19)">
            <g transform="matrix(-0.730598,-0.682807,-0.682807,0.730598,315.408,472.968)">
                <path d="M-4.338,-10.881C-7.228,-10.909 -9.765,-8.185 -9.606,-4.479C-9.452,-0.871 -7.206,1.451 -4.338,1.716C-1.885,1.941 0.978,-0.808 0.928,-4.418C0.878,-8.027 -1.676,-10.855 -4.338,-10.881" style="fill:rgb(119,192,67);fill-rule:nonzero;"/>
            </g>
        </g>
        <g transform="matrix(4.16667,0,0,4.16667,0,7175.19)">
            <g transform="matrix(1,0,0,1,322.831,477.392)">
                <path d="M0,-10.282C-1.673,-10.282 -3.509,-9.523 -4.884,-8.093C-6.119,-6.807 -6.755,-5.083 -6.63,-3.359C-6.538,-2.104 -6.036,-1.036 -5.254,-0.428C-2.984,1.331 0.114,0.967 2.458,-1.336C3.74,-2.595 4.46,-4.244 4.432,-5.857C4.409,-7.184 3.896,-8.374 2.987,-9.207C2.196,-9.932 1.135,-10.282 0,-10.282M-2.055,1.24C-3.308,1.24 -4.532,0.836 -5.595,0.012C-6.503,-0.692 -7.082,-1.906 -7.186,-3.319C-7.322,-5.199 -6.63,-7.08 -5.285,-8.478C-2.773,-11.092 1.187,-11.613 3.364,-9.617C4.387,-8.679 4.964,-7.348 4.989,-5.867C5.02,-4.101 4.239,-2.304 2.849,-0.938C1.383,0.502 -0.361,1.24 -2.055,1.24" style="fill:rgb(35,31,32);fill-rule:nonzero;"/>
            </g>
        </g>
        <g transform="matrix(4.16667,0,0,4.16667,0,7175.19)">
            <g transform="matrix(1,0,0,1,320.669,468.678)">
                <path d="M0,7.697C-2.287,7.794 -2.959,5.914 -3.017,5.117C-3.108,3.858 -2.619,2.541 -1.708,1.592C-0.691,0.535 0.705,-0.097 2.025,-0.097C2.819,-0.097 3.506,0.132 3.959,0.548C4.546,1.085 4.877,1.871 4.893,2.76C4.913,3.943 4.365,5.171 3.391,6.129C2.346,7.155 1.174,7.697 0,7.697" style="fill:rgb(0,167,80);fill-rule:nonzero;"/>
            </g>
        </g>
        <g transform="matrix(4.16667,0,0,4.16667,0,7175.19)">
            <g transform="matrix(1,0,0,1,321.01,469.399)">
                <path d="M0,7.186C-2.136,7.276 -2.763,5.521 -2.817,4.777C-2.902,3.602 -2.445,2.372 -1.595,1.486C-0.646,0.499 0.657,-0.09 1.891,-0.09C2.632,-0.09 3.273,0.124 3.695,0.511C4.243,1.013 4.553,1.747 4.566,2.577C4.586,3.681 4.075,4.828 3.165,5.721C2.189,6.679 1.096,7.186 0,7.186" style="fill:rgb(119,192,67);fill-rule:nonzero;"/>
            </g>
        </g>
        <g transform="matrix(4.16667,0,0,4.16667,0,7175.19)">
            <g transform="matrix(1,0,0,1,322.694,476.099)">
                <path d="M0,-7.239C-1.247,-7.239 -2.567,-6.64 -3.532,-5.636C-4.39,-4.744 -4.851,-3.506 -4.765,-2.325C-4.715,-1.649 -4.137,0.085 -2.037,-0.003L-2.025,-0.003C-0.927,-0.003 0.179,-0.517 1.17,-1.491C2.091,-2.395 2.607,-3.55 2.588,-4.656C2.574,-5.468 2.275,-6.183 1.745,-6.669C1.344,-7.037 0.725,-7.239 0,-7.239M-2.197,0.558C-4.584,0.558 -5.262,-1.479 -5.32,-2.285C-5.418,-3.621 -4.899,-5.018 -3.934,-6.022C-2.866,-7.134 -1.396,-7.797 0,-7.797C0.864,-7.797 1.617,-7.542 2.122,-7.08C2.766,-6.49 3.129,-5.633 3.146,-4.666C3.167,-3.407 2.589,-2.105 1.56,-1.093C0.464,-0.017 -0.773,0.553 -2.02,0.554C-2.079,0.557 -2.139,0.558 -2.197,0.558" style="fill:rgb(35,31,32);fill-rule:nonzero;"/>
            </g>
        </g>
        <g transform="matrix(4.16667,0,0,4.16667,0,7175.19)">
            <g transform="matrix(1,0,0,1,322.075,467.624)">
                <path d="M0,12.649C-1.269,12.649 -2.509,12.239 -3.586,11.404C-4.049,11.045 -5.179,10.083 -5.683,8.894C-5.743,8.753 -5.677,8.589 -5.535,8.529C-5.394,8.469 -5.23,8.535 -5.17,8.676C-4.705,9.774 -3.578,10.705 -3.244,10.964C-0.943,12.749 2.199,12.379 4.575,10.045C6.697,7.961 7.4,4.114 5.066,1.71C4.666,1.297 4.553,1.206 3.672,0.496L3.59,0.429C3.471,0.333 3.452,0.158 3.548,0.038C3.645,-0.081 3.82,-0.1 3.939,-0.004L4.021,0.062C4.906,0.775 5.042,0.884 5.466,1.322C6.542,2.43 7.131,4.026 7.08,5.701C7.026,7.471 6.276,9.155 4.966,10.442C3.481,11.901 1.715,12.649 0,12.649" style="fill:rgb(35,31,32);fill-rule:nonzero;"/>
            </g>
        </g>
        <g transform="matrix(4.16667,0,0,4.16667,0,7175.19)">
            <g transform="matrix(1,0,0,1,345.418,480.597)">
                <path d="M0,-12.76C0.96,-11.986 1.076,-11.895 1.501,-11.457C3.575,-9.322 3.688,-5.364 1.006,-2.73C-1.604,-0.165 -4.875,0 -7.18,-1.788C-7.798,-2.267 -8.759,-3.165 -9.191,-4.187L0,-12.76Z" style="fill:rgb(0,167,80);fill-rule:nonzero;"/>
            </g>
        </g>
        <g transform="matrix(4.16667,0,0,4.16667,0,7175.19)">
            <g transform="matrix(-0.730598,-0.682807,-0.682807,0.730598,334.985,472.967)">
                <path d="M-4.339,-10.881C-7.229,-10.909 -9.765,-8.184 -9.607,-4.48C-9.453,-0.871 -7.207,1.451 -4.339,1.716C-1.885,1.942 0.978,-0.807 0.928,-4.418C0.877,-8.028 -1.677,-10.856 -4.339,-10.881" style="fill:rgb(119,192,67);fill-rule:nonzero;"/>
            </g>
        </g>
        <g transform="matrix(4.16667,0,0,4.16667,0,7175.19)">
            <g transform="matrix(1,0,0,1,342.409,477.392)">
                <path d="M0,-10.282C-1.674,-10.282 -3.509,-9.523 -4.884,-8.093C-6.119,-6.807 -6.756,-5.083 -6.63,-3.359C-6.538,-2.104 -6.037,-1.036 -5.254,-0.428C-2.984,1.331 0.114,0.967 2.458,-1.336C3.74,-2.595 4.46,-4.244 4.432,-5.857C4.409,-7.184 3.896,-8.374 2.987,-9.207C2.195,-9.932 1.135,-10.282 0,-10.282M-2.055,1.24C-3.308,1.24 -4.532,0.836 -5.596,0.012C-6.503,-0.692 -7.082,-1.906 -7.186,-3.319C-7.322,-5.199 -6.63,-7.08 -5.285,-8.478C-2.773,-11.092 1.187,-11.613 3.364,-9.617C4.387,-8.679 4.963,-7.348 4.989,-5.867C5.02,-4.101 4.239,-2.304 2.848,-0.938C1.382,0.502 -0.362,1.24 -2.055,1.24" style="fill:rgb(35,31,32);fill-rule:nonzero;"/>
            </g>
        </g>
        <g transform="matrix(4.16667,0,0,4.16667,0,7175.19)">
            <g transform="matrix(1,0,0,1,340.247,468.678)">
                <path d="M0,7.697C-2.287,7.794 -2.959,5.914 -3.018,5.117C-3.109,3.858 -2.619,2.541 -1.708,1.592C-0.691,0.535 0.704,-0.097 2.025,-0.097C2.819,-0.097 3.506,0.132 3.959,0.548C4.545,1.085 4.877,1.871 4.892,2.76C4.912,3.943 4.365,5.171 3.39,6.129C2.346,7.155 1.173,7.697 0,7.697" style="fill:rgb(0,167,80);fill-rule:nonzero;"/>
            </g>
        </g>
        <g transform="matrix(4.16667,0,0,4.16667,0,7175.19)">
            <g transform="matrix(1,0,0,1,340.588,469.399)">
                <path d="M0,7.186C-2.136,7.276 -2.763,5.521 -2.817,4.777C-2.903,3.602 -2.445,2.372 -1.595,1.486C-0.646,0.499 0.657,-0.09 1.891,-0.09C2.632,-0.09 3.272,0.124 3.695,0.511C4.243,1.013 4.553,1.747 4.566,2.577C4.586,3.681 4.074,4.828 3.164,5.721C2.189,6.679 1.095,7.186 0,7.186" style="fill:rgb(119,192,67);fill-rule:nonzero;"/>
            </g>
        </g>
        <g transform="matrix(4.16667,0,0,4.16667,0,7175.19)">
            <g transform="matrix(1,0,0,1,342.272,476.099)">
                <path d="M0,-7.239C-1.247,-7.239 -2.567,-6.64 -3.532,-5.636C-4.391,-4.744 -4.851,-3.506 -4.765,-2.325C-4.716,-1.649 -4.137,0.085 -2.037,-0.003L-2.025,-0.003C-0.927,-0.003 0.179,-0.517 1.17,-1.491C2.09,-2.395 2.607,-3.55 2.588,-4.656C2.574,-5.468 2.274,-6.183 1.745,-6.669C1.344,-7.037 0.725,-7.239 0,-7.239M-2.197,0.558C-4.584,0.558 -5.262,-1.479 -5.32,-2.285C-5.418,-3.621 -4.899,-5.018 -3.934,-6.022C-2.866,-7.134 -1.396,-7.797 0,-7.797C0.864,-7.797 1.617,-7.542 2.122,-7.08C2.765,-6.49 3.128,-5.633 3.145,-4.666C3.167,-3.407 2.589,-2.105 1.56,-1.093C0.464,-0.017 -0.773,0.553 -2.02,0.554C-2.08,0.557 -2.139,0.558 -2.197,0.558" style="fill:rgb(35,31,32);fill-rule:nonzero;"/>
            </g>
        </g>
        <g transform="matrix(4.16667,0,0,4.16667,0,7175.19)">
            <g transform="matrix(1,0,0,1,341.653,467.624)">
                <path d="M0,12.649C-1.27,12.649 -2.51,12.239 -3.586,11.404C-4.049,11.045 -5.18,10.083 -5.684,8.894C-5.743,8.753 -5.678,8.589 -5.536,8.529C-5.394,8.469 -5.23,8.535 -5.171,8.676C-4.705,9.774 -3.579,10.705 -3.245,10.964C-0.943,12.749 2.199,12.379 4.575,10.045C6.697,7.961 7.4,4.114 5.066,1.71C4.665,1.297 4.553,1.206 3.672,0.496L3.59,0.429C3.47,0.333 3.451,0.158 3.548,0.038C3.645,-0.081 3.82,-0.1 3.939,-0.004L4.021,0.062C4.905,0.775 5.041,0.884 5.466,1.322C6.542,2.43 7.131,4.026 7.08,5.701C7.026,7.471 6.275,9.155 4.966,10.442C3.481,11.901 1.714,12.649 0,12.649" style="fill:rgb(35,31,32);fill-rule:nonzero;"/>
            </g>
        </g>
        <g transform="matrix(4.16667,0,0,4.16667,0,7175.19)">
            <g transform="matrix(1,0,0,1,364.996,480.597)">
                <path d="M0,-12.76C0.959,-11.986 1.076,-11.895 1.501,-11.457C3.574,-9.322 3.688,-5.364 1.006,-2.73C-1.604,-0.165 -4.875,0 -7.181,-1.788C-7.798,-2.267 -8.759,-3.165 -9.191,-4.187L0,-12.76Z" style="fill:rgb(0,167,80);fill-rule:nonzero;"/>
            </g>
        </g>
        <g transform="matrix(4.16667,0,0,4.16667,0,7175.19)">
            <g transform="matrix(-0.730598,-0.682807,-0.682807,0.730598,354.562,472.967)">
                <path d="M-4.34,-10.881C-7.229,-10.909 -9.766,-8.185 -9.607,-4.479C-9.453,-0.871 -7.207,1.451 -4.34,1.715C-1.886,1.941 0.977,-0.808 0.927,-4.418C0.876,-8.028 -1.678,-10.856 -4.34,-10.881" style="fill:rgb(119,192,67);fill-rule:nonzero;"/>
            </g>
        </g>
        <g transform="matrix(4.16667,0,0,4.16667,0,7175.19)">
            <g transform="matrix(1,0,0,1,361.987,477.392)">
                <path d="M0,-10.282C-1.674,-10.282 -3.509,-9.523 -4.884,-8.093C-6.119,-6.807 -6.756,-5.083 -6.63,-3.359C-6.539,-2.104 -6.037,-1.036 -5.254,-0.428C-2.984,1.331 0.114,0.967 2.458,-1.336C3.74,-2.595 4.459,-4.244 4.432,-5.857C4.408,-7.184 3.896,-8.374 2.987,-9.207C2.195,-9.932 1.135,-10.282 0,-10.282M-2.055,1.24C-3.308,1.24 -4.532,0.836 -5.596,0.012C-6.503,-0.692 -7.083,-1.906 -7.186,-3.319C-7.322,-5.199 -6.63,-7.08 -5.286,-8.478C-2.773,-11.092 1.187,-11.613 3.363,-9.617C4.386,-8.679 4.963,-7.348 4.988,-5.867C5.019,-4.101 4.238,-2.304 2.848,-0.938C1.382,0.502 -0.362,1.24 -2.055,1.24" style="fill:rgb(35,31,32);fill-rule:nonzero;"/>
            </g>
        </g>
        <g transform="matrix(4.16667,0,0,4.16667,0,7175.19)">
            <g transform="matrix(1,0,0,1,359.825,468.678)">
                <path d="M0,7.697C-2.288,7.794 -2.959,5.914 -3.018,5.117C-3.109,3.858 -2.62,2.541 -1.708,1.592C-0.691,0.535 0.704,-0.097 2.025,-0.097C2.819,-0.097 3.506,0.132 3.959,0.548C4.545,1.085 4.876,1.871 4.892,2.76C4.912,3.943 4.364,5.171 3.39,6.129C2.346,7.155 1.173,7.697 0,7.697" style="fill:rgb(0,167,80);fill-rule:nonzero;"/>
            </g>
        </g>
        <g transform="matrix(4.16667,0,0,4.16667,0,7175.19)">
            <g transform="matrix(1,0,0,1,360.165,469.399)">
                <path d="M0,7.186C-2.136,7.276 -2.763,5.521 -2.816,4.777C-2.902,3.602 -2.445,2.372 -1.594,1.486C-0.646,0.499 0.658,-0.09 1.892,-0.09C2.633,-0.09 3.273,0.124 3.696,0.511C4.244,1.013 4.553,1.747 4.567,2.577C4.587,3.681 4.075,4.828 3.165,5.721C2.19,6.679 1.096,7.186 0,7.186" style="fill:rgb(119,192,67);fill-rule:nonzero;"/>
            </g>
        </g>
        <g transform="matrix(4.16667,0,0,4.16667,0,7175.19)">
            <g transform="matrix(1,0,0,1,361.85,476.099)">
                <path d="M0,-7.239C-1.247,-7.239 -2.567,-6.64 -3.533,-5.636C-4.391,-4.744 -4.852,-3.506 -4.765,-2.325C-4.716,-1.649 -4.137,0.085 -2.037,-0.003L-2.025,-0.003C-0.927,-0.003 0.178,-0.517 1.169,-1.491C2.09,-2.395 2.606,-3.55 2.588,-4.656C2.574,-5.468 2.274,-6.183 1.745,-6.669C1.344,-7.037 0.724,-7.239 0,-7.239M-2.197,0.558C-4.584,0.558 -5.262,-1.479 -5.32,-2.285C-5.418,-3.621 -4.899,-5.018 -3.935,-6.022C-2.866,-7.134 -1.396,-7.797 0,-7.797C0.863,-7.797 1.617,-7.542 2.121,-7.08C2.765,-6.49 3.128,-5.633 3.145,-4.666C3.166,-3.407 2.589,-2.105 1.56,-1.093C0.464,-0.017 -0.773,0.553 -2.02,0.554C-2.08,0.557 -2.14,0.558 -2.197,0.558" style="fill:rgb(35,31,32);fill-rule:nonzero;"/>
            </g>
        </g>
        <g transform="matrix(4.16667,0,0,4.16667,0,7175.19)">
            <g transform="matrix(1,0,0,1,361.231,467.624)">
                <path d="M0,12.649C-1.27,12.649 -2.51,12.239 -3.586,11.404C-4.049,11.045 -5.18,10.083 -5.684,8.894C-5.743,8.753 -5.678,8.589 -5.536,8.529C-5.395,8.469 -5.23,8.535 -5.171,8.676C-4.705,9.774 -3.579,10.705 -3.245,10.964C-0.943,12.749 2.199,12.379 4.575,10.045C6.696,7.961 7.4,4.114 5.065,1.71C4.665,1.297 4.552,1.206 3.672,0.496L3.59,0.429C3.47,0.333 3.451,0.158 3.548,0.038C3.645,-0.081 3.819,-0.1 3.939,-0.004L4.021,0.062C4.905,0.775 5.041,0.884 5.466,1.322C6.542,2.43 7.13,4.026 7.08,5.701C7.026,7.471 6.275,9.155 4.966,10.442C3.48,11.901 1.714,12.649 0,12.649" style="fill:rgb(35,31,32);fill-rule:nonzero;"/>
            </g>
        </g>
        <g transform="matrix(4.16667,0,0,4.16667,0,7175.19)">
            <g transform="matrix(1,0,0,1,295.43,494.542)">
                <path d="M0,-12.759C0.959,-11.985 1.076,-11.894 1.501,-11.456C3.574,-9.321 3.688,-5.363 1.006,-2.729C-1.604,-0.164 -4.875,0 -7.181,-1.787C-7.798,-2.266 -8.759,-3.164 -9.192,-4.186L0,-12.759Z" style="fill:rgb(0,167,80);fill-rule:nonzero;"/>
            </g>
        </g>
        <g transform="matrix(4.16667,0,0,4.16667,0,7175.19)">
            <g transform="matrix(-0.730638,-0.682765,-0.682765,0.730638,284.998,486.913)">
                <path d="M-4.339,-10.88C-7.229,-10.908 -9.765,-8.184 -9.607,-4.478C-9.453,-0.87 -7.205,1.452 -4.339,1.716C-1.885,1.942 0.978,-0.807 0.928,-4.417C0.877,-8.028 -1.678,-10.855 -4.339,-10.88" style="fill:rgb(119,192,67);fill-rule:nonzero;"/>
            </g>
        </g>
        <g transform="matrix(4.16667,0,0,4.16667,0,7175.19)">
            <g transform="matrix(1,0,0,1,292.422,491.339)">
                <path d="M0,-10.282C-1.674,-10.282 -3.51,-9.523 -4.885,-8.093C-6.119,-6.807 -6.756,-5.083 -6.63,-3.359C-6.539,-2.104 -6.037,-1.036 -5.254,-0.428C-2.984,1.331 0.114,0.967 2.457,-1.336C3.74,-2.595 4.459,-4.244 4.432,-5.857C4.408,-7.184 3.896,-8.374 2.987,-9.207C2.195,-9.932 1.135,-10.282 0,-10.282M-2.055,1.24C-3.308,1.24 -4.532,0.836 -5.596,0.011C-6.503,-0.692 -7.083,-1.906 -7.186,-3.319C-7.323,-5.199 -6.63,-7.08 -5.286,-8.478C-2.773,-11.092 1.187,-11.613 3.363,-9.617C4.386,-8.679 4.963,-7.348 4.988,-5.867C5.019,-4.101 4.238,-2.304 2.848,-0.938C1.382,0.502 -0.362,1.24 -2.055,1.24" style="fill:rgb(35,31,32);fill-rule:nonzero;"/>
            </g>
        </g>
        <g transform="matrix(4.16667,0,0,4.16667,0,7175.19)">
            <g transform="matrix(1,0,0,1,290.26,482.624)">
                <path d="M0,7.697C-2.288,7.794 -2.96,5.914 -3.018,5.117C-3.109,3.858 -2.62,2.541 -1.708,1.592C-0.691,0.535 0.704,-0.097 2.025,-0.097C2.819,-0.097 3.506,0.132 3.959,0.548C4.545,1.085 4.876,1.871 4.892,2.76C4.912,3.943 4.364,5.171 3.39,6.129C2.346,7.155 1.173,7.697 0,7.697" style="fill:rgb(0,167,80);fill-rule:nonzero;"/>
            </g>
        </g>
        <g transform="matrix(4.16667,0,0,4.16667,0,7175.19)">
            <g transform="matrix(1,0,0,1,290.599,483.345)">
                <path d="M0,7.186C-2.136,7.276 -2.763,5.521 -2.816,4.777C-2.902,3.602 -2.445,2.372 -1.594,1.486C-0.646,0.499 0.658,-0.09 1.892,-0.09C2.633,-0.09 3.273,0.124 3.696,0.51C4.243,1.012 4.553,1.747 4.567,2.577C4.586,3.681 4.075,4.828 3.165,5.721C2.19,6.679 1.096,7.186 0,7.186" style="fill:rgb(119,192,67);fill-rule:nonzero;"/>
            </g>
        </g>
        <g transform="matrix(4.16667,0,0,4.16667,0,7175.19)">
            <g transform="matrix(1,0,0,1,292.285,490.046)">
                <path d="M0,-7.239C-1.247,-7.239 -2.567,-6.64 -3.533,-5.636C-4.391,-4.744 -4.852,-3.506 -4.766,-2.325C-4.716,-1.649 -4.138,0.085 -2.037,-0.003L-2.025,-0.003C-0.927,-0.003 0.178,-0.517 1.169,-1.492C2.09,-2.396 2.606,-3.55 2.588,-4.656C2.574,-5.468 2.274,-6.183 1.745,-6.669C1.344,-7.037 0.724,-7.239 0,-7.239M-2.197,0.558C-4.584,0.558 -5.263,-1.479 -5.321,-2.285C-5.418,-3.621 -4.9,-5.018 -3.935,-6.022C-2.866,-7.134 -1.396,-7.797 0,-7.797C0.863,-7.797 1.617,-7.542 2.121,-7.08C2.765,-6.49 3.128,-5.633 3.145,-4.666C3.166,-3.407 2.589,-2.105 1.56,-1.093C0.464,-0.017 -0.774,0.552 -2.02,0.554C-2.08,0.557 -2.14,0.558 -2.197,0.558" style="fill:rgb(35,31,32);fill-rule:nonzero;"/>
            </g>
        </g>
        <g transform="matrix(4.16667,0,0,4.16667,0,7175.19)">
            <g transform="matrix(1,0,0,1,291.665,481.57)">
                <path d="M0,12.65C-1.269,12.65 -2.509,12.24 -3.585,11.405C-4.048,11.046 -5.179,10.084 -5.683,8.895C-5.743,8.754 -5.677,8.59 -5.535,8.53C-5.394,8.47 -5.229,8.536 -5.17,8.677C-4.704,9.775 -3.578,10.706 -3.244,10.964C-0.942,12.75 2.2,12.38 4.576,10.046C6.697,7.961 7.401,4.115 5.066,1.711C4.666,1.298 4.553,1.207 3.673,0.497L3.591,0.43C3.471,0.334 3.452,0.159 3.549,0.039C3.646,-0.081 3.82,-0.1 3.94,-0.003L4.022,0.063C4.906,0.776 5.042,0.885 5.467,1.323C6.543,2.431 7.131,4.027 7.08,5.702C7.027,7.472 6.276,9.156 4.966,10.443C3.481,11.902 1.715,12.65 0,12.65" style="fill:rgb(35,31,32);fill-rule:nonzero;"/>
            </g>
        </g>
        <g transform="matrix(4.16667,0,0,4.16667,0,7175.19)">
            <g transform="matrix(1,0,0,1,315.008,494.542)">
                <path d="M0,-12.759C0.96,-11.985 1.077,-11.894 1.502,-11.456C3.575,-9.321 3.688,-5.363 1.006,-2.729C-1.604,-0.164 -4.874,0 -7.18,-1.787C-7.797,-2.266 -8.758,-3.164 -9.191,-4.186L0,-12.759Z" style="fill:rgb(0,167,80);fill-rule:nonzero;"/>
            </g>
        </g>
        <g transform="matrix(4.16667,0,0,4.16667,0,7175.19)">
            <g transform="matrix(-0.730638,-0.682765,-0.682765,0.730638,304.576,486.913)">
                <path d="M-4.339,-10.88C-7.229,-10.908 -9.765,-8.184 -9.607,-4.478C-9.453,-0.87 -7.205,1.452 -4.339,1.716C-1.885,1.942 0.978,-0.807 0.928,-4.417C0.877,-8.028 -1.677,-10.855 -4.339,-10.88" style="fill:rgb(119,192,67);fill-rule:nonzero;"/>
            </g>
        </g>
        <g transform="matrix(4.16667,0,0,4.16667,0,7175.19)">
            <g transform="matrix(1,0,0,1,311.999,491.339)">
                <path d="M0,-10.282C-1.673,-10.282 -3.509,-9.523 -4.884,-8.093C-6.119,-6.807 -6.755,-5.083 -6.63,-3.359C-6.538,-2.104 -6.036,-1.036 -5.254,-0.428C-2.984,1.331 0.115,0.967 2.458,-1.336C3.74,-2.595 4.46,-4.244 4.432,-5.857C4.409,-7.184 3.896,-8.374 2.987,-9.207C2.196,-9.932 1.136,-10.282 0,-10.282M-2.055,1.24C-3.307,1.24 -4.532,0.836 -5.595,0.011C-6.503,-0.692 -7.082,-1.906 -7.185,-3.319C-7.322,-5.199 -6.63,-7.08 -5.285,-8.478C-2.773,-11.092 1.187,-11.613 3.364,-9.617C4.387,-8.679 4.964,-7.348 4.989,-5.867C5.02,-4.101 4.239,-2.304 2.849,-0.938C1.383,0.502 -0.361,1.24 -2.055,1.24" style="fill:rgb(35,31,32);fill-rule:nonzero;"/>
            </g>
        </g>
        <g transform="matrix(4.16667,0,0,4.16667,0,7175.19)">
            <g transform="matrix(1,0,0,1,309.837,482.624)">
                <path d="M0,7.697C-2.287,7.794 -2.959,5.914 -3.017,5.117C-3.108,3.858 -2.619,2.541 -1.707,1.592C-0.691,0.535 0.705,-0.097 2.026,-0.097C2.82,-0.097 3.507,0.132 3.959,0.548C4.546,1.085 4.877,1.871 4.893,2.76C4.913,3.943 4.365,5.171 3.391,6.129C2.346,7.155 1.174,7.697 0,7.697" style="fill:rgb(0,167,80);fill-rule:nonzero;"/>
            </g>
        </g>
        <g transform="matrix(4.16667,0,0,4.16667,0,7175.19)">
            <g transform="matrix(1,0,0,1,310.178,483.345)">
                <path d="M0,7.186C-2.136,7.276 -2.763,5.521 -2.816,4.777C-2.902,3.602 -2.445,2.372 -1.595,1.486C-0.646,0.499 0.657,-0.09 1.891,-0.09C2.632,-0.09 3.273,0.124 3.696,0.51C4.243,1.012 4.553,1.747 4.567,2.577C4.586,3.681 4.075,4.828 3.165,5.721C2.189,6.679 1.096,7.186 0,7.186" style="fill:rgb(119,192,67);fill-rule:nonzero;"/>
            </g>
        </g>
        <g transform="matrix(4.16667,0,0,4.16667,0,7175.19)">
            <g transform="matrix(1,0,0,1,311.863,490.046)">
                <path d="M0,-7.239C-1.247,-7.239 -2.568,-6.64 -3.533,-5.636C-4.391,-4.744 -4.852,-3.506 -4.766,-2.325C-4.716,-1.649 -4.138,0.085 -2.038,-0.003L-2.026,-0.003C-0.928,-0.003 0.178,-0.517 1.169,-1.492C2.09,-2.396 2.606,-3.55 2.587,-4.656C2.573,-5.468 2.274,-6.183 1.744,-6.669C1.344,-7.037 0.724,-7.239 0,-7.239M-2.198,0.558C-4.585,0.558 -5.263,-1.479 -5.321,-2.285C-5.419,-3.621 -4.9,-5.018 -3.935,-6.022C-2.866,-7.134 -1.396,-7.797 0,-7.797C0.863,-7.797 1.617,-7.542 2.121,-7.08C2.765,-6.49 3.128,-5.633 3.145,-4.666C3.166,-3.407 2.588,-2.105 1.559,-1.093C0.464,-0.017 -0.774,0.552 -2.021,0.554C-2.08,0.557 -2.14,0.558 -2.198,0.558" style="fill:rgb(35,31,32);fill-rule:nonzero;"/>
            </g>
        </g>
        <g transform="matrix(4.16667,0,0,4.16667,0,7175.19)">
            <g transform="matrix(1,0,0,1,311.243,481.57)">
                <path d="M0,12.65C-1.269,12.65 -2.509,12.24 -3.586,11.405C-4.049,11.046 -5.179,10.084 -5.683,8.895C-5.743,8.754 -5.677,8.59 -5.535,8.53C-5.394,8.47 -5.23,8.536 -5.17,8.677C-4.705,9.775 -3.578,10.706 -3.244,10.964C-0.943,12.75 2.199,12.38 4.576,10.046C6.697,7.961 7.4,4.115 5.066,1.711C4.666,1.298 4.553,1.207 3.672,0.497L3.591,0.43C3.471,0.334 3.452,0.159 3.548,0.039C3.646,-0.081 3.82,-0.1 3.94,-0.003L4.021,0.063C4.906,0.776 5.042,0.885 5.466,1.323C6.542,2.431 7.131,4.027 7.08,5.702C7.026,7.472 6.276,9.156 4.966,10.443C3.481,11.902 1.715,12.65 0,12.65" style="fill:rgb(35,31,32);fill-rule:nonzero;"/>
            </g>
        </g>
        <g transform="matrix(4.16667,0,0,4.16667,0,7175.19)">
            <g transform="matrix(1,0,0,1,334.586,494.542)">
                <path d="M0,-12.759C0.96,-11.985 1.076,-11.894 1.501,-11.456C3.575,-9.321 3.688,-5.363 1.006,-2.729C-1.604,-0.164 -4.875,0 -7.18,-1.787C-7.797,-2.266 -8.758,-3.164 -9.191,-4.186L0,-12.759Z" style="fill:rgb(0,167,80);fill-rule:nonzero;"/>
            </g>
        </g>
        <g transform="matrix(4.16667,0,0,4.16667,0,7175.19)">
            <g transform="matrix(-0.730598,-0.682807,-0.682807,0.730598,324.153,486.913)">
                <path d="M-4.339,-10.88C-7.23,-10.908 -9.765,-8.184 -9.607,-4.479C-9.454,-0.871 -7.207,1.451 -4.339,1.716C-1.886,1.942 0.978,-0.807 0.927,-4.417C0.877,-8.027 -1.677,-10.855 -4.339,-10.88" style="fill:rgb(119,192,67);fill-rule:nonzero;"/>
            </g>
        </g>
        <g transform="matrix(4.16667,0,0,4.16667,0,7175.19)">
            <g transform="matrix(1,0,0,1,331.577,491.339)">
                <path d="M0,-10.282C-1.674,-10.282 -3.509,-9.523 -4.884,-8.093C-6.119,-6.807 -6.755,-5.083 -6.63,-3.359C-6.538,-2.104 -6.037,-1.036 -5.254,-0.428C-2.984,1.331 0.114,0.967 2.458,-1.336C3.74,-2.595 4.46,-4.244 4.432,-5.857C4.409,-7.184 3.896,-8.374 2.987,-9.207C2.195,-9.932 1.135,-10.282 0,-10.282M-2.055,1.24C-3.308,1.24 -4.532,0.836 -5.595,0.011C-6.503,-0.692 -7.082,-1.906 -7.186,-3.319C-7.322,-5.199 -6.63,-7.08 -5.285,-8.478C-2.773,-11.092 1.187,-11.613 3.364,-9.617C4.387,-8.679 4.963,-7.348 4.989,-5.867C5.02,-4.101 4.239,-2.304 2.849,-0.938C1.382,0.502 -0.362,1.24 -2.055,1.24" style="fill:rgb(35,31,32);fill-rule:nonzero;"/>
            </g>
        </g>
        <g transform="matrix(4.16667,0,0,4.16667,0,7175.19)">
            <g transform="matrix(1,0,0,1,329.415,482.624)">
                <path d="M0,7.697C-2.287,7.794 -2.959,5.914 -3.018,5.117C-3.109,3.858 -2.619,2.541 -1.708,1.592C-0.691,0.535 0.704,-0.097 2.025,-0.097C2.819,-0.097 3.506,0.132 3.959,0.548C4.546,1.085 4.877,1.871 4.892,2.76C4.912,3.943 4.365,5.171 3.39,6.129C2.346,7.155 1.174,7.697 0,7.697" style="fill:rgb(0,167,80);fill-rule:nonzero;"/>
            </g>
        </g>
        <g transform="matrix(4.16667,0,0,4.16667,0,7175.19)">
            <g transform="matrix(1,0,0,1,329.756,483.345)">
                <path d="M0,7.186C-2.136,7.276 -2.763,5.521 -2.817,4.777C-2.902,3.602 -2.445,2.372 -1.595,1.486C-0.646,0.499 0.657,-0.09 1.891,-0.09C2.632,-0.09 3.272,0.124 3.695,0.51C4.243,1.012 4.553,1.747 4.566,2.577C4.586,3.681 4.074,4.828 3.165,5.721C2.189,6.679 1.095,7.186 0,7.186" style="fill:rgb(119,192,67);fill-rule:nonzero;"/>
            </g>
        </g>
        <g transform="matrix(4.16667,0,0,4.16667,0,7175.19)">
            <g transform="matrix(1,0,0,1,331.44,490.046)">
                <path d="M0,-7.239C-1.247,-7.239 -2.567,-6.64 -3.532,-5.636C-4.39,-4.744 -4.851,-3.506 -4.765,-2.325C-4.716,-1.649 -4.137,0.085 -2.037,-0.003L-2.025,-0.003C-0.927,-0.003 0.179,-0.517 1.17,-1.492C2.09,-2.396 2.607,-3.55 2.588,-4.656C2.574,-5.468 2.274,-6.183 1.745,-6.669C1.344,-7.037 0.725,-7.239 0,-7.239M-2.197,0.558C-4.584,0.558 -5.262,-1.479 -5.32,-2.285C-5.418,-3.621 -4.899,-5.018 -3.934,-6.022C-2.866,-7.134 -1.396,-7.797 0,-7.797C0.864,-7.797 1.617,-7.542 2.122,-7.08C2.766,-6.49 3.128,-5.633 3.146,-4.666C3.167,-3.407 2.589,-2.105 1.56,-1.093C0.464,-0.017 -0.773,0.552 -2.02,0.554C-2.079,0.557 -2.139,0.558 -2.197,0.558" style="fill:rgb(35,31,32);fill-rule:nonzero;"/>
            </g>
        </g>
        <g transform="matrix(4.16667,0,0,4.16667,0,7175.19)">
            <g transform="matrix(1,0,0,1,330.821,481.57)">
                <path d="M0,12.65C-1.27,12.65 -2.509,12.24 -3.586,11.405C-4.049,11.046 -5.18,10.084 -5.684,8.895C-5.743,8.754 -5.677,8.59 -5.535,8.53C-5.394,8.47 -5.23,8.536 -5.17,8.677C-4.705,9.775 -3.578,10.706 -3.244,10.964C-0.943,12.75 2.199,12.38 4.575,10.046C6.697,7.961 7.4,4.115 5.066,1.711C4.665,1.298 4.553,1.207 3.672,0.497L3.59,0.43C3.471,0.334 3.451,0.159 3.548,0.039C3.645,-0.081 3.82,-0.1 3.939,-0.003L4.021,0.063C4.905,0.776 5.042,0.885 5.466,1.323C6.542,2.431 7.131,4.027 7.08,5.702C7.026,7.472 6.275,9.156 4.966,10.443C3.481,11.902 1.715,12.65 0,12.65" style="fill:rgb(35,31,32);fill-rule:nonzero;"/>
            </g>
        </g>
        <g transform="matrix(4.16667,0,0,4.16667,0,7175.19)">
            <g transform="matrix(1,0,0,1,354.164,494.542)">
                <path d="M0,-12.759C0.959,-11.985 1.076,-11.894 1.501,-11.456C3.575,-9.321 3.688,-5.363 1.006,-2.729C-1.604,-0.164 -4.875,0 -7.18,-1.787C-7.798,-2.266 -8.759,-3.164 -9.191,-4.186L0,-12.759Z" style="fill:rgb(0,167,80);fill-rule:nonzero;"/>
            </g>
        </g>
        <g transform="matrix(4.16667,0,0,4.16667,0,7175.19)">
            <g transform="matrix(-0.730598,-0.682807,-0.682807,0.730598,343.731,486.912)">
                <path d="M-4.34,-10.88C-7.23,-10.908 -9.766,-8.184 -9.608,-4.479C-9.454,-0.871 -7.207,1.452 -4.34,1.716C-1.887,1.942 0.977,-0.807 0.926,-4.417C0.876,-8.027 -1.678,-10.855 -4.34,-10.88" style="fill:rgb(119,192,67);fill-rule:nonzero;"/>
            </g>
        </g>
        <g transform="matrix(4.16667,0,0,4.16667,0,7175.19)">
            <g transform="matrix(1,0,0,1,351.155,491.339)">
                <path d="M0,-10.282C-1.674,-10.282 -3.509,-9.523 -4.884,-8.093C-6.119,-6.807 -6.756,-5.083 -6.63,-3.359C-6.538,-2.104 -6.037,-1.036 -5.254,-0.428C-2.984,1.331 0.114,0.967 2.458,-1.336C3.74,-2.595 4.459,-4.244 4.432,-5.857C4.409,-7.184 3.896,-8.374 2.987,-9.207C2.195,-9.932 1.135,-10.282 0,-10.282M-2.055,1.24C-3.308,1.24 -4.532,0.836 -5.596,0.011C-6.503,-0.692 -7.082,-1.906 -7.186,-3.319C-7.322,-5.199 -6.63,-7.08 -5.285,-8.478C-2.773,-11.092 1.187,-11.613 3.363,-9.617C4.386,-8.679 4.963,-7.348 4.988,-5.867C5.019,-4.101 4.239,-2.304 2.848,-0.938C1.382,0.502 -0.362,1.24 -2.055,1.24" style="fill:rgb(35,31,32);fill-rule:nonzero;"/>
            </g>
        </g>
        <g transform="matrix(4.16667,0,0,4.16667,0,7175.19)">
            <g transform="matrix(1,0,0,1,348.993,482.624)">
                <path d="M0,7.697C-2.288,7.794 -2.959,5.914 -3.018,5.117C-3.109,3.858 -2.619,2.541 -1.708,1.592C-0.691,0.535 0.704,-0.097 2.025,-0.097C2.819,-0.097 3.506,0.132 3.959,0.548C4.545,1.085 4.877,1.871 4.892,2.76C4.912,3.943 4.365,5.171 3.39,6.129C2.346,7.155 1.173,7.697 0,7.697" style="fill:rgb(0,167,80);fill-rule:nonzero;"/>
            </g>
        </g>
        <g transform="matrix(4.16667,0,0,4.16667,0,7175.19)">
            <g transform="matrix(1,0,0,1,349.334,483.345)">
                <path d="M0,7.186C-2.136,7.276 -2.763,5.521 -2.817,4.777C-2.903,3.602 -2.446,2.372 -1.595,1.486C-0.646,0.499 0.657,-0.09 1.891,-0.09C2.632,-0.09 3.272,0.124 3.695,0.51C4.243,1.012 4.552,1.747 4.566,2.577C4.586,3.681 4.074,4.828 3.164,5.721C2.189,6.679 1.095,7.186 0,7.186" style="fill:rgb(119,192,67);fill-rule:nonzero;"/>
            </g>
        </g>
        <g transform="matrix(4.16667,0,0,4.16667,0,7175.19)">
            <g transform="matrix(1,0,0,1,351.018,490.046)">
                <path d="M0,-7.239C-1.247,-7.239 -2.567,-6.64 -3.532,-5.636C-4.391,-4.744 -4.852,-3.506 -4.765,-2.325C-4.716,-1.649 -4.137,0.085 -2.037,-0.003L-2.025,-0.003C-0.927,-0.003 0.178,-0.517 1.169,-1.492C2.09,-2.396 2.607,-3.55 2.588,-4.656C2.574,-5.468 2.274,-6.183 1.745,-6.669C1.344,-7.037 0.725,-7.239 0,-7.239M-2.197,0.558C-4.584,0.558 -5.262,-1.479 -5.32,-2.285C-5.418,-3.621 -4.899,-5.018 -3.935,-6.022C-2.866,-7.134 -1.396,-7.797 0,-7.797C0.863,-7.797 1.617,-7.542 2.121,-7.08C2.765,-6.49 3.128,-5.633 3.145,-4.666C3.167,-3.407 2.589,-2.105 1.56,-1.093C0.464,-0.017 -0.773,0.552 -2.02,0.554C-2.08,0.557 -2.14,0.558 -2.197,0.558" style="fill:rgb(35,31,32);fill-rule:nonzero;"/>
            </g>
        </g>
        <g transform="matrix(4.16667,0,0,4.16667,0,7175.19)">
            <g transform="matrix(1,0,0,1,350.399,481.57)">
                <path d="M0,12.65C-1.27,12.65 -2.51,12.24 -3.586,11.405C-4.049,11.046 -5.18,10.084 -5.684,8.895C-5.743,8.754 -5.678,8.59 -5.536,8.53C-5.394,8.47 -5.23,8.536 -5.171,8.677C-4.705,9.775 -3.579,10.706 -3.245,10.964C-0.943,12.75 2.199,12.38 4.575,10.046C6.696,7.961 7.4,4.115 5.066,1.711C4.665,1.298 4.552,1.207 3.672,0.497L3.59,0.43C3.47,0.334 3.451,0.159 3.548,0.039C3.645,-0.081 3.819,-0.1 3.939,-0.003L4.021,0.063C4.905,0.776 5.041,0.885 5.466,1.323C6.542,2.431 7.13,4.027 7.08,5.702C7.026,7.472 6.275,9.156 4.966,10.443C3.48,11.902 1.714,12.65 0,12.65" style="fill:rgb(35,31,32);fill-rule:nonzero;"/>
            </g>
        </g>
        <g transform="matrix(4.16667,0,0,4.16667,0,7175.19)">
            <g transform="matrix(1,0,0,1,397.835,480.597)">
                <path d="M0,-12.76C0.96,-11.986 1.076,-11.895 1.501,-11.457C3.575,-9.322 3.688,-5.364 1.006,-2.73C-1.604,-0.165 -4.875,0 -7.18,-1.788C-7.797,-2.267 -8.758,-3.165 -9.191,-4.187L0,-12.76Z" style="fill:rgb(0,148,216);fill-rule:nonzero;"/>
            </g>
        </g>
        <g transform="matrix(4.16667,0,0,4.16667,0,7175.19)">
            <g transform="matrix(-0.730598,-0.682807,-0.682807,0.730598,387.402,472.967)">
                <path d="M-4.339,-10.881C-7.229,-10.909 -9.765,-8.184 -9.607,-4.48C-9.453,-0.871 -7.207,1.451 -4.339,1.716C-1.886,1.941 0.978,-0.807 0.928,-4.418C0.877,-8.028 -1.677,-10.856 -4.339,-10.881" style="fill:rgb(14,194,243);fill-rule:nonzero;"/>
            </g>
        </g>
        <g transform="matrix(4.16667,0,0,4.16667,0,7175.19)">
            <g transform="matrix(1,0,0,1,394.826,477.392)">
                <path d="M0,-10.282C-1.674,-10.282 -3.509,-9.523 -4.884,-8.093C-6.119,-6.807 -6.755,-5.083 -6.63,-3.359C-6.538,-2.104 -6.037,-1.036 -5.254,-0.428C-2.984,1.331 0.114,0.967 2.458,-1.336C3.74,-2.595 4.46,-4.244 4.432,-5.857C4.409,-7.184 3.896,-8.374 2.987,-9.207C2.195,-9.932 1.135,-10.282 0,-10.282M-2.055,1.24C-3.308,1.24 -4.532,0.836 -5.595,0.012C-6.503,-0.692 -7.082,-1.906 -7.186,-3.319C-7.322,-5.199 -6.63,-7.08 -5.285,-8.478C-2.773,-11.092 1.187,-11.613 3.364,-9.617C4.387,-8.679 4.963,-7.348 4.989,-5.867C5.02,-4.101 4.239,-2.304 2.849,-0.938C1.382,0.502 -0.362,1.24 -2.055,1.24" style="fill:rgb(35,31,32);fill-rule:nonzero;"/>
            </g>
        </g>
        <g transform="matrix(4.16667,0,0,4.16667,0,7175.19)">
            <g transform="matrix(1,0,0,1,392.664,468.678)">
                <path d="M0,7.697C-2.287,7.794 -2.959,5.914 -3.018,5.117C-3.109,3.858 -2.619,2.541 -1.708,1.592C-0.691,0.535 0.704,-0.097 2.025,-0.097C2.819,-0.097 3.506,0.132 3.959,0.548C4.546,1.085 4.877,1.871 4.892,2.76C4.912,3.943 4.365,5.171 3.39,6.129C2.346,7.155 1.174,7.697 0,7.697" style="fill:rgb(0,148,216);fill-rule:nonzero;"/>
            </g>
        </g>
        <g transform="matrix(4.16667,0,0,4.16667,0,7175.19)">
            <g transform="matrix(1,0,0,1,393.005,469.399)">
                <path d="M0,7.186C-2.136,7.276 -2.763,5.521 -2.817,4.777C-2.902,3.602 -2.445,2.372 -1.595,1.486C-0.646,0.499 0.657,-0.09 1.891,-0.09C2.632,-0.09 3.272,0.124 3.695,0.511C4.243,1.013 4.553,1.747 4.566,2.577C4.586,3.681 4.074,4.828 3.165,5.721C2.189,6.679 1.095,7.186 0,7.186" style="fill:rgb(14,194,243);fill-rule:nonzero;"/>
            </g>
        </g>
        <g transform="matrix(4.16667,0,0,4.16667,0,7175.19)">
            <g transform="matrix(1,0,0,1,394.689,476.099)">
                <path d="M0,-7.239C-1.247,-7.239 -2.567,-6.64 -3.532,-5.636C-4.39,-4.744 -4.851,-3.506 -4.765,-2.325C-4.716,-1.649 -4.137,0.085 -2.037,-0.003L-2.025,-0.003C-0.927,-0.003 0.179,-0.517 1.17,-1.491C2.09,-2.395 2.607,-3.55 2.588,-4.656C2.574,-5.468 2.274,-6.183 1.745,-6.669C1.344,-7.037 0.725,-7.239 0,-7.239M-2.197,0.558C-4.584,0.558 -5.262,-1.479 -5.32,-2.285C-5.418,-3.621 -4.899,-5.018 -3.934,-6.022C-2.866,-7.134 -1.396,-7.797 0,-7.797C0.864,-7.797 1.617,-7.542 2.122,-7.08C2.766,-6.49 3.128,-5.633 3.146,-4.666C3.167,-3.407 2.589,-2.105 1.56,-1.093C0.464,-0.017 -0.773,0.553 -2.02,0.554C-2.079,0.557 -2.139,0.558 -2.197,0.558" style="fill:rgb(35,31,32);fill-rule:nonzero;"/>
            </g>
        </g>
        <g transform="matrix(4.16667,0,0,4.16667,0,7175.19)">
            <g transform="matrix(1,0,0,1,394.07,467.624)">
                <path d="M0,12.649C-1.27,12.649 -2.509,12.239 -3.586,11.404C-4.049,11.045 -5.18,10.083 -5.684,8.894C-5.743,8.753 -5.677,8.589 -5.535,8.529C-5.394,8.469 -5.23,8.535 -5.17,8.676C-4.705,9.774 -3.578,10.705 -3.244,10.964C-0.943,12.749 2.199,12.379 4.575,10.045C6.697,7.961 7.4,4.114 5.066,1.71C4.665,1.297 4.553,1.206 3.672,0.496L3.59,0.429C3.471,0.333 3.451,0.158 3.548,0.038C3.645,-0.081 3.82,-0.1 3.939,-0.004L4.021,0.062C4.905,0.775 5.042,0.884 5.466,1.322C6.542,2.43 7.131,4.026 7.08,5.701C7.026,7.471 6.275,9.155 4.966,10.442C3.481,11.901 1.715,12.649 0,12.649" style="fill:rgb(35,31,32);fill-rule:nonzero;"/>
            </g>
        </g>
        <g transform="matrix(4.16667,0,0,4.16667,0,7175.19)">
            <g transform="matrix(1,0,0,1,420.318,480.597)">
                <path d="M0,-12.76C0.96,-11.986 1.077,-11.895 1.502,-11.457C3.575,-9.322 3.688,-5.364 1.006,-2.73C-1.604,-0.165 -4.874,0 -7.18,-1.788C-7.797,-2.267 -8.758,-3.165 -9.191,-4.187L0,-12.76Z" style="fill:rgb(0,148,216);fill-rule:nonzero;"/>
            </g>
        </g>
        <g transform="matrix(4.16667,0,0,4.16667,0,7175.19)">
            <g transform="matrix(-0.730638,-0.682765,-0.682765,0.730638,409.886,472.968)">
                <path d="M-4.338,-10.881C-7.229,-10.909 -9.765,-8.184 -9.606,-4.479C-9.452,-0.871 -7.206,1.452 -4.338,1.715C-1.885,1.941 0.979,-0.808 0.928,-4.418C0.877,-8.028 -1.677,-10.855 -4.338,-10.881" style="fill:rgb(14,194,243);fill-rule:nonzero;"/>
            </g>
        </g>
        <g transform="matrix(4.16667,0,0,4.16667,0,7175.19)">
            <g transform="matrix(1,0,0,1,417.309,477.392)">
                <path d="M0,-10.282C-1.673,-10.282 -3.509,-9.523 -4.884,-8.093C-6.119,-6.807 -6.755,-5.083 -6.63,-3.359C-6.538,-2.104 -6.036,-1.036 -5.254,-0.428C-2.984,1.331 0.114,0.967 2.458,-1.336C3.74,-2.595 4.46,-4.244 4.432,-5.857C4.409,-7.184 3.896,-8.374 2.987,-9.207C2.196,-9.932 1.136,-10.282 0,-10.282M-2.055,1.24C-3.308,1.24 -4.532,0.836 -5.595,0.012C-6.503,-0.692 -7.082,-1.906 -7.186,-3.319C-7.322,-5.199 -6.63,-7.08 -5.285,-8.478C-2.773,-11.092 1.187,-11.613 3.364,-9.617C4.387,-8.679 4.964,-7.348 4.989,-5.867C5.02,-4.101 4.239,-2.304 2.849,-0.938C1.383,0.502 -0.361,1.24 -2.055,1.24" style="fill:rgb(35,31,32);fill-rule:nonzero;"/>
            </g>
        </g>
        <g transform="matrix(4.16667,0,0,4.16667,0,7175.19)">
            <g transform="matrix(1,0,0,1,415.147,468.678)">
                <path d="M0,7.697C-2.287,7.794 -2.959,5.914 -3.017,5.117C-3.108,3.858 -2.619,2.541 -1.707,1.592C-0.691,0.535 0.705,-0.097 2.026,-0.097C2.819,-0.097 3.507,0.132 3.959,0.548C4.546,1.085 4.877,1.871 4.893,2.76C4.913,3.943 4.365,5.171 3.391,6.129C2.346,7.155 1.174,7.697 0,7.697" style="fill:rgb(0,148,216);fill-rule:nonzero;"/>
            </g>
        </g>
        <g transform="matrix(4.16667,0,0,4.16667,0,7175.19)">
            <g transform="matrix(1,0,0,1,415.488,469.399)">
                <path d="M0,7.186C-2.136,7.276 -2.763,5.521 -2.816,4.777C-2.902,3.602 -2.445,2.372 -1.595,1.486C-0.646,0.499 0.657,-0.09 1.891,-0.09C2.632,-0.09 3.273,0.124 3.696,0.511C4.243,1.013 4.553,1.747 4.566,2.577C4.586,3.681 4.075,4.828 3.165,5.721C2.189,6.679 1.096,7.186 0,7.186" style="fill:rgb(14,194,243);fill-rule:nonzero;"/>
            </g>
        </g>
        <g transform="matrix(4.16667,0,0,4.16667,0,7175.19)">
            <g transform="matrix(1,0,0,1,417.173,476.099)">
                <path d="M0,-7.239C-1.247,-7.239 -2.567,-6.64 -3.532,-5.636C-4.39,-4.744 -4.851,-3.506 -4.765,-2.325C-4.715,-1.649 -4.137,0.085 -2.037,-0.003L-2.025,-0.003C-0.927,-0.003 0.179,-0.517 1.17,-1.491C2.091,-2.395 2.607,-3.55 2.588,-4.656C2.574,-5.468 2.275,-6.183 1.745,-6.669C1.344,-7.037 0.725,-7.239 0,-7.239M-2.197,0.558C-4.584,0.558 -5.262,-1.479 -5.32,-2.285C-5.418,-3.621 -4.899,-5.018 -3.934,-6.022C-2.866,-7.134 -1.396,-7.797 0,-7.797C0.864,-7.797 1.617,-7.542 2.122,-7.08C2.766,-6.49 3.129,-5.633 3.146,-4.666C3.167,-3.407 2.589,-2.105 1.56,-1.093C0.464,-0.017 -0.773,0.553 -2.02,0.554C-2.079,0.557 -2.139,0.558 -2.197,0.558" style="fill:rgb(35,31,32);fill-rule:nonzero;"/>
            </g>
        </g>
        <g transform="matrix(4.16667,0,0,4.16667,0,7175.19)">
            <g transform="matrix(1,0,0,1,416.554,467.624)">
                <path d="M0,12.649C-1.269,12.649 -2.509,12.239 -3.586,11.404C-4.049,11.045 -5.179,10.083 -5.683,8.894C-5.743,8.753 -5.677,8.589 -5.535,8.529C-5.394,8.469 -5.23,8.535 -5.17,8.676C-4.705,9.774 -3.578,10.705 -3.244,10.964C-0.943,12.749 2.199,12.379 4.576,10.045C6.697,7.961 7.4,4.114 5.066,1.71C4.666,1.297 4.553,1.206 3.672,0.496L3.59,0.429C3.471,0.333 3.452,0.158 3.548,0.038C3.646,-0.081 3.82,-0.1 3.939,-0.004L4.021,0.062C4.906,0.775 5.042,0.884 5.466,1.322C6.542,2.43 7.131,4.026 7.08,5.701C7.026,7.471 6.276,9.155 4.966,10.442C3.481,11.901 1.715,12.649 0,12.649" style="fill:rgb(35,31,32);fill-rule:nonzero;"/>
            </g>
        </g>
        <g transform="matrix(4.16667,0,0,4.16667,0,7175.19)">
            <g transform="matrix(1,0,0,1,442.803,480.597)">
                <path d="M0,-12.76C0.959,-11.986 1.076,-11.895 1.501,-11.457C3.574,-9.322 3.687,-5.364 1.006,-2.73C-1.604,-0.165 -4.875,0 -7.181,-1.788C-7.798,-2.267 -8.759,-3.165 -9.192,-4.187L0,-12.76Z" style="fill:rgb(0,148,216);fill-rule:nonzero;"/>
            </g>
        </g>
        <g transform="matrix(4.16667,0,0,4.16667,0,7175.19)">
            <g transform="matrix(-0.730638,-0.682765,-0.682765,0.730638,432.37,472.968)">
                <path d="M-4.338,-10.881C-7.229,-10.909 -9.765,-8.184 -9.606,-4.479C-9.452,-0.871 -7.206,1.452 -4.338,1.715C-1.885,1.941 0.979,-0.808 0.928,-4.418C0.877,-8.028 -1.677,-10.856 -4.338,-10.881" style="fill:rgb(14,194,243);fill-rule:nonzero;"/>
            </g>
        </g>
        <g transform="matrix(4.16667,0,0,4.16667,0,7175.19)">
            <g transform="matrix(1,0,0,1,439.793,477.392)">
                <path d="M0,-10.282C-1.673,-10.282 -3.509,-9.523 -4.884,-8.093C-6.118,-6.807 -6.755,-5.083 -6.629,-3.359C-6.538,-2.104 -6.036,-1.036 -5.254,-0.428C-2.983,1.331 0.115,0.967 2.458,-1.336C3.74,-2.595 4.46,-4.244 4.433,-5.857C4.409,-7.184 3.896,-8.374 2.988,-9.207C2.196,-9.932 1.136,-10.282 0,-10.282M-2.054,1.24C-3.307,1.24 -4.531,0.836 -5.595,0.012C-6.502,-0.692 -7.082,-1.906 -7.185,-3.319C-7.322,-5.199 -6.63,-7.08 -5.285,-8.478C-2.772,-11.092 1.187,-11.613 3.364,-9.617C4.387,-8.679 4.964,-7.348 4.989,-5.867C5.02,-4.101 4.239,-2.304 2.849,-0.938C1.383,0.502 -0.361,1.24 -2.054,1.24" style="fill:rgb(35,31,32);fill-rule:nonzero;"/>
            </g>
        </g>
        <g transform="matrix(4.16667,0,0,4.16667,0,7175.19)">
            <g transform="matrix(1,0,0,1,437.632,468.678)">
                <path d="M0,7.697C-2.288,7.794 -2.96,5.914 -3.018,5.117C-3.109,3.858 -2.62,2.541 -1.708,1.592C-0.691,0.535 0.704,-0.097 2.025,-0.097C2.819,-0.097 3.506,0.132 3.958,0.548C4.545,1.085 4.876,1.871 4.892,2.76C4.912,3.943 4.364,5.171 3.39,6.129C2.345,7.155 1.173,7.697 0,7.697" style="fill:rgb(0,148,216);fill-rule:nonzero;"/>
            </g>
        </g>
        <g transform="matrix(4.16667,0,0,4.16667,0,7175.19)">
            <g transform="matrix(1,0,0,1,437.971,469.399)">
                <path d="M0,7.186C-2.136,7.276 -2.763,5.521 -2.816,4.777C-2.902,3.602 -2.445,2.372 -1.594,1.486C-0.646,0.499 0.657,-0.09 1.892,-0.09C2.633,-0.09 3.273,0.124 3.696,0.511C4.243,1.013 4.553,1.747 4.567,2.577C4.586,3.681 4.075,4.828 3.165,5.721C2.19,6.679 1.096,7.186 0,7.186" style="fill:rgb(14,194,243);fill-rule:nonzero;"/>
            </g>
        </g>
        <g transform="matrix(4.16667,0,0,4.16667,0,7175.19)">
            <g transform="matrix(1,0,0,1,439.657,476.099)">
                <path d="M0,-7.239C-1.247,-7.239 -2.568,-6.64 -3.533,-5.636C-4.391,-4.744 -4.852,-3.506 -4.766,-2.325C-4.716,-1.649 -4.138,0.085 -2.038,-0.003L-2.026,-0.003C-0.927,-0.003 0.178,-0.517 1.169,-1.491C2.09,-2.395 2.606,-3.55 2.587,-4.656C2.573,-5.468 2.274,-6.183 1.745,-6.669C1.344,-7.037 0.724,-7.239 0,-7.239M-2.198,0.558C-4.584,0.558 -5.263,-1.479 -5.321,-2.285C-5.418,-3.621 -4.9,-5.018 -3.935,-6.022C-2.866,-7.134 -1.396,-7.797 0,-7.797C0.863,-7.797 1.617,-7.542 2.121,-7.08C2.765,-6.49 3.128,-5.633 3.145,-4.666C3.166,-3.407 2.589,-2.105 1.56,-1.093C0.464,-0.017 -0.774,0.553 -2.02,0.554C-2.08,0.557 -2.14,0.558 -2.198,0.558" style="fill:rgb(35,31,32);fill-rule:nonzero;"/>
            </g>
        </g>
        <g transform="matrix(4.16667,0,0,4.16667,0,7175.19)">
            <g transform="matrix(1,0,0,1,439.037,467.624)">
                <path d="M0,12.649C-1.269,12.649 -2.509,12.239 -3.586,11.404C-4.048,11.045 -5.179,10.083 -5.683,8.894C-5.743,8.753 -5.677,8.589 -5.535,8.529C-5.394,8.469 -5.23,8.535 -5.17,8.676C-4.704,9.774 -3.578,10.705 -3.244,10.964C-0.942,12.749 2.2,12.379 4.576,10.045C6.697,7.961 7.401,4.114 5.066,1.71C4.666,1.297 4.553,1.206 3.672,0.496L3.591,0.429C3.471,0.333 3.452,0.158 3.549,0.038C3.646,-0.081 3.82,-0.1 3.94,-0.004L4.022,0.062C4.906,0.775 5.042,0.884 5.466,1.322C6.543,2.43 7.131,4.026 7.08,5.701C7.027,7.471 6.276,9.155 4.966,10.442C3.481,11.901 1.715,12.649 0,12.649" style="fill:rgb(35,31,32);fill-rule:nonzero;"/>
            </g>
        </g>
        <g transform="matrix(4.16667,0,0,4.16667,0,7175.19)">
            <g transform="matrix(1,0,0,1,465.286,480.597)">
                <path d="M0,-12.76C0.959,-11.986 1.076,-11.895 1.501,-11.457C3.574,-9.322 3.688,-5.364 1.006,-2.73C-1.604,-0.165 -4.875,0 -7.181,-1.788C-7.798,-2.267 -8.759,-3.165 -9.192,-4.187L0,-12.76Z" style="fill:rgb(0,148,216);fill-rule:nonzero;"/>
            </g>
        </g>
        <g transform="matrix(4.16667,0,0,4.16667,0,7175.19)">
            <g transform="matrix(-0.730598,-0.682807,-0.682807,0.730598,454.852,472.967)">
                <path d="M-4.34,-10.881C-7.229,-10.909 -9.766,-8.185 -9.607,-4.479C-9.453,-0.871 -7.207,1.451 -4.34,1.715C-1.886,1.941 0.977,-0.808 0.927,-4.418C0.876,-8.028 -1.678,-10.856 -4.34,-10.881" style="fill:rgb(14,194,243);fill-rule:nonzero;"/>
            </g>
        </g>
        <g transform="matrix(4.16667,0,0,4.16667,0,7175.19)">
            <g transform="matrix(1,0,0,1,462.277,477.392)">
                <path d="M0,-10.282C-1.674,-10.282 -3.509,-9.523 -4.885,-8.093C-6.119,-6.807 -6.756,-5.083 -6.63,-3.359C-6.539,-2.104 -6.037,-1.036 -5.254,-0.428C-2.984,1.331 0.114,0.967 2.458,-1.336C3.74,-2.595 4.459,-4.244 4.432,-5.857C4.408,-7.184 3.896,-8.374 2.987,-9.207C2.195,-9.932 1.135,-10.282 0,-10.282M-2.055,1.24C-3.308,1.24 -4.532,0.836 -5.596,0.012C-6.503,-0.692 -7.083,-1.906 -7.186,-3.319C-7.323,-5.199 -6.63,-7.08 -5.286,-8.478C-2.773,-11.092 1.187,-11.613 3.363,-9.617C4.386,-8.679 4.963,-7.348 4.988,-5.867C5.019,-4.101 4.238,-2.304 2.848,-0.938C1.382,0.502 -0.362,1.24 -2.055,1.24" style="fill:rgb(35,31,32);fill-rule:nonzero;"/>
            </g>
        </g>
        <g transform="matrix(4.16667,0,0,4.16667,0,7175.19)">
            <g transform="matrix(1,0,0,1,460.115,468.678)">
                <path d="M0,7.697C-2.288,7.794 -2.96,5.914 -3.018,5.117C-3.109,3.858 -2.62,2.541 -1.708,1.592C-0.691,0.535 0.704,-0.097 2.025,-0.097C2.819,-0.097 3.506,0.132 3.959,0.548C4.545,1.085 4.876,1.871 4.892,2.76C4.912,3.943 4.364,5.171 3.39,6.129C2.346,7.155 1.173,7.697 0,7.697" style="fill:rgb(0,148,216);fill-rule:nonzero;"/>
            </g>
        </g>
        <g transform="matrix(4.16667,0,0,4.16667,0,7175.19)">
            <g transform="matrix(1,0,0,1,460.455,469.399)">
                <path d="M0,7.186C-2.136,7.276 -2.763,5.521 -2.816,4.777C-2.902,3.602 -2.445,2.372 -1.594,1.486C-0.646,0.499 0.658,-0.09 1.892,-0.09C2.633,-0.09 3.273,0.124 3.696,0.511C4.244,1.013 4.553,1.747 4.567,2.577C4.586,3.681 4.075,4.828 3.165,5.721C2.19,6.679 1.096,7.186 0,7.186" style="fill:rgb(14,194,243);fill-rule:nonzero;"/>
            </g>
        </g>
        <g transform="matrix(4.16667,0,0,4.16667,0,7175.19)">
            <g transform="matrix(1,0,0,1,462.14,476.099)">
                <path d="M0,-7.239C-1.247,-7.239 -2.567,-6.64 -3.533,-5.636C-4.391,-4.744 -4.852,-3.506 -4.766,-2.325C-4.716,-1.649 -4.137,0.085 -2.037,-0.003L-2.025,-0.003C-0.927,-0.003 0.178,-0.517 1.169,-1.491C2.09,-2.395 2.606,-3.55 2.588,-4.656C2.574,-5.468 2.274,-6.183 1.745,-6.669C1.344,-7.037 0.724,-7.239 0,-7.239M-2.197,0.558C-4.584,0.558 -5.263,-1.479 -5.321,-2.285C-5.418,-3.621 -4.9,-5.018 -3.935,-6.022C-2.866,-7.134 -1.396,-7.797 0,-7.797C0.863,-7.797 1.617,-7.542 2.121,-7.08C2.765,-6.49 3.128,-5.633 3.145,-4.666C3.166,-3.407 2.589,-2.105 1.56,-1.093C0.464,-0.017 -0.773,0.553 -2.02,0.554C-2.08,0.557 -2.14,0.558 -2.197,0.558" style="fill:rgb(35,31,32);fill-rule:nonzero;"/>
            </g>
        </g>
        <g transform="matrix(4.16667,0,0,4.16667,0,7175.19)">
            <g transform="matrix(1,0,0,1,461.521,467.624)">
                <path d="M0,12.649C-1.27,12.649 -2.51,12.239 -3.586,11.404C-4.049,11.045 -5.18,10.083 -5.684,8.894C-5.743,8.753 -5.678,8.589 -5.536,8.529C-5.395,8.469 -5.23,8.535 -5.171,8.676C-4.705,9.774 -3.579,10.705 -3.245,10.964C-0.943,12.749 2.199,12.379 4.575,10.045C6.696,7.961 7.4,4.114 5.065,1.71C4.665,1.297 4.552,1.206 3.672,0.496L3.59,0.429C3.47,0.333 3.451,0.158 3.548,0.038C3.645,-0.081 3.819,-0.1 3.939,-0.004L4.021,0.062C4.905,0.775 5.041,0.884 5.466,1.322C6.542,2.43 7.13,4.026 7.079,5.701C7.026,7.471 6.275,9.155 4.966,10.442C3.48,11.901 1.714,12.649 0,12.649" style="fill:rgb(35,31,32);fill-rule:nonzero;"/>
            </g>
        </g>
        <g transform="matrix(4.16667,0,0,4.16667,0,7175.19)">
            <g transform="matrix(1,0,0,1,408.835,494.938)">
                <path d="M0,-12.759C0.96,-11.986 1.076,-11.894 1.501,-11.456C3.575,-9.321 3.688,-5.363 1.006,-2.729C-1.604,-0.164 -4.875,0 -7.18,-1.787C-7.797,-2.267 -8.758,-3.165 -9.191,-4.186L0,-12.759Z" style="fill:rgb(0,148,216);fill-rule:nonzero;"/>
            </g>
        </g>
        <g transform="matrix(4.16667,0,0,4.16667,0,7175.19)">
            <g transform="matrix(-0.730598,-0.682807,-0.682807,0.730598,398.403,487.308)">
                <path d="M-4.339,-10.88C-7.23,-10.908 -9.765,-8.184 -9.607,-4.479C-9.454,-0.871 -7.207,1.451 -4.339,1.716C-1.886,1.942 0.978,-0.807 0.927,-4.417C0.877,-8.027 -1.677,-10.855 -4.339,-10.88" style="fill:rgb(14,194,243);fill-rule:nonzero;"/>
            </g>
        </g>
        <g transform="matrix(4.16667,0,0,4.16667,0,7175.19)">
            <g transform="matrix(1,0,0,1,405.826,491.734)">
                <path d="M0,-10.282C-1.674,-10.282 -3.509,-9.523 -4.884,-8.093C-6.119,-6.808 -6.755,-5.083 -6.63,-3.359C-6.538,-2.104 -6.037,-1.036 -5.254,-0.429C-2.984,1.331 0.114,0.966 2.458,-1.336C3.74,-2.595 4.46,-4.244 4.432,-5.858C4.409,-7.184 3.896,-8.374 2.987,-9.207C2.195,-9.933 1.135,-10.282 0,-10.282M-2.055,1.24C-3.308,1.24 -4.532,0.835 -5.595,0.011C-6.503,-0.693 -7.082,-1.906 -7.186,-3.319C-7.322,-5.2 -6.63,-7.08 -5.285,-8.479C-2.773,-11.092 1.187,-11.613 3.364,-9.618C4.387,-8.68 4.963,-7.348 4.989,-5.867C5.02,-4.101 4.239,-2.305 2.849,-0.938C1.382,0.501 -0.362,1.24 -2.055,1.24" style="fill:rgb(35,31,32);fill-rule:nonzero;"/>
            </g>
        </g>
        <g transform="matrix(4.16667,0,0,4.16667,0,7175.19)">
            <g transform="matrix(1,0,0,1,403.664,483.02)">
                <path d="M0,7.697C-2.287,7.794 -2.959,5.914 -3.018,5.116C-3.109,3.858 -2.619,2.54 -1.708,1.592C-0.691,0.535 0.704,-0.097 2.025,-0.097C2.819,-0.097 3.506,0.132 3.959,0.547C4.546,1.085 4.877,1.871 4.892,2.76C4.912,3.943 4.365,5.171 3.39,6.129C2.346,7.155 1.174,7.697 0,7.697" style="fill:rgb(0,148,216);fill-rule:nonzero;"/>
            </g>
        </g>
        <g transform="matrix(4.16667,0,0,4.16667,0,7175.19)">
            <g transform="matrix(1,0,0,1,404.005,483.741)">
                <path d="M0,7.186C-2.136,7.276 -2.763,5.521 -2.817,4.777C-2.902,3.601 -2.445,2.372 -1.595,1.486C-0.646,0.499 0.657,-0.09 1.891,-0.09C2.632,-0.09 3.272,0.123 3.695,0.51C4.243,1.012 4.553,1.747 4.566,2.577C4.586,3.681 4.074,4.828 3.165,5.721C2.189,6.679 1.095,7.186 0,7.186" style="fill:rgb(14,194,243);fill-rule:nonzero;"/>
            </g>
        </g>
        <g transform="matrix(4.16667,0,0,4.16667,0,7175.19)">
            <g transform="matrix(1,0,0,1,405.689,490.442)">
                <path d="M0,-7.241C-1.247,-7.241 -2.567,-6.641 -3.532,-5.637C-4.39,-4.745 -4.851,-3.508 -4.765,-2.326C-4.716,-1.65 -4.137,0.084 -2.037,-0.004L-2.025,-0.004C-0.927,-0.004 0.179,-0.519 1.17,-1.493C2.09,-2.397 2.607,-3.551 2.588,-4.658C2.574,-5.47 2.274,-6.184 1.745,-6.67C1.344,-7.038 0.725,-7.241 0,-7.241M-2.197,0.557C-4.584,0.557 -5.262,-1.48 -5.32,-2.286C-5.418,-3.622 -4.899,-5.019 -3.934,-6.023C-2.866,-7.135 -1.396,-7.798 0,-7.798C0.864,-7.798 1.617,-7.543 2.122,-7.081C2.766,-6.491 3.128,-5.634 3.146,-4.667C3.167,-3.408 2.589,-2.106 1.56,-1.095C0.464,-0.018 -0.773,0.551 -2.02,0.553C-2.079,0.556 -2.139,0.557 -2.197,0.557" style="fill:rgb(35,31,32);fill-rule:nonzero;"/>
            </g>
        </g>
        <g transform="matrix(4.16667,0,0,4.16667,0,7175.19)">
            <g transform="matrix(1,0,0,1,405.07,481.965)">
                <path d="M0,12.65C-1.27,12.65 -2.509,12.24 -3.586,11.405C-4.049,11.046 -5.18,10.083 -5.684,8.895C-5.743,8.754 -5.677,8.589 -5.535,8.53C-5.394,8.469 -5.23,8.536 -5.17,8.677C-4.705,9.775 -3.578,10.706 -3.244,10.964C-0.943,12.75 2.199,12.379 4.575,10.046C6.697,7.961 7.4,4.114 5.066,1.711C4.665,1.297 4.553,1.207 3.672,0.497L3.59,0.43C3.471,0.334 3.451,0.159 3.548,0.039C3.645,-0.081 3.82,-0.1 3.939,-0.003L4.021,0.063C4.905,0.776 5.042,0.885 5.466,1.322C6.542,2.43 7.131,4.027 7.08,5.702C7.026,7.472 6.275,9.156 4.966,10.443C3.481,11.901 1.715,12.65 0,12.65" style="fill:rgb(35,31,32);fill-rule:nonzero;"/>
            </g>
        </g>
        <g transform="matrix(4.16667,0,0,4.16667,0,7175.19)">
            <g transform="matrix(1,0,0,1,431.318,494.938)">
                <path d="M0,-12.759C0.96,-11.986 1.077,-11.894 1.502,-11.456C3.575,-9.321 3.688,-5.363 1.006,-2.729C-1.604,-0.164 -4.874,0 -7.18,-1.787C-7.797,-2.267 -8.758,-3.165 -9.191,-4.186L0,-12.759Z" style="fill:rgb(0,148,216);fill-rule:nonzero;"/>
            </g>
        </g>
        <g transform="matrix(4.16667,0,0,4.16667,0,7175.19)">
            <g transform="matrix(-0.730638,-0.682765,-0.682765,0.730638,420.887,487.309)">
                <path d="M-4.339,-10.88C-7.229,-10.908 -9.765,-8.184 -9.607,-4.478C-9.453,-0.87 -7.205,1.452 -4.339,1.716C-1.885,1.942 0.978,-0.807 0.928,-4.417C0.877,-8.028 -1.677,-10.855 -4.339,-10.88" style="fill:rgb(14,194,243);fill-rule:nonzero;"/>
            </g>
        </g>
        <g transform="matrix(4.16667,0,0,4.16667,0,7175.19)">
            <g transform="matrix(1,0,0,1,428.309,491.734)">
                <path d="M0,-10.282C-1.673,-10.282 -3.509,-9.523 -4.884,-8.093C-6.119,-6.808 -6.755,-5.083 -6.63,-3.359C-6.538,-2.104 -6.036,-1.036 -5.254,-0.429C-2.984,1.331 0.114,0.966 2.458,-1.336C3.74,-2.595 4.46,-4.244 4.432,-5.858C4.409,-7.184 3.896,-8.374 2.987,-9.207C2.196,-9.933 1.136,-10.282 0,-10.282M-2.055,1.24C-3.308,1.24 -4.532,0.835 -5.595,0.011C-6.503,-0.693 -7.082,-1.906 -7.186,-3.319C-7.322,-5.2 -6.63,-7.08 -5.285,-8.479C-2.773,-11.092 1.187,-11.613 3.364,-9.618C4.387,-8.68 4.964,-7.348 4.989,-5.867C5.02,-4.101 4.239,-2.305 2.849,-0.938C1.383,0.501 -0.361,1.24 -2.055,1.24" style="fill:rgb(35,31,32);fill-rule:nonzero;"/>
            </g>
        </g>
        <g transform="matrix(4.16667,0,0,4.16667,0,7175.19)">
            <g transform="matrix(1,0,0,1,426.147,483.02)">
                <path d="M0,7.697C-2.287,7.794 -2.959,5.914 -3.017,5.116C-3.108,3.858 -2.619,2.54 -1.707,1.592C-0.691,0.535 0.705,-0.097 2.026,-0.097C2.819,-0.097 3.507,0.132 3.959,0.547C4.546,1.085 4.877,1.871 4.893,2.76C4.913,3.943 4.365,5.171 3.391,6.129C2.346,7.155 1.174,7.697 0,7.697" style="fill:rgb(0,148,216);fill-rule:nonzero;"/>
            </g>
        </g>
        <g transform="matrix(4.16667,0,0,4.16667,0,7175.19)">
            <g transform="matrix(1,0,0,1,426.488,483.741)">
                <path d="M0,7.186C-2.136,7.276 -2.763,5.521 -2.816,4.777C-2.902,3.601 -2.445,2.372 -1.595,1.486C-0.646,0.499 0.657,-0.09 1.891,-0.09C2.632,-0.09 3.273,0.123 3.696,0.51C4.243,1.012 4.553,1.747 4.566,2.577C4.586,3.681 4.075,4.828 3.165,5.721C2.189,6.679 1.096,7.186 0,7.186" style="fill:rgb(14,194,243);fill-rule:nonzero;"/>
            </g>
        </g>
        <g transform="matrix(4.16667,0,0,4.16667,0,7175.19)">
            <g transform="matrix(1,0,0,1,428.173,490.442)">
                <path d="M0,-7.241C-1.247,-7.241 -2.567,-6.641 -3.532,-5.637C-4.39,-4.745 -4.851,-3.508 -4.765,-2.326C-4.715,-1.65 -4.137,0.084 -2.037,-0.004L-2.025,-0.004C-0.927,-0.004 0.179,-0.519 1.17,-1.493C2.091,-2.397 2.607,-3.551 2.588,-4.658C2.574,-5.47 2.275,-6.184 1.745,-6.67C1.344,-7.038 0.725,-7.241 0,-7.241M-2.197,0.557C-4.584,0.557 -5.262,-1.48 -5.32,-2.286C-5.418,-3.622 -4.899,-5.019 -3.934,-6.023C-2.866,-7.135 -1.396,-7.798 0,-7.798C0.864,-7.798 1.617,-7.543 2.122,-7.081C2.766,-6.491 3.129,-5.634 3.146,-4.667C3.167,-3.408 2.589,-2.106 1.56,-1.095C0.464,-0.018 -0.773,0.551 -2.02,0.553C-2.079,0.556 -2.139,0.557 -2.197,0.557" style="fill:rgb(35,31,32);fill-rule:nonzero;"/>
            </g>
        </g>
        <g transform="matrix(4.16667,0,0,4.16667,0,7175.19)">
            <g transform="matrix(1,0,0,1,427.554,481.965)">
                <path d="M0,12.65C-1.269,12.65 -2.509,12.24 -3.586,11.405C-4.049,11.046 -5.179,10.083 -5.683,8.895C-5.743,8.754 -5.677,8.589 -5.535,8.53C-5.394,8.469 -5.23,8.536 -5.17,8.677C-4.705,9.775 -3.578,10.706 -3.244,10.964C-0.943,12.75 2.199,12.379 4.576,10.046C6.697,7.961 7.4,4.114 5.066,1.711C4.666,1.297 4.553,1.207 3.672,0.497L3.59,0.43C3.471,0.334 3.452,0.159 3.548,0.039C3.646,-0.081 3.82,-0.1 3.939,-0.003L4.021,0.063C4.906,0.776 5.042,0.885 5.466,1.322C6.542,2.43 7.131,4.027 7.08,5.702C7.026,7.472 6.276,9.156 4.966,10.443C3.481,11.901 1.715,12.65 0,12.65" style="fill:rgb(35,31,32);fill-rule:nonzero;"/>
            </g>
        </g>
        <g transform="matrix(4.16667,0,0,4.16667,0,7175.19)">
            <g transform="matrix(1,0,0,1,453.803,494.938)">
                <path d="M0,-12.759C0.959,-11.986 1.076,-11.894 1.501,-11.456C3.574,-9.321 3.687,-5.363 1.006,-2.729C-1.604,-0.164 -4.875,0 -7.181,-1.787C-7.798,-2.267 -8.759,-3.165 -9.192,-4.186L0,-12.759Z" style="fill:rgb(0,148,216);fill-rule:nonzero;"/>
            </g>
        </g>
        <g transform="matrix(4.16667,0,0,4.16667,0,7175.19)">
            <g transform="matrix(-0.730638,-0.682765,-0.682765,0.730638,443.37,487.309)">
                <path d="M-4.339,-10.88C-7.229,-10.908 -9.765,-8.184 -9.607,-4.478C-9.453,-0.87 -7.205,1.452 -4.339,1.716C-1.885,1.942 0.978,-0.807 0.928,-4.417C0.877,-8.028 -1.678,-10.855 -4.339,-10.88" style="fill:rgb(14,194,243);fill-rule:nonzero;"/>
            </g>
        </g>
        <g transform="matrix(4.16667,0,0,4.16667,0,7175.19)">
            <g transform="matrix(1,0,0,1,450.793,491.734)">
                <path d="M0,-10.282C-1.673,-10.282 -3.509,-9.523 -4.884,-8.093C-6.118,-6.808 -6.755,-5.083 -6.629,-3.359C-6.538,-2.104 -6.036,-1.036 -5.254,-0.429C-2.983,1.331 0.115,0.966 2.458,-1.336C3.74,-2.595 4.46,-4.244 4.433,-5.858C4.409,-7.184 3.896,-8.374 2.988,-9.207C2.196,-9.933 1.136,-10.282 0,-10.282M-2.054,1.24C-3.307,1.24 -4.531,0.835 -5.595,0.011C-6.502,-0.693 -7.082,-1.906 -7.185,-3.319C-7.322,-5.2 -6.63,-7.08 -5.285,-8.479C-2.772,-11.092 1.187,-11.613 3.364,-9.618C4.387,-8.68 4.964,-7.348 4.989,-5.867C5.02,-4.101 4.239,-2.305 2.849,-0.938C1.383,0.501 -0.361,1.24 -2.054,1.24" style="fill:rgb(35,31,32);fill-rule:nonzero;"/>
            </g>
        </g>
        <g transform="matrix(4.16667,0,0,4.16667,0,7175.19)">
            <g transform="matrix(1,0,0,1,448.632,483.02)">
                <path d="M0,7.697C-2.288,7.794 -2.96,5.914 -3.018,5.116C-3.109,3.858 -2.62,2.54 -1.708,1.592C-0.691,0.535 0.704,-0.097 2.025,-0.097C2.819,-0.097 3.506,0.132 3.958,0.547C4.545,1.085 4.876,1.871 4.892,2.76C4.912,3.943 4.364,5.171 3.39,6.129C2.345,7.155 1.173,7.697 0,7.697" style="fill:rgb(0,148,216);fill-rule:nonzero;"/>
            </g>
        </g>
        <g transform="matrix(4.16667,0,0,4.16667,0,7175.19)">
            <g transform="matrix(1,0,0,1,448.971,483.741)">
                <path d="M0,7.186C-2.136,7.276 -2.763,5.521 -2.816,4.777C-2.902,3.601 -2.445,2.372 -1.594,1.486C-0.646,0.499 0.657,-0.09 1.892,-0.09C2.633,-0.09 3.273,0.123 3.696,0.51C4.243,1.012 4.553,1.747 4.567,2.577C4.586,3.681 4.075,4.828 3.165,5.721C2.19,6.679 1.096,7.186 0,7.186" style="fill:rgb(14,194,243);fill-rule:nonzero;"/>
            </g>
        </g>
        <g transform="matrix(4.16667,0,0,4.16667,0,7175.19)">
            <g transform="matrix(1,0,0,1,450.657,490.442)">
                <path d="M0,-7.241C-1.247,-7.241 -2.568,-6.641 -3.533,-5.637C-4.391,-4.745 -4.852,-3.508 -4.766,-2.326C-4.716,-1.65 -4.138,0.084 -2.038,-0.004L-2.026,-0.004C-0.927,-0.004 0.178,-0.519 1.169,-1.493C2.09,-2.397 2.606,-3.551 2.587,-4.658C2.573,-5.47 2.274,-6.184 1.745,-6.67C1.344,-7.038 0.724,-7.241 0,-7.241M-2.198,0.557C-4.584,0.557 -5.263,-1.48 -5.321,-2.286C-5.418,-3.622 -4.9,-5.019 -3.935,-6.023C-2.866,-7.135 -1.396,-7.798 0,-7.798C0.863,-7.798 1.617,-7.543 2.121,-7.081C2.765,-6.491 3.128,-5.634 3.145,-4.667C3.166,-3.408 2.589,-2.106 1.56,-1.095C0.464,-0.018 -0.774,0.551 -2.02,0.553C-2.08,0.556 -2.14,0.557 -2.198,0.557" style="fill:rgb(35,31,32);fill-rule:nonzero;"/>
            </g>
        </g>
        <g transform="matrix(4.16667,0,0,4.16667,0,7175.19)">
            <g transform="matrix(1,0,0,1,450.037,481.965)">
                <path d="M0,12.65C-1.269,12.65 -2.509,12.24 -3.586,11.405C-4.048,11.046 -5.179,10.083 -5.683,8.895C-5.743,8.754 -5.677,8.589 -5.535,8.53C-5.394,8.469 -5.23,8.536 -5.17,8.677C-4.704,9.775 -3.578,10.706 -3.244,10.964C-0.942,12.75 2.2,12.379 4.576,10.046C6.697,7.961 7.401,4.114 5.066,1.711C4.666,1.297 4.553,1.207 3.672,0.497L3.591,0.43C3.471,0.334 3.452,0.159 3.549,0.039C3.646,-0.081 3.82,-0.1 3.94,-0.003L4.022,0.063C4.906,0.776 5.042,0.885 5.466,1.322C6.543,2.43 7.131,4.027 7.08,5.702C7.027,7.472 6.276,9.156 4.966,10.443C3.481,11.901 1.715,12.65 0,12.65" style="fill:rgb(35,31,32);fill-rule:nonzero;"/>
            </g>
        </g>
    </g>
</svg>
