<?xml version="1.0" encoding="UTF-8" standalone="no"?>
<!DOCTYPE svg PUBLIC "-//W3C//DTD SVG 1.1//EN" "http://www.w3.org/Graphics/SVG/1.1/DTD/svg11.dtd">
<svg width="100%" height="100%" viewBox="0 0 995 62" version="1.1" xmlns="http://www.w3.org/2000/svg" xmlns:xlink="http://www.w3.org/1999/xlink" xml:space="preserve" xmlns:serif="http://www.serif.com/" style="fill-rule:evenodd;clip-rule:evenodd;stroke-linejoin:round;stroke-miterlimit:2;">
    <g transform="matrix(1,0,0,1,-653.325,-7832.02)">
        <g transform="matrix(4.16667,0,0,4.16667,0,7175.19)">
            <g transform="matrix(1,0,0,1,303.149,172.09)">
                <path d="M0,-13.137C0.988,-12.34 1.108,-12.246 1.546,-11.796C3.681,-9.597 3.796,-5.523 1.036,-2.81C-1.651,-0.17 -5.019,0 -7.392,-1.841C-8.028,-2.334 -9.018,-3.259 -9.463,-4.311L0,-13.137Z" style="fill:rgb(254,198,89);fill-rule:nonzero;"/>
            </g>
        </g>
        <g transform="matrix(4.16667,0,0,4.16667,0,7175.19)">
            <g transform="matrix(-0.730681,-0.682719,-0.682719,0.730681,292.408,164.235)">
                <path d="M-4.469,-11.202C-7.445,-11.229 -10.055,-8.425 -9.893,-4.609C-9.733,-0.897 -7.419,1.495 -4.469,1.767C-1.942,1.999 1.007,-0.832 0.954,-4.549C0.901,-8.265 -1.728,-11.177 -4.469,-11.202" style="fill:rgb(255,236,73);fill-rule:nonzero;"/>
            </g>
        </g>
        <g transform="matrix(4.16667,0,0,4.16667,0,7175.19)">
            <g transform="matrix(1,0,0,1,300.052,168.79)">
                <path d="M0,-10.585C-1.723,-10.585 -3.613,-9.804 -5.029,-8.331C-6.3,-7.008 -6.956,-5.232 -6.826,-3.458C-6.732,-2.165 -6.215,-1.065 -5.41,-0.44C-3.073,1.371 0.118,0.996 2.53,-1.375C3.851,-2.672 4.591,-4.368 4.563,-6.03C4.539,-7.396 4.011,-8.62 3.076,-9.479C2.261,-10.226 1.168,-10.585 0,-10.585M-2.115,1.278C-3.405,1.278 -4.667,0.861 -5.761,0.013C-6.695,-0.712 -7.292,-1.962 -7.398,-3.416C-7.539,-5.353 -6.826,-7.289 -5.442,-8.729C-2.855,-11.419 1.223,-11.956 3.463,-9.901C4.516,-8.936 5.11,-7.564 5.136,-6.04C5.167,-4.222 4.364,-2.372 2.932,-0.965C1.423,0.518 -0.373,1.278 -2.115,1.278" style="fill:rgb(35,31,32);fill-rule:nonzero;"/>
            </g>
        </g>
        <g transform="matrix(4.16667,0,0,4.16667,0,7175.19)">
            <g transform="matrix(1,0,0,1,297.825,159.819)">
                <path d="M0,7.924C-2.355,8.024 -3.047,6.089 -3.106,5.268C-3.201,3.972 -2.697,2.615 -1.758,1.639C-0.712,0.55 0.725,-0.1 2.085,-0.1C2.903,-0.1 3.61,0.135 4.076,0.563C4.68,1.116 5.021,1.926 5.037,2.841C5.058,4.06 4.494,5.323 3.49,6.31C2.415,7.366 1.208,7.924 0,7.924" style="fill:rgb(254,198,89);fill-rule:nonzero;"/>
            </g>
        </g>
        <g transform="matrix(4.16667,0,0,4.16667,0,7175.19)">
            <g transform="matrix(1,0,0,1,298.176,160.562)">
                <path d="M0,7.397C-2.199,7.491 -2.845,5.683 -2.9,4.917C-2.989,3.708 -2.518,2.441 -1.642,1.529C-0.665,0.513 0.677,-0.094 1.947,-0.094C2.71,-0.094 3.37,0.126 3.805,0.525C4.369,1.042 4.687,1.797 4.702,2.652C4.722,3.789 4.195,4.969 3.258,5.89C2.254,6.876 1.127,7.397 0,7.397" style="fill:rgb(255,236,73);fill-rule:nonzero;"/>
            </g>
        </g>
        <g transform="matrix(4.16667,0,0,4.16667,0,7175.19)">
            <g transform="matrix(1,0,0,1,299.911,167.461)">
                <path d="M0,-7.455C-1.284,-7.455 -2.644,-6.838 -3.637,-5.805C-4.521,-4.886 -4.995,-3.611 -4.906,-2.395C-4.855,-1.699 -4.26,0.087 -2.098,-0.004L-2.085,-0.004C-0.954,-0.004 0.183,-0.534 1.204,-1.537C2.152,-2.468 2.684,-3.655 2.664,-4.795C2.65,-5.632 2.342,-6.367 1.796,-6.867C1.383,-7.246 0.746,-7.455 0,-7.455M-2.263,0.573C-4.72,0.573 -5.418,-1.524 -5.478,-2.353C-5.579,-3.728 -5.045,-5.168 -4.051,-6.202C-2.951,-7.346 -1.437,-8.028 0,-8.028C0.889,-8.028 1.665,-7.767 2.184,-7.29C2.847,-6.683 3.221,-5.801 3.238,-4.806C3.26,-3.509 2.666,-2.169 1.605,-1.128C0.478,-0.019 -0.797,0.567 -2.08,0.569C-2.142,0.572 -2.203,0.573 -2.263,0.573" style="fill:rgb(35,31,32);fill-rule:nonzero;"/>
            </g>
        </g>
        <g transform="matrix(4.16667,0,0,4.16667,0,7175.19)">
            <g transform="matrix(1,0,0,1,299.273,158.734)">
                <path d="M0,13.023C-1.307,13.023 -2.583,12.601 -3.692,11.742C-4.168,11.373 -5.333,10.38 -5.852,9.158C-5.913,9.011 -5.845,8.843 -5.7,8.782C-5.554,8.719 -5.385,8.788 -5.323,8.933C-4.844,10.063 -3.685,11.022 -3.341,11.289C-0.971,13.126 2.264,12.746 4.711,10.341C6.895,8.196 7.62,4.235 5.216,1.76C4.803,1.335 4.687,1.242 3.78,0.51L3.696,0.442C3.573,0.343 3.554,0.163 3.653,0.04C3.752,-0.084 3.933,-0.103 4.056,-0.004L4.141,0.064C5.051,0.798 5.19,0.911 5.627,1.361C6.735,2.502 7.341,4.145 7.29,5.87C7.234,7.692 6.461,9.426 5.112,10.751C3.584,12.252 1.765,13.023 0,13.023" style="fill:rgb(35,31,32);fill-rule:nonzero;"/>
            </g>
        </g>
        <g transform="matrix(4.16667,0,0,4.16667,0,7175.19)">
            <g transform="matrix(1,0,0,1,325.383,172.09)">
                <path d="M0,-13.137C0.987,-12.34 1.108,-12.246 1.546,-11.796C3.681,-9.597 3.796,-5.523 1.035,-2.81C-1.651,-0.17 -5.02,0 -7.393,-1.841C-8.028,-2.334 -9.018,-3.259 -9.464,-4.311L0,-13.137Z" style="fill:rgb(254,198,89);fill-rule:nonzero;"/>
            </g>
        </g>
        <g transform="matrix(4.16667,0,0,4.16667,0,7175.19)">
            <g transform="matrix(-0.730681,-0.682719,-0.682719,0.730681,314.642,164.235)">
                <path d="M-4.469,-11.202C-7.445,-11.229 -10.055,-8.425 -9.893,-4.609C-9.733,-0.897 -7.419,1.495 -4.469,1.767C-1.942,1.999 1.007,-0.832 0.954,-4.549C0.901,-8.265 -1.727,-11.176 -4.469,-11.202" style="fill:rgb(255,236,73);fill-rule:nonzero;"/>
            </g>
        </g>
        <g transform="matrix(4.16667,0,0,4.16667,0,7175.19)">
            <g transform="matrix(1,0,0,1,322.285,168.79)">
                <path d="M0,-10.585C-1.724,-10.585 -3.613,-9.804 -5.029,-8.331C-6.301,-7.008 -6.956,-5.232 -6.826,-3.458C-6.732,-2.165 -6.216,-1.065 -5.41,-0.44C-3.073,1.371 0.117,0.996 2.53,-1.375C3.851,-2.672 4.591,-4.368 4.562,-6.03C4.539,-7.396 4.011,-8.62 3.075,-9.479C2.261,-10.226 1.168,-10.585 0,-10.585M-2.115,1.278C-3.405,1.278 -4.667,0.861 -5.761,0.013C-6.695,-0.712 -7.292,-1.962 -7.398,-3.416C-7.539,-5.353 -6.826,-7.289 -5.442,-8.729C-2.855,-11.419 1.223,-11.956 3.463,-9.901C4.516,-8.936 5.109,-7.564 5.136,-6.04C5.167,-4.222 4.364,-2.372 2.932,-0.965C1.423,0.518 -0.373,1.278 -2.115,1.278" style="fill:rgb(35,31,32);fill-rule:nonzero;"/>
            </g>
        </g>
        <g transform="matrix(4.16667,0,0,4.16667,0,7175.19)">
            <g transform="matrix(1,0,0,1,320.059,159.819)">
                <path d="M0,7.924C-2.355,8.024 -3.047,6.089 -3.106,5.268C-3.201,3.972 -2.696,2.615 -1.758,1.639C-0.712,0.55 0.726,-0.1 2.086,-0.1C2.903,-0.1 3.61,0.135 4.076,0.563C4.68,1.116 5.021,1.926 5.037,2.841C5.058,4.06 4.494,5.323 3.49,6.31C2.415,7.366 1.208,7.924 0,7.924" style="fill:rgb(254,198,89);fill-rule:nonzero;"/>
            </g>
        </g>
        <g transform="matrix(4.16667,0,0,4.16667,0,7175.19)">
            <g transform="matrix(1,0,0,1,320.409,160.562)">
                <path d="M0,7.397C-2.199,7.491 -2.845,5.683 -2.9,4.917C-2.988,3.708 -2.518,2.441 -1.642,1.529C-0.664,0.513 0.677,-0.094 1.947,-0.094C2.71,-0.094 3.37,0.126 3.806,0.525C4.369,1.042 4.687,1.797 4.702,2.652C4.722,3.789 4.195,4.969 3.259,5.89C2.255,6.876 1.128,7.397 0,7.397" style="fill:rgb(255,236,73);fill-rule:nonzero;"/>
            </g>
        </g>
        <g transform="matrix(4.16667,0,0,4.16667,0,7175.19)">
            <g transform="matrix(1,0,0,1,322.145,167.461)">
                <path d="M0,-7.455C-1.284,-7.455 -2.644,-6.838 -3.638,-5.805C-4.521,-4.886 -4.995,-3.611 -4.906,-2.395C-4.855,-1.699 -4.26,0.087 -2.098,-0.004L-2.086,-0.004C-0.954,-0.004 0.183,-0.534 1.203,-1.537C2.151,-2.468 2.684,-3.655 2.664,-4.795C2.649,-5.632 2.342,-6.367 1.796,-6.867C1.383,-7.246 0.745,-7.455 0,-7.455M-2.263,0.573C-4.72,0.573 -5.418,-1.524 -5.479,-2.353C-5.579,-3.728 -5.045,-5.168 -4.051,-6.202C-2.951,-7.346 -1.437,-8.028 0,-8.028C0.889,-8.028 1.665,-7.767 2.184,-7.29C2.847,-6.683 3.221,-5.801 3.237,-4.806C3.26,-3.509 2.665,-2.169 1.605,-1.128C0.478,-0.019 -0.797,0.567 -2.08,0.569C-2.142,0.572 -2.203,0.573 -2.263,0.573" style="fill:rgb(35,31,32);fill-rule:nonzero;"/>
            </g>
        </g>
        <g transform="matrix(4.16667,0,0,4.16667,0,7175.19)">
            <g transform="matrix(1,0,0,1,321.507,158.734)">
                <path d="M0,13.023C-1.307,13.023 -2.584,12.601 -3.692,11.742C-4.169,11.373 -5.333,10.38 -5.852,9.158C-5.913,9.011 -5.846,8.843 -5.699,8.782C-5.554,8.719 -5.386,8.788 -5.323,8.933C-4.845,10.063 -3.685,11.022 -3.341,11.289C-0.972,13.126 2.264,12.746 4.711,10.341C6.895,8.196 7.619,4.235 5.216,1.76C4.803,1.335 4.687,1.242 3.78,0.51L3.696,0.442C3.572,0.343 3.554,0.163 3.652,0.04C3.752,-0.084 3.933,-0.103 4.056,-0.004L4.141,0.064C5.051,0.798 5.19,0.911 5.627,1.361C6.735,2.502 7.341,4.145 7.289,5.87C7.234,7.692 6.461,9.426 5.112,10.751C3.584,12.252 1.765,13.023 0,13.023" style="fill:rgb(35,31,32);fill-rule:nonzero;"/>
            </g>
        </g>
        <g transform="matrix(4.16667,0,0,4.16667,0,7175.19)">
            <g transform="matrix(1,0,0,1,347.616,172.09)">
                <path d="M0,-13.137C0.988,-12.34 1.108,-12.246 1.546,-11.796C3.681,-9.597 3.797,-5.523 1.036,-2.81C-1.651,-0.17 -5.019,0 -7.393,-1.841C-8.028,-2.334 -9.018,-3.259 -9.464,-4.311L0,-13.137Z" style="fill:rgb(254,198,89);fill-rule:nonzero;"/>
            </g>
        </g>
        <g transform="matrix(4.16667,0,0,4.16667,0,7175.19)">
            <g transform="matrix(-0.730681,-0.682719,-0.682719,0.730681,336.875,164.235)">
                <path d="M-4.469,-11.202C-7.445,-11.229 -10.056,-8.426 -9.893,-4.609C-9.733,-0.897 -7.419,1.495 -4.469,1.767C-1.942,1.999 1.007,-0.832 0.954,-4.549C0.901,-8.265 -1.728,-11.177 -4.469,-11.202" style="fill:rgb(255,236,73);fill-rule:nonzero;"/>
            </g>
        </g>
        <g transform="matrix(4.16667,0,0,4.16667,0,7175.19)">
            <g transform="matrix(1,0,0,1,344.519,168.79)">
                <path d="M0,-10.585C-1.724,-10.585 -3.613,-9.804 -5.028,-8.331C-6.3,-7.008 -6.955,-5.232 -6.826,-3.458C-6.731,-2.165 -6.216,-1.065 -5.409,-0.44C-3.072,1.371 0.118,0.996 2.53,-1.375C3.851,-2.672 4.592,-4.368 4.562,-6.03C4.539,-7.396 4.011,-8.62 3.075,-9.479C2.261,-10.226 1.169,-10.585 0,-10.585M-2.115,1.278C-3.405,1.278 -4.666,0.861 -5.761,0.013C-6.695,-0.712 -7.292,-1.962 -7.398,-3.416C-7.539,-5.353 -6.826,-7.289 -5.442,-8.729C-2.855,-11.419 1.223,-11.956 3.463,-9.901C4.516,-8.936 5.11,-7.564 5.137,-6.04C5.168,-4.222 4.364,-2.372 2.933,-0.965C1.423,0.518 -0.373,1.278 -2.115,1.278" style="fill:rgb(35,31,32);fill-rule:nonzero;"/>
            </g>
        </g>
        <g transform="matrix(4.16667,0,0,4.16667,0,7175.19)">
            <g transform="matrix(1,0,0,1,342.292,159.819)">
                <path d="M0,7.924C-2.354,8.024 -3.046,6.089 -3.106,5.268C-3.2,3.972 -2.696,2.615 -1.758,1.639C-0.712,0.55 0.726,-0.1 2.086,-0.1C2.903,-0.1 3.61,0.135 4.076,0.563C4.681,1.116 5.021,1.926 5.037,2.841C5.058,4.06 4.494,5.323 3.49,6.31C2.415,7.366 1.208,7.924 0,7.924" style="fill:rgb(254,198,89);fill-rule:nonzero;"/>
            </g>
        </g>
        <g transform="matrix(4.16667,0,0,4.16667,0,7175.19)">
            <g transform="matrix(1,0,0,1,342.643,160.562)">
                <path d="M0,7.397C-2.198,7.491 -2.844,5.683 -2.899,4.917C-2.988,3.708 -2.518,2.441 -1.642,1.529C-0.664,0.513 0.678,-0.094 1.947,-0.094C2.71,-0.094 3.37,0.126 3.806,0.525C4.369,1.042 4.687,1.797 4.702,2.652C4.722,3.789 4.196,4.969 3.259,5.89C2.255,6.876 1.128,7.397 0,7.397" style="fill:rgb(255,236,73);fill-rule:nonzero;"/>
            </g>
        </g>
        <g transform="matrix(4.16667,0,0,4.16667,0,7175.19)">
            <g transform="matrix(1,0,0,1,344.378,167.461)">
                <path d="M0,-7.455C-1.284,-7.455 -2.644,-6.838 -3.638,-5.805C-4.521,-4.886 -4.995,-3.611 -4.906,-2.395C-4.855,-1.699 -4.26,0.087 -2.098,-0.004L-2.086,-0.004C-0.954,-0.004 0.184,-0.534 1.204,-1.537C2.151,-2.468 2.684,-3.655 2.664,-4.795C2.65,-5.632 2.342,-6.367 1.797,-6.867C1.384,-7.246 0.745,-7.455 0,-7.455M-2.263,0.573C-4.72,0.573 -5.418,-1.524 -5.479,-2.353C-5.578,-3.728 -5.045,-5.168 -4.051,-6.202C-2.951,-7.346 -1.437,-8.028 0,-8.028C0.89,-8.028 1.665,-7.767 2.185,-7.29C2.847,-6.683 3.221,-5.801 3.237,-4.806C3.26,-3.509 2.665,-2.169 1.605,-1.128C0.478,-0.019 -0.797,0.567 -2.079,0.569C-2.142,0.572 -2.202,0.573 -2.263,0.573" style="fill:rgb(35,31,32);fill-rule:nonzero;"/>
            </g>
        </g>
        <g transform="matrix(4.16667,0,0,4.16667,0,7175.19)">
            <g transform="matrix(1,0,0,1,343.74,158.734)">
                <path d="M0,13.023C-1.307,13.023 -2.584,12.601 -3.692,11.742C-4.169,11.373 -5.333,10.38 -5.852,9.158C-5.913,9.011 -5.846,8.843 -5.699,8.782C-5.554,8.719 -5.385,8.788 -5.323,8.933C-4.844,10.063 -3.685,11.022 -3.341,11.289C-0.972,13.126 2.265,12.746 4.711,10.341C6.895,8.196 7.619,4.235 5.216,1.76C4.804,1.335 4.687,1.242 3.78,0.51L3.696,0.442C3.573,0.343 3.554,0.163 3.653,0.04C3.753,-0.084 3.933,-0.103 4.057,-0.004L4.141,0.064C5.051,0.798 5.19,0.911 5.628,1.361C6.735,2.502 7.342,4.145 7.289,5.87C7.234,7.692 6.461,9.426 5.112,10.751C3.584,12.252 1.765,13.023 0,13.023" style="fill:rgb(35,31,32);fill-rule:nonzero;"/>
            </g>
        </g>
        <g transform="matrix(4.16667,0,0,4.16667,0,7175.19)">
            <g transform="matrix(1,0,0,1,369.85,172.09)">
                <path d="M0,-13.137C0.988,-12.34 1.108,-12.246 1.546,-11.796C3.681,-9.597 3.797,-5.523 1.036,-2.81C-1.651,-0.17 -5.019,0 -7.392,-1.841C-8.027,-2.334 -9.018,-3.259 -9.463,-4.311L0,-13.137Z" style="fill:rgb(254,198,89);fill-rule:nonzero;"/>
            </g>
        </g>
        <g transform="matrix(4.16667,0,0,4.16667,0,7175.19)">
            <g transform="matrix(-0.730681,-0.682719,-0.682719,0.730681,359.109,164.235)">
                <path d="M-4.468,-11.202C-7.444,-11.229 -10.055,-8.425 -9.892,-4.609C-9.733,-0.896 -7.419,1.496 -4.468,1.767C-1.942,2 1.007,-0.832 0.955,-4.548C0.902,-8.264 -1.727,-11.176 -4.468,-11.202" style="fill:rgb(255,236,73);fill-rule:nonzero;"/>
            </g>
        </g>
        <g transform="matrix(4.16667,0,0,4.16667,0,7175.19)">
            <g transform="matrix(1,0,0,1,366.752,168.79)">
                <path d="M0,-10.585C-1.723,-10.585 -3.612,-9.804 -5.028,-8.331C-6.3,-7.008 -6.955,-5.232 -6.826,-3.458C-6.731,-2.165 -6.215,-1.065 -5.409,-0.44C-3.072,1.371 0.118,0.996 2.53,-1.375C3.851,-2.672 4.592,-4.368 4.563,-6.03C4.539,-7.396 4.012,-8.62 3.076,-9.479C2.261,-10.226 1.169,-10.585 0,-10.585M-2.115,1.278C-3.405,1.278 -4.666,0.861 -5.761,0.013C-6.695,-0.712 -7.292,-1.962 -7.397,-3.416C-7.539,-5.353 -6.826,-7.289 -5.441,-8.729C-2.855,-11.419 1.223,-11.956 3.464,-9.901C4.517,-8.936 5.11,-7.564 5.137,-6.04C5.168,-4.222 4.364,-2.372 2.933,-0.965C1.423,0.518 -0.372,1.278 -2.115,1.278" style="fill:rgb(35,31,32);fill-rule:nonzero;"/>
            </g>
        </g>
        <g transform="matrix(4.16667,0,0,4.16667,0,7175.19)">
            <g transform="matrix(1,0,0,1,364.527,159.819)">
                <path d="M0,7.924C-2.355,8.024 -3.047,6.089 -3.106,5.268C-3.201,3.972 -2.697,2.615 -1.759,1.639C-0.712,0.55 0.725,-0.1 2.085,-0.1C2.902,-0.1 3.609,0.135 4.075,0.563C4.68,1.116 5.021,1.926 5.036,2.841C5.058,4.06 4.494,5.323 3.49,6.31C2.415,7.366 1.208,7.924 0,7.924" style="fill:rgb(254,198,89);fill-rule:nonzero;"/>
            </g>
        </g>
        <g transform="matrix(4.16667,0,0,4.16667,0,7175.19)">
            <g transform="matrix(1,0,0,1,364.877,160.562)">
                <path d="M0,7.397C-2.199,7.491 -2.845,5.683 -2.9,4.917C-2.988,3.708 -2.519,2.441 -1.642,1.529C-0.665,0.513 0.677,-0.094 1.946,-0.094C2.71,-0.094 3.369,0.126 3.805,0.525C4.368,1.042 4.687,1.797 4.701,2.652C4.722,3.789 4.195,4.969 3.258,5.89C2.254,6.876 1.127,7.397 0,7.397" style="fill:rgb(255,236,73);fill-rule:nonzero;"/>
            </g>
        </g>
        <g transform="matrix(4.16667,0,0,4.16667,0,7175.19)">
            <g transform="matrix(1,0,0,1,366.612,167.461)">
                <path d="M0,-7.455C-1.284,-7.455 -2.644,-6.838 -3.637,-5.805C-4.521,-4.886 -4.994,-3.611 -4.906,-2.395C-4.855,-1.699 -4.259,0.087 -2.098,-0.004L-2.085,-0.004C-0.954,-0.004 0.184,-0.534 1.204,-1.537C2.152,-2.468 2.685,-3.655 2.664,-4.795C2.65,-5.632 2.342,-6.367 1.797,-6.867C1.384,-7.246 0.746,-7.455 0,-7.455M-2.263,0.573C-4.72,0.573 -5.418,-1.524 -5.478,-2.353C-5.578,-3.728 -5.045,-5.168 -4.051,-6.202C-2.951,-7.346 -1.437,-8.028 0,-8.028C0.89,-8.028 1.665,-7.767 2.185,-7.29C2.847,-6.683 3.221,-5.801 3.238,-4.806C3.261,-3.509 2.666,-2.169 1.605,-1.128C0.478,-0.019 -0.797,0.567 -2.079,0.569C-2.142,0.572 -2.202,0.573 -2.263,0.573" style="fill:rgb(35,31,32);fill-rule:nonzero;"/>
            </g>
        </g>
        <g transform="matrix(4.16667,0,0,4.16667,0,7175.19)">
            <g transform="matrix(1,0,0,1,365.974,158.734)">
                <path d="M0,13.023C-1.307,13.023 -2.583,12.601 -3.691,11.742C-4.168,11.373 -5.332,10.38 -5.852,9.158C-5.913,9.011 -5.845,8.843 -5.699,8.782C-5.553,8.719 -5.385,8.788 -5.323,8.933C-4.844,10.063 -3.685,11.022 -3.341,11.289C-0.971,13.126 2.265,12.746 4.711,10.341C6.896,8.196 7.62,4.235 5.216,1.76C4.804,1.335 4.687,1.242 3.78,0.51L3.696,0.442C3.573,0.343 3.554,0.163 3.653,0.04C3.753,-0.084 3.934,-0.103 4.057,-0.004L4.141,0.064C5.051,0.798 5.19,0.911 5.628,1.361C6.735,2.502 7.342,4.145 7.29,5.87C7.234,7.692 6.462,9.426 5.113,10.751C3.584,12.252 1.766,13.023 0,13.023" style="fill:rgb(35,31,32);fill-rule:nonzero;"/>
            </g>
        </g>
        <g transform="matrix(4.16667,0,0,4.16667,0,7175.19)">
            <g transform="matrix(1,0,0,1,392.084,172.09)">
                <path d="M0,-13.137C0.987,-12.34 1.107,-12.246 1.545,-11.796C3.681,-9.597 3.796,-5.523 1.035,-2.81C-1.651,-0.17 -5.02,0 -7.393,-1.841C-8.028,-2.334 -9.018,-3.259 -9.464,-4.311L0,-13.137Z" style="fill:rgb(254,198,89);fill-rule:nonzero;"/>
            </g>
        </g>
        <g transform="matrix(4.16667,0,0,4.16667,0,7175.19)">
            <g transform="matrix(-0.730681,-0.682719,-0.682719,0.730681,381.344,164.235)">
                <path d="M-4.467,-11.201C-7.444,-11.229 -10.054,-8.425 -9.891,-4.609C-9.732,-0.896 -7.418,1.495 -4.467,1.767C-1.941,1.999 1.008,-0.832 0.955,-4.549C0.903,-8.264 -1.726,-11.176 -4.467,-11.201" style="fill:rgb(255,236,73);fill-rule:nonzero;"/>
            </g>
        </g>
        <g transform="matrix(4.16667,0,0,4.16667,0,7175.19)">
            <g transform="matrix(1,0,0,1,388.986,168.79)">
                <path d="M0,-10.585C-1.723,-10.585 -3.612,-9.804 -5.028,-8.331C-6.3,-7.008 -6.955,-5.232 -6.825,-3.458C-6.731,-2.165 -6.215,-1.065 -5.409,-0.44C-3.072,1.371 0.118,0.996 2.531,-1.375C3.852,-2.672 4.592,-4.368 4.563,-6.03C4.54,-7.396 4.012,-8.62 3.076,-9.479C2.261,-10.226 1.169,-10.585 0,-10.585M-2.115,1.278C-3.405,1.278 -4.666,0.861 -5.761,0.013C-6.694,-0.712 -7.291,-1.962 -7.397,-3.416C-7.539,-5.353 -6.825,-7.289 -5.441,-8.729C-2.855,-11.419 1.223,-11.956 3.464,-9.901C4.517,-8.936 5.11,-7.564 5.137,-6.04C5.168,-4.222 4.365,-2.372 2.933,-0.965C1.424,0.518 -0.372,1.278 -2.115,1.278" style="fill:rgb(35,31,32);fill-rule:nonzero;"/>
            </g>
        </g>
        <g transform="matrix(4.16667,0,0,4.16667,0,7175.19)">
            <g transform="matrix(1,0,0,1,386.76,159.819)">
                <path d="M0,7.924C-2.355,8.024 -3.047,6.089 -3.106,5.268C-3.201,3.972 -2.697,2.615 -1.759,1.639C-0.712,0.55 0.726,-0.1 2.085,-0.1C2.903,-0.1 3.609,0.135 4.076,0.563C4.68,1.116 5.021,1.926 5.036,2.841C5.058,4.06 4.494,5.323 3.49,6.31C2.415,7.366 1.208,7.924 0,7.924" style="fill:rgb(254,198,89);fill-rule:nonzero;"/>
            </g>
        </g>
        <g transform="matrix(4.16667,0,0,4.16667,0,7175.19)">
            <g transform="matrix(1,0,0,1,387.111,160.562)">
                <path d="M0,7.397C-2.199,7.491 -2.845,5.683 -2.9,4.917C-2.988,3.708 -2.518,2.441 -1.642,1.529C-0.665,0.513 0.677,-0.094 1.947,-0.094C2.71,-0.094 3.37,0.126 3.805,0.525C4.369,1.042 4.687,1.797 4.702,2.652C4.722,3.789 4.195,4.969 3.259,5.89C2.255,6.876 1.128,7.397 0,7.397" style="fill:rgb(255,236,73);fill-rule:nonzero;"/>
            </g>
        </g>
        <g transform="matrix(4.16667,0,0,4.16667,0,7175.19)">
            <g transform="matrix(1,0,0,1,388.845,167.461)">
                <path d="M0,-7.455C-1.283,-7.455 -2.644,-6.838 -3.637,-5.805C-4.52,-4.886 -4.994,-3.611 -4.905,-2.395C-4.854,-1.699 -4.259,0.087 -2.098,-0.004L-2.085,-0.004C-0.954,-0.004 0.184,-0.534 1.204,-1.537C2.152,-2.468 2.685,-3.655 2.665,-4.795C2.65,-5.632 2.342,-6.367 1.797,-6.867C1.384,-7.246 0.746,-7.455 0,-7.455M-2.262,0.573C-4.72,0.573 -5.417,-1.524 -5.478,-2.353C-5.578,-3.728 -5.044,-5.168 -4.05,-6.202C-2.95,-7.346 -1.437,-8.028 0,-8.028C0.89,-8.028 1.665,-7.767 2.185,-7.29C2.847,-6.683 3.221,-5.801 3.238,-4.806C3.261,-3.509 2.666,-2.169 1.606,-1.128C0.478,-0.019 -0.796,0.567 -2.079,0.569C-2.141,0.572 -2.202,0.573 -2.262,0.573" style="fill:rgb(35,31,32);fill-rule:nonzero;"/>
            </g>
        </g>
        <g transform="matrix(4.16667,0,0,4.16667,0,7175.19)">
            <g transform="matrix(1,0,0,1,388.207,158.734)">
                <path d="M0,13.023C-1.307,13.023 -2.583,12.601 -3.691,11.742C-4.168,11.373 -5.332,10.38 -5.851,9.158C-5.913,9.011 -5.845,8.843 -5.699,8.782C-5.553,8.719 -5.385,8.788 -5.323,8.933C-4.844,10.063 -3.684,11.022 -3.34,11.289C-0.971,13.126 2.265,12.746 4.711,10.341C6.896,8.196 7.62,4.235 5.217,1.76C4.804,1.335 4.687,1.242 3.781,0.51L3.696,0.442C3.573,0.343 3.554,0.163 3.653,0.04C3.753,-0.084 3.934,-0.103 4.057,-0.004L4.141,0.064C5.051,0.798 5.191,0.911 5.628,1.361C6.736,2.502 7.342,4.145 7.29,5.87C7.234,7.692 6.462,9.426 5.113,10.751C3.585,12.252 1.766,13.023 0,13.023" style="fill:rgb(35,31,32);fill-rule:nonzero;"/>
            </g>
        </g>
        <g transform="matrix(4.16667,0,0,4.16667,0,7175.19)">
            <g transform="matrix(1,0,0,1,166.98,172.818)">
                <path d="M0,-12.722C0.957,-11.951 1.073,-11.86 1.497,-11.423C3.564,-9.294 3.677,-5.348 1.003,-2.721C-1.6,-0.164 -4.861,0 -7.16,-1.783C-7.775,-2.26 -8.733,-3.156 -9.166,-4.174L0,-12.722Z" style="fill:rgb(0,148,216);fill-rule:nonzero;"/>
            </g>
        </g>
        <g transform="matrix(4.16667,0,0,4.16667,0,7175.19)">
            <g transform="matrix(-0.730666,-0.682735,-0.682735,0.730666,156.578,165.212)">
                <path d="M-4.326,-10.849C-7.209,-10.876 -9.737,-8.16 -9.579,-4.464C-9.424,-0.868 -7.184,1.448 -4.326,1.711C-1.879,1.937 0.976,-0.806 0.925,-4.405C0.874,-8.004 -1.672,-10.824 -4.326,-10.849" style="fill:rgb(14,194,243);fill-rule:nonzero;"/>
            </g>
        </g>
        <g transform="matrix(4.16667,0,0,4.16667,0,7175.19)">
            <g transform="matrix(1,0,0,1,163.98,169.623)">
                <path d="M0,-10.252C-1.668,-10.252 -3.499,-9.495 -4.87,-8.069C-6.102,-6.788 -6.736,-5.068 -6.61,-3.35C-6.52,-2.098 -6.019,-1.033 -5.239,-0.428C-2.976,1.327 0.114,0.964 2.451,-1.332C3.729,-2.588 4.447,-4.231 4.419,-5.841C4.396,-7.163 3.885,-8.35 2.979,-9.181C2.189,-9.904 1.132,-10.252 0,-10.252M-2.048,1.237C-3.298,1.237 -4.519,0.833 -5.579,0.012C-6.484,-0.69 -7.062,-1.9 -7.165,-3.31C-7.301,-5.185 -6.611,-7.06 -5.27,-8.454C-2.765,-11.06 1.184,-11.579 3.354,-9.59C4.374,-8.655 4.949,-7.327 4.975,-5.851C5.005,-4.09 4.227,-2.298 2.84,-0.936C1.378,0.5 -0.361,1.237 -2.048,1.237" style="fill:rgb(35,31,32);fill-rule:nonzero;"/>
            </g>
        </g>
        <g transform="matrix(4.16667,0,0,4.16667,0,7175.19)">
            <g transform="matrix(1,0,0,1,161.824,160.935)">
                <path d="M0,7.674C-2.281,7.771 -2.951,5.897 -3.008,5.101C-3.1,3.846 -2.612,2.532 -1.703,1.587C-0.689,0.532 0.703,-0.097 2.02,-0.097C2.812,-0.097 3.496,0.131 3.948,0.545C4.532,1.081 4.863,1.864 4.878,2.751C4.898,3.931 4.353,5.155 3.38,6.111C2.339,7.134 1.17,7.674 0,7.674" style="fill:rgb(0,148,216);fill-rule:nonzero;"/>
            </g>
        </g>
        <g transform="matrix(4.16667,0,0,4.16667,0,7175.19)">
            <g transform="matrix(1,0,0,1,162.164,161.654)">
                <path d="M0,7.164C-2.13,7.255 -2.755,5.505 -2.809,4.763C-2.895,3.591 -2.438,2.364 -1.59,1.481C-0.644,0.497 0.655,-0.091 1.885,-0.091C2.625,-0.091 3.264,0.122 3.685,0.509C4.231,1.009 4.54,1.74 4.554,2.568C4.573,3.67 4.063,4.812 3.155,5.704C2.183,6.659 1.092,7.164 0,7.164" style="fill:rgb(14,194,243);fill-rule:nonzero;"/>
            </g>
        </g>
        <g transform="matrix(4.16667,0,0,4.16667,0,7175.19)">
            <g transform="matrix(1,0,0,1,163.844,168.333)">
                <path d="M0,-7.218C-1.244,-7.218 -2.561,-6.62 -3.523,-5.619C-4.378,-4.73 -4.837,-3.495 -4.751,-2.318C-4.702,-1.644 -4.125,0.086 -2.032,-0.002L-2.02,-0.002C-0.924,-0.002 0.177,-0.516 1.166,-1.487C2.083,-2.388 2.599,-3.538 2.58,-4.643C2.566,-5.452 2.268,-6.165 1.74,-6.65C1.34,-7.016 0.722,-7.218 0,-7.218M-2.191,0.556C-4.571,0.556 -5.247,-1.474 -5.306,-2.278C-5.403,-3.61 -4.886,-5.003 -3.923,-6.004C-2.858,-7.113 -1.392,-7.774 0,-7.774C0.861,-7.774 1.612,-7.52 2.115,-7.059C2.757,-6.471 3.119,-5.615 3.136,-4.652C3.157,-3.397 2.581,-2.098 1.555,-1.09C0.462,-0.017 -0.772,0.552 -2.014,0.553C-2.074,0.555 -2.133,0.556 -2.191,0.556" style="fill:rgb(35,31,32);fill-rule:nonzero;"/>
            </g>
        </g>
        <g transform="matrix(4.16667,0,0,4.16667,0,7175.19)">
            <g transform="matrix(1,0,0,1,163.226,159.883)">
                <path d="M0,12.613C-1.266,12.613 -2.502,12.204 -3.576,11.372C-4.037,11.013 -5.165,10.053 -5.667,8.869C-5.727,8.727 -5.661,8.564 -5.52,8.505C-5.378,8.445 -5.215,8.51 -5.156,8.652C-4.691,9.746 -3.568,10.675 -3.235,10.932C-0.94,12.713 2.193,12.343 4.562,10.015C6.678,7.937 7.379,4.102 5.051,1.705C4.652,1.294 4.539,1.203 3.661,0.494L3.58,0.428C3.46,0.332 3.441,0.157 3.538,0.038C3.634,-0.081 3.809,-0.1 3.928,-0.004L4.01,0.062C4.892,0.773 5.027,0.883 5.45,1.318C6.523,2.423 7.11,4.014 7.06,5.684C7.006,7.45 6.257,9.129 4.951,10.412C3.471,11.867 1.709,12.612 0,12.613" style="fill:rgb(35,31,32);fill-rule:nonzero;"/>
            </g>
        </g>
        <g transform="matrix(4.16667,0,0,4.16667,0,7175.19)">
            <g transform="matrix(1,0,0,1,188.208,172.818)">
                <path d="M0,-12.722C0.957,-11.951 1.073,-11.86 1.497,-11.423C3.564,-9.294 3.677,-5.348 1.003,-2.721C-1.599,-0.164 -4.861,0 -7.159,-1.783C-7.775,-2.26 -8.733,-3.156 -9.165,-4.174L0,-12.722Z" style="fill:rgb(0,148,216);fill-rule:nonzero;"/>
            </g>
        </g>
        <g transform="matrix(4.16667,0,0,4.16667,0,7175.19)">
            <g transform="matrix(-0.730626,-0.682778,-0.682778,0.730626,177.807,165.211)">
                <path d="M-4.326,-10.849C-7.209,-10.876 -9.736,-8.16 -9.579,-4.465C-9.425,-0.869 -7.184,1.448 -4.326,1.712C-1.879,1.937 0.976,-0.805 0.926,-4.404C0.874,-8.004 -1.672,-10.824 -4.326,-10.849" style="fill:rgb(14,194,243);fill-rule:nonzero;"/>
            </g>
        </g>
        <g transform="matrix(4.16667,0,0,4.16667,0,7175.19)">
            <g transform="matrix(1,0,0,1,185.208,169.623)">
                <path d="M0,-10.252C-1.669,-10.252 -3.499,-9.495 -4.87,-8.069C-6.102,-6.788 -6.736,-5.068 -6.611,-3.35C-6.52,-2.098 -6.02,-1.033 -5.239,-0.428C-2.976,1.327 0.114,0.964 2.451,-1.332C3.729,-2.588 4.446,-4.231 4.419,-5.841C4.396,-7.163 3.885,-8.35 2.979,-9.181C2.189,-9.904 1.131,-10.252 0,-10.252M-2.049,1.237C-3.298,1.237 -4.52,0.833 -5.579,0.012C-6.484,-0.69 -7.062,-1.9 -7.165,-3.31C-7.302,-5.185 -6.611,-7.06 -5.271,-8.454C-2.766,-11.06 1.184,-11.579 3.354,-9.59C4.374,-8.655 4.949,-7.327 4.974,-5.851C5.004,-4.09 4.227,-2.298 2.84,-0.936C1.378,0.5 -0.361,1.237 -2.049,1.237" style="fill:rgb(35,31,32);fill-rule:nonzero;"/>
            </g>
        </g>
        <g transform="matrix(4.16667,0,0,4.16667,0,7175.19)">
            <g transform="matrix(1,0,0,1,183.053,160.935)">
                <path d="M0,7.674C-2.281,7.771 -2.951,5.897 -3.009,5.101C-3.101,3.846 -2.612,2.532 -1.703,1.587C-0.689,0.532 0.702,-0.097 2.02,-0.097C2.811,-0.097 3.496,0.131 3.947,0.545C4.532,1.081 4.862,1.864 4.877,2.751C4.898,3.931 4.352,5.155 3.38,6.111C2.339,7.134 1.169,7.674 0,7.674" style="fill:rgb(0,148,216);fill-rule:nonzero;"/>
            </g>
        </g>
        <g transform="matrix(4.16667,0,0,4.16667,0,7175.19)">
            <g transform="matrix(1,0,0,1,183.392,161.654)">
                <path d="M0,7.164C-2.13,7.255 -2.755,5.505 -2.809,4.763C-2.895,3.591 -2.438,2.364 -1.59,1.481C-0.644,0.497 0.656,-0.091 1.885,-0.091C2.625,-0.091 3.264,0.122 3.685,0.509C4.231,1.009 4.54,1.74 4.554,2.568C4.573,3.67 4.063,4.812 3.156,5.704C2.184,6.659 1.092,7.164 0,7.164" style="fill:rgb(14,194,243);fill-rule:nonzero;"/>
            </g>
        </g>
        <g transform="matrix(4.16667,0,0,4.16667,0,7175.19)">
            <g transform="matrix(1,0,0,1,185.072,168.333)">
                <path d="M0,-7.218C-1.244,-7.218 -2.56,-6.62 -3.522,-5.619C-4.378,-4.73 -4.837,-3.495 -4.751,-2.318C-4.702,-1.644 -4.125,0.086 -2.032,-0.002L-2.02,-0.002C-0.924,-0.002 0.177,-0.516 1.166,-1.487C2.084,-2.388 2.6,-3.538 2.58,-4.643C2.566,-5.452 2.268,-6.165 1.74,-6.65C1.34,-7.016 0.722,-7.218 0,-7.218M-2.191,0.556C-4.571,0.556 -5.247,-1.474 -5.306,-2.278C-5.402,-3.61 -4.886,-5.003 -3.923,-6.004C-2.858,-7.113 -1.392,-7.774 0,-7.774C0.861,-7.774 1.612,-7.52 2.115,-7.059C2.757,-6.471 3.119,-5.615 3.136,-4.652C3.157,-3.397 2.581,-2.098 1.555,-1.09C0.462,-0.017 -0.771,0.552 -2.014,0.553C-2.074,0.555 -2.133,0.556 -2.191,0.556" style="fill:rgb(35,31,32);fill-rule:nonzero;"/>
            </g>
        </g>
        <g transform="matrix(4.16667,0,0,4.16667,0,7175.19)">
            <g transform="matrix(1,0,0,1,184.454,159.883)">
                <path d="M0,12.613C-1.266,12.613 -2.502,12.204 -3.576,11.372C-4.037,11.013 -5.165,10.053 -5.667,8.869C-5.727,8.727 -5.661,8.564 -5.52,8.505C-5.378,8.445 -5.215,8.51 -5.156,8.652C-4.691,9.746 -3.568,10.675 -3.235,10.932C-0.94,12.713 2.193,12.343 4.562,10.015C6.678,7.937 7.379,4.102 5.052,1.705C4.652,1.294 4.54,1.203 3.661,0.494L3.58,0.428C3.46,0.332 3.441,0.157 3.538,0.038C3.634,-0.081 3.809,-0.1 3.928,-0.004L4.01,0.062C4.892,0.773 5.027,0.883 5.45,1.318C6.523,2.423 7.11,4.014 7.06,5.684C7.006,7.45 6.258,9.129 4.952,10.412C3.471,11.867 1.709,12.612 0,12.613" style="fill:rgb(35,31,32);fill-rule:nonzero;"/>
            </g>
        </g>
    </g>
</svg>
