<?xml version="1.0" encoding="UTF-8" standalone="no"?>
<!DOCTYPE svg PUBLIC "-//W3C//DTD SVG 1.1//EN" "http://www.w3.org/Graphics/SVG/1.1/DTD/svg11.dtd">
<svg width="100%" height="100%" viewBox="0 0 626 551" version="1.1" xmlns="http://www.w3.org/2000/svg" xmlns:xlink="http://www.w3.org/1999/xlink" xml:space="preserve" xmlns:serif="http://www.serif.com/" style="fill-rule:evenodd;clip-rule:evenodd;stroke-linejoin:round;stroke-miterlimit:2;">
    <g transform="matrix(1,0,0,1,-11167.5,-10265.1)">
        <g transform="matrix(5.55556,0,0,5.55556,10895.7,9566.92)">
            <g transform="matrix(1,0,0,1,140.201,141.707)">
                <path d="M0,66.847C-0.883,68.3 -1.617,69.776 -2.787,70.942C-3.969,72.122 -5.145,73.309 -6.321,74.49C-5.964,75.452 -5.271,75.766 -4.304,75.769C-3.206,75.771 -2.29,75.395 -1.441,74.743C-0.631,74.121 -0.149,73.411 -0.553,72.349C-0.584,72.265 -0.527,72.148 -0.512,72.056C-0.106,71.721 0.251,71.964 0.596,72.118C1.364,72.459 2.16,72.579 2.999,72.556C4.818,72.507 5.625,71.473 5.193,69.613C3.256,69.217 1.511,68.372 0,66.847M-69.41,72.085C-69.472,72.359 -69.53,72.628 -69.593,72.896C-69.69,73.309 -69.602,73.683 -69.331,74C-68.615,74.837 -67.746,75.513 -66.659,75.679C-65.232,75.897 -64.087,75.901 -63.655,74.409C-64.456,73.667 -65.297,72.948 -66.067,72.157C-66.838,71.365 -67.592,70.544 -68.253,69.659C-68.899,68.795 -69.42,67.836 -70.011,66.892C-70.514,67.315 -70.903,67.686 -71.334,67.997C-72.302,68.692 -73.378,69.153 -74.536,69.445C-75.36,69.652 -75.571,70.031 -75.394,70.842C-75.232,71.577 -74.269,72.552 -73.404,72.552C-72.469,72.551 -71.551,72.541 -70.672,72.154C-70.332,72.005 -69.979,71.735 -69.41,72.085M-72.981,58.659C-72.947,58.548 -72.913,58.482 -72.911,58.414C-72.907,58.307 -72.909,58.197 -72.935,58.093C-73.26,56.77 -74.031,55.779 -75.224,55.132C-76.966,54.19 -78.845,53.837 -80.811,53.879C-83.207,53.931 -85.475,55.524 -86.167,57.814C-86.663,59.458 -86.64,61.137 -85.8,62.712C-85.514,63.247 -85.214,63.78 -84.865,64.277C-82.425,67.758 -79.084,69.151 -74.906,68.456C-73.349,68.197 -72.019,67.427 -70.932,66.266C-70.686,66.002 -70.454,65.752 -70.612,65.324C-71.167,63.816 -71.696,62.297 -72.243,60.785C-72.303,60.621 -72.375,60.432 -72.502,60.328C-73.217,59.746 -73.964,59.205 -74.672,58.614C-75.864,57.62 -77.2,57.704 -78.529,58.152C-79.479,58.474 -80.241,59.146 -80.387,60.193C-80.562,61.459 -80.456,62.706 -79.383,63.641C-79.361,63.659 -79.41,63.76 -79.428,63.823C-80.339,63.645 -80.945,62.966 -81.053,61.902C-81.114,61.299 -81.102,60.685 -81.074,60.08C-81.062,59.804 -80.973,59.512 -80.844,59.266C-79.767,57.202 -76.529,56.35 -74.569,57.606C-74.038,57.947 -73.517,58.303 -72.981,58.659M9.082,63.839C9.415,63.564 9.552,63.472 9.663,63.355C10.526,62.445 10.789,60.529 10.191,59.541C9.149,57.821 6.552,57.292 4.907,58.456C4.24,58.929 3.626,59.461 3.002,59.983C2.565,60.347 2.252,60.685 2.076,61.207C1.665,62.425 1.278,63.655 0.784,64.839C0.463,65.614 0.661,66.14 1.259,66.612C1.538,66.834 1.809,67.072 2.105,67.27C4.334,68.761 6.759,68.958 9.297,68.318C11.742,67.702 13.559,66.229 14.951,64.165C15.911,62.741 16.585,61.256 16.5,59.475C16.355,56.442 14.093,54.487 12.071,54.07C9.622,53.566 7.316,54.04 5.132,55.194C4.319,55.624 3.753,56.314 3.281,57.091C3.012,57.536 2.897,57.994 3.047,58.535C3.21,58.462 3.344,58.412 3.467,58.343C3.654,58.238 3.853,58.141 4.012,58.002C5.351,56.827 6.905,56.813 8.458,57.322C11.043,58.17 11.796,60.479 10.731,62.835C10.564,63.203 10.201,63.497 9.885,63.776C9.776,63.872 9.532,63.812 9.082,63.839M-5.193,38.803C-6.742,38.213 -7.76,37.126 -8.643,35.883C-9.517,34.654 -10.125,33.302 -10.459,31.782C-10.814,31.944 -11.115,32.06 -11.395,32.211C-12.67,32.904 -14.012,33.055 -15.446,32.887C-17.172,32.685 -18.768,32.067 -20.39,31.519C-21.771,31.054 -22.983,30.323 -23.944,29.203C-23.981,29.16 -24.071,29.162 -24.145,29.14C-24.711,29.562 -25.254,30.031 -25.856,30.405C-28.258,31.899 -30.823,31.864 -33.396,31.005C-35.843,30.188 -37.736,28.548 -39.353,26.584C-40.079,25.702 -40.798,24.805 -41.103,23.663C-41.154,23.474 -41.268,23.301 -41.351,23.123C-44.65,24.539 -45.958,24.547 -48.932,23.87C-49.338,26.289 -50.94,27.817 -52.885,29.076C-54.86,30.355 -57.036,30.652 -59.35,30.246C-59.515,32.135 -59.995,33.804 -60.966,35.308C-61.926,36.796 -63.043,38.122 -64.741,38.803C-64.647,39.459 -64.507,40.052 -64.488,40.649C-64.453,41.83 -64.445,43.014 -64.499,44.193C-64.574,45.857 -65.002,47.433 -65.827,48.894C-66.361,49.838 -67.082,50.343 -68.21,50.011C-68.296,49.987 -68.405,50.04 -68.54,50.063C-68.56,50.217 -68.587,50.353 -68.596,50.49C-68.661,51.595 -68.701,52.702 -68.794,53.805C-68.873,54.742 -69.177,55.622 -69.644,56.439C-70.131,57.287 -70.806,57.786 -71.849,57.572C-71.941,57.554 -72.045,57.602 -72.266,57.639C-72.073,58.317 -71.926,58.968 -71.702,59.592C-71.227,60.903 -70.694,62.191 -70.221,63.501C-69.736,64.849 -69.211,66.168 -68.49,67.418C-66.976,70.042 -64.911,72.152 -62.477,73.896C-59.586,75.967 -56.294,77.328 -53.159,78.964C-52.939,79.079 -52.695,79.15 -52.458,79.233C-49.654,80.22 -46.786,80.948 -43.839,81.352C-42.496,81.536 -41.139,81.626 -39.804,81.855C-38.069,82.152 -36.327,82.199 -34.575,82.206C-32.925,82.213 -31.296,82.05 -29.67,81.788C-27.312,81.409 -24.93,81.151 -22.591,80.68C-20.138,80.186 -17.732,79.477 -15.486,78.331C-14.691,77.925 -13.946,77.402 -13.123,77.067C-11.688,76.483 -10.373,75.69 -9.058,74.899C-4.946,72.424 -1.854,69.062 -0.132,64.528C0.488,62.891 1.092,61.248 1.7,59.605C1.812,59.303 1.932,59.003 2.009,58.692C2.091,58.358 2.125,58.013 2.201,57.546C0.459,57.919 -0.258,56.918 -0.741,55.615C-0.9,55.182 -1.054,54.733 -1.108,54.278C-1.222,53.322 -1.279,52.36 -1.337,51.399C-1.364,50.945 -1.341,50.488 -1.341,50.08C-1.494,50.023 -1.525,50 -1.557,50C-1.664,50 -1.778,49.985 -1.874,50.016C-2.871,50.347 -3.597,49.917 -4.025,49.085C-4.495,48.173 -4.96,47.213 -5.172,46.219C-5.688,43.798 -5.861,41.345 -5.193,38.803M5.229,16.194C5.229,16.091 5.229,15.988 5.23,15.885C5.592,15.796 5.952,15.643 6.319,15.628C7.14,15.593 7.974,15.551 8.784,15.654C9.595,15.76 10.254,15.585 10.856,15.063C11.018,14.924 11.213,14.824 11.389,14.702C12.243,14.113 12.804,13.325 13.152,12.338C13.568,11.156 13.502,9.945 13.528,8.731C13.554,7.448 13.079,6.348 12.33,5.358C11.223,3.894 9.722,3.326 7.905,3.486C6.733,3.59 5.69,4.024 4.683,4.588C4.402,4.745 4.13,4.928 3.832,5.044C3.245,5.271 2.909,5.012 2.974,4.404C2.993,4.229 3.078,4.062 3.105,3.887C3.268,2.865 3.48,1.847 3.561,0.818C3.609,0.189 3.548,-0.483 3.37,-1.088C2.932,-2.566 2.122,-3.79 0.476,-4.075C-0.285,-4.207 -1.125,-4.242 -1.867,-4.062C-3.907,-3.567 -5.739,-2.594 -7.353,-1.238C-7.595,-1.035 -7.783,-0.763 -7.987,-0.516C-8.207,-0.249 -8.339,0.153 -8.793,0.068C-9.107,0.01 -9.204,-0.4 -8.975,-1.071C-8.622,-2.109 -8.623,-3.178 -8.559,-4.248C-8.479,-5.592 -8.972,-6.701 -9.852,-7.66C-10.236,-8.08 -10.661,-8.476 -11.122,-8.809C-13.276,-10.369 -15.673,-11.153 -18.358,-11.056C-19.404,-11.018 -20.322,-10.72 -21.143,-10.093C-22.166,-9.31 -22.889,-8.275 -23.321,-7.092C-23.617,-6.285 -24.225,-5.729 -24.639,-5.026C-24.793,-4.766 -25.09,-4.494 -25.442,-4.792C-25.719,-5.028 -25.576,-5.297 -25.422,-5.56C-25.077,-6.145 -24.737,-6.734 -24.419,-7.334C-24.287,-7.583 -24.144,-7.861 -24.13,-8.133C-24.058,-9.522 -24.254,-10.902 -25.132,-11.997C-26.882,-14.182 -29.105,-15.472 -32.032,-15.113C-32.718,-15.03 -33.375,-14.866 -33.78,-14.218C-34.022,-13.83 -34.268,-13.445 -34.513,-13.06C-34.768,-12.659 -35.207,-12.655 -35.456,-13.063C-35.548,-13.213 -35.574,-13.405 -35.67,-13.552C-36.145,-14.289 -36.702,-14.974 -37.634,-15.072C-39.067,-15.225 -40.493,-15.235 -41.821,-14.51C-42.837,-13.955 -43.746,-13.267 -44.536,-12.429C-45.5,-11.406 -45.697,-10.098 -45.902,-8.777C-46.033,-7.937 -45.557,-7.343 -45.238,-6.679C-45.068,-6.326 -44.836,-6.003 -44.637,-5.663C-44.325,-5.13 -44.304,-4.854 -44.589,-4.736C-45.02,-4.559 -45.274,-4.865 -45.462,-5.161C-45.937,-5.909 -46.513,-6.578 -46.84,-7.442C-47.11,-8.156 -47.626,-8.803 -48.128,-9.401C-49.075,-10.528 -50.302,-11.037 -51.808,-11.061C-54.701,-11.108 -57.231,-10.185 -59.433,-8.377C-60.756,-7.29 -61.562,-5.909 -61.488,-4.093C-61.446,-3.084 -61.317,-2.104 -61.038,-1.139C-60.978,-0.933 -60.86,-0.726 -60.87,-0.525C-60.879,-0.338 -60.977,-0.075 -61.118,0.003C-61.245,0.072 -61.499,-0.039 -61.67,-0.123C-61.788,-0.182 -61.878,-0.322 -61.95,-0.443C-62.365,-1.145 -62.997,-1.625 -63.673,-2.023C-64.629,-2.582 -65.616,-3.09 -66.609,-3.58C-67.522,-4.029 -68.496,-4.187 -69.524,-4.167C-71.729,-4.122 -73.401,-2.57 -73.506,-0.351C-73.562,0.827 -73.566,2.012 -73.282,3.172C-73.181,3.588 -73.029,3.994 -72.951,4.414C-72.854,4.934 -73.215,5.237 -73.726,5.073C-73.961,4.998 -74.171,4.845 -74.398,4.741C-75.144,4.397 -75.865,3.967 -76.645,3.736C-78.856,3.081 -80.904,3.528 -82.257,5.284C-82.81,5.999 -83.216,6.781 -83.419,7.674C-83.754,9.144 -83.599,10.585 -83.248,12.022C-82.971,13.152 -82.324,14.026 -81.387,14.695C-81.096,14.902 -80.762,15.055 -80.495,15.288C-80.083,15.646 -79.644,15.711 -79.109,15.673C-78.147,15.603 -77.178,15.619 -76.212,15.63C-75.84,15.633 -75.443,15.673 -75.179,16.219C-75.824,16.313 -76.378,16.432 -76.939,16.468C-78.435,16.565 -79.94,16.573 -81.432,16.721C-82.672,16.844 -83.915,17.042 -85.125,17.336C-86.721,17.725 -87.926,18.693 -88.798,20.106C-89.959,21.989 -90.053,24.032 -89.733,26.117C-89.418,28.159 -88.263,29.75 -86.691,31.023C-85.861,31.695 -84.94,32.255 -84.053,32.857C-83.81,33.022 -83.53,33.168 -83.671,33.521C-83.802,33.843 -84.085,33.864 -84.395,33.804C-84.601,33.764 -84.824,33.723 -85.026,33.759C-86.72,34.063 -88.216,34.753 -89.468,35.971C-90.631,37.101 -90.798,39.597 -89.009,40.748C-88.038,41.373 -87.03,41.896 -85.929,42.239C-85.657,42.324 -85.369,42.38 -85.113,42.503C-84.792,42.659 -84.791,43.114 -85.105,43.28C-85.292,43.378 -85.518,43.4 -85.713,43.487C-86.33,43.766 -86.967,44.015 -87.549,44.355C-90.206,45.908 -90.294,48.922 -88.867,51.063C-88.078,52.247 -86.917,53.055 -85.749,53.817C-85.458,54.007 -84.997,54.026 -84.63,53.987C-84.252,53.945 -83.9,53.707 -83.523,53.603C-82.735,53.387 -81.947,53.093 -81.143,53.029C-79.526,52.901 -77.948,53.206 -76.383,53.645C-74.92,54.054 -73.981,55.267 -72.673,55.898C-72.596,55.935 -72.578,56.086 -72.516,56.172C-72.009,56.873 -71.139,56.946 -70.656,56.257C-70.335,55.799 -70.086,55.257 -69.937,54.716C-69.472,53.035 -69.622,51.309 -69.667,49.593C-69.673,49.363 -69.859,49.142 -69.93,48.907C-70.009,48.641 -70.112,48.361 -70.096,48.093C-70.075,47.716 -69.67,47.559 -69.389,47.813C-69.182,47.998 -69.05,48.263 -68.874,48.484C-68.12,49.432 -67.18,49.37 -66.576,48.328C-66.433,48.082 -66.312,47.821 -66.199,47.558C-65.152,45.14 -65.29,42.593 -65.45,40.057C-65.487,39.475 -65.686,38.86 -66.223,38.455C-66.321,38.381 -66.348,38.214 -66.394,38.118C-66.184,37.7 -65.854,37.706 -65.541,37.815C-65.15,37.951 -64.827,37.824 -64.531,37.619C-64.15,37.357 -63.76,37.088 -63.439,36.758C-61.642,34.915 -60.484,32.751 -60.174,30.113C-60.487,29.988 -60.78,29.869 -61.074,29.752C-62.091,29.351 -63.017,28.782 -63.667,27.907C-64.151,27.257 -64.533,26.512 -64.847,25.762C-65.088,25.186 -64.953,25.034 -64.327,24.704C-64.276,24.88 -64.225,25.045 -64.181,25.21C-63.895,26.29 -63.307,27.206 -62.395,27.815C-59.874,29.498 -57.175,29.857 -54.359,28.606C-52.894,27.956 -51.709,26.912 -50.696,25.682C-50.18,25.054 -49.748,24.366 -49.503,23.558C-49.72,23.418 -49.87,23.324 -50.016,23.227C-51.66,22.14 -52.972,20.752 -53.876,18.989C-54.282,18.196 -54.453,17.373 -54.185,16.506C-54.137,16.348 -53.947,16.232 -53.725,15.993C-53.63,16.335 -53.519,16.53 -53.533,16.716C-53.598,17.514 -53.281,18.187 -52.894,18.839C-52.098,20.182 -51.069,21.323 -49.762,22.18C-48.437,23.048 -46.962,23.509 -45.382,23.263C-44.404,23.111 -43.428,22.805 -42.513,22.422C-40.784,21.695 -39.238,20.663 -37.962,19.262C-37.784,19.067 -37.629,18.807 -37.173,18.905C-37.59,20.754 -39.113,21.583 -40.376,22.603C-40.403,23.246 -40.139,23.748 -39.833,24.235C-38.658,26.117 -37.128,27.662 -35.284,28.879C-34.575,29.347 -33.792,29.742 -32.992,30.026C-31.236,30.648 -29.403,30.883 -27.651,30.123C-25.013,28.979 -23.104,27.171 -22.846,24.088C-22.831,23.92 -22.707,23.759 -22.633,23.595C-22.562,23.606 -22.491,23.618 -22.419,23.63C-22.397,24.15 -22.368,24.67 -22.357,25.191C-22.331,26.345 -22.924,27.302 -23.428,28.281C-22.759,29.234 -21.883,29.863 -20.872,30.239C-19.333,30.811 -17.781,31.383 -16.19,31.771C-13.643,32.391 -10.897,31.557 -9.457,29.192C-9.327,28.98 -9.188,28.757 -9.003,28.598C-8.831,28.45 -8.59,28.382 -8.391,28.286C-8.053,28.697 -8.197,29.026 -8.4,29.332C-8.716,29.808 -9.046,30.276 -9.387,30.734C-9.642,31.077 -9.708,31.402 -9.548,31.828C-8.836,33.724 -7.926,35.494 -6.411,36.888C-5.776,37.472 -5.143,38.068 -4.148,37.779C-4.029,37.743 -3.78,37.875 -3.722,37.993C-3.663,38.114 -3.707,38.377 -3.806,38.469C-4.414,39.03 -4.457,39.776 -4.585,40.52C-4.847,42.029 -4.616,43.528 -4.488,45.015C-4.378,46.295 -3.972,47.538 -3.227,48.627C-2.838,49.195 -2.483,49.317 -1.862,49.037C-1.582,48.909 -1.34,48.679 -1.114,48.462C-0.937,48.292 -0.844,48.026 -0.653,47.882C-0.512,47.774 -0.228,47.706 -0.094,47.778C0.05,47.855 0.161,48.119 0.163,48.301C0.164,48.496 0.016,48.691 -0.059,48.888C-0.185,49.219 -0.396,49.547 -0.414,49.885C-0.496,51.387 -0.496,52.896 -0.147,54.367C0,54.983 0.25,55.599 0.576,56.142C1.066,56.961 2.009,56.919 2.546,56.129C2.637,55.994 2.768,55.877 2.9,55.781C3.151,55.596 3.417,55.433 3.677,55.261C4.362,54.81 5.005,54.273 5.74,53.93C7.047,53.319 8.472,53.096 9.906,53.011C11.243,52.931 12.547,53.081 13.762,53.716C14.011,53.846 14.302,53.894 14.572,53.986C14.972,54.123 15.354,54.076 15.704,53.852C16.949,53.059 18.097,52.155 18.968,50.941C19.915,49.621 20.219,46.901 18.766,45.329C17.948,44.444 16.92,43.87 15.781,43.491C15.544,43.413 15.294,43.36 15.074,43.248C14.779,43.097 14.759,42.71 15.045,42.554C15.291,42.419 15.575,42.348 15.847,42.264C17.088,41.881 18.232,41.324 19.275,40.533C20.572,39.55 20.778,37.479 19.665,36.228C19.334,35.856 18.983,35.475 18.569,35.208C17.272,34.366 15.929,33.633 14.285,33.808C14.1,33.827 13.804,33.646 13.709,33.474C13.567,33.222 13.779,33.011 14.015,32.878C14.077,32.842 14.147,32.821 14.206,32.782C14.778,32.414 15.367,32.07 15.914,31.669C19.048,29.365 20.544,26.344 19.712,22.439C19.105,19.597 17.38,17.71 14.457,17.153C13.06,16.886 11.625,16.8 10.203,16.677C8.922,16.567 7.635,16.532 6.354,16.435C5.975,16.405 5.603,16.276 5.229,16.194M-23.347,-9.174C-23.099,-9.455 -22.9,-9.7 -22.682,-9.928C-21.466,-11.199 -20.023,-11.916 -18.217,-11.929C-15.24,-11.952 -12.591,-11.068 -10.238,-9.256C-9.462,-8.658 -8.845,-7.923 -8.345,-7.084C-7.693,-5.991 -7.593,-4.793 -7.656,-3.564C-7.677,-3.144 -7.719,-2.724 -7.763,-2.161C-7.389,-2.372 -7.147,-2.498 -6.916,-2.642C-5.637,-3.44 -4.32,-4.16 -2.881,-4.63C-1.844,-4.966 -0.789,-5.054 0.295,-4.931C1.992,-4.739 3.106,-3.78 3.822,-2.298C4.413,-1.071 4.536,0.243 4.422,1.579C4.362,2.283 4.232,2.981 4.113,3.825C4.46,3.695 4.749,3.616 5.01,3.482C6.149,2.898 7.345,2.661 8.63,2.67C10.594,2.682 12.081,3.529 13.162,5.098C13.946,6.235 14.41,7.499 14.39,8.919C14.373,10.031 14.375,11.133 14.059,12.216C13.673,13.538 12.981,14.623 11.803,15.37C11.661,15.461 11.541,15.584 11.329,15.759C12.425,15.926 13.414,16.058 14.396,16.231C18.19,16.902 20.731,19.876 20.816,23.716C20.841,24.867 20.757,25.998 20.456,27.115C19.867,29.305 18.402,30.843 16.713,32.219C16.446,32.436 16.169,32.642 15.814,32.918C16.369,33.121 16.806,33.27 17.236,33.439C18.457,33.915 19.523,34.617 20.364,35.635C21.796,37.37 21.616,39.766 19.892,41.194C19.32,41.667 18.638,42.012 17.996,42.396C17.693,42.576 17.365,42.712 16.915,42.934C17.265,43.138 17.521,43.284 17.774,43.437C18.671,43.984 19.506,44.613 19.992,45.568C21.069,47.681 20.832,49.727 19.507,51.641C18.636,52.898 17.385,53.756 16.117,54.574C15.969,54.67 15.808,54.747 15.593,54.866C15.704,55.058 15.786,55.247 15.908,55.405C17.73,57.763 17.906,60.354 16.752,62.991C15.632,65.552 13.834,67.569 11.214,68.727C10.029,69.251 8.794,69.598 7.478,69.567C7.09,69.559 6.7,69.598 6.235,69.619C6.221,69.9 6.164,70.143 6.204,70.37C6.449,71.748 4.883,73.464 3.25,73.401C2.366,73.367 1.485,73.247 0.53,73.159C0.26,74.959 -1.141,75.866 -2.775,76.376C-4.485,76.91 -6.12,76.695 -7.256,75.018C-8.224,75.585 -9.106,76.127 -10.01,76.625C-10.76,77.04 -11.535,77.409 -12.303,77.792C-12.655,77.968 -13.036,78.094 -13.364,78.306C-15.742,79.848 -18.402,80.677 -21.111,81.369C-23.152,81.891 -25.216,82.297 -27.324,82.478C-28.602,82.588 -29.864,82.955 -31.14,82.998C-33.706,83.083 -36.279,83.099 -38.845,83.002C-40.444,82.942 -42.042,82.683 -43.622,82.407C-45.66,82.05 -47.696,81.654 -49.7,81.146C-52.096,80.541 -54.384,79.654 -56.537,78.38C-58.53,77.201 -60.647,76.229 -62.772,75.135C-62.888,75.232 -63.121,75.361 -63.257,75.558C-63.758,76.275 -64.49,76.514 -65.297,76.578C-67.286,76.738 -68.852,75.913 -70.061,74.394C-70.336,74.049 -70.427,73.559 -70.585,73.177C-71.491,73.254 -72.404,73.388 -73.317,73.394C-74.305,73.4 -75.094,72.929 -75.679,72.119C-75.984,71.697 -76.169,71.255 -76.138,70.725C-76.118,70.404 -76.134,70.083 -76.134,69.782C-76.461,69.459 -76.842,69.583 -77.181,69.581C-81.03,69.546 -83.833,67.701 -85.897,64.569C-86.631,63.455 -87.208,62.289 -87.358,60.924C-87.58,58.92 -87.243,57.083 -85.967,55.472C-85.9,55.389 -85.821,55.315 -85.756,55.229C-85.694,55.146 -85.641,55.056 -85.573,54.95C-86.302,54.432 -87.048,53.957 -87.73,53.405C-88.311,52.934 -88.85,52.402 -89.354,51.848C-90.858,50.199 -91.116,46.52 -89.514,44.884C-88.993,44.353 -88.376,43.915 -87.784,43.458C-87.54,43.269 -87.247,43.145 -86.932,42.967C-87.762,42.509 -88.557,42.11 -89.307,41.644C-90.389,40.972 -91.11,40.055 -91.241,38.718C-91.342,37.676 -91.188,36.729 -90.561,35.877C-89.588,34.553 -88.224,33.799 -86.726,33.241C-86.492,33.153 -86.252,33.085 -86.015,33.006C-85.982,32.995 -85.956,32.966 -85.84,32.887C-86.261,32.557 -86.667,32.249 -87.063,31.929C-88.87,30.469 -90.253,28.707 -90.609,26.355C-90.952,24.099 -90.895,21.866 -89.686,19.798C-88.696,18.103 -87.305,16.933 -85.4,16.473C-84.086,16.156 -82.736,15.981 -81.331,15.73C-81.531,15.576 -81.684,15.437 -81.856,15.33C-83.461,14.33 -84.088,12.764 -84.271,10.995C-84.369,10.038 -84.336,9.062 -84.29,8.097C-84.177,5.721 -82.243,3.332 -79.931,2.821C-78.365,2.475 -76.799,2.602 -75.324,3.328C-74.983,3.496 -74.631,3.64 -74.196,3.833C-74.196,3.511 -74.186,3.305 -74.198,3.099C-74.262,2.067 -74.364,1.036 -74.39,0.003C-74.417,-1.145 -73.994,-2.17 -73.353,-3.102C-72.166,-4.827 -70.423,-5.142 -68.507,-4.937C-66.944,-4.77 -65.567,-4.069 -64.217,-3.322C-63.595,-2.979 -62.999,-2.592 -62.36,-2.206C-62.36,-2.85 -62.329,-3.439 -62.365,-4.024C-62.492,-6.102 -61.564,-7.702 -60.053,-8.988C-57.478,-11.177 -54.465,-12.119 -51.102,-11.899C-49.806,-11.813 -48.702,-11.231 -47.759,-10.349C-47.42,-10.033 -47.096,-9.699 -46.701,-9.311C-46.615,-9.565 -46.505,-9.778 -46.468,-10.004C-46.23,-11.479 -45.536,-12.676 -44.409,-13.663C-43.204,-14.719 -41.915,-15.616 -40.312,-15.873C-39.472,-16.008 -38.598,-16.006 -37.746,-15.952C-36.615,-15.881 -35.739,-15.265 -35.034,-14.306C-34.822,-14.498 -34.647,-14.614 -34.528,-14.773C-33.836,-15.689 -32.84,-15.91 -31.783,-16C-28.879,-16.252 -26.685,-14.891 -24.798,-12.881C-24.228,-12.274 -23.876,-11.52 -23.683,-10.703C-23.57,-10.221 -23.47,-9.735 -23.347,-9.174" style="fill:rgb(35,31,32);fill-rule:nonzero;"/>
            </g>
        </g>
        <g transform="matrix(5.55556,0,0,5.55556,10895.7,9566.92)">
            <g transform="matrix(1,0,0,1,145.43,167.001)">
                <path d="M0,-9.101C0.374,-9.018 0.746,-8.889 1.125,-8.86C2.407,-8.762 3.694,-8.728 4.975,-8.617C6.396,-8.495 7.831,-8.408 9.229,-8.141C12.151,-7.584 13.877,-5.696 14.483,-2.855C15.315,1.051 13.819,4.071 10.685,6.374C10.138,6.776 9.549,7.119 8.978,7.487C8.918,7.526 8.848,7.547 8.786,7.583C8.55,7.716 8.339,7.927 8.48,8.179C8.577,8.351 8.871,8.533 9.056,8.514C10.701,8.338 12.043,9.072 13.341,9.913C13.754,10.181 14.106,10.561 14.436,10.934C15.55,12.184 15.344,14.257 14.047,15.239C13.004,16.029 11.86,16.588 10.619,16.969C10.346,17.053 10.062,17.124 9.816,17.259C9.531,17.416 9.55,17.803 9.845,17.953C10.065,18.066 10.316,18.118 10.554,18.197C11.692,18.575 12.719,19.149 13.537,20.034C14.99,21.607 14.686,24.327 13.739,25.647C12.868,26.861 11.721,27.764 10.475,28.559C10.126,28.782 9.744,28.829 9.343,28.692C9.073,28.6 8.782,28.552 8.533,28.422C7.318,27.787 6.016,27.636 4.677,27.716C3.243,27.802 1.818,28.025 0.511,28.635C-0.224,28.978 -0.867,29.516 -1.551,29.967C-1.811,30.138 -2.078,30.303 -2.329,30.486C-2.461,30.583 -2.591,30.7 -2.682,30.835C-3.22,31.625 -4.163,31.666 -4.653,30.847C-4.979,30.305 -5.229,29.688 -5.374,29.073C-5.724,27.601 -5.723,26.092 -5.642,24.591C-5.624,24.253 -5.414,23.925 -5.288,23.593C-5.213,23.396 -5.065,23.202 -5.066,23.007C-5.067,22.824 -5.178,22.561 -5.323,22.483C-5.457,22.411 -5.741,22.479 -5.881,22.587C-6.071,22.732 -6.166,22.997 -6.343,23.167C-6.569,23.385 -6.811,23.615 -7.091,23.742C-7.712,24.024 -8.066,23.902 -8.455,23.332C-9.201,22.244 -9.606,21.001 -9.717,19.722C-9.844,18.233 -10.075,16.735 -9.814,15.226C-9.686,14.482 -9.643,13.736 -9.034,13.175C-8.936,13.083 -8.892,12.819 -8.951,12.698C-9.009,12.581 -9.258,12.45 -9.376,12.484C-10.372,12.774 -11.005,12.178 -11.639,11.593C-13.154,10.199 -14.064,8.43 -14.776,6.533C-14.937,6.108 -14.871,5.782 -14.615,5.439C-14.274,4.981 -13.945,4.513 -13.628,4.037C-13.426,3.732 -13.281,3.403 -13.619,2.991C-13.819,3.088 -14.059,3.156 -14.232,3.303C-14.417,3.462 -14.555,3.685 -14.686,3.898C-16.126,6.263 -18.871,7.097 -21.417,6.476C-23.009,6.088 -24.562,5.518 -26.1,4.946C-27.112,4.569 -27.987,3.939 -28.657,2.986C-28.153,2.007 -27.56,1.052 -27.585,-0.103C-27.597,-0.624 -27.626,-1.144 -27.648,-1.664C-27.719,-1.676 -27.79,-1.687 -27.862,-1.7C-27.936,-1.535 -28.06,-1.375 -28.074,-1.206C-28.333,1.878 -30.242,3.684 -32.88,4.829C-34.632,5.59 -36.464,5.355 -38.221,4.731C-39.021,4.447 -39.804,4.052 -40.513,3.584C-42.356,2.367 -43.887,0.823 -45.062,-1.06C-45.366,-1.547 -45.632,-2.049 -45.605,-2.692C-44.342,-3.711 -42.819,-4.541 -42.401,-6.389C-42.858,-6.488 -43.013,-6.228 -43.19,-6.032C-44.466,-4.63 -46.013,-3.599 -47.742,-2.873C-48.657,-2.488 -49.633,-2.184 -50.61,-2.031C-52.19,-1.785 -53.666,-2.247 -54.991,-3.115C-56.298,-3.972 -57.326,-5.112 -58.123,-6.455C-58.509,-7.108 -58.827,-7.78 -58.762,-8.578C-58.747,-8.763 -58.859,-8.96 -58.954,-9.301C-59.176,-9.061 -59.365,-8.946 -59.414,-8.789C-59.681,-7.922 -59.511,-7.099 -59.105,-6.306C-58.201,-4.543 -56.889,-3.155 -55.244,-2.067C-55.098,-1.97 -54.949,-1.876 -54.732,-1.736C-54.976,-0.928 -55.409,-0.241 -55.925,0.388C-56.938,1.618 -58.123,2.661 -59.588,3.312C-62.404,4.563 -65.103,4.205 -67.624,2.52C-68.535,1.911 -69.124,0.996 -69.41,-0.085C-69.454,-0.25 -69.505,-0.414 -69.556,-0.591C-70.182,-0.261 -70.317,-0.108 -70.076,0.468C-69.762,1.218 -69.38,1.962 -68.896,2.613C-68.246,3.489 -67.32,4.056 -66.303,4.458C-66.009,4.574 -65.716,4.693 -65.403,4.818C-65.712,7.457 -66.871,9.62 -68.667,11.464C-68.989,11.793 -69.379,12.062 -69.76,12.326C-70.056,12.529 -70.379,12.656 -70.769,12.521C-71.082,12.412 -71.413,12.405 -71.623,12.823C-71.576,12.921 -71.55,13.088 -71.452,13.16C-70.914,13.565 -70.716,14.181 -70.679,14.763C-70.519,17.298 -70.38,19.845 -71.427,22.264C-71.541,22.526 -71.662,22.788 -71.804,23.035C-72.409,24.076 -73.349,24.138 -74.103,23.19C-74.278,22.969 -74.411,22.703 -74.617,22.518C-74.899,22.266 -75.302,22.421 -75.325,22.799C-75.34,23.066 -75.237,23.347 -75.158,23.613C-75.088,23.848 -74.901,24.069 -74.894,24.3C-74.851,26.014 -74.701,27.741 -75.166,29.422C-75.315,29.963 -75.563,30.504 -75.884,30.962C-76.368,31.651 -77.237,31.579 -77.743,30.878C-77.807,30.792 -77.824,30.642 -77.902,30.603C-79.21,29.972 -80.149,28.759 -81.612,28.35C-83.177,27.912 -84.755,27.607 -86.371,27.736C-87.176,27.8 -87.964,28.093 -88.752,28.31C-89.129,28.412 -89.48,28.652 -89.859,28.692C-90.226,28.733 -90.686,28.713 -90.978,28.522C-92.146,27.76 -93.306,26.953 -94.096,25.77C-95.523,23.628 -95.435,20.614 -92.778,19.06C-92.195,18.721 -91.558,18.472 -90.942,18.194C-90.747,18.105 -90.52,18.084 -90.333,17.985C-90.019,17.82 -90.02,17.364 -90.342,17.209C-90.598,17.086 -90.885,17.03 -91.158,16.945C-92.259,16.601 -93.267,16.078 -94.237,15.453C-96.027,14.303 -95.86,11.807 -94.697,10.676C-93.444,9.459 -91.948,8.768 -90.254,8.465C-90.052,8.429 -89.829,8.47 -89.624,8.51C-89.312,8.57 -89.031,8.55 -88.9,8.226C-88.758,7.874 -89.039,7.729 -89.282,7.563C-90.168,6.961 -91.09,6.401 -91.919,5.729C-93.492,4.455 -94.647,2.865 -94.962,0.823C-95.282,-1.262 -95.188,-3.305 -94.026,-5.188C-93.154,-6.601 -91.95,-7.57 -90.353,-7.957C-89.144,-8.252 -87.9,-8.451 -86.66,-8.573C-85.169,-8.72 -83.664,-8.729 -82.167,-8.826C-81.607,-8.863 -81.052,-8.981 -80.407,-9.076C-80.671,-9.622 -81.069,-9.661 -81.441,-9.665C-82.407,-9.675 -83.375,-9.691 -84.338,-9.622C-84.873,-9.583 -85.312,-9.648 -85.724,-10.007C-85.99,-10.24 -86.325,-10.392 -86.616,-10.6C-87.552,-11.268 -88.2,-12.142 -88.477,-13.273C-88.828,-14.709 -88.983,-16.15 -88.648,-17.621C-88.444,-18.514 -88.038,-19.295 -87.486,-20.011C-86.133,-21.767 -84.084,-22.214 -81.874,-21.558C-81.093,-21.327 -80.373,-20.898 -79.627,-20.554C-79.4,-20.449 -79.19,-20.297 -78.955,-20.221C-78.443,-20.057 -78.082,-20.36 -78.18,-20.881C-78.258,-21.301 -78.41,-21.707 -78.511,-22.123C-78.794,-23.283 -78.79,-24.467 -78.735,-25.646C-78.629,-27.865 -76.957,-29.415 -74.752,-29.46C-73.725,-29.482 -72.751,-29.324 -71.838,-28.874C-70.845,-28.385 -69.857,-27.877 -68.902,-27.317C-68.226,-26.92 -67.594,-26.439 -67.178,-25.737C-67.106,-25.615 -67.016,-25.477 -66.899,-25.418C-66.728,-25.333 -66.474,-25.222 -66.347,-25.292C-66.205,-25.369 -66.107,-25.632 -66.098,-25.82C-66.089,-26.021 -66.207,-26.228 -66.266,-26.433C-66.546,-27.398 -66.675,-28.378 -66.717,-29.388C-66.791,-31.203 -65.985,-32.585 -64.662,-33.671C-62.46,-35.48 -59.929,-36.403 -57.037,-36.356C-55.531,-36.331 -54.304,-35.823 -53.356,-34.695C-52.854,-34.098 -52.338,-33.451 -52.069,-32.737C-51.742,-31.872 -51.166,-31.203 -50.691,-30.455C-50.503,-30.158 -50.247,-29.854 -49.818,-30.03C-49.532,-30.148 -49.552,-30.425 -49.866,-30.958C-50.065,-31.298 -50.297,-31.62 -50.467,-31.973C-50.786,-32.638 -51.261,-33.23 -51.131,-34.072C-50.925,-35.392 -50.729,-36.701 -49.765,-37.722C-48.975,-38.562 -48.065,-39.25 -47.05,-39.804C-45.722,-40.53 -44.295,-40.518 -42.863,-40.367C-41.93,-40.267 -41.374,-39.583 -40.898,-38.847C-40.803,-38.699 -40.776,-38.507 -40.684,-38.356C-40.436,-37.949 -39.997,-37.952 -39.742,-38.354C-39.496,-38.739 -39.25,-39.124 -39.008,-39.512C-38.604,-40.16 -37.946,-40.324 -37.261,-40.408C-34.333,-40.767 -32.111,-39.477 -30.36,-37.292C-29.483,-36.196 -29.286,-34.816 -29.359,-33.427C-29.373,-33.156 -29.515,-32.878 -29.647,-32.629C-29.965,-32.028 -30.306,-31.439 -30.651,-30.853C-30.805,-30.592 -30.948,-30.323 -30.671,-30.087C-30.319,-29.789 -30.021,-30.061 -29.868,-30.32C-29.454,-31.023 -28.846,-31.579 -28.55,-32.387C-28.117,-33.569 -27.395,-34.604 -26.371,-35.386C-25.551,-36.015 -24.633,-36.312 -23.586,-36.35C-20.902,-36.446 -18.505,-35.663 -16.35,-34.103C-15.89,-33.77 -15.464,-33.374 -15.079,-32.954C-14.201,-31.996 -13.707,-30.887 -13.788,-29.543C-13.852,-28.472 -13.85,-27.403 -14.204,-26.366C-14.433,-25.694 -14.335,-25.283 -14.022,-25.226C-13.567,-25.142 -13.436,-25.544 -13.216,-25.81C-13.012,-26.058 -12.824,-26.329 -12.58,-26.533C-10.967,-27.888 -9.136,-28.862 -7.096,-29.356C-6.354,-29.537 -5.513,-29.501 -4.752,-29.37C-3.105,-29.085 -2.295,-27.861 -1.859,-26.382C-1.68,-25.778 -1.619,-25.105 -1.668,-24.476C-1.748,-23.448 -1.96,-22.429 -2.123,-21.408C-2.151,-21.233 -2.234,-21.065 -2.254,-20.89C-2.32,-20.282 -1.983,-20.024 -1.397,-20.251C-1.099,-20.366 -0.826,-20.549 -0.546,-20.707C0.461,-21.269 1.504,-21.705 2.676,-21.808C4.493,-21.968 5.994,-21.4 7.101,-19.935C7.85,-18.946 8.326,-17.846 8.299,-16.563C8.273,-15.349 8.34,-14.139 7.923,-12.956C7.575,-11.968 7.015,-11.181 6.161,-10.592C5.984,-10.471 5.789,-10.371 5.628,-10.231C5.025,-9.709 4.367,-9.534 3.556,-9.639C2.745,-9.744 1.911,-9.7 1.09,-9.667C0.723,-9.651 0.363,-9.499 0.001,-9.409C0,-9.307 0,-9.204 0,-9.101" style="fill:rgb(157,108,77);fill-rule:nonzero;"/>
            </g>
        </g>
        <g transform="matrix(5.55556,0,0,5.55556,10895.7,9566.92)">
            <g transform="matrix(1,0,0,1,53.51,126.493)">
                <path d="M0,46.237C0.114,46.33 0.24,46.408 0.357,46.496C-0.923,44.404 -0.909,41.297 0.105,39.156C2.663,33.751 10.792,34.995 15.865,34.28C13.386,31.807 7.739,29.647 8.075,25.796C8.423,21.808 13.971,22.814 16.967,23.627C15.751,20.609 12.999,15.629 17.122,14.162C21.248,12.693 25.9,16.681 29.331,19.039C28.455,15.251 26.406,8.958 30.451,7.096C35.932,4.571 40.569,12.475 42.972,16.866C43.81,13.099 44.003,8.254 47.072,5.77C50.248,3.197 53.121,5.884 54.052,8.972C55.031,7.04 56.764,4.659 58.583,5.76C60.939,7.185 59.044,11.931 58.239,14.547C62.992,12.392 68.316,7.593 73.756,9.455C77.346,10.684 76.197,15.059 75.443,18.151C79.091,15.633 86.144,11.921 90.081,14.227C90.072,14.194 90.071,14.158 90.061,14.126C89.624,12.648 88.814,11.423 87.168,11.138C86.405,11.007 85.566,10.971 84.824,11.151C82.784,11.646 80.953,12.62 79.339,13.975C79.096,14.18 78.908,14.45 78.704,14.697C78.483,14.965 78.352,15.366 77.898,15.282C77.585,15.224 77.486,14.814 77.715,14.143C78.069,13.105 78.068,12.037 78.132,10.965C78.213,9.622 77.719,8.512 76.84,7.554C76.455,7.134 76.029,6.738 75.569,6.405C73.414,4.845 71.018,4.061 68.334,4.158C67.287,4.196 66.37,4.494 65.548,5.122C64.525,5.904 63.803,6.939 63.369,8.121C63.074,8.929 62.467,9.485 62.052,10.188C61.898,10.447 61.602,10.72 61.25,10.422C60.971,10.185 61.114,9.916 61.269,9.655C61.614,9.069 61.954,8.48 62.272,7.88C62.405,7.631 62.547,7.352 62.561,7.081C62.634,5.691 62.437,4.312 61.559,3.217C59.809,1.031 57.587,-0.259 54.659,0.1C53.974,0.185 53.315,0.348 52.911,0.997C52.669,1.383 52.423,1.769 52.178,2.155C51.922,2.556 51.485,2.559 51.235,2.152C51.144,2.001 51.117,1.809 51.022,1.661C50.546,0.925 49.989,0.241 49.056,0.141C47.624,-0.011 46.198,-0.022 44.87,0.704C43.854,1.258 42.946,1.947 42.155,2.785C41.191,3.807 40.994,5.116 40.789,6.436C40.658,7.278 41.134,7.87 41.452,8.534C41.622,8.887 41.855,9.21 42.054,9.55C42.367,10.083 42.387,10.36 42.101,10.478C41.672,10.655 41.418,10.35 41.229,10.052C40.754,9.305 40.178,8.636 39.852,7.771C39.581,7.057 39.065,6.41 38.563,5.814C37.615,4.686 36.389,4.177 34.882,4.153C31.99,4.105 29.461,5.028 27.258,6.837C25.934,7.923 25.128,9.306 25.204,11.121C25.245,12.13 25.374,13.11 25.653,14.076C25.712,14.28 25.83,14.487 25.821,14.689C25.812,14.877 25.714,15.139 25.573,15.217C25.447,15.287 25.192,15.176 25.021,15.09C24.903,15.032 24.813,14.893 24.742,14.772C24.326,14.069 23.695,13.588 23.018,13.19C22.063,12.631 21.075,12.124 20.081,11.635C19.169,11.184 18.194,11.027 17.168,11.048C14.962,11.092 13.291,12.643 13.185,14.863C13.129,16.041 13.126,17.225 13.409,18.385C13.51,18.802 13.661,19.207 13.739,19.627C13.837,20.148 13.477,20.451 12.964,20.288C12.729,20.211 12.52,20.059 12.293,19.954C11.548,19.611 10.826,19.181 10.047,18.95C7.836,18.295 5.787,18.742 4.433,20.497C3.882,21.214 3.476,21.994 3.272,22.888C2.938,24.359 3.092,25.798 3.443,27.236C3.72,28.366 4.367,29.24 5.303,29.908C5.595,30.116 5.929,30.269 6.197,30.501C6.609,30.859 7.046,30.926 7.582,30.887C8.544,30.818 9.514,30.833 10.479,30.843C10.852,30.847 11.249,30.887 11.512,31.433C10.867,31.527 10.312,31.646 9.753,31.682C8.256,31.779 6.751,31.787 5.259,31.935C4.019,32.057 2.777,32.256 1.566,32.551C-0.031,32.939 -1.234,33.907 -2.106,35.32C-3.267,37.203 -3.363,39.246 -3.042,41.331C-2.728,43.373 -1.572,44.963 0,46.237" style="fill:rgb(181,124,89);fill-rule:nonzero;"/>
            </g>
        </g>
        <g transform="matrix(5.55556,0,0,5.55556,10895.7,9566.92)">
            <g transform="matrix(1,0,0,1,155.982,171.905)">
                <path d="M0,13.293C-0.236,13.215 -0.487,13.163 -0.707,13.05C-1.002,12.899 -1.022,12.512 -0.737,12.356C-0.49,12.221 -0.207,12.149 0.065,12.066C1.307,11.684 2.451,11.126 3.494,10.335C4.79,9.352 4.997,7.281 3.884,6.03C3.553,5.658 3.201,5.277 2.788,5.008C1.491,4.168 0.149,3.434 -1.497,3.609C-1.682,3.629 -1.976,3.448 -2.073,3.276C-2.214,3.023 -2.002,2.813 -1.766,2.679C-1.704,2.644 -1.634,2.622 -1.574,2.584C-1.003,2.215 -0.414,1.871 0.133,1.471C3.266,-0.833 4.763,-3.854 3.931,-7.758C3.324,-10.6 1.598,-12.488 -1.324,-13.045C-2.525,-13.274 -3.754,-13.371 -4.978,-13.47C-1.748,-12.226 1.169,-10.326 0.281,-6.443C-0.821,-1.631 -6.461,-1.052 -10.854,-0.787C-7.624,0.9 -3.821,3.841 -4.524,7.521C-5.095,10.509 -8.439,9.72 -10.863,8.778C-10.034,10.126 -9.266,11.773 -9.534,13.112C-9.916,15.027 -12.234,14.767 -13.594,14.025C-17.624,11.822 -18.254,5.004 -18.5,0.472C-18.683,0.688 -18.87,0.903 -19.038,1.13C-19.193,1.339 -19.487,1.477 -19.734,1.312C-22.916,-0.806 -23.498,-4.258 -24.43,-7.677C-26.062,-5.659 -27.524,-3.177 -30.194,-2.584C-31.407,-2.316 -32.751,-2.405 -33.875,-2.947C-34.901,-3.442 -36.708,-5.417 -38.156,-5.475C-38.15,-5.319 -38.141,-5.164 -38.137,-5.007C-38.113,-3.853 -38.706,-2.897 -39.21,-1.918C-38.54,-0.964 -37.665,-0.335 -36.653,0.042C-35.114,0.614 -33.561,1.185 -31.97,1.572C-29.423,2.193 -26.679,1.359 -25.238,-1.006C-25.108,-1.219 -24.97,-1.44 -24.784,-1.6C-24.611,-1.748 -24.371,-1.816 -24.172,-1.913C-23.834,-1.501 -23.979,-1.172 -24.181,-0.867C-24.497,-0.39 -24.826,0.078 -25.168,0.536C-25.423,0.878 -25.49,1.204 -25.33,1.629C-24.617,3.526 -23.707,5.295 -22.193,6.689C-21.558,7.273 -20.925,7.87 -19.929,7.581C-19.811,7.546 -19.562,7.676 -19.504,7.794C-19.445,7.917 -19.488,8.179 -19.587,8.271C-20.195,8.832 -20.238,9.578 -20.366,10.322C-20.628,11.831 -20.398,13.33 -20.27,14.818C-20.159,16.097 -19.754,17.341 -19.008,18.428C-18.618,18.997 -18.264,19.12 -17.644,18.838C-17.364,18.711 -17.122,18.481 -16.896,18.264C-16.719,18.094 -16.624,17.828 -16.434,17.684C-16.293,17.576 -16.009,17.507 -15.875,17.58C-15.731,17.657 -15.621,17.921 -15.619,18.104C-15.618,18.298 -15.765,18.492 -15.841,18.69C-15.967,19.021 -16.176,19.349 -16.196,19.687C-16.277,21.189 -16.277,22.698 -15.927,24.169C-15.782,24.785 -15.531,25.4 -15.206,25.944C-14.715,26.763 -13.773,26.721 -13.235,25.93C-13.143,25.796 -13.014,25.679 -12.882,25.582C-12.63,25.398 -12.364,25.234 -12.104,25.062C-11.419,24.613 -10.776,24.074 -10.042,23.732C-8.734,23.121 -7.31,22.898 -5.875,22.813C-4.537,22.732 -3.235,22.883 -2.02,23.518C-1.77,23.648 -1.479,23.696 -1.21,23.788C-0.809,23.925 -0.426,23.878 -0.077,23.655C1.167,22.861 2.316,21.957 3.187,20.742C4.133,19.422 4.437,16.704 2.984,15.132C2.166,14.245 1.14,13.672 0,13.293" style="fill:rgb(136,93,66);fill-rule:nonzero;"/>
            </g>
        </g>
        <g transform="matrix(5.55556,0,0,5.55556,10895.7,9566.92)">
            <g transform="matrix(1,0,0,1,120.111,204.9)">
                <path d="M0,-21.05C0.232,-21.315 0.441,-21.444 0.465,-21.601C0.513,-21.912 0.508,-22.249 0.438,-22.555C-0.033,-24.599 -1.096,-26.295 -2.653,-27.688C-2.784,-27.805 -2.933,-27.941 -3.094,-27.975C-3.239,-28.006 -3.44,-27.948 -3.559,-27.855C-3.621,-27.806 -3.611,-27.562 -3.545,-27.471C-3.403,-27.272 -3.204,-27.112 -3.025,-26.941C-1.591,-25.576 -0.627,-23.95 -0.249,-21.992C-0.198,-21.729 -0.113,-21.473 0,-21.05M-30.036,-21.13C-29.855,-21.314 -29.656,-21.424 -29.607,-21.583C-29.514,-21.884 -29.538,-22.221 -29.456,-22.528C-29.009,-24.186 -28.158,-25.61 -26.922,-26.802C-26.717,-27 -26.472,-27.165 -26.299,-27.387C-26.211,-27.501 -26.17,-27.755 -26.239,-27.859C-26.307,-27.961 -26.566,-28.021 -26.696,-27.973C-26.923,-27.891 -27.138,-27.736 -27.319,-27.57C-28.689,-26.304 -29.635,-24.763 -30.155,-22.979C-30.318,-22.417 -30.412,-21.803 -30.036,-21.13M-6.397,-13.273L-6.529,-13.243C-6.365,-12.631 -6.273,-11.987 -6.015,-11.418C-5.731,-10.787 -5.125,-10.718 -4.595,-11.167C-4.434,-11.303 -4.292,-11.475 -4.185,-11.657C-3.789,-12.333 -3.938,-14.015 -4.45,-14.628C-4.705,-14.932 -5.002,-15.241 -5.452,-15.05C-5.874,-14.87 -6.341,-14.693 -6.393,-14.131C-6.418,-13.847 -6.397,-13.559 -6.397,-13.273M-23.313,-13.334C-23.351,-13.673 -23.347,-13.928 -23.412,-14.166C-23.562,-14.71 -24.011,-15.013 -24.504,-15.064C-24.782,-15.092 -25.175,-14.834 -25.382,-14.59C-25.973,-13.894 -26.014,-12.308 -25.541,-11.533C-25.299,-11.136 -24.956,-10.871 -24.498,-10.902C-24.018,-10.937 -23.735,-11.31 -23.619,-11.738C-23.47,-12.285 -23.402,-12.854 -23.313,-13.334M-18.909,-6.948C-18.859,-6.49 -18.883,-6.008 -18.749,-5.576C-18.171,-3.725 -15.789,-2.301 -13.903,-2.651C-13.705,-2.688 -13.497,-2.79 -13.342,-2.918C-13.148,-3.077 -12.966,-3.327 -13.18,-3.56C-13.292,-3.682 -13.596,-3.766 -13.736,-3.701C-14.492,-3.353 -15.211,-3.5 -15.905,-3.822C-17.464,-4.546 -18.05,-5.59 -18.005,-7.315C-17.975,-8.449 -17.287,-9.089 -16.389,-9.51C-15.499,-9.928 -14.641,-9.657 -13.904,-9.043C-13.688,-8.862 -13.522,-8.622 -13.339,-8.402C-13.204,-8.238 -13.111,-8.023 -12.946,-7.903C-12.8,-7.796 -12.547,-7.701 -12.403,-7.758C-12.178,-7.85 -12.188,-8.09 -12.327,-8.302C-12.545,-8.628 -12.739,-8.971 -12.97,-9.287C-13.978,-10.661 -16.508,-10.923 -17.752,-9.708C-18.558,-8.921 -18.991,-8.072 -18.909,-6.948M-16.018,8.991C-16.019,9.109 -16.02,9.228 -16.02,9.346C-14.993,9.743 -13.886,9.557 -12.814,9.631C-11.667,9.71 -10.659,9.274 -9.621,8.866C-8.613,8.47 -7.622,8.057 -6.804,7.356C-5.97,6.639 -5.103,5.912 -4.457,5.037C-3.816,4.169 -3.432,3.112 -2.922,2.111C-2.055,2.347 -1.177,2.365 -0.371,1.837C-0.094,1.654 0.336,1.538 0.209,1.062C0.122,0.74 -0.266,0.678 -0.794,1.012C-1.682,1.572 -2.535,1.421 -3.301,0.883C-3.75,0.568 -4.046,0.033 -4.406,-0.407C-4.549,-0.583 -4.682,-0.768 -4.812,-0.941C-5.321,-0.652 -5.227,-0.28 -5.063,0.036C-4.834,0.475 -4.565,0.904 -4.25,1.285C-4.014,1.57 -3.958,1.832 -4.061,2.167C-4.41,3.308 -4.895,4.368 -5.754,5.229C-8.165,7.645 -10.998,9.011 -14.485,8.771C-14.734,8.754 -14.99,8.725 -15.234,8.762C-15.501,8.802 -15.757,8.911 -16.018,8.991M14.896,-24.39C14.229,-21.848 14.402,-19.394 14.918,-16.974C15.129,-15.981 15.594,-15.02 16.064,-14.108C16.493,-13.276 17.218,-12.846 18.215,-13.177C18.313,-13.208 18.426,-13.193 18.533,-13.193C18.564,-13.193 18.596,-13.17 18.749,-13.113C18.749,-12.705 18.725,-12.249 18.753,-11.794C18.811,-10.833 18.868,-9.871 18.982,-8.915C19.035,-8.46 19.189,-8.011 19.35,-7.578C19.831,-6.275 20.549,-5.274 22.29,-5.647C22.215,-5.18 22.181,-4.835 22.098,-4.501C22.022,-4.191 21.902,-3.89 21.79,-3.588C21.181,-1.946 20.579,-0.302 19.957,1.335C18.236,5.869 15.144,9.231 11.032,11.705C9.716,12.497 8.402,13.29 6.967,13.874C6.144,14.209 5.399,14.732 4.603,15.138C2.358,16.284 -0.049,16.992 -2.501,17.487C-4.84,17.957 -7.222,18.215 -9.581,18.594C-11.207,18.857 -12.836,19.02 -14.485,19.013C-16.237,19.006 -17.978,18.959 -19.714,18.662C-21.049,18.433 -22.406,18.343 -23.75,18.159C-26.696,17.755 -29.565,17.027 -32.369,16.04C-32.604,15.957 -32.849,15.886 -33.069,15.771C-36.205,14.135 -39.495,12.774 -42.387,10.703C-44.821,8.959 -46.887,6.848 -48.401,4.224C-49.121,2.975 -49.646,1.656 -50.131,0.308C-50.604,-1.002 -51.138,-2.29 -51.612,-3.602C-51.837,-4.224 -51.983,-4.876 -52.177,-5.554C-51.956,-5.592 -51.85,-5.639 -51.759,-5.621C-50.717,-5.407 -50.041,-5.906 -49.555,-6.755C-49.087,-7.571 -48.783,-8.451 -48.704,-9.388C-48.611,-10.491 -48.572,-11.598 -48.505,-12.703C-48.497,-12.841 -48.471,-12.976 -48.451,-13.13C-48.315,-13.153 -48.206,-13.207 -48.12,-13.182C-46.992,-12.85 -46.271,-13.356 -45.738,-14.299C-44.913,-15.76 -44.484,-17.337 -44.409,-19C-44.355,-20.18 -44.363,-21.363 -44.399,-22.544C-44.417,-23.141 -44.558,-23.734 -44.651,-24.39C-42.953,-25.071 -41.837,-26.397 -40.876,-27.885C-39.906,-29.389 -39.425,-31.058 -39.26,-32.947C-36.947,-32.541 -34.769,-32.838 -32.794,-34.117C-30.851,-35.376 -29.248,-36.904 -28.842,-39.323C-25.867,-38.646 -24.561,-38.654 -21.262,-40.07C-21.177,-39.892 -21.064,-39.72 -21.014,-39.531C-20.708,-38.389 -19.989,-37.491 -19.263,-36.61C-17.647,-34.645 -15.752,-33.006 -13.306,-32.188C-10.734,-31.329 -8.169,-31.294 -5.766,-32.789C-5.165,-33.162 -4.622,-33.631 -4.056,-34.053C-3.981,-34.031 -3.891,-34.033 -3.854,-33.99C-2.894,-32.871 -1.68,-32.139 -0.3,-31.674C1.322,-31.126 2.917,-30.508 4.644,-30.306C6.079,-30.139 7.42,-30.289 8.695,-30.982C8.974,-31.134 9.276,-31.249 9.631,-31.411C9.964,-29.891 10.574,-28.539 11.447,-27.31C12.33,-26.067 13.348,-24.98 14.896,-24.39" style="fill:rgb(254,220,196);fill-rule:nonzero;"/>
            </g>
        </g>
        <g transform="matrix(5.55556,0,0,5.55556,10895.7,9566.92)">
            <g transform="matrix(1,0,0,1,81.8853,176.03)">
                <path d="M0,35.613C-2.762,32.125 -6.324,26.466 -6.266,21.812C-6.255,20.877 -6.029,20.126 -5.509,19.354C-4.266,17.513 -2.827,16.57 -2.239,14.241C-1.684,12.045 -2.139,8.568 -0.547,6.71C-0.085,6.171 0.487,5.99 1.115,5.72C2.79,4.998 4.151,4.035 5.345,2.654C7.276,0.421 8.609,-2.267 10.474,-4.557C10.695,-4.827 11.109,-4.701 11.274,-4.453C16.446,3.322 26.908,5.53 35.179,1.909C35.005,1.745 34.818,1.59 34.681,1.399C34.616,1.308 34.604,1.065 34.667,1.016C34.786,0.923 34.987,0.865 35.131,0.896C35.293,0.93 35.442,1.065 35.573,1.183C35.71,1.305 35.821,1.442 35.952,1.57C36.482,1.311 37.004,1.029 37.51,0.719C37.697,0.606 37.978,0.636 38.127,0.798C40.462,3.358 43.405,4.032 46.745,3.642C47.021,3.609 47.252,3.899 47.254,4.151C47.282,9.785 48.201,15.491 54.755,16.418C55.03,16.456 55.175,16.803 55.111,17.044C53.985,21.245 55.601,24.885 60.102,25.048C60.186,24.823 60.268,24.6 60.325,24.369C60.406,24.036 60.441,23.691 60.516,23.224C58.774,23.596 58.057,22.595 57.576,21.293C57.416,20.859 57.261,20.409 57.207,19.956C57.093,19 57.037,18.038 56.979,17.076C56.952,16.622 56.974,16.164 56.974,15.757C56.822,15.699 56.79,15.678 56.758,15.678C56.653,15.678 56.538,15.662 56.441,15.693C55.445,16.024 54.719,15.595 54.29,14.762C53.82,13.85 53.356,12.89 53.143,11.896C52.628,9.476 52.454,7.022 53.122,4.479C51.574,3.891 50.557,2.803 49.674,1.561C48.8,0.332 48.191,-1.02 47.856,-2.541C47.501,-2.379 47.201,-2.264 46.92,-2.111C45.646,-1.419 44.304,-1.269 42.871,-1.436C41.144,-1.637 39.547,-2.257 37.925,-2.803C36.546,-3.269 35.332,-4.001 34.372,-5.119C34.335,-5.163 34.244,-5.16 34.17,-5.183C33.604,-4.761 33.061,-4.293 32.459,-3.918C30.057,-2.424 27.492,-2.459 24.92,-3.318C22.474,-4.135 20.58,-5.775 18.963,-7.739C18.237,-8.621 17.518,-9.518 17.212,-10.66C17.161,-10.849 17.048,-11.022 16.965,-11.2C13.665,-9.784 12.359,-9.776 9.384,-10.452C8.978,-8.034 7.375,-6.507 5.431,-5.247C3.456,-3.968 1.28,-3.671 -1.035,-4.076C-1.199,-2.188 -1.679,-0.519 -2.651,0.985C-3.611,2.473 -4.727,3.799 -6.426,4.48C-6.332,5.136 -6.19,5.729 -6.172,6.327C-6.137,7.506 -6.129,8.691 -6.182,9.87C-6.258,11.534 -6.686,13.111 -7.511,14.571C-8.044,15.515 -8.767,16.02 -9.894,15.688C-9.981,15.664 -10.09,15.718 -10.225,15.741C-10.245,15.895 -10.272,16.03 -10.28,16.166C-10.345,17.272 -10.386,18.379 -10.478,19.481C-10.557,20.419 -10.861,21.3 -11.329,22.116C-11.815,22.963 -12.491,23.464 -13.533,23.25C-13.624,23.232 -13.73,23.279 -13.951,23.316C-13.758,23.994 -13.61,24.645 -13.385,25.269C-12.912,26.58 -12.378,27.868 -11.906,29.178C-11.419,30.525 -10.895,31.845 -10.175,33.095C-8.66,35.719 -6.594,37.83 -4.161,39.573C-1.27,41.644 2.022,43.005 5.157,44.642C5.378,44.756 5.622,44.827 5.858,44.911C8.245,45.75 10.683,46.388 13.172,46.813C8.422,43.523 3.613,40.178 0,35.613" style="fill:rgb(253,205,171);fill-rule:nonzero;"/>
            </g>
        </g>
        <g transform="matrix(5.55556,0,0,5.55556,10895.7,9566.92)">
            <g transform="matrix(1,0,0,1,149.284,200.392)">
                <path d="M0,5.155C0.449,5.128 0.694,5.186 0.803,5.092C1.119,4.813 1.481,4.519 1.648,4.15C2.714,1.795 1.96,-0.516 -0.624,-1.362C-2.178,-1.872 -3.731,-1.859 -5.07,-0.682C-5.23,-0.543 -5.428,-0.447 -5.616,-0.342C-5.739,-0.272 -5.872,-0.224 -6.036,-0.149C-6.185,-0.691 -6.07,-1.15 -5.801,-1.594C-5.33,-2.371 -4.764,-3.06 -3.95,-3.491C-1.766,-4.646 0.538,-5.119 2.988,-4.614C5.011,-4.198 7.272,-2.242 7.418,0.79C7.503,2.572 6.828,4.057 5.869,5.48C4.476,7.545 2.659,9.017 0.214,9.634C-2.324,10.274 -4.749,10.076 -6.977,8.585C-7.273,8.388 -7.544,8.15 -7.824,7.928C-8.421,7.455 -8.62,6.93 -8.298,6.155C-7.804,4.97 -7.419,3.74 -7.007,2.523C-6.831,2.001 -6.517,1.662 -6.082,1.298C-5.456,0.777 -4.842,0.244 -4.176,-0.229C-2.531,-1.394 0.066,-0.864 1.108,0.857C1.705,1.844 1.443,3.76 0.58,4.671C0.47,4.788 0.333,4.879 0,5.155" style="fill:rgb(254,220,196);fill-rule:nonzero;"/>
            </g>
        </g>
        <g transform="matrix(5.55556,0,0,5.55556,10895.7,9566.92)">
            <g transform="matrix(1,0,0,1,150.436,201.691)">
                <path d="M0,3.478C-0.115,3.586 -0.234,3.691 -0.35,3.792C-0.458,3.888 -0.703,3.828 -1.152,3.856C-0.819,3.581 -0.682,3.488 -0.572,3.372C0.291,2.462 0.554,0.546 -0.044,-0.442C-1.086,-2.162 -3.683,-2.692 -5.328,-1.527C-5.995,-1.055 -6.609,-0.523 -7.233,-0.001C-7.67,0.363 -7.982,0.701 -8.159,1.223C-8.382,1.885 -8.602,2.547 -8.832,3.205C-5.6,4.826 -1.595,6.17 0,3.478" style="fill:rgb(253,205,171);fill-rule:nonzero;"/>
            </g>
        </g>
        <g transform="matrix(5.55556,0,0,5.55556,10895.7,9566.92)">
            <g transform="matrix(1,0,0,1,67.2209,206.035)">
                <path d="M0,-5.669C-0.536,-6.025 -1.057,-6.381 -1.589,-6.722C-3.549,-7.978 -6.787,-7.127 -7.864,-5.063C-7.992,-4.817 -8.081,-4.524 -8.093,-4.249C-8.122,-3.643 -8.135,-3.03 -8.073,-2.426C-7.965,-1.363 -7.359,-0.683 -6.447,-0.505C-6.431,-0.568 -6.381,-0.669 -6.402,-0.687C-7.476,-1.622 -7.582,-2.869 -7.406,-4.136C-7.262,-5.183 -6.499,-5.855 -5.548,-6.176C-4.22,-6.624 -2.884,-6.708 -1.692,-5.714C-0.984,-5.124 -0.236,-4.582 0.477,-4C0.604,-3.897 0.678,-3.707 0.737,-3.543C1.283,-2.031 1.812,-0.513 2.368,0.996C2.525,1.424 2.294,1.674 2.048,1.938C0.962,3.099 -0.369,3.869 -1.925,4.128C-6.104,4.822 -9.445,3.428 -11.885,-0.051C-12.233,-0.548 -12.534,-1.081 -12.821,-1.617C-13.66,-3.191 -13.683,-4.87 -13.187,-6.515C-12.496,-8.805 -10.227,-10.397 -7.831,-10.449C-5.866,-10.491 -3.986,-10.139 -2.245,-9.196C-1.05,-8.551 -0.281,-7.559 0.045,-6.235C0.07,-6.132 0.073,-6.021 0.069,-5.914C0.066,-5.846 0.033,-5.78 0,-5.669" style="fill:rgb(254,220,196);fill-rule:nonzero;"/>
            </g>
        </g>
        <g transform="matrix(5.55556,0,0,5.55556,10895.7,9566.92)">
            <g transform="matrix(1,0,0,1,61.6724,205.81)">
                <path d="M0,-5.95C-0.95,-5.63 -1.713,-4.957 -1.858,-3.91C-2.02,-2.74 -1.931,-1.59 -1.072,-0.684C0.847,0.532 4.585,0.044 7.202,-0.768C6.898,-1.619 6.592,-2.468 6.285,-3.318C6.226,-3.482 6.153,-3.671 6.026,-3.775C5.312,-4.357 4.565,-4.898 3.857,-5.488C2.665,-6.482 1.329,-6.399 0,-5.95" style="fill:rgb(253,205,171);fill-rule:nonzero;"/>
            </g>
        </g>
        <g transform="matrix(5.55556,0,0,5.55556,10895.7,9566.92)">
            <g transform="matrix(1,0,0,1,70.7907,212.416)">
                <path d="M0,1.377C-0.569,1.026 -0.922,1.297 -1.261,1.445C-2.141,1.833 -3.058,1.843 -3.994,1.843C-4.858,1.844 -5.822,0.868 -5.983,0.133C-6.161,-0.678 -5.95,-1.056 -5.126,-1.264C-3.968,-1.555 -2.892,-2.016 -1.924,-2.712C-1.492,-3.022 -1.104,-3.393 -0.601,-3.816C-0.009,-2.873 0.511,-1.914 1.158,-1.05C1.819,-0.166 2.572,0.657 3.345,1.449C4.113,2.239 4.955,2.958 5.755,3.7C5.324,5.193 4.178,5.189 2.751,4.971C1.665,4.805 0.796,4.128 0.079,3.292C-0.192,2.973 -0.279,2.6 -0.183,2.188C-0.12,1.919 -0.062,1.651 0,1.377" style="fill:rgb(157,108,77);fill-rule:nonzero;"/>
            </g>
        </g>
        <g transform="matrix(5.55556,0,0,5.55556,10895.7,9566.92)">
            <g transform="matrix(1,0,0,1,140.201,217.478)">
                <path d="M0,-8.924C1.511,-7.399 3.256,-6.554 5.193,-6.158C5.625,-4.298 4.818,-3.264 2.999,-3.215C2.16,-3.192 1.364,-3.312 0.596,-3.653C0.251,-3.807 -0.106,-4.05 -0.512,-3.715C-0.527,-3.623 -0.584,-3.506 -0.553,-3.422C-0.149,-2.36 -0.631,-1.65 -1.441,-1.028C-2.29,-0.376 -3.206,0 -4.304,-0.002C-5.271,-0.005 -5.964,-0.319 -6.321,-1.281C-5.145,-2.462 -3.969,-3.649 -2.787,-4.829C-1.617,-5.995 -0.883,-7.471 0,-8.924" style="fill:rgb(157,108,77);fill-rule:nonzero;"/>
            </g>
        </g>
        <g transform="matrix(5.55556,0,0,5.55556,10895.7,9566.92)">
            <g transform="matrix(1,0,0,1,104.094,204.711)">
                <path d="M0,9.18C0.26,9.101 0.517,8.991 0.783,8.951C1.028,8.914 1.283,8.943 1.532,8.96C5.02,9.2 7.852,7.834 10.264,5.418C11.123,4.557 11.608,3.497 11.957,2.357C12.06,2.021 12.004,1.76 11.767,1.474C11.453,1.093 11.183,0.664 10.954,0.225C10.791,-0.091 10.697,-0.463 11.206,-0.752C11.337,-0.579 11.468,-0.394 11.613,-0.218C11.973,0.222 12.268,0.757 12.717,1.073C13.483,1.611 14.336,1.761 15.224,1.201C15.752,0.868 16.14,0.929 16.226,1.252C16.353,1.727 15.924,1.844 15.646,2.026C14.84,2.554 13.962,2.536 13.096,2.301C12.587,3.301 12.203,4.358 11.561,5.226C10.915,6.101 10.048,6.829 9.214,7.545C8.395,8.247 7.404,8.659 6.398,9.055C5.359,9.463 4.351,9.899 3.203,9.82C2.132,9.746 1.025,9.932 -0.002,9.535C-0.001,9.417 0,9.298 0,9.18" style="fill:rgb(35,31,32);fill-rule:nonzero;"/>
            </g>
        </g>
        <g transform="matrix(5.55556,0,0,5.55556,10895.7,9566.92)">
            <g transform="matrix(1,0,0,1,101.202,198.624)">
                <path d="M0,-0.672C-0.081,-1.795 0.351,-2.645 1.157,-3.431C2.401,-4.647 4.931,-4.385 5.939,-3.011C6.17,-2.696 6.364,-2.352 6.582,-2.026C6.722,-1.815 6.732,-1.573 6.506,-1.482C6.362,-1.425 6.109,-1.52 5.964,-1.626C5.799,-1.746 5.705,-1.961 5.57,-2.126C5.388,-2.347 5.221,-2.587 5.005,-2.767C4.268,-3.382 3.411,-3.651 2.52,-3.234C1.622,-2.813 0.934,-2.173 0.905,-1.039C0.86,0.685 1.445,1.73 3.005,2.454C3.699,2.776 4.417,2.923 5.173,2.575C5.313,2.51 5.618,2.594 5.73,2.716C5.943,2.949 5.761,3.199 5.568,3.358C5.412,3.487 5.205,3.588 5.006,3.625C3.121,3.975 0.739,2.55 0.161,0.7C0.026,0.268 0.05,-0.213 0,-0.672" style="fill:rgb(35,31,32);fill-rule:nonzero;"/>
            </g>
        </g>
        <g transform="matrix(5.55556,0,0,5.55556,10895.7,9566.92)">
            <g transform="matrix(1,0,0,1,96.7981,192.272)">
                <path d="M0,-0.705C-0.089,-0.226 -0.157,0.344 -0.306,0.891C-0.422,1.319 -0.705,1.691 -1.185,1.726C-1.643,1.758 -1.986,1.492 -2.228,1.095C-2.7,0.321 -2.66,-1.265 -2.069,-1.962C-1.862,-2.205 -1.469,-2.463 -1.19,-2.435C-0.698,-2.385 -0.249,-2.082 -0.099,-1.536C-0.034,-1.299 -0.038,-1.044 0,-0.705" style="fill:rgb(35,31,32);fill-rule:nonzero;"/>
            </g>
        </g>
        <g transform="matrix(5.55556,0,0,5.55556,10895.7,9566.92)">
            <g transform="matrix(1,0,0,1,113.714,192.214)">
                <path d="M0,-0.587C0,-0.873 -0.021,-1.16 0.004,-1.444C0.056,-2.006 0.523,-2.183 0.945,-2.363C1.395,-2.555 1.692,-2.244 1.947,-1.94C2.459,-1.329 2.608,0.353 2.212,1.03C2.105,1.212 1.963,1.384 1.802,1.519C1.272,1.968 0.666,1.9 0.382,1.269C0.125,0.699 0.033,0.055 -0.132,-0.555L0,-0.587Z" style="fill:rgb(35,31,32);fill-rule:nonzero;"/>
            </g>
        </g>
        <g transform="matrix(5.55556,0,0,5.55556,10895.7,9566.92)">
            <g transform="matrix(1,0,0,1,90.076,176.88)">
                <path d="M0,6.89C-0.378,6.217 -0.282,5.603 -0.119,5.042C0.4,3.257 1.346,1.717 2.717,0.45C2.897,0.284 3.112,0.13 3.338,0.047C3.469,0 3.729,0.06 3.796,0.161C3.865,0.265 3.825,0.519 3.735,0.633C3.563,0.855 3.318,1.02 3.114,1.218C1.877,2.41 1.027,3.834 0.58,5.492C0.498,5.799 0.522,6.136 0.427,6.437C0.379,6.596 0.18,6.707 0,6.89" style="fill:rgb(35,31,32);fill-rule:nonzero;"/>
            </g>
        </g>
        <g transform="matrix(5.55556,0,0,5.55556,10895.7,9566.92)">
            <g transform="matrix(1,0,0,1,120.111,176.894)">
                <path d="M0,6.956C-0.113,6.533 -0.198,6.277 -0.249,6.014C-0.627,4.056 -1.591,2.43 -3.025,1.065C-3.204,0.894 -3.403,0.734 -3.545,0.535C-3.611,0.444 -3.621,0.2 -3.559,0.151C-3.44,0.058 -3.239,0 -3.094,0.031C-2.933,0.065 -2.784,0.201 -2.653,0.318C-1.096,1.711 -0.033,3.407 0.438,5.451C0.508,5.757 0.513,6.094 0.465,6.405C0.441,6.562 0.232,6.691 0,6.956" style="fill:rgb(35,31,32);fill-rule:nonzero;"/>
            </g>
        </g>
    </g>
</svg>
