<?xml version="1.0" encoding="UTF-8" standalone="no"?><!DOCTYPE svg PUBLIC "-//W3C//DTD SVG 1.1//EN" "http://www.w3.org/Graphics/SVG/1.1/DTD/svg11.dtd"><svg width="100%" height="100%" viewBox="0 0 139 29" version="1.1" xmlns="http://www.w3.org/2000/svg" xmlns:xlink="http://www.w3.org/1999/xlink" xml:space="preserve" xmlns:serif="http://www.serif.com/" style="fill-rule:evenodd;clip-rule:evenodd;stroke-linejoin:round;stroke-miterlimit:2;"><g><path d="M2.975,18.527c-0.162,0 -0.322,-0.027 -0.475,-0.079c-0.188,-0.064 -0.357,-0.178 -0.504,-0.34c-0.106,-0.119 -0.233,-0.283 -0.294,-0.523c-0.056,-0.217 -0.047,-0.402 -0.029,-0.569c0.024,-0.215 0.075,-0.4 0.163,-0.582c0.101,-0.208 0.244,-0.362 0.349,-0.474c0.142,-0.15 0.307,-0.266 0.507,-0.356c0.168,-0.077 0.367,-0.126 0.59,-0.145c0.059,-0.006 0.114,-0.008 0.166,-0.008c0.149,0 0.285,0.021 0.416,0.066c0.222,0.075 0.392,0.18 0.521,0.32c0.142,0.158 0.242,0.334 0.293,0.514c0.056,0.219 0.07,0.405 0.048,0.599c-0.027,0.229 -0.103,0.408 -0.181,0.567c-0.094,0.196 -0.227,0.34 -0.334,0.457c-0.156,0.167 -0.341,0.299 -0.536,0.387c-0.199,0.092 -0.382,0.144 -0.573,0.161c-0.014,0.001 -0.112,0.005 -0.127,0.005m-1.736,9.321c-0.135,0 -0.265,-0.055 -0.36,-0.154c-0.105,-0.108 -0.154,-0.258 -0.136,-0.408l0.554,-4.477l0.102,-0.736c0.036,-0.243 0.088,-0.503 0.139,-0.747c0.051,-0.234 0.1,-0.48 0.148,-0.726c0.054,-0.258 0.12,-0.564 0.189,-0.851c0.05,-0.21 0.229,-0.365 0.444,-0.383c0,0 1.033,-0.088 1.048,-0.088c0.125,0 0.246,0.047 0.339,0.133c0.103,0.095 0.161,0.23 0.161,0.37c-0.001,0.146 -0.019,0.702 -0.02,0.818c0,0.256 -0.018,0.515 -0.036,0.757l-0.051,0.707c-0.022,0.296 -0.039,0.524 -0.07,0.754l-0.571,4.476c-0.03,0.233 -0.219,0.414 -0.454,0.434c0,0 -1.412,0.121 -1.426,0.121" style="fill:#fff;fill-rule:nonzero;"/><path d="M3.366,20.778l0.005,0l-0.005,0Zm0.082,-5.828c-0.066,0 -0.136,0.004 -0.21,0.01c-0.278,0.024 -0.534,0.088 -0.757,0.19c-0.258,0.116 -0.474,0.269 -0.659,0.465c-0.122,0.131 -0.301,0.323 -0.435,0.598c-0.113,0.233 -0.182,0.477 -0.211,0.748c-0.022,0.205 -0.035,0.454 0.041,0.749c0.088,0.345 0.272,0.58 0.401,0.726c0.181,0.198 0.38,0.343 0.6,0.438c-0.405,0.058 -0.735,0.358 -0.831,0.759c-0.069,0.293 -0.137,0.604 -0.19,0.862c-0.049,0.251 -0.098,0.493 -0.147,0.72c-0.055,0.262 -0.109,0.531 -0.146,0.78l-0.102,0.74l-0.556,4.489c-0.037,0.3 0.063,0.6 0.272,0.817c0.189,0.196 0.45,0.306 0.721,0.306c0.028,0 0.056,-0.001 0.085,-0.003l1.384,-0.119c0.469,-0.04 0.847,-0.403 0.907,-0.87l0.571,-4.478c0.031,-0.238 0.05,-0.478 0.067,-0.707l0.005,-0.069l0.036,-0.5l0.015,-0.212c0.019,-0.248 0.037,-0.52 0.037,-0.79c0.001,-0.112 0.005,-0.236 0.009,-0.364c0.005,-0.149 0.011,-0.303 0.011,-0.452c0.002,-0.28 -0.115,-0.549 -0.321,-0.74c-0.082,-0.075 -0.175,-0.136 -0.274,-0.18c0.038,-0.015 0.077,-0.032 0.116,-0.049c0.247,-0.112 0.488,-0.285 0.674,-0.484c0.141,-0.153 0.307,-0.335 0.435,-0.599c0.096,-0.197 0.191,-0.424 0.226,-0.724c0.029,-0.252 0.011,-0.503 -0.057,-0.767c-0.079,-0.279 -0.217,-0.524 -0.406,-0.734c-0.19,-0.208 -0.435,-0.361 -0.733,-0.463c-0.185,-0.062 -0.374,-0.093 -0.578,-0.093m-0.082,4.828c-0.001,0.277 -0.019,0.573 -0.02,0.818c0,0.245 -0.017,0.492 -0.034,0.722c-0.017,0.231 -0.034,0.478 -0.051,0.708c-0.018,0.231 -0.034,0.476 -0.067,0.724l-0.572,4.479l-1.383,0.118l0.554,-4.477c0.033,-0.248 0.068,-0.495 0.1,-0.727c0.035,-0.231 0.085,-0.481 0.134,-0.716c0.05,-0.232 0.1,-0.481 0.15,-0.731c0.051,-0.249 0.116,-0.549 0.184,-0.832l1.005,-0.086m0.082,-3.828c0.093,0 0.174,0.012 0.256,0.04c0.115,0.039 0.23,0.096 0.312,0.185c0.082,0.091 0.148,0.2 0.181,0.312c0.032,0.128 0.049,0.257 0.032,0.406c-0.018,0.149 -0.067,0.268 -0.134,0.403c-0.065,0.137 -0.165,0.243 -0.264,0.351c-0.098,0.105 -0.231,0.198 -0.363,0.258c-0.131,0.061 -0.264,0.105 -0.411,0.118c-0.028,0.003 -0.057,0.004 -0.084,0.004c-0.115,0 -0.218,-0.02 -0.312,-0.053c-0.114,-0.039 -0.213,-0.112 -0.295,-0.202c-0.082,-0.092 -0.148,-0.184 -0.181,-0.312c-0.032,-0.127 -0.031,-0.243 -0.015,-0.391c0.016,-0.149 0.05,-0.282 0.116,-0.418c0.066,-0.136 0.165,-0.244 0.264,-0.351c0.1,-0.105 0.214,-0.181 0.347,-0.241c0.132,-0.06 0.281,-0.09 0.427,-0.103c0.044,-0.004 0.085,-0.006 0.124,-0.006" style="fill:#662c91;fill-rule:nonzero;"/><path d="M4.39,24.766c-0.137,0 -0.27,-0.057 -0.364,-0.158c-0.105,-0.111 -0.153,-0.264 -0.131,-0.416c0,0 0.083,-0.551 0.1,-0.696c0.04,-0.345 0.292,-0.648 0.627,-0.753c0.091,-0.028 0.414,-0.115 0.667,-0.183l1.072,-8.593c-0.185,-0.02 -0.366,-0.039 -0.43,-0.048c-0.421,-0.059 -0.691,-0.407 -0.643,-0.829l0.084,-0.712c0.028,-0.236 0.218,-0.419 0.454,-0.439c0,0 4.015,-0.343 4.029,-0.343c0.137,0 0.269,0.057 0.364,0.157c0.105,0.112 0.153,0.265 0.13,0.416c0,0.001 -0.081,0.551 -0.098,0.696c-0.039,0.342 -0.285,0.632 -0.629,0.738c-0.006,0.002 -0.353,0.101 -0.649,0.181l-1.041,8.337l3.263,-0.279c0.066,-0.315 0.115,-0.549 0.127,-0.598c0.114,-0.385 0.449,-0.66 0.822,-0.693c0,0 0.837,-0.071 0.851,-0.071c0.136,0 0.267,0.056 0.362,0.155c0.104,0.109 0.154,0.26 0.134,0.41l-0.336,2.578c-0.03,0.233 -0.219,0.414 -0.452,0.434c0,0 -8.299,0.709 -8.313,0.709" style="fill:#fff;fill-rule:nonzero;"/><path d="M9.854,13.096l0.005,0l-0.005,0Zm0.005,-2l-0.031,0c-0.024,0.001 -0.048,0.002 -0.071,0.004l-1.174,0.101l-1.599,0.137l-1.201,0.102c-0.473,0.041 -0.852,0.407 -0.908,0.879l-0.084,0.714c-0.079,0.672 0.354,1.251 1.011,1.372l-0.968,7.76c-0.16,0.043 -0.301,0.082 -0.355,0.098c-0.527,0.164 -0.919,0.636 -0.982,1.177c-0.016,0.141 -0.097,0.677 -0.097,0.678c-0.045,0.303 0.051,0.609 0.261,0.832c0.189,0.203 0.454,0.316 0.728,0.316c0.028,0 0.057,-0.002 0.086,-0.004l1.202,-0.103l6.557,-0.561l0.147,-0.012l0.363,-0.031c0.468,-0.041 0.846,-0.401 0.906,-0.867l0.336,-2.579c0.039,-0.3 -0.06,-0.601 -0.269,-0.82c-0.19,-0.198 -0.451,-0.309 -0.722,-0.309c-0.029,0 -0.058,0.001 -0.086,0.004l-0.807,0.069c-0.584,0.051 -1.087,0.462 -1.253,1.022c-0.005,0.017 -0.01,0.034 -0.014,0.05c-0.006,0.029 -0.026,0.118 -0.054,0.25l-2.278,0.195l0.923,-7.391c0.188,-0.052 0.333,-0.095 0.337,-0.096c0.538,-0.167 0.922,-0.622 0.985,-1.161c0.012,-0.11 0.063,-0.459 0.085,-0.61c0.016,-0.07 0.023,-0.142 0.023,-0.216c0,-0.552 -0.444,-1 -0.997,-1Zm-0.005,1c0,0 -0.083,0.563 -0.1,0.711c-0.017,0.15 -0.132,0.273 -0.28,0.319c-0.15,0.045 -0.94,0.259 -0.956,0.261l-1.16,9.285l4.249,-0.364c0.1,-0.482 0.185,-0.882 0.201,-0.948c0.049,-0.168 0.215,-0.296 0.379,-0.311l0.808,-0.069l-0.336,2.578l-0.363,0.032l-0.148,0.012l-6.556,0.561l-1.203,0.103c0,0 0.084,-0.563 0.102,-0.712c0.017,-0.147 0.131,-0.288 0.28,-0.334c0.148,-0.045 0.972,-0.263 0.972,-0.263l1.176,-9.434c0,0 -0.774,-0.08 -0.921,-0.1c-0.149,-0.02 -0.231,-0.127 -0.214,-0.276c0.017,-0.148 0.084,-0.71 0.084,-0.71l1.202,-0.103l1.582,-0.135l0.017,-0.001l1.185,-0.102m0,0l0.005,0" style="fill:#662c91;fill-rule:nonzero;"/><path d="M18.647,16.226c-0.845,0.072 -1.586,0.511 -2.206,1.304c-0.642,0.832 -0.969,1.761 -0.972,2.76c-0.002,0.82 0.181,1.126 0.29,1.235c0.056,0.056 0.146,0.122 0.345,0.122c0.469,-0.037 0.864,-0.326 1.261,-0.864c0.435,-0.583 0.815,-1.374 1.1,-2.291l0.289,-2.275l-0.107,0.009Zm-3.182,7.682c-0.647,0 -1.186,-0.212 -1.602,-0.629c-0.555,-0.556 -0.847,-1.457 -0.843,-2.605c0.003,-1.597 0.572,-3.105 1.645,-4.362c1.101,-1.29 2.518,-2.043 4.097,-2.178c0.226,-0.019 0.441,-0.029 0.645,-0.029c0.593,0 1.118,0.084 1.606,0.258c0.222,0.079 0.358,0.301 0.329,0.534l-0.81,6.383c0.201,0.02 0.395,0.039 0.458,0.05c0.384,0.051 0.67,0.383 0.667,0.787l-0.001,0.699c0,0.26 -0.198,0.476 -0.457,0.498l-2.092,0.179c-0.015,0.002 -0.103,0.005 -0.118,0.005c-0.337,0 -0.544,-0.136 -0.658,-0.251c-0.149,-0.149 -0.234,-0.348 -0.255,-0.592c-0.356,0.374 -0.785,0.716 -1.306,0.958c-0.311,0.155 -0.665,0.252 -1.041,0.283c-0.09,0.008 -0.179,0.012 -0.264,0.012" style="fill:#fff;fill-rule:nonzero;"/><path d="M16.098,21.147c-0.039,-0.072 -0.13,-0.303 -0.129,-0.855c0.002,-0.886 0.295,-1.713 0.87,-2.459c0.399,-0.511 0.838,-0.843 1.33,-1.004l-0.207,1.595c-0.265,0.828 -0.609,1.538 -0.996,2.057c-0.387,0.525 -0.659,0.65 -0.818,0.664l-0.044,0.002l-0.006,0Zm3.308,-7.542c-0.218,0 -0.446,0.01 -0.687,0.031c-1.713,0.146 -3.247,0.96 -4.435,2.352c-1.15,1.347 -1.761,2.968 -1.765,4.685c-0.003,1.283 0.339,2.306 0.99,2.959c0.506,0.508 1.182,0.776 1.956,0.776c0.099,0 0.202,-0.005 0.307,-0.013c0.438,-0.038 0.852,-0.152 1.232,-0.34c0.328,-0.152 0.622,-0.34 0.887,-0.55c0.029,0.036 0.058,0.067 0.086,0.096c0.181,0.181 0.503,0.398 1.012,0.398c0.051,0 0.104,-0.003 0.16,-0.008l0.757,-0.065l1.335,-0.114c0.517,-0.044 0.914,-0.476 0.915,-0.994l0.001,-0.703c0.005,-0.637 -0.44,-1.168 -1.065,-1.276l0.746,-5.879c0.059,-0.466 -0.215,-0.911 -0.657,-1.068c-0.543,-0.193 -1.124,-0.287 -1.775,-0.287m-3.302,8.542c0.042,0 0.084,-0.002 0.128,-0.006c0.676,-0.057 1.188,-0.591 1.535,-1.062c0.496,-0.663 0.893,-1.532 1.175,-2.438l0.369,-2.842c-0.098,-0.076 -0.209,-0.103 -0.312,-0.103c-0.017,0 -0.034,0.001 -0.05,0.002l-0.345,0.03c-1.17,0.1 -1.996,0.775 -2.557,1.494c-0.594,0.77 -1.075,1.791 -1.078,3.068c-0.002,1.239 0.38,1.857 1.135,1.857m3.302,-7.542c0.538,0 1.002,0.073 1.44,0.229l-0.874,6.89c0.049,0.012 0.807,0.078 0.938,0.099c0.149,0.02 0.248,0.142 0.247,0.29l-0.001,0.703l-1.336,0.114l-0.756,0.065c-0.026,0.002 -0.051,0.004 -0.075,0.004c-0.293,0 -0.419,-0.166 -0.418,-0.468l0.152,-1.665c-0.513,0.944 -1.173,1.833 -2.164,2.293c-0.28,0.139 -0.576,0.214 -0.873,0.239c-0.075,0.006 -0.15,0.01 -0.221,0.01c-1.402,0 -1.95,-1.224 -1.946,-2.733c0.004,-1.701 0.683,-3.05 1.526,-4.038c0.842,-0.987 2.063,-1.86 3.759,-2.005c0.211,-0.018 0.411,-0.027 0.602,-0.027" style="fill:#662c91;fill-rule:nonzero;"/><path d="M25.615,22.95c-0.135,0 -0.266,-0.055 -0.36,-0.153c-0.105,-0.109 -0.155,-0.259 -0.136,-0.409l0.828,-6.667l-0.406,-0.043c-0.371,-0.043 -0.705,-0.319 -0.653,-0.842l0.085,-0.719c0.028,-0.235 0.218,-0.419 0.454,-0.439c0,0 2.067,-0.176 2.071,-0.176c0.423,0 0.711,0.193 0.834,0.506c0.658,-0.528 1.34,-0.824 2.037,-0.884c0.092,-0.008 0.182,-0.012 0.267,-0.012c0.812,0 1.441,0.347 1.821,0.98c0.586,-0.676 1.466,-1.272 2.591,-1.368c0.144,-0.013 0.283,-0.019 0.416,-0.019c0.887,0 1.572,0.267 2.035,0.793c0.537,0.609 0.733,1.521 0.583,2.712l-0.457,3.624c0.094,0.011 0.407,0.046 0.407,0.046c0.442,0.051 0.711,0.396 0.666,0.84l-0.084,0.719c-0.028,0.236 -0.218,0.419 -0.455,0.439c0,0 -2.697,0.23 -2.711,0.23c-0.135,0 -0.266,-0.055 -0.36,-0.154c-0.105,-0.108 -0.155,-0.258 -0.136,-0.408l0.672,-5.336c0.064,-0.525 0.006,-0.92 -0.165,-1.113c-0.042,-0.047 -0.168,-0.189 -0.563,-0.189c-0.052,0 -0.105,0.002 -0.161,0.007c-1.034,0.088 -1.505,0.979 -1.595,1.715l-0.655,5.335c-0.029,0.235 -0.218,0.417 -0.453,0.437c0,0 -1.495,0.128 -1.509,0.128c-0.135,0 -0.265,-0.055 -0.36,-0.153c-0.104,-0.108 -0.154,-0.258 -0.136,-0.408l0.655,-5.335c0.07,-0.558 0.019,-0.966 -0.144,-1.15c-0.035,-0.04 -0.143,-0.161 -0.494,-0.161c-0.049,0 -0.099,0.002 -0.152,0.006c-0.514,0.045 -1.039,0.368 -1.562,0.962l-0.754,6.095c-0.028,0.234 -0.217,0.416 -0.453,0.436c0,0 -1.494,0.128 -1.508,0.128" style="fill:#fff;fill-rule:nonzero;"/><path d="M35.465,12.206c-0.147,0 -0.301,0.007 -0.46,0.021c-0.918,0.078 -1.803,0.482 -2.507,1.108c-0.468,-0.467 -1.104,-0.722 -1.862,-0.722c-0.099,0 -0.203,0.004 -0.31,0.013c-0.648,0.056 -1.278,0.286 -1.886,0.685c-0.228,-0.198 -0.528,-0.313 -0.864,-0.313c-0.028,0 -0.105,0.004 -0.133,0.006l-2.059,0.176c-0.473,0.041 -0.852,0.408 -0.908,0.879l-0.084,0.71c-0.072,0.712 0.344,1.278 0.996,1.393l-0.766,6.165c-0.037,0.299 0.063,0.6 0.272,0.817c0.19,0.197 0.45,0.307 0.721,0.307c0.028,0 0.057,-0.002 0.085,-0.004l1.466,-0.126c0.471,-0.04 0.849,-0.405 0.907,-0.873l0.734,-5.937c0.394,-0.418 0.781,-0.653 1.128,-0.683c0.037,-0.003 0.073,-0.005 0.108,-0.005c0.085,0 0.129,0.01 0.145,0.015c-0.01,0.014 0.064,0.212 -0.002,0.734l-0.656,5.337c-0.036,0.299 0.064,0.598 0.273,0.816c0.189,0.196 0.45,0.306 0.72,0.306c0.028,0 0.057,-0.002 0.086,-0.004l1.465,-0.126c0.471,-0.04 0.849,-0.405 0.908,-0.874l0.654,-5.335c0.071,-0.577 0.408,-1.215 1.141,-1.278c0.041,-0.004 0.08,-0.005 0.118,-0.005c0.146,0 0.197,0.027 0.198,0.027c0.02,0.03 0.092,0.244 0.035,0.716l-0.672,5.332c-0.038,0.3 0.061,0.6 0.271,0.818c0.189,0.197 0.45,0.307 0.72,0.307c0.029,0 0.058,-0.001 0.086,-0.004l2.669,-0.228c0.473,-0.04 0.852,-0.407 0.908,-0.879l0.084,-0.709c0.071,-0.71 -0.35,-1.276 -1.01,-1.392l0.394,-3.124c0.169,-1.339 -0.068,-2.384 -0.704,-3.105c-0.387,-0.439 -1.118,-0.962 -2.409,-0.962m0,1c1.672,0 2.356,1.076 2.121,2.942l-0.521,4.13c0.527,0.053 0.824,0.092 0.922,0.101c0.165,0.019 0.23,0.126 0.214,0.292l-0.084,0.71l-2.669,0.228l0.672,-5.336c0.142,-1.163 -0.225,-1.864 -1.224,-1.864c-0.066,0 -0.134,0.003 -0.204,0.008c-1.169,0.101 -1.913,1.047 -2.048,2.153l-0.655,5.335l-1.466,0.126l0.655,-5.335c0.158,-1.253 -0.221,-1.873 -1.135,-1.873c-0.062,0 -0.127,0.003 -0.194,0.009c-0.675,0.058 -1.351,0.475 -1.997,1.249l-0.772,6.244l-1.465,0.126l0.89,-7.171c-0.511,-0.053 -0.824,-0.092 -0.922,-0.1c-0.165,-0.019 -0.214,-0.128 -0.198,-0.293l0.084,-0.71l2.06,-0.177c0.017,-0.001 0.032,-0.002 0.047,-0.002c0.184,0 0.285,0.104 0.315,0.282l-0.003,0.851c0.81,-0.92 1.651,-1.433 2.524,-1.508c0.077,-0.007 0.152,-0.01 0.224,-0.01c1.02,0 1.531,0.646 1.683,1.579c0.463,-0.955 1.486,-1.86 2.771,-1.969c0.13,-0.012 0.255,-0.017 0.375,-0.017" style="fill:#662c91;fill-rule:nonzero;"/><path d="M43.129,14.115c-0.821,0.07 -1.459,0.599 -1.896,1.571c-0.037,0.077 -0.072,0.154 -0.104,0.231c0.507,-0.125 0.889,-0.243 1.147,-0.332c0.434,-0.147 0.794,-0.308 1.072,-0.478c0.342,-0.224 0.439,-0.375 0.439,-0.695c0.001,-0.101 -0.031,-0.145 -0.057,-0.172c-0.082,-0.082 -0.258,-0.13 -0.471,-0.13c-0.043,0 -0.086,0.002 -0.13,0.005m-1.601,7.574c-1.445,0 -2.497,-0.735 -2.962,-2.069c-0.158,-0.423 -0.239,-0.943 -0.239,-1.536c0.005,-1.795 0.694,-3.133 1.271,-3.939c0.887,-1.238 2.108,-1.958 3.531,-2.079c0.127,-0.011 0.25,-0.016 0.37,-0.016c1.154,0 2.035,0.495 2.417,1.358c0.127,0.286 0.19,0.565 0.19,0.829c-0.002,1.009 -0.392,1.724 -1.261,2.316c-0.434,0.304 -1.009,0.579 -1.751,0.835c-0.591,0.204 -1.34,0.394 -2.333,0.593c0.005,0.591 0.133,1.026 0.368,1.263c0.182,0.182 0.444,0.27 0.804,0.27c0.066,0 0.135,-0.003 0.207,-0.009c0.544,-0.047 1.003,-0.233 1.402,-0.568l0.143,-0.123c0.173,-0.148 0.342,-0.292 0.52,-0.415c0.157,-0.11 0.338,-0.179 0.508,-0.193l0.016,0c0.307,0 0.52,0.097 0.676,0.27l0.365,0.415c0.167,0.191 0.166,0.475 -0.003,0.664c-0.84,0.937 -1.898,1.95 -3.842,2.117c-0.136,0.011 -0.269,0.017 -0.397,0.017" style="fill:#fff;fill-rule:nonzero;"/><path d="M42.225,15.074c0.274,-0.277 0.59,-0.43 0.947,-0.461c0.005,0 0.009,0 0.013,-0.001c-0.031,0.023 -0.071,0.05 -0.124,0.085c-0.2,0.122 -0.487,0.253 -0.836,0.377m1.274,-3.524c-0.133,0 -0.271,0.005 -0.412,0.018c-1.573,0.134 -2.92,0.924 -3.895,2.286c-0.62,0.866 -1.36,2.303 -1.364,4.228c-0.001,0.653 0.091,1.232 0.273,1.722c0.525,1.508 1.777,2.385 3.427,2.385c0.142,0 0.289,-0.006 0.441,-0.019c2.023,-0.173 3.2,-1.199 4.171,-2.281c0.337,-0.377 0.34,-0.948 0.006,-1.328l-0.361,-0.41c-0.263,-0.292 -0.613,-0.448 -0.993,-0.448c-0.029,0 -0.094,0.003 -0.123,0.005c-0.254,0.022 -0.521,0.121 -0.749,0.28c-0.207,0.144 -0.387,0.298 -0.562,0.448l-0.139,0.119c-0.316,0.266 -0.684,0.414 -1.122,0.451c-0.057,0.005 -0.111,0.008 -0.164,0.008c-0.217,0 -0.368,-0.042 -0.449,-0.123c-0.049,-0.049 -0.146,-0.184 -0.194,-0.509c0.809,-0.173 1.445,-0.342 1.967,-0.521c0.787,-0.272 1.403,-0.567 1.882,-0.904c0.994,-0.676 1.464,-1.543 1.467,-2.719c0,-0.335 -0.078,-0.682 -0.233,-1.032c-0.465,-1.053 -1.513,-1.656 -2.874,-1.656m-3.104,5.043c0.841,-0.169 1.533,-0.36 2.044,-0.535c0.511,-0.173 0.89,-0.353 1.171,-0.525c0.428,-0.281 0.677,-0.564 0.678,-1.12c0.001,-0.549 -0.461,-0.803 -1.029,-0.803c-0.056,0 -0.114,0.002 -0.172,0.007c-1.202,0.103 -1.913,0.98 -2.31,1.864c-0.165,0.342 -0.298,0.713 -0.382,1.112m3.104,-4.043c0.967,0 1.664,0.393 1.96,1.061c0.098,0.22 0.147,0.428 0.147,0.624c-0.002,0.915 -0.382,1.455 -1.042,1.904c-0.397,0.279 -0.941,0.538 -1.632,0.776c-0.693,0.239 -1.583,0.447 -2.67,0.654l-0.001,0.18l0,0.179c-0.004,1.301 0.5,2.086 1.672,2.086c0.08,0 0.163,-0.004 0.25,-0.011c0.724,-0.062 1.269,-0.337 1.681,-0.683c0.214,-0.181 0.412,-0.362 0.627,-0.511c0.082,-0.057 0.181,-0.097 0.264,-0.104c0.012,-0.001 0.025,-0.002 0.037,-0.002c0.086,0 0.17,0.028 0.242,0.108l0.361,0.41c-0.858,0.957 -1.815,1.807 -3.512,1.953c-0.122,0.01 -0.241,0.015 -0.355,0.015c-1.333,0 -2.128,-0.696 -2.49,-1.734c-0.147,-0.397 -0.211,-0.864 -0.21,-1.371c0.003,-1.488 0.517,-2.725 1.177,-3.648c0.661,-0.923 1.668,-1.744 3.167,-1.872c0.112,-0.01 0.221,-0.014 0.327,-0.014" style="fill:#662c91;fill-rule:nonzero;"/><path d="M49.214,11.089c-0.158,0 -0.316,-0.026 -0.469,-0.078c-0.189,-0.065 -0.364,-0.184 -0.509,-0.345c-0.102,-0.111 -0.23,-0.275 -0.292,-0.523c-0.036,-0.138 -0.071,-0.319 -0.044,-0.565c0.022,-0.191 0.076,-0.369 0.178,-0.581c0.101,-0.207 0.223,-0.374 0.375,-0.515c0.149,-0.141 0.311,-0.249 0.495,-0.333c0.153,-0.07 0.342,-0.156 0.577,-0.177c0.015,-0.002 0.089,-0.005 0.104,-0.005c0.2,0 0.371,0.05 0.498,0.094c0.204,0.069 0.37,0.175 0.504,0.325c0.125,0.139 0.222,0.3 0.292,0.481c0.093,0.243 0.083,0.472 0.062,0.643c-0.025,0.232 -0.103,0.407 -0.179,0.565c-0.102,0.211 -0.247,0.364 -0.388,0.497c-0.12,0.112 -0.283,0.252 -0.496,0.35c-0.208,0.094 -0.391,0.145 -0.58,0.161c-0.014,0.002 -0.113,0.006 -0.128,0.006m-3.409,13.095c-0.309,0 -0.579,-0.038 -0.823,-0.116c-0.244,-0.079 -0.389,-0.329 -0.336,-0.579l0.167,-0.799c0.093,-0.345 0.362,-0.552 0.726,-0.583l0.314,-0.026c0.3,-0.027 0.525,-0.104 0.632,-0.219c0.134,-0.145 0.231,-0.406 0.267,-0.715l0.898,-7.274c-0.121,-0.016 -0.26,-0.034 -0.417,-0.056c-0.425,-0.049 -0.688,-0.38 -0.644,-0.821l0.085,-0.719c0.028,-0.235 0.218,-0.419 0.455,-0.439c0,0 2.681,-0.229 2.695,-0.229c0.135,0 0.265,0.054 0.36,0.152c0.105,0.109 0.155,0.259 0.136,0.409l-1.109,8.986c-0.155,1.269 -0.77,2.176 -1.83,2.695c-0.393,0.176 -0.796,0.281 -1.215,0.317c-0.126,0.011 -0.245,0.016 -0.361,0.016" style="fill:#fff;fill-rule:nonzero;"/><path d="M49.824,13.109l0.005,0l-0.005,0Zm-0.196,-5.641c-0.047,0 -0.095,0.002 -0.143,0.006c-0.325,0.029 -0.577,0.144 -0.744,0.22c-0.235,0.107 -0.441,0.246 -0.63,0.424c-0.197,0.184 -0.354,0.398 -0.479,0.654c-0.084,0.175 -0.192,0.43 -0.228,0.746c-0.029,0.263 -0.011,0.494 0.058,0.758c0.086,0.345 0.273,0.582 0.406,0.729c0.082,0.091 0.173,0.174 0.27,0.245l-1.052,0.09c-0.473,0.04 -0.852,0.408 -0.908,0.879l-0.084,0.71c-0.07,0.697 0.347,1.253 1,1.372l-0.838,6.78c-0.03,0.261 -0.1,0.399 -0.136,0.439l-0.001,0c-0.006,0 -0.095,0.045 -0.31,0.063l-0.312,0.026c-0.571,0.049 -1.016,0.4 -1.159,0.917c-0.006,0.021 -0.011,0.041 -0.015,0.062l-0.167,0.799c-0.104,0.501 0.185,0.999 0.672,1.157c0.295,0.095 0.614,0.141 0.976,0.141c0.129,0 0.264,-0.006 0.404,-0.018c0.476,-0.041 0.934,-0.16 1.363,-0.352c1.233,-0.604 1.962,-1.671 2.136,-3.098l1.109,-8.985c0.037,-0.3 -0.063,-0.6 -0.272,-0.817c-0.058,-0.06 -0.124,-0.113 -0.194,-0.157c0.17,-0.105 0.304,-0.221 0.408,-0.319c0.171,-0.162 0.362,-0.362 0.5,-0.648c0.097,-0.203 0.192,-0.432 0.225,-0.729c0.024,-0.204 0.041,-0.524 -0.092,-0.871c-0.092,-0.239 -0.221,-0.452 -0.383,-0.635c-0.197,-0.217 -0.439,-0.373 -0.725,-0.469c-0.157,-0.054 -0.38,-0.119 -0.655,-0.119m0.196,4.641l-1.109,8.987c-0.135,1.106 -0.663,1.87 -1.554,2.306c-0.313,0.141 -0.66,0.236 -1.038,0.269c-0.111,0.009 -0.217,0.014 -0.319,0.014c-0.248,0 -0.471,-0.029 -0.669,-0.093l0.167,-0.799c0.032,-0.117 0.131,-0.175 0.28,-0.187l0.313,-0.027c0.428,-0.037 0.758,-0.163 0.956,-0.376c0.198,-0.213 0.347,-0.553 0.398,-0.999l0.958,-7.763c-0.165,-0.02 -0.461,-0.058 -0.906,-0.119c-0.165,-0.019 -0.23,-0.11 -0.214,-0.276l0.084,-0.709l1.187,-0.102l1.466,-0.126m-0.196,-3.641c0.124,0 0.237,0.032 0.336,0.066c0.115,0.039 0.214,0.096 0.297,0.187c0.082,0.092 0.147,0.2 0.196,0.326c0.049,0.128 0.049,0.259 0.032,0.406c-0.017,0.15 -0.067,0.268 -0.133,0.405c-0.065,0.135 -0.166,0.242 -0.281,0.35c-0.115,0.109 -0.23,0.2 -0.362,0.26c-0.132,0.06 -0.264,0.105 -0.413,0.118c-0.029,0.002 -0.057,0.003 -0.085,0.003c-0.114,0 -0.217,-0.02 -0.31,-0.051c-0.115,-0.039 -0.214,-0.114 -0.296,-0.205c-0.082,-0.09 -0.148,-0.183 -0.18,-0.31c-0.033,-0.129 -0.048,-0.241 -0.032,-0.391c0.017,-0.148 0.067,-0.282 0.132,-0.419c0.067,-0.137 0.15,-0.258 0.266,-0.366c0.114,-0.108 0.23,-0.183 0.362,-0.243c0.132,-0.061 0.264,-0.12 0.412,-0.134c0.02,-0.001 0.04,-0.002 0.059,-0.002" style="fill:#662c91;fill-rule:nonzero;"/><path d="M55.058,13.17c-0.077,0 -0.156,0.003 -0.238,0.01c-0.358,0.031 -0.671,0.116 -0.929,0.252c-0.247,0.132 -0.463,0.312 -0.699,0.581c-0.193,0.219 -0.347,0.497 -0.486,0.874c-0.146,0.395 -0.249,0.814 -0.307,1.246c-0.052,0.391 -0.053,0.783 -0.002,1.197c0.039,0.315 0.114,0.537 0.234,0.7c0.125,0.172 0.281,0.291 0.493,0.378c0.16,0.066 0.348,0.098 0.574,0.098c0.079,0 0.161,-0.004 0.247,-0.011c0.701,-0.06 1.21,-0.314 1.601,-0.799c0.423,-0.528 0.681,-1.219 0.787,-2.11c0.108,-0.909 0.033,-1.545 -0.23,-1.946c-0.132,-0.201 -0.384,-0.47 -1.045,-0.47m-1.667,7.5c-0.484,0 -0.931,-0.068 -1.327,-0.202c-0.542,-0.184 -0.998,-0.494 -1.358,-0.921c-0.371,-0.442 -0.621,-0.946 -0.744,-1.499c-0.133,-0.602 -0.156,-1.252 -0.069,-1.931c0.084,-0.67 0.266,-1.304 0.555,-1.937c0.279,-0.612 0.634,-1.143 1.055,-1.579c0.425,-0.439 0.935,-0.8 1.517,-1.073c0.563,-0.264 1.186,-0.427 1.85,-0.483c0.167,-0.015 0.329,-0.022 0.486,-0.022c0.486,0 0.934,0.068 1.33,0.202c0.571,0.195 1.033,0.499 1.374,0.904c0.352,0.42 0.598,0.93 0.727,1.517c0.128,0.571 0.146,1.199 0.054,1.917c-0.09,0.706 -0.271,1.363 -0.54,1.951c-0.276,0.603 -0.62,1.114 -1.053,1.562c-0.45,0.466 -0.955,0.831 -1.501,1.088c-0.565,0.264 -1.193,0.427 -1.868,0.485c-0.167,0.014 -0.329,0.021 -0.488,0.021" style="fill:#fff;fill-rule:nonzero;"/><path d="M53.698,18.006c-0.16,0 -0.286,-0.02 -0.383,-0.06c-0.129,-0.053 -0.21,-0.113 -0.281,-0.21c-0.067,-0.092 -0.113,-0.245 -0.141,-0.467c-0.046,-0.372 -0.046,-0.721 0.001,-1.069c0.054,-0.396 0.148,-0.78 0.281,-1.141c0.116,-0.317 0.241,-0.544 0.391,-0.715c0.196,-0.223 0.369,-0.369 0.563,-0.472c0.194,-0.103 0.442,-0.169 0.733,-0.193c0.068,-0.006 0.133,-0.009 0.196,-0.009c0.466,0 0.571,0.159 0.627,0.245c0.132,0.201 0.265,0.645 0.151,1.612c-0.095,0.796 -0.318,1.403 -0.682,1.857c-0.302,0.375 -0.688,0.564 -1.252,0.613c-0.071,0.006 -0.139,0.009 -0.204,0.009m1.657,-7.483c-0.171,0 -0.347,0.008 -0.528,0.023c-0.722,0.062 -1.402,0.24 -2.02,0.529c-0.638,0.299 -1.198,0.696 -1.664,1.179c-0.46,0.476 -0.847,1.054 -1.15,1.718c-0.31,0.678 -0.505,1.36 -0.597,2.083c-0.094,0.736 -0.068,1.443 0.077,2.1c0.141,0.634 0.426,1.209 0.85,1.713c0.419,0.499 0.951,0.86 1.579,1.074c0.448,0.151 0.949,0.229 1.489,0.229c0.172,0 0.349,-0.008 0.531,-0.024c0.734,-0.062 1.419,-0.241 2.036,-0.53c0.601,-0.282 1.156,-0.683 1.648,-1.193c0.475,-0.492 0.85,-1.048 1.149,-1.702c0.29,-0.635 0.485,-1.341 0.581,-2.096c0.099,-0.777 0.079,-1.461 -0.061,-2.091c-0.147,-0.663 -0.428,-1.246 -0.833,-1.728c-0.401,-0.476 -0.937,-0.831 -1.593,-1.054c-0.451,-0.153 -0.953,-0.23 -1.494,-0.23m-1.657,8.483c0.093,0 0.189,-0.004 0.289,-0.013c0.824,-0.07 1.467,-0.387 1.947,-0.983c0.478,-0.597 0.777,-1.374 0.895,-2.365c0.118,-0.991 0.037,-1.752 -0.308,-2.279c-0.304,-0.463 -0.788,-0.696 -1.463,-0.696c-0.09,0 -0.184,0.004 -0.281,0.012c-0.412,0.035 -0.791,0.134 -1.121,0.308c-0.33,0.177 -0.594,0.412 -0.841,0.694c-0.248,0.282 -0.429,0.625 -0.579,1.03c-0.149,0.405 -0.266,0.856 -0.333,1.352c-0.067,0.497 -0.051,0.936 -0.002,1.325c0.047,0.387 0.146,0.69 0.326,0.936c0.18,0.246 0.41,0.422 0.707,0.544c0.224,0.092 0.476,0.135 0.764,0.135m1.657,-7.483c0.432,0 0.825,0.059 1.171,0.176c0.461,0.157 0.855,0.401 1.151,0.752c0.294,0.351 0.508,0.789 0.622,1.303c0.114,0.512 0.13,1.084 0.045,1.746c-0.084,0.659 -0.25,1.262 -0.499,1.807c-0.248,0.543 -0.562,1.012 -0.958,1.422c-0.396,0.41 -0.842,0.742 -1.353,0.982c-0.511,0.239 -1.087,0.388 -1.698,0.44c-0.152,0.013 -0.301,0.02 -0.445,0.02c-0.431,0 -0.822,-0.06 -1.168,-0.176c-0.461,-0.157 -0.839,-0.419 -1.134,-0.77c-0.296,-0.351 -0.526,-0.773 -0.64,-1.285c-0.113,-0.514 -0.145,-1.1 -0.061,-1.76c0.084,-0.661 0.267,-1.249 0.515,-1.793c0.248,-0.545 0.563,-1.028 0.959,-1.439c0.396,-0.409 0.857,-0.727 1.369,-0.967c0.511,-0.239 1.071,-0.386 1.681,-0.438c0.152,-0.014 0.3,-0.02 0.443,-0.02" style="fill:#662c91;fill-rule:nonzero;"/><path d="M59.22,20.075c-0.135,0 -0.266,-0.055 -0.36,-0.153c-0.105,-0.109 -0.155,-0.259 -0.136,-0.409l0.829,-6.654c-0.102,-0.014 -0.409,-0.056 -0.409,-0.056c-0.367,-0.043 -0.701,-0.313 -0.65,-0.826l0.085,-0.718c0.028,-0.236 0.218,-0.42 0.454,-0.44l2.026,-0.173c0.015,-0.002 0.122,-0.007 0.137,-0.007c0.215,0 0.688,0.068 0.783,0.643c0.645,-0.628 1.379,-0.98 2.194,-1.05c0.101,-0.009 0.199,-0.013 0.294,-0.013c0.414,0 0.77,0.083 1.088,0.253c0.209,0.112 0.311,0.355 0.243,0.583l-0.333,1.125c-0.127,0.353 -0.373,0.563 -0.668,0.587c-0.014,0.001 -0.027,0.001 -0.04,0.001c-0.241,0 -0.405,-0.033 -0.517,-0.061c-0.027,-0.007 -0.111,-0.023 -0.268,-0.023c-0.07,0 -0.147,0.004 -0.228,0.011c-0.748,0.064 -1.393,0.597 -1.917,1.587l-0.645,5.229c-0.029,0.234 -0.218,0.417 -0.454,0.437c0,0 -1.494,0.127 -1.508,0.127" style="fill:#fff;fill-rule:nonzero;"/><path d="M64.467,9.719c-0.108,0 -0.221,0.005 -0.336,0.015c-0.73,0.063 -1.4,0.318 -2.004,0.764c-0.181,-0.181 -0.475,-0.359 -0.931,-0.359c-0.054,0 -0.114,0.003 -0.178,0.008l-2.028,0.174c-0.472,0.04 -0.852,0.407 -0.907,0.878l-0.084,0.71c-0.071,0.704 0.345,1.265 0.997,1.378l-0.768,6.164c-0.037,0.299 0.063,0.6 0.272,0.817c0.189,0.197 0.45,0.307 0.72,0.307c0.029,0 0.057,-0.002 0.085,-0.004l1.466,-0.125c0.471,-0.04 0.85,-0.405 0.907,-0.874l0.634,-5.135c0.43,-0.779 0.926,-1.197 1.475,-1.244c0.066,-0.006 0.128,-0.009 0.185,-0.009c0.106,0 0.154,0.01 0.154,0.01c0.14,0.035 0.359,0.078 0.579,0.078c0.029,0 0.108,-0.004 0.136,-0.006c0.494,-0.043 0.899,-0.374 1.085,-0.887c0.007,-0.019 0.013,-0.038 0.019,-0.057l0.333,-1.125c0.134,-0.455 -0.068,-0.941 -0.486,-1.165c-0.392,-0.21 -0.825,-0.313 -1.325,-0.313m0,1c0.321,0 0.602,0.06 0.852,0.194l-0.333,1.125c-0.049,0.135 -0.132,0.223 -0.23,0.231c-0.016,0.002 -0.033,0.003 -0.051,0.003c-0.095,0 -0.22,-0.019 -0.345,-0.05c-0.097,-0.024 -0.229,-0.038 -0.388,-0.038c-0.084,0 -0.174,0.004 -0.27,0.013c-0.956,0.081 -1.748,0.738 -2.36,1.934l-0.656,5.318l-1.466,0.125l0.891,-7.152c-0.511,-0.054 -0.823,-0.109 -0.923,-0.118c-0.164,-0.019 -0.213,-0.111 -0.196,-0.277l0.084,-0.71l2.026,-0.173c0.034,-0.003 0.066,-0.005 0.094,-0.005c0.236,0 0.301,0.101 0.301,0.363l-0.054,1.297c0.761,-1.292 1.686,-1.976 2.773,-2.069c0.086,-0.007 0.17,-0.011 0.251,-0.011" style="fill:#662c91;fill-rule:nonzero;"/><path d="M68.229,22.265c-0.31,0 -0.579,-0.038 -0.822,-0.117c-0.243,-0.079 -0.388,-0.327 -0.336,-0.577l0.166,-0.799c0.052,-0.186 0.208,-0.538 0.726,-0.584l0.316,-0.027c0.609,-0.052 0.819,-0.271 0.899,-0.937l0.891,-7.176l-0.364,-0.015c-0.826,-0.131 -0.838,-0.713 -0.823,-0.889l0.071,-0.609c0.027,-0.237 0.217,-0.421 0.454,-0.441l0.912,-0.078l0.051,-0.422c0.261,-2.094 1.675,-3.501 3.69,-3.673c0.127,-0.011 0.251,-0.017 0.37,-0.017c0.309,0 0.591,0.038 0.838,0.113c0.239,0.072 0.389,0.31 0.35,0.558l-0.118,0.729c-0.087,0.632 -0.724,0.687 -0.996,0.71l-0.263,0.022c-0.888,0.077 -1.339,0.572 -1.461,1.605l-0.018,0.166c0,0 1.829,-0.156 1.843,-0.156c0.136,0 0.266,0.055 0.36,0.154c0.106,0.109 0.155,0.26 0.136,0.41l-0.135,1.057c-0.03,0.233 -0.218,0.414 -0.453,0.434l-1.968,0.169l-0.909,7.362c-0.229,1.77 -1.339,2.866 -3.046,3.012c-0.125,0.011 -0.245,0.016 -0.361,0.016" style="fill:#fff;fill-rule:nonzero;"/><path d="M74.432,5.405c-0.134,0 -0.272,0.006 -0.414,0.019c-2.263,0.193 -3.851,1.767 -4.143,4.107l-0.003,0.022l-0.507,0.044c-0.474,0.04 -0.854,0.409 -0.909,0.881l-0.068,0.594c-0.052,0.62 0.277,1.276 1.12,1.439l-0.825,6.651c-0.057,0.469 -0.101,0.472 -0.446,0.502l-0.313,0.026c-0.569,0.05 -1.012,0.399 -1.158,0.909c-0.007,0.024 -0.013,0.048 -0.018,0.072l-0.166,0.798c-0.103,0.5 0.186,0.998 0.671,1.155c0.294,0.095 0.614,0.142 0.976,0.142c0.13,0 0.265,-0.006 0.405,-0.018c1.933,-0.165 3.24,-1.452 3.498,-3.443l0.455,-3.683l0.406,-3.282l1.563,-0.134c0.47,-0.041 0.847,-0.403 0.906,-0.87l0.126,-0.987c0.013,-0.063 0.02,-0.129 0.02,-0.197c0,-0.552 -0.446,-1 -0.997,-1l-0.016,0c-0.029,0.001 -0.059,0.002 -0.087,0.005l-1.142,0.098c0.182,-0.599 0.55,-0.687 0.919,-0.719l0.263,-0.023c1.077,-0.092 1.383,-0.676 1.449,-1.149l0.115,-0.708c0.08,-0.495 -0.218,-0.972 -0.698,-1.117c-0.295,-0.089 -0.625,-0.134 -0.982,-0.134m0.174,4.747l0.005,0m-0.179,-3.747c0.252,0 0.484,0.028 0.692,0.091l-0.117,0.729c-0.032,0.232 -0.248,0.266 -0.545,0.292l-0.262,0.022c-1.12,0.096 -1.765,0.773 -1.915,2.044l-0.085,0.775l2.406,-0.206l-0.135,1.057l-2.372,0.203c-0.32,2.595 -0.639,5.172 -0.959,7.765c-0.184,1.421 -1.027,2.441 -2.591,2.575c-0.111,0.009 -0.218,0.014 -0.32,0.014c-0.247,0 -0.47,-0.029 -0.667,-0.093l0.165,-0.799c0.034,-0.116 0.133,-0.174 0.282,-0.187l0.313,-0.027c0.905,-0.077 1.252,-0.532 1.353,-1.375l0.958,-7.714l-0.907,-0.037c-0.263,-0.043 -0.361,-0.149 -0.345,-0.347l0.069,-0.594l1.317,-0.112l0.101,-0.826c0.218,-1.751 1.341,-3.073 3.235,-3.235c0.113,-0.01 0.223,-0.015 0.329,-0.015" style="fill:#662c91;fill-rule:nonzero;"/><path d="M75.192,18.708c-0.136,0 -0.266,-0.055 -0.36,-0.153c-0.105,-0.109 -0.155,-0.259 -0.136,-0.409l0.828,-6.654c-0.103,-0.013 -0.407,-0.056 -0.407,-0.056c-0.442,-0.05 -0.698,-0.382 -0.651,-0.829l0.085,-0.715c0.028,-0.236 0.217,-0.42 0.454,-0.44l2.025,-0.173c0.015,-0.001 0.124,-0.006 0.139,-0.006c0.241,0 0.435,0.072 0.577,0.214c0.128,0.128 0.183,0.284 0.206,0.428c0.644,-0.628 1.378,-0.979 2.192,-1.049c0.102,-0.009 0.2,-0.013 0.296,-0.013c0.415,0 0.772,0.083 1.088,0.253c0.207,0.113 0.309,0.355 0.241,0.582l-0.332,1.124c-0.13,0.356 -0.376,0.564 -0.669,0.589l-0.038,0c-0.239,0 -0.404,-0.032 -0.517,-0.06c-0.03,-0.007 -0.114,-0.023 -0.272,-0.023c-0.069,0 -0.145,0.003 -0.225,0.01c-0.75,0.064 -1.394,0.597 -1.918,1.587l-0.644,5.229c-0.028,0.234 -0.218,0.417 -0.453,0.437c0,0 -1.495,0.127 -1.509,0.127" style="fill:#fff;fill-rule:nonzero;"/><path d="M80.44,8.352c-0.109,0 -0.223,0.005 -0.339,0.015c-0.73,0.063 -1.399,0.319 -2.003,0.765c-0.165,-0.165 -0.46,-0.36 -0.93,-0.36c-0.056,0 -0.116,0.003 -0.181,0.009l-2.026,0.173c-0.472,0.04 -0.851,0.407 -0.907,0.879l-0.084,0.709c-0.071,0.705 0.345,1.265 0.997,1.377l-0.768,6.165c-0.037,0.3 0.063,0.6 0.272,0.817c0.19,0.197 0.45,0.307 0.721,0.307c0.028,0 0.057,-0.001 0.085,-0.003l1.466,-0.126c0.47,-0.04 0.849,-0.405 0.907,-0.874l0.633,-5.135c0.429,-0.779 0.925,-1.197 1.475,-1.244c0.066,-0.006 0.127,-0.008 0.184,-0.008c0.105,0 0.153,0.009 0.153,0.009c0.143,0.035 0.363,0.078 0.581,0.078c0.048,0 0.093,-0.002 0.135,-0.006c0.491,-0.042 0.897,-0.372 1.085,-0.882c0.007,-0.021 0.015,-0.042 0.021,-0.063l0.332,-1.124c0.133,-0.453 -0.068,-0.938 -0.484,-1.163c-0.385,-0.209 -0.831,-0.315 -1.325,-0.315m0,1c0.32,0 0.602,0.06 0.85,0.194l-0.332,1.124c-0.05,0.136 -0.132,0.224 -0.231,0.233c-0.016,0.001 -0.033,0.002 -0.051,0.002c-0.095,0 -0.22,-0.019 -0.345,-0.05c-0.097,-0.024 -0.23,-0.037 -0.389,-0.037c-0.083,0 -0.173,0.003 -0.269,0.012c-0.957,0.081 -1.749,0.738 -2.36,1.934l-0.655,5.318l-1.466,0.126l0.891,-7.153c-0.512,-0.054 -0.824,-0.109 -0.922,-0.118c-0.166,-0.018 -0.215,-0.111 -0.198,-0.277l0.084,-0.71l2.026,-0.173c0.034,-0.003 0.065,-0.005 0.095,-0.005c0.235,0 0.3,0.101 0.299,0.364l-0.052,1.297c0.76,-1.293 1.685,-1.976 2.772,-2.069c0.087,-0.008 0.172,-0.012 0.253,-0.012" style="fill:#662c91;fill-rule:nonzero;"/><path d="M85.726,10.487c-0.844,0.072 -1.586,0.511 -2.205,1.303c-0.641,0.832 -0.969,1.762 -0.971,2.761c-0.002,0.82 0.181,1.125 0.289,1.235c0.057,0.056 0.147,0.121 0.345,0.121c0.47,-0.036 0.864,-0.325 1.26,-0.863c0.436,-0.584 0.816,-1.375 1.101,-2.291l0.289,-2.275l-0.108,0.009Zm-3.182,7.681c-0.646,0 -1.184,-0.211 -1.6,-0.628c-0.556,-0.557 -0.848,-1.458 -0.845,-2.606c0.004,-1.597 0.572,-3.105 1.646,-4.361c1.117,-1.309 2.495,-2.042 4.096,-2.178c0.227,-0.02 0.44,-0.03 0.644,-0.03c0.594,0 1.119,0.085 1.608,0.258c0.222,0.079 0.359,0.301 0.329,0.534l-0.809,6.384c0.199,0.019 0.392,0.039 0.455,0.049c0.385,0.053 0.669,0.383 0.669,0.784l-0.002,0.704c-0.001,0.259 -0.199,0.474 -0.457,0.496l-2.091,0.18c-0.015,0.001 -0.105,0.005 -0.118,0.005c-0.337,0 -0.544,-0.137 -0.658,-0.251c-0.15,-0.149 -0.235,-0.348 -0.256,-0.592c-0.356,0.374 -0.784,0.716 -1.305,0.958c-0.31,0.153 -0.663,0.25 -1.041,0.282c-0.091,0.008 -0.18,0.012 -0.265,0.012" style="fill:#fff;fill-rule:nonzero;"/><path d="M83.178,15.407c-0.038,-0.072 -0.13,-0.303 -0.128,-0.855c0.002,-0.887 0.294,-1.714 0.869,-2.459c0.399,-0.511 0.838,-0.843 1.33,-1.003l-0.207,1.594c-0.265,0.829 -0.609,1.539 -0.996,2.056c-0.303,0.412 -0.591,0.646 -0.818,0.665l-0.043,0.002l-0.007,0Zm3.308,-7.542c-0.218,0 -0.447,0.01 -0.688,0.031c-1.713,0.147 -3.246,0.96 -4.434,2.352c-1.151,1.348 -1.761,2.969 -1.765,4.685c-0.004,1.283 0.339,2.306 0.99,2.959c0.506,0.508 1.183,0.776 1.955,0.776c0.1,0 0.202,-0.005 0.308,-0.013c0.441,-0.039 0.856,-0.153 1.232,-0.34c0.328,-0.152 0.622,-0.34 0.887,-0.549c0.028,0.035 0.058,0.066 0.086,0.095c0.181,0.181 0.503,0.398 1.012,0.398c0.05,0 0.104,-0.002 0.16,-0.007l0.758,-0.065l1.333,-0.114c0.516,-0.045 0.913,-0.476 0.915,-0.994l0.002,-0.702c0.001,-0.641 -0.445,-1.171 -1.065,-1.278l0.746,-5.879c0.06,-0.466 -0.215,-0.911 -0.658,-1.068c-0.543,-0.193 -1.124,-0.287 -1.774,-0.287m-3.301,8.542c0.041,0 0.084,-0.002 0.128,-0.006c0.675,-0.057 1.187,-0.59 1.534,-1.062c0.496,-0.663 0.894,-1.531 1.176,-2.438l0.368,-2.842c-0.098,-0.076 -0.209,-0.103 -0.312,-0.103c-0.016,0 -0.033,0.001 -0.049,0.003l-0.347,0.03c-1.168,0.1 -1.994,0.774 -2.556,1.493c-0.595,0.771 -1.074,1.792 -1.077,3.068c-0.003,1.239 0.379,1.857 1.135,1.857m3.301,-7.542c0.538,0 1.002,0.074 1.44,0.229l-0.874,6.891c0.049,0.011 0.807,0.078 0.939,0.098c0.148,0.021 0.246,0.142 0.246,0.29l-0.002,0.703l-1.334,0.114l-0.757,0.065c-0.027,0.003 -0.052,0.004 -0.075,0.004c-0.293,0 -0.42,-0.166 -0.419,-0.468l0.153,-1.664c-0.514,0.943 -1.174,1.832 -2.164,2.293c-0.279,0.138 -0.576,0.213 -0.873,0.238c-0.076,0.007 -0.15,0.01 -0.222,0.01c-1.4,0 -1.949,-1.224 -1.945,-2.733c0.004,-1.7 0.682,-3.049 1.525,-4.037c0.842,-0.988 2.063,-1.861 3.76,-2.006c0.211,-0.018 0.411,-0.027 0.602,-0.027" style="fill:#662c91;fill-rule:nonzero;"/><path d="M93.054,9.826c-0.205,0.018 -0.385,0.075 -0.566,0.181c-0.167,0.097 -0.313,0.228 -0.423,0.382c-0.116,0.163 -0.209,0.355 -0.275,0.571c-0.066,0.211 -0.096,0.421 -0.096,0.664c-0.001,0.238 0.037,0.559 0.221,0.752c0.069,0.067 0.184,0.145 0.447,0.145c0.044,0 0.089,-0.002 0.136,-0.006c0.216,-0.019 0.4,-0.079 0.563,-0.184c0.188,-0.123 0.33,-0.258 0.43,-0.412c0.128,-0.195 0.222,-0.393 0.289,-0.606c0.074,-0.24 0.11,-0.453 0.111,-0.65c0.001,-0.33 -0.069,-0.576 -0.196,-0.691c-0.113,-0.103 -0.276,-0.152 -0.499,-0.152c-0.046,0 -0.093,0.002 -0.142,0.006m0.166,6.719c-0.286,0.007 -0.506,0.012 -0.711,0.029c-0.437,0.038 -0.782,0.1 -1.054,0.19c-0.312,0.105 -0.54,0.209 -0.695,0.318c-0.162,0.112 -0.269,0.219 -0.323,0.321c-0.061,0.106 -0.092,0.219 -0.092,0.319c-0.001,0.211 0.063,0.325 0.236,0.421c0.17,0.096 0.427,0.144 0.763,0.144c0.115,0 0.237,-0.006 0.365,-0.017c0.31,-0.026 0.591,-0.091 0.839,-0.194c0.296,-0.124 0.495,-0.235 0.646,-0.363c0.174,-0.149 0.293,-0.29 0.372,-0.445c0.074,-0.142 0.111,-0.294 0.111,-0.457c0.001,-0.123 0.001,-0.196 -0.014,-0.261c-0.101,-0.004 -0.2,-0.007 -0.297,-0.007l-0.146,0.002Zm-2.136,3.772c-0.293,0 -0.578,-0.022 -0.846,-0.065c-0.457,-0.074 -0.839,-0.198 -1.167,-0.38c-0.369,-0.205 -0.639,-0.46 -0.829,-0.781c-0.195,-0.307 -0.298,-0.671 -0.298,-1.068c0.001,-0.534 0.149,-1.015 0.44,-1.429c0.275,-0.394 0.624,-0.725 1.035,-0.981c0.402,-0.253 0.852,-0.451 1.376,-0.605c0.529,-0.153 1.015,-0.244 1.533,-0.287c0.184,-0.017 0.37,-0.02 0.554,-0.02c-0.004,-0.054 -0.006,-0.107 -0.006,-0.161c0,-0.063 0.004,-0.129 0.011,-0.198c-0.211,0.057 -0.439,0.096 -0.7,0.118c-0.082,0.008 -0.164,0.011 -0.244,0.011c-0.267,0 -0.542,-0.038 -0.82,-0.113c-0.319,-0.084 -0.61,-0.241 -0.913,-0.494c-0.28,-0.233 -0.496,-0.541 -0.639,-0.914c-0.145,-0.379 -0.213,-0.781 -0.211,-1.229c0,-0.463 0.082,-0.902 0.25,-1.34c0.182,-0.478 0.418,-0.877 0.719,-1.219c0.328,-0.371 0.725,-0.68 1.183,-0.92c0.484,-0.251 1.029,-0.405 1.622,-0.455c0.118,-0.01 0.233,-0.015 0.345,-0.015c0.492,0 0.95,0.099 1.361,0.294c0,0 2.161,-0.184 2.175,-0.184c0.137,0 0.268,0.056 0.362,0.155c0.105,0.111 0.154,0.262 0.133,0.413l-0.067,0.494c-0.034,0.204 -0.102,0.332 -0.162,0.437c-0.114,0.198 -0.305,0.341 -0.538,0.401l-0.553,0.143c0.037,0.182 0.036,0.374 0.035,0.561c0,0.322 -0.041,0.622 -0.122,0.889c-0.072,0.237 -0.147,0.482 -0.268,0.711c-0.108,0.206 -0.217,0.41 -0.343,0.597c-0.064,0.098 -0.119,0.199 -0.174,0.301l-0.104,0.186c-0.074,0.127 -0.124,0.262 -0.173,0.388c-0.069,0.177 -0.091,0.312 -0.091,0.453c-0.001,0.143 0.024,0.252 0.075,0.326c0.099,0.148 0.211,0.304 0.323,0.463c0.183,0.254 0.302,0.476 0.42,0.7c0.173,0.333 0.245,0.672 0.245,1.084c-0.001,0.481 -0.106,0.92 -0.32,1.344c-0.214,0.418 -0.514,0.798 -0.893,1.131c-0.394,0.347 -0.868,0.634 -1.368,0.831c-0.529,0.209 -1.142,0.348 -1.772,0.401c-0.199,0.017 -0.391,0.026 -0.576,0.026" style="fill:#fff;fill-rule:nonzero;"/><path d="M90.848,17.718c0.002,-0.023 0.007,-0.038 0.013,-0.048c0.017,-0.033 0.049,-0.084 0.181,-0.176c0.118,-0.081 0.309,-0.167 0.573,-0.255c0.23,-0.077 0.545,-0.133 0.937,-0.166c0.178,-0.015 0.366,-0.02 0.566,-0.025c-0.052,0.095 -0.131,0.186 -0.249,0.287c-0.106,0.088 -0.268,0.177 -0.512,0.279c-0.203,0.084 -0.429,0.136 -0.69,0.159c-0.114,0.009 -0.22,0.014 -0.322,0.014c-0.296,0 -0.439,-0.044 -0.497,-0.069m1.514,-5.696c-0.078,0 -0.107,-0.011 -0.107,-0.011c-0.01,-0.012 -0.062,-0.134 -0.061,-0.383c0,-0.195 0.023,-0.359 0.072,-0.516c0.053,-0.171 0.12,-0.311 0.207,-0.433c0.067,-0.094 0.158,-0.177 0.261,-0.235c0.125,-0.074 0.231,-0.108 0.363,-0.119c0.033,-0.003 0.066,-0.005 0.099,-0.005c0.121,0 0.165,0.023 0.165,0.023c-0.006,0.002 0.03,0.108 0.03,0.321c-0.001,0.145 -0.03,0.31 -0.09,0.503c-0.052,0.169 -0.124,0.321 -0.227,0.478c-0.062,0.094 -0.157,0.182 -0.289,0.269c-0.089,0.057 -0.198,0.092 -0.331,0.103c-0.031,0.003 -0.062,0.005 -0.092,0.005m1.116,-4.75c-0.125,0 -0.253,0.006 -0.386,0.017c-0.659,0.056 -1.267,0.227 -1.808,0.509c-0.515,0.27 -0.961,0.617 -1.33,1.034c-0.34,0.386 -0.607,0.836 -0.812,1.372c-0.189,0.492 -0.281,0.989 -0.282,1.518c-0.002,0.51 0.078,0.97 0.244,1.405c0.173,0.455 0.438,0.833 0.788,1.123c0.172,0.143 0.342,0.26 0.516,0.356c-0.468,0.155 -0.879,0.348 -1.256,0.585c-0.465,0.29 -0.863,0.666 -1.178,1.118c-0.351,0.498 -0.529,1.075 -0.53,1.712c0,0.494 0.129,0.949 0.384,1.352c0.217,0.368 0.559,0.692 0.999,0.936c0.38,0.21 0.815,0.353 1.33,0.436c0.295,0.048 0.608,0.072 0.928,0.072c0.199,0 0.405,-0.009 0.619,-0.027c0.677,-0.058 1.338,-0.208 1.912,-0.434c0.554,-0.219 1.078,-0.537 1.514,-0.921c0.426,-0.374 0.765,-0.804 1.007,-1.278c0.249,-0.491 0.375,-1.018 0.376,-1.571c0.001,-0.488 -0.093,-0.915 -0.276,-1.268c-0.138,-0.261 -0.271,-0.514 -0.437,-0.745l-0.045,-0.063c-0.106,-0.149 -0.212,-0.298 -0.305,-0.438c0.002,0 0,-0.021 0,-0.055c0,-0.096 0.014,-0.167 0.028,-0.201l0.029,-0.074c0.047,-0.122 0.092,-0.238 0.139,-0.32l0.109,-0.195c0.049,-0.091 0.098,-0.182 0.158,-0.273c0.138,-0.205 0.252,-0.419 0.367,-0.638c0.14,-0.267 0.225,-0.547 0.3,-0.793c0.096,-0.314 0.144,-0.662 0.145,-1.035c0.001,-0.06 0.001,-0.121 0,-0.185l0.144,-0.037c0.362,-0.092 0.664,-0.319 0.846,-0.637c0.083,-0.144 0.175,-0.328 0.219,-0.585l0.072,-0.528c0.04,-0.3 -0.057,-0.603 -0.267,-0.823c-0.19,-0.199 -0.452,-0.31 -0.724,-0.31c-0.028,0 -0.057,0.001 -0.086,0.003l-2.002,0.171c-0.445,-0.189 -0.931,-0.285 -1.449,-0.285m-2.133,11.515c0.128,0 0.264,-0.006 0.407,-0.018c0.364,-0.031 0.692,-0.108 0.989,-0.232c0.296,-0.123 0.561,-0.26 0.776,-0.442c0.214,-0.182 0.38,-0.375 0.494,-0.598c0.116,-0.222 0.166,-0.456 0.166,-0.685c0.001,-0.146 0.001,-0.261 -0.03,-0.388c-0.033,-0.113 -0.067,-0.24 -0.114,-0.35c-0.241,-0.02 -0.457,-0.03 -0.671,-0.03c-0.052,0 -0.103,0 -0.154,0.002c-0.262,0.006 -0.51,0.011 -0.741,0.03c-0.445,0.038 -0.84,0.104 -1.17,0.215c-0.33,0.111 -0.609,0.231 -0.824,0.382c-0.215,0.149 -0.38,0.31 -0.479,0.497c-0.099,0.173 -0.149,0.373 -0.149,0.552c-0.001,0.393 0.163,0.674 0.491,0.858c0.252,0.14 0.591,0.207 1.009,0.207m1.017,-5.765c0.057,0 0.117,-0.003 0.179,-0.008c0.295,-0.026 0.56,-0.113 0.791,-0.263c0.232,-0.151 0.429,-0.331 0.578,-0.557c0.148,-0.226 0.264,-0.464 0.347,-0.732c0.083,-0.27 0.133,-0.535 0.134,-0.796c0.001,-0.474 -0.114,-0.841 -0.36,-1.064c-0.209,-0.191 -0.492,-0.282 -0.835,-0.282c-0.06,0 -0.121,0.003 -0.185,0.008c-0.297,0.026 -0.545,0.113 -0.775,0.248c-0.231,0.133 -0.428,0.314 -0.577,0.523c-0.15,0.208 -0.265,0.447 -0.347,0.715c-0.084,0.268 -0.118,0.533 -0.118,0.811c-0.002,0.491 0.129,0.855 0.36,1.097c0.21,0.206 0.469,0.3 0.808,0.3m1.116,-4.75c0.48,0 0.894,0.105 1.264,0.305l2.273,-0.194l-0.067,0.494c-0.017,0.1 -0.05,0.168 -0.1,0.254c-0.05,0.087 -0.132,0.142 -0.229,0.167l-1.041,0.269c0.049,0.143 0.082,0.272 0.116,0.432c0.033,0.144 0.032,0.307 0.031,0.486c0,0.278 -0.034,0.526 -0.101,0.746c-0.066,0.217 -0.132,0.435 -0.231,0.623c-0.1,0.19 -0.199,0.378 -0.316,0.55c-0.114,0.174 -0.197,0.344 -0.296,0.517c-0.1,0.172 -0.166,0.357 -0.233,0.526c-0.066,0.169 -0.098,0.367 -0.098,0.564c-0.001,0.229 0.046,0.438 0.161,0.607c0.115,0.171 0.247,0.355 0.378,0.54c0.132,0.184 0.246,0.404 0.361,0.623c0.114,0.219 0.163,0.492 0.163,0.804c-0.001,0.391 -0.085,0.758 -0.267,1.117c-0.182,0.358 -0.446,0.692 -0.776,0.982c-0.329,0.289 -0.742,0.553 -1.222,0.742c-0.476,0.188 -1.037,0.317 -1.629,0.367c-0.185,0.016 -0.363,0.024 -0.534,0.024c-0.271,0 -0.526,-0.019 -0.768,-0.058c-0.395,-0.064 -0.724,-0.169 -1.004,-0.324c-0.279,-0.155 -0.493,-0.349 -0.64,-0.597c-0.148,-0.234 -0.229,-0.506 -0.229,-0.815c0.001,-0.427 0.117,-0.81 0.349,-1.141c0.231,-0.331 0.528,-0.618 0.891,-0.845c0.362,-0.228 0.775,-0.409 1.252,-0.549c0.479,-0.138 0.94,-0.227 1.434,-0.269c0.198,-0.017 0.396,-0.018 0.592,-0.019c0.199,0 0.38,0.001 0.578,0.016c-0.049,-0.093 -0.082,-0.205 -0.115,-0.316c-0.032,-0.112 -0.05,-0.225 -0.049,-0.356c0,-0.163 0.034,-0.347 0.084,-0.53c0.049,-0.183 0.15,-0.389 0.265,-0.628c-0.215,0.166 -0.444,0.284 -0.708,0.388c-0.265,0.104 -0.545,0.16 -0.873,0.189c-0.067,0.005 -0.134,0.008 -0.199,0.008c-0.242,0 -0.472,-0.036 -0.691,-0.095c-0.281,-0.075 -0.51,-0.218 -0.723,-0.396c-0.214,-0.177 -0.378,-0.409 -0.494,-0.709c-0.114,-0.301 -0.179,-0.638 -0.177,-1.047c0,-0.393 0.067,-0.775 0.217,-1.163c0.148,-0.389 0.347,-0.75 0.627,-1.068c0.282,-0.317 0.627,-0.591 1.04,-0.808c0.413,-0.214 0.89,-0.353 1.433,-0.4c0.104,-0.008 0.204,-0.013 0.301,-0.013" style="fill:#662c91;fill-rule:nonzero;"/><path d="M101.944,9.099c-0.845,0.072 -1.587,0.511 -2.204,1.303c-0.643,0.831 -0.971,1.761 -0.973,2.761c-0.002,0.82 0.181,1.125 0.29,1.234c0.057,0.057 0.148,0.122 0.347,0.123c0.468,-0.037 0.862,-0.327 1.259,-0.864c0.434,-0.584 0.814,-1.375 1.099,-2.291l0.289,-2.275l-0.107,0.009Zm-3.18,7.682c-0.647,0 -1.185,-0.212 -1.602,-0.629c-0.556,-0.556 -0.848,-1.457 -0.846,-2.606c0.005,-1.595 0.573,-3.103 1.645,-4.36c1.118,-1.309 2.497,-2.042 4.097,-2.179c0.227,-0.019 0.442,-0.029 0.646,-0.029c0.594,0 1.119,0.084 1.606,0.257c0.222,0.079 0.359,0.301 0.329,0.534l-0.808,6.384c0.199,0.019 0.391,0.039 0.454,0.049c0.385,0.053 0.669,0.383 0.669,0.784l-0.002,0.704c-0.001,0.26 -0.199,0.475 -0.457,0.497l-2.091,0.179c-0.015,0.002 -0.104,0.005 -0.117,0.005c-0.337,0 -0.544,-0.136 -0.657,-0.251c-0.15,-0.149 -0.236,-0.348 -0.256,-0.593c-0.356,0.375 -0.785,0.717 -1.306,0.959c-0.312,0.154 -0.665,0.251 -1.04,0.283c-0.091,0.008 -0.179,0.012 -0.264,0.012" style="fill:#fff;fill-rule:nonzero;"/><path d="M99.396,14.019c-0.038,-0.071 -0.13,-0.302 -0.129,-0.854c0.002,-0.888 0.295,-1.715 0.869,-2.459c0.4,-0.511 0.838,-0.844 1.33,-1.004l-0.206,1.594c-0.265,0.829 -0.609,1.539 -0.997,2.057c-0.302,0.411 -0.591,0.645 -0.817,0.664l-0.042,0.002l-0.008,0Zm3.308,-7.542c-0.218,0 -0.447,0.011 -0.688,0.031c-1.714,0.147 -3.247,0.96 -4.435,2.353c-1.15,1.347 -1.76,2.967 -1.765,4.683c-0.002,1.284 0.341,2.308 0.992,2.961c0.506,0.507 1.183,0.775 1.955,0.775c0.1,0 0.201,-0.004 0.307,-0.013c0.439,-0.038 0.853,-0.152 1.23,-0.339c0.328,-0.153 0.623,-0.341 0.888,-0.55c0.029,0.035 0.059,0.067 0.087,0.095c0.181,0.182 0.503,0.398 1.011,0.398c0.05,0 0.104,-0.002 0.16,-0.007l0.758,-0.065l1.333,-0.114c0.516,-0.044 0.913,-0.476 0.915,-0.994l0.002,-0.702c0.001,-0.641 -0.444,-1.17 -1.064,-1.277l0.745,-5.88c0.06,-0.467 -0.215,-0.912 -0.657,-1.069c-0.543,-0.192 -1.124,-0.286 -1.774,-0.286m-3.3,8.542c0.041,0 0.084,-0.001 0.128,-0.005c0.675,-0.058 1.186,-0.592 1.533,-1.062c0.495,-0.664 0.893,-1.532 1.175,-2.439l0.368,-2.842c-0.097,-0.075 -0.208,-0.102 -0.31,-0.102c-0.016,0 -0.034,0 -0.05,0.002l-0.347,0.03c-1.169,0.1 -1.995,0.774 -2.556,1.493c-0.595,0.771 -1.075,1.792 -1.078,3.068c-0.003,1.239 0.381,1.857 1.137,1.857m3.3,-7.542c0.537,0 1.002,0.074 1.439,0.229l-0.873,6.891c0.049,0.011 0.806,0.078 0.938,0.098c0.149,0.021 0.246,0.142 0.246,0.291l-0.002,0.702l-1.333,0.115l-0.758,0.065c-0.027,0.002 -0.052,0.003 -0.075,0.003c-0.292,0 -0.418,-0.166 -0.417,-0.468l0.151,-1.664c-0.514,0.943 -1.173,1.833 -2.164,2.293c-0.279,0.138 -0.576,0.213 -0.871,0.238c-0.076,0.007 -0.151,0.01 -0.222,0.01c-1.4,0 -1.95,-1.224 -1.947,-2.733c0.005,-1.701 0.684,-3.049 1.525,-4.037c0.843,-0.987 2.064,-1.86 3.76,-2.005c0.211,-0.018 0.411,-0.028 0.603,-0.028" style="fill:#662c91;fill-rule:nonzero;"/><path d="M105.653,16.102c-0.136,0 -0.266,-0.055 -0.36,-0.153c-0.105,-0.109 -0.155,-0.259 -0.136,-0.409l0.828,-6.666l-0.408,-0.044c-0.368,-0.042 -0.703,-0.317 -0.651,-0.842l0.086,-0.719c0.028,-0.235 0.218,-0.418 0.454,-0.438c0,0 2.066,-0.177 2.069,-0.177c0.458,0 0.759,0.226 0.862,0.583c0.775,-0.59 1.586,-0.925 2.422,-0.996c0.122,-0.011 0.24,-0.015 0.354,-0.015c0.825,0 1.503,0.273 1.962,0.792c0.548,0.619 0.762,1.558 0.621,2.715l-0.457,3.632c0.099,0.014 0.399,0.056 0.399,0.056c0.455,0.053 0.718,0.383 0.673,0.825l-0.085,0.719c-0.028,0.236 -0.217,0.419 -0.453,0.439c0,0 -2.698,0.23 -2.711,0.23c-0.136,0 -0.266,-0.055 -0.361,-0.154c-0.104,-0.108 -0.154,-0.258 -0.135,-0.408l0.671,-5.32c0.066,-0.533 0.011,-0.917 -0.16,-1.11c-0.044,-0.05 -0.178,-0.203 -0.622,-0.203c-0.06,0 -0.124,0.003 -0.189,0.009c-0.641,0.054 -1.282,0.413 -1.959,1.094l-0.751,5.997c-0.029,0.234 -0.219,0.416 -0.453,0.436c0,0 -1.496,0.127 -1.51,0.127" style="fill:#fff;fill-rule:nonzero;"/><path d="M111.174,5.725c-0.128,0 -0.26,0.006 -0.396,0.018c-0.77,0.065 -1.517,0.327 -2.232,0.781c-0.236,-0.237 -0.561,-0.374 -0.932,-0.374c-0.028,0 -0.104,0.003 -0.132,0.006l-2.058,0.175c-0.473,0.041 -0.852,0.408 -0.908,0.878l-0.085,0.71c-0.072,0.714 0.344,1.28 0.996,1.394l-0.766,6.165c-0.037,0.3 0.063,0.6 0.272,0.817c0.189,0.197 0.45,0.306 0.72,0.306c0.029,0 0.057,-0.001 0.085,-0.003l1.467,-0.125c0.471,-0.041 0.849,-0.404 0.907,-0.873l0.729,-5.823c0.539,-0.511 1.052,-0.791 1.527,-0.831c0.051,-0.005 0.1,-0.007 0.148,-0.007c0.189,0 0.252,0.038 0.253,0.038c0.022,0.032 0.092,0.243 0.032,0.713l-0.671,5.319c-0.037,0.299 0.063,0.6 0.272,0.818c0.189,0.196 0.45,0.307 0.72,0.307c0.029,0 0.057,-0.001 0.086,-0.004l2.668,-0.228c0.473,-0.041 0.852,-0.408 0.907,-0.879l0.084,-0.71c0.072,-0.702 -0.351,-1.261 -1.011,-1.376l0.396,-3.14c0.202,-1.651 -0.292,-2.603 -0.741,-3.111c-0.388,-0.439 -1.108,-0.961 -2.337,-0.961m0,1c1.594,0 2.307,1.145 2.086,2.947l-0.521,4.13c0.526,0.053 0.823,0.11 0.922,0.117c0.165,0.019 0.23,0.111 0.213,0.277l-0.084,0.71l-2.668,0.228l0.671,-5.32c0.156,-1.246 -0.273,-1.875 -1.277,-1.875c-0.075,0 -0.153,0.003 -0.233,0.01c-0.807,0.069 -1.599,0.529 -2.391,1.365l-0.772,6.162l-1.467,0.125l0.891,-7.169c-0.512,-0.054 -0.823,-0.092 -0.923,-0.101c-0.164,-0.019 -0.214,-0.127 -0.197,-0.293l0.085,-0.71l2.059,-0.176c0.016,-0.002 0.032,-0.002 0.046,-0.002c0.185,0 0.286,0.102 0.316,0.281l-0.003,0.899c0.924,-0.96 1.898,-1.502 2.935,-1.591c0.108,-0.009 0.211,-0.014 0.312,-0.014" style="fill:#662c91;fill-rule:nonzero;"/><path d="M117.346,15.202c-1.048,0 -1.888,-0.375 -2.495,-1.115c-0.697,-0.824 -0.961,-1.99 -0.777,-3.461c0.186,-1.426 0.684,-2.555 1.522,-3.454c0.898,-0.966 2.039,-1.514 3.39,-1.63c0.11,-0.009 0.223,-0.014 0.34,-0.014c0.655,0 1.417,0.148 2.268,0.438c0.225,0.077 0.364,0.302 0.334,0.538l-0.285,2.183c-0.031,0.233 -0.22,0.413 -0.454,0.433c0,0 -0.664,0.056 -0.668,0.056c-0.458,0 -0.733,-0.256 -0.778,-0.649c-0.018,-0.061 -0.011,-0.193 0.006,-0.511c0,0 0.014,-0.267 0.016,-0.301c-0.029,-0.003 -0.055,-0.005 -0.078,-0.006c-0.129,-0.008 -0.236,-0.012 -0.34,-0.012c-0.178,0 -0.355,0.009 -0.524,0.024c-0.216,0.019 -0.487,0.105 -0.761,0.242c-0.261,0.132 -0.485,0.311 -0.681,0.548c-0.444,0.537 -0.711,1.227 -0.816,2.108c-0.1,0.853 0,1.525 0.289,1.946c0.226,0.318 0.548,0.47 1.008,0.47c0.064,0 0.13,-0.003 0.199,-0.009c0.592,-0.051 1.13,-0.291 1.647,-0.734c0.158,-0.125 0.353,-0.255 0.613,-0.277c0.004,0 0.009,-0.001 0.014,-0.001c0.365,0 0.595,0.14 0.719,0.379l0.314,0.459c0.128,0.188 0.112,0.439 -0.039,0.61c-0.893,1.016 -2.098,1.595 -3.579,1.722c-0.138,0.012 -0.273,0.018 -0.404,0.018" style="fill:#fff;fill-rule:nonzero;"/><path d="M119.327,5.028c-0.133,0 -0.261,0.005 -0.384,0.016c-1.479,0.127 -2.728,0.728 -3.714,1.788c-0.911,0.978 -1.451,2.197 -1.651,3.727c-0.203,1.62 0.099,2.916 0.897,3.857c0.685,0.837 1.681,1.285 2.871,1.285c0.144,0 0.294,-0.006 0.447,-0.019c1.613,-0.138 2.93,-0.774 3.912,-1.89c0.301,-0.342 0.332,-0.844 0.077,-1.221l-0.325,-0.481c-0.221,-0.364 -0.609,-0.579 -1.051,-0.579c-0.028,0 -0.101,0.003 -0.13,0.005c-0.396,0.035 -0.681,0.227 -0.861,0.369c-0.468,0.4 -0.914,0.601 -1.397,0.643c-0.053,0.004 -0.105,0.006 -0.156,0.006c-0.385,0 -0.514,-0.137 -0.605,-0.265c-0.207,-0.303 -0.281,-0.872 -0.196,-1.592c0.094,-0.782 0.325,-1.387 0.706,-1.848c0.151,-0.182 0.322,-0.32 0.521,-0.42c0.214,-0.108 0.425,-0.177 0.576,-0.19c0.122,-0.01 0.247,-0.018 0.375,-0.021c-0.009,0.186 -0.008,0.31 0.014,0.434c0.092,0.62 0.577,1.047 1.197,1.047c0.029,0 0.097,-0.003 0.125,-0.005l0.656,-0.056c0.469,-0.04 0.846,-0.401 0.908,-0.867l0.284,-2.182c0.061,-0.472 -0.218,-0.922 -0.668,-1.076c-0.903,-0.309 -1.72,-0.465 -2.428,-0.465m0,1c0.589,0 1.293,0.134 2.104,0.411l-0.285,2.183l-0.658,0.055c-0.014,0.002 -0.026,0.002 -0.038,0.002c-0.138,0 -0.195,-0.075 -0.21,-0.209c-0.016,-0.064 0.001,-0.277 0.019,-0.622c0.017,-0.345 0.017,-0.525 0.017,-0.541c-0.247,-0.06 -0.427,-0.094 -0.577,-0.098c-0.117,-0.009 -0.235,-0.012 -0.351,-0.012c-0.194,0 -0.384,0.01 -0.569,0.026c-0.298,0.025 -0.627,0.135 -0.941,0.292c-0.313,0.158 -0.594,0.377 -0.842,0.677c-0.494,0.598 -0.81,1.376 -0.928,2.368c-0.116,0.99 0.013,1.763 0.373,2.288c0.323,0.453 0.788,0.686 1.421,0.686c0.078,0 0.158,-0.003 0.241,-0.01c0.692,-0.059 1.336,-0.344 1.93,-0.853c0.115,-0.091 0.214,-0.148 0.329,-0.158c0.016,-0.002 0.03,-0.002 0.044,-0.002c0.093,0 0.16,0.03 0.202,0.111l0.346,0.51c-0.81,0.92 -1.897,1.438 -3.247,1.554c-0.124,0.01 -0.244,0.015 -0.361,0.015c-0.897,0 -1.6,-0.311 -2.109,-0.932c-0.607,-0.717 -0.835,-1.743 -0.668,-3.081c0.169,-1.29 0.615,-2.341 1.393,-3.175c0.808,-0.87 1.831,-1.367 3.066,-1.473c0.096,-0.008 0.195,-0.012 0.299,-0.012" style="fill:#662c91;fill-rule:nonzero;"/><path d="M124.055,4.686c-0.155,0 -0.302,-0.025 -0.461,-0.081c-0.198,-0.067 -0.385,-0.188 -0.521,-0.339c-0.136,-0.152 -0.236,-0.326 -0.289,-0.503c-0.054,-0.182 -0.071,-0.377 -0.051,-0.582c0.025,-0.202 0.083,-0.385 0.181,-0.59c0.101,-0.206 0.224,-0.373 0.376,-0.515c0.145,-0.135 0.306,-0.244 0.492,-0.329c0.204,-0.094 0.387,-0.145 0.579,-0.162c0.014,-0.001 0.116,-0.005 0.13,-0.005c0.159,0 0.317,0.026 0.468,0.077c0.205,0.07 0.37,0.175 0.506,0.323c0.129,0.149 0.226,0.308 0.293,0.483c0.095,0.241 0.083,0.472 0.062,0.646c-0.026,0.231 -0.106,0.412 -0.179,0.563c-0.107,0.221 -0.259,0.377 -0.394,0.501c-0.112,0.107 -0.277,0.249 -0.494,0.347c-0.128,0.059 -0.328,0.14 -0.575,0.161c-0.015,0.001 -0.108,0.005 -0.123,0.005m-1.904,10.005c-0.136,0 -0.266,-0.055 -0.361,-0.154c-0.104,-0.109 -0.154,-0.259 -0.135,-0.409l0.842,-6.666c-0.185,-0.019 -0.365,-0.039 -0.43,-0.048c-0.418,-0.057 -0.689,-0.405 -0.642,-0.827l0.085,-0.713c0.027,-0.235 0.217,-0.419 0.453,-0.439c0,0 2.698,-0.23 2.712,-0.23c0.136,0 0.266,0.055 0.36,0.153c0.105,0.109 0.155,0.26 0.136,0.41l-0.842,6.648c0.186,0.02 0.367,0.041 0.43,0.049c0.415,0.057 0.691,0.421 0.64,0.846l-0.081,0.708c-0.028,0.236 -0.218,0.421 -0.454,0.441c0,0 -2.699,0.231 -2.713,0.231" style="fill:#fff;fill-rule:nonzero;"/><path d="M124.675,6.704l0.005,0l-0.005,0Zm-0.186,-5.625c-0.056,0 -0.114,0.002 -0.173,0.008c-0.245,0.02 -0.489,0.087 -0.743,0.204c-0.235,0.108 -0.44,0.246 -0.627,0.423c-0.194,0.179 -0.351,0.394 -0.479,0.653c-0.127,0.264 -0.199,0.497 -0.229,0.74c-0.03,0.289 -0.006,0.551 0.067,0.797c0.074,0.25 0.212,0.49 0.395,0.695c0.082,0.091 0.177,0.174 0.28,0.247l-1.059,0.09c-0.473,0.04 -0.852,0.408 -0.908,0.879l-0.084,0.71c-0.073,0.679 0.357,1.255 1.01,1.374l-0.628,4.959l-0.153,1.207c-0.037,0.3 0.063,0.6 0.272,0.818c0.189,0.197 0.45,0.307 0.721,0.307c0.028,0 0.056,-0.001 0.086,-0.004l2.669,-0.228c0.474,-0.041 0.854,-0.409 0.909,-0.882l0.081,-0.709c0.078,-0.669 -0.362,-1.267 -1.008,-1.388l0.779,-6.149c0.038,-0.3 -0.061,-0.601 -0.27,-0.818c-0.062,-0.064 -0.13,-0.118 -0.203,-0.163c0.17,-0.107 0.305,-0.227 0.402,-0.317c0.15,-0.139 0.35,-0.345 0.494,-0.641c0.099,-0.204 0.193,-0.43 0.228,-0.727c0.024,-0.212 0.041,-0.536 -0.094,-0.884c-0.09,-0.23 -0.217,-0.44 -0.377,-0.623c-0.206,-0.224 -0.446,-0.379 -0.729,-0.474c-0.201,-0.069 -0.414,-0.104 -0.629,-0.104m0.186,4.625l-0.906,7.155c0,0 0.774,0.08 0.921,0.101c0.148,0.02 0.23,0.143 0.213,0.292l-0.082,0.709l-2.67,0.229l0.152,-1.206l0.755,-5.966c0,0 -0.774,-0.08 -0.923,-0.1c-0.148,-0.02 -0.23,-0.126 -0.213,-0.276l0.084,-0.709l2.669,-0.229m-0.186,-3.625c0.115,0 0.218,0.02 0.31,0.051c0.115,0.039 0.214,0.096 0.297,0.187c0.08,0.092 0.147,0.2 0.196,0.326c0.05,0.128 0.049,0.259 0.031,0.407c-0.016,0.149 -0.066,0.267 -0.132,0.404c-0.066,0.136 -0.164,0.243 -0.282,0.35c-0.114,0.108 -0.229,0.2 -0.362,0.26c-0.133,0.061 -0.264,0.105 -0.412,0.118c-0.027,0.002 -0.054,0.003 -0.079,0.003c-0.111,0 -0.206,-0.021 -0.299,-0.053c-0.115,-0.039 -0.231,-0.111 -0.313,-0.202c-0.082,-0.091 -0.148,-0.2 -0.181,-0.311c-0.033,-0.112 -0.047,-0.241 -0.032,-0.39c0.018,-0.148 0.067,-0.283 0.133,-0.421c0.067,-0.135 0.149,-0.257 0.266,-0.365c0.114,-0.108 0.231,-0.183 0.361,-0.243c0.132,-0.061 0.264,-0.104 0.413,-0.117c0.029,-0.003 0.058,-0.004 0.085,-0.004" style="fill:#662c91;fill-rule:nonzero;"/><path d="M130.709,6.637c-0.844,0.072 -1.585,0.511 -2.203,1.303c-0.644,0.834 -0.972,1.764 -0.974,2.762c-0.002,0.818 0.181,1.124 0.29,1.233c0.057,0.057 0.148,0.122 0.347,0.123c0.473,-0.037 0.856,-0.319 1.26,-0.865c0.435,-0.584 0.815,-1.375 1.099,-2.29l0.289,-2.275l-0.108,0.009Zm-3.18,7.682c-0.646,0 -1.185,-0.212 -1.601,-0.629c-0.556,-0.557 -0.848,-1.458 -0.845,-2.606c0.004,-1.596 0.572,-3.104 1.645,-4.361c1.099,-1.289 2.516,-2.043 4.096,-2.178c0.227,-0.02 0.441,-0.03 0.644,-0.03c0.595,0 1.121,0.085 1.609,0.258c0.221,0.079 0.358,0.302 0.328,0.534l-0.809,6.384c0.199,0.02 0.392,0.039 0.456,0.049c0.385,0.053 0.669,0.384 0.669,0.784l-0.002,0.704c-0.001,0.259 -0.199,0.475 -0.457,0.497l-2.093,0.179c-0.014,0.001 -0.104,0.005 -0.117,0.005c-0.337,0 -0.544,-0.136 -0.657,-0.251c-0.15,-0.149 -0.235,-0.348 -0.256,-0.591c-0.356,0.374 -0.785,0.715 -1.305,0.957c-0.309,0.154 -0.663,0.251 -1.041,0.283c-0.091,0.008 -0.179,0.012 -0.264,0.012" style="fill:#fff;fill-rule:nonzero;"/><path d="M128.161,11.558c-0.038,-0.071 -0.131,-0.301 -0.129,-0.854c0.002,-0.886 0.295,-1.713 0.871,-2.46c0.399,-0.511 0.837,-0.843 1.33,-1.003l-0.208,1.594c-0.264,0.828 -0.608,1.538 -0.996,2.058c-0.302,0.41 -0.591,0.644 -0.817,0.663l-0.043,0.002l-0.008,0Zm3.308,-7.542c-0.218,0 -0.447,0.011 -0.688,0.031c-1.713,0.147 -3.246,0.96 -4.434,2.352c-1.151,1.349 -1.76,2.97 -1.764,4.685c-0.004,1.283 0.339,2.306 0.99,2.959c0.506,0.508 1.183,0.776 1.955,0.776c0.1,0 0.202,-0.004 0.308,-0.013c0.439,-0.038 0.854,-0.152 1.233,-0.34c0.327,-0.152 0.621,-0.34 0.886,-0.549c0.028,0.035 0.058,0.067 0.086,0.095c0.181,0.181 0.503,0.398 1.011,0.398c0.05,0 0.104,-0.002 0.16,-0.007l0.758,-0.065l1.334,-0.114c0.516,-0.044 0.913,-0.475 0.915,-0.993l0.002,-0.703c0.001,-0.641 -0.446,-1.171 -1.066,-1.277l0.746,-5.88c0.059,-0.466 -0.214,-0.91 -0.657,-1.068c-0.542,-0.193 -1.123,-0.287 -1.775,-0.287m-3.3,8.542c0.041,0 0.084,-0.002 0.128,-0.005c0.675,-0.058 1.186,-0.591 1.534,-1.062c0.495,-0.664 0.893,-1.532 1.175,-2.439l0.369,-2.842c-0.099,-0.075 -0.209,-0.102 -0.311,-0.102c-0.017,0 -0.034,0.001 -0.05,0.002l-0.347,0.03c-1.17,0.1 -1.995,0.775 -2.556,1.493c-0.595,0.771 -1.076,1.792 -1.079,3.069c-0.003,1.238 0.381,1.856 1.137,1.856m3.3,-7.542c0.538,0 1.004,0.074 1.44,0.229l-0.874,6.891c0.05,0.011 0.807,0.078 0.94,0.099c0.148,0.02 0.246,0.142 0.246,0.29l-0.002,0.702l-1.334,0.115l-0.758,0.064c-0.027,0.003 -0.052,0.004 -0.075,0.004c-0.292,0 -0.419,-0.166 -0.418,-0.468l0.153,-1.664c-0.514,0.944 -1.174,1.833 -2.164,2.293c-0.279,0.139 -0.576,0.213 -0.873,0.238c-0.076,0.007 -0.15,0.01 -0.222,0.01c-1.4,0 -1.949,-1.224 -1.945,-2.733c0.004,-1.7 0.682,-3.049 1.524,-4.037c0.843,-0.988 2.064,-1.86 3.76,-2.006c0.211,-0.018 0.411,-0.027 0.602,-0.027" style="fill:#662c91;fill-rule:nonzero;"/><path d="M134.937,9.51c-0.125,0 -0.246,-0.047 -0.339,-0.132c-0.103,-0.096 -0.162,-0.229 -0.161,-0.37c0.001,-0.148 0.019,-0.688 0.019,-0.802c0.001,-0.257 0.018,-0.517 0.036,-0.758l0.05,-0.705c0.02,-0.243 0.052,-0.501 0.088,-0.758l0.588,-4.719c0.03,-0.234 0.218,-0.416 0.453,-0.436c0,0 1.414,-0.121 1.428,-0.121c0.136,0 0.266,0.055 0.36,0.154c0.105,0.108 0.155,0.258 0.136,0.408l-0.623,4.971l-0.069,0.495c-0.034,0.24 -0.086,0.501 -0.138,0.744l-0.149,0.727c-0.044,0.218 -0.101,0.463 -0.158,0.712l-0.028,0.117c-0.049,0.212 -0.228,0.368 -0.445,0.386c0,0 -1.034,0.087 -1.048,0.087m-0.142,4.227c-0.16,0 -0.319,-0.027 -0.472,-0.078c-0.206,-0.071 -0.369,-0.176 -0.504,-0.322c-0.136,-0.15 -0.225,-0.315 -0.28,-0.524c-0.053,-0.216 -0.067,-0.4 -0.045,-0.59c0.023,-0.193 0.08,-0.377 0.18,-0.583c0.093,-0.194 0.211,-0.324 0.316,-0.438c0.156,-0.167 0.34,-0.298 0.534,-0.388c0.207,-0.095 0.391,-0.146 0.58,-0.162c0.015,-0.001 0.112,-0.005 0.127,-0.005c0.159,0 0.317,0.026 0.471,0.078c0.191,0.066 0.361,0.181 0.506,0.343c0.098,0.108 0.233,0.257 0.295,0.508c0.052,0.205 0.066,0.392 0.042,0.585c-0.02,0.188 -0.078,0.374 -0.179,0.582c-0.094,0.193 -0.226,0.338 -0.332,0.455c-0.15,0.158 -0.319,0.273 -0.536,0.373c-0.206,0.093 -0.388,0.144 -0.577,0.16c-0.014,0.002 -0.111,0.006 -0.126,0.006" style="fill:#fff;fill-rule:nonzero;"/><path d="M135.232,10.146c-0.056,0 -0.113,0.002 -0.172,0.007c-0.246,0.021 -0.482,0.086 -0.741,0.204c-0.255,0.118 -0.495,0.29 -0.679,0.487c-0.132,0.142 -0.289,0.315 -0.417,0.578c-0.125,0.258 -0.197,0.494 -0.225,0.742c-0.03,0.252 -0.012,0.493 0.053,0.76c0.079,0.301 0.208,0.54 0.397,0.746c0.188,0.208 0.427,0.363 0.708,0.459c0.211,0.072 0.424,0.107 0.639,0.107c0.053,0 0.11,-0.003 0.166,-0.007c0.25,-0.021 0.486,-0.086 0.745,-0.205c0.276,-0.125 0.498,-0.278 0.675,-0.466c0.142,-0.156 0.31,-0.339 0.437,-0.603c0.124,-0.253 0.196,-0.49 0.226,-0.738c0.029,-0.255 0.01,-0.507 -0.058,-0.77c-0.089,-0.364 -0.288,-0.584 -0.406,-0.716c-0.203,-0.225 -0.445,-0.387 -0.715,-0.48c-0.206,-0.07 -0.419,-0.105 -0.633,-0.105m1.867,-7.937l0.005,0l-0.005,0Zm0,-2.001c-0.028,0 -0.057,0.002 -0.086,0.004l-1.384,0.119c-0.47,0.04 -0.848,0.404 -0.907,0.873l-0.589,4.725c-0.035,0.254 -0.069,0.522 -0.088,0.77l-0.016,0.218l-0.035,0.493c-0.02,0.253 -0.037,0.525 -0.038,0.795c0,0.108 -0.004,0.224 -0.008,0.343c-0.005,0.15 -0.01,0.305 -0.011,0.459c0,0.281 0.117,0.548 0.323,0.738c0.186,0.171 0.428,0.264 0.677,0.264c0.028,0 0.057,-0.001 0.085,-0.003l1.006,-0.086c0.433,-0.037 0.792,-0.349 0.89,-0.772l0.032,-0.137c0.056,-0.246 0.112,-0.489 0.156,-0.706l0.024,-0.123c0.041,-0.203 0.081,-0.404 0.123,-0.594c0.055,-0.257 0.109,-0.529 0.146,-0.783c0.024,-0.164 0.048,-0.34 0.072,-0.518l0.03,-0.218l0.59,-4.736c0.037,-0.3 -0.062,-0.601 -0.272,-0.818c-0.189,-0.197 -0.449,-0.307 -0.72,-0.307m-1.867,10.938c0.114,0 0.217,0.02 0.31,0.052c0.115,0.039 0.212,0.112 0.294,0.203c0.083,0.092 0.15,0.167 0.182,0.296c0.032,0.127 0.049,0.257 0.031,0.405c-0.016,0.149 -0.065,0.283 -0.132,0.42c-0.066,0.136 -0.166,0.243 -0.264,0.35c-0.1,0.106 -0.231,0.183 -0.362,0.243c-0.133,0.06 -0.265,0.105 -0.413,0.117c-0.029,0.003 -0.056,0.004 -0.083,0.004c-0.116,0 -0.219,-0.02 -0.313,-0.052c-0.114,-0.039 -0.213,-0.097 -0.296,-0.187c-0.083,-0.091 -0.13,-0.185 -0.164,-0.313c-0.031,-0.128 -0.048,-0.257 -0.031,-0.406c0.017,-0.149 0.066,-0.283 0.133,-0.42c0.065,-0.136 0.148,-0.224 0.247,-0.332c0.099,-0.107 0.232,-0.199 0.363,-0.259c0.132,-0.06 0.265,-0.105 0.413,-0.118c0.029,-0.002 0.058,-0.003 0.085,-0.003m1.867,-9.938l-0.59,4.726c-0.034,0.248 -0.065,0.496 -0.1,0.728c-0.033,0.232 -0.084,0.482 -0.133,0.713c-0.051,0.233 -0.1,0.482 -0.15,0.732c-0.05,0.249 -0.118,0.534 -0.183,0.817l-1.006,0.085c0.001,-0.277 0.018,-0.556 0.019,-0.801c0.001,-0.246 0.017,-0.493 0.035,-0.722c0.017,-0.23 0.034,-0.477 0.051,-0.707c0.017,-0.231 0.049,-0.479 0.084,-0.727l0.588,-4.725l1.385,-0.119" style="fill:#662c91;fill-rule:nonzero;"/></g></svg>