<?xml version="1.0" encoding="UTF-8" standalone="no"?><!DOCTYPE svg PUBLIC "-//W3C//DTD SVG 1.1//EN" "http://www.w3.org/Graphics/SVG/1.1/DTD/svg11.dtd"><svg width="100%" height="100%" viewBox="0 0 141 24" version="1.1" xmlns="http://www.w3.org/2000/svg" xmlns:xlink="http://www.w3.org/1999/xlink" xml:space="preserve" xmlns:serif="http://www.serif.com/" style="fill-rule:evenodd;clip-rule:evenodd;stroke-linejoin:round;stroke-miterlimit:2;"><g><path d="M3.932,7.694c-0.09,0 -0.182,-0.009 -0.273,-0.026c-0.785,-0.152 -1.3,-0.912 -1.149,-1.696c0.131,-0.679 0.729,-1.174 1.421,-1.174c0.09,0 0.182,0.009 0.273,0.027c0.784,0.15 1.299,0.91 1.149,1.694c-0.131,0.681 -0.729,1.175 -1.421,1.175m-0.958,8.477c-0.394,0 -0.902,-0.074 -0.902,-0.074c-0.606,-0.116 -1.274,-0.369 -1.443,-0.68c-0.053,-0.099 -0.065,-0.247 -0.022,-0.351l0.058,-0.142c0.146,-0.347 0.591,-1.406 0.674,-1.842c0.114,-0.595 1.038,-4.21 1.199,-4.788c0.038,-0.135 0.147,-0.238 0.284,-0.267c0.019,-0.004 0.191,-0.039 0.424,-0.039c0.12,0 0.254,0.01 0.393,0.036c0.455,0.088 0.714,0.229 0.742,0.244c0.14,0.079 0.215,0.239 0.184,0.398c-0.634,3.299 -0.826,7.051 -0.828,7.089c-0.006,0.118 -0.067,0.225 -0.164,0.292c-0.129,0.086 -0.308,0.124 -0.599,0.124" style="fill:#fff;fill-rule:nonzero;"/><path d="M3.931,4.424c-0.872,0 -1.625,0.621 -1.79,1.478c-0.13,0.677 0.135,1.341 0.634,1.752c-0.015,0.003 -0.025,0.005 -0.031,0.006c-0.274,0.059 -0.493,0.264 -0.567,0.534c-0.162,0.58 -1.091,4.216 -1.206,4.816c-0.035,0.183 -0.176,0.637 -0.652,1.769c-0.038,0.091 -0.063,0.152 -0.07,0.17c-0.073,0.203 -0.052,0.457 0.05,0.647c0.304,0.561 1.366,0.806 1.684,0.867c0.089,0.014 0.578,0.083 0.991,0.083c0.372,0 0.613,-0.057 0.809,-0.189c0.194,-0.132 0.316,-0.348 0.328,-0.583c0.002,-0.037 0.194,-3.767 0.822,-7.038c0.06,-0.31 -0.083,-0.625 -0.355,-0.787c0.577,-0.219 1.021,-0.724 1.143,-1.358c0.189,-0.988 -0.46,-1.945 -1.446,-2.135c-0.115,-0.021 -0.231,-0.032 -0.344,-0.032m-0.685,3.939c0.098,0 0.208,0.007 0.321,0.03c0.409,0.079 0.63,0.203 0.63,0.203c-0.647,3.363 -0.835,7.141 -0.835,7.141c-0.066,0.043 -0.215,0.059 -0.388,0.059c-0.37,0 -0.849,-0.069 -0.849,-0.069c-0.786,-0.152 -1.202,-0.444 -1.172,-0.519c0.034,-0.092 0.645,-1.489 0.754,-2.055c0.112,-0.582 1.033,-4.186 1.192,-4.758c0,0 0.146,-0.032 0.347,-0.032m0.685,-3.189c0.067,0 0.135,0.006 0.203,0.02c0.581,0.111 0.962,0.673 0.85,1.255c-0.098,0.513 -0.548,0.87 -1.053,0.87c-0.066,0 -0.134,-0.006 -0.203,-0.019c-0.581,-0.112 -0.962,-0.675 -0.85,-1.256c0.099,-0.514 0.549,-0.87 1.053,-0.87" style="fill:#231f20;fill-rule:nonzero;"/><path d="M10.395,14.065c-0.335,0 -0.671,-0.028 -0.996,-0.083c-3.108,-0.526 -4.708,-2.814 -4.174,-5.972c0.474,-2.802 2.423,-5.798 6.47,-5.798c0.495,0 1.018,0.046 1.555,0.137c0.391,0.067 1.656,0.325 1.563,0.873c-0.004,0.027 -0.562,2.727 -0.832,2.919c-0.221,0.157 -1.196,0.256 -1.548,0.256c-0.122,0 -0.231,-0.007 -0.319,-0.021c-0.098,-0.017 -0.185,-0.073 -0.243,-0.154c-0.058,-0.081 -0.08,-0.181 -0.064,-0.279c0.09,-0.528 0.065,-0.791 0.022,-0.885c-0.039,-0.081 -0.226,-0.181 -0.397,-0.21c-0.084,-0.014 -0.172,-0.021 -0.262,-0.021c-0.999,0 -2.649,0.959 -3.096,3.6c-0.113,0.667 -0.045,1.336 0.188,1.836c0.295,0.636 0.85,1.027 1.651,1.161c0.168,0.03 0.335,0.043 0.5,0.043c0.743,0 1.509,-0.283 2.342,-0.864c0.063,-0.044 0.139,-0.067 0.215,-0.067c0.02,0 0.04,0.002 0.061,0.005c0.06,0.009 0.219,0.036 0.453,0.368c0.429,0.605 0.678,1.537 0.638,1.771c-0.087,0.509 -1.961,1.385 -3.727,1.385" style="fill:#fff;fill-rule:nonzero;"/><path d="M11.695,1.837c-4.285,0 -6.363,3.291 -6.84,6.109c-0.573,3.386 1.145,5.84 4.481,6.405c0.346,0.058 0.702,0.088 1.059,0.088c1.662,0 3.947,-0.823 4.096,-1.696c0.066,-0.386 -0.246,-1.41 -0.703,-2.053c-0.321,-0.458 -0.593,-0.503 -0.696,-0.52c-0.041,-0.007 -0.082,-0.01 -0.123,-0.01c-0.152,0 -0.302,0.046 -0.428,0.135c-0.769,0.536 -1.465,0.796 -2.128,0.796c-0.145,0 -0.292,-0.012 -0.438,-0.037c-0.68,-0.115 -1.13,-0.426 -1.373,-0.949c-0.201,-0.433 -0.259,-1.022 -0.158,-1.616c0.408,-2.413 1.854,-3.289 2.726,-3.289c0.068,0 0.135,0.006 0.199,0.017c0.042,0.007 0.092,0.025 0.127,0.043c0.003,0.069 0.005,0.245 -0.043,0.524l-0.016,0.095c-0.033,0.196 0.013,0.397 0.128,0.56c0.115,0.162 0.29,0.272 0.486,0.305c0.105,0.018 0.235,0.028 0.381,0.028c0.013,0 1.363,-0.04 1.765,-0.326c0.481,-0.341 0.981,-3.133 0.986,-3.162c0.108,-0.637 -0.521,-1.076 -1.87,-1.305c-0.558,-0.094 -1.102,-0.142 -1.618,-0.142m0,0.75c0.465,0 0.961,0.041 1.492,0.132c0.426,0.072 1.267,0.377 1.257,0.44c-0.124,0.726 -0.644,2.65 -0.681,2.676c-0.077,0.054 -0.835,0.187 -1.331,0.187c-0.097,0 -0.185,-0.005 -0.256,-0.017l0.017,-0.095c0.037,-0.22 0.106,-0.728 -0.024,-1.01c-0.12,-0.248 -0.454,-0.385 -0.675,-0.422c-0.104,-0.019 -0.213,-0.028 -0.324,-0.028c-1.291,0 -3.006,1.197 -3.466,3.914c-0.214,1.262 0.079,3.08 2.146,3.43c0.189,0.031 0.377,0.047 0.563,0.047c0.869,0 1.708,-0.339 2.556,-0.931c0.048,0.008 0.168,0.158 0.207,0.214c0.407,0.572 0.592,1.399 0.576,1.493c-0.023,0.135 -1.463,1.072 -3.357,1.072c-0.301,0 -0.614,-0.024 -0.934,-0.078c-3.203,-0.542 -4.315,-2.888 -3.867,-5.539c0.372,-2.199 1.978,-5.485 6.101,-5.485" style="fill:#231f20;fill-rule:nonzero;"/><path d="M18.814,15.723c-0.082,0 -0.16,-0.005 -0.233,-0.016c-0.374,-0.051 -0.569,-0.664 -0.6,-1.359c-0.504,0.337 -1.08,0.53 -1.622,0.53c-0.104,0 -0.207,-0.007 -0.307,-0.021c-1.323,-0.192 -1.945,-1.283 -1.848,-3.246c0.014,-0.22 0.056,-0.629 0.125,-1.101c0.004,-0.028 0.422,-2.871 0.644,-3.217c0.031,-0.049 0.074,-0.091 0.125,-0.12c0.039,-0.023 0.405,-0.228 1.082,-0.228c0.161,0 0.341,0.01 0.541,0.04c0.517,0.073 0.635,0.23 0.678,0.289c0.06,0.08 0.085,0.179 0.071,0.278c-0.004,0.028 -0.023,0.126 -0.054,0.275c-0.091,0.446 -0.281,1.374 -0.407,2.246c-0.049,0.34 -0.081,0.669 -0.106,0.95c-0.024,0.167 -0.047,0.63 0.127,0.864c0.062,0.082 0.14,0.126 0.255,0.143l0.008,0c0.553,0 0.977,-0.58 1.032,-0.731l0.07,-0.509c0.004,-0.029 0.442,-2.996 0.597,-3.249c0.256,-0.317 0.898,-0.462 1.416,-0.462c0.14,0 0.285,0.01 0.433,0.032c0.488,0.07 0.598,0.219 0.635,0.268c0.059,0.08 0.084,0.18 0.07,0.279c-0.003,0.022 -0.026,0.145 -0.063,0.342c-0.137,0.73 -0.502,2.668 -0.702,4.057c-0.122,0.843 -0.141,1.19 -0.135,1.334c0,0.622 0.08,0.911 0.209,1.183c0.031,0.066 0.043,0.141 0.032,0.214c-0.077,0.54 -1.494,0.935 -2.073,0.935" style="fill:#fff;fill-rule:nonzero;"/><path d="M16.18,6.569c-0.761,0 -1.194,0.234 -1.273,0.281c-0.102,0.06 -0.187,0.142 -0.25,0.24c-0.262,0.41 -0.629,2.876 -0.7,3.367c-0.072,0.502 -0.113,0.909 -0.127,1.123c-0.135,2.738 1.104,3.494 2.168,3.648c0.118,0.017 0.239,0.026 0.361,0.026c0.435,0 0.887,-0.11 1.316,-0.307c0.114,0.59 0.375,1.065 0.857,1.132c0.086,0.012 0.182,0.019 0.282,0.019c0.546,0 2.318,-0.378 2.445,-1.257c0.021,-0.146 -0.002,-0.295 -0.066,-0.429c-0.091,-0.191 -0.172,-0.411 -0.172,-1.004c-0.004,-0.116 0.002,-0.408 0.131,-1.297c0.2,-1.382 0.563,-3.314 0.699,-4.042c0.039,-0.205 0.062,-0.334 0.066,-0.357c0.029,-0.197 -0.022,-0.397 -0.14,-0.556c-0.065,-0.089 -0.24,-0.324 -0.882,-0.417c-0.159,-0.023 -0.323,-0.034 -0.487,-0.034c-0.563,0 -1.34,0.146 -1.677,0.557c-0.021,0.027 -0.041,0.055 -0.058,0.083c-0.188,0.306 -0.516,2.474 -0.649,3.392l-0.066,0.456c-0.099,0.166 -0.38,0.468 -0.589,0.468l-0.051,-0.007c-0.045,-0.058 -0.076,-0.347 -0.047,-0.553c0.03,-0.32 0.061,-0.641 0.109,-0.975c0.124,-0.862 0.313,-1.782 0.404,-2.223c0.032,-0.161 0.053,-0.267 0.058,-0.297c0.028,-0.197 -0.023,-0.397 -0.142,-0.557c-0.109,-0.146 -0.324,-0.35 -0.928,-0.436c-0.2,-0.029 -0.401,-0.044 -0.592,-0.044m0,0.75c0.145,0 0.307,0.011 0.487,0.037c0,0 0.364,0.052 0.432,0.143c-0.016,0.111 -0.294,1.364 -0.461,2.52c-0.051,0.349 -0.083,0.684 -0.108,0.971c0,0 -0.202,1.281 0.701,1.411c0.047,0.006 0.093,0.01 0.138,0.01c0.755,0 1.315,-0.892 1.319,-1.029l0.078,-0.538c0.163,-1.125 0.482,-3.003 0.546,-3.106c0.097,-0.118 0.546,-0.283 1.096,-0.283c0.123,0 0.25,0.008 0.38,0.027c0.095,0.014 0.346,0.066 0.387,0.121c-0.016,0.111 -0.514,2.658 -0.766,4.401c-0.089,0.617 -0.148,1.142 -0.138,1.403c-0.001,0.679 0.096,1.016 0.245,1.328c-0.025,0.174 -1.023,0.613 -1.702,0.613c-0.063,0 -0.123,-0.004 -0.18,-0.011c-0.063,-0.009 -0.336,-0.469 -0.273,-1.463l0.032,-0.334c0.004,-0.033 -0.011,-0.034 -0.011,-0.034c-0.551,0.624 -1.333,0.998 -2.023,0.998c-0.086,0 -0.171,-0.006 -0.254,-0.018c-1.425,-0.206 -1.586,-1.668 -1.527,-2.856c0.014,-0.208 0.055,-0.607 0.122,-1.066c0.176,-1.22 0.484,-2.905 0.588,-3.068c0,0 0.298,-0.177 0.892,-0.177" style="fill:#231f20;fill-rule:nonzero;"/><path d="M25.326,12.281c-0.278,0.004 -1.637,0.062 -1.733,0.828c-0.034,0.269 0.155,0.432 0.562,0.483c0.04,0.004 0.089,0.007 0.143,0.007c0.394,0 0.88,-0.132 0.959,-0.765l0.069,-0.553Zm0.638,4.486c-0.076,0 -0.151,-0.005 -0.222,-0.013c-0.312,-0.038 -0.564,-0.499 -0.651,-1.124c-0.346,0.133 -0.845,0.272 -1.425,0.272c-0.143,0 -0.29,-0.009 -0.442,-0.027c-1.648,-0.206 -2.555,-1.28 -2.365,-2.802c0.258,-2.058 2.201,-2.877 4.062,-2.974c-0.218,-0.097 -0.585,-0.211 -1.197,-0.287c-0.391,-0.049 -0.852,-0.079 -1.057,-0.079c-0.002,0 -0.095,0 -0.108,-0.002c-0.099,-0.012 -0.197,-0.063 -0.258,-0.142c-0.062,-0.079 -0.097,-0.179 -0.085,-0.279c0.071,-0.566 0.611,-1.397 0.865,-1.613c0.078,-0.06 0.153,-0.117 0.588,-0.117c0.194,0 0.466,0.014 0.827,0.058c0.034,0.004 0.067,0.009 0.101,0.013c-0.216,-0.193 -0.378,-0.47 -0.39,-0.683c0.059,-0.52 1.099,-1.595 1.602,-1.807c0.046,-0.02 0.096,-0.029 0.145,-0.029c0.016,0 0.032,0.001 0.047,0.003c0.469,0.058 1.27,0.726 1.204,1.253c-0.016,0.128 -0.097,0.24 -0.215,0.294c-0.46,0.212 -1.476,0.949 -1.644,1.104c0,0.001 -0.001,0.001 -0.001,0.001c2.017,0.471 2.884,1.633 2.646,3.535l-0.102,0.81c-0.085,0.682 -0.244,1.954 -0.238,2.269c0.014,0.695 0.159,0.925 0.295,1.086c0.067,0.08 0.098,0.185 0.085,0.288c-0.069,0.543 -1.411,0.992 -2.067,0.992" style="fill:#fff;fill-rule:nonzero;"/><path d="M24.298,13.225c-0.037,0 -0.07,-0.002 -0.099,-0.006c-0.191,-0.023 -0.249,-0.075 -0.249,-0.076c0.041,-0.23 0.46,-0.393 0.948,-0.457l-0.013,0.102c-0.018,0.142 -0.055,0.437 -0.587,0.437m1.656,-8.468c-0.099,0 -0.198,0.02 -0.291,0.059c-0.576,0.243 -1.747,1.408 -1.825,2.038c-0.006,0.045 -0.007,0.09 -0.005,0.134c0.004,0.071 0.018,0.145 0.041,0.221c-0.071,-0.003 -0.139,-0.004 -0.204,-0.004c-0.472,0 -0.645,0.063 -0.799,0.179c-0.377,0.32 -0.945,1.227 -1.027,1.88c-0.025,0.198 0.03,0.398 0.153,0.555c0.123,0.157 0.303,0.259 0.501,0.283c0.033,0.004 0.078,0.007 0.115,0.007l0.027,0c0.075,0 0.175,0.003 0.287,0.01c-1.246,0.468 -2.249,1.381 -2.44,2.908c-0.218,1.752 0.812,2.985 2.691,3.22c0.167,0.021 0.33,0.03 0.488,0.03c0.433,0 0.823,-0.069 1.145,-0.158c0.152,0.532 0.44,0.953 0.885,1.007c0.086,0.011 0.176,0.016 0.268,0.016c0.659,0 2.331,-0.463 2.438,-1.32c0.027,-0.207 -0.035,-0.416 -0.169,-0.576c-0.073,-0.086 -0.195,-0.232 -0.207,-0.853c-0.005,-0.287 0.157,-1.589 0.235,-2.215l0.102,-0.809c0.232,-1.856 -0.507,-3.105 -2.2,-3.729c0.343,-0.241 0.754,-0.511 0.984,-0.617c0.235,-0.109 0.399,-0.331 0.43,-0.588c0.097,-0.776 -0.884,-1.591 -1.529,-1.672c-0.031,-0.004 -0.063,-0.006 -0.094,-0.006m-1.656,9.218c0.466,0 1.218,-0.186 1.331,-1.094l0.075,-0.603c0.024,-0.191 0.044,-0.35 0.028,-0.352c-0.095,-0.013 -0.223,-0.02 -0.372,-0.02c-0.75,0 -2.02,0.204 -2.139,1.157c-0.05,0.397 0.173,0.811 0.887,0.901c0.054,0.006 0.119,0.011 0.19,0.011m-0.628,-6.021c0.181,0 0.439,0.014 0.779,0.057c2.412,0.302 3.41,1.345 3.17,3.265l-0.102,0.809c-0.099,0.793 -0.247,1.984 -0.241,2.324c0.015,0.775 0.186,1.087 0.382,1.32c-0.022,0.176 -0.963,0.663 -1.694,0.663c-0.061,0 -0.119,-0.003 -0.176,-0.01c-0.064,-0.008 -0.367,-0.417 -0.355,-1.286c0,0 0.004,-0.031 -0.012,-0.033c-0.001,-0.001 -0.001,-0.001 -0.002,-0.001c-0.017,0 -0.05,0.026 -0.05,0.026c0,0 -0.723,0.439 -1.703,0.439c-0.128,0 -0.26,-0.007 -0.395,-0.024c-1.429,-0.178 -2.208,-1.033 -2.04,-2.382c0.3,-2.398 3.108,-2.657 4.074,-2.657c0.153,0 0.259,0.007 0.302,0.013l0.003,0c0.016,0 0.031,-0.013 0.031,-0.013c0.057,-0.46 -0.49,-0.85 -1.871,-1.023c-0.388,-0.049 -0.871,-0.083 -1.102,-0.083c-0.024,0 -0.045,0.001 -0.064,0.002l-0.016,-0.002c0.058,-0.46 0.538,-1.206 0.736,-1.375c0.01,-0.008 0.12,-0.028 0.346,-0.029m2.284,-2.447c0.334,0.042 0.911,0.581 0.879,0.835c-0.496,0.229 -1.541,0.985 -1.742,1.169c-0.206,-0.026 -0.5,-0.385 -0.509,-0.563c0.033,-0.27 0.93,-1.254 1.372,-1.441" style="fill:#231f20;fill-rule:nonzero;"/><path d="M28.901,17.021c-0.457,-0.05 -0.684,-0.959 -0.672,-1.832c0.012,-0.272 0.083,-0.917 0.17,-1.707c0.08,-0.724 0.172,-1.442 0.274,-2.24c0.127,-0.992 0.27,-2.108 0.425,-3.509c0.132,-1.191 0.154,-1.718 0.164,-1.97c0.004,-0.099 0.007,-0.166 0.013,-0.216c0.078,-0.707 1.719,-0.751 1.735,-0.751c0.083,0 0.162,0.004 0.236,0.012c0.212,0.025 0.77,0.09 0.722,0.522c-0.06,0.267 -0.4,2.897 -0.536,4.126c-0.062,0.563 -0.131,1.126 -0.204,1.721c-0.082,0.665 -0.169,1.373 -0.257,2.17c-0.064,0.575 -0.118,1.071 -0.115,1.308c0.004,0.582 0.124,0.857 0.278,1.157c0.035,0.065 0.048,0.14 0.04,0.213c-0.062,0.559 -1.541,1.005 -2.102,1.005c-0.059,0 -0.116,-0.003 -0.171,-0.009" style="fill:#fff;fill-rule:nonzero;"/><path d="M31.011,4.42c-0.02,0 -1.99,0.013 -2.108,1.087c-0.006,0.054 -0.01,0.128 -0.015,0.239c-0.01,0.249 -0.032,0.766 -0.162,1.945c-0.154,1.399 -0.297,2.511 -0.424,3.501c-0.103,0.801 -0.195,1.522 -0.275,2.248c-0.098,0.888 -0.159,1.447 -0.172,1.717c-0.014,0.993 0.242,2.154 1.008,2.236c0.065,0.007 0.136,0.01 0.21,0.01c0.542,0 2.373,-0.417 2.475,-1.337c0.016,-0.148 -0.012,-0.296 -0.079,-0.427c-0.115,-0.221 -0.233,-0.449 -0.237,-0.986c-0.003,-0.217 0.053,-0.726 0.112,-1.265c0.088,-0.796 0.175,-1.502 0.257,-2.166c0.074,-0.598 0.143,-1.161 0.205,-1.726c0.142,-1.292 0.468,-3.788 0.521,-4.038c0.005,-0.024 0.013,-0.064 0.015,-0.089c0.033,-0.3 -0.06,-0.819 -1.05,-0.933c-0.091,-0.011 -0.184,-0.016 -0.281,-0.016m0,0.75c0.068,0 0.134,0.004 0.195,0.011c0.143,0.016 0.394,0.076 0.39,0.107c-0.058,0.236 -0.404,2.933 -0.536,4.126c-0.131,1.193 -0.295,2.381 -0.461,3.892c-0.067,0.604 -0.121,1.096 -0.117,1.354c0.005,0.677 0.161,1.016 0.32,1.323c-0.02,0.178 -1.051,0.67 -1.729,0.67c-0.045,0 -0.089,-0.002 -0.13,-0.005c-0.064,-0.007 -0.352,-0.458 -0.339,-1.455c0.012,-0.255 0.082,-0.891 0.168,-1.67c0.179,-1.623 0.42,-3.221 0.699,-5.749c0.178,-1.606 0.158,-2.01 0.177,-2.185c0.022,-0.199 0.791,-0.419 1.363,-0.419" style="fill:#231f20;fill-rule:nonzero;"/><path d="M38.556,17.605c-0.147,0 -0.307,-0.007 -0.479,-0.022c-1.31,-0.118 -2.294,-0.582 -2.924,-1.38c-0.544,-0.69 -0.784,-1.588 -0.692,-2.599c0.228,-2.536 2.154,-4.241 4.793,-4.241c0.173,0 0.348,0.008 0.524,0.024c0.324,0.03 0.414,0.038 0.517,0.073c0.048,0.017 0.092,0.042 0.129,0.077c0.118,0.106 0.221,0.285 0.169,0.863c-0.03,0.332 -0.136,1.128 -0.47,1.324c-0.057,0.033 -0.123,0.051 -0.189,0.051c-0.011,0 -0.144,-0.011 -0.144,-0.011c-0.096,-0.009 -0.234,-0.019 -0.397,-0.019c-1.351,0 -2.095,0.654 -2.212,1.944c-0.036,0.402 0.038,0.725 0.218,0.959c0.212,0.275 0.584,0.439 1.106,0.486c0.093,0.008 0.18,0.012 0.264,0.012c0.463,0 0.791,-0.113 0.932,-0.162c0.039,-0.014 0.159,-0.044 0.201,-0.044c0.11,0 0.215,0.049 0.286,0.134c0.153,0.18 0.197,0.485 0.15,1.019c-0.043,0.469 -0.151,1.068 -0.423,1.261c-0.107,0.056 -0.552,0.251 -1.359,0.251" style="fill:#fff;fill-rule:nonzero;"/><path d="M39.254,8.987c-2.844,0 -4.92,1.842 -5.167,4.583c-0.1,1.107 0.167,2.098 0.771,2.863c0.479,0.607 1.421,1.364 3.185,1.522c0.184,0.017 0.356,0.024 0.513,0.024c0.868,0 1.366,-0.21 1.457,-0.252c0.042,-0.019 0.081,-0.042 0.118,-0.069c0.129,-0.091 0.471,-0.332 0.58,-1.531c0.058,-0.652 -0.009,-1.026 -0.232,-1.293c-0.127,-0.154 -0.311,-0.25 -0.511,-0.268c-0.022,-0.001 -0.045,-0.003 -0.067,-0.003c-0.135,0 -0.235,0.035 -0.323,0.066c-0.133,0.045 -0.409,0.14 -0.809,0.14c-0.073,0 -0.15,-0.003 -0.23,-0.01c-0.285,-0.025 -0.662,-0.105 -0.843,-0.34c-0.15,-0.197 -0.16,-0.488 -0.141,-0.698c0.062,-0.687 0.32,-1.602 1.838,-1.602c0.149,0 0.275,0.009 0.362,0.016l0.113,0.011c0.022,0.002 0.044,0.003 0.066,0.003c0.132,0 0.263,-0.035 0.378,-0.102c0.357,-0.209 0.577,-0.752 0.654,-1.616c0.038,-0.417 0.033,-0.882 -0.291,-1.174c-0.075,-0.068 -0.162,-0.12 -0.257,-0.152c-0.146,-0.051 -0.256,-0.06 -0.581,-0.091c-0.212,-0.019 -0.398,-0.027 -0.583,-0.027m0,0.75c0.162,0 0.326,0.007 0.49,0.022c0.287,0.027 0.366,0.034 0.428,0.055c0.06,0.054 0.072,0.28 0.047,0.551c-0.038,0.43 -0.167,0.965 -0.285,1.034l-0.112,-0.01c-0.103,-0.009 -0.252,-0.02 -0.429,-0.02c-0.865,0 -2.403,0.264 -2.585,2.286c-0.082,0.908 0.31,1.73 1.664,1.852c0.104,0.008 0.202,0.012 0.297,0.012c0.667,0 1.085,-0.206 1.132,-0.206c0.001,0 0.001,0 0.001,0.001c0.087,0.105 0.092,0.41 0.062,0.745c-0.039,0.43 -0.146,0.903 -0.266,0.988c0,0 -0.395,0.182 -1.142,0.182c-0.137,0 -0.285,-0.007 -0.446,-0.02c-2.581,-0.233 -3.428,-1.883 -3.276,-3.572c0.229,-2.538 2.205,-3.9 4.42,-3.9" style="fill:#231f20;fill-rule:nonzero;"/><path d="M44.621,14.15c-0.594,0.039 -1.64,0.246 -1.689,0.916c-0.019,0.271 0.178,0.423 0.586,0.453l0.017,0c0.359,0 0.993,-0.088 1.046,-0.814l0.04,-0.555Zm0.647,4.446c-0.314,-0.024 -0.589,-0.47 -0.709,-1.09c-0.374,0.168 -0.934,0.352 -1.595,0.352c-0.084,0 -0.17,-0.004 -0.257,-0.01c-0.804,-0.057 -1.461,-0.328 -1.899,-0.781c-0.454,-0.47 -0.665,-1.125 -0.609,-1.895c0.18,-2.479 2.716,-3.049 3.911,-3.18c-0.222,-0.087 -0.597,-0.182 -1.218,-0.227c-0.271,-0.019 -0.588,-0.029 -0.829,-0.029c-0.12,0 -0.219,0.002 -0.28,0.007c-0.1,-0.006 -0.229,-0.052 -0.295,-0.127c-0.066,-0.076 -0.136,-0.175 -0.128,-0.275c0.041,-0.57 0.538,-1.427 0.781,-1.656c0.065,-0.06 0.168,-0.154 0.848,-0.154c0.155,0 0.342,0.006 0.562,0.021c2.635,0.193 3.841,1.337 3.683,3.5l-0.059,0.815c-0.054,0.751 -0.143,1.971 -0.121,2.279c0.05,0.694 0.207,0.917 0.351,1.071c0.07,0.077 0.107,0.179 0.099,0.283c-0.038,0.535 -1.401,1.101 -2.112,1.101c-0.009,0 -0.115,-0.004 -0.124,-0.005" style="fill:#fff;fill-rule:nonzero;"/><path d="M43.595,15.146l-0.05,-0.001c-0.194,-0.015 -0.255,-0.063 -0.255,-0.063c0.029,-0.248 0.461,-0.422 0.924,-0.507l-0.008,0.102c-0.009,0.128 -0.034,0.469 -0.611,0.469m-0.606,-5.991c-0.764,0 -0.949,0.112 -1.098,0.249c-0.337,0.317 -0.858,1.252 -0.906,1.91c-0.014,0.199 0.052,0.396 0.183,0.548c0.132,0.15 0.319,0.242 0.518,0.255c0.019,0.001 0.042,0.002 0.065,0.002c0.023,0 0.046,-0.001 0.066,-0.003c0.053,-0.005 0.14,-0.006 0.246,-0.006l0.036,0c-1.158,0.51 -2.159,1.441 -2.275,3.035c-0.063,0.879 0.184,1.633 0.714,2.183c0.503,0.52 1.244,0.829 2.142,0.894c0.096,0.007 0.19,0.01 0.284,0.01c0.517,0 0.975,-0.1 1.341,-0.223c0.179,0.522 0.488,0.926 0.933,0.96c0.052,0.004 0.103,0.006 0.154,0.006c0.707,0 2.423,-0.562 2.486,-1.449c0.015,-0.207 -0.057,-0.412 -0.199,-0.565c-0.077,-0.083 -0.207,-0.221 -0.252,-0.843c-0.019,-0.28 0.075,-1.578 0.12,-2.203l0.061,-0.835c0.173,-2.382 -1.183,-3.695 -4.031,-3.902c-0.23,-0.017 -0.425,-0.023 -0.588,-0.023m0.606,6.741c0.455,0 1.289,-0.191 1.359,-1.164l0.044,-0.607c0.014,-0.191 0.026,-0.351 0.01,-0.352c-0.051,-0.004 -0.112,-0.006 -0.18,-0.006c-0.7,0 -2.194,0.225 -2.271,1.272c-0.028,0.399 0.215,0.801 0.933,0.854c0.032,0.002 0.067,0.003 0.105,0.003m-0.606,-5.991c0.148,0 0.325,0.006 0.534,0.021c2.426,0.177 3.477,1.168 3.337,3.099l-0.06,0.814c-0.058,0.798 -0.144,1.995 -0.121,2.333c0.056,0.775 0.243,1.078 0.451,1.301c-0.013,0.183 -0.996,0.752 -1.738,0.752c-0.033,0 -0.065,-0.001 -0.097,-0.003c-0.064,-0.005 -0.389,-0.397 -0.422,-1.265c0,0 0.002,-0.033 -0.014,-0.034l0,-0.001c-0.016,0 -0.05,0.03 -0.05,0.03c0,0 -0.78,0.53 -1.845,0.53c-0.076,0 -0.152,-0.003 -0.23,-0.008c-1.437,-0.103 -2.26,-0.918 -2.162,-2.274c0.191,-2.629 3.491,-2.872 4.146,-2.872c0.041,0 0.071,0.001 0.09,0.003l0.002,0c0.015,0 0.031,-0.014 0.031,-0.014c0.034,-0.463 -0.534,-0.825 -1.922,-0.926c-0.28,-0.02 -0.608,-0.031 -0.856,-0.031c-0.135,0 -0.246,0.003 -0.314,0.01l-0.016,-0.001c0.034,-0.463 0.475,-1.233 0.664,-1.411c0.013,-0.012 0.198,-0.053 0.592,-0.053" style="fill:#231f20;fill-rule:nonzero;"/><path d="M48.399,18.701c-0.459,-0.027 -0.732,-0.924 -0.765,-1.796c-0.001,-0.273 0.037,-0.921 0.084,-1.715c0.043,-0.724 0.098,-1.445 0.16,-2.246c0.077,-0.999 0.163,-2.122 0.246,-3.533c0.071,-1.202 0.067,-1.728 0.065,-1.98c-0.001,-0.097 -0.002,-0.163 0.001,-0.211c0.038,-0.641 1.426,-0.843 1.815,-0.843c0.008,0 0.11,0.003 0.118,0.004c0.212,0.012 0.774,0.047 0.747,0.484c-0.047,0.272 -0.253,2.916 -0.325,4.149c-0.034,0.565 -0.075,1.131 -0.118,1.73c-0.048,0.67 -0.099,1.381 -0.146,2.183c-0.035,0.577 -0.065,1.076 -0.049,1.312c0.035,0.582 0.167,0.851 0.337,1.141c0.038,0.064 0.056,0.137 0.051,0.212c-0.034,0.553 -1.485,1.112 -2.135,1.112c-0.007,0 -0.079,-0.002 -0.086,-0.003" style="fill:#fff;fill-rule:nonzero;"/><path d="M50.005,6.002c-0.021,0 -2.123,0.07 -2.189,1.194c-0.004,0.056 -0.004,0.129 -0.003,0.239c0.003,0.248 0.007,0.764 -0.063,1.954c-0.084,1.408 -0.17,2.529 -0.246,3.526c-0.062,0.803 -0.118,1.526 -0.161,2.253c-0.052,0.894 -0.085,1.455 -0.085,1.725c0.038,0.992 0.351,2.135 1.117,2.182c0.037,0.002 0.073,0.003 0.109,0.003c0.584,0 2.453,-0.535 2.51,-1.464c0.009,-0.148 -0.026,-0.296 -0.101,-0.424c-0.125,-0.213 -0.255,-0.435 -0.286,-0.971c-0.015,-0.218 0.016,-0.729 0.048,-1.271c0.047,-0.8 0.098,-1.509 0.146,-2.177c0.043,-0.601 0.084,-1.168 0.118,-1.736c0.076,-1.295 0.274,-3.805 0.315,-4.059c0.003,-0.025 0.009,-0.064 0.01,-0.088c0.018,-0.304 -0.1,-0.822 -1.098,-0.882c-0.047,-0.003 -0.093,-0.004 -0.141,-0.004m0,0.75c0.033,0 0.064,0.001 0.095,0.003c0.144,0.009 0.397,0.056 0.395,0.088c-0.046,0.237 -0.255,2.95 -0.325,4.148c-0.071,1.198 -0.174,2.395 -0.264,3.913c-0.036,0.607 -0.066,1.102 -0.048,1.36c0.04,0.676 0.212,1.007 0.387,1.305c-0.011,0.185 -1.083,0.759 -1.761,0.759c-0.021,0 -0.042,0 -0.063,-0.001c-0.064,-0.004 -0.375,-0.439 -0.413,-1.435c0,-0.257 0.038,-0.896 0.084,-1.679c0.097,-1.629 0.256,-3.239 0.406,-5.779c0.096,-1.614 0.056,-2.017 0.066,-2.193c0.013,-0.212 0.862,-0.489 1.441,-0.489" style="fill:#231f20;fill-rule:nonzero;"/><path d="M54.428,12.926c-0.488,0.181 -1.028,0.703 -1.074,1.729c-0.02,0.464 0.047,1.549 1.092,1.595l0.003,0c0.611,0 1.226,-0.409 1.278,-1.553c0.033,-0.749 -0.233,-1.141 -0.791,-1.167l-0.128,-0.005c-0.14,-0.007 -0.266,-0.092 -0.324,-0.22c-0.059,-0.131 -0.059,-0.307 -0.056,-0.379m-0.088,5.689c-1.134,-0.05 -2.071,-0.479 -2.709,-1.238c-0.606,-0.722 -0.9,-1.686 -0.851,-2.79c0.091,-2.025 1.677,-4.177 4.437,-4.177c0.081,0 0.161,0.002 0.243,0.005c0.929,0.08 1.048,0.212 1.119,0.29c0.043,0.047 0.134,0.148 0.119,0.493c-0.004,0.1 -0.016,0.211 -0.029,0.316c0.634,0.307 1.74,1.195 1.652,3.154c-0.088,1.964 -1.417,3.951 -3.788,3.951l-0.193,-0.004Z" style="fill:#fff;fill-rule:nonzero;"/><path d="M54.498,15.876l-0.035,-0.001c-0.648,-0.028 -0.757,-0.671 -0.734,-1.204c0.025,-0.553 0.214,-0.923 0.445,-1.15c0.127,0.221 0.359,0.366 0.617,0.377l0.128,0.006c0.163,0.007 0.467,0.022 0.433,0.775c-0.033,0.75 -0.353,1.197 -0.854,1.197m0.72,-5.842c-2.993,0 -4.713,2.337 -4.812,4.535c-0.054,1.2 0.271,2.253 0.939,3.048c0.707,0.842 1.737,1.317 2.979,1.372c0.07,0.003 0.14,0.005 0.21,0.005c2.605,0 4.066,-2.168 4.162,-4.309c0.084,-1.86 -0.858,-2.916 -1.628,-3.385c0.002,-0.028 0.004,-0.058 0.005,-0.085c0.015,-0.347 -0.052,-0.582 -0.217,-0.764c-0.157,-0.173 -0.367,-0.324 -1.347,-0.409c-0.119,-0.006 -0.206,-0.008 -0.291,-0.008m-0.72,6.592c0.734,0 1.542,-0.533 1.604,-1.913c0.061,-1.375 -0.813,-1.542 -1.148,-1.558l-0.128,-0.006c-0.015,-0.032 -0.028,-0.113 -0.023,-0.209c0.007,-0.175 0.049,-0.398 0.069,-0.461c-0.019,-0.001 -0.038,-0.002 -0.058,-0.002c-0.761,0 -1.767,0.663 -1.834,2.161c-0.007,0.159 -0.086,1.919 1.449,1.987c0.023,0.001 0.046,0.001 0.069,0.001m0.72,-5.842c0.074,0 0.15,0.002 0.226,0.006c0,0 0.766,0.066 0.858,0.167c0.015,0.017 0.027,0.113 0.022,0.225c-0.01,0.208 -0.054,0.478 -0.074,0.574c0.159,0.022 1.798,0.641 1.697,2.895c-0.083,1.852 -1.3,3.593 -3.413,3.593c-0.059,0 -0.118,-0.002 -0.177,-0.004c-2.143,-0.095 -3.292,-1.637 -3.202,-3.636c0.085,-1.896 1.547,-3.82 4.063,-3.82" style="fill:#231f20;fill-rule:nonzero;"/><path d="M58.899,18.795c-0.031,-0.001 -0.149,-0.015 -0.179,-0.022c-0.166,-0.047 -0.317,-0.244 -0.312,-0.416c0.116,-0.577 0.157,-1.594 0.182,-2.523c0.019,-0.688 0.03,-1.42 0.04,-2.092c0.009,-0.577 0.017,-1.11 0.029,-1.539c0.027,-1.008 0.076,-1.141 0.208,-1.266c0.308,-0.292 1.023,-0.512 1.663,-0.512c0.265,0.006 0.523,0.043 0.661,0.19c0.069,0.073 0.113,0.187 0.11,0.286c-0.013,0.11 -0.036,0.374 -0.055,0.655c0.45,-0.357 1.148,-0.751 2.034,-0.751c0.134,0 0.329,0.072 0.396,0.188c0.029,0.051 0.174,0.328 0.161,0.81c-0.031,1.138 -0.347,1.591 -0.41,1.67c-0.072,0.091 -0.181,0.141 -0.293,0.141c-0.044,0 -0.088,-0.007 -0.131,-0.023c-0.027,-0.006 -0.119,-0.016 -0.122,-0.017c-1.357,0.002 -1.687,1.139 -1.69,1.151l-0.033,1.357c-0.058,2.076 -0.07,2.088 -0.222,2.229c-0.466,0.423 -1.388,0.486 -1.896,0.486l-0.141,-0.002Z" style="fill:#fff;fill-rule:nonzero;"/><path d="M60.53,10.05c-0.632,0 -1.495,0.21 -1.92,0.613c-0.264,0.25 -0.299,0.532 -0.326,1.531c-0.012,0.428 -0.02,0.963 -0.029,1.542c-0.01,0.67 -0.021,1.4 -0.04,2.087c-0.025,0.913 -0.065,1.909 -0.166,2.391c-0.009,0.043 -0.014,0.087 -0.016,0.131c-0.011,0.363 0.23,0.687 0.585,0.788c0.113,0.031 0.21,0.034 0.269,0.036l0.153,0.002c0.687,0 1.616,-0.1 2.144,-0.58c0.286,-0.266 0.288,-0.308 0.348,-2.484l0.037,-1.328c0.07,-0.177 0.388,-0.829 1.28,-0.829l0.024,0.001c0.016,0.002 0.035,0.005 0.052,0.008c0.068,0.021 0.139,0.03 0.209,0.03c0.224,0 0.441,-0.1 0.587,-0.284c0.106,-0.134 0.457,-0.667 0.491,-1.892c0.015,-0.568 -0.158,-0.914 -0.211,-1.007c-0.13,-0.226 -0.368,-0.368 -0.629,-0.375l-0.092,-0.001c-0.624,0 -1.165,0.175 -1.606,0.405c-0.014,-0.175 -0.091,-0.351 -0.21,-0.477c-0.183,-0.194 -0.469,-0.297 -0.851,-0.307l-0.083,-0.001Zm0,0.75c0.021,0 0.042,0 0.062,0.001c0.145,0.004 0.335,0.041 0.334,0.089c-0.02,0.143 -0.068,0.75 -0.08,1.166c-0.001,0.032 -0.01,0.368 0.022,0.369l0.003,0c0.015,0 0.031,-0.001 0.062,-0.03c0,0 0.901,-1.215 2.347,-1.215c0.023,0 0.047,0 0.071,0.001c0,0 0.122,0.212 0.111,0.611c-0.03,1.071 -0.328,1.447 -0.328,1.447c-0.048,-0.017 -0.208,-0.037 -0.208,-0.037c-0.025,-0.001 -0.051,-0.002 -0.077,-0.002c-1.568,0 -2.025,1.369 -2.027,1.464l-0.039,1.407c-0.025,0.912 -0.053,1.919 -0.103,1.965c-0.357,0.324 -1.179,0.385 -1.64,0.385c-0.048,0 -0.092,0 -0.131,-0.001c-0.064,-0.002 -0.128,-0.004 -0.126,-0.052c0.11,-0.525 0.153,-1.484 0.182,-2.523c0.035,-1.279 0.043,-2.703 0.068,-3.631c0.016,-0.576 0.043,-0.959 0.092,-1.006c0.222,-0.21 0.845,-0.408 1.405,-0.408" style="fill:#231f20;fill-rule:nonzero;"/><path d="M64.241,19.798c-0.523,-0.012 -0.887,-0.371 -0.994,-0.596c-0.08,-0.168 -0.025,-0.369 0.129,-0.472c0.28,-0.188 0.442,-0.384 0.536,-0.548c-0.477,-0.168 -0.752,-0.579 -0.74,-1.15c0.018,-0.835 0.579,-1.418 1.365,-1.418c0.79,0.017 1.305,0.675 1.286,1.602c-0.037,1.738 -1.029,2.486 -1.504,2.575c-0.023,0.005 -0.046,0.007 -0.07,0.007l-0.008,0Z" style="fill:#fff;fill-rule:nonzero;"/><path d="M64.537,15.239c-0.986,0 -1.718,0.751 -1.74,1.785c-0.01,0.536 0.19,0.977 0.544,1.262c-0.05,0.044 -0.108,0.088 -0.174,0.133c-0.309,0.207 -0.419,0.609 -0.258,0.945c0.186,0.392 0.701,0.795 1.324,0.809l0.016,0c0.047,0 0.094,-0.004 0.14,-0.013c0.678,-0.128 1.769,-1.038 1.809,-2.936c0.024,-1.13 -0.658,-1.964 -1.62,-1.984c-0.006,-0.001 -0.036,-0.001 -0.041,-0.001m0,0.75l0.024,0c0.64,0.014 0.899,0.644 0.887,1.219c-0.033,1.551 -0.893,2.157 -1.199,2.215c-0.352,-0.008 -0.602,-0.253 -0.664,-0.382c0.601,-0.404 0.787,-0.88 0.825,-1.151c-0.464,-0.009 -0.875,-0.226 -0.863,-0.85c0.012,-0.568 0.365,-1.051 0.99,-1.051" style="fill:#231f20;fill-rule:nonzero;"/><path d="M71.251,13.167c-0.017,0.604 -0.048,1.812 -0.052,2.717c-0.001,0.142 0.002,0.276 0.005,0.397c0.761,-0.105 1.711,-0.556 1.716,-1.765c0.003,-0.5 -0.18,-0.838 -0.574,-1.063c-0.27,-0.154 -0.645,-0.252 -1.095,-0.286m-1.964,9.55c-0.408,-0.004 -0.614,-0.147 -0.614,-0.425c-0.041,-0.324 -0.059,-1.01 -0.053,-2.115c0.005,-1.102 0.032,-2.462 0.058,-3.807c0.026,-1.311 0.052,-2.608 0.057,-3.636c0.004,-0.84 -0.009,-1.476 -0.038,-1.79c-0.009,-0.111 0.031,-0.22 0.11,-0.299c0.309,-0.306 1.116,-0.646 1.781,-0.646c0.184,0.001 0.367,0.003 0.535,0.104c0.113,0.067 0.182,0.189 0.182,0.321c0,0.024 -0.01,0.386 -0.01,0.386c0.684,0.024 1.555,0.125 2.347,0.5c1.24,0.586 1.893,1.688 1.885,3.186c-0.014,3.027 -2.893,4.146 -4.342,4.315c0.001,0.875 0.054,2.685 0.108,3.033c0.019,0.116 -0.019,0.233 -0.1,0.317c-0.438,0.456 -1.516,0.556 -1.895,0.556l-0.011,0Z" style="fill:#fff;fill-rule:nonzero;"/><path d="M71.574,15.813c0.003,-0.564 0.017,-1.334 0.04,-2.222c0.218,0.043 0.402,0.106 0.546,0.188c0.191,0.109 0.387,0.282 0.385,0.735c-0.004,0.795 -0.51,1.146 -0.971,1.299m-0.986,-6.188c-0.792,0 -1.679,0.39 -2.045,0.752c-0.159,0.159 -0.24,0.378 -0.219,0.601c0.026,0.303 0.04,0.926 0.036,1.755c-0.005,1.025 -0.031,2.32 -0.057,3.63c-0.026,1.346 -0.054,2.709 -0.059,3.812c-0.005,1.12 0.013,1.822 0.059,2.206l0.001,0c0.027,0.223 0.179,0.703 0.976,0.71l0.001,0c0.089,0 1.548,-0.009 2.183,-0.671c0.161,-0.168 0.235,-0.402 0.2,-0.633c-0.043,-0.276 -0.092,-1.708 -0.103,-2.659c1.642,-0.31 4.326,-1.576 4.341,-4.63c0.008,-1.654 -0.719,-2.873 -2.1,-3.528c-0.711,-0.336 -1.472,-0.466 -2.123,-0.515l0,-0.031c0,-0.263 -0.138,-0.507 -0.363,-0.643c-0.256,-0.154 -0.512,-0.155 -0.718,-0.156l-0.01,0Zm0.26,7.058c1.15,0 2.44,-0.65 2.447,-2.165c0.007,-1.393 -1.24,-1.735 -2.408,-1.74c-0.001,0.031 -0.058,1.856 -0.063,3.104c-0.002,0.321 0.013,0.593 0.012,0.801l0.012,0m-0.26,-6.308l0.006,0c0.144,0.001 0.256,0.001 0.335,0.049c0,0.048 -0.019,0.704 -0.019,0.753c1.185,0.005 4.257,0.148 4.242,3.318c-0.015,3.159 -3.392,3.964 -4.332,3.964l-0.009,0l-0.001,0.241c-0.004,0.816 0.051,2.801 0.113,3.202c-0.304,0.315 -1.189,0.44 -1.625,0.44l-0.01,0c-0.112,-0.001 -0.24,-0.002 -0.24,-0.05c-0.046,-0.383 -0.058,-1.152 -0.054,-2.113c0.011,-2.177 0.106,-5.361 0.116,-7.442c0.004,-0.832 -0.009,-1.488 -0.039,-1.825c0.224,-0.223 0.926,-0.537 1.517,-0.537" style="fill:#231f20;fill-rule:nonzero;"/><path d="M80.64,19.305c-0.375,0 -0.66,-0.569 -0.8,-1.244c-0.532,0.495 -1.191,0.795 -1.824,0.805l-0.001,0c-1.351,0 -2.124,-0.98 -2.336,-2.912c-0.02,-0.22 -0.044,-0.63 -0.051,-1.106c0,-0.029 -0.036,-2.901 0.128,-3.276c0.023,-0.053 0.058,-0.101 0.103,-0.138c0.052,-0.044 0.543,-0.428 1.573,-0.443l0.001,0c0.471,0 0.624,0.09 0.715,0.179c0.071,0.07 0.112,0.163 0.114,0.262c0,0.029 -0.004,0.132 -0.011,0.287c-0.019,0.454 -0.06,1.398 -0.046,2.274c0.005,0.344 0.026,0.672 0.046,0.955c0.001,0.033 0.015,0.932 0.527,0.932c0.543,-0.008 0.893,-0.755 0.919,-0.885l-0.012,-0.512c0,-0.031 -0.038,-3.023 0.076,-3.301c0.227,-0.398 1.022,-0.707 1.758,-0.718c0.497,0 0.611,0.11 0.666,0.162c0.072,0.07 0.113,0.164 0.115,0.264c0.001,0.024 -0.003,0.158 -0.009,0.37c-0.021,0.81 -0.072,2.705 -0.05,4.095c0.012,0.852 0.049,1.198 0.077,1.338c0.098,0.612 0.222,0.886 0.393,1.133c0.042,0.062 0.065,0.133 0.066,0.208c0.002,0.117 0.006,0.39 -0.822,0.847c-0.225,0.125 -0.805,0.416 -1.31,0.424l-0.005,0Z" style="fill:#fff;fill-rule:nonzero;"/><path d="M81.535,10.088c-0.003,0 -0.017,0.001 -0.02,0.001c-0.774,0.011 -1.753,0.336 -2.057,0.859c-0.017,0.03 -0.031,0.06 -0.045,0.091c-0.135,0.331 -0.117,2.522 -0.103,3.448l0.007,0.461c-0.076,0.191 -0.326,0.553 -0.537,0.557c-0.079,-0.056 -0.153,-0.355 -0.154,-0.534c0,-0.017 -0.001,-0.034 -0.002,-0.051c-0.019,-0.275 -0.04,-0.597 -0.045,-0.934c-0.013,-0.866 0.027,-1.801 0.046,-2.252c0.008,-0.167 0.012,-0.278 0.011,-0.309c-0.004,-0.197 -0.085,-0.386 -0.226,-0.524c-0.206,-0.201 -0.492,-0.287 -0.956,-0.287c-1.164,0.018 -1.733,0.446 -1.836,0.532c-0.089,0.074 -0.16,0.169 -0.207,0.275c-0.193,0.444 -0.166,2.937 -0.158,3.432c0.007,0.498 0.031,0.91 0.051,1.129c0.296,2.695 1.617,3.258 2.673,3.258c0.573,-0.008 1.147,-0.205 1.654,-0.542c0.204,0.556 0.531,0.982 1.008,0.982c0.579,-0.009 1.186,-0.299 1.498,-0.471c0.902,-0.499 1.019,-0.878 1.015,-1.182c-0.003,-0.148 -0.049,-0.292 -0.133,-0.414c-0.12,-0.174 -0.235,-0.379 -0.328,-0.964c-0.027,-0.133 -0.063,-0.433 -0.076,-1.3c-0.021,-1.382 0.029,-3.272 0.051,-4.078c0.006,-0.223 0.009,-0.363 0.008,-0.388c-0.003,-0.199 -0.086,-0.39 -0.23,-0.527c-0.138,-0.132 -0.353,-0.268 -0.909,-0.268m0,0.75c0.104,0 0.342,0.013 0.39,0.059c0.002,0.112 -0.087,2.705 -0.06,4.463c0.009,0.624 0.033,1.152 0.085,1.407c0.106,0.67 0.255,0.987 0.452,1.272c0.003,0.193 -1.091,0.881 -1.763,0.891c-0.064,0 -0.406,-0.411 -0.5,-1.4l-0.021,-0.336c-0.001,-0.031 -0.016,-0.031 -0.017,-0.031c-0.5,0.791 -1.339,1.316 -2.091,1.327l-0.033,0c-1.413,0 -1.797,-1.404 -1.926,-2.577c-0.019,-0.208 -0.041,-0.607 -0.048,-1.071c-0.019,-1.232 0.019,-2.943 0.096,-3.12c0,0 0.411,-0.343 1.338,-0.357c0,0 0.006,-0.001 0.017,-0.001c0.073,0 0.361,0.005 0.432,0.075c0.002,0.112 -0.075,1.392 -0.057,2.559c0.006,0.353 0.027,0.688 0.047,0.976c0,0 0.004,1.281 0.901,1.281l0.014,0c0.832,-0.013 1.295,-1.091 1.277,-1.235l-0.008,-0.543c-0.017,-1.136 0.001,-3.039 0.048,-3.153c0.093,-0.161 0.697,-0.474 1.416,-0.485c0.003,-0.001 0.007,-0.001 0.011,-0.001" style="fill:#231f20;fill-rule:nonzero;"/><path d="M83.344,18.86c-0.312,0 -0.46,-0.212 -0.467,-0.408c0.081,-0.583 0.061,-1.602 0.03,-2.53c-0.022,-0.692 -0.055,-1.426 -0.085,-2.101c-0.026,-0.572 -0.05,-1.103 -0.064,-1.527c-0.033,-1.014 0.005,-1.143 0.131,-1.279c0.304,-0.323 1.051,-0.593 1.703,-0.614l0.003,0c0.62,0 0.716,0.269 0.723,0.429c-0.008,0.114 -0.015,0.38 -0.016,0.661c0.44,-0.396 1.142,-0.846 2.066,-0.876l0.013,0c0.125,0 0.243,0.063 0.313,0.168c0.032,0.049 0.193,0.317 0.21,0.798c0.036,1.138 -0.251,1.609 -0.309,1.692c-0.071,0.103 -0.187,0.16 -0.307,0.16c-0.036,0 -0.073,-0.005 -0.109,-0.016c-0.029,-0.004 -0.122,-0.01 -0.125,-0.01c-1.342,0.045 -1.614,1.239 -1.617,1.251l0.049,1.355c0.066,2.075 0.055,2.087 -0.085,2.238c-0.509,0.52 -1.665,0.596 -2.007,0.608c-0.004,0 -0.046,0.001 -0.05,0.001" style="fill:#fff;fill-rule:nonzero;"/><path d="M84.639,10.025c-0.008,0 -0.052,0.001 -0.061,0.001c-0.637,0.02 -1.542,0.284 -1.961,0.732c-0.248,0.265 -0.266,0.547 -0.234,1.546c0.014,0.428 0.038,0.959 0.064,1.534c0.03,0.672 0.064,1.405 0.086,2.095c0.029,0.912 0.05,1.909 -0.023,2.396c-0.006,0.045 -0.009,0.089 -0.008,0.134c0.012,0.383 0.305,0.771 0.842,0.771c0.008,0 0.053,-0.001 0.061,-0.001c0.485,-0.016 1.674,-0.117 2.258,-0.714c0.269,-0.289 0.267,-0.372 0.198,-2.497l-0.043,-1.334c0.06,-0.182 0.343,-0.858 1.249,-0.904c0.017,0.001 0.037,0.003 0.054,0.005c0.055,0.012 0.111,0.019 0.167,0.019c0.24,0 0.472,-0.116 0.614,-0.32c0.098,-0.141 0.416,-0.693 0.376,-1.919c-0.018,-0.568 -0.213,-0.903 -0.272,-0.993c-0.138,-0.21 -0.374,-0.336 -0.625,-0.336l-0.025,0c-0.663,0.021 -1.223,0.236 -1.67,0.506c-0.03,-0.213 -0.193,-0.721 -1.047,-0.721m0,0.75c0.139,0 0.302,0.025 0.304,0.07c-0.012,0.145 -0.024,0.753 -0.01,1.169c0.001,0.032 0.012,0.366 0.043,0.366l0.001,0c0.016,0 0.032,-0.001 0.063,-0.034c0,0 0.854,-1.307 2.341,-1.356c0,0 0.134,0.204 0.148,0.603c0.034,1.072 -0.241,1.465 -0.241,1.465c-0.048,-0.014 -0.209,-0.025 -0.209,-0.025c-1.631,0.053 -2.017,1.49 -2.014,1.586l0.046,1.407c0.029,0.912 0.062,1.919 0.016,1.969c-0.372,0.38 -1.329,0.475 -1.745,0.489l-0.038,0c-0.049,0 -0.091,-0.006 -0.092,-0.044c0.079,-0.531 0.064,-1.491 0.031,-2.53c-0.042,-1.28 -0.12,-2.702 -0.15,-3.629c-0.019,-0.576 -0.015,-0.96 0.031,-1.01c0.217,-0.231 0.865,-0.476 1.44,-0.495c0.012,-0.001 0.023,-0.001 0.035,-0.001" style="fill:#231f20;fill-rule:nonzero;"/><path d="M90.575,12.885c-0.173,0.082 -0.336,0.206 -0.472,0.363c-0.217,0.252 -0.468,0.709 -0.43,1.461c0.017,0.349 0.151,1.486 1.158,1.486c0.662,-0.033 1.264,-0.486 1.204,-1.67c-0.036,-0.721 -0.321,-1.086 -0.848,-1.086c0,0 -0.188,0.008 -0.195,0.008c-0.135,0 -0.26,-0.072 -0.327,-0.191c-0.068,-0.121 -0.086,-0.284 -0.09,-0.37l0,-0.001Zm0.209,5.677c-2.122,0 -3.566,-1.443 -3.679,-3.676c-0.107,-2.117 1.349,-4.447 4.259,-4.596l0.007,0c0.933,0 1.049,0.106 1.134,0.183c0.068,0.058 0.149,0.168 0.165,0.479c0.005,0.1 0.004,0.213 0,0.318c0.658,0.248 1.846,1.033 1.945,2.98c0.103,2.043 -1.095,4.178 -3.585,4.305c-0.083,0.005 -0.165,0.007 -0.246,0.007" style="fill:#fff;fill-rule:nonzero;"/><path d="M90.831,15.819c-0.657,0 -0.767,-0.789 -0.783,-1.128c-0.025,-0.491 0.089,-0.901 0.331,-1.187c0.14,0.199 0.369,0.319 0.613,0.319c0.014,0 0.027,-0.001 0.041,-0.002l0.128,-0.007l0.015,0c0.18,0 0.449,0.02 0.486,0.73c0.038,0.771 -0.249,1.247 -0.771,1.273l-0.06,0.002Zm0.588,-5.904l-0.001,0c-0.002,0 -0.039,0.001 -0.041,0.001c-3.185,0.161 -4.763,2.69 -4.646,4.989c0.122,2.411 1.751,4.031 4.054,4.031c0.087,0 0.175,-0.002 0.264,-0.006c2.736,-0.139 4.053,-2.469 3.941,-4.699c-0.094,-1.848 -1.133,-2.813 -1.942,-3.21c-0.001,-0.029 -0.002,-0.057 -0.003,-0.086c-0.019,-0.358 -0.113,-0.59 -0.305,-0.755c-0.186,-0.171 -0.45,-0.265 -1.321,-0.265m-0.588,6.654c0.032,0 0.064,-0.001 0.098,-0.002c0.751,-0.038 1.553,-0.639 1.482,-2.06c-0.066,-1.292 -0.85,-1.443 -1.224,-1.443c-0.023,0 -0.046,0 -0.066,0.002l-0.128,0.007c-0.018,-0.031 -0.038,-0.11 -0.043,-0.206c-0.009,-0.176 0.012,-0.402 0.025,-0.466c-0.767,0.038 -1.754,0.793 -1.676,2.327c0.007,0.155 0.093,1.841 1.532,1.841m0.588,-5.904c0.152,0 0.745,0.006 0.833,0.086c0.017,0.014 0.038,0.109 0.044,0.221c0.01,0.208 -0.008,0.481 -0.019,0.577c0.16,0.009 1.849,0.468 1.964,2.72c0.096,1.902 -1.01,3.799 -3.23,3.912c-0.076,0.003 -0.152,0.005 -0.226,0.005c-2.006,0 -3.208,-1.392 -3.305,-3.318c-0.099,-1.949 1.251,-4.068 3.903,-4.202c0,0 0.013,-0.001 0.036,-0.001" style="fill:#231f20;fill-rule:nonzero;"/><path d="M99.098,19.092c-0.227,0 -0.446,-0.053 -0.471,-0.059c-0.175,-0.043 -0.294,-0.205 -0.284,-0.384c0.065,-1.175 -0.027,-3.364 -0.273,-6.507c-0.04,-0.501 -0.075,-0.946 -0.115,-1.364c-0.195,0.024 -0.348,0.043 -0.364,0.043c-0.089,0 -0.176,-0.031 -0.244,-0.089c-0.061,-0.053 -0.204,-0.175 -0.251,-0.776c-0.018,-0.222 -0.058,-0.97 0.158,-1.224c0.06,-0.071 0.144,-0.117 0.236,-0.129l0.262,-0.034c-0.088,-0.945 -0.15,-1.564 -0.15,-1.565c-0.022,-0.117 0.024,-0.267 0.142,-0.419c0.428,-0.556 2.195,-1.592 3.247,-1.675l0.001,0c0.544,0 0.856,1.011 0.88,1.319c0.006,0.076 0.013,0.17 -0.013,0.277c-0.038,0.157 -0.173,0.273 -0.334,0.286c-0.201,0.101 -1.082,0.636 -1.175,0.856c-0.012,0.17 -0.017,0.405 -0.012,0.684c0.393,-0.027 0.699,-0.044 0.865,-0.044c0.395,0 0.493,0.197 0.505,0.361c0.051,0.647 -0.147,1.83 -0.725,1.876c-0.161,0.003 -0.33,0.006 -0.506,0.014l0.033,0.416c0.104,1.328 0.244,2.783 0.365,4.034c0.091,0.943 0.17,1.769 0.215,2.338c0.025,0.319 0.046,0.711 0.028,0.859c-0.011,0.093 -0.057,0.177 -0.127,0.238c-0.027,0.023 -0.677,0.576 -1.791,0.664c-0.01,0.001 -0.092,0.004 -0.102,0.004" style="fill:#fff;fill-rule:nonzero;"/><path d="M101.023,4.533c-0.019,0 -0.041,0.001 -0.06,0.003c-1.16,0.091 -3.039,1.201 -3.517,1.819c-0.211,0.273 -0.237,0.524 -0.216,0.698c0.008,0.079 0.052,0.525 0.115,1.197c-0.146,0.039 -0.278,0.121 -0.377,0.237c-0.221,0.26 -0.304,0.764 -0.246,1.498c0.052,0.665 0.221,0.894 0.38,1.03c0.137,0.118 0.31,0.181 0.488,0.181c0.009,0 0.017,-0.001 0.026,-0.001c0.026,0.292 0.049,0.591 0.073,0.895l0.006,0.081c0.246,3.126 0.337,5.298 0.273,6.456c-0.02,0.36 0.219,0.683 0.569,0.769c0.047,0.012 0.295,0.07 0.561,0.07c0.043,0 0.086,-0.001 0.128,-0.005c1.218,-0.096 1.932,-0.687 2.01,-0.754c0.141,-0.122 0.231,-0.292 0.254,-0.478c0.025,-0.206 -0.006,-0.673 -0.027,-0.932c-0.044,-0.571 -0.124,-1.4 -0.215,-2.345c-0.122,-1.268 -0.261,-2.703 -0.365,-4.027l-0.002,-0.024c0.029,-0.001 0.056,-0.001 0.083,-0.002c0.977,-0.076 1.171,-1.598 1.118,-2.282c-0.009,-0.116 -0.094,-0.704 -0.879,-0.704c-0.127,0 -0.303,0.008 -0.489,0.017c0.002,-0.051 0.004,-0.101 0.006,-0.148c0.2,-0.196 0.781,-0.546 1.031,-0.66c0.232,-0.085 0.413,-0.281 0.472,-0.529c0.04,-0.165 0.029,-0.302 0.022,-0.393c-0.02,-0.261 -0.333,-1.667 -1.222,-1.667m0,0.75c0.129,0 0.443,0.578 0.475,0.975c0.004,0.063 0.008,0.111 -0.004,0.16c-0.048,0.004 -1.498,0.743 -1.512,1.178c-0.025,0.291 -0.026,0.691 -0.007,1.139l0.064,-0.005c0.504,-0.04 0.951,-0.067 1.164,-0.067c0.083,0 0.13,0.004 0.131,0.014c0.059,0.749 -0.222,1.46 -0.381,1.473c-0.257,0.004 -0.561,0.012 -0.88,0.037l0.063,0.797c0.182,2.328 0.476,5.049 0.58,6.372c0.033,0.415 0.039,0.703 0.029,0.784c0,0 -0.571,0.495 -1.575,0.574c-0.024,0.001 -0.048,0.002 -0.072,0.002c-0.189,0 -0.381,-0.047 -0.381,-0.047c0.08,-1.435 -0.082,-4.117 -0.274,-6.557c-0.047,-0.605 -0.093,-1.196 -0.153,-1.753c-0.413,0.049 -0.7,0.087 -0.7,0.087c-0.051,-0.044 -0.1,-0.265 -0.12,-0.519c-0.03,-0.383 -0.004,-0.867 0.069,-0.953c0,0 0.286,-0.038 0.62,-0.081c-0.106,-1.146 -0.184,-1.926 -0.184,-1.926c-0.056,-0.317 1.961,-1.598 3.045,-1.683c0.001,-0.001 0.002,-0.001 0.003,-0.001" style="fill:#231f20;fill-rule:nonzero;"/><path d="M103.124,17.723c-0.194,0 -0.427,-0.187 -0.444,-0.381c0.044,-0.586 -0.038,-1.601 -0.125,-2.526c-0.064,-0.683 -0.141,-1.406 -0.213,-2.072c-0.061,-0.579 -0.118,-1.113 -0.158,-1.542c-0.096,-1.01 -0.065,-1.141 0.055,-1.285c0.28,-0.338 1.01,-0.653 1.659,-0.715c0.047,-0.003 0.094,-0.006 0.142,-0.006c0.474,0 0.593,0.214 0.61,0.394c-0.001,0.111 0.008,0.376 0.024,0.656c0.415,-0.42 1.088,-0.913 2.01,-1c0.011,-0.001 0.023,-0.002 0.035,-0.002c0.117,0 0.229,0.055 0.3,0.151c0.035,0.046 0.212,0.304 0.257,0.783c0.107,1.135 -0.152,1.622 -0.204,1.708c-0.07,0.112 -0.192,0.179 -0.32,0.179c-0.029,0 -0.058,-0.003 -0.087,-0.01c-0.024,-0.003 -0.125,-0.003 -0.125,-0.003c-1.338,0.128 -1.535,1.335 -1.537,1.348l0.131,1.35c0.195,2.067 0.184,2.079 0.052,2.239c-0.476,0.549 -1.625,0.696 -1.966,0.728c-0.012,0.001 -0.084,0.006 -0.096,0.006" style="fill:#fff;fill-rule:nonzero;"/><path d="M104.039,8.82c-0.059,0 -0.117,0.003 -0.171,0.008c-0.642,0.06 -1.53,0.38 -1.92,0.851c-0.231,0.276 -0.233,0.559 -0.138,1.558c0.04,0.43 0.097,0.966 0.159,1.545c0.071,0.665 0.148,1.387 0.212,2.067c0.085,0.908 0.167,1.904 0.124,2.394c-0.003,0.044 -0.003,0.089 0.001,0.133c0.038,0.418 0.382,0.72 0.817,0.72c0.04,0 0.085,-0.002 0.129,-0.006c0.601,-0.057 1.685,-0.243 2.211,-0.851c0.253,-0.304 0.245,-0.387 0.044,-2.524l-0.123,-1.309c0.049,-0.185 0.289,-0.877 1.192,-0.98c0.016,0 0.036,0.001 0.053,0.002c0.041,0.007 0.082,0.011 0.122,0.011c0.257,0 0.501,-0.133 0.64,-0.358c0.089,-0.146 0.373,-0.717 0.258,-1.939c-0.053,-0.565 -0.267,-0.888 -0.331,-0.973c-0.142,-0.191 -0.365,-0.3 -0.6,-0.3c-0.023,0 -0.047,0.001 -0.07,0.003c-0.661,0.062 -1.207,0.31 -1.637,0.606c-0.042,-0.203 -0.221,-0.658 -0.972,-0.658m0,0.75c0.118,0 0.233,0.017 0.237,0.054c-0.003,0.144 0.022,0.753 0.061,1.167c0.003,0.031 0.034,0.363 0.066,0.363c0.016,-0.001 0.032,-0.003 0.061,-0.037c0,0 0.772,-1.359 2.254,-1.498c0,0 0.147,0.195 0.184,0.594c0.1,1.067 -0.151,1.476 -0.151,1.476c-0.049,-0.012 -0.21,-0.013 -0.21,-0.013c-1.625,0.154 -1.921,1.612 -1.912,1.707l0.131,1.402c0.086,0.908 0.179,1.912 0.136,1.964c-0.348,0.402 -1.297,0.555 -1.711,0.594c-0.022,0.002 -0.043,0.003 -0.062,0.003c-0.038,0 -0.067,-0.007 -0.07,-0.039c0.046,-0.534 -0.028,-1.491 -0.125,-2.527c-0.12,-1.274 -0.285,-2.689 -0.371,-3.613c-0.055,-0.574 -0.075,-0.957 -0.031,-1.009c0.202,-0.244 0.834,-0.528 1.408,-0.583c0.033,-0.003 0.069,-0.005 0.105,-0.005" style="fill:#231f20;fill-rule:nonzero;"/><path d="M110.34,10.994c-0.555,0.062 -1.093,0.836 -1.066,1.82c0.513,-0.279 1.275,-1.043 1.197,-1.745c-0.006,-0.052 -0.009,-0.077 -0.099,-0.077l0,-0.375l-0.032,0.377Zm-0.097,5.937c-1.946,0 -3.299,-1.283 -3.53,-3.347c-0.131,-1.16 0.122,-2.268 0.712,-3.118c0.665,-0.956 1.709,-1.54 3.021,-1.688c0.11,-0.012 0.23,-0.019 0.356,-0.019c1.282,0 2.126,0.695 2.257,1.858c0.155,1.386 -0.758,2.86 -2.322,3.844l0.018,0c0.081,0 0.168,-0.005 0.263,-0.016c0.69,-0.076 1.314,-0.288 1.671,-0.566c0.054,-0.042 0.148,-0.088 0.216,-0.096l0.004,0c0.424,0 0.473,0.439 0.495,0.627c0.055,0.488 0.012,1.231 -0.292,1.716c-0.02,0.033 -0.045,0.062 -0.074,0.087c-0.06,0.052 -0.634,0.507 -2.243,0.687c-0.191,0.022 -0.375,0.031 -0.552,0.031" style="fill:#fff;fill-rule:nonzero;"/><path d="M110.802,8.384c-0.141,0 -0.275,0.008 -0.398,0.021c-1.422,0.161 -2.559,0.799 -3.287,1.847c-0.642,0.925 -0.918,2.123 -0.777,3.373c0.254,2.271 1.75,3.682 3.903,3.682c0.19,0 0.388,-0.012 0.593,-0.034c1.686,-0.19 2.333,-0.679 2.445,-0.776c0.059,-0.049 0.109,-0.107 0.149,-0.173c0.457,-0.73 0.369,-1.757 0.347,-1.956c-0.091,-0.797 -0.499,-0.963 -0.827,-0.963c-0.029,0 -0.058,0.001 -0.087,0.005c-0.14,0.017 -0.287,0.081 -0.404,0.173c-0.072,0.056 -0.157,0.108 -0.253,0.156c0.885,-0.943 1.347,-2.075 1.225,-3.164c-0.151,-1.351 -1.159,-2.191 -2.629,-2.191m-1.808,4.911l0.011,0c0.666,-0.092 1.958,-1.202 1.839,-2.267c-0.034,-0.301 -0.255,-0.412 -0.472,-0.412c-0.025,0 -0.049,0.002 -0.073,0.005c-0.858,0.097 -1.523,1.202 -1.382,2.458c0.018,0.164 0.024,0.216 0.077,0.216m1.808,-4.161c0.749,0 1.746,0.293 1.884,1.525c0.152,1.352 -0.878,2.933 -2.835,3.861c0.01,0.083 0.29,0.316 0.904,0.316c0.094,0 0.195,-0.006 0.305,-0.017c0.684,-0.077 1.401,-0.287 1.86,-0.644c0,0 0.014,-0.018 0.03,-0.02c0.032,0 0.071,0.203 0.081,0.297c0.043,0.382 0.023,1.061 -0.236,1.476c0,0 -0.5,0.427 -2.042,0.6c-0.177,0.019 -0.347,0.029 -0.51,0.029c-1.905,0 -2.966,-1.302 -3.158,-3.015c-0.232,-2.066 0.827,-4.101 3.403,-4.39c0.097,-0.012 0.203,-0.018 0.314,-0.018" style="fill:#231f20;fill-rule:nonzero;"/><path d="M114.674,17.048c-0.461,0 -1.062,-0.852 -1.169,-1.655l-0.015,-0.113c-0.027,-0.205 0.118,-0.393 0.323,-0.42c0.93,-0.124 1.435,-0.416 1.694,-0.639c0.3,-0.259 0.358,-0.494 0.345,-0.592c-0.028,-0.211 -0.575,-0.465 -1.015,-0.668c-0.786,-0.364 -1.764,-0.817 -1.89,-1.769c-0.217,-1.638 1.875,-3.258 3.752,-3.508l0.004,0c0.524,0 1.159,0.814 1.275,1.555c0.016,0.1 -0.01,0.202 -0.07,0.282c-0.06,0.081 -0.15,0.134 -0.25,0.148c-0.421,0.066 -1.78,0.646 -1.727,1.044c0.017,0.124 0.543,0.372 0.826,0.505c0.798,0.376 1.89,0.89 2.079,2.051c0.292,2.199 -2.858,3.608 -4.104,3.775l-0.058,0.004Z" style="fill:#fff;fill-rule:nonzero;"/><path d="M116.759,7.305c-0.032,0 -0.075,0.003 -0.107,0.007c-2.09,0.278 -4.325,2.055 -4.077,3.928c0.154,1.157 1.281,1.679 2.104,2.061c0.261,0.12 0.638,0.295 0.785,0.417c-0.083,0.156 -0.495,0.609 -1.701,0.77c-0.41,0.054 -0.699,0.431 -0.645,0.841l0.015,0.112c0.122,0.917 0.822,1.981 1.541,1.981c0.032,0 0.073,-0.003 0.105,-0.007c1.396,-0.186 4.76,-1.704 4.43,-4.185c-0.223,-1.377 -1.469,-1.964 -2.292,-2.352c-0.153,-0.071 -0.357,-0.167 -0.503,-0.25c0.298,-0.241 1.003,-0.53 1.311,-0.591c0.396,-0.078 0.686,-0.459 0.623,-0.856c-0.132,-0.85 -0.871,-1.876 -1.589,-1.876m0,0.75c0.185,0 0.744,0.574 0.849,1.242c-0.239,0.032 -2.16,0.626 -2.048,1.466c0.105,0.793 2.639,0.924 2.906,2.566c0.246,1.856 -2.547,3.178 -3.784,3.343l-0.008,0c-0.168,0 -0.7,-0.596 -0.797,-1.329l-0.015,-0.111c1.823,-0.242 2.429,-1.146 2.362,-1.653c-0.122,-0.92 -2.724,-1.074 -2.905,-2.437c-0.175,-1.316 1.638,-2.848 3.43,-3.086c0.003,-0.001 0.006,-0.001 0.01,-0.001" style="fill:#231f20;fill-rule:nonzero;"/><path d="M122.16,15.414c-1.943,0 -3.279,-1.146 -3.573,-3.066c-0.213,-1.387 0.116,-2.647 0.951,-3.645c0.764,-0.912 1.9,-1.524 3.2,-1.725c0.274,-0.042 0.381,-0.054 0.453,-0.054c0.061,0 0.154,0.015 0.208,0.044c0.141,0.075 0.284,0.222 0.373,0.797c0.051,0.331 0.138,1.128 -0.139,1.399c-0.056,0.054 -0.126,0.089 -0.202,0.101l-0.111,0.017c-0.575,0.088 -1.042,0.263 -1.393,0.521c-0.594,0.436 -0.815,1.082 -0.679,1.974c0.116,0.752 0.522,1.117 1.243,1.117c0.121,0 0.25,-0.01 0.39,-0.032c0.598,-0.092 0.98,-0.339 1.123,-0.431c0.044,-0.029 0.164,-0.089 0.215,-0.098c0.02,-0.003 0.04,-0.005 0.061,-0.005c0.08,0 0.158,0.025 0.223,0.073c0.189,0.141 0.304,0.425 0.386,0.952c0.071,0.465 0.11,1.072 -0.108,1.325c-0.106,0.093 -0.635,0.497 -1.731,0.665c-0.307,0.047 -0.607,0.071 -0.89,0.071" style="fill:#fff;fill-rule:nonzero;"/><path d="M123.192,6.548c-0.123,0 -0.237,0.018 -0.511,0.061c-1.389,0.212 -2.608,0.871 -3.43,1.853c-0.906,1.083 -1.264,2.446 -1.034,3.942c0.32,2.087 1.831,3.384 3.943,3.384c0.303,0 0.621,-0.025 0.948,-0.075c1.191,-0.183 1.793,-0.643 1.858,-0.694c0.037,-0.03 0.07,-0.062 0.1,-0.097c0.103,-0.119 0.376,-0.437 0.194,-1.625c-0.1,-0.644 -0.254,-0.99 -0.533,-1.197c-0.13,-0.096 -0.287,-0.147 -0.447,-0.147c-0.041,0 -0.081,0.003 -0.122,0.01c-0.163,0.026 -0.271,0.097 -0.357,0.152c-0.137,0.089 -0.458,0.297 -0.977,0.376c-0.118,0.019 -0.231,0.028 -0.333,0.028c-0.389,0 -0.764,-0.097 -0.871,-0.799c-0.152,-0.987 0.23,-1.395 0.53,-1.615c0.301,-0.222 0.713,-0.373 1.225,-0.452l0.115,-0.018c0.152,-0.024 0.294,-0.095 0.404,-0.202c0.297,-0.288 0.381,-0.868 0.249,-1.725c-0.064,-0.416 -0.182,-0.868 -0.568,-1.072c-0.089,-0.046 -0.185,-0.075 -0.284,-0.084c-0.022,-0.001 -0.077,-0.004 -0.099,-0.004m0,0.75c0.012,0 0.022,0.001 0.033,0.002c0.07,0.037 0.135,0.254 0.177,0.522c0.065,0.427 0.069,0.977 -0.03,1.073l-0.11,0.017c-0.601,0.092 -2.755,0.504 -2.383,2.922c0.121,0.794 0.584,1.435 1.612,1.435c0.139,0 0.287,-0.011 0.447,-0.035c0.837,-0.129 1.295,-0.523 1.342,-0.531c0.11,0.081 0.187,0.376 0.239,0.708c0.065,0.427 0.074,0.911 -0.021,1.023c0,0 -0.476,0.381 -1.504,0.538c-0.296,0.045 -0.573,0.066 -0.834,0.066c-1.995,0 -2.974,-1.265 -3.201,-2.747c-0.415,-2.703 1.449,-4.575 3.837,-4.941c0.239,-0.037 0.333,-0.052 0.396,-0.052" style="fill:#231f20;fill-rule:nonzero;"/><path d="M127.565,8.776c-0.161,0.104 -0.308,0.247 -0.422,0.42c-0.184,0.276 -0.376,0.763 -0.245,1.503c0.056,0.314 0.305,1.339 1.172,1.339c0.076,0 0.157,-0.007 0.242,-0.023c0.575,-0.102 1.116,-0.628 0.908,-1.797c-0.116,-0.648 -0.404,-0.977 -0.856,-0.977c-0.067,0 -0.126,0.007 -0.171,0.014l-0.125,0.023c-0.022,0.004 -0.044,0.006 -0.066,0.006c-0.116,0 -0.227,-0.054 -0.299,-0.149c-0.084,-0.111 -0.122,-0.272 -0.138,-0.359m0.368,5.64c-1.842,0 -3.206,-1.234 -3.56,-3.219c-0.372,-2.087 0.781,-4.582 3.649,-5.093c0.015,-0.002 0.45,-0.06 0.732,-0.06c0.201,0 0.322,0.027 0.42,0.094c0.057,0.042 0.167,0.123 0.226,0.458c0.019,0.102 0.032,0.219 0.042,0.327c0.655,0.159 1.949,0.723 2.301,2.701c0.188,1.053 0.028,2.101 -0.453,2.949c-0.541,0.956 -1.428,1.568 -2.563,1.77c-0.27,0.048 -0.537,0.073 -0.794,0.073" style="fill:#fff;fill-rule:nonzero;"/><path d="M128.07,11.662c-0.59,0 -0.772,-0.857 -0.802,-1.029c-0.087,-0.485 -0.024,-0.906 0.179,-1.22c0.144,0.156 0.345,0.245 0.555,0.245c0.044,0 0.088,-0.004 0.131,-0.012l0.126,-0.022c0.027,-0.005 0.063,-0.01 0.105,-0.01c0.11,0 0.367,0 0.487,0.67c0.135,0.76 -0.091,1.27 -0.605,1.36c-0.062,0.012 -0.121,0.018 -0.176,0.018m0.684,-5.995c-0.304,0 -0.721,0.056 -0.767,0.062c-3.139,0.559 -4.387,3.266 -3.983,5.533c0.382,2.143 1.924,3.528 3.929,3.528c0.279,0 0.568,-0.026 0.86,-0.078c1.231,-0.22 2.234,-0.914 2.823,-1.955c0.524,-0.924 0.7,-2.061 0.496,-3.2c-0.334,-1.875 -1.496,-2.664 -2.329,-2.942c-0.004,-0.028 -0.008,-0.057 -0.013,-0.085c-0.076,-0.432 -0.245,-0.599 -0.365,-0.688c-0.224,-0.156 -0.453,-0.175 -0.651,-0.175m-0.684,6.745c0.097,0 0.199,-0.01 0.308,-0.028c0.74,-0.132 1.461,-0.829 1.211,-2.232c-0.197,-1.1 -0.821,-1.288 -1.225,-1.288c-0.093,0 -0.174,0.01 -0.236,0.022l-0.126,0.022c-0.021,-0.028 -0.051,-0.104 -0.068,-0.199c-0.031,-0.173 -0.038,-0.399 -0.034,-0.465c-0.756,0.135 -1.64,1.008 -1.371,2.52c0.026,0.145 0.294,1.648 1.541,1.648m0.684,-5.995c0.098,0 0.176,0.008 0.207,0.029c0.018,0.014 0.051,0.105 0.07,0.215c0.037,0.205 0.053,0.479 0.054,0.575c0.004,-0.001 0.007,-0.001 0.012,-0.001c0.222,0 1.89,0.28 2.277,2.453c0.335,1.874 -0.524,3.896 -2.713,4.286c-0.252,0.044 -0.495,0.066 -0.728,0.066c-1.715,0 -2.882,-1.177 -3.191,-2.909c-0.342,-1.922 0.732,-4.193 3.346,-4.658c0,0 0.404,-0.056 0.666,-0.056" style="fill:#231f20;fill-rule:nonzero;"/><path d="M133.11,13.517c-0.18,0 -0.388,-0.161 -0.422,-0.338c-0.017,-0.583 -0.208,-1.585 -0.393,-2.497c-0.137,-0.674 -0.292,-1.387 -0.434,-2.043c-0.123,-0.565 -0.236,-1.09 -0.322,-1.511c-0.202,-0.995 -0.185,-1.129 -0.083,-1.283c0.243,-0.368 0.935,-0.759 1.575,-0.89c0.094,-0.018 0.202,-0.03 0.291,-0.03c0.387,0 0.476,0.233 0.497,0.333c0.012,0.113 0.049,0.376 0.095,0.654c0.368,-0.464 0.985,-1.026 1.892,-1.21c0.025,-0.005 0.05,-0.008 0.075,-0.008c0.103,0 0.202,0.042 0.274,0.119c0.04,0.043 0.244,0.28 0.34,0.753c0.227,1.116 0.022,1.628 -0.021,1.72c-0.063,0.131 -0.195,0.213 -0.339,0.213c-0.014,0 -0.029,-0.001 -0.044,-0.003c-0.038,0.002 -0.127,0.011 -0.129,0.011c-1.315,0.271 -1.384,1.493 -1.384,1.505l0.275,1.329c0.413,2.036 0.404,2.051 0.29,2.222c-0.415,0.598 -1.542,0.866 -1.877,0.934c-0.025,0.005 -0.131,0.02 -0.156,0.02" style="fill:#fff;fill-rule:nonzero;"/><path d="M135.881,4.319c-0.05,0 -0.1,0.005 -0.15,0.015c-0.65,0.132 -1.167,0.437 -1.563,0.778c-0.057,-0.177 -0.249,-0.562 -0.846,-0.562c-0.115,0 -0.244,0.013 -0.363,0.037c-0.63,0.128 -1.479,0.541 -1.816,1.051c-0.199,0.301 -0.171,0.582 0.029,1.565c0.086,0.422 0.2,0.948 0.322,1.515c0.142,0.656 0.296,1.367 0.433,2.039c0.182,0.895 0.369,1.876 0.379,2.367c0.001,0.042 0.006,0.085 0.014,0.127c0.073,0.377 0.398,0.64 0.79,0.64c0.067,0 0.149,-0.009 0.23,-0.026c0.475,-0.097 1.63,-0.395 2.106,-1.081c0.219,-0.329 0.21,-0.369 -0.22,-2.49l-0.268,-1.315c0.029,-0.189 0.194,-0.903 1.081,-1.102c0.017,-0.001 0.038,-0.003 0.056,-0.004c0.014,0.001 0.027,0.002 0.04,0.002c0.287,0 0.552,-0.165 0.678,-0.429c0.073,-0.154 0.294,-0.753 0.049,-1.956c-0.112,-0.557 -0.36,-0.856 -0.433,-0.934c-0.143,-0.153 -0.342,-0.237 -0.548,-0.237m0,0.75c0,0 0.167,0.179 0.247,0.571c0.213,1.051 0.007,1.485 0.007,1.485c-0.007,-0.001 -0.018,-0.002 -0.03,-0.002c-0.066,0 -0.18,0.011 -0.18,0.011c-1.6,0.327 -1.739,1.808 -1.72,1.903l0.28,1.38c0.182,0.894 0.383,1.882 0.346,1.939c-0.304,0.437 -1.232,0.692 -1.64,0.775c-0.029,0.004 -0.058,0.01 -0.081,0.01c-0.028,0 -0.049,-0.008 -0.054,-0.033c-0.011,-0.536 -0.187,-1.48 -0.394,-2.5c-0.255,-1.255 -0.57,-2.644 -0.755,-3.555c-0.115,-0.564 -0.176,-0.944 -0.138,-1.001c0.174,-0.264 0.773,-0.614 1.338,-0.729c0.068,-0.014 0.149,-0.023 0.215,-0.023c0.071,0 0.125,0.01 0.13,0.035c0.013,0.144 0.103,0.747 0.186,1.154c0.006,0.03 0.072,0.354 0.104,0.354l0.001,0c0.015,-0.003 0.031,-0.005 0.056,-0.044c0,0 0.624,-1.433 2.082,-1.73" style="fill:#231f20;fill-rule:nonzero;"/><path d="M137.739,8.811c-0.101,0 -0.154,-0.008 -0.154,-0.008c-0.154,-0.022 -0.284,-0.138 -0.318,-0.291c-0.723,-3.277 -2.048,-6.796 -2.061,-6.831c-0.042,-0.111 -0.029,-0.235 0.035,-0.335c0.053,-0.083 0.214,-0.335 1.367,-0.626c0.314,-0.07 0.614,-0.105 0.877,-0.105c0.572,0 0.864,0.159 0.87,0.473l0.003,0.133c0.017,1.009 0.06,1.674 0.126,1.975c0.093,0.42 0.414,2.459 0.627,3.808l0.167,1.051c0.024,0.151 -0.044,0.3 -0.173,0.38c-0.035,0.022 -0.354,0.215 -0.734,0.299c-0.285,0.063 -0.502,0.077 -0.632,0.077m1.054,3.138c-0.673,0 -1.266,-0.478 -1.411,-1.135c-0.172,-0.779 0.322,-1.553 1.101,-1.726c0.103,-0.022 0.208,-0.034 0.313,-0.034c0.673,0 1.267,0.478 1.412,1.136c0.171,0.778 -0.323,1.552 -1.101,1.725c-0.103,0.022 -0.209,0.034 -0.314,0.034" style="fill:#fff;fill-rule:nonzero;"/><path d="M137.485,0.238c-0.294,0 -0.613,0.038 -0.948,0.112c-1.318,0.332 -1.517,0.644 -1.612,0.793c-0.128,0.199 -0.154,0.448 -0.07,0.669c0.013,0.035 1.328,3.53 2.046,6.78c0.066,0.301 0.331,0.534 0.636,0.582c0,0 0.003,0.001 0.008,0.001c-0.45,0.425 -0.673,1.071 -0.53,1.718c0.183,0.828 0.93,1.43 1.778,1.43c0.132,0 0.265,-0.015 0.395,-0.044c0.98,-0.217 1.602,-1.19 1.386,-2.171c-0.145,-0.657 -0.646,-1.172 -1.27,-1.356c0.257,-0.16 0.393,-0.46 0.343,-0.759c-0.027,-0.163 -0.089,-0.555 -0.166,-1.048c-0.283,-1.792 -0.543,-3.433 -0.631,-3.831c-0.042,-0.19 -0.096,-0.675 -0.117,-1.9c-0.002,-0.086 -0.003,-0.143 -0.004,-0.162c-0.005,-0.286 -0.174,-0.814 -1.244,-0.814m1.311,9.189c0.492,0 0.935,0.342 1.045,0.843c0.128,0.578 -0.237,1.15 -0.815,1.278c-0.079,0.016 -0.157,0.025 -0.233,0.025c-0.492,0 -0.935,-0.341 -1.045,-0.841c-0.128,-0.578 0.237,-1.15 0.816,-1.278c0.077,-0.018 0.155,-0.027 0.232,-0.027m-1.311,-8.439c0.313,0 0.494,0.058 0.495,0.106c0.005,0.098 0.01,1.604 0.138,2.182c0.124,0.563 0.69,4.239 0.789,4.84c0,0 -0.288,0.179 -0.616,0.251c-0.257,0.057 -0.445,0.067 -0.552,0.067c-0.07,0 -0.106,-0.004 -0.106,-0.004c-0.738,-3.343 -2.076,-6.882 -2.076,-6.882c0.134,-0.21 1.142,-0.465 1.142,-0.465c0.311,-0.07 0.578,-0.095 0.786,-0.095" style="fill:#231f20;fill-rule:nonzero;"/></g></svg>