<?xml version="1.0" encoding="UTF-8" standalone="no"?><!DOCTYPE svg PUBLIC "-//W3C//DTD SVG 1.1//EN" "http://www.w3.org/Graphics/SVG/1.1/DTD/svg11.dtd"><svg width="100%" height="100%" viewBox="0 0 145 24" version="1.1" xmlns="http://www.w3.org/2000/svg" xmlns:xlink="http://www.w3.org/1999/xlink" xml:space="preserve" xmlns:serif="http://www.serif.com/" style="fill-rule:evenodd;clip-rule:evenodd;stroke-linejoin:round;stroke-miterlimit:2;"><g><path d="M8.232,14.086c0.146,-0.243 0.227,-0.521 0.251,-0.801c0.025,-0.281 -0.009,-0.579 -0.099,-0.879c-0.183,-0.617 -0.523,-1.024 -1.022,-1.238c-0.5,-0.214 -1.162,-0.18 -1.995,0.069l-1.318,0.393l1.195,4.002l1.283,-0.383c0.418,-0.124 0.765,-0.301 1.052,-0.496c0.286,-0.194 0.507,-0.424 0.653,-0.667m5.89,4.707l0.295,0.983l-0.235,0.07l-1.033,0.308l-0.983,0.294c-0.201,0.06 -0.377,0.076 -0.536,0.033c-0.158,-0.044 -0.288,-0.114 -0.433,-0.234l-3.689,-3.112c-0.144,-0.12 -0.269,-0.174 -0.407,-0.206c-0.136,-0.031 -0.312,-0.015 -0.529,0.05l-0.851,0.253l0.916,3.068c0.209,-0.026 0.404,-0.047 0.525,-0.066c0.122,-0.018 0.216,-0.009 0.265,-0.024c0.05,-0.015 0.088,-0.009 0.106,-0.014c0.303,-0.018 0.486,0.109 0.571,0.393l0.293,0.984l-1.267,0.378l-2.235,0.667l-1.267,0.378l-0.293,-0.983c-0.084,-0.284 0,-0.49 0.262,-0.641c0.017,-0.006 0.045,-0.033 0.095,-0.047c0.046,-0.032 0.124,-0.073 0.236,-0.125c0.112,-0.052 0.284,-0.14 0.475,-0.233l-2.612,-8.754c-0.21,0.027 -0.404,0.048 -0.526,0.067c-0.122,0.018 -0.216,0.01 -0.265,0.024c-0.05,0.015 -0.088,0.009 -0.106,0.013c-0.303,0.019 -0.486,-0.108 -0.57,-0.392l-0.294,-0.984l1.266,-0.378l3.552,-1.06c0.818,-0.244 1.559,-0.375 2.193,-0.382c0.632,-0.007 1.191,0.098 1.648,0.289c0.456,0.191 0.87,0.485 1.161,0.851c0.314,0.38 0.531,0.805 0.686,1.321c0.12,0.4 0.167,0.804 0.16,1.206c-0.008,0.402 -0.096,0.773 -0.224,1.138c-0.127,0.365 -0.336,0.7 -0.604,1.015c-0.269,0.317 -0.597,0.615 -0.974,0.873c0.332,0.082 0.651,0.241 0.942,0.481l2.737,2.233c0.21,-0.026 0.403,-0.047 0.542,-0.07c0.138,-0.023 0.231,-0.015 0.298,-0.035c0.067,-0.02 0.122,-0.018 0.139,-0.023c0.302,-0.018 0.487,0.109 0.57,0.393" style="fill:#fff684;fill-rule:nonzero;"/><path d="M16.151,12.202c-0.257,0.419 -0.359,0.963 -0.312,1.613l3.926,-0.939c-0.064,-0.271 -0.176,-0.512 -0.3,-0.733c-0.125,-0.221 -0.292,-0.396 -0.489,-0.545c-0.196,-0.15 -0.415,-0.241 -0.676,-0.286c-0.261,-0.045 -0.547,-0.047 -0.852,0.025c-0.61,0.146 -1.039,0.446 -1.297,0.865m2.473,-2.452c0.497,0.06 0.952,0.237 1.371,0.495c0.42,0.257 0.769,0.603 1.073,1.049c0.304,0.446 0.535,0.963 0.686,1.59c0.036,0.152 0.055,0.308 0.063,0.414c0.007,0.106 0.011,0.194 -0.012,0.253c-0.017,0.076 -0.06,0.122 -0.12,0.172c-0.059,0.05 -0.127,0.066 -0.228,0.09l-5.365,1.284c0.283,0.88 0.673,1.466 1.198,1.788c0.524,0.322 1.114,0.396 1.807,0.23c0.339,-0.081 0.618,-0.184 0.835,-0.325c0.234,-0.145 0.416,-0.278 0.578,-0.424c0.162,-0.146 0.315,-0.255 0.431,-0.372c0.114,-0.117 0.225,-0.179 0.361,-0.211c0.083,-0.02 0.173,-0.024 0.248,-0.006c0.077,0.017 0.119,0.043 0.185,0.098l0.792,0.616c-0.173,0.328 -0.369,0.626 -0.612,0.88c-0.243,0.255 -0.512,0.48 -0.792,0.655c-0.298,0.178 -0.603,0.323 -0.912,0.451c-0.31,0.127 -0.627,0.221 -0.932,0.294c-0.609,0.146 -1.171,0.19 -1.744,0.113c-0.572,-0.078 -1.085,-0.277 -1.569,-0.573c-0.482,-0.296 -0.903,-0.714 -1.261,-1.237c-0.358,-0.522 -0.621,-1.175 -0.804,-1.936c-0.141,-0.593 -0.17,-1.158 -0.108,-1.728c0.06,-0.569 0.239,-1.095 0.502,-1.569c0.261,-0.474 0.627,-0.884 1.084,-1.225c0.455,-0.341 1.036,-0.606 1.678,-0.76c0.541,-0.13 1.071,-0.166 1.567,-0.106" style="fill:#fff684;fill-rule:nonzero;"/><path d="M30.611,14.906c-0.187,0.32 -0.379,0.605 -0.615,0.847c-0.236,0.241 -0.499,0.434 -0.767,0.61c-0.269,0.159 -0.563,0.288 -0.861,0.399c-0.297,0.111 -0.618,0.191 -0.926,0.251c-0.546,0.107 -1.058,0.119 -1.575,0.007c-0.519,-0.111 -0.985,-0.322 -1.42,-0.644c-0.436,-0.323 -0.815,-0.727 -1.131,-1.25c-0.314,-0.524 -0.544,-1.153 -0.684,-1.869c-0.126,-0.649 -0.155,-1.246 -0.073,-1.829c0.08,-0.583 0.26,-1.114 0.538,-1.594c0.28,-0.48 0.663,-0.874 1.149,-1.199c0.485,-0.326 1.077,-0.565 1.76,-0.699c0.717,-0.139 1.679,-0.115 2.889,0.092l0.509,2.701l-0.067,0.013l-0.205,0.04l-0.701,0.137c-0.221,0.043 -0.365,-0.053 -0.456,-0.248c-0.044,-0.133 -0.174,-0.533 -0.376,-1.202c-0.467,-0.033 -0.87,-0.008 -1.16,0.049c-0.376,0.073 -0.687,0.205 -0.933,0.395c-0.247,0.19 -0.435,0.404 -0.573,0.696c-0.137,0.294 -0.231,0.63 -0.246,1.006c-0.016,0.375 0.009,0.778 0.097,1.222c0.09,0.46 0.223,0.877 0.396,1.215c0.172,0.339 0.369,0.62 0.607,0.839c0.234,0.202 0.494,0.347 0.793,0.43c0.297,0.066 0.6,0.078 0.942,0.011c0.341,-0.067 0.608,-0.154 0.795,-0.28c0.19,-0.125 0.36,-0.247 0.477,-0.376c0.116,-0.129 0.236,-0.241 0.322,-0.346c0.086,-0.106 0.182,-0.16 0.318,-0.187c0.17,-0.033 0.318,-0.008 0.429,0.112l0.748,0.651Z" style="fill:#fff684;fill-rule:nonzero;"/><path d="M37.032,12.955c0.268,-0.552 0.348,-1.303 0.203,-2.25c-0.144,-0.945 -0.443,-1.639 -0.864,-2.086c-0.42,-0.446 -0.993,-0.623 -1.732,-0.511c-0.74,0.114 -1.252,0.455 -1.537,1.009c-0.285,0.554 -0.361,1.323 -0.217,2.269c0.144,0.946 0.441,1.623 0.878,2.067c0.438,0.444 1.025,0.601 1.765,0.488c0.738,-0.112 1.235,-0.435 1.504,-0.986m-0.8,-6.41c0.565,0.126 1.073,0.348 1.512,0.686c0.439,0.338 0.784,0.76 1.077,1.296c0.293,0.537 0.491,1.141 0.596,1.829c0.107,0.705 0.098,1.34 -0.021,1.939c-0.12,0.599 -0.322,1.123 -0.64,1.577c-0.318,0.453 -0.737,0.833 -1.238,1.121c-0.502,0.288 -1.088,0.483 -1.742,0.583c-0.654,0.099 -1.289,0.09 -1.853,-0.035c-0.566,-0.126 -1.077,-0.364 -1.516,-0.702c-0.438,-0.338 -0.821,-0.773 -1.114,-1.309c-0.294,-0.536 -0.491,-1.14 -0.599,-1.846c-0.104,-0.687 -0.095,-1.322 0.025,-1.922c0.12,-0.599 0.359,-1.111 0.676,-1.564c0.319,-0.453 0.74,-0.817 1.241,-1.104c0.501,-0.288 1.103,-0.503 1.756,-0.602c0.654,-0.1 1.275,-0.071 1.84,0.053" style="fill:#fff684;fill-rule:nonzero;"/><path d="M46.739,5.225l-0.098,1.639c-0.005,0.106 -0.032,0.178 -0.079,0.219c-0.05,0.04 -0.132,0.084 -0.235,0.096c-0.087,0.009 -0.192,0.004 -0.352,-0.014c-0.159,-0.017 -0.37,-0.028 -0.612,-0.002c-0.45,0.051 -0.816,0.214 -1.102,0.491c-0.284,0.277 -0.501,0.685 -0.673,1.177l0.423,3.803c0.759,0.056 0.742,0.058 0.882,0.06c0.302,0.036 0.459,0.194 0.492,0.488l0.114,1.02l-1.296,0.144l-2.145,0.239l-1.296,0.144l-0.113,-1.02c-0.033,-0.294 0.086,-0.482 0.372,-0.584c0.136,-0.032 0.119,-0.031 0.847,-0.252l-0.607,-5.445c-0.757,-0.056 -0.741,-0.058 -0.881,-0.059c-0.301,-0.037 -0.458,-0.194 -0.492,-0.488l-0.113,-1.02l1.296,-0.145l1.262,-0.14c0.224,-0.025 0.367,-0.006 0.463,0.071c0.096,0.077 0.163,0.209 0.219,0.395l0.257,1.057c0.25,-0.588 0.566,-1.061 0.962,-1.42c0.399,-0.359 0.848,-0.567 1.384,-0.626c0.432,-0.049 0.805,-0.002 1.121,0.172" style="fill:#fff684;fill-rule:nonzero;"/><path d="M54.683,4.595l-0.154,1.635c-0.01,0.105 -0.039,0.177 -0.088,0.216c-0.05,0.039 -0.134,0.08 -0.238,0.088c-0.087,0.007 -0.192,-0.002 -0.351,-0.025c-0.16,-0.023 -0.37,-0.042 -0.613,-0.023c-0.452,0.034 -0.824,0.185 -1.118,0.452c-0.293,0.266 -0.525,0.668 -0.713,1.154l0.292,3.817c0.755,0.082 0.738,0.084 0.879,0.091c0.3,0.047 0.452,0.21 0.474,0.504l0.078,1.024l-1.302,0.1l-2.15,0.165l-1.302,0.099l-0.079,-1.024c-0.022,-0.295 0.104,-0.479 0.393,-0.571c0.138,-0.028 0.12,-0.027 0.856,-0.223l-0.419,-5.466c-0.757,-0.082 -0.738,-0.083 -0.879,-0.09c-0.3,-0.047 -0.452,-0.209 -0.475,-0.505l-0.077,-1.023l1.3,-0.1l1.267,-0.097c0.226,-0.017 0.367,0.007 0.461,0.087c0.093,0.08 0.155,0.215 0.206,0.403l0.221,1.065c0.269,-0.579 0.6,-1.04 1.01,-1.386c0.41,-0.346 0.867,-0.537 1.405,-0.578c0.434,-0.034 0.804,0.025 1.116,0.211" style="fill:#fff684;fill-rule:nonzero;"/><path d="M58.502,6.212c-0.335,0.362 -0.541,0.875 -0.619,1.522l4.035,-0.162c-0.012,-0.277 -0.075,-0.536 -0.154,-0.777c-0.079,-0.24 -0.209,-0.444 -0.373,-0.629c-0.164,-0.185 -0.361,-0.317 -0.61,-0.411c-0.247,-0.095 -0.527,-0.153 -0.841,-0.14c-0.626,0.025 -1.105,0.235 -1.438,0.597m2.9,-1.927c0.476,0.155 0.887,0.417 1.249,0.75c0.363,0.334 0.639,0.741 0.851,1.238c0.211,0.496 0.339,1.048 0.364,1.692c0.006,0.157 -0.006,0.313 -0.018,0.419c-0.014,0.104 -0.028,0.192 -0.06,0.245c-0.032,0.072 -0.083,0.108 -0.151,0.146c-0.069,0.038 -0.137,0.041 -0.242,0.044l-5.511,0.222c0.106,0.919 0.376,1.569 0.828,1.986c0.452,0.418 1.017,0.604 1.729,0.576c0.348,-0.014 0.642,-0.061 0.882,-0.158c0.258,-0.097 0.463,-0.192 0.65,-0.304c0.186,-0.112 0.357,-0.189 0.494,-0.282c0.136,-0.092 0.256,-0.131 0.394,-0.137c0.087,-0.004 0.175,0.011 0.245,0.042c0.072,0.032 0.108,0.066 0.164,0.133l0.657,0.757c-0.233,0.288 -0.484,0.542 -0.772,0.745c-0.287,0.203 -0.594,0.373 -0.903,0.489c-0.326,0.117 -0.654,0.2 -0.982,0.266c-0.329,0.066 -0.659,0.096 -0.97,0.109c-0.627,0.025 -1.187,-0.04 -1.735,-0.227c-0.546,-0.187 -1.011,-0.482 -1.426,-0.866c-0.416,-0.384 -0.75,-0.875 -0.999,-1.457c-0.25,-0.583 -0.383,-1.274 -0.413,-2.056c-0.025,-0.609 0.056,-1.17 0.226,-1.716c0.17,-0.546 0.446,-1.028 0.796,-1.443c0.349,-0.414 0.789,-0.745 1.301,-0.992c0.513,-0.247 1.134,-0.394 1.794,-0.42c0.556,-0.022 1.082,0.044 1.558,0.199" style="fill:#fff684;fill-rule:nonzero;"/><path d="M71.765,6c-0.354,0.341 -0.59,0.842 -0.704,1.483l4.033,0.07c0.005,-0.279 -0.043,-0.54 -0.107,-0.785c-0.067,-0.245 -0.185,-0.456 -0.337,-0.649c-0.155,-0.194 -0.342,-0.336 -0.584,-0.445c-0.242,-0.108 -0.519,-0.183 -0.831,-0.188c-0.627,-0.011 -1.116,0.172 -1.47,0.514m3.004,-1.757c0.466,0.182 0.86,0.467 1.203,0.82c0.342,0.354 0.596,0.776 0.778,1.283c0.183,0.508 0.277,1.066 0.266,1.709c-0.003,0.156 -0.023,0.313 -0.042,0.417c-0.02,0.104 -0.038,0.191 -0.073,0.242c-0.036,0.069 -0.089,0.103 -0.159,0.137c-0.071,0.033 -0.14,0.032 -0.245,0.03l-5.51,-0.094c0.052,0.922 0.285,1.587 0.712,2.029c0.426,0.442 0.98,0.661 1.692,0.673c0.349,0.006 0.645,-0.024 0.89,-0.107c0.261,-0.082 0.471,-0.166 0.665,-0.266c0.193,-0.102 0.369,-0.168 0.508,-0.253c0.142,-0.084 0.264,-0.117 0.403,-0.114c0.087,0.001 0.173,0.02 0.242,0.056c0.069,0.036 0.103,0.071 0.154,0.142l0.613,0.793c-0.247,0.274 -0.513,0.513 -0.812,0.699c-0.299,0.186 -0.614,0.337 -0.93,0.436c-0.331,0.099 -0.664,0.163 -0.995,0.209c-0.331,0.046 -0.661,0.059 -0.974,0.053c-0.625,-0.011 -1.181,-0.108 -1.716,-0.325c-0.535,-0.218 -0.983,-0.539 -1.375,-0.946c-0.393,-0.407 -0.697,-0.916 -0.913,-1.511c-0.217,-0.595 -0.309,-1.292 -0.295,-2.075c0.011,-0.608 0.124,-1.162 0.324,-1.698c0.201,-0.537 0.505,-1 0.876,-1.394c0.372,-0.394 0.83,-0.699 1.355,-0.916c0.526,-0.217 1.155,-0.328 1.815,-0.316c0.557,0.009 1.076,0.105 1.543,0.287" style="fill:#fff684;fill-rule:nonzero;"/><path d="M82.433,12.33l-0.049,1.025l-1.321,-0.063l-2.137,-0.102l-1.319,-0.063l0.049,-1.025c0.013,-0.295 0.161,-0.462 0.46,-0.518c0.016,0.001 0.051,0.003 0.104,-0.012c0.054,-0.015 0.141,-0.028 0.264,-0.04c0.122,-0.012 0.315,-0.037 0.524,-0.062l0.452,-9.466c-0.206,-0.045 -0.395,-0.089 -0.516,-0.112c-0.12,-0.023 -0.206,-0.062 -0.258,-0.065c-0.053,-0.002 -0.086,-0.021 -0.104,-0.022c-0.292,-0.083 -0.422,-0.264 -0.408,-0.559l0.049,-1.025l1.32,0.063l2.137,0.102l-0.534,11.186c0.206,0.045 0.395,0.089 0.516,0.112c0.121,0.023 0.207,0.045 0.258,0.065c0.052,0.019 0.087,0.021 0.104,0.022c0.292,0.083 0.423,0.264 0.409,0.559" style="fill:#fff684;fill-rule:nonzero;"/><path d="M102.36,14.216l-0.112,1.02l-1.297,-0.143l-2.144,-0.236l0.621,-5.636c0.065,-0.57 -0.008,-1.016 -0.221,-1.32c-0.209,-0.32 -0.556,-0.498 -1.04,-0.552c-0.226,-0.025 -0.439,0.004 -0.637,0.052c-0.197,0.048 -0.365,0.135 -0.518,0.258c-0.154,0.123 -0.278,0.302 -0.387,0.5c-0.11,0.198 -0.173,0.453 -0.204,0.73l-0.432,3.924c0.221,0.06 0.372,0.111 0.491,0.142c0.119,0.031 0.204,0.057 0.254,0.08c0.05,0.023 0.084,0.027 0.101,0.029c0.287,0.102 0.406,0.29 0.374,0.584l-0.113,1.02l-1.297,-0.143l-2.143,-0.237l0.622,-5.635c0.064,-0.589 -0.009,-1.034 -0.221,-1.337c-0.211,-0.304 -0.542,-0.48 -1.009,-0.532c-0.31,-0.034 -0.594,0.005 -0.888,0.13c-0.294,0.125 -0.561,0.323 -0.815,0.557l-0.526,4.771c0.204,0.058 0.372,0.112 0.492,0.142c0.119,0.031 0.203,0.058 0.253,0.081c0.051,0.022 0.085,0.026 0.102,0.028c0.287,0.102 0.406,0.29 0.374,0.584l-0.113,1.02l-1.296,-0.143l-2.144,-0.237l-1.296,-0.143l0.112,-1.02c0.033,-0.294 0.189,-0.451 0.491,-0.488c0.018,0.002 0.054,-0.012 0.106,-0.006c0.052,0.006 0.143,-0.019 0.265,-0.023c0.123,-0.004 0.299,-0.019 0.511,-0.031l0.601,-5.445c-0.204,-0.058 -0.372,-0.112 -0.492,-0.142c-0.119,-0.031 -0.202,-0.075 -0.253,-0.08c-0.052,-0.006 -0.085,-0.028 -0.102,-0.029c-0.287,-0.102 -0.423,-0.292 -0.391,-0.586l0.113,-1.02l2.628,0.29c0.275,0.031 0.434,0.188 0.491,0.457l0.066,0.672c0.175,-0.156 0.349,-0.311 0.538,-0.431c0.188,-0.119 0.391,-0.219 0.592,-0.302c0.203,-0.082 0.419,-0.146 0.652,-0.191c0.232,-0.044 0.476,-0.034 0.735,-0.005c0.554,0.061 1.005,0.251 1.334,0.602c0.328,0.351 0.562,0.779 0.679,1.299c0.171,-0.278 0.372,-0.518 0.602,-0.703c0.231,-0.185 0.473,-0.315 0.73,-0.427c0.257,-0.111 0.544,-0.167 0.827,-0.206c0.285,-0.039 0.582,-0.041 0.859,-0.01c0.485,0.053 0.909,0.17 1.272,0.367c0.363,0.198 0.668,0.442 0.895,0.765c0.228,0.322 0.379,0.689 0.472,1.119c0.092,0.43 0.108,0.922 0.049,1.457l-0.434,3.925c0.204,0.057 0.373,0.111 0.493,0.142c0.119,0.03 0.202,0.074 0.252,0.08c0.053,0.006 0.085,0.027 0.103,0.029c0.286,0.101 0.405,0.289 0.373,0.583" style="fill:#fff684;fill-rule:nonzero;"/><path d="M113.243,16.094l-0.17,1.012l-1.286,-0.215l-1.304,-0.218c-0.275,-0.046 -0.424,-0.212 -0.466,-0.484l-0.036,-0.729c-0.22,0.157 -0.438,0.297 -0.653,0.42c-0.215,0.123 -0.439,0.208 -0.681,0.274c-0.24,0.065 -0.495,0.111 -0.763,0.136c-0.265,0.009 -0.529,0 -0.821,-0.049c-0.48,-0.08 -0.894,-0.237 -1.247,-0.455c-0.334,-0.214 -0.599,-0.524 -0.807,-0.859c-0.209,-0.334 -0.323,-0.706 -0.391,-1.14c-0.052,-0.432 -0.046,-0.889 0.037,-1.387l0.652,-3.894c-0.714,-0.261 -0.714,-0.261 -0.849,-0.301c-0.279,-0.117 -0.389,-0.312 -0.34,-0.604l0.17,-1.011l1.304,0.218l2.109,0.353l-0.936,5.592c-0.088,0.531 -0.024,0.983 0.168,1.315c0.192,0.332 0.546,0.533 1.043,0.616c0.362,0.06 0.718,0.032 1.071,-0.068c0.351,-0.1 0.68,-0.274 1.02,-0.517l0.78,-4.666c-0.7,-0.24 -0.696,-0.258 -0.831,-0.298c-0.28,-0.117 -0.388,-0.312 -0.339,-0.603l0.169,-1.012l1.286,0.215l2.127,0.355l-1.189,7.103c0.715,0.26 0.698,0.257 0.833,0.297c0.28,0.118 0.389,0.312 0.34,0.604" style="fill:#fff684;fill-rule:nonzero;"/><path d="M124.16,18.41l-0.215,1.003l-1.293,-0.276l-2.091,-0.447l1.185,-5.544c0.112,-0.527 0.067,-0.981 -0.108,-1.321c-0.178,-0.34 -0.519,-0.573 -1.012,-0.678c-0.358,-0.077 -0.715,-0.065 -1.075,0.037c-0.359,0.101 -0.693,0.243 -1.042,0.47l-0.99,4.626c0.199,0.077 0.361,0.148 0.476,0.19c0.115,0.043 0.197,0.078 0.243,0.106c0.048,0.028 0.082,0.035 0.099,0.039c0.275,0.129 0.375,0.329 0.312,0.617l-0.213,1.004l-1.276,-0.273l-2.109,-0.45l-1.275,-0.272l0.214,-1.004c0.062,-0.289 0.234,-0.43 0.538,-0.436c0.018,0.003 0.055,-0.006 0.106,0.005c0.055,-0.006 0.143,-0.005 0.266,0.003c0.122,0.009 0.3,0.011 0.511,0.02l1.145,-5.356c-0.197,-0.078 -0.361,-0.148 -0.475,-0.19c-0.115,-0.043 -0.193,-0.096 -0.244,-0.106c-0.048,-0.028 -0.082,-0.035 -0.099,-0.039c-0.274,-0.13 -0.374,-0.329 -0.312,-0.618l0.214,-1.003l1.276,0.272l1.292,0.276c0.271,0.058 0.413,0.231 0.443,0.504l0.008,0.713c0.21,-0.151 0.413,-0.268 0.649,-0.377c0.22,-0.113 0.467,-0.185 0.71,-0.24c0.242,-0.055 0.485,-0.109 0.751,-0.106c0.266,0.003 0.545,0.028 0.835,0.09c0.476,0.101 0.887,0.26 1.225,0.511c0.341,0.232 0.579,0.532 0.772,0.876c0.177,0.34 0.288,0.737 0.336,1.174c0.049,0.437 0.005,0.89 -0.1,1.383l-0.824,3.86c0.197,0.078 0.376,0.152 0.492,0.194c0.115,0.043 0.193,0.095 0.244,0.106c0.051,0.011 0.081,0.035 0.098,0.039c0.275,0.129 0.375,0.328 0.313,0.618" style="fill:#fff684;fill-rule:nonzero;"/><path d="M132.076,14.642c-0.163,-0.347 -0.381,-0.618 -0.619,-0.805c-0.256,-0.191 -0.542,-0.337 -0.862,-0.419c-0.32,-0.082 -0.607,-0.085 -0.889,-0.031c-0.284,0.053 -0.55,0.182 -0.796,0.37c-0.229,0.192 -0.441,0.461 -0.638,0.805c-0.196,0.345 -0.339,0.757 -0.467,1.262c-0.131,0.505 -0.21,0.952 -0.216,1.327c-0.008,0.375 0.041,0.675 0.136,0.933c0.096,0.257 0.22,0.469 0.413,0.627c0.194,0.157 0.434,0.272 0.703,0.342c0.438,0.112 0.83,0.124 1.18,0.016c0.352,-0.107 0.701,-0.286 1.059,-0.553l0.996,-3.874Zm1.604,7.235l-1.178,-0.303l-1.281,-0.329c-0.135,-0.035 -0.227,-0.095 -0.31,-0.188c-0.084,-0.093 -0.112,-0.191 -0.111,-0.334l0.035,-0.834c-0.458,0.313 -0.923,0.516 -1.444,0.652c-0.519,0.135 -1.087,0.115 -1.694,-0.041c-0.472,-0.121 -0.871,-0.314 -1.206,-0.615c-0.336,-0.302 -0.6,-0.675 -0.79,-1.119c-0.191,-0.444 -0.289,-0.972 -0.302,-1.55c-0.009,-0.594 0.068,-1.239 0.249,-1.947c0.165,-0.639 0.401,-1.207 0.712,-1.719c0.311,-0.512 0.702,-0.915 1.125,-1.237c0.424,-0.321 0.89,-0.525 1.405,-0.644c0.515,-0.119 1.051,-0.107 1.624,0.04c0.488,0.126 0.887,0.319 1.185,0.557c0.298,0.238 0.553,0.501 0.754,0.84l0.739,-2.88c-0.21,-0.09 -0.352,-0.162 -0.466,-0.209c-0.113,-0.048 -0.188,-0.103 -0.24,-0.116c-0.05,-0.013 -0.079,-0.038 -0.097,-0.043c-0.268,-0.141 -0.359,-0.344 -0.286,-0.631l0.256,-0.993l1.263,0.325l2.088,0.537l-2.785,10.827c0.177,0.082 0.324,0.137 0.421,0.18c0.096,0.043 0.172,0.099 0.206,0.107c0.034,0.009 0.063,0.035 0.096,0.043c0.27,0.141 0.361,0.344 0.286,0.63l-0.254,0.994Z" style="fill:#fff684;fill-rule:nonzero;"/><path d="M140.72,21.626c0.477,-0.384 0.868,-1.03 1.142,-1.947c0.272,-0.917 0.297,-1.672 0.108,-2.254c-0.189,-0.583 -0.632,-0.987 -1.349,-1.2c-0.717,-0.213 -1.325,-0.122 -1.819,0.257c-0.494,0.379 -0.891,1.041 -1.163,1.959c-0.273,0.917 -0.293,1.655 -0.087,2.243c0.207,0.588 0.671,0.98 1.388,1.193c0.717,0.213 1.302,0.134 1.78,-0.251m2.007,-6.136c0.458,0.354 0.824,0.771 1.076,1.264c0.253,0.493 0.386,1.022 0.422,1.632c0.036,0.61 -0.042,1.24 -0.241,1.907c-0.202,0.683 -0.482,1.253 -0.845,1.744c-0.364,0.491 -0.77,0.878 -1.251,1.152c-0.481,0.275 -1.021,0.441 -1.597,0.487c-0.577,0.047 -1.189,-0.027 -1.823,-0.215c-0.634,-0.189 -1.204,-0.467 -1.662,-0.821c-0.456,-0.354 -0.817,-0.788 -1.07,-1.281c-0.252,-0.492 -0.414,-1.048 -0.451,-1.658c-0.037,-0.61 0.042,-1.24 0.247,-1.924c0.198,-0.667 0.476,-1.237 0.84,-1.728c0.363,-0.49 0.797,-0.851 1.279,-1.126c0.48,-0.274 1.014,-0.423 1.591,-0.47c0.577,-0.046 1.211,0.016 1.845,0.204c0.634,0.189 1.183,0.479 1.64,0.833" style="fill:#fff684;fill-rule:nonzero;"/></g></svg>