<?xml version="1.0" encoding="UTF-8" standalone="no"?><!DOCTYPE svg PUBLIC "-//W3C//DTD SVG 1.1//EN" "http://www.w3.org/Graphics/SVG/1.1/DTD/svg11.dtd"><svg width="100%" height="100%" viewBox="0 0 71 11" version="1.1" xmlns="http://www.w3.org/2000/svg" xmlns:xlink="http://www.w3.org/1999/xlink" xml:space="preserve" xmlns:serif="http://www.serif.com/" style="fill-rule:evenodd;clip-rule:evenodd;stroke-linejoin:round;stroke-miterlimit:2;"><g><path d="M0.127,3.3c0,-0.161 0.058,-0.3 0.173,-0.415c0.115,-0.115 0.254,-0.173 0.415,-0.173c0.165,0 0.305,0.058 0.421,0.173c0.115,0.115 0.173,0.254 0.173,0.415c0,0.165 -0.059,0.304 -0.176,0.418c-0.117,0.113 -0.257,0.17 -0.418,0.17c-0.161,0 -0.3,-0.058 -0.415,-0.173c-0.115,-0.115 -0.173,-0.254 -0.173,-0.415Zm0.467,1.71l0.236,0l0.325,3.897c0.029,0.362 0.044,0.588 0.044,0.676c0,0.216 -0.049,0.385 -0.146,0.505c-0.097,0.121 -0.212,0.182 -0.343,0.182c-0.129,0 -0.241,-0.061 -0.339,-0.182c-0.097,-0.12 -0.145,-0.289 -0.145,-0.505c0,-0.132 0.014,-0.358 0.044,-0.676l0.324,-3.897Z" style="fill:#662c91;fill-rule:nonzero;"/><path d="M4.632,4.223l0,1.567c0,0.586 0.013,0.97 0.041,1.152c0.027,0.181 0.101,0.316 0.222,0.404c0.121,0.088 0.348,0.132 0.682,0.132l0.247,0l0,0.252l-3.413,0l0,-0.252l0.198,0c0.319,0 0.539,-0.041 0.662,-0.121c0.123,-0.081 0.201,-0.207 0.234,-0.377c0.033,-0.17 0.049,-0.567 0.049,-1.19l0,-3.655c0,-0.594 -0.016,-0.977 -0.049,-1.149c-0.033,-0.172 -0.107,-0.291 -0.22,-0.357c-0.114,-0.066 -0.359,-0.099 -0.737,-0.099l-0.137,0l0,-0.253l0.934,-0.033c0.748,-0.026 1.33,-0.039 1.748,-0.039c0.77,0 1.363,0.061 1.778,0.182c0.416,0.121 0.757,0.335 1.023,0.643c0.265,0.308 0.398,0.696 0.398,1.165c0,0.407 -0.09,0.766 -0.272,1.078c-0.181,0.311 -0.441,0.547 -0.78,0.709c-0.339,0.161 -0.936,0.241 -1.789,0.241l-0.819,0Zm0,-0.274l0.533,0c0.428,0 0.775,-0.043 1.039,-0.13c0.263,-0.086 0.483,-0.266 0.659,-0.541c0.176,-0.275 0.264,-0.614 0.264,-1.017c0,-0.615 -0.151,-1.067 -0.453,-1.355c-0.303,-0.287 -0.793,-0.431 -1.471,-0.431c-0.249,0 -0.44,0.007 -0.571,0.022l0,3.452Z" style="fill:#662c91;fill-rule:nonzero;"/><path d="M8.46,5.471c0,-0.689 0.231,-1.265 0.693,-1.728c0.462,-0.464 1.03,-0.696 1.704,-0.696c0.678,0 1.248,0.233 1.709,0.698c0.462,0.466 0.693,1.041 0.693,1.726c0,0.759 -0.235,1.355 -0.704,1.789c-0.469,0.435 -1.035,0.652 -1.698,0.652c-0.663,0 -1.229,-0.221 -1.696,-0.663c-0.467,-0.441 -0.701,-1.034 -0.701,-1.778Zm0.913,0.028c0,0.799 0.13,1.358 0.39,1.679c0.26,0.321 0.625,0.481 1.094,0.481c0.48,0 0.847,-0.16 1.102,-0.481c0.255,-0.321 0.382,-0.88 0.382,-1.679c0,-0.792 -0.126,-1.356 -0.379,-1.693c-0.253,-0.337 -0.621,-0.506 -1.105,-0.506c-0.48,0 -0.847,0.168 -1.102,0.503c-0.255,0.335 -0.382,0.901 -0.382,1.696Z" style="fill:#662c91;fill-rule:nonzero;"/><path d="M15.444,4.196c0.125,-0.326 0.327,-0.599 0.608,-0.819c0.28,-0.22 0.554,-0.33 0.822,-0.33c0.241,0 0.432,0.075 0.571,0.226c0.139,0.15 0.209,0.304 0.209,0.461c0,0.107 -0.036,0.198 -0.107,0.275c-0.072,0.077 -0.159,0.116 -0.261,0.116c-0.183,0 -0.323,-0.136 -0.418,-0.407c-0.066,-0.183 -0.165,-0.275 -0.297,-0.275c-0.157,0 -0.346,0.107 -0.566,0.322c-0.22,0.214 -0.361,0.436 -0.423,0.667c-0.062,0.231 -0.094,0.548 -0.094,0.951l0,0.803c0,0.48 0.007,0.782 0.02,0.907c0.012,0.124 0.065,0.22 0.156,0.286c0.092,0.066 0.255,0.099 0.489,0.099l0.154,0l0,0.252l-2.391,0l0,-0.252l0.116,0c0.22,0 0.376,-0.031 0.47,-0.091c0.093,-0.061 0.149,-0.146 0.167,-0.256c0.019,-0.11 0.028,-0.425 0.028,-0.945l0,-1.27c0,-0.484 -0.007,-0.787 -0.019,-0.91c-0.013,-0.122 -0.065,-0.218 -0.157,-0.285c-0.092,-0.068 -0.255,-0.102 -0.489,-0.102l-0.116,0l0,-0.248c0.345,-0.04 0.796,-0.148 1.353,-0.324c0.106,0.29 0.164,0.673 0.175,1.149Z" style="fill:#662c91;fill-rule:nonzero;"/><path d="M22.17,3.047l0.181,0l0,5.909c0,0.48 0.007,0.782 0.02,0.907c0.013,0.125 0.065,0.22 0.156,0.286c0.092,0.066 0.255,0.099 0.49,0.099l0.12,0l0,0.253l-2.424,0l0,-0.253l0.182,0c0.22,0 0.376,-0.029 0.47,-0.088c0.093,-0.059 0.149,-0.144 0.167,-0.256c0.019,-0.111 0.028,-0.428 0.028,-0.948l0,-1.61c-0.264,0.186 -0.53,0.328 -0.8,0.423c-0.269,0.095 -0.543,0.143 -0.822,0.143c-0.626,0 -1.147,-0.215 -1.563,-0.643c-0.416,-0.429 -0.624,-1.001 -0.624,-1.715c0,-0.752 0.232,-1.357 0.695,-1.817c0.464,-0.46 0.987,-0.69 1.569,-0.69c0.246,0 0.498,0.049 0.756,0.146c0.259,0.097 0.521,0.244 0.789,0.442c0.201,-0.132 0.405,-0.328 0.61,-0.588Zm-0.61,0.929c-0.216,-0.198 -0.439,-0.346 -0.668,-0.445c-0.229,-0.099 -0.463,-0.149 -0.701,-0.149c-0.417,0 -0.777,0.164 -1.077,0.49c-0.301,0.326 -0.451,0.903 -0.451,1.731c0,0.671 0.129,1.176 0.388,1.514c0.258,0.339 0.616,0.509 1.074,0.509c0.246,0 0.488,-0.045 0.726,-0.135c0.238,-0.09 0.474,-0.224 0.709,-0.404l0,-3.111Z" style="fill:#662c91;fill-rule:nonzero;"/><path d="M28.016,3.229l0,2.951c0,0.491 0.008,0.799 0.022,0.924c0.015,0.124 0.069,0.218 0.162,0.28c0.094,0.062 0.261,0.094 0.503,0.094l0,0.252c-0.557,0.008 -0.963,0.066 -1.22,0.176l-0.066,0c-0.117,-0.201 -0.179,-0.549 -0.187,-1.044c-0.223,0.348 -0.479,0.61 -0.767,0.786c-0.287,0.176 -0.605,0.264 -0.953,0.264c-0.301,0 -0.566,-0.069 -0.797,-0.206c-0.231,-0.138 -0.39,-0.305 -0.476,-0.503c-0.086,-0.198 -0.129,-0.497 -0.129,-0.896l0,-1.534c0,-0.52 -0.009,-0.838 -0.027,-0.954c-0.019,-0.115 -0.076,-0.2 -0.174,-0.255c-0.097,-0.055 -0.275,-0.083 -0.535,-0.083l0,-0.252l1.528,0l0,3.122c0,0.308 0.018,0.531 0.055,0.67c0.036,0.14 0.13,0.261 0.28,0.366c0.15,0.104 0.324,0.156 0.522,0.156c0.282,0 0.552,-0.092 0.808,-0.277c0.257,-0.185 0.432,-0.381 0.525,-0.588c0.094,-0.207 0.14,-0.503 0.14,-0.888l0,-1.017c0,-0.491 -0.005,-0.79 -0.016,-0.896c-0.011,-0.106 -0.058,-0.199 -0.14,-0.277c-0.083,-0.079 -0.254,-0.119 -0.514,-0.119l-0.116,0l0,-0.252l1.572,0Z" style="fill:#662c91;fill-rule:nonzero;"/><path d="M33.384,4.751l-3.138,0c-0.015,0.216 -0.022,0.378 -0.022,0.484c0,0.791 0.123,1.386 0.371,1.784c0.247,0.397 0.616,0.596 1.107,0.596c0.667,0 1.14,-0.299 1.418,-0.896l0.264,0c-0.117,0.374 -0.35,0.666 -0.698,0.877c-0.348,0.21 -0.727,0.316 -1.138,0.316c-0.381,0 -0.741,-0.096 -1.08,-0.289c-0.339,-0.192 -0.616,-0.464 -0.832,-0.816c-0.217,-0.352 -0.325,-0.779 -0.325,-1.281c0,-0.711 0.209,-1.302 0.627,-1.772c0.418,-0.471 0.94,-0.707 1.566,-0.707c0.59,0 1.047,0.18 1.369,0.539c0.323,0.359 0.493,0.747 0.511,1.165Zm-0.962,-0.22c0.011,-0.084 0.017,-0.159 0.017,-0.225c0,-0.323 -0.095,-0.573 -0.283,-0.75c-0.189,-0.178 -0.421,-0.267 -0.696,-0.267c-0.667,0 -1.064,0.414 -1.192,1.242l2.154,0Z" style="fill:#662c91;fill-rule:nonzero;"/><path d="M38.151,0.172l0,6.014c0,0.48 0.006,0.782 0.019,0.907c0.013,0.124 0.065,0.22 0.157,0.286c0.091,0.066 0.254,0.099 0.489,0.099l0.132,0l0,0.252l-2.408,0l0,-0.252l0.154,0c0.22,0 0.377,-0.031 0.47,-0.091c0.094,-0.061 0.149,-0.146 0.168,-0.256c0.018,-0.11 0.027,-0.425 0.027,-0.945l0,-4.453c0,-0.472 -0.042,-0.77 -0.126,-0.893c-0.084,-0.122 -0.29,-0.184 -0.616,-0.184l0,-0.253c0.224,0 0.487,-0.025 0.789,-0.077c0.302,-0.051 0.51,-0.102 0.624,-0.154l0.121,0Z" style="fill:#662c91;fill-rule:nonzero;"/><path d="M39.44,5.471c0,-0.689 0.231,-1.265 0.693,-1.728c0.462,-0.464 1.03,-0.696 1.704,-0.696c0.678,0 1.248,0.233 1.709,0.698c0.462,0.466 0.693,1.041 0.693,1.726c0,0.759 -0.235,1.355 -0.704,1.789c-0.469,0.435 -1.035,0.652 -1.698,0.652c-0.663,0 -1.229,-0.221 -1.696,-0.663c-0.467,-0.441 -0.701,-1.034 -0.701,-1.778Zm0.913,0.028c0,0.799 0.13,1.358 0.39,1.679c0.26,0.321 0.625,0.481 1.094,0.481c0.48,0 0.847,-0.16 1.102,-0.481c0.255,-0.321 0.382,-0.88 0.382,-1.679c0,-0.792 -0.127,-1.356 -0.379,-1.693c-0.253,-0.337 -0.622,-0.506 -1.105,-0.506c-0.48,0 -0.848,0.168 -1.102,0.503c-0.255,0.335 -0.382,0.901 -0.382,1.696Z" style="fill:#662c91;fill-rule:nonzero;"/><path d="M49.995,7.912l-0.319,0l-1.6,-3.612c-0.157,-0.348 -0.282,-0.569 -0.373,-0.665c-0.092,-0.095 -0.242,-0.146 -0.451,-0.154l0,-0.252l2.034,0l0,0.252c-0.224,0 -0.377,0.019 -0.459,0.055c-0.083,0.037 -0.124,0.107 -0.124,0.209c0,0.081 0.073,0.277 0.22,0.588l1.215,2.732l1.094,-2.435c0.172,-0.388 0.258,-0.641 0.258,-0.758c0,-0.246 -0.183,-0.376 -0.55,-0.391l0,-0.252l1.517,0l0,0.252c-0.187,0.011 -0.343,0.089 -0.47,0.234c-0.126,0.145 -0.303,0.47 -0.53,0.976l-1.462,3.221Z" style="fill:#662c91;fill-rule:nonzero;"/><path d="M56.926,6.906l0.204,0c-0.033,0.626 -0.341,0.94 -0.924,0.94c-0.249,0 -0.446,-0.066 -0.59,-0.198c-0.145,-0.132 -0.24,-0.328 -0.284,-0.588c-0.366,0.26 -0.7,0.456 -1.003,0.588c-0.302,0.132 -0.572,0.198 -0.81,0.198c-0.305,0 -0.567,-0.088 -0.787,-0.264c-0.219,-0.176 -0.329,-0.409 -0.329,-0.698c0,-0.378 0.184,-0.707 0.552,-0.99c0.368,-0.282 0.877,-0.557 1.525,-0.824l0.852,-0.346l0,-0.22c0,-0.312 -0.02,-0.537 -0.06,-0.676c-0.04,-0.14 -0.145,-0.264 -0.313,-0.374c-0.169,-0.11 -0.391,-0.165 -0.665,-0.165c-0.55,0 -0.856,0.183 -0.918,0.55c-0.059,0.373 -0.213,0.56 -0.462,0.56c-0.224,0 -0.335,-0.106 -0.335,-0.318c0,-0.209 0.148,-0.434 0.445,-0.674c0.297,-0.24 0.758,-0.36 1.385,-0.36c0.465,0 0.826,0.073 1.083,0.22c0.256,0.147 0.426,0.313 0.508,0.5c0.083,0.187 0.124,0.473 0.124,0.858l0,1.819c0,0.425 0.022,0.698 0.066,0.819c0.044,0.121 0.139,0.182 0.286,0.182c0.242,0 0.392,-0.18 0.45,-0.539Zm-1.594,-1.924l-0.599,0.242c-0.945,0.385 -1.418,0.868 -1.418,1.451c0,0.231 0.061,0.417 0.182,0.558c0.12,0.141 0.278,0.212 0.472,0.212c0.172,0 0.372,-0.057 0.599,-0.171c0.228,-0.113 0.482,-0.284 0.764,-0.511l0,-1.781Z" style="fill:#662c91;fill-rule:nonzero;"/><path d="M58.867,0.172l0,6.014c0,0.48 0.007,0.782 0.019,0.907c0.013,0.124 0.065,0.22 0.157,0.286c0.092,0.066 0.255,0.099 0.489,0.099l0.132,0l0,0.252l-2.407,0l0,-0.252l0.153,0c0.22,0 0.377,-0.031 0.47,-0.091c0.094,-0.061 0.15,-0.146 0.168,-0.256c0.018,-0.11 0.028,-0.425 0.028,-0.945l0,-4.453c0,-0.472 -0.043,-0.77 -0.127,-0.893c-0.084,-0.122 -0.289,-0.184 -0.615,-0.184l0,-0.253c0.223,0 0.486,-0.025 0.788,-0.077c0.303,-0.051 0.511,-0.102 0.624,-0.154l0.121,0Z" style="fill:#662c91;fill-rule:nonzero;"/><path d="M64.232,4.751l-3.138,0c-0.015,0.216 -0.022,0.378 -0.022,0.484c0,0.791 0.123,1.386 0.371,1.784c0.247,0.397 0.616,0.596 1.107,0.596c0.667,0 1.14,-0.299 1.418,-0.896l0.264,0c-0.117,0.374 -0.35,0.666 -0.698,0.877c-0.348,0.21 -0.727,0.316 -1.138,0.316c-0.381,0 -0.741,-0.096 -1.08,-0.289c-0.339,-0.192 -0.616,-0.464 -0.833,-0.816c-0.216,-0.352 -0.324,-0.779 -0.324,-1.281c0,-0.711 0.209,-1.302 0.627,-1.772c0.418,-0.471 0.94,-0.707 1.566,-0.707c0.59,0 1.047,0.18 1.369,0.539c0.322,0.359 0.493,0.747 0.511,1.165Zm-0.962,-0.22c0.011,-0.084 0.017,-0.159 0.017,-0.225c0,-0.323 -0.095,-0.573 -0.283,-0.75c-0.189,-0.178 -0.421,-0.267 -0.696,-0.267c-0.667,0 -1.064,0.414 -1.192,1.242l2.154,0Z" style="fill:#662c91;fill-rule:nonzero;"/><path d="M65.013,7.873l0,-1.478l0.214,0c0.25,0.853 0.695,1.28 1.336,1.28c0.279,0 0.487,-0.084 0.624,-0.252c0.137,-0.169 0.206,-0.354 0.206,-0.556c0,-0.234 -0.073,-0.427 -0.22,-0.577c-0.15,-0.15 -0.441,-0.331 -0.874,-0.544c-0.454,-0.223 -0.78,-0.443 -0.978,-0.66c-0.198,-0.212 -0.297,-0.474 -0.297,-0.786c0,-0.296 0.106,-0.579 0.319,-0.849c0.212,-0.269 0.511,-0.404 0.896,-0.404c0.392,0 0.716,0.16 0.973,0.478c0.055,-0.055 0.126,-0.188 0.214,-0.401l0.203,0l0,1.391l-0.203,0c-0.073,-0.334 -0.215,-0.62 -0.426,-0.86c-0.211,-0.24 -0.459,-0.36 -0.745,-0.36c-0.22,0 -0.397,0.067 -0.533,0.203c-0.135,0.136 -0.203,0.293 -0.203,0.473c0,0.198 0.075,0.368 0.225,0.511c0.147,0.146 0.427,0.313 0.841,0.5c0.623,0.282 1.004,0.557 1.143,0.825c0.14,0.271 0.209,0.531 0.209,0.78c0,0.392 -0.129,0.711 -0.387,0.956c-0.259,0.246 -0.584,0.369 -0.976,0.369c-0.414,0 -0.782,-0.171 -1.105,-0.511c-0.099,0.109 -0.179,0.267 -0.242,0.472l-0.214,0Z" style="fill:#662c91;fill-rule:nonzero;"/><path d="M69.768,5.609l-0.236,0l-0.325,-3.898c-0.029,-0.362 -0.044,-0.588 -0.044,-0.676c0,-0.216 0.049,-0.384 0.146,-0.505c0.097,-0.121 0.21,-0.182 0.338,-0.182c0.125,0 0.237,0.059 0.338,0.176c0.101,0.117 0.151,0.29 0.151,0.517c0,0.128 -0.014,0.352 -0.044,0.67l-0.324,3.898Zm-0.715,1.709c0,-0.161 0.058,-0.299 0.174,-0.415c0.115,-0.115 0.253,-0.173 0.415,-0.173c0.165,0 0.305,0.058 0.42,0.173c0.116,0.116 0.173,0.254 0.173,0.415c0,0.165 -0.058,0.305 -0.176,0.421c-0.117,0.115 -0.256,0.173 -0.417,0.173c-0.165,0 -0.305,-0.06 -0.418,-0.179c-0.114,-0.119 -0.171,-0.257 -0.171,-0.415Z" style="fill:#662c91;fill-rule:nonzero;"/></g></svg>