<?xml version="1.0" encoding="utf-8"?>
<!-- Generator: Adobe Illustrator 24.2.1, SVG Export Plug-In . SVG Version: 6.00 Build 0)  -->
<svg version="1.1" id="Capa_1" xmlns="http://www.w3.org/2000/svg" xmlns:xlink="http://www.w3.org/1999/xlink" x="0px" y="0px"
	 viewBox="0 0 155.91 155.91" style="enable-background:new 0 0 155.91 155.91;" xml:space="preserve">
<style type="text/css">
	.st0{fill:#FFFFFF;}
	.st1{fill:#FF9E46;}
	.st2{fill:#71FF96;}
	.st3{fill:#BC2AFF;}
	.st4{opacity:0.77;}
	.st5{fill:#C9D5DD;}
	.st6{fill:#5577AC;}
	.st7{fill:#8C92BC;}
	.st8{fill:#252723;}
	.st9{fill:#717AAA;}
	.st10{opacity:0.16;fill:#FFFFFF;}
	.st11{fill:#707574;}
	.st12{fill:#666A6A;}
	.st13{fill:#D79DB7;}
	.st14{fill:#CF84A4;}
	.st15{fill:#628CBF;}
	.st16{fill:#5383BA;}
	.st17{fill:#DEE0E1;}
	.st18{fill:#D0D3D3;}
	.st19{fill:#62B2E5;}
	.st20{fill:#4C9BD4;}
	.st21{fill:#8CB879;}
	.st22{fill:#6EA96E;}
	.st23{fill:#EBCC65;}
	.st24{fill:#E5BD4E;}
	.st25{fill:#D18B44;}
	.st26{fill:#CB7B41;}
	.st27{fill:#C25E3C;}
	.st28{fill:#BF4F3A;}
	.st29{fill:#C0AB93;}
	.st30{fill:#AC8F6A;}
	.st31{fill:#C7D577;}
	.st32{fill:#B5CC83;}
	.st33{fill:#7E778E;}
	.st34{fill:#5E568C;}
	.st35{fill:#CC7D7E;}
	.st36{fill:#A8405A;}
	.st37{fill:#A34250;}
	.st38{fill:#534877;}
	.st39{fill:#B5D0A8;}
	.st40{fill:#B69585;}
	.st41{fill:#9FCCEE;}
	.st42{fill:#F1DA8F;}
	.st43{fill:#DEAB30;}
	.st44{fill:#90C2C8;}
	.st45{fill:#6AADA5;}
	.st46{opacity:0.69;fill:#FFFFFF;}
	.st47{fill:#3171AB;stroke:#252723;stroke-width:0.4016;}
	.st48{fill:#5984BA;stroke:#252723;stroke-width:0.4016;}
	.st49{fill:none;stroke:#252723;stroke-width:0.4016;stroke-dasharray:2.4097;}
	.st50{fill:#99BA48;}
	.st51{fill:#83A03F;}
	.st52{opacity:0.7;fill:#FFFFFF;}
	.st53{fill:#4D8549;}
	.st54{fill:#AC8E64;}
	.st55{fill:#65414F;}
	.st56{clip-path:url(#SVGID_2_);}
	.st57{clip-path:url(#SVGID_4_);}
	.st58{fill:url(#SVGID_5_);}
	.st59{fill:url(#SVGID_6_);}
	.st60{fill:url(#SVGID_7_);}
	.st61{fill:url(#SVGID_8_);}
	.st62{fill:url(#SVGID_9_);}
	.st63{fill:url(#SVGID_10_);}
	.st64{fill:url(#SVGID_11_);}
	.st65{fill:url(#SVGID_12_);}
	.st66{fill:url(#SVGID_13_);}
	.st67{fill:url(#SVGID_14_);}
	.st68{fill:url(#SVGID_15_);}
	.st69{fill:url(#SVGID_16_);}
	.st70{fill:url(#SVGID_17_);}
	.st71{fill:url(#SVGID_18_);}
	.st72{fill:url(#SVGID_19_);}
	.st73{fill:url(#SVGID_20_);}
	.st74{fill:url(#SVGID_21_);}
	.st75{fill:url(#SVGID_22_);}
	.st76{fill:url(#SVGID_23_);}
	.st77{fill:url(#SVGID_24_);}
	.st78{fill:url(#SVGID_25_);}
	.st79{fill:url(#SVGID_26_);}
	.st80{fill:url(#SVGID_27_);}
	.st81{fill:url(#SVGID_28_);}
	.st82{fill:url(#SVGID_29_);}
	.st83{fill:url(#SVGID_30_);}
	.st84{fill:url(#SVGID_31_);}
	.st85{fill:url(#SVGID_32_);}
	.st86{fill:url(#SVGID_33_);}
	.st87{fill:url(#SVGID_34_);}
	.st88{fill:url(#SVGID_35_);}
	.st89{fill:url(#SVGID_36_);}
	.st90{fill:url(#SVGID_37_);}
	.st91{fill:url(#SVGID_38_);}
	.st92{fill:url(#SVGID_39_);}
	.st93{fill:url(#SVGID_40_);}
	.st94{fill:url(#SVGID_41_);}
	.st95{fill:url(#SVGID_42_);}
	.st96{fill:url(#SVGID_43_);}
	.st97{fill:url(#SVGID_44_);}
	.st98{fill:url(#SVGID_45_);}
	.st99{fill:url(#SVGID_46_);}
	.st100{fill:url(#SVGID_47_);}
	.st101{fill:url(#SVGID_48_);}
	.st102{fill:url(#SVGID_49_);}
	.st103{fill:url(#SVGID_50_);}
	.st104{fill:url(#SVGID_51_);}
	.st105{fill:url(#SVGID_52_);}
	.st106{fill:url(#SVGID_53_);}
	.st107{fill:url(#SVGID_54_);}
	.st108{fill:url(#SVGID_55_);}
	.st109{fill:url(#SVGID_56_);}
	.st110{fill:url(#SVGID_57_);}
	.st111{fill:url(#SVGID_58_);}
	.st112{fill:url(#SVGID_59_);}
	.st113{fill:url(#SVGID_60_);}
	.st114{fill:url(#SVGID_61_);}
	.st115{fill:url(#SVGID_62_);}
	.st116{fill:url(#SVGID_63_);}
	.st117{fill:#882633;}
	.st118{fill:url(#SVGID_64_);}
	.st119{fill:url(#SVGID_65_);}
	.st120{fill:#CD7F94;}
	.st121{fill:#ADBCC5;}
	.st122{fill:#B71C32;}
	.st123{fill:#E7C14D;}
	.st124{fill:#E6C5C4;}
	.st125{fill:#5C6466;}
	.st126{opacity:0.2;fill:#FFFFFF;}
	.st127{opacity:0.15;fill:#252723;}
	.st128{opacity:0.35;fill:#FFFFFF;}
	.st129{opacity:0.15;fill:#616161;}
	.st130{fill:#FF6666;}
	.st131{fill:#FFAB4D;}
	.st132{fill:#F3DCC8;}
	.st133{fill:#59287F;}
	.st134{fill:#C3007A;}
	.st135{fill:#D400AB;}
	.st136{opacity:0.4;fill:#FFFFFF;}
	.st137{fill:#F0D1B0;}
	.st138{fill:#2C285B;}
	.st139{opacity:0.15;fill:#222221;}
	.st140{fill:#222221;}
	.st141{fill:#009FDF;}
	.st142{fill:#F0D33B;}
	.st143{opacity:0.2;fill:#32346F;}
	.st144{fill:#B98555;}
	.st145{fill:#E8C483;}
	.st146{opacity:0.2;fill:#4F3420;}
	.st147{fill:#9B7348;}
	.st148{fill:#62452F;}
	.st149{fill:#A7383B;}
	.st150{fill:#D28E8E;}
	.st151{fill:#91714C;}
	.st152{fill-rule:evenodd;clip-rule:evenodd;fill:#252723;}
	.st153{fill-rule:evenodd;clip-rule:evenodd;fill:#EED6AE;}
	.st154{fill-rule:evenodd;clip-rule:evenodd;fill:#8B674B;}
	.st155{fill-rule:evenodd;clip-rule:evenodd;fill:#B71C32;}
	.st156{fill-rule:evenodd;clip-rule:evenodd;fill:#B9D3B6;}
	.st157{fill-rule:evenodd;clip-rule:evenodd;fill:#D79B83;}
	.st158{opacity:0.4;fill-rule:evenodd;clip-rule:evenodd;fill:#FFFFFF;}
	.st159{opacity:0.3;fill-rule:evenodd;clip-rule:evenodd;fill:#252723;}
	.st160{fill-rule:evenodd;clip-rule:evenodd;fill:#D6B66B;}
	.st161{fill-rule:evenodd;clip-rule:evenodd;fill:#876A43;}
	.st162{fill-rule:evenodd;clip-rule:evenodd;fill:#62A2D6;}
	.st163{fill-rule:evenodd;clip-rule:evenodd;fill:#8EB8E0;}
	.st164{fill-rule:evenodd;clip-rule:evenodd;fill:#CDA157;}
	.st165{fill-rule:evenodd;clip-rule:evenodd;fill:#926B2B;}
	.st166{fill-rule:evenodd;clip-rule:evenodd;fill:#FFFFFF;}
</style>
<g>
	<circle class="st55" cx="77.95" cy="77.95" r="71.04"/>
	<g>
		<defs>
			<circle id="SVGID_1_" cx="77.95" cy="77.95" r="65.82"/>
		</defs>
		<clipPath id="SVGID_2_">
			<use xlink:href="#SVGID_1_"  style="overflow:visible;"/>
		</clipPath>
		<g class="st56">
			<g>
				<defs>
					<rect id="SVGID_3_" x="-3.31" y="-5.2" width="162.52" height="166.3"/>
				</defs>
				<clipPath id="SVGID_4_">
					<use xlink:href="#SVGID_3_"  style="overflow:visible;"/>
				</clipPath>
				<g class="st57">
					<g>
						
							<radialGradient id="SVGID_5_" cx="76.8863" cy="460.3509" r="170.9155" gradientTransform="matrix(1 0 0 0.8576 0 -318.188)" gradientUnits="userSpaceOnUse">
							<stop  offset="0.197" style="stop-color:#B72432"/>
							<stop  offset="0.5747" style="stop-color:#301C1B"/>
						</radialGradient>
						<rect x="-3.31" y="-5.2" class="st58" width="162.52" height="166.3"/>
						<g>
							<radialGradient id="SVGID_6_" cx="76.8863" cy="76.6086" r="170.9209" gradientUnits="userSpaceOnUse">
								<stop  offset="0.197" style="stop-color:#B72432"/>
								<stop  offset="0.5369" style="stop-color:#301C1B"/>
							</radialGradient>
							<polygon class="st59" points="77.53,77.5 76.83,77.5 74,-37.12 80.35,-37.12 							"/>
							<radialGradient id="SVGID_7_" cx="76.8863" cy="76.6085" r="170.9178" gradientUnits="userSpaceOnUse">
								<stop  offset="0.197" style="stop-color:#B72432"/>
								<stop  offset="0.5369" style="stop-color:#301C1B"/>
							</radialGradient>
							<polygon class="st60" points="76.83,76.65 77.53,76.65 80.35,191.26 74,191.26 							"/>
							<radialGradient id="SVGID_8_" cx="76.8863" cy="76.6086" r="170.9188" gradientUnits="userSpaceOnUse">
								<stop  offset="0.197" style="stop-color:#B72432"/>
								<stop  offset="0.5369" style="stop-color:#301C1B"/>
							</radialGradient>
							<polygon class="st61" points="77.57,77.46 76.88,77.53 61.73,-36.12 68.04,-36.8 							"/>
							<radialGradient id="SVGID_9_" cx="76.8863" cy="76.6087" r="170.9172" gradientUnits="userSpaceOnUse">
								<stop  offset="0.197" style="stop-color:#B72432"/>
								<stop  offset="0.5369" style="stop-color:#301C1B"/>
							</radialGradient>
							<polygon class="st62" points="76.79,76.69 77.48,76.61 92.63,190.26 86.32,190.94 							"/>
							<radialGradient id="SVGID_10_" cx="76.8862" cy="76.6085" r="170.9243" gradientUnits="userSpaceOnUse">
								<stop  offset="0.197" style="stop-color:#B72432"/>
								<stop  offset="0.5369" style="stop-color:#301C1B"/>
							</radialGradient>
							<polygon class="st63" points="77.61,77.41 76.93,77.56 49.64,-33.8 55.84,-35.15 							"/>
							<radialGradient id="SVGID_11_" cx="76.8864" cy="76.6087" r="170.9169" gradientUnits="userSpaceOnUse">
								<stop  offset="0.197" style="stop-color:#B72432"/>
								<stop  offset="0.5369" style="stop-color:#301C1B"/>
							</radialGradient>
							<polygon class="st64" points="76.75,76.73 77.43,76.58 104.72,187.94 98.52,189.3 							"/>
							<radialGradient id="SVGID_12_" cx="76.8863" cy="76.6087" r="170.9133" gradientUnits="userSpaceOnUse">
								<stop  offset="0.197" style="stop-color:#B72432"/>
								<stop  offset="0.5369" style="stop-color:#301C1B"/>
							</radialGradient>
							<polygon class="st65" points="77.64,77.36 76.99,77.58 37.86,-30.19 43.88,-32.2 							"/>
							<radialGradient id="SVGID_13_" cx="76.8863" cy="76.6086" r="170.9175" gradientUnits="userSpaceOnUse">
								<stop  offset="0.197" style="stop-color:#B72432"/>
								<stop  offset="0.5369" style="stop-color:#301C1B"/>
							</radialGradient>
							<polygon class="st66" points="76.72,76.78 77.37,76.56 116.5,184.33 110.48,186.35 							"/>
							<radialGradient id="SVGID_14_" cx="76.8863" cy="76.6085" r="170.9139" gradientUnits="userSpaceOnUse">
								<stop  offset="0.197" style="stop-color:#B72432"/>
								<stop  offset="0.5369" style="stop-color:#301C1B"/>
							</radialGradient>
							<polygon class="st67" points="77.67,77.31 77.04,77.6 26.54,-25.33 32.31,-27.99 							"/>
							<radialGradient id="SVGID_15_" cx="76.8864" cy="76.6087" r="170.9174" gradientUnits="userSpaceOnUse">
								<stop  offset="0.197" style="stop-color:#B72432"/>
								<stop  offset="0.5369" style="stop-color:#301C1B"/>
							</radialGradient>
							<polygon class="st68" points="76.69,76.83 77.32,76.54 127.82,179.47 122.05,182.13 							"/>
							<radialGradient id="SVGID_16_" cx="76.8863" cy="76.6087" r="170.9236" gradientUnits="userSpaceOnUse">
								<stop  offset="0.197" style="stop-color:#B72432"/>
								<stop  offset="0.5369" style="stop-color:#301C1B"/>
							</radialGradient>
							<polygon class="st69" points="77.7,77.26 77.1,77.61 15.81,-19.28 21.26,-22.54 							"/>
							<radialGradient id="SVGID_17_" cx="76.8863" cy="76.6085" r="170.9173" gradientUnits="userSpaceOnUse">
								<stop  offset="0.197" style="stop-color:#B72432"/>
								<stop  offset="0.5369" style="stop-color:#301C1B"/>
							</radialGradient>
							<polygon class="st70" points="76.66,76.89 77.26,76.53 138.55,173.43 133.1,176.69 							"/>
							<radialGradient id="SVGID_18_" cx="76.8863" cy="76.6085" r="170.9175" gradientUnits="userSpaceOnUse">
								<stop  offset="0.197" style="stop-color:#B72432"/>
								<stop  offset="0.5369" style="stop-color:#301C1B"/>
							</radialGradient>
							<polygon class="st71" points="77.71,77.2 77.16,77.62 5.8,-12.12 10.86,-15.95 							"/>
							<radialGradient id="SVGID_19_" cx="76.8863" cy="76.6086" r="170.917" gradientUnits="userSpaceOnUse">
								<stop  offset="0.197" style="stop-color:#B72432"/>
								<stop  offset="0.5369" style="stop-color:#301C1B"/>
							</radialGradient>
							<polygon class="st72" points="76.65,76.94 77.2,76.52 148.56,166.26 143.5,170.09 							"/>
							<radialGradient id="SVGID_20_" cx="76.8863" cy="76.6086" r="170.9136" gradientUnits="userSpaceOnUse">
								<stop  offset="0.197" style="stop-color:#B72432"/>
								<stop  offset="0.5369" style="stop-color:#301C1B"/>
							</radialGradient>
							<polygon class="st73" points="77.72,77.14 77.22,77.62 -3.39,-3.92 1.24,-8.27 							"/>
							<radialGradient id="SVGID_21_" cx="76.8863" cy="76.6087" r="170.9171" gradientUnits="userSpaceOnUse">
								<stop  offset="0.197" style="stop-color:#B72432"/>
								<stop  offset="0.5369" style="stop-color:#301C1B"/>
							</radialGradient>
							<polygon class="st74" points="76.64,77 77.14,76.52 157.75,158.06 153.12,162.41 							"/>
							<radialGradient id="SVGID_22_" cx="76.8862" cy="76.6087" r="170.9152" gradientUnits="userSpaceOnUse">
								<stop  offset="0.197" style="stop-color:#B72432"/>
								<stop  offset="0.5369" style="stop-color:#301C1B"/>
							</radialGradient>
							<polygon class="st75" points="77.73,77.08 77.28,77.61 -11.64,5.23 -7.51,0.4 							"/>
							<radialGradient id="SVGID_23_" cx="76.8863" cy="76.6087" r="170.9178" gradientUnits="userSpaceOnUse">
								<stop  offset="0.197" style="stop-color:#B72432"/>
								<stop  offset="0.5369" style="stop-color:#301C1B"/>
							</radialGradient>
							<polygon class="st76" points="76.63,77.06 77.08,76.53 166,148.92 161.87,153.74 							"/>
							<radialGradient id="SVGID_24_" cx="76.8862" cy="76.6087" r="170.9192" gradientUnits="userSpaceOnUse">
								<stop  offset="0.197" style="stop-color:#B72432"/>
								<stop  offset="0.5369" style="stop-color:#301C1B"/>
							</radialGradient>
							<polygon class="st77" points="77.73,77.02 77.33,77.6 -18.86,15.21 -15.27,9.97 							"/>
							<radialGradient id="SVGID_25_" cx="76.8861" cy="76.6086" r="170.9176" gradientUnits="userSpaceOnUse">
								<stop  offset="0.197" style="stop-color:#B72432"/>
								<stop  offset="0.5369" style="stop-color:#301C1B"/>
							</radialGradient>
							<polygon class="st78" points="76.63,77.12 77.03,76.55 173.22,138.94 169.63,144.18 							"/>
							<radialGradient id="SVGID_26_" cx="76.8863" cy="76.6085" r="170.9123" gradientUnits="userSpaceOnUse">
								<stop  offset="0.197" style="stop-color:#B72432"/>
								<stop  offset="0.5369" style="stop-color:#301C1B"/>
							</radialGradient>
							<polygon class="st79" points="77.72,76.97 77.39,77.58 -24.96,25.91 -21.96,20.31 							"/>
							<radialGradient id="SVGID_27_" cx="76.8864" cy="76.6085" r="170.9174" gradientUnits="userSpaceOnUse">
								<stop  offset="0.197" style="stop-color:#B72432"/>
								<stop  offset="0.5369" style="stop-color:#301C1B"/>
							</radialGradient>
							<polygon class="st80" points="76.64,77.18 76.97,76.56 179.32,128.24 176.32,133.83 							"/>
							<radialGradient id="SVGID_28_" cx="76.8864" cy="76.6086" r="170.9163" gradientUnits="userSpaceOnUse">
								<stop  offset="0.197" style="stop-color:#B72432"/>
								<stop  offset="0.5369" style="stop-color:#301C1B"/>
							</radialGradient>
							<polygon class="st81" points="77.7,76.91 77.44,77.55 -29.87,37.2 -27.49,31.31 							"/>
							<radialGradient id="SVGID_29_" cx="76.8863" cy="76.6085" r="170.9177" gradientUnits="userSpaceOnUse">
								<stop  offset="0.197" style="stop-color:#B72432"/>
								<stop  offset="0.5369" style="stop-color:#301C1B"/>
							</radialGradient>
							<polygon class="st82" points="76.66,77.23 76.92,76.59 184.23,116.95 181.85,122.83 							"/>
							<radialGradient id="SVGID_30_" cx="76.8863" cy="76.6086" r="170.9194" gradientUnits="userSpaceOnUse">
								<stop  offset="0.197" style="stop-color:#B72432"/>
								<stop  offset="0.5369" style="stop-color:#301C1B"/>
							</radialGradient>
							<polygon class="st83" points="77.68,76.85 77.49,77.52 -33.54,48.95 -31.81,42.84 							"/>
							<radialGradient id="SVGID_31_" cx="76.8865" cy="76.6086" r="170.9171" gradientUnits="userSpaceOnUse">
								<stop  offset="0.197" style="stop-color:#B72432"/>
								<stop  offset="0.5369" style="stop-color:#301C1B"/>
							</radialGradient>
							<polygon class="st84" points="76.68,77.29 76.87,76.62 187.9,105.19 186.17,111.3 							"/>
							<radialGradient id="SVGID_32_" cx="76.8864" cy="76.6086" r="170.9112" gradientUnits="userSpaceOnUse">
								<stop  offset="0.197" style="stop-color:#B72432"/>
								<stop  offset="0.5369" style="stop-color:#301C1B"/>
							</radialGradient>
							<polygon class="st85" points="77.66,76.8 77.54,77.49 -35.93,61.04 -34.86,54.78 							"/>
							<radialGradient id="SVGID_33_" cx="76.8863" cy="76.6086" r="170.9169" gradientUnits="userSpaceOnUse">
								<stop  offset="0.197" style="stop-color:#B72432"/>
								<stop  offset="0.5369" style="stop-color:#301C1B"/>
							</radialGradient>
							<polygon class="st86" points="76.7,77.34 76.82,76.66 190.29,93.11 189.22,99.37 							"/>
							<radialGradient id="SVGID_34_" cx="76.8863" cy="76.6087" r="170.9152" gradientUnits="userSpaceOnUse">
								<stop  offset="0.197" style="stop-color:#B72432"/>
								<stop  offset="0.5369" style="stop-color:#301C1B"/>
							</radialGradient>
							<polygon class="st87" points="77.62,76.75 77.58,77.44 -37,73.31 -36.61,66.97 							"/>
							<radialGradient id="SVGID_35_" cx="76.8864" cy="76.6085" r="170.9172" gradientUnits="userSpaceOnUse">
								<stop  offset="0.197" style="stop-color:#B72432"/>
								<stop  offset="0.5369" style="stop-color:#301C1B"/>
							</radialGradient>
							<polygon class="st88" points="76.73,77.39 76.78,76.7 191.35,80.84 190.97,87.18 							"/>
							<radialGradient id="SVGID_36_" cx="76.8864" cy="76.6087" r="170.9161" gradientUnits="userSpaceOnUse">
								<stop  offset="0.197" style="stop-color:#B72432"/>
								<stop  offset="0.5369" style="stop-color:#301C1B"/>
							</radialGradient>
							<polygon class="st89" points="77.59,76.71 77.62,77.4 -36.74,85.62 -37.04,79.27 							"/>
							<radialGradient id="SVGID_37_" cx="76.8862" cy="76.6086" r="170.9176" gradientUnits="userSpaceOnUse">
								<stop  offset="0.197" style="stop-color:#B72432"/>
								<stop  offset="0.5369" style="stop-color:#301C1B"/>
							</radialGradient>
							<polygon class="st90" points="76.77,77.44 76.74,76.74 191.1,68.53 191.4,74.87 							"/>
							<radialGradient id="SVGID_38_" cx="76.8862" cy="76.6085" r="170.9171" gradientUnits="userSpaceOnUse">
								<stop  offset="0.197" style="stop-color:#B72432"/>
								<stop  offset="0.5369" style="stop-color:#301C1B"/>
							</radialGradient>
							<polygon class="st91" points="77.55,76.66 77.65,77.35 -35.16,97.83 -36.14,91.56 							"/>
							<radialGradient id="SVGID_39_" cx="76.8864" cy="76.6087" r="170.9169" gradientUnits="userSpaceOnUse">
								<stop  offset="0.197" style="stop-color:#B72432"/>
								<stop  offset="0.5369" style="stop-color:#301C1B"/>
							</radialGradient>
							<polygon class="st92" points="76.81,77.48 76.71,76.79 189.51,56.31 190.49,62.59 							"/>
							<radialGradient id="SVGID_40_" cx="76.8861" cy="76.6085" r="170.9176" gradientUnits="userSpaceOnUse">
								<stop  offset="0.197" style="stop-color:#B72432"/>
								<stop  offset="0.5369" style="stop-color:#301C1B"/>
							</radialGradient>
							<polygon class="st93" points="77.5,76.63 77.68,77.3 -32.27,109.8 -33.92,103.67 							"/>
							<radialGradient id="SVGID_41_" cx="76.8863" cy="76.6085" r="170.9172" gradientUnits="userSpaceOnUse">
								<stop  offset="0.197" style="stop-color:#B72432"/>
								<stop  offset="0.5369" style="stop-color:#301C1B"/>
							</radialGradient>
							<polygon class="st94" points="76.86,77.52 76.68,76.85 186.63,44.34 188.28,50.47 							"/>
							<radialGradient id="SVGID_42_" cx="76.8862" cy="76.6086" r="170.9175" gradientUnits="userSpaceOnUse">
								<stop  offset="0.197" style="stop-color:#B72432"/>
								<stop  offset="0.5369" style="stop-color:#301C1B"/>
							</radialGradient>
							<polygon class="st95" points="77.45,76.59 77.7,77.24 -28.11,121.4 -30.41,115.48 							"/>
							<radialGradient id="SVGID_43_" cx="76.8862" cy="76.6087" r="170.9173" gradientUnits="userSpaceOnUse">
								<stop  offset="0.197" style="stop-color:#B72432"/>
								<stop  offset="0.5369" style="stop-color:#301C1B"/>
							</radialGradient>
							<polygon class="st96" points="76.91,77.55 76.66,76.9 182.47,32.75 184.77,38.67 							"/>
							<radialGradient id="SVGID_44_" cx="76.8863" cy="76.6084" r="170.9179" gradientUnits="userSpaceOnUse">
								<stop  offset="0.197" style="stop-color:#B72432"/>
								<stop  offset="0.5369" style="stop-color:#301C1B"/>
							</radialGradient>
							<polygon class="st97" points="77.4,76.57 77.72,77.18 -22.73,132.47 -25.65,126.84 							"/>
							<radialGradient id="SVGID_45_" cx="76.8864" cy="76.6087" r="170.9173" gradientUnits="userSpaceOnUse">
								<stop  offset="0.197" style="stop-color:#B72432"/>
								<stop  offset="0.5369" style="stop-color:#301C1B"/>
							</radialGradient>
							<polygon class="st98" points="76.96,77.58 76.64,76.96 177.08,21.67 180.01,27.31 							"/>
							<radialGradient id="SVGID_46_" cx="76.8864" cy="76.6086" r="170.9174" gradientUnits="userSpaceOnUse">
								<stop  offset="0.197" style="stop-color:#B72432"/>
								<stop  offset="0.5369" style="stop-color:#301C1B"/>
							</radialGradient>
							<polygon class="st99" points="77.34,76.55 77.73,77.13 -16.18,142.9 -19.7,137.62 							"/>
							<radialGradient id="SVGID_47_" cx="76.8861" cy="76.6087" r="170.9179" gradientUnits="userSpaceOnUse">
								<stop  offset="0.197" style="stop-color:#B72432"/>
								<stop  offset="0.5369" style="stop-color:#301C1B"/>
							</radialGradient>
							<polygon class="st100" points="77.02,77.6 76.63,77.02 170.54,11.24 174.05,16.53 							"/>
							<radialGradient id="SVGID_48_" cx="76.8864" cy="76.6086" r="170.9176" gradientUnits="userSpaceOnUse">
								<stop  offset="0.197" style="stop-color:#B72432"/>
								<stop  offset="0.5369" style="stop-color:#301C1B"/>
							</radialGradient>
							<polygon class="st101" points="77.28,76.53 77.73,77.07 -8.55,152.57 -12.61,147.69 							"/>
							<radialGradient id="SVGID_49_" cx="76.8863" cy="76.6085" r="170.9174" gradientUnits="userSpaceOnUse">
								<stop  offset="0.197" style="stop-color:#B72432"/>
								<stop  offset="0.5369" style="stop-color:#301C1B"/>
							</radialGradient>
							<polygon class="st102" points="77.08,77.61 76.63,77.08 162.91,1.57 166.97,6.45 							"/>
							<radialGradient id="SVGID_50_" cx="76.8862" cy="76.6086" r="170.9173" gradientUnits="userSpaceOnUse">
								<stop  offset="0.197" style="stop-color:#B72432"/>
								<stop  offset="0.5369" style="stop-color:#301C1B"/>
							</radialGradient>
							<polygon class="st103" points="77.22,76.53 77.72,77.01 0.07,161.36 -4.49,156.95 							"/>
							<radialGradient id="SVGID_51_" cx="76.8862" cy="76.6085" r="170.9172" gradientUnits="userSpaceOnUse">
								<stop  offset="0.197" style="stop-color:#B72432"/>
								<stop  offset="0.5369" style="stop-color:#301C1B"/>
							</radialGradient>
							<polygon class="st104" points="77.13,77.62 76.63,77.14 154.28,-7.22 158.85,-2.8 							"/>
							<radialGradient id="SVGID_52_" cx="76.8863" cy="76.6087" r="170.9174" gradientUnits="userSpaceOnUse">
								<stop  offset="0.197" style="stop-color:#B72432"/>
								<stop  offset="0.5369" style="stop-color:#301C1B"/>
							</radialGradient>
							<polygon class="st105" points="77.17,76.52 77.71,76.95 9.6,169.17 4.58,165.28 							"/>
							<radialGradient id="SVGID_53_" cx="76.8863" cy="76.6085" r="170.9178" gradientUnits="userSpaceOnUse">
								<stop  offset="0.197" style="stop-color:#B72432"/>
								<stop  offset="0.5369" style="stop-color:#301C1B"/>
							</radialGradient>
							<polygon class="st106" points="77.19,77.62 76.64,77.19 144.76,-15.03 149.78,-11.13 							"/>
							<radialGradient id="SVGID_54_" cx="76.8862" cy="76.6085" r="170.9174" gradientUnits="userSpaceOnUse">
								<stop  offset="0.197" style="stop-color:#B72432"/>
								<stop  offset="0.5369" style="stop-color:#301C1B"/>
							</radialGradient>
							<polygon class="st107" points="77.11,76.53 77.7,76.89 19.9,175.91 14.5,172.58 							"/>
							<radialGradient id="SVGID_55_" cx="76.8864" cy="76.6086" r="170.9167" gradientUnits="userSpaceOnUse">
								<stop  offset="0.197" style="stop-color:#B72432"/>
								<stop  offset="0.5369" style="stop-color:#301C1B"/>
							</radialGradient>
							<polygon class="st108" points="77.25,77.62 76.66,77.25 134.46,-21.77 139.86,-18.43 							"/>
							<radialGradient id="SVGID_56_" cx="76.8864" cy="76.6087" r="170.9171" gradientUnits="userSpaceOnUse">
								<stop  offset="0.197" style="stop-color:#B72432"/>
								<stop  offset="0.5369" style="stop-color:#301C1B"/>
							</radialGradient>
							<polygon class="st109" points="77.05,76.54 77.68,76.84 30.88,181.5 25.15,178.77 							"/>
							<radialGradient id="SVGID_57_" cx="76.8862" cy="76.6085" r="170.9178" gradientUnits="userSpaceOnUse">
								<stop  offset="0.197" style="stop-color:#B72432"/>
								<stop  offset="0.5369" style="stop-color:#301C1B"/>
							</radialGradient>
							<polygon class="st110" points="77.31,77.6 76.68,77.31 123.48,-27.36 129.21,-24.63 							"/>
							<radialGradient id="SVGID_58_" cx="76.8864" cy="76.6085" r="170.9175" gradientUnits="userSpaceOnUse">
								<stop  offset="0.197" style="stop-color:#B72432"/>
								<stop  offset="0.5369" style="stop-color:#301C1B"/>
							</radialGradient>
							<polygon class="st111" points="76.99,76.56 77.65,76.79 42.39,185.88 36.4,183.78 							"/>
							<radialGradient id="SVGID_59_" cx="76.8862" cy="76.6086" r="170.9174" gradientUnits="userSpaceOnUse">
								<stop  offset="0.197" style="stop-color:#B72432"/>
								<stop  offset="0.5369" style="stop-color:#301C1B"/>
							</radialGradient>
							<polygon class="st112" points="77.37,77.59 76.71,77.36 111.97,-31.74 117.96,-29.64 							"/>
							<radialGradient id="SVGID_60_" cx="76.8863" cy="76.6087" r="170.9174" gradientUnits="userSpaceOnUse">
								<stop  offset="0.197" style="stop-color:#B72432"/>
								<stop  offset="0.5369" style="stop-color:#301C1B"/>
							</radialGradient>
							<polygon class="st113" points="76.94,76.58 77.61,76.74 54.3,189 48.12,187.55 							"/>
							<radialGradient id="SVGID_61_" cx="76.8865" cy="76.6084" r="170.9165" gradientUnits="userSpaceOnUse">
								<stop  offset="0.197" style="stop-color:#B72432"/>
								<stop  offset="0.5369" style="stop-color:#301C1B"/>
							</radialGradient>
							<polygon class="st114" points="77.42,77.56 76.74,77.41 100.06,-34.85 106.24,-33.41 							"/>
							<radialGradient id="SVGID_62_" cx="76.8864" cy="76.6086" r="170.9171" gradientUnits="userSpaceOnUse">
								<stop  offset="0.197" style="stop-color:#B72432"/>
								<stop  offset="0.5369" style="stop-color:#301C1B"/>
							</radialGradient>
							<polygon class="st115" points="76.89,76.61 77.58,76.69 66.48,190.81 60.18,190.04 							"/>
							<radialGradient id="SVGID_63_" cx="76.8863" cy="76.6085" r="170.9161" gradientUnits="userSpaceOnUse">
								<stop  offset="0.197" style="stop-color:#B72432"/>
								<stop  offset="0.5369" style="stop-color:#301C1B"/>
							</radialGradient>
							<polygon class="st116" points="77.47,77.54 76.78,77.45 87.87,-36.66 94.18,-35.89 							"/>
						</g>
					</g>
				</g>
			</g>
		</g>
	</g>
	<g>
		<g>
			<path class="st117" d="M57.18,75.1c12.63,3.28,18.94,10.69,18.94,22.22c0,4.9-1.16,9.21-3.49,12.91c-2.33,3.71-5.53,6.57-9.6,8.6
				c-4.07,2.03-8.4,3.04-12.99,3.04c-6.17,0-11.12-1.9-14.84-5.69c-3.73-3.79-5.58-8.21-5.58-13.26c0-2.54,0.65-4.71,1.96-6.51
				c1.3-1.8,3.16-2.7,5.56-2.7c2.33,0,4.13,0.79,5.4,2.38c1.27,1.59,1.9,3.54,1.9,5.87c0,0.95-0.2,2.56-0.58,4.82
				c-0.21,0.99-0.32,1.89-0.32,2.7c0,1.52,0.48,2.82,1.43,3.89c0.95,1.08,2.27,1.61,3.97,1.61c2.22,0,3.87-0.92,4.95-2.78
				c1.08-1.85,1.61-4.83,1.61-8.92c0-1.06-0.03-2.12-0.1-3.17l-0.64-13.07c-0.53-2.57-1.39-4.46-2.59-5.66
				c-1.2-1.2-2.46-1.93-3.79-2.2c-1.32-0.26-3.43-0.4-6.32-0.4l-1.54,0.05c-1.06,0-1.62-0.51-1.69-1.53L38.71,75
				c-0.04-0.25-0.05-0.49-0.05-0.74c0-1.59,0.79-2.38,2.38-2.38c4.02,0,6.91-0.34,8.65-1.03c1.75-0.69,2.92-1.74,3.52-3.15
				c0.6-1.41,0.9-4.5,0.9-9.26c0-6.74-0.35-11.22-1.06-13.44c-0.71-2.22-2.15-3.33-4.34-3.33c-1.34,0-2.51,0.44-3.52,1.32
				c-1.01,0.88-1.51,2.01-1.51,3.39c0,0.92,0.16,2.24,0.48,3.97c0.46,2.44,0.69,4.27,0.69,5.51c0,2.04-0.69,3.67-2.06,4.87
				c-1.38,1.2-3.02,1.8-4.92,1.8c-2.36,0-4.21-0.93-5.53-2.8s-1.98-4.2-1.98-6.98c0-4.87,1.89-9.14,5.66-12.81
				c3.77-3.67,8.87-5.5,15.29-5.5c7.41,0,13.05,2.26,16.93,6.77s5.82,9.49,5.82,14.92c0,4.23-1.3,8.02-3.92,11.35
				c-2.61,3.33-6.4,5.72-11.37,7.17L57.18,75.1z"/>
			<path class="st117" d="M105.7,35.21c4.51,0,8.68,1.84,12.49,5.5c3.81,3.67,6.67,8.65,8.57,14.95c1.9,6.3,2.86,13.77,2.86,22.41
				c0,14.39-2.39,25.29-7.17,32.7c-4.78,7.41-10.59,11.11-17.44,11.11c-6.49,0-12.08-3.53-16.77-10.58
				c-4.69-7.06-7.04-17.85-7.04-32.38c0-14.46,2.32-25.36,6.96-32.7C92.8,38.88,98.64,35.21,105.7,35.21z M109.03,48.75
				c0-2.51-0.29-4.24-0.88-5.21c-0.58-0.97-1.54-1.46-2.88-1.46c-2.61,0-3.92,2.22-3.92,6.67v61.27c0,3.46,1.23,5.18,3.71,5.18
				c1.2,0,2.16-0.51,2.88-1.53c0.72-1.02,1.09-2.24,1.09-3.65V48.75z"/>
		</g>
		<g>
			<linearGradient id="SVGID_64_" gradientUnits="userSpaceOnUse" x1="26.292" y1="77.7615" x2="72.8014" y2="77.7615">
				<stop  offset="0" style="stop-color:#D7B46A"/>
				<stop  offset="0.5317" style="stop-color:#F9EA2B;stop-opacity:0.9"/>
				<stop  offset="0.5544" style="stop-color:#F6E52D;stop-opacity:0.9049"/>
				<stop  offset="0.7472" style="stop-color:#E1C03C;stop-opacity:0.946"/>
				<stop  offset="0.9025" style="stop-color:#D4A845;stop-opacity:0.9792"/>
				<stop  offset="1" style="stop-color:#CFA048"/>
			</linearGradient>
			<path class="st118" d="M53.86,74.72C66.49,78,72.8,85.41,72.8,96.94c0,4.9-1.16,9.21-3.49,12.91c-2.33,3.71-5.53,6.57-9.6,8.6
				c-4.07,2.03-8.4,3.04-12.99,3.04c-6.17,0-11.12-1.9-14.84-5.69c-3.73-3.79-5.58-8.21-5.58-13.26c0-2.54,0.65-4.71,1.96-6.51
				c1.3-1.8,3.16-2.7,5.56-2.7c2.33,0,4.13,0.79,5.4,2.38c1.27,1.59,1.9,3.54,1.9,5.87c0,0.95-0.2,2.56-0.58,4.82
				c-0.21,0.99-0.32,1.89-0.32,2.7c0,1.52,0.48,2.82,1.43,3.89c0.95,1.08,2.27,1.61,3.97,1.61c2.22,0,3.87-0.92,4.95-2.78
				c1.08-1.85,1.61-4.83,1.61-8.92c0-1.06-0.03-2.12-0.1-3.17l-0.64-13.07c-0.53-2.57-1.39-4.46-2.59-5.66
				c-1.2-1.2-2.46-1.93-3.79-2.2c-1.32-0.26-3.43-0.4-6.32-0.4l-1.54,0.05c-1.06,0-1.62-0.51-1.69-1.53l-0.11-2.33
				c-0.04-0.25-0.05-0.49-0.05-0.74c0-1.59,0.79-2.38,2.38-2.38c4.02,0,6.91-0.34,8.65-1.03c1.75-0.69,2.92-1.74,3.52-3.15
				c0.6-1.41,0.9-4.5,0.9-9.26c0-6.74-0.35-11.22-1.06-13.44c-0.71-2.22-2.15-3.33-4.34-3.33c-1.34,0-2.51,0.44-3.52,1.32
				c-1.01,0.88-1.51,2.01-1.51,3.39c0,0.92,0.16,2.24,0.48,3.97c0.46,2.44,0.69,4.27,0.69,5.51c0,2.04-0.69,3.67-2.06,4.87
				c-1.38,1.2-3.02,1.8-4.92,1.8c-2.36,0-4.21-0.93-5.53-2.8c-1.32-1.87-1.98-4.2-1.98-6.98c0-4.87,1.89-9.14,5.66-12.81
				c3.77-3.67,8.87-5.5,15.29-5.5c7.41,0,13.05,2.26,16.93,6.77s5.82,9.49,5.82,14.92c0,4.23-1.3,8.02-3.92,11.35
				c-2.61,3.33-6.4,5.72-11.37,7.17L53.86,74.72z"/>
			<linearGradient id="SVGID_65_" gradientUnits="userSpaceOnUse" x1="77.8827" y1="78.1586" x2="126.2971" y2="78.1586">
				<stop  offset="0" style="stop-color:#D7B46A"/>
				<stop  offset="0.5317" style="stop-color:#F9EA2B;stop-opacity:0.9"/>
				<stop  offset="0.5544" style="stop-color:#F6E52D;stop-opacity:0.9049"/>
				<stop  offset="0.7472" style="stop-color:#E1C03C;stop-opacity:0.946"/>
				<stop  offset="0.9025" style="stop-color:#D4A845;stop-opacity:0.9792"/>
				<stop  offset="1" style="stop-color:#CFA048"/>
			</linearGradient>
			<path class="st119" d="M102.38,34.82c4.51,0,8.68,1.84,12.49,5.5c3.81,3.67,6.67,8.65,8.57,14.95c1.9,6.3,2.86,13.77,2.86,22.41
				c0,14.39-2.39,25.29-7.17,32.7c-4.78,7.41-10.59,11.11-17.44,11.11c-6.49,0-12.08-3.53-16.77-10.58
				c-4.69-7.06-7.04-17.85-7.04-32.38c0-14.46,2.32-25.36,6.96-32.7C89.48,38.49,95.32,34.82,102.38,34.82z M105.72,48.37
				c0-2.51-0.29-4.24-0.88-5.21s-1.54-1.46-2.88-1.46c-2.61,0-3.92,2.22-3.92,6.67v61.27c0,3.46,1.23,5.18,3.71,5.18
				c1.2,0,2.16-0.51,2.88-1.53c0.72-1.02,1.09-2.24,1.09-3.65V48.37z"/>
		</g>
	</g>
</g>
</svg>
