<?xml version="1.0" encoding="UTF-8" standalone="no"?><!DOCTYPE svg PUBLIC "-//W3C//DTD SVG 1.1//EN" "http://www.w3.org/Graphics/SVG/1.1/DTD/svg11.dtd"><svg width="100%" height="100%" viewBox="0 0 139 94" version="1.1" xmlns="http://www.w3.org/2000/svg" xmlns:xlink="http://www.w3.org/1999/xlink" xml:space="preserve" xmlns:serif="http://www.serif.com/" style="fill-rule:evenodd;clip-rule:evenodd;stroke-linejoin:round;stroke-miterlimit:2;"><g><g opacity="0.77"><path d="M136.569,92.409c-1.274,0 -2.614,-1.348 -3.114,-1.908l-128.502,0c-0.468,0.326 -1.631,1.064 -2.523,1.064c-0.688,0 -1.156,-0.417 -1.251,-1.113c-0.293,-2.176 1.038,-3.506 2.028,-4.054l0,-77.367c-0.846,-0.722 -3.372,-3.112 -2.03,-4.869c0.512,-0.669 1.335,-1.022 2.38,-1.022c1.042,0 2.052,0.345 2.392,0.473l125.901,-0.779c0.664,-0.504 2.907,-2.118 4.298,-2.118c0.524,0 0.84,0.214 1.013,0.393c0.279,0.289 0.412,0.709 0.394,1.247c-0.104,3.141 -1.654,4.858 -2.27,5.42l0.118,77.683c0.816,0.969 3.329,4.148 2.774,5.867c-0.119,0.371 -0.425,0.852 -1.201,1.036c-0.131,0.031 -0.267,0.047 -0.407,0.047" style="fill:#c2d5de;fill-rule:nonzero;"/><path d="M136.149,0.118c-1.473,0 -3.54,1.4 -4.502,2.117l-125.59,0.779c-0.454,-0.164 -1.447,-0.473 -2.499,-0.473c-1.566,0 -2.416,0.683 -2.855,1.258c-1.301,1.701 0.131,3.943 1.906,5.508l0,76.757c-1.088,0.725 -2.329,2.196 -2.022,4.468c0.134,0.992 0.858,1.632 1.844,1.632c0.963,0 2.095,-0.655 2.708,-1.064l128.052,0c0.668,0.709 2.003,1.907 3.379,1.907c0.186,0 0.37,-0.02 0.546,-0.063c0.816,-0.193 1.396,-0.703 1.632,-1.433c0.606,-1.875 -1.522,-4.798 -2.746,-6.271l-0.118,-77.214c0.769,-0.776 2.17,-2.599 2.271,-5.65c0.023,-0.707 -0.166,-1.274 -0.563,-1.684c-0.253,-0.262 -0.709,-0.574 -1.443,-0.574m0,1.198c0.501,0 0.834,0.274 0.809,1.02c-0.12,3.598 -2.272,5.161 -2.272,5.161l0.12,78.182c0,0 4.715,5.462 2.032,6.1c-0.087,0.022 -0.177,0.032 -0.268,0.032c-1.278,0 -2.84,-1.908 -2.84,-1.908l-128.967,0c0,0 -1.448,1.063 -2.332,1.063c-0.341,0 -0.598,-0.157 -0.657,-0.594c-0.359,-2.659 2.033,-3.597 2.033,-3.597l0,-78.026c0,0 -3.349,-2.659 -2.153,-4.224c0.46,-0.601 1.186,-0.786 1.904,-0.786c1.149,0 2.281,0.474 2.281,0.474l126.216,-0.782c0,0 2.702,-2.115 4.094,-2.115" style="fill:#2a7fc2;fill-rule:nonzero;"/></g><path d="M41.581,84.079c-0.323,0 -0.583,-0.262 -0.583,-0.583l0,-73.238c0,-0.322 0.26,-0.583 0.583,-0.583l7.8,0c0.322,0 0.583,0.261 0.583,0.583l0,73.238c0,0.321 -0.261,0.583 -0.583,0.583l-7.8,0Z" style="fill:#8596cc;fill-rule:nonzero;"/><path d="M49.381,9.091l-7.799,0c-0.644,0 -1.167,0.522 -1.167,1.167l0,73.237c0,0.644 0.523,1.167 1.167,1.167l7.799,0c0.644,0 1.167,-0.523 1.167,-1.167l0,-73.237c0,-0.645 -0.523,-1.167 -1.167,-1.167m0,74.404l-7.799,0l0,-73.237l7.799,0l0,73.237Z" style="fill:#231f20;fill-rule:nonzero;"/><rect x="47.333" y="10.258" width="1.918" height="73.237" style="fill:#6780c0;"/><rect x="41.678" y="10.258" width="1.918" height="73.237" style="fill:#6780c0;"/><g opacity="0.16"><path d="M46.894,82.096c0.295,0 0.536,-0.241 0.536,-0.536l0,-69.834c0,-0.294 -0.241,-0.536 -0.536,-0.536c-0.295,0 -0.536,0.242 -0.536,0.536l0,69.834c0,0.295 0.241,0.536 0.536,0.536" style="fill:#fff;fill-rule:nonzero;"/></g><path d="M32.85,84.079c-0.323,0 -0.583,-0.262 -0.583,-0.583l0,-73.238c0,-0.322 0.26,-0.583 0.583,-0.583l7.799,0c0.323,0 0.583,0.261 0.583,0.583l0,73.238c0,0.321 -0.26,0.583 -0.583,0.583l-7.799,0Z" style="fill:#6f7073;fill-rule:nonzero;"/><path d="M40.649,9.091l-7.799,0c-0.644,0 -1.167,0.522 -1.167,1.167l0,73.237c0,0.644 0.523,1.167 1.167,1.167l7.799,0c0.644,0 1.167,-0.523 1.167,-1.167l0,-73.237c0,-0.645 -0.523,-1.167 -1.167,-1.167m0,74.404l-7.799,0l0,-73.237l7.799,0l0,73.237Z" style="fill:#231f20;fill-rule:nonzero;"/><rect x="38.601" y="10.258" width="1.918" height="73.237" style="fill:#656668;"/><rect x="32.947" y="10.258" width="1.918" height="73.237" style="fill:#656668;"/><g opacity="0.16"><path d="M38.163,82.096c0.295,0 0.536,-0.241 0.536,-0.536l0,-69.834c0,-0.294 -0.241,-0.536 -0.536,-0.536c-0.295,0 -0.536,0.242 -0.536,0.536l0,69.834c0,0.295 0.241,0.536 0.536,0.536" style="fill:#fff;fill-rule:nonzero;"/></g><path d="M24.118,84.079c-0.323,0 -0.583,-0.262 -0.583,-0.583l0,-73.238c0,-0.322 0.26,-0.583 0.583,-0.583l7.8,0c0.322,0 0.583,0.261 0.583,0.583l0,73.238c0,0.321 -0.261,0.583 -0.583,0.583l-7.8,0Z" style="fill:#f5a2c6;fill-rule:nonzero;"/><path d="M31.918,9.091l-7.8,0c-0.644,0 -1.166,0.522 -1.166,1.167l0,73.237c0,0.644 0.522,1.167 1.166,1.167l7.8,0c0.644,0 1.166,-0.523 1.166,-1.167l0,-73.237c0,-0.645 -0.522,-1.167 -1.166,-1.167m0,74.404l-7.8,0l0,-73.237l7.8,0l0,73.237Z" style="fill:#231f20;fill-rule:nonzero;"/><rect x="29.87" y="10.258" width="1.918" height="73.237" style="fill:#f38bb9;"/><rect x="24.216" y="10.258" width="1.918" height="73.237" style="fill:#f38bb9;"/><g opacity="0.16"><path d="M29.432,82.096c0.295,0 0.536,-0.241 0.536,-0.536l0,-69.834c0,-0.294 -0.241,-0.536 -0.536,-0.536c-0.295,0 -0.536,0.242 -0.536,0.536l0,69.834c0,0.295 0.241,0.536 0.536,0.536" style="fill:#fff;fill-rule:nonzero;"/></g><path d="M15.387,84.079c-0.323,0 -0.583,-0.262 -0.583,-0.583l0,-73.238c0,-0.322 0.26,-0.583 0.583,-0.583l7.799,0c0.323,0 0.583,0.261 0.583,0.583l0,73.238c0,0.321 -0.26,0.583 -0.583,0.583l-7.799,0Z" style="fill:#2f93d1;fill-rule:nonzero;"/><path d="M23.187,9.091l-7.799,0c-0.644,0 -1.167,0.522 -1.167,1.167l0,73.237c0,0.644 0.523,1.167 1.167,1.167l7.799,0c0.644,0 1.167,-0.523 1.167,-1.167l0,-73.237c0,-0.645 -0.523,-1.167 -1.167,-1.167m0,74.404l-7.799,0l0,-73.237l7.799,0l0,73.237Z" style="fill:#231f20;fill-rule:nonzero;"/><rect x="21.138" y="10.258" width="1.918" height="73.237" style="fill:#038ccd;"/><rect x="15.484" y="10.258" width="1.918" height="73.237" style="fill:#038ccd;"/><g opacity="0.16"><path d="M20.701,82.096c0.295,0 0.536,-0.241 0.536,-0.536l0,-69.834c0,-0.294 -0.241,-0.536 -0.536,-0.536c-0.295,0 -0.536,0.242 -0.536,0.536l0,69.834c0,0.295 0.241,0.536 0.536,0.536" style="fill:#fff;fill-rule:nonzero;"/></g><path d="M6.656,84.079c-0.323,0 -0.583,-0.262 -0.583,-0.583l0,-73.238c0,-0.322 0.26,-0.583 0.583,-0.583l7.799,0c0.322,0 0.583,0.261 0.583,0.583l0,73.238c0,0.321 -0.261,0.583 -0.583,0.583l-7.799,0Z" style="fill:#dedfe0;fill-rule:nonzero;"/><path d="M14.455,9.091l-7.799,0c-0.644,0 -1.167,0.522 -1.167,1.167l0,73.237c0,0.644 0.523,1.167 1.167,1.167l7.799,0c0.644,0 1.167,-0.523 1.167,-1.167l0,-73.237c0,-0.645 -0.523,-1.167 -1.167,-1.167m0,74.404l-7.799,0l0,-73.237l7.799,0l0,73.237Z" style="fill:#231f20;fill-rule:nonzero;"/><rect x="12.408" y="10.258" width="1.918" height="73.237" style="fill:#d1d3d4;"/><rect x="6.753" y="10.258" width="1.918" height="73.237" style="fill:#d1d3d4;"/><g opacity="0.16"><path d="M11.969,82.096c0.295,0 0.536,-0.241 0.536,-0.536l0,-69.834c0,-0.294 -0.241,-0.536 -0.536,-0.536c-0.295,0 -0.536,0.242 -0.536,0.536l0,69.834c0,0.295 0.241,0.536 0.536,0.536" style="fill:#fff;fill-rule:nonzero;"/></g><path d="M87.683,84.035c-0.333,0 -0.605,-0.27 -0.605,-0.605l0,-73.663c0,-0.333 0.272,-0.604 0.605,-0.604l8.331,0c0.333,0 0.604,0.271 0.604,0.604l0,73.663c0,0.335 -0.271,0.605 -0.604,0.605l-8.331,0Z" style="fill:#00bbf2;fill-rule:nonzero;"/><path d="M96.013,8.558l-8.331,0c-0.667,0 -1.208,0.541 -1.208,1.209l0,73.663c0,0.667 0.541,1.209 1.208,1.209l8.331,0c0.668,0 1.209,-0.542 1.209,-1.209l0,-73.663c0,-0.668 -0.541,-1.209 -1.209,-1.209m0,74.872l-8.331,0l0,-73.664l8.331,0l0,73.664Z" style="fill:#231f20;fill-rule:nonzero;"/><rect x="93.826" y="9.766" width="2.048" height="73.664" style="fill:#00a7e4;"/><rect x="87.787" y="9.766" width="2.048" height="73.664" style="fill:#00a7e4;"/><g opacity="0.16"><path d="M92.785,81.322c0,0.386 0.236,0.703 0.525,0.703l0.095,0c0.29,0 0.526,-0.317 0.526,-0.703l0,-69.914c0,-0.388 -0.236,-0.703 -0.526,-0.703l-0.095,0c-0.289,0 -0.525,0.315 -0.525,0.703" style="fill:#fff;fill-rule:nonzero;"/></g><path d="M78.357,84.035c-0.333,0 -0.605,-0.27 -0.605,-0.605l0,-73.663c0,-0.333 0.272,-0.604 0.605,-0.604l8.331,0c0.333,0 0.604,0.271 0.604,0.604l0,73.663c0,0.335 -0.271,0.605 -0.604,0.605l-8.331,0Z" style="fill:#73c380;fill-rule:nonzero;"/><path d="M86.687,8.558l-8.331,0c-0.667,0 -1.209,0.541 -1.209,1.209l0,73.663c0,0.667 0.542,1.209 1.209,1.209l8.331,0c0.668,0 1.209,-0.542 1.209,-1.209l0,-73.663c0,-0.668 -0.541,-1.209 -1.209,-1.209m0,74.872l-8.331,0l0,-73.664l8.331,0l0,73.664Z" style="fill:#231f20;fill-rule:nonzero;"/><rect x="84.5" y="9.766" width="2.048" height="73.664" style="fill:#36b772;"/><rect x="78.46" y="9.766" width="2.048" height="73.664" style="fill:#36b772;"/><g opacity="0.16"><path d="M84.032,82.025c0.315,0 0.572,-0.258 0.572,-0.573l0,-70.175c0,-0.315 -0.257,-0.573 -0.572,-0.573c-0.316,0 -0.573,0.258 -0.573,0.573l0,70.175c0,0.315 0.257,0.573 0.573,0.573" style="fill:#fff;fill-rule:nonzero;"/></g><path d="M69.031,84.035c-0.333,0 -0.605,-0.27 -0.605,-0.605l0,-73.663c0,-0.333 0.272,-0.604 0.605,-0.604l8.33,0c0.334,0 0.605,0.271 0.605,0.604l0,73.663c0,0.335 -0.271,0.605 -0.605,0.605l-8.33,0Z" style="fill:#ffd663;fill-rule:nonzero;"/><path d="M77.361,8.558l-8.331,0c-0.667,0 -1.209,0.541 -1.209,1.209l0,73.663c0,0.667 0.542,1.209 1.209,1.209l8.331,0c0.668,0 1.209,-0.542 1.209,-1.209l0,-73.663c0,-0.668 -0.541,-1.209 -1.209,-1.209m0,74.872l-8.331,0l0,-73.664l8.331,0l0,73.664Z" style="fill:#231f20;fill-rule:nonzero;"/><rect x="75.174" y="9.766" width="2.048" height="73.664" style="fill:#ffc844;"/><rect x="69.134" y="9.766" width="2.048" height="73.664" style="fill:#ffc844;"/><g opacity="0.16"><path d="M74.705,82.025c0.315,0 0.573,-0.258 0.573,-0.573l0,-70.175c0,-0.315 -0.258,-0.573 -0.573,-0.573c-0.315,0 -0.572,0.258 -0.572,0.573l0,70.175c0,0.315 0.257,0.573 0.572,0.573" style="fill:#fff;fill-rule:nonzero;"/></g><path d="M59.705,84.035c-0.333,0 -0.605,-0.27 -0.605,-0.605l0,-73.663c0,-0.333 0.272,-0.604 0.605,-0.604l8.33,0c0.334,0 0.605,0.271 0.605,0.604l0,73.663c0,0.335 -0.271,0.605 -0.605,0.605l-8.33,0Z" style="fill:#f8983e;fill-rule:nonzero;"/><path d="M68.035,8.558l-8.33,0c-0.668,0 -1.209,0.541 -1.209,1.209l0,73.663c0,0.667 0.541,1.209 1.209,1.209l8.33,0c0.668,0 1.209,-0.542 1.209,-1.209l0,-73.663c0,-0.668 -0.541,-1.209 -1.209,-1.209m0,74.872l-8.33,0l0,-73.664l8.33,0l0,73.664Z" style="fill:#231f20;fill-rule:nonzero;"/><rect x="65.848" y="9.766" width="2.048" height="73.664" style="fill:#f6883c;"/><rect x="59.808" y="9.766" width="2.048" height="73.664" style="fill:#f6883c;"/><g opacity="0.16"><path d="M65.379,82.025c0.315,0 0.573,-0.258 0.573,-0.573l0,-70.175c0,-0.315 -0.258,-0.573 -0.573,-0.573c-0.315,0 -0.573,0.258 -0.573,0.573l0,70.175c0,0.315 0.258,0.573 0.573,0.573" style="fill:#fff;fill-rule:nonzero;"/></g><path d="M50.379,84.035c-0.333,0 -0.605,-0.27 -0.605,-0.605l0,-73.663c0,-0.333 0.272,-0.604 0.605,-0.604l8.33,0c0.334,0 0.605,0.271 0.605,0.604l0,73.663c0,0.335 -0.271,0.605 -0.605,0.605l-8.33,0Z" style="fill:#f26a38;fill-rule:nonzero;"/><path d="M58.709,8.558l-8.33,0c-0.668,0 -1.209,0.541 -1.209,1.209l0,73.663c0,0.667 0.541,1.209 1.209,1.209l8.33,0c0.668,0 1.209,-0.542 1.209,-1.209l0,-73.663c0,-0.668 -0.541,-1.209 -1.209,-1.209m0,74.872l-8.33,0l0,-73.664l8.33,0l0,73.664Z" style="fill:#231f20;fill-rule:nonzero;"/><rect x="56.522" y="9.766" width="2.048" height="73.664" style="fill:#f15837;"/><rect x="50.483" y="9.766" width="2.048" height="73.664" style="fill:#f15837;"/><g opacity="0.16"><path d="M56.053,82.025c0.315,0 0.573,-0.258 0.573,-0.573l0,-70.175c0,-0.315 -0.258,-0.573 -0.573,-0.573c-0.315,0 -0.573,0.258 -0.573,0.573l0,70.175c0,0.315 0.258,0.573 0.573,0.573" style="fill:#fff;fill-rule:nonzero;"/></g><path d="M10.496,11.54c-2.19,0 -4.548,-0.643 -4.548,-2.054c0,-1.412 2.358,-2.055 4.548,-2.055c2.19,0 4.547,0.643 4.547,2.055c0,1.411 -2.357,2.054 -4.547,2.054" style="fill:#dedfe0;fill-rule:nonzero;"/><path d="M10.496,6.867c-2.544,0 -5.111,0.81 -5.111,2.619c0,1.809 2.567,2.618 5.111,2.618c2.544,0 5.111,-0.809 5.111,-2.618c0,-1.809 -2.567,-2.619 -5.111,-2.619m0,1.128c2.2,0 3.983,0.668 3.983,1.491c0,0.823 -1.783,1.49 -3.983,1.49c-2.2,0 -3.984,-0.667 -3.984,-1.49c0,-0.823 1.784,-1.491 3.984,-1.491" style="fill:#231f20;fill-rule:nonzero;"/><path d="M19.343,11.559c-2.201,0 -4.429,-0.713 -4.429,-2.074c0,-1.361 2.228,-2.074 4.429,-2.074c2.201,0 4.429,0.713 4.429,2.074c0,1.361 -2.228,2.074 -4.429,2.074" style="fill:#2f93d1;fill-rule:nonzero;"/><path d="M19.343,6.829c-2.495,0 -5.012,0.821 -5.012,2.657c0,1.836 2.517,2.657 5.012,2.657c2.495,0 5.012,-0.821 5.012,-2.657c0,-1.836 -2.517,-2.657 -5.012,-2.657m0,1.167c2.124,0 3.846,0.667 3.846,1.49c0,0.824 -1.722,1.491 -3.846,1.491c-2.124,0 -3.846,-0.667 -3.846,-1.491c0,-0.823 1.722,-1.49 3.846,-1.49" style="fill:#231f20;fill-rule:nonzero;"/><path d="M27.772,11.559c-2.111,0 -4.249,-0.713 -4.249,-2.074c0,-1.361 2.138,-2.074 4.249,-2.074c2.111,0 4.249,0.713 4.249,2.074c0,1.361 -2.138,2.074 -4.249,2.074" style="fill:#f5a2c6;fill-rule:nonzero;"/><path d="M27.772,6.829c-2.328,0 -4.832,0.832 -4.832,2.657c0,1.826 2.504,2.657 4.832,2.657c2.328,0 4.832,-0.831 4.832,-2.657c0,-1.825 -2.504,-2.657 -4.832,-2.657m0,1.167c2.025,0 3.666,0.667 3.666,1.49c0,0.824 -1.641,1.491 -3.666,1.491c-2.025,0 -3.666,-0.667 -3.666,-1.491c0,-0.823 1.641,-1.49 3.666,-1.49" style="fill:#231f20;fill-rule:nonzero;"/><path d="M36.405,11.559c-2.111,0 -4.249,-0.713 -4.249,-2.074c0,-1.361 2.138,-2.074 4.249,-2.074c2.111,0 4.249,0.713 4.249,2.074c0,1.361 -2.138,2.074 -4.249,2.074" style="fill:#6f7073;fill-rule:nonzero;"/><path d="M36.405,6.829c-2.328,0 -4.832,0.832 -4.832,2.657c0,1.826 2.504,2.657 4.832,2.657c2.328,0 4.832,-0.831 4.832,-2.657c0,-1.825 -2.504,-2.657 -4.832,-2.657m0,1.167c2.025,0 3.666,0.667 3.666,1.49c0,0.824 -1.641,1.491 -3.666,1.491c-2.025,0 -3.666,-0.667 -3.666,-1.491c0,-0.823 1.641,-1.49 3.666,-1.49" style="fill:#231f20;fill-rule:nonzero;"/><path d="M45.23,11.559c-2.111,0 -4.249,-0.713 -4.249,-2.074c0,-1.361 2.138,-2.074 4.249,-2.074c2.111,0 4.249,0.713 4.249,2.074c0,1.361 -2.138,2.074 -4.249,2.074" style="fill:#8596cc;fill-rule:nonzero;"/><path d="M45.23,6.829c-2.328,0 -4.832,0.832 -4.832,2.657c0,1.826 2.504,2.657 4.832,2.657c2.328,0 4.832,-0.831 4.832,-2.657c0,-1.825 -2.504,-2.657 -4.832,-2.657m0,1.167c2.025,0 3.666,0.667 3.666,1.49c0,0.824 -1.641,1.491 -3.666,1.491c-2.025,0 -3.666,-0.667 -3.666,-1.491c0,-0.823 1.641,-1.49 3.666,-1.49" style="fill:#231f20;fill-rule:nonzero;"/><path d="M54.477,11.581c-2.122,0 -4.27,-0.72 -4.27,-2.094c0,-1.376 2.148,-2.096 4.27,-2.096c2.122,0 4.27,0.72 4.27,2.096c0,1.374 -2.148,2.094 -4.27,2.094" style="fill:#f26a38;fill-rule:nonzero;"/><path d="M54.477,6.787c-2.869,0 -4.874,1.109 -4.874,2.699c0,1.589 2.005,2.699 4.874,2.699c2.869,0 4.874,-1.11 4.874,-2.699c0,-1.59 -2.005,-2.699 -4.874,-2.699m0,1.208c2.025,0 3.666,0.668 3.666,1.491c0,0.823 -1.641,1.49 -3.666,1.49c-2.025,0 -3.666,-0.667 -3.666,-1.49c0,-0.823 1.641,-1.491 3.666,-1.491" style="fill:#231f20;fill-rule:nonzero;"/><path d="M63.724,11.581c-2.122,0 -4.27,-0.72 -4.27,-2.094c0,-1.376 2.148,-2.096 4.27,-2.096c2.122,0 4.271,0.72 4.271,2.096c0,1.374 -2.149,2.094 -4.271,2.094" style="fill:#f8983e;fill-rule:nonzero;"/><path d="M63.724,6.787c-2.869,0 -4.874,1.109 -4.874,2.699c0,1.589 2.005,2.699 4.874,2.699c2.869,0 4.874,-1.11 4.874,-2.699c0,-1.59 -2.005,-2.699 -4.874,-2.699m0,1.208c2.025,0 3.666,0.668 3.666,1.491c0,0.823 -1.641,1.49 -3.666,1.49c-2.025,0 -3.666,-0.667 -3.666,-1.49c0,-0.823 1.641,-1.491 3.666,-1.491" style="fill:#231f20;fill-rule:nonzero;"/><path d="M73.086,11.581c-2.122,0 -4.271,-0.72 -4.271,-2.094c0,-1.376 2.149,-2.096 4.271,-2.096c2.122,0 4.27,0.72 4.27,2.096c0,1.374 -2.148,2.094 -4.27,2.094" style="fill:#ffd663;fill-rule:nonzero;"/><path d="M73.086,6.787c-2.869,0 -4.874,1.109 -4.874,2.699c0,1.589 2.005,2.699 4.874,2.699c2.869,0 4.874,-1.11 4.874,-2.699c0,-1.59 -2.005,-2.699 -4.874,-2.699m0,1.208c2.025,0 3.666,0.668 3.666,1.491c0,0.823 -1.641,1.49 -3.666,1.49c-2.025,0 -3.666,-0.667 -3.666,-1.49c0,-0.823 1.641,-1.491 3.666,-1.491" style="fill:#231f20;fill-rule:nonzero;"/><path d="M82.563,11.581c-2.122,0 -4.27,-0.72 -4.27,-2.094c0,-1.376 2.148,-2.096 4.27,-2.096c2.122,0 4.271,0.72 4.271,2.096c0,1.374 -2.149,2.094 -4.271,2.094" style="fill:#73c380;fill-rule:nonzero;"/><path d="M82.563,6.787c-2.869,0 -4.874,1.109 -4.874,2.699c0,1.589 2.005,2.699 4.874,2.699c2.869,0 4.874,-1.11 4.874,-2.699c0,-1.59 -2.005,-2.699 -4.874,-2.699m0,1.208c2.025,0 3.666,0.668 3.666,1.491c0,0.823 -1.641,1.49 -3.666,1.49c-2.025,0 -3.666,-0.667 -3.666,-1.49c0,-0.823 1.641,-1.491 3.666,-1.491" style="fill:#231f20;fill-rule:nonzero;"/><path d="M91.81,11.581c-2.122,0 -4.271,-0.72 -4.271,-2.094c0,-1.376 2.149,-2.096 4.271,-2.096c2.122,0 4.27,0.72 4.27,2.096c0,1.374 -2.148,2.094 -4.27,2.094" style="fill:#00bbf2;fill-rule:nonzero;"/><path d="M91.81,6.787c-2.869,0 -4.874,1.109 -4.874,2.699c0,1.589 2.005,2.699 4.874,2.699c2.869,0 4.874,-1.11 4.874,-2.699c0,-1.59 -2.005,-2.699 -4.874,-2.699m0,1.208c2.025,0 3.666,0.668 3.666,1.491c0,0.823 -1.641,1.49 -3.666,1.49c-2.025,0 -3.666,-0.667 -3.666,-1.49c0,-0.823 1.641,-1.491 3.666,-1.491" style="fill:#231f20;fill-rule:nonzero;"/><path d="M124.878,84.035c-0.333,0 -0.605,-0.27 -0.605,-0.605l0,-73.663c0,-0.333 0.272,-0.604 0.605,-0.604l8.331,0c0.333,0 0.604,0.271 0.604,0.604l0,73.663c0,0.335 -0.271,0.605 -0.604,0.605l-8.331,0Z" style="fill:#d1b39b;fill-rule:nonzero;"/><path d="M133.208,8.558l-8.331,0c-0.667,0 -1.208,0.541 -1.208,1.209l0,73.663c0,0.667 0.541,1.209 1.208,1.209l8.331,0c0.668,0 1.209,-0.542 1.209,-1.209l0,-73.663c0,-0.668 -0.541,-1.209 -1.209,-1.209m0,74.872l-8.331,0l0,-73.664l8.331,0l0,73.664Z" style="fill:#231f20;fill-rule:nonzero;"/><rect x="131.022" y="9.766" width="2.048" height="73.664" style="fill:#c39a73;"/><rect x="124.982" y="9.766" width="2.048" height="73.664" style="fill:#c39a73;"/><g opacity="0.16"><path d="M129.98,81.322c0,0.386 0.236,0.703 0.525,0.703l0.095,0c0.29,0 0.526,-0.317 0.526,-0.703l0,-69.914c0,-0.388 -0.236,-0.703 -0.526,-0.703l-0.095,0c-0.289,0 -0.525,0.315 -0.525,0.703" style="fill:#fff;fill-rule:nonzero;"/></g><path d="M115.552,84.035c-0.333,0 -0.605,-0.27 -0.605,-0.605l0,-73.663c0,-0.333 0.272,-0.604 0.605,-0.604l8.331,0c0.333,0 0.604,0.271 0.604,0.604l0,73.663c0,0.335 -0.271,0.605 -0.604,0.605l-8.331,0Z" style="fill:#c6dd7b;fill-rule:nonzero;"/><path d="M123.882,8.558l-8.331,0c-0.667,0 -1.209,0.541 -1.209,1.209l0,73.663c0,0.667 0.542,1.209 1.209,1.209l8.331,0c0.668,0 1.209,-0.542 1.209,-1.209l0,-73.663c0,-0.668 -0.541,-1.209 -1.209,-1.209m0,74.872l-8.331,0l0,-73.664l8.331,0l0,73.664Z" style="fill:#231f20;fill-rule:nonzero;"/><rect x="121.695" y="9.766" width="2.048" height="73.664" style="fill:#acd58a;"/><rect x="115.656" y="9.766" width="2.048" height="73.664" style="fill:#acd58a;"/><g opacity="0.16"><path d="M121.227,82.025c0.315,0 0.572,-0.258 0.572,-0.573l0,-70.175c0,-0.315 -0.257,-0.573 -0.572,-0.573c-0.315,0 -0.573,0.258 -0.573,0.573l0,70.175c0,0.315 0.258,0.573 0.573,0.573" style="fill:#fff;fill-rule:nonzero;"/></g><path d="M106.226,84.035c-0.333,0 -0.605,-0.27 -0.605,-0.605l0,-73.663c0,-0.333 0.272,-0.604 0.605,-0.604l8.331,0c0.333,0 0.604,0.271 0.604,0.604l0,73.663c0,0.335 -0.271,0.605 -0.604,0.605l-8.331,0Z" style="fill:#837fa1;fill-rule:nonzero;"/><path d="M114.556,8.558l-8.331,0c-0.667,0 -1.209,0.541 -1.209,1.209l0,73.663c0,0.667 0.542,1.209 1.209,1.209l8.331,0c0.668,0 1.209,-0.542 1.209,-1.209l0,-73.663c0,-0.668 -0.541,-1.209 -1.209,-1.209m0,74.872l-8.331,0l0,-73.664l8.331,0l0,73.664Z" style="fill:#231f20;fill-rule:nonzero;"/><rect x="112.369" y="9.766" width="2.048" height="73.664" style="fill:#5d5da9;"/><rect x="106.33" y="9.766" width="2.048" height="73.664" style="fill:#5d5da9;"/><g opacity="0.16"><path d="M111.901,82.025c0.315,0 0.572,-0.258 0.572,-0.573l0,-70.175c0,-0.315 -0.257,-0.573 -0.572,-0.573c-0.315,0 -0.573,0.258 -0.573,0.573l0,70.175c0,0.315 0.258,0.573 0.573,0.573" style="fill:#fff;fill-rule:nonzero;"/></g><path d="M96.899,84.035c-0.333,0 -0.605,-0.27 -0.605,-0.605l0,-73.663c0,-0.333 0.272,-0.604 0.605,-0.604l8.331,0c0.333,0 0.604,0.271 0.604,0.604l0,73.663c0,0.335 -0.271,0.605 -0.604,0.605l-8.331,0Z" style="fill:#f4878d;fill-rule:nonzero;"/><path d="M105.23,8.558l-8.331,0c-0.667,0 -1.209,0.541 -1.209,1.209l0,73.663c0,0.667 0.542,1.209 1.209,1.209l8.331,0c0.668,0 1.209,-0.542 1.209,-1.209l0,-73.663c0,-0.668 -0.541,-1.209 -1.209,-1.209m0,74.872l-8.331,0l0,-73.664l8.331,0l0,73.664Z" style="fill:#231f20;fill-rule:nonzero;"/><rect x="103.043" y="9.766" width="2.048" height="73.664" style="fill:#d3426d;"/><rect x="97.004" y="9.766" width="2.048" height="73.664" style="fill:#d3426d;"/><g opacity="0.16"><path d="M102.574,82.025c0.315,0 0.573,-0.258 0.573,-0.573l0,-70.175c0,-0.315 -0.258,-0.573 -0.573,-0.573c-0.315,0 -0.572,0.258 -0.572,0.573l0,70.175c0,0.315 0.257,0.573 0.572,0.573" style="fill:#fff;fill-rule:nonzero;"/></g><path d="M100.919,11.581c-2.122,0 -4.27,-0.72 -4.27,-2.094c0,-1.376 2.148,-2.096 4.27,-2.096c2.122,0 4.271,0.72 4.271,2.096c0,1.374 -2.149,2.094 -4.271,2.094" style="fill:#cc445e;fill-rule:nonzero;"/><path d="M100.919,6.787c-2.869,0 -4.874,1.109 -4.874,2.699c0,1.589 2.005,2.699 4.874,2.699c2.869,0 4.874,-1.11 4.874,-2.699c0,-1.59 -2.005,-2.699 -4.874,-2.699m0,1.208c2.025,0 3.666,0.668 3.666,1.491c0,0.823 -1.641,1.49 -3.666,1.49c-2.025,0 -3.666,-0.667 -3.666,-1.49c0,-0.823 1.641,-1.491 3.666,-1.491" style="fill:#231f20;fill-rule:nonzero;"/><path d="M110.281,11.581c-2.122,0 -4.27,-0.72 -4.27,-2.094c0,-1.376 2.148,-2.096 4.27,-2.096c2.122,0 4.271,0.72 4.271,2.096c0,1.374 -2.149,2.094 -4.271,2.094" style="fill:#554f93;fill-rule:nonzero;"/><path d="M110.281,6.787c-2.869,0 -4.874,1.109 -4.874,2.699c0,1.589 2.005,2.699 4.874,2.699c2.869,0 4.874,-1.11 4.874,-2.699c0,-1.59 -2.005,-2.699 -4.874,-2.699m0,1.208c2.025,0 3.666,0.668 3.666,1.491c0,0.823 -1.641,1.49 -3.666,1.49c-2.025,0 -3.666,-0.667 -3.666,-1.49c0,-0.823 1.641,-1.491 3.666,-1.491" style="fill:#231f20;fill-rule:nonzero;"/><path d="M119.758,11.581c-2.122,0 -4.27,-0.72 -4.27,-2.094c0,-1.376 2.148,-2.096 4.27,-2.096c2.122,0 4.27,0.72 4.27,2.096c0,1.374 -2.148,2.094 -4.27,2.094" style="fill:#a9d7ae;fill-rule:nonzero;"/><path d="M119.759,6.787c-2.869,0 -4.874,1.109 -4.874,2.699c0,1.589 2.005,2.699 4.874,2.699c2.869,0 4.874,-1.11 4.874,-2.699c0,-1.59 -2.005,-2.699 -4.874,-2.699m0,1.208c2.025,0 3.666,0.668 3.666,1.491c0,0.823 -1.641,1.49 -3.666,1.49c-2.025,0 -3.666,-0.667 -3.666,-1.49c0,-0.823 1.641,-1.491 3.666,-1.491" style="fill:#231f20;fill-rule:nonzero;"/><path d="M129.005,11.581c-2.122,0 -4.271,-0.72 -4.271,-2.094c0,-1.376 2.149,-2.096 4.271,-2.096c2.122,0 4.27,0.72 4.27,2.096c0,1.374 -2.148,2.094 -4.27,2.094" style="fill:#cc9e90;fill-rule:nonzero;"/><path d="M129.005,6.787c-2.869,0 -4.874,1.109 -4.874,2.699c0,1.589 2.005,2.699 4.874,2.699c2.869,0 4.874,-1.11 4.874,-2.699c0,-1.59 -2.005,-2.699 -4.874,-2.699m0,1.208c2.025,0 3.666,0.668 3.666,1.491c0,0.823 -1.641,1.49 -3.666,1.49c-2.025,0 -3.666,-0.667 -3.666,-1.49c0,-0.823 1.641,-1.491 3.666,-1.491" style="fill:#231f20;fill-rule:nonzero;"/><rect x="3.861" y="36.979" width="130.934" height="32.072" style="fill:#2a7fc2;"/><rect x="3.862" y="39.086" width="131.792" height="2.467" style="fill:#77d2f7;"/><rect x="3.862" y="64.065" width="131.792" height="2.467" style="fill:#77d2f7;"/></g></svg>