<?xml version="1.0" encoding="UTF-8" standalone="no"?><!DOCTYPE svg PUBLIC "-//W3C//DTD SVG 1.1//EN" "http://www.w3.org/Graphics/SVG/1.1/DTD/svg11.dtd"><svg width="100%" height="100%" viewBox="0 0 20 24" version="1.1" xmlns="http://www.w3.org/2000/svg" xmlns:xlink="http://www.w3.org/1999/xlink" xml:space="preserve" xmlns:serif="http://www.serif.com/" style="fill-rule:evenodd;clip-rule:evenodd;stroke-linejoin:round;stroke-miterlimit:2;"><g><path d="M9.966,8.505c-0.135,-0.332 -0.291,-0.657 -0.397,-0.997c-0.309,-0.992 -0.578,-1.998 -0.9,-2.987c-0.252,-0.772 -0.552,-1.531 -0.845,-2.29c-0.091,-0.237 -0.178,-0.267 -0.403,-0.168c-0.155,0.069 -0.313,0.159 -0.433,0.277c-0.675,0.661 -0.735,0.384 -0.192,1.28c0.36,0.592 0.748,1.17 1.06,1.787c0.468,0.928 0.88,1.886 1.317,2.83c0.219,0.47 0.221,0.469 0.793,0.268m0.455,-0.106c0.098,-0.299 0.18,-0.556 0.267,-0.812c0.227,-0.68 0.517,-1.333 0.982,-1.881c0.449,-0.527 0.936,-1.022 1.416,-1.522c0.168,-0.174 0.358,-0.328 0.551,-0.475c0.15,-0.113 0.316,-0.219 0.583,-0.081c-0.117,0.129 -0.209,0.242 -0.312,0.345c-0.554,0.548 -1.128,1.079 -1.664,1.644c-0.742,0.785 -1.174,1.737 -1.409,2.789c0.428,0.043 0.423,0.03 0.813,-0.133c1.289,-0.541 2.26,-1.47 3.084,-2.562c0.255,-0.339 0.432,-0.749 0.581,-1.15c0.188,-0.502 0.306,-1.03 0.46,-1.544c0.185,-0.617 0.154,-1.233 -0.007,-1.846c-0.19,-0.722 -0.282,-0.76 -0.949,-0.408c-0.2,0.104 -0.39,0.226 -0.583,0.343c-0.632,0.379 -1.124,0.922 -1.659,1.414c-1.136,1.048 -1.817,2.351 -2.168,3.834c-0.157,0.66 -0.226,1.333 0.014,2.045m1.155,0.342c0.32,0.091 0.519,0.143 0.714,0.205c0.214,0.067 0.428,0.135 0.632,0.228c0.051,0.023 0.081,0.142 0.076,0.214c-0.003,0.037 -0.104,0.092 -0.162,0.094c-0.101,0.004 -0.204,-0.02 -0.305,-0.045c-0.438,-0.105 -0.876,-0.209 -1.312,-0.323c-0.776,-0.203 -1.553,-0.116 -2.319,0.029c-0.369,0.07 -0.717,0.249 -1.075,0.38c-0.219,0.079 -0.438,0.149 -0.708,-0.038c0.639,-0.364 1.24,-0.651 1.925,-0.831c-0.26,-0.529 -0.527,-0.995 -0.717,-1.49c-0.191,-0.5 -0.544,-0.695 -1.034,-0.709c-0.657,-0.02 -1.318,-0.089 -1.955,0.165c-0.109,0.043 -0.237,0.045 -0.357,0.063c-1.192,0.177 -2.269,0.617 -3.195,1.403c-0.505,0.429 -0.851,0.951 -1.006,1.6c-0.216,0.899 -0.309,1.807 -0.294,2.732c0.014,0.793 0.161,1.557 0.507,2.265c0.489,1 0.878,2.037 1.253,3.082c0.32,0.886 0.822,1.683 1.342,2.46c0.422,0.633 0.932,1.206 1.398,1.811c0.464,0.604 1.038,1.011 1.823,1.072c0.439,0.034 0.879,0.065 1.331,-0.022c-0.092,-0.195 -0.167,-0.354 -0.249,-0.528c0.086,-0.007 0.128,-0.024 0.149,-0.011c0.142,0.099 0.294,0.188 0.417,0.307c0.774,0.75 2.445,1.037 3.58,0.239c0.224,-0.156 0.424,-0.347 0.651,-0.499c0.069,-0.047 0.187,-0.021 0.283,-0.028c0.005,0.08 0.034,0.168 0.009,0.237c-0.038,0.106 -0.112,0.2 -0.186,0.324c0.553,0.202 1.093,0.173 1.617,0.087c0.567,-0.094 1.13,-0.284 1.508,-0.749c0.315,-0.388 0.604,-0.81 0.828,-1.255c0.379,-0.758 0.702,-1.544 1.041,-2.323c0.506,-1.166 0.721,-2.424 1.117,-3.624c0.07,-0.212 0.09,-0.442 0.118,-0.664c0.116,-0.945 0.186,-1.897 0.349,-2.834c0.141,-0.817 0.058,-1.57 -0.268,-2.331c-0.472,-1.105 -1.263,-1.896 -2.3,-2.45c-0.391,-0.211 -0.849,-0.296 -1.253,-0.489c-0.491,-0.234 -0.829,-0.12 -1.179,0.284c-0.667,0.766 -1.463,1.38 -2.415,1.77c-0.094,0.039 -0.183,0.093 -0.379,0.192m3.591,-2.805c0.277,0.108 0.525,0.236 0.79,0.302c1.217,0.307 2.131,1.053 2.903,1.997c0.519,0.634 0.732,1.413 0.955,2.177c0.065,0.223 0.032,0.484 0.003,0.722c-0.078,0.653 -0.182,1.303 -0.266,1.955c-0.078,0.601 -0.142,1.204 -0.219,1.805c-0.018,0.154 -0.045,0.31 -0.088,0.458c-0.329,1.131 -0.653,2.264 -1.005,3.387c-0.119,0.378 -0.318,0.73 -0.477,1.095c-0.174,0.396 -0.367,0.787 -0.512,1.193c-0.237,0.669 -0.627,1.245 -1.091,1.757c-0.46,0.506 -1.094,0.74 -1.772,0.77c-0.498,0.024 -1.001,-0.035 -1.5,-0.074c-0.33,-0.025 -0.639,-0.055 -0.959,0.11c-1.057,0.543 -2.113,0.418 -3.144,-0.091c-0.2,-0.098 -0.354,-0.113 -0.577,-0.055c-0.346,0.09 -0.719,0.095 -1.08,0.096c-1.04,0.003 -1.869,-0.415 -2.493,-1.261c-0.442,-0.601 -0.952,-1.154 -1.369,-1.769c-0.543,-0.803 -1.072,-1.626 -1.402,-2.545c-0.375,-1.045 -0.762,-2.083 -1.245,-3.086c-0.371,-0.772 -0.541,-1.6 -0.548,-2.466c-0.008,-0.925 0.081,-1.83 0.277,-2.734c0.182,-0.844 0.632,-1.495 1.289,-2.015c0.918,-0.726 1.954,-1.181 3.125,-1.308c0.155,-0.016 0.314,-0.036 0.459,-0.087c0.85,-0.299 1.707,-0.222 2.625,-0.052c-0.048,-0.134 -0.072,-0.246 -0.125,-0.34c-0.35,-0.618 -0.704,-1.235 -1.062,-1.847c-0.157,-0.271 -0.343,-0.524 -0.49,-0.799c-0.157,-0.294 -0.102,-0.516 0.144,-0.742c0.18,-0.163 0.355,-0.334 0.548,-0.48c0.149,-0.112 0.315,-0.221 0.491,-0.278c0.415,-0.134 0.606,-0.047 0.785,0.356c0.351,0.791 0.679,1.59 0.898,2.436c0.241,0.939 0.556,1.857 0.876,2.905c0.034,-0.408 0.027,-0.697 0.086,-0.972c0.347,-1.655 1.088,-3.095 2.336,-4.262c0.724,-0.678 1.437,-1.362 2.339,-1.804c0.233,-0.114 0.47,-0.225 0.713,-0.316c0.247,-0.092 0.364,-0.051 0.469,0.175c0.398,0.851 0.61,1.737 0.366,2.674c-0.178,0.686 -0.375,1.37 -0.596,2.045c-0.101,0.31 -0.277,0.594 -0.457,0.968" style="fill:#231f20;fill-rule:nonzero;"/><path d="M11.576,8.741c0.197,-0.099 0.285,-0.152 0.38,-0.192c0.951,-0.39 1.747,-1.004 2.414,-1.77c0.35,-0.403 0.688,-0.517 1.179,-0.284c0.404,0.194 0.862,0.278 1.253,0.489c1.037,0.554 1.829,1.345 2.301,2.45c0.325,0.761 0.409,1.515 0.268,2.332c-0.163,0.936 -0.234,1.888 -0.35,2.833c-0.028,0.223 -0.048,0.452 -0.118,0.664c-0.395,1.201 -0.611,2.458 -1.117,3.624c-0.337,0.779 -0.661,1.566 -1.041,2.324c-0.224,0.444 -0.513,0.866 -0.828,1.254c-0.378,0.466 -0.941,0.656 -1.508,0.749c-0.523,0.087 -1.064,0.115 -1.617,-0.087c0.074,-0.124 0.149,-0.217 0.186,-0.324c0.025,-0.069 -0.004,-0.157 -0.009,-0.237c-0.096,0.007 -0.214,-0.019 -0.283,0.027c-0.227,0.154 -0.427,0.344 -0.65,0.501c-1.136,0.797 -2.806,0.51 -3.581,-0.239c-0.123,-0.12 -0.275,-0.209 -0.417,-0.307c-0.021,-0.015 -0.063,0.003 -0.149,0.01c0.082,0.174 0.157,0.333 0.249,0.528c-0.452,0.087 -0.891,0.057 -1.331,0.022c-0.784,-0.061 -1.357,-0.468 -1.822,-1.072c-0.467,-0.605 -0.976,-1.178 -1.399,-1.81c-0.519,-0.777 -1.021,-1.575 -1.341,-2.461c-0.376,-1.045 -0.765,-2.082 -1.254,-3.082c-0.345,-0.707 -0.493,-1.472 -0.506,-2.264c-0.016,-0.926 0.078,-1.834 0.294,-2.733c0.155,-0.649 0.5,-1.171 1.005,-1.6c0.926,-0.786 2.003,-1.226 3.196,-1.403c0.12,-0.017 0.247,-0.02 0.357,-0.063c0.637,-0.254 1.299,-0.185 1.955,-0.165c0.49,0.013 0.842,0.209 1.033,0.709c0.191,0.495 0.457,0.961 0.717,1.491c-0.684,0.18 -1.285,0.467 -1.925,0.83c0.27,0.188 0.489,0.117 0.709,0.038c0.357,-0.13 0.706,-0.31 1.074,-0.38c0.767,-0.144 1.544,-0.232 2.32,-0.029c0.436,0.115 0.873,0.219 1.312,0.323c0.1,0.025 0.204,0.049 0.305,0.045c0.058,-0.001 0.158,-0.057 0.161,-0.093c0.005,-0.073 -0.025,-0.192 -0.076,-0.215c-0.203,-0.093 -0.418,-0.161 -0.631,-0.228c-0.196,-0.062 -0.394,-0.114 -0.715,-0.205" style="fill:#8cc63f;fill-rule:nonzero;"/><path d="M12.793,23.127c0.19,0.069 0.378,0.104 0.564,0.126c0.241,-0.303 0.225,-1.026 0.219,-1.291c-0.011,-0.561 -0.048,-1.699 -0.904,-1.505c-0.965,0.218 -1.239,2.269 -2.461,1.828c-1.138,-0.409 -1.632,-2.029 -2.016,-3.035c-0.048,-0.125 -0.42,-1.271 -0.571,-1.244c-0.132,0.022 -0.142,0.78 -0.149,0.882c-0.036,0.567 0.077,1.296 -0.126,1.834c-0.023,0.061 -0.109,0.083 -0.159,0.038c-1.241,-1.14 -1.895,-2.752 -2.395,-4.327c-0.228,-0.721 -0.408,-1.455 -0.621,-2.181c-0.165,-0.559 -0.341,-1.117 -0.42,-1.696c-0.145,-1.06 0.143,-2.073 1.295,-2.335c1.503,-0.34 2.661,0.864 4.095,0.985c0.675,0.057 1.392,-0.023 2.045,-0.202c0.36,-0.099 0.74,-0.232 1.033,-0.471c0.427,-0.347 0.436,-0.832 0.103,-1.146c-0.369,-0.089 -0.739,-0.177 -1.105,-0.273c-0.776,-0.203 -1.553,-0.116 -2.319,0.029c-0.369,0.07 -0.717,0.25 -1.075,0.379c-0.219,0.08 -0.439,0.151 -0.708,-0.037c0.639,-0.364 1.24,-0.65 1.924,-0.83c-0.259,-0.53 -0.527,-0.996 -0.716,-1.492c-0.191,-0.499 -0.544,-0.694 -1.034,-0.709c-0.657,-0.019 -1.319,-0.087 -1.955,0.165c-0.109,0.044 -0.237,0.047 -0.357,0.063c-1.193,0.177 -2.269,0.618 -3.196,1.405c-0.504,0.427 -0.85,0.95 -1.006,1.599c-0.215,0.898 -0.308,1.807 -0.294,2.732c0.015,0.794 0.162,1.558 0.508,2.265c0.488,1 0.878,2.036 1.253,3.082c0.32,0.886 0.822,1.683 1.342,2.46c0.422,0.632 0.932,1.206 1.398,1.81c0.464,0.604 1.038,1.011 1.822,1.072c0.44,0.036 0.879,0.065 1.332,-0.021c-0.093,-0.195 -0.167,-0.354 -0.249,-0.528c0.086,-0.007 0.128,-0.025 0.148,-0.01c0.143,0.097 0.294,0.188 0.417,0.307c0.775,0.749 2.446,1.035 3.581,0.239c0.223,-0.158 0.424,-0.348 0.651,-0.5c0.069,-0.047 0.187,-0.021 0.283,-0.029c0.005,0.08 0.033,0.169 0.008,0.237c-0.037,0.108 -0.111,0.201 -0.185,0.325" style="fill:#77aa35;fill-rule:nonzero;"/><g opacity="0.7"><path d="M15.667,9.211c-0.181,1.225 -1.923,1.68 -2.565,2.614c-1.04,1.515 1.054,1.902 2.15,1.715c0.818,-0.139 1.319,-0.654 1.919,-1.182c0.373,-0.33 0.904,-0.763 1.442,-0.581c0.32,0.109 0.528,0.382 0.648,0.715c0.033,-0.242 0.068,-0.485 0.11,-0.726c0.141,-0.817 0.057,-1.571 -0.268,-2.332c-0.472,-1.105 -1.264,-1.896 -2.3,-2.45c-0.392,-0.211 -0.85,-0.295 -1.254,-0.489c-0.491,-0.234 -0.829,-0.119 -1.179,0.284c-0.307,0.352 -0.644,0.668 -1.008,0.949c0.992,0.002 2.483,0.272 2.305,1.483" style="fill:#fff;fill-rule:nonzero;"/></g><path d="M10.422,8.399c-0.24,-0.712 -0.171,-1.385 -0.015,-2.044c0.351,-1.484 1.033,-2.788 2.169,-3.834c0.534,-0.493 1.027,-1.036 1.658,-1.415c0.194,-0.117 0.385,-0.238 0.584,-0.343c0.666,-0.352 0.759,-0.313 0.949,0.407c0.162,0.614 0.191,1.23 0.006,1.847c-0.153,0.514 -0.271,1.042 -0.458,1.544c-0.15,0.401 -0.326,0.811 -0.582,1.151c-0.824,1.091 -1.795,2.02 -3.085,2.561c-0.388,0.163 -0.384,0.176 -0.812,0.133c0.235,-1.052 0.667,-2.004 1.409,-2.789c0.536,-0.565 1.109,-1.095 1.664,-1.644c0.102,-0.102 0.195,-0.215 0.312,-0.346c-0.268,-0.137 -0.433,-0.031 -0.583,0.082c-0.193,0.147 -0.383,0.301 -0.551,0.475c-0.48,0.5 -0.967,0.996 -1.415,1.523c-0.466,0.547 -0.756,1.2 -0.984,1.88c-0.085,0.256 -0.168,0.513 -0.266,0.812" style="fill:#0c9344;fill-rule:nonzero;"/><path d="M9.966,8.505c-0.572,0.201 -0.574,0.202 -0.793,-0.268c-0.437,-0.944 -0.849,-1.902 -1.317,-2.83c-0.312,-0.617 -0.7,-1.195 -1.06,-1.787c-0.543,-0.896 -0.483,-0.619 0.192,-1.28c0.12,-0.118 0.278,-0.208 0.433,-0.277c0.225,-0.099 0.312,-0.069 0.403,0.168c0.293,0.759 0.593,1.518 0.845,2.29c0.322,0.989 0.591,1.995 0.9,2.987c0.106,0.34 0.262,0.665 0.397,0.997" style="fill:#c39a6b;fill-rule:nonzero;"/></g></svg>