<svg clip-rule="evenodd" fill-rule="evenodd" stroke-linejoin="round" stroke-miterlimit="2" viewBox="0 0 52 52" xmlns="http://www.w3.org/2000/svg"><g fill-rule="nonzero" transform="translate(-45 -28)"><path d="m47.15 38.41c-1.98-2.38-.04-5.29 1.93-7.04.99-.88 2.28-1.62 3.58-1.9 1.38-.3 2.19.21 3.14 1.08 1.08 1 2.08 2.08 3.1 3.14-1.81 0-3.77 2.13-4.91 3.28s-3.18 3.03-3.33 4.81c-1.2-1.09-2.47-2.12-3.51-3.37z" fill="#cd7f94"/><path d="m50.77 41.95c.01-.01.02-.02.02-.04.05-1.8 2.13-3.69 3.3-4.86 1.17-1.18 3.1-3.31 4.93-3.28.01 0 .01 0 .02-.01.73.21 1.38.66 1.48 1.48-1.83-.04-3.81 2.11-4.96 3.27s-3.22 3.07-3.32 4.86c-.81-.09-1.25-.71-1.47-1.42z" fill="#adbcc5"/><path d="m52.35 43.47c.03-1.8 2.12-3.7 3.29-4.87 1.17-1.18 3.1-3.29 4.92-3.26.72.31 1.31.94 1.69 1.62-1.8-.03-3.78 2.16-4.91 3.3-1.14 1.14-3.09 2.94-3.38 4.69v-.02c0-.02-.04-.02-.04 0 0 .06.01.13.01.19-.7-.32-1.27-.95-1.58-1.65z" fill="#b71c32"/><path d="m55.69 46.93c-.03 0-.07-.03-.06-.08.25-1.84 2.41-3.74 3.63-4.96 1.11-1.1 2.99-3.21 4.72-3.26.02 0 .03.01.04.03.01 0 .01 0 .02.01.02-.01.05-.02.07 0 .01.01.02.02.03.03-.24-.89-1.02-1.49-1.89-1.67-1.78.02-3.67 2.14-4.82 3.29-1.18 1.19-3.24 3.04-3.37 4.85 0 .02-.01.04-.03.05.23.83.85 1.56 1.7 1.78l.01-.01c-.02-.01-.04-.03-.05-.06z" fill="#adbcc5"/><path d="m85.68 72.93c1.21-.21.75-1.05.84-1.91.06-.57.41-.9.91-1.14h.02c.47-.07 1.06-.06 1.5-.23.31-.11.73-.4.88-.7.12-.25-.02-.62-.02-.88 0-.41.06-.72.39-.99.65-.54 1.77-.46 2.26.23l.01-.01c-.77-1.06-1.86-1.94-2.77-2.85-2.43-2.44-4.86-4.87-7.29-7.31-6.11-6.14-12.24-12.27-18.39-18.37-.01-.01-.01-.02-.01-.03-.01 0-.02-.01-.03-.01-1.81.1-3.72 2.32-4.9 3.52-1.16 1.18-3.1 2.9-3.33 4.64v.01c.02.03.04.06.06.08h.01c7.1 7.15 14.25 14.24 21.4 21.33 2.09 2.07 4.17 4.13 6.26 6.21.34.34.7.63 1.08.89-.61-.88-.08-2.38 1.12-2.48z" fill="#e7c14d"/><path d="m95.04 73.81c-.51-1.91-1.2-3.81-1.99-5.56-.14-.3-.3-.58-.49-.85-.01-.01-.02-.02-.04-.02 0 .01-.01.02-.02.01-.85-.77-2.5-.78-2.56.67-.02.39.13.76-.07 1.13-.4.76-1.67.7-2.39.8-1.01.51-.78 1.23-.8 2.16-.01.66-.36.8-.99.9h-.02c-.64.06-1.11.57-1.24 1.18-.15.7.18 1.25.78 1.59.01 0 .01.01.01.01 1.42.79 3.04 1.24 4.62 1.72l1.32.39c-1.92-1.54 2.29-5.54 3.88-4.13z" fill="#e6c5c4"/><path d="m94.12 78.62c-.88-.13-1.76-.34-2.63-.58-2.27-1.52 1.99-5.54 3.6-4.04.25.96.47 1.93.62 2.88.05.34.31 1.34.03 1.65-.33.36-1.21.15-1.62.09z" fill="#5c6466"/><path d="m50.6 30.69c.39.12.74.35 1.06.6.37.29.7.63 1.03.96.45.45.9.91 1.35 1.37.22.23.45.47.67.71.2.21.38.43.6.62.14.12.29.22.46.31.97-.84 2.08-1.58 3.15-1.58-1.02-1.06-2.02-2.14-3.1-3.14-.95-.87-1.76-1.38-3.14-1.08-.9.19-1.78.61-2.58 1.13.17.02.34.05.5.1z" fill="#fff" fill-opacity=".2"/><path d="m51.78 38.66c-.1-.11-.16-.24-.22-.37-.13-.31-.27-.62-.62-.74-.27-.09-.57-.07-.83-.18-.3-.12-.39-.4-.44-.7-.03-.16-.04-.32-.11-.47-.07-.16-.17-.3-.3-.41-.23-.19-.52-.28-.79-.4-.28-.13-.51-.3-.63-.6-.11-.28-.11-.58-.14-.87-.04-.31-.11-.61-.11-.92-1.22 1.65-1.87 3.66-.43 5.4 1.04 1.26 2.31 2.29 3.52 3.37.08-.98.73-1.99 1.49-2.89-.15-.04-.28-.11-.39-.22z" fill="#252723" fill-opacity=".15"/><path d="m56.54 35.67c.21.16.4.36.54.58.07.12.13.24.2.36.03.05.06.1.09.14.97-.83 2.08-1.54 3.14-1.52-.09-.82-.74-1.27-1.48-1.48-.01 0-.01.01-.02.01-1.07-.02-2.18.7-3.14 1.54.23.12.46.22.67.37z" fill="#fff" fill-opacity=".35"/><path d="m53.56 40.39c-.1.01-.2.01-.29-.02-.12-.04-.24-.12-.34-.2-.38-.28-.64-.71-.72-1.18-.77.91-1.41 1.92-1.43 2.91 0 .02-.01.03-.02.04.22.71.66 1.33 1.46 1.43.06-1.02.75-2.07 1.54-3-.06 0-.13.01-.2.02z" fill="#252723" fill-opacity=".15"/><path d="m57.5 36.97c.33.49.74.93 1.18 1.31.12.1.24.2.37.29.98-.87 2.12-1.64 3.19-1.62-.38-.68-.97-1.31-1.69-1.62-1.06-.01-2.16.7-3.12 1.53.02.04.05.08.07.11z" fill="#fff" fill-opacity=".2"/><path d="m53.96 44.91v.02c.15-.95.8-1.91 1.54-2.78-.07-.13-.14-.24-.23-.36-.19-.23-.42-.42-.64-.62-.1-.09-.2-.18-.29-.27-.08-.09-.16-.19-.23-.28-.06-.07-.13-.15-.22-.2-.81.95-1.52 2.01-1.54 3.05.31.7.88 1.33 1.58 1.64-.01-.06-.02-.13-.01-.19 0-.02.03-.03.04-.01z" fill="#252723" fill-opacity=".15"/><path d="m62.24 37.04c-1.05.01-2.14.75-3.09 1.59.07.04.14.09.21.13.22.13.45.24.67.37.21.12.41.27.57.45.17.19.28.42.35.66.93-.83 2-1.57 3.02-1.6.02 0 .03.01.04.03.01 0 .01 0 .02.01.02-.01.05-.02.07 0 .01.01.02.02.03.03-.24-.89-1.01-1.49-1.89-1.67z" fill="#fff" fill-opacity=".35"/><path d="m55.74 47c-.02-.02-.03-.04-.05-.07-.03 0-.07-.03-.06-.08.13-1 .83-2.02 1.64-2.93-.22 0-.44-.08-.62-.21-.22-.16-.42-.35-.6-.55s-.29-.43-.39-.68c-.03-.07-.06-.15-.1-.22-.78.91-1.44 1.92-1.5 2.91 0 .02-.01.04-.03.05.23.83.85 1.57 1.71 1.78-.01 0-.01 0 0 0z" fill="#252723" fill-opacity=".15"/><path d="m89.89 69.15c.04.03.09.07.13.1.57.48 1.02 1.09 1.49 1.67.49.61 1.01 1.19 1.46 1.83.2.28.38.58.55.89.58-.19 1.13-.17 1.52.18-.51-1.91-1.2-3.81-1.99-5.56-.14-.3-.3-.58-.49-.85-.01-.01-.02-.02-.04-.02 0 .01-.01.02-.02.01-.85-.77-2.5-.78-2.56.67-.01.36.12.72-.05 1.08z" fill="#fff" fill-opacity=".35"/><path d="m90.87 76.07c-.16-.07-.33-.15-.49-.22-.19-.09-.37-.18-.54-.29-.18-.12-.37-.23-.55-.35-.37-.24-.73-.48-1.08-.74-.67-.48-1.31-1.01-1.9-1.58-.16.08-.36.13-.6.16h-.02c-.64.06-1.11.57-1.24 1.18-.15.7.18 1.25.78 1.59.01 0 .01.01.01.01 1.42.79 3.04 1.24 4.62 1.72.44.13.88.26 1.32.39-.59-.47-.61-1.17-.31-1.87z" fill="#616161" fill-opacity=".15"/><path d="m94.12 74.77c.34.69.64 1.4.92 2.12l.21.54c.07.17.13.34.2.51.08.22.14.44.19.66.04-.02.08-.05.1-.08.28-.32.02-1.31-.03-1.65-.15-.95-.37-1.92-.62-2.88-.39-.36-.93-.4-1.49-.24.18.34.35.68.52 1.02z" fill="#fff" fill-opacity=".2"/><path d="m89.74 69.08c.04-.05.07-.09.09-.14.12-.25-.02-.62-.02-.88 0-.41.06-.72.39-.99.65-.54 1.77-.46 2.26.23l.01-.01c-.77-1.06-1.86-1.94-2.77-2.85-2.43-2.44-4.86-4.87-7.29-7.31-6.11-6.13-12.24-12.26-18.39-18.36-.01-.01-.01-.02-.01-.03-.01 0-.02-.01-.03-.01-1.01.05-2.06.77-2.99 1.6z" fill="#fff" fill-opacity=".2"/><path d="m85.68 72.93c.24-.04.42-.11.54-.2l-28.78-28.79c-.82.91-1.55 1.93-1.69 2.95v.01c.02.03.04.06.06.08h.01c7.1 7.15 14.25 14.24 21.4 21.33 2.09 2.07 4.17 4.13 6.26 6.21.34.34.7.63 1.08.89-.61-.88-.08-2.38 1.12-2.48z" fill="#616161" fill-opacity=".15"/><path d="m95.34 73.65c-.62-2.18-1.22-4.86-2.59-6.72-1.45-1.98-3.68-3.69-5.41-5.43-7.63-7.66-15.27-15.32-22.95-22.93-.14-.52-.5-1-.92-1.32-.22-.16-.61-.4-.97-.44-.35-.63-.98-1.45-1.71-1.69-.14-.81-.82-1.5-1.64-1.61-1.2-1.36-2.63-3.34-4.27-4.19-1.91-1-4.44.4-5.9 1.62-1.58 1.32-3.74 3.93-3.1 6.21.58 2.05 3.03 3.66 4.54 4.99 0 0 .01 0 .01.01.02.03.05.05.09.07.17.69.75 1.26 1.44 1.44.04.08.11.13.19.16.27.63.89 1.2 1.5 1.51.02.08.08.14.14.17.08.3.26.6.39.78.35.49.88.91 1.48 1.04h.01c7.06 7.21 14.24 14.31 21.4 21.43 2.18 2.17 4.28 4.73 6.69 6.64 1.83 1.46 4.35 2.09 6.58 2.75 1.02.3 4.55 1.75 5.6.78 1.01-.98-.33-4.31-.6-5.27zm-47.35-34.75c-1.31-1.41-1.81-2.94-.79-4.76.68-1.2 1.64-2.28 2.75-3.08 1.12-.81 2.34-1.43 3.74-1.28 1.17.13 1.7.71 2.53 1.5.75.72 1.47 1.47 2.2 2.21-1.72.25-3.56 2.22-4.62 3.27-1.1 1.09-2.88 2.76-3.33 4.45-.85-.74-1.71-1.48-2.48-2.31zm3.03 3.2c.04-.05.06-.11.06-.19.04-1.7 2.11-3.55 3.2-4.67 1.15-1.17 2.96-3.19 4.73-3.26.01 0 .02-.01.03-.01.54.14 1.05.52 1.21 1.06-1.8.06-3.78 2.18-4.9 3.29-1.17 1.16-3.11 2.98-3.39 4.78-.44-.16-.78-.56-.94-1zm1.61 1.44c0-.02.01-.04.01-.06.03-1.7 2.1-3.56 3.19-4.68 1.14-1.16 2.93-3.14 4.69-3.24.53.32.98.7 1.33 1.2-1.74.17-3.64 2.24-4.72 3.3-1.18 1.17-3.04 2.92-3.42 4.7-.46-.31-.8-.75-1.08-1.22zm1.93 2.36c-.11-.17-.2-.35-.28-.53.04-.05.07-.11.07-.19.11-1.7 2.16-3.52 3.27-4.65 1.13-1.15 2.92-3.19 4.66-3.28.01 0 .01 0 .01-.01.25.12.54.2.77.35.32.21.59.51.75.85-1.74.07-3.65 2.18-4.75 3.26-1.24 1.21-3.35 3.1-3.68 4.94-.33-.17-.61-.43-.82-.74zm24.72 24.08c-7.76-7.69-15.5-15.38-23.24-23.09 0-.01 0-.01.01-.02.22-1.67 2.25-3.43 3.36-4.56 1.09-1.11 2.76-3.04 4.42-3.34 7.49 7.43 14.94 14.89 22.39 22.36 1.64 1.65 3.68 3.28 5.24 5.09-.61-.06-1.27.15-1.65.61-.47.57-.14 1.05-.26 1.7-.16.79-1.4.75-2.09.84-.02 0-.04 0-.05.01h-.03c-.02 0-.03.01-.04.02-.02.01-.03 0-.05.01-.01 0-.01.01-.02.01-.02.01-.04.02-.05.03-.57.31-.94.75-.98 1.42-.02.31.03.62.04.93.01.5-.22.57-.68.65h-.01c-.81.12-1.41.75-1.55 1.57-.02.13-.02.28-.01.42-1.75-1.34-3.23-3.15-4.75-4.66zm6.73 5.93c-.27-.13-.52-.28-.78-.43-.32-.32-.62-.55-.53-1.13.08-.5.45-.97.98-1.02.02 0 .04-.01.06-.02h.04c.72-.11 1.18-.36 1.21-1.11.03-.83-.24-1.49.63-1.95 1.06-.14 2.53-.13 2.68-1.47.05-.43-.19-.93.1-1.3.23-.3.74-.37 1.08-.32.13.02.49.23.78.3.86 1.27 1.33 2.82 1.8 4.27.12.36.33.91.56 1.52-.99-.16-2.48.89-2.98 1.38-.56.55-1.09 1.26-1.19 2.06-.04.31.01.65.15.94-1.93-.56-3.84-1.36-4.59-1.72zm9.52 1.72c-.29.92-1.94.81-3.81.34-.01-.03-.02-.07-.04-.1-.39-.45-.73-.65-.55-1.32.16-.58.58-1.1 1.01-1.51.43-.42.95-.79 1.52-.99.51-.18.84-.12 1.28.1.44 1.31.82 2.72.59 3.48z" fill="#252723"/></g></svg>