<svg clip-rule="evenodd" fill-rule="evenodd" stroke-linejoin="round" stroke-miterlimit="2" viewBox="0 0 54 51" xmlns="http://www.w3.org/2000/svg"><g fill-rule="nonzero"><path d="m47.42 24.18c-1.24.46-2.86.09-3.12-1.25 1.63.17 3.39-.19 4.67-1.24.79 1.01-.61 2.14-1.55 2.49z" fill="#f66"/><path d="m26.59 32.44c.45-1.7 2.07-3.43 2.8-5.08.58-1.32.92-2.68 1.12-4.09.54.43 1.32.47 1.98.25-.25.9-.16 1.89.96 2.06.94.14 2.04-.42 2.38-1.29.55.45 1.39.66 2.01.65.33-.01.65-.08.95-.19-.41 3.7-.41 7.62.68 11.18-2.3.64-4.66.83-7.02.43-1.89-.32-6.53-1.37-5.86-3.92z" fill="#ffab4d"/><path d="m32.89 22.73c-.02.01-.04.01-.05.02-.37.25-1.49.67-1.86.18-.22-.29-.29-.94-.04-1.22.62.42 1.27.76 1.95 1.02z" fill="#ffab4d"/><path d="m35.37 23.63c.19 1.1-1.29 1.57-2 1.21-.41-.05-.55-.28-.44-.67.02-.37.12-.71.29-1.04.04-.09.03-.2-.02-.28.69.24 1.4.4 2.13.5-.01.03-.02.05-.02.09.01.07.04.13.06.19z" fill="#ffab4d"/><path d="m38.2 24.33c-.7.15-1.71-.01-2.26-.55 0-.12-.01-.24-.03-.36 1.29.12 2.61.04 3.89-.19-.39.55-.92.96-1.6 1.1z" fill="#ffab4d"/><path d="m32.16 21.78c-4.32-2.25-3.39-6.62-1.4-10.19 2.58 1.43 5.84 1.61 8.93 1.09-1.05 1.89-.65 4.1-.09 6.13.42 1.5 1.14 2.64 2.29 3.35-3.15 1.02-6.71 1.19-9.73-.38z" fill="#f3dcc8"/><path d="m50.3 15.29c0 1.61.04 3.34-.82 4.76-1.02 1.7-2.7 2.51-4.59 2.38-.12-.01-.62-.01-.73-.03-.07-.05-.67-.17-.76-.14-2.23-.39-2.79-2.12-3.31-4.33-.42-1.77-.72-3.6.31-5.23.04-.06.05-.12.04-.17 1.17-.24 2.29-.58 3.34-.99 2.37 1.7 3.17 3.64 6.52 3.75z" fill="#59287f"/><path d="m46.45 2.89c.27.14.49.35.64.61.02.03.03.06.05.1-.32-.04-.66-.07-1.01-.07-.02 0-.03.01-.04.02-.34-.29-.69-.56-1.05-.81.46-.14.97-.09 1.41.15z" fill="#c3007a"/><path d="m38.64 1.45c2.92.06 5.59 1.23 7.97 2.84.1.07.21-.08.13-.16-.11-.12-.24-.21-.36-.32 2.47.58 4.47 1.73 5.27 4.34.69 2.27.14 4.64-1.16 6.57-.01.01-.02.01-.03.02-2.77-.08-4.18-2.04-6.14-3.49-.01-.05-.04-.08-.1-.07-.26-.19-.52-.36-.8-.53-1.78-1.03-3.82-1.67-5.78-2.21-1.44-.4-3.58-1.05-5.65-1.28.95-3.43 2.77-5.79 6.65-5.71z" fill="#d400ab"/><path d="m29.18 7.52c1.49-.18 3.8.15 5.24.42 2.95.55 6.42 1.67 8.97 3.33.05.03.09.07.14.1-3.73 1.08-7.87 1.61-11.54.09-1.56-.65-6.28-3.53-2.81-3.94z" fill="#c3007a"/><path d="m27.17 15.55c.46-1.64 1.8-3.09 2.76-4.49.22.16.45.31.69.45-1.93 2.59-3.16 6.35-1.01 8.99-.14.12-.28.25-.41.38-.01-.06-.03-.11-.08-.16-1.54-1.46-2.56-2.99-1.95-5.17z" fill="#59287f"/><path d="m26.81 20.76c.1-.44.42-.63.68-.9.36.45.77.88 1.2 1.29.06.06.12.08.19.08-.27.3-.53.6-.78.92-.61-.28-1.48-.59-1.29-1.39z" fill="#f66"/><path d="m24.23 28.11c-.41.18-.82.01-1.19-.18-.19-.1-.38-.19-.43-.41-.02-.07-.01-.14-.01-.2 1.28-.26 2.68-1.25 3.26-2.32.09-.17-.14-.38-.28-.22-.54.62-1.1 1.14-1.84 1.52-.39.2-.84.43-1.27.51-.88.16-1.73-.39-1.24-1.29 1.71-.02 3.82-1.09 4.66-1.95.26-.27-.12-.63-.41-.41-1.04.83-2.26 1.64-3.64 1.69-.75.03-3.42-.43-2.05-2.13.27-.34 1.32-.86 1.68-.96.91-.25 1.89.03 2.82-.18.68-.15 1.3-.47 1.9-.83 0 .01-.01.03-.01.04-.17 1.13.7 1.49 1.56 1.88-.63.89-1.19 1.84-1.74 2.78-.54.92-1.09 1.79-1.66 2.64-.06 0-.08 0-.11.02z" fill="#59287f"/><path d="m29.95 20.89c.16.16.32.31.5.46l.12.09c-.54.09-.7.98-.41 1.45.05.08.11.15.18.21-.65 2.91-2 5.38-3.54 7.92-.11.18-.22.34-.32.5-.02-.01-.05-.03-.08-.02-1.06.1-2.1.3-3.17.26-.31-.01-.62-.05-.93-.11 3.3-2.79 4.82-7.48 7.65-10.76z" fill="#f3dcc8"/><path d="m19.86 33.42c.99.38.89 1.79.77 2.57-.07.48-.19.93-.11 1.42.09.52.38.98.83 1.15-.43.21-.85.42-1.25.64-.55-2.07-1.5-3.96-3.18-5.29.98-.01 1.98-.38 2.94-.49z" fill="#f3dcc8"/><path d="m1.5 35.02c-.1-1.89-.1-4.76 1.37-6.21 2.86-2.82 6.77 4 7.8 5.81-.92 1.88-1.17 4.57-.8 7.18-5.29 4.74-8.12-2.09-8.37-6.78z" fill="#f66"/><path d="m12.99 47.83c-1.85-2.25-2.48-5.62-2.52-8.45-.02-1.98.24-6.11 2.96-6.23 2.14-.1 4.16 2.27 5.07 3.88 1.62 2.88 1.74 6.43 1.99 9.65-2.18 2.12-5.08 4.09-7.5 1.15z" fill="#f66"/><path d="m27.35 42.38c-2.13 1.25-4.55 2.45-6.4 4.12-.1-2.15-.2-4.55-.72-6.78 1.49-.7 3.02-1.3 4.52-1.98.05-.02.08-.06.09-.1 1.73.76 2.73 2.36 2.71 4.45 0 .09-.01.18-.01.27-.07-.02-.13-.02-.19.02z" fill="#f3dcc8"/><path d="m41.75 42.31c-.52-.32-1.04-.89-1.65-1.02-.47-.1-.81.03-1.13.39-1.01 1.13-.57 2.84-1.93 3.81h-.02c-2.2.97-1.78-2.51-3.03-3.22-.87-.49-2.18-.12-2.44.9-.01.03 0 .05.01.07-.54.75-2.37 3.32-3.52.94-.26-.54 0-1.52 0-2.1 0-.91-.12-1.8-.53-2.62-.64-1.32-1.82-2.14-3.2-2.4.37-.12.74-.27 1.12-.36.55-.12 1.12-.12 1.67-.24.15-.03.14-.26 0-.29-1-.25-2.69.02-3.49.69-.04.04-.06.08-.06.12-.13.02-.16.24-.02.26.32.05.62.13.9.22-.84.19-1.69.49-2.52.86-.02-.01-.03-.03-.05-.04-1.61-.58-.32-2.79-.8-4.02-.21-.54-.55-1.13-1.17-1.14-.03 0-.04.01-.06.02-.51-.12-1.01-.06-1.52.03.03-.04.08-.07.11-.11.75-1.02 1.65-1.33 2.69-.94.51.08 1 .17 1.52.21 1.19.08 2.45-.02 3.58-.42-.53.81-.84 1.45-.12 2.38 1.25 1.62 4.76 2.43 6.62 2.71 2.35.35 4.67.15 6.95-.48.69 1.99 1.73 3.86 3.26 5.48.1.1.21.12.32.09.33.22.85.23 1.3.11.03.03.06.05.1.08-.98.63-1.87.64-2.89.03z" fill="#ffab4d"/><path d="m44.82 34.12c.38 1.33.75 2.79 1.64 3.88.56.69 1.44 1.11 1.93 1.85 1.75 2.61-1.89 3.04-3.32 2.09.08-.05.14-.11.2-.18.29-.34.25-.89.26-1.31 0-.63-.05-1.3-.24-1.9-.07-.21-.42-.19-.4.05.05.7.14 1.38.11 2.08-.02.46-.07.74-.54.91-.32.12-.66.11-.97-.01-.02-.03-.03-.07-.06-.1-1.55-1.58-2.58-3.43-3.26-5.41-.01-.04-.02-.08-.04-.12-1.2-3.57-1.26-7.58-1.09-11.31.63-.3 1.16-.82 1.5-1.46.02-.04.04-.09.04-.13.38-.09.76-.18 1.13-.3.39 1.18.48 2.34.68 3.55.02.12.11.16.21.15-.64 1.25-1.09 2.6-1.22 3.98-.1.99-.12 2.77 1.01 3.28.81.36 1.49.07 2.04-.55.07.33.22.58.42.76-.04.08-.05.13-.03.2z" fill="#f3dcc8"/><path d="m51.31 31.53c.26-2.04-.09-4.59-1.02-6.43-.09-.19-.4-.06-.34.14.49 1.5.81 3.1.86 4.68.03.8.06 1.8-.33 2.52-.52.97-1.26.68-2.12.46 1.08-1.87.61-4.4.74-6.44.02-.26-.37-.25-.4 0-.14 1.22-.05 2.46-.16 3.68-.05.63-.13 1.3-.38 1.9-.49 1.18-2.78 2.89-3.26.55-.01-.03-.02-.05-.03-.08 1.05-1.77 1.53-4.71 1.64-5.54.02-.17-.23-.25-.27-.07-.2 1.09-1.46 7.59-3.71 6.31-1.08-.61-.6-2.89-.39-3.79.44-1.87 1.38-3.47 2.47-5.02.84.61 2.12.71 3.17.28.69-.28 1.41-.85 1.8-1.52.87 1.12 1.73 2.26 2.39 3.52 1.04 1.97 1.27 3.59-.66 4.85z" fill="#59287f"/><g fill="#fff"><path d="m28.57 32.18c.47.29 1.06.57 1.62.53.55-.04.67-.52.7-1 .04-.68-.08-1.37-.15-2.05-.06-.6-.14-1.26.04-1.85.03-.09.13-.16.22-.13.69.23 1.3.75 1.9 1.15.3.2.6.39.92.55.24.12.51.24.79.23.67-.02.67-1.07.59-1.53s-.24-.96-.12-1.43c.1-.39.44-.61.8-.73.52-.18 1.07-.16 1.61-.16-.23-.02-.46-.01-.66 0-1.27.05-2.53.34-3.8.25-.47-.03-.99-.12-1.35-.46-.36-.33-.41-.81-.35-1.27-.34-.02-.68-.1-.95-.28-.21 1.15-.52 2.26-.99 3.35-.49 1.11-1.37 2.25-2.04 3.4.02.02.04.04.05.07.09.61.7 1.07 1.17 1.36z" fill-opacity=".4"/><path d="m46.61 4.29c-2.38-1.61-5.06-2.78-7.97-2.84-2.18-.05-3.71.68-4.8 1.93.01.06.03.12.06.18.09.16.28.2.45.21.44.03.88-.1 1.31-.17.54-.08 1.08-.15 1.61-.26.96-.2 1.99-.44 2.97-.2.97.24 1.57 1.02 2.23 1.71.63.66 1.32 1.17 2.26 1.25.25.02.49.03.73-.03.22-.06.43-.16.63-.26.34-.17.7-.42 1.09-.47.32-.04.6.23.8.45.28.31.51.66.75.99.48.68 1.12 1.25 1.76 1.78.45.37.92.71 1.42 1.02-.04-.48-.12-.96-.26-1.43-.8-2.61-2.8-3.76-5.27-4.34.12.11.24.21.36.32.08.08-.03.23-.13.16z" fill-opacity=".4"/><path d="m30.68 9.55c1.67.42 3.42.37 5.12.3.79-.03 1.58-.07 2.37-.08.82 0 1.64.08 2.47.12-2.03-.78-4.26-1.27-6.25-1.64-1.45-.27-3.16-.6-4.65-.42-.86.1-1.25.34-1.33.64.66.54 1.45.88 2.27 1.08z" fill-opacity=".4"/><path d="m4.4 29.64c.53.76.91 1.61 1.31 2.44.18.37.36.77.63 1.08.3.34.79.44 1.14.73.33.27.48.57.54.98.04.25.13.48.18.73.02.14-.03.33.01.46.04.12.3.22.4.24.17.04.38-.02.55-.06.33-.07.66-.19.99-.25.14-.49.3-.95.51-1.37-.99-1.73-4.61-8.06-7.43-6.12.48.27.87.7 1.17 1.14z" fill-opacity=".4"/><path d="m13.94 35.65c.62.86 1.17 1.85 1.49 2.86.19.58.32 1.2.63 1.73.1.17.31.5.52.49.26 0 .53-.28.77-.37.6-.23 1.11.32 1.22.86.06.27.05.55.11.82.05.22.1.44.15.66.12.46.26.97.58 1.33.26.29.58.36.92.31-.21-2.53-.57-5.12-1.81-7.31-.91-1.61-2.93-3.98-5.07-3.88-.7.03-1.24.33-1.66.79.89.18 1.63 1 2.15 1.71z" fill-opacity=".4"/><path d="m23.12 32.84c.87-.01 1.74.05 2.6.08.08-.33.26-.66.5-1.01-1.13.41-2.39.5-3.58.42-.52-.04-1.01-.12-1.52-.21-1.04-.4-1.94-.09-2.69.94-.03.04-.08.07-.11.11.51-.09 1.01-.15 1.52-.03.02-.01.03-.02.06-.02.21 0 .39.08.54.2.85-.36 1.78-.47 2.68-.48z" fill-opacity=".4"/><path d="m24.31 37.05c1.38.26 2.55 1.08 3.2 2.4.03.06.05.13.08.2.41-.7.63-1.55.67-2.33.02-.3.01-.66-.29-.82-.23-.12-.51-.14-.78-.13-.02.04-.04.07-.09.08-.55.12-1.12.12-1.67.24-.38.09-.75.25-1.12.36z" fill-opacity=".4"/><path d="m34.78 42.47c.03-1.06.07-2.25-.32-3.26-.51.36-.86.94-1.16 1.47-.26.48-.49.97-.71 1.47.46-.14.98-.11 1.4.13.35.2.56.61.74 1.08.02-.3.04-.6.05-.89z" fill-opacity=".4"/><path d="m38.92 40.03c-.28-.39-.58-.79-.92-1.13-.12-.11-.24-.23-.38-.31-.04-.02-.07-.03-.1-.04.01.76.25 1.52.56 2.2.19.42.42.82.68 1.2.06-.1.13-.19.21-.28.24-.26.48-.4.78-.42-.28-.41-.55-.82-.83-1.22z" fill-opacity=".4"/><path d="m49.14 22c-.04-.11-.09-.21-.17-.31-1.02.83-2.35 1.23-3.67 1.27 1.37.55 2.73-.07 3.84-.96z" fill-opacity=".2"/><path d="m42.03 21.18c-.28-1.18-.85-2.26-1.38-3.34-.36-.73-.69-1.47-.94-2.24.04.78.19 1.56.37 2.34.35 1.47.96 2.68 1.98 3.45 0-.08-.01-.15-.03-.21z" fill-opacity=".2"/><path d="m45.94 15.55c-.36.75-.38 1.65-.37 2.46.01.93.12 1.85.13 2.77.02.02.04.03.06.03.05-.01.17-.17.21-.24.35-.58.54-1.32.57-1.99.03-.57 0-1.16-.11-1.73-.09-.45-.23-.91-.49-1.3z" fill-opacity=".2"/><path d="m48.75 20.94c.28-.26.53-.54.74-.89.49-.81.68-1.73.76-2.66-.71 1.11-1.38 2.23-1.5 3.55z" fill-opacity=".2"/><path d="m27.77 17.72c.02-.43 0-.86-.01-1.29-.01-1.12.27-2.16.6-3.21-.51.74-.95 1.51-1.18 2.32-.35 1.25-.15 2.28.36 3.22.17-.3.21-.69.23-1.04z" fill-opacity=".2"/><path d="m20.79 23.55c1.11-.05 2.25-.39 3.22-.94.55-.31 1.07-.7 1.44-1.22.08-.12.15-.24.22-.36-.45.24-.91.44-1.41.55-.93.21-1.9-.07-2.82.18-.37.1-1.41.62-1.68.96-.13.17-.22.32-.28.46.28.38.89.39 1.31.37z" fill-opacity=".2"/><path d="m22.84 26.29c.24-.13.48-.31.64-.54-.76.21-1.53.44-2.3.64.1.15.25.26.43.34.43-.09.85-.23 1.23-.44z" fill-opacity=".2"/><path d="m44.71 25.58c-.22.29-.39.63-.56.95-.26.5-.51 1.02-.74 1.54-.21.47-.4.95-.56 1.44-.11.34-.25.72-.24 1.09 0 .07 0 .09.02.15.01.02.01.02.01.03h.01c-.03 0 .05 0 .04 0 .04-.01.1-.02.15-.04.32-.14.58-.45.79-.71.61-.77 1.08-1.71 1.35-2.66.14-.48.41-1.58-.27-1.79z" fill-opacity=".2"/><path d="m47.55 27.39c-.04-.05-.08-.06-.13-.06-.41.74-.69 1.55-.88 2.37-.18.73-.29 1.51-.23 2.27.17-.18.3-.42.41-.63.43-.8.72-1.7.88-2.6.06-.34.11-.72.06-1.07-.02-.1-.06-.22-.11-.28z" fill-opacity=".2"/><path d="m51.63 26.77c.18.55.33 1.11.56 1.64.14.31.32.64.56.89.04-.79-.27-1.66-.77-2.61-.36-.69-.79-1.35-1.24-1.98.28.69.67 1.36.89 2.06z" fill-opacity=".2"/><path d="m50.06 30.37c.07.4.23 1.18.66 1.4.13-.6.12-1.27.1-1.85-.04-1.15-.22-2.31-.51-3.44-.14.29-.2.64-.25.95-.15.96-.17 1.99 0 2.94z" fill-opacity=".2"/></g><path d="m31.77 14.15c2.3.89 4.88.9 7.31.51.08-.68.25-1.35.61-1.98-3.09.52-6.35.34-8.93-1.09-.29.51-.55 1.05-.78 1.58.56.4 1.16.73 1.79.98z" fill="#f0d1b0"/><path d="m39.6 18.8c-.19-.67-.35-1.37-.45-2.06-.01.1-.01.2-.02.3-.02.65-.02 1.33-.22 1.95-.59 1.84-2.83 2.3-4.53 2.28-1.97-.02-3.65-1.06-4.98-2.44.42 1.15 1.27 2.17 2.75 2.94 3.02 1.57 6.58 1.41 9.73.37-1.13-.7-1.86-1.83-2.28-3.34z" fill="#f0d1b0"/><path d="m30.57 21.44c-.04-.03-.08-.06-.12-.09-.18-.15-.35-.3-.5-.46-.17.19-.33.4-.49.6-.04 1.16-.25 2.3-.62 3.4-.35 1.02-.81 2.03-1.37 2.96-.47.77-1.12 1.43-1.86 1.95-.75.53-1.6.91-2.5 1.09-.26.27-.53.53-.81.77.31.05.62.1.93.11 1.07.03 2.11-.16 3.17-.26.04 0 .06.01.08.02.11-.16.21-.33.32-.5 1.53-2.54 2.89-5.01 3.54-7.92-.06-.07-.13-.13-.18-.21-.29-.49-.13-1.37.41-1.46z" fill="#f0d1b0"/><path d="m20.52 37.42c-.08-.49.03-.94.11-1.42.12-.78.22-2.2-.77-2.57-.38.04-.77.13-1.16.21.18.12.36.25.5.41.49.55.64 1.31.37 2.01-.1.25-.24.47-.4.68.4.78.7 1.61.93 2.48.4-.22.82-.44 1.25-.64-.45-.18-.74-.64-.83-1.16z" fill="#f0d1b0"/><path d="m24.83 37.63c-.01.04-.03.08-.09.1-.27.12-.53.23-.8.35.54.1 1.07.34 1.47.69.51.45.71 1.11.38 1.73-.36.68-1.2.94-1.89 1.16-.37.11-.74.21-1.1.31-.37.1-.7.28-1.04.45-.33.16-.68.35-1.04.51.12 1.22.17 2.43.23 3.57 1.85-1.66 4.27-2.86 6.4-4.12.07-.04.13-.04.19-.03 0-.09.01-.18.01-.27.01-2.09-.99-3.69-2.72-4.45z" fill="#f0d1b0"/><path d="m44.61 39.68c-.37.26-.87.44-1.31.27-.29-.11-.37-.34-.46-.61-.13-.37-.22-.75-.31-1.13-.07-.3-.13-.61-.2-.91-.1-.43-.24-.85-.23-1.3.01-.59.35-.98.92-1.13.63-.16 1.3-.15 1.95-.25-.05-.17-.1-.34-.15-.51-.02-.07-.01-.12.01-.17-.2-.18-.34-.44-.42-.76-.55.63-1.22.91-2.04.55-1.13-.5-1.1-2.28-1.01-3.28.04-.41.11-.81.21-1.21-.11-.15-.22-.29-.31-.44-.5-.83-.84-1.84-.75-2.82.09-.96.62-1.74 1.45-2.19-.07-.34-.16-.68-.27-1.02-.37.11-.75.21-1.13.3 0 .04-.01.08-.04.13-.35.64-.87 1.16-1.5 1.46-.17 3.73-.11 7.73 1.09 11.31.02.04.03.08.04.12.68 1.98 1.71 3.82 3.26 5.41.03.03.05.06.06.1.31.12.65.13.97.01.47-.18.52-.45.54-.91.02-.44-.01-.86-.05-1.29-.09.09-.21.19-.32.27z" fill="#f0d1b0"/><path d="m47.99 41.39c-.85.48-1.91.01-2.47-.75 0 .39-.01.83-.26 1.13-.05.06-.12.12-.2.18 1.3.86 4.39.58 3.67-1.41-.15.34-.39.65-.74.85z" fill="#f0d1b0"/><path d="m35.46 13.96c.22-.11.46-.11.69-.03 0 .01 0 .01.01.02.26.36.45.72-.03 1-.3.18-.84.35-1.07-.05-.21-.36.07-.77.4-.94z" fill="#2c285b"/><path d="m31.49 13.01c.13-.07.27-.06.41-.06.01.03.01.06.03.08.15.24.21.57-.06.75-.16.11-.57.13-.65-.05-.09-.22.06-.61.27-.72z" fill="#2c285b"/><path d="m38.6 27.14c-.22 1.24-.31 2.5-.38 3.76-.03.6-.05 1.21-.09 1.81-.02.34-.07.71-.31.97-.3.33-.79.41-1.21.45-.38.04-1.34-.14-1.44.39-.09.47-.09.89-.48 1.22-.36.3-.79.49-1.24.62-.11.03-.23.06-.35.09 2.14.27 4.28.06 6.37-.52-.85-2.8-1.03-5.82-.87-8.79z" fill="#222221" fill-opacity=".15"/><path d="m50.99 11.42c-.49.37-1.04.68-1.66.78-.59.09-1.18 0-1.74-.16-1.27-.38-2.41-1.11-3.54-1.77-1.17-.68-2.41-1.22-3.69-1.66-1.41-.49-2.96-.89-4.46-.65.64.17 1.23.34 1.74.48 1.96.54 4.01 1.18 5.78 2.21.28.16.55.34.8.53.06-.01.1.03.1.07 1.96 1.45 3.37 3.41 6.14 3.49.01-.01.02-.01.03-.02.83-1.24 1.35-2.66 1.44-4.11-.3.28-.6.56-.94.81z" fill="#222221" fill-opacity=".15"/><path d="m8.45 42.14c-.64.24-1.37.34-2.05.22-.44-.08-.84-.3-1.09-.68-.23-.35-.31-.79-.34-1.2-.08-.97.07-2.01-.31-2.94-.15-.35-.45-.59-.71-.86-.27-.28-.47-.58-.61-.95-.28-.72-.29-1.52-.36-2.27-.05-.49-.05-1.07-.3-1.51-.22-.38-.62-.47-1.02-.46-.22 1.21-.2 2.51-.15 3.54.25 4.68 3.08 11.52 8.36 6.78-.03-.23-.05-.46-.08-.69-.28.49-.81.82-1.34 1.02z" fill="#222221" fill-opacity=".15"/><path d="m19.79 46.61c-.62.51-1.3.95-2.01 1.34-.56.31-1.14.62-1.78.7-.64.07-1.35-.12-1.61-.76-.28-.67-.13-1.45-.1-2.15.02-.35.03-.71-.1-1.03-.14-.38-.42-.67-.67-.98-.54-.67-.81-1.46-.94-2.3-.13-.85-.16-1.72-.4-2.55-.15-.53-.43-1.08-.89-1.42-.13-.1-.32-.21-.49-.14-.16.07-.24.27-.29.47-.05.6-.06 1.17-.06 1.62.03 2.83.67 6.2 2.52 8.45 2.42 2.94 5.32.97 7.51-1.15-.02-.23-.03-.46-.05-.69-.19.19-.41.4-.64.59z" fill="#222221" fill-opacity=".15"/><path d="m23.55 36.97c0-.04.02-.08.06-.12.54-.44 1.47-.71 2.33-.76-1.59-.81-3.33 0-4.91.57-.04.71.08 1.34.83 1.61.02.01.03.03.05.04.82-.36 1.67-.66 2.52-.86-.28-.1-.58-.17-.9-.22-.15-.02-.11-.24.02-.26z" fill="#222221" fill-opacity=".15"/><path d="m37.23 43.71c-.26-.26-.42-.54-.55-.89-.08-.22-.16-.5-.32-.69-.02 1.17.3 2.37.08 3.52.17-.02.36-.06.57-.15h.02c.46-.33.71-.75.89-1.2-.24-.2-.48-.38-.69-.59z" fill="#222221" fill-opacity=".15"/><path d="m31.55 43.17c.1-.41.38-.71.73-.89.02-.04.05-.08.07-.13.37-.72.76-1.51.83-2.33 0-.03.02-.04.03-.07 0-.42.02-.84-.06-1.25-.53.32-.98.76-1.39 1.22-.44.49-.86 1-1.33 1.46-.34.34-.72.63-1.11.93-.43.33-1.18.89-1.4 1.51.01.2.04.39.11.55 1.15 2.38 2.98-.19 3.52-.94.01-.01 0-.03 0-.06z" fill="#222221" fill-opacity=".15"/><path d="m44.55 42.17c-.45.13-.97.11-1.3-.11-.1.03-.22.02-.32-.09-.83-.87-1.51-1.82-2.07-2.82-.22.18-.39.42-.4.74-.01.44.21.87.42 1.25.19.34.41.67.62.99.08.06.17.12.25.17 1.02.62 1.91.61 2.89-.05-.03-.02-.06-.05-.09-.08z" fill="#222221" fill-opacity=".15"/><path d="m49.89 22.63c.13-.48.06-.98-.31-1.46 1.44-1.65 1.57-4.06 1.52-6.15 2.51-3.9 1.39-10.27-3.38-11.35.01-.03.01-.06.01-.08.01-.64-.73-1.18-1.25-1.39-.65-.26-1.39-.25-2 .1-2.16-1.3-4.72-1.83-7.31-1.43-3.49.53-4.91 3.06-5.76 6.22-1.45-.1-2.83.03-3.91.62-.14.08-.2.2-.2.33-.01.08 0 .16.05.25.57 1.02 1.3 1.83 2.13 2.5-1.4 1.86-2.97 3.66-3.12 6.07-.05.93.24 1.74.7 2.47-.31.14-.57.48-.74.82-1.24.52-2.18.83-3.57.85-.74.01-1.3-.02-2 .28-.99.42-2.24 1.25-1.99 2.47.23 1.11.95 1.62 1.85 1.76-.29.94.36 1.91 1.43 1.89h.01c-.1.48.38.87.79 1.08.29.14.6.27.91.3-.66.92-1.36 1.81-2.14 2.69-.49-.09-.98-.18-1.47-.17-1.18.03-2.08.83-2.44 1.92-.57.1-1.14.16-1.7-.05-.03-.01-.06-.01-.09-.01-.17-.09-.33-.19-.51-.28-1.72-.79-3.32-.45-4.35.97-1.34-2.52-4.72-8.06-8.06-6.09-2.11 1.24-2.26 4.79-2.19 6.91.17 5.29 3.45 12.55 9.14 7.97.53 2.81 1.77 5.42 3.69 6.73 2.68 1.83 5.54-.21 7.24-2.39.07.02.15.02.22-.04 1.84-1.63 4.26-2.67 6.37-3.91-.04.79-.03 1.58.53 2.21 1.46 1.65 3.34-.56 3.88-1.93.01-.03 0-.06 0-.08.69-.87 1.95-1.05 2.39.19.21.59.27 1.2.6 1.75.54.9 1.46 1.21 2.43.8.06-.03.1-.07.12-.11.97-.74 1.11-1.75 1.53-2.87.29-.78.57-1.07.97-1.02.04.02.08.02.12.02.23.06.5.21.83.44 1.41.99 2.69 1.37 4.2.29.04-.03.06-.06.08-.09 1.48.74 3.99.72 4.41-1.07.24-1.05-.5-1.99-1.22-2.64-.8-.73-1.49-1.31-1.98-2.31-.35-.71-.55-1.49-.77-2.25.82.14 1.85-.22 2.46-.9 1.47 1.12 2.79.15 3.21-1.33.03 0 .06.02.1.01 4.91-1.18.29-7.32-1.46-9.51zm-2.49 1.5c-1.19.44-2.74.12-3.04-1.14 1.6.15 3.32-.21 4.59-1.21.68.96-.66 2.02-1.55 2.35zm-20.77 8.34c.44-1.7 2.07-3.44 2.79-5.09.57-1.32.9-2.66 1.1-4.06.54.42 1.26.47 1.9.28-.22.9-.09 1.86 1.03 2.03.94.14 2.03-.41 2.4-1.26.55.43 1.38.64 1.99.62.32-.01.63-.07.92-.18-.42 3.67-.42 7.55.65 11.08-2.27.63-4.61.82-6.95.42-1.86-.31-6.47-1.34-5.83-3.84zm6.15-9.73c-.39.25-1.43.63-1.78.16-.22-.29-.26-.83-.06-1.13.58.39 1.2.71 1.84.97zm2.53.82v.02c.24 1.09-1.24 1.56-1.93 1.23-.39-.05-.53-.26-.42-.64.02-.36.11-.7.29-1.01.04-.08.03-.16.01-.24.66.22 1.34.38 2.03.47 0 .02-.02.04-.01.06.01.04.02.07.03.11zm2.88.72c-.7.15-1.66-.01-2.22-.54 0-.09 0-.18-.02-.28 1.24.11 2.51.04 3.74-.17-.37.5-.87.86-1.5.99zm-6.01-2.54c-4.29-2.23-3.36-6.54-1.44-10.09 2.56 1.41 5.79 1.6 8.85 1.09-1.01 1.89-.61 4.07-.05 6.08.41 1.47 1.11 2.6 2.21 3.32-3.1.99-6.59 1.14-9.57-.4zm10.39-5.46c-.14-1.43-.12-2.86.25-4.26.01-.04.01-.07.01-.11.24-.08.47-.16.7-.25 1.66 1.25 2.99 2.69 4.98 3.33-.2 1.58-.4 3.13-.68 4.7-.04.23.28.41.4.17.39-.77.56-1.65.7-2.49.12-.71.27-1.5.15-2.22.36.08.75.13 1.16.16 0 1.59.04 3.3-.8 4.7-.73 1.22-2 1.88-3.36 2.1-.63-.64-.38-3.23-.39-3.99-.02-1.2-.02-2.4-.04-3.6 0-.11-.15-.1-.17 0-.19 1.68-.29 3.36-.25 5.06.01.62-.09 1.86.25 2.6-.32.02-.64.03-.96.01-.13-.01-.24-.04-.36-.05-.06-.03-.12-.04-.19-.03-2.23-.38-3.31-2.01-3.83-4.2-.42-1.76-.72-3.57.3-5.19.04-.06.05-.11.05-.16.58-.12 1.15-.27 1.71-.44-.83 2.8-.42 5.69 1.18 8.15.13.2.49.08.4-.17-.42-1.25-1.07-2.48-1.21-3.82zm-.07 6.28c.01 0 .02-.01.03-.02.36.15.75.27 1.18.35.04.44.2.8.43 1.11-.47.58-.9 1.2-1.28 1.86.02-1.07-.3-2.22-.66-3.2.1-.03.2-.06.3-.1zm4.48-19.15c.03.04.05.09.08.15-.3-.03-.61-.06-.93-.05-.01 0-.01.01-.02.01-.3-.27-.62-.52-.95-.75.66-.15 1.42.06 1.82.64zm-8.34-1.9c2.9.08 5.56 1.24 7.96 2.8.12.08.24-.09.15-.19-.09-.09-.19-.17-.29-.26 2.41.62 4.36 1.72 5.15 4.3.69 2.25.13 4.59-1.15 6.5-.01.01-.02.01-.03.02-2.6-.15-4.22-2-6.09-3.42-.01-.06-.07-.12-.14-.1-.42-.31-.85-.6-1.31-.84-1.73-.9-3.64-1.5-5.52-2-1.44-.39-3.41-.95-5.35-1.16.96-3.38 2.75-5.76 6.62-5.65zm-10.32 6.74c.89-.44 1.98-.6 3.16-.57.1.05.21.06.3.01 3.22.16 7.01 1.61 9.23 2.51.83.34 1.53.77 2.19 1.23-5.09 1.36-11.8 1.78-14.88-3.18zm-1.1 7.31c.45-1.61 1.76-3.05 2.71-4.43.21.15.42.29.64.42-1.94 2.58-3.14 6.31-1.01 8.96-.11.1-.21.2-.32.31-.02-.05-.04-.09-.09-.14-1.52-1.45-2.53-2.95-1.93-5.12zm-.36 5.21c.09-.41.4-.59.64-.83.35.43.75.85 1.16 1.24.04.04.08.07.13.08-.24.26-.46.55-.68.83-.6-.26-1.42-.56-1.25-1.32zm-3.91 7.06c-.25-.14-.25-.26-.3-.5 1.27-.28 2.68-1.27 3.23-2.33.1-.2-.16-.44-.33-.25-.54.61-1.1 1.13-1.84 1.51-.38.2-.83.42-1.27.5-.83.15-1.64-.35-1.2-1.2 1.72-.03 3.82-1.08 4.66-1.96.31-.32-.14-.73-.47-.47-1.04.81-2.23 1.62-3.61 1.67-.72.03-3.32-.4-2.01-2.04.26-.33 1.3-.85 1.66-.95.91-.25 1.89.03 2.82-.18.65-.15 1.25-.45 1.82-.79-.13 1.09.69 1.47 1.54 1.86-.62.88-1.17 1.81-1.71 2.73-.53.91-1.09 1.77-1.66 2.62-.47.18-.9.03-1.33-.22zm2.73-.58c1.33-2.23 2.59-4.33 4.28-6.3.15.15.3.29.47.43.01.01.03.02.04.03-.59.45-.66 1.17-.15 1.72-.67 2.89-2.02 5.34-3.55 7.86-.1.17-.21.34-.31.49-.02 0-.03-.02-.05-.02-1.06.08-2.1.28-3.17.24-.27-.01-.55-.04-.82-.09 1.35-1.18 2.34-2.81 3.26-4.36zm-5.83 6.2c.96.39.86 1.76.74 2.54-.08.49-.19.95-.11 1.44s.35.94.76 1.14c-.38.18-.75.38-1.1.58-.53-2.02-1.44-3.87-3.03-5.19.92-.06 1.85-.39 2.74-.51zm-18.29 1.57c-.1-1.88-.11-4.74 1.35-6.18 2.8-2.75 6.66 3.97 7.7 5.78-.9 1.87-1.16 4.54-.8 7.16-5.23 4.67-8.01-2.13-8.25-6.76zm11.46 12.78c-1.84-2.24-2.47-5.59-2.5-8.41-.02-1.94.22-6.05 2.91-6.18 2.12-.1 4.12 2.27 5.01 3.86 1.61 2.86 1.74 6.4 2.01 9.6-2.18 2.07-5.03 4.04-7.43 1.13zm14.3-5.46c-2.11 1.24-4.5 2.44-6.34 4.08-.09-2.11-.19-4.48-.69-6.69 1.48-.68 3-1.28 4.47-1.98.04-.02.06-.05.08-.09 1.69.76 2.68 2.34 2.66 4.41 0 .07 0 .14-.01.22-.05.01-.11.01-.17.05zm14.45-.07c-.46-.28-.91-.73-1.44-.94-.49-.29-.91-.65-1.2-1.15-.28-.49-.37-1.05-.71-1.5-.1-.13-.35-.06-.29.12.2.64.3 1.28.68 1.85.16.24.35.46.56.66-.16.07-.31.18-.45.34-1.01 1.12-.58 2.85-1.92 3.81-.01 0-.01 0-.02.01-2.13.94-1.76-2.52-2.99-3.21-.41-.23-.92-.27-1.37-.14.73-.99 1.37-2.12 1.8-3.21.09-.23-.26-.35-.39-.16-.88 1.33-1.72 2.7-2.57 4.04-.08.13-.01.26.09.33-.01.02-.02.04-.03.07-.01.02 0 .04.01.06-.55.74-2.33 3.24-3.46.94-.26-.54 0-1.52 0-2.09 0-.92-.13-1.81-.53-2.64-.63-1.29-1.77-2.11-3.11-2.38.3-.1.59-.22.9-.29.59-.14 1.2-.13 1.78-.28.17-.04.17-.29 0-.34-.97-.28-2.76 0-3.52.69-.04.03-.05.08-.06.13-.14.04-.17.27 0 .3.27.05.53.12.78.2-.8.18-1.61.46-2.4.81-.01-.01-.02-.02-.03-.02-1.56-.62-.29-2.77-.77-4-.22-.55-.57-1.17-1.2-1.16-.03 0-.04.01-.06.02-.46-.12-.92-.09-1.38-.01 0-.01.01-.01.01-.01.74-1 1.62-1.31 2.64-.91.61.1 1.2.2 1.82.23 1.07.04 2.18-.07 3.2-.43-.5.79-.77 1.44-.06 2.35 1.27 1.63 4.76 2.43 6.64 2.71 2.35.35 4.66.15 6.93-.48.69 1.99 1.72 3.85 3.26 5.47.11.12.24.13.35.1.33.21.85.22 1.3.1.01.01.02.02.03.02-.97.58-1.83.58-2.82-.01zm3-8.14c.38 1.34.76 2.8 1.66 3.9.56.68 1.44 1.11 1.92 1.84 1.68 2.52-1.78 2.94-3.22 2.06.06-.05.12-.09.16-.14.3-.35.27-.9.27-1.34 0-.63-.04-1.31-.25-1.91-.08-.24-.48-.22-.47.06.03.7.13 1.38.1 2.08-.02.45-.06.7-.51.87-.31.11-.61.11-.91.01-.02-.04-.04-.08-.07-.11-1.55-1.58-2.58-3.41-3.26-5.38-.01-.04-.02-.08-.04-.12-1.2-3.55-1.26-7.53-1.12-11.24.65-.31 1.18-.84 1.53-1.48.02-.04.03-.08.04-.12.36-.08.72-.17 1.06-.28.37 1.16.45 2.31.67 3.51.02.11.09.15.17.17-.63 1.25-1.07 2.59-1.2 3.96-.1 1.01-.11 2.81 1.04 3.31.81.36 1.47.08 2.02-.51.07.3.21.54.39.71.01.04.01.1.02.15zm6.59-2.69c.25-2.03-.12-4.58-1.05-6.36-.11-.22-.47-.07-.4.17.47 1.51.79 3.09.85 4.68.03.79.06 1.78-.33 2.5-.51.93-1.2.64-2.02.45 1.04-1.88.6-4.37.72-6.41.02-.3-.43-.29-.46 0-.14 1.22-.06 2.46-.17 3.68-.06.7-.15 1.47-.47 2.1-.56 1.11-2.62 2.39-3.08.33-.01-.03-.03-.04-.04-.06 1.04-1.78 1.51-4.69 1.63-5.53.03-.2-.27-.29-.31-.09-.2 1.06-1.46 7.52-3.66 6.28-1.06-.6-.57-2.86-.37-3.74.44-1.85 1.37-3.42 2.44-4.96.85.59 2.13.68 3.16.26.69-.28 1.39-.83 1.8-1.49.86 1.1 1.7 2.23 2.34 3.47.38.73.78 1.58.83 2.42.08 1.17-.55 1.74-1.41 2.3z" fill="#222221"/><path d="m37.12 15.13c-.13 0-.26.02-.4.01.36-.42.26-.95-.11-1.46-.07-.09-.16-.12-.25-.12-.27-.35-.93-.24-1.28-.02-.55.35-.85 1.09-.47 1.68.34.54.99.54 1.52.32.37.15.89.16 1.12-.19.08-.09-.02-.22-.13-.22zm-2.05-.31c-.13-.35.15-.71.46-.84.19-.08.39-.07.58-.02 0 .01 0 .01.01.02.25.34.43.68-.02.94-.3.18-.86.34-1.03-.1z" fill="#222221"/><path d="m30.68 13.93c.02.09.06.17.12.24.37.38 1.1.33 1.48.01.43-.37.49-1.07.07-1.47-.04-.04-.09-.05-.14-.06-.17-.43-.92-.24-1.19-.01-.14.12-.22.27-.28.43 0 0 0-.01-.01-.01-.14-.19-.45-.14-.46.13-.01.24.18.51.34.68.02.02.05.04.07.06zm.86-.89c.11-.05.23-.05.35-.05.01.02 0 .05.01.07.13.22.2.52-.05.69-.12.08-.25.09-.39.06-.03-.01-.06-.02-.1-.03-.03-.03-.06-.07-.1-.1.02-.24.02-.52.28-.64z" fill="#222221"/><path d="m36.6 18.03c-1.62.88-4.78 1.05-5.6-1.08-.11-.28-.56-.16-.46.13.88 2.47 4.4 2.54 6.34 1.44.32-.19.04-.66-.28-.49z" fill="#222221"/><path d="m13.19 35.37c-.04-.04-.13.01-.09.07 2.68 3.53 2.81 8.91 2.22 13.12-.05.37.45.44.5.07.51-3.88.69-10.44-2.63-13.26z" fill="#222221"/><path d="m3.64 29.51c-.04-.03-.13.01-.09.07 2.26 2.97 3.1 7.64 2.58 11.26-.05.37.45.44.5.07.29-2.16.16-4.12-.45-6.21-.53-1.83-.97-3.96-2.54-5.19z" fill="#222221"/></g></svg>