<svg clip-rule="evenodd" fill-rule="evenodd" stroke-linejoin="round" stroke-miterlimit="2" viewBox="0 0 53 53" xmlns="http://www.w3.org/2000/svg"><g fill-rule="nonzero" transform="translate(-39 -29)"><path d="m75.25 52.34c-.59-.23-1.72-.79-2.59-1.54-.97-.98-1.57-2.27-1.57-3.69 0-2.11 1.31-3.94 3.22-4.86 1.67-.61 2.93-.64 3.66-.57 2.92.38 5.17 2.67 5.17 5.44 0 .55-.09 1.08-.26 1.59-.09.21-.56 1.22-1.31 2.11-1.1 1.11-2.69 1.81-4.45 1.81-.66-.01-1.28-.11-1.87-.29z" fill="#fff"/><path d="m90.82 55.85v.12c-.96-2.04-2.94-4.96-6.85-7.35.13-.49.2-.99.2-1.51 0-2.84-1.97-5.25-4.71-6.14.41-2.75-.59-5.31-1.44-6.89 7.62 4.26 12.8 12.42 12.8 21.77z" fill="#ff9e46"/><path d="m56.41 32.81c7.61.62 14.93 7.07 16.84 8.87-1.91 1.17-3.18 3.17-3.18 5.44 0 .62.1 1.21.27 1.77-2.64.53-14.6 2.36-26.4-4.82 2.71-5.05 7.13-9.06 12.47-11.26z" fill="#71ff96"/><path d="m48.37 73.56c4.12-.59 19.19-3.83 27.01-20.13.56.13 1.14.21 1.74.21.74 0 1.45-.11 2.12-.3.75 2.15 3.82 11.7 2.49 21.75-4.31 3.55-9.83 5.69-15.83 5.69-6.83 0-13.02-2.76-17.53-7.22z" fill="#bc2aff"/><path d="m79.54 52.7s4.28 10.96 2.66 22.67c0 0 7.34-4.96 8.98-16.82 0 0-1.03-5.73-7.82-9.69.01 0-1.39 3.41-3.82 3.84z" fill="#b71c32"/><path d="m71.01 49.27s-13.97 3.62-27.76-5.01c0 0-8.32 13.86 4.02 28.92 0 0 18.86-1.13 27.83-20.34 0 0-3.66-1.42-4.09-3.57z" fill="#009fdf"/><path d="m74.09 41.79s-8.63-8.84-17.78-9.51c0 0 9.71-4.59 20.26.48 0 0 3.21 4.15 2.29 8.56.01.01-1.78-.64-4.77.47z" fill="#f0d33b"/><path d="m79.04 77.63s-20.37 3.56-25.54-16.17 10.01-31.08 10.01-31.08-26.86 3.53-22.55 30.53c0 0 9.01 30.68 38.08 16.72z" fill="#32346f" fill-opacity=".2"/><path d="m88.91 67.8c1.45-2.79 2.42-5.87 2.77-9.14 0-.02.01-.03.01-.05v-.01c.1-.9.15-1.82.15-2.75 0-10.4-6.15-19.38-15-23.51-.01-.01-.02-.02-.04-.03-5.55-2.67-10.9-2.7-14.78-2.11-.04.01-.08.01-.13.02-.41.06-.81.14-1.19.21-.02 0-.04.01-.06.01-2.77.56-4.51 1.36-4.55 1.38-.01.01-.02.02-.04.03-5.71 2.34-10.39 6.67-13.21 12.11-.01.02-.03.03-.04.04-.03.04-.87 1.5-1.62 3.94-.8 2.5-1.24 5.15-1.24 7.91 0 6.75 2.59 12.9 6.83 17.52.03.04.06.08.1.12.02.03.06.04.08.07 4.74 5.06 11.47 8.23 18.93 8.23 6.3 0 12.08-2.26 16.58-6 .01 0 .02 0 .02-.01.2-.14 3.45-2.41 6.1-7.38.08-.15.17-.31.25-.46.03-.04.06-.09.08-.14zm-1.79 1.1c-1.18 1.91-2.61 3.66-4.25 5.18.98-9.74-1.88-18.78-2.66-21.03.85-.3 1.55-.91 2.11-1.55.54-.55.98-1.18 1.3-1.88 5.63 3.52 6.89 8.3 7.04 8.96v.03c-.61 4.33-2.03 7.73-3.54 10.29zm-39.63 3.74c-7.97-9.87-6.9-19.26-5.37-24.3.37-1.16.81-2.28 1.34-3.36 12.23 7.4 24.64 5.4 27.2 4.88.26.64.75 1.21 1.3 1.69.68.67 1.5 1.22 2.43 1.58-8.25 17.03-24.65 19.28-26.9 19.51zm27.76-20.3c-.59-.23-1.72-.79-2.59-1.54-.97-.98-1.57-2.27-1.57-3.69 0-2.11 1.31-3.94 3.22-4.86 1.67-.61 2.93-.64 3.66-.57 2.92.38 5.17 2.67 5.17 5.44 0 .55-.09 1.08-.26 1.59-.09.21-.56 1.22-1.31 2.11-1.1 1.11-2.69 1.81-4.45 1.81-.66-.01-1.28-.11-1.87-.29zm-13.18-21.12c.02 0 .03-.01.05-.01 1.23-.19 2.49-.29 3.77-.29 3.7 0 7.21.82 10.37 2.27.46.65 2.67 3.96 2.2 7.52-.12-.02-.26-.04-.42-.05-.31-.04-.62-.06-.93-.06-1.04 0-2.02.21-2.9.59-1.38-1.35-8.11-7.62-15.75-9.12 1.17-.38 2.37-.66 3.61-.85zm28.75 24.63v.12c-.96-2.04-2.94-4.96-6.85-7.35.13-.49.2-.99.2-1.51 0-2.84-1.97-5.25-4.71-6.14.41-2.75-.59-5.31-1.44-6.89 7.62 4.26 12.8 12.42 12.8 21.77zm-34.41-23.04c7.61.62 14.93 7.07 16.84 8.87-1.91 1.17-3.18 3.17-3.18 5.44 0 .62.1 1.21.27 1.77-2.64.53-14.6 2.36-26.4-4.82 2.71-5.05 7.13-9.06 12.47-11.26zm-8.04 40.75c4.12-.59 19.19-3.83 27.01-20.13.56.13 1.14.21 1.74.21.74 0 1.45-.11 2.12-.3.75 2.15 3.82 11.7 2.49 21.75-4.31 3.55-9.83 5.69-15.83 5.69-6.83 0-13.02-2.76-17.53-7.22z" fill="#252723"/></g></svg>