<?xml version="1.0" encoding="UTF-8" standalone="no"?>
<!DOCTYPE svg PUBLIC "-//W3C//DTD SVG 1.1//EN" "http://www.w3.org/Graphics/SVG/1.1/DTD/svg11.dtd">
<svg width="100%" height="100%" viewBox="0 0 53 53" version="1.1" xmlns="http://www.w3.org/2000/svg" xmlns:xlink="http://www.w3.org/1999/xlink" xml:space="preserve" xmlns:serif="http://www.serif.com/" style="fill-rule:evenodd;clip-rule:evenodd;stroke-linejoin:round;stroke-miterlimit:2;">
    <g transform="matrix(1,0,0,1,-39,-29)">
        <g>
            <path d="M75.25,52.34C74.66,52.11 73.53,51.55 72.66,50.8C71.69,49.82 71.09,48.53 71.09,47.11C71.09,45 72.4,43.17 74.31,42.25C75.98,41.64 77.24,41.61 77.97,41.68C80.89,42.06 83.14,44.35 83.14,47.12C83.14,47.67 83.05,48.2 82.88,48.71C82.79,48.92 82.32,49.93 81.57,50.82C80.47,51.93 78.88,52.63 77.12,52.63C76.46,52.62 75.84,52.52 75.25,52.34Z" style="fill:white;fill-rule:nonzero;"/>
            <path d="M90.82,55.85L90.82,55.97C89.86,53.93 87.88,51.01 83.97,48.62C84.1,48.13 84.17,47.63 84.17,47.11C84.17,44.27 82.2,41.86 79.46,40.97C79.87,38.22 78.87,35.66 78.02,34.08C85.64,38.34 90.82,46.5 90.82,55.85Z" style="fill:rgb(255,158,70);fill-rule:nonzero;"/>
            <path d="M56.41,32.81C64.02,33.43 71.34,39.88 73.25,41.68C71.34,42.85 70.07,44.85 70.07,47.12C70.07,47.74 70.17,48.33 70.34,48.89C67.7,49.42 55.74,51.25 43.94,44.07C46.65,39.02 51.07,35.01 56.41,32.81Z" style="fill:rgb(113,255,150);fill-rule:nonzero;"/>
            <path d="M48.37,73.56C52.49,72.97 67.56,69.73 75.38,53.43C75.94,53.56 76.52,53.64 77.12,53.64C77.86,53.64 78.57,53.53 79.24,53.34C79.99,55.49 83.06,65.04 81.73,75.09C77.42,78.64 71.9,80.78 65.9,80.78C59.07,80.78 52.88,78.02 48.37,73.56Z" style="fill:rgb(188,42,255);fill-rule:nonzero;"/>
            <path d="M79.54,52.7C79.54,52.7 83.82,63.66 82.2,75.37C82.2,75.37 89.54,70.41 91.18,58.55C91.18,58.55 90.15,52.82 83.36,48.86C83.37,48.86 81.97,52.27 79.54,52.7Z" style="fill:rgb(183,28,50);fill-rule:nonzero;"/>
            <path d="M71.01,49.27C71.01,49.27 57.04,52.89 43.25,44.26C43.25,44.26 34.93,58.12 47.27,73.18C47.27,73.18 66.13,72.05 75.1,52.84C75.1,52.84 71.44,51.42 71.01,49.27Z" style="fill:rgb(0,159,223);fill-rule:nonzero;"/>
            <path d="M74.09,41.79C74.09,41.79 65.46,32.95 56.31,32.28C56.31,32.28 66.02,27.69 76.57,32.76C76.57,32.76 79.78,36.91 78.86,41.32C78.87,41.33 77.08,40.68 74.09,41.79Z" style="fill:rgb(240,211,59);fill-rule:nonzero;"/>
            <path d="M79.04,77.63C79.04,77.63 58.67,81.19 53.5,61.46C48.33,41.73 63.51,30.38 63.51,30.38C63.51,30.38 36.65,33.91 40.96,60.91C40.96,60.91 49.97,91.59 79.04,77.63Z" style="fill:rgb(50,52,111);fill-opacity:0.2;fill-rule:nonzero;"/>
            <path d="M88.91,67.8C90.36,65.01 91.33,61.93 91.68,58.66C91.68,58.64 91.69,58.63 91.69,58.61L91.69,58.6C91.79,57.7 91.84,56.78 91.84,55.85C91.84,45.45 85.69,36.47 76.84,32.34C76.83,32.33 76.82,32.32 76.8,32.31C71.25,29.64 65.9,29.61 62.02,30.2C61.98,30.21 61.94,30.21 61.89,30.22C61.48,30.28 61.08,30.36 60.7,30.43C60.68,30.43 60.66,30.44 60.64,30.44C57.87,31 56.13,31.8 56.09,31.82C56.08,31.83 56.07,31.84 56.05,31.85C50.34,34.19 45.66,38.52 42.84,43.96C42.83,43.98 42.81,43.99 42.8,44C42.77,44.04 41.93,45.5 41.18,47.94C40.38,50.44 39.94,53.09 39.94,55.85C39.94,62.6 42.53,68.75 46.77,73.37C46.8,73.41 46.83,73.45 46.87,73.49C46.89,73.52 46.93,73.53 46.95,73.56C51.69,78.62 58.42,81.79 65.88,81.79C72.18,81.79 77.96,79.53 82.46,75.79C82.47,75.79 82.48,75.79 82.48,75.78C82.68,75.64 85.93,73.37 88.58,68.4C88.66,68.25 88.75,68.09 88.83,67.94C88.86,67.9 88.89,67.85 88.91,67.8ZM87.12,68.9C85.94,70.81 84.51,72.56 82.87,74.08C83.85,64.34 80.99,55.3 80.21,53.05C81.06,52.75 81.76,52.14 82.32,51.5C82.86,50.95 83.3,50.32 83.62,49.62C89.25,53.14 90.51,57.92 90.66,58.58L90.66,58.61C90.05,62.94 88.63,66.34 87.12,68.9ZM47.49,72.64C39.52,62.77 40.59,53.38 42.12,48.34C42.49,47.18 42.93,46.06 43.46,44.98C55.69,52.38 68.1,50.38 70.66,49.86C70.92,50.5 71.41,51.07 71.96,51.55C72.64,52.22 73.46,52.77 74.39,53.13C66.14,70.16 49.74,72.41 47.49,72.64ZM75.25,52.34C74.66,52.11 73.53,51.55 72.66,50.8C71.69,49.82 71.09,48.53 71.09,47.11C71.09,45 72.4,43.17 74.31,42.25C75.98,41.64 77.24,41.61 77.97,41.68C80.89,42.06 83.14,44.35 83.14,47.12C83.14,47.67 83.05,48.2 82.88,48.71C82.79,48.92 82.32,49.93 81.57,50.82C80.47,51.93 78.88,52.63 77.12,52.63C76.46,52.62 75.84,52.52 75.25,52.34ZM62.07,31.22C62.09,31.22 62.1,31.21 62.12,31.21C63.35,31.02 64.61,30.92 65.89,30.92C69.59,30.92 73.1,31.74 76.26,33.19C76.72,33.84 78.93,37.15 78.46,40.71C78.34,40.69 78.2,40.67 78.04,40.66C77.73,40.62 77.42,40.6 77.11,40.6C76.07,40.6 75.09,40.81 74.21,41.19C72.83,39.84 66.1,33.57 58.46,32.07C59.63,31.69 60.83,31.41 62.07,31.22ZM90.82,55.85L90.82,55.97C89.86,53.93 87.88,51.01 83.97,48.62C84.1,48.13 84.17,47.63 84.17,47.11C84.17,44.27 82.2,41.86 79.46,40.97C79.87,38.22 78.87,35.66 78.02,34.08C85.64,38.34 90.82,46.5 90.82,55.85ZM56.41,32.81C64.02,33.43 71.34,39.88 73.25,41.68C71.34,42.85 70.07,44.85 70.07,47.12C70.07,47.74 70.17,48.33 70.34,48.89C67.7,49.42 55.74,51.25 43.94,44.07C46.65,39.02 51.07,35.01 56.41,32.81ZM48.37,73.56C52.49,72.97 67.56,69.73 75.38,53.43C75.94,53.56 76.52,53.64 77.12,53.64C77.86,53.64 78.57,53.53 79.24,53.34C79.99,55.49 83.06,65.04 81.73,75.09C77.42,78.64 71.9,80.78 65.9,80.78C59.07,80.78 52.88,78.02 48.37,73.56Z" style="fill:rgb(37,39,35);fill-rule:nonzero;"/>
        </g>
    </g>
</svg>
