<svg clip-rule="evenodd" fill-rule="evenodd" stroke-linejoin="round" stroke-miterlimit="2" viewBox="0 0 21 13" xmlns="http://www.w3.org/2000/svg"><g fill-rule="nonzero"><path d="m8.2 11.851c.388-.116.678-.185.952-.297.076-.03.15-.198.135-.287-.027-.15-.124-.287-.207-.461-.303.359-.554.658-.88 1.045m2.642-8.84c.581.175 1.032.317 1.488.442.082.023.197-.006.274-.051.703-.412.902-1.283.442-2.045-.702.526-1.4 1.051-2.204 1.654m-4.817-.255c.657 0 1.158.012 1.66-.007.137-.006.322-.061.401-.16.411-.515.794-1.053 1.215-1.622-.8-.081-.942-.08-1.335.155-.694.416-1.321.916-1.941 1.634m6.666-1.749c-.15-.374-.401-.523-.781-.443-.592.126-1.186.246-1.776.381-.119.027-.253.083-.332.17-.439.479-.88.959-1.167 1.602.488.068.936.143 1.385.185.134.012.307-.031.413-.113.758-.584 1.505-1.183 2.258-1.782m5.617 4.9c-.004-.033-.008-.064-.013-.097-1.193.19-2.387.372-3.578.576-.337.057-.381.194-.294.63.083.426.156.478.537.445.627-.055 1.253-.116 1.882-.137.454-.017.887 0 1.306-.268.237-.152.576-.158.873-.199.25-.035.508-.001.754-.046.156-.026.395-.12.417-.223.03-.132-.082-.357-.203-.445-.173-.125-.406-.205-.621-.226-.349-.036-.705-.01-1.06-.01m-3.815.248c1.046-.353 2.184-.176 3.008-1.009.151-.154.393-.22.595-.322.204-.101.444-.159.608-.303.199-.175.386-.399.484-.64.115-.282-.061-.529-.366-.502-.497.046-1.002.122-1.478.268-1.156.353-2.08 1.127-3.073 1.775-.153.1-.2.236-.098.384.089.129.213.234.32.349m1.446 1.56v.014c-.404 0-.81-.031-1.209.014-.167.018-.375.161-.46.307-.13.227.085.367.262.466.749.413 1.49.846 2.261 1.213.547.26 1.148.384 1.768.313.474-.055.663-.356.485-.797-.063-.159-.176-.308-.297-.432-.664-.684-1.383-1.257-2.432-1.101-.123.019-.252.003-.378.003m-5.041 4.158c.836-.006 1.328-.527 1.697-1.189.294-.528.176-.986-.35-1.292-.819-.479-1.751-.605-2.669-.755-.199-.032-.368.075-.331.3.143.84.274 1.677.722 2.436.229.389.518.517.931.5m-2.838-8.63c.198.495.395.906.527 1.338.294.964.639 1.92.632 2.95-.003.298.1.489.462.57 1.144.26 2.333.401 3.37 1.192.209-.424.347-.807.571-1.129.334-.476.392-1.004.278-1.521-.165-.74-.46-1.443-.962-2.036-.44-.519-.977-.839-1.665-.965-1.038-.19-2.054-.524-3.213-.399m-4.251 7.711c.042.092.052.142.082.177.642.733 1.496.881 2.409.881 1.095 0 2.023-.598 2.435-1.584.109-.261.145-.512.096-.807-.079-.467-.144-.955-.096-1.422.072-.689.065-1.365-.128-2.023-.249-.846-.539-1.68-.828-2.513-.073-.211-.187-.428-.464-.446-.941-.059-1.881-.045-2.734.422-.981.539-1.858 1.227-2.619 2.049-.799.863-1.27 1.861-1.278 3.073-.004.738.838 1.67 1.479 1.719 1.399.107 2.66-.207 3.627-1.32.194-.226.284-.401-.012-.615-.129-.093-.291-.234-.075-.468.422.515 1.061.397 1.755.518-.196.127-.273.218-.352.221-.358.014-.572.169-.77.486-.337.542-.817.962-1.428 1.204-.35.137-.698.284-1.099.448m14.334-5.47c.476 0 .953-.031 1.425.009.59.048.973.39 1.095.892.113.468-.036.742-.503.837-.27.056-.553.044-.83.069-.251.024-.508.03-.748.094-.306.081-.35.276-.129.493.216.213.458.4.675.611.285.273.437.608.449 1.012.022.673-.172.925-.843 1.015-1.018.133-1.959-.123-2.847-.603-.556-.301-1.105-.616-1.643-.946-.249-.152-.4-.121-.563.118-.212.312-.398.583-.409 1.015-.036 1.551-1.774 2.683-3.213 2.105-.386-.154-.696-.172-1.082-.051-1.127.353-2.295.37-3.46.287-.784-.056-1.481-.363-1.947-1.033-.231-.334-.512-.441-.901-.416-.597.038-1.134-.096-1.621-.498-.892-.737-.931-1.682-.743-2.695.155-.844.57-1.572 1.146-2.191.989-1.063 2.102-1.967 3.447-2.564.264-.118.502-.332.707-.547.597-.624 1.222-1.207 1.955-1.674.374-.24.771-.405 1.212-.37.947.077 1.871-.064 2.776-.301.639-.168 1.079.004 1.555.464.559.539.731 1.129.639 1.844-.052.411-.223.763-.527 1.065-.317.313-.299.332-.003.677.114.133.245.256.348.398.415.571.421.584 1.002.141.748-.571 1.524-1.099 2.414-1.412.52-.183 1.071-.295 1.616-.379.371-.057.775-.054.972.392.171.392.085.954-.253 1.263-.22.201-.497.341-.752.502-.142.09-.293.167-.439.25.008.042.016.085.023.127" fill="#231f20"/><path d="m2.664 6.482c.083-.01.107-.009.131-.016.258-.075.662-.689.635-.967-.021-.216-.309-.379-.44-.221-.218.264-.385.578-.527.89-.029.066.139.223.201.314m1.69.581c.142-.084.293-.121.338-.209.12-.242.223-.5.277-.762.045-.223-.186-.361-.398-.272-.295.125-.587.628-.499.925.035.117.174.202.282.318m-.544 3.891c.4-.164.748-.31 1.098-.448.612-.242 1.092-.662 1.428-1.204.198-.317.412-.472.771-.485.078-.004.155-.095.351-.222-.693-.121-1.333-.003-1.755-.518-.216.234-.054.375.075.468.296.214.207.389.012.615-.967 1.112-2.228 1.428-3.627 1.32-.641-.049-1.483-.981-1.478-1.719.007-1.212.478-2.21 1.277-3.073.761-.822 1.638-1.51 2.619-2.049.853-.467 1.792-.481 2.733-.422.279.018.393.235.465.446.289.833.58 1.668.828 2.513.193.658.2 1.334.128 2.023-.048.467.016.955.096 1.422.05.295.013.546-.096.807-.412.987-1.34 1.584-2.435 1.584-.913 0-1.768-.148-2.409-.881-.029-.035-.04-.085-.081-.177" fill="#ffe292"/><path d="m8.061 3.243c1.158-.125 2.174.209 3.213.399.688.126 1.225.447 1.664.965.503.593.798 1.296.961 2.036.115.518.056 1.045-.277 1.522-.223.321-.361.704-.571 1.129-1.036-.792-2.226-.933-3.37-1.192-.362-.082-.465-.273-.462-.571.007-1.03-.337-1.986-.632-2.95-.133-.431-.329-.843-.526-1.338" fill="#fdb713"/><g fill="#68c9d2"><path d="m10.899 11.873c-.413.018-.702-.111-.931-.5-.449-.759-.579-1.596-.722-2.435-.037-.225.132-.333.33-.301.919.15 1.851.276 2.67.755.525.307.642.764.349 1.293-.369.661-.86 1.182-1.696 1.188"/><path d="m15.94 7.715c.126 0 .255.016.378-.003 1.049-.156 1.768.417 2.431 1.101.121.124.235.274.298.432.178.441-.012.743-.485.797-.62.071-1.221-.053-1.768-.313-.771-.367-1.512-.801-2.261-1.214-.177-.098-.392-.239-.262-.465.085-.146.293-.289.461-.307.398-.045.804-.014 1.208-.014z"/><path d="m14.494 6.156c-.107-.115-.231-.22-.321-.349-.103-.149-.056-.284.098-.385.993-.648 1.917-1.421 3.073-1.774.477-.146.981-.223 1.478-.268.306-.027.482.219.365.502-.097.24-.285.465-.483.64-.165.143-.403.201-.607.303-.203.102-.444.168-.596.321-.823.834-1.963.657-3.007 1.01"/></g><path d="m18.309 5.907c.354 0 .711-.026 1.06.01.215.021.448.101.622.226.12.088.232.314.202.445-.022.104-.261.197-.417.224-.246.044-.504.011-.754.045-.297.041-.636.047-.873.199-.419.268-.852.251-1.306.267-.629.023-1.256.084-1.882.139-.381.032-.454-.02-.537-.446-.087-.435-.042-.573.294-.63 1.191-.204 2.384-.386 3.577-.575.005.032.01.064.014.096" fill="#08b9af"/><path d="m12.692 1.007c-.754.599-1.5 1.2-2.259 1.783-.105.081-.278.125-.413.113-.449-.042-.896-.117-1.384-.186.287-.643.727-1.122 1.167-1.602.079-.086.212-.142.331-.169.591-.135 1.185-.256 1.777-.381.38-.08.632.069.781.442" fill="#68c9d2"/><path d="m6.025 2.756c.62-.718 1.247-1.218 1.941-1.634.393-.235.535-.236 1.335-.155-.421.569-.804 1.107-1.215 1.622-.079.099-.263.154-.402.16-.501.019-1.002.007-1.659.007" fill="#08b9af"/><path d="m10.842 3.011c.803-.603 1.502-1.127 2.204-1.654.461.762.262 1.633-.442 2.045-.077.046-.192.074-.273.052-.457-.125-.907-.268-1.489-.443" fill="#08b9af"/><path d="m8.2 11.851c.326-.387.577-.686.88-1.045.083.174.18.311.207.461.015.089-.059.257-.135.287-.274.112-.564.181-.952.297" fill="#fdb713"/><path d="m4.354 7.064c-.107-.117-.248-.203-.282-.319-.089-.297.203-.8.499-.925.213-.088.443.05.398.271-.055.263-.158.522-.278.764-.044.088-.194.124-.337.209" fill="#231f20"/><path d="m2.664 6.482c-.062-.091-.23-.248-.201-.314.142-.312.309-.626.527-.89.131-.158.419.005.44.221.027.278-.377.892-.635.967-.024.007-.048.006-.131.016" fill="#231f20"/><path d="m5.978 3.713c1.23-.131 2.476-.119 3.703.035.838.106 1.717.301 2.331.883-.823.357-1.765.201-2.655.088-1.289-.164-2.592-.223-3.891-.178-.296.011-1.287.222-.896-.35.248-.362 1.019-.437 1.408-.478" fill="#fff" opacity=".69"/><path d="m10.604 11.156c.105.083.236.148.369.131.134-.016.257-.141.234-.273-.036-.204-.324-.222-.485-.353-.175-.142-.179-.402-.19-.627-.019-.39-.461-.865-.551-.259-.063.428.298 1.124.623 1.381" fill="#fff" opacity=".69"/><path d="m11.982 1.504c.071.021.149.047.183.113.037.076-.006.17-.075.219-.067.05-.153.063-.236.077-.305.047-.613.095-.922.084-.398-.015-.783-.127-1.179-.163-.299-.026-.601-.008-.902.009-.223.013-1.322.2-1.279-.077.046-.307 1.07-.398 1.314-.436.514-.081 1.037-.107 1.558-.078.506.028 1.046.252 1.538.252" fill="#fff" opacity=".69"/></g></svg>