<svg clip-rule="evenodd" fill-rule="evenodd" stroke-linejoin="round" stroke-miterlimit="2" viewBox="0 0 41 50" xmlns="http://www.w3.org/2000/svg"><g transform="translate(-48 -31)"><path d="m70.04 80.19c-3.24-.37-6.47-.74-9.71-1.1-2.48-.28-4.96-.53-7.44-.84-.89-.11-1.82-.2-2.52-.88-1.21-1.19-1.62-2.59-1.25-4.27.57-2.6 1.05-5.23 1.62-7.83.74-3.41 1.54-6.81 2.3-10.23.83-3.74 1.59-7.49 2.47-11.21.73-3.06 1.68-6.07 2.39-9.14.35-1.54 1.28-2.46 2.54-3.18.4-.23.91-.42 1.37-.41 1.56.04 3.13.13 4.69.29 2.17.23 4.32.62 6.49.8 3.57.29 7.1.78 10.62 1.45.73.14 1.53.29 2.08.95.57.68 1.3 1.24 1.75 1.98.58.95.96 2.06.76 3.2-.21 1.2-.54 2.39-.81 3.58-.96 4.32-1.9 8.64-2.86 12.95-.47 2.11-1.01 4.2-1.42 6.31-.49 2.54-.8 5.1-1.31 7.63-.49 2.43-1.09 4.83-1.71 7.23-.4 1.55-1.81 2.69-3.4 2.82-1.34.11-2.69.15-4.02.22-.91-.11-1.77-.23-2.63-.32zm-10.6-47.3c-.65.68-.96 1.55-1.19 2.44-1.1 4.17-2.23 8.34-3.26 12.53-.71 2.92-1.26 5.87-1.9 8.81-.77 3.58-1.56 7.16-2.33 10.73-.36 1.68-.77 3.34-1.03 5.03-.26 1.65-.15 3.3 1.22 4.5.5.44 1.23.74 1.89.84 2.11.31 4.24.49 6.37.72 1.32.14 2.65.25 3.97.41 1.72.2 3.44.49 5.16.65 1.76.16 3.54.28 5.3.26 1.67-.02 2.57-1.22 3.37-2.54.89-1.47 1.12-3.13 1.48-4.73.73-3.2 1.32-6.42 1.99-9.63.9-4.31 1.83-8.61 2.72-12.91.65-3.14 1.28-6.3 1.92-9.44.21-1.05.45-2.11.63-3.17.2-1.15-.97-2.87-2.11-3.14-3.58-.87-7.22-1.36-10.89-1.68-2.06-.18-4.11-.52-6.17-.77-1.01-.12-2.02-.18-3.4-.31-1.24-.2-2.62.23-3.74 1.4zm20.17 44.12c.53-1.73.97-3.49 1.36-5.26.37-1.69.6-3.42.92-5.12.44-2.29.89-4.57 1.38-6.84.77-3.62 1.58-7.23 2.36-10.85.54-2.54 1.04-5.09 1.58-7.64.11-.53.41-1.04.46-1.58.11-1.33-.44-2.45-1.33-3.63-.03.31-.05.46-.06.61-.02.5.05 1.01-.06 1.49-.63 2.98-1.32 5.94-1.96 8.92-.95 4.4-1.88 8.81-2.79 13.22-.7 3.33-1.36 6.67-2.05 10.01-.34 1.66-.8 3.29-1.05 4.96-.2 1.35-.85 2.44-1.58 3.52-.25.37-.63.66-.97 1.02 2.03.03 3.22-.94 3.79-2.83z" fill="#252723"/><path d="m66.57 31.78c2.06.25 4.11.58 6.17.77 3.67.32 7.31.81 10.89 1.68 1.14.28 2.32 2 2.11 3.14-.19 1.06-.42 2.11-.63 3.17-.64 3.15-1.26 6.3-1.92 9.44-.9 4.31-1.82 8.61-2.72 12.91-.67 3.21-1.26 6.44-1.99 9.63-.37 1.61-.59 3.27-1.48 4.73-.8 1.32-1.7 2.52-3.37 2.54-1.77.02-3.54-.1-5.3-.26-1.73-.16-3.44-.44-5.16-.65-1.32-.16-2.65-.27-3.97-.41-2.12-.23-4.25-.41-6.37-.72-.66-.1-1.39-.4-1.89-.84-1.37-1.19-1.47-2.85-1.22-4.5.26-1.69.67-3.36 1.03-5.03.77-3.58 1.56-7.15 2.33-10.73.63-2.94 1.18-5.89 1.9-8.81 1.02-4.19 2.16-8.36 3.26-12.53.23-.89.54-1.76 1.19-2.44 1.12-1.16 2.5-1.6 3.73-1.41 1.39.14 2.4.2 3.41.32zm-5.84 40.16c3.43.35 6.87.61 10.3.99 1.46.16 2.91.51 4.36.79 1.09.22 1.14.14 1.27-.95.16-1.43.4-2.85.66-4.26.62-3.33 1.24-6.65 1.91-9.96 1.03-5.14 2.1-10.28 3.16-15.42.26-1.28.58-2.55.87-3.83.12-.54-.03-.96-.61-1.05-.85-.13-1.72-.2-2.58-.29-3.53-.37-7.07-.75-10.6-1.08-2.48-.24-4.97-.41-7.45-.61-.4-.03-.8-.08-1.2-.12-.58-.05-.74.17-.84.74-.18.95-.46 1.88-.69 2.82-.72 2.87-1.48 5.73-2.16 8.61-.77 3.25-1.47 6.52-2.19 9.78-.55 2.52-1.08 5.05-1.6 7.57-.29 1.41-.55 2.82-.82 4.23-.07.36-.11.74-.16 1.1.37.05.74.09 1.12.14 0-.03.01-.05.01-.08 2.41.31 4.82.63 7.24.88zm4.99 5.49c.68.1 1.09-.05 1.3-.69.18-.56.32-1.14.34-1.72.04-.96-.36-1.35-1.31-1.43-2-.18-4-.37-6-.51-.28-.02-.62.14-.84.32-.54.43-.88 2.08-.61 2.72.18.42.56.58 1.41.53 1.9.25 3.81.5 5.71.78zm1.45-43.99c-.06.22.14.59.34.78.21.2.54.35.83.39 2.35.32 4.7.61 7.04.92.25.03.51.05.75.13.5.17.93.08 1.29-.28.16-.16.34-.43.31-.62-.03-.2-.26-.47-.46-.52-.5-.14-1.04-.19-1.56-.25-2.12-.23-4.24-.44-6.35-.69-.48-.05-.95-.2-1.56-.34-.17.13-.56.26-.63.48z" fill="#d6b66b"/><path d="m75.82 79.83c2.03.05 3.22-.93 3.79-2.82.53-1.73.97-3.49 1.36-5.26.37-1.69.6-3.42.92-5.12.44-2.29.89-4.57 1.38-6.84.77-3.62 1.58-7.23 2.36-10.85.54-2.54 1.04-5.09 1.58-7.64.11-.53.41-1.04.46-1.58.11-1.33-.44-2.45-1.33-3.63-.03.31-.05.46-.06.61-.02.5.05 1.01-.06 1.49-.63 2.98-1.32 5.94-1.96 8.92-.95 4.4-1.88 8.81-2.79 13.22-.7 3.33-1.36 6.67-2.05 10.01-.34 1.66-.8 3.29-1.05 4.96-.2 1.35-.85 2.44-1.58 3.52-.25.36-.63.65-.97 1.01z" fill="#876a43"/><g fill="#252723"><path d="m53.48 71.15c-.37-.05-.74-.09-1.12-.14.05-.37.09-.74.16-1.1.27-1.41.52-2.83.82-4.23.52-2.53 1.05-5.05 1.6-7.57.71-3.27 1.42-6.53 2.19-9.78.68-2.88 1.43-5.74 2.16-8.61.24-.94.52-1.87.69-2.82.1-.57.27-.79.84-.74.4.04.8.09 1.2.12 2.48.2 4.97.38 7.45.61 3.54.34 7.07.72 10.6 1.08.86.09 1.72.16 2.58.29.58.09.73.52.61 1.05-.29 1.28-.6 2.55-.87 3.83-1.06 5.14-2.13 10.27-3.16 15.42-.67 3.32-1.29 6.64-1.91 9.96-.26 1.41-.49 2.83-.66 4.26-.13 1.1-.18 1.17-1.27.95-1.45-.28-2.89-.63-4.36-.79-3.43-.38-6.87-.64-10.3-.99-2.42-.25-4.83-.58-7.25-.87zm6.88-33.67c-.48 1.82-.95 3.64-1.42 5.47-.64 2.52-1.31 5.04-1.91 7.57-.54 2.29-1.01 4.59-1.48 6.89-.75 3.67-1.47 7.35-2.21 11.02-.1.5-.24.99-.34 1.48-.09.42.03.68.52.73 2 .23 3.99.5 5.99.71 3.2.35 6.39.67 9.59 1 2.1.21 4.21.4 6.31.62.53.05.79-.1.88-.68.51-3.15 1.05-6.3 1.6-9.44.21-1.19.53-2.35.75-3.54.39-2.1.69-4.22 1.12-6.31.67-3.28 1.4-6.54 2.11-9.81.22-1.03.44-2.07.67-3.1.22-.99.1-1.24-.89-1.37-1.44-.2-2.9-.32-4.35-.47-4.63-.49-9.26-.97-13.89-1.45-.63-.06-1.27-.09-1.97-.15-.6-.11-.93.25-1.08.83z"/><path d="m58.59 76.11c-.27-.64.06-2.29.61-2.72.23-.18.57-.34.84-.32 2 .14 4 .33 6 .51.95.08 1.35.47 1.31 1.43-.02.58-.16 1.17-.34 1.72-.2.64-.61.79-1.3.69-1.9-.27-3.81-.53-5.72-.79-.84.06-1.22-.1-1.4-.52zm6.41-2.17c-1.41-.1-2.82-.21-4.23-.38-.7-.08-1.05.32-1.35.8-.31.49-.35 1.05.04 1.54.12.15.32.3.49.32 1.86.25 3.72.5 5.59.71.7.08 1.08-.53 1-1.52-.08-1.09-.42-1.39-1.54-1.47z"/><path d="m69.37 33.32c2.12.24 4.23.45 6.35.69.52.06 1.05.11 1.56.25.19.05.43.32.46.52.03.19-.15.46-.31.62-.36.35-.79.45-1.29.28-.24-.08-.5-.1-.75-.13-2.35-.3-4.7-.59-7.04-.92-.29-.04-.62-.19-.83-.39-.2-.19-.41-.57-.34-.78.06-.22.46-.34.64-.46.6.11 1.07.26 1.55.32zm-.82.89c1.47.2 2.94.36 4.4.55 1.07.14 2.13.34 3.19.46.29.03.61-.1 1.03-.18-.52-.52-8.27-1.51-9.14-1.3-.03.06-.06.12-.09.19.21.1.4.25.61.28z"/></g><path d="m61.43 36.65c-.59-.11-.91.25-1.07.83-.48 1.82-.95 3.64-1.42 5.47-.64 2.52-1.31 5.04-1.91 7.57-.54 2.29-1.01 4.59-1.48 6.89-.75 3.67-1.47 7.35-2.21 11.02-.1.5-.24.99-.34 1.48-.09.42.03.68.52.73 2 .23 3.99.5 5.99.71 3.2.35 6.39.67 9.59 1 2.1.21 4.21.4 6.31.62.53.05.79-.1.88-.68.51-3.15 1.05-6.3 1.6-9.44.21-1.19.53-2.35.75-3.54.39-2.1.69-4.22 1.12-6.31.67-3.28 1.4-6.54 2.11-9.81.22-1.03.44-2.07.67-3.1.22-.99.1-1.24-.89-1.37-1.44-.2-2.9-.32-4.35-.47-4.63-.49-9.26-.97-13.89-1.45-.64-.06-1.28-.09-1.98-.15z" fill="#62a2d6"/><path d="m61.08 63.55c2.74-2 5.49-3.99 8.29-5.91 2.8-1.93 5.67-3.76 8.55-5.57.72-.45 1.44-.9 2.17-1.34.53-2.51 1.08-5.02 1.63-7.54.22-1.03.44-2.07.67-3.1.15-.66.13-.99-.19-1.18-1.14.54-2.28 1.08-3.41 1.64-2.52 1.24-4.97 2.66-7.39 4.08-2.32 1.37-4.63 2.77-6.87 4.26-.85.56-1.72 1.09-2.54 1.69-.68.49-1.35 1.06-1.83 1.76 3.17.33 6.37-1.39 9.51-.49.2.06.31.3.2.48-.91 1.45-2.22 2.6-3.56 3.64-1.24.97-2.55 1.85-3.82 2.78-1.37 1.01-2.63 2.15-3.83 3.36-1.34 1.35-2.61 2.77-3.91 4.16-.46.49-.94.97-1.41 1.45-.05.23-.09.47-.14.7-.08.37-.17.74-.26 1.12 2.72-1.99 5.42-3.99 8.14-5.99z" fill="#8eb8e0"/><path d="m75.69 58.72c-2.41 1.37-4.83 2.72-7.22 4.12-4.22 2.47-8.39 5.09-12.2 8.16 1.03.13 2.06.25 3.09.37 3.2.35 6.39.67 9.59 1 2.1.21 4.21.4 6.31.62.53.05.79-.1.88-.68.51-3.15 1.05-6.3 1.6-9.44.21-1.19.53-2.35.75-3.54.14-.76.27-1.53.4-2.29-1.08.53-2.15 1.08-3.2 1.68z" fill="#8eb8e0"/><path d="m66.55 75.41c-.09-1.09-.43-1.39-1.55-1.47-1.41-.1-2.82-.21-4.23-.38-.7-.08-1.05.32-1.35.8-.31.49-.35 1.05.04 1.54.12.15.32.3.49.32 1.86.25 3.72.5 5.59.71.71.07 1.09-.54 1.01-1.52z" fill="#cda157"/><path d="m67.95 33.93c.2.1.39.25.59.28 1.47.2 2.94.36 4.4.55 1.07.14 2.13.34 3.19.46.29.03.61-.1 1.03-.18-.52-.52-8.27-1.51-9.14-1.3-.01.07-.04.13-.07.19z" fill="#926b2b"/><path d="m63.87 32.16c-.71-.18-1.66-.11-2.4-.05-.79.06-1.2.5-1.71 1.07-.98 1.11-1.36 2.6-1.25 4.07.66.04 1.18-1.63 1.46-2.12.44-.77.78-1.3 1.58-1.66.83-.37 1.61-.5 2.51-.6.67-.07.95-.65-.19-.71z" fill="#fff"/><path d="m50.53 72.13c-.05.61-.37 1.15-.32 1.81.05.71.43 1.21.87 1.73.39.46 1.8 1.67 1.52.18-.09-.49-.49-.79-.66-1.22-.17-.45-.24-1.05-.27-1.52-.03-.37.17-2.25-1.14-.98z" fill="#fff"/><path d="m60.29 74.13c-1.29.66.18 2.53.54 1.69.19-.46-.21-.82.38-1.09.41-.19.98.08 1.31-.32-.33-.27-1.24-.32-2.23-.28z" fill="#fff"/></g></svg>