<?xml version="1.0" encoding="UTF-8" standalone="no"?><!DOCTYPE svg PUBLIC "-//W3C//DTD SVG 1.1//EN" "http://www.w3.org/Graphics/SVG/1.1/DTD/svg11.dtd"><svg width="100%" height="100%" viewBox="0 0 173 51" version="1.1" xmlns="http://www.w3.org/2000/svg" xmlns:xlink="http://www.w3.org/1999/xlink" xml:space="preserve" xmlns:serif="http://www.serif.com/" style="fill-rule:evenodd;clip-rule:evenodd;stroke-miterlimit:10;"><g><path d="M14.242,5.254l144.481,0c4.95,0 9,4.05 9,9l0,0.886l-8.375,0l0,18.5l8.375,0l0,2.299c0,4.95 -4.05,9 -9,9l-144.481,0c-4.95,0 -9,-4.05 -9,-9l0,-21.685c0,-4.95 4.05,-9 9,-9Z" style="fill:#e7f2de;fill-rule:nonzero;stroke:#71bf44;stroke-width:1px;"/><g><path d="M56.818,17.406c-0.013,1.859 1.118,3.172 3.302,3.172c2.262,0 3.211,-1.443 3.211,-2.99c0,-1.365 -0.819,-2.067 -2.288,-2.704c-1.625,-0.676 -2.145,-0.858 -2.132,-1.573c0,-0.65 0.546,-1.092 1.183,-1.092c0.949,0 1.118,0.741 1.196,1.183l1.911,0c-0.078,-2.132 -1.768,-2.808 -3.042,-2.808c-1.56,0 -3.185,1.001 -3.185,2.847c0,1.82 1.677,2.418 2.405,2.678c1.339,0.533 2.028,0.741 2.028,1.56c0,0.676 -0.572,1.274 -1.313,1.274c-0.416,0 -1.287,-0.247 -1.352,-1.547l-1.924,0Z" style="fill:#71bf44;fill-rule:nonzero;"/><path d="M64.54,12.297l1.703,0l0,-1.521l-1.703,0l0,1.521Zm0,8.099l1.703,0l0,-7.137l-1.703,0l0,7.137Z" style="fill:#71bf44;fill-rule:nonzero;"/><path d="M75.213,13.259l-1.716,0l0,0.962c-0.403,-0.702 -1.287,-1.17 -2.314,-1.17c-1.976,0 -3.64,1.482 -3.64,3.809c0,2.197 1.586,3.757 3.64,3.757c1.209,0 1.963,-0.637 2.314,-1.274l0,0.598c0,1.443 -1.105,2.145 -2.119,2.145c-0.208,0 -0.585,-0.052 -0.936,-0.247c-0.312,-0.156 -0.585,-0.403 -0.741,-0.728l-1.976,0c0.26,1.105 1.326,2.431 3.549,2.431c1.469,0 2.665,-0.65 3.276,-1.469c0.442,-0.598 0.663,-1.352 0.663,-2.522l0,-6.292Zm-5.967,3.549c0,-1.274 0.975,-2.171 2.132,-2.171c0.741,0 1.274,0.286 1.612,0.715c0.351,0.416 0.52,0.988 0.52,1.534c-0.013,0.611 -0.234,1.144 -0.611,1.521c-0.377,0.39 -0.884,0.611 -1.521,0.611c-1.235,0 -2.132,-0.949 -2.132,-2.197l0,-0.013Z" style="fill:#71bf44;fill-rule:nonzero;"/><path d="M76.864,20.396l1.703,0l0,-3.939c0,-1.001 0.416,-1.807 1.625,-1.82c1.196,0 1.547,0.819 1.547,1.885l0,3.874l1.703,0l0,-4.303c0,-1.261 -0.442,-3.042 -2.769,-3.055c-1.274,-0.013 -1.911,0.611 -2.223,1.17c0.013,-0.338 0.013,-0.637 0.013,-0.949l-1.599,0l0,7.137Z" style="fill:#71bf44;fill-rule:nonzero;"/><path d="M84.729,16.821c0,1.846 1.339,3.783 3.822,3.783c2.483,0 3.822,-1.937 3.822,-3.783c0,-1.833 -1.339,-3.77 -3.822,-3.77c-2.483,0 -3.822,1.937 -3.822,3.757l0,0.013Zm1.703,0c0,-1.261 0.949,-2.184 2.119,-2.184c1.17,0 2.106,0.923 2.106,2.184c0,1.261 -0.936,2.184 -2.106,2.184c-1.17,0 -2.119,-0.923 -2.119,-2.171l0,-0.013Z" style="fill:#71bf44;fill-rule:nonzero;"/><path d="M98.457,15.183c-0.143,-1.716 -1.573,-2.145 -2.535,-2.145c-1.378,0 -2.561,0.871 -2.561,2.275c0.013,1.027 0.793,1.56 1.755,1.859c1.313,0.455 1.846,0.624 1.846,1.235c0.013,0.481 -0.442,0.832 -0.975,0.832c-0.325,0 -0.988,-0.156 -1.053,-0.923l-1.703,0c0.13,1.729 1.625,2.301 2.73,2.301c1.495,0 2.73,-0.936 2.704,-2.405c-0.013,-1.534 -1.248,-1.872 -2.392,-2.184c-0.676,-0.195 -1.196,-0.442 -1.209,-0.897c0,-0.351 0.273,-0.715 0.845,-0.715c0.663,0 0.858,0.39 0.871,0.767l1.677,0Z" style="fill:#71bf44;fill-rule:nonzero;"/><path d="M111.158,10.776l-1.703,0l0,3.406c-0.26,-0.416 -1.027,-1.144 -2.392,-1.144c-1.937,0 -3.588,1.469 -3.588,3.783c0,2.08 1.417,3.796 3.614,3.796c1.456,0 2.132,-0.715 2.444,-1.248l0,1.027l1.625,0l0,-9.62Zm-5.98,6.032c0,-1.118 0.806,-2.184 2.197,-2.184c0.611,0 1.157,0.234 1.547,0.624c0.39,0.377 0.637,0.91 0.637,1.534c0.026,0.624 -0.208,1.183 -0.611,1.586c-0.403,0.403 -0.962,0.65 -1.586,0.65c-1.313,0 -2.184,-0.988 -2.184,-2.197l0,-0.013Z" style="fill:#71bf44;fill-rule:nonzero;"/><path d="M119.868,17.393c0.143,-1.248 -0.182,-2.366 -1.053,-3.263c-0.663,-0.689 -1.599,-1.092 -2.665,-1.092c-2.158,0 -3.744,1.781 -3.744,3.809c0,1.989 1.573,3.77 3.77,3.77c0.741,0 1.443,-0.208 2.041,-0.624c0.598,-0.403 1.105,-1.001 1.443,-1.794l-1.755,0c-0.325,0.585 -0.884,0.962 -1.716,0.962c-0.975,0.013 -1.989,-0.624 -2.067,-1.768l5.746,0Zm-5.72,-1.3c0.065,-0.702 0.754,-1.612 2.015,-1.612c1.248,-0.013 1.963,0.936 2.028,1.612l-4.043,0Z" style="fill:#71bf44;fill-rule:nonzero;"/></g><g><path d="M45.287,28.3l1.703,0l0,-1.521l-1.703,0l0,1.521Zm0,8.099l1.703,0l0,-7.137l-1.703,0l0,7.137Z" style="fill:#71bf44;fill-rule:nonzero;"/><path d="M48.667,36.399l1.703,0l0,-3.939c0,-1.001 0.416,-1.807 1.625,-1.82c1.196,0 1.547,0.819 1.547,1.885l0,3.874l1.703,0l0,-4.303c0,-1.261 -0.442,-3.042 -2.769,-3.055c-1.274,-0.013 -1.911,0.611 -2.223,1.17c0.013,-0.338 0.013,-0.637 0.013,-0.949l-1.599,0l0,7.137Z" style="fill:#71bf44;fill-rule:nonzero;"/><path d="M57.377,36.399l1.703,0l0,-5.824l1.222,0l0,-1.313l-1.222,0l0,-2.483l-1.703,0l0,2.483l-1.183,0l0,1.313l1.183,0l0,5.824Z" style="fill:#71bf44;fill-rule:nonzero;"/><path d="M67.985,33.396c0.143,-1.248 -0.182,-2.366 -1.053,-3.263c-0.663,-0.689 -1.599,-1.092 -2.665,-1.092c-2.158,0 -3.744,1.781 -3.744,3.809c0,1.989 1.573,3.77 3.77,3.77c0.741,0 1.443,-0.208 2.041,-0.624c0.598,-0.403 1.105,-1.001 1.443,-1.794l-1.755,0c-0.325,0.585 -0.884,0.962 -1.716,0.962c-0.975,0.013 -1.989,-0.624 -2.067,-1.768l5.746,0Zm-5.72,-1.3c0.065,-0.702 0.754,-1.612 2.015,-1.612c1.248,-0.013 1.963,0.936 2.028,1.612l-4.043,0Z" style="fill:#71bf44;fill-rule:nonzero;"/><path d="M69.272,36.399l1.703,0l0,-3.848c0,-1.235 0.611,-1.794 1.807,-1.794l0.078,0l0,-1.716c-1.079,0.013 -1.664,0.52 -1.976,1.157l0,-0.936l-1.612,0l0,7.137Z" style="fill:#71bf44;fill-rule:nonzero;"/><path d="M73.796,36.399l1.703,0l0,-3.848c0,-1.235 0.611,-1.794 1.807,-1.794l0.078,0l0,-1.716c-1.079,0.013 -1.664,0.52 -1.976,1.157l0,-0.936l-1.612,0l0,7.137Z" style="fill:#71bf44;fill-rule:nonzero;"/><path d="M77.631,32.824c0,1.846 1.339,3.783 3.822,3.783c2.483,0 3.822,-1.937 3.822,-3.783c0,-1.833 -1.339,-3.77 -3.822,-3.77c-2.483,0 -3.822,1.937 -3.822,3.757l0,0.013Zm1.703,0c0,-1.261 0.949,-2.184 2.119,-2.184c1.17,0 2.106,0.923 2.106,2.184c0,1.261 -0.936,2.184 -2.106,2.184c-1.17,0 -2.119,-0.923 -2.119,-2.171l0,-0.013Z" style="fill:#71bf44;fill-rule:nonzero;"/><path d="M93.881,29.262l-1.716,0l0,0.962c-0.403,-0.702 -1.287,-1.17 -2.314,-1.17c-1.976,0 -3.64,1.482 -3.64,3.809c0,2.197 1.586,3.757 3.64,3.757c1.209,0 1.963,-0.637 2.314,-1.274l0,0.598c0,1.443 -1.105,2.145 -2.119,2.145c-0.208,0 -0.585,-0.052 -0.936,-0.247c-0.312,-0.156 -0.585,-0.403 -0.741,-0.728l-1.976,0c0.26,1.105 1.326,2.431 3.549,2.431c1.469,0 2.665,-0.65 3.276,-1.469c0.442,-0.598 0.663,-1.352 0.663,-2.522l0,-6.292Zm-5.967,3.549c0,-1.274 0.975,-2.171 2.132,-2.171c0.741,0 1.274,0.286 1.612,0.715c0.351,0.416 0.52,0.988 0.52,1.534c-0.013,0.611 -0.234,1.144 -0.611,1.521c-0.377,0.39 -0.884,0.611 -1.521,0.611c-1.235,0 -2.132,-0.949 -2.132,-2.197l0,-0.013Z" style="fill:#71bf44;fill-rule:nonzero;"/><path d="M102.89,29.262l-1.703,0l0,1.04c-0.312,-0.572 -1.105,-1.261 -2.405,-1.261c-2.002,0 -3.627,1.534 -3.627,3.783c0,2.015 1.339,3.796 3.627,3.796c1.001,0 1.95,-0.416 2.405,-1.248l0,1.027l1.703,0l0,-7.137Zm-6.032,3.588c0,-1.105 0.78,-2.223 2.158,-2.223c1.027,0 1.69,0.585 1.989,1.261c0.143,0.312 0.208,0.663 0.195,1.001c-0.026,0.351 -0.104,0.689 -0.273,1.001c-0.325,0.65 -0.949,1.144 -1.898,1.144c-1.534,0 -2.171,-1.287 -2.171,-2.171l0,-0.013Z" style="fill:#71bf44;fill-rule:nonzero;"/><path d="M109.936,33.799c-0.26,0.585 -0.858,1.222 -1.924,1.222c-1.209,0 -2.106,-0.91 -2.106,-2.197c0,-0.624 0.221,-1.196 0.585,-1.586c0.416,-0.403 0.897,-0.624 1.521,-0.611c0.936,0 1.625,0.533 1.924,1.287l1.742,0c-0.416,-1.742 -1.937,-2.873 -3.731,-2.873c-2.132,0 -3.757,1.677 -3.757,3.783c0,2.041 1.56,3.796 3.822,3.796c1.846,0 3.263,-1.235 3.666,-2.821l-1.742,0Z" style="fill:#71bf44;fill-rule:nonzero;"/><path d="M112.952,28.3l1.703,0l0,-1.521l-1.703,0l0,1.521Zm0,8.099l1.703,0l0,-7.137l-1.703,0l0,7.137Z" style="fill:#71bf44;fill-rule:nonzero;"/><path d="M115.955,32.824c0,1.846 1.339,3.783 3.822,3.783c2.483,0 3.822,-1.937 3.822,-3.783c0,-1.833 -1.339,-3.77 -3.822,-3.77c-2.483,0 -3.822,1.937 -3.822,3.757l0,0.013Zm1.703,0c0,-1.261 0.949,-2.184 2.119,-2.184c1.17,0 2.106,0.923 2.106,2.184c0,1.261 -0.936,2.184 -2.106,2.184c-1.17,0 -2.119,-0.923 -2.119,-2.171l0,-0.013Zm0.494,-5.421l0.494,1.027l3.172,-1.508l-0.559,-1.235l-3.107,1.716Z" style="fill:#71bf44;fill-rule:nonzero;"/><path d="M124.912,36.399l1.703,0l0,-3.939c0,-1.001 0.416,-1.807 1.625,-1.82c1.196,0 1.547,0.819 1.547,1.885l0,3.874l1.703,0l0,-4.303c0,-1.261 -0.442,-3.042 -2.769,-3.055c-1.274,-0.013 -1.911,0.611 -2.223,1.17c0.013,-0.338 0.013,-0.637 0.013,-0.949l-1.599,0l0,7.137Z" style="fill:#71bf44;fill-rule:nonzero;"/></g></g></svg>