<?xml version="1.0" encoding="UTF-8" standalone="no"?><!DOCTYPE svg PUBLIC "-//W3C//DTD SVG 1.1//EN" "http://www.w3.org/Graphics/SVG/1.1/DTD/svg11.dtd"><svg width="100%" height="100%" viewBox="0 0 173 50" version="1.1" xmlns="http://www.w3.org/2000/svg" xmlns:xlink="http://www.w3.org/1999/xlink" xml:space="preserve" xmlns:serif="http://www.serif.com/" style="fill-rule:evenodd;clip-rule:evenodd;stroke-miterlimit:10;"><g><path d="M14.153,5.06l144.173,0c4.728,0 8.627,3.698 8.967,8.344c-6.336,0.018 -11.467,5.159 -11.467,11.499c0,6.34 5.131,11.479 11.467,11.498c-0.34,4.645 -4.239,8.344 -8.967,8.344l-144.173,0c-4.95,0 -9,-4.05 -9,-9l0,-21.685c0,-4.95 4.05,-9 9,-9Z" style="fill:#f0e0ee;fill-rule:nonzero;stroke:#bd56a0;stroke-width:1px;"/><g><path d="M53.27,18.493l0,9.62l1.937,0l0,-3.302l1.183,0c1.404,0 2.054,-0.234 2.704,-0.767c0.611,-0.494 1.014,-1.482 1.014,-2.431c0,-0.949 -0.39,-1.885 -1.092,-2.457c-0.559,-0.429 -1.209,-0.663 -2.834,-0.663l-2.912,0Zm1.937,1.703l1.066,0c0.481,0 0.923,0.039 1.313,0.247c0.377,0.182 0.663,0.585 0.663,1.196c0,0.611 -0.286,1.04 -0.637,1.222c-0.39,0.208 -0.819,0.247 -1.261,0.247l-1.144,0l0,-2.912Z" style="fill:#bd56a0;fill-rule:nonzero;"/><path d="M67.557,20.976l-1.703,0l0,3.939c0,1.014 -0.416,1.82 -1.638,1.82c-1.209,0.013 -1.56,-0.819 -1.56,-1.872l0,-3.887l-1.703,0l0,4.316c0,1.248 0.442,3.029 2.782,3.042c1.287,0.013 1.924,-0.611 2.223,-1.17l0,0.949l1.599,0l0,-7.137Z" style="fill:#bd56a0;fill-rule:nonzero;"/><path d="M69.117,28.113l1.703,0l0,-3.939c0,-1.001 0.416,-1.807 1.625,-1.82c1.196,0 1.547,0.819 1.547,1.885l0,3.874l1.703,0l0,-4.303c0,-1.261 -0.442,-3.042 -2.769,-3.055c-1.274,-0.013 -1.911,0.611 -2.223,1.17c0.013,-0.338 0.013,-0.637 0.013,-0.949l-1.599,0l0,7.137Z" style="fill:#bd56a0;fill-rule:nonzero;"/><path d="M77.697,28.113l1.703,0l0,-5.824l1.222,0l0,-1.313l-1.222,0l0,-2.483l-1.703,0l0,2.483l-1.183,0l0,1.313l1.183,0l0,5.824Z" style="fill:#bd56a0;fill-rule:nonzero;"/><path d="M80.791,24.538c0,1.846 1.339,3.783 3.822,3.783c2.483,0 3.822,-1.937 3.822,-3.783c0,-1.833 -1.339,-3.77 -3.822,-3.77c-2.483,0 -3.822,1.937 -3.822,3.757l0,0.013Zm1.703,0c0,-1.261 0.949,-2.184 2.119,-2.184c1.17,0 2.106,0.923 2.106,2.184c0,1.261 -0.936,2.184 -2.106,2.184c-1.17,0 -2.119,-0.923 -2.119,-2.171l0,-0.013Z" style="fill:#bd56a0;fill-rule:nonzero;"/><path d="M97.145,22.289l0,5.824l1.703,0l0,-7.137l-3.64,0l0,-0.351c0,-1.001 0.702,-1.001 1.131,-1.001l0,-1.313c-1.222,0.013 -2.834,0.143 -2.834,2.262l0,0.403l-0.884,0l0,1.313l0.884,0l0,5.824l1.703,0l0,-5.824l1.937,0Zm1.703,-2.275l0,-1.521l-1.703,0l0,1.521l1.703,0Z" style="fill:#bd56a0;fill-rule:nonzero;"/><path d="M100.408,28.113l1.703,0l0,-3.939c0,-1.001 0.416,-1.807 1.625,-1.82c1.196,0 1.547,0.819 1.547,1.885l0,3.874l1.703,0l0,-4.303c0,-1.261 -0.442,-3.042 -2.769,-3.055c-1.274,-0.013 -1.911,0.611 -2.223,1.17c0.013,-0.338 0.013,-0.637 0.013,-0.949l-1.599,0l0,7.137Z" style="fill:#bd56a0;fill-rule:nonzero;"/><path d="M115.878,20.976l-1.703,0l0,1.04c-0.312,-0.572 -1.105,-1.261 -2.405,-1.261c-2.002,0 -3.627,1.534 -3.627,3.783c0,2.015 1.339,3.796 3.627,3.796c1.001,0 1.95,-0.416 2.405,-1.248l0,1.027l1.703,0l0,-7.137Zm-6.032,3.588c0,-1.105 0.78,-2.223 2.158,-2.223c1.027,0 1.69,0.585 1.989,1.261c0.143,0.312 0.208,0.663 0.195,1.001c-0.026,0.351 -0.104,0.689 -0.273,1.001c-0.325,0.65 -0.949,1.144 -1.898,1.144c-1.534,0 -2.171,-1.287 -2.171,-2.171l0,-0.013Z" style="fill:#bd56a0;fill-rule:nonzero;"/><rect x="117.438" y="18.493" width="1.703" height="9.62" style="fill:#bd56a0;fill-rule:nonzero;"/></g></g></svg>