<?xml version="1.0" encoding="UTF-8" standalone="no"?><!DOCTYPE svg PUBLIC "-//W3C//DTD SVG 1.1//EN" "http://www.w3.org/Graphics/SVG/1.1/DTD/svg11.dtd"><svg width="100%" height="100%" viewBox="0 0 218 50" version="1.1" xmlns="http://www.w3.org/2000/svg" xmlns:xlink="http://www.w3.org/1999/xlink" xml:space="preserve" xmlns:serif="http://www.serif.com/" style="fill-rule:evenodd;clip-rule:evenodd;stroke-miterlimit:10;"><g><path d="M5.212,25.155l9,-16l5.484,-0.062c1.621,-2.4 4.366,-3.987 7.463,-3.987l176.174,0c4.949,0 9,4.05 9,9l0,21.686c0,4.949 -4.051,9 -9,9l-176.174,0c-3.059,0 -5.771,-1.55 -7.4,-3.902l-5.191,0.059l-9.356,-15.794Z" style="fill:#ffead6;fill-rule:nonzero;stroke:#f68b1e;stroke-width:1px;"/><g><rect x="39.818" y="12.228" width="1.937" height="9.62" style="fill:#f68b1e;fill-rule:nonzero;"/><path d="M43.367,21.848l1.703,0l0,-3.939c0,-1.001 0.416,-1.807 1.625,-1.82c1.196,0 1.547,0.819 1.547,1.885l0,3.874l1.703,0l0,-4.303c0,-1.261 -0.442,-3.042 -2.769,-3.055c-1.274,-0.013 -1.911,0.611 -2.223,1.17c0.013,-0.338 0.013,-0.637 0.013,-0.949l-1.599,0l0,7.137Z" style="fill:#f68b1e;fill-rule:nonzero;"/><path d="M58.785,12.228l-1.703,0l0,3.406c-0.26,-0.416 -1.027,-1.144 -2.392,-1.144c-1.937,0 -3.588,1.469 -3.588,3.783c0,2.08 1.417,3.796 3.614,3.796c1.456,0 2.132,-0.715 2.444,-1.248l0,1.027l1.625,0l0,-9.62Zm-5.98,6.032c0,-1.118 0.806,-2.184 2.197,-2.184c0.611,0 1.157,0.234 1.547,0.624c0.39,0.377 0.637,0.91 0.637,1.534c0.026,0.624 -0.208,1.183 -0.611,1.586c-0.403,0.403 -0.962,0.65 -1.586,0.65c-1.313,0 -2.184,-0.988 -2.184,-2.197l0,-0.013Z" style="fill:#f68b1e;fill-rule:nonzero;"/><path d="M60.358,13.749l1.703,0l0,-1.521l-1.703,0l0,1.521Zm0,8.099l1.703,0l0,-7.137l-1.703,0l0,7.137Z" style="fill:#f68b1e;fill-rule:nonzero;"/><path d="M68.964,19.248c-0.26,0.585 -0.858,1.222 -1.924,1.222c-1.209,0 -2.106,-0.91 -2.106,-2.197c0,-0.624 0.221,-1.196 0.585,-1.586c0.416,-0.403 0.897,-0.624 1.521,-0.611c0.936,0 1.625,0.533 1.924,1.287l1.742,0c-0.416,-1.742 -1.937,-2.873 -3.731,-2.873c-2.132,0 -3.757,1.677 -3.757,3.783c0,2.041 1.56,3.796 3.822,3.796c1.846,0 3.263,-1.235 3.666,-2.821l-1.742,0Z" style="fill:#f68b1e;fill-rule:nonzero;"/><path d="M79.208,14.711l-1.703,0l0,1.04c-0.312,-0.572 -1.105,-1.261 -2.405,-1.261c-2.002,0 -3.627,1.534 -3.627,3.783c0,2.015 1.339,3.796 3.627,3.796c1.001,0 1.95,-0.416 2.405,-1.248l0,1.027l1.703,0l0,-7.137Zm-6.032,3.588c0,-1.105 0.78,-2.223 2.158,-2.223c1.027,0 1.69,0.585 1.989,1.261c0.143,0.312 0.208,0.663 0.195,1.001c-0.026,0.351 -0.104,0.689 -0.273,1.001c-0.325,0.65 -0.949,1.144 -1.898,1.144c-1.534,0 -2.171,-1.287 -2.171,-2.171l0,-0.013Z" style="fill:#f68b1e;fill-rule:nonzero;"/><path d="M91.129,14.711l-1.703,0l0,3.939c0,1.014 -0.416,1.82 -1.638,1.82c-1.209,0.013 -1.56,-0.819 -1.56,-1.872l0,-3.887l-1.703,0l0,4.316c0,1.248 0.442,3.029 2.782,3.042c1.287,0.013 1.924,-0.611 2.223,-1.17l0,0.949l1.599,0l0,-7.137Z" style="fill:#f68b1e;fill-rule:nonzero;"/><path d="M92.688,21.848l1.703,0l0,-3.939c0,-1.001 0.416,-1.807 1.625,-1.82c1.196,0 1.547,0.819 1.547,1.885l0,3.874l1.703,0l0,-4.303c0,-1.261 -0.442,-3.042 -2.769,-3.055c-1.274,-0.013 -1.911,0.611 -2.223,1.17c0.013,-0.338 0.013,-0.637 0.013,-0.949l-1.599,0l0,7.137Z" style="fill:#f68b1e;fill-rule:nonzero;"/><path d="M108.158,14.711l-1.703,0l0,1.04c-0.312,-0.572 -1.105,-1.261 -2.405,-1.261c-2.002,0 -3.627,1.534 -3.627,3.783c0,2.015 1.339,3.796 3.627,3.796c1.001,0 1.95,-0.416 2.405,-1.248l0,1.027l1.703,0l0,-7.137Zm-6.032,3.588c0,-1.105 0.78,-2.223 2.158,-2.223c1.027,0 1.69,0.585 1.989,1.261c0.143,0.312 0.208,0.663 0.195,1.001c-0.026,0.351 -0.104,0.689 -0.273,1.001c-0.325,0.65 -0.949,1.144 -1.898,1.144c-1.534,0 -2.171,-1.287 -2.171,-2.171l0,-0.013Z" style="fill:#f68b1e;fill-rule:nonzero;"/><path d="M113.501,24.344l1.703,0l0,-3.445c0.286,0.455 1.04,1.17 2.431,1.17c2.093,0 3.536,-1.703 3.536,-3.731c0,-1.729 -1.053,-3.848 -3.549,-3.848c-1.183,0 -2.015,0.546 -2.522,1.261l0,-1.04l-1.599,0l0,9.633Zm5.967,-6.058c0,1.17 -0.871,2.197 -2.171,2.197c-0.611,0 -1.157,-0.247 -1.547,-0.637c-0.39,-0.39 -0.624,-0.936 -0.624,-1.547c0,-0.624 0.234,-1.183 0.611,-1.573c0.39,-0.403 0.923,-0.65 1.547,-0.65c1.443,0 2.184,1.17 2.184,2.197l0,0.013Z" style="fill:#f68b1e;fill-rule:nonzero;"/><path d="M129.725,14.711l-1.703,0l0,1.04c-0.312,-0.572 -1.105,-1.261 -2.405,-1.261c-2.002,0 -3.627,1.534 -3.627,3.783c0,2.015 1.339,3.796 3.627,3.796c1.001,0 1.95,-0.416 2.405,-1.248l0,1.027l1.703,0l0,-7.137Zm-6.032,3.588c0,-1.105 0.78,-2.223 2.158,-2.223c1.027,0 1.69,0.585 1.989,1.261c0.143,0.312 0.208,0.663 0.195,1.001c-0.026,0.351 -0.104,0.689 -0.273,1.001c-0.325,0.65 -0.949,1.144 -1.898,1.144c-1.534,0 -2.171,-1.287 -2.171,-2.171l0,-0.013Z" style="fill:#f68b1e;fill-rule:nonzero;"/><path d="M137.863,14.711l-1.703,0l0,3.939c0,1.014 -0.416,1.82 -1.638,1.82c-1.209,0.013 -1.56,-0.819 -1.56,-1.872l0,-3.887l-1.703,0l0,4.316c0,1.248 0.442,3.029 2.782,3.042c1.287,0.013 1.924,-0.611 2.223,-1.17l0,0.949l1.599,0l0,-7.137Z" style="fill:#f68b1e;fill-rule:nonzero;"/><path d="M144.194,16.635c-0.143,-1.716 -1.573,-2.145 -2.535,-2.145c-1.378,0 -2.561,0.871 -2.561,2.275c0.013,1.027 0.793,1.56 1.755,1.859c1.313,0.455 1.846,0.624 1.846,1.235c0.013,0.481 -0.442,0.832 -0.975,0.832c-0.325,0 -0.988,-0.156 -1.053,-0.923l-1.703,0c0.13,1.729 1.625,2.301 2.73,2.301c1.495,0 2.73,-0.936 2.704,-2.405c-0.013,-1.534 -1.248,-1.872 -2.392,-2.184c-0.676,-0.195 -1.196,-0.442 -1.209,-0.897c0,-0.351 0.273,-0.715 0.845,-0.715c0.663,0 0.858,0.39 0.871,0.767l1.677,0Z" style="fill:#f68b1e;fill-rule:nonzero;"/><path d="M152.904,14.711l-1.703,0l0,1.04c-0.312,-0.572 -1.105,-1.261 -2.405,-1.261c-2.002,0 -3.627,1.534 -3.627,3.783c0,2.015 1.339,3.796 3.627,3.796c1.001,0 1.95,-0.416 2.405,-1.248l0,1.027l1.703,0l0,-7.137Zm-6.032,3.588c0,-1.105 0.78,-2.223 2.158,-2.223c1.027,0 1.69,0.585 1.989,1.261c0.143,0.312 0.208,0.663 0.195,1.001c-0.026,0.351 -0.104,0.689 -0.273,1.001c-0.325,0.65 -0.949,1.144 -1.898,1.144c-1.534,0 -2.171,-1.287 -2.171,-2.171l0,-0.013Z" style="fill:#f68b1e;fill-rule:nonzero;"/><path d="M163.603,19.248c-0.26,0.585 -0.858,1.222 -1.924,1.222c-1.209,0 -2.106,-0.91 -2.106,-2.197c0,-0.624 0.221,-1.196 0.585,-1.586c0.416,-0.403 0.897,-0.624 1.521,-0.611c0.936,0 1.625,0.533 1.924,1.287l1.742,0c-0.416,-1.742 -1.937,-2.873 -3.731,-2.873c-2.132,0 -3.757,1.677 -3.757,3.783c0,2.041 1.56,3.796 3.822,3.796c1.846,0 3.263,-1.235 3.666,-2.821l-1.742,0Z" style="fill:#f68b1e;fill-rule:nonzero;"/><path d="M166.112,18.273c0,1.846 1.339,3.783 3.822,3.783c2.483,0 3.822,-1.937 3.822,-3.783c0,-1.833 -1.339,-3.77 -3.822,-3.77c-2.483,0 -3.822,1.937 -3.822,3.757l0,0.013Zm1.703,0c0,-1.261 0.949,-2.184 2.119,-2.184c1.17,0 2.106,0.923 2.106,2.184c0,1.261 -0.936,2.184 -2.106,2.184c-1.17,0 -2.119,-0.923 -2.119,-2.171l0,-0.013Z" style="fill:#f68b1e;fill-rule:nonzero;"/><path d="M174.926,21.848l1.703,0l0,-3.848c0,-1.235 0.611,-1.794 1.807,-1.794l0.078,0l0,-1.716c-1.079,0.013 -1.664,0.52 -1.976,1.157l0,-0.936l-1.612,0l0,7.137Z" style="fill:#f68b1e;fill-rule:nonzero;"/><path d="M180.1,21.848l1.703,0l0,-5.824l1.222,0l0,-1.313l-1.222,0l0,-2.483l-1.703,0l0,2.483l-1.183,0l0,1.313l1.183,0l0,5.824Z" style="fill:#f68b1e;fill-rule:nonzero;"/><path d="M190.929,14.711l-1.703,0l0,1.04c-0.312,-0.572 -1.105,-1.261 -2.405,-1.261c-2.002,0 -3.627,1.534 -3.627,3.783c0,2.015 1.339,3.796 3.627,3.796c1.001,0 1.95,-0.416 2.405,-1.248l0,1.027l1.703,0l0,-7.137Zm-6.032,3.588c0,-1.105 0.78,-2.223 2.158,-2.223c1.027,0 1.69,0.585 1.989,1.261c0.143,0.312 0.208,0.663 0.195,1.001c-0.026,0.351 -0.104,0.689 -0.273,1.001c-0.325,0.65 -0.949,1.144 -1.898,1.144c-1.534,0 -2.171,-1.287 -2.171,-2.171l0,-0.013Z" style="fill:#f68b1e;fill-rule:nonzero;"/></g><g><path d="M79.338,34.848c0.143,-1.248 -0.182,-2.366 -1.053,-3.263c-0.663,-0.689 -1.599,-1.092 -2.665,-1.092c-2.158,0 -3.744,1.781 -3.744,3.809c0,1.989 1.573,3.77 3.77,3.77c0.741,0 1.443,-0.208 2.041,-0.624c0.598,-0.403 1.105,-1.001 1.443,-1.794l-1.755,0c-0.325,0.585 -0.884,0.962 -1.716,0.962c-0.975,0.013 -1.989,-0.624 -2.067,-1.768l5.746,0Zm-5.72,-1.3c0.065,-0.702 0.754,-1.612 2.015,-1.612c1.248,-0.013 1.963,0.936 2.028,1.612l-4.043,0Z" style="fill:#f68b1e;fill-rule:nonzero;"/><path d="M80.508,37.851l1.703,0l0,-3.939c0,-1.001 0.416,-1.807 1.625,-1.82c1.196,0 1.547,0.819 1.547,1.885l0,3.874l1.703,0l0,-4.303c0,-1.261 -0.442,-3.042 -2.769,-3.055c-1.274,-0.013 -1.911,0.611 -2.223,1.17c0.013,-0.338 0.013,-0.637 0.013,-0.949l-1.599,0l0,7.137Z" style="fill:#f68b1e;fill-rule:nonzero;"/><rect x="92.403" y="28.231" width="1.703" height="9.62" style="fill:#f68b1e;fill-rule:nonzero;"/><path d="M103.011,30.714l-1.703,0l0,1.04c-0.312,-0.572 -1.105,-1.261 -2.405,-1.261c-2.002,0 -3.627,1.534 -3.627,3.783c0,2.015 1.339,3.796 3.627,3.796c1.001,0 1.95,-0.416 2.405,-1.248l0,1.027l1.703,0l0,-7.137Zm-6.032,3.588c0,-1.105 0.78,-2.223 2.158,-2.223c1.027,0 1.69,0.585 1.989,1.261c0.143,0.312 0.208,0.663 0.195,1.001c-0.026,0.351 -0.104,0.689 -0.273,1.001c-0.325,0.65 -0.949,1.144 -1.898,1.144c-1.534,0 -2.171,-1.287 -2.171,-2.171l0,-0.013Z" style="fill:#f68b1e;fill-rule:nonzero;"/><path d="M107.977,34.276c0,1.846 1.339,3.783 3.822,3.783c2.483,0 3.822,-1.937 3.822,-3.783c0,-1.833 -1.339,-3.77 -3.822,-3.77c-2.483,0 -3.822,1.937 -3.822,3.757l0,0.013Zm1.703,0c0,-1.261 0.949,-2.184 2.119,-2.184c1.17,0 2.106,0.923 2.106,2.184c0,1.261 -0.936,2.184 -2.106,2.184c-1.17,0 -2.119,-0.923 -2.119,-2.171l0,-0.013Z" style="fill:#f68b1e;fill-rule:nonzero;"/><path d="M116.791,37.851l1.703,0l0,-3.848c0,-1.235 0.611,-1.794 1.807,-1.794l0.078,0l0,-1.716c-1.079,0.013 -1.664,0.52 -1.976,1.157l0,-0.936l-1.612,0l0,7.137Z" style="fill:#f68b1e;fill-rule:nonzero;"/><path d="M128.231,30.714l-1.703,0l0,1.04c-0.312,-0.572 -1.105,-1.261 -2.405,-1.261c-2.002,0 -3.627,1.534 -3.627,3.783c0,2.015 1.339,3.796 3.627,3.796c1.001,0 1.95,-0.416 2.405,-1.248l0,1.027l1.703,0l0,-7.137Zm-6.032,3.588c0,-1.105 0.78,-2.223 2.158,-2.223c1.027,0 1.69,0.585 1.989,1.261c0.143,0.312 0.208,0.663 0.195,1.001c-0.026,0.351 -0.104,0.689 -0.273,1.001c-0.325,0.65 -0.949,1.144 -1.898,1.144c-1.534,0 -2.171,-1.287 -2.171,-2.171l0,-0.013Z" style="fill:#f68b1e;fill-rule:nonzero;"/><path d="M135.147,35.251c-0.26,0.585 -0.858,1.222 -1.924,1.222c-1.209,0 -2.106,-0.91 -2.106,-2.197c0,-0.624 0.221,-1.196 0.585,-1.586c0.416,-0.403 0.897,-0.624 1.521,-0.611c0.936,0 1.625,0.533 1.924,1.287l1.742,0c-0.416,-1.742 -1.937,-2.873 -3.731,-2.873c-2.132,0 -3.757,1.677 -3.757,3.783c0,2.041 1.56,3.796 3.822,3.796c1.846,0 3.263,-1.235 3.666,-2.821l-1.742,0Z" style="fill:#f68b1e;fill-rule:nonzero;"/><path d="M138.033,29.752l1.703,0l0,-1.521l-1.703,0l0,1.521Zm0,8.099l1.703,0l0,-7.137l-1.703,0l0,7.137Z" style="fill:#f68b1e;fill-rule:nonzero;"/><path d="M140.906,34.276c0,1.846 1.339,3.783 3.822,3.783c2.483,0 3.822,-1.937 3.822,-3.783c0,-1.833 -1.339,-3.77 -3.822,-3.77c-2.483,0 -3.822,1.937 -3.822,3.757l0,0.013Zm1.703,0c0,-1.261 0.949,-2.184 2.119,-2.184c1.17,0 2.106,0.923 2.106,2.184c0,1.261 -0.936,2.184 -2.106,2.184c-1.17,0 -2.119,-0.923 -2.119,-2.171l0,-0.013Zm0.494,-5.421l0.494,1.027l3.172,-1.508l-0.559,-1.235l-3.107,1.716Z" style="fill:#f68b1e;fill-rule:nonzero;"/><path d="M149.733,37.851l1.703,0l0,-3.939c0,-1.001 0.416,-1.807 1.625,-1.82c1.196,0 1.547,0.819 1.547,1.885l0,3.874l1.703,0l0,-4.303c0,-1.261 -0.442,-3.042 -2.769,-3.055c-1.274,-0.013 -1.911,0.611 -2.223,1.17c0.013,-0.338 0.013,-0.637 0.013,-0.949l-1.599,0l0,7.137Z" style="fill:#f68b1e;fill-rule:nonzero;"/><rect x="158.092" y="35.927" width="1.781" height="1.924" style="fill:#f68b1e;fill-rule:nonzero;"/></g></g></svg>