<svg clip-rule="evenodd" fill-rule="evenodd" stroke-linecap="round" stroke-linejoin="round" stroke-miterlimit="10" viewBox="0 0 386 348" xmlns="http://www.w3.org/2000/svg"><g transform="matrix(1.93547 0 0 1.93547 -183.049 -135.663)"><path d="m257.5 200.3c.13-.14.24-.29.37-.44.67-.78 1.31-1.57 1.94-2.37.24-.3.46-.6.69-.9.52-.67 1.02-1.35 1.5-2.03.22-.3.44-.61.65-.91.56-.8 1.09-1.6 1.61-2.41.11-.16.22-.33.32-.49.62-.97 1.2-1.95 1.76-2.93.15-.26.28-.51.43-.77.41-.74.81-1.48 1.19-2.22.08-.15.17-.3.24-.45-.01.02-.03.04-.04.06 4.97-9.81 7.37-19.9 7.37-29.09 0-60.65-53.57-57.16-70.8-22.76-.01-.01-.01-.01-.02-.02-.18.33-.33.66-.44.89-.73-.29-1.88-1.11-4.28-1.34-3.95-2.48-9.84-7.69-9.84-18.81v-32.64c-1.72-3.41-15.02-2.72-16.55-.18v35.47c0 16.16 11.28 28.28 17.84 33.7.15.29.3.54.46.78l-.01.01c.02.03.04.05.05.07.08.12.16.21.23.32.1.14.21.28.31.4.08.1.17.18.25.27.1.1.2.2.3.29.08.07.17.14.25.2.1.08.19.15.29.21.08.05.16.1.23.15.09.05.18.1.27.15.07.03.14.07.2.1.09.04.17.07.25.09.05.02.11.04.16.05.09.02.16.04.23.05.03.01.07.02.1.02.09.02.17.02.23.02 0 .43-.08 3.39-.08 5.75-.38 13.92-2.25 26.44-7.47 32.47-1.73 2-3.04 1.9-4.84 1.56-5.15-.98-8.86 1.51-10.58 2.25-1.71.74-2.68.37-4.34-1-5.5-4.54-12.84-3.34-18.54-1.95-.21.04-.53.13-.76.19-1.31-.42-2.54-.54-4.42.44-12.15.61-34.77 14.31-26.71 42.94h-.02c.04.13.09.28.13.41.35 1.2.73 2.41 1.19 3.66 1.53 2.54 14.83 3.23 16.55-.18-.53-1.31-.97-2.56-1.37-3.77-.1-.31-.2-.63-.3-.93-.34-1.1-.64-2.17-.88-3.2-.02-.09-.05-.18-.07-.27-.25-1.1-.42-2.13-.55-3.13-.03-.26-.06-.51-.09-.75-.09-.87-.15-1.7-.16-2.5 0-.12-.01-.24-.01-.36 0-.88.07-1.71.17-2.5.03-.19.06-.38.09-.57.11-.66.25-1.3.43-1.89.03-.11.06-.24.1-.35.22-.67.5-1.3.81-1.88.07-.13.15-.26.23-.39.28-.48.59-.92.93-1.33 1.34-1.61 3.09-2.72 5.19-3.29 1.02.22 2.06-.06 2.79-.35.09 1.01.79 2.17 1.53 2.7.53.74 2.12 4.66 5.85 7.86-.02-.01-.03-.01-.05-.02.13.11.27.21.4.32.14.11.28.23.42.34.29.22.59.43.9.64.11.08.22.16.34.23.43.28.89.54 1.36.78.12.06.25.11.37.17.37.18.75.35 1.15.51.18.07.38.14.57.21.36.13.73.25 1.11.36.21.06.42.12.64.17.41.1.84.19 1.27.27.2.04.4.08.61.11.65.1 1.32.17 2.02.21 1.86.09 3.36.3 5.05 2.71.77 1.24 1.76 2.4 2.94 3.45 9.46 9.41 24.89 9.71 37.94.37 2.47-1.77 6.29-4.83 9.18-5.85 1.49-.52 2.94-1.08 4.37-1.64.44-.17.87-.36 1.3-.54 1-.41 1.99-.84 2.97-1.27.46-.2.91-.41 1.36-.62 1.02-.47 2.02-.96 3.01-1.46.33-.16.66-.32.98-.49 1.28-.67 2.54-1.35 3.77-2.05.27-.15.53-.32.8-.47.96-.56 1.91-1.14 2.83-1.72.39-.24.76-.49 1.14-.74.82-.53 1.62-1.07 2.41-1.62.35-.25.71-.49 1.05-.74.97-.7 1.93-1.41 2.86-2.14.11-.09.24-.18.35-.26 1.04-.82 2.04-1.65 3.03-2.5.28-.24.56-.49.84-.74.7-.62 1.39-1.24 2.06-1.87.31-.29.61-.58.92-.87.67-.65 1.32-1.3 1.96-1.97.24-.24.48-.49.71-.73.9-.89 1.73-1.8 2.52-2.72z" fill="none" stroke="#252723" stroke-width="4.57"/><g fill-rule="nonzero"><path d="m167.96 193.87c-5.83-4.8-13.71-3.18-19.53-1.7-5.74 1.46-7.09 15.04-4.19 22.45.89 1.26 4.78 11.57 16.97 12.17 1.86.09 3.5.2 5.05 2.71 6.07 9.84 26.38 14.19 40.89 3.82 2.47-1.77 6.29-4.83 9.18-5.85 40.93-14.36 59.21-46.68 59.21-72.15 0-61.17-54.51-57.12-71.26-21.89-3.15 6.62-9 7.38-9 19.39v1.34c-.09 15.65-1.78 30.22-7.55 36.88-1.73 2-3.04 1.9-4.84 1.56-5.15-.98-8.86 1.51-10.58 2.25-1.71.76-2.68.39-4.35-.98z" fill="#cc7e88"/><path d="m165.93 194.34c-5.95-5.15-11.98-1.9-13.74 4.61-1.2 4.43.94 10.96 4 7.24 3.29-3.99 6.34-1.2 9.43-.09 4.1 1.47 5.44-7.32.31-11.76z" fill="#cf8592"/><path d="m187.11 196.25c-9.32-4.16-13.77 2.64-13.13 10.59.44 5.41 5.12 11.82 7.04 6.47 2.06-5.75 6.56-3.86 10.44-3.86 5.14-.01 2.96-9.94-4.35-13.2z" fill="#cf8592"/><path d="m190.16 80.64c-.72 3.6-15.96 3.08-16.55-.18 1.53-2.54 14.84-3.22 16.55.18z" fill="#eacecd"/><path d="m188.01 80.34c-.79 1.87-11.05 1.34-12.09.1 1-1.39 10.73-1.65 12.09-.1z" fill="#8f273f"/><path d="m204.29 133.44c-.73-.29-2.46-.2-4.28-1.34-3.95-2.48-9.84-7.69-9.84-18.81v-32.64c-1.74 3.04-14.97 2.3-16.55-.18v35.47c0 16.16 11.28 28.28 17.84 33.7 1.41 2.8 3.33 3.18 3.83 3.19 6.54.18 13.62-15.64 9-19.39z" fill="#cc7e88"/><path d="m204.29 133.44c-.73-.29-2.46-.2-4.28-1.34-3.95-2.48-9.84-7.69-9.84-18.81v-32.64c-.6 1.05-2.58 1.65-4.98 1.88v33.99c0 11.11 7.08 13.76 10.58 18.74 1.89 2.83 2.09 5.93.87 8.89-1.09 2.67-2.73 4.71-4.73 6.28 1.34 2.08 2.93 2.39 3.37 2.4 6.55.18 13.63-15.64 9.01-19.39z" fill="#ca7480"/><path d="m204.72 132.55c-.18.33-.33.66-.44.89 2.3 7.57-2.37 17.54-9 19.39 0 .45-.08 3.59-.08 5.98 1.06-2.83 3.61-5.13 5.18-6.21 6.22-4.3 9.81-16.11 4.34-20.05z" fill="#c56570"/><path d="m204.29 133.44c-.73-.29-1.88-1.11-4.28-1.34 2.3 7.57-1.91 15.69-8.55 17.54 1.41 2.8 3.33 3.18 3.83 3.19 6.54.18 13.62-15.64 9-19.39z" fill="#cc7e88"/><path d="m273.06 137.17c-.7 22.14-3.27 34.3-13.79 47.64-12.75 16.17-42.59 28.96-61.18 16.64-3.55-2.35-4.01-1.65-2.92.02 5.66 8.68 5.19 17.24 3.91 20.88-3.24 9.2-20.81 10.17-24.32-2.49-2.25-8.13-.88-12.46-2.56-17.79-.29-.91-1.36-2.58-1.35.01.07 17.38-8.01 18.3-13.27 17.04-7.17-1.72-9.8-8.32-9.06-14.38-3.39 1.77-6.54 2.93-5.8 7.19.09.52.92 1.84 1.53 2.7.89 1.26 4.78 11.57 16.97 12.17 1.86.09 3.5.2 5.05 2.71 6.07 9.84 26.38 14.19 40.89 3.82 2.47-1.77 6.29-4.83 9.18-5.85 40.93-14.36 59.21-46.68 59.21-72.15-.01-6.87-.9-12.92-2.49-18.16z" fill="#ca7480"/><path d="m214.54 215.32c-4.51-.11-6.65 1.24-7.86 4.47-4.47 16.43-26.11 20.95-37.42 4.58-1-1.44-2.34-1.12-3.1-.81-4.65 1.92-10 1.65-16.11-1.1 2.57 2.21 6.17 4.09 11.16 4.34 1.86.09 3.36.3 5.05 2.71 8.91 12.71 26.38 14.19 40.89 3.82 2.47-1.77 6.29-4.83 9.18-5.85 26.19-9.19 43.1-25.72 51.89-43.11-9.74 13.06-27.61 31.56-53.68 30.95z" fill="#c56570"/><path d="m198.92 189.41c-1.59-10.67-1.49-25.24 4.26-32.88 6-7.98 6.93-10.13 8.23-17.55 1.78-10.13 5.69-20.96 17.2-22.82 8.21-1.32 21.83 3.29 21.83 22.98 0 32.05-13.48 45.4-25.34 54.2-8.87 6.59-24.17 9.57-26.18-3.93z" fill="#cf8592"/><path d="m135.39 239.38c-1.62-3.94-15.96-3.08-16.55.18 1.53 2.54 14.83 3.23 16.55-.18z" fill="#b93c49"/><path d="m133.24 239.69c-.79-1.87-11.05-1.34-12.09-.1.99 1.39 10.72 1.64 12.09.1z" fill="#741926"/><path d="m142.72 211.93c-1.11-8.15 5.47-19.7 5.95-19.82.23-.06.55-.15.76-.19 3.96 1.42.12 13.5-4.2 19.4-.76 1.03-1.3 1.35-.97 3.31-.75-.54-1.45-1.69-1.54-2.7z" fill="#c56570"/><path d="m142.76 211.91c-.73.29-1.8.58-2.83.36-7.68 2.07-10.98 11.16-4.54 27.11-1.74-3.04-14.97-2.3-16.55.18-11.51-31.42 12.69-46.37 25.41-47.01 1.88-.98 3.11-.86 4.42-.44 2.94.95-1.87 17.78-5.91 19.8z" fill="#cc7e88"/><path d="m126.06 229.96c-1.53 3.37-4.93 5.04-8.53 5.53.37 1.32.81 2.68 1.32 4.07 1.58-2.48 14.81-3.22 16.55-.18-4.74-11.76-4.2-19.79-.51-24.03-5.21 2.21-6.53 9.57-8.83 14.61z" fill="#ca7480"/><path d="m142.76 211.91c-.73.29-1.8.58-2.83.36 2.83-3.77 6.74-16.75 4.31-19.72 1.88-.98 3.11-.86 4.42-.44 2.95.95-1.86 17.78-5.9 19.8z" fill="#ca7480"/><path d="m145.88 194.94c0 4.35-.52 7.6-2.76 13.29 2.02-2.51 4.54-7.32 4.54-12.26-.01-2.53-1.78-3.15-1.78-1.03z" fill="#cc7e88"/></g></g></svg>