<svg clip-rule="evenodd" fill-rule="evenodd" stroke-miterlimit="10" viewBox="0 0 386 348" xmlns="http://www.w3.org/2000/svg"><g transform="matrix(1.19597 0 0 1.19597 -39.6846 -11.7708)"><g fill="none" stroke="#252723" stroke-width="3.93"><path d="m199.95 155.02c.13-.13.13-.18-.35.29.01 0 .01-.01.02-.01.1-.1.21-.19.33-.28z"/><path d="m190.17 94.68c-.05-.06-.07-.08 0 0z"/><path d="m225.49 124.36c-2.92 3.58-4.68 8.14-4.68 13.11 0 7.47 3.95 14 9.87 17.66 2.29 2.01 5.49 3.12 9.95 3.12.19 0 .38-.02.57-.02.13 0 .26.02.39.02.62 0 1.24-.03 1.85-.08 1.54-.14 3.03-.46 4.46-.91 16.53-4.59 28.97-24.53 28.97-48.42 0-20.37-9.04-37.86-21.95-45.42.1-.26.17-.55.17-.93 0-4.36-6.61-7.89-14.76-7.89s-14.76 3.53-14.76 7.89c0 .64.16 1.07.42 1.38-4.84 3.8-7.97 9.7-7.97 16.34 0 5.95 2.51 11.32 6.52 15.1-.09.25-.16.51-.24.76-.05.08-.09.16-.14.24-.22.07-.44.14-.67.25-.4.18-.77.42-1.13.68-.78.57-1.52 1.19-2.19 1.89-.65.67-1.25 1.4-1.78 2.18-.89.45-1.72 1.01-2.47 1.68-.49.44-.93.94-1.33 1.47-.23-.15-.47-.29-.69-.46-.05-.04-.1-.07-.15-.11-.01-.01-.03-.02-.04-.03-.15-.12-.29-.23-.43-.35-.26-.22-.52-.44-.77-.67-.28-.26-.54-.54-.8-.81-.08-.71-.16-1.41-.24-2.12-.89-8.05-1.66-16.13-1.97-24.23-.32-8.44-.11-16.9.96-25.28 1.03-7.3 2.74-14.5 5.36-21.4.08-.2.1-.43.13-.65.05-.1.11-.19.15-.3.59-1.71-.76-3.73-3.02-4.5-2.26-.78-4.56-.02-5.15 1.69-.01.04-.01.08-.02.11-.26.39-.48.81-.66 1.29-2.21 5.82-3.77 11.85-4.84 17.98-.69-2.43-1.47-4.84-2.37-7.21-.21-.56-.46-1.07-.79-1.52-.66-1.62-2.89-2.33-5.09-1.57-2.26.78-3.61 2.79-3.02 4.5.05.14.12.26.19.39.04.19.06.38.13.57 2.62 6.9 4.33 14.11 5.36 21.42 1.59 12.38 1.23 24.87.19 37.28-.66.08-1.32.16-1.98.21-.27-1.69-.87-3.33-1.79-4.77-1.31-2.05-3.18-3.6-5.29-4.78-.8-.45-1.62-.84-2.45-1.23.95-2.38 1.5-4.97 1.5-7.69 0-6.64-3.12-12.53-7.97-16.34.27-.3.42-.74.42-1.38 0-4.36-6.61-7.89-14.76-7.89s-14.76 3.53-14.76 7.89c0 .38.07.67.17.93-12.91 7.56-21.95 25.05-21.95 45.42 0 23.9 12.44 43.83 28.97 48.42 1.43.46 2.91.78 4.46.91.61.05 1.23.08 1.85.08.13 0 .26-.02.39-.02.19 0 .38.02.57.02 4.46 0 7.66-1.11 9.95-3.12 5.92-3.66 9.87-10.19 9.87-17.66 0-4.98-1.76-9.54-4.68-13.11-.01-.29-.02-.58-.03-.87.84-1.18 1.58-2.43 2.21-3.74 1.37-.14 2.72-.49 3.92-1.23 1.63-1.01 2.9-2.46 4.33-3.71.19-.16.37-.32.57-.48.38.75.71 1.53.99 2.34 3 8.93-.32 18.2-3.45 26.6-1.62 4.35-3.25 8.71-4.87 13.06-4.54 3.1-9.24 5.93-13.46 9.49-5.76 4.84-10.58 10.77-14.36 17.3-1.09 1.2-2.14 2.45-3.11 3.78-1.54 2.11-2.85 4.38-3.88 6.78-1.3 3.04-2.1 6.06-2.49 9.35-.11.94.53 2.18 1.17 2.82.01.01.03.02.04.03-.68 4.05-.99 8.16-.88 12.25.05 2.08 1.79 4.08 3.98 3.98 2.11-.09 4.04-1.75 3.98-3.98-.08-3.04.08-6.08.45-9.1.76-5.19 2.16-10.27 4.16-15.12.92-2.13 1.97-4.21 3.11-6.23 1.4-1.48 2.89-2.87 4.46-4.17.36-.3.73-.59 1.09-.88.01-.01.03-.02.04-.03.25-.19.49-.37.74-.55.85-.62 1.73-1.23 2.61-1.81 1.43-.94 2.9-1.8 4.38-2.65-1.14 3-2.26 6.01-3.28 9.05-1.56 4.63-2.81 9.44-2.84 14.36-.05 7.29 3.26 15.45 10.13 18.81-.12 1.06-.14 2.14-.01 3.23.04.3.21.58.46.85-2.1 3.76-3.3 8.09-3.3 12.7 0 9.08 10.35 17.09 18.03 21.77.61.37 1.25.7 1.9.99 2.55 1.11 4.18 3.65 4.18 6.43v.72c-.49-.46-1.12-.74-1.9-.69l-5.54.33c-.65.04-1.27.14-1.84.29-3.72 1.01-7.16 1.5-10.2 1.66-3.71.19-6.9.15-9.65-.07-.19-.02-.41.04-.62.13-.24.11-.46.26-.6.41-.02.02-.03.04-.05.06-.1.11-.19.24-.26.39-.08.16-.13.32-.16.49-.01.08-.02.16-.01.24.01.11.02.23.04.34.04.19.11.38.21.55.03.05.06.1.1.14.04.05.08.09.13.14.35.33.73.45 1.22.54 3.25.55 7.14.9 11.79.97 2.68.04 5.65.37 8.93.91.31.05.63.09.96.11l5.54.33c.43.03.82-.04 1.16-.19.28-.12.53-.28.75-.49v18.38h4.06v-18.38c.22.21.47.37.75.49.34.14.73.21 1.16.19l5.54-.33c.33-.02.65-.06.96-.11 3.28-.53 6.25-.87 8.93-.91 4.66-.07 8.54-.42 11.79-.97.49-.08.87-.2 1.22-.54.05-.04.09-.09.13-.14s.07-.09.1-.14c.1-.17.17-.35.21-.55.02-.11.04-.23.04-.34 0-.08 0-.16-.01-.24-.03-.16-.08-.33-.16-.49-.07-.14-.16-.27-.26-.39-.02-.02-.03-.04-.05-.06-.14-.15-.36-.3-.6-.41-.21-.09-.43-.15-.62-.13-2.74.23-5.93.26-9.65.07-3.04-.16-6.48-.65-10.2-1.66-.56-.15-1.18-.26-1.84-.29l-5.54-.33c-.79-.05-1.41.23-1.9.69v-.72c0-2.78 1.63-5.32 4.18-6.43.65-.28 1.28-.61 1.9-.99 7.67-4.68 18.03-12.68 18.03-21.77 0-4.61-1.21-8.94-3.3-12.7.25-.27.42-.55.46-.85.13-1.09.1-2.17-.01-3.23 6.86-3.36 10.17-11.52 10.13-18.81-.03-4.91-1.28-9.73-2.84-14.36-1.49-4.42-3.18-8.77-4.82-13.13.22.15.45.29.67.45.42.29.84.59 1.26.89.19.14.39.28.58.43.11.08.22.16.33.25.15.12.21.15.22.15.07.07.14.13.19.17.21.17.43.34.64.52.45.37.89.75 1.33 1.13 1.68 1.47 3.27 3.02 4.77 4.66.74.81 1.46 1.63 2.16 2.48.34.41.68.84 1.01 1.26.01.01.02.02.02.03.19.25.37.49.55.74 2.86 3.9 5.27 8.13 7.2 12.57 1.99 4.84 3.4 9.91 4.15 15.1.38 3.02.53 6.06.45 9.1-.05 2.08 1.87 4.08 3.98 3.98 2.2-.1 3.92-1.75 3.98-3.98.25-9.7-1.8-19.44-5.73-28.33.11-.09.24-.18.34-.29.66-.72 1.29-1.79 1.17-2.82-.32-2.63-.83-5.18-1.79-7.66-.95-2.44-2.1-4.79-3.54-6.98-2.78-4.23-6.29-7.95-10.24-11.1-6.44-5.14-13.73-8.78-21.05-12.42-1.32-3.53-2.63-7.05-3.95-10.58-.87-2.33-1.74-4.72-2.5-7.15.17-4.07-.07-8.41-.5-13.45-.16-1.89-.35-3.78-.55-5.67.04-.11.06-.22.1-.34.37-1.11.86-2.17 1.43-3.17.42.63.88 1.24 1.4 1.8.62.68 1.31 1.3 2.03 1.87.53.42 1.04.79 1.66 1.06.54.23 1.08.38 1.65.52.43.11.87.21 1.3.32.7 1.57 1.55 3.05 2.54 4.42-.04.3-.05.59-.06.88zm-6.04-18.86c.29-.65.6-1.29.98-1.9.33-.12.66-.22 1-.29-.13.56-.23 1.14-.32 1.71-.39.36-.82.68-1.28.97-.17-.03-.33-.03-.49-.01-.01 0-.03-.01-.04-.01.05-.16.09-.32.15-.47zm-3.42 2.76c.09.02.17.06.26.08-.09-.01-.18-.03-.26-.05zm-2.76-1.16c-.05.19-.1.38-.13.58-.27-.07-.54-.14-.8-.22-.04-.35-.08-.71-.12-1.06.33.25.69.48 1.05.7zm-13.96 48.42c-2.2 1.58-4.57 2.95-6.94 4.26-.49.27-.98.52-1.48.79.96-.73 1.91-1.48 2.83-2.27 2.09-1.81 3.96-3.85 5.47-6.13.41-.14.81-.33 1.16-.57.6.42 1.22.81 1.83 1.2-.21.23-.15.21-.02.08-.22.26-.45.51-.69.75-.4.41-.82.8-1.26 1.18-.09.07-.18.14-.27.21-.05.05-.13.12-.2.18-.04.03-.09.06-.13.1-.02.02-.05.04-.07.06.02-.02.03-.03.05-.05-.09.07-.19.14-.28.21zm4.79-11.02c-.12-.08-.24-.17-.35-.26-.12-.09-.23-.17-.35-.26.15.12.31.24.46.36-.29-.13-.59-.48-.83-.69-.27-.24-.54-.48-.79-.73-.13-.13-.27-.26-.4-.4-.02-2.3.03-5.08.26-7.92.54-6.73 1.38-13.44 2.16-20.14.24 2.27.48 4.54.69 6.82.72 7.78 1.07 15.65.12 23.43-.02.15-.05.28-.07.43-.31-.22-.61-.43-.9-.64zm-7.99-36.76c-.11 1.07-.24 2.13-.36 3.2-.26-.03-.53-.06-.79-.09-.75-.1-1.49-.27-2.2-.53-.24-.11-.46-.25-.68-.39-.15-.75-.36-1.49-.61-2.22.62-.63 1.14-1.37 1.52-2.16.46-.94.81-1.93 1.2-2.9.15-.34.33-.67.5-1 .68-.05 1.36-.13 2.03-.21-.17 2.11-.38 4.21-.61 6.3zm-9.48-.84c-.36-.24-.73-.47-1.1-.68-.6-.34-1.14-.74-1.63-1.2-.11-.72-.25-1.42-.42-2.11.49.08.98.19 1.45.37.19.09.37.17.54.29.02.01.05.03.08.05.01 0 0 0 .01.01.1.09.21.18.3.27.2.19.38.39.55.61.03.04.06.08.09.12.09.12.17.23.25.35.39.55.73 1.13 1.05 1.73-.14.07-.27.15-.41.21-.13.05-.27.1-.41.15-.09-.02-.17-.06-.26-.08-.02-.04-.05-.07-.09-.09zm4.1-3.48c-.18.41-.36.82-.58 1.2-.01.02-.03.05-.04.07-.12-.21-.23-.42-.36-.63-.52-.81-1.12-1.61-1.83-2.28.28.01.57.04.85.04.87.02 1.73.01 2.6-.01-.22.54-.43 1.08-.64 1.61zm-3.48-11.27c.33.21.66.43.98.66.06.04.12.09.18.14.02.01.04.03.05.04.15.12.3.25.45.38.29.26.56.52.83.81.13.14.25.28.37.42.05.06.1.13.15.19-.05-.06-.07-.08-.09-.1.04.04.08.09.1.12.47.64.85 1.33 1.18 2.05.26.65.45 1.32.59 2-2.07.07-4.15.03-6.22-.12-1.07-.08-2.13-.2-3.2-.33-.25-.03-.49-.08-.74-.12-.35-.76-.74-1.49-1.17-2.21-.07-.26-.14-.52-.24-.76 1.47-1.39 2.74-2.98 3.75-4.74 1.04.46 2.06.97 3.03 1.57zm-2.35 23.25c-.02.02-.06.05-.11.09s-.11.08-.13.09c-.15.11-.31.22-.47.32-.29.18-.59.33-.89.47-.1.04-.2.07-.31.1.55-1.73.93-3.53 1.09-5.39.97-.33 1.96-.6 2.94-.91.06.02.13.04.19.06.25.11.5.23.74.37.35.38.68.77.99 1.19-1.43 1.09-2.67 2.5-4.04 3.61zm7.31-2.03c.06-.02.11-.04.17-.05.98.3 2 .47 3.03.56-.3 2.64-.59 5.27-.89 7.91-.14-1.65-.43-3.31-.92-4.95-.35-1.21-.82-2.37-1.39-3.47zm-2.39 30.72c1.24-3.34 2.5-6.79 3.42-10.3-.5 4.82-.73 7.11-.27 13.08.01.09.02.18.03.27-.22.38-.46.74-.71 1.11-.19.27-.39.53-.58.8.15-.22.25-.36.32-.45-.1.14-.27.37-.37.49-.45.54-.92 1.05-1.4 1.55-.97 1-2.01 1.93-3.09 2.81-.21.17-.43.34-.65.52-.06.05-.13.09-.19.14-.1.08-.21.15-.32.23 1.27-3.42 2.54-6.84 3.81-10.25zm36.31 29.35c1.78 4.76 3.65 9.5 5.25 14.32 1.53 4.64 2.72 9.47 2.55 14.39-.21 6.02-3.13 12.64-8.52 15.61-2.12-8.05-11.21-14.38-22.9-14.38s-20.79 6.33-22.9 14.38c-5.39-2.98-8.31-9.59-8.52-15.61-.17-4.92 1.02-9.75 2.55-14.39 1.3-3.92 2.78-7.79 4.24-11.66 6.38-3.43 13.05-6.35 19.36-9.91 3.47-1.96 7.22-4.12 10.04-7.08.18.01.33-.1.46-.33.08-.15.17-.3.25-.45.25-.3.5-.6.73-.91 1.23 1.87 2.7 3.58 4.34 5.13 3.23 3.04 6.96 5.52 10.67 7.94.58.38 1.16.78 1.74 1.16.22.6.44 1.19.66 1.79zm15.05 12.16c.04.02.12.13.18.22-.09-.12-.17-.22-.18-.22zm-26-41.51c1.05 2.82 2.11 5.65 3.16 8.47-1.5-.75-3-1.51-4.49-2.29-.13-.35-.26-.71-.37-1.07-.18-.58-.5-1.12-.91-1.57.68-2.25 1.14-4.46 1.45-6.7.38 1.06.77 2.11 1.16 3.16zm-2.21-31.07c-.09-.79-.18-1.58-.27-2.37.32.08.63.14.95.21.07.22.12.45.21.66-.32.48-.61.98-.89 1.5zm8.25 2.49c-.27-.13-.52-.28-.77-.45-.06-.05-.12-.1-.18-.15-.12-.1-.24-.2-.36-.31-.49-.42-.97-.87-1.41-1.35-.22-.23-.43-.47-.63-.72-.02-.02-.06-.07-.09-.11-.01-.01-.02-.02-.02-.03-.09-.13-.19-.26-.27-.39-.13-.19-.22-.41-.33-.61.42.04.83.07 1.25.09.22.38.48.75.76 1.09.59.73 1.32 1.34 2.07 1.9.09.07.18.12.27.18.08.34.18.68.27 1.02-.19-.04-.38-.09-.56-.16z"/></g><g fill-rule="nonzero"><path d="m216.22 154.29c-.02-.02-.04-.05-.07-.09.02.02.03.04.04.06.01.01.02.02.03.03z" fill="#bf8e89"/><path d="m251.9 187.17c-3.27-5.36-7.3-10.34-11.95-14.56-4.56-4.14-9.77-7.33-14.86-10.76-1.25-.84-2.47-1.71-3.68-2.61-.13-.1-.26-.2-.39-.31-.32-.26-.63-.51-.94-.78-.57-.48-1.12-.98-1.65-1.49s-1.04-1.03-1.53-1.58c-.23-.26-.46-.53-.68-.8.15.18.08.11-.02-.03-.04-.05-.08-.09-.12-.14-.08-.09-.15-.19-.23-.28.13.16.23.28.3.37-.08-.1-.16-.21-.22-.28-.78-1.08-1.44-2.22-2-3.42-.17-.43-.32-.86-.45-1.3-.18-.58-.5-1.12-.91-1.57 2.36-7.79 2.24-15.01 1.39-24.96-.66-7.61-1.66-15.18-2.5-22.77-.89-8.05-1.66-16.13-1.97-24.23-.32-8.44-.11-16.9.96-25.28 1.03-7.3 2.74-14.5 5.36-21.4.39-1.02.08-2.52-.45-3.43-.54-.92-1.6-1.8-2.66-2.04-1.14-.26-2.42-.2-3.43.45-1.02.66-1.61 1.52-2.04 2.66-5.62 14.79-7.12 30.92-6.71 46.64.42 16.1 2.94 31.99 4.42 48 .72 7.78 1.07 15.65.12 23.43-.62 4.09-1.65 5.81-1.61 5.66-.05.13-.06.31-.05.54-.06.09-.11.18-.16.27-.26.49-.54.97-.86 1.43.03-.03.05-.05.09-.08-.05.04-.09.1-.14.16-.01.02-.02.04-.04.05-.04.06-.09.11-.13.16-.22.26-.45.51-.69.75-.4.41-.82.8-1.26 1.18-.09.07-.18.14-.27.21-.05.05-.13.12-.2.18-.04.03-.09.06-.13.1-.02.02-.05.04-.07.06.02-.02.03-.03.05-.05-.1.07-.19.14-.29.21-2.2 1.58-4.57 2.95-6.94 4.26-4.92 2.72-10.03 5.08-15.05 7.63-4.77 2.42-9.49 5.01-13.77 8.23-4.3 3.24-8.12 6.88-11.31 11.24-1.54 2.11-2.85 4.38-3.88 6.79-1.3 3.04-2.1 6.06-2.49 9.35-.11.94.53 2.18 1.17 2.82.69.69 1.82 1.21 2.82 1.17 1.03-.05 2.1-.38 2.82-1.17.66-.72.95-1.48 1.11-2.39-.01.08-.02.15-.03.23.3-2.23.89-4.4 1.72-6.49.77-1.73 1.68-3.38 2.73-4.96.28-.42.57-.84.87-1.24.11-.15.22-.29.32-.44.1-.13.22-.28.23-.29.64-.8 1.31-1.57 2.01-2.32 1.48-1.59 3.06-3.06 4.73-4.44.36-.3.73-.59 1.09-.88.01-.01.03-.02.04-.03.25-.19.49-.37.74-.55.85-.62 1.73-1.23 2.61-1.81 8.36-5.47 17.7-9.15 26.38-14.04 3.47-1.96 7.22-4.12 10.04-7.08.18.01.33-.1.46-.33.08-.15.17-.3.25-.45.25-.3.5-.6.73-.91 1.23 1.87 2.7 3.58 4.34 5.13 3.23 3.04 6.96 5.52 10.67 7.94 1.74 1.14 3.49 2.27 5.2 3.45.42.29.84.59 1.26.89.19.14.39.28.58.43.11.08.22.16.33.25.15.12.21.15.22.15.07.07.14.13.19.17.21.17.43.34.64.52.45.37.89.75 1.33 1.13 1.68 1.47 3.27 3.02 4.77 4.66.74.81 1.46 1.63 2.16 2.48.34.41.68.84 1.01 1.26.01.01.02.02.02.03.19.25.37.49.55.74 2.86 3.9 5.27 8.13 7.2 12.57 1.99 4.84 3.4 9.91 4.15 15.1.38 3.02.53 6.06.45 9.1-.05 2.08 1.87 4.08 3.98 3.98 2.2-.1 3.92-1.75 3.98-3.98.35-12.68-3.24-25.45-9.83-36.26zm-21.01-11.82c.07.03.15.08.22.15-.07-.06-.16-.12-.22-.15zm10.29 10.25c.04.02.12.13.18.22-.09-.11-.17-.22-.18-.22z" fill="#c26677"/><g fill="#bf8e89"><path d="m199.95 155.02c.13-.13.13-.18-.35.29.01 0 .01-.01.02-.01.1-.1.21-.19.33-.28z"/><path d="m202.33 152.67c.02-.02.03-.05.05-.07-.46.45-.38.44-.22.29.01-.01.02-.03.03-.04.05-.06.1-.12.14-.18z"/><path d="m203.45 150.36c0-.01.01-.02.01-.03-.01.01-.01.02-.01.03z"/></g></g><g><ellipse cx="212.01" cy="26.63" fill="#d9b5b4" rx="3.28" ry="4.32" transform="matrix(.326 -.9454 .9454 .326 117.724 218.374)"/><path d="m209.15 25.64c-.41 1.2.53 2.61 2.11 3.15s3.19.02 3.61-1.18c.41-1.2-.53-2.61-2.11-3.15-1.59-.54-3.2-.01-3.61 1.18z" fill="#bf8e89" fill-rule="nonzero"/></g><g fill-rule="nonzero"><path d="m206.78 30.71c-1.11 2.74-1.97 5.59-2.54 8.49-.08.38.11.82.52.91.37.08.83-.11.91-.52.57-2.9 1.43-5.75 2.54-8.49.15-.36-.16-.83-.52-.91-.43-.09-.76.14-.91.52z" fill="#fff"/><path d="m203.7 41.87c-.69 3.3-1.21 6.64-1.57 10-.36 3.34-.57 6.69-.67 10.04-.09 3.35-.07 6.7.03 10.05.1 3.36.29 6.72.51 10.07.23 3.37.51 6.73.79 10.1.04.41.07.82.11 1.23.03.4.32.74.74.74.37 0 .78-.34.74-.74-.29-3.35-.57-6.69-.81-10.04-.24-3.34-.44-6.68-.56-10.02-.12-3.35-.17-6.7-.11-10.06.06-3.32.24-6.65.55-9.95.31-3.29.78-6.56 1.42-9.81.08-.4.16-.81.25-1.21.08-.39-.11-.8-.52-.91-.36-.11-.82.11-.9.51z" fill="#fff"/><path d="m207.69 96.06c-3.34 1.1-6.77 1.89-10.26 2.36.13-.02.26-.04.39-.05-3.98.53-8.01.66-12.01.36-1.13-.08-2.26-.2-3.39-.35.13.02.26.04.39.05-2.04-.28-4.07-.66-6.07-1.16-.75-.19-1.64.24-1.82 1.04-.17.77.23 1.62 1.04 1.82 4.18 1.03 8.49 1.61 12.8 1.71s8.64-.29 12.86-1.12c2.32-.46 4.61-1.06 6.85-1.8.73-.24 1.29-1.03 1.04-1.82-.24-.74-1.03-1.3-1.82-1.04z" fill="#c26677"/><path d="m192.4 99.66c-.77 1.25-1.21 2.67-1.77 4.01.05-.12.1-.24.15-.35-.19.44-.39.88-.63 1.3-.12.21-.25.41-.38.6-.01.02-.11.15-.11.15-.01-.01.23-.29.09-.12-.08.1-.16.19-.25.29-.16.17-.33.33-.5.48-.03.03-.24.19-.03.03.2-.16.01-.01-.03.02-.09.07-.19.13-.28.19-.42.27-.87.5-1.33.69.12-.05.24-.1.35-.15-2.46 1.03-5.27 1.29-7.45 2.93-.73.55-1.35 1.17-1.84 1.95-.41.66-.16 1.66.53 2.03.73.38 1.59.17 2.03-.53.05-.08.1-.16.16-.24.07-.1.24-.26-.06.07.11-.12.21-.26.33-.38.1-.1.2-.2.31-.3.07-.06.14-.14.22-.18-.06.05-.12.1-.19.14.04-.03.08-.06.12-.09.54-.39 1.13-.69 1.73-.95-.12.05-.24.1-.35.15 1.69-.71 3.52-1.02 5.22-1.73 1.04-.43 2-.95 2.84-1.72.74-.67 1.32-1.53 1.75-2.42.5-1.03.87-2.11 1.31-3.17-.05.12-.1.24-.15.35.23-.54.48-1.08.79-1.58.41-.66.17-1.66-.53-2.03-.75-.35-1.62-.14-2.05.56z" fill="#c26677"/><path d="m195.19 100.57c-.02-2.34-.7-4.69-1.96-6.67-1.31-2.05-3.18-3.6-5.29-4.78-1.11-.62-2.27-1.15-3.43-1.68-.37-.17-.73-.26-1.14-.15-.34.09-.72.36-.89.68-.34.65-.22 1.68.53 2.03 1.44.66 2.88 1.32 4.23 2.15.33.21.66.43.98.66l.24.18c.13.1-.15-.11-.13-.1.05.03.09.07.13.1.15.12.3.25.45.38.29.26.56.52.83.81.13.14.25.28.37.42.05.06.1.13.15.19-.3-.35-.06-.07.01.02.51.69.93 1.44 1.27 2.23-.05-.12-.1-.24-.15-.35.4.94.67 1.92.8 2.93-.02-.13-.04-.26-.05-.39.06.45.09.9.09 1.36.01.78.68 1.52 1.48 1.48.79-.05 1.48-.67 1.48-1.5z" fill="#c26677"/><path d="m205.51 95.83c.2 3.53 2.21 6.57 4.73 8.93 1.4 1.31 2.93 2.51 4.74 3.19.85.32 1.75.5 2.64.68.91.18 1.82.38 2.73.61 2.01.52 3.99 1.19 5.91 2-.12-.05-.24-.1-.35-.15.68.29 1.35.59 2.01.91.36.18.74.26 1.14.15.34-.09.72-.36.89-.68.35-.66.21-1.67-.53-2.03-3.46-1.67-7.1-2.89-10.86-3.64-1.04-.21-2.09-.41-3.07-.82.12.05.24.1.35.15-.69-.29-1.33-.68-1.93-1.13-.07-.05-.14-.11-.21-.16-.13-.1.14.1.13.1-.04-.02-.07-.05-.1-.08-.15-.12-.29-.23-.43-.35-.26-.22-.52-.44-.77-.67-.5-.46-.97-.93-1.42-1.44-.11-.12-.21-.24-.31-.36-.1-.11-.27-.26-.32-.4-.01-.02.21.27.11.14-.03-.04-.06-.08-.1-.13-.05-.06-.09-.13-.14-.19-.1-.14-.2-.28-.29-.42-.42-.62-.78-1.28-1.07-1.97.05.12.1.24.15.35-.3-.74-.52-1.5-.63-2.29.02.13.04.26.05.39-.03-.23-.05-.46-.07-.7-.04-.77-.65-1.52-1.48-1.48-.79.04-1.55.66-1.5 1.49z" fill="#c26677"/><path d="m218.79 107.47c.19-.74.43-1.45.72-2.15-.05.12-.1.24-.15.35.31-.72.66-1.42 1.07-2.09.21-.33.42-.66.65-.98.06-.08.12-.17.19-.25.09-.12.06-.08-.09.11.03-.04.06-.08.1-.12.12-.15.25-.3.37-.45.51-.59 1.07-1.15 1.66-1.66.15-.13.3-.25.45-.37.12-.09.08-.06-.11.09.04-.03.09-.07.13-.1.08-.06.16-.11.24-.17.35-.24.72-.46 1.11-.63-.12.05-.24.1-.35.15.3-.12.62-.21.94-.26-.13.02-.26.04-.39.05.03 0 .05-.01.08-.01.4-.04.75-.14 1.05-.43.26-.26.45-.68.43-1.05-.02-.38-.14-.78-.43-1.05-.27-.25-.66-.48-1.05-.43-.7.08-1.28.24-1.92.53-.4.18-.77.42-1.13.68-.78.57-1.52 1.19-2.19 1.89-1.27 1.32-2.35 2.85-3.13 4.51-.46.98-.84 2-1.11 3.05-.19.75.24 1.64 1.04 1.82.77.18 1.62-.22 1.82-1.03z" fill="#c26677"/><path d="m218.25 106.66c-.58.99-.68 2.11-.48 3.21.18 1.02.75 1.92 1.39 2.71.59.73 1.32 1.34 2.07 1.9.69.52 1.45.96 2.24 1.32.37.17.73.26 1.14.15.34-.09.72-.36.89-.68.34-.65.22-1.69-.53-2.03-.49-.22-.97-.48-1.43-.76-.23-.14-.45-.3-.67-.45-.06-.04-.12-.08-.17-.13.04.04.25.2.1.07-.11-.09-.22-.18-.33-.27-.39-.33-.76-.69-1.09-1.09-.04-.05-.1-.1-.13-.16.05.09.2.26.06.07-.07-.1-.14-.2-.21-.3-.15-.23-.27-.47-.38-.72.05.12.1.24.15.35-.12-.3-.2-.61-.25-.93.02.13.04.26.05.39-.04-.29-.04-.58 0-.87-.02.13-.04.26-.05.39.03-.24.09-.46.18-.69-.05.12-.1.24-.15.35.05-.12.11-.24.18-.35.39-.67.18-1.65-.53-2.03-.73-.36-1.63-.17-2.05.55z" fill="#c26677"/><g fill="#e0c37e"><path d="m178.88 173.44c3.65-9.78 7.3-19.57 10.95-29.35 3.22-8.63 6.53-18.03 3.78-27.25-1.19-3.98-3.5-7.6-6.97-9.94-.36-.24-.73-.47-1.1-.68-2.71-1.52-4.4-4.36-4.4-7.47 0-5.39-4.37-9.75-9.75-9.75-.71 0-1.4.08-2.07.22.01-.01.01-.02.02-.04l3.34-5.48c.4-.65-.5-1.3-1-.73l-4.18 4.87c-.25.29-.69.29-.94 0l-4.18-4.87c-.5-.58-1.39.08-1 .73l3.34 5.48c.2.32.06.75-.29.89l-5.92 2.47c-.7.29-.36 1.35.38 1.17l4.98-1.18c-1.39 1.69-2.23 3.85-2.23 6.21v5.56c-.32.07-.64-.13-.72-.46l-1.52-6.23c-.18-.74-1.28-.57-1.22.19l.48 6.4c.03.38-.29.69-.66.66l-6.4-.48c-.76-.06-.93 1.04-.19 1.22l6.23 1.52c.37.09.57.49.43.84l-2.44 5.93c-.29.7.7 1.21 1.1.56l3.37-5.46c.2-.32.64-.39.93-.15l.61.52v3.78c0 2.36.84 4.52 2.23 6.21l-4.98-1.18c-.74-.18-1.08.88-.38 1.17l5.92 2.47c.35.15.49.57.29.89l-3.34 5.48c-.4.65.5 1.3 1 .73l4.18-4.87c.25-.29.69-.29.94 0l4.18 4.87c.5.58 1.39-.08 1-.73l-3.34-5.48c-.01-.01-.01-.02-.02-.04.67.14 1.36.22 2.07.22 5.39 0 9.75-4.37 9.75-9.75v-3.4c0-1.65 1.76-2.72 3.21-1.94.01.01.02.01.03.02 3.48 1.88 5.88 5.13 7.12 8.84 3 8.93-.32 18.2-3.45 26.6-3.63 9.74-7.27 19.48-10.9 29.23-1.75 4.7-3.6 9.38-5.2 14.14-1.56 4.63-2.81 9.44-2.84 14.36-.05 7.35 3.31 15.59 10.29 18.9.84.4 1.7.72 2.6.95 1.22.32 1.74-1.57.52-1.89-7.26-1.91-11.19-9.76-11.43-16.8-.17-4.92 1.02-9.75 2.55-14.39 1.58-4.82 3.46-9.55 5.24-14.31z"/><path d="m226.13 173.44c-3.65-9.78-7.3-19.57-10.95-29.35-3.22-8.63-6.53-18.03-3.78-27.25 1.19-3.98 3.5-7.6 6.97-9.94.36-.24.73-.47 1.1-.68 2.71-1.52 4.4-4.36 4.4-7.47 0-5.39 4.37-9.75 9.75-9.75.71 0 1.4.08 2.07.22-.01-.01-.01-.02-.02-.04l-3.34-5.48c-.4-.65.5-1.3 1-.73l4.18 4.87c.25.29.69.29.94 0l4.18-4.87c.5-.58 1.39.08 1 .73l-3.34 5.48c-.2.32-.06.75.29.89l5.92 2.47c.7.29.36 1.35-.38 1.17l-4.98-1.18c1.39 1.69 2.23 3.85 2.23 6.21v5.56c.32.07.64-.13.72-.46l1.52-6.23c.18-.74 1.28-.57 1.22.19l-.48 6.4c-.03.38.29.69.66.66l6.4-.48c.76-.06.93 1.04.19 1.22l-6.23 1.52c-.37.09-.57.49-.43.84l2.44 5.93c.29.7-.7 1.21-1.1.56l-3.37-5.46c-.2-.32-.64-.39-.93-.15l-.61.52v3.78c0 2.36-.84 4.52-2.23 6.21l4.98-1.18c.74-.18 1.08.88.38 1.17l-5.92 2.47c-.35.15-.49.57-.29.89l3.34 5.48c.4.65-.5 1.3-1 .73l-4.18-4.87c-.25-.29-.69-.29-.94 0l-4.18 4.87c-.5.58-1.39-.08-1-.73l3.34-5.48c.01-.01.01-.02.02-.04-.67.14-1.36.22-2.07.22-5.39 0-9.75-4.37-9.75-9.75v-3.4c0-1.65-1.76-2.72-3.21-1.94-.01.01-.02.01-.03.02-3.48 1.88-5.88 5.13-7.12 8.84-3 8.93.32 18.2 3.45 26.6 3.63 9.74 7.27 19.48 10.9 29.23 1.75 4.7 3.6 9.38 5.2 14.14 1.56 4.63 2.81 9.44 2.84 14.36.05 7.35-3.31 15.59-10.29 18.9-.84.4-1.7.72-2.6.95-1.22.32-1.74-1.57-.52-1.89 7.26-1.91 11.19-9.76 11.43-16.8.17-4.92-1.02-9.75-2.55-14.39-1.59-4.82-3.46-9.55-5.24-14.31z"/></g><g><path d="m179.13 108.84c0 27.29 5.26 49.42-14.76 49.42s-36.24-22.13-36.24-49.42 16.22-49.42 36.24-49.42 14.76 22.12 14.76 49.42z" fill="#e69ca7"/><path d="m183.29 80.2c0 4.91-1.7 9.42-4.55 12.98.57.72 1.11 1.48 1.6 2.26 4.09-3.8 6.65-9.22 6.65-15.24 0-11.48-9.3-20.78-20.78-20.78-.62 0-1.24.03-1.85.08 10.61.93 18.93 9.84 18.93 20.7z" fill="#c26677"/><path d="m180.49 137.48c0 10.85-8.32 19.76-18.93 20.7.61.05 1.23.08 1.85.08 11.48 0 20.78-9.3 20.78-20.78 0-5.17-1.89-9.91-5.02-13.54-.61.81-1.27 1.59-1.97 2.33 2.08 3.22 3.29 7.07 3.29 11.21z" fill="#c26677"/><path d="m180.34 95.43c-.8.74-1.65 1.42-2.56 2.03 1.73 3.42 2.71 7.28 2.71 11.38 0 4.7-1.29 9.11-3.53 12.88.79.68 1.54 1.43 2.22 2.22 3.15-4.21 5.02-9.43 5.02-15.1 0-4.93-1.42-9.52-3.86-13.41z" fill="#c26677"/><path d="m176.64 95.43c.41.66.79 1.33 1.15 2.03.91-.61 1.76-1.29 2.56-2.03-.49-.78-1.03-1.54-1.6-2.26-.66.81-1.36 1.56-2.11 2.26z" fill="#c26677"/><path d="m176.96 121.71c-.46.77-.95 1.51-1.49 2.22.63.73 1.21 1.51 1.73 2.33.7-.73 1.36-1.51 1.97-2.33-.68-.79-1.42-1.53-2.21-2.22z" fill="#c26677"/><g fill="#e69ca7"><path d="m145.43 80.2c0 2.36.39 4.62 1.11 6.73 3.67-2.09 7.92-3.29 12.45-3.29 8 0 15.12 3.73 19.74 9.54 2.85-3.56 4.55-8.07 4.55-12.98 0-10.85-8.32-19.76-18.93-20.7-10.6.93-18.92 9.84-18.92 20.7z"/><path d="m180.49 137.48c0-4.13-1.21-7.98-3.29-11.22-4.59 4.79-11.05 7.78-18.21 7.78-5.48 0-10.56-1.75-14.7-4.73-1.07 2.51-1.67 5.27-1.67 8.17 0 10.85 8.32 19.76 18.93 20.7 10.62-.94 18.94-9.85 18.94-20.7z"/><path d="m146.54 86.93c-7.61 4.34-12.74 12.52-12.74 21.91 0 8.43 4.14 15.9 10.5 20.47 3.17-7.42 10.54-12.61 19.11-12.61 5.17 0 9.9 1.89 13.54 5.02 2.24-3.77 3.53-8.17 3.53-12.88 0-4.09-.98-7.96-2.71-11.38-3.31 2.22-7.29 3.52-11.57 3.52-9.11 0-16.86-5.88-19.66-14.05z"/><path d="m178.74 93.17c-4.62-5.81-11.74-9.54-19.74-9.54-4.53 0-8.78 1.2-12.45 3.29 2.8 8.17 10.55 14.05 19.67 14.05 4.28 0 8.26-1.3 11.57-3.52-.35-.69-.73-1.37-1.15-2.03.75-.69 1.45-1.44 2.1-2.25z"/><path d="m144.3 129.31c4.14 2.97 9.21 4.73 14.7 4.73 7.16 0 13.62-2.99 18.21-7.78-.52-.82-1.1-1.59-1.73-2.33.53-.71 1.03-1.45 1.49-2.22-3.64-3.13-8.37-5.02-13.54-5.02-8.59 0-15.96 5.2-19.13 12.62z"/></g></g><g fill="#fff"><path d="m151.57 147.13c0 .72-.59 1.31-1.31 1.31s-1.31-.59-1.31-1.31.59-1.31 1.31-1.31 1.31.59 1.31 1.31z"/><path d="m157.65 151.36c0 1.04-.83 1.88-1.85 1.88s-1.85-.84-1.85-1.88.83-1.88 1.85-1.88 1.85.84 1.85 1.88z"/><path d="m157.15 146.86c0 .57-.46 1.04-1.04 1.04-.57 0-1.04-.46-1.04-1.04 0-.57.46-1.04 1.04-1.04s1.04.47 1.04 1.04z"/></g><g><path d="m225.87 108.84c0 27.29-5.26 49.42 14.76 49.42 20.01 0 36.24-22.13 36.24-49.42s-16.22-49.42-36.24-49.42c-20.01 0-14.76 22.12-14.76 49.42z" fill="#e69ca7"/><path d="m221.72 80.2c0 4.91 1.7 9.42 4.55 12.98-.57.72-1.11 1.48-1.6 2.26-4.09-3.8-6.65-9.22-6.65-15.24 0-11.48 9.3-20.78 20.78-20.78.62 0 1.24.03 1.85.08-10.61.93-18.93 9.84-18.93 20.7z" fill="#c26677"/><path d="m224.52 137.48c0 10.85 8.32 19.76 18.93 20.7-.61.05-1.23.08-1.85.08-11.48 0-20.78-9.3-20.78-20.78 0-5.17 1.89-9.91 5.02-13.54.61.81 1.27 1.59 1.97 2.33-2.09 3.22-3.29 7.07-3.29 11.21z" fill="#c26677"/><path d="m224.67 95.43c.8.74 1.65 1.42 2.56 2.03-1.73 3.42-2.71 7.28-2.71 11.38 0 4.7 1.29 9.11 3.53 12.88-.79.68-1.54 1.43-2.22 2.22-3.15-4.21-5.02-9.43-5.02-15.1 0-4.93 1.41-9.52 3.86-13.41z" fill="#c26677"/><path d="m228.37 95.43c-.41.66-.79 1.33-1.15 2.03-.91-.61-1.76-1.29-2.56-2.03.49-.78 1.03-1.54 1.6-2.26.65.81 1.36 1.56 2.11 2.26z" fill="#c26677"/><path d="m228.05 121.71c.46.77.95 1.51 1.49 2.22-.63.73-1.21 1.51-1.73 2.33-.7-.73-1.36-1.51-1.97-2.33.67-.79 1.42-1.53 2.21-2.22z" fill="#c26677"/><g fill="#e69ca7"><path d="m259.58 80.2c0 2.36-.39 4.62-1.11 6.73-3.67-2.09-7.92-3.29-12.45-3.29-8 0-15.12 3.73-19.74 9.54-2.85-3.56-4.55-8.07-4.55-12.98 0-10.85 8.32-19.76 18.93-20.7 10.6.93 18.92 9.84 18.92 20.7z"/><path d="m224.52 137.48c0-4.13 1.21-7.98 3.29-11.22 4.59 4.79 11.05 7.78 18.21 7.78 5.48 0 10.56-1.75 14.7-4.73 1.07 2.51 1.67 5.27 1.67 8.17 0 10.85-8.32 19.76-18.93 20.7-10.62-.94-18.94-9.85-18.94-20.7z"/><path d="m258.46 86.93c7.61 4.34 12.74 12.52 12.74 21.91 0 8.43-4.14 15.9-10.5 20.47-3.17-7.42-10.54-12.61-19.11-12.61-5.17 0-9.9 1.89-13.54 5.02-2.24-3.77-3.53-8.17-3.53-12.88 0-4.09.98-7.96 2.71-11.38 3.31 2.22 7.29 3.52 11.57 3.52 9.12 0 16.87-5.88 19.66-14.05z"/><path d="m226.27 93.17c4.62-5.81 11.74-9.54 19.74-9.54 4.53 0 8.78 1.2 12.45 3.29-2.8 8.17-10.55 14.05-19.67 14.05-4.28 0-8.26-1.3-11.57-3.52.35-.69.73-1.37 1.15-2.03-.75-.69-1.46-1.44-2.1-2.25z"/><path d="m260.71 129.31c-4.14 2.97-9.21 4.73-14.7 4.73-7.16 0-13.62-2.99-18.21-7.78.52-.82 1.1-1.59 1.73-2.33-.53-.71-1.03-1.45-1.49-2.22 3.64-3.13 8.37-5.02 13.54-5.02 8.59 0 15.95 5.2 19.13 12.62z"/></g></g></g><g fill="#fff"><circle cx="241.56" cy="151.38" r="1.9" transform="matrix(.1602 -.9871 .9871 .1602 53.4381 365.57)"/><path d="m246.32 146.86c0 .57-.46 1.04-1.04 1.04-.57 0-1.04-.46-1.04-1.04 0-.57.46-1.04 1.04-1.04s1.04.47 1.04 1.04z" fill-rule="nonzero"/><path d="m247.21 151.23c0 .53-.43.96-.96.96s-.96-.43-.96-.96.43-.96.96-.96.96.43.96.96z" fill-rule="nonzero"/><circle cx="251.29" cy="148.32" r="1.16"/></g><g fill-rule="nonzero"><path d="m188.42 268.97c4.28-.4 8.47-1.32 12.72-1.61-.12-.23-.26-.45-.42-.64-.17.05-.34.09-.51.12-1.01.22-2.13.11-3.14.11-8.74.42-17.58 2.57-26.34 1.18-.24.11-.46.26-.6.41-.02.02-.03.04-.05.06 6.13.43 12.18.9 18.34.37z" fill="#d09c92"/><path d="m193.36 269.98c2.72-.19 5.61-.31 8.23-1.21-.08-.51-.23-.99-.45-1.41-4.26.28-8.45 1.21-12.72 1.61-6.15.53-12.2.06-18.34-.37-.1.11-.19.24-.26.39 1.03.18 2.07.46 3.1.55 6.85.33 13.59.89 20.44.44z" fill="#e9cdd0"/><path d="m170.67 269.53c1.01.22 2.02.45 3.03.56 9.38.85 18.56.09 27.82.97.17-.73.19-1.53.06-2.29-2.62.9-5.51 1.01-8.23 1.21-6.85.45-13.59-.11-20.44-.45-1.03-.09-2.07-.37-3.1-.55-.08.16-.13.32-.16.49.35-.03.7 0 1.02.06z" fill="#d09c92"/><path d="m185.61 271.22c5.28-.32 10.46.16 15.72.5.08-.21.15-.43.2-.65-9.26-.88-18.44-.12-27.82-.97-1.01-.11-2.02-.34-3.03-.56-.32-.06-.67-.09-1.02-.06-.01.08-.02.16-.01.24.01.11.02.23.04.34 5.27.9 10.54 1.47 15.92 1.16z" fill="#e9cdd0"/><path d="m173.03 271.11c8.76.67 17.41 1.12 26.06 1.24.65 0 1.3.03 1.95-.01.11-.19.21-.4.29-.62-5.27-.34-10.44-.82-15.72-.5-5.38.32-10.65-.26-15.92-1.17.04.19.11.38.21.55 1.01.28 2.07.42 3.13.51z" fill="#d09c92"/><path d="m197.4 273.58c-8.31-1.46-16.29-1.68-24.48-2.13-.99 0-1.9-.5-2.92-.7.04.05.08.09.13.14.35.33.73.45 1.22.54 3.25.55 7.14.9 11.79.97 2.68.04 5.65.37 8.93.91.31.05.63.09.96.11l5.54.33c.43.03.82-.04 1.16-.19-.76.07-1.53.13-2.33.02z" fill="#d09c92"/><g fill="#e9cdd0"><path d="m201.04 272.34c-.65.04-1.3.01-1.95.01-8.65-.11-17.3-.56-26.06-1.24-1.06-.08-2.12-.22-3.13-.51.03.05.06.1.1.14 1.02.2 1.93.7 2.92.7 8.2.45 16.17.67 24.48 2.13.8.11 1.57.05 2.32-.03.56-.23 1-.66 1.32-1.2z"/><path d="m197.06 266.95c1.01 0 2.13.11 3.14-.11.17-.02.34-.07.51-.12-.51-.61-1.23-.99-2.15-.93l-5.54.33c-.65.04-1.27.14-1.84.29-3.72 1.01-7.16 1.5-10.2 1.66-3.71.19-6.9.15-9.65-.07-.19-.02-.41.04-.62.13 8.77 1.39 17.61-.76 26.35-1.18z"/></g></g><g fill-rule="nonzero"><path d="m198.47 266.18-4.99.3c-.59.04-1.14.13-1.65.26-3.35.91-2.16 5.71.79 6.19.28.05.57.08.86.1l4.99.3c3.72.23 3.72-7.37 0-7.15z" fill="#e9cdd0"/><g fill="#d09c92"><path d="m192.03 269.24c.02-.01.04-.01.06-.02.71-.28 1.16-.82 1.42-1.53v-.01c.12-.37-.2-.73-.58-.67-.26.04-.51.09-.75.15-.74.2-1.21.64-1.45 1.17-.06.14-.06.3.01.43.22.41.74.64 1.29.48z"/><path d="m191.64 269.53c-.24.01-.45-.05-.63-.16-.24-.15-.55.02-.54.3.04.69.33 1.4.81 1.93.15.17.42.15.55-.04.35-.54.4-1.26.12-1.83-.06-.13-.18-.21-.31-.2z"/><path d="m196.14 268.36c.53-.18 1.15-.44 1.26-1.04.01-.04.01-.07.01-.11v-.01c-.01-.29-.26-.52-.55-.5l-2.43.15c-.2.2-.33.32-.53.52 0 .08-.02.17-.05.26-.01.02-.02.05-.03.07-.09.23-.01.49.2.62.61.36 1.55.33 2.12.04z"/><path d="m199.5 270.19c.2.2.59.49.93.38.07-.02.12-.08.13-.15.12-.71.05-1.49-.2-2.13-.03-.09-.12-.14-.22-.12-.01 0-.03.01-.04.01-.8.37-1.15 1.26-.63 1.98.01.01.02.02.03.03z"/><path d="m197.92 271.52c-.25.18-.42.42-.5.68-.1.31.14.63.47.65l.35.02c.84.05 1.45-.39 1.82-1.05.16-.29.02-.66-.29-.75-.6-.17-1.34.05-1.85.45z"/><path d="m196.25 271.46c-.02-.02-.04-.03-.07-.05-.73-.43-1.79-.24-2.06.57v.01c-.15.31.07.67.41.69l1.67.1c.31.02.56-.25.51-.55-.04-.29-.23-.57-.46-.77z"/><path d="m192.29 270.44c.05.5-.11 1.02-.45 1.41-.05.06-.04.16.02.2.3.22.66.38 1.05.44.23.04.46.06.7.08.08 0 .15-.06.15-.14 0-.18.04-.36.12-.51.03-.1.08-.18.13-.26.03-.04.03-.08.02-.13-.26-.68-.88-1.22-1.6-1.24-.08 0-.15.07-.14.15z"/><path d="m197.96 270.39c-.64-.21-1.44.07-1.77.68-.05.09-.01.2.07.24.04.02.09.04.13.07.01.01.02.01.02.02.35.29.59.74.46 1.13-.04.11.04.23.15.23.1.01.19-.08.19-.18-.02-.42.17-.83.56-1.11.2-.16.44-.29.69-.38.11-.04.15-.16.09-.26-.14-.22-.35-.39-.59-.44z"/><path d="m194.46 270.02c.11-.33.19-.82.05-1.2-.01-.04-.05-.06-.09-.07-.33-.06-.64-.19-.85-.41-.05-.05-.14-.05-.18.02-.28.47-.66.82-1.2 1.03h-.01c-.07.02-.1.1-.07.16.08.15.14.31.18.48.01.05.06.09.11.09.56-.01 1.08.31 1.41.77.04.05.11.06.16.02.27-.25.44-.59.49-.89z"/><path d="m197.72 268.23c-.01-.01-.02-.01-.02-.02-.19-.17-.47-.18-.68-.04-.22.15-.48.25-.73.33-.02.01-.04.01-.06.02-.06.03-.13.06-.19.08-.35.12-.5.54-.31.86.14.23.31.44.51.62.16.15.4.2.61.12.09-.04.18-.07.28-.09.22-.05.4-.21.46-.43.06-.25.16-.49.28-.72.13-.24.07-.54-.15-.73z"/><path d="m195.07 268.83h-.08c-.14 0-.25.12-.23.26.05.33-.02.71-.11.97-.05.3-.21.62-.45.85-.07.07-.09.18-.04.27.06.12.22.16.33.07.33-.24.79-.31 1.22-.21.1.02.21-.02.26-.11.06-.12.15-.23.25-.33.09-.09.09-.25-.02-.33-.41-.34-.71-.81-.92-1.31-.03-.08-.12-.13-.21-.13z"/><path d="m199.39 270.2c-.27-.37-.31-.79-.17-1.16.04-.11-.03-.23-.15-.25-.19-.03-.38-.08-.55-.15-.08-.03-.17 0-.22.07-.26.37-.44.8-.53 1.24-.02.1.05.2.15.22.07.01.14.03.2.05.26.05.49.26.64.52.04.07.12.11.2.1.4-.08.8-.05 1.12.15.11.07.25.02.28-.1v-.02c.03-.12-.06-.24-.18-.24-.3.01-.61-.23-.79-.4.02-.01.01-.02 0-.03z"/><path d="m199.35 268.54c.15-.22.38-.41.65-.53.01 0 .02-.01.03-.01.08-.02.13-.11.09-.19-.37-.72-.99-1.21-1.88-1.16l-.44.03c-.08 0-.14.08-.12.16.04.14.05.28.05.42v.03c-.02.13-.06.24-.12.34-.02.04-.02.1.01.13.35.48.98.8 1.61.84.05 0 .1-.03.12-.06z"/></g></g><g fill-rule="nonzero"><path d="m216.59 268.97c-4.28-.4-8.47-1.32-12.72-1.61.12-.23.26-.45.42-.64.17.05.34.09.51.12 1.01.22 2.13.11 3.14.11 8.74.42 17.58 2.57 26.34 1.18.24.11.46.26.6.41.02.02.03.04.05.06-6.14.43-12.19.9-18.34.37z" fill="#d09c92"/><path d="m211.65 269.98c-2.72-.19-5.61-.31-8.23-1.21.08-.51.23-.99.45-1.41 4.26.28 8.45 1.21 12.72 1.61 6.15.53 12.2.06 18.34-.37.1.11.19.24.26.39-1.03.18-2.07.46-3.1.55-6.85.33-13.59.89-20.44.44z" fill="#e9cdd0"/><path d="m234.34 269.53c-1.01.22-2.02.45-3.03.56-9.38.85-18.56.09-27.82.97-.17-.73-.19-1.53-.06-2.29 2.62.9 5.51 1.01 8.23 1.21 6.85.45 13.59-.11 20.44-.45 1.03-.09 2.07-.37 3.1-.55.08.16.13.32.16.49-.36-.03-.71 0-1.02.06z" fill="#d09c92"/><path d="m219.4 271.22c-5.28-.32-10.46.16-15.72.5-.08-.21-.15-.43-.2-.65 9.26-.88 18.44-.12 27.82-.97 1.01-.11 2.02-.34 3.03-.56.32-.06.67-.09 1.02-.06.01.08.02.16.01.24-.01.11-.02.23-.04.34-5.27.9-10.55 1.47-15.92 1.16z" fill="#e9cdd0"/><path d="m231.98 271.11c-8.76.67-17.41 1.12-26.06 1.24-.65 0-1.3.03-1.95-.01-.11-.19-.21-.4-.29-.62 5.27-.34 10.44-.82 15.72-.5 5.38.32 10.65-.26 15.92-1.17-.04.19-.11.38-.21.55-1.02.28-2.07.42-3.13.51z" fill="#d09c92"/><path d="m207.61 273.58c8.31-1.46 16.29-1.68 24.48-2.13.99 0 1.9-.5 2.92-.7-.04.05-.08.09-.13.14-.35.33-.73.45-1.22.54-3.25.55-7.14.9-11.79.97-2.68.04-5.65.37-8.93.91-.31.05-.63.09-.96.11l-5.54.33c-.43.03-.82-.04-1.16-.19.76.07 1.53.13 2.33.02z" fill="#d09c92"/><g fill="#e9cdd0"><path d="m203.97 272.34c.65.04 1.3.01 1.95.01 8.65-.11 17.3-.56 26.06-1.24 1.06-.08 2.12-.22 3.13-.51-.03.05-.06.1-.1.14-1.02.2-1.93.7-2.92.7-8.2.45-16.17.67-24.48 2.13-.8.11-1.57.05-2.32-.03-.57-.23-1-.66-1.32-1.2z"/><path d="m207.94 266.95c-1.01 0-2.13.11-3.14-.11-.17-.02-.34-.07-.51-.12.51-.61 1.23-.99 2.15-.93l5.54.33c.65.04 1.27.14 1.84.29 3.72 1.01 7.16 1.5 10.2 1.66 3.71.19 6.9.15 9.65-.07.19-.02.41.04.62.13-8.77 1.39-17.61-.76-26.35-1.18z"/></g></g><g fill-rule="nonzero"><path d="m206.54 266.18 4.99.3c.59.04 1.14.13 1.65.26 3.35.91 2.16 5.71-.79 6.19-.28.05-.57.08-.86.1l-4.99.3c-3.73.23-3.73-7.37 0-7.15z" fill="#e9cdd0"/><g fill="#d09c92"><path d="m212.97 269.24c-.02-.01-.04-.01-.06-.02-.71-.28-1.16-.82-1.42-1.53v-.01c-.12-.37.2-.73.58-.67.26.04.51.09.75.15.74.2 1.21.64 1.45 1.17.06.14.06.3-.01.43-.21.41-.73.64-1.29.48z"/><path d="m213.37 269.53c.24.01.45-.05.63-.16.24-.15.55.02.54.3-.04.69-.33 1.4-.81 1.93-.15.17-.42.15-.55-.04-.35-.54-.4-1.26-.12-1.83.05-.13.17-.21.31-.2z"/><path d="m208.86 268.36c-.53-.18-1.15-.44-1.26-1.04-.01-.04-.01-.07-.01-.11v-.01c.01-.29.26-.52.55-.5l2.43.15c.2.2.33.32.53.52 0 .08.02.17.05.26.01.02.02.05.03.07.09.23.01.49-.2.62-.61.36-1.54.33-2.12.04z"/><path d="m205.51 270.19c-.2.2-.59.49-.93.38-.07-.02-.12-.08-.13-.15-.12-.71-.05-1.49.2-2.13.03-.09.12-.14.22-.12.01 0 .03.01.04.01.8.37 1.15 1.26.63 1.98-.02.01-.02.02-.03.03z"/><path d="m207.09 271.52c.25.18.42.42.5.68.1.31-.14.63-.47.65l-.35.02c-.84.05-1.45-.39-1.82-1.05-.16-.29-.02-.66.29-.75.59-.17 1.33.05 1.85.45z"/><path d="m208.76 271.46c.02-.02.04-.03.07-.05.73-.43 1.79-.24 2.06.57v.01c.15.31-.07.67-.41.69l-1.67.1c-.31.02-.56-.25-.51-.55.04-.29.22-.57.46-.77z"/><path d="m212.72 270.44c-.05.5.11 1.02.45 1.41.05.06.04.16-.02.2-.3.22-.66.38-1.05.44-.23.04-.46.06-.7.08-.08 0-.15-.06-.15-.14 0-.18-.04-.36-.12-.51-.03-.1-.08-.18-.13-.26-.03-.04-.03-.08-.02-.13.26-.68.88-1.22 1.6-1.24.08 0 .15.07.14.15z"/><path d="m207.05 270.39c.64-.21 1.44.07 1.77.68.05.09.01.2-.07.24-.04.02-.09.04-.13.07-.01.01-.02.01-.02.02-.35.29-.59.74-.46 1.13.04.11-.04.23-.15.23-.1.01-.19-.08-.19-.18.02-.42-.17-.83-.56-1.11-.2-.16-.44-.29-.69-.38-.11-.04-.15-.16-.09-.26.13-.22.35-.39.59-.44z"/><path d="m210.55 270.02c-.11-.33-.19-.82-.05-1.2.01-.04.05-.06.09-.07.33-.06.64-.19.85-.41.05-.05.14-.05.18.02.28.47.66.82 1.2 1.03h.01c.07.02.1.1.07.16-.08.15-.14.31-.18.48-.01.05-.06.09-.11.09-.56-.01-1.08.31-1.41.77-.04.05-.11.06-.16.02-.28-.25-.44-.59-.49-.89z"/><path d="m207.29 268.23c.01-.01.02-.01.02-.02.19-.17.47-.18.68-.04.22.15.48.25.73.33.02.01.04.01.06.02.06.03.13.06.19.08.35.12.5.54.31.86-.14.23-.31.44-.51.62-.16.15-.4.2-.61.12-.09-.04-.18-.07-.28-.09-.22-.05-.4-.21-.46-.43-.06-.25-.16-.49-.28-.72-.13-.24-.07-.54.15-.73z"/><path d="m209.93 268.83h.08c.14 0 .25.12.23.26-.05.33.02.71.11.97.05.3.21.62.45.85.07.07.09.18.04.27-.06.12-.22.16-.33.07-.33-.24-.79-.31-1.22-.21-.1.02-.21-.02-.26-.11-.06-.12-.15-.23-.25-.33-.09-.09-.09-.25.02-.33.41-.34.71-.81.92-1.31.04-.08.12-.13.21-.13z"/><path d="m205.62 270.2c.27-.37.31-.79.17-1.16-.04-.11.03-.23.15-.25.19-.03.38-.08.55-.15.08-.03.17 0 .22.07.26.37.44.8.53 1.24.02.1-.05.2-.15.22-.07.01-.14.03-.2.05-.26.05-.49.26-.64.52-.04.07-.12.11-.2.1-.4-.08-.8-.05-1.12.15-.11.07-.25.02-.28-.1v-.02c-.03-.12.06-.24.18-.24.3.01.61-.23.79-.4-.02-.01-.01-.02 0-.03z"/><path d="m205.65 268.54c-.15-.22-.38-.41-.65-.53-.01 0-.02-.01-.03-.01-.08-.02-.13-.11-.09-.19.37-.72.99-1.21 1.88-1.16l.44.03c.08 0 .14.08.12.16-.04.14-.05.28-.05.42v.03c.02.13.06.24.12.34.02.04.02.1-.01.13-.35.48-.98.8-1.61.84-.05 0-.09-.03-.12-.06z"/></g></g><g fill-rule="nonzero"><path d="m202.5 203.38c-14.15 0-24.52 9.26-23.29 19.64.72 6.02 45.86 6.02 46.58 0 1.24-10.38-9.13-19.64-23.29-19.64z" fill="#e0c37e"/><path d="m202.5 210.45c-14.43 0-26.13 11.7-26.13 26.13 0 9.08 10.35 17.09 18.03 21.77.61.37 1.25.7 1.9.99 2.55 1.11 4.18 3.65 4.18 6.43v25.67h4.06v-25.67c0-2.78 1.63-5.32 4.18-6.43.65-.28 1.28-.61 1.9-.99 7.67-4.68 18.03-12.68 18.03-21.77-.01-14.43-11.71-26.13-26.15-26.13z" fill="#df8c97"/><path d="m202.5 218.54c-11.55 0-20.91 9.36-20.91 20.91 0 7.27 8.28 13.67 14.42 17.42.49.3 1 .56 1.52.79 2.04.89 4.64 2.92 4.64 5.14v28.64h.65v-28.64c0-2.22 2.6-4.26 4.64-5.14.52-.23 1.03-.49 1.52-.79 6.14-3.75 14.42-10.15 14.42-17.42.01-11.55-9.35-20.91-20.9-20.91z" fill="#e9cdd0"/><path d="m181.6 239.09v.37c0 7.27 8.28 13.67 14.42 17.42.49.3 1 .56 1.52.79 2.04.89 4.64 2.92 4.64 5.14v28.64h.65v-28.65c0-2.22 2.6-4.26 4.64-5.14.52-.23 1.03-.49 1.52-.79 6.14-3.75 14.42-10.15 14.42-17.42v-.36z" fill="#e9c786"/></g><g fill="#e0c37e" fill-rule="nonzero"><path d="m179.45 62.48c0 4.36-6.61-.03-14.76-.03s-14.76 4.39-14.76.03 6.61-7.89 14.76-7.89 14.76 3.53 14.76 7.89z"/><path d="m255.09 62.48c0 4.36-6.61-.03-14.76-.03s-14.76 4.39-14.76.03 6.61-7.89 14.76-7.89 14.76 3.53 14.76 7.89z"/></g><g fill-rule="nonzero"><path d="m192.01 148.6c.09-.12.12-.17 0 0z" fill="#6f789b"/><path d="m257.53 192c-.32-2.63-.83-5.18-1.79-7.66-.95-2.44-2.1-4.79-3.54-6.98-2.78-4.23-6.29-7.95-10.24-11.1-8.78-7.02-19.17-11.24-29.02-16.47-2.71-1.44-5.4-2.95-7.95-4.67-.3-.2-.6-.41-.89-.62-.12-.08-.24-.17-.35-.26-.12-.09-.23-.17-.35-.26.15.12.31.24.46.36-.29-.13-.59-.48-.83-.69-.27-.24-.54-.48-.79-.73-.13-.13-.27-.26-.4-.4-.02-2.3.03-5.08.26-7.92.62-7.73 1.65-15.43 2.51-23.13 1.77-15.87 3.13-31.92 1.39-47.85-.97-8.94-2.77-17.79-5.97-26.21-.42-1.11-.99-2.04-2.04-2.66-.95-.56-2.36-.79-3.43-.45-2.12.68-3.99 3.14-3.11 5.47 2.62 6.9 4.33 14.11 5.36 21.42 1.98 15.47.95 31.11-.7 46.57-.82 7.72-1.83 15.41-2.58 23.13-.68 7.02-1.1 8.93-.57 15.98.01.09.02.18.03.27-.22.38-.46.74-.71 1.11-.19.27-.39.53-.58.8.15-.22.25-.36.31-.45-.1.14-.27.37-.37.49-.45.54-.92 1.05-1.4 1.55-.97 1-2.01 1.93-3.09 2.81-.21.17-.43.34-.65.52-.06.05-.13.1-.19.14-.61.46-1.23.91-1.86 1.35-4.93 3.46-10.13 6.47-14.75 10.36-9.69 8.16-16.82 19.33-20.58 31.4-2.1 6.73-3.12 13.87-2.94 20.92.05 2.08 1.79 4.08 3.98 3.98 2.11-.09 4.04-1.75 3.98-3.98-.08-3.04.08-6.08.45-9.1.76-5.19 2.16-10.27 4.16-15.12 1.69-3.9 3.75-7.63 6.17-11.12.31-.45.63-.9.95-1.34.16-.22.33-.44.49-.66.06-.07.11-.15.17-.22.67-.84 1.35-1.68 2.05-2.49 1.46-1.68 3.01-3.28 4.65-4.79.81-.74 1.63-1.47 2.48-2.16.38-.32.77-.62 1.16-.93.05-.03.09-.07.14-.1.25-.19.49-.37.74-.55 1.68-1.22 3.42-2.37 5.16-3.5 3.7-2.42 7.43-4.83 10.79-7.73 2.09-1.81 3.96-3.85 5.47-6.13.41-.14.81-.33 1.16-.57 1.36.94 2.77 1.8 4.15 2.61 4.33 2.55 8.85 4.74 13.35 6.96 4.46 2.2 8.92 4.43 13.16 7.05.95.59 1.9 1.2 2.82 1.84.42.29.84.59 1.26.89.22.16.44.32.66.49.07.05.13.1.2.15 1.64 1.3 3.21 2.67 4.69 4.15.82.82 1.61 1.68 2.37 2.56.39.46.81.91 1.15 1.4-.09-.12-.58-.77-.24-.31.1.14.2.27.3.41.16.22.32.44.47.66 1.27 1.8 2.36 3.72 3.25 5.73.77 1.94 1.32 3.95 1.64 6.01.01.07.02.14.03.21.01.08.02.16.04.24-.01-.05-.01-.11-.02-.16.15.88.41 1.64 1.1 2.32.69.69 1.82 1.21 2.82 1.17 1.03-.05 2.1-.38 2.82-1.17.68-.75 1.3-1.82 1.18-2.84z" fill="#7caad6"/></g><g><ellipse cx="195.21" cy="37.4" fill="#9096aa" rx="4.32" ry="3.28" transform="matrix(.9454 -.326 .326 .9454 -1.5285 65.6745)"/><path d="m198.07 36.41c.41 1.2-.53 2.61-2.11 3.15s-3.19.02-3.61-1.18c-.41-1.2.53-2.61 2.11-3.15s3.19-.01 3.61 1.18z" fill="#6f789b" fill-rule="nonzero"/></g><path d="m198.54 110.79c-.1.05-.2.1-.3.15.12-.05.24-.1.35-.15-.31.13-.62.2-.95.25.13-.02.26-.04.39-.05-1.13.14-2.32-.04-3.45-.19.13.02.26.04.39.05-.83-.11-1.65-.28-2.43-.6.12.05.24.1.35.15-.45-.19-.85-.43-1.24-.71-.09-.06-.15-.17.09.07-.04-.04-.09-.07-.14-.11-.09-.07-.18-.15-.27-.22-.19-.16-.38-.31-.58-.47-.85-.67-1.73-1.17-2.73-1.57-1.76-.71-3.69-.85-5.56-.59-1.06.15-2.07.49-3.03.96-.7.34-.94 1.39-.53 2.03.46.72 1.28.9 2.03.53.14-.07.27-.13.41-.19-.12.05-.24.1-.35.15.72-.3 1.48-.51 2.26-.62-.13.02-.26.04-.39.05.83-.11 1.67-.11 2.5 0-.13-.02-.26-.04-.39-.05.83.11 1.64.33 2.41.65-.12-.05-.24-.1-.35-.15.35.15.69.32 1.02.51l.48.3c.07.05.15.1.22.15.03.03.1.06.12.09-.03-.04-.25-.2-.09-.07.76.61 1.48 1.28 2.37 1.7 1.72.82 3.66 1.02 5.55 1.14 1.15.07 2.31-.06 3.34-.62.68-.37.96-1.37.53-2.03-.45-.7-1.3-.93-2.03-.54z" fill="#7caad6" fill-rule="nonzero"/><path d="m191.99 110.33c-2.98.64-4.85 3.25-7.09 5.07-.06.05-.34.27-.11.09s-.07.05-.12.09c-.15.11-.31.22-.47.32-.34.21-.69.4-1.05.56.12-.05.24-.1.35-.15-.64.27-1.31.43-2 .53.13-.02.26-.04.39-.05-1.1.14-2.21.1-3.31-.03-.35-.04-.81.19-1.05.43-.26.26-.45.68-.43 1.05.02.38.14.78.43 1.05.31.28.64.39 1.05.43 2.4.27 4.93.1 7.03-1.21 1.63-1.01 2.9-2.46 4.33-3.71.19-.16.38-.32.57-.48.04-.03.09-.07.13-.1.09-.07.03-.03-.17.13.04-.03.07-.05.11-.08.09-.07.18-.13.27-.19.41-.28.84-.53 1.3-.73-.12.05-.24.1-.35.15.32-.13.65-.24.99-.31.76-.16 1.27-1.09 1.04-1.82-.27-.81-1.02-1.21-1.84-1.04z" fill="#7caad6" fill-rule="nonzero"/><path d="m192.19 110.38c-.38-2.23-1.23-4.4-2.45-6.31-.6-.95-1.29-1.92-2.17-2.62-.57-.46-1.15-.78-1.84-1.04-.49-.19-1.01-.3-1.53-.38-1.41-.22-2.83-.35-4.24-.51-.35-.04-.81.19-1.05.43-.26.26-.45.68-.43 1.05.02.38.14.78.43 1.05.31.28.64.39 1.05.43 1.17.13 2.35.25 3.52.41-.13-.02-.26-.04-.39-.05.69.09 1.37.23 2.02.49-.12-.05-.24-.1-.35-.15.25.11.5.23.73.38.05.03.17.09.2.14-.02-.03-.26-.21-.11-.08.1.09.21.18.3.27.2.19.38.39.55.61.05.06.11.13.15.19-.02-.04-.2-.26-.08-.1.09.13.19.25.28.38.67.95 1.23 1.96 1.68 3.03-.05-.12-.1-.24-.15-.35.47 1.14.82 2.32 1.03 3.53.06.35.39.72.68.89.32.19.79.26 1.14.15.36-.12.7-.34.89-.68.19-.39.21-.75.14-1.16z" fill="#7caad6" fill-rule="nonzero"/><path d="m201.19 106.14c2.5 1.17 5.02 2.33 7.61 3.29s5.25 1.65 8 1.94c1.57.17 3.15.17 4.71.37-.13-.02-.26-.04-.39-.05 1.37.19 2.7.55 3.97 1.08-.12-.05-.24-.1-.35-.15.8.34 1.57.75 2.3 1.22.65.42 1.66.16 2.03-.53.39-.74.17-1.58-.53-2.03-1.36-.87-2.86-1.55-4.42-1.99-1.66-.48-3.39-.62-5.1-.72-.95-.05-1.9-.11-2.84-.24.13.02.26.04.39.05-3.25-.44-6.37-1.51-9.39-2.78.12.05.24.1.35.15-1.63-.69-3.23-1.43-4.84-2.18-.37-.17-.74-.26-1.14-.15-.34.09-.72.36-.89.68-.34.67-.22 1.69.53 2.04z" fill="#7caad6" fill-rule="nonzero"/><path d="m216.06 109.28c-.04-.15-.07-.3-.09-.46.02.13.04.26.05.39-.05-.38-.05-.76.01-1.14-.02.13-.04.26-.05.39.07-.44.19-.86.36-1.27-.05.12-.1.24-.15.35.21-.49.48-.95.79-1.38.06-.08.25-.29-.04.04.03-.04.07-.08.1-.13.08-.1.17-.2.26-.3.19-.21.39-.41.59-.6s.41-.36.62-.53c.14-.11-.31.23-.07.06.06-.04.11-.08.17-.12.11-.08.22-.16.34-.23.47-.31.97-.57 1.48-.79-.12.05-.24.1-.35.15.64-.26 1.3-.45 1.98-.54-.13.02-.26.04-.39.05.64-.08 1.28-.08 1.92 0-.13-.02-.26-.04-.39-.05.55.08 1.09.22 1.6.44-.12-.05-.24-.1-.35-.15.2.09.4.18.6.29.68.37 1.65.19 2.03-.53.37-.7.19-1.63-.53-2.03-1.16-.64-2.46-.97-3.78-1-1.34-.03-2.63.3-3.86.82-1.1.47-2.09 1.16-2.98 1.96-.87.78-1.65 1.73-2.16 2.79-.65 1.35-.93 2.82-.55 4.3.19.75 1.07 1.28 1.82 1.04.76-.25 1.23-1.02 1.02-1.82z" fill="#7caad6" fill-rule="nonzero"/><path d="m213.41 110.06c.43 1.99 1.57 3.75 2.93 5.23.62.68 1.31 1.3 2.03 1.87.53.42 1.04.79 1.66 1.06.54.23 1.08.38 1.65.52 1.24.31 2.47.62 3.71.92.75.18 1.64-.24 1.82-1.04.17-.76-.23-1.63-1.04-1.82-.89-.22-1.78-.44-2.67-.66-.84-.21-1.72-.37-2.52-.71.12.05.24.1.35.15-.33-.14-.62-.33-.91-.54-.25-.17.24.19.02.02-.07-.05-.13-.11-.2-.16-.12-.1-.24-.2-.36-.31-.49-.42-.97-.87-1.41-1.35-.22-.23-.43-.47-.63-.72-.03-.04-.22-.28-.06-.07s-.02-.03-.05-.07c-.09-.13-.19-.26-.27-.39-.36-.53-.67-1.09-.92-1.68.05.12.1.24.15.35-.19-.46-.34-.93-.44-1.42-.16-.76-1.09-1.27-1.82-1.04-.78.29-1.19 1.04-1.02 1.86z" fill="#7caad6" fill-rule="nonzero"/></g></svg>