<?xml version="1.0" encoding="UTF-8" standalone="no"?>
<!DOCTYPE svg PUBLIC "-//W3C//DTD SVG 1.1//EN" "http://www.w3.org/Graphics/SVG/1.1/DTD/svg11.dtd">
<svg width="100%" height="100%" viewBox="0 0 386 348" version="1.1" xmlns="http://www.w3.org/2000/svg" xmlns:xlink="http://www.w3.org/1999/xlink" xml:space="preserve" xmlns:serif="http://www.serif.com/" style="fill-rule:evenodd;clip-rule:evenodd;stroke-miterlimit:10;">
    <g transform="matrix(1.19597,0,0,1.19597,-39.6846,-11.7708)">
        <g>
            <path d="M199.95,155.02C200.08,154.89 200.08,154.84 199.6,155.31C199.61,155.31 199.61,155.3 199.62,155.3C199.72,155.2 199.83,155.11 199.95,155.02Z" style="fill:none;fill-rule:nonzero;stroke:rgb(37,39,35);stroke-width:3.93px;"/>
            <path d="M190.17,94.68C190.12,94.62 190.1,94.6 190.17,94.68Z" style="fill:none;fill-rule:nonzero;stroke:rgb(37,39,35);stroke-width:3.93px;"/>
            <path d="M225.49,124.36C222.57,127.94 220.81,132.5 220.81,137.47C220.81,144.94 224.76,151.47 230.68,155.13C232.97,157.14 236.17,158.25 240.63,158.25C240.82,158.25 241.01,158.23 241.2,158.23C241.33,158.23 241.46,158.25 241.59,158.25C242.21,158.25 242.83,158.22 243.44,158.17C244.98,158.03 246.47,157.71 247.9,157.26C264.43,152.67 276.87,132.73 276.87,108.84C276.87,88.47 267.83,70.98 254.92,63.42C255.02,63.16 255.09,62.87 255.09,62.49C255.09,58.13 248.48,54.6 240.33,54.6C232.18,54.6 225.57,58.13 225.57,62.49C225.57,63.13 225.73,63.56 225.99,63.87C221.15,67.67 218.02,73.57 218.02,80.21C218.02,86.16 220.53,91.53 224.54,95.31C224.45,95.56 224.38,95.82 224.3,96.07C224.25,96.15 224.21,96.23 224.16,96.31C223.94,96.38 223.72,96.45 223.49,96.56C223.09,96.74 222.72,96.98 222.36,97.24C221.58,97.81 220.84,98.43 220.17,99.13C219.52,99.8 218.92,100.53 218.39,101.31C217.5,101.76 216.67,102.32 215.92,102.99C215.43,103.43 214.99,103.93 214.59,104.46C214.36,104.31 214.12,104.17 213.9,104C213.85,103.96 213.8,103.93 213.75,103.89C213.74,103.88 213.72,103.87 213.71,103.86C213.56,103.74 213.42,103.63 213.28,103.51C213.02,103.29 212.76,103.07 212.51,102.84C212.23,102.58 211.97,102.3 211.71,102.03C211.63,101.32 211.55,100.62 211.47,99.91C210.58,91.86 209.81,83.78 209.5,75.68C209.18,67.24 209.39,58.78 210.46,50.4C211.49,43.1 213.2,35.9 215.82,29C215.9,28.8 215.92,28.57 215.95,28.35C216,28.25 216.06,28.16 216.1,28.05C216.69,26.34 215.34,24.32 213.08,23.55C210.82,22.77 208.52,23.53 207.93,25.24C207.92,25.28 207.92,25.32 207.91,25.35C207.65,25.74 207.43,26.16 207.25,26.64C205.04,32.46 203.48,38.49 202.41,44.62C201.72,42.19 200.94,39.78 200.04,37.41C199.83,36.85 199.58,36.34 199.25,35.89C198.59,34.27 196.36,33.56 194.16,34.32C191.9,35.1 190.55,37.11 191.14,38.82C191.19,38.96 191.26,39.08 191.33,39.21C191.37,39.4 191.39,39.59 191.46,39.78C194.08,46.68 195.79,53.89 196.82,61.2C198.41,73.58 198.05,86.07 197.01,98.48C196.35,98.56 195.69,98.64 195.03,98.69C194.76,97 194.16,95.36 193.24,93.92C191.93,91.87 190.06,90.32 187.95,89.14C187.15,88.69 186.33,88.3 185.5,87.91C186.45,85.53 187,82.94 187,80.22C187,73.58 183.88,67.69 179.03,63.88C179.3,63.58 179.45,63.14 179.45,62.5C179.45,58.14 172.84,54.61 164.69,54.61C156.54,54.61 149.93,58.14 149.93,62.5C149.93,62.88 150,63.17 150.1,63.43C137.19,70.99 128.15,88.48 128.15,108.85C128.15,132.75 140.59,152.68 157.12,157.27C158.55,157.73 160.03,158.05 161.58,158.18C162.19,158.23 162.81,158.26 163.43,158.26C163.56,158.26 163.69,158.24 163.82,158.24C164.01,158.24 164.2,158.26 164.39,158.26C168.85,158.26 172.05,157.15 174.34,155.14C180.26,151.48 184.21,144.95 184.21,137.48C184.21,132.5 182.45,127.94 179.53,124.37C179.52,124.08 179.51,123.79 179.5,123.5C180.34,122.32 181.08,121.07 181.71,119.76C183.08,119.62 184.43,119.27 185.63,118.53C187.26,117.52 188.53,116.07 189.96,114.82C190.15,114.66 190.33,114.5 190.53,114.34C190.91,115.09 191.24,115.87 191.52,116.68C194.52,125.61 191.2,134.88 188.07,143.28C186.45,147.63 184.82,151.99 183.2,156.34C178.66,159.44 173.96,162.27 169.74,165.83C163.98,170.67 159.16,176.6 155.38,183.13C154.29,184.33 153.24,185.58 152.27,186.91C150.73,189.02 149.42,191.29 148.39,193.69C147.09,196.73 146.29,199.75 145.9,203.04C145.79,203.98 146.43,205.22 147.07,205.86C147.08,205.87 147.1,205.88 147.11,205.89C146.43,209.94 146.12,214.05 146.23,218.14C146.28,220.22 148.02,222.22 150.21,222.12C152.32,222.03 154.25,220.37 154.19,218.14C154.11,215.1 154.27,212.06 154.64,209.04C155.4,203.85 156.8,198.77 158.8,193.92C159.72,191.79 160.77,189.71 161.91,187.69C163.31,186.21 164.8,184.82 166.37,183.52C166.73,183.22 167.1,182.93 167.46,182.64C167.47,182.63 167.49,182.62 167.5,182.61C167.75,182.42 167.99,182.24 168.24,182.06C169.09,181.44 169.97,180.83 170.85,180.25C172.28,179.31 173.75,178.45 175.23,177.6C174.09,180.6 172.97,183.61 171.95,186.65C170.39,191.28 169.14,196.09 169.11,201.01C169.06,208.3 172.37,216.46 179.24,219.82C179.12,220.88 179.1,221.96 179.23,223.05C179.27,223.35 179.44,223.63 179.69,223.9C177.59,227.66 176.39,231.99 176.39,236.6C176.39,245.68 186.74,253.69 194.42,258.37C195.03,258.74 195.67,259.07 196.32,259.36C198.87,260.47 200.5,263.01 200.5,265.79L200.5,266.51C200.01,266.05 199.38,265.77 198.6,265.82L193.06,266.15C192.41,266.19 191.79,266.29 191.22,266.44C187.5,267.45 184.06,267.94 181.02,268.1C177.31,268.29 174.12,268.25 171.37,268.03C171.18,268.01 170.96,268.07 170.75,268.16C170.51,268.27 170.29,268.42 170.15,268.57C170.13,268.59 170.12,268.61 170.1,268.63C170,268.74 169.91,268.87 169.84,269.02C169.76,269.18 169.71,269.34 169.68,269.51C169.67,269.59 169.66,269.67 169.67,269.75C169.68,269.86 169.69,269.98 169.71,270.09C169.75,270.28 169.82,270.47 169.92,270.64C169.95,270.69 169.98,270.74 170.02,270.78C170.06,270.83 170.1,270.87 170.15,270.92C170.5,271.25 170.88,271.37 171.37,271.46C174.62,272.01 178.51,272.36 183.16,272.43C185.84,272.47 188.81,272.8 192.09,273.34C192.4,273.39 192.72,273.43 193.05,273.45L198.59,273.78C199.02,273.81 199.41,273.74 199.75,273.59C200.03,273.47 200.28,273.31 200.5,273.1L200.5,291.48L204.56,291.48L204.56,273.1C204.78,273.31 205.03,273.47 205.31,273.59C205.65,273.73 206.04,273.8 206.47,273.78L212.01,273.45C212.34,273.43 212.66,273.39 212.97,273.34C216.25,272.81 219.22,272.47 221.9,272.43C226.56,272.36 230.44,272.01 233.69,271.46C234.18,271.38 234.56,271.26 234.91,270.92C234.96,270.88 235,270.83 235.04,270.78C235.08,270.73 235.11,270.69 235.14,270.64C235.24,270.47 235.31,270.29 235.35,270.09C235.37,269.98 235.39,269.86 235.39,269.75C235.39,269.67 235.39,269.59 235.38,269.51C235.35,269.35 235.3,269.18 235.22,269.02C235.15,268.88 235.06,268.75 234.96,268.63C234.94,268.61 234.93,268.59 234.91,268.57C234.77,268.42 234.55,268.27 234.31,268.16C234.1,268.07 233.88,268.01 233.69,268.03C230.95,268.26 227.76,268.29 224.04,268.1C221,267.94 217.56,267.45 213.84,266.44C213.28,266.29 212.66,266.18 212,266.15L206.46,265.82C205.67,265.77 205.05,266.05 204.56,266.51L204.56,265.79C204.56,263.01 206.19,260.47 208.74,259.36C209.39,259.08 210.02,258.75 210.64,258.37C218.31,253.69 228.67,245.69 228.67,236.6C228.67,231.99 227.46,227.66 225.37,223.9C225.62,223.63 225.79,223.35 225.83,223.05C225.96,221.96 225.93,220.88 225.82,219.82C232.68,216.46 235.99,208.3 235.95,201.01C235.92,196.1 234.67,191.28 233.11,186.65C231.62,182.23 229.93,177.88 228.29,173.52C228.51,173.67 228.74,173.81 228.96,173.97C229.38,174.26 229.8,174.56 230.22,174.86C230.41,175 230.61,175.14 230.8,175.29C230.91,175.37 231.02,175.45 231.13,175.54C231.28,175.66 231.34,175.69 231.35,175.69C231.42,175.76 231.49,175.82 231.54,175.86C231.75,176.03 231.97,176.2 232.18,176.38C232.63,176.75 233.07,177.13 233.51,177.51C235.19,178.98 236.78,180.53 238.28,182.17C239.02,182.98 239.74,183.8 240.44,184.65C240.78,185.06 241.12,185.49 241.45,185.91C241.46,185.92 241.47,185.93 241.47,185.94C241.66,186.19 241.84,186.43 242.02,186.68C244.88,190.58 247.29,194.81 249.22,199.25C251.21,204.09 252.62,209.16 253.37,214.35C253.75,217.37 253.9,220.41 253.82,223.45C253.77,225.53 255.69,227.53 257.8,227.43C260,227.33 261.72,225.68 261.78,223.45C262.03,213.75 259.98,204.01 256.05,195.12C256.16,195.03 256.29,194.94 256.39,194.83C257.05,194.11 257.68,193.04 257.56,192.01C257.24,189.38 256.73,186.83 255.77,184.35C254.82,181.91 253.67,179.56 252.23,177.37C249.45,173.14 245.94,169.42 241.99,166.27C235.55,161.13 228.26,157.49 220.94,153.85C219.62,150.32 218.31,146.8 216.99,143.27C216.12,140.94 215.25,138.55 214.49,136.12C214.66,132.05 214.42,127.71 213.99,122.67C213.83,120.78 213.64,118.89 213.44,117C213.48,116.89 213.5,116.78 213.54,116.66C213.91,115.55 214.4,114.49 214.97,113.49C215.39,114.12 215.85,114.73 216.37,115.29C216.99,115.97 217.68,116.59 218.4,117.16C218.93,117.58 219.44,117.95 220.06,118.22C220.6,118.45 221.14,118.6 221.71,118.74C222.14,118.85 222.58,118.95 223.01,119.06C223.71,120.63 224.56,122.11 225.55,123.48C225.51,123.78 225.5,124.07 225.49,124.36ZM219.45,105.5C219.74,104.85 220.05,104.21 220.43,103.6C220.76,103.48 221.09,103.38 221.43,103.31C221.3,103.87 221.2,104.45 221.11,105.02C220.72,105.38 220.29,105.7 219.83,105.99C219.66,105.96 219.5,105.96 219.34,105.98C219.33,105.98 219.31,105.97 219.3,105.97C219.35,105.81 219.39,105.65 219.45,105.5ZM216.03,108.26C216.12,108.28 216.2,108.32 216.29,108.34C216.2,108.33 216.11,108.31 216.03,108.29L216.03,108.26ZM213.27,107.1C213.22,107.29 213.17,107.48 213.14,107.68C212.87,107.61 212.6,107.54 212.34,107.46C212.3,107.11 212.26,106.75 212.22,106.4C212.55,106.65 212.91,106.88 213.27,107.1ZM199.31,155.52C197.11,157.1 194.74,158.47 192.37,159.78C191.88,160.05 191.39,160.3 190.89,160.57C191.85,159.84 192.8,159.09 193.72,158.3C195.81,156.49 197.68,154.45 199.19,152.17C199.6,152.03 200,151.84 200.35,151.6C200.95,152.02 201.57,152.41 202.18,152.8C201.97,153.03 202.03,153.01 202.16,152.88C201.94,153.14 201.71,153.39 201.47,153.63C201.07,154.04 200.65,154.43 200.21,154.81C200.12,154.88 200.03,154.95 199.94,155.02C199.89,155.07 199.81,155.14 199.74,155.2C199.7,155.23 199.65,155.26 199.61,155.3C199.59,155.32 199.56,155.34 199.54,155.36C199.56,155.34 199.57,155.33 199.59,155.31C199.5,155.38 199.4,155.45 199.31,155.52ZM204.1,144.5C203.98,144.42 203.86,144.33 203.75,144.24C203.63,144.15 203.52,144.07 203.4,143.98C203.55,144.1 203.71,144.22 203.86,144.34C203.57,144.21 203.27,143.86 203.03,143.65C202.76,143.41 202.49,143.17 202.24,142.92C202.11,142.79 201.97,142.66 201.84,142.52C201.82,140.22 201.87,137.44 202.1,134.6C202.64,127.87 203.48,121.16 204.26,114.46C204.5,116.73 204.74,119 204.95,121.28C205.67,129.06 206.02,136.93 205.07,144.71C205.05,144.86 205.02,144.99 205,145.14C204.69,144.92 204.39,144.71 204.1,144.5ZM196.11,107.74C196,108.81 195.87,109.87 195.75,110.94C195.49,110.91 195.22,110.88 194.96,110.85C194.21,110.75 193.47,110.58 192.76,110.32C192.52,110.21 192.3,110.07 192.08,109.93C191.93,109.18 191.72,108.44 191.47,107.71C192.09,107.08 192.61,106.34 192.99,105.55C193.45,104.61 193.8,103.62 194.19,102.65C194.34,102.31 194.52,101.98 194.69,101.65C195.37,101.6 196.05,101.52 196.72,101.44C196.55,103.55 196.34,105.65 196.11,107.74ZM186.63,106.9C186.27,106.66 185.9,106.43 185.53,106.22C184.93,105.88 184.39,105.48 183.9,105.02C183.79,104.3 183.65,103.6 183.48,102.91C183.97,102.99 184.46,103.1 184.93,103.28C185.12,103.37 185.3,103.45 185.47,103.57C185.49,103.58 185.52,103.6 185.55,103.62C185.56,103.62 185.55,103.62 185.56,103.63C185.66,103.72 185.77,103.81 185.86,103.9C186.06,104.09 186.24,104.29 186.41,104.51C186.44,104.55 186.47,104.59 186.5,104.63C186.59,104.75 186.67,104.86 186.75,104.98C187.14,105.53 187.48,106.11 187.8,106.71C187.66,106.78 187.53,106.86 187.39,106.92C187.26,106.97 187.12,107.02 186.98,107.07C186.89,107.05 186.81,107.01 186.72,106.99C186.7,106.95 186.67,106.92 186.63,106.9ZM190.73,103.42C190.55,103.83 190.37,104.24 190.15,104.62C190.14,104.64 190.12,104.67 190.11,104.69C189.99,104.48 189.88,104.27 189.75,104.06C189.23,103.25 188.63,102.45 187.92,101.78C188.2,101.79 188.49,101.82 188.77,101.82C189.64,101.84 190.5,101.83 191.37,101.81C191.15,102.35 190.94,102.89 190.73,103.42ZM187.25,92.15C187.58,92.36 187.91,92.58 188.23,92.81C188.29,92.85 188.35,92.9 188.41,92.95C188.43,92.96 188.45,92.98 188.46,92.99C188.61,93.11 188.76,93.24 188.91,93.37C189.2,93.63 189.47,93.89 189.74,94.18C189.87,94.32 189.99,94.46 190.11,94.6C190.16,94.66 190.21,94.73 190.26,94.79C190.21,94.73 190.19,94.71 190.17,94.69C190.21,94.73 190.25,94.78 190.27,94.81C190.74,95.45 191.12,96.14 191.45,96.86C191.71,97.51 191.9,98.18 192.04,98.86C189.97,98.93 187.89,98.89 185.82,98.74C184.75,98.66 183.69,98.54 182.62,98.41C182.37,98.38 182.13,98.33 181.88,98.29C181.53,97.53 181.14,96.8 180.71,96.08C180.64,95.82 180.57,95.56 180.47,95.32C181.94,93.93 183.21,92.34 184.22,90.58C185.26,91.04 186.28,91.55 187.25,92.15ZM184.9,115.4C184.88,115.42 184.84,115.45 184.79,115.49C184.74,115.53 184.68,115.57 184.66,115.58C184.51,115.69 184.35,115.8 184.19,115.9C183.9,116.08 183.6,116.23 183.3,116.37C183.2,116.41 183.1,116.44 182.99,116.47C183.54,114.74 183.92,112.94 184.08,111.08C185.05,110.75 186.04,110.48 187.02,110.17C187.08,110.19 187.15,110.21 187.21,110.23C187.46,110.34 187.71,110.46 187.95,110.6C188.3,110.98 188.63,111.37 188.94,111.79C187.51,112.88 186.27,114.29 184.9,115.4ZM192.21,113.37C192.27,113.35 192.32,113.33 192.38,113.32C193.36,113.62 194.38,113.79 195.41,113.88C195.11,116.52 194.82,119.15 194.52,121.79C194.38,120.14 194.09,118.48 193.6,116.84C193.25,115.63 192.78,114.47 192.21,113.37ZM189.82,144.09C191.06,140.75 192.32,137.3 193.24,133.79C192.74,138.61 192.51,140.9 192.97,146.87C192.98,146.96 192.99,147.05 193,147.14C192.78,147.52 192.54,147.88 192.29,148.25C192.1,148.52 191.9,148.78 191.71,149.05C191.86,148.83 191.96,148.69 192.03,148.6C191.93,148.74 191.76,148.97 191.66,149.09C191.21,149.63 190.74,150.14 190.26,150.64C189.29,151.64 188.25,152.57 187.17,153.45C186.96,153.62 186.74,153.79 186.52,153.97C186.46,154.02 186.39,154.06 186.33,154.11C186.23,154.19 186.12,154.26 186.01,154.34C187.28,150.92 188.55,147.5 189.82,144.09ZM226.13,173.44C227.91,178.2 229.78,182.94 231.38,187.76C232.91,192.4 234.1,197.23 233.93,202.15C233.72,208.17 230.8,214.79 225.41,217.76C223.29,209.71 214.2,203.38 202.51,203.38C190.82,203.38 181.72,209.71 179.61,217.76C174.22,214.78 171.3,208.17 171.09,202.15C170.92,197.23 172.11,192.4 173.64,187.76C174.94,183.84 176.42,179.97 177.88,176.1C184.26,172.67 190.93,169.75 197.24,166.19C200.71,164.23 204.46,162.07 207.28,159.11C207.46,159.12 207.61,159.01 207.74,158.78C207.82,158.63 207.91,158.48 207.99,158.33C208.24,158.03 208.49,157.73 208.72,157.42C209.95,159.29 211.42,161 213.06,162.55C216.29,165.59 220.02,168.07 223.73,170.49C224.31,170.87 224.89,171.27 225.47,171.65C225.69,172.25 225.91,172.84 226.13,173.44ZM241.18,185.6C241.22,185.62 241.3,185.73 241.36,185.82C241.27,185.7 241.19,185.6 241.18,185.6ZM215.18,144.09C216.23,146.91 217.29,149.74 218.34,152.56C216.84,151.81 215.34,151.05 213.85,150.27C213.72,149.92 213.59,149.56 213.48,149.2C213.3,148.62 212.98,148.08 212.57,147.63C213.25,145.38 213.71,143.17 214.02,140.93C214.4,141.99 214.79,143.04 215.18,144.09ZM212.97,113.02C212.88,112.23 212.79,111.44 212.7,110.65C213.02,110.73 213.33,110.79 213.65,110.86C213.72,111.08 213.77,111.31 213.86,111.52C213.54,112 213.25,112.5 212.97,113.02ZM221.22,115.51C220.95,115.38 220.7,115.23 220.45,115.06C220.39,115.01 220.33,114.96 220.27,114.91C220.15,114.81 220.03,114.71 219.91,114.6C219.42,114.18 218.94,113.73 218.5,113.25C218.28,113.02 218.07,112.78 217.87,112.53C217.85,112.51 217.81,112.46 217.78,112.42C217.77,112.41 217.76,112.4 217.76,112.39C217.67,112.26 217.57,112.13 217.49,112C217.36,111.81 217.27,111.59 217.16,111.39C217.58,111.43 217.99,111.46 218.41,111.48C218.63,111.86 218.89,112.23 219.17,112.57C219.76,113.3 220.49,113.91 221.24,114.47C221.33,114.54 221.42,114.59 221.51,114.65C221.59,114.99 221.69,115.33 221.78,115.67C221.59,115.63 221.4,115.58 221.22,115.51Z" style="fill:none;fill-rule:nonzero;stroke:rgb(37,39,35);stroke-width:3.93px;"/>
        </g>
        <g>
            <g>
                <g>
                    <path d="M216.22,154.29C216.2,154.27 216.18,154.24 216.15,154.2C216.17,154.22 216.18,154.24 216.19,154.26C216.2,154.27 216.21,154.28 216.22,154.29Z" style="fill:rgb(191,142,137);fill-rule:nonzero;"/>
                    <path d="M251.9,187.17C248.63,181.81 244.6,176.83 239.95,172.61C235.39,168.47 230.18,165.28 225.09,161.85C223.84,161.01 222.62,160.14 221.41,159.24C221.28,159.14 221.15,159.04 221.02,158.93C220.7,158.67 220.39,158.42 220.08,158.15C219.51,157.67 218.96,157.17 218.43,156.66C217.9,156.15 217.39,155.63 216.9,155.08C216.67,154.82 216.44,154.55 216.22,154.28C216.37,154.46 216.3,154.39 216.2,154.25C216.16,154.2 216.12,154.16 216.08,154.11C216,154.02 215.93,153.92 215.85,153.83C215.98,153.99 216.08,154.11 216.15,154.2C216.07,154.1 215.99,153.99 215.93,153.92C215.15,152.84 214.49,151.7 213.93,150.5C213.76,150.07 213.61,149.64 213.48,149.2C213.3,148.62 212.98,148.08 212.57,147.63C214.93,139.84 214.81,132.62 213.96,122.67C213.3,115.06 212.3,107.49 211.46,99.9C210.57,91.85 209.8,83.77 209.49,75.67C209.17,67.23 209.38,58.77 210.45,50.39C211.48,43.09 213.19,35.89 215.81,28.99C216.2,27.97 215.89,26.47 215.36,25.56C214.82,24.64 213.76,23.76 212.7,23.52C211.56,23.26 210.28,23.32 209.27,23.97C208.25,24.63 207.66,25.49 207.23,26.63C201.61,41.42 200.11,57.55 200.52,73.27C200.94,89.37 203.46,105.26 204.94,121.27C205.66,129.05 206.01,136.92 205.06,144.7C204.44,148.79 203.41,150.51 203.45,150.36C203.4,150.49 203.39,150.67 203.4,150.9C203.34,150.99 203.29,151.08 203.24,151.17C202.98,151.66 202.7,152.14 202.38,152.6C202.41,152.57 202.43,152.55 202.47,152.52C202.42,152.56 202.38,152.62 202.33,152.68C202.32,152.7 202.31,152.72 202.29,152.73C202.25,152.79 202.2,152.84 202.16,152.89C201.94,153.15 201.71,153.4 201.47,153.64C201.07,154.05 200.65,154.44 200.21,154.82C200.12,154.89 200.03,154.96 199.94,155.03C199.89,155.08 199.81,155.15 199.74,155.21C199.7,155.24 199.65,155.27 199.61,155.31C199.59,155.33 199.56,155.35 199.54,155.37C199.56,155.35 199.57,155.34 199.59,155.32C199.49,155.39 199.4,155.46 199.3,155.53C197.1,157.11 194.73,158.48 192.36,159.79C187.44,162.51 182.33,164.87 177.31,167.42C172.54,169.84 167.82,172.43 163.54,175.65C159.24,178.89 155.42,182.53 152.23,186.89C150.69,189 149.38,191.27 148.35,193.68C147.05,196.72 146.25,199.74 145.86,203.03C145.75,203.97 146.39,205.21 147.03,205.85C147.72,206.54 148.85,207.06 149.85,207.02C150.88,206.97 151.95,206.64 152.67,205.85C153.33,205.13 153.62,204.37 153.78,203.46C153.77,203.54 153.76,203.61 153.75,203.69C154.05,201.46 154.64,199.29 155.47,197.2C156.24,195.47 157.15,193.82 158.2,192.24C158.48,191.82 158.77,191.4 159.07,191C159.18,190.85 159.29,190.71 159.39,190.56C159.49,190.43 159.61,190.28 159.62,190.27C160.26,189.47 160.93,188.7 161.63,187.95C163.11,186.36 164.69,184.89 166.36,183.51C166.72,183.21 167.09,182.92 167.45,182.63C167.46,182.62 167.48,182.61 167.49,182.6C167.74,182.41 167.98,182.23 168.23,182.05C169.08,181.43 169.96,180.82 170.84,180.24C179.2,174.77 188.54,171.09 197.22,166.2C200.69,164.24 204.44,162.08 207.26,159.12C207.44,159.13 207.59,159.02 207.72,158.79C207.8,158.64 207.89,158.49 207.97,158.34C208.22,158.04 208.47,157.74 208.7,157.43C209.93,159.3 211.4,161.01 213.04,162.56C216.27,165.6 220,168.08 223.71,170.5C225.45,171.64 227.2,172.77 228.91,173.95C229.33,174.24 229.75,174.54 230.17,174.84C230.36,174.98 230.56,175.12 230.75,175.27C230.86,175.35 230.97,175.43 231.08,175.52C231.23,175.64 231.29,175.67 231.3,175.67C231.37,175.74 231.44,175.8 231.49,175.84C231.7,176.01 231.92,176.18 232.13,176.36C232.58,176.73 233.02,177.11 233.46,177.49C235.14,178.96 236.73,180.51 238.23,182.15C238.97,182.96 239.69,183.78 240.39,184.63C240.73,185.04 241.07,185.47 241.4,185.89C241.41,185.9 241.42,185.91 241.42,185.92C241.61,186.17 241.79,186.41 241.97,186.66C244.83,190.56 247.24,194.79 249.17,199.23C251.16,204.07 252.57,209.14 253.32,214.33C253.7,217.35 253.85,220.39 253.77,223.43C253.72,225.51 255.64,227.51 257.75,227.41C259.95,227.31 261.67,225.66 261.73,223.43C262.08,210.75 258.49,197.98 251.9,187.17ZM230.89,175.35C230.96,175.38 231.04,175.43 231.11,175.5C231.04,175.44 230.95,175.38 230.89,175.35ZM241.18,185.6C241.22,185.62 241.3,185.73 241.36,185.82C241.27,185.71 241.19,185.6 241.18,185.6Z" style="fill:rgb(194,102,119);fill-rule:nonzero;"/>
                    <path d="M199.95,155.02C200.08,154.89 200.08,154.84 199.6,155.31C199.61,155.31 199.61,155.3 199.62,155.3C199.72,155.2 199.83,155.11 199.95,155.02Z" style="fill:rgb(191,142,137);fill-rule:nonzero;"/>
                    <path d="M202.33,152.67C202.35,152.65 202.36,152.62 202.38,152.6C201.92,153.05 202,153.04 202.16,152.89C202.17,152.88 202.18,152.86 202.19,152.85C202.24,152.79 202.29,152.73 202.33,152.67Z" style="fill:rgb(191,142,137);fill-rule:nonzero;"/>
                    <path d="M203.45,150.36C203.45,150.35 203.46,150.34 203.46,150.33C203.45,150.34 203.45,150.35 203.45,150.36Z" style="fill:rgb(191,142,137);fill-rule:nonzero;"/>
                </g>
                <g>
                    <g transform="matrix(0.326,-0.9454,0.9454,0.326,117.724,218.374)">
                        <ellipse cx="212.01" cy="26.63" rx="3.28" ry="4.32" style="fill:rgb(217,181,180);"/>
                    </g>
                    <path d="M209.15,25.64C208.74,26.84 209.68,28.25 211.26,28.79C212.84,29.33 214.45,28.81 214.87,27.61C215.28,26.41 214.34,25 212.76,24.46C211.17,23.92 209.56,24.45 209.15,25.64Z" style="fill:rgb(191,142,137);fill-rule:nonzero;"/>
                </g>
                <g>
                    <g>
                        <path d="M206.78,30.71C205.67,33.45 204.81,36.3 204.24,39.2C204.16,39.58 204.35,40.02 204.76,40.11C205.13,40.19 205.59,40 205.67,39.59C206.24,36.69 207.1,33.84 208.21,31.1C208.36,30.74 208.05,30.27 207.69,30.19C207.26,30.1 206.93,30.33 206.78,30.71Z" style="fill:white;fill-rule:nonzero;"/>
                    </g>
                    <g>
                        <path d="M203.7,41.87C203.01,45.17 202.49,48.51 202.13,51.87C201.77,55.21 201.56,58.56 201.46,61.91C201.37,65.26 201.39,68.61 201.49,71.96C201.59,75.32 201.78,78.68 202,82.03C202.23,85.4 202.51,88.76 202.79,92.13C202.83,92.54 202.86,92.95 202.9,93.36C202.93,93.76 203.22,94.1 203.64,94.1C204.01,94.1 204.42,93.76 204.38,93.36C204.09,90.01 203.81,86.67 203.57,83.32C203.33,79.98 203.13,76.64 203.01,73.3C202.89,69.95 202.84,66.6 202.9,63.24C202.96,59.92 203.14,56.59 203.45,53.29C203.76,50 204.23,46.73 204.87,43.48C204.95,43.08 205.03,42.67 205.12,42.27C205.2,41.88 205.01,41.47 204.6,41.36C204.24,41.25 203.78,41.47 203.7,41.87Z" style="fill:white;fill-rule:nonzero;"/>
                    </g>
                </g>
                <g>
                    <g>
                        <path d="M207.69,96.06C204.35,97.16 200.92,97.95 197.43,98.42C197.56,98.4 197.69,98.38 197.82,98.37C193.84,98.9 189.81,99.03 185.81,98.73C184.68,98.65 183.55,98.53 182.42,98.38C182.55,98.4 182.68,98.42 182.81,98.43C180.77,98.15 178.74,97.77 176.74,97.27C175.99,97.08 175.1,97.51 174.92,98.31C174.75,99.08 175.15,99.93 175.96,100.13C180.14,101.16 184.45,101.74 188.76,101.84C193.07,101.94 197.4,101.55 201.62,100.72C203.94,100.26 206.23,99.66 208.47,98.92C209.2,98.68 209.76,97.89 209.51,97.1C209.27,96.36 208.48,95.8 207.69,96.06Z" style="fill:rgb(194,102,119);fill-rule:nonzero;"/>
                    </g>
                    <g>
                        <path d="M192.4,99.66C191.63,100.91 191.19,102.33 190.63,103.67C190.68,103.55 190.73,103.43 190.78,103.32C190.59,103.76 190.39,104.2 190.15,104.62C190.03,104.83 189.9,105.03 189.77,105.22C189.76,105.24 189.66,105.37 189.66,105.37C189.65,105.36 189.89,105.08 189.75,105.25C189.67,105.35 189.59,105.44 189.5,105.54C189.34,105.71 189.17,105.87 189,106.02C188.97,106.05 188.76,106.21 188.97,106.05C189.17,105.89 188.98,106.04 188.94,106.07C188.85,106.14 188.75,106.2 188.66,106.26C188.24,106.53 187.79,106.76 187.33,106.95C187.45,106.9 187.57,106.85 187.68,106.8C185.22,107.83 182.41,108.09 180.23,109.73C179.5,110.28 178.88,110.9 178.39,111.68C177.98,112.34 178.23,113.34 178.92,113.71C179.65,114.09 180.51,113.88 180.95,113.18C181,113.1 181.05,113.02 181.11,112.94C181.18,112.84 181.35,112.68 181.05,113.01C181.16,112.89 181.26,112.75 181.38,112.63C181.48,112.53 181.58,112.43 181.69,112.33C181.76,112.27 181.83,112.19 181.91,112.15C181.85,112.2 181.79,112.25 181.72,112.29C181.76,112.26 181.8,112.23 181.84,112.2C182.38,111.81 182.97,111.51 183.57,111.25C183.45,111.3 183.33,111.35 183.22,111.4C184.91,110.69 186.74,110.38 188.44,109.67C189.48,109.24 190.44,108.72 191.28,107.95C192.02,107.28 192.6,106.42 193.03,105.53C193.53,104.5 193.9,103.42 194.34,102.36C194.29,102.48 194.24,102.6 194.19,102.71C194.42,102.17 194.67,101.63 194.98,101.13C195.39,100.47 195.15,99.47 194.45,99.1C193.7,98.75 192.83,98.96 192.4,99.66Z" style="fill:rgb(194,102,119);fill-rule:nonzero;"/>
                    </g>
                    <g>
                        <path d="M195.19,100.57C195.17,98.23 194.49,95.88 193.23,93.9C191.92,91.85 190.05,90.3 187.94,89.12C186.83,88.5 185.67,87.97 184.51,87.44C184.14,87.27 183.78,87.18 183.37,87.29C183.03,87.38 182.65,87.65 182.48,87.97C182.14,88.62 182.26,89.65 183.01,90C184.45,90.66 185.89,91.32 187.24,92.15C187.57,92.36 187.9,92.58 188.22,92.81C188.3,92.87 188.38,92.93 188.46,92.99C188.59,93.09 188.31,92.88 188.33,92.89C188.38,92.92 188.42,92.96 188.46,92.99C188.61,93.11 188.76,93.24 188.91,93.37C189.2,93.63 189.47,93.89 189.74,94.18C189.87,94.32 189.99,94.46 190.11,94.6C190.16,94.66 190.21,94.73 190.26,94.79C189.96,94.44 190.2,94.72 190.27,94.81C190.78,95.5 191.2,96.25 191.54,97.04C191.49,96.92 191.44,96.8 191.39,96.69C191.79,97.63 192.06,98.61 192.19,99.62C192.17,99.49 192.15,99.36 192.14,99.23C192.2,99.68 192.23,100.13 192.23,100.59C192.24,101.37 192.91,102.11 193.71,102.07C194.5,102.02 195.19,101.4 195.19,100.57Z" style="fill:rgb(194,102,119);fill-rule:nonzero;"/>
                    </g>
                </g>
                <g>
                    <g>
                        <path d="M205.51,95.83C205.71,99.36 207.72,102.4 210.24,104.76C211.64,106.07 213.17,107.27 214.98,107.95C215.83,108.27 216.73,108.45 217.62,108.63C218.53,108.81 219.44,109.01 220.35,109.24C222.36,109.76 224.34,110.43 226.26,111.24C226.14,111.19 226.02,111.14 225.91,111.09C226.59,111.38 227.26,111.68 227.92,112C228.28,112.18 228.66,112.26 229.06,112.15C229.4,112.06 229.78,111.79 229.95,111.47C230.3,110.81 230.16,109.8 229.42,109.44C225.96,107.77 222.32,106.55 218.56,105.8C217.52,105.59 216.47,105.39 215.49,104.98C215.61,105.03 215.73,105.08 215.84,105.13C215.15,104.84 214.51,104.45 213.91,104C213.84,103.95 213.77,103.89 213.7,103.84C213.57,103.74 213.84,103.94 213.83,103.94C213.79,103.92 213.76,103.89 213.73,103.86C213.58,103.74 213.44,103.63 213.3,103.51C213.04,103.29 212.78,103.07 212.53,102.84C212.03,102.38 211.56,101.91 211.11,101.4C211,101.28 210.9,101.16 210.8,101.04C210.7,100.93 210.53,100.78 210.48,100.64C210.47,100.62 210.69,100.91 210.59,100.78C210.56,100.74 210.53,100.7 210.49,100.65C210.44,100.59 210.4,100.52 210.35,100.46C210.25,100.32 210.15,100.18 210.06,100.04C209.64,99.42 209.28,98.76 208.99,98.07C209.04,98.19 209.09,98.31 209.14,98.42C208.84,97.68 208.62,96.92 208.51,96.13C208.53,96.26 208.55,96.39 208.56,96.52C208.53,96.29 208.51,96.06 208.49,95.82C208.45,95.05 207.84,94.3 207.01,94.34C206.22,94.38 205.46,95 205.51,95.83Z" style="fill:rgb(194,102,119);fill-rule:nonzero;"/>
                    </g>
                    <g>
                        <path d="M218.79,107.47C218.98,106.73 219.22,106.02 219.51,105.32C219.46,105.44 219.41,105.56 219.36,105.67C219.67,104.95 220.02,104.25 220.43,103.58C220.64,103.25 220.85,102.92 221.08,102.6C221.14,102.52 221.2,102.43 221.27,102.35C221.36,102.23 221.33,102.27 221.18,102.46C221.21,102.42 221.24,102.38 221.28,102.34C221.4,102.19 221.53,102.04 221.65,101.89C222.16,101.3 222.72,100.74 223.31,100.23C223.46,100.1 223.61,99.98 223.76,99.86C223.88,99.77 223.84,99.8 223.65,99.95C223.69,99.92 223.74,99.88 223.78,99.85C223.86,99.79 223.94,99.74 224.02,99.68C224.37,99.44 224.74,99.22 225.13,99.05C225.01,99.1 224.89,99.15 224.78,99.2C225.08,99.08 225.4,98.99 225.72,98.94C225.59,98.96 225.46,98.98 225.33,98.99C225.36,98.99 225.38,98.98 225.41,98.98C225.81,98.94 226.16,98.84 226.46,98.55C226.72,98.29 226.91,97.87 226.89,97.5C226.87,97.12 226.75,96.72 226.46,96.45C226.19,96.2 225.8,95.97 225.41,96.02C224.71,96.1 224.13,96.26 223.49,96.55C223.09,96.73 222.72,96.97 222.36,97.23C221.58,97.8 220.84,98.42 220.17,99.12C218.9,100.44 217.82,101.97 217.04,103.63C216.58,104.61 216.2,105.63 215.93,106.68C215.74,107.43 216.17,108.32 216.97,108.5C217.74,108.68 218.59,108.28 218.79,107.47Z" style="fill:rgb(194,102,119);fill-rule:nonzero;"/>
                    </g>
                    <g>
                        <path d="M218.25,106.66C217.67,107.65 217.57,108.77 217.77,109.87C217.95,110.89 218.52,111.79 219.16,112.58C219.75,113.31 220.48,113.92 221.23,114.48C221.92,115 222.68,115.44 223.47,115.8C223.84,115.97 224.2,116.06 224.61,115.95C224.95,115.86 225.33,115.59 225.5,115.27C225.84,114.62 225.72,113.58 224.97,113.24C224.48,113.02 224,112.76 223.54,112.48C223.31,112.34 223.09,112.18 222.87,112.03C222.81,111.99 222.75,111.95 222.7,111.9C222.74,111.94 222.95,112.1 222.8,111.97C222.69,111.88 222.58,111.79 222.47,111.7C222.08,111.37 221.71,111.01 221.38,110.61C221.34,110.56 221.28,110.51 221.25,110.45C221.3,110.54 221.45,110.71 221.31,110.52C221.24,110.42 221.17,110.32 221.1,110.22C220.95,109.99 220.83,109.75 220.72,109.5C220.77,109.62 220.82,109.74 220.87,109.85C220.75,109.55 220.67,109.24 220.62,108.92C220.64,109.05 220.66,109.18 220.67,109.31C220.63,109.02 220.63,108.73 220.67,108.44C220.65,108.57 220.63,108.7 220.62,108.83C220.65,108.59 220.71,108.37 220.8,108.14C220.75,108.26 220.7,108.38 220.65,108.49C220.7,108.37 220.76,108.25 220.83,108.14C221.22,107.47 221.01,106.49 220.3,106.11C219.57,105.75 218.67,105.94 218.25,106.66Z" style="fill:rgb(194,102,119);fill-rule:nonzero;"/>
                    </g>
                </g>
            </g>
            <g>
                <path d="M178.88,173.44C182.53,163.66 186.18,153.87 189.83,144.09C193.05,135.46 196.36,126.06 193.61,116.84C192.42,112.86 190.11,109.24 186.64,106.9C186.28,106.66 185.91,106.43 185.54,106.22C182.83,104.7 181.14,101.86 181.14,98.75C181.14,93.36 176.77,89 171.39,89C170.68,89 169.99,89.08 169.32,89.22C169.33,89.21 169.33,89.2 169.34,89.18L172.68,83.7C173.08,83.05 172.18,82.4 171.68,82.97L167.5,87.84C167.25,88.13 166.81,88.13 166.56,87.84L162.38,82.97C161.88,82.39 160.99,83.05 161.38,83.7L164.72,89.18C164.92,89.5 164.78,89.93 164.43,90.07L158.51,92.54C157.81,92.83 158.15,93.89 158.89,93.71L163.87,92.53C162.48,94.22 161.64,96.38 161.64,98.74L161.64,104.3C161.32,104.37 161,104.17 160.92,103.84L159.4,97.61C159.22,96.87 158.12,97.04 158.18,97.8L158.66,104.2C158.69,104.58 158.37,104.89 158,104.86L151.6,104.38C150.84,104.32 150.67,105.42 151.41,105.6L157.64,107.12C158.01,107.21 158.21,107.61 158.07,107.96L155.63,113.89C155.34,114.59 156.33,115.1 156.73,114.45L160.1,108.99C160.3,108.67 160.74,108.6 161.03,108.84L161.64,109.36L161.64,113.14C161.64,115.5 162.48,117.66 163.87,119.35L158.89,118.17C158.15,117.99 157.81,119.05 158.51,119.34L164.43,121.81C164.78,121.96 164.92,122.38 164.72,122.7L161.38,128.18C160.98,128.83 161.88,129.48 162.38,128.91L166.56,124.04C166.81,123.75 167.25,123.75 167.5,124.04L171.68,128.91C172.18,129.49 173.07,128.83 172.68,128.18L169.34,122.7C169.33,122.69 169.33,122.68 169.32,122.66C169.99,122.8 170.68,122.88 171.39,122.88C176.78,122.88 181.14,118.51 181.14,113.13L181.14,109.73C181.14,108.08 182.9,107.01 184.35,107.79C184.36,107.8 184.37,107.8 184.38,107.81C187.86,109.69 190.26,112.94 191.5,116.65C194.5,125.58 191.18,134.85 188.05,143.25C184.42,152.99 180.78,162.73 177.15,172.48C175.4,177.18 173.55,181.86 171.95,186.62C170.39,191.25 169.14,196.06 169.11,200.98C169.06,208.33 172.42,216.57 179.4,219.88C180.24,220.28 181.1,220.6 182,220.83C183.22,221.15 183.74,219.26 182.52,218.94C175.26,217.03 171.33,209.18 171.09,202.14C170.92,197.22 172.11,192.39 173.64,187.75C175.22,182.93 177.1,178.2 178.88,173.44Z" style="fill:rgb(224,195,126);fill-rule:nonzero;"/>
                <path d="M226.13,173.44C222.48,163.66 218.83,153.87 215.18,144.09C211.96,135.46 208.65,126.06 211.4,116.84C212.59,112.86 214.9,109.24 218.37,106.9C218.73,106.66 219.1,106.43 219.47,106.22C222.18,104.7 223.87,101.86 223.87,98.75C223.87,93.36 228.24,89 233.62,89C234.33,89 235.02,89.08 235.69,89.22C235.68,89.21 235.68,89.2 235.67,89.18L232.33,83.7C231.93,83.05 232.83,82.4 233.33,82.97L237.51,87.84C237.76,88.13 238.2,88.13 238.45,87.84L242.63,82.97C243.13,82.39 244.02,83.05 243.63,83.7L240.29,89.18C240.09,89.5 240.23,89.93 240.58,90.07L246.5,92.54C247.2,92.83 246.86,93.89 246.12,93.71L241.14,92.53C242.53,94.22 243.37,96.38 243.37,98.74L243.37,104.3C243.69,104.37 244.01,104.17 244.09,103.84L245.61,97.61C245.79,96.87 246.89,97.04 246.83,97.8L246.35,104.2C246.32,104.58 246.64,104.89 247.01,104.86L253.41,104.38C254.17,104.32 254.34,105.42 253.6,105.6L247.37,107.12C247,107.21 246.8,107.61 246.94,107.96L249.38,113.89C249.67,114.59 248.68,115.1 248.28,114.45L244.91,108.99C244.71,108.67 244.27,108.6 243.98,108.84L243.37,109.36L243.37,113.14C243.37,115.5 242.53,117.66 241.14,119.35L246.12,118.17C246.86,117.99 247.2,119.05 246.5,119.34L240.58,121.81C240.23,121.96 240.09,122.38 240.29,122.7L243.63,128.18C244.03,128.83 243.13,129.48 242.63,128.91L238.45,124.04C238.2,123.75 237.76,123.75 237.51,124.04L233.33,128.91C232.83,129.49 231.94,128.83 232.33,128.18L235.67,122.7C235.68,122.69 235.68,122.68 235.69,122.66C235.02,122.8 234.33,122.88 233.62,122.88C228.23,122.88 223.87,118.51 223.87,113.13L223.87,109.73C223.87,108.08 222.11,107.01 220.66,107.79C220.65,107.8 220.64,107.8 220.63,107.81C217.15,109.69 214.75,112.94 213.51,116.65C210.51,125.58 213.83,134.85 216.96,143.25C220.59,152.99 224.23,162.73 227.86,172.48C229.61,177.18 231.46,181.86 233.06,186.62C234.62,191.25 235.87,196.06 235.9,200.98C235.95,208.33 232.59,216.57 225.61,219.88C224.77,220.28 223.91,220.6 223.01,220.83C221.79,221.15 221.27,219.26 222.49,218.94C229.75,217.03 233.68,209.18 233.92,202.14C234.09,197.22 232.9,192.39 231.37,187.75C229.78,182.93 227.91,178.2 226.13,173.44Z" style="fill:rgb(224,195,126);fill-rule:nonzero;"/>
            </g>
            <g>
                <g>
                    <path d="M179.13,108.84C179.13,136.13 184.39,158.26 164.37,158.26C144.35,158.26 128.13,136.13 128.13,108.84C128.13,81.55 144.35,59.42 164.37,59.42C184.39,59.42 179.13,81.54 179.13,108.84Z" style="fill:rgb(230,156,167);fill-rule:nonzero;"/>
                    <g>
                        <path d="M183.29,80.2C183.29,85.11 181.59,89.62 178.74,93.18C179.31,93.9 179.85,94.66 180.34,95.44C184.43,91.64 186.99,86.22 186.99,80.2C186.99,68.72 177.69,59.42 166.21,59.42C165.59,59.42 164.97,59.45 164.36,59.5C174.97,60.43 183.29,69.34 183.29,80.2Z" style="fill:rgb(194,102,119);fill-rule:nonzero;"/>
                        <path d="M180.49,137.48C180.49,148.33 172.17,157.24 161.56,158.18C162.17,158.23 162.79,158.26 163.41,158.26C174.89,158.26 184.19,148.96 184.19,137.48C184.19,132.31 182.3,127.57 179.17,123.94C178.56,124.75 177.9,125.53 177.2,126.27C179.28,129.49 180.49,133.34 180.49,137.48Z" style="fill:rgb(194,102,119);fill-rule:nonzero;"/>
                        <path d="M180.34,95.43C179.54,96.17 178.69,96.85 177.78,97.46C179.51,100.88 180.49,104.74 180.49,108.84C180.49,113.54 179.2,117.95 176.96,121.72C177.75,122.4 178.5,123.15 179.18,123.94C182.33,119.73 184.2,114.51 184.2,108.84C184.2,103.91 182.78,99.32 180.34,95.43Z" style="fill:rgb(194,102,119);fill-rule:nonzero;"/>
                        <path d="M176.64,95.43C177.05,96.09 177.43,96.76 177.79,97.46C178.7,96.85 179.55,96.17 180.35,95.43C179.86,94.65 179.32,93.89 178.75,93.17C178.09,93.98 177.39,94.73 176.64,95.43Z" style="fill:rgb(194,102,119);fill-rule:nonzero;"/>
                        <path d="M176.96,121.71C176.5,122.48 176.01,123.22 175.47,123.93C176.1,124.66 176.68,125.44 177.2,126.26C177.9,125.53 178.56,124.75 179.17,123.93C178.49,123.14 177.75,122.4 176.96,121.71Z" style="fill:rgb(194,102,119);fill-rule:nonzero;"/>
                        <path d="M145.43,80.2C145.43,82.56 145.82,84.82 146.54,86.93C150.21,84.84 154.46,83.64 158.99,83.64C166.99,83.64 174.11,87.37 178.73,93.18C181.58,89.62 183.28,85.11 183.28,80.2C183.28,69.35 174.96,60.44 164.35,59.5C153.75,60.43 145.43,69.34 145.43,80.2Z" style="fill:rgb(230,156,167);fill-rule:nonzero;"/>
                        <path d="M180.49,137.48C180.49,133.35 179.28,129.5 177.2,126.26C172.61,131.05 166.15,134.04 158.99,134.04C153.51,134.04 148.43,132.29 144.29,129.31C143.22,131.82 142.62,134.58 142.62,137.48C142.62,148.33 150.94,157.24 161.55,158.18C172.17,157.24 180.49,148.33 180.49,137.48Z" style="fill:rgb(230,156,167);fill-rule:nonzero;"/>
                        <path d="M146.54,86.93C138.93,91.27 133.8,99.45 133.8,108.84C133.8,117.27 137.94,124.74 144.3,129.31C147.47,121.89 154.84,116.7 163.41,116.7C168.58,116.7 173.31,118.59 176.95,121.72C179.19,117.95 180.48,113.55 180.48,108.84C180.48,104.75 179.5,100.88 177.77,97.46C174.46,99.68 170.48,100.98 166.2,100.98C157.09,100.98 149.34,95.1 146.54,86.93Z" style="fill:rgb(230,156,167);fill-rule:nonzero;"/>
                        <path d="M178.74,93.17C174.12,87.36 167,83.63 159,83.63C154.47,83.63 150.22,84.83 146.55,86.92C149.35,95.09 157.1,100.97 166.22,100.97C170.5,100.97 174.48,99.67 177.79,97.45C177.44,96.76 177.06,96.08 176.64,95.42C177.39,94.73 178.09,93.98 178.74,93.17Z" style="fill:rgb(230,156,167);fill-rule:nonzero;"/>
                        <path d="M144.3,129.31C148.44,132.28 153.51,134.04 159,134.04C166.16,134.04 172.62,131.05 177.21,126.26C176.69,125.44 176.11,124.67 175.48,123.93C176.01,123.22 176.51,122.48 176.97,121.71C173.33,118.58 168.6,116.69 163.43,116.69C154.84,116.69 147.47,121.89 144.3,129.31Z" style="fill:rgb(230,156,167);fill-rule:nonzero;"/>
                    </g>
                </g>
                <g>
                    <path d="M151.57,147.13C151.57,147.85 150.98,148.44 150.26,148.44C149.54,148.44 148.95,147.85 148.95,147.13C148.95,146.41 149.54,145.82 150.26,145.82C150.98,145.82 151.57,146.41 151.57,147.13Z" style="fill:white;fill-rule:nonzero;"/>
                    <path d="M157.65,151.36C157.65,152.4 156.82,153.24 155.8,153.24C154.78,153.24 153.95,152.4 153.95,151.36C153.95,150.32 154.78,149.48 155.8,149.48C156.82,149.48 157.65,150.32 157.65,151.36Z" style="fill:white;fill-rule:nonzero;"/>
                    <path d="M157.15,146.86C157.15,147.43 156.69,147.9 156.11,147.9C155.54,147.9 155.07,147.44 155.07,146.86C155.07,146.29 155.53,145.82 156.11,145.82C156.69,145.82 157.15,146.29 157.15,146.86Z" style="fill:white;fill-rule:nonzero;"/>
                </g>
            </g>
            <g>
                <g>
                    <path d="M225.87,108.84C225.87,136.13 220.61,158.26 240.63,158.26C260.64,158.26 276.87,136.13 276.87,108.84C276.87,81.55 260.65,59.42 240.63,59.42C220.62,59.42 225.87,81.54 225.87,108.84Z" style="fill:rgb(230,156,167);fill-rule:nonzero;"/>
                    <g>
                        <path d="M221.72,80.2C221.72,85.11 223.42,89.62 226.27,93.18C225.7,93.9 225.16,94.66 224.67,95.44C220.58,91.64 218.02,86.22 218.02,80.2C218.02,68.72 227.32,59.42 238.8,59.42C239.42,59.42 240.04,59.45 240.65,59.5C230.04,60.43 221.72,69.34 221.72,80.2Z" style="fill:rgb(194,102,119);fill-rule:nonzero;"/>
                        <path d="M224.52,137.48C224.52,148.33 232.84,157.24 243.45,158.18C242.84,158.23 242.22,158.26 241.6,158.26C230.12,158.26 220.82,148.96 220.82,137.48C220.82,132.31 222.71,127.57 225.84,123.94C226.45,124.75 227.11,125.53 227.81,126.27C225.72,129.49 224.52,133.34 224.52,137.48Z" style="fill:rgb(194,102,119);fill-rule:nonzero;"/>
                        <path d="M224.67,95.43C225.47,96.17 226.32,96.85 227.23,97.46C225.5,100.88 224.52,104.74 224.52,108.84C224.52,113.54 225.81,117.95 228.05,121.72C227.26,122.4 226.51,123.15 225.83,123.94C222.68,119.73 220.81,114.51 220.81,108.84C220.81,103.91 222.22,99.32 224.67,95.43Z" style="fill:rgb(194,102,119);fill-rule:nonzero;"/>
                        <path d="M228.37,95.43C227.96,96.09 227.58,96.76 227.22,97.46C226.31,96.85 225.46,96.17 224.66,95.43C225.15,94.65 225.69,93.89 226.26,93.17C226.91,93.98 227.62,94.73 228.37,95.43Z" style="fill:rgb(194,102,119);fill-rule:nonzero;"/>
                        <path d="M228.05,121.71C228.51,122.48 229,123.22 229.54,123.93C228.91,124.66 228.33,125.44 227.81,126.26C227.11,125.53 226.45,124.75 225.84,123.93C226.51,123.14 227.26,122.4 228.05,121.71Z" style="fill:rgb(194,102,119);fill-rule:nonzero;"/>
                        <path d="M259.58,80.2C259.58,82.56 259.19,84.82 258.47,86.93C254.8,84.84 250.55,83.64 246.02,83.64C238.02,83.64 230.9,87.37 226.28,93.18C223.43,89.62 221.73,85.11 221.73,80.2C221.73,69.35 230.05,60.44 240.66,59.5C251.26,60.43 259.58,69.34 259.58,80.2Z" style="fill:rgb(230,156,167);fill-rule:nonzero;"/>
                        <path d="M224.52,137.48C224.52,133.35 225.73,129.5 227.81,126.26C232.4,131.05 238.86,134.04 246.02,134.04C251.5,134.04 256.58,132.29 260.72,129.31C261.79,131.82 262.39,134.58 262.39,137.48C262.39,148.33 254.07,157.24 243.46,158.18C232.84,157.24 224.52,148.33 224.52,137.48Z" style="fill:rgb(230,156,167);fill-rule:nonzero;"/>
                        <path d="M258.46,86.93C266.07,91.27 271.2,99.45 271.2,108.84C271.2,117.27 267.06,124.74 260.7,129.31C257.53,121.89 250.16,116.7 241.59,116.7C236.42,116.7 231.69,118.59 228.05,121.72C225.81,117.95 224.52,113.55 224.52,108.84C224.52,104.75 225.5,100.88 227.23,97.46C230.54,99.68 234.52,100.98 238.8,100.98C247.92,100.98 255.67,95.1 258.46,86.93Z" style="fill:rgb(230,156,167);fill-rule:nonzero;"/>
                        <path d="M226.27,93.17C230.89,87.36 238.01,83.63 246.01,83.63C250.54,83.63 254.79,84.83 258.46,86.92C255.66,95.09 247.91,100.97 238.79,100.97C234.51,100.97 230.53,99.67 227.22,97.45C227.57,96.76 227.95,96.08 228.37,95.42C227.62,94.73 226.91,93.98 226.27,93.17Z" style="fill:rgb(230,156,167);fill-rule:nonzero;"/>
                        <path d="M260.71,129.31C256.57,132.28 251.5,134.04 246.01,134.04C238.85,134.04 232.39,131.05 227.8,126.26C228.32,125.44 228.9,124.67 229.53,123.93C229,123.22 228.5,122.48 228.04,121.71C231.68,118.58 236.41,116.69 241.58,116.69C250.17,116.69 257.53,121.89 260.71,129.31Z" style="fill:rgb(230,156,167);fill-rule:nonzero;"/>
                    </g>
                </g>
                <g>
                    <g transform="matrix(0.1602,-0.9871,0.9871,0.1602,53.4381,365.57)">
                        <circle cx="241.56" cy="151.38" r="1.9" style="fill:white;"/>
                    </g>
                    <path d="M246.32,146.86C246.32,147.43 245.86,147.9 245.28,147.9C244.71,147.9 244.24,147.44 244.24,146.86C244.24,146.29 244.7,145.82 245.28,145.82C245.86,145.82 246.32,146.29 246.32,146.86Z" style="fill:white;fill-rule:nonzero;"/>
                    <path d="M247.21,151.23C247.21,151.76 246.78,152.19 246.25,152.19C245.72,152.19 245.29,151.76 245.29,151.23C245.29,150.7 245.72,150.27 246.25,150.27C246.78,150.27 247.21,150.7 247.21,151.23Z" style="fill:white;fill-rule:nonzero;"/>
                    <circle cx="251.29" cy="148.32" r="1.16" style="fill:white;"/>
                </g>
            </g>
            <g>
                <g>
                    <g>
                        <path d="M188.42,268.97C192.7,268.57 196.89,267.65 201.14,267.36C201.02,267.13 200.88,266.91 200.72,266.72C200.55,266.77 200.38,266.81 200.21,266.84C199.2,267.06 198.08,266.95 197.07,266.95C188.33,267.37 179.49,269.52 170.73,268.13C170.49,268.24 170.27,268.39 170.13,268.54C170.11,268.56 170.1,268.58 170.08,268.6C176.21,269.03 182.26,269.5 188.42,268.97Z" style="fill:rgb(208,156,146);fill-rule:nonzero;"/>
                        <path d="M193.36,269.98C196.08,269.79 198.97,269.67 201.59,268.77C201.51,268.26 201.36,267.78 201.14,267.36C196.88,267.64 192.69,268.57 188.42,268.97C182.27,269.5 176.22,269.03 170.08,268.6C169.98,268.71 169.89,268.84 169.82,268.99C170.85,269.17 171.89,269.45 172.92,269.54C179.77,269.87 186.51,270.43 193.36,269.98Z" style="fill:rgb(233,205,208);fill-rule:nonzero;"/>
                        <path d="M170.67,269.53C171.68,269.75 172.69,269.98 173.7,270.09C183.08,270.94 192.26,270.18 201.52,271.06C201.69,270.33 201.71,269.53 201.58,268.77C198.96,269.67 196.07,269.78 193.35,269.98C186.5,270.43 179.76,269.87 172.91,269.53C171.88,269.44 170.84,269.16 169.81,268.98C169.73,269.14 169.68,269.3 169.65,269.47C170,269.44 170.35,269.47 170.67,269.53Z" style="fill:rgb(208,156,146);fill-rule:nonzero;"/>
                        <path d="M185.61,271.22C190.89,270.9 196.07,271.38 201.33,271.72C201.41,271.51 201.48,271.29 201.53,271.07C192.27,270.19 183.09,270.95 173.71,270.1C172.7,269.99 171.69,269.76 170.68,269.54C170.36,269.48 170.01,269.45 169.66,269.48C169.65,269.56 169.64,269.64 169.65,269.72C169.66,269.83 169.67,269.95 169.69,270.06C174.96,270.96 180.23,271.53 185.61,271.22Z" style="fill:rgb(233,205,208);fill-rule:nonzero;"/>
                        <path d="M173.03,271.11C181.79,271.78 190.44,272.23 199.09,272.35C199.74,272.35 200.39,272.38 201.04,272.34C201.15,272.15 201.25,271.94 201.33,271.72C196.06,271.38 190.89,270.9 185.61,271.22C180.23,271.54 174.96,270.96 169.69,270.05C169.73,270.24 169.8,270.43 169.9,270.6C170.91,270.88 171.97,271.02 173.03,271.11Z" style="fill:rgb(208,156,146);fill-rule:nonzero;"/>
                        <path d="M197.4,273.58C189.09,272.12 181.11,271.9 172.92,271.45C171.93,271.45 171.02,270.95 170,270.75C170.04,270.8 170.08,270.84 170.13,270.89C170.48,271.22 170.86,271.34 171.35,271.43C174.6,271.98 178.49,272.33 183.14,272.4C185.82,272.44 188.79,272.77 192.07,273.31C192.38,273.36 192.7,273.4 193.03,273.42L198.57,273.75C199,273.78 199.39,273.71 199.73,273.56C198.97,273.63 198.2,273.69 197.4,273.58Z" style="fill:rgb(208,156,146);fill-rule:nonzero;"/>
                        <path d="M201.04,272.34C200.39,272.38 199.74,272.35 199.09,272.35C190.44,272.24 181.79,271.79 173.03,271.11C171.97,271.03 170.91,270.89 169.9,270.6C169.93,270.65 169.96,270.7 170,270.74C171.02,270.94 171.93,271.44 172.92,271.44C181.12,271.89 189.09,272.11 197.4,273.57C198.2,273.68 198.97,273.62 199.72,273.54C200.28,273.31 200.72,272.88 201.04,272.34Z" style="fill:rgb(233,205,208);fill-rule:nonzero;"/>
                        <path d="M197.06,266.95C198.07,266.95 199.19,267.06 200.2,266.84C200.37,266.82 200.54,266.77 200.71,266.72C200.2,266.11 199.48,265.73 198.56,265.79L193.02,266.12C192.37,266.16 191.75,266.26 191.18,266.41C187.46,267.42 184.02,267.91 180.98,268.07C177.27,268.26 174.08,268.22 171.33,268C171.14,267.98 170.92,268.04 170.71,268.13C179.48,269.52 188.32,267.37 197.06,266.95Z" style="fill:rgb(233,205,208);fill-rule:nonzero;"/>
                    </g>
                    <g>
                        <path d="M198.47,266.18L193.48,266.48C192.89,266.52 192.34,266.61 191.83,266.74C188.48,267.65 189.67,272.45 192.62,272.93C192.9,272.98 193.19,273.01 193.48,273.03L198.47,273.33C202.19,273.56 202.19,265.96 198.47,266.18Z" style="fill:rgb(233,205,208);fill-rule:nonzero;"/>
                        <g>
                            <path d="M192.03,269.24C192.05,269.23 192.07,269.23 192.09,269.22C192.8,268.94 193.25,268.4 193.51,267.69L193.51,267.68C193.63,267.31 193.31,266.95 192.93,267.01C192.67,267.05 192.42,267.1 192.18,267.16C191.44,267.36 190.97,267.8 190.73,268.33C190.67,268.47 190.67,268.63 190.74,268.76C190.96,269.17 191.48,269.4 192.03,269.24Z" style="fill:rgb(208,156,146);fill-rule:nonzero;"/>
                            <path d="M191.64,269.53C191.4,269.54 191.19,269.48 191.01,269.37C190.77,269.22 190.46,269.39 190.47,269.67C190.51,270.36 190.8,271.07 191.28,271.6C191.43,271.77 191.7,271.75 191.83,271.56C192.18,271.02 192.23,270.3 191.95,269.73C191.89,269.6 191.77,269.52 191.64,269.53Z" style="fill:rgb(208,156,146);fill-rule:nonzero;"/>
                            <path d="M196.14,268.36C196.67,268.18 197.29,267.92 197.4,267.32C197.41,267.28 197.41,267.25 197.41,267.21L197.41,267.2C197.4,266.91 197.15,266.68 196.86,266.7L194.43,266.85C194.23,267.05 194.1,267.17 193.9,267.37C193.9,267.45 193.88,267.54 193.85,267.63C193.84,267.65 193.83,267.68 193.82,267.7C193.73,267.93 193.81,268.19 194.02,268.32C194.63,268.68 195.57,268.65 196.14,268.36Z" style="fill:rgb(208,156,146);fill-rule:nonzero;"/>
                            <path d="M199.5,270.19C199.7,270.39 200.09,270.68 200.43,270.57C200.5,270.55 200.55,270.49 200.56,270.42C200.68,269.71 200.61,268.93 200.36,268.29C200.33,268.2 200.24,268.15 200.14,268.17C200.13,268.17 200.11,268.18 200.1,268.18C199.3,268.55 198.95,269.44 199.47,270.16C199.48,270.17 199.49,270.18 199.5,270.19Z" style="fill:rgb(208,156,146);fill-rule:nonzero;"/>
                            <path d="M197.92,271.52C197.67,271.7 197.5,271.94 197.42,272.2C197.32,272.51 197.56,272.83 197.89,272.85L198.24,272.87C199.08,272.92 199.69,272.48 200.06,271.82C200.22,271.53 200.08,271.16 199.77,271.07C199.17,270.9 198.43,271.12 197.92,271.52Z" style="fill:rgb(208,156,146);fill-rule:nonzero;"/>
                            <path d="M196.25,271.46C196.23,271.44 196.21,271.43 196.18,271.41C195.45,270.98 194.39,271.17 194.12,271.98L194.12,271.99C193.97,272.3 194.19,272.66 194.53,272.68L196.2,272.78C196.51,272.8 196.76,272.53 196.71,272.23C196.67,271.94 196.48,271.66 196.25,271.46Z" style="fill:rgb(208,156,146);fill-rule:nonzero;"/>
                            <path d="M192.29,270.44C192.34,270.94 192.18,271.46 191.84,271.85C191.79,271.91 191.8,272.01 191.86,272.05C192.16,272.27 192.52,272.43 192.91,272.49C193.14,272.53 193.37,272.55 193.61,272.57C193.69,272.57 193.76,272.51 193.76,272.43C193.76,272.25 193.8,272.07 193.88,271.92C193.91,271.82 193.96,271.74 194.01,271.66C194.04,271.62 194.04,271.58 194.03,271.53C193.77,270.85 193.15,270.31 192.43,270.29C192.35,270.29 192.28,270.36 192.29,270.44Z" style="fill:rgb(208,156,146);fill-rule:nonzero;"/>
                            <path d="M197.96,270.39C197.32,270.18 196.52,270.46 196.19,271.07C196.14,271.16 196.18,271.27 196.26,271.31C196.3,271.33 196.35,271.35 196.39,271.38C196.4,271.39 196.41,271.39 196.41,271.4C196.76,271.69 197,272.14 196.87,272.53C196.83,272.64 196.91,272.76 197.02,272.76C197.12,272.77 197.21,272.68 197.21,272.58C197.19,272.16 197.38,271.75 197.77,271.47C197.97,271.31 198.21,271.18 198.46,271.09C198.57,271.05 198.61,270.93 198.55,270.83C198.41,270.61 198.2,270.44 197.96,270.39Z" style="fill:rgb(208,156,146);fill-rule:nonzero;"/>
                            <path d="M194.46,270.02C194.57,269.69 194.65,269.2 194.51,268.82C194.5,268.78 194.46,268.76 194.42,268.75C194.09,268.69 193.78,268.56 193.57,268.34C193.52,268.29 193.43,268.29 193.39,268.36C193.11,268.83 192.73,269.18 192.19,269.39L192.18,269.39C192.11,269.41 192.08,269.49 192.11,269.55C192.19,269.7 192.25,269.86 192.29,270.03C192.3,270.08 192.35,270.12 192.4,270.12C192.96,270.11 193.48,270.43 193.81,270.89C193.85,270.94 193.92,270.95 193.97,270.91C194.24,270.66 194.41,270.32 194.46,270.02Z" style="fill:rgb(208,156,146);fill-rule:nonzero;"/>
                            <path d="M197.72,268.23C197.71,268.22 197.7,268.22 197.7,268.21C197.51,268.04 197.23,268.03 197.02,268.17C196.8,268.32 196.54,268.42 196.29,268.5C196.27,268.51 196.25,268.51 196.23,268.52C196.17,268.55 196.1,268.58 196.04,268.6C195.69,268.72 195.54,269.14 195.73,269.46C195.87,269.69 196.04,269.9 196.24,270.08C196.4,270.23 196.64,270.28 196.85,270.2C196.94,270.16 197.03,270.13 197.13,270.11C197.35,270.06 197.53,269.9 197.59,269.68C197.65,269.43 197.75,269.19 197.87,268.96C198,268.72 197.94,268.42 197.72,268.23Z" style="fill:rgb(208,156,146);fill-rule:nonzero;"/>
                            <path d="M195.07,268.83L194.99,268.83C194.85,268.83 194.74,268.95 194.76,269.09C194.81,269.42 194.74,269.8 194.65,270.06C194.6,270.36 194.44,270.68 194.2,270.91C194.13,270.98 194.11,271.09 194.16,271.18C194.22,271.3 194.38,271.34 194.49,271.25C194.82,271.01 195.28,270.94 195.71,271.04C195.81,271.06 195.92,271.02 195.97,270.93C196.03,270.81 196.12,270.7 196.22,270.6C196.31,270.51 196.31,270.35 196.2,270.27C195.79,269.93 195.49,269.46 195.28,268.96C195.25,268.88 195.16,268.83 195.07,268.83Z" style="fill:rgb(208,156,146);fill-rule:nonzero;"/>
                            <path d="M199.39,270.2C199.12,269.83 199.08,269.41 199.22,269.04C199.26,268.93 199.19,268.81 199.07,268.79C198.88,268.76 198.69,268.71 198.52,268.64C198.44,268.61 198.35,268.64 198.3,268.71C198.04,269.08 197.86,269.51 197.77,269.95C197.75,270.05 197.82,270.15 197.92,270.17C197.99,270.18 198.06,270.2 198.12,270.22C198.38,270.27 198.61,270.48 198.76,270.74C198.8,270.81 198.88,270.85 198.96,270.84C199.36,270.76 199.76,270.79 200.08,270.99C200.19,271.06 200.33,271.01 200.36,270.89L200.36,270.87C200.39,270.75 200.3,270.63 200.18,270.63C199.88,270.64 199.57,270.4 199.39,270.23C199.41,270.22 199.4,270.21 199.39,270.2Z" style="fill:rgb(208,156,146);fill-rule:nonzero;"/>
                            <path d="M199.35,268.54C199.5,268.32 199.73,268.13 200,268.01C200.01,268.01 200.02,268 200.03,268C200.11,267.98 200.16,267.89 200.12,267.81C199.75,267.09 199.13,266.6 198.24,266.65L197.8,266.68C197.72,266.68 197.66,266.76 197.68,266.84C197.72,266.98 197.73,267.12 197.73,267.26L197.73,267.29C197.71,267.42 197.67,267.53 197.61,267.63C197.59,267.67 197.59,267.73 197.62,267.76C197.97,268.24 198.6,268.56 199.23,268.6C199.28,268.6 199.33,268.57 199.35,268.54Z" style="fill:rgb(208,156,146);fill-rule:nonzero;"/>
                        </g>
                    </g>
                </g>
                <g>
                    <g>
                        <path d="M216.59,268.97C212.31,268.57 208.12,267.65 203.87,267.36C203.99,267.13 204.13,266.91 204.29,266.72C204.46,266.77 204.63,266.81 204.8,266.84C205.81,267.06 206.93,266.95 207.94,266.95C216.68,267.37 225.52,269.52 234.28,268.13C234.52,268.24 234.74,268.39 234.88,268.54C234.9,268.56 234.91,268.58 234.93,268.6C228.79,269.03 222.74,269.5 216.59,268.97Z" style="fill:rgb(208,156,146);fill-rule:nonzero;"/>
                        <path d="M211.65,269.98C208.93,269.79 206.04,269.67 203.42,268.77C203.5,268.26 203.65,267.78 203.87,267.36C208.13,267.64 212.32,268.57 216.59,268.97C222.74,269.5 228.79,269.03 234.93,268.6C235.03,268.71 235.12,268.84 235.19,268.99C234.16,269.17 233.12,269.45 232.09,269.54C225.24,269.87 218.5,270.43 211.65,269.98Z" style="fill:rgb(233,205,208);fill-rule:nonzero;"/>
                        <path d="M234.34,269.53C233.33,269.75 232.32,269.98 231.31,270.09C221.93,270.94 212.75,270.18 203.49,271.06C203.32,270.33 203.3,269.53 203.43,268.77C206.05,269.67 208.94,269.78 211.66,269.98C218.51,270.43 225.25,269.87 232.1,269.53C233.13,269.44 234.17,269.16 235.2,268.98C235.28,269.14 235.33,269.3 235.36,269.47C235,269.44 234.65,269.47 234.34,269.53Z" style="fill:rgb(208,156,146);fill-rule:nonzero;"/>
                        <path d="M219.4,271.22C214.12,270.9 208.94,271.38 203.68,271.72C203.6,271.51 203.53,271.29 203.48,271.07C212.74,270.19 221.92,270.95 231.3,270.1C232.31,269.99 233.32,269.76 234.33,269.54C234.65,269.48 235,269.45 235.35,269.48C235.36,269.56 235.37,269.64 235.36,269.72C235.35,269.83 235.34,269.95 235.32,270.06C230.05,270.96 224.77,271.53 219.4,271.22Z" style="fill:rgb(233,205,208);fill-rule:nonzero;"/>
                        <path d="M231.98,271.11C223.22,271.78 214.57,272.23 205.92,272.35C205.27,272.35 204.62,272.38 203.97,272.34C203.86,272.15 203.76,271.94 203.68,271.72C208.95,271.38 214.12,270.9 219.4,271.22C224.78,271.54 230.05,270.96 235.32,270.05C235.28,270.24 235.21,270.43 235.11,270.6C234.09,270.88 233.04,271.02 231.98,271.11Z" style="fill:rgb(208,156,146);fill-rule:nonzero;"/>
                        <path d="M207.61,273.58C215.92,272.12 223.9,271.9 232.09,271.45C233.08,271.45 233.99,270.95 235.01,270.75C234.97,270.8 234.93,270.84 234.88,270.89C234.53,271.22 234.15,271.34 233.66,271.43C230.41,271.98 226.52,272.33 221.87,272.4C219.19,272.44 216.22,272.77 212.94,273.31C212.63,273.36 212.31,273.4 211.98,273.42L206.44,273.75C206.01,273.78 205.62,273.71 205.28,273.56C206.04,273.63 206.81,273.69 207.61,273.58Z" style="fill:rgb(208,156,146);fill-rule:nonzero;"/>
                        <path d="M203.97,272.34C204.62,272.38 205.27,272.35 205.92,272.35C214.57,272.24 223.22,271.79 231.98,271.11C233.04,271.03 234.1,270.89 235.11,270.6C235.08,270.65 235.05,270.7 235.01,270.74C233.99,270.94 233.08,271.44 232.09,271.44C223.89,271.89 215.92,272.11 207.61,273.57C206.81,273.68 206.04,273.62 205.29,273.54C204.72,273.31 204.29,272.88 203.97,272.34Z" style="fill:rgb(233,205,208);fill-rule:nonzero;"/>
                        <path d="M207.94,266.95C206.93,266.95 205.81,267.06 204.8,266.84C204.63,266.82 204.46,266.77 204.29,266.72C204.8,266.11 205.52,265.73 206.44,265.79L211.98,266.12C212.63,266.16 213.25,266.26 213.82,266.41C217.54,267.42 220.98,267.91 224.02,268.07C227.73,268.26 230.92,268.22 233.67,268C233.86,267.98 234.08,268.04 234.29,268.13C225.52,269.52 216.68,267.37 207.94,266.95Z" style="fill:rgb(233,205,208);fill-rule:nonzero;"/>
                    </g>
                    <g>
                        <path d="M206.54,266.18L211.53,266.48C212.12,266.52 212.67,266.61 213.18,266.74C216.53,267.65 215.34,272.45 212.39,272.93C212.11,272.98 211.82,273.01 211.53,273.03L206.54,273.33C202.81,273.56 202.81,265.96 206.54,266.18Z" style="fill:rgb(233,205,208);fill-rule:nonzero;"/>
                        <g>
                            <path d="M212.97,269.24C212.95,269.23 212.93,269.23 212.91,269.22C212.2,268.94 211.75,268.4 211.49,267.69L211.49,267.68C211.37,267.31 211.69,266.95 212.07,267.01C212.33,267.05 212.58,267.1 212.82,267.16C213.56,267.36 214.03,267.8 214.27,268.33C214.33,268.47 214.33,268.63 214.26,268.76C214.05,269.17 213.53,269.4 212.97,269.24Z" style="fill:rgb(208,156,146);fill-rule:nonzero;"/>
                            <path d="M213.37,269.53C213.61,269.54 213.82,269.48 214,269.37C214.24,269.22 214.55,269.39 214.54,269.67C214.5,270.36 214.21,271.07 213.73,271.6C213.58,271.77 213.31,271.75 213.18,271.56C212.83,271.02 212.78,270.3 213.06,269.73C213.11,269.6 213.23,269.52 213.37,269.53Z" style="fill:rgb(208,156,146);fill-rule:nonzero;"/>
                            <path d="M208.86,268.36C208.33,268.18 207.71,267.92 207.6,267.32C207.59,267.28 207.59,267.25 207.59,267.21L207.59,267.2C207.6,266.91 207.85,266.68 208.14,266.7L210.57,266.85C210.77,267.05 210.9,267.17 211.1,267.37C211.1,267.45 211.12,267.54 211.15,267.63C211.16,267.65 211.17,267.68 211.18,267.7C211.27,267.93 211.19,268.19 210.98,268.32C210.37,268.68 209.44,268.65 208.86,268.36Z" style="fill:rgb(208,156,146);fill-rule:nonzero;"/>
                            <path d="M205.51,270.19C205.31,270.39 204.92,270.68 204.58,270.57C204.51,270.55 204.46,270.49 204.45,270.42C204.33,269.71 204.4,268.93 204.65,268.29C204.68,268.2 204.77,268.15 204.87,268.17C204.88,268.17 204.9,268.18 204.91,268.18C205.71,268.55 206.06,269.44 205.54,270.16C205.52,270.17 205.52,270.18 205.51,270.19Z" style="fill:rgb(208,156,146);fill-rule:nonzero;"/>
                            <path d="M207.09,271.52C207.34,271.7 207.51,271.94 207.59,272.2C207.69,272.51 207.45,272.83 207.12,272.85L206.77,272.87C205.93,272.92 205.32,272.48 204.95,271.82C204.79,271.53 204.93,271.16 205.24,271.07C205.83,270.9 206.57,271.12 207.09,271.52Z" style="fill:rgb(208,156,146);fill-rule:nonzero;"/>
                            <path d="M208.76,271.46C208.78,271.44 208.8,271.43 208.83,271.41C209.56,270.98 210.62,271.17 210.89,271.98L210.89,271.99C211.04,272.3 210.82,272.66 210.48,272.68L208.81,272.78C208.5,272.8 208.25,272.53 208.3,272.23C208.34,271.94 208.52,271.66 208.76,271.46Z" style="fill:rgb(208,156,146);fill-rule:nonzero;"/>
                            <path d="M212.72,270.44C212.67,270.94 212.83,271.46 213.17,271.85C213.22,271.91 213.21,272.01 213.15,272.05C212.85,272.27 212.49,272.43 212.1,272.49C211.87,272.53 211.64,272.55 211.4,272.57C211.32,272.57 211.25,272.51 211.25,272.43C211.25,272.25 211.21,272.07 211.13,271.92C211.1,271.82 211.05,271.74 211,271.66C210.97,271.62 210.97,271.58 210.98,271.53C211.24,270.85 211.86,270.31 212.58,270.29C212.66,270.29 212.73,270.36 212.72,270.44Z" style="fill:rgb(208,156,146);fill-rule:nonzero;"/>
                            <path d="M207.05,270.39C207.69,270.18 208.49,270.46 208.82,271.07C208.87,271.16 208.83,271.27 208.75,271.31C208.71,271.33 208.66,271.35 208.62,271.38C208.61,271.39 208.6,271.39 208.6,271.4C208.25,271.69 208.01,272.14 208.14,272.53C208.18,272.64 208.1,272.76 207.99,272.76C207.89,272.77 207.8,272.68 207.8,272.58C207.82,272.16 207.63,271.75 207.24,271.47C207.04,271.31 206.8,271.18 206.55,271.09C206.44,271.05 206.4,270.93 206.46,270.83C206.59,270.61 206.81,270.44 207.05,270.39Z" style="fill:rgb(208,156,146);fill-rule:nonzero;"/>
                            <path d="M210.55,270.02C210.44,269.69 210.36,269.2 210.5,268.82C210.51,268.78 210.55,268.76 210.59,268.75C210.92,268.69 211.23,268.56 211.44,268.34C211.49,268.29 211.58,268.29 211.62,268.36C211.9,268.83 212.28,269.18 212.82,269.39L212.83,269.39C212.9,269.41 212.93,269.49 212.9,269.55C212.82,269.7 212.76,269.86 212.72,270.03C212.71,270.08 212.66,270.12 212.61,270.12C212.05,270.11 211.53,270.43 211.2,270.89C211.16,270.94 211.09,270.95 211.04,270.91C210.76,270.66 210.6,270.32 210.55,270.02Z" style="fill:rgb(208,156,146);fill-rule:nonzero;"/>
                            <path d="M207.29,268.23C207.3,268.22 207.31,268.22 207.31,268.21C207.5,268.04 207.78,268.03 207.99,268.17C208.21,268.32 208.47,268.42 208.72,268.5C208.74,268.51 208.76,268.51 208.78,268.52C208.84,268.55 208.91,268.58 208.97,268.6C209.32,268.72 209.47,269.14 209.28,269.46C209.14,269.69 208.97,269.9 208.77,270.08C208.61,270.23 208.37,270.28 208.16,270.2C208.07,270.16 207.98,270.13 207.88,270.11C207.66,270.06 207.48,269.9 207.42,269.68C207.36,269.43 207.26,269.19 207.14,268.96C207.01,268.72 207.07,268.42 207.29,268.23Z" style="fill:rgb(208,156,146);fill-rule:nonzero;"/>
                            <path d="M209.93,268.83L210.01,268.83C210.15,268.83 210.26,268.95 210.24,269.09C210.19,269.42 210.26,269.8 210.35,270.06C210.4,270.36 210.56,270.68 210.8,270.91C210.87,270.98 210.89,271.09 210.84,271.18C210.78,271.3 210.62,271.34 210.51,271.25C210.18,271.01 209.72,270.94 209.29,271.04C209.19,271.06 209.08,271.02 209.03,270.93C208.97,270.81 208.88,270.7 208.78,270.6C208.69,270.51 208.69,270.35 208.8,270.27C209.21,269.93 209.51,269.46 209.72,268.96C209.76,268.88 209.84,268.83 209.93,268.83Z" style="fill:rgb(208,156,146);fill-rule:nonzero;"/>
                            <path d="M205.62,270.2C205.89,269.83 205.93,269.41 205.79,269.04C205.75,268.93 205.82,268.81 205.94,268.79C206.13,268.76 206.32,268.71 206.49,268.64C206.57,268.61 206.66,268.64 206.71,268.71C206.97,269.08 207.15,269.51 207.24,269.95C207.26,270.05 207.19,270.15 207.09,270.17C207.02,270.18 206.95,270.2 206.89,270.22C206.63,270.27 206.4,270.48 206.25,270.74C206.21,270.81 206.13,270.85 206.05,270.84C205.65,270.76 205.25,270.79 204.93,270.99C204.82,271.06 204.68,271.01 204.65,270.89L204.65,270.87C204.62,270.75 204.71,270.63 204.83,270.63C205.13,270.64 205.44,270.4 205.62,270.23C205.6,270.22 205.61,270.21 205.62,270.2Z" style="fill:rgb(208,156,146);fill-rule:nonzero;"/>
                            <path d="M205.65,268.54C205.5,268.32 205.27,268.13 205,268.01C204.99,268.01 204.98,268 204.97,268C204.89,267.98 204.84,267.89 204.88,267.81C205.25,267.09 205.87,266.6 206.76,266.65L207.2,266.68C207.28,266.68 207.34,266.76 207.32,266.84C207.28,266.98 207.27,267.12 207.27,267.26L207.27,267.29C207.29,267.42 207.33,267.53 207.39,267.63C207.41,267.67 207.41,267.73 207.38,267.76C207.03,268.24 206.4,268.56 205.77,268.6C205.72,268.6 205.68,268.57 205.65,268.54Z" style="fill:rgb(208,156,146);fill-rule:nonzero;"/>
                        </g>
                    </g>
                </g>
            </g>
            <g>
                <path d="M202.5,203.38C188.35,203.38 177.98,212.64 179.21,223.02C179.93,229.04 225.07,229.04 225.79,223.02C227.03,212.64 216.66,203.38 202.5,203.38Z" style="fill:rgb(224,195,126);fill-rule:nonzero;"/>
                <path d="M202.5,210.45C188.07,210.45 176.37,222.15 176.37,236.58C176.37,245.66 186.72,253.67 194.4,258.35C195.01,258.72 195.65,259.05 196.3,259.34C198.85,260.45 200.48,262.99 200.48,265.77L200.48,291.44L204.54,291.44L204.54,265.77C204.54,262.99 206.17,260.45 208.72,259.34C209.37,259.06 210,258.73 210.62,258.35C218.29,253.67 228.65,245.67 228.65,236.58C228.64,222.15 216.94,210.45 202.5,210.45Z" style="fill:rgb(223,140,151);fill-rule:nonzero;"/>
                <path d="M202.5,218.54C190.95,218.54 181.59,227.9 181.59,239.45C181.59,246.72 189.87,253.12 196.01,256.87C196.5,257.17 197.01,257.43 197.53,257.66C199.57,258.55 202.17,260.58 202.17,262.8L202.17,291.44L202.82,291.44L202.82,262.8C202.82,260.58 205.42,258.54 207.46,257.66C207.98,257.43 208.49,257.17 208.98,256.87C215.12,253.12 223.4,246.72 223.4,239.45C223.41,227.9 214.05,218.54 202.5,218.54Z" style="fill:rgb(233,205,208);fill-rule:nonzero;"/>
                <path d="M181.6,239.09L181.6,239.46C181.6,246.73 189.88,253.13 196.02,256.88C196.51,257.18 197.02,257.44 197.54,257.67C199.58,258.56 202.18,260.59 202.18,262.81L202.18,291.45L202.83,291.45L202.83,262.8C202.83,260.58 205.43,258.54 207.47,257.66C207.99,257.43 208.5,257.17 208.99,256.87C215.13,253.12 223.41,246.72 223.41,239.45L223.41,239.09L181.6,239.09Z" style="fill:rgb(233,199,134);fill-rule:nonzero;"/>
            </g>
            <g>
                <path d="M179.45,62.48C179.45,66.84 172.84,62.45 164.69,62.45C156.54,62.45 149.93,66.84 149.93,62.48C149.93,58.12 156.54,54.59 164.69,54.59C172.84,54.59 179.45,58.12 179.45,62.48Z" style="fill:rgb(224,195,126);fill-rule:nonzero;"/>
                <path d="M255.09,62.48C255.09,66.84 248.48,62.45 240.33,62.45C232.18,62.45 225.57,66.84 225.57,62.48C225.57,58.12 232.18,54.59 240.33,54.59C248.48,54.59 255.09,58.12 255.09,62.48Z" style="fill:rgb(224,195,126);fill-rule:nonzero;"/>
            </g>
            <g>
                <g>
                    <path d="M192.01,148.6C192.1,148.48 192.13,148.43 192.01,148.6Z" style="fill:rgb(111,120,155);fill-rule:nonzero;"/>
                    <path d="M257.53,192C257.21,189.37 256.7,186.82 255.74,184.34C254.79,181.9 253.64,179.55 252.2,177.36C249.42,173.13 245.91,169.41 241.96,166.26C233.18,159.24 222.79,155.02 212.94,149.79C210.23,148.35 207.54,146.84 204.99,145.12C204.69,144.92 204.39,144.71 204.1,144.5C203.98,144.42 203.86,144.33 203.75,144.24C203.63,144.15 203.52,144.07 203.4,143.98C203.55,144.1 203.71,144.22 203.86,144.34C203.57,144.21 203.27,143.86 203.03,143.65C202.76,143.41 202.49,143.17 202.24,142.92C202.11,142.79 201.97,142.66 201.84,142.52C201.82,140.22 201.87,137.44 202.1,134.6C202.72,126.87 203.75,119.17 204.61,111.47C206.38,95.6 207.74,79.55 206,63.62C205.03,54.68 203.23,45.83 200.03,37.41C199.61,36.3 199.04,35.37 197.99,34.75C197.04,34.19 195.63,33.96 194.56,34.3C192.44,34.98 190.57,37.44 191.45,39.77C194.07,46.67 195.78,53.88 196.81,61.19C198.79,76.66 197.76,92.3 196.11,107.76C195.29,115.48 194.28,123.17 193.53,130.89C192.85,137.91 192.43,139.82 192.96,146.87C192.97,146.96 192.98,147.05 192.99,147.14C192.77,147.52 192.53,147.88 192.28,148.25C192.09,148.52 191.89,148.78 191.7,149.05C191.85,148.83 191.95,148.69 192.01,148.6C191.91,148.74 191.74,148.97 191.64,149.09C191.19,149.63 190.72,150.14 190.24,150.64C189.27,151.64 188.23,152.57 187.15,153.45C186.94,153.62 186.72,153.79 186.5,153.97C186.44,154.02 186.37,154.07 186.31,154.11C185.7,154.57 185.08,155.02 184.45,155.46C179.52,158.92 174.32,161.93 169.7,165.82C160.01,173.98 152.88,185.15 149.12,197.22C147.02,203.95 146,211.09 146.18,218.14C146.23,220.22 147.97,222.22 150.16,222.12C152.27,222.03 154.2,220.37 154.14,218.14C154.06,215.1 154.22,212.06 154.59,209.04C155.35,203.85 156.75,198.77 158.75,193.92C160.44,190.02 162.5,186.29 164.92,182.8C165.23,182.35 165.55,181.9 165.87,181.46C166.03,181.24 166.2,181.02 166.36,180.8C166.42,180.73 166.47,180.65 166.53,180.58C167.2,179.74 167.88,178.9 168.58,178.09C170.04,176.41 171.59,174.81 173.23,173.3C174.04,172.56 174.86,171.83 175.71,171.14C176.09,170.82 176.48,170.52 176.87,170.21C176.92,170.18 176.96,170.14 177.01,170.11C177.26,169.92 177.5,169.74 177.75,169.56C179.43,168.34 181.17,167.19 182.91,166.06C186.61,163.64 190.34,161.23 193.7,158.33C195.79,156.52 197.66,154.48 199.17,152.2C199.58,152.06 199.98,151.87 200.33,151.63C201.69,152.57 203.1,153.43 204.48,154.24C208.81,156.79 213.33,158.98 217.83,161.2C222.29,163.4 226.75,165.63 230.99,168.25C231.94,168.84 232.89,169.45 233.81,170.09C234.23,170.38 234.65,170.68 235.07,170.98C235.29,171.14 235.51,171.3 235.73,171.47C235.8,171.52 235.86,171.57 235.93,171.62C237.57,172.92 239.14,174.29 240.62,175.77C241.44,176.59 242.23,177.45 242.99,178.33C243.38,178.79 243.8,179.24 244.14,179.73C244.05,179.61 243.56,178.96 243.9,179.42C244,179.56 244.1,179.69 244.2,179.83C244.36,180.05 244.52,180.27 244.67,180.49C245.94,182.29 247.03,184.21 247.92,186.22C248.69,188.16 249.24,190.17 249.56,192.23C249.57,192.3 249.58,192.37 249.59,192.44C249.6,192.52 249.61,192.6 249.63,192.68C249.62,192.63 249.62,192.57 249.61,192.52C249.76,193.4 250.02,194.16 250.71,194.84C251.4,195.53 252.53,196.05 253.53,196.01C254.56,195.96 255.63,195.63 256.35,194.84C257.03,194.09 257.65,193.02 257.53,192Z" style="fill:rgb(124,170,214);fill-rule:nonzero;"/>
                </g>
                <g>
                    <g transform="matrix(0.9454,-0.326,0.326,0.9454,-1.5285,65.6745)">
                        <ellipse cx="195.21" cy="37.4" rx="4.32" ry="3.28" style="fill:rgb(144,150,170);"/>
                    </g>
                    <path d="M198.07,36.41C198.48,37.61 197.54,39.02 195.96,39.56C194.38,40.1 192.77,39.58 192.35,38.38C191.94,37.18 192.88,35.77 194.46,35.23C196.04,34.69 197.65,35.22 198.07,36.41Z" style="fill:rgb(111,120,155);fill-rule:nonzero;"/>
                </g>
                <g>
                    <g>
                        <path d="M198.54,110.79C198.44,110.84 198.34,110.89 198.24,110.94C198.36,110.89 198.48,110.84 198.59,110.79C198.28,110.92 197.97,110.99 197.64,111.04C197.77,111.02 197.9,111 198.03,110.99C196.9,111.13 195.71,110.95 194.58,110.8C194.71,110.82 194.84,110.84 194.97,110.85C194.14,110.74 193.32,110.57 192.54,110.25C192.66,110.3 192.78,110.35 192.89,110.4C192.44,110.21 192.04,109.97 191.65,109.69C191.56,109.63 191.5,109.52 191.74,109.76C191.7,109.72 191.65,109.69 191.6,109.65C191.51,109.58 191.42,109.5 191.33,109.43C191.14,109.27 190.95,109.12 190.75,108.96C189.9,108.29 189.02,107.79 188.02,107.39C186.26,106.68 184.33,106.54 182.46,106.8C181.4,106.95 180.39,107.29 179.43,107.76C178.73,108.1 178.49,109.15 178.9,109.79C179.36,110.51 180.18,110.69 180.93,110.32C181.07,110.25 181.2,110.19 181.34,110.13C181.22,110.18 181.1,110.23 180.99,110.28C181.71,109.98 182.47,109.77 183.25,109.66C183.12,109.68 182.99,109.7 182.86,109.71C183.69,109.6 184.53,109.6 185.36,109.71C185.23,109.69 185.1,109.67 184.97,109.66C185.8,109.77 186.61,109.99 187.38,110.31C187.26,110.26 187.14,110.21 187.03,110.16C187.38,110.31 187.72,110.48 188.05,110.67C188.21,110.77 188.37,110.87 188.53,110.97C188.6,111.02 188.68,111.07 188.75,111.12C188.78,111.15 188.85,111.18 188.87,111.21C188.84,111.17 188.62,111.01 188.78,111.14C189.54,111.75 190.26,112.42 191.15,112.84C192.87,113.66 194.81,113.86 196.7,113.98C197.85,114.05 199.01,113.92 200.04,113.36C200.72,112.99 201,111.99 200.57,111.33C200.12,110.63 199.27,110.4 198.54,110.79Z" style="fill:rgb(124,170,214);fill-rule:nonzero;"/>
                    </g>
                    <g>
                        <path d="M191.99,110.33C189.01,110.97 187.14,113.58 184.9,115.4C184.84,115.45 184.56,115.67 184.79,115.49C185.02,115.31 184.72,115.54 184.67,115.58C184.52,115.69 184.36,115.8 184.2,115.9C183.86,116.11 183.51,116.3 183.15,116.46C183.27,116.41 183.39,116.36 183.5,116.31C182.86,116.58 182.19,116.74 181.5,116.84C181.63,116.82 181.76,116.8 181.89,116.79C180.79,116.93 179.68,116.89 178.58,116.76C178.23,116.72 177.77,116.95 177.53,117.19C177.27,117.45 177.08,117.87 177.1,118.24C177.12,118.62 177.24,119.02 177.53,119.29C177.84,119.57 178.17,119.68 178.58,119.72C180.98,119.99 183.51,119.82 185.61,118.51C187.24,117.5 188.51,116.05 189.94,114.8C190.13,114.64 190.32,114.48 190.51,114.32C190.55,114.29 190.6,114.25 190.64,114.22C190.73,114.15 190.67,114.19 190.47,114.35C190.51,114.32 190.54,114.3 190.58,114.27C190.67,114.2 190.76,114.14 190.85,114.08C191.26,113.8 191.69,113.55 192.15,113.35C192.03,113.4 191.91,113.45 191.8,113.5C192.12,113.37 192.45,113.26 192.79,113.19C193.55,113.03 194.06,112.1 193.83,111.37C193.56,110.56 192.81,110.16 191.99,110.33Z" style="fill:rgb(124,170,214);fill-rule:nonzero;"/>
                    </g>
                    <g>
                        <path d="M192.19,110.38C191.81,108.15 190.96,105.98 189.74,104.07C189.14,103.12 188.45,102.15 187.57,101.45C187,100.99 186.42,100.67 185.73,100.41C185.24,100.22 184.72,100.11 184.2,100.03C182.79,99.81 181.37,99.68 179.96,99.52C179.61,99.48 179.15,99.71 178.91,99.95C178.65,100.21 178.46,100.63 178.48,101C178.5,101.38 178.62,101.78 178.91,102.05C179.22,102.33 179.55,102.44 179.96,102.48C181.13,102.61 182.31,102.73 183.48,102.89C183.35,102.87 183.22,102.85 183.09,102.84C183.78,102.93 184.46,103.07 185.11,103.33C184.99,103.28 184.87,103.23 184.76,103.18C185.01,103.29 185.26,103.41 185.49,103.56C185.54,103.59 185.66,103.65 185.69,103.7C185.67,103.67 185.43,103.49 185.58,103.62C185.68,103.71 185.79,103.8 185.88,103.89C186.08,104.08 186.26,104.28 186.43,104.5C186.48,104.56 186.54,104.63 186.58,104.69C186.56,104.65 186.38,104.43 186.5,104.59C186.59,104.72 186.69,104.84 186.78,104.97C187.45,105.92 188.01,106.93 188.46,108C188.41,107.88 188.36,107.76 188.31,107.65C188.78,108.79 189.13,109.97 189.34,111.18C189.4,111.53 189.73,111.9 190.02,112.07C190.34,112.26 190.81,112.33 191.16,112.22C191.52,112.1 191.86,111.88 192.05,111.54C192.24,111.15 192.26,110.79 192.19,110.38Z" style="fill:rgb(124,170,214);fill-rule:nonzero;"/>
                    </g>
                </g>
                <g>
                    <g>
                        <path d="M201.19,106.14C203.69,107.31 206.21,108.47 208.8,109.43C211.39,110.39 214.05,111.08 216.8,111.37C218.37,111.54 219.95,111.54 221.51,111.74C221.38,111.72 221.25,111.7 221.12,111.69C222.49,111.88 223.82,112.24 225.09,112.77C224.97,112.72 224.85,112.67 224.74,112.62C225.54,112.96 226.31,113.37 227.04,113.84C227.69,114.26 228.7,114 229.07,113.31C229.46,112.57 229.24,111.73 228.54,111.28C227.18,110.41 225.68,109.73 224.12,109.29C222.46,108.81 220.73,108.67 219.02,108.57C218.07,108.52 217.12,108.46 216.18,108.33C216.31,108.35 216.44,108.37 216.57,108.38C213.32,107.94 210.2,106.87 207.18,105.6C207.3,105.65 207.42,105.7 207.53,105.75C205.9,105.06 204.3,104.32 202.69,103.57C202.32,103.4 201.95,103.31 201.55,103.42C201.21,103.51 200.83,103.78 200.66,104.1C200.32,104.77 200.44,105.79 201.19,106.14Z" style="fill:rgb(124,170,214);fill-rule:nonzero;"/>
                    </g>
                    <g>
                        <path d="M216.06,109.28C216.02,109.13 215.99,108.98 215.97,108.82C215.99,108.95 216.01,109.08 216.02,109.21C215.97,108.83 215.97,108.45 216.03,108.07C216.01,108.2 215.99,108.33 215.98,108.46C216.05,108.02 216.17,107.6 216.34,107.19C216.29,107.31 216.24,107.43 216.19,107.54C216.4,107.05 216.67,106.59 216.98,106.16C217.04,106.08 217.23,105.87 216.94,106.2C216.97,106.16 217.01,106.12 217.04,106.07C217.12,105.97 217.21,105.87 217.3,105.77C217.49,105.56 217.69,105.36 217.89,105.17C218.09,104.98 218.3,104.81 218.51,104.64C218.65,104.53 218.2,104.87 218.44,104.7C218.5,104.66 218.55,104.62 218.61,104.58C218.72,104.5 218.83,104.42 218.95,104.35C219.42,104.04 219.92,103.78 220.43,103.56C220.31,103.61 220.19,103.66 220.08,103.71C220.72,103.45 221.38,103.26 222.06,103.17C221.93,103.19 221.8,103.21 221.67,103.22C222.31,103.14 222.95,103.14 223.59,103.22C223.46,103.2 223.33,103.18 223.2,103.17C223.75,103.25 224.29,103.39 224.8,103.61C224.68,103.56 224.56,103.51 224.45,103.46C224.65,103.55 224.85,103.64 225.05,103.75C225.73,104.12 226.7,103.94 227.08,103.22C227.45,102.52 227.27,101.59 226.55,101.19C225.39,100.55 224.09,100.22 222.77,100.19C221.43,100.16 220.14,100.49 218.91,101.01C217.81,101.48 216.82,102.17 215.93,102.97C215.06,103.75 214.28,104.7 213.77,105.76C213.12,107.11 212.84,108.58 213.22,110.06C213.41,110.81 214.29,111.34 215.04,111.1C215.8,110.85 216.27,110.08 216.06,109.28Z" style="fill:rgb(124,170,214);fill-rule:nonzero;"/>
                    </g>
                    <g>
                        <path d="M213.41,110.06C213.84,112.05 214.98,113.81 216.34,115.29C216.96,115.97 217.65,116.59 218.37,117.16C218.9,117.58 219.41,117.95 220.03,118.22C220.57,118.45 221.11,118.6 221.68,118.74C222.92,119.05 224.15,119.36 225.39,119.66C226.14,119.84 227.03,119.42 227.21,118.62C227.38,117.86 226.98,116.99 226.17,116.8C225.28,116.58 224.39,116.36 223.5,116.14C222.66,115.93 221.78,115.77 220.98,115.43C221.1,115.48 221.22,115.53 221.33,115.58C221,115.44 220.71,115.25 220.42,115.04C220.17,114.87 220.66,115.23 220.44,115.06C220.37,115.01 220.31,114.95 220.24,114.9C220.12,114.8 220,114.7 219.88,114.59C219.39,114.17 218.91,113.72 218.47,113.24C218.25,113.01 218.04,112.77 217.84,112.52C217.81,112.48 217.62,112.24 217.78,112.45C217.94,112.66 217.76,112.42 217.73,112.38C217.64,112.25 217.54,112.12 217.46,111.99C217.1,111.46 216.79,110.9 216.54,110.31C216.59,110.43 216.64,110.55 216.69,110.66C216.5,110.2 216.35,109.73 216.25,109.24C216.09,108.48 215.16,107.97 214.43,108.2C213.65,108.49 213.24,109.24 213.41,110.06Z" style="fill:rgb(124,170,214);fill-rule:nonzero;"/>
                    </g>
                </g>
            </g>
        </g>
    </g>
</svg>
