<svg clip-rule="evenodd" fill-rule="evenodd" stroke-linejoin="round" stroke-miterlimit="2" viewBox="0 0 215 95" xmlns="http://www.w3.org/2000/svg" xmlns:xlink="http://www.w3.org/1999/xlink"><linearGradient id="a" gradientTransform="matrix(0 -81.675 81.675 0 129.776 84.4531)" gradientUnits="userSpaceOnUse" x1="0" x2="1" y1="0" y2="0"><stop offset="0" stop-color="#91268f"/><stop offset=".98" stop-color="#c361a5"/><stop offset="1" stop-color="#c361a5"/></linearGradient><linearGradient id="b"><stop offset="0" stop-color="#cd3c30"/><stop offset=".91" stop-color="#f15a29"/><stop offset="1" stop-color="#f15a29"/></linearGradient><linearGradient id="c" gradientUnits="userSpaceOnUse" x1="90.8148" x2="110.0502" xlink:href="#b" y1="53.216" y2="53.216"/><linearGradient id="d" gradientUnits="userSpaceOnUse" x1="122.357" x2="156.2967" xlink:href="#b" y1="67.0396" y2="67.0396"/><linearGradient id="e" gradientUnits="userSpaceOnUse" x1="105.217" x2="125.8779" xlink:href="#b" y1="86.5748" y2="86.5748"/><linearGradient id="f" gradientUnits="userSpaceOnUse" x1="110.575" x2="128.5845" xlink:href="#b" y1="17.0456" y2="17.0456"/><clipPath id="g"><path clip-rule="nonzero" d="m11.605 47c0 24.517 45.367 44.393 101.327 44.393 55.961 0 101.328-19.876 101.328-44.393 0-24.518-45.367-44.392-101.328-44.392-55.96 0-101.327 19.874-101.327 44.392z"/></clipPath><path d="m214.261 47c0 24.518-45.366 44.393-101.328 44.393-55.961 0-101.327-19.875-101.327-44.393s45.366-44.393 101.327-44.393c55.962 0 101.328 19.875 101.328 44.393" fill="#c4dc7b" fill-rule="nonzero"/><g clip-path="url(#g)"><g fill="#fff" fill-rule="nonzero" opacity=".3"><path d="m209.317 20.027c-.905.627-1.451 1.007-2.781 1.007-1.331 0-1.877-.38-2.782-1.007-1.085-.752-2.572-1.782-5.265-1.782s-4.179 1.03-5.264 1.782c-.905.627-1.452 1.007-2.782 1.007s-1.876-.38-2.781-1.007c-1.084-.752-2.572-1.782-5.264-1.782-2.693 0-4.179 1.03-5.264 1.782-.905.627-1.451 1.007-2.781 1.007s-1.876-.38-2.781-1.007c-1.086-.752-2.572-1.782-5.264-1.782-2.694 0-4.18 1.03-5.265 1.782-.904.627-1.452 1.007-2.781 1.007-1.33 0-1.877-.38-2.782-1.007-1.085-.752-2.571-1.782-5.264-1.782-2.692 0-4.178 1.03-5.263 1.782-.907.627-1.452 1.007-2.783 1.007-1.329 0-1.876-.38-2.781-1.007-1.085-.752-2.571-1.782-5.264-1.782s-4.179 1.03-5.265 1.782c-.904.627-1.451 1.007-2.78 1.007-1.33 0-1.876-.38-2.781-1.007-1.085-.752-2.571-1.782-5.264-1.782-2.692 0-4.178 1.03-5.264 1.782-.905.627-1.45 1.007-2.78 1.007s-1.876-.38-2.781-1.007c-1.085-.752-2.571-1.782-5.265-1.782-2.693 0-4.178 1.03-5.264 1.782-.905.627-1.45 1.007-2.78 1.007s-1.876-.38-2.781-1.007c-1.086-.752-2.571-1.782-5.264-1.782s-4.18 1.03-5.264 1.782c-.905.627-1.451 1.007-2.78 1.007-1.33 0-1.877-.38-2.781-1.007-1.085-.752-2.571-1.782-5.264-1.782s-4.179 1.03-5.264 1.782c-.905.627-1.45 1.007-2.78 1.007s-1.876-.38-2.781-1.007c-1.085-.752-2.571-1.782-5.264-1.782-2.692 0-4.179 1.03-5.263 1.782-.905.627-1.452 1.007-2.782 1.007-1.329 0-1.876-.38-2.781-1.007-1.084-.752-2.571-1.782-5.264-1.782s-4.178 1.03-5.264 1.782c-.905.627-1.45 1.007-2.78 1.007s-1.876-.38-2.781-1.007c-1.086-.752-2.572-1.782-5.264-1.782-2.693 0-4.18 1.03-5.264 1.782-.905.627-1.452 1.007-2.782 1.007-1.329 0-1.875-.38-2.78-1.007-1.084-.752-2.572-1.782-5.264-1.782v4.357c1.33 0 1.876.379 2.781 1.006 1.085.752 2.571 1.783 5.263 1.783 2.693 0 4.18-1.031 5.265-1.783.904-.627 1.451-1.006 2.781-1.006s1.876.379 2.781 1.006c1.084.752 2.571 1.783 5.264 1.783 2.692 0 4.178-1.031 5.264-1.783.904-.627 1.45-1.006 2.78-1.006s1.876.379 2.781 1.006c1.085.752 2.571 1.783 5.264 1.783 2.694 0 4.179-1.031 5.265-1.783.905-.627 1.451-1.006 2.78-1.006 1.33 0 1.876.379 2.781 1.006 1.085.752 2.571 1.783 5.264 1.783s4.179-1.031 5.263-1.783c.905-.627 1.451-1.006 2.781-1.006 1.329 0 1.876.379 2.78 1.006 1.085.752 2.571 1.783 5.265 1.783 2.692 0 4.178-1.031 5.263-1.783.905-.627 1.451-1.006 2.781-1.006s1.876.379 2.781 1.006c1.085.752 2.571 1.783 5.264 1.783s4.179-1.031 5.263-1.783c.905-.627 1.451-1.006 2.781-1.006s1.877.379 2.782 1.006c1.084.752 2.572 1.783 5.264 1.783 2.693 0 4.178-1.031 5.263-1.783.906-.627 1.451-1.006 2.781-1.006s1.876.379 2.781 1.006c1.085.752 2.572 1.783 5.264 1.783 2.693 0 4.179-1.031 5.263-1.783.906-.627 1.452-1.006 2.782-1.006s1.876.379 2.781 1.006c1.086.752 2.572 1.783 5.264 1.783 2.693 0 4.179-1.031 5.265-1.783.905-.627 1.452-1.006 2.781-1.006 1.33 0 1.876.379 2.782 1.006 1.085.752 2.571 1.783 5.264 1.783s4.178-1.031 5.264-1.783c.905-.627 1.452-1.006 2.782-1.006 1.329 0 1.876.379 2.781 1.006 1.084.752 2.571 1.783 5.264 1.783 2.692 0 4.178-1.031 5.264-1.783.905-.627 1.451-1.006 2.781-1.006s1.876.379 2.781 1.006c1.086.752 2.571 1.783 5.264 1.783s4.18-1.031 5.265-1.783c.905-.627 1.451-1.006 2.781-1.006 1.331 0 1.877.379 2.782 1.006 1.085.752 2.572 1.783 5.265 1.783s4.179-1.031 5.264-1.783c.905-.627 1.451-1.006 2.782-1.006v-4.357c-2.693 0-4.179 1.03-5.265 1.782"/><path d="m209.317 46.174c-.905.627-1.451 1.007-2.781 1.007-1.331 0-1.877-.38-2.782-1.007-1.085-.752-2.572-1.782-5.265-1.782s-4.179 1.03-5.264 1.782c-.905.627-1.452 1.007-2.782 1.007s-1.876-.38-2.781-1.007c-1.084-.752-2.572-1.782-5.264-1.782-2.693 0-4.179 1.03-5.264 1.782-.905.627-1.451 1.007-2.781 1.007s-1.876-.38-2.781-1.007c-1.086-.752-2.572-1.782-5.264-1.782-2.694 0-4.18 1.03-5.265 1.782-.904.627-1.452 1.007-2.781 1.007-1.33 0-1.877-.38-2.782-1.007-1.085-.752-2.571-1.782-5.264-1.782-2.692 0-4.178 1.03-5.263 1.782-.907.627-1.452 1.007-2.783 1.007-1.329 0-1.876-.38-2.781-1.007-1.085-.752-2.571-1.782-5.264-1.782s-4.179 1.03-5.265 1.782c-.904.627-1.451 1.007-2.78 1.007-1.33 0-1.876-.38-2.781-1.007-1.085-.752-2.571-1.782-5.264-1.782-2.692 0-4.178 1.03-5.264 1.782-.905.627-1.45 1.007-2.78 1.007s-1.876-.38-2.781-1.007c-1.085-.752-2.571-1.782-5.265-1.782-2.693 0-4.178 1.03-5.264 1.782-.905.627-1.45 1.007-2.78 1.007s-1.876-.38-2.781-1.007c-1.086-.752-2.571-1.782-5.264-1.782s-4.18 1.03-5.264 1.782c-.905.627-1.451 1.007-2.78 1.007-1.33 0-1.877-.38-2.781-1.007-1.085-.752-2.571-1.782-5.264-1.782s-4.179 1.03-5.264 1.782c-.905.627-1.45 1.007-2.78 1.007s-1.876-.38-2.781-1.007c-1.085-.752-2.571-1.782-5.264-1.782-2.692 0-4.179 1.03-5.263 1.782-.905.627-1.452 1.007-2.782 1.007-1.329 0-1.876-.38-2.781-1.007-1.084-.752-2.571-1.782-5.264-1.782s-4.178 1.03-5.264 1.782c-.905.627-1.45 1.007-2.78 1.007s-1.876-.38-2.781-1.007c-1.086-.752-2.572-1.782-5.264-1.782-2.693 0-4.18 1.03-5.264 1.782-.905.627-1.452 1.007-2.782 1.007-1.329 0-1.875-.38-2.78-1.007-1.084-.752-2.572-1.782-5.264-1.782v4.357c1.33 0 1.876.379 2.781 1.005 1.085.754 2.571 1.784 5.263 1.784 2.693 0 4.18-1.03 5.265-1.784.904-.626 1.451-1.005 2.781-1.005s1.876.379 2.781 1.005c1.084.754 2.571 1.784 5.264 1.784 2.692 0 4.178-1.03 5.264-1.784.904-.626 1.45-1.005 2.78-1.005s1.876.379 2.781 1.005c1.085.754 2.571 1.784 5.264 1.784 2.694 0 4.179-1.03 5.265-1.784.905-.626 1.451-1.005 2.78-1.005 1.33 0 1.876.379 2.781 1.005 1.085.754 2.571 1.784 5.264 1.784s4.179-1.031 5.263-1.784c.905-.626 1.451-1.005 2.781-1.005 1.329 0 1.876.379 2.78 1.005 1.085.754 2.571 1.784 5.265 1.784 2.692 0 4.178-1.03 5.263-1.784.905-.626 1.451-1.005 2.781-1.005s1.876.379 2.781 1.005c1.085.754 2.571 1.784 5.264 1.784s4.179-1.03 5.263-1.784c.905-.626 1.451-1.005 2.781-1.005s1.877.379 2.782 1.005c1.084.754 2.572 1.784 5.264 1.784 2.693 0 4.178-1.03 5.263-1.784.906-.626 1.451-1.005 2.781-1.005s1.876.379 2.781 1.005c1.085.754 2.572 1.784 5.264 1.784 2.693 0 4.179-1.03 5.263-1.784.906-.626 1.452-1.005 2.782-1.005s1.876.379 2.781 1.005c1.086.754 2.572 1.784 5.264 1.784 2.693 0 4.179-1.03 5.265-1.784.905-.626 1.452-1.005 2.781-1.005 1.33 0 1.876.379 2.782 1.005 1.085.754 2.571 1.784 5.264 1.784s4.178-1.03 5.264-1.784c.905-.626 1.452-1.005 2.782-1.005 1.329 0 1.876.379 2.781 1.005 1.084.754 2.571 1.784 5.264 1.784 2.692 0 4.178-1.03 5.264-1.784.905-.626 1.451-1.005 2.781-1.005s1.876.379 2.781 1.005c1.086.754 2.571 1.784 5.264 1.784s4.18-1.03 5.265-1.784c.905-.626 1.451-1.005 2.781-1.005 1.331 0 1.877.379 2.782 1.006 1.085.753 2.572 1.783 5.265 1.783s4.179-1.03 5.264-1.783c.905-.627 1.451-1.006 2.782-1.006v-4.357c-2.693 0-4.179 1.03-5.265 1.782"/><path d="m209.317 72.321c-.905.627-1.451 1.007-2.781 1.007-1.331 0-1.877-.38-2.782-1.007-1.085-.752-2.572-1.782-5.265-1.782s-4.179 1.03-5.264 1.782c-.905.627-1.452 1.007-2.782 1.007s-1.876-.38-2.781-1.007c-1.084-.752-2.572-1.782-5.264-1.782-2.693 0-4.179 1.03-5.264 1.782-.905.627-1.451 1.007-2.781 1.007s-1.876-.38-2.781-1.007c-1.086-.752-2.572-1.782-5.264-1.782-2.694 0-4.18 1.03-5.265 1.782-.904.627-1.452 1.007-2.781 1.007-1.33 0-1.877-.38-2.782-1.007-1.085-.752-2.571-1.782-5.264-1.782-2.692 0-4.178 1.03-5.263 1.782-.907.627-1.452 1.007-2.783 1.007-1.329 0-1.876-.38-2.781-1.007-1.085-.752-2.571-1.782-5.264-1.782s-4.179 1.03-5.265 1.782c-.904.627-1.451 1.007-2.78 1.007-1.33 0-1.876-.38-2.781-1.007-1.085-.752-2.571-1.782-5.264-1.782-2.692 0-4.178 1.03-5.264 1.782-.905.627-1.45 1.007-2.78 1.007s-1.876-.38-2.781-1.007c-1.085-.752-2.571-1.782-5.265-1.782-2.693 0-4.178 1.03-5.264 1.782-.905.627-1.45 1.007-2.78 1.007s-1.876-.38-2.781-1.007c-1.086-.752-2.571-1.782-5.264-1.782s-4.18 1.03-5.264 1.782c-.905.627-1.451 1.007-2.78 1.007-1.33 0-1.877-.38-2.781-1.007-1.085-.752-2.571-1.782-5.264-1.782s-4.179 1.03-5.264 1.782c-.905.627-1.45 1.007-2.78 1.007s-1.876-.38-2.781-1.007c-1.085-.752-2.571-1.782-5.264-1.782-2.692 0-4.179 1.03-5.263 1.782-.905.627-1.452 1.007-2.782 1.007-1.329 0-1.876-.38-2.781-1.007-1.084-.752-2.571-1.782-5.264-1.782s-4.178 1.03-5.264 1.782c-.905.627-1.45 1.007-2.78 1.007s-1.876-.38-2.781-1.007c-1.086-.752-2.572-1.782-5.264-1.782-2.693 0-4.18 1.03-5.264 1.782-.905.627-1.452 1.007-2.782 1.007-1.329 0-1.875-.38-2.78-1.007-1.084-.752-2.572-1.782-5.264-1.782v4.357c1.33 0 1.876.379 2.781 1.005 1.085.753 2.571 1.784 5.263 1.784 2.693 0 4.18-1.031 5.265-1.784.904-.626 1.451-1.005 2.781-1.005s1.876.379 2.781 1.005c1.084.753 2.571 1.784 5.264 1.784 2.692 0 4.178-1.031 5.264-1.784.904-.626 1.45-1.005 2.78-1.005s1.876.379 2.781 1.005c1.085.753 2.571 1.784 5.264 1.784 2.694 0 4.179-1.031 5.265-1.784.905-.626 1.451-1.005 2.78-1.005 1.33 0 1.876.379 2.781 1.005 1.085.753 2.571 1.784 5.264 1.784s4.179-1.031 5.263-1.784c.905-.626 1.451-1.005 2.781-1.005 1.329 0 1.876.379 2.78 1.005 1.085.753 2.571 1.784 5.265 1.784 2.692 0 4.178-1.031 5.263-1.784.905-.626 1.451-1.005 2.781-1.005s1.876.379 2.781 1.005c1.085.753 2.571 1.784 5.264 1.784s4.179-1.031 5.263-1.784c.905-.626 1.451-1.005 2.781-1.005s1.877.379 2.782 1.005c1.084.753 2.572 1.784 5.264 1.784 2.693 0 4.178-1.031 5.263-1.784.906-.626 1.451-1.005 2.781-1.005s1.876.379 2.781 1.005c1.085.753 2.572 1.784 5.264 1.784 2.693 0 4.179-1.031 5.263-1.784.906-.626 1.452-1.005 2.782-1.005s1.876.379 2.781 1.005c1.086.753 2.572 1.784 5.264 1.784 2.693 0 4.179-1.031 5.265-1.784.905-.626 1.452-1.005 2.781-1.005 1.33 0 1.876.379 2.782 1.005 1.085.753 2.571 1.784 5.264 1.784s4.178-1.031 5.264-1.784c.905-.626 1.452-1.005 2.782-1.005 1.329 0 1.876.379 2.781 1.005 1.084.753 2.571 1.784 5.264 1.784 2.692 0 4.178-1.031 5.264-1.784.905-.626 1.451-1.005 2.781-1.005s1.876.379 2.781 1.005c1.086.753 2.571 1.784 5.264 1.784s4.18-1.031 5.265-1.784c.905-.626 1.451-1.005 2.781-1.005 1.331 0 1.877.379 2.782 1.006 1.085.752 2.572 1.783 5.265 1.783s4.179-1.031 5.264-1.783c.905-.627 1.451-1.006 2.782-1.006v-4.357c-2.693 0-4.179 1.03-5.265 1.782"/><path d="m25.067 8.745c0 2.783-1.611 5.038-3.599 5.038-1.987 0-3.599-2.255-3.599-5.038s1.612-5.038 3.599-5.038c1.988 0 3.599 2.255 3.599 5.038"/><path d="m41.163 8.745c0 2.783-1.611 5.038-3.599 5.038-1.987 0-3.599-2.255-3.599-5.038s1.612-5.038 3.599-5.038c1.988 0 3.599 2.255 3.599 5.038"/><path d="m57.259 8.745c0 2.783-1.612 5.038-3.599 5.038-1.988 0-3.599-2.255-3.599-5.038s1.611-5.038 3.599-5.038c1.987 0 3.599 2.255 3.599 5.038"/><path d="m73.355 8.745c0 2.783-1.611 5.038-3.599 5.038s-3.599-2.255-3.599-5.038 1.611-5.038 3.599-5.038 3.599 2.255 3.599 5.038"/><path d="m89.451 8.745c0 2.783-1.611 5.038-3.599 5.038s-3.599-2.255-3.599-5.038 1.611-5.038 3.599-5.038 3.599 2.255 3.599 5.038"/><path d="m105.546 8.745c0 2.783-1.611 5.038-3.599 5.038s-3.599-2.255-3.599-5.038 1.611-5.038 3.599-5.038 3.599 2.255 3.599 5.038"/><path d="m121.642 8.745c0 2.783-1.611 5.038-3.599 5.038s-3.599-2.255-3.599-5.038 1.611-5.038 3.599-5.038 3.599 2.255 3.599 5.038"/><path d="m137.738 8.745c0 2.783-1.611 5.038-3.599 5.038s-3.599-2.255-3.599-5.038 1.611-5.038 3.599-5.038 3.599 2.255 3.599 5.038"/><path d="m153.833 8.745c0 2.783-1.611 5.038-3.599 5.038-1.987 0-3.599-2.255-3.599-5.038s1.612-5.038 3.599-5.038c1.988 0 3.599 2.255 3.599 5.038"/><path d="m169.929 8.745c0 2.783-1.611 5.038-3.599 5.038-1.987 0-3.599-2.255-3.599-5.038s1.612-5.038 3.599-5.038c1.988 0 3.599 2.255 3.599 5.038"/><path d="m186.026 8.745c0 2.783-1.612 5.038-3.599 5.038-1.988 0-3.599-2.255-3.599-5.038s1.611-5.038 3.599-5.038c1.987 0 3.599 2.255 3.599 5.038"/><path d="m202.121 8.745c0 2.783-1.611 5.038-3.599 5.038s-3.599-2.255-3.599-5.038 1.611-5.038 3.599-5.038 3.599 2.255 3.599 5.038"/><path d="m211.019 8.745c0 2.766 1.592 5.01 3.563 5.037v-10.074c-1.971.027-3.563 2.271-3.563 5.037"/><path d="m25.067 34.892c0 2.782-1.611 5.038-3.599 5.038-1.987 0-3.599-2.256-3.599-5.038 0-2.783 1.612-5.039 3.599-5.039 1.988 0 3.599 2.256 3.599 5.039"/><path d="m41.163 34.892c0 2.782-1.611 5.038-3.599 5.038-1.987 0-3.599-2.256-3.599-5.038 0-2.783 1.612-5.039 3.599-5.039 1.988 0 3.599 2.256 3.599 5.039"/><path d="m57.259 34.892c0 2.782-1.612 5.038-3.599 5.038-1.988 0-3.599-2.256-3.599-5.038 0-2.783 1.611-5.039 3.599-5.039 1.987 0 3.599 2.256 3.599 5.039"/><path d="m73.355 34.892c0 2.782-1.611 5.038-3.599 5.038s-3.599-2.256-3.599-5.038c0-2.783 1.611-5.039 3.599-5.039s3.599 2.256 3.599 5.039"/><path d="m89.451 34.892c0 2.782-1.611 5.038-3.599 5.038s-3.599-2.256-3.599-5.038c0-2.783 1.611-5.039 3.599-5.039s3.599 2.256 3.599 5.039"/><path d="m105.546 34.892c0 2.782-1.611 5.038-3.599 5.038s-3.599-2.256-3.599-5.038c0-2.783 1.611-5.039 3.599-5.039s3.599 2.256 3.599 5.039"/><path d="m121.642 34.892c0 2.782-1.611 5.038-3.599 5.038s-3.599-2.256-3.599-5.038c0-2.783 1.611-5.039 3.599-5.039s3.599 2.256 3.599 5.039"/><path d="m137.738 34.892c0 2.782-1.611 5.038-3.599 5.038s-3.599-2.256-3.599-5.038c0-2.783 1.611-5.039 3.599-5.039s3.599 2.256 3.599 5.039"/><path d="m153.833 34.892c0 2.782-1.611 5.038-3.599 5.038-1.987 0-3.599-2.256-3.599-5.038 0-2.783 1.612-5.039 3.599-5.039 1.988 0 3.599 2.256 3.599 5.039"/><path d="m169.929 34.892c0 2.782-1.611 5.038-3.599 5.038-1.987 0-3.599-2.256-3.599-5.038 0-2.783 1.612-5.039 3.599-5.039 1.988 0 3.599 2.256 3.599 5.039"/><path d="m186.026 34.892c0 2.782-1.612 5.038-3.599 5.038-1.988 0-3.599-2.256-3.599-5.038 0-2.783 1.611-5.039 3.599-5.039 1.987 0 3.599 2.256 3.599 5.039"/><path d="m202.121 34.892c0 2.782-1.611 5.038-3.599 5.038s-3.599-2.256-3.599-5.038c0-2.783 1.611-5.039 3.599-5.039s3.599 2.256 3.599 5.039"/><path d="m211.019 34.892c0 2.765 1.592 5.01 3.563 5.037v-10.074c-1.971.027-3.563 2.271-3.563 5.037"/><path d="m25.067 61.038c0 2.782-1.611 5.038-3.599 5.038-1.987 0-3.599-2.256-3.599-5.038 0-2.783 1.612-5.039 3.599-5.039 1.988 0 3.599 2.256 3.599 5.039"/><path d="m41.163 61.038c0 2.782-1.611 5.038-3.599 5.038-1.987 0-3.599-2.256-3.599-5.038 0-2.783 1.612-5.039 3.599-5.039 1.988 0 3.599 2.256 3.599 5.039"/><path d="m57.259 61.038c0 2.782-1.612 5.038-3.599 5.038-1.988 0-3.599-2.256-3.599-5.038 0-2.783 1.611-5.039 3.599-5.039 1.987 0 3.599 2.256 3.599 5.039"/><path d="m73.355 61.038c0 2.782-1.611 5.038-3.599 5.038s-3.599-2.256-3.599-5.038c0-2.783 1.611-5.039 3.599-5.039s3.599 2.256 3.599 5.039"/><path d="m89.451 61.038c0 2.782-1.611 5.038-3.599 5.038s-3.599-2.256-3.599-5.038c0-2.783 1.611-5.039 3.599-5.039s3.599 2.256 3.599 5.039"/><path d="m105.546 61.038c0 2.782-1.611 5.038-3.599 5.038s-3.599-2.256-3.599-5.038c0-2.783 1.611-5.039 3.599-5.039s3.599 2.256 3.599 5.039"/><path d="m121.642 61.038c0 2.782-1.611 5.038-3.599 5.038s-3.599-2.256-3.599-5.038c0-2.783 1.611-5.039 3.599-5.039s3.599 2.256 3.599 5.039"/><path d="m137.738 61.038c0 2.782-1.611 5.038-3.599 5.038s-3.599-2.256-3.599-5.038c0-2.783 1.611-5.039 3.599-5.039s3.599 2.256 3.599 5.039"/><path d="m153.833 61.038c0 2.782-1.611 5.038-3.599 5.038-1.987 0-3.599-2.256-3.599-5.038 0-2.783 1.612-5.039 3.599-5.039 1.988 0 3.599 2.256 3.599 5.039"/><path d="m169.929 61.038c0 2.782-1.611 5.038-3.599 5.038-1.987 0-3.599-2.256-3.599-5.038 0-2.783 1.612-5.039 3.599-5.039 1.988 0 3.599 2.256 3.599 5.039"/><path d="m186.026 61.038c0 2.782-1.612 5.038-3.599 5.038-1.988 0-3.599-2.256-3.599-5.038 0-2.783 1.611-5.039 3.599-5.039 1.987 0 3.599 2.256 3.599 5.039"/><path d="m202.121 61.038c0 2.782-1.611 5.038-3.599 5.038s-3.599-2.256-3.599-5.038c0-2.783 1.611-5.039 3.599-5.039s3.599 2.256 3.599 5.039"/><path d="m211.019 61.038c0 2.765 1.592 5.01 3.563 5.037v-10.074c-1.971.027-3.563 2.271-3.563 5.037"/><path d="m25.067 87.185c0 2.782-1.611 5.038-3.599 5.038-1.987 0-3.599-2.256-3.599-5.038 0-2.783 1.612-5.039 3.599-5.039 1.988 0 3.599 2.256 3.599 5.039"/><path d="m41.163 87.185c0 2.782-1.611 5.038-3.599 5.038-1.987 0-3.599-2.256-3.599-5.038 0-2.783 1.612-5.039 3.599-5.039 1.988 0 3.599 2.256 3.599 5.039"/><path d="m57.259 87.185c0 2.782-1.612 5.038-3.599 5.038-1.988 0-3.599-2.256-3.599-5.038 0-2.783 1.611-5.039 3.599-5.039 1.987 0 3.599 2.256 3.599 5.039"/><path d="m73.355 87.185c0 2.782-1.611 5.038-3.599 5.038s-3.599-2.256-3.599-5.038c0-2.783 1.611-5.039 3.599-5.039s3.599 2.256 3.599 5.039"/><path d="m89.451 87.185c0 2.782-1.611 5.038-3.599 5.038s-3.599-2.256-3.599-5.038c0-2.783 1.611-5.039 3.599-5.039s3.599 2.256 3.599 5.039"/><path d="m105.546 87.185c0 2.782-1.611 5.038-3.599 5.038s-3.599-2.256-3.599-5.038c0-2.783 1.611-5.039 3.599-5.039s3.599 2.256 3.599 5.039"/><path d="m121.642 87.185c0 2.782-1.611 5.038-3.599 5.038s-3.599-2.256-3.599-5.038c0-2.783 1.611-5.039 3.599-5.039s3.599 2.256 3.599 5.039"/><path d="m137.738 87.185c0 2.782-1.611 5.038-3.599 5.038s-3.599-2.256-3.599-5.038c0-2.783 1.611-5.039 3.599-5.039s3.599 2.256 3.599 5.039"/><path d="m153.833 87.185c0 2.782-1.611 5.038-3.599 5.038-1.987 0-3.599-2.256-3.599-5.038 0-2.783 1.612-5.039 3.599-5.039 1.988 0 3.599 2.256 3.599 5.039"/><path d="m169.929 87.185c0 2.782-1.611 5.038-3.599 5.038-1.987 0-3.599-2.256-3.599-5.038 0-2.783 1.612-5.039 3.599-5.039 1.988 0 3.599 2.256 3.599 5.039"/><path d="m186.026 87.185c0 2.782-1.612 5.038-3.599 5.038-1.988 0-3.599-2.256-3.599-5.038 0-2.783 1.611-5.039 3.599-5.039 1.987 0 3.599 2.256 3.599 5.039"/><path d="m202.121 87.185c0 2.782-1.611 5.038-3.599 5.038s-3.599-2.256-3.599-5.038c0-2.783 1.611-5.039 3.599-5.039s3.599 2.256 3.599 5.039"/><path d="m211.019 87.185c0 2.765 1.592 5.009 3.563 5.036v-10.073c-1.971.027-3.563 2.271-3.563 5.037"/></g></g><g fill-rule="nonzero"><path d="m137.475 22.581c-.18.502-.368 1.002-.537 1.508-.61 1.83-1.406 3.568-2.592 5.099-1.465 1.894-2.925 3.793-4.45 5.639-.819.99-1.77 1.869-2.661 2.799-.131.137-.26.276-.506.537 1.093 0 2.01.018 2.924-.012.24-.009.515-.112.705-.262.52-.405 1.055-.812 1.492-1.301 2.214-2.479 3.766-5.35 4.919-8.452.665-1.789.789-3.65.706-5.555m-32.258 70.212c.218.034.368.103.487.069 1.378-.406 2.773-.769 4.12-1.258 1.592-.578 3.069-1.422 4.72-1.891 1.409-.401 2.793-.978 4.096-1.654 1.83-.952 3.578-2.062 5.357-3.115 1.457-.861 2.241-2.942 1.718-4.665-.545.241-1.082.476-1.615.719-.604.275-1.187.6-1.807.834-2.002.753-4.016 1.477-6.028 2.206-1.705.62-3.436 1.114-5.276 1.123-.265.001-.565.142-.785.304-.974.72-1.636 1.711-2.141 2.78-.65 1.38-1.459 2.648-2.377 3.855-.154.201-.284.418-.469.693m51.079-21.057c-.326.295-.663.577-.974.884-1.37 1.348-2.98 2.277-4.813 2.85-1.01.316-2.007.392-3.054.221-2.491-.405-4.691-1.495-6.84-2.751-1.956-1.143-3.533-2.65-4.717-4.584-.306-.499-.692-.956-1.081-1.399-1.477-1.675-2.68-3.537-3.609-5.556-1.172-2.554-2.728-4.787-4.791-6.715-.735-.687-1.438-.912-2.369-.849-.599.041-.973.304-1.159.851-.531 1.562-.654 3.158-.418 4.804.177.062.309.132.447.153 1.09.158 1.889.778 2.583 1.585.877 1.018 1.514 2.172 2.053 3.398 1.278 2.905 2.575 5.802 3.895 8.688.844 1.845 1.985 3.455 3.8 4.493.351.201.647.494.991.709 1.168.73 2.402 1.34 3.784 1.486 1.39.146 2.793.199 4.193.243 2.178.069 4.164-.51 5.867-1.91 1.453-1.195 2.86-2.446 4.335-3.614.965-.766 1.605-1.708 1.877-2.987m-52.37 21.121c1.248-1.436 2.37-2.965 3.274-4.671.53-.999 1.141-2.024 1.953-2.784.826-.773 1.074-1.517.776-2.535-.051-.176-.091-.358-.149-.532-1.112-3.4-1.362-6.934-1.656-10.463-.095-1.137-.224-2.273-.375-3.405-.211-1.57-.448-3.138-.693-4.703-.482-3.057-.932-6.12-1.481-9.164-.438-2.43-1.034-4.83-1.5-7.254-.367-1.918-.611-3.856-.969-5.775-.608-3.269-.934-6.571-1.128-9.884-.074-1.263-.26-2.481-.581-3.701-.707-2.676-1.203-5.399-1.441-8.156-.148-1.726-.137-3.465-.207-5.198-.009-.263-.06-.523-.125-1.057-1.472 2.484-3.405 4.222-5.055 6.199-1.037 1.244-1.941 2.602-2.849 3.949-.912 1.354-1.128 2.818-.681 4.434.39 1.416.632 2.878.873 4.332.602 3.634 1.098 7.283 2.014 10.865 1.04 4.071 1.933 8.179 2.88 12.272.782 3.377 1.582 6.747 2.307 10.135.385 1.799.566 3.642.949 5.442.852 4.011 1.379 8.062 1.647 12.149.051.771.131 1.548.285 2.305.427 2.094.892 4.18 1.362 6.263.075.34.082.752.57.937m54.913-28.689c-1.645 1.109-2.604 1.506-3.839 1.65-4.37.509-8.383-2.427-9.676-5.175-1.013-2.149-1.833-4.356-2.377-6.658-.51-2.166-1.216-4.247-2.151-6.267-.897-1.941-2.22-3.564-3.593-5.161-.212-.248-.487-.458-.768-.631-1.921-1.186-3.874-2.309-6.148-2.686-1.58-.263-3.173-.34-4.709.177-1.396.469-2.749 1.065-4.121 1.605-.137.055-.28.178-.405.161-.227-.031-.48-.102-.645-.245-.056-.049.109-.367.191-.554.026-.059.111-.095.176-.131 1.319-.742 2.609-1.54 3.965-2.202 1.183-.578 2.272-1.252 3.111-2.262 1.839-2.214 3.686-4.423 5.445-6.702.783-1.015 1.492-2.13 2.006-3.301 1.234-2.816 2.152-5.745 2.212-8.858.03-1.622-.009-3.254-.164-4.867-.146-1.502-.931-2.77-1.807-3.987-1.198-1.668-2.693-2.907-4.635-3.624-.825-.305-1.608-.736-2.388-1.151-.565-.3-1.13-.544-1.782-.519-2.507.094-5.014.174-7.52.285-.847.037-1.694.117-2.533.239-.981.143-1.977.27-2.921.554-1.27.384-2.475.978-3.743 1.363-1.802.545-3.365 1.503-4.859 2.597-1.561 1.14-2.956 2.445-3.944 4.141-.421.723-.625 1.481-.628 2.317-.007 2.363.064 4.713.39 7.065.319 2.306.736 4.583 1.337 6.828.308 1.144.535 2.298.501 3.493-.015.515-.015 1.038.052 1.548.338 2.631.709 5.257 1.05 7.887.365 2.816.841 5.61 1.491 8.377.43 1.828.825 3.669 1.128 5.524.588 3.599 1.039 7.221 1.66 10.814.51 2.95.786 5.924.983 8.897.203 3.079.95 6.04 1.57 9.033.137.666.357.813 1.022.65 1.431-.353 2.908-.614 4.26-1.172 2.795-1.151 5.783-1.815 8.427-3.342.22-.128.484-.178.726-.267 1.191-.434 1.341-.793.911-2.015-.334-.938-.657-1.881-.933-2.836-.798-2.764-1.561-5.537-2.357-8.299-.864-3-1.362-6.047-1.189-9.175.051-.913.184-1.838.424-2.719.318-1.169.899-1.542 2.099-1.58.331-.011.666.006.998-.004.468-.016.844.153 1.199.466 2.301 2.026 4.207 4.342 5.445 7.177.743 1.699 1.73 3.26 2.837 4.743.925 1.241 1.868 2.471 2.83 3.683.458.577.911 1.189 1.483 1.636 2.532 1.969 5.284 3.529 8.484 4.116.675.124 1.418.178 2.079.033 1.525-.333 2.936-.975 4.183-1.947 2.463-1.92 4.13-4.392 5.119-7.336.152-.45.255-.908.041-1.386m-36.26-3.862c0 .435-.057.839.009 1.222.394 2.291.94 4.545 1.664 6.76.398 1.223.648 2.496 1.005 3.736.47 1.629.945 3.259 1.482 4.867.322.968.554 1.856.112 2.888-.278.649-.234 1.443-.3 2.175-.176 1.949-1.186 3.218-2.951 4.076-1.555.755-2.993 1.749-4.486 2.633-.317.186-.632.394-.974.52-1.419.52-2.858.984-4.27 1.523-1.102.419-2.193.879-3.255 1.39-1.481.713-3.1.947-4.643 1.439-.489.155-1.008.217-1.516.31-.87.159-1.423-.138-1.757-.948-.085-.203-.139-.42-.185-.636-.538-2.56-1.093-5.116-1.592-7.682-.169-.865-.245-1.756-.281-2.639-.173-4.331-1.12-8.543-1.92-12.779-.602-3.186-1.149-6.385-1.873-9.544-1.393-6.071-2.926-12.111-4.332-18.18-.448-1.935-.669-3.922-1.013-5.882-.462-2.649-.907-5.301-1.429-7.938-.292-1.476.057-2.791.778-4.029 1.251-2.146 2.764-4.094 4.485-5.89.969-1.011 1.876-2.086 2.753-3.178 1.133-1.406 2.166-2.894 3.325-4.277.755-.901 1.592-1.758 2.505-2.496 1.695-1.374 3.504-2.576 5.635-3.229 1.198-.366 2.349-.883 3.527-1.314 1.328-.487 2.704-.714 4.116-.781.92-.044 1.835-.194 2.755-.23 2.36-.092 4.721-.14 7.083-.218.658-.022 1.214.25 1.78.529.891.443 1.779.894 2.691 1.29 3.664 1.593 5.837 4.403 6.696 8.249.2.892.2 1.835.222 2.756.052 2.142.182 4.29.049 6.421-.118 1.869-.05 3.764-.533 5.607-.663 2.529-1.832 4.828-3.193 7.03-1.027 1.662-2.219 3.209-3.904 4.516.438.153.763.272 1.092.381 2.883.957 5.455 2.317 7.339 4.854 2.109 2.843 3.502 5.969 4.317 9.381.532 2.233 1.264 4.393 2.187 6.493 1.312 2.98 3.645 4.727 6.755 5.342 2.222.44 4.351.075 5.964-1.776.073-.083.137-.196.23-.236.255-.108.572-.311.773-.235.211.079.438.435.445.677.023.73.063 1.496-.125 2.188-.261.954-.67 1.879-1.116 2.765-.43.852-.941 1.644-1.133 2.613-.467 2.378-1.951 4.082-3.801 5.527-.698.545-1.344 1.156-2.047 1.692-.791.604-1.616 1.165-2.433 1.734-1.165.809-2.501 1.093-3.878 1.142-1.955.069-3.915.109-5.856-.228-1.367-.239-2.596-.825-3.765-1.548-.281-.174-.524-.415-.812-.577-2.022-1.138-3.289-2.928-4.275-4.954-.564-1.161-1.105-2.335-1.63-3.514-.916-2.057-1.801-4.127-2.717-6.183-.471-1.056-1.145-1.983-1.972-2.791-.475-.463-1.016-.827-1.807-.814" fill="#231f20"/><path d="m126.736 2.78c-2.507.094-5.013.174-7.518.285-.848.037-1.696.117-2.534.238-.981.143-1.977.27-2.921.555-1.27.384-2.475.978-3.743 1.362-1.803.546-3.364 1.504-4.859 2.598-1.561 1.14-2.955 2.444-3.945 4.141-.42.721-.624 1.481-.627 2.317-.007 2.363.064 4.714.39 7.066.319 2.305.736 4.582 1.338 6.826.307 1.145.534 2.299.5 3.493-.016.516-.016 1.04.052 1.55.338 2.63.709 5.256 1.05 7.886.365 2.815.84 5.61 1.491 8.376.43 1.829.825 3.671 1.128 5.524.588 3.6 1.039 7.222 1.66 10.815.512 2.95.786 5.924.983 8.897.204 3.08.95 6.039 1.569 9.034.138.666.359.813 1.023.649 1.431-.353 2.908-.614 4.261-1.17 2.795-1.152 5.782-1.817 8.426-3.346.22-.125.485-.177.726-.264 1.191-.435 1.343-.794.911-2.015-.333-.938-.656-1.881-.934-2.837-.797-2.764-1.559-5.537-2.355-8.299-.864-3-1.363-6.047-1.19-9.175.051-.913.184-1.838.425-2.719.317-1.168.898-1.542 2.099-1.58l.997-.004c.468-.016.845.154 1.199.466 2.302 2.026 4.206 4.342 5.445 7.177.742 1.699 1.73 3.26 2.837 4.743.927 1.24 1.867 2.471 2.83 3.684.457.577.911 1.189 1.483 1.635 2.531 1.969 5.283 3.529 8.484 4.116.675.124 1.418.178 2.079.033 1.524-.334 2.936-.975 4.183-1.947 2.463-1.92 4.129-4.392 5.12-7.336.151-.45.255-.908.041-1.386-1.646 1.108-2.604 1.506-3.841 1.65-4.369.509-8.381-2.426-9.676-5.175-1.011-2.149-1.832-4.357-2.377-6.659-.51-2.165-1.215-4.246-2.151-6.266-.896-1.941-2.22-3.564-3.591-5.16-.213-.248-.488-.458-.768-.631-1.923-1.186-3.875-2.31-6.15-2.687-1.579-.263-3.172-.34-4.708.177-1.396.468-2.749 1.065-4.122 1.606-.135.054-.278.177-.404.16-.227-.03-.479-.102-.645-.244-.056-.051.109-.369.191-.555.027-.058.111-.094.176-.131 1.319-.741 2.609-1.54 3.965-2.202 1.182-.578 2.273-1.252 3.111-2.261 1.839-2.215 3.686-4.425 5.445-6.703.783-1.014 1.492-2.13 2.006-3.3 1.234-2.817 2.154-5.746 2.212-8.859.031-1.621-.01-3.254-.164-4.867-.145-1.502-.931-2.77-1.807-3.989-1.197-1.666-2.693-2.905-4.634-3.621-.826-.306-1.609-.737-2.389-1.15-.539-.287-1.078-.523-1.693-.523-.03 0-.06.002-.09.002zm-14.372 29.364c-.347-1.049-.677-2.113-.881-3.196-.349-1.846-.584-3.712-.889-5.565-.166-1.018-.39-2.026-.563-3.043-.129-.758-.215-1.523-.302-2.157.447-.341.775-.496.964-.751 1.223-1.66 2.671-3.033 4.547-3.958 1.057-.521 2.02-1.228 3.059-1.789 1.878-1.014 3.853-1.615 6.035-1.552 2.159.061 4.148 1.91 4.438 3.691.235 1.455.419 2.917.63 4.375.232 1.606-.314 3.052-.916 4.487-.029.067-.09.123-.11.192-.741 2.642-2.78 4.309-4.659 6.061-1.134 1.057-2.533 1.774-4.044 2.216-.285.083-.594.117-.847.253-1.402.757-2.958.868-4.483 1.117-.328.054-.655.108-.98.169-.173.032-.311.054-.424.054-.295 0-.423-.144-.575-.604z" fill="url(#a)"/><path d="m125.164 74.759c-.066-.229-.131-.459-.195-.689-.752 1.12-1.705 2.071-3.024 2.642-2.074.897-4.812.855-6.859-.114-2.392-1.131-3.558-3.725-4.541-6.03-1.516-3.553-2.371-7.349-2.971-11.153-1.206-7.669-1.832-15.481-2.732-23.193-1.057-9.061-1.699-18.192-1.041-27.305-1.002.878-1.896 1.861-2.584 3.042-.421.723-.625 1.481-.628 2.317-.007 2.364.064 4.714.389 7.065.32 2.306.737 4.583 1.339 6.828.307 1.144.534 2.298.499 3.493-.014.515-.014 1.038.052 1.549.338 2.63.711 5.257 1.051 7.887.365 2.816.841 5.609 1.491 8.376.43 1.829.825 3.67 1.129 5.524.587 3.599 1.037 7.221 1.66 10.814.51 2.951.785 5.924.982 8.898.204 3.078.95 6.039 1.569 9.032.138.667.358.814 1.023.65 1.431-.353 2.908-.614 4.26-1.17 2.795-1.152 5.783-1.817 8.426-3.344.221-.127.485-.178.727-.266 1.192-.434 1.342-.793.91-2.015-.332-.938-.655-1.881-.932-2.838" fill="#662c91" opacity=".5"/><path d="m158.84 64.168c-1.647 1.108-2.604 1.506-3.839 1.65-.221.024-.439.036-.657.044-2.4 4.046-6.451 6.677-11.611 4.437-6.956-3.02-8.339-12.793-15.099-15.623 1.719 1.727 3.153 3.669 4.149 5.95.742 1.699 1.731 3.26 2.836 4.742.927 1.242 1.869 2.472 2.831 3.684.458.577.911 1.189 1.484 1.636 2.53 1.969 5.283 3.529 8.483 4.116.676.124 1.418.178 2.079.033 1.524-.333 2.936-.975 4.183-1.948 2.463-1.919 4.129-4.391 5.12-7.335.151-.45.255-.908.041-1.386" fill="#662c91" opacity=".5"/><path d="m94.57 19.774c-1.037 1.244-1.943 2.602-2.85 3.948-.912 1.355-1.128 2.818-.682 4.435.393 1.416.633 2.879.875 4.332.601 3.635 1.097 7.284 2.013 10.865 1.041 4.071 1.933 8.178 2.88 12.273.782 3.375 1.582 6.746 2.309 10.135.383 1.798.564 3.641.946 5.441.853 4.012 1.38 8.061 1.648 12.15.052.77.131 1.547.285 2.304.427 2.094.892 4.18 1.361 6.265.077.337.083.75.571.936 1.248-1.438 2.37-2.966 3.274-4.672.531-.999 1.141-2.024 1.952-2.786.827-.771 1.074-1.515.777-2.532-.05-.177-.092-.358-.149-.532-1.112-3.399-1.362-6.935-1.656-10.464-.096-1.137-.224-2.274-.376-3.405-.21-1.571-.447-3.138-.692-4.703-.481-3.057-.932-6.12-1.48-9.163-.438-2.43-1.034-4.83-1.501-7.255-.368-1.916-.612-3.856-.969-5.776-.607-3.268-.934-6.57-1.127-9.882-.075-1.263-.262-2.483-.583-3.701-.706-2.677-1.202-5.399-1.44-8.157-.147-1.726-.137-3.466-.206-5.198-.011-.262-.061-.522-.127-1.057-1.471 2.483-3.404 4.223-5.053 6.199z" fill="url(#c)"/><path d="m124.048 53.837c-.598.041-.974.304-1.159.851-.531 1.562-.653 3.157-.418 4.804.177.062.308.132.447.153 1.09.158 1.889.779 2.584 1.585.876 1.018 1.513 2.172 2.053 3.397 1.277 2.907 2.575 5.803 3.894 8.689.844 1.845 1.985 3.455 3.8 4.493.351.201.647.494.991.709 1.168.73 2.402 1.34 3.783 1.485 1.392.149 2.794.2 4.193.244 2.179.07 4.167-.51 5.867-1.91 1.454-1.194 2.861-2.446 4.336-3.614.965-.765 1.605-1.708 1.876-2.986-.325.294-.66.576-.974.883-1.37 1.348-2.979 2.277-4.812 2.851-1.01.316-2.008.391-3.054.22-2.492-.405-4.691-1.495-6.84-2.751-1.956-1.143-3.532-2.651-4.717-4.583-.306-.499-.692-.957-1.081-1.399-1.476-1.676-2.68-3.537-3.609-5.557-1.172-2.553-2.729-4.787-4.791-6.715-.657-.614-1.29-.859-2.082-.859-.093 0-.189.003-.287.01z" fill="url(#d)"/><path d="m124.1 80.998c-.603.275-1.187.6-1.807.834-2.002.754-4.016 1.477-6.027 2.207-1.706.619-3.436 1.113-5.277 1.122-.265.001-.564.142-.785.304-.973.721-1.637 1.712-2.141 2.779-.65 1.381-1.459 2.65-2.377 3.857-.152.2-.283.416-.469.692.218.033.368.104.488.067 1.378-.404 2.771-.766 4.119-1.256 1.593-.578 3.07-1.422 4.72-1.891 1.409-.399 2.792-.978 4.095-1.655 1.83-.951 3.58-2.061 5.357-3.113 1.457-.86 2.242-2.944 1.72-4.666-.545.242-1.084.476-1.616.719z" fill="url(#e)"/><path d="m137.475 22.581c.083 1.905-.041 3.766-.706 5.555-1.153 3.102-2.705 5.973-4.919 8.452-.437.489-.972.896-1.492 1.301-.19.15-.465.253-.705.262-.914.03-1.831.012-2.924.012.246-.261.375-.4.506-.537.891-.93 1.842-1.809 2.661-2.799 1.525-1.846 2.985-3.745 4.45-5.639 1.186-1.531 1.982-3.269 2.592-5.099.169-.506.357-1.006.537-1.508" fill="#f15a29"/><path d="m128.155 20.955c.422-.471.412-.991.425-1.509.039-1.705-.21-3.382-.482-5.057-.331-2.05-1.98-3.491-4.055-3.537-2.061-.046-3.908.651-5.67 1.633-1.225.683-2.45 1.367-3.653 2.086-1.647.982-2.98 2.292-3.926 3.966-.15.266-.261.637-.205.924.232 1.227.534 2.441.82 3.658.009.042.112.061.238.123.866-1.701 2.408-2.739 3.876-3.853 1.753-1.333 3.838-1.619 5.932-1.868.252-.031.521-.003.771.048 2.033.426 3.847 1.266 5.289 2.809.194.208.422.383.64.577m-14.964 10.81c1.706-.114 3.43-.175 5.03-.972.39-.195.84-.266 1.257-.409.381-.129.771-.245 1.128-.426 1.355-.687 2.632-1.478 3.62-2.672.326-.395.708-.756 1.108-1.08 1.171-.951 1.716-2.275 2.238-3.623.196-.509.082-.906-.294-1.302-3.296-3.465-6.256-3.403-9.96-2.157-2.15 1.259-4.16 2.666-5.391 4.936-.221.407-.327.795-.289 1.259.175 2.106.767 4.119 1.333 6.138.028.098.122.176.22.308m-3.462-13.582c.448-.341.775-.495.963-.751 1.225-1.66 2.672-3.033 4.548-3.957 1.057-.522 2.02-1.228 3.059-1.79 1.878-1.014 3.853-1.615 6.035-1.552 2.158.061 4.147 1.91 4.437 3.69.236 1.455.421 2.918.631 4.377.231 1.605-.314 3.051-.916 4.486-.029.068-.09.123-.109.192-.742 2.642-2.781 4.31-4.66 6.061-1.135 1.058-2.533 1.774-4.045 2.216-.283.083-.592.117-.846.254-1.403.757-2.959.867-4.484 1.117-.327.052-.653.107-.979.169-.624.116-.788.086-1-.552-.346-1.048-.677-2.112-.88-3.195-.349-1.845-.583-3.711-.888-5.565-.166-1.018-.392-2.026-.564-3.043-.129-.758-.214-1.523-.302-2.157" fill="#231f20"/><path d="m118.373 12.485c-1.226.683-2.45 1.367-3.653 2.086-1.648.981-2.98 2.293-3.926 3.967-.151.265-.26.636-.204.922.233 1.228.533 2.442.818 3.66.01.04.113.06.24.121.866-1.7 2.407-2.738 3.875-3.853 1.753-1.333 3.839-1.617 5.932-1.868.253-.029.521-.002.771.049 2.034.425 3.846 1.267 5.289 2.81.194.207.422.382.64.576.422-.472.414-.991.425-1.509.039-1.705-.21-3.382-.481-5.057-.331-2.05-1.982-3.491-4.057-3.537-.065-.002-.128-.002-.193-.002-1.983 0-3.77.684-5.476 1.635z" fill="url(#f)"/><path d="m133.987 22.581s5.524-7.892-2.442-15.273c-1.423-1.32-3.274-2.139-5.213-2.204-1.173-.04-2.169.199-1.922 1.193.554 2.21 8.224 4.924 7.704 10.749s.369 9.059 1.873 5.535" fill="#fff" opacity=".7"/><path d="m123.49 42.391s11.627-4.759 14.008 5.54c2.382 10.297-.764-.363-7.386-2.951-6.622-2.589-6.437 1.646-9.015.542-2.579-1.105 2.393-3.131 2.393-3.131" fill="#fff" opacity=".7"/><path d="m.016 9.794h4.927v-1.352h-3.393v-8.268h-1.534v9.62z" fill="#008fd4"/><path d="m13.094 2.722h-1.352v1.248c-.325-.676-1.222-1.456-2.626-1.456-2.054 0-3.627 1.586-3.627 3.744 0 1.976 1.352 3.744 3.627 3.744 1.118 0 2.132-.494 2.626-1.443v1.235h1.352zm-6.253 3.549c0-1.326.962-2.496 2.444-2.496 1.131 0 1.924.637 2.262 1.456.156.325.221.689.208 1.053s-.091.728-.247 1.053c-.351.806-1.118 1.404-2.197 1.404-1.716 0-2.457-1.404-2.47-2.457z" fill="#008fd4"/><path d="m18.71.174h1.352v9.62h-1.352z" fill="#008fd4"/><path d="m28.746 6.687c.117-1.183-.234-2.288-1.066-3.133-.676-.663-1.599-1.04-2.613-1.04-2.145 0-3.731 1.729-3.731 3.757 0 1.872 1.43 3.731 3.744 3.731.715 0 1.417-.195 2.015-.598.598-.39 1.092-.975 1.43-1.755h-1.404c-.39.741-1.092 1.196-2.041 1.196-1.066 0-2.314-.728-2.379-2.158zm-6.019-1.053c.065-.962.962-1.963 2.34-1.963 1.339-.026 2.275 1.027 2.34 1.963z" fill="#008fd4"/><path d="m30.579 9.794h1.352v-6.019h1.365v-1.053h-1.365v-2.548h-1.352v2.548h-1.274v1.053h1.274z" fill="#008fd4"/><path d="m34.31 9.794h1.352v-3.822c0-1.404.663-2.106 1.937-2.106h.091v-1.352c-.962.013-1.703.416-2.106 1.248v-1.04h-1.274z" fill="#008fd4"/><path d="m45.451 2.722h-1.352v1.248c-.325-.676-1.222-1.456-2.626-1.456-2.054 0-3.627 1.586-3.627 3.744 0 1.976 1.352 3.744 3.627 3.744 1.118 0 2.132-.494 2.626-1.443v1.235h1.352zm-6.253 3.549c0-1.326.962-2.496 2.444-2.496 1.131 0 1.924.637 2.262 1.456.156.325.221.689.208 1.053s-.091.728-.247 1.053c-.351.806-1.118 1.404-2.197 1.404-1.716 0-2.457-1.404-2.47-2.457z" fill="#008fd4"/></g></svg>