<svg clip-rule="evenodd" fill-rule="evenodd" stroke-linecap="round" stroke-linejoin="round" viewBox="0 0 219 108" xmlns="http://www.w3.org/2000/svg" xmlns:xlink="http://www.w3.org/1999/xlink"><radialGradient id="a" cx="117.218" cy="54.8596" gradientUnits="userSpaceOnUse" r="28.6303"><stop offset="0" stop-color="#ffe580"/><stop offset=".43" stop-color="#ffe580"/><stop offset=".98" stop-color="#ffd466"/><stop offset="1" stop-color="#ffd466"/></radialGradient><g fill-rule="nonzero"><path d="m214.933 44.917c2.845 22.42-38.572 46.14-92.508 52.984-53.935 6.843-99.964-5.783-102.808-28.202-2.845-22.419 38.572-46.142 92.508-52.985 53.934-6.843 99.963 5.783 102.808 28.203" fill="#92d4d3" opacity=".6"/><path d="m217.632 89.324c-7.44 21.338-55.089 24.124-106.425 6.223-51.336-17.902-86.918-49.713-79.478-71.051 7.441-21.338 55.089-24.124 106.425-6.223s86.919 49.712 79.478 71.051" fill="#b19ccb" opacity=".6"/><path d="m115.126 84.695c.617-.068 1.483-.065 2.294-.275 2.392-.617 4.774-1.281 7.137-2 1.838-.561 3.616-1.292 5.272-2.29 1.233-.743 2.503-1.428 3.716-2.202.868-.553 1.751-1.127 2.486-1.839 1.721-1.67 3.357-3.429 5.028-5.151.81-.836 1.396-1.822 1.803-2.898.732-1.932 1.424-3.88 2.101-5.831.192-.555.326-1.141.393-1.723.369-3.261.741-6.521 1.048-9.788.131-1.391.226-2.804-.126-4.19-.337-1.321-.695-2.638-1.033-3.959-.677-2.635-1.924-5.026-3.171-7.415-.975-1.868-2.464-3.314-4.021-4.681-.631-.553-1.355-1.03-2.103-1.413-2.546-1.303-5.301-2.029-8.052-2.746-2.039-.532-4.142-.681-6.224-.971-2.541-.352-5.08-.405-7.616-.09-1.013.127-2.084.329-2.975.793-2.675 1.396-5.372 2.741-7.748 4.693-2.326 1.909-4.49 3.945-6.421 6.243-1.188 1.413-2.384 2.817-3.187 4.51-1.25 2.635-2.531 5.255-3.249 8.103-.01.036-.024.07-.036.105-1.323 3.776-2.058 7.687-2.661 11.628-.05.32-.092.702.031.984.509 1.168.567 2.432.853 3.646.297 1.256.604 2.493 1.24 3.651 1.637 2.986 3.805 5.532 6.28 7.833.591.55 1.232 1.08 1.934 1.468 2.134 1.177 4.246 2.42 6.48 3.376 3.27 1.396 6.716 2.223 10.527 2.429m38.094-30.322c0 1.255-.031 2.513.006 3.768.08 2.707-.585 5.264-1.525 7.765-1.742 4.633-4.366 8.691-7.897 12.167-1.815 1.786-3.496 3.71-5.584 5.207-1.144.822-2.322 1.569-3.628 2.107-1.365.563-2.732 1.122-4.081 1.723-1.562.694-3.2 1.109-4.863 1.464-1.044.223-2.093.443-3.119.739-1.29.373-2.608.525-3.932.568-7.844.258-15.223-1.51-22.158-5.172-1.338-.707-2.68-1.41-4.046-2.063-1.776-.849-3.216-2.074-4.362-3.666-.388-.539-.756-1.098-1.19-1.599-1.588-1.833-2.468-3.991-3.079-6.306-.9-3.408-1.333-6.862-1.365-10.388-.029-2.887.13-5.765.513-8.61.533-3.954 1.506-7.817 3.208-11.462.859-1.839 1.632-3.718 2.513-5.544.676-1.4 1.529-2.711 2.604-3.839 1.526-1.605 3.074-3.193 4.681-4.713 1.324-1.252 2.897-2.157 4.574-2.877 2.272-.977 4.537-1.97 6.805-2.957 1.636-.711 3.345-1.093 5.118-1.319 3.349-.426 6.706-.346 10.063-.343 1.031.001 2.062.128 3.095.139.807.008 1.624-.019 2.424-.126 1.25-.167 2.428.146 3.586.495 1.304.393 2.575.901 3.849 1.388.302.115.58.321.839.523.406.318.768.696 1.185.999 1.848 1.343 3.706 2.675 5.565 4.002 1.609 1.147 2.921 2.552 4.088 4.155.823 1.136 1.252 2.379 1.768 3.636.578 1.408.91 2.886 1.457 4.285.811 2.069 1.336 4.218 2.037 6.316.554 1.658.866 3.348.829 5.104-.032 1.478-.007 2.956-.007 4.434z" fill="#9ba7af"/><path d="m109.242 90.385c.694.071 1.393.111 2.081.218 2.608.401 5.23.236 7.849.258 1.803.017 3.487-.544 5.209-.944 2.009-.466 4.06-.77 5.977-1.588 1.732-.739 3.476-1.448 5.201-2.206 2.054-.901 3.839-2.234 5.449-3.757 2.547-2.411 5.06-4.87 7.157-7.704 3.058-4.131 5.055-8.73 6.011-13.78.067-.359.067-.735.067-1.105.004-3.62.063-7.242-.031-10.86-.035-1.307-.388-2.618-.704-3.901-.324-1.324-.779-2.614-1.178-3.92-.109-.352-.22-.704-.338-1.054-.41-1.221-.816-2.442-1.24-3.659-.218-.626-.475-1.239-.704-1.86-.095-.258-.161-.526-.058-.9.302.35.644.672.899 1.053.984 1.474 2.005 2.929 2.885 4.464.562.985.857 2.117 1.343 3.151.916 1.952 1.389 4.046 1.951 6.103.451 1.661.66 3.387.591 5.139-.035.913.153 1.832.236 2.75.037.402.107.807.097 1.209-.033 1.328-.06 2.658-.162 3.98-.055.729-.187 1.467-.406 2.163-.766 2.429-1.516 4.867-2.409 7.249-.646 1.725-1.464 3.389-2.288 5.038-.737 1.471-1.95 2.592-3.057 3.778-1.159 1.241-2.322 2.49-3.58 3.627-.981.885-2.083 1.644-3.184 2.384-1.194.804-2.46 1.498-3.67 2.28-2.67 1.722-5.594 2.85-8.666 3.561-1.718.397-3.487.651-5.247.774-1.313.091-2.647-.118-3.97-.216-1.656-.123-3.309-.271-4.965-.405-2.358-.194-4.673-.633-6.966-1.203-.061-.014-.103-.097-.154-.148z" fill="#768893"/><path d="m116.677 26.056c-.627 0-1.26-.047-1.882.01-1.177.108-2.359.257-3.424.812-1.572.817-3.123 1.675-4.679 2.522-.226.123-.445.267-.648.426-2.936 2.3-5.883 4.591-8.222 7.547-1.098 1.389-2.293 2.701-3.113 4.297-1.661 3.226-2.916 6.608-3.927 10.089-.772 2.658-1.344 5.36-1.78 8.091-.519 3.255.183 6.326 1.614 9.215 1.428 2.878 3.571 5.238 5.895 7.425.613.579 1.28 1.124 1.994 1.571 3.843 2.409 7.918 4.25 12.391 5.189 2.76.581 5.468.751 8.188-.145.874-.288 1.782-.472 2.667-.735 3.302-.978 6.529-2.129 9.382-4.135.391-.275.822-.499 1.25-.711 1.444-.709 2.682-1.69 3.808-2.826.493-.498.985-1.001 1.499-1.479 2.503-2.325 4.486-4.984 5.437-8.325.253-.888.613-1.743.873-2.627.206-.706.401-1.428.482-2.155.373-3.369.698-6.744 1.057-10.115.139-1.3.058-2.582-.253-3.845-.811-3.307-1.889-6.508-3.47-9.544-2.042-3.923-5.05-6.7-9.284-8.029-2.986-.938-5.977-1.864-9.138-2.138-2.238-.194-4.455-.619-6.717-.385m-1.551 58.639c-3.811-.206-7.256-1.033-10.527-2.431-2.234-.954-4.346-2.198-6.479-3.374-.703-.388-1.344-.919-1.935-1.469-2.475-2.301-4.642-4.846-6.28-7.832-.635-1.158-.943-2.395-1.239-3.652-.287-1.213-.345-2.478-.853-3.646-.124-.281-.082-.663-.032-.985.603-3.94 1.338-7.85 2.661-11.626.012-.035.027-.07.036-.106.719-2.847 1.999-5.468 3.25-8.104.802-1.692 1.998-3.095 3.186-4.509 1.931-2.297 4.096-4.333 6.421-6.244 2.376-1.95 5.073-3.295 7.749-4.691.89-.465 1.961-.667 2.974-.793 2.536-.316 5.075-.263 7.616.09 2.082.289 4.185.439 6.224.97 2.751.717 5.506 1.444 8.052 2.746.748.382 1.472.86 2.103 1.413 1.557 1.368 3.046 2.814 4.021 4.682 1.247 2.388 2.494 4.78 3.171 7.414.338 1.321.696 2.638 1.033 3.96.352 1.384.257 2.798.126 4.19-.307 3.267-.679 6.527-1.048 9.788-.067.582-.201 1.167-.393 1.721-.677 1.952-1.369 3.899-2.101 5.832-.407 1.076-.993 2.062-1.803 2.898-1.671 1.723-3.307 3.481-5.028 5.152-.734.712-1.618 1.286-2.486 1.839-1.213.774-2.483 1.459-3.716 2.201-1.656.999-3.434 1.73-5.272 2.291-2.363.719-4.745 1.383-7.136 2-.811.209-1.678.206-2.295.275" fill="#231f20"/><path d="m116.677 26.056c-.627 0-1.26-.047-1.884.011-1.175.107-2.357.256-3.423.81-1.572.819-3.121 1.676-4.677 2.523-.227.125-.446.267-.649.425-2.937 2.302-5.883 4.592-8.222 7.548-1.098 1.389-2.292 2.701-3.114 4.297-1.66 3.228-2.916 6.608-3.926 10.089-.773 2.659-1.344 5.361-1.78 8.091-.518 3.256.182 6.326 1.615 9.216 1.426 2.878 3.571 5.236 5.894 7.424.613.578 1.28 1.124 1.994 1.572 3.842 2.409 7.917 4.249 12.391 5.189 2.76.58 5.468.75 8.188-.147.875-.288 1.782-.471 2.666-.733 3.302-.978 6.53-2.13 9.382-4.136.391-.275.823-.499 1.251-.711 1.444-.709 2.682-1.689 3.807-2.826.494-.499.986-1 1.499-1.479 2.504-2.326 4.486-4.984 5.438-8.325.252-.888.613-1.742.872-2.627.206-.706.402-1.427.483-2.155.373-3.369.698-6.744 1.057-10.114.139-1.302.058-2.583-.253-3.846-.812-3.306-1.889-6.508-3.47-9.544-2.041-3.923-5.05-6.7-9.285-8.028-2.985-.939-5.976-1.864-9.137-2.14-1.776-.154-3.539-.453-5.321-.453-.464.002-.929.021-1.396.069zm2.143 27.319c-.978-.033-1.848-.474-2.699-.923-.447-.234-.612-.646-.594-1.11.031-.735.036-1.483.183-2.201.636-3.14 1.298-6.278 1.998-9.405.158-.713.469-1.398.762-2.072.294-.682.822-1.131 1.57-1.275.614-.119 1.229-.287 1.85-.319 2.543-.131 5.058-.441 7.579-.815 2.068-.307 4.192-.258 6.292-.309.884-.022 1.015.206.838 1.087-.327 1.626-.654 3.249-1 4.87-.173.818-.287.927-1.118.878-1.288-.079-2.571-.247-3.858-.332-1.878-.124-3.759-.204-5.636-.309-.56-.03-.926.216-1.078.75-.395 1.382-.78 2.768-1.162 4.154-.018.061.024.141.062.338.318.02.67.055 1.023.058 2.956.024 5.91.033 8.865.069.586.007 1.183.062 1.755.187.803.173 1.279.668 1.628 1.471.758 1.736.439 3.389-.106 5.055-1.089 3.33-2.187 6.657-3.312 9.974-.723 2.132-1.475 4.254-2.257 6.363-.454 1.223-.664 1.363-1.98 1.296-1.877-.099-3.748-.215-5.598-.613-1.258-.272-2.554-.437-3.837-.46-2.091-.04-4.085-.581-6.107-.977-.904-.179-1.134-.551-1.169-1.48-.056-1.486.101-2.959.504-4.38.572-2.026 1.25-2.308 3.048-1.832.678.179 1.354.364 2.039.508 1.405.292 2.817.552 4.225.838.468.095.929.227 1.394.343.394.101.782.224 1.181.297.911.167 1.102.111 1.488-.721 1.119-2.407 2.202-4.834 3.286-7.259.307-.685.423-1.407.224-2.223-.749-.168-3.088-.132-4.002.085-1.437.342-2.891.431-4.349.431-.643 0-1.288-.017-1.932-.037zm-15.364-10.165c.038-.255.007-.517.026-.775.022-.33.178-.589.531-.597.948-.017 1.896-.006 2.934-.006.123 1.273-.271 2.351-.483 3.58.662.062 1.271.132 1.883.166.224.014.45.012.676.009.255-.003.51-.005.763.014.585.046.775.243.772.851-.003.55-.039 1.107-.14 1.646-.185.975-.393 1.148-1.408 1.192-.92.04-1.844.025-2.768.035-.213.001-.426 0-.693 0-.153.649-.297 1.251-.444 1.871.826.277 1.629.527 2.419.813 1.247.458 1.564.899 1.441 2.257-.136 1.501-.309 2.997-.765 4.456-.288.916-.843 1.366-1.727 1.449-.437.041-.88.034-1.322.028-.186-.002-.374-.005-.559-.005-.365.002-.726 0-1.19 0-.361 1.47-.715 2.854-1.04 4.246-.116.502-.169 1.017-.24 1.528-.064.478-.316.738-.805.727-.656-.014-1.312-.042-2.095-.068.311-2.152.606-4.198.902-6.262h-4.26c-.246-1.5.055-2.841.926-4.107h4.293c.178-.647.349-1.266.517-1.873-1.169-.349-2.251-.677-3.335-.999-.492-.146-.768-.48-.72-.981.076-.802.164-1.61.338-2.394.183-.826.462-1.631.722-2.439.137-.419.291-.838.491-1.229.519-1.021.997-1.271 2.141-1.156.543.054 1.085.128 1.628.195.499-.707.487-1.458.591-2.172z" fill="url(#a)"/><path d="m135.774 35.867c-2.128-.289-4.154.011-6.138.291-2.412.339-4.812.684-7.248.761-.585.02-1.166.158-1.752.23-.73.091-1.252.467-1.471 1.167-.376 1.193-.766 2.386-1.046 3.603-.473 2.044-.868 4.107-1.288 6.163-.111.541-.235 1.084-.292 1.632-.215 2.037.195 2.646 2.237 2.766 1.647.095 3.327.028 4.966-.176 1.648-.205 3.282-.485 4.95-.454 1.022.021 1.314.288 1.379 1.305.052.818 0 1.624-.333 2.389-.471 1.083-.936 2.167-1.425 3.242-.655 1.444-1.301 2.896-2.004 4.316-.534 1.078-.982 1.259-2.151 1.009-.468-.101-.924-.257-1.391-.37-.606-.148-1.216-.293-1.831-.415-1.046-.207-2.104-.37-3.145-.598-1.009-.221-1.996-.537-3.006-.741-.976-.196-1.3-.015-1.578.917-.412 1.381-.636 2.799-.632 4.25.001.49.2.752.679.842 1.846.342 3.662.83 5.56.907 1.357.055 2.734.175 4.057.467 1.563.345 3.141.466 4.715.572 1.769.118 1.663.361 2.294-1.475 1.833-5.338 3.638-10.686 5.413-16.045.407-1.228.56-2.473.012-3.777-.305-.727-.736-1.063-1.418-1.199-.359-.071-.735-.074-1.102-.076-2.918-.02-5.837-.032-8.755-.045-.48-.003-.962.02-1.44-.012-.714-.048-1.036-.42-.851-1.1.448-1.637.942-3.26 1.447-4.88.224-.717.773-1.05 1.516-1.066.221-.005.443.004.665-.003 2.704-.083 5.372.347 8.058.558.433.036.867.058 1.319.087.609-1.65.834-3.284 1.03-5.042m-6.67 17.029c-.751-.169-3.088-.133-4.002.086-2.072.492-4.178.458-6.28.391-.98-.03-1.849-.472-2.701-.921-.446-.235-.612-.646-.593-1.11.031-.735.037-1.483.182-2.201.635-3.14 1.299-6.277 1.998-9.405.158-.712.47-1.397.762-2.072.294-.682.823-1.132 1.57-1.276.615-.118 1.229-.286 1.85-.319 2.544-.131 5.058-.441 7.579-.815 2.069-.307 4.192-.257 6.293-.309.884-.021 1.015.206.837 1.088-.326 1.625-.654 3.249-1 4.87-.174.816-.286.927-1.119.877-1.288-.078-2.569-.246-3.857-.331-1.877-.124-3.758-.205-5.636-.309-.56-.031-.926.216-1.077.749-.395 1.383-.781 2.769-1.163 4.155-.018.061.023.139.064.339.317.018.669.054 1.022.057 2.955.024 5.91.032 8.865.068.586.007 1.181.063 1.754.186.804.173 1.279.671 1.628 1.472.759 1.736.441 3.389-.105 5.054-1.09 3.33-2.188 6.659-3.312 9.976-.723 2.132-1.476 4.253-2.258 6.363-.453 1.223-.663 1.363-1.981 1.295-1.876-.099-3.747-.214-5.598-.613-1.256-.271-2.553-.436-3.835-.46-2.092-.039-4.086-.58-6.108-.977-.905-.177-1.133-.551-1.169-1.48-.056-1.485.102-2.959.504-4.379.572-2.026 1.251-2.308 3.048-1.832.678.179 1.355.363 2.04.507 1.405.292 2.816.553 4.223.838.469.096.931.228 1.396.344.394.1.781.224 1.179.298.912.167 1.104.109 1.49-.722 1.118-2.408 2.202-4.834 3.286-7.258.306-.686.423-1.408.224-2.224" fill="#231f20"/><path d="m96.537 59.472c1.138 0 2.209.091 3.259-.022 1.362-.147 1.483-.047 1.112 1.316-.272.994-.553 1.995-.701 3.012-.102.702-.39 1.41-.231 2.197h1.304c.078-.127.133-.184.15-.252.403-1.756.785-3.519 1.211-5.272.207-.854.308-.901 1.24-.912.701-.008 1.403.03 2.104-.003 1.027-.046 1.215-.247 1.578-1.214.5-1.337.556-2.739.689-4.131.09-.949-.106-1.251-1.037-1.526-.812-.239-1.64-.426-2.458-.644-.494-.131-.615-.324-.502-.788.176-.714.376-1.422.538-2.139.09-.401.359-.541.713-.56.178-.011.359.075.541.089 1.174.091 2.345.093 3.506-.101.287-.757.498-1.444.214-2.214-1.333-.164-2.673.091-4.038-.317-.109-1.194.615-2.278.441-3.446h-2.061c.199 1.278-.255 2.348-.875 3.472-.536-.043-1.119-.067-1.696-.142-1.241-.158-1.473-.048-1.992 1.054-.11.233-.203.475-.28.721-.281.916-.586 1.826-.817 2.756-.175.701-.445 1.416-.144 2.251 1.278.511 2.682.745 4.187.986-.301 1.034-.542 1.954-.854 2.85-.062.179-.379.354-.597.381-.949.112-1.905.172-2.857.243-.394.028-.79.039-1.167.056-.337.763-.671 1.419-.48 2.299m6.866.722c-.362 1.469-.715 2.854-1.039 4.246-.117.501-.171 1.017-.24 1.528-.065.477-.318.738-.806.726-.656-.012-1.313-.041-2.096-.067.311-2.152.606-4.198.902-6.262h-4.259c-.246-1.501.054-2.842.926-4.106h4.292c.179-.647.35-1.266.517-1.874-1.168-.35-2.251-.677-3.334-1-.492-.146-.767-.48-.721-.98.077-.802.166-1.611.339-2.395.182-.825.462-1.631.722-2.437.136-.421.29-.839.49-1.231.519-1.02.998-1.269 2.141-1.156.544.053 1.085.128 1.628.195.5-.706.488-1.457.593-2.172.037-.254.006-.516.025-.773.021-.332.179-.591.531-.598.948-.017 1.896-.005 2.934-.005.123 1.271-.271 2.35-.484 3.58.663.061 1.272.131 1.883.166.479.028.963-.015 1.44.022.585.047.774.243.772.851-.002.549-.038 1.108-.141 1.646-.184.975-.392 1.147-1.406 1.192-.922.041-1.845.024-2.768.034-.215.002-.428 0-.694 0-.154.65-.296 1.252-.444 1.873.825.276 1.629.525 2.419.813 1.247.457 1.564.898 1.441 2.256-.136 1.5-.309 2.997-.766 4.456-.287.917-.842 1.366-1.727 1.449-.622.058-1.254.02-1.881.023-.363.002-.726 0-1.189 0" fill="#231f20"/><path d="m135.774 35.867c-.196 1.758-.421 3.392-1.03 5.042-.452-.029-.886-.051-1.319-.087-2.686-.211-5.354-.641-8.058-.558-.222.007-.444-.002-.665.003-.743.016-1.292.349-1.516 1.066-.505 1.62-.999 3.243-1.447 4.88-.185.68.137 1.052.851 1.1.478.032.96.009 1.44.012 2.918.013 5.837.025 8.755.045.367.002.743.005 1.102.076.682.136 1.113.472 1.418 1.199.548 1.304.395 2.549-.012 3.777-1.775 5.359-3.58 10.707-5.413 16.045-.631 1.836-.525 1.593-2.294 1.475-1.574-.106-3.152-.227-4.715-.572-1.323-.292-2.7-.412-4.057-.467-1.898-.077-3.714-.565-5.56-.907-.479-.09-.678-.352-.679-.842-.004-1.451.22-2.869.632-4.25.278-.932.602-1.113 1.578-.917 1.01.204 1.997.52 3.006.741 1.041.228 2.099.391 3.145.598.615.122 1.225.267 1.831.415.467.113.923.269 1.391.37 1.169.25 1.617.069 2.151-1.009.703-1.42 1.349-2.872 2.004-4.316.489-1.075.954-2.159 1.425-3.242.333-.765.385-1.571.333-2.389-.065-1.017-.357-1.284-1.379-1.305-1.668-.031-3.302.249-4.95.454-1.639.204-3.319.271-4.966.176-2.042-.12-2.452-.729-2.237-2.766.057-.548.181-1.091.292-1.632.42-2.056.815-4.119 1.288-6.163.28-1.217.67-2.41 1.046-3.603.219-.7.741-1.076 1.471-1.167.586-.072 1.167-.21 1.752-.23 2.436-.077 4.836-.422 7.248-.761 1.984-.28 4.01-.58 6.138-.291" fill="#e7aa2e"/><path d="m102.637 51.617c.232-.666.401-1.151.569-1.636.601-1.734.401-2.02-1.406-2.003-.886.009-1.294.272-1.512 1.131-.169.673-.263 1.372-.314 2.064-.047.635.217.887.867.815.612-.067 1.213-.246 1.796-.371m4.377 2.201c-.803-.068-1.449-.143-2.096-.169-.302-.012-.59.108-.664.458-.178.86-.348 1.721-.509 2.583-.07.373.07.701.44.772.57.109 1.157.167 1.735.162.205-.001.535-.211.587-.391.308-1.047.48-2.122.507-3.415m-10.477 5.655c-.19-.882.143-1.536.48-2.3.377-.016.773-.027 1.167-.055.953-.072 1.907-.131 2.857-.244.218-.026.536-.201.597-.381.312-.896.553-1.815.854-2.849-1.505-.243-2.909-.475-4.187-.986-.301-.836-.03-1.55.145-2.253.23-.928.535-1.84.817-2.754.076-.247.17-.488.279-.722.519-1.101.752-1.212 1.993-1.053.576.074 1.16.099 1.695.142.621-1.124 1.074-2.194.876-3.472h2.061c.173 1.167-.551 2.252-.442 3.445 1.365.408 2.706.154 4.039.318.283.77.072 1.457-.214 2.214-1.161.194-2.333.192-3.507.101-.181-.014-.364-.1-.541-.089-.354.018-.622.158-.712.56-.163.717-.363 1.425-.539 2.138-.113.465.008.658.503.789.816.217 1.644.404 2.457.644.931.275 1.127.577 1.037 1.525-.133 1.392-.19 2.795-.689 4.132-.362.967-.551 1.167-1.578 1.214-.701.031-1.402-.007-2.105.003-.93.011-1.032.058-1.239.912-.425 1.753-.807 3.515-1.211 5.272-.016.067-.072.125-.149.252h-1.305c-.158-.788.129-1.495.232-2.198.147-1.016.429-2.018.7-3.011.372-1.364.251-1.463-1.112-1.317-1.049.113-2.121.023-3.259.023" fill="#e7aa2e"/><path d="m105.862 56.881c.194-.789.43-1.537.248-2.326-1.05-.133-1.151-.141-1.319.268-.258.629-.459 1.289-.293 2.058zm1.152-3.064c-.028 1.294-.2 2.369-.507 3.416-.053.18-.383.39-.586.391-.579.005-1.167-.053-1.737-.163-.37-.07-.51-.398-.44-.772.163-.861.333-1.722.51-2.582.073-.35.361-.47.664-.459.647.027 1.293.102 2.096.169" fill="#231f20"/><path d="m102.271 50.998c.159-.803.617-1.432.524-2.245-.258-.044-.469-.104-.682-.113-.803-.034-1.074.152-1.232.936-.104.529-.122 1.076-.191 1.734.584-.117 1.04-.205 1.581-.312m.365.619c-.583.126-1.184.304-1.796.371-.649.071-.913-.181-.866-.815.05-.693.144-1.392.313-2.063.218-.861.627-1.123 1.512-1.133 1.808-.016 2.008.269 1.406 2.004-.168.484-.336.969-.569 1.636" fill="#231f20"/><path d="m105.862 56.881h-1.364c-.166-.769.035-1.429.293-2.058.168-.409.269-.401 1.319-.268.182.789-.054 1.537-.248 2.326" fill="#ffd466"/><path d="m102.271 50.998c-.541.107-.997.195-1.581.312.069-.658.087-1.205.191-1.734.158-.784.429-.97 1.232-.936.213.009.424.069.682.113.093.813-.365 1.442-.524 2.245" fill="#ffd466"/><path d="m110.483 21.39s-17.214 1.864-22.872 24.491c-5.658 22.628 6.591-17.504 20.081-19.892 13.491-2.39 11.151-5.616 2.791-4.599" fill="#fff" opacity=".7"/><path d="m103.619 88.851s38.506-4.904 44.197-24.37c5.692-19.465-6.78-39.457-6.78-39.457s18.818 10.169 16.388 38.611c-2.433 28.441-53.805 25.216-53.805 25.216" fill="#545d70" opacity=".3"/><path d="m153.221 54.373h-.029c0-1.478-.026-2.956.006-4.434.037-1.757-.274-3.445-.829-5.103-.7-2.099-1.227-4.247-2.036-6.317-.547-1.398-.879-2.877-1.457-4.284-.517-1.258-.946-2.502-1.768-3.636-1.167-1.605-2.479-3.01-4.088-4.155-1.86-1.327-3.717-2.659-5.565-4.003-.417-.304-.779-.681-1.185-.999-.259-.203-.537-.407-.839-.522-1.275-.488-2.545-.995-3.849-1.389-1.158-.35-2.337-.662-3.586-.495-.801.106-1.617.134-2.425.127-1.032-.012-2.063-.138-3.094-.139-3.357-.003-6.715-.083-10.063.342-1.774.227-3.483.608-5.118 1.319-2.268.986-4.533 1.981-6.806 2.957-1.676.72-3.249 1.625-4.573 2.877-1.607 1.52-3.155 3.108-4.683 4.712-1.074 1.13-1.926 2.44-2.602 3.84-.881 1.827-1.655 3.706-2.513 5.544-1.703 3.645-2.676 7.509-3.208 11.462-.383 2.844-.542 5.723-.514 8.611.033 3.525.466 6.98 1.366 10.387.611 2.314 1.491 4.474 3.079 6.306.434.501.802 1.059 1.19 1.599 1.144 1.592 2.586 2.816 4.362 3.666 1.365.653 2.708 1.356 4.046 2.063 6.935 3.663 14.314 5.43 22.158 5.171 1.324-.043 2.642-.194 3.932-.566 1.026-.296 2.075-.517 3.119-.741 1.663-.355 3.301-.768 4.862-1.463 1.349-.601 2.717-1.161 4.082-1.723 1.306-.537 2.483-1.286 3.628-2.108 2.088-1.496 3.769-3.42 5.584-5.206 3.531-3.476 6.155-7.534 7.896-12.166.941-2.503 1.605-5.058 1.526-7.767-.037-1.254-.006-2.511-.006-3.767m-43.979 36.012c-.214-.079-.428-.159-.642-.239-.013.053-.028.106-.042.158.237.017.474.033.71.05.051.05.093.133.154.149 2.293.569 4.608 1.008 6.966 1.202 1.656.135 3.309.282 4.965.404 1.323.099 2.658.308 3.97.216 1.759-.122 3.529-.375 5.248-.773 3.071-.711 5.995-1.839 8.664-3.561 1.211-.782 2.478-1.476 3.672-2.279 1.1-.741 2.202-1.5 3.182-2.385 1.259-1.137 2.421-2.385 3.581-3.627 1.106-1.186 2.321-2.307 3.057-3.778.824-1.648 1.642-3.313 2.288-5.037.892-2.383 1.642-4.822 2.409-7.249.219-.697.35-1.436.406-2.164.102-1.323.128-2.653.162-3.981.01-.401-.06-.806-.097-1.209-.084-.916-.271-1.837-.236-2.748.069-1.754-.139-3.479-.591-5.14-.562-2.057-1.035-4.152-1.951-6.103-.486-1.034-.781-2.167-1.344-3.151-.878-1.536-1.9-2.99-2.885-4.463-.255-.382-.596-.704-.899-1.053-.102.372-.037.641.059.899.229.622.487 1.234.705 1.86.423 1.216.829 2.439 1.24 3.659.117.349.227.702.336 1.055.399 1.304.855 2.595 1.179 3.919.316 1.282.67 2.595.703 3.901.096 3.618.035 7.239.031 10.861 0 .368 0 .745-.067 1.104-.955 5.049-2.951 9.649-6.01 13.781-2.097 2.832-4.609 5.292-7.158 7.703-1.608 1.522-3.395 2.856-5.449 3.757-1.725.757-3.468 1.467-5.2 2.206-1.917.818-3.968 1.122-5.978 1.588-1.721.4-3.405.96-5.207.945-2.62-.023-5.242.142-7.85-.259-.688-.106-1.387-.147-2.081-.218m-27.921-29.691c.054-4.171.234-7.637.91-11.045.681-3.439 1.587-6.824 3.137-10.003.856-1.758 1.536-3.605 2.468-5.319.735-1.353 1.651-2.629 2.629-3.821 1.62-1.972 3.464-3.737 5.436-5.362 1.352-1.115 2.892-1.908 4.489-2.603 2.199-.956 4.4-1.913 6.602-2.866 1.812-.785 3.709-1.225 5.676-1.349 1.58-.101 3.165-.146 4.747-.24 2.022-.119 4.047-.212 6.06-.421.853-.089 1.662-.041 2.491.103.433.076.882.113 1.321.097 2.525-.094 4.886.591 7.217 1.457 1.332.494 2.447 1.287 3.573 2.151 1.666 1.275 3.353 2.534 5.059 3.751 1.557 1.11 2.91 2.386 4.113 3.835 1.131 1.361 2.226 2.744 3.405 4.069 1.143 1.287 2.017 2.812 3.009 4.233 1.047 1.502 1.517 3.269 2.278 4.901.897 1.927 1.309 3.992 1.878 6.007.379 1.335.485 2.754.635 4.144.131 1.206.183 2.422.212 3.635.034 1.477-.022 2.956.018 4.432.034 1.24-.189 2.423-.573 3.588-.348 1.05-.704 2.099-1.032 3.156-.878 2.825-1.954 5.57-3.255 8.226-.539 1.101-1.19 2.129-2.038 3.02-1.756 1.846-3.485 3.72-5.303 5.505-.781.767-1.714 1.406-2.647 1.993-2.031 1.278-4.062 2.567-6.173 3.703-2.848 1.531-5.905 2.497-9.122 2.926-.768.102-1.531.272-2.302.307-1.101.051-2.208.043-3.308-.011-1.104-.054-2.203-.239-3.306-.291-3.81-.178-7.567-.676-11.239-1.738-1.349-.39-2.692-.787-3.853-1.632-.26-.19-.597-.291-.914-.381-2.423-.69-4.733-1.66-6.965-2.824-1.605-.836-3.204-1.682-4.83-2.474-1.871-.911-3.388-2.216-4.61-3.887-.784-1.074-1.58-2.138-2.374-3.203-.695-.931-1.145-1.979-1.487-3.078-.791-2.536-1.472-5.106-1.75-7.754-.195-1.868-.22-3.755-.282-4.937" fill="#231f20"/><g fill="#808285"><path d="m2.173 13.149h4.927v-1.352h-3.393v-8.268h-1.534z"/><path d="m15.251 6.077h-1.352v1.248c-.325-.676-1.222-1.456-2.626-1.456-2.054 0-3.627 1.586-3.627 3.744 0 1.976 1.352 3.744 3.627 3.744 1.118 0 2.132-.494 2.626-1.443v1.235h1.352zm-6.253 3.549c0-1.326.962-2.496 2.444-2.496 1.131 0 1.924.637 2.262 1.456.156.325.221.689.208 1.053s-.091.728-.247 1.053c-.351.806-1.118 1.404-2.197 1.404-1.716 0-2.457-1.404-2.47-2.457z"/><path d="m20.867 13.149h1.352v-3.874c0-.572.117-1.066.377-1.443.234-.39.702-.702 1.339-.689.663.013 1.079.286 1.339.702.234.39.299.819.286 1.404v3.9h1.365v-3.9c0-.598.039-.988.325-1.43.26-.429.767-.676 1.365-.676.637 0 1.014.221 1.261.585.312.403.39.988.39 1.573v3.848h1.352v-3.9c0-1.352-.156-2.028-.78-2.665-.52-.533-1.248-.715-1.898-.715-.767 0-1.417.286-1.872.741-.247.247-.39.494-.507.702-.078-.13-.273-.507-.455-.689-.494-.559-1.17-.754-1.82-.754-1.027 0-1.846.611-2.145 1.209v-1.001h-1.274z"/><path d="m32.944 9.613c0 1.898 1.391 3.731 3.77 3.731s3.77-1.833 3.77-3.731-1.391-3.744-3.77-3.744-3.77 1.846-3.77 3.731zm1.352 0c0-1.417 1.066-2.47 2.418-2.47s2.418 1.053 2.418 2.47-1.066 2.47-2.418 2.47-2.418-1.053-2.418-2.457z"/><path d="m41.862 13.149h1.352v-3.939c0-1.222.611-2.054 1.937-2.067 1.378-.013 1.872.897 1.872 2.171v3.835h1.365v-4.147c0-1.469-.598-3.107-2.86-3.133-1.261-.013-2.054.572-2.392 1.3v-1.092h-1.274z"/><path d="m57.046 10.042c.117-1.183-.234-2.288-1.066-3.133-.676-.663-1.599-1.04-2.613-1.04-2.145 0-3.731 1.729-3.731 3.757 0 1.872 1.43 3.731 3.744 3.731.715 0 1.417-.195 2.015-.598.598-.39 1.092-.975 1.43-1.755h-1.404c-.39.741-1.092 1.196-2.041 1.196-1.066 0-2.314-.728-2.379-2.158zm-6.019-1.053c.065-.962.962-1.963 2.34-1.963 1.339-.026 2.275 1.027 2.34 1.963z"/><path d="m65.535 3.529h-1.352v3.705c-.286-.559-1.17-1.365-2.613-1.365-2.015 0-3.601 1.534-3.601 3.731 0 2.041 1.404 3.757 3.627 3.757 1.456 0 2.249-.715 2.639-1.443v1.235h1.3zm-6.214 6.071c0-1.326.988-2.47 2.483-2.47.689 0 1.3.26 1.742.702.442.429.715 1.04.715 1.742.026.702-.234 1.326-.689 1.781-.442.455-1.079.741-1.768.741-1.56 0-2.47-1.183-2.483-2.483z"/><path d="m74.531 6.077h-1.352v1.248c-.325-.676-1.222-1.456-2.626-1.456-2.054 0-3.627 1.586-3.627 3.744 0 1.976 1.352 3.744 3.627 3.744 1.118 0 2.132-.494 2.626-1.443v1.235h1.352zm-6.253 3.549c0-1.326.962-2.496 2.444-2.496 1.131 0 1.924.637 2.262 1.456.156.325.221.689.208 1.053s-.091.728-.247 1.053c-.351.806-1.118 1.404-2.197 1.404-1.716 0-2.457-1.404-2.47-2.457z"/></g></g></svg>