<?xml version="1.0" encoding="UTF-8" standalone="no"?><!DOCTYPE svg PUBLIC "-//W3C//DTD SVG 1.1//EN" "http://www.w3.org/Graphics/SVG/1.1/DTD/svg11.dtd"><svg width="100%" height="100%" viewBox="0 0 222 99" version="1.1" xmlns="http://www.w3.org/2000/svg" xmlns:xlink="http://www.w3.org/1999/xlink" xml:space="preserve" xmlns:serif="http://www.serif.com/" style="fill-rule:evenodd;clip-rule:evenodd;stroke-linejoin:round;stroke-miterlimit:2;"><g><path d="M221.247,46.463c0,24.055 -44.061,43.556 -98.411,43.556c-54.351,0 -98.412,-19.501 -98.412,-43.556c0,-24.056 44.061,-43.557 98.412,-43.557c54.35,0 98.411,19.501 98.411,43.557" style="fill:#7ed3f7;fill-rule:nonzero;"/><g><g><clipPath id="_clip1"><path d="M24.423,46.463c0,24.055 44.06,43.555 98.412,43.555c54.351,0 98.411,-19.5 98.411,-43.555c0,-24.056 -44.06,-43.556 -98.411,-43.556c-54.352,0 -98.412,19.5 -98.412,43.556Z"/></clipPath><g clip-path="url(#_clip1)"><g opacity="0.3"><path d="M186.948,89.977c-0.044,-0.175 -0.088,-0.35 -0.133,-0.524c-1.526,0.415 -3.053,0.831 -4.581,1.247c0.033,0.134 0.066,0.266 0.1,0.399c1.538,-0.373 3.076,-0.748 4.614,-1.122m12.719,-7.05c0.01,0.214 0.02,0.43 0.03,0.645c2.368,-0.175 4.736,-0.352 7.104,-0.529c-0.007,-0.137 -0.013,-0.273 -0.02,-0.41c-2.371,0.098 -4.743,0.196 -7.114,0.294m-147.435,-11.94c-1.465,-3.048 -6.196,-5.699 -9.874,-5.699c3.764,0.74 6.745,2.929 9.874,5.699m-32.386,-47.365c-0.705,3.858 -0.669,7.141 1.671,9.92c-0.532,-3.161 -1.065,-6.322 -1.671,-9.92m173.539,63.4c2.821,-0.476 5.897,-1.272 9.007,-1.444c3.133,-0.174 6.301,0.273 9.452,0.447c-3.723,-2.728 -14.904,-2.03 -18.459,0.997m-102.028,-14.998c3.975,0.427 7.362,-1.9 11.112,-1.581c-2.583,-2.435 -8.664,-1.609 -11.112,1.581m-35.078,12.082c5.82,-2.694 11.809,-2.409 18.275,-0.953c-4.245,-4.086 -14.108,-2.494 -18.275,0.953m-3.447,-69.457c-0.928,-5.349 -8.778,-10.06 -14.481,-8.786c5.577,1.834 10.588,4.101 14.481,8.786m-6.685,20.932c4.883,-1.929 9.874,-3.245 15.162,-2.002c1.59,0.374 3.108,1.056 4.837,1.305c-0.852,-0.501 -1.662,-1.1 -2.564,-1.486c-3.275,-1.398 -6.587,-1.911 -10.175,-1.012c-4.874,1.221 -9.311,3.39 -13.815,5.446c0.059,0.15 0.12,0.3 0.18,0.449c2.123,-0.903 4.229,-1.853 6.375,-2.7m53.484,11.165c-2.756,-2.109 -9.856,-2.319 -12.833,-0.378c1.941,1.466 10.955,1.733 12.833,0.378m1.616,8.546c6.361,2.281 11.358,5.971 15.522,10.825c-1.776,-4.956 -9.708,-13.013 -15.522,-10.825m-61.274,-20.171c-1.891,-2.452 -7.29,-2.581 -10.82,-0.259c1.708,2.982 7.348,2.921 10.82,0.259m-15.258,43.495c0.496,4.743 4.932,9.642 9.225,9.896c-4.512,-2.049 -7.279,-5.42 -7.377,-10.412c-0.092,-4.744 1.069,-9.092 5.414,-11.959c-4.569,0.462 -7.699,8.304 -7.262,12.475m145.141,-11.5c-3.332,0.356 -5.73,2.412 -6.136,5.568c1.073,-0.28 2.155,-0.324 2.963,-0.816c2.845,-1.729 5.868,-1.921 9.032,-1.417c0.243,0.039 0.498,0.013 0.92,0.021c-0.914,-2.576 -3.358,-3.722 -6.779,-3.356m-135.44,-58.811c4.278,0.159 8.344,1.289 12.063,3.315c3.03,1.65 5.14,4.309 6.29,7.655c0.142,-0.019 0.282,-0.037 0.424,-0.056c-0.017,-0.457 0.074,-0.952 -0.067,-1.367c-1.212,-3.553 -3.8,-5.979 -6.968,-7.664c-2.735,-1.452 -5.719,-2.436 -8.586,-3.641c-1.765,-0.742 -3.453,-0.446 -5.128,0.299c-0.87,0.389 -1.753,0.751 -2.629,1.124c0.006,0.083 0.013,0.165 0.02,0.247c1.528,0.028 3.056,0.031 4.581,0.088m83.346,35.41c2.676,-0.847 5.354,-1.693 8.062,-2.429c3.955,-1.077 7.606,0.114 11.185,1.679c0.632,0.275 1.28,0.509 1.921,0.761c0.082,-0.152 0.162,-0.306 0.243,-0.458c-0.714,-0.448 -1.422,-0.907 -2.142,-1.344c-4.548,-2.763 -9.4,-2.549 -14.346,-1.474c-5.702,1.237 -10.723,4.109 -15.841,6.807c3.639,-1.183 7.272,-2.386 10.918,-3.542m-66.959,39.835c-2.662,-0.664 -5.036,-1.289 -7.377,-0.696c-3.852,0.974 -7.638,1.477 -11.503,0.228c-0.175,-0.057 -0.393,0.015 -0.805,0.039c4.182,4.953 11.881,4.453 19.685,0.429m112.175,-4.307c-0.325,2.313 1.868,4.631 4.333,4.191c2.029,-0.361 4.033,-0.874 6.029,-1.396c0.277,-0.073 0.59,-0.567 0.63,-0.896c0.143,-1.178 0.174,-2.369 0.277,-4.042c-3.854,0.733 -7.516,1.43 -11.269,2.143m-123.892,-38.271c4.481,-1.139 8.893,-2.574 13.279,-4.049c4.506,-1.515 8.959,-1.66 13.564,-0.304c-0.716,-0.381 -1.412,-0.808 -2.153,-1.134c-5.068,-2.232 -10.118,-1.212 -15.085,0.306c-2.273,0.694 -4.343,2.04 -6.602,2.802c-4.157,1.4 -8.41,2.377 -12.853,1.461c-0.599,-0.124 -1.196,-0.264 -1.794,-0.398c3.714,1.997 7.689,2.321 11.644,1.316m-1.28,-30.311c6.507,0.981 11.048,4.523 12.806,11.697c0.469,-0.774 0.996,-1.252 0.911,-1.568c-0.408,-1.534 -0.711,-3.198 -1.549,-4.497c-2.202,-3.415 -5.564,-5.298 -9.506,-5.984c-3.103,-0.541 -6.253,-1.05 -9.388,-1.088c-3.427,-0.041 -5.973,1.84 -7.586,4.89c-0.607,1.145 -1.184,2.307 -1.774,3.462c0.095,0.125 0.189,0.251 0.285,0.377c4.04,-5.194 9.113,-8.298 15.801,-7.289m136.909,6.009c-4.419,-2.611 -9.167,-4.247 -14.426,-3.468c-1.244,0.186 -2.449,0.634 -3.588,1.235c1.738,-0.126 3.475,-0.277 5.214,-0.372c7.299,-0.396 11.587,3.746 14.468,9.806c1.065,2.239 1.761,4.654 2.691,7.164c1.763,-4.279 0.304,-11.61 -4.359,-14.365m-98.973,71.391c-4.101,-1.929 -8.495,-2.21 -13.269,-1.08c1.922,0.693 3.57,1.189 5.135,1.876c2.469,1.084 4.94,2.188 7.301,3.485c2.431,1.336 4.937,1.74 7.758,1.192c-1.836,-2.462 -4.276,-4.228 -6.925,-5.473m25.058,-16.709c-1.744,0.154 -3.447,0.721 -5.18,1.044c-1.22,0.227 -2.46,0.353 -3.69,0.534c-0.511,0.076 -1.199,0.001 -1.487,0.302c-0.541,0.564 -0.85,1.35 -1.256,2.045c0.591,0.316 1.194,0.917 1.776,0.896c2.126,-0.073 4.298,-0.123 6.354,-0.607c3.315,-0.782 6.555,-1.105 9.841,-0.016c0.236,0.078 0.513,0.056 0.77,0.049c0.084,-0.002 0.165,-0.102 0.247,-0.157c-0.897,-3.063 -4.247,-4.368 -7.375,-4.09m6.966,13.589c-4.106,1.89 -8.391,3.005 -12.926,3.097c-0.29,0.006 -0.579,0.09 -0.868,0.137c-0.049,0.154 -0.098,0.308 -0.148,0.462c0.938,0.391 1.842,0.962 2.819,1.144c5.641,1.049 10.797,-0.549 15.765,-3.053c1.658,-0.835 3.324,-1.657 4.985,-2.485c-0.032,-0.137 -0.065,-0.275 -0.098,-0.413c-3.253,-0.399 -6.463,-0.301 -9.529,1.111m8.671,-57.982c0.039,-5.168 -1.344,-10.035 -5.492,-13.408c-2.464,-2.001 -5.464,-3.374 -8.307,-4.868c-3.768,-1.977 -7.847,-2.273 -12.006,-1.797c-0.593,0.068 -1.171,0.252 -1.72,0.586c1.441,0.202 2.928,0.243 4.314,0.64c4.384,1.256 8.884,2.287 13.05,4.075c5.22,2.24 10.062,8.859 8.638,16.959c-0.206,1.174 -0.296,2.366 -0.44,3.55c0.204,0.064 0.411,0.127 0.616,0.192c0.474,-1.977 1.333,-3.95 1.347,-5.929m-1.848,20.465c5.369,-1.953 10.856,-3.307 16.58,-3.446c2.01,-0.049 4.029,0.28 6.075,0.338c-2.636,-1.387 -5.414,-2.565 -8.433,-2.322c-2.564,0.204 -5.138,0.776 -7.609,1.517c-7.416,2.225 -14.785,4.614 -22.17,6.942c-0.19,0.06 -0.369,0.157 -0.552,0.237c5.637,0.151 10.922,-1.377 16.109,-3.266m-70.227,21.039c-2.231,-0.643 -4.583,-0.934 -6.904,-1.178c-2.807,-0.295 -5.007,1.006 -7.091,3.298c1.931,0.748 3.702,1.341 5.626,1.331c2.341,-0.011 4.691,-0.25 7.017,-0.094c2.058,0.136 4.089,0.682 6.133,1.038c0.28,0.05 0.567,0.058 1.065,0.105c-1.588,-2.236 -3.474,-3.815 -5.846,-4.5m2.628,-51.601c-6.452,-8.015 -17.271,-6.504 -22.96,0.916c-2.354,3.073 -2.965,6.439 -2.203,10.162c0.334,1.627 0.484,3.294 0.841,4.915c0.648,2.945 3.188,5.255 6.236,5.574c-1.092,-1.008 -2.102,-1.796 -2.937,-2.739c-2.077,-2.348 -2.641,-5.259 -2.19,-8.195c0.475,-3.108 1.188,-6.241 2.29,-9.18c2.295,-6.119 8.816,-7.298 13.802,-5.489c3.217,1.166 6.177,2.805 7.744,6.132c0.117,0.249 0.367,0.435 0.555,0.649c0.124,-0.078 0.247,-0.156 0.371,-0.234c-0.512,-0.841 -0.937,-1.751 -1.549,-2.511m70.484,52.312c-3.307,-4.28 -6.922,-8.081 -11.635,-10.889c-5.029,-2.995 -11.15,-2.646 -15.52,1.064c-0.804,0.683 -1.646,1.325 -2.36,2.322c5.926,-3.227 12.108,-3.249 18.168,-1.302c6.515,2.094 9.508,7.595 11.773,13.67c1.176,-1.681 0.937,-3.099 -0.426,-4.865m60.105,6.739c0.129,-0.099 0.29,-0.159 0.334,-0.268c0.937,-2.344 -0.162,-4.07 -2.677,-4.401c-2.694,-0.356 -5.237,-0.204 -7.668,1.233c-1.048,0.619 -2.339,0.835 -3.529,1.205c-1.628,0.506 -1.548,1.909 -1.342,3.072c0.088,0.503 1.191,1.205 1.793,1.168c1.738,-0.109 3.458,-0.533 5.18,-0.866c0.66,-0.128 1.297,-0.464 1.955,-0.498c2.013,-0.104 4.077,0.029 5.387,-2.115c0.108,0.092 0.218,0.185 0.327,0.276c0.076,0.378 0.153,0.757 0.24,1.194m-129.26,-70.851c1.385,1.217 2.667,2.591 4.195,3.587c0.834,0.545 2.077,0.514 3.149,0.635c3.845,0.429 7.561,-0.282 11.227,-1.365c0.13,-0.038 0.229,-0.19 0.338,-0.286c-1.796,-3.02 -9.92,-5.405 -18.909,-2.571m69.086,13.267c0.444,2.317 0.718,4.103 1.185,5.837c0.086,0.317 1.004,0.665 1.462,0.584c1.841,-0.329 3.673,-0.75 5.47,-1.268c3.443,-0.991 6.949,-0.799 10.377,-0.273c1.709,0.261 2.639,-0.112 3.442,-1.446c0.393,-0.653 0.836,-1.276 1.535,-2.332c-8.105,1.084 -15.693,1.633 -23.471,-1.102m-21.508,7.149c-4.466,-2.975 -9.249,-4.151 -14.353,-2.039c-1.298,0.536 -2.211,2.006 -3.3,3.047c0.095,0.18 0.19,0.361 0.286,0.541c0.625,0.086 1.255,0.156 1.877,0.261c2.142,0.362 4.274,0.774 6.422,1.086c0.909,0.132 1.864,0.185 2.769,0.062c2.458,-0.338 4.903,-0.789 7.353,-1.194c0.208,-0.298 0.415,-0.594 0.623,-0.89c-0.56,-0.289 -1.157,-0.528 -1.677,-0.874m92.924,44.233c-0.896,-4.418 -3.036,-7.88 -7.001,-10.186c-2.702,-1.572 -5.345,-3.177 -8.511,-3.73c-2.888,-0.505 -5.472,0.043 -7.853,1.686c-1.005,0.694 -1.985,1.423 -2.828,2.394c1.866,-0.513 3.716,-1.099 5.601,-1.527c10.704,-2.427 18.769,4.866 18.408,15.06c-0.075,2.134 -0.689,4.249 -1.042,6.301c3.515,-2.361 4.056,-5.902 3.226,-9.998m-85.336,11.676c-1.793,0.198 -3.545,0.79 -5.337,0.941c-2.474,0.209 -4.969,0.165 -7.455,0.239c-0.699,0.02 -1.397,0.08 -2.125,0.123c0.501,2.39 2.681,4.367 4.757,4.557c4.544,0.416 8.697,-1.108 12.862,-2.562c1.401,-0.488 2.762,-1.087 4.529,-1.788c-2.514,-1.378 -4.832,-1.775 -7.231,-1.51m-33.901,-63.978c1.85,0.072 3.057,-0.517 4.11,-2.136c1.146,-1.764 2.751,-3.23 4.158,-4.824c0.356,-0.403 0.721,-0.799 1.082,-1.197c-0.097,-0.191 -0.196,-0.382 -0.294,-0.573c-1.955,0.68 -4.039,1.12 -5.84,2.087c-3.987,2.14 -8.155,3.595 -12.632,4.149c-0.865,0.107 -1.763,0.005 -2.641,-0.07c-0.978,-0.084 -1.481,0.254 -1.463,1.292c0.018,0.979 -0.027,1.959 -0.048,3.065c4.437,-1.833 8.991,-1.971 13.568,-1.793m66.196,13.574c-0.018,-0.35 -0.472,-0.905 -0.806,-0.974c-1.512,-0.309 -3.111,-0.852 -4.573,-0.627c-3.844,0.594 -7.646,1.493 -11.436,2.395c-0.633,0.152 -1.245,0.835 -1.647,1.422c-0.599,0.873 -1.003,1.88 -1.388,3.104c6.493,-2.364 13.036,-2.403 19.811,-1.045c0.028,-1.507 0.109,-2.895 0.039,-4.275m35.926,1.287c1.011,-0.211 0.985,-0.935 0.694,-1.697c-0.38,-0.999 -0.322,-2.415 -2.093,-2.079c-2.653,0.503 -5.301,1.115 -7.982,1.367c-3.441,0.324 -6.863,-0.074 -10.039,-1.566c-1.196,-0.562 -1.904,-0.456 -2.427,0.801c-0.532,1.277 0.303,1.574 1.193,2.05c3.211,1.718 6.569,2.849 11.69,2.944c2.064,-0.418 5.517,-1.105 8.964,-1.82m-10.238,-9.628c-3.325,0.229 -6.19,1.661 -9.046,3.145c-0.996,0.518 -0.889,1.263 0.227,1.778c2.346,1.083 4.811,1.808 7.403,1.537c3.536,-0.366 7.053,-0.925 10.833,-1.437c-1.812,-3.816 -5.039,-5.323 -9.417,-5.023m-35.671,1.5c-1.905,0.52 -3.809,1.06 -5.741,1.462c-0.968,0.202 -1.311,0.645 -1.29,1.581c0.023,1.16 -0.035,2.322 -0.059,3.482c1.109,-0.202 2.219,-0.397 3.326,-0.605c2.351,-0.441 4.685,-1.034 7.056,-1.287c1.826,-0.194 3.705,-0.033 5.55,0.105c0.866,0.065 1.365,-0.03 1.61,-0.959c0.3,-1.14 0.743,-2.241 1.178,-3.516c-3.953,-1.037 -7.765,-1.318 -11.63,-0.263m-77.737,5.672c-2.477,-0.591 -4.966,-1.169 -7.48,-1.571c-3.179,-0.509 -6.191,0.474 -9.188,1.371c-1.194,0.355 -2.402,0.687 -3.559,1.14c-0.536,0.211 -0.966,0.69 -1.442,1.047c0.601,0.648 1.098,1.549 1.842,1.865c0.593,0.252 1.547,-0.076 2.24,-0.378c3.311,-1.439 6.529,-1.085 9.631,0.504c1.295,0.664 2.412,0.672 3.697,0.076c2.07,-0.956 4.19,-1.804 6.747,-2.893c-1.029,-0.491 -1.722,-0.978 -2.488,-1.161m-10.54,-9.419c3.589,0.41 6.637,1.876 9.124,4.595c0.169,-0.098 0.337,-0.198 0.506,-0.298c-0.075,-0.693 0.022,-1.465 -0.254,-2.067c-2.392,-5.237 -7.017,-8.583 -12.848,-7.899c-3.854,0.452 -6.413,2.551 -6.968,7.057c3.525,-1.353 6.926,-1.79 10.44,-1.388m113.362,57.876c-2.114,-0.524 -4.262,-1.021 -6.425,-1.215c-4.889,-0.438 -9.744,-0.023 -14.613,0.664c-2.958,0.417 -6.016,0.254 -9.022,0.159c-1.423,-0.045 -2.488,0.126 -3.35,1.391c-0.868,1.273 -1.949,2.401 -2.76,3.378c2.093,-0.139 4.673,0.877 7.473,-0.111c4.109,-1.449 8.327,-2.664 12.58,-3.62c5.478,-1.232 10.869,-0.299 16.137,1.441c0.566,0.188 1.147,0.328 1.919,0.548c0.041,-1.632 -0.839,-2.361 -1.939,-2.635m-72.429,-38.117c0.419,0.62 1.473,1.233 2.174,1.164c2.297,-0.222 4.63,-0.55 6.828,-1.229c2.794,-0.863 5.56,-1.228 8.436,-0.773c1.84,0.289 2.206,0.058 2.57,-1.746c0.092,-0.458 0.081,-0.938 0.193,-1.388c0.325,-1.298 -0.323,-1.683 -1.478,-1.694c-3.118,-0.031 -6.173,0.016 -9.219,1.085c-3.204,1.123 -6.588,1.423 -9.946,0.332c-0.319,-0.103 -0.682,-0.065 -1.025,-0.093c-0.146,0.125 -0.292,0.248 -0.438,0.373c0.616,1.336 1.092,2.765 1.905,3.969m-21.844,29.168c0.143,-0.104 0.287,-0.208 0.429,-0.313c-0.292,-1.087 -0.33,-2.342 -0.92,-3.232c-2.984,-4.501 -6.402,-8.635 -12.145,-9.549c-4.053,-0.646 -8.088,-0.727 -11.485,2.377c-1.203,1.098 -2.783,1.77 -4.112,2.743c-0.585,0.428 -0.974,1.12 -1.733,2.03c11.567,-4.563 21.975,-5.326 29.966,5.944m-5.56,-43.285c1.86,0.034 3.644,0.21 5.4,0.058c1.696,-0.148 3.349,-0.773 5.045,-0.936c1.995,-0.193 4.017,-0.095 6.025,-0.174c0.458,-0.018 1.173,-0.117 1.317,-0.405c0.936,-1.883 1.749,-3.829 2.604,-5.759c-7.189,-2.494 -17.909,1.223 -20.391,7.216m15.597,46.575c3.118,-0.764 6.325,-1.79 9.459,-1.688c2.8,0.09 4.037,-0.666 4.972,-3.139c0.862,-2.278 0.968,-2.519 -1.471,-2.791c-1.048,-0.116 -2.186,0.013 -3.204,0.304c-2.998,0.859 -5.909,2.065 -8.943,2.72c-1.986,0.43 -4.132,0.239 -6.198,0.136c-1.283,-0.065 -2.088,0.026 -2.233,1.572c-0.094,1.01 -0.565,1.984 -0.952,3.25c2.987,0.58 5.753,0.325 8.57,-0.364m41.573,4.212c-2.91,-1.154 -5.864,-1.476 -9.018,-0.893c-3.102,0.572 -6.282,0.822 -9.438,0.948c-1.716,0.068 -1.777,1.12 -1.942,2.238c-0.175,1.175 -0.259,2.504 1.401,2.554c2.952,0.086 5.994,0.416 8.848,-0.134c3.996,-0.768 7.871,-1.45 11.846,-0.165c0.187,0.061 0.402,0.035 0.706,0.058c0.392,-2.352 -0.352,-3.792 -2.403,-4.606m11.135,0.03c0.545,0.127 1.062,0.31 1.593,0.361c4.601,0.447 9.118,-0.239 13.663,-0.86c5.502,-0.751 10.996,-0.406 16.394,1.007c0.773,0.203 1.632,0.748 1.86,-0.689c0.352,-2.202 0.131,-2.891 -1.28,-2.955c-0.749,-0.034 -1.539,0.188 -2.267,0.426c-2.62,0.857 -5.264,1.291 -7.982,0.576c-0.74,-0.195 -1.551,-0.427 -2.129,-0.892c-2.254,-1.815 -4.787,-2.228 -7.613,-2.122c-3.456,0.132 -6.924,-0.079 -10.389,-0.142c-0.591,1.694 -1.187,3.395 -1.85,5.29m-38.137,-18.283c-1.798,0.497 -3.493,1.369 -5.293,1.857c-3.353,0.908 -6.718,1.86 -10.141,2.392c-1.946,0.303 -4.018,-0.185 -6.032,-0.332c-0.606,-0.044 -1.209,-0.139 -2.27,-0.265c0.601,1.733 1.074,3.172 1.62,4.581c0.083,0.211 0.5,0.361 0.786,0.417c3.541,0.705 6.919,0.446 10.406,-0.806c3.55,-1.274 7.154,-3.016 11.188,-1.963c0.43,0.113 1.177,-0.033 1.425,-0.341c1.327,-1.644 2.542,-3.377 3.876,-5.188c-1.932,-1.116 -3.784,-0.845 -5.565,-0.352m114.613,-20.185c-7.45,1.35 -14.32,4.315 -21.106,7.555c-2.614,1.248 -5.316,2.564 -8.122,3.111c-8.351,1.63 -15.545,-0.756 -21.128,-7.289c-0.885,-1.036 -1.318,-2.567 -1.655,-3.944c-0.926,-3.799 -0.704,-7.453 1.17,-11.065c1.311,-2.528 2.02,-5.368 4.131,-7.451c0.541,-0.534 1.08,-1.069 1.429,-1.856c-1.305,0.97 -2.793,1.772 -3.874,2.948c-1.539,1.675 -2.946,3.526 -4.114,5.479c-2.298,3.844 -1.836,7.914 -0.853,12.104c1.806,7.701 13.761,13.662 20.457,12.655c4.329,-0.651 8.705,-1.065 12.643,-3.216c2.329,-1.271 4.571,-2.722 6.974,-3.828c6.212,-2.86 12.739,-4.575 19.612,-4.642c1.53,-0.014 3.068,0.488 4.599,0.772c0.962,0.179 1.917,0.395 2.875,0.593c-4.046,-2.687 -8.495,-2.749 -13.038,-1.926m-99.768,-4.879c0.916,-0.146 1.831,-0.304 2.746,-0.458c-0.266,-1.456 -0.492,-2.92 -0.844,-4.355c-0.049,-0.207 -0.712,-0.385 -1.081,-0.369c-1.193,0.052 -2.411,0.071 -3.563,0.34c-2.842,0.664 -5.602,0.768 -8.474,-0.02c-1.878,-0.516 -3.913,-0.454 -5.877,-0.653c-0.926,-0.095 -1.487,0.312 -1.705,1.213c-0.135,0.557 -0.306,1.104 -0.421,1.663c-0.688,3.4 0.23,4.764 3.728,4.831c2.205,0.041 4.433,-0.419 6.625,-0.797c1.165,-0.2 2.254,-0.846 3.419,-1.036c1.639,-0.266 3.315,-0.295 4.974,-0.425c0.002,0.02 0.003,0.041 0.005,0.061c0.157,0.003 0.316,0.029 0.468,0.005m-37.143,-19.328c3.527,0.095 6.822,-0.789 9.881,-2.467c3.8,-2.084 7.599,-4.109 12.035,-4.474c0.436,-0.036 0.875,-0.322 1.267,-0.566c6.228,-3.872 12.751,-3.912 19.465,-1.52c0.521,0.186 1.032,0.406 1.985,0.782c-0.388,-0.666 -0.479,-1.029 -0.71,-1.189c-2.019,-1.398 -4.088,-2.827 -6.671,-2.706c-4.87,0.229 -9.777,0.315 -14.582,1.032c-2.687,0.401 -5.283,1.785 -7.773,3.021c-3.426,1.701 -6.925,3.064 -10.743,3.421c-2.529,0.237 -5.073,0.306 -7.61,0.457c-0.497,0.03 -0.994,0.092 -1.531,0.144c1.626,4.11 1.513,3.97 4.987,4.065m27.318,31.15c1.891,-0.34 3.791,-0.633 5.683,-0.961c3.183,-0.553 6.001,0.998 8.999,1.506c0.914,0.155 1.995,0.135 2.832,-0.21c4.525,-1.859 8.954,-3.952 13.496,-5.762c5.001,-1.994 10.192,-2.994 15.592,-1.939c1.211,0.237 2.385,0.675 3.669,1.048c0.262,-1.27 -0.07,-2.182 -1.277,-2.644c-3.277,-1.254 -6.726,-1.588 -10.134,-1.138c-3.325,0.44 -6.597,1.358 -9.852,2.218c-0.713,0.187 -1.375,0.924 -1.858,1.561c-3.134,4.129 -7.607,5.229 -12.408,5.449c-1.737,0.079 -3.203,-0.867 -3.656,-2.622c-0.34,-1.321 -1.167,-1.538 -2.24,-1.707c-3.035,-0.478 -5.86,0.313 -8.705,1.236c-1.757,0.571 -3.61,0.841 -5.538,1.27c1.351,2.369 2.944,3.136 5.397,2.695m-4.899,49.57c-2.645,-0.246 -5.068,-0.891 -7.347,-2.326c-4.147,-2.61 -8.764,-4.009 -13.572,-4.797c-0.398,-0.066 -0.88,-0.097 -1.224,0.066m15.772,-10.708c-3.938,-1.202 -8.023,-1.19 -12.082,-0.874c-4.109,0.318 -8.008,1.31 -11.866,2.987c-2.206,0.958 -5.148,0.754 -7.653,0.372c-4.711,-0.72 -9.345,-1.949 -14.013,-2.96c-0.193,-0.042 -0.4,-0.013 -0.589,-0.016c-0.789,2.234 0.089,4.284 2.112,5.098c3.32,1.335 6.69,1.956 10.21,0.836c3.456,-1.1 6.917,-0.31 10.385,-0.073c0.982,0.067 2.047,-0.103 2.977,-0.433c2.738,-0.968 5.355,-2.38 8.155,-3.054c5.09,-1.224 10.045,-0.798 14.381,2.603c0.195,0.154 0.449,0.232 0.822,0.419c0.436,-3.177 0.029,-4.03 -2.839,-4.905m27.831,-40.844c0.67,-4.159 1.549,-8.467 -1.475,-12.106c-1.263,-1.52 -2.911,-2.863 -4.641,-3.828c-5.069,-2.831 -10.425,-3.021 -15.829,-0.967c-4.95,1.88 -9.554,10.089 -9.003,15.074c0.801,7.248 6.236,14.106 11.743,15.576c3.474,0.928 7.007,0.791 10.549,0.212c-1.639,-0.168 -3.281,-0.312 -4.916,-0.509c-4.66,-0.563 -8.311,-2.77 -11.42,-6.325c-5.266,-6.02 -3.964,-18.247 3.66,-22.448c2.768,-1.526 5.427,-1.966 8.37,-1.185c1.255,0.333 2.491,0.766 3.699,1.245c4.734,1.881 7.675,6.028 7.611,11.126c-0.032,2.583 -0.53,5.16 -0.81,7.74c-0.025,0.23 -0.012,0.465 -0.021,1.014c1.553,-1.38 2.217,-2.972 2.483,-4.619m57.561,48.981c-3.083,-2.537 -4.044,-5.752 -3.385,-9.621c0.895,-5.245 3.008,-9.672 7.643,-12.682c3.987,-2.59 8.953,-2.242 12.324,1.082c1.589,1.567 3.281,3.072 4.613,4.842c0.788,1.047 1.279,2.537 1.352,3.858c0.14,2.521 -0.503,4.954 -1.916,7.12c-0.361,0.552 -0.706,1.115 -1.116,1.769c1.08,0.411 1.679,0.293 2.515,-0.544c4.842,-4.856 4.091,-15.111 -2.751,-20.224c-3.175,-2.373 -6.901,-2.373 -10.649,-1.745c-0.616,0.103 -1.221,0.269 -1.828,0.417c-3.112,0.763 -5.775,2.005 -7.518,5.026c-1.647,2.852 -3.644,5.357 -4.255,8.836c-1.07,6.094 0.808,10.834 5.291,14.807c1.986,1.76 3.279,2.37 6.38,2.746c-2.353,-2.001 -4.499,-3.877 -6.7,-5.687m-88.971,-1.696c-6.435,-1.42 -12.37,0.169 -18.102,3.037c-3.982,1.991 -8.149,3.549 -12.598,3.968c-6.063,0.57 -13.025,-1.733 -16.143,-8.067c-1.578,-3.206 -1.238,-6.306 -0.181,-9.537c2.095,-6.405 6.988,-9.252 13.178,-9.378c5.237,-0.108 10.546,0.834 14.56,4.9c0.719,0.728 1.196,1.691 1.848,2.494c0.256,0.314 0.688,0.486 1.041,0.723c0.142,-0.448 0.5,-0.964 0.384,-1.329c-0.26,-0.822 -0.649,-1.651 -1.173,-2.332c-4.725,-6.125 -11.105,-7.659 -18.398,-6.457c-3.095,0.509 -6.069,1.341 -8.747,3.143c-6.234,4.194 -7.297,10.469 -4.579,17.255c2.914,7.275 12.584,10.707 18.899,9.748c5.149,-0.782 9.874,-2.5 14.441,-4.83c5.769,-2.943 11.782,-3.609 18.057,-2.088c0.507,0.123 1.009,0.259 1.517,0.373c0.083,0.018 0.187,-0.053 0.282,-0.083c0.033,-0.116 0.067,-0.232 0.1,-0.347c-1.462,-0.403 -2.909,-0.867 -4.386,-1.193m11.863,-70.527c7.746,-2.338 15.243,-1.594 21.927,3.415c4.621,3.463 5.75,8.287 4.678,13.645c-0.668,3.338 -1.873,6.567 -2.893,10.029c1.624,-0.358 3.076,-1.184 3.971,-2.549c3.008,-4.594 3.525,-9.828 2.639,-15.002c-0.756,-4.415 -3.452,-8.122 -7.689,-9.82c-4.362,-1.748 -8.98,-2.981 -13.588,-3.951c-3.966,-0.834 -7.758,-0.384 -11.345,2.327c-2.315,1.75 -4.468,3.452 -6.064,5.852c-0.158,0.237 -0.26,0.515 -0.19,0.372c2.672,-1.383 5.452,-3.383 8.554,-4.318m105.199,28.832c-4.416,1.446 -8.542,3.482 -12.499,5.969c-3.728,2.344 -8.117,2.864 -12.403,3.481c-5.599,0.805 -10.577,-0.835 -15.182,-3.946c-3.658,-2.472 -6.744,-5.375 -7.917,-9.841c-1.175,-4.467 -1.043,-8.826 1.543,-12.77c4.348,-6.636 10.524,-10.715 18.285,-12.29c4.012,-0.816 7.874,0.14 11.605,1.58c3.471,1.341 6.181,3.52 7.704,7.072c1.13,2.636 1.736,5.31 1.385,8.226c1.672,-1.035 2.738,-3.936 1.923,-5.926c-2.245,-5.469 -5.704,-9.804 -11.705,-11.458c-11.148,-3.073 -20.082,1.008 -27.816,8.754c-1.481,1.482 -3.037,3.024 -4.033,4.828c-3.404,6.164 -1.697,13.862 3.125,18.699c9.109,9.142 19.748,10.359 31.35,5.719c3.472,-1.388 6.854,-3.063 10.126,-4.877c4.488,-2.488 9.119,-4.322 14.312,-4.473c0.335,-0.01 0.666,-0.146 0.998,-0.223c-3.805,-0.846 -7.316,0.334 -10.801,1.476m-32.501,53.96c0.107,-0.098 -0.175,-0.867 -0.46,-1.101c-3.354,-2.743 -7.052,-4.12 -11.432,-2.837c-3.194,0.936 -6.378,1.962 -9.633,2.608c-2.474,0.491 -5.05,0.558 -7.583,0.611c-2.027,0.042 -3.788,0.353 -5.55,1.581m-64.417,-35.786c0.125,0.146 0.339,0.247 0.531,0.3c3.916,1.063 7.846,1.671 11.842,0.378c3.704,-1.197 7.373,-2.538 11.143,-3.478c2.01,-0.502 4.199,-0.294 6.308,-0.391c0.506,-0.024 1.129,0.212 1.505,-0.006c2.177,-1.256 4.296,-2.612 6.736,-4.121c-1.179,-0.021 -2.086,-0.016 -2.992,-0.058c-3.619,-0.172 -7.241,-0.307 -10.856,-0.553c-4.002,-0.272 -7.781,0.676 -11.394,2.188c-3.889,1.627 -7.844,1.317 -11.833,0.904c-1.834,-0.189 -3.648,-0.566 -5.471,-0.859l-0.066,0.388c1.514,1.772 3.022,3.546 4.547,5.308m74.776,10.103c2.66,-0.362 5.139,0.094 7.249,1.693c2.995,2.271 6.099,1.825 9.343,0.844c1.323,-0.4 2.709,-0.593 4.068,-0.874c0.1,-0.022 0.231,0.03 0.307,-0.017c1.758,-1.079 1.217,-3.128 1.866,-4.676c0.08,-0.192 -0.931,-1.115 -1.548,-1.282c-4.657,-1.257 -9.389,-1.24 -14.061,-0.229c-5.275,1.139 -10.319,0.536 -15.312,-1.291c-0.965,-0.353 -2.001,-0.554 -3.021,-0.703c-1.029,-0.149 -1.304,0.362 -0.935,1.319c0.466,1.202 0.657,2.582 1.382,3.587c0.594,0.825 1.738,1.364 2.745,1.746c0.791,0.3 1.745,0.167 2.821,0.24c1.574,-0.104 3.35,-0.119 5.096,-0.357m-7.708,-51.655c5.685,0.501 11.361,0.407 16.884,-0.97c1.739,-0.434 3.159,-2.149 4.723,-3.277c-0.064,-0.174 -0.128,-0.347 -0.192,-0.521c-1.246,-0.164 -2.488,-0.426 -3.739,-0.475c-4.303,-0.171 -8.326,-1.66 -12.484,-2.5c-4.112,-0.83 -8.305,-1.274 -12.474,-1.802c-1.446,-0.183 -2.877,0.053 -4.052,0.981c2.288,4.984 5.811,8.077 11.334,8.564m34.005,28.161c-5.67,-1.572 -12.056,-7.05 -11.579,-13.747c0.269,-3.77 2.027,-6.862 4.479,-9.572c3.632,-4.011 8.489,-4.696 13.473,-4.285c4.938,0.407 7.789,3.807 9.733,8.025c0.562,1.217 0.804,2.581 1.178,3.881c0.233,0.805 0.783,1.238 1.494,0.77c0.426,-0.281 0.87,-1.048 0.79,-1.508c-0.682,-3.952 -2.228,-7.558 -4.61,-10.803c-2.894,-3.938 -6.832,-5.578 -11.635,-5.401c-7.213,0.268 -11.994,3.934 -14.599,10.531c-0.928,2.35 -2.035,4.752 -2.311,7.213c-0.788,6.996 3.383,11.055 9.057,14.026c2.74,1.435 5.344,2.029 7.266,1.392c-0.913,-0.171 -1.844,-0.275 -2.736,-0.522m-1.945,9.417c-1.812,-0.152 -3.648,-0.298 -5.456,-0.176c-4.676,0.317 -9.136,-0.61 -13.426,-2.298c-6.094,-2.399 -12.199,-2.722 -18.479,-0.821c-1.771,0.536 -3.676,0.625 -5.521,0.916c-0.604,0.096 -1.208,0.182 -1.839,0.276c0.822,2.267 3.407,3.879 5.485,3.311c6.599,-1.808 12.984,-0.877 19.308,1.288c4.413,1.511 8.957,1.664 13.563,1.288c2.377,-0.193 4.791,-0.451 7.151,-0.245c2.06,0.181 2.889,-0.92 4.06,-2.816c-1.84,-0.283 -3.335,-0.596 -4.846,-0.723m-87.557,-29.792c-0.016,-0.361 -0.833,-0.984 -1.273,-0.978c-2.115,0.033 -4.261,0.059 -6.335,0.425c-3.248,0.573 -6.461,0.762 -9.741,0.35c-0.836,-0.104 -1.807,0.29 -2.614,0.67c-1.246,0.587 -1.82,0.33 -1.92,-1.061c-0.022,-0.299 0.014,-0.746 -0.158,-0.866c-1.812,-1.272 -3.546,-2.742 -5.534,-3.643c-1.61,-0.73 -3.567,-1.138 -5.317,-1.005c-2.759,0.209 -5.489,0.927 -8.192,1.589c-0.487,0.118 -1.007,0.96 -1.126,1.545c-0.277,1.363 -0.434,2.775 -0.43,4.165c0.005,1.777 0.473,2.075 2.224,1.586c1.602,-0.446 3.168,-1.02 4.768,-1.476c5.999,-1.708 11.85,-1.073 17.543,1.279c1.487,0.614 2.867,0.935 4.507,0.577c4.322,-0.943 8.213,0.452 11.923,2.546c0.315,0.178 0.622,0.369 0.936,0.547c0.041,0.023 0.103,0.006 0.685,0.016c0.039,-2.14 0.141,-4.208 0.054,-6.266m44.655,70.972c2.916,-0.056 5.599,-0.835 8.108,-2.421c1.131,-0.713 2.619,-1.33 3.901,-1.252c5.965,0.361 11.518,-1.323 17.135,-2.902c1.97,-0.555 4.082,-0.736 6.14,-0.825c3.238,-0.142 5.636,1.844 8.121,3.554c0.377,0.259 0.952,0.582 1.301,0.467c1.461,-0.483 2.87,-1.123 4.297,-1.704c-0.891,-0.743 -1.798,-1.499 -2.706,-2.254c-0.08,-0.065 -0.165,-0.16 -0.258,-0.171c-3.418,-0.4 -5.891,-3.349 -9.457,-3.428c-3.373,-0.075 -6.746,-0.569 -10.108,-0.48c-5.446,0.144 -10.461,2.249 -15.427,4.224c-4.045,1.611 -7.899,3.708 -11.831,5.604c-0.349,0.167 -0.649,0.438 -0.972,0.66c0.014,0.156 0.029,0.312 0.043,0.468c0.571,0.162 1.144,0.471 1.713,0.46m0.437,-23.898c-3.144,-5.049 -7.137,-9.529 -13.51,-10.029c-5.681,-0.446 -11.801,0.992 -13.865,6.951c-1.442,4.164 -2.554,8.587 -1.684,13.011c0.681,3.459 2.533,6.357 6.368,7.404c2.151,0.586 4.225,1.455 6.35,2.144c4.897,1.59 9.323,0.165 13.631,-2.134c2.155,-1.149 4.303,-2.379 6.586,-3.208c4.883,-1.774 9.789,-3.543 14.799,-4.89c6.567,-1.766 13.183,-1.759 19.638,0.779c0.242,0.095 0.493,0.169 0.747,0.227c0.086,0.019 0.189,-0.041 0.507,-0.118c-1.49,-1.423 -3.27,-1.95 -5.028,-2.437c-4.37,-1.209 -8.804,-1.642 -13.284,-0.655c-1.417,0.311 -2.806,0.752 -4.209,1.134c-6.955,1.897 -13.61,4.563 -20.044,7.804c-4.864,2.45 -10.016,3.361 -15.307,2.025c-1.871,-0.474 -3.733,-1.717 -5.15,-3.078c-2.319,-2.228 -4.263,-4.744 -4.392,-8.327c-0.155,-4.255 3.721,-11.404 7.59,-13.322c4.348,-2.155 10.115,-1.05 14.037,2.638c2.594,2.438 4.541,5.271 5.612,8.685c0.056,0.182 0.212,0.333 0.322,0.499c0.218,-0.011 0.436,-0.02 0.654,-0.029c-0.089,-1.714 0.425,-3.8 -0.368,-5.074m5.064,-11.02c0.145,0.182 0.431,0.284 0.672,0.348c2.557,0.691 5.111,1.381 7.676,2.039c3.682,0.944 7.333,1.015 11.106,0.214c5.397,-1.148 10.847,-1.115 16.24,0.321c0.372,0.1 1.113,-0.107 1.251,-0.385c0.648,-1.305 1.144,-2.685 1.694,-4.039c-0.382,-0.131 -0.76,-0.355 -1.147,-0.373c-1.456,-0.071 -2.936,-0.255 -4.365,-0.071c-6.593,0.849 -12.891,-0.217 -19.185,-2.222c-4.745,-1.51 -9.688,-1.951 -14.584,-0.255c-0.666,0.232 -1.389,0.296 -2.412,0.505c1.149,1.483 2.084,2.713 3.054,3.918m-8.002,-9.133c2.373,-0.078 4.806,-0.319 7.085,-0.957c6.715,-1.88 13.189,-1.695 19.71,0.98c4.471,1.835 9.263,2.199 14.125,2.016c2.781,-0.104 5.611,0.214 8.367,0.667c1.625,0.266 2.722,-0.035 3.735,-1.468c-0.392,-0.081 -0.699,-0.2 -1.009,-0.201c-5.827,-0.019 -11.183,-1.668 -16.159,-4.643c-0.089,-0.053 -0.175,-0.16 -0.263,-0.161c-3.159,-0.044 -5.289,-2.594 -8.245,-3.302c-4.543,-1.09 -9.039,-1.125 -13.454,0.036c-5.682,1.493 -11.256,3.405 -16.873,5.145c-0.229,0.071 -0.428,0.233 -0.641,0.353c-0.027,0.16 -0.054,0.322 -0.079,0.482c1.234,0.376 2.479,1.093 3.701,1.053m-5.168,-14.746c1.056,-3.472 2.55,-6.837 3.316,-10.365c1.333,-6.133 -1.708,-11.531 -7.375,-14.162c-5.881,-2.732 -11.912,-2.865 -17.945,-0.897c-4.146,1.351 -7.535,3.935 -9.941,7.68c-0.326,0.506 -0.887,0.853 -1.272,1.329c-0.499,0.618 -1.195,1.234 -1.347,1.949c-0.911,4.251 -1.238,8.584 -0.57,12.875c0.261,1.677 1.428,3.214 2.242,4.942c-0.658,-3.535 -1.312,-6.819 -1.853,-10.121c-0.14,-0.843 -0.084,-1.792 0.153,-2.614c1.141,-3.955 3.061,-7.655 6.574,-9.76c2.586,-1.549 5.813,-2.483 8.837,-2.742c5.372,-0.46 10.532,0.884 14.644,4.612c2.716,2.462 4.278,5.618 3.601,9.502c-0.546,3.138 -1.063,6.281 -1.617,9.559c1.158,0.115 2.092,-0.271 2.553,-1.787m35.781,43.966c-6.211,0.229 -12.146,1.646 -17.874,4.042c-2.398,1.001 -4.892,1.777 -7.293,2.775c-1.435,0.596 -2.811,1.361 -4.153,2.155c-5.957,3.527 -12.103,4.187 -18.517,1.348c-0.715,-0.317 -1.43,-0.671 -2.183,-0.853c-6.169,-1.488 -9.077,-8.164 -7.986,-13.895c0.379,-1.994 0.611,-4.027 1.133,-5.981c0.984,-3.67 2.959,-6.598 6.663,-8.08c3.701,-1.481 7.491,-2.241 11.42,-1.171c1.327,0.362 2.687,0.932 3.787,1.741c2.046,1.506 3.986,3.18 5.837,4.925c1.909,1.802 3.472,3.872 3.43,6.751c0.139,0.078 0.276,0.156 0.415,0.233c0.263,-0.42 0.526,-0.84 0.663,-1.059c-0.139,-0.707 -0.253,-1.231 -0.342,-1.76c-0.086,-0.511 -0.056,-1.057 -0.23,-1.533c-1.65,-4.518 -4.013,-8.78 -8.455,-10.798c-5.761,-2.617 -11.928,-3.254 -17.745,0.128c-8.634,5.021 -11.609,13.83 -8.442,23.451c1.19,3.614 3.387,6.048 6.326,8.341c4.915,3.833 10.324,3.239 15.811,2.6c4.951,-0.577 9.322,-2.813 13.705,-5.034c8.737,-4.432 17.867,-7.442 27.83,-7.122c0.933,0.03 1.862,0.192 2.793,0.295c0.92,0.101 1.839,0.204 2.758,0.307c-2.99,-1.325 -6.105,-1.926 -9.351,-1.806m-88.625,-6.503c-3.445,-4.415 -8.339,-4.691 -13.268,-4.41c-2.727,0.155 -5.371,0.451 -7.96,-0.661c-1.223,-0.526 -1.965,-0.099 -2.285,1.202c-0.28,1.135 -0.962,2.195 0.794,2.905c5.763,2.328 11.727,3.691 17.927,3.383c1.896,-0.094 3.736,-1.322 5.6,-2.031c6.827,-1.809 13.724,-2.277 20.701,-1.047c0.864,0.152 1.74,0.37 2.54,0.72c1.197,0.525 1.631,0.065 1.729,-1.076c0.036,-0.413 0.085,-0.831 0.178,-1.235c0.565,-2.438 0.584,-2.781 -1.93,-2.87c-2.536,-0.09 -5.172,0.338 -7.635,1.009c-3.493,0.952 -6.904,1.887 -10.578,1.257c-2.152,-0.368 -3.025,1.723 -4.504,2.652c-0.207,0.13 -0.326,0.402 -0.485,0.608c-0.279,-0.132 -0.655,-0.189 -0.824,-0.406m125.393,-9.551c3.365,4.272 3.373,8.577 0.021,12.778c-0.244,0.304 -0.422,0.66 -0.669,1.051c1.475,0.138 3.05,-1.762 3.803,-4.301c1.438,-4.852 0.137,-8.054 -3.699,-10.444c-1.844,-4.02 -7.722,-5.435 -11.729,-2.855c-5.494,3.535 -7.414,8.869 -7.523,15.055c-0.04,2.21 0.759,4.175 2.556,5.644c1.006,0.823 1.957,1.719 2.9,2.614c3.467,3.292 7.72,4.194 12.273,3.813c5.798,-0.484 11.358,-1.929 16.577,-4.614c1.561,-0.803 3.282,-1.298 4.895,-2.119c-1.275,0.368 -2.568,0.682 -3.822,1.111c-3.74,1.279 -7.431,2.717 -11.205,3.883c-5.962,1.842 -11.805,1.31 -17.164,-1.894c-2.273,-1.358 -3.914,-3.556 -4.438,-6.358c-0.844,-4.512 0.277,-8.604 2.78,-12.314c2.731,-4.048 7.815,-5.058 12.527,-2.668c0.462,0.234 0.931,0.453 1.397,0.681c0.171,0.313 0.302,0.659 0.52,0.937m-156.597,17.573c-2.602,-5.386 -3.571,-10.739 -0.596,-16.292c0.208,-0.388 0.27,-0.853 0.426,-1.371c-0.802,-0.197 -1.436,-0.354 -2.069,-0.51c0.006,-0.159 0.01,-0.318 0.015,-0.477c0.623,-0.089 1.264,-0.111 1.862,-0.284c0.597,-0.173 1.352,-0.348 1.678,-0.788c0.51,-0.688 0.715,-1.601 1.049,-2.419c-0.885,0.011 -1.772,-0.005 -2.656,0.046c-0.625,0.036 -1.244,0.166 -1.865,0.253c-0.039,-0.228 -0.078,-0.457 -0.119,-0.686c1.066,-0.293 2.224,-1.01 3.179,-0.8c2.66,0.583 3.898,-1.216 5.425,-2.67c0.605,-0.576 1.281,-1.076 1.925,-1.611c-0.057,-0.226 -0.113,-0.452 -0.167,-0.678c-1.346,-0.09 -2.697,-0.289 -4.037,-0.237c-1.239,0.048 -2.464,0.47 -3.704,0.529c-0.8,0.037 -1.618,-0.283 -2.427,-0.444c0.026,-0.158 0.052,-0.316 0.079,-0.475c0.182,-0.065 0.361,-0.178 0.545,-0.187c1.745,-0.089 3.49,-0.224 5.233,-0.217c1.499,0.005 3.034,0.012 4.482,0.333c1.082,0.24 1.851,0.094 2.751,-0.49c4.369,-2.835 9.135,-3.658 14.213,-2.54c3.959,0.871 7.871,2.001 11.863,2.67c3.538,0.595 7.082,0.648 10.586,-0.855c2.41,-1.032 5.09,-1.454 7.672,-2.05c1.186,-0.274 2.427,-0.312 4.129,-0.515c-1.267,-0.692 -2.083,-1.22 -2.964,-1.602c-2.124,-0.921 -4.218,-2.231 -6.438,-2.53c-2.518,-0.34 -5.205,0.014 -7.74,0.493c-4.386,0.827 -8.691,1.334 -13.163,0.455c-3.591,-0.705 -7.369,-0.497 -10.291,1.936c-3.088,2.571 -6.284,2.582 -9.819,1.706c-3.532,-0.876 -7.08,-1.686 -10.62,-2.53c-0.197,-0.046 -0.382,-0.141 -0.575,-0.213c0.079,-0.161 0.159,-0.323 0.237,-0.484c0.415,-0.019 0.845,-0.119 1.241,-0.041c1.277,0.254 2.541,0.566 3.808,0.869c3.034,0.723 6.056,1.506 9.105,2.156c1.65,0.351 3.294,0.007 4.559,-1.126c3.066,-2.743 6.716,-3.394 10.622,-3.146c3.926,0.249 7.808,1.244 11.783,0.204c3.845,-1.007 7.774,-1.436 11.761,-0.997c0.202,0.023 0.424,-0.146 0.929,-0.335c-1.814,-1.121 -2.17,-3.125 -4.6,-3.657c-8.031,-1.754 -15.658,-0.967 -22.933,2.686c-4.456,2.237 -8.971,2.293 -13.682,1.394c-3.821,-0.729 -7.662,-1.349 -11.491,-2.037c-0.249,-0.044 -0.469,-0.258 -0.704,-0.393c0.029,-0.175 0.056,-0.35 0.084,-0.525c1.237,0.102 2.496,0.089 3.705,0.33c3.165,0.628 6.307,1.379 9.461,2.06c3.933,0.849 7.706,0.607 11.418,-1.188c2.33,-1.129 4.84,-1.918 7.323,-2.691c5.034,-1.565 10.174,-1.402 15.329,-0.712c0.535,0.071 1.094,-0.047 1.958,-0.094c-2.76,-3.156 -5.935,-4.211 -9.589,-4.291c-3.582,-0.077 -6.846,1.096 -10.149,2.245c-4.81,1.671 -9.532,3.66 -14.742,3.888c-8.942,0.392 -13.263,-3.553 -16.611,-11.029c-0.812,-1.812 -1.14,-4.187 -0.753,-6.114c0.762,-3.796 2.172,-7.461 3.333,-11.173c0.232,-0.743 0.963,-1.322 0.247,-2.271c-0.688,-0.911 -1.421,-1.287 -2.524,-1.103c-0.429,0.073 -0.883,-0.003 -1.325,-0.011c0.014,-0.192 0.028,-0.386 0.044,-0.578c1.827,-0.97 3.49,-0.446 5.057,0.978c0.679,-0.868 1.233,-1.693 1.906,-2.405c0.681,-0.718 0.487,-1.263 -0.111,-1.859c-1.207,-1.203 -2.689,-0.856 -4.131,-0.761c-0.588,0.039 -1.18,0.048 -1.771,0.072c0.004,-0.18 0.008,-0.36 0.013,-0.54c2.288,-0.701 4.55,-1.006 6.803,0.371c0.413,0.253 1.179,0.466 1.491,0.258c1.633,-1.082 3.172,-2.305 4.744,-3.479c0.016,-0.189 0.035,-0.376 0.052,-0.564c-1.431,-0.451 -2.847,-1.195 -4.3,-1.28c-1.732,-0.101 -3.495,0.384 -5.249,0.572c-0.983,0.104 -1.973,0.12 -2.959,0.175l-0.067,-0.538c0.46,-0.116 0.915,-0.272 1.382,-0.341c1.339,-0.194 2.709,-0.245 4.019,-0.55c2.706,-0.63 5.127,0.016 7.528,1.232c0.715,0.362 1.67,0.456 2.484,0.368c3.052,-0.328 6.086,-0.937 9.136,0.007c2.86,0.886 5.724,0.78 8.638,0.187c5.984,-1.217 11.549,-0.148 16.664,3.252c0.397,0.263 1.118,0.304 1.586,0.146c1.177,-0.4 2.287,-0.998 3.443,-1.472c2.309,-0.947 4.577,-2.041 6.956,-2.762c5.573,-1.686 11.323,-1.553 17.053,-1.209c2.45,0.147 4.696,1.058 6.45,2.829c0.819,0.826 1.59,0.955 2.652,0.658c2.555,-0.711 5.102,-1.576 7.713,-1.938c6.965,-0.965 13.89,-0.75 20.744,1.124c4.616,1.262 9.289,2.346 13.975,3.325c5.845,1.222 11.623,0.258 17.33,-1.032c6.035,-1.363 11.985,-3.151 18.06,-4.283c8.553,-1.596 17.202,-2.755 25.907,-1.176c2.263,0.41 4.437,1.332 6.623,2.103c0.247,0.089 0.298,0.734 0.44,1.12c-0.408,-0.073 -0.854,-0.064 -1.217,-0.233c-1.303,-0.605 -2.512,-1.53 -3.874,-1.867c-4.98,-1.23 -10.041,-1.778 -15.171,-1.023c-6.022,0.887 -12.082,1.58 -18.053,2.724c-5.204,0.997 -10.286,2.604 -15.464,3.747c-2.627,0.579 -5.345,0.984 -8.028,1.022c-5.827,0.082 -11.398,-1.542 -16.939,-3.133c-7.792,-2.238 -15.69,-3.38 -23.748,-2.04c-3.058,0.508 -6.016,1.636 -9.011,2.509c-0.257,0.075 -0.448,0.37 -0.9,0.763c1.568,0.845 3.008,1.521 4.339,2.37c1.323,0.844 2.588,1.163 4.113,0.548c0.744,-0.301 1.628,-0.34 2.451,-0.348c5.419,-0.054 10.679,1.082 15.842,2.514c3.952,1.096 7.927,1.745 11.992,1.931c1.983,0.091 3.833,-0.295 5.675,-1.298c7.752,-4.216 15.853,-5.559 24.38,-2.435c0.54,0.197 1.238,0.229 1.79,0.075c3.155,-0.882 6.292,-1.83 9.426,-2.783c6.185,-1.881 12.534,-2.652 18.969,-2.564c4.07,0.054 8.116,0.566 11.818,2.498c0.448,0.233 0.823,0.602 1.231,0.907c-0.076,0.157 -0.152,0.314 -0.227,0.47c-0.539,-0.165 -1.092,-0.295 -1.614,-0.504c-1.976,-0.79 -3.878,-2.002 -5.925,-2.335c-5.746,-0.93 -11.565,-0.724 -17.237,0.519c-4.926,1.079 -9.743,2.662 -14.604,4.038c-0.412,0.117 -0.79,0.358 -1.296,0.593c1.203,1.079 2.421,1.875 3.233,2.974c1.025,1.388 2.199,1.623 3.665,1.147c1.976,-0.639 3.895,-1.503 5.907,-1.98c4.703,-1.116 9.427,-2.165 14.18,-3.039c3.802,-0.699 7.584,-0.305 11.174,1.212c0.935,0.395 1.778,1.048 2.583,1.682c0.205,0.16 0.11,0.703 0.152,1.071c-0.312,-0.092 -0.723,-0.09 -0.919,-0.294c-2.372,-2.455 -5.447,-3.529 -8.638,-3.262c-4.642,0.386 -9.271,1.218 -13.829,2.209c-3.08,0.669 -6.024,1.951 -9.039,2.929c-0.855,0.278 -1.742,0.454 -2.72,0.704c1.209,2.261 2.295,4.293 3.377,6.315c2.485,-1.001 4.848,-2.086 7.298,-2.912c5.526,-1.863 11.217,-2.982 17.036,-2.043c2.459,0.396 4.797,1.596 7.152,2.524c0.285,0.112 0.334,0.821 0.492,1.252c-0.391,-0.124 -0.858,-0.152 -1.16,-0.39c-2.739,-2.152 -5.927,-3.152 -9.312,-3.062c-6.89,0.182 -13.536,1.466 -19.606,5.037c-1.208,0.711 -1.9,1.339 -1.887,2.808c0.01,1.212 0.341,1.558 1.457,1.101c5.055,-2.066 10.239,-3.314 15.77,-3.382c5.226,-0.065 9.894,1.104 13.88,4.538c0.364,0.315 0.419,0.99 0.617,1.497c-0.455,-0.208 -1.013,-0.312 -1.351,-0.641c-2.095,-2.039 -4.431,-3.597 -7.373,-4.14c-8.133,-1.499 -15.71,0.213 -22.931,3.948c-0.461,0.238 -0.88,0.772 -1.08,1.266c-1.421,3.498 -4.125,5.325 -7.665,6.25c-3.01,0.788 -3.591,0.434 -3.657,-2.64c-0.002,-0.083 -0.114,-0.165 -0.21,-0.292c-0.166,-0.016 -0.375,-0.075 -0.569,-0.043c-0.565,0.092 -1.132,0.193 -1.685,0.34c-6.825,1.816 -13.483,1.899 -19.855,-1.722c-0.46,-0.261 -1.548,-0.164 -1.844,0.187c-0.689,0.815 -0.067,1.664 0.689,2.057c2.486,1.296 4.914,2.914 7.574,3.62c9.557,2.539 18.713,1.139 27.214,-3.881c2.791,-1.647 5.681,-2.834 8.821,-3.44c7.148,-1.377 14.036,-0.687 20.337,3.157c1.436,0.876 2.457,2.461 3.569,3.802c0.169,0.205 -0.214,0.864 -0.342,1.312c-0.291,-0.277 -0.726,-0.503 -0.851,-0.842c-0.666,-1.807 -1.869,-3.154 -3.536,-4.015c-8.67,-4.477 -17.541,-4.823 -26.016,0.033c-6.926,3.967 -14.102,6.119 -22.019,5.704c-4.159,-0.218 -8.314,-0.612 -11.994,-2.958c-1.082,-0.69 -2.354,-1.079 -3.541,-1.607c-0.167,0.166 -0.336,0.331 -0.504,0.497c0.747,1.374 1.265,2.953 2.28,4.084c3.194,3.558 7.186,5.521 12.088,5.616c4.95,0.095 9.64,-1.012 14.142,-2.869c6.608,-2.725 13.188,-5.419 20.333,-6.502c4.915,-0.746 9.566,-0.183 13.99,2.01c2.847,1.411 4.86,3.773 6.283,6.539c0.329,0.638 -0.248,1.785 -0.554,2.646c-0.037,0.107 -1.079,0.066 -1.47,-0.191c-7.786,-5.122 -16.198,-5.114 -24.608,-2.406c-4.308,1.388 -8.226,3.981 -12.328,6.014c-1.552,0.769 -3.126,1.496 -4.692,2.24l0.052,0.506c1.144,0.155 2.347,0.611 3.423,0.406c3.455,-0.662 6.898,-1.454 10.284,-2.414c2.643,-0.75 5.144,-2.012 7.795,-2.723c7.342,-1.968 14.34,-0.581 21.086,2.572c0.364,0.171 0.602,0.607 0.986,1.009c-0.392,0.134 -0.507,0.218 -0.579,0.191c-0.435,-0.168 -0.876,-0.333 -1.287,-0.549c-3.774,-1.983 -7.871,-3.111 -12.038,-3.421c-4.214,-0.314 -8.349,0.753 -12.361,2.242c-3.598,1.335 -7.308,2.368 -10.97,3.531c-0.473,0.151 -0.953,0.278 -1.43,0.416c-0.034,0.143 -0.068,0.285 -0.102,0.427c1.514,0.712 2.974,1.849 4.554,2.053c3.897,0.501 7.783,0.169 11.512,-1.342c7.522,-3.05 14.692,-1.952 21.543,2.06c0.714,0.42 1.64,0.927 1.347,2c-2.022,-1.116 -3.93,-2.318 -5.959,-3.255c-3.715,-1.717 -7.594,-2.572 -11.69,-1.519c-3.672,0.945 -7.332,1.939 -11.016,2.836c-1.268,0.309 -2.593,0.388 -3.538,0.523c0.572,0.774 1.044,1.704 1.777,2.327c0.791,0.67 1.797,1.417 2.763,1.499c5.222,0.45 10.442,1.145 15.637,-0.574c3.605,-1.192 7.302,-0.967 10.846,0.54c0.453,0.192 0.827,0.565 1.238,0.854c-0.073,0.142 -0.145,0.283 -0.219,0.425c-0.409,-0.124 -0.836,-0.205 -1.222,-0.378c-3.005,-1.34 -6.143,-1.808 -9.3,-0.88c-4.647,1.364 -9.309,1.578 -14.066,0.861c-1.091,-0.164 -2.224,-0.062 -3.609,-0.087c0.725,1.909 1.239,3.476 1.934,4.958c0.197,0.417 0.895,0.75 1.413,0.839c1.426,0.248 2.893,0.56 4.317,0.464c3.457,-0.233 6.907,-0.621 10.344,-1.066c2.559,-0.33 5.083,-0.954 7.646,-1.215c0.856,-0.088 1.785,0.544 2.68,0.847c-0.055,0.184 -0.11,0.369 -0.164,0.553c-0.283,-0.005 -0.587,0.056 -0.847,-0.025c-2.905,-0.909 -5.735,-0.667 -8.549,0.423c-0.914,0.355 -1.897,0.714 -2.858,0.738c-3.985,0.1 -7.975,0.054 -11.962,0.112c-0.573,0.008 -1.142,0.284 -1.713,0.437c0.289,0.777 0.363,1.966 0.909,2.253c1.502,0.786 3.162,1.393 4.829,1.713c4.082,0.786 8.171,0.36 12.284,-0.079c2.495,-0.267 5.063,0.125 7.597,0.254c0.176,0.009 0.339,0.289 0.498,0.434c-0.126,0.181 -0.173,0.322 -0.246,0.336c-0.247,0.052 -0.516,0.123 -0.753,0.074c-3.046,-0.627 -6.087,-0.665 -9.152,-0.103c-1.069,0.196 -2.175,0.229 -3.265,0.26c-3.728,0.105 -7.373,-0.366 -10.931,-1.539c-0.431,-0.142 -1.398,0.104 -1.492,0.383c-0.579,1.695 -0.978,3.451 -1.459,5.272c0.384,-0.075 0.824,-0.164 1.265,-0.25c3.42,-0.671 6.81,-1.603 10.355,-1.118c3.192,0.437 6.326,0.169 9.445,-0.636c1.72,-0.444 5.237,1.334 6.002,2.903c0.066,0.137 -0.061,0.367 -0.153,0.832c-0.642,-0.432 -1.173,-0.709 -1.606,-1.094c-1.611,-1.438 -3.329,-2.133 -5.577,-1.564c-1.745,0.442 -3.633,0.826 -5.388,0.623c-4.256,-0.491 -8.444,-0.496 -12.508,0.89c-1.733,0.591 -3.675,1.312 -4.872,2.585c-2.892,3.08 -8.518,3.692 -12.053,1.257c-0.363,-0.251 -0.904,-0.457 -1.314,-0.39c-2.287,0.378 -4.561,0.846 -6.839,1.284c0.022,0.156 0.047,0.31 0.07,0.465c5.228,2.818 10.67,2.949 16.264,1.176c5.41,-1.715 10.798,-3.5 16.235,-5.125c4.518,-1.35 9.011,-0.828 13.318,0.904" style="fill:#fff;fill-rule:nonzero;"/></g></g></g></g><path d="M91.152,34.651c-0.522,0.111 -0.991,-0.063 -1.474,-0.339c-0.675,-0.387 -1.362,-0.778 -2.089,-1.041c-1.852,-0.67 -3.722,-1.291 -5.599,-1.889c-1.062,-0.338 -2.163,-0.504 -3.286,-0.314c-1.469,0.249 -2.86,0.734 -4.199,1.39c-2.888,1.413 -5.293,6.014 -3.878,9.477c0.667,1.632 1.311,3.281 2.078,4.868c1.464,3.031 3.769,5.28 6.789,6.735c1.658,0.799 3.412,1.395 5.121,2.093c0.529,0.217 1.075,0.418 1.561,0.711c0.415,0.25 0.386,0.763 -0.039,1.009c-0.313,0.183 -0.676,0.329 -1.032,0.376c-1.061,0.139 -1.677,0.775 -2.093,1.698c-0.56,1.242 -0.987,2.528 -1.181,3.876c-0.063,0.431 -0.038,0.917 0.098,1.327c1.11,3.312 2.887,4.687 6.42,4.966c0.391,0.031 0.793,-0.078 1.159,-0.118c0.25,-0.719 0.459,-1.338 0.68,-1.952c0.214,-0.595 0.557,-1.091 1.103,-1.441c0.509,-0.327 0.905,-0.925 1.853,-0.685c-1.918,1.436 -2.437,3.411 -2.828,5.45c-0.055,0.282 -0.095,0.571 -0.186,0.843c-0.585,1.74 -0.172,3.353 0.743,4.832c0.6,0.97 1.315,1.893 2.102,2.718c2.142,2.243 4.856,3.626 7.663,4.83c0.628,0.27 1.319,0.456 1.997,0.537c0.966,0.115 1.031,0.098 0.917,1.109c-0.142,1.264 0.051,2.462 0.625,3.589c0.448,0.879 0.922,1.746 1.419,2.596c0.55,0.937 1.323,1.661 2.226,2.269c2.006,1.35 4.179,2.234 6.562,2.696c2.236,0.434 4.43,0.352 6.573,-0.312c1.644,-0.509 3.237,-1.199 4.827,-1.868c0.559,-0.236 1.09,-0.596 1.548,-0.997c2.262,-1.986 4.444,-4.045 5.677,-6.884c0.082,-0.187 0.151,-0.408 0.294,-0.536c0.19,-0.167 0.448,-0.257 0.591,-0.334c0.435,0.497 0.708,1.002 1.131,1.249c0.883,0.514 1.815,0.976 2.777,1.307c2.42,0.83 4.78,0.549 7.052,-0.591c0.859,-0.431 1.447,-1.066 1.585,-2.057c0.034,-0.242 0.101,-0.483 0.167,-0.72c0.1,-0.346 0.302,-0.579 0.756,-0.564c0.188,0.153 0.423,0.317 0.625,0.516c1.599,1.583 3.467,2.765 5.518,3.66c3.289,1.435 6.68,1.941 10.225,1.101c2.368,-0.561 4.464,-1.586 6.297,-3.215c1.429,-1.271 1.851,-2.862 1.775,-4.652c-0.079,-1.878 -0.856,-3.49 -2.047,-4.922c-0.26,-0.312 -0.517,-0.646 -0.685,-1.012c-0.184,-0.401 0.062,-0.755 0.501,-0.771c0.283,-0.01 0.572,0.047 0.852,0.104c0.968,0.198 1.925,0.44 2.898,0.61c1.535,0.268 3.071,0.554 4.619,0.722c5.028,0.544 8.609,-3.236 10.246,-6.526c0.254,-0.509 0.434,-1.068 0.564,-1.624c0.682,-2.908 0.202,-5.705 -0.827,-8.456c-0.817,-2.18 -2.185,-3.934 -3.981,-5.385c-0.622,-0.501 -1.3,-0.855 -2.094,-0.979c-0.447,-0.071 -0.896,-0.144 -1.327,-0.273c-0.166,-0.049 -0.407,-0.268 -0.395,-0.389c0.018,-0.199 0.198,-0.394 0.344,-0.562c0.073,-0.084 0.219,-0.106 0.334,-0.152c2.083,-0.839 3.935,-2.06 5.605,-3.541c3.455,-3.067 5.727,-6.735 5.805,-11.523c0.061,-3.732 -1.132,-6.818 -4.243,-9.089c-2.11,-1.538 -4.412,-2.5 -6.977,-2.905c-1.994,-0.315 -3.929,-0.203 -5.791,0.631c-0.187,0.085 -0.372,0.215 -0.565,0.232c-0.181,0.014 -0.442,-0.04 -0.539,-0.165c-0.099,-0.125 -0.108,-0.404 -0.037,-0.562c0.116,-0.254 0.354,-0.449 0.497,-0.696c0.264,-0.455 0.582,-0.906 0.725,-1.402c0.915,-3.195 0.646,-6.345 -0.49,-9.437c-0.823,-2.237 -2.353,-3.809 -4.509,-4.819c-1.403,-0.657 -2.918,-0.846 -4.403,-1.143c-3.957,-0.788 -7.499,0.186 -10.628,2.69c-1.041,0.833 -1.88,1.836 -2.263,3.159c-0.066,0.23 -0.196,0.455 -0.344,0.645c-0.185,0.238 -0.6,0.198 -0.726,-0.074c-0.1,-0.217 -0.13,-0.469 -0.171,-0.708c-0.365,-2.157 -1.254,-4.079 -2.603,-5.789c-1.234,-1.562 -2.746,-2.828 -4.377,-3.953c-2.985,-2.057 -6.167,-2.308 -9.498,-0.974c-2.576,1.033 -4.258,2.871 -4.901,5.606c-0.047,0.201 -0.045,0.43 -0.148,0.595c-0.138,0.226 -0.339,0.535 -0.544,0.561c-0.18,0.022 -0.407,-0.293 -0.599,-0.475c-0.053,-0.048 -0.049,-0.154 -0.08,-0.229c-0.738,-1.799 -1.765,-3.432 -2.884,-5.013c-1.364,-1.932 -3.248,-2.787 -5.576,-2.882c-1.499,-0.062 -2.95,0.143 -4.399,0.452c-2.092,0.448 -4.196,0.89 -6.119,1.862c-3.137,1.584 -5.216,3.958 -5.414,7.641c-0.048,0.899 -0.058,1.802 -0.134,2.697c-0.02,0.247 -0.161,0.568 -0.353,0.697c-0.309,0.207 -0.514,-0.086 -0.669,-0.341c-0.064,-0.106 -0.129,-0.212 -0.181,-0.323c-0.359,-0.777 -0.97,-1.206 -1.818,-1.284c-0.53,-0.048 -1.07,-0.151 -1.589,-0.093c-1.306,0.147 -2.601,0.377 -3.901,0.566c-1.947,0.284 -3.301,1.366 -4.192,3.084c-1.329,2.56 -2.487,5.178 -3.015,8.043c-0.498,2.703 -0.153,5.232 1.335,7.573c0.352,0.556 0.71,1.108 1.041,1.677c0.234,0.4 0.383,0.827 0.02,1.305m-6.683,22.08c-1.585,-0.644 -3.08,-1.21 -4.541,-1.852c-3.801,-1.668 -6.667,-4.336 -8.402,-8.128c-0.735,-1.603 -1.388,-3.251 -1.976,-4.913c-1.232,-3.488 0.923,-7.846 3.352,-9.531c2.137,-1.484 4.516,-2.34 7.167,-2.26c0.366,0.013 0.738,0.065 1.095,0.153c2.437,0.6 4.823,1.364 7.138,2.332c0.601,0.252 1.158,0.609 1.922,1.017c-0.274,-0.46 -0.448,-0.789 -0.657,-1.094c-1.632,-2.383 -2.173,-4.958 -1.753,-7.845c0.483,-3.318 1.71,-6.318 3.283,-9.228c1.014,-1.873 2.552,-2.956 4.631,-3.317c0.85,-0.147 1.694,-0.335 2.546,-0.467c1.721,-0.264 3.425,-0.299 5.084,0.541c0.167,-0.777 0.381,-1.483 0.462,-2.203c0.302,-2.685 1.743,-4.68 3.848,-6.197c1.019,-0.735 2.187,-1.319 3.364,-1.771c2.385,-0.916 4.877,-1.501 7.424,-1.738c1.133,-0.106 2.299,-0.04 3.435,0.084c2.227,0.245 3.898,1.458 5.144,3.266c0.723,1.048 1.365,2.151 2.042,3.231c0.124,0.197 0.245,0.394 0.426,0.687c0.307,-0.582 0.537,-1.053 0.797,-1.507c0.995,-1.736 2.425,-2.986 4.261,-3.775c2.375,-1.021 4.824,-1.356 7.344,-0.664c0.782,0.215 1.551,0.543 2.267,0.93c1.747,0.945 3.267,2.207 4.66,3.615c1.407,1.423 2.487,3.058 3.176,4.943c0.14,0.384 0.301,0.759 0.497,1.256c1.138,-1.711 2.591,-2.931 4.292,-3.874c2.81,-1.557 5.812,-1.99 8.949,-1.484c1.337,0.216 2.684,0.483 3.964,0.909c3.59,1.197 5.658,3.801 6.533,7.414c0.64,2.635 0.794,5.277 0.079,7.927c-0.105,0.388 -0.171,0.786 -0.276,1.276c0.309,-0.027 0.502,-0.032 0.692,-0.062c5.255,-0.829 9.743,0.775 13.526,4.398c2.282,2.183 3.045,5.019 3.003,8.091c-0.053,3.884 -1.332,7.309 -3.913,10.249c-1.782,2.03 -3.802,3.748 -6.155,5.073c-0.214,0.12 -0.421,0.254 -0.629,0.386c-0.031,0.019 -0.051,0.061 -0.143,0.182c1.112,0.43 2.059,1.087 2.925,1.872c2.079,1.883 3.342,4.242 4.081,6.914c0.576,2.087 0.754,4.199 0.417,6.345c-0.404,2.587 -1.746,4.648 -3.536,6.491c-2.826,2.911 -6.269,3.754 -10.161,3.117c-1.38,-0.226 -2.741,-0.561 -4.11,-0.847c-0.398,-0.083 -0.797,-0.171 -1.451,-0.311c0.294,0.483 0.464,0.773 0.644,1.058c1.36,2.144 1.877,4.433 1.278,6.947c-0.217,0.916 -0.643,1.68 -1.279,2.349c-1.897,1.994 -4.222,3.242 -6.873,3.913c-4.128,1.043 -8.07,0.47 -11.867,-1.366c-1.526,-0.736 -2.953,-1.621 -4.245,-2.718c-0.214,-0.182 -0.452,-0.336 -0.692,-0.512c-0.795,2.404 -2.763,3.185 -4.896,3.658c-2.236,0.495 -4.401,0.244 -6.446,-0.879c-0.75,-0.414 -1.561,-0.721 -2.422,-1.111c-0.175,0.27 -0.392,0.556 -0.554,0.869c-0.807,1.551 -1.972,2.8 -3.169,4.06c-1.863,1.964 -4.06,3.262 -6.578,4.195c-2.147,0.795 -4.296,1.388 -6.592,1.379c-0.449,-0.002 -0.903,-0.026 -1.344,-0.101c-0.688,-0.116 -1.363,-0.331 -2.054,-0.422c-2.391,-0.316 -4.45,-1.402 -6.422,-2.696c-0.832,-0.547 -1.581,-1.195 -2.095,-2.059c-0.631,-1.06 -1.265,-2.119 -1.82,-3.218c-0.603,-1.188 -0.915,-2.462 -0.713,-3.848c-0.154,-0.087 -0.283,-0.195 -0.43,-0.235c-3.686,-0.994 -6.88,-2.87 -9.683,-5.43c-1.225,-1.119 -2.198,-2.439 -2.881,-3.965c-0.605,-1.355 -0.872,-2.734 -0.457,-4.198c0.111,-0.386 0.173,-0.786 0.271,-1.238c-0.344,-0.074 -0.574,-0.171 -0.8,-0.164c-1.399,0.041 -2.682,-0.412 -3.92,-0.966c-1.077,-0.481 -1.878,-1.334 -2.494,-2.325c-0.388,-0.625 -0.683,-1.31 -0.99,-1.983c-0.351,-0.771 -0.452,-1.587 -0.212,-2.407c0.392,-1.339 0.787,-2.677 1.242,-3.994c0.382,-1.103 1.201,-1.825 2.37,-2.224" style="fill:#231f20;fill-rule:nonzero;"/><path d="M116.141,1.547c-2.092,0.448 -4.196,0.89 -6.119,1.862c-3.137,1.584 -5.216,3.957 -5.413,7.64c-0.049,0.9 -0.057,1.803 -0.135,2.699c-0.02,0.246 -0.16,0.568 -0.353,0.696c-0.309,0.206 -0.512,-0.085 -0.668,-0.342c-0.065,-0.104 -0.129,-0.21 -0.182,-0.321c-0.359,-0.779 -0.97,-1.207 -1.819,-1.285c-0.529,-0.048 -1.069,-0.152 -1.588,-0.092c-1.305,0.147 -2.6,0.375 -3.901,0.565c-1.947,0.283 -3.301,1.365 -4.192,3.085c-1.329,2.559 -2.487,5.177 -3.015,8.043c-0.498,2.702 -0.151,5.231 1.335,7.572c0.352,0.556 0.711,1.108 1.042,1.677c0.233,0.401 0.382,0.827 0.019,1.305c-0.521,0.113 -0.99,-0.062 -1.473,-0.339c-0.675,-0.387 -1.361,-0.778 -2.089,-1.041c-1.853,-0.669 -3.723,-1.292 -5.6,-1.888c-1.062,-0.339 -2.162,-0.506 -3.285,-0.315c-1.47,0.249 -2.861,0.735 -4.199,1.39c-2.889,1.414 -5.294,6.015 -3.879,9.478c0.669,1.631 1.312,3.279 2.077,4.867c1.466,3.03 3.771,5.28 6.79,6.735c1.659,0.798 3.414,1.396 5.121,2.093c0.529,0.217 1.075,0.418 1.562,0.712c0.414,0.25 0.385,0.76 -0.04,1.009c-0.312,0.183 -0.676,0.327 -1.031,0.375c-1.062,0.139 -1.677,0.776 -2.094,1.697c-0.561,1.243 -0.987,2.529 -1.183,3.878c-0.062,0.431 -0.036,0.915 0.101,1.325c1.11,3.313 2.887,4.688 6.42,4.968c0.392,0.029 0.792,-0.079 1.159,-0.12c0.25,-0.718 0.457,-1.336 0.68,-1.951c0.212,-0.594 0.556,-1.09 1.102,-1.44c0.509,-0.328 0.905,-0.926 1.854,-0.685c-1.919,1.434 -2.438,3.411 -2.829,5.447c-0.054,0.285 -0.095,0.574 -0.187,0.845c-0.583,1.74 -0.171,3.353 0.745,4.833c0.6,0.968 1.314,1.893 2.1,2.718c2.144,2.242 4.858,3.625 7.664,4.83c0.63,0.269 1.318,0.454 1.998,0.536c0.965,0.116 1.031,0.098 0.916,1.109c-0.142,1.265 0.051,2.463 0.625,3.588c0.448,0.88 0.922,1.747 1.42,2.598c0.55,0.937 1.322,1.659 2.226,2.269c2.005,1.349 4.178,2.234 6.562,2.695c2.235,0.434 4.429,0.351 6.572,-0.312c1.644,-0.509 3.237,-1.199 4.828,-1.868c0.558,-0.235 1.09,-0.595 1.547,-0.997c2.263,-1.986 4.446,-4.045 5.679,-6.884c0.081,-0.188 0.149,-0.409 0.293,-0.535c0.189,-0.168 0.447,-0.259 0.59,-0.336c0.436,0.498 0.709,1.003 1.133,1.249c0.881,0.515 1.812,0.977 2.776,1.307c2.419,0.832 4.779,0.551 7.051,-0.59c0.858,-0.432 1.448,-1.067 1.585,-2.056c0.034,-0.244 0.1,-0.485 0.169,-0.72c0.098,-0.347 0.3,-0.581 0.756,-0.565c0.187,0.153 0.422,0.317 0.623,0.516c1.6,1.583 3.466,2.765 5.518,3.66c3.289,1.437 6.681,1.941 10.226,1.101c2.367,-0.561 4.464,-1.585 6.296,-3.215c1.43,-1.271 1.852,-2.863 1.776,-4.652c-0.081,-1.878 -0.856,-3.49 -2.048,-4.923c-0.26,-0.311 -0.517,-0.645 -0.685,-1.01c-0.183,-0.402 0.062,-0.755 0.502,-0.772c0.282,-0.01 0.571,0.047 0.852,0.104c0.966,0.199 1.925,0.441 2.897,0.61c1.534,0.268 3.072,0.555 4.619,0.722c5.028,0.544 8.61,-3.236 10.246,-6.526c0.254,-0.508 0.434,-1.068 0.564,-1.624c0.682,-2.908 0.203,-5.705 -0.827,-8.455c-0.817,-2.181 -2.185,-3.935 -3.981,-5.385c-0.621,-0.501 -1.299,-0.855 -2.095,-0.981c-0.445,-0.07 -0.896,-0.144 -1.326,-0.272c-0.165,-0.05 -0.405,-0.268 -0.395,-0.389c0.02,-0.198 0.199,-0.394 0.344,-0.562c0.073,-0.084 0.219,-0.105 0.333,-0.152c2.086,-0.839 3.936,-2.059 5.607,-3.541c3.454,-3.067 5.726,-6.736 5.804,-11.523c0.062,-3.732 -1.132,-6.819 -4.243,-9.088c-2.111,-1.539 -4.412,-2.501 -6.977,-2.906c-1.994,-0.315 -3.929,-0.204 -5.79,0.631c-0.188,0.085 -0.372,0.215 -0.566,0.231c-0.181,0.014 -0.442,-0.039 -0.539,-0.163c-0.099,-0.126 -0.109,-0.406 -0.037,-0.562c0.116,-0.255 0.354,-0.45 0.497,-0.695c0.264,-0.457 0.582,-0.909 0.725,-1.404c0.916,-3.196 0.647,-6.346 -0.49,-9.437c-0.823,-2.237 -2.353,-3.81 -4.508,-4.82c-1.404,-0.656 -2.919,-0.845 -4.404,-1.142c-3.957,-0.788 -7.499,0.186 -10.628,2.69c-1.039,0.832 -1.88,1.837 -2.262,3.159c-0.067,0.23 -0.197,0.455 -0.345,0.646c-0.184,0.237 -0.599,0.197 -0.726,-0.075c-0.1,-0.216 -0.129,-0.468 -0.171,-0.708c-0.365,-2.156 -1.254,-4.079 -2.603,-5.788c-1.234,-1.562 -2.746,-2.829 -4.378,-3.954c-2.984,-2.058 -6.167,-2.308 -9.496,-0.974c-2.577,1.034 -4.259,2.871 -4.902,5.607c-0.046,0.199 -0.045,0.428 -0.147,0.594c-0.138,0.226 -0.34,0.536 -0.545,0.561c-0.179,0.021 -0.406,-0.294 -0.6,-0.475c-0.051,-0.049 -0.048,-0.154 -0.079,-0.229c-0.738,-1.8 -1.765,-3.431 -2.883,-5.014c-1.365,-1.931 -3.248,-2.785 -5.576,-2.881c-0.182,-0.008 -0.36,-0.011 -0.54,-0.011c-1.308,0 -2.585,0.191 -3.86,0.463Zm13.001,25.613c-0.238,-0.277 -0.464,-0.579 -0.628,-0.904c-0.902,-1.792 -2.575,-2.606 -4.3,-3.26c-0.855,-0.325 -1.843,-0.298 -2.77,-0.443c-0.143,-0.023 -0.274,-0.117 -0.415,-0.179c0.091,-0.542 0.474,-0.622 0.835,-0.613c0.612,0.016 1.248,0.012 1.83,0.174c2.483,0.688 4.627,1.877 5.865,4.282c0.094,0.182 0.227,0.371 0.234,0.559c0.006,0.167 -0.101,0.38 -0.228,0.495c-0.016,0.013 -0.044,0.02 -0.081,0.02c-0.108,0 -0.28,-0.059 -0.342,-0.131Zm-29.697,2.641c-0.118,-2.313 0.775,-4.239 2.387,-5.844c0.491,-0.487 1.057,-0.903 1.621,-1.309c0.346,-0.251 0.742,-0.343 1.116,0.182c-0.175,0.172 -0.311,0.372 -0.502,0.482c-1.321,0.763 -2.26,1.895 -3.014,3.18c-0.612,1.047 -0.727,2.245 -0.821,3.431c-0.038,0.481 0.033,0.975 -0.279,1.467c-0.573,-0.44 -0.482,-1.053 -0.508,-1.589Zm4.451,11.977c-0.24,-0.497 -0.338,-1.104 -0.337,-1.66c0.002,-0.563 0.173,-1.133 0.332,-1.684c0.154,-0.533 0.453,-0.977 1.083,-1.034c0.535,-0.049 1.2,0.405 1.444,0.964c0.238,0.55 0.245,1.063 0.09,2.08c-0.212,0.485 -0.363,1.006 -0.649,1.444c-0.254,0.392 -0.616,0.586 -0.972,0.586c-0.389,0 -0.77,-0.232 -0.991,-0.696Zm17.066,1.196c-0.362,-0.212 -0.694,-0.579 -0.891,-0.955c-0.494,-0.951 -0.271,-1.93 0.141,-2.845c0.44,-0.976 1.393,-1.055 2.03,-0.188c0.397,0.541 0.6,1.167 0.523,1.85c-0.026,0.244 -0.098,0.481 -0.149,0.722c0.008,0.002 0.016,0.004 0.025,0.006c-0.075,0.276 -0.124,0.563 -0.227,0.828c-0.192,0.493 -0.492,0.763 -0.871,0.763c-0.177,0 -0.372,-0.058 -0.581,-0.181Zm-7.01,8.766c-1.226,-0.107 -2.448,-0.307 -3.529,-0.979c-1.211,-0.753 -1.834,-2.2 -1.446,-3.378c0.193,-0.583 0.243,-1.214 0.441,-1.793c0.257,-0.751 0.729,-1.374 1.342,-1.887c0.785,-0.658 1.658,-0.869 2.644,-0.549c0.664,0.216 1.294,0.49 1.975,1.092c-0.729,0.265 -1.21,0.071 -1.646,-0.083c-2.015,-0.717 -3.008,0.691 -3.495,2.122c-0.158,0.465 -0.219,0.962 -0.328,1.443c-0.14,0.613 0.088,1.119 0.428,1.61c0.711,1.025 3.565,1.774 4.527,1.163c0.378,-0.24 0.722,-0.538 1.11,-0.756c0.142,-0.081 0.434,-0.085 0.541,0.01c0.116,0.1 0.179,0.402 0.109,0.536c-0.146,0.283 -0.352,0.57 -0.605,0.755c-0.555,0.405 -1.194,0.703 -1.872,0.703c-0.064,0 -0.13,-0.002 -0.196,-0.009Zm20.833,-7.597c-0.066,-0.008 -0.124,-0.094 -0.204,-0.16c-0.1,-0.453 0.169,-0.707 0.563,-0.754c0.642,-0.077 1.31,-0.166 1.943,-0.078c4.682,0.647 7.199,3.716 8.697,7.89c0.138,0.384 0.188,0.801 0.324,1.186c0.728,2.071 0.322,4.049 -0.491,5.984c-0.302,0.719 -0.68,1.403 -1.009,2.109c-0.708,1.523 -1.986,2.482 -3.347,3.346c-0.198,0.125 -0.492,0.106 -0.84,-0.054c0.359,-0.316 0.696,-0.664 1.083,-0.939c1.838,-1.307 2.734,-3.231 3.47,-5.255c1.303,-3.573 0.08,-6.671 -1.867,-9.619c-0.226,-0.341 -0.506,-0.651 -0.783,-0.95c-1.872,-2.024 -4.147,-3.017 -6.936,-2.69c-0.069,0.008 -0.137,0.011 -0.207,0.011c-0.132,0 -0.266,-0.011 -0.396,-0.027Zm-39.445,19.354c-1.743,-1.201 -2.937,-2.815 -3.652,-4.824c-1.138,-3.198 0.437,-7.837 3.197,-9.631c-0.71,1.274 -1.451,2.408 -2.004,3.626c-2.025,4.452 0.434,8.98 3.939,10.632c0.281,0.131 0.536,0.317 0.973,0.579c-0.335,0.126 -0.637,0.18 -0.916,0.18c-0.601,0 -1.088,-0.252 -1.537,-0.562Zm18.971,-0.007c-0.572,-0.505 -0.942,-1.148 -1.069,-1.891c-0.19,-1.128 -0.361,-2.261 -0.462,-3.399c-0.046,-0.524 0.164,-1.085 -0.585,-1.439c1.321,-0.135 2.312,0.137 3.17,0.981c1.23,1.208 2.007,2.571 1.938,4.337c-0.005,0.081 0.004,0.163 -0.003,0.244c-0.061,0.685 -0.255,1.337 -0.942,1.604c-0.231,0.09 -0.46,0.133 -0.684,0.133c-0.49,0 -0.955,-0.206 -1.363,-0.57Zm5.62,3.477c0.561,-0.58 0.988,-1.293 1.438,-1.971c0.203,-0.306 0.315,-0.673 0.758,-0.717c0.454,0.257 0.306,0.653 0.158,0.966c-0.824,1.721 -2.029,3.064 -3.871,3.74c-0.227,0.084 -0.477,0.2 -0.709,0.182c-1.886,-0.14 -3.767,-0.338 -5.308,-1.606c-0.595,-0.489 -1.038,-1.102 -1.185,-1.861c0.092,-0.056 0.186,-0.112 0.278,-0.167c0.228,0.224 0.467,0.435 0.675,0.676c1.276,1.474 3.018,1.933 4.834,2.097c0.085,0.007 0.169,0.011 0.253,0.011c1.053,0 1.955,-0.595 2.679,-1.35Z" style="fill:url(#_Radial2);fill-rule:nonzero;"/><g opacity="0.1"><path d="M186.494,57.43c0.565,4.812 -2.064,10.256 -5.858,12.967c-5.449,3.892 -12.681,2.282 -18.596,0.272c1.293,3.712 4.239,9.958 0.567,12.62c-2.309,1.673 -5.963,0.853 -8.441,0.078c-3.718,-1.161 -7.09,-3.159 -10.647,-4.707c0.126,2.465 0.496,5.574 -1.348,7.39c-1.867,1.837 -5.071,1.12 -7.62,0.702c0.148,0.175 0.297,0.329 0.475,0.433c0.882,0.514 1.814,0.976 2.777,1.307c2.42,0.83 4.78,0.549 7.052,-0.59c0.858,-0.431 1.447,-1.067 1.584,-2.057c0.034,-0.243 0.1,-0.484 0.168,-0.72c0.099,-0.347 0.302,-0.579 0.756,-0.565c0.187,0.153 0.423,0.318 0.624,0.516c1.6,1.583 3.468,2.765 5.518,3.66c3.29,1.436 6.681,1.942 10.226,1.101c2.368,-0.56 4.464,-1.585 6.296,-3.215c1.43,-1.271 1.852,-2.862 1.776,-4.652c-0.08,-1.878 -0.856,-3.489 -2.047,-4.921c-0.26,-0.313 -0.517,-0.647 -0.685,-1.012c-0.184,-0.401 0.062,-0.755 0.501,-0.772c0.282,-0.01 0.572,0.048 0.851,0.104c0.967,0.199 1.926,0.441 2.898,0.61c1.535,0.269 3.072,0.555 4.62,0.722c5.026,0.544 8.609,-3.235 10.246,-6.526c0.254,-0.509 0.433,-1.067 0.563,-1.624c0.681,-2.907 0.203,-5.705 -0.826,-8.454c-0.365,-0.975 -0.856,-1.852 -1.43,-2.667" style="fill:#00aeef;fill-rule:nonzero;"/></g><g opacity="0.1"><path d="M141.652,7.213c3.305,2.72 5.204,6.886 4.838,11.125c6.517,-2.882 13.035,-5.743 20.362,-4.933c3.957,0.436 7.263,2.086 8.957,5.205c-0.092,-1.584 -0.443,-3.156 -1.014,-4.713c-0.823,-2.236 -2.353,-3.808 -4.509,-4.818c-1.403,-0.657 -2.919,-0.847 -4.403,-1.143c-3.958,-0.789 -7.499,0.185 -10.628,2.69c-1.041,0.833 -1.881,1.837 -2.264,3.159c-0.066,0.23 -0.196,0.456 -0.344,0.646c-0.184,0.238 -0.6,0.197 -0.726,-0.075c-0.099,-0.217 -0.13,-0.469 -0.171,-0.709c-0.364,-2.155 -1.253,-4.078 -2.603,-5.787c-1.235,-1.563 -2.746,-2.829 -4.378,-3.954c-2.984,-2.058 -6.167,-2.308 -9.496,-0.975c-2.294,0.92 -3.874,2.483 -4.648,4.744c3.571,-2.634 7.06,-3.729 11.027,-0.462" style="fill:#00aeef;fill-rule:nonzero;"/></g><g opacity="0.1"><path d="M118.415,68.985c-0.229,0.084 -0.478,0.2 -0.71,0.182c-1.773,-0.132 -3.539,-0.326 -5.023,-1.401c0.898,2.153 2.451,4.14 4.925,4.291c3.216,0.196 5.377,-2.937 4.029,-5.668c-0.777,1.169 -1.812,2.08 -3.221,2.596" style="fill:#00aeef;fill-rule:nonzero;"/></g><g opacity="0.1"><path d="M138.399,43.431c3.843,1.004 6.036,3.849 7.385,7.609c0.138,0.386 0.189,0.801 0.325,1.188c0.727,2.07 0.321,4.047 -0.492,5.984c-0.3,0.717 -0.68,1.401 -1.008,2.107c-0.666,1.432 -1.839,2.36 -3.107,3.185c3.154,-0.296 6.24,-1.519 7.885,-4.395c1.568,-2.746 1.338,-6.25 0.445,-9.181c-1.715,-5.624 -6.355,-7.504 -11.433,-6.497" style="fill:#00aeef;fill-rule:nonzero;"/></g><path d="M134.581,43.984c-0.101,-0.454 0.169,-0.708 0.563,-0.755c0.643,-0.076 1.31,-0.166 1.944,-0.078c4.681,0.648 7.199,3.717 8.696,7.89c0.137,0.385 0.189,0.801 0.325,1.188c0.727,2.07 0.321,4.047 -0.493,5.983c-0.299,0.717 -0.679,1.401 -1.007,2.108c-0.709,1.523 -1.987,2.482 -3.348,3.346c-0.198,0.126 -0.491,0.106 -0.84,-0.054c0.359,-0.315 0.695,-0.664 1.083,-0.939c1.839,-1.306 2.734,-3.231 3.47,-5.254c1.302,-3.574 0.079,-6.673 -1.868,-9.619c-0.225,-0.342 -0.504,-0.65 -0.782,-0.952c-1.872,-2.024 -4.147,-3.016 -6.936,-2.688c-0.197,0.024 -0.403,0.007 -0.603,-0.017c-0.066,-0.008 -0.124,-0.093 -0.204,-0.159" style="fill:#231f20;fill-rule:nonzero;"/><path d="M115.379,44.246c-0.729,0.265 -1.21,0.071 -1.646,-0.083c-2.016,-0.717 -3.008,0.691 -3.495,2.122c-0.158,0.464 -0.219,0.961 -0.328,1.443c-0.139,0.613 0.088,1.119 0.428,1.61c0.711,1.026 3.564,1.773 4.527,1.163c0.378,-0.24 0.722,-0.537 1.111,-0.757c0.143,-0.081 0.434,-0.083 0.541,0.011c0.115,0.1 0.177,0.402 0.109,0.536c-0.146,0.282 -0.352,0.57 -0.606,0.756c-0.608,0.443 -1.317,0.759 -2.068,0.693c-1.226,-0.107 -2.448,-0.307 -3.528,-0.979c-1.212,-0.753 -1.835,-2.2 -1.448,-3.378c0.194,-0.583 0.245,-1.213 0.443,-1.794c0.255,-0.751 0.728,-1.372 1.341,-1.886c0.785,-0.658 1.658,-0.87 2.644,-0.549c0.665,0.216 1.294,0.489 1.975,1.092" style="fill:#231f20;fill-rule:nonzero;"/><path d="M94.885,49.042c-0.71,1.273 -1.45,2.408 -2.004,3.626c-2.024,4.451 0.434,8.98 3.94,10.63c0.279,0.133 0.536,0.318 0.973,0.58c-1.06,0.399 -1.795,0.073 -2.454,-0.381c-1.743,-1.2 -2.937,-2.815 -3.652,-4.825c-1.137,-3.197 0.437,-7.836 3.197,-9.63" style="fill:#231f20;fill-rule:nonzero;"/><path d="M113.893,57.536c-0.114,0.064 -0.229,0.129 -0.344,0.192c0.16,1.286 0.257,2.583 0.51,3.85c0.102,0.517 0.451,1.069 0.847,1.427c0.717,0.647 1.619,0.263 1.65,-0.693c0.022,-0.676 -0.063,-1.401 -0.295,-2.033c-0.444,-1.2 -1.281,-2.106 -2.368,-2.743m-1.698,-0.773c1.322,-0.136 2.312,0.136 3.17,0.979c1.229,1.208 2.006,2.571 1.938,4.337c-0.004,0.081 0.004,0.163 -0.003,0.245c-0.06,0.685 -0.256,1.336 -0.943,1.603c-0.739,0.288 -1.451,0.093 -2.047,-0.436c-0.57,-0.506 -0.942,-1.149 -1.068,-1.892c-0.19,-1.128 -0.36,-2.261 -0.463,-3.4c-0.046,-0.522 0.165,-1.084 -0.584,-1.436" style="fill:#231f20;fill-rule:nonzero;"/><path d="M106.508,40.443c-0.212,0.484 -0.364,1.007 -0.648,1.444c-0.533,0.82 -1.54,0.778 -1.964,-0.11c-0.238,-0.497 -0.338,-1.103 -0.337,-1.659c0.002,-0.564 0.173,-1.134 0.332,-1.685c0.154,-0.531 0.453,-0.977 1.083,-1.033c0.534,-0.049 1.202,0.404 1.444,0.964c0.239,0.55 0.244,1.062 0.09,2.079" style="fill:#231f20;fill-rule:nonzero;"/><path d="M111.491,65.533c0.226,0.224 0.466,0.436 0.674,0.676c1.276,1.475 3.019,1.932 4.834,2.096c1.163,0.105 2.151,-0.525 2.933,-1.336c0.56,-0.581 0.987,-1.294 1.437,-1.973c0.204,-0.306 0.316,-0.673 0.759,-0.717c0.452,0.258 0.306,0.654 0.157,0.966c-0.824,1.722 -2.029,3.065 -3.87,3.74c-0.228,0.084 -0.477,0.199 -0.71,0.183c-1.886,-0.141 -3.767,-0.338 -5.307,-1.606c-0.594,-0.489 -1.038,-1.102 -1.186,-1.86c0.093,-0.057 0.186,-0.112 0.279,-0.169" style="fill:#231f20;fill-rule:nonzero;"/><path d="M122.641,41.564c-0.074,0.277 -0.123,0.563 -0.227,0.829c-0.28,0.723 -0.795,0.965 -1.452,0.581c-0.362,-0.212 -0.694,-0.579 -0.889,-0.954c-0.496,-0.952 -0.273,-1.931 0.14,-2.845c0.439,-0.977 1.392,-1.056 2.029,-0.188c0.397,0.541 0.6,1.166 0.524,1.849c-0.026,0.244 -0.099,0.481 -0.151,0.722c0.008,0.002 0.017,0.004 0.026,0.006" style="fill:#231f20;fill-rule:nonzero;"/><path d="M121.03,22.374c0.091,-0.543 0.474,-0.621 0.835,-0.613c0.612,0.014 1.247,0.012 1.83,0.174c2.483,0.688 4.626,1.876 5.864,4.283c0.094,0.181 0.228,0.369 0.235,0.558c0.006,0.167 -0.101,0.38 -0.228,0.494c-0.064,0.056 -0.341,-0.014 -0.423,-0.11c-0.239,-0.278 -0.464,-0.579 -0.629,-0.905c-0.903,-1.791 -2.575,-2.605 -4.3,-3.26c-0.854,-0.324 -1.843,-0.298 -2.77,-0.443c-0.141,-0.023 -0.273,-0.115 -0.414,-0.178" style="fill:#231f20;fill-rule:nonzero;"/><path d="M99.953,31.39c-0.575,-0.439 -0.481,-1.052 -0.508,-1.589c-0.116,-2.312 0.775,-4.24 2.387,-5.844c0.491,-0.488 1.057,-0.903 1.62,-1.309c0.348,-0.25 0.744,-0.343 1.117,0.182c-0.175,0.172 -0.312,0.373 -0.502,0.482c-1.321,0.763 -2.26,1.896 -3.013,3.18c-0.613,1.047 -0.728,2.247 -0.822,3.431c-0.039,0.482 0.033,0.975 -0.279,1.467" style="fill:#231f20;fill-rule:nonzero;"/><path d="M113.893,57.536c1.087,0.637 1.924,1.543 2.368,2.743c0.232,0.632 0.317,1.357 0.295,2.033c-0.031,0.956 -0.933,1.34 -1.65,0.693c-0.396,-0.358 -0.745,-0.91 -0.847,-1.427c-0.253,-1.267 -0.35,-2.564 -0.51,-3.85c0.115,-0.063 0.23,-0.128 0.344,-0.192" style="fill:#7fb6e3;fill-rule:nonzero;"/><path d="M125.411,55.293c0,4.119 3.344,7.463 7.464,7.463c4.119,0 7.463,-3.344 7.463,-7.463c0,-4.118 -3.344,-7.462 -7.463,-7.462c-4.12,0 -7.464,3.344 -7.464,7.462Z" style="fill:url(#_Radial3);"/><path d="M93.937,55.293c0,4.119 3.344,7.463 7.463,7.463c4.118,0 7.462,-3.344 7.462,-7.463c0,-4.118 -3.344,-7.462 -7.462,-7.462c-4.119,0 -7.463,3.344 -7.463,7.462Z" style="fill:url(#_Radial4);"/><path d="M91.219,79.632c-0.154,-0.121 -0.313,-0.183 -0.365,-0.296c-0.76,-1.617 -0.66,-2.958 0.476,-3.96c0.709,-0.623 1.56,-1.105 2.399,-1.554c0.505,-0.27 0.89,-0.576 1.24,-1.037c0.691,-0.905 1.406,-1.823 2.257,-2.57c2.154,-1.889 4.741,-2.979 7.5,-3.629c2.366,-0.557 4.759,-0.997 7.137,-1.501c0.223,-0.047 0.426,-0.178 0.848,-0.361c-1.391,-0.375 -2.56,-0.693 -3.731,-1.002c-0.103,-0.028 -0.221,-0.018 -0.331,-0.011c-2.428,0.131 -4.878,0.052 -7.242,0.787c-0.668,0.209 -1.348,0.38 -2.025,0.559c-1.962,0.518 -3.942,0.969 -5.809,1.793c-0.911,0.403 -1.805,0.858 -2.743,1.185c-2.194,0.762 -3.986,2.062 -5.441,3.852c-0.443,0.545 -0.904,1.076 -1.314,1.644c-2.191,3.029 -3.435,6.341 -3.016,10.151c0.361,3.271 3.56,5.891 6.818,5.384c3.993,-0.621 7.392,-2.371 10.045,-5.54c2.112,-2.525 1.985,-6.593 -0.74,-8.957c-0.717,-0.623 -1.233,-0.7 -2.108,-0.284c-0.13,0.062 -0.277,0.183 -0.394,0.161c-0.697,-0.134 -1.217,0.276 -1.731,0.597c-1.725,1.077 -2.13,1.828 -1.549,3.759c0.041,0.139 0.088,0.294 0.064,0.428c-0.023,0.126 -0.138,0.235 -0.245,0.402m4.688,-6.573c2.391,0.764 4.043,3.007 4.286,5.403c0.198,1.97 -0.134,3.743 -1.355,5.321c-0.978,1.264 -2.096,2.39 -3.427,3.281c-2.208,1.478 -4.634,2.442 -7.256,2.859c-3.563,0.569 -7.192,-2.012 -7.936,-5.526c-0.336,-1.59 -0.259,-3.135 0.058,-4.713c0.821,-4.085 3.07,-7.315 6.026,-10.105c0.712,-0.672 1.568,-1.265 2.461,-1.666c2.521,-1.13 5.016,-2.347 7.698,-3.077c2.064,-0.562 4.128,-1.116 6.207,-1.612c0.784,-0.187 1.608,-0.212 2.415,-0.286c0.553,-0.051 1.115,-0.007 1.659,-0.094c2.009,-0.32 3.878,0.302 5.75,0.847c0.457,0.134 0.887,0.517 1.221,0.886c0.345,0.381 0.182,0.858 -0.292,1.091c-0.23,0.112 -0.486,0.182 -0.737,0.236c-1.726,0.381 -3.452,0.762 -5.183,1.124c-0.648,0.135 -1.308,0.213 -1.959,0.336c-2.315,0.434 -4.441,1.352 -6.44,2.571c-1.276,0.778 -2.306,1.814 -3.196,3.124" style="fill:#231f20;fill-rule:nonzero;"/><path d="M108.649,63.71c-2.429,0.133 -4.878,0.053 -7.242,0.789c-0.669,0.209 -1.349,0.38 -2.026,0.559c-1.961,0.517 -3.942,0.967 -5.807,1.792c-0.912,0.404 -1.806,0.858 -2.744,1.185c-2.194,0.762 -3.987,2.061 -5.441,3.853c-0.443,0.544 -0.904,1.075 -1.315,1.643c-2.19,3.03 -3.435,6.34 -3.015,10.152c0.361,3.27 3.559,5.889 6.818,5.383c3.993,-0.621 7.391,-2.371 10.044,-5.539c2.114,-2.527 1.986,-6.593 -0.738,-8.958c-0.718,-0.622 -1.235,-0.699 -2.109,-0.284c-0.13,0.061 -0.276,0.183 -0.394,0.16c-0.698,-0.133 -1.217,0.278 -1.732,0.598c-1.724,1.077 -2.129,1.829 -1.548,3.759c0.04,0.138 0.087,0.294 0.064,0.428c-0.024,0.127 -0.14,0.236 -0.247,0.401c-0.153,-0.12 -0.311,-0.182 -0.363,-0.295c-0.761,-1.616 -0.661,-2.958 0.476,-3.96c0.708,-0.624 1.56,-1.105 2.398,-1.553c0.505,-0.271 0.89,-0.576 1.241,-1.037c0.691,-0.906 1.404,-1.824 2.255,-2.57c2.156,-1.891 4.743,-2.979 7.501,-3.629c2.367,-0.557 4.761,-0.999 7.138,-1.501c0.223,-0.048 0.426,-0.18 0.847,-0.362c-1.39,-0.376 -2.559,-0.692 -3.729,-1.003c-0.054,-0.013 -0.112,-0.017 -0.17,-0.017c-0.053,0 -0.108,0.003 -0.162,0.006Z" style="fill:url(#_Linear5);fill-rule:nonzero;"/><g opacity="0.7"><path d="M85.161,75.169c0,0 -4.512,9.962 0.542,11.589c5.054,1.626 -0.655,-2.192 0.418,-6.846c1.072,-4.654 5.71,-6.449 4.176,-9.223c-1.533,-2.775 -5.136,4.48 -5.136,4.48" style="fill:#fff;fill-rule:nonzero;"/></g><path d="M63.542,74.623c-0.129,-0.148 -0.273,-0.239 -0.303,-0.359c-0.442,-1.732 -0.091,-3.03 1.215,-3.799c0.814,-0.48 1.741,-0.791 2.65,-1.074c0.544,-0.17 0.981,-0.399 1.413,-0.785c0.848,-0.758 1.724,-1.526 2.7,-2.098c2.471,-1.449 5.217,-2.031 8.05,-2.15c2.428,-0.101 4.863,-0.082 7.293,-0.128c0.227,-0.004 0.452,-0.095 0.9,-0.195c-1.295,-0.63 -2.384,-1.163 -3.475,-1.688c-0.097,-0.047 -0.214,-0.059 -0.323,-0.073c-2.409,-0.328 -4.8,-0.868 -7.261,-0.592c-0.696,0.079 -1.395,0.118 -2.095,0.167c-2.023,0.138 -4.053,0.208 -6.041,0.665c-0.972,0.223 -1.935,0.502 -2.918,0.646c-2.298,0.335 -4.304,1.274 -6.069,2.758c-0.538,0.451 -1.09,0.886 -1.602,1.367c-2.722,2.561 -4.569,5.578 -4.875,9.399c-0.263,3.28 2.384,6.456 5.68,6.573c4.039,0.143 7.706,-0.935 10.909,-3.546c2.552,-2.082 3.194,-6.1 0.963,-8.936c-0.586,-0.746 -1.08,-0.919 -2.017,-0.676c-0.139,0.036 -0.307,0.127 -0.417,0.084c-0.66,-0.263 -1.248,0.041 -1.813,0.259c-1.898,0.733 -2.436,1.395 -2.23,3.399c0.015,0.144 0.031,0.306 -0.017,0.433c-0.047,0.12 -0.18,0.205 -0.317,0.349m5.843,-5.571c2.205,1.201 3.404,3.716 3.19,6.113c-0.176,1.974 -0.837,3.652 -2.332,4.971c-1.199,1.057 -2.51,1.952 -3.985,2.576c-2.448,1.035 -5.011,1.525 -7.665,1.44c-3.606,-0.113 -6.685,-3.333 -6.752,-6.924c-0.03,-1.625 0.336,-3.127 0.946,-4.618c1.577,-3.856 4.393,-6.604 7.822,-8.786c0.828,-0.527 1.78,-0.947 2.732,-1.172c2.689,-0.634 5.368,-1.36 8.141,-1.571c2.131,-0.163 4.263,-0.318 6.399,-0.413c0.805,-0.036 1.619,0.095 2.427,0.175c0.55,0.054 1.095,0.203 1.645,0.22c2.034,0.064 3.752,1.029 5.487,1.916c0.424,0.218 0.774,0.676 1.032,1.101c0.268,0.44 0.017,0.878 -0.491,1.016c-0.247,0.068 -0.512,0.086 -0.769,0.093c-1.767,0.049 -3.535,0.096 -5.302,0.126c-0.662,0.011 -1.326,-0.036 -1.988,-0.039c-2.355,-0.01 -4.616,0.492 -6.809,1.311c-1.4,0.523 -2.607,1.347 -3.728,2.465" style="fill:#231f20;fill-rule:nonzero;"/><path d="M76.402,61.683c-0.696,0.078 -1.396,0.118 -2.096,0.165c-2.022,0.14 -4.052,0.208 -6.041,0.667c-0.971,0.223 -1.934,0.501 -2.918,0.645c-2.298,0.335 -4.304,1.274 -6.07,2.758c-0.537,0.452 -1.089,0.886 -1.6,1.366c-2.722,2.562 -4.57,5.578 -4.875,9.401c-0.265,3.279 2.384,6.455 5.679,6.573c4.039,0.143 7.706,-0.935 10.909,-3.547c2.552,-2.081 3.193,-6.101 0.963,-8.936c-0.586,-0.746 -1.079,-0.919 -2.017,-0.676c-0.139,0.036 -0.307,0.126 -0.417,0.083c-0.66,-0.263 -1.249,0.043 -1.813,0.26c-1.897,0.734 -2.437,1.394 -2.229,3.4c0.013,0.144 0.031,0.306 -0.019,0.433c-0.046,0.119 -0.18,0.205 -0.317,0.348c-0.127,-0.148 -0.271,-0.239 -0.302,-0.359c-0.441,-1.731 -0.091,-3.03 1.216,-3.799c0.814,-0.48 1.74,-0.791 2.649,-1.075c0.544,-0.169 0.981,-0.398 1.414,-0.783c0.848,-0.759 1.722,-1.528 2.699,-2.099c2.472,-1.449 5.217,-2.031 8.049,-2.15c2.429,-0.1 4.863,-0.082 7.294,-0.128c0.227,-0.004 0.453,-0.095 0.9,-0.195c-1.295,-0.631 -2.383,-1.163 -3.475,-1.688c-0.096,-0.046 -0.213,-0.059 -0.322,-0.073c-1.944,-0.266 -3.877,-0.667 -5.84,-0.667c-0.472,0 -0.946,0.023 -1.421,0.076Z" style="fill:url(#_Linear6);fill-rule:nonzero;"/><g opacity="0.7"><path d="M58.435,69.098c0,0 -6.309,8.933 -1.652,11.483c4.656,2.55 -0.231,-2.277 1.7,-6.645c1.931,-4.367 6.825,-5.257 5.842,-8.27c-0.983,-3.014 -5.89,3.432 -5.89,3.432" style="fill:#fff;fill-rule:nonzero;"/></g><path d="M105.167,59.655c0.003,-0.097 0.007,-0.194 0.01,-0.292c-1.09,-0.15 -2.179,-0.302 -3.269,-0.451c-1.504,-0.203 -2.974,-0.535 -4.389,-1.103c-0.75,-0.302 -1.525,-0.546 -2.299,-0.788c-1.336,-0.417 -2.681,-0.802 -4.017,-1.22c-0.632,-0.197 -1.254,-0.432 -1.876,-0.66c-3.194,-1.171 -6.37,-2.374 -8.965,-4.69c-0.329,-0.293 -0.69,-0.566 -1.072,-0.783c-2.239,-1.273 -3.854,-3.19 -5.412,-5.169c-0.695,-0.883 -1.236,-1.847 -1.378,-2.98c-0.062,-0.504 -0.032,-1.018 -0.043,-1.485c-0.572,-0.412 -1.139,-0.761 -1.634,-1.193c-0.705,-0.615 -1.283,-1.35 -1.431,-2.309c-0.28,-1.807 0.268,-3.351 1.585,-4.615c0.155,-0.148 0.359,-0.269 0.563,-0.34c0.404,-0.142 0.71,-0.024 0.878,0.472c-0.214,0.154 -0.425,0.287 -0.614,0.445c-1.692,1.413 -2.367,4.015 -0.142,5.817c1.004,0.815 2.148,0.951 3.339,0.814c2.607,-0.299 5.57,-3.042 6.218,-5.815c0.43,-1.839 0.586,-3.723 0.267,-5.608c-0.187,-1.103 -0.5,-2.194 -1.292,-3.014c-1.462,-1.511 -2.972,-2.976 -4.495,-4.424c-0.572,-0.544 -1.305,-0.786 -2.106,-0.886c-1.047,-0.129 -2.079,-0.054 -3.075,0.206c-2.464,0.643 -4.919,1.32 -7.357,2.054c-1.704,0.513 -3.114,1.526 -4.219,2.923c-1.907,2.413 -3.296,5.041 -3.595,8.185c-0.217,2.277 -0.138,4.515 0.602,6.67c1.578,4.586 4.262,8.415 8.159,11.337c2.287,1.715 4.859,2.927 7.471,4.064c5.279,2.301 10.773,3.785 16.495,4.441c1.212,0.139 2.415,0.344 3.63,0.44c1.211,0.097 2.429,0.118 3.645,0.132c2.027,0.02 4.054,0.031 6.081,0.002c1.246,-0.018 2.491,-0.115 3.737,-0.177m-31.916,-19.473c-0.032,0.257 -0.111,0.448 -0.069,0.607c0.189,0.707 0.274,1.492 0.648,2.09c1.302,2.073 2.871,3.931 4.88,5.377c1.049,0.755 2.064,1.556 3.123,2.294c0.786,0.546 1.587,1.086 2.439,1.519c2.039,1.037 4.148,1.915 6.339,2.602c2.846,0.894 5.662,1.885 8.503,2.794c0.804,0.258 1.647,0.42 2.484,0.547c1.571,0.239 3.149,0.42 4.725,0.627c0.256,0.033 0.539,0.024 0.757,0.136c0.196,0.099 0.38,0.321 0.447,0.528c0.027,0.082 -0.248,0.34 -0.426,0.399c-1.514,0.505 -3.071,0.837 -4.665,0.881c-2.653,0.073 -5.308,0.128 -7.961,0.104c-1.51,-0.014 -3.022,-0.163 -4.526,-0.316c-1.617,-0.165 -3.23,-0.37 -4.838,-0.617c-7.044,-1.082 -13.679,-3.383 -19.8,-7.022c-5.132,-3.051 -8.478,-7.61 -10.352,-13.241c-0.658,-1.977 -0.868,-4.04 -0.563,-6.123c0.209,-1.419 0.212,-2.875 0.772,-4.235c0.962,-2.345 2.166,-4.546 4.07,-6.26c0.729,-0.657 1.571,-1.283 2.474,-1.638c3.303,-1.299 6.691,-2.347 10.233,-2.764c1.841,-0.216 3.53,0.199 4.893,1.548c1.284,1.273 2.596,2.524 3.824,3.852c1.263,1.368 1.638,3.108 1.785,4.904c0.121,1.484 -0.078,2.951 -0.315,4.409c-0.506,3.117 -3.752,6.406 -6.769,6.86c-0.651,0.098 -1.321,0.09 -2.112,0.138" style="fill:#231f20;fill-rule:nonzero;"/><path d="M70.518,19.583c-2.463,0.645 -4.918,1.322 -7.357,2.054c-1.704,0.515 -3.114,1.528 -4.219,2.924c-1.907,2.412 -3.296,5.041 -3.596,8.186c-0.217,2.276 -0.138,4.515 0.603,6.67c1.578,4.584 4.262,8.415 8.159,11.337c2.286,1.714 4.859,2.927 7.47,4.063c5.28,2.301 10.775,3.786 16.496,4.442c1.211,0.139 2.415,0.343 3.63,0.441c1.211,0.095 2.429,0.117 3.644,0.13c2.027,0.021 4.056,0.03 6.082,0.001c1.246,-0.017 2.491,-0.114 3.736,-0.176c0.004,-0.096 0.008,-0.194 0.011,-0.292c-1.091,-0.15 -2.18,-0.302 -3.269,-0.449c-1.504,-0.205 -2.973,-0.537 -4.389,-1.105c-0.75,-0.301 -1.526,-0.545 -2.299,-0.787c-1.336,-0.417 -2.681,-0.802 -4.018,-1.22c-0.631,-0.199 -1.254,-0.433 -1.875,-0.661c-3.193,-1.17 -6.369,-2.375 -8.965,-4.689c-0.329,-0.295 -0.689,-0.567 -1.073,-0.784c-2.237,-1.273 -3.854,-3.19 -5.411,-5.168c-0.694,-0.883 -1.237,-1.849 -1.378,-2.98c-0.063,-0.504 -0.032,-1.019 -0.043,-1.485c-0.573,-0.413 -1.14,-0.762 -1.634,-1.194c-0.705,-0.616 -1.283,-1.35 -1.431,-2.309c-0.28,-1.806 0.266,-3.351 1.584,-4.614c0.156,-0.149 0.36,-0.27 0.563,-0.341c0.405,-0.142 0.711,-0.024 0.878,0.472c-0.213,0.154 -0.425,0.287 -0.614,0.446c-1.691,1.413 -2.366,4.015 -0.142,5.816c1.005,0.814 2.149,0.951 3.339,0.814c2.608,-0.299 5.571,-3.042 6.219,-5.815c0.43,-1.839 0.586,-3.722 0.267,-5.607c-0.188,-1.104 -0.5,-2.195 -1.293,-3.015c-1.461,-1.511 -2.972,-2.976 -4.494,-4.423c-0.571,-0.545 -1.305,-0.786 -2.107,-0.886c-0.336,-0.041 -0.672,-0.062 -1.005,-0.062c-0.701,0 -1.394,0.091 -2.069,0.266Z" style="fill:url(#_Linear7);fill-rule:nonzero;"/><g opacity="0.7"><path d="M68.876,22.599c0,0 -13.981,2.023 -10.81,13.818c3.17,11.795 -0.346,-5.199 6.708,-7.983c7.054,-2.784 9.815,-4.874 4.102,-5.835" style="fill:#fff;fill-rule:nonzero;"/></g><g><path d="M0.753,14.709l5.382,0l0,-1.352l-3.848,0l0,-2.847l3.796,0l0,-1.339l-3.796,0l0,-2.73l3.848,0l0,-1.352l-5.382,0l0,9.62Z" style="fill:#231f20;fill-rule:nonzero;"/><rect x="7.694" y="5.089" width="1.352" height="9.62" style="fill:#231f20;"/><path d="M20.668,7.637l-1.417,0l-1.963,5.382l-1.963,-5.382l-1.417,0l2.704,7.072l1.352,0l2.704,-7.072Z" style="fill:#231f20;fill-rule:nonzero;"/><path d="M21.695,6.519l1.352,0l0,-1.43l-1.352,0l0,1.43Zm0,8.19l1.352,0l0,-7.072l-1.352,0l0,7.072Z" style="fill:#231f20;fill-rule:nonzero;"/><path d="M31.731,11.602c0.117,-1.183 -0.234,-2.288 -1.066,-3.133c-0.676,-0.663 -1.599,-1.04 -2.613,-1.04c-2.145,0 -3.731,1.729 -3.731,3.757c0,1.872 1.43,3.731 3.744,3.731c0.715,0 1.417,-0.195 2.015,-0.598c0.598,-0.39 1.092,-0.975 1.43,-1.755l-1.404,0c-0.39,0.741 -1.092,1.196 -2.041,1.196c-1.066,0 -2.314,-0.728 -2.379,-2.158l6.045,0Zm-6.019,-1.053c0.065,-0.962 0.962,-1.963 2.34,-1.963c1.339,-0.026 2.275,1.027 2.34,1.963l-4.68,0Z" style="fill:#231f20;fill-rule:nonzero;"/><path d="M33.057,14.709l1.352,0l0,-3.939c0,-1.222 0.611,-2.054 1.937,-2.067c1.378,-0.013 1.872,0.897 1.872,2.171l0,3.835l1.365,0l0,-4.147c0,-1.469 -0.598,-3.107 -2.86,-3.133c-1.261,-0.013 -2.054,0.572 -2.392,1.3l0,-1.092l-1.274,0l0,7.072Z" style="fill:#231f20;fill-rule:nonzero;"/><path d="M41.832,14.709l1.352,0l0,-6.019l1.365,0l0,-1.053l-1.365,0l0,-2.548l-1.352,0l0,2.548l-1.274,0l0,1.053l1.274,0l0,6.019Z" style="fill:#231f20;fill-rule:nonzero;"/><path d="M44.808,11.173c0,1.898 1.391,3.731 3.77,3.731c2.379,0 3.77,-1.833 3.77,-3.731c0,-1.898 -1.391,-3.744 -3.77,-3.744c-2.379,0 -3.77,1.846 -3.77,3.731l0,0.013Zm1.352,0c0,-1.417 1.066,-2.47 2.418,-2.47c1.352,0 2.418,1.053 2.418,2.47c0,1.417 -1.066,2.47 -2.418,2.47c-1.352,0 -2.418,-1.053 -2.418,-2.457l0,-0.013Z" style="fill:#231f20;fill-rule:nonzero;"/></g></g><defs><radialGradient id="_Radial2" cx="0" cy="0" r="1" gradientUnits="userSpaceOnUse" gradientTransform="matrix(93.5293,0.923832,-0.723024,73.1994,105.176,48.1855)"><stop offset="0" style="stop-color:#fff;stop-opacity:1"/><stop offset="0.54" style="stop-color:#fff;stop-opacity:1"/><stop offset="1" style="stop-color:#c7d6ee;stop-opacity:1"/></radialGradient><radialGradient id="_Radial3" cx="0" cy="0" r="1" gradientUnits="userSpaceOnUse" gradientTransform="matrix(7.46258,0,0,7.46258,132.874,55.2933)"><stop offset="0" style="stop-color:#fbd0d5;stop-opacity:1"/><stop offset="0.95" style="stop-color:#fff;stop-opacity:1"/><stop offset="1" style="stop-color:#fff;stop-opacity:1"/></radialGradient><radialGradient id="_Radial4" cx="0" cy="0" r="1" gradientUnits="userSpaceOnUse" gradientTransform="matrix(7.46258,0,0,7.46258,101.4,55.2933)"><stop offset="0" style="stop-color:#fbd0d5;stop-opacity:1"/><stop offset="0.95" style="stop-color:#fff;stop-opacity:1"/><stop offset="1" style="stop-color:#fff;stop-opacity:1"/></radialGradient><linearGradient id="_Linear5" x1="0" y1="0" x2="1" y2="0" gradientUnits="userSpaceOnUse" gradientTransform="matrix(32.4956,-1.52164,1.52164,32.4956,80.7294,77.2166)"><stop offset="0" style="stop-color:#f0f4fb;stop-opacity:1"/><stop offset="1" style="stop-color:#c7d6ee;stop-opacity:1"/></linearGradient><linearGradient id="_Linear6" x1="0" y1="0" x2="1" y2="0" gradientUnits="userSpaceOnUse" gradientTransform="matrix(32.1995,4.63343,-4.63343,32.1995,53.6966,70.2729)"><stop offset="0" style="stop-color:#f0f4fb;stop-opacity:1"/><stop offset="1" style="stop-color:#c7d6ee;stop-opacity:1"/></linearGradient><linearGradient id="_Linear7" x1="0" y1="0" x2="1" y2="0" gradientUnits="userSpaceOnUse" gradientTransform="matrix(52.4075,6.68706,-6.68706,52.4075,54.9222,36.015)"><stop offset="0" style="stop-color:#f0f4fb;stop-opacity:1"/><stop offset="1" style="stop-color:#c7d6ee;stop-opacity:1"/></linearGradient></defs></svg>