<?xml version="1.0" encoding="UTF-8" standalone="no"?>
<!DOCTYPE svg PUBLIC "-//W3C//DTD SVG 1.1//EN" "http://www.w3.org/Graphics/SVG/1.1/DTD/svg11.dtd">
<svg width="100%" height="100%" viewBox="0 0 108 159" version="1.1" xmlns="http://www.w3.org/2000/svg" xmlns:xlink="http://www.w3.org/1999/xlink" xml:space="preserve" xmlns:serif="http://www.serif.com/" style="fill-rule:evenodd;clip-rule:evenodd;stroke-linejoin:round;stroke-miterlimit:2;">
    <g transform="matrix(1,0,0,1,-46,-27)">
        <g id="girl2" transform="matrix(0.503802,0,0,0.503802,46.433,27.0919)">
            <g transform="matrix(0,-1,-1,0,106.325,182.158)">
                <path d="M-106.325,-106.326C-120.659,-106.326 -132.279,-58.722 -132.279,-0.001C-132.279,58.721 -120.659,106.325 -106.325,106.325C-91.992,106.325 -80.372,58.721 -80.372,-0.001C-80.372,-58.722 -91.992,-106.326 -106.325,-106.326" style="fill:rgb(132,174,197);fill-rule:nonzero;"/>
            </g>
            <g transform="matrix(-1,0,0,1,127.111,84.4119)">
                <path d="M0,-6.287C1.707,-6.287 3.097,-4.878 3.097,-3.143C3.097,-1.409 1.707,0 0,0C-1.707,0 -3.097,-1.409 -3.097,-3.143C-3.097,-4.878 -1.707,-6.287 0,-6.287" style="fill:white;fill-rule:nonzero;"/>
            </g>
            <g transform="matrix(1,0,0,1,101.251,88.2411)">
                <path d="M0,7.668C-0.738,7.864 -1.44,8.064 -2.03,8.341C2.256,11.012 7.873,13.599 9.756,13.408C15.144,12.762 20.988,7.558 27.17,-2.049C26.75,-1.934 26.316,-1.852 25.86,-1.852C23.43,-1.852 21.397,-3.605 20.922,-5.931C15.308,0.618 8.07,5.521 0,7.668" style="fill:rgb(130,77,68);fill-rule:nonzero;"/>
            </g>
            <g transform="matrix(1,0,0,1,72.653,95.505)">
                <path d="M0,-84.052C2.409,-84.052 4.361,-82.994 4.361,-81.691C4.361,-80.387 2.409,-79.329 0,-79.329C-2.409,-79.329 -4.362,-80.387 -4.362,-81.691C-4.362,-82.994 -2.409,-84.052 0,-84.052M6.767,-82.975C8.479,-85.958 11.654,-87.948 15.05,-88.169C16.446,-88.26 17.713,-88.058 18.833,-87.567C21.412,-86.448 23.427,-83.937 23.846,-81.321C24.274,-78.637 23.817,-76.916 22.032,-74.5L20.474,-75.686C21.94,-77.671 22.265,-78.865 21.923,-81.004C21.606,-82.979 20.057,-84.885 18.065,-85.75C17.238,-86.114 16.242,-86.266 15.174,-86.197C12.459,-86.019 9.819,-84.364 8.45,-81.979C7.192,-79.789 7.19,-76.53 9.664,-74.804L8.561,-73.174C5.118,-75.576 5.068,-80.017 6.767,-82.975M29.949,-85.823C32.358,-85.823 34.312,-84.766 34.312,-83.461C34.312,-82.157 32.358,-81.101 29.949,-81.101C27.541,-81.101 25.588,-82.157 25.588,-83.461C25.588,-84.766 27.541,-85.823 29.949,-85.823M10.085,-34.671L9.817,-36.629C17.307,-37.686 24.877,-38.869 32.318,-40.148L32.645,-38.198C25.184,-36.917 17.593,-35.732 10.085,-34.671M-23.443,-43.167C-23.31,-41.772 -22.921,-39.491 -22.542,-37.593C-21.714,-38.04 -19.958,-38.329 -14.329,-29.749C-12.402,-26.818 -10.889,-24.971 -7.267,-21.987C-4.657,-25.13 -1.055,-27.877 1.672,-29.719C2.448,-30.242 3.368,-30.802 4.477,-30.81L4.492,-30.81C5.989,-30.81 7.169,-29.798 8.126,-28.805C9.122,-27.773 10.375,-26.232 11.361,-25.007C14.305,-24.929 17.382,-23.912 19.465,-22.572C19.786,-22.596 20.106,-22.653 20.428,-22.669L21.129,-22.703L21.383,-22.039C22.504,-19.103 23.019,-15.888 22.87,-12.74C22.825,-11.804 22.685,-10.736 21.978,-9.921C21.464,-9.328 20.719,-8.977 19.879,-8.933C18.857,-8.878 17.777,-9.276 17.011,-9.996C16.132,-10.821 15.642,-11.901 15.292,-12.926C14.445,-12.603 13.545,-12.414 12.642,-12.369C13.017,-8.129 12.424,-4.779 10.841,-2.156C10.431,-1.479 9.901,-0.849 9.307,-0.275C10.844,1.093 11.773,2.463 12.25,4.76C12.438,5.66 12.482,6.565 12.526,7.44C12.588,8.697 12.646,9.883 13.115,10.892C13.563,11.858 14.438,12.613 15.578,13.014C16.897,13.479 18.385,13.404 19.554,12.815C21.766,11.699 23.212,9.01 23.153,6.123C23.146,5.801 23.126,5.474 23.104,5.144C23.018,3.758 22.918,2.186 23.805,0.855C24.792,-0.627 26.562,-1.099 27.985,-1.477C40.598,-4.833 51.096,-15.087 56.123,-27.867L55.993,-27.994C56.077,-28.083 56.172,-28.153 56.259,-28.237C56.979,-30.114 57.574,-32.044 58.048,-34.014L57.858,-34.187C57.946,-34.285 58.066,-34.356 58.164,-34.447C58.69,-36.735 59.048,-39.073 59.212,-41.444C60.374,-58.279 52.058,-76.978 38.514,-87.973C26.746,-97.531 5.713,-93.466 -6.546,-83.678C-18.271,-74.312 -24.904,-58.41 -23.443,-43.167" style="fill:rgb(249,223,199);fill-rule:nonzero;"/>
            </g>
            <g transform="matrix(1,0,0,1,98.0114,97.4074)">
                <path d="M0,0.195L0.12,0C0.104,0.023 0.075,0.038 0.06,0.061C0.033,0.101 0.024,0.153 0,0.195" style="fill:white;fill-rule:nonzero;"/>
            </g>
            <g transform="matrix(1,0,0,1,135.332,80.6671)">
                <path d="M0,-19.175C-1.109,-19.157 -2.098,-18.927 -2.8,-18.491C-3.081,-17.349 -3.4,-16.22 -3.762,-15.106C-3.415,-15.229 -3.064,-15.32 -2.713,-15.375C-1.018,-15.638 0.713,-15.089 1.8,-13.923C3.048,-12.583 3.324,-10.519 2.458,-9.015L0.776,-10.011C1.201,-10.75 1.029,-11.872 0.385,-12.564C-0.268,-13.265 -1.331,-13.605 -2.413,-13.421C-3.221,-13.295 -4.036,-12.88 -4.769,-12.257C-5.844,-9.532 -7.18,-6.935 -8.701,-4.47C-8.541,-4.486 -8.386,-4.52 -8.221,-4.52C-5.651,-4.52 -3.549,-2.553 -3.238,-0.029L-3.189,0C2.343,-2.195 4.735,-7.493 5.218,-10.237C5.531,-12.029 5.769,-15.385 3.827,-17.705C3.1,-18.574 1.598,-19.15 0,-19.175" style="fill:rgb(249,223,199);fill-rule:nonzero;"/>
            </g>
            <g transform="matrix(1,0,0,1,133.807,12.5441)">
                <path d="M0,41.657C-0.133,43.569 -0.416,45.455 -0.778,47.319C-0.063,47.113 0.709,46.981 1.553,46.97C2.379,46.983 3.15,47.136 3.879,47.354C6.605,34.672 5.206,22.005 -0.102,11.642C-3.735,4.551 -11.897,-1.665 -20.433,-5.697C-7.008,5.783 1.177,24.623 0,41.657" style="fill:rgb(130,77,68);fill-rule:nonzero;"/>
            </g>
            <g transform="matrix(1,0,0,1,111.235,97.3412)">
                <path d="M0,6.27C-0.137,6.288 -0.281,6.294 -0.433,6.294C-0.941,6.294 -1.548,6.185 -2.19,6.029C-2.063,7.031 -1.342,8.042 -0.285,8.556C0.825,9.096 2.243,9.208 3.931,8.89C7.107,8.291 10.047,6.448 11.998,3.832C13.502,1.817 14.252,-0.341 14.006,-1.942C13.949,-2.307 13.829,-2.632 13.675,-2.938C8.979,2.7 4.456,5.736 0,6.27" style="fill:rgb(229,116,169);fill-rule:nonzero;"/>
            </g>
            <g transform="matrix(1,0,0,1,128.908,171.172)">
                <path d="M0,-29.773L2.302,-19.321L1.58,-18.991C-0.376,-18.092 -2.441,-17.454 -4.55,-17.039C-2.988,-11.369 -1.312,-5.667 0.384,0C3.632,-3.936 7.053,-8.368 7.914,-13.622C8.407,-16.632 7.951,-19.736 6.715,-22.508L4.472,-21.417L0,-29.773Z" style="fill:rgb(229,116,169);fill-rule:nonzero;"/>
            </g>
            <g transform="matrix(1,0,0,1,126.736,151.505)">
                <path d="M0,-41.951C5.013,-38.371 8.109,-32.467 8.198,-26.535C7.48,-32.687 3.561,-38.135 -1.594,-40.759C-1.812,-40.614 -2.022,-40.466 -2.252,-40.328C-4.315,-39.091 -6.384,-38.431 -8.342,-38.322C-10.129,-25.198 -10.054,-11.909 -8.112,1.191C-4.583,1.3 -1.037,0.57 2.224,-0.805L-2.773,-23.493L7.471,-4.344L30.213,-15.414C30.421,-15.516 30.98,-15.788 31.039,-16.007C31.082,-16.167 30.926,-16.555 30.851,-16.74C25.703,-29.479 14.387,-39.625 1.299,-43.251C0.904,-42.802 0.479,-42.364 0,-41.951" style="fill:rgb(130,77,68);fill-rule:nonzero;"/>
            </g>
            <g transform="matrix(1,0,0,1,115.522,101.588)">
                <path d="M0,6.586C-0.743,6.727 -1.45,6.799 -2.121,6.799C-2.428,6.799 -2.702,6.739 -2.993,6.71C-2.21,8.17 -0.595,9.311 1.256,9.585C3.826,9.979 6.328,8.87 7.972,7.886C9.56,6.936 12.321,4.871 12.974,1.739C13.343,-0.03 12.729,-2.193 11.384,-3.393C11.001,-2.024 10.29,-0.595 9.264,0.779C7.024,3.784 3.647,5.9 0,6.586" style="fill:rgb(229,116,169);fill-rule:nonzero;"/>
            </g>
            <g transform="matrix(1,0,0,1,102.465,294.459)">
                <path d="M0,-19.562C-7.127,-15.072 -14.804,-11.573 -22.859,-9.18C-24.442,-8.708 -26.072,-8.321 -27.652,-8.321C-28.842,-8.321 -30.004,-8.541 -31.097,-9.115C-32.625,-9.919 -33.688,-11.661 -33.826,-13.497C-36.169,-11.876 -38.577,-10.351 -41.078,-8.987C-41.41,-8.805 -41.798,-8.603 -42.221,-8.38C-44.208,-7.34 -48.861,-4.899 -48.944,-3.405C-48.957,-3.167 -48.752,-2.903 -48.335,-2.621C-43.813,0 -29.32,-0.186 -7.582,-3.175C-4.634,-3.583 -1.859,-4.112 -0.312,-6.098C1.307,-8.178 1.065,-11.281 0.68,-14.282L0,-19.562Z" style="fill:rgb(229,116,169);fill-rule:nonzero;"/>
            </g>
            <g transform="matrix(1,0,0,1,65.3903,60.4735)">
                <path d="M0,41.17C1.818,41.387 3.62,41.628 5.433,41.86C5.671,40.961 5.887,40.087 6.1,39.214C6.392,38.017 6.685,36.819 7.038,35.557L7.357,34.419L8.402,34.939C11.24,36.349 14.853,34.474 16.442,31.84C17.925,29.388 18.385,26.096 17.852,21.775L17.7,20.556L18.907,20.667C20.2,20.801 21.542,20.509 22.686,19.876L23.737,19.295L24.083,20.459C24.413,21.569 24.788,22.826 25.596,23.583C25.975,23.941 26.558,24.152 27.041,24.124C27.361,24.108 27.608,24 27.777,23.805C28.089,23.446 28.159,22.791 28.187,22.194C28.312,19.563 27.927,16.875 27.072,14.38C22.717,14.69 18.358,15.856 14.423,17.768L13.582,15.983C16.602,14.517 19.862,13.499 23.182,12.909C20.665,11.977 17.643,11.603 15.417,12.43C14.492,12.774 13.615,13.245 12.688,13.745C11.713,14.273 10.702,14.815 9.611,15.209L8.959,13.348C9.915,13.002 10.818,12.515 11.775,12C12.72,11.49 13.696,10.965 14.748,10.572C15.218,10.399 15.711,10.267 16.22,10.174C15.468,9.257 14.653,8.288 13.997,7.608C13.289,6.877 12.529,6.199 11.757,6.199L11.75,6.199C11.181,6.203 10.555,6.593 10.014,6.958C7.03,8.974 2.96,12.106 0.52,15.575L-0.121,15.112L-0.299,15.342C-4.828,11.724 -6.481,9.736 -8.688,6.379C-11.854,1.554 -13.882,-0.449 -14.563,-0.69C-16.004,0.432 -14.358,5.218 -11.927,9.472C-10.679,11.656 -9.45,12.822 -7.893,14.301C-6.575,15.553 -5.081,16.972 -3.303,19.295L-3.021,19.659L-3.12,20.113C-4.085,24.551 -3.104,27.732 0.265,31.099L0.411,31.243C0.964,31.791 1.653,32.473 1.868,33.456C2.061,34.325 1.809,35.165 1.625,35.776L0,41.17Z" style="fill:rgb(249,223,199);fill-rule:nonzero;"/>
            </g>
            <g transform="matrix(1,0,0,1,138.648,103.882)">
                <path d="M0,106.771C-2.725,96.087 -5.997,85.24 -9.163,74.739C-11.556,66.809 -14.013,58.625 -16.229,50.568C-17.341,50.705 -18.458,50.793 -19.579,50.793C-20.023,50.793 -20.468,50.784 -20.912,50.761L-21.704,50.722L-21.827,49.927C-22.728,44.083 -23.239,38.202 -23.408,32.312L-30.364,18.292L-28.626,17.401L-23.47,27.792C-23.45,21.595 -23.038,15.399 -22.208,9.236C-23.65,9.011 -24.965,8.395 -26.027,7.529L-26.089,7.634C-28.57,6.129 -31.557,3.917 -34.444,1.778C-36.646,0.146 -38.899,-1.519 -40.922,-2.867C-40.911,-2.676 -40.897,-2.484 -40.894,-2.296C-40.82,1.341 -42.701,4.759 -45.573,6.207C-46.503,6.676 -47.568,6.914 -48.646,6.914C-49.46,6.914 -50.281,6.779 -51.057,6.504C-52.695,5.927 -53.969,4.809 -54.642,3.357C-55.274,1.996 -55.346,0.555 -55.415,-0.837C-55.457,-1.673 -55.496,-2.462 -55.651,-3.208C-55.715,-3.515 -55.79,-3.798 -55.873,-4.066C-58.038,-3.375 -60.048,-2.1 -61.896,-0.766C-61.18,-0.667 -60.453,-0.583 -59.739,-0.482L-58.694,-0.333L-58.923,0.711C-60.519,7.987 -62.02,15.151 -63.147,22.286L-62.791,22.351C-63.298,25.172 -63.808,28.068 -64.316,30.982C-64.335,31.152 -64.364,31.322 -64.382,31.493L-64.406,31.49C-68.677,55.968 -72.894,83.428 -74.516,109.536C-68.755,110.112 -62.846,110.411 -56.898,110.575C-56.899,110.575 -56.899,110.574 -56.899,110.573L-54.961,110.376C-54.952,110.46 -54.947,110.546 -54.939,110.63C-48.526,110.775 -42.081,110.773 -35.732,110.78C-32.652,110.778 -29.59,110.776 -26.567,110.792C-17.596,110.837 -8.148,110.557 0,106.771" style="fill:rgb(229,116,169);fill-rule:nonzero;"/>
            </g>
            <g transform="matrix(1,0,0,1,77.5944,155.783)">
                <path d="M0,-50.573C-1.771,-50.822 -3.564,-51.039 -5.348,-51.272L-5.396,-51.1L-6.266,-51.26C-7.437,-51.478 -8.669,-51.632 -9.901,-51.786C-11.028,-51.927 -12.145,-52.08 -13.229,-52.265C-16.34,-52.632 -19.455,-52.99 -22.56,-53.305C-24.062,-43.347 -25.248,-33.221 -26.083,-23.193C-26.468,-18.556 -26.723,-14.384 -25.927,-10.258C-25.039,-5.648 -22.865,-1.927 -19.805,0.218C-16.34,2.647 -11.711,2.732 -8.785,0.421C-7.629,-6.966 -6.416,-14.196 -5.193,-21.188C-4.158,-30.943 -2.166,-40.664 0,-50.573" style="fill:rgb(229,116,169);fill-rule:nonzero;"/>
            </g>
            <g transform="matrix(1,0,0,1,157.618,282.804)">
                <path d="M0,3.576C-3.835,1.726 -7.643,-0.236 -11.398,-2.292C-11.479,-1.165 -11.986,-0.063 -12.821,0.634C-14.38,1.933 -16.439,2.056 -18.248,2.072C-18.452,2.074 -18.655,2.074 -18.858,2.074C-27.102,2.074 -33.953,0.804 -39.788,-1.805C-42.532,-3.033 -45.106,-4.59 -47.475,-6.439L-47.072,0.946C-46.958,3.028 -46.78,4.856 -45.749,6.125C-44.433,7.747 -42.03,8.093 -39.683,8.306C-30.597,9.141 -21.358,9.674 -12.226,9.89C-7.467,10.006 -2.833,10.015 1.598,8.954C2.212,8.805 2.9,8.612 3.273,8.199C3.564,7.877 3.659,7.55 3.58,7.14C3.336,5.87 1.567,4.331 0,3.576" style="fill:rgb(229,116,169);fill-rule:nonzero;"/>
            </g>
            <g transform="matrix(1,0,0,1,118.615,220.417)">
                <path d="M0,58.772C5.722,61.329 12.53,62.587 20.739,62.481C22.215,62.469 23.878,62.382 24.944,61.493C25.437,61.082 25.743,60.321 25.69,59.641C25.667,59.351 25.561,58.965 25.217,58.749C22.195,57.05 19.201,55.309 16.27,53.497C13.341,51.685 10.555,49.828 8.675,47.04C7.035,44.611 6.281,41.728 5.592,38.741C2.377,24.783 0.191,10.472 -0.946,-3.815C-2.313,-3.782 -3.677,-3.763 -5.031,-3.763C-5.537,-3.763 -6.041,-3.765 -6.544,-3.767C-8.251,-3.774 -9.992,-3.773 -11.721,-3.773L-8.617,53.259C-6.015,55.504 -3.13,57.369 0,58.772" style="fill:rgb(249,223,199);fill-rule:nonzero;"/>
            </g>
            <g transform="matrix(1,0,0,1,85.2877,243.774)">
                <path d="M0,13.549C-0.067,16.293 -0.19,18.759 -1.017,21.134C-2.226,24.613 -4.739,27.294 -7.274,29.671C-9.525,31.78 -11.908,33.736 -14.378,35.572C-14.687,35.982 -14.753,36.492 -14.739,36.898C-14.701,38.085 -13.979,39.312 -13.023,39.814C-11.091,40.829 -8.616,40.314 -6.229,39.609C1.939,37.182 9.713,33.596 16.9,28.969L9.68,-27.149C5.989,-27.163 2.286,-27.198 -1.414,-27.28C-0.16,-13.743 0.332,-0.022 0,13.549" style="fill:rgb(249,223,199);fill-rule:nonzero;"/>
            </g>
            <g transform="matrix(1,0,0,1,48.3829,5.1483)">
                <path d="M0,56.709C-0.05,56.003 -0.009,55.341 0.158,54.752L0.155,54.753C-0.237,53.011 -0.912,49.462 -1.111,47.382C-2.635,31.483 4.285,14.896 16.52,5.126C20.362,2.059 24.456,-0.227 28.599,-1.866C19.935,-0.104 11.23,3.415 6.135,8.473C-1.99,16.536 -7.229,27.797 -8.615,40.184C-9.226,45.638 -8.51,53.36 -5.693,58.575C-4.143,57.066 -2.059,56.402 0,56.709" style="fill:rgb(130,77,68);fill-rule:nonzero;"/>
            </g>
            <g transform="matrix(-1,0,0,1,55.5807,86.7729)">
                <path d="M0,-8.648C2.349,-8.648 4.26,-6.708 4.26,-4.323C4.26,-1.938 2.349,0 0,0C-2.349,0 -4.26,-1.938 -4.26,-4.323C-4.26,-6.708 -2.349,-8.648 0,-8.648" style="fill:white;fill-rule:nonzero;"/>
            </g>
            <g transform="matrix(1,0,0,1,56.152,68.4649)">
                <path d="M0,7.742C-1.601,6.22 -2.985,4.901 -4.374,2.473C-4.562,2.144 -4.773,1.76 -4.994,1.346L-5.018,1.379C-6.111,0.519 -6.907,0.472 -7.955,1.205C-9.055,1.974 -9.588,3.531 -9.196,4.827L-11.059,5.406C-11.699,3.288 -10.859,0.838 -9.063,-0.421C-8.119,-1.083 -7.188,-1.353 -6.254,-1.258C-6.711,-2.31 -7.125,-3.425 -7.411,-4.52C-9.335,-5.092 -11.341,-4.43 -12.643,-2.733C-14.179,-0.727 -15.308,3.006 -14.154,6.461C-13.139,9.499 -10.545,11.689 -6.665,12.834C-6.129,9.908 -3.606,7.682 -0.571,7.682C-0.375,7.682 -0.19,7.723 0,7.742" style="fill:rgb(249,223,199);fill-rule:nonzero;"/>
            </g>
            <g transform="matrix(1,0,0,1,160.891,2.6068)">
                <path d="M0,288.396C-0.373,288.809 -1.062,289.002 -1.676,289.151C-6.106,290.212 -10.74,290.203 -15.499,290.087C-24.632,289.871 -33.87,289.338 -42.956,288.503C-45.304,288.29 -47.706,287.944 -49.022,286.322C-50.054,285.053 -50.231,283.225 -50.346,281.143L-50.748,273.758C-48.38,275.607 -45.806,277.164 -43.062,278.392C-37.227,281 -30.375,282.271 -22.132,282.271C-21.929,282.271 -21.726,282.271 -21.521,282.269C-19.713,282.253 -17.653,282.13 -16.095,280.831C-15.26,280.134 -14.752,279.032 -14.672,277.905C-10.916,279.961 -7.108,281.923 -3.273,283.773C-1.706,284.528 0.062,286.067 0.307,287.337C0.386,287.747 0.291,288.074 0,288.396M-48.82,214.043C-48.317,214.045 -47.813,214.047 -47.308,214.047C-45.953,214.047 -44.589,214.029 -43.223,213.996C-42.085,228.283 -39.899,242.593 -36.685,256.551C-35.995,259.539 -35.241,262.421 -33.602,264.85C-31.722,267.638 -28.936,269.496 -26.007,271.307C-23.075,273.12 -20.081,274.861 -17.06,276.559C-16.716,276.776 -16.609,277.162 -16.586,277.452C-16.533,278.131 -16.839,278.892 -17.332,279.303C-18.398,280.193 -20.062,280.28 -21.537,280.292C-29.746,280.398 -36.555,279.139 -42.276,276.583C-45.406,275.179 -48.291,273.315 -50.894,271.07L-53.997,214.038C-52.269,214.038 -50.527,214.037 -48.82,214.043M-57.976,212.055C-64.324,212.048 -70.77,212.05 -77.183,211.906C-77.19,211.822 -77.195,211.736 -77.204,211.652L-79.143,211.848C-79.143,211.849 -79.143,211.85 -79.142,211.85C-85.089,211.686 -90.998,211.387 -96.759,210.811C-95.137,184.704 -90.92,157.244 -86.649,132.765L-86.625,132.768C-86.607,132.597 -86.578,132.427 -86.56,132.257C-86.051,129.343 -85.541,126.448 -85.034,123.626L-85.391,123.561C-84.263,116.426 -82.762,109.262 -81.166,101.987L-80.938,100.943L-81.982,100.793C-82.696,100.692 -83.423,100.609 -84.14,100.509C-82.291,99.175 -80.281,97.9 -78.116,97.209C-78.033,97.477 -77.958,97.76 -77.895,98.067C-77.739,98.813 -77.7,99.602 -77.658,100.438C-77.589,101.831 -77.518,103.271 -76.885,104.632C-76.212,106.084 -74.938,107.203 -73.3,107.78C-72.524,108.054 -71.703,108.189 -70.889,108.189C-69.812,108.189 -68.746,107.952 -67.816,107.482C-64.944,106.035 -63.063,102.617 -63.137,98.979C-63.141,98.792 -63.154,98.599 -63.165,98.409C-61.143,99.756 -58.89,101.421 -56.688,103.053C-53.8,105.192 -50.813,107.405 -48.332,108.91L-48.271,108.804C-47.208,109.67 -45.894,110.287 -44.451,110.511C-45.281,116.674 -45.693,122.871 -45.713,129.068L-50.869,118.676L-52.607,119.568L-45.651,133.587C-45.482,139.477 -44.971,145.359 -44.07,151.203L-43.947,151.998L-43.155,152.037C-42.711,152.059 -42.267,152.069 -41.822,152.069C-40.701,152.069 -39.584,151.98 -38.472,151.843C-36.256,159.9 -33.799,168.084 -31.406,176.014C-28.24,186.515 -24.968,197.363 -22.243,208.046C-30.392,211.833 -39.839,212.113 -48.811,212.067C-51.833,212.051 -54.896,212.053 -57.976,212.055M-58.703,270.136C-65.891,274.763 -73.664,278.349 -81.833,280.776C-84.22,281.481 -86.694,281.997 -88.627,280.981C-89.583,280.479 -90.305,279.252 -90.343,278.065C-90.356,277.66 -90.29,277.149 -89.981,276.74C-87.512,274.904 -85.129,272.948 -82.878,270.838C-80.343,268.461 -77.829,265.781 -76.62,262.301C-75.794,259.926 -75.671,257.46 -75.604,254.716C-75.271,241.145 -75.764,227.424 -77.018,213.887C-73.317,213.969 -69.614,214.004 -65.924,214.018L-58.703,270.136ZM-58.738,285.754C-60.286,287.741 -63.061,288.27 -66.009,288.677C-87.747,291.667 -102.239,291.852 -106.762,289.232C-107.179,288.95 -107.384,288.685 -107.371,288.448C-107.288,286.954 -102.635,284.512 -100.647,283.472C-100.225,283.25 -99.837,283.047 -99.505,282.866C-97.004,281.501 -94.596,279.976 -92.253,278.356C-92.114,280.192 -91.052,281.933 -89.523,282.738C-88.431,283.312 -87.269,283.532 -86.079,283.532C-84.499,283.532 -82.869,283.144 -81.286,282.672C-73.23,280.28 -65.554,276.781 -58.427,272.291L-57.747,277.571C-57.361,280.572 -57.12,283.674 -58.738,285.754M-103.102,153.394C-106.162,151.249 -108.336,147.528 -109.224,142.918C-110.02,138.792 -109.765,134.62 -109.379,129.983C-108.544,119.955 -107.359,109.829 -105.856,99.871C-102.752,100.186 -99.637,100.544 -96.525,100.911C-95.441,101.096 -94.325,101.25 -93.198,101.39C-91.966,101.544 -90.734,101.698 -89.563,101.916L-88.692,102.076L-88.645,101.904C-86.861,102.137 -85.068,102.354 -83.297,102.603C-85.463,112.512 -87.455,122.233 -88.49,131.988C-89.713,138.98 -90.926,146.21 -92.082,153.597C-95.008,155.908 -99.637,155.823 -103.102,153.394M-93.633,91.323C-93.848,90.339 -94.537,89.658 -95.09,89.11L-95.236,88.965C-98.604,85.599 -99.586,82.417 -98.621,77.98L-98.522,77.526L-98.804,77.162C-100.582,74.838 -102.076,73.419 -103.394,72.167C-104.951,70.689 -106.18,69.523 -107.428,67.338C-109.859,63.084 -111.505,58.298 -110.063,57.176C-109.383,57.417 -107.354,59.42 -104.188,64.246C-101.982,67.603 -100.329,69.59 -95.8,73.209L-95.622,72.979L-94.981,73.442C-92.541,69.972 -88.471,66.84 -85.487,64.825C-84.946,64.459 -84.32,64.07 -83.751,64.066L-83.744,64.066C-82.972,64.066 -82.212,64.744 -81.504,65.475C-80.848,66.155 -80.033,67.124 -79.281,68.041C-79.79,68.133 -80.283,68.265 -80.753,68.439C-81.805,68.832 -82.781,69.357 -83.726,69.867C-84.683,70.381 -85.586,70.869 -86.542,71.214L-85.89,73.076C-84.799,72.681 -83.788,72.139 -82.813,71.612C-81.886,71.112 -81.009,70.64 -80.084,70.296C-77.858,69.469 -74.836,69.843 -72.319,70.776C-75.639,71.366 -78.899,72.383 -81.919,73.85L-81.078,75.634C-77.143,73.722 -72.784,72.556 -68.429,72.247C-67.574,74.742 -67.189,77.429 -67.314,80.061C-67.342,80.658 -67.412,81.313 -67.724,81.671C-67.893,81.867 -68.14,81.975 -68.46,81.991C-68.943,82.019 -69.526,81.807 -69.905,81.45C-70.713,80.693 -71.088,79.436 -71.418,78.326L-71.764,77.162L-72.815,77.743C-73.959,78.375 -75.301,78.667 -76.594,78.534L-77.801,78.422L-77.649,79.642C-77.116,83.962 -77.576,87.254 -79.059,89.707C-80.648,92.34 -84.261,94.215 -87.099,92.805L-88.144,92.286L-88.463,93.423C-88.816,94.686 -89.109,95.883 -89.401,97.081C-89.614,97.954 -89.83,98.828 -90.068,99.727C-91.881,99.495 -93.683,99.253 -95.501,99.037L-93.876,93.643C-93.692,93.032 -93.44,92.192 -93.633,91.323M-105.311,84.167C-107.66,84.167 -109.571,82.228 -109.571,79.843C-109.571,77.459 -107.66,75.518 -105.311,75.518C-102.962,75.518 -101.051,77.459 -101.051,79.843C-101.051,82.228 -102.962,84.167 -105.311,84.167M-111.404,78.692C-115.284,77.547 -117.878,75.357 -118.893,72.319C-120.047,68.864 -118.918,65.131 -117.382,63.125C-116.08,61.428 -114.075,60.766 -112.15,61.338C-111.864,62.433 -111.45,63.548 -110.994,64.6C-111.927,64.505 -112.858,64.775 -113.802,65.437C-115.598,66.696 -116.438,69.146 -115.798,71.264L-113.936,70.685C-114.328,69.389 -113.794,67.833 -112.694,67.063C-111.646,66.331 -110.85,66.377 -109.757,67.237L-109.733,67.204C-109.513,67.618 -109.301,68.002 -109.113,68.332C-107.725,70.759 -106.34,72.078 -104.739,73.6C-104.93,73.582 -105.114,73.541 -105.311,73.541C-108.345,73.541 -110.868,75.766 -111.404,78.692M-121.124,42.725C-119.737,30.338 -114.499,19.078 -106.373,11.014C-101.278,5.957 -92.573,2.438 -83.909,0.675C-88.053,2.315 -92.146,4.6 -95.988,7.667C-108.223,17.438 -115.144,34.025 -113.62,49.923C-113.42,52.003 -112.746,55.552 -112.353,57.294L-112.35,57.293C-112.517,57.882 -112.558,58.544 -112.508,59.25C-114.567,58.944 -116.651,59.608 -118.202,61.117C-121.018,55.902 -121.734,48.179 -121.124,42.725M-80.497,93.861C-79.885,94.377 -79.392,94.872 -79.002,95.413C-82.006,96.439 -84.613,98.388 -86.945,100.135L-86.942,100.139C-87.34,100.086 -87.737,100.035 -88.135,99.982C-87.922,99.168 -87.705,98.35 -87.512,97.555C-87.305,96.713 -87.1,95.872 -86.871,95.004C-84.691,95.651 -82.394,95.073 -80.497,93.861M-49.725,4.925C-36.181,15.92 -27.864,34.62 -29.026,51.455C-29.19,53.825 -29.548,56.164 -30.074,58.452C-30.172,58.542 -30.292,58.613 -30.38,58.711L-30.19,58.884C-30.664,60.854 -31.259,62.785 -31.979,64.662C-32.066,64.746 -32.161,64.815 -32.245,64.904L-32.115,65.031C-37.143,77.811 -47.641,88.065 -60.253,91.421C-61.676,91.799 -63.446,92.271 -64.434,93.753C-65.32,95.084 -65.221,96.656 -65.134,98.042C-65.112,98.373 -65.092,98.699 -65.085,99.021C-65.026,101.908 -66.473,104.597 -68.685,105.713C-69.854,106.302 -71.341,106.377 -72.66,105.913C-73.8,105.511 -74.675,104.756 -75.123,103.791C-75.592,102.781 -75.65,101.595 -75.712,100.338C-75.756,99.463 -75.801,98.558 -75.988,97.658C-76.465,95.361 -77.395,93.991 -78.932,92.624C-78.337,92.049 -77.808,91.419 -77.397,90.742C-75.814,88.12 -75.222,84.769 -75.597,80.529C-74.693,80.484 -73.793,80.295 -72.946,79.972C-72.597,80.998 -72.106,82.078 -71.228,82.902C-70.461,83.623 -69.381,84.02 -68.359,83.965C-67.52,83.921 -66.774,83.57 -66.261,82.977C-65.554,82.163 -65.413,81.094 -65.368,80.158C-65.22,77.01 -65.734,73.795 -66.855,70.859L-67.109,70.195L-67.811,70.229C-68.132,70.246 -68.452,70.302 -68.773,70.327C-70.856,68.986 -73.934,67.969 -76.877,67.891C-77.863,66.667 -79.116,65.125 -80.112,64.093C-81.069,63.1 -82.249,62.088 -83.746,62.088L-83.762,62.088C-84.87,62.096 -85.79,62.656 -86.566,63.179C-89.293,65.021 -92.896,67.768 -95.505,70.912C-99.127,67.927 -100.641,66.081 -102.567,63.149C-108.197,54.569 -109.952,54.858 -110.781,55.305C-111.16,53.407 -111.548,51.126 -111.681,49.731C-113.143,34.488 -106.51,18.586 -94.784,9.22C-82.525,-0.568 -61.492,-4.632 -49.725,4.925M-27.186,21.58C-21.878,31.942 -20.479,44.609 -23.205,57.292C-23.934,57.074 -24.705,56.92 -25.531,56.908C-26.375,56.918 -27.147,57.05 -27.862,57.256C-27.5,55.392 -27.217,53.506 -27.084,51.594C-25.907,34.56 -34.092,15.72 -47.517,4.241C-38.981,8.272 -30.819,14.488 -27.186,21.58M-20.342,67.824C-20.824,70.567 -23.217,75.866 -28.749,78.06L-28.798,78.031C-29.108,75.507 -31.211,73.541 -33.78,73.541C-33.945,73.541 -34.101,73.575 -34.261,73.59C-32.739,71.125 -31.403,68.528 -30.328,65.803C-29.596,65.18 -28.78,64.765 -27.973,64.639C-26.891,64.456 -25.827,64.795 -25.175,65.497C-24.53,66.188 -24.358,67.31 -24.783,68.049L-23.102,69.045C-22.235,67.542 -22.512,65.477 -23.76,64.137C-24.847,62.971 -26.577,62.422 -28.272,62.685C-28.624,62.741 -28.975,62.832 -29.321,62.955C-28.96,61.84 -28.641,60.711 -28.359,59.569C-27.657,59.133 -26.669,58.903 -25.56,58.885C-23.962,58.911 -22.46,59.486 -21.732,60.355C-19.791,62.675 -20.028,66.032 -20.342,67.824M-35.65,92.792C-35.404,94.393 -36.154,96.551 -37.658,98.567C-39.609,101.182 -42.549,103.026 -45.726,103.625C-47.413,103.943 -48.831,103.831 -49.941,103.291C-50.998,102.777 -51.72,101.765 -51.847,100.763C-51.204,100.919 -50.598,101.029 -50.089,101.029C-49.938,101.029 -49.793,101.022 -49.656,101.004C-45.2,100.47 -40.677,97.434 -35.981,91.796C-35.827,92.102 -35.707,92.427 -35.65,92.792M-62.88,94.996C-62.855,94.954 -62.847,94.902 -62.82,94.862C-62.805,94.838 -62.776,94.824 -62.76,94.8L-62.88,94.996ZM-38.719,79.704C-38.243,82.029 -36.211,83.783 -33.78,83.783C-33.324,83.783 -32.891,83.701 -32.471,83.585C-38.652,93.192 -44.497,98.396 -49.885,99.042C-51.768,99.233 -57.385,96.646 -61.671,93.975C-61.081,93.699 -60.379,93.499 -59.641,93.302C-51.57,91.155 -44.333,86.252 -38.719,79.704M-33.78,81.805C-35.487,81.805 -36.877,80.396 -36.877,78.662C-36.877,76.927 -35.487,75.518 -33.78,75.518C-32.073,75.518 -30.684,76.927 -30.684,78.662C-30.684,80.396 -32.073,81.805 -33.78,81.805M-63.194,96.049C-63.17,95.833 -63.134,95.623 -63.072,95.427C-61.234,96.594 -57.165,98.921 -53.735,100.176L-53.842,100.168C-53.929,101.356 -53.487,102.568 -52.693,103.548C-53.639,102.86 -54.592,102.159 -55.539,101.456C-58.167,99.509 -60.858,97.527 -63.194,96.049M-32.396,100.72C-33.048,103.852 -35.81,105.917 -37.397,106.867C-39.041,107.851 -41.543,108.959 -44.113,108.566C-45.964,108.292 -47.579,107.151 -48.362,105.691C-48.071,105.72 -47.797,105.78 -47.49,105.78C-46.819,105.78 -46.112,105.708 -45.369,105.567C-41.722,104.881 -38.345,102.765 -36.105,99.76C-35.079,98.386 -34.368,96.957 -33.985,95.587C-32.64,96.788 -32.026,98.951 -32.396,100.72M-3.305,132.158C-3.229,132.343 -3.073,132.731 -3.116,132.891C-3.175,133.11 -3.734,133.381 -3.942,133.484L-26.685,144.554L-36.929,125.405L-31.932,148.093C-35.192,149.468 -38.738,150.198 -42.268,150.088C-44.209,136.989 -44.284,123.7 -42.497,110.576C-40.539,110.466 -38.471,109.807 -36.407,108.57C-36.178,108.432 -35.967,108.284 -35.749,108.139C-30.595,110.763 -26.675,116.21 -25.957,122.363C-26.046,116.431 -29.143,110.527 -34.155,106.947C-33.677,106.534 -33.251,106.096 -32.856,105.647C-19.769,109.273 -8.452,119.418 -3.305,132.158M-24.069,154.944C-24.931,160.198 -28.352,164.629 -31.6,168.566C-33.296,162.899 -34.972,157.197 -36.533,151.527C-34.425,151.112 -32.359,150.473 -30.403,149.575L-29.682,149.245L-31.983,138.792L-27.512,147.149L-25.269,146.057C-24.032,148.83 -23.576,151.933 -24.069,154.944M2.219,286.958C1.819,284.891 -0.475,282.931 -2.438,281.987C-7.037,279.769 -11.586,277.374 -16.062,274.861C-16.072,274.854 -16.08,274.843 -16.092,274.836L-16.095,274.841C-19.099,273.154 -22.077,271.422 -24.992,269.62C-27.733,267.924 -30.332,266.198 -31.994,263.734C-33.445,261.584 -34.118,259.003 -34.787,256.099C-37.974,242.268 -40.141,228.089 -41.272,213.932C-34.182,213.643 -27.074,212.649 -20.672,209.479L-19.959,209.125L-20.156,208.346C-22.931,197.365 -26.293,186.215 -29.544,175.435C-30.012,173.886 -30.481,172.295 -30.952,170.73L-30.889,170.784C-27.447,166.638 -23.165,161.479 -22.147,155.269C-21.588,151.858 -22.065,148.322 -23.475,145.184L-3.098,135.266C-2.551,134.998 -1.531,134.5 -1.237,133.413C-1.035,132.664 -1.27,131.984 -1.504,131.407C-6.779,118.347 -18.271,107.913 -31.622,103.961C-31.084,103.056 -30.693,102.108 -30.489,101.129C-29.91,98.354 -31.095,94.906 -33.663,93.428C-33.663,93.106 -33.68,92.791 -33.726,92.487C-33.857,91.629 -34.201,90.864 -34.696,90.19C-32.485,87.331 -30.234,83.887 -27.935,79.876C-22.448,77.634 -19.178,72.466 -18.425,68.17C-18.05,66.036 -17.789,62.013 -20.248,59.075C-20.557,58.707 -20.944,58.389 -21.373,58.106C-18.435,44.839 -19.885,31.546 -25.458,20.668C-31.326,9.212 -48.304,-0.078 -60.668,-2.115L-60.704,-1.885C-63.18,-2.343 -65.822,-2.529 -68.549,-2.471L-68.547,-2.495C-80.936,-3.372 -98.973,0.904 -107.735,9.6C-116.18,17.981 -121.622,29.665 -123.058,42.501C-123.754,48.709 -122.869,57.149 -119.495,62.771C-121.067,65.334 -121.983,69.222 -120.738,72.954C-119.849,75.617 -117.516,79.13 -111.446,80.745L-111.434,80.696C-111.019,83.764 -108.446,86.144 -105.311,86.144C-103.396,86.144 -101.702,85.24 -100.563,83.852C-99.992,86.159 -98.712,88.266 -96.604,90.375L-96.45,90.525C-96.025,90.946 -95.623,91.346 -95.533,91.753C-95.453,92.114 -95.605,92.623 -95.739,93.066L-97.471,98.819C-100.51,98.466 -103.552,98.113 -106.582,97.808L-107.499,97.717L-107.641,98.641C-109.218,108.944 -110.456,119.433 -111.32,129.817C-111.704,134.428 -111.978,138.927 -111.135,143.297C-110.149,148.417 -107.689,152.581 -104.209,155.02C-102.101,156.499 -99.617,157.24 -97.213,157.24C-95.544,157.24 -93.92,156.867 -92.48,156.149C-95.279,174.338 -97.666,193.329 -98.761,211.64L-98.817,212.586L-97.89,212.682C-91.708,213.334 -85.36,213.665 -78.977,213.838C-77.714,227.374 -77.218,241.095 -77.552,254.667C-77.614,257.241 -77.726,259.542 -78.457,261.645C-79.525,264.717 -81.85,267.181 -84.2,269.386C-86.215,271.274 -88.347,273.025 -90.543,274.69L-90.562,274.658C-90.854,274.836 -91.11,275.053 -91.332,275.299C-94.231,277.441 -97.263,279.4 -100.427,281.124C-100.751,281.299 -101.128,281.499 -101.541,281.714C-105.563,283.824 -109.183,285.915 -109.316,288.337C-109.353,289.015 -109.127,290.006 -107.786,290.914C-105.14,292.447 -100.115,293.028 -94.018,293.028C-85.498,293.028 -74.883,291.893 -65.746,290.635C-62.521,290.192 -59.206,289.542 -57.211,286.978C-55.121,284.296 -55.375,280.734 -55.815,277.316L-63.96,214.025C-61.957,214.03 -59.96,214.032 -57.975,214.033C-57.292,214.033 -56.627,214.035 -55.947,214.035L-52.805,271.786L-52.928,271.925C-52.884,271.965 -52.835,272 -52.791,272.041L-52.29,281.251C-52.188,283.132 -52.047,285.706 -50.525,287.581C-48.732,289.79 -45.769,290.232 -43.131,290.473C-34.002,291.311 -24.721,291.846 -15.545,292.065C-14.323,292.093 -13.11,292.117 -11.904,292.117C-8.28,292.117 -4.722,291.912 -1.226,291.074C-0.264,290.842 0.726,290.518 1.437,289.732C2.146,288.946 2.416,287.987 2.219,286.958" style="fill:rgb(31,20,15);fill-rule:nonzero;"/>
            </g>
            <g transform="matrix(1,0,0,1,81.2135,7.245)">
                <path d="M0,15.086L1.104,13.456C-1.37,11.731 -1.368,8.471 -0.11,6.281C1.259,3.897 3.898,2.241 6.613,2.064C7.682,1.994 8.678,2.147 9.505,2.51C11.496,3.375 13.046,5.281 13.362,7.256C13.704,9.396 13.38,10.589 11.913,12.574L13.472,13.76C15.257,11.344 15.714,9.623 15.285,6.94C14.866,4.323 12.852,1.813 10.272,0.693C9.152,0.202 7.886,0 6.489,0.091C3.094,0.313 -0.081,2.302 -1.794,5.285C-3.492,8.243 -3.442,12.684 0,15.086" style="fill:rgb(31,20,15);fill-rule:nonzero;"/>
            </g>
            <g transform="matrix(1,0,0,1,72.653,11.4527)">
                <path d="M0,4.723C2.409,4.723 4.361,3.665 4.361,2.362C4.361,1.058 2.409,0 0,0C-2.409,0 -4.362,1.058 -4.362,2.362C-4.362,3.665 -2.409,4.723 0,4.723" style="fill:rgb(31,20,15);fill-rule:nonzero;"/>
            </g>
            <g transform="matrix(1,0,0,1,102.602,9.6822)">
                <path d="M0,4.722C2.409,4.722 4.362,3.665 4.362,2.362C4.362,1.057 2.409,0 0,0C-2.408,0 -4.361,1.057 -4.361,2.362C-4.361,3.665 -2.408,4.722 0,4.722" style="fill:rgb(31,20,15);fill-rule:nonzero;"/>
            </g>
            <g transform="matrix(0.13561,0.990762,0.990762,-0.13561,91.5627,46.8932)">
                <path d="M10.639,-10.633L12.615,-10.633C12.582,-3.052 12.437,4.63 12.181,12.195L10.204,12.137C10.462,4.591 10.607,-3.07 10.639,-10.633" style="fill:rgb(31,20,15);fill-rule:nonzero;"/>
            </g>
        </g>
    </g>
</svg>
