<svg clip-rule="evenodd" fill-rule="evenodd" stroke-linejoin="round" stroke-miterlimit="2" viewBox="0 0 187 91" xmlns="http://www.w3.org/2000/svg" xmlns:xlink="http://www.w3.org/1999/xlink"><clipPath id="a"><path clip-rule="nonzero" d="m10.277.974c-4.528 0-8.231 3.703-8.231 8.229v72.465c0 4.527 3.703 8.23 8.231 8.23h164.461c4.487 0 8.164-3.639 8.229-8.11v-72.704c-.065-4.472-3.742-8.11-8.229-8.11h-164.461z"/></clipPath><g clip-path="url(#a)"><path d="m.094.151h185.266v72.605h-185.266z" fill="#c7eafb"/><g fill-rule="nonzero"><path d="m97.303 67.593c-.079 1.008.227 3.568.505 4.285.136.351.376.374.65.193.684-.451 1.375-.896 2.032-1.387.5-.373.976-.786 1.419-1.226.34-.341.511-1.532.209-1.749-.274-.195-.722-.189-1.093-.192-.995-.011-.992.004-.821.948.08.441.234.892-.122 1.424-.127-.193-.244-.299-.273-.423-.103-.457-.188-.918-.257-1.381-.06-.415-.181-.614-.686-.512-.479.096-.992.02-1.563.02m-29.379-16.57c-2.412.447-4.643 1.166-6.863 1.927-.443.152-.865.375-1.276.604-.589.328-.613.483-.219.987.095.124.199.247.319.345.687.567.987 1.202.46 2.052-.082.13-.005.356-.001.538.178-.014.375.016.534-.049 3.044-1.26 6.082-2.535 9.125-3.797.506-.21 1.029-.38 1.55-.554.669-.225 1.35-.413 2.013-.654 4.211-1.532 8.486-2.802 12.948-3.391.956-.127 1.971-.14 2.829-.702.803-.526 1.699-.788 2.628-.988 1.148-.249 2.282-.568 3.426-.828 1.225-.275 2.449-.559 3.685-.765 2.124-.355 4.275-.574 6.386-.997 2.263-.454 4.493-1.078 6.738-1.626.914-.223 1.819-.485 2.741-.655 2.659-.487 5.33-.91 7.987-1.409 2.157-.403 4.289-.939 6.45-1.309 2.173-.372 4.304-.881 6.385-1.587 2.636-.896 5.258-1.831 7.884-2.754.73-.257.739-.289.554-1.179-.418.085-.833.178-1.251.254-1.541.279-3.109.45-4.617.851-2.574.684-5.108 1.515-7.663 2.276-1.464.437-2.916.935-4.404 1.272-3.172.717-6.412 1.169-9.533 2.052-5.454 1.544-11.034 2.325-16.603 3.216-2.901.464-5.788 1.017-8.675 1.55-2.12.392-4.219.911-6.351 1.209-4.391.615-8.727 1.472-13.029 2.546-1.056.265-1.595.853-1.929 1.797-.221.629-.475 1.248-.75 1.856-.08.175-.281.296-.435.451-.084-.11-.135-.149-.128-.171.246-.854.498-1.706.748-2.558-.899-.09-.904-.091-1.065.569-.12.494-.205.998-.351 1.486-.047.157-.236.272-.36.407-.098-.183-.298-.381-.275-.548.074-.537.231-1.062.388-1.724m-66.674 32.008c.729-.356 1.243-.628 1.777-.862 1.255-.549 2.476-1.252 3.788-1.578 1.809-.449 3.501-1.109 5.156-1.936 1.511-.754 3.081-1.347 4.768-1.626 1.893-.313 3.768-.731 5.655-1.078 1.075-.198 2.16-.35 3.242-.511.853-.126 1.711-.215 2.562-.356 2.048-.338 4.103-.644 6.135-1.063 1.531-.317 3.098-.42 4.599-.938 1.402-.483 2.859-.821 4.308-1.152 2.328-.532 4.696-.886 6.933-1.79.719-.29 1.506-.435 2.277-.564 1.745-.289 3.455-.7 5.109-1.334.381-.146.559-.278.47-.757-.279-1.516-.218-3.042.01-4.564.049-.323.055-.651.086-1.029-1.29.528-2.442 1.028-3.616 1.467-.553.207-.819.542-.86 1.121-.052.703-.132 1.405-.224 2.105-.025.195-.133.379-.203.568-.211-.244-.305-.466-.293-.681.04-.701.127-1.4.178-2.103.009-.137-.025-.351-.117-.409-.385-.246-1.443.297-1.462.75-.026.667.01 1.336-.015 2.003-.015.366.051.805-.458.947-.082-.32-.205-.635-.238-.96-.07-.675.091-1.372-.138-2.189-.664.47-1.452.498-1.637 1.382-.036.172-.415.341-.66.389-.921.179-1.85.315-2.779.449-.313.044-.64.014-.716.439-.098.538-.526.669-.968.681-.467.014-.935-.056-1.4-.108-.358-.04-.548.023-.658.444-.165.643-.307.696-.9.588-.462-.085-.912-.279-1.375-.308-.691-.044-1.495-.2-2.064.074-1.55.747-3.181 1.047-4.846 1.276-.582.08-1.161.191-1.745.228-.523.032-.684.294-.633.764.04.389.069.78.137 1.164.054.308.173.604.236.91.021.094-.035.289-.077.294-.135.02-.343.023-.408-.058-.142-.177-.257-.402-.301-.623-.114-.576-.166-1.164-.283-1.738-.031-.157-.185-.385-.315-.409-.785-.142-1.293.319-1.33 1.119-.024.52.121 1.073-.26 1.713-.484-.897.021-1.812-.416-2.634-1.175.267-2.318.526-3.461.785-.496.113-.997.209-1.49.339-1.853.49-3.717.947-5.551 1.501-1.72.52-3.408 1.149-5.109 1.729-.075.026-.15.048-.226.07-.856.264-1.718.52-2.572.794-.668.215-1.333.444-1.991.688-.111.041-.27.199-.259.286.078.657-.325.718-.805.681-.507-.037-1.011-.096-1.539-.149-.032.101-.07.209-.101.317-.186.641-.237.681-.766.496-.259-.09-.499-.229-.755-.328-.452-.173-.84-.546-1.406-.502v5.776zm152.928-46.074c.003-.081.006-.164.009-.246-.175-.037-.35-.094-.528-.106-1.173-.09-2.347-.149-3.517-.259-.976-.091-1.943-.284-2.92-.346-.933-.059-1.924-.2-2.8.035-2.003.536-3.949 1.285-5.921 1.936-1.749.578-3.482 1.218-5.26 1.687-1.7.449-3.449.714-5.177 1.059-2.266.45-4.536.88-6.797 1.353-3.447.721-6.968 1.041-10.348 2.14-2.91.948-5.958 1.371-8.988 1.751-3.553.445-6.983 1.433-10.474 2.142-.221.045-.516.104-.62.261-.368.563-.945.668-1.518.789-.689.147-1.386.263-2.079.389-1.89.34-3.814.55-5.661 1.044-4.469 1.197-8.89 2.563-13.124 4.466-.321.143-.655.259-.984.387-2.194.855-4.392 1.696-6.576 2.574-.346.139-.663.4-.927.669-.115.118-.144.428-.079.602.356.961.392 1.021-.316 1.59-.439.352-.629.784-.717 1.296-.073.425-.167.852-.179 1.28-.032 1.217-.056 2.434-.021 3.649.016.564.25.658.778.43.287-.124.56-.285.852-.397.079-.03.251.033.295.106.044.072-.002.214-.036.316-.024.07-.083.142-.147.18-.401.242-1.054.396-1.161.728-.251.783-.702.255-1.054.321-.19.037-.368.137-.554.196-1.493.476-2.973.972-4.544 1.184-1.002.135-2.01.388-2.957.745-1.476.554-2.986.943-4.527 1.245-2.423.476-4.853.918-7.178 1.8-.47.179-.987.25-1.489.331-1.933.314-3.87.604-5.803.917-1.508.244-3.009.522-4.516.763-1.314.21-2.636.371-3.947.588-.967.161-1.916.434-2.886.56-3.06.397-5.984 1.184-8.729 2.643-.924.491-1.944.879-2.966 1.09-2.22.458-4.199 1.516-6.283 2.314-.375.144-.56.397-.557.804.011 1.649.017 3.297.017 4.946 0 .424.233.525.601.516.784-.021 1.57-.036 2.355-.037 12.213-.009 24.424-.059 36.635.016 2.455.015 4.742-.428 6.993-1.287.514-.196 1.015-.42 1.529-.616 3.131-1.197 6.332-2.057 9.71-2.154.816-.023 1.64-.169 2.436-.359 4.277-1.016 8.439-2.415 12.604-3.805 3.719-1.241 7.431-2.506 11.169-3.69 3.706-1.172 7.416-2.31 10.819-4.252.951-.543 1.084-.605.848-1.625-.3-1.308-.485-2.622-.499-3.96-.004-.395-.133-.661-.543-.793-.533-.171-.518-.539-.4-1.036.293-1.237 1.027-2.043 2.102-2.678 1.384-.816 2.702-1.742 4.043-2.629 1.374-.91 2.684-1.933 4.123-2.725 3.298-1.815 6.656-3.522 9.993-5.271.172-.092.359-.159.535-.243 2.018-.962 4.036-1.925 6.053-2.889 1.876-.896 3.71-1.892 5.633-2.673 4.362-1.774 8.729-3.53 12.961-5.604 1.768-.866 3.621-1.493 5.522-2.004 2.571-.691 5.128-1.433 7.692-2.154m-10.452-3.6c.011-.059.021-.119.032-.178-.746-.205-1.48-.47-2.238-.606-3.119-.564-6.259-.323-9.393-.171-2.153.103-4.301.292-6.453.414-1.919.109-3.845.117-5.759.281-2.662.227-5.32.381-7.992.355-1.923-.02-3.848-.034-5.771.004-3.334.063-6.674-.12-9.999.279-1.01.122-2.03.18-3.047.24-3.876.231-7.751.47-11.628.664-3.107.156-6.163.678-9.162 1.437-4.017 1.017-8.098 1.436-12.211 1.662-1.998.109-3.996.186-5.995.294-1.213.066-2.427.15-3.638.249-2.656.217-5.31.453-7.966.669-1.25.103-2.503.188-3.756.265-2.426.15-4.852.349-7.28.42-5.923.174-11.849.25-17.772.439-2.86.091-5.715.332-8.57.533-1.134.08-2.26.249-3.391.35-.452.04-.627.252-.589.685.01.116.004.235.004.353-.005 8.683-.011 17.364-.014 26.047 0 2.357.032 4.715.003 7.071-.01.829.315 1.338 1.075 1.611.279.099.549.225.846.348.019-.163.052-.244.028-.304-.096-.257-.262-.559.046-.729.154-.086.436.017.644.083.37.12.728.279 1.094.416.408.152.676.105.706-.425.017-.348.321-.391.608-.418.386-.038.797-.02 1.154-.148 1.472-.528 2.923-1.095 4.434-1.534 1.306-.38 2.609-.823 3.902-1.266 2.897-.995 5.836-1.819 8.827-2.457 1.413-.301 2.847-.507 4.275-.729 1.703-.263 3.419-.448 5.112-.762.994-.186 2.008-.443 2.912-.878.837-.401 1.624-.515 2.495-.343.564.112 1.128.224 1.67.331.066-.148.116-.214.125-.286.112-.924.133-.932.961-.792.462.079.931.156 1.396.143.226-.006.553-.165.649-.35.266-.509.691-.577 1.177-.621.625-.056 1.251-.118 1.869-.225.533-.093 1.043-.195 1.337-.802.15-.309.569-.548.917-.69 1.123-.459 2.271-.857 3.407-1.281 1.395-.519 2.805-1.004 4.178-1.575.816-.338 1.556-.841 2.323-1.441-.302-.241-.517-.402-.721-.575-.262-.222-.297-.549-.028-.698.691-.384.834-.981.818-1.68.736-.891.164-1.482-.471-2.06-.058-.052-.104-.118-.152-.18-.591-.752-.545-1.249.312-1.705.896-.477 1.832-.925 2.802-1.208 2.33-.678 4.691-1.25 7.04-1.871.377-.1.759-.199 1.113-.359.707-.319 1.364-.788 2.097-1.004 3.35-.984 6.78-1.608 10.219-2.19 2.2-.372 4.417-.663 6.597-1.127 4.983-1.062 10.013-1.835 15.039-2.647 2.201-.355 4.419-.646 6.596-1.121 3.484-.759 6.934-1.668 10.408-2.471 1.983-.459 4.014-.727 5.972-1.27 2.83-.786 5.611-1.747 8.414-2.627.598-.187 1.196-.387 1.807-.515 2.183-.456 4.371-.885 6.556-1.324m-45.48 33.527c.441.182.794-.089 1.172-.282.157-.08.411-.21.501-.146.643.457 1.355.309 2.051.287.379-.011.701.055.879.441.527 1.134.358 2.274-.623 3.098-1.049.881-2.115 1.79-3.307 2.441-3.374 1.844-6.852 3.47-10.535 4.648-6.909 2.211-13.784 4.524-20.687 6.755-3.246 1.05-6.523 2-9.968 2.174-3.732.187-7.141 1.52-10.515 3.015.359.067.709.067 1.06.067 9.817-.006 19.634.002 29.451-.019 13.47-.029 26.937-.097 40.406-.118 18.025-.03 36.05-.033 54.075-.038 3.926-.001 7.852.04 11.778.065.562.003.642-.07.667-.683.008-.196-.002-.393-.002-.589-.001-17.25-.001-34.5-.001-51.752 0-.313-.008-.629 0-.942.011-.368-.112-.564-.523-.614-1.751-.209-3.491-.571-5.245-.656-3.604-.174-7.216-.241-10.814.173-3.794.437-7.433 1.554-11.087 2.594-2.941.837-5.838 1.831-8.794 2.612-2.935.776-5.739 1.844-8.483 3.131-2.805 1.315-5.648 2.558-8.526 3.704-2.592 1.033-5.135 2.153-7.619 3.422-2.165 1.106-4.372 2.133-6.564 3.187-1.026.493-2.073.941-3.087 1.455-1.576.798-3.145 1.61-4.692 2.462-1.477.814-2.954 1.634-4.372 2.546-2.475 1.591-4.902 3.254-7.35 4.889-.13.087-.265.168-.386.267-.538.44-.682.797-.709 1.834.357-.132.668-.261.987-.362.383-.121.809-.597 1.14-.12.131.189-.168.677-.278 1.054m32.785 23.23c-17.007 0-34.015-.171-51.019.058-11.938.16-23.874.044-35.81.19-.813.01-1.621.26-2.437.344-.442.046-.943.387-1.32-.27-.097-.168-.663-.084-1.014-.084-7.345-.004-14.689.003-22.033-.005-5.459-.007-10.918-.03-16.376-.047-.568-.002-.651-.067-.658-.699-.015-1.337.023-2.673-.012-4.009-.015-.559.23-1.173-.24-1.676-.03-.032-.023-.142.009-.185.452-.603.231-1.296.232-1.942.016-13.244.013-26.487.013-39.732.001-.196.002-.392.004-.589.014-1.074.016-1.035 1.07-1.076.821-.031 1.637-.175 2.454-.271 3.35-.392 6.707-.7 10.085-.763 3.65-.067 7.298-.183 10.948-.271 2.944-.071 5.89-.077 8.832-.213 2.82-.132 5.632-.4 8.449-.596 2.778-.193 5.559-.368 8.339-.555 3.091-.207 6.18-.419 9.272-.626 1.448-.097 2.895-.21 4.344-.277 1.966-.091 3.887-.429 5.804-.861 2.676-.605 5.355-1.205 8.056-1.673 1.734-.302 3.505-.419 5.265-.524 3.526-.208 7.056-.335 10.581-.528 1.253-.069 2.498-.246 3.749-.342.861-.065 1.725-.102 2.588-.106 3.81-.019 7.619-.053 11.429-.019 3.853.034 7.68-.343 11.517-.591.862-.055 1.728-.024 2.59-.075 2.112-.126 4.222-.313 6.335-.411 3.289-.15 6.589-.488 9.858.173.95.191 1.881.542 2.774.928.701.303.71.501.455 1.339-.022.076-.04.153-.046.23-.084.925-.181 1.062.844 1.014 1.54-.073 3.044.216 4.562.405 1.321.165 2.677.099 3.985.322 1.211.207 2.279-.063 3.415-.391 2.182-.628 4.404-1.12 6.614-1.652.378-.091.779-.087 1.167-.145 3.064-.467 6.143-.65 9.242-.747 2.964-.093 5.862.329 8.777.693.305.038.628.074.925.017.633-.122 1.131.224 1.663.43.189.073.223.326-.012.46-.13.073-.294.118-.443.12-.35.003-.492.169-.486.506.006.314-.005.628-.005.943-.002 17.056-.001 34.112-.017 51.169 0 .733-.124 1.471-.249 2.196-.029.164-.279.357-.465.411-.255.072-.543.029-.819.029-12.372 0-24.742-.001-37.114-.002h-15.671z" fill="#231f20"/><path d="m125.308 62.649c.084-.333.181-.591.211-.858.051-.471.462-1.073-.176-1.362-.549-.251-.956.231-1.262.635-.495.654-.97 1.329-1.392 2.032-.272.455-.517.611-1.008.301-.384-.242-.774-.055-1.078.208-.258.222-.44.24-.683-.006-.432-.433-.992-.427-1.544-.371-.406.041-.581.39-.31.651.542.522 1.026 1.064 1.225 1.813.01.04.137.083.195.067.063-.015.158-.106.152-.151-.053-.335-.103-.677-.206-.999-.071-.216-.23-.404-.349-.604.358.058.566.215.74.401.54.579.535.584 1.015-.008.403-.497.403-.497.901-.133.528.387.676.394 1.034-.096.393-.535.731-1.113 1.104-1.663.246-.366.514-.718.771-1.076.073.541-.03.987-.14 1.431-.102.409.091.601.474.614.454.018.91.005 1.472.005-.15.248-.237.374-.304.508-.356.713-.173 1.064.586 1.037.505-.019 1.011-.116 1.508-.215.121-.024.215-.192.321-.293-.129-.116-.245-.309-.391-.336-.373-.068-.758-.063-1.135-.086.012-1.256-.016-1.279-1.731-1.446m-6.145 17.321c-.076.352-.138.64-.2.928-.097.458-.247.912-.282 1.375-.053.72.184.925.889.86.468-.042.931-.121 1.4-.168.245-.024.399.068.55.313.546.886 1.67.993 2.605.164-.514-.075-.931-.111-1.333-.206-.201-.047-.492-.162-.545-.315-.301-.859-.964-.795-1.645-.718-.376.043-.754.252-1.149-.042.109-.417.238-.828.316-1.249.07-.381.126-.777.109-1.162-.03-.609-.402-.881-.945-.629-.522.243-1.047.563-1.448.969-.627.636-1.152 1.372-1.752 2.104-.105-.084-.221-.175-.336-.266-.904-.711-1.357-.634-1.994.333-.381.581-.374.552-1.104.376-.492-.119-1.101-.612-1.485.033-.331.557.276.99.504 1.464.032.067.092.13.154.17.061.04.18.088.207.062.076-.071.183-.2.162-.271-.105-.347-.248-.683-.47-1.265.706.259 1.169.441 1.638.598.34.112.625.062.717-.356.026-.114.044-.234.094-.338.367-.77.719-.824 1.297-.204.677.726.764.712 1.385-.103.477-.622.958-1.242 1.478-1.825.272-.305.583-.622 1.183-.632m-20.918-13.086c.11-.377.41-.864.279-1.054-.331-.478-.758-.001-1.139.12-.321.102-.631.229-.988.362.027-1.037.172-1.394.708-1.834.121-.099.256-.18.387-.267 2.447-1.635 4.875-3.298 7.35-4.889 1.417-.912 2.896-1.731 4.371-2.545 1.548-.853 3.117-1.666 4.693-2.463 1.014-.514 2.061-.962 3.086-1.455 2.193-1.054 4.399-2.08 6.564-3.187 2.486-1.268 5.028-2.389 7.619-3.422 2.879-1.145 5.722-2.39 8.526-3.704 2.745-1.287 5.548-2.355 8.485-3.131 2.954-.781 5.852-1.775 8.794-2.613 3.653-1.039 7.293-2.156 11.086-2.593 3.597-.413 7.21-.348 10.813-.173 1.755.085 3.495.448 5.245.657.411.049.534.245.524.613-.008.314 0 .629 0 .943 0 17.25 0 34.501.001 51.751 0 .197.009.393.002.59-.025.612-.105.686-.667.682-3.926-.024-7.852-.066-11.778-.065-18.025.005-36.049.009-54.075.038-13.469.021-26.937.089-40.406.118-9.817.021-19.634.013-29.452.019-.35 0-.7 0-1.059-.067 3.373-1.495 6.782-2.827 10.515-3.016 3.445-.172 6.721-1.123 9.968-2.173 6.903-2.23 13.778-4.543 20.687-6.755 3.683-1.177 7.16-2.804 10.534-4.648 1.194-.651 2.258-1.56 3.307-2.44.981-.825 1.151-1.965.624-3.099-.179-.385-.501-.452-.878-.44-.698.02-1.408.169-2.052-.288-.09-.064-.344.065-.502.145-.378.194-.731.465-1.172.283" fill="#57ba5f"/><path d="m184.648 59.513c-.298.438-.606.869-.933 1.286-1.026 1.31-2.178 2.555-3.457 3.623-1.172.979-2.477 1.764-3.863 2.398-1.344.617-2.737 1.121-4.109 1.671.631.725 1.307 1.799.215 2.415-.486.274-1.048.398-1.582.54-.534.143-1.065.303-1.574.52.133.151.258.309.364.481 1.382 2.255-2.474 3.103-3.907 3.394-1.157.235-2.329.381-3.496.552-.784.116-1.56.284-2.343.41-1.352.217-2.714.38-4.078.502-5.464.487-10.956.306-16.435.395-2.003.033-4.003-.191-6.007-.109-1.01.041-2.041.136-3.009.44-.425.133-.835.318-1.237.509-.118.055-.24.109-.346.186-.044.032-.084.095-.062.029-.003.011.014.06.03.108.028.083.064.164.089.248.085.274.102.565.077.85-.071.852-.325 1.683-.899 2.335-1.136 1.287-2.968 1.6-4.614 1.56-.76.32-1.528.108-1.951-.579-.152-.245-.306-.337-.552-.312-.467.047-.932.125-1.398.169-.707.065-.944-.141-.89-.861.035-.463.184-.918.283-1.376.061-.287.124-.575.199-.927-.6.009-.911.326-1.183.631-.521.584-1.002 1.204-1.477 1.825-.622.815-.709.83-1.387.104-.577-.619-.93-.566-1.296.203-.05.105-.069.225-.094.34-.093.416-.378.467-.717.354-.47-.157-.932-.339-1.638-.598.025.064.044.115.068.174.24.008.347.335.16.416.099.257.178.468.242.676.021.07-.086.199-.161.272-.029.025-.148-.022-.208-.062-.062-.041-.121-.105-.153-.171-.105-.216-.284-.423-.42-.636-.938.095-1.859.355-2.76.609-1.16.327-2.328.682-3.529.818-.911.104-1.884.075-2.721-.338-.85-.42-1.488-1.129-1.398-2.12.073-.8.54-1.702-.093-2.393-.365-.4-1.154-.33-1.658-.309-1.623.071-3.21.449-4.811.703-.94.148-1.929.219-2.879.216-1.096-.005-2.211-.192-3.091-.891-.079-.064-.13-.165-.097-.268.255-.774.673-1.483 1.181-2.116.111-.138.237-.264.354-.396-.339.118-.671.25-1.013.359-6.909 2.21-13.785 4.523-20.688 6.755-3.246 1.049-6.522 1.999-9.967 2.172-3.732.188-7.142 1.521-10.515 3.016.359.067.709.067 1.059.067 9.818-.006 19.635.002 29.452-.02 13.469-.029 26.937-.096 40.407-.118 18.025-.028 36.049-.033 54.075-.037 3.925 0 7.851.04 11.776.064.563.004.644-.069.668-.682.008-.196-.002-.393-.002-.589-.001-9.496-.001-18.991-.001-28.487" fill="#009e47"/><path d="m46.174 45.457c-.019-.047-.037-.095-.055-.142-.246.013-.492.026-.738.039.003.054.007.106.009.159.261-.019.522-.038.784-.056m-11.263-2.019c0 .187.03.305-.005.401-.451 1.302-.444 1.314.903 1.087.077-.013.173-.071.224-.043.149.079.394.186.399.291.023.541.388.591.791.672.38.076.743.229 1.116.334.203.056.452.167.615.099.212-.091.035-.508-.331-.731-.166-.101-.347-.197-.534-.231-.473-.086-.902-.153-1.03-.762-.034-.162-.424-.305-.67-.349-.247-.046-.518.043-.838.081-.015-.208-.027-.355-.038-.503-.062-.887-.477-1.163-1.166-.659-.586.428-1.053 1.025-1.557 1.561-.049.051.006.2.02.448.726-.619 1.147-1.474 2.101-1.696m23.484.194c.275.035.437.013.553.078.658.363 1.195.291 1.601-.383.059-.098.152-.179.24-.255.433-.371.6-.346.904.128.629.98.804 1.016 1.884.499.561-.27 1.139-.508 1.72-.736.212-.083.458-.077.675-.155.079-.028.161-.184.153-.274-.008-.093-.125-.254-.189-.251-.422.018-.867.002-1.259.131-.551.185-1.07.476-1.591.744-.334.17-.534.142-.763-.206-.702-1.063-1.247-1.148-2.108-.241-.432.452-.761.507-1.31.293-.28-.109-.734-.054-.983.112-.405.271-.159.717-.033 1.074.09.253.223.514.409.697.13.127.383.128.722.225-.235-.557-.406-.961-.625-1.48m85.33-10.276c-2.185.44-4.373.868-6.555 1.324-.612.129-1.21.328-1.808.515-2.803.881-5.584 1.842-8.414 2.627-1.957.543-3.989.811-5.972 1.27-3.474.803-6.924 1.712-10.408 2.472-2.176.474-4.394.765-6.596 1.12-5.026.812-10.056 1.586-15.039 2.647-2.18.465-4.396.755-6.597 1.128-3.438.581-6.869 1.205-10.219 2.19-.733.215-1.39.685-2.097 1.003-.354.16-.736.26-1.113.359-2.348.622-4.71 1.193-7.04 1.872-.97.282-1.905.731-2.802 1.208-.857.455-.903.953-.312 1.705.048.062.095.128.152.18.637.578 1.208 1.168.471 2.059.017.7-.127 1.296-.818 1.68-.269.149-.234.476.028.698.205.173.419.335.721.576-.767.6-1.506 1.102-2.322 1.441-1.373.571-2.784 1.056-4.178 1.574-1.137.424-2.285.823-3.407 1.282-.349.143-.768.381-.918.69-.294.606-.804.708-1.336.801-.619.107-1.245.169-1.87.225-.486.044-.911.113-1.177.622-.096.185-.423.343-.649.349-.465.014-.934-.064-1.396-.142-.828-.141-.848-.133-.961.791-.008.073-.059.139-.125.287-.541-.108-1.106-.22-1.669-.331-.872-.172-1.659-.058-2.496.342-.904.435-1.918.692-2.912.878-1.692.315-3.409.5-5.111.763-1.429.221-2.863.428-4.276.728-2.99.638-5.929 1.463-8.827 2.458-1.293.443-2.596.885-3.902 1.265-1.51.44-2.962 1.006-4.434 1.534-.357.128-.767.112-1.154.148-.287.027-.591.07-.608.418-.029.531-.297.577-.706.425-.366-.136-.724-.296-1.094-.415-.207-.067-.489-.169-.644-.084-.308.17-.142.472-.045.73.023.06-.01.14-.028.304-.296-.123-.567-.249-.847-.349-.76-.273-1.085-.782-1.074-1.609.029-2.358-.004-4.715-.003-7.073.003-8.682.008-17.364.013-26.047 0-.118.006-.237-.004-.353-.037-.432.137-.644.589-.685 1.131-.101 2.258-.27 3.391-.349 2.856-.202 5.711-.443 8.57-.534 5.923-.188 11.849-.265 17.772-.439 2.428-.071 4.854-.27 7.28-.42 1.254-.076 2.506-.162 3.756-.264 2.656-.217 5.31-.453 7.966-.67 1.211-.099 2.425-.183 3.639-.249 1.998-.108 3.996-.184 5.995-.294 4.114-.224 8.193-.644 12.21-1.661 2.999-.76 6.055-1.282 9.163-1.437 3.876-.195 7.751-.434 11.627-.664 1.017-.06 2.037-.118 3.048-.24 3.325-.4 6.664-.216 9.998-.28 1.923-.038 3.848-.023 5.771-.004 2.672.026 5.33-.128 7.992-.355 1.914-.164 3.84-.171 5.759-.281 2.152-.122 4.301-.31 6.453-.414 3.134-.152 6.275-.392 9.393.171.759.137 1.492.401 2.238.606-.01.06-.021.119-.032.178" fill="#57ba5f"/><path d="m58.905 54.976c-.002-.001-.003-.003-.004-.005-.041.054-.064.119-.114.165-.338.306-.721.556-1.049.879-.59.583-1.099 1.244-1.716 1.8-.553.498-1.192.845-1.897 1.076-2.569.839-5.358.278-7.937 1.03-1.231.36-2.46.719-3.711 1.009-1.577.366-3.283.758-4.914.593-.511-.052-1.103-.186-1.44-.61-.277-.349-.264-.783-.143-1.185-1.653.254-3.278.68-4.944.865-1.69.189-3.516.143-4.968-.851-.083-.057-.128-.171-.096-.268.308-.96.988-1.718 1.81-2.28 1.72-1.177 3.844-1.681 5.81-2.282 1.002-.306 2.006-.622 2.965-1.048.669-.298 1.329-.663 1.884-1.15-3.714-.027-7.411.418-11.105.749-2.064.185-4.128.285-6.198.35-1.511.048-3.026.066-4.537-.018-.766-.041-1.532-.108-2.287-.241-.604-.105-1.231-.244-1.775-.535-.396-.212-.775-.532-.836-1.002-.053-.408.143-.787.394-1.108-.345-.036-.693-.048-1.036-.048-.514-.001-1.028.008-1.541-.024-.398-.025-.832-.066-1.192-.253-.857-.443-.37-1.311.098-1.893-.979-.39-2.123-.382-3.15-.45-1.053-.069-2.34-.123-3.181-.849-1.811-1.561.645-3.665 1.916-4.555 2.082-1.46 4.74-2.006 7.209-2.374 1.067-.16 2.142-.283 3.216-.408-.247.007-.493.011-.739.019-2.859.091-5.714.332-8.57.533-1.133.079-2.26.249-3.391.349-.452.041-.627.253-.589.685.01.116.004.236.004.354-.005 8.682-.01 17.364-.013 26.047-.001 2.357.032 4.714.003 7.072-.011.827.314 1.336 1.074 1.609.28.1.55.226.847.35.017-.165.051-.245.028-.304-.097-.259-.262-.561.045-.731.154-.085.436.018.644.084.371.119.729.279 1.094.415.409.152.677.106.705-.424.019-.349.322-.391.609-.418.387-.037.797-.021 1.154-.148 1.471-.529 2.923-1.095 4.434-1.534 1.305-.381 2.61-.823 3.902-1.266 2.898-.995 5.836-1.82 8.827-2.457 1.413-.301 2.847-.507 4.276-.729 1.702-.263 3.418-.448 5.111-.763.994-.185 2.009-.443 2.912-.877.837-.401 1.624-.515 2.495-.343.565.111 1.128.224 1.671.331.065-.148.116-.214.125-.286.112-.925.131-.932.961-.792.46.078.93.156 1.394.142.227-.006.555-.163.65-.349.266-.509.691-.578 1.177-.621.624-.057 1.251-.119 1.87-.226.531-.093 1.042-.194 1.335-.801.151-.309.569-.547.919-.69 1.122-.459 2.269-.858 3.406-1.282 1.396-.518 2.806-1.003 4.179-1.574.815-.339 1.555-.841 2.323-1.441-.302-.241-.517-.403-.721-.576-.264-.221-.298-.549-.028-.698.69-.384.834-.98.816-1.68.738-.891.166-1.481-.47-2.059" fill="#009e47"/><path d="m94.029 59.348c-.05-.054-.101-.107-.149-.162-.174.113-.348.224-.522.336.026.045.053.088.081.132.196-.102.393-.204.59-.306m21.959-12.752c1.096.108 3.235-.647 3.804-1.32-1.392.135-2.529.626-3.804 1.32m4.508.361c.892-.352 1.779-.721 2.678-1.054.878-.325 1.776-.596 2.651-.924.866-.323 1.813-.446 2.823-1.039-2.112-.026-7.031 1.771-8.152 3.017m-70.148 31.171c.036.047.073.093.111.14 1.089-.583 2.164-1.191 3.267-1.742 1.092-.545 2.134-1.15 3.106-1.896.713-.547 1.522-.967 2.287-1.445.596-.374 1.194-.748 1.788-1.125.826-.524 1.621-1.109 2.484-1.565 1.298-.688 2.413-1.609 3.512-2.558.153-.133.239-.343.473-.692-.881.189-1.355.653-1.888 1.018-.937.64-1.891 1.251-2.836 1.879-.718.476-1.432.959-2.147 1.44-.518.35-1.033.702-1.552 1.05-1.007.677-2.069 1.285-3.004 2.05-.677.554-1.362 1.037-2.15 1.407-.852.398-1.685.84-2.503 1.303-.345.193-.634.487-.948.736m-33.447 5.63c.599-.118 1.072-.224 1.55-.301 2.355-.381 4.723-.687 7.06-1.152 1.604-.319 3.173-.83 4.743-1.306 1.122-.339 2.215-.769 3.325-1.144 1.296-.439 2.593-.875 3.897-1.289 1.08-.343 2.171-.648 3.253-.983.19-.059.358-.184.684-.356-.769-.188-1.347-.158-1.911.036-1.036.356-2.064.733-3.098 1.095-2.656.929-5.364 1.693-8.009 2.671-1.851.684-3.874.919-5.833 1.294-1.457.28-2.935.462-4.402.693-.452.072-.922.125-1.259.742m73.278-22.65c-.404.126-.851.179-1.208.389-1.552.917-3.078 1.877-4.611 2.827-.198.123-.389.268-.558.429-.67.633-.656 1.077.055 1.637.401.316.839.584 1.231.91 1.226 1.022 1.242 2.292-.06 3.226-.917.659-1.924 1.217-2.949 1.695-3.911 1.825-7.864 3.566-11.622 5.701-1.602.91-3.165 1.889-4.723 2.872-.264.167-.415.511-.618.774.45.361.717-.067 1.008-.263 4.251-2.844 8.74-5.254 13.396-7.36 1.428-.648 2.869-1.279 4.256-2.009.788-.415 1.519-.967 2.202-1.544.624-.527.732-1.25.476-2.045-.228-.71-.682-1.227-1.253-1.662-.343-.262-.708-.493-1.059-.747-.274-.199-.316-.442-.066-.69.166-.164.345-.321.539-.453 1.395-.946 2.795-1.885 4.194-2.825.446-.3.896-.595 1.344-.892.345-.095.689-.189 1.033-.284-.405-.083-.769-.036-1.007.314m63.998-24.151c-2.563.721-5.121 1.463-7.691 2.154-1.901.511-3.754 1.138-5.522 2.005-4.232 2.073-8.599 3.829-12.962 5.603-1.922.781-3.756 1.778-5.632 2.674-2.017.964-4.035 1.927-6.053 2.888-.176.085-.363.151-.535.243-3.337 1.749-6.695 3.456-9.994 5.272-1.438.791-2.748 1.814-4.122 2.724-1.341.887-2.659 1.814-4.043 2.629-1.075.635-1.809 1.441-2.102 2.678-.118.498-.133.865.4 1.037.41.131.539.397.543.792.014 1.339.199 2.652.499 3.96.235 1.02.103 1.082-.848 1.625-3.403 1.942-7.113 3.08-10.819 4.252-3.738 1.184-7.451 2.45-11.169 3.69-4.165 1.39-8.327 2.789-12.604 3.806-.796.189-1.621.335-2.436.359-3.379.096-6.579.957-9.711 2.153-.513.196-1.014.42-1.528.616-2.251.86-4.538 1.302-6.993 1.287-12.211-.075-24.423-.025-36.635-.015-.785 0-1.571.015-2.355.037-.369.008-.601-.093-.601-.517 0-1.649-.007-3.297-.017-4.946-.003-.407.181-.659.557-.803 2.083-.799 4.062-1.857 6.282-2.314 1.023-.211 2.043-.599 2.967-1.091 2.745-1.458 5.669-2.246 8.729-2.643.97-.126 1.919-.399 2.886-.559 1.311-.218 2.632-.379 3.946-.589 1.507-.241 3.009-.518 4.517-.762 1.933-.314 3.87-.604 5.803-.918.502-.081 1.019-.152 1.489-.331 2.324-.881 4.755-1.324 7.178-1.8 1.54-.302 3.05-.691 4.527-1.245.947-.356 1.955-.61 2.956-.744 1.571-.212 3.052-.709 4.545-1.185.186-.059.364-.159.554-.195.352-.067.803.461 1.054-.322.107-.332.76-.486 1.161-.727.063-.039.123-.111.146-.18.035-.102.08-.244.037-.317-.044-.072-.216-.135-.295-.105-.292.111-.565.272-.852.396-.528.228-.762.134-.778-.429-.035-1.216-.011-2.433.021-3.65.011-.427.106-.855.179-1.28.088-.512.277-.944.717-1.296.708-.569.672-.629.316-1.59-.065-.174-.036-.484.079-.602.264-.269.581-.53.927-.669 2.184-.877 4.382-1.719 6.576-2.574.328-.127.663-.244.984-.387 4.234-1.902 8.655-3.269 13.124-4.466 1.847-.494 3.771-.704 5.66-1.044.694-.126 1.391-.242 2.08-.388.573-.121 1.149-.227 1.518-.79.104-.157.399-.216.62-.26 3.491-.71 6.921-1.698 10.474-2.143 3.03-.379 6.077-.803 8.988-1.751 3.38-1.099 6.901-1.418 10.348-2.14 2.26-.472 4.531-.903 6.797-1.353 1.728-.345 3.477-.61 5.177-1.059 1.777-.469 3.51-1.109 5.26-1.687 1.972-.651 3.917-1.4 5.921-1.936.876-.234 1.867-.094 2.799-.035.978.062 1.945.256 2.92.346 1.17.11 2.345.169 3.518.259.178.012.352.07.528.106-.004.083-.006.165-.01.246" fill="#74d1f7"/><path d="m30.094 89.141c1.692-1 3.477-1.829 5.294-2.573 2.228-.914 4.469-1.8 6.703-2.697 1.784-.717 3.566-1.423 5.363-2.105 1.403-.533 2.968-1.125 4.093-2.172-2.439.092-4.835.649-7.166 1.348-2.307.691-4.57 1.521-6.862 2.253-2.318.741-4.688 1.335-7.052 1.903-2.45.588-4.922 1.087-7.365 1.706-1.868.474-4.104 1.248-5.931.239-.12-.065-.185-.163-.155-.299.256-1.171 1.233-1.856 1.878-2.781-1.427.3-2.836.693-4.265.992-.904.19-1.814.359-2.734.46-.707.078-1.461.141-2.165-.003-.475-.096-.999-.332-1.098-.859-.122-.659.408-1.336.794-1.807 2.086-2.548 5.388-3.608 8.326-4.825.574-.238 1.136-.501 1.7-.761-2.939.411-5.754 1.19-8.399 2.595-.925.491-1.945.879-2.967 1.09-2.22.457-4.199 1.516-6.281 2.314-.377.145-.562.397-.559.804.011 1.649.018 3.297.018 4.946 0 .424.232.526.601.516.785-.021 1.569-.036 2.355-.037 8.499-.006 16.998-.018 25.496-.008.127-.077.249-.163.378-.239" fill="#caebfc"/><path d="m68.902 60.512c-.263.429-.538.886-.66 1.38-.052.216-.069.457.073.592.106.103.375.162.583.186.319.038.642.031.962.028 1.262-.014 2.902-.108 3.751 1.03.872 1.169.046 2.644-.713 3.624-1.133 1.465-2.6 2.673-4.035 3.827-.667.536-1.344 1.057-2.013 1.59-.124.098-.249.199-.375.299.834-.389 1.608-.908 2.337-1.474.93-.723 1.803-1.516 2.713-2.263.9-.738 1.82-1.451 2.727-2.181 1.746-1.407 3.488-2.894 4.799-4.73-.466-.259-1.097-.269-1.596-.266-.91.006-1.816.109-2.72.195-.767.072-1.539.148-2.31.133-.55-.009-1.173-.042-1.648-.351-1.023-.666-.23-1.887.357-2.536 1.054-1.168 2.373-2.097 3.649-2.999.615-.433 1.236-.856 1.851-1.288.169-.119.341-.238.511-.36-.654.107-1.296.275-1.925.488-3.106 1.052-5.879 2.906-8.607 4.706h2.041c.19 0 .36.186.248.37" fill="#caebfc"/><path d="m153.659 36.604c-1.173-.089-2.348-.148-3.518-.258-.976-.091-1.943-.285-2.919-.347-.933-.059-1.925-.198-2.8.036-1.968.526-3.881 1.257-5.817 1.901-.151.087-.305.169-.454.259.161-.026.321-.056.472-.083.645-.117 1.284-.263 1.927-.395 1.06-.217 2.231-.498 3.317-.325.768.123 1.405.694 1.123 1.521-.095.279-.254.531-.432.774.637-.206 1.278-.401 1.928-.576 2.57-.691 5.128-1.434 7.691-2.154.004-.082.006-.164.01-.247-.176-.036-.35-.092-.528-.106" fill="#caebfc"/><path d="m107.307 50.558c-.798.084-1.666.07-2.378-.352-.505-.301-.557-.803-.163-1.225.505-.54 1.251-.875 1.91-1.185.938-.443 1.906-.799 2.894-1.119 1.622-.524 3.298-.987 4.816-1.771-1.196.205-2.389.434-3.574.705-5.763 1.316-11.385 3.265-16.835 5.543-.063.046-.125.089-.187.134 1.945-.144 3.809-.802 5.743-1.037.13-.016.312.113.285.261-.23 1.227.923 1.768 1.937 2.007 1.074.252 2.209.297 3.309.22 1.501-.103 2.971-.698 4.321-1.33 1.804-.843 3.488-1.911 5.201-2.922-.635.203-1.27.405-1.898.618-1.747.595-3.535 1.258-5.381 1.453" fill="#caebfc"/><path d="m93.986 60.055c-1.126.849-2.284 1.644-3.432 2.464-1.539 1.099-3.013 2.286-4.45 3.515-.124.107-.371 0-.386-.163-.066-.717.113-1.444.431-2.11-.511.346-1.024.689-1.535 1.034-.193.132-.372.288-.539.453-.249.248-.208.491.067.69.349.254.715.485 1.059.747.571.435 1.025.951 1.253 1.662.255.794.148 1.517-.476 2.045-.683.576-1.415 1.129-2.203 1.543-1.387.731-2.828 1.362-4.256 2.009-3.468 1.57-6.843 3.309-10.096 5.269-.599.558-1.145 1.164-1.586 1.85.332-.035.666-.063.994-.126 4.268-.813 7.932-3.452 11.678-5.49 1.944-1.058 3.976-1.93 6.083-2.601.834-.265 1.67-.493 2.52-.686.644-.147 1.296-.319 1.889-.613.48-.238 1.03-.639.945-1.244-.08-.571-.556-.745-1.049-.893-.536-.162-1.126-.277-1.569-.643-.445-.37-.648-.992-.488-1.555.177-.616.712-1.115 1.178-1.523.587-.512 1.232-.952 1.88-1.38 1.385-.915 2.743-1.872 4.14-2.772 1.688-1.088 3.389-2.165 4.994-3.374 1.408-1.06 2.75-2.235 3.835-3.628-1.233-.068-2.462.313-3.583.802-2.66 1.158-4.997 2.983-7.298 4.718" fill="#caebfc"/><path d="m1.249 83.03v-5.776c.566-.043.954.33 1.406.504.257.097.497.237.755.327.529.185.581.145.765-.497.032-.108.07-.215.102-.315.528.051 1.033.11 1.539.149.48.036.883-.025.805-.682-.011-.087.148-.245.259-.286.658-.244 1.323-.474 1.991-.688.855-.275 1.715-.53 2.572-.794.076-.023.15-.045.226-.069 1.701-.582 3.389-1.21 5.11-1.731 1.833-.554 3.697-1.01 5.551-1.501.492-.129.993-.225 1.489-.338 1.143-.259 2.286-.519 3.461-.786.437.824-.068 1.737.417 2.635.38-.64.235-1.193.259-1.713.037-.8.545-1.262 1.331-1.119.128.024.283.252.314.408.117.575.17 1.163.283 1.738.044.222.159.447.301.623.066.083.274.079.408.059.042-.006.098-.2.078-.294-.063-.307-.182-.602-.237-.91-.068-.384-.096-.776-.137-1.165-.05-.468.11-.73.633-.763.583-.037 1.163-.148 1.745-.228 1.665-.229 3.296-.528 4.845-1.276.57-.275 1.374-.117 2.066-.075.462.029.912.224 1.374.309.592.108.735.054.901-.587.109-.422.299-.484.657-.445.465.053.934.121 1.4.108.442-.012.87-.143.968-.682.076-.424.403-.393.716-.439.929-.133 1.858-.27 2.779-.449.245-.046.625-.216.66-.389.185-.884.973-.912 1.637-1.382.229.818.068 1.516.138 2.189.033.325.156.641.238.96.509-.141.444-.58.458-.946.025-.667-.011-1.337.016-2.004.018-.451 1.077-.995 1.461-.75.092.059.127.273.117.411-.05.701-.137 1.401-.178 2.103-.012.215.082.435.293.68.07-.19.178-.374.203-.569.092-.699.173-1.4.224-2.104.042-.58.308-.913.86-1.122 1.174-.439 2.326-.938 3.616-1.466-.031.379-.038.707-.085 1.029-.229 1.521-.29 3.048-.011 4.564.089.479-.089.612-.469.757-1.655.634-3.364 1.044-5.11 1.334-.77.128-1.558.274-2.276.564-2.238.904-4.606 1.258-6.934 1.79-1.449.332-2.905.669-4.308 1.152-1.501.517-3.067.621-4.598.937-2.033.419-4.088.725-6.136 1.064-.851.14-1.709.229-2.562.356-1.082.161-2.166.313-3.242.511-1.888.346-3.762.765-5.655 1.078-1.687.279-3.257.871-4.768 1.626-1.655.826-3.347 1.487-5.155 1.935-1.313.326-2.534 1.029-3.789 1.579-.533.234-1.048.506-1.777.861" fill="#ce8b51"/><path d="m67.923 51.023c-.156.661-.313 1.186-.387 1.723-.024.167.176.364.275.548.124-.134.312-.249.36-.407.145-.487.23-.991.35-1.486.161-.66.166-.659 1.066-.57-.251.853-.503 1.706-.749 2.559-.007.022.044.061.128.171.154-.154.355-.275.435-.452.276-.607.529-1.226.751-1.855.333-.943.872-1.532 1.929-1.797 4.301-1.074 8.638-1.931 13.029-2.546 2.131-.298 4.231-.816 6.35-1.208 2.888-.534 5.774-1.087 8.675-1.551 5.569-.89 11.15-1.671 16.603-3.215 3.121-.883 6.362-1.335 9.533-2.052 1.488-.338 2.94-.836 4.405-1.272 2.554-.762 5.089-1.592 7.664-2.276 1.506-.401 3.074-.572 4.615-.852.419-.075.834-.168 1.251-.253.186.89.177.922-.554 1.178-2.626.924-5.248 1.859-7.884 2.754-2.081.707-4.212 1.216-6.384 1.588-2.162.369-4.294.904-6.45 1.309-2.657.498-5.328.921-7.987 1.409-.922.168-1.828.432-2.741.654-2.246.549-4.475 1.173-6.739 1.627-2.111.423-4.261.641-6.386.996-1.236.207-2.46.49-3.684.766-1.145.259-2.279.579-3.426.827-.929.201-1.825.462-2.628.989-.859.562-1.874.575-2.83.7-4.461.591-8.736 1.859-12.948 3.392-.662.241-1.344.429-2.013.654-.52.174-1.043.345-1.55.555-3.043 1.262-6.081 2.536-9.124 3.797-.159.064-.356.034-.535.048-.004-.181-.081-.407.001-.537.528-.85.227-1.486-.46-2.052-.12-.099-.223-.222-.319-.346-.394-.504-.37-.659.22-.986.41-.23.832-.453 1.275-.604 2.22-.761 4.452-1.48 6.863-1.927" fill="#e4b36e"/><path d="m97.303 67.593c.571 0 1.084.076 1.563-.02.505-.102.626.097.686.512.069.463.154.924.257 1.381.029.124.146.23.273.423.356-.532.202-.983.122-1.424-.171-.944-.174-.959.821-.948.371.003.819-.003 1.093.192.302.217.131 1.408-.209 1.749-.443.44-.919.853-1.419 1.226-.657.491-1.348.936-2.032 1.387-.274.181-.514.158-.65-.193-.278-.717-.584-3.277-.505-4.285" fill="#ce8b51"/><path d="m119.163 79.97c-.6.01-.911.326-1.184.631-.52.584-1.001 1.204-1.476 1.826-.623.814-.709.829-1.387.103-.577-.62-.93-.565-1.296.203-.05.104-.069.224-.094.34-.093.416-.378.467-.717.354-.47-.157-.932-.339-1.638-.598.222.583.364.918.47 1.266.021.07-.086.199-.162.272-.028.025-.147-.023-.207-.062-.063-.041-.122-.104-.154-.172-.229-.473-.836-.906-.504-1.463.384-.644.992-.152 1.485-.033.729.176.723.205 1.104-.375.637-.969 1.091-1.045 1.993-.335.117.091.232.183.337.266.599-.731 1.124-1.468 1.752-2.103.402-.406.926-.726 1.449-.969.542-.251.914.021.943.629.019.385-.039.78-.108 1.163-.078.42-.208.831-.316 1.247.395.295.774.085 1.148.043.681-.077 1.345-.142 1.646.718.052.154.344.268.545.315.403.095.819.13 1.334.205-.937.831-2.06.722-2.606-.164-.152-.244-.305-.337-.551-.312-.468.048-.932.126-1.399.169-.706.064-.943-.141-.889-.862.035-.462.184-.916.283-1.375.061-.287.123-.575.199-.927" fill="#231f20"/><path d="m125.308 62.649c1.715.167 1.743.19 1.731 1.446.377.023.762.018 1.135.086.146.027.262.22.391.336-.106.101-.2.269-.321.293-.497.099-1.003.196-1.508.215-.759.027-.942-.324-.586-1.037.067-.134.154-.26.304-.508-.562 0-1.018.013-1.472-.005-.383-.013-.576-.205-.474-.614.11-.444.213-.89.14-1.431-.257.358-.525.71-.771 1.076-.373.55-.711 1.128-1.104 1.663-.358.49-.506.483-1.034.096-.498-.364-.498-.364-.901.133-.48.592-.475.587-1.015.008-.174-.186-.382-.343-.74-.401.119.2.278.388.349.604.103.322.153.664.206.999.006.045-.089.136-.152.151-.058.016-.185-.027-.195-.067-.199-.749-.683-1.291-1.225-1.813-.271-.261-.096-.61.31-.651.552-.056 1.112-.062 1.544.371.243.246.425.228.683.006.304-.263.694-.45 1.078-.208.491.31.736.154 1.008-.301.422-.703.897-1.378 1.392-2.032.306-.404.713-.886 1.262-.635.638.289.227.891.176 1.362-.03.267-.127.525-.211.858" fill="#231f20"/><path d="m58.395 43.632c.221.52.39.924.625 1.481-.339-.098-.592-.098-.722-.226-.186-.183-.319-.444-.408-.696-.127-.358-.373-.804.032-1.075.25-.166.703-.22.983-.111.549.213.88.16 1.31-.294.862-.907 1.407-.822 2.108.242.229.348.429.376.764.205.52-.268 1.039-.559 1.591-.742.392-.131.836-.115 1.259-.133.064-.002.181.16.188.252.008.09-.074.245-.153.273-.216.078-.462.072-.675.156-.581.228-1.157.466-1.72.735-1.08.518-1.255.481-1.884-.499-.304-.474-.471-.498-.904-.127-.088.075-.181.156-.24.254-.406.675-.942.746-1.6.383-.117-.063-.279-.042-.554-.078" fill="#231f20"/><path d="m34.912 43.439c-.954.222-1.375 1.077-2.101 1.695-.015-.247-.07-.396-.02-.448.504-.536.97-1.132 1.557-1.561.689-.504 1.104-.227 1.166.659.011.149.023.296.038.503.319-.037.59-.126.837-.082.246.046.637.189.67.351.128.608.558.675 1.031.761.187.034.368.131.533.232.367.222.543.639.331.73-.162.069-.411-.042-.614-.098-.375-.105-.738-.259-1.116-.334-.404-.082-.768-.131-.793-.673-.004-.104-.249-.212-.397-.29-.053-.028-.147.029-.224.042-1.347.227-1.356.215-.903-1.086.034-.097.005-.214.005-.401" fill="#231f20"/><path d="m46.174 45.457c-.262.018-.523.037-.784.056-.002-.053-.006-.105-.009-.159.246-.013.492-.026.738-.039.018.047.036.095.055.142" fill="#231f20"/><path d="m90.153 61.078c-.448.297-.898.592-1.344.892-1.4.94-2.799 1.88-4.194 2.826-.194.131-.373.288-.539.453-.25.247-.209.49.066.689.35.254.715.485 1.059.747.571.436 1.025.952 1.253 1.663.255.793.148 1.517-.476 2.045-.684.576-1.414 1.129-2.202 1.543-1.387.73-2.828 1.361-4.257 2.008-4.655 2.108-9.144 4.517-13.395 7.362-.292.194-.558.622-1.008.262.203-.263.354-.608.618-.774 1.558-.983 3.121-1.963 4.722-2.872 3.759-2.134 7.711-3.876 11.623-5.701 1.025-.478 2.032-1.036 2.949-1.695 1.301-.934 1.286-2.204.06-3.226-.392-.326-.831-.595-1.231-.909-.711-.561-.725-1.006-.055-1.637.169-.161.36-.307.558-.43 1.533-.95 3.059-1.91 4.61-2.826.357-.21.804-.263 1.209-.389z" fill="#231f20"/><path d="m16.901 83.757c.338-.616.807-.67 1.259-.741 1.467-.231 2.945-.413 4.403-.692 1.958-.377 3.981-.612 5.832-1.295 2.645-.978 5.353-1.743 8.009-2.672 1.035-.362 2.062-.738 3.098-1.094.564-.194 1.142-.224 1.911-.036-.326.173-.494.298-.684.356-1.082.335-2.174.639-3.254.983-1.303.413-2.6.85-3.896 1.288-1.11.376-2.203.806-3.325 1.145-1.57.476-3.138.986-4.743 1.305-2.337.465-4.705.772-7.059 1.152-.479.078-.952.184-1.551.301" fill="#231f20"/><path d="m50.348 78.128c.315-.249.603-.543.947-.736.819-.462 1.652-.904 2.503-1.303.79-.37 1.475-.853 2.151-1.407.935-.765 1.998-1.372 3.004-2.05.519-.348 1.035-.701 1.553-1.05.714-.481 1.429-.963 2.146-1.44.945-.627 1.9-1.24 2.836-1.879.533-.364 1.007-.83 1.889-1.018-.235.349-.321.56-.475.693-1.098.948-2.214 1.869-3.511 2.556-.863.457-1.657 1.042-2.484 1.566-.594.378-1.191.751-1.788 1.125-.766.478-1.574.898-2.287 1.445-.973.746-2.014 1.352-3.106 1.896-1.103.551-2.179 1.159-3.268 1.742-.036-.047-.073-.094-.11-.14" fill="#231f20"/><path d="m120.496 46.956c1.121-1.245 6.04-3.043 8.153-3.016-1.01.593-1.958.716-2.823 1.039-.875.327-1.774.598-2.651.923-.9.333-1.787.702-2.679 1.054" fill="#231f20"/><path d="m115.989 46.596c1.274-.694 2.411-1.186 3.803-1.32-.568.674-2.708 1.428-3.803 1.32" fill="#231f20"/><path d="m90.18 61.108c.237-.351.601-.399 1.006-.315-.343.094-.689.19-1.032.284z" fill="#231f20"/><path d="m94.029 59.348c-.197.102-.394.204-.59.306-.028-.044-.055-.087-.081-.132.174-.112.348-.223.522-.336.048.055.099.108.149.162" fill="#231f20"/></g></g></svg>