<svg clip-rule="evenodd" fill-rule="evenodd" stroke-linejoin="round" stroke-miterlimit="2" viewBox="0 0 186 90" xmlns="http://www.w3.org/2000/svg" xmlns:xlink="http://www.w3.org/1999/xlink"><clipPath id="a"><path clip-rule="nonzero" d="m13.975 1.827c-5.805 0-10.555 4.75-10.555 10.556v66.429c0 5.806 4.75 10.555 10.555 10.555h158.437c5.805 0 10.555-4.749 10.555-10.555v-66.429c0-5.806-4.75-10.556-10.555-10.556h-158.437z"/></clipPath><g clip-path="url(#a)"><path d="m.093.133h184.187v83.89h-184.187z" fill="#9fddf9"/><g fill-rule="nonzero"><path d="m72.379 38.749h-.009c0 .231-.01.463.002.695.068 1.335 1.002 1.95 2.22 1.43.42-.18.827-.427 1.183-.714 1.349-1.09 2.687-2.195 4.005-3.321.729-.623 1.562-.985 2.491-1.136.612-.099.923.082 1.211.648.105.204.181.426.246.648.579 1.956 1.2 3.902 1.714 5.876.426 1.635 1.243 3.065 2.086 4.492.174.294.416.568.683.781.74.591 1.505.783 2.462.367 1.277-.555 1.913-1.587 2.22-2.796.492-1.936.804-3.918 1.23-5.871.36-1.654.681-3.324 1.189-4.934.55-1.742 2.39-2.3 3.916-1.289.509.337.946.78 1.429 1.157.453.354.893.745 1.394 1.017 1.168.636 1.33.557 1.817-.654.03-.071.053-.149.099-.209.338-.441.135-.725-.21-1.072-1.978-2.003-3.954-3.997-6.162-5.762-1.483-1.186-2.966-2.333-4.691-3.147-.556-.262-1.102-.559-1.62-.892-1.193-.768-2.529-1.17-3.896-1.38-.816-.125-1.698-.04-2.514.122-.862.171-1.718.472-2.513.85-1.599.76-3.181 1.566-4.724 2.439-1.405.797-2.748 1.707-4.119 2.566-2.057 1.29-4.131 2.553-6.165 3.877-.935.608-1.792 1.332-2.686 2.001-1.418 1.063-2.761 2.253-4.273 3.156-2.399 1.435-4.602 3.097-6.637 4.997-.196.183-.423.346-.576.56-.2.281-.023.709.307.695.445-.02.938-.072 1.318-.28 1.928-1.053 3.813-2.183 5.738-3.243 2.33-1.282 4.683-2.524 7.032-3.774.374-.197.767-.371 1.169-.498.519-.163.827.078.808.636-.011.299-.105.604-.208.889-.145.397-.345.775-.501 1.169-.152.384-.442.857-.018 1.14.157.105.694-.213.961-.448.547-.484 1.01-1.062 1.546-1.559.209-.193.528-.267.796-.395.084.273.176.543.245.82.028.108.005.23.005.346m10.759 37.602c-.007.081-.013.161-.019.242 1.05.367 2.102.736 3.153 1.106 2.504.881 5.01 1.762 7.515 2.645.108.038.244.06.308.139.087.107.151.261.156.396.002.059-.172.179-.261.176-.383-.013-.778-.009-1.143-.105-.707-.188-1.411-.403-2.091-.67-3.805-1.488-7.638-2.9-11.56-4.051-2.325-.683-4.653-1.397-7.023-1.885-3.616-.745-7.264-1.34-10.91-1.93-2.201-.356-4.42-.623-6.638-.856-2.221-.233-4.45-.459-6.679-.534-3.273-.109-6.551-.137-9.826-.094-2.077.027-4.156.215-6.228.385-1.919.159-3.834.361-5.743.599-1.872.231-3.736.515-5.601.805-1.671.261-3.332.593-5.007.835-1.616.232-3.137.874-4.824.877-1.679.003-3.352.405-5.035.495-1.205.064-2.366.268-3.526.555-1.158.287-1.166.273-1.168 1.427-.008 2.432 0 4.864-.016 7.295-.008 1.234-.073 2.468-.074 3.703 0 .673.066.729.74.734 1.428.011 2.855-.019 4.282-.019 46.91-.01 93.818-.016 140.727-.029 3.009-.001 6.017-.062 9.025-.061 3.16.002 6.321.059 9.481.064 5.864.011 11.728.001 17.592-.001.269 0 .541.015.808-.007.558-.044.644-.178.587-.74-.068-.648-.199-1.305-.139-1.944.1-1.07.343-2.126.5-3.193.072-.491.109-.993.115-1.49.006-.667-.306-1.177-.864-1.544-.714-.472-1.476-.801-2.327-.96-1.778-.329-3.545-.714-5.32-1.056-2.682-.517-5.365-1.031-8.052-1.523-2.572-.471-5.15-.917-7.726-1.366-1.364-.237-2.723-.509-4.096-.672-1.715-.204-3.449-.254-5.161-.474-2.289-.296-4.566-.682-6.845-1.044-1.595-.254-3.181-.691-4.783-.762-3.736-.167-7.48-.271-11.218-.198-4.545.089-9.086.417-13.63.584-4.085.149-8.144.504-12.187 1.128-4.945.764-9.908 1.414-14.857 2.152-1.481.222-2.942.573-4.412.866m-69.117-3.429c.038.072.075.142.113.213 1.046-.227 2.084-.501 3.138-.67 1.672-.269 3.358-.452 5.034-.7 1.409-.208 2.803-.536 4.219-.67 3.796-.355 7.594-.764 11.401-.906 3.809-.142 7.636-.258 11.445.148 3.637.387 7.283.688 10.907 1.176 3.507.472 6.994 1.102 10.48 1.719 3.382.599 6.688 1.504 9.922 2.656.683.243 1.313.266 2.019.05 3.141-.964 6.394-1.37 9.632-1.837 3.467-.502 6.928-1.05 10.397-1.53 2.288-.316 4.583-.594 6.883-.802 1.804-.164 3.617-.198 5.428-.285 4.196-.202 8.391-.451 12.59-.586 2.968-.096 5.942-.058 8.912-.032 1.153.01 2.318.068 3.458.241 3.006.452 5.998.999 9.002 1.464.796.124 1.59.433 2.503.253-.141-.162-.201-.269-.291-.327-1.367-.892-2.545-1.997-3.656-3.184-.447-.477-.944-.915-1.456-1.321-2.597-2.061-5.203-4.113-7.813-6.156-2.64-2.068-5.18-4.256-7.875-6.265-4.251-3.166-8.691-5.988-13.414-8.384-.85-.431-1.626-1.031-2.376-1.63-1.023-.817-1.973-1.725-2.982-2.562-.787-.652-1.384-1.419-1.84-2.342-.372-.752-.836-1.484-1.386-2.113-.939-1.074-1.971-2.065-2.975-3.081-.172-.173-.396-.293-.683-.5-.185.463-.332.811-.463 1.168-.202.548-.593.798-1.165.717-.341-.049-.715-.077-.999-.243-.661-.386-1.285-.832-1.902-1.285-.557-.408-1.08-.862-1.626-1.284-.368-.284-.779-.26-1.214-.163-.81.181-1.247.733-1.481 1.471-.49 1.543-.83 3.116-1.105 4.715-.351 2.046-.799 4.08-1.332 6.086-.2.751-.641 1.519-1.177 2.084-.941.992-2.142 1.515-3.557 1.059-.808-.261-1.381-.854-1.811-1.551-.891-1.445-1.707-2.917-2.129-4.596-.507-2.015-1.116-4.007-1.724-5.995-.273-.887-.513-1-1.354-.628-.625.276-1.224.653-1.763 1.075-1.367 1.067-2.683 2.198-4.043 3.273-.357.282-.782.51-1.211.662-1.573.555-2.777-.219-2.977-1.876-.035-.285-.058-.573-.093-.928-.64.599-1.192 1.129-1.759 1.644-.361.326-.797.457-1.284.41-.399-.038-.627-.217-.66-.648-.052-.677.107-1.301.386-1.906.189-.407.379-.812.686-1.47-.594.258-.94.38-1.261.552-4.141 2.229-8.284 4.461-12.416 6.705-1.022.556-1.993.734-2.916-.208-1.894 1.457-3.756 2.892-5.624 4.323-1.838 1.408-3.665 2.824-5.173 4.608-.243.287-.58.524-.92.69-1.072.523-2.17.989-3.247 1.501-.551.261-1.14.495-1.609.87-3.858 3.078-7.668 6.216-11.539 9.277-2.812 2.223-5.497 4.613-8.534 6.545-.611.387-1.162.87-1.74 1.309m78.918 16.446c-30.291 0-60.582 0-90.872-.002-.424 0-.853.017-1.271-.039-.416-.055-.712-.286-.696-.769.008-.232 0-.464 0-.695-.003-3.785-.006-7.568-.008-11.351 0-.194.017-.388.004-.579-.032-.489.162-.769.643-.95 1.345-.508 2.735-.789 4.159-.901.69-.053 1.39-.043 2.082.004 1.712.118 3.376-.22 5.042-.52.389-.07.763-.35 1.096-.599 1.051-.781 2.086-1.585 3.113-2.396 1.545-1.215 3.093-2.425 4.613-3.671 3.43-2.811 6.835-5.653 10.268-8.459 1.433-1.169 2.904-2.297 4.382-3.409.423-.319.926-.54 1.411-.764.524-.242 1.07-.433 1.607-.648 1.347-.544 2.41-1.445 3.453-2.456 1.519-1.472 3.187-2.794 4.837-4.123 2.161-1.744 4.367-3.43 6.552-5.146.333-.262.657-.537.966-.829 1.436-1.357 3.009-2.524 4.725-3.512 1.776-1.023 3.391-2.263 4.961-3.587 2.602-2.192 5.486-3.989 8.437-5.673.436-.246.88-.487 1.281-.785 2.369-1.761 5.045-2.982 7.66-4.294 1.258-.631 2.664-1 4.038-1.358.642-.166 1.374-.093 2.05-.007 1.868.237 3.483 1.125 5.159 1.932 2.755 1.328 5.044 3.254 7.373 5.154.328.269.649.55.948.849 2.702 2.698 5.415 5.384 8.08 8.116.583.597 1.101 1.315 1.449 2.07.487 1.056 1.197 1.871 2.068 2.596.948.79 1.856 1.628 2.814 2.403.597.483 1.205.998 1.894 1.31 2.648 1.197 5.03 2.853 7.546 4.276 1.717.97 3.317 2.103 4.864 3.327 1.995 1.58 4.053 3.079 6.064 4.639 2.864 2.223 5.721 4.451 8.557 6.71 1.779 1.418 3.504 2.893 5.124 4.505 1.027 1.02 2.356 1.73 3.481 2.66.74.612 1.548.683 2.439.763 1.606.146 3.203.405 4.795.673 2.581.431 5.154.897 7.728 1.365 2.726.498 5.449 1.005 8.171 1.526 2.115.406 4.236.791 6.332 1.279 1.055.247 1.999.842 2.651 1.726.524.708.557 1.588.43 2.449-.095.648-.25 1.287-.338 1.935-.218 1.616-.692 3.258.422 4.765.047.064-.113.41-.217.433-.334.074-.687.072-1.034.072-13.505.002-27.01 0-40.515-.001h-50.818z" fill="#231f20"/><path d="m135.462 31.896c-.826-.6-.827-.601-1.679-.27-.252.097-.51.184-.748.308-.788.414-1.565.658-2.388.069-.143-.102-.368-.094-.558-.131-1.564-.314-3.053.031-4.537.5-.428.136-.933.314-1.333.208-1.224-.325-2.453-.208-3.679-.187-1.089.016-2.135.284-3.073.875-.271.17-.515.433-.362.763.1.21.357.455.57.484.604.079 1.226.11 1.831.058.728-.06 1.443-.238 2.167-.341.46-.067.854.036.973.572.151.681.668.897 1.269.993.228.037.461.036.691.06 1.989.215 3.998-.191 5.982.203.219.044.462-.004.691-.034.61-.08 1.226-.137 1.824-.272.455-.103.804-.071 1.157.274.171.166.481.261.731.264 1.503.021 3.007.025 4.509-.014.371-.008.765-.144 1.1-.315.805-.411 1.629-.393 2.479-.244.682.12 1.364.271 2.053.321 3.925.295 7.847.076 11.767-.157.307-.017.622-.02.918-.095.23-.058.434-.215.714-.362-.23-.253-.363-.447-.539-.582-.879-.669-1.844-1.131-2.98-1.084-.942.04-1.787-.123-2.638-.619-.599-.35-1.39-.428-2.108-.503-.839-.085-1.695-.018-2.543-.049-.419-.016-.846-.064-1.25-.17-.188-.05-.448-.253-.474-.418-.106-.685-.602-.75-1.112-.755-1.229-.01-2.467-.111-3.672.275-.146.047-.342-.064-.516-.102.043-.164.031-.396.138-.48.297-.233.235-.424.03-.661-.607-.701-1.391-.785-2.219-.592-1.345.315-2.55.867-3.186 2.21m17.909 4.83c-2.27.024-4.54.09-6.811.054-1.11-.017-2.223-.185-3.325-.352-.856-.13-1.656-.12-2.49.194-.633.239-1.341.331-2.023.376-.921.062-1.849.022-2.775.019-.812-.002-1.602-.02-2.32-.536-.232-.167-.659-.089-.995-.082-1.072.029-2.144.091-3.216.114-1.31.029-2.62.061-3.93.03-.725-.017-1.454-.133-2.173-.253-.517-.086-.99-.36-1.124-.886-.158-.619-.556-.517-.983-.479-.996.091-1.989.185-2.985.246-.301.019-.625-.011-.909-.106-.947-.32-1.211-1.531-.399-2.11.612-.433 1.352-.775 2.084-.93 1.698-.361 3.433-.548 5.142-.036.423.127.737.002 1.102-.13 1.694-.612 3.483-1.023 5.198-.43 1.2.415 2.119.1 3.188-.227 1.033-.314 1.988-.662 2.858-1.338.664-.517 1.515-.703 2.381-.8 1.175-.133 2.113.337 2.931 1.059.322.284.594.419 1.001.411.731-.012 1.469-.04 2.195.034.673.068 1.4.104 1.701.945.063.179.407.338.636.361.574.056 1.154.029 1.734.035 1.513.016 2.985.154 4.349.949.392.229.967.191 1.459.195 1.282.011 2.432.399 3.433 1.182.442.346.992.709.834 1.401-.164.721-.854.768-1.389.832-1.452.173-2.915.246-4.373.358-.002-.033-.005-.068-.006-.1" fill="#231f20"/><path d="m57.31 27.457c-.488-.171-.831-.364-1.19-.402-1.677-.177-3.356-.338-5.04-.447-.783-.051-1.527-.137-2.166-.634-.712-.553-1.287-.597-1.954-.046-.472.391-.906.841-1.297 1.315-.652.794-1.474.994-2.381.659-1.625-.599-3.183-.444-4.702.289-1.247.603-2.544.815-3.922.717-.765-.054-1.563-.098-2.304.058-1.974.416-3.877 1.162-6.086 1.146.225.195.298.311.39.329 1.926.381 3.858.722 5.838.571.997-.076 1.995-.16 2.994-.189 1.347-.039 2.699.008 4.045-.055.878-.042 1.772-.124 2.619-.342 1.468-.379 2.94-.592 4.452-.533 2.387.093 4.656-.464 6.893-1.227 1.194-.408 2.406-.766 3.811-1.209m-22.357.768c.962.173 2.281-.18 3.566-.78 1.53-.714 3.12-.842 4.723-.282.895.314 1.572.117 2.123-.641.204-.279.455-.524.69-.778.87-.946 1.983-1.14 3.061-.626 1.126.535 2.29.613 3.468.737.958.102 1.929.117 2.877.273.749.124 1.481.377 2.201.629.389.134.614.458.553.911-.054.402-.341.664-.681.699-2.406.25-4.526 1.5-6.88 1.937-1.56.291-3.12.485-4.706.424-1.205-.045-2.372.127-3.544.408-.854.205-1.745.303-2.624.344-2.459.113-4.921.148-7.382.256-2.178.096-4.298-.252-6.405-.739-.396-.091-.89-.132-.893-.72-.003-.573.476-.631.872-.756.218-.069.449-.141.675-.142 1.444-.01 2.828-.366 4.188-.78 1.203-.366 2.41-.496 4.118-.374" fill="#231f20"/><path d="m14.021 72.922c.579-.439 1.129-.922 1.74-1.31 3.038-1.931 5.722-4.322 8.533-6.545 3.871-3.06 7.682-6.199 11.539-9.277.47-.375 1.059-.609 1.609-.871 1.078-.51 2.177-.976 3.248-1.499.339-.166.677-.403.92-.69 1.507-1.784 3.335-3.201 5.174-4.609 1.867-1.43 3.729-2.866 5.623-4.323.923.942 1.894.764 2.915.209 4.134-2.245 8.275-4.476 12.417-6.705.321-.173.668-.295 1.261-.552-.306.656-.497 1.063-.686 1.47-.279.604-.439 1.228-.386 1.905.033.431.26.611.659.648.488.047.923-.083 1.284-.41.567-.515 1.12-1.045 1.76-1.644.035.356.059.643.093.929.201 1.657 1.405 2.429 2.977 1.875.43-.152.854-.379 1.211-.661 1.359-1.075 2.676-2.206 4.042-3.273.54-.424 1.138-.8 1.764-1.075.842-.373 1.082-.259 1.353.627.609 1.989 1.219 3.98 1.725 5.996.422 1.679 1.238 3.151 2.13 4.595.43.698 1.002 1.291 1.809 1.551 1.416.457 2.617-.066 3.558-1.059.536-.565.977-1.332 1.177-2.084.534-2.005.981-4.04 1.333-6.085.274-1.599.614-3.174 1.103-4.716.235-.739.671-1.29 1.483-1.471.434-.098.845-.121 1.214.163.546.423 1.069.876 1.625 1.284.616.452 1.242.899 1.901 1.284.284.166.659.196.999.244.573.08.964-.168 1.166-.718.131-.355.277-.703.464-1.167.285.207.511.327.683.5 1.002 1.016 2.036 2.008 2.973 3.081.55.63 1.016 1.362 1.386 2.113.457.924 1.054 1.69 1.841 2.343 1.008.836 1.959 1.744 2.983 2.561.748.599 1.526 1.198 2.375 1.63 4.723 2.396 9.163 5.218 13.414 8.385 2.695 2.008 5.234 4.196 7.875 6.264 2.611 2.044 5.215 4.096 7.814 6.156.511.407 1.007.844 1.454 1.321 1.112 1.188 2.29 2.292 3.657 3.185.09.057.149.165.29.325-.912.182-1.707-.127-2.502-.251-3.005-.467-5.997-1.013-9.002-1.465-1.139-.172-2.304-.231-3.457-.241-2.971-.025-5.945-.064-8.912.032-4.199.135-8.395.384-12.592.587-1.809.087-3.624.12-5.427.285-2.299.208-4.595.486-6.883.802-3.47.48-6.929 1.027-10.397 1.529-3.239.468-6.491.874-9.632 1.838-.706.216-1.336.193-2.018-.05-3.235-1.152-6.542-2.058-9.923-2.657-3.486-.616-6.973-1.247-10.481-1.72-3.622-.487-7.269-.787-10.905-1.174-3.811-.406-7.637-.29-11.446-.149-3.808.142-7.606.552-11.402.907-1.414.132-2.808.462-4.217.67-1.676.247-3.362.431-5.035.698-1.055.17-2.093.444-3.139.672-.037-.072-.075-.142-.112-.213" fill="#b1bec5"/><path d="m93.486 73.361c-2.392-.305-4.807-.436-7.207-.685-2.62-.271-5.235-.594-7.844-.962-2.383-.335-4.758-.716-7.147-1.015-2.222-.279-4.448-.537-6.658-.905-4.368-.726-8.716-1.934-12.411-4.457-1.584-1.08-3.161-2.417-3.9-4.238-.554-1.368-.515-2.856.031-4.219.607-1.512 1.695-2.79 2.883-3.883 1.37-1.261 2.932-2.311 4.558-3.211 1.609-.89 3.285-1.605 5.014-2.222.653-.232 1.352-.507 2.055-.515.581-.008 1.101.207 1.548.572 1.258 1.028 1.946 2.569 2.991 3.783.228.265.51.561.883.573.485.014.978-.327 1.366-.578 1.578-1.014 3.079-2.175 4.504-3.393 1.442-1.232 2.894-2.523 4.618-3.351 1.693-.812 3.559-.944 5.29-.159.553.251 1.068.563 1.569.898-.342-.719-.634-1.463-.833-2.257-.507-2.016-1.116-4.007-1.725-5.995-.272-.887-.512-1-1.353-.628-.625.276-1.224.652-1.764 1.075-1.365 1.067-2.682 2.198-4.042 3.273-.358.282-.782.51-1.211.661-1.572.555-2.777-.218-2.977-1.875-.035-.287-.058-.573-.092-.929-.64.599-1.194 1.13-1.76 1.644-.361.327-.797.458-1.284.411-.399-.038-.628-.218-.66-.649-.052-.676.106-1.3.386-1.905.189-.406.379-.813.686-1.47-.593.257-.94.379-1.26.552-4.142 2.229-8.284 4.46-12.417 6.706-1.022.554-1.993.733-2.916-.21-1.894 1.458-3.756 2.894-5.624 4.323-1.838 1.409-3.665 2.825-5.174 4.609-.241.287-.579.524-.92.69-1.071.523-2.168.989-3.246 1.5-.552.262-1.14.496-1.609.87-3.859 3.079-7.668 6.217-11.539 9.277-2.812 2.224-5.497 4.614-8.534 6.546-.611.387-1.162.87-1.74 1.309l.113.214c1.046-.229 2.083-.502 3.138-.672 1.672-.268 3.358-.451 5.035-.699 1.408-.208 2.803-.537 4.218-.67 3.796-.355 7.594-.764 11.402-.906 3.808-.141 7.635-.258 11.444.148 3.636.387 7.284.687 10.907 1.175 3.507.472 6.994 1.103 10.479 1.719 3.383.599 6.689 1.505 9.923 2.658.683.242 1.312.265 2.019.049 3.141-.964 6.393-1.37 9.633-1.837 1.042-.152 2.083-.309 3.124-.466-.657-.096-1.314-.191-1.97-.274" fill="#849aa6"/><path d="m83.138 76.572c1.47-.303 2.931-.67 4.412-.899 4.95-.77 9.913-1.446 14.857-2.241 4.043-.649 8.102-1.019 12.187-1.175 4.545-.174 9.085-.515 13.631-.608 3.737-.075 7.481.033 11.217.206 1.603.074 3.188.53 4.784.793 2.279.377 4.556.78 6.844 1.087 1.712.229 3.446.282 5.162.494 1.373.169 2.733.452 4.095.698 2.577.468 5.155.932 7.727 1.423 2.687.512 5.369 1.046 8.052 1.586 1.774.356 3.541.756 5.319 1.098.852.165 1.613.509 2.328.999.558.383.87.915.863 1.607-.006.519-.043 1.04-.115 1.552-.157 1.11-.399 2.209-.5 3.322-.06.665.072 1.351.139 2.025.058.585-.028.724-.586.769-.268.023-.54.008-.809.008-5.864.002-11.728.013-17.592.002-3.16-.006-6.321-.066-9.481-.067-3.008-.001-6.016.063-9.024.063-46.909.014-93.818.02-140.728.03-1.427.001-2.854.031-4.282.021-.674-.005-.739-.064-.739-.766.001-1.285.065-2.568.073-3.852.016-2.532.008-5.063.016-7.594.003-1.201.01-1.187 1.169-1.486 1.16-.299 2.32-.511 3.525-.578 1.683-.093 3.357-.513 5.035-.516 1.687-.003 3.208-.67 4.825-.912 1.674-.252 3.335-.597 5.007-.868 1.864-.303 3.729-.599 5.6-.838 1.91-.247 3.825-.458 5.743-.623 2.073-.178 4.151-.374 6.228-.401 3.276-.045 6.553-.017 9.827.098 2.229.077 4.458.312 6.678.555 2.219.242 4.437.52 6.639.891 3.645.614 7.293 1.234 10.909 2.008 2.37.509 4.698 1.251 7.023 1.962 3.922 1.198 7.755 2.669 11.56 4.219.68.277 1.385.501 2.091.695.366.101.76.097 1.143.11.089.002.263-.121.261-.183-.005-.141-.068-.3-.156-.412-.063-.083-.2-.106-.308-.145-2.505-.919-5.011-1.837-7.515-2.753-1.051-.385-2.102-.769-3.153-1.153.007-.083.012-.167.019-.251" fill="#88c65b"/><path d="m94.52 87.967c-1.345-.135-2.691-.293-4.026-.506-1.227-.195-2.425-.486-3.638-.739-.784-.162-1.611-.158-2.407-.185-1.274-.044-2.548-.067-3.823-.115-1.918-.074-11.92-.178-9.537-4.225-2.727-.701-5.629-.591-8.41-.351-2.724.234-5.428.647-8.145.958-2.387.273-4.782.374-7.183.473-2.515.104-5.044.153-7.555-.074-2.341-.212-4.741-.66-6.83-1.784-.119-.064-.176-.159-.152-.295.366-1.923 2.164-2.996 3.846-3.669 1.58-.633 3.251-.977 4.863-1.505-1.01-.245-1.981-.613-2.882-1.143-.098-.056-.143-.22-.069-.313 1.212-1.507 3.129-2.22 4.958-2.638 2.437-.559 4.956-.682 7.469-.647-1.016-.084-2.034-.151-3.052-.185-3.273-.11-6.551-.137-9.826-.094-2.078.027-4.156.215-6.23.385-1.918.159-3.832.36-5.742.598-1.871.232-3.736.516-5.6.805-1.671.261-3.333.593-5.008.835-1.616.232-3.137.874-4.824.877-1.678.003-3.351.405-5.034.495-1.206.065-2.366.268-3.526.555-1.158.287-1.167.274-1.17 1.428-.006 2.431 0 4.863-.014 7.295-.009 1.234-.073 2.468-.074 3.703 0 .672.065.729.74.734 1.427.01 2.855-.02 4.281-.02 31.78-.006 63.559-.013 95.339-.019-2.242-.242-4.494-.409-6.739-.634" fill="#61ab50"/><path d="m93.787 80.343c.107.038.245.06.308.14.015.018.025.044.038.066.113-.028.218-.071.303-.152.008-.009.022-.001.031-.007.204-.477.587-.885.976-1.21.844-.706 1.859-1.212 2.858-1.658 3-1.342 6.223-2.203 9.407-2.987 3.846-.946 7.734-1.718 11.635-2.398.442-.077.886-.141 1.328-.216-2.025.102-4.051.208-6.077.284-4.084.15-8.144.504-12.187 1.127-4.945.764-9.908 1.415-14.857 2.154-1.481.22-2.941.572-4.412.864-.006.081-.013.161-.019.242 1.051.368 2.102.736 3.153 1.106 2.504.881 5.011 1.762 7.515 2.645" fill="#61ab50"/><path d="m72.379 38.749c0-.116.023-.238-.005-.346-.069-.277-.161-.547-.245-.82-.268.128-.587.202-.796.395-.536.497-.999 1.075-1.546 1.559-.267.235-.804.553-.961.448-.424-.283-.134-.756.018-1.14.156-.394.356-.772.501-1.169.103-.285.197-.59.208-.889.019-.558-.289-.799-.808-.636-.402.127-.795.301-1.169.498-2.349 1.25-4.702 2.492-7.032 3.774-1.925 1.06-3.81 2.19-5.738 3.243-.38.208-.873.26-1.318.28-.33.014-.507-.414-.307-.695.153-.214.38-.377.576-.56 2.035-1.9 4.238-3.562 6.637-4.997 1.512-.903 2.855-2.093 4.273-3.156.894-.669 1.751-1.393 2.686-2.001 2.034-1.324 4.108-2.587 6.165-3.877 1.371-.859 2.714-1.769 4.119-2.566 1.543-.873 3.125-1.679 4.724-2.439.795-.378 1.651-.679 2.513-.85.816-.162 1.698-.247 2.514-.122 1.367.21 2.703.612 3.896 1.38.518.333 1.064.63 1.62.892 1.725.814 3.208 1.961 4.691 3.147 2.208 1.765 4.184 3.759 6.162 5.762.345.347.548.631.21 1.072-.046.06-.069.138-.099.209-.487 1.211-.649 1.29-1.817.654-.501-.272-.941-.663-1.394-1.017-.483-.377-.92-.82-1.429-1.157-1.526-1.011-3.366-.453-3.916 1.289-.508 1.61-.829 3.28-1.189 4.934-.426 1.953-.738 3.935-1.23 5.871-.307 1.209-.943 2.241-2.22 2.796-.957.416-1.722.224-2.462-.367-.267-.213-.509-.487-.683-.781-.843-1.427-1.66-2.857-2.086-4.492-.514-1.974-1.135-3.92-1.714-5.876-.065-.222-.141-.444-.246-.648-.288-.566-.599-.747-1.211-.648-.929.151-1.762.513-2.491 1.136-1.318 1.126-2.656 2.231-4.005 3.321-.356.287-.763.534-1.183.714-1.218.52-2.152-.095-2.22-1.43-.012-.232-.002-.464-.002-.695z" fill="#fff"/><path d="m79.367 35.195c.497-1.282 1.207-2.459 1.818-3.688-2.537.816-4.853 2.569-7.62 2.383-.099-.007-.195-.104-.215-.198-.271-1.294.375-2.573 1.114-3.594.914-1.266 2.091-2.343 3.306-3.315 1.383-1.107 2.866-2.092 4.399-2.981.169-.099.345-.183.517-.28-.106.047-.221.082-.324.132-1.6.761-3.182 1.566-4.724 2.439-1.407.797-2.748 1.708-4.121 2.566-2.056 1.29-4.13 2.555-6.165 3.877-.934.608-1.791 1.332-2.685 2.002-1.418 1.062-2.76 2.252-4.273 3.156-2.399 1.435-4.602 3.095-6.637 4.997-.197.183-.422.346-.576.561-.199.28-.023.708.306.693.446-.02.94-.073 1.319-.28 1.928-1.052 3.813-2.183 5.738-3.242 2.331-1.283 4.684-2.525 7.033-3.773.373-.198.766-.373 1.168-.499.52-.163.828.077.807.635-.01.299-.103.605-.207.89-.145.397-.344.775-.501 1.168-.151.384-.441.857-.018 1.14.157.106.695-.212.962-.448.546-.483 1.008-1.062 1.545-1.559.21-.193.528-.267.797-.395.083.273.175.544.245.82.027.108.004.23.004.346h-.008c0 .232-.011.464.002.695.068 1.335 1.001 1.95 2.218 1.431.421-.181.828-.427 1.184-.715 1.055-.852 2.095-1.723 3.132-2.598-.068-.792.185-1.657.46-2.366" fill="#e0e1e2"/><path d="m135.462 31.896c.636-1.343 1.841-1.895 3.186-2.21.828-.193 1.612-.109 2.219.592.205.237.267.428-.03.661-.107.084-.095.316-.138.48.174.038.37.149.516.102 1.205-.386 2.443-.285 3.672-.275.51.005 1.006.07 1.112.755.026.165.286.368.474.418.404.106.831.154 1.25.17.848.031 1.704-.036 2.543.049.718.075 1.509.153 2.108.503.851.496 1.696.659 2.638.619 1.136-.047 2.101.415 2.98 1.084.176.135.309.329.539.582-.28.147-.484.304-.714.362-.296.075-.611.078-.918.095-3.92.233-7.842.452-11.767.157-.689-.05-1.371-.201-2.053-.321-.85-.149-1.674-.167-2.479.244-.335.171-.729.307-1.1.315-1.502.039-3.006.035-4.509.014-.25-.003-.56-.098-.731-.264-.353-.345-.702-.377-1.157-.274-.598.135-1.214.192-1.824.272-.229.03-.472.078-.691.034-1.984-.394-3.993.012-5.982-.203-.23-.024-.463-.023-.691-.06-.601-.096-1.118-.312-1.269-.993-.119-.536-.513-.639-.973-.572-.724.103-1.439.281-2.167.341-.605.052-1.227.021-1.831-.058-.213-.029-.47-.274-.57-.484-.153-.33.091-.593.362-.763.938-.591 1.984-.859 3.073-.875 1.226-.021 2.455-.138 3.679.187.4.106.905-.072 1.333-.208 1.484-.469 2.973-.814 4.537-.5.19.037.415.029.558.131.823.589 1.6.345 2.388-.069.238-.124.496-.211.748-.308.852-.331.853-.33 1.679.27" fill="#fff"/><path d="m57.31 27.457c-1.405.443-2.617.801-3.811 1.209-2.237.763-4.506 1.32-6.893 1.227-1.512-.059-2.984.154-4.452.533-.847.218-1.741.3-2.619.342-1.346.063-2.698.016-4.045.055-.999.029-1.997.113-2.994.189-1.98.151-3.912-.19-5.838-.571-.092-.018-.165-.134-.39-.329 2.209.016 4.112-.73 6.086-1.146.741-.156 1.539-.112 2.304-.058 1.378.098 2.675-.114 3.922-.717 1.519-.733 3.077-.888 4.702-.289.907.335 1.729.135 2.381-.659.391-.474.825-.924 1.297-1.315.667-.551 1.242-.507 1.954.046.639.497 1.383.583 2.166.634 1.684.109 3.363.27 5.04.447.359.038.702.231 1.19.402" fill="#fff"/><path d="m106.145 10.32c-.458-.244-.765-.488-1.113-.581-1.63-.435-3.265-.854-4.91-1.223-.766-.173-1.489-.373-2.042-.962-.618-.657-1.179-.79-1.924-.348-.527.313-1.026.691-1.485 1.098-.767.682-1.611.754-2.455.282-1.512-.844-3.074-.932-4.688-.443-1.327.401-2.64.41-3.988.1-.746-.171-1.527-.338-2.284-.299-2.014.106-4.011.548-6.19.189.192.228.246.354.334.386 1.844.674 3.699 1.311 5.679 1.468.997.08 1.996.153 2.987.277 1.339.17 2.666.426 4.004.572.875.096 1.772.153 2.642.068 1.508-.146 2.995-.128 4.48.164 2.344.463 4.672.262 7-.144 1.244-.218 2.495-.384 3.953-.604m-22.207-2.705c.924.32 2.281.176 3.643-.218 1.625-.469 3.215-.349 4.711.454.836.449 1.534.359 2.197-.305.244-.245.53-.446.801-.662 1.006-.8 2.135-.82 3.122-.144 1.028.703 2.167.96 3.312 1.266.93.248 1.887.413 2.8.714.721.239 1.404.603 2.078.962.362.194.534.549.404.986-.116.389-.441.603-.781.586-2.417-.126-4.703.78-7.096.847-1.587.045-3.159-.005-4.717-.31-1.182-.231-2.362-.243-3.563-.146-.876.07-1.771.03-2.645-.066-2.448-.271-4.886-.617-7.333-.891-2.168-.244-4.209-.915-6.213-1.722-.378-.152-.86-.269-.772-.85.086-.567.568-.55.979-.612.227-.035.466-.07.689-.037 1.427.215 2.851.077 4.259-.121 1.244-.174 2.457-.117 4.125.269" fill="#231f20"/><path d="m106.145 10.32c-1.458.22-2.709.386-3.953.604-2.328.406-4.656.607-7 .144-1.485-.292-2.972-.31-4.48-.164-.87.085-1.767.028-2.642-.068-1.338-.146-2.665-.402-4.004-.572-.991-.124-1.99-.197-2.987-.277-1.98-.157-3.835-.794-5.679-1.468-.088-.032-.142-.158-.334-.386 2.179.359 4.176-.083 6.19-.189.757-.039 1.538.128 2.284.299 1.348.31 2.661.301 3.988-.1 1.614-.489 3.176-.401 4.688.443.844.472 1.688.4 2.455-.282.459-.407.958-.785 1.485-1.098.745-.442 1.306-.309 1.924.348.553.589 1.276.789 2.042.962 1.645.369 3.28.788 4.91 1.223.348.093.655.337 1.113.581" fill="#fff"/></g></g></svg>