<?xml version="1.0" encoding="UTF-8" standalone="no"?>
<!DOCTYPE svg PUBLIC "-//W3C//DTD SVG 1.1//EN" "http://www.w3.org/Graphics/SVG/1.1/DTD/svg11.dtd">
<svg width="100%" height="100%" viewBox="0 0 199 183" version="1.1" xmlns="http://www.w3.org/2000/svg" xmlns:xlink="http://www.w3.org/1999/xlink" xml:space="preserve" xmlns:serif="http://www.serif.com/" style="fill-rule:evenodd;clip-rule:evenodd;stroke-linecap:round;stroke-linejoin:round;stroke-miterlimit:10;">
    <g transform="matrix(1,0,0,1,-27932.9,-2903.84)">
        <g transform="matrix(5.55556,0,0,5.55556,25423.2,0)">
            <g transform="matrix(1,0,0,1,484.293,543.819)">
                <path d="M0,-12.012C-3.334,-18.241 -20.233,-24.665 -26.896,-17.409C-33.558,-10.155 -32.991,-5.929 -29.479,-3.821C-25.968,-1.712 -21.923,5.365 -19.888,8.521C-17.975,11.488 -8.758,12.653 -5.101,8.8C-1.443,4.947 7.139,1.326 0,-12.012" style="fill:rgb(229,178,57);fill-rule:nonzero;"/>
            </g>
        </g>
        <g transform="matrix(5.55556,0,0,5.55556,25423.2,0)">
            <g transform="matrix(1,0,0,1,484.293,543.819)">
                <path d="M0,-12.012C-3.334,-18.241 -20.233,-24.665 -26.896,-17.409C-33.558,-10.155 -32.991,-5.929 -29.479,-3.821C-25.968,-1.712 -21.923,5.365 -19.888,8.521C-17.975,11.488 -8.758,12.653 -5.101,8.8C-1.443,4.947 7.139,1.326 0,-12.012Z" style="fill:none;fill-rule:nonzero;stroke:rgb(189,148,47);stroke-width:1px;"/>
            </g>
        </g>
        <g transform="matrix(5.55556,0,0,5.55556,25423.2,0)">
            <g opacity="0.3">
                <g transform="matrix(1,0,0,1,482.461,542.628)">
                    <path d="M0,-9.918C-2.91,-15.355 -17.662,-20.963 -23.478,-14.63C-29.293,-8.296 -27.995,-5.389 -24.93,-3.548C-21.864,-1.707 -17.73,4.709 -16.345,8.012C-15.153,10.853 -7.232,11.045 -4.039,7.682C-0.847,4.319 6.232,1.726 0,-9.918" style="fill:white;fill-rule:nonzero;"/>
                </g>
            </g>
        </g>
        <g transform="matrix(5.55556,0,0,5.55556,25423.2,0)">
            <g opacity="0.25">
                <g transform="matrix(1,0,0,1,476.324,541.551)">
                    <path d="M0,-9.947C-2.831,-12.46 -12.642,-14.936 -14.919,-9.97C-17.196,-5.005 -12.22,-3.726 -10.001,-3.337C-7.782,-2.946 -4.302,0.692 -2.586,3.419C-1.599,4.989 2.087,4.877 3.359,2.217C4.633,-0.443 6.062,-4.565 0,-9.947" style="fill:white;fill-rule:nonzero;"/>
                </g>
            </g>
        </g>
        <g transform="matrix(5.55556,0,0,5.55556,25423.2,0)">
            <text x="464.113px" y="541.236px" style="font-family:'LucidaGrande-Bold', 'Lucida Grande', sans-serif;font-weight:600;font-size:11.903px;fill:rgb(35,31,32);">6<tspan x="470.719px " y="541.236px ">0</tspan></text>
        </g>
    </g>
</svg>
