<?xml version="1.0" encoding="utf-8"?>
<!-- Generator: Adobe Illustrator 24.2.1, SVG Export Plug-In . SVG Version: 6.00 Build 0)  -->
<svg version="1.1" id="Capa_1" xmlns="http://www.w3.org/2000/svg" xmlns:xlink="http://www.w3.org/1999/xlink" x="0px" y="0px"
	 viewBox="0 0 113.39 70.87" style="enable-background:new 0 0 113.39 70.87;" xml:space="preserve">
<style type="text/css">
	.st0{fill:#FCF8CA;}
	.st1{fill:#5B9991;}
	.st2{fill:#AC8E64;}
	.st3{fill:#91714C;}
	.st4{fill:#A3CAC9;}
	.st5{fill:#FFFFFF;}
	.st6{opacity:0.2;fill:#FFFFFF;}
	.st7{opacity:0.3;fill:#FFFFFF;}
	.st8{fill:#252723;}
	.st9{fill:#BE4741;stroke:#252723;stroke-width:0.75;stroke-linecap:round;stroke-linejoin:round;stroke-miterlimit:10;}
	.st10{opacity:0.2;}
	.st11{filter:url(#Adobe_OpacityMaskFilter);}
	.st12{mask:url(#SVGID_1_);}
	.st13{filter:url(#Adobe_OpacityMaskFilter_1_);}
	.st14{mask:url(#SVGID_2_);}
	.st15{opacity:0.5;}
	.st16{filter:url(#Adobe_OpacityMaskFilter_2_);}
	.st17{mask:url(#SVGID_3_);}
	.st18{filter:url(#Adobe_OpacityMaskFilter_3_);}
	.st19{mask:url(#SVGID_4_);}
	.st20{filter:url(#Adobe_OpacityMaskFilter_4_);}
	.st21{mask:url(#SVGID_5_);}
	.st22{fill:#BF5135;}
	.st23{fill:#BB3C39;}
	.st24{fill:#C46442;}
	.st25{fill:#D7E9F7;}
	.st26{fill:#C59550;}
	.st27{fill:#62452F;}
	.st28{fill:#CEAD80;}
	.st29{fill:#C4A662;}
	.st30{opacity:0.5;fill:#FFFFFF;}
	.st31{fill:#86572A;}
	.st32{fill:#ECD1B5;}
	.st33{fill:#929252;}
	.st34{fill:#D08834;}
	.st35{fill:#77A1D0;}
	.st36{fill:#C3B54E;}
	.st37{fill:#C3C7C8;}
	.st38{fill:#9F713E;}
	.st39{opacity:0.51;fill:#CA9D71;}
	.st40{fill:#50412A;}
	.st41{fill:#DAA243;}
	.st42{fill:#92B751;}
	.st43{fill:#B71C32;}
	.st44{fill:#E9C76C;}
	.st45{fill:#A16F49;}
	.st46{fill:#BA9766;}
	.st47{fill:#989DC4;}
	.st48{fill:#72A1B2;}
	.st49{fill:#C08C5B;}
	.st50{fill:#D18AA9;}
	.st51{fill:#E2B99F;}
	.st52{fill:#FBEB2A;}
	.st53{fill:#C86E94;}
	.st54{fill:#D4CEB5;}
	.st55{fill:#C4633E;}
	.st56{fill:#EBC844;}
	.st57{fill:#E4D79D;}
	.st58{fill:#65686F;}
	.st59{fill:#FBEE6F;}
	.st60{fill:#473F30;}
	.st61{fill:#904D2E;}
	.st62{fill:#962927;}
	.st63{fill:#D39182;}
	.st64{opacity:0.33;fill:#FFFFFF;}
	.st65{opacity:0.51;fill:#B8A458;}
	.st66{fill:#7E7B9B;}
	.st67{fill:#C3AAC5;}
	.st68{fill:#584D73;}
	.st69{opacity:0.58;fill:#584D73;}
	.st70{fill:#FCF72A;}
	.st71{fill:#FBC02A;}
	.st72{fill:#009FDF;}
	.st73{fill:#74B9E7;}
	.st74{opacity:0.3;}
	.st75{fill:#222221;}
</style>
<g>
	<path d="M48.23,25.48c-0.11-0.35-0.2-0.64-0.3-0.92c-0.2-0.59-0.51-1.16-0.57-1.76c-0.11-1.18-0.33-2.28-0.99-3.31
		c-0.48-0.76-0.37-1.7-0.24-2.55c0.71-4.53,3.56-7.17,7.83-7.74c2.31-0.31,4.51,0.6,6.31,2.19c0.18,0.16,0.3,0.4,0.49,0.55
		c1.01,0.84,1.94,1.71,2.26,3.08c0.3,1.27,0.73,2.51,0.39,3.74c0.12,0.2,0.16,0.33,0.24,0.41c0.47,0.47,1.18,0.71,1.31,1.5
		c0.18,1.12,0.17,2.22-0.23,3.29c-0.15,0.4-0.36,0.78-0.58,1.25c0.37,0.25,0.7,0.53,1.08,0.71c1.78,0.81,3.16,2.17,4.67,3.35
		c1.08,0.84,1.72,2.1,2.42,3.27c0.13,0.21,0.19,0.46,0.33,0.66c1.96,2.83,2.35,6.06,2.39,9.38c0.03,2.11,0.08,4.21-0.32,6.3
		c-0.42,2.16-1.31,4.12-2.43,6c-0.25,0.42-0.56,0.85-0.95,1.13c-2.46,1.77-4.86,3.67-7.8,4.61c-1.76,0.56-3.6,0.89-5.42,1.27
		c-0.67,0.14-1.33,0.23-1.92,0.63c-0.8,0.55-1.75,0.65-2.67,0.53c-2.15-0.3-4.29-0.61-6.41-1.05c-1.81-0.38-3.18-1.62-4.58-2.73
		c-2.77-2.21-4.76-5.01-5.97-8.36c-0.17-0.46-0.41-0.9-0.63-1.35c-0.59-1.21-0.76-2.47-0.58-3.8c0.08-0.61,0.17-1.23,0.18-1.85
		c0.09-5.51,2.29-10.22,5.68-14.4c1.58-1.95,3.63-3.37,6.22-3.76C47.7,25.71,47.91,25.59,48.23,25.48z M51.42,25.74
		c-0.28,1.2-0.33,1.27-1.06,1.25c-0.37-0.01-0.74-0.09-1.11-0.08c-0.86,0.01-1.75-0.07-2.58,0.11c-1.76,0.37-3.14,1.42-4.32,2.75
		c-2,2.26-3.46,4.84-4.41,7.69c-0.49,1.46-0.87,2.97-1.13,4.48c-0.21,1.21-0.16,2.47-0.22,3.7c-0.06,1.25-0.05,2.52,0.53,3.64
		c0.99,1.92,1.79,3.92,3.13,5.67c1.81,2.39,4.13,4.07,6.67,5.52c0.47,0.27,1.05,0.35,1.6,0.47c0.91,0.19,1.84,0.29,2.73,0.53
		c1.03,0.27,2.04,0.59,3.03-0.11c0.14-0.1,0.36-0.09,0.54-0.1c3.04-0.28,5.97-1,8.83-2.02c0.29-0.1,0.6-0.18,0.86-0.34
		c1.78-1.13,3.56-2.24,5.29-3.43c0.6-0.41,1.14-0.99,1.53-1.6c1.05-1.62,1.89-3.35,2.14-5.3c0.19-1.47,0.33-2.95,0.45-4.43
		c0.34-4.03-0.67-7.75-2.72-11.19c-0.76-1.26-1.53-2.56-2.79-3.43c-0.71-0.49-1.42-1-2.1-1.53c-1-0.77-2.06-1.38-3.35-1.47
		c-0.58-0.04-1.06-0.24-1.5-0.85c0.44-0.34,0.86-0.67,1.27-1.01c0.87-0.72,1.28-1.66,1.17-2.79c-0.02-0.21-0.19-0.49-0.37-0.57
		c-0.18-0.08-0.52-0.01-0.67,0.13c-0.36,0.33-0.64,0.74-0.95,1.12c-0.44,0.52-0.85,1.07-1.32,1.55c-0.85,0.86-2.72,0.76-3.2-0.73
		c-0.13-0.41-0.27-0.83-0.43-1.23c-0.19-0.46-0.38-0.92-0.62-1.35c-0.23-0.41-0.61-0.63-1.09-0.52c-0.41,0.1-0.57,0.44-0.63,0.83
		c-0.11,0.67-0.17,1.35-0.34,2.01c-0.27,1.03-0.95,1.27-1.79,0.66c-0.6-0.44-1.15-0.95-1.76-1.37c-0.7-0.48-1.45-0.63-2.2-0.04
		C48.55,24.35,49.87,25.18,51.42,25.74z M53.43,22.57c0.06-0.48,0.11-0.78,0.12-1.08c0.02-0.37-0.02-0.74,0.02-1.11
		c0.13-1.15,0.74-1.62,1.9-1.49c1,0.12,1.74,0.54,2.07,1.57c0.23,0.7,0.5,1.41,0.87,2.04c0.45,0.77,1.49,0.86,2.05,0.19
		c1.62-1.96,2.37-4.14,1.59-6.7c-0.81-2.67-2.77-4.16-5.18-5.18c-1.32-0.56-2.65-0.8-4.13-0.34c-3.68,1.14-5.91,4.16-5.61,7.72
		c0.11,1.27,0.7,2.18,1.91,2.42c1.38,0.27,2.55,0.87,3.65,1.68C52.84,22.37,53.03,22.41,53.43,22.57z"/>
	<path class="st71" d="M51.42,25.74c-1.55-0.55-2.88-1.38-2.89-3.38c0.75-0.59,1.49-0.44,2.2,0.04c0.61,0.42,1.16,0.93,1.76,1.37
		c0.83,0.61,1.52,0.37,1.79-0.66c0.17-0.65,0.23-1.34,0.34-2.01c0.06-0.39,0.22-0.73,0.63-0.83c0.48-0.12,0.86,0.11,1.09,0.52
		c0.24,0.43,0.44,0.89,0.62,1.35c0.16,0.4,0.3,0.81,0.43,1.23c0.48,1.49,2.35,1.59,3.2,0.73c0.47-0.48,0.89-1.03,1.32-1.55
		c0.32-0.38,0.6-0.79,0.95-1.12c0.15-0.14,0.49-0.2,0.67-0.13c0.18,0.07,0.35,0.36,0.37,0.57c0.12,1.13-0.3,2.06-1.17,2.79
		c-0.41,0.34-0.84,0.66-1.27,1.01c0.44,0.61,0.92,0.8,1.5,0.85c1.29,0.09,2.35,0.7,3.35,1.47C67,28.5,67.71,29,68.42,29.5
		c1.26,0.88,2.04,2.17,2.79,3.43c2.05,3.44,3.06,7.16,2.72,11.19c-0.12,1.48-0.26,2.96-0.45,4.43c-0.25,1.94-1.09,3.68-2.14,5.3
		c-0.4,0.61-0.94,1.19-1.53,1.6c-1.73,1.2-3.52,2.31-5.29,3.43c-0.25,0.16-0.57,0.23-0.86,0.34c-2.86,1.03-5.8,1.75-8.83,2.02
		c-0.18,0.02-0.4,0.01-0.54,0.1c-1,0.7-2,0.38-3.03,0.11c-0.9-0.23-1.82-0.33-2.73-0.53c-0.54-0.12-1.13-0.2-1.6-0.47
		c-2.54-1.44-4.86-3.13-6.67-5.52c-1.33-1.76-2.14-3.76-3.13-5.67c-0.58-1.12-0.59-2.39-0.53-3.64c0.06-1.24,0.01-2.49,0.22-3.7
		c0.26-1.52,0.64-3.03,1.13-4.48c0.95-2.85,2.41-5.43,4.41-7.69c1.18-1.33,2.56-2.37,4.32-2.75c0.83-0.18,1.72-0.1,2.58-0.11
		c0.37,0,0.74,0.07,1.11,0.08C51.09,27,51.14,26.94,51.42,25.74z M56.28,55.53c0.93,0,1.86,0.06,2.78-0.01
		c1.93-0.15,3.58-1.01,4.82-2.46c0.91-1.07,1.83-2.13,2.47-3.44c0.72-1.46,1.29-2.9,1.4-4.55c0.14-2.1-0.36-4.05-1.06-5.97
		c-0.34-0.92-0.72-1.88-1.32-2.64c-1.07-1.36-2.25-2.64-3.49-3.84c-1.27-1.23-2.78-2.06-4.64-2.01c-0.62,0.02-1.24-0.06-1.85-0.12
		c-1.86-0.18-3.54,0.35-5.18,1.16c-1.79,0.88-2.93,2.37-4.11,3.91c-2.42,3.18-2.75,6.8-2.57,10.57c0.03,0.66,0.31,1.32,0.54,1.96
		c0.57,1.53,1.51,2.86,2.55,4.07c1.04,1.22,2.41,2.18,3.98,2.63C52.44,55.32,54.33,55.7,56.28,55.53z"/>
	<path class="st72" d="M53.43,22.57c-0.4-0.16-0.59-0.19-0.73-0.3c-1.1-0.81-2.27-1.41-3.65-1.68c-1.21-0.23-1.8-1.15-1.91-2.42
		c-0.3-3.56,1.93-6.58,5.61-7.72c1.47-0.46,2.8-0.22,4.13,0.34c2.41,1.03,4.38,2.52,5.18,5.18c0.77,2.56,0.03,4.74-1.59,6.7
		c-0.56,0.68-1.6,0.58-2.05-0.19c-0.37-0.64-0.64-1.34-0.87-2.04c-0.33-1.03-1.08-1.46-2.07-1.57c-1.15-0.13-1.77,0.34-1.9,1.49
		c-0.04,0.37,0,0.74-0.02,1.11C53.53,21.79,53.48,22.09,53.43,22.57z"/>
	<path d="M56.28,55.53c-1.94,0.16-3.83-0.21-5.67-0.74c-1.56-0.45-2.93-1.41-3.98-2.63c-1.04-1.21-1.98-2.54-2.55-4.07
		c-0.24-0.63-0.51-1.3-0.54-1.96c-0.18-3.76,0.15-7.39,2.57-10.57c1.18-1.54,2.32-3.03,4.11-3.91c1.64-0.81,3.32-1.34,5.18-1.16
		c0.62,0.06,1.24,0.14,1.85,0.12c1.86-0.05,3.37,0.78,4.64,2.01c1.24,1.2,2.43,2.48,3.49,3.84c0.6,0.76,0.98,1.72,1.32,2.64
		c0.7,1.92,1.2,3.88,1.06,5.97c-0.11,1.65-0.69,3.08-1.4,4.55c-0.64,1.31-1.56,2.38-2.47,3.44c-1.24,1.45-2.88,2.31-4.82,2.46
		C58.13,55.59,57.2,55.53,56.28,55.53z M56.27,54.55c3.11,0.07,5.42-0.67,7.17-2.65c1.1-1.25,2.03-2.67,2.59-4.26
		c0.38-1.1,0.54-2.27,0.8-3.41c-0.48-1.85-0.72-3.76-1.63-5.49c-1.2-2.3-2.99-4.06-4.92-5.72c-0.67-0.58-1.48-0.92-2.34-1.07
		c-1.03-0.18-2.08-0.25-3.11-0.42c-0.9-0.15-1.7,0.07-2.52,0.42c-1.91,0.82-3.49,2.02-4.84,3.64c-2.1,2.52-2.9,5.42-2.84,8.59
		c0.04,2.23,0.93,4.25,2.18,6.04c1.06,1.52,2.46,2.84,4.32,3.33C52.98,54.03,54.89,54.28,56.27,54.55z"/>
	<path class="st73" d="M50.35,18.84c0,0,1.42-6.08,6.83-6.42C57.18,12.42,47.52,8.66,50.35,18.84z"/>
	<path class="st74" d="M58.41,22.5c0,0,3.93-5.86,1.86-11.11c0,0,2.88,1.74,3.39,7.78c0,0,2.91,3.07-0.91,5.46
		c0,0,15.09,8.1,11.25,22.74S60.89,60.05,60.89,60.05s12.14-7.71,10.17-17.24s-11.6-15.85-11.6-15.85S55.12,24.24,58.41,22.5z"/>
</g>
</svg>
