<svg enable-background="new 0 0 113.39 70.87" viewBox="0 0 113.39 70.87" xmlns="http://www.w3.org/2000/svg"><path d="m19.36 42.87c-.44.34-.87.67-1.31 1.01-2.29 1.77-3.88 1.62-6.21.42-1.28-.66-1.43-1.19-.83-2.54.35-.8.86-1.52 1.28-2.29.37-.67.7-1.36.79-2.26-1.21.81-2.38 1.69-3.64 2.41-2.22 1.29-3.95 1.06-5.95-.5-1.48-1.15-1.66-2.69-1.36-4.31.09-.48.77-.94 1.28-1.24 3.02-1.79 6.1-3.49 9.09-5.33 1.7-1.04 3.34-2.21 4.85-3.5.75-.64 1.23-1.64 1.68-2.56.67-1.36 1.17-2.8 1.82-4.17 1.27-2.68 3.39-4.65 5.73-6.32.83-.59 2.18-.9 3.18-.71 1.72.33 2.94-.38 4.19-1.23 1.36-.92 2.81-1.44 4.47-1.49 1.33-.04 2.23.4 3.03 1.49 2.46 3.37 4.57 6.93 6.31 10.71.37.8.86 1.54 1.17 2.36.37.97 1.03 1.3 2.01 1.38 2.58.19 4.71 1.25 6.23 3.66.27-.56.44-.99.68-1.37 1.14-1.81 2.48-3.38 4.87-3.37.77 0 1.17-.35 1.49-.97.51-1 .99-2.01 1.56-2.97 1.74-2.95 3.54-5.86 5.28-8.82.74-1.25 1.75-1.69 3.19-1.63 1.58.07 2.97.53 4.26 1.4 1.33.91 2.61 1.6 4.4 1.31 1.59-.26 3.04.48 4.33 1.62 2.76 2.45 4.76 5.38 5.97 8.83.66 1.89 1.72 3.38 3.44 4.44 4.01 2.45 7.98 4.98 12.02 7.39 1.91 1.14 2.59 2.87 1.42 4.7-1.34 2.09-3.98 3.39-6.65 1.88-1.3-.74-2.51-1.65-4.2-2.76.4.99.61 1.63.91 2.21.4.78.93 1.49 1.3 2.28.76 1.62.5 2.26-1.12 3.01-2.07.96-4.02.84-5.81-.68-.42-.36-.87-.67-1.31-1.01-.02-.24.01-.49-.06-.71-.92-2.87-1.85-5.73-2.79-8.59-.62-1.89-1.25-3.77-1.91-5.64-.13-.36-.36-.74-.66-.96-1.39-1.06-2.79-2.11-4.26-3.07-.37-.24-.98-.13-1.58-.19.13.36.14.53.24.65 3.62 4.4 6.17 9.41 8.53 14.55.64 1.4 1.68 2.62 2.54 3.92.75 2.42 2.47 4.24 3.97 6.16 1.41 1.81 3.11 3.41 4.76 5.01 1.77 1.72 1.69 3.31-.38 4.69-1.98 1.33-4.3 1.31-6.26-.11-2.05-1.48-3.58-3.45-4.7-5.67-3.19-6.34-6.64-12.53-10.41-18.55-.63-1.01-1.07-2.14-1.73-3.12-.66-.99-1.06-.98-1.92-.22-.3.27-.54.59-.83.86-1.25 1.2-1.63 2.32-.72 4.12 1.69 3.34 1.29 6.86-.42 10.13-2.09 4-5.07 7.25-9.31 8.94-7.82 3.14-15.59 3.42-22.8-1.64-3.46-2.43-5.42-5.89-5.95-10.22-.39-3.2.02-6.17 1.41-9.02.3-.61.25-1.02-.17-1.49-.58-.66-1.09-1.39-1.7-2.01-1-1.01-1.45-1-2.22.26-1.86 3.06-3.66 6.16-5.39 9.29-2.16 3.9-4.22 7.85-6.34 11.76-1.26 2.33-2.77 4.49-4.95 6.07-2.03 1.48-4.44 1.45-6.46-.02-1.81-1.32-2.03-2.99-.33-4.36 2.45-1.99 4.39-4.4 6.21-6.91 1.01-1.39 1.79-2.96 2.67-4.45.29-.26.67-.46.84-.78.78-1.47 1.52-2.96 2.25-4.45 2.36-4.77 4.79-9.49 8.54-14.07-1.03.23-1.64.24-2.12.5-.97.54-1.88 1.2-2.79 1.84-1.21.85-1.99 1.92-2.4 3.42-.89 3.29-1.96 6.53-2.98 9.79-.36 1.29-.82 2.55-1.26 3.81zm50.84-17.82c.15-.32.31-.64.46-.96.61-.48 1.27-.91 1.82-1.44 1.71-1.67 3.34-3.43 5.09-5.05 1.47-1.35 3.11-2.25 5.19-1.1.37.2 1.1.13 1.47-.12.72-.47 1.23-2.27.8-2.81-.29-.38-.93-.71-1.39-.69-2.82.1-5.65.57-7.72 2.57-2.47 2.38-4.02 5.46-5.22 8.67-.15.33-.3.65-.46.98-.06.01-.13.02-.19.05-.03.02-.04.08-.06.12.08-.08.15-.15.21-.22zm-27.83-.48c.03.06.05.12.09.17.02.03.08.02.12.04-.08-.05-.17-.1-.25-.16-.15-.33-.3-.66-.45-.98-1.17-2.23-2.3-4.48-3.54-6.68-1.85-3.28-5.14-4.04-8.47-4.56-.74-.11-2.14.29-2.24.69-.19.8.21 1.82.59 2.64.13.29 1.07.55 1.38.37 2.37-1.34 4.12-.24 5.76 1.34 1.6 1.55 3.15 3.16 4.75 4.72.55.53 1.21.96 1.82 1.44.14.33.29.65.44.97zm49.46-2.41c.01.07 0 .15.03.22.02.04.1.04.15.06-.07-.08-.15-.16-.22-.24-.55-3.27-2.42-5.65-5.01-7.82-.63 1.28-1.11 2.27-1.63 3.33 1.76 1.32 3.47 2.6 5.19 3.87.32.23.67.42 1.02.59.13.06.32 0 .47-.01zm-71.08-.47c2.67-.8 4.25-3.19 6.78-4.32-.65-1.25-1.18-2.27-1.84-3.55-2.38 2.39-4.43 4.64-4.9 7.91-.07.03-.15.04-.2.08-.03.02-.02.1-.02.16.06-.1.12-.19.18-.28zm1.47 7.74c-2.62 1.29-4.53 3.47-6.68 5.35-.17.15-.3.38-.4.59-.94 2.02-1.85 4.05-2.79 6.07-.44.94-.13 1.48.77 1.88 2.22.98 4.82-.08 5.74-2.75 1.27-3.67 2.22-7.45 3.31-11.18.05-.04.09-.09.14-.13-.03.05-.06.11-.09.17zm68.14.47c-.05-.04-.09-.09-.14-.13.06.03.12.05.19.08.59 2.14 1.16 4.28 1.77 6.41.46 1.6.95 3.2 1.5 4.78.76 2.19 3.52 3.81 5.55 2.83 1.26-.61 1.46-.89.88-2.17-.88-1.96-1.78-3.91-2.68-5.86-.1-.21-.22-.44-.4-.59-2.14-1.87-4.06-4.04-6.67-5.35zm-45.12-1.37c-.44.09-.73.07-.88.2-.72.63-1.48 1.24-2.09 1.97-3.46 4.1-5.73 8.56-4.26 14.18.98 3.73 2.92 6.83 6.29 8.66 4.38 2.37 8.96 3.79 14.18 2.85 6.51-1.18 11.73-3.94 14.8-10.01 1.05-2.07 1.85-4.2 1.48-6.62-.6-3.86-2.87-6.64-5.66-9.11-.27-.24-.68-.34-1.06-.51-.73 2.46-1.21 5.01-4.12 5.73-2.82.69-5.16-.12-6.98-2.66-1.59 2.75-3.72 4.23-6.92 3.93-3.16-.29-4.76-1.54-4.77-4.74-.01-1.26-.01-2.52-.01-3.87zm47.45 1.4c.48.36 1.08.77 1.63 1.23 2.24 1.92 4.44 3.89 6.7 5.78.79.66 1.68 1.24 2.6 1.69 1.85.91 4 .51 5.03-.83.85-1.1.67-2.12-.42-2.8-3.98-2.5-7.96-5.02-11.94-7.52-.57-.36-1.17-.66-1.72-.97-.62 1.15-1.15 2.11-1.88 3.42zm-74.74-3.97c-.38.24-.64.41-.9.57-4.25 2.67-8.5 5.35-12.75 8.02-.88.55-1.2 1.57-.62 2.44.59.89 1.39 1.46 2.54 1.59 2.31.26 3.96-.95 5.56-2.32 1.52-1.29 3-2.62 4.5-3.94 1.19-1.04 2.37-2.09 3.51-3.09-.65-1.15-1.19-2.11-1.84-3.27zm71.46 22.43c1.23 2.15 2.42 4.48 3.86 6.65.77 1.16 1.89 2.14 2.98 3.03 1.31 1.07 3.62.85 4.85-.29.6-.55.88-1.17.37-1.89-.73-1.04-1.48-2.07-2.27-3.07-1.74-2.17-3.52-4.31-5.29-6.46-.33-.4-.66-.78-.97-1.14-1.18 1.06-2.23 2-3.53 3.17zm-69.77-3.64c-.22.2-.48.38-.67.62-1.95 2.41-3.9 4.81-5.83 7.23-.69.87-1.33 1.79-1.97 2.7-.58.82-.3 1.48.4 2.08 1.3 1.1 3.46 1.2 4.87.16 3.43-2.52 5.03-6.22 6.58-9.78-1.22-1.09-2.27-2.02-3.38-3.01zm28.31-17.7c-1.55 2.02-1.96 3.41-1.66 5.23.42 2.56 2 3.88 4.61 3.86 3.58-.03 6.31-4.1 5.04-7.48-.58-1.54-1.51-2.51-3.44-2.38.12.75.3 1.36.3 1.96 0 1.1-.97 2.31-1.9 2.49-.87.17-1.86-.5-2.33-1.66-.23-.57-.37-1.19-.62-2.02zm-8.69 5.15c1.53-1.6 1.53-1.6.67-3.25-.89-1.72-2.06-3.21-3.67-4.31-2.07-1.41-3.74-1.11-5.3.95-.81 1.08-1.62 2.16-2.37 3.28-.33.48-.85 1.24-.68 1.57.41.8 1.06 1.57 1.81 2.09.81.56 1.69.34 2.21-.62.37-.7.67-1.44 1.08-2.11.98-1.63 1.44-1.76 2.98-.59 1.11.86 2.1 1.91 3.27 2.99zm34.07.33c.36-.28.74-.55 1.09-.85.91-.77 1.79-1.57 2.72-2.31.86-.68 1.62-.57 2.16.44.45.84.84 1.71 1.33 2.53.65 1.07 1.52 1.22 2.64.51 1.24-.78 1.77-2.03 1.18-2.9-1-1.44-1.91-2.97-3.11-4.24-1.46-1.54-2.96-1.99-4.63-.85-1.77 1.2-3.11 2.71-4.08 4.59-.78 1.53-.77 1.53.7 3.08zm-8.53-7.27c-1.95 2.3-2.32 2.39-4.74 1.49-.28-.1-.93.04-.97.19-.41 1.49-1.14 3.04-1 4.5.24 2.47 2.01 3.44 4.92 3.25 2.38-.15 4.48-3.14 3.68-5.37-.48-1.31-1.18-2.56-1.89-4.06zm17.41 9.78c.19.44.35.97.62 1.43 1.6 2.75 3.24 5.48 4.84 8.24 1.06 1.82 1.65 1.91 3.19.41 1.19-1.16 1.18-1.35.32-2.83-.64-1.09-1.2-2.24-1.77-3.37-1.16-2.3-2.3-4.62-3.37-6.76-1.35 1.02-2.53 1.91-3.83 2.88zm-55.61-3.3c-1.88 3.56-3.82 7.2-5.72 10.87-.15.29-.1.82.08 1.1.34.52.81.99 1.3 1.38 1.21.98 1.62.89 2.4-.44 1.13-1.92 2.27-3.84 3.38-5.77.82-1.43 1.61-2.88 2.38-4.28-1.33-1-2.52-1.89-3.82-2.86zm17.58-4.77c.91-.2 1.44-.29 1.95-.42 1.82-.47 2.3-1.21 1.53-2.88-1.33-2.89-2.8-5.71-4.25-8.54-.29-.56-.73-1.04-1.14-1.53-.43-.53-.92-.5-1.47-.13-1.46.99-1.67 2.02-.73 3.65 1.11 1.93 2.21 3.87 3.29 5.82.67 1.19 1.82 2.24.82 4.03zm24.24.73c-.92-2.05.19-3.19.87-4.44 1.06-1.95 2.18-3.87 3.29-5.81.87-1.52.55-2.74-.94-3.58-.79-.44-1.31-.19-2.32 1.44-.92 1.48-1.66 3.07-2.55 4.58-1.18 2-2.06 3.96-.07 6 .26.27.3.74.53 1.05.15.21.47.31 1.19.76zm12.5-10.34c-1.82.12-2.82 1.41-3.84 2.63-.13.15-.13.46-.09.68.21 1.3 2.48 2.89 3.64 2.26 1.91-1.05 3.31-.45 4.77.73.69.56 1.43.72 2.11-.06.65-.75.76-2.04-.01-2.58-1.82-1.27-3.75-2.38-5.65-3.52-.27-.16-.64-.1-.93-.14zm-45.29 2.74c-.01-.16 0-.32-.05-.47-.57-1.76-3.53-3.32-5.14-2.51-1.77.89-3.44 1.99-5.07 3.13-.96.67-1.03 1.83-.39 2.74.58.83 1.18.84 2.44-.04 1.37-.96 2.66-1.51 4.39-.57 1.28.7 3.67-.91 3.82-2.28zm43.09-8.02c-2.63-2.72-5.44-2.62-6.84-.04.96.81 1.86 1.55 2.79 2.33 1-.57 2.52-1.43 4.05-2.29zm-40.28 2.1c-.31-.26-.61-.51-.92-.77 1.14-.57 2.27-1.15 3.39-1.71-1.92-2.7-4.49-2.71-7.05-.1 1.53.85 3.05 1.72 4.58 2.58zm-13.89 10.92c-.52-.9-1.06-1.83-1.66-2.87-.99.71-1.99 1.36-2.9 2.11-.88.72-.85 1.96-.03 2.95.71.85 1.29.82 2.38-.15.71-.64 1.4-1.29 2.21-2.04zm63.46.46c.97.89 1.8 1.74 2.73 2.47.3.23.92.34 1.26.19 1.37-.6 1.62-2.58.46-3.51-.89-.71-1.86-1.32-2.77-1.96-.62 1.02-1.1 1.83-1.68 2.81zm-46.22 3.61c.93-.54 1.35-1.2.58-2.12-1.68-2-3.39-3.98-5.1-5.95-.08-.09-.28-.09-.49-.14-.34.48-.69.99-1.03 1.47 1.16 1.03 2.33 1.89 3.27 2.94.99 1.11 1.77 2.41 2.77 3.8zm29.21.6c1.24-2.97 3.45-4.99 5.92-6.84-.48-.61-.86-1.09-1.34-1.71-1.37 1.44-2.66 2.73-3.87 4.09-.58.65-.97 1.46-1.48 2.16-.69.93-.43 1.6.77 2.3zm-9.11-5.57c-.19.12-.38.24-.57.36-.15.31-.4.62-.4.93 0 .18.49.54.63.49.3-.12.7-.43.74-.7.03-.34-.25-.72-.4-1.08zm-12.02 2.55c-.32.35-.71.64-.67.75.12.31.4.6.69.79.07.05.62-.37.6-.52-.05-.3-.33-.58-.62-1.02z" fill="#252723"/><path d="m45.24 28.53v3.86c.01 3.2 1.62 4.45 4.77 4.74 3.2.29 5.32-1.18 6.92-3.93 1.82 2.54 4.16 3.35 6.98 2.66 2.9-.72 3.39-3.27 4.12-5.73.38.18.79.27 1.06.51 2.79 2.47 5.07 5.25 5.66 9.11.37 2.42-.43 4.56-1.48 6.62-3.07 6.07-8.28 8.83-14.8 10.01-5.22.94-9.8-.47-14.18-2.85-3.37-1.83-5.31-4.93-6.29-8.66-1.47-5.62.8-10.08 4.26-14.18.61-.73 1.37-1.34 2.09-1.97.16-.12.45-.09.89-.19zm15.35 16.75-.07-.15.12.11c-.06 1.47 1.39 1.53 2.15 2.18-2.83 5.92-6.19 6.86-11.56 3.6 1.3 3.25 6.33 4.26 9.12 1.84 1.08-.93 2.15-1.97 2.89-3.16.77-1.24 1.59-2.26 2.85-3.06 1.54-.98 1.61-1.43 1.4-3.15-1.33 2.62-3.41 2.77-5.76 2.05-.36-.12-.75-.18-1.14-.26z" fill="#7e7b9b"/><path d="m92.69 29.93c.73-1.32 1.26-2.28 1.89-3.41.54.31 1.15.61 1.72.97 3.98 2.5 7.95 5.02 11.94 7.52 1.09.69 1.26 1.71.42 2.8-1.03 1.34-3.18 1.74-5.03.83-.92-.45-1.81-1.03-2.6-1.69-2.26-1.89-4.46-3.86-6.7-5.78-.55-.47-1.15-.87-1.64-1.24z" fill="#7e7b9b"/><path d="m17.95 25.96c.65 1.17 1.19 2.13 1.84 3.28-1.14 1-2.33 2.05-3.51 3.09-1.5 1.32-2.98 2.64-4.5 3.94-1.6 1.36-3.25 2.58-5.56 2.32-1.15-.13-1.96-.7-2.54-1.59-.58-.87-.26-1.89.62-2.44 4.25-2.67 8.5-5.35 12.75-8.02.26-.18.52-.34.9-.58z" fill="#7e7b9b"/><path d="m89.41 48.39c1.3-1.17 2.34-2.1 3.52-3.17.31.36.64.75.97 1.14 1.77 2.15 3.55 4.29 5.29 6.46.8.99 1.54 2.02 2.27 3.07.51.73.23 1.34-.37 1.89-1.23 1.14-3.54 1.36-4.85.29-1.09-.89-2.21-1.87-2.98-3.03-1.43-2.17-2.62-4.51-3.85-6.65z" fill="#7e7b9b"/><path d="m19.64 44.75c1.11.99 2.16 1.93 3.37 3.01-1.55 3.56-3.15 7.26-6.58 9.78-1.41 1.04-3.57.94-4.87-.16-.7-.59-.98-1.26-.4-2.08.64-.91 1.28-1.82 1.97-2.7 1.93-2.42 3.88-4.83 5.83-7.23.2-.24.45-.42.68-.62z" fill="#7e7b9b"/><path d="m47.95 27.05c.25.82.39 1.44.63 2.03.47 1.15 1.45 1.83 2.33 1.66.92-.18 1.9-1.39 1.9-2.49 0-.61-.18-1.21-.3-1.96 1.93-.13 2.86.83 3.44 2.38 1.27 3.38-1.47 7.45-5.04 7.48-2.61.02-4.19-1.3-4.61-3.86-.32-1.83.1-3.22 1.65-5.24z" fill="#fbeb2a"/><path d="m90.36 29.9c2.61 1.31 4.53 3.47 6.68 5.35.17.15.3.38.4.59.9 1.95 1.79 3.9 2.68 5.86.58 1.28.38 1.56-.88 2.17-2.03.97-4.8-.64-5.55-2.83-.54-1.58-1.03-3.18-1.5-4.78-.62-2.13-1.19-4.27-1.77-6.41z" fill="#7e7b9b"/><path d="m22.17 29.38c-1.09 3.73-2.05 7.51-3.31 11.18-.92 2.67-3.52 3.73-5.74 2.75-.9-.4-1.21-.94-.77-1.88.95-2.02 1.86-4.05 2.79-6.07.1-.21.23-.44.4-.59 2.15-1.88 4.06-4.05 6.68-5.35z" fill="#7e7b9b"/><path d="m39.26 32.2c-1.17-1.08-2.16-2.13-3.29-2.99-1.54-1.17-2-1.04-2.98.59-.41.67-.7 1.42-1.08 2.11-.52.96-1.4 1.18-2.21.62-.74-.52-1.4-1.29-1.81-2.09-.17-.33.36-1.09.68-1.57.75-1.12 1.56-2.2 2.37-3.28 1.55-2.06 3.23-2.36 5.3-.95 1.61 1.1 2.78 2.58 3.67 4.31.88 1.65.89 1.65-.65 3.25z" fill="#7e7b9b"/><path d="m73.33 32.53c-1.47-1.54-1.48-1.55-.7-3.07.96-1.88 2.31-3.39 4.08-4.59 1.67-1.14 3.17-.69 4.63.85 1.19 1.26 2.11 2.79 3.11 4.24.6.87.06 2.12-1.18 2.9-1.12.71-1.99.57-2.64-.51-.49-.81-.88-1.69-1.33-2.53-.54-1.01-1.31-1.12-2.16-.44-.93.74-1.81 1.54-2.72 2.31-.36.29-.73.56-1.09.84z" fill="#7e7b9b"/><path d="m64.8 25.26c.7 1.5 1.41 2.74 1.89 4.07.8 2.23-1.3 5.21-3.68 5.37-2.91.19-4.68-.78-4.92-3.25-.14-1.46.58-3.01 1-4.5.04-.15.69-.29.97-.19 2.42.89 2.79.8 4.74-1.5z" fill="#fbeb2a"/><path d="m82.21 35.04c1.29-.97 2.48-1.86 3.84-2.87 1.07 2.14 2.21 4.45 3.37 6.76.57 1.13 1.13 2.27 1.77 3.37.86 1.48.87 1.67-.32 2.83-1.54 1.5-2.14 1.41-3.19-.41-1.6-2.75-3.24-5.48-4.84-8.24-.27-.47-.44-1-.63-1.44z" fill="#c3aac5"/><path d="m26.6 31.74c1.3.97 2.48 1.86 3.83 2.86-.78 1.4-1.56 2.85-2.38 4.28-1.11 1.93-2.25 3.85-3.38 5.77-.79 1.33-1.19 1.42-2.4.44-.49-.4-.95-.86-1.3-1.38-.18-.27-.22-.81-.08-1.1 1.89-3.67 3.83-7.31 5.71-10.87z" fill="#c3aac5"/><path d="m44.18 26.97c.99-1.8-.16-2.85-.81-4.03-1.08-1.95-2.17-3.89-3.29-5.82-.94-1.63-.73-2.66.73-3.65.55-.37 1.04-.4 1.47.13.4.49.85.97 1.14 1.53 1.45 2.83 2.91 5.66 4.25 8.54.77 1.67.3 2.42-1.53 2.88-.52.13-1.05.23-1.96.42z" fill="#7e7b9b"/><path d="m68.42 27.7c-.73-.45-1.04-.54-1.2-.76-.23-.31-.27-.79-.53-1.05-1.99-2.04-1.11-4 .07-6 .89-1.5 1.63-3.09 2.55-4.58 1-1.62 1.53-1.88 2.32-1.44 1.49.84 1.81 2.06.94 3.58-1.1 1.93-2.23 3.85-3.29 5.81-.67 1.25-1.78 2.39-.86 4.44z" fill="#7e7b9b"/><path d="m80.92 17.36c.29.03.66-.02.91.13 1.91 1.14 3.84 2.25 5.65 3.52.78.54.66 1.83.01 2.58-.67.79-1.42.62-2.11.06-1.46-1.18-2.86-1.78-4.77-.73-1.16.64-3.42-.95-3.64-2.26-.04-.22-.03-.53.09-.68 1.04-1.21 2.04-2.49 3.86-2.62z" fill="#c3aac5"/><path d="m35.63 20.1c-.14 1.37-2.54 2.98-3.81 2.28-1.73-.94-3.01-.39-4.39.57-1.26.88-1.86.86-2.44.04-.64-.91-.58-2.07.39-2.74 1.63-1.14 3.3-2.24 5.07-3.13 1.61-.81 4.56.75 5.14 2.51.04.15.02.31.04.47z" fill="#c3aac5"/><path d="m70.71 24.12c1.2-3.22 2.75-6.29 5.22-8.67 2.07-2 4.91-2.47 7.72-2.57.47-.02 1.1.32 1.39.69.42.54-.08 2.34-.8 2.81-.37.24-1.1.32-1.47.12-2.09-1.15-3.72-.25-5.19 1.1-1.76 1.62-3.38 3.38-5.09 5.05-.55.54-1.21.97-1.82 1.44z" fill="#7e7b9b"/><path d="m41.92 23.61c-.61-.48-1.26-.91-1.82-1.44-1.6-1.55-3.14-3.17-4.75-4.72-1.63-1.58-3.39-2.68-5.76-1.34-.31.18-1.25-.08-1.38-.37-.38-.82-.78-1.84-.59-2.64.1-.4 1.51-.8 2.24-.69 3.33.52 6.63 1.27 8.47 4.56 1.23 2.19 2.36 4.45 3.54 6.68z" fill="#7e7b9b"/><path d="m20.79 21.72c.47-3.27 2.52-5.52 4.9-7.91.66 1.28 1.19 2.3 1.84 3.55-2.53 1.13-4.11 3.52-6.78 4.32z" fill="#c3aac5"/><path d="m91.83 22.16c-.16 0-.34.06-.47 0-.36-.17-.71-.36-1.02-.59-1.72-1.27-3.43-2.55-5.19-3.87.52-1.06 1-2.05 1.63-3.33 2.59 2.17 4.45 4.55 5.01 7.82z" fill="#c3aac5"/><path d="m78.72 12.08c-1.52.86-3.05 1.72-4.05 2.29-.93-.78-1.82-1.52-2.79-2.33 1.39-2.58 4.2-2.68 6.84.04z" fill="#c3aac5"/><path d="m38.44 14.18c-1.53-.86-3.05-1.73-4.58-2.59 2.56-2.6 5.13-2.59 7.05.1-1.12.56-2.25 1.14-3.39 1.71.31.27.61.52.92.78z" fill="#c3aac5"/><path d="m24.55 25.1c-.81.74-1.49 1.4-2.2 2.03-1.09.97-1.67 1-2.38.15-.83-.99-.86-2.23.03-2.95.91-.75 1.91-1.39 2.9-2.11.59 1.05 1.13 1.98 1.65 2.88z" fill="#584d73"/><path d="m88.01 25.56c.58-.97 1.06-1.78 1.67-2.81.92.64 1.88 1.25 2.77 1.96 1.16.93.92 2.9-.46 3.51-.34.15-.96.04-1.26-.19-.92-.73-1.75-1.58-2.72-2.47z" fill="#584d73"/><path d="m41.79 29.17c-1-1.39-1.78-2.69-2.77-3.8-.94-1.05-2.1-1.91-3.27-2.94.34-.49.69-.99 1.03-1.47.21.06.41.05.49.14 1.71 1.97 3.43 3.95 5.1 5.95.77.91.35 1.58-.58 2.12z" fill="#7e7b9b"/><path d="m71 29.77c-1.2-.7-1.46-1.36-.78-2.3.52-.71.91-1.51 1.48-2.16 1.21-1.36 2.5-2.65 3.87-4.09.49.62.86 1.09 1.34 1.71-2.46 1.84-4.67 3.87-5.91 6.84z" fill="#7e7b9b"/><g fill="#fff"><path d="m61.89 24.2c.15.36.44.73.39 1.07-.04.27-.43.58-.74.7-.14.05-.63-.31-.63-.49 0-.31.25-.62.4-.93.2-.11.39-.23.58-.35z"/><path d="m49.87 26.75c.28.44.57.71.62 1.02.02.15-.53.56-.6.52-.29-.18-.56-.47-.69-.79-.04-.11.35-.4.67-.75z"/><path d="m42.37 24.57c-.15-.32-.3-.65-.45-.97l-.04.03c.15.33.3.66.45.98 0 .01.04-.04.04-.04z"/><path d="m70.25 25.1c.15-.33.3-.65.46-.98 0 0-.04-.04-.04-.04-.15.32-.31.64-.46.96-.01.01.04.06.04.06z"/><path d="m70.2 25.05c-.07.07-.13.14-.2.21.02-.04.03-.1.06-.12.05-.03.12-.03.19-.05z"/><path d="m91.79 22.2c.07.08.15.16.22.24-.05-.02-.13-.03-.15-.06-.03-.06-.02-.14-.03-.22z"/><path d="m22.22 29.43c.03-.06.06-.12.09-.18-.05.04-.09.09-.14.13z"/><path d="m90.41 29.86c-.06-.03-.12-.05-.19-.08.05.04.09.09.14.13z"/><path d="m20.75 21.69c-.06.09-.12.18-.18.28.01-.05-.01-.13.02-.16.05-.04.13-.06.2-.08z"/><path d="m42.33 24.62c.08.05.17.1.25.16-.04-.01-.09-.01-.12-.04-.04-.05-.06-.11-.09-.17z"/></g><path d="m60.59 45.28c.38.08.77.14 1.15.25 2.36.71 4.43.57 5.76-2.05.2 1.72.14 2.17-1.4 3.15-1.26.8-2.07 1.82-2.85 3.06-.75 1.19-1.82 2.23-2.89 3.16-2.8 2.43-7.83 1.41-9.12-1.84 5.36 3.26 8.72 2.31 11.56-3.6-.76-.66-2.21-.72-2.15-2.18z" fill="#252723"/><path d="m60.64 45.23-.12-.11.07.16z" fill="#252723"/><path d="m57.41 35.8c-3.26 3.41-9.14 3.88-12.9 1.02-2.14 2.94-2.92 6.83-2.09 10.37s3.26 6.67 6.49 8.35c-4.3-.34-8.36-2.89-10.55-6.6-2.19-3.72-2.43-8.5-.65-12.43.78-1.72 1.92-3.25 3.22-4.62 2.08-2.2 4.6-3.98 7.36-5.22-.65 1.37-1.87 2.45-2.3 3.9-.53 1.78.36 3.83 1.93 4.82 1.57 1 3.67.99 5.33.16s2.9-2.39 3.54-4.13c-.39 1.07 2.12 2.88 2.84 3.24 1.43.72 2.68.49 4.16.49-.82 2.42-4.85 2.02-6.38.65z" fill="#584d73" opacity=".58"/></svg>