<?xml version="1.0" encoding="utf-8"?>
<!-- Generator: Adobe Illustrator 24.2.1, SVG Export Plug-In . SVG Version: 6.00 Build 0)  -->
<svg version="1.1" id="Capa_1" xmlns="http://www.w3.org/2000/svg" xmlns:xlink="http://www.w3.org/1999/xlink" x="0px" y="0px"
	 viewBox="0 0 113.39 70.87" style="enable-background:new 0 0 113.39 70.87;" xml:space="preserve">
<style type="text/css">
	.st0{fill:#FCF8CA;}
	.st1{fill:#5B9991;}
	.st2{fill:#AC8E64;}
	.st3{fill:#91714C;}
	.st4{fill:#A3CAC9;}
	.st5{fill:#FFFFFF;}
	.st6{opacity:0.2;fill:#FFFFFF;}
	.st7{opacity:0.3;fill:#FFFFFF;}
	.st8{fill:#252723;}
	.st9{fill:#BE4741;stroke:#252723;stroke-width:0.75;stroke-linecap:round;stroke-linejoin:round;stroke-miterlimit:10;}
	.st10{opacity:0.2;}
	.st11{filter:url(#Adobe_OpacityMaskFilter);}
	.st12{mask:url(#SVGID_1_);}
	.st13{filter:url(#Adobe_OpacityMaskFilter_1_);}
	.st14{mask:url(#SVGID_2_);}
	.st15{opacity:0.5;}
	.st16{filter:url(#Adobe_OpacityMaskFilter_2_);}
	.st17{mask:url(#SVGID_3_);}
	.st18{filter:url(#Adobe_OpacityMaskFilter_3_);}
	.st19{mask:url(#SVGID_4_);}
	.st20{filter:url(#Adobe_OpacityMaskFilter_4_);}
	.st21{mask:url(#SVGID_5_);}
	.st22{fill:#BF5135;}
	.st23{fill:#BB3C39;}
	.st24{fill:#C46442;}
	.st25{fill:#D7E9F7;}
	.st26{fill:#C59550;}
	.st27{fill:#62452F;}
	.st28{fill:#CEAD80;}
	.st29{fill:#C4A662;}
	.st30{opacity:0.5;fill:#FFFFFF;}
	.st31{fill:#86572A;}
	.st32{fill:#ECD1B5;}
	.st33{fill:#929252;}
	.st34{fill:#D08834;}
	.st35{fill:#77A1D0;}
	.st36{fill:#C3B54E;}
	.st37{fill:#C3C7C8;}
	.st38{fill:#9F713E;}
	.st39{opacity:0.51;fill:#CA9D71;}
	.st40{fill:#50412A;}
	.st41{fill:#DAA243;}
	.st42{fill:#92B751;}
	.st43{fill:#B71C32;}
	.st44{fill:#E9C76C;}
	.st45{fill:#A16F49;}
	.st46{fill:#BA9766;}
	.st47{fill:#989DC4;}
	.st48{fill:#72A1B2;}
	.st49{fill:#C08C5B;}
	.st50{fill:#D18AA9;}
	.st51{fill:#E2B99F;}
	.st52{fill:#FBEB2A;}
	.st53{fill:#C86E94;}
	.st54{fill:#D4CEB5;}
	.st55{fill:#C4633E;}
	.st56{fill:#EBC844;}
	.st57{fill:#E4D79D;}
	.st58{fill:#65686F;}
	.st59{fill:#FBEE6F;}
	.st60{fill:#473F30;}
	.st61{fill:#904D2E;}
	.st62{fill:#962927;}
	.st63{fill:#D39182;}
	.st64{opacity:0.33;fill:#FFFFFF;}
	.st65{opacity:0.51;fill:#B8A458;}
	.st66{fill:#7E7B9B;}
	.st67{fill:#C3AAC5;}
	.st68{fill:#584D73;}
	.st69{opacity:0.58;fill:#584D73;}
	.st70{fill:#FCF72A;}
	.st71{fill:#FBC02A;}
	.st72{fill:#009FDF;}
	.st73{fill:#74B9E7;}
	.st74{opacity:0.3;}
	.st75{fill:#222221;}
</style>
<g>
	<path class="st8" d="M19.36,42.87c-0.44,0.34-0.87,0.67-1.31,1.01c-2.29,1.77-3.88,1.62-6.21,0.42c-1.28-0.66-1.43-1.19-0.83-2.54
		c0.35-0.8,0.86-1.52,1.28-2.29c0.37-0.67,0.7-1.36,0.79-2.26c-1.21,0.81-2.38,1.69-3.64,2.41c-2.22,1.29-3.95,1.06-5.95-0.5
		c-1.48-1.15-1.66-2.69-1.36-4.31c0.09-0.48,0.77-0.94,1.28-1.24c3.02-1.79,6.1-3.49,9.09-5.33c1.7-1.04,3.34-2.21,4.85-3.5
		c0.75-0.64,1.23-1.64,1.68-2.56c0.67-1.36,1.17-2.8,1.82-4.17c1.27-2.68,3.39-4.65,5.73-6.32c0.83-0.59,2.18-0.9,3.18-0.71
		c1.72,0.33,2.94-0.38,4.19-1.23c1.36-0.92,2.81-1.44,4.47-1.49c1.33-0.04,2.23,0.4,3.03,1.49c2.46,3.37,4.57,6.93,6.31,10.71
		c0.37,0.8,0.86,1.54,1.17,2.36c0.37,0.97,1.03,1.3,2.01,1.38c2.58,0.19,4.71,1.25,6.23,3.66c0.27-0.56,0.44-0.99,0.68-1.37
		c1.14-1.81,2.48-3.38,4.87-3.37c0.77,0,1.17-0.35,1.49-0.97c0.51-1,0.99-2.01,1.56-2.97c1.74-2.95,3.54-5.86,5.28-8.82
		c0.74-1.25,1.75-1.69,3.19-1.63c1.58,0.07,2.97,0.53,4.26,1.4c1.33,0.91,2.61,1.6,4.4,1.31c1.59-0.26,3.04,0.48,4.33,1.62
		c2.76,2.45,4.76,5.38,5.97,8.83c0.66,1.89,1.72,3.38,3.44,4.44c4.01,2.45,7.98,4.98,12.02,7.39c1.91,1.14,2.59,2.87,1.42,4.7
		c-1.34,2.09-3.98,3.39-6.65,1.88c-1.3-0.74-2.51-1.65-4.2-2.76c0.4,0.99,0.61,1.63,0.91,2.21c0.4,0.78,0.93,1.49,1.3,2.28
		c0.76,1.62,0.5,2.26-1.12,3.01c-2.07,0.96-4.02,0.84-5.81-0.68c-0.42-0.36-0.87-0.67-1.31-1.01c-0.02-0.24,0.01-0.49-0.06-0.71
		c-0.92-2.87-1.85-5.73-2.79-8.59c-0.62-1.89-1.25-3.77-1.91-5.64c-0.13-0.36-0.36-0.74-0.66-0.96c-1.39-1.06-2.79-2.11-4.26-3.07
		c-0.37-0.24-0.98-0.13-1.58-0.19c0.13,0.36,0.14,0.53,0.24,0.65c3.62,4.4,6.17,9.41,8.53,14.55c0.64,1.4,1.68,2.62,2.54,3.92
		c0.75,2.42,2.47,4.24,3.97,6.16c1.41,1.81,3.11,3.41,4.76,5.01c1.77,1.72,1.69,3.31-0.38,4.69c-1.98,1.33-4.3,1.31-6.26-0.11
		c-2.05-1.48-3.58-3.45-4.7-5.67c-3.19-6.34-6.64-12.53-10.41-18.55c-0.63-1.01-1.07-2.14-1.73-3.12c-0.66-0.99-1.06-0.98-1.92-0.22
		c-0.3,0.27-0.54,0.59-0.83,0.86c-1.25,1.2-1.63,2.32-0.72,4.12c1.69,3.34,1.29,6.86-0.42,10.13c-2.09,4-5.07,7.25-9.31,8.94
		c-7.82,3.14-15.59,3.42-22.8-1.64c-3.46-2.43-5.42-5.89-5.95-10.22c-0.39-3.2,0.02-6.17,1.41-9.02c0.3-0.61,0.25-1.02-0.17-1.49
		c-0.58-0.66-1.09-1.39-1.7-2.01c-1-1.01-1.45-1-2.22,0.26c-1.86,3.06-3.66,6.16-5.39,9.29c-2.16,3.9-4.22,7.85-6.34,11.76
		c-1.26,2.33-2.77,4.49-4.95,6.07c-2.03,1.48-4.44,1.45-6.46-0.02c-1.81-1.32-2.03-2.99-0.33-4.36c2.45-1.99,4.39-4.4,6.21-6.91
		c1.01-1.39,1.79-2.96,2.67-4.45c0.29-0.26,0.67-0.46,0.84-0.78c0.78-1.47,1.52-2.96,2.25-4.45c2.36-4.77,4.79-9.49,8.54-14.07
		c-1.03,0.23-1.64,0.24-2.12,0.5c-0.97,0.54-1.88,1.2-2.79,1.84c-1.21,0.85-1.99,1.92-2.4,3.42c-0.89,3.29-1.96,6.53-2.98,9.79
		C20.26,40.35,19.8,41.61,19.36,42.87z M70.2,25.05c0.15-0.32,0.31-0.64,0.46-0.96c0.61-0.48,1.27-0.91,1.82-1.44
		c1.71-1.67,3.34-3.43,5.09-5.05c1.47-1.35,3.11-2.25,5.19-1.1c0.37,0.2,1.1,0.13,1.47-0.12c0.72-0.47,1.23-2.27,0.8-2.81
		c-0.29-0.38-0.93-0.71-1.39-0.69c-2.82,0.1-5.65,0.57-7.72,2.57c-2.47,2.38-4.02,5.46-5.22,8.67c-0.15,0.33-0.3,0.65-0.46,0.98
		c-0.06,0.01-0.13,0.02-0.19,0.05c-0.03,0.02-0.04,0.08-0.06,0.12C70.07,25.19,70.14,25.12,70.2,25.05z M42.37,24.57
		c0.03,0.06,0.05,0.12,0.09,0.17c0.02,0.03,0.08,0.02,0.12,0.04c-0.08-0.05-0.17-0.1-0.25-0.16c-0.15-0.33-0.3-0.66-0.45-0.98
		c-1.17-2.23-2.3-4.48-3.54-6.68c-1.85-3.28-5.14-4.04-8.47-4.56c-0.74-0.11-2.14,0.29-2.24,0.69c-0.19,0.8,0.21,1.82,0.59,2.64
		c0.13,0.29,1.07,0.55,1.38,0.37c2.37-1.34,4.12-0.24,5.76,1.34c1.6,1.55,3.15,3.16,4.75,4.72c0.55,0.53,1.21,0.96,1.82,1.44
		C42.07,23.93,42.22,24.25,42.37,24.57z M91.83,22.16c0.01,0.07,0,0.15,0.03,0.22c0.02,0.04,0.1,0.04,0.15,0.06
		c-0.07-0.08-0.15-0.16-0.22-0.24c-0.55-3.27-2.42-5.65-5.01-7.82c-0.63,1.28-1.11,2.27-1.63,3.33c1.76,1.32,3.47,2.6,5.19,3.87
		c0.32,0.23,0.67,0.42,1.02,0.59C91.49,22.23,91.68,22.17,91.83,22.16z M20.75,21.69c2.67-0.8,4.25-3.19,6.78-4.32
		c-0.65-1.25-1.18-2.27-1.84-3.55c-2.38,2.39-4.43,4.64-4.9,7.91c-0.07,0.03-0.15,0.04-0.2,0.08c-0.03,0.02-0.02,0.1-0.02,0.16
		C20.63,21.87,20.69,21.78,20.75,21.69z M22.22,29.43c-2.62,1.29-4.53,3.47-6.68,5.35c-0.17,0.15-0.3,0.38-0.4,0.59
		c-0.94,2.02-1.85,4.05-2.79,6.07c-0.44,0.94-0.13,1.48,0.77,1.88c2.22,0.98,4.82-0.08,5.74-2.75c1.27-3.67,2.22-7.45,3.31-11.18
		c0.05-0.04,0.09-0.09,0.14-0.13C22.28,29.31,22.25,29.37,22.22,29.43z M90.36,29.9c-0.05-0.04-0.09-0.09-0.14-0.13
		c0.06,0.03,0.12,0.05,0.19,0.08c0.59,2.14,1.16,4.28,1.77,6.41c0.46,1.6,0.95,3.2,1.5,4.78c0.76,2.19,3.52,3.81,5.55,2.83
		c1.26-0.61,1.46-0.89,0.88-2.17c-0.88-1.96-1.78-3.91-2.68-5.86c-0.1-0.21-0.22-0.44-0.4-0.59C94.89,33.38,92.97,31.21,90.36,29.9z
		 M45.24,28.53c-0.44,0.09-0.73,0.07-0.88,0.2c-0.72,0.63-1.48,1.24-2.09,1.97c-3.46,4.1-5.73,8.56-4.26,14.18
		c0.98,3.73,2.92,6.83,6.29,8.66c4.38,2.37,8.96,3.79,14.18,2.85c6.51-1.18,11.73-3.94,14.8-10.01c1.05-2.07,1.85-4.2,1.48-6.62
		c-0.6-3.86-2.87-6.64-5.66-9.11c-0.27-0.24-0.68-0.34-1.06-0.51c-0.73,2.46-1.21,5.01-4.12,5.73c-2.82,0.69-5.16-0.12-6.98-2.66
		c-1.59,2.75-3.72,4.23-6.92,3.93c-3.16-0.29-4.76-1.54-4.77-4.74C45.24,31.14,45.24,29.88,45.24,28.53z M92.69,29.93
		c0.48,0.36,1.08,0.77,1.63,1.23c2.24,1.92,4.44,3.89,6.7,5.78c0.79,0.66,1.68,1.24,2.6,1.69c1.85,0.91,4,0.51,5.03-0.83
		c0.85-1.1,0.67-2.12-0.42-2.8c-3.98-2.5-7.96-5.02-11.94-7.52c-0.57-0.36-1.17-0.66-1.72-0.97C93.95,27.66,93.42,28.62,92.69,29.93
		z M17.95,25.96c-0.38,0.24-0.64,0.41-0.9,0.57c-4.25,2.67-8.5,5.35-12.75,8.02c-0.88,0.55-1.2,1.57-0.62,2.44
		c0.59,0.89,1.39,1.46,2.54,1.59c2.31,0.26,3.96-0.95,5.56-2.32c1.52-1.29,3-2.62,4.5-3.94c1.19-1.04,2.37-2.09,3.51-3.09
		C19.14,28.08,18.6,27.12,17.95,25.96z M89.41,48.39c1.23,2.15,2.42,4.48,3.86,6.65c0.77,1.16,1.89,2.14,2.98,3.03
		c1.31,1.07,3.62,0.85,4.85-0.29c0.6-0.55,0.88-1.17,0.37-1.89c-0.73-1.04-1.48-2.07-2.27-3.07c-1.74-2.17-3.52-4.31-5.29-6.46
		c-0.33-0.4-0.66-0.78-0.97-1.14C91.76,46.28,90.71,47.22,89.41,48.39z M19.64,44.75c-0.22,0.2-0.48,0.38-0.67,0.62
		c-1.95,2.41-3.9,4.81-5.83,7.23c-0.69,0.87-1.33,1.79-1.97,2.7c-0.58,0.82-0.3,1.48,0.4,2.08c1.3,1.1,3.46,1.2,4.87,0.16
		c3.43-2.52,5.03-6.22,6.58-9.78C21.8,46.67,20.75,45.74,19.64,44.75z M47.95,27.05c-1.55,2.02-1.96,3.41-1.66,5.23
		c0.42,2.56,2,3.88,4.61,3.86c3.58-0.03,6.31-4.1,5.04-7.48c-0.58-1.54-1.51-2.51-3.44-2.38c0.12,0.75,0.3,1.36,0.3,1.96
		c0,1.1-0.97,2.31-1.9,2.49c-0.87,0.17-1.86-0.5-2.33-1.66C48.34,28.5,48.2,27.88,47.95,27.05z M39.26,32.2
		c1.53-1.6,1.53-1.6,0.67-3.25c-0.89-1.72-2.06-3.21-3.67-4.31c-2.07-1.41-3.74-1.11-5.3,0.95c-0.81,1.08-1.62,2.16-2.37,3.28
		c-0.33,0.48-0.85,1.24-0.68,1.57c0.41,0.8,1.06,1.57,1.81,2.09c0.81,0.56,1.69,0.34,2.21-0.62c0.37-0.7,0.67-1.44,1.08-2.11
		c0.98-1.63,1.44-1.76,2.98-0.59C37.1,30.07,38.09,31.12,39.26,32.2z M73.33,32.53c0.36-0.28,0.74-0.55,1.09-0.85
		c0.91-0.77,1.79-1.57,2.72-2.31c0.86-0.68,1.62-0.57,2.16,0.44c0.45,0.84,0.84,1.71,1.33,2.53c0.65,1.07,1.52,1.22,2.64,0.51
		c1.24-0.78,1.77-2.03,1.18-2.9c-1-1.44-1.91-2.97-3.11-4.24c-1.46-1.54-2.96-1.99-4.63-0.85c-1.77,1.2-3.11,2.71-4.08,4.59
		C71.85,30.98,71.86,30.98,73.33,32.53z M64.8,25.26c-1.95,2.3-2.32,2.39-4.74,1.49c-0.28-0.1-0.93,0.04-0.97,0.19
		c-0.41,1.49-1.14,3.04-1,4.5c0.24,2.47,2.01,3.44,4.92,3.25c2.38-0.15,4.48-3.14,3.68-5.37C66.21,28.01,65.51,26.76,64.8,25.26z
		 M82.21,35.04c0.19,0.44,0.35,0.97,0.62,1.43c1.6,2.75,3.24,5.48,4.84,8.24c1.06,1.82,1.65,1.91,3.19,0.41
		c1.19-1.16,1.18-1.35,0.32-2.83c-0.64-1.09-1.2-2.24-1.77-3.37c-1.16-2.3-2.3-4.62-3.37-6.76C84.69,33.18,83.51,34.07,82.21,35.04z
		 M26.6,31.74c-1.88,3.56-3.82,7.2-5.72,10.87c-0.15,0.29-0.1,0.82,0.08,1.1c0.34,0.52,0.81,0.99,1.3,1.38
		c1.21,0.98,1.62,0.89,2.4-0.44c1.13-1.92,2.27-3.84,3.38-5.77c0.82-1.43,1.61-2.88,2.38-4.28C29.09,33.6,27.9,32.71,26.6,31.74z
		 M44.18,26.97c0.91-0.2,1.44-0.29,1.95-0.42c1.82-0.47,2.3-1.21,1.53-2.88c-1.33-2.89-2.8-5.71-4.25-8.54
		c-0.29-0.56-0.73-1.04-1.14-1.53c-0.43-0.53-0.92-0.5-1.47-0.13c-1.46,0.99-1.67,2.02-0.73,3.65c1.11,1.93,2.21,3.87,3.29,5.82
		C44.03,24.13,45.18,25.18,44.18,26.97z M68.42,27.7c-0.92-2.05,0.19-3.19,0.87-4.44c1.06-1.95,2.18-3.87,3.29-5.81
		c0.87-1.52,0.55-2.74-0.94-3.58c-0.79-0.44-1.31-0.19-2.32,1.44c-0.92,1.48-1.66,3.07-2.55,4.58c-1.18,2-2.06,3.96-0.07,6
		c0.26,0.27,0.3,0.74,0.53,1.05C67.38,27.15,67.7,27.25,68.42,27.7z M80.92,17.36c-1.82,0.12-2.82,1.41-3.84,2.63
		c-0.13,0.15-0.13,0.46-0.09,0.68c0.21,1.3,2.48,2.89,3.64,2.26c1.91-1.05,3.31-0.45,4.77,0.73c0.69,0.56,1.43,0.72,2.11-0.06
		c0.65-0.75,0.76-2.04-0.01-2.58c-1.82-1.27-3.75-2.38-5.65-3.52C81.58,17.34,81.21,17.4,80.92,17.36z M35.63,20.1
		c-0.01-0.16,0-0.32-0.05-0.47c-0.57-1.76-3.53-3.32-5.14-2.51c-1.77,0.89-3.44,1.99-5.07,3.13c-0.96,0.67-1.03,1.83-0.39,2.74
		c0.58,0.83,1.18,0.84,2.44-0.04c1.37-0.96,2.66-1.51,4.39-0.57C33.09,23.08,35.48,21.47,35.63,20.1z M78.72,12.08
		c-2.63-2.72-5.44-2.62-6.84-0.04c0.96,0.81,1.86,1.55,2.79,2.33C75.67,13.8,77.19,12.94,78.72,12.08z M38.44,14.18
		c-0.31-0.26-0.61-0.51-0.92-0.77c1.14-0.57,2.27-1.15,3.39-1.71c-1.92-2.7-4.49-2.71-7.05-0.1C35.39,12.45,36.91,13.32,38.44,14.18
		z M24.55,25.1c-0.52-0.9-1.06-1.83-1.66-2.87c-0.99,0.71-1.99,1.36-2.9,2.11c-0.88,0.72-0.85,1.96-0.03,2.95
		c0.71,0.85,1.29,0.82,2.38-0.15C23.05,26.5,23.74,25.85,24.55,25.1z M88.01,25.56c0.97,0.89,1.8,1.74,2.73,2.47
		c0.3,0.23,0.92,0.34,1.26,0.19c1.37-0.6,1.62-2.58,0.46-3.51c-0.89-0.71-1.86-1.32-2.77-1.96C89.07,23.77,88.59,24.58,88.01,25.56z
		 M41.79,29.17c0.93-0.54,1.35-1.2,0.58-2.12c-1.68-2-3.39-3.98-5.1-5.95c-0.08-0.09-0.28-0.09-0.49-0.14
		c-0.34,0.48-0.69,0.99-1.03,1.47c1.16,1.03,2.33,1.89,3.27,2.94C40.01,26.48,40.79,27.78,41.79,29.17z M71,29.77
		c1.24-2.97,3.45-4.99,5.92-6.84c-0.48-0.61-0.86-1.09-1.34-1.71c-1.37,1.44-2.66,2.73-3.87,4.09c-0.58,0.65-0.97,1.46-1.48,2.16
		C69.54,28.4,69.8,29.07,71,29.77z M61.89,24.2c-0.19,0.12-0.38,0.24-0.57,0.36c-0.15,0.31-0.4,0.62-0.4,0.93
		c0,0.18,0.49,0.54,0.63,0.49c0.3-0.12,0.7-0.43,0.74-0.7C62.32,24.94,62.04,24.56,61.89,24.2z M49.87,26.75
		c-0.32,0.35-0.71,0.64-0.67,0.75c0.12,0.31,0.4,0.6,0.69,0.79c0.07,0.05,0.62-0.37,0.6-0.52C50.44,27.47,50.16,27.19,49.87,26.75z"
		/>
	<path class="st66" d="M45.24,28.53c0,1.34,0,2.6,0,3.86c0.01,3.2,1.62,4.45,4.77,4.74c3.2,0.29,5.32-1.18,6.92-3.93
		c1.82,2.54,4.16,3.35,6.98,2.66c2.9-0.72,3.39-3.27,4.12-5.73c0.38,0.18,0.79,0.27,1.06,0.51c2.79,2.47,5.07,5.25,5.66,9.11
		c0.37,2.42-0.43,4.56-1.48,6.62c-3.07,6.07-8.28,8.83-14.8,10.01c-5.22,0.94-9.8-0.47-14.18-2.85c-3.37-1.83-5.31-4.93-6.29-8.66
		c-1.47-5.62,0.8-10.08,4.26-14.18c0.61-0.73,1.37-1.34,2.09-1.97C44.51,28.6,44.8,28.63,45.24,28.53z M60.59,45.28l-0.07-0.15
		l0.12,0.11c-0.06,1.47,1.39,1.53,2.15,2.18c-2.83,5.92-6.19,6.86-11.56,3.6c1.3,3.25,6.33,4.26,9.12,1.84
		c1.08-0.93,2.15-1.97,2.89-3.16c0.77-1.24,1.59-2.26,2.85-3.06c1.54-0.98,1.61-1.43,1.4-3.15c-1.33,2.62-3.41,2.77-5.76,2.05
		C61.37,45.42,60.98,45.36,60.59,45.28z"/>
	<path class="st66" d="M92.69,29.93c0.73-1.32,1.26-2.28,1.89-3.41c0.54,0.31,1.15,0.61,1.72,0.97c3.98,2.5,7.95,5.02,11.94,7.52
		c1.09,0.69,1.26,1.71,0.42,2.8c-1.03,1.34-3.18,1.74-5.03,0.83c-0.92-0.45-1.81-1.03-2.6-1.69c-2.26-1.89-4.46-3.86-6.7-5.78
		C93.78,30.7,93.18,30.3,92.69,29.93z"/>
	<path class="st66" d="M17.95,25.96c0.65,1.17,1.19,2.13,1.84,3.28c-1.14,1-2.33,2.05-3.51,3.09c-1.5,1.32-2.98,2.64-4.5,3.94
		c-1.6,1.36-3.25,2.58-5.56,2.32c-1.15-0.13-1.96-0.7-2.54-1.59c-0.58-0.87-0.26-1.89,0.62-2.44c4.25-2.67,8.5-5.35,12.75-8.02
		C17.31,26.36,17.57,26.2,17.95,25.96z"/>
	<path class="st66" d="M89.41,48.39c1.3-1.17,2.34-2.1,3.52-3.17c0.31,0.36,0.64,0.75,0.97,1.14c1.77,2.15,3.55,4.29,5.29,6.46
		c0.8,0.99,1.54,2.02,2.27,3.07c0.51,0.73,0.23,1.34-0.37,1.89c-1.23,1.14-3.54,1.36-4.85,0.29c-1.09-0.89-2.21-1.87-2.98-3.03
		C91.83,52.87,90.64,50.53,89.41,48.39z"/>
	<path class="st66" d="M19.64,44.75c1.11,0.99,2.16,1.93,3.37,3.01c-1.55,3.56-3.15,7.26-6.58,9.78c-1.41,1.04-3.57,0.94-4.87-0.16
		c-0.7-0.59-0.98-1.26-0.4-2.08c0.64-0.91,1.28-1.82,1.97-2.7c1.93-2.42,3.88-4.83,5.83-7.23C19.16,45.13,19.41,44.95,19.64,44.75z"
		/>
	<path class="st52" d="M47.95,27.05c0.25,0.82,0.39,1.44,0.63,2.03c0.47,1.15,1.45,1.83,2.33,1.66c0.92-0.18,1.9-1.39,1.9-2.49
		c0-0.61-0.18-1.21-0.3-1.96c1.93-0.13,2.86,0.83,3.44,2.38c1.27,3.38-1.47,7.45-5.04,7.48c-2.61,0.02-4.19-1.3-4.61-3.86
		C45.98,30.46,46.4,29.07,47.95,27.05z"/>
	<path class="st66" d="M90.36,29.9c2.61,1.31,4.53,3.47,6.68,5.35c0.17,0.15,0.3,0.38,0.4,0.59c0.9,1.95,1.79,3.9,2.68,5.86
		c0.58,1.28,0.38,1.56-0.88,2.17c-2.03,0.97-4.8-0.64-5.55-2.83c-0.54-1.58-1.03-3.18-1.5-4.78c-0.62-2.13-1.19-4.27-1.77-6.41
		L90.36,29.9z"/>
	<path class="st66" d="M22.17,29.38c-1.09,3.73-2.05,7.51-3.31,11.18c-0.92,2.67-3.52,3.73-5.74,2.75c-0.9-0.4-1.21-0.94-0.77-1.88
		c0.95-2.02,1.86-4.05,2.79-6.07c0.1-0.21,0.23-0.44,0.4-0.59c2.15-1.88,4.06-4.05,6.68-5.35L22.17,29.38z"/>
	<path class="st66" d="M39.26,32.2c-1.17-1.08-2.16-2.13-3.29-2.99c-1.54-1.17-2-1.04-2.98,0.59c-0.41,0.67-0.7,1.42-1.08,2.11
		c-0.52,0.96-1.4,1.18-2.21,0.62c-0.74-0.52-1.4-1.29-1.81-2.09c-0.17-0.33,0.36-1.09,0.68-1.57c0.75-1.12,1.56-2.2,2.37-3.28
		c1.55-2.06,3.23-2.36,5.3-0.95c1.61,1.1,2.78,2.58,3.67,4.31C40.79,30.6,40.8,30.6,39.26,32.2z"/>
	<path class="st66" d="M73.33,32.53c-1.47-1.54-1.48-1.55-0.7-3.07c0.96-1.88,2.31-3.39,4.08-4.59c1.67-1.14,3.17-0.69,4.63,0.85
		c1.19,1.26,2.11,2.79,3.11,4.24c0.6,0.87,0.06,2.12-1.18,2.9c-1.12,0.71-1.99,0.57-2.64-0.51c-0.49-0.81-0.88-1.69-1.33-2.53
		c-0.54-1.01-1.31-1.12-2.16-0.44c-0.93,0.74-1.81,1.54-2.72,2.31C74.06,31.98,73.69,32.25,73.33,32.53z"/>
	<path class="st52" d="M64.8,25.26c0.7,1.5,1.41,2.74,1.89,4.07c0.8,2.23-1.3,5.21-3.68,5.37c-2.91,0.19-4.68-0.78-4.92-3.25
		c-0.14-1.46,0.58-3.01,1-4.5c0.04-0.15,0.69-0.29,0.97-0.19C62.48,27.65,62.85,27.56,64.8,25.26z"/>
	<path class="st67" d="M82.21,35.04c1.29-0.97,2.48-1.86,3.84-2.87c1.07,2.14,2.21,4.45,3.37,6.76c0.57,1.13,1.13,2.27,1.77,3.37
		c0.86,1.48,0.87,1.67-0.32,2.83c-1.54,1.5-2.14,1.41-3.19-0.41c-1.6-2.75-3.24-5.48-4.84-8.24C82.57,36.01,82.4,35.48,82.21,35.04z
		"/>
	<path class="st67" d="M26.6,31.74c1.3,0.97,2.48,1.86,3.83,2.86c-0.78,1.4-1.56,2.85-2.38,4.28c-1.11,1.93-2.25,3.85-3.38,5.77
		c-0.79,1.33-1.19,1.42-2.4,0.44c-0.49-0.4-0.95-0.86-1.3-1.38c-0.18-0.27-0.22-0.81-0.08-1.1C22.78,38.94,24.72,35.3,26.6,31.74z"
		/>
	<path class="st66" d="M44.18,26.97c0.99-1.8-0.16-2.85-0.81-4.03c-1.08-1.95-2.17-3.89-3.29-5.82c-0.94-1.63-0.73-2.66,0.73-3.65
		c0.55-0.37,1.04-0.4,1.47,0.13c0.4,0.49,0.85,0.97,1.14,1.53c1.45,2.83,2.91,5.66,4.25,8.54c0.77,1.67,0.3,2.42-1.53,2.88
		C45.62,26.68,45.09,26.78,44.18,26.97z"/>
	<path class="st66" d="M68.42,27.7c-0.73-0.45-1.04-0.54-1.2-0.76c-0.23-0.31-0.27-0.79-0.53-1.05c-1.99-2.04-1.11-4,0.07-6
		c0.89-1.5,1.63-3.09,2.55-4.58c1-1.62,1.53-1.88,2.32-1.44c1.49,0.84,1.81,2.06,0.94,3.58c-1.1,1.93-2.23,3.85-3.29,5.81
		C68.61,24.51,67.5,25.65,68.42,27.7z"/>
	<path class="st67" d="M80.92,17.36c0.29,0.03,0.66-0.02,0.91,0.13c1.91,1.14,3.84,2.25,5.65,3.52c0.78,0.54,0.66,1.83,0.01,2.58
		c-0.67,0.79-1.42,0.62-2.11,0.06c-1.46-1.18-2.86-1.78-4.77-0.73c-1.16,0.64-3.42-0.95-3.64-2.26c-0.04-0.22-0.03-0.53,0.09-0.68
		C78.1,18.77,79.1,17.49,80.92,17.36z"/>
	<path class="st67" d="M35.63,20.1c-0.14,1.37-2.54,2.98-3.81,2.28c-1.73-0.94-3.01-0.39-4.39,0.57c-1.26,0.88-1.86,0.86-2.44,0.04
		c-0.64-0.91-0.58-2.07,0.39-2.74c1.63-1.14,3.3-2.24,5.07-3.13c1.61-0.81,4.56,0.75,5.14,2.51C35.63,19.78,35.61,19.94,35.63,20.1z
		"/>
	<path class="st66" d="M70.71,24.12c1.2-3.22,2.75-6.29,5.22-8.67c2.07-2,4.91-2.47,7.72-2.57c0.47-0.02,1.1,0.32,1.39,0.69
		c0.42,0.54-0.08,2.34-0.8,2.81c-0.37,0.24-1.1,0.32-1.47,0.12c-2.09-1.15-3.72-0.25-5.19,1.1c-1.76,1.62-3.38,3.38-5.09,5.05
		c-0.55,0.54-1.21,0.97-1.82,1.44L70.71,24.12z"/>
	<path class="st66" d="M41.92,23.61c-0.61-0.48-1.26-0.91-1.82-1.44c-1.6-1.55-3.14-3.17-4.75-4.72c-1.63-1.58-3.39-2.68-5.76-1.34
		c-0.31,0.18-1.25-0.08-1.38-0.37c-0.38-0.82-0.78-1.84-0.59-2.64c0.1-0.4,1.51-0.8,2.24-0.69c3.33,0.52,6.63,1.27,8.47,4.56
		c1.23,2.19,2.36,4.45,3.54,6.68L41.92,23.61z"/>
	<path class="st67" d="M20.79,21.72c0.47-3.27,2.52-5.52,4.9-7.91c0.66,1.28,1.19,2.3,1.84,3.55c-2.53,1.13-4.11,3.52-6.78,4.32
		L20.79,21.72z"/>
	<path class="st67" d="M91.83,22.16c-0.16,0-0.34,0.06-0.47,0c-0.36-0.17-0.71-0.36-1.02-0.59c-1.72-1.27-3.43-2.55-5.19-3.87
		c0.52-1.06,1-2.05,1.63-3.33c2.59,2.17,4.45,4.55,5.01,7.82L91.83,22.16z"/>
	<path class="st67" d="M78.72,12.08c-1.52,0.86-3.05,1.72-4.05,2.29c-0.93-0.78-1.82-1.52-2.79-2.33
		C73.27,9.46,76.08,9.36,78.72,12.08z"/>
	<path class="st67" d="M38.44,14.18c-1.53-0.86-3.05-1.73-4.58-2.59c2.56-2.6,5.13-2.59,7.05,0.1c-1.12,0.56-2.25,1.14-3.39,1.71
		C37.83,13.67,38.13,13.92,38.44,14.18z"/>
	<path class="st68" d="M24.55,25.1c-0.81,0.74-1.49,1.4-2.2,2.03c-1.09,0.97-1.67,1-2.38,0.15c-0.83-0.99-0.86-2.23,0.03-2.95
		c0.91-0.75,1.91-1.39,2.9-2.11C23.49,23.27,24.03,24.2,24.55,25.1z"/>
	<path class="st68" d="M88.01,25.56c0.58-0.97,1.06-1.78,1.67-2.81c0.92,0.64,1.88,1.25,2.77,1.96c1.16,0.93,0.92,2.9-0.46,3.51
		c-0.34,0.15-0.96,0.04-1.26-0.19C89.81,27.3,88.98,26.45,88.01,25.56z"/>
	<path class="st66" d="M41.79,29.17c-1-1.39-1.78-2.69-2.77-3.8c-0.94-1.05-2.1-1.91-3.27-2.94c0.34-0.49,0.69-0.99,1.03-1.47
		c0.21,0.06,0.41,0.05,0.49,0.14c1.71,1.97,3.43,3.95,5.1,5.95C43.14,27.96,42.72,28.63,41.79,29.17z"/>
	<path class="st66" d="M71,29.77c-1.2-0.7-1.46-1.36-0.78-2.3c0.52-0.71,0.91-1.51,1.48-2.16c1.21-1.36,2.5-2.65,3.87-4.09
		c0.49,0.62,0.86,1.09,1.34,1.71C74.45,24.77,72.24,26.8,71,29.77z"/>
	<path class="st5" d="M61.89,24.2c0.15,0.36,0.44,0.73,0.39,1.07c-0.04,0.27-0.43,0.58-0.74,0.7c-0.14,0.05-0.63-0.31-0.63-0.49
		c0-0.31,0.25-0.62,0.4-0.93C61.51,24.44,61.7,24.32,61.89,24.2z"/>
	<path class="st5" d="M49.87,26.75c0.28,0.44,0.57,0.71,0.62,1.02c0.02,0.15-0.53,0.56-0.6,0.52c-0.29-0.18-0.56-0.47-0.69-0.79
		C49.16,27.39,49.55,27.1,49.87,26.75z"/>
	<path class="st5" d="M42.37,24.57c-0.15-0.32-0.3-0.65-0.45-0.97l-0.04,0.03c0.15,0.33,0.3,0.66,0.45,0.98
		C42.33,24.62,42.37,24.57,42.37,24.57z"/>
	<path class="st5" d="M70.25,25.1c0.15-0.33,0.3-0.65,0.46-0.98c0,0-0.04-0.04-0.04-0.04c-0.15,0.32-0.31,0.64-0.46,0.96
		C70.2,25.05,70.25,25.1,70.25,25.1z"/>
	<path class="st5" d="M70.2,25.05c-0.07,0.07-0.13,0.14-0.2,0.21c0.02-0.04,0.03-0.1,0.06-0.12c0.05-0.03,0.12-0.03,0.19-0.05
		L70.2,25.05z"/>
	<path class="st5" d="M91.79,22.2c0.07,0.08,0.15,0.16,0.22,0.24c-0.05-0.02-0.13-0.03-0.15-0.06c-0.03-0.06-0.02-0.14-0.03-0.22
		L91.79,22.2z"/>
	<path class="st5" d="M22.22,29.43c0.03-0.06,0.06-0.12,0.09-0.18c-0.05,0.04-0.09,0.09-0.14,0.13L22.22,29.43z"/>
	<path class="st5" d="M90.41,29.86c-0.06-0.03-0.12-0.05-0.19-0.08c0.05,0.04,0.09,0.09,0.14,0.13L90.41,29.86z"/>
	<path class="st5" d="M20.75,21.69c-0.06,0.09-0.12,0.18-0.18,0.28c0.01-0.05-0.01-0.13,0.02-0.16c0.05-0.04,0.13-0.06,0.2-0.08
		L20.75,21.69z"/>
	<path class="st5" d="M42.33,24.62c0.08,0.05,0.17,0.1,0.25,0.16c-0.04-0.01-0.09-0.01-0.12-0.04c-0.04-0.05-0.06-0.11-0.09-0.17
		L42.33,24.62z"/>
	<path class="st8" d="M60.59,45.28c0.38,0.08,0.77,0.14,1.15,0.25c2.36,0.71,4.43,0.57,5.76-2.05c0.2,1.72,0.14,2.17-1.4,3.15
		c-1.26,0.8-2.07,1.82-2.85,3.06c-0.75,1.19-1.82,2.23-2.89,3.16c-2.8,2.43-7.83,1.41-9.12-1.84c5.36,3.26,8.72,2.31,11.56-3.6
		c-0.76-0.66-2.21-0.72-2.15-2.18L60.59,45.28z"/>
	<polygon class="st8" points="60.64,45.23 60.52,45.12 60.59,45.28 	"/>
	<path class="st69" d="M57.41,35.8c-3.26,3.41-9.14,3.88-12.9,1.02c-2.14,2.94-2.92,6.83-2.09,10.37c0.83,3.54,3.26,6.67,6.49,8.35
		c-4.3-0.34-8.36-2.89-10.55-6.6c-2.19-3.72-2.43-8.5-0.65-12.43c0.78-1.72,1.92-3.25,3.22-4.62c2.08-2.2,4.6-3.98,7.36-5.22
		c-0.65,1.37-1.87,2.45-2.3,3.9c-0.53,1.78,0.36,3.83,1.93,4.82c1.57,1,3.67,0.99,5.33,0.16c1.66-0.83,2.9-2.39,3.54-4.13
		c-0.39,1.07,2.12,2.88,2.84,3.24c1.43,0.72,2.68,0.49,4.16,0.49C62.97,37.57,58.94,37.17,57.41,35.8z"/>
</g>
</svg>
