<?xml version="1.0" encoding="UTF-8" standalone="no"?>
<!DOCTYPE svg PUBLIC "-//W3C//DTD SVG 1.1//EN" "http://www.w3.org/Graphics/SVG/1.1/DTD/svg11.dtd">
<svg width="100%" height="100%" viewBox="0 0 480 223" version="1.1" xmlns="http://www.w3.org/2000/svg" xmlns:xlink="http://www.w3.org/1999/xlink" xml:space="preserve" xmlns:serif="http://www.serif.com/" style="fill-rule:evenodd;clip-rule:evenodd;stroke-miterlimit:10;">
    <g transform="matrix(1,0,0,1,-20077.1,-10153.9)">
        <g transform="matrix(5.55556,0,0,5.55556,18159.4,9566.93)">
            <g transform="matrix(1,0,0,1,425.385,107.085)">
                <path d="M0,-0.198C-0.114,-0.302 -0.362,-0.444 -0.412,-0.598L-0.412,-0.599C-0.406,-0.602 -0.4,-0.607 -0.39,-0.622C-0.282,-0.775 -0.101,-0.75 0.064,-0.752C0.285,-0.754 0.498,-0.743 0.708,-0.688C0.696,-0.647 0.683,-0.586 0.67,-0.542C0.569,-0.175 0.552,0.159 0.685,0.503C0.62,0.525 0.559,0.557 0.494,0.577C0.437,0.279 0.24,0.021 0,-0.198" style="fill:rgb(168,123,80);fill-rule:nonzero;"/>
            </g>
        </g>
        <g transform="matrix(5.55556,0,0,5.55556,18159.4,9566.93)">
            <g transform="matrix(1,0,0,1,422.63,107.416)">
                <path d="M0,-0.012C-0.094,-0.146 -0.315,-0.401 -0.134,-0.546C0.055,-0.698 0.396,-0.528 0.579,-0.445C0.646,-0.414 0.777,-0.38 0.821,-0.312C0.819,-0.306 0.819,-0.304 0.812,-0.277C0.774,-0.13 0.643,-0.006 0.581,0.132C0.499,0.314 0.47,0.498 0.498,0.672C0.454,0.676 0.41,0.681 0.366,0.686C0.308,0.442 0.161,0.217 0,-0.012" style="fill:rgb(168,123,80);fill-rule:nonzero;"/>
            </g>
        </g>
        <g transform="matrix(5.55556,0,0,5.55556,18159.4,9566.93)">
            <g transform="matrix(1,0,0,1,420.3,108.075)">
                <path d="M0,-0.129C-0.344,-0.421 0.159,-0.603 0.428,-0.568C0.595,-0.547 0.777,-0.483 0.898,-0.362C1.031,-0.229 0.981,-0.275 0.859,-0.135C0.736,0.006 0.705,0.223 0.765,0.393C0.689,0.418 0.615,0.446 0.541,0.474C0.473,0.219 0.227,0.062 0,-0.129" style="fill:rgb(168,123,80);fill-rule:nonzero;"/>
            </g>
        </g>
        <g transform="matrix(5.55556,0,0,5.55556,18159.4,9566.93)">
            <g transform="matrix(1,0,0,1,363.459,138.213)">
                <path d="M0,-24.119C4.427,-22.578 6.322,-22.5 10.276,-24.788C13.97,-26.926 17.689,-27.893 21.217,-24.779C23.558,-22.713 24.739,-19.823 25.403,-16.854C25.365,-16.809 25.341,-16.753 25.352,-16.683C26.187,-11.173 24.942,-6.321 18.919,-5.044C15.468,-4.311 11.636,-5.795 8.562,-4.281C6.626,-3.328 5.086,-1.21 3.446,0.126C0.7,2.364 -2.707,3.774 -6.32,3.09C-11.64,2.084 -14.188,-3.152 -15.397,-7.939C-16.429,-12.021 -16.709,-16.981 -14.789,-20.863C-11.785,-26.935 -5.393,-25.995 0,-24.119" style="fill:rgb(227,161,78);fill-rule:nonzero;"/>
            </g>
        </g>
        <g transform="matrix(5.55556,0,0,5.55556,18159.4,9566.93)">
            <g transform="matrix(1,0,0,1,379.805,133.28)">
                <path d="M0,3.388C-2.039,3.486 -4.593,2.653 -6.51,3.008C-8.573,3.389 -11.052,6.11 -12.633,7.351C-18.991,12.341 -27.13,13.386 -31.147,4.938C-33.204,0.614 -34.353,-5.001 -33.453,-9.998C-33.816,-4.117 -31.898,2.694 -28.041,6.302C-25.377,8.794 -21.549,9.599 -18.038,8.782C-13.009,7.61 -9.989,1.356 -5.156,0.982C-0.946,0.656 3.515,1.773 7.154,-1.109C7.536,-1.412 7.865,-1.737 8.158,-2.077C6.809,1.057 4.378,3.179 0,3.388" style="fill:rgb(117,76,40);fill-rule:nonzero;"/>
            </g>
        </g>
        <g transform="matrix(5.55556,0,0,5.55556,18159.4,9566.93)">
            <g transform="matrix(1,0,0,1,389.336,112.212)">
                <path d="M0,9.229C-0.016,9.152 -0.062,9.104 -0.122,9.076C-0.3,7.802 -0.633,6.53 -1.135,5.326L29.569,-1.55C29.516,-1.042 29.577,-0.471 29.664,0.186C29.817,1.348 30.081,2.912 30.88,3.922L0.263,10.779C0.188,10.258 0.1,9.74 0,9.229" style="fill:rgb(227,180,134);fill-rule:nonzero;"/>
            </g>
        </g>
        <g transform="matrix(5.55556,0,0,5.55556,18159.4,9566.93)">
            <g transform="matrix(1,0,0,1,423.321,117.826)">
                <path d="M0,-0.49C0.085,-0.416 0.187,-0.318 0.226,-0.227C0.259,-0.15 0.245,-0.113 0.226,-0.08C0.154,0.041 -0.03,0.138 -0.217,0.187C-0.395,0.234 -0.615,0.243 -0.767,0.186C-0.897,0.136 -0.936,0.044 -0.937,-0.077C-0.606,-0.196 -0.295,-0.319 -0.21,-0.711C-0.173,-0.717 -0.137,-0.726 -0.099,-0.733C-0.107,-0.649 -0.083,-0.562 0,-0.49" style="fill:rgb(168,123,80);fill-rule:nonzero;"/>
            </g>
        </g>
        <g transform="matrix(5.55556,0,0,5.55556,18159.4,9566.93)">
            <g transform="matrix(1,0,0,1,426.014,116.846)">
                <path d="M0,0.011C0,0.01 0,0.009 -0.001,0.007C0.001,0.002 0.001,0.006 0.002,0C0.001,0.003 0.001,0.007 0,0.011" style="fill:rgb(168,123,80);fill-rule:nonzero;"/>
            </g>
        </g>
        <g transform="matrix(5.55556,0,0,5.55556,18159.4,9566.93)">
            <g transform="matrix(1,0,0,1,425.71,117.075)">
                <path d="M0,-0.569C0.052,-0.527 0.101,-0.483 0.147,-0.436C0.172,-0.412 0.194,-0.387 0.22,-0.364C0.24,-0.345 0.285,-0.295 0.248,-0.346C0.262,-0.327 0.272,-0.306 0.284,-0.285C0.285,-0.283 0.284,-0.285 0.284,-0.281C0.288,-0.266 0.294,-0.247 0.3,-0.231C0.3,-0.229 0.301,-0.225 0.3,-0.225C0.286,-0.2 0.29,-0.182 0.303,-0.221C0.303,-0.22 0.303,-0.218 0.304,-0.216C0.301,-0.204 0.297,-0.191 0.296,-0.179C0.296,-0.176 0.296,-0.178 0.295,-0.175C0.288,-0.162 0.278,-0.149 0.276,-0.138C0.275,-0.136 0.276,-0.138 0.276,-0.137C0.267,-0.127 0.259,-0.116 0.249,-0.106C0.24,-0.096 0.23,-0.088 0.221,-0.079C0.216,-0.074 0.211,-0.07 0.199,-0.063C0.168,-0.044 0.137,-0.026 0.105,-0.008C0.103,-0.007 0.106,-0.008 0.104,-0.007C0.082,-0.001 0.062,0.008 0.041,0.015C0.002,0.029 -0.038,0.042 -0.077,0.054C-0.097,0.06 -0.163,0.073 -0.167,0.075C-0.196,0.078 -0.225,0.081 -0.254,0.082C-0.267,0.082 -0.325,0.077 -0.293,0.081C-0.26,0.086 -0.319,0.074 -0.33,0.071C-0.34,0.069 -0.349,0.066 -0.354,0.064C-0.364,0.059 -0.374,0.055 -0.384,0.05C-0.395,0.044 -0.404,0.038 -0.414,0.032C-0.42,0.027 -0.432,0.017 -0.437,0.011C-0.471,-0.027 -0.428,0.029 -0.456,-0.012C-0.464,-0.023 -0.484,-0.067 -0.47,-0.032C-0.493,-0.088 -0.49,-0.089 -0.491,-0.131C-0.496,-0.248 -0.466,-0.364 -0.419,-0.479C-0.408,-0.506 -0.418,-0.528 -0.419,-0.553C-0.342,-0.579 -0.262,-0.606 -0.187,-0.629C-0.147,-0.642 -0.109,-0.644 -0.069,-0.655C-0.051,-0.626 -0.032,-0.595 0,-0.569" style="fill:rgb(168,123,80);fill-rule:nonzero;"/>
            </g>
        </g>
        <g transform="matrix(5.55556,0,0,5.55556,18159.4,9566.93)">
            <g transform="matrix(1,0,0,1,428.274,116.742)">
                <path d="M0,-0.546C0.042,-0.452 0.082,-0.358 0.114,-0.259C0.129,-0.216 0.141,-0.171 0.152,-0.127C0.155,-0.118 0.163,-0.068 0.165,-0.062C0.167,-0.034 0.17,0.007 0.172,0.032C0.172,0.043 0.168,0.055 0.164,0.067L0.105,0.067C0.225,0.066 -0.016,0.077 -0.017,0.077C0.07,0.068 -0.054,0.067 -0.089,0.068C-0.112,0.051 -0.142,0.039 -0.166,0.024C-0.207,-0.002 -0.229,-0.018 -0.269,-0.053C-0.35,-0.123 -0.418,-0.201 -0.471,-0.294C-0.525,-0.388 -0.55,-0.491 -0.559,-0.596C-0.376,-0.604 -0.194,-0.611 -0.012,-0.623C-0.01,-0.597 -0.012,-0.571 0,-0.546" style="fill:rgb(168,123,80);fill-rule:nonzero;"/>
            </g>
        </g>
        <g transform="matrix(5.55556,0,0,5.55556,18159.4,9566.93)">
            <g transform="matrix(1,0,0,1,428.507,108.775)">
                <path d="M0,5.291C-0.045,5.262 -0.096,5.24 -0.162,5.239C-1.961,5.21 -4.206,7.019 -5.955,6.257C-6.222,6.141 -6.49,5.936 -6.556,5.628C-6.681,5.036 -6.415,5.086 -5.951,4.91C-5.042,4.562 -4.055,4.367 -3.104,4.166C-2.224,3.98 -1.133,3.612 -0.235,3.632C0.842,3.655 0.568,4.733 0,5.291M-7.723,2.743C-7.646,1.957 -5.623,1.434 -5.042,1.264C-3.954,0.945 -2.778,0.709 -1.64,0.751C-1.422,0.759 -0.586,0.755 -0.471,1.052C-0.347,1.374 -0.983,1.894 -1.312,2.159C-1.32,2.16 -1.326,2.158 -1.334,2.159C-2.037,2.305 -7.873,4.293 -7.723,2.743M1.518,0.827C1.096,0.143 -0.132,-2.466 -1.341,-1.211C-1.29,-1.08 -1.314,-0.929 -1.481,-0.842C-2.813,-0.148 -4.248,-0.23 -5.645,-0.04C-5.701,-0.003 -5.766,0.006 -5.831,-0.009C-6.257,0.057 -6.679,0.148 -7.092,0.305C-9.195,1.1 -9.1,2.948 -8.631,4.793C-8.362,5.847 -7.94,6.654 -7.294,7.136L-7.265,7.13L-7.259,7.157C-6.643,7.6 -5.83,7.757 -4.746,7.539C-3.606,7.311 -2.545,6.679 -1.382,6.555C-0.233,6.432 1.101,6.546 1.942,5.497C2.954,4.236 2.269,2.043 1.518,0.827" style="fill:rgb(117,76,40);fill-rule:nonzero;"/>
            </g>
        </g>
        <g transform="matrix(5.55556,0,0,5.55556,18159.4,9566.93)">
            <g transform="matrix(1,0,0,1,369.728,126.572)">
                <path d="M0,-5.474C0.68,-6.546 1.736,-7.29 2.976,-7.567C3.271,-7.633 3.567,-7.67 3.859,-7.68C6.096,-7.753 8.145,-6.229 8.652,-3.968C9.224,-1.411 7.608,1.135 5.052,1.708C2.497,2.279 -0.051,0.667 -0.624,-1.891C-0.901,-3.13 -0.68,-4.402 0,-5.474" style="fill:rgb(117,76,40);fill-rule:nonzero;"/>
            </g>
        </g>
        <g transform="matrix(5.55556,0,0,5.55556,18159.4,9566.93)">
            <g opacity="0.2">
                <g transform="matrix(1,0,0,1,356.969,128.202)">
                    <path d="M0,-13.965C-0.014,-13.052 -0.116,-12.134 -0.306,-11.241C-0.766,-9.068 -1.729,-7.041 -2.788,-5.102C-3.317,-4.133 -3.875,-3.179 -4.421,-2.219C-4.683,-1.758 -4.958,-1.299 -5.185,-0.819C-5.366,-0.434 -5.491,-0.026 -5.451,0.405C-5.405,0.909 -5.17,1.41 -4.886,1.823C-4.612,2.218 -4.25,2.546 -3.848,2.807C-3.443,3.069 -3.002,3.27 -2.549,3.432C-2.319,3.515 -2.085,3.592 -1.848,3.652C-1.677,3.696 -1.492,3.74 -1.313,3.718C-1.012,3.681 -0.798,3.384 -0.6,3.183C-0.441,3.021 -0.282,2.861 -0.1,2.727C0.066,2.605 0.245,2.5 0.425,2.402C0.821,2.183 1.233,1.993 1.622,1.759C1.926,1.578 2.281,1.356 2.43,1.02C2.58,0.681 2.578,0.274 2.569,-0.09C2.558,-0.527 2.506,-0.964 2.444,-1.396C2.387,-1.797 2.343,-2.205 2.222,-2.592C2.081,-3.044 1.857,-3.519 1.885,-4.003C1.899,-4.27 1.987,-4.502 2.163,-4.705C2.351,-4.921 2.599,-5.081 2.849,-5.215C3.488,-5.557 4.194,-5.767 4.88,-5.994C5.485,-6.195 6.155,-6.382 6.675,-6.767C7.215,-7.168 7.607,-7.749 7.978,-8.301C8.742,-9.442 9.551,-10.882 11,-11.214C11.853,-11.41 12.678,-11.165 13.429,-10.755C14.073,-10.403 14.666,-9.956 15.222,-9.473C15.349,-9.52 15.474,-9.569 15.604,-9.603C16.27,-9.778 16.952,-9.752 17.624,-9.628C17.969,-9.565 18.31,-9.48 18.65,-9.397C18.979,-9.318 19.325,-9.2 19.665,-9.204C20.198,-9.211 20.527,-9.617 20.823,-10.009C21.222,-10.538 21.637,-11.054 22.085,-11.542C22.984,-12.523 24.004,-13.384 25.066,-14.182C25.646,-14.617 26.238,-15.033 26.834,-15.445C23.568,-17.705 20.156,-16.739 16.767,-14.777C12.813,-12.489 10.917,-12.568 6.49,-14.108C4.355,-14.851 2.065,-15.438 -0.111,-15.51C-0.022,-15 0.007,-14.475 0,-13.965" style="fill:white;fill-rule:nonzero;"/>
                </g>
            </g>
        </g>
        <g transform="matrix(5.55556,0,0,5.55556,18159.4,9566.93)">
            <g opacity="0.2">
                <g transform="matrix(1,0,0,1,387.481,137.994)">
                    <path d="M0,-10.254C-0.633,-10.229 -1.267,-10.189 -1.89,-10.079C-2.522,-9.968 -3.11,-9.753 -3.715,-9.542C-4.935,-9.115 -6.175,-8.748 -7.421,-8.404C-8.679,-8.058 -9.943,-7.734 -11.202,-7.395C-11.829,-7.226 -12.455,-7.053 -13.078,-6.871C-13.545,-6.735 -14.015,-6.612 -14.478,-6.461C-15.419,-6.154 -16.342,-5.776 -17.206,-5.292C-18.032,-4.829 -18.826,-4.263 -19.423,-3.519C-19.937,-2.878 -20.231,-2.083 -20.324,-1.27C-20.373,-0.848 -20.358,-0.378 -20.228,0.042C-18.715,-1.294 -17.258,-3.177 -15.46,-4.062C-12.386,-5.575 -8.554,-4.092 -5.103,-4.824C-1.517,-5.585 0.366,-7.617 1.134,-10.296C0.756,-10.281 0.378,-10.269 0,-10.254" style="fill:white;fill-rule:nonzero;"/>
                </g>
            </g>
        </g>
        <g transform="matrix(5.55556,0,0,5.55556,18159.4,9566.93)">
            <g transform="matrix(1,0,0,1,389.253,130.732)">
                <path d="M0,-9.211C-0.475,-12.825 -2.163,-16.419 -5.248,-18.529C-9.449,-21.401 -12.445,-19.39 -16.469,-17.495C-23.176,-14.336 -28.051,-20.115 -34.687,-18.93C-37.813,-18.372 -40.194,-16.302 -41.511,-13.461C-44.434,-7.146 -42.746,2.974 -38.141,8.17C-35.69,10.934 -31.952,12.043 -28.358,11.476C-22.272,10.515 -19.331,3.749 -13.381,3.618C-9.509,3.532 -5.144,3.94 -1.993,1.174C1.091,-1.533 0.8,-5.612 0.085,-9.283C0.019,-9.627 -0.483,-9.475 -0.433,-9.14C0.402,-3.627 -0.927,1.108 -6.859,2.439C-10.324,3.217 -14.328,1.636 -17.369,3.301C-22.635,6.183 -25.502,12.19 -32.615,10.471C-37.877,9.2 -40.313,3.698 -41.362,-1.139C-42.248,-5.219 -42.45,-10.173 -40.307,-13.926C-37.089,-19.56 -30.964,-18.436 -25.806,-16.641C-21.908,-15.285 -19.7,-14.8 -16.134,-16.921C-12.437,-19.12 -8.978,-20.581 -5.1,-17.644C-2.354,-15.565 -1.046,-12.434 -0.342,-9.165C-0.301,-8.977 0.025,-9.015 0,-9.211" style="fill:rgb(35,31,32);fill-rule:nonzero;"/>
            </g>
        </g>
        <g transform="matrix(5.55556,0,0,5.55556,18159.4,9566.93)">
            <g transform="matrix(1,0,0,1,347.625,149.877)">
                <path d="M0,-32.453C-6.213,-22.58 -0.317,0.471 14.611,-5.086C18.561,-6.556 20.98,-10.585 24.764,-12.092C27.955,-13.363 31.846,-11.82 35.229,-12.71C40.77,-14.166 41.851,-19.376 42.246,-24.437C42.273,-24.786 41.745,-24.776 41.709,-24.437C41.031,-18.139 38.788,-13.486 31.931,-13.2C30.003,-13.12 27.413,-13.974 25.564,-13.567C23.884,-13.196 22.021,-11.212 20.662,-10.143C14.063,-4.953 5.548,-2.333 1.034,-11.643C-1.87,-17.636 -2.927,-26.161 0.748,-32.016C1.045,-32.49 0.297,-32.924 0,-32.453" style="fill:rgb(35,31,32);fill-rule:nonzero;"/>
            </g>
        </g>
        <g transform="matrix(5.55556,0,0,5.55556,18159.4,9566.93)">
            <g transform="matrix(1,0,0,1,427.152,115.317)">
                <path d="M0,-7.74C1.22,-9.024 2.441,-6.415 2.868,-5.724C3.617,-4.51 4.127,-3.288 3.529,-1.803C2.955,-0.376 2.15,0.005 0.705,-0.041C0.479,-0.049 0.255,-0.026 0.027,0.004C-1.042,0.14 -2.033,0.64 -3.067,0.913C-5.109,1.453 -6.628,0.631 -7.198,-1.428C-7.71,-3.275 -8.125,-5.547 -5.747,-6.235C-3.862,-6.78 -1.922,-6.448 -0.136,-7.379C0.256,-7.583 -0.089,-8.162 -0.48,-7.968C-2.458,-6.989 -4.792,-7.536 -6.748,-6.575C-8.416,-5.756 -8.376,-4.649 -8.151,-2.929C-7.973,-1.558 -7.648,0.387 -6.46,1.308C-5.061,2.39 -3.107,1.603 -1.639,1.132C-0.397,0.734 0.76,0.913 1.987,0.705C2.47,0.623 2.931,0.584 3.308,0.219C4.363,-0.804 4.678,-3.505 4.137,-4.822C3.561,-6.228 1.406,-10.13 -0.376,-8.115C-0.601,-7.861 -0.237,-7.49 0,-7.74" style="fill:rgb(35,31,32);fill-rule:nonzero;"/>
            </g>
        </g>
        <g transform="matrix(5.55556,0,0,5.55556,18159.4,9566.93)">
            <g transform="matrix(1,0,0,1,426.496,106.515)">
                <path d="M0,1.119C-0.058,0.657 0.269,0.283 0.275,-0.169C0.284,-0.813 -0.476,-0.861 -0.951,-0.859C-1.399,-0.856 -1.778,-0.82 -2.054,-0.425C-2.207,-0.204 -2.233,0.057 -2.101,0.296C-1.909,0.64 -1.128,0.967 -1.254,1.411C-1.367,1.81 -0.75,1.98 -0.633,1.582C-0.487,1.09 -0.752,0.699 -1.103,0.379C-1.181,0.309 -1.537,0.079 -1.528,-0.039C-1.518,-0.192 -1.101,-0.181 -1.008,-0.182C-0.805,-0.183 -0.527,-0.137 -0.373,-0.129C-0.421,-0.132 -0.369,-0.266 -0.396,-0.134C-0.394,-0.145 -0.432,-0.005 -0.442,0.035C-0.559,0.447 -0.574,0.828 -0.37,1.219C-0.283,1.385 0.024,1.318 0,1.119" style="fill:rgb(35,31,32);fill-rule:nonzero;"/>
            </g>
        </g>
        <g transform="matrix(5.55556,0,0,5.55556,18159.4,9566.93)">
            <g transform="matrix(1,0,0,1,423.698,106.794)">
                <path d="M0,1.428C-0.231,1.14 0.29,0.721 0.347,0.412C0.448,-0.14 -0.194,-0.428 -0.634,-0.537C-1.186,-0.675 -1.898,-0.454 -1.88,0.226C-1.872,0.486 -1.726,0.717 -1.579,0.92C-1.443,1.109 -1.176,1.354 -1.277,1.603C-1.421,1.955 -0.854,2.103 -0.711,1.76C-0.524,1.316 -0.846,0.931 -1.085,0.587C-1.181,0.449 -1.395,0.189 -1.18,0.058C-0.986,-0.06 -0.677,0.092 -0.497,0.172C-0.428,0.204 -0.291,0.236 -0.246,0.305C-0.237,0.319 -0.237,0.264 -0.256,0.346C-0.287,0.49 -0.425,0.617 -0.485,0.751C-0.645,1.105 -0.613,1.476 -0.322,1.75C-0.104,1.955 0.18,1.652 0,1.428" style="fill:rgb(35,31,32);fill-rule:nonzero;"/>
            </g>
        </g>
        <g transform="matrix(5.55556,0,0,5.55556,18159.4,9566.93)">
            <g transform="matrix(1,0,0,1,421.478,107.476)">
                <path d="M0,1.165C0.044,1.056 -0.021,0.934 0.028,0.833C0.052,0.785 0.141,0.739 0.179,0.699C0.329,0.54 0.375,0.356 0.295,0.149C0.125,-0.292 -0.386,-0.531 -0.836,-0.539C-1.277,-0.547 -1.73,-0.328 -1.843,0.129C-1.903,0.38 -1.846,0.606 -1.659,0.786C-1.548,0.892 -1.095,1.084 -1.126,1.257C-1.186,1.573 -0.715,1.712 -0.639,1.392C-0.528,0.928 -0.861,0.73 -1.174,0.474C-1.525,0.185 -1.021,-0.005 -0.752,0.03C-0.587,0.051 -0.407,0.113 -0.286,0.231C-0.147,0.365 -0.197,0.328 -0.312,0.458C-0.53,0.704 -0.512,1.226 -0.095,1.237C-0.048,1.238 -0.017,1.205 0,1.165" style="fill:rgb(35,31,32);fill-rule:nonzero;"/>
            </g>
        </g>
        <g transform="matrix(5.55556,0,0,5.55556,18159.4,9566.93)">
            <g transform="matrix(1,0,0,1,422.604,118.311)">
                <path d="M0,-1.364C-0.071,-0.992 -0.637,-1.183 -0.766,-0.834C-0.841,-0.628 -0.817,-0.35 -0.716,-0.157C-0.521,0.213 -0.076,0.343 0.317,0.32C0.725,0.297 1.183,0.144 1.427,-0.203C1.728,-0.632 1.503,-1.109 1.157,-1.429C0.857,-1.707 0.404,-1.249 0.71,-0.983C0.793,-0.91 0.899,-0.811 0.939,-0.722C0.974,-0.649 0.966,-0.605 0.947,-0.573C0.872,-0.449 0.698,-0.351 0.509,-0.301C0.315,-0.25 0.105,-0.238 -0.078,-0.311C-0.216,-0.367 -0.267,-0.489 -0.226,-0.685C-0.291,-0.619 -0.355,-0.554 -0.421,-0.489C-0.021,-0.648 0.434,-0.72 0.518,-1.221C0.574,-1.557 0.065,-1.706 0,-1.364" style="fill:rgb(35,31,32);fill-rule:nonzero;"/>
            </g>
        </g>
        <g transform="matrix(5.55556,0,0,5.55556,18159.4,9566.93)">
            <g transform="matrix(1,0,0,1,424.983,117.2)">
                <path d="M0,-0.777C-0.128,-0.524 -0.218,-0.229 -0.1,0.044C-0.005,0.264 0.202,0.387 0.427,0.444C0.903,0.565 1.526,0.321 1.637,-0.202C1.675,-0.381 1.642,-0.558 1.566,-0.724C1.557,-0.745 1.498,-0.846 1.536,-0.774C1.509,-0.827 1.492,-0.885 1.461,-0.936C1.4,-1.036 1.307,-1.125 1.22,-1.202C1.078,-1.33 0.859,-1.342 0.719,-1.202C0.594,-1.077 0.57,-0.823 0.719,-0.702C0.774,-0.656 0.826,-0.609 0.877,-0.558C0.896,-0.538 0.916,-0.517 0.937,-0.498C0.956,-0.48 1.01,-0.43 0.969,-0.482C0.983,-0.464 0.993,-0.441 1.005,-0.421C1.013,-0.409 1.019,-0.395 1.024,-0.381C1.024,-0.382 1.003,-0.442 1.012,-0.409C1.017,-0.391 1.021,-0.37 1.028,-0.352C1.053,-0.286 1.019,-0.402 1.028,-0.354C1.031,-0.337 1.024,-0.319 1.027,-0.301C1.018,-0.377 1.038,-0.347 1.025,-0.309C0.996,-0.229 1.042,-0.358 1.007,-0.268C0.992,-0.231 0.986,-0.241 1.016,-0.274C1.002,-0.259 0.989,-0.244 0.976,-0.229C0.963,-0.216 0.949,-0.206 0.937,-0.194C0.936,-0.193 0.984,-0.221 0.934,-0.191C0.899,-0.171 0.863,-0.152 0.829,-0.131C0.78,-0.101 0.846,-0.136 0.831,-0.131C0.81,-0.124 0.789,-0.116 0.768,-0.109C0.69,-0.083 0.613,-0.058 0.533,-0.044C0.604,-0.056 0.492,-0.044 0.466,-0.043C0.456,-0.042 0.402,-0.048 0.437,-0.043C0.47,-0.038 0.401,-0.053 0.392,-0.055C0.33,-0.071 0.393,-0.045 0.339,-0.077C0.332,-0.082 0.291,-0.109 0.313,-0.092C0.334,-0.076 0.288,-0.116 0.281,-0.124C0.276,-0.129 0.256,-0.159 0.249,-0.178C0.241,-0.198 0.235,-0.238 0.235,-0.273C0.234,-0.399 0.274,-0.521 0.323,-0.641C0.398,-0.826 0.09,-0.955 0,-0.777" style="fill:rgb(35,31,32);fill-rule:nonzero;"/>
            </g>
        </g>
        <g transform="matrix(5.55556,0,0,5.55556,18159.4,9566.93)">
            <g transform="matrix(1,0,0,1,427.466,117.297)">
                <path d="M0,-1.615C-0.317,-1.157 -0.101,-0.563 0.298,-0.229C0.377,-0.163 0.499,-0.085 0.549,-0.046C0.67,0.052 0.785,0.122 0.945,0.129C1.191,0.14 1.423,0.026 1.539,-0.195C1.719,-0.532 1.593,-0.962 1.463,-1.294C1.283,-1.749 0.632,-1.485 0.839,-1.031C0.897,-0.9 0.966,-0.702 0.977,-0.599C0.975,-0.619 0.964,-0.415 0.979,-0.512C0.976,-0.494 0.972,-0.464 0.961,-0.449C0.997,-0.496 0.952,-0.488 0.957,-0.456C0.956,-0.463 0.994,-0.531 0.963,-0.478C0.956,-0.466 1.029,-0.53 0.97,-0.486C0.937,-0.463 1.02,-0.485 0.976,-0.488C0.913,-0.492 0.854,-0.486 0.792,-0.481C0.88,-0.488 0.734,-0.487 0.709,-0.486C0.702,-0.486 0.771,-0.443 0.713,-0.49C0.693,-0.506 0.667,-0.515 0.646,-0.529C0.6,-0.558 0.568,-0.582 0.531,-0.615C0.454,-0.683 0.388,-0.76 0.337,-0.849C0.223,-1.047 0.223,-1.28 0.283,-1.496C0.333,-1.672 0.097,-1.755 0,-1.615" style="fill:rgb(35,31,32);fill-rule:nonzero;"/>
            </g>
        </g>
        <g transform="matrix(5.55556,0,0,5.55556,18159.4,9566.93)">
            <g transform="matrix(1,0,0,1,427.482,110.723)">
                <path d="M0,0.738C0.733,0.167 1.729,-1.01 0.432,-1.574C-0.905,-2.155 -2.968,-1.597 -4.28,-1.207C-5.176,-0.941 -7.291,-0.331 -7.315,0.901C-7.354,2.893 -1.031,1.053 -0.122,0.848C0.296,0.754 0.118,0.122 -0.298,0.208C-1.001,0.353 -6.996,2.261 -6.681,0.769C-6.508,-0.048 -4.559,-0.53 -3.923,-0.711C-2.845,-1.017 -1.667,-1.256 -0.54,-1.195C-0.312,-1.182 0.437,-1.182 0.55,-0.903C0.702,-0.529 -0.201,0.13 -0.42,0.318C-0.716,0.571 -0.294,0.967 0,0.738" style="fill:rgb(35,31,32);fill-rule:nonzero;"/>
            </g>
        </g>
        <g transform="matrix(5.55556,0,0,5.55556,18159.4,9566.93)">
            <g transform="matrix(1,0,0,1,428.356,114.474)">
                <path d="M0,-0.053C1.257,0.014 1.755,-1.772 0.812,-2.551C0.187,-3.069 -0.979,-2.542 -1.673,-2.413C-3.434,-2.086 -5.178,-1.703 -6.848,-1.046C-6.971,-0.998 -7.069,-0.899 -7.067,-0.758C-7.019,3.016 -1.921,0.079 0,0.159C0.397,0.175 0.399,-0.454 0,-0.461C-1.793,-0.49 -3.986,1.279 -5.74,0.584C-6.022,0.472 -6.33,0.266 -6.401,-0.062C-6.531,-0.657 -6.272,-0.607 -5.81,-0.787C-4.904,-1.14 -3.911,-1.33 -2.963,-1.531C-2.074,-1.718 -1,-2.074 -0.094,-2.065C1.109,-2.053 0.654,-0.706 -0.05,-0.236C-0.132,-0.181 -0.1,-0.058 0,-0.053" style="fill:rgb(35,31,32);fill-rule:nonzero;"/>
            </g>
        </g>
        <g transform="matrix(5.55556,0,0,5.55556,18159.4,9566.93)">
            <g transform="matrix(0.97585,-0.218442,-0.218442,-0.97585,375.922,128.269)">
                <ellipse cx="-1.118" cy="4.99" rx="5.114" ry="5.114" style="fill:none;stroke:rgb(35,31,32);stroke-width:0.72px;"/>
            </g>
        </g>
        <g transform="matrix(5.55556,0,0,5.55556,18159.4,9566.93)">
            <g transform="matrix(-0.956579,0.291472,0.291472,0.956579,361.646,130.397)">
                <path d="M1.277,-8.582C1.555,-5.644 1.834,-2.7 1.897,0.25C1.904,0.656 1.326,0.655 1.277,0.266C0.9,-2.662 0.736,-5.615 0.574,-8.564C0.55,-9.017 1.235,-9.028 1.277,-8.582" style="fill:rgb(35,31,32);fill-rule:nonzero;"/>
            </g>
        </g>
        <g transform="matrix(5.55556,0,0,5.55556,18159.4,9566.93)">
            <g transform="matrix(-0.975827,0.218543,0.218543,0.975827,389.028,120.578)">
                <path d="M-31.72,-3.508L0.388,-3.508" style="fill:none;fill-rule:nonzero;stroke:rgb(35,31,32);stroke-width:0.72px;"/>
            </g>
        </g>
        <g transform="matrix(5.55556,0,0,5.55556,18159.4,9566.93)">
            <g transform="matrix(-0.975829,0.218536,0.218536,0.975829,390.441,126.851)">
                <path d="M-32.449,-3.589L0.397,-3.589" style="fill:none;fill-rule:nonzero;stroke:rgb(35,31,32);stroke-width:0.72px;"/>
            </g>
        </g>
        <g transform="matrix(5.55556,0,0,5.55556,18159.4,9566.93)">
            <g transform="matrix(0.975827,-0.218543,-0.218543,-0.975827,361.197,132.086)">
                <path d="M-0.841,7.602L68.729,7.602" style="fill:none;fill-rule:nonzero;stroke:rgb(35,31,32);stroke-width:0.48px;stroke-linecap:round;"/>
            </g>
        </g>
        <g transform="matrix(5.55556,0,0,5.55556,18159.4,9566.93)">
            <g transform="matrix(0.975828,-0.218539,-0.218539,-0.975828,361.295,132.673)">
                <path d="M-0.809,7.312L66.113,7.313" style="fill:none;fill-rule:nonzero;stroke:rgb(35,31,32);stroke-width:0.48px;stroke-linecap:round;"/>
            </g>
        </g>
        <g transform="matrix(5.55556,0,0,5.55556,18159.4,9566.93)">
            <g transform="matrix(0.975827,-0.218543,-0.218543,-0.975827,361.422,133.326)">
                <path d="M-0.79,7.138L64.539,7.138" style="fill:none;fill-rule:nonzero;stroke:rgb(35,31,32);stroke-width:0.48px;stroke-linecap:round;"/>
            </g>
        </g>
        <g transform="matrix(5.55556,0,0,5.55556,18159.4,9566.93)">
            <g transform="matrix(0.975828,-0.218541,-0.218541,-0.975828,361.597,134.135)">
                <path d="M-0.784,7.084L64.047,7.084" style="fill:none;fill-rule:nonzero;stroke:rgb(35,31,32);stroke-width:0.48px;stroke-linecap:round;"/>
            </g>
        </g>
        <g transform="matrix(5.55556,0,0,5.55556,18159.4,9566.93)">
            <g transform="matrix(0.97583,-0.218532,-0.218532,-0.97583,361.861,135.206)">
                <path d="M-0.808,7.304L66.034,7.303" style="fill:none;fill-rule:nonzero;stroke:rgb(35,31,32);stroke-width:0.48px;stroke-linecap:round;"/>
            </g>
        </g>
        <g transform="matrix(5.55556,0,0,5.55556,18159.4,9566.93)">
            <g transform="matrix(0.975829,-0.218534,-0.218534,-0.975829,362.152,136.336)">
                <path d="M-0.844,7.63L68.985,7.63" style="fill:none;fill-rule:nonzero;stroke:rgb(35,31,32);stroke-width:0.48px;stroke-linecap:round;"/>
            </g>
        </g>
        <g transform="matrix(5.55556,0,0,5.55556,18159.4,9566.93)">
            <g transform="matrix(1,0,0,1,427.205,114.589)">
                <path d="M0,-2.22C-0.048,-1.938 0.06,-1.69 0.136,-1.42C0.228,-1.097 0.354,-0.745 0.377,-0.408C0.412,0.134 1.243,-0.077 1.001,-0.578C0.852,-0.887 0.771,-1.241 0.649,-1.561C0.552,-1.82 0.479,-2.108 0.26,-2.288C0.18,-2.354 0.021,-2.346 0,-2.22" style="fill:rgb(35,31,32);fill-rule:nonzero;"/>
            </g>
        </g>
        <g transform="matrix(5.55556,0,0,5.55556,18159.4,9566.93)">
            <g transform="matrix(1,0,0,1,426.766,109.023)">
                <path d="M0,2.4C0.37,2.543 0.503,2.106 0.508,1.827C0.513,1.585 0.483,1.338 0.437,1.1C0.394,0.871 0.249,0.616 0.247,0.387C0.243,-0.143 -0.596,-0.141 -0.574,0.387C-0.561,0.739 -0.36,1.025 -0.264,1.359C-0.188,1.619 -0.109,1.944 -0.139,2.217C-0.148,2.305 -0.072,2.372 0,2.4" style="fill:rgb(35,31,32);fill-rule:nonzero;"/>
            </g>
        </g>
        <g transform="matrix(5.55556,0,0,5.55556,18159.4,9566.93)">
            <g transform="matrix(-0.833121,0.553091,0.553091,0.833121,424.899,111.182)">
                <path d="M0.559,-1.83C0.66,-1.104 0.933,-0.515 1.197,0.156C1.349,0.545 0.789,0.78 0.559,0.467C0.102,-0.16 -0.092,-1.028 -0.144,-1.789C-0.175,-2.247 0.496,-2.273 0.559,-1.83" style="fill:rgb(35,31,32);fill-rule:nonzero;"/>
            </g>
        </g>
        <g transform="matrix(5.55556,0,0,5.55556,18159.4,9566.93)">
            <g transform="matrix(-0.8825,0.470312,0.470312,0.8825,425.923,114.808)">
                <path d="M0.558,-2.568C0.853,-1.827 1.008,-1.038 1.279,-0.286C1.44,0.154 0.708,0.328 0.558,-0.125C0.309,-0.876 0.094,-1.657 0.034,-2.449C0.014,-2.718 0.458,-2.82 0.558,-2.568" style="fill:rgb(35,31,32);fill-rule:nonzero;"/>
            </g>
        </g>
        <g transform="matrix(5.55556,0,0,5.55556,18159.4,9566.93)">
            <g transform="matrix(1,0,0,1,422.565,115.397)">
                <path d="M0,-1.963C0.111,-1.638 0.256,-1.36 0.303,-1.015C0.345,-0.7 0.373,-0.384 0.398,-0.067C0.427,0.297 1.007,0.286 0.961,-0.067C0.867,-0.783 0.818,-1.585 0.296,-2.135C0.178,-2.26 -0.058,-2.132 0,-1.963" style="fill:rgb(35,31,32);fill-rule:nonzero;"/>
            </g>
        </g>
        <g transform="matrix(5.55556,0,0,5.55556,18159.4,9566.93)">
            <g transform="matrix(1,0,0,1,422.469,110.127)">
                <path d="M0,2.155C0.108,1.822 -0.002,1.493 -0.101,1.169C-0.208,0.817 -0.342,0.453 -0.524,0.133C-0.767,-0.29 -1.371,0.081 -1.169,0.509C-0.936,1.005 -0.566,1.53 -0.503,2.087C-0.472,2.365 -0.095,2.445 0,2.155" style="fill:rgb(35,31,32);fill-rule:nonzero;"/>
            </g>
        </g>
    </g>
</svg>
