<svg clip-rule="evenodd" fill-rule="evenodd" stroke-miterlimit="10" viewBox="0 0 356 142" xmlns="http://www.w3.org/2000/svg"><g fill-rule="nonzero"><path d="m0 25.662h-62.681c-3.934 0-7.152-3.219-7.152-7.152v-11.357c0-3.935 3.218-7.153 7.152-7.153h62.681c3.934 0 7.152 3.218 7.152 7.153v11.357c0 3.933-3.218 7.152-7.152 7.152z" fill="#cae7e4" stroke="#8acbcd" stroke-width=".83" transform="matrix(4.16667 0 0 4.16667 308.36590803 17.44772742)"/><g fill="#231f20"><path d="m.259-.514c-.001-.023-.003-.04-.007-.051s-.011-.016-.021-.017c-.001.001-.005.001-.011.001l-.033.003c-.005.001-.01.001-.013.001-.036 0-.054-.016-.054-.047s.017-.047.052-.047h.016l.021.003h.005c.001.001.003.001.004.001.005.001.011.001.016.001h.012c.01 0 .019 0 .027-.001.008 0 .015 0 .022-.001h-.001c.021-.002.034-.003.039-.003.011 0 .019.002.026.006s.012.009.015.016c.003.01.005.021.005.034v.009c0 .005 0 .01-.001.015-.001.033-.002.065-.003.096-.001.032-.002.062-.002.089v.143c0 .013 0 .028.001.045 0 .008 0 .015.001.022v.018c.001.008.001.016.001.023v.017c.001.035.011.053.028.053.003 0 .008 0 .013-.001.005 0 .011 0 .018-.001.006-.001.012-.001.018-.002s.011-.001.014-.001c.042 0 .063.016.063.047s-.02.047-.059.047h-.017c-.005-.001-.011-.001-.016-.002-.027-.003-.05-.006-.07-.008s-.037-.003-.05-.003c-.027 0-.061.003-.102.009-.011.001-.021.003-.03.004s-.016.001-.021.001c-.039 0-.058-.016-.058-.048 0-.031.021-.047.064-.047h.017l.015.003.022.001c.001.001.003.001.004.001.013 0 .021-.006.026-.017.002-.009.004-.024.005-.046s.002-.051.002-.087z" transform="matrix(36.715029372 0 0 36.715029372 35.657773197 62.932763808)"/><path d="m.457-.289h.097c.032 0 .048.015.048.046s-.017.046-.05.046h-.095v.045c0 .045.009.067.027.067h.009l.022-.002.014-.001c.002 0 .004 0 .005-.001.039 0 .059.015.059.046s-.017.047-.051.047c-.017 0-.037-.002-.06-.006h.001c-.01-.001-.021-.003-.032-.004-.012-.001-.025-.001-.04-.001-.017 0-.043.002-.078.006-.036.004-.064.006-.083.006-.035 0-.053-.015-.053-.046 0-.032.02-.048.061-.048h.013l.031.003c.005.001.009.001.012.001.021 0 .032-.022.032-.067v-.045h-.281c-.041 0-.061-.017-.061-.052 0-.011.004-.024.013-.037l.256-.318c.013-.015.025-.029.036-.041.01-.011.019-.02.026-.025h-.001c.014-.012.032-.018.055-.018.045 0 .068.027.068.081zm-.314 0h.203c.001-.024.001-.046.002-.067.001-.02.001-.04.002-.06 0-.019 0-.039.001-.06s.001-.044.002-.069z" transform="matrix(36.715029372 0 0 36.715029372 55.303622247 62.932763808)"/><path d="m.308.021c-.088 0-.157-.031-.206-.094-.048-.062-.072-.147-.072-.256 0-.111.025-.198.076-.261.051-.065.122-.098.211-.098.086 0 .153.031.202.094.025.031.044.067.056.108s.018.088.018.14c0 .113-.025.203-.076.268-.05.066-.12.099-.209.099zm.007-.611c-.107 0-.162.083-.167.25v.015c0 .08.014.141.042.184.028.044.068.065.119.065.026 0 .049-.006.07-.019.021-.012.038-.03.053-.053.015-.022.026-.051.034-.084.007-.033.011-.07.011-.112 0-.08-.014-.141-.042-.183s-.068-.063-.12-.063z" transform="matrix(36.715029372 0 0 36.715029372 87.866148297 62.932763808)"/><path d="m.308.021c-.088 0-.157-.031-.206-.094-.048-.062-.072-.147-.072-.256 0-.111.025-.198.076-.261.051-.065.122-.098.211-.098.086 0 .153.031.202.094.025.031.044.067.056.108s.018.088.018.14c0 .113-.025.203-.076.268-.05.066-.12.099-.209.099zm.007-.611c-.107 0-.162.083-.167.25v.015c0 .08.014.141.042.184.028.044.068.065.119.065.026 0 .049-.006.07-.019.021-.012.038-.03.053-.053.015-.022.026-.051.034-.084.007-.033.011-.07.011-.112 0-.08-.014-.141-.042-.183s-.068-.063-.12-.063z" transform="matrix(36.715029372 0 0 36.715029372 111.253667007 62.932763808)"/><path d="m.308.021c-.088 0-.157-.031-.206-.094-.048-.062-.072-.147-.072-.256 0-.111.025-.198.076-.261.051-.065.122-.098.211-.098.086 0 .153.031.202.094.025.031.044.067.056.108s.018.088.018.14c0 .113-.025.203-.076.268-.05.066-.12.099-.209.099zm.007-.611c-.107 0-.162.083-.167.25v.015c0 .08.014.141.042.184.028.044.068.065.119.065.026 0 .049-.006.07-.019.021-.012.038-.03.053-.053.015-.022.026-.051.034-.084.007-.033.011-.07.011-.112 0-.08-.014-.141-.042-.183s-.068-.063-.12-.063z" transform="matrix(36.715029372 0 0 36.715029372 134.641185717 62.932763808)"/><path d="m.308.021c-.088 0-.157-.031-.206-.094-.048-.062-.072-.147-.072-.256 0-.111.025-.198.076-.261.051-.065.122-.098.211-.098.086 0 .153.031.202.094.025.031.044.067.056.108s.018.088.018.14c0 .113-.025.203-.076.268-.05.066-.12.099-.209.099zm.007-.611c-.107 0-.162.083-.167.25v.015c0 .08.014.141.042.184.028.044.068.065.119.065.026 0 .049-.006.07-.019.021-.012.038-.03.053-.053.015-.022.026-.051.034-.084.007-.033.011-.07.011-.112 0-.08-.014-.141-.042-.183s-.068-.063-.12-.063z" transform="matrix(36.715029372 0 0 36.715029372 167.207878437 62.932763808)"/><path d="m.308.021c-.088 0-.157-.031-.206-.094-.048-.062-.072-.147-.072-.256 0-.111.025-.198.076-.261.051-.065.122-.098.211-.098.086 0 .153.031.202.094.025.031.044.067.056.108s.018.088.018.14c0 .113-.025.203-.076.268-.05.066-.12.099-.209.099zm.007-.611c-.107 0-.162.083-.167.25v.015c0 .08.014.141.042.184.028.044.068.065.119.065.026 0 .049-.006.07-.019.021-.012.038-.03.053-.053.015-.022.026-.051.034-.084.007-.033.011-.07.011-.112 0-.08-.014-.141-.042-.183s-.068-.063-.12-.063z" transform="matrix(36.715029372 0 0 36.715029372 190.595397147 62.932763808)"/><path d="m.308.021c-.088 0-.157-.031-.206-.094-.048-.062-.072-.147-.072-.256 0-.111.025-.198.076-.261.051-.065.122-.098.211-.098.086 0 .153.031.202.094.025.031.044.067.056.108s.018.088.018.14c0 .113-.025.203-.076.268-.05.066-.12.099-.209.099zm.007-.611c-.107 0-.162.083-.167.25v.015c0 .08.014.141.042.184.028.044.068.065.119.065.026 0 .049-.006.07-.019.021-.012.038-.03.053-.053.015-.022.026-.051.034-.084.007-.033.011-.07.011-.112 0-.08-.014-.141-.042-.183s-.068-.063-.12-.063z" transform="matrix(36.715029372 0 0 36.715029372 213.982915857 62.932763808)"/><path d="m.209-.288c.023-.021.046-.042.068-.063.021-.021.044-.042.067-.063l.002-.004-.019.004c-.005.001-.011.002-.016.003s-.01.001-.015.001c-.033 0-.049-.015-.049-.044 0-.031.019-.046.058-.046h.011c.003.001.007.001.012.002h.005c.022.003.041.004.058.005.016.001.029.002.04.002l.03-.001.042-.006c.003-.001.007-.001.01-.002h.011c.041 0 .062.015.062.045 0 .029-.016.044-.048.044-.003 0-.007 0-.012-.001l-.023-.003h-.008c-.011 0-.024.007-.039.02l-.099.091h.001l-.006.006c0 .001 0 .002.001.001 0 0 .001.002.004.005l.121.158-.001-.001c.029.036.047.054.054.054l.012-.001c.003-.001.007-.001.01-.002s.006-.001.011-.001c.033 0 .05.014.05.043 0 .031-.02.046-.059.046-.006 0-.013 0-.022-.001s-.02-.002-.031-.003-.021-.002-.029-.003-.015-.001-.02-.001-.01 0-.017.001-.015.002-.025.003h.001c-.009.001-.018.002-.025.003-.008.001-.015.001-.021.001-.035 0-.052-.015-.052-.046 0-.029.017-.043.05-.043.011 0 .017 0 .019.001h.001c0 .001 0 .001.001.001l-.011-.018c-.015-.021-.031-.042-.047-.064-.017-.021-.033-.042-.048-.062l.001.001-.004-.006s-.001.001-.002.004l-.065.057v.054c0 .009.001.015.002.019.001.011.005.016.01.016s.009 0 .012-.001.007-.001.01-.002h.012c.032 0 .048.015.048.044 0 .03-.017.045-.052.045-.006 0-.013 0-.022-.001s-.018-.002-.029-.003-.021-.003-.028-.004c-.008-.001-.015-.001-.02-.001-.007 0-.014 0-.022.001s-.017.002-.026.003c-.012.001-.022.003-.03.004s-.015.001-.02.001c-.035 0-.053-.015-.053-.045 0-.029.017-.044.052-.044h.01c.003.001.007.001.01.002.005.001.01.002.013.002h.006c.005 0 .008-.008.009-.023l.003-.037v-.382c-.001-.034-.003-.054-.006-.06-.001-.003-.003-.005-.004-.005-.002 0-.005 0-.008.001h-.003c-.001.001-.003.001-.004.001-.005.002-.01.003-.015.003-.005.001-.01.001-.015.001-.031 0-.047-.014-.047-.042 0-.031.018-.046.053-.046h.018c.005 0 .008 0 .011.001h-.001c.013.002.022.003.027.003.001 0 .004 0 .01-.001s.011-.001.014-.002c.005-.001.009-.001.012-.002h.017c.031 0 .046.018.046.053z" transform="matrix(36.715029372 0 0 36.715029372 246.545441907 62.932763808)"/><path d="m.167-.499c.023 0 .036.01.04.03.018-.017.037-.03.056-.037s.042-.01.069-.01c.031 0 .058.005.08.014s.041.025.057.046c.019-.019.041-.033.066-.044.024-.011.052-.016.084-.016.038 0 .073.008.104.024.034.019.058.046.073.079.005.011.008.026.01.043s.003.037.003.06v.092l-.001.071v.03c0 .007 0 .013.001.016.002.015.005.022.008.022s.008-.001.015-.002c.005 0 .01 0 .018-.001.007-.001.009-.001.008-.002.032.001.048.015.048.041 0 .031-.018.047-.053.047-.005 0-.012 0-.019-.001-.008-.001-.017-.002-.027-.003-.019-.002-.033-.003-.042-.003h-.019c-.008.001-.017.002-.026.003s-.018.002-.027.003-.016.001-.021.001c-.037 0-.056-.016-.056-.047 0-.027.015-.041.046-.041h.004c.001.001.002.001.004.001l.015.001c.003.001.006.001.011.001.003 0 .004-.002.005-.006.003-.011.004-.036.005-.077l.001-.058v-.062c0-.041-.003-.071-.008-.09-.006-.018-.017-.032-.032-.041-.015-.01-.033-.015-.054-.015-.037 0-.064.013-.08.04-.013.023-.019.063-.019.122v.067c0 .028 0 .051.001.069.001.019.002.032.003.04.001.007.004.011.007.011h.005c.003 0 .006 0 .009-.001s.008-.001.013-.002.007-.001.006-.001c.013 0 .025.004.034.012.008.009.013.019.013.032 0 .03-.02.045-.06.045-.006 0-.013 0-.02-.001-.008-.001-.017-.002-.026-.003s-.017-.002-.023-.003c-.007-.001-.012-.001-.016-.001-.005 0-.012 0-.019.001-.008.001-.016.002-.023.003s-.015.002-.022.003-.014.001-.021.001c-.037 0-.055-.015-.055-.046 0-.028.015-.042.045-.042.008 0 .015.001.02.002.004.001.007.001.01.001.003.001.005.001.006.001.004 0 .006-.012.007-.035l.001-.044c.001-.007.001-.014.001-.022v-.02c.001-.005.001-.009.001-.012v-.083c0-.025-.001-.047-.004-.064s-.008-.03-.015-.041-.015-.018-.026-.023c-.011-.004-.024-.006-.04-.006-.037 0-.064.013-.082.04-.017.021-.025.062-.025.121v.126c0 .025 0 .04.001.043.002.013.004.02.005.02-.001 0 .005-.001.016-.003.003 0 .005 0 .007-.001h.009c.035 0 .053.015.053.044s-.02.044-.059.044c-.011 0-.025-.001-.042-.003-.011-.001-.02-.002-.029-.003s-.017-.001-.024-.001-.02.001-.039.003c-.014.001-.025.002-.033.003-.009.001-.015.001-.018.001-.036 0-.054-.015-.054-.046 0-.028.017-.042.052-.042h.007c.002.001.004.001.006.001l.028.005c.005-.003.008-.014.009-.033 0-.009 0-.018.001-.027s.001-.018.001-.027v-.145c0-.026 0-.047-.001-.063s-.003-.027-.004-.034-.003-.01-.007-.01c0 0-.003.001-.01.003l-.016.002h-.002c-.001.001-.001.001-.002.001h.003c-.002.001-.004.001-.007.001h-.007c-.034 0-.051-.015-.051-.044 0-.03.018-.045.054-.045h.013c.005.001.01.001.015.002s.011.001.017.001c.006.001.011.001.015.001.002 0 .004 0 .007-.001h.01z" transform="matrix(36.715029372 0 0 36.715029372 269.274626757 62.932763808)"/><path d="m.211-.218c-.011.006-.02.013-.029.02-.009.008-.017.017-.024.026.021-.01.044-.015.071-.015.043 0 .087.018.13.053.043.034.075.051.096.051.013 0 .023-.004.031-.013.007-.008.012-.019.013-.033-.006.003-.013.004-.022.004-.039 0-.058-.018-.058-.054 0-.019.007-.034.021-.046s.032-.018.055-.018c.029 0 .052.009.069.028s.026.046.026.079c0 .043-.014.08-.041.11-.028.031-.063.047-.104.047-.038 0-.082-.019-.132-.057-.045-.035-.083-.052-.116-.052-.018 0-.032.004-.041.013.02.004.03.017.03.039 0 .038-.021.057-.064.057-.026 0-.047-.01-.063-.031-.017-.02-.025-.048-.025-.083 0-.119.081-.204.243-.254l.069-.023c.033-.011.058-.027.077-.046s.028-.042.028-.067c0-.036-.012-.064-.037-.085-.025-.02-.06-.03-.103-.03-.036 0-.066.006-.09.019s-.04.03-.048.053c.033.007.049.026.049.057 0 .021-.007.038-.022.052-.015.015-.034.022-.057.022-.027 0-.048-.009-.064-.027-.017-.017-.025-.04-.025-.069 0-.055.026-.103.078-.142.049-.037.111-.055.185-.055.071 0 .13.019.177.056.047.039.071.089.071.148 0 .042-.011.079-.034.109-.023.032-.054.055-.095.072h.001c-.005.002-.018.006-.037.013-.02.007-.047.016-.08.027h.001c-.022.007-.042.015-.061.023s-.036.015-.049.022z" transform="matrix(21.404600457 0 0 21.404600457 303.345487347 50.707754028)"/><path d="m.46-.211c-.003-.007-.005-.011-.007-.013-.003-.001-.008-.002-.015-.002h-.171c-.008 0-.013.002-.016.005-.004.004-.008.014-.014.03l-.028.075c-.002.005-.003.01-.003.014 0 .012.007.018.021.018.003 0 .006 0 .011-.001l.03-.003h.013c.037 0 .056.016.056.047 0 .03-.02.045-.06.045h-.009c-.003-.001-.007-.001-.01-.002h-.004l-.048-.007c-.004-.001-.01-.001-.018-.002h-.05c-.009.001-.015.001-.019.002l-.04.006c-.009.001-.016.002-.023.003-.008.001-.014.001-.019.001-.036 0-.054-.015-.054-.045 0-.031.018-.047.053-.047.003 0 .006 0 .008-.001.001 0 .004.001.007.002h.009c.011 0 .019-.005.025-.014.004-.005.01-.02.018-.043l.179-.483c.012-.033.037-.049.076-.049.037 0 .062.016.074.049l.172.476c.009.026.018.043.025.052s.016.014.027.014c.005 0 .008 0 .01-.001l.02-.001c.003 0 .005 0 .007-.001.037 0 .055.015.055.044 0 .031-.018.046-.053.046h-.011c-.005 0-.009 0-.012-.001h-.004c-.001-.001-.002-.001-.003-.001-.02-.003-.037-.005-.052-.006s-.027-.001-.036-.001c-.011 0-.026.001-.045.002s-.042.003-.069.006c-.001 0-.003 0-.004.001h-.005c-.004.001-.008.001-.012.001h-.011c-.037 0-.055-.015-.055-.046s.02-.046.059-.046h.012l.029.003c.005.001.008.001.01.001.01 0 .015-.004.015-.013 0-.001 0-.002-.001-.004s-.002-.005-.003-.008l-.003-.009v.001zm-.181-.098c0 .001 0 .002.001.001zm0-.001c0-.001 0-.001.001-.002 0-.001 0-.002 0-.001-.001.001-.001.003-.001.004zm.001-.003c0-.001 0-.002.001-.003h-.003c.001.001.002.002.002.003zm.146.002c0-.002.001-.004.004-.005h-.006c.001.001.001.002.001.003s0 .001.001.002zm-.072-.221c-.013.036-.025.072-.037.108-.013.036-.025.072-.036.108h.143v-.002z" transform="matrix(48.953372496 0 0 48.953372496 59.50737561 112.05196977)"/><path d="m.163-.499c.025 0 .039.01.043.031.036-.032.081-.048.136-.048.037 0 .072.009.105.028h-.001c.035.02.058.044.069.071.01.023.015.053.015.089v.227c.001.011.003.017.007.02.003 0 .008 0 .013-.001.005 0 .01 0 .013-.001s.006-.001.009-.002h.01c.012 0 .023.004.032.012.009.009.014.019.014.03 0 .013-.005.024-.016.033-.011.01-.024.014-.039.014h-.015c-.007-.001-.015-.002-.022-.003-.01-.001-.021-.003-.032-.004-.012-.001-.022-.001-.031-.001h-.02c-.007.001-.014.001-.019.002-.015.002-.027.004-.036.005s-.015.001-.016.001c-.036 0-.054-.016-.054-.047 0-.028.016-.042.048-.042.003.001.005.001.008.001l.015.001c.003.001.006.001.008.001.002.001.004.001.005.001.002.001.003.001.004.001.005 0 .007-.013.008-.038 0-.008 0-.016.001-.025.001-.008.001-.016.001-.024l.001-.057v-.072c0-.03-.002-.052-.005-.067-.002-.01-.006-.019-.011-.028-.005-.008-.012-.015-.019-.02v.001c-.019-.013-.04-.02-.061-.02-.045 0-.077.016-.096.047-.013.023-.02.063-.02.12v.126c0 .023.001.038.003.046.001.008.004.012.008.012.001 0 .003 0 .006-.001s.007-.001.011-.002l.012-.003c.003-.001.008-.001.013-.001.031 0 .046.015.046.045 0 .03-.018.045-.054.045-.003 0-.01-.001-.019-.002-.01-.001-.021-.003-.033-.004-.013-.002-.028-.003-.044-.003-.006 0-.013 0-.021.001-.009.001-.019.002-.03.003l-.022.002c-.006.001-.012.002-.017.003h-.01c-.037 0-.056-.015-.056-.046 0-.029.015-.043.046-.043h.009c.002.001.004.001.007.002.009.002.018.003.027.003.008 0 .012-.014.013-.041 0-.017 0-.035.001-.053.001-.017.001-.035.001-.052v-.115l-.002-.033c-.001-.015-.003-.025-.004-.032-.001-.006-.004-.01-.007-.011-.001.001-.004.001-.009.001-.005.001-.008.001-.011.002-.004.001-.008.001-.011.001-.003.001-.007.001-.01.001-.033 0-.05-.015-.05-.044s.019-.044.058-.044c.003 0 .005 0 .007-.001.001 0 .003.001.006.002l.033.004c.003 0 .007 0 .012-.001l.026-.003z" transform="matrix(48.953372496 0 0 48.953372496 96.02823816 112.05196977)"/><path d="m.288-.205c.001-.035.018-.052.051-.052s.049.019.049.057c0 .036-.003.067-.008.091-.005.025-.013.046-.022.061-.027.04-.07.06-.131.06-.028 0-.052-.005-.072-.014-.021-.009-.037-.023-.049-.04-.018-.027-.027-.07-.027-.127v-.227c0-.005-.001-.007-.002-.007h-.03c-.015 0-.027-.005-.036-.014-.01-.009-.015-.02-.015-.033 0-.012.005-.023.015-.033.009-.009.02-.014.033-.014h.037v-.102c0-.033.018-.05.053-.05.033 0 .05.017.05.05v.101c0 .001 0 .001.001.001h.103c.035 0 .052.015.052.046 0 .032-.018.048-.054.048h-.105c.002.001.003.004.003.007v.233c0 .057.016.086.049.086.035 0 .053-.022.053-.067z" transform="matrix(48.953372496 0 0 48.953372496 127.21159644 112.05196977)"/><path d="m.452.012c-.049 0-.083-.017-.1-.05-.035.036-.084.054-.147.054-.057 0-.102-.014-.135-.042-.033-.027-.05-.064-.05-.11 0-.028.007-.053.021-.075.013-.021.032-.039.055-.052.018-.01.034-.017.047-.02s.038-.007.077-.012c.051-.005.083-.012.097-.021.011-.008.017-.023.017-.045 0-.021-.007-.038-.022-.051s-.037-.019-.064-.019c-.026 0-.05.007-.071.022v-.001c-.005.005-.007.007-.007.008h.001c.014.012.021.026.021.043s-.006.03-.018.041c-.013.011-.028.016-.047.016-.021 0-.039-.007-.053-.021-.014-.013-.021-.03-.021-.051 0-.04.02-.074.059-.101.037-.027.083-.041.137-.041.126 0 .189.06.189.179v.191c0 .013 0 .024.001.033 0 .01 0 .016.001.019.003.015.009.022.016.022.011 0 .017-.016.017-.047v-.047c0-.029.015-.043.045-.043.032 0 .048.019.048.058v.005l-.001.054c-.001.069-.039.104-.113.104zm-.071-.655c0 .021-.014.038-.043.05l-.136.06c-.003.001-.006.002-.009.002-.003.001-.006.001-.009.001-.024 0-.036-.012-.036-.036 0-.012.009-.024.028-.036l.119-.075c.005-.003.011-.006.018-.009.007-.002.013-.003.019-.003.033 0 .049.015.049.046zm-.049.416c-.004.001-.008.003-.011.004-.004.002-.008.004-.013.005-.018.006-.046.011-.085.014-.063.006-.094.028-.094.067 0 .019.007.035.022.046.014.012.034.018.059.018.038 0 .068-.01.089-.031s.031-.049.032-.085z" transform="matrix(48.953372496 0 0 48.953372496 146.79494544 112.05196977)"/><path d="m.162-.499c.022 0 .035.009.039.026.033-.029.072-.043.117-.043.025 0 .047.003.067.01s.037.017.052.03.026.029.034.047.012.038.012.06c0 .032-.008.058-.025.077-.017.02-.039.03-.067.03-.019 0-.035-.006-.048-.017s-.02-.025-.02-.042c0-.013.006-.025.017-.036.01-.011.023-.016.037-.016.001 0 .001 0 0-.001-.002-.001-.001 0 .002.001v-.005c0-.015-.006-.027-.019-.037s-.03-.015-.049-.015c-.042 0-.07.019-.084.058-.009.027-.014.066-.014.118v.109c0 .011 0 .018.001.021.003.029.008.044.013.044.004 0 .008 0 .011-.001.003 0 .007 0 .01-.001.009-.003.016-.004.023-.004.031 0 .046.014.046.043 0 .031-.018.047-.055.047h-.003c-.005 0-.012 0-.019-.001-.008-.001-.017-.002-.027-.003-.019-.002-.033-.003-.041-.003h-.033c-.009.001-.018.001-.025.002l-.054.005c-.037 0-.055-.016-.055-.047 0-.028.017-.042.052-.042.003 0 .006 0 .009-.001.002 0 .005.001.008.002l.012.003h.008c.001.001.002.001.003.001h.001c.006 0 .009-.01.01-.03 0-.008 0-.016.001-.024s.001-.016.001-.024l-.003-.215c-.001-.025-.005-.039-.01-.042l-.021.002h.002c-.008.002-.016.003-.025.003-.031 0-.047-.015-.047-.044 0-.031.019-.046.056-.046.001.001.005.001.012.001.007.001.013.001.018.002s.01.001.016.001c.005.001.008.001.011.001h.006c.002 0 .005 0 .008-.001.001 0 .003 0 .004-.001h.004c.007-.001.014-.002.021-.002z" transform="matrix(48.953372496 0 0 48.953372496 174.40330086 112.05196977)"/><path d="m.288-.205c.001-.035.018-.052.051-.052s.049.019.049.057c0 .036-.003.067-.008.091-.005.025-.013.046-.022.061-.027.04-.07.06-.131.06-.028 0-.052-.005-.072-.014-.021-.009-.037-.023-.049-.04-.018-.027-.027-.07-.027-.127v-.227c0-.005-.001-.007-.002-.007h-.03c-.015 0-.027-.005-.036-.014-.01-.009-.015-.02-.015-.033 0-.012.005-.023.015-.033.009-.009.02-.014.033-.014h.037v-.102c0-.033.018-.05.053-.05.033 0 .05.017.05.05v.101c0 .001 0 .001.001.001h.103c.035 0 .052.015.052.046 0 .032-.018.048-.054.048h-.105c.002.001.003.004.003.007v.233c0 .057.016.086.049.086.035 0 .053-.022.053-.067z" transform="matrix(48.953372496 0 0 48.953372496 199.3699875 112.05196977)"/><path d="m.211-.328v.199c0 .009 0 .016.001.019.002.02.005.03.009.03-.001 0 .001 0 .005-.001s.009-.002.015-.003l-.001.001c.002-.001.005-.001.008-.002s.006-.001.011-.001c.035 0 .052.015.052.044 0 .013-.005.024-.016.033s-.025.013-.042.013c-.005 0-.012 0-.02-.001s-.017-.002-.028-.003c-.01-.001-.019-.003-.026-.004s-.013-.001-.018-.001c-.007 0-.015 0-.024.001s-.019.002-.029.003c-.012.001-.022.003-.03.004-.009.001-.016.001-.021.001-.036 0-.054-.015-.054-.046 0-.029.016-.044.049-.044.001 0 .005 0 .012.001.006.001.011.001.015.002.005.001.008.002.011.002h.006c.005 0 .009-.016.011-.048v-.241c-.002-.031-.006-.047-.012-.047-.001 0-.004 0-.007.001s-.007.002-.012.003c-.003.001-.007.002-.011.002-.005.001-.008.001-.011.001-.034 0-.051-.015-.051-.044 0-.03.019-.045.058-.045h.018c.005 0 .008 0 .01.001.009.001.017.002.024.003.006.001.01.001.012.001.001 0 .004 0 .009-.001l.038-.004c.029 0 .043.017.043.05v.014c-.001.003-.001.005-.001.006v.004c-.001.002-.001.011-.001.028l-.001.03c-.001.013-.001.026-.001.039zm-.066-.195c-.019 0-.036-.006-.049-.019s-.02-.028-.02-.047.007-.034.02-.047c.013-.012.03-.018.049-.018s.036.006.05.018c.013.013.02.028.02.047s-.007.034-.02.047c-.014.013-.031.019-.05.019z" transform="matrix(48.953372496 0 0 48.953372496 218.94916983 112.05196977)"/><path d="m.257-.516c.025 0 .049.004.07.011.02.008.039.019.055.032v-.082c-.001-.007-.001-.012-.002-.015-.002-.009-.005-.014-.008-.017-.003.001-.006.001-.011.001-.005.001-.009.001-.012.001h.002c-.004.001-.008.002-.012.002-.005.001-.009.001-.012.001-.035 0-.052-.015-.052-.044 0-.03.021-.045.064-.045h.007l.022.002.03.003c.001 0 .004 0 .009-.001l.028-.003h.012c.029 0 .043.017.043.052v.015c-.001.001-.001.007-.001.02l-.001.025c0 .005-.001.03-.003.074l-.001.021c-.001.011-.001.02-.001.028v.115l.002.158c.001.021.001.038.002.05s.002.02.003.024c0 .004.002.006.007.006.003 0 .006 0 .009-.001.002 0 .004 0 .007-.001l.011-.001c.001-.001.004-.001.007-.001h.006c.034 0 .051.015.051.044 0 .031-.02.046-.059.046h-.013c-.006-.001-.012-.001-.017-.002h-.008c-.003-.001-.007-.001-.01-.002s-.007-.001-.011-.001h-.002c-.001.001-.002.001-.003.001h-.005c-.002 0-.005 0-.008.001h.002c-.008.002-.016.003-.024.003-.021 0-.035-.01-.04-.031-.033.029-.077.043-.131.043-.071 0-.126-.025-.167-.075-.042-.049-.063-.113-.063-.192 0-.039.006-.074.017-.107.01-.033.026-.061.045-.084.041-.049.097-.074.166-.074zm.119.346c.001-.011.002-.023.003-.036s.001-.027.001-.043c0-.021 0-.038-.001-.052-.001-.013-.003-.024-.004-.031-.005-.031-.017-.053-.035-.067-.024-.019-.05-.028-.077-.028-.039 0-.07.016-.092.046-.022.032-.033.074-.033.128 0 .057.012.101.035.132.023.032.054.048.094.048.03 0 .055-.009.075-.027.019-.017.031-.041.034-.07z" transform="matrix(48.953372496 0 0 48.953372496 234.12418197 112.05196977)"/><path d="m.452.012c-.049 0-.083-.017-.1-.05-.035.036-.084.054-.147.054-.057 0-.102-.014-.135-.042-.033-.027-.05-.064-.05-.11 0-.028.007-.053.021-.075.013-.021.032-.039.055-.052.018-.01.034-.017.047-.02s.038-.007.077-.012c.051-.005.083-.012.097-.021.011-.008.017-.023.017-.045 0-.021-.007-.038-.022-.051s-.037-.019-.064-.019c-.026 0-.05.007-.071.022v-.001c-.005.005-.007.007-.007.008h.001c.014.012.021.026.021.043s-.006.03-.018.041c-.013.011-.028.016-.047.016-.021 0-.039-.007-.053-.021-.014-.013-.021-.03-.021-.051 0-.04.02-.074.059-.101.037-.027.083-.041.137-.041.126 0 .189.06.189.179v.191c0 .013 0 .024.001.033 0 .01 0 .016.001.019.003.015.009.022.016.022.011 0 .017-.016.017-.047v-.047c0-.029.015-.043.045-.043.032 0 .048.019.048.058v.005l-.001.054c-.001.069-.039.104-.113.104zm-.12-.239c-.004.001-.008.003-.011.004-.004.002-.008.004-.013.005-.018.006-.046.011-.085.014-.063.006-.094.028-.094.067 0 .019.007.035.022.046.014.012.034.018.059.018.038 0 .068-.01.089-.031s.031-.049.032-.085z" transform="matrix(48.953372496 0 0 48.953372496 263.49920547 112.05196977)"/></g></g></svg>