<?xml version="1.0" encoding="UTF-8" standalone="no"?>
<!DOCTYPE svg PUBLIC "-//W3C//DTD SVG 1.1//EN" "http://www.w3.org/Graphics/SVG/1.1/DTD/svg11.dtd">
<svg width="100%" height="100%" viewBox="0 0 360 146" version="1.1" xmlns="http://www.w3.org/2000/svg" xmlns:xlink="http://www.w3.org/1999/xlink" xml:space="preserve" xmlns:serif="http://www.serif.com/" style="fill-rule:evenodd;clip-rule:evenodd;stroke-miterlimit:10;">
    <g transform="matrix(1,0,0,1,-1590,-123)">
        <g transform="matrix(4.16667,0,0,4.16667,-111.006,-409.162)">
            <g transform="matrix(1,0,0,1,482.696,132.364)">
                <path d="M0,25.662L-62.68,25.662C-66.615,25.662 -69.833,22.444 -69.833,18.51L-69.833,7.152C-69.833,3.218 -66.615,0 -62.68,0L0,0C3.934,0 7.152,3.218 7.152,7.152L7.152,18.51C7.152,22.444 3.934,25.662 0,25.662Z" style="fill:rgb(255,240,189);fill-rule:nonzero;stroke:rgb(255,212,0);stroke-width:0.91px;"/>
            </g>
            <g>
                <g transform="matrix(8.9245,0,0,8.9245,417.013,142.427)">
                    <path d="M0.259,-0.514C0.258,-0.537 0.256,-0.554 0.252,-0.565C0.248,-0.576 0.241,-0.581 0.231,-0.582C0.23,-0.581 0.226,-0.581 0.22,-0.581L0.187,-0.578C0.182,-0.577 0.177,-0.577 0.174,-0.577C0.138,-0.577 0.12,-0.593 0.12,-0.624C0.12,-0.655 0.137,-0.671 0.172,-0.671L0.188,-0.671C0.195,-0.67 0.202,-0.669 0.209,-0.668L0.214,-0.668C0.215,-0.667 0.217,-0.667 0.218,-0.667C0.223,-0.666 0.229,-0.666 0.234,-0.666L0.246,-0.666C0.256,-0.666 0.265,-0.666 0.273,-0.667C0.281,-0.667 0.288,-0.667 0.295,-0.668L0.294,-0.668C0.315,-0.67 0.328,-0.671 0.333,-0.671C0.344,-0.671 0.352,-0.669 0.359,-0.665C0.366,-0.661 0.371,-0.656 0.374,-0.649C0.377,-0.639 0.379,-0.628 0.379,-0.615L0.379,-0.606C0.379,-0.601 0.379,-0.596 0.378,-0.591C0.377,-0.558 0.376,-0.526 0.375,-0.495C0.374,-0.463 0.373,-0.433 0.373,-0.406L0.373,-0.263C0.373,-0.25 0.373,-0.235 0.374,-0.218C0.374,-0.21 0.374,-0.203 0.375,-0.196L0.375,-0.178C0.376,-0.17 0.376,-0.162 0.376,-0.155L0.376,-0.138C0.377,-0.103 0.387,-0.085 0.404,-0.085C0.407,-0.085 0.412,-0.085 0.417,-0.086C0.422,-0.086 0.428,-0.086 0.435,-0.087C0.441,-0.088 0.447,-0.088 0.453,-0.089C0.459,-0.09 0.464,-0.09 0.467,-0.09C0.509,-0.09 0.53,-0.074 0.53,-0.043C0.53,-0.012 0.51,0.004 0.471,0.004L0.454,0.004C0.449,0.003 0.443,0.003 0.438,0.002C0.411,-0.001 0.388,-0.004 0.368,-0.006C0.348,-0.008 0.331,-0.009 0.318,-0.009C0.291,-0.009 0.257,-0.006 0.216,0C0.205,0.001 0.195,0.003 0.186,0.004C0.177,0.005 0.17,0.005 0.165,0.005C0.126,0.005 0.107,-0.011 0.107,-0.043C0.107,-0.074 0.128,-0.09 0.171,-0.09L0.188,-0.09C0.193,-0.089 0.198,-0.088 0.203,-0.087L0.225,-0.086C0.226,-0.085 0.228,-0.085 0.229,-0.085C0.242,-0.085 0.25,-0.091 0.255,-0.102C0.257,-0.111 0.259,-0.126 0.26,-0.148C0.261,-0.17 0.262,-0.199 0.262,-0.235L0.259,-0.514Z" style="fill:rgb(35,31,32);fill-rule:nonzero;"/>
                </g>
                <g transform="matrix(8.9245,0,0,8.9245,421.965,142.427)">
                    <path d="M0.308,0.021C0.22,0.021 0.151,-0.01 0.102,-0.073C0.054,-0.135 0.03,-0.22 0.03,-0.329C0.03,-0.44 0.055,-0.527 0.106,-0.59C0.157,-0.655 0.228,-0.688 0.317,-0.688C0.403,-0.688 0.47,-0.657 0.519,-0.594C0.544,-0.563 0.563,-0.527 0.575,-0.486C0.587,-0.445 0.593,-0.398 0.593,-0.346C0.593,-0.233 0.568,-0.143 0.517,-0.078C0.467,-0.012 0.397,0.021 0.308,0.021ZM0.315,-0.59C0.208,-0.59 0.153,-0.507 0.148,-0.34L0.148,-0.325C0.148,-0.245 0.162,-0.184 0.19,-0.141C0.218,-0.097 0.258,-0.076 0.309,-0.076C0.335,-0.076 0.358,-0.082 0.379,-0.095C0.4,-0.107 0.417,-0.125 0.432,-0.148C0.447,-0.17 0.458,-0.199 0.466,-0.232C0.473,-0.265 0.477,-0.302 0.477,-0.344C0.477,-0.424 0.463,-0.485 0.435,-0.527C0.407,-0.569 0.367,-0.59 0.315,-0.59Z" style="fill:rgb(35,31,32);fill-rule:nonzero;"/>
                </g>
                <g transform="matrix(8.9245,0,0,8.9245,429.881,142.427)">
                    <path d="M0.259,-0.514C0.258,-0.537 0.256,-0.554 0.252,-0.565C0.248,-0.576 0.241,-0.581 0.231,-0.582C0.23,-0.581 0.226,-0.581 0.22,-0.581L0.187,-0.578C0.182,-0.577 0.177,-0.577 0.174,-0.577C0.138,-0.577 0.12,-0.593 0.12,-0.624C0.12,-0.655 0.137,-0.671 0.172,-0.671L0.188,-0.671C0.195,-0.67 0.202,-0.669 0.209,-0.668L0.214,-0.668C0.215,-0.667 0.217,-0.667 0.218,-0.667C0.223,-0.666 0.229,-0.666 0.234,-0.666L0.246,-0.666C0.256,-0.666 0.265,-0.666 0.273,-0.667C0.281,-0.667 0.288,-0.667 0.295,-0.668L0.294,-0.668C0.315,-0.67 0.328,-0.671 0.333,-0.671C0.344,-0.671 0.352,-0.669 0.359,-0.665C0.366,-0.661 0.371,-0.656 0.374,-0.649C0.377,-0.639 0.379,-0.628 0.379,-0.615L0.379,-0.606C0.379,-0.601 0.379,-0.596 0.378,-0.591C0.377,-0.558 0.376,-0.526 0.375,-0.495C0.374,-0.463 0.373,-0.433 0.373,-0.406L0.373,-0.263C0.373,-0.25 0.373,-0.235 0.374,-0.218C0.374,-0.21 0.374,-0.203 0.375,-0.196L0.375,-0.178C0.376,-0.17 0.376,-0.162 0.376,-0.155L0.376,-0.138C0.377,-0.103 0.387,-0.085 0.404,-0.085C0.407,-0.085 0.412,-0.085 0.417,-0.086C0.422,-0.086 0.428,-0.086 0.435,-0.087C0.441,-0.088 0.447,-0.088 0.453,-0.089C0.459,-0.09 0.464,-0.09 0.467,-0.09C0.509,-0.09 0.53,-0.074 0.53,-0.043C0.53,-0.012 0.51,0.004 0.471,0.004L0.454,0.004C0.449,0.003 0.443,0.003 0.438,0.002C0.411,-0.001 0.388,-0.004 0.368,-0.006C0.348,-0.008 0.331,-0.009 0.318,-0.009C0.291,-0.009 0.257,-0.006 0.216,0C0.205,0.001 0.195,0.003 0.186,0.004C0.177,0.005 0.17,0.005 0.165,0.005C0.126,0.005 0.107,-0.011 0.107,-0.043C0.107,-0.074 0.128,-0.09 0.171,-0.09L0.188,-0.09C0.193,-0.089 0.198,-0.088 0.203,-0.087L0.225,-0.086C0.226,-0.085 0.228,-0.085 0.229,-0.085C0.242,-0.085 0.25,-0.091 0.255,-0.102C0.257,-0.111 0.259,-0.126 0.26,-0.148C0.261,-0.17 0.262,-0.199 0.262,-0.235L0.259,-0.514Z" style="fill:rgb(35,31,32);fill-rule:nonzero;"/>
                </g>
                <g transform="matrix(8.9245,0,0,8.9245,434.933,142.427)">
                    <path d="M0.113,-0.351C0.119,-0.356 0.126,-0.361 0.134,-0.365C0.141,-0.369 0.15,-0.373 0.159,-0.377C0.146,-0.386 0.135,-0.394 0.126,-0.402C0.117,-0.409 0.109,-0.417 0.104,-0.424C0.089,-0.446 0.082,-0.472 0.082,-0.503C0.082,-0.529 0.088,-0.553 0.1,-0.576C0.111,-0.598 0.128,-0.618 0.149,-0.635C0.194,-0.67 0.249,-0.688 0.313,-0.688C0.376,-0.688 0.43,-0.67 0.475,-0.635C0.496,-0.618 0.513,-0.598 0.525,-0.575C0.537,-0.552 0.543,-0.528 0.543,-0.503C0.543,-0.475 0.538,-0.452 0.527,-0.433C0.516,-0.414 0.495,-0.396 0.466,-0.377C0.483,-0.37 0.498,-0.361 0.511,-0.351C0.56,-0.316 0.585,-0.265 0.585,-0.2C0.585,-0.135 0.56,-0.081 0.509,-0.039C0.46,0.001 0.395,0.021 0.315,0.021C0.233,0.021 0.167,0.001 0.116,-0.038C0.065,-0.079 0.039,-0.133 0.039,-0.2C0.039,-0.263 0.064,-0.314 0.113,-0.351ZM0.313,-0.593C0.279,-0.593 0.251,-0.585 0.23,-0.568C0.208,-0.551 0.197,-0.53 0.197,-0.503C0.197,-0.48 0.208,-0.461 0.229,-0.447C0.25,-0.432 0.278,-0.425 0.313,-0.425C0.347,-0.425 0.375,-0.432 0.396,-0.447C0.417,-0.462 0.427,-0.481 0.427,-0.504C0.427,-0.531 0.416,-0.552 0.395,-0.569C0.374,-0.585 0.346,-0.593 0.313,-0.593ZM0.316,-0.325C0.266,-0.325 0.227,-0.314 0.199,-0.292C0.171,-0.269 0.157,-0.239 0.157,-0.201C0.157,-0.163 0.171,-0.132 0.2,-0.109C0.228,-0.086 0.266,-0.074 0.313,-0.074C0.36,-0.074 0.397,-0.086 0.426,-0.109C0.454,-0.132 0.468,-0.163 0.468,-0.201C0.468,-0.239 0.454,-0.269 0.427,-0.292C0.399,-0.314 0.362,-0.325 0.316,-0.325Z" style="fill:rgb(35,31,32);fill-rule:nonzero;"/>
                </g>
                <g transform="matrix(8.9245,0,0,8.9245,440.618,142.427)">
                    <path d="M0.308,0.021C0.22,0.021 0.151,-0.01 0.102,-0.073C0.054,-0.135 0.03,-0.22 0.03,-0.329C0.03,-0.44 0.055,-0.527 0.106,-0.59C0.157,-0.655 0.228,-0.688 0.317,-0.688C0.403,-0.688 0.47,-0.657 0.519,-0.594C0.544,-0.563 0.563,-0.527 0.575,-0.486C0.587,-0.445 0.593,-0.398 0.593,-0.346C0.593,-0.233 0.568,-0.143 0.517,-0.078C0.467,-0.012 0.397,0.021 0.308,0.021ZM0.315,-0.59C0.208,-0.59 0.153,-0.507 0.148,-0.34L0.148,-0.325C0.148,-0.245 0.162,-0.184 0.19,-0.141C0.218,-0.097 0.258,-0.076 0.309,-0.076C0.335,-0.076 0.358,-0.082 0.379,-0.095C0.4,-0.107 0.417,-0.125 0.432,-0.148C0.447,-0.17 0.458,-0.199 0.466,-0.232C0.473,-0.265 0.477,-0.302 0.477,-0.344C0.477,-0.424 0.463,-0.485 0.435,-0.527C0.407,-0.569 0.367,-0.59 0.315,-0.59Z" style="fill:rgb(35,31,32);fill-rule:nonzero;"/>
                </g>
                <g transform="matrix(8.9245,0,0,8.9245,448.534,142.427)">
                    <path d="M0.308,0.021C0.22,0.021 0.151,-0.01 0.102,-0.073C0.054,-0.135 0.03,-0.22 0.03,-0.329C0.03,-0.44 0.055,-0.527 0.106,-0.59C0.157,-0.655 0.228,-0.688 0.317,-0.688C0.403,-0.688 0.47,-0.657 0.519,-0.594C0.544,-0.563 0.563,-0.527 0.575,-0.486C0.587,-0.445 0.593,-0.398 0.593,-0.346C0.593,-0.233 0.568,-0.143 0.517,-0.078C0.467,-0.012 0.397,0.021 0.308,0.021ZM0.315,-0.59C0.208,-0.59 0.153,-0.507 0.148,-0.34L0.148,-0.325C0.148,-0.245 0.162,-0.184 0.19,-0.141C0.218,-0.097 0.258,-0.076 0.309,-0.076C0.335,-0.076 0.358,-0.082 0.379,-0.095C0.4,-0.107 0.417,-0.125 0.432,-0.148C0.447,-0.17 0.458,-0.199 0.466,-0.232C0.473,-0.265 0.477,-0.302 0.477,-0.344C0.477,-0.424 0.463,-0.485 0.435,-0.527C0.407,-0.569 0.367,-0.59 0.315,-0.59Z" style="fill:rgb(35,31,32);fill-rule:nonzero;"/>
                </g>
                <g transform="matrix(8.9245,0,0,8.9245,454.218,142.427)">
                    <path d="M0.308,0.021C0.22,0.021 0.151,-0.01 0.102,-0.073C0.054,-0.135 0.03,-0.22 0.03,-0.329C0.03,-0.44 0.055,-0.527 0.106,-0.59C0.157,-0.655 0.228,-0.688 0.317,-0.688C0.403,-0.688 0.47,-0.657 0.519,-0.594C0.544,-0.563 0.563,-0.527 0.575,-0.486C0.587,-0.445 0.593,-0.398 0.593,-0.346C0.593,-0.233 0.568,-0.143 0.517,-0.078C0.467,-0.012 0.397,0.021 0.308,0.021ZM0.315,-0.59C0.208,-0.59 0.153,-0.507 0.148,-0.34L0.148,-0.325C0.148,-0.245 0.162,-0.184 0.19,-0.141C0.218,-0.097 0.258,-0.076 0.309,-0.076C0.335,-0.076 0.358,-0.082 0.379,-0.095C0.4,-0.107 0.417,-0.125 0.432,-0.148C0.447,-0.17 0.458,-0.199 0.466,-0.232C0.473,-0.265 0.477,-0.302 0.477,-0.344C0.477,-0.424 0.463,-0.485 0.435,-0.527C0.407,-0.569 0.367,-0.59 0.315,-0.59Z" style="fill:rgb(35,31,32);fill-rule:nonzero;"/>
                </g>
                <g transform="matrix(8.9245,0,0,8.9245,459.903,142.427)">
                    <path d="M0.308,0.021C0.22,0.021 0.151,-0.01 0.102,-0.073C0.054,-0.135 0.03,-0.22 0.03,-0.329C0.03,-0.44 0.055,-0.527 0.106,-0.59C0.157,-0.655 0.228,-0.688 0.317,-0.688C0.403,-0.688 0.47,-0.657 0.519,-0.594C0.544,-0.563 0.563,-0.527 0.575,-0.486C0.587,-0.445 0.593,-0.398 0.593,-0.346C0.593,-0.233 0.568,-0.143 0.517,-0.078C0.467,-0.012 0.397,0.021 0.308,0.021ZM0.315,-0.59C0.208,-0.59 0.153,-0.507 0.148,-0.34L0.148,-0.325C0.148,-0.245 0.162,-0.184 0.19,-0.141C0.218,-0.097 0.258,-0.076 0.309,-0.076C0.335,-0.076 0.358,-0.082 0.379,-0.095C0.4,-0.107 0.417,-0.125 0.432,-0.148C0.447,-0.17 0.458,-0.199 0.466,-0.232C0.473,-0.265 0.477,-0.302 0.477,-0.344C0.477,-0.424 0.463,-0.485 0.435,-0.527C0.407,-0.569 0.367,-0.59 0.315,-0.59Z" style="fill:rgb(35,31,32);fill-rule:nonzero;"/>
                </g>
                <g transform="matrix(8.9245,0,0,8.9245,467.819,142.427)">
                    <path d="M0.209,-0.288C0.232,-0.309 0.255,-0.33 0.277,-0.351C0.298,-0.372 0.321,-0.393 0.344,-0.414L0.346,-0.418L0.327,-0.414C0.322,-0.413 0.316,-0.412 0.311,-0.411C0.306,-0.41 0.301,-0.41 0.296,-0.41C0.263,-0.41 0.247,-0.425 0.247,-0.454C0.247,-0.485 0.266,-0.5 0.305,-0.5L0.316,-0.5C0.319,-0.499 0.323,-0.499 0.328,-0.498L0.333,-0.498C0.355,-0.495 0.374,-0.494 0.391,-0.493C0.407,-0.492 0.42,-0.491 0.431,-0.491L0.461,-0.492L0.503,-0.498C0.506,-0.499 0.51,-0.499 0.513,-0.5L0.524,-0.5C0.565,-0.5 0.586,-0.485 0.586,-0.455C0.586,-0.426 0.57,-0.411 0.538,-0.411C0.535,-0.411 0.531,-0.411 0.526,-0.412L0.503,-0.415L0.495,-0.415C0.484,-0.415 0.471,-0.408 0.456,-0.395L0.357,-0.304L0.358,-0.304L0.352,-0.298C0.352,-0.297 0.352,-0.296 0.353,-0.297C0.353,-0.297 0.354,-0.295 0.357,-0.292L0.478,-0.134L0.477,-0.135C0.506,-0.099 0.524,-0.081 0.531,-0.081L0.543,-0.082C0.546,-0.083 0.55,-0.083 0.553,-0.084C0.556,-0.085 0.559,-0.085 0.564,-0.085C0.597,-0.085 0.614,-0.071 0.614,-0.042C0.614,-0.011 0.594,0.004 0.555,0.004C0.549,0.004 0.542,0.004 0.533,0.003C0.524,0.002 0.513,0.001 0.502,0C0.491,-0.001 0.481,-0.002 0.473,-0.003C0.465,-0.004 0.458,-0.004 0.453,-0.004C0.448,-0.004 0.443,-0.004 0.436,-0.003C0.429,-0.002 0.421,-0.001 0.411,0L0.412,0C0.403,0.001 0.394,0.002 0.387,0.003C0.379,0.004 0.372,0.004 0.366,0.004C0.331,0.004 0.314,-0.011 0.314,-0.042C0.314,-0.071 0.331,-0.085 0.364,-0.085C0.375,-0.085 0.381,-0.085 0.383,-0.084L0.384,-0.084C0.384,-0.083 0.384,-0.083 0.385,-0.083L0.374,-0.101C0.359,-0.122 0.343,-0.143 0.327,-0.165C0.31,-0.186 0.294,-0.207 0.279,-0.227L0.28,-0.226L0.276,-0.232C0.276,-0.232 0.275,-0.231 0.274,-0.228L0.209,-0.171L0.209,-0.117C0.209,-0.108 0.21,-0.102 0.211,-0.098C0.212,-0.087 0.216,-0.082 0.221,-0.082C0.226,-0.082 0.23,-0.082 0.233,-0.083C0.236,-0.084 0.24,-0.084 0.243,-0.085L0.255,-0.085C0.287,-0.085 0.303,-0.07 0.303,-0.041C0.303,-0.011 0.286,0.004 0.251,0.004C0.245,0.004 0.238,0.004 0.229,0.003C0.22,0.002 0.211,0.001 0.2,0C0.189,-0.001 0.179,-0.003 0.172,-0.004C0.164,-0.005 0.157,-0.005 0.152,-0.005C0.145,-0.005 0.138,-0.005 0.13,-0.004C0.122,-0.003 0.113,-0.002 0.104,-0.001C0.092,0 0.082,0.002 0.074,0.003C0.066,0.004 0.059,0.004 0.054,0.004C0.019,0.004 0.001,-0.011 0.001,-0.041C0.001,-0.07 0.018,-0.085 0.053,-0.085L0.063,-0.085C0.066,-0.084 0.07,-0.084 0.073,-0.083C0.078,-0.082 0.083,-0.081 0.086,-0.081L0.092,-0.081C0.097,-0.081 0.1,-0.089 0.101,-0.104L0.104,-0.141L0.104,-0.523C0.103,-0.557 0.101,-0.577 0.098,-0.583C0.097,-0.586 0.095,-0.588 0.094,-0.588C0.092,-0.588 0.089,-0.588 0.086,-0.587L0.083,-0.587C0.082,-0.586 0.08,-0.586 0.079,-0.586C0.074,-0.584 0.069,-0.583 0.064,-0.583C0.059,-0.582 0.054,-0.582 0.049,-0.582C0.018,-0.582 0.002,-0.596 0.002,-0.624C0.002,-0.655 0.02,-0.67 0.055,-0.67L0.073,-0.67C0.078,-0.67 0.081,-0.67 0.084,-0.669L0.083,-0.669C0.096,-0.667 0.105,-0.666 0.11,-0.666C0.111,-0.666 0.114,-0.666 0.12,-0.667C0.126,-0.668 0.131,-0.668 0.134,-0.669C0.139,-0.67 0.143,-0.67 0.146,-0.671L0.163,-0.671C0.194,-0.671 0.209,-0.653 0.209,-0.618L0.209,-0.288Z" style="fill:rgb(35,31,32);fill-rule:nonzero;"/>
                </g>
                <g transform="matrix(8.9245,0,0,8.9245,473.343,142.427)">
                    <path d="M0.167,-0.499C0.19,-0.499 0.203,-0.489 0.207,-0.469C0.225,-0.486 0.244,-0.499 0.263,-0.506C0.282,-0.513 0.305,-0.516 0.332,-0.516C0.363,-0.516 0.39,-0.511 0.412,-0.502C0.434,-0.493 0.453,-0.477 0.469,-0.456C0.488,-0.475 0.51,-0.489 0.535,-0.5C0.559,-0.511 0.587,-0.516 0.619,-0.516C0.657,-0.516 0.692,-0.508 0.723,-0.492C0.757,-0.473 0.781,-0.446 0.796,-0.413C0.801,-0.402 0.804,-0.387 0.806,-0.37C0.808,-0.353 0.809,-0.333 0.809,-0.31L0.809,-0.218L0.808,-0.147L0.808,-0.117C0.808,-0.11 0.808,-0.104 0.809,-0.101C0.811,-0.086 0.814,-0.079 0.817,-0.079C0.82,-0.079 0.825,-0.08 0.832,-0.081C0.837,-0.081 0.842,-0.081 0.85,-0.082C0.857,-0.083 0.859,-0.083 0.858,-0.084C0.89,-0.083 0.906,-0.069 0.906,-0.043C0.906,-0.012 0.888,0.004 0.853,0.004C0.848,0.004 0.841,0.004 0.834,0.003C0.826,0.002 0.817,0.001 0.807,0C0.788,-0.002 0.774,-0.003 0.765,-0.003L0.746,-0.003C0.738,-0.002 0.729,-0.001 0.72,0C0.711,0.001 0.702,0.002 0.693,0.003C0.684,0.004 0.677,0.004 0.672,0.004C0.635,0.004 0.616,-0.012 0.616,-0.043C0.616,-0.07 0.631,-0.084 0.662,-0.084L0.666,-0.084C0.667,-0.083 0.668,-0.083 0.67,-0.083L0.685,-0.082C0.688,-0.081 0.691,-0.081 0.696,-0.081C0.699,-0.081 0.7,-0.083 0.701,-0.087C0.704,-0.098 0.705,-0.123 0.706,-0.164L0.707,-0.222L0.707,-0.284C0.707,-0.325 0.704,-0.355 0.699,-0.374C0.693,-0.392 0.682,-0.406 0.667,-0.415C0.652,-0.425 0.634,-0.43 0.613,-0.43C0.576,-0.43 0.549,-0.417 0.533,-0.39C0.52,-0.367 0.514,-0.327 0.514,-0.268L0.514,-0.201C0.514,-0.173 0.514,-0.15 0.515,-0.132C0.516,-0.113 0.517,-0.1 0.518,-0.092C0.519,-0.085 0.522,-0.081 0.525,-0.081L0.53,-0.081C0.533,-0.081 0.536,-0.081 0.539,-0.082C0.542,-0.083 0.547,-0.083 0.552,-0.084C0.557,-0.085 0.559,-0.085 0.558,-0.085C0.571,-0.085 0.583,-0.081 0.592,-0.073C0.6,-0.064 0.605,-0.054 0.605,-0.041C0.605,-0.011 0.585,0.004 0.545,0.004C0.539,0.004 0.532,0.004 0.525,0.003C0.517,0.002 0.508,0.001 0.499,0C0.49,-0.001 0.482,-0.002 0.476,-0.003C0.469,-0.004 0.464,-0.004 0.46,-0.004C0.455,-0.004 0.448,-0.004 0.441,-0.003C0.433,-0.002 0.425,-0.001 0.418,0C0.411,0.001 0.403,0.002 0.396,0.003C0.389,0.004 0.382,0.004 0.375,0.004C0.338,0.004 0.32,-0.011 0.32,-0.042C0.32,-0.07 0.335,-0.084 0.365,-0.084C0.373,-0.084 0.38,-0.083 0.385,-0.082C0.389,-0.081 0.392,-0.081 0.395,-0.081C0.398,-0.08 0.4,-0.08 0.401,-0.08C0.405,-0.08 0.407,-0.092 0.408,-0.115L0.409,-0.159C0.41,-0.166 0.41,-0.173 0.41,-0.181L0.41,-0.201C0.411,-0.206 0.411,-0.21 0.411,-0.213L0.411,-0.296C0.411,-0.321 0.41,-0.343 0.407,-0.36C0.404,-0.377 0.399,-0.39 0.392,-0.401C0.385,-0.412 0.377,-0.419 0.366,-0.424C0.355,-0.428 0.342,-0.43 0.326,-0.43C0.289,-0.43 0.262,-0.417 0.244,-0.39C0.227,-0.369 0.219,-0.328 0.219,-0.269L0.219,-0.143C0.219,-0.118 0.219,-0.103 0.22,-0.1C0.222,-0.087 0.224,-0.08 0.225,-0.08C0.224,-0.08 0.23,-0.081 0.241,-0.083C0.244,-0.083 0.246,-0.083 0.248,-0.084L0.257,-0.084C0.292,-0.084 0.31,-0.069 0.31,-0.04C0.31,-0.011 0.29,0.004 0.251,0.004C0.24,0.004 0.226,0.003 0.209,0.001C0.198,0 0.189,-0.001 0.18,-0.002C0.171,-0.003 0.163,-0.003 0.156,-0.003C0.149,-0.003 0.136,-0.002 0.117,0C0.103,0.001 0.092,0.002 0.084,0.003C0.075,0.004 0.069,0.004 0.066,0.004C0.03,0.004 0.012,-0.011 0.012,-0.042C0.012,-0.07 0.029,-0.084 0.064,-0.084L0.071,-0.084C0.073,-0.083 0.075,-0.083 0.077,-0.083L0.105,-0.078C0.11,-0.081 0.113,-0.092 0.114,-0.111C0.114,-0.12 0.114,-0.129 0.115,-0.138C0.116,-0.147 0.116,-0.156 0.116,-0.165L0.116,-0.31C0.116,-0.336 0.116,-0.357 0.115,-0.373C0.114,-0.389 0.112,-0.4 0.111,-0.407C0.11,-0.414 0.108,-0.417 0.104,-0.417C0.104,-0.417 0.101,-0.416 0.094,-0.414L0.078,-0.412L0.076,-0.412C0.075,-0.411 0.075,-0.411 0.074,-0.411L0.077,-0.411C0.075,-0.41 0.073,-0.41 0.07,-0.41L0.063,-0.41C0.029,-0.41 0.012,-0.425 0.012,-0.454C0.012,-0.484 0.03,-0.499 0.066,-0.499L0.079,-0.499C0.084,-0.498 0.089,-0.498 0.094,-0.497C0.099,-0.496 0.105,-0.496 0.111,-0.496C0.117,-0.495 0.122,-0.495 0.126,-0.495C0.128,-0.495 0.13,-0.495 0.133,-0.496L0.143,-0.496L0.167,-0.499Z" style="fill:rgb(35,31,32);fill-rule:nonzero;"/>
                </g>
                <g transform="matrix(5.203,0,0,5.203,481.625,139.455)">
                    <path d="M0.211,-0.218C0.2,-0.212 0.191,-0.205 0.182,-0.198C0.173,-0.19 0.165,-0.181 0.158,-0.172C0.179,-0.182 0.202,-0.187 0.229,-0.187C0.272,-0.187 0.316,-0.169 0.359,-0.134C0.402,-0.1 0.434,-0.083 0.455,-0.083C0.468,-0.083 0.478,-0.087 0.486,-0.096C0.493,-0.104 0.498,-0.115 0.499,-0.129C0.493,-0.126 0.486,-0.125 0.477,-0.125C0.438,-0.125 0.419,-0.143 0.419,-0.179C0.419,-0.198 0.426,-0.213 0.44,-0.225C0.454,-0.237 0.472,-0.243 0.495,-0.243C0.524,-0.243 0.547,-0.234 0.564,-0.215C0.581,-0.196 0.59,-0.169 0.59,-0.136C0.59,-0.093 0.576,-0.056 0.549,-0.026C0.521,0.005 0.486,0.021 0.445,0.021C0.407,0.021 0.363,0.002 0.313,-0.036C0.268,-0.071 0.23,-0.088 0.197,-0.088C0.179,-0.088 0.165,-0.084 0.156,-0.075C0.176,-0.071 0.186,-0.058 0.186,-0.036C0.186,0.002 0.165,0.021 0.122,0.021C0.096,0.021 0.075,0.011 0.059,-0.01C0.042,-0.03 0.034,-0.058 0.034,-0.093C0.034,-0.212 0.115,-0.297 0.277,-0.347L0.346,-0.37C0.379,-0.381 0.404,-0.397 0.423,-0.416C0.442,-0.435 0.451,-0.458 0.451,-0.483C0.451,-0.519 0.439,-0.547 0.414,-0.568C0.389,-0.588 0.354,-0.598 0.311,-0.598C0.275,-0.598 0.245,-0.592 0.221,-0.579C0.197,-0.566 0.181,-0.549 0.173,-0.526C0.206,-0.519 0.222,-0.5 0.222,-0.469C0.222,-0.448 0.215,-0.431 0.2,-0.417C0.185,-0.402 0.166,-0.395 0.143,-0.395C0.116,-0.395 0.095,-0.404 0.079,-0.422C0.062,-0.439 0.054,-0.462 0.054,-0.491C0.054,-0.546 0.08,-0.594 0.132,-0.633C0.181,-0.67 0.243,-0.688 0.317,-0.688C0.388,-0.688 0.447,-0.669 0.494,-0.632C0.541,-0.593 0.565,-0.543 0.565,-0.484C0.565,-0.442 0.554,-0.405 0.531,-0.375C0.508,-0.343 0.477,-0.32 0.436,-0.303L0.437,-0.303C0.432,-0.301 0.419,-0.297 0.4,-0.29C0.38,-0.283 0.353,-0.274 0.32,-0.263L0.321,-0.263C0.299,-0.256 0.279,-0.248 0.26,-0.24C0.241,-0.232 0.224,-0.225 0.211,-0.218Z" style="fill:rgb(35,31,32);fill-rule:nonzero;"/>
                </g>
                <g transform="matrix(11.8994,0,0,11.8994,430.194,154.196)">
                    <path d="M0.133,-0.526C0.133,-0.565 0.122,-0.584 0.1,-0.584C0.095,-0.584 0.09,-0.583 0.083,-0.582C0.073,-0.58 0.063,-0.579 0.054,-0.579C0.041,-0.579 0.031,-0.583 0.022,-0.592C0.013,-0.6 0.008,-0.611 0.008,-0.624C0.008,-0.655 0.027,-0.671 0.065,-0.671L0.071,-0.671C0.074,-0.671 0.078,-0.671 0.081,-0.67L0.158,-0.664C0.175,-0.663 0.188,-0.662 0.197,-0.661C0.205,-0.66 0.214,-0.659 0.223,-0.66L0.455,-0.667C0.458,-0.667 0.475,-0.668 0.504,-0.67L0.503,-0.67C0.508,-0.671 0.513,-0.671 0.518,-0.671L0.532,-0.671C0.577,-0.671 0.599,-0.652 0.599,-0.613C0.599,-0.611 0.599,-0.606 0.598,-0.597C0.597,-0.588 0.596,-0.576 0.595,-0.563C0.594,-0.554 0.593,-0.544 0.593,-0.534C0.592,-0.524 0.592,-0.515 0.592,-0.508C0.592,-0.497 0.592,-0.488 0.593,-0.481C0.593,-0.473 0.593,-0.467 0.594,-0.463C0.595,-0.454 0.596,-0.445 0.597,-0.438C0.598,-0.431 0.598,-0.424 0.598,-0.419C0.598,-0.386 0.581,-0.37 0.547,-0.37C0.513,-0.37 0.496,-0.391 0.496,-0.434L0.496,-0.484C0.496,-0.532 0.488,-0.559 0.472,-0.566L0.473,-0.566C0.456,-0.573 0.415,-0.576 0.35,-0.576C0.309,-0.576 0.283,-0.575 0.273,-0.573C0.254,-0.566 0.244,-0.552 0.244,-0.529L0.244,-0.463C0.243,-0.458 0.243,-0.455 0.243,-0.452L0.243,-0.433C0.243,-0.415 0.244,-0.405 0.247,-0.402C0.254,-0.401 0.26,-0.4 0.267,-0.4L0.307,-0.4C0.336,-0.4 0.35,-0.409 0.351,-0.426C0.35,-0.427 0.35,-0.431 0.35,-0.438C0.349,-0.445 0.349,-0.45 0.348,-0.455L0.348,-0.454C0.346,-0.466 0.345,-0.478 0.345,-0.491C0.345,-0.525 0.362,-0.542 0.396,-0.542C0.43,-0.542 0.447,-0.524 0.447,-0.488C0.447,-0.485 0.447,-0.478 0.446,-0.467C0.444,-0.456 0.443,-0.443 0.44,-0.426C0.436,-0.397 0.434,-0.371 0.434,-0.35C0.434,-0.344 0.434,-0.335 0.435,-0.324C0.436,-0.312 0.437,-0.298 0.438,-0.283L0.443,-0.251C0.445,-0.237 0.446,-0.225 0.446,-0.215C0.446,-0.183 0.429,-0.167 0.395,-0.167C0.362,-0.167 0.345,-0.185 0.345,-0.221C0.345,-0.224 0.345,-0.229 0.346,-0.235C0.346,-0.241 0.346,-0.247 0.347,-0.252C0.347,-0.255 0.347,-0.258 0.348,-0.263C0.348,-0.268 0.348,-0.272 0.349,-0.276C0.349,-0.279 0.349,-0.282 0.35,-0.284C0.35,-0.285 0.35,-0.285 0.35,-0.282C0.35,-0.301 0.337,-0.31 0.312,-0.31L0.268,-0.31C0.257,-0.31 0.25,-0.308 0.248,-0.303C0.245,-0.298 0.244,-0.288 0.244,-0.273L0.244,-0.196C0.244,-0.189 0.244,-0.182 0.245,-0.173C0.246,-0.162 0.246,-0.154 0.246,-0.147L0.246,-0.131C0.247,-0.108 0.25,-0.095 0.255,-0.092C0.258,-0.089 0.272,-0.088 0.295,-0.088L0.426,-0.088C0.457,-0.088 0.479,-0.093 0.491,-0.103C0.502,-0.112 0.508,-0.13 0.508,-0.155L0.508,-0.167L0.506,-0.196C0.505,-0.204 0.505,-0.212 0.505,-0.221L0.505,-0.24C0.505,-0.278 0.522,-0.297 0.556,-0.297C0.591,-0.297 0.609,-0.278 0.609,-0.239L0.609,-0.224C0.609,-0.218 0.609,-0.211 0.608,-0.204L0.605,-0.147L0.605,-0.117C0.605,-0.11 0.605,-0.102 0.606,-0.093C0.606,-0.09 0.606,-0.088 0.607,-0.087L0.607,-0.082C0.608,-0.077 0.608,-0.071 0.608,-0.067L0.608,-0.054C0.608,-0.015 0.588,0.005 0.548,0.005L0.537,0.005C0.532,0.005 0.528,0.005 0.525,0.004L0.512,0.003C0.5,0.001 0.489,0 0.479,-0.001L0.415,-0.001C0.403,0 0.389,0 0.374,0C0.351,-0.001 0.33,-0.001 0.311,-0.002L0.256,-0.002C0.196,-0.002 0.137,0 0.079,0.004C0.076,0.004 0.074,0.004 0.073,0.005L0.065,0.005C0.027,0.005 0.008,-0.011 0.008,-0.043C0.008,-0.072 0.023,-0.087 0.054,-0.087L0.057,-0.087C0.058,-0.086 0.06,-0.086 0.063,-0.086L0.081,-0.085C0.084,-0.084 0.088,-0.084 0.091,-0.084C0.094,-0.083 0.097,-0.083 0.1,-0.083C0.122,-0.083 0.133,-0.102 0.133,-0.141L0.133,-0.526Z" style="fill:rgb(35,31,32);fill-rule:nonzero;"/>
                </g>
                <g transform="matrix(11.8994,0,0,11.8994,438.202,154.196)">
                    <path d="M0.458,0.004C0.433,0.004 0.418,-0.006 0.415,-0.027C0.38,0.002 0.336,0.016 0.283,0.016C0.202,0.016 0.146,-0.009 0.114,-0.06C0.107,-0.071 0.102,-0.083 0.098,-0.096C0.094,-0.109 0.092,-0.123 0.091,-0.136C0.09,-0.144 0.09,-0.155 0.09,-0.17L0.09,-0.299C0.09,-0.377 0.086,-0.416 0.078,-0.416L0.072,-0.416C0.069,-0.415 0.066,-0.415 0.063,-0.414C0.06,-0.413 0.055,-0.413 0.049,-0.412C0.042,-0.411 0.04,-0.411 0.041,-0.411C0.008,-0.411 -0.008,-0.426 -0.008,-0.456C-0.008,-0.485 0.011,-0.499 0.049,-0.499L0.062,-0.499L0.093,-0.496C0.097,-0.495 0.102,-0.495 0.105,-0.495C0.107,-0.495 0.111,-0.495 0.116,-0.496C0.121,-0.496 0.127,-0.497 0.132,-0.498C0.135,-0.499 0.137,-0.499 0.14,-0.5L0.15,-0.5C0.181,-0.5 0.196,-0.484 0.196,-0.451L0.196,-0.431L0.195,-0.368L0.192,-0.298L0.192,-0.238C0.192,-0.211 0.193,-0.188 0.196,-0.169C0.198,-0.15 0.201,-0.135 0.204,-0.124C0.217,-0.09 0.246,-0.073 0.293,-0.073C0.316,-0.073 0.337,-0.078 0.356,-0.089C0.374,-0.1 0.387,-0.114 0.394,-0.132C0.403,-0.155 0.408,-0.2 0.408,-0.267L0.408,-0.381C0.406,-0.402 0.403,-0.413 0.399,-0.413C0.396,-0.413 0.392,-0.412 0.385,-0.411L0.371,-0.411C0.338,-0.411 0.322,-0.425 0.322,-0.454C0.322,-0.485 0.34,-0.5 0.375,-0.5L0.387,-0.5L0.417,-0.497C0.422,-0.496 0.425,-0.496 0.427,-0.496L0.436,-0.496C0.439,-0.496 0.443,-0.496 0.448,-0.497C0.452,-0.498 0.456,-0.498 0.461,-0.499L0.472,-0.499C0.502,-0.499 0.517,-0.485 0.517,-0.456C0.517,-0.447 0.516,-0.439 0.515,-0.432L0.515,-0.433C0.514,-0.421 0.513,-0.406 0.512,-0.389C0.511,-0.372 0.51,-0.352 0.51,-0.329L0.51,-0.183C0.51,-0.146 0.51,-0.125 0.511,-0.122C0.514,-0.095 0.518,-0.081 0.521,-0.081C0.522,-0.081 0.525,-0.081 0.528,-0.082L0.559,-0.086C0.592,-0.086 0.608,-0.071 0.608,-0.042C0.608,-0.011 0.589,0.004 0.552,0.004L0.543,0.004C0.539,0.004 0.535,0.004 0.532,0.003L0.528,0.003C0.527,0.002 0.526,0.002 0.525,0.002C0.509,0 0.5,-0.001 0.498,-0.001L0.496,-0.001C0.495,0 0.493,0 0.492,0C0.488,0 0.484,0 0.481,0.001L0.482,0.001C0.474,0.003 0.466,0.004 0.458,0.004Z" style="fill:rgb(35,31,32);fill-rule:nonzero;"/>
                </g>
                <g transform="matrix(11.8994,0,0,11.8994,445.568,154.196)">
                    <path d="M0.162,-0.499C0.184,-0.499 0.197,-0.49 0.201,-0.473C0.234,-0.502 0.273,-0.516 0.318,-0.516C0.343,-0.516 0.365,-0.513 0.385,-0.506C0.405,-0.499 0.422,-0.489 0.437,-0.476C0.452,-0.463 0.463,-0.447 0.471,-0.429C0.479,-0.411 0.483,-0.391 0.483,-0.369C0.483,-0.337 0.475,-0.311 0.458,-0.292C0.441,-0.272 0.419,-0.262 0.391,-0.262C0.372,-0.262 0.356,-0.268 0.343,-0.279C0.33,-0.29 0.323,-0.304 0.323,-0.321C0.323,-0.334 0.329,-0.346 0.34,-0.357C0.35,-0.368 0.363,-0.373 0.377,-0.373C0.378,-0.373 0.378,-0.373 0.377,-0.374C0.375,-0.375 0.376,-0.374 0.379,-0.373L0.379,-0.378C0.379,-0.393 0.373,-0.405 0.36,-0.415C0.347,-0.425 0.33,-0.43 0.311,-0.43C0.269,-0.43 0.241,-0.411 0.227,-0.372C0.218,-0.345 0.213,-0.306 0.213,-0.254L0.213,-0.145C0.213,-0.134 0.213,-0.127 0.214,-0.124C0.217,-0.095 0.222,-0.08 0.227,-0.08C0.231,-0.08 0.235,-0.08 0.238,-0.081C0.241,-0.081 0.245,-0.081 0.248,-0.082C0.257,-0.085 0.264,-0.086 0.271,-0.086C0.302,-0.086 0.317,-0.072 0.317,-0.043C0.317,-0.012 0.299,0.004 0.262,0.004L0.259,0.004C0.254,0.004 0.247,0.004 0.24,0.003C0.232,0.002 0.223,0.001 0.213,0C0.194,-0.002 0.18,-0.003 0.172,-0.003L0.139,-0.003C0.13,-0.002 0.121,-0.002 0.114,-0.001L0.06,0.004C0.023,0.004 0.005,-0.012 0.005,-0.043C0.005,-0.071 0.022,-0.085 0.057,-0.085C0.06,-0.085 0.063,-0.085 0.066,-0.086C0.068,-0.086 0.071,-0.085 0.074,-0.084L0.086,-0.081L0.094,-0.081C0.095,-0.08 0.096,-0.08 0.097,-0.08L0.098,-0.08C0.104,-0.08 0.107,-0.09 0.108,-0.11C0.108,-0.118 0.108,-0.126 0.109,-0.134C0.11,-0.142 0.11,-0.15 0.11,-0.158L0.107,-0.373C0.106,-0.398 0.102,-0.412 0.097,-0.415L0.076,-0.413L0.078,-0.413C0.07,-0.411 0.062,-0.41 0.053,-0.41C0.022,-0.41 0.006,-0.425 0.006,-0.454C0.006,-0.485 0.025,-0.5 0.062,-0.5C0.063,-0.499 0.067,-0.499 0.074,-0.499C0.081,-0.498 0.087,-0.498 0.092,-0.497C0.097,-0.496 0.102,-0.496 0.108,-0.496C0.113,-0.495 0.116,-0.495 0.119,-0.495L0.125,-0.495C0.127,-0.495 0.13,-0.495 0.133,-0.496C0.134,-0.496 0.136,-0.496 0.137,-0.497L0.141,-0.497C0.148,-0.498 0.155,-0.499 0.162,-0.499Z" style="fill:rgb(35,31,32);fill-rule:nonzero;"/>
                </g>
                <g transform="matrix(11.8994,0,0,11.8994,451.411,154.196)">
                    <path d="M0.262,0.016C0.191,0.016 0.134,-0.008 0.091,-0.057C0.048,-0.106 0.027,-0.17 0.027,-0.25C0.027,-0.331 0.048,-0.395 0.091,-0.442C0.134,-0.491 0.192,-0.516 0.265,-0.516C0.338,-0.516 0.397,-0.492 0.44,-0.444C0.482,-0.397 0.503,-0.333 0.503,-0.253C0.503,-0.172 0.481,-0.107 0.438,-0.059C0.395,-0.009 0.336,0.016 0.262,0.016ZM0.267,-0.427C0.227,-0.427 0.196,-0.413 0.174,-0.384C0.151,-0.355 0.139,-0.314 0.137,-0.261L0.137,-0.25C0.137,-0.195 0.148,-0.151 0.17,-0.12C0.192,-0.089 0.223,-0.073 0.263,-0.073C0.304,-0.073 0.336,-0.089 0.36,-0.12C0.383,-0.151 0.395,-0.194 0.395,-0.251C0.395,-0.368 0.352,-0.427 0.267,-0.427Z" style="fill:rgb(35,31,32);fill-rule:nonzero;"/>
                </g>
                <g transform="matrix(11.8994,0,0,11.8994,457.908,154.196)">
                    <path d="M0.165,-0.499C0.188,-0.499 0.201,-0.489 0.204,-0.469C0.239,-0.5 0.282,-0.516 0.333,-0.516C0.367,-0.516 0.398,-0.51 0.425,-0.498C0.452,-0.486 0.476,-0.469 0.496,-0.447C0.515,-0.425 0.53,-0.398 0.541,-0.367C0.551,-0.335 0.556,-0.299 0.556,-0.26C0.556,-0.22 0.55,-0.183 0.539,-0.149C0.527,-0.115 0.511,-0.085 0.492,-0.06C0.471,-0.035 0.447,-0.016 0.418,-0.003C0.389,0.01 0.357,0.016 0.322,0.016C0.276,0.016 0.237,0.004 0.205,-0.02L0.205,0.052C0.205,0.059 0.205,0.065 0.206,0.068L0.206,0.067C0.209,0.08 0.213,0.086 0.218,0.086C0.221,0.086 0.225,0.085 0.232,0.084C0.237,0.083 0.243,0.083 0.25,0.082C0.257,0.081 0.26,0.081 0.259,0.081C0.289,0.081 0.304,0.096 0.304,0.125C0.304,0.155 0.285,0.17 0.248,0.17C0.243,0.17 0.236,0.17 0.229,0.169C0.221,0.168 0.212,0.167 0.203,0.166L0.204,0.166C0.189,0.164 0.168,0.163 0.143,0.163C0.136,0.163 0.13,0.163 0.124,0.164C0.118,0.164 0.112,0.164 0.107,0.165C0.106,0.165 0.105,0.165 0.104,0.166L0.1,0.166C0.09,0.167 0.081,0.168 0.073,0.169C0.065,0.17 0.059,0.17 0.055,0.17C0.04,0.17 0.027,0.166 0.016,0.157C0.005,0.148 0,0.136 0,0.123C0,0.094 0.016,0.08 0.048,0.08C0.051,0.08 0.055,0.08 0.059,0.081C0.062,0.081 0.066,0.081 0.07,0.082C0.079,0.085 0.085,0.086 0.09,0.086C0.093,0.086 0.095,0.083 0.096,0.078C0.097,0.071 0.098,0.059 0.099,0.043C0.1,0.026 0.1,0.005 0.101,-0.022C0.101,-0.083 0.101,-0.143 0.102,-0.205L0.102,-0.387C0.101,-0.408 0.099,-0.418 0.094,-0.418C0.091,-0.418 0.086,-0.417 0.079,-0.415C0.074,-0.414 0.07,-0.413 0.066,-0.412C0.062,-0.411 0.057,-0.411 0.052,-0.411C0.018,-0.411 0.001,-0.426 0.001,-0.456C0.001,-0.485 0.02,-0.499 0.059,-0.499L0.071,-0.499C0.076,-0.499 0.08,-0.499 0.083,-0.498L0.097,-0.497C0.102,-0.496 0.106,-0.496 0.109,-0.496L0.116,-0.496C0.118,-0.496 0.121,-0.496 0.126,-0.497C0.131,-0.497 0.135,-0.497 0.14,-0.498C0.145,-0.499 0.15,-0.499 0.154,-0.499L0.165,-0.499ZM0.219,-0.341C0.216,-0.328 0.213,-0.314 0.212,-0.3C0.211,-0.285 0.21,-0.27 0.209,-0.254L0.209,-0.247C0.209,-0.243 0.209,-0.241 0.208,-0.238L0.208,-0.226C0.208,-0.205 0.209,-0.188 0.211,-0.173C0.212,-0.158 0.215,-0.146 0.218,-0.137C0.221,-0.128 0.225,-0.12 0.232,-0.113C0.238,-0.106 0.245,-0.099 0.253,-0.093C0.262,-0.087 0.273,-0.082 0.284,-0.079C0.295,-0.075 0.307,-0.073 0.32,-0.073C0.361,-0.073 0.392,-0.088 0.414,-0.119C0.436,-0.15 0.447,-0.194 0.447,-0.251C0.447,-0.368 0.408,-0.427 0.329,-0.427C0.303,-0.427 0.28,-0.419 0.259,-0.403C0.238,-0.387 0.224,-0.366 0.219,-0.341Z" style="fill:rgb(35,31,32);fill-rule:nonzero;"/>
                </g>
                <g transform="matrix(11.8994,0,0,11.8994,465.048,154.196)">
                    <path d="M0.452,0.012C0.403,0.012 0.369,-0.005 0.352,-0.038C0.317,-0.002 0.268,0.016 0.205,0.016C0.148,0.016 0.103,0.002 0.07,-0.026C0.037,-0.053 0.02,-0.09 0.02,-0.136C0.02,-0.164 0.027,-0.189 0.041,-0.211C0.054,-0.232 0.073,-0.25 0.096,-0.263C0.114,-0.273 0.13,-0.28 0.143,-0.283C0.156,-0.286 0.181,-0.29 0.22,-0.295C0.271,-0.3 0.303,-0.307 0.317,-0.316C0.328,-0.324 0.334,-0.339 0.334,-0.361C0.334,-0.382 0.327,-0.399 0.312,-0.412C0.297,-0.425 0.275,-0.431 0.248,-0.431C0.222,-0.431 0.198,-0.424 0.177,-0.409L0.177,-0.41C0.172,-0.405 0.17,-0.403 0.17,-0.402L0.171,-0.402C0.185,-0.39 0.192,-0.376 0.192,-0.359C0.192,-0.342 0.186,-0.329 0.174,-0.318C0.161,-0.307 0.146,-0.302 0.127,-0.302C0.106,-0.302 0.088,-0.309 0.074,-0.323C0.06,-0.336 0.053,-0.353 0.053,-0.374C0.053,-0.414 0.073,-0.448 0.112,-0.475C0.149,-0.502 0.195,-0.516 0.249,-0.516C0.375,-0.516 0.438,-0.456 0.438,-0.337L0.438,-0.146C0.438,-0.133 0.438,-0.122 0.439,-0.113C0.439,-0.103 0.439,-0.097 0.44,-0.094C0.443,-0.079 0.449,-0.072 0.456,-0.072C0.467,-0.072 0.473,-0.088 0.473,-0.119L0.473,-0.166C0.473,-0.195 0.488,-0.209 0.518,-0.209C0.55,-0.209 0.566,-0.19 0.566,-0.151L0.566,-0.146L0.565,-0.092C0.564,-0.023 0.526,0.012 0.452,0.012ZM0.332,-0.227C0.328,-0.226 0.324,-0.224 0.321,-0.223C0.317,-0.221 0.313,-0.219 0.308,-0.218C0.29,-0.212 0.262,-0.207 0.223,-0.204C0.16,-0.198 0.129,-0.176 0.129,-0.137C0.129,-0.118 0.136,-0.102 0.151,-0.091C0.165,-0.079 0.185,-0.073 0.21,-0.073C0.248,-0.073 0.278,-0.083 0.299,-0.104C0.32,-0.125 0.33,-0.153 0.331,-0.189L0.332,-0.227Z" style="fill:rgb(35,31,32);fill-rule:nonzero;"/>
                </g>
            </g>
        </g>
    </g>
</svg>
