<svg clip-rule="evenodd" fill-rule="evenodd" stroke-miterlimit="10" viewBox="0 0 360 146" xmlns="http://www.w3.org/2000/svg"><g fill-rule="nonzero"><path d="m0 25.662h-62.68c-3.935 0-7.153-3.218-7.153-7.152v-11.358c0-3.934 3.218-7.152 7.153-7.152h62.68c3.934 0 7.152 3.218 7.152 7.152v11.358c0 3.934-3.218 7.152-7.152 7.152z" fill="#fff0bd" stroke="#ffd400" stroke-width=".91" transform="matrix(4.16667 0 0 4.16667 310.22894232 19.35510788)"/><g fill="#231f20"><path d="m.259-.514c-.001-.023-.003-.04-.007-.051s-.011-.016-.021-.017c-.001.001-.005.001-.011.001l-.033.003c-.005.001-.01.001-.013.001-.036 0-.054-.016-.054-.047s.017-.047.052-.047h.016l.021.003h.005c.001.001.003.001.004.001.005.001.011.001.016.001h.012c.01 0 .019 0 .027-.001.008 0 .015 0 .022-.001h-.001c.021-.002.034-.003.039-.003.011 0 .019.002.026.006s.012.009.015.016c.003.01.005.021.005.034v.009c0 .005 0 .01-.001.015-.001.033-.002.065-.003.096-.001.032-.002.062-.002.089v.143c0 .013 0 .028.001.045 0 .008 0 .015.001.022v.018c.001.008.001.016.001.023v.017c.001.035.011.053.028.053.003 0 .008 0 .013-.001.005 0 .011 0 .018-.001.006-.001.012-.001.018-.002s.011-.001.014-.001c.042 0 .063.016.063.047s-.02.047-.059.047h-.017c-.005-.001-.011-.001-.016-.002-.027-.003-.05-.006-.07-.008s-.037-.003-.05-.003c-.027 0-.061.003-.102.009-.011.001-.021.003-.03.004s-.016.001-.021.001c-.039 0-.058-.016-.058-.048 0-.031.021-.047.064-.047h.017l.015.003.022.001c.001.001.003.001.004.001.013 0 .021-.006.026-.017.002-.009.004-.024.005-.046s.002-.051.002-.087z" transform="matrix(37.185446415 0 0 37.185446415 36.54955671 61.28430809)"/><path d="m.308.021c-.088 0-.157-.031-.206-.094-.048-.062-.072-.147-.072-.256 0-.111.025-.198.076-.261.051-.065.122-.098.211-.098.086 0 .153.031.202.094.025.031.044.067.056.108s.018.088.018.14c0 .113-.025.203-.076.268-.05.066-.12.099-.209.099zm.007-.611c-.107 0-.162.083-.167.25v.015c0 .08.014.141.042.184.028.044.068.065.119.065.026 0 .049-.006.07-.019.021-.012.038-.03.053-.053.015-.022.026-.051.034-.084.007-.033.011-.07.011-.112 0-.08-.014-.141-.042-.183s-.068-.063-.12-.063z" transform="matrix(37.185446415 0 0 37.185446415 57.18290655 61.28430809)"/><path d="m.259-.514c-.001-.023-.003-.04-.007-.051s-.011-.016-.021-.017c-.001.001-.005.001-.011.001l-.033.003c-.005.001-.01.001-.013.001-.036 0-.054-.016-.054-.047s.017-.047.052-.047h.016l.021.003h.005c.001.001.003.001.004.001.005.001.011.001.016.001h.012c.01 0 .019 0 .027-.001.008 0 .015 0 .022-.001h-.001c.021-.002.034-.003.039-.003.011 0 .019.002.026.006s.012.009.015.016c.003.01.005.021.005.034v.009c0 .005 0 .01-.001.015-.001.033-.002.065-.003.096-.001.032-.002.062-.002.089v.143c0 .013 0 .028.001.045 0 .008 0 .015.001.022v.018c.001.008.001.016.001.023v.017c.001.035.011.053.028.053.003 0 .008 0 .013-.001.005 0 .011 0 .018-.001.006-.001.012-.001.018-.002s.011-.001.014-.001c.042 0 .063.016.063.047s-.02.047-.059.047h-.017c-.005-.001-.011-.001-.016-.002-.027-.003-.05-.006-.07-.008s-.037-.003-.05-.003c-.027 0-.061.003-.102.009-.011.001-.021.003-.03.004s-.016.001-.021.001c-.039 0-.058-.016-.058-.048 0-.031.021-.047.064-.047h.017l.015.003.022.001c.001.001.003.001.004.001.013 0 .021-.006.026-.017.002-.009.004-.024.005-.046s.002-.051.002-.087z" transform="matrix(37.185446415 0 0 37.185446415 90.16626627 61.28430809)"/><path d="m.113-.351c.006-.005.013-.01.021-.014.007-.004.016-.008.025-.012-.013-.009-.024-.017-.033-.025-.009-.007-.017-.015-.022-.022-.015-.022-.022-.048-.022-.079 0-.026.006-.05.018-.073.011-.022.028-.042.049-.059.045-.035.1-.053.164-.053.063 0 .117.018.162.053.021.017.038.037.05.06s.018.047.018.072c0 .028-.005.051-.016.07s-.032.037-.061.056c.017.007.032.016.045.026.049.035.074.086.074.151s-.025.119-.076.161c-.049.04-.114.06-.194.06-.082 0-.148-.02-.199-.059-.051-.041-.077-.095-.077-.162 0-.063.025-.114.074-.151zm.2-.242c-.034 0-.062.008-.083.025-.022.017-.033.038-.033.065 0 .023.011.042.032.056.021.015.049.022.084.022.034 0 .062-.007.083-.022s.031-.034.031-.057c0-.027-.011-.048-.032-.065-.021-.016-.049-.024-.082-.024zm.003.268c-.05 0-.089.011-.117.033-.028.023-.042.053-.042.091s.014.069.043.092c.028.023.066.035.113.035s.084-.012.113-.035c.028-.023.042-.054.042-.092s-.014-.068-.041-.091c-.028-.022-.065-.033-.111-.033z" transform="matrix(37.185446415 0 0 37.185446415 111.21628311 61.28430809)"/><path d="m.308.021c-.088 0-.157-.031-.206-.094-.048-.062-.072-.147-.072-.256 0-.111.025-.198.076-.261.051-.065.122-.098.211-.098.086 0 .153.031.202.094.025.031.044.067.056.108s.018.088.018.14c0 .113-.025.203-.076.268-.05.066-.12.099-.209.099zm.007-.611c-.107 0-.162.083-.167.25v.015c0 .08.014.141.042.184.028.044.068.065.119.065.026 0 .049-.006.07-.019.021-.012.038-.03.053-.053.015-.022.026-.051.034-.084.007-.033.011-.07.011-.112 0-.08-.014-.141-.042-.183s-.068-.063-.12-.063z" transform="matrix(37.185446415 0 0 37.185446415 134.90380206 61.28430809)"/><path d="m.308.021c-.088 0-.157-.031-.206-.094-.048-.062-.072-.147-.072-.256 0-.111.025-.198.076-.261.051-.065.122-.098.211-.098.086 0 .153.031.202.094.025.031.044.067.056.108s.018.088.018.14c0 .113-.025.203-.076.268-.05.066-.12.099-.209.099zm.007-.611c-.107 0-.162.083-.167.25v.015c0 .08.014.141.042.184.028.044.068.065.119.065.026 0 .049-.006.07-.019.021-.012.038-.03.053-.053.015-.022.026-.051.034-.084.007-.033.011-.07.011-.112 0-.08-.014-.141-.042-.183s-.068-.063-.12-.063z" transform="matrix(37.185446415 0 0 37.185446415 167.88716178 61.28430809)"/><path d="m.308.021c-.088 0-.157-.031-.206-.094-.048-.062-.072-.147-.072-.256 0-.111.025-.198.076-.261.051-.065.122-.098.211-.098.086 0 .153.031.202.094.025.031.044.067.056.108s.018.088.018.14c0 .113-.025.203-.076.268-.05.066-.12.099-.209.099zm.007-.611c-.107 0-.162.083-.167.25v.015c0 .08.014.141.042.184.028.044.068.065.119.065.026 0 .049-.006.07-.019.021-.012.038-.03.053-.053.015-.022.026-.051.034-.084.007-.033.011-.07.011-.112 0-.08-.014-.141-.042-.183s-.068-.063-.12-.063z" transform="matrix(37.185446415 0 0 37.185446415 191.57051406 61.28430809)"/><path d="m.308.021c-.088 0-.157-.031-.206-.094-.048-.062-.072-.147-.072-.256 0-.111.025-.198.076-.261.051-.065.122-.098.211-.098.086 0 .153.031.202.094.025.031.044.067.056.108s.018.088.018.14c0 .113-.025.203-.076.268-.05.066-.12.099-.209.099zm.007-.611c-.107 0-.162.083-.167.25v.015c0 .08.014.141.042.184.028.044.068.065.119.065.026 0 .049-.006.07-.019.021-.012.038-.03.053-.053.015-.022.026-.051.034-.084.007-.033.011-.07.011-.112 0-.08-.014-.141-.042-.183s-.068-.063-.12-.063z" transform="matrix(37.185446415 0 0 37.185446415 215.25803301 61.28430809)"/><path d="m.209-.288c.023-.021.046-.042.068-.063.021-.021.044-.042.067-.063l.002-.004-.019.004c-.005.001-.011.002-.016.003s-.01.001-.015.001c-.033 0-.049-.015-.049-.044 0-.031.019-.046.058-.046h.011c.003.001.007.001.012.002h.005c.022.003.041.004.058.005.016.001.029.002.04.002l.03-.001.042-.006c.003-.001.007-.001.01-.002h.011c.041 0 .062.015.062.045 0 .029-.016.044-.048.044-.003 0-.007 0-.012-.001l-.023-.003h-.008c-.011 0-.024.007-.039.02l-.099.091h.001l-.006.006c0 .001 0 .002.001.001 0 0 .001.002.004.005l.121.158-.001-.001c.029.036.047.054.054.054l.012-.001c.003-.001.007-.001.01-.002s.006-.001.011-.001c.033 0 .05.014.05.043 0 .031-.02.046-.059.046-.006 0-.013 0-.022-.001s-.02-.002-.031-.003-.021-.002-.029-.003-.015-.001-.02-.001-.01 0-.017.001-.015.002-.025.003h.001c-.009.001-.018.002-.025.003-.008.001-.015.001-.021.001-.035 0-.052-.015-.052-.046 0-.029.017-.043.05-.043.011 0 .017 0 .019.001h.001c0 .001 0 .001.001.001l-.011-.018c-.015-.021-.031-.042-.047-.064-.017-.021-.033-.042-.048-.062l.001.001-.004-.006s-.001.001-.002.004l-.065.057v.054c0 .009.001.015.002.019.001.011.005.016.01.016s.009 0 .012-.001.007-.001.01-.002h.012c.032 0 .048.015.048.044 0 .03-.017.045-.052.045-.006 0-.013 0-.022-.001s-.018-.002-.029-.003-.021-.003-.028-.004c-.008-.001-.015-.001-.02-.001-.007 0-.014 0-.022.001s-.017.002-.026.003c-.012.001-.022.003-.03.004s-.015.001-.02.001c-.035 0-.053-.015-.053-.045 0-.029.017-.044.052-.044h.01c.003.001.007.001.01.002.005.001.01.002.013.002h.006c.005 0 .008-.008.009-.023l.003-.037v-.382c-.001-.034-.003-.054-.006-.06-.001-.003-.003-.005-.004-.005-.002 0-.005 0-.008.001h-.003c-.001.001-.003.001-.004.001-.005.002-.01.003-.015.003-.005.001-.01.001-.015.001-.031 0-.047-.014-.047-.042 0-.031.018-.046.053-.046h.018c.005 0 .008 0 .011.001h-.001c.013.002.022.003.027.003.001 0 .004 0 .01-.001s.011-.001.014-.002c.005-.001.009-.001.012-.002h.017c.031 0 .046.018.046.053z" transform="matrix(37.185446415 0 0 37.185446415 248.24139273 61.28430809)"/><path d="m.167-.499c.023 0 .036.01.04.03.018-.017.037-.03.056-.037s.042-.01.069-.01c.031 0 .058.005.08.014s.041.025.057.046c.019-.019.041-.033.066-.044.024-.011.052-.016.084-.016.038 0 .073.008.104.024.034.019.058.046.073.079.005.011.008.026.01.043s.003.037.003.06v.092l-.001.071v.03c0 .007 0 .013.001.016.002.015.005.022.008.022s.008-.001.015-.002c.005 0 .01 0 .018-.001.007-.001.009-.001.008-.002.032.001.048.015.048.041 0 .031-.018.047-.053.047-.005 0-.012 0-.019-.001-.008-.001-.017-.002-.027-.003-.019-.002-.033-.003-.042-.003h-.019c-.008.001-.017.002-.026.003s-.018.002-.027.003-.016.001-.021.001c-.037 0-.056-.016-.056-.047 0-.027.015-.041.046-.041h.004c.001.001.002.001.004.001l.015.001c.003.001.006.001.011.001.003 0 .004-.002.005-.006.003-.011.004-.036.005-.077l.001-.058v-.062c0-.041-.003-.071-.008-.09-.006-.018-.017-.032-.032-.041-.015-.01-.033-.015-.054-.015-.037 0-.064.013-.08.04-.013.023-.019.063-.019.122v.067c0 .028 0 .051.001.069.001.019.002.032.003.04.001.007.004.011.007.011h.005c.003 0 .006 0 .009-.001s.008-.001.013-.002.007-.001.006-.001c.013 0 .025.004.034.012.008.009.013.019.013.032 0 .03-.02.045-.06.045-.006 0-.013 0-.02-.001-.008-.001-.017-.002-.026-.003s-.017-.002-.023-.003c-.007-.001-.012-.001-.016-.001-.005 0-.012 0-.019.001-.008.001-.016.002-.023.003s-.015.002-.022.003-.014.001-.021.001c-.037 0-.055-.015-.055-.046 0-.028.015-.042.045-.042.008 0 .015.001.02.002.004.001.007.001.01.001.003.001.005.001.006.001.004 0 .006-.012.007-.035l.001-.044c.001-.007.001-.014.001-.022v-.02c.001-.005.001-.009.001-.012v-.083c0-.025-.001-.047-.004-.064s-.008-.03-.015-.041-.015-.018-.026-.023c-.011-.004-.024-.006-.04-.006-.037 0-.064.013-.082.04-.017.021-.025.062-.025.121v.126c0 .025 0 .04.001.043.002.013.004.02.005.02-.001 0 .005-.001.016-.003.003 0 .005 0 .007-.001h.009c.035 0 .053.015.053.044s-.02.044-.059.044c-.011 0-.025-.001-.042-.003-.011-.001-.02-.002-.029-.003s-.017-.001-.024-.001-.02.001-.039.003c-.014.001-.025.002-.033.003-.009.001-.015.001-.018.001-.036 0-.054-.015-.054-.046 0-.028.017-.042.052-.042h.007c.002.001.004.001.006.001l.028.005c.005-.003.008-.014.009-.033 0-.009 0-.018.001-.027s.001-.018.001-.027v-.145c0-.026 0-.047-.001-.063s-.003-.027-.004-.034-.003-.01-.007-.01c0 0-.003.001-.01.003l-.016.002h-.002c-.001.001-.001.001-.002.001h.003c-.002.001-.004.001-.007.001h-.007c-.034 0-.051-.015-.051-.044 0-.03.018-.045.054-.045h.013c.005.001.01.001.015.002s.011.001.017.001c.006.001.011.001.015.001.002 0 .004 0 .007-.001h.01z" transform="matrix(37.185446415 0 0 37.185446415 271.25807781 61.28430809)"/><path d="m.211-.218c-.011.006-.02.013-.029.02-.009.008-.017.017-.024.026.021-.01.044-.015.071-.015.043 0 .087.018.13.053.043.034.075.051.096.051.013 0 .023-.004.031-.013.007-.008.012-.019.013-.033-.006.003-.013.004-.022.004-.039 0-.058-.018-.058-.054 0-.019.007-.034.021-.046s.032-.018.055-.018c.029 0 .052.009.069.028s.026.046.026.079c0 .043-.014.08-.041.11-.028.031-.063.047-.104.047-.038 0-.082-.019-.132-.057-.045-.035-.083-.052-.116-.052-.018 0-.032.004-.041.013.02.004.03.017.03.039 0 .038-.021.057-.064.057-.026 0-.047-.01-.063-.031-.017-.02-.025-.048-.025-.083 0-.119.081-.204.243-.254l.069-.023c.033-.011.058-.027.077-.046s.028-.042.028-.067c0-.036-.012-.064-.037-.085-.025-.02-.06-.03-.103-.03-.036 0-.066.006-.09.019s-.04.03-.048.053c.033.007.049.026.049.057 0 .021-.007.038-.022.052-.015.015-.034.022-.057.022-.027 0-.048-.009-.064-.027-.017-.017-.025-.04-.025-.069 0-.055.026-.103.078-.142.049-.037.111-.055.185-.055.071 0 .13.019.177.056.047.039.071.089.071.148 0 .042-.011.079-.034.109-.023.032-.054.055-.095.072h.001c-.005.002-.018.006-.037.013-.02.007-.047.016-.08.027h.001c-.022.007-.042.015-.061.023s-.036.015-.049.022z" transform="matrix(21.67918401 0 0 21.67918401 305.76643875 48.90096485)"/><path d="m.133-.526c0-.039-.011-.058-.033-.058-.005 0-.01.001-.017.002-.01.002-.02.003-.029.003-.013 0-.023-.004-.032-.013-.009-.008-.014-.019-.014-.032 0-.031.019-.047.057-.047h.006c.003 0 .007 0 .01.001l.077.006c.017.001.03.002.039.003.008.001.017.002.026.001l.232-.007c.003 0 .02-.001.049-.003h-.001c.005-.001.01-.001.015-.001h.014c.045 0 .067.019.067.058 0 .002 0 .007-.001.016s-.002.021-.003.034c-.001.009-.002.019-.002.029-.001.01-.001.019-.001.026 0 .011 0 .02.001.027 0 .008 0 .014.001.018.001.009.002.018.003.025s.001.014.001.019c0 .033-.017.049-.051.049s-.051-.021-.051-.064v-.05c0-.048-.008-.075-.024-.082h.001c-.017-.007-.058-.01-.123-.01-.041 0-.067.001-.077.003-.019.007-.029.021-.029.044v.066c-.001.005-.001.008-.001.011v.019c0 .018.001.028.004.031.007.001.013.002.02.002h.04c.029 0 .043-.009.044-.026-.001-.001-.001-.005-.001-.012-.001-.007-.001-.012-.002-.017v.001c-.002-.012-.003-.024-.003-.037 0-.034.017-.051.051-.051s.051.018.051.054c0 .003 0 .01-.001.021-.002.011-.003.024-.006.041-.004.029-.006.055-.006.076 0 .006 0 .015.001.026.001.012.002.026.003.041l.005.032c.002.014.003.026.003.036 0 .032-.017.048-.051.048-.033 0-.05-.018-.05-.054 0-.003 0-.008.001-.014 0-.006 0-.012.001-.017 0-.003 0-.006.001-.011 0-.005 0-.009.001-.013 0-.003 0-.006.001-.008 0-.001 0-.001 0 .002 0-.019-.013-.028-.038-.028h-.044c-.011 0-.018.002-.02.007-.003.005-.004.015-.004.03v.077c0 .007 0 .014.001.023.001.011.001.019.001.026v.016c.001.023.004.036.009.039.003.003.017.004.04.004h.131c.031 0 .053-.005.065-.015.011-.009.017-.027.017-.052v-.012l-.002-.029c-.001-.008-.001-.016-.001-.025v-.019c0-.038.017-.057.051-.057.035 0 .053.019.053.058v.015c0 .006 0 .013-.001.02l-.003.057v.03c0 .007 0 .015.001.024 0 .003 0 .005.001.006v.005c.001.005.001.011.001.015v.013c0 .039-.02.059-.06.059h-.011c-.005 0-.009 0-.012-.001l-.013-.001c-.012-.002-.023-.003-.033-.004h-.064c-.012.001-.026.001-.041.001-.023-.001-.044-.001-.063-.002h-.055c-.06 0-.119.002-.177.006-.003 0-.005 0-.006.001h-.008c-.038 0-.057-.016-.057-.048 0-.029.015-.044.046-.044h.003c.001.001.003.001.006.001l.018.001c.003.001.007.001.01.001.003.001.006.001.009.001.022 0 .033-.019.033-.058z" transform="matrix(49.580872998 0 0 49.580872998 91.47043398 110.32184732)"/><path d="m.458.004c-.025 0-.04-.01-.043-.031-.035.029-.079.043-.132.043-.081 0-.137-.025-.169-.076-.007-.011-.012-.023-.016-.036s-.006-.027-.007-.04c-.001-.008-.001-.019-.001-.034v-.129c0-.078-.004-.117-.012-.117h-.006c-.003.001-.006.001-.009.002s-.008.001-.014.002c-.007.001-.009.001-.008.001-.033 0-.049-.015-.049-.045 0-.029.019-.043.057-.043h.013l.031.003c.004.001.009.001.012.001.002 0 .006 0 .011-.001.005 0 .011-.001.016-.002.003-.001.005-.001.008-.002h.01c.031 0 .046.016.046.049v.02l-.001.063-.003.07v.06c0 .027.001.05.004.069.002.019.005.034.008.045.013.034.042.051.089.051.023 0 .044-.005.063-.016.018-.011.031-.025.038-.043.009-.023.014-.068.014-.135v-.114c-.002-.021-.005-.032-.009-.032-.003 0-.007.001-.014.002h-.014c-.033 0-.049-.014-.049-.043 0-.031.018-.046.053-.046h.012l.03.003c.005.001.008.001.01.001h.009c.003 0 .007 0 .012-.001.004-.001.008-.001.013-.002h.011c.03 0 .045.014.045.043 0 .009-.001.017-.002.024v-.001c-.001.012-.002.027-.003.044s-.002.037-.002.06v.146c0 .037 0 .058.001.061.003.027.007.041.01.041.001 0 .004 0 .007-.001l.031-.004c.033 0 .049.015.049.044 0 .031-.019.046-.056.046h-.009c-.004 0-.008 0-.011-.001h-.004c-.001-.001-.002-.001-.003-.001-.016-.002-.025-.003-.027-.003h-.002c-.001.001-.003.001-.004.001-.004 0-.008 0-.011.001h.001c-.008.002-.016.003-.024.003z" transform="matrix(49.580872998 0 0 49.580872998 124.83712734 110.32184732)"/><path d="m.162-.499c.022 0 .035.009.039.026.033-.029.072-.043.117-.043.025 0 .047.003.067.01s.037.017.052.03.026.029.034.047.012.038.012.06c0 .032-.008.058-.025.077-.017.02-.039.03-.067.03-.019 0-.035-.006-.048-.017s-.02-.025-.02-.042c0-.013.006-.025.017-.036.01-.011.023-.016.037-.016.001 0 .001 0 0-.001-.002-.001-.001 0 .002.001v-.005c0-.015-.006-.027-.019-.037s-.03-.015-.049-.015c-.042 0-.07.019-.084.058-.009.027-.014.066-.014.118v.109c0 .011 0 .018.001.021.003.029.008.044.013.044.004 0 .008 0 .011-.001.003 0 .007 0 .01-.001.009-.003.016-.004.023-.004.031 0 .046.014.046.043 0 .031-.018.047-.055.047h-.003c-.005 0-.012 0-.019-.001-.008-.001-.017-.002-.027-.003-.019-.002-.033-.003-.041-.003h-.033c-.009.001-.018.001-.025.002l-.054.005c-.037 0-.055-.016-.055-.047 0-.028.017-.042.052-.042.003 0 .006 0 .009-.001.002 0 .005.001.008.002l.012.003h.008c.001.001.002.001.003.001h.001c.006 0 .009-.01.01-.03 0-.008 0-.016.001-.024s.001-.016.001-.024l-.003-.215c-.001-.025-.005-.039-.01-.042l-.021.002h.002c-.008.002-.016.003-.025.003-.031 0-.047-.015-.047-.044 0-.031.019-.046.056-.046.001.001.005.001.012.001.007.001.013.001.018.002s.01.001.016.001c.005.001.008.001.011.001h.006c.002 0 .005 0 .008-.001.001 0 .003 0 .004-.001h.004c.007-.001.014-.002.021-.002z" transform="matrix(49.580872998 0 0 49.580872998 155.52881856 110.32184732)"/><path d="m.262.016c-.071 0-.128-.024-.171-.073s-.064-.113-.064-.193c0-.081.021-.145.064-.192.043-.049.101-.074.174-.074s.132.024.175.072c.042.047.063.111.063.191 0 .081-.022.146-.065.194-.043.05-.102.075-.176.075zm.005-.443c-.04 0-.071.014-.093.043-.023.029-.035.07-.037.123v.011c0 .055.011.099.033.13s.053.047.093.047c.041 0 .073-.016.097-.047.023-.031.035-.074.035-.131 0-.117-.043-.176-.128-.176z" transform="matrix(49.580872998 0 0 49.580872998 179.87467137 110.32184732)"/><path d="m.165-.499c.023 0 .036.01.039.03.035-.031.078-.047.129-.047.034 0 .065.006.092.018s.051.029.071.051c.019.022.034.049.045.08.01.032.015.068.015.107 0 .04-.006.077-.017.111-.012.034-.028.064-.047.089-.021.025-.045.044-.074.057s-.061.019-.096.019c-.046 0-.085-.012-.117-.036v.072c0 .007 0 .013.001.016v-.001c.003.013.007.019.012.019.003 0 .007-.001.014-.002.005-.001.011-.001.018-.002s.01-.001.009-.001c.03 0 .045.015.045.044 0 .03-.019.045-.056.045-.005 0-.012 0-.019-.001-.008-.001-.017-.002-.026-.003h.001c-.015-.002-.036-.003-.061-.003-.007 0-.013 0-.019.001-.006 0-.012 0-.017.001-.001 0-.002 0-.003.001h-.004c-.01.001-.019.002-.027.003s-.014.001-.018.001c-.015 0-.028-.004-.039-.013s-.016-.021-.016-.034c0-.029.016-.043.048-.043.003 0 .007 0 .011.001.003 0 .007 0 .011.001.009.003.015.004.02.004.003 0 .005-.003.006-.008.001-.007.002-.019.003-.035.001-.017.001-.038.002-.065 0-.061 0-.121.001-.183v-.182c-.001-.021-.003-.031-.008-.031-.003 0-.008.001-.015.003-.005.001-.009.002-.013.003s-.009.001-.014.001c-.034 0-.051-.015-.051-.045 0-.029.019-.043.058-.043h.012c.005 0 .009 0 .012.001l.014.001c.005.001.009.001.012.001h.007c.002 0 .005 0 .01-.001.005 0 .009 0 .014-.001s.01-.001.014-.001zm.054.158c-.003.013-.006.027-.007.041-.001.015-.002.03-.003.046v.007c0 .004 0 .006-.001.009v.012c0 .021.001.038.003.053.001.015.004.027.007.036s.007.017.014.024c.006.007.013.014.021.02.009.006.02.011.031.014.011.004.023.006.036.006.041 0 .072-.015.094-.046s.033-.075.033-.132c0-.117-.039-.176-.118-.176-.026 0-.049.008-.07.024s-.035.037-.04.062z" transform="matrix(49.580872998 0 0 49.580872998 206.94552636 110.32184732)"/><path d="m.452.012c-.049 0-.083-.017-.1-.05-.035.036-.084.054-.147.054-.057 0-.102-.014-.135-.042-.033-.027-.05-.064-.05-.11 0-.028.007-.053.021-.075.013-.021.032-.039.055-.052.018-.01.034-.017.047-.02s.038-.007.077-.012c.051-.005.083-.012.097-.021.011-.008.017-.023.017-.045 0-.021-.007-.038-.022-.051s-.037-.019-.064-.019c-.026 0-.05.007-.071.022v-.001c-.005.005-.007.007-.007.008h.001c.014.012.021.026.021.043s-.006.03-.018.041c-.013.011-.028.016-.047.016-.021 0-.039-.007-.053-.021-.014-.013-.021-.03-.021-.051 0-.04.02-.074.059-.101.037-.027.083-.041.137-.041.126 0 .189.06.189.179v.191c0 .013 0 .024.001.033 0 .01 0 .016.001.019.003.015.009.022.016.022.011 0 .017-.016.017-.047v-.047c0-.029.015-.043.045-.043.032 0 .048.019.048.058v.005l-.001.054c-.001.069-.039.104-.113.104zm-.12-.239c-.004.001-.008.003-.011.004-.004.002-.008.004-.013.005-.018.006-.046.011-.085.014-.063.006-.094.028-.094.067 0 .019.007.035.022.046.014.012.034.018.059.018.038 0 .068-.01.089-.031s.031-.049.032-.085z" transform="matrix(49.580872998 0 0 49.580872998 236.69555016 110.32184732)"/></g></g></svg>