<?xml version="1.0" encoding="UTF-8" standalone="no"?>
<!DOCTYPE svg PUBLIC "-//W3C//DTD SVG 1.1//EN" "http://www.w3.org/Graphics/SVG/1.1/DTD/svg11.dtd">
<svg width="100%" height="100%" viewBox="0 0 609 326" version="1.1" xmlns="http://www.w3.org/2000/svg" xmlns:xlink="http://www.w3.org/1999/xlink" xml:space="preserve" xmlns:serif="http://www.serif.com/" style="fill-rule:evenodd;clip-rule:evenodd;stroke-linejoin:round;stroke-miterlimit:2;">
    <g transform="matrix(1,0,0,1,-3991.31,-6842.53)">
        <g transform="matrix(5.55556,0,0,5.55556,3631.89,4783.46)">
            <g transform="matrix(1,0,0,1,81.6914,398.201)">
                <path d="M0,3.17C-0.274,3.255 -0.45,3.273 -0.582,3.357C-4.428,5.817 -8.336,8.189 -12.075,10.803C-13.306,11.665 -14.226,13.073 -15.055,14.379C-16.106,16.037 -15.872,17.364 -14.432,18.699C-13.802,19.283 -13.001,19.805 -12.188,20.044C-8.376,21.161 -4.534,22.171 -0.702,23.215C6.632,25.214 13.831,27.613 21.384,28.929C27.365,29.971 32.64,29.34 37.779,26.27C41.267,24.186 44.916,22.37 48.386,20.261C54.424,16.591 60.555,13.036 66.326,8.977C73.744,3.761 81.194,-1.345 89.359,-5.338C91.762,-6.513 91.879,-9.248 89.626,-10.707C89.098,-11.049 88.519,-11.344 87.924,-11.55C83.967,-12.917 80.006,-14.276 76.03,-15.592C74.602,-16.065 73.131,-16.412 71.668,-16.82C71.187,-13.692 71.28,-13.532 74.078,-12.658C74.562,-12.507 75.06,-12.398 75.543,-12.246C77.116,-11.752 78.712,-11.315 80.247,-10.723C81.274,-10.327 82.088,-9.593 81.896,-8.316C81.856,-8.055 81.508,-7.839 81.302,-7.602C81.076,-7.806 80.84,-8 80.625,-8.214C80.125,-8.71 79.722,-9.421 79.122,-9.677C77.846,-10.223 76.473,-10.544 75.134,-10.938C74.11,-11.239 73.08,-11.512 71.757,-11.879C72.515,-10.261 71.999,-9.633 70.723,-8.806C61.877,-3.078 53.154,2.84 44.362,8.652C42.287,10.025 40.123,11.272 37.955,12.495C36.04,13.575 34.047,14.516 32.114,15.564C28.398,17.579 24.711,19.649 20.979,21.635C20.481,21.9 19.754,21.979 19.198,21.854C13.427,20.551 7.667,19.193 1.908,17.841C0.299,17.463 -0.02,17.063 -0.045,15.378C-0.067,13.917 -0.05,12.455 -0.05,10.707C-2.14,12.005 -4.009,13.074 -5.757,14.314C-6.235,14.654 -6.343,15.512 -6.626,16.13C-6.769,16.441 -6.923,16.746 -7.073,17.053C-7.379,16.821 -7.885,16.633 -7.948,16.347C-8.059,15.846 -8.073,15.174 -7.815,14.774C-7.326,14.014 -6.715,13.251 -5.978,12.748C-4.337,11.628 -2.566,10.7 -0.897,9.619C-0.5,9.362 -0.065,8.825 -0.041,8.394C0.059,6.709 0,5.014 0,3.17M1.181,9.529C1.229,9.533 1.277,9.537 1.325,9.541C1.325,11.234 1.446,12.94 1.289,14.618C1.152,16.073 1.784,16.449 3.056,16.728C8.008,17.814 12.942,18.984 17.862,20.206C19.207,20.54 20.432,20.586 21.651,19.891C25.29,17.819 28.895,15.684 32.583,13.702C37.273,11.182 42.178,9.062 46.302,5.56C48.069,4.059 50.057,2.805 52.007,1.536C57.896,-2.298 63.807,-6.098 69.733,-9.872C70.439,-10.322 70.688,-10.706 70.522,-11.583C70.28,-12.861 70.255,-14.186 70.2,-15.493C70.112,-17.606 70.014,-19.722 70.043,-21.835C70.058,-22.952 69.512,-23.354 68.564,-23.484C66.178,-23.814 63.789,-24.133 61.401,-24.453C58.174,-24.885 54.909,-25.142 51.735,-25.821C50.291,-26.13 49.232,-25.879 48.062,-25.244C45.831,-24.032 43.626,-22.756 41.321,-21.701C34.32,-18.497 27.217,-15.513 20.269,-12.202C14.313,-9.363 8.509,-6.205 2.664,-3.138C2.277,-2.934 1.917,-2.313 1.883,-1.862C1.604,1.932 1.404,5.732 1.181,9.529M27.009,31.006C20.533,30.125 13.39,29.106 6.47,26.833C2.58,25.554 -1.43,24.641 -5.374,23.524C-8.017,22.775 -10.687,22.085 -13.259,21.136C-16.996,19.757 -18.112,16.14 -15.773,12.918C-14.672,11.401 -13.35,9.918 -11.82,8.863C-8.274,6.418 -4.559,4.214 -0.87,1.982C-0.103,1.517 0.396,1.073 0.338,0.132C0.312,-0.285 0.509,-0.724 0.446,-1.128C0.112,-3.284 1.324,-4.13 3.106,-4.994C9.006,-7.853 14.733,-11.073 20.651,-13.892C27.371,-17.093 34.244,-19.969 41.01,-23.073C43.429,-24.183 45.724,-25.563 48.091,-26.789C49.31,-27.421 50.41,-27.954 51.964,-27.195C53.225,-26.579 54.856,-26.724 56.324,-26.531C60.265,-26.011 64.207,-25.503 68.146,-24.969C70.73,-24.619 71.341,-23.869 71.48,-21.254C71.659,-17.891 71.015,-18.56 74.441,-17.465C78.952,-16.023 83.45,-14.541 87.94,-13.036C88.775,-12.755 89.59,-12.352 90.339,-11.886C91.95,-10.881 92.771,-9.363 92.534,-7.483C92.313,-5.731 91.226,-4.61 89.597,-3.806C86.761,-2.406 83.991,-0.859 81.262,0.741C78.38,2.432 75.521,4.174 72.752,6.043C67.666,9.477 62.806,13.267 57.576,16.457C50.427,20.817 43.051,24.814 35.707,28.845C33.26,30.188 30.6,31.124 27.009,31.006" style="fill:rgb(35,31,32);fill-rule:nonzero;"/>
            </g>
        </g>
        <g transform="matrix(5.55556,0,0,5.55556,3631.89,4783.46)">
            <g transform="matrix(1,0,0,1,100.004,379.663)">
                <path d="M0,31.532C0.014,31.533 0.029,31.534 0.043,31.535C0.043,32.298 -0.031,33.07 0.07,33.818C0.134,34.287 0.463,34.721 0.672,35.171C0.924,34.746 1.373,34.333 1.396,33.896C1.589,30.388 1.722,26.877 1.81,23.365C1.82,22.965 1.439,22.555 1.24,22.151C0.998,22.533 0.574,22.9 0.541,23.3C0.314,26.04 0.17,28.787 0,31.532M0.047,20.754C0.458,20.357 0.725,20.1 0.991,19.843C0.655,19.576 0.348,19.134 -0.022,19.072C-2.182,18.709 -4.375,18.536 -6.519,18.104C-8.535,17.699 -10.497,17.03 -12.497,16.532C-12.837,16.448 -13.247,16.641 -13.624,16.706C-13.422,17.06 -13.242,17.429 -13.008,17.761C-12.925,17.878 -12.716,17.929 -12.554,17.965C-8.37,18.895 -4.185,19.819 0.047,20.754M4.631,19.365C5.234,19.15 5.727,19.02 6.181,18.806C16.466,13.962 26.952,9.515 36.631,3.472C37.111,3.172 37.799,2.293 37.689,2.116C37.143,1.23 36.498,2.003 35.993,2.308C25.905,8.398 15.18,13.198 4.449,17.99C4.177,18.112 4.026,18.507 3.819,18.774C4.097,18.976 4.374,19.178 4.631,19.365M-17.132,28.067C-16.909,24.269 -16.709,20.469 -16.43,16.676C-16.396,16.224 -16.036,15.603 -15.649,15.4C-9.804,12.333 -4,9.175 1.956,6.336C8.904,3.025 16.007,0.04 23.008,-3.163C25.313,-4.218 27.518,-5.494 29.749,-6.706C30.919,-7.342 31.978,-7.592 33.422,-7.283C36.596,-6.604 39.861,-6.347 43.088,-5.915C45.476,-5.595 47.865,-5.277 50.251,-4.947C51.199,-4.816 51.745,-4.414 51.73,-3.297C51.701,-1.184 51.799,0.932 51.887,3.045C51.942,4.352 51.967,5.677 52.209,6.954C52.376,7.831 52.126,8.216 51.42,8.665C45.494,12.44 39.583,16.24 33.694,20.074C31.744,21.343 29.756,22.597 27.989,24.097C23.865,27.599 18.96,29.72 14.27,32.24C10.582,34.222 6.977,36.357 3.338,38.429C2.119,39.124 0.894,39.077 -0.451,38.743C-5.371,37.522 -10.305,36.351 -15.257,35.265C-16.529,34.987 -17.161,34.611 -17.024,33.156C-16.867,31.477 -16.988,29.772 -16.988,28.079C-17.036,28.075 -17.084,28.071 -17.132,28.067" style="fill:rgb(255,222,103);fill-rule:nonzero;"/>
            </g>
        </g>
        <g transform="matrix(5.55556,0,0,5.55556,3631.89,4783.46)">
            <g transform="matrix(1,0,0,1,89.1558,372.089)">
                <path d="M0,24.312C0.073,24.367 0.123,24.434 0.163,24.504C0.209,24.518 0.257,24.529 0.303,24.543C0.308,24.54 0.308,24.535 0.312,24.532C4.622,21.343 9.52,19.158 14.382,16.961C20.036,14.408 25.474,11.619 30.838,8.499C37.297,4.741 44.515,2.337 51.917,1.248C49.211,0.921 46.496,0.645 43.842,0.077C42.398,-0.231 41.339,0.019 40.169,0.655C37.938,1.867 35.732,3.143 33.428,4.197C26.427,7.401 19.324,10.385 12.376,13.697C6.726,16.39 0.661,19.838 -4.88,22.756C-3.334,23.19 -1.302,23.321 0,24.312" style="fill:rgb(255,251,200);fill-rule:nonzero;"/>
            </g>
        </g>
        <g transform="matrix(5.55556,0,0,5.55556,3631.89,4783.46)">
            <g transform="matrix(1,0,0,1,151.999,407.065)">
                <path d="M0,-20.447C-0.242,-21.725 -0.267,-23.05 -0.321,-24.357C-0.409,-26.469 -0.509,-28.585 -0.479,-30.698C-0.47,-31.397 -0.68,-31.815 -1.069,-32.063C-5.8,-29.175 -10.433,-26.099 -15.552,-23.949C-15.561,-23.943 -15.57,-23.935 -15.578,-23.929C-25.257,-17.886 -35.743,-13.44 -46.028,-8.595C-46.482,-8.382 -46.975,-8.251 -47.578,-8.036C-47.593,-8.047 -47.61,-8.06 -47.626,-8.071C-48.939,-7.126 -49.866,-5.886 -50.513,-4.453C-50.447,-4.313 -50.396,-4.174 -50.399,-4.036C-50.487,-0.524 -50.62,2.987 -50.813,6.495C-50.836,6.931 -51.285,7.345 -51.537,7.769C-51.575,7.687 -51.62,7.606 -51.664,7.524C-51.559,8.895 -51.426,10.254 -51.301,11.563C-50.467,11.616 -49.667,11.482 -48.871,11.028C-45.232,8.955 -41.627,6.821 -37.939,4.839C-33.249,2.318 -28.344,0.198 -24.22,-3.304C-22.453,-4.804 -20.465,-6.058 -18.515,-7.328C-12.626,-11.162 -6.715,-14.962 -0.788,-18.736C-0.082,-19.186 0.166,-19.57 0,-20.447" style="fill:rgb(233,187,93);fill-rule:nonzero;"/>
            </g>
        </g>
        <g transform="matrix(5.55556,0,0,5.55556,3631.89,4783.46)">
            <g transform="matrix(1,0,0,1,112.333,389.257)">
                <path d="M0,31.041C0.981,30.539 1.875,30.147 2.703,29.646C10.597,24.878 18.453,20.046 26.376,15.328C30.956,12.602 35.647,10.066 40.262,7.398C40.634,7.184 40.796,6.606 41.056,6.197C40.568,6.209 40.009,6.072 39.606,6.263C38.348,6.861 37.13,7.552 35.927,8.261C26.524,13.801 17.128,19.354 7.73,24.903C5.11,26.45 2.482,27.984 -0.121,29.559C-0.391,29.722 -0.636,30.106 -0.669,30.412C-0.688,30.587 -0.258,30.812 0,31.041M-30.642,12.115C-30.642,13.959 -30.583,15.653 -30.682,17.339C-30.707,17.77 -31.142,18.307 -31.539,18.564C-33.208,19.645 -34.979,20.573 -36.62,21.693C-37.356,22.196 -37.967,22.958 -38.457,23.719C-38.714,24.119 -38.701,24.791 -38.59,25.292C-38.526,25.578 -38.021,25.766 -37.714,25.998C-37.565,25.69 -37.41,25.386 -37.268,25.075C-36.984,24.457 -36.876,23.599 -36.398,23.259C-34.651,22.019 -32.781,20.95 -30.691,19.652C-30.691,21.4 -30.709,22.862 -30.687,24.323C-30.661,26.007 -30.342,26.408 -28.734,26.786C-22.974,28.138 -17.215,29.496 -11.443,30.798C-10.888,30.924 -10.161,30.845 -9.662,30.58C-5.931,28.594 -2.244,26.524 1.473,24.509C3.406,23.46 5.398,22.52 7.313,21.439C9.481,20.216 11.645,18.97 13.721,17.597C22.512,11.785 31.235,5.867 40.081,0.139C41.357,-0.688 41.873,-1.316 41.115,-2.935C42.438,-2.567 43.469,-2.294 44.492,-1.993C45.831,-1.599 47.204,-1.278 48.48,-0.732C49.08,-0.476 49.483,0.234 49.983,0.731C50.198,0.945 50.435,1.139 50.66,1.342C50.866,1.105 51.215,0.89 51.254,0.629C51.446,-0.648 50.633,-1.382 49.605,-1.778C48.07,-2.37 46.475,-2.807 44.901,-3.301C44.418,-3.453 43.92,-3.562 43.437,-3.713C40.639,-4.587 40.545,-4.747 41.026,-7.875C42.489,-7.467 43.96,-7.121 45.389,-6.647C49.364,-5.331 53.325,-3.973 57.282,-2.605C57.877,-2.399 58.456,-2.105 58.984,-1.762C61.237,-0.304 61.12,2.432 58.718,3.606C50.553,7.6 43.103,12.706 35.685,17.922C29.913,21.98 23.782,25.536 17.745,29.206C14.274,31.315 10.625,33.13 7.138,35.214C1.999,38.285 -3.277,38.916 -9.258,37.874C-16.811,36.558 -24.009,34.159 -31.344,32.16C-35.176,31.116 -39.018,30.105 -42.829,28.989C-43.643,28.75 -44.444,28.228 -45.073,27.644C-46.513,26.309 -46.748,24.981 -45.696,23.324C-44.868,22.018 -43.947,20.609 -42.716,19.748C-38.978,17.134 -35.07,14.762 -31.224,12.302C-31.091,12.217 -30.916,12.2 -30.642,12.115" style="fill:rgb(160,197,232);fill-rule:nonzero;"/>
            </g>
        </g>
        <g transform="matrix(5.55556,0,0,5.55556,3631.89,4783.46)">
            <g transform="matrix(1,0,0,1,104.635,380.893)">
                <path d="M0,18.135C-0.257,17.948 -0.534,17.746 -0.812,17.544C-0.604,17.277 -0.454,16.882 -0.182,16.76C10.549,11.968 21.274,7.168 31.362,1.078C31.867,0.773 32.512,0 33.059,0.886C33.168,1.063 32.48,1.942 32,2.242C22.321,8.285 11.835,12.732 1.55,17.576C1.096,17.79 0.604,17.92 0,18.135" style="fill:rgb(35,31,32);fill-rule:nonzero;"/>
            </g>
        </g>
        <g transform="matrix(5.55556,0,0,5.55556,3631.89,4783.46)">
            <g transform="matrix(1,0,0,1,100.051,396.112)">
                <path d="M0,4.306C-4.232,3.37 -8.417,2.447 -12.601,1.517C-12.763,1.481 -12.972,1.43 -13.055,1.312C-13.289,0.981 -13.469,0.612 -13.671,0.258C-13.293,0.193 -12.884,0 -12.544,0.084C-10.544,0.582 -8.582,1.25 -6.565,1.656C-4.422,2.088 -2.229,2.261 -0.069,2.623C0.301,2.685 0.608,3.128 0.944,3.394C0.678,3.652 0.411,3.909 0,4.306" style="fill:rgb(35,31,32);fill-rule:nonzero;"/>
            </g>
        </g>
        <g transform="matrix(5.55556,0,0,5.55556,3631.89,4783.46)">
            <g transform="matrix(1,0,0,1,100.004,405.453)">
                <path d="M0,5.742C0.17,2.997 0.314,0.25 0.541,-2.49C0.574,-2.89 0.998,-3.257 1.24,-3.639C1.439,-3.235 1.82,-2.825 1.81,-2.425C1.722,1.087 1.589,4.598 1.396,8.106C1.373,8.543 0.924,8.956 0.672,9.381C0.463,8.931 0.134,8.497 0.07,8.028C-0.031,7.28 0.043,6.508 0.043,5.745C0.029,5.744 0.014,5.743 0,5.742" style="fill:rgb(35,31,32);fill-rule:nonzero;"/>
            </g>
        </g>
        <g transform="matrix(5.55556,0,0,5.55556,3631.89,4783.46)">
            <g transform="matrix(1,0,0,1,112.333,395.329)">
                <path d="M0,24.969C-0.258,24.74 -0.688,24.515 -0.669,24.34C-0.636,24.034 -0.391,23.65 -0.121,23.487C2.482,21.912 5.11,20.378 7.73,18.831C17.128,13.282 26.524,7.729 35.927,2.189C37.13,1.48 38.348,0.789 39.606,0.191C40.009,0 40.568,0.137 41.056,0.125C40.796,0.534 40.634,1.112 40.262,1.326C35.647,3.994 30.956,6.53 26.376,9.256C18.453,13.974 10.597,18.806 2.703,23.574C1.875,24.075 0.981,24.467 0,24.969" style="fill:rgb(35,31,32);fill-rule:nonzero;"/>
            </g>
        </g>
    </g>
</svg>
