<svg clip-rule="evenodd" fill-rule="evenodd" stroke-linejoin="round" stroke-miterlimit="2" viewBox="0 0 132 372" xmlns="http://www.w3.org/2000/svg"><g fill-rule="nonzero"><path d="m0-40.707c-.233-.532-.594-.462-.962-.176-1.575 1.224-3.2.855-4.819.142-.634-.279-1.226-.653-1.984-1.065.766-.712 1.665-1.091 2.508-1.259 1.563-.312 3.179-.416 4.763.05 1.613.475 2.99 2.308 3.118 4.176.07 1.018-.055 2.002-.471 2.944-1.022 2.314-1.346 4.682-.815 7.202.253 1.203.269 2.465-.671 3.569-.383.45-.707.639-1.239.615-1.515-.065-2.691-1.219-2.938-2.911-.071-.483-.082-.974-.124-1.507-.582.296-1.035.659-1.539.755-.994.191-1.877-.448-2.32-1.528-.534-1.305-.267-2.566.237-3.804.614-1.507.119-2.354-1.529-2.573-.646-.085-1.296-.143-1.943-.223-1.203-.147-1.64-.723-1.428-1.929.069-.392.254-.762.336-1.153.046-.214-.012-.45-.03-.812-1.232.521-1.384 1.555-1.485 2.483-.157 1.436.902 2.526 2.36 2.723.778.104 1.542.312 2.463.506-.177.819-.41 1.486-.445 2.164-.045.887-.081 1.822.144 2.667.368 1.382 1.185 2.424 2.8 2.542.491.035.971.219 1.568.363.22 1.863 1.613 2.842 3.256 3.442 1.053.386 1.322 1.042 1.408 2.028.245 2.798.551 5.591.832 8.386.015.15.033.3.038.451.105 3.362.239 6.722.303 10.086.045 2.378-.549 3.406-2.849 3.896-2.189.467-4.353 1.231-6.655 1.117-2.393-.119-4.664-.586-6.71-1.924-1.471-.961-1.972-2.318-1.878-4.004.059-1.052.099-2.112.041-3.163-.13-2.356-.385-4.707-.479-7.064-.105-2.611-.068-5.228-.132-7.841-.021-.85-.203-1.694-.249-2.545-.125-2.358-.191-4.719-.328-7.076-.133-2.303-.341-4.602-.479-6.904-.057-.951-.097-1.916.001-2.86.085-.819.494-1.408 1.427-1.708 1.142-.368 2.171-.409 3.368-.185 2.382.445 4.375 1.674 6.472 2.723 1.659.83 3.369 1.327 5.218.619.762-.292 1.232-.645 1.84-1.435" fill="#fbcdc9" transform="matrix(5.55556 0 0 5.55556 109.42055304 349.2375242)"/><path d="m13.054-40.214c.224 4.832 1.064 9.615 1.429 14.437.362 4.822.228 9.783-1.429 14.327-1.657 4.543-5.025 8.645-9.582 10.27 5.587 1.452 11.968-1 15.143-5.82" fill="#d7a9a3" transform="matrix(-5.44867658116 1.08451753428 1.08451753428 5.44867658116 121.50389604 359.2375322)"/><path d="m0-.716c1.257.158 2.366.865 3.466 1.494.908.518 1.839.992 2.791 1.423 1.36.613 2.789 1.142 4.28 1.211 1.49.068 3.061-.379 4.08-1.468 1.019-1.09 1.329-2.881.488-4.112-.628-.919-1.741-1.383-2.829-1.614-1.941-.414-4.004-.234-5.843.509-.894.361-1.779.861-2.742.837-.529-.013-1.039-.185-1.55-.324-.97-.264-1.972-.412-2.977-.439-1.228-.035-2.583.17-3.394 1.094-.744.847-.707 2.326.452 2.571 1.123.237 2.412-1.354 3.778-1.182" fill="#fff684" transform="matrix(5.55556 0 0 5.55556 33.30938104 131.36512768)"/><path d="m0-28.369c1.513.387 1.859-1.303 3.042-1.26.199.008.414-.402.617-.622.033-.035.043-.091.07-.134 1.652-2.574 2.205-5.273.689-8.087-1.276-2.369-2.675-4.672-4.023-7.011-.706.852-1.386 1.653-2.043 2.472-1.837 2.291-3.132 4.795-2.952 7.843.143 2.435.721 4.651 3.209 5.982.082-.704.159-1.343.229-1.984.1-.896.181-1.794.297-2.687.059-.454-.062-1.206.661-1.067.71.137.318.844.271 1.289-.184 1.749-.18 3.493-.067 5.266m8.314 2.747c-.608.79-1.077 1.143-1.839 1.435-1.85.708-3.56.212-5.219-.619-2.096-1.049-4.089-2.278-6.472-2.723-1.197-.224-2.225-.183-3.368.185-.933.3-1.341.889-1.426 1.708-.098.944-.058 1.909-.001 2.86.138 2.303.345 4.601.479 6.904.136 2.357.203 4.718.328 7.076.045.851.227 1.696.248 2.545.065 2.613.028 5.23.132 7.841.094 2.357.349 4.708.479 7.064.058 1.051.018 2.111-.04 3.164-.095 1.685.406 3.042 1.877 4.003 2.046 1.338 4.318 1.805 6.71 1.924 2.303.115 4.466-.65 6.656-1.117 2.3-.49 2.893-1.518 2.848-3.896-.063-3.364-.197-6.724-.302-10.086-.005-.151-.024-.301-.039-.451-.281-2.794-.587-5.587-.831-8.386-.086-.986-.355-1.642-1.409-2.028-1.642-.6-3.036-1.579-3.255-3.442-.597-.144-1.078-.328-1.569-.363-1.614-.117-2.432-1.159-2.8-2.542-.224-.845-.188-1.78-.143-2.667.035-.678.267-1.345.444-2.164-.921-.194-1.685-.402-2.463-.506-1.458-.196-2.517-1.287-2.36-2.723.101-.928.254-1.962 1.486-2.483.017.362.075.598.03.812-.083.391-.268.761-.337 1.153-.211 1.206.226 1.782 1.428 1.929.648.08 1.297.138 1.944.223 1.648.219 2.142 1.066 1.529 2.573-.505 1.238-.772 2.499-.237 3.804.443 1.08 1.325 1.719 2.32 1.528.504-.095.956-.459 1.538-.755.042.533.054 1.024.125 1.507.246 1.693 1.423 2.846 2.938 2.911.531.024.855-.165 1.239-.615.939-1.103.924-2.366.67-3.569-.53-2.52-.206-4.888.815-7.201.416-.943.542-1.927.471-2.945-.128-1.868-1.505-3.701-3.117-4.176-1.584-.466-3.201-.362-4.763-.05-.843.168-1.743.548-2.509 1.259.758.412 1.35.786 1.985 1.065 1.618.713 3.244 1.082 4.819-.142.367-.286.728-.356.961.176m-10.81-2.712c-2.66-1.801-3.385-4.37-3.258-7.345.06-1.411.121-2.836.724-4.125.507-1.082 1.138-2.121 1.834-3.092.933-1.305 1.974-2.532 2.984-3.78.278-.345.607-.649 1.036-1.101.507 1.154.881 2.224 1.426 3.198.956 1.7 2.058 3.317 3.021 5.015.849 1.496 1.564 3.13 1.297 4.857-.233 1.509-.885 2.954-1.367 4.423-.074.224-.23.421-.438.788.655 0 1.143-.005 1.63.001 4.002.051 6.752 3.663 5.729 7.555-.242.918-.514 1.838-.881 2.71-.679 1.608-.501 3.251-.342 4.903.086.897.204 1.793.24 2.692.035.88-.191 1.716-.861 2.333-.624.577-.733 1.279-.67 2.056.109 1.353.222 2.705.334 4.058.285 3.401.577 6.801.853 10.203.182 2.241.298 4.489.535 6.725.089.84-.112 1.465-.696 2.025-1.29 1.236-2.699 2.198-4.55 2.427-1.086.134-2.135.558-3.221.71-3.627.506-7.068-.018-10.233-1.978-1.861-1.152-2.642-2.822-2.456-4.961.29-3.311.049-6.603-.241-9.9-.106-1.2-.119-2.41-.134-3.616-.021-1.754.055-3.51-.02-5.261-.105-2.452-.33-4.9-.467-7.351-.075-1.354-.029-2.716-.119-4.068-.113-1.696-.315-3.385-.464-5.078-.058-.651-.093-1.304-.109-1.956-.037-1.52.948-2.571 2.001-3.31.681-.478 1.837-.433 2.763-.373 1.381.09 2.748.4 4.12.616" fill="#231f20" transform="matrix(5.55556 0 0 5.55556 63.2316272 265.4319016)"/><path d="m0 16.727c-.113-1.773-.117-3.517.067-5.266.047-.445.439-1.152-.271-1.289-.723-.139-.602.613-.661 1.067-.116.893-.197 1.791-.297 2.687-.07.641-.147 1.28-.229 1.984-2.488-1.331-3.066-3.547-3.209-5.982-.18-3.048 1.115-5.552 2.952-7.843.657-.819 1.337-1.62 2.043-2.472 1.348 2.339 2.747 4.642 4.023 7.011 1.516 2.814.963 5.513-.689 8.087-.027.043-.037.099-.07.134-.203.22-.418.63-.617.622-1.183-.043-1.529 1.647-3.042 1.26" fill="#fff200" transform="matrix(5.55556 0 0 5.55556 63.2316272 14.89836784)"/><path d="m0-11.083c.413 1.719 1.92 2.981 2.479 4.657.716 2.146-.251 4.471-1.387 6.426.758-2.288.045-4.993-1.742-6.61-.588 1.22-.83 2.529-1.069 3.832-2.231-2.664 2.326-5.779 1.719-8.305" fill="#f8991c" transform="matrix(5.55556 0 0 5.55556 62.21495972 96.83732228)"/><path d="m0-6.969c1.31 2.538 3.028 4.865 5.068 6.864-.444-3.361-3.68-5.8-4.277-9.136-1.925 1.504-3.425 3.547-4.286 5.835-.681 1.809-.958 3.844-.344 5.678-.132-1.694.458-3.292 1.133-4.815.187-.422 2.74-4.36 2.706-4.426" fill="#fff" transform="matrix(5.55556 0 0 5.55556 62.44273768 67.37063204)"/></g></svg>