<?xml version="1.0" encoding="UTF-8" standalone="no"?><!DOCTYPE svg PUBLIC "-//W3C//DTD SVG 1.1//EN" "http://www.w3.org/Graphics/SVG/1.1/DTD/svg11.dtd"><svg width="100%" height="100%" viewBox="0 0 76 70" version="1.1" xmlns="http://www.w3.org/2000/svg" xmlns:xlink="http://www.w3.org/1999/xlink" xml:space="preserve" xmlns:serif="http://www.serif.com/" style="fill-rule:evenodd;clip-rule:evenodd;"><g><path d="M56.201,21.949c8.18,0 14.811,-3.94 14.811,-8.8c0,-4.86 -6.631,-8.8 -14.811,-8.8c-8.18,0 -14.811,3.94 -14.811,8.8c0,4.86 6.631,8.8 14.811,8.8" style="fill:#41c3d0;fill-rule:nonzero;"/><path d="M56.201,21.949c8.18,0 14.811,-3.94 14.811,-8.8c0,-4.86 -6.631,-8.8 -14.811,-8.8c-8.18,0 -14.811,3.94 -14.811,8.8c0,4.86 6.631,8.8 14.811,8.8Z" style="fill:none;fill-rule:nonzero;stroke:#a9dde5;stroke-width:2px;"/><path d="M37.084,43.402c8.18,0 14.811,-3.94 14.811,-8.8c0,-4.86 -6.631,-8.8 -14.811,-8.8c-8.18,0 -14.811,3.94 -14.811,8.8c0,4.86 6.631,8.8 14.811,8.8" style="fill:#41c3d0;fill-rule:nonzero;"/><path d="M37.084,43.402c8.18,0 14.811,-3.94 14.811,-8.8c0,-4.86 -6.631,-8.8 -14.811,-8.8c-8.18,0 -14.811,3.94 -14.811,8.8c0,4.86 6.631,8.8 14.811,8.8Z" style="fill:none;fill-rule:nonzero;stroke:#a9dde5;stroke-width:2px;"/><path d="M53.844,64.855c8.18,0 14.811,-3.94 14.811,-8.8c0,-4.86 -6.631,-8.8 -14.811,-8.8c-8.18,0 -14.811,3.94 -14.811,8.8c0,4.86 6.631,8.8 14.811,8.8" style="fill:#41c3d0;fill-rule:nonzero;"/><path d="M53.844,64.855c8.18,0 14.811,-3.94 14.811,-8.8c0,-4.86 -6.631,-8.8 -14.811,-8.8c-8.18,0 -14.811,3.94 -14.811,8.8c0,4.86 6.631,8.8 14.811,8.8Z" style="fill:none;fill-rule:nonzero;stroke:#a9dde5;stroke-width:2px;"/><path d="M18.941,21.949c8.18,0 14.811,-3.94 14.811,-8.8c0,-4.86 -6.631,-8.8 -14.811,-8.8c-8.18,0 -14.811,3.94 -14.811,8.8c0,4.86 6.631,8.8 14.811,8.8" style="fill:#41c3d0;fill-rule:nonzero;"/><path d="M18.941,21.949c8.18,0 14.811,-3.94 14.811,-8.8c0,-4.86 -6.631,-8.8 -14.811,-8.8c-8.18,0 -14.811,3.94 -14.811,8.8c0,4.86 6.631,8.8 14.811,8.8Z" style="fill:none;fill-rule:nonzero;stroke:#a9dde5;stroke-width:2px;"/><path d="M20.325,64.855c8.18,0 14.811,-3.94 14.811,-8.8c0,-4.86 -6.631,-8.8 -14.811,-8.8c-8.18,0 -14.811,3.94 -14.811,8.8c0,4.86 6.631,8.8 14.811,8.8" style="fill:#41c3d0;fill-rule:nonzero;"/><path d="M20.325,64.855c8.18,0 14.811,-3.94 14.811,-8.8c0,-4.86 -6.631,-8.8 -14.811,-8.8c-8.18,0 -14.811,3.94 -14.811,8.8c0,4.86 6.631,8.8 14.811,8.8Z" style="fill:none;fill-rule:nonzero;stroke:#a9dde5;stroke-width:2px;"/></g></svg>