<?xml version="1.0" encoding="UTF-8" standalone="no"?><!DOCTYPE svg PUBLIC "-//W3C//DTD SVG 1.1//EN" "http://www.w3.org/Graphics/SVG/1.1/DTD/svg11.dtd"><svg width="100%" height="100%" viewBox="0 0 73 70" version="1.1" xmlns="http://www.w3.org/2000/svg" xmlns:xlink="http://www.w3.org/1999/xlink" xml:space="preserve" xmlns:serif="http://www.serif.com/" style="fill-rule:evenodd;clip-rule:evenodd;"><g><path d="M35.37,43.807c8.18,0 14.811,-3.94 14.811,-8.8c0,-4.86 -6.631,-8.8 -14.811,-8.8c-8.18,0 -14.811,3.94 -14.811,8.8c0,4.86 6.631,8.8 14.811,8.8" style="fill:#ffdb4f;fill-rule:nonzero;"/><path d="M35.37,43.807c8.18,0 14.811,-3.94 14.811,-8.8c0,-4.86 -6.631,-8.8 -14.811,-8.8c-8.18,0 -14.811,3.94 -14.811,8.8c0,4.86 6.631,8.8 14.811,8.8Z" style="fill:none;fill-rule:nonzero;stroke:#ffeba9;stroke-width:2px;"/><path d="M52.514,21.949c8.18,0 14.811,-3.94 14.811,-8.8c0,-4.86 -6.631,-8.8 -14.811,-8.8c-8.18,0 -14.811,3.94 -14.811,8.8c0,4.86 6.631,8.8 14.811,8.8" style="fill:#ffdb4f;fill-rule:nonzero;"/><path d="M52.514,21.949c8.18,0 14.811,-3.94 14.811,-8.8c0,-4.86 -6.631,-8.8 -14.811,-8.8c-8.18,0 -14.811,3.94 -14.811,8.8c0,4.86 6.631,8.8 14.811,8.8Z" style="fill:none;fill-rule:nonzero;stroke:#ffeba9;stroke-width:2px;"/><path d="M53.797,65.564c8.18,0 14.811,-3.94 14.811,-8.8c0,-4.86 -6.631,-8.8 -14.811,-8.8c-8.18,0 -14.811,3.94 -14.811,8.8c0,4.86 6.631,8.8 14.811,8.8" style="fill:#ffdb4f;fill-rule:nonzero;"/><path d="M53.797,65.564c8.18,0 14.811,-3.94 14.811,-8.8c0,-4.86 -6.631,-8.8 -14.811,-8.8c-8.18,0 -14.811,3.94 -14.811,8.8c0,4.86 6.631,8.8 14.811,8.8Z" style="fill:none;fill-rule:nonzero;stroke:#ffeba9;stroke-width:2px;"/><path d="M18.994,21.949c8.18,0 14.811,-3.94 14.811,-8.8c0,-4.86 -6.631,-8.8 -14.811,-8.8c-8.18,0 -14.811,3.94 -14.811,8.8c0,4.86 6.631,8.8 14.811,8.8" style="fill:#ffdb4f;fill-rule:nonzero;"/><path d="M18.994,21.949c8.18,0 14.811,-3.94 14.811,-8.8c0,-4.86 -6.631,-8.8 -14.811,-8.8c-8.18,0 -14.811,3.94 -14.811,8.8c0,4.86 6.631,8.8 14.811,8.8Z" style="fill:none;fill-rule:nonzero;stroke:#ffeba9;stroke-width:2px;"/><path d="M18.994,65.564c8.18,0 14.811,-3.94 14.811,-8.8c0,-4.86 -6.631,-8.8 -14.811,-8.8c-8.18,0 -14.811,3.94 -14.811,8.8c0,4.86 6.631,8.8 14.811,8.8" style="fill:#ffdb4f;fill-rule:nonzero;"/><path d="M18.994,65.564c8.18,0 14.811,-3.94 14.811,-8.8c0,-4.86 -6.631,-8.8 -14.811,-8.8c-8.18,0 -14.811,3.94 -14.811,8.8c0,4.86 6.631,8.8 14.811,8.8Z" style="fill:none;fill-rule:nonzero;stroke:#ffeba9;stroke-width:2px;"/></g></svg>