<?xml version="1.0" encoding="UTF-8" standalone="no"?>
<!DOCTYPE svg PUBLIC "-//W3C//DTD SVG 1.1//EN" "http://www.w3.org/Graphics/SVG/1.1/DTD/svg11.dtd">
<svg width="100%" height="100%" viewBox="0 0 200 200" version="1.1" xmlns="http://www.w3.org/2000/svg" xmlns:xlink="http://www.w3.org/1999/xlink" xml:space="preserve" xmlns:serif="http://www.serif.com/" style="fill-rule:evenodd;clip-rule:evenodd;">
    <g transform="matrix(4.16667,0,0,4.16667,-2076.19,-475.873)">
        <path d="M529.702,154.348C528.149,154.803 526.926,155.03 526.032,155.03C520.393,155.03 517.573,152.393 517.573,147.119L517.573,134.419L514.87,134.419L514.87,130.354L517.573,130.354L517.573,126.289L524.077,125.542L524.077,130.354L529.24,130.354L529.24,134.419L524.077,134.419L524.077,146.263C524.077,149.222 525.285,150.701 527.702,150.701C528.259,150.701 528.925,150.598 529.702,150.393L529.702,154.348Z" style="fill:none;fill-rule:nonzero;stroke:rgb(170,225,250);stroke-width:2px;"/>
        <g transform="matrix(45,0,0,45,513.2,154.48)">
            <path d="M0.367,-0.003C0.332,0.007 0.305,0.012 0.285,0.012C0.16,0.012 0.097,-0.046 0.097,-0.164L0.097,-0.446L0.037,-0.446L0.037,-0.536L0.097,-0.536L0.097,-0.626L0.242,-0.643L0.242,-0.536L0.356,-0.536L0.356,-0.446L0.242,-0.446L0.242,-0.183C0.242,-0.117 0.269,-0.084 0.322,-0.084C0.335,-0.084 0.349,-0.086 0.367,-0.091L0.367,-0.003Z" style="fill:white;fill-rule:nonzero;"/>
        </g>
    </g>
</svg>
