<?xml version="1.0" encoding="UTF-8" standalone="no"?>
<!DOCTYPE svg PUBLIC "-//W3C//DTD SVG 1.1//EN" "http://www.w3.org/Graphics/SVG/1.1/DTD/svg11.dtd">
<svg width="100%" height="100%" viewBox="0 0 200 200" version="1.1" xmlns="http://www.w3.org/2000/svg" xmlns:xlink="http://www.w3.org/1999/xlink" xml:space="preserve" xmlns:serif="http://www.serif.com/" style="fill-rule:evenodd;clip-rule:evenodd;">
    <g transform="matrix(4.16667,0,0,4.16667,-665.621,-475.873)">
        <g>
            <path d="M174.268,153.711L174.268,148.943C177.491,150.291 180.244,150.965 182.53,150.965C185.196,150.965 186.529,150.056 186.529,148.24C186.529,147.068 185.43,146.043 183.233,145.164L181.036,144.285C178.648,143.318 176.941,142.278 175.916,141.165C174.89,140.052 174.378,138.675 174.378,137.034C174.378,134.749 175.249,132.973 176.993,131.706C178.736,130.439 181.175,129.805 184.309,129.805C186.272,129.805 188.609,130.091 191.319,130.662L191.319,135.232C188.711,134.324 186.551,133.87 184.837,133.87C182.141,133.87 180.794,134.705 180.794,136.375C180.794,137.473 181.79,138.404 183.782,139.165L185.672,139.89C188.499,140.96 190.465,142.044 191.571,143.142C192.677,144.241 193.23,145.655 193.23,147.383C193.23,149.654 192.289,151.496 190.407,152.909C188.525,154.323 186.075,155.03 183.057,155.03C180.157,155.03 177.227,154.59 174.268,153.711Z" style="fill:none;fill-rule:nonzero;stroke:rgb(170,225,250);stroke-width:2px;"/>
        </g>
        <g transform="matrix(45,0,0,45,170.84,154.48)">
            <path d="M0.076,-0.017L0.076,-0.123C0.148,-0.093 0.209,-0.078 0.26,-0.078C0.319,-0.078 0.349,-0.098 0.349,-0.139C0.349,-0.165 0.324,-0.188 0.275,-0.207L0.227,-0.227C0.174,-0.248 0.136,-0.271 0.113,-0.296C0.09,-0.321 0.079,-0.351 0.079,-0.388C0.079,-0.438 0.098,-0.478 0.137,-0.506C0.175,-0.534 0.23,-0.548 0.299,-0.548C0.343,-0.548 0.395,-0.542 0.455,-0.529L0.455,-0.428C0.397,-0.448 0.349,-0.458 0.311,-0.458C0.251,-0.458 0.221,-0.439 0.221,-0.402C0.221,-0.378 0.243,-0.357 0.288,-0.34L0.33,-0.324C0.392,-0.3 0.436,-0.276 0.461,-0.252C0.485,-0.228 0.498,-0.196 0.498,-0.158C0.498,-0.107 0.477,-0.066 0.435,-0.035C0.393,-0.003 0.339,0.012 0.271,0.012C0.207,0.012 0.142,0.002 0.076,-0.017Z" style="fill:white;fill-rule:nonzero;"/>
        </g>
    </g>
</svg>
