<svg clip-rule="evenodd" fill-rule="evenodd" viewBox="0 0 200 200" xmlns="http://www.w3.org/2000/svg"><path d="m174.268 153.711v-4.768c3.223 1.348 5.976 2.022 8.262 2.022 2.666 0 3.999-.909 3.999-2.725 0-1.172-1.099-2.197-3.296-3.076l-2.197-.879c-2.388-.967-4.095-2.007-5.12-3.12-1.026-1.113-1.538-2.49-1.538-4.131 0-2.285.871-4.061 2.615-5.328 1.743-1.267 4.182-1.901 7.316-1.901 1.963 0 4.3.286 7.01.857v4.57c-2.608-.908-4.768-1.362-6.482-1.362-2.696 0-4.043.835-4.043 2.505 0 1.098.996 2.029 2.988 2.79l1.89.725c2.827 1.07 4.793 2.154 5.899 3.252 1.106 1.099 1.659 2.513 1.659 4.241 0 2.271-.941 4.113-2.823 5.526-1.882 1.414-4.332 2.121-7.35 2.121-2.9 0-5.83-.44-8.789-1.319z" fill="none" stroke="#aae1fa" stroke-width="2" transform="matrix(4.16667 0 0 4.16667 -665.621 -475.873)"/><path d="m.076-.017v-.106c.072.03.133.045.184.045.059 0 .089-.02.089-.061 0-.026-.025-.049-.074-.068l-.048-.02c-.053-.021-.091-.044-.114-.069s-.034-.055-.034-.092c0-.05.019-.09.058-.118.038-.028.093-.042.162-.042.044 0 .096.006.156.019v.101c-.058-.02-.106-.03-.144-.03-.06 0-.09.019-.09.056 0 .024.022.045.067.062l.042.016c.062.024.106.048.131.072.024.024.037.056.037.094 0 .051-.021.092-.063.123-.042.032-.096.047-.164.047-.064 0-.129-.01-.195-.029z" fill="#fff" fill-rule="nonzero" transform="matrix(187.50015 0 0 187.50015 46.212903 167.794182)"/></svg>