<svg clip-rule="evenodd" fill-rule="evenodd" viewBox="0 0 200 200" xmlns="http://www.w3.org/2000/svg"><path d="m219.786 154.239v-4.878c3.222 1.245 5.881 1.867 7.976 1.867 1.948 0 3.512-.498 4.691-1.494s1.769-2.322 1.769-3.977c0-4.292-3.142-6.438-9.427-6.438h-1.999v-3.889l1.692-.022c5.888 0 8.833-1.926 8.833-5.779 0-2.944-1.817-4.416-5.449-4.416-2.388 0-4.937.608-7.647 1.823v-4.438c2.857-.981 5.867-1.472 9.031-1.472 3.354 0 5.98.688 7.877 2.065s2.845 3.281 2.845 5.713c0 3.838-2.395 6.548-7.185 8.13 5.479 1.26 8.218 4.189 8.218 8.789 0 2.915-1.098 5.222-3.296 6.921-2.197 1.7-5.185 2.549-8.965 2.549-3.208 0-6.196-.351-8.964-1.054z" fill="none" stroke="#aae1fa" stroke-width="2" transform="matrix(4.16667 0 0 4.16667 -859.993 -475.873)"/><path d="m.099-.005v-.109c.071.028.13.042.177.042.043 0 .078-.011.104-.033.026-.023.039-.052.039-.089 0-.095-.069-.143-.209-.143h-.044v-.086l.037-.001c.131 0 .196-.043.196-.128 0-.066-.04-.098-.121-.098-.053 0-.109.013-.17.04v-.098c.064-.022.131-.033.201-.033.075 0 .133.015.175.046.042.03.063.073.063.127 0 .085-.053.145-.159.18.121.028.182.093.182.196 0 .064-.024.116-.073.153-.049.038-.115.057-.199.057-.071 0-.138-.008-.199-.023z" fill="#fff" fill-rule="nonzero" transform="matrix(187.50015 0 0 187.50015 37.286884 167.794182)"/></svg>