<svg clip-rule="evenodd" fill-rule="evenodd" viewBox="0 0 200 200" xmlns="http://www.w3.org/2000/svg"><path d="m289.814 153.667c-3.091.909-6.021 1.363-8.789 1.363-4.029 0-7.207-1.143-9.536-3.428-2.33-2.285-3.494-5.405-3.494-9.36 0-3.736 1.066-6.742 3.197-9.02s4.947-3.417 8.448-3.417c3.531 0 6.109 1.113 7.735 3.34 1.626 2.226 2.439 5.749 2.439 10.569h-14.964c.44 4.599 2.967 6.899 7.581 6.899 2.183 0 4.643-.505 7.383-1.516zm-15.052-13.623h8.658c0-4.116-1.326-6.174-3.977-6.174-2.696 0-4.256 2.058-4.681 6.174z" fill="none" stroke="#aae1fa" stroke-width="2" transform="matrix(4.16667 0 0 4.16667 -1062.1 -475.873)"/><path d="m.527-.018c-.069.02-.134.03-.195.03-.09 0-.161-.025-.212-.076-.052-.051-.078-.12-.078-.208 0-.083.024-.15.071-.2.047-.051.11-.076.188-.076s.136.024.172.074c.036.049.054.128.054.235h-.333c.01.102.066.153.169.153.048 0 .103-.011.164-.034zm-.335-.303h.193c0-.091-.03-.137-.089-.137-.06 0-.094.046-.104.137z" fill="#fff" fill-rule="nonzero" transform="matrix(187.50015 0 0 187.50015 46.67172 167.794182)"/></svg>