<?xml version="1.0" encoding="UTF-8" standalone="no"?>
<!DOCTYPE svg PUBLIC "-//W3C//DTD SVG 1.1//EN" "http://www.w3.org/Graphics/SVG/1.1/DTD/svg11.dtd">
<svg width="100%" height="100%" viewBox="0 0 200 200" version="1.1" xmlns="http://www.w3.org/2000/svg" xmlns:xlink="http://www.w3.org/1999/xlink" xml:space="preserve" xmlns:serif="http://www.serif.com/" style="fill-rule:evenodd;clip-rule:evenodd;">
    <g transform="matrix(4.16667,0,0,4.16667,-1250.73,-475.873)">
        <path d="M318.704,137.056C315.569,134.991 314.002,132.5 314.002,129.585C314.002,127.066 314.991,125.026 316.968,123.466C318.946,121.906 321.539,121.126 324.747,121.126C327.764,121.126 330.178,121.792 331.987,123.125C333.796,124.458 334.7,126.238 334.7,128.465C334.7,131.336 332.869,134.053 329.207,136.617C333.836,139.034 336.151,142.073 336.151,145.735C336.151,148.592 335.023,150.899 332.767,152.657C330.511,154.414 327.552,155.293 323.89,155.293C320.389,155.293 317.565,154.488 315.419,152.876C313.273,151.265 312.2,149.141 312.2,146.504C312.2,142.681 314.368,139.532 318.704,137.056ZM325.823,134.771C327.991,133.086 329.075,131.284 329.075,129.366C329.075,128.106 328.629,127.099 327.735,126.344C326.841,125.59 325.662,125.213 324.197,125.213C322.835,125.213 321.733,125.542 320.891,126.201C320.048,126.861 319.627,127.725 319.627,128.794C319.627,129.849 320.045,130.775 320.88,131.574C321.714,132.372 323.362,133.438 325.823,134.771ZM321.912,139.231C319.554,141.194 318.375,143.267 318.375,145.45C318.375,147.149 318.964,148.548 320.143,149.646C321.323,150.745 322.82,151.294 324.637,151.294C326.234,151.294 327.57,150.862 328.647,149.998C329.724,149.134 330.262,148.057 330.262,146.768C330.262,145.655 329.899,144.702 329.174,143.911C328.449,143.12 327.039,142.132 324.944,140.945L321.912,139.231Z" style="fill:none;fill-rule:nonzero;stroke:rgb(170,225,250);stroke-width:2px;"/>
        <g transform="matrix(45,0,0,45,309.08,154.48)">
            <path d="M0.214,-0.387C0.144,-0.433 0.109,-0.488 0.109,-0.553C0.109,-0.609 0.131,-0.655 0.175,-0.689C0.219,-0.724 0.277,-0.741 0.348,-0.741C0.415,-0.741 0.469,-0.726 0.509,-0.697C0.549,-0.667 0.569,-0.628 0.569,-0.578C0.569,-0.514 0.529,-0.454 0.447,-0.397C0.55,-0.343 0.602,-0.276 0.602,-0.194C0.602,-0.131 0.576,-0.08 0.526,-0.041C0.476,-0.001 0.41,0.018 0.329,0.018C0.251,0.018 0.189,0 0.141,-0.036C0.093,-0.071 0.069,-0.119 0.069,-0.177C0.069,-0.262 0.118,-0.332 0.214,-0.387ZM0.372,-0.438C0.42,-0.475 0.444,-0.515 0.444,-0.558C0.444,-0.586 0.434,-0.608 0.415,-0.625C0.395,-0.642 0.368,-0.65 0.336,-0.65C0.306,-0.65 0.281,-0.643 0.262,-0.628C0.244,-0.614 0.234,-0.595 0.234,-0.571C0.234,-0.547 0.244,-0.527 0.262,-0.509C0.281,-0.491 0.317,-0.468 0.372,-0.438ZM0.285,-0.339C0.233,-0.295 0.207,-0.249 0.207,-0.201C0.207,-0.163 0.22,-0.132 0.246,-0.107C0.272,-0.083 0.305,-0.071 0.346,-0.071C0.381,-0.071 0.411,-0.08 0.435,-0.1C0.459,-0.119 0.471,-0.143 0.471,-0.171C0.471,-0.196 0.463,-0.217 0.447,-0.235C0.43,-0.252 0.399,-0.274 0.353,-0.301L0.285,-0.339Z" style="fill:white;fill-rule:nonzero;"/>
        </g>
    </g>
</svg>
