<svg clip-rule="evenodd" fill-rule="evenodd" viewBox="0 0 200 200" xmlns="http://www.w3.org/2000/svg"><g transform="matrix(4.16667 0 0 4.16667 -1457.29 -475.873)"><path d="m373.585 155.03c-3.765 0-6.757-1.139-8.976-3.417-2.22-2.278-3.329-5.343-3.329-9.196 0-3.896 1.117-6.972 3.351-9.228s5.269-3.384 9.107-3.384c3.853 0 6.896 1.128 9.13 3.384s3.351 5.317 3.351 9.184c0 3.955-1.121 7.054-3.362 9.295s-5.332 3.362-9.272 3.362zm.109-4.065c3.736 0 5.603-2.864 5.603-8.592 0-2.622-.494-4.694-1.483-6.218-.988-1.523-2.347-2.285-4.076-2.285-1.714 0-3.065.762-4.054 2.285-.988 1.524-1.483 3.611-1.483 6.262 0 2.622.491 4.702 1.472 6.241.982 1.538 2.322 2.307 4.021 2.307z" fill="none" stroke="#aae1fa" stroke-width="2"/><path d="m.315.012c-.083 0-.15-.025-.199-.076-.049-.05-.074-.118-.074-.204 0-.087.025-.155.074-.205.05-.05.118-.075.203-.075s.153.025.203.075c.049.05.074.118.074.204 0 .088-.025.157-.075.206-.049.05-.118.075-.206.075zm.003-.09c.083 0 .124-.064.124-.191 0-.058-.011-.104-.033-.138s-.052-.051-.09-.051-.068.017-.09.051-.033.08-.033.139c0 .058.011.104.033.139.021.034.051.051.089.051z" fill="#fff" fill-rule="nonzero" transform="matrix(45 0 0 45 359.39 154.48)"/></g></svg>