<svg clip-rule="evenodd" fill-rule="evenodd" viewBox="0 0 200 200" xmlns="http://www.w3.org/2000/svg"><g transform="matrix(4.16667 0 0 4.16667 -1684.75 -475.873)"><path d="m418.606 154.48c.307-2.446.912-4.592 1.813-6.438.9-1.845 2.926-5.068 6.075-9.668l7.646-11.14h-16.918v-5.273h22.236v5.273c-4.263 5.376-7.603 10.478-10.02 15.304-2.417 4.827-3.625 8.808-3.625 11.942z" fill="none" stroke="#aae1fa" stroke-width="2"/><path d="m.15 0c.007-.054.02-.102.04-.143s.065-.113.135-.215l.17-.247h-.376v-.118h.494v.118c-.094.119-.169.232-.222.34-.054.107-.081.195-.081.265z" fill="#fff" fill-rule="nonzero" transform="matrix(45 0 0 45 411.86 154.48)"/></g></svg>