<svg clip-rule="evenodd" fill-rule="evenodd" stroke-linejoin="round" stroke-miterlimit="2" viewBox="0 0 173 226" xmlns="http://www.w3.org/2000/svg" xmlns:xlink="http://www.w3.org/1999/xlink"><linearGradient id="a" gradientTransform="matrix(1 0 0 -1 0 .000019)" gradientUnits="userSpaceOnUse" x1="0" x2="1" y1="0" y2="0"><stop offset="0" stop-color="#00a550"/><stop offset="1" stop-color="#007338"/></linearGradient><linearGradient id="b" gradientTransform="matrix(1 0 0 -1 0 .000019)" gradientUnits="userSpaceOnUse" x1="0" x2="1" y1="0" y2="0"><stop offset="0" stop-color="#00af4c"/><stop offset="1" stop-color="#00ad4d"/></linearGradient><linearGradient id="c" gradientTransform="matrix(1 0 0 -1 0 .000009)" gradientUnits="userSpaceOnUse" x1="0" x2="1" y1="0" y2="0"><stop offset="0" stop-color="#97cf91"/><stop offset="1" stop-color="#00a550"/></linearGradient><linearGradient id="d" gradientTransform="matrix(1 0 0 -1 0 .00005)" gradientUnits="userSpaceOnUse" x1="0" x2="1" y1="0" y2="0"><stop offset="0" stop-color="#00ac4e"/><stop offset="1" stop-color="#007338"/></linearGradient><linearGradient id="e" gradientTransform="matrix(1 0 0 -1 0 .00005)" gradientUnits="userSpaceOnUse" x1="0" x2="1" y1="0" y2="0"><stop offset="0" stop-color="#d6e1e2"/><stop offset="1" stop-color="#a8bfbd"/></linearGradient><linearGradient id="f" gradientTransform="matrix(1 0 0 -1 0 -.000036)" gradientUnits="userSpaceOnUse" x1="0" x2="1" y1="0" y2="0"><stop offset="0" stop-color="#fff"/><stop offset="1" stop-color="#dde6e6"/></linearGradient><g fill-rule="nonzero"><path d="m.212-.397c.051 0 .098.018.132.051.026.025.058.072.058.151l.374-.027c.061-.004.114.014.155.051.044.042.069.106.069.18 0 .098-.038.153-.07.182-.041.036-.095.052-.155.045l-.389-.042-.001.015c-.004.11-.08.188-.184.188-.083 0-.174-.053-.182-.203l-.019-.362c0-.004 0-.009 0-.013 0-.14.11-.216.212-.216z" fill="url(#a)" transform="matrix(0 216.206 216.206 0 86.69 9.78)"/><path d="m.213-.397c.05 0 .097.018.131.051.026.025.058.072.058.151l.374-.027c.061-.004.114.014.155.051.044.042.069.106.069.18 0 .098-.038.153-.07.182-.041.036-.095.052-.155.045l-.389-.042-.001.015c-.004.111-.08.188-.184.188-.083 0-.174-.053-.182-.203l-.019-.362c0-.004 0-.009 0-.013 0-.14.109-.216.213-.216z" fill="url(#b)" transform="matrix(0 216.199 216.199 0 86.69 .79)"/><path d="m.21-.396c.05 0 .096.018.129.05.027.025.058.072.058.15v.004l.382-.027c.06-.005.112.013.152.05.045.041.069.104.069.178 0 .098-.038.152-.069.18-.041.036-.094.052-.153.045l-.397-.043-.001.019c-.004.111-.077.186-.181.186-.082 0-.172-.053-.18-.201l-.019-.364c0-.005 0-.009 0-.014 0-.138.108-.213.21-.213z" fill="url(#c)" transform="matrix(0 214.414 214.414 0 86.69 .79)"/><path d="m.148-.374c.064 0 .124.039.12.148l-.005.109.583-.043c.102-.007.154.068.154.171 0 .116-.058.177-.151.167l-.595-.064-.006.137c-.003.08-.049.123-.114.123-.062 0-.105-.044-.111-.143l-.023-.442c0-.003 0-.007 0-.011 0-.11.084-.152.148-.152z" fill="url(#d)" transform="matrix(0 176.692 176.692 0 86.69 24.14)"/><g fill="url(#e)"><path d="m.148-.374c.064 0 .124.039.12.148l-.005.109.583-.043c.102-.007.154.068.154.171 0 .116-.058.177-.151.167l-.595-.064-.006.137c-.003.08-.049.123-.114.123-.062 0-.105-.044-.111-.143l-.023-.442c0-.003 0-.007 0-.011 0-.11.084-.152.148-.152z" transform="matrix(0 176.692 176.692 0 86.69 21.45)"/><path d="m.148-.374c.064 0 .124.039.12.148l-.005.109.583-.043c.102-.007.154.068.154.171 0 .116-.058.177-.151.167l-.595-.064-.006.137c-.003.08-.049.123-.114.123-.062 0-.105-.044-.111-.143l-.023-.442c0-.004 0-.007 0-.011 0-.11.084-.152.148-.152z" transform="matrix(0 176.693 176.693 0 86.69 20.54)"/><path d="m.148-.374c.064 0 .124.039.12.148l-.005.109.583-.043c.103-.007.154.068.154.171 0 .116-.058.177-.151.167l-.595-.064-.006.137c-.003.08-.049.123-.114.123-.062 0-.105-.044-.111-.143l-.023-.442c0-.003 0-.007 0-.011 0-.11.084-.152.148-.152z" transform="matrix(0 176.698 176.698 0 86.69 19.64)"/><path d="m.148-.374c.064 0 .124.039.12.148l-.005.109.583-.043c.102-.007.154.068.154.171 0 .116-.058.177-.151.167l-.595-.064-.006.137c-.003.08-.049.123-.114.123-.062 0-.105-.044-.111-.143l-.023-.442c0-.004 0-.007 0-.011 0-.11.084-.152.148-.152z" transform="matrix(0 176.687 176.687 0 86.69 18.75)"/><path d="m.148-.374c.064 0 .124.039.12.148l-.005.109.583-.043c.102-.007.154.068.154.171 0 .116-.058.177-.151.167l-.595-.064-.006.137c-.003.08-.049.123-.114.123-.062 0-.105-.044-.111-.143l-.023-.442c0-.003 0-.007 0-.011 0-.11.084-.152.148-.152z" transform="matrix(0 176.692 176.692 0 86.69 17.85)"/><path d="m.148-.374c.064 0 .124.039.12.148l-.005.109.583-.043c.103-.007.154.068.154.171 0 .116-.058.177-.151.167l-.595-.064-.006.137c-.003.08-.049.123-.114.123-.062 0-.105-.044-.111-.143l-.023-.442c0-.003 0-.007 0-.011 0-.11.084-.152.148-.152z" transform="matrix(0 176.698 176.698 0 86.69 16.95)"/><path d="m.148-.374c.064 0 .124.039.12.148l-.005.109.583-.043c.103-.007.154.068.154.171 0 .116-.058.177-.151.167l-.595-.064-.006.137c-.003.08-.049.123-.114.123-.062 0-.105-.044-.111-.143l-.023-.442c0-.003 0-.007 0-.011 0-.11.084-.152.148-.152z" transform="matrix(0 176.692 176.692 0 86.69 16.05)"/><path d="m0-.225c.001-.108.084-.149.148-.149s.124.039.12.148l-.005.109.583-.043c.102-.007.154.068.154.171 0 .116-.058.177-.151.167l-.595-.064-.006.137c-.003.08-.049.123-.114.123-.062 0-.105-.044-.111-.143l-.023-.442z" transform="matrix(0 176.699 176.699 0 86.69 15.16)"/><path d="m.148-.374c.064 0 .124.039.12.148l-.005.109.583-.043c.103-.007.154.068.154.171 0 .116-.058.177-.151.167l-.595-.064-.006.137c-.003.08-.049.123-.114.123-.062 0-.105-.044-.111-.143l-.023-.442c0-.003 0-.007 0-.011 0-.11.084-.152.148-.152z" transform="matrix(0 176.698 176.698 0 86.69 14.26)"/><path d="m.148-.374c.064 0 .124.039.12.148l-.005.109.583-.043c.103-.007.154.068.154.171 0 .116-.058.177-.151.167l-.595-.064-.006.137c-.003.08-.049.123-.114.123-.062 0-.105-.044-.111-.143l-.023-.442c0-.003 0-.007 0-.011 0-.11.084-.152.148-.152z" transform="matrix(0 176.687 176.687 0 86.69 13.37)"/></g><path d="m0-30.776c0 2.745-1.818 4.679-5.208 4.818l-5.824.252 2.716 25.229c.448 3.948-2.128 6.412-7.085 6.412-4.338 0-7.534-2.185-7.224-6.523l1.79-24.725-4.617.195c-4.593.195-6.247-2.38-6.247-5.069 0-2.831 1.879-6.524 6.917-6.271l18.734.978c4.2.224 6.048 2.074 6.048 4.704" fill="#fff" transform="matrix(4.16667 0 0 4.16667 152.73 165.33)"/><path d="m.133-.368c.021 0 .05.004.072.025.021.021.032.053.032.095v.011s-.005.114-.005.114c0 .006.002.012.006.016.005.004.011.006.017.006l.607-.044c.039-.003.07.006.093.028.029.027.045.072.045.128 0 .059-.015.104-.044.129-.022.02-.053.028-.09.024l-.62-.067c-.006 0-.012.002-.016.005-.005.004-.008.01-.008.015l-.006.144c-.003.068-.038.107-.097.107-.058 0-.09-.043-.095-.128l-.024-.461c0-.003 0-.007 0-.01 0-.109.084-.137.133-.137z" fill="url(#f)" transform="matrix(0 169.504 169.504 0 86.7 18.75)"/></g></svg>