<svg clip-rule="evenodd" fill-rule="evenodd" stroke-linejoin="round" stroke-miterlimit="2" viewBox="0 0 179 182" xmlns="http://www.w3.org/2000/svg" xmlns:xlink="http://www.w3.org/1999/xlink"><linearGradient id="a" gradientTransform="matrix(1 0 0 -1 0 .000002)" gradientUnits="userSpaceOnUse" x1="0" x2="1" y1="0" y2="0"><stop offset="0" stop-color="#9c54a1"/><stop offset="1" stop-color="#8f3895"/></linearGradient><linearGradient id="b" gradientTransform="matrix(1 0 0 -1 0 .000002)" gradientUnits="userSpaceOnUse" x1="0" x2="1" y1="0" y2="0"><stop offset="0" stop-color="#c65ba2"/><stop offset="1" stop-color="#a865a9"/></linearGradient><linearGradient id="c" gradientTransform="matrix(1 0 0 -1 0 .000015)" gradientUnits="userSpaceOnUse" x1="0" x2="1" y1="0" y2="0"><stop offset="0" stop-color="#e8a8cb"/><stop offset="1" stop-color="#9c54a1"/></linearGradient><linearGradient id="d" gradientTransform="matrix(1 0 0 -1 0 -.000024)" gradientUnits="userSpaceOnUse" x1="0" x2="1" y1="0" y2="0"><stop offset="0" stop-color="#a762a8"/><stop offset="1" stop-color="#8f3895"/></linearGradient><linearGradient id="e" gradientTransform="matrix(1 0 0 -1 0 -.000024)" gradientUnits="userSpaceOnUse" x1="0" x2="1" y1="0" y2="0"><stop offset="0" stop-color="#d6e1e2"/><stop offset="1" stop-color="#a8bfbd"/></linearGradient><linearGradient id="f" gradientTransform="matrix(1 0 0 -1 0 .000071)" gradientUnits="userSpaceOnUse" x1="0" x2="1" y1="0" y2="0"><stop offset="0" stop-color="#fff"/><stop offset="1" stop-color="#dde6e6"/></linearGradient><g fill-rule="nonzero"><path d="m.089.023c.008-.007.017-.013.025-.019-.015-.008-.027-.018-.037-.027-.049-.046-.076-.115-.076-.195 0-.143.084-.237.226-.252.138-.015.238-.029.297-.038.049-.007.069-.01.087-.01.224 0 .387.172.387.41 0 .078-.021.16-.059.238.039.043.061.1.061.166 0 .129-.097.222-.231.222h-.522c-.119 0-.247-.074-.247-.283 0-.087.032-.163.089-.212z" fill="url(#a)" transform="matrix(0 171.478 171.478 0 89.408 9.876)"/><path d="m.089.023c.008-.007.017-.013.025-.019-.015-.008-.027-.018-.037-.027-.049-.046-.076-.115-.076-.195 0-.143.084-.237.226-.252.138-.015.238-.029.297-.038.049-.007.069-.01.087-.01.224 0 .387.172.387.41 0 .078-.021.16-.059.238.039.043.061.1.061.166 0 .129-.097.222-.231.222h-.522c-.119 0-.247-.074-.247-.283 0-.087.032-.163.089-.212z" fill="url(#b)" transform="matrix(0 171.479 171.479 0 89.408 .391)"/><path d="m.088.028c.011-.009.022-.017.033-.024-.018-.009-.033-.021-.045-.032-.049-.045-.075-.113-.075-.192 0-.142.083-.235.223-.25.141-.015.241-.029.302-.038.048-.008.068-.011.086-.011.224 0 .386.173.386.41 0 .079-.021.162-.061.241.04.043.063.101.063.167 0 .127-.096.22-.228.22h-.528c-.118 0-.244-.074-.244-.281 0-.087.031-.162.088-.21zm.425-.02s-.023.001-.023.001l.025.004c-.001-.002-.002-.004-.002-.005z" fill="url(#c)" transform="matrix(0 169.583 169.583 0 89.403 .391)"/><path d="m.186.121.449.07c.027-.058.04-.11.04-.155 0-.094-.057-.187-.171-.179l-.349.026c-.104.008-.154-.067-.154-.171 0-.091.034-.161.154-.173.3-.032.46-.063.492-.063.221 0 .35.175.35.381 0 .121-.052.254-.141.369.111.022.144.094.144.165 0 .082-.059.133-.144.133h-.691c-.126 0-.165-.093-.165-.213 0-.122.072-.208.186-.19z" fill="url(#d)" transform="matrix(0 129.738 129.738 0 89.412 25.059)"/><g fill="url(#e)"><path d="m.186.121.449.07c.027-.058.04-.11.04-.155 0-.094-.057-.187-.171-.179l-.348.026c-.105.008-.155-.067-.155-.171 0-.091.034-.161.155-.173.299-.032.459-.063.491-.063.221 0 .35.175.35.381 0 .121-.052.254-.141.369.111.022.144.094.144.165 0 .082-.059.133-.144.133h-.691c-.125 0-.165-.093-.165-.213 0-.122.072-.208.186-.19z" transform="matrix(0 129.744 129.744 0 89.412 22.2)"/><path d="m.186.121.449.07c.027-.058.04-.11.04-.155 0-.094-.057-.187-.171-.179l-.348.026c-.105.008-.155-.067-.155-.171 0-.091.034-.161.155-.173.299-.032.459-.063.491-.063.221 0 .35.175.35.381 0 .121-.052.254-.141.369.111.022.144.094.144.165 0 .082-.059.133-.144.133h-.691c-.125 0-.165-.093-.165-.213 0-.122.072-.208.186-.19z" transform="matrix(0 129.738 129.738 0 89.412 21.255)"/><path d="m.186.121.449.07c.027-.058.04-.11.04-.155 0-.094-.057-.187-.171-.179l-.348.026c-.105.008-.155-.067-.155-.171 0-.091.034-.161.155-.173.299-.032.459-.063.491-.063.221 0 .35.175.35.381 0 .121-.052.254-.141.369.111.022.144.094.144.165 0 .082-.059.133-.144.133h-.691c-.125 0-.165-.093-.165-.213 0-.122.072-.208.186-.19z" transform="matrix(0 129.732 129.732 0 89.412 20.31)"/><path d="m.186.121.449.07c.027-.058.04-.11.04-.155 0-.094-.057-.187-.171-.179l-.348.026c-.105.008-.155-.067-.155-.171 0-.091.034-.161.155-.173.299-.032.459-.063.491-.063.221 0 .35.175.35.381 0 .121-.052.254-.141.369.111.022.144.094.144.165 0 .082-.059.133-.144.133h-.69c-.126 0-.166-.093-.166-.213 0-.122.072-.208.186-.19z" transform="matrix(0 129.744 129.744 0 89.412 19.354)"/><path d="m.186.121.449.07c.027-.058.04-.11.04-.155 0-.094-.057-.187-.171-.179l-.348.026c-.105.008-.155-.067-.155-.171 0-.091.034-.161.155-.173.299-.032.459-.063.491-.063.221 0 .35.175.35.381 0 .121-.052.254-.141.369.111.022.144.094.144.165 0 .082-.059.133-.144.133h-.69c-.126 0-.166-.093-.166-.213 0-.122.072-.208.186-.19z" transform="matrix(0 129.75 129.75 0 89.412 18.403)"/><path d="m.186.121.449.07c.027-.058.04-.11.04-.155 0-.094-.057-.187-.171-.179l-.348.026c-.105.008-.155-.067-.155-.171 0-.091.034-.161.155-.173.299-.032.459-.063.491-.063.221 0 .35.175.35.381 0 .121-.052.254-.141.369.111.022.144.094.144.165 0 .082-.059.133-.144.133h-.691c-.125 0-.165-.093-.165-.213 0-.122.072-.208.186-.19z" transform="matrix(0 129.738 129.738 0 89.412 17.458)"/><path d="m.186.121.449.07c.027-.058.04-.11.04-.155 0-.094-.057-.187-.171-.179l-.348.026c-.105.008-.155-.067-.155-.171 0-.091.034-.161.155-.173.299-.032.459-.063.491-.063.221 0 .35.175.35.381 0 .121-.052.254-.141.369.111.022.144.094.144.165 0 .082-.059.133-.144.133h-.691c-.125 0-.165-.093-.165-.213 0-.122.072-.208.186-.19z" transform="matrix(0 129.739 129.739 0 89.412 16.513)"/><path d="m.186.121.449.07c.027-.058.04-.11.04-.155 0-.094-.057-.187-.17-.179l-.349.026c-.105.008-.155-.067-.155-.171 0-.091.034-.161.155-.173.299-.032.459-.063.491-.063.221 0 .35.175.35.381 0 .121-.052.254-.141.369.111.022.144.094.144.165 0 .082-.059.133-.144.133h-.691c-.125 0-.165-.093-.165-.213 0-.122.072-.208.186-.19z" transform="matrix(0 129.744 129.744 0 89.412 15.562)"/><path d="m.186.121.449.07c.027-.058.04-.11.04-.155 0-.094-.057-.187-.171-.179l-.349.026c-.104.008-.154-.067-.154-.171 0-.091.034-.161.154-.173.3-.032.46-.063.492-.063.221 0 .35.175.35.381 0 .121-.052.254-.141.369.111.022.144.094.144.165 0 .082-.059.133-.144.133h-.691c-.125 0-.165-.093-.165-.213 0-.122.072-.208.186-.19z" transform="matrix(0 129.739 129.739 0 89.412 14.617)"/><path d="m.186.121.449.07c.027-.058.04-.11.04-.155 0-.094-.057-.187-.171-.179l-.348.026c-.105.008-.155-.067-.155-.171 0-.091.034-.161.155-.173.299-.032.459-.063.491-.063.221 0 .35.175.35.381 0 .121-.052.254-.141.369.111.022.144.094.144.165 0 .082-.059.133-.144.133h-.691c-.125 0-.165-.093-.165-.213 0-.122.072-.208.186-.19z" transform="matrix(0 129.738 129.738 0 89.412 13.673)"/></g><path d="m0-20.838v21.507c0 2.633-1.598 4.48-4.146 4.48-2.212 0-4.451-1.035-5.151-4.48-3.558 2.771-7.702 4.395-11.484 4.395-6.413 0-11.87-4.034-11.87-10.919 0-.979.978-5.966 1.96-15.29.392-3.752 2.55-4.816 5.404-4.816 3.22 0 5.572 1.567 5.32 4.816l-.814 10.865c-.251 3.528 2.664 5.32 5.575 5.32 1.399 0 3.026-.422 4.817-1.26l-2.158-13.971c-.557-3.558 2.102-5.796 5.91-5.796 3.723 0 6.637 1.231 6.637 5.149" fill="#fff" transform="matrix(4.16667 0 0 4.16667 157.433 121.954)"/><path d="m.055.186c.028-.024.065-.033.107-.026l.477.073c.013.002.027-.005.032-.017.031-.065.046-.125.046-.178 0-.069-.025-.132-.069-.172-.038-.036-.089-.053-.146-.049l-.37.028c-.037.003-.067-.006-.089-.026-.027-.025-.042-.069-.042-.125 0-.099.04-.143.136-.153.2-.021.342-.042.427-.055.045-.006.081-.012.092-.012.234 0 .341.194.341.374 0 .12-.052.256-.143.373-.005.005-.007.012-.007.019 0 .003.001.007.002.011.004.01.012.017.023.019.085.017.128.066.128.145 0 .068-.047.111-.122.111h-.733c-.062 0-.145-.021-.145-.196 0-.063.019-.114.055-.144z" fill="url(#f)" transform="matrix(0 122.162 122.162 0 89.406 19.354)"/></g></svg>