<svg clip-rule="evenodd" fill-rule="evenodd" stroke-linejoin="round" stroke-miterlimit="2" viewBox="0 0 205 228" xmlns="http://www.w3.org/2000/svg" xmlns:xlink="http://www.w3.org/1999/xlink"><linearGradient id="a" gradientTransform="matrix(1 0 0 -1 0 -.000068)" gradientUnits="userSpaceOnUse" x1="0" x2="1" y1="0" y2="0"><stop offset="0" stop-color="#e51c23"/><stop offset="1" stop-color="#ac1c1a"/></linearGradient><linearGradient id="b" gradientTransform="matrix(1 0 0 -1 0 -.000068)" gradientUnits="userSpaceOnUse" x1="0" x2="1" y1="0" y2="0"><stop offset="0" stop-color="#ee2c41"/><stop offset="1" stop-color="#ef3b30"/></linearGradient><linearGradient id="c" gradientTransform="matrix(1 0 0 -1 0 -.000075)" gradientUnits="userSpaceOnUse" x1="0" x2="1" y1="0" y2="0"><stop offset="0" stop-color="#f48890"/><stop offset="1" stop-color="#e51c23"/></linearGradient><linearGradient id="d" gradientTransform="matrix(1 0 0 -1 0 .000657)" gradientUnits="userSpaceOnUse" x1="0" x2="1" y1="0" y2="0"><stop offset="0" stop-color="#ef3828"/><stop offset="1" stop-color="#ac1c1a"/></linearGradient><linearGradient id="e" gradientTransform="matrix(1 0 0 -1 0 .000657)" gradientUnits="userSpaceOnUse" x1="0" x2="1" y1="0" y2="0"><stop offset="0" stop-color="#d6e1e2"/><stop offset="1" stop-color="#a8bfbd"/></linearGradient><linearGradient id="f" gradientTransform="matrix(1 0 0 -1 0 -.00024)" gradientUnits="userSpaceOnUse" x1="0" x2="1" y1="0" y2="0"><stop offset="0" stop-color="#fff"/><stop offset="1" stop-color="#dde6e6"/></linearGradient><g fill-rule="nonzero"><path d="m.22-.449.551-.021c.061-.002.118.019.159.059.045.044.07.106.07.176 0 .073-.027.137-.075.18-.044.039-.101.057-.162.051l.148.12c.037.03.087.082.087.173 0 .045-.018.087-.051.119-.043.042-.109.064-.186.062l-.554-.015c-.125-.004-.205-.08-.205-.195 0-.111.069-.188.178-.197l.085-.007-.149-.129c-.035-.03-.116-.101-.116-.208 0-.161.16-.167.22-.168z" fill="url(#a)" transform="matrix(0 217.925 217.925 0 102.61 9.649)"/><path d="m.22-.449.551-.021c.061-.002.118.019.159.059.045.044.07.106.07.176 0 .073-.027.137-.075.18-.044.039-.101.057-.162.051l.148.12c.037.03.087.082.087.173 0 .045-.018.087-.051.119-.043.042-.109.064-.186.062l-.554-.015c-.125-.004-.205-.08-.205-.195 0-.111.069-.188.177-.197l.086-.007-.149-.129c-.035-.03-.116-.101-.116-.208 0-.161.16-.167.22-.168z" fill="url(#b)" transform="matrix(0 217.924 217.924 0 102.61 .171)"/><path d="m.217-.449.557-.021c.06-.002.116.019.157.059.045.043.069.105.069.174 0 .073-.026.136-.074.179-.044.039-.102.056-.163.049l-.012-.001.161.13c.037.03.086.081.086.172 0 .044-.018.085-.05.116-.042.042-.108.063-.184.061l-.559-.015c-.124-.003-.203-.078-.203-.192 0-.109.068-.185.175-.194l.097-.008-.159-.137c-.034-.03-.115-.1-.115-.206 0-.159.158-.164.217-.166z" fill="url(#c)" transform="matrix(0 216.023 216.023 0 102.61 .171)"/><path d="m.158-.437.682-.025c.099-.003.16.072.16.172 0 .111-.073.178-.164.168l-.405-.05.502.407c.037.031.064.063.064.124 0 .066-.072.107-.17.104l-.686-.018c-.103-.003-.139-.057-.139-.123 0-.055.024-.118.111-.125l.387-.032-.397-.344c-.041-.035-.103-.092-.103-.168 0-.073.053-.086.158-.09z" fill="url(#d)" transform="matrix(0 176.178 176.178 0 102.48 24.838)"/><g fill="url(#e)"><path d="m.158-.437.682-.025c.099-.003.16.072.16.172 0 .111-.073.178-.164.168l-.405-.05.502.407c.037.031.064.063.064.124 0 .066-.072.107-.17.104l-.686-.018c-.103-.003-.139-.057-.139-.123 0-.055.024-.118.111-.125l.387-.032-.397-.344c-.041-.035-.103-.092-.103-.168 0-.073.053-.086.158-.09z" transform="matrix(0 176.184 176.184 0 102.48 21.98)"/><path d="m.158-.437.682-.025c.099-.003.16.072.16.172 0 .111-.073.178-.164.168l-.405-.05.502.407c.037.031.064.063.064.124 0 .066-.072.107-.171.104l-.685-.018c-.103-.003-.139-.057-.139-.123 0-.055.024-.118.111-.125l.387-.032-.397-.344c-.041-.035-.103-.092-.103-.168 0-.073.053-.086.158-.09z" transform="matrix(0 176.178 176.178 0 102.48 21.035)"/><path d="m.158-.437.682-.025c.099-.003.16.072.16.172 0 .111-.073.178-.164.168l-.405-.05.502.407c.037.031.064.063.064.124 0 .066-.072.107-.17.104l-.686-.018c-.103-.003-.139-.057-.139-.123 0-.055.024-.118.111-.125l.387-.032-.397-.344c-.041-.035-.103-.092-.103-.168 0-.073.053-.086.158-.09z" transform="matrix(0 176.178 176.178 0 102.48 20.084)"/><path d="m.158-.437.682-.025c.099-.003.16.072.16.172 0 .111-.073.178-.164.168l-.405-.05.502.407c.037.031.064.063.064.124 0 .066-.072.107-.17.104l-.686-.018c-.103-.003-.139-.057-.139-.123 0-.055.024-.118.111-.125l.387-.032-.397-.344c-.041-.035-.103-.092-.103-.168 0-.073.053-.086.158-.09z" transform="matrix(0 176.178 176.178 0 102.48 19.139)"/><path d="m.158-.437.682-.025c.099-.003.16.072.16.172 0 .111-.073.178-.164.168l-.405-.05.502.407c.037.031.064.063.064.124 0 .066-.072.107-.17.104l-.686-.018c-.103-.003-.139-.057-.139-.123 0-.055.024-.118.111-.125l.387-.032-.397-.344c-.041-.035-.103-.092-.103-.168 0-.073.053-.086.158-.09z" transform="matrix(0 176.178 176.178 0 102.48 18.189)"/><path d="m.158-.437.682-.025c.099-.003.16.072.16.172 0 .111-.073.178-.164.168l-.405-.05.502.407c.037.031.064.063.064.124 0 .066-.072.107-.171.104l-.685-.018c-.103-.003-.139-.057-.139-.123 0-.055.024-.118.111-.125l.387-.032-.397-.344c-.041-.035-.103-.092-.103-.168 0-.073.053-.086.158-.09z" transform="matrix(0 176.178 176.178 0 102.48 17.244)"/><path d="m.158-.437.682-.025c.099-.003.16.072.16.172 0 .111-.073.178-.164.168l-.405-.05.502.407c.037.031.064.063.064.124 0 .066-.073.107-.171.104l-.685-.018c-.103-.003-.139-.057-.139-.123 0-.055.024-.118.111-.125l.387-.032-.397-.344c-.041-.035-.103-.092-.103-.168 0-.073.053-.086.158-.09z" transform="matrix(0 176.178 176.178 0 102.48 16.299)"/><path d="m.158-.437.682-.025c.099-.003.16.072.16.172 0 .111-.073.178-.164.168l-.405-.05.502.407c.037.031.064.063.064.124 0 .066-.072.107-.17.104l-.686-.018c-.103-.003-.139-.057-.139-.123 0-.055.024-.118.111-.125l.387-.032-.397-.344c-.041-.035-.103-.092-.103-.168 0-.073.053-.086.158-.09z" transform="matrix(0 176.178 176.178 0 102.48 15.342)"/><path d="m.158-.437.682-.025c.099-.003.16.072.16.172 0 .111-.073.178-.164.168l-.405-.05.502.407c.037.031.064.063.064.124 0 .066-.072.107-.171.104l-.685-.018c-.103-.003-.139-.057-.139-.123 0-.055.024-.118.111-.125l.387-.032-.397-.344c-.041-.035-.103-.092-.103-.168 0-.073.053-.086.158-.09z" transform="matrix(0 176.178 176.178 0 102.48 14.403)"/><path d="m.158-.437.682-.025c.099-.003.16.072.16.172 0 .111-.073.178-.164.168l-.405-.05.502.407c.037.031.064.063.064.124 0 .066-.073.107-.171.104l-.685-.018c-.103-.003-.139-.057-.139-.123 0-.055.024-.118.111-.125l.387-.032-.397-.344c-.041-.035-.103-.092-.103-.168 0-.073.053-.086.158-.09z" transform="matrix(0 176.178 176.178 0 102.48 13.453)"/></g><path d="m0 36.624-17.223-21.225 2.102 17.137c.447 3.836-2.382 6.918-7.086 6.918-4.228 0-7.421-2.577-7.28-6.777l1.065-28.843c.139-4.423.698-6.664 3.806-6.664 3.193 0 5.601 2.604 7.113 4.339l14.532 16.803 1.346-16.353c.307-3.697 2.968-4.705 5.293-4.705 2.799 0 5.067 1.511 5.178 5.881l.785 28.982c.113 4.143-1.597 7.223-4.423 7.223-2.55 0-3.922-1.146-5.208-2.716" fill="#fff" transform="matrix(4.16667 0 0 4.16667 143.96 25.241)"/><path d="m.143-.435.713-.026c.039-.001.073.011.099.035.029.029.045.072.045.122 0 .053-.017.096-.048.124-.026.023-.061.033-.098.029l-.423-.052c-.01-.001-.02.004-.024.014-.001.002-.001.006-.001.008 0 .007.002.014.008.018l.524.426c.038.03.059.058.059.111 0 .018-.007.035-.021.048-.027.026-.076.04-.134.039l-.717-.02c-.083-.002-.123-.036-.123-.105 0-.046.017-.102.096-.109l.404-.033c.009-.001.017-.007.019-.015.001-.003.002-.005.002-.007 0-.007-.003-.013-.008-.017l-.415-.359c-.052-.045-.1-.096-.1-.159 0-.05.022-.068.143-.072z" fill="url(#f)" transform="matrix(0 168.59 168.59 0 102.63 19.139)"/></g></svg>