<?xml version="1.0" encoding="UTF-8" standalone="no"?>
<!DOCTYPE svg PUBLIC "-//W3C//DTD SVG 1.1//EN" "http://www.w3.org/Graphics/SVG/1.1/DTD/svg11.dtd">
<svg width="100%" height="100%" viewBox="0 0 205 228" version="1.1" xmlns="http://www.w3.org/2000/svg" xmlns:xlink="http://www.w3.org/1999/xlink" xml:space="preserve" xmlns:serif="http://www.serif.com/" style="fill-rule:evenodd;clip-rule:evenodd;stroke-linejoin:round;stroke-miterlimit:2;">
    <g transform="matrix(1,0,0,1,-1134,-850)">
        <g>
            <g transform="matrix(0,217.925,217.925,0,1236.61,859.649)">
                <path d="M0.22,-0.449L0.771,-0.47C0.832,-0.472 0.889,-0.451 0.93,-0.411C0.975,-0.367 1,-0.305 1,-0.235C1,-0.162 0.973,-0.098 0.925,-0.055C0.881,-0.016 0.824,0.002 0.763,-0.004L0.911,0.116C0.948,0.146 0.998,0.198 0.998,0.289C0.998,0.334 0.98,0.376 0.947,0.408C0.904,0.45 0.838,0.472 0.761,0.47L0.207,0.455C0.082,0.451 0.002,0.375 0.002,0.26C0.002,0.149 0.071,0.072 0.18,0.063L0.265,0.056L0.116,-0.073C0.081,-0.103 0,-0.174 0,-0.281C0,-0.442 0.16,-0.448 0.22,-0.449Z" style="fill:url(#_Linear1);fill-rule:nonzero;"/>
            </g>
            <g transform="matrix(0,217.924,217.924,0,1236.61,850.171)">
                <path d="M0.22,-0.449L0.771,-0.47C0.832,-0.472 0.889,-0.451 0.93,-0.411C0.975,-0.367 1,-0.305 1,-0.235C1,-0.162 0.973,-0.098 0.925,-0.055C0.881,-0.016 0.824,0.002 0.763,-0.004L0.911,0.116C0.948,0.146 0.998,0.198 0.998,0.289C0.998,0.334 0.98,0.376 0.947,0.408C0.904,0.45 0.838,0.472 0.761,0.47L0.207,0.455C0.082,0.451 0.002,0.375 0.002,0.26C0.002,0.149 0.071,0.072 0.179,0.063L0.265,0.056L0.116,-0.073C0.081,-0.103 0,-0.174 0,-0.281C0,-0.442 0.16,-0.448 0.22,-0.449Z" style="fill:url(#_Linear2);fill-rule:nonzero;"/>
            </g>
            <g transform="matrix(0,216.023,216.023,0,1236.61,850.171)">
                <path d="M0.217,-0.449L0.774,-0.47C0.834,-0.472 0.89,-0.451 0.931,-0.411C0.976,-0.368 1,-0.306 1,-0.237C1,-0.164 0.974,-0.101 0.926,-0.058C0.882,-0.019 0.824,-0.002 0.763,-0.009L0.751,-0.01L0.912,0.12C0.949,0.15 0.998,0.201 0.998,0.292C0.998,0.336 0.98,0.377 0.948,0.408C0.906,0.45 0.84,0.471 0.764,0.469L0.205,0.454C0.081,0.451 0.002,0.376 0.002,0.262C0.002,0.153 0.07,0.077 0.177,0.068L0.274,0.06L0.115,-0.077C0.081,-0.107 0,-0.177 0,-0.283C0,-0.442 0.158,-0.447 0.217,-0.449Z" style="fill:url(#_Linear3);fill-rule:nonzero;"/>
            </g>
            <g transform="matrix(0,176.178,176.178,0,1236.48,874.838)">
                <path d="M0.158,-0.437L0.84,-0.462C0.939,-0.465 1,-0.39 1,-0.29C1,-0.179 0.927,-0.112 0.836,-0.122L0.431,-0.172L0.933,0.235C0.97,0.266 0.997,0.298 0.997,0.359C0.997,0.425 0.925,0.466 0.827,0.463L0.141,0.445C0.038,0.442 0.002,0.388 0.002,0.322C0.002,0.267 0.026,0.204 0.113,0.197L0.5,0.165L0.103,-0.179C0.062,-0.214 0,-0.271 0,-0.347C0,-0.42 0.053,-0.433 0.158,-0.437Z" style="fill:url(#_Linear4);fill-rule:nonzero;"/>
            </g>
            <g transform="matrix(0,176.184,176.184,0,1236.48,871.98)">
                <path d="M0.158,-0.437L0.84,-0.462C0.939,-0.465 1,-0.39 1,-0.29C1,-0.179 0.927,-0.112 0.836,-0.122L0.431,-0.172L0.933,0.235C0.97,0.266 0.997,0.298 0.997,0.359C0.997,0.425 0.925,0.466 0.827,0.463L0.141,0.445C0.038,0.442 0.002,0.388 0.002,0.322C0.002,0.267 0.026,0.204 0.113,0.197L0.5,0.165L0.103,-0.179C0.062,-0.214 0,-0.271 0,-0.347C0,-0.42 0.053,-0.433 0.158,-0.437Z" style="fill:url(#_Linear5);fill-rule:nonzero;"/>
            </g>
            <g transform="matrix(0,176.178,176.178,0,1236.48,871.035)">
                <path d="M0.158,-0.437L0.84,-0.462C0.939,-0.465 1,-0.39 1,-0.29C1,-0.179 0.927,-0.112 0.836,-0.122L0.431,-0.172L0.933,0.235C0.97,0.266 0.997,0.298 0.997,0.359C0.997,0.425 0.925,0.466 0.826,0.463L0.141,0.445C0.038,0.442 0.002,0.388 0.002,0.322C0.002,0.267 0.026,0.204 0.113,0.197L0.5,0.165L0.103,-0.179C0.062,-0.214 0,-0.271 0,-0.347C0,-0.42 0.053,-0.433 0.158,-0.437Z" style="fill:url(#_Linear6);fill-rule:nonzero;"/>
            </g>
            <g transform="matrix(0,176.178,176.178,0,1236.48,870.084)">
                <path d="M0.158,-0.437L0.84,-0.462C0.939,-0.465 1,-0.39 1,-0.29C1,-0.179 0.927,-0.112 0.836,-0.122L0.431,-0.172L0.933,0.235C0.97,0.266 0.997,0.298 0.997,0.359C0.997,0.425 0.925,0.466 0.827,0.463L0.141,0.445C0.038,0.442 0.002,0.388 0.002,0.322C0.002,0.267 0.026,0.204 0.113,0.197L0.5,0.165L0.103,-0.179C0.062,-0.214 0,-0.271 0,-0.347C0,-0.42 0.053,-0.433 0.158,-0.437Z" style="fill:url(#_Linear7);fill-rule:nonzero;"/>
            </g>
            <g transform="matrix(0,176.178,176.178,0,1236.48,869.139)">
                <path d="M0.158,-0.437L0.84,-0.462C0.939,-0.465 1,-0.39 1,-0.29C1,-0.179 0.927,-0.112 0.836,-0.122L0.431,-0.172L0.933,0.235C0.97,0.266 0.997,0.298 0.997,0.359C0.997,0.425 0.925,0.466 0.827,0.463L0.141,0.445C0.038,0.442 0.002,0.388 0.002,0.322C0.002,0.267 0.026,0.204 0.113,0.197L0.5,0.165L0.103,-0.179C0.062,-0.214 0,-0.271 0,-0.347C0,-0.42 0.053,-0.433 0.158,-0.437Z" style="fill:url(#_Linear8);fill-rule:nonzero;"/>
            </g>
            <g transform="matrix(0,176.178,176.178,0,1236.48,868.189)">
                <path d="M0.158,-0.437L0.84,-0.462C0.939,-0.465 1,-0.39 1,-0.29C1,-0.179 0.927,-0.112 0.836,-0.122L0.431,-0.172L0.933,0.235C0.97,0.266 0.997,0.298 0.997,0.359C0.997,0.425 0.925,0.466 0.827,0.463L0.141,0.445C0.038,0.442 0.002,0.388 0.002,0.322C0.002,0.267 0.026,0.204 0.113,0.197L0.5,0.165L0.103,-0.179C0.062,-0.214 0,-0.271 0,-0.347C0,-0.42 0.053,-0.433 0.158,-0.437Z" style="fill:url(#_Linear9);fill-rule:nonzero;"/>
            </g>
            <g transform="matrix(0,176.178,176.178,0,1236.48,867.244)">
                <path d="M0.158,-0.437L0.84,-0.462C0.939,-0.465 1,-0.39 1,-0.29C1,-0.179 0.927,-0.112 0.836,-0.122L0.431,-0.172L0.933,0.235C0.97,0.266 0.997,0.298 0.997,0.359C0.997,0.425 0.925,0.466 0.826,0.463L0.141,0.445C0.038,0.442 0.002,0.388 0.002,0.322C0.002,0.267 0.026,0.204 0.113,0.197L0.5,0.165L0.103,-0.179C0.062,-0.214 0,-0.271 0,-0.347C0,-0.42 0.053,-0.433 0.158,-0.437Z" style="fill:url(#_Linear10);fill-rule:nonzero;"/>
            </g>
            <g transform="matrix(0,176.178,176.178,0,1236.48,866.299)">
                <path d="M0.158,-0.437L0.84,-0.462C0.939,-0.465 1,-0.39 1,-0.29C1,-0.179 0.927,-0.112 0.836,-0.122L0.431,-0.172L0.933,0.235C0.97,0.266 0.997,0.298 0.997,0.359C0.997,0.425 0.924,0.466 0.826,0.463L0.141,0.445C0.038,0.442 0.002,0.388 0.002,0.322C0.002,0.267 0.026,0.204 0.113,0.197L0.5,0.165L0.103,-0.179C0.062,-0.214 0,-0.271 0,-0.347C0,-0.42 0.053,-0.433 0.158,-0.437Z" style="fill:url(#_Linear11);fill-rule:nonzero;"/>
            </g>
            <g transform="matrix(0,176.178,176.178,0,1236.48,865.342)">
                <path d="M0.158,-0.437L0.84,-0.462C0.939,-0.465 1,-0.39 1,-0.29C1,-0.179 0.927,-0.112 0.836,-0.122L0.431,-0.172L0.933,0.235C0.97,0.266 0.997,0.298 0.997,0.359C0.997,0.425 0.925,0.466 0.827,0.463L0.141,0.445C0.038,0.442 0.002,0.388 0.002,0.322C0.002,0.267 0.026,0.204 0.113,0.197L0.5,0.165L0.103,-0.179C0.062,-0.214 0,-0.271 0,-0.347C0,-0.42 0.053,-0.433 0.158,-0.437Z" style="fill:url(#_Linear12);fill-rule:nonzero;"/>
            </g>
            <g transform="matrix(0,176.178,176.178,0,1236.48,864.403)">
                <path d="M0.158,-0.437L0.84,-0.462C0.939,-0.465 1,-0.39 1,-0.29C1,-0.179 0.927,-0.112 0.836,-0.122L0.431,-0.172L0.933,0.235C0.97,0.266 0.997,0.298 0.997,0.359C0.997,0.425 0.925,0.466 0.826,0.463L0.141,0.445C0.038,0.442 0.002,0.388 0.002,0.322C0.002,0.267 0.026,0.204 0.113,0.197L0.5,0.165L0.103,-0.179C0.062,-0.214 0,-0.271 0,-0.347C0,-0.42 0.053,-0.433 0.158,-0.437Z" style="fill:url(#_Linear13);fill-rule:nonzero;"/>
            </g>
            <g transform="matrix(0,176.178,176.178,0,1236.48,863.453)">
                <path d="M0.158,-0.437L0.84,-0.462C0.939,-0.465 1,-0.39 1,-0.29C1,-0.179 0.927,-0.112 0.836,-0.122L0.431,-0.172L0.933,0.235C0.97,0.266 0.997,0.298 0.997,0.359C0.997,0.425 0.924,0.466 0.826,0.463L0.141,0.445C0.038,0.442 0.002,0.388 0.002,0.322C0.002,0.267 0.026,0.204 0.113,0.197L0.5,0.165L0.103,-0.179C0.062,-0.214 0,-0.271 0,-0.347C0,-0.42 0.053,-0.433 0.158,-0.437Z" style="fill:url(#_Linear14);fill-rule:nonzero;"/>
            </g>
            <g transform="matrix(4.16667,0,0,4.16667,1277.96,875.241)">
                <path d="M0,36.624L-17.223,15.399L-15.121,32.536C-14.674,36.372 -17.503,39.454 -22.207,39.454C-26.435,39.454 -29.628,36.877 -29.487,32.677L-28.422,3.834C-28.283,-0.589 -27.724,-2.83 -24.616,-2.83C-21.423,-2.83 -19.015,-0.226 -17.503,1.509L-2.971,18.312L-1.625,1.959C-1.318,-1.738 1.343,-2.746 3.668,-2.746C6.467,-2.746 8.735,-1.235 8.846,3.135L9.631,32.117C9.744,36.26 8.034,39.34 5.208,39.34C2.658,39.34 1.286,38.194 0,36.624" style="fill:white;fill-rule:nonzero;"/>
            </g>
            <g transform="matrix(0,168.59,168.59,0,1236.63,869.139)">
                <path d="M0.143,-0.435L0.856,-0.461C0.895,-0.462 0.929,-0.45 0.955,-0.426C0.984,-0.397 1,-0.354 1,-0.304C1,-0.251 0.983,-0.208 0.952,-0.18C0.926,-0.157 0.891,-0.147 0.854,-0.151L0.431,-0.203C0.421,-0.204 0.411,-0.199 0.407,-0.189C0.406,-0.187 0.406,-0.183 0.406,-0.181C0.406,-0.174 0.408,-0.167 0.414,-0.163L0.938,0.263C0.976,0.293 0.997,0.321 0.997,0.374C0.997,0.392 0.99,0.409 0.976,0.422C0.949,0.448 0.9,0.462 0.842,0.461L0.125,0.441C0.042,0.439 0.002,0.405 0.002,0.336C0.002,0.29 0.019,0.234 0.098,0.227L0.502,0.194C0.511,0.193 0.519,0.187 0.521,0.179C0.522,0.176 0.523,0.174 0.523,0.172C0.523,0.165 0.52,0.159 0.515,0.155L0.1,-0.204C0.048,-0.249 0,-0.3 0,-0.363C0,-0.413 0.022,-0.431 0.143,-0.435Z" style="fill:url(#_Linear15);fill-rule:nonzero;"/>
            </g>
        </g>
    </g>
    <defs>
        <linearGradient id="_Linear1" x1="0" y1="0" x2="1" y2="0" gradientUnits="userSpaceOnUse" gradientTransform="matrix(1,0,0,-1,0,-6.82383e-05)"><stop offset="0" style="stop-color:rgb(229,28,35);stop-opacity:1"/><stop offset="1" style="stop-color:rgb(172,28,26);stop-opacity:1"/></linearGradient>
        <linearGradient id="_Linear2" x1="0" y1="0" x2="1" y2="0" gradientUnits="userSpaceOnUse" gradientTransform="matrix(1,0,0,-1,0,-6.82385e-05)"><stop offset="0" style="stop-color:rgb(238,44,65);stop-opacity:1"/><stop offset="1" style="stop-color:rgb(239,59,48);stop-opacity:1"/></linearGradient>
        <linearGradient id="_Linear3" x1="0" y1="0" x2="1" y2="0" gradientUnits="userSpaceOnUse" gradientTransform="matrix(1,0,0,-1,0,-7.52583e-05)"><stop offset="0" style="stop-color:rgb(244,136,144);stop-opacity:1"/><stop offset="1" style="stop-color:rgb(229,28,35);stop-opacity:1"/></linearGradient>
        <linearGradient id="_Linear4" x1="0" y1="0" x2="1" y2="0" gradientUnits="userSpaceOnUse" gradientTransform="matrix(1,0,0,-1,0,0.000657411)"><stop offset="0" style="stop-color:rgb(239,56,40);stop-opacity:1"/><stop offset="1" style="stop-color:rgb(172,28,26);stop-opacity:1"/></linearGradient>
        <linearGradient id="_Linear5" x1="0" y1="0" x2="1" y2="0" gradientUnits="userSpaceOnUse" gradientTransform="matrix(1,0,0,-1,0,0.00065739)"><stop offset="0" style="stop-color:rgb(214,225,226);stop-opacity:1"/><stop offset="0" style="stop-color:rgb(214,225,226);stop-opacity:1"/><stop offset="1" style="stop-color:rgb(168,191,189);stop-opacity:1"/></linearGradient>
        <linearGradient id="_Linear6" x1="0" y1="0" x2="1" y2="0" gradientUnits="userSpaceOnUse" gradientTransform="matrix(1,0,0,-1,0,0.000657411)"><stop offset="0" style="stop-color:rgb(214,225,226);stop-opacity:1"/><stop offset="0" style="stop-color:rgb(214,225,226);stop-opacity:1"/><stop offset="1" style="stop-color:rgb(168,191,189);stop-opacity:1"/></linearGradient>
        <linearGradient id="_Linear7" x1="0" y1="0" x2="1" y2="0" gradientUnits="userSpaceOnUse" gradientTransform="matrix(1,0,0,-1,0,0.000657414)"><stop offset="0" style="stop-color:rgb(214,225,226);stop-opacity:1"/><stop offset="0" style="stop-color:rgb(214,225,226);stop-opacity:1"/><stop offset="1" style="stop-color:rgb(168,191,189);stop-opacity:1"/></linearGradient>
        <linearGradient id="_Linear8" x1="0" y1="0" x2="1" y2="0" gradientUnits="userSpaceOnUse" gradientTransform="matrix(1,0,0,-1,0,0.000657411)"><stop offset="0" style="stop-color:rgb(214,225,226);stop-opacity:1"/><stop offset="0" style="stop-color:rgb(214,225,226);stop-opacity:1"/><stop offset="1" style="stop-color:rgb(168,191,189);stop-opacity:1"/></linearGradient>
        <linearGradient id="_Linear9" x1="0" y1="0" x2="1" y2="0" gradientUnits="userSpaceOnUse" gradientTransform="matrix(1,0,0,-1,0,0.000657414)"><stop offset="0" style="stop-color:rgb(214,225,226);stop-opacity:1"/><stop offset="0" style="stop-color:rgb(214,225,226);stop-opacity:1"/><stop offset="1" style="stop-color:rgb(168,191,189);stop-opacity:1"/></linearGradient>
        <linearGradient id="_Linear10" x1="0" y1="0" x2="1" y2="0" gradientUnits="userSpaceOnUse" gradientTransform="matrix(1,0,0,-1,0,0.000657411)"><stop offset="0" style="stop-color:rgb(214,225,226);stop-opacity:1"/><stop offset="0" style="stop-color:rgb(214,225,226);stop-opacity:1"/><stop offset="1" style="stop-color:rgb(168,191,189);stop-opacity:1"/></linearGradient>
        <linearGradient id="_Linear11" x1="0" y1="0" x2="1" y2="0" gradientUnits="userSpaceOnUse" gradientTransform="matrix(1,0,0,-1,0,0.000657411)"><stop offset="0" style="stop-color:rgb(214,225,226);stop-opacity:1"/><stop offset="0" style="stop-color:rgb(214,225,226);stop-opacity:1"/><stop offset="1" style="stop-color:rgb(168,191,189);stop-opacity:1"/></linearGradient>
        <linearGradient id="_Linear12" x1="0" y1="0" x2="1" y2="0" gradientUnits="userSpaceOnUse" gradientTransform="matrix(1,0,0,-1,0,0.000657411)"><stop offset="0" style="stop-color:rgb(214,225,226);stop-opacity:1"/><stop offset="0" style="stop-color:rgb(214,225,226);stop-opacity:1"/><stop offset="1" style="stop-color:rgb(168,191,189);stop-opacity:1"/></linearGradient>
        <linearGradient id="_Linear13" x1="0" y1="0" x2="1" y2="0" gradientUnits="userSpaceOnUse" gradientTransform="matrix(1,0,0,-1,0,0.000657411)"><stop offset="0" style="stop-color:rgb(214,225,226);stop-opacity:1"/><stop offset="0" style="stop-color:rgb(214,225,226);stop-opacity:1"/><stop offset="1" style="stop-color:rgb(168,191,189);stop-opacity:1"/></linearGradient>
        <linearGradient id="_Linear14" x1="0" y1="0" x2="1" y2="0" gradientUnits="userSpaceOnUse" gradientTransform="matrix(1,0,0,-1,0,0.000657414)"><stop offset="0" style="stop-color:rgb(214,225,226);stop-opacity:1"/><stop offset="0" style="stop-color:rgb(214,225,226);stop-opacity:1"/><stop offset="1" style="stop-color:rgb(168,191,189);stop-opacity:1"/></linearGradient>
        <linearGradient id="_Linear15" x1="0" y1="0" x2="1" y2="0" gradientUnits="userSpaceOnUse" gradientTransform="matrix(1,0,0,-1,0,-0.00024001)"><stop offset="0" style="stop-color:white;stop-opacity:1"/><stop offset="0" style="stop-color:white;stop-opacity:1"/><stop offset="1" style="stop-color:rgb(221,230,230);stop-opacity:1"/><stop offset="1" style="stop-color:rgb(221,230,230);stop-opacity:1"/></linearGradient>
    </defs>
</svg>
