<svg clip-rule="evenodd" fill-rule="evenodd" stroke-linejoin="round" stroke-miterlimit="2" viewBox="0 0 189 180" xmlns="http://www.w3.org/2000/svg" xmlns:xlink="http://www.w3.org/1999/xlink"><linearGradient id="a" gradientTransform="matrix(1 0 0 -1 0 -.000228)" gradientUnits="userSpaceOnUse" x1="0" x2="1" y1="0" y2="0"><stop offset="0" stop-color="#00a550"/><stop offset="1" stop-color="#007338"/></linearGradient><linearGradient id="b" gradientTransform="matrix(1 0 0 -1 0 -.000228)" gradientUnits="userSpaceOnUse" x1="0" x2="1" y1="0" y2="0"><stop offset="0" stop-color="#00af4c"/><stop offset="1" stop-color="#00ad4d"/></linearGradient><linearGradient id="c" gradientTransform="matrix(1 0 0 -1 0 -.000199)" gradientUnits="userSpaceOnUse" x1="0" x2="1" y1="0" y2="0"><stop offset="0" stop-color="#97cf91"/><stop offset="1" stop-color="#00a550"/></linearGradient><linearGradient id="d" gradientTransform="matrix(1 0 0 -1 0 -.005161)" gradientUnits="userSpaceOnUse" x1="0" x2="1" y1="0" y2="0"><stop offset="0" stop-color="#00ac4e"/><stop offset="1" stop-color="#007338"/></linearGradient><linearGradient id="e"><stop offset="0" stop-color="#d6e1e2"/><stop offset="1" stop-color="#a8bfbd"/></linearGradient><linearGradient id="f" gradientTransform="matrix(1 0 0 -1 0 -.005161)" gradientUnits="userSpaceOnUse" x1="0" x2="1" xlink:href="#e" y1="0" y2="0"/><linearGradient id="g" gradientTransform="matrix(1 0 0 -1 0 -.00516)" gradientUnits="userSpaceOnUse" x1="0" x2="1" xlink:href="#e" y1="0" y2="0"/><linearGradient id="h" gradientTransform="matrix(1 0 0 -1 0 -.00132)" gradientUnits="userSpaceOnUse" x1="0" x2="1" y1="0" y2="0"><stop offset="0" stop-color="#fff"/><stop offset="1" stop-color="#dde6e6"/></linearGradient><g fill-rule="nonzero"><path d="m.225-.491.495-.061c.094-.012.156.023.191.054.058.052.089.132.089.233 0 .115-.046.182-.084.218-.024.022-.051.038-.081.049.077.029.164.101.164.281 0 .09-.034.17-.095.219-.055.045-.125.061-.199.046l-.331-.067c-.186-.038-.369-.098-.369-.374 0-.073.024-.137.055-.192-.038-.041-.06-.1-.06-.171 0-.13.084-.218.225-.235z" fill="url(#a)" transform="matrix(0 169.479 169.479 0 94.82 9.628)"/><path d="m.226-.491.494-.061c.094-.012.156.023.191.054.058.052.089.132.089.233 0 .115-.046.182-.084.218-.024.022-.051.038-.081.049.077.029.164.101.164.281 0 .09-.034.17-.095.219-.055.045-.125.061-.199.046l-.331-.067c-.186-.038-.368-.098-.368-.374 0-.073.023-.137.054-.192-.038-.041-.06-.1-.06-.171 0-.13.084-.218.226-.235z" fill="url(#b)" transform="matrix(0 169.486 169.486 0 94.82 .638)"/><path d="m.223-.49.5-.062c.093-.012.154.022.189.053.057.051.088.131.088.231 0 .115-.045.181-.083.216-.027.026-.06.044-.095.054.079.024.177.093.177.284 0 .089-.034.168-.094.217-.054.045-.124.061-.196.046l-.335-.068c-.186-.038-.368-.098-.368-.373 0-.075.024-.139.056-.194-.039-.041-.062-.101-.062-.172 0-.131.082-.215.223-.232z" fill="url(#c)" transform="matrix(0 167.694 167.694 0 94.81 .638)"/><path d="m.161-.494.644-.08c.138-.017.195.088.195.223 0 .144-.075.224-.195.215l-.48-.034c-.043.037-.077.08-.077.125 0 .122.082.158.217.162l.344.009c.137.003.19.092.19.239 0 .131-.082.22-.201.196l-.432-.088c-.256-.052-.359-.115-.359-.338 0-.124.079-.229.165-.315l-.053-.004c-.085-.006-.119-.071-.119-.154 0-.077.033-.14.161-.156z" fill="url(#d)" transform="matrix(0 129.963 129.963 0 95.44 23.995)"/><g fill="url(#f)"><path d="m.161-.494.644-.08c.138-.017.195.088.195.223 0 .144-.075.224-.195.215l-.48-.034c-.043.037-.077.08-.077.125 0 .122.082.158.217.162l.344.009c.137.003.19.092.19.239 0 .131-.083.22-.201.196l-.432-.088c-.256-.052-.359-.115-.359-.338 0-.124.079-.229.165-.315l-.054-.004c-.084-.006-.118-.071-.118-.154 0-.077.033-.14.161-.156z" transform="matrix(0 129.976 129.976 0 95.44 21.295)"/><path d="m.161-.494.644-.08c.138-.017.195.088.195.223 0 .144-.075.224-.195.215l-.48-.034c-.043.037-.077.08-.077.125 0 .122.082.158.217.162l.344.009c.137.003.19.092.19.239 0 .131-.083.22-.201.196l-.432-.088c-.256-.052-.359-.115-.359-.338 0-.124.079-.229.165-.315l-.053-.004c-.085-.006-.119-.071-.119-.154 0-.077.033-.14.161-.156z" transform="matrix(0 129.976 129.976 0 95.44 20.392)"/><path d="m.161-.494.644-.08c.138-.017.195.088.195.223 0 .144-.075.224-.195.215l-.48-.034c-.043.037-.077.08-.077.125 0 .122.082.158.217.162l.344.009c.137.003.19.092.19.239 0 .131-.082.22-.201.196l-.432-.088c-.256-.052-.359-.115-.359-.338 0-.124.079-.229.165-.315l-.054-.004c-.084-.006-.118-.071-.118-.154 0-.077.033-.14.161-.156z" transform="matrix(0 129.97 129.97 0 95.44 19.497)"/><path d="m.161-.494.644-.08c.138-.017.195.088.195.223 0 .144-.075.224-.195.215l-.48-.034c-.043.037-.077.08-.077.125 0 .122.082.158.217.162l.344.009c.137.003.19.092.19.239 0 .131-.083.22-.201.196l-.432-.088c-.256-.052-.359-.115-.359-.338 0-.124.079-.229.165-.315l-.053-.004c-.085-.006-.119-.071-.119-.154 0-.077.033-.14.161-.156z" transform="matrix(0 129.97 129.97 0 95.44 18.6)"/><path d="m.161-.494.644-.08c.138-.017.195.088.195.223 0 .144-.075.224-.195.215l-.48-.034c-.043.037-.077.08-.077.125 0 .122.082.158.217.162l.344.009c.137.003.19.092.19.239 0 .131-.082.22-.201.196l-.432-.088c-.256-.052-.359-.115-.359-.338 0-.124.079-.229.165-.315l-.053-.004c-.085-.006-.119-.071-.119-.154 0-.077.033-.14.161-.156z" transform="matrix(0 129.97 129.97 0 95.44 17.705)"/><path d="m.161-.494.644-.08c.137-.017.195.088.195.223 0 .144-.075.224-.195.215l-.48-.034c-.043.037-.077.08-.077.125 0 .122.082.158.217.162l.344.009c.137.003.19.092.19.239 0 .131-.082.22-.201.196l-.432-.088c-.256-.052-.359-.115-.359-.338 0-.124.079-.229.165-.315l-.053-.004c-.085-.006-.119-.071-.119-.154 0-.077.033-.14.161-.156z" transform="matrix(0 129.976 129.976 0 95.44 16.802)"/></g><path d="m.161-.494.644-.079c.137-.018.195.087.195.222 0 .144-.075.224-.195.215l-.48-.033c-.043.036-.077.079-.077.124 0 .122.082.158.217.162l.344.009c.137.003.19.092.19.239 0 .131-.083.22-.201.196l-.432-.088c-.256-.052-.359-.115-.359-.338 0-.124.079-.229.165-.315l-.054-.004c-.084-.006-.118-.071-.118-.154 0-.077.033-.14.161-.156z" fill="url(#g)" transform="matrix(0 129.982 129.982 0 95.44 15.907)"/><path d="m.161-.494.644-.08c.138-.017.195.088.195.223 0 .144-.075.224-.195.215l-.48-.034c-.043.037-.077.08-.077.125 0 .122.082.158.217.162l.344.009c.137.003.19.092.19.239 0 .131-.083.22-.201.196l-.432-.088c-.256-.052-.359-.115-.359-.338 0-.124.079-.229.165-.315l-.054-.004c-.084-.006-.118-.071-.118-.154 0-.077.033-.14.161-.156z" fill="url(#f)" transform="matrix(0 129.976 129.976 0 95.44 15.01)"/><path d="m.161-.494.644-.079c.138-.018.195.087.195.222 0 .144-.076.224-.195.215l-.48-.033c-.043.036-.077.079-.077.124 0 .122.082.158.217.162l.344.009c.137.003.19.092.19.239 0 .131-.083.22-.201.196l-.432-.088c-.256-.052-.359-.115-.359-.338 0-.124.079-.229.165-.315l-.053-.004c-.085-.006-.119-.071-.119-.154 0-.077.033-.14.161-.156z" fill="url(#g)" transform="matrix(0 129.982 129.982 0 95.44 14.108)"/><path d="m.161-.494.644-.08c.138-.017.195.088.195.223 0 .144-.075.224-.195.215l-.48-.034c-.043.037-.077.08-.077.125 0 .122.082.158.217.162l.344.009c.137.003.19.092.19.239 0 .131-.082.22-.201.196l-.432-.088c-.256-.052-.359-.115-.359-.338 0-.124.079-.229.165-.315l-.054-.004c-.084-.006-.118-.071-.118-.154 0-.077.033-.14.161-.156z" fill="url(#f)" transform="matrix(0 129.964 129.964 0 95.44 13.218)"/><path d="m0 31.136c-4.564 0-7.336-1.651-7.447-5.935l-.281-10.724c-.113-4.201-1.232-6.777-5.04-6.777-1.399 0-2.744 1.065-3.891 2.409l1.061 14.98c.254 3.725-2.238 6.075-6.72 6.075-4.228 0-7.475-1.79-6.943-6.075l2.492-20.105c.477-3.976 2.463-5.012 4.843-5.012 2.604 0 4.62 1.066 4.816 3.694l.112 1.683c2.689-2.689 5.966-5.155 9.829-5.155 6.974 0 8.935 3.22 10.558 11.203l2.741 13.467c.759 3.697-2.043 6.272-6.13 6.272" fill="#fff" transform="matrix(4.16667 0 0 4.16667 142.82 13.333)"/><path d="m.144-.489.683-.085c.048-.006.086.004.114.028.038.034.059.097.059.179 0 .072-.019.128-.055.162-.03.027-.07.04-.12.037l-.508-.037c-.008 0-.015.002-.021.007-.061.052-.092.104-.092.155 0 .171.138.197.258.2l.364.009c.12.004.173.073.173.224 0 .066-.022.123-.061.155-.032.025-.072.034-.117.024l-.457-.093c-.263-.053-.356-.111-.356-.329 0-.1.052-.2.166-.313.005-.006.008-.013.008-.021 0-.003 0-.007-.002-.01-.003-.011-.013-.018-.025-.019l-.057-.004c-.065-.005-.098-.05-.098-.134 0-.058.017-.12.144-.135z" fill="url(#h)" transform="matrix(0 122.777 122.777 0 94.94 18.607)"/></g></svg>