<svg clip-rule="evenodd" fill-rule="evenodd" stroke-linejoin="round" stroke-miterlimit="2" viewBox="0 0 196 225" xmlns="http://www.w3.org/2000/svg" xmlns:xlink="http://www.w3.org/1999/xlink"><linearGradient id="a" gradientTransform="matrix(1 0 0 -1 0 .002577)" gradientUnits="userSpaceOnUse" x1="0" x2="1" y1="0" y2="0"><stop offset="0" stop-color="#3075bb"/><stop offset="1" stop-color="#2562ae"/></linearGradient><linearGradient id="b" gradientTransform="matrix(1 0 0 -1 0 .002577)" gradientUnits="userSpaceOnUse" x1="0" x2="1" y1="0" y2="0"><stop offset="0" stop-color="#0098d9"/><stop offset="1" stop-color="#1783c6"/></linearGradient><linearGradient id="c" gradientTransform="matrix(1 0 0 -1 0 .002516)" gradientUnits="userSpaceOnUse" x1="0" x2="1" y1="0" y2="0"><stop offset="0" stop-color="#5fccf6"/><stop offset="1" stop-color="#3075bb"/></linearGradient><linearGradient id="d" gradientTransform="matrix(1 0 0 -1 0 .003185)" gradientUnits="userSpaceOnUse" x1="0" x2="1" y1="0" y2="0"><stop offset="0" stop-color="#1b81c4"/><stop offset="1" stop-color="#2562ae"/></linearGradient><linearGradient id="e" gradientTransform="matrix(1 0 0 -1 0 .003185)" gradientUnits="userSpaceOnUse" x1="0" x2="1" y1="0" y2="0"><stop offset="0" stop-color="#d6e1e2"/><stop offset="1" stop-color="#a8bfbd"/></linearGradient><linearGradient id="f" gradientTransform="matrix(1 0 0 -1 0 .001283)" gradientUnits="userSpaceOnUse" x1="0" x2="1" y1="0" y2="0"><stop offset="0" stop-color="#fff"/><stop offset="1" stop-color="#dde6e6"/></linearGradient><g fill-rule="nonzero"><path d="m.181-.426.608-.023c.075-.003.123.027.15.053.028.027.061.077.061.16 0 .073-.027.138-.073.178-.04.035-.093.05-.148.042l-.012-.002c.003.025.005.051.005.078 0 .24-.15.394-.383.394-.236 0-.388-.167-.388-.426 0-.068.009-.129.029-.182-.019-.028-.03-.062-.03-.099 0-.099.073-.169.181-.173zm.192.37c-.015 0-.047 0-.047.078 0 .038.019.038.031.038.015 0 .04 0 .04-.066 0-.011-.001-.05-.024-.05z" fill="url(#a)" transform="matrix(0 215.218 215.218 0 97.41 9.753)"/><path d="m.181-.426.608-.023c.075-.003.123.027.15.053.028.027.061.077.061.16 0 .073-.027.138-.073.178-.04.035-.093.05-.148.042l-.012-.002c.003.025.005.051.005.078 0 .24-.15.394-.383.394-.236 0-.388-.167-.388-.426 0-.068.009-.129.029-.182-.019-.028-.03-.062-.03-.099 0-.099.073-.169.181-.173zm.192.37c-.015 0-.047 0-.047.078 0 .038.019.038.031.038.015 0 .04 0 .04-.066 0-.011-.001-.05-.024-.05z" fill="url(#b)" transform="matrix(0 215.224 215.224 0 97.41 .774)"/><path d="m.179-.425.612-.024c.075-.002.122.027.148.053.028.026.061.075.061.158 0 .072-.026.136-.072.176-.04.035-.092.049-.146.042l-.018-.003c.004.027.006.055.006.084 0 .239-.15.393-.382.393-.235 0-.387-.167-.387-.426 0-.069.01-.13.03-.184-.02-.027-.031-.061-.031-.099 0-.098.072-.166.179-.17zm.193.364c-.017 0-.052 0-.052.083 0 .043.024.043.036.043.015 0 .045 0 .045-.071 0-.016-.003-.055-.029-.055z" fill="url(#c)" transform="matrix(0 213.426 213.426 0 97.42 .774)"/><path d="m.114-.409.744-.029c.089-.003.142.052.142.149 0 .094-.053.171-.142.158l-.186-.026c.032.063.048.14.048.231 0 .233-.132.37-.355.37-.229 0-.364-.153-.364-.41 0-.104.022-.19.064-.255-.041-.011-.065-.043-.065-.089 0-.059.043-.096.114-.099zm.231.228c-.107 0-.17.077-.17.208 0 .1.064.159.15.159.101 0 .162-.072.162-.193 0-.109-.061-.174-.142-.174z" fill="url(#d)" transform="matrix(0 175.715 175.715 0 97.4 24.119)"/><g fill="url(#e)"><path d="m.114-.409.744-.029c.089-.003.142.052.142.149 0 .094-.053.171-.142.158l-.186-.026c.032.063.048.14.048.231 0 .233-.132.37-.356.37-.228 0-.363-.153-.363-.41 0-.104.022-.19.064-.255-.041-.011-.065-.043-.065-.089 0-.059.042-.096.114-.099zm.231.228c-.107 0-.17.077-.17.208 0 .1.064.159.15.159.101 0 .162-.072.162-.193 0-.109-.061-.174-.142-.174z" transform="matrix(0 175.715 175.715 0 97.4 21.419)"/><path d="m.114-.409.744-.029c.09-.003.142.052.142.149 0 .094-.052.171-.142.158l-.186-.026c.032.063.048.14.048.231 0 .233-.132.37-.355.37-.229 0-.364-.153-.364-.41 0-.104.022-.19.064-.255-.041-.011-.065-.043-.065-.089 0-.059.043-.096.114-.099zm.231.228c-.107 0-.17.077-.17.208 0 .1.064.159.15.159.101 0 .162-.072.162-.193 0-.109-.061-.174-.142-.174z" transform="matrix(0 175.709 175.709 0 97.4 20.523)"/><path d="m.114-.409.744-.029c.09-.003.142.052.142.149 0 .094-.052.171-.142.158l-.186-.026c.032.063.048.14.048.231 0 .233-.132.37-.355.37-.229 0-.364-.153-.364-.41 0-.104.022-.19.064-.255-.041-.011-.065-.043-.065-.089 0-.059.042-.096.114-.099zm.231.228c-.107 0-.17.077-.17.208 0 .1.064.159.15.159.101 0 .162-.072.162-.193 0-.109-.061-.174-.142-.174z" transform="matrix(0 175.715 175.715 0 97.4 19.621)"/><path d="m.114-.409.744-.029c.09-.003.142.052.142.149 0 .094-.052.171-.142.158l-.186-.026c.032.063.048.14.048.231 0 .233-.132.37-.355.37-.229 0-.364-.153-.364-.41 0-.104.022-.19.064-.255-.041-.011-.065-.043-.065-.089 0-.059.042-.096.114-.099zm.231.228c-.107 0-.17.077-.17.208 0 .1.064.159.15.159.101 0 .162-.072.162-.193 0-.109-.061-.174-.142-.174z" transform="matrix(0 175.715 175.715 0 97.4 18.725)"/><path d="m.114-.409.744-.029c.09-.003.142.052.142.149 0 .094-.052.171-.142.158l-.186-.026c.032.063.048.14.048.231 0 .233-.132.37-.355.37-.229 0-.364-.153-.364-.41 0-.104.022-.19.064-.255-.041-.011-.065-.043-.065-.089 0-.059.042-.096.114-.099zm.231.228c-.107 0-.17.077-.17.208 0 .1.064.159.15.159.101 0 .162-.072.162-.193 0-.109-.061-.174-.142-.174z" transform="matrix(0 175.709 175.709 0 97.4 17.829)"/><path d="m.114-.409.744-.029c.09-.003.142.052.142.149 0 .094-.052.171-.142.158l-.186-.026c.032.063.048.14.048.231 0 .233-.132.37-.355.37-.229 0-.364-.153-.364-.41 0-.104.022-.19.064-.255-.041-.011-.065-.043-.065-.089 0-.059.043-.096.114-.099zm.231.228c-.107 0-.17.077-.17.208 0 .1.064.159.15.159.101 0 .162-.072.162-.193 0-.109-.061-.174-.142-.174z" transform="matrix(0 175.708 175.708 0 97.4 16.927)"/><path d="m.114-.409.744-.029c.09-.003.142.052.142.149 0 .094-.052.171-.142.158l-.186-.026c.032.063.048.14.048.231 0 .233-.132.37-.355.37-.229 0-.364-.153-.364-.41 0-.104.022-.19.064-.255-.041-.011-.065-.043-.065-.089 0-.059.042-.096.114-.099zm.231.228c-.107 0-.17.077-.17.208 0 .1.064.159.15.159.101 0 .162-.072.162-.193 0-.109-.061-.174-.142-.174z" transform="matrix(0 175.709 175.709 0 97.4 16.037)"/><path d="m.114-.409.744-.029c.09-.003.142.052.142.149 0 .094-.052.171-.142.158l-.186-.026c.032.063.048.14.048.231 0 .233-.132.37-.355.37-.229 0-.364-.153-.364-.41 0-.104.022-.19.064-.255-.041-.011-.065-.043-.065-.089 0-.059.043-.096.114-.099zm.231.228c-.107 0-.17.077-.17.208 0 .1.064.159.15.159.101 0 .162-.072.162-.193 0-.109-.061-.174-.142-.174z" transform="matrix(0 175.715 175.715 0 97.4 15.135)"/><path d="m.114-.409.744-.029c.09-.003.142.052.142.149 0 .094-.052.171-.142.158l-.186-.026c.032.063.048.14.048.231 0 .233-.132.37-.355.37-.229 0-.364-.153-.364-.41 0-.104.022-.19.064-.255-.041-.011-.065-.043-.065-.089 0-.059.042-.096.114-.099zm.231.228c-.107 0-.17.077-.17.208 0 .1.064.159.15.159.101 0 .162-.072.162-.193 0-.109-.061-.174-.142-.174z" transform="matrix(0 175.703 175.703 0 97.4 14.245)"/><path d="m.114-.409.744-.029c.09-.003.142.052.142.149 0 .094-.052.171-.142.158l-.186-.026c.032.063.048.14.048.231 0 .233-.132.37-.355.37-.229 0-.364-.153-.364-.41 0-.104.022-.19.064-.255-.041-.011-.065-.043-.065-.089 0-.059.042-.096.114-.099zm.231.228c-.107 0-.17.077-.17.208 0 .1.064.159.15.159.101 0 .162-.072.162-.193 0-.109-.061-.174-.142-.174z" transform="matrix(0 175.715 175.715 0 97.4 13.343)"/></g><path d="m0-14.79c0-3.611-2.491-6.327-6.718-6.327-5.491 0-8.738 2.661-8.738 7.168 0 3.417 2.717 5.994 7.335 5.994 5.1 0 8.121-2.55 8.121-6.835m10.894 1.681c0 9.438-5.797 15.009-15.626 15.009-3.806 0-7.082-.698-9.744-2.044l1.121 7.841c.532 3.779-2.689 5.994-6.664 5.994-4.09 0-6.415-2.215-6.274-5.994l1.201-31.36c.114-3.026 1.686-4.818 4.203-4.818 1.933 0 3.274 1.008 3.751 2.743 2.717-1.763 6.329-2.716 10.728-2.716 10.863 0 17.304 5.712 17.304 15.345" fill="#fff" transform="matrix(4.16667 0 0 4.16667 130.06 132.013)"/><path d="m.099-.407.775-.03c.038-.001.069.008.09.029.024.023.036.059.036.105 0 .052-.017.097-.046.122-.021.019-.047.026-.078.021l-.194-.027c-.008-.001-.015.002-.02.008-.003.004-.004.008-.004.013 0 .003.001.006.002.009.032.064.048.142.048.232 0 .232-.127.365-.349.365-.228 0-.358-.148-.358-.407 0-.103.021-.188.063-.253.003-.004.004-.008.004-.012 0-.002-.001-.005-.002-.007-.002-.007-.007-.012-.014-.013-.034-.01-.052-.035-.052-.073 0-.068.062-.081.099-.082zm.239.195c-.124 0-.199.089-.199.238 0 .112.072.187.178.187.118 0 .191-.085.191-.222 0-.121-.069-.203-.17-.203z" fill="url(#f)" transform="matrix(0 168.528 168.528 0 97.74 18.725)"/></g></svg>