<?xml version="1.0" encoding="UTF-8" standalone="no"?>
<!DOCTYPE svg PUBLIC "-//W3C//DTD SVG 1.1//EN" "http://www.w3.org/Graphics/SVG/1.1/DTD/svg11.dtd">
<svg width="100%" height="100%" viewBox="0 0 156 224" version="1.1" xmlns="http://www.w3.org/2000/svg" xmlns:xlink="http://www.w3.org/1999/xlink" xml:space="preserve" xmlns:serif="http://www.serif.com/" style="fill-rule:evenodd;clip-rule:evenodd;stroke-linejoin:round;stroke-miterlimit:2;">
    <g transform="matrix(1,0,0,1,-1155,-1113)">
        <g>
            <g transform="matrix(0,214.133,214.133,0,1232.72,1122.81)">
                <path d="M0,0.12L0.013,-0.133C0.019,-0.252 0.105,-0.34 0.218,-0.343L0.774,-0.359C0.833,-0.361 0.889,-0.34 0.929,-0.3C0.975,-0.256 1,-0.191 1,-0.118C1,-0.045 0.973,0.018 0.923,0.06C0.875,0.101 0.813,0.117 0.748,0.106L0.662,0.091L0.661,0.097C0.645,0.19 0.58,0.247 0.493,0.247C0.451,0.247 0.406,0.231 0.374,0.192C0.362,0.309 0.275,0.362 0.194,0.362C0.101,0.362 0,0.292 0,0.139C0,0.133 0,0.127 0,0.12Z" style="fill:url(#_Linear1);fill-rule:nonzero;"/>
            </g>
            <g transform="matrix(0,214.133,214.133,0,1232.72,1113.82)">
                <path d="M0.001,0.12L0.013,-0.133C0.019,-0.252 0.105,-0.34 0.218,-0.343L0.774,-0.359C0.833,-0.361 0.889,-0.34 0.929,-0.3C0.975,-0.256 1,-0.191 1,-0.118C1,-0.045 0.973,0.018 0.923,0.06C0.875,0.101 0.813,0.117 0.748,0.106L0.662,0.091L0.661,0.097C0.645,0.19 0.58,0.247 0.493,0.247C0.451,0.247 0.406,0.231 0.374,0.192C0.362,0.309 0.275,0.362 0.194,0.362C0.101,0.362 0,0.292 0,0.139C0,0.133 0,0.127 0.001,0.12Z" style="fill:url(#_Linear2);fill-rule:nonzero;"/>
            </g>
            <g transform="matrix(0,212.347,212.347,0,1232.72,1113.82)">
                <path d="M0.001,0.122L0.013,-0.134C0.019,-0.251 0.104,-0.339 0.216,-0.341L0.776,-0.358C0.835,-0.359 0.89,-0.339 0.93,-0.3C0.975,-0.256 1,-0.191 1,-0.119C1,-0.047 0.973,0.016 0.924,0.058C0.877,0.097 0.815,0.113 0.751,0.103L0.66,0.087L0.658,0.097C0.642,0.188 0.579,0.245 0.493,0.245C0.449,0.245 0.402,0.227 0.37,0.182C0.362,0.305 0.274,0.361 0.191,0.361C0.099,0.361 0,0.292 0,0.14C0,0.134 0,0.128 0.001,0.122Z" style="fill:url(#_Linear3);fill-rule:nonzero;"/>
            </g>
            <g transform="matrix(0,174.624,174.624,0,1232.58,1137.17)">
                <path d="M0,0.154L0.016,-0.157C0.02,-0.242 0.079,-0.304 0.157,-0.306L0.839,-0.326C0.939,-0.329 1,-0.25 1,-0.144C1,-0.028 0.919,0.035 0.823,0.019L0.607,-0.017L0.586,0.1C0.574,0.171 0.532,0.191 0.492,0.191C0.445,0.191 0.41,0.161 0.403,0.074L0.393,-0.052L0.196,-0.085L0.231,0.163C0.248,0.284 0.188,0.332 0.125,0.332C0.064,0.332 0,0.289 0,0.172C0,0.166 0,0.16 0,0.154Z" style="fill:url(#_Linear4);fill-rule:nonzero;"/>
            </g>
            <g transform="matrix(0,174.637,174.637,0,1232.58,1134.47)">
                <path d="M0,0.154L0.016,-0.157C0.02,-0.242 0.079,-0.304 0.158,-0.306L0.839,-0.326C0.939,-0.329 1,-0.25 1,-0.144C1,-0.028 0.918,0.035 0.823,0.019L0.607,-0.017L0.586,0.1C0.574,0.171 0.532,0.191 0.492,0.191C0.445,0.191 0.41,0.161 0.403,0.074L0.393,-0.052L0.196,-0.085L0.231,0.163C0.248,0.284 0.188,0.332 0.125,0.332C0.064,0.332 0,0.289 0,0.172C0,0.166 0,0.16 0,0.154Z" style="fill:url(#_Linear5);fill-rule:nonzero;"/>
            </g>
            <g transform="matrix(0,174.626,174.626,0,1232.58,1133.58)">
                <path d="M0,0.154L0.016,-0.157C0.02,-0.242 0.079,-0.304 0.157,-0.306L0.839,-0.326C0.939,-0.329 1,-0.25 1,-0.144C1,-0.028 0.918,0.035 0.823,0.019L0.607,-0.017L0.586,0.1C0.574,0.171 0.532,0.191 0.492,0.191C0.445,0.191 0.41,0.161 0.403,0.074L0.393,-0.052L0.196,-0.085L0.231,0.163C0.248,0.284 0.188,0.332 0.125,0.332C0.064,0.332 0,0.289 0,0.172C0,0.166 0,0.16 0,0.154Z" style="fill:url(#_Linear6);fill-rule:nonzero;"/>
            </g>
            <g transform="matrix(0,174.618,174.618,0,1232.58,1132.68)">
                <path d="M0,0.154L0.016,-0.157C0.02,-0.242 0.079,-0.304 0.157,-0.306L0.839,-0.326C0.939,-0.329 1,-0.25 1,-0.144C1,-0.028 0.919,0.035 0.823,0.019L0.607,-0.017L0.586,0.1C0.574,0.171 0.532,0.191 0.492,0.191C0.445,0.191 0.41,0.161 0.403,0.074L0.393,-0.052L0.196,-0.085L0.231,0.163C0.248,0.284 0.188,0.332 0.125,0.332C0.064,0.332 0,0.289 0,0.172C0,0.166 0,0.16 0,0.154Z" style="fill:url(#_Linear7);fill-rule:nonzero;"/>
            </g>
            <g transform="matrix(0,174.619,174.619,0,1232.58,1131.79)">
                <path d="M0,0.154L0.016,-0.157C0.02,-0.242 0.079,-0.304 0.157,-0.306L0.839,-0.326C0.939,-0.329 1,-0.25 1,-0.144C1,-0.028 0.919,0.035 0.823,0.019L0.607,-0.017L0.586,0.1C0.574,0.171 0.532,0.191 0.492,0.191C0.445,0.191 0.41,0.161 0.403,0.074L0.393,-0.052L0.196,-0.085L0.231,0.163C0.248,0.284 0.188,0.332 0.125,0.332C0.064,0.332 0,0.289 0,0.172C0,0.166 0,0.16 0,0.154Z" style="fill:url(#_Linear8);fill-rule:nonzero;"/>
            </g>
            <g transform="matrix(0,174.619,174.619,0,1232.58,1130.89)">
                <path d="M0,0.154L0.016,-0.157C0.02,-0.242 0.079,-0.304 0.157,-0.306L0.839,-0.326C0.939,-0.329 1,-0.25 1,-0.144C1,-0.028 0.918,0.035 0.823,0.019L0.607,-0.017L0.586,0.1C0.574,0.171 0.532,0.191 0.492,0.191C0.445,0.191 0.41,0.161 0.403,0.074L0.393,-0.052L0.196,-0.085L0.231,0.163C0.248,0.284 0.188,0.332 0.125,0.332C0.064,0.332 0,0.289 0,0.172C0,0.166 0,0.16 0,0.154Z" style="fill:url(#_Linear9);fill-rule:nonzero;"/>
            </g>
            <g transform="matrix(0,174.624,174.624,0,1232.58,1129.99)">
                <path d="M0,0.154L0.016,-0.157C0.02,-0.242 0.079,-0.304 0.158,-0.306L0.839,-0.326C0.939,-0.329 1,-0.25 1,-0.144C1,-0.028 0.919,0.035 0.823,0.019L0.607,-0.017L0.586,0.1C0.574,0.171 0.532,0.191 0.492,0.191C0.445,0.191 0.41,0.161 0.403,0.074L0.393,-0.052L0.196,-0.085L0.231,0.163C0.248,0.284 0.188,0.332 0.125,0.332C0.064,0.332 0,0.289 0,0.172C0,0.166 0,0.16 0,0.154Z" style="fill:url(#_Linear10);fill-rule:nonzero;"/>
            </g>
            <g transform="matrix(0,174.63,174.63,0,1232.58,1129.09)">
                <path d="M0,0.172L0,0.154L0.016,-0.157C0.02,-0.242 0.079,-0.304 0.158,-0.306L0.839,-0.326C0.939,-0.329 1,-0.25 1,-0.144C1,-0.028 0.918,0.035 0.823,0.019L0.607,-0.017L0.586,0.1C0.574,0.171 0.532,0.191 0.492,0.191C0.445,0.191 0.41,0.161 0.403,0.074L0.393,-0.052L0.196,-0.085L0.231,0.163C0.248,0.284 0.188,0.332 0.125,0.332C0.064,0.332 0,0.289 0,0.172Z" style="fill:url(#_Linear11);fill-rule:nonzero;"/>
            </g>
            <g transform="matrix(0,174.626,174.626,0,1232.58,1128.2)">
                <path d="M0,0.154L0.016,-0.157C0.02,-0.242 0.079,-0.304 0.157,-0.306L0.839,-0.326C0.939,-0.329 1,-0.25 1,-0.144C1,-0.028 0.918,0.035 0.823,0.019L0.607,-0.017L0.586,0.1C0.574,0.171 0.532,0.191 0.491,0.191C0.445,0.191 0.41,0.161 0.403,0.074L0.393,-0.052L0.196,-0.085L0.231,0.163C0.248,0.284 0.188,0.332 0.125,0.332C0.064,0.332 0,0.289 0,0.172C0,0.166 0,0.16 0,0.154Z" style="fill:url(#_Linear12);fill-rule:nonzero;"/>
            </g>
            <g transform="matrix(0,174.625,174.625,0,1232.58,1127.3)">
                <path d="M0,0.154L0.016,-0.157C0.02,-0.242 0.079,-0.304 0.158,-0.306L0.839,-0.326C0.939,-0.329 1,-0.25 1,-0.144C1,-0.028 0.918,0.035 0.823,0.019L0.607,-0.017L0.586,0.1C0.574,0.171 0.532,0.191 0.492,0.191C0.445,0.191 0.41,0.161 0.403,0.074L0.393,-0.052L0.196,-0.085L0.231,0.163C0.248,0.284 0.188,0.332 0.125,0.332C0.064,0.332 0,0.289 0,0.172C0,0.166 0,0.16 0,0.154Z" style="fill:url(#_Linear13);fill-rule:nonzero;"/>
            </g>
            <g transform="matrix(0,174.619,174.619,0,1232.58,1126.4)">
                <path d="M0,0.154L0.016,-0.157C0.02,-0.242 0.079,-0.304 0.157,-0.306L0.839,-0.326C0.939,-0.329 1,-0.25 1,-0.144C1,-0.028 0.919,0.035 0.823,0.019L0.607,-0.017L0.586,0.1C0.574,0.171 0.532,0.191 0.492,0.191C0.445,0.191 0.41,0.161 0.403,0.074L0.393,-0.052L0.196,-0.085L0.231,0.163C0.248,0.284 0.188,0.332 0.125,0.332C0.064,0.332 0,0.289 0,0.172C0,0.166 0,0.16 0,0.154Z" style="fill:url(#_Linear14);fill-rule:nonzero;"/>
            </g>
            <g transform="matrix(4.16667,0,0,4.16667,1290.51,1278.15)">
                <path d="M0,-31.19C0,-28.532 -1.989,-26.012 -7.085,-26.74L-17.473,-28.223L-16.102,-19.934L-10.809,-19.515C-7.168,-19.236 -5.908,-17.75 -5.908,-15.82C-5.908,-14.113 -6.749,-12.376 -9.717,-11.841L-14.617,-10.974L-13.104,-1.932C-12.433,2.074 -15.066,5.489 -19.937,5.489C-24.362,5.489 -27.694,2.942 -27.582,-1.258L-26.742,-29.82C-26.658,-33.122 -24.026,-35.588 -20.468,-35.757L-7.448,-36.4C-1.989,-36.679 0,-33.879 0,-31.19" style="fill:white;fill-rule:nonzero;"/>
            </g>
            <g transform="matrix(0,167.438,167.438,0,1232.87,1131.79)">
                <path d="M0,0.16L0.017,-0.164C0.02,-0.242 0.072,-0.298 0.143,-0.3L0.854,-0.321C0.893,-0.322 0.926,-0.309 0.952,-0.285C0.983,-0.254 1,-0.207 1,-0.152C1,-0.1 0.983,-0.057 0.951,-0.03C0.922,-0.006 0.883,0.004 0.84,-0.003L0.615,-0.041C0.604,-0.043 0.593,-0.035 0.591,-0.023L0.569,0.099C0.56,0.151 0.534,0.176 0.491,0.176C0.474,0.176 0.428,0.176 0.421,0.074L0.41,-0.058C0.409,-0.068 0.402,-0.076 0.392,-0.078L0.186,-0.112C0.179,-0.113 0.172,-0.111 0.168,-0.106C0.163,-0.102 0.161,-0.096 0.161,-0.091C0.161,-0.09 0.161,-0.089 0.161,-0.088L0.198,0.171C0.2,0.185 0.201,0.198 0.201,0.21C0.201,0.281 0.167,0.323 0.109,0.323C0.083,0.323 0,0.312 0,0.177C0,0.172 0,0.166 0,0.16Z" style="fill:url(#_Linear15);fill-rule:nonzero;"/>
            </g>
        </g>
    </g>
    <defs>
        <linearGradient id="_Linear1" x1="0" y1="0" x2="1" y2="0" gradientUnits="userSpaceOnUse" gradientTransform="matrix(1,0,0,-1,0,0.00147386)"><stop offset="0" style="stop-color:rgb(48,117,187);stop-opacity:1"/><stop offset="1" style="stop-color:rgb(37,98,174);stop-opacity:1"/></linearGradient>
        <linearGradient id="_Linear2" x1="0" y1="0" x2="1" y2="0" gradientUnits="userSpaceOnUse" gradientTransform="matrix(1,0,0,-1,0,0.00147386)"><stop offset="0" style="stop-color:rgb(0,152,217);stop-opacity:1"/><stop offset="1" style="stop-color:rgb(23,131,198);stop-opacity:1"/></linearGradient>
        <linearGradient id="_Linear3" x1="0" y1="0" x2="1" y2="0" gradientUnits="userSpaceOnUse" gradientTransform="matrix(1,0,0,-1,0,0.00148688)"><stop offset="0" style="stop-color:rgb(95,204,246);stop-opacity:1"/><stop offset="1" style="stop-color:rgb(48,117,187);stop-opacity:1"/></linearGradient>
        <linearGradient id="_Linear4" x1="0" y1="0" x2="1" y2="0" gradientUnits="userSpaceOnUse" gradientTransform="matrix(1,0,0,-1,0,0.00261859)"><stop offset="0" style="stop-color:rgb(27,129,196);stop-opacity:1"/><stop offset="1" style="stop-color:rgb(37,98,174);stop-opacity:1"/></linearGradient>
        <linearGradient id="_Linear5" x1="0" y1="0" x2="1" y2="0" gradientUnits="userSpaceOnUse" gradientTransform="matrix(1,0,0,-1,0,0.0026184)"><stop offset="0" style="stop-color:rgb(214,225,226);stop-opacity:1"/><stop offset="0" style="stop-color:rgb(214,225,226);stop-opacity:1"/><stop offset="1" style="stop-color:rgb(168,191,189);stop-opacity:1"/></linearGradient>
        <linearGradient id="_Linear6" x1="0" y1="0" x2="1" y2="0" gradientUnits="userSpaceOnUse" gradientTransform="matrix(1,0,0,-1,0,0.00261855)"><stop offset="0" style="stop-color:rgb(214,225,226);stop-opacity:1"/><stop offset="0" style="stop-color:rgb(214,225,226);stop-opacity:1"/><stop offset="1" style="stop-color:rgb(168,191,189);stop-opacity:1"/></linearGradient>
        <linearGradient id="_Linear7" x1="0" y1="0" x2="1" y2="0" gradientUnits="userSpaceOnUse" gradientTransform="matrix(1,0,0,-1,0,0.00261867)"><stop offset="0" style="stop-color:rgb(214,225,226);stop-opacity:1"/><stop offset="0" style="stop-color:rgb(214,225,226);stop-opacity:1"/><stop offset="1" style="stop-color:rgb(168,191,189);stop-opacity:1"/></linearGradient>
        <linearGradient id="_Linear8" x1="0" y1="0" x2="1" y2="0" gradientUnits="userSpaceOnUse" gradientTransform="matrix(1,0,0,-1,0,0.00261867)"><stop offset="0" style="stop-color:rgb(214,225,226);stop-opacity:1"/><stop offset="0" style="stop-color:rgb(214,225,226);stop-opacity:1"/><stop offset="1" style="stop-color:rgb(168,191,189);stop-opacity:1"/></linearGradient>
        <linearGradient id="_Linear9" x1="0" y1="0" x2="1" y2="0" gradientUnits="userSpaceOnUse" gradientTransform="matrix(1,0,0,-1,0,0.00261866)"><stop offset="0" style="stop-color:rgb(214,225,226);stop-opacity:1"/><stop offset="0" style="stop-color:rgb(214,225,226);stop-opacity:1"/><stop offset="1" style="stop-color:rgb(168,191,189);stop-opacity:1"/></linearGradient>
        <linearGradient id="_Linear10" x1="0" y1="0" x2="1" y2="0" gradientUnits="userSpaceOnUse" gradientTransform="matrix(1,0,0,-1,0,0.00261859)"><stop offset="0" style="stop-color:rgb(214,225,226);stop-opacity:1"/><stop offset="0" style="stop-color:rgb(214,225,226);stop-opacity:1"/><stop offset="1" style="stop-color:rgb(168,191,189);stop-opacity:1"/></linearGradient>
        <linearGradient id="_Linear11" x1="0" y1="0" x2="1" y2="0" gradientUnits="userSpaceOnUse" gradientTransform="matrix(1,0,0,-1,0,0.00261849)"><stop offset="0" style="stop-color:rgb(214,225,226);stop-opacity:1"/><stop offset="0" style="stop-color:rgb(214,225,226);stop-opacity:1"/><stop offset="1" style="stop-color:rgb(168,191,189);stop-opacity:1"/></linearGradient>
        <linearGradient id="_Linear12" x1="0" y1="0" x2="1" y2="0" gradientUnits="userSpaceOnUse" gradientTransform="matrix(1,0,0,-1,0,0.00261855)"><stop offset="0" style="stop-color:rgb(214,225,226);stop-opacity:1"/><stop offset="0" style="stop-color:rgb(214,225,226);stop-opacity:1"/><stop offset="1" style="stop-color:rgb(168,191,189);stop-opacity:1"/></linearGradient>
        <linearGradient id="_Linear13" x1="0" y1="0" x2="1" y2="0" gradientUnits="userSpaceOnUse" gradientTransform="matrix(1,0,0,-1,0,0.00261857)"><stop offset="0" style="stop-color:rgb(214,225,226);stop-opacity:1"/><stop offset="0" style="stop-color:rgb(214,225,226);stop-opacity:1"/><stop offset="1" style="stop-color:rgb(168,191,189);stop-opacity:1"/></linearGradient>
        <linearGradient id="_Linear14" x1="0" y1="0" x2="1" y2="0" gradientUnits="userSpaceOnUse" gradientTransform="matrix(1,0,0,-1,0,0.00261867)"><stop offset="0" style="stop-color:rgb(214,225,226);stop-opacity:1"/><stop offset="0" style="stop-color:rgb(214,225,226);stop-opacity:1"/><stop offset="1" style="stop-color:rgb(168,191,189);stop-opacity:1"/></linearGradient>
        <linearGradient id="_Linear15" x1="0" y1="0" x2="1" y2="0" gradientUnits="userSpaceOnUse" gradientTransform="matrix(1,0,0,-1,0,0.00100364)"><stop offset="0" style="stop-color:white;stop-opacity:1"/><stop offset="0" style="stop-color:white;stop-opacity:1"/><stop offset="1" style="stop-color:rgb(221,230,230);stop-opacity:1"/><stop offset="1" style="stop-color:rgb(221,230,230);stop-opacity:1"/></linearGradient>
    </defs>
</svg>
