<?xml version="1.0" encoding="UTF-8" standalone="no"?>
<!DOCTYPE svg PUBLIC "-//W3C//DTD SVG 1.1//EN" "http://www.w3.org/Graphics/SVG/1.1/DTD/svg11.dtd">
<svg width="100%" height="100%" viewBox="0 0 172 226" version="1.1" xmlns="http://www.w3.org/2000/svg" xmlns:xlink="http://www.w3.org/1999/xlink" xml:space="preserve" xmlns:serif="http://www.serif.com/" style="fill-rule:evenodd;clip-rule:evenodd;stroke-linejoin:round;stroke-miterlimit:2;">
    <g transform="matrix(1,0,0,1,-462,-1112)">
        <g>
            <g transform="matrix(0,216.163,216.163,0,547.407,1121.8)">
                <path d="M0,0.118L0.014,-0.16C0.019,-0.275 0.104,-0.362 0.214,-0.367L0.765,-0.391C0.885,-0.396 0.98,-0.304 0.986,-0.178L1,0.17C1,0.175 1,0.18 1,0.184C1,0.333 0.896,0.4 0.8,0.4C0.704,0.4 0.606,0.338 0.595,0.217C0.558,0.255 0.512,0.261 0.486,0.261C0.443,0.261 0.398,0.245 0.366,0.205C0.345,0.312 0.262,0.351 0.191,0.351C0.099,0.351 0,0.284 0,0.135C0,0.129 0,0.124 0,0.118Z" style="fill:url(#_Linear1);fill-rule:nonzero;"/>
            </g>
            <g transform="matrix(0,216.157,216.157,0,547.407,1112.81)">
                <path d="M0,0.118L0.014,-0.16C0.019,-0.275 0.104,-0.362 0.214,-0.367L0.765,-0.391C0.885,-0.396 0.98,-0.304 0.986,-0.178L1,0.17C1,0.175 1,0.18 1,0.184C1,0.333 0.896,0.4 0.8,0.4C0.704,0.4 0.606,0.338 0.595,0.217C0.558,0.255 0.512,0.261 0.486,0.261C0.443,0.261 0.398,0.245 0.366,0.205C0.345,0.312 0.262,0.351 0.191,0.351C0.099,0.351 0,0.284 0,0.135C0,0.129 0,0.124 0,0.118Z" style="fill:url(#_Linear2);fill-rule:nonzero;"/>
            </g>
            <g transform="matrix(0,214.371,214.371,0,547.43,1112.81)">
                <path d="M0,0.119L0.014,-0.161C0.019,-0.275 0.103,-0.361 0.212,-0.366L0.767,-0.39C0.886,-0.395 0.98,-0.305 0.986,-0.18L1,0.172C1,0.176 1,0.181 1,0.186C1,0.333 0.898,0.399 0.802,0.399C0.705,0.399 0.606,0.334 0.6,0.209C0.562,0.252 0.513,0.258 0.486,0.258C0.462,0.258 0.402,0.253 0.362,0.197C0.344,0.309 0.26,0.35 0.188,0.35C0.098,0.35 0,0.283 0,0.136C0,0.13 0,0.125 0,0.119Z" style="fill:url(#_Linear3);fill-rule:nonzero;"/>
            </g>
            <g transform="matrix(0,176.643,176.643,0,547.825,1136.16)">
                <path d="M0,0.147L0.017,-0.192C0.021,-0.275 0.078,-0.336 0.155,-0.34L0.829,-0.369C0.914,-0.373 0.979,-0.309 0.983,-0.216L1,0.211C1.005,0.331 0.936,0.376 0.867,0.376C0.8,0.376 0.718,0.333 0.728,0.218L0.751,-0.052L0.588,-0.072L0.572,0.087C0.563,0.184 0.525,0.205 0.483,0.205C0.443,0.205 0.401,0.184 0.394,0.086L0.382,-0.098L0.242,-0.116L0.23,0.191C0.227,0.289 0.175,0.316 0.122,0.316C0.063,0.316 0,0.276 0,0.163C0,0.158 0,0.153 0,0.147Z" style="fill:url(#_Linear4);fill-rule:nonzero;"/>
            </g>
            <g transform="matrix(0,176.648,176.648,0,547.825,1133.46)">
                <path d="M0,0.147L0.017,-0.192C0.021,-0.275 0.078,-0.336 0.155,-0.34L0.829,-0.369C0.914,-0.373 0.979,-0.308 0.983,-0.216L1,0.211C1.005,0.331 0.936,0.376 0.867,0.376C0.8,0.376 0.718,0.333 0.728,0.218L0.751,-0.052L0.588,-0.072L0.572,0.087C0.563,0.184 0.525,0.205 0.483,0.205C0.443,0.205 0.401,0.184 0.394,0.086L0.382,-0.098L0.241,-0.116L0.23,0.191C0.227,0.289 0.175,0.316 0.122,0.316C0.062,0.316 0,0.276 0,0.163C0,0.158 0,0.153 0,0.147Z" style="fill:url(#_Linear5);fill-rule:nonzero;"/>
            </g>
            <g transform="matrix(0,176.659,176.659,0,547.825,1132.56)">
                <path d="M0,0.147L0.017,-0.192C0.021,-0.275 0.078,-0.336 0.155,-0.34L0.829,-0.369C0.914,-0.373 0.979,-0.308 0.983,-0.216L1,0.211C1.005,0.331 0.936,0.376 0.867,0.376C0.8,0.376 0.718,0.333 0.728,0.218L0.751,-0.052L0.588,-0.072L0.572,0.087C0.563,0.184 0.525,0.205 0.483,0.205C0.443,0.205 0.401,0.184 0.394,0.086L0.382,-0.098L0.242,-0.116L0.23,0.191C0.227,0.289 0.175,0.316 0.122,0.316C0.063,0.316 0,0.276 0,0.163C0,0.158 0,0.152 0,0.147Z" style="fill:url(#_Linear6);fill-rule:nonzero;"/>
            </g>
            <g transform="matrix(0,176.643,176.643,0,547.825,1131.67)">
                <path d="M0,0.147L0.017,-0.192C0.021,-0.275 0.078,-0.336 0.155,-0.34L0.829,-0.369C0.914,-0.373 0.979,-0.309 0.983,-0.216L1,0.211C1.005,0.331 0.936,0.376 0.867,0.376C0.8,0.376 0.718,0.333 0.728,0.218L0.751,-0.052L0.588,-0.072L0.572,0.087C0.563,0.184 0.525,0.205 0.483,0.205C0.443,0.205 0.401,0.184 0.394,0.086L0.382,-0.098L0.241,-0.116L0.23,0.191C0.227,0.289 0.175,0.316 0.122,0.316C0.062,0.316 0,0.276 0,0.163C0,0.158 0,0.153 0,0.147Z" style="fill:url(#_Linear7);fill-rule:nonzero;"/>
            </g>
            <g transform="matrix(0,176.649,176.649,0,547.825,1130.77)">
                <path d="M0,0.147L0.017,-0.192C0.021,-0.275 0.078,-0.336 0.155,-0.34L0.829,-0.369C0.914,-0.373 0.979,-0.308 0.983,-0.216L1,0.211C1.005,0.331 0.936,0.376 0.867,0.376C0.8,0.376 0.718,0.333 0.728,0.218L0.751,-0.052L0.588,-0.072L0.572,0.087C0.563,0.184 0.526,0.205 0.483,0.205C0.443,0.205 0.401,0.184 0.394,0.086L0.382,-0.098L0.241,-0.116L0.23,0.191C0.227,0.289 0.175,0.316 0.122,0.316C0.063,0.316 0,0.276 0,0.163C0,0.158 0,0.153 0,0.147Z" style="fill:url(#_Linear8);fill-rule:nonzero;"/>
            </g>
            <g transform="matrix(0,176.648,176.648,0,547.825,1129.87)">
                <path d="M0,0.147L0.017,-0.192C0.021,-0.275 0.078,-0.336 0.155,-0.34L0.829,-0.369C0.914,-0.373 0.979,-0.308 0.983,-0.216L1,0.211C1.005,0.331 0.936,0.376 0.867,0.376C0.8,0.376 0.718,0.333 0.728,0.218L0.751,-0.052L0.588,-0.072L0.572,0.087C0.563,0.184 0.525,0.205 0.483,0.205C0.443,0.205 0.401,0.184 0.394,0.086L0.382,-0.098L0.241,-0.116L0.23,0.191C0.227,0.289 0.175,0.316 0.122,0.316C0.063,0.316 0,0.276 0,0.163C0,0.158 0,0.153 0,0.147Z" style="fill:url(#_Linear9);fill-rule:nonzero;"/>
            </g>
            <g transform="matrix(0,176.642,176.642,0,547.825,1128.98)">
                <path d="M0,0.147L0.017,-0.192C0.021,-0.275 0.078,-0.336 0.155,-0.34L0.829,-0.369C0.914,-0.373 0.979,-0.309 0.983,-0.216L1,0.211C1.005,0.331 0.936,0.376 0.867,0.376C0.8,0.376 0.718,0.333 0.728,0.218L0.751,-0.052L0.588,-0.072L0.572,0.087C0.563,0.184 0.525,0.205 0.483,0.205C0.443,0.205 0.401,0.184 0.394,0.086L0.382,-0.098L0.241,-0.116L0.23,0.191C0.227,0.289 0.175,0.316 0.122,0.316C0.062,0.316 0,0.276 0,0.163C0,0.158 0,0.153 0,0.147Z" style="fill:url(#_Linear10);fill-rule:nonzero;"/>
            </g>
            <g transform="matrix(0,176.647,176.647,0,547.825,1128.08)">
                <path d="M0,0.147L0.017,-0.192C0.021,-0.275 0.078,-0.336 0.155,-0.34L0.829,-0.369C0.914,-0.373 0.979,-0.309 0.983,-0.216L1,0.211C1.005,0.331 0.936,0.376 0.867,0.376C0.8,0.376 0.718,0.333 0.728,0.218L0.751,-0.052L0.588,-0.072L0.572,0.087C0.563,0.184 0.525,0.205 0.483,0.205C0.443,0.205 0.401,0.184 0.394,0.086L0.382,-0.098L0.241,-0.116L0.23,0.191C0.227,0.289 0.175,0.316 0.122,0.316C0.062,0.316 0,0.276 0,0.163C0,0.158 0,0.152 0,0.147Z" style="fill:url(#_Linear11);fill-rule:nonzero;"/>
            </g>
            <g transform="matrix(0,176.653,176.653,0,547.825,1127.17)">
                <path d="M0,0.147L0.017,-0.192C0.021,-0.275 0.078,-0.336 0.155,-0.34L0.829,-0.369C0.914,-0.373 0.979,-0.308 0.983,-0.216L1,0.211C1.005,0.331 0.936,0.376 0.867,0.376C0.8,0.376 0.718,0.333 0.728,0.218L0.751,-0.052L0.588,-0.072L0.572,0.087C0.563,0.184 0.525,0.205 0.483,0.205C0.443,0.205 0.401,0.184 0.394,0.086L0.382,-0.098L0.241,-0.116L0.23,0.191C0.227,0.289 0.175,0.316 0.122,0.316C0.062,0.316 0,0.276 0,0.163C0,0.158 0,0.152 0,0.147Z" style="fill:url(#_Linear12);fill-rule:nonzero;"/>
            </g>
            <g transform="matrix(0,176.653,176.653,0,547.825,1126.28)">
                <path d="M0,0.147L0.017,-0.192C0.021,-0.275 0.078,-0.336 0.155,-0.34L0.829,-0.369C0.914,-0.373 0.979,-0.308 0.983,-0.216L1,0.211C1.005,0.331 0.936,0.376 0.867,0.376C0.8,0.376 0.718,0.333 0.728,0.218L0.751,-0.052L0.588,-0.072L0.572,0.087C0.563,0.184 0.525,0.205 0.483,0.205C0.443,0.205 0.401,0.184 0.394,0.086L0.382,-0.098L0.241,-0.116L0.23,0.191C0.227,0.289 0.175,0.316 0.122,0.316C0.062,0.316 0,0.276 0,0.163C0,0.158 0,0.152 0,0.147Z" style="fill:url(#_Linear13);fill-rule:nonzero;"/>
            </g>
            <g transform="matrix(0,176.644,176.644,0,547.825,1125.39)">
                <path d="M0,0.163L0,0.147L0.017,-0.192C0.021,-0.275 0.078,-0.336 0.155,-0.34L0.829,-0.369C0.914,-0.373 0.979,-0.309 0.983,-0.216L1,0.211C1.005,0.331 0.936,0.376 0.867,0.376C0.8,0.376 0.718,0.333 0.728,0.218L0.751,-0.052L0.588,-0.072L0.572,0.087C0.563,0.184 0.525,0.205 0.483,0.205C0.443,0.205 0.401,0.184 0.394,0.086L0.382,-0.098L0.241,-0.116L0.23,0.191C0.227,0.289 0.175,0.316 0.122,0.316C0.063,0.316 0,0.276 0,0.163Z" style="fill:url(#_Linear14);fill-rule:nonzero;"/>
            </g>
            <g transform="matrix(4.16667,0,0,4.16667,614.203,1148.79)">
                <path d="M0,31.137C0,34.051 -1.905,36.991 -7.001,36.766L-25.09,36.039C-29.01,35.869 -31.727,33.127 -31.586,29.513L-30.326,0.95C-30.186,-2.325 -27.61,-4.731 -24.082,-4.9L-9.691,-5.601C-4.397,-5.854 -2.549,-3.08 -2.549,-0.448C-2.549,1.82 -3.669,4.005 -7.842,4.144L-20.834,4.622L-20.079,10.584L-12.264,11.088C-8.151,11.369 -7.253,13.161 -7.253,14.842C-7.253,16.661 -8.151,18.256 -12.237,18.651L-18.986,19.294L-18.118,26.238L-6.693,25.259C-1.821,24.838 0,28.309 0,31.137" style="fill:white;fill-rule:nonzero;"/>
            </g>
            <g transform="matrix(0,169.461,169.461,0,547.887,1130.77)">
                <path d="M0,0.154L0.018,-0.2C0.021,-0.275 0.072,-0.33 0.141,-0.333L0.843,-0.364C0.921,-0.367 0.978,-0.31 0.982,-0.225L1,0.22C1,0.224 1,0.228 1,0.232C1,0.36 0.91,0.37 0.883,0.37C0.825,0.37 0.758,0.338 0.758,0.246C0.758,0.24 0.759,0.235 0.759,0.229C0.759,0.229 0.783,-0.054 0.783,-0.054C0.783,-0.065 0.775,-0.074 0.765,-0.075L0.594,-0.097C0.588,-0.097 0.583,-0.096 0.578,-0.092C0.574,-0.088 0.571,-0.083 0.57,-0.077L0.554,0.088C0.544,0.192 0.504,0.192 0.482,0.192C0.464,0.192 0.418,0.192 0.411,0.088L0.398,-0.104C0.398,-0.114 0.39,-0.122 0.38,-0.123L0.233,-0.142C0.227,-0.143 0.221,-0.141 0.217,-0.137C0.212,-0.133 0.21,-0.128 0.209,-0.122L0.198,0.198C0.195,0.272 0.165,0.307 0.106,0.307C0.04,0.307 0,0.256 0,0.169C0,0.164 0,0.159 0,0.154Z" style="fill:url(#_Linear15);fill-rule:nonzero;"/>
            </g>
        </g>
    </g>
    <defs>
        <linearGradient id="_Linear1" x1="0" y1="0" x2="1" y2="0" gradientUnits="userSpaceOnUse" gradientTransform="matrix(1,0,0,-1,0,0.00452029)"><stop offset="0" style="stop-color:rgb(252,176,22);stop-opacity:1"/><stop offset="1" style="stop-color:rgb(246,134,31);stop-opacity:1"/></linearGradient>
        <linearGradient id="_Linear2" x1="0" y1="0" x2="1" y2="0" gradientUnits="userSpaceOnUse" gradientTransform="matrix(1,0,0,-1,0,0.0045204)"><stop offset="0" style="stop-color:rgb(255,222,0);stop-opacity:1"/><stop offset="1" style="stop-color:rgb(254,193,42);stop-opacity:1"/></linearGradient>
        <linearGradient id="_Linear3" x1="0" y1="0" x2="1" y2="0" gradientUnits="userSpaceOnUse" gradientTransform="matrix(1,0,0,-1,0,0.00445998)"><stop offset="0" style="stop-color:rgb(255,241,133);stop-opacity:1"/><stop offset="1" style="stop-color:rgb(252,176,22);stop-opacity:1"/></linearGradient>
        <linearGradient id="_Linear4" x1="0" y1="0" x2="1" y2="0" gradientUnits="userSpaceOnUse" gradientTransform="matrix(1,0,0,-1,0,0.00318743)"><stop offset="0" style="stop-color:rgb(254,191,36);stop-opacity:1"/><stop offset="1" style="stop-color:rgb(246,134,31);stop-opacity:1"/></linearGradient>
        <linearGradient id="_Linear5" x1="0" y1="0" x2="1" y2="0" gradientUnits="userSpaceOnUse" gradientTransform="matrix(1,0,0,-1,0,0.00318734)"><stop offset="0" style="stop-color:rgb(214,225,226);stop-opacity:1"/><stop offset="0" style="stop-color:rgb(214,225,226);stop-opacity:1"/><stop offset="1" style="stop-color:rgb(168,191,189);stop-opacity:1"/></linearGradient>
        <linearGradient id="_Linear6" x1="0" y1="0" x2="1" y2="0" gradientUnits="userSpaceOnUse" gradientTransform="matrix(1,0,0,-1,0,0.00318715)"><stop offset="0" style="stop-color:rgb(214,225,226);stop-opacity:1"/><stop offset="0" style="stop-color:rgb(214,225,226);stop-opacity:1"/><stop offset="1" style="stop-color:rgb(168,191,189);stop-opacity:1"/></linearGradient>
        <linearGradient id="_Linear7" x1="0" y1="0" x2="1" y2="0" gradientUnits="userSpaceOnUse" gradientTransform="matrix(1,0,0,-1,0,0.00318744)"><stop offset="0" style="stop-color:rgb(214,225,226);stop-opacity:1"/><stop offset="0" style="stop-color:rgb(214,225,226);stop-opacity:1"/><stop offset="1" style="stop-color:rgb(168,191,189);stop-opacity:1"/></linearGradient>
        <linearGradient id="_Linear8" x1="0" y1="0" x2="1" y2="0" gradientUnits="userSpaceOnUse" gradientTransform="matrix(1,0,0,-1,0,0.00318733)"><stop offset="0" style="stop-color:rgb(214,225,226);stop-opacity:1"/><stop offset="0" style="stop-color:rgb(214,225,226);stop-opacity:1"/><stop offset="1" style="stop-color:rgb(168,191,189);stop-opacity:1"/></linearGradient>
        <linearGradient id="_Linear9" x1="0" y1="0" x2="1" y2="0" gradientUnits="userSpaceOnUse" gradientTransform="matrix(1,0,0,-1,0,0.00318734)"><stop offset="0" style="stop-color:rgb(214,225,226);stop-opacity:1"/><stop offset="0" style="stop-color:rgb(214,225,226);stop-opacity:1"/><stop offset="1" style="stop-color:rgb(168,191,189);stop-opacity:1"/></linearGradient>
        <linearGradient id="_Linear10" x1="0" y1="0" x2="1" y2="0" gradientUnits="userSpaceOnUse" gradientTransform="matrix(1,0,0,-1,0,0.00318745)"><stop offset="0" style="stop-color:rgb(214,225,226);stop-opacity:1"/><stop offset="0" style="stop-color:rgb(214,225,226);stop-opacity:1"/><stop offset="1" style="stop-color:rgb(168,191,189);stop-opacity:1"/></linearGradient>
        <linearGradient id="_Linear11" x1="0" y1="0" x2="1" y2="0" gradientUnits="userSpaceOnUse" gradientTransform="matrix(1,0,0,-1,0,0.00318736)"><stop offset="0" style="stop-color:rgb(214,225,226);stop-opacity:1"/><stop offset="0" style="stop-color:rgb(214,225,226);stop-opacity:1"/><stop offset="1" style="stop-color:rgb(168,191,189);stop-opacity:1"/></linearGradient>
        <linearGradient id="_Linear12" x1="0" y1="0" x2="1" y2="0" gradientUnits="userSpaceOnUse" gradientTransform="matrix(1,0,0,-1,0,0.00318725)"><stop offset="0" style="stop-color:rgb(214,225,226);stop-opacity:1"/><stop offset="0" style="stop-color:rgb(214,225,226);stop-opacity:1"/><stop offset="1" style="stop-color:rgb(168,191,189);stop-opacity:1"/></linearGradient>
        <linearGradient id="_Linear13" x1="0" y1="0" x2="1" y2="0" gradientUnits="userSpaceOnUse" gradientTransform="matrix(1,0,0,-1,0,0.00318725)"><stop offset="0" style="stop-color:rgb(214,225,226);stop-opacity:1"/><stop offset="0" style="stop-color:rgb(214,225,226);stop-opacity:1"/><stop offset="1" style="stop-color:rgb(168,191,189);stop-opacity:1"/></linearGradient>
        <linearGradient id="_Linear14" x1="0" y1="0" x2="1" y2="0" gradientUnits="userSpaceOnUse" gradientTransform="matrix(1,0,0,-1,0,0.00318742)"><stop offset="0" style="stop-color:rgb(214,225,226);stop-opacity:1"/><stop offset="0" style="stop-color:rgb(214,225,226);stop-opacity:1"/><stop offset="1" style="stop-color:rgb(168,191,189);stop-opacity:1"/></linearGradient>
        <linearGradient id="_Linear15" x1="0" y1="0" x2="1" y2="0" gradientUnits="userSpaceOnUse" gradientTransform="matrix(1,0,0,-1,0,0.00293688)"><stop offset="0" style="stop-color:white;stop-opacity:1"/><stop offset="0" style="stop-color:white;stop-opacity:1"/><stop offset="1" style="stop-color:rgb(221,230,230);stop-opacity:1"/><stop offset="1" style="stop-color:rgb(221,230,230);stop-opacity:1"/></linearGradient>
    </defs>
</svg>
