<svg clip-rule="evenodd" fill-rule="evenodd" stroke-linejoin="round" stroke-miterlimit="2" viewBox="0 0 156 224" xmlns="http://www.w3.org/2000/svg" xmlns:xlink="http://www.w3.org/1999/xlink"><linearGradient id="a" gradientTransform="matrix(1 0 0 -1 0 .001474)" gradientUnits="userSpaceOnUse" x1="0" x2="1" y1="0" y2="0"><stop offset="0" stop-color="#3075bb"/><stop offset="1" stop-color="#2562ae"/></linearGradient><linearGradient id="b" gradientTransform="matrix(1 0 0 -1 0 .001474)" gradientUnits="userSpaceOnUse" x1="0" x2="1" y1="0" y2="0"><stop offset="0" stop-color="#0098d9"/><stop offset="1" stop-color="#1783c6"/></linearGradient><linearGradient id="c" gradientTransform="matrix(1 0 0 -1 0 .001487)" gradientUnits="userSpaceOnUse" x1="0" x2="1" y1="0" y2="0"><stop offset="0" stop-color="#5fccf6"/><stop offset="1" stop-color="#3075bb"/></linearGradient><linearGradient id="d" gradientTransform="matrix(1 0 0 -1 0 .002619)" gradientUnits="userSpaceOnUse" x1="0" x2="1" y1="0" y2="0"><stop offset="0" stop-color="#1b81c4"/><stop offset="1" stop-color="#2562ae"/></linearGradient><linearGradient id="e"><stop offset="0" stop-color="#d6e1e2"/><stop offset="1" stop-color="#a8bfbd"/></linearGradient><linearGradient id="f" gradientTransform="matrix(1 0 0 -1 0 .002618)" gradientUnits="userSpaceOnUse" x1="0" x2="1" xlink:href="#e" y1="0" y2="0"/><linearGradient id="g" gradientTransform="matrix(1 0 0 -1 0 .002619)" gradientUnits="userSpaceOnUse" x1="0" x2="1" xlink:href="#e" y1="0" y2="0"/><linearGradient id="h" gradientTransform="matrix(1 0 0 -1 0 .001004)" gradientUnits="userSpaceOnUse" x1="0" x2="1" y1="0" y2="0"><stop offset="0" stop-color="#fff"/><stop offset="1" stop-color="#dde6e6"/></linearGradient><g fill-rule="nonzero"><path d="m0 .12.013-.253c.006-.119.092-.207.205-.21l.556-.016c.059-.002.115.019.155.059.046.044.071.109.071.182s-.027.136-.077.178c-.048.041-.11.057-.175.046l-.086-.015-.001.006c-.016.093-.081.15-.168.15-.042 0-.087-.016-.119-.055-.012.117-.099.17-.18.17-.093 0-.194-.07-.194-.223 0-.006 0-.012 0-.019z" fill="url(#a)" transform="matrix(0 214.133 214.133 0 77.72 9.81)"/><path d="m.001.12.012-.253c.006-.119.092-.207.205-.21l.556-.016c.059-.002.115.019.155.059.046.044.071.109.071.182s-.027.136-.077.178c-.048.041-.11.057-.175.046l-.086-.015-.001.006c-.016.093-.081.15-.168.15-.042 0-.087-.016-.119-.055-.012.117-.099.17-.18.17-.093 0-.194-.07-.194-.223 0-.006 0-.012.001-.019z" fill="url(#b)" transform="matrix(0 214.133 214.133 0 77.72 .82)"/><path d="m.001.122.012-.256c.006-.117.091-.205.203-.207l.56-.017c.059-.001.114.019.154.058.045.044.07.109.07.181s-.027.135-.076.177c-.047.039-.109.055-.173.045l-.091-.016-.002.01c-.016.091-.079.148-.165.148-.044 0-.091-.018-.123-.063-.008.123-.096.179-.179.179-.092 0-.191-.069-.191-.221 0-.006 0-.012.001-.018z" fill="url(#c)" transform="matrix(0 212.347 212.347 0 77.72 .82)"/><path d="m0 .154.016-.311c.004-.085.063-.147.141-.149l.682-.02c.1-.003.161.076.161.182 0 .116-.081.179-.177.163l-.216-.036-.021.117c-.012.071-.054.091-.094.091-.047 0-.082-.03-.089-.117l-.01-.126-.197-.033.035.248c.017.121-.043.169-.106.169-.061 0-.125-.043-.125-.16 0-.006 0-.012 0-.018z" fill="url(#d)" transform="matrix(0 174.624 174.624 0 77.58 24.17)"/><path d="m0 .154.016-.311c.004-.085.063-.147.142-.149l.681-.02c.1-.003.161.076.161.182 0 .116-.082.179-.177.163l-.216-.036-.021.117c-.012.071-.054.091-.094.091-.047 0-.082-.03-.089-.117l-.01-.126-.197-.033.035.248c.017.121-.043.169-.106.169-.061 0-.125-.043-.125-.16 0-.006 0-.012 0-.018z" fill="url(#f)" transform="matrix(0 174.637 174.637 0 77.58 21.47)"/><g fill="url(#g)"><path d="m0 .154.016-.311c.004-.085.063-.147.141-.149l.682-.02c.1-.003.161.076.161.182 0 .116-.082.179-.177.163l-.216-.036-.021.117c-.012.071-.054.091-.094.091-.047 0-.082-.03-.089-.117l-.01-.126-.197-.033.035.248c.017.121-.043.169-.106.169-.061 0-.125-.043-.125-.16 0-.006 0-.012 0-.018z" transform="matrix(0 174.626 174.626 0 77.58 20.58)"/><path d="m0 .154.016-.311c.004-.085.063-.147.141-.149l.682-.02c.1-.003.161.076.161.182 0 .116-.081.179-.177.163l-.216-.036-.021.117c-.012.071-.054.091-.094.091-.047 0-.082-.03-.089-.117l-.01-.126-.197-.033.035.248c.017.121-.043.169-.106.169-.061 0-.125-.043-.125-.16 0-.006 0-.012 0-.018z" transform="matrix(0 174.618 174.618 0 77.58 19.68)"/><path d="m0 .154.016-.311c.004-.085.063-.147.141-.149l.682-.02c.1-.003.161.076.161.182 0 .116-.081.179-.177.163l-.216-.036-.021.117c-.012.071-.054.091-.094.091-.047 0-.082-.03-.089-.117l-.01-.126-.197-.033.035.248c.017.121-.043.169-.106.169-.061 0-.125-.043-.125-.16 0-.006 0-.012 0-.018z" transform="matrix(0 174.619 174.619 0 77.58 18.79)"/><path d="m0 .154.016-.311c.004-.085.063-.147.141-.149l.682-.02c.1-.003.161.076.161.182 0 .116-.082.179-.177.163l-.216-.036-.021.117c-.012.071-.054.091-.094.091-.047 0-.082-.03-.089-.117l-.01-.126-.197-.033.035.248c.017.121-.043.169-.106.169-.061 0-.125-.043-.125-.16 0-.006 0-.012 0-.018z" transform="matrix(0 174.619 174.619 0 77.58 17.89)"/><path d="m0 .154.016-.311c.004-.085.063-.147.142-.149l.681-.02c.1-.003.161.076.161.182 0 .116-.081.179-.177.163l-.216-.036-.021.117c-.012.071-.054.091-.094.091-.047 0-.082-.03-.089-.117l-.01-.126-.197-.033.035.248c.017.121-.043.169-.106.169-.061 0-.125-.043-.125-.16 0-.006 0-.012 0-.018z" transform="matrix(0 174.624 174.624 0 77.58 16.99)"/></g><path d="m0 .172v-.018l.016-.311c.004-.085.063-.147.142-.149l.681-.02c.1-.003.161.076.161.182 0 .116-.082.179-.177.163l-.216-.036-.021.117c-.012.071-.054.091-.094.091-.047 0-.082-.03-.089-.117l-.01-.126-.197-.033.035.248c.017.121-.043.169-.106.169-.061 0-.125-.043-.125-.16z" fill="url(#f)" transform="matrix(0 174.63 174.63 0 77.58 16.09)"/><g fill="url(#g)"><path d="m0 .154.016-.311c.004-.085.063-.147.141-.149l.682-.02c.1-.003.161.076.161.182 0 .116-.082.179-.177.163l-.216-.036-.021.117c-.012.071-.054.091-.095.091-.046 0-.081-.03-.088-.117l-.01-.126-.197-.033.035.248c.017.121-.043.169-.106.169-.061 0-.125-.043-.125-.16 0-.006 0-.012 0-.018z" transform="matrix(0 174.626 174.626 0 77.58 15.2)"/><path d="m0 .154.016-.311c.004-.085.063-.147.142-.149l.681-.02c.1-.003.161.076.161.182 0 .116-.082.179-.177.163l-.216-.036-.021.117c-.012.071-.054.091-.094.091-.047 0-.082-.03-.089-.117l-.01-.126-.197-.033.035.248c.017.121-.043.169-.106.169-.061 0-.125-.043-.125-.16 0-.006 0-.012 0-.018z" transform="matrix(0 174.625 174.625 0 77.58 14.3)"/><path d="m0 .154.016-.311c.004-.085.063-.147.141-.149l.682-.02c.1-.003.161.076.161.182 0 .116-.081.179-.177.163l-.216-.036-.021.117c-.012.071-.054.091-.094.091-.047 0-.082-.03-.089-.117l-.01-.126-.197-.033.035.248c.017.121-.043.169-.106.169-.061 0-.125-.043-.125-.16 0-.006 0-.012 0-.018z" transform="matrix(0 174.619 174.619 0 77.58 13.4)"/></g><path d="m0-31.19c0 2.658-1.989 5.178-7.085 4.45l-10.388-1.483 1.371 8.289 5.293.419c3.641.279 4.901 1.765 4.901 3.695 0 1.707-.841 3.444-3.809 3.979l-4.9.867 1.513 9.042c.671 4.006-1.962 7.421-6.833 7.421-4.425 0-7.757-2.547-7.645-6.747l.84-28.562c.084-3.302 2.716-5.768 6.274-5.937l13.02-.643c5.459-.279 7.448 2.521 7.448 5.21" fill="#fff" transform="matrix(4.16667 0 0 4.16667 135.51 165.15)"/><path d="m0 .16.017-.324c.003-.078.055-.134.126-.136l.711-.021c.039-.001.072.012.098.036.031.031.048.078.048.133 0 .052-.017.095-.049.122-.029.024-.068.034-.111.027l-.225-.038c-.011-.002-.022.006-.024.018l-.022.122c-.009.052-.035.077-.078.077-.017 0-.063 0-.07-.102l-.011-.132c-.001-.01-.008-.018-.018-.02l-.206-.034c-.007-.001-.014.001-.018.006-.005.004-.007.01-.007.015v.003l.037.259c.002.014.003.027.003.039 0 .071-.034.113-.092.113-.026 0-.109-.011-.109-.146 0-.005 0-.011 0-.017z" fill="url(#h)" transform="matrix(0 167.438 167.438 0 77.87 18.79)"/></g></svg>