<svg clip-rule="evenodd" fill-rule="evenodd" stroke-linejoin="round" stroke-miterlimit="2" viewBox="0 0 185 181" xmlns="http://www.w3.org/2000/svg" xmlns:xlink="http://www.w3.org/1999/xlink"><linearGradient id="a" gradientTransform="matrix(1 0 0 -1 0 -.000027)" gradientUnits="userSpaceOnUse" x1="0" x2="1" y1="0" y2="0"><stop offset="0" stop-color="#fcb016"/><stop offset="1" stop-color="#f6861f"/></linearGradient><linearGradient id="b" gradientTransform="matrix(1 0 0 -1 0 -.000027)" gradientUnits="userSpaceOnUse" x1="0" x2="1" y1="0" y2="0"><stop offset="0" stop-color="#ffde00"/><stop offset="1" stop-color="#fec12a"/></linearGradient><linearGradient id="c" gradientTransform="matrix(1 0 0 -1 0 -.000027)" gradientUnits="userSpaceOnUse" x1="0" x2="1" y1="0" y2="0"><stop offset="0" stop-color="#fff185"/><stop offset="1" stop-color="#fcb016"/></linearGradient><linearGradient id="d" gradientTransform="matrix(1 0 0 -1 0 .000011)" gradientUnits="userSpaceOnUse" x1="0" x2="1" y1="0" y2="0"><stop offset="0" stop-color="#febf24"/><stop offset="1" stop-color="#f6861f"/></linearGradient><linearGradient id="e" gradientTransform="matrix(1 0 0 -1 0 .000011)" gradientUnits="userSpaceOnUse" x1="0" x2="1" y1="0" y2="0"><stop offset="0" stop-color="#d6e1e2"/><stop offset="1" stop-color="#a8bfbd"/></linearGradient><linearGradient id="f" gradientTransform="matrix(1 0 0 -1 0 .000034)" gradientUnits="userSpaceOnUse" x1="0" x2="1" y1="0" y2="0"><stop offset="0" stop-color="#fff"/><stop offset="1" stop-color="#dde6e6"/></linearGradient><g fill-rule="nonzero"><path d="m.468-.538c.328 0 .532.221.532.577 0 .303-.197.499-.502.499-.307 0-.498-.218-.498-.568 0-.308.184-.508.468-.508zm.003.484c-.038 0-.061.011-.061.067 0 .032.008.037.035.037.037 0 .06-.011.06-.066 0-.035-.01-.038-.034-.038z" fill="url(#a)" transform="matrix(0 170.887 170.887 0 92.37 9.43)"/><path d="m.468-.538c.328 0 .532.221.532.577 0 .303-.197.499-.502.499-.307 0-.498-.218-.498-.568 0-.309.184-.508.468-.508zm.003.484c-.038 0-.061.011-.061.067 0 .032.008.037.035.037.037 0 .06-.011.06-.066 0-.035-.01-.038-.034-.038z" fill="url(#b)" transform="matrix(0 170.869 170.869 0 92.37 .46)"/><path d="m.468-.538c.328 0 .532.221.532.577 0 .303-.197.499-.502.499-.307 0-.498-.217-.498-.568 0-.309.183-.508.468-.508zm.002.478c-.04 0-.066.013-.066.073 0 .037.012.043.04.043.04 0 .067-.012.067-.072 0-.038-.013-.044-.041-.044z" fill="url(#c)" transform="matrix(0 169.077 169.077 0 92.36 .46)"/><path d="m.458-.549c.34 0 .542.223.542.599 0 .314-.186.499-.503.499-.312 0-.497-.218-.497-.588 0-.32.171-.51.458-.51zm.004.328c-.139 0-.229.089-.229.238 0 .125.078.198.195.198.139 0 .229-.088.229-.236 0-.125-.078-.2-.195-.2z" fill="url(#d)" transform="matrix(0 131.365 131.365 0 92.36 23.8)"/><g fill="url(#e)"><path d="m.458-.549c.34 0 .542.223.542.599 0 .314-.187.499-.503.499-.312 0-.497-.218-.497-.588 0-.32.171-.51.458-.51zm.004.328c-.139 0-.229.089-.229.238 0 .125.078.198.195.198.139 0 .229-.088.229-.236 0-.125-.078-.2-.195-.2z" transform="matrix(0 131.371 131.371 0 92.36 21.1)"/><path d="m.458-.549c.34 0 .542.223.542.599 0 .314-.186.499-.503.499-.312 0-.497-.218-.497-.588 0-.32.171-.51.458-.51zm.004.328c-.139 0-.229.089-.229.238 0 .125.078.198.195.198.139 0 .229-.088.229-.236 0-.125-.078-.2-.195-.2z" transform="matrix(0 131.378 131.378 0 92.36 20.19)"/><path d="m.458-.549c.34 0 .542.223.542.599 0 .314-.186.499-.503.499-.312 0-.497-.218-.497-.588 0-.32.171-.51.458-.51zm.004.328c-.139 0-.229.089-.229.238 0 .125.078.198.195.198.139 0 .229-.088.229-.236 0-.125-.078-.2-.195-.2z" transform="matrix(0 131.378 131.378 0 92.36 19.3)"/><path d="m.458-.549c.34 0 .542.223.542.599 0 .314-.186.499-.503.499-.312 0-.497-.218-.497-.588 0-.32.171-.51.458-.51zm.004.328c-.139 0-.229.089-.229.238 0 .125.078.198.195.198.139 0 .229-.088.229-.236 0-.125-.078-.2-.195-.2z" transform="matrix(0 131.366 131.366 0 92.36 18.41)"/><path d="m.458-.549c.34 0 .542.223.542.599 0 .314-.186.499-.503.499-.312 0-.497-.218-.497-.588 0-.32.171-.51.458-.51zm.004.328c-.139 0-.229.089-.229.238 0 .125.078.198.195.198.139 0 .229-.088.229-.236 0-.125-.078-.2-.195-.2z" transform="matrix(0 131.365 131.365 0 92.36 17.51)"/><path d="m.458-.549c.34 0 .542.223.542.599 0 .314-.186.499-.503.499-.312 0-.497-.218-.497-.588 0-.32.17-.51.458-.51zm.004.328c-.139 0-.229.089-.229.238 0 .125.078.198.195.198.139 0 .229-.088.229-.236 0-.125-.078-.2-.195-.2z" transform="matrix(0 131.366 131.366 0 92.36 16.62)"/><path d="m.458-.549c.34 0 .542.223.542.599 0 .314-.186.499-.503.499-.312 0-.497-.218-.497-.588 0-.32.17-.51.458-.51zm.004.328c-.139 0-.229.089-.229.238 0 .125.078.198.195.198.139 0 .229-.088.229-.236 0-.125-.078-.2-.195-.2z" transform="matrix(0 131.365 131.365 0 92.36 15.71)"/><path d="m.458-.549c.34 0 .542.223.542.599 0 .314-.186.499-.503.499-.312 0-.497-.218-.497-.588 0-.32.171-.51.458-.51zm.004.328c-.139 0-.229.089-.229.238 0 .125.078.198.195.198.139 0 .229-.088.229-.236 0-.125-.078-.2-.195-.2z" transform="matrix(0 131.366 131.366 0 92.36 14.82)"/><path d="m.458-.549c.34 0 .542.223.542.599 0 .314-.186.499-.503.499-.312 0-.497-.218-.497-.588 0-.32.171-.51.458-.51zm.004.328c-.139 0-.229.089-.229.238 0 .125.078.198.195.198.139 0 .229-.088.229-.236 0-.125-.078-.2-.195-.2z" transform="matrix(0 131.378 131.378 0 92.36 13.92)"/><path d="m.458-.549c.34 0 .542.223.542.599 0 .314-.186.499-.503.499-.312 0-.497-.218-.497-.588 0-.32.171-.51.458-.51zm.004.328c-.139 0-.229.089-.229.238 0 .125.078.198.195.198.139 0 .229-.088.229-.236 0-.125-.078-.2-.195-.2z" transform="matrix(0 131.372 131.372 0 92.36 13.02)"/></g><path d="m0-4.533c0-3.697-2.327-6.161-6.247-6.161-4.702 0-7.502 2.857-7.502 7.223 0 3.697 2.352 6.16 6.301 6.16 4.673 0 7.448-2.856 7.448-7.222m-24.109.949c0-9.069 5.992-14.447 16.102-14.447 11.645 0 18.535 5.824 18.535 15.681 0 9.969-5.851 15.848-15.738 15.848-11.872 0-18.899-6.356-18.899-17.082" fill="#fff" transform="matrix(4.16667 0 0 4.16667 120.66 88.15)"/><path d="m.456-.552c.346 0 .544.22.544.605 0 .317-.183.499-.503.499-.316 0-.497-.216-.497-.593 0-.325.166-.511.456-.511zm.004.29c-.165 0-.272.11-.272.28 0 .145.093.239.236.239.165 0 .271-.11.271-.279 0-.146-.092-.24-.235-.24z" fill="url(#f)" transform="matrix(0 124.173 124.173 0 92.36 18.41)"/></g></svg>