<?xml version="1.0" encoding="UTF-8" standalone="no"?><!DOCTYPE svg PUBLIC "-//W3C//DTD SVG 1.1//EN" "http://www.w3.org/Graphics/SVG/1.1/DTD/svg11.dtd"><svg width="100%" height="100%" viewBox="0 0 200 200" version="1.1" xmlns="http://www.w3.org/2000/svg" xmlns:xlink="http://www.w3.org/1999/xlink" xml:space="preserve" xmlns:serif="http://www.serif.com/" style="fill-rule:evenodd;clip-rule:evenodd;stroke-linejoin:round;stroke-miterlimit:2;"><g><g><path d="M10.292,79.087l12.047,68.234c1.544,7.901 9.397,14.375 17.451,14.375l115.302,0c8.059,0 15.911,-6.474 17.451,-14.375l12.049,-68.234l-174.3,0Z" style="fill:url(#_Linear1);fill-rule:nonzero;"/><path d="M177.356,79.087l-11.001,61.433c-1.546,7.908 -9.399,14.375 -17.452,14.375l-115.301,0c-3.409,0 -6.776,-1.169 -9.648,-3.099c3.048,5.727 9.373,9.9 15.836,9.9l115.302,0c8.059,0 15.911,-6.474 17.451,-14.375l12.049,-68.234l-7.236,0Z" style="fill-opacity:0.2;fill-rule:nonzero;"/><path d="M12.669,94.515l169.544,0l2.379,-15.428l-174.3,0l2.377,15.428Z" style="fill-opacity:0.2;fill-rule:nonzero;"/><rect x="6.959" y="72.286" width="180.97" height="16.736" style="fill:url(#_Linear2);fill-rule:nonzero;"/><path d="M190.337,56.412l-63.042,10.846l-21.692,3.731l-7.742,1.331c-3.841,0.66 -6.496,3.984 -5.912,7.389l0.576,3.347c0.585,3.403 4.202,5.648 8.041,4.987l7.741,-1.333l21.693,-3.73l63.041,-10.844l-2.704,-15.724Z" style="fill:url(#_Linear3);fill-rule:nonzero;"/><path d="M187.928,77.793l0,-5.507l-90.486,13.849l-4.637,-2.072c0,0 0.991,4.959 10.22,4.959l11.469,0l73.434,-11.229Z" style="fill-opacity:0.2;fill-rule:nonzero;"/><path d="M103.025,80.048c0,2.217 -1.799,4.015 -4.016,4.015c-2.218,0 -4.015,-1.798 -4.015,-4.015c0,-2.217 1.797,-4.016 4.015,-4.016c2.217,0 4.016,1.799 4.016,4.016Z" style="fill:url(#_Linear4);fill-rule:nonzero;"/></g><g><path d="M41.783,103.106l-9.417,0l-1.029,-6.829l10.446,0l0,6.829Z" style="fill-opacity:0.25;fill-rule:nonzero;"/><rect x="61.698" y="96.277" width="11.166" height="6.828" style="fill-opacity:0.25;fill-rule:nonzero;"/><path d="M154.105,103.106l9.416,0l1.029,-6.829l-10.445,0l0,6.829Z" style="fill-opacity:0.25;fill-rule:nonzero;"/><rect x="123.024" y="96.277" width="11.166" height="6.828" style="fill-opacity:0.25;fill-rule:nonzero;"/><rect x="91.858" y="96.277" width="11.166" height="6.828" style="fill-opacity:0.25;fill-rule:nonzero;"/><path d="M45.966,125.864l-9.416,0l-1.029,-6.83l10.445,0l0,6.83Z" style="fill-opacity:0.25;fill-rule:nonzero;"/><rect x="63.79" y="119.034" width="11.169" height="6.83" style="fill-opacity:0.25;fill-rule:nonzero;"/><path d="M149.921,125.864l9.415,0l1.03,-6.83l-10.445,0l0,6.83Z" style="fill-opacity:0.25;fill-rule:nonzero;"/><rect x="120.929" y="119.034" width="11.173" height="6.83" style="fill-opacity:0.25;fill-rule:nonzero;"/><rect x="91.858" y="119.034" width="11.166" height="6.83" style="fill-opacity:0.25;fill-rule:nonzero;"/><path d="M50.15,147.683l-9.415,0l-1.029,-6.83l10.444,0l0,6.83Z" style="fill-opacity:0.25;fill-rule:nonzero;"/><rect x="69.104" y="140.853" width="8.91" height="6.83" style="fill-opacity:0.25;fill-rule:nonzero;"/><path d="M145.737,147.683l9.415,0l1.03,-6.83l-10.445,0l0,6.83Z" style="fill-opacity:0.25;fill-rule:nonzero;"/><rect x="117.939" y="140.853" width="8.786" height="6.83" style="fill-opacity:0.25;fill-rule:nonzero;"/><rect x="93.112" y="140.853" width="8.665" height="6.83" style="fill-opacity:0.25;fill-rule:nonzero;"/></g></g><defs><linearGradient id="_Linear1" x1="0" y1="0" x2="1" y2="0" gradientUnits="userSpaceOnUse" gradientTransform="matrix(6.21652e-15,101.523,-101.523,6.21652e-15,159.437,69.1699)"><stop offset="0" style="stop-color:#7c4a18;stop-opacity:1"/><stop offset="1" style="stop-color:#412103;stop-opacity:1"/></linearGradient><linearGradient id="_Linear2" x1="0" y1="0" x2="1" y2="0" gradientUnits="userSpaceOnUse" gradientTransform="matrix(1.89019e-15,30.8691,-30.8691,1.89019e-15,60.7285,68.4434)"><stop offset="0" style="stop-color:#7c4a18;stop-opacity:1"/><stop offset="1" style="stop-color:#412103;stop-opacity:1"/></linearGradient><linearGradient id="_Linear3" x1="0" y1="0" x2="1" y2="0" gradientUnits="userSpaceOnUse" gradientTransform="matrix(1.94078e-15,31.6953,-31.6953,1.94078e-15,157.57,49.8633)"><stop offset="0" style="stop-color:#7c4a18;stop-opacity:1"/><stop offset="1" style="stop-color:#412103;stop-opacity:1"/></linearGradient><linearGradient id="_Linear4" x1="0" y1="0" x2="1" y2="0" gradientUnits="userSpaceOnUse" gradientTransform="matrix(1.80839e-15,29.5332,-29.5332,1.80839e-15,98.4805,62.582)"><stop offset="0" style="stop-color:#7c4a18;stop-opacity:1"/><stop offset="1" style="stop-color:#412103;stop-opacity:1"/></linearGradient></defs></svg>