<?xml version="1.0" encoding="UTF-8" standalone="no"?>
<!DOCTYPE svg PUBLIC "-//W3C//DTD SVG 1.1//EN" "http://www.w3.org/Graphics/SVG/1.1/DTD/svg11.dtd">
<svg width="100%" height="100%" viewBox="0 0 200 200" version="1.1" xmlns="http://www.w3.org/2000/svg" xmlns:xlink="http://www.w3.org/1999/xlink" xml:space="preserve" xmlns:serif="http://www.serif.com/" style="fill-rule:evenodd;clip-rule:evenodd;stroke-linejoin:round;stroke-miterlimit:2;">
    <g transform="matrix(0.949863,0,0,0.949863,5.01367,5.01367)">
        <g transform="matrix(3.73113,3.73113,-3.73113,3.73113,332.109,-655.597)">
            <g transform="matrix(12,0,0,12,49.9918,136.572)">
                <path d="M0.52,0.031L0.717,0.031C0.711,-0.018 0.709,-0.059 0.709,-0.126L0.709,-0.644C0.709,-0.711 0.711,-0.759 0.717,-0.801L0.512,-0.801C0.518,-0.757 0.52,-0.714 0.52,-0.644L0.52,-0.561C0.52,-0.547 0.52,-0.538 0.521,-0.523C0.455,-0.576 0.397,-0.597 0.316,-0.597C0.234,-0.597 0.164,-0.57 0.113,-0.519C0.057,-0.462 0.027,-0.379 0.027,-0.275C0.027,-0.073 0.137,0.049 0.319,0.049C0.403,0.049 0.454,0.031 0.521,-0.023C0.52,-0.014 0.52,-0.007 0.52,-0.001L0.52,0.031ZM0.363,-0.444C0.454,-0.444 0.518,-0.374 0.518,-0.277C0.518,-0.178 0.453,-0.104 0.364,-0.104C0.327,-0.104 0.291,-0.118 0.267,-0.142C0.237,-0.171 0.221,-0.217 0.221,-0.274C0.221,-0.379 0.276,-0.444 0.363,-0.444Z" style="fill-opacity:0.35;fill-rule:nonzero;"/>
            </g>
            <g transform="matrix(12,0,0,12,59.2198,136.572)">
                <path d="M0.661,-0.218C0.66,-0.228 0.66,-0.234 0.66,-0.238C0.657,-0.295 0.653,-0.337 0.645,-0.369C0.61,-0.518 0.501,-0.603 0.345,-0.603C0.154,-0.603 0.027,-0.472 0.027,-0.274C0.027,-0.175 0.059,-0.09 0.118,-0.03C0.175,0.027 0.252,0.055 0.35,0.055C0.449,0.055 0.529,0.026 0.586,-0.03C0.614,-0.058 0.629,-0.081 0.652,-0.133L0.478,-0.182C0.47,-0.156 0.463,-0.145 0.448,-0.131C0.422,-0.107 0.387,-0.094 0.347,-0.094C0.268,-0.094 0.221,-0.137 0.211,-0.218L0.661,-0.218ZM0.214,-0.356C0.231,-0.422 0.274,-0.454 0.345,-0.454C0.414,-0.454 0.457,-0.42 0.471,-0.356L0.214,-0.356Z" style="fill-opacity:0.35;fill-rule:nonzero;"/>
            </g>
            <g transform="matrix(12,0,0,12,67.4758,136.572)">
                <path d="M0.259,0.031C0.253,-0.018 0.251,-0.057 0.251,-0.12L0.251,-0.322C0.279,-0.39 0.325,-0.429 0.379,-0.429C0.403,-0.429 0.423,-0.42 0.434,-0.404C0.447,-0.387 0.451,-0.368 0.451,-0.326L0.451,-0.12C0.451,-0.056 0.449,-0.014 0.443,0.031L0.651,0.031C0.645,-0.017 0.643,-0.059 0.643,-0.119L0.643,-0.323C0.668,-0.39 0.714,-0.43 0.765,-0.43C0.822,-0.43 0.844,-0.401 0.844,-0.326L0.844,-0.12C0.844,-0.052 0.842,-0.016 0.836,0.031L1.044,0.031C1.038,-0.016 1.036,-0.057 1.036,-0.119L1.036,-0.367C1.036,-0.518 0.963,-0.596 0.82,-0.596C0.733,-0.596 0.672,-0.57 0.61,-0.509C0.597,-0.534 0.587,-0.546 0.569,-0.559C0.536,-0.583 0.493,-0.595 0.441,-0.595C0.362,-0.595 0.301,-0.569 0.25,-0.513L0.25,-0.523C0.251,-0.533 0.251,-0.533 0.251,-0.537L0.251,-0.579L0.053,-0.579C0.059,-0.54 0.061,-0.504 0.061,-0.428L0.061,-0.12C0.061,-0.057 0.059,-0.015 0.053,0.031L0.259,0.031Z" style="fill-opacity:0.35;fill-rule:nonzero;"/>
            </g>
            <g transform="matrix(12,0,0,12,80.6158,136.572)">
                <path d="M0.356,0.054C0.555,0.054 0.687,-0.078 0.687,-0.277C0.687,-0.475 0.559,-0.602 0.357,-0.602C0.155,-0.602 0.027,-0.475 0.027,-0.275C0.027,-0.074 0.155,0.054 0.356,0.054ZM0.358,-0.452C0.443,-0.452 0.494,-0.386 0.494,-0.274C0.494,-0.163 0.444,-0.098 0.357,-0.098C0.27,-0.098 0.218,-0.165 0.218,-0.276C0.218,-0.386 0.27,-0.452 0.358,-0.452Z" style="fill-opacity:0.35;fill-rule:nonzero;"/>
            </g>
        </g>
    </g>
    <g transform="matrix(0.290125,0,0,0.290125,103.03,96.9703)">
        <g transform="matrix(1,0,0,1,-256,-256)">
            <clipPath id="_clip1">
                <rect x="0" y="0" width="512" height="512"/>
            </clipPath>
            <g clip-path="url(#_clip1)">
                <g>
                    <g>
                        <path d="M394.102,0.004L31.962,362.144L44.655,374.837L3.081,462.738C-0.693,470.849 -3.444,488.209 10.172,501.83C17.87,509.531 26.764,511.997 34.525,511.997C40.495,511.997 45.794,510.537 49.362,508.876L137.166,467.349L149.858,480.041L512,117.9L394.102,0.004ZM33.458,476.525C33.379,476.712 33.315,476.827 33.282,476.897L33.458,476.525ZM35.195,478.679C35.184,478.682 34.337,478.824 33.761,478.247C33.506,477.992 33.127,477.612 33.507,476.424L69.705,399.888L112.117,442.3L35.195,478.679ZM149.858,432.87L79.133,362.145L96.481,344.797L167.206,415.522L149.858,432.87ZM190.792,391.936L120.067,321.211L351.827,89.451L422.552,160.177L190.792,391.936ZM375.412,65.865L394.102,47.175L464.828,117.9L446.137,136.591L375.412,65.865Z" style="fill-rule:nonzero;"/>
                    </g>
                </g>
            </g>
        </g>
    </g>
</svg>
