<svg clip-rule="evenodd" fill-rule="evenodd" stroke-linecap="round" stroke-linejoin="round" stroke-miterlimit="10" viewBox="0 0 258 164" xmlns="http://www.w3.org/2000/svg" xmlns:xlink="http://www.w3.org/1999/xlink"><clipPath id="a"><path clip-rule="nonzero" d="m22.89 8.044c-5.372 0-9.767 4.395-9.767 9.766v111.593c0 5.371 4.395 9.766 9.767 9.766h200.914c5.371 0 9.766-4.395 9.766-9.766v-111.593c0-5.371-4.395-9.766-9.766-9.766h-200.914z"/></clipPath><clipPath id="b"><path clip-rule="nonzero" d="m128.518 49.001h13.76v27.578h-13.76z"/></clipPath><clipPath id="c"><path clip-rule="nonzero" d="m22.89 8.044c-5.372 0-9.767 4.395-9.767 9.766v111.593c0 5.371 4.395 9.766 9.767 9.766h200.914c5.371 0 9.766-4.395 9.766-9.766v-111.593c0-5.371-4.395-9.766-9.766-9.766h-200.914z"/></clipPath><g clip-path="url(#a)"><path d="m221.551 139.614h-200.914c-5.372 0-9.766-4.395-9.766-9.766v-111.593c0-5.371 4.394-9.766 9.766-9.766h200.914c5.371 0 9.766 4.395 9.766 9.766v111.593c0 5.371-4.395 9.766-9.766 9.766" fill="#54616e" fill-rule="nonzero"/><path d="m115.176 8.49h27.102v79.925h-27.102z" fill="#a5dde9"/><path d="m115.176 30.839h9.587v37.319h-9.587z" fill="#54be8a"/><path d="m124.763 27.051h17.514v39.795h-17.514z" fill="#ffe06f"/><path d="m17.835 139.2 97.341-50.607v-80.104h-104.306v130.711z" fill="#637180" fill-rule="nonzero"/><path d="m221.551 139.614-79.273-51.199v-79.926h93.306v131.125z" fill="#637180" fill-rule="nonzero"/><path d="m115.176 77.654h27.102v10.761h-27.102z" fill="#adb7bc"/><path d="m115.176 64.906h27.102v12.746h-27.102z" fill="#d2d5df"/></g><g clip-path="url(#b)"><g fill-rule="nonzero"><path d="m131.564 70.179c.01.275 29.252 0 29.252 0v-19.243h-11.775s-2.115-.183-2.851 2.485c-.736 2.667-2.576 5.518-3.496 5.703-.92.184-11.498.033-11.13 11.055" fill="#ef4623"/><path d="m146.19 53.42s3.312-1.196 4.139 1.012c.829 2.207-1.104 4.783-1.104 4.783l-6.53-.092s1.563-.091 3.495-5.703" fill="#c4e7eb"/><path d="m135.657 65.7c-.389.943-1.191 1.508-1.791 1.26-.6-.247-.771-1.213-.381-2.156.39-.944 1.191-1.508 1.791-1.26.601.247.771 1.213.381 2.156" fill="#ffdd18"/></g><path d="m131.564 70.179c.01.275 29.252 0 29.252 0v-19.243h-11.775s-2.115-.183-2.851 2.485c-.736 2.667-2.576 5.518-3.496 5.703-.92.184-11.498.033-11.13 11.055z" fill="none" stroke="#231f20" stroke-width=".49"/><path d="m160.273 70.898h-28.505c-.806 0-1.464-.658-1.464-1.464 0-.805.658-1.463 1.464-1.463h28.505c.805 0 1.464.658 1.464 1.463 0 .806-.659 1.464-1.464 1.464z" fill="#be1e2d" fill-rule="nonzero" stroke="#231f20" stroke-width=".49"/><path d="m147.098 70.179c0 2.721-2.206 4.927-4.927 4.927-2.722 0-4.928-2.206-4.928-4.927 0-2.722 2.206-4.927 4.928-4.927 2.721 0 4.927 2.205 4.927 4.927" fill="#637180" fill-rule="nonzero"/><path d="m147.098 70.179c0-2.72-2.208-4.927-4.927-4.927-2.72 0-4.928 2.207-4.928 4.927 0 2.719 2.208 4.927 4.928 4.927 2.719 0 4.927-2.208 4.927-4.927z" fill="none" stroke="#231f20" stroke-width=".49"/><path d="m144.378 70.179c0 1.219-.988 2.207-2.207 2.207-1.22 0-2.208-.988-2.208-2.207 0-1.22.988-2.208 2.208-2.208 1.219 0 2.207.988 2.207 2.208" fill="#518ea8" fill-rule="nonzero"/></g><g clip-path="url(#c)"><path d="m71.563 112.845v-6.138l8.249 5.128 16.439-2.851v4.834l-16.651 3.325z" fill="#4a5f6e" fill-rule="nonzero"/><path d="m71.563 106.707 13.538-1.922 11.15 4.198-16.439 2.852z" fill="#61829e" fill-rule="nonzero"/><path d="m85.736 8.474h-6.77v98.577c0 .931.756 1.687 1.687 1.687h3.283c.994 0 1.8-.805 1.8-1.8z" fill="#4a5f6e" fill-rule="nonzero"/><path d="m142.278 38.316 14.567 7.917v-14.293l-14.567-3.507z" fill="#54616e" fill-rule="nonzero"/><path d="m142.278 56.674 8.787 4.777.148-11.623-8.935-3.037z" fill="#54616e" fill-rule="nonzero"/><path d="m86.068 25.988c8.659.139 17.316.277 25.975.415.603.01.603-.928 0-.937-8.659-.139-17.316-.277-25.975-.415-.603-.01-.604.927 0 .937" fill="#4a5f6e" fill-rule="nonzero"/><path d="m95.853 29.544c3.973-.066 7.947-.134 11.919-.201.603-.01.605-.947 0-.938-3.972.068-7.946.135-11.919.202-.603.009-.605.948 0 .937" fill="#4a5f6e" fill-rule="nonzero"/><path d="m104.754 22.845c-.409 4.804-.818 9.608-1.228 14.413-.051.6.887.597.938 0 .409-4.805.818-9.609 1.227-14.413.052-.601-.885-.598-.937 0" fill="#4a5f6e" fill-rule="nonzero"/><path d="m100.699 22.848c-.178 1.659-.225 3.317-.143 4.984.032.6.969.604.938 0-.083-1.667-.035-3.325.142-4.984.064-.599-.874-.595-.937 0" fill="#4a5f6e" fill-rule="nonzero"/><path d="m171.047 108.339c-1.249-.794-3.172-.067-3.585 1.355-.098.333-.144.722-.426.923-.282.202-.667.12-1.002.036-1.966-.492-3.986-.761-6.012-.803-.617-.013-1.375.084-1.608.656-.117.285-.061.62-.197.897-.364.742-1.672.432-2.121 1.127-.279.431-.041 1.041.369 1.35.412.31.939.402 1.441.511 1.081.234 2.136.588 3.141 1.049.184.086.38.186.47.37.185.378-.186.772-.348 1.161-.245.589.028 1.296.503 1.721s1.11.621 1.732.759c1.636.361 3.344.391 4.991.09-.047 1.128.361 2.33 1.283 2.981.921.652 2.381.545 3.012-.391.298-.443.383-.993.444-1.523.375-3.285.1-6.607-.175-9.902-.057-.686-.125-1.404-.502-1.981-.376-.577-1.168-.946-1.775-.62" fill="#637180" fill-rule="nonzero"/><path d="m73.478 134.778c13.569-9.415 26.714-19.401 39.423-29.945.465-.386-.202-1.046-.664-.663-12.648 10.493-25.73 20.429-39.232 29.798-.492.342-.024 1.156.473.81" fill="#4a5f6e" fill-rule="nonzero"/><path d="m108.613 121.54c4.862-5.05 9.62-10.196 14.275-15.438.399-.45-.261-1.115-.663-.663-4.655 5.242-9.413 10.388-14.275 15.438-.418.435.243 1.099.663.663" fill="#4a5f6e" fill-rule="nonzero"/><path d="m130.948 109.848c.253 6.943.196 13.875-.171 20.814-.031.603.906.601.938 0 .367-6.939.423-13.871.17-20.814-.021-.602-.959-.605-.937 0" fill="#4a5f6e" fill-rule="nonzero"/><path d="m137.356 106.601c1.318 4.592 2.534 9.208 3.649 13.854.14.586 1.045.338.904-.25-1.114-4.645-2.331-9.262-3.649-13.853-.166-.579-1.071-.333-.904.249" fill="#4a5f6e" fill-rule="nonzero"/><path d="m167.78 75.11 5.44 56.381c0 2.864 8.385 5.185 18.728 5.185 10.344 0 18.728-2.321 18.728-5.185l6.805-56.381z" fill="#61829e" fill-rule="nonzero"/><path d="m164.988 71.22h55.409v9.074h-55.409z" fill="#4a5f6e"/><path d="m203.266 128.207c-.957-.175-1.597-1.102-1.422-2.058l7.093-38.732c.174-.957 1.102-1.595 2.058-1.42.957.175 1.597 1.101 1.421 2.058l-7.092 38.731c-.175.957-1.102 1.597-2.058 1.421" fill="#4a5f6e" fill-rule="nonzero"/><path d="m181.371 128.207c.956-.175 1.597-1.102 1.421-2.058l-7.092-38.732c-.175-.957-1.102-1.595-2.059-1.42s-1.597 1.101-1.421 2.058l7.093 38.731c.174.957 1.101 1.597 2.058 1.421" fill="#4a5f6e" fill-rule="nonzero"/><path d="m192.693 128.558c-.973 0-1.77-.796-1.77-1.769v-39.374c0-.973.797-1.77 1.77-1.77s1.769.797 1.769 1.77v39.374c0 .973-.796 1.769-1.769 1.769" fill="#4a5f6e" fill-rule="nonzero"/><path d="m202.439 73.1h-17.996v-1.404c0-2.028 1.645-3.671 3.672-3.671h10.652c2.027 0 3.672 1.643 3.672 3.671z" fill="#4a5f6e" fill-rule="nonzero"/><path d="m164.988 71.221s.072 10.038 20.71 7.698c20.637-2.34 12.302 12.2 8.764 26.557s10.538 17.606 8.804 22.731c-1.735 5.125-18.822 8.034-18.822 8.034s23.239 2.774 26.232-4.75l6.123-50.729 3.598-.467v-9.074l-17.957.475z" fill="#2f2e4f" fill-rule="nonzero" opacity=".2"/><path d="m205.231 90.089 5.44 56.381c0 2.864 8.385 5.186 18.728 5.186s18.728-2.322 18.728-5.186l6.805-56.381z" fill="#61829e" fill-rule="nonzero"/><path d="m202.439 86.199h55.409v9.073h-55.409z" fill="#4a5f6e"/><path d="m218.822 143.187c.956-.176 1.597-1.102 1.421-2.059l-7.092-38.731c-.175-.957-1.102-1.596-2.059-1.42-.957.174-1.597 1.101-1.421 2.057l7.092 38.731c.175.957 1.102 1.597 2.059 1.422" fill="#4a5f6e" fill-rule="nonzero"/><path d="m230.143 143.537c-.973 0-1.769-.796-1.769-1.77v-39.374c0-.973.796-1.769 1.769-1.769s1.77.796 1.77 1.769v39.374c0 .974-.797 1.77-1.77 1.77" fill="#4a5f6e" fill-rule="nonzero"/><path d="m239.89 88.079h-17.996v-1.403c0-2.029 1.644-3.672 3.671-3.672h10.653c2.027 0 3.672 1.643 3.672 3.672z" fill="#4a5f6e" fill-rule="nonzero"/><path d="m202.439 86.201s.072 10.038 20.71 7.698c20.637-2.34 12.301 12.2 8.764 26.557-3.538 14.357 10.538 17.606 8.803 22.731-1.734 5.125-18.821 8.034-18.821 8.034s23.239 2.773 26.232-4.75l6.123-50.729 3.598-.468v-9.073l-17.957.475z" fill="#2f2e4f" fill-rule="nonzero" opacity=".2"/><path d="m52.628 101.285-5.441 56.381c0 2.864-8.384 5.186-18.728 5.186-10.343 0-18.728-2.322-18.728-5.186l-6.805-56.381z" fill="#61829e" fill-rule="nonzero"/><path d="m.01 97.396h55.409v9.073h-55.409z" fill="#4a5f6e"/><g fill-rule="nonzero"><path d="m17.142 154.383c.956-.176 1.597-1.102 1.421-2.059l-7.092-38.731c-.175-.957-1.102-1.596-2.058-1.421-.958.175-1.597 1.102-1.422 2.058l7.093 38.731c.174.957 1.102 1.597 2.058 1.422" fill="#4a5f6e"/><path d="m39.037 154.383c-.957-.176-1.597-1.102-1.421-2.059l7.092-38.731c.175-.957 1.102-1.596 2.058-1.421.958.175 1.597 1.102 1.422 2.058l-7.093 38.731c-.174.957-1.102 1.597-2.058 1.422" fill="#4a5f6e"/><path d="m27.715 154.734c.973 0 1.77-.796 1.77-1.77v-39.374c0-.973-.797-1.769-1.77-1.769s-1.77.796-1.77 1.769v39.374c0 .974.797 1.77 1.77 1.77" fill="#4a5f6e"/><path d="m17.969 99.275h17.996v-1.403c0-2.029-1.645-3.672-3.672-3.672h-10.652c-2.028 0-3.672 1.643-3.672 3.672z" fill="#4a5f6e"/><path d="m55.42 97.397s-.072 10.038-20.71 7.698c-20.637-2.34-12.302 12.2-8.765 26.557 3.539 14.357-10.537 17.606-8.803 22.731s18.822 8.034 18.822 8.034-23.239 2.773-26.233-4.75l-6.122-50.729-3.598-.468v-9.073l17.957.475z" fill="#2f2e4f" opacity=".2"/><path d="m54.359 86.68c8.176-2.345 16.415-4.424 24.724-6.241.588-.129.339-1.033-.25-.904-8.308 1.817-16.547 3.897-24.723 6.241-.579.166-.333 1.071.249.904" fill="#4a5f6e"/><path d="m62.17 86.611c4.21-.835 8.419-1.671 12.628-2.507.591-.117.341-1.02-.249-.903-4.21.835-8.419 1.671-12.628 2.506-.591.117-.341 1.021.249.904" fill="#4a5f6e"/><path d="m72.217 78.006c.3 3.195.433 6.394.402 9.603-.006.603.932.604.938 0 .03-3.209-.103-6.408-.403-9.603-.055-.596-.994-.602-.937 0" fill="#4a5f6e"/><path d="m68.158 76.579c.076 1.956.152 3.912.229 5.869.024.601.961.604.938 0-.077-1.957-.153-3.913-.229-5.869-.024-.602-.961-.604-.938 0" fill="#4a5f6e"/><path d="m130.606 61.163c.653-.346 1.217-.585 1.713-.924.56-.381.597-.683.33-1.444-.096.102-.185.178-.248.271-.734 1.068-2.062 1.587-3.281 1.28-.51-.128-.594-.255-.574-.816.005-.18.005-.371-.044-.542-.028-.093-.156-.207-.25-.217-.069-.006-.193.123-.229.216-.703 1.848-2.822 2.524-4.434 1.397-.19-.134-.302-.375-.474-.542-.076-.075-.243-.155-.31-.119-.119.06-.276.214-.27.318.019.231.151.452.195.685.043.227.121.507.029.685-.149.291-.47.187-.743.128-.485-.104-.833-.343-.997-.839-.033-.097-.226-.141-.345-.208-.065.126-.181.25-.186.378-.007.177.09.355.105.536.024.303.053.612.015.91-.021.154-.153.332-.286.415-.065.041-.298-.081-.372-.186-.244-.348-.459-.717-.664-1.09-.071-.13-.061-.303-.128-.436-.048-.096-.161-.159-.245-.236-.091.105-.23.196-.264.318-.048.169-.021.363-.025.546-.015.758-.374 1.278-1.092 1.531-.724.257-1.448.446-2.235.221-.444-.127-.592.09-.524.586.038.269.067.556.012.818-.33 1.562-1.063 2.852-2.542 3.614-.189.099-.38.197-.564.306-.047.028-.07.097-.14.202.439.269.525.633.309 1.127-.112.257-.048.591-.066.932-.311-.053-.569-.116-.833-.137-1.023-.085-1.517.185-1.978 1.128-.159.325-.249.686-.34 1.039-.074.281-.22.429-.513.401-.212-.02-.432-.024-.633-.084-.64-.188-.727-.441-.382-1.039.171-.298.112-.449-.213-.51-.27-.052-.545-.074-.812-.131-.99-.212-1.006-.989-.721-1.618.098-.216.281-.396.439-.581.379-.444.4-.535-.1-.706-.501-.173-.563-.482-.525-.919.058-.666.291-1.23.791-1.701.455-.431.417-.606-.189-.798-.88-.279-1.606-.741-2.114-1.521-.172-.264-.342-.563-.115-.845.18-.224.443-.388.69-.545.09-.057.248.008.359-.029.188-.062.459-.117.52-.252.121-.268-.192-.32-.359-.426-.103-.065-.225-.103-.322-.175-.273-.204-.553-.403-.395-.825.167-.449.528-.701.964-.705.306-.003.663.422.88-.006.062-.121-.32-.444-.463-.695-.302-.525-.248-1.063.027-1.578.129-.242.364-.331.629-.236.259.092.501.23.759.319.132.047.385.084.408.037.071-.14.086-.327.067-.489-.021-.179-.127-.347-.155-.527-.041-.269-.092-.55-.059-.815.09-.713.505-.959 1.227-.863.374.05.793.5 1.093.125.168-.212-.004-.687-.009-1.046-.015-1.063 1.103-1.746 2.185-1.339.057.022.11.054.165.08.74.366.738.365 1.016-.36.055-.143.114-.286.191-.417.717-1.204 1.896-1.279 2.763-.179.075.096.115.224.202.305.124.118.274.207.414.308.093-.14.241-.271.268-.423.075-.425.352-.676.718-.747.473-.091.967-.113 1.448-.092.362.015.578.295.734.62.07.148.233.355.347.351.13-.005.322-.192.369-.338.226-.714.781-1.082 1.402-1.364.272-.123.586-.182.886-.202.572-.037.774.123.895.687.064.294.012.683.42.695.337.009.376-.361.455-.612.167-.519.53-.853 1.027-.958.529-.112 1.09-.175 1.626-.13.621.052 1.011.553 1.076 1.187.012.121-.031.258.011.365.072.181.191.344.29.515.159-.115.382-.196.469-.352.338-.605.785-1.011 1.509-1.034.628-.019.904.176 1.027.797.09.45.122.91.197 1.362.074.438.323.548.72.335.026-.015.046-.042.071-.058.933-.551 1.422-.386 1.777.642.253.737.275 1.49.051 2.252-.163.56-.106.544.42.77.613.263 1.212.579 1.76.957.614.423.751 1.038.395 1.694-.244.448-.612.832-.93 1.239-.302.386-.349.55-.028.869.622.622.522 1.337.312 2.054-.101.344-.305.668-.508.972-.515.777-.506.758-.013 1.513.193.297.328.653.4 1 .045.215-.006.525-.141.688-.346.423-.249.762.034 1.154.136.189.232.442.252.673.045.531-.392.842-.886.663-.143-.052-.277-.131-.422-.18-.275-.097-.644-.105-.808-.293-.141-.163-.066-.526-.068-.801-.008-1.036-.426-1.969-.775-2.909-.651-1.748-1.344-3.481-2.522-5.027" fill="#8a573a"/><path d="m105.689 63.438c.248-.18.645-.257.864-.452.368-.029.429-.194.181-.492-.082-.112-.161-.223-.237-.337-.171-.385-.359-.725-.161-1.155.23-.497.739-.471 1.12-.752.848-.626.061-1.442.575-2.109.494-.642 1.373-.586 1.991-.191.091-1.308.039-3.062 1.11-3.893 1.094-.849 2.125-.109 2.716.877.038-1.078.219-2.391 1.066-2.632 1.082-.31 1.521 1.515 1.71 2.532.806-.795 1.729-1.861 2.831-2.035.419-.065.771.045 1.086.314.208.176.316.445.517.622.596.528 1.033.342 1.595.046 1.003-.529 2.002-1.594 3.216-1.585 1.107.008 1.419 1.089 1.576 2.017.22-.089.436-.18.644-.307.051-.031.103-.028.152-.015 1.435-.468 2.958-.155 2.656 1.467 1.25-.621 2.68-.979 3.375-.083.025-.472-.032-.94-.19-1.401-.354-1.027-.843-1.192-1.776-.641-.025.015-.045.043-.071.057-.398.213-.646.104-.721-.335-.075-.452-.106-.912-.196-1.361-.124-.621-.399-.817-1.029-.797-.723.022-1.17.429-1.507 1.033-.087.155-.31.236-.469.353-.1-.171-.219-.334-.29-.516-.042-.106.001-.243-.012-.364-.064-.634-.454-1.136-1.075-1.188-.536-.045-1.097.019-1.626.13-.497.106-.861.439-1.027.958-.079.251-.118.621-.456.613-.408-.012-.355-.403-.419-.696-.121-.563-.324-.724-.895-.686-.3.019-.614.079-.887.202-.62.282-1.176.649-1.401 1.363-.047.147-.239.333-.369.338-.114.005-.277-.202-.348-.351-.156-.326-.371-.604-.734-.62-.481-.02-.975.001-1.447.092-.366.071-.643.321-.718.747-.028.153-.175.283-.269.423-.139-.101-.29-.189-.414-.308-.086-.081-.126-.209-.202-.304-.866-1.101-2.045-1.026-2.763.178-.077.131-.135.275-.19.417-.278.725-.276.726-1.016.361-.056-.028-.108-.059-.165-.08-1.082-.407-2.2.275-2.185 1.339.005.357.176.834.008 1.046-.299.375-.718-.077-1.093-.125-.721-.096-1.137.149-1.227.862-.033.266.019.547.06.815.027.18.134.348.154.527.02.163.005.349-.066.49-.024.047-.277.01-.408-.037-.259-.09-.501-.228-.759-.319-.265-.095-.5-.006-.629.236-.276.514-.329 1.053-.027 1.577.143.25.525.574.462.695-.216.428-.574.003-.88.006-.435.004-.796.256-.963.705-.159.422.122.621.395.826.097.072.219.11.321.174.168.107.48.159.36.426-.061.136-.333.191-.52.252-.111.037-.269-.027-.359.029-.247.158-.511.322-.691.545-.227.283-.056.581.116.844.43.663 1.027 1.088 1.734 1.374-.398-.589-.451-1.201.296-1.741" fill="#9d6343"/><path d="m121.442 68.132c-.021-.215.002-.382-.059-.51-.052-.114-.185-.226-.306-.262-.081-.023-.233.066-.299.148-.198.247-.217 1.053-.029 1.304.062.083.202.154.302.148.097-.005.248-.096.275-.18.07-.227.088-.47.116-.648m5.071-.261c-.049-.49-.06-.837-.417-1.001-.089-.041-.257-.027-.332.033-.286.234-.31.565-.254.904.074.439.367.766.597.624.213-.132.32-.433.406-.56m-6.008-3.421c-.051-.07-.088-.17-.155-.199-.072-.03-.217-.028-.255.019-.485.612-.96 1.233-1.426 1.86-.031.042.032.226.067.23.1.016.251.008.307-.055.461-.523.907-1.059 1.35-1.595.054-.065.071-.161.112-.26m6.38.755c-.083-.19-.095-.296-.155-.349-.552-.481-1.109-.957-1.674-1.423-.049-.041-.186-.032-.241.01-.059.046-.11.163-.096.236.03.143.069.32.168.409.456.404.92.803 1.414 1.159.111.079.351-.02.584-.042m-.946 9.264c-.068-.086-.109-.183-.181-.219-.636-.305-2.203-.008-2.745.527-.071.07-.075.21-.109.317.106.014.242.076.314.033.685-.403 1.427-.464 2.193-.424.12.005.247-.002.357-.042.07-.025.113-.122.171-.192m-.123-4.269c0-.091.007-.183 0-.275-.056-.749-.535-1.311-1.202-1.412-.689-.106-1.579.351-1.834.946-.034.081-.069.186-.047.262.031.106.097.237.186.28.061.03.216-.041.277-.112.116-.137.172-.325.292-.455.291-.315.858-.468 1.168-.316.425.21.609.569.604 1.041-.004.596-.491 1.241-1.097 1.417-.175.051-.369.04-.532.11-.084.036-.148.18-.166.284-.009.05.105.174.166.176.297.011.618.06.887-.03.712-.237 1.304-1.157 1.298-1.916m-6.703-7.827c.424.583.76 1.079 1.413.936.703-.155.555-.854.723-1.333 1.348.273 1.834.571 2.297-.774.353.094.705.194 1.059.281 1.016.249 1.946.044 2.783-.564.397-.288.747-.484 1.216-.106.2.16.516.245.777.24.541-.008.799.284 1.08.694 1.317 1.921 2.151 4.06 2.735 6.281.352 1.335.217 2.718-.151 4.076-.373 1.376-1.203 2.371-2.319 3.195-1.686 1.245-3.574 1.966-5.625 2.34-1.248.228-2.48.208-3.738.102-1.281-.109-2.558-.19-3.813-.493-1.275-.308-2.413-.876-3.397-1.741-.394-.345-.749-.725-.833-1.28-.019-.119-.055-.243-.117-.346-.783-1.33-.842-2.764-.682-4.253.048-.446.19-.723.556-.962.984-.644 1.612-1.58 2.008-2.667.145-.394.209-.827.253-1.249.068-.661.048-.652.751-.704.365-.026.727-.089 1.085-.156.857-.16 1.561-.542 1.939-1.517" fill="#fedcc4"/><path d="m121.442 68.132c-.021-.215.002-.382-.059-.51-.052-.114-.185-.226-.306-.262-.081-.023-.233.066-.299.148-.198.247-.217 1.053-.029 1.304.062.083.202.154.302.148.097-.005.248-.096.275-.18.07-.227.088-.47.116-.648m5.071-.261c-.049-.49-.06-.837-.417-1.001-.089-.041-.257-.027-.332.033-.286.234-.31.565-.254.904.074.439.367.766.597.624.213-.132.32-.433.406-.56m-6.008-3.421c-.051-.07-.088-.17-.155-.199-.072-.03-.217-.028-.255.019-.485.612-.96 1.233-1.426 1.86-.031.042.032.226.067.23.1.016.251.008.307-.055.461-.523.907-1.059 1.35-1.595.054-.065.071-.161.112-.26m6.38.755c-.083-.19-.095-.296-.155-.349-.552-.481-1.109-.957-1.674-1.423-.049-.041-.186-.032-.241.01-.059.046-.11.163-.096.236.03.143.069.32.168.409.456.404.92.803 1.414 1.159.111.079.351-.02.584-.042m-.946 9.264c-.068-.086-.109-.183-.181-.219-.636-.305-2.203-.008-2.745.527-.071.07-.075.21-.109.317.106.014.242.076.314.033.685-.403 1.427-.464 2.193-.424.12.005.247-.002.357-.042.07-.025.113-.122.171-.192m-.123-4.269c0-.091.007-.183 0-.275-.056-.749-.535-1.311-1.202-1.412-.689-.106-1.579.351-1.834.946-.034.081-.069.186-.047.262.031.106.097.237.186.28.061.03.216-.041.277-.112.116-.137.172-.325.292-.455.291-.315.858-.468 1.168-.316.425.21.609.569.604 1.041-.004.596-.491 1.241-1.097 1.417-.175.051-.369.04-.532.11-.084.036-.148.18-.166.284-.009.05.105.174.166.176.297.011.618.06.887-.03.712-.237 1.304-1.157 1.298-1.916m-6.703-7.827c.424.583.76 1.079 1.413.936.703-.155.555-.854.723-1.333 1.348.273 1.834.571 2.297-.774.353.094.705.194 1.059.281 1.016.249 1.946.044 2.783-.564.397-.288.747-.484 1.216-.106.2.16.516.245.777.24.541-.008.799.284 1.08.694 1.317 1.921 2.151 4.06 2.735 6.281.352 1.335.217 2.718-.151 4.076-.373 1.376-1.203 2.371-2.319 3.195-1.686 1.245-3.574 1.966-5.625 2.34-1.248.228-2.48.208-3.738.102-1.281-.109-2.558-.19-3.813-.493-1.275-.308-2.413-.876-3.397-1.741-.394-.345-.749-.725-.833-1.28-.019-.119-.055-.243-.117-.346-.783-1.33-.842-2.764-.682-4.253.048-.446.19-.723.556-.962.984-.644 1.612-1.58 2.008-2.667.145-.394.209-.827.253-1.249.068-.661.048-.652.751-.704.365-.026.727-.089 1.085-.156.857-.16 1.561-.542 1.939-1.517" fill="#fedcc4"/><path d="m120.393 64.71c-.443.536-.889 1.072-1.35 1.595-.055.063-.207.071-.306.055-.036-.004-.099-.188-.068-.23.466-.627.941-1.248 1.426-1.86.038-.047.183-.049.255-.019.066.029.103.129.155.199-.041.098-.057.195-.112.26m12.803 3.318c-.584-2.221-1.418-4.36-2.734-6.281-.283-.41-.54-.702-1.081-.694-.26.005-.578-.08-.777-.24-.47-.378-.819-.182-1.216.106-.836.608-1.766.813-2.783.564-.355-.088-.706-.187-1.059-.281-.463 1.345-.949 1.047-2.298.774-.168.478-.019 1.178-.722 1.333-.654.142-.99-.353-1.413-.937-.378.975-1.082 1.357-1.939 1.518-.358.067-.721.129-1.085.156-.703.052-.683.043-.751.704-.044.421-.108.855-.253 1.249-.396 1.087-1.023 2.023-2.008 2.667-.366.239-.509.516-.556.962-.161 1.489-.101 2.923.683 4.253.061.103.097.227.115.346.084.555.44.935.834 1.28.643.565 1.357.99 2.126 1.312-1.288-1.689-2.02-3.703-1.84-5.859.011-.127.107-.212.236-.202.898.074 1.821.131 2.35-.739.244-.402.39-.871.515-1.321.229-.821.344-1.669.503-2.505.042-.218.35-.154.435-.01 1.101 1.86 2.839.376 4.084-.457.854-.571 1.797-1.031 2.812-1.219-.163-.139-.327-.277-.486-.419-.1-.09-.139-.266-.168-.409-.015-.073.035-.19.095-.236.055-.042.193-.051.241-.01.394.324.778.658 1.164.99 1.837 0 3.418 1.176 4.41 2.693 1.754 2.684 1.616 6.365-.559 8.605.219-.141.442-.266.655-.422 1.117-.824 1.946-1.82 2.319-3.195.368-1.358.504-2.741.151-4.076" fill="#fdcda6"/><path d="m128.15 91.582c0 .248.033.429-.005.593-.186.803-.408 1.597-.585 2.4-.128.578-.377 1.175.081 1.799.556-.549 1.303-.577 1.964-.83.259-.099.447.071.401.328-.119.655-.281 1.304-.436 1.952-.019.082-.086.182-.158.218-.679.338-1.336.77-2.056.967-.821.225-1.567-.139-2.108-.8-.289-.351-.517-.757-.743-1.154-.408-.717-.781-1.454-1.196-2.167-.176-.301-.422-.561-.667-.881-.074.156-.133.236-.118.256.55.665.453 1.412.289 2.171-.308 1.431-.682 2.852-.903 4.298-.255 1.691-.329 3.401.152 5.083.132.463.035.656-.425.67-.444.015-.923.146-1.326-.186-.047-.038-.11-.108-.149-.098-.84.193-1.254-.474-1.793-.883-.414-.314-.834-.622-1.23-.956-.121-.102-.263-.293-.246-.426.293-2.387.33-4.828 1.192-7.108.66-1.74 1.444-3.435 2.201-5.137.242-.541.277-.47.935-.35 1.35.246 2.706.461 4.066.634.946.121 1.873-.101 2.863-.393" fill="#c39a6b"/><path d="m129.255 100.903c.061.01.125.039.18.025.166-.04.421-.05.471-.155.117-.242-.138-.297-.305-.318-.439-.058-.295-.483-.47-.703-.286-.365.025-.52.246-.732.741-.709 1.059-1.621 1.199-2.609.026-.181.009-.368.018-.55.013-.276.166-.364.428-.331.937.116 1.571.757 1.579 1.717.005.635-.07 1.28-.182 1.908-.193 1.078-.374 2.161-.834 3.177-.432.952-1.063 1.627-2.139 1.797-.75.118-1.497.304-2.251.343-.844.044-.992-.187-1.027-1.016-.025-.598.178-1.069.591-1.479.691-.687 1.437-1.241 2.496-1.074" fill="#f15a29"/><path d="m119.341 109.818c-1.439.12-2.791.084-4.15-.195-2.097-.432-3.899-1.377-5.433-2.87-.658-.638-1.379-1.213-1.836-2.03-.234-.417-.16-.569.325-.541 1.165.067 2.286.347 3.394.718 1.969.66 3.674 1.782 5.355 2.957.451.315.92.606 1.367.927.365.262.743.521.978 1.034" fill="#b3c7e7"/><path d="m108.012 103.47c.279-.11.466-.218.666-.257 1.511-.293 3.02-.462 4.52.087.63.232 1.274.422 1.907.649 1.315.47 2.458 1.211 3.458 2.19.256.252.608.404.891.633.205.166.459.352.535.58.201.606.193 1.236.005 1.852-1.212-.834-2.398-1.625-3.556-2.453-2.434-1.737-5.101-2.861-8.097-3.146-.078-.008-.151-.061-.329-.135" fill="#f15a29"/><path d="m121.507 85.092c.073.375.133.692-.206 1.004-.38.349-.36.417.128.524.338.076.345.219.179.424-.13.159-.318.278-.493.391-.237.151-.256.269-.063.504.208.253.12.463-.173.479-.651.038-1.291-.012-1.792-.514-.505-.506-.944-1.058-1.022-1.8-.077-.727-.142-1.456-.161-2.186-.006-.224.123-.47.247-.672.114-.184.291-.314.532-.115.603.5 1.28.517 1.983.261.223-.08.457-.125.557.113.084.203.142.506.05.673-.142.252-.431.418-.643.634-.055.055-.098.174-.076.239.022.066.135.149.203.145.237-.013.471-.062.75-.104" fill="#fedcc4"/><path d="m128.192 87.878c-.157-.058-.325-.095-.468-.177-.208-.119-.425-.244-.586-.415-.224-.237-.132-.443.194-.487.119-.018.26.031.36-.016.118-.055.204-.182.304-.278-.079-.081-.146-.19-.241-.235-.163-.081-.353-.105-.518-.181-.257-.12-.437-.305-.413-.686.236.053.434.136.628.127.152-.007.301-.127.451-.197-.093-.103-.172-.222-.28-.303-.095-.07-.233-.08-.331-.146-.301-.205-.451-.48-.368-.804.597.061 1.154.129 1.712.169.334.024.49-.147.499-.499.006-.186.072-.465.2-.531.267-.14.565.009.714.248.173.275.355.6.365.91.032.945.034 1.896-.045 2.839-.133 1.614-1.599 1.89-2.97 1.211-.038-.02-.042-.107-.08-.207.29-.051.572-.101.853-.151.007-.063.014-.127.02-.191" fill="#fedcc4"/><path d="m127.258 89.216c-2.008.736-3.981.382-6.035-.05.596-.756.78-1.623 1.093-2.437.038-.1.229-.228.32-.207 1.142.255 2.303.291 3.467.277.246-.003.391.094.441.358.055.297.143.59.243.874.128.365.284.718.471 1.185" fill="#fff"/><path d="m123.181 84.44c-.152 0-.305.002-.457 0-.682-.013-.658-.021-.892-.709-.101-.303-.322-.565-.493-.843-.091-.148-.239-.279-.275-.438-.087-.379.093-.576.48-.558.212.009.423.051.632.091 1.264.245 2.536.3 3.818.201.492-.038.811.244.703.71-.088.379-.236.752-.416 1.097-.065.121-.3.192-.467.213-.874.103-1.753.183-2.629.271-.002-.012-.003-.023-.004-.035" fill="#fff"/><path d="m120.379 89.319c1.502.531 3.048.845 4.644.803 1.067-.029 2.125-.186 3.073-.735.231-.132.448-.214.674-.037.207.164.221.565.015.836-.466.619-1.14.956-1.871 1.045-1.897.232-3.767-.007-5.606-.513-.088-.023-.173-.059-.256-.097-.731-.334-.901-.326-.673-1.302" fill="#08a3de"/><path d="m111.883 72.633c-.641-.17-1.216-.086-1.628.474-.088.119-.15.266-.186.41-.015.061.06.158.119.216.026.026.109.001.166-.011.026-.006.052-.029.074-.051.305-.317.651-.665 1.104-.384.513.32 1.006.713 1.19 1.34.09.304-.152.446-.378.54-.831.344-1.628.241-2.33-.302-.926-.717-1.053-1.873-.359-2.848.4-.563.839-.762 1.411-.59.554.168.854.545.817 1.206" fill="#fedcc4"/><path d="m130.061 80.744c-.627-.615-1.114-1.062-1.563-1.543-.707-.761-2.173-.883-2.969-.222-.154-.755-.148-.795.485-.936.981-.222 1.959-.45 2.855-.93.295-.158.525-.093.701.18.098.153.204.308.261.478.304.907.216 1.834.23 2.973" fill="#fbb040"/><path d="m125.47 79.654c.571.481.647 1.136.842 1.728.023.071-.074.235-.156.276-.131.066-.295.084-.445.088-1.373.028-2.744.015-4.103-.233-.305-.054-.435-.2-.371-.496.066-.296.131-.597.242-.878.129-.323.461-.406.751-.206.123.084.209.219.324.317.935.793 1.822.716 2.622-.226.094-.11.181-.226.294-.37" fill="#08a3de"/><path d="m121.828 84.842c.524 0 .981.021 1.436-.005.823-.047 1.642-.128 2.465-.185.568-.04.653.05.601.594-.03.324-.054.648-.085 1.018-1.248.07-2.492.05-3.736-.145-.292-.045-.437-.188-.498-.451-.057-.238-.107-.477-.183-.826" fill="#08a3de"/><path d="m126.243 79.252c1.154-.303 1.772-.005 2.001 1.119.18.888.206 1.808.291 2.713.024.267-.04.496-.374.503-.295.007-.63.101-.722-.34-.076-.356-.154-.715-.261-1.063-.304-.98-.623-1.955-.935-2.932" fill="#fbb040"/><path d="m119.165 81.739c.057-.516.087-1.035.174-1.545.13-.759 1.014-1.264 1.737-1.013.198.07.282.196.158.42-.438.795-.546 1.669-.6 2.56-.038.646-.201.805-.742.818-.554.014-.679-.112-.681-.684-.001-.184 0-.368 0-.551-.016-.002-.03-.004-.046-.005" fill="#fbb040"/><path d="m133.993 74.173c-.121 0-.244.009-.364-.001-.489-.043-.579-.171-.427-.647.101-.319.214-.636.362-.935.217-.44.49-.488.86-.187.071.058.129.13.192.197.126.131.279.319.429.091.067-.103.024-.379-.071-.469-.211-.198-.474-.353-.739-.48-.323-.155-.441-.417-.288-.787.121-.296.352-.284.607-.204.814.255 1.321 1.114 1.171 1.995-.138.826-.864 1.426-1.732 1.427" fill="#fedcc4"/><path d="m117.564 80.825c-.303-.851-.272-1.578-.17-2.294.07-.486.265-.587.782-.531.729.078 1.455.183 2.185.261.516.056 1.033.087 1.55.126.244.018.422.1.385.387-.013.086-.037.199-.098.242-.051.036-.188.017-.24-.03-.851-.746-1.692-.486-2.534.009-.104.062-.19.158-.297.213-1.018.51-1.019.509-1.563 1.617" fill="#fbb040"/><path d="m123.87 78.405c.84-.021 1 .169.838.997-.122.619-.891.961-1.439.629-.095-.059-.172-.166-.224-.268-.038-.076-.014-.18-.03-.27-.19-1.083-.262-1.098.855-1.088" fill="#fedcc4"/><path d="m130.125 82.734c-.143-.023-.232-.032-.318-.053-.653-.159-.649-.16-.714-.802-.045-.444-.101-.887-.158-1.379 1.013.668 1.306 1.211 1.19 2.234" fill="#08a3de"/><path d="m130.907 88.04c.021.57.076.987.041 1.397-.059.678-.398.836-1.002.51-.501-.27-.513-.578-.071-.933.305-.245.572-.536 1.032-.974" fill="#fedcc4"/><path d="m117.887 87.656c.626.452 1.164.835 1.693 1.231.083.064.192.227.163.278-.059.115-.187.246-.307.268-.942.176-1.475-.24-1.547-1.187-.015-.178-.002-.359-.002-.59" fill="#fedcc4"/><path d="m118.854 79.998c-.07.688-.143 1.376-.211 2.064-.025.264-.185.366-.428.365-.327 0-.286-.252-.292-.455-.022-.778.137-1.49.727-2.035.067.021.137.04.204.061" fill="#08a3de"/><path d="m125.817 70.2c.006.759-.587 1.679-1.298 1.916-.269.09-.591.04-.887.029-.062-.002-.176-.126-.167-.175.018-.104.082-.248.166-.285.163-.068.358-.058.533-.109.606-.176 1.092-.821 1.097-1.417.005-.473-.18-.831-.604-1.04-.311-.152-.878 0-1.169.314-.12.13-.175.32-.292.455-.06.072-.215.144-.278.113-.088-.043-.154-.174-.184-.28-.024-.077.012-.18.047-.261.254-.596 1.144-1.053 1.834-.947.666.101 1.144.664 1.201 1.413.008.09.001.182.001.274" fill="#231f20"/><path d="m125.94 74.468c-.06.07-.102.167-.172.191-.109.041-.237.049-.356.042-.766-.038-1.509.022-2.193.425-.072.043-.208-.019-.314-.032.034-.108.038-.248.109-.318.542-.535 2.108-.832 2.743-.527.074.035.115.134.183.219" fill="#231f20"/><path d="m126.885 65.205c-.232.021-.473.122-.585.042-.493-.356-.957-.754-1.412-1.159-.1-.089-.14-.266-.168-.408-.015-.074.035-.191.096-.237.054-.042.192-.051.241-.01.564.466 1.121.942 1.674 1.424.058.052.072.158.154.348" fill="#231f20"/><path d="m120.506 64.45c-.041.098-.059.193-.112.26-.444.536-.889 1.072-1.35 1.594-.057.064-.207.071-.308.056-.035-.006-.097-.188-.066-.23.466-.628.94-1.248 1.426-1.861.038-.047.182-.048.255-.018.066.028.103.129.155.199" fill="#231f20"/><path d="m126.514 67.871c-.086.127-.193.428-.406.56-.231.142-.524-.185-.597-.624-.057-.339-.033-.669.253-.904.075-.06.242-.074.332-.033.357.164.367.512.418 1.001" fill="#231f20"/><path d="m121.442 68.132c-.028.178-.046.421-.116.648-.027.084-.178.175-.275.18-.1.006-.24-.065-.302-.148-.188-.251-.169-1.057.029-1.304.066-.082.218-.171.299-.148.121.036.254.148.306.262.061.128.038.295.059.51" fill="#231f20"/><path d="m117.55 77.247s4.703 1.629 11.319-.134c0 0 1.996.411 1.565 4.504-.43 4.094-.108.058-4.122-.236-4.016-.294-5.3 2.032-3.677 5.14 1.623 3.107-.479 4.47-1.414 4.82s5.595 1.378 6.929.241c0 0 1.385 3.719-2.704 2.435-4.091-1.285-2.138.87-2.138.87s-1.976 7.579-.68 10.975c0 0-.697 1.479-1.935 1.194-1.24-.284-2.025-1.479-1.11-6.617.916-5.138.805-7.284.214-8.87 0 0 .102-1.273-.109-1.416l-.21-.145s2.84-2.494 1.861-7.12c0 0-.056-1.032-2.001-2.694-1.944-1.663-1.788-2.947-1.788-2.947" fill="#603812" opacity=".2"/><path d="m118.854 79.998c-.067-.021-.137-.04-.204-.061-.59.545-.749 1.257-.727 2.035.006.203-.035.455.292.455.243.001.403-.101.428-.365.068-.688.141-1.376.211-2.064m-.967 7.658c0 .232-.013.413.002.59.072.948.606 1.363 1.547 1.188.12-.023.248-.154.308-.269.027-.051-.08-.215-.163-.277-.53-.397-1.069-.779-1.694-1.232m13.02.384c-.46.438-.726.729-1.032.974-.442.355-.43.663.07.934.605.325.945.168 1.003-.511.035-.409-.021-.826-.041-1.397m-.782-5.306c.116-1.022-.177-1.567-1.19-2.233.057.491.113.934.158 1.379.065.641.061.642.714.802.085.02.175.029.318.052m-6.255-4.329c-1.117-.01-1.046.006-.856 1.088.016.09-.008.195.031.271.051.101.128.21.224.267.548.332 1.317-.01 1.439-.629.162-.828.002-1.017-.838-.997m-6.306 2.42c.543-1.108.544-1.106 1.561-1.617.109-.055.195-.15.299-.212.841-.496 1.683-.756 2.534-.01.051.047.189.066.24.03.059-.042.085-.156.097-.242.038-.287-.14-.368-.384-.386-.517-.038-1.035-.071-1.55-.126-.73-.079-1.456-.184-2.185-.262-.518-.056-.712.045-.782.532-.104.715-.133 1.444.17 2.293m16.429-6.652c.868-.001 1.594-.601 1.733-1.427.149-.881-.358-1.741-1.172-1.995-.255-.081-.486-.092-.607.204-.153.371-.035.632.288.787.265.127.528.281.74.48.094.089.137.367.07.469-.149.228-.303.04-.429-.092-.063-.066-.121-.138-.192-.195-.37-.303-.643-.255-.86.185-.148.299-.26.617-.362.935-.152.477-.061.605.427.648.12.009.243.001.364.001m-14.828 7.565c.015.002.031.004.045.005 0 .184-.001.367 0 .551.002.573.127.698.681.685.541-.014.704-.172.742-.819.054-.891.162-1.765.602-2.56.123-.224.04-.35-.159-.418-.723-.252-1.608.252-1.738 1.012-.087.51-.117 1.029-.173 1.544m7.078-2.486c.313.976.632 1.952.934 2.933.109.347.187.706.262 1.062.093.442.428.348.722.341.334-.008.398-.237.374-.503-.085-.906-.11-1.825-.291-2.714-.228-1.124-.847-1.422-2.001-1.119m-4.415 5.59c.076.349.126.588.181.826.063.263.207.405.499.451 1.245.195 2.489.215 3.737.145.031-.37.055-.695.085-1.018.052-.544-.033-.635-.602-.595-.822.058-1.642.139-2.465.186-.454.026-.911.005-1.435.005m3.641-5.189c-.113.144-.2.261-.292.37-.801.942-1.688 1.019-2.624.227-.115-.098-.201-.232-.324-.317-.29-.2-.622-.118-.75.206-.111.281-.176.582-.242.879-.065.294.066.44.371.496 1.359.247 2.73.259 4.103.231.15-.003.314-.021.445-.087.082-.041.179-.206.156-.277-.195-.591-.271-1.246-.843-1.728m4.592 1.091c-.013-1.139.075-2.067-.23-2.973-.057-.17-.163-.326-.261-.479-.176-.272-.405-.337-.701-.179-.896.48-1.873.708-2.855.93-.632.141-.638.181-.485.936.796-.661 2.262-.539 2.97.222.448.482.935.927 1.562 1.543m-18.178-8.112c.037-.661-.262-1.038-.817-1.206-.572-.172-1.011.028-1.411.59-.694.976-.567 2.131.359 2.848.702.543 1.499.647 2.33.303.226-.094.468-.237.379-.54-.185-.627-.678-1.021-1.191-1.34-.453-.281-.798.066-1.104.384-.021.021-.048.045-.074.05-.057.012-.14.037-.166.011-.059-.057-.134-.154-.119-.216.036-.143.098-.291.186-.41.412-.559.987-.643 1.628-.474m8.496 16.687c-.228.975-.057.967.673 1.301.083.039.168.075.256.098 1.839.506 3.709.744 5.607.513.73-.089 1.403-.426 1.871-1.045.205-.272.19-.672-.017-.836-.224-.178-.443-.096-.673.037-.949.549-2.006.706-3.074.734-1.595.042-3.141-.271-4.643-.802m2.802-4.879c.001.012.002.023.004.035.876-.088 1.754-.168 2.629-.272.167-.019.403-.092.466-.213.182-.344.328-.716.416-1.095.109-.467-.211-.749-.702-.711-1.281.098-2.555.044-3.819-.201-.208-.04-.419-.082-.631-.091-.387-.019-.567.179-.48.557.036.159.185.291.275.439.171.278.391.541.494.843.233.688.21.697.891.709.152.002.304 0 .457 0m4.077 4.775c-.187-.467-.342-.82-.471-1.184-.1-.285-.188-.578-.243-.874-.05-.264-.195-.362-.441-.359-1.165.015-2.324-.021-3.468-.277-.09-.02-.28.108-.318.207-.314.815-.498 1.682-1.094 2.437 2.054.433 4.028.787 6.035.05m.934-1.338c-.006.065-.012.128-.019.193-.282.048-.564.098-.854.149.037.101.042.187.08.207 1.37.68 2.836.403 2.97-1.211.078-.941.076-1.894.045-2.839-.011-.309-.191-.635-.364-.909-.15-.239-.448-.389-.716-.248-.127.066-.194.346-.199.531-.009.352-.165.523-.498.498-.56-.04-1.116-.108-1.712-.169-.083.324.065.599.367.804.097.066.236.076.331.146.108.081.187.201.28.303-.151.07-.299.191-.451.198-.194.008-.393-.075-.629-.128-.022.381.156.567.414.686.165.076.355.102.518.181.095.047.161.155.24.235-.099.096-.185.224-.303.279-.1.047-.241-.002-.36.015-.325.044-.418.25-.194.487.161.172.377.296.585.415.144.082.311.12.469.177m-6.685-2.785c-.279.042-.513.091-.75.104-.068.004-.18-.079-.203-.145-.021-.067.022-.185.075-.239.213-.216.502-.382.644-.634.093-.167.034-.47-.05-.673-.099-.238-.334-.193-.557-.113-.703.256-1.38.239-1.983-.261-.24-.2-.419-.069-.531.115-.124.202-.254.448-.248.672.019.73.085 1.459.161 2.185.077.743.517 1.295 1.022 1.801.501.502 1.141.552 1.792.514.293-.017.381-.226.173-.48-.192-.234-.174-.352.063-.503.176-.114.363-.233.492-.391.167-.205.159-.349-.178-.424-.488-.108-.508-.175-.128-.524.339-.312.28-.629.206-1.004m-13.495 18.377c.178.075.251.127.329.135 2.997.285 5.663 1.41 8.097 3.147 1.159.827 2.345 1.618 3.556 2.452.188-.615.196-1.245-.005-1.852-.076-.228-.33-.414-.535-.579-.284-.228-.634-.381-.891-.632-.999-.981-2.143-1.721-3.458-2.192-.632-.227-1.277-.417-1.907-.648-1.5-.549-3.008-.38-4.52-.087-.2.039-.386.146-.666.256m11.329 6.349c-.235-.512-.613-.772-.977-1.034-.448-.321-.916-.611-1.367-.927-1.681-1.174-3.386-2.298-5.355-2.957-1.109-.371-2.23-.65-3.395-.719-.484-.028-.558.125-.325.541.457.818 1.179 1.393 1.836 2.032 1.534 1.491 3.336 2.437 5.434 2.868 1.358.28 2.711.316 4.149.196m9.914-8.915c-1.059-.167-1.804.387-2.495 1.074-.414.41-.617.881-.592 1.48.035.829.183 1.059 1.027 1.015.754-.039 1.501-.225 2.252-.343 1.074-.169 1.706-.844 2.138-1.797.461-1.015.641-2.099.835-3.177.112-.627.185-1.273.181-1.908-.008-.959-.642-1.601-1.58-1.717-.261-.032-.415.055-.427.331-.008.183.007.369-.018.55-.141.988-.458 1.9-1.199 2.61-.22.211-.532.366-.246.731.175.221.032.646.47.703.167.021.422.076.305.318-.05.105-.306.116-.472.156-.054.013-.119-.016-.179-.026m-1.105-9.322c-.99.292-1.917.514-2.863.394-1.361-.174-2.716-.388-4.066-.634-.658-.12-.693-.191-.934.35-.759 1.701-1.541 3.396-2.202 5.137-.863 2.279-.899 4.721-1.193 7.108-.016.132.125.324.246.425.397.335.817.643 1.232.957.539.408.952 1.076 1.793.882.039-.009.1.061.147.1.403.331.883.199 1.327.185.459-.014.557-.208.424-.67-.479-1.682-.407-3.392-.15-5.084.219-1.445.594-2.866.902-4.297.164-.759.26-1.507-.289-2.172-.016-.019.044-.099.118-.255.245.32.491.579.667.88.414.713.787 1.45 1.196 2.168.226.398.455.802.743 1.154.541.661 1.286 1.024 2.107.799.72-.197 1.377-.629 2.057-.966.072-.037.139-.136.158-.218.155-.649.318-1.296.436-1.952.047-.257-.143-.427-.401-.329-.661.253-1.409.283-1.964.831-.459-.624-.21-1.22-.082-1.799.178-.804.399-1.598.586-2.4.038-.164.005-.345.005-.594m-9.036-29.209c-.379.975-1.083 1.357-1.94 1.517-.358.067-.721.13-1.085.156-.703.052-.682.043-.751.704-.044.422-.108.855-.252 1.249-.397 1.087-1.024 2.023-2.009 2.668-.366.24-.508.515-.555.962-.16 1.489-.102 2.923.682 4.253.061.102.097.226.116.345.084.555.439.935.834 1.281.983.865 2.121 1.432 3.396 1.74 1.255.304 2.533.385 3.813.493 1.258.107 2.49.126 3.738-.101 2.051-.375 3.94-1.095 5.625-2.34 1.117-.825 1.946-1.82 2.319-3.196.368-1.357.504-2.74.152-4.075-.585-2.222-1.419-4.361-2.735-6.282-.281-.409-.54-.702-1.081-.693-.26.004-.577-.081-.777-.24-.469-.378-.818-.183-1.216.105-.836.609-1.766.814-2.782.565-.355-.087-.707-.188-1.059-.282-.464 1.345-.95 1.047-2.298.774-.168.479-.019 1.179-.723 1.333-.653.143-.989-.353-1.412-.936m11.491-1.21c1.178 1.546 1.871 3.28 2.522 5.028.351.94.768 1.872.775 2.909.002.275-.073.637.069.8.164.189.532.197.808.293.144.05.279.129.421.181.494.179.931-.131.887-.663-.02-.232-.116-.484-.252-.673-.282-.392-.381-.731-.033-1.154.134-.163.184-.473.139-.688-.072-.348-.207-.703-.4-1-.493-.755-.502-.737.015-1.514.202-.304.406-.627.507-.972.21-.716.309-1.431-.313-2.053-.319-.319-.273-.483.028-.869.319-.408.686-.791.93-1.24.357-.654.219-1.27-.394-1.693-.548-.378-1.148-.695-1.76-.957-.527-.227-.583-.21-.42-.771.223-.761.202-1.515-.052-2.252-.354-1.026-.844-1.191-1.776-.641-.026.015-.044.043-.072.057-.396.213-.645.104-.719-.334-.076-.452-.108-.913-.197-1.361-.124-.621-.399-.817-1.028-.797-.724.022-1.171.428-1.509 1.032-.087.156-.309.237-.468.353-.099-.171-.218-.334-.29-.515-.042-.107.001-.243-.011-.364-.065-.634-.456-1.136-1.077-1.189-.535-.045-1.096.019-1.626.131-.496.104-.86.438-1.025.957-.079.251-.119.622-.456.612-.408-.011-.356-.401-.42-.694-.121-.565-.323-.725-.896-.688-.299.02-.614.081-.885.204-.622.281-1.176.648-1.403 1.363-.047.145-.238.332-.369.338-.113.005-.276-.203-.347-.351-.156-.326-.372-.604-.733-.62-.482-.02-.976 0-1.447.092-.367.071-.645.321-.719.746-.028.152-.176.283-.269.424-.139-.102-.29-.191-.414-.308-.087-.082-.127-.209-.202-.304-.866-1.101-2.046-1.026-2.763.177-.077.131-.136.276-.19.418-.279.725-.277.725-1.017.361-.055-.028-.107-.059-.164-.08-1.083-.408-2.199.275-2.186 1.338.005.358.177.834.009 1.046-.3.375-.718-.076-1.093-.126-.72-.095-1.136.15-1.226.864-.033.265.018.546.059.815.028.179.133.348.155.527.018.162.005.349-.068.49-.022.047-.276.009-.408-.037-.258-.091-.5-.229-.759-.321-.263-.094-.5-.005-.628.237-.276.515-.329 1.052-.028 1.578.145.25.525.573.464.694-.218.428-.574.003-.881.006-.436.005-.797.256-.964.706-.157.422.122.621.396.824.096.073.218.111.322.175.167.107.479.159.359.426-.061.137-.333.191-.52.253-.112.037-.27-.028-.36.029-.247.158-.509.321-.69.544-.227.282-.056.581.115.845.508.78 1.235 1.242 2.114 1.522.607.192.645.367.189.797-.5.471-.733 1.036-.79 1.703-.038.436.024.746.524.918.5.171.481.262.1.707-.157.183-.341.363-.438.579-.285.63-.27 1.407.72 1.619.268.057.543.079.813.13.325.061.384.214.213.512-.345.596-.258.849.381 1.038.202.059.421.064.633.084.294.028.44-.12.513-.401.092-.352.182-.715.341-1.039.462-.943.954-1.214 1.977-1.129.264.022.523.084.833.137.018-.341-.045-.674.066-.932.217-.494.131-.857-.309-1.126.071-.105.093-.174.14-.203.184-.108.375-.207.564-.305 1.479-.761 2.212-2.051 2.542-3.615.056-.261.026-.549-.011-.817-.069-.496.079-.713.523-.586.787.224 1.511.035 2.236-.222.717-.253 1.076-.771 1.092-1.53.004-.184-.024-.376.024-.547.034-.121.174-.212.266-.317.083.078.197.14.245.235.065.134.055.306.127.436.205.373.42.743.664 1.09.073.107.307.227.372.187.134-.083.264-.261.285-.414.038-.299.011-.609-.015-.911-.013-.181-.112-.359-.104-.536.005-.129.12-.253.185-.379.12.069.313.112.345.208.164.497.513.735.997.839.275.06.595.164.743-.128.092-.177.014-.458-.029-.684-.044-.234-.176-.453-.193-.686-.008-.103.149-.257.268-.318.068-.034.235.045.311.119.172.168.283.408.475.542 1.611 1.128 3.729.451 4.433-1.396.035-.093.159-.222.229-.215.094.008.222.123.25.216.049.171.05.361.044.542-.021.56.063.687.573.815 1.22.308 2.547-.212 3.281-1.279.065-.093.153-.168.248-.272.267.762.23 1.064-.33 1.445-.496.338-1.059.578-1.713.923m-.741 15.518c.95 1.012.704 2.309.858 3.502.109.845.045 1.712.077 2.569.047 1.25.08 2.501.181 3.747.044.541.224 1.075.373 1.604.154.545.194 1.077.014 1.624-.239.726-.488.878-1.219.739-.221-.043-.543-.129-.664-.02-.286.253-.667.604-.678.927-.043 1.337-.46 2.578-.815 3.838-.007.026.014.058.039.154.159-.016.33-.023.498-.05.75-.122 1.495-.286 2.249-.368 1.273-.139 2.358.807 2.399 2.094.058 1.826-.307 3.588-.924 5.298-.472 1.302-1.328 2.155-2.745 2.424-.844.16-1.677.365-2.54.286-.298-.027-.623-.08-.87-.23-.208-.126-.423-.394-.456-.626-.172-1.183.037-2.241 1.072-3.028.596-.454 1.235-.776 2.026-.913-.091-.191-.163-.317-.213-.451-.15-.41-.388-.423-.787-.296-1.146.364-2.11-.035-2.876-.897-.32-.36-.535-.816-.782-1.237-.169-.286-.314-.588-.527-.994-.115.226-.204.337-.23.461-.332 1.553-.804 3.094-.937 4.664-.122 1.437-.305 2.929.242 4.361.206.539-.104.943-.7 1.03-.41.061-.824.11-1.236.165.007.426.015.853.018 1.28.001.152-.026.307-.016.458.071 1.064-.724 1.666-1.747 1.728-2.584.155-5.076-.285-7.344-1.575-1.5-.853-2.751-2.042-3.857-3.363-.307-.367-.519-.83-.71-1.278-.232-.547-.14-.851.378-1.161.415-.248.872-.481 1.339-.576 1.571-.319 3.147-.454 4.697.161.879.349 1.779.644 2.761.997.241-.838.288-1.712.407-2.572.09-.664.156-1.332.273-1.991.484-2.714 1.68-5.169 2.905-7.596.298-.592-.016-.954-.109-1.416-.012-.062-.13-.119-.21-.145-.084-.028-.182-.017-.272-.025-1.278-.114-1.556-.375-1.752-1.654-.024-.151-.062-.309-.04-.456.236-1.465-.253-2.919-.06-4.382.009-.06.028-.131.008-.182-.43-1.043-.347-2.165-.477-3.25-.07-.595-.028-1.219.067-1.812.062-.397-.02-.541-.388-.657-1.28-.406-2.361-1.142-3.345-2.124-.088.036-.201.065-.295.122-1.255.758-3.096.47-4.005-1.033-.255-.421-.508-.644-1.008-.591-.204.021-.43-.032-.629-.1-.551-.189-1.001-.487-.984-1.161.006-.276-.086-.439-.36-.559-1.37-.602-1.587-1.243-.905-2.584.042-.082.088-.162.161-.292-1.051-.676-.695-1.604-.394-2.511.095-.285.273-.542.443-.872-.18-.102-.35-.208-.529-.298-.644-.325-1.165-.785-1.552-1.393-.551-.868-.445-1.517.346-2.166.093-.078.198-.141.363-.256-.291-.369-.413-.799-.234-1.244.164-.412.459-.733.888-.876.253-.084.362-.206.268-.468-.021-.058-.048-.117-.05-.176-.04-1.696.306-2.17 1.842-1.95.009-.175.016-.345.028-.514.022-.303.014-.613.077-.908.132-.621.519-.933 1.157-.972.182-.012.369-.016.55.01.342.049.488-.067.531-.429.121-1.035.745-1.663 1.738-1.878.34-.074.727-.001 1.078.073.287.061.457.019.596-.246.127-.242.269-.485.448-.689.787-.89 1.917-.999 2.875-.295.123.09.238.19.39.313.277-.181.534-.397.828-.531.274-.123.586-.158.881-.232.592-.15 1.171-.08 1.682.235.31.192.469.13.691-.112.49-.529 1.099-.848 1.806-1.028.749-.189 1.396-.123 1.962.535.678-.74 1.558-.958 2.494-.969.984-.013 1.806.314 2.236 1.316.775-.426 1.528-.88 2.426-.517.974.394.939 1.331 1.074 2.207.184-.044.324-.088.467-.111 1.044-.163 1.676.136 1.993 1.151.223.713.281 1.495.299 2.248.007.371.086.547.396.709.46.24.914.503 1.336.804.965.685 1.217 1.592.706 2.648-.223.46-.721.83-.817 1.298-.087.419.256.91.32 1.381.127.92-.133 1.762-.675 2.509-.207.284-.226.505-.008.812.522.739.737 1.532.274 2.406-.064.121.002.349.072.497.358.755.437 1.469-.238 2.098-.209.195-.061.375-.027.581.149.923.167 1.806-.512 2.595-.664.772-1.543.83-2.356.613-.713-.191-1.061.107-1.511.49-.604.512-1.255.967-1.988 1.524" fill="#231f20"/><path d="m133.59 13.656s1.576-3.234-2.734-2.919-2.596 3.471-2.596 3.471-2.96-1.577-2.693 1.735c0 0-3.775.374-2.621 2.908 1.154 2.536 4.31 0 4.31 0s2.367 1.431 4.575.8c2.208-.632 2.76-1.355 2.76-1.355s2.683 2.123 4.97.555c2.288-1.567-1.842-4.764-3.366-3.876 0 0-.058-2.503-2.605-1.319" fill="#fff"/><path d="m101.064 3.323-13.967 113.86s29.67 17.95 73.567 1.026l-23.151-118.103-36.449 3.217z" fill="#fffce1" opacity=".1"/></g></g></svg>