<svg clip-rule="evenodd" fill-rule="evenodd" stroke-linecap="round" stroke-linejoin="round" stroke-miterlimit="10" viewBox="0 0 225 132" xmlns="http://www.w3.org/2000/svg" xmlns:xlink="http://www.w3.org/1999/xlink"><clipPath id="a"><path clip-rule="nonzero" d="m174.066 133.668h-123.891c-3.245 0-5.9-2.655-5.9-5.9v-67.42c0-3.245 2.655-5.901 5.9-5.901h123.891c3.245 0 5.9 2.656 5.9 5.901v67.42c0 3.245-2.655 5.9-5.9 5.9"/></clipPath><g transform="translate(0 -2)"><path d="m214.985 133.659h-205.063c-5.371 0-9.766-4.395-9.766-9.766v-111.593c0-5.371 4.395-9.766 9.766-9.766h205.063c5.371 0 9.766 4.395 9.766 9.766v111.593c0 5.371-4.395 9.766-9.766 9.766" fill="#a8e0f9" fill-rule="nonzero"/><g clip-path="url(#a)" transform="matrix(1.65519 0 0 1.65519 -73.1268 -87.5866)"><path d="m2.494 130.658s27.74-49.556 107.825-48.012c80.085 1.545 110.41 49.119 110.41 49.119s-1.037 1.894-5.744 1.894h-205.063s-3.727.478-7.428-3.001" fill="#7eae4d" fill-rule="nonzero"/></g></g><g fill-rule="nonzero"><path d="m0-62.676c2.241-.364 4.522.265 6.641 1.08 7.517 2.893 14.052 8.271 18.338 15.089-4.465-6.927-.608-17.64 7.249-20.13 7.857-2.491 17.182 4.043 17.522 12.278-1.058-3.996-2.123-8.156-1.355-12.219.767-4.062 3.94-7.987 8.07-8.185 5.986-.286 9.46 6.515 11.387 12.19 2.226-4.253 2.495-9.228 3.866-13.828 1.37-4.6 4.553-9.322 9.321-9.877 7.381-.858 11.6 8.027 13.5 15.211-.459-7.544.25-15.157 2.094-22.487.903-3.586 2.8-7.732 6.477-8.125 3.204-.342 5.843 2.451 7.508 5.21 3.773 6.248 5.511 13.703 4.891 20.975 2.151-8.638 6.621-16.687 12.818-23.079 3.843 7.752 4.869 16.864 2.846 25.276.072-6.39 10.309-7.83 14.524-3.026 4.215 4.803 3.923 11.946 3.392 18.315-2.856-6.805 5.341-14.436 12.561-12.911 7.221 1.526 11.813 9.149 12.388 16.506 1.903-6.519 5.199-12.629 9.601-17.8 1.628-1.913 3.705-3.83 6.217-3.797 1.888.024 3.568 1.163 5.015 2.376 4.144 3.476 7.442 7.955 9.529 12.945.095-6.582 1.866-13.134 5.101-18.867 1.194-2.115 2.658-4.19 4.774-5.379 4.132-2.323 9.601-.479 12.856 2.968 3.254 3.446 4.814 8.113 6.281 12.621.755-8.013 2.895-15.892 6.296-23.185.676-1.451 1.467-2.952 2.83-3.792 2.823-1.741 6.741.379 8.095 3.407s.895 6.519.409 9.8c1.63-8.607 6.179-16.634 12.725-22.455 1.266-1.125 2.686-2.208 4.359-2.465 3.967-.611 7.026 3.535 8.149 7.388 2.124 7.285.876 15.481-3.319 21.805 2.463-5.325 6.575-9.874 11.625-12.863 2.685 10.643-.682 22.602-8.529 30.28 2.746-4.757 6.58-8.881 11.123-11.968 2.785 8.07 3.627 16.802 2.437 25.255.857-6.925 11.091-8.875 16.642-4.649 5.553 4.226 7.436 11.609 8.964 18.418-3.774-6.387 2.777-15.223 10.194-15.335 7.418-.113 13.724 6.115 16.176 13.117-3.789-11.009-1.185-23.972 6.559-32.665 5.001 4.789 8.603 11.022 10.256 17.747 1.255-7.659 4.488-14.986 9.3-21.076 1.974-2.498 4.974-5.008 7.996-4.006 2.154.715 3.365 2.958 4.218 5.061 2.554 6.3 3.805 13.125 3.648 19.921 3.953-3.829 8.233-7.32 12.779-10.423 1.345-.918 2.868-1.841 4.485-1.637 2.222.281 3.597 2.515 4.52 4.556 8.082 17.871 6.58 38.466 4.054 57.916-1.725 13.28-3.852 26.507-6.378 39.658-.494 2.573-1.25 5.485-3.586 6.671-1.647.836-3.614.548-5.435.24-37.835-6.409-75.67-12.819-113.505-19.228-36.46-6.176-72.954-12.359-108.912-20.992-23.191-5.568-46.235-12.169-69.929-14.908-21.898-2.531-44.623-1.835-65.145-9.885-7.333-2.877-14.164-6.834-21.379-9.969-5.087-2.21-11.762-3.203-15.925-7.065-6.093-5.653-11.634-23.983.791-26.004" fill="#63af43" transform="matrix(.30505149404 0 0 .30505149404 75.9968843064 55.8731212946)"/><path d="m0-125.854c26.343-2.229 52.873-.142 79.095 3.22 31.872 4.086 63.868 10.169 93.121 23.464 11.617 5.279 22.85 11.76 32.013 20.64 9.164 8.879 16.176 20.346 18.123 32.957.371 2.403.529 4.991-.608 7.14-1.249 2.359-3.785 3.697-6.193 4.848-30.992 14.801-65.155 21.629-99.163 26.433-34.36 4.854-68.992 7.782-103.679 8.765-21.756.616-44.818.122-63.316-11.346-8.614-5.341-15.723-12.789-22.142-20.633-5.385-6.581-10.437-13.653-13.041-21.749-5.293-16.454-2.684-43.034 13.1-53.327 20.489-13.362 48.825-18.393 72.69-20.412" fill="#a3c534" transform="matrix(.30505149404 0 0 .30505149404 48.0259786668 79.248198014)"/><path d="m-15.634-158.711c-1.605.054-33.045 157.721-33.045 157.721l33.045 7.528 29.599-156.081s-9.54-9.852-29.599-9.168" fill="#b37c48" transform="matrix(-.29875450412 -.06166005797 -.06166005797 .29875450412 89.3609843361 62.4934899467)"/><path d="m0-125.262c.997-2.646 2.768-5.605 5.595-5.686 1.803-.052 3.39 1.139 4.701 2.379 5.796 5.483 9.419 13.203 9.933 21.164-1.544-6.435.015-14.418 5.917-17.412 5.902-2.993 14.685 3.784 11.383 9.519 1.432-3.477 6.846-3.438 9.516-.791 2.671 2.647 3.319 6.66 3.829 10.386-.036-20.55-.071-41.101-.105-61.65-.003-1.616.023-3.334.903-4.687 2.022-3.108 6.824-2.239 10.058-.428 12.637 7.075 19.03 23.644 14.422 37.374-1.953-9.064.023-18.906 5.325-26.513 1.075-1.544 2.485-3.114 4.359-3.29 2.72-.257 4.711 2.464 5.853 4.946 4.342 9.435 5.157 20.445 2.252 30.417 5.265-7.891 16.786-11.658 24.859-6.677 8.075 4.981 8.909 18.978.611 23.574 4.745-7.793 16.248-11.063 23.714-5.818s7.499 18.553-.536 22.88c3.955-7.104 13.093-10.854 20.899-8.578 7.805 2.277 13.494 10.352 13.01 18.468.678-10.646 3.602-21.143 8.524-30.608 6.662 4.245 10.981 11.949 11.125 19.848-.006-10.83-.013-21.659-.02-32.489-.002-3.935 1.161-9.171 5.093-9.313 1.833-.066 3.446 1.157 4.774 2.423 7.332 6.985 11.26 17.389 10.377 27.477.352-8.464 6.833-16.301 15.079-18.238 1.131 11.827-.013 23.867-3.35 35.27 4.723-7.869 14.126-13.951 22.914-11.304 8.787 2.647 12.233 16.871 4.11 21.143 4.065-6.062 10.783-11.443 17.983-10.246 7.2 1.195 11.362 12.31 5.099 16.057 4.969-3.983 10.611-7.127 16.613-9.259 2.219-.788 4.829-1.399 6.807-.121 1.627 1.051 2.31 3.072 2.687 4.971 1.719 8.656-.771 18.047-6.553 24.714 9.327-2.526 17.987 7.999 17.508 17.651-.478 9.651-6.817 17.88-12.877 25.406 9.136-2.179 16.248 8.729 16.658 18.112.615 14.08-7.108 28.075-19.037 35.581-11.928 7.505-27.547 8.496-40.577 3.127-12.094-4.983-23.038-15.205-36.06-13.965-4.101.391-8.033 1.941-12.142 2.24-10.929.794-20.257-7.086-29.617-12.782-19.938-12.132-43.879-15.298-67.036-18.199-28.542-3.576-57.084-7.152-85.627-10.728-12.327-1.544-24.785-3.12-36.422-7.467-6.658-2.486-13.605-6.6-15.477-13.457-1.873-6.856 5.317-15.428 11.654-12.21-7.172-3.532-13.266-10.564-13.081-18.556.185-7.993 8.884-15.375 16.252-12.272-4.433-5.341-8.793-13.657-3.734-18.426 5.801-5.456 7.12-5.246 8.622-12.763 1.436-7.185.524-14 3.233-21.194" fill="#108643" transform="matrix(.30505149404 0 0 .30505149404 106.473846975 75.966090605)"/><path d="m0 310.274c-54.324 2.793-109.113 5.564-162.853-2.863-20.184-3.166-40.354-7.988-58.495-17.386-10.207-5.287-20.277-12.765-23.79-23.709-1.743-5.434-1.705-11.299-.908-16.949 4.458-31.582 30.884-55.354 58.006-72.137s57.333-30.129 78.43-54.05c5.687-6.449 10.742-15.941 6.095-23.176-2.352-3.661-6.617-5.584-10.766-6.9-25.596-8.114-53.131-.21-79.242 6.05-32.71 7.844-66.043 13.091-99.581 15.677-13.673 1.055-27.694 1.632-40.838-2.279-10.78-3.208-21.538-10.713-23.422-21.801-1.671-9.84 4.163-19.506 11.385-26.394 13.641-13.009 32.099-19.337 49.387-26.846 17.288-7.508 27.817-22.748 36.211-39.625 23.627-7.134 56.702-9.096 81.368-8.238-13.127 23.397-42.433 37.257-57.58 59.4-.996 1.458-1.967 3.148-1.652 4.886.484 2.665 3.593 3.868 6.265 4.315 9.622 1.612 19.437-.272 29.068-1.822 49.002-7.889 99.379-7.162 148.134 2.138 17.737 3.384 35.852 8.175 50.002 19.395 14.148 11.22 23.393 30.356 18.191 47.647-5.635 18.727-25.065 29.03-38.597 43.148-5.297 5.526-10.047 13.124-7.756 20.428 2.493 7.943 11.774 11.207 19.884 13.081 58.171 13.44 119.624 12.429 177.322-2.917 6.79 39.562 13.071 78.38 6.213 117.93-36.352 4.207-73.252 3.655-109.463-1.639-20.236-2.958-40.723-7.397-60.942-4.327-4.153.631 4.119-1.253-.076-1.037" fill="#dac384" transform="matrix(.30505149404 0 0 .30505149404 150.20721438 68.016699071)"/><path d="m-8.032-173.9c-1.732.059-35.653 170.162-35.653 170.162l35.653 8.124 31.934-168.394s-10.294-10.629-31.934-9.892" fill="#b37c48" transform="matrix(-.30260620322 -.03854781341 -.03854781341 .30260620322 34.8080836002 70.0022898593)"/><path d="m63.415-134.764h66.51l4.362 199.044-54.953 9.221z" fill="#6b432a" transform="matrix(.02324907835 .30416416097 .30416416097 -.02324907835 79.5615179811 -9.9618680836)"/><path d="m-29.633-48.19h11.469l45.916 26.42-.652 8.293z" fill="#845337" transform="matrix(-.13891741076 .27158468746 .27158468746 .13891741076 49.0166142981 27.2020864301)"/><path d="m0-30.743c-5.747 1.765-9.211 7.789-10.316 13.698-.177-5.428-5.428-10.153-10.845-9.758s-9.927 5.831-9.315 11.228c-4.501-4.532-10.448-7.605-16.748-8.655-3.518-.587-7.498-.424-10.146 1.965-2.696 2.432-3.22 6.683-1.888 10.061 1.333 3.378 4.208 5.95 7.377 7.724 8.952 5.011 20.909 4.003 28.896-2.437-3.577 5.155-1.001 12.958 4.347 16.24 5.349 3.281 12.397 2.673 18.043-.064 5.647-2.737 10.163-7.313 14.409-11.933 4.531 5.966 9.664 11.855 16.527 14.856 6.863 3.002 15.867 2.306 20.649-3.46 4.2-5.064 4.112-12.31 3.81-18.882 7.924 9.251 21.414 16.209 32.095 10.354 2.104-1.155 4.049-2.781 6.42-3.152 1.811-.284 3.639.207 5.445.522 5.299.925 11.656-.176 14.344-4.835 2.731-4.736.13-11.225-4.492-14.143-4.623-2.919-10.545-2.933-15.885-1.767-5.341 1.166-10.397 3.392-15.706 4.693 2.042-.501-5.266-12.175-6.144-13.067-3.896-3.958-9.145-6.177-14.692-6.279-8.486-.156-13.548 6.554-21.491 1.666-3.597-2.215-7.601-9.759-12.365-9.414-8.824.638-7.454 17.967-10.252 23.543.321-6.062-6.479-10.423-12.077-8.704" fill="#fff" transform="matrix(.30505149404 0 0 .30505149404 146.174680896 15.4059010172)"/><path d="m0-17.547c-3.28 1.008-5.257 4.446-5.888 7.818-.101-3.098-3.098-5.794-6.19-5.569-3.091.226-5.666 3.328-5.316 6.408-2.569-2.586-5.963-4.34-9.56-4.94-2.007-.334-4.279-.241-5.79 1.122-1.539 1.388-1.838 3.814-1.078 5.743.761 1.927 2.402 3.396 4.211 4.408 5.109 2.861 11.934 2.285 16.492-1.391-2.041 2.943-.571 7.396 2.481 9.269 3.053 1.873 7.076 1.526 10.299-.036s5.8-4.174 8.224-6.811c2.586 3.405 5.515 6.766 9.432 8.479 3.918 1.713 9.057 1.316 11.787-1.975 2.396-2.89 2.346-7.026 2.174-10.777 4.523 5.28 12.222 9.252 18.318 5.909 1.201-.658 2.312-1.586 3.665-1.799 1.033-.161 2.077.119 3.107.299 3.025.528 6.653-.101 8.187-2.76 1.559-2.703.075-6.407-2.563-8.072-2.638-1.666-6.018-1.674-9.067-1.009-3.048.665-5.934 1.936-8.965 2.679 1.166-.286-3.005-6.95-3.506-7.458-2.224-2.26-5.219-3.526-8.386-3.584-4.843-.089-7.732 3.741-12.265.951-2.054-1.264-4.34-5.57-7.058-5.374-5.037.365-4.255 10.255-5.852 13.438.184-3.46-3.698-5.949-6.893-4.968" fill="#fff" transform="matrix(.30505149404 0 0 .30505149404 48.8920801758 8.4724765703)"/><path d="m0-13.41c6.579 4.489 12.13 10.476 16.11 17.375-2.233-11.134-4.475-22.382-4.154-33.732 2.273 10.027 5.403 19.859 9.346 29.355 1.365-9.299 4.724-18.3 9.783-26.22 1.286 8.724.199 17.785-3.114 25.957 3.092-4.645 7.244-8.581 12.049-11.419.692 5.496-.502 11.211-3.337 15.97 10.655-4.651 23.136-4.952 34.003-.818-.211 1.185-1.727 1.517-2.928 1.601-16.284 1.139-32.387 4.832-47.54 10.905 1.333-3.971 2.667-7.943 4-11.913-5.501 3.593-13.44 12.706-17.697 5.48-3.52-5.976.484-17.761-6.521-22.541" fill="#108643" transform="matrix(.30505149404 0 0 .30505149404 32.13230581734 134.628178103)"/><path d="m0-7.593c3.725 2.542 6.868 5.931 9.121 9.837-1.264-6.303-2.534-12.671-2.352-19.098 1.287 5.677 3.06 11.244 5.292 16.62.772-5.264 2.674-10.36 5.539-14.845.728 4.94.112 10.07-1.764 14.696 1.751-2.629 4.102-4.857 6.822-6.464.392 3.111-.284 6.347-1.889 9.041 6.032-2.633 13.099-2.804 19.251-.463-.12.671-.978.859-1.657.906-9.22.645-18.337 2.736-26.916 6.174.755-2.248 1.51-4.496 2.264-6.745-3.114 2.035-7.609 7.195-10.019 3.103-1.993-3.383.274-10.055-3.692-12.762" fill="#108643" transform="matrix(.30505149404 0 0 .30505149404 108.202389378 75.334268456)"/><path d="m0-7.593c3.725 2.542 6.868 5.931 9.121 9.837-1.264-6.303-2.533-12.672-2.351-19.098 1.287 5.677 3.059 11.243 5.291 16.62.773-5.264 2.674-10.361 5.539-14.845.728 4.939.112 10.07-1.763 14.696 1.75-2.63 4.1-4.857 6.821-6.465.392 3.111-.284 6.348-1.889 9.042 6.033-2.634 13.099-2.804 19.252-.463-.121.671-.978.859-1.659.906-9.219.645-18.337 2.736-26.915 6.174.755-2.249 1.51-4.497 2.265-6.745-3.114 2.035-7.609 7.195-10.02 3.104-1.993-3.384.275-10.057-3.692-12.763" fill="#108643" transform="matrix(.30505149404 0 0 .30505149404 181.867873515 124.713036314)"/><path d="m0-7.592c3.725 2.542 6.867 5.931 9.121 9.837-1.264-6.303-2.534-12.672-2.352-19.098 1.287 5.677 3.059 11.244 5.291 16.62.773-5.265 2.675-10.361 5.54-14.845.727 4.939.112 10.069-1.764 14.696 1.751-2.63 4.101-4.858 6.822-6.465.392 3.112-.284 6.348-1.889 9.042 6.032-2.634 13.099-2.804 19.251-.463-.12.671-.978.859-1.658.906-9.219.645-18.337 2.736-26.916 6.174.756-2.248 1.511-4.497 2.265-6.745-3.114 2.035-7.609 7.194-10.019 3.103-1.993-3.383.274-10.056-3.692-12.762" fill="#108643" transform="matrix(.30505149404 0 0 .30505149404 27.79353260367 90.519963722)"/><path d="m0 99.932c-2.557-.93-4.385-1.594-6.803-2.473.865 2.979.865 2.979 6.803 2.473m75.023-151.018c-2.46-.587-4.811-1.149-7.517-1.796.776 4.322 3.597 6.232 6.934 8.075 2.088-2.225.253-4.042.583-6.279m39.573-36.095c1.167-2.001.236-3.416-1.183-4.501-3.054-2.334-6.356-3.93-11.029-2.599 4.364 2.538 8.205 4.77 12.212 7.1m-71.147 111.143c-.789-.297-1.689-.301-2.806-.484-.471 1.157-1.095 2.181-1.297 3.282-.67 3.637.39 4.722 4.089 4.893 3.828.177 7.195-1.049 11.355-3.251-4.255-1.675-7.782-3.099-11.341-4.44m-69.101 83.827c-4.16-1.287-7.542.481-10.947 1.66-2.204.762-1.927 3.004-1.402 4.564.92 2.731 2.369 5.282 3.698 8.124 3.823-.622 7.372-1.201 11.001-1.792-.811-4.337-1.586-8.473-2.35-12.556m39.458-72.772c-2.226-3.673-7.288-4.802-11.351-2.569-5.481 3.011-8.496 10.041-6.659 15.927.352 1.129 1.414 2.036 2.6 3.667 5.568-6.152 10.493-11.593 15.41-17.025m-14.271-73.559c-1.301.546-2.604 1.093-4.444 1.866.122-1.256-.089-2.27.317-2.704 1.644-1.751 3.745-1.733 8.28-.053.613-1.139 1.259-2.342 1.883-3.505-4.917-3.529-7.848-3.648-11.931-.733-3.672 2.622-4.954 7.75-4.049 11.474 1.149 4.729 4.495 7.303 9.805 7.605 1.016-3.735 2.048-7.522 3.211-11.796-1.026-.719-1.985-1.392-3.072-2.154m128.194 49.977c.601 1.052.374 1.52-1.027 3.282-.311-.295-.714-.53-.904-.88-2.399-4.415-6.723-5.285-10.521-2.059-1.23 1.045-2.403 2.159-3.562 3.283-.404.392-.687.91-.989 1.321 3.729 5.54 12.244 7.23 17.308 3.565 4.74-3.432 4.469-10.712-.489-13.719-.75-.455-1.402-1.07-2.107-1.6-3.698-2.774-6.065-2.082-8.199 2.75 4.356-.099 8.232.099 10.49 4.057m-168.661 99.789c-.527-1.497-1.543-2.315-3.006-1.966-2.282.546-4.594 1.177-6.697 2.182-1.558.745-2.108 2.19-1.313 4.129 1.792 4.367 3.346 8.832 4.984 13.262.484 1.307 1.42 2.005 2.743 1.604 3.07-.931 6.093-2.014 9.122-3.031-2.143-5.927-4.022-11.041-5.833-16.18m99.302 59.916c2.81 1.134 5.274-.241 7.438-1.786 3.173-2.265 5.689-5.184 7.187-8.859.95-2.328 1.905-4.654 2.773-7.013 1.149-3.132.929-3.646-2.02-5.221-.506-.269-1.08-.411-1.723-.648-.514 1.012-1.04 1.883-1.418 2.814-3.243 7.982-9.58 12.06-17.601 14.054-.549.136-1.105.417-1.542.772-.444.36-.746.894-1.579 1.941 3.176 1.491 5.776 2.853 8.485 3.946m-19.689-17.145c3.097 4.501 7.33 8.259 13.199 7.479 6.826-.907 13.016-3.787 15.778-11.145-3.543-2.094-6.921-4.091-10.253-6.06-6.347 3.297-12.428 6.456-18.724 9.726m15.314-23.178c-7.261 5.542-15.858 6.014-24.456 5.996-4.251-.01-8.497-.952-12.752-1.411-2.319-.25-4.651-.372-7.675-.605 1.018 2.769 1.788 4.918 2.598 7.053.629 1.658 1.609 3.246 1.899 4.956.583 3.436 2.827 4.638 5.847 4.873 8.771.686 17.628.911 25.618-3.318 5.182-2.742 9.805-6.546 14.63-9.942.514-.361.709-1.174 1.087-1.837-2.316-1.965-4.445-3.771-6.796-5.765m-33.517-199.833c-5.177-2.795-10.346-5.603-15.533-8.378-1.686-.903-3.445-1.672-5.128-2.583-6.275-3.402-13.208-4.069-20.112-4.667-.87-.075-2.303 1.349-2.761 2.393-1.88 4.274-.667 8.438 2.279 11.5 7.197 7.482 14.827 14.536 25.08 17.808 1.523.486 2.978 1.186 4.524 1.811 3.994-6.131 7.69-11.805 11.651-17.884m30.147 124.156c-2.052 3.865-1.847 4.306 2.59 6.635 3.499-3.716 3.944-9.84 9.4-12.596.944 3.419-1.582 5.126-2.642 7.349-1.081 2.267-2.248 4.492-3.454 6.887 3.801 3.541 8.12 6.166 12.644 8.673 4.313 2.39 8.099 5.728 12.063 8.61 3.181-2.197 3.202-5.448 3.378-8.212.586-9.232-.735-18.26-4.451-26.804-.715-1.645-1.322-3.708-3.747-3.92-.319-.028-.664-.546-.878-.908-2.425-4.095-5.872-3.918-9.936-2.851-5.737 1.506-11.448 2.873-16.399 7.399 3.381 2.976 3.305 6.211 1.432 9.738m-2.066-2.736c.349-1.099.379-2.806-.251-3.597-1.027-1.286-2.483-.934-3.838.252-1.794 1.57-3.676 1.388-5.573-.202-1.461-1.225-3.18-2.145-4.794-3.186-.62-.399-1.23-.84-1.904-1.119-4.549-1.884-7.143-.407-8.607 4.997-2.733.894-5.027 2.414-5.11 5.771-.027 1.146.173 2.304.338 3.447.124.864.742 1.86.479 2.542-1.26 3.268.664 5.546 2.515 7.521 1.891 2.017 4.179 3.881 6.645 5.1 8.878 4.39 17.934 8.37 27.858 9.894 5.335.818 10.621.853 15.822-.648 1.007-.291 2.053-1.16 2.58-2.056.212-.362-.867-1.563-1.459-2.301-2.752-3.434-6.527-5.376-10.35-7.37-2.433-1.269-4.409-3.386-6.714-4.938-2.066-1.392-4.315-2.511-6.46-3.79-1.354-.809-2.665-1.69-4.343-2.761 1.258-2.928 2.411-5.179 3.166-7.556m40.452-110.861c-17.513-11.256-36.752-18.327-56.879-23.15-3.576-.857-7.293-1.132-10.947-1.663-4.236-.615-8.462-1.321-12.714-1.795-4.532-.505-9.088-.785-13.841-.355 3.697 1.912 7.418 3.784 11.088 5.747 4.563 2.441 9.086 4.958 13.626 7.442 8.416 4.605 16.811 9.198 26.29 11.425 9.779 2.299 19.457 5.031 29.245 7.289 7.044 1.625 14.198 2.762 21.293 4.168 1.591.316 3.128.896 4.713 1.253.936.21 1.918.22 2.879.32l.272-.687c-5.006-3.335-9.966-6.742-15.025-9.994m-141.19 180.785c-1.621-4.057-3.809-7.905-3.646-12.546.054-1.525-.687-3.225-1.48-4.606-3.329-5.802-6.988-11.305-12.809-15.075-3.952-2.559-7.329-5.939-11.982-7.472-7.084-2.335-10.226-.331-9.247 6.944 1.098 8.156 2.236 16.365 6.262 23.848 4.691 8.718 11.24 15.788 18.702 22.099 2.101 1.777 4.456 2.841 7.305 1.087 1.353-.834 3.132-.952 4.563-1.692 1.922-.992 3.695-2.273 5.935-3.684-1.395-3.445-2.51-6.17-3.603-8.903m116.218 50.817c.235.295.47.59.704.885 2.852.631 5.703 1.264 8.555 1.896-.005.314-.009.627-.014.941-.707.279-1.412.773-2.121.78-.854.009-1.702-.458-2.571-.613-4.458-.797-8.372-.151-11.734 3.387-3.159 3.326-6.614 6.357-8.575 10.62-1.926 4.188-1.335 5.653 3.111 6.634 3.008.664 6.116 1.021 9.198 1.193 7.931.444 15.816 2.317 23.833.47 4.188-.965 6.42-3.055 7.615-7.395 2.491-9.051 1.835-18.151 1.589-27.283-.02-.72-.272-1.454-.516-2.145-1.374-3.887-9.531-10-14.258-10.485-3.365 7.953-5.277 17.074-14.816 21.115m-44.7-61.614c-2.434-1.951-4.576-3.992-7.03-5.537-2.078-1.31-4.449-2.669-6.805-2.918-6.318-.669-12.697-.827-19.057-1.026-1.74-.054-3.535.314-5.24.743-3.795.954-4.151 1.347-4.143 5.109.005 1.895.338 3.823.768 5.679 1.53 6.614 3.166 13.203 4.871 20.254 3.599-.318 7.21-.693 10.83-.948 7.238-.509 14.48-1.122 21.705.171 3.346.599 6.673 1.484 10.045 1.724 7.583.538 15.073-.172 22.259-2.881 3.62-1.365 5.879-4.464 8.337-7.151 2.418-2.642 1.591-5.511-1.483-7.661-.936-.654-2.171-1.503-2.376-2.456-.562-2.597-2.475-3.233-4.515-3.619-3.626-.685-7.297-1.129-10.943-1.706-6.542-1.035-13.081-2.095-20.409-3.271 2.129 1.485 3.447 2.961 3.186 5.494m29.996-14.545c.146-3.791.977-7.556 1.461-11.01-7.427-3.049-14.364-5.973-21.362-8.746-5.162-2.046-8.977-5.632-12.051-10.088-2.303-3.339-2.435-12.816-.093-16.1 1.864-2.616 4.022-5.018 5.933-7.619 1.187-1.617 4.024-2.515 6.23-2.764 2.635-.296 4.802-.891 6.776-2.711 1.276-1.175 2.955-1.911 4.73-3.017-1.438-1.852-4.51-2.339-4.242-5.203.201-2.152.557-4.29.885-6.732-.901.406-1.822.731-2.653 1.213-3.056 1.77-6.067 3.62-9.124 5.389-5.304 3.068-9.928 6.922-13.834 11.657-1.317 1.597-2.704 3.179-4.268 4.525-4.544 3.911-7.719 8.895-11.023 13.772-4.891 7.221-9.726 14.482-14.51 21.776-2.703 4.123-2.448 4.885 1.684 7.83 7.692 5.482 16.428 8.677 25.209 11.876 9.67 3.521 19.645 5.376 29.824 6.424 3.518.363 7.02.88 11.092 1.399-.27-4.275-.81-8.086-.664-11.871m83.322-132.761c1.788-7.382 2.739-14.77.778-22.348-2.562-9.895-8.121-17.739-16.062-23.879-4.078-3.154-8.378-6.243-13.026-8.394-9.901-4.58-20.115-8.542-31.352-7.991-7.941.39-15.433 2.503-22.33 6.57-1.272.751-2.582 1.541-3.979 1.961-3.924 1.177-6.45 3.997-9.162 7.204.979.459 1.699.927 2.487 1.147 16.889 4.725 33.156 10.912 47.983 20.458 6.092 3.923 12.317 7.681 18.126 11.992 8.877 6.587 16.145 14.746 21.749 24.328.139.238.432.386 1.437 1.245 1.202-4.381 2.386-8.311 3.351-12.293m-29.979 148.703c-.679-.347-1.698-1.4-1.569-1.696.358-.815 1.26-1.99 1.912-1.97 2.667.088 4.942-.783 7.13-2.111 2.15-1.304 3.562-3.2 3.934-5.666.659-4.381 1.021-8.777-.076-13.17-.392-1.572-.427-3.234-.839-4.799-.681-2.584.326-4.661 1.746-6.627 9.903-13.716 18.64-28.114 25.609-43.556.732-1.619 1.526-3.225 2.449-4.742 3.235-5.316 2.721-11.09 2.086-16.852-.271-2.452-1.546-4.453-3.634-5.857-2.44-1.639-4.888-3.263-7.181-4.792-3.758 2.724-4.012 3.136-2.076 6.168 1.924 3.014 2.105 6.328 1.389 9.44-.796 3.459-3.481 6.06-7.007 6.716-4.063.756-8.343.993-12.252-.863-2.06-.979-3.856-2.515-5.997-3.952-1.148.882-2.601 1.887-3.927 3.039-6.441 5.594-14.015 8.08-22.434 8.252-6.643.136-13.282.417-19.917-.485-1.506-.205-3.264.374-4.717 1.017-5.816 2.576-11.598 5.237-17.301 8.05-1.813.894-3.344 2.357-5.119 3.643 1.401 2.702 3.86 3.421 6.4 4.76 3.848-2.424 7.806-4.937 11.786-7.414.879-.546 1.79-1.104 2.763-1.424 4.185-1.379 8.318-3.322 12.618-3.843 6.239-.757 12.674-1.323 18.785 1.173 1.221.499 3.044.641 2.623 3.168-4.737-.886-9.228-3.124-14.513-1.988 1.009.948 1.796 1.586 2.463 2.33 3.097 3.45 5.08 7.335 6.503 11.882 1.803 5.759 2.593 11.593 2.821 17.441.169 4.326-1.102 8.727-1.913 13.06-.196 1.042-1.116 1.948-1.778 3.043-1.8-.79-3.262-1.432-4.932-2.165-3.102 3.845-7.377 4.744-11.923 4.83-4.218.08-8.439.043-12.902.059-1.729 7.723-3.032 15.634-.34 23.758.883 2.667 2.35 4.293 4.758 5.413 11.922 5.545 24.38 6.858 37.279 4.824 2.629-.414 5.306-.608 7.885-1.227 2.12-.509 4.294-1.302 4.78-4.005-1.237-2.118-3.589-1.951-5.372-2.862m19.962-134.58c1.83 1.294 1.643 3.424 1.261 5.328-.872 4.339-1.896 8.647-2.864 12.967-.313 1.401-.641 2.799-.963 4.194 2.875.656 5.442 1.241 8.257 1.884 2.286-2.397 4.135-5.337 5.147-8.486.87-2.707.959-5.685-1.062-8.46-3.107-4.268-5.815-8.828-8.661-13.284-3.291-5.153-7.285-9.714-11.712-13.898-.835-.789-1.88-1.463-2.949-1.88-7.6-2.969-15.441-5.058-23.525-6.214-2.313-.331-4.627-.663-7.562-1.084.412 1.028.552 1.506.782 1.935 5.686 10.544 14.481 17.771 24.848 23.339 1.671.897 3.242 1.979 4.866 2.98 1.863-4.022-1.118-7.438-1.447-11.761 2.548 1.623 4.126 3.39 5.468 5.409-1.871-.367-1.89.782-1.76 2.11.23 2.353.465 4.707.605 7.066.039.661-.249 1.342-.48 2.469-1.182-.703-2.166-1.049-2.818-1.718-3.235-3.327-6.899-6.066-10.991-8.223-7.147-3.768-12.358-9.537-16.829-16.095-.563-.825-1.203-1.598-1.848-2.448-.342.42-.571.594-.659.823-1.254 3.236-2.095 3.648-4.673 1.97-2.877-1.873-5.605-3.983-6.875-7.338-1.116-2.946-3.215-4.09-6.24-4.779-12.4-2.822-24.762-5.857-35.934-12.118-2.214.407-3.293 1.998-4.456 3.54-4.315 5.718-7.729 11.972-10.377 18.579-2.576 6.427-4.788 13.013-6.855 19.625-.976 3.122-.643 6.404.279 9.637 3.343 11.716 9.561 21.068 20.401 27.339 5.416 3.134 10.929 5.865 16.741 8.073 4.412 1.675 8.823 3.355 13.275 4.917 7.802 2.736 15.912 2.867 24.043 2.58 3.83-.135 7.83.151 11.447-.856 12.278-3.42 21.646-10.584 26.737-22.642 4.522-5.192 4.639-11.984 6.579-18.115.963-3.045.115-5.444-2.281-7.513-2.01-1.737-3.841-3.681-5.752-5.532 2.954 1.881 5.98 3.66 8.837 5.68m-192.119 109.167c8.211 5.164 12.252 13.485 16.701 21.521 2.752-.679 5.315-1.39 7.916-1.92 1.26-.258 2.701-.534 3.865-.171 2.001.621 3.752.268 5.633-.313 2.94-.908 5.935-1.644 9.392-2.586-.498-2.913 2.166-2.873 4.297-3.405.998-.25 2.053-.27 3.081-.397 2.899-.359 5.797-.72 8.65-1.076-.013-3.226.005-3.253-1.649-4.315-2.247-1.442-4.545-2.805-6.781-4.262-2.216-1.445-4.221-3.118-5.537-5.439 3.691-5.278 7.435-10.225 10.728-15.457 3.278-5.209 7.516-9.846 9.958-15.605-2.807-3.136-4.904-5.902-4.072-10.45.75-4.097 1.734-7.739 4.589-10.785 5.308-5.665 11.396-5.84 19.236-.314 5.777-3.733 11.667-7.54 17.898-11.567-1.021-.681-1.476-1.022-1.964-1.305-4.359-2.517-8.869-4.805-13.055-7.583-6.891-4.574-12.629-10.351-15.76-18.169-1.966-4.911-3.408-10.033-5.179-15.343-1.204-.449-2.874-1.005-4.492-1.686-2.56-1.077-4.497-2.864-5.615-5.432-2.013-4.632-1.787-9.26.535-13.674 3.131-5.951 9.489-7.802 15.544-4.705.786.402 1.522.899 2.45 1.454.419-.821.805-1.582 1.446-2.838-2.14-1.04-4.043-2.106-6.052-2.914-4.854-1.952-9.366-4.43-13.299-7.925-1.101-.979-2.402-1.733-3.508-2.707-2.776-2.441-5.758-4.715-8.167-7.484-3.393-3.898-4.563-8.602-2.914-13.66.752-2.308 1.988-4.158 5.041-4.074 2.785.077 5.587-.663 8.379-.64 8.421.07 16.812-.503 25.22 1.518 6.699 1.611 13.739 1.799 20.324 2.583 3.192-2.548 5.95-5.373 9.25-7.235 4.863-2.744 9.979-5.17 15.227-7.07 8.588-3.111 17.405-4.753 26.508-1.81 2.664.861 5.475 1.265 8.213 1.906 1.42.332 2.981.453 4.201 1.152 1.604.919 2.86.883 4.555.189 5.411-2.218 12.105-.206 15.399 4.583.689 1.002 1.141 2.528.961 3.699-.456 2.952.924 4.66 3.055 6.349 8.883 7.042 13.93 16.353 15.653 27.475.377 2.437.674 5.03.253 7.418-1.179 6.69-2.725 13.317-4.187 19.955-.49 2.224-1.166 4.409-1.9 7.147 5.279 4.73 6.714 10.987 3.969 18.507 2.871 2 5.747 3.797 8.371 5.907 1.561 1.256 3.306 2.801 3.931 4.58.857 2.44.997 5.229.967 7.863-.062 5.379-1.553 10.358-4 15.251-5.04 10.076-10.161 20.088-16.206 29.602-3.174 4.997-6.443 9.932-9.67 14.894-1.802 2.771-3.242 5.467-2.147 9.099.841 2.791.78 5.849 1.19 8.778 1.198 8.557-1.227 13.035-8.978 16.522-.22.099-.333.435-.673.906.689.479 1.359.98 2.063 1.426 2.398 1.517 2.874 2.894.854 4.839-1.745 1.678-4.021 3.282-6.32 3.828-10.62 2.519-21.352 3.254-32.099.568-3.812-.953-7.612-1.95-11.067-2.837-1.574 3.34-2.939 6.237-4.523 9.597 1.912 1.686 3.904 3.643 6.103 5.33 2.714 2.082 2.784 2.681.016 4.857-1.091.858-2.122 1.789-3.493 2.953 2.749 1.515 4.937 2.722 7.279 4.014 3.147-2.679 6.288-2.099 9.46-.15 1.131.695 2.339 1.327 3.592 1.751 5.799 1.956 10.132 5.964 14.436 10.055 1.849 1.759 2.572 3.827 2.655 6.349.31 9.504-.053 18.924-1.687 28.341-.761 4.391-2.843 6.974-6.852 8.129-2.531.729-5.178 1.416-7.781 1.445-4.126.048-8.267-.401-12.39-.767-5.894-.523-11.788-1.063-17.66-1.782-4.165-.509-5.917-3.112-4.967-7.198.328-1.412.912-2.883 1.774-4.029 2.218-2.952 4.612-5.779 7.024-8.577 1.594-1.851 3.344-3.569 5.253-5.588-3.337-1.814-6.22-3.318-9.032-4.944-.974-.563-2.222-1.278-2.535-2.199-.352-1.035.21-2.383.409-3.845-4.859-1.09-8.251-4.404-11.264-8.121-1.065-1.312-2.169-1.819-3.775-1.729-3.54.198-7.093.539-10.625.393-2.77-.114-5.546-.741-8.249-1.424-.783-.2-1.582-1.278-1.922-2.132-2.06-5.176-3.991-10.405-5.885-15.407-9.04-1-17.493-.117-26.049 1.583-.872-4.856-1.649-9.18-2.473-13.771-3.375.315-6.545.611-9.673.903.089 4.532-.326 5.148-4.094 6.629-.414.163-.821.366-1.249.464-7.837 1.775-15.118 5.055-22.351 8.409-2.545 1.181-4.594.749-6.549-.929-2.249-1.93-4.573-3.805-6.6-5.954-3.733-3.952-7.273-8.085-11.172-12.457 0 0-18.387-30.031-9.878-39.382 8.51-9.351 24.515 6.817 24.515 6.817" fill="#1f221d" transform="matrix(.30505149404 0 0 .30505149404 144.583045494 89.538918902)"/><path d="m0 3.256c0-1.215.326-2.263-.051-2.688-3.264-3.684-6.855-7.04-11.925-7.922-1.329-.231-2.895.316-4.225.835-1.349.526-.959 1.602-.032 2.83 5.081-2.188 8.975-.554 16.233 6.945m-52.894-23.13c.663.886 1.561 1.595 2.915 2.951 0-1.56.25-2.43-.042-3.044-2.005-4.23-5.732-6.756-9.717-8.645-2.962-1.404-6.098-.221-8.804 1.455-.395.244-.194 1.446-.317 2.696 6.918-2.623 11.772-1.027 15.965 4.587m11.693 13.255c1.097-.111 2.413.021 3.345.546 2.312 1.303 3.318 4.327 2.293 6.072-.961 1.633-3.562 2.211-5.963 1.224-.926-.381-1.761-.984-2.816-1.588-1.182 1.592-.962 3.018.691 3.587 1.886.65 4.049 1.198 5.966.92 4.853-.704 6.489-4.877 3.796-8.943-2.899-4.381-10.894-5.29-14.592-1.665-1.275 1.25-1.483 2.454.256 3.92 1.725-2.567 4.177-3.785 7.024-4.073m7.132 27.263c-2.483-.192-4.985-.673-7.377-1.367-2.955-.857-6.098-1.616-8.642-3.231-5.355-3.401-10.447-7.237-15.5-11.086-2.482-1.891-4.248-4.467-5.198-7.445 1.265-1.259 3.648.004 4.191-2.638-2.714-1.374-5.869-.832-8.756-1.505-.637-.149-1.479.583-2.111.858 7.505 10.336 16.461 18.782 27.635 24.489 3.747 1.914 8.11 2.829 12.302 3.627 9.432 1.795 15.644.716 24.042-3.58.689 1.52 1.377 3.038 2.246 4.954.441-.848.823-1.234.77-1.546-.168-1.001-.475-1.982-.767-2.959-.555-1.853-1.136-3.698-1.858-6.038-5.66 7.725-13.2 8.067-20.977 7.467m49.215-26.672c1.911 1.851 3.742 3.795 5.751 5.532 2.397 2.069 3.245 4.468 2.282 7.513-1.941 6.131-2.057 12.923-6.579 18.115-5.091 12.058-14.459 19.222-26.738 22.642-3.616 1.007-7.616.721-11.446.856-8.131.287-16.241.156-24.043-2.58-4.452-1.562-8.863-3.242-13.275-4.917-5.812-2.208-11.326-4.939-16.742-8.073-10.839-6.271-17.057-15.623-20.4-27.339-.922-3.233-1.255-6.515-.279-9.637 2.067-6.612 4.279-13.198 6.855-19.625 2.648-6.607 6.062-12.861 10.377-18.579 1.163-1.542 2.241-3.133 4.456-3.541 11.172 6.262 23.533 9.297 35.934 12.119 3.025.689 5.124 1.833 6.24 4.779 1.27 3.355 3.998 5.465 6.875 7.338 2.578 1.678 3.419 1.266 4.673-1.97.088-.229.316-.403.659-.823.645.85 1.285 1.623 1.848 2.448 4.47 6.558 9.681 12.327 16.829 16.095 4.092 2.157 7.756 4.896 10.991 8.223.651.669 1.636 1.015 2.817 1.718.232-1.127.52-1.808.481-2.469-.14-2.359-.375-4.713-.606-7.066-.129-1.328-.11-2.477 1.761-2.11.427.45.853.901 1.279 1.351" fill="#f6d7bd" transform="matrix(.30505149404 0 0 .30505149404 174.678425655 83.039863031)"/><path d="m0 107.435c-1.236-2.118-3.589-1.951-5.372-2.862-.679-.347-1.697-1.401-1.568-1.697.357-.814 1.259-1.99 1.911-1.969 2.667.088 4.942-.784 7.131-2.112 2.149-1.303 3.561-3.2 3.933-5.666.659-4.381 1.022-8.776-.076-13.17-.392-1.571-.427-3.233-.839-4.798-.681-2.584.326-4.662 1.746-6.627 9.904-13.716 18.64-28.114 25.61-43.556.731-1.62 1.525-3.226 2.448-4.742 3.235-5.317 2.722-11.09 2.086-16.853-.271-2.451-1.546-4.452-3.634-5.856-2.439-1.639-4.888-3.263-7.181-4.793-3.758 2.724-4.011 3.137-2.076 6.169 1.924 3.014 2.106 6.327 1.389 9.44-.796 3.459-3.481 6.06-7.007 6.716-4.063.756-8.343.992-12.252-.864-2.06-.978-3.855-2.515-5.997-3.951-1.148.882-2.601 1.887-3.927 3.038-6.441 5.594-14.014 8.08-22.433 8.253-6.644.136-13.283.416-19.917-.486-1.507-.205-3.265.374-4.718 1.018-5.816 2.576-11.598 5.237-17.301 8.049-1.812.894-3.344 2.358-5.119 3.644 1.401 2.701 3.86 3.42 6.4 4.759 3.848-2.424 7.806-4.936 11.786-7.413.879-.546 1.79-1.104 2.763-1.424 4.185-1.38 8.318-3.322 12.618-3.844 6.24-.756 12.674-1.322 18.785 1.174 1.221.498 3.044.64 2.624 3.168-4.738-.886-9.229-3.124-14.514-1.988 1.01.948 1.796 1.586 2.463 2.329 3.097 3.451 5.08 7.336 6.504 11.883 1.802 5.759 2.592 11.593 2.82 17.44.169 4.326-1.102 8.727-1.913 13.06-.195 1.042-1.115 1.949-1.777 3.044-1.801-.79-3.263-1.432-4.933-2.165-3.102 3.845-7.377 4.744-11.923 4.83-4.218.08-8.438.043-12.902.058-1.729 7.724-3.032 15.635-.34 23.758.884 2.667 2.35 4.293 4.759 5.413 11.922 5.545 24.38 6.859 37.278 4.824 2.629-.414 5.307-.607 7.885-1.226 2.12-.509 4.295-1.303 4.78-4.005" fill="#98ba8a" transform="matrix(.30505149404 0 0 .30505149404 177.543955077 92.087439065)"/><path d="m0 75.457c1.202-4.381 2.387-8.311 3.352-12.293 1.788-7.383 2.738-14.77.777-22.349-2.562-9.894-8.12-17.738-16.062-23.879-4.078-3.153-8.378-6.243-13.026-8.393-9.9-4.581-20.114-8.543-31.352-7.991-7.941.389-15.433 2.502-22.33 6.57-1.272.751-2.582 1.541-3.979 1.96-3.924 1.178-6.449 3.998-9.161 7.204.978.46 1.698.927 2.486 1.148 16.89 4.724 33.156 10.911 47.983 20.458 6.092 3.922 12.317 7.68 18.126 11.991 8.877 6.587 16.145 14.747 21.749 24.329.139.238.432.385 1.437 1.245" fill="#8abb3b" transform="matrix(.30505149404 0 0 .30505149404 184.028368488 59.3572946516)"/><path d="m0 85.86c-.27-4.274-.81-8.086-.664-11.871.146-3.791.976-7.556 1.461-11.009-7.427-3.05-14.364-5.974-21.362-8.747-5.162-2.045-8.977-5.632-12.051-10.088-2.303-3.339-2.435-12.816-.093-16.1 1.864-2.616 4.022-5.018 5.933-7.619 1.187-1.617 4.024-2.515 6.23-2.764 2.635-.296 4.802-.891 6.776-2.711 1.276-1.174 2.955-1.911 4.73-3.017-1.439-1.852-4.51-2.339-4.242-5.203.201-2.152.557-4.29.885-6.731-.901.405-1.822.731-2.653 1.212-3.056 1.771-6.067 3.62-9.124 5.389-5.305 3.068-9.928 6.922-13.834 11.657-1.317 1.598-2.704 3.179-4.268 4.525-4.544 3.911-7.719 8.895-11.023 13.772-4.891 7.222-9.726 14.482-14.51 21.776-2.703 4.123-2.448 4.885 1.684 7.83 7.692 5.482 16.428 8.678 25.209 11.876 9.67 3.521 19.645 5.376 29.824 6.425 3.518.362 7.02.879 11.092 1.398" fill="#d71240" transform="matrix(.30505149404 0 0 .30505149404 159.835363953 96.554121488)"/><path d="m0-25.241c2.129 1.484 3.446 2.961 3.186 5.493-2.434-1.95-4.577-3.991-7.031-5.537-2.077-1.31-4.448-2.669-6.804-2.918-6.319-.669-12.698-.826-19.057-1.025-1.74-.054-3.535.313-5.24.743-3.795.954-4.152 1.347-4.143 5.108.005 1.896.338 3.823.768 5.68 1.53 6.613 3.166 13.202 4.871 20.254 3.598-.319 7.21-.694 10.83-.948 7.237-.509 14.479-1.122 21.705.171 3.346.598 6.673 1.484 10.045 1.723 7.583.538 15.073-.172 22.259-2.881 3.62-1.365 5.879-4.464 8.337-7.15 2.418-2.643 1.59-5.512-1.484-7.661-.935-.655-2.171-1.503-2.376-2.456-.561-2.597-2.474-3.234-4.514-3.619-3.626-.685-7.297-1.129-10.944-1.706-6.542-1.036-13.08-2.095-20.408-3.271" fill="#b88f62" transform="matrix(.30505149404 0 0 .30505149404 149.510965407 129.585314879)"/><path d="m0 43.807c-1.395-3.444-2.51-6.17-3.603-8.903-1.621-4.057-3.809-7.905-3.646-12.546.054-1.525-.687-3.225-1.48-4.606-3.329-5.801-6.988-11.305-12.809-15.074-3.952-2.559-7.329-5.94-11.982-7.473-7.084-2.335-10.226-.331-9.247 6.944 1.099 8.157 2.236 16.365 6.262 23.848 4.691 8.718 11.24 15.789 18.702 22.099 2.101 1.777 4.456 2.841 7.305 1.087 1.353-.834 3.132-.952 4.563-1.691 1.922-.993 3.695-2.274 5.935-3.685" fill="#7f5338" transform="matrix(.30505149404 0 0 .30505149404 129.764875974 116.2072313)"/><path d="m0 36.7c-5.006-3.335-9.966-6.742-15.025-9.994-17.513-11.256-36.752-18.327-56.879-23.151-3.576-.857-7.293-1.131-10.948-1.662-4.235-.615-8.461-1.321-12.713-1.796-4.532-.504-9.088-.784-13.841-.355 3.697 1.913 7.418 3.784 11.088 5.748 4.563 2.44 9.086 4.957 13.626 7.441 8.416 4.605 16.811 9.198 26.29 11.426 9.779 2.299 19.457 5.031 29.245 7.289 7.044 1.625 14.198 2.762 21.293 4.168 1.591.315 3.128.896 4.713 1.252.936.211 1.918.221 2.879.321z" fill="#8abb3b" transform="matrix(.30505149404 0 0 .30505149404 176.319845421 63.5596806716)"/><path d="m0-7.425c1.259-2.928 2.411-5.179 3.166-7.556.35-1.099.379-2.806-.251-3.596-1.026-1.287-2.482-.935-3.838.251-1.794 1.57-3.676 1.388-5.572-.202-1.462-1.225-3.181-2.145-4.795-3.186-.619-.399-1.23-.84-1.903-1.119-4.549-1.884-7.144-.407-8.608 4.997-2.732.894-5.026 2.414-5.109 5.771-.027 1.146.173 2.305.338 3.447.124.864.742 1.86.478 2.543-1.26 3.267.664 5.545 2.516 7.52 1.891 2.017 4.179 3.881 6.644 5.1 8.878 4.39 17.934 8.37 27.859 9.894 5.335.819 10.621.853 15.821-.648 1.008-.291 2.054-1.159 2.58-2.056.212-.362-.867-1.562-1.459-2.301-2.752-3.434-6.526-5.376-10.349-7.37-2.434-1.269-4.41-3.385-6.714-4.938-2.067-1.392-4.316-2.511-6.46-3.79-1.355-.808-2.665-1.69-4.344-2.761" fill="#f6d7bd" transform="matrix(.30505149404 0 0 .30505149404 158.430419916 110.094736373)"/><path d="m0-26.653c3.381 2.977 3.305 6.211 1.432 9.739-2.052 3.864-1.847 4.305 2.589 6.634 3.5-3.715 3.945-9.839 9.401-12.596.943 3.419-1.582 5.126-2.643 7.349-1.081 2.267-2.248 4.493-3.454 6.888 3.802 3.54 8.12 6.165 12.645 8.672 4.312 2.39 8.098 5.729 12.062 8.61 3.182-2.196 3.202-5.447 3.378-8.212.587-9.231-.734-18.26-4.45-26.804-.715-1.644-1.322-3.708-3.747-3.92-.319-.027-.664-.546-.878-.908-2.426-4.095-5.872-3.917-9.937-2.85-5.736 1.505-11.448 2.873-16.398 7.398" fill="#d71240" transform="matrix(.30505149404 0 0 .30505149404 159.589370625 111.518715608)"/><path d="m0 33.586c3.994-6.13 7.689-11.804 11.65-17.884-5.176-2.795-10.345-5.602-15.532-8.377-1.686-.903-3.445-1.672-5.128-2.584-6.275-3.401-13.208-4.068-20.112-4.666-.87-.075-2.303 1.349-2.761 2.392-1.88 4.275-.667 8.438 2.279 11.5 7.197 7.483 14.827 14.536 25.08 17.809 1.523.486 2.978 1.185 4.524 1.81" fill="#42a648" transform="matrix(.30505149404 0 0 .30505149404 147.275793888 63.6951966389)"/><path d="m0-9.502c.427.451.853.901 1.278 1.351 2.954 1.881 5.981 3.66 8.837 5.68 1.83 1.295 1.644 3.424 1.262 5.328-.872 4.339-1.897 8.647-2.864 12.967-.314 1.402-.642 2.799-.963 4.195 2.875.655 5.441 1.241 8.257 1.883 2.286-2.397 4.134-5.337 5.146-8.486.87-2.707.96-5.685-1.061-8.46-3.108-4.268-5.816-8.828-8.662-13.284-3.291-5.153-7.285-9.714-11.711-13.898-.835-.789-1.88-1.463-2.95-1.88-7.599-2.969-15.44-5.058-23.524-6.214-2.314-.33-4.627-.663-7.563-1.084.413 1.028.552 1.506.783 1.935 5.685 10.544 14.48 17.772 24.847 23.339 1.671.897 3.242 1.979 4.867 2.98 1.863-4.021-1.119-7.437-1.448-11.761 2.549 1.623 4.126 3.39 5.469 5.409" fill="#e1763a" transform="matrix(.30505149404 0 0 .30505149404 178.908632349 83.687059763)"/><path d="m0-10.242c-2.316-1.966-4.445-3.771-6.796-5.766-7.261 5.542-15.858 6.015-24.456 5.996-4.251-.009-8.497-.952-12.752-1.411-2.319-.25-4.651-.372-7.675-.604 1.018 2.768 1.788 4.918 2.598 7.053.629 1.658 1.609 3.246 1.899 4.956.583 3.435 2.827 4.637 5.847 4.873 8.771.685 17.628.911 25.618-3.319 5.182-2.742 9.805-6.546 14.63-9.941.514-.361.709-1.174 1.087-1.837" fill="#9d7248" transform="matrix(.30505149404 0 0 .30505149404 163.127721084 134.328007673)"/><path d="m-5.52-18.85c5.036 5.08 9.86 9.947 14.855 14.986-4.326 3.339-9.504 5.622-14.855 3.085-6.221-2.951-11.234-7.585-11.615-15.435 4.014-.911 7.841-1.78 11.615-2.636" fill="#f6d7bd" transform="matrix(-.2904427117 -.09326954171 -.09326954171 .2904427117 158.733518838 138.50769788)"/><path d="m0 15.062c-2.144-5.927-4.022-11.041-5.833-16.18-.527-1.497-1.543-2.315-3.007-1.966-2.281.546-4.594 1.177-6.696 2.182-1.559.745-2.109 2.191-1.314 4.129 1.792 4.367 3.347 8.832 4.985 13.263.483 1.306 1.42 2.005 2.743 1.603 3.069-.93 6.093-2.013 9.122-3.031" fill="#fff" transform="matrix(.30505149404 0 0 .30505149404 133.876478742 123.808864409)"/><path d="m0-10.71c4.355-.099 8.231.099 10.489 4.057.602 1.052.374 1.52-1.026 3.282-.312-.296-.714-.53-.904-.881-2.399-4.414-6.723-5.284-10.521-2.058-1.23 1.045-2.403 2.159-3.562 3.283-.405.392-.687.909-.99 1.321 3.73 5.539 12.244 7.23 17.309 3.564 4.74-3.431 4.469-10.711-.489-13.718-.75-.455-1.403-1.07-2.108-1.6-3.697-2.774-6.064-2.083-8.198 2.75" fill="#f6d7bd" transform="matrix(.30505149404 0 0 .30505149404 180.347254044 95.05619783)"/><path d="m0-1.598c-1.026-.719-1.985-1.392-3.072-2.154-1.301.546-2.605 1.093-4.445 1.865.122-1.255-.088-2.269.318-2.703 1.643-1.752 3.745-1.733 8.28-.053.612-1.14 1.259-2.342 1.883-3.505-4.917-3.53-7.849-3.648-11.932-.733-3.672 2.622-4.954 7.75-4.049 11.474 1.15 4.729 4.496 7.303 9.805 7.605 1.017-3.735 2.049-7.523 3.212-11.796" fill="#f6d7bd" transform="matrix(.30505149404 0 0 .30505149404 145.378863195 78.926063894)"/><path d="m2.328-.886c4.205 7.153 7.923 13.481 11.636 19.796-2.924 3.146-8.111 3.225-11.636.214-4.757-4.061-6.283-11.556-3.29-16.947.575-1.034 1.798-1.708 3.29-3.063" fill="#f6d7bd" transform="matrix(.298706184 .06189382484 .06189382484 -.298706184 143.453379705 105.005017277)"/><path d="m0 12.051c-.812-4.337-1.586-8.473-2.351-12.556-4.16-1.287-7.542.481-10.946 1.66-2.204.762-1.928 3.004-1.402 4.564.92 2.73 2.369 5.282 3.698 8.124 3.822-.622 7.372-1.201 11.001-1.792" fill="#f6d7bd" transform="matrix(.30505149404 0 0 .30505149404 137.474863287 122.573772908)"/><path d="m0 1.496c-4.255-1.675-7.782-3.1-11.341-4.44-.789-.297-1.689-.301-2.806-.484-.471 1.157-1.095 2.18-1.297 3.282-.67 3.637.39 4.722 4.089 4.892 3.828.178 7.195-1.048 11.355-3.25" fill="#f6d7bd" transform="matrix(.30505149404 0 0 .30505149404 161.296681461 97.746749855)"/><path d="m0-5.769c4.364 2.538 8.205 4.77 12.212 7.1 1.167-2.001.236-3.416-1.183-4.501-3.053-2.334-6.356-3.93-11.029-2.599" fill="#42a648" transform="matrix(.30505149404 0 0 .30505149404 175.815412674 62.5380030251)"/><path d="m0 8.075c2.088-2.225.253-4.042.583-6.278-2.461-.588-4.812-1.15-7.518-1.797.777 4.322 3.597 6.232 6.935 8.075" fill="#e1763a" transform="matrix(.30505149404 0 0 .30505149404 167.291304585 73.406588597)"/><path d="m0-2.979c.864 2.979.864 2.979 6.803 2.473-2.557-.93-4.385-1.594-6.803-2.473" fill="#9d7248" transform="matrix(.30505149404 0 0 .30505149404 142.508208912 120.177534329)"/><path d="m0 8.99c-5.66 7.725-13.2 8.067-20.978 7.467-2.482-.192-4.984-.673-7.376-1.366-2.956-.858-6.098-1.617-8.642-3.232-5.356-3.401-10.447-7.237-15.5-11.086-2.483-1.891-4.248-4.467-5.198-7.445 1.265-1.259 3.648.004 4.191-2.638-2.714-1.374-5.869-.832-8.756-1.505-.637-.149-1.479.583-2.111.858 7.505 10.336 16.461 18.782 27.635 24.489 3.747 1.915 8.11 2.83 12.301 3.627 9.433 1.795 15.645.716 24.042-3.58.69 1.52 1.377 3.038 2.246 4.954.442-.848.824-1.233.771-1.545-.168-1.002-.476-1.983-.768-2.96-.554-1.853-1.135-3.698-1.857-6.038" fill="#1f221d" transform="matrix(.30505149404 0 0 .30505149404 170.68469469 84.317417666)"/><path d="m0 .579c1.725-2.567 4.177-3.785 7.023-4.073 1.098-.111 2.414.021 3.345.546 2.313 1.303 3.319 4.327 2.293 6.072-.961 1.634-3.561 2.211-5.963 1.224-.926-.381-1.761-.984-2.815-1.588-1.183 1.592-.962 3.019.69 3.588 1.887.649 4.05 1.197 5.967.919 4.853-.704 6.488-4.876 3.796-8.943-2.899-4.38-10.895-5.29-14.593-1.665-1.274 1.251-1.482 2.455.257 3.92" fill="#1f221d" transform="matrix(.30505149404 0 0 .30505149404 159.967878216 82.086638885)"/><path d="m0-1.982c6.918-2.624 11.772-1.027 15.966 4.587.662.886 1.56 1.595 2.914 2.951 0-1.56.25-2.431-.041-3.044-2.006-4.23-5.733-6.757-9.718-8.645-2.962-1.405-6.098-.222-8.804 1.455-.394.244-.194 1.446-.317 2.696" fill="#1f221d" transform="matrix(.30505149404 0 0 .30505149404 153.673084662 76.182799013)"/><path d="m0-3.049c5.081-2.188 8.976-.554 16.233 6.945 0-1.215.327-2.263-.05-2.688-3.265-3.683-6.856-7.04-11.925-7.922-1.329-.231-2.896.316-4.226.835-1.348.527-.959 1.602-.032 2.83" fill="#1f221d" transform="matrix(.30505149404 0 0 .30505149404 169.726345683 82.84438619)"/><path d="m0-205.394s31.017-10.833 69.058 17.874c38.04 28.708 17.215 64.497-2.895 66.765-20.11 2.269-39.326-3.798-39.326-3.798s22.212 2.367 35.764 18.284c13.551 15.917-3.318 36.375-13.257 38.936-9.941 2.56-35.181-1.611-45.767-13.557 0 0 4.333 25.243 21.905 31.68s-16.354 36.127-16.354 36.127l70.96 39.427s7.62-14.414-3.709-18.38-18.159-8.383-18.159-8.383h-4.122l-9.068-4.995 4.314-5.113-9.155-6.688 4.946-11.997s-12.971-25.982 12.54-27.839c25.511-1.858 30.76-5.608 27.307-26.902-3.451-21.294-3.838-29.105 3.596-32.233s22.529 7.656 29.048-3.321c6.52-10.978.737-21.266.737-21.266s4.407 26.046-23.867 11.34c0 0 20.651 3.527 17.496-4.762-3.154-8.288-12.096-6.759-12.096-6.759s19.017-.928 14.32-19.845l3.106-9.194s16.431-47.664-16.004-61.745c0 0 31.533 48.554-18.952 34.358-50.483-14.196-48.659-5.205-66.327-17.355-17.668-12.149-16.039 9.341-16.039 9.341" fill="#341b12" opacity=".2" transform="matrix(.30505149404 0 0 .30505149404 148.79461992927 134.69588648971)"/><path d="m0 10.508s18.101-14.565 34.338-5.341c16.238 9.223-1.769 3.429-15.521 6.326s-25.277 3.072-18.817-.985" fill="#b2ca2f" transform="matrix(.30505149404 0 0 .30505149404 158.994886749 60.2111697065)"/><path d="m0-21.713s17.961-5.194 24.583 10.857c6.621 16.05-14.252-6.517-20.245-6.243-5.993.273-4.338-4.614-4.338-4.614" fill="#916041" transform="matrix(.30505149404 0 0 .30505149404 118.512145464 123.751758815)"/><path d="m0 19.164c-3.354 0-6.205-.367-8.553-1.102-3.499-1.121-5.595-2.961-6.291-5.523-.058-.212-.087-.526-.087-.942 0-2.155 1.299-4.465 3.899-6.929 1.904-1.817 4.083-3.373 6.538-4.668l.942 4.349c-1.614.687-3.044 1.537-4.291 2.551-1.691 1.402-2.536 2.788-2.536 4.161 0 1.749 1.261 2.977 3.783 3.682 1.73.493 3.624.691 5.682.594z" fill="#dac384" stroke="#341b12" stroke-width="1.15" transform="matrix(.30505149404 0 0 .30505149404 52.8987697179 15.2232363287)"/><path d="m0 4.871-2.551-7.233-.971 7.914zm6.523 6.451-4.305.565-1.334-3.885-4.798 1.015-.392 3.377-4.334-.159 3.537-19.614 3.914-.144z" fill="#dac384" stroke="#341b12" stroke-width="1.15" transform="matrix(.30505149404 0 0 .30505149404 55.2070071123 17.5182955091)"/><path d="m0 20.933-4.392-.203-.884-16.25-2.798 15.511-2.595-.044-1.725-13.728-1.986 13.743-4.132-.609 2.624-19.353 4.45.551 2.276 13.236 2.276-13.062 6.132.464z" fill="#dac384" stroke="#341b12" stroke-width="1.15" transform="matrix(.30505149404 0 0 .30505149404 62.7996351084 14.8737940208)"/><path d="m0-8.03c0-1.846-1.759-2.769-5.277-2.769-.377 0-.749.012-1.116.037-.367.024-.734.06-1.102.108l.363 5.958c4.755-.348 7.132-1.459 7.132-3.334m4.305-.058c0 1.875-1.363 3.542-4.088 5.001-1.72.928-3.846 1.711-6.378 2.349l.449 6.508-3.841-.072-1.058-19.396c.434-.039.872-.065 1.312-.08.439-.014.891-.022 1.355-.022 2.889 0 5.339.295 7.349.885 3.267.956 4.9 2.566 4.9 4.827" fill="#dac384" transform="matrix(.30505149404 0 0 .30505149404 66.3153629667 19.4992007102)"/></g><path d="m0-8.03c0-1.846-1.759-2.769-5.277-2.769-.377 0-.749.012-1.116.037-.367.024-.734.06-1.102.108l.363 5.958c4.755-.348 7.132-1.459 7.132-3.334zm4.305-.058c0 1.875-1.363 3.542-4.088 5.001-1.72.928-3.846 1.711-6.378 2.349l.449 6.508-3.841-.072-1.058-19.396c.434-.039.872-.065 1.312-.08.439-.014.891-.022 1.355-.022 2.889 0 5.339.295 7.349.885 3.267.956 4.9 2.566 4.9 4.827z" fill="none" stroke="#341b12" stroke-width="1.15" transform="matrix(.30505149404 0 0 .30505149404 66.3153629667 19.4992007102)"/><path d="m0 4.871-2.551-7.233-.971 7.914zm6.523 6.451-4.305.565-1.334-3.885-4.798 1.015-.392 3.377-4.334-.159 3.537-19.614 3.914-.144z" fill="#dac384" fill-rule="nonzero" stroke="#341b12" stroke-width="1.15" transform="matrix(.30505149404 0 0 .30505149404 70.1051244639 17.5182955091)"/><path d="m0 20.933-4.392-.203-.884-16.25-2.798 15.511-2.595-.044-1.725-13.728-1.986 13.743-4.132-.609 2.624-19.353 4.45.551 2.276 13.236 2.276-13.062 6.132.464z" fill="#dac384" fill-rule="nonzero" stroke="#341b12" stroke-width="1.15" transform="matrix(.30505149404 0 0 .30505149404 77.69775246 14.8737940208)"/><path d="m0 18.076-12.423 1.421-1.537-19.454 12.67-1.464.319 4.117-8.654 1.014.449 4.146 5.436-.579.304 3.551-6.436.623.319 3.885 9.306-1.087z" fill="#dac384" fill-rule="nonzero" stroke="#341b12" stroke-width="1.15" transform="matrix(.30505149404 0 0 .30505149404 82.217147739 15.426839735)"/><path d="m0 18.627-4.465.42-6.074-14.177.696 14.453-4.102-.058-.972-19.44 4.711-.13 5.321 12.989-1.073-13.38 4.407.029z" fill="#dac384" fill-rule="nonzero" stroke="#341b12" stroke-width="1.15" transform="matrix(.30505149404 0 0 .30505149404 86.8559522793 15.4047296204)"/><path d="m0-18.12-.232 3.885-5.334-.261-.798 15.482-3.986-.029.898-15.685-4.856-.493.073-3.885z" fill="#dac384" fill-rule="nonzero" stroke="#341b12" stroke-width="1.15" transform="matrix(.30505149404 0 0 .30505149404 91.4504633781 20.9586879107)"/><path d="m0-.739c0-1.585-.435-2.923-1.305-4.016-.889-1.121-2.044-1.681-3.465-1.681-1.43 0-2.623.643-3.58 1.928-.899 1.188-1.348 2.6-1.348 4.233 0 1.614.444 2.967 1.334 4.058.898 1.093 2.063 1.639 3.493 1.639 1.459 0 2.648-.638 3.566-1.914.87-1.188 1.305-2.604 1.305-4.247m3.972.246c0 2.774-.826 5.123-2.479 7.046-1.662 1.98-3.735 2.971-6.219 2.971-2.474 0-4.557-.932-6.248-2.798-1.681-1.864-2.522-4.179-2.522-6.944 0-2.783.831-5.15 2.493-7.103 1.672-1.961 3.74-2.942 6.205-2.942 2.473 0 4.551.942 6.233 2.827 1.691 1.865 2.537 4.179 2.537 6.943" fill="#dac384" fill-rule="nonzero" transform="matrix(.30505149404 0 0 .30505149404 95.5453005294 18.3540139136)"/><path d="m0-.739c0-1.585-.435-2.923-1.305-4.016-.889-1.121-2.044-1.681-3.465-1.681-1.43 0-2.623.643-3.58 1.928-.899 1.188-1.348 2.6-1.348 4.233 0 1.614.444 2.967 1.334 4.058.898 1.093 2.063 1.639 3.493 1.639 1.459 0 2.648-.638 3.566-1.914.87-1.188 1.305-2.604 1.305-4.247zm3.972.246c0 2.774-.826 5.123-2.479 7.046-1.662 1.98-3.735 2.971-6.219 2.971-2.474 0-4.557-.932-6.248-2.798-1.681-1.864-2.522-4.179-2.522-6.944 0-2.783.831-5.15 2.493-7.103 1.672-1.961 3.74-2.942 6.205-2.942 2.473 0 4.551.942 6.233 2.827 1.691 1.865 2.537 4.179 2.537 6.943z" fill="none" stroke="#341b12" stroke-width="1.15" transform="matrix(.30505149404 0 0 .30505149404 95.5453005294 18.3540139136)"/><path d="m-12.181-7.662h19.625l-.222-3.916-19.559-.127z" fill="#dac384" fill-rule="nonzero" stroke="#341b12" stroke-width="1.15" transform="matrix(-.01554443554 .30465468337 .30465468337 .01554443554 60.5506264647 27.4738504877)"/><path d="m0 18.627-4.465.42-6.074-14.177.696 14.453-4.102-.058-.972-19.44 4.711-.13 5.321 12.989-1.073-13.38 4.407.029z" fill="#dac384" fill-rule="nonzero" stroke="#341b12" stroke-width="1.15" transform="matrix(.30505149404 0 0 .30505149404 63.3097784148 23.7457337471)"/><path d="m0-18.251-.304 3.609-8.597-.55-.304 3.87 5.146.435-.275 3.914-6.06-.391-.463 8.161-3.914-.072 1.145-19.773z" fill="#dac384" fill-rule="nonzero" stroke="#341b12" stroke-width="1.15" transform="matrix(.30505149404 0 0 .30505149404 68.0458088895 29.3573101175)"/><path d="m0 4.871-2.551-7.233-.971 7.914zm6.523 6.451-4.305.565-1.334-3.885-4.798 1.015-.392 3.377-4.334-.159 3.537-19.614 3.914-.144z" fill="#dac384" fill-rule="nonzero" stroke="#341b12" stroke-width="1.15" transform="matrix(.30505149404 0 0 .30505149404 70.3497999705 25.8592264235)"/><path d="m0 18.627-4.465.42-6.074-14.177.696 14.453-4.102-.058-.972-19.44 4.711-.13 5.321 12.989-1.073-13.38 4.407.029z" fill="#dac384" fill-rule="nonzero" stroke="#341b12" stroke-width="1.15" transform="matrix(.30505149404 0 0 .30505149404 76.7839165314 23.7457337471)"/><path d="m0-18.12-.232 3.885-5.334-.261-.798 15.482-3.986-.029.898-15.685-4.856-.493.073-3.885z" fill="#dac384" fill-rule="nonzero" stroke="#341b12" stroke-width="1.15" transform="matrix(.30505149404 0 0 .30505149404 81.3784276302 29.2996188251)"/><path d="m-12.181-7.662h19.625l-.222-3.916-19.559-.127z" fill="#dac384" fill-rule="nonzero" stroke="#341b12" stroke-width="1.15" transform="matrix(-.01554443554 .30465468337 .30465468337 .01554443554 85.2214876818 27.4738504877)"/><path d="m0 17.396-10.626 1.261-1.914-19.7 3.639-.218 1.363 15.83 7.248-.884z" fill="#dac384" fill-rule="nonzero" stroke="#341b12" stroke-width="1.15" transform="matrix(.30505149404 0 0 .30505149404 87.0299047041 23.9089971761)"/></svg>