<?xml version="1.0" encoding="UTF-8" standalone="no"?><!DOCTYPE svg PUBLIC "-//W3C//DTD SVG 1.1//EN" "http://www.w3.org/Graphics/SVG/1.1/DTD/svg11.dtd"><svg width="100%" height="100%" viewBox="0 0 258 164" version="1.1" xmlns="http://www.w3.org/2000/svg" xmlns:xlink="http://www.w3.org/1999/xlink" xml:space="preserve" xmlns:serif="http://www.serif.com/" style="fill-rule:evenodd;clip-rule:evenodd;stroke-linecap:round;stroke-linejoin:round;stroke-miterlimit:10;"><g><g><clipPath id="_clip1"><path d="M22.89,8.044c-5.372,0 -9.767,4.395 -9.767,9.766l0,111.593c0,5.371 4.395,9.766 9.767,9.766l200.914,0c5.371,0 9.766,-4.395 9.766,-9.766l0,-111.593c0,-5.371 -4.395,-9.766 -9.766,-9.766l-200.914,0Z" clip-rule="nonzero"/></clipPath><g clip-path="url(#_clip1)"><path d="M221.551,139.614l-200.914,0c-5.372,0 -9.766,-4.395 -9.766,-9.766l0,-111.593c0,-5.371 4.394,-9.766 9.766,-9.766l200.914,0c5.371,0 9.766,4.395 9.766,9.766l0,111.593c0,5.371 -4.395,9.766 -9.766,9.766" style="fill:#54616e;fill-rule:nonzero;"/><rect x="115.176" y="8.49" width="27.102" height="79.925" style="fill:#a5dde9;"/><rect x="115.176" y="30.839" width="9.587" height="37.319" style="fill:#54be8a;"/><rect x="124.763" y="27.051" width="17.514" height="39.795" style="fill:#ffe06f;"/><path d="M17.835,139.2l97.341,-50.607l0,-80.104l-104.306,0l0,130.711l6.965,0Z" style="fill:#637180;fill-rule:nonzero;"/><path d="M221.551,139.614l-79.273,-51.199l0,-79.926l93.306,0l0,131.125l-14.033,0Z" style="fill:#637180;fill-rule:nonzero;"/><rect x="115.176" y="77.654" width="27.102" height="10.761" style="fill:#adb7bc;"/><rect x="115.176" y="64.906" width="27.102" height="12.746" style="fill:#d2d5df;"/></g></g><g><clipPath id="_clip2"><rect x="128.518" y="49.001" width="13.76" height="27.578" clip-rule="nonzero"/></clipPath><g clip-path="url(#_clip2)"><path d="M131.564,70.179c0.01,0.275 29.252,0 29.252,0l0,-19.243l-11.775,0c0,0 -2.115,-0.183 -2.851,2.485c-0.736,2.667 -2.576,5.518 -3.496,5.703c-0.92,0.184 -11.498,0.033 -11.13,11.055" style="fill:#ef4623;fill-rule:nonzero;"/><path d="M146.19,53.42c0,0 3.312,-1.196 4.139,1.012c0.829,2.207 -1.104,4.783 -1.104,4.783l-6.53,-0.092c0,0 1.563,-0.091 3.495,-5.703" style="fill:#c4e7eb;fill-rule:nonzero;"/><path d="M135.657,65.7c-0.389,0.943 -1.191,1.508 -1.791,1.26c-0.6,-0.247 -0.771,-1.213 -0.381,-2.156c0.39,-0.944 1.191,-1.508 1.791,-1.26c0.601,0.247 0.771,1.213 0.381,2.156" style="fill:#ffdd18;fill-rule:nonzero;"/><path d="M131.564,70.179c0.01,0.275 29.252,0 29.252,0l0,-19.243l-11.775,0c0,0 -2.115,-0.183 -2.851,2.485c-0.736,2.667 -2.576,5.518 -3.496,5.703c-0.92,0.184 -11.498,0.033 -11.13,11.055Z" style="fill:none;fill-rule:nonzero;stroke:#231f20;stroke-width:0.49px;"/><path d="M160.273,70.898l-28.505,0c-0.806,0 -1.464,-0.658 -1.464,-1.464c0,-0.805 0.658,-1.463 1.464,-1.463l28.505,0c0.805,0 1.464,0.658 1.464,1.463c0,0.806 -0.659,1.464 -1.464,1.464Z" style="fill:#be1e2d;fill-rule:nonzero;stroke:#231f20;stroke-width:0.49px;"/><path d="M147.098,70.179c0,2.721 -2.206,4.927 -4.927,4.927c-2.722,0 -4.928,-2.206 -4.928,-4.927c0,-2.722 2.206,-4.927 4.928,-4.927c2.721,0 4.927,2.205 4.927,4.927" style="fill:#637180;fill-rule:nonzero;"/><path d="M147.098,70.179c0,-2.72 -2.208,-4.927 -4.927,-4.927c-2.72,0 -4.928,2.207 -4.928,4.927c0,2.719 2.208,4.927 4.928,4.927c2.719,0 4.927,-2.208 4.927,-4.927Z" style="fill:none;stroke:#231f20;stroke-width:0.49px;"/><path d="M144.378,70.179c0,1.219 -0.988,2.207 -2.207,2.207c-1.22,0 -2.208,-0.988 -2.208,-2.207c0,-1.22 0.988,-2.208 2.208,-2.208c1.219,0 2.207,0.988 2.207,2.208" style="fill:#518ea8;fill-rule:nonzero;"/></g></g><g><clipPath id="_clip3"><path d="M22.89,8.044c-5.372,0 -9.767,4.395 -9.767,9.766l0,111.593c0,5.371 4.395,9.766 9.767,9.766l200.914,0c5.371,0 9.766,-4.395 9.766,-9.766l0,-111.593c0,-5.371 -4.395,-9.766 -9.766,-9.766l-200.914,0Z" clip-rule="nonzero"/></clipPath><g clip-path="url(#_clip3)"><path d="M71.563,112.845l0,-6.138l8.249,5.128l16.439,-2.851l0,4.834l-16.651,3.325l-8.037,-4.298Z" style="fill:#4a5f6e;fill-rule:nonzero;"/><path d="M71.563,106.707l13.538,-1.922l11.15,4.198l-16.439,2.852l-8.249,-5.128Z" style="fill:#61829e;fill-rule:nonzero;"/><path d="M85.736,8.474l-6.77,0l0,98.577c0,0.931 0.756,1.687 1.687,1.687l3.283,0c0.994,0 1.8,-0.805 1.8,-1.8l0,-98.464Z" style="fill:#4a5f6e;fill-rule:nonzero;"/><path d="M142.278,38.316l14.567,7.917l0,-14.293l-14.567,-3.507l0,9.883Z" style="fill:#54616e;fill-rule:nonzero;"/><path d="M142.278,56.674l8.787,4.777l0.148,-11.623l-8.935,-3.037l0,9.883Z" style="fill:#54616e;fill-rule:nonzero;"/><path d="M86.068,25.988c8.659,0.139 17.316,0.277 25.975,0.415c0.603,0.01 0.603,-0.928 0,-0.937c-8.659,-0.139 -17.316,-0.277 -25.975,-0.415c-0.603,-0.01 -0.604,0.927 0,0.937" style="fill:#4a5f6e;fill-rule:nonzero;"/><path d="M95.853,29.544c3.973,-0.066 7.947,-0.134 11.919,-0.201c0.603,-0.01 0.605,-0.947 0,-0.938c-3.972,0.068 -7.946,0.135 -11.919,0.202c-0.603,0.009 -0.605,0.948 0,0.937" style="fill:#4a5f6e;fill-rule:nonzero;"/><path d="M104.754,22.845c-0.409,4.804 -0.818,9.608 -1.228,14.413c-0.051,0.6 0.887,0.597 0.938,0c0.409,-4.805 0.818,-9.609 1.227,-14.413c0.052,-0.601 -0.885,-0.598 -0.937,0" style="fill:#4a5f6e;fill-rule:nonzero;"/><path d="M100.699,22.848c-0.178,1.659 -0.225,3.317 -0.143,4.984c0.032,0.6 0.969,0.604 0.938,0c-0.083,-1.667 -0.035,-3.325 0.142,-4.984c0.064,-0.599 -0.874,-0.595 -0.937,0" style="fill:#4a5f6e;fill-rule:nonzero;"/><path d="M171.047,108.339c-1.249,-0.794 -3.172,-0.067 -3.585,1.355c-0.098,0.333 -0.144,0.722 -0.426,0.923c-0.282,0.202 -0.667,0.12 -1.002,0.036c-1.966,-0.492 -3.986,-0.761 -6.012,-0.803c-0.617,-0.013 -1.375,0.084 -1.608,0.656c-0.117,0.285 -0.061,0.62 -0.197,0.897c-0.364,0.742 -1.672,0.432 -2.121,1.127c-0.279,0.431 -0.041,1.041 0.369,1.35c0.412,0.31 0.939,0.402 1.441,0.511c1.081,0.234 2.136,0.588 3.141,1.049c0.184,0.086 0.38,0.186 0.47,0.37c0.185,0.378 -0.186,0.772 -0.348,1.161c-0.245,0.589 0.028,1.296 0.503,1.721c0.475,0.425 1.11,0.621 1.732,0.759c1.636,0.361 3.344,0.391 4.991,0.09c-0.047,1.128 0.361,2.33 1.283,2.981c0.921,0.652 2.381,0.545 3.012,-0.391c0.298,-0.443 0.383,-0.993 0.444,-1.523c0.375,-3.285 0.1,-6.607 -0.175,-9.902c-0.057,-0.686 -0.125,-1.404 -0.502,-1.981c-0.376,-0.577 -1.168,-0.946 -1.775,-0.62" style="fill:#637180;fill-rule:nonzero;"/><path d="M73.478,134.778c13.569,-9.415 26.714,-19.401 39.423,-29.945c0.465,-0.386 -0.202,-1.046 -0.664,-0.663c-12.648,10.493 -25.73,20.429 -39.232,29.798c-0.492,0.342 -0.024,1.156 0.473,0.81" style="fill:#4a5f6e;fill-rule:nonzero;"/><path d="M108.613,121.54c4.862,-5.05 9.62,-10.196 14.275,-15.438c0.399,-0.45 -0.261,-1.115 -0.663,-0.663c-4.655,5.242 -9.413,10.388 -14.275,15.438c-0.418,0.435 0.243,1.099 0.663,0.663" style="fill:#4a5f6e;fill-rule:nonzero;"/><path d="M130.948,109.848c0.253,6.943 0.196,13.875 -0.171,20.814c-0.031,0.603 0.906,0.601 0.938,0c0.367,-6.939 0.423,-13.871 0.17,-20.814c-0.021,-0.602 -0.959,-0.605 -0.937,0" style="fill:#4a5f6e;fill-rule:nonzero;"/><path d="M137.356,106.601c1.318,4.592 2.534,9.208 3.649,13.854c0.14,0.586 1.045,0.338 0.904,-0.25c-1.114,-4.645 -2.331,-9.262 -3.649,-13.853c-0.166,-0.579 -1.071,-0.333 -0.904,0.249" style="fill:#4a5f6e;fill-rule:nonzero;"/><path d="M167.78,75.11l5.44,56.381c0,2.864 8.385,5.185 18.728,5.185c10.344,0 18.728,-2.321 18.728,-5.185l6.805,-56.381l-49.701,0Z" style="fill:#61829e;fill-rule:nonzero;"/><rect x="164.988" y="71.22" width="55.409" height="9.074" style="fill:#4a5f6e;"/><path d="M203.266,128.207c-0.957,-0.175 -1.597,-1.102 -1.422,-2.058l7.093,-38.732c0.174,-0.957 1.102,-1.595 2.058,-1.42c0.957,0.175 1.597,1.101 1.421,2.058l-7.092,38.731c-0.175,0.957 -1.102,1.597 -2.058,1.421" style="fill:#4a5f6e;fill-rule:nonzero;"/><path d="M181.371,128.207c0.956,-0.175 1.597,-1.102 1.421,-2.058l-7.092,-38.732c-0.175,-0.957 -1.102,-1.595 -2.059,-1.42c-0.957,0.175 -1.597,1.101 -1.421,2.058l7.093,38.731c0.174,0.957 1.101,1.597 2.058,1.421" style="fill:#4a5f6e;fill-rule:nonzero;"/><path d="M192.693,128.558c-0.973,0 -1.77,-0.796 -1.77,-1.769l0,-39.374c0,-0.973 0.797,-1.77 1.77,-1.77c0.973,0 1.769,0.797 1.769,1.77l0,39.374c0,0.973 -0.796,1.769 -1.769,1.769" style="fill:#4a5f6e;fill-rule:nonzero;"/><path d="M202.439,73.1l-17.996,0l0,-1.404c0,-2.028 1.645,-3.671 3.672,-3.671l10.652,0c2.027,0 3.672,1.643 3.672,3.671l0,1.404Z" style="fill:#4a5f6e;fill-rule:nonzero;"/><g opacity="0.2"><path d="M164.988,71.221c0,0 0.072,10.038 20.71,7.698c20.637,-2.34 12.302,12.2 8.764,26.557c-3.538,14.357 10.538,17.606 8.804,22.731c-1.735,5.125 -18.822,8.034 -18.822,8.034c0,0 23.239,2.774 26.232,-4.75l6.123,-50.729l3.598,-0.467l0,-9.074l-17.957,0.475l-37.452,-0.475Z" style="fill:#2f2e4f;fill-rule:nonzero;"/></g><path d="M205.231,90.089l5.44,56.381c0,2.864 8.385,5.186 18.728,5.186c10.343,0 18.728,-2.322 18.728,-5.186l6.805,-56.381l-49.701,0Z" style="fill:#61829e;fill-rule:nonzero;"/><rect x="202.439" y="86.199" width="55.409" height="9.073" style="fill:#4a5f6e;"/><path d="M218.822,143.187c0.956,-0.176 1.597,-1.102 1.421,-2.059l-7.092,-38.731c-0.175,-0.957 -1.102,-1.596 -2.059,-1.42c-0.957,0.174 -1.597,1.101 -1.421,2.057l7.092,38.731c0.175,0.957 1.102,1.597 2.059,1.422" style="fill:#4a5f6e;fill-rule:nonzero;"/><path d="M230.143,143.537c-0.973,0 -1.769,-0.796 -1.769,-1.77l0,-39.374c0,-0.973 0.796,-1.769 1.769,-1.769c0.973,0 1.77,0.796 1.77,1.769l0,39.374c0,0.974 -0.797,1.77 -1.77,1.77" style="fill:#4a5f6e;fill-rule:nonzero;"/><path d="M239.89,88.079l-17.996,0l0,-1.403c0,-2.029 1.644,-3.672 3.671,-3.672l10.653,0c2.027,0 3.672,1.643 3.672,3.672l0,1.403Z" style="fill:#4a5f6e;fill-rule:nonzero;"/><g opacity="0.2"><path d="M202.439,86.201c0,0 0.072,10.038 20.71,7.698c20.637,-2.34 12.301,12.2 8.764,26.557c-3.538,14.357 10.538,17.606 8.803,22.731c-1.734,5.125 -18.821,8.034 -18.821,8.034c0,0 23.239,2.773 26.232,-4.75l6.123,-50.729l3.598,-0.468l0,-9.073l-17.957,0.475l-37.452,-0.475Z" style="fill:#2f2e4f;fill-rule:nonzero;"/></g><path d="M52.628,101.285l-5.441,56.381c0,2.864 -8.384,5.186 -18.728,5.186c-10.343,0 -18.728,-2.322 -18.728,-5.186l-6.805,-56.381l49.702,0Z" style="fill:#61829e;fill-rule:nonzero;"/><rect x="0.01" y="97.396" width="55.409" height="9.073" style="fill:#4a5f6e;"/><path d="M17.142,154.383c0.956,-0.176 1.597,-1.102 1.421,-2.059l-7.092,-38.731c-0.175,-0.957 -1.102,-1.596 -2.058,-1.421c-0.958,0.175 -1.597,1.102 -1.422,2.058l7.093,38.731c0.174,0.957 1.102,1.597 2.058,1.422" style="fill:#4a5f6e;fill-rule:nonzero;"/><path d="M39.037,154.383c-0.957,-0.176 -1.597,-1.102 -1.421,-2.059l7.092,-38.731c0.175,-0.957 1.102,-1.596 2.058,-1.421c0.958,0.175 1.597,1.102 1.422,2.058l-7.093,38.731c-0.174,0.957 -1.102,1.597 -2.058,1.422" style="fill:#4a5f6e;fill-rule:nonzero;"/><path d="M27.715,154.734c0.973,0 1.77,-0.796 1.77,-1.77l0,-39.374c0,-0.973 -0.797,-1.769 -1.77,-1.769c-0.973,0 -1.77,0.796 -1.77,1.769l0,39.374c0,0.974 0.797,1.77 1.77,1.77" style="fill:#4a5f6e;fill-rule:nonzero;"/><path d="M17.969,99.275l17.996,0l0,-1.403c0,-2.029 -1.645,-3.672 -3.672,-3.672l-10.652,0c-2.028,0 -3.672,1.643 -3.672,3.672l0,1.403Z" style="fill:#4a5f6e;fill-rule:nonzero;"/><g opacity="0.2"><path d="M55.42,97.397c0,0 -0.072,10.038 -20.71,7.698c-20.637,-2.34 -12.302,12.2 -8.765,26.557c3.539,14.357 -10.537,17.606 -8.803,22.731c1.734,5.125 18.822,8.034 18.822,8.034c0,0 -23.239,2.773 -26.233,-4.75l-6.122,-50.729l-3.598,-0.468l0,-9.073l17.957,0.475l37.452,-0.475Z" style="fill:#2f2e4f;fill-rule:nonzero;"/></g><path d="M54.359,86.68c8.176,-2.345 16.415,-4.424 24.724,-6.241c0.588,-0.129 0.339,-1.033 -0.25,-0.904c-8.308,1.817 -16.547,3.897 -24.723,6.241c-0.579,0.166 -0.333,1.071 0.249,0.904" style="fill:#4a5f6e;fill-rule:nonzero;"/><path d="M62.17,86.611c4.21,-0.835 8.419,-1.671 12.628,-2.507c0.591,-0.117 0.341,-1.02 -0.249,-0.903c-4.21,0.835 -8.419,1.671 -12.628,2.506c-0.591,0.117 -0.341,1.021 0.249,0.904" style="fill:#4a5f6e;fill-rule:nonzero;"/><path d="M72.217,78.006c0.3,3.195 0.433,6.394 0.402,9.603c-0.006,0.603 0.932,0.604 0.938,0c0.03,-3.209 -0.103,-6.408 -0.403,-9.603c-0.055,-0.596 -0.994,-0.602 -0.937,0" style="fill:#4a5f6e;fill-rule:nonzero;"/><path d="M68.158,76.579c0.076,1.956 0.152,3.912 0.229,5.869c0.024,0.601 0.961,0.604 0.938,0c-0.077,-1.957 -0.153,-3.913 -0.229,-5.869c-0.024,-0.602 -0.961,-0.604 -0.938,0" style="fill:#4a5f6e;fill-rule:nonzero;"/><path d="M130.606,61.163c0.653,-0.346 1.217,-0.585 1.713,-0.924c0.56,-0.381 0.597,-0.683 0.33,-1.444c-0.096,0.102 -0.185,0.178 -0.248,0.271c-0.734,1.068 -2.062,1.587 -3.281,1.28c-0.51,-0.128 -0.594,-0.255 -0.574,-0.816c0.005,-0.18 0.005,-0.371 -0.044,-0.542c-0.028,-0.093 -0.156,-0.207 -0.25,-0.217c-0.069,-0.006 -0.193,0.123 -0.229,0.216c-0.703,1.848 -2.822,2.524 -4.434,1.397c-0.19,-0.134 -0.302,-0.375 -0.474,-0.542c-0.076,-0.075 -0.243,-0.155 -0.31,-0.119c-0.119,0.06 -0.276,0.214 -0.27,0.318c0.019,0.231 0.151,0.452 0.195,0.685c0.043,0.227 0.121,0.507 0.029,0.685c-0.149,0.291 -0.47,0.187 -0.743,0.128c-0.485,-0.104 -0.833,-0.343 -0.997,-0.839c-0.033,-0.097 -0.226,-0.141 -0.345,-0.208c-0.065,0.126 -0.181,0.25 -0.186,0.378c-0.007,0.177 0.09,0.355 0.105,0.536c0.024,0.303 0.053,0.612 0.015,0.91c-0.021,0.154 -0.153,0.332 -0.286,0.415c-0.065,0.041 -0.298,-0.081 -0.372,-0.186c-0.244,-0.348 -0.459,-0.717 -0.664,-1.09c-0.071,-0.13 -0.061,-0.303 -0.128,-0.436c-0.048,-0.096 -0.161,-0.159 -0.245,-0.236c-0.091,0.105 -0.23,0.196 -0.264,0.318c-0.048,0.169 -0.021,0.363 -0.025,0.546c-0.015,0.758 -0.374,1.278 -1.092,1.531c-0.724,0.257 -1.448,0.446 -2.235,0.221c-0.444,-0.127 -0.592,0.09 -0.524,0.586c0.038,0.269 0.067,0.556 0.012,0.818c-0.33,1.562 -1.063,2.852 -2.542,3.614c-0.189,0.099 -0.38,0.197 -0.564,0.306c-0.047,0.028 -0.07,0.097 -0.14,0.202c0.439,0.269 0.525,0.633 0.309,1.127c-0.112,0.257 -0.048,0.591 -0.066,0.932c-0.311,-0.053 -0.569,-0.116 -0.833,-0.137c-1.023,-0.085 -1.517,0.185 -1.978,1.128c-0.159,0.325 -0.249,0.686 -0.34,1.039c-0.074,0.281 -0.22,0.429 -0.513,0.401c-0.212,-0.02 -0.432,-0.024 -0.633,-0.084c-0.64,-0.188 -0.727,-0.441 -0.382,-1.039c0.171,-0.298 0.112,-0.449 -0.213,-0.51c-0.27,-0.052 -0.545,-0.074 -0.812,-0.131c-0.99,-0.212 -1.006,-0.989 -0.721,-1.618c0.098,-0.216 0.281,-0.396 0.439,-0.581c0.379,-0.444 0.4,-0.535 -0.1,-0.706c-0.501,-0.173 -0.563,-0.482 -0.525,-0.919c0.058,-0.666 0.291,-1.23 0.791,-1.701c0.455,-0.431 0.417,-0.606 -0.189,-0.798c-0.88,-0.279 -1.606,-0.741 -2.114,-1.521c-0.172,-0.264 -0.342,-0.563 -0.115,-0.845c0.18,-0.224 0.443,-0.388 0.69,-0.545c0.09,-0.057 0.248,0.008 0.359,-0.029c0.188,-0.062 0.459,-0.117 0.52,-0.252c0.121,-0.268 -0.192,-0.32 -0.359,-0.426c-0.103,-0.065 -0.225,-0.103 -0.322,-0.175c-0.273,-0.204 -0.553,-0.403 -0.395,-0.825c0.167,-0.449 0.528,-0.701 0.964,-0.705c0.306,-0.003 0.663,0.422 0.88,-0.006c0.062,-0.121 -0.32,-0.444 -0.463,-0.695c-0.302,-0.525 -0.248,-1.063 0.027,-1.578c0.129,-0.242 0.364,-0.331 0.629,-0.236c0.259,0.092 0.501,0.23 0.759,0.319c0.132,0.047 0.385,0.084 0.408,0.037c0.071,-0.14 0.086,-0.327 0.067,-0.489c-0.021,-0.179 -0.127,-0.347 -0.155,-0.527c-0.041,-0.269 -0.092,-0.55 -0.059,-0.815c0.09,-0.713 0.505,-0.959 1.227,-0.863c0.374,0.05 0.793,0.5 1.093,0.125c0.168,-0.212 -0.004,-0.687 -0.009,-1.046c-0.015,-1.063 1.103,-1.746 2.185,-1.339c0.057,0.022 0.11,0.054 0.165,0.08c0.74,0.366 0.738,0.365 1.016,-0.36c0.055,-0.143 0.114,-0.286 0.191,-0.417c0.717,-1.204 1.896,-1.279 2.763,-0.179c0.075,0.096 0.115,0.224 0.202,0.305c0.124,0.118 0.274,0.207 0.414,0.308c0.093,-0.14 0.241,-0.271 0.268,-0.423c0.075,-0.425 0.352,-0.676 0.718,-0.747c0.473,-0.091 0.967,-0.113 1.448,-0.092c0.362,0.015 0.578,0.295 0.734,0.62c0.07,0.148 0.233,0.355 0.347,0.351c0.13,-0.005 0.322,-0.192 0.369,-0.338c0.226,-0.714 0.781,-1.082 1.402,-1.364c0.272,-0.123 0.586,-0.182 0.886,-0.202c0.572,-0.037 0.774,0.123 0.895,0.687c0.064,0.294 0.012,0.683 0.42,0.695c0.337,0.009 0.376,-0.361 0.455,-0.612c0.167,-0.519 0.53,-0.853 1.027,-0.958c0.529,-0.112 1.09,-0.175 1.626,-0.13c0.621,0.052 1.011,0.553 1.076,1.187c0.012,0.121 -0.031,0.258 0.011,0.365c0.072,0.181 0.191,0.344 0.29,0.515c0.159,-0.115 0.382,-0.196 0.469,-0.352c0.338,-0.605 0.785,-1.011 1.509,-1.034c0.628,-0.019 0.904,0.176 1.027,0.797c0.09,0.45 0.122,0.91 0.197,1.362c0.074,0.438 0.323,0.548 0.72,0.335c0.026,-0.015 0.046,-0.042 0.071,-0.058c0.933,-0.551 1.422,-0.386 1.777,0.642c0.253,0.737 0.275,1.49 0.051,2.252c-0.163,0.56 -0.106,0.544 0.42,0.77c0.613,0.263 1.212,0.579 1.76,0.957c0.614,0.423 0.751,1.038 0.395,1.694c-0.244,0.448 -0.612,0.832 -0.93,1.239c-0.302,0.386 -0.349,0.55 -0.028,0.869c0.622,0.622 0.522,1.337 0.312,2.054c-0.101,0.344 -0.305,0.668 -0.508,0.972c-0.515,0.777 -0.506,0.758 -0.013,1.513c0.193,0.297 0.328,0.653 0.4,1c0.045,0.215 -0.006,0.525 -0.141,0.688c-0.346,0.423 -0.249,0.762 0.034,1.154c0.136,0.189 0.232,0.442 0.252,0.673c0.045,0.531 -0.392,0.842 -0.886,0.663c-0.143,-0.052 -0.277,-0.131 -0.422,-0.18c-0.275,-0.097 -0.644,-0.105 -0.808,-0.293c-0.141,-0.163 -0.066,-0.526 -0.068,-0.801c-0.008,-1.036 -0.426,-1.969 -0.775,-2.909c-0.651,-1.748 -1.344,-3.481 -2.522,-5.027" style="fill:#8a573a;fill-rule:nonzero;"/><path d="M105.689,63.438c0.248,-0.18 0.645,-0.257 0.864,-0.452c0.368,-0.029 0.429,-0.194 0.181,-0.492c-0.082,-0.112 -0.161,-0.223 -0.237,-0.337c-0.171,-0.385 -0.359,-0.725 -0.161,-1.155c0.23,-0.497 0.739,-0.471 1.12,-0.752c0.848,-0.626 0.061,-1.442 0.575,-2.109c0.494,-0.642 1.373,-0.586 1.991,-0.191c0.091,-1.308 0.039,-3.062 1.11,-3.893c1.094,-0.849 2.125,-0.109 2.716,0.877c0.038,-1.078 0.219,-2.391 1.066,-2.632c1.082,-0.31 1.521,1.515 1.71,2.532c0.806,-0.795 1.729,-1.861 2.831,-2.035c0.419,-0.065 0.771,0.045 1.086,0.314c0.208,0.176 0.316,0.445 0.517,0.622c0.596,0.528 1.033,0.342 1.595,0.046c1.003,-0.529 2.002,-1.594 3.216,-1.585c1.107,0.008 1.419,1.089 1.576,2.017c0.22,-0.089 0.436,-0.18 0.644,-0.307c0.051,-0.031 0.103,-0.028 0.152,-0.015c1.435,-0.468 2.958,-0.155 2.656,1.467c1.25,-0.621 2.68,-0.979 3.375,-0.083c0.025,-0.472 -0.032,-0.94 -0.19,-1.401c-0.354,-1.027 -0.843,-1.192 -1.776,-0.641c-0.025,0.015 -0.045,0.043 -0.071,0.057c-0.398,0.213 -0.646,0.104 -0.721,-0.335c-0.075,-0.452 -0.106,-0.912 -0.196,-1.361c-0.124,-0.621 -0.399,-0.817 -1.029,-0.797c-0.723,0.022 -1.17,0.429 -1.507,1.033c-0.087,0.155 -0.31,0.236 -0.469,0.353c-0.1,-0.171 -0.219,-0.334 -0.29,-0.516c-0.042,-0.106 0.001,-0.243 -0.012,-0.364c-0.064,-0.634 -0.454,-1.136 -1.075,-1.188c-0.536,-0.045 -1.097,0.019 -1.626,0.13c-0.497,0.106 -0.861,0.439 -1.027,0.958c-0.079,0.251 -0.118,0.621 -0.456,0.613c-0.408,-0.012 -0.355,-0.403 -0.419,-0.696c-0.121,-0.563 -0.324,-0.724 -0.895,-0.686c-0.3,0.019 -0.614,0.079 -0.887,0.202c-0.62,0.282 -1.176,0.649 -1.401,1.363c-0.047,0.147 -0.239,0.333 -0.369,0.338c-0.114,0.005 -0.277,-0.202 -0.348,-0.351c-0.156,-0.326 -0.371,-0.604 -0.734,-0.62c-0.481,-0.02 -0.975,0.001 -1.447,0.092c-0.366,0.071 -0.643,0.321 -0.718,0.747c-0.028,0.153 -0.175,0.283 -0.269,0.423c-0.139,-0.101 -0.29,-0.189 -0.414,-0.308c-0.086,-0.081 -0.126,-0.209 -0.202,-0.304c-0.866,-1.101 -2.045,-1.026 -2.763,0.178c-0.077,0.131 -0.135,0.275 -0.19,0.417c-0.278,0.725 -0.276,0.726 -1.016,0.361c-0.056,-0.028 -0.108,-0.059 -0.165,-0.08c-1.082,-0.407 -2.2,0.275 -2.185,1.339c0.005,0.357 0.176,0.834 0.008,1.046c-0.299,0.375 -0.718,-0.077 -1.093,-0.125c-0.721,-0.096 -1.137,0.149 -1.227,0.862c-0.033,0.266 0.019,0.547 0.06,0.815c0.027,0.18 0.134,0.348 0.154,0.527c0.02,0.163 0.005,0.349 -0.066,0.49c-0.024,0.047 -0.277,0.01 -0.408,-0.037c-0.259,-0.09 -0.501,-0.228 -0.759,-0.319c-0.265,-0.095 -0.5,-0.006 -0.629,0.236c-0.276,0.514 -0.329,1.053 -0.027,1.577c0.143,0.25 0.525,0.574 0.462,0.695c-0.216,0.428 -0.574,0.003 -0.88,0.006c-0.435,0.004 -0.796,0.256 -0.963,0.705c-0.159,0.422 0.122,0.621 0.395,0.826c0.097,0.072 0.219,0.11 0.321,0.174c0.168,0.107 0.48,0.159 0.36,0.426c-0.061,0.136 -0.333,0.191 -0.52,0.252c-0.111,0.037 -0.269,-0.027 -0.359,0.029c-0.247,0.158 -0.511,0.322 -0.691,0.545c-0.227,0.283 -0.056,0.581 0.116,0.844c0.43,0.663 1.027,1.088 1.734,1.374c-0.398,-0.589 -0.451,-1.201 0.296,-1.741" style="fill:#9d6343;fill-rule:nonzero;"/><path d="M121.442,68.132c-0.021,-0.215 0.002,-0.382 -0.059,-0.51c-0.052,-0.114 -0.185,-0.226 -0.306,-0.262c-0.081,-0.023 -0.233,0.066 -0.299,0.148c-0.198,0.247 -0.217,1.053 -0.029,1.304c0.062,0.083 0.202,0.154 0.302,0.148c0.097,-0.005 0.248,-0.096 0.275,-0.18c0.07,-0.227 0.088,-0.47 0.116,-0.648m5.071,-0.261c-0.049,-0.49 -0.06,-0.837 -0.417,-1.001c-0.089,-0.041 -0.257,-0.027 -0.332,0.033c-0.286,0.234 -0.31,0.565 -0.254,0.904c0.074,0.439 0.367,0.766 0.597,0.624c0.213,-0.132 0.32,-0.433 0.406,-0.56m-6.008,-3.421c-0.051,-0.07 -0.088,-0.17 -0.155,-0.199c-0.072,-0.03 -0.217,-0.028 -0.255,0.019c-0.485,0.612 -0.96,1.233 -1.426,1.86c-0.031,0.042 0.032,0.226 0.067,0.23c0.1,0.016 0.251,0.008 0.307,-0.055c0.461,-0.523 0.907,-1.059 1.35,-1.595c0.054,-0.065 0.071,-0.161 0.112,-0.26m6.38,0.755c-0.083,-0.19 -0.095,-0.296 -0.155,-0.349c-0.552,-0.481 -1.109,-0.957 -1.674,-1.423c-0.049,-0.041 -0.186,-0.032 -0.241,0.01c-0.059,0.046 -0.11,0.163 -0.096,0.236c0.03,0.143 0.069,0.32 0.168,0.409c0.456,0.404 0.92,0.803 1.414,1.159c0.111,0.079 0.351,-0.02 0.584,-0.042m-0.946,9.264c-0.068,-0.086 -0.109,-0.183 -0.181,-0.219c-0.636,-0.305 -2.203,-0.008 -2.745,0.527c-0.071,0.07 -0.075,0.21 -0.109,0.317c0.106,0.014 0.242,0.076 0.314,0.033c0.685,-0.403 1.427,-0.464 2.193,-0.424c0.12,0.005 0.247,-0.002 0.357,-0.042c0.07,-0.025 0.113,-0.122 0.171,-0.192m-0.123,-4.269c0,-0.091 0.007,-0.183 0,-0.275c-0.056,-0.749 -0.535,-1.311 -1.202,-1.412c-0.689,-0.106 -1.579,0.351 -1.834,0.946c-0.034,0.081 -0.069,0.186 -0.047,0.262c0.031,0.106 0.097,0.237 0.186,0.28c0.061,0.03 0.216,-0.041 0.277,-0.112c0.116,-0.137 0.172,-0.325 0.292,-0.455c0.291,-0.315 0.858,-0.468 1.168,-0.316c0.425,0.21 0.609,0.569 0.604,1.041c-0.004,0.596 -0.491,1.241 -1.097,1.417c-0.175,0.051 -0.369,0.04 -0.532,0.11c-0.084,0.036 -0.148,0.18 -0.166,0.284c-0.009,0.05 0.105,0.174 0.166,0.176c0.297,0.011 0.618,0.06 0.887,-0.03c0.712,-0.237 1.304,-1.157 1.298,-1.916m-6.703,-7.827c0.424,0.583 0.76,1.079 1.413,0.936c0.703,-0.155 0.555,-0.854 0.723,-1.333c1.348,0.273 1.834,0.571 2.297,-0.774c0.353,0.094 0.705,0.194 1.059,0.281c1.016,0.249 1.946,0.044 2.783,-0.564c0.397,-0.288 0.747,-0.484 1.216,-0.106c0.2,0.16 0.516,0.245 0.777,0.24c0.541,-0.008 0.799,0.284 1.08,0.694c1.317,1.921 2.151,4.06 2.735,6.281c0.352,1.335 0.217,2.718 -0.151,4.076c-0.373,1.376 -1.203,2.371 -2.319,3.195c-1.686,1.245 -3.574,1.966 -5.625,2.34c-1.248,0.228 -2.48,0.208 -3.738,0.102c-1.281,-0.109 -2.558,-0.19 -3.813,-0.493c-1.275,-0.308 -2.413,-0.876 -3.397,-1.741c-0.394,-0.345 -0.749,-0.725 -0.833,-1.28c-0.019,-0.119 -0.055,-0.243 -0.117,-0.346c-0.783,-1.33 -0.842,-2.764 -0.682,-4.253c0.048,-0.446 0.19,-0.723 0.556,-0.962c0.984,-0.644 1.612,-1.58 2.008,-2.667c0.145,-0.394 0.209,-0.827 0.253,-1.249c0.068,-0.661 0.048,-0.652 0.751,-0.704c0.365,-0.026 0.727,-0.089 1.085,-0.156c0.857,-0.16 1.561,-0.542 1.939,-1.517" style="fill:#fedcc4;fill-rule:nonzero;"/><path d="M121.442,68.132c-0.021,-0.215 0.002,-0.382 -0.059,-0.51c-0.052,-0.114 -0.185,-0.226 -0.306,-0.262c-0.081,-0.023 -0.233,0.066 -0.299,0.148c-0.198,0.247 -0.217,1.053 -0.029,1.304c0.062,0.083 0.202,0.154 0.302,0.148c0.097,-0.005 0.248,-0.096 0.275,-0.18c0.07,-0.227 0.088,-0.47 0.116,-0.648m5.071,-0.261c-0.049,-0.49 -0.06,-0.837 -0.417,-1.001c-0.089,-0.041 -0.257,-0.027 -0.332,0.033c-0.286,0.234 -0.31,0.565 -0.254,0.904c0.074,0.439 0.367,0.766 0.597,0.624c0.213,-0.132 0.32,-0.433 0.406,-0.56m-6.008,-3.421c-0.051,-0.07 -0.088,-0.17 -0.155,-0.199c-0.072,-0.03 -0.217,-0.028 -0.255,0.019c-0.485,0.612 -0.96,1.233 -1.426,1.86c-0.031,0.042 0.032,0.226 0.067,0.23c0.1,0.016 0.251,0.008 0.307,-0.055c0.461,-0.523 0.907,-1.059 1.35,-1.595c0.054,-0.065 0.071,-0.161 0.112,-0.26m6.38,0.755c-0.083,-0.19 -0.095,-0.296 -0.155,-0.349c-0.552,-0.481 -1.109,-0.957 -1.674,-1.423c-0.049,-0.041 -0.186,-0.032 -0.241,0.01c-0.059,0.046 -0.11,0.163 -0.096,0.236c0.03,0.143 0.069,0.32 0.168,0.409c0.456,0.404 0.92,0.803 1.414,1.159c0.111,0.079 0.351,-0.02 0.584,-0.042m-0.946,9.264c-0.068,-0.086 -0.109,-0.183 -0.181,-0.219c-0.636,-0.305 -2.203,-0.008 -2.745,0.527c-0.071,0.07 -0.075,0.21 -0.109,0.317c0.106,0.014 0.242,0.076 0.314,0.033c0.685,-0.403 1.427,-0.464 2.193,-0.424c0.12,0.005 0.247,-0.002 0.357,-0.042c0.07,-0.025 0.113,-0.122 0.171,-0.192m-0.123,-4.269c0,-0.091 0.007,-0.183 0,-0.275c-0.056,-0.749 -0.535,-1.311 -1.202,-1.412c-0.689,-0.106 -1.579,0.351 -1.834,0.946c-0.034,0.081 -0.069,0.186 -0.047,0.262c0.031,0.106 0.097,0.237 0.186,0.28c0.061,0.03 0.216,-0.041 0.277,-0.112c0.116,-0.137 0.172,-0.325 0.292,-0.455c0.291,-0.315 0.858,-0.468 1.168,-0.316c0.425,0.21 0.609,0.569 0.604,1.041c-0.004,0.596 -0.491,1.241 -1.097,1.417c-0.175,0.051 -0.369,0.04 -0.532,0.11c-0.084,0.036 -0.148,0.18 -0.166,0.284c-0.009,0.05 0.105,0.174 0.166,0.176c0.297,0.011 0.618,0.06 0.887,-0.03c0.712,-0.237 1.304,-1.157 1.298,-1.916m-6.703,-7.827c0.424,0.583 0.76,1.079 1.413,0.936c0.703,-0.155 0.555,-0.854 0.723,-1.333c1.348,0.273 1.834,0.571 2.297,-0.774c0.353,0.094 0.705,0.194 1.059,0.281c1.016,0.249 1.946,0.044 2.783,-0.564c0.397,-0.288 0.747,-0.484 1.216,-0.106c0.2,0.16 0.516,0.245 0.777,0.24c0.541,-0.008 0.799,0.284 1.08,0.694c1.317,1.921 2.151,4.06 2.735,6.281c0.352,1.335 0.217,2.718 -0.151,4.076c-0.373,1.376 -1.203,2.371 -2.319,3.195c-1.686,1.245 -3.574,1.966 -5.625,2.34c-1.248,0.228 -2.48,0.208 -3.738,0.102c-1.281,-0.109 -2.558,-0.19 -3.813,-0.493c-1.275,-0.308 -2.413,-0.876 -3.397,-1.741c-0.394,-0.345 -0.749,-0.725 -0.833,-1.28c-0.019,-0.119 -0.055,-0.243 -0.117,-0.346c-0.783,-1.33 -0.842,-2.764 -0.682,-4.253c0.048,-0.446 0.19,-0.723 0.556,-0.962c0.984,-0.644 1.612,-1.58 2.008,-2.667c0.145,-0.394 0.209,-0.827 0.253,-1.249c0.068,-0.661 0.048,-0.652 0.751,-0.704c0.365,-0.026 0.727,-0.089 1.085,-0.156c0.857,-0.16 1.561,-0.542 1.939,-1.517" style="fill:#fedcc4;fill-rule:nonzero;"/><path d="M120.393,64.71c-0.443,0.536 -0.889,1.072 -1.35,1.595c-0.055,0.063 -0.207,0.071 -0.306,0.055c-0.036,-0.004 -0.099,-0.188 -0.068,-0.23c0.466,-0.627 0.941,-1.248 1.426,-1.86c0.038,-0.047 0.183,-0.049 0.255,-0.019c0.066,0.029 0.103,0.129 0.155,0.199c-0.041,0.098 -0.057,0.195 -0.112,0.26m12.803,3.318c-0.584,-2.221 -1.418,-4.36 -2.734,-6.281c-0.283,-0.41 -0.54,-0.702 -1.081,-0.694c-0.26,0.005 -0.578,-0.08 -0.777,-0.24c-0.47,-0.378 -0.819,-0.182 -1.216,0.106c-0.836,0.608 -1.766,0.813 -2.783,0.564c-0.355,-0.088 -0.706,-0.187 -1.059,-0.281c-0.463,1.345 -0.949,1.047 -2.298,0.774c-0.168,0.478 -0.019,1.178 -0.722,1.333c-0.654,0.142 -0.99,-0.353 -1.413,-0.937c-0.378,0.975 -1.082,1.357 -1.939,1.518c-0.358,0.067 -0.721,0.129 -1.085,0.156c-0.703,0.052 -0.683,0.043 -0.751,0.704c-0.044,0.421 -0.108,0.855 -0.253,1.249c-0.396,1.087 -1.023,2.023 -2.008,2.667c-0.366,0.239 -0.509,0.516 -0.556,0.962c-0.161,1.489 -0.101,2.923 0.683,4.253c0.061,0.103 0.097,0.227 0.115,0.346c0.084,0.555 0.44,0.935 0.834,1.28c0.643,0.565 1.357,0.99 2.126,1.312c-1.288,-1.689 -2.02,-3.703 -1.84,-5.859c0.011,-0.127 0.107,-0.212 0.236,-0.202c0.898,0.074 1.821,0.131 2.35,-0.739c0.244,-0.402 0.39,-0.871 0.515,-1.321c0.229,-0.821 0.344,-1.669 0.503,-2.505c0.042,-0.218 0.35,-0.154 0.435,-0.01c1.101,1.86 2.839,0.376 4.084,-0.457c0.854,-0.571 1.797,-1.031 2.812,-1.219c-0.163,-0.139 -0.327,-0.277 -0.486,-0.419c-0.1,-0.09 -0.139,-0.266 -0.168,-0.409c-0.015,-0.073 0.035,-0.19 0.095,-0.236c0.055,-0.042 0.193,-0.051 0.241,-0.01c0.394,0.324 0.778,0.658 1.164,0.99c1.837,0 3.418,1.176 4.41,2.693c1.754,2.684 1.616,6.365 -0.559,8.605c0.219,-0.141 0.442,-0.266 0.655,-0.422c1.117,-0.824 1.946,-1.82 2.319,-3.195c0.368,-1.358 0.504,-2.741 0.151,-4.076" style="fill:#fdcda6;fill-rule:nonzero;"/><path d="M128.15,91.582c0,0.248 0.033,0.429 -0.005,0.593c-0.186,0.803 -0.408,1.597 -0.585,2.4c-0.128,0.578 -0.377,1.175 0.081,1.799c0.556,-0.549 1.303,-0.577 1.964,-0.83c0.259,-0.099 0.447,0.071 0.401,0.328c-0.119,0.655 -0.281,1.304 -0.436,1.952c-0.019,0.082 -0.086,0.182 -0.158,0.218c-0.679,0.338 -1.336,0.77 -2.056,0.967c-0.821,0.225 -1.567,-0.139 -2.108,-0.8c-0.289,-0.351 -0.517,-0.757 -0.743,-1.154c-0.408,-0.717 -0.781,-1.454 -1.196,-2.167c-0.176,-0.301 -0.422,-0.561 -0.667,-0.881c-0.074,0.156 -0.133,0.236 -0.118,0.256c0.55,0.665 0.453,1.412 0.289,2.171c-0.308,1.431 -0.682,2.852 -0.903,4.298c-0.255,1.691 -0.329,3.401 0.152,5.083c0.132,0.463 0.035,0.656 -0.425,0.67c-0.444,0.015 -0.923,0.146 -1.326,-0.186c-0.047,-0.038 -0.11,-0.108 -0.149,-0.098c-0.84,0.193 -1.254,-0.474 -1.793,-0.883c-0.414,-0.314 -0.834,-0.622 -1.23,-0.956c-0.121,-0.102 -0.263,-0.293 -0.246,-0.426c0.293,-2.387 0.33,-4.828 1.192,-7.108c0.66,-1.74 1.444,-3.435 2.201,-5.137c0.242,-0.541 0.277,-0.47 0.935,-0.35c1.35,0.246 2.706,0.461 4.066,0.634c0.946,0.121 1.873,-0.101 2.863,-0.393" style="fill:#c39a6b;fill-rule:nonzero;"/><path d="M129.255,100.903c0.061,0.01 0.125,0.039 0.18,0.025c0.166,-0.04 0.421,-0.05 0.471,-0.155c0.117,-0.242 -0.138,-0.297 -0.305,-0.318c-0.439,-0.058 -0.295,-0.483 -0.47,-0.703c-0.286,-0.365 0.025,-0.52 0.246,-0.732c0.741,-0.709 1.059,-1.621 1.199,-2.609c0.026,-0.181 0.009,-0.368 0.018,-0.55c0.013,-0.276 0.166,-0.364 0.428,-0.331c0.937,0.116 1.571,0.757 1.579,1.717c0.005,0.635 -0.07,1.28 -0.182,1.908c-0.193,1.078 -0.374,2.161 -0.834,3.177c-0.432,0.952 -1.063,1.627 -2.139,1.797c-0.75,0.118 -1.497,0.304 -2.251,0.343c-0.844,0.044 -0.992,-0.187 -1.027,-1.016c-0.025,-0.598 0.178,-1.069 0.591,-1.479c0.691,-0.687 1.437,-1.241 2.496,-1.074" style="fill:#f15a29;fill-rule:nonzero;"/><path d="M119.341,109.818c-1.439,0.12 -2.791,0.084 -4.15,-0.195c-2.097,-0.432 -3.899,-1.377 -5.433,-2.87c-0.658,-0.638 -1.379,-1.213 -1.836,-2.03c-0.234,-0.417 -0.16,-0.569 0.325,-0.541c1.165,0.067 2.286,0.347 3.394,0.718c1.969,0.66 3.674,1.782 5.355,2.957c0.451,0.315 0.92,0.606 1.367,0.927c0.365,0.262 0.743,0.521 0.978,1.034" style="fill:#b3c7e7;fill-rule:nonzero;"/><path d="M108.012,103.47c0.279,-0.11 0.466,-0.218 0.666,-0.257c1.511,-0.293 3.02,-0.462 4.52,0.087c0.63,0.232 1.274,0.422 1.907,0.649c1.315,0.47 2.458,1.211 3.458,2.19c0.256,0.252 0.608,0.404 0.891,0.633c0.205,0.166 0.459,0.352 0.535,0.58c0.201,0.606 0.193,1.236 0.005,1.852c-1.212,-0.834 -2.398,-1.625 -3.556,-2.453c-2.434,-1.737 -5.101,-2.861 -8.097,-3.146c-0.078,-0.008 -0.151,-0.061 -0.329,-0.135" style="fill:#f15a29;fill-rule:nonzero;"/><path d="M121.507,85.092c0.073,0.375 0.133,0.692 -0.206,1.004c-0.38,0.349 -0.36,0.417 0.128,0.524c0.338,0.076 0.345,0.219 0.179,0.424c-0.13,0.159 -0.318,0.278 -0.493,0.391c-0.237,0.151 -0.256,0.269 -0.063,0.504c0.208,0.253 0.12,0.463 -0.173,0.479c-0.651,0.038 -1.291,-0.012 -1.792,-0.514c-0.505,-0.506 -0.944,-1.058 -1.022,-1.8c-0.077,-0.727 -0.142,-1.456 -0.161,-2.186c-0.006,-0.224 0.123,-0.47 0.247,-0.672c0.114,-0.184 0.291,-0.314 0.532,-0.115c0.603,0.5 1.28,0.517 1.983,0.261c0.223,-0.08 0.457,-0.125 0.557,0.113c0.084,0.203 0.142,0.506 0.05,0.673c-0.142,0.252 -0.431,0.418 -0.643,0.634c-0.055,0.055 -0.098,0.174 -0.076,0.239c0.022,0.066 0.135,0.149 0.203,0.145c0.237,-0.013 0.471,-0.062 0.75,-0.104" style="fill:#fedcc4;fill-rule:nonzero;"/><path d="M128.192,87.878c-0.157,-0.058 -0.325,-0.095 -0.468,-0.177c-0.208,-0.119 -0.425,-0.244 -0.586,-0.415c-0.224,-0.237 -0.132,-0.443 0.194,-0.487c0.119,-0.018 0.26,0.031 0.36,-0.016c0.118,-0.055 0.204,-0.182 0.304,-0.278c-0.079,-0.081 -0.146,-0.19 -0.241,-0.235c-0.163,-0.081 -0.353,-0.105 -0.518,-0.181c-0.257,-0.12 -0.437,-0.305 -0.413,-0.686c0.236,0.053 0.434,0.136 0.628,0.127c0.152,-0.007 0.301,-0.127 0.451,-0.197c-0.093,-0.103 -0.172,-0.222 -0.28,-0.303c-0.095,-0.07 -0.233,-0.08 -0.331,-0.146c-0.301,-0.205 -0.451,-0.48 -0.368,-0.804c0.597,0.061 1.154,0.129 1.712,0.169c0.334,0.024 0.49,-0.147 0.499,-0.499c0.006,-0.186 0.072,-0.465 0.2,-0.531c0.267,-0.14 0.565,0.009 0.714,0.248c0.173,0.275 0.355,0.6 0.365,0.91c0.032,0.945 0.034,1.896 -0.045,2.839c-0.133,1.614 -1.599,1.89 -2.97,1.211c-0.038,-0.02 -0.042,-0.107 -0.08,-0.207c0.29,-0.051 0.572,-0.101 0.853,-0.151c0.007,-0.063 0.014,-0.127 0.02,-0.191" style="fill:#fedcc4;fill-rule:nonzero;"/><path d="M127.258,89.216c-2.008,0.736 -3.981,0.382 -6.035,-0.05c0.596,-0.756 0.78,-1.623 1.093,-2.437c0.038,-0.1 0.229,-0.228 0.32,-0.207c1.142,0.255 2.303,0.291 3.467,0.277c0.246,-0.003 0.391,0.094 0.441,0.358c0.055,0.297 0.143,0.59 0.243,0.874c0.128,0.365 0.284,0.718 0.471,1.185" style="fill:#fff;fill-rule:nonzero;"/><path d="M123.181,84.44c-0.152,0 -0.305,0.002 -0.457,0c-0.682,-0.013 -0.658,-0.021 -0.892,-0.709c-0.101,-0.303 -0.322,-0.565 -0.493,-0.843c-0.091,-0.148 -0.239,-0.279 -0.275,-0.438c-0.087,-0.379 0.093,-0.576 0.48,-0.558c0.212,0.009 0.423,0.051 0.632,0.091c1.264,0.245 2.536,0.3 3.818,0.201c0.492,-0.038 0.811,0.244 0.703,0.71c-0.088,0.379 -0.236,0.752 -0.416,1.097c-0.065,0.121 -0.3,0.192 -0.467,0.213c-0.874,0.103 -1.753,0.183 -2.629,0.271c-0.002,-0.012 -0.003,-0.023 -0.004,-0.035" style="fill:#fff;fill-rule:nonzero;"/><path d="M120.379,89.319c1.502,0.531 3.048,0.845 4.644,0.803c1.067,-0.029 2.125,-0.186 3.073,-0.735c0.231,-0.132 0.448,-0.214 0.674,-0.037c0.207,0.164 0.221,0.565 0.015,0.836c-0.466,0.619 -1.14,0.956 -1.871,1.045c-1.897,0.232 -3.767,-0.007 -5.606,-0.513c-0.088,-0.023 -0.173,-0.059 -0.256,-0.097c-0.731,-0.334 -0.901,-0.326 -0.673,-1.302" style="fill:#08a3de;fill-rule:nonzero;"/><path d="M111.883,72.633c-0.641,-0.17 -1.216,-0.086 -1.628,0.474c-0.088,0.119 -0.15,0.266 -0.186,0.41c-0.015,0.061 0.06,0.158 0.119,0.216c0.026,0.026 0.109,0.001 0.166,-0.011c0.026,-0.006 0.052,-0.029 0.074,-0.051c0.305,-0.317 0.651,-0.665 1.104,-0.384c0.513,0.32 1.006,0.713 1.19,1.34c0.09,0.304 -0.152,0.446 -0.378,0.54c-0.831,0.344 -1.628,0.241 -2.33,-0.302c-0.926,-0.717 -1.053,-1.873 -0.359,-2.848c0.4,-0.563 0.839,-0.762 1.411,-0.59c0.554,0.168 0.854,0.545 0.817,1.206" style="fill:#fedcc4;fill-rule:nonzero;"/><path d="M130.061,80.744c-0.627,-0.615 -1.114,-1.062 -1.563,-1.543c-0.707,-0.761 -2.173,-0.883 -2.969,-0.222c-0.154,-0.755 -0.148,-0.795 0.485,-0.936c0.981,-0.222 1.959,-0.45 2.855,-0.93c0.295,-0.158 0.525,-0.093 0.701,0.18c0.098,0.153 0.204,0.308 0.261,0.478c0.304,0.907 0.216,1.834 0.23,2.973" style="fill:#fbb040;fill-rule:nonzero;"/><path d="M125.47,79.654c0.571,0.481 0.647,1.136 0.842,1.728c0.023,0.071 -0.074,0.235 -0.156,0.276c-0.131,0.066 -0.295,0.084 -0.445,0.088c-1.373,0.028 -2.744,0.015 -4.103,-0.233c-0.305,-0.054 -0.435,-0.2 -0.371,-0.496c0.066,-0.296 0.131,-0.597 0.242,-0.878c0.129,-0.323 0.461,-0.406 0.751,-0.206c0.123,0.084 0.209,0.219 0.324,0.317c0.935,0.793 1.822,0.716 2.622,-0.226c0.094,-0.11 0.181,-0.226 0.294,-0.37" style="fill:#08a3de;fill-rule:nonzero;"/><path d="M121.828,84.842c0.524,0 0.981,0.021 1.436,-0.005c0.823,-0.047 1.642,-0.128 2.465,-0.185c0.568,-0.04 0.653,0.05 0.601,0.594c-0.03,0.324 -0.054,0.648 -0.085,1.018c-1.248,0.07 -2.492,0.05 -3.736,-0.145c-0.292,-0.045 -0.437,-0.188 -0.498,-0.451c-0.057,-0.238 -0.107,-0.477 -0.183,-0.826" style="fill:#08a3de;fill-rule:nonzero;"/><path d="M126.243,79.252c1.154,-0.303 1.772,-0.005 2.001,1.119c0.18,0.888 0.206,1.808 0.291,2.713c0.024,0.267 -0.04,0.496 -0.374,0.503c-0.295,0.007 -0.63,0.101 -0.722,-0.34c-0.076,-0.356 -0.154,-0.715 -0.261,-1.063c-0.304,-0.98 -0.623,-1.955 -0.935,-2.932" style="fill:#fbb040;fill-rule:nonzero;"/><path d="M119.165,81.739c0.057,-0.516 0.087,-1.035 0.174,-1.545c0.13,-0.759 1.014,-1.264 1.737,-1.013c0.198,0.07 0.282,0.196 0.158,0.42c-0.438,0.795 -0.546,1.669 -0.6,2.56c-0.038,0.646 -0.201,0.805 -0.742,0.818c-0.554,0.014 -0.679,-0.112 -0.681,-0.684c-0.001,-0.184 0,-0.368 0,-0.551c-0.016,-0.002 -0.03,-0.004 -0.046,-0.005" style="fill:#fbb040;fill-rule:nonzero;"/><path d="M133.993,74.173c-0.121,0 -0.244,0.009 -0.364,-0.001c-0.489,-0.043 -0.579,-0.171 -0.427,-0.647c0.101,-0.319 0.214,-0.636 0.362,-0.935c0.217,-0.44 0.49,-0.488 0.86,-0.187c0.071,0.058 0.129,0.13 0.192,0.197c0.126,0.131 0.279,0.319 0.429,0.091c0.067,-0.103 0.024,-0.379 -0.071,-0.469c-0.211,-0.198 -0.474,-0.353 -0.739,-0.48c-0.323,-0.155 -0.441,-0.417 -0.288,-0.787c0.121,-0.296 0.352,-0.284 0.607,-0.204c0.814,0.255 1.321,1.114 1.171,1.995c-0.138,0.826 -0.864,1.426 -1.732,1.427" style="fill:#fedcc4;fill-rule:nonzero;"/><path d="M117.564,80.825c-0.303,-0.851 -0.272,-1.578 -0.17,-2.294c0.07,-0.486 0.265,-0.587 0.782,-0.531c0.729,0.078 1.455,0.183 2.185,0.261c0.516,0.056 1.033,0.087 1.55,0.126c0.244,0.018 0.422,0.1 0.385,0.387c-0.013,0.086 -0.037,0.199 -0.098,0.242c-0.051,0.036 -0.188,0.017 -0.24,-0.03c-0.851,-0.746 -1.692,-0.486 -2.534,0.009c-0.104,0.062 -0.19,0.158 -0.297,0.213c-1.018,0.51 -1.019,0.509 -1.563,1.617" style="fill:#fbb040;fill-rule:nonzero;"/><path d="M123.87,78.405c0.84,-0.021 1,0.169 0.838,0.997c-0.122,0.619 -0.891,0.961 -1.439,0.629c-0.095,-0.059 -0.172,-0.166 -0.224,-0.268c-0.038,-0.076 -0.014,-0.18 -0.03,-0.27c-0.19,-1.083 -0.262,-1.098 0.855,-1.088" style="fill:#fedcc4;fill-rule:nonzero;"/><path d="M130.125,82.734c-0.143,-0.023 -0.232,-0.032 -0.318,-0.053c-0.653,-0.159 -0.649,-0.16 -0.714,-0.802c-0.045,-0.444 -0.101,-0.887 -0.158,-1.379c1.013,0.668 1.306,1.211 1.19,2.234" style="fill:#08a3de;fill-rule:nonzero;"/><path d="M130.907,88.04c0.021,0.57 0.076,0.987 0.041,1.397c-0.059,0.678 -0.398,0.836 -1.002,0.51c-0.501,-0.27 -0.513,-0.578 -0.071,-0.933c0.305,-0.245 0.572,-0.536 1.032,-0.974" style="fill:#fedcc4;fill-rule:nonzero;"/><path d="M117.887,87.656c0.626,0.452 1.164,0.835 1.693,1.231c0.083,0.064 0.192,0.227 0.163,0.278c-0.059,0.115 -0.187,0.246 -0.307,0.268c-0.942,0.176 -1.475,-0.24 -1.547,-1.187c-0.015,-0.178 -0.002,-0.359 -0.002,-0.59" style="fill:#fedcc4;fill-rule:nonzero;"/><path d="M118.854,79.998c-0.07,0.688 -0.143,1.376 -0.211,2.064c-0.025,0.264 -0.185,0.366 -0.428,0.365c-0.327,0 -0.286,-0.252 -0.292,-0.455c-0.022,-0.778 0.137,-1.49 0.727,-2.035c0.067,0.021 0.137,0.04 0.204,0.061" style="fill:#08a3de;fill-rule:nonzero;"/><path d="M125.817,70.2c0.006,0.759 -0.587,1.679 -1.298,1.916c-0.269,0.09 -0.591,0.04 -0.887,0.029c-0.062,-0.002 -0.176,-0.126 -0.167,-0.175c0.018,-0.104 0.082,-0.248 0.166,-0.285c0.163,-0.068 0.358,-0.058 0.533,-0.109c0.606,-0.176 1.092,-0.821 1.097,-1.417c0.005,-0.473 -0.18,-0.831 -0.604,-1.04c-0.311,-0.152 -0.878,0 -1.169,0.314c-0.12,0.13 -0.175,0.32 -0.292,0.455c-0.06,0.072 -0.215,0.144 -0.278,0.113c-0.088,-0.043 -0.154,-0.174 -0.184,-0.28c-0.024,-0.077 0.012,-0.18 0.047,-0.261c0.254,-0.596 1.144,-1.053 1.834,-0.947c0.666,0.101 1.144,0.664 1.201,1.413c0.008,0.09 0.001,0.182 0.001,0.274" style="fill:#231f20;fill-rule:nonzero;"/><path d="M125.94,74.468c-0.06,0.07 -0.102,0.167 -0.172,0.191c-0.109,0.041 -0.237,0.049 -0.356,0.042c-0.766,-0.038 -1.509,0.022 -2.193,0.425c-0.072,0.043 -0.208,-0.019 -0.314,-0.032c0.034,-0.108 0.038,-0.248 0.109,-0.318c0.542,-0.535 2.108,-0.832 2.743,-0.527c0.074,0.035 0.115,0.134 0.183,0.219" style="fill:#231f20;fill-rule:nonzero;"/><path d="M126.885,65.205c-0.232,0.021 -0.473,0.122 -0.585,0.042c-0.493,-0.356 -0.957,-0.754 -1.412,-1.159c-0.1,-0.089 -0.14,-0.266 -0.168,-0.408c-0.015,-0.074 0.035,-0.191 0.096,-0.237c0.054,-0.042 0.192,-0.051 0.241,-0.01c0.564,0.466 1.121,0.942 1.674,1.424c0.058,0.052 0.072,0.158 0.154,0.348" style="fill:#231f20;fill-rule:nonzero;"/><path d="M120.506,64.45c-0.041,0.098 -0.059,0.193 -0.112,0.26c-0.444,0.536 -0.889,1.072 -1.35,1.594c-0.057,0.064 -0.207,0.071 -0.308,0.056c-0.035,-0.006 -0.097,-0.188 -0.066,-0.23c0.466,-0.628 0.94,-1.248 1.426,-1.861c0.038,-0.047 0.182,-0.048 0.255,-0.018c0.066,0.028 0.103,0.129 0.155,0.199" style="fill:#231f20;fill-rule:nonzero;"/><path d="M126.514,67.871c-0.086,0.127 -0.193,0.428 -0.406,0.56c-0.231,0.142 -0.524,-0.185 -0.597,-0.624c-0.057,-0.339 -0.033,-0.669 0.253,-0.904c0.075,-0.06 0.242,-0.074 0.332,-0.033c0.357,0.164 0.367,0.512 0.418,1.001" style="fill:#231f20;fill-rule:nonzero;"/><path d="M121.442,68.132c-0.028,0.178 -0.046,0.421 -0.116,0.648c-0.027,0.084 -0.178,0.175 -0.275,0.18c-0.1,0.006 -0.24,-0.065 -0.302,-0.148c-0.188,-0.251 -0.169,-1.057 0.029,-1.304c0.066,-0.082 0.218,-0.171 0.299,-0.148c0.121,0.036 0.254,0.148 0.306,0.262c0.061,0.128 0.038,0.295 0.059,0.51" style="fill:#231f20;fill-rule:nonzero;"/><g opacity="0.2"><path d="M117.55,77.247c0,0 4.703,1.629 11.319,-0.134c0,0 1.996,0.411 1.565,4.504c-0.43,4.094 -0.108,0.058 -4.122,-0.236c-4.016,-0.294 -5.3,2.032 -3.677,5.14c1.623,3.107 -0.479,4.47 -1.414,4.82c-0.935,0.35 5.595,1.378 6.929,0.241c0,0 1.385,3.719 -2.704,2.435c-4.091,-1.285 -2.138,0.87 -2.138,0.87c0,0 -1.976,7.579 -0.68,10.975c0,0 -0.697,1.479 -1.935,1.194c-1.24,-0.284 -2.025,-1.479 -1.11,-6.617c0.916,-5.138 0.805,-7.284 0.214,-8.87c0,0 0.102,-1.273 -0.109,-1.416l-0.21,-0.145c0,0 2.84,-2.494 1.861,-7.12c0,0 -0.056,-1.032 -2.001,-2.694c-1.944,-1.663 -1.788,-2.947 -1.788,-2.947" style="fill:#603812;fill-rule:nonzero;"/></g><path d="M118.854,79.998c-0.067,-0.021 -0.137,-0.04 -0.204,-0.061c-0.59,0.545 -0.749,1.257 -0.727,2.035c0.006,0.203 -0.035,0.455 0.292,0.455c0.243,0.001 0.403,-0.101 0.428,-0.365c0.068,-0.688 0.141,-1.376 0.211,-2.064m-0.967,7.658c0,0.232 -0.013,0.413 0.002,0.59c0.072,0.948 0.606,1.363 1.547,1.188c0.12,-0.023 0.248,-0.154 0.308,-0.269c0.027,-0.051 -0.08,-0.215 -0.163,-0.277c-0.53,-0.397 -1.069,-0.779 -1.694,-1.232m13.02,0.384c-0.46,0.438 -0.726,0.729 -1.032,0.974c-0.442,0.355 -0.43,0.663 0.07,0.934c0.605,0.325 0.945,0.168 1.003,-0.511c0.035,-0.409 -0.021,-0.826 -0.041,-1.397m-0.782,-5.306c0.116,-1.022 -0.177,-1.567 -1.19,-2.233c0.057,0.491 0.113,0.934 0.158,1.379c0.065,0.641 0.061,0.642 0.714,0.802c0.085,0.02 0.175,0.029 0.318,0.052m-6.255,-4.329c-1.117,-0.01 -1.046,0.006 -0.856,1.088c0.016,0.09 -0.008,0.195 0.031,0.271c0.051,0.101 0.128,0.21 0.224,0.267c0.548,0.332 1.317,-0.01 1.439,-0.629c0.162,-0.828 0.002,-1.017 -0.838,-0.997m-6.306,2.42c0.543,-1.108 0.544,-1.106 1.561,-1.617c0.109,-0.055 0.195,-0.15 0.299,-0.212c0.841,-0.496 1.683,-0.756 2.534,-0.01c0.051,0.047 0.189,0.066 0.24,0.03c0.059,-0.042 0.085,-0.156 0.097,-0.242c0.038,-0.287 -0.14,-0.368 -0.384,-0.386c-0.517,-0.038 -1.035,-0.071 -1.55,-0.126c-0.73,-0.079 -1.456,-0.184 -2.185,-0.262c-0.518,-0.056 -0.712,0.045 -0.782,0.532c-0.104,0.715 -0.133,1.444 0.17,2.293m16.429,-6.652c0.868,-0.001 1.594,-0.601 1.733,-1.427c0.149,-0.881 -0.358,-1.741 -1.172,-1.995c-0.255,-0.081 -0.486,-0.092 -0.607,0.204c-0.153,0.371 -0.035,0.632 0.288,0.787c0.265,0.127 0.528,0.281 0.74,0.48c0.094,0.089 0.137,0.367 0.07,0.469c-0.149,0.228 -0.303,0.04 -0.429,-0.092c-0.063,-0.066 -0.121,-0.138 -0.192,-0.195c-0.37,-0.303 -0.643,-0.255 -0.86,0.185c-0.148,0.299 -0.26,0.617 -0.362,0.935c-0.152,0.477 -0.061,0.605 0.427,0.648c0.12,0.009 0.243,0.001 0.364,0.001m-14.828,7.565c0.015,0.002 0.031,0.004 0.045,0.005c0,0.184 -0.001,0.367 0,0.551c0.002,0.573 0.127,0.698 0.681,0.685c0.541,-0.014 0.704,-0.172 0.742,-0.819c0.054,-0.891 0.162,-1.765 0.602,-2.56c0.123,-0.224 0.04,-0.35 -0.159,-0.418c-0.723,-0.252 -1.608,0.252 -1.738,1.012c-0.087,0.51 -0.117,1.029 -0.173,1.544m7.078,-2.486c0.313,0.976 0.632,1.952 0.934,2.933c0.109,0.347 0.187,0.706 0.262,1.062c0.093,0.442 0.428,0.348 0.722,0.341c0.334,-0.008 0.398,-0.237 0.374,-0.503c-0.085,-0.906 -0.11,-1.825 -0.291,-2.714c-0.228,-1.124 -0.847,-1.422 -2.001,-1.119m-4.415,5.59c0.076,0.349 0.126,0.588 0.181,0.826c0.063,0.263 0.207,0.405 0.499,0.451c1.245,0.195 2.489,0.215 3.737,0.145c0.031,-0.37 0.055,-0.695 0.085,-1.018c0.052,-0.544 -0.033,-0.635 -0.602,-0.595c-0.822,0.058 -1.642,0.139 -2.465,0.186c-0.454,0.026 -0.911,0.005 -1.435,0.005m3.641,-5.189c-0.113,0.144 -0.2,0.261 -0.292,0.37c-0.801,0.942 -1.688,1.019 -2.624,0.227c-0.115,-0.098 -0.201,-0.232 -0.324,-0.317c-0.29,-0.2 -0.622,-0.118 -0.75,0.206c-0.111,0.281 -0.176,0.582 -0.242,0.879c-0.065,0.294 0.066,0.44 0.371,0.496c1.359,0.247 2.73,0.259 4.103,0.231c0.15,-0.003 0.314,-0.021 0.445,-0.087c0.082,-0.041 0.179,-0.206 0.156,-0.277c-0.195,-0.591 -0.271,-1.246 -0.843,-1.728m4.592,1.091c-0.013,-1.139 0.075,-2.067 -0.23,-2.973c-0.057,-0.17 -0.163,-0.326 -0.261,-0.479c-0.176,-0.272 -0.405,-0.337 -0.701,-0.179c-0.896,0.48 -1.873,0.708 -2.855,0.93c-0.632,0.141 -0.638,0.181 -0.485,0.936c0.796,-0.661 2.262,-0.539 2.97,0.222c0.448,0.482 0.935,0.927 1.562,1.543m-18.178,-8.112c0.037,-0.661 -0.262,-1.038 -0.817,-1.206c-0.572,-0.172 -1.011,0.028 -1.411,0.59c-0.694,0.976 -0.567,2.131 0.359,2.848c0.702,0.543 1.499,0.647 2.33,0.303c0.226,-0.094 0.468,-0.237 0.379,-0.54c-0.185,-0.627 -0.678,-1.021 -1.191,-1.34c-0.453,-0.281 -0.798,0.066 -1.104,0.384c-0.021,0.021 -0.048,0.045 -0.074,0.05c-0.057,0.012 -0.14,0.037 -0.166,0.011c-0.059,-0.057 -0.134,-0.154 -0.119,-0.216c0.036,-0.143 0.098,-0.291 0.186,-0.41c0.412,-0.559 0.987,-0.643 1.628,-0.474m8.496,16.687c-0.228,0.975 -0.057,0.967 0.673,1.301c0.083,0.039 0.168,0.075 0.256,0.098c1.839,0.506 3.709,0.744 5.607,0.513c0.73,-0.089 1.403,-0.426 1.871,-1.045c0.205,-0.272 0.19,-0.672 -0.017,-0.836c-0.224,-0.178 -0.443,-0.096 -0.673,0.037c-0.949,0.549 -2.006,0.706 -3.074,0.734c-1.595,0.042 -3.141,-0.271 -4.643,-0.802m2.802,-4.879c0.001,0.012 0.002,0.023 0.004,0.035c0.876,-0.088 1.754,-0.168 2.629,-0.272c0.167,-0.019 0.403,-0.092 0.466,-0.213c0.182,-0.344 0.328,-0.716 0.416,-1.095c0.109,-0.467 -0.211,-0.749 -0.702,-0.711c-1.281,0.098 -2.555,0.044 -3.819,-0.201c-0.208,-0.04 -0.419,-0.082 -0.631,-0.091c-0.387,-0.019 -0.567,0.179 -0.48,0.557c0.036,0.159 0.185,0.291 0.275,0.439c0.171,0.278 0.391,0.541 0.494,0.843c0.233,0.688 0.21,0.697 0.891,0.709c0.152,0.002 0.304,0 0.457,0m4.077,4.775c-0.187,-0.467 -0.342,-0.82 -0.471,-1.184c-0.1,-0.285 -0.188,-0.578 -0.243,-0.874c-0.05,-0.264 -0.195,-0.362 -0.441,-0.359c-1.165,0.015 -2.324,-0.021 -3.468,-0.277c-0.09,-0.02 -0.28,0.108 -0.318,0.207c-0.314,0.815 -0.498,1.682 -1.094,2.437c2.054,0.433 4.028,0.787 6.035,0.05m0.934,-1.338c-0.006,0.065 -0.012,0.128 -0.019,0.193c-0.282,0.048 -0.564,0.098 -0.854,0.149c0.037,0.101 0.042,0.187 0.08,0.207c1.37,0.68 2.836,0.403 2.97,-1.211c0.078,-0.941 0.076,-1.894 0.045,-2.839c-0.011,-0.309 -0.191,-0.635 -0.364,-0.909c-0.15,-0.239 -0.448,-0.389 -0.716,-0.248c-0.127,0.066 -0.194,0.346 -0.199,0.531c-0.009,0.352 -0.165,0.523 -0.498,0.498c-0.56,-0.04 -1.116,-0.108 -1.712,-0.169c-0.083,0.324 0.065,0.599 0.367,0.804c0.097,0.066 0.236,0.076 0.331,0.146c0.108,0.081 0.187,0.201 0.28,0.303c-0.151,0.07 -0.299,0.191 -0.451,0.198c-0.194,0.008 -0.393,-0.075 -0.629,-0.128c-0.022,0.381 0.156,0.567 0.414,0.686c0.165,0.076 0.355,0.102 0.518,0.181c0.095,0.047 0.161,0.155 0.24,0.235c-0.099,0.096 -0.185,0.224 -0.303,0.279c-0.1,0.047 -0.241,-0.002 -0.36,0.015c-0.325,0.044 -0.418,0.25 -0.194,0.487c0.161,0.172 0.377,0.296 0.585,0.415c0.144,0.082 0.311,0.12 0.469,0.177m-6.685,-2.785c-0.279,0.042 -0.513,0.091 -0.75,0.104c-0.068,0.004 -0.18,-0.079 -0.203,-0.145c-0.021,-0.067 0.022,-0.185 0.075,-0.239c0.213,-0.216 0.502,-0.382 0.644,-0.634c0.093,-0.167 0.034,-0.47 -0.05,-0.673c-0.099,-0.238 -0.334,-0.193 -0.557,-0.113c-0.703,0.256 -1.38,0.239 -1.983,-0.261c-0.24,-0.2 -0.419,-0.069 -0.531,0.115c-0.124,0.202 -0.254,0.448 -0.248,0.672c0.019,0.73 0.085,1.459 0.161,2.185c0.077,0.743 0.517,1.295 1.022,1.801c0.501,0.502 1.141,0.552 1.792,0.514c0.293,-0.017 0.381,-0.226 0.173,-0.48c-0.192,-0.234 -0.174,-0.352 0.063,-0.503c0.176,-0.114 0.363,-0.233 0.492,-0.391c0.167,-0.205 0.159,-0.349 -0.178,-0.424c-0.488,-0.108 -0.508,-0.175 -0.128,-0.524c0.339,-0.312 0.28,-0.629 0.206,-1.004m-13.495,18.377c0.178,0.075 0.251,0.127 0.329,0.135c2.997,0.285 5.663,1.41 8.097,3.147c1.159,0.827 2.345,1.618 3.556,2.452c0.188,-0.615 0.196,-1.245 -0.005,-1.852c-0.076,-0.228 -0.33,-0.414 -0.535,-0.579c-0.284,-0.228 -0.634,-0.381 -0.891,-0.632c-0.999,-0.981 -2.143,-1.721 -3.458,-2.192c-0.632,-0.227 -1.277,-0.417 -1.907,-0.648c-1.5,-0.549 -3.008,-0.38 -4.52,-0.087c-0.2,0.039 -0.386,0.146 -0.666,0.256m11.329,6.349c-0.235,-0.512 -0.613,-0.772 -0.977,-1.034c-0.448,-0.321 -0.916,-0.611 -1.367,-0.927c-1.681,-1.174 -3.386,-2.298 -5.355,-2.957c-1.109,-0.371 -2.23,-0.65 -3.395,-0.719c-0.484,-0.028 -0.558,0.125 -0.325,0.541c0.457,0.818 1.179,1.393 1.836,2.032c1.534,1.491 3.336,2.437 5.434,2.868c1.358,0.28 2.711,0.316 4.149,0.196m9.914,-8.915c-1.059,-0.167 -1.804,0.387 -2.495,1.074c-0.414,0.41 -0.617,0.881 -0.592,1.48c0.035,0.829 0.183,1.059 1.027,1.015c0.754,-0.039 1.501,-0.225 2.252,-0.343c1.074,-0.169 1.706,-0.844 2.138,-1.797c0.461,-1.015 0.641,-2.099 0.835,-3.177c0.112,-0.627 0.185,-1.273 0.181,-1.908c-0.008,-0.959 -0.642,-1.601 -1.58,-1.717c-0.261,-0.032 -0.415,0.055 -0.427,0.331c-0.008,0.183 0.007,0.369 -0.018,0.55c-0.141,0.988 -0.458,1.9 -1.199,2.61c-0.22,0.211 -0.532,0.366 -0.246,0.731c0.175,0.221 0.032,0.646 0.47,0.703c0.167,0.021 0.422,0.076 0.305,0.318c-0.05,0.105 -0.306,0.116 -0.472,0.156c-0.054,0.013 -0.119,-0.016 -0.179,-0.026m-1.105,-9.322c-0.99,0.292 -1.917,0.514 -2.863,0.394c-1.361,-0.174 -2.716,-0.388 -4.066,-0.634c-0.658,-0.12 -0.693,-0.191 -0.934,0.35c-0.759,1.701 -1.541,3.396 -2.202,5.137c-0.863,2.279 -0.899,4.721 -1.193,7.108c-0.016,0.132 0.125,0.324 0.246,0.425c0.397,0.335 0.817,0.643 1.232,0.957c0.539,0.408 0.952,1.076 1.793,0.882c0.039,-0.009 0.1,0.061 0.147,0.1c0.403,0.331 0.883,0.199 1.327,0.185c0.459,-0.014 0.557,-0.208 0.424,-0.67c-0.479,-1.682 -0.407,-3.392 -0.15,-5.084c0.219,-1.445 0.594,-2.866 0.902,-4.297c0.164,-0.759 0.26,-1.507 -0.289,-2.172c-0.016,-0.019 0.044,-0.099 0.118,-0.255c0.245,0.32 0.491,0.579 0.667,0.88c0.414,0.713 0.787,1.45 1.196,2.168c0.226,0.398 0.455,0.802 0.743,1.154c0.541,0.661 1.286,1.024 2.107,0.799c0.72,-0.197 1.377,-0.629 2.057,-0.966c0.072,-0.037 0.139,-0.136 0.158,-0.218c0.155,-0.649 0.318,-1.296 0.436,-1.952c0.047,-0.257 -0.143,-0.427 -0.401,-0.329c-0.661,0.253 -1.409,0.283 -1.964,0.831c-0.459,-0.624 -0.21,-1.22 -0.082,-1.799c0.178,-0.804 0.399,-1.598 0.586,-2.4c0.038,-0.164 0.005,-0.345 0.005,-0.594m-9.036,-29.209c-0.379,0.975 -1.083,1.357 -1.94,1.517c-0.358,0.067 -0.721,0.13 -1.085,0.156c-0.703,0.052 -0.682,0.043 -0.751,0.704c-0.044,0.422 -0.108,0.855 -0.252,1.249c-0.397,1.087 -1.024,2.023 -2.009,2.668c-0.366,0.24 -0.508,0.515 -0.555,0.962c-0.16,1.489 -0.102,2.923 0.682,4.253c0.061,0.102 0.097,0.226 0.116,0.345c0.084,0.555 0.439,0.935 0.834,1.281c0.983,0.865 2.121,1.432 3.396,1.74c1.255,0.304 2.533,0.385 3.813,0.493c1.258,0.107 2.49,0.126 3.738,-0.101c2.051,-0.375 3.94,-1.095 5.625,-2.34c1.117,-0.825 1.946,-1.82 2.319,-3.196c0.368,-1.357 0.504,-2.74 0.152,-4.075c-0.585,-2.222 -1.419,-4.361 -2.735,-6.282c-0.281,-0.409 -0.54,-0.702 -1.081,-0.693c-0.26,0.004 -0.577,-0.081 -0.777,-0.24c-0.469,-0.378 -0.818,-0.183 -1.216,0.105c-0.836,0.609 -1.766,0.814 -2.782,0.565c-0.355,-0.087 -0.707,-0.188 -1.059,-0.282c-0.464,1.345 -0.95,1.047 -2.298,0.774c-0.168,0.479 -0.019,1.179 -0.723,1.333c-0.653,0.143 -0.989,-0.353 -1.412,-0.936m11.491,-1.21c1.178,1.546 1.871,3.28 2.522,5.028c0.351,0.94 0.768,1.872 0.775,2.909c0.002,0.275 -0.073,0.637 0.069,0.8c0.164,0.189 0.532,0.197 0.808,0.293c0.144,0.05 0.279,0.129 0.421,0.181c0.494,0.179 0.931,-0.131 0.887,-0.663c-0.02,-0.232 -0.116,-0.484 -0.252,-0.673c-0.282,-0.392 -0.381,-0.731 -0.033,-1.154c0.134,-0.163 0.184,-0.473 0.139,-0.688c-0.072,-0.348 -0.207,-0.703 -0.4,-1c-0.493,-0.755 -0.502,-0.737 0.015,-1.514c0.202,-0.304 0.406,-0.627 0.507,-0.972c0.21,-0.716 0.309,-1.431 -0.313,-2.053c-0.319,-0.319 -0.273,-0.483 0.028,-0.869c0.319,-0.408 0.686,-0.791 0.93,-1.24c0.357,-0.654 0.219,-1.27 -0.394,-1.693c-0.548,-0.378 -1.148,-0.695 -1.76,-0.957c-0.527,-0.227 -0.583,-0.21 -0.42,-0.771c0.223,-0.761 0.202,-1.515 -0.052,-2.252c-0.354,-1.026 -0.844,-1.191 -1.776,-0.641c-0.026,0.015 -0.044,0.043 -0.072,0.057c-0.396,0.213 -0.645,0.104 -0.719,-0.334c-0.076,-0.452 -0.108,-0.913 -0.197,-1.361c-0.124,-0.621 -0.399,-0.817 -1.028,-0.797c-0.724,0.022 -1.171,0.428 -1.509,1.032c-0.087,0.156 -0.309,0.237 -0.468,0.353c-0.099,-0.171 -0.218,-0.334 -0.29,-0.515c-0.042,-0.107 0.001,-0.243 -0.011,-0.364c-0.065,-0.634 -0.456,-1.136 -1.077,-1.189c-0.535,-0.045 -1.096,0.019 -1.626,0.131c-0.496,0.104 -0.86,0.438 -1.025,0.957c-0.079,0.251 -0.119,0.622 -0.456,0.612c-0.408,-0.011 -0.356,-0.401 -0.42,-0.694c-0.121,-0.565 -0.323,-0.725 -0.896,-0.688c-0.299,0.02 -0.614,0.081 -0.885,0.204c-0.622,0.281 -1.176,0.648 -1.403,1.363c-0.047,0.145 -0.238,0.332 -0.369,0.338c-0.113,0.005 -0.276,-0.203 -0.347,-0.351c-0.156,-0.326 -0.372,-0.604 -0.733,-0.62c-0.482,-0.02 -0.976,0 -1.447,0.092c-0.367,0.071 -0.645,0.321 -0.719,0.746c-0.028,0.152 -0.176,0.283 -0.269,0.424c-0.139,-0.102 -0.29,-0.191 -0.414,-0.308c-0.087,-0.082 -0.127,-0.209 -0.202,-0.304c-0.866,-1.101 -2.046,-1.026 -2.763,0.177c-0.077,0.131 -0.136,0.276 -0.19,0.418c-0.279,0.725 -0.277,0.725 -1.017,0.361c-0.055,-0.028 -0.107,-0.059 -0.164,-0.08c-1.083,-0.408 -2.199,0.275 -2.186,1.338c0.005,0.358 0.177,0.834 0.009,1.046c-0.3,0.375 -0.718,-0.076 -1.093,-0.126c-0.72,-0.095 -1.136,0.15 -1.226,0.864c-0.033,0.265 0.018,0.546 0.059,0.815c0.028,0.179 0.133,0.348 0.155,0.527c0.018,0.162 0.005,0.349 -0.068,0.49c-0.022,0.047 -0.276,0.009 -0.408,-0.037c-0.258,-0.091 -0.5,-0.229 -0.759,-0.321c-0.263,-0.094 -0.5,-0.005 -0.628,0.237c-0.276,0.515 -0.329,1.052 -0.028,1.578c0.145,0.25 0.525,0.573 0.464,0.694c-0.218,0.428 -0.574,0.003 -0.881,0.006c-0.436,0.005 -0.797,0.256 -0.964,0.706c-0.157,0.422 0.122,0.621 0.396,0.824c0.096,0.073 0.218,0.111 0.322,0.175c0.167,0.107 0.479,0.159 0.359,0.426c-0.061,0.137 -0.333,0.191 -0.52,0.253c-0.112,0.037 -0.27,-0.028 -0.36,0.029c-0.247,0.158 -0.509,0.321 -0.69,0.544c-0.227,0.282 -0.056,0.581 0.115,0.845c0.508,0.78 1.235,1.242 2.114,1.522c0.607,0.192 0.645,0.367 0.189,0.797c-0.5,0.471 -0.733,1.036 -0.79,1.703c-0.038,0.436 0.024,0.746 0.524,0.918c0.5,0.171 0.481,0.262 0.1,0.707c-0.157,0.183 -0.341,0.363 -0.438,0.579c-0.285,0.63 -0.27,1.407 0.72,1.619c0.268,0.057 0.543,0.079 0.813,0.13c0.325,0.061 0.384,0.214 0.213,0.512c-0.345,0.596 -0.258,0.849 0.381,1.038c0.202,0.059 0.421,0.064 0.633,0.084c0.294,0.028 0.44,-0.12 0.513,-0.401c0.092,-0.352 0.182,-0.715 0.341,-1.039c0.462,-0.943 0.954,-1.214 1.977,-1.129c0.264,0.022 0.523,0.084 0.833,0.137c0.018,-0.341 -0.045,-0.674 0.066,-0.932c0.217,-0.494 0.131,-0.857 -0.309,-1.126c0.071,-0.105 0.093,-0.174 0.14,-0.203c0.184,-0.108 0.375,-0.207 0.564,-0.305c1.479,-0.761 2.212,-2.051 2.542,-3.615c0.056,-0.261 0.026,-0.549 -0.011,-0.817c-0.069,-0.496 0.079,-0.713 0.523,-0.586c0.787,0.224 1.511,0.035 2.236,-0.222c0.717,-0.253 1.076,-0.771 1.092,-1.53c0.004,-0.184 -0.024,-0.376 0.024,-0.547c0.034,-0.121 0.174,-0.212 0.266,-0.317c0.083,0.078 0.197,0.14 0.245,0.235c0.065,0.134 0.055,0.306 0.127,0.436c0.205,0.373 0.42,0.743 0.664,1.09c0.073,0.107 0.307,0.227 0.372,0.187c0.134,-0.083 0.264,-0.261 0.285,-0.414c0.038,-0.299 0.011,-0.609 -0.015,-0.911c-0.013,-0.181 -0.112,-0.359 -0.104,-0.536c0.005,-0.129 0.12,-0.253 0.185,-0.379c0.12,0.069 0.313,0.112 0.345,0.208c0.164,0.497 0.513,0.735 0.997,0.839c0.275,0.06 0.595,0.164 0.743,-0.128c0.092,-0.177 0.014,-0.458 -0.029,-0.684c-0.044,-0.234 -0.176,-0.453 -0.193,-0.686c-0.008,-0.103 0.149,-0.257 0.268,-0.318c0.068,-0.034 0.235,0.045 0.311,0.119c0.172,0.168 0.283,0.408 0.475,0.542c1.611,1.128 3.729,0.451 4.433,-1.396c0.035,-0.093 0.159,-0.222 0.229,-0.215c0.094,0.008 0.222,0.123 0.25,0.216c0.049,0.171 0.05,0.361 0.044,0.542c-0.021,0.56 0.063,0.687 0.573,0.815c1.22,0.308 2.547,-0.212 3.281,-1.279c0.065,-0.093 0.153,-0.168 0.248,-0.272c0.267,0.762 0.23,1.064 -0.33,1.445c-0.496,0.338 -1.059,0.578 -1.713,0.923m-0.741,15.518c0.95,1.012 0.704,2.309 0.858,3.502c0.109,0.845 0.045,1.712 0.077,2.569c0.047,1.25 0.08,2.501 0.181,3.747c0.044,0.541 0.224,1.075 0.373,1.604c0.154,0.545 0.194,1.077 0.014,1.624c-0.239,0.726 -0.488,0.878 -1.219,0.739c-0.221,-0.043 -0.543,-0.129 -0.664,-0.02c-0.286,0.253 -0.667,0.604 -0.678,0.927c-0.043,1.337 -0.46,2.578 -0.815,3.838c-0.007,0.026 0.014,0.058 0.039,0.154c0.159,-0.016 0.33,-0.023 0.498,-0.05c0.75,-0.122 1.495,-0.286 2.249,-0.368c1.273,-0.139 2.358,0.807 2.399,2.094c0.058,1.826 -0.307,3.588 -0.924,5.298c-0.472,1.302 -1.328,2.155 -2.745,2.424c-0.844,0.16 -1.677,0.365 -2.54,0.286c-0.298,-0.027 -0.623,-0.08 -0.87,-0.23c-0.208,-0.126 -0.423,-0.394 -0.456,-0.626c-0.172,-1.183 0.037,-2.241 1.072,-3.028c0.596,-0.454 1.235,-0.776 2.026,-0.913c-0.091,-0.191 -0.163,-0.317 -0.213,-0.451c-0.15,-0.41 -0.388,-0.423 -0.787,-0.296c-1.146,0.364 -2.11,-0.035 -2.876,-0.897c-0.32,-0.36 -0.535,-0.816 -0.782,-1.237c-0.169,-0.286 -0.314,-0.588 -0.527,-0.994c-0.115,0.226 -0.204,0.337 -0.23,0.461c-0.332,1.553 -0.804,3.094 -0.937,4.664c-0.122,1.437 -0.305,2.929 0.242,4.361c0.206,0.539 -0.104,0.943 -0.7,1.03c-0.41,0.061 -0.824,0.11 -1.236,0.165c0.007,0.426 0.015,0.853 0.018,1.28c0.001,0.152 -0.026,0.307 -0.016,0.458c0.071,1.064 -0.724,1.666 -1.747,1.728c-2.584,0.155 -5.076,-0.285 -7.344,-1.575c-1.5,-0.853 -2.751,-2.042 -3.857,-3.363c-0.307,-0.367 -0.519,-0.83 -0.71,-1.278c-0.232,-0.547 -0.14,-0.851 0.378,-1.161c0.415,-0.248 0.872,-0.481 1.339,-0.576c1.571,-0.319 3.147,-0.454 4.697,0.161c0.879,0.349 1.779,0.644 2.761,0.997c0.241,-0.838 0.288,-1.712 0.407,-2.572c0.09,-0.664 0.156,-1.332 0.273,-1.991c0.484,-2.714 1.68,-5.169 2.905,-7.596c0.298,-0.592 -0.016,-0.954 -0.109,-1.416c-0.012,-0.062 -0.13,-0.119 -0.21,-0.145c-0.084,-0.028 -0.182,-0.017 -0.272,-0.025c-1.278,-0.114 -1.556,-0.375 -1.752,-1.654c-0.024,-0.151 -0.062,-0.309 -0.04,-0.456c0.236,-1.465 -0.253,-2.919 -0.06,-4.382c0.009,-0.06 0.028,-0.131 0.008,-0.182c-0.43,-1.043 -0.347,-2.165 -0.477,-3.25c-0.07,-0.595 -0.028,-1.219 0.067,-1.812c0.062,-0.397 -0.02,-0.541 -0.388,-0.657c-1.28,-0.406 -2.361,-1.142 -3.345,-2.124c-0.088,0.036 -0.201,0.065 -0.295,0.122c-1.255,0.758 -3.096,0.47 -4.005,-1.033c-0.255,-0.421 -0.508,-0.644 -1.008,-0.591c-0.204,0.021 -0.43,-0.032 -0.629,-0.1c-0.551,-0.189 -1.001,-0.487 -0.984,-1.161c0.006,-0.276 -0.086,-0.439 -0.36,-0.559c-1.37,-0.602 -1.587,-1.243 -0.905,-2.584c0.042,-0.082 0.088,-0.162 0.161,-0.292c-1.051,-0.676 -0.695,-1.604 -0.394,-2.511c0.095,-0.285 0.273,-0.542 0.443,-0.872c-0.18,-0.102 -0.35,-0.208 -0.529,-0.298c-0.644,-0.325 -1.165,-0.785 -1.552,-1.393c-0.551,-0.868 -0.445,-1.517 0.346,-2.166c0.093,-0.078 0.198,-0.141 0.363,-0.256c-0.291,-0.369 -0.413,-0.799 -0.234,-1.244c0.164,-0.412 0.459,-0.733 0.888,-0.876c0.253,-0.084 0.362,-0.206 0.268,-0.468c-0.021,-0.058 -0.048,-0.117 -0.05,-0.176c-0.04,-1.696 0.306,-2.17 1.842,-1.95c0.009,-0.175 0.016,-0.345 0.028,-0.514c0.022,-0.303 0.014,-0.613 0.077,-0.908c0.132,-0.621 0.519,-0.933 1.157,-0.972c0.182,-0.012 0.369,-0.016 0.55,0.01c0.342,0.049 0.488,-0.067 0.531,-0.429c0.121,-1.035 0.745,-1.663 1.738,-1.878c0.34,-0.074 0.727,-0.001 1.078,0.073c0.287,0.061 0.457,0.019 0.596,-0.246c0.127,-0.242 0.269,-0.485 0.448,-0.689c0.787,-0.89 1.917,-0.999 2.875,-0.295c0.123,0.09 0.238,0.19 0.39,0.313c0.277,-0.181 0.534,-0.397 0.828,-0.531c0.274,-0.123 0.586,-0.158 0.881,-0.232c0.592,-0.15 1.171,-0.08 1.682,0.235c0.31,0.192 0.469,0.13 0.691,-0.112c0.49,-0.529 1.099,-0.848 1.806,-1.028c0.749,-0.189 1.396,-0.123 1.962,0.535c0.678,-0.74 1.558,-0.958 2.494,-0.969c0.984,-0.013 1.806,0.314 2.236,1.316c0.775,-0.426 1.528,-0.88 2.426,-0.517c0.974,0.394 0.939,1.331 1.074,2.207c0.184,-0.044 0.324,-0.088 0.467,-0.111c1.044,-0.163 1.676,0.136 1.993,1.151c0.223,0.713 0.281,1.495 0.299,2.248c0.007,0.371 0.086,0.547 0.396,0.709c0.46,0.24 0.914,0.503 1.336,0.804c0.965,0.685 1.217,1.592 0.706,2.648c-0.223,0.46 -0.721,0.83 -0.817,1.298c-0.087,0.419 0.256,0.91 0.32,1.381c0.127,0.92 -0.133,1.762 -0.675,2.509c-0.207,0.284 -0.226,0.505 -0.008,0.812c0.522,0.739 0.737,1.532 0.274,2.406c-0.064,0.121 0.002,0.349 0.072,0.497c0.358,0.755 0.437,1.469 -0.238,2.098c-0.209,0.195 -0.061,0.375 -0.027,0.581c0.149,0.923 0.167,1.806 -0.512,2.595c-0.664,0.772 -1.543,0.83 -2.356,0.613c-0.713,-0.191 -1.061,0.107 -1.511,0.49c-0.604,0.512 -1.255,0.967 -1.988,1.524" style="fill:#231f20;fill-rule:nonzero;"/><path d="M133.59,13.656c0,0 1.576,-3.234 -2.734,-2.919c-4.31,0.315 -2.596,3.471 -2.596,3.471c0,0 -2.96,-1.577 -2.693,1.735c0,0 -3.775,0.374 -2.621,2.908c1.154,2.536 4.31,0 4.31,0c0,0 2.367,1.431 4.575,0.8c2.208,-0.632 2.76,-1.355 2.76,-1.355c0,0 2.683,2.123 4.97,0.555c2.288,-1.567 -1.842,-4.764 -3.366,-3.876c0,0 -0.058,-2.503 -2.605,-1.319" style="fill:#fff;fill-rule:nonzero;"/><g opacity="0.1"><path d="M101.064,3.323l-13.967,113.86c0,0 29.67,17.95 73.567,1.026l-23.151,-118.103l-36.449,3.217Z" style="fill:#fffce1;fill-rule:nonzero;"/></g></g></g></g></svg>