<?xml version="1.0" encoding="UTF-8" standalone="no"?><!DOCTYPE svg PUBLIC "-//W3C//DTD SVG 1.1//EN" "http://www.w3.org/Graphics/SVG/1.1/DTD/svg11.dtd"><svg width="100%" height="100%" viewBox="0 0 225 132" version="1.1" xmlns="http://www.w3.org/2000/svg" xmlns:xlink="http://www.w3.org/1999/xlink" xml:space="preserve" xmlns:serif="http://www.serif.com/" style="fill-rule:evenodd;clip-rule:evenodd;stroke-linejoin:round;stroke-miterlimit:2;"><g><path d="M214.848,131.232l-205.063,0c-5.371,0 -9.766,-4.395 -9.766,-9.766l0,-111.593c0,-5.371 4.395,-9.766 9.766,-9.766l205.063,0c5.371,0 9.766,4.395 9.766,9.766l0,111.593c0,5.371 -4.395,9.766 -9.766,9.766" style="fill:#fec667;fill-rule:nonzero;"/><path d="M211.976,69.734c0,25.162 -43.378,45.558 -96.885,45.558c-53.509,0 -96.886,-20.396 -96.886,-45.558c0,-25.162 43.377,-45.559 96.886,-45.559c53.507,0 96.885,20.397 96.885,45.559" style="fill:#ffe06c;fill-rule:nonzero;"/><path d="M89.429,111.315c0.692,-0.257 1.234,-0.459 1.777,-0.66c0.069,-0.025 0.148,-0.036 0.202,-0.079c0.161,-0.128 0.392,-0.24 0.454,-0.409c0.274,-0.764 -0.26,-1.78 -1.031,-2.038c-0.672,-0.223 -1.372,0.206 -1.396,0.89c-0.027,0.721 -0.006,1.443 -0.006,2.296m21.437,-37.073c-0.177,-0.649 -0.379,-1.059 -0.796,-1.347c-1.245,-0.86 -2.584,-0.803 -3.738,0.165c-0.852,0.714 -1.513,1.586 -2.07,2.535c-0.415,0.707 -0.393,0.772 0.181,1.43c0.209,0.24 0.435,0.466 0.704,0.752c1.396,-1.989 2.938,-3.674 5.719,-3.535m-5.379,7.16c0.909,0.339 0.947,0.346 1.082,-0.221c0.508,-2.118 2.12,-3.156 3.921,-3.973c0.404,-0.182 0.93,-0.11 1.4,-0.123c0.23,-0.007 0.463,0.061 0.784,0.109c-0.136,-0.395 -0.204,-0.683 -0.331,-0.94c-0.698,-1.414 -0.867,-1.587 -2.567,-1.319c-0.036,0.006 -0.07,0.021 -0.105,0.029c-1.8,0.454 -2.928,1.702 -3.813,3.234c-0.208,0.359 -0.285,0.747 -0.138,1.158c0.246,0.691 0.181,1.359 -0.233,2.046m-27.357,-11.897c-0.072,-0.083 -0.143,-0.214 -0.251,-0.286c-0.91,-0.607 -1.821,-1.211 -2.743,-1.796c-0.583,-0.369 -0.609,-0.361 -1.053,0.218c-0.443,0.575 -0.811,1.218 -1.314,1.733c-0.291,0.298 -0.348,0.56 -0.208,0.859c0.324,0.691 0.695,1.359 1.057,2.032c0.309,0.575 0.831,0.907 1.41,1.153c0.625,0.267 0.971,0.231 1.307,-0.359c0.629,-1.105 1.16,-2.264 1.731,-3.401c0.017,-0.032 0.029,-0.068 0.064,-0.153m4.642,49.301c-0.187,-0.512 -0.298,-0.868 -0.925,-0.698c-0.448,0.121 -0.943,0.085 -1.416,0.084c-2.083,-0.006 -4.168,0.017 -6.248,-0.054c-1.271,-0.043 -2.543,-0.19 -3.802,-0.375c-1.078,-0.16 -2.13,-0.512 -3.211,-0.646c-1.102,-0.137 -2.139,-0.451 -3.164,-0.838c-0.648,-0.244 -1.284,-0.522 -1.92,-0.798c-0.692,-0.302 -0.782,-0.297 -1.016,0.438c-0.186,0.585 -0.33,1.199 -0.376,1.809c-0.089,1.142 -0.054,1.149 1.086,1.149c6.614,-0.005 13.228,-0.011 19.842,-0.019c0.358,0 0.714,-0.031 1.15,-0.052m-9.382,-51.471c-1.092,-0.232 -2.036,-0.127 -2.885,0.46c-0.664,0.459 -1.03,1.096 -1.065,1.936c-0.043,1.009 0.054,1.995 0.573,2.86c0.638,1.062 1.349,2.081 2.072,3.088c0.204,0.283 0.536,0.506 0.853,0.671c1.12,0.584 2.304,0.887 3.588,0.802c0.963,-0.066 1.603,-0.533 1.871,-1.421c0.431,-1.422 0.377,-2.849 -0.144,-4.446c-0.248,0.414 -0.404,0.682 -0.568,0.946c-0.289,0.463 -0.575,0.929 -0.876,1.384c-0.428,0.651 -1.073,0.761 -1.742,0.551c-0.734,-0.23 -1.44,-0.575 -1.866,-1.268c-0.382,-0.621 -0.742,-1.259 -1.066,-1.913c-0.351,-0.712 -0.339,-1.487 -0.255,-2.256c0.016,-0.155 0.082,-0.456 0.316,-0.269c0.242,0.192 0.361,0.159 0.505,-0.058c0.216,-0.33 0.429,-0.663 0.689,-1.067m29.957,8.534c0.599,-1.254 1.428,-2.35 2.498,-3.25c0.301,-0.254 0.654,-0.591 1.004,-0.617c1.359,-0.101 1.943,-1.079 2.571,-2.054c0.235,-0.366 0.518,-0.705 0.794,-1.044c0.552,-0.678 1.129,-1.338 1.669,-2.026c0.39,-0.497 0.646,-1.051 0.572,-1.719c-0.125,-1.122 -0.652,-1.494 -1.705,-1.101c-0.506,0.191 -1.047,0.421 -1.428,0.785c-1.581,1.509 -3.113,3.07 -4.644,4.63c-0.25,0.255 -0.436,0.59 -0.598,0.913c-0.587,1.173 -1.192,2.34 -1.714,3.542c-0.585,1.347 -0.549,1.361 0.981,1.941m-35.282,11.174c-0.304,0.113 -0.49,0.182 -0.679,0.252c0.002,-0.204 -0.054,-0.428 0.014,-0.606c0.378,-0.973 1.067,-1.65 2.053,-1.999c1.095,-0.387 2.199,-0.476 3.331,-0.104c0.64,0.209 1.064,0.438 1.054,1.267c-0.013,0.846 0.32,1.011 1.127,0.796c0.348,-0.093 0.703,-0.217 1.01,-0.399c0.487,-0.29 0.584,-0.605 0.287,-1.103c-0.486,-0.814 -0.98,-1.637 -1.575,-2.371c-1.604,-1.985 -2.84,-4.15 -3.571,-6.605c-0.163,-0.547 -0.44,-1.085 -0.768,-1.554c-0.936,-1.341 -1.732,-2.714 -1.593,-4.437c0.034,-0.411 -0.188,-0.604 -0.593,-0.598c-0.549,0.007 -1.103,0.065 -1.644,0.008c-0.945,-0.099 -1.58,0.33 -2.171,1.009c-1.563,1.794 -1.788,3.95 -1.379,6.098c0.622,3.257 1.498,6.468 2.312,9.686c0.139,0.552 0.478,1.061 0.772,1.562c0.097,0.164 0.334,0.321 0.522,0.341c0.561,0.058 1.133,0.166 1.756,0.041c-0.094,-0.453 -0.173,-0.839 -0.265,-1.284m21.855,27.384c0.147,-0.138 0.195,-0.222 0.243,-0.223c1.095,-0.026 2.709,1.062 3.129,2.045c0.864,2.021 1.515,4.114 2.063,6.236c0.158,0.613 0.527,1.019 0.966,1.39c0.14,0.119 0.409,0.158 0.596,0.12c0.091,-0.018 0.182,-0.299 0.181,-0.46c-0.007,-0.51 -0.033,-1.021 -0.095,-1.527c-0.105,-0.832 -0.299,-1.656 -0.355,-2.491c-0.119,-1.798 -0.743,-3.341 -2.13,-4.53c-0.525,-0.449 -1.087,-0.856 -1.614,-1.301c-0.113,-0.095 -0.151,-0.275 -0.222,-0.417c0.165,-0.038 0.355,-0.145 0.49,-0.099c0.272,0.092 0.542,0.236 0.763,0.418c1.304,1.078 2.463,2.277 3.241,3.81c0.33,0.652 0.681,1.303 1.119,1.884c0.318,0.424 0.747,0.816 1.21,1.068c0.618,0.337 1.127,-0.002 1.068,-0.7c-0.041,-0.49 -0.216,-0.996 -0.441,-1.439c-0.597,-1.172 -1.236,-2.324 -1.893,-3.462c-0.621,-1.075 -1.276,-2.129 -1.936,-3.179c-0.403,-0.642 -1.012,-0.87 -1.767,-0.911c-1.097,-0.059 -2.09,0.312 -3.097,0.618c-0.66,0.2 -1.349,0.425 -1.908,0.808c-0.499,0.342 -0.951,0.654 -1.565,0.772c-0.415,0.079 -0.781,0.39 -1.187,0.554c-0.635,0.259 -0.806,0.177 -1.157,-0.392c-0.307,-0.495 -0.648,-0.969 -0.965,-1.459c-0.554,-0.856 -1.147,-1.692 -1.644,-2.583c-1.209,-2.167 -2.233,-4.432 -3.432,-6.608c-1.394,-2.528 -2.731,-5.095 -3.606,-7.866c-0.87,-2.751 -1.739,-5.504 -2.599,-8.259c-0.122,-0.39 -0.225,-0.763 -0.641,-0.966c-1.163,-0.566 -3.227,-0.259 -4.137,0.625c-0.259,0.251 -0.387,0.529 -0.268,0.884c0.519,1.558 0.984,3.141 1.579,4.67c0.874,2.249 1.827,4.466 2.775,6.685c0.358,0.837 0.759,1.661 1.202,2.456c0.827,1.482 1.813,2.857 2.339,4.52c0.483,1.527 1.241,2.966 1.9,4.433c0.707,1.575 1.533,3.084 2.652,4.405c0.552,0.652 0.92,1.394 1.311,2.138c0.372,0.709 0.776,1.412 1.245,2.06c0.982,1.361 1.692,1.453 3.006,0.427c0.258,-0.2 0.406,-0.54 0.685,-0.925c0.235,0.408 0.463,0.765 0.654,1.142c0.496,0.976 0.954,1.973 1.474,2.937c0.204,0.377 0.501,0.721 0.819,1.012c0.161,0.149 0.5,0.248 0.688,0.178c0.152,-0.057 0.255,-0.395 0.276,-0.616c0.03,-0.323 -0.003,-0.66 -0.064,-0.979c-0.15,-0.789 -0.341,-1.57 -0.497,-2.357c-0.214,-1.086 -0.4,-2.178 -1.555,-2.735c-0.09,-0.044 -0.105,-0.243 -0.156,-0.37c0.162,-0.05 0.354,-0.179 0.481,-0.134c0.56,0.199 1.081,0.493 1.308,1.086c0.196,0.51 0.361,1.034 0.487,1.566c0.193,0.816 0.321,1.649 0.514,2.466c0.302,1.294 1.218,2.047 2.378,2.534c0.269,0.114 0.611,0.056 1.017,0.083c-0.12,-0.49 -0.182,-0.844 -0.293,-1.183c-0.585,-1.768 -1.256,-3.512 -1.746,-5.305c-0.273,-1.003 -0.843,-1.572 -1.726,-1.961c-0.384,-0.17 -0.752,-0.382 -1.163,-0.593m-15.619,-27.058c0.112,0.369 0.21,0.719 0.325,1.061c0.593,1.767 1.214,3.524 1.782,5.297c0.941,2.941 2.367,5.658 3.791,8.378c0.069,0.129 0.127,0.276 0.231,0.371c0.673,0.619 0.944,1.463 1.288,2.266c1.036,2.421 2.127,4.812 3.85,6.848c0.118,0.139 0.21,0.3 0.302,0.457c0.551,0.94 0.383,1.035 1.566,0.397c0.129,-0.069 0.251,-0.154 0.386,-0.205c0.668,-0.245 0.925,-0.715 0.97,-1.425c0.062,-0.976 -0.172,-1.973 0.206,-2.933c0.053,-0.134 -0.056,-0.35 -0.127,-0.512c-0.483,-1.105 -0.985,-2.201 -1.466,-3.306c-1.194,-2.744 -2.436,-5.466 -3.177,-8.39c-0.547,-2.158 -1.301,-4.265 -1.811,-6.43c-0.677,-2.875 -1.221,-5.782 -1.789,-8.681c-0.139,-0.712 -0.162,-1.448 -0.213,-2.175c-0.013,-0.171 0.076,-0.348 0.118,-0.522c0.054,0.006 0.108,0.012 0.161,0.019c0.559,2.694 1.119,5.388 1.678,8.082c0.371,-0.318 0.561,-0.654 0.716,-1.004c0.401,-0.907 1.136,-1.431 2.045,-1.683c0.99,-0.276 1.405,-0.055 1.931,0.843c0.07,0.12 0.171,0.223 0.316,0.408c0.226,-0.955 -0.003,-1.731 -0.422,-2.476c-0.643,-1.145 -1.347,-2.262 -1.915,-3.444c-0.998,-2.078 -1.822,-4.23 -2.321,-6.487c-0.136,-0.611 -0.383,-0.963 -0.976,-1.162c-0.726,-0.244 -1.42,-0.58 -2.131,-0.866c-0.217,-0.087 -0.446,-0.141 -0.658,-0.205c-0.066,0.153 -0.119,0.218 -0.117,0.283c0.003,0.144 0.004,0.3 0.056,0.43c0.567,1.403 0.488,2.87 0.425,4.33c-0.081,1.889 -1.18,2.934 -3.075,3.014c-1.011,0.043 -1.951,-0.222 -2.88,-0.568c-0.328,-0.122 -0.652,-0.254 -1.116,-0.434c0.307,1.016 0.587,1.874 1.102,2.625c0.701,1.024 1.446,2.02 2.152,3.04c0.457,0.661 0.917,1.324 1.309,2.023c0.551,0.984 0.308,1.778 -0.716,2.249c-0.514,0.238 -1.107,0.307 -1.796,0.487m39.2,-6.557c-0.16,-0.702 -0.243,-1.434 -0.498,-2.1c-0.429,-1.117 -1.324,-1.503 -2.385,-0.95c-0.895,0.467 -1.747,1.07 -2.499,1.747c-0.658,0.593 -1.025,1.409 -0.938,2.366c0.066,0.72 0.213,0.894 0.925,0.929c1.096,0.054 1.723,-0.665 2.33,-1.413c0.181,-0.225 0.327,-0.479 0.516,-0.696c0.049,-0.057 0.222,-0.065 0.297,-0.023c0.077,0.043 0.135,0.172 0.147,0.27c0.01,0.102 -0.026,0.22 -0.072,0.316c-0.498,1.049 -1.335,1.781 -2.413,2.093c-0.798,0.232 -1.681,0.222 -2.244,-0.658c-0.104,-0.161 -0.324,-0.32 -0.507,-0.341c-0.502,-0.059 -0.885,-0.289 -1.262,-0.602c-0.179,-0.151 -0.447,-0.232 -0.685,-0.266c-1.007,-0.146 -1.835,-0.693 -2.696,-1.166c-0.152,-0.085 -0.307,-0.233 -0.373,-0.389c-0.058,-0.138 -0.022,-0.34 0.035,-0.49c0.018,-0.044 0.275,-0.051 0.38,0.004c0.648,0.336 1.272,0.722 1.929,1.034c0.318,0.15 0.694,0.243 1.044,0.242c0.458,-0.001 0.638,-0.269 0.583,-0.73c-0.24,-2.034 -2.604,-4.695 -5.418,-4.19c-0.842,0.15 -1.234,0.499 -1.311,1.365c-0.181,2.066 -0.126,4.1 1.019,5.941c0.251,0.402 0.527,0.789 0.791,1.183c0.474,0.706 0.5,0.799 -0.045,1.436c-1.532,1.795 -2.686,3.818 -3.762,5.907c-0.583,1.13 -1.348,2.167 -2.056,3.231c-0.179,0.269 -0.429,0.501 -0.685,0.701c-0.311,0.243 -0.434,0.125 -0.532,-0.333c-0.046,-0.215 -0.206,-0.424 -0.359,-0.599c-0.67,-0.771 -1.476,-1.451 -2.011,-2.305c-1.104,-1.764 -2.089,-3.604 -3.077,-5.438c-0.396,-0.736 -0.663,-1.543 -1.003,-2.311c-0.296,-0.67 -0.482,-0.793 -1.174,-0.68c-0.315,0.052 -0.613,0.215 -0.916,0.334c-1.023,0.403 -0.837,1.636 -1.547,2.272c-0.193,0.173 -0.289,0.516 -0.319,0.794c-0.03,0.279 0.054,0.58 0.131,0.858c0.254,0.915 0.521,1.826 0.799,2.734c0.073,0.241 0.159,0.495 0.306,0.692c1.288,1.727 2.588,3.44 3.887,5.158c0.375,0.495 0.795,0.961 1.127,1.484c1.041,1.638 2.658,2.48 4.381,3.121c1.001,0.372 2.04,0.279 2.866,-0.524c0.466,-0.457 0.905,-0.951 1.301,-1.469c0.755,-0.987 1.462,-2.011 2.208,-3.004c0.636,-0.847 1.346,-1.642 1.942,-2.515c1.009,-1.479 2.045,-2.951 2.897,-4.52c0.68,-1.253 1.706,-1.714 2.985,-1.897c0.434,-0.062 0.868,-0.122 1.3,-0.199c0.811,-0.14 1.558,-0.448 2.123,-1.058c1.388,-1.502 2.585,-3.103 2.538,-5.346m-51.214,-3.605c-0.167,0.247 -0.26,0.325 -0.271,0.411c-0.25,1.991 -0.606,3.972 -0.547,5.992c0.026,0.912 0.027,1.827 0.009,2.741c-0.042,2.042 -0.088,4.086 -0.164,6.128c-0.031,0.837 -0.153,1.671 -0.21,2.507c-0.108,1.567 -0.177,3.135 -0.299,4.701c-0.213,2.73 -0.447,5.46 -0.373,8.201c0.046,1.716 0.14,3.43 0.18,5.146c0.011,0.547 0.239,0.889 0.713,1.116c0.659,0.316 1.315,0.636 1.964,0.969c2.176,1.116 4.635,1.201 6.935,1.877c1.275,0.374 2.671,0.405 4.017,0.447c2.264,0.072 4.531,0.031 6.797,0.03c0.268,0 0.535,-0.049 0.815,-0.076c-0.328,-1.239 -0.999,-2.207 -1.702,-3.123c-1.236,-1.609 -2.163,-3.377 -2.981,-5.218c-0.979,-2.201 -1.848,-4.465 -3.005,-6.568c-1.167,-2.121 -2.177,-4.294 -3.074,-6.53c-0.149,-0.372 -0.337,-0.73 -0.484,-1.104c-0.549,-1.392 -1.211,-2.757 -1.593,-4.195c-0.311,-1.172 -0.841,-1.706 -2.058,-1.704c-1.218,0.002 -1.954,-0.844 -2.24,-1.884c-0.764,-2.777 -1.399,-5.591 -2.084,-8.39c-0.107,-0.439 -0.207,-0.882 -0.345,-1.474m35.35,-38.806c-0.293,0.025 -0.398,0.013 -0.487,0.044c-1.309,0.466 -2.611,0.948 -3.921,1.408c-1.724,0.607 -3.442,1.237 -5.268,1.473c-0.447,0.059 -0.691,0.305 -0.882,0.71c-0.34,0.726 -0.676,1.47 -1.136,2.119c-1.121,1.581 -1.821,3.326 -2.266,5.193c-0.425,1.775 -0.858,3.549 -1.298,5.32c-0.17,0.686 -0.494,0.833 -1.11,0.51c-0.224,-0.119 -0.428,-0.282 -0.624,-0.445c-0.777,-0.651 -1.268,-1.5 -1.674,-2.409c-0.094,-0.209 -0.225,-0.402 -0.371,-0.661c-0.182,0.277 -0.292,0.466 -0.422,0.639c-0.399,0.53 -0.979,0.554 -1.576,0.594c-0.535,0.036 -0.62,-0.383 -0.877,-0.676c-1.526,-1.741 -3.386,-2.755 -5.781,-2.536c-1.544,0.141 -2.508,1.014 -2.85,2.471c-0.249,1.058 -0.381,2.164 -0.402,3.251c-0.014,0.668 0.11,1.456 0.473,1.984c0.611,0.892 1.44,1.64 2.221,2.403c0.218,0.213 0.585,0.354 0.894,0.373c0.685,0.042 1.377,-0.003 2.065,-0.035c0.68,-0.032 1.226,-0.42 1.813,-0.706c0.122,-0.058 0.32,0.038 0.483,0.062c-0.064,0.153 -0.1,0.329 -0.202,0.451c-0.087,0.105 -0.244,0.156 -0.377,0.216c-0.849,0.383 -1.702,0.762 -2.583,1.154c0.327,1.788 1.239,3.25 2.609,4.428c0.55,0.474 1.186,0.849 1.783,1.27c3.491,2.458 7.326,4.08 11.558,4.719c2.209,0.334 4.416,0.588 6.649,0.134c1.267,-0.258 2.004,-0.897 2.341,-2.148c0.15,-0.557 0.352,-1.106 0.593,-1.631c0.336,-0.729 0.737,-1.429 1.101,-2.146c1.303,-2.557 1.837,-5.387 2.843,-8.052c0.289,-0.763 0.131,-1.398 -0.69,-1.81c-0.656,-0.331 -0.899,-0.931 -0.745,-1.665c0.151,-0.714 0.57,-1.257 1.114,-1.712c0.064,-0.054 0.251,-0.072 0.285,-0.029c0.081,0.104 0.181,0.296 0.137,0.373c-0.181,0.313 -0.432,0.585 -0.624,0.893c-0.432,0.699 -0.36,1.111 0.282,1.6c0.348,0.265 0.732,0.484 1.08,0.752c0.86,0.665 1.855,1.029 2.9,1.235c1.035,0.204 1.454,-0.094 1.573,-1.13c0.25,-2.18 0.166,-4.325 -1.042,-6.257c-0.66,-1.057 -1.146,-2.114 -0.679,-3.382c0.011,-0.033 0.005,-0.073 0.005,-0.11c0,-3.547 0.025,-7.095 -0.024,-10.643c-0.009,-0.676 -0.054,-1.423 -0.523,-2.086c-1.097,0.823 -2.134,1.601 -3.171,2.38c0.255,0.142 0.426,0.127 0.597,0.101c0.372,-0.054 0.777,-0.372 1.1,0.056c0.171,0.228 -0.128,0.472 -0.938,0.674c-1.006,0.252 -1.943,0.635 -2.775,1.263c-1.573,1.187 -2.842,2.623 -3.677,4.424c-0.114,0.246 -0.289,0.465 -0.489,0.78c-0.096,-0.212 -0.188,-0.316 -0.167,-0.389c0.119,-0.418 0.224,-0.847 0.411,-1.238c0.63,-1.325 1.426,-2.537 2.741,-3.561m-34.634,-13.851c-0.837,0.016 -1.313,0.387 -1.68,1.067c-0.989,1.834 -1.992,3.663 -3.081,5.437c-1.422,2.316 -1.991,4.893 -2.146,7.514c-0.2,3.386 -0.261,6.798 0.595,10.14c0.48,1.877 0.908,3.795 1.928,5.456c1.49,2.419 3.39,4.487 5.843,5.996c0.84,0.516 1.664,1.06 2.498,1.588c1.36,0.859 2.833,1.433 4.482,1.894c-0.184,-0.698 -0.38,-1.246 -0.459,-1.809c-0.071,-0.507 -0.251,-0.781 -0.781,-0.873c-0.939,-0.163 -1.678,-0.673 -2.268,-1.425c-0.292,-0.372 -0.661,-0.683 -0.985,-1.03c-0.621,-0.667 -0.964,-1.464 -1.02,-2.37c-0.08,-1.281 -0.019,-2.564 0.281,-3.813c0.391,-1.623 1.201,-2.947 3.001,-3.247c1.042,-0.173 2.112,-0.192 3.152,0.124c1.444,0.436 2.611,1.274 3.575,2.426c0.648,0.774 1.436,0.674 1.904,-0.222c0.117,-0.225 0.184,-0.476 0.283,-0.711c0.112,-0.268 0.195,-0.575 0.57,-0.578c0.387,-0.004 0.453,0.318 0.549,0.587c0.086,0.239 0.092,0.511 0.201,0.736c0.365,0.752 0.722,1.512 1.161,2.219c0.215,0.344 0.607,0.578 1.033,0.964c0.36,-1.447 0.687,-2.714 0.99,-3.988c0.63,-2.644 1.37,-5.232 3.138,-7.401c0.357,-0.437 0.553,-1.003 0.918,-1.687c-0.792,0 -1.404,0.022 -2.01,-0.014c-0.182,-0.011 -0.454,-0.156 -0.5,-0.3c-0.042,-0.129 0.122,-0.42 0.271,-0.503c1.584,-0.885 2.577,-2.357 3.711,-3.687c0.118,-0.138 0.19,-0.314 0.387,-0.651c-0.937,0.445 -1.64,0.846 -2.39,1.115c-0.853,0.304 -1.736,0.606 -2.63,0.708c-1.756,0.198 -3.502,0.036 -5.186,-0.571c-0.411,-0.148 -0.841,-0.245 -1.254,-0.389c-0.08,-0.028 -0.188,-0.192 -0.166,-0.25c0.042,-0.116 0.164,-0.284 0.256,-0.286c0.324,-0.007 0.656,0.014 0.971,0.086c0.569,0.13 1.125,0.316 1.692,0.462c2.243,0.576 4.422,0.396 6.516,-0.609c0.691,-0.331 1.351,-0.726 2.038,-1.07c0.322,-0.16 0.663,-0.31 1.012,-0.385c0.327,-0.07 0.475,0.174 0.419,0.472c-0.04,0.206 -0.149,0.413 -0.273,0.588c-0.403,0.565 -0.8,1.138 -1.25,1.666c-0.819,0.961 -1.677,1.89 -2.679,3.013c1.137,-0.157 2.095,-0.177 2.986,-0.434c2.279,-0.656 4.528,-1.416 6.789,-2.137c1.866,-0.597 3.554,-1.527 5.111,-2.71c1.019,-0.773 2.061,-1.517 3.086,-2.282c0.852,-0.637 1.664,-1.318 2.214,-2.255c0.053,-0.094 0.12,-0.193 0.207,-0.249c0.082,-0.053 0.255,-0.101 0.287,-0.065c0.078,0.092 0.172,0.282 0.13,0.346c-0.374,0.58 -0.738,1.174 -1.186,1.694c-0.268,0.312 -0.357,0.563 -0.279,0.967c0.172,0.895 0.371,1.799 0.392,2.703c0.065,2.707 0.061,5.414 0.058,8.121c0,0.616 -0.089,1.235 -0.162,1.85c-0.068,0.568 -0.169,1.131 -0.289,1.919c0.71,-0.5 1.063,-1.058 1.54,-1.478c0.997,-0.877 1.494,-1.953 1.387,-3.302c-0.027,-0.317 0.032,-0.655 0.125,-0.963c0.08,-0.265 0.46,-0.305 0.629,-0.093c0.088,0.113 0.155,0.249 0.202,0.386c0.557,1.628 1.878,2.351 3.384,2.848c0.37,0.122 0.754,0.181 1.177,-0.086c-0.203,-0.338 -0.374,-0.61 -0.535,-0.889c-0.492,-0.854 -1.032,-1.687 -1.458,-2.573c-0.64,-1.33 -0.946,-2.738 -0.947,-4.239c-0.001,-2.183 0.449,-4.277 1.018,-6.36c0.704,-2.568 0.069,-2.983 -1.505,-4.34c-0.611,-0.526 -1.322,-0.559 -2.071,-0.399c-0.323,0.07 -0.516,0.215 -0.51,0.587c0.004,0.272 0.076,0.602 -0.286,0.742c-0.218,-0.54 -0.342,-1.137 -0.664,-1.592c-1.201,-1.7 -2.419,-3.391 -3.723,-5.01c-1.131,-1.405 -2.638,-2.412 -4.045,-3.523c-1.834,-1.449 -3.876,-2.495 -6.12,-3.104c-2.003,-0.543 -3.985,-1.226 -6.11,-1.191c-2.23,0.036 -4.462,-0.003 -6.691,0.052c-1.019,0.025 -2.041,0.151 -3.048,0.314c-2.419,0.392 -4.565,1.522 -6.715,2.611c-2.919,1.476 -5.457,3.537 -8.086,5.449c-0.566,0.413 -0.939,1.097 -1.38,1.672c-0.065,0.085 -0.012,0.258 -0.014,0.391c0.134,-0.006 0.319,0.044 0.391,-0.026c0.336,-0.319 0.663,-0.542 1.163,-0.34c0.135,0.054 0.346,-0.075 0.521,-0.126c0.281,-0.081 0.555,-0.202 0.841,-0.243c0.236,-0.033 0.484,0.027 0.727,0.045c-0.035,0.233 -0.021,0.489 -0.116,0.695c-0.167,0.363 -0.412,0.689 -0.604,1.042c-0.527,0.962 -0.474,1.07 0.554,1.304c1.241,0.283 2.465,0.18 3.689,-0.113c0.353,-0.085 0.715,-0.143 1.076,-0.173c0.112,-0.008 0.235,0.122 0.353,0.19c-0.098,0.135 -0.17,0.354 -0.296,0.391c-1.814,0.537 -3.65,0.757 -5.51,0.26c-0.842,-0.224 -1.081,-0.644 -0.831,-1.472c0.121,-0.402 0.338,-0.777 0.527,-1.201m45.767,19.801c-0.25,1.492 -0.993,2.55 -2.015,3.436c-0.083,0.072 -0.154,0.157 -0.23,0.237c-0.941,1.004 -0.92,0.993 -0.364,2.221c0.795,1.761 1.259,3.582 0.863,5.536c-0.072,0.355 -0.038,0.733 -0.106,1.09c-0.172,0.902 -0.674,1.299 -1.585,1.351c-0.944,0.054 -1.799,-0.251 -2.65,-0.594c-0.26,-0.105 -0.522,-0.207 -0.773,-0.305c-0.646,2.049 -1.277,4.024 -1.892,6.007c-0.544,1.758 -1.4,3.37 -2.246,4.992c-0.268,0.513 -0.492,1.062 -0.643,1.62c-0.416,1.542 -1.376,2.404 -2.952,2.706c-2.011,0.385 -3.996,0.252 -5.993,-0.048c-1.555,-0.233 -3.11,-0.448 -4.608,-0.949c-0.053,-0.017 -0.13,0.037 -0.304,0.09c0.149,0.577 0.266,1.174 0.46,1.746c0.771,2.288 1.605,4.552 2.828,6.648c0.129,0.221 0.226,0.498 0.42,0.636c1.053,0.747 1.086,1.931 1.287,3.019c0.074,0.4 0,0.947 -0.233,1.256c-0.351,0.467 -0.212,0.806 0.006,1.194c1.076,1.912 2.107,3.851 3.259,5.715c0.49,0.794 1.198,1.472 1.88,2.127c0.545,0.524 0.696,0.483 1.101,-0.139c0.596,-0.919 1.217,-1.833 1.7,-2.812c0.993,-2.01 2.115,-3.928 3.581,-5.629c0.309,-0.358 0.376,-0.598 0.03,-1.016c-1.682,-2.027 -2.154,-4.424 -1.993,-6.989c0.016,-0.253 0.086,-0.504 0.147,-0.752c0.24,-0.991 0.714,-1.437 1.708,-1.589c0.251,-0.039 0.511,-0.035 0.765,-0.042c1.115,-0.034 1.1,-0.038 1.485,-1.142c0.912,-2.619 2.138,-5.044 4.267,-6.922c0.574,-0.506 1.034,-1.144 1.616,-1.639c0.747,-0.634 1.56,-1.193 2.355,-1.769c0.175,-0.126 0.388,-0.222 0.598,-0.269c1.588,-0.349 2.424,-0.093 2.599,1.777c0.088,0.932 -0.174,1.726 -0.765,2.436c-0.724,0.871 -1.449,1.743 -2.149,2.634c-0.361,0.458 -0.669,0.956 -1.002,1.439c0.084,0.122 0.125,0.255 0.205,0.286c0.919,0.341 1.516,0.981 1.851,1.896c0.072,0.194 0.191,0.411 0.353,0.524c0.906,0.633 1.258,1.574 1.512,2.584c0.124,0.493 0.234,0.997 0.425,1.466c0.762,1.878 0.642,3.723 -0.25,5.504c-0.374,0.746 -0.873,1.44 -1.388,2.1c-0.825,1.054 -1.946,1.639 -3.271,1.816c-2.485,0.333 -2.535,0.301 -3.75,2.406c-1.708,2.959 -3.828,5.613 -5.933,8.282c-0.362,0.46 -0.665,0.964 -1.028,1.421c-0.34,0.429 -0.701,0.844 -1.092,1.226c-1.049,1.028 -2.328,1.263 -3.648,0.746c-1.94,-0.761 -3.778,-1.654 -5.021,-3.518c-1.009,-1.509 -2.286,-2.839 -3.564,-4.395c0.073,0.345 0.11,0.527 0.152,0.71c0.158,0.671 0.28,1.353 0.485,2.009c0.283,0.904 0.588,1.808 0.96,2.68c0.934,2.185 1.908,4.352 2.871,6.524c0.148,0.334 0.322,0.656 0.476,0.988c0.149,0.326 0.367,0.486 0.751,0.525c1.53,0.155 2.022,0.59 2.345,2.105c0.089,0.416 0.233,0.548 0.643,0.512c0.509,-0.045 1.023,-0.034 1.534,-0.041c0.827,-0.012 1.506,0.304 1.974,0.988c0.621,0.902 1.262,1.797 1.8,2.75c0.809,1.43 1.509,2.923 2.313,4.355c0.349,0.62 0.399,1.246 0.333,1.905c-0.084,0.819 -0.605,1.211 -1.438,1.126c-0.573,-0.06 -1.042,-0.337 -1.435,-0.737c-0.328,-0.335 -0.623,-0.702 -0.993,-1.123c-0.195,0.817 0.168,1.497 0.209,2.203c0.046,0.799 0.154,1.598 0.163,2.397c0.007,0.696 -0.179,0.832 -0.843,0.851c-0.503,0.015 -0.925,-0.129 -1.263,-0.53c-0.091,-0.107 -0.315,-0.215 -0.426,-0.176c-1.111,0.395 -1.997,-0.08 -2.854,-0.695c-0.205,-0.148 -0.405,-0.304 -0.607,-0.455c-0.872,1.104 -1.948,1.145 -2.759,-0.011c-0.666,-0.95 -1.169,-2.02 -1.699,-3.06c-0.352,-0.689 -0.345,-0.747 -0.998,-0.278c-0.738,0.531 -1.511,0.42 -2.311,0.298c-0.752,-0.114 -1.507,-0.303 -2.261,-0.307c-6.768,-0.032 -13.535,-0.032 -20.303,-0.041c-1.099,-0.001 -1.261,-0.144 -1.373,-1.199c-0.102,-0.964 0.015,-1.902 0.387,-2.794c0.174,-0.416 0.246,-0.736 -0.198,-1.033c-0.399,-0.266 -0.476,-0.701 -0.487,-1.162c-0.059,-2.411 -0.197,-4.823 -0.178,-7.233c0.015,-1.895 0.215,-3.792 0.338,-5.687c0.091,-1.384 0.178,-2.77 0.29,-4.154c0.109,-1.345 0.248,-2.689 0.374,-4.032c0.02,-0.218 0.049,-0.437 0.056,-0.656c0.07,-2.557 0.186,-5.115 0.194,-7.674c0.009,-3.016 0.43,-5.966 1.143,-8.888c0.172,-0.707 0.261,-1.434 0.417,-2.147c0.273,-1.258 0.971,-2.275 1.868,-3.167c0.486,-0.484 1.061,-0.743 1.775,-0.704c0.73,0.041 1.463,0.004 2.195,0.032c0.332,0.013 0.528,-0.096 0.709,-0.381c1.107,-1.754 2.419,-2.309 4.449,-1.911c0.138,0.026 0.275,0.064 0.63,0.149c-0.225,-0.298 -0.322,-0.455 -0.446,-0.585c-0.302,-0.319 -0.698,-0.579 -0.909,-0.947c-0.52,-0.909 -1.348,-1.222 -2.291,-1.474c-1.561,-0.418 -3.018,-1.096 -4.369,-2.001c-0.546,-0.365 -1.116,-0.697 -1.687,-1.025c-2.632,-1.507 -4.666,-3.648 -6.283,-6.166c-1.055,-1.641 -1.541,-3.547 -1.994,-5.433c-0.793,-3.295 -1.028,-6.638 -0.708,-10.013c0.133,-1.416 0.295,-2.832 0.529,-4.233c0.205,-1.234 0.709,-2.379 1.307,-3.476c1.098,-2.021 2.202,-4.04 3.339,-6.125c-0.168,-0.036 -0.331,-0.063 -0.489,-0.106c-0.592,-0.16 -0.714,-0.351 -0.529,-0.941c0.339,-1.074 0.939,-2 1.852,-2.658c2.046,-1.473 4.105,-2.929 6.196,-4.338c1.887,-1.273 3.971,-2.172 6.06,-3.062c1.332,-0.566 2.717,-0.892 4.136,-0.997c2.002,-0.149 4.014,-0.229 6.021,-0.242c1.567,-0.01 3.17,-0.052 4.698,0.232c3.94,0.734 7.685,1.951 10.931,4.503c2.976,2.341 5.469,5.055 7.419,8.281c0.269,0.443 0.538,0.608 1.066,0.456c1.106,-0.319 2.027,0.03 2.937,0.742c1.505,1.179 1.835,2.609 1.365,4.38c-0.357,1.338 -0.65,2.697 -0.89,4.062c-0.452,2.564 -0.145,5.023 1.206,7.3c0.336,0.565 0.68,1.126 1.014,1.693c0.185,0.315 0.383,0.627 0.526,0.959c0.194,0.448 0.043,0.68 -0.455,0.742c-1.217,0.151 -2.325,-0.159 -3.322,-0.85c-0.478,-0.33 -0.918,-0.712 -1.491,-1.161" style="fill:#231f20;fill-rule:nonzero;"/><path d="M102.006,65.543c0.835,-0.496 1.534,-0.628 2.236,-0.736c0.091,-0.015 0.233,0.122 0.302,0.223c0.027,0.039 -0.065,0.225 -0.139,0.254c-0.692,0.281 -1.389,0.552 -2.399,0.259" style="fill:#231f20;fill-rule:nonzero;"/><path d="M100.494,67.787c0.763,0.091 1.225,0.618 1.752,1.037c0.049,0.04 0.053,0.226 0.007,0.269c-0.062,0.057 -0.222,0.091 -0.287,0.049c-0.574,-0.358 -1.175,-0.687 -1.472,-1.355" style="fill:#231f20;fill-rule:nonzero;"/><path d="M101.401,66.613c0.766,-0.157 1.354,0.274 1.95,0.655c0.051,0.034 0.067,0.216 0.025,0.276c-0.049,0.068 -0.205,0.134 -0.273,0.105c-0.586,-0.256 -1.163,-0.533 -1.742,-0.805l0.04,-0.231Z" style="fill:#231f20;fill-rule:nonzero;"/><path d="M68.679,29.902c0.944,-0.794 1.814,-1.514 2.662,-2.257c0.096,-0.084 0.072,-0.305 0.105,-0.463c-0.165,0.004 -0.332,-0.004 -0.495,0.017c-0.063,0.009 -0.116,0.086 -0.173,0.13c-1.012,0.762 -1.871,1.758 -3.204,2.027c-0.279,0.058 -0.294,0.4 -0.035,0.606c0.918,0.73 1.869,1.415 3.048,1.663c2.085,0.439 4.195,0.51 6.313,0.355c0.118,-0.009 0.329,-0.162 0.32,-0.222c-0.021,-0.153 -0.121,-0.387 -0.232,-0.415c-0.309,-0.078 -0.641,-0.09 -0.962,-0.084c-1.681,0.037 -3.361,0.083 -5.022,-0.26c-0.864,-0.179 -1.678,-0.463 -2.325,-1.097m-5.675,-5.352c-0.189,0.423 -0.406,0.798 -0.527,1.201c-0.25,0.828 -0.011,1.247 0.831,1.471c1.86,0.498 3.696,0.277 5.51,-0.26c0.126,-0.037 0.198,-0.255 0.296,-0.391c-0.119,-0.067 -0.242,-0.197 -0.353,-0.189c-0.361,0.029 -0.724,0.087 -1.076,0.172c-1.224,0.293 -2.449,0.397 -3.689,0.114c-1.028,-0.235 -1.081,-0.343 -0.555,-1.304c0.193,-0.354 0.438,-0.68 0.605,-1.043c0.095,-0.206 0.081,-0.461 0.116,-0.695c-0.243,-0.017 -0.491,-0.078 -0.727,-0.045c-0.286,0.042 -0.56,0.162 -0.841,0.243c-0.175,0.051 -0.386,0.18 -0.522,0.126c-0.5,-0.202 -0.826,0.022 -1.162,0.34c-0.072,0.07 -0.258,0.02 -0.391,0.026c0.001,-0.132 -0.051,-0.306 0.014,-0.391c0.441,-0.575 0.814,-1.259 1.38,-1.672c2.629,-1.912 5.166,-3.972 8.085,-5.449c2.151,-1.088 4.296,-2.219 6.716,-2.61c1.006,-0.163 2.029,-0.289 3.047,-0.314c2.23,-0.056 4.462,-0.016 6.692,-0.053c2.125,-0.035 4.107,0.648 6.11,1.191c2.244,0.609 4.286,1.655 6.12,3.104c1.406,1.111 2.915,2.119 4.045,3.523c1.304,1.619 2.522,3.312 3.723,5.01c0.322,0.456 0.446,1.052 0.664,1.593c0.361,-0.141 0.29,-0.471 0.286,-0.743c-0.006,-0.372 0.187,-0.516 0.51,-0.586c0.749,-0.161 1.46,-0.127 2.07,0.399c1.575,1.356 2.209,1.772 1.506,4.339c-0.569,2.084 -1.019,4.177 -1.017,6.362c0,1.501 0.306,2.907 0.946,4.237c0.426,0.887 0.966,1.719 1.458,2.573c0.161,0.279 0.332,0.552 0.535,0.889c-0.424,0.268 -0.808,0.208 -1.178,0.086c-1.506,-0.497 -2.826,-1.22 -3.384,-2.848c-0.046,-0.136 -0.113,-0.273 -0.202,-0.385c-0.169,-0.212 -0.549,-0.172 -0.629,0.092c-0.091,0.308 -0.151,0.647 -0.125,0.964c0.108,1.349 -0.389,2.424 -1.386,3.302c-0.477,0.419 -0.831,0.979 -1.541,1.477c0.121,-0.787 0.222,-1.351 0.29,-1.918c0.073,-0.615 0.162,-1.234 0.162,-1.851c0.003,-2.707 0.007,-5.414 -0.058,-8.12c-0.021,-0.904 -0.22,-1.809 -0.393,-2.704c-0.078,-0.404 0.012,-0.655 0.28,-0.966c0.448,-0.521 0.811,-1.115 1.185,-1.695c0.042,-0.064 -0.05,-0.253 -0.13,-0.345c-0.031,-0.036 -0.205,0.011 -0.287,0.064c-0.087,0.056 -0.153,0.155 -0.207,0.249c-0.55,0.937 -1.36,1.618 -2.214,2.256c-1.024,0.764 -2.066,1.509 -3.086,2.282c-1.556,1.182 -3.244,2.113 -5.11,2.709c-2.261,0.721 -4.51,1.482 -6.79,2.137c-0.89,0.257 -1.848,0.278 -2.985,0.436c1.003,-1.125 1.859,-2.054 2.679,-3.015c0.45,-0.528 0.847,-1.101 1.25,-1.666c0.124,-0.175 0.232,-0.382 0.272,-0.588c0.057,-0.297 -0.091,-0.541 -0.419,-0.472c-0.348,0.075 -0.689,0.225 -1.011,0.385c-0.687,0.344 -1.347,0.739 -2.039,1.07c-2.093,1.005 -4.272,1.185 -6.515,0.609c-0.567,-0.145 -1.124,-0.331 -1.692,-0.462c-0.315,-0.072 -0.647,-0.092 -0.972,-0.085c-0.091,0.002 -0.213,0.169 -0.255,0.286c-0.022,0.058 0.085,0.221 0.166,0.249c0.413,0.144 0.842,0.241 1.254,0.39c1.684,0.606 3.429,0.768 5.186,0.57c0.894,-0.102 1.777,-0.402 2.631,-0.708c0.749,-0.269 1.451,-0.669 2.389,-1.113c-0.197,0.336 -0.27,0.511 -0.387,0.65c-1.135,1.329 -2.127,2.802 -3.711,3.686c-0.149,0.083 -0.313,0.374 -0.271,0.505c0.046,0.142 0.318,0.288 0.5,0.298c0.606,0.037 1.217,0.014 2.009,0.014c-0.364,0.684 -0.56,1.25 -0.917,1.687c-1.768,2.169 -2.508,4.758 -3.138,7.402c-0.303,1.273 -0.63,2.54 -0.991,3.988c-0.425,-0.387 -0.817,-0.62 -1.032,-0.965c-0.439,-0.706 -0.797,-1.467 -1.161,-2.218c-0.109,-0.226 -0.115,-0.498 -0.201,-0.737c-0.096,-0.269 -0.162,-0.591 -0.549,-0.587c-0.375,0.003 -0.458,0.311 -0.57,0.578c-0.099,0.235 -0.166,0.486 -0.284,0.712c-0.467,0.896 -1.255,0.995 -1.903,0.221c-0.964,-1.152 -2.131,-1.99 -3.575,-2.426c-1.04,-0.315 -2.111,-0.297 -3.153,-0.123c-1.8,0.299 -2.609,1.623 -3,3.246c-0.3,1.249 -0.361,2.532 -0.281,3.813c0.056,0.906 0.398,1.703 1.019,2.37c0.325,0.348 0.694,0.658 0.986,1.03c0.59,0.752 1.329,1.263 2.267,1.426c0.532,0.092 0.71,0.366 0.782,0.872c0.079,0.563 0.275,1.111 0.459,1.81c-1.65,-0.461 -3.122,-1.036 -4.482,-1.895c-0.834,-0.527 -1.658,-1.07 -2.498,-1.588c-2.453,-1.509 -4.354,-3.577 -5.843,-5.996c-1.021,-1.66 -1.448,-3.578 -1.929,-5.456c-0.855,-3.342 -0.795,-6.754 -0.594,-10.14c0.155,-2.621 0.724,-5.197 2.146,-7.513c1.089,-1.775 2.092,-3.604 3.08,-5.438c0.367,-0.68 0.845,-1.051 1.681,-1.066" style="fill:#7b6e60;fill-rule:nonzero;"/><path d="M60.91,24.291c0.336,-0.318 0.662,-0.542 1.162,-0.341c0.136,0.055 0.347,-0.074 0.522,-0.126c0.28,-0.081 0.554,-0.201 0.841,-0.242c0.235,-0.033 0.484,0.027 0.726,0.045c-0.035,0.233 -0.02,0.488 -0.115,0.694c-0.167,0.364 -0.412,0.69 -0.605,1.043c-0.526,0.961 -0.474,1.07 0.554,1.305c1.241,0.282 2.466,0.179 3.69,-0.114c0.044,-0.011 0.09,-0.012 0.136,-0.022c0.14,-0.143 0.353,-0.219 0.58,-0.11c0.01,0.005 0.021,0.007 0.031,0.012c0.11,-0.014 0.218,-0.044 0.329,-0.052c0.111,-0.009 0.234,0.122 0.351,0.188c-0.018,0.027 -0.036,0.058 -0.053,0.088c0.459,0.125 0.936,0.167 1.41,0.076c0.342,-0.064 0.566,0.196 0.6,0.461c0.125,-0.007 0.251,-0.01 0.377,-0.013c-0.033,0.158 -0.009,0.379 -0.106,0.464c-0.848,0.742 -1.718,1.462 -2.661,2.256c0.646,0.634 1.461,0.918 2.325,1.096c1.66,0.343 3.341,0.297 5.022,0.261c0.321,-0.007 0.652,0.007 0.961,0.084c0.112,0.027 0.211,0.262 0.232,0.414c0.009,0.061 -0.201,0.214 -0.319,0.223c-1.717,0.126 -3.427,0.091 -5.124,-0.157c-0.007,0.19 -0.106,0.381 -0.324,0.469c-2.354,0.958 -4.877,1.39 -7.263,2.226c4.632,0.025 9.263,-0.058 13.887,-0.369c4.69,-0.317 9.463,-0.813 13.443,-3.392c-4.53,0.279 -9.371,1.028 -13.632,-0.71c-1.167,-0.477 -3.012,-1.32 -3.027,-2.827c-0.013,-1.293 1.308,-2.209 2.211,-3.152c-2.165,-0.085 -5.142,0.535 -6.727,-0.952c-1.705,-1.602 0.766,-3.366 1.983,-4.329c4.188,-3.311 9.572,-4.372 14.831,-4.944c-0.233,-0.012 -0.469,-0.02 -0.705,-0.016c-2.231,0.037 -4.463,-0.003 -6.693,0.052c-1.017,0.026 -2.04,0.152 -3.047,0.315c-2.419,0.391 -4.565,1.521 -6.715,2.609c-2.919,1.478 -5.457,3.538 -8.085,5.45c-0.566,0.413 -0.94,1.097 -1.381,1.672c-0.064,0.085 -0.012,0.259 -0.014,0.39c0.133,-0.004 0.319,0.044 0.392,-0.025" style="fill:#867769;fill-rule:nonzero;"/><path d="M112.874,44.83c-0.492,-0.855 -1.032,-1.688 -1.459,-2.573c-0.639,-1.33 -0.945,-2.737 -0.946,-4.239c-0.002,-2.183 0.449,-4.276 1.018,-6.36c0.702,-2.568 0.069,-2.983 -1.506,-4.34c-0.609,-0.526 -1.321,-0.559 -2.07,-0.399c-0.324,0.07 -0.516,0.215 -0.51,0.587c0.004,0.272 0.075,0.602 -0.286,0.742c-0.219,-0.541 -0.343,-1.137 -0.665,-1.592c-1.2,-1.7 -2.419,-3.391 -3.723,-5.01c-0.533,-0.665 -1.155,-1.235 -1.807,-1.774c2.533,3.53 1.677,7.893 -1.215,11.42c1.89,-0.767 3.818,-1.452 5.818,-1.854c1.001,-0.201 2.765,-0.775 3.569,0.187c1.193,1.428 0.522,4.751 0.381,6.37c-0.22,2.551 -0.917,6.68 1.024,8.696c0.122,0.128 0.149,0.274 0.125,0.408c0.488,0.293 1.034,0.516 1.608,0.706c0.371,0.122 0.755,0.181 1.178,-0.086c-0.203,-0.338 -0.373,-0.611 -0.534,-0.889" style="fill:#685e51;fill-rule:nonzero;"/><path d="M100.446,46.98c-0.067,-0.177 -0.1,-0.413 -0.233,-0.544c-0.071,-0.068 -0.391,-0.011 -0.479,0.091c-0.514,0.597 -0.787,1.312 -0.781,2.096c0.001,0.182 0.247,0.423 0.439,0.517c0.084,0.041 0.402,-0.188 0.466,-0.353c0.226,-0.574 0.388,-1.173 0.588,-1.807m-26.701,7.637c0.653,-0.752 0.396,-1.282 0.083,-1.765c-0.408,-0.628 -1.018,-1.042 -1.684,-1.363c-0.959,-0.462 -2.036,-0.462 -2.823,0.354c-0.979,1.015 -1.305,2.179 -0.796,3.273c0.044,0.095 0.202,0.138 0.355,0.234c0.118,-0.622 0.135,-1.189 0.334,-1.683c0.682,-1.691 1.713,-2.029 3.048,-1.132c0.688,0.464 1.246,1.011 1.483,2.082m15.616,2.533c0.548,0.472 1,0.392 1.423,0.422c0.793,0.054 0.8,0.05 0.95,0.864c0.177,0.965 0.327,1.935 0.513,2.898c0.13,0.67 0.464,1.261 1.037,1.618c0.729,0.456 1.022,1.023 0.957,1.894c-0.062,0.808 0.264,1.149 0.911,1.252c0.824,0.131 1.23,-0.12 1.477,-0.923c0.043,-0.139 0.077,-0.284 0.086,-0.429c0.027,-0.424 0.61,-0.837 0.254,-1.187c-0.25,-0.247 -0.804,-0.2 -1.226,-0.252c-1.468,-0.183 -2.572,-1.106 -2.934,-2.538c-0.214,-0.846 -0.362,-1.708 -0.53,-2.566c-0.08,-0.408 -0.086,-0.774 0.364,-1.035c0.269,-0.157 0.467,-0.443 0.671,-0.691c0.042,-0.051 0,-0.225 -0.061,-0.291c-0.054,-0.062 -0.191,-0.085 -0.282,-0.07c-0.101,0.018 -0.211,0.08 -0.283,0.154c-0.726,0.746 -1.631,0.904 -2.615,0.83c-0.175,-0.012 -0.353,0.024 -0.712,0.05m8.277,-18.749c-1.316,1.023 -2.111,2.235 -2.742,3.56c-0.186,0.391 -0.291,0.821 -0.411,1.239c-0.021,0.072 0.072,0.176 0.167,0.388c0.201,-0.315 0.376,-0.534 0.49,-0.78c0.834,-1.801 2.104,-3.236 3.676,-4.424c0.833,-0.628 1.77,-1.011 2.775,-1.263c0.81,-0.202 1.11,-0.446 0.938,-0.674c-0.322,-0.427 -0.727,-0.11 -1.1,-0.055c-0.171,0.025 -0.341,0.041 -0.597,-0.102c1.037,-0.778 2.074,-1.557 3.172,-2.38c0.468,0.663 0.514,1.41 0.523,2.086c0.049,3.548 0.024,7.096 0.024,10.643c0,0.037 0.006,0.077 -0.005,0.111c-0.467,1.267 0.019,2.325 0.679,3.381c1.207,1.932 1.291,4.078 1.041,6.258c-0.119,1.036 -0.537,1.334 -1.572,1.129c-1.045,-0.206 -2.04,-0.57 -2.901,-1.235c-0.347,-0.268 -0.732,-0.486 -1.08,-0.752c-0.641,-0.489 -0.714,-0.9 -0.281,-1.6c0.192,-0.307 0.443,-0.58 0.623,-0.893c0.045,-0.076 -0.056,-0.269 -0.136,-0.372c-0.034,-0.043 -0.221,-0.026 -0.286,0.028c-0.544,0.455 -0.962,0.998 -1.113,1.712c-0.154,0.734 0.089,1.334 0.745,1.665c0.821,0.412 0.978,1.047 0.69,1.811c-1.006,2.664 -1.541,5.494 -2.843,8.052c-0.365,0.717 -0.765,1.416 -1.101,2.145c-0.241,0.526 -0.443,1.075 -0.594,1.631c-0.336,1.251 -1.073,1.89 -2.341,2.148c-2.233,0.454 -4.439,0.2 -6.648,-0.134c-4.233,-0.639 -8.067,-2.261 -11.558,-4.719c-0.597,-0.421 -1.233,-0.796 -1.783,-1.269c-1.37,-1.178 -2.282,-2.641 -2.61,-4.428c0.882,-0.393 1.735,-0.772 2.584,-1.155c0.133,-0.059 0.29,-0.111 0.377,-0.216c0.102,-0.122 0.138,-0.297 0.202,-0.451c-0.163,-0.024 -0.361,-0.12 -0.483,-0.061c-0.587,0.285 -1.133,0.674 -1.813,0.705c-0.688,0.032 -1.381,0.077 -2.066,0.035c-0.308,-0.018 -0.676,-0.16 -0.893,-0.373c-0.782,-0.763 -1.611,-1.511 -2.221,-2.402c-0.363,-0.529 -0.487,-1.317 -0.474,-1.985c0.022,-1.087 0.154,-2.192 0.403,-3.251c0.342,-1.457 1.306,-2.33 2.85,-2.471c2.395,-0.219 4.255,0.795 5.781,2.536c0.257,0.293 0.342,0.712 0.876,0.676c0.598,-0.04 1.178,-0.063 1.577,-0.594c0.13,-0.173 0.24,-0.362 0.421,-0.638c0.147,0.259 0.278,0.451 0.371,0.66c0.407,0.909 0.898,1.759 1.675,2.409c0.196,0.163 0.399,0.326 0.624,0.446c0.616,0.323 0.94,0.175 1.11,-0.51c0.44,-1.772 0.873,-3.545 1.298,-5.321c0.445,-1.867 1.144,-3.611 2.266,-5.192c0.46,-0.65 0.795,-1.394 1.136,-2.12c0.19,-0.405 0.434,-0.651 0.881,-0.709c1.826,-0.237 3.545,-0.867 5.269,-1.473c1.31,-0.461 2.612,-0.943 3.92,-1.408c0.09,-0.032 0.195,-0.02 0.488,-0.044" style="fill:#fedcc4;fill-rule:nonzero;"/><path d="M83.461,59.579c0.587,-2.639 0.711,-5.317 1.825,-7.831c0.913,-2.059 2.23,-3.979 3.875,-5.524c1.309,-1.229 3.327,-2.275 5.421,-2.772c-0.062,-0.114 -0.113,-0.2 -0.097,-0.252c0.119,-0.418 0.224,-0.848 0.41,-1.238c0.631,-1.325 1.426,-2.538 2.742,-3.561c-0.293,0.025 -0.398,0.012 -0.487,0.043c-1.309,0.467 -2.611,0.949 -3.921,1.41c-1.724,0.606 -3.442,1.235 -5.269,1.472c-0.447,0.058 -0.691,0.305 -0.881,0.709c-0.341,0.726 -0.676,1.471 -1.136,2.121c-1.121,1.58 -1.821,3.324 -2.266,5.191c-0.425,1.777 -0.858,3.549 -1.298,5.322c-0.17,0.685 -0.494,0.832 -1.11,0.508c-0.225,-0.118 -0.428,-0.281 -0.624,-0.444c-0.777,-0.65 -1.268,-1.5 -1.675,-2.41c-0.093,-0.209 -0.224,-0.402 -0.37,-0.659c-0.024,0.035 -0.039,0.057 -0.059,0.089c0.175,3.286 1.822,6.502 4.92,7.826" style="fill:#fdcda6;fill-rule:nonzero;"/><path d="M100.267,56.071c-0.656,-0.331 -0.899,-0.93 -0.745,-1.665c0.098,-0.469 0.32,-0.858 0.61,-1.203c-4.142,0.698 -1.662,5.257 -1.928,8.075c-0.276,2.923 -1.753,5.942 -4.159,7.683c-3.171,2.297 -7.697,1.673 -11.425,1.557c1.545,0.547 3.146,0.955 4.81,1.206c2.209,0.334 4.415,0.589 6.648,0.134c1.268,-0.258 2.004,-0.897 2.341,-2.147c0.151,-0.558 0.353,-1.106 0.594,-1.631c0.336,-0.729 0.735,-1.43 1.101,-2.145c1.301,-2.559 1.837,-5.389 2.842,-8.053c0.289,-0.764 0.131,-1.398 -0.689,-1.811" style="fill:#fdcda6;fill-rule:nonzero;"/><path d="M105.227,50.131c-0.66,-1.057 -1.147,-2.114 -0.68,-3.382c0.012,-0.032 0.005,-0.072 0.005,-0.109c0,-3.548 0.026,-7.096 -0.023,-10.644c-0.009,-0.676 -0.055,-1.423 -0.524,-2.085c-1.097,0.822 -2.135,1.6 -3.172,2.379c0.256,0.143 0.427,0.127 0.598,0.102c0.373,-0.055 0.777,-0.372 1.1,0.055c0.171,0.228 -0.128,0.473 -0.939,0.675c-1.005,0.252 -1.941,0.634 -2.773,1.262c-1.574,1.187 -2.843,2.623 -3.677,4.423c-0.09,0.194 -0.223,0.382 -0.369,0.6c1.797,-0.394 3.638,-0.378 5.127,0.3c2.926,1.331 3.33,5.53 3.774,8.299c0.425,2.645 -0.602,3.715 -3.088,3.403c0.047,0.041 0.073,0.08 0.128,0.122c0.349,0.266 0.734,0.484 1.08,0.753c0.862,0.664 1.857,1.029 2.902,1.234c1.035,0.204 1.453,-0.093 1.572,-1.13c0.25,-2.179 0.165,-4.324 -1.041,-6.257" style="fill:#fdcda6;fill-rule:nonzero;"/><path d="M62.288,77.207c0.138,0.591 0.237,1.034 0.345,1.474c0.684,2.799 1.319,5.612 2.084,8.39c0.286,1.04 1.021,1.885 2.239,1.883c1.218,-0.002 1.747,0.533 2.059,1.704c0.382,1.438 1.044,2.803 1.593,4.195c0.146,0.374 0.335,0.732 0.484,1.105c0.897,2.236 1.906,4.409 3.073,6.529c1.158,2.104 2.027,4.367 3.005,6.568c0.819,1.842 1.746,3.609 2.982,5.219c0.703,0.916 1.374,1.884 1.701,3.122c-0.279,0.027 -0.547,0.076 -0.814,0.076c-2.266,0.001 -4.534,0.042 -6.797,-0.029c-1.346,-0.042 -2.743,-0.073 -4.017,-0.447c-2.3,-0.676 -4.759,-0.761 -6.935,-1.878c-0.649,-0.333 -1.306,-0.654 -1.964,-0.968c-0.475,-0.228 -0.702,-0.57 -0.714,-1.117c-0.04,-1.715 -0.134,-3.429 -0.18,-5.145c-0.074,-2.743 0.161,-5.472 0.374,-8.202c0.122,-1.565 0.191,-3.134 0.298,-4.7c0.058,-0.836 0.18,-1.67 0.21,-2.507c0.077,-2.042 0.122,-4.086 0.164,-6.129c0.019,-0.913 0.018,-1.828 -0.008,-2.74c-0.059,-2.021 0.297,-4.002 0.547,-5.992c0.01,-0.087 0.104,-0.164 0.271,-0.411" style="fill:#2c7599;fill-rule:nonzero;"/><path d="M113.501,80.811c0.047,2.244 -1.15,3.845 -2.538,5.347c-0.565,0.61 -1.312,0.917 -2.123,1.058c-0.432,0.077 -0.867,0.136 -1.3,0.199c-1.28,0.182 -2.305,0.643 -2.986,1.896c-0.851,1.57 -1.887,3.041 -2.896,4.52c-0.596,0.874 -1.306,1.668 -1.942,2.515c-0.746,0.994 -1.453,2.018 -2.207,3.004c-0.397,0.519 -0.835,1.013 -1.303,1.469c-0.825,0.804 -1.864,0.896 -2.865,0.524c-1.724,-0.641 -3.339,-1.483 -4.381,-3.121c-0.332,-0.523 -0.752,-0.989 -1.127,-1.483c-1.299,-1.718 -2.6,-3.432 -3.887,-5.159c-0.147,-0.197 -0.233,-0.451 -0.306,-0.691c-0.278,-0.908 -0.545,-1.82 -0.799,-2.734c-0.077,-0.279 -0.161,-0.579 -0.131,-0.858c0.03,-0.279 0.126,-0.622 0.319,-0.795c0.71,-0.635 0.524,-1.869 1.547,-2.272c0.303,-0.119 0.601,-0.282 0.916,-0.334c0.692,-0.113 0.878,0.01 1.174,0.68c0.34,0.769 0.607,1.576 1.003,2.312c0.988,1.834 1.973,3.673 3.077,5.437c0.535,0.854 1.341,1.534 2.011,2.305c0.152,0.175 0.313,0.384 0.359,0.6c0.099,0.457 0.221,0.576 0.532,0.332c0.256,-0.2 0.506,-0.432 0.684,-0.7c0.708,-1.064 1.474,-2.102 2.057,-3.232c1.076,-2.089 2.23,-4.112 3.762,-5.907c0.545,-0.637 0.518,-0.73 0.045,-1.435c-0.264,-0.395 -0.54,-0.781 -0.791,-1.183c-1.145,-1.841 -1.2,-3.876 -1.019,-5.941c0.077,-0.867 0.469,-1.215 1.311,-1.366c2.813,-0.504 5.178,2.156 5.418,4.19c0.055,0.461 -0.125,0.729 -0.583,0.73c-0.35,0.001 -0.726,-0.091 -1.043,-0.242c-0.658,-0.312 -1.281,-0.698 -1.93,-1.033c-0.105,-0.056 -0.362,-0.048 -0.38,-0.004c-0.057,0.149 -0.093,0.351 -0.035,0.49c0.066,0.156 0.221,0.303 0.373,0.388c0.861,0.473 1.689,1.02 2.696,1.166c0.238,0.035 0.505,0.116 0.685,0.266c0.377,0.313 0.76,0.544 1.262,0.602c0.183,0.022 0.403,0.181 0.507,0.342c0.563,0.879 1.446,0.889 2.244,0.658c1.078,-0.313 1.915,-1.045 2.413,-2.094c0.046,-0.096 0.082,-0.214 0.071,-0.315c-0.01,-0.099 -0.069,-0.228 -0.146,-0.271c-0.075,-0.042 -0.248,-0.034 -0.297,0.023c-0.189,0.218 -0.335,0.471 -0.517,0.697c-0.606,0.747 -1.233,1.467 -2.328,1.412c-0.714,-0.035 -0.86,-0.209 -0.927,-0.928c-0.086,-0.958 0.281,-1.774 0.939,-2.367c0.752,-0.676 1.604,-1.28 2.499,-1.747c1.061,-0.552 1.956,-0.167 2.385,0.951c0.255,0.665 0.338,1.397 0.498,2.099" style="fill:#fedcc4;fill-rule:nonzero;"/><path d="M113.003,78.712c-0.428,-1.118 -1.324,-1.503 -2.384,-0.951c-0.896,0.468 -1.748,1.071 -2.499,1.747c-0.659,0.594 -1.026,1.41 -0.939,2.366c0.066,0.721 0.212,0.894 0.926,0.929c1.095,0.055 1.722,-0.664 2.329,-1.412c0.182,-0.225 0.328,-0.48 0.516,-0.697c0.049,-0.056 0.222,-0.064 0.298,-0.022c0.077,0.043 0.135,0.172 0.146,0.269c0.011,0.103 -0.026,0.22 -0.072,0.316c-0.498,1.05 -1.335,1.781 -2.412,2.094c-0.799,0.23 -1.682,0.222 -2.245,-0.658c-0.104,-0.162 -0.324,-0.321 -0.507,-0.341c-0.502,-0.059 -0.885,-0.289 -1.261,-0.604c-0.18,-0.149 -0.447,-0.23 -0.686,-0.264c-0.433,-0.064 -0.829,-0.207 -1.212,-0.381c0.318,1.558 2.328,2.459 2.208,4.119c-0.086,1.206 -1.412,2.401 -2.12,3.279c-1.688,2.095 -2.912,4.56 -4.525,6.727c-0.973,1.306 -2.105,3.244 -3.723,3.856c-2.725,1.031 -5.235,-2.691 -6.525,-4.575c-1.753,-2.559 -3.268,-6.003 -1.213,-8.809c0.005,-0.008 0.012,-0.009 0.018,-0.017c-0.149,-0.369 -0.294,-0.742 -0.455,-1.107c-0.296,-0.67 -0.481,-0.794 -1.174,-0.679c-0.315,0.051 -0.612,0.214 -0.915,0.333c-1.024,0.403 -0.838,1.637 -1.547,2.272c-0.194,0.173 -0.29,0.517 -0.32,0.794c-0.029,0.28 0.054,0.58 0.132,0.859c0.253,0.914 0.52,1.826 0.798,2.734c0.073,0.24 0.159,0.494 0.306,0.692c1.287,1.725 2.588,3.44 3.888,5.158c0.374,0.495 0.795,0.96 1.126,1.483c1.042,1.637 2.657,2.481 4.381,3.122c1.002,0.372 2.04,0.279 2.865,-0.525c0.468,-0.456 0.906,-0.95 1.303,-1.469c0.755,-0.986 1.461,-2.01 2.207,-3.004c0.636,-0.847 1.346,-1.641 1.942,-2.515c1.01,-1.478 2.045,-2.951 2.897,-4.519c0.68,-1.254 1.706,-1.714 2.986,-1.898c0.433,-0.061 0.867,-0.122 1.299,-0.198c0.811,-0.141 1.558,-0.448 2.123,-1.058c1.389,-1.502 2.585,-3.103 2.538,-5.347c-0.16,-0.702 -0.243,-1.433 -0.498,-2.099" style="fill:#fdcda6;fill-rule:nonzero;"/><path d="M74.301,87.369c0.69,-0.181 1.282,-0.25 1.797,-0.487c1.024,-0.471 1.268,-1.266 0.716,-2.249c-0.393,-0.7 -0.852,-1.362 -1.31,-2.023c-0.706,-1.021 -1.45,-2.016 -2.151,-3.04c-0.516,-0.752 -0.795,-1.61 -1.103,-2.626c0.464,0.181 0.789,0.313 1.116,0.435c0.929,0.346 1.87,0.611 2.881,0.568c1.894,-0.08 2.994,-1.126 3.075,-3.014c0.063,-1.46 0.141,-2.927 -0.425,-4.33c-0.053,-0.131 -0.054,-0.286 -0.057,-0.43c-0.002,-0.065 0.051,-0.13 0.117,-0.283c0.212,0.064 0.442,0.118 0.659,0.205c0.711,0.285 1.405,0.621 2.131,0.865c0.592,0.199 0.839,0.552 0.975,1.163c0.499,2.256 1.323,4.409 2.322,6.486c0.569,1.183 1.271,2.3 1.915,3.445c0.42,0.745 0.648,1.52 0.422,2.476c-0.145,-0.186 -0.247,-0.288 -0.317,-0.408c-0.525,-0.898 -0.94,-1.119 -1.931,-0.843c-0.909,0.251 -1.643,0.775 -2.045,1.682c-0.155,0.351 -0.343,0.686 -0.715,1.005c-0.56,-2.694 -1.119,-5.388 -1.678,-8.083c-0.054,-0.007 -0.108,-0.012 -0.161,-0.018c-0.042,0.174 -0.13,0.351 -0.119,0.522c0.051,0.727 0.075,1.463 0.213,2.174c0.57,2.9 1.113,5.807 1.79,8.682c0.509,2.165 1.263,4.272 1.811,6.43c0.74,2.923 1.983,5.645 3.177,8.39c0.481,1.105 0.982,2.201 1.466,3.306c0.071,0.162 0.18,0.378 0.127,0.512c-0.378,0.959 -0.145,1.958 -0.206,2.933c-0.045,0.709 -0.303,1.18 -0.969,1.425c-0.136,0.051 -0.259,0.135 -0.388,0.205c-1.182,0.637 -1.014,0.542 -1.565,-0.396c-0.093,-0.159 -0.185,-0.32 -0.302,-0.457c-1.724,-2.037 -2.815,-4.427 -3.851,-6.85c-0.343,-0.802 -0.615,-1.646 -1.288,-2.265c-0.103,-0.096 -0.162,-0.242 -0.229,-0.371c-1.425,-2.72 -2.85,-5.438 -3.793,-8.377c-0.567,-1.775 -1.189,-3.531 -1.782,-5.297c-0.115,-0.344 -0.213,-0.693 -0.325,-1.062" style="fill:#2c7599;fill-rule:nonzero;"/><path d="M74.764,78.097c0.795,0.935 0.897,1.031 2.224,0.829c1.205,-0.183 1.355,-0.247 1.964,-1.18c0.807,-1.239 1.237,-2.624 2.253,-3.73c0.201,-0.218 0.632,-0.179 0.767,0.099c1.406,2.918 2.439,6.008 3.19,9.156c0.969,-0.262 1.383,-0.037 1.901,0.851c0.072,0.12 0.172,0.222 0.317,0.408c0.226,-0.956 -0.002,-1.732 -0.421,-2.476c-0.645,-1.145 -1.347,-2.263 -1.915,-3.445c-0.999,-2.077 -1.824,-4.23 -2.323,-6.486c-0.134,-0.611 -0.382,-0.964 -0.975,-1.163c-0.725,-0.244 -1.419,-0.579 -2.131,-0.865c-0.216,-0.087 -0.447,-0.141 -0.658,-0.205c-0.066,0.153 -0.119,0.217 -0.118,0.283c0.004,0.143 0.004,0.299 0.057,0.43c0.567,1.403 0.488,2.87 0.426,4.33c-0.082,1.888 -1.181,2.934 -3.076,3.014c-0.61,0.026 -1.194,-0.069 -1.765,-0.216c0.092,0.124 0.182,0.249 0.283,0.366" style="fill:#215c7a;fill-rule:nonzero;"/><path d="M88.871,107.368c-0.483,-1.105 -0.984,-2.2 -1.465,-3.306c-1.195,-2.744 -2.437,-5.466 -3.178,-8.39c-0.547,-2.158 -1.301,-4.265 -1.81,-6.43c-0.678,-2.875 -1.221,-5.781 -1.789,-8.681c-0.113,-0.573 -0.149,-1.161 -0.185,-1.747c-0.194,0 -0.384,-0.1 -0.451,-0.341c-0.033,-0.118 -0.074,-0.233 -0.113,-0.349c-0.651,1.106 -1.453,2.038 -2.797,2.206c-1.937,0.244 -3.177,-1.545 -4.111,-3.103c-0.212,-0.083 -0.439,-0.172 -0.723,-0.283c0.308,1.017 0.588,1.874 1.103,2.625c0.701,1.025 1.445,2.021 2.151,3.04c0.458,0.661 0.917,1.325 1.31,2.024c0.552,0.983 0.309,1.777 -0.716,2.248c-0.515,0.238 -1.106,0.308 -1.797,0.487c0.112,0.369 0.21,0.719 0.325,1.062c0.116,0.342 0.233,0.683 0.349,1.023c1.49,0.047 2.132,-1.286 3.063,-2.404c0.258,-0.311 0.697,-0.091 0.816,0.216c1.651,4.232 2.11,8.646 4.1,12.795c1.513,3.156 3.411,7.036 5.836,9.773c-0.023,-0.655 -0.043,-1.312 0.209,-1.952c0.054,-0.134 -0.056,-0.351 -0.127,-0.513" style="fill:#215c7a;fill-rule:nonzero;"/><path d="M89.921,114.427c0.411,0.212 0.777,0.424 1.163,0.593c0.882,0.389 1.451,0.959 1.726,1.961c0.49,1.793 1.16,3.537 1.745,5.306c0.111,0.339 0.174,0.692 0.294,1.182c-0.406,-0.027 -0.748,0.031 -1.019,-0.083c-1.159,-0.486 -2.074,-1.24 -2.378,-2.534c-0.191,-0.817 -0.319,-1.649 -0.512,-2.466c-0.126,-0.531 -0.292,-1.056 -0.488,-1.566c-0.226,-0.592 -0.748,-0.886 -1.307,-1.085c-0.128,-0.046 -0.319,0.084 -0.481,0.133c0.05,0.126 0.066,0.327 0.155,0.37c1.155,0.557 1.341,1.648 1.555,2.734c0.156,0.788 0.348,1.569 0.497,2.358c0.062,0.32 0.095,0.656 0.065,0.978c-0.021,0.223 -0.124,0.561 -0.277,0.616c-0.187,0.071 -0.526,-0.028 -0.688,-0.176c-0.318,-0.291 -0.615,-0.636 -0.819,-1.013c-0.52,-0.964 -0.977,-1.96 -1.473,-2.937c-0.192,-0.377 -0.42,-0.733 -0.656,-1.141c-0.277,0.383 -0.425,0.724 -0.683,0.924c-1.315,1.027 -2.025,0.933 -3.007,-0.427c-0.469,-0.649 -0.873,-1.35 -1.245,-2.06c-0.39,-0.744 -0.758,-1.485 -1.311,-2.138c-1.119,-1.321 -1.944,-2.831 -2.651,-4.404c-0.66,-1.467 -1.417,-2.908 -1.9,-4.433c-0.526,-1.663 -1.513,-3.039 -2.339,-4.521c-0.443,-0.796 -0.845,-1.619 -1.202,-2.457c-0.948,-2.218 -1.902,-4.435 -2.775,-6.685c-0.595,-1.529 -1.061,-3.11 -1.581,-4.67c-0.117,-0.353 0.01,-0.631 0.27,-0.883c0.91,-0.883 2.973,-1.192 4.137,-0.625c0.415,0.203 0.517,0.576 0.639,0.966c0.861,2.755 1.731,5.507 2.6,8.259c0.876,2.772 2.213,5.338 3.607,7.866c1.199,2.177 2.222,4.441 3.432,6.609c0.497,0.889 1.088,1.725 1.643,2.582c0.318,0.49 0.658,0.965 0.965,1.46c0.352,0.568 0.522,0.65 1.157,0.391c0.406,-0.165 0.772,-0.474 1.188,-0.553c0.613,-0.12 1.065,-0.431 1.564,-0.773c0.559,-0.384 1.247,-0.608 1.909,-0.809c1.006,-0.304 2,-0.676 3.095,-0.617c0.756,0.041 1.366,0.27 1.769,0.91c0.66,1.05 1.315,2.105 1.935,3.179c0.657,1.139 1.296,2.291 1.893,3.462c0.226,0.444 0.401,0.951 0.442,1.441c0.057,0.696 -0.451,1.036 -1.069,0.699c-0.463,-0.252 -0.891,-0.644 -1.211,-1.067c-0.436,-0.581 -0.787,-1.234 -1.118,-1.885c-0.777,-1.532 -1.937,-2.733 -3.241,-3.81c-0.221,-0.183 -0.491,-0.325 -0.762,-0.418c-0.137,-0.047 -0.325,0.061 -0.49,0.099c0.071,0.141 0.109,0.323 0.221,0.417c0.528,0.445 1.089,0.851 1.615,1.301c1.386,1.188 2.011,2.731 2.13,4.531c0.054,0.834 0.25,1.657 0.353,2.49c0.064,0.505 0.09,1.018 0.096,1.527c0.002,0.161 -0.09,0.441 -0.182,0.461c-0.185,0.038 -0.454,-0.001 -0.594,-0.12c-0.439,-0.372 -0.808,-0.778 -0.966,-1.39c-0.549,-2.123 -1.199,-4.215 -2.064,-6.238c-0.42,-0.982 -2.034,-2.07 -3.128,-2.045c-0.05,0.001 -0.097,0.085 -0.243,0.224" style="fill:#fedcc4;fill-rule:nonzero;"/><path d="M100.132,118.21c-0.598,-1.171 -1.236,-2.323 -1.894,-3.462c-0.62,-1.074 -1.274,-2.129 -1.934,-3.179c-0.404,-0.64 -1.014,-0.869 -1.769,-0.91c-1.097,-0.06 -2.089,0.312 -3.096,0.617c-0.661,0.2 -1.349,0.425 -1.908,0.809c-0.499,0.342 -0.951,0.653 -1.564,0.772c-0.416,0.079 -0.783,0.389 -1.188,0.554c-0.636,0.259 -0.806,0.177 -1.157,-0.392c-0.307,-0.495 -0.648,-0.969 -0.965,-1.46c-0.555,-0.856 -1.148,-1.692 -1.644,-2.582c-1.21,-2.168 -2.232,-4.432 -3.432,-6.608c-1.393,-2.529 -2.73,-5.094 -3.606,-7.866c-0.869,-2.752 -1.739,-5.504 -2.6,-8.259c-0.122,-0.391 -0.224,-0.764 -0.639,-0.967c-1.165,-0.566 -3.227,-0.258 -4.137,0.625c-0.26,0.252 -0.388,0.531 -0.27,0.884c0.19,0.569 0.372,1.142 0.556,1.713c0.714,-0.605 1.548,-0.82 2.37,0.02c0.904,0.924 1.418,2.621 1.864,3.82c0.871,2.343 1.287,4.826 2.142,7.175c1.816,4.991 4.972,8.652 8.08,12.825c0.516,0.692 1.586,2.762 2.462,2.964c0.78,0.179 1.73,-1.154 2.271,-1.555c1.426,-1.058 2.793,-1.005 4.519,-0.956c0.257,0.008 0.403,0.178 0.45,0.372c0.046,-0.007 0.09,-0.008 0.13,0.006c0.27,0.093 0.541,0.235 0.762,0.418c1.303,1.077 2.463,2.277 3.241,3.809c0.331,0.652 0.682,1.304 1.118,1.885c0.319,0.423 0.748,0.816 1.211,1.068c0.617,0.337 1.126,-0.003 1.068,-0.7c-0.041,-0.49 -0.215,-0.997 -0.441,-1.44" style="fill:#fdcda6;fill-rule:nonzero;"/><path d="M68.065,87.042c0.092,0.445 0.171,0.832 0.265,1.284c-0.623,0.125 -1.195,0.019 -1.756,-0.041c-0.188,-0.018 -0.425,-0.176 -0.522,-0.34c-0.294,-0.502 -0.633,-1.009 -0.772,-1.562c-0.814,-3.219 -1.691,-6.429 -2.312,-9.687c-0.409,-2.148 -0.183,-4.304 1.379,-6.098c0.591,-0.678 1.226,-1.107 2.171,-1.008c0.541,0.057 1.095,-0.001 1.644,-0.009c0.405,-0.005 0.627,0.188 0.593,0.598c-0.14,1.724 0.657,3.096 1.593,4.438c0.328,0.469 0.605,1.008 0.768,1.554c0.731,2.456 1.967,4.621 3.571,6.605c0.595,0.735 1.089,1.557 1.575,2.371c0.297,0.497 0.2,0.813 -0.287,1.102c-0.307,0.184 -0.662,0.308 -1.01,0.4c-0.807,0.214 -1.14,0.049 -1.127,-0.796c0.01,-0.829 -0.414,-1.059 -1.054,-1.268c-1.132,-0.371 -2.236,-0.282 -3.331,0.105c-0.986,0.348 -1.675,1.027 -2.053,1.999c-0.068,0.177 -0.012,0.403 -0.014,0.606c0.189,-0.07 0.375,-0.14 0.679,-0.253" style="fill:#2c7599;fill-rule:nonzero;"/><path d="M103.348,75.869c-1.53,-0.58 -1.566,-0.595 -0.981,-1.941c0.522,-1.203 1.127,-2.37 1.713,-3.543c0.164,-0.323 0.348,-0.658 0.598,-0.913c1.531,-1.559 3.065,-3.12 4.645,-4.63c0.381,-0.363 0.922,-0.594 1.428,-0.784c1.052,-0.394 1.58,-0.021 1.705,1.101c0.074,0.668 -0.183,1.221 -0.573,1.718c-0.54,0.689 -1.117,1.348 -1.669,2.027c-0.276,0.339 -0.558,0.678 -0.794,1.044c-0.627,0.975 -1.211,1.952 -2.571,2.054c-0.349,0.026 -0.702,0.363 -1.004,0.617c-1.069,0.899 -1.898,1.996 -2.497,3.25" style="fill:#fedcc4;fill-rule:nonzero;"/><path d="M73.391,67.334c-0.262,0.404 -0.474,0.737 -0.69,1.067c-0.144,0.217 -0.262,0.251 -0.504,0.058c-0.235,-0.186 -0.3,0.115 -0.317,0.269c-0.084,0.769 -0.096,1.545 0.255,2.257c0.323,0.653 0.685,1.292 1.067,1.912c0.425,0.693 1.131,1.038 1.866,1.268c0.669,0.21 1.313,0.101 1.742,-0.55c0.301,-0.456 0.587,-0.922 0.876,-1.385c0.163,-0.264 0.319,-0.532 0.567,-0.946c0.522,1.597 0.576,3.025 0.144,4.447c-0.268,0.888 -0.907,1.354 -1.87,1.42c-1.284,0.086 -2.468,-0.218 -3.588,-0.802c-0.318,-0.164 -0.65,-0.388 -0.854,-0.671c-0.722,-1.006 -1.433,-2.026 -2.071,-3.088c-0.52,-0.865 -0.616,-1.851 -0.573,-2.859c0.035,-0.841 0.401,-1.478 1.065,-1.937c0.849,-0.587 1.792,-0.692 2.885,-0.46" style="fill:#008dc7;fill-rule:nonzero;"/><path d="M82.771,118.806c-0.436,0.021 -0.792,0.052 -1.149,0.052c-6.614,0.009 -13.228,0.013 -19.842,0.018c-1.141,0 -1.176,-0.007 -1.087,-1.148c0.047,-0.611 0.191,-1.224 0.377,-1.81c0.233,-0.734 0.324,-0.739 1.016,-0.437c0.635,0.275 1.272,0.553 1.92,0.798c1.024,0.386 2.061,0.701 3.165,0.838c1.08,0.133 2.132,0.487 3.21,0.645c1.26,0.186 2.531,0.332 3.802,0.375c2.08,0.071 4.164,0.049 6.247,0.055c0.474,0.001 0.97,0.037 1.417,-0.084c0.627,-0.17 0.737,0.185 0.924,0.698" style="fill:#c39a6b;fill-rule:nonzero;"/><path d="M78.13,69.505c-0.035,0.085 -0.047,0.12 -0.063,0.152c-0.572,1.137 -1.103,2.297 -1.732,3.402c-0.336,0.589 -0.683,0.625 -1.307,0.359c-0.58,-0.246 -1.1,-0.579 -1.411,-1.154c-0.361,-0.672 -0.732,-1.341 -1.056,-2.031c-0.14,-0.3 -0.084,-0.561 0.208,-0.86c0.502,-0.514 0.871,-1.157 1.313,-1.732c0.445,-0.579 0.471,-0.588 1.054,-0.219c0.923,0.586 1.833,1.19 2.743,1.796c0.108,0.072 0.179,0.203 0.251,0.287" style="fill:#fedcc4;fill-rule:nonzero;"/><path d="M105.488,81.402c0.414,-0.687 0.479,-1.355 0.231,-2.046c-0.146,-0.411 -0.068,-0.799 0.14,-1.158c0.885,-1.532 2.013,-2.78 3.813,-3.234c0.035,-0.009 0.069,-0.023 0.105,-0.029c1.699,-0.268 1.867,-0.095 2.567,1.319c0.127,0.257 0.194,0.545 0.331,0.939c-0.322,-0.047 -0.554,-0.114 -0.784,-0.108c-0.471,0.013 -0.997,-0.059 -1.4,0.123c-1.802,0.817 -3.413,1.854 -3.921,3.972c-0.136,0.568 -0.174,0.561 -1.082,0.222" style="fill:#fedcc4;fill-rule:nonzero;"/><path d="M110.867,74.242c-2.782,-0.141 -4.323,1.546 -5.719,3.534c-0.269,-0.286 -0.495,-0.511 -0.705,-0.752c-0.573,-0.657 -0.596,-0.722 -0.181,-1.429c0.558,-0.95 1.219,-1.822 2.07,-2.536c1.155,-0.967 2.494,-1.024 3.739,-0.165c0.417,0.288 0.618,0.699 0.796,1.348" style="fill:#fedcc4;fill-rule:nonzero;"/><path d="M89.429,111.315c0,-0.853 -0.021,-1.575 0.006,-2.296c0.024,-0.684 0.724,-1.113 1.396,-0.89c0.771,0.258 1.305,1.274 1.031,2.038c-0.062,0.169 -0.293,0.281 -0.454,0.409c-0.054,0.043 -0.133,0.054 -0.202,0.079c-0.543,0.201 -1.085,0.403 -1.777,0.66" style="fill:#fedcc4;fill-rule:nonzero;"/><path d="M68.679,29.902c0.647,0.634 1.461,0.918 2.325,1.097c1.661,0.343 3.341,0.297 5.022,0.26c0.321,-0.006 0.653,0.006 0.962,0.084c0.111,0.028 0.211,0.262 0.232,0.415c0.009,0.06 -0.202,0.213 -0.32,0.222c-2.118,0.155 -4.228,0.084 -6.313,-0.355c-1.179,-0.248 -2.13,-0.933 -3.048,-1.663c-0.259,-0.206 -0.244,-0.548 0.035,-0.606c1.333,-0.269 2.192,-1.265 3.204,-2.027c0.057,-0.044 0.11,-0.121 0.173,-0.13c0.163,-0.021 0.33,-0.013 0.495,-0.017c-0.033,0.158 -0.009,0.379 -0.105,0.463c-0.848,0.743 -1.718,1.463 -2.662,2.257" style="fill:#231f20;fill-rule:nonzero;"/><path d="M94.707,64.41c-0.021,0.643 0.237,1.04 0.679,1.041c0.395,0.001 0.609,-0.28 0.637,-0.838c0.023,-0.427 -0.27,-0.642 -0.889,-0.678c-0.355,-0.021 -0.421,0.195 -0.427,0.475m-5.347,-7.26c0.36,-0.026 0.537,-0.063 0.712,-0.049c0.984,0.073 1.89,-0.085 2.615,-0.831c0.073,-0.074 0.182,-0.137 0.284,-0.153c0.09,-0.016 0.227,0.008 0.282,0.069c0.06,0.066 0.102,0.239 0.06,0.291c-0.204,0.249 -0.402,0.534 -0.671,0.691c-0.45,0.261 -0.444,0.627 -0.364,1.036c0.168,0.856 0.317,1.719 0.53,2.564c0.363,1.433 1.466,2.357 2.934,2.538c0.422,0.053 0.977,0.005 1.227,0.252c0.355,0.351 -0.228,0.764 -0.254,1.189c-0.01,0.143 -0.043,0.29 -0.086,0.428c-0.247,0.802 -0.653,1.053 -1.478,0.924c-0.646,-0.104 -0.972,-0.446 -0.911,-1.253c0.066,-0.871 -0.227,-1.437 -0.957,-1.893c-0.572,-0.358 -0.906,-0.949 -1.036,-1.618c-0.187,-0.964 -0.337,-1.934 -0.514,-2.899c-0.149,-0.813 -0.157,-0.809 -0.95,-0.864c-0.423,-0.029 -0.874,0.051 -1.423,-0.422" style="fill:#231f20;fill-rule:nonzero;"/><path d="M73.745,54.618c-0.237,-1.072 -0.795,-1.618 -1.483,-2.082c-1.334,-0.898 -2.366,-0.559 -3.047,1.131c-0.2,0.494 -0.217,1.061 -0.334,1.684c-0.154,-0.097 -0.312,-0.14 -0.356,-0.234c-0.509,-1.094 -0.183,-2.259 0.796,-3.273c0.787,-0.817 1.864,-0.817 2.823,-0.354c0.666,0.321 1.276,0.735 1.683,1.362c0.314,0.484 0.571,1.013 -0.082,1.766" style="fill:#231f20;fill-rule:nonzero;"/><path d="M100.446,46.98c-0.2,0.634 -0.362,1.233 -0.588,1.807c-0.064,0.165 -0.382,0.394 -0.466,0.353c-0.192,-0.094 -0.438,-0.335 -0.439,-0.517c-0.006,-0.784 0.267,-1.499 0.781,-2.096c0.088,-0.102 0.408,-0.159 0.479,-0.091c0.133,0.131 0.166,0.367 0.233,0.544" style="fill:#231f20;fill-rule:nonzero;"/><path d="M94.707,64.409c0.007,-0.279 0.072,-0.495 0.428,-0.474c0.619,0.036 0.911,0.251 0.889,0.678c-0.029,0.558 -0.242,0.839 -0.638,0.838c-0.442,-0.001 -0.7,-0.398 -0.679,-1.042" style="fill:#fff;fill-rule:nonzero;"/><g><clipPath id="_clip1"><rect x="123.08" y="4.903" width="63.621" height="113.895" clip-rule="nonzero"/></clipPath><g clip-path="url(#_clip1)"><path d="M148.777,75.207c1.192,-0.604 1.23,-1.026 0.2,-1.73c-0.179,-0.122 -0.366,-0.239 -0.566,-0.316c-0.385,-0.148 -0.646,0.041 -0.607,0.47c0.022,0.234 0.123,0.482 0.254,0.682c0.196,0.3 0.447,0.562 0.719,0.894m2.566,26.226c-0.327,-0.069 -0.487,0.107 -0.491,0.471c-0.006,0.692 -0.028,1.382 -0.017,2.073c0.011,0.709 0.185,0.891 0.856,1.008c0.296,0.051 0.491,-0.014 0.535,-0.353c0.078,-0.612 0.117,-1.237 0.271,-1.83c0.31,-1.201 0.223,-0.995 -0.887,-1.326c-0.068,-0.021 -0.142,-0.024 -0.267,-0.043m8.24,-19.783c-1.443,0.08 -2.884,0.161 -4.326,0.238c-0.639,0.033 -0.763,0.157 -0.67,0.785c0.029,0.203 0.116,0.419 0.239,0.583c0.564,0.757 1.145,1.5 1.733,2.238c0.167,0.21 0.38,0.383 0.537,0.538c0.846,-1.491 1.66,-2.924 2.487,-4.382m-17.235,6.053c1.053,1.488 2.261,2.7 3.631,3.713c0.879,0.65 1.95,0.687 2.857,-0.017c0.591,-0.46 1.042,-1.097 1.579,-1.631c0.282,-0.282 0.185,-0.478 -0.028,-0.738c-0.529,-0.648 -1.024,-1.321 -1.549,-1.97c-0.129,-0.159 -0.304,-0.316 -0.49,-0.388c-0.646,-0.244 -1.31,-0.44 -1.961,-0.674c-0.271,-0.098 -0.472,-0.086 -0.677,0.146c-0.859,0.974 -1.989,1.41 -3.362,1.559m0.537,-9.243c-0.549,0.475 -0.789,1.018 -0.807,1.658c-0.03,0.988 -0.047,1.969 0.317,2.921c0.166,0.437 0.231,0.914 0.317,1.378c0.013,0.069 -0.098,0.207 -0.178,0.234c-0.08,0.026 -0.214,-0.023 -0.288,-0.082c-0.079,-0.064 -0.129,-0.175 -0.167,-0.275c-0.544,-1.458 -0.837,-2.96 -0.607,-4.51c0.114,-0.764 0.426,-1.475 1.222,-1.828c0.215,-0.095 0.414,-0.224 0.621,-0.339c-0.167,-0.231 -0.294,-0.511 -0.509,-0.681c-0.492,-0.393 -0.935,-0.329 -1.307,0.218c-0.816,1.205 -1.395,2.486 -1.082,4.006c0.09,0.439 0.233,0.894 -0.049,1.428c-0.455,-0.612 -0.474,-1.23 -0.485,-1.835c-0.013,-0.65 -0.009,-1.306 0.06,-1.951c0.062,-0.583 0.644,-1.03 0.553,-1.765c-0.786,0.428 -1.124,1.026 -1.161,1.807c-0.041,0.872 -0.069,1.745 -0.107,2.616c-0.01,0.218 -0.03,0.437 -0.067,0.651c-0.008,0.055 -0.103,0.144 -0.143,0.136c-0.092,-0.018 -0.233,-0.069 -0.25,-0.135c-0.063,-0.244 -0.106,-0.497 -0.115,-0.748c-0.022,-0.585 -0.027,-1.17 -0.024,-1.754c0.001,-0.429 -0.157,-0.781 -0.449,-1.085c-0.427,-0.444 -1.198,-0.507 -1.697,-0.136c-0.374,0.276 -0.428,0.83 -0.113,1.393c0.124,0.221 0.304,0.411 0.443,0.625c0.597,0.921 1.204,1.845 1.438,2.935c0.234,1.087 0.844,1.909 1.615,2.674c0.927,0.922 2.078,1.077 3.235,0.861c0.675,-0.126 1.29,-0.628 1.904,-1.007c0.235,-0.145 0.293,-0.439 0.026,-0.648c-1.367,-1.068 -1.836,-2.611 -2.12,-4.203c-0.144,-0.801 -0.026,-1.649 -0.026,-2.559m2.921,-2.117l-0.243,-0.024c-0.128,0.407 -0.352,0.809 -0.365,1.218c-0.029,0.871 0.021,1.749 0.097,2.619c0.053,0.616 0.214,1.22 0.296,1.834c0.013,0.096 -0.138,0.213 -0.214,0.32c-0.11,-0.077 -0.292,-0.136 -0.318,-0.237c-0.128,-0.493 -0.24,-0.993 -0.31,-1.499c-0.125,-0.886 -0.214,-1.778 -0.326,-2.738c-0.519,0.349 -0.761,0.787 -0.79,1.316c-0.032,0.62 -0.093,1.258 0.019,1.859c0.396,2.134 1.338,3.867 3.628,4.486c0.879,0.238 1.802,0.37 2.626,0.729c1.059,0.462 1.928,0.115 2.774,-0.4c0.494,-0.301 1.134,-0.601 0.855,-1.43c-0.042,-0.125 0.172,-0.318 0.209,-0.491c0.09,-0.425 0.205,-0.859 0.205,-1.288c-0.001,-1.295 -0.454,-1.815 -1.753,-1.826c-0.861,-0.007 -1.297,-0.418 -1.533,-1.26c-0.15,-0.527 -0.266,-1.067 -0.46,-1.577c-0.283,-0.742 -0.688,-1.409 -1.516,-1.912c-0.084,0.431 -0.172,0.74 -0.199,1.056c-0.112,1.235 0.179,2.391 0.744,3.486c0.151,0.292 0.345,0.574 0.427,0.884c0.039,0.15 -0.137,0.356 -0.215,0.538c-0.151,-0.072 -0.368,-0.104 -0.443,-0.225c-1.149,-1.849 -1.602,-3.815 -0.926,-5.953c0.17,-0.539 -0.24,-1.27 -0.783,-1.311c-0.168,-0.014 -0.397,0.147 -0.515,0.295c-0.1,0.124 -0.111,0.345 -0.108,0.523c0.04,2.177 -0.304,4.401 0.792,6.455c0.071,0.132 -0.06,0.372 -0.097,0.561c-0.177,-0.085 -0.467,-0.132 -0.514,-0.264c-0.298,-0.855 -0.632,-1.716 -0.784,-2.602c-0.178,-1.033 -0.181,-2.094 -0.26,-3.142m1.406,22.823c-0.074,0.151 -0.169,0.272 -0.193,0.407c-0.254,1.473 -0.55,2.942 -0.728,4.424c-0.218,1.811 -0.304,3.636 -0.507,5.449c-0.111,0.975 -0.342,1.926 -0.768,2.839c-1.398,2.999 -2.182,6.175 -2.61,9.447c-0.041,0.316 0.055,0.496 0.328,0.597c0.272,0.1 0.55,0.213 0.834,0.256c1.442,0.215 2.883,0.471 4.334,0.594c1.855,0.157 3.715,0.211 5.545,0.612c0.526,0.114 1.091,0.063 1.639,0.068c0.268,0.003 0.397,-0.16 0.343,-0.428c-0.044,-0.214 -0.111,-0.424 -0.17,-0.634c-0.812,-2.889 -1.844,-5.697 -3.086,-8.427c-0.164,-0.364 -0.346,-0.745 -0.388,-1.132c-0.12,-1.123 -0.207,-2.253 -0.244,-3.383c-0.038,-1.169 -0.025,-2.34 0.009,-3.509c0.014,-0.484 -0.145,-0.794 -0.617,-0.868c-0.668,-0.104 -0.782,-0.541 -0.761,-1.11c0.031,-0.912 0.031,-1.827 0.069,-2.739c0.016,-0.367 -0.087,-0.617 -0.413,-0.816c-0.868,-0.526 -1.719,-1.08 -2.616,-1.647m23.493,-20.664c0.3,-0.457 0.49,-0.714 0.645,-0.99c0.212,-0.372 0.467,-0.476 0.904,-0.359c1.52,0.405 2.869,-0.091 3.703,-1.394c0.218,-0.342 0.284,-0.81 0.325,-1.229c0.032,-0.333 -0.425,-0.73 -0.048,-1c0.257,-0.183 0.688,-0.132 1.043,-0.17c0.181,-0.018 0.366,0.009 0.548,-0.009c1.06,-0.104 2.098,-0.294 3.051,-0.807c0.669,-0.36 1.017,-0.872 0.981,-1.679c-0.041,-0.947 -0.384,-1.771 -0.806,-2.59c-1.34,-2.59 -3.426,-4.532 -5.553,-6.443c-0.27,-0.242 -0.514,-0.266 -0.749,0.019c-0.255,0.311 -0.499,0.63 -0.746,0.947c-0.595,0.77 -0.911,0.866 -1.772,0.444c-0.49,-0.241 -0.945,-0.555 -1.423,-0.823c-0.671,-0.376 -1.014,-0.309 -1.523,0.286c-0.143,0.166 -0.266,0.35 -0.384,0.534c-0.234,0.364 -0.392,0.79 -0.889,0.912c-0.11,0.026 -0.227,0.179 -0.269,0.299c-0.106,0.312 -0.321,0.446 -0.616,0.557c-0.921,0.344 -1.819,0.749 -2.745,1.08c-0.803,0.286 -1.556,0.635 -2.16,1.251c-0.836,0.85 -0.884,1.744 -0.048,2.602c0.399,0.411 0.906,0.735 1.408,1.023c0.508,0.291 0.753,0.664 0.688,1.244c-0.016,0.144 -0.018,0.293 -0.02,0.438c-0.002,0.321 -0.111,0.695 0.248,0.889c0.407,0.223 0.57,-0.2 0.812,-0.381c0.849,-0.633 1.779,-0.939 2.761,-0.422c1.246,0.657 2.172,1.613 2.344,3.105c0.092,0.792 0.173,1.588 0.29,2.666m-6.307,21.673c-0.411,0.229 -0.769,0.399 -1.094,0.618c-0.993,0.669 -2.079,1.001 -3.27,1.146c-1.972,0.243 -3.932,0.245 -5.898,0.002c-0.71,-0.088 -0.745,-0.083 -0.863,0.61c-0.146,0.862 -0.247,1.732 -0.351,2.601c-0.041,0.342 -0.063,0.676 -0.51,0.706c-0.422,0.026 -0.421,0.3 -0.406,0.618c0.056,1.238 0.102,2.478 0.151,3.717c0.021,0.548 -0.008,1.102 0.073,1.641c0.108,0.716 0.179,1.477 0.477,2.12c1.047,2.257 1.985,4.556 2.675,6.944c0.25,0.867 0.775,1.645 0.808,2.581c0.013,0.376 0.295,0.451 0.631,0.405c0.615,-0.087 1.231,-0.232 1.844,-0.227c2.246,0.019 4.337,-0.497 6.281,-1.632c0.597,-0.349 0.618,-0.352 0.462,-1.123c-0.502,-2.484 -1.307,-4.879 -2.465,-7.12c-0.598,-1.158 -0.797,-2.231 -0.417,-3.448c0.13,-0.418 0.227,-0.846 0.323,-1.274c0.328,-1.458 0.699,-2.909 0.957,-4.381c0.251,-1.435 0.385,-2.889 0.592,-4.504m-14.664,-12.872c0.427,0.66 0.895,1.159 1.414,1.613c1.125,0.981 2.246,1.967 3.386,2.93c0.501,0.424 1.002,0.878 1.576,1.181c1.828,0.962 3.872,1.019 4.878,-1.27c0.512,-1.165 0.933,-2.376 1.319,-3.591c0.341,-1.073 0.565,-2.183 0.868,-3.269c0.035,-0.126 0.239,-0.205 0.365,-0.307c0.061,0.152 0.193,0.313 0.171,0.449c-0.403,2.502 -1.207,4.882 -2.27,7.175c-0.181,0.39 -0.439,0.789 -0.764,1.057c-0.439,0.363 -0.947,0.77 -1.48,0.866c-1.327,0.243 -2.637,0.05 -3.742,-0.813c-0.774,-0.605 -1.49,-1.287 -2.243,-1.919c-0.503,-0.422 -1.028,-0.819 -1.542,-1.227c-0.294,-0.232 -0.51,-0.179 -0.705,0.148c-0.54,0.911 -1.121,1.8 -1.646,2.719c-0.744,1.298 -1.471,2.608 -2.17,3.93c-0.35,0.662 -0.339,0.763 0.2,1.236c1.355,1.187 2.82,2.216 4.614,2.628c2.472,0.567 4.966,0.731 7.505,0.483c1.503,-0.146 2.849,-0.591 4.071,-1.443c0.921,-0.643 1.536,-1.463 1.411,-2.661c-0.053,-0.505 -0.136,-1.007 -0.214,-1.51c-0.148,-0.937 -0.378,-1.868 -0.437,-2.811c-0.116,-1.861 -0.085,-3.737 0.343,-5.558c0.516,-2.197 0.665,-4.389 0.342,-6.622c-0.137,-0.949 -0.475,-1.283 -1.422,-1.264c-0.583,0.011 -1.069,0.231 -1.478,0.622c-1.813,1.739 -3.289,3.714 -4.285,6.037c-0.217,0.503 -0.195,0.899 0.179,1.297c0.276,0.292 0.548,0.594 0.767,0.928c0.121,0.187 0.251,0.548 0.164,0.654c-0.244,0.294 -0.447,-0.016 -0.598,-0.193c-0.453,-0.526 -0.896,-1.06 -1.316,-1.611c-0.751,-0.984 -1.483,-1.984 -2.285,-3.059c-0.718,2.546 -2.778,2.898 -4.976,3.175m13.375,-38c-0.128,-0.667 -0.171,-1.364 -0.397,-1.995c-0.781,-2.195 -1.95,-4.176 -3.562,-5.867c-1.336,-1.401 -2.915,-2.309 -4.943,-2.202c-1.44,0.076 -2.636,0.522 -3.324,1.914c-0.269,0.543 -0.621,0.699 -1.167,0.501c-0.436,-0.16 -0.866,-0.404 -1.223,-0.701c-0.53,-0.444 -0.981,-0.984 -1.491,-1.453c-0.698,-0.643 -1.375,-1.323 -2.143,-1.87c-1.072,-0.763 -2.257,-0.765 -3.432,-0.181c-1.548,0.769 -2.728,1.949 -3.688,3.362c-0.723,1.066 -0.839,2.143 -0.083,3.268c0.385,0.574 0.722,1.191 1.005,1.822c0.371,0.829 0.189,1.413 -0.585,1.872c-0.498,0.297 -1.04,0.561 -1.598,0.705c-1.45,0.373 -2.913,0.694 -4.381,0.988c-0.961,0.192 -1.079,0.261 -1.171,1.24c-0.028,0.289 -0.036,0.59 0.007,0.876c0.198,1.298 1.316,1.919 2.529,1.418c0.304,-0.126 0.585,-0.315 0.896,-0.412c0.501,-0.156 0.906,0.241 0.72,0.736c-0.107,0.286 -0.35,0.548 -0.594,0.748c-0.48,0.392 -1.025,0.706 -1.503,1.1c-0.709,0.586 -0.737,1.21 -0.116,1.889c0.35,0.382 0.75,0.666 1.302,0.741c0.846,0.114 0.839,0.144 1.01,0.988c0.048,0.239 0.121,0.472 0.216,0.835c2.75,-2.811 5.213,-5.748 8.436,-7.932c-0.598,-0.658 -1.302,-1.104 -1.431,-2.107c0.248,0.155 0.388,0.208 0.478,0.306c0.653,0.702 1.37,1.22 2.332,1.524c0.768,0.243 1.389,0.319 2.063,-0.102c0.762,-0.477 1.611,-0.67 2.492,-0.771c0.725,-0.084 1.447,-0.197 2.172,-0.27c0.833,-0.083 1.67,-0.186 2.505,-0.191c1.025,-0.005 1.424,0.426 1.5,1.473c0.028,0.365 0.013,0.732 0.04,1.097c0.115,1.512 0.803,2.354 2.267,2.708c0.528,0.128 1.079,0.207 1.622,0.218c1.756,0.04 3.513,0.031 5.268,0.059c1.52,0.023 2.258,0.844 2.222,2.358c-0.018,0.704 -0.385,1.151 -0.9,1.542c-0.581,0.442 -1.224,0.83 -1.715,1.358c-1.319,1.422 -0.468,2.165 0.745,2.572c0.103,0.036 0.216,0.036 0.324,0.057c0.588,0.121 1.154,0.117 1.663,-0.26c0.589,0.279 0.761,-0.178 0.986,-0.553c0.094,-0.155 0.199,-0.306 0.317,-0.447c0.68,-0.808 1.398,-0.946 2.33,-0.434c0.448,0.247 0.874,0.535 1.327,0.772c0.555,0.292 0.658,0.296 1,-0.212c0.563,-0.835 1.473,-1.413 1.758,-2.463c0.079,-0.29 0.37,-0.539 0.6,-0.771c0.411,-0.415 0.865,-0.788 1.273,-1.206c0.585,-0.601 1.184,-1.196 1.706,-1.848c0.577,-0.721 0.725,-1.583 0.575,-2.491c-0.167,-1.021 -0.521,-1.975 -1.006,-2.885c-0.584,-1.097 -1.485,-1.813 -2.664,-2.133c-0.627,-0.171 -1.292,-0.219 -1.943,-0.279c-0.545,-0.051 -1.101,0.001 -1.642,-0.066c-0.881,-0.111 -1.483,-0.584 -1.675,-1.492c-0.076,-0.357 -0.16,-0.712 -0.222,-1.072c-0.327,-1.856 -0.957,-3.597 -1.93,-5.212c-0.44,-0.73 -1.088,-1.185 -1.912,-1.358c-1.277,-0.266 -2.548,-0.18 -3.798,0.173c-0.905,0.254 -1.649,0.765 -2.248,1.495c-0.245,0.299 -0.292,0.56 -0.015,0.869c0.219,0.244 0.402,0.52 0.592,0.788c0.975,1.381 1.772,2.853 2.307,4.466c0.262,0.791 0.261,1.57 -0.083,2.398m-13.54,26.593c0.91,0.854 1.364,2.029 1.619,3.303c0.128,0.639 0.465,1.004 1.208,1.003c0.735,-0.001 1.457,0.157 1.832,0.958c0.061,0.13 0.364,0.22 0.546,0.208c1.349,-0.087 2.699,-0.182 4.043,-0.32c0.987,-0.101 1.945,-0.298 2.566,-1.217c0.138,-0.204 0.365,-0.356 0.57,-0.508c1.178,-0.869 2.545,-0.742 3.488,0.367c0.319,0.374 0.665,0.571 1.135,0.488c1.051,-0.185 2.221,-0.164 2.692,-1.44c0.641,-0.241 0.519,-0.794 0.519,-1.291c0.001,-0.402 0.006,-0.806 -0.036,-1.205c-0.079,-0.74 -0.32,-1.402 -0.851,-1.971c-1.179,-1.262 -2.422,-1.779 -3.735,-0.091c-0.222,0.287 -0.471,0.282 -0.764,0.093c-0.495,-0.316 -0.886,-0.719 -0.757,-1.339c0.198,-0.957 -0.258,-1.402 -1.033,-1.882c-2.169,-1.344 -2.162,-3.321 -0.001,-4.665c0.729,-0.454 1.598,-0.693 2.421,-0.981c0.528,-0.186 1.034,-0.355 1.269,-0.912c-0.584,-0.186 -1.194,-0.307 -1.738,-0.567c-1.284,-0.612 -1.633,-1.824 -0.83,-3.009c0.359,-0.53 0.898,-0.945 1.385,-1.379c0.353,-0.314 0.774,-0.553 1.129,-0.867c0.355,-0.312 0.461,-0.712 0.323,-1.192c-0.218,-0.756 -0.507,-1.026 -1.321,-1.036c-1.463,-0.018 -2.928,0.044 -4.388,-0.027c-1.051,-0.051 -2.12,-0.161 -3.135,-0.422c-1.604,-0.411 -2.424,-1.578 -2.452,-3.212c-0.006,-0.365 0.017,-0.733 -0.018,-1.095c-0.064,-0.663 -0.315,-0.916 -0.975,-0.934c-0.508,-0.014 -1.021,0.022 -1.527,0.084c-0.868,0.105 -1.733,0.246 -2.598,0.377c-0.941,0.143 -1.88,0.29 -2.703,0.827c-0.548,0.358 -1.154,0.508 -1.778,0.264c-0.838,-0.328 -1.445,0.024 -2.091,0.517c-2.66,2.033 -4.924,4.47 -7.143,6.951c-0.761,0.85 -1.288,1.859 -1.615,2.964c-0.733,2.479 -0.531,4.886 0.401,7.287c0.861,2.222 2.044,4.157 3.895,5.729c0.739,0.626 1.463,0.719 2.155,0.472c1.017,-0.362 1.782,-0.248 2.434,0.576c0.293,0.37 0.631,0.273 0.841,0.033c0.522,-0.596 1.04,-1.214 1.424,-1.899c0.24,-0.428 0.406,-0.85 0.897,-1.029c0.357,-0.13 0.369,-0.446 0.345,-0.728c-0.033,-0.388 -0.373,-0.246 -0.601,-0.27c-0.329,-0.032 -0.659,-0.046 -1.175,-0.081c1.556,-0.604 2.862,-0.499 3.956,0.227c1.201,0.796 1.271,1.635 0.219,2.617c-0.021,0.018 -0.016,0.066 -0.047,0.224m-16.673,-21.766c-0.396,-0.106 -0.68,-0.168 -0.955,-0.261c-1.048,-0.355 -1.71,-1.198 -1.697,-2.295c0.009,-0.685 0.142,-1.371 0.237,-2.053c0.073,-0.518 0.394,-0.704 0.912,-0.742c1.758,-0.125 3.432,-0.668 5.127,-1.101c0.383,-0.099 0.753,-0.292 1.092,-0.5c0.532,-0.325 0.589,-0.52 0.311,-1.083c-0.292,-0.588 -0.619,-1.162 -0.963,-1.722c-0.819,-1.336 -0.732,-2.626 0.127,-3.906c0.993,-1.481 2.206,-2.719 3.794,-3.572c1.651,-0.888 3.249,-0.826 4.723,0.326c0.83,0.65 1.545,1.445 2.322,2.162c0.563,0.518 1.131,1.031 1.722,1.514c0.214,0.175 0.498,0.182 0.634,-0.142c0.408,-0.978 1.173,-1.561 2.122,-1.947c1.091,-0.442 2.209,-0.432 3.343,-0.216c1.145,0.218 2.12,0.777 3.012,1.5c0.255,0.205 0.494,0.428 0.785,0.683c0.185,-0.203 0.356,-0.38 0.513,-0.567c0.603,-0.725 1.368,-1.23 2.255,-1.499c1.419,-0.432 2.874,-0.55 4.333,-0.215c1.096,0.252 1.893,0.927 2.431,1.903c0.814,1.483 1.441,3.037 1.764,4.704c0.091,0.466 0.158,0.939 0.279,1.397c0.192,0.724 0.474,0.945 1.243,1.005c0.837,0.064 1.68,0.072 2.513,0.167c2.009,0.226 3.468,1.239 4.338,3.093c0.534,1.14 0.899,2.301 0.881,3.583c-0.014,0.883 -0.239,1.676 -0.788,2.341c-0.532,0.646 -1.138,1.233 -1.729,1.829c-0.438,0.441 -0.923,0.836 -1.347,1.289c-0.701,0.748 -0.687,0.981 0.06,1.731c0.386,0.387 0.8,0.75 1.213,1.112c1.75,1.536 3.161,3.342 4.29,5.374c0.431,0.778 0.695,1.606 0.82,2.484c0.167,1.175 -0.196,1.986 -1.219,2.588c-0.996,0.587 -2.098,0.832 -3.239,0.922c-0.255,0.02 -0.528,-0.035 -0.763,0.041c-0.159,0.051 -0.383,0.272 -0.378,0.41c0.055,1.71 -1.038,2.6 -2.38,3.223c-0.566,0.262 -1.275,0.285 -1.92,0.287c-0.533,0.002 -0.912,0.11 -1.166,0.594c-0.082,0.158 -0.2,0.333 -0.349,0.414c-1.081,0.585 -2.158,1.188 -3.277,1.695c-0.41,0.187 -0.93,0.147 -1.402,0.186c-0.761,0.063 -0.819,0.062 -0.725,0.853c0.24,2.033 -0.121,4.004 -0.512,5.979c-0.313,1.583 -0.424,3.187 -0.336,4.798c0.034,0.615 0.189,1.223 0.271,1.838c0.136,1.01 0.267,2.021 0.381,3.034c0.066,0.599 -0.079,1.158 -0.364,1.689c-0.119,0.22 -0.229,0.464 -0.261,0.708c-0.249,1.882 -0.421,3.777 -0.731,5.648c-0.226,1.365 -0.629,2.701 -0.946,4.053c-0.158,0.675 -0.332,1.35 -0.435,2.034c-0.044,0.301 -0.011,0.669 0.128,0.93c1.409,2.631 2.375,5.416 3.005,8.326c0.016,0.071 0.025,0.143 0.041,0.214c0.241,0.993 0.149,1.207 -0.714,1.644c-0.423,0.215 -0.842,0.436 -1.272,0.637c-1.202,0.563 -2.453,0.948 -3.792,0.992c-0.658,0.02 -1.336,-0.04 -1.97,0.099c-1.303,0.284 -2.598,0.348 -3.913,0.177c-0.541,-0.07 -1.084,-0.132 -1.627,-0.193c-1.379,-0.154 -2.76,-0.292 -4.136,-0.466c-1.775,-0.222 -3.548,-0.454 -5.314,-0.726c-0.383,-0.058 -0.765,-0.258 -1.096,-0.473c-0.427,-0.275 -0.589,-0.675 -0.485,-1.227c0.238,-1.254 0.382,-2.525 0.614,-3.78c0.114,-0.607 0.302,-1.205 0.521,-1.782c0.569,-1.504 1.215,-2.981 1.746,-4.499c0.275,-0.785 0.431,-1.625 0.533,-2.453c0.263,-2.101 0.433,-4.213 0.704,-6.312c0.139,-1.083 0.422,-2.147 0.622,-3.222c0.057,-0.313 0.178,-0.715 0.044,-0.941c-0.427,-0.716 -0.224,-1.347 0.118,-1.971c0.667,-1.217 1.365,-2.418 2.05,-3.627c0.071,-0.124 0.142,-0.249 0.283,-0.494c-0.288,0.038 -0.471,0.057 -0.653,0.087c-1.308,0.218 -2.485,-0.029 -3.413,-1.032c-0.991,-1.073 -1.97,-2.158 -2.917,-3.269c-0.273,-0.32 -0.547,-0.572 -0.951,-0.687c-1.589,-0.457 -2.441,-1.657 -3.039,-3.083c-0.268,-0.638 -0.392,-1.34 -0.692,-1.962c-0.299,-0.618 -0.717,-1.18 -1.115,-1.746c-0.317,-0.453 -0.616,-0.887 -0.666,-1.472c-0.087,-1.013 0.429,-1.434 1.243,-1.643c0.655,-0.168 1.123,-0.062 1.977,0.366c0.06,-0.04 0.141,-0.066 0.177,-0.121c0.606,-0.954 0.609,-0.959 -0.265,-1.726c-1.015,-0.889 -2.095,-1.698 -2.772,-2.926c-1.32,-2.399 -2.355,-4.87 -2.3,-7.675c0.031,-1.521 0.371,-2.968 1.05,-4.33c0.185,-0.371 0.393,-0.723 -0.024,-1.076c-0.053,-0.045 -0.11,-0.129 -0.104,-0.186c0.113,-0.97 -0.524,-1.235 -1.273,-1.554c-0.5,-0.214 -0.953,-0.689 -1.268,-1.156c-0.545,-0.807 -0.388,-1.693 0.283,-2.401c0.175,-0.183 0.368,-0.349 0.666,-0.631" style="fill:#231f20;fill-rule:nonzero;"/><path d="M147.173,58.854c-0.109,-0.165 -0.163,-0.345 -0.262,-0.374c-0.15,-0.044 -0.427,-0.044 -0.481,0.043c-0.207,0.328 -0.364,0.691 -0.495,1.058c-0.028,0.077 0.11,0.273 0.215,0.321c0.105,0.049 0.332,0.032 0.388,-0.043c0.233,-0.311 0.42,-0.655 0.635,-1.005m1.375,2.869c0.131,-0.079 0.279,-0.115 0.301,-0.189c0.11,-0.367 0.207,-0.741 0.259,-1.118c0.012,-0.09 -0.158,-0.281 -0.258,-0.292c-0.152,-0.017 -0.363,0.038 -0.464,0.143c-0.301,0.318 -0.358,0.878 -0.148,1.203c0.07,0.107 0.206,0.171 0.31,0.253m17.099,13.991c0.013,0.087 0.027,0.172 0.039,0.259c0.311,-0.037 0.621,-0.085 0.933,-0.112c0.882,-0.076 1.312,0.392 1.116,1.261c-0.079,0.349 -0.293,0.666 -0.395,1.013c-0.039,0.131 0.061,0.304 0.097,0.457c0.157,-0.06 0.384,-0.07 0.457,-0.184c0.386,-0.589 0.637,-1.234 0.499,-1.96c-0.092,-0.484 -0.296,-0.956 -0.818,-1.059c-0.669,-0.135 -1.363,-0.175 -1.928,0.325m-20.038,-21.188c0.193,-0.046 0.348,-0.052 0.469,-0.119c0.919,-0.508 1.833,-1.026 2.744,-1.548c0.09,-0.051 0.187,-0.138 0.219,-0.231c0.043,-0.126 0.081,-0.306 0.022,-0.398c-0.059,-0.09 -0.246,-0.139 -0.372,-0.13c-0.134,0.01 -0.269,0.097 -0.393,0.167c-0.816,0.469 -1.633,0.939 -2.445,1.416c-0.154,0.091 -0.305,0.196 -0.43,0.323c-0.066,0.068 -0.131,0.226 -0.097,0.288c0.057,0.105 0.195,0.164 0.283,0.232m7.259,0.402c0.149,1.082 0.402,2.101 0.96,3.02c0.143,0.235 0.393,0.399 0.63,0.203c0.112,-0.091 0.125,-0.401 0.072,-0.577c-0.294,-0.971 -0.621,-1.932 -0.941,-2.895c-0.045,-0.137 -0.07,-0.332 -0.169,-0.388c-0.107,-0.059 -0.384,-0.039 -0.42,0.033c-0.094,0.183 -0.097,0.414 -0.132,0.604m-11.195,7.363c0,0.124 -0.024,0.345 0.004,0.561c0.182,1.449 1.502,2.327 2.858,1.91c0.405,-0.124 0.711,-0.458 0.585,-0.664c-0.185,-0.303 -0.446,-0.108 -0.68,-0.051c-0.07,0.017 -0.137,0.047 -0.209,0.059c-0.862,0.14 -1.403,-0.149 -1.728,-0.972c-0.37,-0.935 -0.164,-1.797 0.443,-2.562c0.474,-0.597 1.003,-0.654 1.621,-0.186c0.593,0.451 1.04,1.022 1.244,1.754c0.039,0.14 0.019,0.3 0.074,0.43c0.051,0.121 0.165,0.215 0.252,0.321c0.101,-0.132 0.25,-0.249 0.294,-0.397c0.05,-0.166 0.036,-0.368 -0.007,-0.54c-0.271,-1.085 -0.886,-1.914 -1.901,-2.404c-0.769,-0.37 -1.394,-0.246 -1.987,0.37c-0.607,0.631 -0.949,1.377 -0.863,2.371m7.896,13.605c0.032,-0.158 0.026,-0.205 0.046,-0.224c1.053,-0.981 0.983,-1.821 -0.218,-2.617c-1.093,-0.726 -2.4,-0.831 -3.956,-0.226c0.516,0.034 0.846,0.048 1.174,0.081c0.229,0.023 0.57,-0.119 0.602,0.269c0.024,0.282 0.012,0.598 -0.345,0.728c-0.49,0.179 -0.656,0.601 -0.896,1.029c-0.385,0.685 -0.904,1.303 -1.424,1.899c-0.21,0.24 -0.548,0.337 -0.841,-0.033c-0.652,-0.824 -1.418,-0.938 -2.436,-0.576c-0.691,0.247 -1.416,0.154 -2.154,-0.472c-1.852,-1.572 -3.034,-3.507 -3.896,-5.729c-0.931,-2.401 -1.134,-4.807 -0.399,-7.286c0.327,-1.106 0.852,-2.114 1.614,-2.965c2.219,-2.481 4.483,-4.918 7.144,-6.95c0.645,-0.494 1.253,-0.846 2.091,-0.518c0.623,0.244 1.228,0.095 1.777,-0.264c0.823,-0.536 1.762,-0.684 2.704,-0.827c0.864,-0.131 1.729,-0.271 2.596,-0.377c0.506,-0.061 1.02,-0.098 1.529,-0.084c0.66,0.019 0.911,0.272 0.974,0.934c0.035,0.362 0.012,0.73 0.018,1.096c0.028,1.633 0.848,2.8 2.451,3.212c1.016,0.26 2.085,0.371 3.136,0.421c1.46,0.071 2.926,0.009 4.389,0.027c0.812,0.011 1.101,0.28 1.32,1.036c0.139,0.48 0.032,0.88 -0.323,1.192c-0.355,0.314 -0.775,0.553 -1.128,0.868c-0.487,0.433 -1.027,0.848 -1.387,1.379c-0.802,1.184 -0.453,2.396 0.831,3.008c0.544,0.26 1.155,0.381 1.738,0.567c-0.235,0.558 -0.741,0.727 -1.269,0.912c-0.823,0.288 -1.692,0.527 -2.421,0.981c-2.161,1.344 -2.167,3.321 0.002,4.665c0.774,0.48 1.231,0.926 1.032,1.882c-0.129,0.62 0.263,1.023 0.757,1.339c0.293,0.189 0.541,0.194 0.765,-0.093c1.312,-1.688 2.556,-1.171 3.734,0.092c0.532,0.568 0.772,1.23 0.851,1.97c0.043,0.399 0.037,0.803 0.037,1.205c-0.001,0.498 0.12,1.05 -0.519,1.292c-0.472,1.275 -1.641,1.254 -2.692,1.439c-0.471,0.083 -0.817,-0.114 -1.136,-0.488c-0.943,-1.109 -2.309,-1.236 -3.488,-0.367c-0.204,0.152 -0.432,0.304 -0.571,0.508c-0.62,0.919 -1.578,1.117 -2.565,1.218c-1.345,0.137 -2.693,0.233 -4.043,0.319c-0.183,0.012 -0.485,-0.078 -0.545,-0.208c-0.375,-0.8 -1.098,-0.959 -1.833,-0.958c-0.742,0.001 -1.079,-0.364 -1.208,-1.003c-0.255,-1.274 -0.708,-2.449 -1.619,-3.303" style="fill:#fedcc4;fill-rule:nonzero;"/><path d="M154.459,58.151c-0.237,0.196 -0.488,0.032 -0.631,-0.203c-0.558,-0.919 -0.81,-1.938 -0.961,-3.02c0.035,-0.19 0.038,-0.421 0.133,-0.604c0.036,-0.072 0.312,-0.093 0.421,-0.032c0.098,0.054 0.123,0.25 0.169,0.386c0.319,0.964 0.646,1.925 0.94,2.896c0.054,0.177 0.04,0.485 -0.071,0.577m-5.418,-5.523c-0.032,0.092 -0.129,0.179 -0.218,0.231c-0.912,0.521 -1.825,1.04 -2.744,1.548c-0.121,0.066 -0.277,0.072 -0.47,0.119c-0.088,-0.068 -0.226,-0.128 -0.282,-0.232c-0.034,-0.063 0.029,-0.22 0.097,-0.288c0.124,-0.127 0.275,-0.232 0.429,-0.323c0.813,-0.476 1.628,-0.947 2.446,-1.416c0.124,-0.071 0.258,-0.158 0.392,-0.167c0.126,-0.009 0.314,0.04 0.371,0.13c0.06,0.091 0.023,0.272 -0.021,0.398m20.747,24.82c0.001,-0.403 0.006,-0.807 -0.036,-1.207c-0.08,-0.739 -0.32,-1.401 -0.851,-1.969c-1.179,-1.263 -2.422,-1.78 -3.736,-0.092c-0.222,0.287 -0.471,0.282 -0.764,0.094c-0.494,-0.317 -0.886,-0.721 -0.757,-1.34c0.199,-0.956 -0.258,-1.402 -1.032,-1.882c-2.169,-1.344 -2.163,-3.321 -0.002,-4.664c0.729,-0.454 1.598,-0.694 2.422,-0.982c0.527,-0.185 1.033,-0.355 1.268,-0.912c-0.584,-0.186 -1.194,-0.307 -1.738,-0.566c-1.283,-0.613 -1.633,-1.825 -0.83,-3.009c0.359,-0.531 0.899,-0.946 1.386,-1.379c0.353,-0.315 0.773,-0.555 1.129,-0.867c0.355,-0.313 0.46,-0.712 0.322,-1.193c-0.218,-0.756 -0.507,-1.025 -1.321,-1.036c-1.463,-0.019 -2.927,0.044 -4.387,-0.026c-1.051,-0.051 -2.121,-0.162 -3.136,-0.422c-1.604,-0.411 -2.424,-1.579 -2.452,-3.212c-0.005,-0.366 0.017,-0.734 -0.018,-1.096c-0.064,-0.662 -0.315,-0.916 -0.975,-0.934c-0.508,-0.013 -1.021,0.023 -1.527,0.084c-0.868,0.106 -1.733,0.246 -2.598,0.376c-0.941,0.144 -1.88,0.291 -2.703,0.828c-0.548,0.358 -1.153,0.508 -1.778,0.264c-0.837,-0.328 -1.445,0.024 -2.09,0.518c-2.113,1.613 -3.973,3.485 -5.761,5.429c0.813,-0.649 1.717,-1.201 2.687,-1.677c1.445,-0.71 3.247,-1.729 4.891,-1.169c1.254,0.428 2.038,1.618 3.14,2.287c1.534,0.931 3.289,1.099 5.046,1.036c2.725,-0.099 5.321,-0.518 8.013,0.136c0.283,0.069 0.478,0.464 0.292,0.718c-0.507,0.688 -2.849,2.581 -1.262,3.495c0.216,0.123 0.325,0.452 0.176,0.667c-1.048,1.509 -2.249,3.118 -2.52,4.981c-0.231,1.601 0.08,3.082 1.752,3.66c0.58,0.2 1.369,0.148 1.975,0.219c0.257,0.03 0.497,0.203 0.488,0.488c-0.016,0.573 -0.241,1.509 -0.046,2.047c0.847,2.326 1.563,0.662 2.585,0.595c0.241,-0.017 0.439,0.014 0.621,0.067l-0.013,-0.09c0.563,-0.499 1.259,-0.459 1.928,-0.325c0.52,0.104 0.725,0.575 0.817,1.06c0.139,0.726 -0.112,1.371 -0.498,1.961c-0.073,0.112 -0.301,0.124 -0.457,0.183c-0.037,-0.154 -0.138,-0.326 -0.099,-0.457c0.104,-0.348 0.318,-0.664 0.396,-1.013c0.196,-0.869 -0.235,-1.337 -1.115,-1.26c-0.212,0.017 -0.422,0.047 -0.633,0.076c0.238,0.152 0.427,0.387 0.592,0.714c0.733,1.462 0.085,2.508 -0.94,3.236c0.267,0.238 0.562,0.357 0.938,0.29c1.05,-0.184 2.22,-0.164 2.691,-1.439c0.641,-0.242 0.519,-0.794 0.52,-1.291" style="fill:#fdcda6;fill-rule:nonzero;"/><path d="M152.402,78.159c-0.61,-0.338 -0.931,-0.649 -1.088,-1.379c-0.176,-0.821 0.428,-1.776 -0.478,-2.45c-0.129,-0.097 -0.313,-0.143 -0.517,-0.169c0.103,0.472 -0.122,0.97 -0.703,1.511c-0.021,0.019 -0.015,0.066 -0.047,0.224c0.911,0.855 1.364,2.03 1.619,3.303c0.129,0.64 0.466,1.005 1.208,1.004c0.736,-0.001 1.458,0.156 1.833,0.957c0.061,0.13 0.363,0.221 0.545,0.208c1.35,-0.087 2.698,-0.182 4.043,-0.319c0.274,-0.028 0.543,-0.066 0.805,-0.121c-1.792,-2.347 -4.779,-1.417 -7.22,-2.769" style="fill:#fdcda6;fill-rule:nonzero;"/><path d="M163.109,49.303c0.345,-0.828 0.346,-1.607 0.083,-2.398c-0.533,-1.612 -1.33,-3.084 -2.306,-4.465c-0.19,-0.269 -0.374,-0.545 -0.593,-0.789c-0.277,-0.308 -0.23,-0.57 0.015,-0.869c0.6,-0.729 1.344,-1.24 2.248,-1.495c1.25,-0.352 2.522,-0.438 3.798,-0.173c0.824,0.173 1.472,0.628 1.912,1.359c0.973,1.614 1.603,3.356 1.93,5.212c0.063,0.359 0.147,0.715 0.223,1.072c0.192,0.907 0.794,1.381 1.675,1.491c0.541,0.068 1.096,0.016 1.641,0.067c0.652,0.06 1.317,0.108 1.944,0.278c1.179,0.321 2.079,1.036 2.663,2.133c0.485,0.911 0.84,1.864 1.007,2.885c0.149,0.909 0.002,1.771 -0.574,2.491c-0.524,0.653 -1.122,1.247 -1.708,1.848c-0.408,0.418 -0.862,0.791 -1.273,1.207c-0.229,0.231 -0.521,0.48 -0.6,0.771c-0.285,1.049 -1.195,1.627 -1.757,2.462c-0.342,0.508 -0.445,0.504 -1.001,0.212c-0.453,-0.237 -0.878,-0.525 -1.327,-0.772c-0.931,-0.511 -1.649,-0.374 -2.33,0.434c-0.116,0.141 -0.222,0.292 -0.316,0.448c-0.226,0.375 -0.398,0.831 -0.986,0.552c-0.509,0.378 -1.076,0.382 -1.663,0.261c-0.107,-0.022 -0.222,-0.022 -0.324,-0.056c-1.214,-0.409 -2.065,-1.152 -0.745,-2.574c0.49,-0.528 1.134,-0.915 1.715,-1.358c0.514,-0.391 0.882,-0.838 0.899,-1.541c0.037,-1.514 -0.702,-2.334 -2.221,-2.359c-1.756,-0.028 -3.512,-0.017 -5.267,-0.057c-0.544,-0.013 -1.095,-0.092 -1.624,-0.22c-1.463,-0.353 -2.152,-1.195 -2.266,-2.707c-0.028,-0.365 -0.013,-0.732 -0.039,-1.097c-0.076,-1.048 -0.477,-1.479 -1.501,-1.473c-0.835,0.005 -1.671,0.107 -2.504,0.19c-0.727,0.073 -1.449,0.187 -2.173,0.271c-0.88,0.1 -1.731,0.293 -2.492,0.771c-0.674,0.421 -1.295,0.345 -2.064,0.101c-0.961,-0.302 -1.679,-0.822 -2.33,-1.523c-0.092,-0.099 -0.232,-0.152 -0.48,-0.307c0.129,1.003 0.833,1.449 1.431,2.108c-3.223,2.184 -5.685,5.12 -8.435,7.932c-0.096,-0.364 -0.169,-0.597 -0.217,-0.834c-0.171,-0.845 -0.164,-0.875 -1.009,-0.99c-0.552,-0.075 -0.952,-0.359 -1.302,-0.741c-0.621,-0.679 -0.593,-1.303 0.115,-1.888c0.478,-0.395 1.023,-0.709 1.504,-1.1c0.243,-0.2 0.486,-0.463 0.594,-0.748c0.185,-0.496 -0.22,-0.893 -0.72,-0.737c-0.312,0.098 -0.592,0.286 -0.896,0.412c-1.214,0.502 -2.332,-0.12 -2.53,-1.418c-0.043,-0.286 -0.033,-0.587 -0.007,-0.876c0.092,-0.978 0.21,-1.048 1.172,-1.24c1.468,-0.294 2.932,-0.615 4.38,-0.988c0.559,-0.143 1.101,-0.407 1.6,-0.703c0.772,-0.459 0.954,-1.044 0.584,-1.873c-0.283,-0.631 -0.62,-1.249 -1.005,-1.823c-0.756,-1.125 -0.641,-2.202 0.083,-3.267c0.96,-1.414 2.14,-2.593 3.688,-3.363c1.174,-0.583 2.359,-0.581 3.431,0.182c0.769,0.547 1.446,1.227 2.143,1.869c0.511,0.47 0.961,1.01 1.492,1.453c0.357,0.298 0.786,0.542 1.224,0.701c0.545,0.199 0.896,0.042 1.165,-0.501c0.688,-1.391 1.885,-1.838 3.324,-1.914c2.029,-0.106 3.609,0.802 4.944,2.202c1.611,1.692 2.78,3.672 3.561,5.867c0.226,0.632 0.27,1.328 0.397,1.995" style="fill:#b77e4e;fill-rule:nonzero;"/><path d="M167.551,62.974c1.212,-1.439 2.827,-3.602 2.663,-5.629c-0.181,-2.216 -2.424,-2.961 -4.258,-3.33c-2.151,-0.432 -4.434,-0.044 -6.541,-0.758c-1.623,-0.551 -2.103,-1.358 -2.421,-2.945c-0.235,-1.173 -0.211,-2.067 -1.459,-2.543c-0.636,-0.242 -1.462,-0.241 -2.131,-0.275c-0.929,-0.046 -1.864,-0.008 -2.792,0.019c-2.624,0.078 -9.219,0.341 -8.801,-3.967c0.221,-2.28 2.565,-3.998 4.864,-4.35c-0.586,-0.548 -1.168,-1.105 -1.816,-1.566c-1.073,-0.762 -2.257,-0.764 -3.432,-0.181c-1.547,0.769 -2.727,1.949 -3.688,3.363c-0.723,1.065 -0.839,2.142 -0.083,3.267c0.385,0.574 0.722,1.191 1.005,1.823c0.37,0.828 0.189,1.413 -0.584,1.872c-0.498,0.296 -1.041,0.561 -1.598,0.703c-1.45,0.373 -2.914,0.695 -4.381,0.989c-0.962,0.192 -1.081,0.261 -1.171,1.24c-0.028,0.289 -0.037,0.59 0.006,0.876c0.199,1.298 1.316,1.92 2.53,1.418c0.304,-0.126 0.584,-0.314 0.895,-0.412c0.5,-0.156 0.906,0.241 0.721,0.736c-0.107,0.285 -0.351,0.549 -0.595,0.748c-0.48,0.392 -1.025,0.705 -1.503,1.101c-0.709,0.585 -0.736,1.209 -0.116,1.888c0.351,0.382 0.75,0.666 1.302,0.741c0.847,0.114 0.839,0.144 1.01,0.989c0.048,0.238 0.121,0.471 0.217,0.834c2.75,-2.811 5.213,-5.747 8.434,-7.932c-0.596,-0.658 -1.301,-1.104 -1.429,-2.107c0.247,0.155 0.387,0.208 0.478,0.306c0.652,0.702 1.369,1.22 2.33,1.524c0.769,0.243 1.39,0.319 2.064,-0.102c0.763,-0.477 1.612,-0.671 2.492,-0.771c0.725,-0.083 1.447,-0.197 2.173,-0.271c0.833,-0.083 1.669,-0.184 2.504,-0.189c1.025,-0.006 1.425,0.425 1.501,1.473c0.027,0.365 0.012,0.732 0.039,1.096c0.116,1.512 0.804,2.355 2.267,2.707c0.528,0.128 1.08,0.207 1.623,0.22c1.755,0.04 3.512,0.029 5.268,0.058c1.518,0.024 2.258,0.845 2.221,2.358c-0.017,0.703 -0.384,1.151 -0.9,1.541c-0.58,0.444 -1.224,0.83 -1.715,1.359c-1.319,1.422 -0.469,2.165 0.745,2.573c0.103,0.034 0.217,0.034 0.325,0.056c0.572,0.119 1.125,0.112 1.624,-0.239c0.002,-0.105 0.03,-0.211 0.113,-0.311" style="fill:#ca8a57;fill-rule:nonzero;"/><path d="M149.735,87.303c2.197,-0.277 4.257,-0.629 4.976,-3.175c0.802,1.076 1.534,2.074 2.285,3.059c0.42,0.551 0.863,1.085 1.314,1.611c0.153,0.177 0.356,0.487 0.6,0.194c0.087,-0.107 -0.043,-0.468 -0.164,-0.654c-0.219,-0.335 -0.491,-0.638 -0.767,-0.93c-0.374,-0.397 -0.396,-0.793 -0.18,-1.296c0.997,-2.323 2.472,-4.298 4.286,-6.036c0.409,-0.392 0.895,-0.611 1.477,-0.623c0.948,-0.019 1.286,0.315 1.423,1.264c0.322,2.233 0.174,4.425 -0.342,6.622c-0.429,1.821 -0.46,3.697 -0.344,5.559c0.06,0.941 0.289,1.873 0.437,2.81c0.079,0.503 0.161,1.005 0.214,1.509c0.126,1.199 -0.49,2.02 -1.41,2.662c-1.224,0.852 -2.569,1.297 -4.072,1.443c-2.538,0.248 -5.033,0.084 -7.504,-0.483c-1.794,-0.412 -3.259,-1.44 -4.615,-2.628c-0.538,-0.472 -0.549,-0.575 -0.2,-1.236c0.699,-1.322 1.427,-2.632 2.17,-3.931c0.526,-0.919 1.105,-1.807 1.646,-2.717c0.195,-0.329 0.412,-0.381 0.706,-0.149c0.514,0.408 1.038,0.806 1.541,1.227c0.754,0.633 1.468,1.314 2.244,1.919c1.104,0.863 2.414,1.055 3.742,0.813c0.531,-0.096 1.04,-0.503 1.479,-0.866c0.326,-0.269 0.583,-0.666 0.764,-1.057c1.063,-2.292 1.868,-4.673 2.271,-7.174c0.022,-0.137 -0.11,-0.299 -0.171,-0.449c-0.126,0.101 -0.331,0.18 -0.366,0.306c-0.303,1.086 -0.527,2.196 -0.867,3.269c-0.386,1.215 -0.807,2.426 -1.32,3.592c-1.005,2.287 -3.049,2.232 -4.877,1.269c-0.574,-0.302 -1.075,-0.757 -1.577,-1.181c-1.14,-0.963 -2.26,-1.949 -3.385,-2.931c-0.52,-0.453 -0.987,-0.952 -1.414,-1.612" style="fill:#b0d57b;fill-rule:nonzero;"/><path d="M164.736,95.708c-0.147,-0.937 -0.378,-1.868 -0.437,-2.811c-0.116,-1.861 -0.085,-3.737 0.343,-5.557c0.518,-2.198 0.665,-4.389 0.342,-6.624c-0.137,-0.948 -0.474,-1.282 -1.422,-1.263c-0.582,0.011 -1.067,0.231 -1.477,0.623c-1.814,1.737 -3.29,3.714 -4.286,6.036c-0.217,0.502 -0.194,0.899 0.181,1.297c0.274,0.292 0.548,0.594 0.766,0.929c0.121,0.186 0.252,0.547 0.164,0.653c-0.244,0.294 -0.448,-0.017 -0.599,-0.192c-0.452,-0.527 -0.896,-1.061 -1.316,-1.613c-0.751,-0.983 -1.482,-1.982 -2.285,-3.057c-0.718,2.545 -2.777,2.896 -4.975,3.174c0.324,0.5 0.671,0.909 1.047,1.275c0.906,-0.86 2.19,-1.057 3.464,-0.776c1.92,0.424 4.737,4.518 5.76,1.219c0.456,-1.472 0.336,-3.331 1.399,-4.554c0.917,-1.054 1.954,-1.016 2.569,0.237c0.163,0.334 -0.068,0.638 -0.34,0.718c-0.421,2.361 -1.184,4.617 -2.193,6.793c-0.181,0.389 -0.439,0.787 -0.764,1.056c-0.438,0.364 -0.947,0.77 -1.478,0.867c-1.328,0.242 -2.638,0.048 -3.743,-0.814c-0.775,-0.605 -1.49,-1.287 -2.244,-1.919c-0.267,-0.224 -0.545,-0.437 -0.819,-0.652c-0.194,2.517 0.707,8.149 4.01,6.606c1.112,-0.52 1.951,-2.314 3.403,-1.956c2.255,0.555 1.437,3.658 0.663,5.767c1.107,-0.224 2.126,-0.634 3.071,-1.291c0.921,-0.643 1.537,-1.464 1.411,-2.661c-0.054,-0.506 -0.136,-1.007 -0.215,-1.51" style="fill:#8faf66;fill-rule:nonzero;"/><path d="M164.397,100.175c-0.207,1.614 -0.341,3.069 -0.592,4.503c-0.258,1.472 -0.629,2.923 -0.956,4.382c-0.097,0.427 -0.192,0.857 -0.323,1.274c-0.38,1.216 -0.182,2.291 0.417,3.448c1.158,2.241 1.963,4.636 2.465,7.12c0.155,0.771 0.135,0.775 -0.463,1.123c-1.943,1.134 -4.034,1.65 -6.281,1.632c-0.613,-0.005 -1.229,0.14 -1.842,0.226c-0.337,0.047 -0.619,-0.027 -0.632,-0.404c-0.034,-0.937 -0.559,-1.714 -0.808,-2.581c-0.69,-2.388 -1.628,-4.686 -2.676,-6.945c-0.298,-0.643 -0.369,-1.403 -0.476,-2.119c-0.081,-0.538 -0.051,-1.094 -0.074,-1.641c-0.048,-1.239 -0.093,-2.479 -0.151,-3.718c-0.015,-0.316 -0.016,-0.591 0.406,-0.618c0.448,-0.028 0.47,-0.363 0.511,-0.704c0.103,-0.869 0.204,-1.741 0.351,-2.602c0.118,-0.692 0.153,-0.697 0.862,-0.609c1.967,0.242 3.928,0.24 5.9,-0.002c1.189,-0.147 2.276,-0.479 3.268,-1.147c0.325,-0.22 0.685,-0.389 1.094,-0.618" style="fill:#73b0e0;fill-rule:nonzero;"/><path d="M170.705,78.502c-0.116,-1.078 -0.197,-1.874 -0.289,-2.666c-0.173,-1.492 -1.099,-2.448 -2.345,-3.105c-0.981,-0.517 -1.911,-0.211 -2.761,0.422c-0.242,0.181 -0.404,0.604 -0.811,0.381c-0.36,-0.194 -0.25,-0.568 -0.248,-0.889c0.002,-0.145 0.004,-0.294 0.019,-0.438c0.066,-0.58 -0.18,-0.953 -0.687,-1.244c-0.502,-0.288 -1.009,-0.612 -1.409,-1.023c-0.836,-0.858 -0.788,-1.753 0.047,-2.602c0.606,-0.616 1.359,-0.965 2.161,-1.251c0.926,-0.332 1.825,-0.736 2.745,-1.08c0.296,-0.111 0.51,-0.245 0.617,-0.557c0.041,-0.12 0.158,-0.273 0.269,-0.299c0.497,-0.122 0.655,-0.548 0.888,-0.912c0.118,-0.184 0.241,-0.368 0.383,-0.534c0.51,-0.595 0.853,-0.662 1.524,-0.286c0.478,0.268 0.933,0.582 1.423,0.823c0.862,0.422 1.177,0.326 1.773,-0.444c0.245,-0.317 0.489,-0.636 0.745,-0.947c0.235,-0.285 0.48,-0.261 0.749,-0.02c2.126,1.912 4.213,3.854 5.553,6.444c0.423,0.818 0.765,1.643 0.807,2.59c0.036,0.807 -0.313,1.319 -0.982,1.679c-0.953,0.512 -1.991,0.703 -3.051,0.807c-0.181,0.018 -0.367,-0.009 -0.548,0.009c-0.355,0.038 -0.786,-0.013 -1.043,0.17c-0.377,0.27 0.081,0.667 0.048,1c-0.042,0.419 -0.106,0.887 -0.326,1.229c-0.834,1.303 -2.182,1.799 -3.701,1.394c-0.438,-0.117 -0.694,-0.014 -0.904,0.359c-0.157,0.276 -0.345,0.533 -0.646,0.99" style="fill:#b77e4e;fill-rule:nonzero;"/><path d="M167.67,71.946c-0.435,-0.714 -1.136,-1.105 -1.657,-1.72c-0.469,-0.55 -0.762,-1.045 -0.587,-1.812c0.158,-0.697 0.761,-1.133 1.295,-1.544c1.662,-1.282 3.131,-2.185 4.013,-4.25c0.031,-0.075 0.075,-0.13 0.124,-0.171c-0.017,-0.009 -0.034,-0.02 -0.05,-0.029c-0.671,-0.376 -1.014,-0.309 -1.524,0.285c-0.141,0.166 -0.264,0.35 -0.383,0.535c-0.233,0.364 -0.391,0.79 -0.888,0.912c-0.111,0.026 -0.228,0.178 -0.269,0.299c-0.105,0.312 -0.321,0.446 -0.617,0.557c-0.921,0.344 -1.818,0.748 -2.744,1.079c-0.803,0.287 -1.556,0.636 -2.161,1.251c-0.836,0.85 -0.883,1.744 -0.047,2.603c0.399,0.411 0.906,0.734 1.408,1.023c0.508,0.291 0.753,0.664 0.687,1.244c-0.016,0.144 -0.018,0.292 -0.019,0.438c-0.002,0.321 -0.111,0.695 0.247,0.889c0.407,0.222 0.569,-0.2 0.812,-0.381c0.843,-0.627 1.765,-0.933 2.738,-0.433c-0.109,-0.269 -0.23,-0.532 -0.378,-0.775" style="fill:#ca8a57;fill-rule:nonzero;"/><path d="M147.213,99.166c0.897,0.567 1.748,1.12 2.615,1.648c0.326,0.198 0.429,0.448 0.413,0.814c-0.038,0.913 -0.037,1.828 -0.069,2.74c-0.02,0.569 0.094,1.005 0.763,1.11c0.471,0.074 0.63,0.384 0.615,0.868c-0.033,1.169 -0.047,2.34 -0.009,3.508c0.037,1.131 0.124,2.261 0.244,3.384c0.042,0.388 0.224,0.768 0.388,1.131c1.242,2.731 2.275,5.539 3.086,8.427c0.06,0.211 0.126,0.421 0.17,0.636c0.055,0.267 -0.074,0.43 -0.343,0.427c-0.548,-0.006 -1.112,0.046 -1.638,-0.068c-1.831,-0.401 -3.691,-0.455 -5.546,-0.611c-1.451,-0.123 -2.891,-0.38 -4.334,-0.596c-0.284,-0.042 -0.561,-0.155 -0.834,-0.255c-0.272,-0.101 -0.369,-0.281 -0.328,-0.598c0.429,-3.271 1.212,-6.447 2.611,-9.445c0.426,-0.914 0.657,-1.866 0.767,-2.841c0.203,-1.812 0.289,-3.637 0.507,-5.448c0.179,-1.482 0.475,-2.951 0.729,-4.424c0.023,-0.135 0.119,-0.256 0.193,-0.407" style="fill:#73b0e0;fill-rule:nonzero;"/><path d="M145.806,76.343c0.079,1.048 0.082,2.109 0.26,3.142c0.152,0.886 0.486,1.747 0.784,2.602c0.047,0.132 0.337,0.178 0.514,0.264c0.037,-0.188 0.168,-0.429 0.096,-0.561c-1.095,-2.053 -0.752,-4.278 -0.792,-6.455c-0.003,-0.178 0.009,-0.398 0.109,-0.522c0.118,-0.149 0.346,-0.31 0.514,-0.296c0.543,0.041 0.954,0.772 0.784,1.311c-0.676,2.138 -0.223,4.104 0.925,5.954c0.076,0.12 0.292,0.152 0.444,0.224c0.078,-0.181 0.254,-0.387 0.215,-0.538c-0.082,-0.309 -0.276,-0.592 -0.427,-0.884c-0.566,-1.094 -0.857,-2.251 -0.744,-3.487c0.027,-0.315 0.115,-0.624 0.199,-1.055c0.828,0.503 1.232,1.17 1.516,1.911c0.194,0.511 0.31,1.051 0.46,1.579c0.236,0.841 0.672,1.253 1.533,1.259c1.299,0.01 1.752,0.532 1.753,1.827c0,0.428 -0.115,0.862 -0.205,1.287c-0.037,0.174 -0.251,0.366 -0.209,0.491c0.279,0.829 -0.362,1.129 -0.855,1.43c-0.846,0.515 -1.716,0.862 -2.774,0.4c-0.825,-0.359 -1.747,-0.491 -2.626,-0.728c-2.29,-0.62 -3.232,-2.353 -3.628,-4.487c-0.112,-0.6 -0.051,-1.239 -0.019,-1.858c0.028,-0.53 0.271,-0.968 0.789,-1.317c0.112,0.96 0.202,1.852 0.326,2.739c0.071,0.505 0.183,1.005 0.311,1.499c0.026,0.1 0.208,0.159 0.318,0.236c0.075,-0.106 0.227,-0.224 0.214,-0.319c-0.082,-0.615 -0.243,-1.219 -0.296,-1.834c-0.076,-0.871 -0.126,-1.748 -0.097,-2.62c0.013,-0.409 0.237,-0.811 0.365,-1.217c0.081,0.007 0.162,0.015 0.243,0.023" style="fill:#fedcc4;fill-rule:nonzero;"/><path d="M142.886,78.46c0,0.91 -0.119,1.758 0.024,2.559c0.286,1.592 0.753,3.135 2.122,4.203c0.267,0.209 0.209,0.502 -0.026,0.647c-0.614,0.38 -1.229,0.882 -1.905,1.008c-1.156,0.216 -2.308,0.061 -3.236,-0.861c-0.769,-0.765 -1.38,-1.587 -1.613,-2.674c-0.234,-1.09 -0.841,-2.014 -1.438,-2.935c-0.139,-0.215 -0.319,-0.404 -0.443,-0.625c-0.316,-0.563 -0.262,-1.117 0.111,-1.393c0.5,-0.371 1.272,-0.308 1.699,0.136c0.291,0.304 0.45,0.656 0.449,1.084c-0.003,0.584 0.002,1.17 0.023,1.755c0.01,0.25 0.053,0.504 0.116,0.747c0.016,0.067 0.158,0.118 0.25,0.136c0.04,0.008 0.134,-0.081 0.143,-0.136c0.036,-0.214 0.057,-0.433 0.066,-0.651c0.039,-0.871 0.066,-1.744 0.108,-2.616c0.037,-0.781 0.375,-1.38 1.161,-1.807c0.09,0.734 -0.491,1.182 -0.553,1.765c-0.069,0.645 -0.073,1.301 -0.061,1.951c0.012,0.605 0.031,1.223 0.485,1.835c0.283,-0.534 0.14,-0.989 0.05,-1.428c-0.314,-1.52 0.266,-2.802 1.082,-4.006c0.371,-0.547 0.815,-0.611 1.307,-0.219c0.215,0.17 0.342,0.451 0.509,0.682c-0.207,0.114 -0.407,0.244 -0.621,0.339c-0.797,0.353 -1.109,1.064 -1.222,1.828c-0.232,1.55 0.062,3.052 0.607,4.51c0.037,0.1 0.088,0.21 0.166,0.275c0.075,0.059 0.208,0.108 0.288,0.082c0.08,-0.027 0.191,-0.165 0.178,-0.234c-0.086,-0.464 -0.15,-0.941 -0.316,-1.379c-0.365,-0.951 -0.347,-1.932 -0.319,-2.92c0.02,-0.64 0.26,-1.183 0.809,-1.658" style="fill:#fedcc4;fill-rule:nonzero;"/><path d="M142.348,87.703c1.373,-0.148 2.503,-0.585 3.362,-1.559c0.205,-0.231 0.406,-0.244 0.677,-0.145c0.651,0.233 1.315,0.43 1.961,0.674c0.186,0.071 0.361,0.228 0.489,0.387c0.526,0.65 1.021,1.323 1.55,1.97c0.213,0.26 0.31,0.456 0.028,0.739c-0.537,0.534 -0.988,1.17 -1.579,1.63c-0.907,0.705 -1.978,0.667 -2.857,0.017c-1.37,-1.013 -2.578,-2.225 -3.631,-3.713" style="fill:#b0d57b;fill-rule:nonzero;"/><path d="M159.584,81.65c-0.828,1.458 -1.642,2.892 -2.487,4.382c-0.158,-0.154 -0.371,-0.327 -0.538,-0.536c-0.587,-0.738 -1.169,-1.483 -1.733,-2.239c-0.123,-0.164 -0.209,-0.38 -0.239,-0.584c-0.092,-0.627 0.032,-0.751 0.671,-0.785c1.441,-0.077 2.883,-0.158 4.326,-0.238" style="fill:#b0d57b;fill-rule:nonzero;"/><path d="M151.344,101.433c0.123,0.02 0.198,0.021 0.267,0.043c1.11,0.331 1.197,0.125 0.886,1.325c-0.154,0.594 -0.193,1.218 -0.271,1.83c-0.043,0.339 -0.239,0.405 -0.534,0.355c-0.672,-0.117 -0.845,-0.301 -0.857,-1.01c-0.012,-0.69 0.012,-1.381 0.018,-2.072c0.003,-0.365 0.164,-0.539 0.491,-0.471" style="fill:#73b0e0;fill-rule:nonzero;"/><path d="M148.777,75.207c-0.272,-0.332 -0.523,-0.594 -0.719,-0.894c-0.131,-0.2 -0.232,-0.448 -0.254,-0.682c-0.039,-0.429 0.222,-0.618 0.607,-0.47c0.2,0.077 0.387,0.194 0.566,0.316c1.03,0.704 0.992,1.126 -0.2,1.73" style="fill:#fff;fill-rule:nonzero;"/><path d="M141.673,62.29c-0.086,-0.993 0.256,-1.738 0.864,-2.37c0.593,-0.616 1.217,-0.74 1.987,-0.37c1.014,0.489 1.63,1.319 1.9,2.403c0.043,0.172 0.057,0.374 0.008,0.54c-0.044,0.149 -0.192,0.266 -0.295,0.398c-0.087,-0.106 -0.201,-0.201 -0.252,-0.322c-0.055,-0.13 -0.035,-0.29 -0.074,-0.428c-0.203,-0.733 -0.651,-1.304 -1.243,-1.754c-0.618,-0.47 -1.148,-0.412 -1.621,0.184c-0.607,0.765 -0.813,1.627 -0.443,2.563c0.325,0.822 0.866,1.112 1.728,0.971c0.071,-0.01 0.138,-0.042 0.209,-0.058c0.234,-0.058 0.494,-0.253 0.679,0.052c0.126,0.206 -0.18,0.539 -0.584,0.663c-1.357,0.417 -2.676,-0.46 -2.859,-1.91c-0.027,-0.216 -0.004,-0.437 -0.004,-0.562" style="fill:#231f20;fill-rule:nonzero;"/><path d="M152.867,54.929c0.035,-0.19 0.038,-0.422 0.133,-0.605c0.036,-0.071 0.312,-0.092 0.421,-0.032c0.097,0.055 0.123,0.25 0.169,0.387c0.318,0.963 0.645,1.925 0.94,2.896c0.054,0.176 0.04,0.485 -0.071,0.577c-0.237,0.196 -0.488,0.032 -0.632,-0.203c-0.558,-0.92 -0.81,-1.939 -0.96,-3.02" style="fill:#231f20;fill-rule:nonzero;"/><path d="M145.609,54.526c-0.089,-0.067 -0.226,-0.128 -0.283,-0.231c-0.034,-0.064 0.03,-0.221 0.097,-0.289c0.124,-0.126 0.276,-0.233 0.43,-0.323c0.813,-0.477 1.628,-0.947 2.445,-1.416c0.124,-0.071 0.258,-0.158 0.392,-0.167c0.126,-0.009 0.314,0.04 0.372,0.129c0.06,0.092 0.022,0.274 -0.021,0.399c-0.032,0.092 -0.129,0.179 -0.219,0.231c-0.911,0.521 -1.825,1.039 -2.744,1.548c-0.121,0.066 -0.277,0.072 -0.469,0.119" style="fill:#231f20;fill-rule:nonzero;"/><path d="M165.647,75.714c0.564,-0.5 1.259,-0.46 1.928,-0.325c0.521,0.103 0.725,0.575 0.818,1.059c0.138,0.726 -0.113,1.371 -0.499,1.961c-0.073,0.113 -0.301,0.124 -0.457,0.183c-0.036,-0.153 -0.137,-0.326 -0.098,-0.457c0.103,-0.347 0.317,-0.663 0.396,-1.013c0.195,-0.868 -0.234,-1.337 -1.116,-1.261c-0.312,0.028 -0.622,0.076 -0.933,0.113c-0.013,-0.087 -0.026,-0.173 -0.039,-0.26" style="fill:#231f20;fill-rule:nonzero;"/><path d="M148.548,61.724c-0.105,-0.083 -0.24,-0.146 -0.31,-0.254c-0.211,-0.325 -0.154,-0.885 0.148,-1.202c0.1,-0.107 0.312,-0.16 0.464,-0.145c0.1,0.012 0.269,0.203 0.258,0.292c-0.052,0.378 -0.15,0.752 -0.259,1.12c-0.022,0.074 -0.17,0.11 -0.301,0.189" style="fill:#231f20;fill-rule:nonzero;"/><path d="M147.173,58.854c-0.215,0.35 -0.402,0.694 -0.635,1.005c-0.056,0.075 -0.283,0.092 -0.388,0.043c-0.105,-0.048 -0.243,-0.244 -0.215,-0.321c0.131,-0.367 0.288,-0.73 0.495,-1.058c0.054,-0.087 0.331,-0.087 0.481,-0.043c0.099,0.029 0.153,0.209 0.262,0.374" style="fill:#231f20;fill-rule:nonzero;"/></g></g></g></svg>