<svg clip-rule="evenodd" fill-rule="evenodd" viewBox="0 0 207 167" xmlns="http://www.w3.org/2000/svg"><path d="m0-25.817c-4.697 0-8.504 3.807-8.504 8.504v8.809c0 4.697 3.807 8.504 8.504 8.504h16.008c4.696 0 8.504-3.807 8.504-8.504v-8.809c0-4.697-3.808-8.504-8.504-8.504z" fill="#f0e0ee" fill-rule="nonzero" transform="matrix(5.55556 0 0 5.55556 58.69723436 154.92156056)"/><path d="m384.886 592.343v-4.345h1.826v4.345h1.353v-5.357h-3.19v-.22c0-.704.308-1.276 1.243-1.276.506 0 .935.143 1.177.286l.308-1.023c-.308-.198-.946-.341-1.485-.341-1.584 0-2.585.88-2.585 2.321v.253h-.726v1.012h.726v4.345z" fill="#bd56a0" transform="matrix(5.55556 0 0 5.55556 -2039.81 -3184.67)"/><path d="m0-25.817c-4.697 0-8.504 3.807-8.504 8.504v8.809c0 4.697 3.807 8.504 8.504 8.504h16.008c4.696 0 8.504-3.807 8.504-8.504v-8.809c0-4.697-3.808-8.504-8.504-8.504z" fill="none" stroke="#d7a5cb" transform="matrix(5.55556 0 0 5.55556 58.69723436 154.92156056)"/></svg>