<?xml version="1.0" encoding="UTF-8" standalone="no"?>
<!DOCTYPE svg PUBLIC "-//W3C//DTD SVG 1.1//EN" "http://www.w3.org/Graphics/SVG/1.1/DTD/svg11.dtd">
<svg width="100%" height="100%" viewBox="0 0 207 167" version="1.1" xmlns="http://www.w3.org/2000/svg" xmlns:xlink="http://www.w3.org/1999/xlink" xml:space="preserve" xmlns:serif="http://www.serif.com/" style="fill-rule:evenodd;clip-rule:evenodd;">
    <g transform="matrix(1,0,0,1,-5211.3,-12751.6)">
        <g transform="matrix(5.55556,0,0,5.55556,3631.89,9566.93)">
            <g transform="matrix(1,0,0,1,294.859,601.126)">
                <path d="M0,-25.817C-4.697,-25.817 -8.504,-22.01 -8.504,-17.313L-8.504,-8.504C-8.504,-3.807 -4.697,0 0,0L16.008,0C20.704,0 24.512,-3.807 24.512,-8.504L24.512,-17.313C24.512,-22.01 20.704,-25.817 16.008,-25.817L0,-25.817Z" style="fill:rgb(240,224,238);fill-rule:nonzero;"/>
            </g>
        </g>
        <g transform="matrix(5.55556,0,0,5.55556,3631.89,9566.93)">
            <text x="295.023px" y="592.343px" style="font-family:'MyriadPro-Semibold', 'Myriad Pro', sans-serif;font-weight:600;font-size:11px;fill:rgb(189,86,160);">gr<tspan x="305.099px " y="592.343px ">รก</tspan></text>
        </g>
        <g transform="matrix(5.55556,0,0,5.55556,3631.89,9566.93)">
            <g transform="matrix(1,0,0,1,294.859,601.126)">
                <path d="M0,-25.817C-4.697,-25.817 -8.504,-22.01 -8.504,-17.313L-8.504,-8.504C-8.504,-3.807 -4.697,0 0,0L16.008,0C20.704,0 24.512,-3.807 24.512,-8.504L24.512,-17.313C24.512,-22.01 20.704,-25.817 16.008,-25.817L0,-25.817Z" style="fill:none;fill-rule:nonzero;stroke:rgb(215,165,203);stroke-width:1px;"/>
            </g>
        </g>
    </g>
</svg>
