<?xml version="1.0" encoding="UTF-8" standalone="no"?>
<!DOCTYPE svg PUBLIC "-//W3C//DTD SVG 1.1//EN" "http://www.w3.org/Graphics/SVG/1.1/DTD/svg11.dtd">
<svg width="100%" height="100%" viewBox="0 0 1427 299" version="1.1" xmlns="http://www.w3.org/2000/svg" xmlns:xlink="http://www.w3.org/1999/xlink" xml:space="preserve" xmlns:serif="http://www.serif.com/" style="fill-rule:evenodd;clip-rule:evenodd;stroke-miterlimit:10;">
    <g transform="matrix(1,0,0,1,-5158.93,-13129.4)">
        <g transform="matrix(5.55556,0,0,5.55556,3631.89,9566.93)">
            <g transform="matrix(1,0,0,1,368.219,649.056)">
                <path d="M0,29.108C2.558,30.365 5.032,31.591 7.717,32.267C8.771,30.889 8.723,30.548 7.264,29.889C6.059,29.345 4.825,28.853 3.576,28.418C2.599,28.079 1.579,27.863 0.646,27.611C0.485,27.802 0.403,27.86 0.376,27.938C0.259,28.268 0.16,28.603 0,29.108M7.539,33.497C4.925,32.151 2.175,31.312 -0.651,30.291C-0.857,31.022 -1.015,31.584 -1.194,32.218C0.183,32.836 1.414,33.41 2.663,33.944C3.676,34.375 4.715,34.743 5.732,35.161C6.696,35.557 6.925,35.476 7.301,34.478C7.405,34.199 7.444,33.897 7.539,33.497M-38.651,29.829C-38.31,31.165 -38.147,31.297 -36.936,31.04C-35.041,30.637 -33.153,30.192 -31.27,29.728C-29.997,29.413 -28.74,29.036 -27.377,28.659C-27.58,28.035 -27.749,27.518 -27.937,26.94C-31.607,27.754 -35.146,28.588 -38.651,29.829M-8.635,34.198C-7.27,32.059 -5.934,29.967 -4.504,27.724C-5.619,27.18 -6.612,26.695 -7.629,26.198C-8.975,28.3 -10.253,30.265 -11.246,32.461C-10.601,32.92 -10.073,33.307 -9.532,33.676C-9.285,33.845 -9.015,33.979 -8.635,34.198M-13.233,-1.877C-13.602,-1.95 -13.813,-2.027 -14.025,-2.031C-17.166,-2.082 -20.308,-2.146 -23.449,-2.156C-24.942,-2.162 -25.131,-1.906 -25.03,-0.424C-25.02,-0.255 -24.963,-0.088 -24.895,0.235C-21.024,0.189 -17.157,0.144 -13.261,0.097C-13.25,-0.648 -13.243,-1.209 -13.233,-1.877M-12.586,28.212C-14.663,28.183 -16.633,28.171 -18.601,28.123C-20.562,28.074 -22.523,27.99 -24.632,27.916C-24.553,28.814 -24.49,29.535 -24.412,30.424C-20.419,30.477 -16.532,30.626 -12.616,30.297C-12.605,29.571 -12.597,28.941 -12.586,28.212M-27.157,29.6C-30.816,30.444 -34.377,31.219 -37.87,32.495C-37.63,33.263 -37.424,33.922 -37.2,34.634C-33.567,33.876 -30.037,33.139 -26.473,32.395C-26.341,31.393 -26.639,30.547 -27.157,29.6M-61.122,0.934C-64.996,0.979 -68.761,1.025 -72.552,1.071C-72.568,2.129 -72.58,3.024 -72.595,4.032C-68.63,4.019 -64.785,4.007 -60.862,3.995C-60.945,3.011 -61.023,2.101 -61.122,0.934M-35.137,4.339C-38.814,5.105 -42.261,6.119 -45.663,7.399C-45.366,8.41 -45.098,9.321 -44.806,10.312C-41.183,9.57 -37.731,8.699 -34.164,7.618C-34.502,6.479 -34.807,5.45 -35.137,4.339M-46.057,6.087C-42.4,5.306 -38.983,4.351 -35.463,3.288C-35.841,2.035 -36.179,0.91 -36.569,-0.382C-40.158,0.449 -43.576,1.529 -47.051,2.651C-46.709,3.832 -46.395,4.923 -46.057,6.087M-60.533,30.811C-60.515,29.494 -60.499,28.364 -60.481,27.06C-64.305,26.879 -68.056,26.84 -71.95,27.027C-71.891,28.321 -71.84,29.44 -71.785,30.652C-67.99,30.706 -64.309,30.757 -60.533,30.811M-71.756,31.998C-71.702,33.435 -71.657,34.634 -71.607,35.945C-67.831,35.896 -64.234,35.849 -60.616,35.8C-60.596,34.436 -60.579,33.19 -60.56,31.75C-64.294,31.878 -67.967,31.446 -71.756,31.998M-25.046,-3.16C-24.399,-3.068 -23.884,-2.938 -23.368,-2.932C-20.544,-2.903 -17.721,-2.89 -14.897,-2.906C-14.4,-2.908 -13.902,-3.08 -13.392,-3.175C-13.419,-4.531 -13.265,-5.746 -13.466,-6.919C-17.097,-6.969 -20.574,-7.01 -24.051,-7.075C-24.67,-7.087 -24.971,-6.802 -24.995,-6.233C-25.035,-5.268 -25.03,-4.3 -25.046,-3.16M-72.348,13.158C-72.271,14.587 -72.431,15.799 -72.173,16.96C-69.613,17.31 -61.586,17.227 -60.624,16.857C-60.676,15.614 -60.729,14.369 -60.784,13.075C-64.688,13.103 -68.422,13.13 -72.348,13.158M-24.316,35.689C-24.112,35.729 -23.983,35.777 -23.855,35.776C-20.24,35.748 -16.624,35.709 -13.009,35.686C-12.402,35.683 -12.26,35.347 -12.284,34.836C-12.339,33.701 -12.393,32.566 -12.456,31.246C-16.474,31.334 -20.449,31.306 -24.424,31.443C-24.747,32.99 -24.925,34.359 -24.316,35.689M72.794,30.994C72.397,30.989 71.966,30.972 71.535,30.978C68.223,31.024 64.911,31.084 61.6,31.119C56.925,31.169 52.25,31.201 47.576,31.243C47.269,31.246 46.946,31.231 46.658,31.315C46.275,31.426 46.103,31.697 46.271,32.051C49.944,32.107 53.534,31.659 57.131,31.997C57.006,32.085 56.881,32.136 56.754,32.143C54.018,32.284 51.282,32.407 48.548,32.567C47.934,32.603 47.251,32.575 46.749,33.266C47.058,33.339 47.264,33.424 47.475,33.433C49.547,33.532 51.62,33.681 53.693,33.696C59.745,33.74 65.799,33.731 71.852,33.731C72.219,33.731 72.585,33.618 72.909,33.566C72.87,32.681 72.837,31.947 72.794,30.994M-72.541,-6.31C-72.573,-4.079 -72.602,-1.979 -72.634,0.325C-68.724,0.017 -64.911,0.328 -61.03,-0.066C-61.057,-2.242 -60.896,-4.246 -61.052,-6.369C-64.947,-6.579 -68.686,-6.584 -72.541,-6.31M-60.94,12.182C-60.867,10.933 -60.748,9.786 -60.751,8.639C-60.755,7.427 -60.876,6.214 -60.941,5.085C-64.861,5.03 -68.64,4.976 -72.41,4.923C-72.709,7.234 -72.52,11.175 -72.031,12.245C-68.424,12.225 -64.769,12.204 -60.94,12.182M45.722,28.193C46.398,28.062 46.998,27.85 47.599,27.846C50.509,27.831 53.42,27.894 56.33,27.89C60.885,27.884 65.438,27.84 69.993,27.831C70.601,27.83 71.129,27.712 71.543,27.251C72.652,26.014 73.564,24.681 73.665,22.943C73.794,20.717 73.224,18.668 72.157,16.731C71.744,15.978 71.126,15.508 70.316,15.337C68.852,15.027 67.4,14.719 65.87,14.753C62.246,14.833 58.618,14.769 54.992,14.812C52.075,14.845 49.158,14.959 46.24,15.012C45.592,15.024 45.213,15.166 45.461,15.977C45.685,15.996 45.9,16.03 46.114,16.033C49.563,16.078 53.013,16.156 56.462,16.151C59.909,16.145 63.357,16.02 66.804,16.025C67.672,16.027 68.623,16.156 69.386,16.532C70.612,17.133 71.766,17.949 71.894,19.532C71.983,20.63 72.086,21.728 72.123,22.828C72.195,24.959 70.144,26.264 68.282,26.403C67.19,26.485 66.083,26.334 64.983,26.354C58.793,26.462 52.602,26.592 46.413,26.716C45.941,26.726 45.47,26.752 44.991,26.771C44.791,27.587 45.381,27.834 45.722,28.193M75.285,34.823C74.852,34.752 74.465,34.638 74.077,34.633C70.763,34.588 67.451,34.537 64.138,34.538C61.179,34.539 58.222,34.627 55.263,34.635C52.792,34.642 50.319,34.572 47.847,34.57C46.662,34.57 45.711,34.019 45.243,32.955C44.681,31.673 45.601,30.176 47.002,30.133C47.752,30.111 48.504,30.183 49.255,30.183C54.074,30.185 58.894,30.193 63.714,30.174C66.898,30.159 70.081,30.102 73.266,30.059C73.707,30.053 74.155,30.049 74.588,29.977C74.771,29.947 75.018,29.775 75.068,29.617C75.119,29.454 75.018,29.106 74.891,29.05C74.467,28.863 74.002,28.659 73.554,28.66C69.973,28.664 66.393,28.698 62.813,28.753C57.467,28.838 52.121,28.927 46.776,29.063C45.717,29.09 44.846,29.604 44.368,30.632C43.308,32.916 44.782,35.473 47.288,35.686C47.641,35.716 47.995,35.735 48.348,35.74C56.666,35.846 64.983,35.95 73.301,36.053C73.699,36.058 74.098,36.052 74.495,36.034C75.173,36.001 75.433,35.635 75.285,34.823M-71.965,25.816C-68.128,26.012 -64.408,26.205 -60.569,25.917C-60.548,23.241 -60.453,20.659 -60.595,18.009C-64.52,17.955 -68.302,17.944 -72.209,18.238C-72.128,20.765 -72.05,23.183 -71.965,25.816M9.362,-1.084C3.747,7.523 -1.47,16.25 -6.858,24.886C-5.815,25.567 -4.887,26.173 -3.877,26.832C-2.925,25.294 -2.064,23.916 -1.212,22.531C0.314,20.05 1.856,17.58 3.349,15.08C5.317,11.785 7.242,8.466 9.189,5.16C9.346,4.897 9.527,4.647 9.704,4.395C10.55,3.19 11.397,1.986 12.273,0.738C11.305,0.131 10.417,-0.424 9.362,-1.084M41.747,1.092C38.202,1.147 34.78,1.201 31.241,1.257C31.328,4.92 31.411,8.426 31.497,12.013C35.043,12.229 38.415,12.287 41.916,12.143C41.859,8.442 41.805,4.878 41.747,1.092M10.164,5.596C9.503,6.809 8.784,7.929 8.257,9.134C6.484,13.176 4.771,17.243 3.059,21.31C2.381,22.919 1.764,24.554 1.067,26.31C3.83,27.258 6.235,28.792 9.022,29.322C9.147,29.145 9.247,29.049 9.294,28.931C10.307,26.447 11.342,23.971 12.315,21.471C13.596,18.182 14.824,14.873 16.085,11.577C16.321,10.96 16.634,10.372 16.861,9.753C17.201,8.822 17.021,8.218 16.254,7.857C14.339,6.956 12.423,6.045 10.164,5.596M70.185,18.616C68.905,17.252 67.753,16.828 65.889,16.883C64.873,16.913 63.86,16.99 62.846,16.995C59.176,17.015 55.508,17 51.838,17.026C50.757,17.034 49.677,17.136 48.422,17.204C50.454,20.053 49.18,22.737 48.334,25.491C48.68,25.546 48.926,25.622 49.171,25.619C51.779,25.599 54.386,25.571 56.994,25.535C60.707,25.486 64.42,25.426 68.133,25.378C69.133,25.365 69.826,24.857 70.6,23.932C69.821,23.889 69.267,23.827 68.712,23.831C66.503,23.847 64.293,23.901 62.084,23.898C61.449,23.897 60.812,23.752 60.177,23.673C60.184,23.634 60.192,23.596 60.199,23.558C63.764,23.447 67.33,23.336 70.907,23.225C70.916,22.577 70.924,22.073 70.931,21.495C67.993,21.125 65.121,21.568 62.255,21.244C65.137,21.019 68.018,20.791 71.039,20.554C70.962,20.108 70.901,19.756 70.821,19.285C68.526,19.253 66.341,19.222 64.158,19.191C64.159,19.133 64.161,19.074 64.162,19.016C66.083,18.888 68.005,18.76 70.185,18.616M-39.242,28.416C-38.789,28.423 -38.429,28.483 -38.091,28.421C-37.357,28.285 -36.633,28.089 -35.906,27.915C-33.543,27.35 -31.18,26.788 -28.82,26.214C-28.621,26.166 -28.441,26.04 -28.258,25.952C-29.23,22.994 -30.178,20.107 -31.13,17.221C-32.075,14.355 -32.844,11.431 -33.923,8.48C-37.094,9.381 -40.107,10.225 -43.113,11.104C-43.558,11.234 -43.955,11.531 -44.468,11.799C-42.722,17.351 -41.003,22.816 -39.242,28.416M41.787,35.54C41.91,34.831 42.096,34.188 42.117,33.54C42.173,31.772 42.193,30.001 42.165,28.233C42.098,24.165 41.992,20.098 41.906,16.033C41.885,15.117 41.88,14.202 41.868,13.28C41.573,13.211 41.404,13.137 41.237,13.139C38.364,13.165 35.491,13.195 32.619,13.245C32.286,13.25 31.957,13.382 31.518,13.479C31.581,14.697 31.659,15.838 31.693,16.981C31.741,18.66 31.738,20.343 31.791,22.024C31.878,24.806 31.989,27.587 32.098,30.368C32.163,32.026 32.241,33.681 32.318,35.407C35.556,35.453 38.635,35.496 41.787,35.54M-25.021,1.012C-24.888,9.653 -24.757,18.121 -24.626,26.675C-23.928,26.825 -23.383,27.025 -22.831,27.046C-20.931,27.117 -19.029,27.129 -17.126,27.16C-15.635,27.184 -14.143,27.203 -12.532,27.225C-12.525,26.714 -12.507,26.371 -12.517,26.029C-12.618,22.186 -12.741,18.345 -12.823,14.502C-12.906,10.66 -12.94,6.818 -13.013,2.975C-13.024,2.38 -13.132,1.787 -13.197,1.18C-17.159,1.123 -20.949,1.07 -25.021,1.012M-73.042,35.846C-72.505,33.17 -73.342,2.681 -73.734,1.096C-77.676,1.156 -81.637,1.216 -85.66,1.277C-86.067,7.047 -85.764,12.742 -85.723,18.435C-85.682,24.159 -85.565,29.886 -85.177,35.674C-81.062,35.732 -77.091,35.789 -73.042,35.846M-47.67,35.626C-47.652,35.523 -47.613,35.402 -47.612,35.281C-47.601,32.553 -47.56,29.825 -47.594,27.098C-47.661,21.75 -47.784,16.402 -47.859,11.054C-47.921,6.63 -47.945,2.205 -47.995,-2.22C-47.996,-2.381 -48.072,-2.542 -48.136,-2.793C-52.135,-2.888 -56.095,-2.97 -60.169,-2.741C-60.176,-2.225 -60.196,-1.835 -60.184,-1.446C-60.082,2.042 -59.955,5.528 -59.873,9.016C-59.79,12.466 -59.753,15.914 -59.69,19.363C-59.612,23.595 -59.533,27.827 -59.443,32.059C-59.417,33.282 -59.349,34.505 -59.295,35.835C-55.375,35.765 -51.54,35.696 -47.67,35.626M17.462,-6.29C17.45,-5.537 17.427,-5.011 17.438,-4.485C17.545,0.772 17.665,6.029 17.765,11.285C17.876,17.205 17.976,23.124 18.07,29.044C18.098,30.811 18.055,32.581 18.112,34.348C18.141,35.252 18.252,35.305 19.151,35.318C22.866,35.372 26.582,35.42 30.297,35.459C30.499,35.46 30.702,35.355 31.03,35.266C31.025,31.492 31.071,27.744 31.001,23.996C30.906,18.872 30.696,13.75 30.589,8.627C30.497,4.252 30.485,-0.125 30.43,-4.501C30.425,-4.896 30.398,-5.299 30.311,-5.682C30.187,-6.227 29.889,-6.51 29.251,-6.339C28.834,-6.227 28.375,-6.243 27.936,-6.248C25.327,-6.279 22.716,-6.332 20.106,-6.36C19.274,-6.368 18.443,-6.318 17.462,-6.29M-85.89,36.701C-86.396,34.248 -86.884,3.631 -86.443,0.747C-85.899,0.366 -85.226,0.423 -84.577,0.42C-82.717,0.415 -80.857,0.463 -78.997,0.429C-77.235,0.398 -75.473,0.29 -73.623,0.211C-73.27,-2.275 -73.82,-4.773 -73.607,-7.365C-72.046,-7.342 -70.563,-7.323 -69.08,-7.301C-67.619,-7.278 -66.155,-7.305 -64.699,-7.214C-63.222,-7.121 -61.705,-7.573 -60.141,-6.946C-60.155,-5.914 -60.17,-4.913 -60.185,-3.786C-55.883,-3.726 -51.704,-3.667 -47.355,-3.606C-47.269,-1.92 -47.189,-0.353 -47.103,1.343C-46.632,1.251 -46.169,1.195 -45.723,1.072C-42.875,0.287 -40.033,-0.519 -37.184,-1.298C-36.778,-1.409 -36.343,-1.414 -35.944,-1.465C-33.102,9.438 -29.399,19.937 -25.608,30.466C-25.534,29.973 -25.39,29.479 -25.397,28.987C-25.431,26.822 -25.54,24.657 -25.565,22.491C-25.626,17.006 -25.664,11.518 -25.696,6.032C-25.712,3.199 -25.677,0.367 -25.699,-2.464C-25.709,-3.746 -25.836,-5.026 -25.849,-6.308C-25.86,-7.398 -25.752,-7.555 -24.677,-7.651C-23.447,-7.762 -22.205,-7.749 -20.967,-7.764C-18.494,-7.793 -16.021,-7.806 -13.548,-7.816C-13.337,-7.816 -13.124,-7.737 -12.79,-7.671C-12.716,-6.886 -12.599,-6.109 -12.577,-5.332C-12.452,-0.911 -12.353,3.509 -12.24,7.928C-12.113,12.929 -12.001,17.928 -11.844,22.927C-11.769,25.312 -11.606,27.695 -11.47,30.316C-4.284,19.512 2.241,8.551 9.125,-2.349C10.44,-1.52 11.664,-0.767 12.863,0.024C13.254,0.282 13.267,0.691 13.031,1.085C12.669,1.691 12.296,2.29 11.924,2.891C11.645,3.34 11.358,3.787 10.99,4.369C12.796,5.622 14.978,5.946 16.988,7.184C16.94,5.988 16.889,5.068 16.868,4.147C16.785,0.698 16.7,-2.752 16.641,-6.202C16.62,-7.374 16.731,-7.464 17.939,-7.424C20.19,-7.35 22.44,-7.244 24.691,-7.171C26.235,-7.121 27.778,-7.105 29.321,-7.074C29.586,-7.068 29.854,-7.089 30.114,-7.051C31.017,-6.917 31.273,-6.674 31.283,-5.761C31.298,-4.344 31.25,-2.927 31.228,-1.512C31.221,-1.031 31.214,-0.551 31.207,0.051C34.959,0.247 38.597,0.187 42.367,0.121C42.44,0.555 42.567,0.97 42.568,1.386C42.58,4.53 42.508,7.674 42.574,10.816C42.674,15.499 42.875,20.181 43.014,24.863C43.056,26.279 43.042,27.696 43.048,29.114C43.05,29.546 43.037,29.978 43.285,30.505C43.686,29.91 44.086,29.314 44.525,28.663C44.214,27.895 43.276,27.213 44.004,26.194C44.692,25.229 45.656,25.326 46.623,25.484C48.673,23.646 49.007,20.627 47.509,17.211C46.988,17.165 46.422,17.128 45.858,17.064C44.813,16.945 44.418,16.505 44.453,15.532C44.487,14.589 44.932,14.163 46,14.123C48.032,14.047 50.065,13.952 52.098,13.94C57.008,13.91 61.92,13.906 66.83,13.933C68.184,13.941 69.526,13.946 70.859,14.474C71.885,14.88 72.62,15.464 73.119,16.382C74.431,18.8 74.816,21.406 74.413,24.096C74.296,24.885 73.771,25.619 73.405,26.366C73.194,26.797 72.93,27.202 72.569,27.827C73.287,27.837 73.833,27.854 74.38,27.85C75.144,27.845 75.796,28.285 75.873,28.911C75.951,29.537 75.55,30.231 75.315,30.88C75.277,30.985 75.012,31.018 74.847,31.066C73.811,31.362 73.598,31.783 74.011,32.769C74.13,33.052 74.283,33.319 74.41,33.574C76.661,33.989 76.933,34.544 75.961,36.842C75.666,36.866 75.324,36.924 74.983,36.919C66.527,36.802 58.071,36.676 49.615,36.556C48.862,36.546 48.108,36.526 47.358,36.575C45.93,36.669 44.888,36.042 44.089,34.923C43.794,34.51 43.526,34.079 43.01,33.748C42.928,34.511 42.847,35.275 42.76,36.088C42.021,36.531 41.24,36.324 40.395,36.239C38.815,36.08 37.21,36.169 35.617,36.174C31.855,36.187 28.092,36.2 24.331,36.234C22.253,36.253 20.176,36.319 18.099,36.361C17.841,36.366 17.582,36.354 17.2,36.349C17.123,28.173 17.049,20.066 16.972,11.96C13.627,20.197 10.467,28.454 7.213,36.811C5.595,36.133 4.146,35.5 2.678,34.917C1.41,34.414 0.134,33.927 -1.162,33.503C-2.62,33.025 -2.809,32.435 -2.068,31.045C-1.258,29.528 -0.53,27.962 0.144,26.38C1.838,22.403 3.482,18.404 5.141,14.412C5.172,14.339 5.147,14.244 5.148,14.162C4.2,15.163 -6.597,32.759 -7.904,35.454C-9.238,35.772 -9.867,34.036 -11.293,34.238C-11.349,34.76 -11.407,35.317 -11.469,35.876C-11.549,36.599 -11.7,36.739 -12.358,36.723C-16.061,36.633 -19.764,36.543 -23.468,36.459C-23.728,36.454 -23.996,36.483 -24.251,36.539C-25.202,36.746 -25.224,36.756 -25.378,35.88C-25.522,35.056 -25.612,34.221 -25.742,33.272C-25.968,33.24 -26.273,33.111 -26.536,33.17C-29.332,33.804 -32.122,34.465 -34.912,35.124C-35.887,35.354 -36.858,35.6 -37.882,35.851C-40.907,25.868 -43.879,16.059 -46.852,6.249C-46.911,6.247 -46.969,6.246 -47.027,6.244C-47.032,6.601 -47.045,6.959 -47.041,7.315C-46.996,11.386 -47.004,15.46 -46.889,19.528C-46.741,24.786 -46.495,30.042 -46.291,35.299C-46.26,36.105 -46.409,36.354 -47.231,36.416C-48.333,36.498 -49.443,36.468 -50.549,36.483C-55.948,36.556 -61.346,36.662 -66.745,36.689C-71.302,36.713 -75.859,36.627 -80.416,36.623C-82.005,36.622 -83.593,36.725 -85.181,36.772C-85.395,36.779 -85.61,36.731 -85.89,36.701" style="fill:rgb(35,31,32);fill-rule:nonzero;"/>
            </g>
        </g>
        <g transform="matrix(5.55556,0,0,5.55556,3631.89,9566.93)">
            <g transform="matrix(1,0,0,1,396.132,645.156)">
                <path d="M0,36.752C0.313,32.001 0.181,27.395 0.247,22.625C-2.262,22.782 -4.611,22.291 -6.95,22.609C-7.198,24.16 -7.157,34.55 -6.895,36.314C-4.713,37.055 -2.409,36.328 0,36.752M-10.452,-2.39C-9.471,-2.418 -8.638,-2.467 -7.808,-2.46C-5.197,-2.432 -2.587,-2.379 0.022,-2.348C0.461,-2.342 0.92,-2.327 1.337,-2.438C1.975,-2.609 2.274,-2.327 2.398,-1.782C2.485,-1.399 2.511,-0.995 2.516,-0.601C2.572,3.775 2.583,8.151 2.675,12.527C2.782,17.65 2.993,22.773 3.087,27.897C3.157,31.643 3.111,35.393 3.117,39.166C2.789,39.256 2.586,39.361 2.384,39.359C-1.332,39.321 -5.047,39.272 -8.762,39.219C-9.661,39.205 -9.772,39.152 -9.801,38.248C-9.858,36.482 -9.816,34.712 -9.844,32.944C-9.937,27.024 -10.037,21.105 -10.149,15.186C-10.248,9.929 -10.369,4.672 -10.476,-0.584C-10.486,-1.11 -10.463,-1.637 -10.452,-2.39" style="fill:rgb(132,170,194);fill-rule:nonzero;"/>
            </g>
        </g>
        <g transform="matrix(5.55556,0,0,5.55556,3631.89,9566.93)">
            <g transform="matrix(1,0,0,1,312.705,649.635)">
                <path d="M0,31.708C1.736,31.733 3.298,31.755 4.885,31.777C4.949,27.195 5.012,22.712 5.077,18.165C3.578,18.144 2.175,18.127 0.772,18.103C0.128,18.092 -0.039,18.44 -0.044,19.029C-0.078,22.653 -0.145,26.277 -0.177,29.9C-0.181,30.496 -0.063,31.095 0,31.708M7.844,35.047C3.973,35.117 0.138,35.186 -3.782,35.257C-3.835,33.926 -3.903,32.704 -3.93,31.481C-4.02,27.248 -4.099,23.016 -4.177,18.784C-4.24,15.336 -4.277,11.886 -4.36,8.438C-4.442,4.95 -4.568,1.463 -4.671,-2.025C-4.682,-2.413 -4.663,-2.803 -4.655,-3.32C-0.581,-3.549 3.378,-3.466 7.378,-3.372C7.442,-3.121 7.517,-2.959 7.519,-2.798C7.568,1.626 7.593,6.051 7.654,10.476C7.73,15.823 7.852,21.172 7.919,26.52C7.954,29.247 7.913,31.975 7.901,34.702C7.9,34.823 7.861,34.944 7.844,35.047" style="fill:rgb(210,144,88);fill-rule:nonzero;"/>
            </g>
        </g>
        <g transform="matrix(5.55556,0,0,5.55556,3631.89,9566.93)">
            <g transform="matrix(1,0,0,1,285.701,682.028)">
                <path d="M0,-29.002C-0.043,-25.993 -0.084,-23.055 -0.126,-20.103C2.383,-20.068 4.752,-20.034 7.243,-19.999C7.286,-23.013 7.326,-25.906 7.369,-28.898C4.907,-28.932 2.491,-28.967 0,-29.002M9.476,2.874C5.426,2.817 1.455,2.76 -2.66,2.702C-3.048,-3.086 -3.165,-8.813 -3.206,-14.538C-3.247,-20.229 -3.55,-25.925 -3.142,-31.695C0.88,-31.755 4.842,-31.816 8.783,-31.876C9.175,-30.291 10.013,0.198 9.476,2.874" style="fill:rgb(161,139,193);fill-rule:nonzero;"/>
            </g>
        </g>
        <g transform="matrix(5.55556,0,0,5.55556,3631.89,9566.93)">
            <g transform="matrix(1,0,0,1,343.198,676.282)">
                <path d="M0,-26.213C4.073,-26.156 7.862,-26.102 11.824,-26.046C11.888,-25.439 11.997,-24.845 12.008,-24.25C12.081,-20.408 12.116,-16.565 12.197,-12.723C12.279,-8.881 12.402,-5.039 12.503,-1.197C12.513,-0.854 12.497,-0.511 12.489,0C10.877,-0.023 9.386,-0.041 7.895,-0.065C5.993,-0.097 4.09,-0.108 2.19,-0.179C1.638,-0.201 1.093,-0.401 0.395,-0.55C0.263,-9.104 0.133,-17.573 0,-26.213" style="fill:rgb(252,181,93);fill-rule:nonzero;"/>
            </g>
        </g>
        <g transform="matrix(5.55556,0,0,5.55556,3631.89,9566.93)">
            <g transform="matrix(1,0,0,1,410.006,662.193)">
                <path d="M0,22.403C-3.153,22.359 -6.231,22.316 -9.469,22.27C-9.546,20.544 -9.625,18.889 -9.69,17.231C-9.798,14.45 -9.908,11.67 -9.996,8.887C-10.049,7.206 -10.046,5.523 -10.094,3.844C-10.128,2.701 -10.207,1.56 -10.27,0.342C-9.83,0.245 -9.5,0.114 -9.168,0.108C-6.296,0.058 -3.423,0.028 -0.55,0.002C-0.383,0 -0.215,0.074 0.081,0.143C0.093,1.065 0.099,1.98 0.119,2.896C0.205,6.962 0.311,11.029 0.378,15.096C0.406,16.864 0.386,18.635 0.329,20.403C0.309,21.052 0.122,21.694 0,22.403" style="fill:rgb(166,118,179);fill-rule:nonzero;"/>
            </g>
        </g>
        <g transform="matrix(5.55556,0,0,5.55556,3631.89,9566.93)">
            <g transform="matrix(1,0,0,1,328.977,657.603)">
                <path d="M0,19.869C-1.762,14.269 -3.48,8.804 -5.226,3.252C-4.713,2.984 -4.316,2.686 -3.871,2.557C-0.866,1.678 2.148,0.834 5.319,-0.067C6.398,2.884 7.167,5.808 8.112,8.673C9.064,11.56 10.011,14.447 10.984,17.405C10.8,17.492 10.621,17.619 10.421,17.667C8.061,18.241 5.698,18.803 3.335,19.368C2.609,19.542 1.885,19.738 1.15,19.874C0.813,19.936 0.453,19.876 0,19.869" style="fill:rgb(91,142,202);fill-rule:nonzero;"/>
            </g>
        </g>
        <g transform="matrix(5.55556,0,0,5.55556,3631.89,9566.93)">
            <g transform="matrix(1,0,0,1,438.403,672.89)">
                <path d="M0,-5.218C-2.18,-5.074 -4.101,-4.946 -6.023,-4.818C-6.024,-4.759 -6.026,-4.701 -6.027,-4.643C-3.844,-4.612 -1.659,-4.581 0.635,-4.549C0.717,-4.077 0.777,-3.726 0.854,-3.28C-2.166,-3.043 -5.048,-2.815 -7.93,-2.589C-5.064,-2.265 -2.192,-2.708 0.746,-2.339C0.738,-1.761 0.731,-1.257 0.722,-0.609C-2.856,-0.498 -6.42,-0.386 -9.986,-0.275C-9.993,-0.238 -10.001,-0.2 -10.008,-0.161C-9.372,-0.082 -8.737,0.064 -8.101,0.065C-5.892,0.067 -3.682,0.013 -1.473,-0.002C-0.918,-0.006 -0.364,0.055 0.415,0.099C-0.359,1.023 -1.052,1.532 -2.051,1.544C-5.764,1.592 -9.477,1.652 -13.19,1.702C-15.798,1.738 -18.406,1.766 -21.014,1.785C-21.258,1.788 -21.505,1.712 -21.851,1.657C-21.005,-1.096 -19.731,-3.781 -21.763,-6.63C-20.508,-6.698 -19.428,-6.8 -18.347,-6.808C-14.677,-6.834 -11.008,-6.819 -7.339,-6.838C-6.325,-6.843 -5.311,-6.921 -4.296,-6.95C-2.432,-7.006 -1.281,-6.582 0,-5.218" style="fill:rgb(230,228,212);fill-rule:nonzero;"/>
            </g>
        </g>
        <g transform="matrix(5.55556,0,0,5.55556,3631.89,9566.93)">
            <g transform="matrix(1,0,0,1,374.68,666.27)">
                <path d="M0,0.491C0.219,0.645 0.381,0.8 0.574,0.887C1.658,1.375 2.748,1.851 3.839,2.322C4.87,2.767 4.953,2.707 5.334,1.677C6.278,-0.878 7.249,-3.425 8.208,-5.975C8.355,-6.366 8.503,-6.755 8.654,-7.153C7.124,-7.877 5.75,-8.528 4.32,-9.206C2.875,-5.961 1.468,-2.803 0,0.491M3.702,-11.617C5.961,-11.168 7.877,-10.258 9.793,-9.357C10.559,-8.996 10.74,-8.392 10.399,-7.461C10.173,-6.842 9.859,-6.254 9.624,-5.638C8.363,-2.341 7.135,0.969 5.854,4.257C4.88,6.757 3.846,9.232 2.833,11.717C2.785,11.834 2.685,11.931 2.56,12.108C-0.227,11.578 -2.631,10.044 -5.394,9.096C-4.697,7.34 -4.081,5.705 -3.404,4.096C-1.691,0.03 0.023,-4.039 1.795,-8.08C2.322,-9.284 3.041,-10.405 3.702,-11.617" style="fill:rgb(255,228,113);fill-rule:nonzero;"/>
            </g>
        </g>
        <g transform="matrix(5.55556,0,0,5.55556,3631.89,9566.93)">
            <g transform="matrix(-0.729152,-0.684352,-0.684352,0.729152,397.197,656.289)">
                <path d="M-5.107,-13.216C-7.74,-10.495 -10.219,-7.934 -12.793,-5.273C-10.338,-2.773 -7.841,-0.508 -5.107,1.761C-2.59,-0.795 -0.13,-3.295 2.44,-5.906C-0.103,-8.37 -2.56,-10.75 -5.107,-13.216" style="fill:rgb(242,126,178);fill-rule:nonzero;"/>
            </g>
        </g>
        <g transform="matrix(5.55556,0,0,5.55556,3631.89,9566.93)">
            <g transform="matrix(1,0,0,1,377.581,675.887)">
                <path d="M0,-27.916C1.056,-27.254 1.942,-26.7 2.912,-26.093C2.035,-24.846 1.187,-23.642 0.342,-22.436C0.166,-22.184 -0.016,-21.935 -0.172,-21.671C-2.12,-18.365 -4.045,-15.046 -6.012,-11.751C-7.506,-9.252 -9.048,-6.782 -10.574,-4.3C-11.425,-2.916 -12.287,-1.537 -13.239,0C-14.249,-0.658 -15.177,-1.264 -16.22,-1.945C-10.832,-10.582 -5.615,-19.309 0,-27.916" style="fill:rgb(89,198,205);fill-rule:nonzero;"/>
            </g>
        </g>
        <g transform="matrix(5.55556,0,0,5.55556,3631.89,9566.93)">
            <g transform="matrix(0.566043,0.824376,0.824376,-0.566043,295.614,668.604)">
                <path d="M5.529,-3.021C3.311,-1.601 1.273,-0.296 -0.856,1.067C1.114,4.456 3.263,7.565 5.529,10.771C7.794,9.388 9.868,7.849 12.063,6.316C10.127,2.988 7.863,0.032 5.529,-3.021" style="fill:rgb(176,199,177);fill-rule:nonzero;"/>
            </g>
        </g>
        <g transform="matrix(5.55556,0,0,5.55556,3631.89,9566.93)">
            <g transform="matrix(1,0,0,1,443.504,678.95)">
                <path d="M0,4.929C0.148,5.741 -0.112,6.108 -0.79,6.14C-1.187,6.158 -1.586,6.164 -1.984,6.159C-10.302,6.056 -18.619,5.952 -26.937,5.846C-27.29,5.841 -27.644,5.822 -27.996,5.792C-30.503,5.578 -31.977,3.022 -30.917,0.739C-30.439,-0.29 -29.568,-0.804 -28.509,-0.831C-23.164,-0.968 -17.818,-1.056 -12.472,-1.141C-8.892,-1.197 -5.312,-1.23 -1.731,-1.234C-1.282,-1.235 -0.818,-1.032 -0.394,-0.844C-0.267,-0.788 -0.166,-0.44 -0.218,-0.277C-0.267,-0.118 -0.514,0.054 -0.697,0.083C-1.13,0.155 -1.578,0.159 -2.019,0.164C-5.204,0.208 -8.387,0.265 -11.572,0.279C-16.391,0.299 -21.211,0.292 -26.03,0.289C-26.781,0.288 -27.533,0.217 -28.283,0.239C-29.684,0.282 -30.604,1.778 -30.042,3.061C-29.574,4.125 -28.623,4.676 -27.438,4.676C-24.966,4.678 -22.493,4.748 -20.022,4.741C-17.064,4.733 -14.106,4.645 -11.147,4.644C-7.834,4.643 -4.522,4.693 -1.208,4.739C-0.82,4.743 -0.433,4.858 0,4.929" style="fill:rgb(152,174,120);fill-rule:nonzero;"/>
            </g>
        </g>
        <g transform="matrix(5.55556,0,0,5.55556,3631.89,9566.93)">
            <g transform="matrix(1,0,0,1,413.941,663.774)">
                <path d="M0,13.474C-0.342,13.115 -0.932,12.869 -0.732,12.053C-0.254,12.033 0.218,12.007 0.69,11.997C6.88,11.873 13.071,11.744 19.261,11.635C20.36,11.615 21.467,11.767 22.559,11.684C24.421,11.545 26.473,10.241 26.401,8.109C26.363,7.009 26.26,5.911 26.172,4.813C26.043,3.231 24.888,2.415 23.664,1.813C22.9,1.438 21.949,1.309 21.082,1.307C17.634,1.302 14.187,1.426 10.74,1.432C7.29,1.438 3.841,1.36 0.392,1.315C0.177,1.312 -0.037,1.279 -0.262,1.258C-0.51,0.448 -0.131,0.306 0.517,0.293C3.436,0.24 6.351,0.127 9.27,0.093C12.896,0.05 16.523,0.115 20.148,0.034C21.677,0 23.13,0.308 24.594,0.619C25.403,0.789 26.02,1.26 26.434,2.012C27.501,3.95 28.071,6 27.942,8.224C27.842,9.963 26.929,11.296 25.82,12.533C25.406,12.994 24.879,13.112 24.269,13.113C19.716,13.121 15.162,13.165 10.608,13.171C7.698,13.175 4.787,13.114 1.877,13.128C1.276,13.131 0.675,13.343 0,13.474" style="fill:rgb(240,73,50);fill-rule:nonzero;"/>
            </g>
        </g>
        <g transform="matrix(5.55556,0,0,5.55556,3631.89,9566.93)">
            <g transform="matrix(1,0,0,1,307.279,654.041)">
                <path d="M0,7.197C-3.83,7.218 -7.483,7.24 -11.091,7.259C-11.581,6.19 -11.769,2.249 -11.47,-0.062C-7.699,-0.008 -3.921,0.044 -0.002,0.099C0.064,1.228 0.186,2.441 0.189,3.655C0.192,4.801 0.072,5.948 0,7.197" style="fill:rgb(176,199,177);fill-rule:nonzero;"/>
            </g>
        </g>
        <g transform="matrix(5.55556,0,0,5.55556,3631.89,9566.93)">
            <g transform="matrix(-0.476807,0.879008,0.879008,0.476807,307.005,642.37)">
                <path d="M5.731,-9.777C3.653,-6.519 1.875,-3.231 0.202,0.294C1.994,1.443 3.832,2.257 5.731,3.318C7.929,0.095 9.473,-3.406 11.608,-6.696C9.567,-7.767 7.708,-8.742 5.731,-9.777" style="fill:rgb(176,199,177);fill-rule:nonzero;"/>
            </g>
        </g>
        <g transform="matrix(5.55556,0,0,5.55556,3631.89,9566.93)">
            <g transform="matrix(1,0,0,1,441.012,682.774)">
                <path d="M0,-2.724C0.044,-1.772 0.076,-1.037 0.117,-0.153C-0.209,-0.1 -0.575,0.012 -0.941,0.012C-6.995,0.013 -13.048,0.021 -19.101,-0.022C-21.174,-0.037 -23.246,-0.187 -25.319,-0.285C-25.53,-0.295 -25.736,-0.379 -26.044,-0.452C-25.543,-1.144 -24.86,-1.116 -24.246,-1.152C-21.512,-1.311 -18.775,-1.434 -16.04,-1.576C-15.913,-1.581 -15.787,-1.633 -15.663,-1.722C-19.259,-2.058 -22.849,-1.612 -26.523,-1.667C-26.69,-2.021 -26.519,-2.292 -26.135,-2.403C-25.846,-2.488 -25.525,-2.472 -25.218,-2.475C-20.543,-2.518 -15.868,-2.549 -11.194,-2.599C-7.882,-2.635 -4.57,-2.694 -1.258,-2.74C-0.828,-2.745 -0.396,-2.73 0,-2.724" style="fill:rgb(230,228,212);fill-rule:nonzero;"/>
            </g>
        </g>
        <g transform="matrix(5.55556,0,0,5.55556,3631.89,9566.93)">
            <g transform="matrix(1,0,0,1,343.902,680.391)">
                <path d="M0,4.354C-0.608,3.025 -0.43,1.655 -0.108,0.107C3.867,-0.029 7.842,-0.001 11.861,-0.088C11.923,1.23 11.977,2.366 12.032,3.5C12.058,4.012 11.915,4.347 11.307,4.351C7.692,4.374 4.077,4.412 0.461,4.441C0.333,4.442 0.204,4.394 0,4.354" style="fill:rgb(252,181,93);fill-rule:nonzero;"/>
            </g>
        </g>
        <g transform="matrix(5.55556,0,0,5.55556,3631.89,9566.93)">
            <g transform="matrix(-0.300909,0.953653,0.953653,0.300909,305.381,659.31)">
                <path d="M5.631,-8.196C4.423,-4.46 3.273,-0.907 2.071,2.807C3.29,3.248 4.46,3.674 5.631,4.097C6.273,3.292 8.768,-4.339 9.204,-6.886C8.176,-7.481 6.97,-7.693 5.631,-8.196" style="fill:rgb(210,230,174);fill-rule:nonzero;"/>
            </g>
        </g>
        <g transform="matrix(5.55556,0,0,5.55556,3631.89,9566.93)">
            <g transform="matrix(1,0,0,1,343.173,642.24)">
                <path d="M0,3.657C0.016,2.516 0.011,1.549 0.051,0.583C0.075,0.015 0.376,-0.27 0.995,-0.259C4.472,-0.193 7.949,-0.153 11.579,-0.102C11.781,1.07 11.627,2.285 11.653,3.641C11.144,3.737 10.646,3.908 10.148,3.911C7.325,3.927 4.501,3.913 1.678,3.884C1.162,3.879 0.647,3.747 0,3.657" style="fill:rgb(252,181,93);fill-rule:nonzero;"/>
            </g>
        </g>
        <g transform="matrix(5.55556,0,0,5.55556,3631.89,9566.93)">
            <g transform="matrix(-0.323075,0.946373,0.946373,0.323075,305.477,678.002)">
                <path d="M5.8,-7.544C4.053,-4.138 3.275,-0.521 1.948,2.971C3.318,3.419 4.503,3.804 5.8,4.227C7.014,0.818 8.222,-2.571 9.488,-6.129C8.263,-6.599 7.143,-7.03 5.8,-7.544" style="fill:rgb(176,199,177);fill-rule:nonzero;"/>
            </g>
        </g>
        <g transform="matrix(5.55556,0,0,5.55556,3631.89,9566.93)">
            <g transform="matrix(0.314631,-0.949214,-0.949214,-0.314631,305.676,673.113)">
                <path d="M-5.779,-4.032C-6.916,-0.431 -8.025,3.078 -9.169,6.697C-8.034,7.131 -6.988,7.531 -5.779,7.995C-4.376,4.358 -3.234,0.784 -2.201,-2.902C-3.446,-3.295 -4.523,-3.635 -5.779,-4.032" style="fill:rgb(210,230,174);fill-rule:nonzero;"/>
            </g>
        </g>
        <g transform="matrix(5.55556,0,0,5.55556,3631.89,9566.93)">
            <g transform="matrix(0.56335,0.826218,0.826218,-0.56335,321.584,649.764)">
                <path d="M4.769,-2.554C3.617,-2.176 2.539,-1.822 1.37,-1.438C2.401,2.065 3.435,5.497 4.769,8.931C6.056,8.525 7.176,8.17 8.425,7.776C7.32,4.269 6.184,0.908 4.769,-2.554" style="fill:rgb(91,142,202);fill-rule:nonzero;"/>
            </g>
        </g>
        <g transform="matrix(5.55556,0,0,5.55556,3631.89,9566.93)">
            <g transform="matrix(-0.525515,-0.850784,-0.850784,0.525515,323.254,653.887)">
                <path d="M-4.747,-8.62C-5.865,-8.316 -6.899,-8.036 -8.048,-7.725C-7.093,-4.122 -6.02,-0.727 -4.747,2.746C-3.748,2.472 -2.834,2.221 -1.818,1.944C-2.517,-1.623 -3.465,-5.088 -4.747,-8.62" style="fill:rgb(162,222,249);fill-rule:nonzero;"/>
            </g>
        </g>
        <g transform="matrix(5.55556,0,0,5.55556,3631.89,9566.93)">
            <g transform="matrix(-0.26061,-0.965444,-0.965444,0.26061,298.534,646.529)">
                <path d="M-5.573,-7.365C-6.725,-7.156 -7.624,-6.994 -8.596,-6.818C-7.585,-3.028 -6.594,0.688 -5.573,4.519C-4.603,4.242 -3.742,3.997 -2.725,3.706C-3.669,0.034 -4.607,-3.613 -5.573,-7.365" style="fill:rgb(210,230,174);fill-rule:nonzero;"/>
            </g>
        </g>
        <g transform="matrix(5.55556,0,0,5.55556,3631.89,9566.93)">
            <g transform="matrix(-0.448175,-0.893946,-0.893946,0.448175,331.644,677.877)">
                <path d="M-4.916,-8.069C-5.995,-8.109 -6.885,-7.995 -7.721,-7.429C-6.79,-3.908 -5.865,-0.423 -4.916,3.165C-4.179,3.045 -3.499,2.934 -2.702,2.805C-3.128,-0.889 -4.031,-4.42 -4.916,-8.069" style="fill:rgb(91,142,202);fill-rule:nonzero;"/>
            </g>
        </g>
        <g transform="matrix(5.55556,0,0,5.55556,3631.89,9566.93)">
            <g transform="matrix(1,0,0,1,355.632,679.385)">
                <path d="M0,-2.117C-0.011,-1.389 -0.019,-0.758 -0.03,-0.033C-3.946,0.296 -7.833,0.148 -11.826,0.094C-11.904,-0.795 -11.967,-1.516 -12.046,-2.413C-9.936,-2.339 -7.976,-2.255 -6.015,-2.206C-4.047,-2.158 -2.077,-2.147 0,-2.117" style="fill:rgb(242,99,67);fill-rule:nonzero;"/>
            </g>
        </g>
        <g transform="matrix(5.55556,0,0,5.55556,3631.89,9566.93)">
            <g transform="matrix(1,0,0,1,354.985,649.004)">
                <path d="M0,-1.825C-0.01,-1.158 -0.017,-0.597 -0.028,0.148C-3.924,0.195 -7.79,0.241 -11.662,0.286C-11.73,-0.036 -11.786,-0.203 -11.797,-0.372C-11.898,-1.855 -11.709,-2.111 -10.216,-2.105C-7.075,-2.094 -3.933,-2.03 -0.792,-1.979C-0.58,-1.975 -0.369,-1.899 0,-1.825" style="fill:rgb(242,99,67);fill-rule:nonzero;"/>
            </g>
        </g>
        <g transform="matrix(5.55556,0,0,5.55556,3631.89,9566.93)">
            <g transform="matrix(1,0,0,1,359.584,675.254)">
                <path d="M0,8C-0.381,7.781 -0.65,7.647 -0.897,7.479C-1.437,7.109 -1.967,6.722 -2.611,6.264C-1.619,4.067 -0.34,2.102 1.006,0C2.024,0.497 3.016,0.982 4.13,1.526C2.7,3.769 1.364,5.862 0,8" style="fill:rgb(241,88,63);fill-rule:nonzero;"/>
            </g>
        </g>
        <g transform="matrix(5.55556,0,0,5.55556,3631.89,9566.93)">
            <g transform="matrix(1,0,0,1,329.568,677.465)">
                <path d="M0,1.42C3.505,0.18 7.044,-0.655 10.714,-1.469C10.902,-0.89 11.071,-0.374 11.274,0.25C9.911,0.627 8.654,1.005 7.381,1.319C5.498,1.783 3.61,2.228 1.715,2.632C0.504,2.889 0.341,2.756 0,1.42" style="fill:rgb(162,222,249);fill-rule:nonzero;"/>
            </g>
        </g>
        <g transform="matrix(5.55556,0,0,5.55556,3631.89,9566.93)">
            <g transform="matrix(1,0,0,1,375.758,681.408)">
                <path d="M0,1.144C-0.094,1.545 -0.133,1.847 -0.238,2.125C-0.614,3.123 -0.842,3.205 -1.806,2.809C-2.824,2.391 -3.863,2.022 -4.875,1.591C-6.125,1.059 -7.356,0.483 -8.733,-0.135C-8.554,-0.769 -8.396,-1.331 -8.19,-2.061C-5.363,-1.04 -2.614,-0.201 0,1.144" style="fill:rgb(255,228,113);fill-rule:nonzero;"/>
            </g>
        </g>
        <g transform="matrix(5.55556,0,0,5.55556,3631.89,9566.93)">
            <g transform="matrix(1,0,0,1,368.219,679.826)">
                <path d="M0,-1.662C0.16,-2.167 0.259,-2.502 0.376,-2.832C0.403,-2.91 0.485,-2.968 0.646,-3.159C1.579,-2.907 2.599,-2.691 3.576,-2.352C4.825,-1.917 6.059,-1.425 7.264,-0.881C8.723,-0.222 8.771,0.119 7.717,1.497C5.032,0.821 2.558,-0.405 0,-1.662" style="fill:rgb(76,150,209);fill-rule:nonzero;"/>
            </g>
        </g>
        <g transform="matrix(5.55556,0,0,5.55556,3631.89,9566.93)">
            <g transform="matrix(1,0,0,1,390.06,669.152)">
                <path d="M0,11.354C1.817,11.567 3.549,11.688 5.261,11.596C5.346,11.34 5.42,11.219 5.421,11.095C5.478,7.695 5.539,4.296 5.56,0.896C5.562,0.493 5.336,0.088 5.247,-0.211C3.347,-0.238 1.605,-0.263 -0.12,-0.287C-0.377,2.111 -0.295,10.511 0,11.354M6.071,12.756C3.663,12.332 1.359,13.059 -0.823,12.319C-1.084,10.554 -1.125,0.164 -0.878,-1.387C1.46,-1.705 3.81,-1.214 6.319,-1.371C6.252,3.399 6.384,8.006 6.071,12.756" style="fill:rgb(35,31,32);fill-rule:nonzero;"/>
            </g>
        </g>
        <g transform="matrix(5.55556,0,0,5.55556,3631.89,9566.93)">
            <g transform="matrix(1,0,0,1,316.969,680.586)">
                <path d="M0,-12.034C-1.252,-12.045 -2.373,-12.238 -3.546,-11.938C-3.541,-8.024 -3.536,-4.169 -3.53,-0.218C-2.314,-0.201 -1.243,-0.185 -0.167,-0.17C-0.112,-4.152 -0.057,-8.054 0,-12.034M-4.263,0.757C-4.327,0.143 -4.444,-0.455 -4.44,-1.051C-4.408,-4.675 -4.341,-8.298 -4.307,-11.922C-4.302,-12.512 -4.135,-12.86 -3.491,-12.848C-2.088,-12.825 -0.685,-12.807 0.814,-12.786C0.749,-8.239 0.686,-3.756 0.622,0.826C-0.966,0.803 -2.527,0.781 -4.263,0.757" style="fill:rgb(35,31,32);fill-rule:nonzero;"/>
            </g>
        </g>
        <g transform="matrix(5.55556,0,0,5.55556,3631.89,9566.93)">
            <g transform="matrix(1,0,0,1,292.268,653.818)">
                <path d="M0,7.419C0.034,4.934 0.068,2.579 0.101,0.251C-0.997,-0.17 -4.745,-0.218 -5.772,0.154C-6.387,2.452 -5.957,4.775 -5.984,7.226C-3.986,7.481 -2.056,7.261 0,7.419M-6.567,-0.792C-4.076,-0.756 -1.659,-0.722 0.802,-0.688C0.759,2.305 0.718,5.198 0.676,8.211C-1.815,8.176 -4.184,8.142 -6.692,8.107C-6.651,5.155 -6.609,2.218 -6.567,-0.792" style="fill:rgb(35,31,32);fill-rule:nonzero;"/>
            </g>
        </g>
        <g transform="matrix(5.55556,0,0,5.55556,3631.89,9566.93)">
            <g transform="matrix(1,0,0,1,379.188,667.6)">
                <path d="M0,-9.099C-1.079,-6.452 -2.124,-3.894 -3.215,-1.221C-2.215,-0.735 -1.329,-0.304 -0.364,0.165C0.84,-2.666 1.973,-5.33 3.147,-8.09C2.051,-8.441 1.097,-8.748 0,-9.099M-4.508,-0.839C-3.04,-4.132 -1.633,-7.291 -0.188,-10.536C1.243,-9.858 2.616,-9.208 4.146,-8.483C3.995,-8.086 3.848,-7.696 3.701,-7.305C2.741,-4.755 1.771,-2.208 0.827,0.347C0.446,1.377 0.361,1.437 -0.668,0.992C-1.761,0.521 -2.85,0.045 -3.934,-0.442C-4.127,-0.53 -4.289,-0.685 -4.508,-0.839" style="fill:rgb(35,31,32);fill-rule:nonzero;"/>
            </g>
        </g>
        <g transform="matrix(5.55556,0,0,5.55556,3631.89,9566.93)">
            <g transform="matrix(1,0,0,1,390.06,669.199)">
                <path d="M0,11.307C-0.295,10.464 -0.377,2.064 -0.12,-0.334C1.605,-0.31 3.347,-0.285 5.247,-0.258C5.336,0.041 5.562,0.446 5.56,0.849C5.539,4.249 5.478,7.648 5.421,11.048C5.42,11.172 5.346,11.293 5.261,11.549C3.549,11.641 1.817,11.52 0,11.307" style="fill:rgb(93,199,208);fill-rule:nonzero;"/>
            </g>
        </g>
        <g transform="matrix(5.55556,0,0,5.55556,3631.89,9566.93)">
            <g transform="matrix(-0.958156,-0.286247,-0.286247,0.958156,311.828,679.46)">
                <path d="M-1.803,-11.924C-2.888,-8.094 -3.952,-4.339 -5.039,-0.508C-4.004,-0.215 -2.973,0.077 -1.803,0.408C-0.666,-3.375 0.442,-7.068 1.567,-10.817C0.529,-11.44 -0.6,-11.576 -1.803,-11.924" style="fill:rgb(255,208,64);fill-rule:nonzero;"/>
            </g>
        </g>
        <g transform="matrix(5.55556,0,0,5.55556,3631.89,9566.93)">
            <g transform="matrix(0.782967,-0.622063,-0.622063,-0.782967,293.942,658.46)">
                <path d="M-3.038,-1.133C-4.55,0.27 -6.198,1.298 -7.603,2.74C-6.058,4.643 -4.949,6.729 -3.038,8.146C-2.003,7.798 0.902,5.429 1.5,4.416C0.026,2.614 -1.466,0.791 -3.038,-1.133" style="fill:rgb(243,137,184);fill-rule:nonzero;"/>
            </g>
        </g>
        <g transform="matrix(5.55556,0,0,5.55556,3631.89,9566.93)">
            <g transform="matrix(-0.999229,-0.0392616,-0.0392616,0.999229,378.938,667.76)">
                <path d="M0.114,-9.262C-0.996,-8.954 -1.961,-8.685 -3.07,-8.377C-2.006,-5.573 -0.978,-2.867 0.114,0.009C1.097,-0.421 1.999,-0.817 3.017,-1.264C2.032,-3.977 1.088,-6.574 0.114,-9.262" style="fill:rgb(253,184,18);fill-rule:nonzero;"/>
            </g>
        </g>
        <g transform="matrix(5.55556,0,0,5.55556,3631.89,9566.93)">
            <g opacity="0.43">
                <g transform="matrix(-0.999737,0.0229469,0.0229469,0.999737,342.975,642.464)">
                    <rect x="-5.007" y="-0.058" width="4.528" height="41.816" style="fill:white;"/>
                </g>
            </g>
        </g>
        <g transform="matrix(5.55556,0,0,5.55556,3631.89,9566.93)">
            <g opacity="0.43">
                <g transform="matrix(-0.99934,0.0363149,0.0363149,0.99934,385.726,643.811)">
                    <rect x="-5.881" y="-0.107" width="5.149" height="40.374" style="fill:white;"/>
                </g>
            </g>
        </g>
        <g transform="matrix(5.55556,0,0,5.55556,3631.89,9566.93)">
            <g opacity="0.43">
                <g transform="matrix(-0.999534,0.0305402,0.0305402,0.999534,399.137,651.348)">
                    <rect x="-5.432" y="-0.083" width="4.943" height="32.134" style="fill:white;"/>
                </g>
            </g>
        </g>
        <g transform="matrix(5.55556,0,0,5.55556,3631.89,9566.93)">
            <g opacity="0.43">
                <g transform="matrix(-0.999622,0.0275088,0.0275088,0.999622,307.643,647.364)">
                    <rect x="-5.456" y="-0.075" width="4.944" height="37.283" style="fill:white;"/>
                </g>
            </g>
        </g>
        <g transform="matrix(5.55556,0,0,5.55556,3631.89,9566.93)">
            <g opacity="0.43">
                <g transform="matrix(-0.999718,0.0237343,0.0237343,0.999718,295.373,643.682)">
                    <rect x="-6.045" y="-0.072" width="5.564" height="40.579" style="fill:white;"/>
                </g>
            </g>
        </g>
        <g transform="matrix(5.55556,0,0,5.55556,3631.89,9566.93)">
            <g opacity="0.43">
                <g transform="matrix(-0.999899,-0.0141909,-0.0141909,0.999899,283.775,650.895)">
                    <rect x="-5.121" y="0.036" width="5.358" height="33.369" style="fill:white;"/>
                </g>
            </g>
        </g>
        <g transform="matrix(5.55556,0,0,5.55556,3631.89,9566.93)">
            <g opacity="0.43">
                <g transform="matrix(-0.960687,0.277635,0.277635,0.960687,318.52,654.588)">
                    <rect x="-8.817" y="-1.248" width="4.531" height="31.515" style="fill:white;"/>
                </g>
            </g>
        </g>
        <g transform="matrix(5.55556,0,0,5.55556,3631.89,9566.93)">
            <g opacity="0.43">
                <g transform="matrix(0.925723,0.378203,0.378203,-0.925723,362.884,677.224)">
                    <rect x="5.273" y="-1.978" width="4.796" height="28.827" style="fill:white;"/>
                </g>
            </g>
        </g>
        <g transform="matrix(5.55556,0,0,5.55556,3631.89,9566.93)">
            <g transform="matrix(1,0,0,1,455.859,651.223)">
                <path d="M0,26.867C-0.025,26.79 -0.105,26.732 -0.261,26.54C-1.164,26.791 -2.152,27.007 -3.096,27.346C-4.306,27.779 -5.499,28.271 -6.666,28.813C-8.078,29.471 -8.124,29.812 -7.103,31.192C-4.505,30.518 -2.111,29.293 0.364,28.038C0.209,27.533 0.113,27.196 0,26.867M-6.7,33.401C-6.337,34.401 -6.114,34.482 -5.182,34.087C-4.197,33.669 -3.192,33.302 -2.212,32.87C-1.003,32.339 0.188,31.765 1.521,31.148C1.348,30.513 1.194,29.952 0.995,29.221C-1.74,30.239 -4.402,31.077 -6.931,32.421C-6.839,32.821 -6.801,33.124 -6.7,33.401M27.403,25.889C27.22,26.466 27.057,26.984 26.86,27.607C28.179,27.984 29.397,28.364 30.629,28.679C32.45,29.143 34.277,29.59 36.112,29.995C37.284,30.253 37.441,30.121 37.773,28.785C34.38,27.542 30.954,26.704 27.403,25.889M9.591,32.613C10.114,32.244 10.625,31.857 11.249,31.398C10.288,29.202 9.05,27.236 7.748,25.133C6.763,25.629 5.801,26.113 4.724,26.657C6.108,28.9 7.401,30.993 8.722,33.133C9.091,32.914 9.353,32.781 9.591,32.613M13.192,-0.964C16.963,-0.916 20.706,-0.867 24.453,-0.818C24.518,-1.142 24.572,-1.308 24.583,-1.477C24.681,-2.959 24.497,-3.215 23.053,-3.211C20.012,-3.203 16.972,-3.141 13.932,-3.091C13.726,-3.087 13.522,-3.011 13.165,-2.939C13.175,-2.27 13.182,-1.71 13.192,-0.964M12.575,29.235C16.365,29.566 20.127,29.421 23.992,29.37C24.067,28.48 24.128,27.76 24.203,26.862C22.161,26.935 20.265,27.019 18.367,27.065C16.462,27.112 14.556,27.123 12.545,27.151C12.556,27.878 12.565,28.51 12.575,29.235M25.986,31.342C29.435,32.088 32.852,32.828 36.37,33.589C36.585,32.877 36.784,32.219 37.017,31.45C33.636,30.173 30.189,29.395 26.648,28.547C26.146,29.495 25.859,30.34 25.986,31.342M59.262,2.966C63.059,2.981 66.78,2.996 70.617,3.01C70.603,2.002 70.591,1.108 70.577,0.049C66.907,0.001 63.262,-0.046 59.513,-0.095C59.418,1.071 59.343,1.983 59.262,2.966M33.425,6.571C36.877,7.654 40.217,8.528 43.725,9.272C44.007,8.281 44.266,7.37 44.553,6.36C41.261,5.078 37.925,4.062 34.364,3.294C34.047,4.404 33.751,5.432 33.425,6.571M45.896,1.612C42.532,0.489 39.224,-0.594 35.751,-1.427C35.374,-0.136 35.046,0.99 34.682,2.241C38.088,3.307 41.395,4.265 44.935,5.049C45.261,3.885 45.566,2.794 45.896,1.612M69.84,29.63C69.893,28.419 69.942,27.299 69.998,26.006C66.23,25.816 62.6,25.853 58.898,26.03C58.917,27.334 58.932,28.464 58.951,29.782C62.605,29.73 66.167,29.682 69.84,29.63M58.975,30.72C58.995,32.161 59.013,33.407 59.031,34.772C62.532,34.822 66.014,34.872 69.669,34.923C69.717,33.612 69.76,32.414 69.812,30.976C66.146,30.422 62.59,30.852 58.975,30.72M24.547,-7.286C24.525,-7.856 24.233,-8.141 23.633,-8.129C20.268,-8.067 16.903,-8.028 13.391,-7.979C13.195,-6.808 13.344,-5.593 13.319,-4.237C13.812,-4.141 14.294,-3.969 14.776,-3.966C17.508,-3.948 20.241,-3.959 22.973,-3.987C23.473,-3.992 23.971,-4.122 24.597,-4.213C24.581,-5.353 24.586,-6.321 24.547,-7.286M59.189,12.045C59.136,13.339 59.086,14.584 59.035,15.828C59.965,16.198 67.736,16.287 70.213,15.938C70.462,14.778 70.307,13.565 70.38,12.137C66.581,12.106 62.967,12.077 59.189,12.045M24.003,30.389C20.156,30.25 16.309,30.275 12.42,30.184C12.36,31.504 12.307,32.638 12.255,33.773C12.231,34.284 12.368,34.62 12.956,34.624C16.455,34.649 19.955,34.69 23.453,34.721C23.577,34.723 23.702,34.676 23.9,34.635C24.489,33.306 24.315,31.936 24.003,30.389M59.444,-7.397C59.294,-5.274 59.451,-3.271 59.424,-1.094C63.181,-0.698 66.872,-1.006 70.655,-0.695C70.623,-3 70.594,-5.099 70.563,-7.331C66.832,-7.606 63.214,-7.604 59.444,-7.397M70.074,11.224C70.548,10.155 70.729,6.213 70.439,3.903C66.789,3.954 63.133,4.004 59.34,4.057C59.276,5.186 59.159,6.398 59.157,7.611C59.153,8.757 59.27,9.904 59.34,11.153C63.046,11.178 66.582,11.201 70.074,11.224M70.247,17.217C66.466,16.921 62.806,16.929 59.007,16.981C58.87,19.631 58.963,22.212 58.985,24.889C62.7,25.178 66.299,24.989 70.013,24.796C70.094,22.163 70.17,19.743 70.247,17.217M-11.52,-0.341C-10.671,0.908 -9.851,2.112 -9.033,3.318C-8.862,3.57 -8.685,3.82 -8.534,4.084C-6.649,7.391 -4.784,10.711 -2.88,14.007C-1.434,16.508 0.059,18.98 1.536,21.461C2.36,22.847 3.194,24.226 4.117,25.764C5.094,25.105 5.992,24.5 7.001,23.821C1.785,15.181 -3.266,6.45 -8.702,-2.161C-9.725,-1.501 -10.582,-0.947 -11.52,-0.341M-15.372,6.775C-16.113,7.136 -16.288,7.74 -15.957,8.671C-15.738,9.29 -15.435,9.878 -15.206,10.495C-13.985,13.792 -12.796,17.102 -11.556,20.392C-10.614,22.893 -9.611,25.37 -8.631,27.854C-8.584,27.972 -8.489,28.068 -8.367,28.245C-5.669,27.717 -3.343,26.184 -0.668,25.239C-1.344,23.482 -1.941,21.847 -2.597,20.238C-4.256,16.17 -5.915,12.101 -7.63,8.057C-8.141,6.853 -8.838,5.732 -9.477,4.519C-11.664,4.966 -13.517,5.876 -15.372,6.775M43.398,10.759C42.902,10.491 42.517,10.193 42.086,10.063C39.178,9.181 36.26,8.336 33.192,7.433C32.148,10.383 31.404,13.307 30.49,16.172C29.57,19.057 28.653,21.943 27.712,24.901C27.891,24.989 28.065,25.114 28.257,25.164C30.541,25.739 32.828,26.303 35.115,26.869C35.819,27.043 36.518,27.241 37.23,27.377C37.557,27.438 37.906,27.378 38.343,27.373C40.047,21.774 41.709,16.31 43.398,10.759M13.131,0.118C13.069,0.725 12.964,1.319 12.953,1.915C12.883,5.756 12.851,9.599 12.773,13.441C12.695,17.283 12.576,21.125 12.478,24.967C12.469,25.31 12.486,25.653 12.493,26.163C14.053,26.141 15.496,26.124 16.94,26.1C18.78,26.072 20.621,26.062 22.46,25.991C22.995,25.971 23.522,25.77 24.197,25.621C24.323,17.067 24.447,8.599 24.575,-0.041C20.633,0.013 16.965,0.065 13.131,0.118M57.754,34.806C57.805,33.475 57.87,32.253 57.895,31.029C57.982,26.797 58.058,22.565 58.131,18.333C58.193,14.884 58.227,11.435 58.305,7.988C58.386,4.5 58.507,1.012 58.607,-2.475C58.617,-2.864 58.598,-3.254 58.59,-3.77C54.647,-4.003 50.815,-3.922 46.945,-3.832C46.882,-3.579 46.809,-3.419 46.808,-3.257C46.762,1.167 46.739,5.592 46.679,10.017C46.607,15.364 46.49,20.712 46.426,26.061C46.394,28.787 46.434,31.515 46.446,34.243C46.446,34.364 46.484,34.484 46.501,34.588C50.247,34.661 53.959,34.732 57.754,34.806M70.261,35.682C65.852,35.744 69.374,35.691 64.964,35.665C59.739,35.634 54.514,35.524 49.289,35.447C48.218,35.432 47.144,35.461 46.078,35.377C45.282,35.316 45.137,35.066 45.167,34.26C45.364,29.004 45.601,23.748 45.743,18.49C45.852,14.421 45.845,10.349 45.887,6.277C45.89,5.92 45.878,5.563 45.873,5.206C45.817,5.207 45.76,5.209 45.704,5.211C42.829,15.018 39.955,24.825 37.028,34.806C36.038,34.555 35.098,34.309 34.154,34.077C31.453,33.417 28.753,32.754 26.048,32.118C25.794,32.058 25.498,32.187 25.28,32.22C25.154,33.169 25.067,34.002 24.926,34.826C24.778,35.703 24.757,35.693 23.837,35.485C23.59,35.429 23.331,35.4 23.079,35.404C19.495,35.485 15.911,35.574 12.327,35.661C11.689,35.676 11.544,35.537 11.466,34.813C11.407,34.255 11.349,33.697 11.296,33.176C9.915,32.972 9.307,34.708 8.015,34.389C6.75,31.692 -3.703,14.089 -4.621,13.088C-4.62,13.168 -4.643,13.265 -4.614,13.338C-3.007,17.331 -1.416,21.331 0.224,25.31C0.877,26.892 1.582,28.458 2.366,29.976C3.083,31.366 2.9,31.956 1.49,32.433C0.236,32.856 -1,33.342 -2.226,33.845C-3.647,34.428 -5.049,35.059 -6.616,35.736C-9.766,27.376 -12.826,19.117 -16.065,10.877C-16.126,10.303 -16.243,9.847 -17.173,6.767C-17.069,6.192 -16.517,6.07 -16.082,6.102C-14.136,4.865 -12.025,4.542 -10.277,3.291C-10.633,2.708 -10.911,2.262 -11.182,1.812C-11.543,1.212 -11.902,0.612 -12.254,0.005C-12.481,-0.388 -12.468,-0.798 -12.091,-1.056C-10.93,-1.845 -9.746,-2.597 -8.474,-3.426C-1.809,7.479 4.508,18.443 11.466,29.253C11.596,26.632 11.754,24.25 11.826,21.864C11.977,16.866 12.085,11.866 12.206,6.867C12.315,2.446 12.41,-1.974 12.53,-6.394C12.551,-7.171 12.663,-7.947 12.735,-8.732C13.058,-8.798 13.263,-8.877 13.468,-8.876C15.862,-8.866 18.255,-8.851 20.649,-8.821C21.846,-8.805 23.049,-8.816 24.238,-8.705C25.28,-8.607 25.385,-8.45 25.374,-7.36C25.361,-6.08 25.24,-4.798 25.23,-3.517C25.209,-0.685 25.244,2.148 25.228,4.979C25.199,10.466 25.163,15.953 25.104,21.439C25.082,23.604 24.977,25.769 24.945,27.934C24.937,28.425 25.076,28.92 25.149,29.413C28.816,18.886 32.396,8.391 35.146,-2.511C35.531,-2.46 35.952,-2.454 36.345,-2.343C39.103,-1.562 41.853,-0.753 44.611,0.033C45.042,0.156 45.49,0.213 45.946,0.305C46.029,-1.391 46.106,-2.958 46.189,-4.644C50.398,-4.702 54.442,-4.758 58.607,-4.816C58.59,-5.942 58.576,-6.943 58.562,-7.975C60.076,-8.601 61.544,-8.148 62.973,-8.24C64.383,-8.33 65.799,-8.303 67.214,-8.323C68.649,-8.345 70.084,-8.363 71.595,-8.385C71.802,-5.792 71.27,-3.296 71.612,-0.809C71.607,4.848 70.483,35.679 70.261,35.682" style="fill:rgb(35,31,32);fill-rule:nonzero;"/>
            </g>
        </g>
        <g transform="matrix(5.55556,0,0,5.55556,3631.89,9566.93)">
            <g transform="matrix(1,0,0,1,510.122,652.58)">
                <path d="M0,28.09C-0.031,24.466 -0.097,20.842 -0.131,17.218C-0.136,16.629 -0.297,16.281 -0.921,16.292C-2.278,16.315 -3.637,16.331 -5.087,16.351C-5.024,20.899 -4.962,25.381 -4.898,29.962C-3.362,29.942 -1.851,29.921 -0.171,29.898C-0.11,29.284 0.005,28.687 0,28.09M-7.816,32.887C-7.828,30.159 -7.869,27.43 -7.837,24.704C-7.773,19.355 -7.655,14.008 -7.584,8.66C-7.525,4.235 -7.502,-0.19 -7.456,-4.614C-7.453,-4.775 -7.381,-4.935 -7.318,-5.188C-3.447,-5.278 0.385,-5.359 4.327,-5.127C4.334,-4.611 4.355,-4.22 4.343,-3.832C4.245,-0.345 4.123,3.142 4.043,6.631C3.964,10.079 3.93,13.528 3.869,16.976C3.795,21.208 3.719,25.44 3.633,29.673C3.608,30.896 3.541,32.118 3.49,33.449C-0.304,33.375 -4.016,33.304 -7.761,33.232C-7.779,33.128 -7.816,33.007 -7.816,32.887" style="fill:rgb(99,134,196);fill-rule:nonzero;"/>
            </g>
        </g>
        <g transform="matrix(5.55556,0,0,5.55556,3631.89,9566.93)">
            <g transform="matrix(1,0,0,1,480.434,677.386)">
                <path d="M0,-26.204C-3.942,-26.15 -7.61,-26.098 -11.443,-26.046C-11.506,-25.437 -11.611,-24.845 -11.621,-24.249C-11.691,-20.407 -11.723,-16.564 -11.802,-12.722C-11.88,-8.879 -11.998,-5.038 -12.096,-1.196C-12.105,-0.853 -12.089,-0.51 -12.082,0C-10.521,-0.021 -9.078,-0.039 -7.635,-0.062C-5.795,-0.091 -3.953,-0.101 -2.114,-0.172C-1.58,-0.192 -1.052,-0.393 -0.378,-0.541C-0.252,-9.095 -0.127,-17.564 0,-26.204" style="fill:rgb(22,178,75);fill-rule:nonzero;"/>
            </g>
        </g>
        <g transform="matrix(5.55556,0,0,5.55556,3631.89,9566.93)">
            <g transform="matrix(1,0,0,1,494.202,658.722)">
                <path d="M0,19.874C1.703,14.275 3.366,8.811 5.054,3.26C4.559,2.992 4.174,2.695 3.743,2.564C0.835,1.683 -2.083,0.837 -5.151,-0.066C-6.195,2.884 -6.939,5.808 -7.853,8.673C-8.774,11.558 -9.69,14.444 -10.631,17.402C-10.453,17.49 -10.279,17.616 -10.087,17.665C-7.802,18.24 -5.515,18.804 -3.229,19.371C-2.524,19.545 -1.825,19.742 -1.113,19.878C-0.786,19.94 -0.438,19.88 0,19.874" style="fill:rgb(0,180,173);fill-rule:nonzero;"/>
            </g>
        </g>
        <g transform="matrix(5.55556,0,0,5.55556,3631.89,9566.93)">
            <g transform="matrix(1,0,0,1,445.784,677.056)">
                <path d="M0,-18.902C-1.385,-18.226 -2.714,-17.576 -4.193,-16.853C-4.049,-16.456 -3.905,-16.065 -3.762,-15.674C-2.833,-13.124 -1.894,-10.576 -0.979,-8.02C-0.611,-6.991 -0.529,-6.93 0.468,-7.374C1.524,-7.843 2.578,-8.32 3.628,-8.806C3.814,-8.894 3.972,-9.049 4.183,-9.203C2.762,-12.497 1.4,-15.657 0,-18.902M2.445,-17.776C4.16,-13.732 5.819,-9.663 7.478,-5.595C8.134,-3.986 8.731,-2.351 9.406,-0.594C6.732,0.351 4.405,1.884 1.708,2.412C1.586,2.235 1.49,2.139 1.444,2.021C0.463,-0.463 -0.539,-2.94 -1.482,-5.441C-2.721,-8.73 -3.911,-12.041 -5.132,-15.338C-5.36,-15.955 -5.663,-16.543 -5.883,-17.162C-6.213,-18.093 -6.038,-18.697 -5.297,-19.057C-3.442,-19.957 -1.589,-20.867 0.598,-21.314C1.237,-20.101 1.933,-18.98 2.445,-17.776" style="fill:rgb(241,93,83);fill-rule:nonzero;"/>
            </g>
        </g>
        <g transform="matrix(5.55556,0,0,5.55556,3631.89,9566.93)">
            <g transform="matrix(1,0,0,1,447.157,676.988)">
                <path d="M0,-27.926C-1.022,-27.265 -1.88,-26.712 -2.818,-26.104C-1.969,-24.857 -1.148,-23.652 -0.33,-22.446C-0.159,-22.194 0.017,-21.945 0.167,-21.68C2.053,-18.373 3.917,-15.052 5.823,-11.757C7.268,-9.257 8.762,-6.785 10.238,-4.303C11.063,-2.918 11.896,-1.538 12.819,0C13.796,-0.659 14.694,-1.264 15.703,-1.944C10.486,-10.583 5.435,-19.315 0,-27.926" style="fill:rgb(243,237,103);fill-rule:nonzero;"/>
            </g>
        </g>
        <g transform="matrix(5.55556,0,0,5.55556,3631.89,9566.93)">
            <g transform="matrix(0.578958,-0.815357,-0.815357,-0.578958,526.63,669.994)">
                <path d="M-5.351,-2.87C-3.157,-1.412 -1.141,-0.072 0.963,1.326C-0.984,4.581 -3.109,7.561 -5.351,10.628C-7.591,9.206 -9.642,7.635 -11.812,6.069C-9.898,2.872 -7.659,0.046 -5.351,-2.87" style="fill:rgb(251,179,102);fill-rule:nonzero;"/>
            </g>
        </g>
        <g transform="matrix(5.55556,0,0,5.55556,3631.89,9566.93)">
            <g transform="matrix(1,0,0,1,515.199,655.198)">
                <path d="M0,7.179C3.706,7.203 7.242,7.227 10.734,7.25C11.208,6.18 11.389,2.238 11.099,-0.071C7.45,-0.021 3.793,0.03 0,0.082C-0.063,1.211 -0.181,2.423 -0.184,3.637C-0.187,4.783 -0.07,5.93 0,7.179" style="fill:rgb(251,179,102);fill-rule:nonzero;"/>
            </g>
        </g>
        <g transform="matrix(5.55556,0,0,5.55556,3631.89,9566.93)">
            <g transform="matrix(-0.488553,-0.872534,-0.872534,0.488553,515.329,643.749)">
                <path d="M-5.545,-9.609C-3.482,-6.489 -1.717,-3.331 -0.055,0.06C-1.833,1.228 -3.658,2.07 -5.545,3.157C-7.726,0.073 -9.259,-3.298 -11.38,-6.448C-9.353,-7.546 -7.507,-8.547 -5.545,-9.609" style="fill:rgb(251,179,102);fill-rule:nonzero;"/>
            </g>
        </g>
        <g transform="matrix(5.55556,0,0,5.55556,3631.89,9566.93)">
            <g transform="matrix(1,0,0,1,479.759,681.495)">
                <path d="M0,4.363C0.589,3.034 0.415,1.664 0.103,0.116C-3.745,-0.022 -7.591,0.002 -11.48,-0.088C-11.541,1.232 -11.593,2.366 -11.646,3.5C-11.669,4.012 -11.532,4.347 -10.944,4.351C-7.445,4.378 -3.946,4.418 -0.447,4.449C-0.323,4.451 -0.198,4.403 0,4.363" style="fill:rgb(22,178,75);fill-rule:nonzero;"/>
            </g>
        </g>
        <g transform="matrix(5.55556,0,0,5.55556,3631.89,9566.93)">
            <g transform="matrix(-0.30938,-0.950939,-0.950939,0.30938,516.935,660.663)">
                <path d="M-5.443,-8.013C-4.239,-4.41 -3.093,-0.983 -1.894,2.601C-3.109,3.051 -4.276,3.485 -5.443,3.917C-6.083,3.148 -8.572,-4.214 -9.007,-6.678C-7.981,-7.274 -6.778,-7.501 -5.443,-8.013" style="fill:rgb(255,215,107);fill-rule:nonzero;"/>
            </g>
        </g>
        <g transform="matrix(5.55556,0,0,5.55556,3631.89,9566.93)">
            <g transform="matrix(1,0,0,1,480.456,643.348)">
                <path d="M0,3.662C-0.016,2.522 -0.011,1.555 -0.05,0.588C-0.072,0.02 -0.364,-0.265 -0.964,-0.255C-4.328,-0.191 -7.694,-0.153 -11.206,-0.104C-11.402,1.067 -11.253,2.282 -11.278,3.639C-10.785,3.734 -10.303,3.906 -9.821,3.909C-7.089,3.927 -4.356,3.916 -1.624,3.888C-1.124,3.884 -0.626,3.752 0,3.662" style="fill:rgb(22,178,75);fill-rule:nonzero;"/>
            </g>
        </g>
        <g transform="matrix(5.55556,0,0,5.55556,3631.89,9566.93)">
            <g transform="matrix(-0.332115,-0.943239,-0.943239,0.332115,516.852,679.349)">
                <path d="M-5.617,-7.372C-3.877,-4.098 -3.101,-0.601 -1.777,2.765C-3.142,3.224 -4.324,3.622 -5.617,4.058C-6.828,0.772 -8.03,-2.496 -9.294,-5.926C-8.073,-6.407 -6.956,-6.846 -5.617,-7.372" style="fill:rgb(251,179,102);fill-rule:nonzero;"/>
            </g>
        </g>
        <g transform="matrix(5.55556,0,0,5.55556,3631.89,9566.93)">
            <g transform="matrix(0.323413,0.946258,0.946258,-0.323413,516.653,674.461)">
                <path d="M5.596,-3.861C6.73,-0.386 7.836,3.001 8.974,6.493C7.846,6.935 6.803,7.343 5.596,7.815C4.198,4.311 3.059,0.863 2.029,-2.697C3.27,-3.102 4.345,-3.451 5.596,-3.861" style="fill:rgb(255,215,107);fill-rule:nonzero;"/>
            </g>
        </g>
        <g transform="matrix(5.55556,0,0,5.55556,3631.89,9566.93)">
            <g transform="matrix(0.576278,-0.817254,-0.817254,-0.576278,501.472,651.103)">
                <path d="M-4.615,-2.425C-3.477,-2.02 -2.409,-1.641 -1.254,-1.23C-2.275,2.167 -3.294,5.494 -4.615,8.812C-5.888,8.376 -6.997,7.996 -8.229,7.572C-7.137,4.174 -6.014,0.92 -4.615,-2.425" style="fill:rgb(0,180,173);fill-rule:nonzero;"/>
            </g>
        </g>
        <g transform="matrix(5.55556,0,0,5.55556,3631.89,9566.93)">
            <g transform="matrix(-0.538325,0.842737,0.842737,0.538325,499.857,655.219)">
                <path d="M4.595,-8.496C5.701,-8.167 6.726,-7.862 7.862,-7.524C6.917,-4.031 5.855,-0.746 4.595,2.611C3.607,2.314 2.7,2.043 1.693,1.741C2.386,-1.724 3.325,-5.082 4.595,-8.496" style="fill:rgb(122,203,192);fill-rule:nonzero;"/>
            </g>
        </g>
        <g transform="matrix(5.55556,0,0,5.55556,3631.89,9566.93)">
            <g transform="matrix(-0.269379,0.963034,0.963034,0.269379,523.756,647.874)">
                <path d="M5.393,-7.197C6.542,-6.974 7.439,-6.801 8.408,-6.614C7.4,-2.954 6.412,0.635 5.393,4.333C4.424,4.049 3.567,3.795 2.551,3.497C3.493,-0.051 4.43,-3.574 5.393,-7.197" style="fill:rgb(255,215,107);fill-rule:nonzero;"/>
            </g>
        </g>
        <g transform="matrix(5.55556,0,0,5.55556,3631.89,9566.93)">
            <g transform="matrix(-0.460386,0.887719,0.887719,0.460386,491.74,679.2)">
                <path d="M4.757,-7.934C5.829,-7.943 6.713,-7.808 7.542,-7.235C6.617,-3.829 5.701,-0.455 4.757,3.018C4.025,2.88 3.35,2.756 2.561,2.607C2.983,-0.982 3.879,-4.4 4.757,-7.934" style="fill:rgb(0,180,173);fill-rule:nonzero;"/>
            </g>
        </g>
        <g transform="matrix(5.55556,0,0,5.55556,3631.89,9566.93)">
            <g transform="matrix(1,0,0,1,468.404,680.5)">
                <path d="M0,-2.126C0.011,-1.399 0.019,-0.767 0.03,-0.042C3.819,0.289 7.581,0.145 11.446,0.093C11.521,-0.797 11.582,-1.517 11.658,-2.415C9.616,-2.342 7.719,-2.258 5.822,-2.211C3.917,-2.165 2.01,-2.154 0,-2.126" style="fill:rgb(184,217,137);fill-rule:nonzero;"/>
            </g>
        </g>
        <g transform="matrix(5.55556,0,0,5.55556,3631.89,9566.93)">
            <g transform="matrix(1,0,0,1,469.024,650.128)">
                <path d="M0,-1.843C0.01,-1.176 0.017,-0.614 0.027,0.13C3.798,0.18 7.541,0.228 11.288,0.277C11.353,-0.047 11.407,-0.213 11.418,-0.382C11.516,-1.864 11.332,-2.12 9.888,-2.116C6.847,-2.107 3.807,-2.045 0.767,-1.996C0.561,-1.992 0.357,-1.916 0,-1.843" style="fill:rgb(184,217,137);fill-rule:nonzero;"/>
            </g>
        </g>
        <g transform="matrix(5.55556,0,0,5.55556,3631.89,9566.93)">
            <g transform="matrix(1,0,0,1,464.581,676.356)">
                <path d="M0,8C0.369,7.781 0.63,7.648 0.869,7.48C1.391,7.111 1.903,6.723 2.527,6.265C1.566,4.069 0.328,2.103 -0.974,0C-1.96,0.496 -2.921,0.98 -3.999,1.524C-2.614,3.767 -1.321,5.861 0,8" style="fill:rgb(81,101,174);fill-rule:nonzero;"/>
            </g>
        </g>
        <g transform="matrix(5.55556,0,0,5.55556,3631.89,9566.93)">
            <g transform="matrix(1,0,0,1,493.632,678.582)">
                <path d="M0,1.426C-3.393,0.183 -6.819,-0.654 -10.37,-1.469C-10.552,-0.892 -10.715,-0.374 -10.912,0.248C-9.593,0.626 -8.376,1.005 -7.144,1.32C-5.322,1.785 -3.495,2.231 -1.66,2.636C-0.488,2.895 -0.331,2.762 0,1.426" style="fill:rgb(122,203,192);fill-rule:nonzero;"/>
            </g>
        </g>
        <g transform="matrix(5.55556,0,0,5.55556,3631.89,9566.93)">
            <g transform="matrix(1,0,0,1,448.928,682.505)">
                <path d="M0,1.139C0.092,1.539 0.13,1.842 0.231,2.119C0.595,3.118 0.817,3.2 1.749,2.805C2.734,2.388 3.74,2.02 4.719,1.589C5.929,1.057 7.12,0.483 8.452,-0.134C8.279,-0.768 8.125,-1.33 7.926,-2.061C5.191,-1.042 2.529,-0.205 0,1.139" style="fill:rgb(241,93,83);fill-rule:nonzero;"/>
            </g>
        </g>
        <g transform="matrix(5.55556,0,0,5.55556,3631.89,9566.93)">
            <g transform="matrix(1,0,0,1,456.224,680.918)">
                <path d="M0,-1.657C-0.155,-2.162 -0.252,-2.498 -0.364,-2.828C-0.391,-2.905 -0.47,-2.963 -0.626,-3.154C-1.529,-2.903 -2.516,-2.688 -3.462,-2.349C-4.67,-1.915 -5.865,-1.424 -7.03,-0.881C-8.442,-0.224 -8.489,0.117 -7.468,1.497C-4.871,0.823 -2.476,-0.402 0,-1.657" style="fill:rgb(0,175,164);fill-rule:nonzero;"/>
            </g>
        </g>
        <g transform="matrix(5.55556,0,0,5.55556,3631.89,9566.93)">
            <g transform="matrix(1,0,0,1,505.988,669.857)">
                <path d="M0,11.69C1.04,11.675 2.077,11.661 3.254,11.645C3.258,7.695 3.263,3.84 3.266,-0.075C2.131,-0.375 1.047,-0.184 -0.165,-0.173C-0.11,3.806 -0.055,7.709 0,11.69M-0.764,12.686C-0.828,8.104 -0.89,3.622 -0.953,-0.926C0.497,-0.946 1.856,-0.962 3.213,-0.985C3.837,-0.996 3.998,-0.647 4.004,-0.06C4.037,3.565 4.103,7.189 4.134,10.813C4.139,11.409 4.024,12.007 3.963,12.621C2.283,12.644 0.772,12.664 -0.764,12.686" style="fill:rgb(35,31,32);fill-rule:nonzero;"/>
            </g>
        </g>
        <g transform="matrix(5.55556,0,0,5.55556,3631.89,9566.93)">
            <g transform="matrix(1,0,0,1,442.557,667.683)">
                <path d="M0,-7.086C1.137,-4.325 2.235,-1.66 3.401,1.172C4.334,0.704 5.191,0.273 6.159,-0.212C5.103,-2.887 4.091,-5.445 3.046,-8.093C1.985,-7.742 1.061,-7.437 0,-7.086M6.855,0.567C5.805,1.053 4.751,1.529 3.696,1.999C2.698,2.443 2.617,2.382 2.248,1.353C1.334,-1.203 0.394,-3.751 -0.534,-6.301C-0.677,-6.692 -0.821,-7.082 -0.966,-7.479C0.514,-8.202 1.843,-8.853 3.228,-9.529C4.628,-6.283 5.989,-3.124 7.41,0.171C7.199,0.324 7.042,0.48 6.855,0.567" style="fill:rgb(35,31,32);fill-rule:nonzero;"/>
            </g>
        </g>
        <g transform="matrix(5.55556,0,0,5.55556,3631.89,9566.93)">
            <g transform="matrix(-0.960608,0.277908,0.277908,0.960608,510.807,680.638)">
                <path d="M1.744,-11.908C2.797,-8.07 3.829,-4.306 4.882,-0.467C3.879,-0.191 2.879,0.083 1.744,0.394C0.642,-3.399 -0.434,-7.101 -1.526,-10.86C-0.518,-11.464 0.577,-11.582 1.744,-11.908" style="fill:rgb(136,170,86);fill-rule:nonzero;"/>
            </g>
        </g>
        <g transform="matrix(5.55556,0,0,5.55556,3631.89,9566.93)">
            <g transform="matrix(-0.999267,0.0382881,0.0382881,0.999267,445.848,668.85)">
                <path d="M-0.11,-9.263C0.963,-8.953 1.898,-8.682 2.972,-8.373C1.941,-5.571 0.946,-2.866 -0.11,0.009C-1.061,-0.423 -1.934,-0.821 -2.919,-1.267C-1.966,-3.982 -1.053,-6.577 -0.11,-9.263" style="fill:rgb(192,141,11);fill-rule:nonzero;"/>
            </g>
        </g>
        <g transform="matrix(5.55556,0,0,5.55556,3631.89,9566.93)">
            <g opacity="0.43">
                <g transform="matrix(0.999702,0.0243997,0.0243997,-0.999702,469.337,685.364)">
                    <path d="M0.509,-0.058L4.895,-0.058L4.791,41.755L0.404,41.755L0.509,-0.058Z" style="fill:white;fill-rule:nonzero;"/>
                </g>
            </g>
        </g>
        <g transform="matrix(5.55556,0,0,5.55556,3631.89,9566.93)">
            <g opacity="0.43">
                <g transform="matrix(0.999572,0.0292578,0.0292578,-0.999572,502.313,685.219)">
                    <path d="M0.544,-0.076L5.329,-0.076L5.223,37.205L0.438,37.204L0.544,-0.076Z" style="fill:white;fill-rule:nonzero;"/>
                </g>
            </g>
        </g>
        <g transform="matrix(5.55556,0,0,5.55556,3631.89,9566.93)">
            <g opacity="0.43">
                <g transform="matrix(0.999681,0.0252614,0.0252614,-0.999681,515.085,685.319)">
                    <path d="M0.512,-0.073L5.895,-0.073L5.797,40.504L0.414,40.504L0.512,-0.073Z" style="fill:white;fill-rule:nonzero;"/>
                </g>
            </g>
        </g>
        <g transform="matrix(5.55556,0,0,5.55556,3631.89,9566.93)">
            <g opacity="0.43">
                <g transform="matrix(0.958026,0.28668,0.28668,-0.958026,479.977,678.537)">
                    <path d="M4.424,-1.208L8.823,-1.208L8.252,30.217L3.854,30.218L4.424,-1.208Z" style="fill:white;fill-rule:nonzero;"/>
                </g>
            </g>
        </g>
        <g transform="matrix(5.55556,0,0,5.55556,3631.89,9566.93)">
            <g opacity="0.43">
                <g transform="matrix(-0.92151,0.388354,0.388354,0.92151,438.284,661.126)">
                    <path d="M-9.44,26.789L-4.771,26.789L-5.415,-1.91L-10.083,-1.908L-9.44,26.789Z" style="fill:white;fill-rule:nonzero;"/>
                </g>
            </g>
        </g>
        <g transform="matrix(5.55556,0,0,5.55556,3631.89,9566.93)">
            <g transform="matrix(-1,0,0,1,806.553,610.042)">
                <rect x="278.994" y="74.563" width="248.565" height="6.186" style="fill:rgb(231,193,144);stroke:rgb(185,123,81);stroke-width:0.82px;"/>
            </g>
        </g>
    </g>
</svg>
