<?xml version="1.0" encoding="UTF-8" standalone="no"?><!DOCTYPE svg PUBLIC "-//W3C//DTD SVG 1.1//EN" "http://www.w3.org/Graphics/SVG/1.1/DTD/svg11.dtd"><svg width="100%" height="100%" viewBox="0 0 92 72" version="1.1" xmlns="http://www.w3.org/2000/svg" xmlns:xlink="http://www.w3.org/1999/xlink" xml:space="preserve" xmlns:serif="http://www.serif.com/" style="fill-rule:evenodd;clip-rule:evenodd;"><g><path d="M51.631,4.208c-3.072,0 -5.562,2.49 -5.562,5.562l0,44.466c0,3.073 2.49,5.563 5.562,5.563l29.893,0c3.072,0 5.562,-2.49 5.562,-5.563l0,-44.466c0,-3.072 -2.49,-5.562 -5.562,-5.562l-29.893,0Z" style="fill:#008fd4;fill-rule:nonzero;"/><path d="M66.243,43.465l0,-14.135l-3.267,1.303l0,-1.801l3.267,-1.509l1.933,0l0,16.142l-1.933,0Z" style="fill:#fcd3c1;fill-rule:nonzero;"/><path d="M51.631,4.208c-3.072,0 -5.562,2.49 -5.562,5.562l0,44.466c0,3.073 2.49,5.563 5.562,5.563l29.893,0c3.072,0 5.562,-2.49 5.562,-5.563l0,-44.466c0,-3.072 -2.49,-5.562 -5.562,-5.562l-29.893,0Z" style="fill:none;fill-rule:nonzero;stroke:#bad8f2;stroke-width:1.96px;"/><path d="M20.875,6.515c-2.993,-0.691 -5.979,1.176 -6.67,4.169l-10.003,43.326c-0.691,2.994 1.175,5.981 4.168,6.672l29.127,6.725c2.993,0.69 5.979,-1.176 6.67,-4.17l10.003,-43.326c0.691,-2.994 -1.175,-5.981 -4.168,-6.671l-29.127,-6.725Z" style="fill:#ed1c24;fill-rule:nonzero;"/><g><path d="M17.051,45.923l3.179,-13.773l-3.476,0.536l0.406,-1.756l3.522,-0.735l1.884,0.435l-3.631,15.728l-1.884,-0.435Z" style="fill:#fff0d0;fill-rule:nonzero;"/><path d="M30.402,49.502c-1.704,-0.393 -2.913,-1.459 -3.629,-3.198c-0.716,-1.739 -0.778,-3.893 -0.185,-6.462c0.593,-2.569 1.593,-4.478 2.999,-5.727c1.406,-1.249 2.96,-1.677 4.663,-1.284c1.723,0.398 2.939,1.465 3.651,3.203c0.711,1.738 0.77,3.891 0.177,6.46c-0.593,2.57 -1.59,4.479 -2.991,5.729c-1.401,1.25 -2.963,1.677 -4.685,1.279Zm0.362,-1.57c1.332,0.307 2.454,-0.155 3.365,-1.388c0.911,-1.233 1.571,-2.734 1.979,-4.504c0.407,-1.761 0.471,-3.397 0.194,-4.909c-0.277,-1.512 -1.082,-2.422 -2.414,-2.73c-1.323,-0.305 -2.44,0.161 -3.352,1.399c-0.912,1.237 -1.572,2.736 -1.978,4.497c-0.409,1.769 -0.474,3.408 -0.195,4.916c0.278,1.507 1.078,2.414 2.401,2.719Z" style="fill:#fff0d0;fill-rule:nonzero;"/></g><path d="M20.875,6.515c-2.993,-0.691 -5.979,1.176 -6.67,4.169l-10.003,43.326c-0.691,2.994 1.175,5.981 4.168,6.672l29.127,6.725c2.993,0.69 5.979,-1.176 6.67,-4.17l10.003,-43.326c0.691,-2.994 -1.175,-5.981 -4.168,-6.671l-29.127,-6.725Z" style="fill:none;fill-rule:nonzero;stroke:#fbc8b4;stroke-width:1.96px;"/></g></svg>