<svg clip-rule="evenodd" fill-rule="evenodd" stroke-linejoin="round" stroke-miterlimit="2" viewBox="0 0 69 59" xmlns="http://www.w3.org/2000/svg"><g fill-rule="nonzero"><path d="m50.158 2.097c.189-.574.326-.994.464-1.415-.434.324-.641.722-.464 1.415m.507 34.969c-.129.381-.449.603-.196 1.043.33-.177.628-.336 1.017-.544-.314-.192-.519-.316-.821-.499m2.829-2.505c.181-.222.34-.417.521-.64-.329-.263-.569-.501-.927-.284-.102.062-.212.207-.216.317-.013.394.343.421.622.607m-1.197-.128c-.13.255-.239.472-.373.736.335.19.579.329.849.483.167-.298.292-.523.441-.785-.317-.15-.582-.274-.917-.434m-11.36-15.314c-.296-.978-.779-1.18-1.726-.832.621.299 1.173.566 1.726.832m9.938 17.539c.374.244.615.4.898.585.24-.446.452-.844.687-1.281-.352-.185-.638-.334-1.016-.533-.196.427-.372.805-.569 1.229m1.129-36.118c-.651.09-.802.156-.93.554-.18.547-.576 1.12.043 1.649 1.111-.295 1.367-.908.887-2.203m6.048 29.172c-1.675.952-3.195 1.942-4.461 3.355.273.21.486.373.715.551.234-.198.454-.362.65-.551.79-.769 1.569-1.551 2.613-1.978.603-.247.579-.724.483-1.377m-51.015 15.232c.451.734.798 1.291 1.136 1.854.153.256.221.61.438.772 1.141.848 2.315 1.647 3.566 2.528-.237-1.597-1.065-2.704-1.924-3.28-.891-.597-1.8-1.167-2.705-1.743-.082-.053-.197-.054-.511-.131m43.241-41.504c-.063-.026-.127-.053-.19-.079-.432.856-.951 1.682-1.277 2.578-.538 1.472-.975 2.984-1.416 4.493-.403 1.377-.755 2.768-1.133 4.154-.101.37-.238.734-.307 1.11-.196 1.057-.363 2.12-.544 3.18-.124.732-.254 1.463-.395 2.265.429.173.793.318 1.206.484.127-6.405 1.698-12.381 4.056-18.185m7.786 20.757c-.001-.088-.004-.174-.005-.262-.216-.094-.425-.222-.65-.276-.751-.184-1.509-.333-2.263-.507-1.668-.387-3.333-.784-5.006-1.164-.18-.042-.381-.007-.718-.007 1.251.959 2.391 1.798 3.123 3.044.171.292.437.296.724.255.739-.104 1.491-.154 2.215-.321.873-.203 1.722-.505 2.58-.762m-5.912 1.313c-.114-.195-.153-.302-.225-.376-.705-.735-1.429-1.454-2.124-2.201-.441-.474-.961-.64-1.575-.497-1.345.317-2.688.642-4.027.984-.262.066-.498.231-.85.401 1.108.068 2.075.159 3.043.182 1.179.028 2.069.521 2.672 1.525.132.218.199.476.298.723.917-.243 1.793-.475 2.788-.741m-45.486 14.906.277.02c.492-.787.963-1.591 1.484-2.358.511-.754 1.06-1.479 1.613-2.202.557-.727 1.382-1.235 1.812-2.123-.875-.335-1.65-.321-2.456.057-1.172.546-2.037 1.378-2.612 2.524-.513 1.02-.672 2.101-.486 3.219.049.301.242.576.368.863m38.859-7.391c2.465-2.958 5.321-5.178 8.402-7.151-3.06.385-5.918 1.35-8.68 2.542.092 1.512.177 2.938.278 4.609m-11.937.018c4.891-2.615 9.991-4.713 15.23-6.605-.467-1.064-1.16-1.793-2.229-1.858-1.489-.092-2.99-.056-4.481.019-1.531.077-2.839.842-4.168 1.527-.507.263-.9.607-1.237 1.063-1.32 1.791-2.249 3.788-3.115 5.854m-19.652-1.052c-.282-.231-.428-.406-.612-.491-1.082-.502-2.162-1.009-3.264-1.459-.694-.283-1.428-.45-2.194-.301-2.916.572-4.687 2.537-6.018 5-.706 1.308-.933 2.774-1.131 4.224-.182 1.335-.13 2.652.717 3.821.617.85 1.432 1.307 2.645 1.519-.401-.805-.718-1.462-1.054-2.112-.342-.663-.713-1.312-1.053-1.977-.167-.329-.317-.762.033-.987.531-.34 1.136-.616 1.804-.298.4.193.797.39 1.197.579.204.097.414.183.733.32-.243-1.057-.174-1.943.153-2.822.453-1.218 1.137-2.268 2.177-3.05 1.18-.889 2.478-1.179 3.916-.668.17.06.453.006.598-.106.456-.353.869-.759 1.353-1.192m6.923-4.691c.871.544 1.648 1.124 2.503 1.548 2.006.991 3.968 2.087 6.089 2.83.99.347 2.004.638 3.023.893.692.172.695.118.97-.549.739-1.795 1.626-3.509 2.759-5.091.101-.14.137-.323.17-.407-1.276-.247-2.508-.427-3.71-.736-.986-.252-1.981-.564-2.888-1.018-1.354-.68-2.638-1.504-3.942-2.28-.642-.382-.631-.397-1.19.098-1.486 1.316-2.576 2.949-3.784 4.712m25.202-5.041c-.281-.166-.396-.244-.52-.303-.792-.397-1.582-.796-2.379-1.18-1.568-.755-3.181-1.424-4.69-2.28-.748-.423-1.421-.358-2.129-.204-1.49.322-2.966.696-4.44 1.083-1.881.491-3.709 1.128-5.436 2.028-.179.094-.33.236-.576.414.258.198.418.34.595.456.487.318.988.612 1.467.941 1.247.855 2.644 1.391 4.071 1.83 1.029.314 2.093.563 3.158.702.748.099 1.54.035 2.29-.092.47-.079.909-.395 1.346-.632 1.929-1.048 3.984-1.77 6.081-2.391.31-.093.618-.198 1.162-.372m-1.362 6.385c-.609.208-1.202.352-1.747.604-2.906 1.345-5.798 2.717-8.699 4.075-.311.147-.458.349-.453.707.011.689-.022 1.379-.024 2.071-.006 1.491-.002 2.985-.002 4.5.958.747 2.298 1.08 2.794 2.405 1.81-.628 3.57-1.239 5.224-1.812.101-.688.128-1.274.282-1.824.523-1.881 1.424-3.589 2.545-5.174.303-.432.476-.869.439-1.391-.096-1.349-.189-2.699-.286-4.048-.001-.024-.029-.047-.073-.113m.92 13.494c1.127-.441 2.158-.825 3.169-1.258.19-.082.364-.335.43-.546.157-.495.204-1.024.364-1.519.418-1.285.846-2.562 1.616-3.704 1.091-1.623 2.416-3.027 3.945-4.224 1.199-.938 2.454-1.817 3.913-2.316.986-.338 1.995-.609 3.121-.949-.066-.395-.042-.924-.243-1.343-.76-1.606-1.723-2.456-3.523-1.647-.553.248-1.152.397-1.708.641-3.719 1.64-6.972 3.944-9.73 6.932-.67.727-1.286 1.508-1.895 2.291-.833 1.078-1.453 2.282-1.982 3.533-.344.816-.655 1.635-.585 2.584.849.353 1.68.698 2.619 1.087-.328-3.833 1.517-6.667 3.775-9.329-.023.184-.11.341-.207.492-.7 1.087-1.391 2.166-1.966 3.338-.921 1.88-1.253 3.808-1.113 5.937m6.142-1.862c-.261 1.395.375 2.515 1.176 3.557 1.09 1.42 2.488 2.419 4.214 2.942.422.13.867.221 1.257.42 1.045.532 2.043.372 3.026-.122 2.207-1.101 3.757-2.887 4.949-4.978 1.095-1.924 1.673-4.031 1.767-6.252.015-.343-.017-.743-.178-1.034-.48-.868-.934-1.785-1.788-2.354-1.101-.734-2.241-1.408-3.372-2.094-.544-.331-1.105-.443-1.719-.133-.364.187-.774.289-1.167.42-2.548.843-4.56 2.443-6.203 4.514-1.18 1.486-2.264 3.041-1.962 5.114m-14.857 6.916c-.14-.782-.33-1.557-.406-2.345-.077-.808-.818-1.342-.81-2.168 0-.057-.104-.127-.17-.172-.693-.447-1.363-.935-2.086-1.325-.825-.445-1.693-.808-2.547-1.195-.768-.348-1.532-.508-2.407-.323-1.215.257-2.325.724-3.363 1.364-.656.403-1.346.809-1.86 1.362-.824.885-1.559 1.852-2.086 2.972-.835 1.772-1.396 3.584-1.404 5.575-.005 1.425.492 2.617 1.448 3.583 2.016 2.032 4.462 3.086 7.367 3.077 1.853-.007 3.36-.696 4.694-1.93.788-.729 1.313-1.626 1.826-2.542 1.027-1.838 1.706-3.775 1.804-5.933m-20.077.522c.276.011.379.166.364.466-.73.391-1.126-.516-1.851-.484.105.27.191.49.277.71.201.513.412 1.023.599 1.541.085.235.03.437-.344.504-.114-.265-.236-.532-.348-.802-.507-1.226-1.027-2.445-1.513-3.677-.246-.631-.682-1.052-1.255-1.378-1.513-.862-3.015-1.743-4.527-2.604-1.386-.791-2.77-1.585-4.173-2.34-.49-.263-1.035-.375-1.614.02.093.22.163.422.259.61.698 1.406 1.472 2.782 2.082 4.225.454 1.078 1.305 1.561 2.27 1.98.029.013.089-.048.162-.091-.23-.405-.442-.823-.696-1.214-.214-.33-.221-.619.073-.883.287-.258.575-.117.839.048.986.619 1.973 1.234 2.942 1.876.343.228.645.521.948.801.859.786 1.123 1.892 1.497 2.922.146.403.341.677.704.851 1.948.933 2.236.998 3.866-.382.537-.454 1.184-.778 1.905-1.241.026-.096.105-.36.165-.63.368-1.661 1.037-3.201 1.947-4.628.987-1.549 2.357-2.713 3.964-3.557 1.35-.708 2.766-1.302 4.349-1.226.301.015.626.016.894.129.478.204.913.509 1.385.731.333.158.697.25 1.192.42.043-2.236.085-4.322.128-6.445-.193.031-.283.025-.349.061-3.007 1.648-5.808 3.61-8.586 5.61-1.464 1.053-2.778 2.268-4.048 3.534-.41.408-.834.82-1.153 1.297-.596.895-1.124 1.835-1.668 2.766-.163.279-.329.516-.7.477.218-.507.393-1.034.658-1.516 1.036-1.885 2.444-3.485 4.047-4.89 1.281-1.124 2.678-2.113 4.035-3.15 2.07-1.582 4.249-2.993 6.533-4.247.274-.151.527-.338.832-.538-4.478-1.184-8.46-3.24-12.216-5.532-5.532 3.195-10.023 7.369-13.286 12.848.144.121.237.224.352.291.882.518 1.772 1.019 2.648 1.545.755.455 1.465.994 2.247 1.391.982.496 1.758 1.113 2.05 2.231.063.247.234.528.44.66.53.342 1.108.611 1.674.91m-2.479-16.23c1.13-.839 2.201-1.664 3.307-2.444.673-.474 1.46-.806 2.079-1.339.509-.438.87-1.061 1.254-1.63 1.056-1.568 2.252-3.014 3.634-4.304.101-.093.19-.214.31-.267 2.274-1.005 4.515-2.071 6.949-2.688 1.827-.461 3.634-1.008 5.507-1.237.847-.107 1.715-.112 2.572-.08.984.039 1.525.556 1.633 1.537.045.398.19.575.554.704.385.138.732.379 1.102.562.368.182.745.346 1.225.567.091-.362.189-.691.252-1.025.212-1.114.375-2.238.625-3.344.383-1.699.805-3.39 1.24-5.076.555-2.142 1.155-4.27 2.097-6.286.305-.649.599-1.308.832-1.984.103-.294.031-.643.053-.968.031-.459.038-.926.125-1.375.082-.416.397-.676.821-.717.484-.045.977-.07 1.462-.04.154.011.33.202.437.353.723 1.033.198 2.491-.767 2.774-.498.144-.815.514-1.012 1.02-.505 1.306-1.07 2.591-1.569 3.902-.216.566-.329 1.172-.482 1.762-.353 1.365-.751 2.719-1.038 4.097s-.431 2.786-.701 4.169c-.2 1.023-.078 2.029-.081 3.076.256 0 .444.029.619-.005 1.3-.252 2.535.123 3.778.383 1.676.352 3.348.725 5.015 1.13 1.315.319 2.635.648 3.92 1.068 1.075.352 1.829 1.153 2.268 2.18.278.653.421 1.362.594 2.054.035.136-.072.309-.085.363-1.025.17-1.981.304-2.925.499-.371.075-.734.249-1.061.443-.39.229-.292.604-.169 1.059.306-.103.595-.163.854-.287.73-.352 1.487-.59 2.303-.613.541-.017.95.123 1.395.528.619.565 1.415.944 2.154 1.371 1.173.68 2.139 1.576 2.801 2.754.31.55.453 1.185.381 1.843-.155 1.405-.381 2.782-.826 4.144-.672 2.052-1.751 3.806-3.262 5.318-.917.917-1.835 1.835-3.11 2.265-.994.336-1.96.499-2.973 0-.507-.249-1.125-.268-1.653-.485-1.478-.607-2.705-1.586-3.8-2.732-.267-.279-.497-.595-.745-.891-.934-1.113-1.14-2.407-.973-3.806.054-.461.051-.927.078-1.433-.529-.03-1.042.162-1.254.507-.236.383-.287.955-.235 1.423.069.605.112.706-.411.931-.635.273-1.28.521-1.917.782-.537.222-1.079.427-1.598.683-.297.147-.521.124-.751-.092-.143-.132-.278-.287-.447-.372-.857-.437-1.677-.87-2.73-.46-1.721.67-3.49 1.22-5.293 1.839.168.576.305 1.044.444 1.512.296.998.237 1.997.109 3.022-.161 1.27-.406 2.516-.902 3.692-.881 2.083-1.93 4.053-3.942 5.306-1.36.848-2.814 1.258-4.427 1.1-1.958-.192-3.79-.717-5.429-1.838-1.033-.707-1.986-1.504-2.668-2.571-.475-.74-.604-1.597-.667-2.457-.031-.41-.005-.822-.005-1.354-.263.126-.434.181-.574.277-.683.469-1.35.958-2.035 1.422-.766.519-1.574.426-2.373.089-2.136-.899-3.945-2.323-5.815-3.651-.878-.619-1.834-1.128-2.717-1.741-.468-.324-.848-.773-1.287-1.141-.176-.15-.392-.276-.612-.344-.712-.22-1.405-.419-2.016-.917-1.208-.983-1.765-2.207-1.746-3.75.022-1.901.33-3.765 1.141-5.466 1.133-2.376 2.753-4.333 5.406-5.179 1.743-.555 3.395-.264 4.997.483.928.43 1.826.921 2.756 1.396" fill="#231f20"/><path d="m26.145 31.719c-1.03-.779-1.93-1.452-2.972-1.895-.781-.33-1.572-.463-2.411-.147-1.687.638-3.213 1.557-4.645 2.631-.197.15-.338.548-.301.801.114.815.288 1.624.512 2.415.145.515.416.994.621 1.466.365 0 .616.016.861-.001 1.28-.089 2.465-.529 3.394-1.368 1.23-1.112 2.484-2.173 3.877-3.073.341-.218.643-.497 1.064-.829m-9.326 15.995c-.558-.298-1.137-.567-1.665-.908-.208-.134-.379-.414-.443-.661-.289-1.118-1.068-1.736-2.048-2.232-.782-.396-1.491-.934-2.246-1.389-.877-.527-1.768-1.029-2.649-1.547-.114-.067-.207-.169-.353-.291 3.263-5.479 7.754-9.652 13.288-12.848 3.755 2.293 7.736 4.35 12.214 5.534-.303.198-.558.387-.832.537-2.283 1.254-4.462 2.666-6.532 4.246-1.357 1.037-2.754 2.027-4.036 3.15-1.602 1.405-3.01 3.006-4.047 4.891-.264.481-.441 1.009-.656 1.516z" fill="#ef4643"/><path d="m27.537 31.576c-.121 2.669-.591 5.597-3.658 6.165-.189.035-.368-.066-.417-.245-2.186.709-4.136 1.871-6.01 3.197-.252.179-.585-.117-.507-.391.054-.155.098-.31.135-.468-1.221.307-2.213 1.053-3.301 1.702-.29.171-.668-.18-.475-.475.728-1.112.45-2.447.624-3.708l-.868.612c-.142.249-.57.213-.632-.082-.259-1.241-.196-2.426-.033-3.648-1.911 1.943-3.61 4.101-5.056 6.528.145.121.238.224.351.29.882.519 1.774 1.019 2.65 1.547.755.454 1.465.992 2.247 1.389.98.497 1.757 1.115 2.048 2.233.063.245.235.525.442.66.528.341 1.103.608 1.66.905.216-.507.393-1.034.658-1.516 1.035-1.885 2.442-3.485 4.046-4.89 1.281-1.124 2.679-2.113 4.036-3.149 2.069-1.58 4.249-2.994 6.531-4.248.276-.149.529-.338.834-.535-1.849-.489-3.607-1.133-5.305-1.873" fill="#f89e51"/><path d="m27.041 51.677c-.057 1.095.135 2.187.816 3.172.693.999 1.951 1.461 3.12 1.084 1.188-.383 2.235-1.008 2.89-2.093.612-1.015 1.205-2.058 1.648-3.153.632-1.56.863-3.192.441-4.88-.266-1.061-.886-1.853-1.76-2.423-.535-.351-1.2-.492-1.827-.185-.844.413-1.659.862-2.318 1.577-.679.737-1.281 1.515-1.718 2.413-.681 1.399-1.266 2.829-1.292 4.488m9.863-4.484c-.099 2.157-.777 4.094-1.803 5.932-.513.917-1.039 1.813-1.827 2.542-1.333 1.234-2.84 1.924-4.693 1.931-2.906.008-5.351-1.046-7.367-3.078-.956-.965-1.453-2.157-1.449-3.583.008-1.989.569-3.802 1.405-5.575.526-1.12 1.262-2.086 2.085-2.972.513-.553 1.205-.959 1.859-1.36 1.04-.641 2.148-1.109 3.363-1.365.877-.186 1.64-.026 2.408.322.854.387 1.722.751 2.546 1.196.723.39 1.393.877 2.086 1.325.068.044.17.114.17.171-.008.826.735 1.36.812 2.169.074.788.266 1.563.405 2.345" fill="#939598"/><path d="m25.307 53.028c-.332-4.419 4.093-12.968 9.28-11.214-.376-.249-.759-.493-1.156-.708-.823-.445-1.691-.807-2.545-1.196-.769-.348-1.532-.507-2.407-.322-1.217.258-2.325.724-3.365 1.365-.654.403-1.346.809-1.858 1.362-.824.884-1.56 1.851-2.086 2.97-.836 1.773-1.397 3.586-1.404 5.576-.005 1.425.492 2.617 1.448 3.583 1.89 1.904 4.162 2.938 6.83 3.053-1.486-.716-2.562-2.135-2.737-4.469" fill="#bec0c2"/><path d="m25.23 53.028c-.058-.762.03-1.652.236-2.586-2.079-.017-4.331-.37-5.579-1.587-.124.652-.195 1.317-.198 2.006-.005 1.425.492 2.617 1.448 3.583 1.89 1.904 4.162 2.938 6.83 3.053-1.486-.716-2.563-2.135-2.737-4.469" fill="#939598"/><path d="m66.566 37.051c0-.361.013-.721-.003-1.081-.027-.586-.124-1.166-.474-1.651-.111-.156-.337-.321-.513-.324-1.123-.009-2.218.168-3.171.811-1.238.833-2.229 1.861-2.727 3.329-.537 1.585-.843 3.154-.244 4.783.589 1.599 1.725 2.452 3.565 1.372.096-.056.18-.13.27-.193.862-.637 1.524-1.435 1.993-2.405.715-1.471 1.463-2.928 1.304-4.641m-14.805 3.227c-.302-2.074.782-3.629 1.962-5.115 1.643-2.071 3.655-3.672 6.203-4.514.393-.131.803-.234 1.167-.42.615-.31 1.175-.198 1.719.132 1.131.687 2.271 1.361 3.372 2.094.854.57 1.308 1.486 1.788 2.355.161.291.193.69.178 1.034-.094 2.221-.672 4.327-1.767 6.252-1.192 2.091-2.742 3.876-4.949 4.979-.983.493-1.981.653-3.026.12-.39-.198-.835-.289-1.257-.419-1.726-.523-3.124-1.522-4.214-2.942-.801-1.043-1.437-2.162-1.176-3.556" fill="#939598"/><path d="m61.06 47.16c-2.128-.334-3.707-1.814-3.583-5.387.09-2.613.8-5.179 2.68-7.121 1.508-1.559 3.603-2.58 5.759-2.368-1.018-.665-2.065-1.292-3.104-1.923-.544-.33-1.105-.442-1.72-.132-.364.186-.774.288-1.166.419-2.549.843-4.561 2.444-6.203 4.515-1.18 1.486-2.264 3.041-1.962 5.114-.262 1.395.375 2.514 1.176 3.556 1.089 1.42 2.488 2.419 4.214 2.943.422.129.867.221 1.257.419.962.492 1.887.387 2.796-.016-.048-.007-.094-.011-.144-.019" fill="#bec0c2"/><path d="m57.477 41.849c.004-.125.018-.251.026-.375-2.147-.338-4.224-1.081-5.725-2.606-.079.467-.094.96-.016 1.486-.263 1.394.374 2.513 1.175 3.555 1.089 1.42 2.489 2.42 4.214 2.943.422.129.867.221 1.256.419.963.492 1.888.39 2.798-.016-.048-.007-.095-.011-.145-.019-2.128-.333-3.707-1.814-3.583-5.387" fill="#939598"/><path d="m45.619 42.139c-.14-2.129.193-4.059 1.112-5.937.576-1.172 1.268-2.251 1.967-3.338.097-.151.184-.308.209-.492-2.259 2.661-4.104 5.496-3.777 9.329-.939-.389-1.77-.734-2.619-1.087-.069-.949.241-1.768.585-2.584.529-1.252 1.149-2.455 1.984-3.533.606-.783 1.223-1.564 1.893-2.291 2.757-2.988 6.011-5.292 9.73-6.932.556-.244 1.155-.393 1.707-.641 1.801-.809 2.763.041 3.525 1.645.2.421.176.948.242 1.344-1.126.339-2.135.61-3.121.949-1.459.5-2.714 1.379-3.913 2.315-1.529 1.199-2.855 2.603-3.945 4.226-.77 1.142-1.198 2.419-1.616 3.704-.16.494-.208 1.024-.364 1.519-.066.21-.24.464-.429.545-1.011.434-2.043.818-3.17 1.259" fill="#ef4643"/><path d="m61.935 26.201c-.186-.39-.383-.734-.601-1.022-.006.001-.007.004-.013.005-2.81.723-5.221 2.297-7.698 3.746-2.213 1.295-3.745 3.123-5.556 4.849-.477.761-.935 1.529-1.334 2.345-.921 1.88-1.253 3.81-1.114 5.939 1.127-.441 2.159-.828 3.17-1.26.19-.081.364-.334.429-.544.157-.495.205-1.025.365-1.519.417-1.285.846-2.563 1.614-3.704 1.092-1.623 2.417-3.029 3.947-4.226 1.199-.936 2.453-1.816 3.912-2.317.987-.337 1.996-.608 3.122-.948-.066-.395-.043-.923-.243-1.344" fill="#f89e51"/><path d="m44.7 28.645c.043.066.071.088.073.112.097 1.35.19 2.7.286 4.049.036.522-.136.959-.441 1.389-1.121 1.587-2.022 3.294-2.543 5.174-.156.55-.181 1.138-.282 1.826-1.655.572-3.415 1.184-5.224 1.811-.496-1.324-1.838-1.657-2.796-2.406 0-1.514-.002-3.007.002-4.499.003-.691.036-1.381.025-2.072-.005-.356.141-.559.454-.705 2.9-1.358 5.792-2.732 8.698-4.076.544-.251 1.139-.397 1.748-.603" fill="#ef4643"/><path d="m42.646 33.591c-1.594 1.641-3.492 4.203-5.995 4.316-.235.011-.382-.229-.333-.438.093-.417.232-.813.372-1.209-1.095.462-2.067 1.042-2.992 1.784v2.633c.957.749 2.297 1.082 2.795 2.406 1.808-.629 3.569-1.239 5.223-1.813.102-.686.128-1.274.283-1.824.522-1.881 1.422-3.587 2.543-5.174.305-.429.477-.868.44-1.388-.031-.453-.064-.906-.096-1.359-.708.719-1.559 1.365-2.24 2.066" fill="#f89e51"/><path d="m16.814 47.712c.369.039.535-.198.7-.477.543-.931 1.071-1.871 1.668-2.766.317-.477.743-.889 1.151-1.297 1.272-1.268 2.584-2.481 4.049-3.535 2.779-1.999 5.579-3.961 8.585-5.609.066-.037.158-.03.349-.061-.041 2.123-.083 4.209-.126 6.444-.497-.169-.859-.261-1.192-.42-.474-.223-.908-.526-1.387-.731-.268-.113-.592-.115-.894-.128-1.581-.076-2.997.518-4.347 1.226-1.609.844-2.977 2.007-3.966 3.557-.91 1.426-1.579 2.966-1.946 4.628-.059.268-.14.534-.164.629-.722.464-1.37.788-1.906 1.242-1.63 1.38-1.917 1.315-3.866.382-.364-.174-.558-.448-.705-.851-.372-1.03-.638-2.136-1.495-2.922-.305-.281-.606-.575-.948-.801-.97-.642-1.958-1.257-2.943-1.876-.264-.166-.551-.306-.838-.048-.296.264-.289.553-.074.883.254.391.466.809.697 1.212-.074.045-.135.105-.162.093-.966-.419-1.816-.902-2.272-1.981-.608-1.442-1.382-2.818-2.082-4.224-.095-.188-.166-.39-.258-.61.579-.395 1.125-.283 1.613-.021 1.404.756 2.787 1.55 4.175 2.341 1.511.861 3.012 1.742 4.525 2.602.573.328 1.009.748 1.257 1.379.484 1.233 1.006 2.452 1.513 3.678.112.269.233.536.348.802.372-.069.427-.27.344-.504-.188-.519-.398-1.028-.6-1.542-.085-.219-.173-.44-.278-.709.725-.032 1.122.875 1.851.484.016-.3-.086-.456-.367-.466-.004 0-.009-.003-.009-.003" fill="#ef4643"/><path d="m13.685 48.756c-.62-1.922-1.483-3.026-3.238-4.047-1.317-.766-2.64-1.542-3.986-2.254-1.05-.557-2.14-.861-3.252-1.173.55 1.063 1.11 2.123 1.572 3.224.456 1.077 1.307 1.561 2.272 1.979.029.012.088-.048.162-.091-.23-.405-.442-.822-.696-1.213-.215-.33-.222-.619.073-.884.287-.257.575-.118.839.048.986.619 1.973 1.235 2.942 1.876.343.228.643.522.948.802.859.786 1.123 1.891 1.496 2.922.147.404.341.677.705.851.314.15.576.269.814.371-.198-.809-.396-1.618-.651-2.411" fill="#ac302d"/><path d="m29.902 39.137c.27.011.549.024.786.124.477.204.914.508 1.385.731.333.158.699.249 1.192.421.026-1.25.049-2.453.073-3.643-1.28.54-2.51 1.331-3.436 2.367" fill="#f89e51"/><path d="m46.061 22.26c-.545.174-.852.279-1.162.371-2.097.62-4.152 1.343-6.082 2.392-.437.237-.875.553-1.346.632-.749.127-1.541.191-2.289.092-1.066-.14-2.128-.388-3.158-.704-1.427-.437-2.824-.973-4.071-1.828-.479-.329-.981-.623-1.468-.942-.175-.115-.337-.257-.594-.455.245-.178.396-.32.576-.414 1.727-.9 3.554-1.537 5.435-2.03 1.474-.385 2.951-.759 4.441-1.081.708-.155 1.381-.219 2.129.203 1.509.857 3.122 1.526 4.69 2.279.797.386 1.587.784 2.378 1.18.125.061.239.139.521.305" fill="#ef4643"/><path d="m26.298 21.85c2.244-1.839 5.553-1.733 8.286-1.481.349.034.457.441.173.646-.262.189-.548.316-.838.439.947.09 1.96.071 2.828-.197-.443-.734.596-1.109 1.5-1.18 1.162-.093 2.404.238 3.56.344.21.019.423.035.636.052-1.363-.635-2.744-1.238-4.048-1.977-.747-.423-1.42-.358-2.129-.205-1.489.324-2.967.698-4.439 1.083-1.881.491-3.709 1.13-5.437 2.03-.178.093-.332.236-.575.414.151.116.266.209.372.291-.01-.089.017-.181.111-.259" fill="#f47d4b"/><path d="m39.572 23.574c-3.031.102-6.068.264-9.006.994.455.171.915.332 1.382.476 1.029.314 2.09.563 3.157.702.749.1 1.541.037 2.291-.091.47-.08.908-.395 1.345-.633 1.128-.612 2.302-1.105 3.498-1.54-.888.029-1.777.062-2.667.092" fill="#f47d4b"/><path d="m20.86 27.301c1.208-1.764 2.296-3.397 3.784-4.712.559-.494.549-.481 1.189-.098 1.304.777 2.588 1.599 3.942 2.28.907.455 1.902.765 2.889 1.018 1.202.308 2.434.489 3.71.737-.034.082-.07.267-.17.407-1.134 1.58-2.02 3.295-2.759 5.09-.275.668-.278.72-.971.548-1.019-.254-2.033-.545-3.023-.893-2.12-.743-4.082-1.838-6.09-2.83-.853-.422-1.63-1.004-2.501-1.547" fill="#cfd0d2"/><path d="m13.936 31.991c-.483.433-.897.839-1.353 1.192-.144.112-.427.166-.597.107-1.439-.512-2.737-.222-3.917.667-1.04.782-1.723 1.833-2.177 3.05-.327.879-.396 1.765-.153 2.823-.317-.138-.529-.224-.732-.321-.401-.189-.797-.386-1.198-.579-.667-.318-1.273-.042-1.804.298-.348.225-.2.658-.033.987.34.665.711 1.314 1.054 1.977.335.65.654 1.307 1.053 2.112-1.212-.212-2.027-.669-2.645-1.519-.845-1.169-.899-2.486-.717-3.821.2-1.45.426-2.916 1.131-4.224 1.331-2.463 3.102-4.428 6.019-5 .766-.149 1.499.018 2.194.301 1.101.451 2.181.958 3.263 1.459.186.085.33.26.612.491" fill="#939598"/><path d="m1.896 40.215c-.169-.328-.316-.761.032-.986.412-.264.867-.485 1.361-.426.287-2.291 1.076-4.649 2.859-6.098 1.979-1.61 5.233-1.883 7.312-.35.133-.122.259-.239.398-.364-.28-.231-.425-.405-.612-.491-1.08-.502-2.16-1.009-3.262-1.459-.694-.283-1.428-.45-2.195-.301-2.916.572-4.686 2.537-6.017 5-.705 1.308-.933 2.774-1.131 4.224-.182 1.335-.129 2.652.718 3.821.617.85 1.431 1.307 2.643 1.519-.399-.803-.717-1.462-1.053-2.111-.344-.663-.713-1.313-1.053-1.978" fill="#bec0c2"/><path d="m1.896 40.139c-.169-.328-.316-.762.032-.986.412-.264.867-.485 1.361-.426.003-.021.008-.044.011-.067-.924-.165-1.804-.49-2.472-1.006-.071.41-.131.822-.187 1.234-.182 1.335-.129 2.652.718 3.821.617.85 1.431 1.307 2.643 1.519-.399-.804-.717-1.462-1.053-2.111-.344-.663-.713-1.313-1.053-1.978" fill="#939598"/><path d="m33.588 33.043c.867-2.066 1.795-4.064 3.116-5.854.337-.457.73-.801 1.237-1.062 1.328-.687 2.636-1.451 4.167-1.528 1.491-.074 2.992-.111 4.48-.019 1.071.063 1.763.794 2.229 1.858-5.238 1.892-10.338 3.99-15.229 6.605" fill="#cfd0d2"/><path d="m45.525 33.025c-.101-1.669-.187-3.097-.278-4.609 2.762-1.192 5.621-2.158 8.679-2.542-3.081 1.973-5.937 4.194-8.401 7.151" fill="#ef4643"/><path d="m6.667 40.416c-.127-.287-.32-.562-.368-.863-.186-1.118-.027-2.199.485-3.219.576-1.146 1.44-1.978 2.612-2.524.807-.378 1.582-.392 2.457-.057-.43.888-1.255 1.396-1.812 2.123-.553.723-1.102 1.448-1.613 2.202-.522.767-.992 1.571-1.485 2.358z" fill="#606164"/><path d="m52.153 25.511c-.995.264-1.873.498-2.789.74-.099-.246-.165-.504-.298-.722-.602-1.004-1.492-1.499-2.672-1.526-.967-.024-1.934-.113-3.042-.182.35-.17.586-.334.849-.401 1.339-.343 2.682-.667 4.028-.983.614-.145 1.134.021 1.575.497.693.747 1.419 1.466 2.124 2.201.071.073.109.179.225.376" fill="#ef4643"/><path d="m58.064 24.197c-.859.258-1.708.56-2.58.762-.724.167-1.476.218-2.216.322-.288.041-.552.037-.725-.256-.732-1.246-1.87-2.085-3.121-3.043.337 0 .536-.036.718.006 1.671.382 3.338.777 5.006 1.165.754.173 1.512.324 2.263.507.225.054.434.181.65.277.001.086.004.174.005.26" fill="#ef4643"/><path d="m50.278 3.441c-2.358 5.804-3.929 11.78-4.056 18.185-.411-.166-.777-.311-1.206-.484.141-.802.271-1.533.397-2.265.179-1.06.346-2.123.542-3.18.069-.376.206-.74.307-1.11.378-1.386.73-2.778 1.133-4.154.441-1.509.878-3.021 1.416-4.493.326-.897.845-1.722 1.277-2.58.063.028.127.054.19.081" fill="#cfd0d2"/><path d="m7.038 44.945c.313.077.427.078.511.131.905.574 1.814 1.145 2.705 1.743.858.575 1.687 1.683 1.924 3.278-1.251-.879-2.426-1.68-3.566-2.528-.217-.162-.286-.515-.439-.77-.337-.564-.685-1.12-1.135-1.854" fill="#fcb655"/><path d="m58.053 29.712c.094.653.12 1.131-.483 1.377-1.045.429-1.824 1.211-2.614 1.978-.195.19-.414.355-.649.551-.229-.176-.442-.339-.716-.551 1.267-1.413 2.787-2.403 4.462-3.355" fill="#606164"/><path d="m50.876 36.658c.197-.422.371-.802.569-1.228.378.198.663.347 1.015.532-.234.438-.446.836-.686 1.283-.283-.187-.526-.343-.898-.587" fill="#939598"/><path d="m40.938 19.119c-.553-.266-1.106-.534-1.726-.832.947-.348 1.429-.146 1.726.832" fill="#ef4643"/><path d="m52.297 34.434c.336.159.6.285.917.433-.148.263-.272.488-.44.785-.271-.154-.515-.292-.849-.482.133-.264.243-.482.372-.736" fill="#606164"/><path d="m53.494 34.562c-.279-.186-.635-.213-.622-.607.004-.11.114-.256.216-.318.357-.217.599.022.928.283-.182.224-.34.419-.522.642" fill="#939598"/><path d="m50.665 37.066c.302.183.507.307.821.499-.39.208-.688.368-1.017.543-.253-.439.067-.662.196-1.042" fill="#606164"/><path d="m16.348 33.284c-.066.707.115 1.463.471 1.895.165-.735.291-1.41-.471-1.895m7.531-.461c-.04-.041-.083-.081-.124-.123-1.018.479-1.963 1.064-2.745 1.889-.068.072-.031.239-.058.502 1.049-.813 1.989-1.541 2.927-2.268m-3.385 2.288c-1.134.117-2.048-.386-2.946-.953-.367.671-.274 1.309-.236 1.939.016.249.169.433.432.403.995-.115 1.923-.427 2.724-1.053.026-.02.01-.101.026-.336m-3.809-2.468c.312.365.534.715.843.954.315.247.727.364 1.076.573.914.547 1.534.5 2.318-.189 1.064-.938 2.248-1.68 3.588-2.167.146-.052.283-.133.514-.245-.248-.205-.413-.394-.619-.502-.612-.314-1.232-.611-1.864-.886-.493-.216-.995-.268-1.518-.016-.471.228-1.002.333-1.463.573-.974.506-1.97.989-2.875 1.905m9.461-.925c-.421.332-.724.611-1.064.83-1.394.899-2.647 1.96-3.877 3.072-.929.838-2.116 1.279-3.394 1.368-.247.018-.496.002-.863.002-.204-.474-.475-.951-.62-1.466-.224-.792-.398-1.601-.513-2.415-.035-.254.106-.652.302-.801 1.432-1.075 2.958-1.993 4.644-2.631.841-.317 1.631-.185 2.413.147 1.042.442 1.942 1.115 2.972 1.894" fill="#231f20"/><path d="m28.535 54.736c.657.678 1.343.917 2.106.685 1.334-.405 2.445-1.148 3.131-2.41.367-.677.735-1.358 1.052-2.059.788-1.739 1.126-3.527.472-5.4-.264-.755-.701-1.346-1.413-1.759-.69-.399-1.218.007-1.793.24-.021.007-.033.033-.081.087.85.658 1.109 1.606 1.204 2.614.144 1.567-.08 3.103-.623 4.562-.676 1.808-1.844 3.138-4.055 3.44m4.165-7.368c-.021-.33.021-.682-.079-.988-.174-.54-.356-1.105-.68-1.558-.376-.53-.741-.51-1.243-.081-.312.269-.635.541-.881.869-.778 1.042-1.308 2.215-1.798 3.421-.41 1.006-.524 2.02-.46 3.071.027.435.09.882.234 1.29.292.821.534.917 1.378.66 1.209-.365 2.096-1.166 2.627-2.264.666-1.379.974-2.871.902-4.42m-5.659 4.308c.024-1.658.611-3.089 1.292-4.487.437-.898 1.039-1.676 1.718-2.414.658-.715 1.474-1.164 2.318-1.576.627-.306 1.291-.166 1.825.184.876.572 1.496 1.364 1.762 2.425.42 1.688.191 3.32-.441 4.879-.443 1.096-1.037 2.137-1.65 3.152-.654 1.087-1.701 1.711-2.888 2.094-1.17.377-2.427-.086-3.12-1.085-.683-.983-.873-2.077-.816-3.172" fill="#231f20"/><path d="m59.967 42.606c.925-.001 1.432-.194 1.901-.724 1.215-1.371 1.663-3.021 1.667-4.803 0-.39-.169-.813-.368-1.161-.291-.511-.696-.553-1.154-.182-.298.24-.579.505-.836.787-.993 1.094-1.327 2.464-1.53 3.863-.105.731-.103 1.492.32 2.22m3.174-7.588c.718.645 1.012 1.436.939 2.324-.096 1.126-.306 2.223-.754 3.287-.336.801-.867 1.377-1.478 1.949-.454.424-1.014.558-1.584.74.721.92 1.077 1.019 2.024.655.691-.267 1.223-.732 1.681-1.298.99-1.226 1.609-2.642 1.989-4.151.287-1.145.159-2.311-.102-3.457-.072-.313-.251-.614-.61-.577-.696.072-1.429.046-2.105.528m3.425 2.032c.159 1.712-.589 3.169-1.304 4.642-.47.969-1.131 1.768-1.994 2.403-.089.064-.174.139-.268.194-1.841 1.08-2.976.228-3.567-1.373-.599-1.629-.291-3.198.244-4.781.498-1.469 1.49-2.496 2.728-3.33.953-.643 2.047-.821 3.17-.81.177.002.403.167.514.323.351.486.446 1.066.475 1.651.014.36.002.72.002 1.081" fill="#231f20"/><path d="m16.685 32.644c.905-.918 1.901-1.4 2.875-1.905.461-.242.992-.346 1.463-.573.523-.253 1.025-.2 1.518.016.631.275 1.252.571 1.864.886.206.106.371.296.619.5-.231.112-.368.194-.514.247-1.34.485-2.524 1.228-3.588 2.165-.784.691-1.404.738-2.318.19-.349-.209-.761-.326-1.076-.573-.309-.24-.532-.589-.843-.953" fill="#ef4643"/><path d="m20.495 35.112c-.018.235 0 .314-.028.336-.8.625-1.728.937-2.723 1.052-.263.031-.417-.154-.431-.404-.039-.628-.131-1.267.234-1.937.898.567 1.814 1.07 2.948.953" fill="#aa2a1e"/><path d="m23.879 32.823c-.939.727-1.878 1.455-2.927 2.268.026-.264-.01-.431.057-.502.783-.825 1.728-1.41 2.746-1.889.04.041.084.083.124.123" fill="#aa2a1e"/><path d="m16.348 33.284c.762.485.636 1.16.471 1.895-.356-.432-.537-1.188-.471-1.895" fill="#aa2a1e"/><path d="m32.701 47.368c.071 1.548-.236 3.041-.902 4.42-.53 1.098-1.419 1.899-2.627 2.264-.844.255-1.087.161-1.378-.66-.144-.408-.208-.855-.235-1.29-.063-1.053.052-2.065.46-3.073.492-1.204 1.021-2.377 1.799-3.419.245-.328.569-.6.882-.869.5-.43.866-.449 1.243.081.322.453.506 1.018.678 1.558.1.306.058.658.08.988" fill="#fff"/><path d="m28.535 54.736c2.211-.302 3.379-1.632 4.055-3.44.543-1.459.767-2.995.623-4.562-.095-1.008-.354-1.956-1.204-2.614.048-.054.06-.08.081-.087.575-.233 1.103-.639 1.793-.24.712.413 1.149 1.004 1.413 1.759.654 1.873.316 3.661-.472 5.4-.317.701-.685 1.382-1.052 2.059-.686 1.262-1.797 2.005-3.131 2.41-.763.232-1.449-.007-2.106-.685" fill="#606164"/><path d="m63.142 35.019c.676-.483 1.409-.456 2.105-.529.357-.036.538.265.609.578.261 1.146.39 2.312.103 3.457-.38 1.509-.999 2.925-1.99 4.151-.459.566-.989 1.031-1.682 1.298-.947.364-1.303.264-2.024-.655.57-.182 1.13-.316 1.585-.742.61-.57 1.143-1.146 1.479-1.947.447-1.064.658-2.162.752-3.288.074-.887-.221-1.678-.937-2.323" fill="#606164"/><g fill="#fff"><path d="m59.967 42.606c-.423-.728-.425-1.489-.32-2.22.203-1.399.537-2.769 1.53-3.863.257-.282.538-.547.836-.787.458-.371.863-.329 1.154.182.199.348.368.771.368 1.161-.004 1.782-.452 3.432-1.667 4.803-.469.53-.976.723-1.901.724"/><path d="m17.662 31.819s2.909-.46 2.603 0c-.307.46 4.244-.004 4.244-.004l-1.411.539s-4.747.537-4.671.23c.076-.305-1.743.06-1.743.06z"/><path d="m27.462 22.937s5.591-2.296 5.514-1.377c-.078.917 7.12-.46 7.12-.46l3.066-.325-1.355-.353s-6.875 1.582-7.05.593c-.174-.987-1.781-.987-2.089-.834-.306.152-6.48 1.929-6.48 1.929z"/><path d="m31.138 39.475s4.44-3.292 4.364-2.449c-.076.842 0 1.225 0 1.225l9.481-5.367.013.772s-8.727 5.897-9.264 5.207c-.535-.689-.612-1.149-1.147-.918-.537.229-2.511 2.046-2.511 2.046z"/></g><path d="m14.981 46.98c.659.321-.147-.419-.765-1.684-.453-.929 4.976-1.609 4.976-1.609l-1.797 2.586-.581 1.439z" fill="#fff200"/><path d="m8.321 41.39-.077-2.22-.905 1.594z" fill="#fff200"/></g></svg>