<svg clip-rule="evenodd" fill-rule="evenodd" stroke-linejoin="round" stroke-miterlimit="2" viewBox="0 0 71 49" xmlns="http://www.w3.org/2000/svg"><g fill-rule="nonzero"><path d="m55.895 33.879.005-.008c-.25-.182-.497-.372-.752-.548-.872-.6-1.036-.626-1.622.242-.69 1.021-1.272 2.117-1.872 3.196-.233.418-.171.754.353.978.759.324 1.502.695 2.217 1.105.579.333.807.088 1.053-.414.337-.693.712-1.375 1.139-2.014 1.022-1.524 1.261-1.227-.396-2.446-.042-.03-.083-.061-.125-.091m1.161 3.114c-.33.638-.66 1.277-.993 1.913-.279.535-.09.866.432 1.102.894.4 1.787.808 2.663 1.247 2.112 1.054 2.117 1.059 3.566-.863.521-.69.522-.729-.108-1.249-.999-.821-2.006-1.631-3.006-2.451-1.371-1.126-1.436-1.118-2.554.301m-8.63-4.709c.036.033.071.065.108.099-.335.459-.673.914-1.001 1.378-.089.123-.158.268-.209.413-.339.952-.144 1.413.787 1.835.563.256 1.131.502 1.708.73.717.284.853.212 1.21-.465.384-.727.779-1.45 1.191-2.162.38-.659.79-1.3 1.187-1.95-.596-.562-1.205-1.112-1.784-1.69-.456-.454-.918-.46-1.359-.043-.632.599-1.228 1.234-1.838 1.855m17.977 11.814c-.012-.01-.024-.019-.037-.026.642-.88 1.285-1.758 1.924-2.638.254-.347.508-.752.093-1.098-.671-.558-1.356-1.133-2.121-1.534-.713-.373-1.078-.156-1.505.576-.127.216-.19.529-.377.641-1.56.936-2.313 2.515-3.045 4.027-.798 1.65-.867 2.009.994 2.852.236.106.485.187.713.309.563.304.994.125 1.344-.35.676-.917 1.345-1.839 2.017-2.759m-33.65-26.967c-.458-.402-.737-.695-1.061-.923-4.718-3.31-9.44-6.612-14.163-9.914-.17-.12-.34-.24-.521-.341-.351-.197-.602-.047-.749.277-.68 1.499-.913 3.019.161 4.42.752.98 1.58 1.924 2.488 2.762 2.464 2.278 5.472 3.543 8.68 4.329 1.701.418 3.361.049 5.165-.61m17.5 12.295c-.458-.401-.783-.734-1.153-1.006-2.473-1.818-4.928-3.662-7.443-5.421-2.299-1.608-4.672-3.111-7-4.68-.474-.319-.907-.403-1.454-.188-2.674 1.053-5.295.976-8.047.03-3.079-1.059-5.747-2.66-8.003-4.95-.792-.803-1.422-1.786-2.023-2.749-.578-.923-.644-1.964-.288-3.006.201-.589.395-1.184.647-1.753.215-.48.086-.759-.341-1.026-1.057-.662-2.062-1.41-3.142-2.028-.943-.539-1.944-.985-2.95-1.398-.415-.17-.927-.256-1.365-.19-1.884.283-3.652.808-4.713 2.611-.289.491-.674.923-1.002 1.392-1.366 1.958-1.048 4.601.742 6.201.581.52 1.205.997 1.739 1.56 2.354 2.486 5.172 4.358 8.144 5.971 3.19 1.731 6.475 3.296 9.748 4.87 4.446 2.134 8.925 4.198 13.377 6.318 1.778.848 3.519 1.776 5.285 2.648 1.656.815 3.323 1.605 4.997 2.413.849-2.343 2.156-4.163 4.245-5.619m17.14 15.283c-.644.883-1.272 1.777-1.935 2.644-1.025 1.341-1.353 1.418-2.881.77-.287-.122-.6-.2-.859-.364-2.294-1.448-2.127-1.471-1.475-3.575.308-.996.315-1.041-.655-1.504-4.216-2.012-8.452-3.982-12.666-6.001-2.153-1.032-4.272-2.134-6.406-3.202-1.438-.721-2.863-1.469-4.318-2.155-4.602-2.171-9.237-4.277-13.82-6.491-3.692-1.784-7.363-3.618-10.975-5.557-2.476-1.328-4.754-2.975-6.775-4.956-.891-.874-1.864-1.66-2.777-2.511-2.062-1.925-2.376-4.957-.702-7.195.837-1.121 1.773-2.169 2.679-3.236.199-.233.44-.545.703-.592 1.608-.289 3.191-1.13 4.862-.461 1.103.441 2.204.939 3.2 1.578 3.194 2.047 6.367 4.133 9.495 6.279 2.96 2.032 5.828 4.198 8.785 6.234 3.467 2.389 7.02 4.651 10.473 7.059 3.324 2.319 6.688 4.586 9.743 7.28 1.91 1.683 3.96 3.207 5.963 4.782 1.923 1.51 3.87 2.988 5.798 4.494.923.72.932.751 1.721-.085.316-.336.633-.493 1.09-.438 1.869.22 3.111 1.34 4.062 2.848.319.504.093.998-.234 1.443-.709.964-1.412 1.931-2.118 2.897.008.006.016.01.022.015" fill="#231f20"/><path d="m50.253 29.426c-2.089 1.457-3.396 3.276-4.245 5.618-1.674-.807-3.342-1.597-4.997-2.413-1.767-.871-3.507-1.799-5.285-2.647-4.452-2.12-8.932-4.183-13.377-6.318-3.274-1.574-6.558-3.139-9.749-4.871-2.971-1.612-5.79-3.484-8.143-5.97-.534-.564-1.159-1.04-1.739-1.559-1.79-1.6-2.108-4.244-.742-6.202.328-.469.713-.901 1.002-1.391 1.061-1.803 2.829-2.329 4.712-2.612.439-.066.951.02 1.366.19 1.006.413 2.007.859 2.95 1.398 1.08.619 2.085 1.366 3.142 2.028.427.267.556.546.341 1.026-.253.568-.447 1.163-.647 1.754-.357 1.041-.29 2.082.288 3.005.601.964 1.231 1.946 2.023 2.75 2.255 2.289 4.924 3.89 8.003 4.949 2.751.946 5.373 1.023 8.047-.03.547-.215.98-.13 1.454.189 2.327 1.568 4.701 3.072 6.999 4.679 2.515 1.759 4.97 3.604 7.444 5.421.369.272.695.604 1.153 1.006" fill="#f0cb7a"/><path d="m32.752 17.131c-1.803.659-3.464 1.028-5.164.611-3.209-.787-6.217-2.051-8.681-4.33-.908-.838-1.735-1.782-2.487-2.762-1.075-1.401-.84-2.921-.161-4.42.146-.324.397-.474.749-.277.18.102.351.221.52.341 4.723 3.303 9.446 6.605 14.163 9.915.324.227.603.52 1.061.922" fill="#6dc7f1"/><path d="m66.403 44.097c-.672.92-1.342 1.842-2.016 2.76-.351.476-.781.653-1.346.35-.227-.123-.476-.203-.711-.31-1.862-.841-1.793-1.201-.995-2.852.731-1.51 1.486-3.09 3.045-4.025.186-.112.25-.426.376-.643.427-.73.792-.949 1.506-.575.766.402 1.449.976 2.121 1.533.414.346.161.751-.093 1.1-.64.88-1.282 1.757-1.923 2.636.011.008.024.017.036.026" fill="#f0cb7a"/><path d="m48.425 32.284c.612-.621 1.207-1.256 1.839-1.855.44-.418.902-.411 1.358.043.579.578 1.19 1.127 1.786 1.69-.398.649-.807 1.291-1.188 1.95-.412.712-.808 1.434-1.192 2.162-.356.677-.493.748-1.21.465-.577-.227-1.144-.474-1.708-.731-.931-.422-1.125-.882-.786-1.834.05-.146.121-.29.208-.414.328-.463.666-.919 1.001-1.377-.035-.034-.072-.066-.108-.099" fill="#ed1c24"/><path d="m57.056 36.992c1.118-1.419 1.183-1.425 2.554-.301 1 .82 2.007 1.63 3.006 2.451.63.52.627.56.108 1.25-1.449 1.923-1.454 1.916-3.566.862-.876-.438-1.769-.846-2.663-1.247-.523-.234-.712-.566-.432-1.1.333-.638.662-1.276.993-1.915" fill="#ed1c24"/><path d="m55.895 33.879c.042.03.083.061.125.091 1.657 1.219 1.418.922.396 2.446-.427.639-.802 1.321-1.139 2.014-.246.502-.474.747-1.053.414-.715-.41-1.458-.781-2.217-1.105-.524-.224-.586-.56-.353-.978.6-1.079 1.182-2.175 1.872-3.196.586-.868.75-.842 1.622-.242.255.176.502.366.752.548z" fill="#b12a30"/><path d="m14.33 17.979c5.735 2.378 11.848 3.69 17.75 5.621 11.272 3.686 21.79 9.669 30.719 17.474-.367.784-.268 1.902.507 2.285.849.42 1.835-.311 2.332-1.118.496-.807.828-1.785 1.63-2.291.696.402 1.391.804 2.087 1.206-1.926 1.107-2.8 3.384-4.265 5.054-1.466 1.67-4.526 2.519-5.682.621.47-1.544.941-3.087 1.409-4.631-10.999-5.46-26.52-11.12-38.936-18.424-3.91-2.301-7.819-4.601-11.728-6.901-2.873-1.69-6.829-3.978-8.037-7.245 3.382 3.74 7.572 6.424 12.214 8.349" fill="#3b2314" opacity=".2"/><path d="m7.071 2.182c-1.23.407-2.331 1.196-3.112 2.231-.55.727-.952 1.648-.757 2.539.3 1.361 1.94 2.089 3.308 1.821 1.369-.268 2.478-1.259 3.396-2.308.292-.332.579-.693.671-1.124.102-.488-.066-.994-.304-1.433-.656-1.212-1.887-2.094-3.246-2.327" fill="#fff"/></g></svg>