<svg clip-rule="evenodd" fill-rule="evenodd" stroke-linejoin="round" stroke-miterlimit="2" viewBox="0 0 74 55" xmlns="http://www.w3.org/2000/svg"><g fill-rule="nonzero"><path d="m20.689 33.328c.636-1.083 1.188-2.007 1.717-2.944.086-.15.158-.425.084-.522-.291-.375-.111-.75-.086-1.123.086-1.164.206-2.325.262-3.491.033-.727-.173-.858-.824-.493-.879.492-1.781.979-2.54 1.626-1.384 1.184-2.694 2.459-3.988 3.748-.487.485-.871 1.089-1.247 1.675-.504.786-.401 1.241.403 1.715.5.295 1.04.54 1.59.72 1.145.376 2.309.696 3.468 1.029.093.027.204-.016.34-.03.081-1.14-.226-2.18-.492-3.233-.074-.294-.354-.748.152-.887.443-.12.541.35.66.66.174.456.302.929.501 1.55m2.674 3.828c-.042.098-.086.197-.129.296.74.675 1.491 1.339 2.207 2.038.127.124.107.397.157.601-.21.031-.438.129-.623.074-.21-.061-.402-.234-.564-.398-.598-.609-1.177-1.237-1.772-1.85-.269-.277-.537-.57-.856-.775-.11-.069-.544.114-.543.172.025.776-.665 1.207-.864 1.877-.398 1.343-.875 2.663-1.29 4.001-.257.828-.31 1.682-.11 2.538.093.401.346.63.76.523.486-.126.977-.267 1.424-.483 1.087-.523 2.121-1.163 3.23-1.628 1.465-.616 2.983-1.11 4.477-1.659 1.019-.375 1.083-.599.385-1.385-.18-.201-.396-.371-.592-.563-.832-.811-1.651-1.638-2.502-2.431-.249-.231-.561-.441-.883-.537-.624-.184-1.274-.28-1.912-.411m-19.787-3.584c-.02.473-.058.782-.042 1.086.118 2.156.892 4.166 1.408 6.234.017.075.068.14.098.212.188.444.492.632 1 .61 4.769-.222 9.297-1.293 13.426-3.773.285-.171.526-.444.729-.712.154-.203-.037-.484-.292-.482-.114.002-.228.038-.341.063-1.912.43-3.856.423-5.8.436-3.377.021-6.445-.894-9.143-2.968-.298-.229-.624-.423-1.043-.706m15.738 5.563c-.345.135-.629.238-.909.355-1.892.785-3.681 1.832-5.759 2.144-.981.145-2.008.27-2.722 1.112-2.178 1.106-4.224 2.468-6.535 3.317-.651.238-1.252.618-1.879.927-.372.184-.55.434-.29.828.978 1.49 1.832 3.085 2.978 4.432 1.208 1.42 1.25 1.223 2.466.067 2.191-2.084 4.401-4.15 6.509-6.316 1.836-1.885 3.974-3.465 5.579-5.586.286-.377.586-.692.562-1.28m50.949-29.481c-.52-.19-.872-.363-1.244-.449-4.792-1.092-9.46-2.602-14.026-4.385-4.605-1.796-9.426-2.642-14.216-3.662-.427-.09-.627.072-.517.492.195.745.42 1.498.745 2.195.821 1.762 1.713 3.492 2.561 5.243 1.711 3.535 3.404 7.08 5.125 10.611.645 1.323.517 1.246 1.758.583 6.348-3.389 12.696-6.78 19.042-10.171.235-.126.459-.271.772-.457m1.692.414c-.084-.063-.168-.124-.251-.187-.303.143-.616.27-.909.431-.408.225-.794.49-1.205.712-6.029 3.245-12.061 6.488-18.095 9.728-1.901 1.02-1.909 1.015-.85 2.988 1.361 2.541 2.744 5.069 4.085 7.62.832 1.584 1.601 3.202 2.408 4.8.753 1.493 1.504 2.985 2.282 4.465.232.44.475.427.759-.035.304-.495.577-1.015.818-1.543.666-1.45 1.311-2.908 1.957-4.366.553-1.244 1.134-2.478 1.628-3.745.71-1.81 1.443-3.62 1.993-5.481.432-1.462.924-2.882 1.569-4.262.412-.878.79-1.778 1.107-2.694.623-1.802 1.196-3.622 1.779-5.437.32-.994.618-1.996.925-2.994m-48.692 25.802c.014.079.028.159.043.237.604.079 1.218.109 1.808.246 2.464.571 4.918 1.187 7.383 1.758.982.229 1.977.42 2.976.569 2.693.398 5.412.654 8.082 1.17 4.65.895 9.354 1.029 14.056 1.245.237.01.478-.101.752-.164-1.018-2.125-1.938-4.179-2.972-6.175-2.004-3.873-4.073-7.715-6.113-11.572-.509-.96-.507-.96-1.456-.467-.068.037-.137.074-.204.112-7.79 4.17-15.58 8.342-23.368 12.513-.329.177-.659.353-.987.528m16.32-33.103c-.943 1.375-1.85 2.629-2.684 3.93-3.738 5.833-7.155 11.854-10.407 17.97-1.477 2.781-2.958 5.56-4.429 8.345-.199.377-.391.77-.501 1.179-.123.454-.523.891-.183 1.411.427-.15.883-.246 1.277-.456 8.203-4.376 16.398-8.765 24.597-13.153.205-.11.405-.234.618-.329.447-.197.534-.459.309-.919-.755-1.534-1.47-3.09-2.207-4.634-.267-.563-.557-1.114-.824-1.677-1.172-2.456-2.343-4.916-3.508-7.377-.566-1.192-1.12-2.391-1.684-3.586-.094-.203-.21-.397-.374-.704m-12.278 35.404c.608.519 1.258.996 1.81 1.569.531.551 1.055 1.151 1.414 1.819.455.85.21 1.272-.695 1.587-1.245.436-2.513.814-3.729 1.323-1.431.598-2.808 1.327-4.222 1.965-.633.286-1.287.56-1.961.714-.964.22-1.455-.127-1.755-1.071-.252-.798-.245-1.61-.108-2.425.052-.304.128-.604.248-1.17-.836.711-1.526 1.238-2.149 1.838-2.992 2.887-5.961 5.798-8.948 8.691-1.5 1.454-2.11 1.439-3.526-.092-1.474-1.59-2.446-3.503-3.444-5.396-.204-.388-.081-.698.251-.9.396-.242.817-.449 1.243-.634 2.21-.966 4.426-1.916 6.514-3.133.166-.097.33-.2.479-.45-.818.042-1.643.037-2.455.136-.949.116-1.611-.174-1.903-1.114-.414-1.334-.804-2.675-1.211-4.011-.437-1.434-.447-2.918-.503-4.392-.008-.23.13-.533.304-.673.103-.081.443.045.62.162.942.624 1.859 1.281 2.793 1.915 1.579 1.076 3.345 1.706 5.234 1.827 2.053.13 4.117.091 6.178.107.294.003.588-.098.92-.318-.219-.093-.435-.195-.659-.275-1.244-.442-2.501-.852-3.731-1.331-.542-.21-.994-.577-1.278-1.138-.274-.539-.337-1.039.032-1.533.647-.871 1.246-1.788 1.981-2.579.868-.939 1.902-1.724 2.782-2.653 1.157-1.218 2.597-1.963 4.078-2.652.964-.448 1.519-.134 1.557.924.032.851-.089 1.708-.148 2.563-.025.372-.058.747.065 1.165.34-.68.671-1.361 1.022-2.035 2.634-5.076 5.317-10.13 8.352-14.983 1.671-2.671 3.411-5.298 5.074-7.973.53-.853.947-1.781 1.36-2.699.352-.785.497-.939 1.307-.77 3.2.668 6.432 1.225 9.58 2.084 2.846.777 5.612 1.866 8.395 2.865 4.074 1.459 8.213 2.683 12.415 3.7.414.102.846.116 1.268.176.872.124.933.203.715 1.036-.267 1.015-.533 2.034-.84 3.039-.646 2.123-1.286 4.248-1.994 6.349-.336.993-.83 1.928-1.231 2.899-.312.753-.659 1.503-.876 2.286-1.121 4.067-2.752 7.932-4.558 11.733-.551 1.16-1.027 2.354-1.555 3.524-.37.815-.757 1.629-1.497 2.195-.59.45-1.218.619-1.952.333-.315-.121-.676-.144-1.017-.166-2.99-.19-5.982-.337-8.967-.565-1.394-.108-2.784-.326-4.161-.565-3.031-.524-6.047-1.102-9.12-1.344-1.112-.087-2.209-.424-3.308-.677-1.251-.29-2.493-.615-3.742-.915-.21-.05-.434-.043-.654-.063-.031.057-.063.114-.094.171" fill="#231f20"/><path d="m39.582 2.767c.164.307.28.501.376.704.562 1.196 1.118 2.394 1.682 3.587 1.167 2.461 2.337 4.92 3.508 7.377.269.563.557 1.114.826 1.677.735 1.544 1.451 3.099 2.206 4.633.226.46.138.723-.308.92-.214.094-.413.218-.62.328-8.197 4.388-16.393 8.777-24.597 13.154-.394.21-.848.305-1.275.455-.34-.52.06-.957.182-1.411.11-.408.303-.801.5-1.178 1.473-2.785 2.954-5.565 4.431-8.346 3.251-6.116 6.669-12.136 10.405-17.969.834-1.301 1.743-2.556 2.684-3.931" fill="#70caca"/><path d="m23.262 35.871c.328-.177.658-.353.987-.528 7.79-4.173 15.58-8.343 23.368-12.514.069-.037.136-.076.205-.111.948-.494.947-.493 1.455.467 2.041 3.855 4.109 7.697 6.113 11.572 1.034 1.995 1.954 4.049 2.973 6.174-.275.063-.516.175-.753.165-4.702-.217-9.406-.35-14.056-1.246-2.67-.515-5.388-.771-8.081-1.171-.999-.147-1.994-.338-2.977-.567-2.465-.573-4.919-1.188-7.383-1.76-.59-.135-1.204-.165-1.808-.244-.013-.08-.029-.158-.043-.237" fill="#d2e286"/><path d="m71.954 10.069c-.307.998-.606 2-.924 2.994-.584 1.815-1.157 3.635-1.78 5.436-.315.917-.695 1.817-1.107 2.695-.644 1.378-1.137 2.8-1.569 4.262-.549 1.861-1.283 3.671-1.991 5.481-.496 1.266-1.077 2.499-1.63 3.745-.646 1.458-1.291 2.916-1.957 4.366-.241.528-.513 1.047-.817 1.542-.284.462-.527.475-.758.036-.779-1.48-1.532-2.974-2.284-4.465-.806-1.599-1.576-3.216-2.408-4.802-1.342-2.549-2.724-5.077-4.085-7.618-1.057-1.974-1.05-1.968.851-2.99 6.033-3.238 12.065-6.481 18.095-9.728.412-.22.796-.485 1.204-.71.294-.161.606-.288.909-.431.084.063.167.124.251.187" fill="#f05a89"/><path d="m70.262 9.654c-.313.186-.537.331-.771.457-6.346 3.391-12.695 6.782-19.042 10.171-1.242.663-1.113.74-1.759-.581-1.721-3.531-3.413-7.076-5.124-10.613-.849-1.751-1.74-3.48-2.561-5.243-.326-.697-.55-1.45-.746-2.195-.11-.419.09-.582.517-.492 4.791 1.02 9.611 1.866 14.216 3.663 4.566 1.782 9.234 3.292 14.026 4.386.373.084.724.257 1.244.447" fill="#ffde40"/><path d="m19.313 39.135c.024.587-.276.903-.563 1.28-1.605 2.121-3.742 3.7-5.577 5.586-2.108 2.165-4.318 4.233-6.509 6.316-1.217 1.155-1.258 1.352-2.467-.067-1.145-1.347-1.999-2.943-2.978-4.432-.261-.395-.083-.645.29-.829.627-.308 1.229-.687 1.88-.927 2.311-.848 4.356-2.211 6.534-3.316.714-.843 1.741-.966 2.723-1.113 2.078-.311 3.866-1.358 5.759-2.144.28-.115.564-.22.908-.354" fill="#93d9f8"/><path d="m3.576 33.572c.42.283.744.477 1.043.706 2.698 2.073 5.767 2.989 9.144 2.968 1.942-.013 3.887-.006 5.799-.436.112-.024.228-.061.342-.063.253-.003.445.279.292.481-.205.27-.446.542-.73.713-4.129 2.48-8.657 3.551-13.425 3.772-.51.023-.814-.165-1.001-.61-.029-.071-.08-.137-.099-.211-.514-2.068-1.288-4.078-1.406-6.234-.018-.305.021-.612.041-1.086" fill="#f05a89"/><g fill="#93d9f8"><path d="m23.363 37.156c.638.133 1.288.229 1.912.413.32.094.635.304.883.537.851.793 1.67 1.618 2.503 2.431.195.19.411.36.591.563.698.784.634 1.008-.384 1.384-1.494.549-3.013 1.042-4.478 1.658-1.108.465-2.143 1.105-3.229 1.628-.448.217-.939.357-1.424.483-.415.107-.667-.122-.76-.523-.2-.855-.147-1.708.11-2.538.414-1.337.891-2.658 1.289-4.001.199-.668.889-1.099.865-1.876-.002-.059.432-.242.542-.172.319.206.587.497.856.774.595.613 1.172 1.241 1.772 1.851.162.163.355.336.565.397.184.055.412-.042.621-.072-.049-.205-.029-.479-.156-.602-.715-.7-1.467-1.362-2.207-2.038.043-.1.088-.198.129-.297"/><path d="m20.689 33.328c-.199-.621-.327-1.094-.501-1.55-.119-.31-.217-.78-.66-.66-.506.139-.226.593-.152.887.266 1.053.573 2.093.492 3.233-.136.014-.247.057-.34.03-1.159-.333-2.323-.653-3.468-1.029-.55-.18-1.09-.425-1.59-.72-.804-.474-.907-.929-.403-1.715.376-.586.76-1.19 1.247-1.675 1.294-1.289 2.604-2.564 3.988-3.748.759-.647 1.661-1.134 2.54-1.626.651-.365.857-.234.824.493-.056 1.166-.176 2.327-.262 3.491-.025.373-.205.748.086 1.123.074.097.002.372-.084.522-.529.937-1.081 1.861-1.717 2.944"/></g></g></svg>