<svg clip-rule="evenodd" fill-rule="evenodd" stroke-linejoin="round" stroke-miterlimit="2" viewBox="0 0 75 60" xmlns="http://www.w3.org/2000/svg"><g fill-rule="nonzero"><path d="m15.995 14.507c.608 0 1.166-.015 1.723.005.317.013.632.089.948.127.255.03.426-.032.42-.347-.017-.764-.137-1.508-.353-2.296-1.233.542-2.023 1.477-2.738 2.511m-4.234 2.249c2.767.356 5.279 1.226 7.713 2.452-.038-.443-.072-.808-.101-1.173-.063-.789-.113-1.577-.189-2.364-.04-.436-.11-.49-.543-.561-.341-.054-.682-.126-1.026-.145-.591-.031-1.17-.047-1.75.193-1.321.548-2.665 1.042-4.104 1.598m-7.019 33.437c.191-.052.245-.052.284-.078 1.504-.975 3.131-1.707 4.787-2.372.966-.387 1.958-.707 2.935-1.064.472-.172.476-.178.486-.689.009-.447.005-.892.005-1.339.003-1.396.003-1.396-1.218-.717-.043.024-.085.052-.128.075-1.155.622-2.279 1.291-3.505 1.789-1.14.466-2.215 1.097-3.307 1.679-.15.081-.316.29-.323.446-.034.734-.016 1.47-.016 2.27m.002-10.404c.376-.15.631-.244.878-.352.768-.34 1.512-.749 2.305-1.017 1.934-.656 3.7-1.656 5.501-2.582.573-.295 1.067-.715 1.447-1.251.214-.301.177-.605.029-.911-.16-.33-.442-.459-.793-.425-.444.044-.878.11-1.246.411-.208.168-.452.303-.695.419-1.073.506-2.15 1.004-3.228 1.499-.27.125-.557.212-.823.34-1 .486-1.995.981-2.991 1.475-.205.102-.386.229-.386.496.003.588.002 1.177.002 1.898m.022-7.018c.208-.09.338-.145.465-.204.606-.281 1.195-.607 1.819-.837 1.956-.72 3.82-1.634 5.677-2.566.66-.331 1.278-.749 1.903-1.149.395-.254.506-.553.413-.938-.073-.297-.376-.548-.806-.53-.436.017-.918.045-1.291.239-1.435.747-2.964 1.248-4.47 1.804-1.067.393-2.163.711-3.246 1.055-.221.069-.457.117-.46.401-.01.884-.004 1.768-.004 2.725m.061 10.88c.416-.192.793-.368 1.174-.54.519-.233 1.046-.45 1.555-.701 1.799-.886 3.492-1.978 5.375-2.696.133-.051.308-.227.312-.349.026-.935.015-1.871.015-2.921-.366.178-.628.301-.887.429-.928.466-1.84.969-2.786 1.397-1.464.662-2.948 1.282-4.433 1.9-.296.123-.427.274-.421.599.017.842.003 1.683.009 2.524.001.112.053.226.087.358m9.24-28.295c.388-.158.747-.305 1.108-.448.266-.105.416-.266.515-.563.115-.341.349-.654.582-.938.568-.69 1.193-1.328 2.018-1.721.302-.144.374-.332.259-.655-.23-.653-.424-1.318-.633-1.979-.386-1.219-1.131-2.19-2.117-2.981-.761-.61-1.032-.532-1.184.446-.203 1.291-.306 2.597-.441 3.897-.053.516-.096 1.035-.104 1.553-.015 1.107-.003 2.215-.003 3.389m-9.28 31.764c.61-.319 1.128-.594 1.651-.859.616-.314 1.233-.626 1.856-.926.646-.311 1.315-.578 1.949-.915 1.239-.656 2.463-1.346 3.691-2.026.73-.403 1.071-1.34.778-2.115-.087-.228-.238-.381-.499-.36-.17.015-.34.057-.507.099-1.189.303-2.263.871-3.328 1.453-1.415.773-2.833 1.533-4.355 2.087-.323.118-.623.299-.94.441-.264.114-.357.306-.351.586.01.495-.013.99-.007 1.487.004.313.036.626.062 1.048m-.051 6.465c1.951-.711 3.774-1.583 5.532-2.591.985-.563 1.918-1.214 2.988-1.634.43-.167.811-.467 1.205-.72.314-.202.447-.491.45-.877.006-.983-.281-1.221-1.212-.918-.446.146-.87.358-1.319.495-1.994.605-3.883 1.465-5.752 2.37-.51.247-.998.545-1.485.835-.241.143-.414.336-.411.654.012.784.004 1.567.004 2.386m.04-24.226c.332-.088.553-.127.759-.205 2.222-.845 4.452-1.671 6.658-2.558 1.195-.481 1.166-.529 1.083-1.805-.02-.312-.153-.443-.447-.467-.616-.051-1.232-.139-1.849-.159-.842-.028-1.686-.006-2.529-.008-1.166 0-2.244.332-3.282.837-.289.141-.399.327-.393.637.013.569.002 1.14 0 1.709zm-.027 7.79c.397-.242.657-.433.942-.57 1.71-.833 3.425-1.655 5.14-2.475.67-.32 1.338-.643 2.023-.927.336-.141.422-.354.414-.689-.015-.84-.001-1.682-.009-2.523 0-.13-.049-.261-.085-.435-.168.087-.272.148-.382.198-1.617.741-3.18 1.596-4.867 2.193-.953.336-1.863.797-2.792 1.2-.214.092-.389.196-.388.475.008 1.133.004 2.266.004 3.553m24.447-24.085c-.021-.482-.025-.822-.055-1.159-.066-.738-.179-1.474-.212-2.214-.048-1.091-.321-2.097-.959-2.993-.33-.462-.649-.936-1.017-1.368-.32-.375-.669-.743-1.063-1.034-.371-.273-.798-.538-1.237-.633-.598-.129-1.233-.14-1.849-.115-.791.031-1.586.127-2.248.645-.334.261-.347.311-.126.661.274.44.627.85.808 1.326.566 1.482.95 3.017 1.111 4.6.058.568.048.543.617.573.863.047 1.745.039 2.579.233.857.199 1.67.605 2.497.935.342.136.668.312 1.154.543m-12.341-11.123c1.062.429 1.835 1.088 2.621 1.729.435.357.432.36.964.04.47-.282.953-.524 1.519-.554.543-.027 1.083-.083 1.625-.109 1.211-.06 2.24.37 3.064 1.243.475.501.883 1.063 1.336 1.586 1.022 1.176 1.446 2.561 1.507 4.093.039.987.134 1.974.182 2.962.017.343.159.592.471.679.765.212 1.333.743 1.978 1.151.322.204.643.409 1.094.693-.153-1.477-.322-2.796-.419-4.121-.101-1.389-.451-2.728-.737-4.081-.171-.811-.501-1.563-.986-2.224-.542-.737-1.153-1.423-1.732-2.131-.699-.853-1.583-1.415-2.654-1.67-.577-.139-1.16-.251-1.743-.359-1.251-.23-2.504-.3-3.762-.053-.534.104-1.069.223-1.61.272-.928.087-1.783.378-2.718.854m-3.089 37.475c.136-.006.229-.013.322-.015.705-.012.966.221 1.141.9.214.833-.024 1.51-.626 2.084-.18.17-.366.335-.568.477-.201.145-.286.324-.283.567.007.819-.004 1.635.01 2.454.006.383.036.424.443.344.69-.136 1.126.372 1.148.939.006.198 0 .397.012.595.041.59-.094 1.001-.738 1.271-.84.348-.81.423-.81 1.364 0 .248-.001.495.005.743.019.583.082.708.675.762.737.068 1.485.087 2.226.051.674-.031.874-.309.874-1.002-.005-5.252-.009-10.503-.014-15.755-.004-2.823-.017-5.647-.006-8.471.002-.453-.113-.729-.559-.907-.643-.257-1.251-.599-1.887-.874-.422-.182-.867-.313-1.286-.463-.063.117-.102.159-.106.203-.01.196-.016.395-.016.593.002.618.004.618.596.742.098.019.194.043.289.068.517.137.916.404.98.98.063.548-.059 1.03-.577 1.344-.338.205-.658.442-.996.648-.188.115-.288.256-.287.479.002.966.004 1.931-.001 2.898-.002.253.11.36.36.346.123-.006.248.003.371-.001.538-.011.842.338.974.772.132.43.249.916-.198 1.299-.375.321-.708.692-1.092.998-.3.237-.438.489-.423.881.03.742.006 1.486.01 2.229.001.143.023.285.037.457m-8.967-21.12c.986-.813 2.063-.979 3.139-1.148.341-.054.693-.078 1.023-.174 1.447-.415 2.886-.859 4.332-1.279.328-.096.3-.32.305-.58.038-2.001.04-4.006.154-6.004.06-1.078.302-2.146.488-3.214.071-.404.108-.421-.277-.52-1.34-.343-2.676-.504-3.978.165-.286.147-.585.269-.881.395-1.798.769-2.885 2.128-3.29 4.022-.243 1.133-.472 2.272-.623 3.419-.178 1.346-.268 2.703-.388 4.055-.021.239-.004.481-.004.863m15.189 8.38c.058-.104.082-.126.079-.147-.136-1.747-.322-3.494-.393-5.245-.042-1.03-.499-1.661-1.401-2.046-.137-.058-.272-.121-.41-.173-1.093-.397-2.175-.829-3.284-1.175-1.23-.385-2.5-.675-3.796-.548-1.399.137-2.791.37-4.179.609-.378.065-.741.273-1.086.462-.512.278-.773.681-.753 1.322.049 1.534.017 3.07.02 4.604 0 .158.031.316.049.509.906-.796 1.974-1.055 3.059-1.114 1.408-.077 2.825-.063 4.232.01 1.006.052 2.027.155 2.968.587 1.323.607 2.643 1.223 3.96 1.843.31.146.606.324.935.502m53.566 19.713c-.42-.063-.76-.117-1.099-.162-1.323-.174-2.646-.353-3.972-.512-.935-.111-1.867-.205-2.757-.55-.624-.239-1.274-.409-1.902-.639-.626-.229-1.276-.432-1.853-.757-1.121-.631-2.207-1.33-3.296-2.016-1.117-.704-2.048-1.636-3.029-2.509-1.353-1.204-2.658-2.451-3.89-3.777-.337-.363-.686-.72-1.065-1.038-1.437-1.209-2.533-2.707-3.612-4.221-.315-.443-.602-.911-.95-1.329-1.233-1.487-2.475-2.967-3.737-4.429-1.116-1.295-2.285-2.543-3.389-3.848-.536-.632-1.124-1.172-1.809-1.635-1.436-.974-2.843-1.988-4.265-2.98-.507-.354-1.049-.666-1.531-1.052-.497-.399-1.186-.47-1.604-.986-.041-.052-.132-.063-.2-.094-.742-.346-1.471-.72-2.228-1.027-.732-.296-1.479-.586-2.245-.758-.741-.168-1.516-.187-2.278-.263-.254-.026-.363.115-.336.362.019.172.039.344.068.513.119.707.287 1.408.351 2.12.059.633.135.539.656.708.518.166 1.042.321 1.539.536 2.22.96 4.229 2.282 6.168 3.703 1.299.95 2.533 1.989 3.799 2.984 2.197 1.727 4.151 3.678 5.65 6.054.12.189.252.368.391.544 1.796 2.28 3.807 4.37 5.871 6.4 1.201 1.182 2.491 2.27 3.605 3.538.163.185.352.35.547.504 1.514 1.198 2.975 2.467 4.645 3.459.36.214.699.469 1.03.727 1.262.982 2.701 1.655 4.125 2.352.219.108.469.157.707.225 1.546.44 3.103.847 4.639 1.327 1.171.366 2.343.598 3.577.546.438-.017.886.051 1.321.13 1.039.192.8.271 1.354-.558.109-.164.24-.315.344-.484.217-.351.423-.711.66-1.108m-49.674-24.05c-.06.026-.118.053-.177.078 0 .244-.007.488.003.732.036 1.04.087 2.078.116 3.117.027.966.03 1.933.055 2.899.008.319-.19.622.117.959 1.202 1.317 2.337 2.698 3.546 4.007 1.058 1.147 2.249 2.177 3.262 3.361 1.246 1.451 2.612 2.782 3.908 4.18 2.018 2.174 4.374 3.954 6.735 5.72 2.127 1.594 4.463 2.86 6.865 3.996 1.859.879 3.75 1.693 5.596 2.598 1.343.659 2.729 1.182 4.152 1.614.709.215 1.437.377 2.149.584.28.083.423-.015.512-.259.386-1.035 1.04-1.906 1.688-2.781.541-.731.501-.865-.386-1.137-.046-.014-.097-.018-.143-.033-1.15-.389-2.305-.761-3.447-1.172-1.895-.682-3.678-1.608-5.436-2.579-2.69-1.488-5.372-2.986-8.037-4.517-1.726-.99-3.346-2.128-4.683-3.627-.347-.387-.747-.726-1.133-1.074-.678-.618-1.383-1.205-2.043-1.842-1.211-1.17-2.404-2.36-3.301-3.81-.206-.334-.499-.616-.749-.922-.819-.995-1.615-2.01-2.461-2.981-1.121-1.289-2.242-2.581-3.437-3.799-.783-.796-1.577-1.572-2.305-2.419-.284-.332-.641-.597-.966-.893m-.553 6.783c-.013-.211-.034-.453-.041-.695-.061-2.152-.179-4.306-.166-6.459.013-2.342-.465-4.623-.72-6.931-.116-1.055-.383-2.097-.468-3.154-.118-1.488-.409-2.939-.808-4.369-.474-1.699-1.44-3.059-2.871-4.123-.779-.58-1.601-.97-2.555-1.105-.221-.032-.446-.071-.65-.152-1.153-.464-2.369-.395-3.527-.228-2.88.413-5.441 1.544-7.578 3.614-1.683 1.629-2.446 3.618-2.736 5.858-.14 1.08-.269 2.159-.394 3.24-.1.859-.242 1.705-.237 2.581.063 12.762.103 25.525.149 38.288.003.964.003 1.932.01 2.898.003.619.043.672.662.723.717.059 1.434.102 2.151.129.623.027.744-.089.74-.718-.008-1.163-.049-2.327-.053-3.492-.01-2.823-.008-5.645-.008-8.467-.002-3.99-.02-7.98.002-11.97.03-5.251-.157-10.501.063-15.752.08-1.929.044-3.862.361-5.773.21-1.266.437-2.536.767-3.774.407-1.52 1.316-2.719 2.718-3.476.761-.411 1.563-.748 2.367-1.071.336-.136.72-.191 1.085-.21 1.361-.07 2.653.262 3.916.721.23.083.455.209.645.362.86.693 1.627 1.502 2.013 2.534.482 1.294.849 2.635 1.199 3.973.38 1.445.292 2.95.441 4.425.151 1.5.232 3.005.351 4.509.134 1.676.276 3.351.42 5.026.021.247.047.497.113.734.043.156.126.335.247.432.787.634 1.591 1.248 2.392 1.872m-.264-13.367c.047.494.065.786.105 1.075.069.488.174.973.225 1.463.101.985.193 1.97.254 2.957.022.366.171.576.467.774.386.262.773.551 1.082.899.856.966 1.773 1.867 2.738 2.723.407.36.764.777 1.123 1.188.814.933 1.626 1.869 2.419 2.82 1.282 1.542 2.631 3.03 3.756 4.699.22.326.5.62.787.889 1.315 1.242 2.643 2.469 3.965 3.705.2.185.413.361.588.568 1.377 1.604 3.105 2.759 4.912 3.805 1.607.93 3.238 1.825 4.866 2.721 1.714.946 3.419 1.909 5.16 2.805 2.098 1.082 4.329 1.836 6.578 2.533.285.088.563.19.843.291.351.127.476.406.497.755.019.316-.108.569-.288.82-.474.665-.941 1.335-1.394 2.014-.199.294-.361.616-.539.925.452-.19.809-.447 1.182-.679 2.167-1.342 4.483-2.444 6.491-4.045.115-.091.251-.156.379-.234.822-.508 1.646-1.01 2.463-1.526.088-.056.194-.2.177-.279-.018-.088-.159-.185-.264-.214-.672-.183-1.356-.276-2.056-.237-1.027.059-2.019-.126-3.002-.415-1.781-.523-3.568-1.026-5.352-1.541-.239-.069-.482-.139-.697-.255-1.092-.584-2.237-1.095-3.25-1.797-1.87-1.297-3.795-2.53-5.535-4.006-.624-.529-1.236-1.07-1.825-1.635-.768-.738-1.469-1.548-2.264-2.254-1.56-1.384-2.99-2.895-4.389-4.433-1.133-1.243-2.308-2.461-3.217-3.892-1.045-1.645-2.349-3.064-3.815-4.338-.86-.747-1.761-1.448-2.638-2.176-2.657-2.208-5.454-4.204-8.601-5.671-.579-.269-1.18-.492-1.931-.802m-4.999 10.686c0 1.083.002 2.121 0 3.159-.008 7.088-.02 14.178-.027 21.267 0 .196-.014.404.041.588.114.373-.064.541-.364.698-.383.199-.772.321-1.208.306-.645-.022-1.291-.013-1.934-.037-.218-.007-.441-.053-.651-.116-.541-.162-.808-.51-.756-1.103.035-.409.002-.825-.001-1.368-.55.304-.998.509-1.401.78-1.838 1.239-3.802 2.229-5.857 3.052-.389.156-.884.285-1.09.589-.203.296-.118.801-.125 1.214-.017 1.09-.01 2.18-.023 3.272-.009.809-.186.969-.97.924-.618-.037-1.238-.055-1.854-.107-.418-.037-.839-.094-1.247-.189-.478-.115-.579-.313-.521-.81.031-.27.053-.543.053-.813.019-11.674.035-23.35.053-35.024.004-1.586.085-3.175.019-4.757-.07-1.645.194-3.26.306-4.887.083-1.227.336-2.445.559-3.659.281-1.536 1.089-2.803 2.131-3.932 2.047-2.217 4.64-3.451 7.547-4.026 1.033-.205 2.122-.153 3.185-.157.385-.001.775.158 1.152.274.643.199 1.245.201 1.854-.157.798-.469 1.677-.699 2.604-.814 1.251-.152 2.482-.49 3.759-.398 1.485.107 2.957.284 4.361.816.712.271 1.31.712 1.823 1.252.564.592 1.089 1.221 1.608 1.853.918 1.119 1.386 2.433 1.689 3.835.315 1.453.518 2.921.696 4.392.107.884.149 1.779.17 2.669.012.601.226 1.027.735 1.359 1.141.746 2.272 1.507 3.382 2.301.499.358.976.769 1.387 1.223 1.362 1.507 2.698 3.04 4.03 4.572 1.66 1.906 3.305 3.819 4.732 5.916.961 1.412 2.058 2.732 3.396 3.827.323.267.628.564.905.879 1.165 1.325 2.461 2.513 3.783 3.678 1.022.901 2.004 1.851 3.17 2.573 1.053.652 2.103 1.311 3.174 1.934.381.222.815.361 1.234.511.605.219 1.228.391 1.829.624 1.097.428 2.239.596 3.402.717 1.254.128 2.504.324 3.755.485.367.048.738.08 1.107.116.575.055.725.265.467.772-.27.528-.591 1.03-.914 1.528-.237.367-.565.663-.388 1.192.094.284-.194.478-.435.626-.696.429-1.399.848-2.084 1.293-.937.605-1.857 1.235-2.79 1.844-.559.365-1.126.719-1.699 1.061-1.361.814-2.727 1.619-4.09 2.427-.128.076-.251.162-.377.241-.371.233-.739.287-1.189.174-2.41-.605-4.73-1.429-6.994-2.469-2.613-1.201-5.218-2.419-7.756-3.767-1.863-.989-3.631-2.141-5.29-3.446-1.85-1.456-3.729-2.883-5.343-4.614-1.637-1.758-3.271-3.523-4.918-5.272-.661-.704-1.339-1.394-2.037-2.063-1.686-1.617-3.151-3.432-4.631-5.23-1.327-1.612-3.047-2.658-4.869-3.579-.039-.019-.095-.009-.265-.019" fill="#231f20"/><path d="m23.063 15.755c.751.31 1.351.532 1.931.802 3.146 1.466 5.943 3.463 8.601 5.671.878.728 1.777 1.428 2.639 2.176 1.465 1.272 2.768 2.692 3.814 4.338.909 1.431 2.085 2.649 3.216 3.892 1.4 1.538 2.829 3.049 4.39 4.432.795.707 1.496 1.516 2.263 2.253.59.567 1.202 1.106 1.826 1.635 1.74 1.478 3.664 2.711 5.535 4.008 1.012.701 2.157 1.213 3.249 1.797.216.116.459.185.698.255 1.784.515 3.571 1.016 5.352 1.541.982.289 1.975.473 3.002.415.699-.041 1.383.054 2.056.236.104.029.246.126.263.215.018.079-.088.223-.176.279-.818.515-1.641 1.018-2.464 1.525-.127.079-.263.144-.379.235-2.008 1.601-4.324 2.703-6.489 4.045-.374.232-.73.489-1.184.679.179-.31.34-.631.539-.926.454-.678.921-1.35 1.395-2.014.18-.25.307-.503.288-.819-.021-.351-.145-.628-.498-.755-.278-.101-.558-.203-.842-.291-2.25-.698-4.48-1.452-6.579-2.533-1.74-.897-3.446-1.86-5.16-2.806-1.627-.897-3.258-1.79-4.865-2.721-1.808-1.045-3.536-2.2-4.912-3.805-.176-.206-.388-.382-.587-.568-1.323-1.235-2.652-2.462-3.965-3.704-.288-.271-.568-.563-.788-.889-1.124-1.669-2.475-3.159-3.757-4.699-.792-.952-1.604-1.887-2.418-2.82-.359-.411-.717-.828-1.123-1.188-.965-.858-1.882-1.757-2.739-2.724-.308-.347-.694-.636-1.082-.898-.294-.199-.444-.408-.467-.774-.059-.987-.152-1.973-.253-2.957-.05-.491-.156-.975-.225-1.464-.041-.288-.057-.58-.105-1.074" fill="#fdbb24"/><path d="m23.326 29.122c-.801-.623-1.603-1.238-2.391-1.872-.122-.098-.205-.275-.248-.433-.064-.237-.092-.486-.113-.732-.144-1.675-.286-3.351-.419-5.028-.12-1.502-.201-3.009-.352-4.509-.148-1.475-.06-2.978-.439-4.424-.352-1.338-.718-2.679-1.201-3.972-.385-1.034-1.152-1.842-2.012-2.535-.191-.152-.415-.278-.644-.363-1.263-.458-2.557-.79-3.916-.719-.366.018-.751.073-1.087.209-.802.324-1.606.661-2.367 1.072-1.401.756-2.311 1.956-2.716 3.475-.332 1.238-.558 2.509-.769 3.775-.317 1.909-.28 3.844-.361 5.772-.219 5.252-.033 10.502-.063 15.752-.021 3.99-.004 7.98-.001 11.97 0 2.821-.003 5.645.007 8.468.004 1.165.046 2.329.053 3.491.004.629-.117.744-.739.719-.717-.029-1.435-.072-2.151-.131-.62-.05-.659-.103-.663-.721-.006-.968-.005-1.934-.009-2.9-.045-12.762-.087-25.524-.15-38.287-.005-.876.138-1.723.237-2.582.126-1.079.255-2.16.394-3.238.29-2.242 1.053-4.229 2.736-5.859 2.139-2.071 4.698-3.202 7.579-3.615 1.157-.166 2.375-.234 3.526.228.204.083.431.121.65.153.955.136 1.777.526 2.557 1.105 1.429 1.063 2.396 2.424 2.869 4.123.399 1.429.69 2.88.81 4.37.083 1.057.35 2.097.466 3.153.256 2.309.733 4.588.72 6.931-.011 2.152.105 4.306.167 6.46.007.242.027.482.04.694" fill="#00a2de"/><path d="m21.732 14.925c.037 4.319.15 8.639.011 12.958.527.413 1.053.826 1.584 1.238-.013-.21-.034-.452-.041-.694-.061-2.153-.179-4.306-.166-6.459.011-2.342-.466-4.623-.72-6.931-.118-1.055-.383-2.097-.468-3.154-.046-.585-.127-1.165-.224-1.742.043 1.594.011 3.189.024 4.784" fill="#008abd"/><path d="m6.703 6.764c-.646.363-1.219.844-1.675 1.428-.559.717-.947 1.571-1.31 2.398-.804 1.827-1.34 3.787-1.377 5.79-.039 2.16.153 4.338.306 6.491.155 2.18.328 4.36.406 6.544.078 2.17.074 4.339.045 6.509-.029 2.164.014 4.338-.121 6.499-.132 2.135-.398 4.26-.542 6.396-.128 1.887-.187 3.793-.21 5.684-.017 1.557.026 3.171.446 4.682.293.018.585.042.878.053.621.026.742-.09.738-.718-.007-1.164-.049-2.328-.051-3.493-.01-2.822-.008-5.645-.009-8.466-.001-3.99-.02-7.98.002-11.971.029-5.25-.156-10.5.062-15.751.081-1.93.045-3.863.363-5.774.21-1.265.436-2.535.767-3.773.287-1.077.832-1.989 1.622-2.701-.115.057-.229.111-.34.173" fill="#008abd"/><path d="m7.188 3.949c-1.306.655-2.503 1.613-3.194 2.901-.115.214-.156.569.083.618.089.019.18-.025.259-.072.312-.182.576-.43.849-.667 1.539-1.332 3.395-2.293 5.37-2.781.342-.086.711-.17.949-.431.959-1.055-.869-.797-1.288-.679-1.034.295-2.063.627-3.028 1.111" fill="#fff"/><path d="m13.346 2.372c-.249-.131-.588.003-.717.253-.129.251-.065.574.117.79.183.214.465.329.746.353.311.027.676-.087.782-.381.101-.278-.085-.594-.344-.739-.257-.146-.565-.163-.86-.176" fill="#fff"/><path d="m23.88 22.338c.324.296.683.562.966.893.728.848 1.523 1.625 2.305 2.42 1.194 1.217 2.316 2.51 3.437 3.798.847.971 1.641 1.986 2.46 2.981.252.307.544.589.751.924.896 1.448 2.089 2.638 3.301 3.808.66.638 1.364 1.226 2.043 1.842.385.349.786.688 1.132 1.074 1.338 1.499 2.957 2.638 4.682 3.628 2.666 1.53 5.348 3.03 8.038 4.516 1.758.971 3.542 1.897 5.436 2.58 1.142.41 2.297.782 3.447 1.171.047.017.097.019.144.033.885.272.927.407.385 1.137-.647.876-1.302 1.746-1.687 2.782-.09.244-.233.342-.513.26-.713-.208-1.44-.369-2.149-.584-1.423-.434-2.81-.956-4.151-1.615-1.847-.905-3.737-1.719-5.597-2.599-2.402-1.134-4.737-2.401-6.866-3.996-2.36-1.766-4.716-3.544-6.733-5.719-1.298-1.398-2.664-2.73-3.909-4.181-1.014-1.184-2.204-2.214-3.262-3.36-1.21-1.31-2.344-2.69-3.547-4.007-.306-.336-.108-.641-.116-.959-.025-.966-.027-1.934-.055-2.899-.029-1.04-.079-2.078-.117-3.117-.009-.244-.001-.489-.001-.733.059-.025.117-.052.176-.078" fill="#ffdd18"/><path d="m60.908 55.33c-1.193-.217-2.344-.678-3.45-1.164-.976-.428-1.929-.904-2.874-1.397-1.476-.773-2.959-1.539-4.42-2.345-1.992-1.099-3.952-2.257-5.846-3.518-1.914-1.274-3.729-2.681-5.535-4.101-1.802-1.414-3.579-2.862-5.282-4.397-1.653-1.49-3.267-3.055-4.685-4.774-1.176-1.422-2.147-3.006-2.739-4.76-.56-1.66-.757-3.412-.784-5.159-.149-.161-.304-.317-.446-.484-.284-.331-.643-.597-.966-.893-.059.027-.119.053-.178.08 0 .244-.006.487.003.731.036 1.04.087 2.079.117 3.118.028.964.03 1.932.054 2.898.008.318-.19.623.117.96 1.202 1.316 2.337 2.696 3.546 4.006 1.059 1.146 2.249 2.177 3.263 3.36 1.244 1.451 2.611 2.783 3.908 4.181 2.017 2.175 4.373 3.953 6.734 5.719 2.127 1.595 4.463 2.862 6.865 3.997 1.861.879 3.751 1.694 5.596 2.599 1.343.658 2.728 1.181 4.152 1.614.71.215 1.437.376 2.148.584.281.082.424-.016.514-.259.075-.203.168-.394.262-.585-.025-.003-.05-.007-.074-.011" fill="#ffcf01"/><path d="m73.553 46.389c-.236.397-.442.757-.659 1.108-.103.169-.235.32-.345.484-.553.829-.315.749-1.354.558-.434-.079-.881-.147-1.321-.13-1.232.053-2.406-.18-3.577-.546-1.534-.48-3.092-.887-4.638-1.327-.239-.068-.488-.117-.707-.225-1.425-.697-2.862-1.37-4.124-2.352-.333-.258-.671-.513-1.032-.728-1.67-.991-3.131-2.26-4.645-3.458-.194-.154-.384-.319-.546-.504-1.114-1.268-2.405-2.357-3.605-3.538-2.064-2.03-4.075-4.12-5.872-6.4-.139-.176-.271-.355-.39-.544-1.499-2.376-3.454-4.327-5.651-6.054-1.265-.995-2.498-2.034-3.798-2.984-1.94-1.421-3.949-2.743-6.168-3.703-.498-.215-1.022-.37-1.539-.537-.522-.168-.597-.074-.655-.707-.066-.712-.233-1.414-.353-2.12-.029-.169-.049-.341-.068-.513-.026-.247.082-.388.338-.363.76.077 1.535.096 2.277.264.767.172 1.513.462 2.246.758.757.307 1.485.683 2.226 1.026.068.032.159.043.201.095.418.516 1.107.587 1.603.986.482.386 1.024.698 1.532 1.052 1.422.992 2.83 2.006 4.264 2.98.686.463 1.275 1.002 1.809 1.635 1.105 1.305 2.273 2.553 3.391 3.848 1.262 1.462 2.502 2.942 3.737 4.429.346.418.633.886.948 1.329 1.079 1.514 2.175 3.012 3.614 4.221.377.318.728.675 1.064 1.037 1.232 1.327 2.537 2.574 3.889 3.778.983.873 1.912 1.805 3.029 2.509 1.091.686 2.176 1.385 3.298 2.016.577.325 1.225.528 1.851.757.629.229 1.279.399 1.902.639.891.345 1.823.439 2.758.55 1.325.159 2.648.338 3.972.512.339.045.679.099 1.098.162" fill="#ffdd18"/><path d="m19.988 26.676c-.33-.179-.625-.356-.935-.501-1.317-.621-2.637-1.236-3.961-1.844-.939-.432-1.961-.536-2.967-.587-1.408-.072-2.825-.086-4.232-.01-1.085.059-2.154.318-3.059 1.113-.019-.191-.048-.35-.05-.507-.003-1.536.029-3.071-.019-4.604-.02-.642.24-1.045.754-1.324.345-.187.708-.396 1.085-.462 1.388-.238 2.78-.47 4.179-.607 1.295-.127 2.566.161 3.797.547 1.108.347 2.19.779 3.283 1.176.139.05.274.115.41.173.901.384 1.36 1.016 1.4 2.046.071 1.751.258 3.497.394 5.245.002.02-.021.041-.079.146" fill="#ffdd18"/><path d="m13.766 39.416c-.014-.173-.037-.315-.037-.457-.003-.743.019-1.488-.01-2.23-.016-.39.124-.643.422-.88.386-.306.718-.678 1.092-.999.449-.383.33-.868.199-1.298-.133-.435-.435-.784-.975-.772-.123.003-.248-.004-.371.001-.248.014-.362-.093-.36-.346.005-.968.005-1.933.001-2.899 0-.223.099-.364.287-.478.339-.207.659-.444.998-.649.517-.314.638-.796.577-1.344-.065-.575-.464-.842-.982-.978-.094-.027-.191-.051-.288-.07-.593-.123-.595-.123-.596-.742-.001-.197.005-.396.017-.593.002-.044.042-.085.104-.201.421.148.865.279 1.286.462.636.276 1.244.618 1.888.874.446.178.561.453.559.907-.012 2.824.003 5.648.005 8.47.007 5.252.01 10.503.015 15.755 0 .693-.2.971-.874 1.003-.74.035-1.488.016-2.227-.052-.591-.054-.654-.177-.673-.76-.008-.25-.005-.497-.005-.745 0-.941-.031-1.015.81-1.364.643-.269.777-.68.738-1.271-.013-.197-.007-.395-.014-.594-.02-.567-.457-1.076-1.148-.94-.407.081-.437.039-.443-.344-.014-.818-.003-1.635-.009-2.452-.002-.244.081-.422.284-.568.201-.142.387-.307.566-.477.604-.575.84-1.251.626-2.085-.175-.679-.434-.91-1.14-.899-.093.001-.187.009-.322.015" fill="#00a2de"/><path d="m17.583 35.195c-.003-2.823-.018-5.646-.005-8.471.001-.453-.115-.729-.559-.906-.644-.257-1.252-.6-1.888-.875-.421-.183-.866-.313-1.286-.463-.063.117-.102.159-.105.202-.011.198-.017.395-.016.594.001.619.002.617.596.741.097.02.192.044.288.069.115.03.22.071.322.115-.026-.144.193-.206.27-.058.071.136.123.277.181.416.102.137.184.294.208.506.003.033.004.064.006.097.44 1.485.336 3.087.336 4.635.002 1.962.018 3.926.132 5.886.041.721.041 1.568-.431 2.162-.125.158-.268.301-.406.447 0 .003.002.005.003.009.144.557.079 1.043-.155 1.476.228.34.567.629.81.942.384.493.548 1.038.497 1.662s-.294 1.244-.74 1.692c-.171.173-.372.295-.582.392.178.182.283.433.293.702.007.197 0 .395.014.594.029.431-.038.767-.327 1.022.049.039.099.076.146.118.631.564.931 1.343 1.062 2.166.045.275.061.6.005.892.157-.002.315.001.471-.006.675-.033.875-.31.874-1.003-.005-5.252-.009-10.503-.014-15.755" fill="#008abd"/><path d="m16.855 1.941c.935-.476 1.79-.767 2.718-.854.54-.049 1.076-.167 1.61-.272 1.258-.247 2.511-.176 3.762.053.583.108 1.166.22 1.743.359 1.071.256 1.955.819 2.654 1.67.579.708 1.19 1.394 1.732 2.131.485.661.815 1.413.986 2.224.286 1.354.636 2.692.737 4.081.097 1.325.265 2.644.419 4.121-.451-.284-.773-.488-1.094-.692-.645-.408-1.213-.94-1.978-1.152-.312-.086-.455-.335-.471-.678-.048-.989-.144-1.975-.183-2.963-.06-1.531-.486-2.917-1.506-4.093-.453-.523-.861-1.085-1.336-1.586-.824-.873-1.853-1.301-3.065-1.243-.541.026-1.083.082-1.624.109-.566.031-1.05.272-1.519.555-.532.32-.529.316-.964-.039-.786-.643-1.559-1.301-2.621-1.731" fill="#00a2de"/><path d="m32.797 11.333c-.102-1.389-.451-2.728-.737-4.081-.172-.811-.501-1.563-.987-2.224-.541-.737-1.151-1.423-1.732-2.131-.698-.853-1.582-1.415-2.653-1.67-.577-.139-1.16-.251-1.743-.359-.932-.17-1.865-.252-2.801-.182-.005.028-.019.054-.038.076.132.023.267.045.401.068 1.478.077 2.992.285 4.329.941 1.204.589 2.148 1.539 2.788 2.713.602 1.106.922 2.33 1.175 3.555.266 1.299.465 2.645.392 3.975-.033.6-.135 1.294-.428 1.854.478.255.9.604 1.358.893.322.204.645.408 1.095.693-.153-1.477-.322-2.796-.419-4.121" fill="#008abd"/><path d="m4.736 53.585c0-.817.008-1.601-.004-2.386-.004-.317.17-.511.411-.653.487-.291.975-.588 1.485-.835 1.869-.906 3.758-1.766 5.752-2.371.448-.136.873-.349 1.319-.495.929-.303 1.218-.065 1.211.919-.002.386-.136.675-.449.876-.394.253-.776.553-1.206.721-1.069.419-2.002 1.07-2.987 1.633-1.758 1.008-3.581 1.882-5.532 2.591" fill="#00a2de"/><path d="m4.787 47.12c-.026-.422-.058-.734-.062-1.048-.006-.496.018-.991.008-1.486-.006-.281.087-.472.35-.588.317-.14.617-.322.941-.44 1.521-.554 2.94-1.314 4.354-2.087 1.066-.582 2.14-1.15 3.329-1.452.166-.043.336-.085.506-.1.261-.021.412.133.499.361.293.774-.048 1.711-.777 2.114-1.228.68-2.452 1.371-3.692 2.027-.633.336-1.302.603-1.948.914-.624.3-1.241.612-1.857.926-.522.266-1.04.54-1.651.859" fill="#ed1c24"/><path d="m14.066 15.356c0-1.175-.011-2.282.004-3.389.007-.519.05-1.037.103-1.553.135-1.301.238-2.608.441-3.897.154-.978.423-1.056 1.184-.446.986.791 1.732 1.761 2.118 2.981.209.661.402 1.326.633 1.978.114.323.042.512-.26.656-.825.391-1.448 1.03-2.018 1.722-.233.283-.467.597-.581.937-.1.297-.25.458-.516.563-.361.142-.72.291-1.108.448" fill="#00a2de"/><path d="m4.766 32.772c0-.958-.006-1.843.004-2.727.002-.282.239-.33.46-.399 1.084-.344 2.178-.663 3.245-1.056 1.507-.555 3.036-1.056 4.47-1.803.373-.195.856-.222 1.291-.24.431-.017.733.233.806.531.094.385-.017.682-.413.937-.624.4-1.243.818-1.903 1.148-1.856.933-3.72 1.848-5.676 2.567-.624.23-1.213.556-1.819.838-.127.059-.257.113-.465.204" fill="#ed1c24"/><path d="m4.744 39.789c0-.72.001-1.31 0-1.898-.001-.267.18-.393.384-.495.996-.495 1.991-.99 2.991-1.475.266-.13.553-.217.823-.341 1.078-.494 2.155-.993 3.228-1.499.243-.116.488-.25.695-.42.368-.301.803-.365 1.246-.409.351-.035.634.093.794.423.148.308.185.611-.029.912-.381.535-.875.956-1.448 1.251-1.801.927-3.567 1.927-5.501 2.582-.792.268-1.537.676-2.305 1.018-.247.108-.501.201-.878.351" fill="#00a2de"/><path d="m11.76 16.757c1.441-.557 2.784-1.05 4.105-1.6.579-.239 1.159-.223 1.749-.191.344.019.685.089 1.027.145.434.07.502.125.544.56.074.787.126 1.576.188 2.364.028.366.062.731.102 1.173-2.435-1.225-4.947-2.096-7.715-2.451" fill="#fdbb24"/><path d="m15.995 14.507c.715-1.034 1.505-1.969 2.738-2.511.216.788.336 1.532.353 2.296.006.315-.165.377-.42.347-.316-.038-.631-.114-.948-.127-.557-.02-1.115-.005-1.723-.005" fill="#ffdd18"/><g fill="#fff"><path d="m14.737 12.286c-.014.218-.025.446.058.649.084.201.296.369.511.327.305-.059.396-.447.42-.757.056-.752.58-5.495-.149-5.483-.992.018-.793 4.516-.84 5.264"/><path d="m1.442 32.514c.06.602.151 1.243.554 1.695.255-.197.265-.57.251-.891-.074-1.822-.149-3.642-.224-5.463-.031-.705.253-4.338-.44-4.592-.712-.263-.45.981-.451 1.375 0 .877.004 1.754.02 2.629.033 1.752.114 3.504.29 5.247"/><path d="m35.147 36.037c.083-.48-.383-.855-.772-1.147-1.995-1.509-2.966-3.909-4.813-5.515-.213-.183-.81-.705-1.024-.149-.117.304.75 1.162.939 1.406.762.987 1.554 1.953 2.429 2.841.264.268 3.247 2.529 3.241 2.564"/><path d="m37.578 21.418c.054-.351-.184-.675-.423-.938-1.242-1.368-2.832-2.363-4.4-3.339-.375-.235-1.742-1.464-1.844-.697-.093.695 1.344 1.229 1.79 1.549 1.614 1.157 3.058 2.58 4.877 3.425"/></g></g></svg>