<?xml version="1.0" encoding="UTF-8" standalone="no"?><!DOCTYPE svg PUBLIC "-//W3C//DTD SVG 1.1//EN" "http://www.w3.org/Graphics/SVG/1.1/DTD/svg11.dtd"><svg width="100%" height="100%" viewBox="0 0 70 45" version="1.1" xmlns="http://www.w3.org/2000/svg" xmlns:xlink="http://www.w3.org/1999/xlink" xml:space="preserve" xmlns:serif="http://www.serif.com/" style="fill-rule:evenodd;clip-rule:evenodd;stroke-linecap:round;stroke-linejoin:round;stroke-miterlimit:10;"><g><path d="M21.607,17.453c0,0.347 -0.063,0.597 0.016,0.791c0.115,0.288 0.329,0.755 0.504,0.757c0.322,0.001 0.789,-0.2 0.938,-0.462c0.237,-0.418 0.298,-0.95 0.367,-1.444c0.071,-0.521 0.021,-1.105 -0.606,-1.215c-0.579,-0.1 -0.911,0.365 -1.091,0.869c-0.092,0.259 -0.101,0.548 -0.128,0.704m4.35,-0.21c0.043,0.477 0.026,0.885 0.131,1.256c0.069,0.239 0.307,0.587 0.487,0.597c0.284,0.017 0.714,-0.125 0.853,-0.344c0.544,-0.864 0.515,-1.823 0.172,-2.755c-0.078,-0.216 -0.414,-0.498 -0.601,-0.477c-0.282,0.031 -0.662,0.244 -0.778,0.487c-0.187,0.391 -0.194,0.868 -0.264,1.236m18.64,-9.153c0,-0.282 0.025,-0.568 -0.005,-0.848c-0.101,-0.945 -0.674,-1.32 -1.53,-0.863c-1.818,0.969 -3.398,2.257 -4.629,3.924c-0.479,0.648 -0.442,1.091 0.19,1.428c1.187,0.632 2.048,1.587 2.928,2.548c0.532,0.581 0.954,0.529 1.32,-0.198c0.943,-1.886 1.553,-3.879 1.726,-5.991m-36.968,1.965c0.02,0.001 0.041,0.004 0.061,0.006c0,0.795 -0.051,1.593 0.013,2.382c0.081,1.007 0.642,1.477 1.619,1.198c0.968,-0.275 1.912,-0.717 2.781,-1.23c1.158,-0.686 1.324,-1.225 0.627,-2.392c-1.017,-1.697 -2.156,-3.325 -3.288,-4.951c-0.407,-0.584 -0.845,-0.512 -1.135,0.136c-0.181,0.407 -0.324,0.853 -0.374,1.295c-0.133,1.182 -0.207,2.369 -0.304,3.556m17.344,16.328c0.72,-0.103 1.467,-0.138 2.17,-0.327c1.555,-0.418 2.6,-2.09 2.373,-3.676c-0.17,-1.189 -1.566,-2.302 -2.702,-1.983c-0.66,0.183 -1.204,0.063 -1.815,-0.052c-1.61,-0.299 -3.045,0.069 -4.217,1.264c-1.605,1.637 -1.075,3.732 1.142,4.319c0.979,0.257 2.013,0.307 3.049,0.455m-2.552,9.258c-1.598,0 -3.201,0.085 -4.791,-0.018c-2.442,-0.16 -4.887,-0.366 -7.306,-0.721c-1.038,-0.153 -2.016,-0.725 -3.016,-1.119c-0.309,-0.122 -0.59,-0.327 -0.904,-0.424c-2.698,-0.83 -4.504,-2.626 -4.893,-5.38c-0.568,-4.033 -0.14,-7.978 2.327,-11.443c0.589,-0.825 1.508,-1.523 1.788,-2.429c0.28,-0.91 -0.13,-2.011 -0.097,-3.023c0.071,-2.218 0.178,-4.437 0.381,-6.646c0.076,-0.828 0.368,-1.669 0.722,-2.429c0.331,-0.713 0.901,-0.847 1.562,-0.386c1.259,0.88 2.539,1.762 3.652,2.81c1.284,1.206 2.396,2.59 3.581,3.9c0.344,0.38 0.678,0.77 1.023,1.151c0.491,0.539 0.995,0.732 1.806,0.557c2.964,-0.647 5.985,-0.81 9.015,-0.706c1.022,0.037 2.041,0.192 3.06,0.307c1.527,0.172 3.053,0.344 4.573,0.544c0.57,0.076 0.918,-0.091 1.295,-0.562c2.102,-2.63 4.806,-4.493 7.821,-5.931c0.204,-0.097 0.428,-0.16 0.648,-0.213c0.565,-0.134 0.885,0.07 0.885,0.679c-0.001,1.083 0.084,2.177 -0.026,3.249c-0.225,2.207 -0.548,4.404 -0.846,6.603c-0.103,0.761 -0.036,1.279 0.691,1.886c1.565,1.305 2.09,3.256 2.176,5.214c0.081,1.813 0.01,3.664 -0.282,5.452c-0.298,1.823 -1.233,3.462 -2.668,4.663c-1.448,1.212 -3.089,2.164 -4.972,2.569c-3.17,0.684 -6.331,1.425 -9.524,1.963c-1.499,0.253 -3.068,0.116 -4.605,0.106c-1.025,-0.006 -2.05,-0.1 -3.075,-0.155c0,-0.023 -0.001,-0.045 -0.001,-0.068" style="fill:#939598;fill-rule:nonzero;"/><path d="M32.251,16.86c0,2.157 -1.749,3.906 -3.906,3.906c-2.157,0 -3.906,-1.749 -3.906,-3.906c0,-2.157 1.749,-3.905 3.906,-3.905c2.157,0 3.906,1.748 3.906,3.905" style="fill:#d9dbdc;fill-rule:nonzero;"/><path d="M11.25,42.798c0.148,-0.828 0.27,-1.552 0.411,-2.273c0.049,-0.25 0.023,-0.538 0.079,-0.789l-2.643,0c0.056,0.225 0.094,0.455 0.169,0.672c0.338,0.977 0.758,1.98 1.984,2.39" style="fill:#231f20;fill-rule:nonzero;"/><path d="M14.63,42.67c-0.094,-0.865 -0.15,-1.506 -0.246,-2.137c-0.021,-0.134 -0.229,-0.363 -0.288,-0.344c-0.184,0.06 -0.457,0.191 -0.484,0.334c-0.083,0.442 -0.07,0.902 -0.091,1.353c-0.015,0.284 0.057,0.607 -0.059,0.837c-0.097,0.191 -0.401,0.34 -0.632,0.372c-0.113,0.018 -0.394,-0.278 -0.386,-0.419c0.046,-0.68 0.183,-1.349 0.252,-2.028c0.038,-0.381 0.024,-0.668 -0.016,-0.902l-0.941,0c-0.054,0.251 -0.03,0.54 -0.079,0.79c-0.139,0.721 -0.262,1.444 -0.411,2.272c-1.226,-0.409 -1.646,-1.413 -1.983,-2.389c-0.075,-0.217 -0.114,-0.447 -0.168,-0.673l-3,0c0.209,0.002 0.417,0.013 0.624,0c0.655,-0.041 1.06,0.184 1.234,0.882c0.135,0.543 0.389,1.075 0.682,1.557c1.967,3.229 6.339,3.175 8.263,-0.089c0.03,-0.048 0.072,-0.097 0.083,-0.15c0.356,-1.447 1.177,-2.037 2.309,-2.2l-2.757,0c-0.354,1.052 -0.88,2.052 -1.906,2.934" style="fill:#231f20;fill-rule:nonzero;"/><path d="M26.018,39.736l-4.504,0c1.497,0.076 3.004,0.063 4.504,0" style="fill:#231f20;fill-rule:nonzero;"/><path d="M12.208,39.219c-0.308,0.096 -0.42,0.291 -0.468,0.517l0.941,0c-0.066,-0.396 -0.222,-0.597 -0.473,-0.517" style="fill:#231f20;fill-rule:nonzero;"/><path d="M12.695,40.638c-0.069,0.678 -0.206,1.348 -0.25,2.027c-0.01,0.142 0.273,0.437 0.384,0.42c0.231,-0.034 0.537,-0.181 0.633,-0.373c0.117,-0.229 0.045,-0.554 0.06,-0.836c0.021,-0.451 0.007,-0.911 0.091,-1.354c0.027,-0.144 0.298,-0.274 0.484,-0.334c0.057,-0.018 0.267,0.21 0.287,0.344c0.096,0.631 0.151,1.271 0.245,2.138c1.027,-0.883 1.554,-1.884 1.906,-2.934l-3.854,0c0.038,0.234 0.053,0.519 0.014,0.902" style="fill:#231f20;fill-rule:nonzero;"/><path d="M36.676,40.269c0.003,0.447 -0.15,0.894 -0.194,1.343c-0.037,0.376 -0.007,0.757 -0.007,1.277c1.282,-0.737 2.327,-1.554 2.658,-2.887c0.023,-0.093 0.05,-0.178 0.076,-0.266l-2.829,0c0.135,0.178 0.296,0.355 0.296,0.533" style="fill:#231f20;fill-rule:nonzero;"/><path d="M39.133,40.003c-0.331,1.333 -1.376,2.15 -2.658,2.885c0,-0.519 -0.03,-0.899 0.007,-1.275c0.043,-0.451 0.197,-0.896 0.194,-1.343c-0.001,-0.178 -0.161,-0.356 -0.296,-0.534l-0.234,0c-0.162,0.13 -0.339,0.257 -0.382,0.418c-0.189,0.714 -0.312,1.448 -0.427,2.179c-0.076,0.478 -0.191,0.979 -0.745,0.989c-0.603,0.012 -1.22,-0.115 -1.804,-0.275c-0.108,-0.03 -0.149,-0.51 -0.124,-0.771c0.07,-0.677 0.239,-1.346 0.276,-2.022c0.008,-0.144 -0.04,-0.348 -0.11,-0.518l-0.734,0c-0.066,0.154 -0.096,0.34 -0.123,0.513c-0.041,0.281 -0.018,0.572 -0.074,0.85c-0.077,0.38 -0.201,0.751 -0.345,1.27c-0.944,-0.416 -1.24,-1.237 -1.621,-1.941c-0.124,-0.231 -0.285,-0.455 -0.424,-0.692l-2.371,0c0.832,0.076 1.419,0.433 1.734,1.396c0.157,0.476 0.467,0.92 0.78,1.319c1.071,1.372 2.42,2.088 4.237,2.172c3.165,0.147 5.241,-1.309 6.462,-4.059c0.388,-0.879 0.951,-0.822 1.623,-0.822c5.308,-0.005 10.615,-0.006 15.923,-0.006l3.625,0l-22.313,0c-0.026,0.089 -0.053,0.174 -0.076,0.267" style="fill:#231f20;fill-rule:nonzero;"/><path d="M1.511,27.979c-0.568,-4.033 -0.14,-7.978 2.327,-11.443c0.588,-0.825 1.508,-1.523 1.786,-2.43c0.281,-0.909 -0.128,-2.01 -0.096,-3.022c0.072,-2.219 0.179,-4.437 0.382,-6.646c0.075,-0.828 0.368,-1.669 0.721,-2.43c0.331,-0.712 0.9,-0.846 1.563,-0.385c1.258,0.879 2.537,1.76 3.652,2.81c1.282,1.206 2.395,2.589 3.58,3.899c0.344,0.381 0.679,0.77 1.023,1.152c0.492,0.539 0.996,0.732 1.807,0.556c2.964,-0.646 5.985,-0.809 9.013,-0.705c1.023,0.037 2.043,0.191 3.062,0.307c1.525,0.171 3.051,0.343 4.573,0.544c0.57,0.076 0.917,-0.091 1.293,-0.562c2.103,-2.63 4.807,-4.493 7.823,-5.931c0.202,-0.097 0.428,-0.16 0.648,-0.213c0.565,-0.134 0.885,0.07 0.885,0.678c-0.002,1.084 0.083,2.178 -0.026,3.25c-0.227,2.207 -0.549,4.404 -0.846,6.603c-0.103,0.761 -0.037,1.279 0.689,1.886c1.565,1.305 2.092,3.255 2.177,5.212c0.08,1.815 0.009,3.666 -0.282,5.454c-0.297,1.823 -1.232,3.462 -2.667,4.663c-1.448,1.212 -3.09,2.164 -4.973,2.569c-3.169,0.684 -6.33,1.425 -9.525,1.963c-1.498,0.253 -3.067,0.116 -4.603,0.106c-1.025,-0.006 -2.05,-0.1 -3.076,-0.156l0,-0.067c-1.598,0 -3.201,0.084 -4.792,-0.018c-2.441,-0.16 -4.887,-0.366 -7.305,-0.721c-1.038,-0.153 -2.016,-0.726 -3.017,-1.121c-0.31,-0.121 -0.589,-0.325 -0.905,-0.423c-2.698,-0.829 -4.504,-2.625 -4.891,-5.379m53.49,4.022c0.408,-1.735 0.353,-3.477 -0.08,-5.233c-1.616,-6.563 2.397,-13.184 8.963,-14.892c1.219,-0.318 2.366,-0.299 3.435,0.436c1.358,0.936 1.62,2.403 0.584,3.67c-1.079,1.32 -2.317,2.52 -3.329,3.888c-1.869,2.523 -3.115,5.289 -2.903,8.549c0.07,1.076 0.003,2.164 0.01,3.246c0.007,1.446 -0.444,2.74 -1.574,3.638c-1.151,0.914 -2.419,1.686 -3.668,2.468c-0.319,0.199 -0.755,0.273 -1.141,0.283c-1.42,0.031 -2.841,0.011 -4.263,0.011c-0.06,-0.094 -0.12,-0.188 -0.18,-0.284c2.47,-1.178 3.568,-3.319 4.146,-5.78m-52.434,7.735l6.529,0c-0.174,-0.71 -0.295,-1.436 -0.467,-2.15c-0.045,-0.192 -0.201,-0.443 -0.365,-0.501c-0.151,-0.055 -0.523,0.075 -0.557,0.192c-0.383,1.318 -1.318,0.641 -2.156,0.721c0.055,-1.012 0.671,-1.654 1.028,-2.392c0.079,-0.163 0.464,-0.196 0.715,-0.252c0.095,-0.021 0.217,0.057 0.32,0.103c1.965,0.885 4.071,0.998 6.172,1.175c1.121,0.093 2.231,0.306 3.425,0.477c-0.216,0.891 -0.39,1.776 -0.675,2.627l2.757,0c0.425,-0.062 0.892,-0.067 1.4,-0.027c0.271,0.021 0.547,0.014 0.82,0.027l4.505,0c0.163,-0.007 0.329,-0.007 0.491,-0.013c0.225,-0.011 0.432,-0.004 0.629,0.013l2.371,0c-0.267,-0.451 -0.456,-0.944 -0.156,-1.606c-0.505,-0.027 -0.946,-0.07 -1.387,-0.07c-2.683,-0.003 -5.366,0.008 -8.047,0.004c-0.397,0 -0.815,0.011 -1.178,-0.116c-0.195,-0.068 -0.292,-0.418 -0.434,-0.641c0.176,-0.098 0.353,-0.285 0.529,-0.284c1.997,0.016 4.007,-0.074 5.989,0.126c4.164,0.418 8.167,-0.371 12.166,-1.329c0.11,-0.026 0.213,-0.086 0.324,-0.112c3.629,-0.825 2.706,-1.243 4.439,2.16c-0.047,0.032 -0.099,0.097 -0.141,0.092c-1.469,-0.206 -2.055,0.561 -2.405,1.776l22.313,0l-0.151,-1.669l-0.681,0c-0.53,0 -1.061,-0.047 -1.907,-0.086c0.789,-0.659 1.317,-1.081 1.823,-1.526c1.399,-1.235 2.177,-2.75 2.126,-4.656c-0.03,-1.083 0.062,-2.172 -0.019,-3.25c-0.174,-2.316 0.463,-4.429 1.646,-6.349c0.861,-1.396 1.947,-2.658 2.965,-3.955c0.456,-0.582 1.038,-1.066 1.479,-1.657c1.391,-1.868 0.826,-4.272 -1.21,-5.388c-1.284,-0.704 -2.627,-0.704 -3.986,-0.359c-5.641,1.441 -11.931,7.764 -9.811,16.057c0.291,1.14 0.464,2.38 0.348,3.539c-0.284,2.84 -1.369,5.223 -4.117,6.656c-1.876,0.978 -3.808,1.055 -5.805,0.952c-0.304,-0.017 -0.714,-0.177 -0.872,-0.408c-0.624,-0.922 -1.414,-1.753 -1.799,-2.854c1.003,-0.597 1.964,-1.1 2.851,-1.71c2.655,-1.825 4.123,-4.356 4.304,-7.585c0.074,-1.309 0.047,-2.623 0.09,-3.933c0.08,-2.513 -0.757,-4.709 -2.344,-6.613c-0.404,-0.484 -0.587,-0.92 -0.505,-1.531c0.201,-1.523 0.441,-3.048 0.529,-4.58c0.107,-1.874 0.133,-3.757 0.082,-5.633c-0.025,-0.924 -0.503,-1.231 -1.375,-0.997c-0.874,0.236 -1.752,0.527 -2.559,0.931c-2.468,1.239 -4.642,2.907 -6.551,4.891c-0.707,0.738 -1.462,1.024 -2.431,0.895c-0.453,-0.061 -0.908,-0.09 -1.357,-0.17c-4.257,-0.749 -8.537,-0.713 -12.766,0.025c-1.516,0.262 -2.394,-0.102 -3.159,-1.254c-0.126,-0.19 -0.25,-0.385 -0.397,-0.557c-2.085,-2.438 -4.325,-4.702 -7.12,-6.344c-1.402,-0.822 -2.494,-0.585 -3.274,0.846c-0.347,0.637 -0.561,1.377 -0.689,2.095c-0.544,3.046 -0.521,6.127 -0.394,9.205c0.041,0.978 -0.204,1.709 -0.907,2.432c-1.589,1.63 -2.59,3.676 -3.025,5.853c-0.41,2.046 -0.531,4.197 -0.431,6.285c0.118,2.478 1.179,4.62 3.358,6.044c0.527,0.343 1.051,0.69 1.587,1.013c0.474,0.285 0.598,0.648 0.35,1.149c-0.1,0.203 -0.177,0.421 -0.248,0.635c-0.194,0.584 -0.21,1.431 -0.611,1.689c-0.497,0.321 -1.31,0.199 -1.985,0.2l-0.006,1.672Z" style="fill:#231f20;fill-rule:nonzero;"/><path d="M32.613,39.442c-0.296,-0.04 -0.435,0.099 -0.517,0.294l0.735,0c-0.064,-0.157 -0.145,-0.284 -0.218,-0.294" style="fill:#231f20;fill-rule:nonzero;"/><path d="M32.94,40.254c-0.037,0.677 -0.206,1.345 -0.276,2.022c-0.025,0.262 0.016,0.742 0.125,0.771c0.584,0.159 1.2,0.286 1.803,0.275c0.552,-0.009 0.668,-0.511 0.745,-0.989c0.116,-0.731 0.238,-1.464 0.427,-2.177c0.043,-0.163 0.22,-0.289 0.383,-0.419l-3.317,0c0.07,0.169 0.119,0.373 0.11,0.517" style="fill:#231f20;fill-rule:nonzero;"/><path d="M36.147,39.736l0.234,0c-0.031,-0.041 -0.064,-0.084 -0.09,-0.124c-0.043,0.041 -0.093,0.084 -0.144,0.124" style="fill:#231f20;fill-rule:nonzero;"/><path d="M31.554,42.368c0.144,-0.518 0.268,-0.889 0.345,-1.271c0.056,-0.277 0.033,-0.568 0.075,-0.849c0.027,-0.173 0.057,-0.358 0.123,-0.513l-2.587,0c0.139,0.236 0.299,0.462 0.424,0.693c0.381,0.704 0.676,1.525 1.62,1.94" style="fill:#231f20;fill-rule:nonzero;"/><path d="M40.304,25.874c-3.374,-1.81 -7.034,-2.634 -10.767,-2.855c-0.088,1.372 -1.047,2.677 -2.393,3.038c-0.704,0.188 -1.451,0.222 -2.17,0.325c-1.037,-0.147 -2.07,-0.197 -3.051,-0.455c-1.376,-0.364 -2.1,-1.311 -2.067,-2.369c-0.726,0.109 -1.448,0.223 -2.163,0.35c-2.309,0.408 -4.596,0.954 -6.809,1.726c-1.829,0.638 -3.655,1.428 -5.188,2.631c-1.049,0.824 -1.849,1.865 -2.366,3.096c-0.025,0.061 -0.044,0.125 -0.07,0.187c0.82,0.812 1.879,1.421 3.143,1.81c0.315,0.098 0.595,0.302 0.905,0.424c1.001,0.394 1.979,0.968 3.017,1.119c2.418,0.356 4.864,0.563 7.305,0.721c1.59,0.103 3.194,0.02 4.791,0.02c0,0.021 0.002,0.044 0.002,0.067c1.025,0.056 2.05,0.149 3.075,0.156c1.536,0.01 3.105,0.147 4.604,-0.106c3.194,-0.538 6.354,-1.28 9.524,-1.963c1.883,-0.405 3.525,-1.358 4.972,-2.57c0.376,-0.315 0.714,-0.664 1.02,-1.035c-1.471,-1.747 -3.262,-3.216 -5.314,-4.317" style="fill:#d9dbdc;fill-rule:nonzero;"/><path d="M40.839,7.845c0.692,-0.55 1.431,-1.044 2.223,-1.466c0.856,-0.458 1.429,-0.083 1.529,0.862c0.016,0.137 0.016,0.274 0.014,0.411c0.303,-0.22 0.613,-0.419 0.934,-0.585c0.063,-0.964 0.013,-1.937 0.014,-2.908c0,-0.61 -0.32,-0.813 -0.885,-0.68c-0.22,0.053 -0.444,0.116 -0.648,0.214c-1.315,0.626 -2.556,1.354 -3.728,2.17c0.182,0.553 0.296,1.338 0.547,1.982" style="fill:#d9dbdc;fill-rule:nonzero;"/><path d="M6.701,12.697c0.357,0.051 0.71,0.019 1.048,-0.057c-0.012,-0.07 -0.039,-0.12 -0.046,-0.197c-0.064,-0.788 -0.013,-1.588 -0.013,-2.383c-0.02,-0.001 -0.041,-0.004 -0.061,-0.006c0.076,-0.923 0.144,-1.848 0.231,-2.774c-0.011,-0.021 -0.024,-0.04 -0.035,-0.061c-0.323,-0.598 -0.644,-1.216 -0.776,-1.889c-0.168,-0.856 -0.232,-1.733 -0.245,-2.604c-0.005,-0.325 0.004,-0.655 0.011,-0.988c-0.063,0.085 -0.131,0.159 -0.183,0.27c-0.354,0.761 -0.646,1.602 -0.722,2.43c-0.203,2.209 -0.31,4.427 -0.381,6.646c-0.014,0.415 0.047,0.843 0.104,1.27c0.34,0.17 0.704,0.292 1.068,0.343" style="fill:#d9dbdc;fill-rule:nonzero;"/><path d="M50.856,37.782c2.47,-1.178 3.568,-3.319 4.146,-5.781c0.408,-1.736 0.353,-3.476 -0.08,-5.232c-1.616,-6.564 2.397,-13.184 8.963,-14.893c1.219,-0.317 2.365,-0.299 3.435,0.437c1.358,0.935 1.62,2.402 0.584,3.669c-1.08,1.32 -2.317,2.521 -3.33,3.889c-1.868,2.522 -3.115,5.289 -2.902,8.547c0.07,1.078 0.003,2.166 0.01,3.248c0.009,1.446 -0.444,2.74 -1.575,3.638c-1.15,0.912 -2.418,1.684 -3.667,2.468c-0.319,0.198 -0.756,0.273 -1.141,0.281c-1.421,0.033 -2.841,0.013 -4.263,0.013c-0.06,-0.094 -0.12,-0.19 -0.18,-0.284" style="fill:#939598;fill-rule:nonzero;"/><path d="M67.319,12.312c-1.069,-0.737 -2.216,-0.754 -3.434,-0.437c-2.889,0.753 -5.282,2.456 -6.919,4.686c-0.039,0.175 -0.089,0.354 -0.12,0.521c-0.077,0.414 -0.386,1.893 0.21,2.091c0.301,0.1 0.735,-0.194 0.966,-0.347c0.396,-0.259 0.757,-0.569 1.111,-0.88c0.598,-0.527 1.178,-1.18 1.904,-1.531c0.31,-0.15 0.594,0.258 0.444,0.52c-0.362,0.636 -0.702,1.285 -0.985,1.957c-0.205,0.49 -0.725,1.532 -0.378,2.047c0.008,0.015 0.018,0.012 0.031,0.016c0.029,-0.007 0.062,-0.016 0.085,-0.033c0.119,-0.1 0.237,-0.191 0.344,-0.307c0.288,-0.315 0.529,-0.676 0.763,-1.033c0.417,-0.637 0.757,-1.357 1.235,-1.951c0.236,-0.292 0.718,0 0.617,0.345c-0.472,1.596 -0.899,3.217 -1.061,4.879c-0.055,0.568 -0.092,1.208 -0.05,1.842c0.494,-1.729 1.378,-3.324 2.492,-4.827c1.013,-1.368 2.25,-2.568 3.329,-3.889c1.036,-1.266 0.775,-2.734 -0.584,-3.669" style="fill:#d9dbdc;fill-rule:nonzero;"/><path d="M41.755,37.868c-0.047,0.031 -0.099,0.097 -0.141,0.091c-1.576,-0.221 -2.139,0.671 -2.48,2.043c-0.333,1.334 -1.376,2.15 -2.66,2.887c0,-0.521 -0.028,-0.901 0.007,-1.276c0.044,-0.45 0.199,-0.897 0.194,-1.344c-0.001,-0.22 -0.248,-0.438 -0.384,-0.656c-0.182,0.178 -0.471,0.329 -0.526,0.542c-0.19,0.714 -0.312,1.446 -0.427,2.177c-0.077,0.479 -0.193,0.98 -0.747,0.99c-0.601,0.011 -1.218,-0.116 -1.802,-0.276c-0.108,-0.03 -0.151,-0.508 -0.124,-0.771c0.07,-0.677 0.238,-1.345 0.276,-2.021c0.014,-0.277 -0.177,-0.791 -0.329,-0.811c-0.528,-0.073 -0.578,0.414 -0.638,0.805c-0.043,0.281 -0.018,0.572 -0.076,0.851c-0.077,0.38 -0.199,0.751 -0.345,1.269c-0.942,-0.415 -1.238,-1.236 -1.619,-1.94c-0.366,-0.674 -1.035,-1.289 -0.581,-2.297c-0.504,-0.029 -0.945,-0.072 -1.388,-0.072c-2.682,-0.003 -5.365,0.01 -8.046,0.006c-0.396,0 -0.815,0.011 -1.176,-0.116c-0.196,-0.07 -0.295,-0.418 -0.436,-0.642c0.177,-0.099 0.354,-0.286 0.53,-0.284c1.997,0.016 4.007,-0.074 5.989,0.125c4.164,0.419 8.167,-0.371 12.166,-1.329c0.11,-0.025 0.212,-0.085 0.323,-0.111c3.629,-0.825 2.705,-1.244 4.44,2.16" style="fill:#939598;fill-rule:nonzero;"/><path d="M17.212,37.108c-0.483,1.992 -0.724,3.965 -2.581,5.562c-0.096,-0.866 -0.15,-1.506 -0.246,-2.138c-0.021,-0.133 -0.231,-0.362 -0.288,-0.345c-0.186,0.06 -0.457,0.192 -0.484,0.336c-0.084,0.441 -0.07,0.901 -0.092,1.353c-0.014,0.283 0.058,0.607 -0.058,0.837c-0.097,0.191 -0.401,0.338 -0.632,0.373c-0.113,0.015 -0.395,-0.28 -0.386,-0.42c0.046,-0.68 0.183,-1.351 0.25,-2.027c0.104,-1.027 -0.087,-1.547 -0.487,-1.419c-0.651,0.204 -0.455,0.832 -0.547,1.306c-0.14,0.719 -0.262,1.443 -0.411,2.271c-1.225,-0.41 -1.646,-1.413 -1.983,-2.388c-0.314,-0.905 -0.411,-1.883 -0.637,-2.821c-0.045,-0.194 -0.201,-0.446 -0.365,-0.504c-0.153,-0.055 -0.523,0.075 -0.557,0.192c-0.383,1.318 -1.319,0.641 -2.156,0.721c0.055,-1.012 0.671,-1.653 1.028,-2.392c0.079,-0.163 0.463,-0.194 0.715,-0.252c0.095,-0.02 0.217,0.059 0.32,0.105c1.965,0.885 4.071,0.996 6.172,1.173c1.121,0.093 2.231,0.307 3.425,0.477" style="fill:#939598;fill-rule:nonzero;"/><path d="M24.878,25.114c0.006,-0.041 0.011,-0.083 0.017,-0.124c0.453,0 0.911,0.048 1.356,-0.01c1.033,-0.136 1.825,-0.873 2.015,-1.8c0.165,-0.819 -0.146,-1.327 -0.965,-1.468c-0.947,-0.161 -1.898,-0.316 -2.853,-0.39c-1.149,-0.091 -2.108,0.381 -2.828,1.262c-0.741,0.905 -0.501,1.776 0.601,2.073c0.864,0.233 1.769,0.31 2.657,0.457m0.096,1.269c-1.037,-0.148 -2.072,-0.198 -3.051,-0.457c-2.216,-0.585 -2.746,-2.681 -1.141,-4.317c1.171,-1.195 2.607,-1.563 4.216,-1.263c0.611,0.114 1.156,0.234 1.816,0.05c1.135,-0.317 2.531,0.795 2.702,1.984c0.226,1.585 -0.819,3.258 -2.374,3.676c-0.704,0.189 -1.449,0.223 -2.168,0.327" style="fill:#231f20;fill-rule:nonzero;"/><path d="M8.872,6.677c0,1.776 -0.01,3.458 0.014,5.138c0.003,0.184 0.16,0.454 0.319,0.531c0.505,0.244 2.474,-0.856 2.519,-1.376c0.009,-0.107 -0.008,-0.231 -0.054,-0.328c-0.704,-1.467 -1.459,-2.897 -2.798,-3.965m-1.243,3.378c0.097,-1.187 0.171,-2.374 0.304,-3.556c0.048,-0.443 0.192,-0.888 0.374,-1.295c0.289,-0.648 0.728,-0.72 1.135,-0.136c1.132,1.626 2.271,3.252 3.288,4.951c0.696,1.167 0.531,1.706 -0.627,2.392c-0.87,0.513 -1.813,0.955 -2.781,1.23c-0.977,0.279 -1.538,-0.191 -1.619,-1.198c-0.064,-0.789 -0.013,-1.587 -0.013,-2.382c-0.02,-0.002 -0.041,-0.005 -0.061,-0.006" style="fill:#231f20;fill-rule:nonzero;"/><path d="M39.409,10.613c0.967,0.824 1.805,1.539 2.744,2.343c0.771,-1.863 1.42,-3.608 1.386,-5.764c-1.697,0.954 -2.995,1.99 -4.13,3.421m5.187,-2.523c-0.172,2.112 -0.781,4.105 -1.726,5.991c-0.366,0.726 -0.787,0.779 -1.318,0.198c-0.881,-0.961 -1.743,-1.916 -2.928,-2.548c-0.634,-0.337 -0.67,-0.78 -0.192,-1.428c1.233,-1.667 2.813,-2.955 4.63,-3.924c0.857,-0.457 1.429,-0.082 1.529,0.863c0.03,0.28 0.005,0.566 0.005,0.848" style="fill:#231f20;fill-rule:nonzero;"/><path d="M25.957,17.242c0.07,-0.368 0.077,-0.845 0.266,-1.235c0.115,-0.243 0.494,-0.457 0.776,-0.488c0.187,-0.022 0.523,0.262 0.601,0.478c0.343,0.931 0.373,1.89 -0.173,2.755c-0.138,0.219 -0.568,0.362 -0.85,0.345c-0.18,-0.012 -0.42,-0.359 -0.489,-0.597c-0.105,-0.373 -0.088,-0.781 -0.131,-1.258" style="fill:#231f20;fill-rule:nonzero;"/><path d="M21.607,17.453c0.027,-0.156 0.036,-0.445 0.128,-0.704c0.18,-0.504 0.512,-0.969 1.091,-0.869c0.627,0.11 0.677,0.694 0.606,1.215c-0.069,0.494 -0.13,1.026 -0.367,1.444c-0.149,0.262 -0.616,0.463 -0.938,0.462c-0.175,-0.002 -0.389,-0.469 -0.504,-0.757c-0.079,-0.194 -0.016,-0.444 -0.016,-0.791" style="fill:#231f20;fill-rule:nonzero;"/><path d="M24.878,25.114c-0.888,-0.147 -1.793,-0.224 -2.657,-0.457c-1.102,-0.297 -1.342,-1.168 -0.601,-2.073c0.72,-0.881 1.679,-1.353 2.828,-1.262c0.955,0.074 1.906,0.229 2.853,0.39c0.819,0.141 1.13,0.649 0.965,1.468c-0.19,0.927 -0.982,1.664 -2.015,1.8c-0.445,0.058 -0.903,0.01 -1.356,0.01c-0.006,0.041 -0.011,0.083 -0.017,0.124" style="fill:#f8b6c1;fill-rule:nonzero;"/><path d="M8.872,6.677c1.339,1.068 2.094,2.498 2.798,3.965c0.046,0.097 0.063,0.221 0.054,0.328c-0.045,0.52 -2.014,1.62 -2.519,1.376c-0.159,-0.077 -0.316,-0.347 -0.319,-0.531c-0.024,-1.68 -0.014,-3.362 -0.014,-5.138" style="fill:#f8b6c1;fill-rule:nonzero;"/><path d="M39.409,10.613c1.135,-1.431 2.433,-2.467 4.13,-3.421c0.034,2.156 -0.615,3.901 -1.386,5.764c-0.939,-0.804 -1.777,-1.519 -2.744,-2.343" style="fill:#f8b6c1;fill-rule:nonzero;"/><g opacity="0.2"><path d="M47.548,21.11c-0.086,-1.956 -0.612,-3.908 -2.177,-5.212c-0.727,-0.607 -0.793,-1.125 -0.69,-1.888c0.297,-2.198 0.621,-4.396 0.845,-6.603c0.11,-1.072 0.026,-2.164 0.028,-3.248c0,-0.609 -0.32,-0.812 -0.886,-0.679c-0.015,0.004 -0.03,0.011 -0.045,0.016c-0.184,0.926 -0.457,1.837 -0.768,2.735c0.399,0.07 0.672,0.407 0.736,1.011c0.03,0.28 0.005,0.566 0.005,0.849c-0.172,2.11 -0.781,4.105 -1.726,5.989c-0.366,0.73 -0.789,0.78 -1.318,0.2c-0.497,-0.541 -0.994,-1.074 -1.538,-1.555c-0.027,0.02 -0.05,0.043 -0.078,0.062c-0.426,0.3 -0.935,0.518 -1.309,0.886c2.081,1.983 4.948,3.665 5.382,6.753c0.225,1.613 -0.234,3.309 -0.885,4.776c-0.663,1.492 -1.585,2.954 -2.747,4.107c-2.25,2.236 -5.351,3.456 -8.298,4.466c-2.22,0.761 -4.455,1.49 -6.725,2.084c0.047,0.002 0.095,0.006 0.144,0.006c1.536,0.01 3.104,0.147 4.603,-0.106c3.195,-0.538 6.355,-1.28 9.525,-1.963c1.883,-0.405 3.523,-1.357 4.972,-2.57c1.435,-1.202 2.37,-2.839 2.667,-4.664c0.292,-1.787 0.363,-3.637 0.283,-5.452" style="fill:#58595b;fill-rule:nonzero;"/></g><g opacity="0.2"><path d="M29.454,22.15c0.021,0.077 0.051,0.151 0.061,0.23c0.227,1.585 -0.818,3.258 -2.372,3.676c-0.704,0.189 -1.449,0.224 -2.169,0.327c-0.952,-0.136 -1.896,-0.204 -2.804,-0.411c0.338,0.501 0.825,0.908 1.409,1.195c2.07,1.008 4.656,0.765 6.395,-0.785c0.679,-0.607 1.249,-1.525 1.055,-2.472c-0.172,-0.831 -0.838,-1.38 -1.575,-1.76" style="fill:#58595b;fill-rule:nonzero;"/></g><g opacity="0.2"><path d="M8.996,3.834c0.191,0.44 0.348,0.889 0.517,1.338c1.109,1.59 2.221,3.185 3.216,4.847c0.417,0.696 0.517,1.167 0.29,1.581c0.496,0.08 1.028,0.058 1.486,0.056c1.599,-0.004 3.2,-0.051 4.796,-0.164c1.803,-0.127 3.719,-0.26 5.435,-0.875c0.441,-0.159 1.054,-0.42 1.232,-0.804c0.077,-0.166 0.06,-0.307 -0.024,-0.484c-0.002,-0.003 -0.005,-0.006 -0.006,-0.007c-2.581,-0.02 -5.154,0.167 -7.682,0.718c-0.811,0.176 -1.315,-0.017 -1.806,-0.557c-0.346,-0.381 -0.68,-0.769 -1.024,-1.15c-1.185,-1.311 -2.297,-2.694 -3.58,-3.901c-1.114,-1.048 -2.393,-1.93 -3.652,-2.809c-0.2,-0.139 -0.387,-0.206 -0.566,-0.237c0.57,0.746 1.005,1.617 1.368,2.448" style="fill:#58595b;fill-rule:nonzero;"/></g><path d="M13.54,26.387c-0.811,1.159 -0.003,2.898 1.279,3.495c1.281,0.597 2.793,0.348 4.145,-0.069c1.352,-0.416 2.685,-0.995 4.099,-1.029c1.63,-0.04 3.175,0.647 4.729,1.136c1.831,0.574 3.829,0.883 5.652,0.29c1.824,-0.592 3.39,-2.285 3.333,-4.201" style="fill:none;fill-rule:nonzero;stroke:#231f20;stroke-width:1.07px;"/></g></svg>