<svg clip-rule="evenodd" fill-rule="evenodd" stroke-linejoin="round" stroke-miterlimit="2" viewBox="0 0 95 53" xmlns="http://www.w3.org/2000/svg"><g fill-rule="nonzero"><path d="m67.628 13.298c-1.658 0-2.844.008-4.028-.005-.813-.008-1.183.36-1.068 1.175.079.549.092 1.126.275 1.639.237.663.668.92 1.492.713 1.73-.433 2.197-1.912 3.329-3.522m4.806-4.477c-3.447-.339-6.38.954-9.681 2.863 4.079.647 7.048-.524 9.681-2.863m12.663 32.026c.417-.458.822-.751 1.019-1.144.941-1.883.721-3.86.328-5.826-.059-.293-.295-.566-.497-.808-2.015-2.436-4.581-3.694-7.764-3.403-.709.066-1.71.413-1.988.939-.499.945.445 1.547 1.154 2.076.191.143.382.291.584.42 2.472 1.572 4.385 3.676 5.919 6.155.324.521.756.974 1.245 1.591m-7.596-12.906c1.523.179 3.21.069 4.655.612 3.131 1.177 5.648.218 7.964-1.749.877-.743 1.879-1.53 1.81-2.916-1.037-.318-2.062-.841-3.119-.915-2.762-.196-5.405.453-7.924 1.586-1.546.694-3.411 1.066-3.386 3.382m8.41-15.648c-.428.184-.609.211-.707.314-2.723 2.808-5.458 5.603-8.124 8.465-.385.414-.581 1.135-.609 1.725-.059 1.26.605 1.63 1.832 1.161 1.862-.708 3.749-1.358 5.581-2.131 1.19-.505 2.372-1.292 2.557-2.629.307-2.265.544-4.586-.53-6.905m-9.764 13.172c-5.955-.562-6.03-.097-9.157 1.821-.545.334-1.084.795-1.68.91-2.982.567-5.647 2.189-8.548 2.798-5.861 1.23-11.769 1.14-17.475-1.043-1.144-.438-2.211-.74-3.474-.451-1.787.406-3.619.615-5.435.898-.65.101-1.341.347-2.028-.329 2.069-1.409 4.497-1.222 6.528-2.064-.973-1.221-1.842-2.26-2.653-3.341-.447-.597-.904-.704-1.645-.543-2.113.461-3.811 1.69-5.291 3.083-3.027 2.849-5.909 5.856-8.754 8.887-1.806 1.923-3.438 4.01-5.149 6.024-.411.482-.863.878-.437 1.663.597 1.1 1.034 2.288 1.584 3.538.942-.258 1.993-.74 3.062-.78 1.06-.041 2.139.362 3.098.548 1.854-1.974 3.51-4.068 5.494-5.782 4.64-4.01 9.714-6.848 16.268-6.408 5.174.345 10.394.023 15.591-.005 4.981-.027 9.304-2.05 13.454-4.519 1.314-.784 2.566-1.587 4.133-1.804.473-.064 1.001-.462 1.298-.859.467-.62.757-1.372 1.216-2.242m-46.432-8.219c.966.959 1.555 1.6 2.203 2.178.695.618 1.863 1.092.371 2.097-.103.069-.112.459-.018.61 1.104 1.762 2.122 3.624 4.024 4.681 3.469 1.927 7.117 3.279 11.162 3.264 1.602-.007 3.209.08 4.806-.007 1.431-.077 2.918-.126 4.264-.552 3.794-1.196 8.181-4.359 7.499-10.042-.081-.68-.183-1.137-.912-1.482-.58-.277-1.297-.948-1.357-1.507-.232-2.194-1.164-3.701-3.314-4.423-.211-.069-.255-.635-.375-.969.289-.069.679-.295.857-.181 1.334.834 2.393.308 3.492-.505.702-.518 1.517-.892 2.291-1.309 1.52-.82 1.555-1.16.964-2.839-1.914-5.453-10.825-6.248-13.687-1.654-.719 1.154-1.559 2.233-2.37 3.325-1.257 1.691-2.755 3.082-4.642 4.094-1.485.794-3.079.84-4.66.97-3.186.26-6.397.667-9.453-.768-.258-.123-.574-.125-.941-.197.446 1.934.5 1.977 1.74 3.12.366.336.588.828.875 1.249-.472.222-.931.472-1.416.651-.286.105-.615.094-1.403.196m37.855-9.476c1.589-.208 3.012-.491 4.443-.538.637-.02 1.426.279 1.897.71.506.462.15 1.765-.627 2.328-.967.699-2.026 1.288-3.096 1.822-.75.374-1.304.833-1.687 1.601-.459.929-.916 1.928-1.629 2.648-1.251 1.268-1.49 2.724-1.393 4.379.137 2.316-.253 4.484-1.989 6.367.484-.145.984-.252 1.446-.444.365-.151.698-.396 1.02-.63 2.132-1.541 4.413-2.592 7.141-2.306 1.001.107 1.62-.142 1.742-1.38.08-.811.554-1.709 1.116-2.324 2.543-2.77 5.127-5.512 7.804-8.154 2.214-2.185 3.232-1.885 3.982 1.127.663 2.673.428 5.383-.115 8.303.791.056 1.567.043 2.316.184.862.161 1.734.37 2.531.714 1.372.592 1.723 1.589 1.038 2.928-1.094 2.143-2.814 3.666-4.977 4.693-.709.335-1.444.615-2.336.992 2.704 2.451 2.759 5.41 1.902 8.487-.247.89-.797 1.759-1.4 2.474-1.107 1.308-2.415 1.193-3.372-.182-.504-.721-.854-1.57-1.435-2.213-1.386-1.536-2.793-3.071-4.339-4.441-1.25-1.109-2.738-1.9-3.186-3.735-.23-.94-1.155-.744-1.806-.433-1.225.587-2.474 1.178-3.578 1.957-3.788 2.68-8.069 3.64-12.603 4.134-5.699.62-11.369-.216-17.049.033-.799.036-1.618-.099-2.401.025-1.333.212-2.738.356-3.948.896-4.999 2.221-9.087 5.655-12.547 9.858-.668.809-.463 2.428.426 2.868.342.17.929.033 1.332-.133 2.428-1.003 4.961-1.27 7.542-1.076.768.056 1.561.321 2.245.678.275.143.38.786.369 1.198-.004.125-.66.357-1.001.327-.866-.074-1.718-.339-2.585-.395-2.19-.138-4.308.219-6.333 1.089-.439.191-.893.37-1.357.469-.872.186-1.505.002-1.879-.979-.301-.791-.838-1.516-1.376-2.186-1.107-1.377-1.884-1.566-3.491-.926-.668.265-1.283.671-1.959.91-.956.337-1.536-.053-1.699-1.046-.026-.157-.028-.32-.02-.479.073-1.403-.097-2.68-1.293-3.681-1.441-1.209-2.906-2.259-4.896-2.224-1.203.021-2.407.039-3.606-.002-.242-.008-.472-.284-.709-.434.202-.217.37-.559.614-.629 2.131-.598 4.263-.587 6.372.139.742.255 1.609.918 2.176.715.725-.26 1.234-1.181 1.786-1.86 4.203-5.154 8.504-10.207 13.506-14.64 1.269-1.123 2.68-1.654 4.162-2.217 2.033-.77 2.374-2.115.975-3.806-1.653-2.004-1.654-2.069-.18-3.955-.665-1.398-1.369-2.748-1.953-4.148-.306-.735.214-1.314.987-1.138 1.171.263 2.367.513 3.462.982 1.532.651 3.094.78 4.703.684 1.838-.112 3.681-.204 5.507-.429 2.183-.268 3.854-1.543 5.233-3.15 1.092-1.273 2.089-2.64 3.013-4.04 3.315-5.025 9.322-4.701 13.437-2.253.902.534 1.568 1.584 2.135 2.523.609 1.01.972 2.164 1.49 3.364" fill="#231f20"/><path d="m62.856 5.011c-.964.12-1.406.763-1.242 1.456.143.598.584 1.11 1.168.853.382-.164.739-.824.748-1.269.01-.384-.49-.777-.674-1.04m-3.148.493c-.13.311-.431.698-.418 1.073.031.898.765 1.638 1.235 1.316.364-.247.661-.859.658-1.305-.003-.692-.525-1.092-1.475-1.084m-21.504 13.712c-1.449 1.359-1.526 1.859-.426 3.359.89 1.212 2.05 2.043 3.602 2.086 6.021.166 12.001-3.588 13.132-10.715-.435.474-.731.712-.913 1.018-.412.684-.711 1.438-1.15 2.099-2.561 3.851-5.976 6.145-10.799 5.89-1.036-.054-1.867-.371-2.433-1.26-.329-.523-.223-.97.405-1.046.949-.112 1.923-.039 2.867-.176.388-.056.725-.455 1.086-.697-.351-.258-.668-.622-1.06-.744-.523-.159-1.126-.047-1.654-.199-.956-.274-2.004-.48-2.542-1.798 1.092 0 2.047.102 2.969-.026 1.088-.153 2.157-.472 3.211-.793.225-.069.35-.462.522-.704-.341-.126-.765-.452-1.009-.347-1.62.686-3.303.444-4.972.471-.757.011-1.828-.461-2.135.468-.203.614.271 1.486.544 2.205.132.348.495.61.755.909m-8.489-1.97c.789-.102 1.117-.091 1.403-.196.485-.179.946-.429 1.416-.651-.288-.422-.51-.913-.873-1.249-1.24-1.143-1.296-1.186-1.742-3.119.367.073.682.073.941.196 3.058 1.434 6.267 1.028 9.453.768 1.581-.13 3.175-.176 4.66-.97 1.887-1.012 3.387-2.403 4.642-4.094.812-1.093 1.651-2.172 2.37-3.325 2.864-4.594 11.774-3.799 13.687 1.653.591 1.68.558 2.02-.964 2.84-.775.417-1.589.791-2.291 1.309-1.099.812-2.158 1.339-3.492.505-.178-.112-.566.112-.857.181.12.334.164.9.375.969 2.15.722 3.082 2.23 3.314 4.424.059.558.778 1.229 1.357 1.505.731.348.831.803.912 1.482.682 5.684-3.705 8.847-7.499 10.042-1.346.427-2.831.477-4.262.553-1.599.087-3.206 0-4.808.007-4.045.015-7.693-1.338-11.161-3.264-1.903-1.057-2.92-2.919-4.025-4.681-.092-.151-.085-.541.018-.61 1.494-1.005.326-1.479-.372-2.098-.648-.577-1.237-1.218-2.202-2.177" fill="#00c1f3"/><path d="m63.113 17.992c-.579-.276-1.296-.946-1.355-1.505-.035-.311-.084-.604-.147-.887-.592 1.213-1.362 2.348-2.234 3.369-3.426 4.019-8.311 6.997-13.368 8.451-2.207.637-4.633.992-6.948.769 2.641 1.161 5.411 1.899 8.396 1.888 1.602-.007 3.209.081 4.806-.007 1.431-.077 2.918-.126 4.264-.552 3.795-1.198 8.182-4.361 7.499-10.044-.081-.679-.183-1.135-.913-1.482" fill="#c1e8fb"/><path d="m76.146 25.466c-.457.868-.748 1.62-1.214 2.24-.299.398-.827.796-1.298.861-1.567.217-2.819 1.019-4.135 1.802-4.148 2.469-8.471 4.494-13.453 4.521-5.198.026-10.418.348-15.591.003-6.555-.438-11.629 2.398-16.268 6.41-1.983 1.714-3.64 3.806-5.495 5.782-.959-.188-2.037-.591-3.097-.548-1.068.039-2.121.521-3.062.778-.549-1.25-.988-2.436-1.585-3.537-.426-.786.026-1.181.437-1.664 1.711-2.013 3.344-4.099 5.15-6.022 2.844-3.033 5.728-6.04 8.754-8.887 1.479-1.394 3.178-2.622 5.29-3.083.741-.161 1.198-.056 1.645.543.811 1.081 1.68 2.12 2.654 3.341-2.03.842-4.46.653-6.529 2.064.688.676 1.378.429 2.028.327 1.816-.283 3.648-.491 5.435-.898 1.263-.289 2.331.015 3.474.453 5.708 2.182 11.614 2.271 17.475 1.041 2.902-.609 5.568-2.229 8.549-2.798.595-.114 1.136-.574 1.681-.91 3.125-1.918 3.201-2.383 9.155-1.819" fill="#d58f59"/><path d="m85.911 12.293c1.072 2.319.837 4.64.528 6.905-.183 1.339-1.365 2.124-2.554 2.629-1.835.774-3.72 1.423-5.582 2.133-1.227.467-1.891.097-1.832-1.161.026-.592.222-1.313.609-1.727 2.666-2.861 5.401-5.657 8.122-8.465.1-.103.281-.13.709-.314" fill="#77c043"/><path d="m77.501 27.942c-.025-2.316 1.841-2.689 3.387-3.384 2.518-1.131 5.161-1.781 7.923-1.585 1.058.074 2.083.599 3.119.916.069 1.387-.933 2.171-1.809 2.916-2.316 1.968-4.833 2.927-7.965 1.749-1.444-.543-3.132-.434-4.655-.612" fill="#77c043"/><path d="m85.097 40.847c-.489-.617-.923-1.069-1.245-1.591-1.533-2.478-3.448-4.582-5.918-6.155-.204-.128-.394-.276-.584-.419-.711-.53-1.654-1.132-1.155-2.076.278-.526 1.28-.873 1.989-.939 3.181-.291 5.748.967 7.763 3.401.203.244.438.517.497.81.393 1.965.612 3.942-.327 5.826-.198.393-.602.686-1.02 1.143" fill="#77c043"/><path d="m72.434 8.821c-2.633 2.339-5.602 3.51-9.682 2.862 3.302-1.908 6.234-3.201 9.682-2.862" fill="#ffdd18"/><path d="m67.628 13.298c-1.132 1.61-1.599 3.089-3.329 3.522-.824.207-1.255-.05-1.492-.713-.183-.513-.196-1.09-.275-1.639-.115-.815.255-1.183 1.068-1.175 1.184.013 2.37.005 4.028.005" fill="#ffdd18"/><g fill="#231f20"><path d="m38.203 19.218c-.26-.301-.622-.563-.755-.911-.273-.717-.747-1.591-.544-2.204.307-.93 1.378-.458 2.136-.469 1.668-.025 3.351.215 4.973-.471.243-.103.668.221 1.008.347-.171.244-.298.635-.521.704-1.055.321-2.126.64-3.213.793-.923.129-1.877.027-2.969.027.538 1.319 1.586 1.524 2.543 1.799.526.15 1.13.038 1.653.199.392.12.709.485 1.06.742-.361.242-.698.643-1.086.699-.944.137-1.918.063-2.867.174-.628.076-.734.523-.403 1.047.564.888 1.395 1.205 2.431 1.26 4.823.256 8.238-2.04 10.799-5.891.441-.661.738-1.414 1.149-2.099.185-.304.479-.544.913-1.018-1.128 7.127-7.109 10.881-13.131 10.717-1.553-.045-2.712-.876-3.602-2.088-1.1-1.5-1.022-2 .426-3.357"/><path d="m59.707 5.504c.951-.008 1.474.391 1.475 1.084.004.447-.294 1.058-.657 1.304-.471.323-1.205-.417-1.236-1.316-.013-.375.288-.761.418-1.072"/><path d="m62.856 5.011c.184.263.684.656.674 1.04-.009.445-.366 1.105-.748 1.269-.584.257-1.025-.255-1.168-.853-.164-.693.278-1.336 1.242-1.456"/></g><path d="m52.67 5.194c-.908 2.096-2.189 4.194-4.242 5.195.156.129.344.213.539.264.991.265 2.048-.286 2.706-1.072.657-.786 1.01-1.773 1.411-2.716.402-.944.895-1.9 1.729-2.495.749-.535.436-1.156-.367-1.153-.931.003-1.485 1.304-1.776 1.977" fill="#fff"/></g></svg>