<svg clip-rule="evenodd" fill-rule="evenodd" stroke-linejoin="round" stroke-miterlimit="2" viewBox="0 0 630 433" xmlns="http://www.w3.org/2000/svg" xmlns:xlink="http://www.w3.org/1999/xlink"><linearGradient id="a" gradientTransform="matrix(0 1 1 0 .499999 -.499999)" gradientUnits="userSpaceOnUse" x1="0" x2="1" y1="0" y2="0"><stop offset="0" stop-color="#54a0c2"/><stop offset="1" stop-color="#86afb3"/></linearGradient><path d="m-72.843-249.438h149.572v102.281h-149.572z" fill="#bee7fb" transform="matrix(4.2022116951 0 0 -4.2192117087 306.92912733 -620.31759401)"/><path d="m-.794-.5h2.588v1h-2.588z" fill="url(#a)" transform="matrix(242.864777625 0 0 -243.847695078 193.66237005 310.1956504)"/><g fill-rule="nonzero"><path d="m0-3.748-.05-.126c.189-.089.377-.178.566-.267.024.059.049.119.075.178-.197.071-.394.143-.591.215m19.943-13.995-.234.047c-.047-.224-.095-.449-.142-.674.083-.016.167-.033.25-.05zm-50.827 15.368c-.243-.569-.375-.877-.572-1.335.767.203.769.597.572 1.335m27.304.232c-.109.645-.206 1.215-.343 2.019-.104-.695-.183-1.14-.235-1.588-.038-.335.066-.564.578-.431m.473 1.819c-.101-.968.252-1.456.666-1.922.123.663-.035 1.229-.666 1.922m22.134-19.446c-.048-.005-.095-.011-.143-.016-.024-.111-.085-.23-.064-.332.208-1.021.43-2.038.649-3.057.057.011.115.022.174.033-.206 1.124-.411 2.248-.616 3.372m-44.047 14.962c-.253.785-.453 1.596-1.081 2.19.152-.835.247-1.699 1.081-2.19m-3.835.378c.214-.041.466-.089.8-.151-.225.797-.415 1.471-.605 2.144-.065-.008-.13-.017-.195-.024zm28.069 1.968c-.127.64-.2 1.03-.282 1.419-.099.464-.227.898-.947.597.274-.691.284-1.487 1.229-2.016m22.102-13.677c-.88-.821-.88-.821-.416-1.774.714.383.714.383.416 1.774m-50.221 49.064c1.828-.245 2.029-.065 1.802 1.447-.571-.459-1.084-.871-1.802-1.447m32.769-13.811h2.741c-1.017.442-1.764.766-2.57 1.117-.058-.381-.111-.728-.171-1.117m16.999-42.371c-.243 1.449-.464 2.768-.684 4.087-.448-.819-.11-2.509.684-4.087m-43.366 1.335c.952.625.953.625.908 1.043-.069.631-.472.889-1.214.988.103-.684.196-1.301.306-2.031m45.114 7.23c-.935-.588-.535-1.315-.475-1.963.019-.216.169-.421.287-.697.308.165.546.292.822.439-.213.747-.412 1.444-.634 2.221m-50.546 12.71c.056-1.01.328-1.791.809-2.482.107-.156.465-.138.939-.258-.653 1.005-.554 2.163-1.748 2.74m5.512-22.988c-.172.654-.317 1.205-.484 1.838-.493-.358-.855-.62-1.197-.868.236-.949.236-.949 1.681-.97m-.348 20.099c-.308.57-.628 1.044-.831 1.564-.252.651-.646.574-1.142.408.456-1.754.724-2.018 1.973-1.972m16.858 23.858c.472-.041 1.024-.089 1.55-.134.438.741.499 1.412.345 2.237-.688-.764-1.281-1.421-1.895-2.103m-25.297-20.593c-.894-.103-1.338-.639-2.142-2.438.805-.227.843-.247 1.022.099.386.747.729 1.517 1.12 2.339m49.66-15.972c.175 2.608-.689 5.08-1.012 7.627-.048-2.589.613-5.089 1.012-7.627m-44.204-6.127c.852-.059.716.442.664.809-.151 1.056-.338 2.107-.523 3.158-.025.136-.122.259-.184.384-.147-.062-.283-.097-.281-.122.098-1.376.207-2.75.324-4.229m6.109 3.863c-.447 1.535-.87 2.987-1.292 4.438-.066-.922-.043-1.839.195-2.695.24-.857.316-1.665-.077-2.672.463.367.773.612 1.174.929m-.845-5.023c-.265.956-.511 1.846-.791 2.854-.417-.276-.705-.467-1.009-.669.181-.611.37-1.152.498-1.708.156-.674.576-.693 1.302-.477m42.274 10.573c.655.452.517.986.413 1.496-.115.564-.256 1.122-.4 1.68-.124.48-.017 1.079-.71 1.395-.182-1.626.277-3.051.697-4.571m-51.083 31.242c-1.641-.804-1.988-1.157-2.272-2.264h1.847c.146.779.279 1.488.425 2.264m50.153-35.69c.352-1.528.455-2.998 1.124-4.304.148.032.293.056.292.063-.177 1.447-.363 2.892-.556 4.337-.009.063-.091.117-.179.225-.2-.094-.413-.195-.681-.321m6.638 22.591c-.583-.333-.795-.703-.686-1.272.106-.563.094-1.149.215-1.707.157-.727.075-1.525.579-2.288.404 1.842.082 3.522-.108 5.267m-28.208-8.315c-.057-.064-.116-.127-.174-.19.385-1.609.77-3.217 1.175-4.914.958 1.668-.097 3.038-.38 4.476-.047.241-.406.42-.621.628m23.426-5.419c-.041-.96-.048-1.851.328-2.996.727 1.115 1.314 2.016 1.952 2.996zm-45.164 41.196c-1.191.821-2.196.546-3.269.246.038-.528.075-1.027.123-1.698 1.097.506 2.033.938 3.146 1.452m-35.143-52.623c.831-1.666 2.345-2.332 4.866-2.102-1.63.935-3.205 1.511-4.866 2.102m34.509-1.089c-.166.669-.315 1.304-.483 1.934-.248.933-.28.945-1.386.737.093-.565.162-1.136.285-1.694.118-.533.291-1.054.464-1.664.46.282.77.472 1.12.687m22.486 21.936c.376-.789.681-1.427 1-2.096.5.031.933.058 1.392.087.115.751.212 1.378.309 2.009zm20.767-9.433c-.095.003-.19.006-.285.009-.512-.923-.052-1.922.01-2.865.064-.979.351-1.943.547-2.946.605.357.74.745.593 1.37-.343 1.464-.583 2.953-.865 4.432m-.884-7.086c.746.755.472 1.404.403 1.968-.184 1.509-.456 3.006-.707 4.505-.05.296-.066.653-.644.761-.029-2.435.629-4.679.948-7.234m-56.956-13.373c-.841.037-1.703.075-2.576.113.073-1.894.234-2.103 1.454-2.015 1.056.076 1.323.494 1.122 1.902m-45.596 19.906c1.486-2.096 3.578-2.613 6.194-2.38-2.149.984-4.107 1.85-6.194 2.38m63.838-10.296c-1.383-.574-1.208-.956-.941-1.831.142-.467.361-.912.519-1.376.109-.322.173-.66.277-1.069.377.024.768.049 1.332.086-.415 1.465-.792 2.796-1.187 4.19m-3.954-12.227c.21.755.386 1.525.253 2.37h-2.313c-.358-2.094.038-2.542 2.06-2.37m-8.759 63.13h4.483c.124.449.24.835.333 1.227.025.109-.019.235-.038.416-1.792.136-3.483.045-4.778-1.643m55.579-47.85c-.438-.187-.759-.324-1.065-.454.074-.579.104-1.071.206-1.548.198-.918.424-1.832.666-2.741.172-.64.601-.685 1.168-.43-.322 1.709-.639 3.389-.975 5.173m-74.239-.873c.336.202.472.297.618.369 1.249.615 2.328 1.35 2.362 2.954.007.31.231.61.298.927.102.485.154.981.228 1.473-1.313-1.777-2.723-3.427-3.506-5.723m33.114-13.726c.543-.129 1.048-.344 1.556-.351 1.911-.025 1.911.413 1.64 1.951-.514.049-1.065.127-1.617.148-1.768.067-1.651.005-1.579-1.748m1.53 7.319c-.559 1.976-1.073 3.795-1.626 5.751-.458-.397-.756-.656-1.114-.966.563-1.621 1.106-3.187 1.66-4.785zm-4.563 63.947c-1.473.628-2.908 1.24-4.479 1.91v-2.472c.502 0 .95.111 1.308-.021 1.188-.44 2.155.064 3.171.583m20.128-69.488v-2.083c1.121-.157 2.138.011 3.212.263v2.037c-1.056-.072-2.027-.137-3.212-.217m-38.717 13.061c-.893-2.164-2.71-3.692-3.469-5.985.537-.037 1.003-.069 1.3-.089 1.102 2.111 2.121 4.063 3.17 6.074zm9.514-13.101h-2.924c-.235-.766-.508-1.497.064-2.14.494-.554 1.942-.66 2.557-.172.749.593.37 1.423.303 2.312m48.097.768h-2.917c-.073-.609-.184-1.168-.189-1.727-.003-.25.138-.618.332-.734.614-.364 1.305-.474 1.993-.184.563.238.703.723.694 1.295-.006.403.05.805.087 1.35m-2.518 6.369c.794-.062 1.362-.108 1.929-.151.442-.034.844.224.751.601-.229.929.045 1.978-.638 2.894-.76-.345-1.485-.674-2.248-1.02.076-.853.14-1.573.206-2.324m-56.463 32.948c1.706 1.269 3.412 2.537 5.118 3.805-.821.177-1.555.11-2.27.199-.579.071-1.007-.125-1.274-.541-.674-1.048-1.354-2.103-1.574-3.463m1.42-33.449c.95 2.126 1.851 4.143 2.754 6.163-.589.326-.989.197-1.304-.395-.694-1.302-1.466-2.564-2.122-3.885-.236-.476-.229-1.073-.347-1.686.328-.064.644-.125 1.019-.197m49.52.3c-1.294 4.635-3.264 9.025-4.853 13.55-.008.025-.067.043-.103.046-.035.003-.071-.018-.2-.053.081-.297.14-.612.252-.908.419-1.113.884-2.209 1.278-3.331.744-2.129 1.512-4.248 1.852-6.501.132-.875.56-1.706.861-2.555.171-.483.502-.46.913-.248m-85.523 10.013c.651-2.447 3.788-3.74 7.418-3.336-2.546 1.145-4.892 2.2-7.418 3.336m99.491-18.314c.542 0 1.073-.008 1.603.002.57.01.913.282.985.873.083.67.185 1.337.298 2.153-1.078-.192-2.072.037-2.941-.452-.349-.843-.476-1.629.055-2.576m-17.175 1.633c.056-.698.087-1.295.158-1.888.059-.489.442-.761.859-.7.754.11 1.576.211 2.207.588.627.374.275 1.201.3 1.835.005.108-.08.22-.159.417-1.041-.078-2.09-.156-3.365-.252m-26.101 10.967c1.098.82 1.086.816.729 1.898-.359 1.089-.674 2.192-1.038 3.279-.416 1.244-.866 2.476-1.335 3.81-.281-1.583-.475-3.035.348-4.398.058-.096.022-.245.056-.362.398-1.37.802-2.739 1.24-4.227m9.237-11.323c-.088-1.007-.145-1.883.571-2.348.84-.546 1.933-.441 2.737 0 .869.477.486 1.512.519 2.348zm26.155 68.925c0-.623.036-.948-.007-1.261-.099-.715.193-1.073.846-1.415 2.117-1.107 4.012-.141 5.967.405-1.597.272-3.151.502-4.521 1.491-.56.404-1.357.478-2.285.78m-19.73-43.36c.173-.665.357-1.213.455-1.776.306-1.74.596-3.482.863-5.228.378-2.481.718-4.967 1.097-7.448.225-1.462.49-2.917.75-4.372.078-.431.329-.399.621-.173-1.045 6.403-2.089 12.799-3.143 19.252-.292-.115-.441-.175-.643-.255m-48.314-12.168c-.978-.157-4.85-2.173-5.912-3.104.62-.229 1.182-.472 1.767-.636.251-.07.59-.056.816.061 1.304.674 2.586 1.39 3.747 2.022-.17.674-.294 1.167-.418 1.657m29.052 14.202c-.053-.081-.105-.162-.157-.242.408-.546.816-1.091 1.16-1.55 1.344-.121 2.568-.254 3.796-.322.299-.017.657.117.906.296.769.553 1.5 1.161 2.447 1.907h-4.446c-.173-.391-.027-1.064-.783-1.216-.764.894-1.831 1.047-2.923 1.127m21.432 47.618c-.118-.999-.196-1.659-.259-2.197 2.708-1.95 4.801-.371 6.965.865-2.246-.158-4.406.118-6.706 1.332m-9.095-15.454c2.239.972 4.424 1.854 6.381 3.657h-5.111c-.422-1.214-.847-2.436-1.27-3.657m-57.081-46.243c.154-.327.191-.444.259-.541.116-.169.236-.34.382-.483 1.912-1.872 4.218-2.954 6.845-3.359.521-.08 1.053-.015 1.466.533-1.878.842-3.702 1.676-5.541 2.476-1.048.456-2.121.857-3.411 1.374m69.391 11.947c1.172-1.108 2.412-1.444 3.764-1.068 1.236.345 2.489.737 3.375 2.071-2.562.312-4.973.313-7.481.425.826-1.137 2.196-.928 3.312-1.561-1.116-.432-1.977-.005-2.97.133m4.242-4.791c.284-.873.492-1.583.744-2.278 1.236-3.401 2.489-6.795 3.721-10.196.214-.592.723-.871 1.261-1.546-.026.497.004.695-.053.865-.312.936-.632 1.871-.975 2.796-1.272 3.425-2.797 6.758-3.719 10.359zm9.449-9.719c.087-.045.175-.09.263-.136.47.316.98.59 1.396.967.208.188.359.569.342.852-.055.858-.21 1.71-.316 2.565-.206 1.671-.403 3.342-.606 5.013-.027.222-.065.442-.129.879-.21-.314-.356-.432-.364-.558-.204-3.193-.394-6.388-.586-9.582m-18.16 41.621c-.31-1.081-.343-2.03-.116-3.051 1.924.075 3.788.148 5.712.222.079.539.149 1.002.219 1.477-1.967.579-3.779 1.181-5.815 1.352m.021-25.715c-.019.063-.036.126-.055.189-2.829.059-5.659.118-8.744.182.936-.501 1.694-.907 2.713-1.453-.534-.057-.784-.159-.978-.092-.81.281-1.656.498-2.26 1.196-.304.351-.667.696-1.276.391.44-.34.884-.588 1.202-.947 1.466-1.655 3.302-1.931 5.262-1.285 1.424.47 2.761 1.203 4.136 1.819m-59.62-14.631c1.002-.423 1.77-.697 2.488-1.067.521-.268.981-.302 1.496-.043 1.988.998 3.98 1.986 6.246 3.115-.815.444-1.369.746-1.83.997-1.451-.605-2.752-1.209-4.098-1.691-1.329-.476-2.703-.83-4.302-1.311m63.521 7.951c-1-.462-.998-.462-.836-1.262.31-1.528.603-3.059.928-4.584.546-2.558 1.11-5.111 1.677-7.71.338 0 .538-.016.734.005.154.017.305.08.582.157-1.032 4.483-2.055 8.925-3.085 13.394m-35.775 6.262c.554.882 1.068 1.702 1.653 2.634-2.91.208-5.597-.263-8.297-.804-.124-.223-.262-.428-.358-.652-.108-.251-.178-.517-.281-.827 2.491-.12 4.895-.236 7.283-.351m36.467-19.775c.091 1.202-2.665 15.02-3.853 19.409-.486-.219-.519-.243-.458-.482.144-.555.345-1.098.442-1.66.322-1.859.591-3.728.912-5.587.551-3.196 1.123-6.39 1.695-9.582.122-.684.28-1.361.432-2.04.013-.064.096-.113.169-.194.216.045.448.092.661.136m12.442 35.195c.342 1.166.304 1.62-.259 2.909-2.154-.109-4.341-.219-6.594-.334v-2.206c2.303-.447 4.585-.342 6.853-.369m-62.003-27.664c3.967 2.892 7.675 5.596 11.383 8.299-.212.123-.336.114-.432.058-2.711-1.58-5.554-2.839-8.627-3.534-.867-.196-1.543-.518-1.463-1.612.025-.343-.209-.702-.305-1.058-.169-.62-.323-1.244-.556-2.153m33.37 34.541c-1.086-2.085-2.242-3.951-2.876-6.179 3.304 1.311 5.865 3.422 8.373 5.885-1.911.102-3.666.196-5.497.294m10.264-23.423c-.128-.012-.257-.023-.385-.035.225-3.122.229-6.258.609-9.369.386-3.162.17-6.387.916-9.51h1.681c-.949 6.363-1.886 12.638-2.821 18.914m-23.307-13.954c-1.151.466-2.323.687-3.67.625v-6.083h4.347c-.06 1.814-.28 3.619-.677 5.458m41.784 52.227c-2.394-2.048-4.7-4.014-6.995-5.992-.139-.121-.196-.336-.37-.649 2.47-.31 4.799-.637 7.257-.308-.03.535-.055.969-.084 1.493-.604 0-1.132-.008-1.658.003-.434.008-1.035-.124-1.005.557.028.625.515.566 1.019.492.559-.081 1.139-.018 1.836-.018zm10.582-55.72c.126-.029.251-.059.377-.089 1.301 1.178 2.032 2.828 3.204 4.121 1.178 1.301 2.354 2.641 3.215 4.322-2.758-1.08-5.38-2.106-8.074-3.161.438-1.777.858-3.485 1.278-5.193m-58.667-1.785c.572 2.111.708 4.202.666 6.431-.649.097-1.249.167-1.84.28-.829.158-1.301-.197-1.625-.946-.487-1.126-1.066-2.212-1.562-3.335-.258-.586-.421-1.213-.679-1.975 1.773-.16 3.381-.305 5.04-.455m28.684 17-.193.009c-.114-1.375-.175-2.757-.35-4.124-.5-3.908-1.054-7.808-1.562-11.715-.045-.341.081-.703.132-1.1 1.083.024 2.101-.186 3.126.292-.196 2.802-.392 5.564-.584 8.326-.192 2.771-.379 5.542-.569 8.312m28.661-33.388c.386-.405.663-.65.884-.938.447-.584.946-1.149 1.275-1.798.525-1.031.705-1.133 1.869-1.023 2.152.204 4.015 1.087 5.796 2.243 1.339.869 2.479 1.895 3.099 3.402.098.239.124.507.256 1.075-1.626-1.457-3.28-2.272-4.98-2.994-.595-.253-1.25-.578-1.86-.546-2.04.106-4.072.359-6.339.579m-29.75 40.708c-2.387.666-10.711 1.158-12.959.772v-2.027c2.138-.427 4.282-.134 6.401-.27 2.109-.136 4.217-.281 6.364-.424.077.771.137 1.369.194 1.949m-45.768-40.148c.354-.072.711-.217 1.061-.201 1.126.047 2.054-.365 2.964-.998 3.635-2.527 7.465-2.458 11.404-.732-1.723.188-3.357.704-4.876 1.478-1.402.714-2.799 1.338-4.37 1.584-2.182.34-4.25.11-6.183-1.131m59.824 57.772c-.091-.359-.181-.634-.227-.915s-.048-.57-.087-1.093c2.293 3.239 5.25 5.668 6.616 9.301-2.571.557-5.076.375-7.761.015.566-1.947 1.088-3.739 1.622-5.574.176-.03.45-.077.708-.121.121-1.152.121-1.152-.871-1.613m-54.644-28.338c3.841.306 10.672 3.246 12.321 5.281-.17.053-.318.134-.469.142-2.467.131-4.934.251-7.401.377-.495.025-.839-.15-1.119-.592-.593-.936-1.265-1.821-1.867-2.752-.503-.777-.951-1.59-1.465-2.456m54.723-12.889c-.869 4.861-2.305 9.369-4.081 13.877-.672-.083-1.334-.165-2.026-.25 1.04-4.705 1.793-9.315 3.431-13.627zm-78.296 8.913c.392-.22.628-.38.884-.493 1.35-.595 2.76-1.079 4.042-1.792 1.337-.745 2.535-.688 3.937-.17 1.911.707 3.903 1.195 5.755 2.075.241.115.464.27.961.563-1.248.329-2.215.623-3.199.832-.799.17-1.653.135-2.426.374-2.048.633-4.078.216-6.091-.051-1.273-.169-2.562-.495-3.863-1.338m26.194-8.452c1.248 2.029 2.405 3.91 3.7 6.017-2.963-.229-5.73.023-8.296-1.237-.173.148-.342.291-.51.434-1.858-1.107-3.66-2.181-5.518-3.289.242-.154.43-.365.645-.4 3.281-.515 6.565-1.008 9.979-1.525m58.315 13.873c-2.14-.08-4.1-.155-6.017-.227-.556-1.04-.106-1.955.213-2.8 1.165-3.076 2.421-6.117 3.646-9.17.232-.579.479-1.152.719-1.729 1.001 4.599.93 9.215 1.439 13.926m-60.159-28.835c-.064.29-.079.411-.117.526-.441 1.335-.442 1.335-1.91 1.277-.367-.014-.735-.032-1.101-.063-2.265-.193-4.275-1.112-6.247-2.162-.646-.344-1.337-.666-2.046-.808-.575-.116-1.215.01-1.814.108-.39.063-.711.339-.497.791.177.378.514.335.841.136.174-.106.355-.224.549-.274.719-.183 1.526.293 1.614.932.116.844-.418 1.71-1.274 1.854-1.223.206-2.45.252-3.617-.357-1.103-.576-1.703-1.546-1.621-2.672.088-1.211 1.022-2.536 2.174-2.687 1.538-.201 3.101-.252 4.554.375 1.695.731 3.355 1.551 4.996 2.399 1.106.571 2.248.716 3.461.632.649-.044 1.305-.007 2.055-.007m42.848 74.775c.347 1.191.261 2.274.196 3.482-.467-.114-.802-.139-1.083-.275-2.22-1.07-4.448-2.128-6.639-3.255-2.963-1.524-5.91-3.069-9.015-4.298-1.397-.553-2.733-1.259-4.096-1.896.025-.099.05-.197.076-.295 1.874.108 3.748.215 5.622.329.242.014.536.162.709.069.257-.138.496-.409.603-.678.054-.136-.178-.549-.321-.571-1.049-.159-1.081-.997-1.226-1.75-.174-.902-.364-1.81-.174-2.854.425.214.757.358 1.068.54.916.539 1.814 1.11 2.738 1.636.784.447 1.616.814 2.382 1.285.362.223.76.557.907.932.509 1.294.914 2.628 1.376 3.997-.157.03-.35.012-.459.099-.196.159-.342.38-.509.575.221.147.426.347.67.424.224.07.491.003.738.003 1.964-.001 3.928-.001 5.994-.001.088.375.195.833.328 1.398-1.271.229-2.392.406-3.533.143-.523-.121-.868-.008-1.046.673 1.512.622 3.06.292 4.694.288m-14.591-54.209c2.406 1.386 8.743 8.462 9.972 11.103-2.034-.181-3.788.381-5.24 1.868-1.002 1.027-1.837 1.027-2.891.088-1.229-1.095-2.595-1.854-4.31-1.796-.514-1.077-.603-2.115-.22-3.24.7-2.058 1.313-4.145 1.983-6.212.198-.613.466-1.203.706-1.811m10.738 10.513c-1.642-1.958-3.248-3.995-4.987-5.913-1.733-1.913-3.599-3.706-5.471-5.617.53-2.05 1.072-4.19 2.119-6.176 1.867-.234 3.66.126 5.458.27.264.021.66.426.712.705.208 1.125.315 2.269.44 3.409.106.971.149 1.951.283 2.918.254 1.831.574 3.652.831 5.483.233 1.664.419 3.335.615 4.921m17.008-32.822c-.022.058-.042.117-.063.175-.58-.183-1.159-.371-1.742-.547-.509-.153-1.019-.304-1.534-.434-1.43-.359-2.866-.69-4.292-1.063-2.086-.545-4.184-.789-6.341-.512-2.386.307-4.645 1.026-6.864 1.913-1.884.753-3.854 1.276-5.865 1.343-2.288.078-4.585-.118-6.809-.809-1.883-.585-3.76-1.238-5.687-1.621-2.368-.471-4.806-.597-7.066-1.566-.187-.08-.394-.114-.593-.169-1.299-.358-2.599-.716-4.035-1.112 1.019-.122 1.873-.256 2.733-.322 3.79-.288 7.316.89 10.811 2.091 2.807.965 5.609 1.903 8.614 1.583 1.865-.199 3.692-.638 5.424-1.476 1.616-.782 3.146-1.726 4.948-2.169 2.073-.51 4.133-.708 6.228-.501 1.602.159 3.128.594 4.5 1.544 1.759 1.218 3.631 2.247 5.686 2.908.66.213 1.298.494 1.947.744m-14.519 62.183c-3.599.743-6.813.255-9.569-2.129-.554.56-.206 1.008-.044 1.439.62 1.652 1.263 3.295 1.882 4.948.085.229.079.494.134.882-.526-.268-.903-.43-1.25-.641-1.476-.895-2.962-1.779-4.404-2.728-.388-.255-.809-.684-.913-1.107-.438-1.787-.325-3.597.235-5.34.198-.614-.035-.803-.485-1.087-.647.847-1.482 1.357-2.463 1.595-1.967.478-3.977.514-5.921.622-.909-1.302-.228-2.642-.514-3.914.297-.066.496-.145.696-.147 1.97-.02 3.94-.031 5.91-.035.939-.001 1.878.038 2.816.015.212-.006.47-.152.608-.316.074-.088-.01-.395-.116-.531-.629-.805-.654-.872-.424-2.004 1.005 2.099 2.004 4.187 3.045 6.364-.453-.046-.824-.153-1.165-.095-.231.039-.422.31-.631.477.163.199.296.444.5.581.151.102.396.082.599.083 2.101.008 4.22.186 6.295-.041 1.751-.192 2.901.448 3.92 1.689.387.47.808.912 1.259 1.42m28.984-7.363c-.039.245-.065.483-.117.715-.556 2.528-1.224 5.038-1.01 7.673.035.426-.132.868-.211 1.337-.49.087-.888.211-1.289.218-1.977.035-3.956.002-5.931.071-.799.028-1.152-.315-1.486-.982-.572-1.136-1.183-2.271-1.934-3.29-1.121-1.521-2.388-2.932-3.57-4.407-.323-.403-.567-.867-.868-1.335zm-76.561-39.46c2.505-.119 4.882-.23 7.258-.346.369-.018.737-.056 1.105-.094 2.574-.262 5.142-.623 7.723-.767 4.437-.249 8.88-.465 13.323-.507 5.104-.048 10.209.092 15.314.179 3.832.065 7.663.23 11.494.253 5.483.032 10.967-.072 16.451-.025 2.879.024 5.761.179 8.632.4 2.092.161 4.166.5 6.279.342.763-.056 1.537.055 2.292.088.321 1.07.678 2.013.528 3.145-1.795-.253-3.497-.498-5.2-.73-.854-.116-1.71-.227-2.568-.309-1.927-.184-3.856-.346-5.782-.522-2.376-.217-4.749-.513-7.128-.64-4.114-.22-8.233-.326-12.348-.496-3.579-.148-7.158-.295-10.735-.489-2.508-.135-5.01-.444-7.518-.502-3.129-.073-6.261.035-9.391.056-1.317.008-2.637-.067-3.951-.002-3.611.181-7.219.446-10.83.614-1.32.062-2.609.24-3.906.471-1.859.332-3.735.57-5.609.816-1.181.154-2.368.259-3.554.367-.601.054-1.206.066-1.879.101zm71.718-15.101c-.72 0-1.417-.089-2.083.017-1.743.278-3.507.157-5.138-.297-2.843-.789-5.604-1.877-8.173-3.39-1.13-.665-2.265-1.381-3.488-1.813-2.523-.89-5.142-1.091-7.78-.51-1.638.361-3.284.649-4.781 1.526-1.126.659-2.354 1.179-3.589 1.611-2.532.885-5.133 1.064-8.012.36.565-.097.906-.203 1.248-.206 2.341-.021 4.544-.566 6.623-1.645 1.347-.699 2.666-1.498 4.085-2.004 2.317-.825 4.702-1.465 7.068-2.15 1.822-.528 3.652-.238 5.504-.08 1.926.164 3.624.776 5.089 1.954 1.204.97 2.567 1.503 4.031 1.73 2.232.345 4.419.229 6.355-1.194.691-.508 1.427-.981 2.2-1.351 1.656-.793 3.378-.89 5.125-.266.793.283 1.25.901 1.247 1.673-.003.74-.137 1.551-.466 2.204-.667 1.322-1.797 2.235-3.172 2.795-1.152.469-2.335.121-2.806-.81-.467-.921-.071-1.779.763-2.647.403-.418 1.056-.446 1.594-.147.338.187.627.427.542.873-.093.484-.507.293-.798.366-.062.016-.104.113-.223.251.109.155.196.411.368.5.463.241.881.021 1.244-.274.382-.309.548-.716.421-1.209-.257-.994-2.262-1.919-3.205-1.481-1.07.496-1.904 2.422-1.628 3.58.248 1.041 1.065 1.513 1.835 2.034m-32.766 61.652c.876.335 1.508.652 2.177.814 1.031.248 2.089.542 3.134.539 1.551-.004 3.112-.186 4.652-.407 2.727-.391 5.415-.935 7.919-2.18.659-.328 1.355-.719 2.258-.715-.508 2.099-1.122 4.062-1.43 6.071-.314 2.058-.564 4.158-.036 6.389-.481.028-.876.073-1.271.071-1.809-.006-3.62-.047-5.429-.029-.734.008-1.533.348-2.183.149-.701-.213-1.263-.882-1.889-1.348-.097-.073-.212-.125-.32-.185-1.507-.85-2.995-1.733-4.527-2.532-.675-.352-1.079-.818-1.316-1.528-.403-1.208-.878-2.393-1.305-3.594-.149-.417-.246-.853-.434-1.515m-5.731 6.827c-.177.084-.319.205-.468.216-1.472.098-2.958.339-4.416.23-2.969-.223-5.922-.097-8.883.031-1.696.074-1.881.072-2.434-1.581-.874-2.612-1.76-5.219-2.631-7.832-.11-.329-.158-.678-.256-1.11.978 0 1.838-.056 2.688.012 1.554.125 3.105.306 4.653.494 2.589.315 5.169.275 7.739-.173 1.103-.191 2.202-.401 3.277-.597.021 3.428-.041 6.838.731 10.31m44.225-38.488c-.511-.875-.789-1.662-1.319-2.198-1.411-1.428-1.346-2.945-.541-4.589.016-.034.055-.058.073-.078.091 0 .176-.018.249.003 2.704.753 5.233 1.911 7.714 3.21 1.395.731 2.5 1.683 3.311 3.03 1.175 1.953 1.978 4.056 2.739 6.193 1.043 2.933.64 5.748-.489 8.528-.725 1.787-2.337 2.839-3.594 4.184-.272.291-.592.222-.892.001-1.393-1.026-2.806-2.027-4.166-3.095-.283-.223-.49-.682-.523-1.05-.055-.603.077-1.222.105-1.834.073-1.597.326-3.19-.27-4.77-.206-.545-.243-1.255-.088-1.816.411-1.503.925-2.983 1.48-4.441.441-1.155.324-1.458-.893-1.591-.323-.036-.658.006-.983.045-.639.078-1.277.178-1.913.268m-47.185-9.346c-.729 4.369-.475 8.688.875 12.974-.254.053-.408.107-.563.113-3.17.114-6.339.227-9.508.325-.235.008-.506-.042-.703-.16-1.445-.867-2.927-1.685-4.299-2.658-3.052-2.164-6.049-4.408-9.066-6.622-.757-.555-1.505-1.122-2.387-1.779 1.487.07 2.795.029 4.07.215 2.558.375 5.09.083 7.627-.136 1.059-.091 2.108-.304 3.159-.479 1.823-.303 3.643-.626 5.466-.929 1.729-.288 3.459-.561 5.329-.864m55.885-6.922c-.765 0-1.34.034-1.91-.005-2.916-.2-5.827-.511-8.746-.604-3.166-.102-6.339-.018-9.508.011-1.316.012-2.632.147-3.947.128-2.755-.038-5.508-.156-8.263-.214-2.172-.046-4.345-.031-6.517-.08-3.164-.071-6.326-.195-9.49-.258-2.589-.051-5.181-.107-7.769-.051-3.577.076-7.153.237-10.728.4-1.93.087-3.857.256-5.786.389-2.87.198-5.74.396-8.611.596-.451.032-.9.09-1.352.114-1.141.059-2.283.106-3.534.163.029-.485.049-.822.066-1.108 2.704-.151 5.301-.296 7.899-.44.002-.086.004-.171.006-.257-2.636-.101-5.272-.203-7.977-.307.024-.418.041-.72.058-1.011.786-.101 1.475-.233 2.169-.272 4.556-.259 9.111-.562 13.67-.725 4.027-.144 8.059-.127 12.089-.177 1.935-.024 3.87-.055 5.805-.056 2.424 0 4.849.027 7.274.044 3.036.021 6.072.014 9.106.077 3.211.066 6.421.202 9.631.306.247.008.498-.02.741.013 3.37.461 6.783.329 10.16.718 1.177.137 2.373.101 3.558.177 2.712.176 5.424.344 8.131.578 1.136.098 2.258.355 3.382.539.134.445.237.79.393 1.312m-63.561 44.551c-.173.021-.368.083-.554.064-1.719-.184-3.436-.383-5.154-.575-.284-.031-.572-.082-.855-.066-.874.048-1.717.03-2.459-.55-.166-.13-.503-.229-.661-.148-.589.304-.941-.085-1.309-.38-.577-.462-1.078-1.028-1.683-1.445-5.005-3.445-9.444-7.58-14.074-11.482-2.458-2.071-4.821-4.254-7.287-6.315-2.338-1.953-4.754-3.812-7.136-5.712-1.704-1.36-3.409-2.719-5.206-4.152 1.185-.608 2.3-1.14 3.373-1.743.839-.472 1.554-.378 2.238.258.151.141.313.268.472.4 3.829 3.181 7.612 6.419 11.498 9.529 5.179 4.142 10.438 8.183 15.656 12.276.207.162.392.394.499.633.436.972.843 1.958 1.248 2.944.193.47.357.951.547 1.459-.279.081-.394.113-.509.147-.323.098-.706.214-.621.627.096.471.51.44.901.387.445-.06.894-.126 1.341-.12 1.356.018 2.713.059 4.068.118.407.018.903-.004 1.2.211 1.526 1.109 3.002 2.288 4.492 3.447.016.012-.009.078-.025.188m43.48-48.295c-.348.033-.627.085-.905.081-1.769-.028-1.965-.191-2.036-1.931-.029-.698-.257-1.279-.909-1.458-.945-.259-1.927-.434-2.904-.504-.783-.056-1.18.414-1.245 1.203-.055.689-.093 1.38-.147 2.186-.64 0-1.249.019-1.858-.006-.531-.021-.829-.331-.858-.864-.024-.453.043-.922-.054-1.355-.059-.268-.327-.666-.541-.694-1.14-.146-2.293-.256-3.441-.252-.774.002-.981.328-.991 1.117-.007.563-.001 1.126-.001 1.735h-3.352c-.127-.734-.248-1.408-.359-2.083-.15-.914-.416-1.15-1.361-1.256-.488-.054-.97-.163-1.457-.241-1.402-.223-2.52.658-2.605 2.071-.028.478-.004.96-.004 1.458h-2.757c-.033-.634-.101-1.19-.08-1.743.021-.505-.191-.76-.654-.867-1.224-.281-2.444-.23-3.675-.013-.56.099-.781.376-.772.913.009.564.002 1.128.002 1.758h-3.349c-.122-.546-.296-1.048-.337-1.56-.141-1.79-.563-2.129-2.347-1.783-.202.04-.4.101-.597.16-.968.291-1.243.676-1.232 1.706.005.473.001.946.001 1.468-.449.024-.774.061-1.098.054-.321-.007-.641-.059-1.076-.102-.073-.624-.182-1.223-.202-1.826-.016-.496-.107-.976-.604-1.096-.87-.21-1.811-.537-2.644-.387-1.402.255-1.889.773-1.66 2.2.057.358.056.724.091 1.204-.999.062-1.913.119-2.878.179-.045-.455-.084-.776-.107-1.099-.084-1.167-.724-1.754-1.906-1.716-.285.009-.572.056-.852.113-1.391.283-1.558.498-1.601 1.871-.012.382-.111.761-.162 1.092-3.481.161-6.805.315-10.246.474 1.184-1.069 2.265-2.069 3.381-3.029.193-.167.531-.233.801-.231 1.81.017 3.578-.152 5.378-.477 2.817-.509 5.7-.694 8.562-.906 2.744-.204 5.5-.233 8.247-.405 2.215-.139 4.42-.42 6.635-.559 1.803-.113 3.613-.136 5.421-.153 3.832-.035 7.665-.072 11.497-.045 2.263.016 4.525.202 6.79.227 4.616.051 9.234-.005 13.849.081 2.342.043 4.678.305 7.018.454 1.76.113 3.521.202 5.305.304.884 1.95 1.686 3.855 2.101 5.954-1.617-.128-3.167-.251-4.716-.373-.082-.007-.193.027-.242-.014-.23-.195-.558-.373-.639-.625-.187-.58-.276-1.197-.359-1.805-.134-.991-.207-1.146-1.13-1.327-.641-.126-1.306-.183-1.96-.182-1.084.003-1.469.384-1.518 1.499-.028.634.057 1.273.098 2.042-1.37-.151-2.658-.294-4.042-.447 0-.564.005-1.011-.001-1.457-.018-1.225-.43-1.85-1.63-2.135-.611-.144-1.308-.14-1.923-.005-1.08.237-1.239.513-1.246 1.65-.005.565.057 1.131.093 1.757m-54.687 28.431c.265-.021.392-.061.506-.036 2.463.54 4.962.679 7.474.717 1.653.025 3.284-.005 4.863-.6.529-.199 1.107-.289 1.67-.381 1.939-.317 3.883-.614 5.945-.937.076.591.179 1.19.221 1.794.039.57-.008 1.147.021 1.719.08 1.645.208 3.287.265 4.933.087 2.492-.053 5 .764 7.601-.649 0-1.174.012-1.698-.001-3.696-.095-7.391-.234-11.087-.265-1.051-.009-1.634-.374-2.101-1.294-2.235-4.399-4.523-8.771-6.843-13.25m5.116 29.137c-.077.044-.154.087-.231.131-15.484-12.256-30.584-24.978-45.877-37.721 1.817-.742 3.516-1.435 5.277-2.154 1.66 1.303 3.313 2.594 4.958 3.896 2.55 2.019 5.129 4.001 7.628 6.081 2.277 1.894 4.451 3.912 6.692 5.85 1.681 1.453 3.382 2.887 5.102 4.295 4.107 3.361 8.228 6.706 12.351 10.048.615.498 1.13 1.006 1.395 1.811.857 2.603 1.797 5.178 2.705 7.763m-.372-63.936-.027-.307c-3.171.264-6.342.528-9.579.798.076-.519.134-.911.194-1.322 3.605-.49 7.21-.427 10.75-.974-.006-.094-.012-.189-.018-.283-3.477.148-6.953.297-10.43.445-.033-.076-.066-.152-.099-.228.238-.175.454-.448.716-.504.682-.146 1.381-.245 2.077-.279 3.456-.172 6.912-.315 10.367-.474.167-.008.33-.077.495-.118-3.171-.674-6.358.058-9.548-.36.479-.334.978-.589 1.497-.789 1.678-.643 3.416-.803 5.209-.773 3.032.05 5.974.489 8.822 1.552.765.286 1.55.558 2.349.705 1.532.283 3.077.518 4.625.689 2.5.277 4.925-.211 7.253-1.053 2.13-.77 4.248-1.556 6.473-2.002 1.329-.266 2.67-.348 4.029-.201 2.63.283 5.132 1.139 7.703 1.685 2 .426 3.883 1.262 5.962 1.48 3.422.359 6.701-.207 9.969-1.067.911-.239 1.814-.517 2.73-.733.733-.173 1.396.018 1.882.615.753.924 1.531 1.834 2.196 2.819.315.468.886.858.852 1.553-1.922-.065-3.767-.109-5.611-.194-2.508-.115-5.014-.322-7.523-.38-2.926-.067-5.857.021-8.785-.023-3.459-.052-6.917-.256-10.375-.248-6.183.016-12.368.109-18.55.24-1.763.037-3.517.361-5.281.47-2.22.138-4.447.156-6.667.29-1.808.109-3.613.289-5.414.481-1.999.213-4 .433-5.988.732-1.131.17-2.243.368-3.453.173.369-.783.863-1.252 1.686-1.33 1.8-.172 3.601-.343 5.398-.546 1.374-.155 2.743-.358 4.114-.539m-15.297 19.238c3.341 5.307 6.706 10.336 9.739 15.559 3.023 5.206 5.713 10.604 8.674 16.151-12.505-8.638-24.002-18.148-35.482-27.731.1-.046.137-.08.174-.078.122.007.245.017.365.042 2.548.522 5.077.815 7.693.288 2.135-.43 4.264-.713 6.236-1.778 1.047-.566 1.966-1.148 2.601-2.453m58.642 26.905c-.038-.406-.083-.607-.072-.805.179-2.914.211-5.845 1.036-8.683.229-.792.012-1.056-.806-1.05-.122.001-.244.042-.367.046-1.548.062-3.096.12-4.736.183-.07-.786-.132-1.491-.207-2.323 2.273.044 4.488-.187 6.693.193.954.164 1.312-.029 1.723-1.096-.337-.201-.721-.364-1.017-.626-.303-.269-.495-.658-.777-.956-1.879-1.991-4.389-2.489-6.87-1.38-.181.081-.363.163-.58.26-.406-.669-.332-1.355-.157-2.041.216-.848.287-.909 1.174-.875 2.545.099 5.09.22 7.635.32 1.147.046 2.295.055 3.444.096.487.017.976.119 1.461.098 1.087-.048 2.17-.186 3.257-.218 2.662-.081 5.325-.126 7.988-.178.709-.014 1.418-.002 2.174-.002-.14.316-.28.53-.33.763-.689 3.125-1.836 6.142-2.127 9.362-.231 2.535-.623 5.057-.29 7.612.034.268.004.544.004.874-.305.023-.544.059-.784.057-1.725-.015-3.453-.095-5.176-.042-3.082.095-6.161.28-9.243.404-.976.04-1.956.007-3.05.007m.076-9.439c-.815 5.704-1.331 11.313-.264 16.961-2.223.114-4.392.273-6.563.324-2.47.057-4.944-.012-7.413.04-.768.016-1.302-.227-1.857-.738-2.483-2.288-5.065-4.444-8.205-5.822-.54-.236-1.111-.564-1.307-1.232-.38-1.298-.82-2.576-.804-3.963.013-1.102-.042-2.207-.138-3.304-.1-1.141-.075-1.249 1.044-1.246 3.939.009 7.855-.24 11.772-.712 2.394-.288 4.832-.248 7.251-.299 2.132-.044 4.266-.009 6.484-.009m-41.802-7.164c.392-.062.632.11.744.482l.608.247c-.031.063-.062.126-.093.189-.164-.155-.327-.309-.491-.464-.246-.162-.492-.324-.738-.487-.182-.101-.364-.202-.546-.303.036-.048.072-.095.107-.142.136.159.272.318.409.478m62.705 17.224c-.095-1.159-.095-1.159-1.849-1.225-.29-1.376-.599-2.76-.192-4.307 1.005.801 1.939 1.568 2.896 2.305.979.755 1.954 1.521 2.98 2.207.988.66 1.658 1.788 2.933 2.151.057-.861.057-.861-1.282-2.219.597-.651 1.132-1.391 1.816-1.947 1.602-1.303 2.257-3.099 2.794-4.974.169-.589.297-1.196.38-1.804.082-.605.19-1.237.103-1.83-.566-3.885-1.94-7.469-4.142-10.728-.115-.17-.217-.36-.366-.495-1.642-1.482-2.747-3.383-4.046-5.133-.564-.759-1.204-1.461-1.797-2.198-.714-.887-1.405-1.789-1.771-2.993 3.141.153 6.147.49 9.109 1.195.394.094.803.129 1.209.171.481.05.972.04 1.447.125.7.125.987-.06.867-.713-.214-1.171-.459-2.338-.734-3.496-.178-.747-.446-.873-1.262-.822-.527.033-1.059.031-1.587.011-.715-.028-1.08-.463-1.297-1.115-.584-1.755-1.207-3.497-1.797-5.25-.22-.655-.371-1.334-.598-1.986-.076-.213-.33-.357-.443-.566-1.035-1.928-2.289-3.698-3.915-5.337 1.899-.473 3.482.021 5.031.82 1.557.805 3.044 1.711 4.471 2.944.219-2.302-.427-4.13-2.138-5.453-1.464-1.133-3.033-2.127-4.814-2.729-.981-.332-1.962-.613-3.016-.567-.364.015-.731-.061-1.05-.092-.092-.122-.165-.179-.185-.251-.518-1.877-1.337-2.587-3.261-2.831-2.085-.264-4.028.093-5.725 1.38-1.778 1.348-3.728 2.052-5.982 1.857-1.164-.1-2.271-.347-3.281-.951-.389-.233-.798-.44-1.158-.711-3.006-2.259-6.501-2.417-10.029-2.249-1.168.055-2.327.484-3.472.807-1.544.434-3.108.835-4.593 1.425-1.637.651-3.224 1.448-4.779 2.278-1.942 1.035-4.043 1.385-6.178 1.571-1.011.089-2.039-.042-3.06-.044-1.812-.004-3.44-.758-5.134-1.237-2.422-.686-4.863-1.229-7.403-1.098-1.233.064-2.475.097-3.693.277-.962.142-1.968.284-2.734 1.02-.109.105-.285.151-.438.196-1.555.456-2.987 1.164-4.295 2.118-.554.404-1.178.498-1.85.576-1.94.228-3.722-.231-5.531-.885-1.135-.41-2.415-.637-3.615-.589-1.51.061-2.838.793-3.694 2.128-.56.875-.415 2.955.261 3.769 1.219 1.471 2.801 2.082 4.702 1.854.204-.025.408-.059.613-.079 1.749-.177 1.931-.336 2.413-2.062.052-.188.183-.354.341-.65 2.523 1.473 5.278 2.017 8.175 2.279-.117.678-.489 1.09-.913 1.467-1.381 1.229-2.745 2.48-4.159 3.67-.678.57-.854 1.152-.71 2.047.206 1.284.165 2.607.233 3.969-1.103.237-2.055.446-3.009.644-.815.17-1.574.438-2.173 1.058-.417.432-.884.605-1.542.549-1.515-.13-2.925.398-4.258 1.053-1.481.728-2.912 1.56-4.087 2.744-.382.384-.805.506-1.315.569-1.22.15-2.435.247-3.628.671-1.269.451-2.239 1.182-3.009 2.241-.291.399-.572.805-.858 1.208-1.021.08-2.039.163-3.058.239-1.892.142-3.267 1.243-4.56 2.481-.445.427-.864.885-1.258 1.359-.237.286-.447.677-.081.974.139.112.507 0 .746-.082.815-.279 1.62-.59 2.407-.881.033.027 46.76 38.41 46.805 38.446-.618.15-.809.562-.743 1.284.637.03 1.281.119 1.913.067.442-.036.789.015 1.131.294 1.945 1.587 3.912 3.147 5.831 4.763.265.224.391.696.443 1.072.209 1.511.358 3.03.542 4.545.039.316.132.625.234 1.088.847-.278 1.697-.386 2.347-.804 1.833-1.18 3.805-1.488 5.913-1.286.121.012.245 0 .367-.01.039-.002.076-.03.228-.095-.196-.216-.331-.5-.541-.575-1.584-.57-3.181-1.104-4.779-1.636-.231-.076-.505-.159-.725-.104-.817.205-1.487-.167-2.248-.433-.077-1.33-.152-2.629-.231-4.003.821-.082 1.588-.216 2.357-.222 1.063-.008 1.063.033 1.358-1.074 2.805 1.167 5.645 2.215 8.331 3.651 3.374 1.804 6.805 3.504 10.234 5.203.612.304.879.681.865 1.328-.018.825-.022 1.65-.028 2.475-.007 1.053.33 1.318 1.36.985.856-.276 1.678-.655 2.533-.935.502-.163 1.034-.271 1.561-.313.656-.051 1.322-.051 1.978.002 1.247.1 2.22-.605 3.328-1.054-1.935-.157-3.468-1.243-5.146-1.962-1.482-.637-2.264-.534-4.473.097-.39-1.53-.474-3.06-.109-4.663 1.213-.236 2.438-.119 3.658-.068.399.017.854.267 1.003-.338.109-.442-.266-.703-1.018-.705-1.072-.003-2.143.019-3.214.023-.161.001-.323-.037-.609-.073-.092-.487-.187-.985-.3-1.582 1.015-.087 1.899-.214 2.785-.229 1.597-.029 3.196.006 4.794.021.799.008 1.447-1.03 1.149-1.849-.555-1.526-.313-3.057-.109-4.818 2.649 2.27 5.124 4.407 7.624 6.514.384.325.541.665.588 1.15.118 1.226.281 2.448.457 3.668.043.301.2.586.359 1.029 1.439-.576 2.802-1.019 4.067-1.656 1.531-.77 3.181-.773 4.798-1.026.467-.073.934-.153 1.701-.279-.424-.284-.564-.439-.731-.479-1.714-.419-3.441-.791-5.148-1.234-1.343-.35-2.601-.239-3.783.529-.345-1.128-.295-4.746.099-6.615.328 0 .687.017 1.044-.005.285-.018.6-.021.839-.149.161-.087.319-.405.279-.572-.038-.162-.334-.367-.517-.367-.52.001-1.041.096-1.679.167v-1.535c1.096-.084 2.186-.217 3.277-.237 1.316-.024 2.636.091 3.952.06.641-.014 1.291-.173 1.907-.366.23-.072.372-.423.737-.873-.837-.093-1.375-.153-1.985-.22-.053-1.981-.26-3.904.354-5.794.151-.467.259-.957.308-1.444.106-1.064.485-1.987 1.254-2.701-.023-.469-.289-.601-.662-.595-.535.009-1.071.021-1.606.039-2.59.09-5.18.182-7.77.272-.088-1.014-.166-1.915-.25-2.877 4.211-.754 8.405-.032 12.589-.745" fill="#231f20" transform="matrix(4.2022116951 0 0 -4.2192117087 397.05003276 201.07472977)"/><path d="m0-17.307c-2.218 0-4.352-.035-6.483.009-2.42.051-4.858.011-7.252.299-3.916.472-7.832.72-11.772.712-1.118-.003-1.144.105-1.044 1.246.096 1.097.152 2.202.138 3.303-.016 1.388.424 2.665.805 3.964.195.668.766.995 1.306 1.232 3.14 1.378 5.722 3.533 8.205 5.822.555.511 1.089.754 1.857.738 2.469-.052 4.943.017 7.413-.04 2.171-.051 4.34-.21 6.563-.325-1.067-5.647-.55-11.256.264-16.96" fill="#e7d8bd" transform="matrix(4.2022116951 0 0 -4.2192117087 429.99172578 125.97050302)"/><path d="m0 19.154c1.095 0 2.074.033 3.05-.006 3.082-.125 6.161-.31 9.243-.405 1.724-.053 3.451.028 5.177.042.239.002.478-.033.783-.056 0-.331.03-.607-.004-.874-.333-2.555.06-5.078.29-7.613.291-3.22 1.439-6.237 2.127-9.362.051-.233.19-.447.33-.763-.756 0-1.465-.012-2.174.002-2.663.053-5.326.098-7.988.178-1.087.033-2.17.17-3.257.218-.484.021-.973-.081-1.461-.098-1.148-.04-2.297-.05-3.444-.096-2.545-.1-5.09-.221-7.635-.319-.887-.035-.958.027-1.174.874-.175.687-.249 1.372.158 2.041.216-.097.398-.179.58-.26 2.48-1.109 4.991-.61 6.87 1.38.281.298.473.687.776.956.296.263.681.425 1.018.626-.411 1.067-.77 1.26-1.724 1.096-2.205-.38-4.42-.148-6.692-.193.074.832.136 1.537.207 2.323 1.639-.063 3.187-.121 4.735-.182.123-.005.245-.046.367-.047.819-.005 1.035.258.806 1.05-.824 2.839-.857 5.77-1.035 8.684-.012.198.033.399.071.804" fill="#e7d8bd" transform="matrix(4.2022116951 0 0 -4.2192117087 429.67089219 239.98309423)"/><path d="m0-31.71c-.635 1.305-1.554 1.887-2.602 2.453-1.971 1.066-4.1 1.348-6.235 1.778-2.616.527-5.145.234-7.693-.288-.12-.025-.243-.035-.366-.042-.036-.002-.073.032-.173.078 11.48 9.584 22.977 19.093 35.482 27.731-2.961-5.546-5.651-10.945-8.674-16.151-3.033-5.223-6.398-10.252-9.739-15.559" fill="#e7d8bd" transform="matrix(4.2022116951 0 0 -4.2192117087 183.24569505 138.89551336)"/><path d="m0 3.014c-1.371.182-2.74.385-4.114.54-1.798.202-3.598.373-5.399.545-.823.078-1.317.547-1.686 1.331 1.211.195 2.323-.004 3.453-.174 1.988-.299 3.989-.518 5.989-.731 1.801-.192 3.606-.373 5.413-.482 2.22-.134 4.448-.152 6.668-.29 1.763-.109 3.518-.432 5.28-.469 6.183-.131 12.367-.225 18.551-.24 3.458-.009 6.916.195 10.375.247 2.928.044 5.858-.044 8.785.023 2.509.058 5.015.265 7.522.381 1.844.085 3.69.129 5.612.194.034-.695-.537-1.086-.853-1.554-.665-.985-1.442-1.895-2.195-2.819-.486-.597-1.15-.788-1.883-.615-.916.217-1.818.494-2.729.734-3.268.859-6.547 1.425-9.969 1.066-2.079-.218-3.962-1.054-5.962-1.479-2.571-.547-5.073-1.402-7.703-1.686-1.36-.147-2.7-.064-4.03.202-2.224.445-4.342 1.231-6.472 2.001-2.328.842-4.753 1.331-7.254 1.054-1.548-.172-3.092-.406-4.624-.689-.8-.148-1.585-.42-2.35-.706-2.847-1.062-5.79-1.501-8.821-1.551-1.793-.03-3.532.129-5.209.772-.52.2-1.019.455-1.498.789 3.19.418 6.378-.313 9.549.36-.165.041-.329.11-.495.118-3.455.16-6.912.303-10.367.474-.696.035-1.396.133-2.077.279-.263.057-.479.33-.716.504.033.076.066.152.099.228 3.476-.148 6.953-.296 10.429-.444.007.094.013.188.019.283-3.54.546-7.145.484-10.751.973-.06.412-.117.803-.193 1.322 3.237-.269 6.407-.533 9.578-.797z" fill="#584c2d" transform="matrix(4.2022116951 0 0 -4.2192117087 247.52907981 366.57486217)"/><path d="m0-13.584c2.32 4.479 4.608 8.851 6.843 13.25.467.919 1.05 1.285 2.101 1.293 3.697.032 7.391.171 11.087.265.524.013 1.049.002 1.698.002-.816-2.601-.677-5.11-.764-7.602-.057-1.645-.185-3.288-.265-4.932-.029-.572.018-1.149-.021-1.72-.042-.603-.145-1.202-.221-1.793-2.062.323-4.005.619-5.945.937-.563.092-1.14.181-1.67.381-1.579.594-3.21.625-4.863.6-2.512-.038-5.011-.177-7.474-.718-.113-.025-.241.016-.506.037" fill="#e7d8bd" transform="matrix(4.2022116951 0 0 -4.2192117087 227.59156386 149.71635535)"/><path d="m0-4.665.079.223c-.365.125-.73.25-1.097.375-.021-.061-.043-.122-.063-.183.36-.139.721-.277 1.081-.415m-9.704 4.434c-.036-.626-.099-1.191-.094-1.756.008-1.138.166-1.413 1.246-1.651.615-.134 1.313-.139 1.924.006 1.199.284 1.611.909 1.63 2.134.006.447.001.894.001 1.457 1.384.153 2.672.296 4.042.448-.041-.769-.126-1.408-.099-2.043.049-1.115.435-1.496 1.519-1.498.653-.001 1.318.055 1.96.181.923.182.996.336 1.13 1.327.083.608.172 1.225.358 1.806.081.252.409.429.64.624.049.042.16.008.242.014 1.549.122 3.099.245 4.716.373-.415-2.099-1.217-4.004-2.102-5.954-1.783-.101-3.545-.191-5.305-.303-2.339-.15-4.675-.411-7.017-.455-4.615-.085-9.233-.03-13.85-.081-2.264-.024-4.526-.21-6.79-.227-3.832-.027-7.665.01-11.497.045-1.807.017-3.617.04-5.421.153-2.214.139-4.42.421-6.634.559-2.747.173-5.503.201-8.248.405-2.862.212-5.744.398-8.562.906-1.8.325-3.567.494-5.377.477-.271-.002-.609.064-.802.231-1.115.96-2.197 1.961-3.381 3.03 3.441-.16 6.766-.313 10.247-.475.051-.331.149-.709.161-1.091.044-1.374.211-1.588 1.601-1.872.28-.057.568-.104.853-.113 1.181-.038 1.822.549 1.906 1.717.023.322.062.643.107 1.098.965-.06 1.878-.117 2.877-.179-.034-.48-.033-.846-.09-1.204-.229-1.426.258-1.944 1.659-2.199.834-.151 1.775.176 2.644.386.497.12.588.601.605 1.097.019.602.129 1.202.202 1.825.435.044.755.095 1.076.102.324.008.649-.029 1.097-.053 0-.523.004-.996-.001-1.469-.01-1.03.264-1.415 1.233-1.706.196-.059.395-.12.596-.159 1.785-.347 2.206-.008 2.348 1.782.041.513.215 1.015.336 1.56h3.35c0-.63.006-1.194-.003-1.757-.008-.537.213-.814.773-.913 1.231-.218 2.451-.269 3.674.013.463.106.675.361.655.866-.022.553.047 1.109.08 1.744h2.757c0-.499-.025-.98.003-1.458.085-1.413 1.204-2.295 2.606-2.071.486.077.969.186 1.457.241.944.105 1.211.341 1.36 1.255.112.676.233 1.349.36 2.083h3.351c0-.609-.006-1.172.001-1.735.011-.789.218-1.115.991-1.117 1.149-.004 2.301.107 3.442.253.214.028.481.425.541.693.097.434.029.902.054 1.355.029.533.327.843.858.864.608.025 1.218.006 1.857.006.054-.805.092-1.496.148-2.185.064-.79.462-1.26 1.245-1.204.977.07 1.959.246 2.903.504.653.18.88.76.909 1.458.072 1.74.267 1.904 2.037 1.931.278.005.556-.048.905-.081" fill="#c15960" transform="matrix(4.2022116951 0 0 -4.2192117087 498.17511366 326.01232972)"/><path d="m0 3.177c-.156-.522-.26-.867-.394-1.312-1.124-.184-2.246-.442-3.381-.54-2.707-.233-5.419-.401-8.131-.577-1.186-.077-2.381-.041-3.559-.177-3.377-.39-6.789-.258-10.159-.718-.243-.033-.494-.006-.741-.014-3.21-.104-6.42-.239-9.631-.306-3.034-.063-6.07-.055-9.107-.077-2.424-.017-4.849-.044-7.273-.043-1.936 0-3.871.031-5.806.056-4.029.05-8.062.033-12.088.177-4.56.163-9.114.466-13.67.724-.694.04-1.383.172-2.169.273-.017.29-.035.593-.058 1.011 2.705.104 5.34.205 7.977.306-.003.086-.005.172-.007.258-2.597.144-5.194.289-7.899.439-.017.286-.037.624-.065 1.108 1.25-.056 2.392-.103 3.534-.163.451-.023.901-.081 1.352-.113 2.87-.201 5.741-.398 8.611-.596 1.929-.133 3.855-.302 5.786-.39 3.575-.163 7.151-.323 10.728-.4 2.588-.055 5.179 0 7.768.052 3.164.063 6.326.187 9.49.258 2.172.049 4.346.034 6.518.079 2.755.059 5.508.176 8.263.215 1.315.018 2.631-.116 3.947-.128 3.169-.029 6.342-.113 9.508-.012 2.919.093 5.83.405 8.746.604.569.039 1.144.006 1.91.006" fill="#bc6d61" transform="matrix(4.2022116951 0 0 -4.2192117087 541.78348188 324.59149525)"/><path d="m0-13.419c-1.87.302-3.6.576-5.329.863-1.822.304-3.642.627-5.465.93-1.052.175-2.101.388-3.16.479-2.537.218-5.068.511-7.627.136-1.275-.186-2.583-.145-4.069-.216.881.658 1.629 1.225 2.386 1.78 3.017 2.214 6.014 4.458 9.067 6.622 1.372.972 2.854 1.791 4.299 2.658.197.118.468.167.702.16 3.17-.098 6.339-.211 9.508-.325.155-.006.309-.061.563-.113-1.35-4.286-1.604-8.605-.875-12.974" fill="#e7d8bd" transform="matrix(4.2022116951 0 0 -4.2192117087 306.93746067 225.36641587)"/><path d="m0-11.693c.636-.09 1.273-.19 1.913-.267.325-.039.66-.081.983-.046 1.217.134 1.333.437.893 1.592-.556 1.457-1.069 2.937-1.48 4.44-.155.562-.119 1.271.087 1.816.597 1.58.344 3.173.271 4.77-.028.613-.16 1.231-.105 1.834.033.369.24.828.523 1.05 1.36 1.068 2.772 2.069 4.166 3.096.3.22.62.29.892-.002 1.256-1.345 2.869-2.397 3.594-4.183 1.129-2.78 1.532-5.595.489-8.528-.761-2.138-1.564-4.241-2.74-6.194-.81-1.346-1.916-2.299-3.31-3.029-2.482-1.3-5.01-2.458-7.714-3.21-.073-.021-.158-.003-.249-.003-.019.019-.057.043-.073.077-.805 1.645-.87 3.162.541 4.589.53.537.808 1.323 1.319 2.198" fill="#e7d8bd" transform="matrix(4.2022116951 0 0 -4.2192117087 505.2251193 193.22055682)"/><path d="m0 9.754c-.772-3.472-.709-6.881-.731-10.31-1.074.196-2.174.406-3.276.598-2.571.447-5.15.487-7.74.172-1.548-.188-3.099-.369-4.653-.494-.85-.068-1.71-.012-2.687-.012.097.432.146.781.255 1.11.871 2.613 1.757 5.221 2.631 7.832.553 1.653.739 1.655 2.434 1.582 2.962-.129 5.914-.254 8.883-.032 1.459.11 2.944-.132 4.416-.23.149-.01.291-.132.468-.216" fill="#e7d8bd" transform="matrix(4.2022116951 0 0 -4.2192117087 319.37913729 121.31633263)"/><path d="m0-8.949c.187.663.285 1.098.434 1.516.427 1.2.902 2.385 1.305 3.594.237.71.641 1.176 1.316 1.527 1.532.799 3.02 1.683 4.527 2.532.107.06.223.112.32.185.626.466 1.188 1.135 1.889 1.349.65.198 1.449-.142 2.183-.149 1.809-.019 3.62.022 5.429.029.395.001.79-.043 1.271-.071-.528-2.231-.278-4.331.036-6.389.308-2.01.922-3.973 1.43-6.071-.903-.004-1.599.386-2.258.714-2.504 1.246-5.193 1.789-7.919 2.18-1.54.221-3.101.403-4.652.407-1.045.003-2.103-.291-3.134-.539-.669-.161-1.301-.479-2.177-.814" fill="#e7d8bd" transform="matrix(4.2022116951 0 0 -4.2192117087 343.46248989 71.21212588)"/><path d="m0 8.735c-.77-.521-1.587-.993-1.835-2.035-.275-1.157.559-3.084 1.628-3.58.943-.437 2.948.488 3.205 1.482.127.493-.039.9-.421 1.209-.363.295-.781.515-1.244.274-.172-.09-.259-.345-.367-.5.118-.138.16-.236.222-.251.291-.074.706.117.798-.366.085-.446-.204-.686-.542-.874-.538-.298-1.191-.27-1.593.148-.834.868-1.231 1.726-.764 2.646.472.932 1.654 1.28 2.807.81 1.375-.56 2.504-1.472 3.171-2.795.33-.652.463-1.463.466-2.203.003-.773-.454-1.39-1.247-1.673-1.747-.624-3.469-.527-5.125.266-.772.369-1.509.842-2.2 1.351-1.936 1.423-4.123 1.539-6.355 1.194-1.463-.227-2.827-.761-4.031-1.73-1.465-1.179-3.163-1.79-5.089-1.955-1.851-.157-3.681-.447-5.504.081-2.366.685-4.751 1.324-7.068 2.149-1.419.506-2.737 1.306-4.085 2.005-2.079 1.079-4.282 1.623-6.622 1.644-.342.003-.684.11-1.249.206 2.879.705 5.481.525 8.013-.359 1.234-.432 2.463-.952 3.589-1.611 1.497-.877 3.142-1.165 4.78-1.526 2.639-.582 5.258-.381 7.78.51 1.224.432 2.359 1.148 3.488 1.813 2.57 1.513 5.331 2.601 8.173 3.39 1.631.453 3.396.574 5.138.297.666-.106 1.363-.017 2.083-.017" fill="#b8e3e8" transform="matrix(4.2022116951 0 0 -4.2192117087 481.15010004 405.945727)"/><path d="m0-.906v1.403c.673-.035 1.278-.047 1.879-.101 1.186-.108 2.373-.213 3.554-.367 1.873-.246 3.75-.484 5.609-.816 1.297-.231 2.585-.409 3.905-.471 3.612-.168 7.22-.433 10.831-.614 1.313-.065 2.634.01 3.951.002 3.13-.021 6.262-.129 9.391-.056 2.507.059 5.009.367 7.517.502 3.577.194 7.156.341 10.736.489 4.115.17 8.234.277 12.347.496 2.38.127 4.752.424 7.128.64 1.927.176 3.856.338 5.782.522.859.082 1.714.193 2.569.309 1.703.232 3.405.478 5.2.73.149-1.132-.207-2.075-.528-3.145-.755-.033-1.53-.144-2.292-.087-2.114.157-4.187-.182-6.28-.343-2.871-.221-5.753-.376-8.632-.4-5.483-.047-10.967.057-16.451.025-3.831-.023-7.662-.188-11.494-.253-5.104-.087-10.21-.227-15.314-.178-4.442.042-8.886.257-13.322.506-2.581.145-5.149.505-7.724.767-.367.038-.736.076-1.105.094-2.376.116-4.753.227-7.257.346" fill="#a27a59" transform="matrix(4.2022116951 0 0 -4.2192117087 179.77902561 301.55397682)"/><path d="m0-10.042h-16.416c.301.468.545.933.867 1.335 1.183 1.475 2.449 2.887 3.57 4.407.751 1.019 1.363 2.154 1.934 3.29.335.667.688 1.01 1.486.982 1.976-.069 3.955-.036 5.932-.071.4-.006.799-.131 1.288-.217.079-.47.246-.912.212-1.338-.215-2.635.453-5.145 1.01-7.673.052-.232.078-.47.117-.715" fill="#e7d8bd" transform="matrix(4.2022116951 0 0 -4.2192117087 501.50428299 96.51631279)"/><path d="m0 4.45c-.648-.25-1.286-.531-1.946-.743-2.056-.661-3.928-1.691-5.687-2.908-1.372-.951-2.897-1.386-4.5-1.544-2.095-.208-4.154-.009-6.227.5-1.803.443-3.332 1.388-4.949 2.17-1.732.838-3.558 1.276-5.424 1.475-3.004.321-5.807-.618-8.614-1.583-3.494-1.201-7.02-2.379-10.811-2.09-.86.065-1.714.2-2.732.321 1.436.396 2.735.754 4.035 1.112.198.055.405.09.593.17 2.259.969 4.697 1.094 7.065 1.565 1.927.384 3.804 1.037 5.688 1.622 2.224.691 4.52.886 6.809.809 2.011-.068 3.98-.59 5.864-1.343 2.22-.888 4.479-1.607 6.864-1.913 2.158-.278 4.255-.033 6.341.512 1.426.372 2.862.703 4.292 1.063.516.129 1.026.281 1.534.433.583.176 1.162.365 1.743.548.02-.059.041-.117.062-.176" fill="#0ec2f3" transform="matrix(4.2022116951 0 0 -4.2192117087 440.71673436 388.96238008)"/><path d="m0 1.081c-.75 0-1.406-.037-2.055.008-1.213.083-2.355-.062-3.461-.633-1.641-.848-3.301-1.668-4.996-2.399-1.453-.626-3.016-.576-4.554-.374-1.152.15-2.086 1.475-2.174 2.686-.082 1.127.517 2.096 1.621 2.672 1.166.609 2.393.563 3.617.357.856-.144 1.39-1.009 1.274-1.854-.088-.638-.895-1.115-1.614-.931-.194.05-.375.167-.549.274-.327.198-.664.241-.841-.137-.214-.452.107-.728.497-.791.599-.097 1.238-.224 1.814-.108.709.142 1.4.464 2.046.808 1.972 1.05 3.982 1.969 6.247 2.162.366.031.733.049 1.101.064 1.467.058 1.468.057 1.91-1.278.037-.114.053-.236.117-.526" fill="#a2def9" transform="matrix(4.2022116951 0 0 -4.2192117087 205.38321276 367.39152949)"/><path d="m0-5.825c.514.866.962 1.679 1.464 2.457.602.93 1.275 1.815 1.868 2.751.28.442.624.617 1.119.592 2.467-.126 4.934-.246 7.401-.377.151-.008.298-.089.469-.142-1.649-2.035-8.48-4.975-12.321-5.281" fill="#e7d8bd" transform="matrix(4.2022116951 0 0 -4.2192117087 202.11654348 222.68724706)"/><path d="m0-5.842c.992.46.992.46.871 1.613-.258.044-.532.091-.708.121-.534 1.834-1.056 3.626-1.622 5.574 2.686.36 5.19.542 7.761-.016-1.365-3.632-4.323-6.061-6.615-9.3.039.523.041.812.086 1.092.046.282.136.557.227.916" fill="#e7d8bd" transform="matrix(4.2022116951 0 0 -4.2192117087 431.74172718 103.04965135)"/><path d="m0 2.256c1.934 1.241 4.001 1.471 6.183 1.13 1.571-.245 2.968-.869 4.37-1.584 1.519-.774 3.153-1.289 4.876-1.478-3.938-1.725-7.768-1.795-11.404.733-.909.633-1.837 1.045-2.963.997-.351-.015-.708.13-1.062.202" fill="#5fc6c7" transform="matrix(4.2022116951 0 0 -4.2192117087 180.3498594 380.97070702)"/><path d="m0 .908c2.267-.219 4.299-.472 6.339-.579.61-.031 1.265.293 1.86.546 1.699.722 3.354 1.537 4.98 2.994-.132-.567-.158-.836-.256-1.075-.62-1.507-1.76-2.533-3.099-3.402-1.781-1.156-3.644-2.038-5.797-2.242-1.163-.111-1.343-.009-1.868 1.023-.329.648-.828 1.214-1.275 1.797-.221.288-.498.533-.884.938" fill="#30a5bf" transform="matrix(4.2022116951 0 0 -4.2192117087 497.69177994 377.64987103)"/><path d="m0 6.178c1.831-.098 3.586-.191 5.497-.293-2.508-2.464-5.069-4.575-8.373-5.885.634 2.228 1.79 4.094 2.876 6.178" fill="#e7d8bd" transform="matrix(4.2022116951 0 0 -4.2192117087 338.00415219 150.77052286)"/><path d="m0-8.423c.233.91.387 1.534.556 2.153.096.357.33.715.305 1.058-.08 1.095.596 1.416 1.463 1.612 3.073.696 5.916 1.954 8.627 3.534.096.057.22.066.432-.057-3.708-2.704-7.416-5.407-11.383-8.3" fill="#e7d8bd" transform="matrix(4.2022116951 0 0 -4.2192117087 197.77487334 234.89975683)"/><path d="m0 1.747c-1.375-.616-2.712-1.35-4.136-1.819-1.96-.646-3.796-.37-5.261 1.284-.319.36-.763.608-1.203.948.609.305.972-.04 1.276-.391.604-.698 1.45-.916 2.261-1.196.193-.067.443.034.977.092-1.018.545-1.777.952-2.713 1.453 3.085-.064 5.915-.123 8.744-.182.019-.063.036-.126.055-.189" fill="#e7d8bd" transform="matrix(4.2022116951 0 0 -4.2192117087 386.74169118 224.38308175)"/><path d="m0 .016c.993-.138 1.854-.565 2.97-.133-1.116.633-2.487.424-3.312 1.561 2.508-.112 4.919-.113 7.481-.426-.886-1.333-2.139-1.726-3.375-2.07-1.352-.376-2.592-.04-3.764 1.068" fill="#e7d8bd" transform="matrix(4.2022116951 0 0 -4.2192117087 405.4333728 222.97058062)"/><path d="m0 4.463c1.291-.517 2.363-.917 3.412-1.374 1.838-.8 3.663-1.634 5.541-2.476-.413-.548-.946-.613-1.466-.533-2.628.405-4.933 1.487-6.845 3.359-.146.143-.266.315-.383.483-.067.097-.105.214-.259.541" fill="#e7d8bd" transform="matrix(4.2022116951 0 0 -4.2192117087 113.83313952 292.14146929)"/><path d="m0-3.657c.424 1.221.849 2.442 1.271 3.657h5.111c-1.957-1.803-4.143-2.685-6.382-3.657" fill="#e7d8bd" transform="matrix(4.2022116951 0 0 -4.2192117087 353.69999808 62.77045246)"/><path d="m0 4.146c2.3-1.214 4.46-1.49 6.706-1.332-2.164-1.236-4.257-2.814-6.966-.864.064.537.142 1.197.26 2.196" fill="#f15847" transform="matrix(4.2022116951 0 0 -4.2192117087 391.92502866 30.49125997)"/><path d="m0 2.041c1.092-.08 2.159-.233 2.923-1.126.756.152.61.825.783 1.215h4.446c-.947-.746-1.678-1.354-2.447-1.906-.249-.18-.607-.313-.906-.297-1.228.068-2.452.202-3.796.322-.344.459-.752 1.005-1.16 1.55.052.081.104.161.157.242" fill="#e7d8bd" transform="matrix(4.2022116951 0 0 -4.2192117087 301.86245661 222.52058026)"/><path d="m0 3.784c.928-.302 1.726-.376 2.285-.78 1.37-.989 2.924-1.219 4.522-1.491-1.955-.546-3.851-1.513-5.968-.405-.652.342-.944.699-.846 1.414.043.314.007.638.007 1.262" fill="#f15847" transform="matrix(4.2022116951 0 0 -4.2192117087 465.71258769 55.50794665)"/><path d="m0 2.894h3.827c-.033-.836.351-1.871-.518-2.348-.804-.441-1.898-.546-2.738 0-.716.465-.659 1.341-.571 2.348" fill="#696a6c" transform="matrix(4.2022116951 0 0 -4.2192117087 355.80416643 342.56650963)"/><path d="m0 2.397c1.275.095 2.324.174 3.365.252.079-.198.164-.31.159-.418-.025-.633.328-1.46-.299-1.834-.632-.377-1.454-.479-2.207-.589-.417-.06-.801.212-.86.701-.071.593-.101 1.19-.158 1.888" fill="#696a6c" transform="matrix(4.2022116951 0 0 -4.2192117087 426.67088979 338.96234008)"/><path d="m0-3.058c-.53.948-.403 1.733-.055 2.577.869.488 1.864.259 2.942.452-.114-.816-.216-1.484-.298-2.154-.072-.591-.415-.863-.985-.873-.531-.009-1.062-.002-1.604-.002" fill="#696a6c" transform="matrix(4.2022116951 0 0 -4.2192117087 498.84178086 322.84149385)"/><path d="m0 3.74c2.526-1.136 4.872-2.19 7.418-3.335-3.63-.405-6.767.889-7.418 3.335" fill="#e7d8bd" transform="matrix(4.2022116951 0 0 -4.2192117087 80.76227973 274.25395498)"/><path d="m3.463-5.181c.609 1.235.667 2.489.725 3.734.024.494-.212.902-.725 1.179-.634.342-1.193.822-1.964 1.154.655-2.022 1.31-4.044 1.964-6.067" fill="#e7d8bd" transform="matrix(-3.42403607256 -2.44594779009 2.4360852822 -3.43789441698 250.56658224 151.51219012)"/><path d="m0 2.935c-.037-.544-.093-.947-.087-1.35.009-.572-.131-1.057-.694-1.295-.688-.29-1.379-.18-1.992.185-.195.115-.335.483-.332.733.004.56.115 1.118.188 1.727z" fill="#696a6c" transform="matrix(4.2022116951 0 0 -4.2192117087 473.93759427 339.12484021)"/><path d="m-1.72-.634c.753.48 1.644.672 1.671 1.628.022.786-.931 1.881-1.671 1.944-.856.074-1.279-.583-1.751-1.23z" fill="#696a6c" transform="matrix(2.51755618071 3.37820686923 -3.364586025 2.52774785553 274.02076767 337.39150549)"/><path d="m1.695-.884c.654.991 1.189 1.803 1.772 2.688l-1.772 1.004c-.749-.81-1.397-1.612-1.812-2.665z" fill="#696a6c" transform="matrix(2.07248915799 -3.67038626964 3.65559042447 2.0808766647 394.26253053 337.87067254)"/><path d="m-1.521-2.61c.389 1.072.769 2.094.184 3.219-.175.338-.121.797-.184 1.295l-2.452-.308c.86-1.475 1.646-2.823 2.452-4.206" fill="#f15847" transform="matrix(.5231670852 4.1863783491 -4.1695033356 .52528375356 299.87078835 44.36627107)"/><path d="m1.729-2.509c1.6.722 1.708.645.856 2.196-.266.484-.583.941-.856 1.379-1.497-.447-1.888-.643-1.01-2.34.233-.452.652-.806 1.01-1.235" fill="#696a6c" transform="matrix(-1.88210567235 -3.77236551789 3.75715717239 -1.88972234511 335.38331676 339.09984019)"/><path d="m0-2.196c-2.022-.173-2.418.275-2.06 2.369h2.313c.133-.845-.043-1.614-.253-2.369" fill="#696a6c" transform="matrix(4.2022116951 0 0 -4.2192117087 298.77078747 330.92066698)"/><path d="m0 2.613c2.087-.53 4.045-1.396 6.194-2.38-2.616-.233-4.708.284-6.194 2.38" fill="#e7d8bd" transform="matrix(4.2022116951 0 0 -4.2192117087 47.12891949 256.18727386)"/><path d="m0 1.875c.201-1.408-.065-1.825-1.122-1.901-1.22-.088-1.381.12-1.454 2.015.873-.039 1.735-.077 2.576-.114" fill="#696a6c" transform="matrix(4.2022116951 0 0 -4.2192117087 238.72907277 337.05817189)"/><path d="m0 2.332c1.662-.591 3.236-1.167 4.866-2.101-2.521-.231-4.034.435-4.866 2.101" fill="#e7d8bd" transform="matrix(4.2022116951 0 0 -4.2192117087 155.01233913 300.82480957)"/><path d="m0-2.168c-1.249-.046-1.518.218-1.973 1.972.495.166.89.242 1.142-.408.202-.521.523-.995.831-1.564" fill="#e7d8bd" transform="matrix(4.2022116951 0 0 -4.2192117087 301.36245621 212.47473889)"/><path d="m-.094-.007c.276.759.524 1.44.789 2.169-.266.168-.493.311-.789.496-.138-.267-.301-.46-.337-.675-.104-.641-.555-1.339.337-1.99" fill="#e7d8bd" transform="matrix(4.1917533534 .29756940472 -.29636982043 4.2087117003 492.45844242 263.12061274)"/><path d="m0-1.117c.06.39.112.736.171 1.117.806-.35 1.553-.675 2.57-1.117z" fill="#e7d8bd" transform="matrix(4.2022116951 0 0 -4.2192117087 413.28754575 115.71632815)"/><path d="m0 1.773c.298-1.391.298-1.391-.416-1.773-.465.952-.465.952.416 1.773" fill="#e7d8bd" transform="matrix(4.2022116951 0 0 -4.2192117087 486.62510442 276.64979023)"/><path d="m0-2.19c-.834.491-.93 1.354-1.081 2.19.628-.595.828-1.406 1.081-2.19" fill="#e7d8bd" transform="matrix(4.2022116951 0 0 -4.2192117087 291.91244865 212.11640527)"/></g><path d="m-.532.188h.684v.255h-.684z" fill="#fff" transform="matrix(-.76889228178 4.14798665172 -4.13126580501 -.77200478427 481.22093343 278.28729154)"/><path d="m.263-.138c.062.201.124.401.187.601-.063.015-.126.031-.187.048-.044-.204-.087-.408-.131-.612z" fill="#fff" fill-rule="nonzero" transform="matrix(2.54613537024 -3.3565443519 3.34301517441 2.55643954515 396.84169926 218.12057674)"/><path d="m-.37-.179c.237.307.235.603-.044.885l.044-.005c.012-.295.023-.589.036-.884z" fill="#fff" fill-rule="nonzero" transform="matrix(2.45511863076 3.42421940604 -3.41041522833 2.46505613871 257.75408799 228.89558536)"/><path d="m-.311-.095c.059.201.118.401.178.603-.06.004-.119.008-.178.013.016-.209.029-.416.044-.624z" fill="#fff" fill-rule="nonzero" transform="matrix(2.29303100109 3.53569449522 -3.52144031715 2.30231434185 254.70408555 230.53725334)"/><path d="m.19-.583c.069.214.14.428.209.642-.069.001-.139.002-.209.003l.034-.656z" fill="#fff" fill-rule="nonzero" transform="matrix(-1.79022643218 -3.81718222041 3.8017947081 -1.79747227131 260.11242321 226.97891716)"/><path d="m-.497-.882c.063.38.127.761.19 1.142-.063.014-.127.025-.19.038-.078-.38-.155-.758-.232-1.136z" fill="#231f20" fill-rule="nonzero" transform="matrix(-2.12842670274 3.63797374371 -3.62330706531 -2.13703920963 493.92094359 345.61651207)"/><path d="m0 23.011c-8.323-6.213-16.496-12.626-24.667-19.038-1.493-1.171-2.985-2.343-4.478-3.514 2.264 1.238 4.902 1.172 7.363.673 1.183-.24 2.541-.989 3.72-1.055 1.352-.077 1.449.568 2.226 1.75 3.117 4.742 6.421 9.362 9.897 13.848 1.738 2.244 3.659 5.634 5.939 7.336" fill="#fff" fill-rule="nonzero" transform="matrix(4.2022116951 0 0 -4.2192117087 245.22074463 253.96643875)"/><path d="m0 14.5c2.317-.696 3.899-2.776 5.318-4.736.676-.934 1.351-1.868 2.027-2.801 1.523-2.104 3.126-4.544 2.619-7.091 1.153-.152 2.307-.304 3.461-.455-.119 5.231.147 10.472.797 15.666" fill="#fff" fill-rule="nonzero" transform="matrix(4.2022116951 0 0 -4.2192117087 365.86250781 193.90805737)"/><path d="m0 4.259c.718-.594 1.335-1.298 1.95-1.998 1.478-1.685 2.955-3.369 4.433-5.053-.112 3.048.128 6.109.717 9.102-3.939.271-8.093.741-12.032.47.566-1.133 3.76-1.549 4.932-2.521" fill="#fff" fill-rule="nonzero" transform="matrix(4.2022116951 0 0 -4.2192117087 284.83744299 107.35382146)"/><path d="m0 4.102c.845-.792 1.514-1.752 2.107-2.747 1.131-1.894 2.008-3.939 2.601-6.064.412 4.27.584 8.563.513 12.853-2.258.119-4.519.187-6.78.205-1.6.012-4.315.462-5.718-.203 1.565-2.033 5.299-2.19 7.277-4.044" fill="#fff" fill-rule="nonzero" transform="matrix(4.2022116951 0 0 -4.2192117087 291.56661504 183.11638207)"/><path d="m0 3.11c1.025-1.128 2.056-2.265 2.852-3.565s1.351-2.788 1.328-4.311c-.099 3.992.468 8 1.67 11.809-.15-.476-7.755.833-8.619.582-1.446-.42-.881-.752-.118-1.634.874-1.009 1.98-1.882 2.887-2.881" fill="#fff" fill-rule="nonzero" transform="matrix(4.2022116951 0 0 -4.2192117087 283.0582749 256.99560784)"/><path d="m5.655-2.255c-.162 1.364.331 2.715.413 4.085.073 1.255-.197 2.503-.413 3.742-.435 2.507-.645 5.053-.628 7.596 1.671-3.479 3.456-7.096 6.548-9.407" fill="#fff" fill-rule="nonzero" transform="matrix(2.86764396078 -3.08410246728 3.071669124 2.8792523034 375.2250153 93.84964399)"/><path d="m0 7.294c1.454-.765 2.676-1.898 3.879-3.018 1.599-1.488 3.197-2.977 4.796-4.465-1.042 2.417-1.599 5.041-1.627 7.672" fill="#fff" fill-rule="nonzero" transform="matrix(4.2022116951 0 0 -4.2192117087 462.10425147 132.13300795)"/><path d="m0 16.86c3.954-1.414 7.179-4.342 9.975-7.476 2.796-3.133 5.29-6.554 8.392-9.384-2.249 5.158-3.264 10.85-2.937 16.468" fill="#fff" fill-rule="nonzero" transform="matrix(4.2022116951 0 0 -4.2192117087 436.13756403 235.58725738)"/><path d="m6.303-1.487c-.067 5.711-2.994 11.317-7.641 14.638 2.644-.504 5.223-1.362 7.641-2.547 1.424-.697 2.831-1.538 3.793-2.798 1.636-2.14 1.705-5.093 1.255-7.748" fill="#fff" fill-rule="nonzero" transform="matrix(2.84184810681 -3.10808165313 3.09555247644 2.85334811601 504.10845174 204.38723242)"/><path d="m0-12.559c-1.971-.379-3.964-.641-5.965-.785.194.831.844 1.462 1.349 2.15.882 1.199 1.356 2.641 1.903 4.027 1.072 2.715 2.463 5.76 4.408 7.952-.439-4.535-2.053-8.67-1.695-13.344" fill="#7f836f" fill-rule="nonzero" transform="matrix(4.2022116951 0 0 -4.2192117087 251.94158334 150.64552276)"/><path d="m0-11.563c.05-.219-.249-.335-.473-.356-1.627-.15-3.254-.301-4.88-.451-.222 3.651.766 7.365 2.772 10.423.543.827 1.181 1.627 2.043 2.112.869.489 2.11.642 2.866-.055-3.205-2.324-3.15-8.096-2.328-11.673" fill="#7f836f" fill-rule="nonzero" transform="matrix(4.2022116951 0 0 -4.2192117087 220.65405831 221.74141297)"/></svg>