<?xml version="1.0" encoding="UTF-8" standalone="no"?>
<!DOCTYPE svg PUBLIC "-//W3C//DTD SVG 1.1//EN" "http://www.w3.org/Graphics/SVG/1.1/DTD/svg11.dtd">
<svg width="100%" height="100%" viewBox="0 0 630 433" version="1.1" xmlns="http://www.w3.org/2000/svg" xmlns:xlink="http://www.w3.org/1999/xlink" xml:space="preserve" xmlns:serif="http://www.serif.com/" style="fill-rule:evenodd;clip-rule:evenodd;stroke-linejoin:round;stroke-miterlimit:2;">
    <g transform="matrix(1,0,0,1,-504,-634)">
        <g transform="matrix(4.16667,0,0,4.16667,-389.901,131.195)">
            <g transform="matrix(1.00853,0,0,-1.01261,288.199,-28.203)">
                <rect x="-72.843" y="-249.438" width="149.572" height="102.281" style="fill:rgb(190,231,251);"/>
            </g>
            <g transform="matrix(58.2875,0,0,-58.5234,261.015,195.12)">
                <rect x="-0.794" y="-0.5" width="2.588" height="1" style="fill:url(#_Linear1);"/>
            </g>
            <g>
                <g transform="matrix(1.00853,0,0,-1.01261,309.828,168.931)">
                    <path d="M0,-3.748L-0.05,-3.874C0.139,-3.963 0.327,-4.052 0.516,-4.141C0.54,-4.082 0.565,-4.022 0.591,-3.963C0.394,-3.892 0.197,-3.82 0,-3.748M19.943,-17.743L19.709,-17.696C19.662,-17.92 19.614,-18.145 19.567,-18.37C19.65,-18.386 19.734,-18.403 19.817,-18.42L19.943,-17.743ZM-30.884,-2.375C-31.127,-2.944 -31.259,-3.252 -31.456,-3.71C-30.689,-3.507 -30.687,-3.113 -30.884,-2.375M-3.58,-2.143C-3.689,-1.498 -3.786,-0.928 -3.923,-0.124C-4.027,-0.819 -4.106,-1.264 -4.158,-1.712C-4.196,-2.047 -4.092,-2.276 -3.58,-2.143M-3.107,-0.324C-3.208,-1.292 -2.855,-1.78 -2.441,-2.246C-2.318,-1.583 -2.476,-1.017 -3.107,-0.324M19.027,-19.77C18.979,-19.775 18.932,-19.781 18.884,-19.786C18.86,-19.897 18.799,-20.016 18.82,-20.118C19.028,-21.139 19.25,-22.156 19.469,-23.175C19.526,-23.164 19.584,-23.153 19.643,-23.142C19.437,-22.018 19.232,-20.894 19.027,-19.77M-25.02,-4.808C-25.273,-4.023 -25.473,-3.212 -26.101,-2.618C-25.949,-3.453 -25.854,-4.317 -25.02,-4.808M-28.855,-4.43C-28.641,-4.471 -28.389,-4.519 -28.055,-4.581C-28.28,-3.784 -28.47,-3.11 -28.66,-2.437C-28.725,-2.445 -28.79,-2.454 -28.855,-2.461L-28.855,-4.43ZM-0.786,-2.462C-0.913,-1.822 -0.986,-1.432 -1.068,-1.043C-1.167,-0.579 -1.295,-0.145 -2.015,-0.446C-1.741,-1.137 -1.731,-1.933 -0.786,-2.462M21.316,-16.139C20.436,-16.96 20.436,-16.96 20.9,-17.913C21.614,-17.53 21.614,-17.53 21.316,-16.139M-28.905,32.925C-27.077,32.68 -26.876,32.86 -27.103,34.372C-27.674,33.913 -28.187,33.501 -28.905,32.925M3.864,19.114L6.605,19.114C5.588,19.556 4.841,19.88 4.035,20.231C3.977,19.85 3.924,19.503 3.864,19.114M20.863,-23.257C20.62,-21.808 20.399,-20.489 20.179,-19.17C19.731,-19.989 20.069,-21.679 20.863,-23.257M-22.503,-21.922C-21.551,-21.297 -21.55,-21.297 -21.595,-20.879C-21.664,-20.248 -22.067,-19.99 -22.809,-19.891C-22.706,-20.575 -22.613,-21.192 -22.503,-21.922M22.611,-14.692C21.676,-15.28 22.076,-16.007 22.136,-16.655C22.155,-16.871 22.305,-17.076 22.423,-17.352C22.731,-17.187 22.969,-17.06 23.245,-16.913C23.032,-16.166 22.833,-15.469 22.611,-14.692M-27.935,-1.982C-27.879,-2.992 -27.607,-3.773 -27.126,-4.464C-27.019,-4.62 -26.661,-4.602 -26.187,-4.722C-26.84,-3.717 -26.741,-2.559 -27.935,-1.982M-22.423,-24.97C-22.595,-24.316 -22.74,-23.765 -22.907,-23.132C-23.4,-23.49 -23.762,-23.752 -24.104,-24C-23.868,-24.949 -23.868,-24.949 -22.423,-24.97M-22.771,-4.871C-23.079,-4.301 -23.399,-3.827 -23.602,-3.307C-23.854,-2.656 -24.248,-2.733 -24.744,-2.899C-24.288,-4.653 -24.02,-4.917 -22.771,-4.871M-5.913,18.987C-5.441,18.946 -4.889,18.898 -4.363,18.853C-3.925,19.594 -3.864,20.265 -4.018,21.09C-4.706,20.326 -5.299,19.669 -5.913,18.987M-31.21,-1.606C-32.104,-1.709 -32.548,-2.245 -33.352,-4.044C-32.547,-4.271 -32.509,-4.291 -32.33,-3.945C-31.944,-3.198 -31.601,-2.428 -31.21,-1.606M18.45,-17.578C18.625,-14.97 17.761,-12.498 17.438,-9.951C17.39,-12.54 18.051,-15.04 18.45,-17.578M-25.754,-23.705C-24.902,-23.764 -25.038,-23.263 -25.09,-22.896C-25.241,-21.84 -25.428,-20.789 -25.613,-19.738C-25.638,-19.602 -25.735,-19.479 -25.797,-19.354C-25.944,-19.416 -26.08,-19.451 -26.078,-19.476C-25.98,-20.852 -25.871,-22.226 -25.754,-23.705M-19.645,-19.842C-20.092,-18.307 -20.515,-16.855 -20.937,-15.404C-21.003,-16.326 -20.98,-17.243 -20.742,-18.099C-20.502,-18.956 -20.426,-19.764 -20.819,-20.771C-20.356,-20.404 -20.046,-20.159 -19.645,-19.842M-20.49,-24.865C-20.755,-23.909 -21.001,-23.019 -21.281,-22.011C-21.698,-22.287 -21.986,-22.478 -22.29,-22.68C-22.109,-23.291 -21.92,-23.832 -21.792,-24.388C-21.636,-25.062 -21.216,-25.081 -20.49,-24.865M21.784,-14.292C22.439,-13.84 22.301,-13.306 22.197,-12.796C22.082,-12.232 21.941,-11.674 21.797,-11.116C21.673,-10.636 21.78,-10.037 21.087,-9.721C20.905,-11.347 21.364,-12.772 21.784,-14.292M-29.299,16.95C-30.94,16.146 -31.287,15.793 -31.571,14.686L-29.724,14.686C-29.578,15.465 -29.445,16.174 -29.299,16.95M20.854,-18.74C21.206,-20.268 21.309,-21.738 21.978,-23.044C22.126,-23.012 22.271,-22.988 22.27,-22.981C22.093,-21.534 21.907,-20.089 21.714,-18.644C21.705,-18.581 21.623,-18.527 21.535,-18.419C21.335,-18.513 21.122,-18.614 20.854,-18.74M27.492,3.851C26.909,3.518 26.697,3.148 26.806,2.579C26.912,2.016 26.9,1.43 27.021,0.872C27.178,0.145 27.096,-0.653 27.6,-1.416C28.004,0.426 27.682,2.106 27.492,3.851M-0.716,-4.464C-0.773,-4.528 -0.832,-4.591 -0.89,-4.654C-0.505,-6.263 -0.12,-7.871 0.285,-9.568C1.243,-7.9 0.188,-6.53 -0.095,-5.092C-0.142,-4.851 -0.501,-4.672 -0.716,-4.464M22.71,-9.883C22.669,-10.843 22.662,-11.734 23.038,-12.879C23.765,-11.764 24.352,-10.863 24.99,-9.883L22.71,-9.883ZM-22.454,31.313C-23.645,32.134 -24.65,31.859 -25.723,31.559C-25.685,31.031 -25.648,30.532 -25.6,29.861C-24.503,30.367 -23.567,30.799 -22.454,31.313M-57.597,-21.31C-56.766,-22.976 -55.252,-23.642 -52.731,-23.412C-54.361,-22.477 -55.936,-21.901 -57.597,-21.31M-23.088,-22.399C-23.254,-21.73 -23.403,-21.095 -23.571,-20.465C-23.819,-19.532 -23.851,-19.52 -24.957,-19.728C-24.864,-20.293 -24.795,-20.864 -24.672,-21.422C-24.554,-21.955 -24.381,-22.476 -24.208,-23.086C-23.748,-22.804 -23.438,-22.614 -23.088,-22.399M-0.602,-0.463C-0.226,-1.252 0.079,-1.89 0.398,-2.559C0.898,-2.528 1.331,-2.501 1.79,-2.472C1.905,-1.721 2.002,-1.094 2.099,-0.463L-0.602,-0.463ZM20.165,-9.896C20.07,-9.893 19.975,-9.89 19.88,-9.887C19.368,-10.81 19.828,-11.809 19.89,-12.752C19.954,-13.731 20.241,-14.695 20.437,-15.698C21.042,-15.341 21.177,-14.953 21.03,-14.328C20.687,-12.864 20.447,-11.375 20.165,-9.896M19.281,-16.982C20.027,-16.227 19.753,-15.578 19.684,-15.014C19.5,-13.505 19.228,-12.008 18.977,-10.509C18.927,-10.213 18.911,-9.856 18.333,-9.748C18.304,-12.183 18.962,-14.427 19.281,-16.982M-37.675,-30.355C-38.516,-30.318 -39.378,-30.28 -40.251,-30.242C-40.178,-32.136 -40.017,-32.345 -38.797,-32.257C-37.741,-32.181 -37.474,-31.763 -37.675,-30.355M-83.271,-10.449C-81.785,-12.545 -79.693,-13.062 -77.077,-12.829C-79.226,-11.845 -81.184,-10.979 -83.271,-10.449M-19.433,-20.745C-20.816,-21.319 -20.641,-21.701 -20.374,-22.576C-20.232,-23.043 -20.013,-23.488 -19.855,-23.952C-19.746,-24.274 -19.682,-24.612 -19.578,-25.021C-19.201,-24.997 -18.81,-24.972 -18.246,-24.935C-18.661,-23.47 -19.038,-22.139 -19.433,-20.745M-23.387,-32.972C-23.177,-32.217 -23.001,-31.447 -23.134,-30.602L-25.447,-30.602C-25.805,-32.696 -25.409,-33.144 -23.387,-32.972M-32.146,30.158L-27.663,30.158C-27.539,30.607 -27.423,30.993 -27.33,31.385C-27.305,31.494 -27.349,31.62 -27.368,31.801C-29.16,31.937 -30.851,31.846 -32.146,30.158M23.433,-17.692C22.995,-17.879 22.674,-18.016 22.368,-18.146C22.442,-18.725 22.472,-19.217 22.574,-19.694C22.772,-20.612 22.998,-21.526 23.24,-22.435C23.412,-23.075 23.841,-23.12 24.408,-22.865C24.086,-21.156 23.769,-19.476 23.433,-17.692M-50.806,-18.565C-50.47,-18.363 -50.334,-18.268 -50.188,-18.196C-48.939,-17.581 -47.86,-16.846 -47.826,-15.242C-47.819,-14.932 -47.595,-14.632 -47.528,-14.315C-47.426,-13.83 -47.374,-13.334 -47.3,-12.842C-48.613,-14.619 -50.023,-16.269 -50.806,-18.565M-17.692,-32.291C-17.149,-32.42 -16.644,-32.635 -16.136,-32.642C-14.225,-32.667 -14.225,-32.229 -14.496,-30.691C-15.01,-30.642 -15.561,-30.564 -16.113,-30.543C-17.881,-30.476 -17.764,-30.538 -17.692,-32.291M-16.162,-24.972C-16.721,-22.996 -17.235,-21.177 -17.788,-19.221C-18.246,-19.618 -18.544,-19.877 -18.902,-20.187C-18.339,-21.808 -17.796,-23.374 -17.242,-24.972L-16.162,-24.972ZM-20.725,38.975C-22.198,39.603 -23.633,40.215 -25.204,40.885L-25.204,38.413C-24.702,38.413 -24.254,38.524 -23.896,38.392C-22.708,37.952 -21.741,38.456 -20.725,38.975M-0.597,-30.513L-0.597,-32.596C0.524,-32.753 1.541,-32.585 2.615,-32.333L2.615,-30.296C1.559,-30.368 0.588,-30.433 -0.597,-30.513M-39.314,-17.452C-40.207,-19.616 -42.024,-21.144 -42.783,-23.437C-42.246,-23.474 -41.78,-23.506 -41.483,-23.526C-40.381,-21.415 -39.362,-19.463 -38.313,-17.452L-39.314,-17.452ZM-29.8,-30.553L-32.724,-30.553C-32.959,-31.319 -33.232,-32.05 -32.66,-32.693C-32.166,-33.247 -30.718,-33.353 -30.103,-32.865C-29.354,-32.272 -29.733,-31.442 -29.8,-30.553M18.297,-29.785L15.38,-29.785C15.307,-30.394 15.196,-30.953 15.191,-31.512C15.188,-31.762 15.329,-32.13 15.523,-32.246C16.137,-32.61 16.828,-32.72 17.516,-32.43C18.079,-32.192 18.219,-31.707 18.21,-31.135C18.204,-30.732 18.26,-30.33 18.297,-29.785M15.779,-23.416C16.573,-23.478 17.141,-23.524 17.708,-23.567C18.15,-23.601 18.552,-23.343 18.459,-22.966C18.23,-22.037 18.504,-20.988 17.821,-20.072C17.061,-20.417 16.336,-20.746 15.573,-21.092C15.649,-21.945 15.713,-22.665 15.779,-23.416M-40.684,9.532C-38.978,10.801 -37.272,12.069 -35.566,13.337C-36.387,13.514 -37.121,13.447 -37.836,13.536C-38.415,13.607 -38.843,13.411 -39.11,12.995C-39.784,11.947 -40.464,10.892 -40.684,9.532M-39.264,-23.917C-38.314,-21.791 -37.413,-19.774 -36.51,-17.754C-37.099,-17.428 -37.499,-17.557 -37.814,-18.149C-38.508,-19.451 -39.28,-20.713 -39.936,-22.034C-40.172,-22.51 -40.165,-23.107 -40.283,-23.72C-39.955,-23.784 -39.639,-23.845 -39.264,-23.917M10.256,-23.617C8.962,-18.982 6.992,-14.592 5.403,-10.067C5.395,-10.042 5.336,-10.024 5.3,-10.021C5.265,-10.018 5.229,-10.039 5.1,-10.074C5.181,-10.371 5.24,-10.686 5.352,-10.982C5.771,-12.095 6.236,-13.191 6.63,-14.313C7.374,-16.442 8.142,-18.561 8.482,-20.814C8.614,-21.689 9.042,-22.52 9.343,-23.369C9.514,-23.852 9.845,-23.829 10.256,-23.617M-75.267,-13.604C-74.616,-16.051 -71.479,-17.344 -67.849,-16.94C-70.395,-15.795 -72.741,-14.74 -75.267,-13.604M24.224,-31.918C24.766,-31.918 25.297,-31.926 25.827,-31.916C26.397,-31.906 26.74,-31.634 26.812,-31.043C26.895,-30.373 26.997,-29.706 27.11,-28.89C26.032,-29.082 25.038,-28.853 24.169,-29.342C23.82,-30.185 23.693,-30.971 24.224,-31.918M7.049,-30.285C7.105,-30.983 7.136,-31.58 7.207,-32.173C7.266,-32.662 7.649,-32.934 8.066,-32.873C8.82,-32.763 9.642,-32.662 10.273,-32.285C10.9,-31.911 10.548,-31.084 10.573,-30.45C10.578,-30.342 10.493,-30.23 10.414,-30.033C9.373,-30.111 8.324,-30.189 7.049,-30.285M-19.052,-19.318C-17.954,-18.498 -17.966,-18.502 -18.323,-17.42C-18.682,-16.331 -18.997,-15.228 -19.361,-14.141C-19.777,-12.897 -20.227,-11.665 -20.696,-10.331C-20.977,-11.914 -21.171,-13.366 -20.348,-14.729C-20.29,-14.825 -20.326,-14.974 -20.292,-15.091C-19.894,-16.461 -19.49,-17.83 -19.052,-19.318M-9.815,-30.641C-9.903,-31.648 -9.96,-32.524 -9.244,-32.989C-8.404,-33.535 -7.311,-33.43 -6.507,-32.989C-5.638,-32.512 -6.021,-31.477 -5.988,-30.641L-9.815,-30.641ZM16.34,38.284C16.34,37.661 16.376,37.336 16.333,37.023C16.234,36.308 16.526,35.95 17.179,35.608C19.296,34.501 21.191,35.467 23.146,36.013C21.549,36.285 19.995,36.515 18.625,37.504C18.065,37.908 17.268,37.982 16.34,38.284M-3.39,-5.076C-3.217,-5.741 -3.033,-6.289 -2.935,-6.852C-2.629,-8.592 -2.339,-10.334 -2.072,-12.08C-1.694,-14.561 -1.354,-17.047 -0.975,-19.528C-0.75,-20.99 -0.485,-22.445 -0.225,-23.9C-0.147,-24.331 0.104,-24.299 0.396,-24.073C-0.649,-17.67 -1.693,-11.274 -2.747,-4.821C-3.039,-4.936 -3.188,-4.996 -3.39,-5.076M-51.704,-17.244C-52.682,-17.401 -56.554,-19.417 -57.616,-20.348C-56.996,-20.577 -56.434,-20.82 -55.849,-20.984C-55.598,-21.054 -55.259,-21.04 -55.033,-20.923C-53.729,-20.249 -52.447,-19.533 -51.286,-18.901C-51.456,-18.227 -51.58,-17.734 -51.704,-17.244M-22.652,-3.042C-22.705,-3.123 -22.757,-3.204 -22.809,-3.284C-22.401,-3.83 -21.993,-4.375 -21.649,-4.834C-20.305,-4.955 -19.081,-5.088 -17.853,-5.156C-17.554,-5.173 -17.196,-5.039 -16.947,-4.86C-16.178,-4.307 -15.447,-3.699 -14.5,-2.953L-18.946,-2.953C-19.119,-3.344 -18.973,-4.017 -19.729,-4.169C-20.493,-3.275 -21.56,-3.122 -22.652,-3.042M-1.22,44.576C-1.338,43.577 -1.416,42.917 -1.479,42.379C1.229,40.429 3.322,42.008 5.486,43.244C3.24,43.086 1.08,43.362 -1.22,44.576M-10.315,29.122C-8.076,30.094 -5.891,30.976 -3.934,32.779L-9.045,32.779C-9.467,31.565 -9.892,30.343 -10.315,29.122M-67.396,-17.121C-67.242,-17.448 -67.205,-17.565 -67.137,-17.662C-67.021,-17.831 -66.901,-18.002 -66.755,-18.145C-64.843,-20.017 -62.537,-21.099 -59.91,-21.504C-59.389,-21.584 -58.857,-21.519 -58.444,-20.971C-60.322,-20.129 -62.146,-19.295 -63.985,-18.495C-65.033,-18.039 -66.106,-17.638 -67.396,-17.121M1.995,-5.174C3.167,-6.282 4.407,-6.618 5.759,-6.242C6.995,-5.897 8.248,-5.505 9.134,-4.171C6.572,-3.859 4.161,-3.858 1.653,-3.746C2.479,-4.883 3.849,-4.674 4.965,-5.307C3.849,-5.739 2.988,-5.312 1.995,-5.174M6.237,-9.965C6.521,-10.838 6.729,-11.548 6.981,-12.243C8.217,-15.644 9.47,-19.038 10.702,-22.439C10.916,-23.031 11.425,-23.31 11.963,-23.985C11.937,-23.488 11.967,-23.29 11.91,-23.12C11.598,-22.184 11.278,-21.249 10.935,-20.324C9.663,-16.899 8.138,-13.566 7.216,-9.965L6.237,-9.965ZM15.686,-19.684C15.773,-19.729 15.861,-19.774 15.949,-19.82C16.419,-19.504 16.929,-19.23 17.345,-18.853C17.553,-18.665 17.704,-18.284 17.687,-18.001C17.632,-17.143 17.477,-16.291 17.371,-15.436C17.165,-13.765 16.968,-12.094 16.765,-10.423C16.738,-10.201 16.7,-9.981 16.636,-9.544C16.426,-9.858 16.28,-9.976 16.272,-10.102C16.068,-13.295 15.878,-16.49 15.686,-19.684M-2.474,21.937C-2.784,20.856 -2.817,19.907 -2.59,18.886C-0.666,18.961 1.198,19.034 3.122,19.108C3.201,19.647 3.271,20.11 3.341,20.585C1.374,21.164 -0.438,21.766 -2.474,21.937M-2.453,-3.778C-2.472,-3.715 -2.489,-3.652 -2.508,-3.589C-5.337,-3.53 -8.167,-3.471 -11.252,-3.407C-10.316,-3.908 -9.558,-4.314 -8.539,-4.86C-9.073,-4.917 -9.323,-5.019 -9.517,-4.952C-10.327,-4.671 -11.173,-4.454 -11.777,-3.756C-12.081,-3.405 -12.444,-3.06 -13.053,-3.365C-12.613,-3.705 -12.169,-3.953 -11.851,-4.312C-10.385,-5.967 -8.549,-6.243 -6.589,-5.597C-5.165,-5.127 -3.828,-4.394 -2.453,-3.778M-62.073,-18.409C-61.071,-18.832 -60.303,-19.106 -59.585,-19.476C-59.064,-19.744 -58.604,-19.778 -58.089,-19.519C-56.101,-18.521 -54.109,-17.533 -51.843,-16.404C-52.658,-15.96 -53.212,-15.658 -53.673,-15.407C-55.124,-16.012 -56.425,-16.616 -57.771,-17.098C-59.1,-17.574 -60.474,-17.928 -62.073,-18.409M1.448,-10.458C0.448,-10.92 0.45,-10.92 0.612,-11.72C0.922,-13.248 1.215,-14.779 1.54,-16.304C2.086,-18.862 2.65,-21.415 3.217,-24.014C3.555,-24.014 3.755,-24.03 3.951,-24.009C4.105,-23.992 4.256,-23.929 4.533,-23.852C3.501,-19.369 2.478,-14.927 1.448,-10.458M-34.327,-4.196C-33.773,-3.314 -33.259,-2.494 -32.674,-1.562C-35.584,-1.354 -38.271,-1.825 -40.971,-2.366C-41.095,-2.589 -41.233,-2.794 -41.329,-3.018C-41.437,-3.269 -41.507,-3.535 -41.61,-3.845C-39.119,-3.965 -36.715,-4.081 -34.327,-4.196M2.14,-23.971C2.231,-22.769 -0.525,-8.951 -1.713,-4.562C-2.199,-4.781 -2.232,-4.805 -2.171,-5.044C-2.027,-5.599 -1.826,-6.142 -1.729,-6.704C-1.407,-8.563 -1.138,-10.432 -0.817,-12.291C-0.266,-15.487 0.306,-18.681 0.878,-21.873C1,-22.557 1.158,-23.234 1.31,-23.913C1.323,-23.977 1.406,-24.026 1.479,-24.107C1.695,-24.062 1.927,-24.015 2.14,-23.971M14.582,11.224C14.924,12.39 14.886,12.844 14.323,14.133C12.169,14.024 9.982,13.914 7.729,13.799L7.729,11.593C10.032,11.146 12.314,11.251 14.582,11.224M-47.421,-16.44C-43.454,-13.548 -39.746,-10.844 -36.038,-8.141C-36.25,-8.018 -36.374,-8.027 -36.47,-8.083C-39.181,-9.663 -42.024,-10.922 -45.097,-11.617C-45.964,-11.813 -46.64,-12.135 -46.56,-13.229C-46.535,-13.572 -46.769,-13.931 -46.865,-14.287C-47.034,-14.907 -47.188,-15.531 -47.421,-16.44M-14.051,18.101C-15.137,16.016 -16.293,14.15 -16.927,11.922C-13.623,13.233 -11.062,15.344 -8.554,17.807C-10.465,17.909 -12.22,18.003 -14.051,18.101M-3.787,-5.322C-3.915,-5.334 -4.044,-5.345 -4.172,-5.357C-3.947,-8.479 -3.943,-11.615 -3.563,-14.726C-3.177,-17.888 -3.393,-21.113 -2.647,-24.236L-0.966,-24.236C-1.915,-17.873 -2.852,-11.598 -3.787,-5.322M-27.094,-19.276C-28.245,-18.81 -29.417,-18.589 -30.764,-18.651L-30.764,-24.734L-26.417,-24.734C-26.477,-22.92 -26.697,-21.115 -27.094,-19.276M14.69,32.951C12.296,30.903 9.99,28.937 7.695,26.959C7.556,26.838 7.499,26.623 7.325,26.31C9.795,26 12.124,25.673 14.582,26.002C14.552,26.537 14.527,26.971 14.498,27.495C13.894,27.495 13.366,27.487 12.84,27.498C12.406,27.506 11.805,27.374 11.835,28.055C11.863,28.68 12.35,28.621 12.854,28.547C13.413,28.466 13.993,28.529 14.69,28.529L14.69,32.951ZM25.272,-22.769C25.398,-22.798 25.523,-22.828 25.649,-22.858C26.95,-21.68 27.681,-20.03 28.853,-18.737C30.031,-17.436 31.207,-16.096 32.068,-14.415C29.31,-15.495 26.688,-16.521 23.994,-17.576C24.432,-19.353 24.852,-21.061 25.272,-22.769M-33.395,-24.554C-32.823,-22.443 -32.687,-20.352 -32.729,-18.123C-33.378,-18.026 -33.978,-17.956 -34.569,-17.843C-35.398,-17.685 -35.87,-18.04 -36.194,-18.789C-36.681,-19.915 -37.26,-21.001 -37.756,-22.124C-38.014,-22.71 -38.177,-23.337 -38.435,-24.099C-36.662,-24.259 -35.054,-24.404 -33.395,-24.554M-4.711,-7.554L-4.904,-7.545C-5.018,-8.92 -5.079,-10.302 -5.254,-11.669C-5.754,-15.577 -6.308,-19.477 -6.816,-23.384C-6.861,-23.725 -6.735,-24.087 -6.684,-24.484C-5.601,-24.46 -4.583,-24.67 -3.558,-24.192C-3.754,-21.39 -3.95,-18.628 -4.142,-15.866C-4.334,-13.095 -4.521,-10.324 -4.711,-7.554M23.95,-40.942C24.336,-41.347 24.613,-41.592 24.834,-41.88C25.281,-42.464 25.78,-43.029 26.109,-43.678C26.634,-44.709 26.814,-44.811 27.978,-44.701C30.13,-44.497 31.993,-43.614 33.774,-42.458C35.113,-41.589 36.253,-40.563 36.873,-39.056C36.971,-38.817 36.997,-38.549 37.129,-37.981C35.503,-39.438 33.849,-40.253 32.149,-40.975C31.554,-41.228 30.899,-41.553 30.289,-41.521C28.249,-41.415 26.217,-41.162 23.95,-40.942M-5.8,-0.234C-8.187,0.432 -16.511,0.924 -18.759,0.538L-18.759,-1.489C-16.621,-1.916 -14.477,-1.623 -12.358,-1.759C-10.249,-1.895 -8.141,-2.04 -5.994,-2.183C-5.917,-1.412 -5.857,-0.814 -5.8,-0.234M-51.568,-40.382C-51.214,-40.454 -50.857,-40.599 -50.507,-40.583C-49.381,-40.536 -48.453,-40.948 -47.543,-41.581C-43.908,-44.108 -40.078,-44.039 -36.139,-42.313C-37.862,-42.125 -39.496,-41.609 -41.015,-40.835C-42.417,-40.121 -43.814,-39.497 -45.385,-39.251C-47.567,-38.911 -49.635,-39.141 -51.568,-40.382M8.256,17.39C8.165,17.031 8.075,16.756 8.029,16.475C7.983,16.194 7.981,15.905 7.942,15.382C10.235,18.621 13.192,21.05 14.558,24.683C11.987,25.24 9.482,25.058 6.797,24.698C7.363,22.751 7.885,20.959 8.419,19.124C8.595,19.094 8.869,19.047 9.127,19.003C9.248,17.851 9.248,17.851 8.256,17.39M-46.388,-10.948C-42.547,-10.642 -35.716,-7.702 -34.067,-5.667C-34.237,-5.614 -34.385,-5.533 -34.536,-5.525C-37.003,-5.394 -39.47,-5.274 -41.937,-5.148C-42.432,-5.123 -42.776,-5.298 -43.056,-5.74C-43.649,-6.676 -44.321,-7.561 -44.923,-8.492C-45.426,-9.269 -45.874,-10.082 -46.388,-10.948M8.335,-23.837C7.466,-18.976 6.03,-14.468 4.254,-9.96C3.582,-10.043 2.92,-10.125 2.228,-10.21C3.268,-14.915 4.021,-19.525 5.659,-23.837L8.335,-23.837ZM-69.961,-14.924C-69.569,-15.144 -69.333,-15.304 -69.077,-15.417C-67.727,-16.012 -66.317,-16.496 -65.035,-17.209C-63.698,-17.954 -62.5,-17.897 -61.098,-17.379C-59.187,-16.672 -57.195,-16.184 -55.343,-15.304C-55.102,-15.189 -54.879,-15.034 -54.382,-14.741C-55.63,-14.412 -56.597,-14.118 -57.581,-13.909C-58.38,-13.739 -59.234,-13.774 -60.007,-13.535C-62.055,-12.902 -64.085,-13.319 -66.098,-13.586C-67.371,-13.755 -68.66,-14.081 -69.961,-14.924M-43.767,-23.376C-42.519,-21.347 -41.362,-19.466 -40.067,-17.359C-43.03,-17.588 -45.797,-17.336 -48.363,-18.596C-48.536,-18.448 -48.705,-18.305 -48.873,-18.162C-50.731,-19.269 -52.533,-20.343 -54.391,-21.451C-54.149,-21.605 -53.961,-21.816 -53.746,-21.851C-50.465,-22.366 -47.181,-22.859 -43.767,-23.376M14.548,-9.503C12.408,-9.583 10.448,-9.658 8.531,-9.73C7.975,-10.77 8.425,-11.685 8.744,-12.53C9.909,-15.606 11.165,-18.647 12.39,-21.7C12.622,-22.279 12.869,-22.852 13.109,-23.429C14.11,-18.83 14.039,-14.214 14.548,-9.503M-45.611,-38.338C-45.675,-38.048 -45.69,-37.927 -45.728,-37.812C-46.169,-36.477 -46.17,-36.477 -47.638,-36.535C-48.005,-36.549 -48.373,-36.567 -48.739,-36.598C-51.004,-36.791 -53.014,-37.71 -54.986,-38.76C-55.632,-39.104 -56.323,-39.426 -57.032,-39.568C-57.607,-39.684 -58.247,-39.558 -58.846,-39.46C-59.236,-39.397 -59.557,-39.121 -59.343,-38.669C-59.166,-38.291 -58.829,-38.334 -58.502,-38.533C-58.328,-38.639 -58.147,-38.757 -57.953,-38.807C-57.234,-38.99 -56.427,-38.514 -56.339,-37.875C-56.223,-37.031 -56.757,-36.165 -57.613,-36.021C-58.836,-35.815 -60.063,-35.769 -61.23,-36.378C-62.333,-36.954 -62.933,-37.924 -62.851,-39.05C-62.763,-40.261 -61.829,-41.586 -60.677,-41.737C-59.139,-41.938 -57.576,-41.989 -56.123,-41.362C-54.428,-40.631 -52.768,-39.811 -51.127,-38.963C-50.021,-38.392 -48.879,-38.247 -47.666,-38.331C-47.017,-38.375 -46.361,-38.338 -45.611,-38.338M-2.763,36.437C-2.416,37.628 -2.502,38.711 -2.567,39.919C-3.034,39.805 -3.369,39.78 -3.65,39.644C-5.87,38.574 -8.098,37.516 -10.289,36.389C-13.252,34.865 -16.199,33.32 -19.304,32.091C-20.701,31.538 -22.037,30.832 -23.4,30.195C-23.375,30.096 -23.35,29.998 -23.324,29.9C-21.45,30.008 -19.576,30.115 -17.702,30.229C-17.46,30.243 -17.166,30.391 -16.993,30.298C-16.736,30.16 -16.497,29.889 -16.39,29.62C-16.336,29.484 -16.568,29.071 -16.711,29.049C-17.76,28.89 -17.792,28.052 -17.937,27.299C-18.111,26.397 -18.301,25.489 -18.111,24.445C-17.686,24.659 -17.354,24.803 -17.043,24.985C-16.127,25.524 -15.229,26.095 -14.305,26.621C-13.521,27.068 -12.689,27.435 -11.923,27.906C-11.561,28.129 -11.163,28.463 -11.016,28.838C-10.507,30.132 -10.102,31.466 -9.64,32.835C-9.797,32.865 -9.99,32.847 -10.099,32.934C-10.295,33.093 -10.441,33.314 -10.608,33.509C-10.387,33.656 -10.182,33.856 -9.938,33.933C-9.714,34.003 -9.447,33.936 -9.2,33.936C-7.236,33.935 -5.272,33.935 -3.206,33.935C-3.118,34.31 -3.011,34.768 -2.878,35.333C-4.149,35.562 -5.27,35.739 -6.411,35.476C-6.934,35.355 -7.279,35.468 -7.457,36.149C-5.945,36.771 -4.397,36.441 -2.763,36.437M-17.354,-17.772C-14.948,-16.386 -8.611,-9.31 -7.382,-6.669C-9.416,-6.85 -11.17,-6.288 -12.622,-4.801C-13.624,-3.774 -14.459,-3.774 -15.513,-4.713C-16.742,-5.808 -18.108,-6.567 -19.823,-6.509C-20.337,-7.586 -20.426,-8.624 -20.043,-9.749C-19.343,-11.807 -18.73,-13.894 -18.06,-15.961C-17.862,-16.574 -17.594,-17.164 -17.354,-17.772M-6.616,-7.259C-8.258,-9.217 -9.864,-11.254 -11.603,-13.172C-13.336,-15.085 -15.202,-16.878 -17.074,-18.789C-16.544,-20.839 -16.002,-22.979 -14.955,-24.965C-13.088,-25.199 -11.295,-24.839 -9.497,-24.695C-9.233,-24.674 -8.837,-24.269 -8.785,-23.99C-8.577,-22.865 -8.47,-21.721 -8.345,-20.581C-8.239,-19.61 -8.196,-18.63 -8.062,-17.663C-7.808,-15.832 -7.488,-14.011 -7.231,-12.18C-6.998,-10.516 -6.812,-8.845 -6.616,-7.259M10.392,-40.081C10.37,-40.023 10.35,-39.964 10.329,-39.906C9.749,-40.089 9.17,-40.277 8.587,-40.453C8.078,-40.606 7.568,-40.757 7.053,-40.887C5.623,-41.246 4.187,-41.577 2.761,-41.95C0.675,-42.495 -1.423,-42.739 -3.58,-42.462C-5.966,-42.155 -8.225,-41.436 -10.444,-40.549C-12.328,-39.796 -14.298,-39.273 -16.309,-39.206C-18.597,-39.128 -20.894,-39.324 -23.118,-40.015C-25.001,-40.6 -26.878,-41.253 -28.805,-41.636C-31.173,-42.107 -33.611,-42.233 -35.871,-43.202C-36.058,-43.282 -36.265,-43.316 -36.464,-43.371C-37.763,-43.729 -39.063,-44.087 -40.499,-44.483C-39.48,-44.605 -38.626,-44.739 -37.766,-44.805C-33.976,-45.093 -30.45,-43.915 -26.955,-42.714C-24.148,-41.749 -21.346,-40.811 -18.341,-41.131C-16.476,-41.33 -14.649,-41.769 -12.917,-42.607C-11.301,-43.389 -9.771,-44.333 -7.969,-44.776C-5.896,-45.286 -3.836,-45.484 -1.741,-45.277C-0.139,-45.118 1.387,-44.683 2.759,-43.733C4.518,-42.515 6.39,-41.486 8.445,-40.825C9.105,-40.612 9.743,-40.331 10.392,-40.081M-4.127,22.102C-7.726,22.845 -10.94,22.357 -13.696,19.973C-14.25,20.533 -13.902,20.981 -13.74,21.412C-13.12,23.064 -12.477,24.707 -11.858,26.36C-11.773,26.589 -11.779,26.854 -11.724,27.242C-12.25,26.974 -12.627,26.812 -12.974,26.601C-14.45,25.706 -15.936,24.822 -17.378,23.873C-17.766,23.618 -18.187,23.189 -18.291,22.766C-18.729,20.979 -18.616,19.169 -18.056,17.426C-17.858,16.812 -18.091,16.623 -18.541,16.339C-19.188,17.186 -20.023,17.696 -21.004,17.934C-22.971,18.412 -24.981,18.448 -26.925,18.556C-27.834,17.254 -27.153,15.914 -27.439,14.642C-27.142,14.576 -26.943,14.497 -26.743,14.495C-24.773,14.475 -22.803,14.464 -20.833,14.46C-19.894,14.459 -18.955,14.498 -18.017,14.475C-17.805,14.469 -17.547,14.323 -17.409,14.159C-17.335,14.071 -17.419,13.764 -17.525,13.628C-18.154,12.823 -18.179,12.756 -17.949,11.624C-16.944,13.723 -15.945,15.811 -14.904,17.988C-15.357,17.942 -15.728,17.835 -16.069,17.893C-16.3,17.932 -16.491,18.203 -16.7,18.37C-16.537,18.569 -16.404,18.814 -16.2,18.951C-16.049,19.053 -15.804,19.033 -15.601,19.034C-13.5,19.042 -11.381,19.22 -9.306,18.993C-7.555,18.801 -6.405,19.441 -5.386,20.682C-4.999,21.152 -4.578,21.594 -4.127,22.102M24.857,14.739C24.818,14.984 24.792,15.222 24.74,15.454C24.184,17.982 23.516,20.492 23.73,23.127C23.765,23.553 23.598,23.995 23.519,24.464C23.029,24.551 22.631,24.675 22.23,24.682C20.253,24.717 18.274,24.684 16.299,24.753C15.5,24.781 15.147,24.438 14.813,23.771C14.241,22.635 13.63,21.5 12.879,20.481C11.758,18.96 10.491,17.549 9.309,16.074C8.986,15.671 8.742,15.207 8.441,14.739L24.857,14.739ZM-51.704,-24.721C-49.199,-24.84 -46.822,-24.951 -44.446,-25.067C-44.077,-25.085 -43.709,-25.123 -43.341,-25.161C-40.767,-25.423 -38.199,-25.784 -35.618,-25.928C-31.181,-26.177 -26.738,-26.393 -22.295,-26.435C-17.191,-26.483 -12.086,-26.343 -6.981,-26.256C-3.149,-26.191 0.682,-26.026 4.513,-26.003C9.996,-25.971 15.48,-26.075 20.964,-26.028C23.843,-26.004 26.725,-25.849 29.596,-25.628C31.688,-25.467 33.762,-25.128 35.875,-25.286C36.638,-25.342 37.412,-25.231 38.167,-25.198C38.488,-24.128 38.845,-23.185 38.695,-22.053C36.9,-22.306 35.198,-22.551 33.495,-22.783C32.641,-22.899 31.785,-23.01 30.927,-23.092C29,-23.276 27.071,-23.438 25.145,-23.614C22.769,-23.831 20.396,-24.127 18.017,-24.254C13.903,-24.474 9.784,-24.58 5.669,-24.75C2.09,-24.898 -1.489,-25.045 -5.066,-25.239C-7.574,-25.374 -10.076,-25.683 -12.584,-25.741C-15.713,-25.814 -18.845,-25.706 -21.975,-25.685C-23.292,-25.677 -24.612,-25.752 -25.926,-25.687C-29.537,-25.506 -33.145,-25.241 -36.756,-25.073C-38.076,-25.011 -39.365,-24.833 -40.662,-24.602C-42.521,-24.27 -44.397,-24.032 -46.271,-23.786C-47.452,-23.632 -48.639,-23.527 -49.825,-23.419C-50.426,-23.365 -51.031,-23.353 -51.704,-23.318L-51.704,-24.721ZM20.014,-39.822C19.294,-39.822 18.597,-39.911 17.931,-39.805C16.188,-39.527 14.424,-39.648 12.793,-40.102C9.95,-40.891 7.189,-41.979 4.62,-43.492C3.49,-44.157 2.355,-44.873 1.132,-45.305C-1.391,-46.195 -4.01,-46.396 -6.648,-45.815C-8.286,-45.454 -9.932,-45.166 -11.429,-44.289C-12.555,-43.63 -13.783,-43.11 -15.018,-42.678C-17.55,-41.793 -20.151,-41.614 -23.03,-42.318C-22.465,-42.415 -22.124,-42.521 -21.782,-42.524C-19.441,-42.545 -17.238,-43.09 -15.159,-44.169C-13.812,-44.868 -12.493,-45.667 -11.074,-46.173C-8.757,-46.998 -6.372,-47.638 -4.006,-48.323C-2.184,-48.851 -0.354,-48.561 1.498,-48.403C3.424,-48.239 5.122,-47.627 6.587,-46.449C7.791,-45.479 9.154,-44.946 10.618,-44.719C12.85,-44.374 15.037,-44.49 16.973,-45.913C17.664,-46.421 18.4,-46.894 19.173,-47.264C20.829,-48.057 22.551,-48.154 24.298,-47.53C25.091,-47.247 25.548,-46.629 25.545,-45.857C25.542,-45.117 25.408,-44.306 25.079,-43.653C24.412,-42.331 23.282,-41.418 21.907,-40.858C20.755,-40.389 19.572,-40.737 19.101,-41.668C18.634,-42.589 19.03,-43.447 19.864,-44.315C20.267,-44.733 20.92,-44.761 21.458,-44.462C21.796,-44.275 22.085,-44.035 22,-43.589C21.907,-43.105 21.493,-43.296 21.202,-43.223C21.14,-43.207 21.098,-43.11 20.979,-42.972C21.088,-42.817 21.175,-42.561 21.347,-42.472C21.81,-42.231 22.228,-42.451 22.591,-42.746C22.973,-43.055 23.139,-43.462 23.012,-43.955C22.755,-44.949 20.75,-45.874 19.807,-45.436C18.737,-44.94 17.903,-43.014 18.179,-41.856C18.427,-40.815 19.244,-40.343 20.014,-39.822M-12.752,21.83C-11.876,22.165 -11.244,22.482 -10.575,22.644C-9.544,22.892 -8.486,23.186 -7.441,23.183C-5.89,23.179 -4.329,22.997 -2.789,22.776C-0.062,22.385 2.626,21.841 5.13,20.596C5.789,20.268 6.485,19.877 7.388,19.881C6.88,21.98 6.266,23.943 5.958,25.952C5.644,28.01 5.394,30.11 5.922,32.341C5.441,32.369 5.046,32.414 4.651,32.412C2.842,32.406 1.031,32.365 -0.778,32.383C-1.512,32.391 -2.311,32.731 -2.961,32.532C-3.662,32.319 -4.224,31.65 -4.85,31.184C-4.947,31.111 -5.062,31.059 -5.17,30.999C-6.677,30.149 -8.165,29.266 -9.697,28.467C-10.372,28.115 -10.776,27.649 -11.013,26.939C-11.416,25.731 -11.891,24.546 -12.318,23.345C-12.467,22.928 -12.564,22.492 -12.752,21.83M-18.483,28.657C-18.66,28.741 -18.802,28.862 -18.951,28.873C-20.423,28.971 -21.909,29.212 -23.367,29.103C-26.336,28.88 -29.289,29.006 -32.25,29.134C-33.946,29.208 -34.131,29.206 -34.684,27.553C-35.558,24.941 -36.444,22.334 -37.315,19.721C-37.425,19.392 -37.473,19.043 -37.571,18.611C-36.593,18.611 -35.733,18.555 -34.883,18.623C-33.329,18.748 -31.778,18.929 -30.23,19.117C-27.641,19.432 -25.061,19.392 -22.491,18.944C-21.388,18.753 -20.289,18.543 -19.214,18.347C-19.193,21.775 -19.255,25.185 -18.483,28.657M25.742,-9.831C25.231,-10.706 24.953,-11.493 24.423,-12.029C23.012,-13.457 23.077,-14.974 23.882,-16.618C23.898,-16.652 23.937,-16.676 23.955,-16.696C24.046,-16.696 24.131,-16.714 24.204,-16.693C26.908,-15.94 29.437,-14.782 31.918,-13.483C33.313,-12.752 34.418,-11.8 35.229,-10.453C36.404,-8.5 37.207,-6.397 37.968,-4.26C39.011,-1.327 38.608,1.488 37.479,4.268C36.754,6.055 35.142,7.107 33.885,8.452C33.613,8.743 33.293,8.674 32.993,8.453C31.6,7.427 30.187,6.426 28.827,5.358C28.544,5.135 28.337,4.676 28.304,4.308C28.249,3.705 28.381,3.086 28.409,2.474C28.482,0.877 28.735,-0.716 28.139,-2.296C27.933,-2.841 27.896,-3.551 28.051,-4.112C28.462,-5.615 28.976,-7.095 29.531,-8.553C29.972,-9.708 29.855,-10.011 28.638,-10.144C28.315,-10.18 27.98,-10.138 27.655,-10.099C27.016,-10.021 26.378,-9.921 25.742,-9.831M-21.443,-19.177C-22.172,-14.808 -21.918,-10.489 -20.568,-6.203C-20.822,-6.15 -20.976,-6.096 -21.131,-6.09C-24.301,-5.976 -27.47,-5.863 -30.639,-5.765C-30.874,-5.757 -31.145,-5.807 -31.342,-5.925C-32.787,-6.792 -34.269,-7.61 -35.641,-8.583C-38.693,-10.747 -41.69,-12.991 -44.707,-15.205C-45.464,-15.76 -46.212,-16.327 -47.094,-16.984C-45.607,-16.914 -44.299,-16.955 -43.024,-16.769C-40.466,-16.394 -37.934,-16.686 -35.397,-16.905C-34.338,-16.996 -33.289,-17.209 -32.238,-17.384C-30.415,-17.687 -28.595,-18.01 -26.772,-18.313C-25.043,-18.601 -23.313,-18.874 -21.443,-19.177M34.442,-26.099C33.677,-26.099 33.102,-26.065 32.532,-26.104C29.616,-26.304 26.705,-26.615 23.786,-26.708C20.62,-26.81 17.447,-26.726 14.278,-26.697C12.962,-26.685 11.646,-26.55 10.331,-26.569C7.576,-26.607 4.823,-26.725 2.068,-26.783C-0.104,-26.829 -2.277,-26.814 -4.449,-26.863C-7.613,-26.934 -10.775,-27.058 -13.939,-27.121C-16.528,-27.172 -19.12,-27.228 -21.708,-27.172C-25.285,-27.096 -28.861,-26.935 -32.436,-26.772C-34.366,-26.685 -36.293,-26.516 -38.222,-26.383C-41.092,-26.185 -43.962,-25.987 -46.833,-25.787C-47.284,-25.755 -47.733,-25.697 -48.185,-25.673C-49.326,-25.614 -50.468,-25.567 -51.719,-25.51C-51.69,-25.995 -51.67,-26.332 -51.653,-26.618C-48.949,-26.769 -46.352,-26.914 -43.754,-27.058C-43.752,-27.144 -43.75,-27.229 -43.748,-27.315C-46.384,-27.416 -49.02,-27.518 -51.725,-27.622C-51.701,-28.04 -51.684,-28.342 -51.667,-28.633C-50.881,-28.734 -50.192,-28.866 -49.498,-28.905C-44.942,-29.164 -40.387,-29.467 -35.828,-29.63C-31.801,-29.774 -27.769,-29.757 -23.739,-29.807C-21.804,-29.831 -19.869,-29.862 -17.934,-29.863C-15.51,-29.863 -13.085,-29.836 -10.66,-29.819C-7.624,-29.798 -4.588,-29.805 -1.554,-29.742C1.657,-29.676 4.867,-29.54 8.077,-29.436C8.324,-29.428 8.575,-29.456 8.818,-29.423C12.188,-28.962 15.601,-29.094 18.978,-28.705C20.155,-28.568 21.351,-28.604 22.536,-28.528C25.248,-28.352 27.96,-28.184 30.667,-27.95C31.803,-27.852 32.925,-27.595 34.049,-27.411C34.183,-26.966 34.286,-26.621 34.442,-26.099M-29.119,18.452C-29.292,18.473 -29.487,18.535 -29.673,18.516C-31.392,18.332 -33.109,18.133 -34.827,17.941C-35.111,17.91 -35.399,17.859 -35.682,17.875C-36.556,17.923 -37.399,17.905 -38.141,17.325C-38.307,17.195 -38.644,17.096 -38.802,17.177C-39.391,17.481 -39.743,17.092 -40.111,16.797C-40.688,16.335 -41.189,15.769 -41.794,15.352C-46.799,11.907 -51.238,7.772 -55.868,3.87C-58.326,1.799 -60.689,-0.384 -63.155,-2.445C-65.493,-4.398 -67.909,-6.257 -70.291,-8.157C-71.995,-9.517 -73.7,-10.876 -75.497,-12.309C-74.312,-12.917 -73.197,-13.449 -72.124,-14.052C-71.285,-14.524 -70.57,-14.43 -69.886,-13.794C-69.735,-13.653 -69.573,-13.526 -69.414,-13.394C-65.585,-10.213 -61.802,-6.975 -57.916,-3.865C-52.737,0.277 -47.478,4.318 -42.26,8.411C-42.053,8.573 -41.868,8.805 -41.761,9.044C-41.325,10.016 -40.918,11.002 -40.513,11.988C-40.32,12.458 -40.156,12.939 -39.966,13.447C-40.245,13.528 -40.36,13.56 -40.475,13.594C-40.798,13.692 -41.181,13.808 -41.096,14.221C-41,14.692 -40.586,14.661 -40.195,14.608C-39.75,14.548 -39.301,14.482 -38.854,14.488C-37.498,14.506 -36.141,14.547 -34.786,14.606C-34.379,14.624 -33.883,14.602 -33.586,14.817C-32.06,15.926 -30.584,17.105 -29.094,18.264C-29.078,18.276 -29.103,18.342 -29.119,18.452M14.361,-29.843C14.013,-29.81 13.734,-29.758 13.456,-29.762C11.687,-29.79 11.491,-29.953 11.42,-31.693C11.391,-32.391 11.163,-32.972 10.511,-33.151C9.566,-33.41 8.584,-33.585 7.607,-33.655C6.824,-33.711 6.427,-33.241 6.362,-32.452C6.307,-31.763 6.269,-31.072 6.215,-30.266C5.575,-30.266 4.966,-30.247 4.357,-30.272C3.826,-30.293 3.528,-30.603 3.499,-31.136C3.475,-31.589 3.542,-32.058 3.445,-32.491C3.386,-32.759 3.118,-33.157 2.904,-33.185C1.764,-33.331 0.611,-33.441 -0.537,-33.437C-1.311,-33.435 -1.518,-33.109 -1.528,-32.32C-1.535,-31.757 -1.529,-31.194 -1.529,-30.585L-4.881,-30.585C-5.008,-31.319 -5.129,-31.993 -5.24,-32.668C-5.39,-33.582 -5.656,-33.818 -6.601,-33.924C-7.089,-33.978 -7.571,-34.087 -8.058,-34.165C-9.46,-34.388 -10.578,-33.507 -10.663,-32.094C-10.691,-31.616 -10.667,-31.134 -10.667,-30.636L-13.424,-30.636C-13.457,-31.27 -13.525,-31.826 -13.504,-32.379C-13.483,-32.884 -13.695,-33.139 -14.158,-33.246C-15.382,-33.527 -16.602,-33.476 -17.833,-33.259C-18.393,-33.16 -18.614,-32.883 -18.605,-32.346C-18.596,-31.782 -18.603,-31.218 -18.603,-30.588L-21.952,-30.588C-22.074,-31.134 -22.248,-31.636 -22.289,-32.148C-22.43,-33.938 -22.852,-34.277 -24.636,-33.931C-24.838,-33.891 -25.036,-33.83 -25.233,-33.771C-26.201,-33.48 -26.476,-33.095 -26.465,-32.065C-26.46,-31.592 -26.464,-31.119 -26.464,-30.597C-26.913,-30.573 -27.238,-30.536 -27.562,-30.543C-27.883,-30.55 -28.203,-30.602 -28.638,-30.645C-28.711,-31.269 -28.82,-31.868 -28.84,-32.471C-28.856,-32.967 -28.947,-33.447 -29.444,-33.567C-30.314,-33.777 -31.255,-34.104 -32.088,-33.954C-33.49,-33.699 -33.977,-33.181 -33.748,-31.754C-33.691,-31.396 -33.692,-31.03 -33.657,-30.55C-34.656,-30.488 -35.57,-30.431 -36.535,-30.371C-36.58,-30.826 -36.619,-31.147 -36.642,-31.47C-36.726,-32.637 -37.366,-33.224 -38.548,-33.186C-38.833,-33.177 -39.12,-33.13 -39.4,-33.073C-40.791,-32.79 -40.958,-32.575 -41.001,-31.202C-41.013,-30.82 -41.112,-30.441 -41.163,-30.11C-44.644,-29.949 -47.968,-29.795 -51.409,-29.636C-50.225,-30.705 -49.144,-31.705 -48.028,-32.665C-47.835,-32.832 -47.497,-32.898 -47.227,-32.896C-45.417,-32.879 -43.649,-33.048 -41.849,-33.373C-39.032,-33.882 -36.149,-34.067 -33.287,-34.279C-30.543,-34.483 -27.787,-34.512 -25.04,-34.684C-22.825,-34.823 -20.62,-35.104 -18.405,-35.243C-16.602,-35.356 -14.792,-35.379 -12.984,-35.396C-9.152,-35.431 -5.319,-35.468 -1.487,-35.441C0.776,-35.425 3.038,-35.239 5.303,-35.214C9.919,-35.163 14.537,-35.219 19.152,-35.133C21.494,-35.09 23.83,-34.828 26.17,-34.679C27.93,-34.566 29.691,-34.477 31.475,-34.375C32.359,-32.425 33.161,-30.52 33.576,-28.421C31.959,-28.549 30.409,-28.672 28.86,-28.794C28.778,-28.801 28.667,-28.767 28.618,-28.808C28.388,-29.003 28.06,-29.181 27.979,-29.433C27.792,-30.013 27.703,-30.63 27.62,-31.238C27.486,-32.229 27.413,-32.384 26.49,-32.565C25.849,-32.691 25.184,-32.748 24.53,-32.747C23.446,-32.744 23.061,-32.363 23.012,-31.248C22.984,-30.614 23.069,-29.975 23.11,-29.206C21.74,-29.357 20.452,-29.5 19.068,-29.653C19.068,-30.217 19.073,-30.664 19.067,-31.11C19.049,-32.335 18.637,-32.96 17.437,-33.245C16.826,-33.389 16.129,-33.385 15.514,-33.25C14.434,-33.013 14.275,-32.737 14.268,-31.6C14.263,-31.035 14.325,-30.469 14.361,-29.843M-40.326,-1.412C-40.061,-1.433 -39.934,-1.473 -39.82,-1.448C-37.357,-0.908 -34.858,-0.769 -32.346,-0.731C-30.693,-0.706 -29.062,-0.736 -27.483,-1.331C-26.954,-1.53 -26.376,-1.62 -25.813,-1.712C-23.874,-2.029 -21.93,-2.326 -19.868,-2.649C-19.792,-2.058 -19.689,-1.459 -19.647,-0.855C-19.608,-0.285 -19.655,0.292 -19.626,0.864C-19.546,2.509 -19.418,4.151 -19.361,5.797C-19.274,8.289 -19.414,10.797 -18.597,13.398C-19.246,13.398 -19.771,13.41 -20.295,13.397C-23.991,13.302 -27.686,13.163 -31.382,13.132C-32.433,13.123 -33.016,12.758 -33.483,11.838C-35.718,7.439 -38.006,3.067 -40.326,-1.412M-35.21,27.725C-35.287,27.769 -35.364,27.812 -35.441,27.856C-50.925,15.6 -66.025,2.878 -81.318,-9.865C-79.501,-10.607 -77.802,-11.3 -76.041,-12.019C-74.381,-10.716 -72.728,-9.425 -71.083,-8.123C-68.533,-6.104 -65.954,-4.122 -63.455,-2.042C-61.178,-0.148 -59.004,1.87 -56.763,3.808C-55.082,5.261 -53.381,6.695 -51.661,8.103C-47.554,11.464 -43.433,14.809 -39.31,18.151C-38.695,18.649 -38.18,19.157 -37.915,19.962C-37.058,22.565 -36.118,25.14 -35.21,27.725M-35.582,-36.211L-35.609,-36.518C-38.78,-36.254 -41.951,-35.99 -45.188,-35.72C-45.112,-36.239 -45.054,-36.631 -44.994,-37.042C-41.389,-37.532 -37.784,-37.469 -34.244,-38.016C-34.25,-38.11 -34.256,-38.205 -34.262,-38.299C-37.739,-38.151 -41.215,-38.002 -44.692,-37.854C-44.725,-37.93 -44.758,-38.006 -44.791,-38.082C-44.553,-38.257 -44.337,-38.53 -44.075,-38.586C-43.393,-38.732 -42.694,-38.831 -41.998,-38.865C-38.542,-39.037 -35.086,-39.18 -31.631,-39.339C-31.464,-39.347 -31.301,-39.416 -31.136,-39.457C-34.307,-40.131 -37.494,-39.399 -40.684,-39.817C-40.205,-40.151 -39.706,-40.406 -39.187,-40.606C-37.509,-41.249 -35.771,-41.409 -33.978,-41.379C-30.946,-41.329 -28.004,-40.89 -25.156,-39.827C-24.391,-39.541 -23.606,-39.269 -22.807,-39.122C-21.275,-38.839 -19.73,-38.604 -18.182,-38.433C-15.682,-38.156 -13.257,-38.644 -10.929,-39.486C-8.799,-40.256 -6.681,-41.042 -4.456,-41.488C-3.127,-41.754 -1.786,-41.836 -0.427,-41.689C2.203,-41.406 4.705,-40.55 7.276,-40.004C9.276,-39.578 11.159,-38.742 13.238,-38.524C16.66,-38.165 19.939,-38.731 23.207,-39.591C24.118,-39.83 25.021,-40.108 25.937,-40.324C26.67,-40.497 27.333,-40.306 27.819,-39.709C28.572,-38.785 29.35,-37.875 30.015,-36.89C30.33,-36.422 30.901,-36.032 30.867,-35.337C28.945,-35.402 27.1,-35.446 25.256,-35.531C22.748,-35.646 20.242,-35.853 17.733,-35.911C14.807,-35.978 11.876,-35.89 8.948,-35.934C5.489,-35.986 2.031,-36.19 -1.427,-36.182C-7.61,-36.166 -13.795,-36.073 -19.977,-35.942C-21.74,-35.905 -23.494,-35.581 -25.258,-35.472C-27.478,-35.334 -29.705,-35.316 -31.925,-35.182C-33.733,-35.073 -35.538,-34.893 -37.339,-34.701C-39.338,-34.488 -41.339,-34.268 -43.327,-33.969C-44.458,-33.799 -45.57,-33.601 -46.78,-33.796C-46.411,-34.579 -45.917,-35.048 -45.094,-35.126C-43.294,-35.298 -41.493,-35.469 -39.696,-35.672C-38.322,-35.827 -36.953,-36.03 -35.582,-36.211M-50.879,-16.973C-47.538,-11.666 -44.173,-6.637 -41.14,-1.414C-38.117,3.792 -35.427,9.19 -32.466,14.737C-44.971,6.099 -56.468,-3.411 -67.948,-12.994C-67.848,-13.04 -67.811,-13.074 -67.774,-13.072C-67.652,-13.065 -67.529,-13.055 -67.409,-13.03C-64.861,-12.508 -62.332,-12.215 -59.716,-12.742C-57.581,-13.172 -55.452,-13.455 -53.48,-14.52C-52.433,-15.086 -51.514,-15.668 -50.879,-16.973M7.763,9.932C7.725,9.526 7.68,9.325 7.691,9.127C7.87,6.213 7.902,3.282 8.727,0.444C8.956,-0.348 8.739,-0.612 7.921,-0.606C7.799,-0.605 7.677,-0.564 7.554,-0.56C6.006,-0.498 4.458,-0.44 2.818,-0.377C2.748,-1.163 2.686,-1.868 2.611,-2.7C4.884,-2.656 7.099,-2.887 9.304,-2.507C10.258,-2.343 10.616,-2.536 11.027,-3.603C10.69,-3.804 10.306,-3.967 10.01,-4.229C9.707,-4.498 9.515,-4.887 9.233,-5.185C7.354,-7.176 4.844,-7.674 2.363,-6.565C2.182,-6.484 2,-6.402 1.783,-6.305C1.377,-6.974 1.451,-7.66 1.626,-8.346C1.842,-9.194 1.913,-9.255 2.8,-9.221C5.345,-9.122 7.89,-9.001 10.435,-8.901C11.582,-8.855 12.73,-8.846 13.879,-8.805C14.366,-8.788 14.855,-8.686 15.34,-8.707C16.427,-8.755 17.51,-8.893 18.597,-8.925C21.259,-9.006 23.922,-9.051 26.585,-9.103C27.294,-9.117 28.003,-9.105 28.759,-9.105C28.619,-8.789 28.479,-8.575 28.429,-8.342C27.74,-5.217 26.593,-2.2 26.302,1.02C26.071,3.555 25.679,6.077 26.012,8.632C26.046,8.9 26.016,9.176 26.016,9.506C25.711,9.529 25.472,9.565 25.232,9.563C23.507,9.548 21.779,9.468 20.056,9.521C16.974,9.616 13.895,9.801 10.813,9.925C9.837,9.965 8.857,9.932 7.763,9.932M7.839,0.493C7.024,6.197 6.508,11.806 7.575,17.454C5.352,17.568 3.183,17.727 1.012,17.778C-1.458,17.835 -3.932,17.766 -6.401,17.818C-7.169,17.834 -7.703,17.591 -8.258,17.08C-10.741,14.792 -13.323,12.636 -16.463,11.258C-17.003,11.022 -17.574,10.694 -17.77,10.026C-18.15,8.728 -18.59,7.45 -18.574,6.063C-18.561,4.961 -18.616,3.856 -18.712,2.759C-18.812,1.618 -18.787,1.51 -17.668,1.513C-13.729,1.522 -9.813,1.273 -5.896,0.801C-3.502,0.513 -1.064,0.553 1.355,0.502C3.487,0.458 5.621,0.493 7.839,0.493M-33.963,-6.671C-33.571,-6.733 -33.331,-6.561 -33.219,-6.189L-32.611,-5.942C-32.642,-5.879 -32.673,-5.816 -32.704,-5.753C-32.868,-5.908 -33.031,-6.062 -33.195,-6.217C-33.441,-6.379 -33.687,-6.541 -33.933,-6.704C-34.115,-6.805 -34.297,-6.906 -34.479,-7.007C-34.443,-7.055 -34.407,-7.102 -34.372,-7.149C-34.236,-6.99 -34.1,-6.831 -33.963,-6.671M28.742,10.553C28.647,9.394 28.647,9.394 26.893,9.328C26.603,7.952 26.294,6.568 26.701,5.021C27.706,5.822 28.64,6.589 29.597,7.326C30.576,8.081 31.551,8.847 32.577,9.533C33.565,10.193 34.235,11.321 35.51,11.684C35.567,10.823 35.567,10.823 34.228,9.465C34.825,8.814 35.36,8.074 36.044,7.518C37.646,6.215 38.301,4.419 38.838,2.544C39.007,1.955 39.135,1.348 39.218,0.74C39.3,0.135 39.408,-0.497 39.321,-1.09C38.755,-4.975 37.381,-8.559 35.179,-11.818C35.064,-11.988 34.962,-12.178 34.813,-12.313C33.171,-13.795 32.066,-15.696 30.767,-17.446C30.203,-18.205 29.563,-18.907 28.97,-19.644C28.256,-20.531 27.565,-21.433 27.199,-22.637C30.34,-22.484 33.346,-22.147 36.308,-21.442C36.702,-21.348 37.111,-21.313 37.517,-21.271C37.998,-21.221 38.489,-21.231 38.964,-21.146C39.664,-21.021 39.951,-21.206 39.831,-21.859C39.617,-23.03 39.372,-24.197 39.097,-25.355C38.919,-26.102 38.651,-26.228 37.835,-26.177C37.308,-26.144 36.776,-26.146 36.248,-26.166C35.533,-26.194 35.168,-26.629 34.951,-27.281C34.367,-29.036 33.744,-30.778 33.154,-32.531C32.934,-33.186 32.783,-33.865 32.556,-34.517C32.48,-34.73 32.226,-34.874 32.113,-35.083C31.078,-37.011 29.824,-38.781 28.198,-40.42C30.097,-40.893 31.68,-40.399 33.229,-39.6C34.786,-38.795 36.273,-37.889 37.7,-36.656C37.919,-38.958 37.273,-40.786 35.562,-42.109C34.098,-43.242 32.529,-44.236 30.748,-44.838C29.767,-45.17 28.786,-45.451 27.732,-45.405C27.368,-45.39 27.001,-45.466 26.682,-45.497C26.59,-45.619 26.517,-45.676 26.497,-45.748C25.979,-47.625 25.16,-48.335 23.236,-48.579C21.151,-48.843 19.208,-48.486 17.511,-47.199C15.733,-45.851 13.783,-45.147 11.529,-45.342C10.365,-45.442 9.258,-45.689 8.248,-46.293C7.859,-46.526 7.45,-46.733 7.09,-47.004C4.084,-49.263 0.589,-49.421 -2.939,-49.253C-4.107,-49.198 -5.266,-48.769 -6.411,-48.446C-7.955,-48.012 -9.519,-47.611 -11.004,-47.021C-12.641,-46.37 -14.228,-45.573 -15.783,-44.743C-17.725,-43.708 -19.826,-43.358 -21.961,-43.172C-22.972,-43.083 -24,-43.214 -25.021,-43.216C-26.833,-43.22 -28.461,-43.974 -30.155,-44.453C-32.577,-45.139 -35.018,-45.682 -37.558,-45.551C-38.791,-45.487 -40.033,-45.454 -41.251,-45.274C-42.213,-45.132 -43.219,-44.99 -43.985,-44.254C-44.094,-44.149 -44.27,-44.103 -44.423,-44.058C-45.978,-43.602 -47.41,-42.894 -48.718,-41.94C-49.272,-41.536 -49.896,-41.442 -50.568,-41.364C-52.508,-41.136 -54.29,-41.595 -56.099,-42.249C-57.234,-42.659 -58.514,-42.886 -59.714,-42.838C-61.224,-42.777 -62.552,-42.045 -63.408,-40.71C-63.968,-39.835 -63.823,-37.755 -63.147,-36.941C-61.928,-35.47 -60.346,-34.859 -58.445,-35.087C-58.241,-35.112 -58.037,-35.146 -57.832,-35.166C-56.083,-35.343 -55.901,-35.502 -55.419,-37.228C-55.367,-37.416 -55.236,-37.582 -55.078,-37.878C-52.555,-36.405 -49.8,-35.861 -46.903,-35.599C-47.02,-34.921 -47.392,-34.509 -47.816,-34.132C-49.197,-32.903 -50.561,-31.652 -51.975,-30.462C-52.653,-29.892 -52.829,-29.31 -52.685,-28.415C-52.479,-27.131 -52.52,-25.808 -52.452,-24.446C-53.555,-24.209 -54.507,-24 -55.461,-23.802C-56.276,-23.632 -57.035,-23.364 -57.634,-22.744C-58.051,-22.312 -58.518,-22.139 -59.176,-22.195C-60.691,-22.325 -62.101,-21.797 -63.434,-21.142C-64.915,-20.414 -66.346,-19.582 -67.521,-18.398C-67.903,-18.014 -68.326,-17.892 -68.836,-17.829C-70.056,-17.679 -71.271,-17.582 -72.464,-17.158C-73.733,-16.707 -74.703,-15.976 -75.473,-14.917C-75.764,-14.518 -76.045,-14.112 -76.331,-13.709C-77.352,-13.629 -78.37,-13.546 -79.389,-13.47C-81.281,-13.328 -82.656,-12.227 -83.949,-10.989C-84.394,-10.562 -84.813,-10.104 -85.207,-9.63C-85.444,-9.344 -85.654,-8.953 -85.288,-8.656C-85.149,-8.544 -84.781,-8.656 -84.542,-8.738C-83.727,-9.017 -82.922,-9.328 -82.135,-9.619C-82.102,-9.592 -35.375,28.791 -35.33,28.827C-35.948,28.977 -36.139,29.389 -36.073,30.111C-35.436,30.141 -34.792,30.23 -34.16,30.178C-33.718,30.142 -33.371,30.193 -33.029,30.472C-31.084,32.059 -29.117,33.619 -27.198,35.235C-26.933,35.459 -26.807,35.931 -26.755,36.307C-26.546,37.818 -26.397,39.337 -26.213,40.852C-26.174,41.168 -26.081,41.477 -25.979,41.94C-25.132,41.662 -24.282,41.554 -23.632,41.136C-21.799,39.956 -19.827,39.648 -17.719,39.85C-17.598,39.862 -17.474,39.85 -17.352,39.84C-17.313,39.838 -17.276,39.81 -17.124,39.745C-17.32,39.529 -17.455,39.245 -17.665,39.17C-19.249,38.6 -20.846,38.066 -22.444,37.534C-22.675,37.458 -22.949,37.375 -23.169,37.43C-23.986,37.635 -24.656,37.263 -25.417,36.997C-25.494,35.667 -25.569,34.368 -25.648,32.994C-24.827,32.912 -24.06,32.778 -23.291,32.772C-22.228,32.764 -22.228,32.805 -21.933,31.698C-19.128,32.865 -16.288,33.913 -13.602,35.349C-10.228,37.153 -6.797,38.853 -3.368,40.552C-2.756,40.856 -2.489,41.233 -2.503,41.88C-2.521,42.705 -2.525,43.53 -2.531,44.355C-2.538,45.408 -2.201,45.673 -1.171,45.34C-0.315,45.064 0.507,44.685 1.362,44.405C1.864,44.242 2.396,44.134 2.923,44.092C3.579,44.041 4.245,44.041 4.901,44.094C6.148,44.194 7.121,43.489 8.229,43.04C6.294,42.883 4.761,41.797 3.083,41.078C1.601,40.441 0.819,40.544 -1.39,41.175C-1.78,39.645 -1.864,38.115 -1.499,36.512C-0.286,36.276 0.939,36.393 2.159,36.444C2.558,36.461 3.013,36.711 3.162,36.106C3.271,35.664 2.896,35.403 2.144,35.401C1.072,35.398 0.001,35.42 -1.07,35.424C-1.231,35.425 -1.393,35.387 -1.679,35.351C-1.771,34.864 -1.866,34.366 -1.979,33.769C-0.964,33.682 -0.08,33.555 0.806,33.54C2.403,33.511 4.002,33.546 5.6,33.561C6.399,33.569 7.047,32.531 6.749,31.712C6.194,30.186 6.436,28.655 6.64,26.894C9.289,29.164 11.764,31.301 14.264,33.408C14.648,33.733 14.805,34.073 14.852,34.558C14.97,35.784 15.133,37.006 15.309,38.226C15.352,38.527 15.509,38.812 15.668,39.255C17.107,38.679 18.47,38.236 19.735,37.599C21.266,36.829 22.916,36.826 24.533,36.573C25,36.5 25.467,36.42 26.234,36.294C25.81,36.01 25.67,35.855 25.503,35.815C23.789,35.396 22.062,35.024 20.355,34.581C19.012,34.231 17.754,34.342 16.572,35.11C16.227,33.982 16.277,30.364 16.671,28.495C16.999,28.495 17.358,28.512 17.715,28.49C18,28.472 18.315,28.469 18.554,28.341C18.715,28.254 18.873,27.936 18.833,27.769C18.795,27.607 18.499,27.402 18.316,27.402C17.796,27.403 17.275,27.498 16.637,27.569L16.637,26.034C17.733,25.95 18.823,25.817 19.914,25.797C21.23,25.773 22.55,25.888 23.866,25.857C24.507,25.843 25.157,25.684 25.773,25.491C26.003,25.419 26.145,25.068 26.51,24.618C25.673,24.525 25.135,24.465 24.525,24.398C24.472,22.417 24.265,20.494 24.879,18.604C25.03,18.137 25.138,17.647 25.187,17.16C25.293,16.096 25.672,15.173 26.441,14.459C26.418,13.99 26.152,13.858 25.779,13.864C25.244,13.873 24.708,13.885 24.173,13.903C21.583,13.993 18.993,14.085 16.403,14.175C16.315,13.161 16.237,12.26 16.153,11.298C20.364,10.544 24.558,11.266 28.742,10.553" style="fill:rgb(35,31,32);fill-rule:nonzero;"/>
                </g>
                <g transform="matrix(1.00853,0,0,-1.01261,317.734,150.906)">
                    <path d="M0,-17.307C-2.218,-17.307 -4.352,-17.342 -6.483,-17.298C-8.903,-17.247 -11.341,-17.287 -13.735,-16.999C-17.651,-16.527 -21.567,-16.279 -25.507,-16.287C-26.625,-16.29 -26.651,-16.182 -26.551,-15.041C-26.455,-13.944 -26.399,-12.839 -26.413,-11.738C-26.429,-10.35 -25.989,-9.073 -25.608,-7.774C-25.413,-7.106 -24.842,-6.779 -24.302,-6.542C-21.162,-5.164 -18.58,-3.009 -16.097,-0.72C-15.542,-0.209 -15.008,0.034 -14.24,0.018C-11.771,-0.034 -9.297,0.035 -6.827,-0.022C-4.656,-0.073 -2.487,-0.232 -0.264,-0.347C-1.331,-5.994 -0.814,-11.603 0,-17.307" style="fill:rgb(231,216,189);fill-rule:nonzero;"/>
                </g>
                <g transform="matrix(1.00853,0,0,-1.01261,317.657,178.269)">
                    <path d="M0,19.154C1.095,19.154 2.074,19.187 3.05,19.148C6.132,19.023 9.211,18.838 12.293,18.743C14.017,18.69 15.744,18.771 17.47,18.785C17.709,18.787 17.948,18.752 18.253,18.729C18.253,18.398 18.283,18.122 18.249,17.855C17.916,15.3 18.309,12.777 18.539,10.242C18.83,7.022 19.978,4.005 20.666,0.88C20.717,0.647 20.856,0.433 20.996,0.117C20.24,0.117 19.531,0.105 18.822,0.119C16.159,0.172 13.496,0.217 10.834,0.297C9.747,0.33 8.664,0.467 7.577,0.515C7.093,0.536 6.604,0.434 6.116,0.417C4.968,0.377 3.819,0.367 2.672,0.321C0.127,0.221 -2.418,0.1 -4.963,0.002C-5.85,-0.033 -5.921,0.029 -6.137,0.876C-6.312,1.563 -6.386,2.248 -5.979,2.917C-5.763,2.82 -5.581,2.738 -5.399,2.657C-2.919,1.548 -0.408,2.047 1.471,4.037C1.752,4.335 1.944,4.724 2.247,4.993C2.543,5.256 2.928,5.418 3.265,5.619C2.854,6.686 2.495,6.879 1.541,6.715C-0.664,6.335 -2.879,6.567 -5.151,6.522C-5.077,7.354 -5.015,8.059 -4.944,8.845C-3.305,8.782 -1.757,8.724 -0.209,8.663C-0.086,8.658 0.036,8.617 0.158,8.616C0.977,8.611 1.193,8.874 0.964,9.666C0.14,12.505 0.107,15.436 -0.071,18.35C-0.083,18.548 -0.038,18.749 0,19.154" style="fill:rgb(231,216,189);fill-rule:nonzero;"/>
                </g>
                <g transform="matrix(1.00853,0,0,-1.01261,258.515,154.008)">
                    <path d="M0,-31.71C-0.635,-30.405 -1.554,-29.823 -2.602,-29.257C-4.573,-28.191 -6.702,-27.909 -8.837,-27.479C-11.453,-26.952 -13.982,-27.245 -16.53,-27.767C-16.65,-27.792 -16.773,-27.802 -16.896,-27.809C-16.932,-27.811 -16.969,-27.777 -17.069,-27.731C-5.589,-18.147 5.908,-8.638 18.413,0C15.452,-5.546 12.762,-10.945 9.739,-16.151C6.706,-21.374 3.341,-26.403 0,-31.71" style="fill:rgb(231,216,189);fill-rule:nonzero;"/>
                </g>
                <g transform="matrix(1.00853,0,0,-1.01261,273.943,208.651)">
                    <path d="M0,3.014C-1.371,3.196 -2.74,3.399 -4.114,3.554C-5.912,3.756 -7.712,3.927 -9.513,4.099C-10.336,4.177 -10.83,4.646 -11.199,5.43C-9.988,5.625 -8.876,5.426 -7.746,5.256C-5.758,4.957 -3.757,4.738 -1.757,4.525C0.044,4.333 1.849,4.152 3.656,4.043C5.876,3.909 8.104,3.891 10.324,3.753C12.087,3.644 13.842,3.321 15.604,3.284C21.787,3.153 27.971,3.059 34.155,3.044C37.613,3.035 41.071,3.239 44.53,3.291C47.458,3.335 50.388,3.247 53.315,3.314C55.824,3.372 58.33,3.579 60.837,3.695C62.681,3.78 64.527,3.824 66.449,3.889C66.483,3.194 65.912,2.803 65.596,2.335C64.931,1.35 64.154,0.44 63.401,-0.484C62.915,-1.081 62.251,-1.272 61.518,-1.099C60.602,-0.882 59.7,-0.605 58.789,-0.365C55.521,0.494 52.242,1.06 48.82,0.701C46.741,0.483 44.858,-0.353 42.858,-0.778C40.287,-1.325 37.785,-2.18 35.155,-2.464C33.795,-2.611 32.455,-2.528 31.125,-2.262C28.901,-1.817 26.783,-1.031 24.653,-0.261C22.325,0.581 19.9,1.07 17.399,0.793C15.851,0.621 14.307,0.387 12.775,0.104C11.975,-0.044 11.19,-0.316 10.425,-0.602C7.578,-1.664 4.635,-2.103 1.604,-2.153C-0.189,-2.183 -1.928,-2.024 -3.605,-1.381C-4.125,-1.181 -4.624,-0.926 -5.103,-0.592C-1.913,-0.174 1.275,-0.905 4.446,-0.232C4.281,-0.191 4.117,-0.122 3.951,-0.114C0.496,0.046 -2.961,0.189 -6.416,0.36C-7.112,0.395 -7.812,0.493 -8.493,0.639C-8.756,0.696 -8.972,0.969 -9.209,1.143C-9.176,1.219 -9.143,1.295 -9.11,1.371C-5.634,1.223 -2.157,1.075 1.319,0.927C1.326,1.021 1.332,1.115 1.338,1.21C-2.202,1.756 -5.807,1.694 -9.413,2.183C-9.473,2.595 -9.53,2.986 -9.606,3.505C-6.369,3.236 -3.199,2.972 -0.028,2.708L0,3.014Z" style="fill:rgb(88,76,45);fill-rule:nonzero;"/>
                </g>
                <g transform="matrix(1.00853,0,0,-1.01261,269.158,156.605)">
                    <path d="M0,-13.584C2.32,-9.105 4.608,-4.733 6.843,-0.334C7.31,0.585 7.893,0.951 8.944,0.959C12.641,0.991 16.335,1.13 20.031,1.224C20.555,1.237 21.08,1.226 21.729,1.226C20.913,-1.375 21.052,-3.884 20.965,-6.376C20.908,-8.021 20.78,-9.664 20.7,-11.308C20.671,-11.88 20.718,-12.457 20.679,-13.028C20.637,-13.631 20.534,-14.23 20.458,-14.821C18.396,-14.498 16.453,-14.202 14.513,-13.884C13.95,-13.792 13.373,-13.703 12.843,-13.503C11.264,-12.909 9.633,-12.878 7.98,-12.903C5.468,-12.941 2.969,-13.08 0.506,-13.621C0.393,-13.646 0.265,-13.605 0,-13.584" style="fill:rgb(231,216,189);fill-rule:nonzero;"/>
                </g>
                <g transform="matrix(1.00853,0,0,-1.01261,334.098,198.916)">
                    <path d="M0,-4.665L0.079,-4.442C-0.286,-4.317 -0.651,-4.192 -1.018,-4.067C-1.039,-4.128 -1.061,-4.189 -1.081,-4.25C-0.721,-4.389 -0.36,-4.527 0,-4.665M-9.704,-0.231C-9.74,-0.857 -9.803,-1.422 -9.798,-1.987C-9.79,-3.125 -9.632,-3.4 -8.552,-3.638C-7.937,-3.772 -7.239,-3.777 -6.628,-3.632C-5.429,-3.348 -5.017,-2.723 -4.998,-1.498C-4.992,-1.051 -4.997,-0.604 -4.997,-0.041C-3.613,0.112 -2.325,0.255 -0.955,0.407C-0.996,-0.362 -1.081,-1.001 -1.054,-1.636C-1.005,-2.751 -0.619,-3.132 0.465,-3.134C1.118,-3.135 1.783,-3.079 2.425,-2.953C3.348,-2.771 3.421,-2.617 3.555,-1.626C3.638,-1.018 3.727,-0.401 3.913,0.18C3.994,0.432 4.322,0.609 4.553,0.804C4.602,0.846 4.713,0.812 4.795,0.818C6.344,0.94 7.894,1.063 9.511,1.191C9.096,-0.908 8.294,-2.813 7.409,-4.763C5.626,-4.864 3.864,-4.954 2.104,-5.066C-0.235,-5.216 -2.571,-5.477 -4.913,-5.521C-9.528,-5.606 -14.146,-5.551 -18.763,-5.602C-21.027,-5.626 -23.289,-5.812 -25.553,-5.829C-29.385,-5.856 -33.218,-5.819 -37.05,-5.784C-38.857,-5.767 -40.667,-5.744 -42.471,-5.631C-44.685,-5.492 -46.891,-5.21 -49.105,-5.072C-51.852,-4.899 -54.608,-4.871 -57.353,-4.667C-60.215,-4.455 -63.097,-4.269 -65.915,-3.761C-67.715,-3.436 -69.482,-3.267 -71.292,-3.284C-71.563,-3.286 -71.901,-3.22 -72.094,-3.053C-73.209,-2.093 -74.291,-1.092 -75.475,-0.023C-72.034,-0.183 -68.709,-0.336 -65.228,-0.498C-65.177,-0.829 -65.079,-1.207 -65.067,-1.589C-65.023,-2.963 -64.856,-3.177 -63.466,-3.461C-63.186,-3.518 -62.898,-3.565 -62.613,-3.574C-61.432,-3.612 -60.791,-3.025 -60.707,-1.857C-60.684,-1.535 -60.645,-1.214 -60.6,-0.759C-59.635,-0.819 -58.722,-0.876 -57.723,-0.938C-57.757,-1.418 -57.756,-1.784 -57.813,-2.142C-58.042,-3.568 -57.555,-4.086 -56.154,-4.341C-55.32,-4.492 -54.379,-4.165 -53.51,-3.955C-53.013,-3.835 -52.922,-3.354 -52.905,-2.858C-52.886,-2.256 -52.776,-1.656 -52.703,-1.033C-52.268,-0.989 -51.948,-0.938 -51.627,-0.931C-51.303,-0.923 -50.978,-0.96 -50.53,-0.984C-50.53,-1.507 -50.526,-1.98 -50.531,-2.453C-50.541,-3.483 -50.267,-3.868 -49.298,-4.159C-49.102,-4.218 -48.903,-4.279 -48.702,-4.318C-46.917,-4.665 -46.496,-4.326 -46.354,-2.536C-46.313,-2.023 -46.139,-1.521 -46.018,-0.976L-42.668,-0.976C-42.668,-1.606 -42.662,-2.17 -42.671,-2.733C-42.679,-3.27 -42.458,-3.547 -41.898,-3.646C-40.667,-3.864 -39.447,-3.915 -38.224,-3.633C-37.761,-3.527 -37.549,-3.272 -37.569,-2.767C-37.591,-2.214 -37.522,-1.658 -37.489,-1.023L-34.732,-1.023C-34.732,-1.522 -34.757,-2.003 -34.729,-2.481C-34.644,-3.894 -33.525,-4.776 -32.123,-4.552C-31.637,-4.475 -31.154,-4.366 -30.666,-4.311C-29.722,-4.206 -29.455,-3.97 -29.306,-3.056C-29.194,-2.38 -29.073,-1.707 -28.946,-0.973L-25.595,-0.973C-25.595,-1.582 -25.601,-2.145 -25.594,-2.708C-25.583,-3.497 -25.376,-3.823 -24.603,-3.825C-23.454,-3.829 -22.302,-3.718 -21.161,-3.572C-20.947,-3.544 -20.68,-3.147 -20.62,-2.879C-20.523,-2.445 -20.591,-1.977 -20.566,-1.524C-20.537,-0.991 -20.239,-0.681 -19.708,-0.66C-19.1,-0.635 -18.49,-0.654 -17.851,-0.654C-17.797,-1.459 -17.759,-2.15 -17.703,-2.839C-17.639,-3.629 -17.241,-4.099 -16.458,-4.043C-15.481,-3.973 -14.499,-3.797 -13.555,-3.539C-12.902,-3.359 -12.675,-2.779 -12.646,-2.081C-12.574,-0.341 -12.379,-0.177 -10.609,-0.15C-10.331,-0.145 -10.053,-0.198 -9.704,-0.231" style="fill:rgb(193,89,96);fill-rule:nonzero;"/>
                </g>
                <g transform="matrix(1.00853,0,0,-1.01261,344.564,198.575)">
                    <path d="M0,3.177C-0.156,2.655 -0.26,2.31 -0.394,1.865C-1.518,1.681 -2.64,1.423 -3.775,1.325C-6.482,1.092 -9.194,0.924 -11.906,0.748C-13.092,0.671 -14.287,0.707 -15.465,0.571C-18.842,0.181 -22.254,0.313 -25.624,-0.147C-25.867,-0.18 -26.118,-0.153 -26.365,-0.161C-29.575,-0.265 -32.785,-0.4 -35.996,-0.467C-39.03,-0.53 -42.066,-0.522 -45.103,-0.544C-47.527,-0.561 -49.952,-0.588 -52.376,-0.587C-54.312,-0.587 -56.247,-0.556 -58.182,-0.531C-62.211,-0.481 -66.244,-0.498 -70.27,-0.354C-74.83,-0.191 -79.384,0.112 -83.94,0.37C-84.634,0.41 -85.323,0.542 -86.109,0.643C-86.126,0.933 -86.144,1.236 -86.167,1.654C-83.462,1.758 -80.827,1.859 -78.19,1.96C-78.193,2.046 -78.195,2.132 -78.197,2.218C-80.794,2.362 -83.391,2.507 -86.096,2.657C-86.113,2.943 -86.133,3.281 -86.161,3.765C-84.911,3.709 -83.769,3.662 -82.627,3.602C-82.176,3.579 -81.726,3.521 -81.275,3.489C-78.405,3.288 -75.534,3.091 -72.664,2.893C-70.735,2.76 -68.809,2.591 -66.878,2.503C-63.303,2.34 -59.727,2.18 -56.15,2.103C-53.562,2.048 -50.971,2.103 -48.382,2.155C-45.218,2.218 -42.056,2.342 -38.892,2.413C-36.72,2.462 -34.546,2.447 -32.374,2.492C-29.619,2.551 -26.866,2.668 -24.111,2.707C-22.796,2.725 -21.48,2.591 -20.164,2.579C-16.995,2.55 -13.822,2.466 -10.656,2.567C-7.737,2.66 -4.826,2.972 -1.91,3.171C-1.341,3.21 -0.766,3.177 0,3.177" style="fill:rgb(188,109,97);fill-rule:nonzero;"/>
                </g>
                <g transform="matrix(1.00853,0,0,-1.01261,288.201,174.761)">
                    <path d="M0,-13.419C-1.87,-13.117 -3.6,-12.843 -5.329,-12.556C-7.151,-12.252 -8.971,-11.929 -10.794,-11.626C-11.846,-11.451 -12.895,-11.238 -13.954,-11.147C-16.491,-10.929 -19.022,-10.636 -21.581,-11.011C-22.856,-11.197 -24.164,-11.156 -25.65,-11.227C-24.769,-10.569 -24.021,-10.002 -23.264,-9.447C-20.247,-7.233 -17.25,-4.989 -14.197,-2.825C-12.825,-1.853 -11.343,-1.034 -9.898,-0.167C-9.701,-0.049 -9.43,0 -9.196,-0.007C-6.026,-0.105 -2.857,-0.218 0.312,-0.332C0.467,-0.338 0.621,-0.393 0.875,-0.445C-0.475,-4.731 -0.729,-9.05 0,-13.419" style="fill:rgb(231,216,189);fill-rule:nonzero;"/>
                </g>
                <g transform="matrix(1.00853,0,0,-1.01261,335.79,167.046)">
                    <path d="M0,-11.693C0.636,-11.783 1.273,-11.883 1.913,-11.96C2.238,-11.999 2.573,-12.041 2.896,-12.006C4.113,-11.872 4.229,-11.569 3.789,-10.414C3.233,-8.957 2.72,-7.477 2.309,-5.974C2.154,-5.412 2.19,-4.703 2.396,-4.158C2.993,-2.578 2.74,-0.985 2.667,0.612C2.639,1.225 2.507,1.843 2.562,2.446C2.595,2.815 2.802,3.274 3.085,3.496C4.445,4.564 5.857,5.565 7.251,6.592C7.551,6.812 7.871,6.882 8.143,6.59C9.399,5.245 11.012,4.193 11.737,2.407C12.866,-0.373 13.269,-3.188 12.226,-6.121C11.465,-8.259 10.662,-10.362 9.486,-12.315C8.676,-13.661 7.57,-14.614 6.176,-15.344C3.694,-16.644 1.166,-17.802 -1.538,-18.554C-1.611,-18.575 -1.696,-18.557 -1.787,-18.557C-1.806,-18.538 -1.844,-18.514 -1.86,-18.48C-2.665,-16.835 -2.73,-15.318 -1.319,-13.891C-0.789,-13.354 -0.511,-12.568 0,-11.693" style="fill:rgb(231,216,189);fill-rule:nonzero;"/>
                </g>
                <g transform="matrix(1.00853,0,0,-1.01261,291.187,149.789)">
                    <path d="M0,9.754C-0.772,6.282 -0.709,2.873 -0.731,-0.556C-1.805,-0.36 -2.905,-0.15 -4.007,0.042C-6.578,0.489 -9.157,0.529 -11.747,0.214C-13.295,0.026 -14.846,-0.155 -16.4,-0.28C-17.25,-0.348 -18.11,-0.292 -19.087,-0.292C-18.99,0.14 -18.941,0.489 -18.832,0.818C-17.961,3.431 -17.075,6.039 -16.201,8.65C-15.648,10.303 -15.462,10.305 -13.767,10.232C-10.805,10.103 -7.853,9.978 -4.884,10.2C-3.425,10.31 -1.94,10.068 -0.468,9.97C-0.319,9.96 -0.177,9.838 0,9.754" style="fill:rgb(231,216,189);fill-rule:nonzero;"/>
                </g>
                <g transform="matrix(1.00853,0,0,-1.01261,296.967,137.764)">
                    <path d="M0,-8.949C0.187,-8.286 0.285,-7.851 0.434,-7.433C0.861,-6.233 1.336,-5.048 1.739,-3.839C1.976,-3.129 2.38,-2.663 3.055,-2.312C4.587,-1.513 6.075,-0.629 7.582,0.22C7.689,0.28 7.805,0.332 7.902,0.405C8.528,0.871 9.09,1.54 9.791,1.754C10.441,1.952 11.24,1.612 11.974,1.605C13.783,1.586 15.594,1.627 17.403,1.634C17.798,1.635 18.193,1.591 18.674,1.563C18.146,-0.668 18.396,-2.768 18.71,-4.826C19.018,-6.836 19.632,-8.799 20.14,-10.897C19.237,-10.901 18.541,-10.511 17.882,-10.183C15.378,-8.937 12.689,-8.394 9.963,-8.003C8.423,-7.782 6.862,-7.6 5.311,-7.596C4.266,-7.593 3.208,-7.887 2.177,-8.135C1.508,-8.296 0.876,-8.614 0,-8.949" style="fill:rgb(231,216,189);fill-rule:nonzero;"/>
                </g>
                <g transform="matrix(1.00853,0,0,-1.01261,330.012,218.1)">
                    <path d="M0,8.735C-0.77,8.214 -1.587,7.742 -1.835,6.7C-2.11,5.543 -1.276,3.616 -0.207,3.12C0.736,2.683 2.741,3.608 2.998,4.602C3.125,5.095 2.959,5.502 2.577,5.811C2.214,6.106 1.796,6.326 1.333,6.085C1.161,5.995 1.074,5.74 0.966,5.585C1.084,5.447 1.126,5.349 1.188,5.334C1.479,5.26 1.894,5.451 1.986,4.968C2.071,4.522 1.782,4.282 1.444,4.094C0.906,3.796 0.253,3.824 -0.149,4.242C-0.983,5.11 -1.38,5.968 -0.913,6.888C-0.441,7.82 0.741,8.168 1.894,7.698C3.269,7.138 4.398,6.226 5.065,4.903C5.395,4.251 5.528,3.44 5.531,2.7C5.534,1.927 5.077,1.31 4.284,1.027C2.537,0.403 0.815,0.5 -0.841,1.293C-1.613,1.662 -2.35,2.135 -3.041,2.644C-4.977,4.067 -7.164,4.183 -9.396,3.838C-10.859,3.611 -12.223,3.077 -13.427,2.108C-14.892,0.929 -16.59,0.318 -18.516,0.153C-20.367,-0.004 -22.197,-0.294 -24.02,0.234C-26.386,0.919 -28.771,1.558 -31.088,2.383C-32.507,2.889 -33.825,3.689 -35.173,4.388C-37.252,5.467 -39.455,6.011 -41.795,6.032C-42.137,6.035 -42.479,6.142 -43.044,6.238C-40.165,6.943 -37.563,6.763 -35.031,5.879C-33.797,5.447 -32.568,4.927 -31.442,4.268C-29.945,3.391 -28.3,3.103 -26.662,2.742C-24.023,2.16 -21.404,2.361 -18.882,3.252C-17.658,3.684 -16.523,4.4 -15.394,5.065C-12.824,6.578 -10.063,7.666 -7.221,8.455C-5.59,8.908 -3.825,9.029 -2.083,8.752C-1.417,8.646 -0.72,8.735 0,8.735" style="fill:rgb(184,227,232);fill-rule:nonzero;"/>
                </g>
                <g transform="matrix(1.00853,0,0,-1.01261,257.683,193.046)">
                    <path d="M0,-0.906L0,0.497C0.673,0.462 1.278,0.45 1.879,0.396C3.065,0.288 4.252,0.183 5.433,0.029C7.306,-0.217 9.183,-0.455 11.042,-0.787C12.339,-1.018 13.627,-1.196 14.947,-1.258C18.559,-1.426 22.167,-1.691 25.778,-1.872C27.091,-1.937 28.412,-1.862 29.729,-1.87C32.859,-1.891 35.991,-1.999 39.12,-1.926C41.627,-1.867 44.129,-1.559 46.637,-1.424C50.214,-1.23 53.793,-1.083 57.373,-0.935C61.488,-0.765 65.607,-0.658 69.72,-0.439C72.1,-0.312 74.472,-0.015 76.848,0.201C78.775,0.377 80.704,0.539 82.63,0.723C83.489,0.805 84.344,0.916 85.199,1.032C86.902,1.264 88.604,1.51 90.399,1.762C90.548,0.63 90.192,-0.313 89.871,-1.383C89.116,-1.416 88.341,-1.527 87.579,-1.47C85.465,-1.313 83.392,-1.652 81.299,-1.813C78.428,-2.034 75.546,-2.189 72.667,-2.213C67.184,-2.26 61.7,-2.156 56.216,-2.188C52.385,-2.211 48.554,-2.376 44.722,-2.441C39.618,-2.528 34.512,-2.668 29.408,-2.619C24.966,-2.577 20.522,-2.362 16.086,-2.113C13.505,-1.968 10.937,-1.608 8.362,-1.346C7.995,-1.308 7.626,-1.27 7.257,-1.252C4.881,-1.136 2.504,-1.025 0,-0.906" style="fill:rgb(162,122,89);fill-rule:nonzero;"/>
                </g>
                <g transform="matrix(1.00853,0,0,-1.01261,334.897,143.837)">
                    <path d="M0,-10.042L-16.416,-10.042C-16.115,-9.574 -15.871,-9.109 -15.549,-8.707C-14.366,-7.232 -13.1,-5.82 -11.979,-4.3C-11.228,-3.281 -10.616,-2.146 -10.045,-1.01C-9.71,-0.343 -9.357,0 -8.559,-0.028C-6.583,-0.097 -4.604,-0.064 -2.627,-0.099C-2.227,-0.105 -1.828,-0.23 -1.339,-0.316C-1.26,-0.786 -1.093,-1.228 -1.127,-1.654C-1.342,-4.289 -0.674,-6.799 -0.117,-9.327C-0.065,-9.559 -0.039,-9.797 0,-10.042" style="fill:rgb(231,216,189);fill-rule:nonzero;"/>
                </g>
                <g transform="matrix(1.00853,0,0,-1.01261,320.308,214.024)">
                    <path d="M0,4.45C-0.648,4.2 -1.286,3.919 -1.946,3.707C-4.002,3.046 -5.874,2.016 -7.633,0.799C-9.005,-0.152 -10.53,-0.587 -12.133,-0.745C-14.228,-0.953 -16.287,-0.754 -18.36,-0.245C-20.163,0.198 -21.692,1.143 -23.309,1.925C-25.041,2.763 -26.867,3.201 -28.733,3.4C-31.737,3.721 -34.54,2.782 -37.347,1.817C-40.841,0.616 -44.367,-0.562 -48.158,-0.273C-49.018,-0.208 -49.872,-0.073 -50.89,0.048C-49.454,0.444 -48.155,0.802 -46.855,1.16C-46.657,1.215 -46.45,1.25 -46.262,1.33C-44.003,2.299 -41.565,2.424 -39.197,2.895C-37.27,3.279 -35.393,3.932 -33.509,4.517C-31.285,5.208 -28.989,5.403 -26.7,5.326C-24.689,5.258 -22.72,4.736 -20.836,3.983C-18.616,3.095 -16.357,2.376 -13.972,2.07C-11.814,1.792 -9.717,2.037 -7.631,2.582C-6.205,2.954 -4.769,3.285 -3.339,3.645C-2.823,3.774 -2.313,3.926 -1.805,4.078C-1.222,4.254 -0.643,4.443 -0.062,4.626C-0.042,4.567 -0.021,4.509 0,4.45" style="fill:rgb(14,194,243);fill-rule:nonzero;"/>
                </g>
                <g transform="matrix(1.00853,0,0,-1.01261,263.828,208.847)">
                    <path d="M0,1.081C-0.75,1.081 -1.406,1.044 -2.055,1.089C-3.268,1.172 -4.41,1.027 -5.516,0.456C-7.157,-0.392 -8.817,-1.212 -10.512,-1.943C-11.965,-2.569 -13.528,-2.519 -15.066,-2.317C-16.218,-2.167 -17.152,-0.842 -17.24,0.369C-17.322,1.496 -16.723,2.465 -15.619,3.041C-14.453,3.65 -13.226,3.604 -12.002,3.398C-11.146,3.254 -10.612,2.389 -10.728,1.544C-10.816,0.906 -11.623,0.429 -12.342,0.613C-12.536,0.663 -12.717,0.78 -12.891,0.887C-13.218,1.085 -13.555,1.128 -13.732,0.75C-13.946,0.298 -13.625,0.022 -13.235,-0.041C-12.636,-0.138 -11.997,-0.265 -11.421,-0.149C-10.712,-0.007 -10.021,0.315 -9.375,0.659C-7.403,1.709 -5.393,2.628 -3.128,2.821C-2.762,2.852 -2.395,2.87 -2.027,2.885C-0.56,2.943 -0.559,2.942 -0.117,1.607C-0.08,1.493 -0.064,1.371 0,1.081" style="fill:rgb(162,222,249);fill-rule:nonzero;"/>
                </g>
                <g transform="matrix(1.00853,0,0,-1.01261,263.044,174.118)">
                    <path d="M0,-5.825C0.514,-4.959 0.962,-4.146 1.464,-3.368C2.066,-2.438 2.739,-1.553 3.332,-0.617C3.612,-0.175 3.956,0 4.451,-0.025C6.918,-0.151 9.385,-0.271 11.852,-0.402C12.003,-0.41 12.15,-0.491 12.321,-0.544C10.672,-2.579 3.841,-5.519 0,-5.825" style="fill:rgb(231,216,189);fill-rule:nonzero;"/>
                </g>
                <g transform="matrix(1.00853,0,0,-1.01261,318.154,145.405)">
                    <path d="M0,-5.842C0.992,-5.382 0.992,-5.382 0.871,-4.229C0.613,-4.185 0.339,-4.138 0.163,-4.108C-0.371,-2.274 -0.893,-0.482 -1.459,1.466C1.227,1.826 3.731,2.008 6.302,1.45C4.937,-2.182 1.979,-4.611 -0.313,-7.85C-0.274,-7.327 -0.272,-7.038 -0.227,-6.758C-0.181,-6.476 -0.091,-6.201 0,-5.842" style="fill:rgb(231,216,189);fill-rule:nonzero;"/>
                </g>
                <g transform="matrix(1.00853,0,0,-1.01261,257.82,212.106)">
                    <path d="M0,2.256C1.934,3.497 4.001,3.727 6.183,3.386C7.754,3.141 9.151,2.517 10.553,1.802C12.072,1.028 13.706,0.513 15.429,0.324C11.491,-1.401 7.661,-1.471 4.025,1.057C3.116,1.69 2.188,2.102 1.062,2.054C0.711,2.039 0.354,2.184 0,2.256" style="fill:rgb(95,198,199);fill-rule:nonzero;"/>
                </g>
                <g transform="matrix(1.00853,0,0,-1.01261,333.982,211.309)">
                    <path d="M0,0.908C2.267,0.689 4.299,0.436 6.339,0.329C6.949,0.298 7.604,0.622 8.199,0.875C9.898,1.597 11.553,2.412 13.179,3.869C13.047,3.302 13.021,3.033 12.923,2.794C12.303,1.287 11.163,0.261 9.824,-0.608C8.043,-1.764 6.18,-2.646 4.027,-2.85C2.864,-2.961 2.684,-2.859 2.159,-1.827C1.83,-1.179 1.331,-0.613 0.884,-0.03C0.663,0.258 0.386,0.503 0,0.908" style="fill:rgb(48,165,191);fill-rule:nonzero;"/>
                </g>
                <g transform="matrix(1.00853,0,0,-1.01261,295.657,156.858)">
                    <path d="M0,6.178C1.831,6.08 3.586,5.987 5.497,5.885C2.989,3.421 0.428,1.31 -2.876,0C-2.242,2.228 -1.086,4.094 0,6.178" style="fill:rgb(231,216,189);fill-rule:nonzero;"/>
                </g>
                <g transform="matrix(1.00853,0,0,-1.01261,262.002,177.049)">
                    <path d="M0,-8.423C0.233,-7.513 0.387,-6.889 0.556,-6.27C0.652,-5.913 0.886,-5.555 0.861,-5.212C0.781,-4.117 1.457,-3.796 2.324,-3.6C5.397,-2.904 8.24,-1.646 10.951,-0.066C11.047,-0.009 11.171,0 11.383,-0.123C7.675,-2.827 3.967,-5.53 0,-8.423" style="fill:rgb(231,216,189);fill-rule:nonzero;"/>
                </g>
                <g transform="matrix(1.00853,0,0,-1.01261,307.354,174.525)">
                    <path d="M0,1.747C-1.375,1.131 -2.712,0.397 -4.136,-0.072C-6.096,-0.718 -7.932,-0.442 -9.397,1.212C-9.716,1.572 -10.16,1.82 -10.6,2.16C-9.991,2.465 -9.628,2.12 -9.324,1.769C-8.72,1.071 -7.874,0.853 -7.063,0.573C-6.87,0.506 -6.62,0.607 -6.086,0.665C-7.104,1.21 -7.863,1.617 -8.799,2.118C-5.714,2.054 -2.884,1.995 -0.055,1.936C-0.036,1.873 -0.019,1.81 0,1.747" style="fill:rgb(231,216,189);fill-rule:nonzero;"/>
                </g>
                <g transform="matrix(1.00853,0,0,-1.01261,311.84,174.186)">
                    <path d="M0,0.016C0.993,-0.122 1.854,-0.549 2.97,-0.117C1.854,0.516 0.483,0.307 -0.342,1.444C2.166,1.332 4.577,1.331 7.139,1.018C6.253,-0.315 5,-0.708 3.764,-1.052C2.412,-1.428 1.172,-1.092 0,0.016" style="fill:rgb(231,216,189);fill-rule:nonzero;"/>
                </g>
                <g transform="matrix(1.00853,0,0,-1.01261,241.856,190.787)">
                    <path d="M0,4.463C1.291,3.946 2.363,3.546 3.412,3.089C5.25,2.289 7.075,1.455 8.953,0.613C8.54,0.065 8.007,0 7.487,0.08C4.859,0.485 2.554,1.567 0.642,3.439C0.496,3.582 0.376,3.754 0.259,3.922C0.192,4.019 0.154,4.136 0,4.463" style="fill:rgb(231,216,189);fill-rule:nonzero;"/>
                </g>
                <g transform="matrix(1.00853,0,0,-1.01261,299.424,135.738)">
                    <path d="M0,-3.657C0.424,-2.436 0.849,-1.215 1.271,0L6.382,0C4.425,-1.803 2.239,-2.685 0,-3.657" style="fill:rgb(231,216,189);fill-rule:nonzero;"/>
                </g>
                <g transform="matrix(1.00853,0,0,-1.01261,308.598,127.991)">
                    <path d="M0,4.146C2.3,2.932 4.46,2.656 6.706,2.814C4.542,1.578 2.449,0 -0.26,1.95C-0.196,2.487 -0.118,3.147 0,4.146" style="fill:rgb(241,88,71);fill-rule:nonzero;"/>
                </g>
                <g transform="matrix(1.00853,0,0,-1.01261,286.983,174.078)">
                    <path d="M0,2.041C1.092,1.961 2.159,1.808 2.923,0.915C3.679,1.067 3.533,1.74 3.706,2.13L8.152,2.13C7.205,1.384 6.474,0.776 5.705,0.224C5.456,0.044 5.098,-0.089 4.799,-0.073C3.571,-0.005 2.347,0.129 1.003,0.249C0.659,0.708 0.251,1.254 -0.157,1.799C-0.105,1.88 -0.053,1.96 0,2.041" style="fill:rgb(231,216,189);fill-rule:nonzero;"/>
                </g>
                <g transform="matrix(1.00853,0,0,-1.01261,326.307,133.995)">
                    <path d="M0,3.784C0.928,3.482 1.726,3.408 2.285,3.004C3.655,2.015 5.209,1.785 6.807,1.513C4.852,0.967 2.956,0 0.839,1.108C0.187,1.45 -0.105,1.807 -0.007,2.522C0.036,2.836 0,3.16 0,3.784" style="fill:rgb(241,88,71);fill-rule:nonzero;"/>
                </g>
                <g transform="matrix(1.00853,0,0,-1.01261,299.929,202.889)">
                    <path d="M0,2.894L3.827,2.894C3.794,2.058 4.178,1.023 3.309,0.546C2.505,0.105 1.411,0 0.571,0.546C-0.145,1.011 -0.088,1.887 0,2.894" style="fill:rgb(105,106,108);fill-rule:nonzero;"/>
                </g>
                <g transform="matrix(1.00853,0,0,-1.01261,316.937,202.024)">
                    <path d="M0,2.397C1.275,2.492 2.324,2.571 3.365,2.649C3.444,2.451 3.529,2.339 3.524,2.231C3.499,1.598 3.852,0.771 3.225,0.397C2.593,0.02 1.771,-0.082 1.018,-0.192C0.601,-0.252 0.217,0.02 0.158,0.509C0.087,1.102 0.057,1.699 0,2.397" style="fill:rgb(105,106,108);fill-rule:nonzero;"/>
                </g>
                <g transform="matrix(1.00853,0,0,-1.01261,334.258,198.155)">
                    <path d="M0,-3.058C-0.53,-2.11 -0.403,-1.325 -0.055,-0.481C0.814,0.007 1.809,-0.222 2.887,-0.029C2.773,-0.845 2.671,-1.513 2.589,-2.183C2.517,-2.774 2.174,-3.046 1.604,-3.056C1.073,-3.065 0.542,-3.058 0,-3.058" style="fill:rgb(105,106,108);fill-rule:nonzero;"/>
                </g>
                <g transform="matrix(1.00853,0,0,-1.01261,233.919,186.494)">
                    <path d="M0,3.74C2.526,2.604 4.872,1.55 7.418,0.405C3.788,0 0.651,1.294 0,3.74" style="fill:rgb(231,216,189);fill-rule:nonzero;"/>
                </g>
                <g transform="matrix(-0.821768,-0.587027,0.58466,-0.825094,274.672,157.036)">
                    <path d="M3.463,-5.181C4.072,-3.946 4.13,-2.692 4.188,-1.447C4.212,-0.953 3.976,-0.545 3.463,-0.268C2.829,0.074 2.27,0.554 1.499,0.886C2.154,-1.136 2.809,-3.158 3.463,-5.181" style="fill:rgb(231,216,189);fill-rule:nonzero;"/>
                </g>
                <g transform="matrix(1.00853,0,0,-1.01261,328.281,202.063)">
                    <path d="M0,2.935C-0.037,2.391 -0.093,1.988 -0.087,1.585C-0.078,1.013 -0.218,0.528 -0.781,0.29C-1.469,0 -2.16,0.11 -2.773,0.475C-2.968,0.59 -3.108,0.958 -3.105,1.208C-3.101,1.768 -2.99,2.326 -2.917,2.935L0,2.935Z" style="fill:rgb(105,106,108);fill-rule:nonzero;"/>
                </g>
                <g transform="matrix(0.604213,0.810769,-0.8075,0.606659,280.301,201.647)">
                    <path d="M-1.72,-0.634C-0.967,-0.154 -0.076,0.038 -0.049,0.994C-0.027,1.78 -0.98,2.875 -1.72,2.938C-2.576,3.012 -2.999,2.355 -3.471,1.708L-1.72,-0.634Z" style="fill:rgb(105,106,108);fill-rule:nonzero;"/>
                </g>
                <g transform="matrix(0.497397,-0.880892,0.877341,0.49941,309.159,201.762)">
                    <path d="M1.695,-0.884C2.349,0.107 2.884,0.919 3.467,1.804L1.695,2.808C0.946,1.998 0.298,1.196 -0.117,0.143L1.695,-0.884Z" style="fill:rgb(105,106,108);fill-rule:nonzero;"/>
                </g>
                <g transform="matrix(0.12556,1.00473,-1.00068,0.126068,286.505,131.321)">
                    <path d="M-1.521,-2.61C-1.132,-1.538 -0.752,-0.516 -1.337,0.609C-1.512,0.947 -1.458,1.406 -1.521,1.904L-3.973,1.596C-3.113,0.121 -2.327,-1.227 -1.521,-2.61" style="fill:rgb(241,88,71);fill-rule:nonzero;"/>
                </g>
                <g transform="matrix(-0.451705,-0.905367,0.901717,-0.453533,295.028,202.057)">
                    <path d="M1.729,-2.509C3.329,-1.787 3.437,-1.864 2.585,-0.313C2.319,0.171 2.002,0.628 1.729,1.066C0.232,0.619 -0.159,0.423 0.719,-1.274C0.952,-1.726 1.371,-2.08 1.729,-2.509" style="fill:rgb(105,106,108);fill-rule:nonzero;"/>
                </g>
                <g transform="matrix(1.00853,0,0,-1.01261,286.241,200.094)">
                    <path d="M0,-2.196C-2.022,-2.369 -2.418,-1.921 -2.06,0.173L0.253,0.173C0.386,-0.672 0.21,-1.441 0,-2.196" style="fill:rgb(105,106,108);fill-rule:nonzero;"/>
                </g>
                <g transform="matrix(1.00853,0,0,-1.01261,225.847,182.158)">
                    <path d="M0,2.613C2.087,2.083 4.045,1.217 6.194,0.233C3.578,0 1.486,0.517 0,2.613" style="fill:rgb(231,216,189);fill-rule:nonzero;"/>
                </g>
                <g transform="matrix(1.00853,0,0,-1.01261,271.831,201.567)">
                    <path d="M0,1.875C0.201,0.467 -0.065,0.05 -1.122,-0.026C-2.342,-0.114 -2.503,0.094 -2.576,1.989C-1.703,1.95 -0.841,1.912 0,1.875" style="fill:rgb(105,106,108);fill-rule:nonzero;"/>
                </g>
                <g transform="matrix(1.00853,0,0,-1.01261,251.739,192.871)">
                    <path d="M0,2.332C1.662,1.741 3.236,1.165 4.866,0.231C2.345,0 0.832,0.666 0,2.332" style="fill:rgb(231,216,189);fill-rule:nonzero;"/>
                </g>
                <g transform="matrix(1.00853,0,0,-1.01261,286.863,171.667)">
                    <path d="M0,-2.168C-1.249,-2.214 -1.518,-1.95 -1.973,-0.196C-1.478,-0.03 -1.083,0.046 -0.831,-0.604C-0.629,-1.125 -0.308,-1.599 0,-2.168" style="fill:rgb(231,216,189);fill-rule:nonzero;"/>
                </g>
                <g transform="matrix(1.00602,0.0714166,-0.0711287,1.01009,332.726,183.822)">
                    <path d="M-0.094,-0.007C0.182,0.752 0.43,1.433 0.695,2.162C0.429,2.33 0.202,2.473 -0.094,2.658C-0.232,2.391 -0.395,2.198 -0.431,1.983C-0.535,1.342 -0.986,0.644 -0.094,-0.007" style="fill:rgb(231,216,189);fill-rule:nonzero;"/>
                </g>
                <g transform="matrix(1.00853,0,0,-1.01261,313.725,148.445)">
                    <path d="M0,-1.117C0.06,-0.727 0.112,-0.381 0.171,0C0.977,-0.35 1.724,-0.675 2.741,-1.117L0,-1.117Z" style="fill:rgb(231,216,189);fill-rule:nonzero;"/>
                </g>
                <g transform="matrix(1.00853,0,0,-1.01261,331.326,187.069)">
                    <path d="M0,1.773C0.298,0.382 0.298,0.382 -0.416,0C-0.881,0.952 -0.881,0.952 0,1.773" style="fill:rgb(231,216,189);fill-rule:nonzero;"/>
                </g>
                <g transform="matrix(1.00853,0,0,-1.01261,284.595,171.581)">
                    <path d="M0,-2.19C-0.834,-1.699 -0.93,-0.836 -1.081,0C-0.453,-0.595 -0.253,-1.406 0,-2.19" style="fill:rgb(231,216,189);fill-rule:nonzero;"/>
                </g>
                <g transform="matrix(-0.184534,0.995516,-0.991503,-0.185281,330.029,187.462)">
                    <rect x="-0.532" y="0.188" width="0.684" height="0.255" style="fill:white;"/>
                </g>
                <g transform="matrix(0.611072,-0.80557,0.802323,0.613545,309.778,173.022)">
                    <path d="M0.263,-0.138C0.325,0.063 0.387,0.263 0.45,0.463C0.387,0.478 0.324,0.494 0.263,0.511C0.219,0.307 0.176,0.103 0.132,-0.101L0.263,-0.138Z" style="fill:white;fill-rule:nonzero;"/>
                </g>
                <g transform="matrix(0.589228,0.821812,-0.818499,0.591613,276.397,175.608)">
                    <path d="M-0.37,-0.179C-0.133,0.128 -0.135,0.424 -0.414,0.706L-0.37,0.701C-0.358,0.406 -0.347,0.112 -0.334,-0.183L-0.37,-0.179Z" style="fill:white;fill-rule:nonzero;"/>
                </g>
                <g transform="matrix(0.550327,0.848566,-0.845145,0.552555,275.665,176.002)">
                    <path d="M-0.311,-0.095C-0.252,0.106 -0.193,0.306 -0.133,0.508C-0.193,0.512 -0.252,0.516 -0.311,0.521C-0.295,0.312 -0.282,0.105 -0.267,-0.103L-0.311,-0.095Z" style="fill:white;fill-rule:nonzero;"/>
                </g>
                <g transform="matrix(-0.429654,-0.916123,0.91243,-0.431393,276.963,175.148)">
                    <path d="M0.19,-0.583C0.259,-0.369 0.33,-0.155 0.399,0.059C0.33,0.06 0.26,0.061 0.19,0.062L0.224,-0.594L0.19,-0.583Z" style="fill:white;fill-rule:nonzero;"/>
                </g>
                <g transform="matrix(-0.510822,0.873113,-0.869593,-0.512889,333.077,203.621)">
                    <path d="M-0.497,-0.882C-0.434,-0.502 -0.37,-0.121 -0.307,0.26C-0.37,0.274 -0.434,0.285 -0.497,0.298C-0.575,-0.082 -0.652,-0.46 -0.729,-0.838L-0.497,-0.882Z" style="fill:rgb(35,31,32);fill-rule:nonzero;"/>
                </g>
                <g transform="matrix(1.00853,0,0,-1.01261,273.389,181.625)">
                    <path d="M0,23.011C-8.323,16.798 -16.496,10.385 -24.667,3.973C-26.16,2.802 -27.652,1.63 -29.145,0.459C-26.881,1.697 -24.243,1.631 -21.782,1.132C-20.599,0.892 -19.241,0.143 -18.062,0.077C-16.71,0 -16.613,0.645 -15.836,1.827C-12.719,6.569 -9.415,11.189 -5.939,15.675C-4.201,17.919 -2.28,21.309 0,23.011" style="fill:white;fill-rule:nonzero;"/>
                </g>
                <g transform="matrix(1.00853,0,0,-1.01261,302.343,167.211)">
                    <path d="M0,14.5C2.317,13.804 3.899,11.724 5.318,9.764C5.994,8.83 6.669,7.896 7.345,6.963C8.868,4.859 10.471,2.419 9.964,-0.128C11.117,-0.28 12.271,-0.432 13.425,-0.583C13.306,4.648 13.572,9.889 14.222,15.083" style="fill:white;fill-rule:nonzero;"/>
                </g>
                <g transform="matrix(1.00853,0,0,-1.01261,282.897,146.438)">
                    <path d="M0,4.259C0.718,3.665 1.335,2.961 1.95,2.261C3.428,0.576 4.905,-1.108 6.383,-2.792C6.271,0.256 6.511,3.317 7.1,6.31C3.161,6.581 -0.993,7.051 -4.932,6.78C-4.366,5.647 -1.172,5.231 0,4.259" style="fill:white;fill-rule:nonzero;"/>
                </g>
                <g transform="matrix(1.00853,0,0,-1.01261,284.512,164.621)">
                    <path d="M0,4.102C0.845,3.31 1.514,2.35 2.107,1.355C3.238,-0.539 4.115,-2.584 4.708,-4.709C5.12,-0.439 5.292,3.854 5.221,8.144C2.963,8.263 0.702,8.331 -1.559,8.349C-3.159,8.361 -5.874,8.811 -7.277,8.146C-5.712,6.113 -1.978,5.956 0,4.102" style="fill:white;fill-rule:nonzero;"/>
                </g>
                <g transform="matrix(1.00853,0,0,-1.01261,282.47,182.352)">
                    <path d="M0,3.11C1.025,1.982 2.056,0.845 2.852,-0.455C3.648,-1.755 4.203,-3.243 4.18,-4.766C4.081,-0.774 4.648,3.234 5.85,7.043C5.7,6.567 -1.905,7.876 -2.769,7.625C-4.215,7.205 -3.65,6.873 -2.887,5.991C-2.013,4.982 -0.907,4.109 0,3.11" style="fill:white;fill-rule:nonzero;"/>
                </g>
                <g transform="matrix(0.688234,-0.740184,0.7372,0.69102,304.59,143.197)">
                    <path d="M5.655,-2.255C5.493,-0.891 5.986,0.46 6.068,1.83C6.141,3.085 5.871,4.333 5.655,5.572C5.22,8.079 5.01,10.625 5.027,13.168C6.698,9.689 8.483,6.072 11.575,3.761" style="fill:white;fill-rule:nonzero;"/>
                </g>
                <g transform="matrix(1.00853,0,0,-1.01261,325.441,152.385)">
                    <path d="M0,7.294C1.454,6.529 2.676,5.396 3.879,4.276C5.478,2.788 7.076,1.299 8.675,-0.189C7.633,2.228 7.076,4.852 7.048,7.483" style="fill:white;fill-rule:nonzero;"/>
                </g>
                <g transform="matrix(1.00853,0,0,-1.01261,319.209,177.214)">
                    <path d="M0,16.86C3.954,15.446 7.179,12.518 9.975,9.384C12.771,6.251 15.265,2.83 18.367,0C16.118,5.158 15.103,10.85 15.43,16.468" style="fill:white;fill-rule:nonzero;"/>
                </g>
                <g transform="matrix(0.682043,-0.745939,0.742932,0.684803,335.522,169.726)">
                    <path d="M6.303,-1.487C6.236,4.224 3.309,9.83 -1.338,13.151C1.306,12.647 3.885,11.789 6.303,10.604C7.727,9.907 9.134,9.066 10.096,7.806C11.732,5.666 11.801,2.713 11.351,0.058" style="fill:white;fill-rule:nonzero;"/>
                </g>
                <g transform="matrix(1.00853,0,0,-1.01261,275.002,156.828)">
                    <path d="M0,-12.559C-1.971,-12.938 -3.964,-13.2 -5.965,-13.344C-5.771,-12.513 -5.121,-11.882 -4.616,-11.194C-3.734,-9.995 -3.26,-8.553 -2.713,-7.167C-1.641,-4.452 -0.25,-1.407 1.695,0.785C1.256,-3.75 -0.358,-7.885 0,-12.559" style="fill:rgb(127,131,111);fill-rule:nonzero;"/>
                </g>
                <g transform="matrix(1.00853,0,0,-1.01261,267.493,173.891)">
                    <path d="M0,-11.563C0.05,-11.782 -0.249,-11.898 -0.473,-11.919C-2.1,-12.069 -3.727,-12.22 -5.353,-12.37C-5.575,-8.719 -4.587,-5.005 -2.581,-1.947C-2.038,-1.12 -1.4,-0.32 -0.538,0.165C0.331,0.654 1.572,0.807 2.328,0.11C-0.877,-2.214 -0.822,-7.986 0,-11.563" style="fill:rgb(127,131,111);fill-rule:nonzero;"/>
                </g>
            </g>
        </g>
    </g>
    <defs>
        <linearGradient id="_Linear1" x1="0" y1="0" x2="1" y2="0" gradientUnits="userSpaceOnUse" gradientTransform="matrix(0,1,1,0,0.499999,-0.499999)"><stop offset="0" style="stop-color:rgb(84,160,194);stop-opacity:1"/><stop offset="1" style="stop-color:rgb(134,175,179);stop-opacity:1"/></linearGradient>
    </defs>
</svg>
