<?xml version="1.0" encoding="UTF-8" standalone="no"?>
<!DOCTYPE svg PUBLIC "-//W3C//DTD SVG 1.1//EN" "http://www.w3.org/Graphics/SVG/1.1/DTD/svg11.dtd">
<svg width="100%" height="100%" viewBox="0 0 1047 800" version="1.1" xmlns="http://www.w3.org/2000/svg" xmlns:xlink="http://www.w3.org/1999/xlink" xml:space="preserve" xmlns:serif="http://www.serif.com/" style="fill-rule:evenodd;clip-rule:evenodd;stroke-miterlimit:10;">
    <g transform="matrix(1,0,0,1,-5477.02,-6036.11)">
        <g transform="matrix(5.55556,0,0,5.55556,3631.89,4783.46)">
            <g transform="matrix(1.00853,0,0,-1.01261,356.01,344.536)">
                <path d="M0,93.014C7.957,93.014 14.407,99.464 14.407,107.422L152.83,107.422L152.83,34.578C152.83,7.523 130.898,-14.408 103.844,-14.408L-13.448,-14.408L-13.489,92.896L0,93.014Z" style="fill:rgb(200,187,220);fill-rule:nonzero;stroke:rgb(116,72,157);stroke-width:2.03px;"/>
            </g>
        </g>
        <g transform="matrix(5.55556,0,0,5.55556,3631.89,4783.46)">
            <g transform="matrix(1,0,0,1,-12.6,-5.4)">
                <g transform="matrix(0.995969,0,0,1,1.48866,0)">
                    <text x="369.304px" y="268.985px" style="font-family:'MyriadPro-Semibold', 'Myriad Pro', sans-serif;font-weight:600;font-size:11.139px;fill:rgb(35,31,32);">Más de 30 mil ex<tspan x="448.712px 452.621px 456.486px " y="268.985px 268.985px 268.985px ">tra</tspan>njer<tspan x="481.136px " y="268.985px ">o</tspan>s y</text>
                </g>
                <g transform="matrix(0.995969,0,0,1,1.48866,0)">
                    <text x="369.304px" y="290.254px" style="font-family:'MyriadPro-Semibold', 'Myriad Pro', sans-serif;font-weight:600;font-size:11.139px;fill:rgb(35,31,32);">apr<tspan x="385.343px 391.413px " y="290.254px 290.254px ">ox</tspan>imadament<tspan x="452.352px " y="290.254px ">e</tspan> 3 mil</text>
                </g>
                <g transform="matrix(0.995969,0,0,1,1.48866,0)">
                    <text x="369.304px" y="311.523px" style="font-family:'MyriadPro-Semibold', 'Myriad Pro', sans-serif;font-weight:600;font-size:11.139px;fill:rgb(35,31,32);">mexicanos llegar<tspan x="450.404px " y="311.523px ">o</tspan>n a</text>
                </g>
                <g transform="matrix(0.995969,0,0,1,1.48866,0)">
                    <text x="369.304px" y="332.791px" style="font-family:'MyriadPro-Semibold', 'Myriad Pro', sans-serif;font-weight:600;font-size:11.139px;fill:rgb(35,31,32);">vivir en</text>
                </g>
                <g transform="matrix(0.995969,0,0,1,1.48866,0)">
                    <text x="369.304px" y="354.06px" style="font-family:'MyriadPro-Semibold', 'Myriad Pro', sans-serif;font-weight:600;font-size:11.139px;fill:rgb(35,31,32);">en el año de</text>
                </g>
            </g>
        </g>
        <g transform="matrix(5.55556,0,0,5.55556,3631.89,4783.46)">
            <g transform="matrix(0.995969,0,0,1,-10.8778,-5.4)">
                <text x="494.111px" y="354.04px" style="font-family:'MyriadPro-Semibold', 'Myriad Pro', sans-serif;font-weight:600;font-size:11.139px;fill:rgb(35,31,32);"><tspan x="494.111px " y="354.04px ">.</tspan></text>
            </g>
        </g>
        <g transform="matrix(5.55556,0,0,5.55556,3631.89,4783.46)">
            <g transform="matrix(1.00853,0,0,-1.01261,479.837,309.685)">
                <path d="M0,-19.843L-75.314,-19.843C-79.992,-19.843 -83.818,-16.016 -83.818,-11.339L-83.818,-8.504C-83.818,-3.827 -79.992,0 -75.314,0L0,0C4.678,0 8.504,-3.827 8.504,-8.504L8.504,-11.339C8.504,-16.016 4.678,-19.843 0,-19.843Z" style="fill:white;fill-rule:nonzero;stroke:rgb(170,225,250);stroke-width:1px;"/>
            </g>
        </g>
        <g transform="matrix(5.55556,0,0,5.55556,3631.89,4783.46)">
            <g transform="matrix(1.00853,0,0,-1.01261,471.167,332.393)">
                <path d="M0,-19.842L-44.159,-19.842C-48.837,-19.842 -52.663,-16.015 -52.663,-11.338L-52.663,-8.504C-52.663,-3.826 -48.837,0 -44.159,0L0,0C4.678,0 8.504,-3.826 8.504,-8.504L8.504,-11.338C8.504,-16.015 4.678,-19.842 0,-19.842Z" style="fill:white;fill-rule:nonzero;stroke:rgb(170,225,250);stroke-width:1px;"/>
            </g>
        </g>
    </g>
</svg>
