<?xml version="1.0" encoding="UTF-8" standalone="no"?>
<!DOCTYPE svg PUBLIC "-//W3C//DTD SVG 1.1//EN" "http://www.w3.org/Graphics/SVG/1.1/DTD/svg11.dtd">
<svg width="100%" height="100%" viewBox="0 0 969 776" version="1.1" xmlns="http://www.w3.org/2000/svg" xmlns:xlink="http://www.w3.org/1999/xlink" xml:space="preserve" xmlns:serif="http://www.serif.com/" style="fill-rule:evenodd;clip-rule:evenodd;stroke-miterlimit:10;">
    <g transform="matrix(1,0,0,1,-5553.72,-5363.21)">
        <g transform="matrix(5.55556,0,0,5.55556,3631.89,4783.46)">
            <g transform="matrix(1.00853,0,0,-1.01261,510.144,114.434)">
                <path d="M0,-117.897L-138.657,-117.897C-138.657,-110.069 -145.003,-103.724 -152.83,-103.724L-152.83,0L-48.188,0C-21.575,0 0,-21.575 0,-48.189L0,-117.897Z" style="fill:rgb(172,210,239);fill-rule:nonzero;stroke:rgb(0,143,212);stroke-width:1.99px;"/>
            </g>
        </g>
        <g transform="matrix(5.55556,0,0,5.55556,3631.89,4783.46)">
            <g transform="matrix(1,0,0,1,-12.6,-5.4)">
                <g transform="matrix(0.995969,0,0,1,1.54337,0)">
                    <text x="382.875px" y="135.2px" style="font-family:'MyriadPro-Semibold', 'Myriad Pro', sans-serif;font-weight:600;font-size:11.139px;fill:rgb(35,31,32);">Una nuev<tspan x="428.644px " y="135.2px ">a</tspan> expedición</text>
                </g>
                <g transform="matrix(0.995969,0,0,1,1.9229,0)">
                    <text x="477.028px" y="154.439px" style="font-family:'MyriadPro-Semibold', 'Myriad Pro', sans-serif;font-weight:600;font-size:11.139px;fill:rgb(35,31,32);">llegó a</text>
                </g>
                <g transform="matrix(0.995969,0,0,1,1.54337,0)">
                    <text x="382.875px" y="192.928px" style="font-family:'MyriadPro-Semibold', 'Myriad Pro', sans-serif;font-weight:600;font-size:11.139px;fill:rgb(35,31,32);">par<tspan x="398.914px " y="192.928px ">a</tspan> int<tspan x="419.888px " y="192.928px ">e</tspan>ntar una segunda</text>
                </g>
                <g transform="matrix(0.995969,0,0,1,1.54337,0)">
                    <text x="382.875px" y="231.416px" style="font-family:'MyriadPro-Semibold', 'Myriad Pro', sans-serif;font-weight:600;font-size:11.139px;fill:rgb(35,31,32);">en 1829.</text>
                </g>
            </g>
        </g>
        <g transform="matrix(5.55556,0,0,5.55556,3631.89,4783.46)">
            <g transform="matrix(1.00853,0,0,-1.01261,451.791,134.358)">
                <path d="M0,-19.843L-72.322,-19.843C-76.999,-19.843 -80.826,-16.016 -80.826,-11.339L-80.826,-8.504C-80.826,-3.827 -76.999,0 -72.322,0L0,0C4.677,0 8.504,-3.827 8.504,-8.504L8.504,-11.339C8.504,-16.016 4.677,-19.843 0,-19.843Z" style="fill:white;fill-rule:nonzero;stroke:rgb(170,225,250);stroke-width:1px;"/>
            </g>
        </g>
        <g transform="matrix(5.55556,0,0,5.55556,3631.89,4783.46)">
            <g transform="matrix(1.00853,0,0,-1.01261,493.111,158.323)">
                <path d="M0,-19.843L-113.293,-19.843C-117.97,-19.843 -121.797,-16.016 -121.797,-11.339L-121.797,-8.504C-121.797,-3.827 -117.97,0 -113.293,0L0,0C4.677,0 8.504,-3.827 8.504,-8.504L8.504,-11.339C8.504,-16.016 4.677,-19.843 0,-19.843Z" style="fill:white;fill-rule:nonzero;stroke:rgb(170,225,250);stroke-width:1px;"/>
            </g>
        </g>
        <g transform="matrix(5.55556,0,0,5.55556,3631.89,4783.46)">
            <g transform="matrix(1.00853,0,0,-1.01261,497.221,194.272)">
                <path d="M0,-19.843L-127.004,-19.843C-131.682,-19.843 -135.508,-16.016 -135.508,-11.339L-135.508,-8.505C-135.508,-3.827 -131.682,0 -127.004,0L0,0C4.677,0 8.504,-3.827 8.504,-8.505L8.504,-11.339C8.504,-16.016 4.677,-19.843 0,-19.843Z" style="fill:white;fill-rule:nonzero;stroke:rgb(170,225,250);stroke-width:1px;"/>
            </g>
        </g>
    </g>
</svg>
