<?xml version="1.0" encoding="UTF-8" standalone="no"?>
<!DOCTYPE svg PUBLIC "-//W3C//DTD SVG 1.1//EN" "http://www.w3.org/Graphics/SVG/1.1/DTD/svg11.dtd">
<svg width="100%" height="100%" viewBox="0 0 986 775" version="1.1" xmlns="http://www.w3.org/2000/svg" xmlns:xlink="http://www.w3.org/1999/xlink" xml:space="preserve" xmlns:serif="http://www.serif.com/" style="fill-rule:evenodd;clip-rule:evenodd;stroke-miterlimit:10;">
    <g transform="matrix(1,0,0,1,-4076.88,-6797.89)">
        <g transform="matrix(5.55556,0,0,5.55556,3631.89,4783.46)">
            <g transform="matrix(1.00853,0,0,-1.01261,235.899,491.834)">
                <path d="M0,117.628L-144.442,117.628L-144.442,48.048C-144.442,21.512 -122.93,0 -96.394,0L11.306,0L11.306,106.322C5.062,106.322 0,111.384 0,117.628Z" style="fill:rgb(213,203,183);fill-rule:nonzero;stroke:rgb(146,124,69);stroke-width:1.99px;"/>
            </g>
        </g>
        <g transform="matrix(5.55556,0,0,5.55556,3631.89,4783.46)">
            <g transform="matrix(1,0,0,1,-12.6,-5.4)">
                <g transform="matrix(0.995969,0,0,1,0.744267,0)">
                    <text x="184.636px" y="407.35px" style="font-family:'MyriadPro-Semibold', 'Myriad Pro', sans-serif;font-weight:600;font-size:11.139px;fill:rgb(35,31,32);">mandó tr<tspan x="228.946px " y="407.35px ">o</tspan>pas</text>
                </g>
                <g transform="matrix(0.995969,0,0,1,0.457305,0)">
                    <text x="113.447px" y="428.619px" style="font-family:'MyriadPro-Semibold', 'Myriad Pro', sans-serif;font-weight:600;font-size:11.139px;fill:rgb(35,31,32);">al fuer<tspan x="144.135px " y="428.619px ">t</tspan>e de San Juan de Ulúa</text>
                </g>
                <g transform="matrix(0.995969,0,0,1,0.457305,0)">
                    <text x="113.447px" y="449.888px" style="font-family:'MyriadPro-Semibold', 'Myriad Pro', sans-serif;font-weight:600;font-size:11.139px;fill:rgb(35,31,32);">par<tspan x="129.487px " y="449.888px ">a</tspan> bloquear el comer<tspan x="224.756px " y="449.888px ">c</tspan>io</text>
                </g>
                <g transform="matrix(0.995969,0,0,1,0.457305,0)">
                    <text x="113.447px" y="471.156px" style="font-family:'MyriadPro-Semibold', 'Myriad Pro', sans-serif;font-weight:600;font-size:11.139px;fill:rgb(35,31,32);">en <tspan x="199.349px " y="471.156px ">.</tspan></text>
                </g>
            </g>
        </g>
    </g>
</svg>
