<?xml version="1.0" encoding="UTF-8" standalone="no"?>
<!DOCTYPE svg PUBLIC "-//W3C//DTD SVG 1.1//EN" "http://www.w3.org/Graphics/SVG/1.1/DTD/svg11.dtd">
<svg width="100%" height="100%" viewBox="0 0 1008 711" version="1.1" xmlns="http://www.w3.org/2000/svg" xmlns:xlink="http://www.w3.org/1999/xlink" xml:space="preserve" xmlns:serif="http://www.serif.com/" style="fill-rule:evenodd;clip-rule:evenodd;stroke-miterlimit:10;">
    <g transform="matrix(1,0,0,1,-4648.15,-7630.81)">
        <g transform="matrix(5.55556,0,0,5.55556,3631.89,4783.46)">
            <g transform="matrix(1.00853,0,0,-1.01261,213.029,522.613)">
                <path d="M0,-106.405L139.906,-106.405L139.906,0L-19.843,0L-19.843,-86.562C-19.843,-97.521 -10.958,-106.405 0,-106.405Z" style="fill:rgb(245,242,192);fill-rule:nonzero;stroke:rgb(225,217,28);stroke-width:1.99px;"/>
            </g>
        </g>
        <g transform="matrix(5.55556,0,0,5.55556,3631.89,4783.46)">
            <g transform="matrix(1,0,0,1,-12.6,-5.4)">
                <g transform="matrix(0.995969,0,0,1,0.857853,0)">
                    <text x="212.814px" y="541.527px" style="font-family:'MyriadPro-Semibold', 'Myriad Pro', sans-serif;font-weight:600;font-size:11.139px;fill:rgb(35,31,32);">Se</text>
                </g>
                <g transform="matrix(0.995969,0,0,1,0.913663,0)">
                    <path d="M228.921,541.527L228.921,537.127L230.77,537.127L230.77,541.527L232.14,541.527L232.14,536.103L228.91,536.103L228.91,535.88C228.91,535.167 229.222,534.588 230.168,534.588C230.681,534.588 231.115,534.732 231.36,534.877L231.672,533.841C231.36,533.641 230.714,533.496 230.168,533.496C228.564,533.496 227.551,534.387 227.551,535.846L227.551,536.103L226.816,536.103L226.816,537.127L227.551,537.127L227.551,541.527L228.921,541.527Z" style="fill:rgb(35,31,32);"/>
                </g>
                <g transform="matrix(0.995969,0,0,1,0.938305,0)">
                    <text x="232.773px" y="541.527px" style="font-family:'MyriadPro-Semibold', 'Myriad Pro', sans-serif;font-weight:600;font-size:11.139px;fill:rgb(35,31,32);">rmó el <tspan x="265.24px 270.529px 274.393px " y="541.527px 541.527px 541.527px ">Tra</tspan>tado</text>
                </g>
            </g>
        </g>
        <g transform="matrix(5.55556,0,0,5.55556,3631.89,4783.46)">
            <g transform="matrix(1,0,0,1,-12.6,-5.4)">
                <g transform="matrix(0.995969,0,0,1,1.32995,0)">
                    <text x="329.932px" y="562.791px" style="font-family:'MyriadPro-Semibold', 'Myriad Pro', sans-serif;font-weight:600;font-size:11.139px;fill:rgb(35,31,32);">en el</text>
                </g>
                <g transform="matrix(0.995969,0,0,1,0.857853,0)">
                    <text x="212.814px" y="584.06px" style="font-family:'MyriadPro-Semibold', 'Myriad Pro', sans-serif;font-weight:600;font-size:11.139px;fill:rgb(35,31,32);">que Méxic<tspan x="261.857px " y="584.06px ">o</tspan> ac<tspan x="281.004px " y="584.06px ">e</tspan>ptó la pér<tspan x="332.653px " y="584.06px ">d</tspan>ida</text>
                </g>
                <g transform="matrix(0.995969,0,0,1,0.857853,0)">
                    <text x="212.814px" y="605.328px" style="font-family:'MyriadPro-Semibold', 'Myriad Pro', sans-serif;font-weight:600;font-size:11.139px;fill:rgb(35,31,32);">de Nuev<tspan x="252.434px " y="605.328px ">o</tspan> Méxic<tspan x="289.202px " y="605.328px ">o</tspan> y C<tspan x="312.114px " y="605.328px ">a</tspan>lif<tspan x="326.916px " y="605.328px ">o</tspan>rnia</text>
                </g>
            </g>
        </g>
        <g transform="matrix(5.55556,0,0,5.55556,3631.89,4783.46)">
            <g transform="matrix(0.995969,0,0,1,-11.7421,-5.4)">
                <text x="212.814px" y="626.582px" style="font-family:'MyriadPro-Semibold', 'Myriad Pro', sans-serif;font-weight:600;font-size:11.139px;fill:rgb(35,31,32);">en <tspan x="298.716px " y="626.582px ">.</tspan></text>
            </g>
        </g>
    </g>
</svg>
