<?xml version="1.0" encoding="UTF-8" standalone="no"?>
<!DOCTYPE svg PUBLIC "-//W3C//DTD SVG 1.1//EN" "http://www.w3.org/Graphics/SVG/1.1/DTD/svg11.dtd">
<svg width="100%" height="100%" viewBox="0 0 192 167" version="1.1" xmlns="http://www.w3.org/2000/svg" xmlns:xlink="http://www.w3.org/1999/xlink" xml:space="preserve" xmlns:serif="http://www.serif.com/" style="fill-rule:evenodd;clip-rule:evenodd;stroke-linecap:round;stroke-linejoin:round;stroke-miterlimit:10;">
    <g transform="matrix(1,0,0,1,-27035.8,-2187.54)">
        <g transform="matrix(5.55556,0,0,5.55556,25423.2,0)">
            <g transform="matrix(1,0,0,1,321.617,413.634)">
                <path d="M0,-12.395C4.684,-7.382 3.362,7.381 -6.913,9.058C-17.187,10.734 -21.139,8.542 -21.636,5.147C-22.132,1.751 -25.918,-5.622 -29.552,-6.914C-33.185,-8.206 -28.582,-16.595 -23.071,-17.57C-17.56,-18.546 -10.029,-23.129 0,-12.395" style="fill:rgb(229,178,57);fill-rule:nonzero;"/>
            </g>
        </g>
        <g transform="matrix(5.55556,0,0,5.55556,25423.2,0)">
            <g transform="matrix(1,0,0,1,321.617,413.634)">
                <path d="M0,-12.395C4.684,-7.382 3.362,7.381 -6.913,9.058C-17.187,10.734 -21.139,8.542 -21.636,5.147C-22.132,1.751 -25.918,-5.622 -29.552,-6.914C-33.185,-8.206 -28.582,-16.595 -23.071,-17.57C-17.56,-18.546 -10.029,-23.129 0,-12.395Z" style="fill:none;fill-rule:nonzero;stroke:rgb(189,148,47);stroke-width:1px;"/>
            </g>
        </g>
        <g transform="matrix(5.55556,0,0,5.55556,25423.2,0)">
            <g opacity="0.3">
                <g transform="matrix(1,0,0,1,319.356,412.51)">
                    <path d="M0,-9.875C4.119,-5.528 3.239,6.626 -5.596,7.968C-14.431,9.31 -16.143,7.694 -16.625,4.774C-17.108,1.855 -21.003,-5.613 -24.157,-6.757C-27.312,-7.9 -24.307,-13.333 -19.569,-14.119C-14.832,-14.904 -8.822,-19.185 0,-9.875" style="fill:white;fill-rule:nonzero;"/>
                </g>
            </g>
        </g>
        <g transform="matrix(5.55556,0,0,5.55556,25423.2,0)">
            <g opacity="0.25">
                <g transform="matrix(1,0,0,1,311.06,401.51)">
                    <path d="M0,11.571C-2.78,12.288 -5.946,12.51 -7.423,8.611C-8.9,4.712 -12.152,-0.939 -10.124,-0.933C-8.25,-0.927 -0.319,-0.333 1.254,-0.048C2.618,0.2 5.818,2.232 5.271,4.38C4.61,6.97 4.359,10.446 0,11.571" style="fill:white;fill-rule:nonzero;"/>
                </g>
            </g>
        </g>
        <g transform="matrix(5.55556,0,0,5.55556,25423.2,0)">
            <text x="303.567px" y="411.468px" style="font-family:'LucidaGrande-Bold', 'Lucida Grande', sans-serif;font-weight:600;font-size:11.903px;fill:rgb(35,31,32);">7<tspan x="310.173px " y="411.468px ">0</tspan></text>
        </g>
    </g>
</svg>
