<?xml version="1.0" encoding="UTF-8" standalone="no"?>
<!DOCTYPE svg PUBLIC "-//W3C//DTD SVG 1.1//EN" "http://www.w3.org/Graphics/SVG/1.1/DTD/svg11.dtd">
<svg width="100%" height="100%" viewBox="0 0 209 176" version="1.1" xmlns="http://www.w3.org/2000/svg" xmlns:xlink="http://www.w3.org/1999/xlink" xml:space="preserve" xmlns:serif="http://www.serif.com/" style="fill-rule:evenodd;clip-rule:evenodd;stroke-linecap:round;stroke-linejoin:round;stroke-miterlimit:10;">
    <g transform="matrix(1,0,0,1,-27567.4,-2874.93)">
        <g transform="matrix(5.55556,0,0,5.55556,25423.2,0)">
            <g transform="matrix(0,-1,-1,0,404.722,515.057)">
                <path d="M-18.268,-18.268C-26.739,-18.268 -33.606,-17.284 -33.606,-7.195C-33.606,2.894 -31.339,18.268 -18.268,18.268C-9.797,18.268 -2.93,14.014 -2.93,3.924C-2.93,-6.164 -9.797,-18.268 -18.268,-18.268" style="fill:rgb(229,178,57);fill-rule:nonzero;"/>
            </g>
        </g>
        <g transform="matrix(5.55556,0,0,5.55556,25423.2,0)">
            <g transform="matrix(0,-1,-1,0,404.722,515.057)">
                <path d="M-18.268,-18.268C-26.739,-18.268 -33.606,-17.284 -33.606,-7.195C-33.606,2.894 -31.339,18.268 -18.268,18.268C-9.797,18.268 -2.93,14.014 -2.93,3.924C-2.93,-6.164 -9.797,-18.268 -18.268,-18.268Z" style="fill:none;fill-rule:nonzero;stroke:rgb(189,148,47);stroke-width:1px;"/>
            </g>
        </g>
        <g transform="matrix(5.55556,0,0,5.55556,25423.2,0)">
            <g opacity="0.3">
                <g transform="matrix(0,-1,-1,0,404.721,518.277)">
                    <path d="M-15.048,-15.048C-22.026,-15.048 -27.682,-14.238 -27.682,-5.927C-27.682,2.384 -25.816,15.048 -15.048,15.048C-8.07,15.048 -2.414,11.543 -2.414,3.232C-2.414,-5.078 -8.07,-15.048 -15.048,-15.048" style="fill:white;fill-rule:nonzero;"/>
                </g>
            </g>
        </g>
        <g transform="matrix(5.55556,0,0,5.55556,25423.2,0)">
            <g opacity="0.25">
                <g transform="matrix(0,-1,-1,0,404.595,520.592)">
                    <path d="M-11.072,-11.072C-15.525,-11.072 -19.135,-10.475 -19.135,-4.361C-19.135,1.754 -17.944,11.072 -11.072,11.072C-6.619,11.072 -3.009,8.493 -3.009,2.378C-3.009,-3.736 -6.619,-11.072 -11.072,-11.072" style="fill:white;fill-rule:nonzero;"/>
                </g>
            </g>
        </g>
        <g transform="matrix(5.55556,0,0,5.55556,25423.2,0)">
            <text x="398.25px" y="537.235px" style="font-family:'LucidaGrande-Bold', 'Lucida Grande', sans-serif;font-weight:600;font-size:11.903px;fill:rgb(35,31,32);">6<tspan x="404.856px " y="537.235px ">0</tspan></text>
        </g>
    </g>
</svg>
