<?xml version="1.0" encoding="UTF-8" standalone="no"?>
<!DOCTYPE svg PUBLIC "-//W3C//DTD SVG 1.1//EN" "http://www.w3.org/Graphics/SVG/1.1/DTD/svg11.dtd">
<svg width="100%" height="100%" viewBox="0 0 201 190" version="1.1" xmlns="http://www.w3.org/2000/svg" xmlns:xlink="http://www.w3.org/1999/xlink" xml:space="preserve" xmlns:serif="http://www.serif.com/" style="fill-rule:evenodd;clip-rule:evenodd;stroke-linecap:round;stroke-linejoin:round;stroke-miterlimit:10;">
    <g transform="matrix(1,0,0,1,-27747,-2997.07)">
        <g transform="matrix(5.55556,0,0,5.55556,25423.2,0)">
            <g transform="matrix(-0.537265,0.843414,0.843414,0.537265,453.775,551.023)">
                <path d="M12.423,-28.78C22.93,-28.781 26.845,-26.586 31.447,-13.58C34.247,-5.666 22.93,1.619 12.423,1.62C1.917,1.62 -7.924,-1.297 -4.595,-9.005C1.201,-22.424 1.917,-28.779 12.423,-28.78" style="fill:rgb(229,178,57);fill-rule:nonzero;"/>
            </g>
        </g>
        <g transform="matrix(5.55556,0,0,5.55556,25423.2,0)">
            <g transform="matrix(-0.537265,0.843414,0.843414,0.537265,453.775,551.023)">
                <path d="M12.423,-28.78C22.93,-28.781 26.845,-26.586 31.447,-13.58C34.247,-5.666 22.93,1.619 12.423,1.62C1.917,1.62 -7.924,-1.297 -4.595,-9.005C1.201,-22.424 1.917,-28.779 12.423,-28.78Z" style="fill:none;fill-rule:nonzero;stroke:rgb(189,148,47);stroke-width:1px;"/>
            </g>
        </g>
        <g transform="matrix(5.55556,0,0,5.55556,25423.2,0)">
            <g opacity="0.3">
                <g transform="matrix(-0.537276,0.843406,0.843406,0.537276,450.597,551.423)">
                    <path d="M10.569,-23.063C18.828,-23.064 21.906,-21.339 25.524,-11.114C27.725,-4.893 18.828,0.835 10.569,0.835C2.308,0.835 -5.814,-0.468 -3.197,-6.526C1.361,-17.076 2.309,-23.064 10.569,-23.063" style="fill:white;fill-rule:nonzero;"/>
                </g>
            </g>
        </g>
        <g transform="matrix(5.55556,0,0,5.55556,25423.2,0)">
            <g opacity="0.25">
                <g transform="matrix(-0.522362,0.852724,0.852724,0.522362,446.708,550.362)">
                    <path d="M8.425,-16.354C13.442,-16.443 14.601,-14.241 16.931,-6.74C18.35,-2.177 13.444,0.635 8.425,0.724C3.408,0.812 -2.053,1.012 -0.233,-3.367C3.03,-11.213 3.408,-16.267 8.425,-16.354" style="fill:white;fill-rule:nonzero;"/>
                </g>
            </g>
        </g>
        <g transform="matrix(5.55556,0,0,5.55556,25423.2,0)">
            <text x="428.059px" y="559.412px" style="font-family:'LucidaGrande-Bold', 'Lucida Grande', sans-serif;font-weight:600;font-size:11.903px;fill:rgb(35,31,32);">5<tspan x="434.665px " y="559.412px ">0</tspan></text>
        </g>
    </g>
</svg>
