<svg clip-rule="evenodd" fill-rule="evenodd" stroke-linejoin="round" stroke-miterlimit="2" viewBox="0 0 607 155" xmlns="http://www.w3.org/2000/svg"><path d="m62.295 249.071h145.54v109.976h-145.54z" fill="#8bba62" transform="matrix(-4.16667 0 0 1.3978 866.1277 -347.35)"/><g fill="#fff" fill-rule="nonzero"><path d="m.25 0v-.302l-.242-.421h.117l.188.327.202-.327h.095l-.258.419v.304z" transform="matrix(53.0992 0 0 53.0992 27.8457 62.36)"/><path d="m.237.012c-.044 0-.098-.01-.16-.031v-.088c.062.031.117.047.164.047.027 0 .05-.008.069-.023.018-.014.027-.033.027-.056 0-.033-.026-.06-.077-.081l-.056-.024c-.083-.035-.124-.084-.124-.149 0-.046.016-.083.049-.109.032-.027.077-.04.134-.04.03 0 .066.004.11.012l.02.004v.08c-.054-.016-.096-.024-.128-.024-.062 0-.093.023-.093.068 0 .029.024.053.071.073l.046.019c.052.023.09.046.111.07.022.025.033.056.033.093 0 .046-.018.084-.055.114-.037.03-.084.045-.141.045z" transform="matrix(53.0992 0 0 53.0992 67.8297 62.36)"/><path d="m.485-.017c-.065.019-.12.029-.166.029-.078 0-.142-.026-.191-.078s-.074-.119-.074-.202c0-.08.022-.146.065-.197.044-.052.099-.077.167-.077.064 0 .114.022.149.068.035.045.052.11.052.194v.03h-.335c.014.126.076.189.185.189.04 0 .09-.011.148-.032zm-.328-.305h.234c0-.099-.037-.148-.111-.148s-.115.049-.123.148z" transform="matrix(53.0992 0 0 53.0992 91.2907 62.36)"/><path d="m.303.012c-.071 0-.131-.026-.178-.079s-.071-.12-.071-.201c0-.086.024-.154.07-.202.047-.048.112-.072.196-.072.041 0 .087.006.138.017v.081c-.054-.016-.098-.024-.132-.024-.049 0-.089.018-.119.055s-.044.086-.044.148c0 .059.015.108.045.144.031.037.071.056.121.056.044 0 .089-.012.135-.034v.083c-.062.019-.116.028-.161.028z" transform="matrix(53.0992 0 0 53.0992 126.7167 62.36)"/><path d="m.304.012c-.076 0-.137-.025-.182-.075-.045-.051-.068-.118-.068-.202 0-.085.023-.153.068-.203.046-.049.107-.074.185-.074s.14.025.185.074c.045.05.068.117.068.202 0 .086-.023.155-.068.204-.046.049-.109.074-.188.074zm.001-.072c.102 0 .153-.069.153-.206 0-.136-.05-.204-.151-.204-.1 0-.15.068-.15.205s.049.205.148.205z" transform="matrix(53.0992 0 0 53.0992 150.3067 62.36)"/><path d="m.096 0v-.53h.096v.099c.051-.074.113-.111.187-.111.046 0 .082.015.11.044.027.029.041.068.041.117v.381h-.096v-.35c0-.039-.006-.067-.018-.084-.011-.017-.03-.025-.057-.025-.059 0-.115.039-.167.116v.343z" transform="matrix(53.0992 0 0 53.0992 179.3157 62.36)"/><path d="m.255.012c-.048 0-.087-.014-.114-.042s-.041-.067-.041-.116v-.312h-.066v-.072h.066v-.096l.096-.01v.106h.139v.072h-.139v.294c0 .069.03.104.09.104.013 0 .028-.002.047-.006v.066c-.03.008-.056.012-.078.012z" transform="matrix(53.0992 0 0 53.0992 208.6627 62.36)"/><path d="m.37-.067c-.058.053-.113.079-.167.079-.044 0-.08-.014-.109-.041-.029-.028-.044-.062-.044-.104 0-.058.025-.103.073-.134.049-.031.119-.046.21-.046h.022v-.064c0-.062-.031-.093-.094-.093-.051 0-.106.016-.165.047v-.079c.065-.027.126-.04.182-.04.06 0 .103.013.131.04.029.027.043.068.043.125v.24c0 .055.017.082.05.082.005 0 .011 0 .019-.002l.007.054c-.022.01-.046.015-.072.015-.045 0-.074-.026-.086-.079zm-.015-.053v-.137l-.032-.001c-.052 0-.095.01-.128.03-.032.02-.049.047-.049.079 0 .023.009.043.025.059s.036.024.059.024c.041 0 .082-.018.125-.054z" transform="matrix(53.0992 0 0 53.0992 224.9157 62.36)"/><path d="m.098.176.011-.083c.056.026.111.039.165.039.108 0 .163-.057.163-.172v-.084c-.036.075-.094.112-.175.112-.064 0-.114-.023-.152-.07-.037-.046-.056-.108-.056-.187 0-.08.022-.146.064-.197.043-.051.098-.076.166-.076.059 0 .11.024.153.072v-.06h.096v.385c0 .083-.004.145-.013.185-.008.04-.025.072-.048.098-.042.044-.108.067-.196.067-.062 0-.121-.01-.178-.029zm.339-.36v-.22c-.043-.044-.089-.066-.139-.066-.044 0-.079.018-.104.053-.025.036-.037.085-.037.146 0 .117.041.175.122.175.056 0 .108-.029.158-.088z" transform="matrix(53.0992 0 0 53.0992 250.6317 62.36)"/><path d="m.096 0v-.53h.096v.53zm0-.626v-.097h.096v.097z" transform="matrix(53.0992 0 0 53.0992 280.1337 62.36)"/><path d="m.37-.067c-.058.053-.113.079-.167.079-.044 0-.08-.014-.109-.041-.029-.028-.044-.062-.044-.104 0-.058.025-.103.073-.134.049-.031.119-.046.21-.046h.022v-.064c0-.062-.031-.093-.094-.093-.051 0-.106.016-.165.047v-.079c.065-.027.126-.04.182-.04.06 0 .103.013.131.04.029.027.043.068.043.125v.24c0 .055.017.082.05.082.005 0 .011 0 .019-.002l.007.054c-.022.01-.046.015-.072.015-.045 0-.074-.026-.086-.079zm-.015-.053v-.137l-.032-.001c-.052 0-.095.01-.128.03-.032.02-.049.047-.049.079 0 .023.009.043.025.059s.036.024.059.024c.041 0 .082-.018.125-.054z" transform="matrix(53.0992 0 0 53.0992 291.8747 62.36)"/><path d="m.211-.458v.458h-.097v-.458h-.075v-.072h.075v-.064c0-.126.058-.189.173-.189.032 0 .069.005.11.016v.076c-.043-.013-.078-.02-.104-.02-.032 0-.053.008-.065.023-.011.015-.017.043-.017.084v.074h.132v.072z" transform="matrix(53.0992 0 0 53.0992 330.7847 62.36)"/><path d="m.37-.067c-.058.053-.113.079-.167.079-.044 0-.08-.014-.109-.041-.029-.028-.044-.062-.044-.104 0-.058.025-.103.073-.134.049-.031.119-.046.21-.046h.022v-.064c0-.062-.031-.093-.094-.093-.051 0-.106.016-.165.047v-.079c.065-.027.126-.04.182-.04.06 0 .103.013.131.04.029.027.043.068.043.125v.24c0 .055.017.082.05.082.005 0 .011 0 .019-.002l.007.054c-.022.01-.046.015-.072.015-.045 0-.074-.026-.086-.079zm-.015-.053v-.137l-.032-.001c-.052 0-.095.01-.128.03-.032.02-.049.047-.049.079 0 .023.009.043.025.059s.036.024.059.024c.041 0 .082-.018.125-.054zm-.147-.506.118-.157h.111l-.157.157z" transform="matrix(53.0992 0 0 53.0992 346.7007 62.36)"/><path d="m.303.012c-.071 0-.131-.026-.178-.079s-.071-.12-.071-.201c0-.086.024-.154.07-.202.047-.048.112-.072.196-.072.041 0 .087.006.138.017v.081c-.054-.016-.098-.024-.132-.024-.049 0-.089.018-.119.055s-.044.086-.044.148c0 .059.015.108.045.144.031.037.071.056.121.056.044 0 .089-.012.135-.034v.083c-.062.019-.116.028-.161.028z" transform="matrix(53.0992 0 0 53.0992 372.4177 62.36)"/><path d="m.096 0v-.53h.096v.53zm0-.626v-.097h.096v.097z" transform="matrix(53.0992 0 0 53.0992 396.0077 62.36)"/><path d="m412.8472232 21.4205168h5.0975232v40.9394832h-5.0975232z" stroke-width="53.0992"/><path d="m.096 0v-.53h.096v.099c.047-.074.107-.111.181-.111.071 0 .119.037.145.111.046-.074.105-.111.178-.111.047 0 .083.013.109.041.025.027.038.066.038.115v.386h-.096v-.371c0-.06-.024-.09-.072-.09-.05 0-.102.035-.157.106v.355h-.097v-.371c0-.06-.024-.091-.073-.091-.048 0-.1.036-.156.107v.355z" transform="matrix(53.0992 0 0 53.0992 419.4907 62.36)"/><path d="m.485-.017c-.065.019-.12.029-.166.029-.078 0-.142-.026-.191-.078s-.074-.119-.074-.202c0-.08.022-.146.065-.197.044-.052.099-.077.167-.077.064 0 .114.022.149.068.035.045.052.11.052.194v.03h-.335c.014.126.076.189.185.189.04 0 .09-.011.148-.032zm-.328-.305h.234c0-.099-.037-.148-.111-.148s-.115.049-.123.148z" transform="matrix(53.0992 0 0 53.0992 465.4567 62.36)"/><path d="m.096 0v-.53h.096v.099c.051-.074.113-.111.187-.111.046 0 .082.015.11.044.027.029.041.068.041.117v.381h-.096v-.35c0-.039-.006-.067-.018-.084-.011-.017-.03-.025-.057-.025-.059 0-.115.039-.167.116v.343z" transform="matrix(53.0992 0 0 53.0992 491.4327 62.36)"/><path d="m.255.012c-.048 0-.087-.014-.114-.042s-.041-.067-.041-.116v-.312h-.066v-.072h.066v-.096l.096-.01v.106h.139v.072h-.139v.294c0 .069.03.104.09.104.013 0 .028-.002.047-.006v.066c-.03.008-.056.012-.078.012z" transform="matrix(53.0992 0 0 53.0992 520.7787 62.36)"/><path d="m.485-.017c-.065.019-.12.029-.166.029-.078 0-.142-.026-.191-.078s-.074-.119-.074-.202c0-.08.022-.146.065-.197.044-.052.099-.077.167-.077.064 0 .114.022.149.068.035.045.052.11.052.194v.03h-.335c.014.126.076.189.185.189.04 0 .09-.011.148-.032zm-.328-.305h.234c0-.099-.037-.148-.111-.148s-.115.049-.123.148z" transform="matrix(53.0992 0 0 53.0992 537.0317 62.36)"/><path d="m.37-.067c-.058.053-.113.079-.167.079-.044 0-.08-.014-.109-.041-.029-.028-.044-.062-.044-.104 0-.058.025-.103.073-.134.049-.031.119-.046.21-.046h.022v-.064c0-.062-.031-.093-.094-.093-.051 0-.106.016-.165.047v-.079c.065-.027.126-.04.182-.04.06 0 .103.013.131.04.029.027.043.068.043.125v.24c0 .055.017.082.05.082.005 0 .011 0 .019-.002l.007.054c-.022.01-.046.015-.072.015-.045 0-.074-.026-.086-.079zm-.015-.053v-.137l-.032-.001c-.052 0-.095.01-.128.03-.032.02-.049.047-.049.079 0 .023.009.043.025.059s.036.024.059.024c.041 0 .082-.018.125-.054z" transform="matrix(53.0992 0 0 53.0992 27.8457 123.62)"/><path d="m70.6292232 82.6805168h5.0975232v40.9394832h-5.0975232z" stroke-width="53.0992"/><path d="m.37-.067c-.058.053-.113.079-.167.079-.044 0-.08-.014-.109-.041-.029-.028-.044-.062-.044-.104 0-.058.025-.103.073-.134.049-.031.119-.046.21-.046h.022v-.064c0-.062-.031-.093-.094-.093-.051 0-.106.016-.165.047v-.079c.065-.027.126-.04.182-.04.06 0 .103.013.131.04.029.027.043.068.043.125v.24c0 .055.017.082.05.082.005 0 .011 0 .019-.002l.007.054c-.022.01-.046.015-.072.015-.045 0-.074-.026-.086-.079zm-.015-.053v-.137l-.032-.001c-.052 0-.095.01-.128.03-.032.02-.049.047-.049.079 0 .023.009.043.025.059s.036.024.059.024c.041 0 .082-.018.125-.054z" transform="matrix(53.0992 0 0 53.0992 76.6617 123.62)"/><path d="m.237.012c-.044 0-.098-.01-.16-.031v-.088c.062.031.117.047.164.047.027 0 .05-.008.069-.023.018-.014.027-.033.027-.056 0-.033-.026-.06-.077-.081l-.056-.024c-.083-.035-.124-.084-.124-.149 0-.046.016-.083.049-.109.032-.027.077-.04.134-.04.03 0 .066.004.11.012l.02.004v.08c-.054-.016-.096-.024-.128-.024-.062 0-.093.023-.093.068 0 .029.024.053.071.073l.046.019c.052.023.09.046.111.07.022.025.033.056.033.093 0 .046-.018.084-.055.114-.037.03-.084.045-.141.045z" transform="matrix(53.0992 0 0 53.0992 101.7667 123.62)"/><path d="m.437 0v-.1c-.04.075-.098.112-.177.112-.064 0-.114-.023-.151-.07-.036-.046-.055-.11-.055-.191 0-.088.021-.159.062-.212.042-.054.097-.081.164-.081.063 0 .115.024.157.072v-.301h.096v.771zm0-.404c-.05-.044-.097-.066-.142-.066-.092 0-.138.071-.138.212 0 .124.041.186.123.186.053 0 .105-.029.157-.088z" transform="matrix(53.0992 0 0 53.0992 135.1057 123.62)"/><path d="m.485-.017c-.065.019-.12.029-.166.029-.078 0-.142-.026-.191-.078s-.074-.119-.074-.202c0-.08.022-.146.065-.197.044-.052.099-.077.167-.077.064 0 .114.022.149.068.035.045.052.11.052.194v.03h-.335c.014.126.076.189.185.189.04 0 .09-.011.148-.032zm-.328-.305h.234c0-.099-.037-.148-.111-.148s-.115.049-.123.148z" transform="matrix(53.0992 0 0 53.0992 164.3077 123.62)"/><path d="m.096 0v-.53h.096v.099c.047-.074.107-.111.181-.111.071 0 .119.037.145.111.046-.074.105-.111.178-.111.047 0 .083.013.109.041.025.027.038.066.038.115v.386h-.096v-.371c0-.06-.024-.09-.072-.09-.05 0-.102.035-.157.106v.355h-.097v-.371c0-.06-.024-.091-.073-.091-.048 0-.1.036-.156.107v.355z" transform="matrix(53.0992 0 0 53.0992 189.6707 123.62)"/><path d="m.37-.067c-.058.053-.113.079-.167.079-.044 0-.08-.014-.109-.041-.029-.028-.044-.062-.044-.104 0-.058.025-.103.073-.134.049-.031.119-.046.21-.046h.022v-.064c0-.062-.031-.093-.094-.093-.051 0-.106.016-.165.047v-.079c.065-.027.126-.04.182-.04.06 0 .103.013.131.04.029.027.043.068.043.125v.24c0 .055.017.082.05.082.005 0 .011 0 .019-.002l.007.054c-.022.01-.046.015-.072.015-.045 0-.074-.026-.086-.079zm-.015-.053v-.137l-.032-.001c-.052 0-.095.01-.128.03-.032.02-.049.047-.049.079 0 .023.009.043.025.059s.036.024.059.024c.041 0 .082-.018.125-.054zm-.147-.506.118-.157h.111l-.157.157z" transform="matrix(53.0992 0 0 53.0992 235.0247 123.62)"/><path d="m.237.012c-.044 0-.098-.01-.16-.031v-.088c.062.031.117.047.164.047.027 0 .05-.008.069-.023.018-.014.027-.033.027-.056 0-.033-.026-.06-.077-.081l-.056-.024c-.083-.035-.124-.084-.124-.149 0-.046.016-.083.049-.109.032-.027.077-.04.134-.04.03 0 .066.004.11.012l.02.004v.08c-.054-.016-.096-.024-.128-.024-.062 0-.093.023-.093.068 0 .029.024.053.071.073l.046.019c.052.023.09.046.111.07.022.025.033.056.033.093 0 .046-.018.084-.055.114-.037.03-.084.045-.141.045z" transform="matrix(53.0992 0 0 53.0992 260.1297 123.62)"/><path d="m.096.193v-.723h.096v.099c.04-.074.099-.111.178-.111.063 0 .114.023.15.07.037.046.055.11.055.191 0 .088-.021.159-.062.212-.042.054-.096.081-.164.081-.063 0-.115-.024-.157-.072v.253zm.096-.319c.05.044.097.066.142.066.092 0 .139-.071.139-.211 0-.125-.041-.187-.123-.187-.054 0-.107.029-.158.087z" transform="matrix(53.0992 0 0 53.0992 295.5607 123.62)"/><path d="m.485-.017c-.065.019-.12.029-.166.029-.078 0-.142-.026-.191-.078s-.074-.119-.074-.202c0-.08.022-.146.065-.197.044-.052.099-.077.167-.077.064 0 .114.022.149.068.035.045.052.11.052.194v.03h-.335c.014.126.076.189.185.189.04 0 .09-.011.148-.032zm-.328-.305h.234c0-.099-.037-.148-.111-.148s-.115.049-.123.148z" transform="matrix(53.0992 0 0 53.0992 324.7617 123.62)"/><path d="m.096 0v-.53h.096v.099c.038-.074.094-.111.166-.111.01 0 .02.001.031.002v.09c-.016-.005-.031-.008-.044-.008-.061 0-.112.036-.153.108v.35z" transform="matrix(53.0992 0 0 53.0992 350.1257 123.62)"/><path d="m.237.012c-.044 0-.098-.01-.16-.031v-.088c.062.031.117.047.164.047.027 0 .05-.008.069-.023.018-.014.027-.033.027-.056 0-.033-.026-.06-.077-.081l-.056-.024c-.083-.035-.124-.084-.124-.149 0-.046.016-.083.049-.109.032-.027.077-.04.134-.04.03 0 .066.004.11.012l.02.004v.08c-.054-.016-.096-.024-.128-.024-.062 0-.093.023-.093.068 0 .029.024.053.071.073l.046.019c.052.023.09.046.111.07.022.025.033.056.033.093 0 .046-.018.084-.055.114-.037.03-.084.045-.141.045z" transform="matrix(53.0992 0 0 53.0992 367.6337 123.62)"/><path d="m.304.012c-.076 0-.137-.025-.182-.075-.045-.051-.068-.118-.068-.202 0-.085.023-.153.068-.203.046-.049.107-.074.185-.074s.14.025.185.074c.045.05.068.117.068.202 0 .086-.023.155-.068.204-.046.049-.109.074-.188.074zm.001-.072c.102 0 .153-.069.153-.206 0-.136-.05-.204-.151-.204-.1 0-.15.068-.15.205s.049.205.148.205z" transform="matrix(53.0992 0 0 53.0992 390.4827 123.62)"/><path d="m.096 0v-.53h.096v.099c.051-.074.113-.111.187-.111.046 0 .082.015.11.044.027.029.041.068.041.117v.381h-.096v-.35c0-.039-.006-.067-.018-.084-.011-.017-.03-.025-.057-.025-.059 0-.115.039-.167.116v.343z" transform="matrix(53.0992 0 0 53.0992 418.8797 123.62)"/><path d="m.37-.067c-.058.053-.113.079-.167.079-.044 0-.08-.014-.109-.041-.029-.028-.044-.062-.044-.104 0-.058.025-.103.073-.134.049-.031.119-.046.21-.046h.022v-.064c0-.062-.031-.093-.094-.093-.051 0-.106.016-.165.047v-.079c.065-.027.126-.04.182-.04.06 0 .103.013.131.04.029.027.043.068.043.125v.24c0 .055.017.082.05.082.005 0 .011 0 .019-.002l.007.054c-.022.01-.046.015-.072.015-.045 0-.074-.026-.086-.079zm-.015-.053v-.137l-.032-.001c-.052 0-.095.01-.128.03-.032.02-.049.047-.049.079 0 .023.009.043.025.059s.036.024.059.024c.041 0 .082-.018.125-.054z" transform="matrix(53.0992 0 0 53.0992 447.6137 123.62)"/><path d="m.237.012c-.044 0-.098-.01-.16-.031v-.088c.062.031.117.047.164.047.027 0 .05-.008.069-.023.018-.014.027-.033.027-.056 0-.033-.026-.06-.077-.081l-.056-.024c-.083-.035-.124-.084-.124-.149 0-.046.016-.083.049-.109.032-.027.077-.04.134-.04.03 0 .066.004.11.012l.02.004v.08c-.054-.016-.096-.024-.128-.024-.062 0-.093.023-.093.068 0 .029.024.053.071.073l.046.019c.052.023.09.046.111.07.022.025.033.056.033.093 0 .046-.018.084-.055.114-.037.03-.084.045-.141.045z" transform="matrix(53.0992 0 0 53.0992 472.7187 123.62)"/><path d="m500.7714216 117.1949968h6.4250032v6.4250032h-6.4250032z" stroke-width="53.0992"/></g></svg>