<svg clip-rule="evenodd" fill-rule="evenodd" stroke-linejoin="round" stroke-miterlimit="2" viewBox="0 0 243 60" xmlns="http://www.w3.org/2000/svg"><g fill="#649653" fill-rule="nonzero"><path d="m.244-.491c-.046 0-.077.033-.077.078s.031.078.076.078c.046 0 .076-.033.076-.078s-.031-.078-.075-.078zm-.057.217v.021c.002.048-.013.09-.053.136-.043.049-.086.098-.086.171 0 .08.057.152.181.152.063 0 .121-.019.156-.041l-.029-.088c-.026.018-.066.03-.1.03-.056-.001-.083-.029-.083-.071 0-.039.025-.075.063-.12.047-.056.065-.112.061-.164l-.002-.026z" transform="matrix(65.352968949 0 0 65.352968949 -2.29262989 46.22044625)"/><path d="m.673.01c-.055-.01-.12-.024-.178-.04v-.004c.099-.04.174-.149.174-.311 0-.191-.116-.341-.311-.341-.193 0-.322.146-.322.355 0 .219.139.334.295.342.015.001.03.004.044.01.085.033.169.061.263.087zm-.32-.098c-.118 0-.187-.112-.187-.247s.065-.252.188-.252c.122 0 .185.119.185.247 0 .142-.068.252-.186.252z" transform="matrix(65.352968949 0 0 65.352968949 25.678642487 46.22044625)"/><path d="m.502-.487h-.123v.294c0 .014-.002.028-.007.038-.012.032-.044.066-.094.066-.065 0-.091-.052-.091-.133v-.265h-.123v.286c0 .159.081.212.169.212s.136-.05.157-.084h.003l.006.073h.107c-.002-.04-.004-.088-.004-.146z" transform="matrix(65.352968949 0 0 65.352968949 71.948262836 46.22044625)"/><path d="m.479-.209c.002-.011.004-.029.004-.052 0-.107-.052-.237-.21-.237-.156 0-.238.127-.238.262 0 .149.093.246.251.246.07 0 .128-.013.17-.031l-.018-.084c-.038.013-.078.022-.135.022-.079 0-.147-.038-.15-.126zm-.326-.086c.005-.05.037-.119.113-.119.082 0 .102.074.101.119zm.149-.403-.087.148h.085l.122-.148z" transform="matrix(65.352968949 0 0 65.352968949 109.134125918 46.22044625)"/><path d="m.479-.209c.002-.011.004-.029.004-.052 0-.107-.052-.237-.21-.237-.156 0-.238.127-.238.262 0 .149.093.246.251.246.07 0 .128-.013.17-.031l-.018-.084c-.038.013-.078.022-.135.022-.079 0-.147-.038-.15-.126zm-.326-.086c.005-.05.037-.119.113-.119.082 0 .102.074.101.119z" transform="matrix(65.352968949 0 0 65.352968949 156.384580385 46.22044625)"/><path d="m.036-.024c.036.02.089.034.148.034.129 0 .198-.064.198-.153-.001-.072-.041-.117-.13-.148-.062-.023-.085-.037-.085-.068 0-.03.024-.052.068-.052.043 0 .083.016.103.028l.025-.086c-.029-.016-.076-.029-.13-.029-.113 0-.184.066-.184.152 0 .058.039.11.134.142.06.022.08.038.08.071 0 .032-.024.055-.078.055-.044 0-.097-.019-.124-.036z" transform="matrix(65.352968949 0 0 65.352968949 190.10752403 46.22044625)"/><path d="m.248-.206v-.022c-.002-.048.013-.089.053-.135.043-.049.086-.098.086-.171 0-.08-.057-.152-.181-.152-.064 0-.121.018-.157.041l.03.088c.025-.019.065-.03.1-.03.056.001.083.029.083.071 0 .039-.026.074-.064.12-.047.056-.065.111-.06.164l.001.026zm-.058.217c.047 0 .077-.034.077-.078-.001-.046-.031-.078-.076-.078-.044 0-.076.032-.076.078 0 .044.031.078.075.078z" transform="matrix(65.352968949 0 0 65.352968949 217.35754583 46.22044625)"/></g></svg>