<?xml version="1.0" encoding="UTF-8" standalone="no"?>
<!DOCTYPE svg PUBLIC "-//W3C//DTD SVG 1.1//EN" "http://www.w3.org/Graphics/SVG/1.1/DTD/svg11.dtd">
<svg width="100%" height="100%" viewBox="0 0 622 104" version="1.1" xmlns="http://www.w3.org/2000/svg" xmlns:xlink="http://www.w3.org/1999/xlink" xml:space="preserve" xmlns:serif="http://www.serif.com/" style="fill-rule:evenodd;clip-rule:evenodd;stroke-linejoin:round;stroke-miterlimit:2;">
    <g transform="matrix(1,0,0,1,-938,-3000)">
        <g transform="matrix(1,0,0,1,0,1374.98)">
            <g transform="matrix(-4.16667,0,0,4.16667,2498.69,165.004)">
                <rect x="225.343" y="350.566" width="149" height="24.621" style="fill:rgb(128,190,182);"/>
            </g>
            <g transform="matrix(59.8875,0,0,65.3529,1003.55,1699.78)">
                <path d="M0.244,-0.491C0.198,-0.491 0.167,-0.458 0.167,-0.413C0.167,-0.368 0.198,-0.335 0.243,-0.335C0.289,-0.335 0.319,-0.368 0.319,-0.413C0.319,-0.458 0.288,-0.491 0.244,-0.491ZM0.187,-0.274L0.187,-0.253C0.189,-0.205 0.174,-0.163 0.134,-0.117C0.091,-0.068 0.048,-0.019 0.048,0.054C0.048,0.134 0.105,0.206 0.229,0.206C0.292,0.206 0.35,0.187 0.385,0.165L0.356,0.077C0.33,0.095 0.29,0.107 0.256,0.107C0.2,0.106 0.173,0.078 0.173,0.036C0.173,-0.003 0.198,-0.039 0.236,-0.084C0.283,-0.14 0.301,-0.196 0.297,-0.248L0.295,-0.274L0.187,-0.274Z" style="fill:white;fill-rule:nonzero;"/>
            </g>
            <g transform="matrix(59.8875,0,0,65.3529,1029.18,1699.78)">
                <path d="M0.534,-0.116C0.501,-0.102 0.449,-0.092 0.4,-0.092C0.251,-0.092 0.165,-0.186 0.165,-0.335C0.165,-0.497 0.264,-0.583 0.401,-0.583C0.456,-0.583 0.501,-0.571 0.533,-0.557L0.559,-0.655C0.534,-0.668 0.477,-0.685 0.396,-0.685C0.19,-0.685 0.035,-0.551 0.035,-0.329C0.035,-0.123 0.165,0.011 0.379,0.011C0.461,0.011 0.525,-0.005 0.554,-0.019L0.534,-0.116Z" style="fill:white;fill-rule:nonzero;"/>
            </g>
            <g transform="matrix(59.8875,0,0,65.3529,1063.35,1699.78)">
                <path d="M0.287,-0.498C0.14,-0.498 0.035,-0.4 0.035,-0.24C0.035,-0.083 0.142,0.011 0.279,0.011C0.403,0.011 0.529,-0.069 0.529,-0.248C0.529,-0.396 0.432,-0.498 0.287,-0.498ZM0.284,-0.409C0.368,-0.409 0.402,-0.321 0.402,-0.245C0.402,-0.146 0.353,-0.078 0.283,-0.078C0.209,-0.078 0.162,-0.149 0.162,-0.243C0.162,-0.324 0.197,-0.409 0.284,-0.409ZM0.308,-0.698L0.221,-0.55L0.306,-0.55L0.428,-0.698L0.308,-0.698Z" style="fill:white;fill-rule:nonzero;"/>
            </g>
            <g transform="matrix(59.8875,0,0,65.3529,1097.13,1699.78)">
                <path d="M0.066,0L0.186,0L0.186,-0.288C0.186,-0.302 0.188,-0.316 0.192,-0.329C0.204,-0.362 0.235,-0.398 0.281,-0.398C0.338,-0.398 0.365,-0.35 0.365,-0.282L0.365,0L0.485,0L0.485,-0.292C0.485,-0.306 0.487,-0.322 0.491,-0.333C0.504,-0.368 0.535,-0.398 0.577,-0.398C0.636,-0.398 0.664,-0.35 0.664,-0.269L0.664,0L0.784,0L0.784,-0.287C0.784,-0.443 0.702,-0.498 0.622,-0.498C0.581,-0.498 0.55,-0.488 0.522,-0.469C0.5,-0.455 0.48,-0.435 0.463,-0.408L0.461,-0.408C0.44,-0.462 0.39,-0.498 0.326,-0.498C0.243,-0.498 0.199,-0.453 0.176,-0.415L0.173,-0.415L0.167,-0.487L0.062,-0.487C0.064,-0.445 0.066,-0.398 0.066,-0.342L0.066,0Z" style="fill:white;fill-rule:nonzero;"/>
            </g>
            <g transform="matrix(59.8875,0,0,65.3529,1147.91,1699.78)">
                <path d="M0.287,-0.498C0.14,-0.498 0.035,-0.4 0.035,-0.24C0.035,-0.083 0.142,0.011 0.279,0.011C0.403,0.011 0.529,-0.069 0.529,-0.248C0.529,-0.396 0.432,-0.498 0.287,-0.498ZM0.284,-0.409C0.368,-0.409 0.402,-0.321 0.402,-0.245C0.402,-0.146 0.353,-0.078 0.283,-0.078C0.209,-0.078 0.162,-0.149 0.162,-0.243C0.162,-0.324 0.197,-0.409 0.284,-0.409Z" style="fill:white;fill-rule:nonzero;"/>
            </g>
            <g transform="matrix(59.8875,0,0,65.3529,1194.09,1699.78)">
                <path d="M0.036,-0.024C0.072,-0.004 0.125,0.01 0.184,0.01C0.313,0.01 0.382,-0.054 0.382,-0.143C0.381,-0.215 0.341,-0.26 0.252,-0.291C0.19,-0.314 0.167,-0.328 0.167,-0.359C0.167,-0.389 0.191,-0.411 0.235,-0.411C0.278,-0.411 0.318,-0.395 0.338,-0.383L0.363,-0.469C0.334,-0.485 0.287,-0.498 0.233,-0.498C0.12,-0.498 0.049,-0.432 0.049,-0.346C0.049,-0.288 0.088,-0.236 0.183,-0.204C0.243,-0.182 0.263,-0.166 0.263,-0.133C0.263,-0.101 0.239,-0.078 0.185,-0.078C0.141,-0.078 0.088,-0.097 0.061,-0.114L0.036,-0.024Z" style="fill:white;fill-rule:nonzero;"/>
            </g>
            <g transform="matrix(59.8875,0,0,65.3529,1219.06,1699.78)">
                <path d="M0.479,-0.209C0.481,-0.22 0.483,-0.238 0.483,-0.261C0.483,-0.368 0.431,-0.498 0.273,-0.498C0.117,-0.498 0.035,-0.371 0.035,-0.236C0.035,-0.087 0.128,0.01 0.286,0.01C0.356,0.01 0.414,-0.003 0.456,-0.021L0.438,-0.105C0.4,-0.092 0.36,-0.083 0.303,-0.083C0.224,-0.083 0.156,-0.121 0.153,-0.209L0.479,-0.209ZM0.153,-0.295C0.158,-0.345 0.19,-0.414 0.266,-0.414C0.348,-0.414 0.368,-0.34 0.367,-0.295L0.153,-0.295Z" style="fill:white;fill-rule:nonzero;"/>
            </g>
            <g transform="matrix(59.8875,0,0,65.3529,1262.36,1699.78)">
                <path d="M0.407,-0.106C0.383,-0.096 0.352,-0.087 0.31,-0.087C0.226,-0.087 0.161,-0.144 0.161,-0.244C0.16,-0.333 0.216,-0.402 0.31,-0.402C0.354,-0.402 0.383,-0.393 0.403,-0.383L0.425,-0.476C0.397,-0.488 0.351,-0.498 0.306,-0.498C0.135,-0.498 0.035,-0.385 0.035,-0.239C0.035,-0.088 0.134,0.01 0.286,0.01C0.347,0.01 0.398,-0.003 0.424,-0.015L0.407,-0.106Z" style="fill:white;fill-rule:nonzero;"/>
            </g>
            <g transform="matrix(59.8875,0,0,65.3529,1288.66,1699.78)">
                <path d="M0.287,-0.498C0.14,-0.498 0.035,-0.4 0.035,-0.24C0.035,-0.083 0.142,0.011 0.279,0.011C0.403,0.011 0.529,-0.069 0.529,-0.248C0.529,-0.396 0.432,-0.498 0.287,-0.498ZM0.284,-0.409C0.368,-0.409 0.402,-0.321 0.402,-0.245C0.402,-0.146 0.353,-0.078 0.283,-0.078C0.209,-0.078 0.162,-0.149 0.162,-0.243C0.162,-0.324 0.197,-0.409 0.284,-0.409Z" style="fill:white;fill-rule:nonzero;"/>
            </g>
            <g transform="matrix(59.8875,0,0,65.3529,1322.44,1699.78)">
                <path d="M0.066,0L0.189,0L0.189,-0.287C0.189,-0.301 0.191,-0.316 0.195,-0.326C0.208,-0.363 0.242,-0.398 0.291,-0.398C0.358,-0.398 0.384,-0.345 0.384,-0.275L0.384,0L0.507,0L0.507,-0.289C0.507,-0.443 0.419,-0.498 0.334,-0.498C0.253,-0.498 0.2,-0.452 0.178,-0.414L0.175,-0.414L0.169,-0.487L0.062,-0.487C0.064,-0.445 0.066,-0.398 0.066,-0.342L0.066,0Z" style="fill:white;fill-rule:nonzero;"/>
            </g>
            <g transform="matrix(59.8875,0,0,65.3529,1356.37,1699.78)">
                <path d="M0.086,-0.578L0.086,-0.487L0.017,-0.487L0.017,-0.395L0.086,-0.395L0.086,-0.166C0.086,-0.102 0.098,-0.057 0.125,-0.029C0.148,-0.004 0.185,0.011 0.231,0.011C0.269,0.011 0.302,0.005 0.32,-0.002L0.318,-0.095C0.304,-0.091 0.292,-0.09 0.27,-0.09C0.223,-0.09 0.207,-0.12 0.207,-0.18L0.207,-0.395L0.324,-0.395L0.324,-0.487L0.207,-0.487L0.207,-0.612L0.086,-0.578Z" style="fill:white;fill-rule:nonzero;"/>
            </g>
            <g transform="matrix(59.8875,0,0,65.3529,1377.39,1699.78)">
                <path d="M0.444,-0.292C0.444,-0.399 0.399,-0.498 0.243,-0.498C0.166,-0.498 0.103,-0.477 0.067,-0.455L0.091,-0.375C0.124,-0.396 0.174,-0.411 0.222,-0.411C0.308,-0.411 0.321,-0.358 0.321,-0.326L0.321,-0.318C0.141,-0.319 0.032,-0.256 0.032,-0.134C0.032,-0.06 0.087,0.011 0.185,0.011C0.249,0.011 0.3,-0.016 0.329,-0.054L0.332,-0.054L0.341,0L0.452,0C0.446,-0.03 0.444,-0.073 0.444,-0.117L0.444,-0.292ZM0.324,-0.171C0.324,-0.162 0.324,-0.153 0.321,-0.144C0.309,-0.109 0.274,-0.077 0.224,-0.077C0.185,-0.077 0.154,-0.099 0.154,-0.147C0.154,-0.221 0.237,-0.239 0.324,-0.238L0.324,-0.171Z" style="fill:white;fill-rule:nonzero;"/>
            </g>
            <g transform="matrix(59.8875,0,0,65.3529,1407.81,1699.78)">
                <path d="M0.507,-0.347C0.507,-0.414 0.509,-0.454 0.511,-0.487L0.404,-0.487L0.399,-0.422L0.397,-0.422C0.374,-0.462 0.331,-0.498 0.256,-0.498C0.139,-0.498 0.035,-0.401 0.035,-0.241C0.035,-0.103 0.121,-0.003 0.242,-0.003C0.307,-0.003 0.356,-0.032 0.384,-0.075L0.386,-0.075L0.386,-0.033C0.386,0.072 0.326,0.114 0.246,0.114C0.187,0.114 0.135,0.095 0.104,0.077L0.077,0.17C0.119,0.195 0.185,0.209 0.247,0.209C0.314,0.209 0.385,0.195 0.435,0.15C0.486,0.104 0.507,0.031 0.507,-0.071L0.507,-0.347ZM0.384,-0.213C0.384,-0.199 0.383,-0.182 0.379,-0.17C0.365,-0.125 0.325,-0.095 0.279,-0.095C0.202,-0.095 0.16,-0.162 0.16,-0.245C0.16,-0.344 0.211,-0.404 0.28,-0.404C0.332,-0.404 0.367,-0.37 0.38,-0.325C0.383,-0.315 0.384,-0.304 0.384,-0.292L0.384,-0.213Z" style="fill:white;fill-rule:nonzero;"/>
            </g>
            <g transform="matrix(59.8875,0,0,65.3529,1441.87,1699.78)">
                <path d="M0.189,0L0.189,-0.487L0.066,-0.487L0.066,0L0.189,0ZM0.128,-0.69C0.087,-0.69 0.059,-0.661 0.059,-0.623C0.059,-0.587 0.086,-0.557 0.127,-0.557C0.17,-0.557 0.197,-0.587 0.197,-0.623C0.196,-0.661 0.17,-0.69 0.128,-0.69Z" style="fill:white;fill-rule:nonzero;"/>
            </g>
            <g transform="matrix(59.8875,0,0,65.3529,1457.2,1699.78)">
                <path d="M0.444,-0.292C0.444,-0.399 0.399,-0.498 0.243,-0.498C0.166,-0.498 0.103,-0.477 0.067,-0.455L0.091,-0.375C0.124,-0.396 0.174,-0.411 0.222,-0.411C0.308,-0.411 0.321,-0.358 0.321,-0.326L0.321,-0.318C0.141,-0.319 0.032,-0.256 0.032,-0.134C0.032,-0.06 0.087,0.011 0.185,0.011C0.249,0.011 0.3,-0.016 0.329,-0.054L0.332,-0.054L0.341,0L0.452,0C0.446,-0.03 0.444,-0.073 0.444,-0.117L0.444,-0.292ZM0.324,-0.171C0.324,-0.162 0.324,-0.153 0.321,-0.144C0.309,-0.109 0.274,-0.077 0.224,-0.077C0.185,-0.077 0.154,-0.099 0.154,-0.147C0.154,-0.221 0.237,-0.239 0.324,-0.238L0.324,-0.171Z" style="fill:white;fill-rule:nonzero;"/>
            </g>
            <g transform="matrix(59.8875,0,0,65.3529,1487.62,1699.78)">
                <path d="M0.248,-0.206L0.248,-0.228C0.246,-0.276 0.261,-0.317 0.301,-0.363C0.344,-0.412 0.387,-0.461 0.387,-0.534C0.387,-0.614 0.33,-0.686 0.206,-0.686C0.142,-0.686 0.085,-0.668 0.049,-0.645L0.079,-0.557C0.104,-0.576 0.144,-0.587 0.179,-0.587C0.235,-0.586 0.262,-0.558 0.262,-0.516C0.262,-0.477 0.236,-0.442 0.198,-0.396C0.151,-0.34 0.133,-0.285 0.138,-0.232L0.139,-0.206L0.248,-0.206ZM0.19,0.011C0.237,0.011 0.267,-0.023 0.267,-0.067C0.266,-0.113 0.236,-0.145 0.191,-0.145C0.147,-0.145 0.115,-0.113 0.115,-0.067C0.115,-0.023 0.146,0.011 0.19,0.011Z" style="fill:white;fill-rule:nonzero;"/>
            </g>
        </g>
    </g>
</svg>
