<svg clip-rule="evenodd" fill-rule="evenodd" stroke-linejoin="round" stroke-miterlimit="2" viewBox="0 0 635 104" xmlns="http://www.w3.org/2000/svg"><path d="m215.482 553.282h152.118v24.621h-152.118z" fill="#80beb6" transform="matrix(-4.16667 0 0 4.16667 1532.51 -2304.64)"/><g fill="#fff" fill-rule="nonzero"><path d="m.244-.491c-.046 0-.077.033-.077.078s.031.078.076.078c.046 0 .076-.033.076-.078s-.031-.078-.075-.078zm-.057.217v.021c.002.048-.013.09-.053.136-.043.049-.086.098-.086.171 0 .08.057.152.181.152.063 0 .121-.019.156-.041l-.029-.088c-.026.018-.066.03-.1.03-.056-.001-.083-.029-.083-.071 0-.039.025-.075.063-.12.047-.056.065-.112.061-.164l-.002-.026z" transform="matrix(55.2079 0 0 65.3529 14.391 66.817)"/><path d="m.534-.116c-.033.014-.085.024-.134.024-.149 0-.235-.094-.235-.243 0-.162.099-.248.236-.248.055 0 .1.012.132.026l.026-.098c-.025-.013-.082-.03-.163-.03-.206 0-.361.134-.361.356 0 .206.13.34.344.34.082 0 .146-.016.175-.03z" transform="matrix(55.2079 0 0 65.3529 38.02 66.817)"/><path d="m.502-.487h-.123v.294c0 .014-.002.028-.007.038-.012.032-.044.066-.094.066-.065 0-.091-.052-.091-.133v-.265h-.123v.286c0 .159.081.212.169.212s.136-.05.157-.084h.003l.006.073h.107c-.002-.04-.004-.088-.004-.146z" transform="matrix(55.2079 0 0 65.3529 69.436 66.817)"/><path d="m.444-.292c0-.107-.045-.206-.201-.206-.077 0-.14.021-.176.043l.024.08c.033-.021.083-.036.131-.036.086 0 .099.053.099.085v.008c-.18-.001-.289.062-.289.184 0 .074.055.145.153.145.064 0 .115-.027.144-.065h.003l.009.054h.111c-.006-.03-.008-.073-.008-.117zm-.12.121c0 .009 0 .018-.003.027-.012.035-.047.067-.097.067-.039 0-.07-.022-.07-.07 0-.074.083-.092.17-.091zm-.045-.527-.087.148h.085l.122-.148z" transform="matrix(55.2079 0 0 65.3529 100.85 66.817)"/><path d="m.066-.71h.123v.71h-.123z" transform="matrix(55.2079 0 0 65.3529 128.9 66.817)"/><path d="m.479-.209c.002-.011.004-.029.004-.052 0-.107-.052-.237-.21-.237-.156 0-.238.127-.238.262 0 .149.093.246.251.246.07 0 .128-.013.17-.031l-.018-.084c-.038.013-.078.022-.135.022-.079 0-.147-.038-.15-.126zm-.326-.086c.005-.05.037-.119.113-.119.082 0 .102.074.101.119z" transform="matrix(55.2079 0 0 65.3529 143.08 66.817)"/><path d="m.036-.024c.036.02.089.034.148.034.129 0 .198-.064.198-.153-.001-.072-.041-.117-.13-.148-.062-.023-.085-.037-.085-.068 0-.03.024-.052.068-.052.043 0 .083.016.103.028l.025-.086c-.029-.016-.076-.029-.13-.029-.113 0-.184.066-.184.152 0 .058.039.11.134.142.06.022.08.038.08.071 0 .032-.024.055-.078.055-.044 0-.097-.019-.124-.036z" transform="matrix(55.2079 0 0 65.3529 171.57 66.817)"/><path d="m.036-.024c.036.02.089.034.148.034.129 0 .198-.064.198-.153-.001-.072-.041-.117-.13-.148-.062-.023-.085-.037-.085-.068 0-.03.024-.052.068-.052.043 0 .083.016.103.028l.025-.086c-.029-.016-.076-.029-.13-.029-.113 0-.184.066-.184.152 0 .058.039.11.134.142.06.022.08.038.08.071 0 .032-.024.055-.078.055-.044 0-.097-.019-.124-.036z" transform="matrix(55.2079 0 0 65.3529 206.02 66.817)"/><path d="m.287-.498c-.147 0-.252.098-.252.258 0 .157.107.251.244.251.124 0 .25-.08.25-.259 0-.148-.097-.25-.242-.25zm-.003.089c.084 0 .118.088.118.164 0 .099-.049.167-.119.167-.074 0-.121-.071-.121-.165 0-.081.035-.166.122-.166z" transform="matrix(55.2079 0 0 65.3529 229.04 66.817)"/><path d="m.066 0h.123v-.287c0-.014.002-.029.006-.039.013-.037.047-.072.096-.072.067 0 .093.053.093.123v.275h.123v-.289c0-.154-.088-.209-.173-.209-.081 0-.134.046-.156.084h-.003l-.006-.073h-.107c.002.042.004.089.004.145z" transform="matrix(55.2079 0 0 65.3529 260.18 66.817)"/><path d="m.066-.71h.123v.71h-.123z" transform="matrix(55.2079 0 0 65.3529 303.19 66.817)"/><path d="m.287-.498c-.147 0-.252.098-.252.258 0 .157.107.251.244.251.124 0 .25-.08.25-.259 0-.148-.097-.25-.242-.25zm-.003.089c.084 0 .118.088.118.164 0 .099-.049.167-.119.167-.074 0-.121-.071-.121-.165 0-.081.035-.166.122-.166z" transform="matrix(55.2079 0 0 65.3529 317.38 66.817)"/><path d="m.036-.024c.036.02.089.034.148.034.129 0 .198-.064.198-.153-.001-.072-.041-.117-.13-.148-.062-.023-.085-.037-.085-.068 0-.03.024-.052.068-.052.043 0 .083.016.103.028l.025-.086c-.029-.016-.076-.029-.13-.029-.113 0-.184.066-.184.152 0 .058.039.11.134.142.06.022.08.038.08.071 0 .032-.024.055-.078.055-.044 0-.097-.019-.124-.036z" transform="matrix(55.2079 0 0 65.3529 348.51 66.817)"/><path d="m.036-.024c.036.02.089.034.148.034.129 0 .198-.064.198-.153-.001-.072-.041-.117-.13-.148-.062-.023-.085-.037-.085-.068 0-.03.024-.052.068-.052.043 0 .083.016.103.028l.025-.086c-.029-.016-.076-.029-.13-.029-.113 0-.184.066-.184.152 0 .058.039.11.134.142.06.022.08.038.08.071 0 .032-.024.055-.078.055-.044 0-.097-.019-.124-.036z" transform="matrix(55.2079 0 0 65.3529 382.96 66.817)"/><path d="m.189 0v-.487h-.123v.487zm-.032-.698-.086.148h.085l.122-.148z" transform="matrix(55.2079 0 0 65.3529 405.98 66.817)"/><path d="m.066 0h.123v-.287c0-.014.002-.029.006-.039.013-.037.047-.072.096-.072.067 0 .093.053.093.123v.275h.123v-.289c0-.154-.088-.209-.173-.209-.081 0-.134.046-.156.084h-.003l-.006-.073h-.107c.002.042.004.089.004.145z" transform="matrix(55.2079 0 0 65.3529 420.12 66.817)"/><path d="m.086-.578v.091h-.069v.092h.069v.229c0 .064.012.109.039.137.023.025.06.04.106.04.038 0 .071-.006.089-.013l-.002-.093c-.014.004-.026.005-.048.005-.047 0-.063-.03-.063-.09v-.215h.117v-.092h-.117v-.125z" transform="matrix(55.2079 0 0 65.3529 451.37 66.817)"/><path d="m.287-.498c-.147 0-.252.098-.252.258 0 .157.107.251.244.251.124 0 .25-.08.25-.259 0-.148-.097-.25-.242-.25zm-.003.089c.084 0 .118.088.118.164 0 .099-.049.167-.119.167-.074 0-.121-.071-.121-.165 0-.081.035-.166.122-.166z" transform="matrix(55.2079 0 0 65.3529 470.36 66.817)"/><path d="m.066 0h.12v-.288c0-.014.002-.028.006-.041.012-.033.043-.069.089-.069.057 0 .084.048.084.116v.282h.12v-.292c0-.014.002-.03.006-.041.013-.035.044-.065.086-.065.059 0 .087.048.087.129v.269h.12v-.287c0-.156-.082-.211-.162-.211-.041 0-.072.01-.1.029-.022.014-.042.034-.059.061h-.002c-.021-.054-.071-.09-.135-.09-.083 0-.127.045-.15.083h-.003l-.006-.072h-.105c.002.042.004.089.004.145z" transform="matrix(55.2079 0 0 65.3529 501.49 66.817)"/><path d="m.444-.292c0-.107-.045-.206-.201-.206-.077 0-.14.021-.176.043l.024.08c.033-.021.083-.036.131-.036.086 0 .099.053.099.085v.008c-.18-.001-.289.062-.289.184 0 .074.055.145.153.145.064 0 .115-.027.144-.065h.003l.009.054h.111c-.006-.03-.008-.073-.008-.117zm-.12.121c0 .009 0 .018-.003.027-.012.035-.047.067-.097.067-.039 0-.07-.022-.07-.07 0-.074.083-.092.17-.091z" transform="matrix(55.2079 0 0 65.3529 548.31 66.817)"/><path d="m.036-.024c.036.02.089.034.148.034.129 0 .198-.064.198-.153-.001-.072-.041-.117-.13-.148-.062-.023-.085-.037-.085-.068 0-.03.024-.052.068-.052.043 0 .083.016.103.028l.025-.086c-.029-.016-.076-.029-.13-.029-.113 0-.184.066-.184.152 0 .058.039.11.134.142.06.022.08.038.08.071 0 .032-.024.055-.078.055-.044 0-.097-.019-.124-.036z" transform="matrix(55.2079 0 0 65.3529 576.35 66.817)"/><path d="m.248-.206v-.022c-.002-.048.013-.089.053-.135.043-.049.086-.098.086-.171 0-.08-.057-.152-.181-.152-.064 0-.121.018-.157.041l.03.088c.025-.019.065-.03.1-.03.056.001.083.029.083.071 0 .039-.026.074-.064.12-.047.056-.065.111-.06.164l.001.026zm-.058.217c.047 0 .077-.034.077-.078-.001-.046-.031-.078-.076-.078-.044 0-.076.032-.076.078 0 .044.031.078.075.078z" transform="matrix(55.2079 0 0 65.3529 599.38 66.817)"/></g></svg>