<svg clip-rule="evenodd" fill-rule="evenodd" stroke-linejoin="round" stroke-miterlimit="2" viewBox="0 0 601 149" xmlns="http://www.w3.org/2000/svg"><g fill="#231f20" fill-rule="nonzero"><path d="m.235.018c-.049 0-.111-.011-.186-.032v-.101c.081.038.148.056.201.056.04 0 .072-.01.097-.031s.037-.049.037-.084c0-.028-.008-.052-.024-.072s-.046-.042-.089-.067l-.05-.028c-.062-.035-.105-.069-.13-.1-.026-.031-.038-.067-.038-.108 0-.056.02-.102.06-.138.041-.036.092-.054.155-.054.055 0 .114.01.176.028v.094c-.076-.03-.133-.045-.171-.045-.035 0-.064.009-.087.028-.024.019-.035.043-.035.072 0 .024.008.045.025.064.017.018.048.04.093.066l.052.029c.062.036.106.069.131.101.024.031.037.069.037.114 0 .062-.023.113-.07.151-.046.038-.108.057-.184.057z" transform="matrix(53.099209146 0 0 53.099209146 -1.79098844 41.48878913)"/><path d="m.096 0v-.53h.096v.53zm0-.626v-.097h.096v.097z" transform="matrix(53.099209146 0 0 53.099209146 23.29653163 41.48878913)"/><path d="m.098.176.011-.083c.056.026.111.039.165.039.108 0 .163-.057.163-.172v-.084c-.036.075-.094.112-.175.112-.064 0-.114-.023-.152-.07-.037-.046-.056-.108-.056-.187 0-.08.022-.146.064-.197.043-.051.098-.076.166-.076.059 0 .11.024.153.072v-.06h.096v.385c0 .083-.004.145-.013.185-.008.04-.025.072-.048.098-.042.044-.108.067-.196.067-.062 0-.121-.01-.178-.029zm.339-.36v-.22c-.043-.044-.089-.066-.139-.066-.044 0-.079.018-.104.053-.025.036-.037.085-.037.146 0 .117.041.175.122.175.056 0 .108-.029.158-.088z" transform="matrix(53.099209146 0 0 53.099209146 35.1340411 41.48878913)"/><path d="m.428 0v-.1c-.051.075-.113.112-.186.112-.047 0-.083-.014-.111-.043-.027-.03-.041-.069-.041-.118v-.381h.097v.349c0 .04.005.068.017.085.011.017.031.025.058.025.058 0 .114-.038.166-.116v-.343h.096v.53z" transform="matrix(53.099209146 0 0 53.099209146 64.72989811 41.48878913)"/><path d="m.485-.017c-.065.019-.12.029-.166.029-.078 0-.142-.026-.191-.078s-.074-.119-.074-.202c0-.08.022-.146.065-.197.044-.052.099-.077.167-.077.064 0 .114.022.149.068.035.045.052.11.052.194v.03h-.335c.014.126.076.189.185.189.04 0 .09-.011.148-.032zm-.328-.305h.234c0-.099-.037-.148-.111-.148s-.115.049-.123.148z" transform="matrix(53.099209146 0 0 53.099209146 94.17158833 41.48878913)"/><path d="m138.63164389802.54929887843h5.09752407802v40.93949025157h-5.09752407802z" stroke-width="53.099209146"/><path d="m.37-.067c-.058.053-.113.079-.167.079-.044 0-.08-.014-.109-.041-.029-.028-.044-.062-.044-.104 0-.058.025-.103.073-.134.049-.031.119-.046.21-.046h.022v-.064c0-.062-.031-.093-.094-.093-.051 0-.106.016-.165.047v-.079c.065-.027.126-.04.182-.04.06 0 .103.013.131.04.029.027.043.068.043.125v.24c0 .055.017.082.05.082.005 0 .011 0 .019-.002l.007.054c-.022.01-.046.015-.072.015-.045 0-.074-.026-.086-.079zm-.015-.053v-.137l-.032-.001c-.052 0-.095.01-.128.03-.032.02-.049.047-.049.079 0 .023.009.043.025.059s.036.024.059.024c.041 0 .082-.018.125-.054z" transform="matrix(53.099209146 0 0 53.099209146 145.36746262 41.48878913)"/><path d="m.237.012c-.044 0-.098-.01-.16-.031v-.088c.062.031.117.047.164.047.027 0 .05-.008.069-.023.018-.014.027-.033.027-.056 0-.033-.026-.06-.077-.081l-.056-.024c-.083-.035-.124-.084-.124-.149 0-.046.016-.083.049-.109.032-.027.077-.04.134-.04.03 0 .066.004.11.012l.02.004v.08c-.054-.016-.096-.024-.128-.024-.062 0-.093.023-.093.068 0 .029.024.053.071.073l.046.019c.052.023.09.046.111.07.022.025.033.056.033.093 0 .046-.018.084-.055.114-.037.03-.084.045-.141.045z" transform="matrix(53.099209146 0 0 53.099209146 171.17998327 41.48878913)"/><path d="m.096 0v-.53h.096v.53zm0-.626v-.097h.096v.097z" transform="matrix(53.099209146 0 0 53.099209146 204.02167621 41.48878913)"/><path d="m.096 0v-.53h.096v.099c.051-.074.113-.111.187-.111.046 0 .082.015.11.044.027.029.041.068.041.117v.381h-.096v-.35c0-.039-.006-.067-.018-.084-.011-.017-.03-.025-.057-.025-.059 0-.115.039-.167.116v.343z" transform="matrix(53.099209146 0 0 53.099209146 215.85918568 41.48878913)"/><path d="m.437 0v-.1c-.04.075-.098.112-.177.112-.064 0-.114-.023-.151-.07-.036-.046-.055-.11-.055-.191 0-.088.021-.159.062-.212.042-.054.097-.081.164-.081.063 0 .115.024.157.072v-.301h.096v.771zm0-.404c-.05-.044-.097-.066-.142-.066-.092 0-.138.071-.138.212 0 .124.041.186.123.186.053 0 .105-.029.157-.088z" transform="matrix(53.099209146 0 0 53.099209146 245.3008759 41.48878913)"/><path d="m.096 0v-.53h.096v.53zm0-.626v-.097h.096v.097z" transform="matrix(53.099209146 0 0 53.099209146 275.20923316 41.48878913)"/><path d="m.303.012c-.071 0-.131-.026-.178-.079s-.071-.12-.071-.201c0-.086.024-.154.07-.202.047-.048.112-.072.196-.072.041 0 .087.006.138.017v.081c-.054-.016-.098-.024-.132-.024-.049 0-.089.018-.119.055s-.044.086-.044.148c0 .059.015.108.045.144.031.037.071.056.121.056.044 0 .089-.012.135-.034v.083c-.062.019-.116.028-.161.028z" transform="matrix(53.099209146 0 0 53.099209146 287.04674263 41.48878913)"/><path d="m.37-.067c-.058.053-.113.079-.167.079-.044 0-.08-.014-.109-.041-.029-.028-.044-.062-.044-.104 0-.058.025-.103.073-.134.049-.031.119-.046.21-.046h.022v-.064c0-.062-.031-.093-.094-.093-.051 0-.106.016-.165.047v-.079c.065-.027.126-.04.182-.04.06 0 .103.013.131.04.029.027.043.068.043.125v.24c0 .055.017.082.05.082.005 0 .011 0 .019-.002l.007.054c-.022.01-.046.015-.072.015-.045 0-.074-.026-.086-.079zm-.015-.053v-.137l-.032-.001c-.052 0-.095.01-.128.03-.032.02-.049.047-.049.079 0 .023.009.043.025.059s.036.024.059.024c.041 0 .082-.018.125-.054z" transform="matrix(53.099209146 0 0 53.099209146 310.73426158 41.48878913)"/><path d="m.303.012c-.071 0-.131-.026-.178-.079s-.071-.12-.071-.201c0-.086.024-.154.07-.202.047-.048.112-.072.196-.072.041 0 .087.006.138.017v.081c-.054-.016-.098-.024-.132-.024-.049 0-.089.018-.119.055s-.044.086-.044.148c0 .059.015.108.045.144.031.037.071.056.121.056.044 0 .089-.012.135-.034v.083c-.062.019-.116.028-.161.028z" transform="matrix(53.099209146 0 0 53.099209146 336.54678223 41.48878913)"/><path d="m.096 0v-.53h.096v.53zm0-.626v-.097h.096v.097z" transform="matrix(53.099209146 0 0 53.099209146 360.23013451 41.48878913)"/><path d="m.304.012c-.076 0-.137-.025-.182-.075-.045-.051-.068-.118-.068-.202 0-.085.023-.153.068-.203.046-.049.107-.074.185-.074s.14.025.185.074c.045.05.068.117.068.202 0 .086-.023.155-.068.204-.046.049-.109.074-.188.074zm.001-.072c.102 0 .153-.069.153-.206 0-.136-.05-.204-.151-.204-.1 0-.15.068-.15.205s.049.205.148.205z" transform="matrix(53.099209146 0 0 53.099209146 372.06764398 41.48878913)"/><path d="m.096 0v-.53h.096v.099c.051-.074.113-.111.187-.111.046 0 .082.015.11.044.027.029.041.068.041.117v.381h-.096v-.35c0-.039-.006-.067-.018-.084-.011-.017-.03-.025-.057-.025-.059 0-.115.039-.167.116v.343z" transform="matrix(53.099209146 0 0 53.099209146 401.17183393 41.48878913)"/><path d="m.485-.017c-.065.019-.12.029-.166.029-.078 0-.142-.026-.191-.078s-.074-.119-.074-.202c0-.08.022-.146.065-.197.044-.052.099-.077.167-.077.064 0 .114.022.149.068.035.045.052.11.052.194v.03h-.335c.014.126.076.189.185.189.04 0 .09-.011.148-.032zm-.328-.305h.234c0-.099-.037-.148-.111-.148s-.115.049-.123.148z" transform="matrix(53.099209146 0 0 53.099209146 430.61352415 41.48878913)"/><path d="m.237.012c-.044 0-.098-.01-.16-.031v-.088c.062.031.117.047.164.047.027 0 .05-.008.069-.023.018-.014.027-.033.027-.056 0-.033-.026-.06-.077-.081l-.056-.024c-.083-.035-.124-.084-.124-.149 0-.046.016-.083.049-.109.032-.027.077-.04.134-.04.03 0 .066.004.11.012l.02.004v.08c-.054-.016-.096-.024-.128-.024-.062 0-.093.023-.093.068 0 .029.024.053.071.073l.046.019c.052.023.09.046.111.07.022.025.033.056.033.093 0 .046-.018.084-.055.114-.037.03-.084.045-.141.045z" transform="matrix(53.099209146 0 0 53.099209146 456.68437834 41.48878913)"/><path d="m.437 0v-.1c-.04.075-.098.112-.177.112-.064 0-.114-.023-.151-.07-.036-.046-.055-.11-.055-.191 0-.088.021-.159.062-.212.042-.054.097-.081.164-.081.063 0 .115.024.157.072v-.301h.096v.771zm0-.404c-.05-.044-.097-.066-.142-.066-.092 0-.138.071-.138.212 0 .124.041.186.123.186.053 0 .105-.029.157-.088z" transform="matrix(53.099209146 0 0 53.099209146 491.39690611 41.48878913)"/><path d="m.485-.017c-.065.019-.12.029-.166.029-.078 0-.142-.026-.191-.078s-.074-.119-.074-.202c0-.08.022-.146.065-.197.044-.052.099-.077.167-.077.064 0 .114.022.149.068.035.045.052.11.052.194v.03h-.335c.014.126.076.189.185.189.04 0 .09-.011.148-.032zm-.328-.305h.234c0-.099-.037-.148-.111-.148s-.115.049-.123.148z" transform="matrix(53.099209146 0 0 53.099209146 521.30526337 41.48878913)"/><path d="m3.30653563802 53.64934135843h5.09752407802v40.93949025157h-5.09752407802z" stroke-width="53.099209146"/><path d="m.37-.067c-.058.053-.113.079-.167.079-.044 0-.08-.014-.109-.041-.029-.028-.044-.062-.044-.104 0-.058.025-.103.073-.134.049-.031.119-.046.21-.046h.022v-.064c0-.062-.031-.093-.094-.093-.051 0-.106.016-.165.047v-.079c.065-.027.126-.04.182-.04.06 0 .103.013.131.04.029.027.043.068.043.125v.24c0 .055.017.082.05.082.005 0 .011 0 .019-.002l.007.054c-.022.01-.046.015-.072.015-.045 0-.074-.026-.086-.079zm-.015-.053v-.137l-.032-.001c-.052 0-.095.01-.128.03-.032.02-.049.047-.049.079 0 .023.009.043.025.059s.036.024.059.024c.041 0 .082-.018.125-.054z" transform="matrix(53.099209146 0 0 53.099209146 9.83818753 94.58883161)"/><path d="m.237.012c-.044 0-.098-.01-.16-.031v-.088c.062.031.117.047.164.047.027 0 .05-.008.069-.023.018-.014.027-.033.027-.056 0-.033-.026-.06-.077-.081l-.056-.024c-.083-.035-.124-.084-.124-.149 0-.046.016-.083.049-.109.032-.027.077-.04.134-.04.03 0 .066.004.11.012l.02.004v.08c-.054-.016-.096-.024-.128-.024-.062 0-.093.023-.093.068 0 .029.024.053.071.073l.046.019c.052.023.09.046.111.07.022.025.033.056.033.093 0 .046-.018.084-.055.114-.037.03-.084.045-.141.045z" transform="matrix(53.099209146 0 0 53.099209146 35.43820801 94.58883161)"/><path d="m.37-.067c-.058.053-.113.079-.167.079-.044 0-.08-.014-.109-.041-.029-.028-.044-.062-.044-.104 0-.058.025-.103.073-.134.049-.031.119-.046.21-.046h.022v-.064c0-.062-.031-.093-.094-.093-.051 0-.106.016-.165.047v-.079c.065-.027.126-.04.182-.04.06 0 .103.013.131.04.029.027.043.068.043.125v.24c0 .055.017.082.05.082.005 0 .011 0 .019-.002l.007.054c-.022.01-.046.015-.072.015-.045 0-.074-.026-.086-.079zm-.015-.053v-.137l-.032-.001c-.052 0-.095.01-.128.03-.032.02-.049.047-.049.079 0 .023.009.043.025.059s.036.024.059.024c.041 0 .082-.018.125-.054z" transform="matrix(53.099209146 0 0 53.099209146 68.62156789 94.58883161)"/><path d="m.428 0v-.1c-.051.075-.113.112-.186.112-.047 0-.083-.014-.111-.043-.027-.03-.041-.069-.041-.118v-.381h.097v.349c0 .04.005.068.017.085.011.017.031.025.058.025.058 0 .114-.038.166-.116v-.343h.096v.53z" transform="matrix(53.099209146 0 0 53.099209146 94.22158837 94.58883161)"/><path d="m.255.012c-.048 0-.087-.014-.114-.042s-.041-.067-.041-.116v-.312h-.066v-.072h.066v-.096l.096-.01v.106h.139v.072h-.139v.294c0 .069.03.104.09.104.013 0 .028-.002.047-.006v.066c-.03.008-.056.012-.078.012z" transform="matrix(53.099209146 0 0 53.099209146 123.45494509 94.58883161)"/><path d="m.304.012c-.076 0-.137-.025-.182-.075-.045-.051-.068-.118-.068-.202 0-.085.023-.153.068-.203.046-.049.107-.074.185-.074s.14.025.185.074c.045.05.068.117.068.202 0 .086-.023.155-.068.204-.046.049-.109.074-.188.074zm.001-.072c.102 0 .153-.069.153-.206 0-.136-.05-.204-.151-.204-.1 0-.15.068-.15.205s.049.205.148.205z" transform="matrix(53.099209146 0 0 53.099209146 139.592458 94.58883161)"/><path d="m.096 0v-.53h.096v.099c.038-.074.094-.111.166-.111.01 0 .02.001.031.002v.09c-.016-.005-.031-.008-.044-.008-.061 0-.112.036-.153.108v.35z" transform="matrix(53.099209146 0 0 53.099209146 168.48831445 94.58883161)"/><path d="m.096 0v-.53h.096v.53zm0-.626v-.097h.096v.097z" transform="matrix(53.099209146 0 0 53.099209146 186.49249552 94.58883161)"/><path d="m.437 0v-.1c-.04.075-.098.112-.177.112-.064 0-.114-.023-.151-.07-.036-.046-.055-.11-.055-.191 0-.088.021-.159.062-.212.042-.054.097-.081.164-.081.063 0 .115.024.157.072v-.301h.096v.771zm0-.404c-.05-.044-.097-.066-.142-.066-.092 0-.138.071-.138.212 0 .124.041.186.123.186.053 0 .105-.029.157-.088z" transform="matrix(53.099209146 0 0 53.099209146 198.11750482 94.58883161)"/><path d="m.37-.067c-.058.053-.113.079-.167.079-.044 0-.08-.014-.109-.041-.029-.028-.044-.062-.044-.104 0-.058.025-.103.073-.134.049-.031.119-.046.21-.046h.022v-.064c0-.062-.031-.093-.094-.093-.051 0-.106.016-.165.047v-.079c.065-.027.126-.04.182-.04.06 0 .103.013.131.04.029.027.043.068.043.125v.24c0 .055.017.082.05.082.005 0 .011 0 .019-.002l.007.054c-.022.01-.046.015-.072.015-.045 0-.074-.026-.086-.079zm-.015-.053v-.137l-.032-.001c-.052 0-.095.01-.128.03-.032.02-.049.047-.049.079 0 .023.009.043.025.059s.036.024.059.024c.041 0 .082-.018.125-.054z" transform="matrix(53.099209146 0 0 53.099209146 227.81752858 94.58883161)"/><path d="m.437 0v-.1c-.04.075-.098.112-.177.112-.064 0-.114-.023-.151-.07-.036-.046-.055-.11-.055-.191 0-.088.021-.159.062-.212.042-.054.097-.081.164-.081.063 0 .115.024.157.072v-.301h.096v.771zm0-.404c-.05-.044-.097-.066-.142-.066-.092 0-.138.071-.138.212 0 .124.041.186.123.186.053 0 .105-.029.157-.088z" transform="matrix(53.099209146 0 0 53.099209146 253.41754906 94.58883161)"/><path d="m.485-.017c-.065.019-.12.029-.166.029-.078 0-.142-.026-.191-.078s-.074-.119-.074-.202c0-.08.022-.146.065-.197.044-.052.099-.077.167-.077.064 0 .114.022.149.068.035.045.052.11.052.194v.03h-.335c.014.126.076.189.185.189.04 0 .09-.011.148-.032zm-.328-.305h.234c0-.099-.037-.148-.111-.148s-.115.049-.123.148z" transform="matrix(53.099209146 0 0 53.099209146 283.11757282 94.58883161)"/><path d="m.237.012c-.044 0-.098-.01-.16-.031v-.088c.062.031.117.047.164.047.027 0 .05-.008.069-.023.018-.014.027-.033.027-.056 0-.033-.026-.06-.077-.081l-.056-.024c-.083-.035-.124-.084-.124-.149 0-.046.016-.083.049-.109.032-.027.077-.04.134-.04.03 0 .066.004.11.012l.02.004v.08c-.054-.016-.096-.024-.128-.024-.062 0-.093.023-.093.068 0 .029.024.053.071.073l.046.019c.052.023.09.046.111.07.022.025.033.056.033.093 0 .046-.018.084-.055.114-.037.03-.084.045-.141.045z" transform="matrix(53.099209146 0 0 53.099209146 308.97592684 94.58883161)"/><path d="m.485-.017c-.065.019-.12.029-.166.029-.078 0-.142-.026-.191-.078s-.074-.119-.074-.202c0-.08.022-.146.065-.197.044-.052.099-.077.167-.077.064 0 .114.022.149.068.035.045.052.11.052.194v.03h-.335c.014.126.076.189.185.189.04 0 .09-.011.148-.032zm-.328-.305h.234c0-.099-.037-.148-.111-.148s-.115.049-.123.148z" transform="matrix(53.099209146 0 0 53.099209146 345.40095598 94.58883161)"/><path d="m.096 0v-.53h.096v.099c.051-.074.113-.111.187-.111.046 0 .082.015.11.044.027.029.041.068.041.117v.381h-.096v-.35c0-.039-.006-.067-.018-.084-.011-.017-.03-.025-.057-.025-.059 0-.115.039-.167.116v.343z" transform="matrix(53.099209146 0 0 53.099209146 371.26347667 94.58883161)"/><path d="m.303.012c-.071 0-.131-.026-.178-.079s-.071-.12-.071-.201c0-.086.024-.154.07-.202.047-.048.112-.072.196-.072.041 0 .087.006.138.017v.081c-.054-.016-.098-.024-.132-.024-.049 0-.089.018-.119.055s-.044.086-.044.148c0 .059.015.108.045.144.031.037.071.056.121.056.044 0 .089-.012.135-.034v.083c-.062.019-.116.028-.161.028z" transform="matrix(53.099209146 0 0 53.099209146 400.49266672 94.58883161)"/><path d="m.37-.067c-.058.053-.113.079-.167.079-.044 0-.08-.014-.109-.041-.029-.028-.044-.062-.044-.104 0-.058.025-.103.073-.134.049-.031.119-.046.21-.046h.022v-.064c0-.062-.031-.093-.094-.093-.051 0-.106.016-.165.047v-.079c.065-.027.126-.04.182-.04.06 0 .103.013.131.04.029.027.043.068.043.125v.24c0 .055.017.082.05.082.005 0 .011 0 .019-.002l.007.054c-.022.01-.046.015-.072.015-.045 0-.074-.026-.086-.079zm-.015-.053v-.137l-.032-.001c-.052 0-.095.01-.128.03-.032.02-.049.047-.049.079 0 .023.009.043.025.059s.036.024.059.024c.041 0 .082-.018.125-.054z" transform="matrix(53.099209146 0 0 53.099209146 423.9676855 94.58883161)"/><path d="m.096 0v-.53h.096v.099c.038-.074.094-.111.166-.111.01 0 .02.001.031.002v.09c-.016-.005-.031-.008-.044-.008-.061 0-.112.036-.153.108v.35z" transform="matrix(53.099209146 0 0 53.099209146 449.57187265 94.58883161)"/><path d="m.098.176.011-.083c.056.026.111.039.165.039.108 0 .163-.057.163-.172v-.084c-.036.075-.094.112-.175.112-.064 0-.114-.023-.152-.07-.037-.046-.056-.108-.056-.187 0-.08.022-.146.064-.197.043-.051.098-.076.166-.076.059 0 .11.024.153.072v-.06h.096v.385c0 .083-.004.145-.013.185-.008.04-.025.072-.048.098-.042.044-.108.067-.196.067-.062 0-.121-.01-.178-.029zm.339-.36v-.22c-.043-.044-.089-.066-.139-.066-.044 0-.079.018-.104.053-.025.036-.037.085-.037.146 0 .117.041.175.122.175.056 0 .108-.029.158-.088z" transform="matrix(53.099209146 0 0 53.099209146 467.57605372 94.58883161)"/><path d="m.37-.067c-.058.053-.113.079-.167.079-.044 0-.08-.014-.109-.041-.029-.028-.044-.062-.044-.104 0-.058.025-.103.073-.134.049-.031.119-.046.21-.046h.022v-.064c0-.062-.031-.093-.094-.093-.051 0-.106.016-.165.047v-.079c.065-.027.126-.04.182-.04.06 0 .103.013.131.04.029.027.043.068.043.125v.24c0 .055.017.082.05.082.005 0 .011 0 .019-.002l.007.054c-.022.01-.046.015-.072.015-.045 0-.074-.026-.086-.079zm-.015-.053v-.137l-.032-.001c-.052 0-.095.01-.128.03-.032.02-.049.047-.049.079 0 .023.009.043.025.059s.036.024.059.024c.041 0 .082-.018.125-.054z" transform="matrix(53.099209146 0 0 53.099209146 496.96357723 94.58883161)"/><path d="m.437 0v-.1c-.04.075-.098.112-.177.112-.064 0-.114-.023-.151-.07-.036-.046-.055-.11-.055-.191 0-.088.021-.159.062-.212.042-.054.097-.081.164-.081.063 0 .115.024.157.072v-.301h.096v.771zm0-.404c-.05-.044-.097-.066-.142-.066-.092 0-.138.071-.138.212 0 .124.041.186.123.186.053 0 .105-.029.157-.088z" transform="matrix(53.099209146 0 0 53.099209146 522.56359771 94.58883161)"/><path d="m.37-.067c-.058.053-.113.079-.167.079-.044 0-.08-.014-.109-.041-.029-.028-.044-.062-.044-.104 0-.058.025-.103.073-.134.049-.031.119-.046.21-.046h.022v-.064c0-.062-.031-.093-.094-.093-.051 0-.106.016-.165.047v-.079c.065-.027.126-.04.182-.04.06 0 .103.013.131.04.029.027.043.068.043.125v.24c0 .055.017.082.05.082.005 0 .011 0 .019-.002l.007.054c-.022.01-.046.015-.072.015-.045 0-.074-.026-.086-.079zm-.015-.053v-.137l-.032-.001c-.052 0-.095.01-.128.03-.032.02-.049.047-.049.079 0 .023.009.043.025.059s.036.024.059.024c.041 0 .082-.018.125-.054z" transform="matrix(53.099209146 0 0 53.099209146 552.26362147 94.58883161)"/><path d="m.237.012c-.044 0-.098-.01-.16-.031v-.088c.062.031.117.047.164.047.027 0 .05-.008.069-.023.018-.014.027-.033.027-.056 0-.033-.026-.06-.077-.081l-.056-.024c-.083-.035-.124-.084-.124-.149 0-.046.016-.083.049-.109.032-.027.077-.04.134-.04.03 0 .066.004.11.012l.02.004v.08c-.054-.016-.096-.024-.128-.024-.062 0-.093.023-.093.068 0 .029.024.053.071.073l.046.019c.052.023.09.046.111.07.022.025.033.056.033.093 0 .046-.018.084-.055.114-.037.03-.084.045-.141.045z" transform="matrix(53.099209146 0 0 53.099209146 577.86364195 94.58883161)"/><path d="m.437 0v-.1c-.04.075-.098.112-.177.112-.064 0-.114-.023-.151-.07-.036-.046-.055-.11-.055-.191 0-.088.021-.159.062-.212.042-.054.097-.081.164-.081.063 0 .115.024.157.072v-.301h.096v.771zm0-.404c-.05-.044-.097-.066-.142-.066-.092 0-.138.071-.138.212 0 .124.041.186.123.186.053 0 .105-.029.157-.088z" transform="matrix(53.099209146 0 0 53.099209146 -1.79098844 147.68887409)"/><path d="m.485-.017c-.065.019-.12.029-.166.029-.078 0-.142-.026-.191-.078s-.074-.119-.074-.202c0-.08.022-.146.065-.197.044-.052.099-.077.167-.077.064 0 .114.022.149.068.035.045.052.11.052.194v.03h-.335c.014.126.076.189.185.189.04 0 .09-.011.148-.032zm-.328-.305h.234c0-.099-.037-.148-.111-.148s-.115.049-.123.148z" transform="matrix(53.099209146 0 0 53.099209146 27.93403534 147.68887409)"/><path d="m72.01492393802 106.74938383843h5.09752407802v40.93949025157h-5.09752407802z" stroke-width="53.099209146"/><path d="m.37-.067c-.058.053-.113.079-.167.079-.044 0-.08-.014-.109-.041-.029-.028-.044-.062-.044-.104 0-.058.025-.103.073-.134.049-.031.119-.046.21-.046h.022v-.064c0-.062-.031-.093-.094-.093-.051 0-.106.016-.165.047v-.079c.065-.027.126-.04.182-.04.06 0 .103.013.131.04.029.027.043.068.043.125v.24c0 .055.017.082.05.082.005 0 .011 0 .019-.002l.007.054c-.022.01-.046.015-.072.015-.045 0-.074-.026-.086-.079zm-.015-.053v-.137l-.032-.001c-.052 0-.095.01-.128.03-.032.02-.049.047-.049.079 0 .023.009.043.025.059s.036.024.059.024c.041 0 .082-.018.125-.054z" transform="matrix(53.099209146 0 0 53.099209146 78.57157585 147.68887409)"/><path d="m.237.012c-.044 0-.098-.01-.16-.031v-.088c.062.031.117.047.164.047.027 0 .05-.008.069-.023.018-.014.027-.033.027-.056 0-.033-.026-.06-.077-.081l-.056-.024c-.083-.035-.124-.084-.124-.149 0-.046.016-.083.049-.109.032-.027.077-.04.134-.04.03 0 .066.004.11.012l.02.004v.08c-.054-.016-.096-.024-.128-.024-.062 0-.093.023-.093.068 0 .029.024.053.071.073l.046.019c.052.023.09.046.111.07.022.025.033.056.033.093 0 .046-.018.084-.055.114-.037.03-.084.045-.141.045z" transform="matrix(53.099209146 0 0 53.099209146 117.29660683 147.68887409)"/><path d="m.37-.067c-.058.053-.113.079-.167.079-.044 0-.08-.014-.109-.041-.029-.028-.044-.062-.044-.104 0-.058.025-.103.073-.134.049-.031.119-.046.21-.046h.022v-.064c0-.062-.031-.093-.094-.093-.051 0-.106.016-.165.047v-.079c.065-.027.126-.04.182-.04.06 0 .103.013.131.04.029.027.043.068.043.125v.24c0 .055.017.082.05.082.005 0 .011 0 .019-.002l.007.054c-.022.01-.046.015-.072.015-.045 0-.074-.026-.086-.079zm-.015-.053v-.137l-.032-.001c-.052 0-.095.01-.128.03-.032.02-.049.047-.049.079 0 .023.009.043.025.059s.036.024.059.024c.041 0 .082-.018.125-.054z" transform="matrix(53.099209146 0 0 53.099209146 140.66745886 147.68887409)"/><path d="m171.39000343802 106.74938383843h5.09752407802v40.93949025157h-5.09752407802z" stroke-width="53.099209146"/><path d="m.428 0v-.1c-.051.075-.113.112-.186.112-.047 0-.083-.014-.111-.043-.027-.03-.041-.069-.041-.118v-.381h.097v.349c0 .04.005.068.017.085.011.017.031.025.058.025.058 0 .114-.038.166-.116v-.343h.096v.53z" transform="matrix(53.099209146 0 0 53.099209146 177.94248868 147.68887409)"/><path d="m.437 0v-.1c-.04.075-.098.112-.177.112-.064 0-.114-.023-.151-.07-.036-.046-.055-.11-.055-.191 0-.088.021-.159.062-.212.042-.054.097-.081.164-.081.063 0 .115.024.157.072v-.301h.096v.771zm0-.404c-.05-.044-.097-.066-.142-.066-.092 0-.138.071-.138.212 0 .124.041.186.123.186.053 0 .105-.029.157-.088z" transform="matrix(53.099209146 0 0 53.099209146 207.19667875 147.68887409)"/><path d="m242.12125835631 141.26386978333h6.42500430667v6.42500430667h-6.42500430667z" stroke-width="53.099209146"/></g></svg>