<?xml version="1.0" encoding="UTF-8" standalone="no"?>
<!DOCTYPE svg PUBLIC "-//W3C//DTD SVG 1.1//EN" "http://www.w3.org/Graphics/SVG/1.1/DTD/svg11.dtd">
<svg width="100%" height="100%" viewBox="0 0 813 345" version="1.1" xmlns="http://www.w3.org/2000/svg" xmlns:xlink="http://www.w3.org/1999/xlink" xml:space="preserve" xmlns:serif="http://www.serif.com/" style="fill-rule:evenodd;clip-rule:evenodd;stroke-linejoin:round;stroke-miterlimit:2;">
    <g transform="matrix(1,0,0,1,-3971.89,-16869)">
        <g transform="matrix(5.55556,0,0,5.55556,3631.89,14350.4)">
            <g transform="matrix(1,0,0,1,201.848,485.66)">
                <path d="M0,-2.882C0.113,-3.95 0.29,-4.726 0.257,-5.493C0.16,-7.73 0.063,-9.972 -0.187,-12.195C-0.777,-17.449 -2.597,-22.273 -5.565,-26.651C-5.931,-27.188 -6.386,-27.697 -6.891,-28.105C-11.53,-31.842 -17.412,-31.431 -22.28,-28.032C-26.612,-25.007 -29.001,-20.542 -29.683,-15.233C-30.077,-12.162 -30.572,-9.099 -29.827,-6.017C-29.597,-5.065 -29.276,-4.133 -29.088,-3.174C-29.025,-2.848 -29.139,-2.334 -29.369,-2.148C-29.598,-1.963 -30.086,-2.014 -30.434,-2.088C-30.659,-2.135 -30.814,-2.446 -31.036,-2.574C-32.17,-3.229 -33.017,-2.962 -33.227,-1.656C-33.421,-0.445 -33.41,0.853 -33.2,2.062C-32.91,3.727 -31.487,4.483 -30.097,5.14C-28.917,5.697 -28.109,5.042 -27.339,4.222C-27.222,4.096 -26.69,4.175 -26.501,4.338C-26.111,4.673 -25.758,5.092 -25.508,5.541C-24.805,6.8 -23.761,7.677 -22.525,8.349C-20.962,9.198 -19.422,10.104 -17.8,10.825C-16.945,11.207 -16.544,11.806 -16.453,12.591C-16.315,13.764 -16.199,14.977 -16.359,16.134C-16.442,16.727 -17.052,17.361 -17.589,17.743C-18.159,18.149 -18.946,18.235 -19.602,18.538C-21.028,19.2 -22.524,19.771 -23.824,20.632C-26.16,22.18 -26.972,24.576 -27.028,27.29C-27.041,27.989 -26.699,28.225 -26.065,28.213C-25.801,28.208 -25.538,28.245 -25.274,28.245C-16.557,28.262 -7.841,28.284 0.875,28.283C2.348,28.283 2.667,27.916 2.124,26.488C1.452,24.717 0.596,23.011 -0.277,21.325C-1.271,19.41 -2.92,18.483 -5.082,18.392C-5.934,18.357 -6.795,18.237 -7.626,18.041C-9.113,17.692 -10.001,16.618 -10.035,15.098C-10.057,14.114 -9.943,13.127 -9.853,12.145C-9.763,11.164 -9.545,10.313 -8.219,10.429C-7.889,10.458 -7.483,10.163 -7.187,9.924C-5.171,8.295 -3.305,6.548 -2.549,3.935C-2.466,3.651 -2.21,3.416 -2.029,3.152C-1.852,3.293 -1.736,3.351 -1.668,3.444C-0.061,5.669 0.6,5.748 2.372,3.885C2.735,3.505 3.087,3.096 3.355,2.646C4.195,1.233 4.487,-0.302 4.093,-1.906C3.735,-3.367 3.06,-3.739 1.622,-3.374C1.132,-3.251 0.653,-3.082 0,-2.882M1.078,-4.866C4.011,-5.328 5.219,-4.277 5.506,-1.628C5.891,1.923 4.355,4.474 1.658,6.51C0.654,7.268 0.006,7.113 -1.43,5.856C-2.199,6.718 -3.038,7.529 -3.718,8.455C-4.76,9.874 -6.114,10.864 -7.624,11.698C-8.813,12.355 -9.209,13.511 -8.822,15.055C-8.581,16.015 -7.653,16.727 -6.512,16.845C-5.726,16.925 -4.943,17.083 -4.155,17.102C-1.959,17.159 -0.533,18.406 0.74,20.031C2.652,22.47 3.278,25.349 3.717,28.295C3.758,28.569 3.444,29.074 3.181,29.174C2.648,29.377 2.038,29.448 1.459,29.449C-7.46,29.46 -16.379,29.498 -25.298,29.423C-29.015,29.391 -28.72,29.315 -28.296,26.026C-27.787,22.076 -25.705,19.504 -22.102,18.045C-21.008,17.602 -19.887,17.225 -18.784,16.803C-17.93,16.477 -17.313,16 -17.502,14.922C-17.603,14.342 -17.557,13.738 -17.601,13.147C-17.666,12.27 -18.113,11.9 -18.989,11.541C-21.595,10.476 -24.283,9.443 -26.046,7.026C-26.549,6.335 -26.987,6.094 -28.001,6.408C-30.278,7.115 -34.069,5.513 -34.584,1.463C-34.708,0.488 -34.688,-0.518 -34.61,-1.499C-34.457,-3.411 -33.911,-4.087 -31.992,-4.365C-31.126,-4.491 -31.046,-4.782 -31.127,-5.484C-31.265,-6.658 -31.416,-7.838 -31.427,-9.018C-31.47,-13.259 -31.043,-17.547 -29.315,-21.364C-27.121,-26.21 -23.604,-30.004 -18.143,-31.547C-15.313,-32.347 -12.47,-32.38 -9.82,-31.431C-7.651,-30.655 -5.519,-29.47 -4.214,-27.281C-0.989,-21.869 1.128,-16.113 1.338,-9.765C1.39,-8.202 1.179,-6.632 1.078,-4.866" style="fill:rgb(35,31,32);fill-rule:nonzero;"/>
            </g>
        </g>
        <g transform="matrix(5.55556,0,0,5.55556,3631.89,14350.4)">
            <g transform="matrix(1,0,0,1,201.848,484.984)">
                <path d="M0,-2.206C0.653,-2.406 1.132,-2.575 1.622,-2.698C3.06,-3.063 3.735,-2.691 4.093,-1.23C4.487,0.374 4.195,1.909 3.355,3.322C3.087,3.772 2.735,4.181 2.372,4.561C0.6,6.424 -0.061,6.345 -1.668,4.12C-1.736,4.027 -1.852,3.969 -2.029,3.828C-2.21,4.092 -2.466,4.327 -2.549,4.611C-3.305,7.224 -5.171,8.971 -7.187,10.6C-7.483,10.839 -7.889,11.134 -8.219,11.105C-9.545,10.989 -9.763,11.84 -9.853,12.821C-9.943,13.803 -10.057,14.79 -10.035,15.774C-10.001,17.294 -9.113,18.368 -7.626,18.717C-6.795,18.913 -5.934,19.033 -5.082,19.068C-2.92,19.159 -1.271,20.086 -0.277,22.001C0.596,23.687 1.452,25.393 2.124,27.164C2.667,28.592 2.348,28.959 0.875,28.959C-7.841,28.96 -16.557,28.938 -25.274,28.921C-25.538,28.921 -25.801,28.884 -26.065,28.889C-26.699,28.901 -27.041,28.665 -27.028,27.966C-26.972,25.252 -26.16,22.856 -23.824,21.308C-22.524,20.447 -21.028,19.876 -19.602,19.214C-18.946,18.911 -18.159,18.825 -17.589,18.419C-17.052,18.037 -16.442,17.403 -16.359,16.81C-16.199,15.653 -16.315,14.44 -16.453,13.267C-16.544,12.482 -16.945,11.883 -17.8,11.501C-19.422,10.78 -20.962,9.874 -22.525,9.025C-23.761,8.353 -24.805,7.476 -25.508,6.217C-25.758,5.768 -26.111,5.349 -26.501,5.014C-26.69,4.851 -27.222,4.772 -27.339,4.898C-28.109,5.718 -28.917,6.373 -30.097,5.816C-31.487,5.159 -32.91,4.403 -33.2,2.738C-33.41,1.529 -33.421,0.231 -33.227,-0.98C-33.017,-2.286 -32.17,-2.553 -31.036,-1.898C-30.814,-1.77 -30.659,-1.459 -30.434,-1.412C-30.086,-1.338 -29.598,-1.287 -29.369,-1.472C-29.139,-1.658 -29.025,-2.172 -29.088,-2.498C-29.276,-3.457 -29.597,-4.389 -29.827,-5.341C-30.572,-8.423 -30.077,-11.486 -29.683,-14.557C-29.001,-19.866 -26.612,-24.331 -22.28,-27.356C-17.412,-30.755 -11.53,-31.166 -6.891,-27.429C-6.386,-27.021 -5.931,-26.512 -5.565,-25.975C-2.597,-21.597 -0.777,-16.773 -0.187,-11.519C0.063,-9.296 0.16,-7.054 0.257,-4.817C0.29,-4.05 0.113,-3.274 0,-2.206" style="fill:rgb(241,95,64);fill-rule:nonzero;"/>
            </g>
        </g>
        <g transform="matrix(5.55556,0,0,5.55556,3631.89,14350.4)">
            <g transform="matrix(1,0,0,1,125.884,485.689)">
                <path d="M0,-2.882C0.113,-3.95 0.29,-4.726 0.257,-5.494C0.16,-7.73 0.063,-9.971 -0.187,-12.195C-0.777,-17.449 -2.597,-22.273 -5.566,-26.651C-5.931,-27.189 -6.386,-27.697 -6.891,-28.105C-11.53,-31.842 -17.412,-31.431 -22.28,-28.032C-26.613,-25.007 -29.001,-20.542 -29.683,-15.233C-30.077,-12.162 -30.572,-9.099 -29.827,-6.017C-29.597,-5.065 -29.276,-4.133 -29.088,-3.174C-29.026,-2.849 -29.139,-2.334 -29.369,-2.149C-29.598,-1.963 -30.086,-2.015 -30.434,-2.088C-30.659,-2.135 -30.814,-2.446 -31.036,-2.574C-32.17,-3.23 -33.017,-2.962 -33.227,-1.656C-33.421,-0.445 -33.41,0.853 -33.2,2.062C-32.91,3.727 -31.487,4.483 -30.097,5.139C-28.917,5.697 -28.11,5.042 -27.339,4.221C-27.222,4.096 -26.69,4.175 -26.501,4.337C-26.111,4.673 -25.758,5.091 -25.508,5.541C-24.805,6.8 -23.761,7.677 -22.525,8.348C-20.962,9.198 -19.422,10.104 -17.8,10.825C-16.945,11.207 -16.545,11.806 -16.453,12.59C-16.316,13.764 -16.199,14.977 -16.359,16.134C-16.442,16.726 -17.053,17.36 -17.59,17.743C-18.16,18.149 -18.946,18.235 -19.602,18.538C-21.028,19.199 -22.524,19.771 -23.824,20.632C-26.16,22.18 -26.972,24.576 -27.028,27.29C-27.041,27.989 -26.699,28.225 -26.065,28.213C-25.801,28.207 -25.538,28.245 -25.274,28.245C-16.558,28.262 -7.841,28.284 0.874,28.283C2.348,28.283 2.667,27.916 2.124,26.488C1.452,24.717 0.596,23.011 -0.278,21.325C-1.271,19.41 -2.92,18.483 -5.082,18.392C-5.935,18.357 -6.795,18.236 -7.626,18.041C-9.113,17.692 -10.002,16.618 -10.035,15.098C-10.058,14.114 -9.943,13.127 -9.853,12.145C-9.763,11.164 -9.545,10.312 -8.22,10.428C-7.889,10.458 -7.483,10.163 -7.187,9.924C-5.171,8.295 -3.305,6.548 -2.549,3.934C-2.466,3.65 -2.21,3.416 -2.029,3.152C-1.853,3.292 -1.736,3.351 -1.668,3.444C-0.061,5.668 0.6,5.748 2.372,3.885C2.735,3.504 3.087,3.095 3.355,2.646C4.195,1.233 4.487,-0.302 4.093,-1.907C3.735,-3.367 3.06,-3.739 1.622,-3.374C1.131,-3.251 0.653,-3.082 0,-2.882M1.078,-4.866C4.011,-5.328 5.219,-4.277 5.506,-1.628C5.891,1.923 4.355,4.473 1.657,6.51C0.654,7.268 0.006,7.113 -1.431,5.856C-2.199,6.718 -3.038,7.529 -3.718,8.455C-4.76,9.874 -6.114,10.864 -7.624,11.698C-8.813,12.354 -9.209,13.511 -8.822,15.055C-8.581,16.014 -7.653,16.726 -6.513,16.844C-5.726,16.925 -4.943,17.082 -4.155,17.102C-1.959,17.159 -0.533,18.406 0.74,20.031C2.652,22.469 3.278,25.349 3.717,28.295C3.758,28.568 3.444,29.074 3.181,29.174C2.648,29.377 2.038,29.448 1.459,29.448C-7.46,29.46 -16.379,29.498 -25.298,29.423C-29.015,29.391 -28.72,29.315 -28.296,26.026C-27.787,22.076 -25.706,19.504 -22.102,18.045C-21.008,17.602 -19.887,17.225 -18.784,16.803C-17.93,16.476 -17.313,16 -17.502,14.922C-17.603,14.342 -17.557,13.738 -17.601,13.146C-17.666,12.269 -18.114,11.899 -18.989,11.541C-21.596,10.476 -24.283,9.443 -26.046,7.026C-26.55,6.335 -26.987,6.094 -28.001,6.408C-30.278,7.115 -34.069,5.513 -34.585,1.463C-34.708,0.488 -34.689,-0.518 -34.61,-1.499C-34.458,-3.412 -33.911,-4.087 -31.992,-4.365C-31.126,-4.491 -31.046,-4.782 -31.127,-5.484C-31.265,-6.658 -31.416,-7.838 -31.427,-9.018C-31.471,-13.259 -31.043,-17.547 -29.315,-21.364C-27.121,-26.21 -23.604,-30.004 -18.144,-31.547C-15.313,-32.348 -12.47,-32.38 -9.82,-31.431C-7.651,-30.656 -5.519,-29.47 -4.214,-27.282C-0.99,-21.869 1.128,-16.114 1.338,-9.765C1.389,-8.202 1.179,-6.632 1.078,-4.866" style="fill:rgb(35,31,32);fill-rule:nonzero;"/>
            </g>
        </g>
        <g transform="matrix(5.55556,0,0,5.55556,3631.89,14350.4)">
            <g transform="matrix(1,0,0,1,125.884,485.013)">
                <path d="M0,-2.206C0.653,-2.406 1.131,-2.575 1.622,-2.698C3.06,-3.063 3.735,-2.691 4.093,-1.231C4.487,0.374 4.195,1.909 3.355,3.322C3.087,3.771 2.735,4.18 2.372,4.561C0.6,6.424 -0.061,6.344 -1.668,4.12C-1.736,4.027 -1.853,3.968 -2.029,3.828C-2.21,4.092 -2.466,4.326 -2.549,4.61C-3.305,7.224 -5.171,8.971 -7.187,10.6C-7.483,10.839 -7.889,11.134 -8.22,11.104C-9.545,10.988 -9.763,11.84 -9.853,12.821C-9.943,13.803 -10.058,14.79 -10.035,15.774C-10.002,17.294 -9.113,18.368 -7.626,18.717C-6.795,18.912 -5.935,19.033 -5.082,19.068C-2.92,19.159 -1.271,20.086 -0.278,22.001C0.596,23.687 1.452,25.393 2.124,27.164C2.667,28.592 2.348,28.959 0.874,28.959C-7.841,28.96 -16.558,28.938 -25.274,28.921C-25.538,28.921 -25.801,28.883 -26.065,28.889C-26.699,28.901 -27.041,28.665 -27.028,27.966C-26.972,25.252 -26.16,22.856 -23.824,21.308C-22.524,20.447 -21.028,19.875 -19.602,19.214C-18.946,18.911 -18.16,18.825 -17.59,18.419C-17.053,18.036 -16.442,17.402 -16.359,16.81C-16.199,15.653 -16.316,14.44 -16.453,13.266C-16.545,12.482 -16.945,11.883 -17.8,11.501C-19.422,10.78 -20.962,9.874 -22.525,9.024C-23.761,8.353 -24.805,7.476 -25.508,6.217C-25.758,5.767 -26.111,5.349 -26.501,5.013C-26.69,4.851 -27.222,4.772 -27.339,4.897C-28.11,5.718 -28.917,6.373 -30.097,5.815C-31.487,5.159 -32.91,4.403 -33.2,2.738C-33.41,1.529 -33.421,0.231 -33.227,-0.98C-33.017,-2.286 -32.17,-2.554 -31.036,-1.898C-30.814,-1.77 -30.659,-1.459 -30.434,-1.412C-30.086,-1.339 -29.598,-1.287 -29.369,-1.473C-29.139,-1.658 -29.026,-2.173 -29.088,-2.498C-29.276,-3.457 -29.597,-4.389 -29.827,-5.341C-30.572,-8.423 -30.077,-11.486 -29.683,-14.557C-29.001,-19.866 -26.613,-24.331 -22.28,-27.356C-17.412,-30.755 -11.53,-31.166 -6.891,-27.429C-6.386,-27.021 -5.931,-26.513 -5.566,-25.975C-2.597,-21.597 -0.777,-16.773 -0.187,-11.519C0.063,-9.295 0.16,-7.054 0.257,-4.818C0.29,-4.05 0.113,-3.274 0,-2.206" style="fill:rgb(233,218,206);fill-rule:nonzero;"/>
            </g>
        </g>
        <g transform="matrix(5.55556,0,0,5.55556,3631.89,14350.4)">
            <g transform="matrix(1,0,0,1,95.8731,485.852)">
                <path d="M0,-2.882C0.113,-3.95 0.29,-4.726 0.257,-5.494C0.16,-7.73 0.063,-9.972 -0.186,-12.195C-0.777,-17.449 -2.597,-22.273 -5.565,-26.651C-5.931,-27.188 -6.385,-27.697 -6.891,-28.105C-11.53,-31.842 -17.412,-31.431 -22.28,-28.032C-26.612,-25.007 -29.001,-20.542 -29.682,-15.233C-30.077,-12.162 -30.572,-9.099 -29.826,-6.017C-29.597,-5.065 -29.276,-4.133 -29.088,-3.174C-29.025,-2.848 -29.139,-2.334 -29.369,-2.148C-29.598,-1.963 -30.086,-2.014 -30.434,-2.088C-30.658,-2.135 -30.814,-2.446 -31.036,-2.574C-32.169,-3.229 -33.017,-2.962 -33.227,-1.656C-33.421,-0.445 -33.41,0.853 -33.2,2.062C-32.91,3.727 -31.487,4.483 -30.097,5.14C-28.917,5.697 -28.109,5.042 -27.339,4.222C-27.222,4.096 -26.69,4.175 -26.501,4.338C-26.111,4.673 -25.758,5.092 -25.508,5.541C-24.805,6.8 -23.761,7.677 -22.524,8.349C-20.962,9.198 -19.422,10.104 -17.8,10.825C-16.945,11.207 -16.544,11.806 -16.453,12.591C-16.315,13.764 -16.199,14.977 -16.359,16.134C-16.442,16.727 -17.052,17.361 -17.589,17.743C-18.159,18.149 -18.946,18.235 -19.602,18.538C-21.028,19.2 -22.524,19.771 -23.823,20.632C-26.16,22.18 -26.972,24.576 -27.028,27.29C-27.041,27.988 -26.699,28.225 -26.065,28.213C-25.801,28.208 -25.538,28.245 -25.273,28.245C-16.557,28.262 -7.841,28.284 0.875,28.283C2.348,28.283 2.667,27.916 2.125,26.488C1.452,24.717 0.596,23.011 -0.277,21.325C-1.271,19.41 -2.92,18.483 -5.082,18.392C-5.934,18.357 -6.795,18.236 -7.626,18.041C-9.113,17.692 -10.001,16.618 -10.035,15.098C-10.057,14.114 -9.943,13.127 -9.853,12.145C-9.763,11.164 -9.544,10.313 -8.219,10.429C-7.889,10.458 -7.483,10.163 -7.187,9.924C-5.171,8.295 -3.305,6.548 -2.549,3.935C-2.466,3.651 -2.21,3.416 -2.028,3.152C-1.852,3.293 -1.736,3.351 -1.668,3.444C-0.061,5.669 0.6,5.748 2.372,3.885C2.735,3.505 3.087,3.096 3.355,2.646C4.195,1.233 4.487,-0.302 4.093,-1.906C3.735,-3.367 3.06,-3.739 1.622,-3.374C1.132,-3.251 0.653,-3.082 0,-2.882M1.078,-4.866C4.011,-5.328 5.22,-4.277 5.506,-1.628C5.891,1.923 4.356,4.474 1.658,6.51C0.654,7.268 0.006,7.113 -1.43,5.856C-2.199,6.718 -3.038,7.529 -3.718,8.455C-4.76,9.874 -6.113,10.864 -7.624,11.698C-8.813,12.355 -9.209,13.51 -8.822,15.055C-8.581,16.015 -7.653,16.727 -6.512,16.845C-5.726,16.925 -4.943,17.083 -4.155,17.102C-1.959,17.159 -0.533,18.406 0.74,20.031C2.653,22.47 3.278,25.349 3.717,28.295C3.758,28.569 3.444,29.074 3.182,29.174C2.649,29.377 2.038,29.448 1.459,29.449C-7.46,29.46 -16.379,29.498 -25.298,29.423C-29.015,29.391 -28.72,29.315 -28.296,26.026C-27.787,22.076 -25.705,19.504 -22.102,18.045C-21.008,17.602 -19.887,17.225 -18.784,16.803C-17.93,16.477 -17.313,16 -17.501,14.922C-17.603,14.342 -17.557,13.738 -17.601,13.147C-17.666,12.27 -18.113,11.9 -18.988,11.541C-21.595,10.476 -24.283,9.443 -26.045,7.026C-26.549,6.335 -26.986,6.094 -28.001,6.408C-30.278,7.115 -34.068,5.513 -34.584,1.463C-34.708,0.488 -34.688,-0.518 -34.61,-1.499C-34.457,-3.411 -33.911,-4.087 -31.991,-4.365C-31.126,-4.491 -31.046,-4.782 -31.127,-5.484C-31.265,-6.658 -31.416,-7.838 -31.427,-9.018C-31.47,-13.259 -31.042,-17.547 -29.315,-21.365C-27.121,-26.21 -23.604,-30.004 -18.143,-31.547C-15.312,-32.347 -12.47,-32.38 -9.819,-31.431C-7.651,-30.655 -5.518,-29.47 -4.214,-27.281C-0.989,-21.869 1.128,-16.113 1.338,-9.765C1.39,-8.202 1.179,-6.632 1.078,-4.866" style="fill:rgb(35,31,32);fill-rule:nonzero;"/>
            </g>
        </g>
        <g transform="matrix(5.55556,0,0,5.55556,3631.89,14350.4)">
            <g transform="matrix(1,0,0,1,95.8731,485.176)">
                <path d="M0,-2.206C0.653,-2.406 1.132,-2.575 1.622,-2.698C3.06,-3.063 3.735,-2.691 4.093,-1.23C4.487,0.374 4.195,1.909 3.355,3.322C3.087,3.772 2.735,4.181 2.372,4.561C0.6,6.424 -0.061,6.345 -1.668,4.12C-1.736,4.027 -1.852,3.969 -2.028,3.828C-2.21,4.092 -2.466,4.327 -2.549,4.611C-3.305,7.224 -5.171,8.971 -7.187,10.6C-7.483,10.839 -7.889,11.134 -8.219,11.105C-9.544,10.989 -9.763,11.84 -9.853,12.821C-9.943,13.803 -10.057,14.79 -10.035,15.774C-10.001,17.294 -9.113,18.368 -7.626,18.717C-6.795,18.912 -5.934,19.033 -5.082,19.068C-2.92,19.159 -1.271,20.086 -0.277,22.001C0.596,23.687 1.452,25.393 2.125,27.164C2.667,28.592 2.348,28.959 0.875,28.959C-7.841,28.96 -16.557,28.938 -25.273,28.921C-25.538,28.921 -25.801,28.884 -26.065,28.889C-26.699,28.901 -27.041,28.664 -27.028,27.966C-26.972,25.252 -26.16,22.856 -23.823,21.308C-22.524,20.447 -21.028,19.876 -19.602,19.214C-18.946,18.911 -18.159,18.825 -17.589,18.419C-17.052,18.037 -16.442,17.403 -16.359,16.81C-16.199,15.653 -16.315,14.44 -16.453,13.267C-16.544,12.482 -16.945,11.883 -17.8,11.501C-19.422,10.78 -20.962,9.874 -22.524,9.025C-23.761,8.353 -24.805,7.476 -25.508,6.217C-25.758,5.768 -26.111,5.349 -26.501,5.014C-26.69,4.851 -27.222,4.772 -27.339,4.898C-28.109,5.718 -28.917,6.373 -30.097,5.816C-31.487,5.159 -32.91,4.403 -33.2,2.738C-33.41,1.529 -33.421,0.231 -33.227,-0.98C-33.017,-2.286 -32.169,-2.553 -31.036,-1.898C-30.814,-1.77 -30.658,-1.459 -30.434,-1.412C-30.086,-1.338 -29.598,-1.287 -29.369,-1.472C-29.139,-1.658 -29.025,-2.172 -29.088,-2.498C-29.276,-3.457 -29.597,-4.389 -29.826,-5.341C-30.572,-8.423 -30.077,-11.486 -29.682,-14.557C-29.001,-19.866 -26.612,-24.331 -22.28,-27.356C-17.412,-30.755 -11.53,-31.166 -6.891,-27.429C-6.385,-27.021 -5.931,-26.512 -5.565,-25.975C-2.597,-21.597 -0.777,-16.773 -0.186,-11.519C0.063,-9.296 0.16,-7.054 0.257,-4.818C0.29,-4.05 0.113,-3.274 0,-2.206" style="fill:rgb(233,218,206);fill-rule:nonzero;"/>
            </g>
        </g>
        <g transform="matrix(5.55556,0,0,5.55556,3631.89,14350.4)">
            <g transform="matrix(1,0,0,1,156.555,485.487)">
                <path d="M0,-2.882C0.113,-3.95 0.29,-4.726 0.257,-5.494C0.16,-7.73 0.063,-9.971 -0.187,-12.195C-0.777,-17.449 -2.597,-22.273 -5.566,-26.651C-5.931,-27.189 -6.386,-27.697 -6.891,-28.105C-11.53,-31.842 -17.412,-31.431 -22.28,-28.032C-26.612,-25.007 -29.001,-20.542 -29.683,-15.233C-30.077,-12.162 -30.572,-9.099 -29.827,-6.017C-29.597,-5.065 -29.276,-4.133 -29.088,-3.174C-29.026,-2.848 -29.139,-2.334 -29.369,-2.149C-29.598,-1.963 -30.086,-2.014 -30.434,-2.088C-30.659,-2.135 -30.814,-2.446 -31.036,-2.574C-32.17,-3.23 -33.017,-2.962 -33.227,-1.656C-33.421,-0.445 -33.41,0.853 -33.2,2.062C-32.91,3.727 -31.487,4.483 -30.097,5.14C-28.917,5.697 -28.11,5.042 -27.339,4.222C-27.222,4.096 -26.69,4.175 -26.501,4.338C-26.111,4.673 -25.758,5.092 -25.508,5.541C-24.805,6.8 -23.761,7.677 -22.525,8.349C-20.962,9.198 -19.422,10.104 -17.8,10.825C-16.945,11.207 -16.545,11.806 -16.453,12.591C-16.316,13.764 -16.199,14.977 -16.359,16.134C-16.442,16.727 -17.053,17.361 -17.59,17.743C-18.16,18.149 -18.946,18.235 -19.602,18.538C-21.028,19.2 -22.524,19.771 -23.824,20.632C-26.16,22.18 -26.972,24.576 -27.028,27.29C-27.041,27.989 -26.699,28.225 -26.065,28.213C-25.801,28.208 -25.538,28.245 -25.274,28.245C-16.558,28.262 -7.841,28.284 0.874,28.283C2.348,28.283 2.667,27.916 2.124,26.488C1.452,24.717 0.596,23.011 -0.277,21.325C-1.271,19.41 -2.92,18.483 -5.082,18.392C-5.934,18.357 -6.795,18.237 -7.626,18.041C-9.113,17.692 -10.002,16.618 -10.035,15.098C-10.058,14.114 -9.943,13.127 -9.853,12.145C-9.763,11.164 -9.545,10.313 -8.219,10.429C-7.889,10.458 -7.483,10.163 -7.187,9.924C-5.171,8.295 -3.305,6.548 -2.549,3.935C-2.466,3.651 -2.21,3.416 -2.029,3.152C-1.853,3.293 -1.736,3.351 -1.668,3.444C-0.061,5.669 0.6,5.748 2.372,3.885C2.735,3.505 3.087,3.096 3.355,2.646C4.195,1.233 4.487,-0.302 4.093,-1.906C3.735,-3.367 3.06,-3.739 1.622,-3.374C1.131,-3.251 0.653,-3.082 0,-2.882M1.078,-4.866C4.011,-5.328 5.219,-4.277 5.506,-1.628C5.891,1.923 4.355,4.474 1.657,6.51C0.654,7.268 0.006,7.113 -1.431,5.856C-2.199,6.718 -3.038,7.529 -3.718,8.455C-4.76,9.874 -6.114,10.864 -7.624,11.698C-8.813,12.355 -9.209,13.511 -8.822,15.055C-8.581,16.015 -7.653,16.727 -6.513,16.845C-5.726,16.925 -4.943,17.083 -4.155,17.102C-1.959,17.159 -0.533,18.406 0.74,20.031C2.652,22.47 3.278,25.349 3.717,28.295C3.758,28.569 3.444,29.074 3.181,29.174C2.648,29.377 2.038,29.448 1.459,29.449C-7.46,29.46 -16.379,29.498 -25.298,29.423C-29.015,29.391 -28.72,29.315 -28.296,26.026C-27.787,22.076 -25.706,19.504 -22.102,18.045C-21.008,17.602 -19.887,17.225 -18.784,16.803C-17.93,16.477 -17.313,16 -17.502,14.922C-17.603,14.342 -17.557,13.738 -17.601,13.147C-17.666,12.27 -18.114,11.9 -18.989,11.541C-21.596,10.476 -24.283,9.443 -26.046,7.026C-26.55,6.335 -26.987,6.094 -28.001,6.408C-30.278,7.115 -34.069,5.513 -34.585,1.463C-34.708,0.488 -34.689,-0.517 -34.61,-1.499C-34.458,-3.411 -33.911,-4.087 -31.992,-4.365C-31.126,-4.491 -31.046,-4.782 -31.127,-5.484C-31.265,-6.658 -31.416,-7.838 -31.427,-9.018C-31.471,-13.259 -31.043,-17.547 -29.315,-21.364C-27.121,-26.21 -23.604,-30.004 -18.143,-31.547C-15.313,-32.348 -12.47,-32.38 -9.82,-31.431C-7.651,-30.655 -5.519,-29.47 -4.214,-27.281C-0.99,-21.869 1.128,-16.113 1.338,-9.765C1.389,-8.202 1.179,-6.632 1.078,-4.866" style="fill:rgb(35,31,32);fill-rule:nonzero;"/>
            </g>
        </g>
        <g transform="matrix(5.55556,0,0,5.55556,3631.89,14350.4)">
            <g transform="matrix(37.6312,0,0,-37.6312,123.19,484.256)">
                <path d="M0.295,0.712C0.179,0.632 0.116,0.513 0.098,0.372C0.087,0.29 0.074,0.209 0.094,0.127C0.1,0.102 0.109,0.077 0.114,0.052C0.115,0.043 0.112,0.029 0.106,0.024C0.1,0.019 0.087,0.021 0.078,0.023C0.072,0.024 0.068,0.032 0.062,0.036C0.032,0.053 0.009,0.046 0.004,0.011C-0.002,-0.021 -0.001,-0.055 0.004,-0.088C0.012,-0.132 0.05,-0.152 0.087,-0.169C0.118,-0.184 0.14,-0.167 0.16,-0.145C0.163,-0.142 0.177,-0.144 0.182,-0.148C0.193,-0.157 0.202,-0.168 0.209,-0.18C0.228,-0.213 0.255,-0.237 0.288,-0.255C0.33,-0.277 0.371,-0.301 0.414,-0.32C0.436,-0.331 0.447,-0.346 0.449,-0.367C0.453,-0.399 0.456,-0.431 0.452,-0.461C0.45,-0.477 0.434,-0.494 0.419,-0.504C0.404,-0.515 0.383,-0.517 0.366,-0.525C0.328,-0.543 0.288,-0.558 0.254,-0.581C0.191,-0.622 0.17,-0.686 0.168,-0.758C0.168,-0.776 0.177,-0.783 0.194,-0.782C0.201,-0.782 0.208,-0.783 0.215,-0.783C0.447,-0.784 0.678,-0.784 0.91,-0.784C0.949,-0.784 0.958,-0.775 0.943,-0.737C0.925,-0.69 0.903,-0.644 0.879,-0.599C0.853,-0.549 0.809,-0.524 0.752,-0.521C0.729,-0.521 0.706,-0.517 0.684,-0.512C0.644,-0.503 0.621,-0.474 0.62,-0.434C0.619,-0.408 0.622,-0.382 0.625,-0.355C0.627,-0.329 0.633,-0.307 0.668,-0.31C0.677,-0.311 0.688,-0.303 0.696,-0.296C0.749,-0.253 0.799,-0.207 0.819,-0.137C0.821,-0.13 0.828,-0.124 0.833,-0.116C0.837,-0.12 0.841,-0.122 0.842,-0.124C0.885,-0.183 0.903,-0.185 0.95,-0.136C0.959,-0.126 0.969,-0.115 0.976,-0.103C0.998,-0.066 1.006,-0.025 0.995,0.018C0.986,0.057 0.968,0.067 0.93,0.057C0.917,0.054 0.904,0.049 0.887,0.044C0.89,0.072 0.894,0.093 0.893,0.113C0.891,0.173 0.888,0.232 0.882,0.291C0.866,0.431 0.818,0.559 0.739,0.675C0.729,0.69 0.717,0.703 0.704,0.714C0.644,0.762 0.577,0.784 0.508,0.784C0.436,0.784 0.361,0.759 0.295,0.712Z" style="fill:url(#_Linear1);fill-rule:nonzero;"/>
            </g>
        </g>
    </g>
    <defs>
        <linearGradient id="_Linear1" x1="0" y1="0" x2="1" y2="0" gradientUnits="userSpaceOnUse" gradientTransform="matrix(1,0,0,-1,0,2.04936e-05)"><stop offset="0" style="stop-color:rgb(233,218,206);stop-opacity:1"/><stop offset="0.94" style="stop-color:rgb(241,122,95);stop-opacity:1"/><stop offset="1" style="stop-color:rgb(242,104,79);stop-opacity:1"/></linearGradient>
    </defs>
</svg>
