<?xml version="1.0" encoding="UTF-8" standalone="no"?>
<!DOCTYPE svg PUBLIC "-//W3C//DTD SVG 1.1//EN" "http://www.w3.org/Graphics/SVG/1.1/DTD/svg11.dtd">
<svg width="100%" height="100%" viewBox="0 0 211 173" version="1.1" xmlns="http://www.w3.org/2000/svg" xmlns:xlink="http://www.w3.org/1999/xlink" xml:space="preserve" xmlns:serif="http://www.serif.com/" style="fill-rule:evenodd;clip-rule:evenodd;stroke-linecap:round;stroke-linejoin:round;stroke-miterlimit:10;">
    <g transform="matrix(1,0,0,1,-26152.1,-3167.65)">
        <g transform="matrix(5.55556,0,0,5.55556,25423.2,0)">
            <g transform="matrix(0.989853,0.142092,0.142092,-0.989853,146.151,599.915)">
                <path d="M2.128,-0.25C-8.19,-0.25 -12.035,1.905 -16.555,14.677C-19.305,22.449 -8.191,29.604 2.128,29.604C12.446,29.604 22.11,26.739 18.841,19.171C13.148,5.992 12.446,-0.25 2.128,-0.25" style="fill:rgb(133,75,117);fill-rule:nonzero;"/>
            </g>
        </g>
        <g transform="matrix(5.55556,0,0,5.55556,25423.2,0)">
            <g transform="matrix(0.989853,0.142092,0.142092,-0.989853,146.151,599.915)">
                <path d="M2.128,-0.25C-8.19,-0.25 -12.035,1.905 -16.555,14.677C-19.305,22.449 -8.191,29.604 2.128,29.604C12.446,29.604 22.11,26.739 18.841,19.171C13.148,5.992 12.446,-0.25 2.128,-0.25Z" style="fill:none;fill-rule:nonzero;stroke:rgb(97,52,86);stroke-width:1px;"/>
            </g>
        </g>
        <g transform="matrix(5.55556,0,0,5.55556,25423.2,0)">
            <g opacity="0.3">
                <g transform="matrix(0.989857,0.142066,0.142066,-0.989857,146.866,596.81)">
                    <path d="M1.675,-0.233C-6.436,-0.233 -9.458,1.461 -13.011,11.502C-15.173,17.612 -6.435,23.236 1.675,23.235C9.787,23.236 17.764,21.957 15.193,16.007C10.718,5.647 9.786,-0.232 1.675,-0.233" style="fill:white;fill-rule:nonzero;"/>
                </g>
            </g>
        </g>
        <g transform="matrix(5.55556,0,0,5.55556,25423.2,0)">
            <g opacity="0.25">
                <g transform="matrix(0.987213,0.159405,0.159405,-0.987213,146.946,591.333)">
                    <path d="M1.167,-0.12C-3.127,-0.195 -6.319,2.072 -8.313,8.493C-9.526,12.399 -3.127,14.421 1.167,14.497C5.462,14.572 10.137,14.743 8.578,10.995C5.785,4.279 5.462,-0.044 1.167,-0.12" style="fill:white;fill-rule:nonzero;"/>
                </g>
            </g>
        </g>
        <g transform="matrix(5.55556,0,0,5.55556,25423.2,0)">
            <text x="141.967px" y="589.994px" style="font-family:'LucidaGrande-Bold', 'Lucida Grande', sans-serif;font-weight:600;font-size:11.903px;fill:white;">5<tspan x="148.573px " y="589.994px ">0</tspan></text>
        </g>
    </g>
</svg>
