<?xml version="1.0" encoding="UTF-8" standalone="no"?>
<!DOCTYPE svg PUBLIC "-//W3C//DTD SVG 1.1//EN" "http://www.w3.org/Graphics/SVG/1.1/DTD/svg11.dtd">
<svg width="100%" height="100%" viewBox="0 0 1232 795" version="1.1" xmlns="http://www.w3.org/2000/svg" xmlns:xlink="http://www.w3.org/1999/xlink" xml:space="preserve" xmlns:serif="http://www.serif.com/" style="fill-rule:evenodd;clip-rule:evenodd;stroke-miterlimit:10;">
    <g transform="matrix(1,0,0,1,-1155.1,-9926.78)">
        <g transform="matrix(5.55556,0,0,5.55556,0,9566.93)">
            <g transform="matrix(-1,0,0,1,774.535,-343.67)">
                <rect x="350.176" y="539.74" width="193.163" height="6.504" style="fill:rgb(157,187,215);"/>
            </g>
        </g>
        <g transform="matrix(5.55556,0,0,5.55556,0,9566.93)">
            <g transform="matrix(1,0,0,1,-118.98,-23.04)">
                <g opacity="0.11">
                    <g transform="matrix(1,0,0,1,513.135,219.368)">
                        <path d="M0,5.988C-2.335,5.178 -4.687,4.411 -7.062,3.728C-8.203,3.399 -9.364,3.133 -10.503,2.795C-11.284,2.562 -12.083,2.39 -12.882,2.23C-14.686,1.868 -16.506,1.577 -18.285,1.104C-19.484,0.784 -20.709,0.382 -21.785,-0.258L-76.698,-0.258C-77.809,0.428 -78.968,1.031 -80.156,1.571C-82.964,2.843 -85.908,3.776 -88.84,4.713C-90.377,5.205 -91.916,5.701 -93.436,6.246L0.726,6.246C0.483,6.161 0.242,6.072 0,5.988" style="fill:rgb(35,31,32);fill-rule:nonzero;"/>
                    </g>
                </g>
            </g>
        </g>
        <g transform="matrix(5.55556,0,0,5.55556,0,9566.93)">
            <g transform="matrix(-1,0,0,1,774.281,-358.419)">
                <rect x="350.176" y="546.244" width="192.909" height="8.245" style="fill:rgb(255,235,206);"/>
            </g>
        </g>
        <g transform="matrix(5.55556,0,0,5.55556,0,9566.93)">
            <g transform="matrix(98.3603,0,0,-98.3603,278.471,138.801)">
                <rect x="-0.481" y="-0.5" width="1.961" height="1" style="fill:url(#_Linear1);"/>
            </g>
        </g>
        <g transform="matrix(5.55556,0,0,5.55556,0,9566.93)">
            <g transform="matrix(-1,0,0,1,637.6,-450.836)">
                <rect x="350.194" y="573.286" width="56.192" height="46.578" style="fill:rgb(117,76,40);"/>
            </g>
        </g>
        <g transform="matrix(5.55556,0,0,5.55556,0,9566.93)">
            <g transform="matrix(-1,0,0,1,815.165,-432.367)">
                <rect x="418.163" y="546.126" width="97.819" height="82.429" style="fill:rgb(168,123,80);"/>
            </g>
        </g>
        <g transform="matrix(5.55556,0,0,5.55556,0,9566.93)">
            <g transform="matrix(1,0,0,1,380.7,101.226)">
                <path d="M0,12.313L-65.126,12.313C-67.07,12.313 -68.646,10.737 -68.646,8.792L-68.646,3.521C-68.646,1.577 -67.07,0 -65.126,0L0,0C1.945,0 3.521,1.577 3.521,3.521L3.521,8.792C3.521,10.737 1.945,12.313 0,12.313Z" style="fill:rgb(255,227,165);fill-rule:nonzero;stroke:rgb(251,176,64);stroke-width:0.5px;"/>
            </g>
        </g>
        <g transform="matrix(5.55556,0,0,5.55556,0,9566.93)">
            <g transform="matrix(-1,0,0,1,768.253,-430.414)">
                <rect x="420.412" y="546.369" width="46.409" height="79.99" style="fill:rgb(194,181,155);stroke:rgb(155,133,121);stroke-width:0.5px;"/>
            </g>
        </g>
        <g transform="matrix(5.55556,0,0,5.55556,0,9566.93)">
            <g transform="matrix(1,0,0,1,340.855,123.527)">
                <path d="M0,37L-33.134,37C-34.589,37 -35.769,35.82 -35.769,34.365L-35.769,2.635C-35.769,1.18 -34.589,0 -33.134,0L0,0C1.455,0 2.636,1.18 2.636,2.635L2.636,34.365C2.636,35.82 1.455,37 0,37Z" style="fill:rgb(185,229,251);fill-rule:nonzero;stroke:rgb(155,133,121);stroke-width:0.5px;"/>
            </g>
        </g>
        <g transform="matrix(5.55556,0,0,5.55556,0,9566.93)">
            <g transform="matrix(1,0,0,1,342.345,162.323)">
                <path d="M0,9.996L-3.624,9.996C-4.156,9.996 -4.588,9.564 -4.588,9.031L-4.588,0.965C-4.588,0.433 -4.156,0 -3.624,0L0,0C0.533,0 0.965,0.433 0.965,0.965L0.965,9.031C0.965,9.564 0.533,9.996 0,9.996Z" style="fill:rgb(218,176,109);fill-rule:nonzero;stroke:rgb(155,133,121);stroke-width:0.5px;"/>
            </g>
        </g>
        <g transform="matrix(5.55556,0,0,5.55556,0,9566.93)">
            <g transform="matrix(1,0,0,1,340.688,164.65)">
                <path d="M0,5.343L-0.391,5.343C-0.923,5.343 -1.355,4.911 -1.355,4.378L-1.355,0.965C-1.355,0.432 -0.923,0 -0.391,0L0,0C0.533,0 0.965,0.432 0.965,0.965L0.965,4.378C0.965,4.911 0.533,5.343 0,5.343Z" style="fill:rgb(207,149,79);fill-rule:nonzero;stroke:rgb(138,93,59);stroke-width:0.5px;"/>
            </g>
        </g>
        <g transform="matrix(5.55556,0,0,5.55556,0,9566.93)">
            <g transform="matrix(1,0,0,1,315.246,129.106)">
                <path d="M0,24.78C1.634,23.649 3.186,22.414 4.554,20.969C5.799,19.655 6.885,18.201 7.821,16.655C9.733,13.497 10.927,10.004 12.326,6.607C13.672,3.335 15.144,0.087 17.123,-2.857C17.68,-3.684 18.28,-4.477 18.918,-5.236L8.395,-5.236C8.097,-4.924 7.809,-4.601 7.545,-4.258C6.989,-3.535 6.518,-2.74 6.183,-1.891C5.775,-0.862 5.613,0.231 5.508,1.328C5.396,2.494 5.375,3.666 5.37,4.837C5.367,5.859 5.357,6.86 5.133,7.863C4.725,9.682 3.77,11.303 2.643,12.767C2.036,13.553 1.397,14.319 0.688,15.015C-0.008,15.7 -0.754,16.332 -1.532,16.922C-3.119,18.125 -4.841,19.138 -6.602,20.064C-7.657,20.618 -8.729,21.142 -9.804,21.659L-9.804,28.491C-9.804,29.064 -9.612,29.588 -9.297,30.016C-6.092,28.465 -2.931,26.809 0,24.78" style="fill:white;fill-rule:nonzero;"/>
            </g>
        </g>
        <g transform="matrix(5.55556,0,0,5.55556,0,9566.93)">
            <g transform="matrix(1,0,0,1,341.187,157.193)">
                <path d="M0,-17.847C-0.632,-16.172 -0.722,-14.357 -0.634,-12.585C-0.591,-11.716 -0.544,-10.845 -0.311,-10.003C-0.075,-9.154 0.208,-8.319 0.396,-7.457C0.574,-6.647 0.712,-5.76 0.491,-4.945C0.392,-4.576 0.208,-4.247 -0.062,-3.977C-0.293,-3.743 -0.586,-3.503 -0.927,-3.474C-1.535,-3.423 -1.827,-4.117 -1.973,-4.593C-2.142,-5.149 -2.213,-5.731 -2.268,-6.31C-2.849,-5.676 -3.333,-4.958 -3.678,-4.168C-3.863,-3.741 -4.006,-3.294 -4.104,-2.839C-4.154,-2.605 -4.202,-2.365 -4.204,-2.124C-4.206,-1.906 -4.179,-1.688 -4.159,-1.471C-4.128,-1.125 -4.117,-0.768 -4.325,-0.473C-4.471,-0.266 -4.677,-0.115 -4.889,0.019C-5.425,0.357 -6.02,0.582 -6.58,0.873C-7.324,1.258 -8.122,1.56 -8.901,1.87C-9.768,2.214 -10.642,2.538 -11.521,2.846C-11.666,2.897 -11.813,2.941 -11.959,2.991L-0.639,2.991C0.789,2.991 1.947,1.833 1.947,0.404L1.947,-20.838C1.122,-19.969 0.429,-18.983 0,-17.847" style="fill:white;fill-rule:nonzero;"/>
            </g>
        </g>
        <g transform="matrix(5.55556,0,0,5.55556,0,9566.93)">
            <g transform="matrix(1,0,0,1,-118.98,-430.414)">
                <rect x="466.894" y="546.369" width="46.409" height="79.99" style="fill:rgb(194,181,155);stroke:rgb(155,133,121);stroke-width:0.5px;"/>
            </g>
        </g>
        <g transform="matrix(5.55556,0,0,5.55556,0,9566.93)">
            <g transform="matrix(1,0,0,1,387.338,123.527)">
                <path d="M0,37L-33.134,37C-34.589,37 -35.77,35.82 -35.77,34.365L-35.77,2.635C-35.77,1.18 -34.589,0 -33.134,0L0,0C1.455,0 2.635,1.18 2.635,2.635L2.635,34.365C2.635,35.82 1.455,37 0,37Z" style="fill:rgb(185,229,251);fill-rule:nonzero;stroke:rgb(155,133,121);stroke-width:0.5px;"/>
            </g>
        </g>
        <g transform="matrix(5.55556,0,0,5.55556,0,9566.93)">
            <g transform="matrix(1,0,0,1,353.411,162.323)">
                <path d="M0,9.996L3.624,9.996C4.157,9.996 4.589,9.564 4.589,9.031L4.589,0.965C4.589,0.433 4.157,0 3.624,0L0,0C-0.532,0 -0.965,0.433 -0.965,0.965L-0.965,9.031C-0.965,9.564 -0.532,9.996 0,9.996Z" style="fill:rgb(218,176,109);fill-rule:nonzero;stroke:rgb(155,133,121);stroke-width:0.5px;"/>
            </g>
        </g>
        <g transform="matrix(5.55556,0,0,5.55556,0,9566.93)">
            <g transform="matrix(1,0,0,1,355.068,164.65)">
                <path d="M0,5.343L0.391,5.343C0.924,5.343 1.355,4.911 1.355,4.378L1.355,0.965C1.355,0.432 0.924,0 0.391,0L0,0C-0.532,0 -0.965,0.432 -0.965,0.965L-0.965,4.378C-0.965,4.911 -0.532,5.343 0,5.343Z" style="fill:rgb(207,149,79);fill-rule:nonzero;stroke:rgb(138,93,59);stroke-width:0.5px;"/>
            </g>
        </g>
        <g transform="matrix(5.55556,0,0,5.55556,0,9566.93)">
            <g transform="matrix(1,0,0,1,364.373,127.556)">
                <path d="M0,28.942C-0.653,28.809 -1.326,28.788 -1.976,28.634C-2.573,28.493 -3.214,28.243 -3.561,27.718C-3.893,27.216 -4.044,26.619 -4.382,26.12C-4.661,25.708 -5.138,25.5 -5.573,25.285C-6.013,25.068 -6.487,24.872 -6.873,24.566C-7.212,24.297 -7.304,23.894 -7.19,23.484C-7.051,22.977 -6.683,22.574 -6.429,22.123C-6.299,21.891 -6.256,21.702 -6.276,21.439C-6.294,21.208 -6.314,20.976 -6.35,20.747C-6.388,20.495 -6.431,20.186 -6.603,19.984C-6.736,19.826 -6.941,19.801 -7.138,19.802C-7.484,19.805 -7.831,19.876 -8.171,19.933C-8.698,20.021 -9.227,20.104 -9.758,20.167C-9.855,20.178 -9.928,20.063 -9.902,19.979C-9.233,17.71 -8.629,15.421 -8.173,13.101C-7.973,12.086 -7.801,11.065 -7.66,10.04C-7.517,8.989 -7.448,7.932 -7.315,6.881C-7.102,5.192 -6.541,3.575 -5.727,2.077C-4.562,-0.064 -2.972,-1.924 -1.405,-3.794L-9.886,-3.794C-11.341,-3.794 -12.521,-2.629 -12.521,-1.192L-12.521,30.134C-12.521,31.571 -11.341,32.736 -9.886,32.736L6.172,32.736C4.263,31.255 2.437,29.44 0,28.942" style="fill:white;fill-rule:nonzero;"/>
            </g>
        </g>
        <g transform="matrix(5.55556,0,0,5.55556,0,9566.93)">
            <g transform="matrix(1,0,0,1,379.589,130.739)">
                <path d="M0,22.576C0.099,23.465 0.006,24.367 -0.185,25.238C-0.516,26.745 -1.133,28.182 -1.861,29.553L2.3,29.553C3.471,27.924 4.566,26.248 5.434,24.437C6.29,22.649 6.896,20.719 6.966,18.731C7.027,16.998 6.705,15.184 5.616,13.78C4.743,12.653 3.503,11.887 2.355,11.063C1.048,10.124 -0.288,9.038 -1.113,7.64C-2.752,4.864 -1.451,1.485 0.016,-1.065C1.241,-3.196 2.781,-5.125 4.402,-6.977L-0.445,-6.977C-2.771,-4.857 -4.985,-2.599 -6.84,-0.071C-8.058,1.589 -9.164,3.409 -9.711,5.402C-10.213,7.23 -10.098,9.096 -9.146,10.764C-8.123,12.555 -6.483,13.923 -4.958,15.283C-3.415,16.659 -1.816,18.094 -0.841,19.938C-0.408,20.757 -0.102,21.655 0,22.576" style="fill:white;fill-rule:nonzero;"/>
            </g>
        </g>
        <g transform="matrix(5.55556,0,0,5.55556,0,9566.93)">
            <g transform="matrix(-1,0,0,1,636.113,-450.837)">
                <rect x="350.441" y="574.686" width="54.211" height="43.779" style="fill:rgb(228,200,158);"/>
            </g>
        </g>
        <g transform="matrix(5.55556,0,0,5.55556,0,9566.93)">
            <g transform="matrix(1,0,0,1,-118.98,-450.836)">
                <rect x="527.988" y="573.286" width="15.656" height="46.578" style="fill:rgb(117,76,40);"/>
            </g>
        </g>
        <g transform="matrix(5.55556,0,0,5.55556,0,9566.93)">
            <g transform="matrix(1,0,0,1,-118.98,-450.837)">
                <rect x="529.721" y="574.686" width="13.676" height="43.779" style="fill:rgb(228,200,158);"/>
            </g>
        </g>
        <g transform="matrix(5.55556,0,0,5.55556,0,9566.93)">
            <g transform="matrix(1,0,0,1,-118.98,-23.04)">
                <text x="439.616px" y="134.431px" style="font-family:'LucidaGrande', 'Lucida Grande', sans-serif;font-weight:500;font-size:12px;fill:rgb(168,123,80);">B<tspan x="446.362px 449.674px 457.07px 460.382px 463.695px 470.909px 475.241px 481.77px 487.76px " y="134.431px 134.431px 134.431px 134.431px 134.431px 134.431px 134.431px 134.431px 134.431px ">iblioteca</tspan></text>
            </g>
        </g>
        <g transform="matrix(5.55556,0,0,5.55556,0,9566.93)">
            <g transform="matrix(1,0,0,1,333.898,163.644)">
                <path d="M0,-10.608C-0.375,-10.805 -0.044,-11.366 0.331,-11.175C0.866,-10.901 1.283,-10.512 1.61,-10.05C1.613,-10.052 1.618,-10.052 1.621,-10.054C1.502,-10.316 1.537,-10.569 1.447,-10.86C1.331,-11.239 1.086,-11.604 0.754,-11.828C0.047,-12.306 -0.82,-12.152 -1.494,-11.703C-1.504,-11.696 -1.514,-11.702 -1.524,-11.697C-1.542,-11.68 -1.551,-11.656 -1.571,-11.64C-1.643,-11.588 -1.742,-11.62 -1.802,-11.67C-2.034,-11.863 -1.972,-12.201 -1.845,-12.5C-2.331,-12.474 -2.801,-12.359 -3.253,-12.157C-3.272,-12.022 -3.292,-11.886 -3.312,-11.751C-3.344,-11.531 -3.623,-11.592 -3.684,-11.762C-3.698,-11.687 -3.792,-11.622 -3.875,-11.662C-5.449,-12.417 -7.061,-12.671 -8.684,-12.091C-8.461,-11.982 -8.25,-11.858 -8.037,-11.733C-7.503,-11.745 -6.976,-11.74 -6.492,-11.717C-6.219,-11.704 -6.217,-11.293 -6.492,-11.291C-6.833,-11.289 -7.172,-11.265 -7.512,-11.246C-7.526,-11.133 -7.61,-11.035 -7.754,-11.08C-7.869,-11.116 -7.975,-11.174 -8.086,-11.219C-8.597,-11.174 -9.105,-11.108 -9.611,-11.011C-10.541,-10.834 -11.448,-10.721 -11.766,-9.758C-11.759,-9.759 -11.757,-9.765 -11.75,-9.765C-11.667,-9.765 -11.627,-9.708 -11.615,-9.645C-11.536,-9.732 -11.454,-9.816 -11.363,-9.889C-11.134,-10.072 -10.807,-9.763 -11.034,-9.56C-12.292,-8.434 -11.986,-4.697 -11.667,-3.201C-11.225,-1.127 -10.07,0.644 -8.086,1.427C-8.07,1.244 -7.838,1.112 -7.68,1.221C-7.345,1.453 -7.158,1.785 -6.706,1.799C-6.45,1.807 -6.237,1.714 -6.063,1.564C-6.22,1.362 -6.127,0.96 -5.781,0.931C-5.339,0.893 -5.2,1.239 -4.953,1.525C-4.49,2.063 -3.939,1.359 -3.678,0.985C-3.548,0.798 -3.306,0.85 -3.212,0.993C-0.391,0.522 0.531,-1.567 1.296,-3.973C1.968,-6.088 2.369,-9.368 0,-10.608" style="fill:rgb(41,45,65);fill-rule:nonzero;"/>
            </g>
        </g>
        <g transform="matrix(5.55556,0,0,5.55556,0,9566.93)">
            <g transform="matrix(1,0,0,1,356.732,195.55)">
                <path d="M0,2.178C-0.571,2.806 -1.668,2.894 -2.455,2.927C-3.75,2.981 -5.115,2.807 -6.362,2.456C-6.728,2.353 -7.062,2.31 -7.186,2.01C-7.351,1.609 -6.979,1.235 -6.53,0.942C-6.479,0.924 -6.437,0.898 -6.403,0.863C-6.054,0.653 -5.683,0.492 -5.485,0.412C-4.509,0.018 -3.456,-0.176 -2.527,-0.685C-2.471,-0.716 -2.439,-0.758 -2.419,-0.803C-2.106,-0.615 -1.728,-0.495 -1.435,-0.428C-1.096,-0.35 -0.318,-0.298 0.272,-0.434C0.272,-0.426 0.266,-0.424 0.266,-0.415C0.303,0.369 0.603,1.515 0,2.178" style="fill:rgb(102,44,145);fill-rule:nonzero;"/>
            </g>
        </g>
        <g transform="matrix(5.55556,0,0,5.55556,0,9566.93)">
            <g transform="matrix(1,0,0,1,348.83,174.357)">
                <path d="M0,6.115C-0.074,6.041 -0.177,6 -0.294,6.04C-0.458,5.93 -0.621,5.82 -0.784,5.709C-0.778,5.516 -0.944,5.387 -1.121,5.373C-1.539,5.338 -1.839,5.116 -2.042,4.762C-2.186,4.513 -2.522,3.732 -1.883,3.653C-1.683,3.628 -1.471,3.452 -1.555,3.221C-1.854,2.396 -0.937,2.37 -0.418,2.397C-0.303,2.509 -0.121,2.547 0.056,2.399C1.138,1.492 1.976,0.45 2.673,-0.77C3.181,-0.292 4.036,-0.16 4.734,-0.19C4.414,0.407 4.174,1.049 3.813,1.625C3.406,2.273 2.789,2.621 2.329,3.173C2.104,3.442 2.08,3.629 1.991,3.976C1.934,4.202 0.737,6.885 0.209,6.173C0.157,6.103 0.068,6.089 0,6.115" style="fill:rgb(253,206,174);fill-rule:nonzero;"/>
            </g>
        </g>
        <g transform="matrix(5.55556,0,0,5.55556,0,9566.93)">
            <g transform="matrix(1,0,0,1,355.101,167.333)">
                <path d="M0,0.027C-0.004,0.017 -0.009,0.009 -0.014,0C-0.009,0.006 -0.003,0.012 0.002,0.019C0.001,0.022 0,0.024 0,0.027" style="fill:rgb(35,31,32);fill-rule:nonzero;"/>
            </g>
        </g>
        <g transform="matrix(5.55556,0,0,5.55556,0,9566.93)">
            <g transform="matrix(1,0,0,1,354.92,177.814)">
                <path d="M0,-10.14C0.058,-10.152 0.09,-10.198 0.124,-10.239C0.122,-10.228 0.119,-10.218 0.116,-10.207C0.509,-10.515 1.045,-10.729 1.515,-10.882C1.738,-10.954 2.041,-10.983 2.27,-11.096C2.279,-11.049 2.277,-11.005 2.291,-10.957C2.318,-10.857 2.407,-10.801 2.506,-10.794C3.744,-10.698 5.836,-10.245 6.753,-11.369L6.754,-11.37C7.455,-11.041 8.21,-10.864 9.001,-10.827C8.923,-10.792 8.856,-10.707 8.873,-10.611C9.497,-7.015 8.771,-3.438 8.766,0.194C8.766,0.264 8.782,0.322 8.808,0.373C7.321,0.56 5.837,0.717 4.337,0.75C3.093,0.777 0.389,1.23 -0.314,0.049C-0.596,-0.423 -0.312,-1.923 -0.31,-2.437C-0.309,-3.265 -0.307,-4.094 -0.306,-4.922C-0.303,-6.646 -0.485,-8.462 -0.196,-10.167C-0.141,-10.136 -0.073,-10.124 0,-10.14" style="fill:rgb(184,65,68);fill-rule:nonzero;"/>
            </g>
        </g>
        <g transform="matrix(5.55556,0,0,5.55556,0,9566.93)">
            <g transform="matrix(1,0,0,1,355.01,167.265)">
                <path d="M0,-0.007C0.005,-0.007 0.01,-0.008 0.015,-0.009C0.018,-0.005 0.021,-0.002 0.023,0.002C0.017,-0.003 0.008,-0.003 0,-0.007" style="fill:rgb(35,31,32);fill-rule:nonzero;"/>
            </g>
        </g>
        <g transform="matrix(5.55556,0,0,5.55556,0,9566.93)">
            <g transform="matrix(1,0,0,1,360.131,166.605)">
                <path d="M0,-1.203C-0.021,-1.191 -0.037,-1.174 -0.067,-1.174C-0.076,-1.174 -0.08,-1.182 -0.088,-1.183C-0.065,-1.08 -0.085,-0.972 -0.202,-0.92C-0.985,-0.574 -1.255,-0.659 -2.162,-0.697C-2.319,-0.704 -2.499,-0.688 -2.685,-0.67C-2.652,-0.052 -2.368,-0.048 -1.796,-0.047C-1.441,-0.046 -1.087,-0.033 -0.733,-0.028C-0.113,-0.018 0.554,0 1.014,-0.446C0.658,-0.659 0.321,-0.914 0,-1.203" style="fill:white;fill-rule:nonzero;"/>
            </g>
        </g>
        <g transform="matrix(5.55556,0,0,5.55556,0,9566.93)">
            <g transform="matrix(1,0,0,1,359.725,152.712)">
                <path d="M0,12.487C0.08,12.464 0.149,12.488 0.207,12.53C0.209,12.524 0.211,12.518 0.214,12.512C-0.114,12.193 -0.423,11.834 -0.701,11.423C-2.198,9.214 -2.475,6.987 -1.791,4.677C-2.728,4.477 -3.785,3.966 -3.721,2.905C-3.67,2.063 -3.246,1.218 -2.396,0.973C-2.383,0.97 -2.375,0.98 -2.362,0.978C-2.168,0.316 -1.815,-0.236 -1.356,-0.651C-2.191,-0.759 -2.932,-0.649 -3.563,0.042C-3.571,0.05 -3.58,0.052 -3.589,0.06C-3.611,0.14 -3.674,0.214 -3.77,0.223C-4.381,0.281 -4.986,0.334 -5.568,0.543C-5.888,0.658 -6.601,0.907 -6.531,1.39C-6.5,1.61 -6.195,1.872 -6.059,2.059C-5.964,2.19 -6.051,2.335 -6.175,2.399C-7.015,4.966 -7.225,7.583 -5.687,9.967C-4.314,12.097 -2.583,13.246 0,12.487" style="fill:rgb(139,93,47);fill-rule:nonzero;"/>
            </g>
        </g>
        <g transform="matrix(5.55556,0,0,5.55556,0,9566.93)">
            <g transform="matrix(-0.754339,0.656485,0.656485,0.754339,366.182,159.722)">
                <path d="M-1.556,-3.569C-2.308,-4.638 -2.783,-5.938 -2.713,-7.243C-4.656,-6.525 -1.622,-1.791 -1.556,-1.709C0.011,0.242 2.007,1.857 4.478,2.337C3.541,0.147 -0.371,-1.885 -1.556,-3.569" style="fill:rgb(139,93,47);fill-rule:nonzero;"/>
            </g>
        </g>
        <g transform="matrix(5.55556,0,0,5.55556,0,9566.93)">
            <g transform="matrix(1,0,0,1,363.932,162.041)">
                <path d="M0,-7.436C0.609,-5.93 0.428,-4.368 0.083,-2.817C-0.229,-1.417 -1.001,0.069 -0.839,1.545C-0.677,3.019 0.228,4.028 1.462,4.346C-1.229,4.784 -3.497,3.522 -4.927,0.973C-6.456,-1.754 -5.464,-3.875 -4.741,-6.613C-4.682,-6.838 -5.012,-6.99 -5.125,-6.775C-5.233,-6.57 -5.316,-6.369 -5.41,-6.166C-5.651,-6.143 -5.887,-6.157 -6.067,-6.349C-6.264,-6.556 -6.277,-6.872 -6.148,-7.117C-6.109,-7.193 -6.117,-7.263 -6.145,-7.323C-6.108,-7.371 -6.08,-7.426 -6.074,-7.498C-5.695,-12.22 -0.947,-9.779 0,-7.436" style="fill:rgb(139,93,47);fill-rule:nonzero;"/>
            </g>
        </g>
        <g transform="matrix(5.55556,0,0,5.55556,0,9566.93)">
            <g transform="matrix(1,0,0,1,367.611,174.892)">
                <path d="M0,0.018C0.099,-0.035 0.175,-0.19 0.13,-0.301C0.006,-0.603 -0.315,-0.697 -0.562,-0.894C-0.476,-1.151 -0.379,-1.376 -0.155,-1.559C0.019,-1.702 0.224,-1.766 0.437,-1.795C0.449,-1.695 0.48,-1.599 0.52,-1.504C0.432,-1.284 0.682,-0.982 0.965,-1.117C1.21,-1.234 1.607,-1.393 1.917,-1.36C2.031,-1.037 1.865,-0.571 1.709,-0.322C1.662,-0.248 1.603,-0.184 1.537,-0.124C1.568,-0.243 1.612,-0.355 1.635,-0.477C1.699,-0.822 1.191,-1.105 1.022,-0.735C0.662,0.054 0.625,0.796 -0.218,1.294C-1.098,1.813 -2.181,1.6 -2.929,0.955C-2.962,0.927 -2.996,0.908 -3.031,0.896C-2.99,0.35 -2.943,-0.203 -2.898,-0.759C-2.438,-0.81 -1.966,-1.037 -1.584,-1.369C-1.574,-1.327 -1.563,-1.28 -1.555,-1.245C-1.415,-0.715 -0.648,0.364 0,0.018" style="fill:rgb(253,206,174);fill-rule:nonzero;"/>
            </g>
        </g>
        <g transform="matrix(5.55556,0,0,5.55556,0,9566.93)">
            <g transform="matrix(1,0,0,1,369.736,178.639)">
                <path d="M0,-9.522C0.688,-10.421 2.168,-10.208 2.995,-10.876C3.223,-10.793 3.528,-10.683 3.537,-10.667C3.61,-10.522 2.773,-8.179 2.697,-7.887C2.139,-5.764 1.548,-3.648 1.05,-1.51C1.036,-1.49 1.021,-1.473 1.011,-1.448C0.706,-0.654 -0.22,-0.079 -0.866,0.41C-1.42,0.828 -1.679,1.354 -2.413,1.266C-2.13,0.218 -1.928,-0.893 -1.832,-1.97C-1.455,-2.225 -1.168,-2.557 -0.953,-2.945C-0.551,-2.874 -0.199,-3.24 0.027,-3.54C0.303,-3.903 0.467,-4.348 0.485,-4.804C0.5,-5.172 0.432,-5.657 0.006,-5.751C-0.353,-5.831 -0.781,-5.705 -1.146,-5.548C-1.158,-5.644 -1.167,-5.74 -1.163,-5.84C-1.162,-5.847 -1.17,-5.85 -1.17,-5.857C-0.603,-6.971 -0.003,-8.286 0,-9.522" style="fill:rgb(158,30,99);fill-rule:nonzero;"/>
            </g>
        </g>
        <g transform="matrix(5.55556,0,0,5.55556,0,9566.93)">
            <g transform="matrix(1,0,0,1,364.763,167.294)">
                <path d="M0,6.174C0.154,4.042 0.182,1.903 -0.555,0C0.617,0.775 0.949,2.201 1.16,3.558C1.413,5.185 0.976,5.561 0,6.174" style="fill:white;fill-rule:nonzero;"/>
            </g>
        </g>
        <g transform="matrix(5.55556,0,0,5.55556,0,9566.93)">
            <g transform="matrix(1,0,0,1,357.323,156.392)">
                <path d="M0,-1.591C-0.166,-1.209 -0.147,-0.763 0.11,-0.422C0.301,-0.171 0.622,0 0.945,0.026C0.883,0.179 0.843,0.33 0.788,0.483C0.141,0.254 -0.767,0.033 -0.755,-0.775C-0.747,-1.277 -0.519,-1.808 -0.09,-2.074C-0.1,-1.999 -0.115,-1.927 -0.121,-1.849C-0.13,-1.725 -0.076,-1.642 0,-1.591" style="fill:rgb(236,0,140);fill-rule:nonzero;"/>
            </g>
        </g>
        <g transform="matrix(5.55556,0,0,5.55556,0,9566.93)">
            <g transform="matrix(1,0,0,1,353.935,168.893)">
                <path d="M0,3.585C-0.006,3.956 -0.004,4.326 -0.009,4.696C-0.028,4.693 -0.036,4.677 -0.059,4.679C-0.973,4.735 -2.157,4.758 -2.223,3.508C-2.245,3.07 -1.936,2.447 -1.787,2.038C-1.389,0.943 -0.779,-0.705 0.416,-1.173C-0.056,0.346 0.026,2.008 0,3.585" style="fill:white;fill-rule:nonzero;"/>
            </g>
        </g>
        <g transform="matrix(5.55556,0,0,5.55556,0,9566.93)">
            <g transform="matrix(1,0,0,1,354.428,188.881)">
                <path d="M0,-9.816C3.255,-9.483 6.509,-9.52 9.743,-10.024C11.394,-7.671 10.974,-4.468 11.734,-1.806C11.737,-1.797 11.746,-1.795 11.75,-1.787C7.092,-0.025 2.653,0.208 -2.05,-1.692C-2.04,-1.724 -2.027,-1.753 -2.025,-1.791C-1.862,-4.661 -1.308,-7.273 0,-9.816" style="fill:rgb(10,77,119);fill-rule:nonzero;"/>
            </g>
        </g>
        <g transform="matrix(5.55556,0,0,5.55556,0,9566.93)">
            <g transform="matrix(1,0,0,1,364.371,191.324)">
                <path d="M0,-0.227C0.089,0.518 0.133,1.322 0.403,2.026C-0.428,2.284 -1.226,2.506 -2.106,2.418C-2.342,0.955 -2.355,-0.745 -2.849,-2.16C-1.951,-2.283 -1.056,-2.474 -0.162,-2.733C-0.235,-1.908 -0.097,-1.032 0,-0.227" style="fill:rgb(253,206,174);fill-rule:nonzero;"/>
            </g>
        </g>
        <g transform="matrix(5.55556,0,0,5.55556,0,9566.93)">
            <g transform="matrix(0.186688,-0.982419,-0.982419,-0.186688,364.006,193.601)">
                <path d="M-0.924,-0.64C-1.127,-0.125 -1.709,1.604 -0.916,1.866C-0.917,1.859 -0.922,1.858 -0.924,1.851C-1.073,0.943 -0.593,-0.25 -0.019,-0.967C-0.484,-1.05 -0.639,-1.363 -0.924,-0.64" style="fill:white;fill-rule:nonzero;"/>
            </g>
        </g>
        <g transform="matrix(5.55556,0,0,5.55556,0,9566.93)">
            <g transform="matrix(1,0,0,1,357.846,193.263)">
                <path d="M0,-3.996C-0.242,-3.394 -0.282,-2.683 -0.361,-2.055C-0.427,-1.531 -0.484,-1.005 -0.591,-0.487C-0.651,-0.193 -0.756,0.08 -0.78,0.37C-1.072,0.322 -1.428,0.437 -1.717,0.426C-2.219,0.407 -2.663,0.303 -3.097,0.104C-2.719,-1.255 -2.499,-2.982 -2.624,-4.433C-1.752,-4.214 -0.877,-4.069 0,-3.996" style="fill:rgb(253,206,174);fill-rule:nonzero;"/>
            </g>
        </g>
        <g transform="matrix(5.55556,0,0,5.55556,0,9566.93)">
            <g transform="matrix(1,0,0,1,354.339,194.823)">
                <path d="M0,-1.246C0.275,-0.81 0.932,-0.705 1.401,-0.649C1.719,-0.61 2.351,-0.515 2.743,-0.669C2.744,-0.627 2.753,-0.583 2.776,-0.538C3.056,0 0.946,-0.313 0.796,-0.357C0.572,-0.423 0.111,-0.505 -0.012,-0.723C-0.104,-0.887 -0.06,-1.071 0,-1.246" style="fill:white;fill-rule:nonzero;"/>
            </g>
        </g>
        <g transform="matrix(5.55556,0,0,5.55556,0,9566.93)">
            <g transform="matrix(1,0,0,1,362.187,198.588)">
                <path d="M0,-3.399C0.763,-3.176 1.896,-3.296 2.355,-3.368C2.581,-3.403 2.853,-3.475 3.078,-3.603C3.062,-3.503 3.093,-3.398 3.204,-3.331C4.078,-2.799 5.09,-2.595 6.004,-2.15C6.44,-1.938 7.792,-1.15 7.347,-0.454C7.21,-0.24 6.375,-0.168 6.16,-0.127C4.957,0.104 3.684,0.204 2.461,0.089C1.709,0.019 0.707,-0.121 0.198,-0.744C-0.405,-1.483 -0.069,-2.505 0.009,-3.371C0.01,-3.383 0.001,-3.388 0,-3.399" style="fill:rgb(102,44,145);fill-rule:nonzero;"/>
            </g>
        </g>
        <g transform="matrix(5.55556,0,0,5.55556,0,9566.93)">
            <g transform="matrix(1,0,0,1,324.423,198.977)">
                <path d="M0,-3.501C0.03,-3.521 0.051,-3.546 0.07,-3.571C0.725,-3.527 1.383,-3.511 2.044,-3.493C2.452,-3.483 2.854,-3.456 3.236,-3.497C3.353,-2.84 3.605,-2.049 3.377,-1.453C3.063,-0.631 2.134,-0.351 1.358,-0.194C0.048,0.07 -1.369,0.013 -2.688,-0.167C-2.952,-0.203 -3.714,-0.209 -3.907,-0.42C-4.454,-1.02 -3.387,-1.839 -2.884,-2.131C-1.96,-2.667 -0.895,-2.905 0,-3.501" style="fill:rgb(96,56,18);fill-rule:nonzero;"/>
            </g>
        </g>
        <g transform="matrix(5.55556,0,0,5.55556,0,9566.93)">
            <g transform="matrix(1,0,0,1,323.247,179.669)">
                <path d="M0,15.052C-0.398,9.961 0.696,5.048 0.533,0.012C1.149,0.349 2.011,0.301 2.655,0.293C5.178,0.264 7.916,0.242 10.392,-0.185C10.459,-0.197 10.493,-0.236 10.53,-0.272C10.403,1.814 10.441,3.908 10.671,5.986C10.965,8.655 10.947,11.33 11.242,13.99C10.718,14.451 9.949,14.587 9.286,14.734C8.59,14.888 7.728,15.11 6.995,14.958C6.988,14.049 6.712,13.093 6.64,12.178C6.55,11.053 6.506,9.861 6.196,8.773C6.195,8.77 6.192,8.77 6.191,8.767C6.272,7.445 6.35,6.123 6.463,4.822C6.477,4.664 6.219,4.629 6.186,4.784C5.497,8.034 4.899,11.592 4.964,14.928C4.21,15.324 3.144,15.126 2.336,15.113C1.558,15.1 0.778,15.082 0,15.052" style="fill:rgb(10,77,119);fill-rule:nonzero;"/>
            </g>
        </g>
        <g transform="matrix(5.55556,0,0,5.55556,0,9566.93)">
            <g transform="matrix(1,0,0,1,322.761,172.867)">
                <path d="M0,-2.41C0.199,-0.97 0.276,0.455 0.289,1.887C0.248,1.903 0.208,1.923 0.18,1.965C-0.338,2.723 -0.677,3.608 -1.161,4.39C-1.446,4.85 -1.711,5.273 -2.129,5.621C-2.717,6.11 -3.327,5.914 -3.97,5.64C-3.938,5.578 -3.923,5.504 -3.944,5.415C-4.357,3.72 -2.172,0.122 -1.765,-1.654C-1.428,-3.123 -1.33,-3.84 0.049,-4.733C1.039,-5.374 2.117,-5.844 3.229,-6.227C3.56,-5.456 5.82,-5.701 6.315,-5.711C6.828,-5.723 7.603,-5.624 8.053,-5.985C10.478,-4.587 15.491,-5.503 16.062,-8.677C16.075,-8.754 16.064,-8.821 16.043,-8.882C16.313,-8.931 16.59,-8.952 16.859,-8.906C17.216,-8.845 17.471,-8.665 17.743,-8.464C17.688,-8.402 17.647,-8.327 17.643,-8.224C17.452,-4.559 14.183,-2.841 11.04,-2.002C11.035,-2.267 11.041,-2.533 11.019,-2.797C11.002,-2.994 10.681,-3.075 10.646,-2.847C10.591,-2.502 10.55,-2.154 10.516,-1.806C10.434,-1.712 10.43,-1.579 10.486,-1.467C10.398,-0.441 10.368,0.593 10.314,1.62C10.279,2.289 10.087,3.123 10.249,3.778C10.462,4.643 10.957,4.734 10.721,5.943C10.718,5.957 10.722,5.967 10.721,5.981C8.413,5.784 6.024,6.193 3.709,6.278C2.979,6.305 1.604,6.542 1.13,5.838C0.723,5.233 1.051,3.668 1.062,2.992C1.091,1.117 0.942,-0.739 0.665,-2.593C0.599,-3.032 -0.06,-2.843 0,-2.41" style="fill:rgb(184,65,68);fill-rule:nonzero;"/>
            </g>
        </g>
        <g transform="matrix(5.55556,0,0,5.55556,0,9566.93)">
            <g transform="matrix(1,0,0,1,321.208,176.89)">
                <path d="M0,11.745C-0.005,11.775 0.014,11.793 0.016,11.821C-0.069,11.787 -0.167,11.797 -0.245,11.888C-0.411,12.082 -0.626,12.19 -0.862,12.25C-0.892,12.193 -0.935,12.14 -1.01,12.102C-3.612,10.794 -5.177,8.245 -7.295,6.346C-7.287,6.328 -7.27,6.325 -7.264,6.304C-6.992,5.245 -6.876,4.136 -6.771,3.049C-6.701,2.319 -6.97,-0.015 -6.11,-0.505C-6.092,-0.411 -6.038,-0.326 -5.933,-0.271C-5.484,-0.037 -5.202,0.409 -4.788,0.7C-4.606,0.827 -4.378,0.973 -4.143,1.055C-4.869,1.664 -5.125,2.471 -4.273,3.287C-4.391,3.651 -4.322,4.057 -3.974,4.294C-3.832,4.391 -3.697,4.361 -3.563,4.432C-3.346,4.547 -3.341,4.652 -3.202,4.836C-3.05,5.038 -2.98,5.194 -2.746,5.329C-1.594,5.992 -0.967,5.007 -0.612,3.964C-0.43,4.135 -0.141,4.233 0.062,4.328C0.305,4.441 0.54,4.737 0.813,4.773C0.63,7.13 0.383,9.408 0,11.745" style="fill:rgb(19,117,188);fill-rule:nonzero;"/>
            </g>
        </g>
        <g transform="matrix(5.55556,0,0,5.55556,0,9566.93)">
            <g transform="matrix(1,0,0,1,320.096,179.741)">
                <path d="M0,0.882C-0.172,1.493 -0.937,2.689 -1.584,1.653C-1.71,1.451 -1.625,1.324 -1.831,1.163C-2.007,1.024 -2.838,0.957 -2.586,0.511C-2.528,0.408 -2.533,0.244 -2.631,0.163C-3.634,-0.668 -2.788,-1.348 -2.032,-1.807C-2.009,-1.641 -1.975,-1.47 -1.912,-1.285C-1.899,-1.246 -1.88,-1.218 -1.859,-1.19C-1.969,-1.053 -1.979,-0.85 -1.774,-0.755C-1.128,-0.455 -0.382,-0.194 0.278,-0.338C0.162,0.064 0.113,0.478 0,0.882" style="fill:rgb(253,206,174);fill-rule:nonzero;"/>
            </g>
        </g>
        <g transform="matrix(5.55556,0,0,5.55556,0,9566.93)">
            <g transform="matrix(1,0,0,1,328.261,166.676)">
                <path d="M0,-1.228C0.127,-1.078 0.286,-0.839 0.361,-0.789C0.598,-0.63 0.874,-0.584 1.149,-0.647C1.343,-0.692 1.506,-0.784 1.657,-0.893C1.687,-0.844 1.729,-0.798 1.785,-0.756C2.559,-0.188 1.492,-0.223 1.311,-0.209C0.981,-0.185 0.649,-0.172 0.319,-0.153C0.208,-0.147 -1.301,0 -1.682,-0.257C-1.542,-0.363 -1.553,-0.566 -1.662,-0.678C-1.445,-0.6 -1.213,-0.564 -1.004,-0.583C-0.588,-0.623 -0.231,-0.886 0,-1.228" style="fill:white;fill-rule:nonzero;"/>
            </g>
        </g>
        <g transform="matrix(5.55556,0,0,5.55556,0,9566.93)">
            <g transform="matrix(1,0,0,1,338.32,160.206)">
                <path d="M0,2.14C-0.016,1.508 0.384,1.214 0.79,0.866C0.774,0.937 0.747,1.006 0.735,1.077C0.71,1.223 0.903,1.327 0.987,1.183C1.234,0.757 1.385,0.277 1.568,-0.18C1.738,-0.602 1.889,-1.181 2.188,-1.539C2.296,-1.788 2.494,-1.859 2.782,-1.753C2.792,-1.641 2.801,-1.53 2.81,-1.418C2.819,-1.062 2.768,-0.705 2.693,-0.358C2.59,0.127 2.354,0.593 2.284,1.079C2.264,1.217 2.391,1.356 2.518,1.33C2.573,1.334 2.631,1.315 2.683,1.256C3.033,1.084 3.227,1.164 3.263,1.496C3.309,1.62 3.427,1.706 3.564,1.668C4.203,1.49 4.026,1.978 4.017,2.199C4.014,2.276 4.062,2.346 4.124,2.386C4.917,2.887 3.389,3.999 2.877,3.966C2.865,3.965 2.857,3.973 2.847,3.977C2.845,3.924 2.833,3.87 2.796,3.821C2.22,3.05 1.091,2.873 0.264,3.298C0.245,2.921 0.009,2.524 0,2.14" style="fill:rgb(253,206,174);fill-rule:nonzero;"/>
            </g>
        </g>
        <g transform="matrix(5.55556,0,0,5.55556,0,9566.93)">
            <g transform="matrix(1,0,0,1,331.111,197.77)">
                <path d="M0,-2.542C0.476,-2.582 0.956,-2.695 1.395,-2.784C1.839,-2.874 2.304,-2.967 2.741,-3.118C2.752,-3.111 2.759,-3.101 2.771,-3.094C3.62,-2.674 4.556,-2.505 5.453,-2.222C6.317,-1.95 8.621,-0.738 6.813,-0.133C5.659,0.252 4.394,0.472 3.181,0.517C2.525,0.541 1.679,0.576 1.063,0.29C-0.069,-0.238 -0.016,-1.472 0,-2.542" style="fill:rgb(96,56,18);fill-rule:nonzero;"/>
            </g>
        </g>
        <g transform="matrix(5.55556,0,0,5.55556,0,9566.93)">
            <g transform="matrix(0.856581,-0.516013,-0.516013,-0.856581,370.097,169.46)">
                <path d="M-0.028,-0.003C-0.011,0.018 0.006,0.041 0.024,0.062C0.047,0.093 -0.011,0.128 -0.028,0.093C-0.039,0.067 -0.051,0.042 -0.062,0.017C-0.072,-0.006 -0.043,-0.023 -0.028,-0.003" style="fill:rgb(35,31,32);fill-rule:nonzero;"/>
            </g>
        </g>
        <g transform="matrix(5.55556,0,0,5.55556,0,9566.93)">
            <g transform="matrix(1,0,0,1,-118.98,-23.04)">
                <g opacity="0.2">
                    <g transform="matrix(1,0,0,1,441.263,178.26)">
                        <path d="M0,-1.22C0.079,-1.307 0.161,-1.391 0.252,-1.464C0.481,-1.648 0.809,-1.338 0.581,-1.135C-0.057,-0.564 -0.291,0.677 -0.327,1.959C0.752,1.303 1.565,0.257 2.542,-0.531C2.629,-0.601 2.816,-0.569 2.798,-0.424C2.697,0.357 2.523,1.124 2.396,1.9C3.583,1.516 4.535,0.639 5.704,0.205C5.81,0.166 5.926,0.286 5.889,0.39C5.74,0.812 5.558,1.338 5.679,1.79C5.828,2.348 6.506,2.226 6.924,2.093C7.59,1.881 8.22,1.487 8.735,1.018C8.813,0.948 8.964,0.967 8.985,1.084C9.08,1.578 9.292,2.068 9.613,2.456C9.846,2.737 10.19,3.026 10.581,2.96C10.813,2.922 11.005,2.768 11.158,2.6C11.289,2.456 11.339,2.306 11.372,2.118C11.512,1.318 11.35,0.491 11.346,-0.314C11.345,-0.407 11.442,-0.49 11.535,-0.458C12.174,-0.241 12.764,0.076 13.351,0.402C13.174,-0.675 12.67,-1.632 11.615,-2.183C11.24,-2.38 11.571,-2.942 11.946,-2.75C12.481,-2.477 12.898,-2.087 13.226,-1.625C13.229,-1.628 13.233,-1.628 13.236,-1.63C13.117,-1.891 13.152,-2.144 13.063,-2.436C12.946,-2.815 12.701,-3.179 12.369,-3.403C11.662,-3.881 10.795,-3.727 10.121,-3.279C10.111,-3.272 10.102,-3.278 10.091,-3.273C10.073,-3.255 10.064,-3.231 10.044,-3.216C9.973,-3.163 9.873,-3.196 9.813,-3.245C9.581,-3.438 9.644,-3.776 9.771,-4.075C9.284,-4.05 8.814,-3.935 8.362,-3.733C8.343,-3.597 8.323,-3.462 8.304,-3.326C8.271,-3.106 7.992,-3.167 7.932,-3.338C7.917,-3.262 7.823,-3.198 7.74,-3.237C6.166,-3.992 4.555,-4.246 2.932,-3.666C3.154,-3.557 3.365,-3.433 3.578,-3.309C4.112,-3.32 4.64,-3.316 5.123,-3.293C5.396,-3.28 5.398,-2.868 5.123,-2.866C4.782,-2.864 4.443,-2.84 4.104,-2.822C4.089,-2.708 4.005,-2.611 3.861,-2.656C3.746,-2.692 3.641,-2.749 3.529,-2.794C3.019,-2.749 2.51,-2.683 2.004,-2.587C1.074,-2.409 0.167,-2.297 -0.15,-1.334C-0.144,-1.335 -0.142,-1.341 -0.135,-1.341C-0.052,-1.341 -0.012,-1.283 0,-1.22" style="fill:white;fill-rule:nonzero;"/>
                    </g>
                </g>
            </g>
        </g>
        <g transform="matrix(5.55556,0,0,5.55556,0,9566.93)">
            <g transform="matrix(1,0,0,1,-118.98,-23.04)">
                <g opacity="0.2">
                    <g transform="matrix(1,0,0,1,472.53,178.867)">
                        <path d="M0,-0.716C-0.416,0.555 -0.675,1.837 -0.646,3.097C-0.634,3.117 -0.625,3.138 -0.611,3.158C0.063,2.583 0.337,1.635 0.544,0.808C0.578,0.675 0.747,0.674 0.818,0.773C1.024,1.062 1.369,1.201 1.65,1.409C2.042,0.83 2.059,0.073 2.501,-0.477C2.618,-1.223 3.021,-1.923 3.779,-2.142C3.792,-2.145 3.8,-2.135 3.813,-2.137C4.007,-2.799 4.359,-3.351 4.818,-3.766C3.983,-3.874 3.243,-3.764 2.611,-3.073C2.604,-3.065 2.595,-3.063 2.586,-3.055C2.563,-2.975 2.501,-2.902 2.405,-2.892C1.794,-2.834 1.188,-2.781 0.606,-2.572C0.287,-2.457 -0.426,-2.208 -0.356,-1.725C-0.325,-1.506 -0.021,-1.243 0.116,-1.056C0.211,-0.925 0.124,-0.78 0,-0.716" style="fill:white;fill-rule:nonzero;"/>
                    </g>
                </g>
            </g>
        </g>
        <g transform="matrix(5.55556,0,0,5.55556,0,9566.93)">
            <g transform="matrix(1,0,0,1,-118.98,-23.04)">
                <g opacity="0.2">
                    <g transform="matrix(1,0,0,1,484.908,175.056)">
                        <path d="M0,3.837C-0.393,2.217 -1.181,-0.021 -2.455,0.462C-1.594,1.349 -1.115,2.557 -0.952,3.785C-0.641,3.83 -0.316,3.858 0,3.837" style="fill:white;fill-rule:nonzero;"/>
                    </g>
                </g>
            </g>
        </g>
        <g transform="matrix(5.55556,0,0,5.55556,0,9566.93)">
            <g transform="matrix(1,0,0,1,-118.98,-23.04)">
                <g opacity="0.2">
                    <g transform="matrix(1,0,0,1,479.127,182.025)">
                        <path d="M0,-5.294C0.434,-4.825 0.6,-4.165 0.684,-3.548C0.79,-2.774 0.772,-1.989 0.757,-1.211C0.74,-0.407 0.69,0.415 0.854,1.207C1.019,1.996 1.413,2.692 1.887,3.333C2.077,2.692 2.279,2.054 2.464,1.412C2.502,1.278 2.727,1.259 2.753,1.412C2.828,1.852 2.956,2.282 3.153,2.679C3.372,1.85 3.691,1.03 3.868,0.239C4.213,-1.312 4.395,-2.874 3.785,-4.38C2.938,-6.472 -0.931,-8.627 -2.02,-5.704C-1.312,-5.882 -0.529,-5.867 0,-5.294" style="fill:white;fill-rule:nonzero;"/>
                    </g>
                </g>
            </g>
        </g>
        <g transform="matrix(5.55556,0,0,5.55556,0,9566.93)">
            <g transform="matrix(1,0,0,1,-118.98,-23.04)">
                <g opacity="0.15">
                    <g transform="matrix(1,0,0,1,485.76,198.702)">
                        <path d="M0,0.078C-0.782,-0.101 -1.5,-0.451 -2.112,-0.965C-2.143,-0.6 -2.173,-0.234 -2.2,0.126C-2.165,0.138 -2.131,0.157 -2.098,0.185C-1.35,0.829 -0.267,1.043 0.613,0.524C0.766,0.434 0.884,0.334 0.99,0.23C0.657,0.197 0.326,0.153 0,0.078" style="fill:rgb(96,56,18);fill-rule:nonzero;"/>
                    </g>
                </g>
            </g>
        </g>
        <g transform="matrix(5.55556,0,0,5.55556,0,9566.93)">
            <g transform="matrix(1,0,0,1,-118.98,-23.04)">
                <g opacity="0.15">
                    <g transform="matrix(1,0,0,1,481.9,213.208)">
                        <path d="M0,0.173C0.387,-0.233 0.839,-0.566 1.271,-0.92C1.267,-1.141 1.27,-1.361 1.289,-1.577C0.396,-1.318 -0.5,-1.127 -1.397,-1.004C-1.101,-0.151 -0.979,0.804 -0.877,1.75C-0.727,1.153 -0.427,0.621 0,0.173" style="fill:rgb(96,56,18);fill-rule:nonzero;"/>
                    </g>
                </g>
            </g>
        </g>
        <g transform="matrix(5.55556,0,0,5.55556,0,9566.93)">
            <g transform="matrix(1,0,0,1,-118.98,-23.04)">
                <g opacity="0.15">
                    <g transform="matrix(1,0,0,1,475.063,215.234)">
                        <path d="M0,-2.374C0.68,-1.551 0.898,-0.416 1.035,0.614C1.052,0.738 1.058,0.864 1.07,0.989C1.105,0.855 1.144,0.721 1.173,0.582C1.279,0.064 1.337,-0.462 1.402,-0.986C1.481,-1.614 1.521,-2.325 1.764,-2.927C0.887,-2.999 0.012,-3.145 -0.86,-3.363C-0.851,-3.246 -0.855,-3.119 -0.85,-2.999C-0.523,-2.863 -0.23,-2.654 0,-2.374" style="fill:rgb(96,56,18);fill-rule:nonzero;"/>
                    </g>
                </g>
            </g>
        </g>
        <g transform="matrix(5.55556,0,0,5.55556,0,9566.93)">
            <g transform="matrix(1,0,0,1,-118.98,-23.04)">
                <g opacity="0.2">
                    <g transform="matrix(1,0,0,1,482.667,191.538)">
                        <path d="M0,9.449C-0.505,9.358 -1.003,9.231 -1.493,9.092C-1.677,9.04 -1.829,8.93 -1.989,8.828C-2.2,8.693 -2.411,8.557 -2.624,8.426C-2.813,8.31 -3.005,8.186 -3.209,8.097C-3.39,8.017 -3.603,8.038 -3.819,8.083C-4.357,8.194 -4.835,8.505 -5.38,8.589C-6.022,8.687 -6.506,8.345 -6.884,7.853C-6.917,7.811 -6.906,7.746 -6.884,7.702C-6.614,7.176 -6.199,6.739 -5.922,6.215C-5.642,5.686 -5.521,4.938 -6.18,4.631C-6.568,4.45 -7.015,4.624 -7.396,4.734C-7.706,4.824 -8.051,4.907 -8.312,4.663C-8.798,4.21 -8.845,3.38 -8.856,2.762C-8.873,1.871 -8.756,0.974 -8.585,0.102C-8.507,-0.293 -8.42,-0.702 -8.3,-1.098C-8.419,-1.03 -8.549,-0.971 -8.651,-0.891C-8.648,-0.901 -8.646,-0.912 -8.644,-0.923C-8.678,-0.881 -8.71,-0.835 -8.768,-0.823C-8.841,-0.808 -8.908,-0.819 -8.964,-0.851C-9.253,0.854 -9.07,2.67 -9.073,4.394C-9.074,5.223 -9.076,6.051 -9.077,6.88C-9.079,7.394 -9.363,8.894 -9.082,9.366C-8.379,10.547 -5.675,10.094 -4.431,10.066C-2.931,10.033 -1.446,9.877 0.04,9.689C0.015,9.638 -0.002,9.58 -0.002,9.511C-0.002,9.49 0,9.47 0,9.449" style="fill:rgb(35,31,32);fill-rule:nonzero;"/>
                    </g>
                </g>
            </g>
        </g>
        <g transform="matrix(5.55556,0,0,5.55556,0,9566.93)">
            <g transform="matrix(1,0,0,1,-118.98,-23.04)">
                <g opacity="0.2">
                    <g transform="matrix(1,0,0,1,447.662,198.472)">
                        <path d="M0,1.233C-0.454,0.759 -1.036,0.75 -1.647,0.686C-2.171,0.631 -2.67,0.457 -2.855,-0.086C-2.921,-0.276 -2.879,-0.483 -2.832,-0.672C-2.762,-0.953 -2.656,-1.225 -2.55,-1.495C-2.388,-1.903 -2.198,-2.318 -2.069,-2.744C-2.954,-2.517 -3.728,-1.927 -4.557,-1.566C-4.632,-1.533 -4.715,-1.545 -4.762,-1.62C-4.823,-1.72 -4.864,-1.829 -4.92,-1.932C-4.872,-1.148 -4.847,-0.362 -4.859,0.427C-4.87,1.103 -5.198,2.668 -4.791,3.273C-4.317,3.977 -2.942,3.74 -2.212,3.713C-1.259,3.678 -0.294,3.59 0.673,3.51C0.664,2.711 0.577,1.834 0,1.233" style="fill:rgb(35,31,32);fill-rule:nonzero;"/>
                    </g>
                </g>
            </g>
        </g>
        <g transform="matrix(5.55556,0,0,5.55556,0,9566.93)">
            <g transform="matrix(1,0,0,1,-118.98,-23.04)">
                <g opacity="0.2">
                    <g transform="matrix(1,0,0,1,440.249,207.426)">
                        <path d="M0,-3.169C-0.202,-3.263 -0.491,-3.361 -0.674,-3.533C-1.028,-2.489 -1.655,-1.505 -2.808,-2.168C-3.042,-2.302 -3.111,-2.458 -3.264,-2.66C-3.402,-2.845 -3.407,-2.949 -3.625,-3.065C-3.759,-3.135 -3.894,-3.106 -4.035,-3.203C-4.384,-3.44 -4.452,-3.845 -4.335,-4.209C-5.187,-5.025 -4.931,-5.832 -4.204,-6.441C-4.439,-6.523 -4.668,-6.669 -4.85,-6.796C-5.023,-6.919 -5.173,-7.068 -5.323,-7.218C-5.344,-7.165 -5.365,-7.111 -5.386,-7.057C-5.387,-7.054 -5.391,-7.052 -5.392,-7.049C-5.385,-7.026 -5.372,-7.007 -5.377,-6.979C-5.581,-5.889 -5.788,-4.727 -5.586,-3.62C-5.433,-2.779 -5.007,-2.05 -4.437,-1.423C-3.738,-0.655 -2.872,-0.097 -2.107,0.595C-1.576,1.076 -1.133,1.624 -0.805,2.263C-0.508,2.838 -0.269,3.443 -0.034,4.049C0.33,1.782 0.573,-0.434 0.752,-2.724C0.479,-2.759 0.243,-3.055 0,-3.169" style="fill:rgb(35,31,32);fill-rule:nonzero;"/>
                    </g>
                </g>
            </g>
        </g>
        <g transform="matrix(5.55556,0,0,5.55556,0,9566.93)">
            <g transform="matrix(1,0,0,1,-118.98,-23.04)">
                <g opacity="0.2">
                    <g transform="matrix(1,0,0,1,490.16,196.415)">
                        <path d="M0,2.15C0.233,1.226 0.474,0.304 0.719,-0.616C-0.15,-1.201 -1.113,-1.697 -1.785,-2.494C-2.01,-1.831 -2.313,-1.183 -2.614,-0.593C-2.614,-0.586 -2.606,-0.582 -2.607,-0.576C-2.611,-0.476 -2.603,-0.38 -2.591,-0.284C-2.226,-0.44 -1.797,-0.567 -1.438,-0.487C-1.013,-0.392 -0.944,0.092 -0.959,0.46C-0.978,0.917 -1.142,1.361 -1.417,1.725C-1.644,2.025 -1.995,2.391 -2.397,2.319C-2.612,2.707 -2.899,3.04 -3.276,3.295C-3.316,3.741 -3.385,4.193 -3.459,4.644C-2.341,3.766 -1.155,2.978 0,2.15" style="fill:rgb(35,31,32);fill-rule:nonzero;"/>
                    </g>
                </g>
            </g>
        </g>
        <g transform="matrix(5.55556,0,0,5.55556,0,9566.93)">
            <g transform="matrix(1,0,0,1,-118.98,-23.04)">
                <g opacity="0.2">
                    <g transform="matrix(1,0,0,1,485.036,204.464)">
                        <path d="M0,5.196C-0.395,3.527 -0.439,1.695 -0.836,0C-1.119,0.406 -1.365,0.838 -1.52,1.306C-2.042,2.899 -1.167,4.183 0,5.196" style="fill:rgb(35,31,32);fill-rule:nonzero;"/>
                    </g>
                </g>
            </g>
        </g>
        <g transform="matrix(5.55556,0,0,5.55556,0,9566.93)">
            <g transform="matrix(1,0,0,1,-118.98,-23.04)">
                <g opacity="0.2">
                    <g transform="matrix(1,0,0,1,476.716,202.509)">
                        <path d="M0,8.408C-0.052,8.371 -0.093,8.304 -0.069,8.239C0.062,7.874 0.298,7.578 0.575,7.32C0.371,7.307 0.167,7.305 -0.035,7.309C-0.426,7.316 -0.816,7.335 -1.207,7.346C-1.94,7.366 -2.758,7.405 -3.46,7.15C-3.69,7.066 -3.911,6.945 -4.062,6.747C-4.267,6.479 -4.205,6.151 -4.141,5.841C-4.104,5.671 -4.043,5.503 -4.015,5.332C-3.979,5.113 -3.991,4.88 -3.97,4.658C-3.936,4.296 -3.881,3.933 -3.768,3.586C-3.542,2.896 -3.097,2.309 -2.676,1.729C-2.539,1.54 -2.438,1.386 -2.39,1.157C-2.363,1.03 -2.333,0.914 -2.251,0.81C-2.02,0.518 -1.649,0.441 -1.298,0.424C-0.897,0.404 -0.501,0.464 -0.102,0.466C0.189,0.467 0.48,0.453 0.771,0.451C1.513,0.446 2.253,0.443 2.992,0.399C3.751,0.353 4.517,0.271 5.249,0.059C5.681,-0.066 6.128,-0.245 6.48,-0.534C6.464,-0.559 6.453,-0.588 6.436,-0.612C3.201,-0.108 -0.053,-0.071 -3.308,-0.404C-4.615,2.139 -5.17,4.751 -5.333,7.621C-5.335,7.658 -5.348,7.688 -5.357,7.72C-3.274,8.561 -1.245,8.963 0.776,9.02C0.525,8.808 0.271,8.598 0,8.408" style="fill:rgb(35,31,32);fill-rule:nonzero;"/>
                    </g>
                </g>
            </g>
        </g>
        <g transform="matrix(5.55556,0,0,5.55556,0,9566.93)">
            <g transform="matrix(1,0,0,1,-118.98,-23.04)">
                <g opacity="0.2">
                    <g transform="matrix(1,0,0,1,450.548,207.263)">
                        <path d="M0,10.234C-0.046,9.764 -0.26,9.391 -0.511,9.005C-0.622,8.836 -0.735,8.659 -0.811,8.47C-0.879,8.3 -0.907,8.112 -0.933,7.932C-0.99,7.507 -0.986,7.077 -0.969,6.65C-0.949,6.195 -0.91,5.741 -0.904,5.286C-0.896,4.784 -0.928,4.282 -0.954,3.78C-0.981,3.268 -1.006,2.755 -0.989,2.242C-0.98,1.986 -0.987,1.735 -0.992,1.479C-0.995,1.263 -0.979,1.038 -0.897,0.836C-0.712,0.374 -0.051,0.257 -0.038,-0.257C-0.446,-0.211 -0.863,-0.24 -1.271,-0.245C-1.514,-0.248 -1.764,-0.251 -2.004,-0.208C-2.128,-0.186 -2.343,-0.15 -2.398,-0.016C-2.427,0.052 -2.487,0.073 -2.547,0.074C-2.801,0.851 -2.952,1.656 -3.037,2.468C-3.188,3.907 -3.156,5.357 -3.218,6.8C-3.226,6.984 -3.239,7.171 -3.249,7.356C-3.054,4.951 -2.62,2.514 -2.136,0.23C-2.103,0.075 -1.845,0.109 -1.858,0.267C-1.972,1.569 -2.049,2.89 -2.13,4.213C-2.129,4.215 -2.126,4.216 -2.125,4.219C-1.815,5.306 -1.771,6.499 -1.682,7.624C-1.609,8.539 -1.333,9.495 -1.326,10.403C-0.905,10.491 -0.443,10.45 0.007,10.375C0.004,10.328 0.005,10.281 0,10.234" style="fill:rgb(35,31,32);fill-rule:nonzero;"/>
                    </g>
                </g>
            </g>
        </g>
        <g transform="matrix(5.55556,0,0,5.55556,0,9566.93)">
            <g transform="matrix(1,0,0,1,-118.98,-23.04)">
                <g opacity="0.2">
                    <g transform="matrix(1,0,0,1,443.508,202.921)">
                        <path d="M0,14.674C-0.244,13.997 -0.429,13.297 -0.594,12.596C-0.716,12.082 -0.83,11.564 -0.911,11.041C-1.028,10.292 -0.917,9.539 -0.732,8.81C-0.488,7.845 -0.123,6.915 0.102,5.945C0.284,5.157 0.308,4.363 0.344,3.56C0.376,2.856 0.41,2.092 0.727,1.448C0.862,1.171 1.057,0.935 1.351,0.825C1.722,0.687 2.142,0.684 2.532,0.664C2.961,0.643 3.381,0.565 3.804,0.496C4.314,0.413 4.826,0.325 5.334,0.224C5.82,0.128 6.305,0.014 6.783,-0.117C4.981,0.035 3.127,0.06 1.374,0.08C0.729,0.088 -0.132,0.136 -0.748,-0.201C-0.585,4.835 -1.68,9.748 -1.281,14.839C-0.825,14.857 -0.369,14.864 0.086,14.875C0.061,14.807 0.024,14.742 0,14.674" style="fill:rgb(35,31,32);fill-rule:nonzero;"/>
                    </g>
                </g>
            </g>
        </g>
        <g transform="matrix(5.55556,0,0,5.55556,0,9566.93)">
            <g transform="matrix(-1,0,0,1,231.166,89.3571)">
                <rect x="-193.348" y="0" width="193.348" height="113.386" style="fill:none;stroke:rgb(35,31,32);stroke-width:1px;"/>
            </g>
        </g>
        <g transform="matrix(5.55556,0,0,5.55556,0,9566.93)">
            <g transform="matrix(1,0,0,1,330.178,151.299)">
                <path d="M0,0.483C-1.633,-0.826 -3.914,-0.858 -5.755,-0.002C-5.936,0.082 -5.925,0.375 -5.755,0.462C-5.189,0.75 -4.641,1.077 -4.034,1.266C-3.791,1.341 -3.693,1.015 -3.872,0.882C-4.363,0.518 -4.938,0.273 -5.483,-0.002L-5.483,0.462C-3.686,-0.384 -1.897,-0.151 -0.155,0.684C-0.034,0.742 0.121,0.581 0,0.483" style="fill:rgb(35,31,32);fill-rule:nonzero;"/>
            </g>
        </g>
        <g transform="matrix(5.55556,0,0,5.55556,0,9566.93)">
            <g transform="matrix(1,0,0,1,327.406,154.12)">
                <path d="M0,-2.193C-1.515,-2.265 -3.419,-2.252 -4.846,-1.64C-5.446,-1.382 -6.346,-0.547 -5.546,0.017C-5.47,0.072 -5.35,0.016 -5.329,-0.071C-5.068,-1.196 -4.102,-1.299 -3.119,-1.487C-2.089,-1.683 -1.048,-1.76 0,-1.766C0.275,-1.768 0.273,-2.18 0,-2.193" style="fill:rgb(35,31,32);fill-rule:nonzero;"/>
            </g>
        </g>
        <g transform="matrix(5.55556,0,0,5.55556,0,9566.93)">
            <g transform="matrix(1,0,0,1,322.535,165.937)">
                <path d="M0,-12.181C-1.712,-10.808 -1.368,-6.701 -0.926,-4.872C-0.359,-2.533 1.143,-0.693 3.457,0.034C3.934,0.184 4.139,-0.565 3.663,-0.712C1.433,-1.404 0.167,-3.285 -0.304,-5.494C-0.623,-6.989 -0.929,-10.726 0.33,-11.851C0.557,-12.055 0.229,-12.365 0,-12.181" style="fill:rgb(35,31,32);fill-rule:nonzero;"/>
            </g>
        </g>
        <g transform="matrix(5.55556,0,0,5.55556,0,9566.93)">
            <g transform="matrix(1,0,0,1,330.587,150.782)">
                <path d="M0,1.111C0.028,0.914 0.06,0.717 0.086,0.52C0.042,0.595 -0.001,0.671 -0.044,0.747C0.585,0.444 1.25,0.321 1.946,0.361C1.863,0.217 1.781,0.074 1.699,-0.07C1.497,0.24 1.148,0.892 1.509,1.192C1.569,1.242 1.669,1.274 1.74,1.222C2.041,0.999 1.995,0.538 2.193,0.219C2.312,0.028 2.155,-0.204 1.946,-0.211C1.153,-0.24 0.396,-0.066 -0.31,0.293C-0.387,0.331 -0.446,0.433 -0.44,0.52C-0.427,0.699 -0.408,0.879 -0.393,1.058C-0.375,1.264 -0.035,1.351 0,1.111" style="fill:rgb(35,31,32);fill-rule:nonzero;"/>
            </g>
        </g>
        <g transform="matrix(5.55556,0,0,5.55556,0,9566.93)">
            <g transform="matrix(1,0,0,1,332.404,152.617)">
                <path d="M0,-0.676C0.674,-1.125 1.541,-1.278 2.248,-0.801C2.58,-0.576 2.825,-0.212 2.941,0.166C3.039,0.484 2.979,0.756 3.143,1.042C3.201,1.145 3.38,1.188 3.462,1.083C4.038,0.35 3.192,-0.891 2.543,-1.304C1.661,-1.864 0.482,-1.735 -0.262,-1.016C-0.436,-0.848 -0.208,-0.537 0,-0.676" style="fill:rgb(35,31,32);fill-rule:nonzero;"/>
            </g>
        </g>
        <g transform="matrix(5.55556,0,0,5.55556,0,9566.93)">
            <g transform="matrix(1,0,0,1,333.898,167.005)">
                <path d="M0,-13.969C2.369,-12.729 1.968,-9.449 1.296,-7.334C0.502,-4.837 -0.44,-2.661 -3.523,-2.304C-3.621,-2.293 -3.656,-2.18 -3.573,-2.121C0.46,0.758 5.477,-11.906 0.331,-14.536C-0.044,-14.727 -0.375,-14.166 0,-13.969" style="fill:rgb(35,31,32);fill-rule:nonzero;"/>
            </g>
        </g>
        <g transform="matrix(5.55556,0,0,5.55556,0,9566.93)">
            <g transform="matrix(1,0,0,1,330.22,165.81)">
                <path d="M0,-1.181C-0.262,-0.806 -0.812,-0.103 -1.275,-0.64C-1.522,-0.927 -1.66,-1.272 -2.104,-1.235C-2.581,-1.194 -2.582,-0.441 -2.104,-0.487C-2.008,-0.495 -1.709,0.002 -1.598,0.077C-1.361,0.235 -1.085,0.281 -0.81,0.218C-0.214,0.081 0.157,-0.421 0.464,-0.91C0.651,-1.206 0.195,-1.462 0,-1.181" style="fill:rgb(35,31,32);fill-rule:nonzero;"/>
            </g>
        </g>
        <g transform="matrix(5.55556,0,0,5.55556,0,9566.93)">
            <g transform="matrix(1,0,0,1,328.137,165.942)">
                <path d="M0,-1.128C-0.179,-0.744 -0.509,-0.485 -0.945,-0.499C-1.397,-0.513 -1.584,-0.845 -1.919,-1.077C-2.086,-1.192 -2.348,-1.04 -2.334,-0.838C-2.288,-0.172 -1.485,0.206 -0.88,0.15C-0.28,0.094 0.214,-0.416 0.354,-0.979C0.405,-1.183 0.097,-1.334 0,-1.128" style="fill:rgb(35,31,32);fill-rule:nonzero;"/>
            </g>
        </g>
        <g transform="matrix(5.55556,0,0,5.55556,0,9566.93)">
            <g transform="matrix(1,0,0,1,326.099,166.526)">
                <path d="M0,-0.574C-0.89,1.009 2.371,0.643 2.978,0.63C3.538,0.618 4.417,0.743 4.835,0.249C5.286,-0.283 4.86,-0.868 4.425,-1.225C3.987,-1.583 3.485,-0.946 3.947,-0.606C4.721,-0.038 3.654,-0.073 3.473,-0.059C3.144,-0.034 2.812,-0.022 2.481,-0.003C2.347,0.004 0.145,0.221 0.414,-0.332C0.548,-0.607 0.153,-0.846 0,-0.574" style="fill:rgb(35,31,32);fill-rule:nonzero;"/>
            </g>
        </g>
        <g transform="matrix(5.55556,0,0,5.55556,0,9566.93)">
            <g transform="matrix(1,0,0,1,326.342,178.761)">
                <path d="M0,-12.831C-2.177,-12.243 -5.12,-11.289 -5.79,-8.89C-6.361,-6.841 -6.834,-5.06 -7.71,-3.096C-8.156,-2.095 -8.526,-1.405 -8.158,-0.304C-8.025,0.094 -7.425,-0.065 -7.525,-0.478C-7.938,-2.174 -5.753,-5.772 -5.346,-7.548C-5.009,-9.018 -4.911,-9.734 -3.532,-10.627C-2.394,-11.364 -1.141,-11.884 0.148,-12.293C0.489,-12.401 0.349,-12.925 0,-12.831" style="fill:rgb(35,31,32);fill-rule:nonzero;"/>
            </g>
        </g>
        <g transform="matrix(5.55556,0,0,5.55556,0,9566.93)">
            <g transform="matrix(1,0,0,1,322.761,179.429)">
                <path d="M0,-8.972C0.303,-6.781 0.341,-4.626 0.265,-2.423C0.238,-1.668 0.089,-0.633 0.654,-0.019C1.246,0.622 2.356,0.542 3.141,0.533C5.663,0.504 8.4,0.482 10.877,0.054C11.259,-0.012 11.127,-0.547 10.792,-0.577C8.462,-0.788 6.048,-0.37 3.709,-0.284C2.979,-0.257 1.604,-0.02 1.13,-0.724C0.723,-1.329 1.051,-2.894 1.062,-3.57C1.092,-5.445 0.942,-7.301 0.665,-9.155C0.599,-9.594 -0.06,-9.404 0,-8.972" style="fill:rgb(35,31,32);fill-rule:nonzero;"/>
            </g>
        </g>
        <g transform="matrix(5.55556,0,0,5.55556,0,9566.93)">
            <g transform="matrix(1,0,0,1,333.406,179.301)">
                <path d="M0,-9.282C-0.231,-7.807 -0.252,-6.304 -0.33,-4.814C-0.365,-4.146 -0.558,-3.311 -0.396,-2.656C-0.183,-1.791 0.312,-1.7 0.076,-0.491C-0.022,0.01 0.737,0.228 0.848,-0.279C1.119,-1.52 0.468,-2.248 0.352,-3.455C0.168,-5.359 0.535,-7.316 0.374,-9.232C0.357,-9.428 0.036,-9.51 0,-9.282" style="fill:rgb(35,31,32);fill-rule:nonzero;"/>
            </g>
        </g>
        <g transform="matrix(5.55556,0,0,5.55556,0,9566.93)">
            <g transform="matrix(0.365369,0.930863,0.930863,-0.365369,332.34,162.602)">
                <path d="M3.374,-3.031C5.599,-1.325 6.616,3.749 3.846,5.454C3.415,5.72 2.941,5.079 3.374,4.824C5.753,3.43 4.752,-1.085 2.993,-2.546C2.687,-2.801 3.059,-3.274 3.374,-3.031" style="fill:rgb(35,31,32);fill-rule:nonzero;"/>
            </g>
        </g>
        <g transform="matrix(5.55556,0,0,5.55556,0,9566.93)">
            <g transform="matrix(0.714836,0.699292,0.699292,-0.714836,332.031,168.073)">
                <path d="M3.587,-1.408C5.777,1.609 6.825,5.799 4.16,8.867C3.822,9.255 3.246,8.692 3.587,8.306C6.106,5.448 4.786,1.764 3.026,-1.081C2.803,-1.442 3.347,-1.739 3.587,-1.408" style="fill:rgb(35,31,32);fill-rule:nonzero;"/>
            </g>
        </g>
        <g transform="matrix(5.55556,0,0,5.55556,0,9566.93)">
            <g transform="matrix(1,0,0,1,338.456,163.687)">
                <path d="M0,0.368C0.371,0.25 0.778,0.207 1.165,0.274C1.581,0.346 1.855,0.576 2.185,0.815C2.459,1.015 2.866,0.615 2.66,0.34C2.003,-0.539 0.629,-0.647 -0.197,0.028C-0.357,0.159 -0.186,0.427 0,0.368" style="fill:rgb(35,31,32);fill-rule:nonzero;"/>
            </g>
        </g>
        <g transform="matrix(5.55556,0,0,5.55556,0,9566.93)">
            <g transform="matrix(1,0,0,1,339.307,158.067)">
                <path d="M0,3.322C0.247,2.896 0.397,2.416 0.581,1.959C0.751,1.536 0.901,0.958 1.2,0.6C1.309,0.351 1.507,0.28 1.795,0.386C1.805,0.498 1.813,0.609 1.822,0.721C1.832,1.077 1.78,1.434 1.706,1.781C1.603,2.266 1.367,2.732 1.297,3.218C1.271,3.394 1.484,3.582 1.632,3.413C1.703,3.33 1.775,3.248 1.848,3.165C1.852,3.16 1.851,3.15 1.843,3.149C1.743,3.125 1.643,3.102 1.543,3.078C1.572,3.19 1.602,3.301 1.632,3.413C1.898,3.188 1.923,2.778 2.005,2.454C2.102,2.068 2.188,1.679 2.226,1.282C2.271,0.822 2.368,-0.109 1.709,-0.195C1.204,-0.26 0.773,0.218 0.573,0.621C0.417,0.935 0.332,1.28 0.228,1.614C0.062,2.139 -0.16,2.673 -0.252,3.216C-0.277,3.362 -0.084,3.466 0,3.322" style="fill:rgb(35,31,32);fill-rule:nonzero;"/>
            </g>
        </g>
        <g transform="matrix(5.55556,0,0,5.55556,0,9566.93)">
            <g transform="matrix(1,0,0,1,339.173,163.937)">
                <path d="M0,-3.371C-0.618,-3.295 -1.147,-2.704 -1.314,-2.121C-1.476,-1.56 -1.369,-0.331 -0.827,-0.011C-0.774,0.021 -0.695,0.004 -0.666,-0.053C-0.417,-0.535 -0.841,-1.075 -0.854,-1.592C-0.872,-2.328 -0.326,-2.6 0.137,-3.041C0.249,-3.147 0.172,-3.392 0,-3.371" style="fill:rgb(35,31,32);fill-rule:nonzero;"/>
            </g>
        </g>
        <g transform="matrix(5.55556,0,0,5.55556,0,9566.93)">
            <g transform="matrix(1,0,0,1,341.003,163.733)">
                <path d="M0,-2.271C0.351,-2.443 0.544,-2.363 0.58,-2.031C0.626,-1.907 0.744,-1.821 0.882,-1.859C1.521,-2.038 1.344,-1.549 1.334,-1.329C1.331,-1.251 1.379,-1.181 1.441,-1.141C2.234,-0.641 0.706,0.472 0.194,0.439C0.136,0.435 0.095,0.481 0.074,0.53C0.059,0.568 0.043,0.606 0.027,0.644C-0.057,0.85 0.182,1.018 0.361,0.978C1.157,0.802 2.495,-0.192 2.014,-1.166C1.982,-1.229 1.93,-1.282 1.898,-1.344C1.863,-1.371 1.828,-1.398 1.793,-1.425C1.7,-1.478 1.713,-1.493 1.833,-1.47C1.839,-1.613 1.917,-1.697 1.884,-1.851C1.773,-2.357 1.231,-2.366 0.816,-2.341L1.054,-2.161C0.848,-2.864 0.215,-3.289 -0.324,-2.596C-0.501,-2.369 -0.2,-2.044 0,-2.271" style="fill:rgb(35,31,32);fill-rule:nonzero;"/>
            </g>
        </g>
        <g transform="matrix(5.55556,0,0,5.55556,0,9566.93)">
            <g transform="matrix(1,0,0,1,318.322,175.465)">
                <path d="M0,3.521C0.965,3.968 2.158,4.354 2.942,3.384C3.358,2.871 3.669,2.218 3.994,1.644C4.376,0.971 4.809,0.284 5.021,-0.463C5.092,-0.712 4.756,-0.833 4.619,-0.633C4.102,0.125 3.764,1.009 3.278,1.792C2.993,2.252 2.729,2.675 2.311,3.022C1.676,3.55 1.017,3.282 0.318,2.977C-0.048,2.818 -0.371,3.349 0,3.521" style="fill:rgb(35,31,32);fill-rule:nonzero;"/>
            </g>
        </g>
        <g transform="matrix(5.55556,0,0,5.55556,0,9566.93)">
            <g transform="matrix(1,0,0,1,318.006,183.08)">
                <path d="M0,-5.715C-1.37,-5.091 -2.33,-3.93 -0.945,-2.77C-0.96,-2.886 -0.976,-3.002 -0.99,-3.117C-1.221,-2.714 -1.19,-2.181 -0.771,-1.897C-0.63,-1.8 -0.495,-1.829 -0.361,-1.758C-0.144,-1.643 -0.139,-1.539 0,-1.354C0.152,-1.152 0.222,-0.996 0.456,-0.861C2.189,0.136 2.739,-2.594 2.949,-3.648C3.021,-4.007 2.516,-4.15 2.399,-3.799C2.253,-3.36 2.216,-2.901 2.091,-2.457C1.919,-1.845 1.153,-0.65 0.507,-1.686C0.381,-1.887 0.466,-2.014 0.26,-2.176C0.084,-2.315 -0.747,-2.382 -0.495,-2.828C-0.437,-2.93 -0.442,-3.094 -0.54,-3.175C-1.634,-4.082 -0.527,-4.812 0.262,-5.268C0.556,-5.438 0.298,-5.851 0,-5.715" style="fill:rgb(35,31,32);fill-rule:nonzero;"/>
            </g>
        </g>
        <g transform="matrix(5.55556,0,0,5.55556,0,9566.93)">
            <g transform="matrix(1,0,0,1,317.688,176.208)">
                <path d="M0,1.512C-0.104,1.303 -0.3,1.236 -0.489,1.116C-0.714,0.973 -0.913,0.804 -1.092,0.607C-1.404,0.262 -1.648,-0.149 -2.118,-0.29C-2.529,-0.414 -2.803,0.208 -2.413,0.411C-1.965,0.645 -1.683,1.091 -1.269,1.382C-0.941,1.611 -0.465,1.926 -0.064,1.754C0.028,1.715 0.038,1.589 0,1.512" style="fill:rgb(35,31,32);fill-rule:nonzero;"/>
            </g>
        </g>
        <g transform="matrix(5.55556,0,0,5.55556,0,9566.93)">
            <g transform="matrix(1,0,0,1,315.413,183.572)">
                <path d="M0,-7.663C-0.801,-7.665 -1.125,-7.23 -1.267,-6.474C-1.436,-5.573 -1.389,-4.583 -1.506,-3.669C-1.641,-2.615 -1.871,-1.584 -2.045,-0.537C-2.106,-0.166 -1.566,0.002 -1.469,-0.378C-1.198,-1.437 -1.081,-2.546 -0.977,-3.633C-0.899,-4.442 -1.242,-7.226 0,-7.283C0.243,-7.294 0.246,-7.663 0,-7.663" style="fill:rgb(35,31,32);fill-rule:nonzero;"/>
            </g>
        </g>
        <g transform="matrix(5.55556,0,0,5.55556,0,9566.93)">
            <g transform="matrix(1,0,0,1,313.331,189.545)">
                <path d="M0,-6.405C0.882,-5.079 2.029,-3.871 3.083,-2.678C4.068,-1.564 5.156,-0.583 6.489,0.094C6.918,0.311 7.298,-0.336 6.867,-0.552C4.131,-1.928 2.55,-4.684 0.258,-6.604C0.125,-6.716 -0.11,-6.571 0,-6.405" style="fill:rgb(35,31,32);fill-rule:nonzero;"/>
            </g>
        </g>
        <g transform="matrix(5.55556,0,0,5.55556,0,9566.93)">
            <g transform="matrix(0.728812,0.684714,0.684714,-0.728812,319.865,189.131)">
                <path d="M0.557,-0.238C0.902,0.083 1.096,0.521 1.096,0.992C1.094,1.341 0.542,1.352 0.557,1.009C0.573,0.668 0.465,0.362 0.224,0.116C0.004,-0.106 0.327,-0.452 0.557,-0.238" style="fill:rgb(35,31,32);fill-rule:nonzero;"/>
            </g>
        </g>
        <g transform="matrix(5.55556,0,0,5.55556,0,9566.93)">
            <g transform="matrix(-0.999467,-0.0326414,-0.0326414,0.999467,321.631,188.933)">
                <path d="M-0.155,-7.312C-0.048,-4.938 0.126,-2.643 0.432,-0.285C0.482,0.092 -0.064,0.243 -0.155,-0.143C-0.685,-2.42 -0.834,-5.009 -0.522,-7.324C-0.491,-7.557 -0.166,-7.551 -0.155,-7.312" style="fill:rgb(35,31,32);fill-rule:nonzero;"/>
            </g>
        </g>
        <g transform="matrix(5.55556,0,0,5.55556,0,9566.93)">
            <g transform="matrix(1,0,0,1,322.27,180.466)">
                <path d="M0,1.002C-0.086,0.729 -0.416,0.465 -0.654,0.321C-0.795,0.235 -0.946,0.169 -1.088,0.087C-1.246,-0.004 -1.365,-0.133 -1.535,-0.202C-1.732,-0.281 -1.866,-0.059 -1.842,0.105C-1.784,0.481 -1.295,0.614 -1.001,0.751C-0.719,0.883 -0.45,1.283 -0.117,1.208C-0.031,1.189 0.025,1.085 0,1.002" style="fill:rgb(35,31,32);fill-rule:nonzero;"/>
            </g>
        </g>
        <g transform="matrix(5.55556,0,0,5.55556,0,9566.93)">
            <g transform="matrix(1,0,0,1,321.008,186.901)">
                <path d="M0,-4.846C-0.456,-3.483 -0.54,-1.589 -0.435,-0.167C-0.419,0.051 -0.061,0.138 -0.022,-0.112C0.088,-0.834 0.059,-1.572 0.087,-2.302C0.119,-3.138 0.252,-3.976 0.258,-4.811C0.259,-4.963 0.046,-4.984 0,-4.846" style="fill:rgb(35,31,32);fill-rule:nonzero;"/>
            </g>
        </g>
        <g transform="matrix(5.55556,0,0,5.55556,0,9566.93)">
            <g transform="matrix(-0.999917,-0.0129165,-0.0129165,0.999917,322.479,195.106)">
                <path d="M-0.77,-15.604C-0.364,-10.359 0.494,-5.57 -0.016,-0.265C-0.061,0.215 -0.817,0.21 -0.77,-0.275C-0.272,-5.46 -1.359,-10.477 -1.098,-15.608C-1.086,-15.822 -0.787,-15.812 -0.77,-15.604" style="fill:rgb(35,31,32);fill-rule:nonzero;"/>
            </g>
        </g>
        <g transform="matrix(5.55556,0,0,5.55556,0,9566.93)">
            <g transform="matrix(1,0,0,1,322.705,194.714)">
                <path d="M0,0.471C1.245,0.715 2.496,0.736 3.762,0.769C4.595,0.791 5.401,0.886 6.063,0.312C6.342,0.071 5.974,-0.415 5.666,-0.203C4.909,0.318 3.743,0.082 2.878,0.068C1.94,0.053 1.001,0.041 0.064,-0.006C-0.205,-0.019 -0.271,0.418 0,0.471" style="fill:rgb(35,31,32);fill-rule:nonzero;"/>
            </g>
        </g>
        <g transform="matrix(5.55556,0,0,5.55556,0,9566.93)">
            <g transform="matrix(0.0739642,0.997261,0.997261,-0.0739642,329.375,182.482)">
                <path d="M1.728,-1.802C2.302,-0.736 2.275,0.56 2.271,1.741C2.27,2.089 1.727,2.132 1.728,1.781C1.735,0.69 1.785,-0.58 1.293,-1.58C1.171,-1.827 1.596,-2.048 1.728,-1.802" style="fill:rgb(35,31,32);fill-rule:nonzero;"/>
            </g>
        </g>
        <g transform="matrix(5.55556,0,0,5.55556,0,9566.93)">
            <g transform="matrix(-0.998109,-0.0614722,-0.0614722,0.998109,328.084,195.022)">
                <path d="M-0.696,-10.631C-0.199,-7.281 0.188,-3.612 -0.112,-0.23C-0.141,0.087 -0.659,0.156 -0.696,-0.188C-1.074,-3.611 -0.888,-7.166 -0.975,-10.612C-0.979,-10.77 -0.719,-10.788 -0.696,-10.631" style="fill:rgb(35,31,32);fill-rule:nonzero;"/>
            </g>
        </g>
        <g transform="matrix(5.55556,0,0,5.55556,0,9566.93)">
            <g transform="matrix(1,0,0,1,330.249,188.438)">
                <path d="M0,6.32C0.022,5.373 -0.286,4.368 -0.362,3.409C-0.452,2.284 -0.496,1.091 -0.806,0.004C-0.889,-0.287 -1.305,-0.218 -1.321,0.074C-1.439,2.176 -0.948,4.369 -0.412,6.376C-0.351,6.607 -0.005,6.555 0,6.32" style="fill:rgb(35,31,32);fill-rule:nonzero;"/>
            </g>
        </g>
        <g transform="matrix(5.55556,0,0,5.55556,0,9566.93)">
            <g transform="matrix(1,0,0,1,333.789,194.069)">
                <path d="M0,-14.928C-0.146,-12.758 -0.109,-10.577 0.129,-8.415C0.424,-5.736 0.405,-3.05 0.703,-0.382C0.754,0.071 1.47,0.076 1.419,-0.382C1.151,-2.771 1.181,-5.142 0.824,-7.525C0.458,-9.968 0.21,-12.459 0.118,-14.928C0.115,-15.004 0.005,-15.003 0,-14.928" style="fill:rgb(35,31,32);fill-rule:nonzero;"/>
            </g>
        </g>
        <g transform="matrix(5.55556,0,0,5.55556,0,9566.93)">
            <g transform="matrix(1,0,0,1,329.858,193.728)">
                <path d="M0,1.337C0.812,1.697 1.807,1.429 2.647,1.258C3.5,1.086 4.436,0.916 5.09,0.304C5.361,0.049 4.951,-0.36 4.681,-0.105C4.156,0.391 3.357,0.524 2.675,0.675C1.92,0.842 0.964,1.108 0.197,0.869C-0.073,0.785 -0.269,1.218 0,1.337" style="fill:rgb(35,31,32);fill-rule:nonzero;"/>
            </g>
        </g>
        <g transform="matrix(5.55556,0,0,5.55556,0,9566.93)">
            <g transform="matrix(1,0,0,1,327.623,199.202)">
                <path d="M0,-3.915C0.092,-3.228 0.428,-2.332 0.177,-1.679C-0.138,-0.856 -1.066,-0.576 -1.842,-0.419C-3.152,-0.155 -4.569,-0.212 -5.888,-0.392C-6.152,-0.428 -6.914,-0.435 -7.107,-0.646C-7.654,-1.245 -6.587,-2.065 -6.084,-2.356C-5.16,-2.893 -4.095,-3.131 -3.2,-3.727C-2.906,-3.922 -3.182,-4.399 -3.479,-4.203C-4.705,-3.39 -6.874,-3.176 -7.599,-1.738C-8.212,-0.522 -7.484,-0.083 -6.423,0.114C-4.646,0.443 -2.609,0.484 -0.878,-0.098C1.08,-0.756 1.151,-2.16 0.399,-3.969C0.321,-4.157 -0.033,-4.165 0,-3.915" style="fill:rgb(35,31,32);fill-rule:nonzero;"/>
            </g>
        </g>
        <g transform="matrix(5.55556,0,0,5.55556,0,9566.93)">
            <g transform="matrix(1,0,0,1,330.714,198.104)">
                <path d="M0,-3.082C-0.508,-1.152 -0.268,0.235 1.812,0.629C3.655,0.979 5.863,0.675 7.608,0.011C8.529,-0.339 8.834,-0.953 8.179,-1.868C7.168,-3.281 4.88,-3.199 3.447,-3.904C3.131,-4.061 2.851,-3.586 3.169,-3.428C4.018,-3.008 4.952,-2.839 5.851,-2.556C6.715,-2.284 9.019,-1.072 7.211,-0.467C6.057,-0.082 4.791,0.138 3.578,0.183C2.923,0.207 2.075,0.242 1.461,-0.044C0.274,-0.597 0.391,-1.926 0.4,-3.028C0.402,-3.256 0.06,-3.305 0,-3.082" style="fill:rgb(35,31,32);fill-rule:nonzero;"/>
            </g>
        </g>
        <g transform="matrix(5.55556,0,0,5.55556,0,9566.93)">
            <g transform="matrix(1,0,0,1,361.797,198.945)">
                <path d="M0,-3.782C-0.63,-2.072 -0.62,-0.612 1.269,-0.007C3.052,0.565 5.168,0.438 6.973,0.024C7.987,-0.209 8.685,-0.569 8.141,-1.754C7.451,-3.257 5.132,-3.403 3.873,-4.163C3.568,-4.347 3.291,-3.872 3.595,-3.688C4.469,-3.156 5.48,-2.952 6.395,-2.507C6.831,-2.295 8.183,-1.507 7.737,-0.811C7.601,-0.597 6.766,-0.525 6.551,-0.484C5.348,-0.253 4.074,-0.154 2.852,-0.268C2.1,-0.338 1.098,-0.478 0.589,-1.101C-0.015,-1.841 0.321,-2.862 0.399,-3.728C0.421,-3.971 0.073,-3.983 0,-3.782" style="fill:rgb(35,31,32);fill-rule:nonzero;"/>
            </g>
        </g>
        <g transform="matrix(5.55556,0,0,5.55556,0,9566.93)">
            <g transform="matrix(1,0,0,1,356.998,198.362)">
                <path d="M0,-3.227C0.037,-2.443 0.337,-1.297 -0.266,-0.634C-0.837,-0.005 -1.934,0.082 -2.721,0.115C-4.016,0.169 -5.381,-0.005 -6.628,-0.356C-6.993,-0.459 -7.327,-0.502 -7.451,-0.803C-7.757,-1.545 -6.232,-2.206 -5.751,-2.4C-4.774,-2.794 -3.722,-2.988 -2.793,-3.497C-2.481,-3.668 -2.759,-4.143 -3.071,-3.973C-4.455,-3.218 -6.553,-3.197 -7.602,-1.893C-8.439,-0.851 -7.991,-0.16 -6.905,0.17C-5.144,0.707 -3.023,0.916 -1.223,0.488C0.81,0.005 0.992,-1.402 0.4,-3.281C0.334,-3.492 -0.011,-3.465 0,-3.227" style="fill:rgb(35,31,32);fill-rule:nonzero;"/>
            </g>
        </g>
        <g transform="matrix(5.55556,0,0,5.55556,0,9566.93)">
            <g transform="matrix(1,0,0,1,356.007,155.028)">
                <path d="M0,-2.48C-0.96,-2.701 -2.213,-2.47 -2.992,-1.838C-3.712,-1.253 -3.379,-0.358 -2.687,0.089C-2.482,0.221 -2.191,-0.05 -2.341,-0.257C-2.478,-0.444 -2.782,-0.707 -2.813,-0.926C-2.883,-1.409 -2.17,-1.658 -1.851,-1.773C-1.269,-1.982 -0.663,-2.035 -0.052,-2.093C0.154,-2.113 0.232,-2.427 0,-2.48" style="fill:rgb(35,31,32);fill-rule:nonzero;"/>
            </g>
        </g>
        <g transform="matrix(5.55556,0,0,5.55556,0,9566.93)">
            <g transform="matrix(1,0,0,1,353.363,165.965)">
                <path d="M0,-11.04C-1.735,-8.424 -1.309,-4.899 0.518,-2.444C1.069,-1.702 2.039,-0.271 2.965,-0.017C3.417,0.107 4.115,-0.078 4.607,-0.057C5.514,-0.019 5.783,0.066 6.566,-0.28C6.845,-0.403 6.646,-0.85 6.362,-0.766C3.779,-0.007 2.048,-1.156 0.675,-3.286C-0.881,-5.699 -0.65,-8.352 0.216,-10.949C0.261,-11.081 0.071,-11.147 0,-11.04" style="fill:rgb(35,31,32);fill-rule:nonzero;"/>
            </g>
        </g>
        <g transform="matrix(5.55556,0,0,5.55556,0,9566.93)">
            <g transform="matrix(1,0,0,1,366.911,150.608)">
                <path d="M0,15.413C-5.049,15.467 -1.596,8.328 -1.897,5.4C-2.06,3.833 -2.736,2.268 -4.044,1.336C-6.467,-0.394 -9.493,1.018 -9.709,3.934C-9.74,4.356 -9.086,4.352 -9.053,3.934C-8.674,-0.788 -3.926,1.654 -2.979,3.996C-2.369,5.502 -2.551,7.064 -2.896,8.615C-3.207,10.015 -3.979,11.502 -3.817,12.978C-3.592,15.028 -1.942,16.201 0.056,15.826C0.291,15.781 0.232,15.411 0,15.413" style="fill:rgb(35,31,32);fill-rule:nonzero;"/>
            </g>
        </g>
        <g transform="matrix(5.55556,0,0,5.55556,0,9566.93)">
            <g transform="matrix(1,0,0,1,366.566,156.591)">
                <path d="M0,9.505C-3.202,10.567 -5.928,9.334 -7.561,6.423C-9.09,3.696 -8.098,1.575 -7.375,-1.162C-7.316,-1.388 -7.646,-1.54 -7.759,-1.325C-9.387,1.76 -9.493,4.666 -7.542,7.545C-5.748,10.192 -2.891,11.045 0.131,9.98C0.427,9.876 0.304,9.404 0,9.505" style="fill:rgb(35,31,32);fill-rule:nonzero;"/>
            </g>
        </g>
        <g transform="matrix(5.55556,0,0,5.55556,0,9566.93)">
            <g transform="matrix(1,0,0,1,357.37,156.267)">
                <path d="M0,-1.585C-0.228,-1.182 -0.221,-0.673 0.063,-0.297C0.334,0.06 0.866,0.27 1.298,0.104C1.542,0.01 1.54,-0.437 1.229,-0.398C0.962,-0.365 0.695,-0.362 0.495,-0.574C0.299,-0.782 0.285,-1.098 0.414,-1.343C0.557,-1.615 0.152,-1.855 0,-1.585" style="fill:rgb(35,31,32);fill-rule:nonzero;"/>
            </g>
        </g>
        <g transform="matrix(5.55556,0,0,5.55556,0,9566.93)">
            <g transform="matrix(1,0,0,1,357.33,157.399)">
                <path d="M0,-3.713C-0.851,-3.469 -1.274,-2.624 -1.325,-1.782C-1.396,-0.625 -0.129,-0.118 0.856,0.041C1.182,0.093 1.291,-0.322 0.991,-0.446C0.354,-0.711 -0.775,-0.883 -0.762,-1.782C-0.752,-2.373 -0.456,-3.029 0.138,-3.213C0.455,-3.312 0.322,-3.806 0,-3.713" style="fill:rgb(35,31,32);fill-rule:nonzero;"/>
            </g>
        </g>
        <g transform="matrix(5.55556,0,0,5.55556,0,9566.93)">
            <g transform="matrix(0.401983,0.915647,0.915647,-0.401983,356.181,151.221)">
                <path d="M1.396,-0.634C0.97,0.328 1.271,1.121 1.82,1.934C2.009,2.214 1.696,2.607 1.396,2.384C0.428,1.667 0.309,0.149 0.796,-0.868C0.973,-1.237 1.564,-1.016 1.396,-0.634" style="fill:rgb(35,31,32);fill-rule:nonzero;"/>
            </g>
        </g>
        <g transform="matrix(5.55556,0,0,5.55556,0,9566.93)">
            <g transform="matrix(1,0,0,1,363.323,163.676)">
                <path d="M0,-11.147C2.048,-12.246 2.907,-6.373 2.911,-6.265C3.018,-3.575 2.511,-0.843 0.658,1.197C0.408,1.472 0.817,1.883 1.066,1.606C3.333,-0.92 4.248,-5.579 3.191,-8.836C2.728,-10.264 1.57,-13.03 -0.163,-11.358C-0.275,-11.25 -0.132,-11.076 0,-11.147" style="fill:rgb(35,31,32);fill-rule:nonzero;"/>
            </g>
        </g>
        <g transform="matrix(5.55556,0,0,5.55556,0,9566.93)">
            <g transform="matrix(1,0,0,1,357.171,167.412)">
                <path d="M0,-1.62C-0.067,-1.246 -0.061,-0.923 0.04,-0.555C0.067,-0.454 0.156,-0.399 0.255,-0.391C1.493,-0.296 3.585,0.157 4.502,-0.967C4.736,-1.254 4.323,-1.665 4.094,-1.375C3.636,-0.796 2.902,-0.824 2.228,-0.834C1.874,-0.839 1.52,-0.853 1.165,-0.854C0.559,-0.855 0.272,-0.85 0.271,-1.583C0.271,-1.734 0.028,-1.777 0,-1.62" style="fill:rgb(35,31,32);fill-rule:nonzero;"/>
            </g>
        </g>
        <g transform="matrix(5.55556,0,0,5.55556,0,9566.93)">
            <g transform="matrix(1,0,0,1,357.431,167.392)">
                <path d="M0,-0.955C-0.3,-1.268 -0.946,-1.017 -1.303,-0.914C-1.799,-0.772 -2.374,-0.581 -2.775,-0.249C-2.852,-0.186 -2.887,-0.048 -2.854,0.045C-2.847,0.063 -2.84,0.081 -2.834,0.099C-2.783,0.238 -2.659,0.313 -2.512,0.282C-2.429,0.265 -2.368,0.216 -2.334,0.14C-2.299,0.063 -2.293,-0.043 -2.365,-0.105C-2.371,-0.11 -2.377,-0.115 -2.382,-0.12C-2.455,-0.182 -2.565,-0.194 -2.638,-0.12C-2.643,-0.115 -2.646,-0.11 -2.651,-0.105C-2.569,-0.116 -2.488,-0.126 -2.406,-0.137C-2.38,-0.104 -2.354,-0.073 -2.328,-0.04L-2.396,0.214C-2.003,-0.093 -1.467,-0.307 -0.997,-0.46C-0.673,-0.565 -0.172,-0.565 0.009,-0.887C0.021,-0.91 0.018,-0.937 0,-0.955" style="fill:rgb(35,31,32);fill-rule:nonzero;"/>
            </g>
        </g>
        <g transform="matrix(5.55556,0,0,5.55556,0,9566.93)">
            <g transform="matrix(1,0,0,1,354.443,179.224)">
                <path d="M0,-11.802C-0.583,-10.205 -0.479,-8.427 -0.508,-6.746C-0.542,-4.675 -0.552,-2.603 -0.557,-0.532C-0.558,-0.323 -0.391,-0.193 -0.197,-0.173C3.177,0.187 6.553,0.153 9.906,-0.388C10.303,-0.453 10.214,-1.151 9.81,-1.097C8.148,-0.879 6.49,-0.697 4.813,-0.66C3.569,-0.633 0.865,-0.179 0.162,-1.361C-0.119,-1.832 0.166,-3.332 0.167,-3.846C0.168,-4.675 0.17,-5.503 0.171,-6.332C0.174,-8.104 -0.027,-9.975 0.298,-11.72C0.334,-11.916 0.068,-11.989 0,-11.802" style="fill:rgb(35,31,32);fill-rule:nonzero;"/>
            </g>
        </g>
        <g transform="matrix(5.55556,0,0,5.55556,0,9566.93)">
            <g transform="matrix(-0.99795,0.0639996,0.0639996,0.99795,365.776,178.12)">
                <path d="M1.281,-11.022C0.888,-7.392 1.843,-3.87 2.079,-0.245C2.112,0.269 1.311,0.32 1.281,-0.194C1.077,-3.705 -0.252,-7.728 0.943,-11.14C1.015,-11.346 1.3,-11.21 1.281,-11.022" style="fill:rgb(35,31,32);fill-rule:nonzero;"/>
            </g>
        </g>
        <g transform="matrix(5.55556,0,0,5.55556,0,9566.93)">
            <g transform="matrix(-0.981069,-0.193659,-0.193659,0.981069,351.477,186.952)">
                <path d="M-0.934,-8.966C0.069,-6.065 0.433,-2.925 -0.246,0.093C-0.346,0.535 -0.997,0.403 -0.934,-0.043C-0.517,-3.05 -0.573,-5.858 -1.499,-8.771C-1.615,-9.136 -1.06,-9.331 -0.934,-8.966" style="fill:rgb(35,31,32);fill-rule:nonzero;"/>
            </g>
        </g>
        <g transform="matrix(5.55556,0,0,5.55556,0,9566.93)">
            <g transform="matrix(0.0476714,0.998863,0.998863,-0.0476714,359.769,181.061)">
                <path d="M6.276,-7.997C8.752,-3.322 8.801,1.657 6.979,6.567C6.832,6.963 6.141,6.715 6.276,6.309C7.885,1.476 7.926,-3.047 5.742,-7.742C5.601,-8.046 6.117,-8.296 6.276,-7.997" style="fill:rgb(35,31,32);fill-rule:nonzero;"/>
            </g>
        </g>
        <g transform="matrix(5.55556,0,0,5.55556,0,9566.93)">
            <g transform="matrix(1,0,0,1,364.155,186.766)">
                <path d="M0,-7.938C1.673,-5.582 1.244,-2.363 2.008,0.309C2.107,0.655 2.656,0.597 2.646,0.223C2.602,-1.362 2.244,-2.979 1.969,-4.539C1.729,-5.901 1.404,-7.148 0.562,-8.266C0.314,-8.593 -0.245,-8.283 0,-7.938" style="fill:rgb(35,31,32);fill-rule:nonzero;"/>
            </g>
        </g>
        <g transform="matrix(5.55556,0,0,5.55556,0,9566.93)">
            <g transform="matrix(1,0,0,1,354.227,195.246)">
                <path d="M0,-2.018C-0.27,-1.722 -0.58,-1.384 -0.386,-0.962C-0.156,-0.462 0.586,-0.235 1.07,-0.124C1.744,0.031 4.156,0.085 3.375,-1.246C3.189,-1.56 2.721,-1.282 2.888,-0.961C3.167,-0.422 1.058,-0.735 0.907,-0.78C0.684,-0.845 0.223,-0.928 0.1,-1.145C-0.037,-1.386 0.121,-1.675 0.191,-1.906C0.225,-2.014 0.077,-2.103 0,-2.018" style="fill:rgb(35,31,32);fill-rule:nonzero;"/>
            </g>
        </g>
        <g transform="matrix(5.55556,0,0,5.55556,0,9566.93)">
            <g transform="matrix(1,0,0,1,361.504,194.937)">
                <path d="M0,-0.897C-0.524,0.681 2.25,0.406 3.039,0.284C3.46,0.218 4.059,0.041 4.172,-0.431C4.244,-0.733 4.118,-1.28 3.854,-1.456C3.671,-1.578 3.466,-1.412 3.449,-1.224C3.402,-0.687 3.769,-0.462 2.959,-0.309C2.403,-0.203 0.519,0.061 0.483,-0.832C0.473,-1.112 0.088,-1.162 0,-0.897" style="fill:rgb(35,31,32);fill-rule:nonzero;"/>
            </g>
        </g>
        <g transform="matrix(5.55556,0,0,5.55556,0,9566.93)">
            <g transform="matrix(1,0,0,1,355.077,193.52)">
                <path d="M0,-5.078C-0.209,-4.26 -0.271,-3.393 -0.389,-2.557C-0.499,-1.774 -0.685,-0.994 -0.74,-0.205C-0.757,0.035 -0.39,0.074 -0.328,-0.149C0.083,-1.623 0.326,-3.546 0.123,-5.061C0.114,-5.125 0.02,-5.152 0,-5.078" style="fill:rgb(35,31,32);fill-rule:nonzero;"/>
            </g>
        </g>
        <g transform="matrix(5.55556,0,0,5.55556,0,9566.93)">
            <g transform="matrix(1,0,0,1,354.408,194.372)">
                <path d="M0,-1.144L-0.056,-1.104C-0.141,-1.044 -0.168,-0.95 -0.121,-0.855C0.124,-0.358 0.838,-0.257 1.332,-0.197C1.76,-0.145 2.756,0.012 2.973,-0.479C2.991,-0.52 2.992,-0.569 2.957,-0.602C2.646,-0.899 2.121,-0.667 1.722,-0.683C1.11,-0.706 0.583,-0.846 0.06,-1.144C0.042,-1.154 0.017,-1.156 0,-1.144" style="fill:rgb(35,31,32);fill-rule:nonzero;"/>
            </g>
        </g>
        <g transform="matrix(5.55556,0,0,5.55556,0,9566.93)">
            <g transform="matrix(1,0,0,1,357.967,193.987)">
                <path d="M0,-5.008C-0.37,-4.36 -0.391,-3.508 -0.482,-2.779C-0.548,-2.256 -0.605,-1.729 -0.712,-1.212C-0.787,-0.847 -0.936,-0.518 -0.907,-0.145C-0.899,-0.036 -0.757,0.05 -0.673,-0.048C-0.242,-0.544 -0.264,-1.39 -0.19,-2.023C-0.081,-2.973 0.157,-4.029 0.104,-4.98C0.101,-5.033 0.028,-5.058 0,-5.008" style="fill:rgb(35,31,32);fill-rule:nonzero;"/>
            </g>
        </g>
        <g transform="matrix(5.55556,0,0,5.55556,0,9566.93)">
            <g transform="matrix(-0.981188,0.193054,0.193054,0.981188,362.702,193.987)">
                <path d="M0.384,-5.254C0.804,-3.693 0.796,-1.869 0.856,-0.257C0.866,0.045 0.393,0.01 0.384,-0.292C0.333,-1.877 -0.035,-3.685 0.268,-5.248C0.28,-5.311 0.367,-5.321 0.384,-5.254" style="fill:rgb(35,31,32);fill-rule:nonzero;"/>
            </g>
        </g>
        <g transform="matrix(5.55556,0,0,5.55556,0,9566.93)">
            <g transform="matrix(0.282477,0.959274,0.959274,-0.282477,362.801,192.521)">
                <path d="M1.353,-1.217C1.918,-0.454 2.032,0.894 1.823,1.795C1.763,2.055 1.349,2.017 1.353,1.742C1.367,0.797 1.376,-0.097 0.977,-0.985C0.862,-1.241 1.179,-1.452 1.353,-1.217" style="fill:rgb(35,31,32);fill-rule:nonzero;"/>
            </g>
        </g>
        <g transform="matrix(5.55556,0,0,5.55556,0,9566.93)">
            <g transform="matrix(1,0,0,1,364.251,193.595)">
                <path d="M0,-5.413C-0.182,-4.477 0.008,-3.436 0.12,-2.498C0.216,-1.698 0.247,-0.825 0.578,-0.086C0.643,0.059 0.854,-0.026 0.859,-0.163C0.894,-1.059 0.625,-1.991 0.52,-2.881C0.421,-3.72 0.407,-4.621 0.107,-5.413C0.09,-5.459 0.012,-5.472 0,-5.413" style="fill:rgb(35,31,32);fill-rule:nonzero;"/>
            </g>
        </g>
        <g transform="matrix(5.55556,0,0,5.55556,0,9566.93)">
            <g transform="matrix(1,0,0,1,354.459,174.216)">
                <path d="M0,-6.94C-1.77,-6.793 -2.599,-4.234 -3.048,-2.808C-3.251,-2.161 -3.569,-1.368 -3.103,-0.776C-2.558,-0.086 -1.378,0.018 -0.582,-0.074C-0.226,-0.116 -0.208,-0.669 -0.582,-0.645C-1.496,-0.588 -2.681,-0.566 -2.746,-1.816C-2.77,-2.253 -2.459,-2.877 -2.311,-3.285C-1.895,-4.43 -1.255,-6.194 0.051,-6.566C0.25,-6.623 0.221,-6.958 0,-6.94" style="fill:rgb(35,31,32);fill-rule:nonzero;"/>
            </g>
        </g>
        <g transform="matrix(5.55556,0,0,5.55556,0,9566.93)">
            <g transform="matrix(1,0,0,1,364.378,174.266)">
                <path d="M0,-7.539C-0.029,-7.542 -0.059,-7.546 -0.088,-7.55C-0.156,-7.558 -0.248,-7.503 -0.276,-7.441C-0.291,-7.41 -0.305,-7.379 -0.319,-7.348C-0.374,-7.228 -0.353,-7.094 -0.233,-7.02C0.995,-6.257 1.331,-4.797 1.546,-3.414C1.841,-1.517 1.203,-1.323 -0.139,-0.468C-0.304,-0.363 -0.222,-0.147 -0.046,-0.125C1.125,0.019 2.604,-1.234 2.429,-2.451C2.268,-3.568 1.867,-4.882 1.439,-5.929C1.312,-6.241 1.165,-6.541 0.943,-6.796C0.604,-7.186 0.436,-7.271 0.053,-7.146C0.278,-7.22 0.219,-7.513 0,-7.539" style="fill:rgb(35,31,32);fill-rule:nonzero;"/>
            </g>
        </g>
        <g transform="matrix(5.55556,0,0,5.55556,0,9566.93)">
            <g transform="matrix(-0.82777,-0.561068,-0.561068,0.82777,347.749,175.825)">
                <path d="M-1.462,-3.988C-1.449,-2.679 -1.208,-1.328 -0.795,-0.088C-0.634,0.394 -1.321,0.629 -1.462,0.133C-1.854,-1.243 -1.964,-2.592 -1.848,-4.014C-1.828,-4.265 -1.464,-4.234 -1.462,-3.988" style="fill:rgb(35,31,32);fill-rule:nonzero;"/>
            </g>
        </g>
        <g transform="matrix(5.55556,0,0,5.55556,0,9566.93)">
            <g transform="matrix(1,0,0,1,348.641,181.054)">
                <path d="M0,-4.858C-1.013,-5.122 -2.486,-4.588 -2.022,-3.295L-1.694,-3.726C-2.539,-3.624 -2.893,-2.912 -2.675,-2.101C-2.452,-1.269 -1.781,-0.72 -0.933,-0.652C-1.045,-0.764 -1.157,-0.876 -1.27,-0.988C-1.292,-0.144 -0.603,0.264 0.145,-0.064C0.48,-0.211 0.241,-0.776 -0.105,-0.657C-0.27,-0.768 -0.433,-0.878 -0.596,-0.988C-0.59,-1.181 -0.756,-1.31 -0.933,-1.325C-1.351,-1.36 -1.65,-1.582 -1.854,-1.936C-1.997,-2.185 -2.334,-2.966 -1.694,-3.045C-1.494,-3.07 -1.282,-3.245 -1.366,-3.476C-1.696,-4.388 -0.536,-4.325 -0.076,-4.291C0.252,-4.267 0.312,-4.777 0,-4.858" style="fill:rgb(35,31,32);fill-rule:nonzero;"/>
            </g>
        </g>
        <g transform="matrix(5.55556,0,0,5.55556,0,9566.93)">
            <g transform="matrix(1,0,0,1,348.745,175.259)">
                <path d="M0,5.394C0.424,6.8 2.164,4.514 2.394,4.015C2.57,3.63 2.614,3.189 2.844,2.84C3.116,2.428 3.613,2.159 3.941,1.775C4.592,1.016 5.061,0.07 5.378,-0.874C5.487,-1.198 4.988,-1.406 4.826,-1.106C4.502,-0.504 4.262,0.142 3.897,0.723C3.491,1.371 2.874,1.719 2.414,2.271C2.189,2.54 2.165,2.727 2.076,3.074C2.019,3.3 0.822,5.983 0.294,5.27C0.192,5.134 -0.057,5.206 0,5.394" style="fill:rgb(35,31,32);fill-rule:nonzero;"/>
            </g>
        </g>
        <g transform="matrix(5.55556,0,0,5.55556,0,9566.93)">
            <g transform="matrix(1,0,0,1,366.558,174.998)">
                <path d="M0,-2.247C-0.066,-2.463 -0.315,-2.505 -0.472,-2.339C-0.689,-2.11 -0.572,-1.618 -0.502,-1.351C-0.362,-0.822 0.404,0.258 1.053,-0.088C1.151,-0.141 1.228,-0.296 1.183,-0.407C1.04,-0.755 0.629,-0.817 0.38,-1.092C0.19,-1.301 -0.204,-1.846 -0.031,-2.141C-0.132,-2.128 -0.231,-2.115 -0.331,-2.102C-0.319,-2.093 -0.308,-2.084 -0.296,-2.075C-0.169,-1.976 0.059,-2.06 0,-2.247" style="fill:rgb(35,31,32);fill-rule:nonzero;"/>
            </g>
        </g>
        <g transform="matrix(5.55556,0,0,5.55556,0,9566.93)">
            <g transform="matrix(1,0,0,1,364.292,174.945)">
                <path d="M0,1.292C0.787,2.108 1.952,2.449 3.038,2.045C4.188,1.618 4.74,0.614 4.954,-0.53C5.019,-0.875 4.511,-1.157 4.343,-0.788C3.981,0.001 3.944,0.743 3.102,1.241C2.222,1.761 1.139,1.547 0.391,0.902C0.124,0.673 -0.249,1.034 0,1.292" style="fill:rgb(35,31,32);fill-rule:nonzero;"/>
            </g>
        </g>
        <g transform="matrix(5.55556,0,0,5.55556,0,9566.93)">
            <g transform="matrix(1,0,0,1,367.014,172.725)">
                <path d="M0,1.373C0.097,1.073 0.188,0.814 0.441,0.607C0.685,0.409 0.98,0.322 1.29,0.343C1.2,0.253 1.11,0.164 1.021,0.074C1.011,0.323 1.03,0.561 1.156,0.778C1.271,0.976 1.629,0.903 1.609,0.656C1.594,0.458 1.551,0.273 1.559,0.074C1.565,-0.079 1.431,-0.186 1.29,-0.195C0.485,-0.25 -0.494,0.431 -0.451,1.312C-0.438,1.571 -0.08,1.623 0,1.373" style="fill:rgb(35,31,32);fill-rule:nonzero;"/>
            </g>
        </g>
        <g transform="matrix(5.55556,0,0,5.55556,0,9566.93)">
            <g transform="matrix(1,0,0,1,368.576,174.806)">
                <path d="M0,-1.031C0.286,-1.167 0.784,-1.379 1.103,-1.253C1.038,-1.302 0.974,-1.352 0.908,-1.402C1.134,-1.09 0.921,-0.518 0.744,-0.237C0.553,0.067 0.158,0.203 0.02,0.517C-0.044,0.66 -0.003,0.846 0.17,0.888C0.588,0.992 0.953,0.603 1.187,0.294C1.463,-0.07 1.627,-0.515 1.646,-0.971C1.66,-1.34 1.592,-1.824 1.166,-1.919C0.693,-2.023 0.099,-1.771 -0.312,-1.564C-0.668,-1.384 -0.355,-0.862 0,-1.031" style="fill:rgb(35,31,32);fill-rule:nonzero;"/>
            </g>
        </g>
        <g transform="matrix(5.55556,0,0,5.55556,0,9566.93)">
            <g transform="matrix(1,0,0,1,368.402,168.778)">
                <path d="M0,4.324C0.617,3.131 1.355,1.651 1.337,0.279C1.334,0.006 0.924,-0.141 0.793,0.131C0.505,0.731 0.422,1.414 0.25,2.055C0.058,2.773 -0.081,3.496 -0.245,4.22C-0.278,4.363 -0.072,4.465 0,4.324" style="fill:rgb(35,31,32);fill-rule:nonzero;"/>
            </g>
        </g>
        <g transform="matrix(5.55556,0,0,5.55556,0,9566.93)">
            <g transform="matrix(1,0,0,1,369.73,167.606)">
                <path d="M0,1.517C0.686,0.609 2.173,0.827 3.002,0.157C3.188,0.006 3.025,-0.287 2.815,-0.292C2.171,-0.305 1.378,0.08 0.788,0.322C0.287,0.527 -0.197,0.765 -0.521,1.212C-0.751,1.53 -0.23,1.822 0,1.517" style="fill:rgb(35,31,32);fill-rule:nonzero;"/>
            </g>
        </g>
        <g transform="matrix(5.55556,0,0,5.55556,0,9566.93)">
            <g transform="matrix(1,0,0,1,372.49,177.354)">
                <path d="M0,-9.68C0.041,-9.658 0.771,-9.406 0.783,-9.381C0.856,-9.237 0.02,-6.894 -0.057,-6.602C-0.621,-4.456 -1.221,-2.318 -1.722,-0.157C-1.806,0.209 -1.25,0.364 -1.158,-0.001C-0.357,-3.181 0.45,-6.362 1.2,-9.554C1.236,-9.707 1.129,-9.861 0.966,-9.862C0.614,-9.863 0.333,-10.044 0,-9.872C-0.074,-9.835 -0.072,-9.719 0,-9.68" style="fill:rgb(35,31,32);fill-rule:nonzero;"/>
            </g>
        </g>
        <g transform="matrix(5.55556,0,0,5.55556,0,9566.93)">
            <g transform="matrix(-0.996638,-0.0819338,-0.0819338,0.996638,366.808,180.347)">
                <path d="M-0.434,-3.916C-0.188,-2.733 0.017,-1.505 0.166,-0.307C0.213,0.081 -0.356,0.195 -0.434,-0.193C-0.675,-1.386 -0.8,-2.678 -0.798,-3.897C-0.798,-4.109 -0.476,-4.113 -0.434,-3.916" style="fill:rgb(35,31,32);fill-rule:nonzero;"/>
            </g>
        </g>
        <g transform="matrix(5.55556,0,0,5.55556,0,9566.93)">
            <g transform="matrix(1,0,0,1,367.089,177.179)">
                <path d="M0,3.125C1.028,3.488 1.299,2.896 2.059,2.347C2.879,1.755 3.886,1.167 4.265,0.18C4.41,-0.199 3.801,-0.363 3.657,0.012C3.353,0.807 2.427,1.382 1.78,1.871C1.196,2.312 0.946,2.882 0.113,2.714C-0.156,2.66 -0.259,3.034 0,3.125" style="fill:rgb(35,31,32);fill-rule:nonzero;"/>
            </g>
        </g>
        <g transform="matrix(5.55556,0,0,5.55556,0,9566.93)">
            <g transform="matrix(-0.856581,0.516013,0.516013,0.856581,370.098,169.444)">
                <path d="M0.037,-0.08C0.048,-0.054 0.06,-0.029 0.071,-0.004C0.081,0.019 0.052,0.037 0.037,0.017C0.02,-0.005 0.003,-0.027 -0.015,-0.049C-0.037,-0.08 0.021,-0.115 0.037,-0.08" style="fill:rgb(35,31,32);fill-rule:nonzero;"/>
            </g>
        </g>
        <g transform="matrix(5.55556,0,0,5.55556,0,9566.93)">
            <g transform="matrix(1,0,0,1,369.89,173.367)">
                <path d="M0,-3.521C-0.223,-2.461 -0.589,-1.158 -0.458,-0.073C-0.432,0.149 -0.104,0.235 -0.039,-0.016C0.088,-0.505 0.075,-1.016 0.119,-1.517C0.175,-2.155 0.256,-2.79 0.354,-3.423C0.39,-3.651 0.049,-3.756 0,-3.521" style="fill:rgb(35,31,32);fill-rule:nonzero;"/>
            </g>
        </g>
        <g transform="matrix(5.55556,0,0,5.55556,0,9566.93)">
            <g transform="matrix(1,0,0,1,368.9,178.322)">
                <path d="M0,-2.711C-0.447,-2.059 -0.735,-0.922 -0.659,-0.133C-0.64,0.064 -0.344,0.137 -0.292,-0.083C-0.191,-0.502 -0.181,-0.936 -0.089,-1.358C0.004,-1.779 0.181,-2.179 0.265,-2.6C0.297,-2.762 0.095,-2.848 0,-2.711" style="fill:rgb(35,31,32);fill-rule:nonzero;"/>
            </g>
        </g>
        <g transform="matrix(5.55556,0,0,5.55556,0,9566.93)">
            <g transform="matrix(1,0,0,1,315.129,178.712)">
                <path d="M0,-1.213C0.128,-0.925 0.379,-0.802 0.654,-0.679C0.831,-0.601 0.998,-0.521 1.14,-0.386C1.26,-0.272 1.34,-0.129 1.472,-0.025C1.731,0.179 1.968,-0.251 1.666,-0.359C1.405,-0.454 1.229,-0.719 0.967,-0.835C0.678,-0.963 0.355,-1.039 0.153,-1.302C0.084,-1.392 -0.047,-1.318 0,-1.213" style="fill:rgb(35,31,32);fill-rule:nonzero;"/>
            </g>
        </g>
        <g transform="matrix(5.55556,0,0,5.55556,0,9566.93)">
            <g transform="matrix(0.0120636,0.999927,0.999927,-0.0120636,395.47,168.47)">
                <path d="M27.719,-27.342C27.94,-8.861 28.307,9.625 28.342,28.107C28.343,28.509 27.728,28.516 27.719,28.114C27.309,9.637 27.229,-8.853 27.004,-27.333C26.999,-27.793 27.714,-27.803 27.719,-27.342" style="fill:rgb(35,31,32);fill-rule:nonzero;"/>
            </g>
        </g>
        <g transform="matrix(5.55556,0,0,5.55556,0,9566.93)">
            <g transform="matrix(1,0,0,1,357.468,195.802)">
                <path d="M0,0.715L4.135,0.715C4.595,0.715 4.596,0 4.135,0L0,0C-0.46,0 -0.461,0.715 0,0.715" style="fill:rgb(35,31,32);fill-rule:nonzero;"/>
            </g>
        </g>
        <g transform="matrix(5.55556,0,0,5.55556,0,9566.93)">
            <g transform="matrix(0.0632324,0.997999,0.997999,-0.0632324,343.684,190.522)">
                <path d="M5.674,-5.322C5.913,-1.548 6.153,2.227 6.388,6.003C6.416,6.463 5.704,6.508 5.674,6.048C5.43,2.273 5.192,-1.502 4.953,-5.277C4.924,-5.741 5.644,-5.787 5.674,-5.322" style="fill:rgb(35,31,32);fill-rule:nonzero;"/>
            </g>
        </g>
        <g transform="matrix(5.55556,0,0,5.55556,0,9566.93)">
            <g transform="matrix(1,0,0,1,328.186,195.802)">
                <path d="M0,0.715L2.54,0.715C3,0.715 3.001,0 2.54,0L0,0C-0.461,0 -0.462,0.715 0,0.715" style="fill:rgb(35,31,32);fill-rule:nonzero;"/>
            </g>
        </g>
        <g transform="matrix(5.55556,0,0,5.55556,0,9566.93)">
            <g transform="matrix(0.00669401,0.999978,0.999978,-0.00669401,276.286,150.754)">
                <path d="M45.354,-45.16C46.254,-14.969 45.862,15.31 46.069,45.514C46.072,45.975 45.357,45.98 45.354,45.518C45.157,15.315 44.359,-14.956 44.855,-45.156C44.86,-45.476 45.344,-45.481 45.354,-45.16" style="fill:rgb(35,31,32);fill-rule:nonzero;"/>
            </g>
        </g>
        <g transform="matrix(5.55556,0,0,5.55556,0,9566.93)">
            <g transform="matrix(1,0,0,1,286.747,154.809)">
                <path d="M0,43.078L-69.773,43.078C-71.999,43.078 -73.804,41.274 -73.804,39.048L-73.804,4.03C-73.804,1.804 -71.999,0 -69.773,0L0,0C2.226,0 4.03,1.804 4.03,4.03L4.03,39.048C4.03,41.274 2.226,43.078 0,43.078Z" style="fill:white;fill-rule:nonzero;stroke:rgb(246,150,121);stroke-width:1px;"/>
            </g>
        </g>
        <g transform="matrix(5.55556,0,0,5.55556,0,9566.93)">
            <g transform="matrix(1,0,0,1,400.802,69.7996)">
                <path d="M0,31.71L-174.909,31.71C-177.135,31.71 -178.938,29.906 -178.938,27.68L-178.938,4.03C-178.938,1.805 -177.135,0 -174.909,0L0,0C2.226,0 4.029,1.805 4.029,4.03L4.029,27.68C4.029,29.906 2.226,31.71 0,31.71Z" style="fill:white;fill-rule:nonzero;stroke:rgb(0,174,239);stroke-width:1px;"/>
            </g>
        </g>
        <g transform="matrix(5.55556,0,0,5.55556,0,9566.93)">
            <g transform="matrix(1,0,0,1,289.755,187.112)">
                <path d="M0,6.055C0,6.055 40.536,16.988 53.083,-10.933C43.141,1.55 19.5,7.736 0.177,0.556" style="fill:white;fill-rule:nonzero;stroke:rgb(246,150,121);stroke-width:1px;stroke-linecap:round;stroke-linejoin:round;"/>
            </g>
        </g>
        <g transform="matrix(5.55556,0,0,5.55556,0,9566.93)">
            <g transform="matrix(1,0,0,1,276.886,153.79)">
                <path d="M0,-53.142C0,-53.142 -1.295,-11.281 34.981,0C23.258,-7.52 6.275,-26.773 11.872,-52.965" style="fill:white;fill-rule:nonzero;stroke:rgb(0,174,239);stroke-width:1px;stroke-linecap:round;stroke-linejoin:round;"/>
            </g>
        </g>
        <g transform="matrix(5.55556,0,0,5.55556,0,9566.93)">
            <g transform="matrix(1,0,0,1,-118.98,-23.04)">
                <text x="354.307px" y="105.815px" style="font-family:'ITCAvantGardeStd-Bk', 'ITC Avant Garde Gothic Std', sans-serif;font-weight:300;font-size:10px;fill:rgb(35,31,32);">L<tspan x="358.477px " y="105.815px ">o</tspan> bueno es que la maestr<tspan x="484.107px " y="105.815px ">a</tspan> nos</text>
                <text x="351.467px" y="117.815px" style="font-family:'ITCAvantGardeStd-Bk', 'ITC Avant Garde Gothic Std', sans-serif;font-weight:300;font-size:10px;fill:rgb(35,31,32);">dijo que visit<tspan x="411.637px 418.477px 421.277px " y="117.815px 117.815px 117.815px ">ra</tspan>mos la bibliot<tspan x="492.897px " y="117.815px ">e</tspan>ca.</text>
            </g>
        </g>
        <g transform="matrix(5.55556,0,0,5.55556,0,9566.93)">
            <g transform="matrix(1,0,0,1,-118.98,-23.04)">
                <text x="342.827px" y="190.775px" style="font-family:'ITCAvantGardeStd-Bk', 'ITC Avant Garde Gothic Std', sans-serif;font-weight:300;font-size:10px;fill:rgb(35,31,32);">Cr<tspan x="359.226px " y="190.775px ">e</tspan>es que</text>
                <text x="338.427px" y="202.775px" style="font-family:'ITCAvantGardeStd-Bk', 'ITC Avant Garde Gothic Std', sans-serif;font-weight:300;font-size:10px;fill:rgb(35,31,32);">encontr<tspan x="376.237px " y="202.775px ">e</tspan>mos</text>
                <text x="356.817px" y="214.775px" style="font-family:'ITCAvantGardeStd-Bk', 'ITC Avant Garde Gothic Std', sans-serif;font-weight:300;font-size:10px;fill:rgb(35,31,32);">algo?</text>
            </g>
        </g>
    </g>
    <defs>
        <linearGradient id="_Linear1" x1="0" y1="0" x2="1" y2="0" gradientUnits="userSpaceOnUse" gradientTransform="matrix(0,1,1,0,0.499997,-0.499997)"><stop offset="0" style="stop-color:rgb(225,244,253);stop-opacity:1"/><stop offset="1" style="stop-color:rgb(174,223,228);stop-opacity:1"/></linearGradient>
    </defs>
</svg>
