<?xml version="1.0" encoding="UTF-8" standalone="no"?>
<!DOCTYPE svg PUBLIC "-//W3C//DTD SVG 1.1//EN" "http://www.w3.org/Graphics/SVG/1.1/DTD/svg11.dtd">
<svg width="100%" height="100%" viewBox="0 0 210 188" version="1.1" xmlns="http://www.w3.org/2000/svg" xmlns:xlink="http://www.w3.org/1999/xlink" xml:space="preserve" xmlns:serif="http://www.serif.com/" style="fill-rule:evenodd;clip-rule:evenodd;stroke-linecap:round;stroke-linejoin:round;stroke-miterlimit:10;">
    <g transform="matrix(1,0,0,1,-27632.6,-3461.09)">
        <g transform="matrix(5.55556,0,0,5.55556,25423.2,0)">
            <g transform="matrix(1,0,0,1,412.416,653.476)">
                <path d="M0,-29.003C-7.544,-27.159 -18.62,-12.354 -12.414,-4.391C-6.207,3.571 -1.504,3.946 1.634,1.038C4.771,-1.87 13.58,-6.507 17.313,-5.477C21.047,-4.446 24.501,-15.249 21.233,-19.593C17.967,-23.936 16.156,-32.949 0,-29.003" style="fill:rgb(0,127,138);fill-rule:nonzero;"/>
            </g>
        </g>
        <g transform="matrix(5.55556,0,0,5.55556,25423.2,0)">
            <g transform="matrix(1,0,0,1,412.416,653.476)">
                <path d="M0,-29.003C-7.544,-27.159 -18.62,-12.354 -12.414,-4.391C-6.207,3.571 -1.504,3.946 1.634,1.038C4.771,-1.87 13.58,-6.507 17.313,-5.477C21.047,-4.446 24.501,-15.249 21.233,-19.593C17.967,-23.936 16.156,-32.949 0,-29.003Z" style="fill:none;fill-rule:nonzero;stroke:rgb(29,86,110);stroke-width:1px;"/>
            </g>
        </g>
        <g transform="matrix(5.55556,0,0,5.55556,25423.2,0)">
            <g opacity="0.3">
                <g transform="matrix(1,0,0,1,412.943,651.416)">
                    <path d="M0,-24.991C-6.585,-23.382 -16.254,-10.457 -10.836,-3.507C-5.418,3.445 -1.959,2.831 0.779,0.293C3.519,-2.246 12.874,-7.031 16.133,-6.132C19.392,-5.232 21.388,-12.985 18.536,-16.776C15.685,-20.567 14.104,-28.436 0,-24.991" style="fill:white;fill-rule:nonzero;"/>
                </g>
            </g>
        </g>
        <g transform="matrix(5.55556,0,0,5.55556,25423.2,0)">
            <g opacity="0.25">
                <g transform="matrix(1,0,0,1,414.624,644.501)">
                    <path d="M0,-15.867C-4.164,-14.85 -12.807,-6.611 -9.381,-2.216C-5.955,2.179 -1.679,-1.217 0.053,-2.822C1.784,-4.428 7.436,-5.397 11.127,-5.397C13.25,-5.397 15.391,-8.453 13.588,-10.85C11.784,-13.247 8.917,-18.046 0,-15.867" style="fill:white;fill-rule:nonzero;"/>
                </g>
            </g>
        </g>
        <g transform="matrix(5.55556,0,0,5.55556,25423.2,0)">
            <text x="409.634px" y="642.527px" style="font-family:'LucidaGrande-Bold', 'Lucida Grande', sans-serif;font-weight:600;font-size:11.903px;fill:white;">6<tspan x="416.24px " y="642.527px ">0</tspan></text>
        </g>
    </g>
</svg>
