<svg clip-rule="evenodd" fill-rule="evenodd" stroke-linejoin="round" stroke-miterlimit="2" viewBox="0 0 77 86" xmlns="http://www.w3.org/2000/svg"><path d="m39.66 72.103c2.08.099 3.209-.844 3.114-2.338-.111-1.791-1.148-1.966-2.635-1.63-.911.204-1.889.272-2.818.189-1.239-.109-1.371.512-1.164 1.436.461 2.058 2.209 2.083 3.503 2.343m-28.29-31.452c-2.392.59-2.977 1.361-3.364 4.156-.423 3.043 1.62 6.314 4.288 6.768.452.078 1.265.552 1.233-.656-.053-1.996-2.18-4.748-4.186-5.003 1.846-1.131 2.82-.072 3.879 1.105-.228-2.302-2.606-3.844-1.85-6.37m27.353 34.934c1.902.128 3.636-.558 5.354-1.184 1.409-.514 2.387-2.89 2.091-4.274-.207-.967-.805-1.142-1.606-1.203-1.068-.081-1.021.594-.967 1.33.078 1.022-.617 1.631-1.307 2.187-1.293 1.039-5.402.478-6.55-1.123-1.228-1.712-1.827.036-2.613.306-1.235.424-.396 1.19-.032 1.763 1.331 2.096 3.534 2.039 5.63 2.198m32.762-30.778c-3.534.203-5.174 2.161-6.079 7.071 7.198.801 8.804-3.384 7.89-9.297-.316-2.042-2.418-2.591-4.282-1.79-2.393 1.031-2.424 2.776-2.18 4.949 1.469-.889 2.633-2.768 4.651-.933m-33.959 39.968c6.193-.543 12.302-1.358 17.493-5.281 1.959-1.481 2.203-2.682.593-4.512-1.925-2.186-4.456-3.543-7.054-4.769-.551-.259-1.189-.309-1.254.464-.296 3.554-2.858 4.526-5.74 5.372-3.466 1.017-7.253.031-9.404-2.885-.657-.893-1.011-.353-1.425.009-1.536 1.342-3.115 2.628-4.342 4.302-1.521 2.07-1.469 3.225.842 4.358 3.223 1.582 6.523 3.115 10.291 2.942m-10.943-53.062c-2.278 1.419-4.049 2.978-6.073 2.724-3.237-.401-3.848 1.573-4.524 3.851-.27.909-.76 1.75-1.072 2.648-1.025 2.951-1.454 6.045-.789 9.062 1.54 6.988 4.94 12.641 12.096 15.248 4.173 1.521 8.466 2.767 12.908 2.245 4.659-.546 9.193-1.825 13.565-3.633 5.15-2.127 9.079-5.679 11.214-10.715 2.54-5.986 2.642-12.452 2.043-18.843-.303-3.22-.693-6.496-2.256-9.474-1.475-2.814-3.27-3.396-5.955-1.772-.581.353-1.141.746-1.744 1.058-3.322 1.718-4.377 1.079-4.402-2.636 0-.092-.143-.183-.341-.421-6.497 4.956-12.564 10.584-20.507 13.529 1.628 2.004 2.223 4.73 5.798 4.9-1.577.881-2.304.277-3.072-.097-1.264-.615-1.625-1.974-2.398-2.984-.699-.914-1.321-1.262-2.393-.704-.919.478-1.935 1.491-2.93.408-.944-1.023-.207-2.176.266-3.226.101-.223.211-.439.566-1.168m25.55-26.769c.965-.241 1.435.645 2.233.977.355-.346-.003-.68-.068-1.005-.153-.741-.022-1.319.722-1.714.721-.382 1.349-.197 1.898.241 1.127.898 2.139 1.964 2.753 3.248.608 1.269 1.278 1.269 2.393.748 1.664-.781 3.397-1.4 5.3-1.317 1.077.046 2.101.178 2.415 1.426.322 1.28-.369 2.058-1.44 2.605-.598.304-1.179.638-1.889 1.026.677.968 1.674 1.096 2.501 1.356 3.452 1.089 4.997 3.782 6.008 6.932.414 1.289.666 2.63.999 3.946.16.637.687 1.366.011 1.884-.684.529-1.416.082-2.073-.315-.216-.132-.476-.199-1.017-.417.943 3.827.302 7.337-.717 10.815-.133.456-.182.969-.427 1.356-1.032 1.624-1.623 3.043 1.071 3.551.27.049.519.426.706.701 2.782 4.112-.17 11.17-5.064 11.584-2.543.217-4.03 1.019-5.182 3.335-2.645 5.32-7.641 7.731-12.918 9.607-2.327.826-4.735 1.422-7.539 2.251 5.437.939 9.748 3.075 13.211 6.678 2.314 2.409 1.976 4.043-.782 5.914-6.339 4.297-13.467 5.436-20.866 4.776-3.07-.275-6.038-1.614-8.623-3.452-1.809-1.287-1.867-2.336-.528-4.08 2.14-2.785 4.69-5.097 7.769-6.81.357-.198.747-.369 1.037-.643.487-.452 1.33-.787 1.246-1.516-.112-.974-1.081-.514-1.675-.673-2.292-.61-4.636-.978-6.901-1.734-5.986-1.997-9.768-6.171-12.047-11.89-.428-1.076-.803-1.838-2.31-1.985-2.609-.254-4.258-2.152-4.884-4.579-.745-2.902-.283-5.67 2.213-7.852-3.76-2.599-3.931-6.173-2.547-10.217-1.104-.171-2.389.428-3.037-.715-.691-1.217.247-2.216.74-3.223.558-1.138 1.505-2.083 1.803-3.435-1.37-.237-2.508.315-3.698.526-.848.149-1.741.334-2.393-.606-.686-.985-.083-1.711.419-2.396 1.722-2.354 4.01-4.162 6.201-6.074-.152-.146-.189-.212-.239-.223-1.139-.258-2.718.659-3.373-.718-.662-1.397.841-2.276 1.477-3.351.769-1.297 2.001-2.089 3.274-2.676 3.92-1.809 8.015-3.032 12.386-3.067.659-.005 1.379-.204 1.924.393l.046-.061c-3.526.243-7.032.604-10.401 1.777-2.932 1.021-5.736 2.229-7.397 5.089-.293.508-.858 1.027-.435 1.66.393.588 1.107.45 1.703.39.671-.067 1.35-.183 1.991-.393.448-.146.785-.233.996.269.171.404-.115.641-.393.836-.557.393-1.136.753-1.696 1.138-1.925 1.316-3.58 2.938-5.106 4.682-.511.585-1.235 1.291-.815 2.163.471.97 1.453.496 2.217.441 1.151-.086 2.288-.36 3.439-.41 1.219-.05 1.442.462.676 1.473-.821 1.083-1.593 2.213-2.279 3.388-.351.604-.89 1.313-.283 2.073.581.729 1.341.516 2.06.263.388-.136.797-.386 1.142-.069.471.436.063.903-.146 1.284-1.016 1.85-1.07 3.774-.52 5.756.541 1.955 2.232 3.268 4.243 3.192 1.229-.047.949.6.741 1.304-.396 1.333-.35 2.584.861 3.908.635-3.975 2.837-7.168 3.505-10.887.068-.383.013-.844.542-.981.312-.08.593.058.677.309.652 1.969 2.025 1.309 3.35.981 2.942-.726 5.043-2.909 7.586-4.321.373-.208.707-.916 1.184-.373.627.714-.289.911-.623 1.183-1.442 1.182-2.788 2.412-3.227 4.331-.094.405-.17.841.204 1.134.379.298.929.19 1.117-.113.74-1.178 2.068-1.187 3.132-1.585 7.301-2.734 12.782-8.197 19.039-12.494.881-.604 1.535-2.231 2.417-1.85.907.394.129 1.938.188 2.978.098 1.76.79 2.11 2.366 1.395 1.128-.512 2.147-1.17 3.15-1.861 2.25-1.543 3.735-1.3 5.383.892 1.647 2.189 2.335 4.719 2.792 7.364.586 3.391.9 6.805.861 10.309 1.775-.591 2.94-1.537 3.559-3.08 1.641-4.087 2.938-8.22 1.636-12.686-.212-.73-.684-1.602.791-1.289.806.17 1.475 1.542 2.28.702.693-.726-.233-1.768-.371-2.68-.103-.666-.303-1.321-.499-1.969-.976-3.201-2.554-5.784-6.078-6.82-.97-.284-2.712.028-2.842-1.351-.133-1.371 1.72-1.151 2.483-1.914.537-.534 1.6-.808 1.162-1.89-.365-.908-1.209-1.019-2.063-.964-1.939.121-3.77.71-5.389 1.729-.978.616-1.449.387-1.947-.461-.724-1.233-1.461-2.455-2.528-3.445-.473-.437-.945-.879-1.606-.526-.662.355-.295.983-.194 1.474.188.922.462 1.825.7 2.737-.104.057-.208.117-.313.176-1.17-1.181-2.34-2.361-3.509-3.541z" fill="#231f20"/><path d="m22.606 4.137c3.033-.436 6.038.182 9.034.377.136-.648-.345-.82-.539-1.154-.621-1.064-.625-1.737.784-2.272 4.371-1.665 8.716-1.095 12.972.158 2.6.766 5.228 1.727 7.275 3.698l.033-.041c-2.353-.454-4.233-2.01-6.454-2.761-4.262-1.441-8.571-1.981-12.97-.621-1.319.408-1.375 1.076-.551 2.079.439.537 1.774.648 1.309 1.496-.457.834-1.45-.102-2.221-.083-.542.015-1.097-.004-1.625-.113-2.312-.474-4.723-.083-7.001-.825z" fill="#231f20"/><path d="m22.652 4.075c2.278.741 4.689.351 7.001.824.528.109 1.083.128 1.625.114.771-.019 1.764.917 2.221.083.466-.848-.869-.959-1.309-1.496-.824-1.004-.767-1.671.551-2.079 4.399-1.36 8.708-.82 12.97.62 2.221.751 4.101 2.308 6.454 2.762 1.169 1.179 2.339 2.36 3.508 3.54.106-.059.209-.118.314-.176-.238-.911-.512-1.815-.7-2.736-.101-.492-.468-1.12.194-1.475.661-.353 1.133.09 1.606.527 1.067.989 1.804 2.211 2.528 3.445.498.848.969 1.076 1.947.46 1.618-1.018 3.449-1.607 5.389-1.729.853-.055 1.698.057 2.063.964.438 1.082-.625 1.356-1.162 1.891-.763.762-2.616.542-2.483 1.914.13 1.379 1.872 1.066 2.842 1.35 3.524 1.037 5.102 3.619 6.078 6.821.196.647.396 1.303.499 1.968.137.912 1.064 1.954.371 2.68-.805.841-1.474-.531-2.28-.702-1.475-.312-1.003.559-.791 1.289 1.302 4.466.004 8.599-1.636 12.686-.619 1.543-1.784 2.489-3.559 3.08.039-3.503-.275-6.917-.861-10.309-.457-2.645-1.146-5.175-2.792-7.364-1.649-2.191-3.133-2.435-5.383-.892-1.003.691-2.022 1.349-3.15 1.861-1.576.716-2.268.365-2.367-1.395-.058-1.039.72-2.584-.187-2.977-.882-.382-1.536 1.245-2.417 1.849-6.257 4.297-11.738 9.761-19.039 12.495-1.065.398-2.393.407-3.132 1.584-.188.303-.738.412-1.117.114-.374-.294-.298-.73-.204-1.134.439-1.92 1.785-3.149 3.226-4.332.334-.272 1.25-.468.623-1.183-.476-.543-.81.165-1.183.373-2.543 1.413-4.644 3.596-7.586 4.322-1.325.328-2.698.988-3.35-.981-.084-.251-.365-.39-.677-.309-.529.136-.474.598-.542.981-.668 3.718-2.871 6.911-3.505 10.886-1.211-1.324-1.257-2.575-.862-3.907.208-.705.489-1.352-.74-1.305-2.012.076-3.702-1.236-4.243-3.192-.55-1.981-.496-3.905.519-5.755.209-.382.618-.848.147-1.284-.345-.318-.754-.068-1.143.068-.718.254-1.478.467-2.059-.263-.608-.76-.069-1.469.283-2.073.686-1.174 1.458-2.305 2.279-3.387.766-1.012.543-1.524-.676-1.474-1.151.05-2.289.325-3.439.41-.765.055-1.746.529-2.217-.441-.421-.872.304-1.578.815-2.163 1.526-1.743 3.18-3.366 5.106-4.682.56-.385 1.139-.745 1.695-1.138.279-.194.565-.432.394-.836-.211-.502-.548-.415-.996-.269-.641.21-1.32.326-1.991.394-.596.059-1.31.198-1.703-.391-.423-.632.142-1.151.435-1.659 1.661-2.861 4.465-4.069 7.397-5.089 3.369-1.174 6.875-1.534 10.401-1.778" fill="#053145"/><path d="m32.827 42.225c-.247-.289.289-1.295-.709-1.202-.861.08-.724 1.004-.848 1.62-.103.519.159 1.031.694 1.037.79.008.947-.608.863-1.455m14.685 1.422c.989-.211.977-1.118 1.14-1.871.1-.45.167-1.05-.547-1.04-.89.012-1.298.739-1.454 1.447-.125.562.048 1.228.861 1.464m-7.129 7.437c-1.629-.265-3.726.103-3.834-2.324-.103-2.307 1.94-2.583 3.808-3.131-1.728-1.09-2.827-.119-3.855.846-1.496 1.402-.807 2.933.066 4.251.979 1.474 2.41 1.013 3.815.358m1.386-11.857c.057.216.114.431.171.649.284.11.561.301.85.321 2.229.158 3.98-1.105 5.033-3.685.695-1.704 1.32-3.456 2.599-4.812 1.106-1.172 2.296-2.409 4.187-1.685.325.124.621.758.908.119.206-.457-.067-.985-.665-1.023-1.296-.085-2.551-.034-3.689.804-1.774 1.308-2.703 3.143-3.537 5.097-1.054 2.476-2.078 5.085-5.857 4.215m5.97 16.332c-3.956.359-8.712 2.921-10.965 5.709-.248.306-.689.612-.2.999.452.357.729-.06.974-.386 1.21-1.603 2.775-2.823 4.516-3.73 3.239-1.689 6.552-3.355 9.907-.147.13.126.584.119.717-.005.423-.399.046-.74-.231-1.006-1.455-1.401-3.322-1.323-4.718-1.434m-21.156-23.847c-.355.73-.465.946-.566 1.168-.473 1.051-1.21 2.203-.266 3.227.995 1.082 2.011.07 2.93-.409 1.072-.557 1.694-.209 2.393.705.773 1.009 1.134 2.369 2.398 2.984.768.373 1.495.977 3.072.097-3.575-.171-4.17-2.896-5.798-4.901 7.943-2.944 14.01-8.573 20.507-13.529.198.239.341.329.341.421.025 3.715 1.08 4.354 4.402 2.636.603-.311 1.163-.705 1.744-1.057 2.685-1.624 4.48-1.043 5.955 1.772 1.563 2.977 1.953 6.253 2.256 9.473.599 6.392.497 12.857-2.043 18.843-2.135 5.036-6.064 8.588-11.214 10.716-4.372 1.807-8.906 3.087-13.565 3.633-4.442.521-8.735-.725-12.908-2.246-7.156-2.607-10.556-8.26-12.096-15.248-.665-3.016-.236-6.11.789-9.062.312-.898.802-1.739 1.072-2.648.676-2.277 1.287-4.252 4.524-3.851 2.024.254 3.795-1.305 6.073-2.724" fill="#fee4c8"/><path d="m37.526 84.775c-3.769.173-7.068-1.36-10.291-2.942-2.312-1.133-2.363-2.287-.842-4.358 1.227-1.674 2.806-2.96 4.342-4.302.414-.362.768-.902 1.425-.009 2.151 2.916 5.938 3.903 9.404 2.885 2.882-.846 5.443-1.817 5.739-5.372.066-.773.703-.723 1.255-.464 2.598 1.226 5.129 2.583 7.054 4.77 1.61 1.83 1.366 3.03-.593 4.511-5.191 3.924-11.301 4.739-17.493 5.281" fill="#ed2124"/><path d="m71.485 44.806c-2.019-1.835-3.183.044-4.651.933-.245-2.172-.213-3.918 2.18-4.949 1.864-.8 3.966-.252 4.282 1.79.914 5.914-.692 10.099-7.89 9.297.905-4.909 2.545-6.867 6.079-7.071" fill="#fee4c8"/><path d="m38.723 75.585c-2.097-.16-4.3-.102-5.631-2.199-.363-.572-1.202-1.338.032-1.762.787-.27 1.385-2.018 2.614-.307 1.147 1.601 5.256 2.163 6.549 1.124.691-.557 1.385-1.166 1.307-2.188-.054-.735-.1-1.411.968-1.329.801.061 1.398.236 1.605 1.203.296 1.384-.681 3.759-2.09 4.273-1.718.627-3.453 1.312-5.354 1.185" fill="#ed2124"/><path d="m11.37 40.651c-.756 2.525 1.622 4.067 1.85 6.37-1.059-1.177-2.033-2.236-3.879-1.106 2.007.256 4.133 3.007 4.186 5.004.032 1.208-.781.734-1.233.655-2.668-.453-4.711-3.725-4.288-6.768.387-2.794.972-3.565 3.364-4.155" fill="#fee4c8"/><path d="m39.66 72.103c-1.294-.26-3.042-.285-3.503-2.343-.207-.924-.075-1.545 1.164-1.436.929.083 1.907.015 2.818-.189 1.487-.336 2.524-.161 2.635 1.63.095 1.494-1.034 2.437-3.114 2.338" fill="#fee4c8"/><g fill="#231f20"><path d="m47.739 55.559c1.396.111 3.263.033 4.718 1.434.277.266.654.607.231 1.006-.134.124-.587.131-.718.005-3.354-3.208-6.668-1.542-9.906.147-1.741.908-3.306 2.127-4.516 3.73-.246.326-.522.743-.974.386-.489-.387-.048-.693.2-.999 2.253-2.788 7.009-5.35 10.965-5.709"/><path d="m41.769 39.227c3.778.87 4.803-1.739 5.856-4.215.834-1.954 1.763-3.789 3.538-5.097 1.137-.838 2.392-.889 3.689-.804.598.038.871.566.665 1.023-.287.639-.583.005-.908-.119-1.892-.724-3.081.513-4.188 1.685-1.278 1.356-1.903 3.109-2.598 4.812-1.053 2.58-2.804 3.843-5.033 3.685-.29-.02-.566-.211-.85-.321-.058-.218-.114-.433-.171-.649"/><path d="m40.382 51.084c-1.404.655-2.836 1.116-3.814-.357-.873-1.319-1.563-2.85-.067-4.252 1.028-.965 2.127-1.935 3.856-.846-1.869.548-3.912.824-3.809 3.131.108 2.427 2.205 2.059 3.834 2.324"/><path d="m47.511 43.648c-.812-.237-.985-.902-.86-1.464.156-.708.563-1.435 1.454-1.448.714-.009.646.591.547 1.04-.163.754-.152 1.661-1.141 1.872"/><path d="m32.827 42.225c.084.847-.073 1.463-.863 1.455-.535-.006-.797-.518-.694-1.037.124-.616-.013-1.54.848-1.62.998-.093.462.913.709 1.202"/></g><path d="m68.211 15.342c-1.289-2.042-3.231-2.377-5.087-3.49.348-1.054 1.278-1.784 2.101-2.385-2.114-.178-4.135.754-6.128.983-.492-1.552-1.39-3.042-2.223-4.458.833 3.811-1.895 2.701-3.738 1.522-2.451-1.57-5.37-3.02-8.097-4.1-1.62-.642-3.867-1.642-5.659-1.558-.469.021-2.138.415-2.423.816-1.136 1.597.826 1.191.739 2.701-.133 2.265-3.326 1.89-5.845 1.886-4.183-.011-8.957-.195-12.967.881-.747.201-2.896.848-3.247 1.535-1.145 2.241 2.279 1.745 4.013 1.894 7.67.66 16.001.061 23.487 1.933-1.098 1.395-5.968 3.077-2.428 4.869 3.619 1.832 12.257-4.312 15.895-5.697-1.611 2.786-.85 3.888 2.404 2.5-.723 3.553 3.317 1.359 4.609.706 2.746-1.389 2.676-.406 5.362.511.067-.267-.017-.521.04-.78" fill="#fff" opacity=".3"/></svg>