<?xml version="1.0" encoding="UTF-8" standalone="no"?>
<!DOCTYPE svg PUBLIC "-//W3C//DTD SVG 1.1//EN" "http://www.w3.org/Graphics/SVG/1.1/DTD/svg11.dtd">
<svg width="100%" height="100%" viewBox="0 0 121 86" version="1.1" xmlns="http://www.w3.org/2000/svg" xmlns:xlink="http://www.w3.org/1999/xlink" xml:space="preserve" xmlns:serif="http://www.serif.com/" style="fill-rule:evenodd;clip-rule:evenodd;stroke-linejoin:round;stroke-miterlimit:2;">
    <g>
        <path d="M31.028,64.807C30.695,63.764 30.695,63.764 30.014,64.328C30.389,64.506 30.709,64.657 31.028,64.807M54.234,64.223C53.964,63.724 53.773,63.116 53.125,63.222C52.617,63.305 52.502,63.721 52.454,64.223L54.234,64.223ZM86.429,52.624C85.783,52.59 85.249,53.028 85.246,53.596C85.242,54.172 85.899,54.743 86.625,54.794C87.275,54.84 87.674,54.503 87.685,53.899C87.698,53.221 87.148,52.663 86.429,52.624M107.78,26.978C108.52,27.094 109.219,27.152 109.889,27.323C110.568,27.496 111.218,27.781 112.027,28.07C111.591,27.07 111.39,26.728 110.879,26.389C109.696,25.603 109.018,25.061 107.78,26.978M9.087,30.533C9.907,30.226 10.537,29.932 11.198,29.76C11.875,29.584 12.582,29.528 13.323,29.412C12.099,27.476 11.365,28.017 10.257,28.844C9.904,29.107 9.591,29.433 9.306,29.769C9.188,29.908 9.19,30.148 9.087,30.533M36.315,54.083C35.923,53.476 35.528,52.834 35.1,52.216C34.759,51.722 34.234,51.724 33.78,51.949C33.148,52.262 32.763,52.84 32.667,53.54C32.636,53.761 32.781,54.063 32.94,54.245C33.739,55.153 35.333,55.104 36.315,54.083M79.867,8.157C80.279,6.874 80.137,6.395 79.173,5.757C77.725,4.799 75.784,5.324 74.83,7.011C76.493,7.39 78.128,7.762 79.867,8.157M80.808,10.949C79.604,12.66 77.818,13.316 75.85,13.955C76.465,14.377 76.98,14.718 77.481,15.08C77.973,15.437 78.45,15.815 78.906,16.162C80.587,14.678 81.1,13.249 80.808,10.949M79.578,16.883C80.503,17.683 81.332,18.4 82.343,19.276C82.651,16.509 83.444,13.968 81.966,11.456C81.735,13.459 81.176,15.297 79.578,16.883M8.436,40.856C6.667,41.2 5.639,40.892 4.312,39.625C3.639,38.983 3.014,38.29 2.373,37.626C1.019,38.519 0.808,39.97 1.741,41.137C2.904,42.591 4.528,42.829 6.188,42.88C7.265,42.912 8.07,42.1 8.436,40.856M112.581,38.351C112.927,39.832 113.886,40.425 114.973,40.432C116.576,40.442 118.159,40.16 119.312,38.767C120.313,37.559 120.097,36.011 118.974,35.371C118.196,36.027 117.475,36.627 116.763,37.237C115.606,38.225 114.384,38.993 112.581,38.351M10.365,36.054C10.231,36.006 10.072,35.949 9.914,35.892C8.479,35.373 7.796,34.407 7.742,32.857C7.715,32.057 7.672,31.258 7.611,30.461C7.572,29.946 7.119,29.667 6.651,29.891C6.379,30.02 6.127,30.234 5.926,30.462C5.351,31.117 5.334,31.919 5.356,32.742C5.391,34.031 5.644,35.254 6.486,36.258C7.164,37.065 8.065,37.689 9.121,37.694C9.855,37.697 9.98,36.762 10.381,36.248C10.401,36.223 10.376,36.161 10.365,36.054M110.686,33.602C110.739,33.828 110.738,33.878 110.76,33.912C110.929,34.176 111.096,34.441 111.275,34.698C111.759,35.395 111.921,35.437 112.726,35.12C114.15,34.559 115.186,33.604 115.483,32.071C115.67,31.112 115.754,30.106 115.691,29.134C115.649,28.488 115.257,27.869 114.611,27.527C114.033,27.22 113.499,27.494 113.465,28.128C113.421,28.97 113.459,29.822 113.344,30.653C113.268,31.206 113.044,31.759 112.79,32.264C112.376,33.086 111.572,33.404 110.686,33.602M116.614,30.189C116.603,33.808 114.759,35.719 111.467,36.367C111.495,36.595 111.492,36.776 111.545,36.938C111.582,37.055 111.677,37.17 111.778,37.246C112.674,37.927 114.267,38.007 115.198,37.347C115.888,36.857 116.492,36.246 117.163,35.727C118.102,35 118.513,33.965 118.866,32.899C118.959,32.621 119.019,32.233 118.895,32C118.454,31.167 117.818,30.516 116.614,30.189M9.727,38.725C7.983,38.544 6.781,37.818 5.756,36.763C4.667,35.642 4.751,34.072 4.315,32.703C2.142,33.467 1.449,35.294 2.791,36.894C3.701,37.979 4.826,38.905 5.947,39.786C6.844,40.49 8.533,40.365 9.355,39.645C9.548,39.477 9.576,39.12 9.727,38.725M60.141,69.813C59.887,70.854 60.17,71.438 61.246,72.059C62.777,72.942 64.322,73.113 65.991,72.353C67.82,71.52 68.854,70.116 69.274,68.22C69.504,67.187 69.216,66.605 68.271,66.318C67.003,65.932 65.695,65.67 64.399,65.353C63.79,68.854 62.827,69.529 60.141,69.813M54.86,64.61C53.61,64.875 52.428,65.102 51.259,65.38C50.369,65.591 50.077,65.915 50.199,66.654C50.395,67.845 50.533,69.077 50.955,70.194C51.885,72.657 53.878,73.826 56.508,72.677C57.712,72.151 58.284,71.146 58.16,69.797C55.352,68.192 55.352,68.192 54.86,64.61M33.067,48.463C32.924,47.88 32.83,47.335 32.647,46.821C32.569,46.602 32.339,46.344 32.126,46.283C31.266,46.035 30.395,45.798 29.512,45.663C27.215,45.313 25.39,47.127 25.628,49.438C25.847,51.577 27.13,52.897 28.908,53.879C29.744,54.34 30.583,54.429 31.507,54.129C31.993,52.675 32.328,51.108 34.502,50.792C33.677,50.188 33.141,49.628 32.486,49.363C31.802,49.087 31.005,49.09 30.255,48.981C29.239,48.835 28.741,49.755 27.95,50.23C28.123,48.745 28.845,48.051 30.103,48.134C31.041,48.196 31.972,48.338 33.067,48.463M86.228,51.339C86.728,51.57 87.346,51.661 87.613,52.017C88.167,52.758 88.775,52.882 89.589,52.65C89.974,52.54 90.382,52.497 90.784,52.463C93.053,52.27 94.313,50.822 95.055,48.874C95.448,47.842 95.366,46.765 94.548,45.845C93.435,44.597 91.982,44.472 90.491,44.615C89.281,44.731 88.393,45.332 88.336,46.829C89.714,45.953 91.01,46.212 92.191,47.101C92.713,47.494 92.706,48.116 92.524,48.854C92.259,48.509 92.114,48.285 91.934,48.093C91.007,47.096 89.658,46.91 88.547,47.723C88.058,48.081 87.634,48.586 87.318,49.107C86.878,49.831 86.566,50.632 86.228,51.339M83.498,17.431C83.375,18.235 83.297,18.948 83.148,19.647C83.053,20.098 83.21,20.4 83.471,20.745C84.418,21.995 85.434,23.211 86.218,24.559C86.933,25.789 87.542,27.132 87.903,28.502C88.299,30.004 88.278,31.61 88.582,33.143C89.022,35.364 89.084,37.596 89.033,39.843C89.001,41.265 88.971,42.688 88.94,44.158C90.055,43.642 91.182,43.243 92.424,43.673C92.468,43.421 92.523,43.288 92.507,43.164C92.121,40.144 91.865,37.096 91.003,34.162C89.877,30.332 88.586,26.554 86.939,22.913C86.054,20.956 84.847,19.179 83.498,17.431M86.191,15.334C88.732,13.27 90.325,10.651 91.14,7.538C91.293,6.96 91.055,6.6 90.425,6.494C88.027,6.088 85.624,6.106 83.209,6.393C81.765,6.564 80.891,7.204 80.88,8.772C82.03,9.267 82.826,10.224 83.26,11.345C83.885,12.953 84.948,14.161 86.191,15.334M60.682,6.775L73.544,6.775C74.061,6.193 74.583,5.606 75.116,5.006C74.592,3.081 73.43,1.788 71.411,1.417C70.757,1.297 70.075,1.285 69.407,1.295C66.896,1.332 64.379,1.599 61.896,0.941C61.261,0.773 61.062,0.981 60.991,1.728C60.879,2.885 60.774,4.043 60.688,5.203C60.655,5.642 60.682,6.087 60.682,6.775M79.653,9.371C79.29,9.2 79.017,9.054 78.732,8.939C76.199,7.921 73.524,7.678 70.838,7.55C69.447,7.484 68.05,7.497 66.659,7.541C63.702,7.633 60.744,7.371 57.784,7.789C54.371,8.272 50.961,8.733 47.601,9.522C44.613,10.224 41.757,11.244 39.161,12.919C37.972,13.686 36.918,14.572 36.439,15.962C36.003,17.232 35.589,18.511 35.187,19.792C35.104,20.056 35.123,20.35 35.088,20.7C35.276,20.598 35.379,20.576 35.425,20.512C37.009,18.338 38.966,16.585 41.348,15.332C46.091,12.836 51.048,10.902 56.29,9.741C56.898,9.606 57.528,9.466 58.144,9.48C61.1,9.55 64.035,9.848 66.938,10.438C69.373,10.932 71.658,11.835 73.865,12.943C74.471,13.247 75.062,13.302 75.685,13.148C76.162,13.032 76.618,12.835 77.091,12.705C78.785,12.24 79.241,10.871 79.653,9.371M83.982,14.257C83.859,14.859 83.762,15.291 83.686,15.727C83.664,15.856 83.652,16.025 83.716,16.124C83.904,16.42 84.163,16.673 84.341,16.973C85.375,18.707 86.453,20.418 87.394,22.201C88.02,23.385 88.471,24.664 88.952,25.92C89.735,27.969 90.549,30.01 91.221,32.096C92.337,35.558 93.03,39.118 93.36,42.746C93.414,43.341 93.658,43.728 94.235,44.11C96.092,45.341 97.047,47.29 95.828,49.572C95.388,50.394 94.808,51.161 94.187,51.861C93.832,52.261 93.661,52.612 93.637,53.147C93.52,55.788 93.365,58.428 93.198,61.066C93.06,63.243 93.674,64.196 95.575,64.664C96.866,64.982 97.67,64.364 97.704,63.026C97.721,62.354 97.738,61.682 97.755,61.01C97.797,59.218 97.952,57.42 97.853,55.636C97.722,53.268 97.346,50.915 97.162,48.55C96.96,45.958 96.733,43.386 96.174,40.83C95.355,37.098 94.353,33.429 93.008,29.857C92.488,28.474 91.875,27.119 91.227,25.789C90.287,23.857 89.256,21.969 88.301,20.044C87.236,17.893 85.792,16.043 83.982,14.257M66.089,63.81C66.321,64.71 66.96,64.893 67.486,64.953C69.493,65.184 71.528,65.457 73.123,63.687C73.648,63.104 74.132,63.193 74.536,63.882C74.817,64.363 75.094,64.762 75.628,65.004C76.917,65.587 78.085,65.372 79.166,64.545C79.657,64.169 80.094,63.723 80.537,63.326C80.675,63.394 80.794,63.412 80.829,63.476C81.22,64.185 81.789,64.692 82.604,64.757C83.399,64.82 84.237,64.9 84.994,64.717C85.874,64.504 86.661,63.998 86.617,62.861C86.611,62.72 86.746,62.574 86.802,62.457C86.943,62.478 87.003,62.469 87.024,62.494C87.169,62.66 87.318,62.825 87.443,63.005C88.531,64.573 88.529,64.574 90.368,64.273C91.406,64.103 92.209,63.346 92.3,62.31C92.492,60.128 92.633,57.942 92.783,55.756C92.819,55.219 92.821,54.678 92.81,54.139C92.801,53.692 92.758,53.244 92.308,52.959C91.427,53.122 90.545,53.262 89.674,53.456C89.237,53.554 88.831,53.719 88.765,54.298C88.659,55.241 87.925,55.491 87.138,55.616C85.87,55.818 84.876,55.339 84.084,54.118C81.815,57.004 78.927,58.914 75.928,60.62C72.917,62.333 69.523,63.061 66.089,63.81M4.774,43.522C5.341,44.62 6.185,45.05 7.134,45.055C8.605,45.061 10.084,44.938 11.546,44.756C11.982,44.702 12.38,44.277 12.775,43.995C12.913,43.897 12.964,43.648 13.104,43.59C13.289,43.514 13.577,43.478 13.719,43.575C13.845,43.66 13.879,43.953 13.868,44.149C13.859,44.315 13.752,44.491 13.65,44.636C13.282,45.161 13.515,45.558 13.894,45.94C14.744,46.798 15.581,47.668 16.439,48.518C18.219,50.279 20.21,51.829 21.753,53.83C21.896,54.017 22.153,54.117 22.513,54.364C22.632,51.811 22.77,49.45 22.819,47.086C22.827,46.71 22.506,46.255 22.213,45.957C21.522,45.255 20.772,44.609 20.02,43.972C18.946,43.061 18.09,41.986 17.439,40.741C17.243,40.366 17.109,39.984 17.396,39.604C18.401,38.277 18.509,36.711 18.632,35.138C18.77,33.384 18.134,32.261 16.609,31.38C15.226,30.581 13.766,30.407 12.207,30.458C11.146,30.492 10.299,30.95 9.483,31.491C8.731,31.988 8.448,32.897 8.678,33.617C8.957,34.49 9.765,35.114 10.703,35.11C11.099,35.109 11.496,34.943 11.892,34.946C12.116,34.947 12.443,35.087 12.53,35.262C12.621,35.442 12.504,35.749 12.422,35.981C12.386,36.082 12.221,36.159 12.099,36.203C11.217,36.526 10.922,37.293 10.777,38.093C10.66,38.743 10.649,39.431 10.713,40.09C10.808,41.087 11.401,41.597 12.28,41.575C13.182,41.552 13.85,40.925 13.972,39.998C14.009,39.717 14.074,39.44 14.138,39.097C14.92,39.316 14.868,39.85 14.786,40.311C14.569,41.54 13.619,42.099 12.566,42.422C11.249,42.828 10.462,41.935 9.752,40.975C8.933,43.407 7.097,43.843 4.774,43.522M107.027,36.594C107.089,37.16 107.094,37.559 107.18,37.939C107.33,38.596 108.061,39.115 108.802,39.143C109.48,39.169 110.11,38.815 110.291,38.212C110.567,37.291 110.521,36.356 110.277,35.427C110.074,34.653 109.73,34.002 108.907,33.73C108.826,33.703 108.716,33.642 108.697,33.575C108.625,33.335 108.482,33.039 108.565,32.853C108.645,32.674 108.966,32.522 109.191,32.509C109.493,32.491 109.8,32.649 110.111,32.674C111.206,32.761 112.096,32.186 112.423,31.211C112.707,30.359 112.243,29.485 111.316,28.846C109.993,27.933 108.526,27.935 107.041,28.08C105.51,28.229 104.199,28.899 103.185,30.055C102.876,30.407 102.618,30.9 102.558,31.358C102.308,33.258 102.498,35.117 103.505,36.798C103.806,37.301 103.87,37.712 103.724,38.3C103.447,39.425 102.754,40.182 101.921,40.895C100.694,41.945 99.502,43.034 98.296,44.107C97.825,44.525 97.648,45.025 97.719,45.669C97.838,46.739 97.859,47.819 97.965,48.891C98.068,49.937 98.225,50.977 98.397,52.317C99.05,51.653 99.51,51.19 99.965,50.722C100.898,49.759 101.81,48.776 102.762,47.833C104.259,46.351 105.785,44.898 107.292,43.428C107.648,43.08 107.787,42.692 107.47,42.225C107.346,42.042 107.24,41.825 107.208,41.611C107.185,41.463 107.257,41.236 107.369,41.151C107.486,41.061 107.735,41.03 107.863,41.097C108.046,41.191 108.149,41.425 108.322,41.55C108.716,41.835 109.11,42.271 109.544,42.324C111.05,42.505 112.576,42.639 114.091,42.613C114.977,42.598 115.799,42.158 116.243,41.305C115.199,41.144 114.168,41.122 113.237,40.805C112.238,40.464 111.662,39.569 111.331,38.558C111.092,38.854 110.898,39.163 110.639,39.403C109.412,40.538 106.933,39.903 106.409,38.302C106.289,37.937 106.308,37.499 106.376,37.114C106.405,36.947 106.718,36.829 107.027,36.594M36.923,55.28C36.105,55.922 34.908,56.137 33.651,55.62C32.672,55.218 31.699,55.093 30.655,55.314C30.329,55.383 29.946,55.257 29.604,55.162C26.303,54.254 24.273,51.153 24.738,47.782C24.85,46.97 25.241,46.375 25.894,45.898C27.419,44.788 29.082,44.542 30.872,45.049C31.331,45.179 31.773,45.378 32.319,45.199C32.036,43.9 31.759,42.68 31.507,41.453C30.902,38.529 30.907,35.564 30.983,32.601C31.014,31.406 31.024,30.162 31.357,29.034C31.874,27.288 32.672,25.626 33.326,23.92C33.549,23.339 33.794,22.741 33.863,22.132C34.023,20.734 34.437,19.431 34.992,18.145C35.393,17.214 35.667,16.226 36.048,15.116C35.587,15.182 35.252,15.15 35.006,15.282C34.298,15.661 33.548,16.019 32.955,16.544C31.142,18.148 29.879,20.198 28.929,22.373C27.208,26.32 25.644,30.343 24.883,34.612C24.303,37.872 23.671,41.127 23.662,44.467C23.656,46.936 23.526,49.404 23.459,51.873C23.417,53.399 23.524,54.945 23.32,56.449C23.073,58.281 23.451,60.022 23.758,61.776C23.902,62.599 24.22,63.516 25.038,63.906C26.344,64.528 28.812,64.654 30.053,62.898C30.246,62.626 30.516,62.408 30.767,62.148C31.425,62.862 31.959,63.506 32.56,64.078C33.648,65.115 34.865,65.227 36.213,64.563C37.224,64.064 38.066,63.384 38.722,62.343C38.965,62.66 39.207,62.845 39.262,63.074C39.469,63.923 40.121,64.257 40.844,64.313C41.633,64.374 42.456,64.294 43.235,64.137C43.942,63.995 44.575,63.646 44.829,62.848C44.912,62.585 45.17,62.377 45.36,62.127C46.996,64.067 46.996,64.073 48.65,64.037C50.091,64.006 51.439,63.775 52.183,62.224C51,61.685 49.828,61.213 48.542,61.044C48.019,60.975 47.503,60.807 47.001,60.636C45.474,60.111 43.966,59.528 42.429,59.035C41.072,58.6 39.919,57.883 38.896,56.899C38.317,56.341 37.652,55.872 36.923,55.28M45.694,83.624C47.079,84.083 48.41,83.893 49.738,83.822C50.223,83.796 50.713,83.809 51.198,83.835C51.689,83.86 52.178,83.973 52.668,83.962C55.81,83.894 58.958,83.64 62.092,83.76C66.153,83.914 70.145,83.203 74.179,83.121C74.253,83.119 74.325,83.029 74.431,82.956C74.399,82.709 74.384,82.44 74.325,82.182C73.765,79.736 73.189,77.295 72.64,74.848C72.534,74.37 72.404,73.852 72.821,73.159C73.248,74.448 73.598,75.506 73.966,76.617C78.434,72.631 83.052,69.103 88.035,65.893C87.672,65.383 87.395,64.995 87.126,64.617C85.133,65.794 83.186,66.07 81.128,65.09C80.854,64.959 80.442,64.993 80.136,65.087C79.67,65.232 79.237,65.489 78.796,65.711C77.474,66.376 76.171,66.218 74.913,65.573C74.451,65.336 74.071,64.942 73.675,64.637C72.528,65.118 71.42,65.582 70.344,66.034C70.344,66.559 70.461,67.087 70.322,67.536C69.937,68.777 69.466,69.993 68.984,71.201C68.877,71.47 68.632,71.744 68.378,71.884C67.437,72.401 66.484,72.901 65.504,73.335C63.488,74.226 61.748,73.612 60.164,72.267C59.808,71.965 59.437,71.681 59.024,71.349C58.174,73.265 56.579,73.775 54.821,73.975C53.964,74.073 52.999,74.102 52.349,73.555C51.406,72.761 50.426,71.91 50.154,70.575C49.983,69.742 49.767,68.918 49.575,68.089C49.333,67.05 49.094,66.01 48.845,64.931C47.529,65.053 46.451,64.692 45.493,64.023C44.955,64.285 44.488,64.573 43.982,64.745C42.499,65.25 40.935,65.423 39.534,64.701C38.65,64.245 38.064,64.373 37.334,64.834C35.629,65.91 33.858,66.272 31.987,65.082C31.696,65.314 31.433,65.523 31.112,65.778C31.308,66.021 31.411,66.242 31.583,66.348C36.384,69.302 41.292,72.097 45.651,75.977C45.917,74.932 46.126,74.108 46.335,73.286C46.609,73.573 46.676,73.823 46.647,74.061C46.444,75.706 46.208,77.348 46.007,78.994C45.825,80.495 45.366,81.979 45.694,83.624M88.323,39.19C88.431,35.927 87.831,32.746 87.322,29.556C87.07,27.974 86.442,26.569 85.624,25.202C84.651,23.578 83.603,22.033 82.341,20.615C80.176,18.182 77.755,16.07 74.919,14.463C73.987,13.935 72.989,13.525 72.022,13.06C68.063,11.156 63.86,10.446 59.503,10.539C58.383,10.563 57.258,10.649 56.153,10.817C54.65,11.046 53.132,11.271 51.679,11.699C49.965,12.205 48.293,12.877 46.64,13.566C44.237,14.567 41.856,15.639 39.765,17.222C36.041,20.042 33.869,23.924 32.417,28.257C31.916,29.751 31.769,31.309 31.775,32.9C31.786,35.688 31.851,38.469 32.365,41.212C32.653,42.751 33.084,44.263 33.43,45.79C33.811,47.465 34.361,49.08 35.277,50.535C35.845,51.437 36.638,52.203 37.174,53.122C37.905,54.379 38.78,55.503 39.855,56.457C40.937,57.418 42.15,58.154 43.636,58.394C44.288,58.499 44.895,58.858 45.532,59.075C47.094,59.608 48.589,60.304 50.267,60.526C52.701,60.847 56.526,63.108 56.333,66.402C56.32,66.619 56.351,66.886 56.469,67.053C56.747,67.442 57.021,67.905 57.416,68.125C58.894,68.951 60.444,68.81 61.942,68.171C62.54,67.916 62.911,67.395 62.855,66.658C62.811,66.077 62.826,65.492 62.818,64.908C62.802,63.678 63.101,63.411 64.331,63.123C66.99,62.5 69.637,61.824 72.278,61.124C73.011,60.93 73.738,60.644 74.404,60.284C75.821,59.515 77.216,58.701 78.582,57.844C79.375,57.347 80.119,56.76 80.836,56.156C81.348,55.723 81.757,55.169 82.252,54.713C83.719,53.365 84.958,51.838 85.861,50.063C86.757,48.304 87.695,46.533 87.953,44.553C88.184,42.78 88.208,40.979 88.323,39.19M119.314,34.309C119.543,34.519 119.69,34.627 119.804,34.763C121.322,36.577 121.285,38.089 119.6,39.746C118.619,40.712 117.561,41.602 116.518,42.505C115.743,43.177 114.83,43.527 113.794,43.474C112.632,43.416 111.468,43.347 110.309,43.245C109.283,43.156 108.477,43.313 107.684,44.173C105.89,46.116 103.872,47.85 102.042,49.761C100.866,50.988 99.856,52.374 98.785,53.699C98.341,54.248 98.455,54.915 98.558,55.521C98.871,57.358 98.741,59.19 98.636,61.03C98.596,61.736 98.732,62.45 98.74,63.16C98.757,64.712 97.9,65.596 96.364,65.639C95.393,65.666 94.493,65.429 93.696,64.861C93.334,64.602 92.988,64.322 92.716,64.114C91.853,64.511 91.053,64.877 90.255,65.245C90.054,65.337 89.697,65.418 89.684,65.535C89.574,66.544 88.662,66.518 88.05,66.908C86.5,67.899 84.96,68.915 83.482,70.01C81.499,71.479 79.543,72.989 77.644,74.565C76.542,75.48 75.579,76.561 74.546,77.561C74.085,78.008 74.136,78.525 74.313,79.059C74.761,80.42 75.227,81.774 75.668,83.137C75.76,83.423 75.778,83.734 75.858,84.201C75.103,84.226 74.438,84.328 73.795,84.254C71.799,84.027 69.864,84.501 67.901,84.644C66.697,84.731 65.483,84.676 64.274,84.675C63.741,84.675 63.203,84.596 62.675,84.644C58.779,85.002 54.886,85.2 50.978,84.777C49.962,84.667 48.922,84.807 47.894,84.77C46.826,84.732 45.76,84.62 44.509,84.527C44.735,83.002 44.882,81.597 45.162,80.218C45.533,78.39 45.148,76.92 43.657,75.68C40.678,73.2 37.496,71.031 34.153,69.082C32.911,68.358 31.705,67.573 30.485,66.81C30.049,66.538 29.74,66.245 29.817,65.618C29.855,65.308 29.516,64.952 29.319,64.559C28.111,65.309 26.945,65.318 25.711,65.074C23.932,64.722 22.964,63.563 22.868,61.741C22.781,60.091 22.574,58.445 22.361,56.805C22.305,56.383 22.085,55.952 21.841,55.591C20.353,53.376 18.49,51.496 16.536,49.695C15.451,48.694 14.326,47.713 13.393,46.579C12.637,45.66 11.781,45.596 10.758,45.682C9.509,45.786 8.255,45.887 7.004,45.879C6.443,45.876 5.807,45.73 5.338,45.437C3.739,44.441 2.368,43.14 1.135,41.735C-0.115,40.308 -0.093,39.331 0.94,37.705C1.153,37.37 1.438,37.079 1.741,36.704C1.633,36.438 1.46,36.121 1.373,35.782C1.165,34.97 1.136,34.188 1.841,33.548C2.565,32.891 3.09,32.017 4.07,31.636C4.306,31.544 4.445,31.189 4.616,30.946C4.947,30.473 5.211,29.935 5.608,29.528C6.399,28.718 7.378,28.802 8.167,29.111C9.103,28.474 9.927,27.952 10.709,27.37C11.362,26.885 11.983,26.959 12.567,27.404C13.096,27.806 13.608,28.249 14.046,28.746C14.589,29.365 15.191,29.822 15.949,30.182C16.907,30.638 17.871,31.195 18.636,31.915C19.791,33.002 19.803,34.505 19.541,35.956C19.318,37.184 18.968,38.392 18.636,39.598C18.333,40.698 18.902,41.504 19.469,42.323C19.519,42.395 19.592,42.453 19.66,42.513C20.662,43.398 21.664,44.283 22.766,45.255C22.807,45.012 22.865,44.858 22.853,44.709C22.685,42.531 23.261,40.426 23.511,38.292C23.809,35.758 24.274,33.242 25.034,30.794C26.299,26.72 27.547,22.633 29.866,18.997C30.757,17.6 31.658,16.181 33.113,15.263C33.529,15 33.935,14.64 34.393,14.54C36.005,14.187 37.296,13.262 38.652,12.411C41.34,10.725 44.326,9.748 47.367,8.918C50.399,8.09 53.479,7.563 56.604,7.246C57.661,7.139 58.704,6.901 59.815,6.712C59.921,4.858 60.041,3.119 60.11,1.378C60.15,0.379 60.368,0.058 61.352,0.041C61.973,0.03 62.611,0.099 63.217,0.236C65.132,0.667 67.052,0.573 68.985,0.449C70.461,0.354 71.924,0.416 73.33,1.017C74.102,1.348 74.71,1.812 75.185,2.494C75.466,2.894 75.816,3.244 76.123,3.627C76.476,4.07 76.898,4.252 77.489,4.331C78.219,4.429 79.006,4.667 79.6,5.082C80.377,5.624 81.155,5.79 82.012,5.597C84.377,5.064 86.737,5.377 89.097,5.567C89.989,5.639 90.88,5.759 91.762,5.905C92.544,6.034 92.761,6.569 92.396,7.284C92.01,8.039 91.557,8.774 91.289,9.57C90.537,11.799 89.032,13.529 87.623,15.328C87.484,15.504 87.322,15.661 87.188,15.841C87.109,15.947 87.065,16.079 86.934,16.345C92.515,24.459 96.031,33.488 97.566,43.391C97.757,43.305 97.971,43.263 98.111,43.137C99.277,42.085 100.489,41.075 101.568,39.938C102.435,39.023 102.768,37.966 102.3,36.6C101.829,35.222 101.617,33.725 101.495,32.264C101.356,30.598 102.165,29.328 103.629,28.499C103.902,28.344 104.166,28.162 104.457,28.049C105.647,27.584 106.672,26.953 107.424,25.85C107.755,25.366 108.401,25.08 108.937,24.759C109.347,24.513 109.793,24.543 110.21,24.824C111.053,25.393 111.905,25.951 112.665,26.677C112.796,26.682 112.935,26.721 113.055,26.689C114.593,26.291 115.714,26.748 116.329,28.196C116.596,28.827 117.012,29.139 117.53,29.522C118.343,30.125 119.102,30.871 119.675,31.701C119.945,32.09 119.769,32.821 119.713,33.388C119.683,33.682 119.473,33.957 119.314,34.309" style="fill:rgb(35,31,32);fill-rule:nonzero;"/>
        <path d="M44.205,18.823C45.057,18.047 45.949,17.371 47.115,17.285C48.197,17.206 49.284,17.211 50.497,17.175C48.607,15.458 44.707,16.499 44.205,18.823M74.436,17.539C74.326,16.422 73.418,16.058 72.554,15.713C70.687,14.967 68.798,15.209 66.923,15.716C66.609,15.801 66.282,16.022 66.475,16.384C66.591,16.602 66.942,16.814 67.188,16.815C67.527,16.816 67.869,16.623 68.204,16.497C68.977,16.206 69.786,16.065 70.578,16.29C71.858,16.653 73.113,17.106 74.436,17.539M61.075,18.713C62.401,18.6 62.889,17.718 63.08,16.678C63.278,15.597 63.074,14.521 62.583,13.536C62.215,12.796 61.642,12.156 60.839,11.943C59.51,11.59 58.219,11.619 57.041,12.569C54.943,14.262 55.259,16.325 56.516,17.994C56.592,18.094 56.73,18.173 56.854,18.204C56.968,18.234 57.155,18.231 57.213,18.161C57.314,18.04 57.434,17.811 57.382,17.708C57.226,17.391 56.964,17.128 56.794,16.816C56.254,15.823 56.341,14.688 57.182,13.841C57.935,13.081 58.772,12.429 60.034,12.846C62.077,13.52 62.95,16.057 61.684,17.838C61.477,18.127 61.277,18.421 61.075,18.713M37.177,28.756C37.296,28.764 37.414,28.773 37.532,28.781C37.589,29.344 37.664,29.907 37.694,30.471C37.713,30.821 37.65,31.173 37.644,31.524C37.605,33.831 38.127,36.072 38.643,38.286C39.335,41.252 40.171,44.205 41.855,46.805C42.531,47.849 43.055,49.09 44.177,49.722C45.377,50.398 46.658,50.994 47.976,51.384C49.774,51.916 51.629,52.285 53.481,52.6C54.713,52.809 55.989,52.939 57.231,52.863C60.045,52.691 62.852,52.389 65.658,52.1C67.931,51.866 70.214,51.675 72.461,51.283C75.935,50.678 78.388,48.633 79.888,45.469C80.187,44.837 80.327,44.105 80.421,43.403C80.603,42.028 80.702,40.642 80.835,39.26C81.053,36.986 81.286,34.714 81.481,32.438C81.603,31.01 81.656,29.576 81.768,28.147C81.791,27.868 81.944,27.6 82.049,27.292C82.487,27.607 82.828,27.851 83.389,28.252C83.389,27.729 83.505,27.345 83.367,27.197C82.889,26.682 82.383,26.135 81.776,25.806C80.509,25.12 78.75,25.662 78.048,26.919C78.821,26.744 79.531,26.583 80.162,26.44C80.91,27.251 80.721,27.947 80.265,28.635C79.943,29.12 79.642,29.625 79.271,30.071C78.285,31.259 77.115,32.31 75.69,32.844C74.153,33.42 72.505,33.741 70.879,34.023C69.559,34.252 68.202,34.28 66.86,34.359C64.629,34.49 62.396,34.638 60.162,34.691C58.639,34.727 57.109,34.552 55.585,34.578C52.931,34.623 50.303,34.364 47.681,34.014C46.661,33.879 45.66,33.553 44.641,33.493C42.682,33.378 40.985,32.695 39.479,31.471C38.614,30.768 38.114,28.773 38.544,27.761C38.743,27.29 40.336,26.532 41.482,26.839C41.656,26.885 41.828,26.971 42.002,26.972C42.184,26.972 42.368,26.892 42.632,26.827C41.725,26.012 40.117,25.933 38.937,26.552C36.581,27.786 35.181,29.712 35.418,31.473C36.022,30.539 36.6,29.647 37.177,28.756M88.323,39.191C88.208,40.979 88.184,42.78 87.953,44.553C87.695,46.533 86.758,48.304 85.861,50.063C84.958,51.838 83.72,53.365 82.252,54.714C81.757,55.169 81.349,55.723 80.836,56.156C80.119,56.761 79.375,57.347 78.582,57.844C77.217,58.701 75.821,59.515 74.404,60.284C73.738,60.645 73.012,60.93 72.278,61.124C69.638,61.824 66.99,62.501 64.331,63.124C63.101,63.412 62.803,63.678 62.818,64.908C62.826,65.492 62.811,66.077 62.855,66.658C62.911,67.395 62.54,67.916 61.942,68.172C60.444,68.811 58.894,68.951 57.416,68.126C57.021,67.906 56.747,67.443 56.47,67.053C56.351,66.886 56.32,66.619 56.333,66.403C56.526,63.108 52.701,60.847 50.267,60.526C48.589,60.304 47.095,59.608 45.532,59.075C44.895,58.858 44.288,58.5 43.637,58.394C42.15,58.154 40.937,57.419 39.855,56.458C38.78,55.504 37.905,54.38 37.174,53.122C36.639,52.203 35.846,51.438 35.277,50.535C34.361,49.081 33.811,47.466 33.431,45.791C33.084,44.263 32.653,42.751 32.365,41.213C31.851,38.469 31.786,35.688 31.775,32.901C31.769,31.31 31.916,29.751 32.417,28.258C33.869,23.925 36.041,20.042 39.766,17.222C41.856,15.639 44.237,14.568 46.641,13.566C48.293,12.877 49.965,12.205 51.68,11.699C53.132,11.271 54.65,11.046 56.153,10.818C57.259,10.65 58.384,10.564 59.503,10.54C63.86,10.447 68.063,11.156 72.022,13.061C72.989,13.526 73.987,13.935 74.919,14.463C77.755,16.071 80.177,18.182 82.342,20.615C83.603,22.033 84.651,23.579 85.624,25.202C86.442,26.569 87.07,27.974 87.322,29.556C87.831,32.747 88.432,35.927 88.323,39.191" style="fill:rgb(253,207,180);fill-rule:nonzero;"/>
        <path d="M45.694,83.624C45.366,81.979 45.825,80.495 46.007,78.994C46.208,77.348 46.444,75.707 46.647,74.061C46.676,73.823 46.609,73.573 46.335,73.286C46.126,74.108 45.917,74.932 45.651,75.977C41.292,72.097 36.384,69.302 31.583,66.348C31.411,66.242 31.308,66.021 31.112,65.778C31.433,65.523 31.696,65.314 31.987,65.082C33.858,66.272 35.629,65.91 37.334,64.834C38.064,64.373 38.65,64.246 39.534,64.701C40.935,65.423 42.499,65.25 43.982,64.746C44.488,64.573 44.955,64.285 45.493,64.023C46.451,64.692 47.529,65.053 48.845,64.931C49.094,66.01 49.333,67.05 49.575,68.089C49.767,68.918 49.983,69.742 50.154,70.575C50.426,71.91 51.406,72.761 52.349,73.555C52.999,74.102 53.964,74.073 54.821,73.975C56.579,73.775 58.174,73.265 59.024,71.349C59.437,71.681 59.808,71.965 60.164,72.268C61.748,73.612 63.488,74.226 65.504,73.335C66.484,72.901 67.437,72.401 68.378,71.884C68.632,71.745 68.877,71.47 68.984,71.201C69.465,69.993 69.937,68.777 70.322,67.536C70.461,67.087 70.344,66.56 70.344,66.034C71.42,65.582 72.528,65.118 73.675,64.637C74.071,64.942 74.451,65.336 74.913,65.573C76.171,66.218 77.474,66.376 78.796,65.711C79.237,65.489 79.67,65.232 80.136,65.087C80.442,64.993 80.854,64.959 81.128,65.09C83.186,66.07 85.133,65.794 87.126,64.617C87.395,64.996 87.672,65.383 88.035,65.893C83.052,69.103 78.434,72.631 73.966,76.617C73.598,75.506 73.248,74.448 72.821,73.159C72.404,73.853 72.534,74.37 72.64,74.848C73.189,77.295 73.765,79.736 74.325,82.182C74.384,82.44 74.399,82.709 74.431,82.956C74.325,83.029 74.253,83.12 74.179,83.121C70.145,83.204 66.153,83.914 62.092,83.76C58.958,83.641 55.81,83.894 52.668,83.962C52.178,83.973 51.689,83.86 51.198,83.835C50.713,83.81 50.223,83.796 49.738,83.822C48.41,83.894 47.079,84.083 45.694,83.624" style="fill:rgb(0,180,158);fill-rule:nonzero;"/>
        <path d="M36.923,55.28C37.652,55.873 38.318,56.342 38.897,56.899C39.919,57.883 41.072,58.6 42.43,59.035C43.967,59.528 45.475,60.112 47.001,60.636C47.503,60.808 48.02,60.976 48.542,61.045C49.828,61.214 51,61.686 52.184,62.224C51.44,63.775 50.092,64.007 48.651,64.037C46.996,64.073 46.996,64.068 45.361,62.127C45.17,62.377 44.912,62.585 44.829,62.848C44.575,63.647 43.943,63.996 43.235,64.137C42.456,64.294 41.634,64.375 40.845,64.313C40.121,64.257 39.47,63.923 39.263,63.074C39.207,62.845 38.965,62.66 38.723,62.343C38.067,63.384 37.225,64.065 36.213,64.564C34.865,65.228 33.649,65.115 32.561,64.079C31.959,63.506 31.426,62.863 30.768,62.148C30.517,62.408 30.246,62.626 30.054,62.899C28.813,64.654 26.345,64.529 25.038,63.906C24.221,63.517 23.902,62.599 23.759,61.776C23.451,60.023 23.073,58.281 23.32,56.449C23.525,54.945 23.417,53.4 23.459,51.873C23.527,49.405 23.656,46.936 23.662,44.467C23.671,41.128 24.304,37.873 24.884,34.612C25.645,30.343 27.208,26.32 28.93,22.374C29.879,20.198 31.143,18.149 32.955,16.545C33.548,16.019 34.298,15.662 35.006,15.282C35.252,15.15 35.587,15.183 36.048,15.116C35.667,16.227 35.394,17.214 34.992,18.146C34.438,19.431 34.024,20.734 33.863,22.133C33.794,22.741 33.549,23.34 33.326,23.92C32.672,25.627 31.874,27.288 31.358,29.034C31.025,30.163 31.015,31.406 30.984,32.602C30.907,35.565 30.902,38.53 31.507,41.454C31.76,42.68 32.036,43.901 32.319,45.199C31.774,45.379 31.331,45.179 30.872,45.05C29.082,44.542 27.419,44.788 25.895,45.899C25.241,46.375 24.851,46.97 24.738,47.782C24.274,51.153 26.304,54.254 29.605,55.163C29.946,55.257 30.329,55.383 30.655,55.314C31.699,55.093 32.672,55.218 33.652,55.62C34.908,56.137 36.106,55.923 36.923,55.28" style="fill:rgb(149,110,32);fill-rule:nonzero;"/>
        <path d="M107.027,36.594C106.718,36.829 106.405,36.947 106.376,37.115C106.308,37.499 106.289,37.938 106.409,38.302C106.933,39.904 109.412,40.538 110.639,39.403C110.898,39.163 111.092,38.854 111.331,38.559C111.662,39.57 112.238,40.464 113.237,40.805C114.168,41.122 115.199,41.144 116.243,41.305C115.799,42.158 114.977,42.598 114.091,42.613C112.576,42.639 111.05,42.506 109.544,42.324C109.11,42.272 108.716,41.835 108.322,41.55C108.149,41.425 108.046,41.191 107.863,41.097C107.735,41.031 107.486,41.062 107.369,41.152C107.257,41.237 107.185,41.464 107.208,41.611C107.24,41.825 107.346,42.042 107.47,42.225C107.787,42.692 107.648,43.081 107.292,43.428C105.785,44.899 104.259,46.352 102.762,47.834C101.81,48.777 100.898,49.76 99.965,50.722C99.51,51.191 99.05,51.654 98.397,52.318C98.225,50.977 98.068,49.937 97.964,48.891C97.859,47.82 97.838,46.74 97.719,45.67C97.648,45.026 97.825,44.526 98.296,44.108C99.502,43.034 100.694,41.945 101.921,40.896C102.754,40.182 103.447,39.426 103.724,38.301C103.87,37.713 103.806,37.302 103.505,36.799C102.498,35.117 102.308,33.259 102.558,31.358C102.618,30.901 102.876,30.407 103.185,30.055C104.199,28.9 105.51,28.23 107.041,28.08C108.526,27.935 109.993,27.933 111.316,28.846C112.243,29.485 112.707,30.36 112.423,31.211C112.096,32.187 111.206,32.761 110.111,32.675C109.8,32.65 109.493,32.491 109.191,32.509C108.966,32.523 108.645,32.675 108.565,32.853C108.482,33.039 108.625,33.335 108.697,33.575C108.716,33.643 108.826,33.704 108.907,33.731C109.73,34.003 110.074,34.654 110.277,35.427C110.521,36.356 110.567,37.292 110.291,38.213C110.11,38.815 109.48,39.17 108.802,39.143C108.061,39.115 107.33,38.596 107.18,37.94C107.094,37.559 107.089,37.16 107.027,36.594" style="fill:rgb(253,207,180);fill-rule:nonzero;"/>
        <path d="M4.774,43.523C7.097,43.843 8.933,43.407 9.752,40.976C10.461,41.936 11.249,42.828 12.566,42.423C13.619,42.099 14.569,41.541 14.786,40.312C14.868,39.851 14.92,39.317 14.138,39.097C14.074,39.441 14.009,39.718 13.972,39.999C13.85,40.925 13.182,41.552 12.28,41.575C11.401,41.597 10.808,41.088 10.712,40.091C10.649,39.431 10.66,38.743 10.777,38.093C10.921,37.294 11.217,36.526 12.099,36.204C12.221,36.159 12.386,36.083 12.421,35.982C12.503,35.75 12.621,35.443 12.53,35.262C12.443,35.088 12.116,34.948 11.892,34.946C11.496,34.943 11.099,35.109 10.703,35.111C9.765,35.114 8.957,34.491 8.678,33.617C8.448,32.898 8.731,31.989 9.483,31.491C10.299,30.951 11.146,30.493 12.207,30.459C13.766,30.408 15.226,30.582 16.609,31.38C18.134,32.261 18.77,33.385 18.632,35.139C18.509,36.711 18.401,38.278 17.396,39.605C17.109,39.984 17.243,40.366 17.439,40.742C18.09,41.986 18.946,43.062 20.02,43.972C20.772,44.61 21.522,45.256 22.212,45.958C22.505,46.256 22.827,46.711 22.819,47.087C22.77,49.45 22.631,51.812 22.513,54.364C22.153,54.117 21.896,54.018 21.753,53.831C20.21,51.83 18.219,50.28 16.439,48.519C15.581,47.669 14.744,46.798 13.894,45.941C13.515,45.559 13.282,45.162 13.65,44.636C13.752,44.491 13.859,44.316 13.868,44.15C13.878,43.953 13.845,43.661 13.719,43.576C13.577,43.479 13.289,43.514 13.104,43.59C12.963,43.648 12.913,43.898 12.775,43.996C12.379,44.278 11.982,44.702 11.545,44.756C10.084,44.939 8.605,45.062 7.134,45.055C6.185,45.051 5.341,44.621 4.774,43.523" style="fill:rgb(253,207,180);fill-rule:nonzero;"/>
        <path d="M66.089,63.81C69.524,63.061 72.917,62.333 75.929,60.62C78.928,58.914 81.816,57.004 84.084,54.118C84.876,55.339 85.87,55.818 87.139,55.616C87.926,55.491 88.659,55.241 88.766,54.298C88.831,53.719 89.237,53.554 89.674,53.456C90.545,53.262 91.428,53.122 92.309,52.959C92.759,53.244 92.802,53.692 92.811,54.139C92.821,54.678 92.819,55.219 92.783,55.756C92.634,57.942 92.492,60.128 92.301,62.31C92.209,63.346 91.406,64.103 90.368,64.273C88.529,64.574 88.531,64.573 87.443,63.005C87.318,62.825 87.169,62.66 87.025,62.494C87.003,62.469 86.943,62.478 86.803,62.457C86.746,62.574 86.611,62.72 86.617,62.861C86.661,63.998 85.874,64.504 84.994,64.717C84.237,64.9 83.4,64.82 82.605,64.757C81.789,64.692 81.221,64.185 80.829,63.476C80.794,63.413 80.676,63.394 80.537,63.326C80.095,63.723 79.657,64.169 79.166,64.545C78.085,65.372 76.917,65.587 75.628,65.004C75.095,64.762 74.818,64.363 74.536,63.882C74.133,63.193 73.649,63.104 73.123,63.687C71.528,65.457 69.493,65.184 67.486,64.954C66.96,64.893 66.321,64.71 66.089,63.81" style="fill:rgb(149,110,32);fill-rule:nonzero;"/>
        <path d="M83.982,14.257C85.792,16.043 87.236,17.893 88.301,20.044C89.255,21.969 90.287,23.857 91.227,25.789C91.875,27.119 92.488,28.473 93.008,29.857C94.353,33.429 95.355,37.097 96.173,40.83C96.733,43.386 96.96,45.958 97.162,48.549C97.346,50.915 97.722,53.268 97.853,55.635C97.952,57.42 97.796,59.217 97.754,61.009C97.738,61.681 97.721,62.354 97.704,63.026C97.67,64.364 96.866,64.982 95.575,64.664C93.674,64.196 93.06,63.243 93.198,61.066C93.365,58.427 93.52,55.788 93.637,53.147C93.661,52.611 93.832,52.261 94.187,51.861C94.808,51.161 95.388,50.394 95.828,49.571C97.046,47.29 96.092,45.34 94.235,44.11C93.658,43.728 93.414,43.341 93.36,42.746C93.03,39.118 92.336,35.558 91.221,32.095C90.549,30.009 89.735,27.968 88.952,25.92C88.471,24.664 88.02,23.384 87.394,22.2C86.453,20.418 85.375,18.707 84.341,16.973C84.163,16.673 83.904,16.42 83.715,16.124C83.652,16.025 83.664,15.856 83.686,15.727C83.762,15.291 83.859,14.859 83.982,14.257" style="fill:rgb(186,143,63);fill-rule:nonzero;"/>
        <path d="M79.653,9.371C79.241,10.871 78.785,12.24 77.091,12.705C76.618,12.835 76.162,13.032 75.685,13.148C75.062,13.302 74.471,13.247 73.865,12.943C71.658,11.835 69.373,10.932 66.938,10.438C64.035,9.848 61.1,9.55 58.144,9.48C57.528,9.466 56.898,9.606 56.29,9.741C51.048,10.902 46.09,12.836 41.348,15.332C38.966,16.585 37.009,18.338 35.425,20.512C35.379,20.576 35.276,20.598 35.088,20.7C35.123,20.35 35.104,20.056 35.187,19.792C35.589,18.511 36.003,17.232 36.439,15.962C36.918,14.572 37.972,13.686 39.161,12.919C41.757,11.244 44.613,10.224 47.601,9.522C50.961,8.733 54.371,8.272 57.784,7.789C60.744,7.371 63.702,7.633 66.659,7.541C68.05,7.497 69.447,7.484 70.838,7.55C73.524,7.678 76.199,7.921 78.732,8.939C79.017,9.054 79.29,9.2 79.653,9.371" style="fill:rgb(149,110,32);fill-rule:nonzero;"/>
        <path d="M60.683,6.775C60.683,6.087 60.656,5.642 60.689,5.202C60.775,4.043 60.879,2.885 60.992,1.728C61.063,0.981 61.262,0.773 61.897,0.941C64.379,1.598 66.897,1.332 69.408,1.295C70.076,1.285 70.757,1.296 71.412,1.417C73.431,1.788 74.593,3.081 75.117,5.006C74.583,5.606 74.062,6.192 73.544,6.775L60.683,6.775Z" style="fill:rgb(0,180,158);fill-rule:nonzero;"/>
        <path d="M86.191,15.335C84.948,14.162 83.885,12.954 83.26,11.345C82.826,10.225 82.03,9.268 80.879,8.773C80.891,7.205 81.765,6.564 83.209,6.394C85.624,6.107 88.027,6.088 90.425,6.494C91.055,6.601 91.293,6.96 91.14,7.539C90.325,10.651 88.732,13.271 86.191,15.335" style="fill:rgb(0,180,158);fill-rule:nonzero;"/>
        <path d="M83.498,17.431C84.848,19.179 86.055,20.956 86.939,22.913C88.586,26.554 89.877,30.332 91.003,34.162C91.865,37.096 92.121,40.144 92.508,43.164C92.523,43.288 92.469,43.421 92.425,43.673C91.183,43.243 90.056,43.642 88.94,44.158C88.972,42.688 89.001,41.265 89.033,39.843C89.084,37.596 89.022,35.364 88.582,33.143C88.278,31.61 88.299,30.004 87.903,28.502C87.542,27.132 86.934,25.789 86.219,24.559C85.435,23.211 84.418,21.995 83.472,20.745C83.21,20.4 83.054,20.098 83.148,19.647C83.297,18.948 83.375,18.235 83.498,17.431" style="fill:rgb(149,110,32);fill-rule:nonzero;"/>
        <path d="M86.229,51.339C86.567,50.632 86.878,49.831 87.319,49.107C87.635,48.586 88.059,48.081 88.547,47.723C89.659,46.91 91.008,47.095 91.935,48.092C92.115,48.285 92.26,48.509 92.525,48.854C92.707,48.115 92.713,47.493 92.192,47.101C91.011,46.212 89.714,45.953 88.336,46.829C88.394,45.332 89.282,44.731 90.492,44.614C91.983,44.471 93.436,44.596 94.548,45.845C95.367,46.765 95.449,47.842 95.056,48.874C94.314,50.821 93.054,52.27 90.785,52.463C90.383,52.497 89.975,52.54 89.589,52.65C88.776,52.881 88.167,52.758 87.614,52.017C87.347,51.661 86.729,51.569 86.229,51.339" style="fill:rgb(253,207,180);fill-rule:nonzero;"/>
        <path d="M33.067,48.463C31.972,48.338 31.041,48.195 30.103,48.133C28.845,48.05 28.123,48.745 27.95,50.23C28.741,49.755 29.239,48.835 30.254,48.981C31.004,49.089 31.802,49.087 32.486,49.363C33.141,49.628 33.677,50.188 34.502,50.792C32.328,51.108 31.993,52.674 31.506,54.129C30.583,54.429 29.744,54.339 28.908,53.879C27.13,52.897 25.847,51.577 25.628,49.438C25.39,47.127 27.215,45.313 29.512,45.663C30.395,45.797 31.266,46.034 32.126,46.282C32.338,46.344 32.569,46.602 32.647,46.82C32.83,47.335 32.924,47.88 33.067,48.463" style="fill:rgb(253,207,180);fill-rule:nonzero;"/>
        <path d="M54.86,64.61C55.352,68.192 55.352,68.192 58.16,69.797C58.284,71.146 57.712,72.151 56.508,72.676C53.878,73.825 51.885,72.656 50.955,70.193C50.533,69.077 50.395,67.845 50.199,66.653C50.077,65.915 50.369,65.591 51.259,65.38C52.428,65.102 53.61,64.875 54.86,64.61" style="fill:white;fill-rule:nonzero;"/>
        <path d="M60.142,69.814C62.828,69.53 63.79,68.855 64.4,65.354C65.696,65.67 67.003,65.932 68.272,66.318C69.216,66.606 69.504,67.188 69.275,68.221C68.855,70.117 67.821,71.521 65.992,72.354C64.323,73.113 62.778,72.942 61.246,72.06C60.17,71.439 59.888,70.855 60.142,69.814" style="fill:white;fill-rule:nonzero;"/>
        <path d="M9.728,38.725C9.577,39.121 9.548,39.477 9.356,39.645C8.534,40.365 6.845,40.49 5.948,39.786C4.827,38.905 3.702,37.979 2.791,36.894C1.45,35.294 2.143,33.467 4.315,32.703C4.751,34.072 4.667,35.642 5.756,36.763C6.782,37.818 7.984,38.544 9.728,38.725" style="fill:rgb(253,207,180);fill-rule:nonzero;"/>
        <path d="M116.614,30.189C117.818,30.516 118.454,31.168 118.895,32C119.019,32.233 118.959,32.621 118.866,32.899C118.513,33.965 118.102,35.001 117.163,35.727C116.492,36.246 115.888,36.857 115.198,37.347C114.267,38.007 112.674,37.927 111.778,37.247C111.677,37.17 111.582,37.055 111.545,36.939C111.492,36.776 111.495,36.595 111.468,36.367C114.76,35.719 116.603,33.809 116.614,30.189" style="fill:rgb(253,207,180);fill-rule:nonzero;"/>
        <path d="M110.687,33.603C111.573,33.404 112.376,33.086 112.791,32.265C113.044,31.76 113.269,31.207 113.345,30.653C113.459,29.822 113.421,28.971 113.465,28.129C113.5,27.495 114.034,27.221 114.612,27.527C115.257,27.87 115.65,28.489 115.692,29.134C115.754,30.106 115.67,31.112 115.484,32.072C115.187,33.604 114.151,34.56 112.727,35.121C111.921,35.438 111.76,35.395 111.276,34.698C111.097,34.441 110.93,34.177 110.761,33.913C110.739,33.878 110.74,33.829 110.687,33.603" style="fill:rgb(253,207,180);fill-rule:nonzero;"/>
        <path d="M10.365,36.054C10.376,36.161 10.401,36.222 10.381,36.248C9.98,36.762 9.855,37.697 9.121,37.694C8.065,37.689 7.164,37.065 6.486,36.258C5.644,35.254 5.391,34.031 5.356,32.742C5.334,31.919 5.351,31.117 5.927,30.462C6.127,30.234 6.379,30.02 6.651,29.891C7.119,29.667 7.573,29.946 7.612,30.461C7.672,31.258 7.715,32.057 7.742,32.857C7.796,34.407 8.479,35.373 9.914,35.892C10.072,35.949 10.231,36.006 10.365,36.054" style="fill:rgb(253,207,180);fill-rule:nonzero;"/>
        <path d="M112.581,38.352C114.385,38.993 115.606,38.226 116.764,37.237C117.476,36.628 118.196,36.028 118.975,35.372C120.098,36.011 120.313,37.56 119.312,38.768C118.159,40.161 116.576,40.442 114.974,40.432C113.887,40.425 112.928,39.833 112.581,38.352" style="fill:rgb(253,207,180);fill-rule:nonzero;"/>
        <path d="M8.437,40.857C8.071,42.101 7.266,42.913 6.188,42.88C4.529,42.83 2.905,42.592 1.742,41.137C0.809,39.97 1.02,38.52 2.374,37.627C3.015,38.291 3.64,38.983 4.312,39.626C5.64,40.893 6.667,41.2 8.437,40.857" style="fill:rgb(253,207,180);fill-rule:nonzero;"/>
        <path d="M79.578,16.883C81.177,15.297 81.735,13.459 81.967,11.456C83.444,13.967 82.651,16.508 82.344,19.276C81.332,18.4 80.503,17.683 79.578,16.883" style="fill:rgb(186,143,63);fill-rule:nonzero;"/>
        <path d="M80.809,10.949C81.101,13.249 80.587,14.678 78.907,16.162C78.451,15.815 77.974,15.437 77.482,15.08C76.981,14.718 76.465,14.377 75.851,13.955C77.819,13.316 79.605,12.659 80.809,10.949" style="fill:rgb(149,110,32);fill-rule:nonzero;"/>
        <path d="M79.867,8.157C78.128,7.761 76.493,7.389 74.83,7.011C75.784,5.324 77.725,4.799 79.173,5.757C80.138,6.395 80.279,6.874 79.867,8.157" style="fill:rgb(0,180,158);fill-rule:nonzero;"/>
        <path d="M36.315,54.084C35.333,55.105 33.739,55.154 32.94,54.246C32.781,54.064 32.636,53.762 32.667,53.541C32.763,52.84 33.148,52.263 33.78,51.949C34.234,51.724 34.759,51.723 35.1,52.216C35.528,52.835 35.922,53.477 36.315,54.084" style="fill:white;fill-rule:nonzero;"/>
        <path d="M9.087,30.533C9.191,30.149 9.189,29.908 9.307,29.77C9.592,29.434 9.904,29.107 10.257,28.845C11.365,28.017 12.1,27.476 13.323,29.412C12.582,29.528 11.875,29.584 11.198,29.76C10.537,29.932 9.907,30.226 9.087,30.533" style="fill:rgb(253,207,180);fill-rule:nonzero;"/>
        <path d="M107.78,26.979C109.018,25.062 109.696,25.604 110.879,26.389C111.39,26.729 111.591,27.07 112.027,28.07C111.218,27.782 110.568,27.497 109.889,27.323C109.219,27.152 108.52,27.095 107.78,26.979" style="fill:rgb(253,207,180);fill-rule:nonzero;"/>
        <path d="M86.43,52.625C87.149,52.664 87.699,53.222 87.686,53.899C87.675,54.503 87.276,54.84 86.625,54.794C85.9,54.743 85.243,54.173 85.246,53.597C85.249,53.029 85.784,52.59 86.43,52.625" style="fill:white;fill-rule:nonzero;"/>
        <path d="M31.028,64.807C30.709,64.657 30.389,64.506 30.014,64.328C30.695,63.764 30.695,63.764 31.028,64.807" style="fill:rgb(253,207,180);fill-rule:nonzero;"/>
        <path d="M74.055,50.13C73.375,49.076 72.451,48.454 71.337,48.181C69.222,47.663 67.083,47.459 64.972,48.199C63.283,48.791 61.599,49.406 59.941,50.082C59.177,50.393 58.563,50.956 58.026,51.819C63.541,51.66 68.825,51.342 74.055,50.13M80.909,29.424C80.589,29.764 80.358,29.965 80.178,30.206C79.107,31.643 77.755,32.749 76.118,33.448C74.341,34.206 72.465,34.576 70.552,34.919C66.89,35.575 63.203,35.244 59.537,35.513C57.398,35.67 55.229,35.474 53.076,35.378C51.332,35.299 49.586,35.184 47.853,34.986C46.343,34.814 44.847,34.514 43.349,34.251C42.291,34.065 41.227,33.914 40.345,33.186C39.813,32.747 39.206,32.397 38.429,31.867C38.579,33.122 38.736,34.178 38.826,35.241C38.93,36.479 39.625,37.146 40.758,37.517C41.992,37.922 43.19,38.442 44.428,38.832C45.495,39.169 46.586,39.466 47.689,39.648C49.279,39.91 50.886,40.074 52.49,40.235C53.691,40.356 54.899,40.45 56.105,40.474C57.309,40.498 58.516,40.446 59.72,40.38C61.867,40.264 64.017,40.165 66.156,39.961C68.473,39.739 70.781,39.421 73.089,39.12C75.319,38.829 77.387,37.971 79.493,37.248C80.273,36.981 80.617,36.461 80.645,35.629C80.677,34.645 80.854,33.666 80.899,32.682C80.946,31.656 80.909,30.627 80.909,29.424M39.716,38.259C39.716,38.688 39.647,39.004 39.727,39.277C40.466,41.821 41.275,44.342 42.696,46.608C43.78,48.336 45.217,49.623 47.255,50.133C49.077,50.589 50.891,51.083 52.718,51.519C53.412,51.684 54.132,51.764 54.845,51.827C55.139,51.853 55.596,51.841 55.724,51.663C56.465,50.63 57.678,50.432 58.687,49.883C60.621,48.83 62.616,47.954 64.756,47.346C66.76,46.776 68.738,46.799 70.73,47.067C71.875,47.22 73.02,47.569 73.941,48.349C74.409,48.744 74.815,49.211 75.228,49.624C76.306,49.296 76.708,48.283 77.47,47.694C78.555,46.854 79.224,45.755 79.556,44.484C80.119,42.334 80.065,40.112 80.209,37.92C78.99,38.345 77.858,38.739 76.726,39.134C73.736,40.178 70.602,40.43 67.489,40.739C64.726,41.013 61.949,41.236 59.175,41.278C56.18,41.323 53.175,41.606 50.181,41.058C47.405,40.551 44.612,40.162 42.02,38.934C41.348,38.615 40.578,38.505 39.716,38.259M37.177,28.755C36.6,29.647 36.023,30.538 35.418,31.472C35.181,29.712 36.581,27.786 38.938,26.551C40.117,25.933 41.725,26.011 42.632,26.826C42.368,26.891 42.185,26.971 42.002,26.971C41.828,26.971 41.657,26.884 41.483,26.838C40.336,26.532 38.743,27.289 38.544,27.76C38.115,28.772 38.615,30.768 39.48,31.471C40.986,32.694 42.682,33.378 44.641,33.493C45.66,33.553 46.661,33.878 47.681,34.014C50.303,34.363 52.931,34.622 55.585,34.578C57.11,34.552 58.639,34.727 60.162,34.691C62.397,34.638 64.629,34.49 66.861,34.358C68.202,34.279 69.56,34.252 70.879,34.023C72.505,33.741 74.154,33.419 75.691,32.843C77.116,32.31 78.285,31.258 79.272,30.07C79.642,29.624 79.944,29.12 80.265,28.634C80.721,27.946 80.91,27.25 80.162,26.439C79.532,26.582 78.822,26.743 78.048,26.919C78.75,25.661 80.509,25.12 81.777,25.805C82.383,26.134 82.889,26.681 83.368,27.196C83.505,27.344 83.389,27.728 83.389,28.252C82.828,27.851 82.488,27.606 82.049,27.292C81.945,27.599 81.791,27.868 81.769,28.147C81.657,29.576 81.604,31.009 81.482,32.437C81.286,34.713 81.053,36.985 80.835,39.259C80.702,40.641 80.604,42.027 80.421,43.402C80.327,44.105 80.188,44.836 79.888,45.468C78.388,48.632 75.936,50.678 72.461,51.282C70.214,51.674 67.931,51.865 65.659,52.1C62.853,52.389 60.045,52.69 57.232,52.862C55.99,52.939 54.713,52.808 53.482,52.599C51.629,52.284 49.775,51.916 47.976,51.383C46.659,50.994 45.377,50.398 44.177,49.721C43.055,49.089 42.532,47.849 41.856,46.804C40.171,44.204 39.335,41.252 38.644,38.285C38.127,36.071 37.606,33.831 37.645,31.523C37.651,31.172 37.713,30.82 37.695,30.471C37.664,29.906 37.589,29.344 37.533,28.78C37.414,28.772 37.296,28.763 37.177,28.755" style="fill:rgb(35,31,32);fill-rule:nonzero;"/>
        <path d="M61.075,18.713C61.277,18.421 61.477,18.127 61.683,17.838C62.95,16.057 62.077,13.52 60.034,12.846C58.772,12.429 57.935,13.081 57.181,13.841C56.341,14.688 56.254,15.823 56.794,16.816C56.964,17.128 57.225,17.391 57.382,17.708C57.433,17.811 57.314,18.04 57.213,18.161C57.155,18.231 56.968,18.234 56.854,18.204C56.73,18.172 56.592,18.094 56.515,17.994C55.259,16.325 54.943,14.262 57.041,12.569C58.219,11.619 59.51,11.59 60.839,11.942C61.641,12.155 62.215,12.796 62.583,13.536C63.074,14.521 63.278,15.597 63.08,16.678C62.888,17.717 62.401,18.6 61.075,18.713" style="fill:rgb(35,31,32);fill-rule:nonzero;"/>
        <path d="M74.437,17.539C73.114,17.106 71.859,16.653 70.579,16.29C69.787,16.065 68.978,16.206 68.205,16.497C67.87,16.623 67.528,16.816 67.189,16.815C66.943,16.814 66.591,16.602 66.475,16.384C66.283,16.022 66.61,15.801 66.923,15.716C68.798,15.209 70.688,14.967 72.554,15.713C73.418,16.058 74.327,16.422 74.437,17.539" style="fill:rgb(35,31,32);fill-rule:nonzero;"/>
        <path d="M44.205,18.823C44.707,16.499 48.607,15.458 50.497,17.175C49.284,17.211 48.197,17.206 47.115,17.285C45.949,17.371 45.057,18.047 44.205,18.823" style="fill:rgb(35,31,32);fill-rule:nonzero;"/>
        <path d="M39.716,38.259C40.578,38.505 41.348,38.615 42.02,38.934C44.612,40.162 47.404,40.551 50.181,41.058C53.175,41.606 56.18,41.323 59.175,41.278C61.948,41.237 64.726,41.013 67.488,40.739C70.602,40.43 73.736,40.178 76.726,39.134C77.858,38.739 78.989,38.345 80.209,37.92C80.065,40.113 80.119,42.334 79.556,44.485C79.224,45.755 78.555,46.854 77.47,47.694C76.708,48.283 76.306,49.296 75.228,49.624C74.815,49.211 74.408,48.744 73.941,48.349C73.02,47.569 71.875,47.22 70.73,47.067C68.737,46.8 66.76,46.777 64.756,47.346C62.615,47.954 60.621,48.83 58.687,49.884C57.678,50.432 56.465,50.63 55.724,51.663C55.596,51.841 55.139,51.853 54.845,51.827C54.132,51.764 53.412,51.684 52.718,51.519C50.891,51.083 49.077,50.59 47.255,50.133C45.217,49.623 43.779,48.336 42.695,46.608C41.275,44.342 40.466,41.821 39.727,39.278C39.647,39.004 39.716,38.688 39.716,38.259" style="fill:rgb(204,79,35);fill-rule:nonzero;"/>
        <path d="M80.909,29.425C80.909,30.628 80.945,31.657 80.898,32.682C80.853,33.667 80.677,34.646 80.644,35.63C80.616,36.462 80.272,36.981 79.493,37.248C77.387,37.971 75.318,38.829 73.089,39.12C70.78,39.422 68.472,39.74 66.155,39.961C64.016,40.165 61.866,40.264 59.72,40.381C58.515,40.446 57.308,40.498 56.104,40.474C54.898,40.45 53.69,40.357 52.489,40.236C50.886,40.075 49.278,39.91 47.688,39.649C46.586,39.467 45.495,39.169 44.428,38.833C43.189,38.443 41.992,37.922 40.758,37.517C39.625,37.146 38.93,36.48 38.825,35.241C38.735,34.179 38.579,33.122 38.429,31.868C39.206,32.398 39.812,32.748 40.345,33.187C41.226,33.914 42.291,34.066 43.348,34.251C44.846,34.514 46.343,34.815 47.852,34.987C49.586,35.184 51.332,35.3 53.076,35.378C55.228,35.475 57.397,35.67 59.537,35.514C63.203,35.245 66.889,35.575 70.552,34.919C72.465,34.576 74.341,34.207 76.117,33.448C77.755,32.75 79.106,31.643 80.178,30.206C80.357,29.966 80.589,29.764 80.909,29.425" style="fill:white;fill-rule:nonzero;"/>
        <path d="M74.055,50.13C68.825,51.342 63.541,51.66 58.026,51.819C58.563,50.956 59.177,50.393 59.941,50.082C61.599,49.406 63.283,48.791 64.972,48.199C67.083,47.459 69.222,47.663 71.337,48.181C72.451,48.454 73.375,49.076 74.055,50.13" style="fill:rgb(246,164,177);fill-rule:nonzero;"/>
    </g>
</svg>
