<svg clip-rule="evenodd" fill-rule="evenodd" stroke-linejoin="round" stroke-miterlimit="2" viewBox="0 0 121 86" xmlns="http://www.w3.org/2000/svg"><g fill-rule="nonzero"><path d="m31.028 64.807c-.333-1.043-.333-1.043-1.014-.479.375.178.695.329 1.014.479m23.206-.584c-.27-.499-.461-1.107-1.109-1.001-.508.083-.623.499-.671 1.001zm32.195-11.599c-.646-.034-1.18.404-1.183.972-.004.576.653 1.147 1.379 1.198.65.046 1.049-.291 1.06-.895.013-.678-.537-1.236-1.256-1.275m21.351-25.646c.74.116 1.439.174 2.109.345.679.173 1.329.458 2.138.747-.436-1-.637-1.342-1.148-1.681-1.183-.786-1.861-1.328-3.099.589m-98.693 3.555c.82-.307 1.45-.601 2.111-.773.677-.176 1.384-.232 2.125-.348-1.224-1.936-1.958-1.395-3.066-.568-.353.263-.666.589-.951.925-.118.139-.116.379-.219.764m27.228 23.55c-.392-.607-.787-1.249-1.215-1.867-.341-.494-.866-.492-1.32-.267-.632.313-1.017.891-1.113 1.591-.031.221.114.523.273.705.799.908 2.393.859 3.375-.162m43.552-45.926c.412-1.283.27-1.762-.694-2.4-1.448-.958-3.389-.433-4.343 1.254 1.663.379 3.298.751 5.037 1.146m.941 2.792c-1.204 1.711-2.99 2.367-4.958 3.006.615.422 1.13.763 1.631 1.125.492.357.969.735 1.425 1.082 1.681-1.484 2.194-2.913 1.902-5.213m-1.23 5.934c.925.8 1.754 1.517 2.765 2.393.308-2.767 1.101-5.308-.377-7.82-.231 2.003-.79 3.841-2.388 5.427m-71.142 23.973c-1.769.344-2.797.036-4.124-1.231-.673-.642-1.298-1.335-1.939-1.999-1.354.893-1.565 2.344-.632 3.511 1.163 1.454 2.787 1.692 4.447 1.743 1.077.032 1.882-.78 2.248-2.024m104.145-2.505c.346 1.481 1.305 2.074 2.392 2.081 1.603.01 3.186-.272 4.339-1.665 1.001-1.208.785-2.756-.338-3.396-.778.656-1.499 1.256-2.211 1.866-1.157.988-2.379 1.756-4.182 1.114m-102.216-2.297c-.134-.048-.293-.105-.451-.162-1.435-.519-2.118-1.485-2.172-3.035-.027-.8-.07-1.599-.131-2.396-.039-.515-.492-.794-.96-.57-.272.129-.524.343-.725.571-.575.655-.592 1.457-.57 2.28.035 1.289.288 2.512 1.13 3.516.678.807 1.579 1.431 2.635 1.436.734.003.859-.932 1.26-1.446.02-.025-.005-.087-.016-.194m100.321-2.452c.053.226.052.276.074.31.169.264.336.529.515.786.484.697.646.739 1.451.422 1.424-.561 2.46-1.516 2.757-3.049.187-.959.271-1.965.208-2.937-.042-.646-.434-1.265-1.08-1.607-.578-.307-1.112-.033-1.146.601-.044.842-.006 1.694-.121 2.525-.076.553-.3 1.106-.554 1.611-.414.822-1.218 1.14-2.104 1.338m5.928-3.413c-.011 3.619-1.855 5.53-5.147 6.178.028.228.025.409.078.571.037.117.132.232.233.308.896.681 2.489.761 3.42.101.69-.49 1.294-1.101 1.965-1.62.939-.727 1.35-1.762 1.703-2.828.093-.278.153-.666.029-.899-.441-.833-1.077-1.484-2.281-1.811m-106.887 8.536c-1.744-.181-2.946-.907-3.971-1.962-1.089-1.121-1.005-2.691-1.441-4.06-2.173.764-2.866 2.591-1.524 4.191.91 1.085 2.035 2.011 3.156 2.892.897.704 2.586.579 3.408-.141.193-.168.221-.525.372-.92m50.414 31.088c-.254 1.041.029 1.625 1.105 2.246 1.531.883 3.076 1.054 4.745.294 1.829-.833 2.863-2.237 3.283-4.133.23-1.033-.058-1.615-1.003-1.902-1.268-.386-2.576-.648-3.872-.965-.609 3.501-1.572 4.176-4.258 4.46m-5.281-5.203c-1.25.265-2.432.492-3.601.77-.89.211-1.182.535-1.06 1.274.196 1.191.334 2.423.756 3.54.93 2.463 2.923 3.632 5.553 2.483 1.204-.526 1.776-1.531 1.652-2.88-2.808-1.605-2.808-1.605-3.3-5.187m-21.793-16.147c-.143-.583-.237-1.128-.42-1.642-.078-.219-.308-.477-.521-.538-.86-.248-1.731-.485-2.614-.62-2.297-.35-4.122 1.464-3.884 3.775.219 2.139 1.502 3.459 3.28 4.441.836.461 1.675.55 2.599.25.486-1.454.821-3.021 2.995-3.337-.825-.604-1.361-1.164-2.016-1.429-.684-.276-1.481-.273-2.231-.382-1.016-.146-1.514.774-2.305 1.249.173-1.485.895-2.179 2.153-2.096.938.062 1.869.204 2.964.329m53.161 2.876c.5.231 1.118.322 1.385.678.554.741 1.162.865 1.976.633.385-.11.793-.153 1.195-.187 2.269-.193 3.529-1.641 4.271-3.589.393-1.032.311-2.109-.507-3.029-1.113-1.248-2.566-1.373-4.057-1.23-1.21.116-2.098.717-2.155 2.214 1.378-.876 2.674-.617 3.855.272.522.393.515 1.015.333 1.753-.265-.345-.41-.569-.59-.761-.927-.997-2.276-1.183-3.387-.37-.489.358-.913.863-1.229 1.384-.44.724-.752 1.525-1.09 2.232m-2.73-33.908c-.123.804-.201 1.517-.35 2.216-.095.451.062.753.323 1.098.947 1.25 1.963 2.466 2.747 3.814.715 1.23 1.324 2.573 1.685 3.943.396 1.502.375 3.108.679 4.641.44 2.221.502 4.453.451 6.7-.032 1.422-.062 2.845-.093 4.315 1.115-.516 2.242-.915 3.484-.485.044-.252.099-.385.083-.509-.386-3.02-.642-6.068-1.504-9.002-1.126-3.83-2.417-7.608-4.064-11.249-.885-1.957-2.092-3.734-3.441-5.482m2.693-2.097c2.541-2.064 4.134-4.683 4.949-7.796.153-.578-.085-.938-.715-1.044-2.398-.406-4.801-.388-7.216-.101-1.444.171-2.318.811-2.329 2.379 1.15.495 1.946 1.452 2.38 2.573.625 1.608 1.688 2.816 2.931 3.989m-25.509-8.559h12.862c.517-.582 1.039-1.169 1.572-1.769-.524-1.925-1.686-3.218-3.705-3.589-.654-.12-1.336-.132-2.004-.122-2.511.037-5.028.304-7.511-.354-.635-.168-.834.04-.905.787-.112 1.157-.217 2.315-.303 3.475-.033.439-.006.884-.006 1.572m18.971 2.596c-.363-.171-.636-.317-.921-.432-2.533-1.018-5.208-1.261-7.894-1.389-1.391-.066-2.788-.053-4.179-.009-2.957.092-5.915-.17-8.875.248-3.413.483-6.823.944-10.183 1.733-2.988.702-5.844 1.722-8.44 3.397-1.189.767-2.243 1.653-2.722 3.043-.436 1.27-.85 2.549-1.252 3.83-.083.264-.064.558-.099.908.188-.102.291-.124.337-.188 1.584-2.174 3.541-3.927 5.923-5.18 4.743-2.496 9.7-4.43 14.942-5.591.608-.135 1.238-.275 1.854-.261 2.956.07 5.891.368 8.794.958 2.435.494 4.72 1.397 6.927 2.505.606.304 1.197.359 1.82.205.477-.116.933-.313 1.406-.443 1.694-.465 2.15-1.834 2.562-3.334m4.329 4.886c-.123.602-.22 1.034-.296 1.47-.022.129-.034.298.03.397.188.296.447.549.625.849 1.034 1.734 2.112 3.445 3.053 5.228.626 1.184 1.077 2.463 1.558 3.719.783 2.049 1.597 4.09 2.269 6.176 1.116 3.462 1.809 7.022 2.139 10.65.054.595.298.982.875 1.364 1.857 1.231 2.812 3.18 1.593 5.462-.44.822-1.02 1.589-1.641 2.289-.355.4-.526.751-.55 1.286-.117 2.641-.272 5.281-.439 7.919-.138 2.177.476 3.13 2.377 3.598 1.291.318 2.095-.3 2.129-1.638.017-.672.034-1.344.051-2.016.042-1.792.197-3.59.098-5.374-.131-2.368-.507-4.721-.691-7.086-.202-2.592-.429-5.164-.988-7.72-.819-3.732-1.821-7.401-3.166-10.973-.52-1.383-1.133-2.738-1.781-4.068-.94-1.932-1.971-3.82-2.926-5.745-1.065-2.151-2.509-4.001-4.319-5.787m-17.893 49.553c.232.9.871 1.083 1.397 1.143 2.007.231 4.042.504 5.637-1.266.525-.583 1.009-.494 1.413.195.281.481.558.88 1.092 1.122 1.289.583 2.457.368 3.538-.459.491-.376.928-.822 1.371-1.219.138.068.257.086.292.15.391.709.96 1.216 1.775 1.281.795.063 1.633.143 2.39-.04.88-.213 1.667-.719 1.623-1.856-.006-.141.129-.287.185-.404.141.021.201.012.222.037.145.166.294.331.419.511 1.088 1.568 1.086 1.569 2.925 1.268 1.038-.17 1.841-.927 1.932-1.963.192-2.182.333-4.368.483-6.554.036-.537.038-1.078.027-1.617-.009-.447-.052-.895-.502-1.18-.881.163-1.763.303-2.634.497-.437.098-.843.263-.909.842-.106.943-.84 1.193-1.627 1.318-1.268.202-2.262-.277-3.054-1.498-2.269 2.886-5.157 4.796-8.156 6.502-3.011 1.713-6.405 2.441-9.839 3.19m-61.315-20.288c.567 1.098 1.411 1.528 2.36 1.533 1.471.006 2.95-.117 4.412-.299.436-.054.834-.479 1.229-.761.138-.098.189-.347.329-.405.185-.076.473-.112.615-.015.126.085.16.378.149.574-.009.166-.116.342-.218.487-.368.525-.135.922.244 1.304.85.858 1.687 1.728 2.545 2.578 1.78 1.761 3.771 3.311 5.314 5.312.143.187.4.287.76.534.119-2.553.257-4.914.306-7.278.008-.376-.313-.831-.606-1.129-.691-.702-1.441-1.348-2.193-1.985-1.074-.911-1.93-1.986-2.581-3.231-.196-.375-.33-.757-.043-1.137 1.005-1.327 1.113-2.893 1.236-4.466.138-1.754-.498-2.877-2.023-3.758-1.383-.799-2.843-.973-4.402-.922-1.061.034-1.908.492-2.724 1.033-.752.497-1.035 1.406-.805 2.126.279.873 1.087 1.497 2.025 1.493.396-.001.793-.167 1.189-.164.224.001.551.141.638.316.091.18-.026.487-.108.719-.036.101-.201.178-.323.222-.882.323-1.177 1.09-1.322 1.89-.117.65-.128 1.338-.064 1.997.095.997.688 1.507 1.567 1.485.902-.023 1.57-.65 1.692-1.577.037-.281.102-.558.166-.901.782.219.73.753.648 1.214-.217 1.229-1.167 1.788-2.22 2.111-1.317.406-2.104-.487-2.814-1.447-.819 2.432-2.655 2.868-4.978 2.547m102.253-6.928c.062.566.067.965.153 1.345.15.657.881 1.176 1.622 1.204.678.026 1.308-.328 1.489-.931.276-.921.23-1.856-.014-2.785-.203-.774-.547-1.425-1.37-1.697-.081-.027-.191-.088-.21-.155-.072-.24-.215-.536-.132-.722.08-.179.401-.331.626-.344.302-.018.609.14.92.165 1.095.087 1.985-.488 2.312-1.463.284-.852-.18-1.726-1.107-2.365-1.323-.913-2.79-.911-4.275-.766-1.531.149-2.842.819-3.856 1.975-.309.352-.567.845-.627 1.303-.25 1.9-.06 3.759.947 5.44.301.503.365.914.219 1.502-.277 1.125-.97 1.882-1.803 2.595-1.227 1.05-2.419 2.139-3.625 3.212-.471.418-.648.918-.577 1.562.119 1.07.14 2.15.246 3.222.103 1.046.26 2.086.432 3.426.653-.664 1.113-1.127 1.568-1.595.933-.963 1.845-1.946 2.797-2.889 1.497-1.482 3.023-2.935 4.53-4.405.356-.348.495-.736.178-1.203-.124-.183-.23-.4-.262-.614-.023-.148.049-.375.161-.46.117-.09.366-.121.494-.054.183.094.286.328.459.453.394.285.788.721 1.222.774 1.506.181 3.032.315 4.547.289.886-.015 1.708-.455 2.152-1.308-1.044-.161-2.075-.183-3.006-.5-.999-.341-1.575-1.236-1.906-2.247-.239.296-.433.605-.692.845-1.227 1.135-3.706.5-4.23-1.101-.12-.365-.101-.803-.033-1.188.029-.167.342-.285.651-.52m-70.104 18.686c-.818.642-2.015.857-3.272.34-.979-.402-1.952-.527-2.996-.306-.326.069-.709-.057-1.051-.152-3.301-.908-5.331-4.009-4.866-7.38.112-.812.503-1.407 1.156-1.884 1.525-1.11 3.188-1.356 4.978-.849.459.13.901.329 1.447.15-.283-1.299-.56-2.519-.812-3.746-.605-2.924-.6-5.889-.524-8.852.031-1.195.041-2.439.374-3.567.517-1.746 1.315-3.408 1.969-5.114.223-.581.468-1.179.537-1.788.16-1.398.574-2.701 1.129-3.987.401-.931.675-1.919 1.056-3.029-.461.066-.796.034-1.042.166-.708.379-1.458.737-2.051 1.262-1.813 1.604-3.076 3.654-4.026 5.829-1.721 3.947-3.285 7.97-4.046 12.239-.58 3.26-1.212 6.515-1.221 9.855-.006 2.469-.136 4.937-.203 7.406-.042 1.526.065 3.072-.139 4.576-.247 1.832.131 3.573.438 5.327.144.823.462 1.74 1.28 2.13 1.306.622 3.774.748 5.015-1.008.193-.272.463-.49.714-.75.658.714 1.192 1.358 1.793 1.93 1.088 1.037 2.305 1.149 3.653.485 1.011-.499 1.853-1.179 2.509-2.22.243.317.485.502.54.731.207.849.859 1.183 1.582 1.239.789.061 1.612-.019 2.391-.176.707-.142 1.34-.491 1.594-1.289.083-.263.341-.471.531-.721 1.636 1.94 1.636 1.946 3.29 1.91 1.441-.031 2.789-.262 3.533-1.813-1.183-.539-2.355-1.011-3.641-1.18-.523-.069-1.039-.237-1.541-.408-1.527-.525-3.035-1.108-4.572-1.601-1.357-.435-2.51-1.152-3.533-2.136-.579-.558-1.244-1.027-1.973-1.619m8.771 28.344c1.385.459 2.716.269 4.044.198.485-.026.975-.013 1.46.013.491.025.98.138 1.47.127 3.142-.068 6.29-.322 9.424-.202 4.061.154 8.053-.557 12.087-.639.074-.002.146-.092.252-.165-.032-.247-.047-.516-.106-.774-.56-2.446-1.136-4.887-1.685-7.334-.106-.478-.236-.996.181-1.689.427 1.289.777 2.347 1.145 3.458 4.468-3.986 9.086-7.514 14.069-10.724-.363-.51-.64-.898-.909-1.276-1.993 1.177-3.94 1.453-5.998.473-.274-.131-.686-.097-.992-.003-.466.145-.899.402-1.34.624-1.322.665-2.625.507-3.883-.138-.462-.237-.842-.631-1.238-.936-1.147.481-2.255.945-3.331 1.397 0 .525.117 1.053-.022 1.502-.385 1.241-.856 2.457-1.338 3.665-.107.269-.352.543-.606.683-.941.517-1.894 1.017-2.874 1.451-2.016.891-3.756.277-5.34-1.068-.356-.302-.727-.586-1.14-.918-.85 1.916-2.445 2.426-4.203 2.626-.857.098-1.822.127-2.472-.42-.943-.794-1.923-1.645-2.195-2.98-.171-.833-.387-1.657-.579-2.486-.242-1.039-.481-2.079-.73-3.158-1.316.122-2.394-.239-3.352-.908-.538.262-1.005.55-1.511.722-1.483.505-3.047.678-4.448-.044-.884-.456-1.47-.328-2.2.133-1.705 1.076-3.476 1.438-5.347.248-.291.232-.554.441-.875.696.196.243.299.464.471.57 4.801 2.954 9.709 5.749 14.068 9.629.266-1.045.475-1.869.684-2.691.274.287.341.537.312.775-.203 1.645-.439 3.287-.64 4.933-.182 1.501-.641 2.985-.313 4.63m42.629-44.434c.108-3.263-.492-6.444-1.001-9.634-.252-1.582-.88-2.987-1.698-4.354-.973-1.624-2.021-3.169-3.283-4.587-2.165-2.433-4.586-4.545-7.422-6.152-.932-.528-1.93-.938-2.897-1.403-3.959-1.904-8.162-2.614-12.519-2.521-1.12.024-2.245.11-3.35.278-1.503.229-3.021.454-4.474.882-1.714.506-3.386 1.178-5.039 1.867-2.403 1.001-4.784 2.073-6.875 3.656-3.724 2.82-5.896 6.702-7.348 11.035-.501 1.494-.648 3.052-.642 4.643.011 2.788.076 5.569.59 8.312.288 1.539.719 3.051 1.065 4.578.381 1.675.931 3.29 1.847 4.745.568.902 1.361 1.668 1.897 2.587.731 1.257 1.606 2.381 2.681 3.335 1.082.961 2.295 1.697 3.781 1.937.652.105 1.259.464 1.896.681 1.562.533 3.057 1.229 4.735 1.451 2.434.321 6.259 2.582 6.066 5.876-.013.217.018.484.136.651.278.389.552.852.947 1.072 1.478.826 3.028.685 4.526.046.598-.255.969-.776.913-1.513-.044-.581-.029-1.166-.037-1.75-.016-1.23.283-1.497 1.513-1.785 2.659-.623 5.306-1.299 7.947-1.999.733-.194 1.46-.48 2.126-.84 1.417-.769 2.812-1.583 4.178-2.44.793-.497 1.537-1.084 2.254-1.688.512-.433.921-.987 1.416-1.443 1.467-1.348 2.706-2.875 3.609-4.65.896-1.759 1.834-3.53 2.092-5.51.231-1.773.255-3.574.37-5.363m30.991-4.881c.229.21.376.318.49.454 1.518 1.814 1.481 3.326-.204 4.983-.981.966-2.039 1.856-3.082 2.759-.775.672-1.688 1.022-2.724.969-1.162-.058-2.326-.127-3.485-.229-1.026-.089-1.832.068-2.625.928-1.794 1.943-3.812 3.677-5.642 5.588-1.176 1.227-2.186 2.613-3.257 3.938-.444.549-.33 1.216-.227 1.822.313 1.837.183 3.669.078 5.509-.04.706.096 1.42.104 2.13.017 1.552-.84 2.436-2.376 2.479-.971.027-1.871-.21-2.668-.778-.362-.259-.708-.539-.98-.747-.863.397-1.663.763-2.461 1.131-.201.092-.558.173-.571.29-.11 1.009-1.022.983-1.634 1.373-1.55.991-3.09 2.007-4.568 3.102-1.983 1.469-3.939 2.979-5.838 4.555-1.102.915-2.065 1.996-3.098 2.996-.461.447-.41.964-.233 1.498.448 1.361.914 2.715 1.355 4.078.092.286.11.597.19 1.064-.755.025-1.42.127-2.063.053-1.996-.227-3.931.247-5.894.39-1.204.087-2.418.032-3.627.031-.533 0-1.071-.079-1.599-.031-3.896.358-7.789.556-11.697.133-1.016-.11-2.056.03-3.084-.007-1.068-.038-2.134-.15-3.385-.243.226-1.525.373-2.93.653-4.309.371-1.828-.014-3.298-1.505-4.538-2.979-2.48-6.161-4.649-9.504-6.598-1.242-.724-2.448-1.509-3.668-2.272-.436-.272-.745-.565-.668-1.192.038-.31-.301-.666-.498-1.059-1.208.75-2.374.759-3.608.515-1.779-.352-2.747-1.511-2.843-3.333-.087-1.65-.294-3.296-.507-4.936-.056-.422-.276-.853-.52-1.214-1.488-2.215-3.351-4.095-5.305-5.896-1.085-1.001-2.21-1.982-3.143-3.116-.756-.919-1.612-.983-2.635-.897-1.249.104-2.503.205-3.754.197-.561-.003-1.197-.149-1.666-.442-1.599-.996-2.97-2.297-4.203-3.702-1.25-1.427-1.228-2.404-.195-4.03.213-.335.498-.626.801-1.001-.108-.266-.281-.583-.368-.922-.208-.812-.237-1.594.468-2.234.724-.657 1.249-1.531 2.229-1.912.236-.092.375-.447.546-.69.331-.473.595-1.011.992-1.418.791-.81 1.77-.726 2.559-.417.936-.637 1.76-1.159 2.542-1.741.653-.485 1.274-.411 1.858.034.529.402 1.041.845 1.479 1.342.543.619 1.145 1.076 1.903 1.436.958.456 1.922 1.013 2.687 1.733 1.155 1.087 1.167 2.59.905 4.041-.223 1.228-.573 2.436-.905 3.642-.303 1.1.266 1.906.833 2.725.05.072.123.13.191.19 1.002.885 2.004 1.77 3.106 2.742.041-.243.099-.397.087-.546-.168-2.178.408-4.283.658-6.417.298-2.534.763-5.05 1.523-7.498 1.265-4.074 2.513-8.161 4.832-11.797.891-1.397 1.792-2.816 3.247-3.734.416-.263.822-.623 1.28-.723 1.612-.353 2.903-1.278 4.259-2.129 2.688-1.686 5.674-2.663 8.715-3.493 3.032-.828 6.112-1.355 9.237-1.672 1.057-.107 2.1-.345 3.211-.534.106-1.854.226-3.593.295-5.334.04-.999.258-1.32 1.242-1.337.621-.011 1.259.058 1.865.195 1.915.431 3.835.337 5.768.213 1.476-.095 2.939-.033 4.345.568.772.331 1.38.795 1.855 1.477.281.4.631.75.938 1.133.353.443.775.625 1.366.704.73.098 1.517.336 2.111.751.777.542 1.555.708 2.412.515 2.365-.533 4.725-.22 7.085-.03.892.072 1.783.192 2.665.338.782.129.999.664.634 1.379-.386.755-.839 1.49-1.107 2.286-.752 2.229-2.257 3.959-3.666 5.758-.139.176-.301.333-.435.513-.079.106-.123.238-.254.504 5.581 8.114 9.097 17.143 10.632 27.046.191-.086.405-.128.545-.254 1.166-1.052 2.378-2.062 3.457-3.199.867-.915 1.2-1.972.732-3.338-.471-1.378-.683-2.875-.805-4.336-.139-1.666.67-2.936 2.134-3.765.273-.155.537-.337.828-.45 1.19-.465 2.215-1.096 2.967-2.199.331-.484.977-.77 1.513-1.091.41-.246.856-.216 1.273.065.843.569 1.695 1.127 2.455 1.853.131.005.27.044.39.012 1.538-.398 2.659.059 3.274 1.507.267.631.683.943 1.201 1.326.813.603 1.572 1.349 2.145 2.179.27.389.094 1.12.038 1.687-.03.294-.24.569-.399.921" fill="#231f20"/><path d="m44.205 18.823c.852-.776 1.744-1.452 2.91-1.538 1.082-.079 2.169-.074 3.382-.11-1.89-1.717-5.79-.676-6.292 1.648m30.231-1.284c-.11-1.117-1.018-1.481-1.882-1.826-1.867-.746-3.756-.504-5.631.003-.314.085-.641.306-.448.668.116.218.467.43.713.431.339.001.681-.192 1.016-.318.773-.291 1.582-.432 2.374-.207 1.28.363 2.535.816 3.858 1.249m-13.361 1.174c1.326-.113 1.814-.995 2.005-2.035.198-1.081-.006-2.157-.497-3.142-.368-.74-.941-1.38-1.744-1.593-1.329-.353-2.62-.324-3.798.626-2.098 1.693-1.782 3.756-.525 5.425.076.1.214.179.338.21.114.03.301.027.359-.043.101-.121.221-.35.169-.453-.156-.317-.418-.58-.588-.892-.54-.993-.453-2.128.388-2.975.753-.76 1.59-1.412 2.852-.995 2.043.674 2.916 3.211 1.65 4.992-.207.289-.407.583-.609.875m-23.898 10.043c.119.008.237.017.355.025.057.563.132 1.126.162 1.69.019.35-.044.702-.05 1.053-.039 2.307.483 4.548.999 6.762.692 2.966 1.528 5.919 3.212 8.519.676 1.044 1.2 2.285 2.322 2.917 1.2.676 2.481 1.272 3.799 1.662 1.798.532 3.653.901 5.505 1.216 1.232.209 2.508.339 3.75.263 2.814-.172 5.621-.474 8.427-.763 2.273-.234 4.556-.425 6.803-.817 3.474-.605 5.927-2.65 7.427-5.814.299-.632.439-1.364.533-2.066.182-1.375.281-2.761.414-4.143.218-2.274.451-4.546.646-6.822.122-1.428.175-2.862.287-4.291.023-.279.176-.547.281-.855.438.315.779.559 1.34.96 0-.523.116-.907-.022-1.055-.478-.515-.984-1.062-1.591-1.391-1.267-.686-3.026-.144-3.728 1.113.773-.175 1.483-.336 2.114-.479.748.811.559 1.507.103 2.195-.322.485-.623.99-.994 1.436-.986 1.188-2.156 2.239-3.581 2.773-1.537.576-3.185.897-4.811 1.179-1.32.229-2.677.257-4.019.336-2.231.131-4.464.279-6.698.332-1.523.036-3.053-.139-4.577-.113-2.654.045-5.282-.214-7.904-.564-1.02-.135-2.021-.461-3.04-.521-1.959-.115-3.656-.798-5.162-2.022-.865-.703-1.365-2.698-.935-3.71.199-.471 1.792-1.229 2.938-.922.174.046.346.132.52.133.182 0 .366-.08.63-.145-.907-.815-2.515-.894-3.695-.275-2.356 1.234-3.756 3.16-3.519 4.921.604-.934 1.182-1.826 1.759-2.717m51.146 10.435c-.115 1.788-.139 3.589-.37 5.362-.258 1.98-1.195 3.751-2.092 5.51-.903 1.775-2.141 3.302-3.609 4.651-.495.455-.903 1.009-1.416 1.442-.717.605-1.461 1.191-2.254 1.688-1.365.857-2.761 1.671-4.178 2.44-.666.361-1.392.646-2.126.84-2.64.7-5.288 1.377-7.947 2-1.23.288-1.528.554-1.513 1.784.008.584-.007 1.169.037 1.75.056.737-.315 1.258-.913 1.514-1.498.639-3.048.779-4.526-.046-.395-.22-.669-.683-.946-1.073-.119-.167-.15-.434-.137-.65.193-3.295-3.632-5.556-6.066-5.877-1.678-.222-3.172-.918-4.735-1.451-.637-.217-1.244-.575-1.895-.681-1.487-.24-2.7-.975-3.782-1.936-1.075-.954-1.95-2.078-2.681-3.336-.535-.919-1.328-1.684-1.897-2.587-.916-1.454-1.466-3.069-1.846-4.744-.347-1.528-.778-3.04-1.066-4.578-.514-2.744-.579-5.525-.59-8.312-.006-1.591.141-3.15.642-4.643 1.452-4.333 3.624-8.216 7.349-11.036 2.09-1.583 4.471-2.654 6.875-3.656 1.652-.689 3.324-1.361 5.039-1.867 1.452-.428 2.97-.653 4.473-.881 1.106-.168 2.231-.254 3.35-.278 4.357-.093 8.56.616 12.519 2.521.967.465 1.965.874 2.897 1.402 2.836 1.608 5.258 3.719 7.423 6.152 1.261 1.418 2.309 2.964 3.282 4.587.818 1.367 1.446 2.772 1.698 4.354.509 3.191 1.11 6.371 1.001 9.635" fill="#fdcfb4"/><path d="m45.694 83.624c-.328-1.645.131-3.129.313-4.63.201-1.646.437-3.287.64-4.933.029-.238-.038-.488-.312-.775-.209.822-.418 1.646-.684 2.691-4.359-3.88-9.267-6.675-14.068-9.629-.172-.106-.275-.327-.471-.57.321-.255.584-.464.875-.696 1.871 1.19 3.642.828 5.347-.248.73-.461 1.316-.588 2.2-.133 1.401.722 2.965.549 4.448.045.506-.173.973-.461 1.511-.723.958.669 2.036 1.03 3.352.908.249 1.079.488 2.119.73 3.158.192.829.408 1.653.579 2.486.272 1.335 1.252 2.186 2.195 2.98.65.547 1.615.518 2.472.42 1.758-.2 3.353-.71 4.203-2.626.413.332.784.616 1.14.919 1.584 1.344 3.324 1.958 5.34 1.067.98-.434 1.933-.934 2.874-1.451.254-.139.499-.414.606-.683.481-1.208.953-2.424 1.338-3.665.139-.449.022-.976.022-1.502 1.076-.452 2.184-.916 3.331-1.397.396.305.776.699 1.238.936 1.258.645 2.561.803 3.883.138.441-.222.874-.479 1.34-.624.306-.094.718-.128.992.003 2.058.98 4.005.704 5.998-.473.269.379.546.766.909 1.276-4.983 3.21-9.601 6.738-14.069 10.724-.368-1.111-.718-2.169-1.145-3.458-.417.694-.287 1.211-.181 1.689.549 2.447 1.125 4.888 1.685 7.334.059.258.074.527.106.774-.106.073-.178.164-.252.165-4.034.083-8.026.793-12.087.639-3.134-.119-6.282.134-9.424.202-.49.011-.979-.102-1.47-.127-.485-.025-.975-.039-1.46-.013-1.328.072-2.659.261-4.044-.198" fill="#00b49e"/><path d="m36.923 55.28c.729.593 1.395 1.062 1.974 1.619 1.022.984 2.175 1.701 3.533 2.136 1.537.493 3.045 1.077 4.571 1.601.502.172 1.019.34 1.541.409 1.286.169 2.458.641 3.642 1.179-.744 1.551-2.092 1.783-3.533 1.813-1.655.036-1.655.031-3.29-1.91-.191.25-.449.458-.532.721-.254.799-.886 1.148-1.594 1.289-.779.157-1.601.238-2.39.176-.724-.056-1.375-.39-1.582-1.239-.056-.229-.298-.414-.54-.731-.656 1.041-1.498 1.722-2.51 2.221-1.348.664-2.564.551-3.652-.485-.602-.573-1.135-1.216-1.793-1.931-.251.26-.522.478-.714.751-1.241 1.755-3.709 1.63-5.016 1.007-.817-.389-1.136-1.307-1.279-2.13-.308-1.753-.686-3.495-.439-5.327.205-1.504.097-3.049.139-4.576.068-2.468.197-4.937.203-7.406.009-3.339.642-6.594 1.222-9.855.761-4.269 2.324-8.292 4.046-12.238.949-2.176 2.213-4.225 4.025-5.829.593-.526 1.343-.883 2.051-1.263.246-.132.581-.099 1.042-.166-.381 1.111-.654 2.098-1.056 3.03-.554 1.285-.968 2.588-1.129 3.987-.069.608-.314 1.207-.537 1.787-.654 1.707-1.452 3.368-1.968 5.114-.333 1.129-.343 2.372-.374 3.568-.077 2.963-.082 5.928.523 8.852.253 1.226.529 2.447.812 3.745-.545.18-.988-.02-1.447-.149-1.79-.508-3.453-.262-4.977.849-.654.476-1.044 1.071-1.157 1.883-.464 3.371 1.566 6.472 4.867 7.381.341.094.724.22 1.05.151 1.044-.221 2.017-.096 2.997.306 1.256.517 2.454.303 3.271-.34" fill="#956e20"/><path d="m107.027 36.594c-.309.235-.622.353-.651.521-.068.384-.087.823.033 1.187.524 1.602 3.003 2.236 4.23 1.101.259-.24.453-.549.692-.844.331 1.011.907 1.905 1.906 2.246.931.317 1.962.339 3.006.5-.444.853-1.266 1.293-2.152 1.308-1.515.026-3.041-.107-4.547-.289-.434-.052-.828-.489-1.222-.774-.173-.125-.276-.359-.459-.453-.128-.066-.377-.035-.494.055-.112.085-.184.312-.161.459.032.214.138.431.262.614.317.467.178.856-.178 1.203-1.507 1.471-3.033 2.924-4.53 4.406-.952.943-1.864 1.926-2.797 2.888-.455.469-.915.932-1.568 1.596-.172-1.341-.329-2.381-.433-3.427-.105-1.071-.126-2.151-.245-3.221-.071-.644.106-1.144.577-1.562 1.206-1.074 2.398-2.163 3.625-3.212.833-.714 1.526-1.47 1.803-2.595.146-.588.082-.999-.219-1.502-1.007-1.682-1.197-3.54-.947-5.441.06-.457.318-.951.627-1.303 1.014-1.155 2.325-1.825 3.856-1.975 1.485-.145 2.952-.147 4.275.766.927.639 1.391 1.514 1.107 2.365-.327.976-1.217 1.55-2.312 1.464-.311-.025-.618-.184-.92-.166-.225.014-.546.166-.626.344-.083.186.06.482.132.722.019.068.129.129.21.156.823.272 1.167.923 1.37 1.696.244.929.29 1.865.014 2.786-.181.602-.811.957-1.489.93-.741-.028-1.472-.547-1.622-1.203-.086-.381-.091-.78-.153-1.346" fill="#fdcfb4"/><path d="m4.774 43.523c2.323.32 4.159-.116 4.978-2.547.709.96 1.497 1.852 2.814 1.447 1.053-.324 2.003-.882 2.22-2.111.082-.461.134-.995-.648-1.215-.064.344-.129.621-.166.902-.122.926-.79 1.553-1.692 1.576-.879.022-1.472-.487-1.568-1.484-.063-.66-.052-1.348.065-1.998.144-.799.44-1.567 1.322-1.889.122-.045.287-.121.322-.222.082-.232.2-.539.109-.72-.087-.174-.414-.314-.638-.316-.396-.003-.793.163-1.189.165-.938.003-1.746-.62-2.025-1.494-.23-.719.053-1.628.805-2.126.816-.54 1.663-.998 2.724-1.032 1.559-.051 3.019.123 4.402.921 1.525.881 2.161 2.005 2.023 3.759-.123 1.572-.231 3.139-1.236 4.466-.287.379-.153.761.043 1.137.651 1.244 1.507 2.32 2.581 3.23.752.638 1.502 1.284 2.192 1.986.293.298.615.753.607 1.129-.049 2.363-.188 4.725-.306 7.277-.36-.247-.617-.346-.76-.533-1.543-2.001-3.534-3.551-5.314-5.312-.858-.85-1.695-1.721-2.545-2.578-.379-.382-.612-.779-.244-1.305.102-.145.209-.32.218-.486.01-.197-.023-.489-.149-.574-.142-.097-.43-.062-.615.014-.141.058-.191.308-.329.406-.396.282-.793.706-1.23.76-1.461.183-2.94.306-4.411.299-.949-.004-1.793-.434-2.36-1.532" fill="#fdcfb4"/><path d="m66.089 63.81c3.435-.749 6.828-1.477 9.84-3.19 2.999-1.706 5.887-3.616 8.155-6.502.792 1.221 1.786 1.7 3.055 1.498.787-.125 1.52-.375 1.627-1.318.065-.579.471-.744.908-.842.871-.194 1.754-.334 2.635-.497.45.285.493.733.502 1.18.01.539.008 1.08-.028 1.617-.149 2.186-.291 4.372-.482 6.554-.092 1.036-.895 1.793-1.933 1.963-1.839.301-1.837.3-2.925-1.268-.125-.18-.274-.345-.418-.511-.022-.025-.082-.016-.222-.037-.057.117-.192.263-.186.404.044 1.137-.743 1.643-1.623 1.856-.757.183-1.594.103-2.389.04-.816-.065-1.384-.572-1.776-1.281-.035-.063-.153-.082-.292-.15-.442.397-.88.843-1.371 1.219-1.081.827-2.249 1.042-3.538.459-.533-.242-.81-.641-1.092-1.122-.403-.689-.887-.778-1.413-.195-1.595 1.77-3.63 1.497-5.637 1.267-.526-.061-1.165-.244-1.397-1.144" fill="#956e20"/><path d="m83.982 14.257c1.81 1.786 3.254 3.636 4.319 5.787.954 1.925 1.986 3.813 2.926 5.745.648 1.33 1.261 2.684 1.781 4.068 1.345 3.572 2.347 7.24 3.165 10.973.56 2.556.787 5.128.989 7.719.184 2.366.56 4.719.691 7.086.099 1.785-.057 3.582-.099 5.374-.016.672-.033 1.345-.05 2.017-.034 1.338-.838 1.956-2.129 1.638-1.901-.468-2.515-1.421-2.377-3.598.167-2.639.322-5.278.439-7.919.024-.536.195-.886.55-1.286.621-.7 1.201-1.467 1.641-2.29 1.218-2.281.264-4.231-1.593-5.461-.577-.382-.821-.769-.875-1.364-.33-3.628-1.024-7.188-2.139-10.651-.672-2.086-1.486-4.127-2.269-6.175-.481-1.256-.932-2.536-1.558-3.72-.941-1.782-2.019-3.493-3.053-5.227-.178-.3-.437-.553-.626-.849-.063-.099-.051-.268-.029-.397.076-.436.173-.868.296-1.47" fill="#ba8f3f"/><path d="m79.653 9.371c-.412 1.5-.868 2.869-2.562 3.334-.473.13-.929.327-1.406.443-.623.154-1.214.099-1.82-.205-2.207-1.108-4.492-2.011-6.927-2.505-2.903-.59-5.838-.888-8.794-.958-.616-.014-1.246.126-1.854.261-5.242 1.161-10.2 3.095-14.942 5.591-2.382 1.253-4.339 3.006-5.923 5.18-.046.064-.149.086-.337.188.035-.35.016-.644.099-.908.402-1.281.816-2.56 1.252-3.83.479-1.39 1.533-2.276 2.722-3.043 2.596-1.675 5.452-2.695 8.44-3.397 3.36-.789 6.77-1.25 10.183-1.733 2.96-.418 5.918-.156 8.875-.248 1.391-.044 2.788-.057 4.179.009 2.686.128 5.361.371 7.894 1.389.285.115.558.261.921.432" fill="#956e20"/><path d="m60.683 6.775c0-.688-.027-1.133.006-1.573.086-1.159.19-2.317.303-3.474.071-.747.27-.955.905-.787 2.482.657 5 .391 7.511.354.668-.01 1.349.001 2.004.122 2.019.371 3.181 1.664 3.705 3.589-.534.6-1.055 1.186-1.573 1.769z" fill="#00b49e"/><path d="m86.191 15.335c-1.243-1.173-2.306-2.381-2.931-3.99-.434-1.12-1.23-2.077-2.381-2.572.012-1.568.886-2.209 2.33-2.379 2.415-.287 4.818-.306 7.216.1.63.107.868.466.715 1.045-.815 3.112-2.408 5.732-4.949 7.796" fill="#00b49e"/><path d="m83.498 17.431c1.35 1.748 2.557 3.525 3.441 5.482 1.647 3.641 2.938 7.419 4.064 11.249.862 2.934 1.118 5.982 1.505 9.002.015.124-.039.257-.083.509-1.242-.43-2.369-.031-3.485.485.032-1.47.061-2.893.093-4.315.051-2.247-.011-4.479-.451-6.7-.304-1.533-.283-3.139-.679-4.641-.361-1.37-.969-2.713-1.684-3.943-.784-1.348-1.801-2.564-2.747-3.814-.262-.345-.418-.647-.324-1.098.149-.699.227-1.412.35-2.216" fill="#956e20"/><path d="m86.229 51.339c.338-.707.649-1.508 1.09-2.232.316-.521.74-1.026 1.228-1.384 1.112-.813 2.461-.628 3.388.369.18.193.325.417.59.762.182-.739.188-1.361-.333-1.753-1.181-.889-2.478-1.148-3.856-.272.058-1.497.946-2.098 2.156-2.215 1.491-.143 2.944-.018 4.056 1.231.819.92.901 1.997.508 3.029-.742 1.947-2.002 3.396-4.271 3.589-.402.034-.81.077-1.196.187-.813.231-1.422.108-1.975-.633-.267-.356-.885-.448-1.385-.678" fill="#fdcfb4"/><path d="m33.067 48.463c-1.095-.125-2.026-.268-2.964-.33-1.258-.083-1.98.612-2.153 2.097.791-.475 1.289-1.395 2.304-1.249.75.108 1.548.106 2.232.382.655.265 1.191.825 2.016 1.429-2.174.316-2.509 1.882-2.996 3.337-.923.3-1.762.21-2.598-.25-1.778-.982-3.061-2.302-3.28-4.441-.238-2.311 1.587-4.125 3.884-3.775.883.134 1.754.371 2.614.619.212.062.443.32.521.538.183.515.277 1.06.42 1.643" fill="#fdcfb4"/><path d="m54.86 64.61c.492 3.582.492 3.582 3.3 5.187.124 1.349-.448 2.354-1.652 2.879-2.63 1.149-4.623-.02-5.553-2.483-.422-1.116-.56-2.348-.756-3.54-.122-.738.17-1.062 1.06-1.273 1.169-.278 2.351-.505 3.601-.77" fill="#fff"/><path d="m60.142 69.814c2.686-.284 3.648-.959 4.258-4.46 1.296.316 2.603.578 3.872.964.944.288 1.232.87 1.003 1.903-.42 1.896-1.454 3.3-3.283 4.133-1.669.759-3.214.588-4.746-.294-1.076-.621-1.358-1.205-1.104-2.246" fill="#fff"/><g fill="#fdcfb4"><path d="m9.728 38.725c-.151.396-.18.752-.372.92-.822.72-2.511.845-3.408.141-1.121-.881-2.246-1.807-3.157-2.892-1.341-1.6-.648-3.427 1.524-4.191.436 1.369.352 2.939 1.441 4.06 1.026 1.055 2.228 1.781 3.972 1.962"/><path d="m116.614 30.189c1.204.327 1.84.979 2.281 1.811.124.233.064.621-.029.899-.353 1.066-.764 2.102-1.703 2.828-.671.519-1.275 1.13-1.965 1.62-.931.66-2.524.58-3.42-.1-.101-.077-.196-.192-.233-.308-.053-.163-.05-.344-.077-.572 3.292-.648 5.135-2.558 5.146-6.178"/><path d="m110.687 33.603c.886-.199 1.689-.517 2.104-1.338.253-.505.478-1.058.554-1.612.114-.831.076-1.682.12-2.524.035-.634.569-.908 1.147-.602.645.343 1.038.962 1.08 1.607.062.972-.022 1.978-.208 2.938-.297 1.532-1.333 2.488-2.757 3.049-.806.317-.967.274-1.451-.423-.179-.257-.346-.521-.515-.785-.022-.035-.021-.084-.074-.31"/><path d="m10.365 36.054c.011.107.036.168.016.194-.401.514-.526 1.449-1.26 1.446-1.056-.005-1.957-.629-2.635-1.436-.842-1.004-1.095-2.227-1.13-3.516-.022-.823-.005-1.625.571-2.28.2-.228.452-.442.724-.571.468-.224.922.055.961.57.06.797.103 1.596.13 2.396.054 1.55.737 2.516 2.172 3.035.158.057.317.114.451.162"/><path d="m112.581 38.352c1.804.641 3.025-.126 4.183-1.115.712-.609 1.432-1.209 2.211-1.865 1.123.639 1.338 2.188.337 3.396-1.153 1.393-2.736 1.674-4.338 1.664-1.087-.007-2.046-.599-2.393-2.08"/><path d="m8.437 40.857c-.366 1.244-1.171 2.056-2.249 2.023-1.659-.05-3.283-.288-4.446-1.743-.933-1.167-.722-2.617.632-3.51.641.664 1.266 1.356 1.938 1.999 1.328 1.267 2.355 1.574 4.125 1.231"/></g><path d="m79.578 16.883c1.599-1.586 2.157-3.424 2.389-5.427 1.477 2.511.684 5.052.377 7.82-1.012-.876-1.841-1.593-2.766-2.393" fill="#ba8f3f"/><path d="m80.809 10.949c.292 2.3-.222 3.729-1.902 5.213-.456-.347-.933-.725-1.425-1.082-.501-.362-1.017-.703-1.631-1.125 1.968-.639 3.754-1.296 4.958-3.006" fill="#956e20"/><path d="m79.867 8.157c-1.739-.396-3.374-.768-5.037-1.146.954-1.687 2.895-2.212 4.343-1.254.965.638 1.106 1.117.694 2.4" fill="#00b49e"/><path d="m36.315 54.084c-.982 1.021-2.576 1.07-3.375.162-.159-.182-.304-.484-.273-.705.096-.701.481-1.278 1.113-1.592.454-.225.979-.226 1.32.267.428.619.822 1.261 1.215 1.868" fill="#fff"/><path d="m9.087 30.533c.104-.384.102-.625.22-.763.285-.336.597-.663.95-.925 1.108-.828 1.843-1.369 3.066.567-.741.116-1.448.172-2.125.348-.661.172-1.291.466-2.111.773" fill="#fdcfb4"/><path d="m107.78 26.979c1.238-1.917 1.916-1.375 3.099-.59.511.34.712.681 1.148 1.681-.809-.288-1.459-.573-2.138-.747-.67-.171-1.369-.228-2.109-.344" fill="#fdcfb4"/><path d="m86.43 52.625c.719.039 1.269.597 1.256 1.274-.011.604-.41.941-1.061.895-.725-.051-1.382-.621-1.379-1.197.003-.568.538-1.007 1.184-.972" fill="#fff"/><path d="m31.028 64.807c-.319-.15-.639-.301-1.014-.479.681-.564.681-.564 1.014.479" fill="#fdcfb4"/><path d="m74.055 50.13c-.68-1.054-1.604-1.676-2.718-1.949-2.115-.518-4.254-.722-6.365.018-1.689.592-3.373 1.207-5.031 1.883-.764.311-1.378.874-1.915 1.737 5.515-.159 10.799-.477 16.029-1.689m6.854-20.706c-.32.34-.551.541-.731.782-1.071 1.437-2.423 2.543-4.06 3.242-1.777.758-3.653 1.128-5.566 1.471-3.662.656-7.349.325-11.015.594-2.139.157-4.308-.039-6.461-.135-1.744-.079-3.49-.194-5.223-.392-1.51-.172-3.006-.472-4.504-.735-1.058-.186-2.122-.337-3.004-1.065-.532-.439-1.139-.789-1.916-1.319.15 1.255.307 2.311.397 3.374.104 1.238.799 1.905 1.932 2.276 1.234.405 2.432.925 3.67 1.315 1.067.337 2.158.634 3.261.816 1.59.262 3.197.426 4.801.587 1.201.121 2.409.215 3.615.239 1.204.024 2.411-.028 3.615-.094 2.147-.116 4.297-.215 6.436-.419 2.317-.222 4.625-.54 6.933-.841 2.23-.291 4.298-1.149 6.404-1.872.78-.267 1.124-.787 1.152-1.619.032-.984.209-1.963.254-2.947.047-1.026.01-2.055.01-3.258m-41.193 8.835c0 .429-.069.745.011 1.018.739 2.544 1.548 5.065 2.969 7.331 1.084 1.728 2.521 3.015 4.559 3.525 1.822.456 3.636.95 5.463 1.386.694.165 1.414.245 2.127.308.294.026.751.014.879-.164.741-1.033 1.954-1.231 2.963-1.78 1.934-1.053 3.929-1.929 6.069-2.537 2.004-.57 3.982-.547 5.974-.279 1.145.153 2.29.502 3.211 1.282.468.395.874.862 1.287 1.275 1.078-.328 1.48-1.341 2.242-1.93 1.085-.84 1.754-1.939 2.086-3.21.563-2.15.509-4.372.653-6.564-1.219.425-2.351.819-3.483 1.214-2.99 1.044-6.124 1.296-9.237 1.605-2.763.274-5.54.497-8.314.539-2.995.045-6 .328-8.994-.22-2.776-.507-5.569-.896-8.161-2.124-.672-.319-1.442-.429-2.304-.675m-2.539-9.504c-.577.892-1.154 1.783-1.759 2.717-.237-1.76 1.163-3.686 3.52-4.921 1.179-.618 2.787-.54 3.694.275-.264.065-.447.145-.63.145-.174 0-.345-.087-.519-.133-1.147-.306-2.74.451-2.939.922-.429 1.012.071 3.008.936 3.711 1.506 1.223 3.202 1.907 5.161 2.022 1.019.06 2.02.385 3.04.521 2.622.349 5.25.608 7.904.564 1.525-.026 3.054.149 4.577.113 2.235-.053 4.467-.201 6.699-.333 1.341-.079 2.699-.106 4.018-.335 1.626-.282 3.275-.604 4.812-1.18 1.425-.533 2.594-1.585 3.581-2.773.37-.446.672-.95.993-1.436.456-.688.645-1.384-.103-2.195-.63.143-1.34.304-2.114.48.702-1.258 2.461-1.799 3.729-1.114.606.329 1.112.876 1.591 1.391.137.148.021.532.021 1.056-.561-.401-.901-.646-1.34-.96-.104.307-.258.576-.28.855-.112 1.429-.165 2.862-.287 4.29-.196 2.276-.429 4.548-.647 6.822-.133 1.382-.231 2.768-.414 4.143-.094.703-.233 1.434-.533 2.066-1.5 3.164-3.952 5.21-7.427 5.814-2.247.392-4.53.583-6.802.818-2.806.289-5.614.59-8.427.762-1.242.077-2.519-.054-3.75-.263-1.853-.315-3.707-.683-5.506-1.216-1.317-.389-2.599-.985-3.799-1.662-1.122-.632-1.645-1.872-2.321-2.917-1.685-2.6-2.521-5.552-3.212-8.519-.517-2.214-1.038-4.454-.999-6.762.006-.351.068-.703.05-1.052-.031-.565-.106-1.127-.162-1.691-.119-.008-.237-.017-.356-.025" fill="#231f20"/><path d="m61.075 18.713c.202-.292.402-.586.608-.875 1.267-1.781.394-4.318-1.649-4.992-1.262-.417-2.099.235-2.853.995-.84.847-.927 1.982-.387 2.975.17.312.431.575.588.892.051.103-.068.332-.169.453-.058.07-.245.073-.359.043-.124-.032-.262-.11-.339-.21-1.256-1.669-1.572-3.732.526-5.425 1.178-.95 2.469-.979 3.798-.627.802.213 1.376.854 1.744 1.594.491.985.695 2.061.497 3.142-.192 1.039-.679 1.922-2.005 2.035" fill="#231f20"/><path d="m74.437 17.539c-1.323-.433-2.578-.886-3.858-1.249-.792-.225-1.601-.084-2.374.207-.335.126-.677.319-1.016.318-.246-.001-.598-.213-.714-.431-.192-.362.135-.583.448-.668 1.875-.507 3.765-.749 5.631-.003.864.345 1.773.709 1.883 1.826" fill="#231f20"/><path d="m44.205 18.823c.502-2.324 4.402-3.365 6.292-1.648-1.213.036-2.3.031-3.382.11-1.166.086-2.058.762-2.91 1.538" fill="#231f20"/><path d="m39.716 38.259c.862.246 1.632.356 2.304.675 2.592 1.228 5.384 1.617 8.161 2.124 2.994.548 5.999.265 8.994.22 2.773-.041 5.551-.265 8.313-.539 3.114-.309 6.248-.561 9.238-1.605 1.132-.395 2.263-.789 3.483-1.214-.144 2.193-.09 4.414-.653 6.565-.332 1.27-1.001 2.369-2.086 3.209-.762.589-1.164 1.602-2.242 1.93-.413-.413-.82-.88-1.287-1.275-.921-.78-2.066-1.129-3.211-1.282-1.993-.267-3.97-.29-5.974.279-2.141.608-4.135 1.484-6.069 2.538-1.009.548-2.222.746-2.963 1.779-.128.178-.585.19-.879.164-.713-.063-1.433-.143-2.127-.308-1.827-.436-3.641-.929-5.463-1.386-2.038-.51-3.476-1.797-4.56-3.525-1.42-2.266-2.229-4.787-2.968-7.33-.08-.274-.011-.59-.011-1.019" fill="#cc4f23"/><path d="m80.909 29.425c0 1.203.036 2.232-.011 3.257-.045.985-.221 1.964-.254 2.948-.028.832-.372 1.351-1.151 1.618-2.106.723-4.175 1.581-6.404 1.872-2.309.302-4.617.62-6.934.841-2.139.204-4.289.303-6.435.42-1.205.065-2.412.117-3.616.093-1.206-.024-2.414-.117-3.615-.238-1.603-.161-3.211-.326-4.801-.587-1.102-.182-2.193-.48-3.26-.816-1.239-.39-2.436-.911-3.67-1.316-1.133-.371-1.828-1.037-1.933-2.276-.09-1.062-.246-2.119-.396-3.373.777.53 1.383.88 1.916 1.319.881.727 1.946.879 3.003 1.064 1.498.263 2.995.564 4.504.736 1.734.197 3.48.313 5.224.391 2.152.097 4.321.292 6.461.136 3.666-.269 7.352.061 11.015-.595 1.913-.343 3.789-.712 5.565-1.471 1.638-.698 2.989-1.805 4.061-3.242.179-.24.411-.442.731-.781" fill="#fff"/><path d="m74.055 50.13c-5.23 1.212-10.514 1.53-16.029 1.689.537-.863 1.151-1.426 1.915-1.737 1.658-.676 3.342-1.291 5.031-1.883 2.111-.74 4.25-.536 6.365-.018 1.114.273 2.038.895 2.718 1.949" fill="#f6a4b1"/></g></svg>