<svg clip-rule="evenodd" fill-rule="evenodd" stroke-linejoin="round" stroke-miterlimit="2" viewBox="0 0 608 610" xmlns="http://www.w3.org/2000/svg" xmlns:xlink="http://www.w3.org/1999/xlink"><linearGradient id="a" gradientTransform="matrix(1 0 0 -1 0 .001887)" gradientUnits="userSpaceOnUse" x1="0" x2="1" y1="0" y2="0"><stop offset="0" stop-color="#e6efc1"/><stop offset="1" stop-color="#fff"/></linearGradient><clipPath id="b"><path clip-rule="nonzero" d="m385.741 280.962c0 38.859 32.658 70.359 72.945 70.359 40.286 0 72.944-31.5 72.944-70.359 0-38.857-32.658-70.358-72.944-70.358-40.287 0-72.945 31.501-72.945 70.358z"/></clipPath><clipPath id="c"><path clip-rule="nonzero" d="m385.741 280.962c0 38.859 32.658 70.359 72.945 70.359 40.286 0 72.944-31.5 72.944-70.359 0-38.857-32.658-70.358-72.944-70.358-40.287 0-72.945 31.501-72.945 70.358z"/></clipPath><clipPath id="d"><path clip-rule="nonzero" d="m384.985 245.677v85.927c5.787 5.852 15.182 8.863 30.437 8.863 40.288 0 116.554-28.772 116.554-67.629 0-38.859-44.612-62.162-84.897-62.162-27.061 0-49.969 14.019-62.094 35.001z"/></clipPath><g clip-path="url(#b)" transform="matrix(4.16667 0 0 4.16667 -1607.2005464 -877.510132)"><path d="m.003-.512h.99v1.027h-.99z" fill="url(#a)" transform="matrix(0 -142.109 -142.109 0 458.82 351.686)"/><g fill-rule="nonzero"><path d="m-.887-10.564s-.768 2.124-.736 4.461c.033 2.338.435 4.771.736 5.855 1.132.256 2.026.07 2.026.07s-.007-8.892-2.026-10.386" fill="#fdcda9" transform="matrix(-.990236 .139399 .139399 .990236 510.417 273.079)"/><path d="m0-11.739c-3.314.285-6.586.683-9.348 2.769-2.94 2.22-2.862 7.77-6.346 8.393-.41-.431-.993-.711-1.721-.769-.367-.03-.458.591-.088.651 2.664.427.823 3.354 1.362 5.005.495 1.518 1.727 2.28 1.625 4.055-.03.531.799.53.828 0 .038-.708-.05-1.24-.267-1.791 2.925-1.272 4.672.999 6.991 1.961 1.746.724 3.763 1.017 5.647 1.019.293 0 .579-.015.861-.04-3.042 7.863-8.218 13.662-16.914 15.315-10.464 1.989-19.679 1.393-29.951-1.561-.436-.125-.618.545-.187.678.009.003.018.004.027.007-1.034 3.402-5.804 2.199-7.987 1.4-2.129-.78-4.075-2.26-4.847-4.454-1.287-3.651 1.399-6.162 4.911-6.308 1.629-.067 3.165.39 4.764.24.186.298.656.417.864.018 2.534-4.866.838-10.012-3.413-13.276-2.269-1.741-3.603-1.57-4.84-5-.693-1.92-.595-4.487-.592-6.496.006-4.856.562-9.712.731-14.566.039-.013.077-.034.114-.066 12.532-11.152 27.329-14.534 43.109-14.539.013.016.016.033.03.049 6.651 7.108 11.811 17.993 14.637 27.306" fill="#fdcda9" transform="translate(480.958 280.817)"/><path d="m0-1.27c-.093-1.137-.2-2.273-.426-3.393-.189-.938-.544-1.832-.79-2.754-4.533.381-9.121.799-11.642 4.642-2.038 3.108-.326 5.395-3.516 6.061-.01.331-.054.662-.063.993-.008.323-.104 1.066.214 1.291.22.156.034.464-.209.357-.394-.174-.523-.566-.58-.967-.069-.488-.134-1.043-.083-1.559-.147.016-.323.025-.487.037.21.433.299.949.238 1.527-.048.447-.169.776-.264 1.092 3.69.09 6.14-2.082 8.91-4.141 1.443-1.073 3.097-2.633 5.025-2.693.801-.025 1.306.245 2.04.487.63.207 1.179.289 1.727.347-.024-.443-.059-.884-.094-1.327" fill="#fdcda9" transform="translate(483.243 277.36)"/><path d="m.028-.325c.01.111.021.22.032.331.002.021-.029.024-.032.004-.016-.11-.031-.219-.047-.329-.004-.029.043-.035.047-.006" fill="#d1d3d4" transform="matrix(-.99282 .119617 .119617 .99282 433.554 259.804)"/><path d="m0 38.487c.256-1.746-.355-3.578-1.354-4.995-.199-.281-.596-.148-.66.104-2.353 1.37-4.24 4.585-4.168 7.437-2.108.28-3.931-1.749-4.837-3.35-1.115-1.973-.824-3.45-.459-5.554.412-2.368 1.167-4.614 2.031-6.85.124-.323-.416-.553-.565-.237-.634 1.354-1.399 3.122-1.961 4.98-13.653-3.473 8.364-28.01 14.101-32.848 1.67 1.054 3.324 2.096 4.898 3.169-.843 1.599-.873 3.601-.123 5.291 1.067 2.401 3.221 3.878 5.617 4.698-2.194 10.205-2.723 22.259-12.52 28.155" fill="#cc7f21" transform="translate(412.951 296.898)"/><path d="m0 5.573c-.254-.446-.646-.898-.857-1.366-.296-.655-.314-1.082-.242-1.471 4.453.266 6.909-2.326 10.448-4.717 1.506-1.018 2.438-1.728 4.322-1.271-.127-.03 1.55.698 1.761.735 1.052.184 1.944-.355 2.965-.162.005.001.008-.001.013 0 .931 2.74 2.388 5.458 4.297 7.533-1.138.372-2.198.847-3.325 1.458-3.922 2.128-7.423 2.97-11.77 1.243-2.91-1.157-4.462-3.145-7.472-1.706-.048-.092-.085-.179-.14-.276" fill="#f99d49" transform="translate(466.641 281.058)"/></g></g><g fill-rule="nonzero"><g clip-path="url(#c)" transform="matrix(4.16667 0 0 4.16667 -1607.2005464 -877.510132)"><path d="m0 11.402c.057.4.186.792.58.967.242.106.429-.201.209-.358-.318-.225-.223-.967-.214-1.29.009-.331.053-.662.063-.993 3.19-.667 1.477-2.953 3.515-6.061 2.955-4.505 8.751-4.304 13.97-4.854-.908 1.935-.347 4.879.129 6.765.09.356.195.717.305 1.076-1.13-.16-2.013-.12-3.178-.502-.734-.242-1.239-.512-2.04-.487-1.928.06-3.582 1.62-5.026 2.693-2.769 2.059-5.219 4.231-8.91 4.14.096-.315.217-.644.265-1.092.061-.577-.028-1.094-.238-1.526.164-.013.34-.021.487-.038-.051.516.014 1.072.083 1.56" fill="#b4d5e5" opacity=".5" transform="translate(466.232 270.919)"/><path d="m0-17.52c1.157 1.358 4.185 1.878 5.625 2.404 1.611.588 3.21 1.315 4.353 2.648 1.434 1.674 1.081 3.211.769 5.101-.908-.537-1.798-1.094-2.683-1.674-.119-.078-.232-.09-.33-.063-.284-.788-.646-1.542-1.168-2.13-.141-.159-.341.018-.318.185.186 1.354.883 2.664 1.233 3.997.416 1.581.514 3.164.697 4.778.012.106.077.185.157.246-.836.345-1.681.669-2.523.968-.004-.091-.013-.181-.015-.273-.006-.272-.272-.336-.447-.23-.082-.053-.189-.069-.313-.024-4.37 1.587-8.792.722-13.19.405 0-.036.006-.069 0-.108-.036-.228-.377-.304-.522-.138-.205.238-2.436-2.866-2.65-3.217-.006-.009-.014-.013-.021-.022 5.483-2.646 8.94-7.224 11.346-12.853" fill="#cc7f21" transform="translate(480.948 309.262)"/><path d="m0-4.261c.071-.045.116-.137.07-.229-.771-1.537-1.144-2.928-1.326-4.437.04.02.068.054.121.056 5.395.203 10.695 1.94 10.551 8.242-.12 5.295-5.762 2.263-8.793.787.443-1.156-.146-3.113-.623-4.419" fill="#ec008c" transform="translate(457.708 318.422)"/><path d="m0 .543c-.087.073-.136.187-.089.337.368 1.175 1.083 2.955.839 4.198-.027.137-.074.25-.13.352-.229.006-.414.173-.475.369-.146-.159-.392-.224-.553-.018-.059.073-.108.152-.163.226-.836.014-1.873-.324-2.551-.487-2.603-.625-4.845-1.846-7.022-3.348-.218-1.377-.577-2.738-.882-4.098-.268-1.19-.458-2.425-.927-3.552 3.457.474 6.932.65 10.406.46-.211 1.912.423 3.992 1.547 5.561" fill="#fdcda9" transform="translate(456.875 312.816)"/><path d="m0-3.828c.87-3.805 3.208-5.591 6.577-6.571.027.107.057.215.083.322.352 1.442.647 2.913 1.115 4.321.099.3.398.312.572.158 2.531 2.088 5.887 3.571 9.192 3.852-1.285 1.957-2.084 4.214-3.492 6.06-1.722 2.257-5.378.606-7.6-.013-2.108-.587-4.551-.991-5.816-2.982-.956-1.504-1.019-3.454-.631-5.147" fill="#ec008c" transform="translate(438.308 321.21)"/><path d="m0-8.962c-.003 0-.002.004-.005.005l-.133-.008c-.514-1.729-1.107-3.439-1.841-5.119-.121-.276-.607-.076-.492.207 4.062 10.025 4.851 21.277 6.598 31.953h-39.664c.004-.045.001-.088-.008-.132 2.809-3.906 2.827-9.967 3.053-14.531.019-.398-.569-.381-.611 0-.515 4.737-.467 10.164-3.187 14.242-5.063.241-10.044-.473-14.676-2.638-1.898-.887-4.68-1.848-4.494-4.352.158-2.13 2.152-5.248 2.949-7.191 3.512-8.561 6.999-17.397 15.278-22.378-.959 3.135-.476 6.816 2.683 8.498 2.218 1.181 5.142 1.737 7.602 2.236 1.147.232 2.518.535 3.642.036.955-.425 1.468-1.307 1.967-2.178 1.068-1.866 2.113-3.738 3.195-5.598.33-.007.607-.062.826-.171 3.037 1.591 9.736 4.827 10.36-.544.329-2.833-.313-5.825-2.678-7.609-.681-.515-1.442-.914-2.241-1.234 4.924-1.57 8.733-1.481 13.855-.871 3.25.387 6.079.52 9.168-.605-.147 3.235 1.045 6.331 2.004 9.395.106.335.207.671.308 1.008-.014.105.019.211.087.286.631 2.104 1.281 4.2 2.543 5.998-2.748.6-5.51 1.054-8.325 1.219-2.58.15-5.207-.197-7.763.076" fill="#91268f" transform="translate(474.981 335.428)"/><path d="m0-22.34c-.116.748 2.043 6.537 2.137 7.635.202 2.361-.013 4.726-.598 7.024-2.544 9.98-10.838 13.939-19.668 17.175-.196-.673-.387-1.339-.588-1.979-.779-2.469-1.556-4.842-1.78-7.403.033-.003.063-.001.1-.013 4.635-1.623 9.708-3.819 12.028-8.479.882-1.771 1.257-3.812.92-5.772-.406-2.367-1.85-3.662-3.027-5.58-.021-.085-.064-.164-.138-.227-.032-.053-.065-.101-.095-.155-.122-.215-.38-.236-.573-.144-2.275-.921-5.456-2.365-4.21-5.279.846-1.979 3.044-3.386 4.912-4.272 1.181-.56 4.706-2.025 5.718-.623 1.688 2.339-4.734 4.823-5.771 6.122-.305.383.109 1.112.581.753.503-.383 1.374-.877 2.317-1.459.384-.157.776-.311 1.167-.465.012.103.078.188.216.171 1.219-.155 2.243-.1 3.372.422.4.185.752-.387.351-.6-.719-.384-1.581-.594-2.421-.567 2.609-.956 5.331-1.76 8.082-2.166-.903 1.754-2.756 4.087-3.032 5.881" fill="#fdcda9" transform="translate(507.302 308.928)"/><path d="m0-2.219c-.244-.204-.704-.11-.663.28.675 6.425-7.989 4.895-11.881 4.739-.526-.022-1.051-.009-1.575.006.021-.111.003-.231-.091-.338-1.603-1.838-2.796-3.863-3.49-6.119 1.666.021.429-.079 2.25-.357 1.206-.948 2.62-1.131 4.243-.549.262.146.523.291.785.436 1.522.001 2.261-.587 3.803-.777 2.701-.333 7.323 1.729 8.45-1.807.352 1.583-.493 3.121-1.831 4.486" fill="#f99d49" transform="translate(527.521 276.942)"/><path d="m0-14.89c1.713-.132 2.894 1.064 4.305 1.868.021.254.167.505.245.746.11.344.179.697.372 1.006.088.143.34.132.378-.049.081-.387-.006-.757-.107-1.134-.034-.126-.068-.265-.109-.4 1.839-.394 3.135.989 3.494 2.725.306 1.482-.103 2.856-.235 4.319-.018.188.18.285.34.25.29.337.516.676.681 1.013-1.718 4.678-5.228 1.547-7.876 1.549-1.036.001-1.114.452-1.968.653-1.997.471-2.68-.481-4.335-.6-1.893-.135-3.179 1.757-5.202 1.777 0 0 0 .001-.001.001-.186-.685-.335-1.388-.426-2.118-.089-.699.397-7.819.446-7.894.023-.004.047-.005.069-.008.006-.003.011 0 .016-.004 1.731-.281 3.45-.774 5.009-1.529 1.551-.752 3.146-2.035 4.904-2.171" fill="#b4d5e5" opacity=".5" transform="translate(519.7 273.971)"/><path d="m0-6.089c1.794-.057 2.922.664 3.563 2.309.027.07.065.126.109.171-.451.145-.901.298-1.346.474-.015.006-.023.021-.034.031-.013.001-.022-.007-.035-.005-.842.214-1.248.754-1.786 1.412-.305.442-.674.821-1.108 1.137-.882.617-1.727.387-2.538-.69-.199-.562-.069-1.483.051-2.045.348-1.638 1.374-2.739 3.124-2.794" fill="#fdcda9" transform="translate(505.67 265.879)"/><path d="m0-1.925c.342-1.209 1.301-2.171 2.604-2.165.646.003 2.207.103 2.731.569-.434.446-.781 1.003-1.003 1.684-.274.841-.433 1.984-.221 2.954-.102-.054-.23-.065-.372.012-1.048.576-2.067 1.042-3.135.25-.983-.729-.918-2.192-.604-3.304" fill="#fdcda9" transform="translate(497.433 263.572)"/><path d="m0-17.393c.063.058.118.123.189.175 1.245.909 2.93.512 4.083-.33.066-.047.106-.105.136-.165.229.535.606.977 1.225 1.198 2.572.917 3.382-2.379 5.157-3.253.094-.045.111-.128.099-.209.331-.03.663-.076.996-.121-2.072 5.695-.424 12.416 3.399 16.927-3.762.232-7.466 1.313-10.969 2.721 1.661-1.307 2.853-2.883 1.729-4.628-1.238-1.919-5.092-.584-6.646.086-2.443 1.054-5.555 3.043-6.178 5.854-.141.638-.117 1.222.031 1.753-.119.03-.239.058-.355.09-.011-.014-.014-.028-.027-.041-2.126-2.175-3.339-4.841-4.403-7.659-.808-2.134-1.866-5.94-.865-8.289 1.656-.195 3.244-.485 4.645-1.056.144-.058.234-.16.288-.276 1.338-.29 2.33-.97 3.21-1.97.144.101.298.193.476.257 1.301.479 2.77-.301 3.78-1.064" fill="#f15a29" transform="translate(497.311 282.952)"/><path d="m0 1.604c.596-1.045 1.415-2.193 2.438-2.862.78-.509 1.715-.424 2.517-.698-.268.597-.429 1.235-.45 1.856-.023.644.15 1.285.533 1.765-1.017.791-1.98 1.347-3.381 1.522-.414.051-1.042.196-1.451.151-.519.222-.758.018-.716-.61.114-.402.283-.776.51-1.124" fill="#fdcda9" transform="translate(487.602 264.317)"/><path d="m0-6.01c.108-.526.249-1.05.417-1.56.756-2.288 1.923-4.079 4.107-5.191.149-.076.139-.294.03-.393.17-.026.333-.099.479-.261.206-.23.009-.718-.336-.576-.499.205-1.546-.802-1.841-1.105-.493-.504-.861-1.192-.641-1.905.375-1.209 2.056-1.124 3.081-1.082.151.006.226-.125.224-.252.063-.051.115-.117.132-.214 1.922-10.478 11.531-15.687 21.1-18.059 9.501-2.355 17.976.108 27.449-.158.276-.008.386-.244.344-.448l.143-.061c.112.26.533.384.746.072.491-.72.924-1.46 1.246-2.273.51-1.293.239-2.538 1.799-2.846 3.258-.643 5.721 1.865 6.349 4.815-.018.037-.039.07-.057.107-.232.476.421.867.714.417 1.759-2.698 2.963-4.608 6.607-4.89 2.976-.23 5.564.172 7.967 1.779-1.803.446-3.624 1.185-5.012 2.396-1.053.919-2.156 2.395-2.187 3.877-.044.041-.097.076-.14.118-.221.217-.026.592.229.613.07.124.264.098.311-.039.013-.038.026-.073.039-.111 3.022-2.174 8.033-2.623 11.607-1.35 6.153 2.189 5.77 10.81 4.774 15.795-.385 1.923-1.143 7.153-3.517 6.587-1.101-.262-1.348-1.377-2.809-1.521-.182-.315-.778-.249-.784.208-.03 2.589-.791 4.871-2.4 6.862-1.958-4.018-4.217-7.786-7.263-11.067 2.624.032 5.273.15 7.942.341.375.026.467-.603.089-.665-18.937-3.074-38.64 1.411-53.006 14.404-.114.103-.122.229-.073.333-.001.008-.007.01-.008.018-.739 6.79-2.224 14.722-.642 21.48.363 1.551.629 2.551 1.846 3.601 1.264 1.092 3.038 1.596 4.306 2.791 3.177 2.997 4.225 7.111 2.137 11.114-.019.037-.021.072-.031.108-2.281-1.347-6.565-1.29-8.685.152-.418.284-.756.632-1.056 1.004-.013-.01-.019-.024-.034-.034-6.622-4.499-14.579-8.333-19.28-15.048-5.25-7.496-3.822-17.875-1.982-26.317.052-.07.11-.136.159-.21.224-.348-.266-.683-.552-.425-1.02.917-2.512 2.171-3.712 1.064-.748-.691-.521-1.047-.325-1.995" fill="#cc7f21" transform="translate(394.8 259.458)"/><path d="m0 .165c-.123-1.372-1.256-1.666-2.354-2.081-.398-.151-.598.345-.421.634-.55.338-.956.965-.993 1.584-.063 1.11.964 1.93 2.022 1.899 1.069-.031 1.84-.986 1.746-2.036" fill="#d1d3d4" transform="translate(459.053 326.952)"/><path d="m.751-.757c-.783.155-.927.991-.752 1.639.217.217.438.426.752.477.602.098 1.342-.344 1.332-.997-.01-.633-.697-1.244-1.332-1.119" fill="#ec008c" transform="matrix(.467888 .883788 .883788 -.467888 456.414 326.592)"/><path d="m0-3.603c-.944-.059-2.091.075-2.72.872-.478.606-.592 1.611.024 2.169.685.621 1.841.332 2.409-.302.562-.628.544-1.642-.092-2.163.158-.023.312-.044.448-.067.303-.05.206-.492-.069-.509" fill="#d1d3d4" transform="translate(460.269 337.276)"/><path d="m-.058-1.293c-.545-.305-1.146.08-1.15.697-.005.625.549 1.21 1.15.822.574-.369.604-.948.463-1.535-.121.088-.283.117-.463.016" fill="#ec008c" transform="matrix(-.508774 -.8609 -.8609 .508774 457.993 335.466)"/><path d="m-3.361-7.998s1.765.87 1.998 2.269c.23 1.397.337 4.683-1.998 4.908-2.336.224-2.615-2.424-2.756-3.345.843-.17 2.393-1.224 2.756-3.832" fill="#fdcda9" transform="matrix(-.781562 -.623828 -.623828 .781562 490.01 264.317)"/><path d="m0 51.096c-1.177.673-2.436 1.204-3.75 1.542-1.542.395-3.139.477-4.723.555-3.577.176-7.159.086-10.738.058-3.113-.025-6.245.027-9.301-.673-2.626-.601-5.416-1.757-6.954-4.087-1.329-2.013-1.585-4.507-1.752-6.853-.1-1.403-.13-2.817-.447-4.194-.318-1.383-.873-2.692-1.546-3.937-1.392-2.578-3.321-4.92-4.275-7.715-.472-1.383-.704-2.835-.779-4.292-.072-1.424.05-2.837.066-4.259.015-1.304-.009-2.61.103-3.911.1-1.149.279-2.365.881-3.37.052-.087.165-.043.182.032.31-.141.619-.283.928-.428 2.641-1.236 5.23-2.58 7.841-3.875 2.58-1.28 5.19-2.483 7.869-3.542 2.659-1.051 5.39-1.914 8.158-2.631s5.574-1.29 8.394-1.765c2.478-.416 4.968-.75 7.462-1.049-1.084-1.475-2.219-2.864-3.402-4.129-.015-.016-.018-.033-.03-.049-15.781.005-30.578 3.386-43.11 14.539-.036.032-.074.053-.113.066-.169 4.853-.726 9.71-.732 14.566-.003 2.009-.1 4.575.592 6.495 1.238 3.431 2.572 3.26 4.84 5.001 4.252 3.263 5.947 8.409 3.413 13.276-.208.399-.678.28-.863-.018-.793.074-1.571-.001-2.353-.087.253.39.415.843.303 1.309-.115.471-.47.848-.835 1.146-.922.753-2.046 1.2-3 1.905-.356.264-.744.599-.871 1.041-.194.679-.071 1.439.166 2.089.28.768.747 1.464 1.273 2.084.412.483.876.916 1.361 1.326 2.387.728 6.203 1.31 7.114-1.691-.009-.003-.018-.005-.026-.008-.432-.132-.249-.802.186-.677 10.273 2.954 19.488 3.549 29.951 1.561 6.728-1.28 11.342-5.046 14.497-10.323-1.785 1.886-3.716 3.677-5.98 4.972" fill="#fbb87d" transform="translate(472.105 249.199)"/><path d="m0-1.121c-.059-.543-.279-1.079-.667-1.469-.342-.345-.783-.536-1.252-.609.328.221.608.517.685.916.079.416-.067.832-.267 1.193-.25.449-.592.846-.941 1.22-.362.385-.746.748-1.122 1.117-.178.174-.357.354-.525.543.009-.004.017-.008.026-.012.001-.002.004-.003.007-.004.073-.036.144-.072.216-.108.111-.056.205.102.108.165.73.197 1.522.247 2.222-.076 1.083-.499 1.635-1.721 1.51-2.876" fill="#fbb87d" transform="translate(464.176 269.401)"/><path d="m0 2.554c.217.551.305 1.083.267 1.791-.029.53-.858.531-.828 0 .102-1.775-1.129-2.537-1.625-4.055-.269-.823.054-1.964.116-2.954-.214.415-.521.78-.809 1.142-.351.443-.717.915-.853 1.475-.142.579-.079 1.231.311 1.7.333.401.799.664 1.2.987.221.177.428.372.595.6.182.246.344.505.506.764.257.407.527.865.981 1.076.245.114.521.138.787.12.387-.024.791-.119 1.146-.274.617-.271 1.087-.767 1.282-1.415.103-.339.131-.691.112-1.042-.942-.355-1.96-.449-3.188.085" fill="#fbb87d" transform="translate(467.003 284.837)"/><path d="m0 2.078c.336.15.673.297 1.016.426 1.047.397 2.127.711 3.222.938 1.11.229 2.242.369 3.376.351.929-.015 1.883-.144 2.747-.503-.732-1.398-1.111-3.032-.942-4.563-3.474.19-6.949.014-10.406-.46.468 1.127.659 2.362.926 3.552.02.087.041.173.061.259" fill="#fbb87d" transform="translate(445.909 309.071)"/><path d="m0-.502c.84-.027 1.702.183 2.421.566.401.214.049.786-.352.601-1.129-.522-2.152-.577-3.371-.422-.138.017-.204-.068-.217-.171-.39.154-.782.307-1.167.465-.942.582-1.813 1.076-2.316 1.459-.473.359-.886-.371-.581-.753.863-1.081 5.441-2.983 5.984-4.939-.583.793-1.355 1.442-2.157 2.002-.447.312-.911.6-1.383.872-.322.185-.645.38-.986.528-.614.266-1.256.466-1.879.709-.65.254-1.354.53-1.892.989-.183.155-.367.351-.414.595-.047.249.081.492.254.663.54.532 1.473.485 2.166.419.866-.081 1.709-.29 2.559-.463.378-.077.748-.134 1.135-.135.575-.002 1.141.093 1.713.137.608.046 1.211-.007 1.788-.212.508-.181.981-.446 1.498-.609.435-.138.896-.206 1.348-.11.438.093.818.333 1.153.622.601-1.627 2.019-3.506 2.778-4.979-2.751.406-5.474 1.209-8.082 2.166" fill="#fbb87d" transform="translate(502.252 283.376)"/><path d="m0 .468c.047-.302.104-.601.188-.895.073-.249.158-.494.225-.744.121-.449.138-.885-.197-1.246-.24-.259-.535-.374-.874-.454-.426-.1-.864-.141-1.3-.168-.619-.038-1.238-.035-1.858-.032.004.008.008.015.013.022.074.063.117.142.139.227 1.177 1.919 2.62 3.213 3.026 5.581.045.26.076.523.096.786.113-.384.211-.773.278-1.168.109-.634.165-1.274.264-1.909" fill="#fbb87d" transform="translate(500.49 292.018)"/><path d="m0-11.019c-.539.483-1.072.97-1.632 1.43-.595.489-1.207.959-1.834 1.407-1.256.897-2.571 1.709-3.931 2.437-.681.365-1.374.709-2.075 1.033-.675.312-1.366.59-2.042.902-1.225.565-2.615 1.292-4.008 1.008-1.214-.247-2.053-1.336-2.583-2.383-.533-1.052-.852-2.205-1.07-3.36-.003-.013.005-.022.007-.034-.052.018-.104.038-.157.057-.036.012-.067.01-.1.013.224 2.56 1.001 4.933 1.78 7.403.202.639.392 1.305.588 1.979 7.39-2.709 14.391-5.938 17.974-12.765-.306.29-.603.592-.917.873" fill="#fbb87d" transform="translate(506.23 317.55)"/><path d="m0 22.88c-.663 1.718-1.26 3.444-1.688 5.225.132-.354.28-.702.444-1.039.845-1.738 2.08-3.254 3.366-4.682 1.312-1.457 2.707-2.841 3.943-4.364 1.15-1.416 2.156-2.985 2.628-4.762-2.441-.608-4.954.237-7.422.023-.058-.005-.124-.061-.097-.126.573-1.4 1.312-2.726 2.122-4.003 1.627-2.564 3.531-4.949 5.498-7.259 1.643-1.93 3.35-3.802 5.056-5.675-.751-.481-1.51-.961-2.275-1.443-5.737 4.838-27.754 29.375-14.1 32.847.561-1.857 1.327-3.626 1.961-4.98.148-.316.688-.086.564.238" fill="#fff" opacity=".2" transform="translate(403.504 299.298)"/><path d="m0-.985c-1.143-1.333-2.741-2.06-4.353-2.648-1.44-.526-4.467-1.046-5.625-2.404-.962 2.253-2.105 4.327-3.468 6.187.017-.007.036-.014.059-.008.476.144.941.318 1.401.507 1.564.645 3.075 1.473 4.74 1.835.012-.258.044-.514.068-.771.026-.256.05-.537-.062-.776-.043-.09.044-.183.136-.137.56.282 1.057.708 1.532 1.111 1.139.97 2.198 2.039 3.212 3.141-.045-.207-.081-.414-.136-.621-.351-1.333-1.048-2.644-1.233-3.997-.024-.168.176-.344.318-.185.521.588.884 1.342 1.168 2.13.097-.028.211-.015.33.063.885.579 1.774 1.137 2.683 1.674.311-1.891.665-3.427-.77-5.101" fill="#fff" opacity=".2" transform="translate(490.926 297.779)"/><path d="m0-2.593c.725.421 1.515.717 2.278 1.059.713.319 1.462.674 2.015 1.243.237.244.459.551.552.884.059.213.09.434.151.647.06.206.154.363.4.345.187-.014.324-.182.467-.282.219-.151.51-.177.768-.18.301-.003.594.055.886.115-1.119-3.681-4.809-5.067-8.823-5.434.083.743.691 1.246 1.306 1.603" fill="#fff" opacity=".2" transform="translate(459.255 313.839)"/><path d="m0 4.453c.238-.175.512-.341.804-.404.226-.049.462-.054.693-.05.541.011 1.079.084 1.62.093.394.006.938.011 1.223-.312.265-.302.168-.773.016-1.103-.197-.429-.497-.808-.792-1.173-.337-.416-.691-.82-1.017-1.245-.293-.382-.575-.787-.743-1.243-.088-.237-.124-.486-.105-.732-1.405 1.085-2.416 2.597-2.92 4.802-.225.988-.291 2.06-.124 3.083.31-.665.751-1.281 1.345-1.716" fill="#fff" opacity=".2" transform="translate(439.528 314.296)"/><path d="m0 3.444c1.449-.184 2.866-.569 4.325-.683.704-.055 1.416-.036 2.121-.017.718.019 1.436.055 2.153.103 1.427.093 2.851.228 4.278.344 1.389.113 2.778.188 4.171.244 1.087.044 2.172.028 3.223-.229-.186-1.036-.292-2.083-.244-3.147-3.089 1.125-5.918.993-9.168.606-5.121-.611-8.93-.7-13.854.871.799.32 1.559.719 2.241 1.233.276.208.525.436.754.675" fill="#fff" opacity=".2" transform="translate(466.099 308.425)"/><path d="m0 27.16c1.202-.161 2.404-.534 3.223-1.479.217-.252.415-.53.534-.843.126-.33.184-.682.228-1.031.08-.642.106-1.329.425-1.908.151-.274.37-.509.658-.636.265-.118.556-.141.842-.132.546.019 1.199.201 1.694-.113.175-.111.286-.3.382-.478.132-.242.239-.496.337-.753.186-.479.331-.971.503-1.456.129-.363.299-.718.452-1.073.17-.39.345-.777.532-1.159.383-.784.825-1.541 1.341-2.246.475-.648 1.01-1.249 1.56-1.835.281-.299.565-.594.847-.893.254-.27.523-.536.747-.832.797-1.05 1.188-2.563.884-3.858-.304-1.296-1.492-2.096-1.971-3.31-.25-.634-.333-1.359-.347-2.037-.01-.462.036-.939.174-1.384-6.981 5.123-10.21 13.25-13.45 21.149-.728 1.774-2.436 4.517-2.852 6.603 1.08-.144 2.176-.151 3.257-.296" fill="#fff" opacity=".2" transform="translate(422.875 318.049)"/><path d="m0 20.677c.245-.556.452-1.13.598-1.721.12-.487.178-.965.001-1.445-.282-.761-.973-1.286-1.218-2.07-.388-1.238.502-2.409 1.042-3.448.673-1.295 1.344-2.591 1.974-3.907.531-1.105 1.075-2.193 1.434-3.369.354-1.162.576-2.374.568-3.591-.003-.583-.06-1.166-.196-1.734-.125-.527-.298-1.096-.655-1.515-.258-.302-.643-.542-1.053-.445-.419.099-.677.478-.835.859.005.012.015.02.014.036-.012.331-.053.66-.119.984-.289 1.407-1.001 2.686-1.66 3.945-.647 1.234-1.213 2.504-1.905 3.715-1.386 2.426-3.089 4.682-5.147 6.579-2.276 2.097-4.716 4.01-6.959 6.144-.229.217-.453.436-.689.645-.188.169-.383.344-.512.565-.236.403-.098.91.326 1.106.401.186.884.195 1.317.218.463.024.937.025 1.391.124.564.123 1.095.465 1.54.82.064.051.114.115.176.17h9.153c.509-.869 1.008-1.743 1.414-2.665" fill="#fff" opacity=".2" transform="translate(464.909 330.163)"/><path d="m0-45.497c-3.574-1.272-8.585-.824-11.607 1.35-.013.038-.026.073-.039.111-.047.137-.242.163-.311.039-.255-.021-.45-.396-.23-.613.043-.042.097-.077.141-.118.03-1.482 1.134-2.958 2.187-3.877 1.387-1.211 3.209-1.95 5.011-2.396-2.402-1.607-4.99-2.009-7.966-1.779-3.644.282-4.848 2.192-6.607 4.89-.293.45-.946.06-.714-.417.018-.037.038-.07.057-.107-.628-2.95-3.091-5.458-6.349-4.815-1.56.308-1.289 1.553-1.8 2.846-.321.813-.754 1.553-1.246 2.273-.213.312-.633.188-.745-.072l-.143.061c.042.204-.069.44-.344.448-9.474.266-17.948-2.197-27.449.158-9.57 2.372-19.178 7.581-21.1 18.059-.017.097-.069.163-.133.214.003.127-.072.258-.223.252-1.026-.042-2.706-.127-3.081 1.082-.064.207-.068.41-.043.609.523.174 1.035.391 1.521.616.995.46 1.949 1.005 2.878 1.585.068.043.06.128 0 .173-.577.429-1.27.73-1.987.908.074.109.071.282-.06.349-2.184 1.112-3.351 2.903-4.107 5.192-.168.509-.309 1.033-.417 1.559-.197.948-.423 1.304.325 1.995.072.067.148.099.223.149.67-.491 1.32-1.008 1.954-1.546.408-.346.812-.722 1.272-.998.279-.168.611-.293.931-.164.393.158.647.578.847.928.421.734.741 1.528 1.065 2.307.019.045-.021.116-.069.123-.745.109-1.431.457-2.057.858-.198.128-.384.273-.575.411-1.347 6.954-2.049 14.827 1.003 21.229.034-.805.085-1.609.176-2.412.356-3.109 1.321-6.206 3.582-8.467 1.174-1.174 2.644-1.882 3.958-2.867.866-.647 1.577-1.418 1.826-2.495.296-1.282.171-2.673.164-3.976-.008-1.404-.167-2.909.301-4.264.759-2.199 3.501-2.618 5.478-3.143-.875-1.829-2.493-3.294-2.972-5.304-.013-.055.017-.106.07-.123 1.8-.588 8.885-1.029 6.632-4.386-.033-.048-.007-.107.035-.137.538-.383 1.084-.754 1.638-1.112 4.774-3.084 10.04-5.333 15.611-6.471 2.896-.592 5.865-.716 8.811-.841 1.449-.061 2.901-.118 4.348-.232 1.429-.113 2.834-.311 4.271-.302.712.004 1.424.031 2.135.056.607.021 1.248-.025 1.847.065 1.224.185 2.403.601 3.611.867.578.128 1.185.247 1.78.209.657-.042.983-.325 1.361-.814.275-.357.6-.554 1.016-.716.497-.194.996-.407 1.51-.554.546-.157.949-.084 1.4.262.919.705 1.778 1.47 2.741 2.122.652.442 1.265.727 2.06.758 1.073.041 2.147-.023 3.218-.06 2.201-.077 4.469-.073 6.599.559.754.224 1.458.538 2.108.93.146-4.501-.881-9.441-5.328-11.024" fill="#fff" opacity=".2" transform="translate(479.706 270.365)"/><path d="m0-.173c-.157.722-.31 1.462-.457 2.21.223-.157.443-.318.678-.457.535-.318 1.117-.583 1.732-.694-.326-.786-.648-1.591-1.095-2.316-.177-.288-.417-.646-.757-.719-.286-.061-.612.142-.86.316-.465.327-.887.716-1.32 1.081-.527.444-1.07.867-1.626 1.275 1.118.56 2.402-.514 3.312-1.332.287-.257.777.078.552.426-.049.074-.106.139-.159.21" fill="#fff" opacity=".2" transform="translate(399.23 255.187)"/><path d="m0 1.406c-.419-.259-.842-.513-1.272-.752-.905-.502-1.845-.963-2.829-1.293.11.391.339.755.629 1.052.295.303 1.342 1.31 1.841 1.104.323-.132.512.286.365.528.449-.163.881-.372 1.266-.639" fill="#fff" opacity=".2" transform="translate(401.128 243.949)"/><path d="m0 5.47c.264.091.575.062.839.021.334-.052.66-.139.984-.229.162-.044.322-.088.478-.151.202-.082.399-.174.612-.222.321-.072.7-.141 1.012.001.038.018.057.075.046.113-.051.16-.142.3-.267.412-.282.256-.658.374-.999.529-.164.075-.334.157-.473.276-.09.078-.269.253-.225.392.031.1.207.095.289.095.166 0 .331-.029.493-.063.531-.113.99-.392 1.438-.69.849-.567 1.383-1.457 1.971-2.267.29-.4.6-.79.973-1.118.407-.358.893-.617 1.344-.915.916-.606 1.85-1.231 2.94-1.469.471-.103 1.013-.169 1.464.044.208.099.415.248.505.469.074.181.048.378-.027.555-.142.341-.423.558-.674.814-.125.129-.248.261-.353.407-.075.105-.176.244-.174.38.002.128.135.17.242.192.182.038.372.019.548-.038.381-.122.7-.403.976-.683.305-.307.575-.646.857-.974.241-.28.494-.584.824-.763.408-.222.893-.285 1.352-.284.262 0 .524.028.783.072-.072-.196-.147-.392-.214-.588-.004-.001-.007.001-.012 0-1.022-.193-1.913.346-2.966.161-.211-.036-1.888-.765-1.761-.734-1.884-.457-2.815.253-4.322 1.271-2.779 1.878-4.894 3.873-7.828 4.517-.261.099-.538.238-.675.467" fill="#fff" opacity=".5" transform="translate(467.486 278.591)"/><path d="m0-6.361c-.276-.084-.564-.132-.852-.155-.211-.018-.443-.036-.652.014-.053.012-.087-.017-.106-.054-1.917.315-3.87.946-5.312 2.299-.695.652-1.4 1.319-1.93 2.117-.254.384-.471.802-.568 1.255-.041.188-.047.381-.016.571.022.137.063.304.177.395.143.114.349.041.491-.037.188-.102.29-.319.42-.48.373-.464.791-.897 1.191-1.338.369-.406.727-.826 1.14-1.19.35-.309.732-.581 1.134-.816.395-.231.81-.425 1.232-.601.447-.186.905-.37 1.37-.509.43-.13.883-.177 1.324-.256.422-.076.866-.17 1.225-.418.139-.096.404-.297.285-.488-.11-.174-.368-.253-.553-.309" fill="#fff" transform="translate(480.05 277.718)"/><path d="m0 .638c.814.081 1.582-.142 2.277-.562.702-.422 1.533-.864 2.373-.61.337.102.798.334.603.757-.075.165-.214.3-.348.419-.171.153-.356.289-.539.426-.174.131-.349.259-.509.407-.122.113-.238.232-.241.406-.008.412.831.163 1.034.104.681-.197 1.269-.593 1.811-1.038.617-.509 1.181-1.124 1.89-1.508.359-.194.758-.332 1.17-.332.425 0 .808.21 1.225.263.346.044.709.006.819-.376.033-.113.063-.27.061-.42-.438-.026-.858-.035-1.235.012-1.542.19-2.282.778-3.803.777-.262-.145-.524-.29-.785-.436-1.623-.582-3.037-.399-4.243.549-1.822.278-.584.378-2.25.357.077.249.182.486.271.73.139.029.277.061.419.075" fill="#fff" opacity=".5" transform="translate(510.511 273.458)"/><path d="m0 .512c-.029.113-.043.243.033.342.07.089.188.128.294.151.489.107 1.021-.041 1.483-.196.423-.141.926-.357 1.16-.762.114-.199.122-.422.104-.647-.72.872-1.84 1.091-3.082 1.065.004.015.013.028.008.047" fill="#fff" opacity=".5" transform="translate(525.71 271.869)"/><path d="m0 2.904c.244.554.81-.395.928-.595.342-.578.664-1.183.856-1.829.083-.279.134-.572.193-.862-.545-.057-1.089-.125-1.611-.172-.022.349-.045.698-.081 1.044-.048.462-.092.936-.205 1.388-.075.304-.215.72-.08 1.026" fill="#fff" opacity=".3" transform="translate(522.284 272.617)"/><path d="m0-1.674c-.087-.498-.345-1.037-.859-1.1-.001.001-.001.001-.002.002-.055.013-.111.019-.166.027.004.051.006.103.015.154.045.242.114.48.159.722.09.484.077.961.043 1.449-.035.505-.074 1.022.041 1.52.236-.141.398-.403.507-.643.293-.644.383-1.436.262-2.131" fill="#fff" transform="translate(527.393 265.19)"/><path d="m0-5.661c-.146-.02-.331-.012-.448.09-.1.087-.069.223-.022.33.136.317.422.548.635.81.247.305.462.635.622.993.298.667.389 1.39.396 2.115.002.282-.01.565-.018.848.553.148 1.12.338 1.684.495.062-.433.1-.871.101-1.303.003-.855-.137-1.742-.579-2.487-.204-.346-.462-.659-.756-.931-.069-.064-.141-.127-.217-.188.015.103-.148.142-.192.032-.047-.117-.135-.215-.227-.302-.125-.064-.254-.118-.393-.146-.087-.017-.085-.111-.035-.162-.175-.095-.361-.169-.551-.194" fill="#fff" transform="translate(521.521 271.689)"/><path d="m0-3.956c-.502-.151-1.149-.26-1.628.02-.111.065-.212-.108-.101-.173.105-.061.219-.107.337-.137.03-.007.061-.006.09-.012-.742-.01-1.476.162-2.176.422-.796.297-1.551.691-2.321 1.049-.66.308-1.334.562-2.029.782-1.248.394-2.704.784-3.537 1.874.117.039.235.08.355.109 1.398.334 2.823-.132 4.115-.644 1.373-.543 2.723-1.22 4.19-1.469.66-.112 1.317-.115 1.977 0 .428.074.844.213 1.27.298.223.045.449.081.678.084.167.002.363-.008.505-.11.138-.099.158-.273.139-.431-.031-.261-.143-.506-.308-.708-.388-.473-.98-.779-1.556-.954" fill="#fff" transform="translate(521.659 264.083)"/><path d="m0 9.331c.991.215 1.879-.502 2.636-1.032.404-.282.886-.69 1.415-.606.215.034.424.097.639.129.192.027.385.04.578.044.211.006.42.015.63-.021.814-.139 1.481-.685 2.206-1.039.358-.174.74-.315 1.139-.344.431-.03.879.033 1.308.072.359.032.721.061 1.082.029.43-.039.846-.172 1.237-.356.46-.216.887-.495 1.348-.711.374-.176.761-.318 1.157-.434.221-.064.444-.123.667-.179.224-.056.435-.147.661-.195.367-.076.739-.084 1.112-.082.937.006 1.869-.127 2.771-.379.801-.224 1.583-.503 2.383-.727-.187-1.231-.255-2.478-.17-3.715-.148.083-.294.167-.436.26-.42.278-.833.581-1.298.78-.407.174-.837.236-1.276.179-.375-.048-.739-.164-1.118-.175-.22-.006-.42.024-.619.121-.185.089-.356.207-.524.323-.319.221-.699.52-1.109.503-.173-.007-.336-.039-.497-.104-.129-.051-.24-.072-.379-.083-.177-.014-.326-.12-.473-.209-.182-.112-.359-.192-.578-.154-.423.072-.783.375-1.129.607-.163.11-.33.217-.513.29-.215.086-.459.121-.688.155-.414.062-.836.079-1.246.173-.859.196-1.572.754-2.399 1.039-.63.217-1.261.108-1.893-.048-.448-.11-.891-.236-1.354-.251-.394-.013-.778.056-1.145.195-.439.166-.849.415-1.241.671-.331.216-.639.468-.98.671-.263.158-.565.288-.879.232-.343-.061-.592-.334-.785-.612-.462.247-.87.579-1.254.936.066 1.339.381 2.747.743 3.955.088.035.176.071.271.092" fill="#fff" opacity=".24" transform="translate(485.54 267.208)"/><g fill="#231f20"><path d="m0-2.501c1.539-.509 3.501-2.092 4.604.028.967 1.855-.706 3.451-2.284 4.107-.457.189-.288.928.211.765 2.1-.687 3.894-2.902 2.817-5.14-1.119-2.322-4.154-1.787-5.444.115-.042.061.028.148.096.125" transform="translate(457.451 269.214)"/><path d="m0 3.145c1.353-.452 2.332-1.498 3.768-1.9 1.732-.487 3.401-.346 5.108.147.485.14.667-.578.206-.747-1.77-.649-3.712-.676-5.522-.157-1.356.388-3.162 1.111-3.733 2.483-.042.1.079.205.173.174" transform="translate(440.142 265.061)"/><path d="m-3.099-5.302c1.505 1.906 1.614 4.6.779 6.801-.199.527-.985.116-.779-.408.823-2.098.434-4.084-.628-5.999-.235-.424.336-.764.628-.394" transform="matrix(-.531348 -.847154 -.847154 .531348 464.533 259.993)"/><path d="m.027-.326c.011.111.022.22.033.331.002.021-.029.024-.033.004-.015-.11-.03-.219-.045-.329-.005-.029.042-.034.045-.006" transform="matrix(-.99282 .119617 .119617 .99282 433.554 259.805)"/><path d="m0 7.023c.045-1.664.525-2.956 1.756-4.109 1.199-1.123 2.68-2.092 4.383-1.921.503.05.626-.817.12-.89-3.202-.465-8.235 3.543-6.717 7.044.103.238.452.099.458-.124" transform="translate(434.336 252.824)"/><path d="m0 2.715c-.786-1.151-1.809-1.996-3.119-2.493-1.175-.445-2.875-.814-4.017-.142-.26.153-.253.659.092.708 1.122.159 2.188-.101 3.316.227 1.26.365 2.378 1.1 3.269 2.054.223.238.648-.077.459-.354" transform="translate(467.493 249.45)"/><path d="m0-39.804c-.738 6.791-2.221 14.721-.638 21.479.364 1.551.627 2.55 1.843 3.6 1.266 1.091 3.039 1.595 4.308 2.791 3.178 2.998 4.226 7.113 2.137 11.118-.302.58.576 1.095.878.513 2.534-4.864.838-10.009-3.413-13.272-2.268-1.741-3.602-1.569-4.84-5.001-.692-1.92-.593-4.488-.59-6.497.006-4.911.58-9.823.741-14.731.01-.279-.398-.267-.426 0" transform="translate(422.651 295.967)"/><path d="m0-11.029c-2.126-1.643-6.859-1.69-9.13-.147-2.308 1.569-2.809 4.68-1.726 7.119 1.403 3.159 4.685 4.724 7.926 5.289 2.628.458 6.216.379 6.666-2.942.079-.586-.758-.865-.918-.253-.933 3.598-5.826 2.36-8.043 1.548-2.129-.78-4.076-2.26-4.849-4.455-1.287-3.654 1.4-6.167 4.914-6.312 1.759-.073 3.408.472 5.146.202.022-.003.031-.036.014-.049" transform="translate(430.714 306.587)"/><path d="m0-1.269c-.311-1.221 1.655-.628 2.106-.412.555.266 1.061.69 1.567 1.036 1.006.687 2.004 1.387 3.025 2.049.442.285.825-.402.407-.697-1.562-1.106-3.348-2.678-5.167-3.306-1.04-.359-2.032-.149-2.701.726-.089.116-.048.324.054.418.132.123.265.245.397.368.135.126.359.002.312-.182" transform="translate(423.894 302.184)"/><path d="m0 11.982c-2.265-.911-6.094-2.347-4.746-5.498.848-1.98 3.045-3.387 4.913-4.273 1.183-.562 4.709-2.027 5.723-.623 1.691 2.343-4.733 4.826-5.771 6.127-.304.38.108 1.104.576.747 1.796-1.366 8.28-4.124 6.104-7.493-1.238-1.917-5.089-.582-6.641.088-2.443 1.053-5.554 3.042-6.177 5.851-.749 3.381 3.123 5.243 5.793 5.89.543.132.721-.617.226-.816" transform="translate(496.553 276.906)"/><path d="m0 27.717c-1.554-5.275-4.205-10.341-6.545-15.308-2.21-4.693-4.754-9.086-8.411-12.798-.47-.478-1.189.246-.732.732 6.727 7.192 11.935 18.252 14.739 27.636.18.605 1.129.348.949-.262" transform="translate(482.013 241.426)"/><path d="m-1.133-.185c.597 2.31.885 4.666 1.017 7.045.035.653-.991.699-1.017.044-.095-2.3-.337-4.562-.905-6.798-.15-.59.752-.885.905-.291" opacity=".3" transform="matrix(.951987 -.306137 -.306137 -.951987 484.821 277.458)"/><path d="m0 11.215c10.819 3.318 22.073 4.476 33.07 1.049 7.989-2.489 12.356-8.414 15.169-15.914.215-.573-.708-.826-.917-.253-3.003 8.217-8.232 14.302-17.184 16.003-10.464 1.988-19.679 1.392-29.951-1.562-.436-.125-.619.545-.187.677" transform="translate(433.45 293.547)"/><path d="m27.477-18.689c-8.747 18.029-5.971 36.198.615 54.348.128.354-.453.615-.615.268-8.086-17.408-9.159-37.553-.555-54.927.182-.368.733-.056.555.311" transform="matrix(.271973 .962305 .962305 -.271973 433.693 224.738)"/><path d="m0-8.91c2.664.427.823 3.354 1.361 5.005.496 1.518 1.728 2.28 1.626 4.055-.03.531.799.53.827 0 .055-1.021-.132-1.677-.628-2.551-.254-.446-.647-.898-.858-1.366-.637-1.41-.008-1.773.116-2.939.168-1.583-.767-2.728-2.356-2.855-.367-.03-.458.591-.088.651" transform="translate(463.455 289.032)"/><path d="m0 13.45c5.358-.232 2.813-2.709 5.132-6.246 4.009-6.11 13.241-3.56 19.174-5.975.605-.246.34-1.243-.275-.993-5.665 2.299-12.544.363-17.669 4.234-2.968 2.241-2.852 7.875-6.439 8.413-.322.048-.245.581.077.567" transform="translate(465.25 267.38)"/><path d="m0-.745c3.053-1.476 4.823.891 7.197 1.875 1.746.725 3.763 1.018 5.647 1.02 4.468.004 7.478-3.193 11.706-4.223.473-.116.271-.826-.201-.728-1.9.396-3.428 1.03-5.123 1.95-3.922 2.127-7.423 2.97-11.77 1.243-2.99-1.189-4.541-3.266-7.721-1.59-.3.159-.036.599.265.453" transform="translate(466.797 288.221)"/><path d="m0 9.357c4.717-1.936 9.973-3.673 15.137-3.527 2.474.07 4.888.572 7.381.254 3.473-.445 6.005-1.882 5.678-5.675-.044-.516-.861-.514-.806 0 .675 6.425-7.99 4.895-11.881 4.738-5.43-.219-10.812 1.56-15.701 3.754-.255.114-.071.563.192.456" transform="translate(499.468 274.595)"/><path d="m0 5.372c2.308-.189 4.68-.733 6.766-1.744 1.551-.752 3.146-2.035 4.904-2.171 1.86-.143 3.089 1.288 4.673 2.072.382.189.692-.336.334-.573-2.186-1.443-3.138-2.969-6.037-2.089-1.352.411-2.522 1.249-3.775 1.871-2.229 1.105-4.612 1.477-6.899 2.383-.122.048-.122.264.034.251" transform="translate(508.03 257.623)"/><path d="m0-4.755c1.973-.585 3.365.867 3.74 2.681.306 1.482-.103 2.856-.235 4.319-.025.266.384.366.501.136 1.387-2.719.085-9.747-4.243-7.699-.319.15-.094.661.237.563" transform="translate(524.538 265.916)"/><path d="m2.042-6.773c-2.208 2.203-1.34 4.552.521 6.579.313.341-.19.788-.521.48-2.138-1.994-3.091-5.43-.329-7.416.248-.179.557.13.329.357" transform="matrix(-.999144 -.0413654 -.0413654 .999144 530.004 275.096)"/><path d="m0 1.991c.081-.387-.006-.757-.106-1.134-.092-.341-.156-.785-.486-.967-.149-.082-.331-.007-.381.155-.102.336.119.671.223.989.111.344.18.697.372 1.006.088.143.34.133.378-.049" transform="translate(525 260.66)"/><path d="m0 10.174c.569-2.01 1.632-3.431 1.152-5.607-.453-2.063-1.837-3.074-3.229-4.518-.221-.229-.706.006-.57.332.615 1.466 2.184 2.066 2.825 3.625.918 2.235-.129 3.92-.449 6.093-.027.175.22.255.271.075" transform="translate(524.42 264.558)"/><path d="m0-17.061c0-.097 0-.194-.001-.292 0-.278-.36-.291-.454-.062-2.385 5.873-.672 12.973 3.377 17.612.337.386.896-.178.561-.562-2.197-2.517-3.633-5.382-4.054-8.722-.089-.705.405-7.934.448-7.903.052.037.123-.013.123-.071" transform="translate(509.827 279.774)"/><path d="m0-17.397c-1.523 1.841-.866 5.355-.326 7.498.872 3.456 2.632 7.131 5.116 9.699.367.38.949-.202.58-.58-2.126-2.175-3.339-4.841-4.404-7.659-.858-2.269-2.001-6.426-.652-8.716.112-.19-.166-.422-.314-.242" transform="translate(484.81 286.396)"/><path d="m0 2.551c-.318-.226-.223-.968-.214-1.291.012-.421.101-.843.071-1.264-.025-.359-.54-.459-.644-.088-.178.632-.093 1.391-.002 2.034.057.4.185.792.58.966.242.106.429-.201.209-.357" transform="translate(467.02 280.38)"/><path d="m0 6.872c4.577.356 7.048-2.283 10.639-4.709 1.507-1.018 2.438-1.728 4.322-1.271-.127-.031 1.55.698 1.761.734 1.052.185 1.943-.354 2.965-.161.484.091.691-.648.205-.74-1.372-.261-2.311-.135-3.632-.569-.735-.242-1.239-.512-2.04-.487-1.928.06-3.582 1.62-5.026 2.693-2.84 2.112-5.341 4.35-9.194 4.136-.242-.013-.238.355 0 .374" transform="translate(465.351 276.914)"/><path d="m0 3.37c1.883.028.515-.069 2.387-.355 1.206-.948 2.62-1.131 4.243-.549.262.145.523.291.785.436 1.521.001 2.261-.587 3.803-.778 2.886-.356 7.963 2.023 8.632-2.608.039-.276-.329-.391-.424-.117-1.702 4.846-5.252 1.653-7.921 1.655-1.036.001-1.114.452-1.969.653-1.996.471-2.68-.481-4.335-.6-1.892-.135-3.179 1.757-5.201 1.777-.312.004-.312.481 0 .486" transform="translate(509.684 269.92)"/><path d="m0 7.825c-.218-1.47-.606-2.921-.933-4.372-.285-1.269-.474-2.591-1.01-3.78-.143-.317-.653-.152-.642.174.043 1.3.47 2.587.777 3.848.352 1.442.65 2.911 1.113 4.322.147.452.762.259.695-.192" transform="translate(446.778 307.438)"/><path d="m-1.187-.267c-.37 2.56-.008 4.519.748 6.957.138.444-.488.776-.748.367-1.349-2.122-1.359-5.191-.32-7.436.085-.183.347-.073.32.112" transform="matrix(.948956 -.315408 -.315408 -.948956 458.82 313.304)"/><path d="m0-2.153c2.787 2.466 6.742 4.196 10.505 4.264 3.016.055 1.396-4.307.735-6.017-.159-.413-.814-.253-.677.187.369 1.174 1.083 2.954.839 4.197-.31 1.579-2.664.733-3.872.442-2.679-.644-4.978-1.916-7.217-3.48-.24-.168-.534.213-.313.407" transform="translate(446.223 317.416)"/><path d="m0-16.47c-3.261-1.081-6.437 2.778-7.502 5.378-1.35 3.298-1.099 7.557 2.368 9.402 2.218 1.181 5.142 1.737 7.6 2.236 1.147.232 2.518.535 3.641.036.955-.424 1.467-1.306 1.965-2.176 1.154-2.015 2.268-4.038 3.451-6.038.223-.375-.339-.844-.623-.481-1.668 2.136-2.489 4.805-4.109 6.93-1.723 2.259-5.38.608-7.603-.012-2.109-.587-4.554-.991-5.819-2.983-.956-1.505-1.016-3.456-.628-5.149.93-4.061 3.514-5.835 7.259-6.769.194-.049.175-.316 0-.374" transform="translate(445.566 326.709)"/><path d="m0-14.207c5.394.203 10.695 1.94 10.554 8.243-.127 5.676-6.6 1.79-9.405.501-.55-.253-1.037.534-.483.827 2.784 1.473 10.125 5.311 10.78-.318.329-2.833-.309-5.825-2.675-7.609-2.434-1.838-5.803-2.319-8.771-2.274-.406.006-.404.615 0 .63" transform="translate(456.573 323.757)"/><path d="m0 .888c-.417-.75-1.457-1.283-2.266-1.465-.54-.122-.756.661-.228.829.38.12.737.247 1.079.455.328.2.595.476.917.68.317.2.67-.191.498-.499" transform="translate(459.607 313.264)"/><path d="m0 4.058c5.097-1.69 8.958-1.599 14.2-.974 3.277.391 6.124.526 9.243-.63.487-.179.279-.964-.216-.784-7.764 2.819-15.693-2.101-23.364 2.064-.174.095-.056.388.137.324" transform="translate(462.758 306.005)"/><path d="m0-17.799c-.324 3.439.973 6.711 1.986 9.951.85 2.714 1.497 5.528 3.289 7.784.363.455 1.003-.189.641-.64-1.909-2.376-2.584-5.729-3.482-8.578-.89-2.824-1.776-5.522-1.836-8.517-.009-.391-.563-.377-.598 0" transform="translate(486.148 325.727)"/><path d="m0-35.014c4.456 10.999 4.99 23.489 7.139 35.065.08.432.818.339.773-.105-.654-6.344-1.95-12.643-3.106-18.912-1.027-5.563-2.036-11.046-4.315-16.256-.12-.275-.606-.075-.491.208" transform="translate(472.51 356.566)"/><path d="m0 .06c5.105 1.601 11.646.459 16.757-.754.514-.122.297-.907-.218-.791-2.891.646-5.793 1.134-8.755 1.307-2.58.152-5.207-.197-7.763.077-.088.01-.114.132-.021.161" transform="translate(474.959 326.568)"/><path d="m0 20.439c4.635-1.624 9.706-3.821 12.025-8.48.881-1.771 1.257-3.811.92-5.771-.433-2.523-2.049-3.818-3.259-5.96-.229-.405-.956-.13-.774.326.365.921.642 1.243 1.186 2.058 1.97 2.948 2.701 6.066.84 9.364-2.366 4.191-6.828 6.131-11.158 7.666-.498.176-.285.974.22.797" transform="translate(486.904 288.588)"/><path d="m0 39.053c8.369-2.648 16.297-6.352 19.958-14.871 1.589-3.698 2.099-7.785 1.479-11.768-.254-1.641-1.175-3.341-1.353-4.945-.269-2.421 1.508-4.628 2.306-6.835.163-.451-.57-.764-.78-.329-.857 1.772-2.853 4.222-3.141 6.084-.115.744 2.044 6.543 2.136 7.637.203 2.361-.011 4.726-.597 7.024-2.593 10.175-11.163 14.091-20.185 17.364-.394.143-.235.769.177.639" transform="translate(488.836 280.198)"/><path d="m0-.546c-.842.213-1.248.753-1.786 1.412-.305.442-.674.82-1.108 1.137-.881.618-1.729.389-2.541-.69-.199-.562-.069-1.484.05-2.046.35-1.639 1.377-2.742 3.128-2.797 1.795-.056 2.924.665 3.566 2.312.203.52.928.322.836-.231-.334-1.976-2.041-2.932-3.933-3.028-2.067-.104-3.721.906-4.371 2.897-.495 1.518-.659 4.043 1.177 4.697 2.574.918 3.378-2.375 5.157-3.249.235-.116.067-.475-.175-.414" transform="translate(507.927 263.316)"/><path d="m0-5.715c-.45-1.032-2.675-1.151-3.661-1.028-1.608.202-2.656 1.635-2.951 3.136-.257 1.309-.222 2.986.955 3.846 1.248.912 2.922.504 4.082-.328.418-.3.055-.963-.411-.703-1.044.584-2.072 1.042-3.136.252-.983-.73-.919-2.194-.604-3.306.342-1.209 1.301-2.171 2.604-2.165.653.004 2.243.104 2.751.583.207.194.475-.049.371-.287" transform="translate(503.158 265.493)"/><path d="m0-6.604c-2.659-.717-4.854 2.006-4.937 4.44-.036 1.018.413 2.032 1.42 2.403 1.302.478 2.771-.302 3.78-1.065.42-.317.06-.999-.424-.725-.667.376-1.352.928-2.137.997-1.685.149-1.973-1.325-1.58-2.619.564-1.855 1.917-2.701 3.795-2.819.34-.021.437-.517.083-.612" transform="translate(497.047 266.381)"/><path d="m0 .435c-1.288 1.074-2.338 1.842-4.036 2.053-.414.052-1.042.197-1.451.152-.521.221-.76.016-.719-.615.113-.402.283-.777.51-1.124.595-1.046 1.416-2.195 2.44-2.864.992-.648 2.235-.328 3.138-1.012.329-.249.154-.805-.293-.696-.843.205-1.716.155-2.528.486-.874.356-1.597.973-2.204 1.683-.907 1.063-2.399 2.809-2.025 4.335.339 1.382 2.261.711 3.256.571 1.88-.265 3.102-1.233 4.222-2.731.142-.191-.151-.37-.31-.238" transform="translate(493.295 265.019)"/><path d="m2.001-1.746c-.095 1.225.007 2.244.583 3.347.204.39-.35.77-.583.38-.651-1.091-.905-2.554-.466-3.767.08-.223.489-.253.466.04" transform="matrix(.0477564 .998859 .998859 -.0477564 502.599 281.536)"/><path d="m0 6.989c.125-1.289.218-2.65.068-3.941-.119-1.029-.609-1.939-.837-2.943-.078-.343-.622-.268-.612.083.029 1.097.675 2.013.796 3.109.135 1.225.072 2.464.217 3.692.027.234.345.238.368 0" opacity=".3" transform="translate(511.458 264.108)"/><path d="m0-38.381c-11.302 5.714-15.129 20.716-19.593 31.532-.075.183.055.377.195.478 6.139 4.437 13.242 6.532 20.808 5.969.534-.039.543-.871 0-.839-5.183.303-10.295-.411-15.033-2.624-1.899-.888-4.682-1.849-4.495-4.356.158-2.13 2.152-5.248 2.95-7.191 3.537-8.621 7.045-17.526 15.449-22.488.312-.183.038-.642-.281-.481" transform="translate(437.636 354.314)"/><path d="m-1.675-15.263c-.413 4.942-1.578 10.505.651 15.141.179.374-.445.689-.651.328-2.523-4.419-1.285-10.804-.599-15.586.056-.394.63-.266.599.117" transform="matrix(-.981647 -.190705 -.190705 .981647 437.323 353.506)"/><path d="m1.174-.175c1.253 2.58 1.589 5.529.806 8.303-.146.521-.952.284-.806-.237.752-2.666.616-5.231-.571-7.756-.176-.376.388-.689.571-.31" transform="matrix(.959261 .282522 .282522 -.959261 474.014 253.175)"/><path d="m0 21.755 2.593 2.358c.045.25.338.302.528.215 5.832-2.637 5.686-16.547 3.31-21.392-2.66-5.426-12.953-5.596-16.898-1.736-.278.272.102.805.43.556 2.999-2.269 8.13-2.738 11.758-1.446 6.151 2.19 5.768 10.814 4.772 15.798-.385 1.923-1.142 7.153-3.516 6.587-1.146-.273-1.353-1.478-2.977-1.544-.391-.016-.385.578 0 .604" transform="translate(477.986 224.555)"/><path d="m0 7.092c.667-1.923 1.186-3.408 2.991-4.595 1.516-.996 3.247-1.373 4.96-1.869.463-.135.267-.806-.197-.715-2.099.408-4.333 1.184-5.967 2.61-1.217 1.063-2.508 2.868-2.122 4.569.04.178.282.152.335 0" transform="translate(468.06 219.237)"/><path d="m0 .189c-1.72-3.206-6.314-3.357-9.51-3.083-3.415.292-5.334 2.391-6.807 5.384-.235.476.422.867.713.417 1.749-2.705 2.969-4.612 6.607-4.893 3.311-.257 6.138.257 8.766 2.354.126.101.315-.022.231-.179" transform="translate(475.889 219.568)"/><path d="m0 5.392c-.266-2.97-2.428-5.431-5.43-5.852-.917-.128-2.863-.196-3.579.591-.378.414-.334 1.297-.455 1.794-.288 1.183-.818 2.261-1.48 3.277-.291.445.413.846.708.414.491-.72.923-1.46 1.244-2.274.512-1.294.238-2.539 1.801-2.848 3.32-.656 5.847 1.97 6.392 5.006.08.447.84.35.799-.108" transform="translate(460.47 216.639)"/><path d="m0-17.87c-5.745-.27-11.386-1.571-17.154-1.451-5.605.118-11.19 1.227-16.409 3.271-7.583 2.97-14.907 8.373-15.846 17.022-.053.485.768.599.857.116 1.922-10.479 11.531-15.689 21.102-18.062 9.499-2.354 17.976.093 27.45-.154.479-.013.476-.72 0-.742" transform="translate(449.001 239.82)"/><path d="m0-5.51c-1.654-.374-4.157-.228-4.044 2.078.051 1.011.707 1.832 1.469 2.435.565.447 1.58 1.371 2.249.626.206-.23.009-.718-.336-.577-.503.208-1.545-.797-1.843-1.102-.493-.505-.861-1.194-.64-1.907.375-1.209 2.056-1.124 3.082-1.082.267.01.328-.411.063-.471" transform="translate(400.159 246.414)"/><path d="m0-10.554c-3.587.398-5.07 5.368-5.446 8.353-.189 1.493.03 2.143 1.653 2.185 1.576.042 3.111-.668 3.977-1.991.225-.346-.267-.684-.552-.425-1.018.921-2.513 2.173-3.712 1.065-.749-.692-.523-1.047-.326-1.996.109-.525.25-1.049.418-1.559.756-2.289 1.923-4.079 4.107-5.192.2-.102.115-.466-.119-.44" transform="translate(399.205 256.81)"/><path d="m0-42.735c-2.973 7.628-3.809 18.632.568 25.881 4.608 7.632 13.316 11.823 20.429 16.671.531.362 1.032-.502.503-.862-6.622-4.5-14.58-8.334-19.281-15.049-5.301-7.569-3.793-18.075-1.928-26.561.043-.193-.222-.259-.291-.08" transform="translate(398.99 297.426)"/><path d="m-22.017-38.573c3.739 5.403 15.545 41.186-.104 37.05-.498-.131-.437-.908.104-.82 14.257 2.293 2.87-29.925-.39-36.009-.122-.226.245-.432.39-.221" transform="matrix(-.922567 -.385836 -.385836 .922567 379.842 320.612)"/><path d="m0-17.361c-1.499 3.2-3.739 8.711-2.246 12.257 1.098 2.606 3.75 5.42 6.763 4.505.547-.166.317-1.02-.238-.861-2.298.663-4.319-1.543-5.289-3.258-1.115-1.974-.823-3.452-.457-5.557.411-2.367 1.168-4.613 2.031-6.848.124-.324-.416-.554-.564-.238" transform="translate(402.939 339.301)"/><path d="m0 8.518c.179-1.698.267-3.208 1.09-4.755.745-1.401 1.819-2.323 3.048-3.278.352-.274-.097-.81-.465-.603-2.736 1.542-4.89 5.554-4.117 8.696.064.265.419.179.444-.06" transform="translate(407.369 330.548)"/><path d="m1.114-4.776c-.345 1.771.01 3.216.651 4.861.148.383-.415.738-.651.368-.99-1.554-1.119-3.579-.701-5.335.103-.436.789-.348.701.106" transform="matrix(-.928701 .37083 .37083 .928701 413.791 334.771)"/><path d="m6.314-1.318c7.507 9.423 3 21.104.943 31.744-.116.6-1.06.473-.943-.129 2.019-10.371 6.409-21.822-.585-31.181-.281-.376.294-.8.585-.434" transform="matrix(.919088 .394053 .394053 -.919088 407.75 332.502)"/><path d="m0-12.345c-.03-.001-.061-.001-.092-.002-.285-.007-.429.306-.309.541.849 1.664 4.328 2.227 5.902 2.801 1.612.589 3.211 1.315 4.353 2.648 1.585 1.848.989 3.526.677 5.701.216-.087.432-.175.648-.263-1.109-.632-2.174-1.308-3.241-2.007-.483-.316-.884.429-.444.76 1.025.768 2.104 1.421 3.239 2.008.323.167.621-.048.663-.38.214-1.656.8-3.098.138-4.735-.505-1.25-1.516-2.261-2.611-3.015-1.406-.968-3.042-1.458-4.642-2.001-1.31-.445-2.594-.909-3.747-1.68.007.005-.378-.373-.534-.376" transform="translate(481.072 303.149)"/><path d="m0-8.95c.186 1.354.883 2.664 1.234 3.997.417 1.58.521 3.162.697 4.778.038.355.623.519.689.093.247-1.595-.104-3.255-.509-4.802-.37-1.42-.8-3.133-1.793-4.251-.141-.159-.341.018-.318.185" transform="translate(487.196 307.163)"/><path d="m0-3.002c.657 1.134 1.429 2.224 2.336 3.173.249.26.562.527.951.483.358-.039.51-.301.457-.636-.036-.228-.377-.304-.521-.138-.205.238-2.437-2.866-2.651-3.216-.221-.364-.786-.037-.572.334" transform="translate(469.051 307.954)"/><path d="m2.004-15.674c.216 5.22.434 10.441.767 15.656.032.489-.761.489-.767-.01-.074-5.219-.262-10.435-.454-15.652-.01-.291.441-.285.454.006" transform="matrix(-.967375 .253348 .253348 .967375 464.744 336.722)"/><path d="m0-3.124c-1.061-.291-2.123.768-2.183 1.79-.063 1.109.964 1.929 2.022 1.898 1.072-.031 1.837-.985 1.742-2.036-.046-.51-.27-1.006-.661-1.345-.454-.394-1.142-.515-1.689-.735-.413-.167-.629.406-.395.679.437.512 1.261.368 1.665.903.369.487.322 1.347-.26 1.644-.564.288-1.427-.033-1.612-.652-.251-.838.577-1.384 1.279-1.469.363-.044.496-.566.092-.677" transform="translate(457.468 328.589)"/><path d="m0-3.603c-.944-.059-2.091.075-2.721.872-.477.606-.591 1.611.025 2.169.685.621 1.841.332 2.409-.302.639-.713.526-1.925-.385-2.344-.523-.242-.977.487-.461.787.542.315.514 1.03-.015 1.348-.537.322-1.321.142-1.293-.572.046-1.244 1.598-1.297 2.51-1.449.303-.05.206-.491-.069-.509" transform="translate(460.269 337.276)"/></g></g><g clip-path="url(#d)" transform="matrix(4.16667 0 0 4.16667 -1607.2005464 -877.510132)"><path d="m-.887-10.564s-.768 2.124-.736 4.461c.033 2.338.435 4.771.736 5.855 1.132.256 2.026.07 2.026.07s-.007-8.892-2.026-10.386" fill="#fdcda9" transform="matrix(-.990236 .139399 .139399 .990236 510.417 273.079)"/><path d="m0-11.739c-3.314.285-6.586.683-9.348 2.769-2.94 2.22-2.862 7.77-6.346 8.393-.41-.431-.993-.711-1.721-.769-.367-.03-.458.591-.088.651 2.664.427.823 3.354 1.362 5.005.495 1.518 1.727 2.28 1.625 4.055-.03.531.799.53.828 0 .038-.708-.05-1.24-.267-1.791 2.925-1.272 4.672.999 6.991 1.961 1.746.724 3.763 1.017 5.647 1.019.293 0 .579-.015.861-.04-3.042 7.863-8.218 13.662-16.914 15.315-10.464 1.989-19.679 1.393-29.951-1.561-.436-.125-.618.545-.187.678.009.003.018.004.027.007-1.034 3.402-5.804 2.199-7.987 1.4-2.129-.78-4.075-2.26-4.847-4.454-1.287-3.651 1.399-6.162 4.911-6.308 1.629-.067 3.165.39 4.764.24.186.298.656.417.864.018 2.534-4.866.838-10.012-3.413-13.276-2.269-1.741-3.603-1.57-4.84-5-.693-1.92-.595-4.487-.592-6.496.006-4.856.562-9.712.731-14.566.039-.013.077-.034.114-.066 12.532-11.152 27.329-14.534 43.109-14.539.013.016.016.033.03.049 6.651 7.108 11.811 17.993 14.637 27.306" fill="#fdcda9" transform="translate(480.958 280.817)"/><path d="m0-1.27c-.093-1.137-.2-2.273-.426-3.393-.189-.938-.544-1.832-.79-2.754-4.533.381-9.121.799-11.642 4.642-2.038 3.108-.326 5.395-3.516 6.061-.01.331-.054.662-.063.993-.008.323-.104 1.066.214 1.291.22.156.034.464-.209.357-.394-.174-.523-.566-.58-.967-.069-.488-.134-1.043-.083-1.559-.147.016-.323.025-.487.037.21.433.299.949.238 1.527-.048.447-.169.776-.264 1.092 3.69.09 6.14-2.082 8.91-4.141 1.443-1.073 3.097-2.633 5.025-2.693.801-.025 1.306.245 2.04.487.63.207 1.179.289 1.727.347-.024-.443-.059-.884-.094-1.327" fill="#fdcda9" transform="translate(483.243 277.36)"/><path d="m.028-.325c.01.111.021.22.032.331.002.021-.029.024-.032.004-.016-.11-.031-.219-.047-.329-.004-.029.043-.035.047-.006" fill="#d1d3d4" transform="matrix(-.99282 .119617 .119617 .99282 433.554 259.804)"/><path d="m0 38.487c.256-1.746-.355-3.578-1.354-4.995-.199-.281-.596-.148-.66.104-2.353 1.37-4.24 4.585-4.168 7.437-2.108.28-3.931-1.749-4.837-3.35-1.115-1.973-.824-3.45-.459-5.554.412-2.368 1.167-4.614 2.031-6.85.124-.323-.416-.553-.565-.237-.634 1.354-1.399 3.122-1.961 4.98-13.653-3.473 8.364-28.01 14.101-32.848 1.67 1.054 3.324 2.096 4.898 3.169-.843 1.599-.873 3.601-.123 5.291 1.067 2.401 3.221 3.878 5.617 4.698-2.194 10.205-2.723 22.259-12.52 28.155" fill="#cc7f21" transform="translate(412.951 296.898)"/><path d="m0 5.573c-.254-.446-.646-.898-.857-1.366-.296-.655-.314-1.082-.242-1.471 4.453.266 6.909-2.326 10.448-4.717 1.506-1.018 2.438-1.728 4.322-1.271-.127-.03 1.55.698 1.761.735 1.052.184 1.944-.355 2.965-.162.005.001.008-.001.013 0 .931 2.74 2.388 5.458 4.297 7.533-1.138.372-2.198.847-3.325 1.458-3.922 2.128-7.423 2.97-11.77 1.243-2.91-1.157-4.462-3.145-7.472-1.706-.048-.092-.085-.179-.14-.276" fill="#f99d49" transform="translate(466.641 281.058)"/><path d="m0 11.402c.057.4.186.792.58.967.242.106.429-.201.209-.358-.318-.225-.223-.967-.214-1.29.009-.331.053-.662.063-.993 3.19-.667 1.477-2.953 3.515-6.061 2.955-4.505 8.751-4.304 13.97-4.854-.908 1.935-.347 4.879.129 6.765.09.356.195.717.305 1.076-1.13-.16-2.013-.12-3.178-.502-.734-.242-1.239-.512-2.04-.487-1.928.06-3.582 1.62-5.026 2.693-2.769 2.059-5.219 4.231-8.91 4.14.096-.315.217-.644.265-1.092.061-.577-.028-1.094-.238-1.526.164-.013.34-.021.487-.038-.051.516.014 1.072.083 1.56" fill="#b4d5e5" opacity=".5" transform="translate(466.232 270.919)"/><path d="m0-17.52c1.157 1.358 4.185 1.878 5.625 2.404 1.611.588 3.21 1.315 4.353 2.648 1.434 1.674 1.081 3.211.769 5.101-.908-.537-1.798-1.094-2.683-1.674-.119-.078-.232-.09-.33-.063-.284-.788-.646-1.542-1.168-2.13-.141-.159-.341.018-.318.185.186 1.354.883 2.664 1.233 3.997.416 1.581.514 3.164.697 4.778.012.106.077.185.157.246-.836.345-1.681.669-2.523.968-.004-.091-.013-.181-.015-.273-.006-.272-.272-.336-.447-.23-.082-.053-.189-.069-.313-.024-4.37 1.587-8.792.722-13.19.405 0-.036.006-.069 0-.108-.036-.228-.377-.304-.522-.138-.205.238-2.436-2.866-2.65-3.217-.006-.009-.014-.013-.021-.022 5.483-2.646 8.94-7.224 11.346-12.853" fill="#cc7f21" transform="translate(480.948 309.262)"/><path d="m0-4.261c.071-.045.116-.137.07-.229-.771-1.537-1.144-2.928-1.326-4.437.04.02.068.054.121.056 5.395.203 10.695 1.94 10.551 8.242-.12 5.295-5.762 2.263-8.793.787.443-1.156-.146-3.113-.623-4.419" fill="#ec008c" transform="translate(457.708 318.422)"/><path d="m0 .543c-.087.073-.136.187-.089.337.368 1.175 1.083 2.955.839 4.198-.027.137-.074.25-.13.352-.229.006-.414.173-.475.369-.146-.159-.392-.224-.553-.018-.059.073-.108.152-.163.226-.836.014-1.873-.324-2.551-.487-2.603-.625-4.845-1.846-7.022-3.348-.218-1.377-.577-2.738-.882-4.098-.268-1.19-.458-2.425-.927-3.552 3.457.474 6.932.65 10.406.46-.211 1.912.423 3.992 1.547 5.561" fill="#fdcda9" transform="translate(456.875 312.816)"/><path d="m0-3.828c.87-3.805 3.208-5.591 6.577-6.571.027.107.057.215.083.322.352 1.442.647 2.913 1.115 4.321.099.3.398.312.572.158 2.531 2.088 5.887 3.571 9.192 3.852-1.285 1.957-2.084 4.214-3.492 6.06-1.722 2.257-5.378.606-7.6-.013-2.108-.587-4.551-.991-5.816-2.982-.956-1.504-1.019-3.454-.631-5.147" fill="#ec008c" transform="translate(438.308 321.21)"/><path d="m0-8.962c-.003 0-.002.004-.005.005l-.133-.008c-.514-1.729-1.107-3.439-1.841-5.119-.121-.276-.607-.076-.492.207 4.062 10.025 4.851 21.277 6.598 31.953h-39.664c.004-.045.001-.088-.008-.132 2.809-3.906 2.827-9.967 3.053-14.531.019-.398-.569-.381-.611 0-.515 4.737-.467 10.164-3.187 14.242-5.063.241-10.044-.473-14.676-2.638-1.898-.887-4.68-1.848-4.494-4.352.158-2.13 2.152-5.248 2.949-7.191 3.512-8.561 6.999-17.397 15.278-22.378-.959 3.135-.476 6.816 2.683 8.498 2.218 1.181 5.142 1.737 7.602 2.236 1.147.232 2.518.535 3.642.036.955-.425 1.468-1.307 1.967-2.178 1.068-1.866 2.113-3.738 3.195-5.598.33-.007.607-.062.826-.171 3.037 1.591 9.736 4.827 10.36-.544.329-2.833-.313-5.825-2.678-7.609-.681-.515-1.442-.914-2.241-1.234 4.924-1.57 8.733-1.481 13.855-.871 3.25.387 6.079.52 9.168-.605-.147 3.235 1.045 6.331 2.004 9.395.106.335.207.671.308 1.008-.014.105.019.211.087.286.631 2.104 1.281 4.2 2.543 5.998-2.748.6-5.51 1.054-8.325 1.219-2.58.15-5.207-.197-7.763.076" fill="#91268f" transform="translate(474.981 335.428)"/><path d="m0-22.34c-.116.748 2.043 6.537 2.137 7.635.202 2.361-.013 4.726-.598 7.024-2.544 9.98-10.838 13.939-19.668 17.175-.196-.673-.387-1.339-.588-1.979-.779-2.469-1.556-4.842-1.78-7.403.033-.003.063-.001.1-.013 4.635-1.623 9.708-3.819 12.028-8.479.882-1.771 1.257-3.812.92-5.772-.406-2.367-1.85-3.662-3.027-5.58-.021-.085-.064-.164-.138-.227-.032-.053-.065-.101-.095-.155-.122-.215-.38-.236-.573-.144-2.275-.921-5.456-2.365-4.21-5.279.846-1.979 3.044-3.386 4.912-4.272 1.181-.56 4.706-2.025 5.718-.623 1.688 2.339-4.734 4.823-5.771 6.122-.305.383.109 1.112.581.753.503-.383 1.374-.877 2.317-1.459.384-.157.776-.311 1.167-.465.012.103.078.188.216.171 1.219-.155 2.243-.1 3.372.422.4.185.752-.387.351-.6-.719-.384-1.581-.594-2.421-.567 2.609-.956 5.331-1.76 8.082-2.166-.903 1.754-2.756 4.087-3.032 5.881" fill="#fdcda9" transform="translate(507.302 308.928)"/><path d="m0-2.219c-.244-.204-.704-.11-.663.28.675 6.425-7.989 4.895-11.881 4.739-.526-.022-1.051-.009-1.575.006.021-.111.003-.231-.091-.338-1.603-1.838-2.796-3.863-3.49-6.119 1.666.021.429-.079 2.25-.357 1.206-.948 2.62-1.131 4.243-.549.262.146.523.291.785.436 1.522.001 2.261-.587 3.803-.777 2.701-.333 7.323 1.729 8.45-1.807.352 1.583-.493 3.121-1.831 4.486" fill="#f99d49" transform="translate(527.521 276.942)"/><path d="m0-14.89c1.713-.132 2.894 1.064 4.305 1.868.021.254.167.505.245.746.11.344.179.697.372 1.006.088.143.34.132.378-.049.081-.387-.006-.757-.107-1.134-.034-.126-.068-.265-.109-.4 1.839-.394 3.135.989 3.494 2.725.306 1.482-.103 2.856-.235 4.319-.018.188.18.285.34.25.29.337.516.676.681 1.013-1.718 4.678-5.228 1.547-7.876 1.549-1.036.001-1.114.452-1.968.653-1.997.471-2.68-.481-4.335-.6-1.893-.135-3.179 1.757-5.202 1.777 0 0 0 .001-.001.001-.186-.685-.335-1.388-.426-2.118-.089-.699.397-7.819.446-7.894.023-.004.047-.005.069-.008.006-.003.011 0 .016-.004 1.731-.281 3.45-.774 5.009-1.529 1.551-.752 3.146-2.035 4.904-2.171" fill="#b4d5e5" opacity=".5" transform="translate(519.7 273.971)"/><path d="m0-6.089c1.794-.057 2.922.664 3.563 2.309.027.07.065.126.109.171-.451.145-.901.298-1.346.474-.015.006-.023.021-.034.031-.013.001-.022-.007-.035-.005-.842.214-1.248.754-1.786 1.412-.305.442-.674.821-1.108 1.137-.882.617-1.727.387-2.538-.69-.199-.562-.069-1.483.051-2.045.348-1.638 1.374-2.739 3.124-2.794" fill="#fdcda9" transform="translate(505.67 265.879)"/><path d="m0-1.925c.342-1.209 1.301-2.171 2.604-2.165.646.003 2.207.103 2.731.569-.434.446-.781 1.003-1.003 1.684-.274.841-.433 1.984-.221 2.954-.102-.054-.23-.065-.372.012-1.048.576-2.067 1.042-3.135.25-.983-.729-.918-2.192-.604-3.304" fill="#fdcda9" transform="translate(497.433 263.572)"/><path d="m0-17.393c.063.058.118.123.189.175 1.245.909 2.93.512 4.083-.33.066-.047.106-.105.136-.165.229.535.606.977 1.225 1.198 2.572.917 3.382-2.379 5.157-3.253.094-.045.111-.128.099-.209.331-.03.663-.076.996-.121-2.072 5.695-.424 12.416 3.399 16.927-3.762.232-7.466 1.313-10.969 2.721 1.661-1.307 2.853-2.883 1.729-4.628-1.238-1.919-5.092-.584-6.646.086-2.443 1.054-5.555 3.043-6.178 5.854-.141.638-.117 1.222.031 1.753-.119.03-.239.058-.355.09-.011-.014-.014-.028-.027-.041-2.126-2.175-3.339-4.841-4.403-7.659-.808-2.134-1.866-5.94-.865-8.289 1.656-.195 3.244-.485 4.645-1.056.144-.058.234-.16.288-.276 1.338-.29 2.33-.97 3.21-1.97.144.101.298.193.476.257 1.301.479 2.77-.301 3.78-1.064" fill="#f15a29" transform="translate(497.311 282.952)"/><path d="m0 1.604c.596-1.045 1.415-2.193 2.438-2.862.78-.509 1.715-.424 2.517-.698-.268.597-.429 1.235-.45 1.856-.023.644.15 1.285.533 1.765-1.017.791-1.98 1.347-3.381 1.522-.414.051-1.042.196-1.451.151-.519.222-.758.018-.716-.61.114-.402.283-.776.51-1.124" fill="#fdcda9" transform="translate(487.602 264.317)"/><path d="m0-6.01c.108-.526.249-1.05.417-1.56.756-2.288 1.923-4.079 4.107-5.191.149-.076.139-.294.03-.393.17-.026.333-.099.479-.261.206-.23.009-.718-.336-.576-.499.205-1.546-.802-1.841-1.105-.493-.504-.861-1.192-.641-1.905.375-1.209 2.056-1.124 3.081-1.082.151.006.226-.125.224-.252.063-.051.115-.117.132-.214 1.922-10.478 11.531-15.687 21.1-18.059 9.501-2.355 17.976.108 27.449-.158.276-.008.386-.244.344-.448l.143-.061c.112.26.533.384.746.072.491-.72.924-1.46 1.246-2.273.51-1.293.239-2.538 1.799-2.846 3.258-.643 5.721 1.865 6.349 4.815-.018.037-.039.07-.057.107-.232.476.421.867.714.417 1.759-2.698 2.963-4.608 6.607-4.89 2.976-.23 5.564.172 7.967 1.779-1.803.446-3.624 1.185-5.012 2.396-1.053.919-2.156 2.395-2.187 3.877-.044.041-.097.076-.14.118-.221.217-.026.592.229.613.07.124.264.098.311-.039.013-.038.026-.073.039-.111 3.022-2.174 8.033-2.623 11.607-1.35 6.153 2.189 5.77 10.81 4.774 15.795-.385 1.923-1.143 7.153-3.517 6.587-1.101-.262-1.348-1.377-2.809-1.521-.182-.315-.778-.249-.784.208-.03 2.589-.791 4.871-2.4 6.862-1.958-4.018-4.217-7.786-7.263-11.067 2.624.032 5.273.15 7.942.341.375.026.467-.603.089-.665-18.937-3.074-38.64 1.411-53.006 14.404-.114.103-.122.229-.073.333-.001.008-.007.01-.008.018-.739 6.79-2.224 14.722-.642 21.48.363 1.551.629 2.551 1.846 3.601 1.264 1.092 3.038 1.596 4.306 2.791 3.177 2.997 4.225 7.111 2.137 11.114-.019.037-.021.072-.031.108-2.281-1.347-6.565-1.29-8.685.152-.418.284-.756.632-1.056 1.004-.013-.01-.019-.024-.034-.034-6.622-4.499-14.579-8.333-19.28-15.048-5.25-7.496-3.822-17.875-1.982-26.317.052-.07.11-.136.159-.21.224-.348-.266-.683-.552-.425-1.02.917-2.512 2.171-3.712 1.064-.748-.691-.521-1.047-.325-1.995" fill="#cc7f21" transform="translate(394.8 259.458)"/><path d="m0 .165c-.123-1.372-1.256-1.666-2.354-2.081-.398-.151-.598.345-.421.634-.55.338-.956.965-.993 1.584-.063 1.11.964 1.93 2.022 1.899 1.069-.031 1.84-.986 1.746-2.036" fill="#d1d3d4" transform="translate(459.053 326.952)"/><path d="m.751-.757c-.783.155-.927.991-.752 1.639.217.217.438.426.752.477.602.098 1.342-.344 1.332-.997-.01-.633-.697-1.244-1.332-1.119" fill="#ec008c" transform="matrix(.467888 .883788 .883788 -.467888 456.414 326.592)"/><path d="m0-3.603c-.944-.059-2.091.075-2.72.872-.478.606-.592 1.611.024 2.169.685.621 1.841.332 2.409-.302.562-.628.544-1.642-.092-2.163.158-.023.312-.044.448-.067.303-.05.206-.492-.069-.509" fill="#d1d3d4" transform="translate(460.269 337.276)"/><path d="m-.058-1.293c-.545-.305-1.146.08-1.15.697-.005.625.549 1.21 1.15.822.574-.369.604-.948.463-1.535-.121.088-.283.117-.463.016" fill="#ec008c" transform="matrix(-.508774 -.8609 -.8609 .508774 457.993 335.466)"/><path d="m-3.361-7.998s1.765.87 1.998 2.269c.23 1.397.337 4.683-1.998 4.908-2.336.224-2.615-2.424-2.756-3.345.843-.17 2.393-1.224 2.756-3.832" fill="#fdcda9" transform="matrix(-.781562 -.623828 -.623828 .781562 490.01 264.317)"/><path d="m0 51.096c-1.177.673-2.436 1.204-3.75 1.542-1.542.395-3.139.477-4.723.555-3.577.176-7.159.086-10.738.058-3.113-.025-6.245.027-9.301-.673-2.626-.601-5.416-1.757-6.954-4.087-1.329-2.013-1.585-4.507-1.752-6.853-.1-1.403-.13-2.817-.447-4.194-.318-1.383-.873-2.692-1.546-3.937-1.392-2.578-3.321-4.92-4.275-7.715-.472-1.383-.704-2.835-.779-4.292-.072-1.424.05-2.837.066-4.259.015-1.304-.009-2.61.103-3.911.1-1.149.279-2.365.881-3.37.052-.087.165-.043.182.032.31-.141.619-.283.928-.428 2.641-1.236 5.23-2.58 7.841-3.875 2.58-1.28 5.19-2.483 7.869-3.542 2.659-1.051 5.39-1.914 8.158-2.631s5.574-1.29 8.394-1.765c2.478-.416 4.968-.75 7.462-1.049-1.084-1.475-2.219-2.864-3.402-4.129-.015-.016-.018-.033-.03-.049-15.781.005-30.578 3.386-43.11 14.539-.036.032-.074.053-.113.066-.169 4.853-.726 9.71-.732 14.566-.003 2.009-.1 4.575.592 6.495 1.238 3.431 2.572 3.26 4.84 5.001 4.252 3.263 5.947 8.409 3.413 13.276-.208.399-.678.28-.863-.018-.793.074-1.571-.001-2.353-.087.253.39.415.843.303 1.309-.115.471-.47.848-.835 1.146-.922.753-2.046 1.2-3 1.905-.356.264-.744.599-.871 1.041-.194.679-.071 1.439.166 2.089.28.768.747 1.464 1.273 2.084.412.483.876.916 1.361 1.326 2.387.728 6.203 1.31 7.114-1.691-.009-.003-.018-.005-.026-.008-.432-.132-.249-.802.186-.677 10.273 2.954 19.488 3.549 29.951 1.561 6.728-1.28 11.342-5.046 14.497-10.323-1.785 1.886-3.716 3.677-5.98 4.972" fill="#fbb87d" transform="translate(472.105 249.199)"/><path d="m0-1.121c-.059-.543-.279-1.079-.667-1.469-.342-.345-.783-.536-1.252-.609.328.221.608.517.685.916.079.416-.067.832-.267 1.193-.25.449-.592.846-.941 1.22-.362.385-.746.748-1.122 1.117-.178.174-.357.354-.525.543.009-.004.017-.008.026-.012.001-.002.004-.003.007-.004.073-.036.144-.072.216-.108.111-.056.205.102.108.165.73.197 1.522.247 2.222-.076 1.083-.499 1.635-1.721 1.51-2.876" fill="#fbb87d" transform="translate(464.176 269.401)"/><path d="m0 2.554c.217.551.305 1.083.267 1.791-.029.53-.858.531-.828 0 .102-1.775-1.129-2.537-1.625-4.055-.269-.823.054-1.964.116-2.954-.214.415-.521.78-.809 1.142-.351.443-.717.915-.853 1.475-.142.579-.079 1.231.311 1.7.333.401.799.664 1.2.987.221.177.428.372.595.6.182.246.344.505.506.764.257.407.527.865.981 1.076.245.114.521.138.787.12.387-.024.791-.119 1.146-.274.617-.271 1.087-.767 1.282-1.415.103-.339.131-.691.112-1.042-.942-.355-1.96-.449-3.188.085" fill="#fbb87d" transform="translate(467.003 284.837)"/><path d="m0 2.078c.336.15.673.297 1.016.426 1.047.397 2.127.711 3.222.938 1.11.229 2.242.369 3.376.351.929-.015 1.883-.144 2.747-.503-.732-1.398-1.111-3.032-.942-4.563-3.474.19-6.949.014-10.406-.46.468 1.127.659 2.362.926 3.552.02.087.041.173.061.259" fill="#fbb87d" transform="translate(445.909 309.071)"/><path d="m0-.502c.84-.027 1.702.183 2.421.566.401.214.049.786-.352.601-1.129-.522-2.152-.577-3.371-.422-.138.017-.204-.068-.217-.171-.39.154-.782.307-1.167.465-.942.582-1.813 1.076-2.316 1.459-.473.359-.886-.371-.581-.753.863-1.081 5.441-2.983 5.984-4.939-.583.793-1.355 1.442-2.157 2.002-.447.312-.911.6-1.383.872-.322.185-.645.38-.986.528-.614.266-1.256.466-1.879.709-.65.254-1.354.53-1.892.989-.183.155-.367.351-.414.595-.047.249.081.492.254.663.54.532 1.473.485 2.166.419.866-.081 1.709-.29 2.559-.463.378-.077.748-.134 1.135-.135.575-.002 1.141.093 1.713.137.608.046 1.211-.007 1.788-.212.508-.181.981-.446 1.498-.609.435-.138.896-.206 1.348-.11.438.093.818.333 1.153.622.601-1.627 2.019-3.506 2.778-4.979-2.751.406-5.474 1.209-8.082 2.166" fill="#fbb87d" transform="translate(502.252 283.376)"/><path d="m0 .468c.047-.302.104-.601.188-.895.073-.249.158-.494.225-.744.121-.449.138-.885-.197-1.246-.24-.259-.535-.374-.874-.454-.426-.1-.864-.141-1.3-.168-.619-.038-1.238-.035-1.858-.032.004.008.008.015.013.022.074.063.117.142.139.227 1.177 1.919 2.62 3.213 3.026 5.581.045.26.076.523.096.786.113-.384.211-.773.278-1.168.109-.634.165-1.274.264-1.909" fill="#fbb87d" transform="translate(500.49 292.018)"/><path d="m0-11.019c-.539.483-1.072.97-1.632 1.43-.595.489-1.207.959-1.834 1.407-1.256.897-2.571 1.709-3.931 2.437-.681.365-1.374.709-2.075 1.033-.675.312-1.366.59-2.042.902-1.225.565-2.615 1.292-4.008 1.008-1.214-.247-2.053-1.336-2.583-2.383-.533-1.052-.852-2.205-1.07-3.36-.003-.013.005-.022.007-.034-.052.018-.104.038-.157.057-.036.012-.067.01-.1.013.224 2.56 1.001 4.933 1.78 7.403.202.639.392 1.305.588 1.979 7.39-2.709 14.391-5.938 17.974-12.765-.306.29-.603.592-.917.873" fill="#fbb87d" transform="translate(506.23 317.55)"/><path d="m0 22.88c-.663 1.718-1.26 3.444-1.688 5.225.132-.354.28-.702.444-1.039.845-1.738 2.08-3.254 3.366-4.682 1.312-1.457 2.707-2.841 3.943-4.364 1.15-1.416 2.156-2.985 2.628-4.762-2.441-.608-4.954.237-7.422.023-.058-.005-.124-.061-.097-.126.573-1.4 1.312-2.726 2.122-4.003 1.627-2.564 3.531-4.949 5.498-7.259 1.643-1.93 3.35-3.802 5.056-5.675-.751-.481-1.51-.961-2.275-1.443-5.737 4.838-27.754 29.375-14.1 32.847.561-1.857 1.327-3.626 1.961-4.98.148-.316.688-.086.564.238" fill="#fff" opacity=".2" transform="translate(403.504 299.298)"/><path d="m0-.985c-1.143-1.333-2.741-2.06-4.353-2.648-1.44-.526-4.467-1.046-5.625-2.404-.962 2.253-2.105 4.327-3.468 6.187.017-.007.036-.014.059-.008.476.144.941.318 1.401.507 1.564.645 3.075 1.473 4.74 1.835.012-.258.044-.514.068-.771.026-.256.05-.537-.062-.776-.043-.09.044-.183.136-.137.56.282 1.057.708 1.532 1.111 1.139.97 2.198 2.039 3.212 3.141-.045-.207-.081-.414-.136-.621-.351-1.333-1.048-2.644-1.233-3.997-.024-.168.176-.344.318-.185.521.588.884 1.342 1.168 2.13.097-.028.211-.015.33.063.885.579 1.774 1.137 2.683 1.674.311-1.891.665-3.427-.77-5.101" fill="#fff" opacity=".2" transform="translate(490.926 297.779)"/><path d="m0-2.593c.725.421 1.515.717 2.278 1.059.713.319 1.462.674 2.015 1.243.237.244.459.551.552.884.059.213.09.434.151.647.06.206.154.363.4.345.187-.014.324-.182.467-.282.219-.151.51-.177.768-.18.301-.003.594.055.886.115-1.119-3.681-4.809-5.067-8.823-5.434.083.743.691 1.246 1.306 1.603" fill="#fff" opacity=".2" transform="translate(459.255 313.839)"/><path d="m0 4.453c.238-.175.512-.341.804-.404.226-.049.462-.054.693-.05.541.011 1.079.084 1.62.093.394.006.938.011 1.223-.312.265-.302.168-.773.016-1.103-.197-.429-.497-.808-.792-1.173-.337-.416-.691-.82-1.017-1.245-.293-.382-.575-.787-.743-1.243-.088-.237-.124-.486-.105-.732-1.405 1.085-2.416 2.597-2.92 4.802-.225.988-.291 2.06-.124 3.083.31-.665.751-1.281 1.345-1.716" fill="#fff" opacity=".2" transform="translate(439.528 314.296)"/><path d="m0 3.444c1.449-.184 2.866-.569 4.325-.683.704-.055 1.416-.036 2.121-.017.718.019 1.436.055 2.153.103 1.427.093 2.851.228 4.278.344 1.389.113 2.778.188 4.171.244 1.087.044 2.172.028 3.223-.229-.186-1.036-.292-2.083-.244-3.147-3.089 1.125-5.918.993-9.168.606-5.121-.611-8.93-.7-13.854.871.799.32 1.559.719 2.241 1.233.276.208.525.436.754.675" fill="#fff" opacity=".2" transform="translate(466.099 308.425)"/><path d="m0 27.16c1.202-.161 2.404-.534 3.223-1.479.217-.252.415-.53.534-.843.126-.33.184-.682.228-1.031.08-.642.106-1.329.425-1.908.151-.274.37-.509.658-.636.265-.118.556-.141.842-.132.546.019 1.199.201 1.694-.113.175-.111.286-.3.382-.478.132-.242.239-.496.337-.753.186-.479.331-.971.503-1.456.129-.363.299-.718.452-1.073.17-.39.345-.777.532-1.159.383-.784.825-1.541 1.341-2.246.475-.648 1.01-1.249 1.56-1.835.281-.299.565-.594.847-.893.254-.27.523-.536.747-.832.797-1.05 1.188-2.563.884-3.858-.304-1.296-1.492-2.096-1.971-3.31-.25-.634-.333-1.359-.347-2.037-.01-.462.036-.939.174-1.384-6.981 5.123-10.21 13.25-13.45 21.149-.728 1.774-2.436 4.517-2.852 6.603 1.08-.144 2.176-.151 3.257-.296" fill="#fff" opacity=".2" transform="translate(422.875 318.049)"/><path d="m0 20.677c.245-.556.452-1.13.598-1.721.12-.487.178-.965.001-1.445-.282-.761-.973-1.286-1.218-2.07-.388-1.238.502-2.409 1.042-3.448.673-1.295 1.344-2.591 1.974-3.907.531-1.105 1.075-2.193 1.434-3.369.354-1.162.576-2.374.568-3.591-.003-.583-.06-1.166-.196-1.734-.125-.527-.298-1.096-.655-1.515-.258-.302-.643-.542-1.053-.445-.419.099-.677.478-.835.859.005.012.015.02.014.036-.012.331-.053.66-.119.984-.289 1.407-1.001 2.686-1.66 3.945-.647 1.234-1.213 2.504-1.905 3.715-1.386 2.426-3.089 4.682-5.147 6.579-2.276 2.097-4.716 4.01-6.959 6.144-.229.217-.453.436-.689.645-.188.169-.383.344-.512.565-.236.403-.098.91.326 1.106.401.186.884.195 1.317.218.463.024.937.025 1.391.124.564.123 1.095.465 1.54.82.064.051.114.115.176.17h9.153c.509-.869 1.008-1.743 1.414-2.665" fill="#fff" opacity=".2" transform="translate(464.909 330.163)"/><path d="m0-45.497c-3.574-1.272-8.585-.824-11.607 1.35-.013.038-.026.073-.039.111-.047.137-.242.163-.311.039-.255-.021-.45-.396-.23-.613.043-.042.097-.077.141-.118.03-1.482 1.134-2.958 2.187-3.877 1.387-1.211 3.209-1.95 5.011-2.396-2.402-1.607-4.99-2.009-7.966-1.779-3.644.282-4.848 2.192-6.607 4.89-.293.45-.946.06-.714-.417.018-.037.038-.07.057-.107-.628-2.95-3.091-5.458-6.349-4.815-1.56.308-1.289 1.553-1.8 2.846-.321.813-.754 1.553-1.246 2.273-.213.312-.633.188-.745-.072l-.143.061c.042.204-.069.44-.344.448-9.474.266-17.948-2.197-27.449.158-9.57 2.372-19.178 7.581-21.1 18.059-.017.097-.069.163-.133.214.003.127-.072.258-.223.252-1.026-.042-2.706-.127-3.081 1.082-.064.207-.068.41-.043.609.523.174 1.035.391 1.521.616.995.46 1.949 1.005 2.878 1.585.068.043.06.128 0 .173-.577.429-1.27.73-1.987.908.074.109.071.282-.06.349-2.184 1.112-3.351 2.903-4.107 5.192-.168.509-.309 1.033-.417 1.559-.197.948-.423 1.304.325 1.995.072.067.148.099.223.149.67-.491 1.32-1.008 1.954-1.546.408-.346.812-.722 1.272-.998.279-.168.611-.293.931-.164.393.158.647.578.847.928.421.734.741 1.528 1.065 2.307.019.045-.021.116-.069.123-.745.109-1.431.457-2.057.858-.198.128-.384.273-.575.411-1.347 6.954-2.049 14.827 1.003 21.229.034-.805.085-1.609.176-2.412.356-3.109 1.321-6.206 3.582-8.467 1.174-1.174 2.644-1.882 3.958-2.867.866-.647 1.577-1.418 1.826-2.495.296-1.282.171-2.673.164-3.976-.008-1.404-.167-2.909.301-4.264.759-2.199 3.501-2.618 5.478-3.143-.875-1.829-2.493-3.294-2.972-5.304-.013-.055.017-.106.07-.123 1.8-.588 8.885-1.029 6.632-4.386-.033-.048-.007-.107.035-.137.538-.383 1.084-.754 1.638-1.112 4.774-3.084 10.04-5.333 15.611-6.471 2.896-.592 5.865-.716 8.811-.841 1.449-.061 2.901-.118 4.348-.232 1.429-.113 2.834-.311 4.271-.302.712.004 1.424.031 2.135.056.607.021 1.248-.025 1.847.065 1.224.185 2.403.601 3.611.867.578.128 1.185.247 1.78.209.657-.042.983-.325 1.361-.814.275-.357.6-.554 1.016-.716.497-.194.996-.407 1.51-.554.546-.157.949-.084 1.4.262.919.705 1.778 1.47 2.741 2.122.652.442 1.265.727 2.06.758 1.073.041 2.147-.023 3.218-.06 2.201-.077 4.469-.073 6.599.559.754.224 1.458.538 2.108.93.146-4.501-.881-9.441-5.328-11.024" fill="#fff" opacity=".2" transform="translate(479.706 270.365)"/><path d="m0-.173c-.157.722-.31 1.462-.457 2.21.223-.157.443-.318.678-.457.535-.318 1.117-.583 1.732-.694-.326-.786-.648-1.591-1.095-2.316-.177-.288-.417-.646-.757-.719-.286-.061-.612.142-.86.316-.465.327-.887.716-1.32 1.081-.527.444-1.07.867-1.626 1.275 1.118.56 2.402-.514 3.312-1.332.287-.257.777.078.552.426-.049.074-.106.139-.159.21" fill="#fff" opacity=".2" transform="translate(399.23 255.187)"/><path d="m0 1.406c-.419-.259-.842-.513-1.272-.752-.905-.502-1.845-.963-2.829-1.293.11.391.339.755.629 1.052.295.303 1.342 1.31 1.841 1.104.323-.132.512.286.365.528.449-.163.881-.372 1.266-.639" fill="#fff" opacity=".2" transform="translate(401.128 243.949)"/><path d="m0 5.47c.264.091.575.062.839.021.334-.052.66-.139.984-.229.162-.044.322-.088.478-.151.202-.082.399-.174.612-.222.321-.072.7-.141 1.012.001.038.018.057.075.046.113-.051.16-.142.3-.267.412-.282.256-.658.374-.999.529-.164.075-.334.157-.473.276-.09.078-.269.253-.225.392.031.1.207.095.289.095.166 0 .331-.029.493-.063.531-.113.99-.392 1.438-.69.849-.567 1.383-1.457 1.971-2.267.29-.4.6-.79.973-1.118.407-.358.893-.617 1.344-.915.916-.606 1.85-1.231 2.94-1.469.471-.103 1.013-.169 1.464.044.208.099.415.248.505.469.074.181.048.378-.027.555-.142.341-.423.558-.674.814-.125.129-.248.261-.353.407-.075.105-.176.244-.174.38.002.128.135.17.242.192.182.038.372.019.548-.038.381-.122.7-.403.976-.683.305-.307.575-.646.857-.974.241-.28.494-.584.824-.763.408-.222.893-.285 1.352-.284.262 0 .524.028.783.072-.072-.196-.147-.392-.214-.588-.004-.001-.007.001-.012 0-1.022-.193-1.913.346-2.966.161-.211-.036-1.888-.765-1.761-.734-1.884-.457-2.815.253-4.322 1.271-2.779 1.878-4.894 3.873-7.828 4.517-.261.099-.538.238-.675.467" fill="#fff" opacity=".5" transform="translate(467.486 278.591)"/><path d="m0-6.361c-.276-.084-.564-.132-.852-.155-.211-.018-.443-.036-.652.014-.053.012-.087-.017-.106-.054-1.917.315-3.87.946-5.312 2.299-.695.652-1.4 1.319-1.93 2.117-.254.384-.471.802-.568 1.255-.041.188-.047.381-.016.571.022.137.063.304.177.395.143.114.349.041.491-.037.188-.102.29-.319.42-.48.373-.464.791-.897 1.191-1.338.369-.406.727-.826 1.14-1.19.35-.309.732-.581 1.134-.816.395-.231.81-.425 1.232-.601.447-.186.905-.37 1.37-.509.43-.13.883-.177 1.324-.256.422-.076.866-.17 1.225-.418.139-.096.404-.297.285-.488-.11-.174-.368-.253-.553-.309" fill="#fff" transform="translate(480.05 277.718)"/><path d="m0 .638c.814.081 1.582-.142 2.277-.562.702-.422 1.533-.864 2.373-.61.337.102.798.334.603.757-.075.165-.214.3-.348.419-.171.153-.356.289-.539.426-.174.131-.349.259-.509.407-.122.113-.238.232-.241.406-.008.412.831.163 1.034.104.681-.197 1.269-.593 1.811-1.038.617-.509 1.181-1.124 1.89-1.508.359-.194.758-.332 1.17-.332.425 0 .808.21 1.225.263.346.044.709.006.819-.376.033-.113.063-.27.061-.42-.438-.026-.858-.035-1.235.012-1.542.19-2.282.778-3.803.777-.262-.145-.524-.29-.785-.436-1.623-.582-3.037-.399-4.243.549-1.822.278-.584.378-2.25.357.077.249.182.486.271.73.139.029.277.061.419.075" fill="#fff" opacity=".5" transform="translate(510.511 273.458)"/><path d="m0 .512c-.029.113-.043.243.033.342.07.089.188.128.294.151.489.107 1.021-.041 1.483-.196.423-.141.926-.357 1.16-.762.114-.199.122-.422.104-.647-.72.872-1.84 1.091-3.082 1.065.004.015.013.028.008.047" fill="#fff" opacity=".5" transform="translate(525.71 271.869)"/><path d="m0 2.904c.244.554.81-.395.928-.595.342-.578.664-1.183.856-1.829.083-.279.134-.572.193-.862-.545-.057-1.089-.125-1.611-.172-.022.349-.045.698-.081 1.044-.048.462-.092.936-.205 1.388-.075.304-.215.72-.08 1.026" fill="#fff" opacity=".3" transform="translate(522.284 272.617)"/><path d="m0-1.674c-.087-.498-.345-1.037-.859-1.1-.001.001-.001.001-.002.002-.055.013-.111.019-.166.027.004.051.006.103.015.154.045.242.114.48.159.722.09.484.077.961.043 1.449-.035.505-.074 1.022.041 1.52.236-.141.398-.403.507-.643.293-.644.383-1.436.262-2.131" fill="#fff" transform="translate(527.393 265.19)"/><path d="m0-5.661c-.146-.02-.331-.012-.448.09-.1.087-.069.223-.022.33.136.317.422.548.635.81.247.305.462.635.622.993.298.667.389 1.39.396 2.115.002.282-.01.565-.018.848.553.148 1.12.338 1.684.495.062-.433.1-.871.101-1.303.003-.855-.137-1.742-.579-2.487-.204-.346-.462-.659-.756-.931-.069-.064-.141-.127-.217-.188.015.103-.148.142-.192.032-.047-.117-.135-.215-.227-.302-.125-.064-.254-.118-.393-.146-.087-.017-.085-.111-.035-.162-.175-.095-.361-.169-.551-.194" fill="#fff" transform="translate(521.521 271.689)"/><path d="m0-3.956c-.502-.151-1.149-.26-1.628.02-.111.065-.212-.108-.101-.173.105-.061.219-.107.337-.137.03-.007.061-.006.09-.012-.742-.01-1.476.162-2.176.422-.796.297-1.551.691-2.321 1.049-.66.308-1.334.562-2.029.782-1.248.394-2.704.784-3.537 1.874.117.039.235.08.355.109 1.398.334 2.823-.132 4.115-.644 1.373-.543 2.723-1.22 4.19-1.469.66-.112 1.317-.115 1.977 0 .428.074.844.213 1.27.298.223.045.449.081.678.084.167.002.363-.008.505-.11.138-.099.158-.273.139-.431-.031-.261-.143-.506-.308-.708-.388-.473-.98-.779-1.556-.954" fill="#fff" transform="translate(521.659 264.083)"/><path d="m0 9.331c.991.215 1.879-.502 2.636-1.032.404-.282.886-.69 1.415-.606.215.034.424.097.639.129.192.027.385.04.578.044.211.006.42.015.63-.021.814-.139 1.481-.685 2.206-1.039.358-.174.74-.315 1.139-.344.431-.03.879.033 1.308.072.359.032.721.061 1.082.029.43-.039.846-.172 1.237-.356.46-.216.887-.495 1.348-.711.374-.176.761-.318 1.157-.434.221-.064.444-.123.667-.179.224-.056.435-.147.661-.195.367-.076.739-.084 1.112-.082.937.006 1.869-.127 2.771-.379.801-.224 1.583-.503 2.383-.727-.187-1.231-.255-2.478-.17-3.715-.148.083-.294.167-.436.26-.42.278-.833.581-1.298.78-.407.174-.837.236-1.276.179-.375-.048-.739-.164-1.118-.175-.22-.006-.42.024-.619.121-.185.089-.356.207-.524.323-.319.221-.699.52-1.109.503-.173-.007-.336-.039-.497-.104-.129-.051-.24-.072-.379-.083-.177-.014-.326-.12-.473-.209-.182-.112-.359-.192-.578-.154-.423.072-.783.375-1.129.607-.163.11-.33.217-.513.29-.215.086-.459.121-.688.155-.414.062-.836.079-1.246.173-.859.196-1.572.754-2.399 1.039-.63.217-1.261.108-1.893-.048-.448-.11-.891-.236-1.354-.251-.394-.013-.778.056-1.145.195-.439.166-.849.415-1.241.671-.331.216-.639.468-.98.671-.263.158-.565.288-.879.232-.343-.061-.592-.334-.785-.612-.462.247-.87.579-1.254.936.066 1.339.381 2.747.743 3.955.088.035.176.071.271.092" fill="#fff" opacity=".24" transform="translate(485.54 267.208)"/><g fill="#231f20"><path d="m0-2.501c1.539-.509 3.501-2.092 4.604.028.967 1.855-.706 3.451-2.284 4.107-.457.189-.288.928.211.765 2.1-.687 3.894-2.902 2.817-5.14-1.119-2.322-4.154-1.787-5.444.115-.042.061.028.148.096.125" transform="translate(457.451 269.214)"/><path d="m0 3.145c1.353-.452 2.332-1.498 3.768-1.9 1.732-.487 3.401-.346 5.108.147.485.14.667-.578.206-.747-1.77-.649-3.712-.676-5.522-.157-1.356.388-3.162 1.111-3.733 2.483-.042.1.079.205.173.174" transform="translate(440.142 265.061)"/><path d="m-3.099-5.302c1.505 1.906 1.614 4.6.779 6.801-.199.527-.985.116-.779-.408.823-2.098.434-4.084-.628-5.999-.235-.424.336-.764.628-.394" transform="matrix(-.531348 -.847154 -.847154 .531348 464.533 259.993)"/><path d="m.027-.326c.011.111.022.22.033.331.002.021-.029.024-.033.004-.015-.11-.03-.219-.045-.329-.005-.029.042-.034.045-.006" transform="matrix(-.99282 .119617 .119617 .99282 433.554 259.805)"/><path d="m0 7.023c.045-1.664.525-2.956 1.756-4.109 1.199-1.123 2.68-2.092 4.383-1.921.503.05.626-.817.12-.89-3.202-.465-8.235 3.543-6.717 7.044.103.238.452.099.458-.124" transform="translate(434.336 252.824)"/><path d="m0 2.715c-.786-1.151-1.809-1.996-3.119-2.493-1.175-.445-2.875-.814-4.017-.142-.26.153-.253.659.092.708 1.122.159 2.188-.101 3.316.227 1.26.365 2.378 1.1 3.269 2.054.223.238.648-.077.459-.354" transform="translate(467.493 249.45)"/><path d="m0-39.804c-.738 6.791-2.221 14.721-.638 21.479.364 1.551.627 2.55 1.843 3.6 1.266 1.091 3.039 1.595 4.308 2.791 3.178 2.998 4.226 7.113 2.137 11.118-.302.58.576 1.095.878.513 2.534-4.864.838-10.009-3.413-13.272-2.268-1.741-3.602-1.569-4.84-5.001-.692-1.92-.593-4.488-.59-6.497.006-4.911.58-9.823.741-14.731.01-.279-.398-.267-.426 0" transform="translate(422.651 295.967)"/><path d="m0-11.029c-2.126-1.643-6.859-1.69-9.13-.147-2.308 1.569-2.809 4.68-1.726 7.119 1.403 3.159 4.685 4.724 7.926 5.289 2.628.458 6.216.379 6.666-2.942.079-.586-.758-.865-.918-.253-.933 3.598-5.826 2.36-8.043 1.548-2.129-.78-4.076-2.26-4.849-4.455-1.287-3.654 1.4-6.167 4.914-6.312 1.759-.073 3.408.472 5.146.202.022-.003.031-.036.014-.049" transform="translate(430.714 306.587)"/><path d="m0-1.269c-.311-1.221 1.655-.628 2.106-.412.555.266 1.061.69 1.567 1.036 1.006.687 2.004 1.387 3.025 2.049.442.285.825-.402.407-.697-1.562-1.106-3.348-2.678-5.167-3.306-1.04-.359-2.032-.149-2.701.726-.089.116-.048.324.054.418.132.123.265.245.397.368.135.126.359.002.312-.182" transform="translate(423.894 302.184)"/><path d="m0 11.982c-2.265-.911-6.094-2.347-4.746-5.498.848-1.98 3.045-3.387 4.913-4.273 1.183-.562 4.709-2.027 5.723-.623 1.691 2.343-4.733 4.826-5.771 6.127-.304.38.108 1.104.576.747 1.796-1.366 8.28-4.124 6.104-7.493-1.238-1.917-5.089-.582-6.641.088-2.443 1.053-5.554 3.042-6.177 5.851-.749 3.381 3.123 5.243 5.793 5.89.543.132.721-.617.226-.816" transform="translate(496.553 276.906)"/><path d="m0 27.717c-1.554-5.275-4.205-10.341-6.545-15.308-2.21-4.693-4.754-9.086-8.411-12.798-.47-.478-1.189.246-.732.732 6.727 7.192 11.935 18.252 14.739 27.636.18.605 1.129.348.949-.262" transform="translate(482.013 241.426)"/><path d="m-1.133-.185c.597 2.31.885 4.666 1.017 7.045.035.653-.991.699-1.017.044-.095-2.3-.337-4.562-.905-6.798-.15-.59.752-.885.905-.291" opacity=".3" transform="matrix(.951987 -.306137 -.306137 -.951987 484.821 277.458)"/><path d="m0 11.215c10.819 3.318 22.073 4.476 33.07 1.049 7.989-2.489 12.356-8.414 15.169-15.914.215-.573-.708-.826-.917-.253-3.003 8.217-8.232 14.302-17.184 16.003-10.464 1.988-19.679 1.392-29.951-1.562-.436-.125-.619.545-.187.677" transform="translate(433.45 293.547)"/><path d="m27.477-18.689c-8.747 18.029-5.971 36.198.615 54.348.128.354-.453.615-.615.268-8.086-17.408-9.159-37.553-.555-54.927.182-.368.733-.056.555.311" transform="matrix(.271973 .962305 .962305 -.271973 433.693 224.738)"/><path d="m0-8.91c2.664.427.823 3.354 1.361 5.005.496 1.518 1.728 2.28 1.626 4.055-.03.531.799.53.827 0 .055-1.021-.132-1.677-.628-2.551-.254-.446-.647-.898-.858-1.366-.637-1.41-.008-1.773.116-2.939.168-1.583-.767-2.728-2.356-2.855-.367-.03-.458.591-.088.651" transform="translate(463.455 289.032)"/><path d="m0 13.45c5.358-.232 2.813-2.709 5.132-6.246 4.009-6.11 13.241-3.56 19.174-5.975.605-.246.34-1.243-.275-.993-5.665 2.299-12.544.363-17.669 4.234-2.968 2.241-2.852 7.875-6.439 8.413-.322.048-.245.581.077.567" transform="translate(465.25 267.38)"/><path d="m0-.745c3.053-1.476 4.823.891 7.197 1.875 1.746.725 3.763 1.018 5.647 1.02 4.468.004 7.478-3.193 11.706-4.223.473-.116.271-.826-.201-.728-1.9.396-3.428 1.03-5.123 1.95-3.922 2.127-7.423 2.97-11.77 1.243-2.99-1.189-4.541-3.266-7.721-1.59-.3.159-.036.599.265.453" transform="translate(466.797 288.221)"/><path d="m0 9.357c4.717-1.936 9.973-3.673 15.137-3.527 2.474.07 4.888.572 7.381.254 3.473-.445 6.005-1.882 5.678-5.675-.044-.516-.861-.514-.806 0 .675 6.425-7.99 4.895-11.881 4.738-5.43-.219-10.812 1.56-15.701 3.754-.255.114-.071.563.192.456" transform="translate(499.468 274.595)"/><path d="m0 5.372c2.308-.189 4.68-.733 6.766-1.744 1.551-.752 3.146-2.035 4.904-2.171 1.86-.143 3.089 1.288 4.673 2.072.382.189.692-.336.334-.573-2.186-1.443-3.138-2.969-6.037-2.089-1.352.411-2.522 1.249-3.775 1.871-2.229 1.105-4.612 1.477-6.899 2.383-.122.048-.122.264.034.251" transform="translate(508.03 257.623)"/><path d="m0-4.755c1.973-.585 3.365.867 3.74 2.681.306 1.482-.103 2.856-.235 4.319-.025.266.384.366.501.136 1.387-2.719.085-9.747-4.243-7.699-.319.15-.094.661.237.563" transform="translate(524.538 265.916)"/><path d="m2.042-6.773c-2.208 2.203-1.34 4.552.521 6.579.313.341-.19.788-.521.48-2.138-1.994-3.091-5.43-.329-7.416.248-.179.557.13.329.357" transform="matrix(-.999144 -.0413654 -.0413654 .999144 530.004 275.096)"/><path d="m0 1.991c.081-.387-.006-.757-.106-1.134-.092-.341-.156-.785-.486-.967-.149-.082-.331-.007-.381.155-.102.336.119.671.223.989.111.344.18.697.372 1.006.088.143.34.133.378-.049" transform="translate(525 260.66)"/><path d="m0 10.174c.569-2.01 1.632-3.431 1.152-5.607-.453-2.063-1.837-3.074-3.229-4.518-.221-.229-.706.006-.57.332.615 1.466 2.184 2.066 2.825 3.625.918 2.235-.129 3.92-.449 6.093-.027.175.22.255.271.075" transform="translate(524.42 264.558)"/><path d="m0-17.061c0-.097 0-.194-.001-.292 0-.278-.36-.291-.454-.062-2.385 5.873-.672 12.973 3.377 17.612.337.386.896-.178.561-.562-2.197-2.517-3.633-5.382-4.054-8.722-.089-.705.405-7.934.448-7.903.052.037.123-.013.123-.071" transform="translate(509.827 279.774)"/><path d="m0-17.397c-1.523 1.841-.866 5.355-.326 7.498.872 3.456 2.632 7.131 5.116 9.699.367.38.949-.202.58-.58-2.126-2.175-3.339-4.841-4.404-7.659-.858-2.269-2.001-6.426-.652-8.716.112-.19-.166-.422-.314-.242" transform="translate(484.81 286.396)"/><path d="m0 2.551c-.318-.226-.223-.968-.214-1.291.012-.421.101-.843.071-1.264-.025-.359-.54-.459-.644-.088-.178.632-.093 1.391-.002 2.034.057.4.185.792.58.966.242.106.429-.201.209-.357" transform="translate(467.02 280.38)"/><path d="m0 6.872c4.577.356 7.048-2.283 10.639-4.709 1.507-1.018 2.438-1.728 4.322-1.271-.127-.031 1.55.698 1.761.734 1.052.185 1.943-.354 2.965-.161.484.091.691-.648.205-.74-1.372-.261-2.311-.135-3.632-.569-.735-.242-1.239-.512-2.04-.487-1.928.06-3.582 1.62-5.026 2.693-2.84 2.112-5.341 4.35-9.194 4.136-.242-.013-.238.355 0 .374" transform="translate(465.351 276.914)"/><path d="m0 3.37c1.883.028.515-.069 2.387-.355 1.206-.948 2.62-1.131 4.243-.549.262.145.523.291.785.436 1.521.001 2.261-.587 3.803-.778 2.886-.356 7.963 2.023 8.632-2.608.039-.276-.329-.391-.424-.117-1.702 4.846-5.252 1.653-7.921 1.655-1.036.001-1.114.452-1.969.653-1.996.471-2.68-.481-4.335-.6-1.892-.135-3.179 1.757-5.201 1.777-.312.004-.312.481 0 .486" transform="translate(509.684 269.92)"/><path d="m0 7.825c-.218-1.47-.606-2.921-.933-4.372-.285-1.269-.474-2.591-1.01-3.78-.143-.317-.653-.152-.642.174.043 1.3.47 2.587.777 3.848.352 1.442.65 2.911 1.113 4.322.147.452.762.259.695-.192" transform="translate(446.778 307.438)"/><path d="m-1.187-.267c-.37 2.56-.008 4.519.748 6.957.138.444-.488.776-.748.367-1.349-2.122-1.359-5.191-.32-7.436.085-.183.347-.073.32.112" transform="matrix(.948956 -.315408 -.315408 -.948956 458.82 313.304)"/><path d="m0-2.153c2.787 2.466 6.742 4.196 10.505 4.264 3.016.055 1.396-4.307.735-6.017-.159-.413-.814-.253-.677.187.369 1.174 1.083 2.954.839 4.197-.31 1.579-2.664.733-3.872.442-2.679-.644-4.978-1.916-7.217-3.48-.24-.168-.534.213-.313.407" transform="translate(446.223 317.416)"/><path d="m0-16.47c-3.261-1.081-6.437 2.778-7.502 5.378-1.35 3.298-1.099 7.557 2.368 9.402 2.218 1.181 5.142 1.737 7.6 2.236 1.147.232 2.518.535 3.641.036.955-.424 1.467-1.306 1.965-2.176 1.154-2.015 2.268-4.038 3.451-6.038.223-.375-.339-.844-.623-.481-1.668 2.136-2.489 4.805-4.109 6.93-1.723 2.259-5.38.608-7.603-.012-2.109-.587-4.554-.991-5.819-2.983-.956-1.505-1.016-3.456-.628-5.149.93-4.061 3.514-5.835 7.259-6.769.194-.049.175-.316 0-.374" transform="translate(445.566 326.709)"/><path d="m0-14.207c5.394.203 10.695 1.94 10.554 8.243-.127 5.676-6.6 1.79-9.405.501-.55-.253-1.037.534-.483.827 2.784 1.473 10.125 5.311 10.78-.318.329-2.833-.309-5.825-2.675-7.609-2.434-1.838-5.803-2.319-8.771-2.274-.406.006-.404.615 0 .63" transform="translate(456.573 323.757)"/><path d="m0 .888c-.417-.75-1.457-1.283-2.266-1.465-.54-.122-.756.661-.228.829.38.12.737.247 1.079.455.328.2.595.476.917.68.317.2.67-.191.498-.499" transform="translate(459.607 313.264)"/><path d="m0 4.058c5.097-1.69 8.958-1.599 14.2-.974 3.277.391 6.124.526 9.243-.63.487-.179.279-.964-.216-.784-7.764 2.819-15.693-2.101-23.364 2.064-.174.095-.056.388.137.324" transform="translate(462.758 306.005)"/><path d="m0-17.799c-.324 3.439.973 6.711 1.986 9.951.85 2.714 1.497 5.528 3.289 7.784.363.455 1.003-.189.641-.64-1.909-2.376-2.584-5.729-3.482-8.578-.89-2.824-1.776-5.522-1.836-8.517-.009-.391-.563-.377-.598 0" transform="translate(486.148 325.727)"/><path d="m0-35.014c4.456 10.999 4.99 23.489 7.139 35.065.08.432.818.339.773-.105-.654-6.344-1.95-12.643-3.106-18.912-1.027-5.563-2.036-11.046-4.315-16.256-.12-.275-.606-.075-.491.208" transform="translate(472.51 356.566)"/><path d="m0 .06c5.105 1.601 11.646.459 16.757-.754.514-.122.297-.907-.218-.791-2.891.646-5.793 1.134-8.755 1.307-2.58.152-5.207-.197-7.763.077-.088.01-.114.132-.021.161" transform="translate(474.959 326.568)"/><path d="m0 20.439c4.635-1.624 9.706-3.821 12.025-8.48.881-1.771 1.257-3.811.92-5.771-.433-2.523-2.049-3.818-3.259-5.96-.229-.405-.956-.13-.774.326.365.921.642 1.243 1.186 2.058 1.97 2.948 2.701 6.066.84 9.364-2.366 4.191-6.828 6.131-11.158 7.666-.498.176-.285.974.22.797" transform="translate(486.904 288.588)"/><path d="m0 39.053c8.369-2.648 16.297-6.352 19.958-14.871 1.589-3.698 2.099-7.785 1.479-11.768-.254-1.641-1.175-3.341-1.353-4.945-.269-2.421 1.508-4.628 2.306-6.835.163-.451-.57-.764-.78-.329-.857 1.772-2.853 4.222-3.141 6.084-.115.744 2.044 6.543 2.136 7.637.203 2.361-.011 4.726-.597 7.024-2.593 10.175-11.163 14.091-20.185 17.364-.394.143-.235.769.177.639" transform="translate(488.836 280.198)"/><path d="m0-.546c-.842.213-1.248.753-1.786 1.412-.305.442-.674.82-1.108 1.137-.881.618-1.729.389-2.541-.69-.199-.562-.069-1.484.05-2.046.35-1.639 1.377-2.742 3.128-2.797 1.795-.056 2.924.665 3.566 2.312.203.52.928.322.836-.231-.334-1.976-2.041-2.932-3.933-3.028-2.067-.104-3.721.906-4.371 2.897-.495 1.518-.659 4.043 1.177 4.697 2.574.918 3.378-2.375 5.157-3.249.235-.116.067-.475-.175-.414" transform="translate(507.927 263.316)"/><path d="m0-5.715c-.45-1.032-2.675-1.151-3.661-1.028-1.608.202-2.656 1.635-2.951 3.136-.257 1.309-.222 2.986.955 3.846 1.248.912 2.922.504 4.082-.328.418-.3.055-.963-.411-.703-1.044.584-2.072 1.042-3.136.252-.983-.73-.919-2.194-.604-3.306.342-1.209 1.301-2.171 2.604-2.165.653.004 2.243.104 2.751.583.207.194.475-.049.371-.287" transform="translate(503.158 265.493)"/><path d="m0-6.604c-2.659-.717-4.854 2.006-4.937 4.44-.036 1.018.413 2.032 1.42 2.403 1.302.478 2.771-.302 3.78-1.065.42-.317.06-.999-.424-.725-.667.376-1.352.928-2.137.997-1.685.149-1.973-1.325-1.58-2.619.564-1.855 1.917-2.701 3.795-2.819.34-.021.437-.517.083-.612" transform="translate(497.047 266.381)"/><path d="m0 .435c-1.288 1.074-2.338 1.842-4.036 2.053-.414.052-1.042.197-1.451.152-.521.221-.76.016-.719-.615.113-.402.283-.777.51-1.124.595-1.046 1.416-2.195 2.44-2.864.992-.648 2.235-.328 3.138-1.012.329-.249.154-.805-.293-.696-.843.205-1.716.155-2.528.486-.874.356-1.597.973-2.204 1.683-.907 1.063-2.399 2.809-2.025 4.335.339 1.382 2.261.711 3.256.571 1.88-.265 3.102-1.233 4.222-2.731.142-.191-.151-.37-.31-.238" transform="translate(493.295 265.019)"/><path d="m2.001-1.746c-.095 1.225.007 2.244.583 3.347.204.39-.35.77-.583.38-.651-1.091-.905-2.554-.466-3.767.08-.223.489-.253.466.04" transform="matrix(.0477564 .998859 .998859 -.0477564 502.599 281.536)"/><path d="m0 6.989c.125-1.289.218-2.65.068-3.941-.119-1.029-.609-1.939-.837-2.943-.078-.343-.622-.268-.612.083.029 1.097.675 2.013.796 3.109.135 1.225.072 2.464.217 3.692.027.234.345.238.368 0" opacity=".3" transform="translate(511.458 264.108)"/><path d="m0-38.381c-11.302 5.714-15.129 20.716-19.593 31.532-.075.183.055.377.195.478 6.139 4.437 13.242 6.532 20.808 5.969.534-.039.543-.871 0-.839-5.183.303-10.295-.411-15.033-2.624-1.899-.888-4.682-1.849-4.495-4.356.158-2.13 2.152-5.248 2.95-7.191 3.537-8.621 7.045-17.526 15.449-22.488.312-.183.038-.642-.281-.481" transform="translate(437.636 354.314)"/><path d="m-1.675-15.263c-.413 4.942-1.578 10.505.651 15.141.179.374-.445.689-.651.328-2.523-4.419-1.285-10.804-.599-15.586.056-.394.63-.266.599.117" transform="matrix(-.981647 -.190705 -.190705 .981647 437.323 353.506)"/><path d="m1.174-.175c1.253 2.58 1.589 5.529.806 8.303-.146.521-.952.284-.806-.237.752-2.666.616-5.231-.571-7.756-.176-.376.388-.689.571-.31" transform="matrix(.959261 .282522 .282522 -.959261 474.014 253.175)"/><path d="m0 21.755 2.593 2.358c.045.25.338.302.528.215 5.832-2.637 5.686-16.547 3.31-21.392-2.66-5.426-12.953-5.596-16.898-1.736-.278.272.102.805.43.556 2.999-2.269 8.13-2.738 11.758-1.446 6.151 2.19 5.768 10.814 4.772 15.798-.385 1.923-1.142 7.153-3.516 6.587-1.146-.273-1.353-1.478-2.977-1.544-.391-.016-.385.578 0 .604" transform="translate(477.986 224.555)"/><path d="m0 7.092c.667-1.923 1.186-3.408 2.991-4.595 1.516-.996 3.247-1.373 4.96-1.869.463-.135.267-.806-.197-.715-2.099.408-4.333 1.184-5.967 2.61-1.217 1.063-2.508 2.868-2.122 4.569.04.178.282.152.335 0" transform="translate(468.06 219.237)"/><path d="m0 .189c-1.72-3.206-6.314-3.357-9.51-3.083-3.415.292-5.334 2.391-6.807 5.384-.235.476.422.867.713.417 1.749-2.705 2.969-4.612 6.607-4.893 3.311-.257 6.138.257 8.766 2.354.126.101.315-.022.231-.179" transform="translate(475.889 219.568)"/><path d="m0 5.392c-.266-2.97-2.428-5.431-5.43-5.852-.917-.128-2.863-.196-3.579.591-.378.414-.334 1.297-.455 1.794-.288 1.183-.818 2.261-1.48 3.277-.291.445.413.846.708.414.491-.72.923-1.46 1.244-2.274.512-1.294.238-2.539 1.801-2.848 3.32-.656 5.847 1.97 6.392 5.006.08.447.84.35.799-.108" transform="translate(460.47 216.639)"/><path d="m0-17.87c-5.745-.27-11.386-1.571-17.154-1.451-5.605.118-11.19 1.227-16.409 3.271-7.583 2.97-14.907 8.373-15.846 17.022-.053.485.768.599.857.116 1.922-10.479 11.531-15.689 21.102-18.062 9.499-2.354 17.976.093 27.45-.154.479-.013.476-.72 0-.742" transform="translate(449.001 239.82)"/><path d="m0-5.51c-1.654-.374-4.157-.228-4.044 2.078.051 1.011.707 1.832 1.469 2.435.565.447 1.58 1.371 2.249.626.206-.23.009-.718-.336-.577-.503.208-1.545-.797-1.843-1.102-.493-.505-.861-1.194-.64-1.907.375-1.209 2.056-1.124 3.082-1.082.267.01.328-.411.063-.471" transform="translate(400.159 246.414)"/><path d="m0-10.554c-3.587.398-5.07 5.368-5.446 8.353-.189 1.493.03 2.143 1.653 2.185 1.576.042 3.111-.668 3.977-1.991.225-.346-.267-.684-.552-.425-1.018.921-2.513 2.173-3.712 1.065-.749-.692-.523-1.047-.326-1.996.109-.525.25-1.049.418-1.559.756-2.289 1.923-4.079 4.107-5.192.2-.102.115-.466-.119-.44" transform="translate(399.205 256.81)"/><path d="m0-42.735c-2.973 7.628-3.809 18.632.568 25.881 4.608 7.632 13.316 11.823 20.429 16.671.531.362 1.032-.502.503-.862-6.622-4.5-14.58-8.334-19.281-15.049-5.301-7.569-3.793-18.075-1.928-26.561.043-.193-.222-.259-.291-.08" transform="translate(398.99 297.426)"/><path d="m-22.017-38.573c3.739 5.403 15.545 41.186-.104 37.05-.498-.131-.437-.908.104-.82 14.257 2.293 2.87-29.925-.39-36.009-.122-.226.245-.432.39-.221" transform="matrix(-.922567 -.385836 -.385836 .922567 379.842 320.612)"/><path d="m0-17.361c-1.499 3.2-3.739 8.711-2.246 12.257 1.098 2.606 3.75 5.42 6.763 4.505.547-.166.317-1.02-.238-.861-2.298.663-4.319-1.543-5.289-3.258-1.115-1.974-.823-3.452-.457-5.557.411-2.367 1.168-4.613 2.031-6.848.124-.324-.416-.554-.564-.238" transform="translate(402.939 339.301)"/><path d="m0 8.518c.179-1.698.267-3.208 1.09-4.755.745-1.401 1.819-2.323 3.048-3.278.352-.274-.097-.81-.465-.603-2.736 1.542-4.89 5.554-4.117 8.696.064.265.419.179.444-.06" transform="translate(407.369 330.548)"/><path d="m1.114-4.776c-.345 1.771.01 3.216.651 4.861.148.383-.415.738-.651.368-.99-1.554-1.119-3.579-.701-5.335.103-.436.789-.348.701.106" transform="matrix(-.928701 .37083 .37083 .928701 413.791 334.771)"/><path d="m6.314-1.318c7.507 9.423 3 21.104.943 31.744-.116.6-1.06.473-.943-.129 2.019-10.371 6.409-21.822-.585-31.181-.281-.376.294-.8.585-.434" transform="matrix(.919088 .394053 .394053 -.919088 407.75 332.502)"/><path d="m0-12.345c-.03-.001-.061-.001-.092-.002-.285-.007-.429.306-.309.541.849 1.664 4.328 2.227 5.902 2.801 1.612.589 3.211 1.315 4.353 2.648 1.585 1.848.989 3.526.677 5.701.216-.087.432-.175.648-.263-1.109-.632-2.174-1.308-3.241-2.007-.483-.316-.884.429-.444.76 1.025.768 2.104 1.421 3.239 2.008.323.167.621-.048.663-.38.214-1.656.8-3.098.138-4.735-.505-1.25-1.516-2.261-2.611-3.015-1.406-.968-3.042-1.458-4.642-2.001-1.31-.445-2.594-.909-3.747-1.68.007.005-.378-.373-.534-.376" transform="translate(481.072 303.149)"/><path d="m0-8.95c.186 1.354.883 2.664 1.234 3.997.417 1.58.521 3.162.697 4.778.038.355.623.519.689.093.247-1.595-.104-3.255-.509-4.802-.37-1.42-.8-3.133-1.793-4.251-.141-.159-.341.018-.318.185" transform="translate(487.196 307.163)"/><path d="m0-3.002c.657 1.134 1.429 2.224 2.336 3.173.249.26.562.527.951.483.358-.039.51-.301.457-.636-.036-.228-.377-.304-.521-.138-.205.238-2.437-2.866-2.651-3.216-.221-.364-.786-.037-.572.334" transform="translate(469.051 307.954)"/><path d="m2.004-15.674c.216 5.22.434 10.441.767 15.656.032.489-.761.489-.767-.01-.074-5.219-.262-10.435-.454-15.652-.01-.291.441-.285.454.006" transform="matrix(-.967375 .253348 .253348 .967375 464.744 336.722)"/><path d="m0-3.124c-1.061-.291-2.123.768-2.183 1.79-.063 1.109.964 1.929 2.022 1.898 1.072-.031 1.837-.985 1.742-2.036-.046-.51-.27-1.006-.661-1.345-.454-.394-1.142-.515-1.689-.735-.413-.167-.629.406-.395.679.437.512 1.261.368 1.665.903.369.487.322 1.347-.26 1.644-.564.288-1.427-.033-1.612-.652-.251-.838.577-1.384 1.279-1.469.363-.044.496-.566.092-.677" transform="translate(457.468 328.589)"/><path d="m0-3.603c-.944-.059-2.091.075-2.721.872-.477.606-.591 1.611.025 2.169.685.621 1.841.332 2.409-.302.639-.713.526-1.925-.385-2.344-.523-.242-.977.487-.461.787.542.315.514 1.03-.015 1.348-.537.322-1.321.142-1.293-.572.046-1.244 1.598-1.297 2.51-1.449.303-.05.206-.491-.069-.509" transform="translate(460.269 337.276)"/></g></g></g></svg>