<svg clip-rule="evenodd" fill-rule="evenodd" stroke-linejoin="round" stroke-miterlimit="2" viewBox="0 0 175 175" xmlns="http://www.w3.org/2000/svg"><g fill-rule="nonzero"><path d="m-21.26-21.26c11.742 0 21.26 9.518 21.26 21.26s-9.518 21.26-21.26 21.26-21.26-9.518-21.26-21.26 9.518-21.26 21.26-21.26" fill="#ffd201" transform="matrix(0 4.09701577761 -4.09704911097 0 87.18424564 174.20478371)"/><g fill="#231f20"><path d="m0-2.957c.219-.136.51.019.51.278v.006c0 1.551-1.257 2.809-2.808 2.809-1.552 0-2.808-1.258-2.808-2.809v-.006c0-.259.291-.414.511-.278.668.413 1.454.651 2.297.651.842 0 1.629-.238 2.298-.651" transform="matrix(4.09704911097 0 0 -4.09701577761 144.76762504 63.75886202)"/><path d="m0-2.957c.22-.136.51.019.511.278v.006c0 1.551-1.258 2.809-2.809 2.809-1.552 0-2.808-1.258-2.808-2.809v-.006c0-.259.291-.414.511-.278.667.413 1.454.651 2.297.651s1.63-.238 2.298-.651" transform="matrix(4.09704911097 0 0 -4.09701577761 48.43421464 63.75886202)"/><path d="m0 6.798c-.679-.23-1.066-.97-.802-1.637 1.584-4.007 6.224-7.383 11.673-7.383 5.447 0 10.089 3.376 11.673 7.383.263.667-.124 1.407-.802 1.637-6.567 2.222-15.176 2.222-21.742 0" transform="matrix(4.09704911097 0 0 -4.09701577761 42.64671001 128.1505802)"/></g><path d="m5.562-6.132c-.858 1.74-1.372 3.731-1.372 5.847 0 2.115.514 4.106 1.372 5.847 1.213-1.611 1.942-3.638 1.942-5.847s-.729-4.237-1.942-5.847" fill="#ef3d32" transform="matrix(0 -4.09701577761 4.09704911097 0 88.35507991 154.41726788)"/></g></svg>