<svg clip-rule="evenodd" fill-rule="evenodd" stroke-miterlimit="10" viewBox="0 0 215 215" xmlns="http://www.w3.org/2000/svg"><circle cx="-20.771" fill="none" r="20.771" stroke="#aae1fa" stroke-width=".98" transform="matrix(0 -4.16667 -4.16667 0 107.00469155 20.45369265)"/><g fill="#c7eafb" fill-rule="nonzero"><path d="m0 5.03c-.254 0-.508-.093-.708-.279-1.73-1.612-4.085-2.552-6.629-2.651-2.828-.106-5.52.855-7.392 2.643-.416.396-1.074.38-1.47-.035-.398-.415-.381-1.074.034-1.469 2.276-2.174 5.527-3.348 8.907-3.216 3.042.116 5.872 1.254 7.966 3.206.421.392.444 1.05.053 1.47-.204.22-.483.331-.761.331" transform="matrix(4.16667 0 0 4.16667 140.85055196 119.36627178)"/><path d="m0 5.185c-.064 0-.13-.008-.194-.028l-4.516-1.318c-.271-.08-.469-.316-.495-.598-.028-.282.119-.552.371-.683 0-.001 3.513-1.816 4.563-2.377.339-.181.758-.053.939.285.18.338.052.758-.286.939-.591.314-1.955 1.025-3.043 1.589l2.855.833c.368.107.578.492.471.859-.088.302-.364.499-.665.499" transform="matrix(4.16667 0 0 4.16667 162.15473567 93.37041765)"/><path d="m0 5.185c-.3 0-.576-.197-.665-.499-.107-.367.103-.752.472-.859l2.853-.833c-1.086-.564-2.452-1.275-3.042-1.589-.338-.181-.466-.601-.286-.939s.598-.466.939-.285c1.051.561 4.563 2.377 4.563 2.377.252.131.399.4.372.683-.027.282-.224.518-.496.598l-4.516 1.318c-.064.02-.13.028-.194.028" transform="matrix(4.16667 0 0 4.16667 56.00048408 93.37041765)"/><path d="m0 4.615c-.035 0-.07-.003-.106-.009-3.457-.532-5.193-3.336-5.264-3.456-.199-.327-.095-.752.232-.951.328-.199.753-.095.951.232.028.042 1.501 2.374 4.291 2.805.379.059.638.412.581.791-.054.343-.349.588-.685.588" transform="matrix(4.16667 0 0 4.16667 166.42140575 64.97872827)"/><path d="m0 4.616c-.336 0-.632-.245-.685-.588-.058-.379.203-.732.581-.791 2.824-.435 4.275-2.78 4.29-2.805.197-.327.623-.432.952-.232.327.199.431.624.232.951-.071.12-1.807 2.924-5.264 3.456-.036.006-.071.009-.106.009" transform="matrix(4.16667 0 0 4.16667 51.733814 64.9745616)"/></g></svg>