<?xml version="1.0" encoding="UTF-8" standalone="no"?>
<!DOCTYPE svg PUBLIC "-//W3C//DTD SVG 1.1//EN" "http://www.w3.org/Graphics/SVG/1.1/DTD/svg11.dtd">
<svg width="100%" height="100%" viewBox="0 0 613 597" version="1.1" xmlns="http://www.w3.org/2000/svg" xmlns:xlink="http://www.w3.org/1999/xlink" xml:space="preserve" xmlns:serif="http://www.serif.com/" style="fill-rule:evenodd;clip-rule:evenodd;stroke-linejoin:round;stroke-miterlimit:2;">
    <g transform="matrix(1,0,0,1,-11096.6,-5297.38)">
        <g transform="matrix(4.16667,0,0,4.16667,10895.7,3587.6)">
            <clipPath id="_clip1">
                <path d="M48.227,480.707C48.227,519.564 80.885,551.065 121.172,551.065C161.459,551.065 194.116,519.564 194.116,480.707C194.116,441.848 161.459,410.347 121.172,410.347C80.885,410.347 48.227,441.848 48.227,480.707Z" clip-rule="nonzero"/>
            </clipPath>
            <g clip-path="url(#_clip1)">
                <g transform="matrix(0,-142.109,-142.109,0,120.957,551.803)">
                    <rect x="0.005" y="-0.515" width="0.99" height="1.027" style="fill:url(#_Linear2);"/>
                </g>
                <g transform="matrix(1,0,0,1,105.838,455.87)">
                    <path d="M0,-12.12C-3.503,-12.5 -6.851,-12.286 -10.031,-10.71C-10.12,-10.666 -10.167,-10.6 -10.182,-10.529C-10.301,-10.511 -10.408,-10.436 -10.438,-10.299C-10.952,-7.941 -11.065,-5.356 -11.756,-3.056C-12.294,-1.268 -13.016,-0.841 -13.934,1.26C-14.856,3.368 -14.552,5.009 -14.667,7.294C-14.798,9.895 -16.545,11.407 -17.298,13.513C-17.794,14.901 -17.717,15.834 -18.287,17.355C-19.067,19.438 -19.572,25.734 -21.175,26.835C-22.782,23.447 -26.216,23.822 -28.735,25.717C-30.216,22.081 -32.262,19.144 -33.081,15.135C-34.214,9.586 -34.609,3.998 -34.499,-1.653C-34.493,-1.977 -34.74,-2.14 -34.992,-2.141C-36.073,-3.636 -35.433,-4.772 -35.155,-6.421C-35.077,-6.883 -35.105,-7.232 -35.279,-7.647C-35.51,-8.196 -36.047,-8.418 -36.372,-8.878C-37.688,-10.739 -36.425,-12.065 -35.193,-13.49C-34.97,-13.748 -35.259,-14.201 -35.579,-13.99C-35.59,-13.982 -35.602,-13.974 -35.614,-13.966C-35.647,-14.081 -35.699,-14.227 -35.779,-14.478C-36.196,-15.773 -36.509,-15.311 -36.139,-16.905C-35.724,-18.697 -35.856,-17.718 -34.9,-18.642C-34.738,-18.8 -34.552,-18.979 -34.464,-19.191C-34.201,-19.823 -34.429,-20.22 -34.719,-20.79C-34.9,-21.145 -35.942,-22.145 -35.902,-22.566C-35.799,-23.675 -33.503,-23.48 -32.664,-23.358C-32.295,-23.305 -32.089,-23.725 -32.262,-23.952C-32.232,-24.004 -32.212,-24.062 -32.223,-24.131C-32.308,-24.673 -30.053,-28.702 -29.461,-28.519C-29.464,-28.52 -29.088,-27.268 -28.888,-27.024C-28.617,-26.694 -28.474,-26.597 -28.104,-26.413C-27.885,-26.305 -27.572,-26.385 -27.514,-26.653C-27.187,-28.161 -26.453,-29.721 -25.053,-30.523C-24.891,-30.617 -24.729,-30.711 -24.566,-30.805C-23.984,-31.123 -23.661,-30.971 -23.595,-30.347C-23.237,-29.938 -23.053,-29.162 -22.795,-28.684C-22.79,-28.676 -22.782,-28.671 -22.776,-28.662C-22.776,-28.376 -22.374,-28.22 -22.162,-28.499C-21.531,-29.331 -20.976,-30.31 -20.016,-30.811C-19.173,-31.252 -18.185,-31.164 -17.584,-30.48C-17.59,-30.476 -17.595,-30.474 -17.601,-30.47C-17.968,-30.21 -17.628,-29.603 -17.243,-29.857C-17.167,-29.908 -17.09,-29.948 -17.014,-29.996C-16.917,-30.012 -16.83,-30.062 -16.776,-30.139C-12.628,-32.596 -8.396,-31.554 -4.263,-33.176C1.117,-35.288 7.418,-34.45 13.179,-34.328C13.107,-34.086 13.27,-33.787 13.575,-33.896C16.245,-34.853 18.809,-35.053 21.566,-34.307C23.051,-33.907 24.282,-33.356 25.755,-33.774C25.523,-33.479 25.301,-33.176 25.096,-32.851C24.961,-32.64 25.28,-32.471 25.424,-32.66C26.923,-34.63 32.585,-38.955 34.562,-35.308C34.601,-35.236 34.652,-35.195 34.706,-35.166C34.663,-35.003 34.769,-34.789 34.96,-34.808C36.461,-34.96 37.465,-33.735 38.781,-33.439C40.499,-33.055 44.825,-35.767 45.251,-32.182C45.302,-31.757 45.875,-31.687 46.014,-31.992C46.431,-31.923 46.837,-31.904 47.292,-31.85C49.343,-31.603 50.607,-29.559 48.249,-28.571C47.986,-28.461 47.874,-28.225 47.999,-27.958C48.552,-26.78 48.83,-25.749 48.347,-24.493C48.29,-24.343 48.366,-24.219 48.481,-24.151C48.382,-24.106 48.291,-24.052 48.228,-23.988C47.381,-23.123 46.508,-22.276 45.686,-21.389C45.407,-21.086 45.084,-20.819 45.068,-20.376C45.042,-19.692 45.892,-19.09 45.87,-18.322C45.83,-16.875 44.312,-16.233 43.328,-15.503C43.247,-15.443 43.208,-15.349 43.201,-15.254C42.904,-14.918 42.931,-14.652 42.969,-14.079C43.029,-13.177 43.026,-12.679 42.515,-11.877C42.299,-11.54 41.94,-11.291 41.712,-10.951C40.937,-9.793 41.173,-8.556 39.489,-8.053C38.623,-7.794 37.849,-7.782 37.065,-7.286C36.777,-7.104 36.829,-6.755 37.019,-6.575C36.673,-5.911 36.688,-5 36.494,-4.283C36.379,-3.862 36.234,-3.445 36.002,-3.072C35.99,-3.051 35.971,-3.036 35.957,-3.016C35.285,-6.021 34.333,-8.959 32.962,-11.78C35.449,-11.767 37.94,-11.587 40.448,-11.249C41.022,-11.171 41.28,-12.046 40.692,-12.135C36.12,-12.826 31.546,-12.987 26.947,-12.432C24.78,-12.171 22.685,-11.684 20.553,-11.237C17.204,-10.536 15.042,-11.452 11.825,-11.88C10.486,-12.058 9.346,-11.808 8.046,-11.687C5.304,-11.432 2.709,-11.827 0,-12.12" style="fill:rgb(113,101,88);fill-rule:nonzero;"/>
                </g>
                <g transform="matrix(1,0,0,1,166.12,532.286)">
                    <path d="M0,-7.657C2.887,-7.56 16.147,-7.432 13.954,-1.453C8.578,0.177 3.223,0.01 -2.316,-0.1C-2.753,-0.428 -3.072,-0.642 -3.873,-0.745C-5.223,-0.918 -6.651,-0.702 -7.998,-0.486C-7.913,-1.21 -7.891,-2.582 -8.697,-2.734C-9.3,-2.848 -10.076,-2.692 -10.684,-2.656C-11.132,-2.629 -11.627,-2.617 -12.036,-2.411C-12.416,-2.22 -12.771,-1.809 -12.862,-1.379C-13.03,-1.71 -13.315,-2.01 -13.661,-2.227C-14.129,-2.52 -14.667,-2.751 -15.228,-2.911C-13.224,-7.834 -4.071,-7.796 0,-7.657" style="fill:rgb(255,229,203);fill-rule:nonzero;"/>
                </g>
                <g transform="matrix(1,0,0,1,170.499,540.263)">
                    <path d="M0,-3.173L0,-3.242C0.019,-3.241 0.034,-3.235 0.053,-3.236C0.497,-3.277 4.536,-4.053 4.763,-3.335C4.909,-2.872 2.76,-1.821 2.434,-1.656C-0.048,-0.402 -3.429,0.88 -6.286,0.337C-6.083,-0.29 -6.374,-1.031 -6.949,-1.546C-6.642,-1.738 -6.373,-1.937 -6.162,-2.138C-6.138,-2.162 -6.124,-2.185 -6.101,-2.208C-4.986,-1.351 -3.843,-0.654 -2.39,-1.032C-1.328,-1.309 0.007,-1.98 0,-3.173" style="fill:rgb(172,213,138);fill-rule:nonzero;"/>
                </g>
                <g transform="matrix(1,0,0,1,162.759,542.541)">
                    <path d="M0,-3.303C0.207,-3.03 0.735,-2.614 0.671,-2.227C0.62,-1.916 0.191,-1.752 -0.063,-1.674C-0.88,-1.423 -1.903,-1.514 -2.662,-1.91C-2.745,-1.987 -2.859,-2.024 -3.002,-1.969C-5.608,-0.968 -7.966,0.07 -10.767,-0.907C-10.78,-0.911 -10.791,-0.908 -10.804,-0.911C-10.424,-1.271 -10.071,-1.64 -9.744,-1.983C-6.725,-1.343 -2.549,-2.155 -0.033,-3.373C-0.021,-3.35 -0.017,-3.325 0,-3.303" style="fill:rgb(172,213,138);fill-rule:nonzero;"/>
                </g>
                <g transform="matrix(1,0,0,1,135.966,535.749)">
                    <path d="M0,3.187C-0.194,2.801 -0.079,2.69 -0.392,2.368C-0.869,1.875 -1.968,1.619 -2.236,0.938C-2.605,0.001 -0.625,-0.891 0.051,-1.097C0.062,-1.1 0.066,-1.11 0.076,-1.115C0.605,-0.964 1.169,-0.893 1.705,-0.837C2.282,-0.778 3.032,-0.917 3.624,-0.805C3.643,-0.795 3.664,-0.79 3.686,-0.782C2.214,-0.836 0.16,-0.569 0.574,0.762C0.772,1.398 1.545,1.75 2.107,1.981C2.551,2.164 3.011,2.301 3.479,2.41C3.609,2.44 3.747,2.473 3.887,2.504C3.745,2.541 3.604,2.573 3.461,2.613C3.17,2.695 3.152,2.993 3.3,3.176C3.234,3.35 3.19,3.52 3.161,3.687C2.09,3.97 0.562,4.302 0,3.187" style="fill:rgb(172,213,138);fill-rule:nonzero;"/>
                </g>
                <g transform="matrix(1,0,0,1,148.923,532.782)">
                    <path d="M0,-3.194C0.049,-3.118 0.121,-3.056 0.234,-3.043C1.025,-2.952 1.876,-2.679 2.592,-2.337C2.929,-2.175 3.33,-1.978 3.563,-1.675C3.821,-1.342 3.664,-1.118 3.45,-0.824C1.121,-0.938 -1.219,-0.43 -3.471,0.377C-4.425,0.255 -5.386,0.173 -6.327,-0.027C-6.902,-0.149 -7.6,-0.294 -8.076,-0.669C-8.766,-1.213 -7.902,-1.763 -7.396,-2.052C-5.245,-3.282 -2.452,-3.571 0,-3.194" style="fill:rgb(239,63,54);fill-rule:nonzero;"/>
                </g>
                <g transform="matrix(1,0,0,1,153.401,531.665)">
                    <path d="M0,-0.045C0.128,0.119 0.415,0.071 0.415,-0.165C0.415,-1.013 1.075,-1.202 1.798,-1.249C2.324,-1.284 3.093,-1.431 3.6,-1.298L3.781,-1.374C3.828,-1.113 3.865,-0.852 3.891,-0.588C3.916,-0.251 3.921,0.091 3.826,0.419C3.7,0.853 3.383,1.072 3.134,1.386C3.105,1.288 3.04,1.199 2.921,1.151C1.917,0.741 0.898,0.488 -0.125,0.365C-0.055,0.229 -0.014,0.093 0,-0.045" style="fill:white;fill-rule:nonzero;"/>
                </g>
                <g transform="matrix(1,0,0,1,160.33,539.742)">
                    <path d="M0,-5.682C0.044,-5.64 0.099,-5.604 0.167,-5.578C1.1,-5.228 4.064,-4.47 3.915,-3.04C3.807,-2.02 1.985,-1.369 1.221,-1.082C-1.402,-0.101 -4.741,0.396 -7.489,-0.319C-8.746,-0.645 -10.557,-1.599 -9.937,-3.198C-9.465,-4.414 -7.57,-4.92 -6.452,-5.207C-4.717,-5.653 -2.106,-6.078 0,-5.682" style="fill:rgb(239,63,54);fill-rule:nonzero;"/>
                </g>
                <g transform="matrix(1,0,0,1,143.736,534.028)">
                    <path d="M0,-0.194C-0.955,0.214 -1.888,0.66 -2.791,1.121C-2.801,1.117 -2.806,1.106 -2.817,1.102C-3.004,1.038 -3.382,0.98 -3.84,0.951C-3.782,0.938 -3.727,0.917 -3.68,0.88L-3.623,0.836C-3.473,0.718 -3.487,0.474 -3.593,0.328C-3.458,-0.117 -3.378,-0.726 -3.423,-1.315C-3.381,-1.282 -3.346,-1.248 -3.298,-1.215C-2.404,-0.602 -1.187,-0.32 0,-0.194" style="fill:rgb(172,213,138);fill-rule:nonzero;"/>
                </g>
                <g transform="matrix(1,0,0,1,139.025,531.695)">
                    <path d="M0,2.399C-0.548,2.402 -1.088,2.377 -1.631,2.297C-2.064,2.235 -2.931,2.182 -3.275,1.893C-3.82,1.436 -3.25,0.726 -2.867,0.388C-2.414,-0.011 -1.742,0.05 -1.173,0.043C-0.903,0.039 -0.557,-0.008 -0.292,0.069C0.148,0.197 0.223,0.397 0.373,0.743C0.578,1.218 0.607,1.855 0.624,2.41C0.42,2.382 0.204,2.398 0,2.399" style="fill:white;fill-rule:nonzero;"/>
                </g>
                <g transform="matrix(1,0,0,1,139.883,535.776)">
                    <path d="M0,3.568C-0.029,3.474 -0.062,3.39 -0.089,3.292C2.153,3.352 4.4,1.637 6.029,0.305C6.275,0.104 5.948,-0.326 5.687,-0.138C4.804,0.495 3.9,1.118 2.917,1.589C2.53,1.774 2.139,1.904 1.746,2.019C1.7,1.951 1.634,1.89 1.529,1.861C1.05,1.723 0.526,1.714 0.036,1.609C-0.349,1.528 -0.731,1.428 -1.104,1.301C-1.613,1.129 -2.101,0.891 -2.476,0.541C-2.558,0.464 -2.507,0.472 -2.513,0.476C-2.345,0.375 -2.17,0.279 -1.956,0.218C-1.186,-0.002 -0.37,0.031 0.416,-0.078C0.451,0.028 0.547,0.113 0.671,0.063C5.616,-1.929 10.008,-3.571 15.272,-2.525C11.967,-2.107 8.994,-0.735 9.567,1.851C9.868,3.208 10.867,4.056 12.218,4.528C11.69,5.042 11.161,5.553 10.554,5.973C8.869,7.139 8.349,6.111 6.798,5.539C6.185,5.313 5.698,5.253 5.031,5.316C4.768,5.34 4.509,5.423 4.25,5.473C3.817,5.601 3.377,5.7 2.931,5.766C1.708,6.147 0.798,5.593 0.197,4.126C0.283,3.924 0.196,3.668 0,3.568" style="fill:rgb(172,213,138);fill-rule:nonzero;"/>
                </g>
                <g transform="matrix(1,0,0,1,169.728,537.46)">
                    <path d="M0,-0.563C-0.064,-0.001 -0.182,0.146 -0.664,0.496C-0.994,0.736 -1.418,0.955 -1.815,1.06C-2.955,1.364 -3.969,0.545 -4.785,-0.136C-4.583,-0.541 -4.562,-0.922 -4.668,-1.281C-3.878,-1.704 -2.837,-1.673 -1.966,-1.724C-1.601,-1.746 -0.826,-1.927 -0.496,-1.783C-0.032,-1.58 0.05,-1.002 0,-0.563" style="fill:white;fill-rule:nonzero;"/>
                </g>
                <g transform="matrix(1,0,0,1,164.872,532.193)">
                    <path d="M0,3.559C-0.738,2.337 -2.896,1.461 -4.14,1.117C-4.298,1.073 -4.423,1.111 -4.516,1.186C-5.316,1.024 -6.241,0.933 -7.208,0.919C-7.084,0.738 -6.986,0.53 -6.912,0.324C-6.888,0.325 -6.866,0.33 -6.84,0.327C-5.639,0.148 -4.388,0 -3.169,0.064C-1.835,0.133 -1.523,1.088 -0.553,1.61C0.564,2.211 2.404,1.743 3.287,2.813C2.154,2.843 0.852,2.917 0,3.559" style="fill:rgb(172,213,138);fill-rule:nonzero;"/>
                </g>
                <g transform="matrix(1,0,0,1,131.24,538.076)">
                    <path d="M0,-4.305C6.02,-8.864 12.368,-9.233 19.488,-10.234C19.28,-9.806 19.162,-9.332 19.14,-8.814C18.823,-8.879 18.509,-8.921 18.197,-8.939C15.874,-9.747 12.985,-9.385 10.753,-8.475C10.006,-8.17 8.895,-7.482 8.589,-6.707C8.452,-6.862 8.295,-6.994 8.087,-7.067C7.272,-7.351 6.216,-7.268 5.373,-7.171C4.735,-7.098 4.44,-6.839 4.04,-6.336C3.351,-5.469 2.965,-4.506 3.829,-3.874C3.709,-3.82 3.583,-3.755 3.436,-3.676C2.863,-3.37 1.933,-2.932 1.537,-2.397C0.896,-1.533 1.873,-0.772 2.534,-0.209C3.16,0.323 3.627,0.44 3.866,1.272C3.984,1.686 3.914,1.866 4.309,2.148C5.165,2.761 6.752,2.526 7.9,2.238C8.042,2.883 8.474,3.442 9.148,3.866C11.179,5.142 13.351,3.396 15.588,4.507C16.51,4.965 16.808,5.511 18,5.241C18.865,5.045 19.665,4.489 20.387,3.849C20.391,3.969 20.452,4.091 20.59,4.147C23.399,5.291 25.926,4.301 28.608,3.299C29.68,3.811 31.122,3.884 32.19,3.372C32.35,3.295 32.483,3.205 32.596,3.106C34.259,3.709 36.317,3.245 37.954,2.806C39.83,2.303 41.761,1.575 43.391,0.502C44.008,0.095 45.362,-0.835 44.625,-1.701C44.294,-2.089 43.645,-2.132 43.178,-2.164C41.891,-2.252 40.515,-2.068 39.258,-1.793C39.246,-2.163 39.203,-2.537 39.048,-2.788C38.766,-3.249 38.257,-3.124 37.782,-3.1C37.779,-3.099 37.777,-3.099 37.774,-3.099C37.012,-4.97 35.398,-4.608 33.917,-5.106C39.048,-4.754 44.247,-4.81 49.165,-6.462C49.189,-6.47 49.205,-6.487 49.227,-6.497C49.392,-6.514 49.554,-6.602 49.632,-6.79C49.779,-7.14 49.875,-7.47 49.94,-7.787C50.958,-7.17 52.186,-6.514 52.744,-5.505C53.726,-3.731 52.631,-1.794 51.292,-0.62C51.276,-0.611 51.261,-0.61 51.245,-0.598C45.18,4.069 37.598,5.236 30.137,5.58C22.555,5.929 14.729,5.827 7.231,4.563C2.387,3.747 -7.371,1.277 0,-4.305" style="fill:rgb(249,203,223);fill-rule:nonzero;"/>
                </g>
                <g transform="matrix(1,0,0,1,157.174,510.076)">
                    <path d="M0,8.027C-0.186,7.991 -0.329,8.058 -0.419,8.167C-0.458,8.178 -0.5,8.183 -0.532,8.223C-3.844,12.32 -7.187,14.585 -12.328,16.019C-15.317,16.853 -18.155,17.105 -21.243,16.479C-21.884,16.349 -28.043,14.776 -27.978,14.159C-27.946,13.857 -28.134,13.707 -28.358,13.683C-28.291,13.179 -28.209,12.676 -28.096,12.179C-27.684,10.378 -27.106,8.658 -26.457,6.937C-22.607,10.291 -9.187,12.586 -7.562,5.697C-7.525,5.539 -7.587,5.4 -7.69,5.31C-7.707,5.281 -7.721,5.251 -7.749,5.224C-10.448,2.611 -8.05,1.232 -8.271,-1.362C-8.331,-2.071 -8.591,-2.325 -8.917,-2.933C-9.883,-4.729 -10.75,-5.609 -10.961,-7.776C-10.969,-7.849 -10.992,-7.908 -11.022,-7.959C-9.845,-9.078 -8.256,-8.008 -7.173,-7.101C-6.182,-6.27 -5.606,-5.343 -5.31,-4.116C-5.398,-4.009 -5.487,-3.902 -5.564,-3.795C-6.548,-2.443 -7.342,-0.489 -6.224,1.039C-5.236,2.387 -3.441,2.443 -1.922,2.17C-1.78,3.673 -1.094,4.869 0.271,5.162C0.49,5.651 0.996,6.022 1.816,6.356C2.451,6.614 3.184,6.766 3.861,6.725C2.663,7.566 1.253,8.275 0,8.027" style="fill:rgb(253,205,169);fill-rule:nonzero;"/>
                </g>
                <g transform="matrix(1,0,0,1,164.376,513.807)">
                    <path d="M0,-5.88C0,-5.858 -0.005,-5.837 0,-5.813C0.314,-4.225 0.778,-1.844 0.058,-0.277C-0.23,0.349 -0.791,0.891 -1.329,1.367C-1.329,1.323 -1.335,1.283 -1.35,1.246C-0.951,0.239 -0.681,-0.854 -0.352,-1.88C-0.244,-2.215 -0.764,-2.354 -0.877,-2.025C-1.225,-1.01 -1.669,0.027 -1.944,1.069C-1.978,1.097 -2.008,1.13 -2.033,1.174C-2.816,2.575 -6.2,2.499 -6.237,0.527C-6.249,-0.114 -5.417,-1.354 -5.108,-1.936C-4.621,-2.855 -1.651,-8.455 0,-5.88" style="fill:rgb(253,205,169);fill-rule:nonzero;"/>
                </g>
                <g transform="matrix(1,0,0,1,160.823,514.027)">
                    <path d="M0,-8.749C0.77,-8.598 1.434,-8.017 2.045,-7.535C-0.073,-6.713 -2.737,-1.749 -3.158,-0.778C-3.332,-0.377 -3.438,-0.026 -3.482,0.287C-4.414,-0.109 -4.787,-1.019 -4.834,-2.066C-4.778,-2.178 -4.789,-2.312 -4.842,-2.432C-4.81,-3.796 -4.296,-5.311 -3.771,-6.207C-3.109,-7.336 -1.455,-9.036 0,-8.749" style="fill:rgb(253,205,169);fill-rule:nonzero;"/>
                </g>
                <g transform="matrix(0.947872,-0.318653,-0.318653,-0.947872,156.424,511.159)">
                    <path d="M-1.2,0.172C-2.904,0.447 -4.799,1.213 -4.237,3.354C-3.879,4.715 -2.406,5.653 -1.2,6.232C0.952,7.266 3.077,6.955 4.557,5.25C2.16,5.174 -0.271,2.66 -1.2,0.172" style="fill:rgb(253,205,169);fill-rule:nonzero;"/>
                </g>
                <g transform="matrix(1,0,0,1,153.477,499.897)">
                    <path d="M0,-1.839C0.595,-1.158 1.084,-0.386 1.524,0.401C1.801,0.897 2.917,2.557 2.783,3.154C2.774,3.196 2.788,3.236 2.794,3.278C2.509,3.335 2.224,3.425 1.94,3.528C1.935,3.521 1.937,3.515 1.931,3.508C0.983,2.6 -0.038,1.777 -0.984,0.868C-1.572,0.304 -2.196,-0.271 -2.947,-0.593C-3.368,-0.973 -3.892,-1.218 -4.309,-1.619C-4.974,-2.26 -4.919,-2.855 -5.135,-3.658C-5.184,-3.841 -5.252,-4.014 -5.329,-4.182C-3.72,-5.367 -0.979,-2.959 0,-1.839" style="fill:rgb(253,205,169);fill-rule:nonzero;"/>
                </g>
                <g transform="matrix(1,0,0,1,143.618,504.089)">
                    <path d="M0,-15.974C0.012,-15.977 0.019,-15.984 0.03,-15.987C0.52,-16.109 0.997,-16.275 1.419,-16.557C1.752,-16.781 2.412,-17.659 2.862,-17.362C3.161,-17.165 3.141,-15.753 3.145,-15.418C3.152,-14.81 3.071,-14.218 2.933,-13.626C1.81,-9.96 -1.196,-7.463 -4.264,-5.199C-4.358,-5.171 -4.436,-5.107 -4.497,-5.027C-5.622,-4.202 -6.748,-3.404 -7.787,-2.589C-8.797,-1.796 -12.023,1.685 -12.98,-0.213C-13.408,-1.063 -12.222,-3.497 -11.944,-4.328C-11.51,-5.623 -10.939,-6.949 -10.744,-8.31C-10.524,-9.845 -11.39,-12.134 -10.087,-13.32C-9.071,-14.245 -7.385,-13.906 -6.14,-14.205C-5.4,-14.384 -3.283,-15.987 -2.761,-15.847C-2.688,-15.828 -2.625,-15.828 -2.567,-15.84C-1.705,-15.803 -0.853,-15.807 0,-15.974" style="fill:rgb(172,213,138);fill-rule:nonzero;"/>
                </g>
                <g transform="matrix(1,0,0,1,75.3066,460.156)">
                    <path d="M0,27.794C-0.601,25.292 1.181,22.344 3.573,21.317C5.64,20.431 7.612,21.321 9.006,22.925C9,23.05 9.067,23.167 9.232,23.153C11.093,22.998 11.809,21.749 12.4,20.02C13.117,17.924 12.837,15.02 13.255,13.04C13.665,11.1 14.824,9.344 15.717,7.543C17.47,4.009 16.292,0.232 18.022,-3.486C19.647,-6.977 20.262,-10.539 20.746,-14.454C20.767,-14.459 20.787,-14.459 20.809,-14.47C25.64,-16.744 29.958,-15.073 34.916,-14.744C36.43,-14.644 36.7,-14.716 38.144,-14.878C41.039,-15.202 42.994,-14.844 45.791,-14.28C48.716,-13.691 51.148,-14.615 54.01,-15.186C56.779,-15.738 59.539,-16.015 62.303,-16.065C65.637,-9.006 66.583,-1.585 67.032,6.143C67.447,13.274 67.747,20.767 64.354,27.297C64.325,27.354 64.316,27.409 64.306,27.464C63.656,27.767 63.177,28.493 62.401,28.751C61.835,28.94 61.233,28.959 60.646,29.033C59.372,29.194 58.077,29.243 57.256,30.378C56.193,31.846 56.774,33.876 56.603,35.621C56.582,35.631 56.563,35.631 56.542,35.645C42.534,44.538 24.326,43.217 11.204,33.325C11.286,33.027 11.044,32.616 10.631,32.688C6.187,33.447 1.262,33.045 0,27.794" style="fill:rgb(253,205,169);fill-rule:nonzero;"/>
                </g>
                <g transform="matrix(1,0,0,1,93.5815,504.792)">
                    <path d="M0,-1.022C0.235,-2.503 0.896,-3.998 1.296,-5.45C3.981,-4.291 6.767,-3.42 9.604,-2.847C8.44,-0.644 7.726,1.891 7.702,4.386C7.701,4.402 7.708,4.413 7.709,4.428C6.138,4.115 4.588,3.701 3.077,3.131C1.063,2.373 -0.42,1.635 0,-1.022" style="fill:rgb(253,205,169);fill-rule:nonzero;"/>
                </g>
                <g transform="matrix(1,0,0,1,77.8486,543.739)">
                    <path d="M0,8.143C0.049,6.914 -0.449,5.709 -0.723,4.52C-1.066,3.026 -1.307,1.516 -1.525,0C-0.243,0.082 1.041,0.088 2.158,0.198C5.027,0.48 7.901,0.801 10.777,1.014C11.577,1.074 12.164,1.166 12.699,1.141C12.95,2.789 13.271,4.427 13.623,6.056C13.767,6.723 13.852,7.466 14.063,8.143L0,8.143Z" style="fill:rgb(253,205,169);fill-rule:nonzero;"/>
                </g>
                <g transform="matrix(1,0,0,1,92.8809,503.11)">
                    <path d="M0,48.772C-0.645,46.42 -1.187,44.053 -1.712,41.667C-1.358,41.567 -1.001,41.391 -0.587,41.071C-0.479,40.988 -0.452,40.888 -0.466,40.793C-0.429,40.734 -0.399,40.668 -0.396,40.581C-0.165,35.739 -0.242,30.876 -0.216,26.029C-0.202,23.296 0.687,19.363 -0.777,16.926C-0.907,16.709 -1.281,16.85 -1.197,17.104C-0.104,20.394 -1.054,25.355 -1.111,28.757C-1.178,32.688 -1.318,36.628 -1.222,40.56C-3.785,41.589 -7.874,40.354 -10.523,40.113C-13.392,39.852 -20.051,40.204 -22.06,37.613C-21.982,37.531 -21.932,37.419 -21.941,37.268C-22.416,29.494 -21.965,21.521 -18.228,14.509C-14.541,7.59 -7.195,2.799 -0.023,0C-0.474,1.699 -0.462,3.362 1.104,4.458C4.15,6.587 8.799,7.225 12.411,7.52C12.943,7.563 12.936,6.743 12.411,6.693C11.296,6.588 10.192,6.427 9.096,6.232C9.123,6.185 9.144,6.131 9.15,6.068C9.355,4.155 9.706,2.386 10.297,0.624C15.838,2.714 21.842,3.601 26.504,7.424C30.021,10.309 33.342,10.354 37.396,12.209C37.433,12.225 37.467,12.226 37.502,12.234C36.501,14.565 35.669,16.946 35.133,19.433C34.623,21.796 34.999,25.209 34.001,27.35C33.984,27.387 33.979,27.425 33.973,27.463C33.933,27.364 33.856,27.275 33.732,27.223C32.208,26.585 30.663,26.634 29.036,26.624C26.764,26.609 24.75,26.227 22.671,25.339C22.386,20.828 21.859,16.334 20.592,12.133C20.475,11.746 19.884,11.906 19.985,12.3C21.963,20.075 21.644,28.404 22.251,36.37C22.261,36.501 22.319,36.598 22.396,36.67C15.117,39.614 8.175,43.278 2.516,48.772L0,48.772Z" style="fill:rgb(241,90,41);fill-rule:nonzero;"/>
                </g>
                <g transform="matrix(1,0,0,1,96.1357,524.527)">
                    <path d="M0,27.355C9.272,19.687 20.368,15.517 31.716,11.676C30.719,13.929 32.281,15.79 34.968,16.993C42.37,20.307 51.982,20.091 59.882,20.056C69.25,20.014 78.962,19.386 86.803,13.727C86.853,13.692 86.886,13.649 86.916,13.605C88.06,12.673 88.585,12.18 88.908,10.698C89.097,9.832 89.175,8.914 88.862,8.068C88.27,6.467 86.494,5.669 85.127,4.827C85.063,3.11 83.735,1.936 81.906,1.131C87.505,0.289 93.082,0 98.748,0.285C98.82,0.289 98.882,0.276 98.936,0.252L98.936,27.355L0,27.355Z" style="fill:rgb(195,154,107);fill-rule:nonzero;"/>
                </g>
                <g transform="matrix(1,0,0,1,127.504,495.214)">
                    <path d="M0,-11.74C-2.403,-8.317 -3.875,-4.006 -4.317,0.129C-4.489,0.154 -4.665,0.18 -4.849,0.21C-4.797,0.113 -4.79,-0.006 -4.873,-0.128C-7.567,-4.096 -12.65,-6.521 -17.244,-7.341C-17.271,-7.345 -17.295,-7.34 -17.321,-7.34C-16.877,-9.051 -16.285,-10.696 -15.937,-11.95C-11.306,-9.396 -4.949,-10.311 0,-11.74" style="fill:rgb(239,64,47);fill-rule:nonzero;"/>
                </g>
                <g transform="matrix(-0.503208,0.864165,0.864165,0.503208,122.383,490.44)">
                    <path d="M4.587,-11.638C4.584,-11.619 4.588,-11.603 4.581,-11.584C3.048,-6.761 3.566,-2.568 4.587,2.253C6.894,-0.403 10.494,-3.895 9.894,-7.327C9.493,-9.622 7.144,-10.845 4.587,-11.638" style="fill:rgb(245,152,177);fill-rule:nonzero;"/>
                </g>
                <g transform="matrix(1,0,0,1,145.622,505.734)">
                    <path d="M0,-12.354C0,-12.354 2.003,-10.732 2.433,-9.348C2.862,-7.965 2.719,-7.631 4.293,-6.343C5.867,-5.055 9.826,-1.812 9.826,-1.812C9.826,-1.812 7.918,-1.478 6.773,0C5.676,-2.384 3.53,-4.721 1.526,-4.579C0.143,-5.675 -0.429,-5.961 -2.003,-5.819C-3.578,-5.675 -4.341,-5.485 -5.962,-6.391C-2.385,-9.396 -0.334,-11.686 0,-12.354" style="fill:rgb(176,192,201);fill-rule:nonzero;"/>
                </g>
            </g>
        </g>
        <g transform="matrix(4.16667,0,0,4.16667,10895.7,3587.6)">
            <clipPath id="_clip3">
                <path d="M48.227,480.707C48.227,519.564 80.885,551.065 121.172,551.065C161.459,551.065 194.116,519.564 194.116,480.707C194.116,441.848 161.459,410.347 121.172,410.347C80.885,410.347 48.227,441.848 48.227,480.707Z" clip-rule="nonzero"/>
            </clipPath>
            <g clip-path="url(#_clip3)">
                <g opacity="0.2">
                    <g transform="matrix(1,0,0,1,154.087,455.376)">
                        <path d="M0,-28.078C2.358,-29.066 1.095,-31.11 -0.957,-31.357C-1.411,-31.411 -1.818,-31.43 -2.234,-31.499C-2.373,-31.194 -2.947,-31.264 -2.997,-31.688C-3.424,-35.274 -7.75,-32.561 -9.468,-32.946C-10.784,-33.242 -11.787,-34.467 -13.288,-34.315C-13.48,-34.296 -13.586,-34.51 -13.542,-34.673C-13.597,-34.702 -13.648,-34.743 -13.687,-34.815C-15.663,-38.462 -21.325,-34.137 -22.824,-32.167C-22.968,-31.977 -23.287,-32.146 -23.153,-32.358C-22.948,-32.682 -22.725,-32.986 -22.494,-33.281C-23.966,-32.863 -25.197,-33.414 -26.682,-33.814C-29.439,-34.559 -32.004,-34.36 -34.674,-33.403C-34.979,-33.294 -35.141,-33.593 -35.069,-33.835C-40.83,-33.957 -47.131,-34.795 -52.512,-32.682C-56.645,-31.06 -60.877,-32.102 -65.024,-29.645C-65.078,-29.569 -65.166,-29.518 -65.262,-29.503C-65.338,-29.455 -65.415,-29.415 -65.492,-29.364C-65.877,-29.11 -66.217,-29.717 -65.849,-29.976C-65.844,-29.98 -65.838,-29.983 -65.833,-29.987C-66.434,-30.671 -67.422,-30.759 -68.265,-30.318C-69.224,-29.817 -69.779,-28.838 -70.41,-28.006C-70.623,-27.726 -71.024,-27.883 -71.024,-28.169C-71.03,-28.178 -71.038,-28.182 -71.043,-28.191C-71.301,-28.669 -71.485,-29.445 -71.843,-29.853C-71.909,-30.477 -72.233,-30.63 -72.815,-30.311C-72.977,-30.218 -73.139,-30.124 -73.302,-30.03C-74.702,-29.227 -75.435,-27.668 -75.762,-26.16C-75.821,-25.891 -76.134,-25.811 -76.353,-25.92C-76.722,-26.103 -76.865,-26.201 -77.136,-26.531C-77.337,-26.775 -77.712,-28.027 -77.71,-28.026C-78.301,-28.209 -80.557,-24.18 -80.472,-23.638C-80.461,-23.569 -80.48,-23.511 -80.51,-23.459C-80.337,-23.232 -80.543,-22.811 -80.913,-22.865C-81.751,-22.987 -84.048,-23.182 -84.151,-22.073C-84.19,-21.652 -83.149,-20.652 -82.968,-20.297C-82.677,-19.726 -82.45,-19.33 -82.713,-18.698C-82.8,-18.486 -82.987,-18.307 -83.149,-18.149C-84.105,-17.224 -83.972,-18.204 -84.388,-16.412C-84.758,-14.818 -84.444,-15.28 -84.028,-13.985C-83.947,-13.734 -83.896,-13.588 -83.862,-13.473C-83.851,-13.48 -83.839,-13.489 -83.827,-13.497C-83.507,-13.708 -83.219,-13.255 -83.441,-12.997C-84.673,-11.572 -85.937,-10.246 -84.621,-8.385C-84.296,-7.925 -83.759,-7.703 -83.528,-7.154C-83.354,-6.739 -83.326,-6.39 -83.403,-5.928C-83.682,-4.279 -84.322,-3.142 -83.24,-1.647C-82.989,-1.646 -82.741,-1.484 -82.748,-1.16C-82.823,2.716 -82.653,6.561 -82.178,10.384C-81.792,10.286 -81.438,10.127 -81.16,9.852C-80.738,9.433 -80.809,8.819 -80.592,8.305C-80.396,7.842 -79.983,7.498 -79.573,7.225C-77.769,6.024 -76.131,7.812 -74.278,7.775C-74.197,6.29 -72.981,5.144 -71.779,4.422C-70.548,3.682 -68.977,3.124 -67.518,3.341C-67.803,1.119 -70.613,0.841 -71.767,-0.775C-71.981,-1.076 -72.089,-1.447 -72.217,-1.79C-72.368,-2.195 -72.528,-2.861 -73,-2.986C-73.848,-3.211 -74.901,-2.707 -75.686,-2.437C-76.467,-2.169 -77.351,-1.825 -78.192,-1.953C-78.905,-2.062 -79.527,-2.662 -79.509,-3.41C-79.488,-4.287 -78.869,-5.054 -78.697,-5.901C-78.569,-6.534 -78.689,-7.084 -79.094,-7.588C-79.352,-7.908 -79.68,-8.176 -79.904,-8.523C-80.357,-9.223 -79.983,-10.044 -79.272,-10.375C-78.404,-10.778 -77.393,-10.832 -76.546,-11.276C-76.968,-11.903 -77.215,-12.658 -77.734,-13.213C-77.789,-13.271 -77.761,-13.353 -77.69,-13.38C-77.275,-13.536 -76.926,-13.784 -76.486,-13.842C-76.38,-15.608 -74.356,-15.558 -73.01,-15.406C-72.807,-15.384 -72.604,-15.357 -72.402,-15.331C-72.336,-15.322 -72.25,-15.295 -72.182,-15.303C-72,-15.322 -72.108,-15.242 -72.002,-15.396C-71.886,-15.565 -71.829,-15.818 -71.739,-16.007C-71.616,-16.265 -71.478,-16.519 -71.315,-16.755C-70.817,-17.474 -70.128,-17.907 -69.26,-17.815C-69.344,-18.351 -68.874,-18.768 -68.446,-19.03C-67.704,-19.483 -66.828,-19.729 -65.989,-19.922C-64.942,-20.162 -63.869,-20.302 -62.797,-20.356C-61.806,-20.406 -60.797,-20.391 -59.82,-20.204C-59.215,-20.089 -58.51,-19.892 -58.08,-19.416C-56.848,-20.446 -54.412,-21.687 -53.479,-19.767C-51.739,-21.651 -47.4,-22.343 -45.947,-19.828C-45.635,-20.664 -45.002,-21.723 -43.976,-21.385C-43.094,-21.095 -42.693,-20.084 -42.556,-19.204C-42.11,-20.334 -41.438,-21.391 -40.573,-22.239C-39.826,-22.973 -38.903,-23.572 -37.847,-23.704C-36.904,-23.822 -35.925,-23.694 -35.008,-23.469C-33.381,-23.069 -31.351,-22.175 -30.751,-20.464C-30.304,-21.386 -29.477,-22.265 -28.551,-22.671C-28.18,-22.833 -27.732,-22.921 -27.364,-22.702C-27.053,-22.517 -26.902,-22.186 -26.814,-21.842C-26.628,-22.714 -26.346,-23.666 -25.682,-24.251C-24.66,-25.151 -23.339,-24.294 -22.491,-23.582C-21.213,-22.51 -20.185,-21.174 -19.092,-19.923C-18.159,-21.423 -16.724,-22.494 -14.89,-22.426C-12.968,-22.354 -11.215,-21.261 -9.781,-20.057C-9.126,-20.771 -8.812,-21.721 -8.362,-22.563C-8.03,-23.185 -7.59,-23.813 -6.886,-24.036C-6.168,-24.265 -5.401,-24.027 -4.759,-23.689C-3.778,-23.174 -2.813,-22.331 -2.128,-21.346C-1.435,-22.07 -0.721,-22.778 -0.021,-23.495C0.042,-23.558 0.134,-23.613 0.233,-23.658C0.118,-23.725 0.041,-23.849 0.099,-24C0.582,-25.256 0.304,-26.287 -0.25,-27.465C-0.375,-27.732 -0.263,-27.968 0,-28.078" style="fill:white;fill-rule:nonzero;"/>
                    </g>
                </g>
                <g opacity="0.5">
                    <g transform="matrix(1,0,0,1,154.328,525.9)">
                        <path d="M0,1.084C0.065,1.106 0.088,1.17 0.06,1.23C-0.056,1.48 -0.029,1.75 -0.062,2.013C0.371,1.855 0.796,1.681 1.215,1.49C2.842,0.746 4.446,-0.112 6.264,-0.244C6.322,-0.248 6.359,-0.195 6.364,-0.145C6.383,0.059 6.378,0.259 6.368,0.462C6.36,0.596 6.343,0.742 6.39,0.871C6.448,1.029 6.599,1.133 6.737,1.217C7.058,1.41 7.442,1.386 7.794,1.305C8.594,1.12 9.315,0.675 10.125,0.53C10.459,0.472 10.824,0.469 11.126,0.645C11.32,0.758 11.427,0.938 11.346,1.158C11.319,1.231 11.273,1.299 11.249,1.373C11.228,1.434 11.23,1.442 11.301,1.478C11.473,1.563 11.708,1.562 11.894,1.572C12.103,1.585 12.312,1.561 12.517,1.521C13.441,1.348 14.304,0.938 15.207,0.685C15.981,0.468 16.951,0.299 17.666,0.781C17.868,0.919 17.984,1.09 18.048,1.323C18.065,1.388 18.077,1.45 18.129,1.494C18.216,1.567 18.368,1.573 18.475,1.58C19.04,1.617 19.619,1.556 20.175,1.457C20.741,1.356 21.302,1.221 21.876,1.172C22.417,1.126 22.961,1.175 23.462,1.394C23.645,1.473 23.605,1.631 23.592,1.801C23.583,1.917 23.571,1.983 23.68,2.041C23.801,2.105 23.932,2.149 24.065,2.182C24.331,2.248 24.604,2.267 24.873,2.317C25.133,2.366 25.394,2.422 25.651,2.485C25.676,2.491 25.699,2.5 25.724,2.506C23.99,-1.085 14.222,-1.189 11.792,-1.271C8.399,-1.387 1.487,-1.422 -1.884,1.418C-1.274,1.13 -0.649,0.86 0,1.084" style="fill:white;fill-rule:nonzero;"/>
                    </g>
                </g>
                <g opacity="0.2">
                    <g transform="matrix(1,0,0,1,141.565,529.629)">
                        <path d="M0,1.243C0.824,1.287 1.648,1.238 2.468,1.161C4.001,1.016 5.543,0.801 7.082,0.995C8.369,1.158 9.654,1.657 10.95,1.533C10.938,1.514 10.937,1.497 10.921,1.477C10.688,1.175 10.287,0.977 9.95,0.816C9.234,0.473 8.383,0.201 7.591,0.11C7.479,0.097 7.407,0.035 7.357,-0.041C4.924,-0.414 2.158,-0.131 0.013,1.075C0.001,1.128 -0.009,1.181 0,1.243" style="fill:white;fill-rule:nonzero;"/>
                    </g>
                </g>
                <g opacity="0.2">
                    <g transform="matrix(1,0,0,1,160.497,536.958)">
                        <path d="M0,-2.794C-0.067,-2.819 -0.122,-2.856 -0.167,-2.898C-2.272,-3.294 -4.884,-2.868 -6.619,-2.423C-7.736,-2.136 -9.632,-1.63 -10.104,-0.413C-10.105,-0.409 -10.106,-0.404 -10.107,-0.4C-10.07,-0.435 -10.036,-0.472 -9.996,-0.503C-9.521,-0.871 -8.935,-1.085 -8.365,-1.253C-7,-1.656 -5.562,-1.815 -4.147,-1.928C-3.668,-1.966 -3.189,-1.993 -2.709,-2.022C-2.322,-2.044 -1.934,-1.999 -1.549,-1.955C-0.905,-1.881 -0.263,-1.776 0.371,-1.635C1.016,-1.491 1.664,-1.313 2.265,-1.032C2.686,-0.836 3.174,-0.556 3.346,-0.096C3.423,0.111 3.393,0.311 3.321,0.5C3.553,0.275 3.718,0.025 3.748,-0.256C3.898,-1.686 0.933,-2.443 0,-2.794" style="fill:white;fill-rule:nonzero;"/>
                    </g>
                </g>
                <g opacity="0.5">
                    <g transform="matrix(1,0,0,1,143.311,535.851)">
                        <path d="M0,-0.129C0.477,-0.229 0.946,-0.366 1.41,-0.514C1.859,-0.656 2.305,-0.812 2.752,-0.96C3.083,-1.07 3.417,-1.187 3.761,-1.252C3.819,-1.263 3.895,-1.226 3.888,-1.155C3.833,-0.585 3.376,-0.185 2.921,0.106C2.76,0.21 2.587,0.291 2.417,0.377C1.525,1.1 0.463,1.901 -0.672,2.471C-0.665,2.5 -0.667,2.53 -0.694,2.558C-0.868,2.736 -0.965,2.945 -1.047,3.173C-0.622,3.368 -0.162,3.469 0.307,3.427C0.779,3.384 1.231,3.209 1.641,2.975C2.426,2.527 3.082,1.874 3.675,1.2C3.963,0.874 4.237,0.537 4.506,0.196C4.768,-0.134 5.018,-0.477 5.307,-0.783C6.009,-1.529 6.918,-2.056 7.92,-2.276C8.695,-2.448 9.494,-2.442 10.274,-2.317C10.78,-2.436 11.307,-2.532 11.844,-2.6C6.82,-3.598 2.589,-2.148 -2.085,-0.281C-1.87,-0.101 -1.58,-0.025 -1.299,-0.004C-0.864,0.027 -0.425,-0.039 0,-0.129" style="fill:white;fill-rule:nonzero;"/>
                    </g>
                </g>
                <g opacity="0.5">
                    <g transform="matrix(1,0,0,1,141.736,496.822)">
                        <path d="M0,-5.388C-0.335,-5.087 -0.722,-4.849 -1.052,-4.544C-1.377,-4.243 -1.529,-3.865 -1.567,-3.427C-1.593,-3.127 -1.574,-2.834 -1.531,-2.536C-1.493,-2.268 -1.445,-1.997 -1.454,-1.724C-1.472,-1.186 -1.756,-0.735 -2.123,-0.357C-2.745,0.284 -3.586,0.624 -4.373,1.012C-4.781,1.215 -5.186,1.432 -5.544,1.716C-5.813,1.929 -6.033,2.187 -6.228,2.465C-5.775,2.23 -5.337,1.966 -4.916,1.679C-4.626,1.481 -4.339,1.281 -4.045,1.09C-3.795,0.928 -3.505,0.816 -3.235,0.692C-2.271,0.248 -1.212,-0.191 -0.491,-1C-0.078,-1.465 0.135,-2.026 0.172,-2.644C0.208,-3.237 0.145,-3.847 0.367,-4.412C0.49,-4.726 0.737,-4.991 0.958,-5.239C1.235,-5.549 1.525,-5.849 1.796,-6.166C2.135,-6.563 2.802,-7.332 2.356,-7.853C1.312,-7.315 0.849,-6.152 0,-5.388" style="fill:white;fill-rule:nonzero;"/>
                    </g>
                </g>
                <g opacity="0.5">
                    <g transform="matrix(1,0,0,1,135.819,491.531)">
                        <path d="M0,3.772C0.053,3.751 0.102,3.713 0.146,3.677C0.345,3.519 0.504,3.315 0.678,3.13C0.879,2.918 1.042,2.676 1.212,2.438C1.392,2.187 1.585,1.942 1.819,1.738C1.946,1.628 2.098,1.551 2.244,1.472C2.596,1.282 3.002,1.105 3.285,0.815C3.465,0.63 3.468,0.279 3.228,0.14C2.952,-0.018 2.555,0.039 2.257,0.083C1.94,0.128 1.63,0.207 1.318,0.277C1.034,0.443 0.758,0.624 0.538,0.867C0.242,1.193 0.1,1.607 0.019,2.033C-0.069,2.5 -0.133,3 -0.124,3.476C-0.122,3.567 -0.123,3.715 -0.065,3.779C-0.058,3.788 -0.043,3.79 0,3.772" style="fill:white;fill-rule:nonzero;"/>
                    </g>
                </g>
                <g opacity="0.5">
                    <g transform="matrix(1,0,0,1,132.874,491.6)">
                        <path d="M0,4.179C-0.171,5.371 -0.626,6.534 -1.03,7.677C-0.747,7.266 -0.462,6.857 -0.205,6.43C0.04,6.025 0.266,5.624 0.398,5.167C0.637,4.345 0.664,3.479 0.747,2.631C0.824,1.842 0.929,1.006 1.348,0.315C1.689,-0.251 2.223,-0.619 2.845,-0.814C3.43,-0.998 4.038,-1.111 4.638,-1.237C5.333,-1.384 6.031,-1.533 6.71,-1.743C7.471,-1.977 8.727,-2.425 8.732,-3.336C8.548,-3.339 8.363,-3.343 8.177,-3.351C8.119,-3.34 8.056,-3.339 7.983,-3.358C7.461,-3.498 5.344,-1.895 4.604,-1.717C3.359,-1.417 1.673,-1.756 0.657,-0.831C-0.646,0.355 0.22,2.644 0,4.179" style="fill:white;fill-rule:nonzero;"/>
                    </g>
                </g>
                <g opacity="0.2">
                    <g transform="matrix(1,0,0,1,80.6675,504.797)">
                        <path d="M0,38.189C-1.184,37.492 -2.371,36.683 -3.276,35.638C-3.724,35.122 -4.103,34.526 -4.261,33.854C-4.419,33.178 -4.34,32.484 -4.159,31.821C-3.963,31.105 -3.667,30.421 -3.438,29.717C-3.191,28.956 -3.059,28.204 -3.094,27.402C-3.159,25.914 -3.382,24.442 -3.59,22.969C-3.771,21.686 -3.943,20.387 -3.876,19.088C-3.812,17.825 -3.491,16.592 -2.851,15.496C-2.031,14.092 -0.791,13.089 0.426,12.047C2.528,10.247 4.701,8.343 7.438,7.617C8.914,7.224 10.446,7.188 11.96,7.312C13.485,7.437 14.979,7.808 16.502,7.946C17.885,8.07 19.411,8.057 20.54,7.127C20.738,6.963 20.986,6.705 20.75,6.468C20.501,6.22 20.078,6.132 19.749,6.057C18.847,5.851 17.904,5.788 16.981,5.77C16.166,5.755 15.371,5.551 14.598,5.3C13.577,4.968 12.582,4.54 11.643,4.02C10.778,3.542 9.914,2.975 9.253,2.23C8.773,1.688 8.372,0.978 8.546,0.231C8.578,0.094 8.628,-0.032 8.689,-0.154C2.724,2.736 -2.928,7.031 -6.015,12.823C-9.751,19.834 -10.203,27.807 -9.728,35.582C-9.719,35.733 -9.769,35.844 -9.846,35.926C-8.119,38.153 -2.961,38.207 0.276,38.343C0.185,38.291 0.091,38.243 0,38.189" style="fill:white;fill-rule:nonzero;"/>
                    </g>
                </g>
                <g opacity="0.2">
                    <g transform="matrix(1,0,0,1,108.937,514.807)">
                        <path d="M0,-7.433C1.035,-6.999 1.992,-6.424 2.856,-5.708C3.666,-5.039 4.384,-4.273 5.127,-3.533C5.523,-3.138 5.927,-2.75 6.349,-2.382C6.803,-1.987 7.299,-1.635 7.798,-1.299C8.734,-0.668 9.721,-0.116 10.741,0.368C12.718,1.305 14.807,1.97 16.897,2.604C18.015,2.943 19.135,3.279 20.245,3.64C20.608,2.594 21.007,1.56 21.446,0.538C21.411,0.53 21.376,0.529 21.34,0.512C17.286,-1.342 13.964,-1.387 10.448,-4.272C5.786,-8.095 -0.218,-8.982 -5.759,-11.073C-6.028,-10.271 -6.241,-9.467 -6.419,-8.65C-4.235,-8.521 -2.037,-8.287 0,-7.433" style="fill:white;fill-rule:nonzero;"/>
                    </g>
                </g>
                <g opacity="0.2">
                    <g transform="matrix(1,0,0,1,107.735,514.123)">
                        <path d="M0,-5.018C-0.12,-5.012 -0.233,-4.984 -0.341,-4.944C0.055,-4.717 0.435,-4.394 0.419,-3.936C0.403,-3.478 0.014,-3.11 -0.318,-2.843C-0.81,-2.449 -1.365,-2.138 -1.918,-1.84C-2.465,-1.546 -3.024,-1.274 -3.564,-0.966C-3.759,-0.855 -3.96,-0.738 -4.135,-0.6C-4.198,-0.55 -4.259,-0.497 -4.311,-0.434C-4.317,-0.427 -4.318,-0.416 -4.324,-0.409C-3.465,-0.172 -2.578,-0.014 -1.687,0.002C-0.911,0.015 -0.086,-0.071 0.604,-0.451C1.288,-0.826 1.736,-1.508 1.811,-2.287C1.89,-3.121 1.581,-4.048 0.958,-4.622C0.697,-4.862 0.362,-5.033 0,-5.018" style="fill:white;fill-rule:nonzero;"/>
                    </g>
                </g>
                <g opacity="0.2">
                    <g transform="matrix(1,0,0,1,106.797,527.536)">
                        <path d="M0,13.585C-0.048,12.865 0.09,12.117 0.335,11.44C0.563,10.814 1.021,10.295 1.364,9.731C1.528,9.461 1.685,9.171 1.737,8.856C1.786,8.564 1.694,8.266 1.535,8.02C1.244,7.567 0.701,7.414 0.219,7.253C-0.044,7.164 -0.307,7.069 -0.551,6.936C-0.82,6.787 -1.052,6.584 -1.25,6.351C-1.628,5.903 -1.841,5.355 -1.855,4.77C-1.87,4.157 -1.691,3.553 -1.457,2.993C-1.187,2.348 -0.837,1.739 -0.472,1.144C-0.097,0.533 0.299,-0.063 0.67,-0.675C0.791,-0.873 0.917,-1.07 1.011,-1.282C1.062,-1.395 1.111,-1.507 1.161,-1.619C1.455,-2.285 1.737,-2.956 1.993,-3.638C2.269,-4.375 2.532,-5.131 2.671,-5.908C2.721,-6.188 2.76,-6.484 2.724,-6.769C2.712,-6.857 2.685,-6.969 2.646,-7.042C2.604,-7.121 2.561,-7.168 2.486,-7.208C2.418,-7.244 2.326,-7.254 2.23,-7.247C2.097,-7.238 1.958,-7.192 1.832,-7.143C1.396,-6.968 1,-6.685 0.625,-6.405C0.598,-6.384 0.572,-6.383 0.548,-6.392C0.467,-6.322 0.38,-6.259 0.301,-6.186C-0.548,-5.39 -1.213,-4.417 -1.781,-3.406C-2.376,-2.348 -2.869,-1.235 -3.343,-0.118C-3.792,0.94 -4.22,2.011 -4.717,3.048C-5.165,3.98 -5.701,4.871 -6.206,5.773C-7.398,7.905 -8.604,10.077 -9.363,12.408C-9.532,12.929 -9.676,13.458 -9.776,13.996C-9.874,14.526 -9.906,15.06 -9.918,15.598C-9.927,16.001 -9.92,16.494 -9.635,16.814C-9.422,17.052 -9.103,17.171 -8.835,17.332C-8.445,17.568 -8.099,17.888 -7.85,18.272C-7.593,18.669 -7.485,19.166 -7.411,19.626C-7.347,20.022 -7.31,20.43 -7.292,20.839C-4.763,18.917 -2.054,17.261 0.764,15.785C0.361,15.11 0.054,14.391 0,13.585" style="fill:white;fill-rule:nonzero;"/>
                    </g>
                </g>
                <g opacity="0.2">
                    <g transform="matrix(1,0,0,1,182.005,526.052)">
                        <path d="M0,0.72C0.95,0.599 1.903,0.495 2.857,0.423C3.821,0.349 4.791,0.3 5.757,0.339C6.151,0.355 6.545,0.385 6.934,0.452C7.229,0.503 7.528,0.574 7.796,0.711C7.989,0.81 8.17,0.956 8.244,1.166C8.306,1.344 8.261,1.526 8.19,1.695C8.764,1.813 9.342,1.91 9.924,1.984C10.968,2.116 12.016,2.189 13.066,2.245L13.066,-1.272C13.013,-1.249 12.951,-1.236 12.878,-1.24C7.212,-1.525 1.635,-1.236 -3.964,-0.393C-3.119,-0.021 -2.39,0.433 -1.834,0.979C-1.224,0.885 -0.613,0.798 0,0.72" style="fill:white;fill-rule:nonzero;"/>
                    </g>
                </g>
                <g opacity="0.5">
                    <g transform="matrix(1,0,0,1,149.915,498.737)">
                        <path d="M0,0.653C-1.574,-0.635 -1.431,-0.969 -1.86,-2.352C-2.125,-3.204 -2.984,-4.144 -3.607,-4.743C-3.608,-4.714 -3.609,-4.686 -3.61,-4.658C-3.519,-4.464 -3.464,-4.26 -3.51,-4.045C-3.55,-3.854 -3.658,-3.685 -3.744,-3.512C-3.856,-3.286 -3.875,-3.079 -3.874,-2.829C-3.873,-2.661 -3.88,-2.484 -3.826,-2.321C-3.778,-2.176 -3.687,-2.044 -3.61,-1.912C-3.478,-1.683 -3.348,-1.451 -3.204,-1.228C-2.918,-0.786 -2.594,-0.372 -2.231,0.008C-1.517,0.759 -0.665,1.348 0.199,1.913C1.072,2.482 1.96,3.028 2.806,3.638C3.523,4.156 4.215,4.725 4.796,5.396C5.229,5.241 5.533,5.184 5.533,5.184C5.533,5.184 1.574,1.941 0,0.653" style="fill:white;fill-rule:nonzero;"/>
                    </g>
                </g>
                <g opacity="0.2">
                    <g transform="matrix(1,0,0,1,107.552,537.014)">
                        <path d="M0,14.059C1.379,13.333 2.808,12.707 4.222,12.055C5.572,11.432 6.909,10.775 8.177,9.997C7.618,9.783 7.019,9.682 6.423,9.648C5.074,9.571 3.72,9.77 2.391,9.977C1.127,10.174 -0.143,10.419 -1.424,10.464C-1.507,10.467 -1.562,10.35 -1.495,10.293C-1.374,10.191 -1.248,10.093 -1.119,10C-0.026,9.217 1.295,8.822 2.573,8.458C3.236,8.271 3.902,8.092 4.558,7.879C5.263,7.65 5.925,7.347 6.599,7.04C7.4,6.675 8.208,6.324 9.013,5.967C9.817,5.61 10.614,5.236 11.417,4.874C12.992,4.166 14.582,3.492 16.185,2.849C17.488,2.326 18.805,1.835 20.124,1.351C19.923,0.683 19.959,-0.04 20.3,-0.81C8.952,3.031 -2.145,7.201 -11.417,14.869L-1.419,14.869C-0.954,14.585 -0.482,14.313 0,14.059" style="fill:white;fill-rule:nonzero;"/>
                    </g>
                </g>
                <g transform="matrix(1,0,0,1,158.99,522.835)">
                    <path d="M0,-6.403C-0.82,-6.737 -1.326,-7.108 -1.545,-7.597C-2.91,-7.89 -3.596,-9.087 -3.738,-10.59C-4.728,-10.412 -5.831,-10.381 -6.755,-10.749C-6.748,-10.48 -6.748,-10.213 -6.747,-9.943C-6.746,-9.446 -6.727,-8.948 -6.604,-8.465C-6.534,-8.194 -6.44,-7.922 -6.308,-7.675C-6.262,-7.591 -6.195,-7.526 -6.118,-7.468C-5.894,-7.302 -5.625,-7.194 -5.371,-7.08C-5.065,-6.942 -4.756,-6.805 -4.471,-6.627C-4.202,-6.459 -3.947,-6.251 -3.778,-5.978C-3.603,-5.696 -3.564,-5.382 -3.571,-5.056C-3.582,-4.52 -3.722,-3.995 -3.971,-3.519C-4.521,-2.466 -5.529,-1.713 -6.547,-1.147C-7.798,-0.452 -9.17,0.022 -10.548,0.393C-11.948,0.77 -13.376,1.037 -14.813,1.227C-15.937,1.374 -17.073,1.483 -18.208,1.491C-19.548,1.499 -20.891,1.521 -22.229,1.462C-23.557,1.405 -24.918,1.281 -26.185,0.853C-27.235,0.498 -28.243,-0.113 -28.763,-1.129C-29.109,-1.805 -29.202,-2.553 -29.157,-3.302C-29.444,-2.409 -29.7,-1.506 -29.912,-0.58C-30.025,-0.083 -30.106,0.42 -30.174,0.924C-29.95,0.948 -29.762,1.098 -29.794,1.4C-29.859,2.017 -23.7,3.59 -23.059,3.72C-19.971,4.346 -17.133,4.094 -14.144,3.26C-9.002,1.826 -5.66,-0.439 -2.348,-4.536C-2.315,-4.576 -2.274,-4.581 -2.235,-4.592C-2.145,-4.701 -2.002,-4.768 -1.816,-4.732C-0.563,-4.484 0.847,-5.193 2.045,-6.034C1.368,-5.993 0.635,-6.145 0,-6.403" style="fill:rgb(251,184,125);fill-rule:nonzero;"/>
                </g>
                <g transform="matrix(1,0,0,1,164.29,514.613)">
                    <path d="M0,-3.651C-0.139,-3.445 -0.221,-3.232 -0.268,-2.988C-0.274,-2.955 -0.278,-2.922 -0.283,-2.887C-0.251,-2.834 -0.239,-2.765 -0.265,-2.685C-0.3,-2.575 -0.333,-2.459 -0.367,-2.347C-0.371,-2.323 -0.373,-2.298 -0.378,-2.275C-0.389,-2.221 -0.417,-2.179 -0.433,-2.129C-0.691,-1.269 -0.935,-0.388 -1.263,0.441C-1.249,0.478 -1.242,0.518 -1.242,0.562C-0.705,0.085 -0.144,-0.457 0.144,-1.083C0.549,-1.964 0.575,-3.102 0.468,-4.213C0.299,-4.036 0.137,-3.853 0,-3.651" style="fill:rgb(251,184,125);fill-rule:nonzero;"/>
                </g>
                <g transform="matrix(1,0,0,1,161.601,515.92)">
                    <path d="M0,-2.075C-0.711,-1.989 -1.447,-2.016 -2.148,-2.167C-2.487,-2.239 -2.853,-2.354 -3.17,-2.537C-3.341,-2.179 -3.467,-1.837 -3.462,-1.586C-3.425,0.386 -0.041,0.462 0.742,-0.939C0.767,-0.983 0.797,-1.016 0.831,-1.044C0.95,-1.494 1.103,-1.943 1.264,-2.39C0.864,-2.217 0.421,-2.126 0,-2.075" style="fill:rgb(251,184,125);fill-rule:nonzero;"/>
                </g>
                <g transform="matrix(1,0,0,1,158.708,514.278)">
                    <path d="M0,-3.028C-0.337,-2.792 -0.69,-2.574 -1.066,-2.403C-1.387,-2.258 -1.737,-2.133 -2.094,-2.137C-2.327,-2.139 -2.532,-2.231 -2.708,-2.371C-2.713,-2.353 -2.71,-2.334 -2.718,-2.317C-2.671,-1.269 -2.298,-0.36 -1.366,0.036C-1.322,-0.277 -1.216,-0.628 -1.042,-1.029C-0.9,-1.356 -0.5,-2.14 0.045,-3.064C0.03,-3.053 0.016,-3.039 0,-3.028" style="fill:rgb(251,184,125);fill-rule:nonzero;"/>
                </g>
                <g transform="matrix(1,0,0,1,154.944,510.54)">
                    <path d="M0,-1.412C-0.759,-1.176 -1.667,-0.997 -2.447,-1.24C-2.765,-1.34 -3.058,-1.53 -3.218,-1.83C-3.335,-2.048 -3.368,-2.29 -3.362,-2.533C-3.534,-2.104 -3.635,-1.66 -3.604,-1.209C-3.456,0.999 -1.415,1.121 0.287,0.839C0.315,0.005 0.496,-0.874 0.782,-1.72C0.528,-1.6 0.267,-1.495 0,-1.412" style="fill:rgb(251,184,125);fill-rule:nonzero;"/>
                </g>
                <g transform="matrix(1,0,0,1,152.66,497.847)">
                    <path d="M0,2.535C-0.531,1.641 -1.133,0.768 -1.896,0.056C-2.533,-0.541 -3.318,-0.999 -4.197,-1.065C-4.088,-0.518 -3.999,-0.057 -3.492,0.431C-3.075,0.832 -2.552,1.077 -2.13,1.457C-1.38,1.779 -0.756,2.353 -0.168,2.918C0.077,3.152 0.333,3.374 0.585,3.6C0.396,3.242 0.207,2.884 0,2.535" style="fill:rgb(251,184,125);fill-rule:nonzero;"/>
                </g>
                <g transform="matrix(1,0,0,1,137.61,503.681)">
                    <path d="M0,-59.591C-2.764,-59.54 -5.524,-59.264 -8.293,-58.712C-11.155,-58.141 -13.587,-57.217 -16.513,-57.806C-19.309,-58.369 -21.264,-58.728 -24.16,-58.404C-25.604,-58.241 -25.874,-58.169 -27.388,-58.27C-32.345,-58.599 -36.664,-60.27 -41.494,-57.995C-41.516,-57.985 -41.536,-57.985 -41.557,-57.98C-42.041,-54.065 -42.656,-50.503 -44.281,-47.012C-46.012,-43.294 -44.833,-39.517 -46.586,-35.983C-47.479,-34.182 -48.639,-32.426 -49.048,-30.486C-49.466,-28.506 -49.187,-25.602 -49.903,-23.506C-50.495,-21.777 -51.21,-20.528 -53.071,-20.372C-53.236,-20.359 -53.303,-20.476 -53.297,-20.601C-53.659,-21.017 -54.061,-21.381 -54.491,-21.683C-54.616,-21.242 -54.748,-20.785 -55.034,-20.421C-55.348,-20.021 -55.81,-19.744 -56.227,-19.465C-56.511,-19.276 -56.797,-19.099 -57.106,-18.954C-57.353,-18.839 -57.606,-18.741 -57.859,-18.641C-58.303,-18.462 -58.716,-18.244 -58.984,-17.831C-59.682,-16.758 -59.521,-15.444 -59.108,-14.302C-58.647,-13.031 -57.881,-11.849 -56.953,-10.87C-56.892,-10.806 -56.823,-10.75 -56.761,-10.688C-55.149,-10.43 -53.376,-10.547 -51.672,-10.838C-51.259,-10.909 -51.018,-10.498 -51.099,-10.2C-39.236,-1.257 -23.215,0.679 -9.899,-5.606C-13.036,-4.449 -16.328,-3.712 -19.645,-3.326C-21.814,-3.073 -24.001,-2.972 -26.185,-3.02C-28.25,-3.066 -30.358,-3.197 -32.39,-3.586C-35.776,-4.234 -39.011,-5.809 -41.712,-7.935C-44.409,-10.056 -46.71,-12.905 -47.584,-16.276C-48.013,-17.929 -48.066,-19.663 -47.736,-21.339C-47.514,-22.469 -47.185,-23.581 -46.921,-24.702C-46.634,-25.919 -46.359,-27.139 -46.083,-28.359C-45.533,-30.796 -44.978,-33.234 -44.308,-35.642C-43.976,-36.835 -43.616,-38.022 -43.214,-39.195C-42.818,-40.356 -42.305,-41.484 -41.977,-42.666C-41.364,-44.871 -41.216,-47.172 -40.649,-49.387C-40.427,-50.253 -40.172,-51.128 -39.573,-51.815C-39.114,-52.341 -38.5,-52.698 -37.837,-52.906C-36.295,-53.39 -34.592,-53.191 -33.012,-53.048C-32.179,-52.973 -31.346,-52.89 -30.509,-52.874C-29.269,-52.852 -28.021,-52.923 -26.781,-52.948C-21.64,-53.051 -16.493,-53.137 -11.367,-53.568C-10.169,-53.668 -8.976,-53.789 -7.775,-53.842C-6.611,-53.893 -5.446,-53.917 -4.282,-53.962C-2.2,-54.044 -0.108,-54.211 1.924,-54.683C1.389,-56.336 0.763,-57.975 0,-59.591" style="fill:rgb(251,184,125);fill-rule:nonzero;"/>
                </g>
                <g transform="matrix(1,0,0,1,95.2374,501.22)">
                    <path d="M0,1.909C0.767,2.428 1.631,2.794 2.511,3.074C3.464,3.378 4.451,3.583 5.444,3.698C5.861,3.746 6.282,3.772 6.703,3.786C7.021,2.723 7.438,1.691 7.949,0.725C5.111,0.152 2.325,-0.718 -0.36,-1.877C-0.599,-1.007 -0.925,-0.122 -1.205,0.766C-0.89,1.223 -0.455,1.601 0,1.909" style="fill:rgb(251,184,125);fill-rule:nonzero;"/>
                </g>
                <g transform="matrix(1,0,0,1,80.9414,550.28)">
                    <path d="M0,-4.939C1.514,-4.843 3.066,-4.738 4.516,-4.256C5.045,-4.081 5.534,-3.808 5.946,-3.431C6.332,-3.08 6.64,-2.649 6.882,-2.188C7.411,-1.182 7.656,-0.051 7.875,1.055C7.91,1.237 7.944,1.419 7.979,1.602L10.97,1.602C10.759,0.925 10.674,0.182 10.53,-0.485C10.179,-2.114 9.857,-3.752 9.606,-5.4C9.071,-5.375 8.484,-5.467 7.685,-5.527C4.809,-5.74 1.935,-6.061 -0.935,-6.343C-2.052,-6.453 -3.335,-6.459 -4.618,-6.541C-4.562,-6.149 -4.496,-5.759 -4.435,-5.369C-2.974,-5.098 -1.481,-5.032 0,-4.939" style="fill:rgb(251,184,125);fill-rule:nonzero;"/>
                </g>
                <g transform="matrix(1,0,0,1,130.257,475.58)">
                    <path d="M0,-1.101C-0.405,-1.075 -0.81,-1.156 -1.193,-1.28C-1.611,-1.415 -2.013,-1.6 -2.416,-1.776C-2.644,-1.875 -2.873,-1.972 -3.105,-2.061C-3.318,-2.142 -3.533,-2.207 -3.731,-2.322C-4.015,-2.486 -4.246,-2.712 -4.499,-2.916C-4.704,-3.082 -4.921,-3.18 -5.185,-3.1C-5.385,-3.038 -5.565,-2.914 -5.73,-2.789C-5.925,-2.642 -6.103,-2.487 -6.233,-2.28C-6.466,-1.911 -6.58,-1.466 -6.607,-1.035C-6.634,-0.614 -6.587,-0.166 -6.395,0.213C-6.228,0.545 -6.035,0.862 -5.777,1.13C-5.336,1.589 -4.748,1.866 -4.117,1.933C-2.747,2.079 -1.358,1.432 -0.284,0.633C0.255,0.232 0.754,-0.243 1.146,-0.79C1.375,-1.111 1.582,-1.471 1.691,-1.856C1.558,-1.747 1.43,-1.631 1.284,-1.539C0.896,-1.294 0.46,-1.131 0,-1.101" style="fill:rgb(251,184,125);fill-rule:nonzero;"/>
                </g>
                <g transform="matrix(1,0,0,1,84.7334,489.081)">
                    <path d="M0,-6.235C-2.507,-11.876 -9.888,-7.614 -10.577,-2.935C-10.946,-0.424 -9.138,2.486 -7.135,3.881C-4.607,5.641 -1.393,5.157 1.456,4.676C2.054,4.576 1.801,3.663 1.205,3.765C-3.24,4.526 -8.167,4.122 -9.43,-1.131C-10.031,-3.634 -8.249,-6.584 -5.855,-7.611C-3.761,-8.509 -1.769,-7.589 -0.371,-5.948C-0.183,-5.728 0.1,-6.009 0,-6.235" style="fill:rgb(35,31,32);fill-rule:nonzero;"/>
                </g>
                <g transform="matrix(1,0,0,1,140.587,443.539)">
                    <path d="M0,44.455C3.494,37.742 3.262,30.11 2.84,22.76C2.391,14.931 1.547,7.088 -2.053,0.006C-2.367,-0.612 -3.268,-0.07 -2.977,0.546C0.359,7.607 1.305,15.03 1.754,22.76C2.169,29.892 2.469,37.385 -0.923,43.915C-1.24,44.525 -0.318,45.067 0,44.455" style="fill:rgb(35,31,32);fill-rule:nonzero;"/>
                </g>
                <g transform="matrix(-0.0392964,0.999228,0.999228,0.0392964,115.579,476.297)">
                    <path d="M18.853,-29.061C28.694,-15.249 29.462,3.5 19.753,17.6C19.364,18.166 18.458,17.593 18.853,17.025C28.338,3.307 27.684,-15.059 18.173,-28.578C17.902,-28.964 18.576,-29.449 18.853,-29.061" style="fill:rgb(35,31,32);fill-rule:nonzero;"/>
                </g>
                <g transform="matrix(1,0,0,1,77.3799,486.882)">
                    <path d="M0,-0.463C1.105,-1.869 2.86,-3.311 4.269,-1.421C5.215,-0.153 5.91,1.261 6.402,2.762C6.568,3.27 7.381,3.048 7.206,2.541C6.798,1.363 6.288,0.236 5.613,-0.815C5.14,-1.551 4.453,-2.782 3.603,-3.129C2.122,-3.733 0.217,-1.94 -0.438,-0.801C-0.59,-0.536 -0.201,-0.207 0,-0.463" style="fill:rgb(35,31,32);fill-rule:nonzero;"/>
                </g>
                <g transform="matrix(1,0,0,1,128.115,474.972)">
                    <path d="M0,-5.279C2.047,-5.845 4.17,-4.336 3.856,-2.113C3.689,-0.928 2.92,-0.074 1.796,0.325C1.093,0.575 -1.741,1.13 -1.841,-0.313C-1.865,-0.658 -2.339,-0.838 -2.525,-0.499C-3.395,1.079 -1.248,1.556 -0.125,1.503C1.54,1.424 3.321,0.914 4.182,-0.635C5.829,-3.602 2.966,-6.835 -0.167,-5.886C-0.555,-5.769 -0.393,-5.17 0,-5.279" style="fill:rgb(35,31,32);fill-rule:nonzero;"/>
                </g>
                <g transform="matrix(1,0,0,1,136.648,470.095)">
                    <path d="M0,-3.937C-1.378,-3.208 -1.989,-1.683 -1.669,-0.184C-1.621,0.04 -1.305,0.119 -1.153,-0.048C-0.312,-0.966 0.103,-2.164 0.174,-3.394C0.194,-3.753 -0.238,-3.847 -0.47,-3.661C-0.947,-3.277 -1.472,-2.796 -1.493,-2.136C-1.508,-1.667 -1.233,-1.146 -0.782,-0.976C0.676,-0.424 0.979,-2.745 0.652,-3.631C0.531,-3.958 0.15,-3.994 -0.051,-3.723C-0.74,-2.797 -1.094,-1.73 -1.125,-0.58C-1.135,-0.23 -0.701,-0.084 -0.462,-0.305C0.32,-1.027 1.015,-2.393 0.585,-3.466C0.442,-3.826 -0.046,-3.77 -0.085,-3.375C-0.129,-2.926 -0.079,-2.492 -0.22,-2.05C-0.371,-1.578 -0.651,-1.189 -1.011,-0.854C-0.791,-0.763 -0.569,-0.671 -0.348,-0.58C-0.323,-1.602 0.006,-2.515 0.613,-3.334C0.379,-3.366 0.145,-3.396 -0.09,-3.426C0.002,-3.179 0.068,-2.935 0.061,-2.667C0.058,-2.546 -0.16,-1.293 -0.674,-1.858C-1.047,-2.268 -0.206,-2.91 0.063,-3.126C-0.151,-3.215 -0.366,-3.305 -0.581,-3.394C-0.611,-2.271 -1.007,-1.335 -1.638,-0.422C-1.45,-0.398 -1.262,-0.373 -1.073,-0.348C-1.436,-1.587 -0.876,-2.91 0.199,-3.597C0.412,-3.734 0.225,-4.056 0,-3.937" style="fill:rgb(35,31,32);fill-rule:nonzero;"/>
                </g>
                <g transform="matrix(-0.0243343,-0.999704,-0.999704,0.0243343,118.337,475.671)">
                    <path d="M-7.392,-9.51C-8.124,-4.512 -9.234,1.862 -6.516,6.468C-6.178,7.04 -7.054,7.581 -7.392,7.009C-10.214,2.241 -9.265,-4.541 -7.851,-9.625C-7.767,-9.922 -7.348,-9.807 -7.392,-9.51" style="fill:rgb(35,31,32);fill-rule:nonzero;"/>
                </g>
                <g transform="matrix(1,0,0,1,111.312,498.597)">
                    <path d="M0,-15.949C-1.533,-12.768 -4.235,-6.04 -1.194,-2.869C1.769,0.219 8.827,-1.431 12.284,-2.467C12.716,-2.596 12.661,-3.349 12.172,-3.292C8.764,-2.891 2.827,-0.706 -0.242,-3.292C-3.498,-6.037 -0.398,-12.6 0.378,-15.79C0.431,-16.008 0.105,-16.168 0,-15.949" style="fill:rgb(35,31,32);fill-rule:nonzero;"/>
                </g>
                <g transform="matrix(-0.960071,-0.279758,-0.279758,0.960071,122.162,494.987)">
                    <path d="M-1.986,-12.798C-0.546,-8.745 -0.332,-4.036 -1.105,0.174C-1.197,0.668 -2.051,0.545 -1.986,0.042C-1.432,-4.365 -1.704,-8.3 -2.579,-12.649C-2.657,-13.041 -2.117,-13.162 -1.986,-12.798" style="fill:rgb(35,31,32);fill-rule:nonzero;"/>
                </g>
                <g transform="matrix(-0.460476,0.887672,0.887672,0.460476,121.97,487.816)">
                    <path d="M6.15,-10.218C4.854,-5.329 5.557,-1.149 6.835,3.616C6.942,4.014 6.364,4.334 6.15,3.935C3.885,-0.298 4.052,-5.904 5.444,-10.368C5.58,-10.805 6.27,-10.672 6.15,-10.218" style="fill:rgb(35,31,32);fill-rule:nonzero;"/>
                </g>
                <g transform="matrix(1,0,0,1,84.5391,445.229)">
                    <path d="M0,38.08C1.86,37.925 2.576,36.676 3.168,34.946C3.884,32.851 3.604,29.946 4.022,27.967C4.432,26.026 5.592,24.27 6.485,22.47C8.237,18.935 7.059,15.158 8.79,11.44C10.42,7.936 11.035,4.362 11.519,0.431C11.565,0.057 10.941,-0.024 10.861,0.342C10.347,2.699 10.234,5.284 9.543,7.585C9.005,9.372 8.283,9.8 7.365,11.9C6.443,14.009 6.748,15.649 6.632,17.934C6.501,20.535 4.754,22.048 4.001,24.153C3.505,25.542 3.583,26.475 3.013,27.995C2.202,30.159 1.692,36.89 -0.065,37.597C-0.299,37.69 -0.302,38.104 0,38.08" style="fill:rgb(35,31,32);fill-rule:nonzero;"/>
                </g>
                <g transform="matrix(1,0,0,1,96.1157,443.661)">
                    <path d="M0,2.025C4.832,-0.249 9.149,1.419 14.107,1.748C15.624,1.848 15.888,1.776 17.333,1.614C20.23,1.29 22.186,1.648 24.982,2.212C27.907,2.8 30.339,1.876 33.2,1.305C38.857,0.176 44.475,0.188 50.171,0.957C50.742,1.034 50.997,0.165 50.414,0.077C45.842,-0.615 41.268,-0.775 36.67,-0.22C34.503,0.041 32.408,0.528 30.276,0.974C26.926,1.675 24.765,0.76 21.547,0.332C20.208,0.154 19.069,0.403 17.77,0.524C15.027,0.78 12.432,0.385 9.723,0.091C6.219,-0.288 2.872,-0.078 -0.308,1.499C-0.662,1.673 -0.352,2.191 0,2.025" style="fill:rgb(35,31,32);fill-rule:nonzero;"/>
                </g>
                <g transform="matrix(1,0,0,1,114.225,453.218)">
                    <path d="M0,2.232C1.837,1.148 3.853,0.51 5.987,1.007C5.87,0.852 5.751,0.698 5.634,0.543C5.592,0.654 5.551,0.764 5.51,0.876C5.259,1.296 5.873,1.804 6.205,1.413C6.453,1.121 6.509,1.049 6.58,0.67C6.643,0.338 6.443,0.096 6.116,0.061C3.782,-0.192 1.457,0.197 -0.414,1.696C-0.72,1.942 -0.327,2.424 0,2.232" style="fill:rgb(35,31,32);fill-rule:nonzero;"/>
                </g>
                <g transform="matrix(0.648674,-0.761066,-0.761066,-0.648674,141.315,456.347)">
                    <path d="M-2.248,-0.931C-1.304,0.583 -0.941,2.547 -1.277,4.305C-1.399,4.935 -2.312,4.756 -2.248,4.132C-2.073,2.45 -2.246,0.945 -2.776,-0.664C-2.881,-0.977 -2.432,-1.225 -2.248,-0.931" style="fill:rgb(35,31,32);fill-rule:nonzero;"/>
                </g>
                <g transform="matrix(1,0,0,1,164.871,512.42)">
                    <path d="M0,-4.686C-1.811,-9.39 -6.627,-0.506 -7.205,0.83C-7.93,2.504 -7.548,3.333 -5.88,4.01C-4.39,4.616 -2.364,4.704 -1.832,2.854C-1.714,2.444 -2.318,2.179 -2.528,2.561C-3.307,3.978 -6.697,3.879 -6.732,1.915C-6.744,1.272 -5.913,0.034 -5.604,-0.548C-5.115,-1.469 -2.134,-7.091 -0.486,-4.481C-0.333,-4.239 0.113,-4.392 0,-4.686" style="fill:rgb(35,31,32);fill-rule:nonzero;"/>
                </g>
                <g transform="matrix(1,0,0,1,164.376,519.074)">
                    <path d="M0,-11.079C0.314,-9.491 0.778,-7.109 0.059,-5.543C-0.295,-4.771 -1.067,-4.121 -1.695,-3.573C-3.018,-2.417 -5.297,-0.591 -7.202,-0.967C-7.738,-1.073 -7.941,-0.335 -7.427,-0.15C-5.316,0.605 -2.531,-1.693 -1.091,-2.97C1.552,-5.313 1.464,-7.916 0.652,-11.259C0.548,-11.684 -0.084,-11.502 0,-11.079" style="fill:rgb(35,31,32);fill-rule:nonzero;"/>
                </g>
                <g transform="matrix(-0.952798,0.303605,0.303605,0.952798,154.745,515.283)">
                    <path d="M0.571,-3.037C0.701,-2.022 0.918,-1.124 1.211,-0.149C1.322,0.221 0.752,0.531 0.571,0.155C0.122,-0.779 -0.104,-1.978 -0.019,-3.014C0.01,-3.389 0.522,-3.421 0.571,-3.037" style="fill:rgb(35,31,32);fill-rule:nonzero;"/>
                </g>
                <g transform="matrix(1,0,0,1,149.426,502.666)">
                    <path d="M0,12.634C-2.712,10.032 -0.305,8.639 -0.525,6.049C-0.585,5.34 -0.845,5.088 -1.171,4.48C-2.137,2.682 -3.01,1.805 -3.213,-0.366C-3.26,-0.864 -3.937,-0.862 -3.987,-0.366C-4.113,0.869 -3.904,2.018 -3.315,3.125C-3.086,3.555 -2.532,4.11 -2.311,4.534C-1.013,7.031 -1.68,6.462 -2.186,8.281C-2.73,10.244 -2.08,12.04 -0.465,13.237C-0.112,13.498 0.31,12.931 0,12.634" style="fill:rgb(35,31,32);fill-rule:nonzero;"/>
                </g>
                <g transform="matrix(1,0,0,1,145.862,504.679)">
                    <path d="M0,-2.236C1.194,-3.87 2.965,-2.688 4.14,-1.705C5.192,-0.824 5.8,0.155 6.066,1.502C6.152,1.937 6.828,1.828 6.827,1.4C6.82,-0.658 5.01,-2.334 3.322,-3.262C2.113,-3.928 -0.052,-4.173 -0.456,-2.428C-0.522,-2.141 -0.164,-2.012 0,-2.236" style="fill:rgb(35,31,32);fill-rule:nonzero;"/>
                </g>
                <g transform="matrix(1,0,0,1,163.465,509.085)">
                    <path d="M0,-3.035C-6.65,-9.296 -11.421,5.636 -5.678,6.214C-5.215,6.261 -5.104,5.473 -5.567,5.396C-8.504,4.905 -7.474,0.537 -6.416,-1.266C-5.753,-2.397 -4.098,-4.098 -2.642,-3.809C-1.806,-3.644 -1.091,-2.968 -0.437,-2.468C-0.11,-2.218 0.294,-2.758 0,-3.035" style="fill:rgb(35,31,32);fill-rule:nonzero;"/>
                </g>
                <g transform="matrix(1,0,0,1,159.961,509.093)">
                    <path d="M0,-4.308C-2.05,-7.817 -6.642,-5.159 -8.348,-2.811C-9.331,-1.459 -10.125,0.494 -9.007,2.021C-7.917,3.509 -5.836,3.423 -4.237,3.057C-3.707,2.935 -3.934,2.145 -4.46,2.247C-6.208,2.585 -8.468,2.564 -8.625,0.238C-8.719,-1.167 -7.622,-2.527 -6.663,-3.46C-4.781,-5.293 -2.413,-5.591 -0.314,-3.995C-0.124,-3.849 0.107,-4.124 0,-4.308" style="fill:rgb(35,31,32);fill-rule:nonzero;"/>
                </g>
                <g transform="matrix(0.423809,0.905751,0.905751,-0.423809,153.534,509.032)">
                    <path d="M1.062,-0.694C1.407,-0.051 1.614,0.686 1.64,1.417C1.652,1.745 1.093,1.768 1.062,1.439C0.996,0.762 0.879,0.145 0.634,-0.493C0.527,-0.777 0.917,-0.964 1.062,-0.694" style="fill:rgb(35,31,32);fill-rule:nonzero;"/>
                </g>
                <g transform="matrix(1,0,0,1,155.407,499.506)">
                    <path d="M0,3.899C-0.947,2.992 -1.971,2.17 -2.917,1.261C-3.655,0.553 -4.438,-0.19 -5.473,-0.402C-5.968,-0.503 -6.204,0.102 -5.807,0.39C-5.369,0.708 -4.866,0.896 -4.431,1.225C-3.928,1.606 -3.48,2.054 -2.998,2.46C-2.157,3.164 -1.287,3.805 -0.298,4.286C-0.059,4.402 0.213,4.103 0,3.899" style="fill:rgb(35,31,32);fill-rule:nonzero;"/>
                </g>
                <g transform="matrix(-0.342749,-0.939427,-0.939427,0.342749,141.422,486.801)">
                    <path d="M-1.156,-1.68C-1.036,-0.83 -0.715,-0.034 -0.385,0.752C-0.181,1.24 -0.95,1.519 -1.156,1.034C-1.519,0.174 -1.84,-0.687 -1.987,-1.612C-2.07,-2.14 -1.231,-2.211 -1.156,-1.68" style="fill:rgb(35,31,32);fill-rule:nonzero;"/>
                </g>
                <g transform="matrix(1,0,0,1,147.415,486.163)">
                    <path d="M0,4.538C0.189,3.73 0.284,2.909 0.23,2.078C0.191,1.459 0.169,0.284 -0.265,-0.186C-0.611,-0.56 -1.261,-0.496 -1.668,-0.295C-1.992,-0.136 -2.243,0.128 -2.51,0.363C-2.961,0.762 -3.434,0.996 -4.017,1.151C-4.532,1.289 -4.315,2.075 -3.797,1.949C-3.296,1.826 -2.81,1.657 -2.378,1.367C-2.043,1.143 -1.384,0.263 -0.932,0.563C-0.631,0.763 -0.652,2.171 -0.648,2.508C-0.641,3.117 -0.722,3.709 -0.861,4.301C-0.992,4.859 -0.132,5.098 0,4.538" style="fill:rgb(35,31,32);fill-rule:nonzero;"/>
                </g>
                <g transform="matrix(1,0,0,1,141.07,505.975)">
                    <path d="M0,-18.505C-0.713,-18.781 -0.731,-18.681 -1.435,-18.365C-2.096,-18.069 -2.577,-17.326 -3.362,-17.065C-3.928,-16.877 -4.53,-16.857 -5.117,-16.782C-6.391,-16.622 -7.685,-16.573 -8.505,-15.441C-9.7,-13.79 -8.81,-11.424 -9.256,-9.559C-9.771,-7.409 -10.893,-5.386 -11.214,-3.19C-11.722,0.276 -8.877,-0.463 -6.801,-1.988C-2.167,-5.394 4.568,-9.471 6.344,-15.275C6.513,-15.824 5.651,-16.06 5.483,-15.512C3.921,-10.408 -1.29,-7.568 -5.237,-4.473C-6.249,-3.679 -9.478,-0.193 -10.436,-2.1C-10.863,-2.951 -9.678,-5.383 -9.399,-6.215C-8.965,-7.511 -8.395,-8.835 -8.2,-10.197C-7.979,-11.734 -8.845,-14.023 -7.541,-15.209C-6.525,-16.134 -4.838,-15.795 -3.593,-16.096C-2.857,-16.273 -0.73,-17.875 -0.213,-17.734C0.294,-17.594 0.471,-18.323 0,-18.505" style="fill:rgb(35,31,32);fill-rule:nonzero;"/>
                </g>
                <g transform="matrix(-0.977452,-0.211157,-0.211157,0.977452,139.468,494.568)">
                    <path d="M-0.837,-3.334C0.218,-2.769 0.402,-1.212 -0.251,-0.281C-0.547,0.143 -1.14,-0.261 -0.837,-0.692C-0.328,-1.416 -0.609,-2.279 -1.158,-2.876C-1.364,-3.1 -1.135,-3.494 -0.837,-3.334" style="fill:rgb(35,31,32);fill-rule:nonzero;"/>
                </g>
                <g transform="matrix(1,0,0,1,137.352,494.44)">
                    <path d="M0,-2.557C-1.549,-3.292 -2.756,-0.819 -2.243,0.414C-2.113,0.723 -1.556,0.735 -1.591,0.326C-1.638,-0.214 -1.684,-0.711 -1.435,-1.216C-1.187,-1.719 -0.711,-2.171 -0.118,-2.123C0.108,-2.105 0.206,-2.459 0,-2.557" style="fill:rgb(35,31,32);fill-rule:nonzero;"/>
                </g>
                <g transform="matrix(1,0,0,1,146.98,499.01)">
                    <path d="M0,1.588C-0.661,0.878 -1.246,0.519 -2.2,0.481C-3.758,0.418 -5.906,0.864 -7.261,-0.05C-7.788,-0.405 -8.278,0.446 -7.758,0.801C-6.712,1.513 -5.416,1.426 -4.198,1.43C-3.298,1.433 -2.193,1.212 -1.34,1.525C-0.814,1.717 -0.721,1.993 -0.137,1.918C0.025,1.898 0.124,1.721 0,1.588" style="fill:rgb(35,31,32);fill-rule:nonzero;"/>
                </g>
                <g transform="matrix(1,0,0,1,150.703,494.025)">
                    <path d="M0,5.458C-0.648,4.969 -1.468,4.555 -1.922,3.858C-2.304,3.272 -2.228,2.523 -2.46,1.882C-2.811,0.913 -3.624,-0.12 -4.521,-0.623C-4.782,-0.77 -5.122,-0.467 -4.947,-0.196C-4.56,0.401 -3.971,0.82 -3.573,1.415C-3.062,2.181 -3.142,2.905 -2.833,3.718C-2.412,4.823 -1.23,5.369 -0.314,5.997C0.022,6.228 0.313,5.694 0,5.458" style="fill:rgb(35,31,32);fill-rule:nonzero;"/>
                </g>
                <g transform="matrix(1,0,0,1,145.019,495.407)">
                    <path d="M0,0.973C-0.062,0.751 -0.22,0.592 -0.364,0.421C-0.495,0.268 -0.604,0.061 -0.752,-0.071C-1.109,-0.389 -1.62,0.005 -1.406,0.434C-1.309,0.629 -1.1,0.806 -0.942,0.956C-0.777,1.116 -0.59,1.29 -0.355,1.327C-0.146,1.362 0.064,1.202 0,0.973" style="fill:rgb(35,31,32);fill-rule:nonzero;"/>
                </g>
                <g transform="matrix(1,0,0,1,142.864,497.39)">
                    <path d="M0,0.606C-0.098,0.436 -0.165,0.263 -0.29,0.109C-0.434,-0.07 -0.551,-0.246 -0.778,-0.321C-1.054,-0.414 -1.4,-0.106 -1.282,0.183C-1.222,0.331 -1.153,0.422 -1.026,0.516C-0.951,0.573 -0.874,0.627 -0.797,0.682C-0.648,0.791 -0.476,0.839 -0.314,0.92C-0.115,1.02 0.12,0.814 0,0.606" style="fill:rgb(35,31,32);fill-rule:nonzero;"/>
                </g>
                <g transform="matrix(1,0,0,1,147.93,501.378)">
                    <path d="M0,-5.486C1.566,-7.083 4.525,-4.494 5.548,-3.323C6.144,-2.641 6.633,-1.869 7.074,-1.081C7.35,-0.587 8.467,1.076 8.33,1.673C8.267,1.948 8.58,2.257 8.846,2.07C9.614,1.531 8.986,0.676 8.666,-0.002C7.89,-1.648 6.969,-3.259 5.642,-4.526C4.381,-5.729 1.126,-7.743 -0.258,-5.684C-0.363,-5.528 -0.129,-5.354 0,-5.486" style="fill:rgb(35,31,32);fill-rule:nonzero;"/>
                </g>
                <g transform="matrix(1,0,0,1,162.528,540.712)">
                    <path d="M0,-6.478C-2.502,-8.526 -14.16,-7.983 -13.074,-3.085C-11.937,2.048 -0.848,-0.051 1.807,-2.59C4.353,-5.026 0.15,-6.861 -1.797,-7.4C-2.352,-7.553 -2.552,-6.748 -2.031,-6.551C-1.095,-6.201 1.871,-5.442 1.72,-4.009C1.612,-2.987 -0.21,-2.336 -0.977,-2.049C-3.6,-1.067 -6.939,-0.571 -9.688,-1.285C-10.946,-1.612 -12.758,-2.568 -12.138,-4.169C-11.666,-5.386 -9.77,-5.893 -8.651,-6.18C-6.357,-6.769 -2.539,-7.329 -0.374,-5.994C-0.083,-5.814 0.275,-6.252 0,-6.478" style="fill:rgb(35,31,32);fill-rule:nonzero;"/>
                </g>
                <g transform="matrix(1,0,0,1,152.665,537.151)">
                    <path d="M0,-1.691C-0.413,-1.578 -1.076,-1.162 -1.02,-0.648C-0.971,-0.2 -0.458,-0.083 -0.089,-0.031C1.2,0.151 2.468,-0.185 3.72,-0.423C3.93,-0.463 4.081,-0.735 4.01,-0.934C3.905,-1.229 3.77,-1.404 3.49,-1.557C2.971,-1.842 2.507,-1.049 3.026,-0.764C3.143,-0.711 3.24,-0.632 3.317,-0.531L3.317,-1.117C3.062,-0.914 2.566,-0.882 2.254,-0.828C1.767,-0.741 1.272,-0.686 0.777,-0.668C0.428,-0.655 0.015,-0.625 -0.322,-0.743C-0.458,-0.791 -0.416,-0.68 -0.31,-0.791C-0.138,-0.969 0.07,-1.103 0.233,-1.291C0.384,-1.465 0.243,-1.758 0,-1.691" style="fill:rgb(35,31,32);fill-rule:nonzero;"/>
                </g>
                <g transform="matrix(1,0,0,1,156.749,535.805)">
                    <path d="M0,-0.79C-0.12,0.053 0.892,0.606 1.625,0.548C2.294,0.495 3.552,-0.159 3.478,-0.96C3.456,-1.198 3.206,-1.396 2.975,-1.249C2.729,-1.093 2.664,-0.857 2.477,-0.644C2.288,-0.428 2.037,-0.262 1.761,-0.18C1.521,-0.109 1.255,-0.101 1.025,-0.214C0.712,-0.367 0.645,-0.692 0.39,-0.894C0.271,-0.986 0.028,-0.984 0,-0.79" style="fill:rgb(35,31,32);fill-rule:nonzero;"/>
                </g>
                <g transform="matrix(1,0,0,1,157.315,538.934)">
                    <path d="M0,-1.708C-1.601,-1.935 -3.058,-1.479 -4.29,-0.437C-4.485,-0.272 -4.376,0.076 -4.14,0.132C-3.809,0.21 -3.572,0.227 -3.249,0.122C-2.969,0.032 -3.048,-0.326 -3.314,-0.361C-3.543,-0.366 -3.758,-0.422 -3.958,-0.525C-3.908,-0.336 -3.858,-0.146 -3.808,0.044C-2.771,-0.876 -1.437,-1.322 -0.056,-1.296C0.174,-1.292 0.239,-1.675 0,-1.708" style="fill:rgb(35,31,32);fill-rule:nonzero;"/>
                </g>
                <g transform="matrix(1,0,0,1,157.106,538.19)">
                    <path d="M0,-0.628C-0.076,-0.525 -0.101,-0.371 -0.058,-0.25C0.008,-0.064 0.208,0.111 0.411,-0.005C0.48,-0.044 0.535,-0.129 0.529,-0.211C0.526,-0.257 0.521,-0.306 0.494,-0.347C0.481,-0.363 0.468,-0.381 0.455,-0.398C0.4,-0.441 0.387,-0.45 0.416,-0.428C0.44,-0.398 0.41,-0.436 0.404,-0.442C0.397,-0.447 0.391,-0.453 0.385,-0.46C0.373,-0.474 0.376,-0.468 0.397,-0.442C0.382,-0.446 0.362,-0.501 0.351,-0.514C0.361,-0.487 0.363,-0.482 0.358,-0.498C0.355,-0.506 0.353,-0.514 0.351,-0.522C0.36,-0.489 0.354,-0.507 0.354,-0.532C0.359,-0.614 0.292,-0.694 0.215,-0.716C0.127,-0.739 0.051,-0.696 0,-0.628" style="fill:rgb(35,31,32);fill-rule:nonzero;"/>
                </g>
                <g transform="matrix(1,0,0,1,160.959,536.442)">
                    <path d="M0,1.631C-0.169,1.332 -0.494,1.142 -0.776,0.964C-0.952,0.853 -1.137,0.722 -1.327,0.638C-1.366,0.621 -1.474,0.507 -1.508,0.514C-1.561,0.46 -1.572,0.504 -1.54,0.644C-1.597,0.798 -1.56,0.836 -1.431,0.759C-1.005,0.876 -0.283,0.54 0.126,0.44C0.368,0.38 0.634,0.3 0.886,0.313C1.171,0.327 1.288,0.463 1.524,0.598C1.744,0.722 2.069,0.568 2.052,0.294C2.004,-0.495 1.117,-0.604 0.493,-0.52C0.056,-0.461 -0.365,-0.326 -0.792,-0.224C-1.153,-0.138 -1.562,-0.176 -1.895,-0.015C-2.408,0.234 -2.521,0.774 -2.07,1.152C-1.616,1.533 -0.835,1.541 -0.454,1.982C-0.234,2.235 0.158,1.91 0,1.631" style="fill:rgb(35,31,32);fill-rule:nonzero;"/>
                </g>
                <g transform="matrix(1,0,0,1,149.646,533.027)">
                    <path d="M0,-3.825C-2.356,-4.73 -5.355,-4.362 -7.653,-3.426C-8.856,-2.934 -11.009,-1.449 -9.208,-0.214C-7.811,0.744 -5.627,0.891 -4.001,0.903C-3.594,0.905 -3.474,0.226 -3.902,0.168C-4.951,0.027 -6.014,-0.051 -7.051,-0.271C-7.626,-0.394 -8.324,-0.539 -8.799,-0.914C-9.489,-1.458 -8.626,-2.009 -8.12,-2.298C-5.794,-3.627 -2.716,-3.866 -0.133,-3.345C0.186,-3.28 0.297,-3.711 0,-3.825" style="fill:rgb(35,31,32);fill-rule:nonzero;"/>
                </g>
                <g transform="matrix(0.188277,0.982116,0.982116,-0.188277,144.445,526.014)">
                    <path d="M8.917,-5.672C7.827,-0.117 7.007,4.751 9.529,10.082C9.721,10.49 9.15,10.743 8.917,10.385C5.758,5.529 6.915,-0.55 8.49,-5.762C8.56,-5.996 8.965,-5.919 8.917,-5.672" style="fill:rgb(35,31,32);fill-rule:nonzero;"/>
                </g>
                <g transform="matrix(1,0,0,1,140.919,538.028)">
                    <path d="M0,-2.898C-0.786,-3.166 -4.948,-3.355 -4.375,-1.517C-4.178,-0.882 -3.406,-0.531 -2.845,-0.3C-1.893,0.091 -0.649,0.457 0.387,0.396C0.822,0.37 0.948,-0.271 0.493,-0.39C-0.859,-0.745 -2.445,-0.696 -3.514,-1.709C-3.597,-1.787 -3.547,-1.78 -3.552,-1.777C-3.381,-1.882 -3.208,-1.975 -2.993,-2.036C-2.018,-2.314 -0.967,-2.173 0,-2.449C0.229,-2.514 0.212,-2.826 0,-2.898" style="fill:rgb(35,31,32);fill-rule:nonzero;"/>
                </g>
                <g transform="matrix(1,0,0,1,145.57,539.088)">
                    <path d="M0,-3.45C-0.883,-2.817 -1.788,-2.193 -2.771,-1.723C-3.868,-1.198 -4.99,-1.044 -6.144,-0.726C-6.555,-0.613 -6.439,-0.052 -6.047,-0.017C-3.709,0.188 -1.361,-1.615 0.342,-3.007C0.587,-3.208 0.261,-3.638 0,-3.45" style="fill:rgb(35,31,32);fill-rule:nonzero;"/>
                </g>
                <g transform="matrix(1,0,0,1,139.276,543.272)">
                    <path d="M0,-4.379C-0.489,-3.131 -0.021,-2.042 1.112,-1.33C3.144,-0.054 5.315,-1.8 7.552,-0.69C8.474,-0.232 8.772,0.315 9.964,0.045C11.523,-0.309 12.877,-1.817 13.926,-2.908C14.287,-3.283 13.733,-3.836 13.355,-3.479C12.643,-2.806 11.97,-2.083 11.161,-1.523C9.476,-0.357 8.956,-1.385 7.405,-1.957C6.792,-2.183 6.305,-2.242 5.638,-2.18C5.375,-2.155 5.116,-2.072 4.856,-2.023C4.424,-1.895 3.984,-1.797 3.538,-1.73C2.095,-1.28 1.084,-2.117 0.506,-4.239C0.563,-4.574 0.124,-4.694 0,-4.379" style="fill:rgb(35,31,32);fill-rule:nonzero;"/>
                </g>
                <g transform="matrix(1,0,0,1,149.157,532.11)">
                    <path d="M0,-2.371C0.792,-2.28 1.643,-2.008 2.358,-1.665C2.695,-1.504 3.096,-1.307 3.33,-1.004C3.603,-0.65 3.413,-0.422 3.179,-0.1C2.911,0.269 3.47,0.627 3.776,0.36C4.698,-0.438 4.174,-1.503 3.302,-2.052C2.355,-2.646 1.116,-2.985 0,-2.995C-0.411,-2.998 -0.388,-2.416 0,-2.371" style="fill:rgb(35,31,32);fill-rule:nonzero;"/>
                </g>
                <g transform="matrix(1,0,0,1,142.734,530.403)">
                    <path d="M0,0.685C0.571,1.147 1.642,1.28 2.364,1.266C3.146,1.251 3.987,0.934 4.335,0.185C4.497,-0.161 4.053,-0.595 3.764,-0.256C3.26,0.334 2.785,0.579 1.994,0.53C1.401,0.493 0.77,0.175 0.186,0.237C-0.012,0.258 -0.196,0.526 0,0.685" style="fill:rgb(35,31,32);fill-rule:nonzero;"/>
                </g>
                <g transform="matrix(1,0,0,1,149.16,532.198)">
                    <path d="M0,-1.907C-0.463,-1.789 -1.176,-1.49 -1.348,-0.986C-1.472,-0.621 -1.23,-0.33 -0.913,-0.18C-0.489,0.019 0.011,0.055 0.472,0.059C0.984,0.064 1.534,0.038 2.007,-0.168C2.301,-0.296 2.16,-0.825 1.839,-0.785C1.119,-0.694 0.412,-0.573 -0.315,-0.7C-0.439,-0.721 -0.566,-0.749 -0.681,-0.802C-0.833,-0.871 -0.691,-0.852 -0.744,-0.783C-0.523,-1.075 -0.146,-1.28 0.165,-1.517C0.346,-1.656 0.251,-1.971 0,-1.907" style="fill:rgb(35,31,32);fill-rule:nonzero;"/>
                </g>
                <g transform="matrix(0.0410964,0.999155,0.999155,-0.0410964,145.598,531.01)">
                    <path d="M1.497,-1.604C1.558,-0.582 1.735,0.362 2.154,1.301C2.332,1.702 1.666,1.921 1.497,1.511C1.084,0.509 0.884,-0.57 0.992,-1.651C1.021,-1.946 1.481,-1.881 1.497,-1.604" style="fill:rgb(35,31,32);fill-rule:nonzero;"/>
                </g>
                <g transform="matrix(1,0,0,1,164.953,538.213)">
                    <path d="M0,-1.989C0.8,-2.473 1.9,-2.425 2.809,-2.477C3.174,-2.499 3.949,-2.68 4.279,-2.536C4.743,-2.333 4.825,-1.756 4.775,-1.316C4.711,-0.755 4.593,-0.607 4.111,-0.258C3.781,-0.017 3.357,0.201 2.96,0.307C1.82,0.611 0.804,-0.207 -0.012,-0.887C-0.516,-1.306 -1.09,-0.576 -0.565,-0.171C0.552,0.693 1.697,1.397 3.156,1.017C4.218,0.74 5.553,0.07 5.546,-1.124C5.542,-1.63 5.612,-2.475 5.335,-2.926C5.053,-3.386 4.544,-3.261 4.069,-3.237C2.748,-3.167 0.786,-3.302 -0.263,-2.33C-0.443,-2.162 -0.21,-1.862 0,-1.989" style="fill:rgb(35,31,32);fill-rule:nonzero;"/>
                </g>
                <g transform="matrix(1,0,0,1,168.537,537.182)">
                    <path d="M0,-1.564C-0.394,-1.451 -0.757,-1.209 -1.112,-1.009C-1.437,-0.827 -1.885,-0.678 -2.067,-0.34C-2.164,-0.162 -2.044,0.064 -1.835,0.065C-1.45,0.067 -1.103,-0.252 -0.785,-0.45C-0.439,-0.666 -0.053,-0.867 0.236,-1.158C0.405,-1.329 0.235,-1.631 0,-1.564" style="fill:rgb(35,31,32);fill-rule:nonzero;"/>
                </g>
                <g transform="matrix(1,0,0,1,140.116,531.381)">
                    <path d="M0,3.078C0.334,2.087 0.421,0.052 -0.789,-0.369C-1.604,-0.653 -2.661,-0.568 -3.503,-0.472C-4.139,-0.4 -4.433,-0.141 -4.833,0.361C-5.624,1.355 -6.019,2.477 -4.575,3.078C-3.914,3.353 -3.154,3.454 -2.445,3.527C-1.82,3.593 -0.994,3.416 -0.383,3.584C-0.474,3.423 -0.565,3.263 -0.657,3.102C-0.664,3.124 -0.671,3.145 -0.679,3.167C-0.815,3.556 -0.318,3.731 -0.06,3.527L-0.002,3.483C0.163,3.353 0.134,3.063 -0.002,2.93C-0.292,2.645 -0.719,2.716 -1.091,2.718C-1.639,2.72 -2.179,2.695 -2.723,2.616C-3.156,2.553 -4.023,2.5 -4.368,2.211C-4.914,1.752 -4.344,1.04 -3.96,0.701C-3.506,0.301 -2.834,0.361 -2.264,0.354C-1.994,0.35 -1.647,0.304 -1.382,0.382C-0.943,0.51 -0.867,0.712 -0.718,1.057C-0.476,1.618 -0.478,2.409 -0.458,3.016C-0.449,3.282 -0.084,3.327 0,3.078" style="fill:rgb(35,31,32);fill-rule:nonzero;"/>
                </g>
                <g transform="matrix(1,0,0,1,136.435,532.216)">
                    <path d="M0,0.592C0.673,1.029 1.887,0.804 2.448,0.271C2.723,0.01 2.371,-0.437 2.046,-0.25C1.74,-0.072 1.479,0.119 1.126,0.201C0.771,0.284 0.456,0.211 0.103,0.213C-0.105,0.213 -0.166,0.484 0,0.592" style="fill:rgb(35,31,32);fill-rule:nonzero;"/>
                </g>
                <g transform="matrix(1,0,0,1,153.816,531.693)">
                    <path d="M0,-0.193C0,-1.041 0.661,-1.23 1.383,-1.277C1.91,-1.312 2.678,-1.459 3.185,-1.325C3.246,-1.351 3.306,-1.377 3.367,-1.402C3.414,-1.141 3.451,-0.88 3.478,-0.616C3.502,-0.279 3.508,0.063 3.414,0.392C3.267,0.902 2.852,1.11 2.592,1.527C2.461,1.737 2.637,1.96 2.853,1.981C3.691,2.063 4.178,0.977 4.283,0.282C4.382,-0.37 4.481,-1.976 3.607,-2.141C3.004,-2.256 2.228,-2.099 1.621,-2.063C1.172,-2.036 0.677,-2.024 0.269,-1.818C-0.324,-1.519 -0.863,-0.692 -0.422,-0.079C-0.297,0.095 0,0.047 0,-0.193" style="fill:rgb(35,31,32);fill-rule:nonzero;"/>
                </g>
                <g transform="matrix(1,0,0,1,154.613,530.54)">
                    <path d="M0,0.889C0.762,1.114 1.839,0.906 2.447,0.392C2.729,0.154 2.37,-0.225 2.077,-0.088C1.751,0.066 1.468,0.254 1.115,0.348C0.764,0.441 0.419,0.429 0.06,0.445C-0.193,0.454 -0.25,0.815 0,0.889" style="fill:rgb(35,31,32);fill-rule:nonzero;"/>
                </g>
                <g transform="matrix(1,0,0,1,136.017,540.782)">
                    <path d="M0,-6.63C-0.561,-6.815 -0.833,-6.653 -1.341,-6.382C-1.914,-6.076 -2.844,-5.638 -3.239,-5.103C-3.879,-4.238 -2.903,-3.478 -2.242,-2.916C-1.615,-2.383 -1.149,-2.267 -0.909,-1.434C-0.791,-1.02 -0.861,-0.841 -0.467,-0.56C0.574,0.185 2.706,-0.323 3.8,-0.656C4.315,-0.813 4.102,-1.602 3.576,-1.466C2.543,-1.198 0.596,-0.553 -0.053,-1.846C-0.247,-2.232 -0.131,-2.341 -0.444,-2.664C-0.921,-3.156 -2.02,-3.413 -2.288,-4.094C-2.657,-5.031 -0.676,-5.923 0,-6.13C0.25,-6.206 0.242,-6.55 0,-6.63" style="fill:rgb(35,31,32);fill-rule:nonzero;"/>
                </g>
                <g transform="matrix(1,0,0,1,159.664,539.011)">
                    <path d="M0,2.278C1.085,2.872 2.637,2.98 3.767,2.436C5.066,1.809 4.748,0.345 3.745,-0.421C3.375,-0.702 2.82,-0.144 3.098,0.225C3.305,0.5 3.834,0.917 3.77,1.303C3.717,1.615 3.288,1.778 3.032,1.856C2.201,2.111 1.157,2.017 0.395,1.604C-0.047,1.365 -0.441,2.037 0,2.278" style="fill:rgb(35,31,32);fill-rule:nonzero;"/>
                </g>
                <g transform="matrix(0.2039,0.978992,0.978992,-0.2039,154.786,537.915)">
                    <path d="M3.615,-3.772C5.332,-1.218 4.841,1.497 4.401,4.375C4.325,4.873 3.533,4.824 3.615,4.325C4.064,1.569 4.599,-0.951 3.072,-3.493C2.865,-3.836 3.401,-4.089 3.615,-3.772" style="fill:rgb(35,31,32);fill-rule:nonzero;"/>
                </g>
                <g transform="matrix(1,0,0,1,163.69,536.509)">
                    <path d="M0,4.627C1.687,5.313 3.82,4.824 5.504,4.373C7.38,3.87 9.311,3.142 10.941,2.068C11.559,1.662 12.913,0.731 12.175,-0.135C11.845,-0.522 11.195,-0.565 10.729,-0.598C9.426,-0.686 8.031,-0.498 6.763,-0.218C6.358,-0.129 6.438,0.556 6.862,0.517C7.306,0.476 11.345,-0.3 11.572,0.418C11.718,0.881 9.569,1.932 9.243,2.097C6.658,3.403 3.091,4.762 0.164,4.032C-0.231,3.934 -0.359,4.481 0,4.627" style="fill:rgb(35,31,32);fill-rule:nonzero;"/>
                </g>
                <g transform="matrix(1,0,0,1,158.032,534.448)">
                    <path d="M0,-1.929C1.201,-2.108 2.452,-2.255 3.67,-2.192C5.004,-2.122 5.316,-1.167 6.287,-0.646C7.49,0.002 9.547,-0.617 10.326,0.812C10.517,1.163 11.142,0.92 10.985,0.535C10.072,-1.718 7.927,-0.74 6.26,-1.903C5.491,-2.44 5.278,-2.772 4.215,-2.908C2.773,-3.092 1.238,-2.834 -0.187,-2.606C-0.633,-2.533 -0.441,-1.863 0,-1.929" style="fill:rgb(35,31,32);fill-rule:nonzero;"/>
                </g>
                <g transform="matrix(1,0,0,1,150.788,525.442)">
                    <path d="M0,4.158C1.802,-1.003 11.197,-0.955 15.333,-0.817C18.256,-0.718 31.814,-0.594 29.215,5.603C28.992,6.137 29.861,6.37 30.082,5.843C32.824,-0.706 20.752,-1.395 17.175,-1.605C13.607,-1.815 -0.601,-2.212 -0.419,4.101C-0.412,4.347 -0.079,4.384 0,4.158" style="fill:rgb(35,31,32);fill-rule:nonzero;"/>
                </g>
                <g transform="matrix(0.121878,0.992545,0.992545,-0.121878,170.161,523.722)">
                    <path d="M8.251,-7.697C9.409,-2.137 10.217,3.579 9.082,9.205C8.976,9.731 8.153,9.617 8.251,9.082C9.275,3.419 8.386,-1.999 7.587,-7.615C7.524,-8.047 8.164,-8.113 8.251,-7.697" style="fill:rgb(35,31,32);fill-rule:nonzero;"/>
                </g>
                <g transform="matrix(1,0,0,1,153.739,526.141)">
                    <path d="M0,3.078C0.364,2.538 0.773,2.041 1.211,1.559C1.618,1.115 2.099,0.732 2.479,0.265C2.63,0.08 2.445,-0.195 2.216,-0.074C1.087,0.52 0.267,1.8 -0.317,2.892C-0.43,3.103 -0.132,3.273 0,3.078" style="fill:rgb(35,31,32);fill-rule:nonzero;"/>
                </g>
                <g transform="matrix(1,0,0,1,158.685,524.815)">
                    <path d="M0,4.048C-0.087,3.384 1.272,2.397 1.718,1.985C2.31,1.44 3.053,0.98 3.568,0.368C3.774,0.124 3.522,-0.21 3.23,-0.07C2.206,0.424 1.277,1.498 0.504,2.319C0.139,2.706 -0.965,3.625 -0.303,4.173C-0.201,4.258 0.022,4.217 0,4.048" style="fill:rgb(35,31,32);fill-rule:nonzero;"/>
                </g>
                <g transform="matrix(1,0,0,1,163.837,524.869)">
                    <path d="M0,5.015C0.516,4.05 1.167,3.155 1.951,2.39C2.761,1.599 3.704,1.144 4.614,0.51C4.904,0.308 4.738,-0.204 4.361,-0.09C2.184,0.566 0.44,2.843 -0.378,4.856C-0.466,5.074 -0.109,5.219 0,5.015" style="fill:rgb(35,31,32);fill-rule:nonzero;"/>
                </g>
                <g transform="matrix(1,0,0,1,171.089,524.852)">
                    <path d="M0,4.477C0.697,3.721 1.341,2.939 2.125,2.265C2.976,1.534 3.959,1.048 4.844,0.379C5.039,0.233 4.939,-0.131 4.665,-0.046C2.726,0.556 0.701,2.527 -0.237,4.293C-0.314,4.44 -0.121,4.608 0,4.477" style="fill:rgb(35,31,32);fill-rule:nonzero;"/>
                </g>
                <g transform="matrix(1,0,0,1,183.009,529.318)">
                    <path d="M0,8.846C1.174,7.891 1.705,7.407 2.032,5.907C2.22,5.041 2.299,4.123 1.986,3.279C1.374,1.625 -0.504,0.832 -1.882,-0.047C-2.337,-0.337 -2.749,0.38 -2.303,0.673C-1.226,1.381 0.329,2.078 0.978,3.251C1.99,5.08 0.801,7.091 -0.594,8.252C-1.011,8.6 -0.415,9.183 0,8.846" style="fill:rgb(35,31,32);fill-rule:nonzero;"/>
                </g>
                <g transform="matrix(1,0,0,1,150.994,544.699)">
                    <path d="M0,-17.254C-7.524,-17.39 -16.682,-15.921 -22.064,-10.073C-24.789,-7.113 -23.183,-4.652 -19.89,-3.179C-12.489,0.136 -2.876,-0.08 5.024,-0.115C14.387,-0.157 24.112,-0.779 31.943,-6.447C32.408,-6.784 31.944,-7.564 31.493,-7.218C25.421,-2.558 17.848,-1.388 10.383,-1.043C2.801,-0.693 -5.025,-0.796 -12.523,-2.06C-17.367,-2.876 -27.125,-5.347 -19.754,-10.928C-13.646,-15.553 -7.2,-15.864 0.048,-16.9C0.254,-16.929 0.196,-17.251 0,-17.254" style="fill:rgb(35,31,32);fill-rule:nonzero;"/>
                </g>
                <g transform="matrix(1,0,0,1,94.3091,510.309)">
                    <path d="M0,-11.173C-0.879,-8.623 -3.18,-4.739 -0.324,-2.741C2.722,-0.611 7.371,0.026 10.983,0.321C11.515,0.364 11.508,-0.456 10.983,-0.506C8.031,-0.783 5.131,-1.338 2.349,-2.386C0.336,-3.145 -1.148,-3.882 -0.728,-6.539C-0.49,-8.036 0.185,-9.546 0.583,-11.012C0.685,-11.391 0.126,-11.537 0,-11.173" style="fill:rgb(35,31,32);fill-rule:nonzero;"/>
                </g>
                <g transform="matrix(-0.985961,-0.166977,-0.166977,0.985961,101.332,509.151)">
                    <path d="M-0.694,-7.636C0.142,-5.213 0.448,-2.506 0.044,0.034C-0.034,0.52 -0.723,0.379 -0.694,-0.09C-0.539,-2.623 -0.673,-4.948 -1.265,-7.42C-1.354,-7.791 -0.826,-8.018 -0.694,-7.636" style="fill:rgb(35,31,32);fill-rule:nonzero;"/>
                </g>
                <g transform="matrix(1,0,0,1,93.0845,540.994)">
                    <path d="M0,-38.431C-7.034,-37.291 -14.764,-31.227 -18.499,-25.236C-23.085,-17.879 -23.687,-9.053 -23.172,-0.616C-23.132,0.04 -22.108,0.044 -22.148,-0.616C-22.623,-8.39 -22.171,-16.364 -18.435,-23.375C-14.687,-30.408 -7.167,-35.239 0.113,-38.02C0.372,-38.119 0.271,-38.475 0,-38.431" style="fill:rgb(35,31,32);fill-rule:nonzero;"/>
                </g>
                <g transform="matrix(1,0,0,1,69.9897,544.63)">
                    <path d="M0,-3.779C1.765,-0.567 6.003,-1.091 9.233,-0.773C11.844,-0.516 14.457,-0.272 17.069,-0.027C18.909,0.146 20.705,0.781 22.229,-0.391C22.604,-0.679 22.296,-1.236 21.855,-1.032C19.315,0.144 15.076,-1.157 12.367,-1.403C9.408,-1.673 2.4,-1.283 0.641,-4.153C0.391,-4.56 -0.23,-4.198 0,-3.779" style="fill:rgb(35,31,32);fill-rule:nonzero;"/>
                </g>
                <g transform="matrix(1,0,0,1,91.6841,543.831)">
                    <path d="M0,-23.616C1.093,-20.326 0.144,-15.365 0.087,-11.963C0.021,-8.024 -0.115,-4.078 -0.025,-0.139C-0.013,0.395 0.777,0.392 0.802,-0.139C1.023,-4.981 0.954,-9.845 0.98,-14.691C0.995,-17.424 1.883,-21.357 0.42,-23.793C0.29,-24.011 -0.084,-23.87 0,-23.616" style="fill:rgb(35,31,32);fill-rule:nonzero;"/>
                </g>
                <g transform="matrix(0.94398,0.330002,0.330002,-0.94398,74.7179,536.873)">
                    <path d="M5.394,-0.865C0.74,10.286 -1.605,20.934 5.943,31.387C6.212,31.758 5.698,32.216 5.394,31.856C-3.049,21.851 0.518,9.909 5.072,-0.978C5.156,-1.179 5.479,-1.069 5.394,-0.865" style="fill:rgb(35,31,32);fill-rule:nonzero;"/>
                </g>
                <g transform="matrix(-0.991443,0.130537,0.130537,0.991443,117.522,539.202)">
                    <path d="M1.511,-24.195C0.564,-16.229 1.966,-8.012 2.402,-0.036C2.434,0.536 1.558,0.662 1.511,0.082C0.87,-7.839 -0.404,-16.384 0.887,-24.281C0.953,-24.681 1.56,-24.6 1.511,-24.195" style="fill:rgb(35,31,32);fill-rule:nonzero;"/>
                </g>
                <g transform="matrix(0.477639,0.878556,0.878556,-0.477639,95.1188,533.794)">
                    <path d="M16.9,-10.14C13.83,2.556 15.586,15.16 17.789,27.843C17.889,28.418 17,28.631 16.9,28.05C14.726,15.441 12.459,2.22 16.573,-10.237C16.642,-10.447 16.951,-10.354 16.9,-10.14" style="fill:rgb(35,31,32);fill-rule:nonzero;"/>
                </g>
                <g transform="matrix(0.103567,0.994622,0.994622,-0.103567,184.008,516.008)">
                    <path d="M9.025,-7.936C8.682,-1.935 8.958,3.968 9.88,9.905C9.964,10.452 9.108,10.541 9.025,9.994C8.117,4.002 7.906,-2 8.416,-8.038C8.45,-8.436 9.046,-8.326 9.025,-7.936" style="fill:rgb(35,31,32);fill-rule:nonzero;"/>
                </g>
                <g transform="matrix(1,0,0,1,102.888,515.107)">
                    <path d="M0,-11.48C5.622,-9.308 11.753,-8.466 16.499,-4.574C20.015,-1.69 23.337,-1.644 27.391,0.209C27.952,0.466 28.442,-0.367 27.878,-0.624C25.908,-1.52 23.899,-1.649 21.863,-2.321C19.002,-3.264 17.262,-5.565 14.821,-7.118C10.657,-9.767 4.829,-10.823 0.112,-11.885C-0.157,-11.946 -0.249,-11.577 0,-11.48" style="fill:rgb(35,31,32);fill-rule:nonzero;"/>
                </g>
                <g transform="matrix(1,0,0,1,131.342,530.846)">
                    <path d="M0,-15.605C0.02,-15.644 0.04,-15.682 0.06,-15.721C0.083,-15.767 0.078,-15.82 0.042,-15.858C-0.095,-16.002 -0.098,-16 -0.286,-16.066C-0.459,-16.126 -0.732,-16.029 -0.809,-15.853C-1.879,-13.41 -2.762,-10.914 -3.325,-8.301C-3.833,-5.945 -3.456,-2.513 -4.46,-0.385C-4.645,0.006 -4.116,0.521 -3.805,0.12C-3.203,-0.661 -3.396,-0.568 -3.169,-1.499C-2.663,-3.575 -2.846,-5.91 -2.392,-8.044C-2.042,-9.69 -1.579,-11.312 -1.008,-12.895C-0.69,-13.775 -0.332,-14.635 0.037,-15.496C0.117,-15.68 -0.136,-15.896 -0.165,-15.649C-0.175,-15.561 -0.038,-15.53 0,-15.605" style="fill:rgb(35,31,32);fill-rule:nonzero;"/>
                </g>
                <g transform="matrix(1,0,0,1,114.914,530.338)">
                    <path d="M0,-1.28C3.766,0.658 7.544,-0.227 11.484,0.774C12.002,0.906 12.166,0.189 11.699,-0.005C10.172,-0.636 8.63,-0.59 7.002,-0.6C4.648,-0.616 2.565,-1.007 0.407,-1.977C-0.057,-2.186 -0.47,-1.522 0,-1.28" style="fill:rgb(35,31,32);fill-rule:nonzero;"/>
                </g>
                <g transform="matrix(0.0769752,0.997033,0.997033,-0.0769752,141.257,509.373)">
                    <path d="M6.67,-11.234C10.377,-7.843 13.834,5.627 7.025,7.838C6.616,7.97 6.287,7.396 6.67,7.149C11.833,3.818 10.035,-7.019 6.204,-10.69C5.873,-11.007 6.329,-11.546 6.67,-11.234" style="fill:rgb(35,31,32);fill-rule:nonzero;"/>
                </g>
                <g transform="matrix(-0.98652,-0.163641,-0.163641,0.98652,162.629,515.292)">
                    <path d="M-0.284,-3.604C-0.092,-2.457 0.217,-1.264 0.292,-0.107C0.313,0.214 -0.198,0.373 -0.284,0.032C-0.573,-1.12 -0.653,-2.371 -0.826,-3.547C-0.877,-3.895 -0.342,-3.947 -0.284,-3.604" style="fill:rgb(35,31,32);fill-rule:nonzero;"/>
                </g>
                <g transform="matrix(1,0,0,1,156.643,528.029)">
                    <path d="M0,-9.73C-3.312,-5.634 -6.655,-3.369 -11.795,-1.933C-14.786,-1.097 -17.623,-0.845 -20.712,-1.471C-21.354,-1.601 -27.515,-3.174 -27.45,-3.794C-27.385,-4.413 -28.246,-4.405 -28.442,-3.929C-28.48,-3.837 -28.518,-3.747 -28.555,-3.656C-28.625,-3.486 -28.542,-3.244 -28.414,-3.124C-25.016,0.068 -17.383,0.241 -13.091,-0.728C-7.371,-2.02 -2.759,-4.361 0.422,-9.404C0.582,-9.657 0.194,-9.971 0,-9.73" style="fill:rgb(35,31,32);fill-rule:nonzero;"/>
                </g>
                <g transform="matrix(1,0,0,1,118.333,468.508)">
                    <path d="M0,-3.697C-0.479,-4.458 -1.318,-3.985 -1.748,-3.431C-2.366,-2.635 -2.847,-1.39 -2.672,-0.36C-2.541,0.416 -1.764,0.761 -1.065,0.413C-0.215,-0.009 0.429,-1.35 0.598,-2.227C0.723,-2.876 0.576,-4.116 -0.39,-3.938C-1.209,-3.789 -1.916,-2.336 -2.107,-1.641C-2.274,-1.038 -2.232,0.3 -1.26,0.073C-0.884,-0.014 -0.773,-0.383 -0.644,-0.699C-0.354,-1.405 -0.062,-2.11 0.215,-2.821C0.428,-3.368 -0.441,-3.592 -0.658,-3.061C-0.839,-2.621 -1.01,-2.176 -1.184,-1.732C-1.256,-1.549 -1.457,-1.252 -1.445,-1.067C-1.42,-0.682 -1.29,-1.277 -1.255,-1.407C-1.137,-1.838 -0.871,-2.225 -0.61,-2.583C-0.532,-2.69 -0.322,-3.034 -0.238,-2.976C-0.108,-2.886 -0.259,-2.231 -0.268,-2.198C-0.391,-1.728 -0.642,-1.28 -0.911,-0.879C-1.181,-0.477 -1.709,0.038 -1.88,-0.723C-2,-1.255 -1.254,-3.637 -0.422,-3.275C-0.164,-3.163 0.181,-3.41 0,-3.697" style="fill:rgb(35,31,32);fill-rule:nonzero;"/>
                </g>
                <g transform="matrix(1,0,0,1,75.644,552.136)">
                    <path d="M0,-8.666C0.254,-5.719 1.05,-2.904 1.486,0.007C1.55,0.437 2.172,0.292 2.201,-0.09C2.299,-1.378 1.768,-2.635 1.482,-3.877C1.112,-5.487 0.856,-7.115 0.625,-8.75C0.575,-9.103 -0.031,-9.022 0,-8.666" style="fill:rgb(35,31,32);fill-rule:nonzero;"/>
                </g>
                <g transform="matrix(1,0,0,1,90.5078,552.836)">
                    <path d="M0,-8.193C0.255,-6.464 0.596,-4.749 0.965,-3.041C1.211,-1.904 1.28,-0.551 2.1,0.326C2.32,0.561 2.728,0.317 2.638,0.013C1.821,-2.749 1.212,-5.543 0.595,-8.357C0.508,-8.754 -0.057,-8.576 0,-8.193" style="fill:rgb(35,31,32);fill-rule:nonzero;"/>
                </g>
                <g transform="matrix(-0.0708571,0.997486,0.997486,0.0708571,110.519,502.118)">
                    <path d="M5.343,-5.616C5.08,-2.061 5.232,1.34 5.806,4.861C5.855,5.161 5.408,5.252 5.343,4.954C4.597,1.508 4.461,-2.152 4.944,-5.645C4.979,-5.898 5.363,-5.877 5.343,-5.616" style="fill:rgb(35,31,32);fill-rule:nonzero;"/>
                </g>
                <g transform="matrix(1,0,0,1,95.1274,513.831)">
                    <path d="M0,-1.139C2.927,0.685 7.667,1.701 11.111,1.21C12.801,0.968 14.872,-1.075 12.996,-2.543C12.616,-2.84 12.147,-2.389 12.462,-2.009C12.022,-0.209 11.161,0.619 9.878,0.475C9.476,0.465 9.075,0.445 8.673,0.417C7.86,0.369 7.043,0.311 6.233,0.215C4.101,-0.039 2.159,-0.58 0.229,-1.531C-0.032,-1.659 -0.25,-1.295 0,-1.139" style="fill:rgb(35,31,32);fill-rule:nonzero;"/>
                </g>
                <g transform="matrix(1,0,0,1,77.21,454.092)">
                    <path d="M0,27.747C-1.487,23.991 -3.617,21.017 -4.455,16.914C-5.589,11.365 -5.984,5.776 -5.874,0.125C-5.861,-0.522 -6.862,-0.521 -6.878,0.125C-7.016,5.538 -6.653,10.932 -5.561,16.241C-4.582,20.996 -2.614,23.784 -0.54,27.975C-0.394,28.269 0.124,28.06 0,27.747" style="fill:rgb(35,31,32);fill-rule:nonzero;"/>
                </g>
                <g transform="matrix(1,0,0,1,71.0679,442.583)">
                    <path d="M0,11.451C-1.426,9.804 -0.684,8.624 -0.388,6.865C-0.31,6.404 -0.337,6.055 -0.512,5.641C-0.742,5.092 -1.279,4.871 -1.604,4.412C-2.921,2.549 -1.66,1.22 -0.422,-0.203C-0.199,-0.46 -0.489,-0.915 -0.808,-0.703C-2.448,0.388 -4.139,2.517 -2.794,4.487C-1.975,5.687 -1.247,5.218 -1.501,7.248C-1.56,7.72 -1.88,8.16 -1.94,8.662C-2.099,9.999 -1.527,11.145 -0.566,12.017C-0.182,12.366 0.336,11.84 0,11.451" style="fill:rgb(35,31,32);fill-rule:nonzero;"/>
                </g>
                <g transform="matrix(1,0,0,1,70.2407,431.719)">
                    <path d="M0,11.053C0.059,10.263 0.066,10.444 -0.182,9.672C-0.599,8.376 -0.912,8.839 -0.543,7.244C-0.127,5.449 -0.262,6.431 0.695,5.506C0.857,5.349 1.043,5.169 1.13,4.959C1.393,4.327 1.166,3.932 0.875,3.363C0.694,3.006 -0.346,2.008 -0.308,1.586C-0.206,0.473 2.093,0.669 2.934,0.792C3.396,0.86 3.613,0.175 3.132,0.071C1.539,-0.276 0.115,-0.001 -1.274,0.846C-1.459,0.958 -1.55,1.225 -1.424,1.416C-0.605,2.66 0.787,3.83 -0.468,5.203C-0.954,5.734 -1.573,5.639 -1.899,6.419C-2.558,7.995 -0.846,9.766 -0.4,11.108C-0.326,11.329 -0.017,11.282 0,11.053" style="fill:rgb(35,31,32);fill-rule:nonzero;"/>
                </g>
                <g transform="matrix(1,0,0,1,73.6152,423.835)">
                    <path d="M0,7.904C-0.085,7.362 2.17,3.332 2.762,3.515C2.759,3.514 3.134,4.766 3.335,5.01C3.606,5.341 3.75,5.438 4.119,5.622C4.336,5.729 4.652,5.651 4.709,5.382C5.028,3.873 5.769,2.309 7.168,1.508C7.331,1.415 7.493,1.321 7.655,1.227C8.238,0.911 8.563,1.064 8.628,1.688C8.986,2.097 9.17,2.873 9.428,3.35C9.616,3.697 10.212,3.461 10.076,3.077C9.579,1.677 9.261,-0.372 7.476,0.366C5.46,1.199 4.197,3.173 3.92,5.274C4.089,5.145 4.259,5.016 4.429,4.887C3.297,4.636 3.834,2.126 2.353,2.789C1.089,3.353 -0.583,6.342 -0.764,7.629C-0.787,7.788 -0.751,7.969 -0.592,8.05C-0.512,8.091 -0.432,8.133 -0.352,8.175C-0.153,8.276 0.032,8.109 0,7.904" style="fill:rgb(35,31,32);fill-rule:nonzero;"/>
                </g>
                <g transform="matrix(1,0,0,1,83.6768,424.268)">
                    <path d="M0,3.103C0.631,2.271 1.186,1.291 2.146,0.79C3.111,0.287 4.268,0.473 4.814,1.458C4.992,1.779 5.551,1.562 5.42,1.203C5.022,0.114 3.827,-0.332 2.733,-0.176C1.186,0.042 0.115,1.484 -0.572,2.768C-0.779,3.155 -0.252,3.435 0,3.103" style="fill:rgb(35,31,32);fill-rule:nonzero;"/>
                </g>
                <g transform="matrix(1,0,0,1,88.5952,419.983)">
                    <path d="M0,6.029C4.296,3.197 8.692,4.394 12.98,2.711C18.46,0.559 24.897,1.47 30.744,1.566C31.095,1.571 31.095,1.027 30.744,1.021C25.536,0.927 19.217,-0.254 14.161,1.142C12.611,1.57 12.063,2.67 10.183,2.988C8.755,3.23 7.125,2.647 5.621,2.866C3.341,3.198 1.51,4.098 -0.357,5.417C-0.725,5.676 -0.385,6.283 0,6.029" style="fill:rgb(35,31,32);fill-rule:nonzero;"/>
                </g>
                <g transform="matrix(1,0,0,1,119.414,420.799)">
                    <path d="M0,1.174C2.669,0.217 5.234,0.018 7.991,0.763C9.568,1.189 10.854,1.797 12.453,1.221C12.865,1.071 12.706,0.447 12.27,0.556C10.024,1.114 7.855,-0.289 5.633,-0.464C3.622,-0.623 1.67,-0.269 -0.185,0.503C-0.587,0.67 -0.43,1.327 0,1.174" style="fill:rgb(35,31,32);fill-rule:nonzero;"/>
                </g>
                <g transform="matrix(1,0,0,1,131.263,417.104)">
                    <path d="M0,6.106C1.499,4.136 7.161,-0.189 9.138,3.458C9.363,3.874 9.948,3.508 9.761,3.093C8.854,1.079 6.468,1.28 4.676,1.881C2.527,2.603 0.875,4.013 -0.329,5.915C-0.463,6.127 -0.144,6.295 0,6.106" style="fill:rgb(35,31,32);fill-rule:nonzero;"/>
                </g>
                <g transform="matrix(1,0,0,1,140.799,423.043)">
                    <path d="M0,-1.982C1.501,-2.133 2.504,-0.909 3.82,-0.613C5.538,-0.228 9.864,-2.941 10.291,0.645C10.35,1.143 11.135,1.158 11.085,0.645C10.838,-1.876 8.204,-2.198 6.108,-1.874C5.035,-1.708 4.618,-1.341 3.492,-1.941C3.002,-2.202 3.043,-2.544 2.471,-2.783C1.608,-3.14 0.657,-2.865 -0.137,-2.49C-0.376,-2.377 -0.266,-1.956 0,-1.982" style="fill:rgb(35,31,32);fill-rule:nonzero;"/>
                </g>
                <g transform="matrix(1,0,0,1,151.301,431.042)">
                    <path d="M0,-7.288C0.625,-7.098 1.178,-7.101 1.829,-7.022C3.881,-6.775 5.145,-4.731 2.786,-3.743C2.523,-3.633 2.411,-3.397 2.537,-3.131C3.09,-1.952 3.368,-0.921 2.885,0.335C2.766,0.644 3.206,0.856 3.417,0.645C4.585,-0.517 3.861,-2.275 3.257,-3.552L3.108,-2.98C4.422,-3.536 5.52,-4.947 4.781,-6.418C4.021,-7.933 1.386,-8.144 0,-7.7C-0.2,-7.636 -0.205,-7.35 0,-7.288" style="fill:rgb(35,31,32);fill-rule:nonzero;"/>
                </g>
                <g transform="matrix(1,0,0,1,154.066,440.784)">
                    <path d="M0,-8.903C-0.847,-8.038 -1.72,-7.192 -2.542,-6.303C-2.821,-6.001 -3.144,-5.734 -3.16,-5.291C-3.186,-4.607 -2.336,-4.005 -2.358,-3.237C-2.398,-1.79 -3.917,-1.148 -4.9,-0.418C-5.159,-0.226 -5.02,0.3 -4.657,0.158C-3.394,-0.341 -1.938,-1.387 -1.679,-2.817C-1.494,-3.84 -2.165,-4.167 -2.276,-5.045C-2.413,-6.121 -0.254,-7.69 0.459,-8.443C0.747,-8.747 0.293,-9.203 0,-8.903" style="fill:rgb(35,31,32);fill-rule:nonzero;"/>
                </g>
                <g transform="matrix(1,0,0,1,149.187,449.56)">
                    <path d="M0,-9.107C-0.482,-8.678 -0.423,-8.434 -0.379,-7.769C-0.319,-6.867 -0.322,-6.369 -0.834,-5.567C-1.049,-5.23 -1.409,-4.981 -1.636,-4.641C-2.412,-3.482 -2.175,-2.245 -3.859,-1.741C-4.725,-1.481 -5.499,-1.469 -6.282,-0.973C-6.751,-0.676 -6.316,0.076 -5.844,-0.226C-4.823,-0.878 -3.517,-0.665 -2.522,-1.338C-1.852,-1.792 -1.64,-2.481 -1.369,-3.204C-0.978,-4.246 -0.083,-4.903 0.293,-5.909C0.653,-6.874 0.248,-8.018 0.229,-9.011C0.227,-9.132 0.086,-9.183 0,-9.107" style="fill:rgb(35,31,32);fill-rule:nonzero;"/>
                </g>
                <g transform="matrix(1,0,0,1,142.986,454.147)">
                    <path d="M0,-5.107C-0.51,-4.442 -0.434,-3.367 -0.653,-2.56C-0.767,-2.138 -0.912,-1.721 -1.143,-1.347C-1.366,-0.988 -1.701,-0.752 -1.913,-0.39C-2.063,-0.135 -1.816,0.155 -1.542,0.092C-0.712,-0.099 -0.254,-1.097 0.002,-1.835C0.312,-2.721 0.745,-4.161 0.408,-5.053C0.336,-5.245 0.12,-5.262 0,-5.107" style="fill:rgb(35,31,32);fill-rule:nonzero;"/>
                </g>
            </g>
        </g>
    </g>
    <defs>
        <linearGradient id="_Linear2" x1="0" y1="0" x2="1" y2="0" gradientUnits="userSpaceOnUse" gradientTransform="matrix(1,-0,0,-1,0,-0.00301829)"><stop offset="0" style="stop-color:rgb(191,235,251);stop-opacity:1"/><stop offset="0" style="stop-color:rgb(191,235,251);stop-opacity:1"/><stop offset="1" style="stop-color:white;stop-opacity:1"/></linearGradient>
    </defs>
</svg>
