<?xml version="1.0" encoding="UTF-8" standalone="no"?>
<!DOCTYPE svg PUBLIC "-//W3C//DTD SVG 1.1//EN" "http://www.w3.org/Graphics/SVG/1.1/DTD/svg11.dtd">
<svg width="100%" height="100%" viewBox="0 0 67 32" version="1.1" xmlns="http://www.w3.org/2000/svg" xmlns:xlink="http://www.w3.org/1999/xlink" xml:space="preserve" xmlns:serif="http://www.serif.com/" style="fill-rule:evenodd;clip-rule:evenodd;stroke-linejoin:round;stroke-miterlimit:2;">
    <g transform="matrix(1,0,0,1,-467.482,-155.1)">
        <g>
            <g transform="matrix(1,0,0,1,483.735,175.252)">
                <path d="M0,-8.099L0,-8.062L0.029,-8.078L0,-8.099ZM21.489,-7.397L21.521,-7.396L21.511,-7.421L21.489,-7.397ZM18.718,-6.303C19.122,-6.446 19.512,-6.387 19.692,-6.792C19.449,-6.507 18.946,-6.879 18.718,-6.303M28.813,-4.866C29.073,-4.626 29.248,-4.437 29.45,-4.288C29.675,-4.123 29.964,-4.128 30.184,-4.249C30.437,-4.39 30.344,-4.661 30.273,-4.892C30.209,-5.101 30.066,-5.324 30.097,-5.517C30.198,-6.157 29.795,-6.178 29.309,-6.226C29.504,-5.649 29.679,-5.093 28.813,-4.866M18.532,-6.805C17.434,-7.051 11.334,-6.744 10.515,-6.4C11.888,-6.063 17.849,-6.364 18.532,-6.805M25.62,-1.418C25.66,-0.928 25.94,-0.762 26.265,-0.674C27.094,-0.447 27.935,-0.284 28.802,-0.385C29.104,-0.419 29.608,-0.208 29.659,-0.418C29.73,-0.715 29.273,-0.916 29.031,-1.14C28.6,-1.539 28.026,-1.858 27.495,-1.591C26.875,-1.279 26.313,-1.078 25.62,-1.418M24.409,0.693C25.843,1.21 27.276,1.724 28.709,2.244C29.091,2.383 29.909,2.085 29.914,1.738C29.921,1.313 29.538,1.166 29.173,1.08C28.941,1.025 28.708,0.969 28.472,0.945C27.13,0.812 25.792,0.624 24.409,0.693M27.272,-5.627C27.268,-5.554 27.252,-5.514 27.265,-5.493C27.621,-4.919 27.422,-4.453 26.982,-4.036C26.573,-3.646 26.207,-3.922 25.839,-4.12C25.661,-4.214 25.571,-4.221 25.512,-3.973C25.435,-3.648 25.181,-3.514 24.841,-3.549C24.352,-3.6 24.001,-3.827 23.756,-4.269C23.438,-4.84 23.003,-5.277 22.308,-5.393C21.283,-5.563 20.47,-4.953 19.43,-4.741C19.854,-4.542 20.13,-4.661 20.409,-4.733C21.226,-4.947 22.208,-4.514 22.512,-3.767C22.608,-3.53 22.725,-3.446 22.955,-3.485C23.49,-3.574 24.006,-3.514 24.514,-3.325C24.848,-3.201 25.22,-3.14 25.519,-3.357C25.986,-3.697 26.448,-3.66 26.945,-3.477C27.062,-3.434 27.199,-3.454 27.325,-3.435C27.535,-3.403 27.656,-3.502 27.654,-3.698C27.646,-4.308 27.911,-4.727 28.551,-4.942C28.092,-5.189 27.696,-5.401 27.272,-5.627M13.103,-3.307C13.106,-3.266 13.111,-3.225 13.115,-3.184C14.68,-3.168 16.244,-3.165 17.808,-3.134C19.172,-3.106 20.533,-3.061 21.883,-3.354C22.297,-3.444 22.253,-3.612 22.062,-3.864C21.692,-4.356 20.935,-4.598 20.336,-4.385C20.101,-4.3 19.866,-4.25 19.643,-4.322C18.954,-4.541 18.283,-4.416 17.605,-4.278C16.964,-4.147 16.315,-4.046 15.676,-3.907C14.815,-3.719 13.96,-3.508 13.103,-3.307M-14.572,0.265C-14.897,-0.672 -14.79,-1.533 -14.085,-2.276C-13.998,-2.368 -13.796,-2.456 -14.002,-2.604C-14.265,-2.793 -15.063,-2.567 -15.247,-2.282C-16.027,-1.078 -15.729,0.214 -15.513,1.479C-15.446,1.863 -15.037,2.242 -14.632,2.161C-14.23,2.08 -13.98,2.195 -13.687,2.379C-13.533,2.474 -13.356,2.537 -13.094,2.466C-13.383,1.928 -13.412,1.321 -13.62,0.769C-13.917,-0.02 -14.094,-0.79 -13.717,-1.607C-13.628,-1.8 -13.474,-1.997 -13.528,-2.356C-14.558,-1.687 -14.596,-0.737 -14.572,0.265M35.943,9.959C36.44,9.771 36.467,9.312 36.682,8.989C36.85,8.738 36.946,8.411 37.324,8.386C38.042,8.338 38.638,8.064 39.17,7.559C39.599,7.152 39.672,6.76 39.25,6.318C38.962,6.015 38.688,5.697 38.39,5.403C38.079,5.097 38.162,4.911 38.558,4.878C39.115,4.831 38.943,4.535 38.811,4.242C38.621,3.822 38.204,3.622 37.891,3.324C37.318,2.781 37.315,2.55 38.027,2.229C38.374,2.073 38.278,1.957 38.111,1.765C37.787,1.39 37.41,1.077 36.992,0.811C36.755,0.659 36.632,0.677 36.641,1.002C36.656,1.533 36.404,1.956 35.926,2.132C35.429,2.316 35.439,2.5 35.734,2.862C36,3.189 36.027,3.577 35.786,3.934C35.548,4.288 35.19,4.172 34.888,4.062C34.455,3.904 34.43,4.111 34.506,4.431C34.641,4.999 34.695,5.54 34.578,6.145C34.491,6.594 34.462,7.163 34.636,7.592C34.749,7.871 35.295,7.661 35.632,7.768C35.649,7.773 35.667,7.777 35.685,7.782C36.064,7.91 36.27,8.109 36.115,8.56C35.97,8.988 35.88,9.438 35.943,9.959M48.536,-0.746C48.188,-1.074 47.823,-1.329 47.343,-1.435C46.383,-1.647 45.399,-1.846 44.71,-2.641C44.437,-2.957 44.199,-2.947 43.877,-2.729C43.497,-2.474 43.184,-2.592 42.974,-2.989C42.862,-3.197 42.754,-3.407 42.662,-3.623C42.597,-3.78 42.52,-3.857 42.333,-3.819C41.743,-3.699 41.256,-3.384 40.634,-3.041C41.041,-2.952 41.31,-2.906 41.569,-2.832C42.211,-2.651 42.574,-2.205 42.582,-1.627C42.587,-1.207 42.442,-0.955 41.969,-1.037C41.626,-1.096 41.282,-1.149 40.939,-1.21C40.076,-1.362 39.211,-1.393 38.289,-1.329C38.439,-0.993 38.588,-0.647 38.497,-0.39C38.217,0.394 38.783,0.883 39.071,1.447C39.335,1.962 40.065,1.903 40.375,1.406C40.942,0.493 40.942,0.493 41.783,1.218C42.243,1.614 42.479,1.607 42.889,1.185C43.361,0.698 43.527,0.682 44.157,1.041C44.299,1.121 44.453,1.195 44.611,1.232C44.838,1.283 45.106,1.363 45.29,1.196C45.494,1.011 45.382,0.759 45.295,0.53C45.231,0.36 45.203,0.178 45.147,0.004C45.007,-0.435 45.2,-0.677 45.599,-0.838C45.799,-0.919 45.994,-0.893 46.191,-0.91C46.976,-0.975 47.738,-0.737 48.536,-0.746M34.307,-10.817C34.499,-10.807 34.642,-10.847 34.789,-10.908C35.545,-11.221 36.308,-11.518 37.063,-11.831C37.512,-12.017 37.88,-11.945 38.176,-11.549C38.231,-11.475 38.233,-11.332 38.407,-11.391C38.691,-11.49 39.133,-12.273 38.976,-12.528C38.698,-12.976 38.938,-13.214 39.269,-13.423C39.856,-13.794 40.458,-14.14 41.046,-14.509C41.216,-14.615 41.48,-14.697 41.302,-15.004C41.152,-15.26 40.998,-15.448 40.648,-15.326C40.223,-15.178 39.865,-14.931 39.545,-14.628C39.344,-14.437 39.143,-14.268 38.862,-14.198C38.675,-14.151 38.505,-14.113 38.353,-14.261C38.184,-14.424 38.195,-14.618 38.272,-14.82C38.421,-15.211 38.549,-15.613 38.724,-15.993C38.867,-16.306 38.765,-16.413 38.465,-16.373C37.774,-16.282 37.184,-16.003 36.737,-15.44C36.417,-15.036 36.338,-14.514 36.031,-14.104C35.926,-13.964 35.826,-13.833 35.643,-13.852C35.461,-13.87 35.454,-14.033 35.413,-14.178C35.317,-14.52 35.081,-14.728 34.743,-14.814C34.63,-14.725 34.665,-14.608 34.645,-14.504C34.466,-13.567 33.857,-13.327 33.141,-13.933C32.834,-14.191 32.501,-14.326 32.063,-14.397C32.182,-13.763 32.473,-13.142 31.927,-12.588C31.444,-12.098 30.78,-12 30.105,-11.734C30.479,-11.651 30.569,-11.471 30.51,-11.197C30.431,-10.841 30.622,-10.778 30.868,-10.935C31.859,-11.57 33.011,-11.74 34.098,-12.098C34.295,-12.162 34.485,-12.249 34.647,-12.05C34.801,-11.86 34.804,-11.631 34.705,-11.428C34.604,-11.219 34.451,-11.035 34.307,-10.817M21.724,-7.56C22.684,-8.295 23.745,-8.953 23.594,-10.399C23.583,-10.507 23.597,-10.618 23.605,-10.727C23.642,-11.174 23.81,-11.276 24.217,-11.075C24.581,-10.896 24.896,-10.64 25.158,-10.334C25.409,-10.039 25.546,-10.155 25.668,-10.429C25.737,-10.586 25.698,-10.806 25.947,-10.85C26.695,-10.982 27.003,-11.567 27.277,-12.173C27.374,-12.386 27.337,-12.621 27.178,-12.79C26.977,-13.003 26.815,-12.773 26.647,-12.695C26.067,-12.422 25.169,-12.43 24.893,-13.292C24.767,-13.684 24.712,-14.07 25.057,-14.403C25.253,-14.592 25.427,-14.804 25.612,-15.005C26.047,-15.478 26.105,-15.961 25.742,-16.47C25.531,-16.764 25.277,-17.032 25.019,-17.286C24.852,-17.451 24.653,-17.517 24.618,-17.164C24.605,-17.022 24.646,-16.842 24.438,-16.825C24.258,-16.81 24.228,-17.001 24.144,-17.109C24.02,-17.269 23.942,-17.453 23.896,-17.653C23.742,-18.312 23.249,-18.741 22.803,-19.193C22.711,-19.285 22.58,-19.497 22.392,-19.349C22.23,-19.224 22.319,-19.052 22.385,-18.898C22.652,-18.261 22.915,-17.621 23.187,-16.986C23.28,-16.77 23.356,-16.543 23.127,-16.397C22.916,-16.263 22.767,-16.463 22.608,-16.586C22.235,-16.875 21.909,-17.241 21.427,-17.36C20.93,-17.482 20.702,-17.242 20.799,-16.737C20.847,-16.492 20.958,-16.294 21.124,-16.118C21.511,-15.707 21.896,-15.293 22.286,-14.887C22.519,-14.644 22.806,-14.358 22.65,-14.038C22.48,-13.689 22.103,-13.898 21.808,-13.951C21.058,-14.085 20.588,-13.637 20.721,-12.887C20.762,-12.652 20.758,-12.387 20.951,-12.182C21.066,-12.393 21.163,-12.586 21.271,-12.771C21.405,-12.999 21.566,-13.196 21.872,-13.164C22.211,-13.128 22.484,-12.943 22.558,-12.629C22.792,-11.631 22.975,-10.623 22.52,-9.63C22.33,-9.216 22.016,-8.828 22.007,-8.374C21.999,-8.041 21.97,-7.786 21.724,-7.56M19.908,-7.148C20.466,-7.094 21.202,-7.452 21.361,-7.951C21.581,-8.636 22.003,-9.212 22.272,-9.862C22.614,-10.688 22.438,-11.551 22.274,-12.392C22.237,-12.582 22.078,-12.778 21.852,-12.77C21.655,-12.764 21.552,-12.577 21.492,-12.405C21.396,-12.131 21.326,-11.849 21.238,-11.573C21.158,-11.325 20.996,-11.168 20.722,-11.16C20.458,-11.151 20.333,-11.329 20.237,-11.537C19.756,-12.587 18.982,-13.461 18.467,-14.492C18.398,-14.628 18.237,-14.723 18.107,-14.82C17.95,-14.938 17.75,-15.145 17.582,-15.022C17.385,-14.877 17.6,-14.674 17.676,-14.503C17.742,-14.352 17.802,-14.2 17.869,-14.05C17.93,-13.913 18.01,-13.764 17.832,-13.668C17.668,-13.58 17.562,-13.704 17.468,-13.823C17.192,-14.168 16.892,-14.493 16.484,-14.678C16.199,-14.808 15.863,-15.102 15.586,-14.847C15.282,-14.566 15.729,-14.354 15.821,-14.104C15.937,-13.795 16.115,-13.471 15.932,-13.166C15.736,-12.843 15.391,-13.026 15.122,-13.082C14.333,-13.247 13.718,-12.995 13.271,-12.347C13.045,-12.017 12.828,-11.661 13.101,-11.237C13.379,-10.801 13.765,-10.637 14.27,-10.734C14.645,-10.807 15.019,-10.899 15.398,-10.943C15.905,-11.002 16.021,-10.86 15.864,-10.395C15.78,-10.147 15.787,-9.929 15.961,-9.731C16.156,-9.508 16.405,-9.491 16.665,-9.578C16.924,-9.665 17.175,-9.776 17.431,-9.869C17.788,-9.999 18.136,-10.149 18.54,-10.081C18.857,-10.028 19.014,-9.983 18.823,-9.603C18.565,-9.087 18.825,-8.762 19.408,-8.802C19.591,-8.814 19.771,-8.836 19.953,-8.857C20.531,-8.921 20.753,-8.651 20.512,-8.118C20.364,-7.791 20.133,-7.503 19.908,-7.148M26.054,-10.16C25.479,-9.516 25.324,-9.52 24.835,-10.147C24.769,-10.231 24.683,-10.313 24.589,-10.362C24.429,-10.445 24.304,-10.681 24.128,-10.618C23.938,-10.55 23.995,-10.299 23.988,-10.127C23.928,-8.646 22.954,-7.783 21.811,-7.147C20.85,-6.612 19.78,-6.274 18.723,-5.925C16.935,-5.334 15.096,-5.056 13.24,-4.984C11.567,-4.919 9.886,-5.055 8.21,-5.131C5.454,-5.257 2.699,-5.366 -0.056,-5.113C-2.745,-4.866 -5.286,-4.153 -7.588,-2.701C-8.025,-2.425 -8.471,-2.151 -8.789,-1.674C-7.518,-1.769 -6.287,-1.874 -5.056,-1.949C-3.112,-2.066 -1.165,-2.131 0.775,-2.276C2.412,-2.398 4.057,-2.32 5.689,-2.504C6.737,-2.623 7.79,-2.678 8.838,-2.84C9.949,-3.013 11.081,-3.057 12.176,-3.353C13.564,-3.729 14.935,-4.175 16.369,-4.365C16.966,-4.443 17.571,-4.502 18.14,-4.715C19.256,-5.133 20.39,-5.5 21.554,-5.749C22.283,-5.905 22.956,-5.752 23.522,-5.191C23.801,-4.915 23.994,-4.587 24.231,-4.287C24.414,-4.057 24.651,-3.888 24.94,-3.978C25.258,-4.077 25.054,-4.345 25.045,-4.544C25.038,-4.693 25.016,-4.858 25.163,-4.942C25.33,-5.037 25.418,-4.855 25.537,-4.787C25.803,-4.637 26.006,-4.387 26.339,-4.341C26.754,-4.284 27.138,-4.626 27.011,-5.009C26.939,-5.222 26.885,-5.464 26.691,-5.631C26.513,-5.786 26.29,-5.971 26.509,-6.226C26.724,-6.477 26.94,-6.261 27.141,-6.152C27.573,-5.917 28.001,-5.675 28.435,-5.442C28.614,-5.346 28.84,-5.241 28.993,-5.412C29.163,-5.601 29.045,-5.832 28.91,-6.013C28.68,-6.32 28.521,-6.679 28.227,-6.94C28.092,-7.06 27.927,-7.182 27.998,-7.396C28.087,-7.659 28.331,-7.573 28.518,-7.584C28.66,-7.592 28.809,-7.558 28.951,-7.527C29.504,-7.409 30.054,-7.273 30.609,-7.17C30.793,-7.135 31.043,-7.054 31.155,-7.285C31.262,-7.502 31.145,-7.713 31.006,-7.892C30.78,-8.179 30.555,-8.46 30.224,-8.644C29.965,-8.787 29.923,-9.021 30.238,-9.103C30.842,-9.26 31.4,-9.541 31.993,-9.708C32.94,-9.974 33.647,-10.523 34.199,-11.309C34.28,-11.425 34.418,-11.547 34.315,-11.696C34.211,-11.847 34.036,-11.757 33.906,-11.727C32.853,-11.482 31.832,-11.147 30.918,-10.547C30.464,-10.249 30.253,-10.314 30.132,-10.818C30.07,-11.069 29.989,-11.205 29.714,-11.292C29.405,-11.389 29.298,-11.63 29.601,-11.914C29.888,-12.183 29.968,-12.544 29.909,-12.92C29.885,-13.081 29.9,-13.333 29.646,-13.339C29.468,-13.343 29.349,-13.194 29.298,-13.03C29.036,-12.187 28.585,-11.488 27.873,-10.945C27.559,-10.705 27.303,-10.383 27.043,-10.079C26.516,-9.463 26.521,-9.458 26.054,-10.16M17.473,-6.173C17.293,-6.344 17.091,-6.221 16.902,-6.206C15.336,-6.085 13.773,-5.892 12.198,-5.951C9.632,-6.046 7.118,-6.561 4.613,-7.057C2.376,-7.499 0.143,-7.807 -2.134,-7.807C-4.931,-7.807 -7.484,-6.946 -9.856,-5.529C-11.248,-4.698 -12.242,-3.448 -13.091,-2.096C-13.354,-1.675 -13.709,-1.17 -13.553,-0.667C-13.191,0.493 -13.396,1.917 -12.106,2.679C-12.076,2.697 -12.046,2.723 -12.025,2.753C-11.038,4.187 -9.672,4.985 -7.971,5.35C-6.542,5.656 -5.111,5.958 -3.663,6.088C-1.652,6.268 0.319,5.977 2.296,5.52C4.958,4.903 7.498,3.947 10.036,2.989C11.968,2.261 13.936,1.652 15.915,1.108C17.915,0.558 19.987,0.337 22.081,0.315C23.996,0.296 25.908,0.224 27.805,0.574C27.892,0.59 27.992,0.589 28.073,0.562C28.916,0.274 29.521,0.711 30.061,1.25C30.406,1.595 30.298,1.935 29.914,2.265C29.415,2.696 28.827,2.863 28.21,3.02C27.807,3.123 27.309,3.231 27.336,3.818C27.366,4.441 27.932,4.898 28.55,4.834C28.751,4.814 29.048,4.754 29.049,5.008C29.052,5.742 29.476,6.529 28.822,7.197C28.675,7.348 28.578,7.532 28.697,7.743C28.846,8.003 29.088,7.903 29.288,7.849C29.621,7.759 29.93,7.584 30.29,7.589C30.648,7.595 31.099,8.029 30.974,8.332C30.646,9.128 30.525,9.982 30.227,10.782C30.159,10.964 30.08,11.122 30.255,11.274C30.418,11.417 30.582,11.381 30.76,11.284C31.265,11.006 31.495,10.543 31.634,10.018C31.666,9.899 31.702,9.659 31.78,9.718C32.313,10.122 32.487,9.563 32.759,9.362C33.621,8.724 33.897,7.466 33.431,6.499C33.182,5.985 33.289,5.77 33.848,5.766C34.221,5.763 34.336,5.582 34.304,5.267C34.266,4.906 34.204,4.546 34.13,4.19C34.023,3.686 34.14,3.571 34.663,3.693C34.771,3.717 34.885,3.726 34.984,3.768C35.176,3.849 35.386,3.951 35.532,3.748C35.667,3.562 35.648,3.317 35.518,3.128C35.229,2.716 34.996,2.281 34.478,2.044C34.066,1.855 33.764,1.468 33.62,0.98C33.426,0.319 32.365,-0.363 31.825,-0.166C31.222,0.055 30.684,0.119 30.002,0.023C28.936,-0.127 27.826,-0.091 26.738,-0.185C24.9,-0.344 23.066,-0.553 21.228,-0.69C19.826,-0.795 18.417,-0.565 17.019,-0.635C14.736,-0.749 12.614,-0.116 10.496,0.569C9.053,1.035 7.754,1.835 6.372,2.447C3.639,3.659 0.831,4.42 -2.202,4.113C-4.183,3.912 -6.053,3.338 -7.879,2.589C-8.916,2.163 -9.658,1.263 -10.68,0.796C-10.979,0.66 -11.172,0.598 -11.347,0.928C-11.466,1.153 -11.611,1.364 -11.74,1.585C-11.848,1.77 -11.928,1.983 -12.271,1.995C-12.089,1.697 -11.912,1.451 -11.776,1.184C-10.574,-1.167 -8.512,-2.595 -6.273,-3.745C-3.119,-5.365 0.345,-5.55 3.807,-5.564C5.504,-5.571 7.201,-5.441 8.898,-5.398C11.156,-5.342 13.418,-5.108 15.667,-5.53C16.307,-5.65 16.965,-5.709 17.474,-6.186C17.542,-6.151 17.603,-6.161 17.651,-6.222C17.656,-6.228 17.641,-6.25 17.635,-6.266C17.581,-6.235 17.526,-6.203 17.473,-6.173M37.709,-3.847C37.379,-3.755 37.053,-3.633 36.717,-3.579C36.391,-3.527 35.983,-3.308 35.746,-3.655C35.548,-3.943 35.875,-4.222 35.987,-4.5C36.007,-4.55 36.06,-4.589 36.073,-4.639C36.164,-4.967 35.907,-5.029 35.697,-5.141C35.459,-5.268 35.378,-5.187 35.339,-4.945C35.298,-4.697 35.11,-4.605 34.874,-4.546C34.339,-4.411 34.005,-4.553 33.614,-5.154C33.335,-5.583 33.105,-6.058 32.554,-6.206C32.345,-6.262 32.151,-6.327 31.98,-6.071C31.453,-5.286 31.442,-5.293 30.574,-5.729C30.547,-5.743 30.508,-5.736 30.462,-5.74C30.376,-5.396 30.508,-5.105 30.64,-4.798C30.845,-4.322 30.681,-4.047 30.201,-3.878C29.719,-3.708 29.348,-3.886 28.993,-4.177C28.4,-4.663 28.142,-4.565 27.998,-3.802C27.984,-3.729 27.967,-3.658 27.956,-3.586C27.899,-3.229 27.74,-3.025 27.332,-3.073C26.608,-3.157 25.88,-3.301 25.185,-2.905C25.013,-2.807 24.785,-2.875 24.598,-2.951C23.87,-3.243 23.08,-3.189 22.379,-3.064C19.936,-2.63 17.491,-2.937 15.05,-2.911C14.015,-2.899 12.963,-3.084 11.944,-2.96C9.583,-2.674 7.233,-2.297 4.854,-2.14C2.304,-1.97 -0.251,-1.923 -2.802,-1.756C-4.965,-1.615 -7.126,-1.484 -9.279,-1.231C-9.421,-1.214 -9.512,-1.179 -9.605,-1.084C-9.966,-0.723 -10.342,-0.378 -10.693,-0.009C-10.974,0.286 -10.95,0.51 -10.527,0.681C-10.021,0.886 -9.479,1.087 -9.118,1.501C-8.386,2.34 -7.498,2.295 -6.526,2.135C-4.023,1.726 -1.575,1.065 0.902,0.539C3.888,-0.094 6.916,-0.405 9.932,-0.822C12.355,-1.158 14.81,-1.167 17.229,-1.537C17.933,-1.645 18.654,-1.685 19.333,-1.878C19.963,-2.057 20.584,-2.274 21.236,-2.319C22.871,-2.432 24.48,-2.302 26.009,-1.644C26.416,-1.469 26.822,-1.466 27.15,-1.731C27.519,-2.028 27.884,-1.996 28.285,-1.903C29.02,-1.734 29.511,-1.22 29.996,-0.698C30.503,-0.153 30.872,-0.04 31.306,-0.302C31.966,-0.699 32.427,-0.64 33.037,-0.147C33.709,0.394 34.136,1.161 34.808,1.704C35.03,1.885 35.216,1.977 35.491,1.928C36.086,1.824 36.374,1.357 36.269,0.646C36.218,0.308 35.96,-0.125 36.19,-0.348C36.478,-0.625 36.77,-0.132 37.087,-0.08C37.417,-0.026 37.819,0.093 38.069,-0.143C38.309,-0.37 38.185,-0.76 38.016,-1.012C37.712,-1.465 37.966,-1.606 38.336,-1.678C38.563,-1.723 38.807,-1.693 39.043,-1.687C39.958,-1.663 40.864,-1.552 41.767,-1.403C41.951,-1.373 42.156,-1.35 42.26,-1.541C42.359,-1.726 42.232,-1.899 42.127,-2.046C41.929,-2.321 41.666,-2.497 41.326,-2.576C40.803,-2.696 40.276,-2.74 39.746,-2.673C39.449,-2.636 39.162,-2.656 38.874,-2.712C38.711,-2.743 38.622,-2.81 38.647,-3.009C38.748,-3.789 38.564,-3.948 37.707,-3.851L37.709,-3.847ZM37.791,-11.379C37.514,-11.733 37.207,-11.557 36.907,-11.425C35.939,-11 35,-10.487 33.999,-10.167C32.867,-9.807 31.887,-9.094 30.68,-8.91C30.807,-8.622 31.048,-8.514 31.171,-8.324C31.411,-7.952 31.751,-7.576 31.484,-7.078C31.212,-6.568 30.757,-6.799 30.362,-6.842C30.128,-6.868 29.901,-6.962 29.668,-7.003C29.311,-7.064 28.978,-7.29 28.509,-7.194C28.846,-7.01 28.901,-6.621 29.282,-6.609C29.947,-6.588 30.508,-6.269 31.043,-5.921C31.291,-5.759 31.393,-5.767 31.543,-6.033C31.945,-6.743 32.356,-6.816 33.06,-6.377C33.438,-6.141 33.609,-5.747 33.849,-5.408C34.001,-5.193 34.158,-5.005 34.406,-4.903C34.755,-4.758 34.971,-4.865 35.04,-5.238C35.232,-6.263 35.23,-6.263 36.206,-5.935C36.324,-6.206 36.179,-6.469 36.184,-6.735C36.191,-7.183 36.43,-7.327 36.824,-7.114C36.972,-7.035 37.069,-6.902 37.186,-6.787C37.647,-6.328 37.911,-5.751 38.178,-5.178C38.285,-4.947 38.429,-4.8 38.669,-4.827C38.942,-4.857 39.129,-5.036 39.215,-5.305C39.318,-5.629 39.284,-5.952 39.229,-6.281C39.182,-6.554 39.171,-6.849 39.45,-7.015C39.702,-7.165 39.946,-7.059 40.16,-6.896C40.565,-6.585 40.967,-6.268 41.37,-5.956C41.62,-5.763 41.9,-5.655 42.168,-5.883C42.427,-6.103 42.477,-6.419 42.376,-6.736C42.246,-7.141 41.979,-7.461 41.679,-7.756C41.57,-7.863 41.37,-7.92 41.456,-8.142C41.538,-8.356 41.751,-8.387 41.912,-8.377C42.512,-8.338 43.114,-8.37 43.711,-8.253C44.101,-8.176 44.496,-8.076 44.902,-8.143C45.074,-8.172 45.232,-8.239 45.283,-8.413C45.337,-8.595 45.159,-8.655 45.054,-8.747C44.629,-9.117 44.102,-9.184 43.573,-9.252C42.581,-9.378 41.615,-9.742 40.58,-9.34C40.175,-9.182 40.017,-9.492 40.208,-9.932C40.346,-10.251 40.475,-10.574 40.604,-10.897C40.688,-11.11 40.646,-11.196 40.386,-11.161C39.964,-11.103 39.569,-11.018 39.22,-10.744C38.86,-10.461 38.469,-10.219 38.089,-9.964C37.919,-9.85 37.731,-9.867 37.567,-9.962C37.457,-10.026 37.455,-10.176 37.546,-10.248C37.948,-10.566 37.787,-10.995 37.794,-11.39L37.81,-11.349L37.791,-11.379ZM14.806,-0.905C14.06,-0.969 13.317,-0.892 12.58,-0.813C11.078,-0.654 9.579,-0.47 8.081,-0.279C6.675,-0.099 5.259,0.03 3.858,0.255C1.498,0.633 -0.82,1.214 -3.147,1.751C-4.484,2.06 -5.84,2.286 -7.247,2.561C-6.827,2.791 -6.393,2.798 -6.015,2.96C-4.395,3.65 -2.679,3.897 -0.946,3.925C1.948,3.972 4.609,3.029 7.16,1.756C8.68,0.997 10.231,0.343 11.858,-0.157C12.832,-0.457 13.846,-0.585 14.808,-0.917C14.83,-0.908 14.852,-0.899 14.874,-0.89C14.866,-0.898 14.86,-0.913 14.852,-0.914C14.837,-0.915 14.82,-0.909 14.806,-0.905M0.333,-8.105C0.38,-8.08 0.425,-8.037 0.474,-8.033C2.787,-7.809 5.032,-7.205 7.317,-6.828C7.886,-6.735 8.454,-6.623 9.05,-6.639C10.095,-6.667 11.126,-6.794 12.159,-6.924C14.321,-7.195 16.499,-7.061 18.669,-7.151C19.341,-7.179 19.703,-7.462 20.034,-7.942C20.137,-8.092 20.299,-8.248 20.172,-8.429C20.07,-8.575 19.873,-8.511 19.71,-8.497C19.13,-8.45 18.547,-8.356 17.967,-8.371C15.471,-8.434 12.975,-8.426 10.478,-8.5C8.059,-8.572 5.631,-8.41 3.208,-8.328C2.247,-8.295 1.281,-8.277 0.332,-8.092C0.317,-8.101 0.305,-8.114 0.29,-8.119C0.282,-8.121 0.27,-8.108 0.259,-8.102C0.284,-8.103 0.309,-8.104 0.333,-8.105M38.48,-4.207C38.87,-4.148 39.03,-3.872 39.09,-3.529C39.133,-3.27 39.063,-2.96 39.495,-2.996C39.762,-3.018 40.059,-2.917 40.278,-3.133C40.733,-3.582 41.317,-3.805 41.892,-4.017C42.753,-4.336 42.754,-4.302 43.082,-3.455C43.201,-3.148 43.373,-2.779 43.795,-3.068C44.339,-3.44 44.76,-3.477 45.077,-2.809C45.171,-2.612 45.326,-2.503 45.464,-2.78C45.614,-3.084 45.829,-2.987 46.069,-2.927C46.713,-2.766 46.874,-2.937 46.683,-3.576C46.62,-3.783 46.665,-4.048 46.839,-4.004C47.363,-3.873 47.729,-3.994 48.017,-4.445C48.054,-4.502 48.221,-4.486 48.328,-4.49C48.563,-4.497 48.8,-4.495 49.036,-4.497C49.229,-4.499 49.449,-4.539 49.478,-4.736C49.496,-4.871 49.308,-4.987 49.16,-5.067C48.391,-5.488 47.564,-5.599 46.725,-5.413C46.144,-5.284 45.645,-5.308 45.219,-5.752C45.048,-5.931 44.89,-5.923 44.686,-5.797C43.976,-5.356 43.868,-5.392 43.583,-6.179C43.511,-6.381 43.506,-6.607 43.457,-6.819C43.423,-6.965 43.5,-7.177 43.276,-7.228C43.064,-7.277 42.844,-7.17 42.725,-7.045C42.573,-6.887 42.679,-6.614 42.729,-6.423C42.857,-5.945 42.551,-5.774 42.245,-5.555C41.927,-5.328 41.637,-5.336 41.344,-5.572C41.032,-5.823 40.73,-6.087 40.418,-6.335C40.194,-6.513 39.95,-6.843 39.679,-6.695C39.44,-6.565 39.604,-6.189 39.62,-5.925C39.66,-5.29 39.492,-4.777 38.878,-4.477C38.733,-4.407 38.61,-4.292 38.478,-4.199C38.478,-4.287 38.519,-4.4 38.418,-4.447C37.89,-4.689 37.765,-5.219 37.567,-5.678C37.41,-6.045 37.188,-6.34 36.903,-6.602C36.817,-6.68 36.755,-6.857 36.604,-6.75C36.506,-6.682 36.567,-6.553 36.595,-6.444C36.626,-6.322 36.64,-6.192 36.644,-6.065C36.659,-5.548 36.455,-5.394 35.973,-5.543C35.871,-5.575 35.798,-5.691 35.608,-5.62C35.818,-5.494 36.011,-5.407 36.166,-5.276C36.425,-5.058 36.561,-4.806 36.313,-4.469C36.202,-4.318 35.979,-4.131 36.099,-3.947C36.237,-3.733 36.502,-3.888 36.707,-3.917C36.886,-3.942 37.082,-3.974 37.227,-4.069C37.629,-4.334 38.042,-4.349 38.48,-4.207M14.163,2.086C15.044,1.945 15.924,1.77 16.788,1.579C18.423,1.217 20.027,1.252 21.673,1.424C23.343,1.6 24.947,2.007 26.445,2.702C27.234,3.067 27.755,2.798 28.439,2.486C27.287,2.064 26.21,1.634 25.109,1.274C23.873,0.87 22.599,0.689 21.287,0.691C19.669,0.693 18.088,0.936 16.529,1.313C15.727,1.508 14.892,1.662 14.161,2.097C14.147,2.085 14.135,2.071 14.121,2.059C14.136,2.068 14.149,2.077 14.163,2.086M16.089,-0.974C15.875,-1.078 15.667,-1.011 15.459,-0.954C15.36,-0.947 15.247,-1.063 15.143,-0.928C15.273,-0.875 15.367,-0.929 15.463,-0.969C15.676,-0.849 15.884,-0.874 16.09,-0.987C16.187,-0.896 16.264,-0.943 16.335,-1.023C16.719,-0.781 17.145,-0.881 17.549,-0.903C19.953,-1.038 22.349,-0.986 24.737,-0.657C24.996,-0.621 25.263,-0.537 25.545,-0.65C25.436,-0.853 25.266,-1.025 25.265,-1.197C25.265,-1.563 25.068,-1.637 24.775,-1.702C23.686,-1.944 22.593,-1.875 21.496,-1.791C20.51,-1.715 19.573,-1.381 18.602,-1.249C17.85,-1.146 17.074,-1.246 16.334,-1.01C16.239,-1.091 16.163,-1.037 16.089,-0.974M36.913,0.314C36.885,0.207 36.839,0.127 36.707,0.174C36.684,0.163 36.66,0.152 36.638,0.141C36.646,0.151 36.651,0.17 36.659,0.17C36.676,0.172 36.693,0.164 36.71,0.16C36.759,0.237 36.815,0.301 36.917,0.297C36.974,0.293 37.029,0.29 37.086,0.286C37.451,0.839 38.039,1.169 38.47,1.659C38.866,2.109 38.855,2.36 38.305,2.51C37.782,2.653 37.954,2.861 38.188,3.088C38.5,3.389 38.851,3.652 39.075,4.031C39.446,4.653 39.366,5.006 38.784,5.309C39.003,5.615 39.429,5.549 39.667,5.864C40.208,6.577 41.185,6.494 41.663,5.744C41.813,5.509 41.971,5.258 42.302,5.309C42.693,5.37 43.08,5.823 43.472,5.231C43.536,5.133 44.018,5.283 44.293,5.362C44.642,5.463 44.682,5.311 44.605,5.038C44.449,4.475 44.067,4.166 43.507,4.01C42.591,3.755 42.454,3.362 43.023,2.655C43.23,2.397 43.188,2.257 42.915,2.116C42.751,2.031 42.601,1.983 42.404,1.977C41.963,1.964 41.574,1.813 41.374,1.356C41.312,1.213 41.209,1.037 41.017,1.059C40.854,1.078 40.822,1.255 40.772,1.387C40.455,2.224 39.567,2.33 39.064,1.98C38.773,1.777 38.595,1.459 38.485,1.13C38.355,0.738 38.13,0.521 37.715,0.473C37.5,0.448 37.293,0.36 37.082,0.302C37.023,0.273 36.966,0.255 36.913,0.314M24.301,-17.642C24.86,-17.86 25.613,-17.428 25.99,-16.673C26.494,-15.662 26.473,-15.513 25.708,-14.654C25.611,-14.544 25.533,-14.417 25.429,-14.317C25.018,-13.92 25.143,-13.499 25.432,-13.137C25.721,-12.772 26.104,-12.869 26.479,-13.061C26.727,-13.188 26.953,-13.589 27.271,-13.281C27.626,-12.94 27.796,-12.503 27.612,-11.986C27.421,-11.444 27.019,-11.078 26.616,-10.703C26.514,-10.607 26.298,-10.529 26.5,-10.323C26.724,-10.095 26.775,-10.366 26.869,-10.453C27.294,-10.852 27.707,-11.26 28.172,-11.62C28.618,-11.964 28.766,-12.525 28.966,-13.037C29.1,-13.378 29.139,-13.853 29.681,-13.782C30.082,-13.729 30.398,-13.141 30.259,-12.64C30.133,-12.19 30.326,-12.206 30.627,-12.305C30.99,-12.424 31.337,-12.571 31.621,-12.849C31.906,-13.129 31.955,-13.441 31.846,-13.801C31.794,-13.975 31.719,-14.145 31.69,-14.324C31.62,-14.763 31.82,-14.933 32.261,-14.811C32.67,-14.698 33.009,-14.448 33.354,-14.213C33.528,-14.094 33.685,-13.923 33.945,-14.057C34.19,-14.182 34.295,-14.339 34.269,-14.62C34.246,-14.864 34.325,-15.159 34.559,-15.219C34.872,-15.301 35.207,-15.1 35.374,-14.868C35.756,-14.337 35.88,-14.606 36.092,-14.991C36.538,-15.8 37.185,-16.38 38.101,-16.639C38.345,-16.707 38.569,-16.703 38.802,-16.662C39.186,-16.594 39.309,-16.414 39.062,-16.057C38.832,-15.723 38.749,-15.325 38.64,-14.942C38.607,-14.83 38.468,-14.704 38.608,-14.597C38.754,-14.487 38.919,-14.526 39.068,-14.628C39.446,-14.886 39.819,-15.153 40.208,-15.397C40.604,-15.645 40.994,-15.755 41.395,-15.359C41.778,-14.979 41.799,-14.633 41.341,-14.323C40.797,-13.954 40.22,-13.637 39.655,-13.3C39.363,-13.127 39.141,-12.948 39.387,-12.565C39.521,-12.357 39.416,-12.145 39.292,-11.95C39.065,-11.593 38.764,-11.302 38.464,-11.012C38.332,-10.885 38.185,-10.776 38.242,-10.546C38.813,-10.642 39.122,-11.202 39.667,-11.328C39.789,-11.355 39.903,-11.436 40.024,-11.446C40.343,-11.473 40.717,-11.635 40.96,-11.353C41.205,-11.07 40.868,-10.822 40.778,-10.561C40.689,-10.303 40.596,-10.048 40.5,-9.782C40.735,-9.674 40.959,-9.746 41.192,-9.783C42.649,-10.008 43.962,-9.532 45.232,-8.901C45.496,-8.769 45.723,-8.514 45.604,-8.182C45.473,-7.814 45.102,-7.77 44.782,-7.796C44.199,-7.841 43.621,-7.949 43.042,-8.028C42.701,-8.075 42.358,-8.105 41.974,-8.017C42.102,-7.865 42.25,-7.76 42.296,-7.62C42.44,-7.179 42.652,-7.228 42.991,-7.429C43.492,-7.726 43.762,-7.537 43.765,-6.935C43.766,-6.789 43.752,-6.641 43.772,-6.498C43.859,-5.899 44.084,-5.786 44.572,-6.136C44.897,-6.37 45.153,-6.31 45.388,-6.047C45.679,-5.717 45.995,-5.613 46.453,-5.67C47.513,-5.805 48.577,-5.82 49.525,-5.19C49.685,-5.084 49.934,-5.019 49.921,-4.779C49.906,-4.515 49.687,-4.372 49.466,-4.273C49.247,-4.174 49.008,-4.175 48.768,-4.178C48.495,-4.182 48.243,-4.178 48.102,-3.835C47.913,-3.38 47.494,-3.687 47.171,-3.637C47.028,-3.559 47.151,-3.442 47.15,-3.349C47.145,-2.691 46.937,-2.504 46.279,-2.567C46.099,-2.584 45.833,-2.739 45.766,-2.457C45.709,-2.214 45.985,-2.153 46.158,-2.067C46.717,-1.79 47.358,-1.791 47.933,-1.529C48.273,-1.373 48.56,-1.165 48.844,-0.945C48.965,-0.85 49.147,-0.698 49.063,-0.541C48.973,-0.37 48.768,-0.282 48.541,-0.325C47.948,-0.436 47.359,-0.567 46.753,-0.588C46.589,-0.593 46.424,-0.621 46.262,-0.609C45.46,-0.551 45.341,-0.374 45.58,0.379C45.597,0.431 45.602,0.488 45.623,0.538C45.762,0.858 45.846,1.215 45.539,1.444C45.245,1.663 44.859,1.701 44.494,1.557C44.257,1.464 44.028,1.349 43.794,1.247C43.543,1.137 43.343,1.197 43.165,1.413C43,1.614 42.956,1.734 43.225,1.912C43.699,2.225 43.69,2.374 43.255,2.771C43.095,2.917 42.981,3.08 43.027,3.297C43.075,3.525 43.273,3.63 43.474,3.649C44.537,3.749 44.89,4.468 45.022,5.387C45.091,5.859 44.939,5.99 44.479,5.847C44.271,5.782 44.077,5.673 43.869,5.609C43.73,5.565 43.591,5.549 43.526,5.758C43.392,6.203 43.091,6.161 42.809,5.93C42.393,5.59 42.135,5.572 41.853,6.12C41.594,6.621 40.852,6.804 40.24,6.648C40.104,6.613 39.972,6.564 39.824,6.518C39.908,7.521 38.952,8.593 37.885,8.661C37.351,8.695 37.065,8.919 36.872,9.404C36.72,9.785 36.521,10.174 36.13,10.392C35.747,10.605 35.549,10.486 35.566,10.053C35.585,9.615 35.595,9.18 35.714,8.749C35.847,8.269 35.705,8.118 35.201,8.111C34.221,8.098 34.239,8.098 34.234,7.078C34.233,6.788 34.374,6.246 34.016,6.255C33.586,6.265 33.883,6.76 33.891,7.015C33.917,7.827 33.993,8.633 33.357,9.279C33.191,9.447 33.02,9.623 32.818,9.74C32.236,10.083 31.824,10.545 31.513,11.154C31.324,11.521 30.858,11.697 30.461,11.752C29.947,11.821 29.595,11.172 29.861,10.627C30.207,9.918 30.246,9.119 30.588,8.41C30.771,8.032 30.52,7.848 30.153,7.896C29.869,7.933 29.586,8.028 29.318,8.138C28.994,8.271 28.707,8.278 28.471,7.998C28.224,7.706 28.308,7.344 28.515,7.14C29.045,6.615 28.813,6.015 28.783,5.431C28.775,5.28 28.696,5.197 28.494,5.193C27.603,5.169 26.955,4.492 26.984,3.594C26.992,3.35 26.895,3.279 26.721,3.194C25.234,2.469 23.669,2.012 22.032,1.782C20.966,1.632 19.893,1.493 18.822,1.581C17.17,1.714 15.556,2.131 13.918,2.375C11.701,2.704 9.62,3.484 7.542,4.272C5.68,4.978 3.769,5.508 1.823,5.933C0.822,6.152 -0.17,6.352 -1.196,6.414C-2.587,6.499 -3.96,6.448 -5.326,6.168C-6.365,5.954 -7.43,5.837 -8.443,5.539C-9.526,5.221 -10.623,4.896 -11.385,3.903C-11.835,3.316 -12.38,2.763 -13.292,2.822C-13.791,2.856 -14.277,2.562 -14.813,2.525C-15.41,2.484 -15.861,1.845 -15.912,1.224C-15.942,0.86 -15.973,0.496 -16.028,0.135C-16.163,-0.729 -15.961,-1.532 -15.615,-2.311C-15.44,-2.706 -15.187,-2.985 -14.698,-2.943C-14.481,-2.924 -14.249,-3.005 -14.045,-2.955C-13.251,-2.761 -12.782,-3.085 -12.313,-3.733C-11.396,-4.995 -10.1,-5.803 -8.711,-6.506C-7.36,-7.19 -5.974,-7.71 -4.48,-7.902C-3.505,-8.027 -2.526,-8.125 -1.535,-8.129C-0.76,-8.132 0.013,-8.368 0.79,-8.453C2.733,-8.667 4.688,-8.645 6.639,-8.663C7.753,-8.674 8.86,-8.79 9.978,-8.778C11.434,-8.762 12.885,-8.581 14.342,-8.66C15.581,-8.727 16.82,-8.555 18.06,-8.656C18.32,-8.677 18.572,-8.668 18.369,-9.044C18.361,-9.059 18.37,-9.082 18.363,-9.098C18.279,-9.305 18.528,-9.609 18.321,-9.709C18.059,-9.837 17.765,-9.64 17.497,-9.529C17.245,-9.424 16.998,-9.303 16.74,-9.215C15.999,-8.963 15.422,-9.376 15.496,-10.15C15.541,-10.62 15.387,-10.631 15.013,-10.53C14.382,-10.358 13.754,-10.182 13.152,-10.685C12.68,-11.079 12.506,-11.525 12.764,-12.072C13.24,-13.084 13.916,-13.678 15.21,-13.398C15.357,-13.367 15.571,-13.24 15.664,-13.407C15.747,-13.554 15.653,-13.752 15.547,-13.911C15.318,-14.255 14.971,-14.627 15.327,-15.035C15.711,-15.473 16.169,-15.169 16.589,-15.011C16.755,-14.949 16.874,-14.772 17.105,-14.808C17.079,-15.054 17.045,-15.336 17.309,-15.461C17.542,-15.572 17.777,-15.44 17.977,-15.309C18.501,-14.964 18.918,-14.549 19.186,-13.943C19.426,-13.398 19.809,-12.91 20.17,-12.427C20.332,-12.212 20.584,-12.069 20.554,-11.746C20.544,-11.644 20.616,-11.582 20.72,-11.562C20.81,-11.545 20.851,-11.598 20.888,-11.663C20.954,-11.778 20.907,-11.824 20.817,-11.923C20.068,-12.753 20.26,-13.94 21.174,-14.298C21.558,-14.448 21.923,-14.15 22.341,-14.29C22.012,-14.955 21.409,-15.357 20.936,-15.865C20.681,-16.138 20.548,-16.443 20.487,-16.78C20.379,-17.401 20.813,-17.804 21.431,-17.679C21.683,-17.628 21.923,-17.545 22.137,-17.391C22.34,-17.246 22.558,-17.124 22.871,-16.929C22.593,-17.596 22.358,-18.154 22.129,-18.714C22.074,-18.847 22.019,-18.984 21.996,-19.125C21.95,-19.398 22.042,-19.662 22.269,-19.794C22.484,-19.92 22.694,-19.725 22.846,-19.584C23.448,-19.024 24.045,-18.456 24.314,-17.642C24.315,-17.642 24.326,-17.624 24.326,-17.624L24.301,-17.642Z" style="fill:rgb(35,31,32);"/>
            </g>
            <g transform="matrix(48.3306,9.18418,9.18418,-48.3306,470.683,171.4)">
                <path d="M0.203,0.12C0.147,0.11 0.099,0.083 0.057,0.046C0.033,0.024 0.018,-0.005 0.006,-0.035C0.002,-0.045 -0.003,-0.056 0.002,-0.065C0.014,-0.087 0.015,-0.117 0.044,-0.127C0.044,-0.127 0.045,-0.127 0.046,-0.128C0.071,-0.153 0.101,-0.164 0.136,-0.164C0.166,-0.165 0.196,-0.166 0.225,-0.163C0.266,-0.159 0.304,-0.146 0.342,-0.129C0.393,-0.106 0.44,-0.078 0.487,-0.049C0.523,-0.027 0.56,-0.008 0.597,0.011C0.635,0.029 0.676,0.042 0.717,0.05C0.756,0.058 0.793,0.066 0.833,0.067C0.835,0.067 0.836,0.067 0.838,0.068C0.854,0.077 0.868,0.07 0.88,0.062C0.889,0.056 0.888,0.049 0.881,0.041C0.873,0.03 0.862,0.025 0.85,0.019C0.842,0.016 0.833,0.012 0.836,0C0.839,-0.012 0.852,-0.019 0.864,-0.016C0.868,-0.014 0.873,-0.012 0.874,-0.017C0.877,-0.032 0.889,-0.046 0.878,-0.062C0.876,-0.065 0.875,-0.069 0.878,-0.073C0.882,-0.078 0.886,-0.075 0.89,-0.073C0.896,-0.07 0.902,-0.065 0.909,-0.064C0.916,-0.063 0.927,-0.07 0.925,-0.076C0.922,-0.093 0.923,-0.111 0.92,-0.128C0.919,-0.132 0.918,-0.135 0.922,-0.138C0.926,-0.14 0.929,-0.139 0.932,-0.136C0.941,-0.129 0.944,-0.118 0.945,-0.107C0.945,-0.105 0.945,-0.1 0.947,-0.101C0.959,-0.107 0.96,-0.095 0.965,-0.09C0.98,-0.074 0.981,-0.048 0.968,-0.03C0.961,-0.021 0.962,-0.016 0.973,-0.014C0.98,-0.013 0.982,-0.009 0.98,-0.002C0.978,0.005 0.976,0.012 0.973,0.018C0.969,0.028 0.971,0.031 0.981,0.03C0.984,0.03 0.986,0.031 0.988,0.03C0.992,0.029 0.997,0.028 0.999,0.033C1.001,0.037 1,0.042 0.996,0.045C0.989,0.052 0.983,0.06 0.972,0.063C0.963,0.065 0.955,0.071 0.95,0.081C0.944,0.093 0.92,0.103 0.91,0.097C0.899,0.09 0.888,0.087 0.874,0.086C0.853,0.085 0.831,0.08 0.809,0.078C0.771,0.074 0.734,0.071 0.697,0.067C0.682,0.065 0.667,0.062 0.652,0.058C0.639,0.055 0.626,0.052 0.613,0.05C0.567,0.044 0.527,0.023 0.487,0.001C0.46,-0.014 0.437,-0.035 0.412,-0.052C0.362,-0.087 0.309,-0.113 0.247,-0.118C0.207,-0.121 0.167,-0.117 0.128,-0.109C0.105,-0.104 0.087,-0.089 0.065,-0.084C0.059,-0.082 0.054,-0.082 0.052,-0.089C0.051,-0.094 0.049,-0.099 0.047,-0.104C0.045,-0.108 0.045,-0.112 0.038,-0.114C0.04,-0.107 0.043,-0.102 0.045,-0.096C0.06,-0.044 0.095,-0.008 0.136,0.024C0.193,0.068 0.261,0.085 0.33,0.098C0.364,0.105 0.398,0.109 0.432,0.114C0.478,0.122 0.524,0.126 0.567,0.142C0.579,0.147 0.592,0.151 0.601,0.162C0.596,0.165 0.593,0.162 0.589,0.161C0.558,0.152 0.528,0.143 0.496,0.138C0.445,0.13 0.393,0.131 0.341,0.131C0.294,0.131 0.249,0.129 0.203,0.12ZM0.601,0.162L0.601,0.162Z" style="fill:url(#_Linear1);fill-rule:nonzero;"/>
            </g>
            <g transform="matrix(50.9609,9.68401,9.68401,-50.9609,474.048,169.289)">
                <path d="M0.789,0.152C0.782,0.135 0.781,0.135 0.763,0.14C0.763,0.141 0.762,0.14 0.761,0.14C0.761,0.133 0.764,0.128 0.768,0.123C0.774,0.115 0.771,0.109 0.763,0.104C0.754,0.099 0.747,0.101 0.739,0.105C0.726,0.112 0.721,0.11 0.721,0.095L0.721,0.09C0.722,0.084 0.719,0.079 0.711,0.078C0.697,0.077 0.683,0.078 0.671,0.068C0.669,0.065 0.664,0.066 0.66,0.066C0.645,0.069 0.631,0.065 0.618,0.06C0.587,0.049 0.555,0.044 0.523,0.039C0.508,0.036 0.494,0.034 0.479,0.031C0.472,0.03 0.464,0.029 0.456,0.028C0.444,0.026 0.432,0.025 0.42,0.021C0.377,0.007 0.334,-0.009 0.289,-0.02C0.241,-0.032 0.193,-0.043 0.146,-0.055C0.105,-0.065 0.065,-0.076 0.025,-0.088C0.022,-0.089 0.021,-0.09 0.019,-0.092C0.014,-0.1 0.008,-0.108 0.002,-0.116C-0.002,-0.123 -0.001,-0.127 0.008,-0.129C0.018,-0.131 0.029,-0.133 0.038,-0.139C0.055,-0.153 0.071,-0.149 0.089,-0.142C0.135,-0.125 0.179,-0.104 0.224,-0.085C0.278,-0.062 0.334,-0.046 0.39,-0.027C0.435,-0.012 0.481,-0.003 0.526,0.013C0.539,0.018 0.552,0.021 0.564,0.027C0.576,0.033 0.587,0.039 0.599,0.042C0.629,0.05 0.66,0.054 0.692,0.047C0.7,0.045 0.708,0.046 0.713,0.052C0.719,0.059 0.726,0.06 0.734,0.06C0.748,0.059 0.759,0.051 0.771,0.043C0.782,0.035 0.789,0.034 0.797,0.04C0.808,0.05 0.817,0.051 0.83,0.044C0.845,0.036 0.856,0.023 0.87,0.015C0.875,0.012 0.879,0.011 0.884,0.013C0.895,0.017 0.899,0.027 0.894,0.04C0.892,0.046 0.886,0.054 0.889,0.059C0.894,0.065 0.901,0.057 0.907,0.057C0.913,0.057 0.922,0.056 0.925,0.062C0.929,0.067 0.925,0.074 0.921,0.078C0.914,0.085 0.918,0.089 0.925,0.092C0.929,0.093 0.934,0.094 0.938,0.094C0.956,0.097 0.973,0.098 0.991,0.099C0.994,0.099 0.998,0.099 1,0.103C1.001,0.107 0.998,0.11 0.995,0.112C0.991,0.117 0.985,0.119 0.978,0.119C0.968,0.12 0.958,0.119 0.948,0.116C0.943,0.114 0.937,0.113 0.931,0.113C0.928,0.113 0.926,0.114 0.926,0.118C0.925,0.133 0.921,0.135 0.905,0.131C0.899,0.128 0.894,0.124 0.887,0.122C0.881,0.12 0.875,0.114 0.869,0.12C0.864,0.125 0.869,0.131 0.87,0.137C0.87,0.138 0.871,0.139 0.871,0.14C0.872,0.146 0.867,0.146 0.862,0.148C0.858,0.149 0.856,0.147 0.856,0.143C0.857,0.138 0.853,0.136 0.849,0.134C0.839,0.129 0.833,0.131 0.823,0.141C0.816,0.148 0.81,0.156 0.799,0.157L0.794,0.157C0.792,0.156 0.79,0.155 0.789,0.152ZM0.905,0.131L0.905,0.13L0.905,0.131Z" style="fill:url(#_Linear2);fill-rule:nonzero;"/>
            </g>
            <g transform="matrix(39.8224,7.56739,7.56739,-39.8224,476.692,164.385)">
                <path d="M0.878,0.229C0.873,0.228 0.871,0.224 0.871,0.22C0.868,0.198 0.861,0.179 0.846,0.163C0.839,0.155 0.835,0.146 0.83,0.138C0.82,0.121 0.82,0.12 0.805,0.135C0.794,0.117 0.791,0.116 0.776,0.129C0.774,0.131 0.771,0.133 0.769,0.133C0.765,0.135 0.761,0.14 0.757,0.138C0.752,0.135 0.755,0.129 0.755,0.125C0.761,0.089 0.741,0.063 0.716,0.043C0.696,0.025 0.671,0.012 0.647,-0.001C0.607,-0.024 0.563,-0.039 0.519,-0.049C0.478,-0.058 0.437,-0.063 0.396,-0.069C0.329,-0.078 0.261,-0.088 0.196,-0.107C0.132,-0.126 0.073,-0.155 0.024,-0.2C0.015,-0.209 0.006,-0.218 0,-0.231C0.03,-0.223 0.06,-0.214 0.089,-0.207C0.136,-0.195 0.183,-0.185 0.229,-0.172C0.268,-0.162 0.308,-0.156 0.347,-0.144C0.372,-0.136 0.397,-0.13 0.422,-0.121C0.448,-0.112 0.475,-0.106 0.5,-0.094C0.532,-0.078 0.563,-0.061 0.597,-0.05C0.611,-0.045 0.626,-0.041 0.639,-0.033C0.664,-0.018 0.69,-0.004 0.717,0.008C0.734,0.015 0.751,0.014 0.767,0.003C0.775,-0.002 0.781,-0.009 0.788,-0.015C0.794,-0.02 0.8,-0.023 0.807,-0.02C0.814,-0.016 0.808,-0.01 0.807,-0.005C0.806,-0.002 0.805,0.002 0.808,0.005C0.811,0.008 0.814,0.004 0.818,0.003C0.825,0 0.831,-0.005 0.839,-0.004C0.849,-0.004 0.857,0.006 0.852,0.015C0.85,0.02 0.847,0.025 0.842,0.028C0.837,0.031 0.83,0.035 0.835,0.042C0.839,0.049 0.845,0.045 0.85,0.043C0.862,0.039 0.873,0.036 0.885,0.032C0.89,0.03 0.896,0.029 0.898,0.034C0.902,0.039 0.898,0.044 0.894,0.048C0.887,0.054 0.881,0.062 0.873,0.067C0.869,0.07 0.865,0.072 0.865,0.077C0.866,0.083 0.87,0.083 0.874,0.084L0.877,0.084C0.88,0.085 0.884,0.085 0.888,0.085C0.902,0.085 0.916,0.084 0.93,0.084C0.934,0.084 0.941,0.083 0.942,0.089C0.944,0.095 0.94,0.099 0.936,0.103C0.929,0.109 0.922,0.115 0.913,0.118C0.906,0.12 0.904,0.126 0.912,0.129C0.926,0.136 0.938,0.145 0.951,0.152C0.973,0.163 0.988,0.179 0.998,0.201C0.999,0.204 1.002,0.207 0.999,0.211C0.995,0.214 0.991,0.211 0.988,0.209C0.964,0.199 0.941,0.186 0.921,0.167C0.912,0.158 0.906,0.158 0.901,0.17C0.899,0.176 0.896,0.179 0.889,0.18C0.881,0.181 0.877,0.186 0.883,0.194C0.889,0.202 0.889,0.211 0.886,0.22C0.885,0.224 0.884,0.23 0.878,0.229Z" style="fill:url(#_Linear3);fill-rule:nonzero;"/>
            </g>
            <g transform="matrix(1,0,0,1,521.53,170.152)">
                <path d="M0,-6.292C-0.008,-5.896 0.153,-5.466 -0.249,-5.148C-0.34,-5.077 -0.338,-4.926 -0.228,-4.862C-0.063,-4.767 0.124,-4.751 0.294,-4.865C0.674,-5.12 1.065,-5.362 1.425,-5.644C1.774,-5.918 2.169,-6.004 2.591,-6.061C2.852,-6.097 2.893,-6.01 2.809,-5.797C2.68,-5.475 2.551,-5.152 2.413,-4.833C2.222,-4.392 2.38,-4.083 2.785,-4.24C3.82,-4.642 4.786,-4.279 5.778,-4.152C6.307,-4.085 6.834,-4.018 7.259,-3.647C7.364,-3.555 7.542,-3.495 7.488,-3.314C7.437,-3.14 7.279,-3.073 7.107,-3.044C6.701,-2.976 6.306,-3.077 5.916,-3.153C5.319,-3.271 4.717,-3.238 4.117,-3.277C3.956,-3.288 3.743,-3.256 3.661,-3.042C3.575,-2.82 3.775,-2.763 3.884,-2.657C4.184,-2.362 4.451,-2.042 4.581,-1.636C4.682,-1.32 4.632,-1.003 4.373,-0.784C4.105,-0.556 3.825,-0.664 3.575,-0.856C3.172,-1.169 2.771,-1.486 2.365,-1.796C2.151,-1.96 1.907,-2.066 1.655,-1.916C1.376,-1.75 1.387,-1.455 1.434,-1.182C1.489,-0.853 1.523,-0.529 1.42,-0.205C1.334,0.063 1.147,0.242 0.874,0.272C0.634,0.299 0.49,0.153 0.383,-0.078C0.116,-0.651 -0.147,-1.229 -0.609,-1.688C-0.726,-1.803 -0.823,-1.936 -0.971,-2.015C-1.365,-2.227 -1.604,-2.084 -1.611,-1.635C-1.616,-1.37 -1.471,-1.106 -1.589,-0.835C-2.564,-1.164 -2.563,-1.163 -2.755,-0.138C-2.824,0.234 -3.04,0.342 -3.389,0.197C-3.637,0.094 -3.794,-0.093 -3.946,-0.308C-4.186,-0.648 -4.356,-1.041 -4.735,-1.277C-5.438,-1.716 -5.85,-1.644 -6.252,-0.933C-6.402,-0.667 -6.504,-0.66 -6.752,-0.821C-7.287,-1.17 -7.848,-1.489 -8.513,-1.509C-8.894,-1.521 -8.949,-1.911 -9.286,-2.094C-8.817,-2.19 -8.484,-1.965 -8.127,-1.903C-7.894,-1.863 -7.667,-1.768 -7.433,-1.743C-7.038,-1.7 -6.583,-1.469 -6.311,-1.978C-6.044,-2.477 -6.384,-2.853 -6.624,-3.224C-6.747,-3.414 -6.988,-3.522 -7.115,-3.81C-5.908,-3.994 -4.928,-4.707 -3.796,-5.068C-2.795,-5.387 -1.855,-5.9 -0.888,-6.325C-0.588,-6.457 -0.281,-6.634 -0.004,-6.279L0,-6.292Z" style="fill:rgb(96,187,70);"/>
            </g>
            <g transform="matrix(5.36966,7.88922,7.88922,-5.36966,484.833,172.132)">
                <path d="M0.877,0.859C0.802,0.719 0.73,0.578 0.658,0.437C0.59,0.305 0.518,0.175 0.455,0.04C0.349,-0.187 0.262,-0.422 0.172,-0.655C0.12,-0.789 0.059,-0.92 0,-1.058C0.045,-1.035 0.071,-0.998 0.107,-0.975C0.263,-0.875 0.385,-0.741 0.49,-0.592C0.664,-0.344 0.74,-0.058 0.78,0.238C0.804,0.414 0.838,0.587 0.891,0.757C0.922,0.858 0.97,0.953 0.998,1.055C0.986,1.039 0.974,1.024 0.964,1.008C0.931,0.96 0.904,0.909 0.877,0.859ZM0.998,1.055C0.999,1.055 0.999,1.056 1,1.057L0.999,1.058C0.999,1.057 0.998,1.056 0.998,1.055Z" style="fill:url(#_Linear4);fill-rule:nonzero;"/>
            </g>
            <g transform="matrix(1,0,0,1,503.643,160.161)">
                <path d="M0,7.943C0.225,7.588 0.456,7.299 0.604,6.973C0.845,6.44 0.623,6.17 0.045,6.234C-0.137,6.255 -0.317,6.276 -0.5,6.289C-1.083,6.329 -1.343,6.004 -1.085,5.488C-0.895,5.108 -1.051,5.063 -1.368,5.01C-1.772,4.942 -2.12,5.092 -2.478,5.222C-2.733,5.315 -2.984,5.425 -3.243,5.512C-3.503,5.6 -3.752,5.583 -3.947,5.36C-4.121,5.162 -4.128,4.944 -4.044,4.696C-3.888,4.231 -4.003,4.089 -4.51,4.148C-4.89,4.192 -5.264,4.284 -5.639,4.357C-6.144,4.454 -6.529,4.29 -6.808,3.854C-7.08,3.43 -6.863,3.073 -6.637,2.744C-6.19,2.096 -5.575,1.843 -4.786,2.008C-4.518,2.065 -4.172,2.248 -3.977,1.925C-3.793,1.62 -3.972,1.296 -4.087,0.986C-4.179,0.737 -4.626,0.525 -4.322,0.244C-4.045,-0.011 -3.709,0.283 -3.424,0.413C-3.017,0.598 -2.716,0.922 -2.44,1.268C-2.346,1.387 -2.24,1.511 -2.076,1.422C-1.898,1.327 -1.979,1.177 -2.039,1.041C-2.106,0.891 -2.166,0.738 -2.232,0.588C-2.309,0.417 -2.523,0.214 -2.326,0.068C-2.158,-0.054 -1.958,0.153 -1.801,0.271C-1.671,0.368 -1.51,0.463 -1.441,0.599C-0.926,1.63 -0.152,2.504 0.329,3.554C0.425,3.762 0.55,3.94 0.813,3.931C1.088,3.922 1.25,3.766 1.33,3.518C1.418,3.242 1.487,2.96 1.584,2.686C1.644,2.514 1.747,2.327 1.943,2.321C2.17,2.313 2.329,2.508 2.366,2.698C2.53,3.54 2.706,4.403 2.364,5.229C2.095,5.879 1.673,6.455 1.453,7.14C1.294,7.639 0.558,7.997 0,7.943" style="fill:rgb(96,187,70);"/>
            </g>
            <g transform="matrix(1,0,0,1,505.459,155.754)">
                <path d="M0,11.937C0.246,11.712 0.275,11.456 0.283,11.123C0.292,10.67 0.606,10.282 0.796,9.868C1.251,8.874 1.068,7.866 0.834,6.868C0.761,6.554 0.487,6.37 0.148,6.333C-0.157,6.302 -0.318,6.498 -0.452,6.726C-0.561,6.912 -0.657,7.104 -0.772,7.315C-0.966,7.111 -0.962,6.846 -1.003,6.611C-1.136,5.861 -0.666,5.412 0.084,5.546C0.379,5.599 0.757,5.809 0.927,5.459C1.082,5.139 0.795,4.853 0.562,4.61C0.172,4.204 -0.213,3.79 -0.6,3.38C-0.766,3.204 -0.877,3.006 -0.925,2.761C-1.021,2.255 -0.794,2.016 -0.297,2.138C0.186,2.256 0.512,2.622 0.885,2.911C1.043,3.034 1.192,3.234 1.403,3.1C1.633,2.955 1.557,2.727 1.464,2.512C1.191,1.876 0.929,1.237 0.661,0.6C0.596,0.445 0.507,0.274 0.668,0.148C0.856,0 0.987,0.212 1.079,0.305C1.525,0.757 2.019,1.185 2.172,1.845C2.219,2.044 2.296,2.228 2.42,2.388C2.504,2.497 2.534,2.687 2.715,2.672C2.923,2.656 2.882,2.475 2.895,2.333C2.93,1.98 3.128,2.047 3.295,2.211C3.554,2.466 3.808,2.733 4.019,3.028C4.382,3.536 4.323,4.02 3.889,4.493C3.703,4.693 3.529,4.905 3.333,5.095C2.988,5.427 3.043,5.813 3.169,6.205C3.445,7.068 4.344,7.076 4.924,6.803C5.092,6.724 5.253,6.494 5.454,6.707C5.613,6.876 5.65,7.112 5.554,7.325C5.279,7.93 4.972,8.516 4.224,8.647C3.975,8.692 4.014,8.912 3.944,9.069C3.822,9.343 3.686,9.458 3.435,9.164C3.173,8.857 2.857,8.602 2.493,8.422C2.086,8.222 1.918,8.323 1.882,8.77C1.873,8.879 1.859,8.991 1.87,9.099C2.021,10.544 0.96,11.203 0,11.937" style="fill:rgb(96,187,70);"/>
            </g>
            <g transform="matrix(1,0,0,1,518.042,158.878)">
                <path d="M0,5.556C0.145,5.338 0.297,5.154 0.398,4.946C0.497,4.742 0.494,4.514 0.341,4.324C0.179,4.124 -0.012,4.211 -0.209,4.276C-1.296,4.633 -2.447,4.804 -3.438,5.438C-3.685,5.596 -3.876,5.533 -3.797,5.176C-3.737,4.903 -3.827,4.722 -4.201,4.639C-3.526,4.373 -2.862,4.276 -2.38,3.785C-1.834,3.231 -2.125,2.61 -2.244,1.976C-1.806,2.048 -1.473,2.182 -1.166,2.44C-0.449,3.046 0.159,2.806 0.338,1.869C0.358,1.765 0.323,1.648 0.437,1.559C0.774,1.645 1.011,1.853 1.106,2.196C1.147,2.341 1.154,2.503 1.336,2.521C1.52,2.54 1.619,2.409 1.725,2.269C2.031,1.86 2.11,1.337 2.431,0.933C2.877,0.37 3.468,0.091 4.158,0C4.458,-0.04 4.561,0.068 4.417,0.38C4.242,0.76 4.114,1.162 3.966,1.554C3.889,1.756 3.877,1.95 4.046,2.113C4.198,2.26 4.368,2.222 4.556,2.175C4.836,2.105 5.037,1.936 5.238,1.745C5.559,1.443 5.916,1.196 6.342,1.048C6.691,0.926 6.846,1.113 6.995,1.369C7.174,1.676 6.909,1.758 6.739,1.865C6.151,2.233 5.55,2.579 4.962,2.95C4.632,3.159 4.392,3.397 4.669,3.846C4.826,4.1 4.385,4.883 4.101,4.982C3.927,5.041 3.925,4.898 3.869,4.824C3.573,4.428 3.205,4.356 2.757,4.542C2.001,4.855 1.238,5.153 0.482,5.465C0.335,5.527 0.192,5.566 0,5.556" style="fill:rgb(96,187,70);"/>
            </g>
            <g transform="matrix(6.40104,9.40455,9.40455,-6.40104,490.921,162.483)">
                <path d="M0.93,0.699C0.905,0.654 0.883,0.607 0.853,0.566C0.725,0.388 0.602,0.206 0.473,0.028C0.348,-0.144 0.24,-0.329 0.126,-0.509C0.081,-0.58 0.035,-0.65 0.002,-0.728C0.005,-0.726 0.01,-0.725 0.012,-0.722C0.143,-0.565 0.298,-0.432 0.438,-0.284C0.473,-0.248 0.509,-0.212 0.538,-0.168C0.587,-0.09 0.629,-0.009 0.671,0.072C0.758,0.243 0.875,0.394 0.976,0.556C1.007,0.607 1.005,0.647 0.986,0.695C0.98,0.71 0.977,0.729 0.958,0.729C0.95,0.729 0.945,0.724 0.94,0.718C0.936,0.712 0.933,0.705 0.93,0.699ZM0.001,-0.729C0.001,-0.729 0.001,-0.728 0.002,-0.728C0.001,-0.728 0,-0.728 0,-0.729L0.001,-0.729Z" style="fill:url(#_Linear5);fill-rule:nonzero;"/>
            </g>
            <g transform="matrix(1,0,0,1,532.271,174.103)">
                <path d="M0,0.403C-0.798,0.412 -1.561,0.174 -2.345,0.239C-2.542,0.256 -2.737,0.23 -2.938,0.311C-3.336,0.472 -3.529,0.714 -3.389,1.153C-3.333,1.327 -3.305,1.509 -3.241,1.679C-3.154,1.908 -3.042,2.16 -3.246,2.345C-3.43,2.512 -3.698,2.432 -3.925,2.381C-4.083,2.344 -4.237,2.27 -4.379,2.19C-5.009,1.831 -5.175,1.847 -5.647,2.334C-6.057,2.756 -6.293,2.763 -6.753,2.367C-7.594,1.642 -7.594,1.642 -8.161,2.555C-8.471,3.052 -9.201,3.111 -9.465,2.596C-9.753,2.032 -10.319,1.543 -10.039,0.759C-9.948,0.502 -10.097,0.156 -10.247,-0.18C-9.325,-0.244 -8.46,-0.213 -7.597,-0.061C-7.254,0 -6.91,0.053 -6.567,0.112C-6.094,0.194 -5.949,-0.058 -5.954,-0.478C-5.962,-1.056 -6.325,-1.502 -6.967,-1.683C-7.227,-1.757 -7.495,-1.803 -7.902,-1.892C-7.28,-2.235 -6.793,-2.55 -6.203,-2.67C-6.017,-2.708 -5.939,-2.631 -5.874,-2.474C-5.782,-2.258 -5.674,-2.048 -5.562,-1.84C-5.353,-1.443 -5.039,-1.325 -4.659,-1.58C-4.337,-1.798 -4.1,-1.808 -3.826,-1.493C-3.137,-0.697 -2.153,-0.498 -1.193,-0.286C-0.713,-0.18 -0.349,0.075 0,0.403" style="fill:rgb(96,187,70);"/>
            </g>
            <g transform="matrix(1,0,0,1,519.678,175.911)">
                <path d="M0,9.299C-0.063,8.778 0.026,8.328 0.172,7.9C0.326,7.449 0.121,7.251 -0.259,7.123C-0.276,7.117 -0.294,7.113 -0.312,7.108C-0.648,7.001 -1.194,7.211 -1.308,6.933C-1.481,6.504 -1.452,5.934 -1.365,5.485C-1.248,4.881 -1.303,4.339 -1.437,3.772C-1.514,3.451 -1.488,3.245 -1.056,3.403C-0.753,3.513 -0.396,3.629 -0.157,3.275C0.084,2.917 0.057,2.529 -0.209,2.203C-0.504,1.841 -0.515,1.656 -0.018,1.472C0.461,1.296 0.713,0.874 0.697,0.342C0.688,0.017 0.812,0 1.049,0.152C1.467,0.417 1.844,0.73 2.168,1.105C2.335,1.298 2.431,1.413 2.084,1.57C1.372,1.89 1.375,2.121 1.947,2.664C2.261,2.962 2.678,3.162 2.867,3.582C3,3.875 3.172,4.172 2.614,4.218C2.219,4.252 2.136,4.438 2.446,4.744C2.744,5.037 3.019,5.355 3.307,5.658C3.729,6.101 3.655,6.492 3.227,6.9C2.694,7.404 2.099,7.678 1.381,7.726C1.003,7.752 0.906,8.078 0.738,8.33C0.523,8.652 0.497,9.112 0,9.299" style="fill:rgb(96,187,70);"/>
            </g>
            <g transform="matrix(1,0,0,1,522.212,169.669)">
                <path d="M0,1.384C0.134,1.29 0.257,1.175 0.401,1.105C1.016,0.805 1.184,0.292 1.144,-0.343C1.127,-0.607 0.964,-0.983 1.202,-1.113C1.474,-1.261 1.718,-0.931 1.941,-0.753C2.254,-0.505 2.556,-0.241 2.867,0.01C3.16,0.246 3.45,0.254 3.769,0.027C4.074,-0.192 4.381,-0.363 4.253,-0.841C4.202,-1.032 4.097,-1.304 4.248,-1.463C4.367,-1.588 4.588,-1.695 4.8,-1.646C5.023,-1.595 4.946,-1.383 4.98,-1.237C5.029,-1.025 5.034,-0.799 5.106,-0.596C5.392,0.19 5.499,0.226 6.209,-0.215C6.413,-0.341 6.571,-0.348 6.742,-0.17C7.168,0.274 7.667,0.298 8.248,0.169C9.088,-0.017 9.914,0.094 10.684,0.515C10.831,0.595 11.02,0.711 11.001,0.846C10.973,1.043 10.752,1.083 10.56,1.085C10.323,1.087 10.087,1.085 9.852,1.092C9.744,1.096 9.577,1.08 9.54,1.137C9.252,1.588 8.887,1.709 8.362,1.578C8.188,1.534 8.144,1.8 8.206,2.007C8.397,2.645 8.236,2.817 7.593,2.655C7.353,2.595 7.138,2.498 6.987,2.802C6.85,3.079 6.694,2.97 6.601,2.773C6.283,2.105 5.862,2.142 5.318,2.514C4.896,2.803 4.725,2.434 4.605,2.127C4.277,1.28 4.276,1.246 3.415,1.565C2.841,1.778 2.257,2 1.802,2.449C1.582,2.665 1.285,2.564 1.019,2.586C0.587,2.622 0.656,2.312 0.613,2.053C0.554,1.71 0.394,1.434 0.004,1.375L0,1.384Z" style="fill:rgb(96,187,70);"/>
            </g>
            <g transform="matrix(1,0,0,1,520.817,181.814)">
                <path d="M0,-6.261C0.211,-6.201 0.418,-6.114 0.633,-6.089C1.048,-6.041 1.273,-5.824 1.403,-5.432C1.513,-5.103 1.691,-4.785 1.982,-4.582C2.485,-4.232 3.373,-4.338 3.69,-5.175C3.74,-5.306 3.772,-5.484 3.935,-5.503C4.127,-5.525 4.229,-5.349 4.292,-5.206C4.492,-4.749 4.881,-4.598 5.322,-4.585C5.519,-4.579 5.669,-4.531 5.833,-4.446C6.106,-4.304 6.148,-4.165 5.941,-3.907C5.372,-3.199 5.509,-2.807 6.425,-2.552C6.985,-2.396 7.367,-2.087 7.523,-1.524C7.6,-1.251 7.56,-1.099 7.211,-1.199C6.936,-1.279 6.454,-1.428 6.39,-1.331C5.998,-0.739 5.611,-1.192 5.22,-1.253C4.889,-1.303 4.73,-1.053 4.581,-0.818C4.103,-0.068 3.126,0.015 2.585,-0.698C2.347,-1.013 1.921,-0.947 1.702,-1.253C2.284,-1.555 2.364,-1.909 1.993,-2.531C1.769,-2.91 1.418,-3.173 1.106,-3.474C0.872,-3.7 0.7,-3.909 1.223,-4.052C1.773,-4.202 1.784,-4.452 1.388,-4.903C0.957,-5.393 0.369,-5.722 0.004,-6.276L0,-6.261Z" style="fill:rgb(96,187,70);"/>
            </g>
            <g transform="matrix(2.91002,4.27547,4.27547,-2.91002,468.003,173.257)">
                <path d="M0.007,0.109C0.114,-0.147 0.353,-0.24 0.579,-0.343C0.648,-0.374 0.753,-0.35 0.784,-0.276C0.815,-0.203 0.86,-0.176 0.921,-0.149C0.953,-0.135 0.983,-0.113 1,-0.064C0.883,-0.051 0.782,0.01 0.671,0.037C0.513,0.075 0.371,0.131 0.281,0.28C0.26,0.315 0.245,0.361 0.182,0.392C0.177,0.154 0.325,0.045 0.487,-0.06C0.302,-0.011 0.176,0.1 0.134,0.294C0.129,0.318 0.137,0.36 0.091,0.343C0.076,0.337 0.061,0.323 0.048,0.304C0.011,0.25 -0.012,0.154 0.007,0.109Z" style="fill:url(#_Linear6);fill-rule:nonzero;"/>
            </g>
            <g transform="matrix(4.70609,6.9143,6.9143,-4.70609,502.679,174.083)">
                <path d="M0.341,0.106C0.233,-0.054 0.15,-0.226 0.083,-0.406C0.048,-0.497 0.008,-0.588 0.001,-0.689C0.046,-0.593 0.088,-0.495 0.127,-0.398C0.201,-0.212 0.312,-0.056 0.44,0.095C0.569,0.249 0.718,0.38 0.887,0.481C0.976,0.535 0.985,0.604 1,0.693C0.881,0.607 0.766,0.53 0.656,0.445C0.534,0.351 0.43,0.237 0.343,0.108L0.341,0.106ZM0,-0.691L0.001,-0.693L0.001,-0.689L0,-0.691Z" style="fill:url(#_Linear7);fill-rule:nonzero;"/>
            </g>
            <g transform="matrix(1,0,0,1,511.007,172.111)">
                <path d="M0,-2.487C0.424,-2.26 0.819,-2.049 1.278,-1.802C0.639,-1.587 0.374,-1.168 0.382,-0.558C0.384,-0.362 0.263,-0.263 0.053,-0.295C-0.073,-0.314 -0.211,-0.294 -0.327,-0.337C-0.824,-0.519 -1.286,-0.556 -1.754,-0.217C-2.053,0 -2.425,-0.06 -2.759,-0.184C-3.267,-0.373 -3.782,-0.433 -4.317,-0.344C-4.548,-0.306 -4.664,-0.39 -4.761,-0.627C-5.064,-1.373 -6.047,-1.806 -6.863,-1.593C-7.143,-1.52 -7.418,-1.402 -7.843,-1.6C-6.803,-1.812 -5.989,-2.423 -4.965,-2.253C-4.27,-2.137 -3.834,-1.699 -3.517,-1.129C-3.271,-0.687 -2.921,-0.46 -2.432,-0.409C-2.092,-0.373 -1.838,-0.508 -1.761,-0.832C-1.701,-1.08 -1.611,-1.074 -1.434,-0.979C-1.065,-0.782 -0.699,-0.506 -0.29,-0.895C0.149,-1.312 0.349,-1.779 -0.008,-2.352C-0.021,-2.374 -0.005,-2.413 0,-2.487" style="fill:rgb(64,128,56);"/>
            </g>
            <g transform="matrix(3.0891,4.53858,4.53858,-3.0891,503.285,172.041)">
                <path d="M0.413,0.148C0.324,-0.009 0.278,-0.184 0.198,-0.344C0.137,-0.467 0.043,-0.573 0.003,-0.707C0.076,-0.673 0.105,-0.6 0.142,-0.538C0.369,-0.162 0.622,0.193 0.916,0.519C0.948,0.555 0.988,0.586 1,0.64C0.958,0.645 0.915,0.637 0.889,0.654C0.834,0.692 0.803,0.67 0.763,0.632C0.686,0.56 0.622,0.48 0.565,0.395C0.51,0.315 0.462,0.232 0.413,0.148ZM0.002,-0.71C0.002,-0.709 0.003,-0.708 0.003,-0.707C0.002,-0.707 0.001,-0.708 0,-0.708L0.002,-0.71Z" style="fill:url(#_Linear8);fill-rule:nonzero;"/>
            </g>
            <g transform="matrix(1,0,0,1,522.216,168.869)">
                <path d="M0,2.176C-0.438,2.033 -0.852,2.049 -1.254,2.314C-1.398,2.409 -1.595,2.441 -1.773,2.466C-1.979,2.495 -2.243,2.65 -2.382,2.436C-2.501,2.252 -2.278,2.065 -2.167,1.914C-1.92,1.577 -2.056,1.325 -2.314,1.107C-2.47,0.976 -2.662,0.889 -2.872,0.762C-2.683,0.692 -2.609,0.808 -2.508,0.84C-2.025,0.989 -1.821,0.835 -1.837,0.318C-1.841,0.191 -1.854,0.061 -1.886,-0.061C-1.913,-0.17 -1.975,-0.3 -1.877,-0.367C-1.726,-0.474 -1.663,-0.297 -1.577,-0.219C-1.293,0.043 -1.07,0.338 -0.913,0.705C-0.716,1.164 -0.591,1.694 -0.062,1.936C0.038,1.983 -0.003,2.095 -0.004,2.184L0,2.176Z" style="fill:rgb(96,187,70);"/>
            </g>
            <g transform="matrix(1,0,0,1,509.355,174.604)">
                <path d="M0,-0.771C0.693,-0.431 1.255,-0.631 1.875,-0.943C2.406,-1.21 2.979,-0.892 3.411,-0.493C3.653,-0.269 4.11,-0.067 4.039,0.229C3.988,0.439 3.483,0.228 3.182,0.263C2.314,0.364 1.474,0.2 0.645,-0.026C0.32,-0.115 0.04,-0.28 0,-0.771" style="fill:rgb(64,128,56);"/>
            </g>
            <g transform="matrix(1,0,0,1,512.548,169.769)">
                <path d="M0,0.617C0.865,0.39 0.69,-0.166 0.495,-0.743C0.981,-0.695 1.385,-0.674 1.283,-0.034C1.253,0.159 1.396,0.382 1.46,0.591C1.53,0.822 1.624,1.093 1.37,1.234C1.15,1.355 0.861,1.36 0.637,1.195C0.435,1.046 0.26,0.857 0,0.617" style="fill:rgb(64,128,56);"/>
            </g>
            <g transform="matrix(1,0,0,1,502.453,168.372)">
                <path d="M0,0.576C0.229,0 0.731,0.372 0.975,0.087C0.794,0.492 0.404,0.433 0,0.576" style="fill:white;"/>
            </g>
            <g transform="matrix(0.0490692,0.998795,0.998795,-0.0490692,499.486,173.973)">
                <path d="M0.309,-0.307C0.264,-0.097 0.206,0.114 0.32,0.323L0.309,0.325C0.41,0.113 0.425,-0.095 0.295,-0.302L0.309,-0.307Z" style="fill:white;"/>
            </g>
            <g transform="matrix(1,0,0,1,499.198,174.282)">
                <path d="M0,0C-0.096,0.04 -0.189,0.094 -0.32,0.041C-0.216,-0.094 -0.103,0.022 -0.004,0.014L0,0Z" style="fill:white;"/>
            </g>
            <g transform="matrix(0.264029,0.964515,0.964515,-0.264029,501.241,168.964)">
                <path d="M0.102,-0.062L0.102,0.123L0.102,-0.062Z" style="fill:white;"/>
            </g>
            <g transform="matrix(0.19151,0.981491,0.981491,-0.19151,499.905,174.141)">
                <path d="M0.118,-0.105C0.071,-0.021 0.033,0.064 0.131,0.142L0.118,0.145C0.182,0.06 0.213,-0.024 0.107,-0.102L0.118,-0.105Z" style="fill:white;"/>
            </g>
            <g transform="matrix(0.506663,-0.862144,-0.862144,-0.506663,520.667,175.42)">
                <path d="M-0.119,-0.052C-0.174,0.034 -0.147,0.115 -0.105,0.196L-0.119,0.192C-0.011,0.101 -0.057,0.021 -0.134,-0.057L-0.119,-0.052Z" style="fill:white;"/>
            </g>
            <g transform="matrix(1,0,0,1,505.224,167.832)">
                <path d="M0,0.022L0.021,-0.001L0.031,0.023L0,0.022Z" style="fill:white;"/>
            </g>
            <g transform="matrix(-0.149465,-0.988767,-0.988767,0.149465,520.725,175.45)">
                <path d="M-0.101,-0.082L-0.101,0.092L-0.101,-0.082Z" style="fill:white;"/>
            </g>
            <g transform="matrix(-0.229039,0.973417,0.973417,0.229039,498.584,174.316)">
                <ellipse cx="0.03" cy="-0.001" rx="0.01" ry="0.035" style="fill:white;"/>
            </g>
            <g transform="matrix(0.255154,-0.9669,-0.9669,-0.255154,520.421,175.375)">
                <ellipse cx="-0.041" cy="0.004" rx="0.012" ry="0.038" style="fill:white;"/>
            </g>
            <g transform="matrix(1,0,0,1,508.036,157.628)">
                <path d="M0,-0.018L0.025,0C0.025,0 0.015,-0.018 0.014,-0.018L0,-0.018Z" style="fill:white;"/>
            </g>
            <g transform="matrix(1,0,0,1,497.898,177.323)">
                <path d="M0,0.015C-0.014,0.006 -0.027,-0.003 -0.042,-0.012C-0.028,0 -0.016,0.014 -0.002,0.027L0,0.015Z" style="fill:white;"/>
            </g>
            <g transform="matrix(1,0,0,1,521.526,163.89)">
                <path d="M0,-0.017L0.019,0.013C0.019,0.013 0.003,-0.028 0.003,-0.029C0.004,-0.03 0,-0.017 0,-0.017" style="fill:white;"/>
            </g>
            <g transform="matrix(1,0,0,1,521.442,171.432)">
                <path d="M0,-0.031L0.002,0L0.002,-0.028L0,-0.031Z" style="fill:rgb(35,31,32);"/>
            </g>
            <g transform="matrix(1,0,0,1,514.992,172.001)">
                <path d="M0,-1.22C0.085,-0.915 0.287,-0.539 0.615,-0.517C0.756,-0.83 0.706,-1.219 0.912,-1.487C1.647,-1.275 1.746,-0.35 2.354,0.027C2.948,0.394 3.178,-0.274 3.512,-0.02C3.142,0.945 4.252,0.469 4.628,0.324C5.245,0.088 5.878,0.268 6.491,0.398C6.407,0.477 6.39,0.603 6.294,0.681C6.815,1.082 7.804,1.046 8.455,1.193C8.961,1.306 9.581,1.655 10.088,1.388C9.276,0.717 7.725,0.985 6.792,0.402C7.176,-0.671 5.943,-0.11 5.347,-0.09C4.643,-0.066 3.937,-0.118 4.098,-0.906C4.138,-1.101 4.454,-1.473 4.198,-1.601C3.984,-1.709 3.666,-1.133 3.479,-1.102C3.145,-1.046 2.799,-1.416 2.58,-1.604C2.074,-2.04 1.538,-2.46 1.01,-2.875C0.885,-2.654 1.045,-2.303 0.927,-2.125C0.714,-1.802 0.66,-2.077 0.324,-2.069C-0.464,-2.048 -0.091,-1.624 0.097,-1.078" style="fill:rgb(143,199,62);"/>
            </g>
            <g transform="matrix(1,0,0,1,514.913,184.634)">
                <path d="M0,-8.876C0.386,-8.84 1.456,-8.491 1.452,-8.053C1.449,-7.763 0.905,-7.57 0.933,-7.295C0.964,-6.978 1.628,-6.829 1.594,-6.438C1.563,-6.099 0.992,-5.803 0.757,-5.644C0.435,-5.425 0.234,-5.556 0.421,-5.092C0.571,-4.718 1.229,-4.582 1.246,-4.103C1.279,-3.186 0.1,-3.796 -0.322,-3.453C0.274,-2.553 1.317,-2.284 0.868,-1.079C0.673,-0.555 0.396,0.042 0.151,0.508C0.396,0.226 0.552,-0.168 0.823,-0.427C1.066,-0.659 1.45,-0.772 1.65,-1.05C2.21,-1.831 1.329,-2.465 1.276,-3.229C1.226,-3.956 1.935,-3.751 2.182,-4.344C2.481,-5.061 1.294,-6.001 2.055,-6.462C2.486,-6.724 3.792,-6.055 3.804,-6.553C3.822,-7.272 2.624,-7.328 2.256,-7.515C1.698,-7.796 2.045,-8.209 1.702,-8.718C1.399,-9.167 0.755,-9.384 0.301,-8.942" style="fill:rgb(143,199,62);"/>
            </g>
            <g transform="matrix(1,0,0,1,506.822,163.372)">
                <path d="M0,4.37C0.758,3.831 0.738,2.891 1.095,2.107C1.579,2.215 2.353,3.011 2.674,2.295C3.543,4.128 5.286,0.63 5.822,0C6.012,0.295 5.925,0.73 5.786,1.022C5.967,0.958 6.168,0.958 6.337,1.032C6.302,1.319 5.99,1.671 6.204,1.88C6.41,2.08 7.041,1.816 7.233,1.737C7.936,1.444 8.959,0.668 9.701,0.626C9.652,1.448 8.606,1.854 7.96,2.209C7.19,2.633 6.429,3.15 5.536,3.222C5.554,2.912 5.743,2.287 5.291,2.359C4.951,2.412 4.384,3.435 3.948,3.624C3.303,3.904 3.273,3.416 2.746,3.318C2.051,3.188 2.073,4.002 1.552,4.278C1.532,3.852 1.753,3.072 1.147,3.326C0.658,3.53 0.697,4.248 0.047,4.337" style="fill:rgb(143,199,62);"/>
            </g>
            <g transform="matrix(1,0,0,1,517.755,159.259)">
                <path d="M0,2.845C0.211,3.017 0.479,3.161 0.725,3.194C0.768,3.009 0.823,2.802 0.882,2.613C1.356,2.613 1.477,2.965 1.884,2.762C2.152,2.627 2.433,2.172 2.646,1.957C2.715,2.313 2.521,2.671 2.979,2.742C3.289,2.79 3.785,2.452 4.117,2.401C5.066,2.255 5.808,1.946 6.45,1.22C5.831,1.003 4.535,2.864 3.932,2.111C3.58,1.671 4.77,0.373 4.205,0.051C3.506,-0.349 2.805,1.331 2.531,1.674C1.968,2.381 1.235,2.235 0.555,1.641C0.478,2.029 0.879,2.978 0.046,2.806C0.003,2.886 -0.042,3 -0.045,3.084" style="fill:rgb(196,217,60);"/>
            </g>
            <g transform="matrix(1,0,0,1,525.245,174.088)">
                <path d="M0,-1.895C0.666,-2.07 0.978,-1.769 1.3,-1.186C1.415,-0.978 1.526,-0.349 1.86,-0.379C2.189,-0.41 2.035,-0.945 2.427,-0.777C2.702,-0.66 2.68,-0.119 2.961,0.041C3.236,0.195 3.507,0.048 3.8,0.025C4.406,-0.022 5.1,0.243 5.673,0.131C5.036,-0.054 4.412,-0.41 3.799,-0.67C3.596,-0.755 3.243,-0.789 3.077,-0.935C2.833,-1.15 3.017,-1.35 2.713,-1.466C2.402,-1.585 2.033,-1.22 1.732,-1.286C1.413,-1.357 1.47,-1.475 1.241,-1.7C0.993,-1.943 1.17,-2.009 0.771,-2.088C0.519,-2.138 0.274,-2.032 0.048,-1.927" style="fill:rgb(196,217,60);"/>
            </g>
            <g transform="matrix(1,0,0,1,504.26,160.952)">
                <path d="M0,3.332C-0.421,3.283 -1.207,1.803 -1.406,1.391C-1.662,0.86 -1.772,0.238 -2.359,-0.036C-2.303,0.353 -2.099,0.84 -2.275,1.212C-3.114,1.173 -3.708,0.075 -4.466,-0.084C-3.853,0.548 -3.536,1.167 -4.478,1.322C-5.459,1.483 -7.081,1.466 -7.351,2.72C-6.857,2.93 -6.449,3.013 -5.907,2.915C-5.469,2.835 -5.105,2.77 -4.664,2.766C-4.529,2.764 -4.17,2.882 -4.057,2.769C-3.74,2.453 -4.487,1.972 -4.097,1.693C-3.667,1.386 -2.612,2.362 -2.385,2.579C-2.444,2.276 -2.557,1.979 -2.691,1.706C-2.067,1.406 -1.638,2.599 -1.244,2.915C-0.997,3.113 -0.364,3.416 -0.095,3.396" style="fill:rgb(196,217,60);"/>
            </g>
            <g opacity="0.6">
                <g transform="matrix(1,0,0,1,471.926,168.933)">
                    <path d="M0,6.055C-0.025,6.018 -0.027,5.969 -0.001,5.929C2.788,1.634 10.986,0.06 12.938,0.022C13.194,0.018 13.45,0.01 13.709,0.003C14.897,-0.031 16.125,-0.066 17.544,0.113C17.607,0.121 17.651,0.179 17.644,0.242C17.636,0.305 17.578,0.348 17.516,0.341C16.114,0.164 14.896,0.199 13.716,0.232C13.456,0.24 13.199,0.247 12.942,0.252C12.176,0.267 9.7,0.609 6.943,1.569C4.68,2.358 1.67,3.777 0.191,6.054C0.156,6.107 0.085,6.121 0.032,6.087C0.019,6.078 0.008,6.068 0,6.055" style="fill:white;fill-rule:nonzero;"/>
                </g>
            </g>
            <g opacity="0.6">
                <g transform="matrix(1,0,0,1,471.561,167.952)">
                    <path d="M0,6.498C-0.024,6.462 -0.028,6.414 -0.004,6.374C3.907,-0.067 16.167,0.287 16.291,0.292C16.354,0.294 16.403,0.347 16.401,0.41C16.399,0.474 16.346,0.523 16.283,0.521C16.161,0.516 4.034,0.165 0.192,6.493C0.159,6.547 0.089,6.565 0.035,6.532C0.021,6.523 0.009,6.512 0,6.498" style="fill:white;fill-rule:nonzero;"/>
                </g>
            </g>
            <g opacity="0.6">
                <g transform="matrix(1,0,0,1,471.541,167.829)">
                    <path d="M0,5.573C-0.023,5.54 -0.027,5.496 -0.009,5.457C1.973,1.485 10.212,-0.066 13.314,-0.044C13.378,-0.043 13.429,0.009 13.428,0.072C13.428,0.135 13.376,0.186 13.313,0.186C10.253,0.164 2.133,1.679 0.197,5.56C0.169,5.616 0.1,5.639 0.043,5.611C0.024,5.602 0.011,5.589 0,5.573" style="fill:white;fill-rule:nonzero;"/>
                </g>
            </g>
            <g opacity="0.6">
                <g transform="matrix(1,0,0,1,479.504,170.143)">
                    <path d="M0,1.306C-0.006,1.297 -0.011,1.288 -0.015,1.277C-0.034,1.217 -0.001,1.152 0.059,1.133C3.702,-0.061 17.451,0.232 18.035,0.245C18.099,0.246 18.148,0.299 18.147,0.362C18.146,0.425 18.093,0.475 18.03,0.474C17.888,0.471 3.736,0.169 0.131,1.35C0.081,1.367 0.028,1.347 0,1.306" style="fill:white;fill-rule:nonzero;"/>
                </g>
            </g>
            <g opacity="0.6">
                <g transform="matrix(1,0,0,1,477.266,170.989)">
                    <path d="M0,1.52C-0.004,1.514 -0.009,1.506 -0.012,1.498C-0.035,1.439 -0.007,1.373 0.053,1.349C2.791,0.255 9.391,0.152 14.209,0.077C16.102,0.047 17.735,0.022 18.782,-0.057C18.846,-0.062 18.9,-0.014 18.905,0.049C18.91,0.112 18.862,0.167 18.8,0.172C17.746,0.251 16.108,0.276 14.213,0.306C9.412,0.381 2.837,0.484 0.138,1.562C0.087,1.582 0.029,1.564 0,1.52" style="fill:white;fill-rule:nonzero;"/>
                </g>
            </g>
            <g opacity="0.6">
                <g transform="matrix(1,0,0,1,479.316,171.727)">
                    <path d="M0,1.144C-0.008,1.133 -0.014,1.119 -0.018,1.105C-0.031,1.043 0.007,0.982 0.069,0.968C1.465,0.65 5.866,0.422 9.75,0.221C11.582,0.126 13.313,0.037 14.557,-0.053C14.619,-0.058 14.675,-0.01 14.679,0.053C14.684,0.116 14.636,0.171 14.572,0.175C13.327,0.266 11.595,0.355 9.762,0.45C5.888,0.651 1.496,0.878 0.12,1.191C0.072,1.202 0.025,1.182 0,1.144" style="fill:white;fill-rule:nonzero;"/>
                </g>
            </g>
            <g opacity="0.6">
                <g transform="matrix(1,0,0,1,474.851,172.666)">
                    <path d="M0,2.273C-0.007,2.262 -0.013,2.251 -0.016,2.237C-0.031,2.176 0.005,2.113 0.066,2.098C2.879,1.377 22.124,0.004 22.941,-0.054C23.005,-0.059 23.06,-0.011 23.064,0.052C23.068,0.115 23.021,0.17 22.958,0.174C22.758,0.189 2.915,1.604 0.124,2.32C0.076,2.332 0.026,2.312 0,2.273" style="fill:white;fill-rule:nonzero;"/>
                </g>
            </g>
            <g opacity="0.6">
                <g transform="matrix(1,0,0,1,475.146,173.373)">
                    <path d="M0,2.474C-0.006,2.466 -0.011,2.456 -0.014,2.445C-0.033,2.385 0,2.32 0.06,2.301C2.883,1.389 20.129,0.003 20.861,-0.056C20.925,-0.061 20.979,-0.014 20.984,0.049C20.99,0.113 20.942,0.168 20.88,0.173C20.7,0.187 2.928,1.616 0.13,2.518C0.081,2.535 0.028,2.516 0,2.474" style="fill:white;fill-rule:nonzero;"/>
                </g>
            </g>
            <g opacity="0.6">
                <g transform="matrix(1,0,0,1,477.032,173.811)">
                    <path d="M0,2.972C-0.006,2.964 -0.01,2.956 -0.013,2.947C-0.035,2.887 -0.004,2.821 0.056,2.8C2.107,2.061 11.632,0.716 17.126,-0.021L17.373,-0.054C17.436,-0.062 17.493,-0.018 17.502,0.045C17.51,0.107 17.466,0.165 17.403,0.174L17.156,0.207C11.671,0.942 2.165,2.285 0.134,3.015C0.083,3.034 0.028,3.014 0,2.972" style="fill:white;fill-rule:nonzero;"/>
                </g>
            </g>
            <g opacity="0.6">
                <g transform="matrix(1,0,0,1,472.897,178.219)">
                    <path d="M0,-1.534C-0.029,-1.576 -0.027,-1.633 0.008,-1.674C0.049,-1.721 0.121,-1.727 0.17,-1.685C2.395,0.24 6.646,1.444 11.266,1.455C14.194,1.463 17.745,-0.141 20.878,-1.556C22.365,-2.228 23.771,-2.863 24.883,-3.207C24.943,-3.226 25.008,-3.192 25.025,-3.132C25.045,-3.071 25.011,-3.007 24.95,-2.988C23.853,-2.649 22.453,-2.016 20.973,-1.347C17.818,0.077 14.243,1.692 11.266,1.685C6.594,1.673 2.284,0.448 0.02,-1.512C0.012,-1.518 0.005,-1.526 0,-1.534" style="fill:white;fill-rule:nonzero;"/>
                </g>
            </g>
            <g opacity="0.6">
                <g transform="matrix(1,0,0,1,472.704,178.106)">
                    <path d="M0,-0.55C-0.029,-0.592 -0.026,-0.65 0.009,-0.69C0.051,-0.738 0.123,-0.742 0.17,-0.701C3.775,2.47 8.215,2.273 12.133,2.1C12.561,2.081 12.983,2.062 13.399,2.048C15.267,1.984 17.11,1.078 19.245,0.03C22.026,-1.336 25.178,-2.884 29.529,-3.248C29.593,-3.253 29.647,-3.206 29.653,-3.143C29.659,-3.08 29.612,-3.024 29.549,-3.019C25.24,-2.659 22.109,-1.121 19.346,0.236C17.187,1.296 15.323,2.211 13.407,2.277C12.992,2.291 12.569,2.31 12.143,2.329C8.183,2.504 3.693,2.703 0.019,-0.529C0.012,-0.535 0.005,-0.542 0,-0.55" style="fill:white;fill-rule:nonzero;"/>
                </g>
            </g>
            <g opacity="0.6">
                <g transform="matrix(1,0,0,1,480.611,174.987)">
                    <path d="M0,3.66C-0.014,3.639 -0.021,3.613 -0.02,3.585C-0.014,3.522 0.042,3.476 0.105,3.481C0.961,3.56 3.185,3.7 5.362,3.305C6.694,3.063 7.917,2.531 9.77,1.725C10.982,1.197 12.491,0.541 14.487,-0.233C14.546,-0.256 14.612,-0.226 14.636,-0.167C14.658,-0.108 14.629,-0.042 14.57,-0.019C12.579,0.753 11.072,1.409 9.861,1.935C7.994,2.747 6.762,3.285 5.403,3.53C3.277,3.916 1.158,3.808 0.085,3.709C0.049,3.706 0.019,3.687 0,3.66" style="fill:white;fill-rule:nonzero;"/>
                </g>
            </g>
            <g opacity="0.6">
                <g transform="matrix(1,0,0,1,478.409,175.694)">
                    <path d="M0,2.094C-0.018,2.069 -0.024,2.037 -0.018,2.005C-0.003,1.943 0.059,1.904 0.12,1.918C3.932,2.778 10.07,1.623 15.047,-0.888C15.104,-0.917 15.173,-0.892 15.201,-0.837C15.229,-0.781 15.207,-0.712 15.15,-0.683C10.13,1.85 3.929,3.011 0.069,2.141C0.04,2.135 0.016,2.117 0,2.094" style="fill:white;fill-rule:nonzero;"/>
                </g>
            </g>
        </g>
    </g>
    <defs>
        <linearGradient id="_Linear1" x1="0" y1="0" x2="1" y2="0" gradientUnits="userSpaceOnUse" gradientTransform="matrix(1,0,0,1,0,-0.000888559)"><stop offset="0" style="stop-color:rgb(219,231,151);stop-opacity:1"/><stop offset="0.01" style="stop-color:rgb(219,231,151);stop-opacity:1"/><stop offset="1" style="stop-color:rgb(96,158,64);stop-opacity:1"/></linearGradient>
        <linearGradient id="_Linear2" x1="0" y1="0" x2="1" y2="0" gradientUnits="userSpaceOnUse" gradientTransform="matrix(1,0,0,1,0,0.00436336)"><stop offset="0" style="stop-color:rgb(254,228,211);stop-opacity:1"/><stop offset="0.02" style="stop-color:rgb(254,228,211);stop-opacity:1"/><stop offset="0.22" style="stop-color:rgb(219,231,151);stop-opacity:1"/><stop offset="1" style="stop-color:rgb(111,157,61);stop-opacity:1"/></linearGradient>
        <linearGradient id="_Linear3" x1="0" y1="0" x2="1" y2="0" gradientUnits="userSpaceOnUse" gradientTransform="matrix(1,0,0,1,0,-0.000917751)"><stop offset="0" style="stop-color:rgb(254,228,211);stop-opacity:1"/><stop offset="0.02" style="stop-color:rgb(254,228,211);stop-opacity:1"/><stop offset="0.22" style="stop-color:rgb(219,231,151);stop-opacity:1"/><stop offset="1" style="stop-color:rgb(111,157,61);stop-opacity:1"/></linearGradient>
        <linearGradient id="_Linear4" x1="0" y1="0" x2="1" y2="0" gradientUnits="userSpaceOnUse" gradientTransform="matrix(1,-5.55112e-17,5.55112e-17,1,0,5.38223e-05)"><stop offset="0" style="stop-color:rgb(254,228,211);stop-opacity:1"/><stop offset="0.02" style="stop-color:rgb(254,228,211);stop-opacity:1"/><stop offset="0.22" style="stop-color:rgb(219,231,151);stop-opacity:1"/><stop offset="1" style="stop-color:rgb(111,157,61);stop-opacity:1"/></linearGradient>
        <linearGradient id="_Linear5" x1="0" y1="0" x2="1" y2="0" gradientUnits="userSpaceOnUse" gradientTransform="matrix(1,-5.55112e-17,5.55112e-17,1,0,-0.000195462)"><stop offset="0" style="stop-color:rgb(219,231,151);stop-opacity:1"/><stop offset="0.01" style="stop-color:rgb(219,231,151);stop-opacity:1"/><stop offset="1" style="stop-color:rgb(96,158,64);stop-opacity:1"/></linearGradient>
        <linearGradient id="_Linear6" x1="0" y1="0" x2="1" y2="0" gradientUnits="userSpaceOnUse" gradientTransform="matrix(1,0,0,1,0,0.0177442)"><stop offset="0" style="stop-color:rgb(254,228,211);stop-opacity:1"/><stop offset="0.02" style="stop-color:rgb(254,228,211);stop-opacity:1"/><stop offset="0.22" style="stop-color:rgb(219,231,151);stop-opacity:1"/><stop offset="1" style="stop-color:rgb(111,157,61);stop-opacity:1"/></linearGradient>
        <linearGradient id="_Linear7" x1="0" y1="0" x2="1" y2="0" gradientUnits="userSpaceOnUse" gradientTransform="matrix(1,0,0,1,0,6.97096e-05)"><stop offset="0" style="stop-color:rgb(219,231,151);stop-opacity:1"/><stop offset="0.01" style="stop-color:rgb(219,231,151);stop-opacity:1"/><stop offset="1" style="stop-color:rgb(96,158,64);stop-opacity:1"/></linearGradient>
        <linearGradient id="_Linear8" x1="0" y1="0" x2="1" y2="0" gradientUnits="userSpaceOnUse" gradientTransform="matrix(1,5.55112e-17,-5.55112e-17,1,0,-0.0181191)"><stop offset="0" style="stop-color:rgb(254,228,211);stop-opacity:1"/><stop offset="0.02" style="stop-color:rgb(254,228,211);stop-opacity:1"/><stop offset="0.22" style="stop-color:rgb(219,231,151);stop-opacity:1"/><stop offset="1" style="stop-color:rgb(111,157,61);stop-opacity:1"/></linearGradient>
    </defs>
</svg>
