<?xml version="1.0" encoding="UTF-8" standalone="no"?>
<!DOCTYPE svg PUBLIC "-//W3C//DTD SVG 1.1//EN" "http://www.w3.org/Graphics/SVG/1.1/DTD/svg11.dtd">
<svg width="100%" height="100%" viewBox="0 0 29 46" version="1.1" xmlns="http://www.w3.org/2000/svg" xmlns:xlink="http://www.w3.org/1999/xlink" xml:space="preserve" xmlns:serif="http://www.serif.com/" style="fill-rule:evenodd;clip-rule:evenodd;stroke-linejoin:round;stroke-miterlimit:2;">
    <g transform="matrix(1,0,0,1,-337,-311)">
        <g transform="matrix(1,0,0,1,-151.183,1.89485)">
            <g transform="matrix(1,0,0,1,504.596,353.227)">
                <path d="M0,-42.211C-1.547,-43.381 -3.257,-43.376 -4.334,-42.241C-3.313,-41.63 -2.212,-41.635 -1.128,-41.69C-0.771,-41.708 -0.43,-42.003 0,-42.211M-5.011,-37.633C-5.044,-37.553 -5.076,-37.473 -5.108,-37.393C-4.904,-37.273 -4.713,-37.083 -4.494,-37.045C-3.693,-36.905 -2.881,-36.719 -2.077,-36.733C-1.147,-36.749 -0.201,-36.881 0.7,-37.111C1.35,-37.277 1.351,-37.502 0.927,-38.341C-0.937,-37.307 -2.954,-37.288 -5.011,-37.633M-5.051,-41.298C-5.447,-39.393 -4.861,-38.524 -3.065,-38.548C-2.14,-38.56 -1.187,-38.777 -0.303,-39.071C0.564,-39.36 0.773,-39.992 0.564,-41.185C-1.316,-40.473 -3.196,-40.69 -5.051,-41.298M10.65,-19.517C9.938,-19.23 9.478,-18.956 8.98,-18.857C5.604,-18.188 2.259,-17.337 -1.205,-17.172C-2.484,-17.111 -2.94,-16.634 -2.87,-15.388C-2.737,-13.068 -2.528,-10.753 -2.296,-8.44C-2.208,-7.578 -1.889,-7.3 -0.973,-7.413C0.344,-7.574 1.665,-7.811 2.939,-8.173C5.346,-8.856 7.601,-9.916 9.802,-11.104C10.262,-11.353 10.459,-11.67 10.49,-12.092C10.628,-13.971 10.744,-15.852 10.824,-17.734C10.847,-18.275 10.723,-18.823 10.65,-19.517M-6.097,-36.764C-9.682,-35.439 -11.706,-32.507 -13.718,-29.582C-15.275,-27.317 -15.3,-24.682 -15.213,-22.101C-15.141,-19.978 -15.034,-17.878 -15.492,-15.787C-15.556,-15.497 -15.548,-15.185 -15.536,-14.885C-15.474,-13.29 -15.416,-11.695 -15.319,-10.103C-15.28,-9.461 -15.193,-8.815 -15.048,-8.19C-14.46,-5.669 -12.47,-4.189 -10.762,-2.504C-10.645,-2.388 -10.457,-2.345 -10.308,-2.258C-9.05,-1.526 -7.796,-0.789 -6.537,-0.059C-6.277,0.091 -6.016,0.303 -5.734,0.342C-4.373,0.531 -3.011,0.816 -1.635,0.379C-0.28,-0.052 1.098,-0.412 2.449,-0.852C4.002,-1.358 5.581,-1.822 7.068,-2.485C8.191,-2.986 9.268,-3.67 9.688,-5.001C10.157,-6.485 10.516,-7.976 10.412,-9.709C9.92,-9.602 9.46,-9.553 9.035,-9.401C7.33,-8.794 5.613,-8.208 3.942,-7.512C1.963,-6.688 -0.137,-6.442 -2.212,-6.068C-2.565,-6.005 -2.948,-6.107 -3.328,-6.133C-3.374,-6.429 -3.449,-6.605 -3.418,-6.759C-2.998,-8.793 -3.435,-10.794 -3.633,-12.804C-3.768,-14.174 -3.947,-15.54 -4.102,-16.908C-4.171,-17.526 -3.943,-17.898 -3.423,-17.961C-2.319,-18.094 -1.213,-18.21 -0.106,-18.316C0.617,-18.385 1.358,-18.351 2.067,-18.49C4.561,-18.978 7.043,-19.516 9.526,-20.046C9.881,-20.123 10.222,-20.264 10.486,-20.348C10.343,-22.187 10.279,-23.863 10.067,-25.52C9.696,-28.432 8.63,-31.003 6.18,-32.834C5.771,-33.14 5.433,-33.547 5.092,-33.935C4.113,-35.049 2.965,-35.936 1.66,-36.588C-0.651,-35.533 -4.396,-35.866 -6.097,-36.764M-5.988,-38.439C-6.498,-40.044 -6.198,-41.492 -6.288,-42.931C-4.607,-43.939 -2.906,-44.274 -1.035,-43.829C1.091,-43.322 2.041,-42.128 1.803,-39.924C1.674,-38.737 2.129,-37.866 3.054,-37.191C5.12,-35.685 6.842,-33.811 8.563,-31.947C9.923,-30.477 10.62,-28.628 10.812,-26.675C11.118,-23.548 11.592,-20.427 11.455,-17.266C11.429,-16.667 11.527,-16.063 11.565,-15.461C11.585,-15.159 11.628,-14.855 11.61,-14.554C11.463,-11.971 11.421,-9.375 11.12,-6.81C10.726,-3.449 9.383,-2.115 6.354,-1.069C4.558,-0.449 2.765,0.195 0.935,0.695C-1.088,1.246 -3.101,2.063 -5.275,1.484C-5.605,1.395 -5.968,1.368 -6.261,1.209C-7.701,0.432 -9.203,-0.267 -10.531,-1.208C-12.285,-2.451 -13.935,-3.879 -15.103,-5.714C-15.598,-6.493 -15.911,-7.452 -16.062,-8.369C-16.242,-9.46 -16.16,-10.594 -16.187,-11.709C-16.19,-11.838 -16.141,-11.974 -16.166,-12.096C-16.606,-14.167 -16.118,-16.227 -16.088,-18.292C-16.074,-19.237 -15.806,-20.203 -15.931,-21.122C-16.155,-22.77 -15.898,-24.39 -15.912,-26.02C-15.927,-27.584 -15.343,-28.919 -14.521,-30.119C-12.539,-33.016 -10.394,-35.782 -7.199,-37.498C-6.757,-37.735 -6.393,-38.119 -5.988,-38.439" style="fill:rgb(35,31,32);fill-rule:nonzero;"/>
            </g>
            <g transform="matrix(1,0,0,1,498.711,345.536)">
                <path d="M0,-20.566C0.347,-21.58 0.598,-22.341 0.867,-23.097C1.142,-23.867 1.475,-24.618 1.706,-25.401C1.92,-26.125 2.549,-26.753 2.285,-27.893C0.916,-26.183 0.696,-24.249 -0.016,-22.545C-0.213,-22.075 -0.642,-21.478 0,-20.566M13.678,-19.755C13.533,-20.19 13.414,-21.1 12.96,-21.788C12.132,-23.039 11.155,-24.206 10.134,-25.308C9.764,-25.708 9.107,-25.945 8.545,-26.043C7.422,-26.24 6.865,-25.545 7.11,-24.416C7.22,-23.912 7.391,-23.399 7.375,-22.895C7.319,-21.063 7.952,-19.42 8.658,-17.788C8.928,-17.166 9.345,-16.723 10.039,-16.537C11.858,-16.05 13.664,-17.428 13.678,-19.755M-7.549,-20.247C-7.237,-20.289 -6.966,-20.312 -6.699,-20.364C-6.412,-20.421 -6.126,-20.58 -5.846,-20.567C-4.287,-20.492 -2.176,-18.636 -1.956,-17.052C-1.707,-15.262 -1.531,-13.459 -1.42,-11.655C-1.225,-8.518 -1.097,-5.376 -0.953,-2.236C-0.879,-0.601 -0.881,1.039 -0.749,2.669C-0.683,3.486 -0.823,4.355 -0.361,5.163C-0.115,4.953 0.08,4.726 0.092,4.49C0.108,4.154 -0.066,3.811 -0.062,3.473C-0.023,-0.241 -0.292,-3.937 -0.583,-7.636C-0.783,-10.172 -0.751,-12.726 -0.897,-15.268C-0.951,-16.204 -1.118,-17.159 -1.407,-18.05C-2.05,-20.031 -3.644,-21.063 -5.505,-21.657C-6.574,-21.998 -7.318,-21.43 -7.549,-20.247M-0.211,-29.073C1.489,-28.175 5.234,-27.842 7.546,-28.897C8.851,-28.245 9.999,-27.358 10.978,-26.244C11.318,-25.856 11.657,-25.449 12.065,-25.143C14.516,-23.312 15.582,-20.741 15.953,-17.829C16.165,-16.172 16.229,-14.496 16.372,-12.657C16.107,-12.573 15.767,-12.432 15.412,-12.356C12.929,-11.825 10.446,-11.287 7.953,-10.799C7.244,-10.66 6.503,-10.694 5.779,-10.625C4.673,-10.519 3.566,-10.403 2.463,-10.27C1.942,-10.207 1.715,-9.835 1.784,-9.217C1.938,-7.849 2.118,-6.483 2.253,-5.113C2.451,-3.104 2.888,-1.102 2.468,0.932C2.437,1.086 2.512,1.262 2.558,1.558C2.938,1.584 3.32,1.686 3.674,1.622C5.749,1.249 7.849,1.003 9.828,0.179C11.499,-0.517 13.216,-1.103 14.921,-1.711C15.346,-1.862 15.806,-1.911 16.298,-2.018C16.401,-0.285 16.043,1.206 15.574,2.69C15.153,4.021 14.077,4.705 12.954,5.205C11.467,5.869 9.888,6.333 8.335,6.839C6.983,7.279 5.605,7.639 4.251,8.07C2.875,8.507 1.513,8.222 0.151,8.033C-0.13,7.994 -0.392,7.782 -0.651,7.632C-1.91,6.902 -3.164,6.165 -4.422,5.433C-4.571,5.346 -4.759,5.303 -4.876,5.187C-6.584,3.502 -8.574,2.022 -9.162,-0.499C-9.308,-1.124 -9.395,-1.771 -9.434,-2.412C-9.53,-4.004 -9.588,-5.599 -9.65,-7.194C-9.662,-7.494 -9.67,-7.806 -9.606,-8.096C-9.148,-10.187 -9.255,-12.287 -9.327,-14.41C-9.414,-16.991 -9.39,-19.627 -7.832,-21.891C-5.82,-24.816 -3.796,-27.748 -0.211,-29.073" style="fill:white;fill-rule:nonzero;"/>
            </g>
            <g transform="matrix(1,0,0,1,515.247,345.927)">
                <path d="M0,-12.217C0.072,-11.523 0.196,-10.975 0.174,-10.434C0.094,-8.552 -0.022,-6.671 -0.16,-4.792C-0.191,-4.37 -0.389,-4.052 -0.849,-3.804C-3.05,-2.616 -5.305,-1.555 -7.711,-0.873C-8.985,-0.511 -10.307,-0.274 -11.623,-0.113C-12.539,0 -12.858,-0.278 -12.946,-1.14C-13.179,-3.452 -13.388,-5.768 -13.521,-8.088C-13.591,-9.334 -13.135,-9.811 -11.855,-9.872C-8.392,-10.037 -5.046,-10.887 -1.67,-11.557C-1.173,-11.656 -0.712,-11.93 0,-12.217" style="fill:rgb(237,28,36);fill-rule:nonzero;"/>
            </g>
            <g transform="matrix(-0.424649,0.905358,0.905358,0.424649,504.668,311.447)">
                <path d="M2.611,-4.433C2.374,-2.496 1.773,-0.702 0.329,0.698C1.321,1.395 1.981,1.473 2.611,0.811C3.253,0.135 3.853,-0.635 4.258,-1.468C5.042,-3.084 4.505,-3.982 2.611,-4.433" style="fill:rgb(0,179,240);fill-rule:nonzero;"/>
            </g>
            <g transform="matrix(1,0,0,1,499.586,315.8)">
                <path d="M0,-0.206C2.057,0.139 4.073,0.12 5.937,-0.914C6.361,-0.075 6.36,0.15 5.711,0.316C4.81,0.546 3.863,0.678 2.934,0.694C2.13,0.708 1.317,0.522 0.517,0.382C0.298,0.344 0.106,0.154 -0.098,0.034C-0.065,-0.046 -0.033,-0.126 0,-0.206" style="fill:white;fill-rule:nonzero;"/>
            </g>
            <g transform="matrix(1,0,0,1,504.596,310.427)">
                <path d="M0,0.589C-0.43,0.797 -0.771,1.092 -1.128,1.11C-2.212,1.165 -3.313,1.17 -4.334,0.559C-3.257,-0.576 -1.547,-0.581 0,0.589" style="fill:rgb(47,197,244);fill-rule:nonzero;"/>
            </g>
            <g transform="matrix(1,0,0,1,491.162,348.949)">
                <path d="M0,-23.66C0.23,-24.843 0.975,-25.411 2.044,-25.07C3.905,-24.475 5.499,-23.444 6.142,-21.463C6.431,-20.572 6.598,-19.617 6.651,-18.681C6.798,-16.139 6.766,-13.585 6.966,-11.049C7.257,-7.349 7.525,-3.654 7.486,0.06C7.482,0.399 7.657,0.741 7.641,1.077C7.629,1.313 7.434,1.54 7.187,1.751C6.726,0.943 6.866,0.073 6.8,-0.743C6.668,-2.373 6.67,-4.014 6.596,-5.649C6.452,-8.789 6.324,-11.931 6.129,-15.068C6.018,-16.871 5.842,-18.675 5.593,-20.465C5.373,-22.049 3.262,-23.905 1.703,-23.98C1.423,-23.993 1.137,-23.834 0.85,-23.777C0.583,-23.724 0.312,-23.702 0,-23.66" style="fill:rgb(35,31,32);fill-rule:nonzero;"/>
            </g>
            <g transform="matrix(1,0,0,1,507.123,328.008)">
                <path d="M0,-7.234C-0.076,-7.134 -0.163,-7.071 -0.172,-6.998C-0.456,-4.793 -0.044,-2.706 0.951,-0.734C1.076,-0.488 1.339,-0.261 1.593,-0.138C2.797,0.447 4.199,-0.451 4.22,-1.81C4.236,-2.891 3.846,-3.83 3.146,-4.644C2.67,-5.199 2.2,-5.76 1.698,-6.292C1.232,-6.783 0.788,-7.35 0,-7.234M5.266,-2.227C5.252,0.1 3.446,1.478 1.627,0.992C0.933,0.806 0.516,0.362 0.246,-0.26C-0.46,-1.891 -1.093,-3.535 -1.037,-5.367C-1.021,-5.871 -1.192,-6.383 -1.302,-6.887C-1.547,-8.016 -0.99,-8.712 0.133,-8.515C0.695,-8.417 1.352,-8.18 1.722,-7.78C2.743,-6.677 3.72,-5.511 4.548,-4.259C5.002,-3.572 5.121,-2.662 5.266,-2.227" style="fill:rgb(35,31,32);fill-rule:nonzero;"/>
            </g>
            <g transform="matrix(1,0,0,1,498.711,317.643)">
                <path d="M0,7.327C-0.642,6.415 -0.213,5.818 -0.016,5.348C0.696,3.644 0.916,1.71 2.285,0C2.549,1.14 1.92,1.768 1.706,2.492C1.475,3.275 1.142,4.026 0.867,4.796C0.598,5.552 0.347,6.313 0,7.327" style="fill:rgb(35,31,32);fill-rule:nonzero;"/>
            </g>
        </g>
    </g>
</svg>
