<?xml version="1.0" encoding="UTF-8" standalone="no"?>
<!DOCTYPE svg PUBLIC "-//W3C//DTD SVG 1.1//EN" "http://www.w3.org/Graphics/SVG/1.1/DTD/svg11.dtd">
<svg width="100%" height="100%" viewBox="0 0 37 32" version="1.1" xmlns="http://www.w3.org/2000/svg" xmlns:xlink="http://www.w3.org/1999/xlink" xml:space="preserve" xmlns:serif="http://www.serif.com/" style="fill-rule:evenodd;clip-rule:evenodd;stroke-linejoin:round;stroke-miterlimit:2;">
    <g transform="matrix(1,0,0,1,-75.082,-155.242)">
        <g>
            <g transform="matrix(1,0,0,1,103.377,177.505)">
                <path d="M0,-20.677C-0.437,-19.384 -2.326,-19.517 -3.395,-19.144C-2.439,-18.761 -1.478,-18.132 -1.861,-16.735C-1.16,-16.698 -1.108,-17.35 -0.547,-17.392C0.231,-17.449 0.341,-16.741 1.095,-16.515C1.146,-17.743 2.25,-17.915 2.738,-18.706C1.947,-19.375 0.156,-19.045 0.329,-20.677L0,-20.677ZM-2.847,1.882C0.595,-6.966 -4.778,-16.238 -13.25,-17.063C-10.472,-23.018 1.167,-22.652 4.928,-17.83C5.913,-16.566 7.424,-13.409 7.775,-11.588C8.98,-5.331 5.416,-1.563 1.643,1.225C0.28,1.549 -1.048,2.341 -2.847,1.882" style="fill:rgb(247,147,33);"/>
            </g>
            <g transform="matrix(1,0,0,1,103.487,158.781)">
                <path d="M0,0.127C-0.116,0.552 -0.953,0.343 -0.985,0.018C-0.851,-0.425 -0.086,-0.144 0,0.127" style="fill:rgb(180,133,38);"/>
            </g>
            <g transform="matrix(-1,0,0,1,104.253,160.075)">
                <path d="M-0.001,-1.495C-0.219,-1.348 -0.522,-1.287 -0.767,-1.167C-0.668,-0.645 -0.114,-0.579 -0.001,-0.072C0.4,0 0.419,-0.309 0.766,-0.29C0.591,-0.773 -0.046,-0.792 -0.001,-1.495" style="fill:rgb(0,172,77);"/>
            </g>
            <g transform="matrix(1,0,0,1,92.5358,169.39)">
                <path d="M0,2.988C-0.549,3.167 -1.109,3.735 -1.423,4.302C-0.323,5.903 0.457,7.824 1.643,9.34C1.848,9.548 1.655,9.614 1.643,9.887C2.085,10.065 2.264,10.507 2.628,10.763C3.136,10.565 3.314,10.588 3.942,10.654C5.591,9.249 7.199,6.507 6.352,3.645C4.627,3.51 2.102,2.302 0,2.988M4.271,-3.364C3.785,-3.972 2.611,-4.899 2.081,-4.24C0.843,-2.7 -1.018,-0.106 -1.533,2.112C0.677,1.478 3.318,1.319 6.023,1.455C5.727,-0.228 5.209,-2.187 4.271,-3.364M-0.109,-5.882C-1.15,-7.43 -5.135,-8.432 -6.461,-6.429C-5.257,-3.947 -3.603,-1.914 -2.3,0.469C-2.626,-1.476 0.898,-4.383 -0.109,-5.882M-1.752,1.126C-1.955,0.791 -1.916,1.609 -2.3,1.455C-3.031,1.205 -2.936,0.491 -3.176,-0.078C-4.165,-2.424 -6.025,-4.473 -7.228,-6.649C-6.262,-7.206 -5.295,-8.188 -3.614,-8.072C-1.812,-7.948 0.897,-6.645 0.657,-4.897C0.603,-4.505 0.205,-4.365 0,-4.02C-0.766,-2.728 -1.576,-0.894 -1.861,0.907C-0.429,-1.018 0.691,-3.257 2.081,-5.225C5.292,-4.563 6.203,-1.03 6.571,2.112C6.383,2.107 6.287,2.193 6.242,2.331C4.978,1.453 3.244,1.926 1.862,2.221C3.958,2.555 5.751,2.615 7.118,3.755C7.174,7.032 6.031,10.034 3.833,11.42C3.351,11.153 3.189,11.376 2.519,11.42C1.752,11.055 1.269,10.407 1.095,9.449C0.414,8.557 -0.493,6.908 -1.205,5.507C-1.445,5.032 -1.876,4.337 -1.861,4.083C-1.791,2.871 0.053,2.407 1.752,2.331C0.386,1.941 -1.034,2.427 -1.642,2.879C-1.994,2.901 -1.821,2.4 -2.19,2.44C-2.191,1.855 -1.971,1.492 -1.752,1.126" style="fill:rgb(35,31,32);"/>
            </g>
            <g transform="matrix(1,0,0,1,90.236,160.958)">
                <path d="M0,8.902C-1.303,6.518 -2.958,4.486 -4.161,2.003C-2.835,0 1.15,1.002 2.19,2.55C3.198,4.05 -0.327,6.957 0,8.902" style="fill:rgb(252,178,21);"/>
            </g>
            <g transform="matrix(1,0,0,1,84.1037,167.67)">
                <path d="M0,0.438L0,1.313C0.756,1.988 1.791,2.945 3.066,2.737C3.389,1.187 1.429,-0.459 0,0.438M4.928,4.271C1.867,3.632 -3.769,3.705 -3.504,0C-3.372,-1.854 -1.447,-2.687 -0.329,-3.833C2.208,-1.916 3.714,1.031 4.928,4.271" style="fill:rgb(252,178,21);"/>
            </g>
            <g transform="matrix(0.822192,-0.56921,-0.56921,-0.822192,99.5083,168.188)">
                <path d="M-2.293,-1.644C-4.44,0.008 -6.702,1.38 -8.88,2.117C-7.194,3.647 -4.187,4.721 -2.293,5.281C-1.482,5.522 -1.044,4.092 -0.991,3.315C-0.889,1.813 -1.579,-0.092 -2.293,-1.644" style="fill:rgb(252,178,21);"/>
            </g>
            <g transform="matrix(1,0,0,1,84.5416,169.171)">
                <path d="M0,-0.516C0.465,0.151 1.071,0.677 2.19,0.689C2.073,-0.189 0.725,-1.307 0,-0.516M2.628,1.236C1.353,1.444 0.318,0.487 -0.438,-0.187L-0.438,-1.063C0.991,-1.96 2.951,-0.314 2.628,1.236" style="fill:rgb(35,31,32);"/>
            </g>
            <g transform="matrix(1,0,0,1,86.7316,167.864)">
                <path d="M0,1.996C-1.119,1.984 -1.725,1.458 -2.19,0.791C-1.465,0 -0.117,1.118 0,1.996" style="fill:white;"/>
            </g>
            <g transform="matrix(-0.707107,-0.707107,-0.707107,0.707107,79.595,173.638)">
                <path d="M-6.092,-6.789C-6.606,-5.111 -7.069,-2.779 -6.865,-1.059C-6.797,-0.478 -6.537,0.549 -6.092,0.955C-4.652,2.262 -0.947,0.658 0.181,-1.601C-1.264,-3.713 -3.966,-5.169 -6.092,-6.789" style="fill:rgb(252,178,21);"/>
            </g>
            <g transform="matrix(1,0,0,1,95.6022,174.102)">
                <path d="M0,3.642C0.739,1.806 -1.485,1.24 -2.519,0.466C-1.965,1.761 -1.825,3.975 0,3.642M3.285,-1.067C4.133,1.795 2.524,4.538 0.876,5.942C0.248,5.876 0.069,5.853 -0.438,6.052C-0.802,5.795 -0.981,5.353 -1.424,5.175C-1.412,4.903 -1.218,4.836 -1.424,4.628C-2.61,3.113 -3.39,1.191 -4.49,-0.41C-4.175,-0.977 -3.615,-1.545 -3.066,-1.724C-0.964,-2.41 1.561,-1.201 3.285,-1.067" style="fill:rgb(252,178,21);"/>
            </g>
            <g transform="matrix(1,0,0,1,88.3747,181.18)">
                <path d="M0,-4.421C-0.979,-2.996 -2.562,-2.052 -2.738,-0.807C-2.941,0.627 -0.735,1.676 0.985,1.931C4.037,2.382 5.802,0.755 4.161,-2.012C3.802,-1.532 3.73,-0.763 2.957,-0.698C2.021,-2.108 2.415,-5.599 1.423,-6.94C0.902,-6.26 0.636,-5.347 0,-4.421M1.971,-7.706C2.357,-6.045 2.745,-3.18 3.066,-1.464C3.826,-1.617 3.656,-2.7 4.052,-3.216C4.718,-3.331 4.572,-2.327 4.708,-1.683C4.983,-0.395 5.706,0.883 4.6,1.821C2.505,3.296 -3.408,2.06 -3.395,-0.588C-3.387,-2.241 -1.436,-3.071 -0.438,-4.53C0.3,-5.61 0.635,-6.648 1.205,-7.487C1.448,-7.572 1.631,-7.717 1.971,-7.706" style="fill:rgb(35,31,32);"/>
            </g>
            <g transform="matrix(1,0,0,1,89.6886,178.523)">
                <path d="M0,0.754C0.092,0.258 0.396,-1.392 -0.219,-1.546C-0.022,-0.496 -0.64,0.417 0,0.754M0.109,-4.284C1.101,-2.943 0.707,0.548 1.643,1.959C2.416,1.893 2.488,1.125 2.847,0.645C4.488,3.412 2.723,5.038 -0.329,4.587C-2.049,4.332 -4.255,3.284 -4.052,1.849C-3.875,0.605 -2.293,-0.339 -1.314,-1.765C-0.678,-2.691 -0.412,-3.604 0.109,-4.284" style="fill:rgb(252,178,21);"/>
            </g>
            <g transform="matrix(1,0,0,1,95.383,175.339)">
                <path d="M0,1.967C0.062,0.811 -0.891,0.667 -1.533,0.215C-1.198,0.935 -1.099,2.363 0,1.967M-2.3,-0.771C-1.266,0.003 0.958,0.569 0.219,2.405C-1.606,2.738 -1.746,0.524 -2.3,-0.771" style="fill:rgb(35,31,32);"/>
            </g>
            <g transform="matrix(1,0,0,1,93.8498,177.702)">
                <path d="M0,-2.148C0.643,-1.696 1.595,-1.552 1.533,-0.396C0.435,0 0.335,-1.428 0,-2.148" style="fill:white;"/>
            </g>
            <g transform="matrix(1,0,0,1,89.4694,179.277)">
                <path d="M0,-2.3C0.615,-2.146 0.312,-0.496 0.219,0C-0.421,-0.338 0.197,-1.251 0,-2.3" style="fill:rgb(35,31,32);"/>
            </g>
            <g transform="matrix(1,0,0,1,101.297,159.785)">
                <path d="M0,-1.205L0.657,-1.205C0.546,-0.547 0.903,-0.356 1.314,-0.22C1.29,-0.062 0.987,-0.182 0.986,0C0.669,-0.414 0.328,-0.803 0,-1.205" style="fill:white;"/>
            </g>
            <g transform="matrix(1,0,0,1,89.5792,173.331)">
                <path d="M0,0.361C-0.57,1.2 -0.905,2.238 -1.643,3.318C-2.64,4.777 -4.591,5.607 -4.599,7.26C-4.613,9.908 1.3,11.144 3.395,9.669C4.501,8.732 3.778,7.454 3.504,6.165C3.368,5.521 3.513,4.517 2.847,4.632C2.451,5.149 2.622,6.232 1.862,6.384C1.54,4.669 1.152,1.803 0.767,0.142C0.427,0.132 0.243,0.276 0,0.361M-2.409,-5.99C-2.774,-6.834 -3.083,-7.572 -3.724,-8.4C-4.162,-8.967 -5.046,-10.062 -5.804,-10.042C-6.966,-10.012 -9.247,-6.881 -9.418,-6.1C-9.624,-5.161 -9.177,-3.925 -8.761,-3.362C-7.62,-1.82 -4.169,-1.753 -2.19,-1.062C-4.81,-0.919 -6.443,-1.861 -8.651,-1.829C-10.998,-0.36 -9.126,4.303 -7.447,5.399C-6.599,5.951 -5.761,5.828 -4.928,5.399C-3.717,4.774 -2.662,3.326 -1.752,2.223C-1.025,1.341 -0.404,0.317 0,-0.515C-0.133,-0.893 -0.915,-0.622 -1.095,-0.953C-0.618,-0.95 -0.081,-0.888 0.109,-1.172C-0.49,-3.018 -1.38,-4.574 -2.409,-5.99M0.767,-1.501C1.135,-1.541 0.963,-1.04 1.314,-1.062C1.923,-1.514 3.342,-2 4.708,-1.61C3.01,-1.534 1.166,-1.07 1.095,0.142C1.08,0.396 1.511,1.091 1.752,1.566C2.463,2.967 3.371,4.616 4.052,5.508C4.225,6.466 4.709,7.114 5.476,7.479C6.146,7.435 6.308,7.212 6.79,7.479C8.987,6.093 10.13,3.091 10.075,-0.186C8.708,-1.326 6.914,-1.386 4.818,-1.72C6.2,-2.015 7.934,-2.488 9.199,-1.61C9.244,-1.748 9.34,-1.834 9.527,-1.829C9.16,-4.971 8.248,-8.504 5.037,-9.166C3.647,-7.198 2.528,-4.959 1.095,-3.034C1.38,-4.835 2.19,-6.669 2.957,-7.961C3.161,-8.306 3.56,-8.446 3.614,-8.838C3.854,-10.586 1.145,-11.889 -0.657,-12.013C-2.338,-12.129 -3.306,-11.147 -4.271,-10.59C-3.068,-8.414 -1.208,-6.365 -0.219,-4.019C0.021,-3.45 -0.075,-2.736 0.657,-2.486C1.041,-2.332 1.002,-3.15 1.205,-2.815C0.986,-2.449 0.766,-2.086 0.767,-1.501M10.513,5.508C10.45,5.962 10.397,5.912 9.965,5.837C9.823,7.363 8.01,9.459 6.351,9.998C5.511,10.271 4.26,11.345 3.285,11.64C-1.527,13.101 -6.217,9.797 -8.213,7.041C-10.468,3.929 -12.311,-1.048 -10.951,-5.223C-10.737,-5.882 -10.217,-6.787 -9.856,-7.523C-8.446,-10.401 -5.409,-12.374 -1.314,-12.561C2.609,-12.74 6.264,-10.702 8.542,-8.181C11.176,-5.264 12.589,1.431 10.513,5.508" style="fill:rgb(255,228,133);"/>
            </g>
            <g transform="matrix(-0.886844,0.462069,0.462069,0.886844,90.3133,185.143)">
                <path d="M0.099,-22.965C7.373,-18.683 7.936,-6.787 3.055,-1.414C1.865,-0.775 1.293,0.073 0.099,0.497C7.295,-0.846 10.271,-7.683 9.123,-13.466C8.081,-18.722 4.021,-21.483 0.099,-22.965" style="fill:rgb(247,147,33);"/>
            </g>
            <g transform="matrix(1,0,0,1,103.487,158.033)">
                <path d="M0,1.752C0.347,1.733 0.366,2.043 0.767,1.971C0.88,1.463 1.434,1.397 1.533,0.876C1.288,0.755 0.985,0.694 0.767,0.547C0.812,1.25 0.175,1.27 0,1.752M-0.985,0.766C-0.953,1.092 -0.116,1.3 0,0.876C-0.086,0.604 -0.851,0.323 -0.985,0.766M-1.204,1.752C-1.203,1.571 -0.9,1.69 -0.876,1.533C-1.287,1.396 -1.644,1.205 -1.533,0.547L-2.19,0.547C-1.862,0.95 -1.521,1.338 -1.204,1.752M0.219,-1.205C0.047,0.427 1.837,0.097 2.628,0.766C2.141,1.557 1.036,1.729 0.986,2.957C0.232,2.731 0.122,2.023 -0.657,2.08C-1.218,2.122 -1.269,2.774 -1.971,2.737C-1.587,1.34 -2.549,0.71 -3.504,0.328C-2.435,-0.045 -0.547,0.088 -0.109,-1.205L0.219,-1.205Z" style="fill:rgb(35,31,32);"/>
            </g>
            <g transform="matrix(1,0,0,1,80.5993,170.173)">
                <path d="M0,2.205C-0.8,4.6 0.686,8.353 2.628,8.447C3.23,8.476 4.14,7.934 4.599,7.571C5.959,6.499 7.281,4.521 8.104,2.972C5.455,2.614 2.515,1.734 0,2.205M3.176,-6.337C2.057,-5.19 0.132,-4.357 0,-2.504C-0.264,1.201 5.371,1.129 8.433,1.767C7.219,-1.473 5.712,-4.42 3.176,-6.337M9.089,1.986C8.899,2.27 8.362,2.208 7.885,2.205C8.065,2.536 8.847,2.265 8.98,2.643C8.576,3.475 7.955,4.499 7.228,5.381C6.318,6.484 5.263,7.932 4.052,8.557C3.219,8.986 2.381,9.109 1.533,8.557C-0.146,7.461 -2.018,2.798 0.329,1.329C2.537,1.297 4.17,2.239 6.79,2.096C4.811,1.405 1.36,1.338 0.219,-0.204C-0.197,-0.767 -0.644,-2.003 -0.438,-2.942C-0.267,-3.723 2.014,-6.854 3.176,-6.884C3.934,-6.904 4.818,-5.809 5.256,-5.242C5.896,-4.414 6.206,-3.676 6.571,-2.832C7.6,-1.416 8.49,0.14 9.089,1.986" style="fill:rgb(35,31,32);"/>
            </g>
            <g transform="matrix(1,0,0,1,76.0001,164.4)">
                <path d="M0,13.016C1.655,18.676 7.453,23.364 14.455,21.229C13.2,21.405 12.3,20.917 10.951,20.9C4.139,18.391 -0.858,7.581 3.614,0.422C0.821,3.549 -1.504,7.873 0,13.016M22.121,0.751C19.843,-1.771 16.188,-3.809 12.265,-3.63C8.17,-3.442 5.133,-1.469 3.723,1.408C3.362,2.144 2.842,3.05 2.628,3.708C1.268,7.884 3.111,12.861 5.366,15.973C7.362,18.728 12.052,22.032 16.864,20.572C17.839,20.276 19.09,19.203 19.93,18.929C21.589,18.391 23.402,16.294 23.544,14.768C23.976,14.844 24.029,14.893 24.092,14.439C26.168,10.362 24.755,3.668 22.121,0.751M29.02,14.33C32.792,11.542 36.357,7.774 35.152,1.517C34.801,-0.304 33.29,-3.461 32.305,-4.725C28.544,-9.546 16.905,-9.913 14.126,-3.958C22.599,-3.132 27.972,6.139 24.53,14.987C26.329,15.446 27.657,14.654 29.02,14.33M24.311,15.425C23.13,17.346 21.6,18.602 19.492,19.805C17.456,20.967 15.638,21.992 12.703,22.324C5,23.197 -1.524,16.239 -0.876,8.526C-0.6,5.232 1.553,1.632 3.614,-0.235C3.945,-0.534 4.466,-0.739 4.928,-1.11C6.981,-2.763 9.775,-4.409 13.36,-4.067C16.334,-10.112 28.382,-10.348 32.633,-5.162C35.334,-1.869 37.042,4.769 34.933,8.745C34.163,10.197 32.093,12.582 30.771,13.673C29.245,14.933 26.805,16.086 24.311,15.425" style="fill:rgb(35,31,32);"/>
            </g>
            <g opacity="0.61">
                <g transform="matrix(0,-1,-1,0,106.101,161.332)">
                    <path d="M-0.516,-0.516C-0.814,-0.516 -1.056,-0.285 -1.056,0C-1.056,0.285 -0.814,0.516 -0.516,0.516C-0.218,0.516 0.024,0.285 0.024,0C0.024,-0.285 -0.218,-0.516 -0.516,-0.516" style="fill:white;"/>
                </g>
            </g>
            <g opacity="0.61">
                <g transform="matrix(0,-1,-1,0,105.02,163.577)">
                    <path d="M-0.516,-0.516C-0.814,-0.516 -1.056,-0.285 -1.056,0C-1.056,0.285 -0.814,0.516 -0.516,0.516C-0.218,0.516 0.024,0.285 0.024,0C0.024,-0.285 -0.218,-0.516 -0.516,-0.516" style="fill:white;"/>
                </g>
            </g>
            <g opacity="0.61">
                <g transform="matrix(0,-1,-1,0,101.606,161.602)">
                    <path d="M-0.516,-0.516C-0.814,-0.516 -1.056,-0.285 -1.056,0C-1.056,0.285 -0.814,0.516 -0.516,0.516C-0.218,0.516 0.024,0.285 0.024,0C0.024,-0.285 -0.218,-0.516 -0.516,-0.516" style="fill:white;"/>
                </g>
            </g>
            <g opacity="0.61">
                <g transform="matrix(0,-1,-1,0,102.994,166.269)">
                    <path d="M-0.516,-0.516C-0.814,-0.516 -1.056,-0.285 -1.056,0C-1.056,0.285 -0.814,0.516 -0.516,0.516C-0.218,0.516 0.024,0.285 0.024,0C0.024,-0.285 -0.218,-0.516 -0.516,-0.516" style="fill:white;"/>
                </g>
            </g>
            <g opacity="0.61">
                <g transform="matrix(0,-1,-1,0,77.3157,174.916)">
                    <path d="M-0.516,-0.516C-0.814,-0.516 -1.056,-0.285 -1.056,0C-1.056,0.285 -0.814,0.516 -0.516,0.516C-0.218,0.516 0.024,0.285 0.024,0C0.024,-0.285 -0.218,-0.516 -0.516,-0.516" style="fill:white;"/>
                </g>
            </g>
            <g opacity="0.61">
                <g transform="matrix(0,-1,-1,0,77.0916,176.858)">
                    <path d="M-0.516,-0.516C-0.814,-0.516 -1.056,-0.285 -1.056,0C-1.056,0.285 -0.814,0.516 -0.516,0.516C-0.218,0.516 0.024,0.285 0.024,0C0.024,-0.285 -0.218,-0.516 -0.516,-0.516" style="fill:white;"/>
                </g>
            </g>
            <g opacity="0.61">
                <g transform="matrix(0,-1,-1,0,77.6077,175.657)">
                    <path d="M-0.516,-0.516C-0.814,-0.516 -1.056,-0.285 -1.056,0C-1.056,0.285 -0.814,0.516 -0.516,0.516C-0.218,0.516 0.024,0.285 0.024,0C0.024,-0.285 -0.218,-0.516 -0.516,-0.516" style="fill:white;"/>
                </g>
            </g>
            <g opacity="0.61">
                <g transform="matrix(0,-1,-1,0,78.1638,176.461)">
                    <path d="M-0.516,-0.516C-0.814,-0.516 -1.056,-0.285 -1.056,0C-1.056,0.285 -0.814,0.516 -0.516,0.516C-0.218,0.516 0.024,0.285 0.024,0C0.024,-0.285 -0.218,-0.516 -0.516,-0.516" style="fill:white;"/>
                </g>
            </g>
            <g opacity="0.61">
                <g transform="matrix(0,-1,-1,0,77.8318,179.457)">
                    <path d="M-0.516,-0.516C-0.814,-0.516 -1.056,-0.285 -1.056,0C-1.056,0.285 -0.814,0.516 -0.516,0.516C-0.218,0.516 0.024,0.285 0.024,0C0.024,-0.285 -0.218,-0.516 -0.516,-0.516" style="fill:white;"/>
                </g>
            </g>
            <g opacity="0.61">
                <g transform="matrix(0,-1,-1,0,80.8943,181.652)">
                    <path d="M-0.516,-0.516C-0.814,-0.516 -1.056,-0.285 -1.056,0C-1.056,0.285 -0.814,0.516 -0.516,0.516C-0.218,0.516 0.024,0.285 0.024,0C0.024,-0.285 -0.218,-0.516 -0.516,-0.516" style="fill:white;"/>
                </g>
            </g>
            <g opacity="0.61">
                <g transform="matrix(0,-1,-1,0,79.1961,180.294)">
                    <path d="M-0.516,-0.516C-0.814,-0.516 -1.056,-0.285 -1.056,0C-1.056,0.285 -0.814,0.516 -0.516,0.516C-0.218,0.516 0.024,0.285 0.024,0C0.024,-0.285 -0.218,-0.516 -0.516,-0.516" style="fill:white;"/>
                </g>
            </g>
            <g opacity="0.61">
                <g transform="matrix(0,-1,-1,0,79.3079,179.457)">
                    <path d="M-0.516,-0.516C-0.814,-0.516 -1.056,-0.285 -1.056,0C-1.056,0.285 -0.814,0.516 -0.516,0.516C-0.218,0.516 0.024,0.285 0.024,0C0.024,-0.285 -0.218,-0.516 -0.516,-0.516" style="fill:white;"/>
                </g>
            </g>
            <g opacity="0.61">
                <g transform="matrix(0,-1,-1,0,78.7918,178.378)">
                    <path d="M-0.516,-0.516C-0.814,-0.516 -1.056,-0.285 -1.056,0C-1.056,0.285 -0.814,0.516 -0.516,0.516C-0.218,0.516 0.024,0.285 0.024,0C0.024,-0.285 -0.218,-0.516 -0.516,-0.516" style="fill:white;"/>
                </g>
            </g>
            <g opacity="0.61">
                <g transform="matrix(0,-1,-1,0,77.6477,178.105)">
                    <path d="M-0.516,-0.516C-0.814,-0.516 -1.056,-0.285 -1.056,0C-1.056,0.285 -0.814,0.516 -0.516,0.516C-0.218,0.516 0.024,0.285 0.024,0C0.024,-0.285 -0.218,-0.516 -0.516,-0.516" style="fill:white;"/>
                </g>
            </g>
            <g opacity="0.61">
                <g transform="matrix(0,-1,-1,0,78.2761,177.398)">
                    <path d="M-0.516,-0.516C-0.814,-0.516 -1.056,-0.285 -1.056,0C-1.056,0.285 -0.814,0.516 -0.516,0.516C-0.218,0.516 0.024,0.285 0.024,0C0.024,-0.285 -0.218,-0.516 -0.516,-0.516" style="fill:white;"/>
                </g>
            </g>
            <g opacity="0.61">
                <g transform="matrix(0,-1,-1,0,78.6799,178.196)">
                    <path d="M-0.516,-0.516C-0.814,-0.516 -1.056,-0.285 -1.056,0C-1.056,0.285 -0.814,0.516 -0.516,0.516C-0.218,0.516 0.024,0.285 0.024,0C0.024,-0.285 -0.218,-0.516 -0.516,-0.516" style="fill:white;"/>
                </g>
            </g>
            <g opacity="0.61">
                <g transform="matrix(0,-1,-1,0,77.989,178.917)">
                    <path d="M-0.516,-0.516C-0.814,-0.516 -1.056,-0.285 -1.056,0C-1.056,0.285 -0.814,0.516 -0.516,0.516C-0.218,0.516 0.024,0.285 0.024,0C0.024,-0.285 -0.218,-0.516 -0.516,-0.516" style="fill:white;"/>
                </g>
            </g>
            <g opacity="0.61">
                <g transform="matrix(0,-1,-1,0,78.7918,179.457)">
                    <path d="M-0.516,-0.516C-0.814,-0.516 -1.056,-0.285 -1.056,0C-1.056,0.285 -0.814,0.516 -0.516,0.516C-0.218,0.516 0.024,0.285 0.024,0C0.024,-0.285 -0.218,-0.516 -0.516,-0.516" style="fill:white;"/>
                </g>
            </g>
            <g opacity="0.61">
                <g transform="matrix(0,-1,-1,0,76.7996,172.234)">
                    <path d="M-0.516,-0.516C-0.814,-0.516 -1.056,-0.285 -1.056,0C-1.056,0.285 -0.814,0.516 -0.516,0.516C-0.218,0.516 0.024,0.285 0.024,0C0.024,-0.285 -0.218,-0.516 -0.516,-0.516" style="fill:white;"/>
                </g>
            </g>
            <g opacity="0.61">
                <g transform="matrix(0,-1,-1,0,76.0437,174.376)">
                    <path d="M-0.516,-0.516C-0.814,-0.516 -1.056,-0.285 -1.056,0C-1.056,0.285 -0.814,0.516 -0.516,0.516C-0.218,0.516 0.024,0.285 0.024,0C0.024,-0.285 -0.218,-0.516 -0.516,-0.516" style="fill:white;"/>
                </g>
            </g>
            <g opacity="0.61">
                <g transform="matrix(0,-1,-1,0,81.6624,183.208)">
                    <path d="M-0.516,-0.516C-0.814,-0.516 -1.056,-0.285 -1.056,0C-1.056,0.285 -0.814,0.516 -0.516,0.516C-0.218,0.516 0.024,0.285 0.024,0C0.024,-0.285 -0.218,-0.516 -0.516,-0.516" style="fill:white;"/>
                </g>
            </g>
            <g opacity="0.61">
                <g transform="matrix(0,-1,-1,0,79.3079,181.526)">
                    <path d="M-0.516,-0.516C-0.814,-0.516 -1.056,-0.285 -1.056,0C-1.056,0.285 -0.814,0.516 -0.516,0.516C-0.218,0.516 0.024,0.285 0.024,0C0.024,-0.285 -0.218,-0.516 -0.516,-0.516" style="fill:white;"/>
                </g>
            </g>
            <g opacity="0.61">
                <g transform="matrix(0,-1,-1,0,106.631,163.86)">
                    <path d="M-0.516,-0.516C-0.814,-0.516 -1.056,-0.285 -1.056,0C-1.056,0.285 -0.814,0.516 -0.516,0.516C-0.218,0.516 0.024,0.285 0.024,0C0.024,-0.285 -0.218,-0.516 -0.516,-0.516" style="fill:white;"/>
                </g>
            </g>
            <g opacity="0.61">
                <g transform="matrix(0,-1,-1,0,106.115,162.773)">
                    <path d="M-0.516,-0.516C-0.814,-0.516 -1.056,-0.285 -1.056,0C-1.056,0.285 -0.814,0.516 -0.516,0.516C-0.218,0.516 0.024,0.285 0.024,0C0.024,-0.285 -0.218,-0.516 -0.516,-0.516" style="fill:white;"/>
                </g>
            </g>
            <g opacity="0.61">
                <g transform="matrix(0,-1,-1,0,104.253,162.233)">
                    <path d="M-0.516,-0.516C-0.814,-0.516 -1.056,-0.285 -1.056,0C-1.056,0.285 -0.814,0.516 -0.516,0.516C-0.218,0.516 0.024,0.285 0.024,0C0.024,-0.285 -0.218,-0.516 -0.516,-0.516" style="fill:white;"/>
                </g>
            </g>
            <g opacity="0.61">
                <g transform="matrix(0,-1,-1,0,102.611,163.577)">
                    <path d="M-0.516,-0.516C-0.814,-0.516 -1.056,-0.285 -1.056,0C-1.056,0.285 -0.814,0.516 -0.516,0.516C-0.218,0.516 0.024,0.285 0.024,0C0.024,-0.285 -0.218,-0.516 -0.516,-0.516" style="fill:white;"/>
                </g>
            </g>
            <g opacity="0.61">
                <g transform="matrix(0,-1,-1,0,105.599,162.773)">
                    <path d="M-0.516,-0.516C-0.814,-0.516 -1.056,-0.285 -1.056,0C-1.056,0.285 -0.814,0.516 -0.516,0.516C-0.218,0.516 0.024,0.285 0.024,0C0.024,-0.285 -0.218,-0.516 -0.516,-0.516" style="fill:white;"/>
                </g>
            </g>
            <g opacity="0.61">
                <g transform="matrix(0,-1,-1,0,106.101,164.656)">
                    <path d="M-0.516,-0.516C-0.814,-0.516 -1.056,-0.285 -1.056,0C-1.056,0.285 -0.814,0.516 -0.516,0.516C-0.218,0.516 0.024,0.285 0.024,0C0.024,-0.285 -0.218,-0.516 -0.516,-0.516" style="fill:white;"/>
                </g>
            </g>
            <g opacity="0.61">
                <g transform="matrix(0,-1,-1,0,105.083,164.408)">
                    <path d="M-0.516,-0.516C-0.814,-0.516 -1.056,-0.285 -1.056,0C-1.056,0.285 -0.814,0.516 -0.516,0.516C-0.218,0.516 0.024,0.285 0.024,0C0.024,-0.285 -0.218,-0.516 -0.516,-0.516" style="fill:white;"/>
                </g>
            </g>
            <g opacity="0.61">
                <g transform="matrix(0,-1,-1,0,107.663,162.412)">
                    <path d="M-0.516,-0.516C-0.814,-0.516 -1.056,-0.285 -1.056,0C-1.056,0.285 -0.814,0.516 -0.516,0.516C-0.218,0.516 0.024,0.285 0.024,0C0.024,-0.285 -0.218,-0.516 -0.516,-0.516" style="fill:white;"/>
                </g>
            </g>
            <g opacity="0.61">
                <g transform="matrix(0,-1,-1,0,108.364,164.947)">
                    <path d="M-0.516,-0.516C-0.814,-0.516 -1.056,-0.285 -1.056,0C-1.056,0.285 -0.814,0.516 -0.516,0.516C-0.218,0.516 0.024,0.285 0.024,0C0.024,-0.285 -0.218,-0.516 -0.516,-0.516" style="fill:white;"/>
                </g>
            </g>
            <g opacity="0.61">
                <g transform="matrix(0,-1,-1,0,106.294,167.87)">
                    <path d="M-0.516,-0.516C-0.814,-0.516 -1.056,-0.285 -1.056,0C-1.056,0.285 -0.814,0.516 -0.516,0.516C-0.218,0.516 0.024,0.285 0.024,0C0.024,-0.285 -0.218,-0.516 -0.516,-0.516" style="fill:white;"/>
                </g>
            </g>
            <g opacity="0.61">
                <g transform="matrix(0,-1,-1,0,106.809,166.451)">
                    <path d="M-0.516,-0.516C-0.814,-0.516 -1.056,-0.285 -1.056,0C-1.056,0.285 -0.814,0.516 -0.516,0.516C-0.218,0.516 0.024,0.285 0.024,0C0.024,-0.285 -0.218,-0.516 -0.516,-0.516" style="fill:white;"/>
                </g>
            </g>
            <g opacity="0.61">
                <g transform="matrix(0,-1,-1,0,104.504,165.911)">
                    <path d="M-0.516,-0.516C-0.814,-0.516 -1.056,-0.285 -1.056,0C-1.056,0.285 -0.814,0.516 -0.516,0.516C-0.218,0.516 0.024,0.285 0.024,0C0.024,-0.285 -0.218,-0.516 -0.516,-0.516" style="fill:white;"/>
                </g>
            </g>
            <g opacity="0.61">
                <g transform="matrix(0,-1,-1,0,107.326,163.577)">
                    <path d="M-0.516,-0.516C-0.814,-0.516 -1.056,-0.285 -1.056,0C-1.056,0.285 -0.814,0.516 -0.516,0.516C-0.218,0.516 0.024,0.285 0.024,0C0.024,-0.285 -0.218,-0.516 -0.516,-0.516" style="fill:white;"/>
                </g>
            </g>
            <g opacity="0.61">
                <g transform="matrix(1,0,0,1,89.7902,162.551)">
                    <path d="M0,4.952C-0.073,4.657 -0.393,4.447 -0.551,4.163C-0.713,3.871 -0.685,3.652 -0.749,3.339C-0.853,2.827 -1.132,2.401 -1.3,1.91C-1.366,1.718 -1.653,1.224 -1.464,1.019C-1.308,0.85 -0.854,0.964 -0.637,0.952C-0.492,0.778 -0.275,0.401 -0.453,0.17C-0.883,-0.39 -1.495,0.324 -1.836,0.401C-2.229,0.489 -2.344,-0.1 -2.671,0.055C-2.718,0.077 -3.102,0.798 -3.103,0.854C-3.108,1.251 -2.265,1.925 -2.07,2.289C-1.777,2.839 -1.612,3.366 -1.245,3.884C-1.02,4.202 -0.581,5.342 -0.099,5.218C-0.087,5.145 -0.038,4.818 0,5.042" style="fill:white;"/>
                </g>
            </g>
            <g opacity="0.61">
                <g transform="matrix(1,0,0,1,91.8541,165.173)">
                    <path d="M0,5.157C0.024,4.581 0.811,3.846 1.127,3.368C1.411,2.939 1.635,2.489 2.021,2.137C2.358,1.829 3.078,1.144 3.583,1.269C3.603,1.451 3.657,1.647 3.604,1.823C3.522,2.088 3.129,2.273 3.138,2.564C3.154,3.07 5.169,2.102 5.652,2.099C5.188,1.614 4.691,0.962 4.137,0.553C3.326,-0.045 2.672,0.201 2.208,1.047C1.452,2.428 0.348,3.688 0,5.202" style="fill:white;"/>
                </g>
            </g>
            <g opacity="0.61">
                <g transform="matrix(1,0,0,1,86.2453,165.452)">
                    <path d="M0,2.186C-0.473,1.127 -1.319,0.212 -2.389,-0.255C-3.016,-0.528 -3.128,-0.336 -2.653,0.161C-3.205,0.201 -3.728,0.296 -4.209,0.56C-4.511,0.724 -5.056,0.923 -5.262,1.186C-5.836,1.918 -4.918,2.389 -4.368,2.714C-4.329,2.184 -5.217,1.031 -4.014,1.207C-3.706,1.251 -3.177,1.586 -2.859,1.417C-2.616,1.287 -2.68,0.831 -2.506,0.702C-1.837,0.208 -0.598,1.775 -0.135,2.096" style="fill:white;"/>
                </g>
            </g>
            <g opacity="0.61">
                <g transform="matrix(1,0,0,1,87.7706,178.201)">
                    <path d="M0,-4.954C-0.792,-4.975 -1.612,-4.908 -2.387,-4.742C-2.882,-4.636 -3.82,-4.567 -4.178,-4.256C-3.858,-4.183 -2.476,-4.497 -2.26,-4.147C-2.164,-3.993 -3.524,-2.621 -3.697,-2.416C-4.022,-2.029 -4.37,-1.691 -4.682,-1.291C-4.8,-1.14 -4.965,-0.841 -5.146,-0.778C-5.592,-0.622 -5.824,-1.053 -6.095,-1.274C-6.222,-0.631 -5.392,-0.384 -4.936,-0.222C-4.384,-0.026 -4.203,0.021 -3.802,-0.365C-3.256,-0.892 -2.6,-1.328 -1.996,-1.815C-1.636,-2.105 -1.127,-2.368 -1.103,-2.89C-1.31,-2.899 -2.5,-2.492 -2.566,-2.819C-2.646,-3.224 -1.498,-3.654 -1.249,-3.787C-0.854,-3.999 0.133,-4.308 0.09,-4.864" style="fill:white;"/>
                </g>
            </g>
            <g opacity="0.61">
                <g transform="matrix(1,0,0,1,88.0851,182.242)">
                    <path d="M0,-4.463C-0.503,-3.554 -0.825,-2.652 -0.805,-1.599C0.011,-1.472 0.201,-1.278 -0.045,-0.514C-0.162,-0.151 -0.283,0 -0.776,-0.109C-1.135,-0.188 -1.605,-0.532 -1.845,-0.832C-2.954,-2.216 -0.397,-3.022 -0.225,-4.149" style="fill:white;"/>
                </g>
            </g>
        </g>
    </g>
</svg>
