<?xml version="1.0" encoding="UTF-8" standalone="no"?>
<!DOCTYPE svg PUBLIC "-//W3C//DTD SVG 1.1//EN" "http://www.w3.org/Graphics/SVG/1.1/DTD/svg11.dtd">
<svg width="100%" height="100%" viewBox="0 0 53 34" version="1.1" xmlns="http://www.w3.org/2000/svg" xmlns:xlink="http://www.w3.org/1999/xlink" xml:space="preserve" xmlns:serif="http://www.serif.com/" style="fill-rule:evenodd;clip-rule:evenodd;stroke-linejoin:round;stroke-miterlimit:2;">
    <g transform="matrix(1,0,0,1,-478.183,-195.105)">
        <g>
            <g transform="matrix(1,0,0,1,523.487,201.311)">
                <path d="M0,21.379C0.318,21.472 0.598,21.374 0.85,21.181C0.92,21.126 0.855,21.019 0.8,21.022C0.509,21.037 0.217,21.067 0.001,21.302C-0.008,21.311 0,21.336 0,21.379M-3.126,23.435C-2.607,23.499 -2.192,23.429 -1.793,23.25C-1.646,23.183 -1.493,23.088 -1.533,22.903C-1.574,22.714 -1.758,22.783 -1.886,22.781C-2.388,22.773 -2.769,22.996 -3.126,23.435M-23.745,18.381C-23.782,18.946 -23.663,19.48 -23.432,19.995C-23.298,20.292 -23.114,20.48 -22.802,20.632C-21.981,21.033 -21.068,21.202 -20.274,21.62C-18.632,22.485 -16.817,22.796 -15.086,23.368C-14.889,23.433 -14.568,23.534 -14.501,23.234C-14.393,22.753 -14.105,22.379 -13.858,21.986C-13.65,21.655 -13.812,21.65 -14.066,21.621C-14.498,21.572 -14.931,21.519 -15.358,21.443C-16.652,21.212 -17.842,20.624 -19.113,20.33C-20.423,20.027 -21.414,19.191 -22.483,18.481C-22.707,18.333 -22.87,18.083 -23.032,17.859C-23.184,17.649 -23.234,17.204 -23.484,17.274C-23.713,17.337 -23.724,17.771 -23.744,18.066C-23.751,18.171 -23.745,18.276 -23.745,18.381M-13.193,0.776C-13.193,0.708 -13.183,0.497 -13.195,0.288C-13.237,-0.412 -13.291,-1.102 -13.988,-1.525C-14.363,-1.751 -14.758,-1.933 -15.17,-2.058C-16.63,-2.503 -18.121,-2.524 -19.614,-2.28C-20.791,-2.088 -22.02,-2.138 -23.14,-1.689C-25.179,-0.872 -27.178,0.009 -28.978,1.331C-30.18,2.215 -31.103,3.175 -31.286,4.707C-31.379,5.483 -31.123,6.554 -30.117,6.832C-29.218,7.08 -28.887,7.76 -28.896,8.666C-28.905,9.611 -29.187,10.528 -29.135,11.481C-29.099,12.142 -29.112,12.808 -29.142,13.469C-29.175,14.221 -29.198,14.979 -28.99,15.699C-28.775,16.439 -28.561,17.22 -27.59,17.381C-26.664,17.534 -25.746,17.533 -24.829,17.363C-24.532,17.308 -24.154,17.278 -23.974,17.086C-23.457,16.535 -22.864,16.087 -22.282,15.621C-20.138,13.905 -18.066,12.089 -15.642,10.757C-15.45,10.652 -15.373,10.462 -15.261,10.283C-15.057,9.961 -15.277,9.628 -15.153,9.328C-14.982,8.917 -14.936,8.483 -14.89,8.052C-14.783,7.07 -14.973,6.103 -15.111,5.14C-15.173,4.713 -15.019,4.443 -14.766,4.173C-14.634,4.033 -14.494,3.899 -14.35,3.772C-13.488,3.013 -13.13,2.051 -13.193,0.776M-9.87,24.908C-8.127,24.88 -6.441,24.62 -4.884,23.754C-3.592,23.036 -2.489,22.068 -1.312,21.193C0.183,20.084 1.401,18.812 2.169,17.093C2.487,16.381 2.527,15.761 2.255,15.038C1.95,14.235 1.349,13.678 0.717,13.227C-0.614,12.275 -2.077,11.693 -3.729,12.492C-3.914,12.582 -4.048,12.595 -4.152,12.373C-4.491,11.647 -5.151,11.304 -5.858,11.102C-7.504,10.632 -9.204,10.425 -10.884,10.115C-12.7,9.781 -14.319,10.254 -15.825,11.154C-16.804,11.739 -17.77,12.359 -18.667,13.083C-20.081,14.225 -21.479,15.383 -22.855,16.57C-22.952,16.652 -23.081,16.724 -23.004,16.86C-22.856,17.12 -22.832,17.42 -22.67,17.679C-22.134,18.535 -21.261,18.999 -20.446,19.461C-19.202,20.169 -17.762,20.429 -16.405,20.878C-15.578,21.151 -14.724,21.335 -13.839,21.326C-13.61,21.324 -13.356,21.386 -13.243,21.599C-13.122,21.827 -13.402,21.912 -13.494,22.066C-13.574,22.199 -13.625,22.354 -13.721,22.474C-14.397,23.332 -13.967,24.378 -12.878,24.577C-11.884,24.758 -10.894,24.97 -9.87,24.908M-27.768,17.864C-29.011,16.958 -29.276,16.519 -29.442,15.091C-29.491,14.677 -29.444,14.258 -29.465,13.84C-29.521,12.674 -29.539,11.504 -29.417,10.34C-29.369,9.889 -29.227,9.444 -29.214,8.994C-29.191,8.144 -29.317,7.382 -30.325,7.061C-30.824,6.902 -31.312,6.581 -31.452,5.98C-31.757,4.671 -31.44,3.503 -30.657,2.434C-30.209,1.823 -29.552,1.477 -28.964,1.044C-26.819,-0.538 -24.429,-1.608 -21.867,-2.305C-20.91,-2.565 -19.948,-2.858 -18.93,-2.65C-18.806,-2.625 -18.649,-2.624 -18.58,-2.782C-18.683,-3.016 -18.895,-3.06 -19.098,-3.108C-20.828,-3.514 -22.556,-3.916 -24.312,-4.224C-26.994,-4.693 -29.675,-5.118 -32.39,-5.348C-34.146,-5.497 -35.863,-5.338 -37.554,-4.871C-38.845,-4.515 -40.118,-4.096 -41.292,-3.433C-42.245,-2.894 -43.095,-2.188 -43.784,-1.366C-45.068,0.169 -45.382,0.905 -44.514,2.93C-44.384,3.233 -44.286,3.578 -43.982,3.756C-43.022,4.318 -42.106,4.97 -41.008,5.26C-40.7,5.341 -40.7,5.341 -40.528,5.601C-41.451,5.549 -42.173,4.994 -42.968,4.624C-43.091,4.567 -43.198,4.424 -43.347,4.49C-43.527,4.57 -43.419,4.743 -43.409,4.865C-43.274,6.535 -43.223,8.208 -43.01,9.876C-42.749,11.909 -41.83,13.413 -40.016,14.376C-39.247,14.785 -38.451,15.144 -37.687,15.556C-36.437,16.229 -35.073,16.599 -33.757,17.084C-32.331,17.609 -30.783,17.641 -29.293,17.914C-28.824,18 -28.299,18.047 -27.768,17.864M-3.549,25.004C-2.966,24.835 -2.53,24.413 -2.039,24.096C-1.012,23.434 -0.065,22.666 0.762,21.657C0.5,21.685 0.313,21.709 0.125,21.723C-0.082,21.738 -0.271,21.684 -0.342,21.469C-0.409,21.265 -0.334,21.087 -0.156,20.966C0.255,20.688 0.691,20.514 1.152,20.828C1.325,20.945 1.389,20.942 1.521,20.774C2.382,19.667 2.651,18.39 2.599,16.986C1.647,19.483 -0.519,20.871 -2.424,22.503C-2.193,22.524 -2.007,22.49 -1.818,22.474C-1.574,22.452 -1.372,22.512 -1.265,22.769C-1.157,23.027 -1.329,23.171 -1.479,23.308C-1.776,23.576 -2.163,23.629 -2.535,23.726C-3.01,23.85 -3.352,23.784 -3.436,23.236C-6.844,25.445 -10.396,25.728 -14.153,24.379C-14.021,24.895 -14.135,25.583 -13.49,25.887C-12.835,26.197 -12.156,26.488 -11.423,26.577C-10.438,26.698 -9.458,26.761 -8.457,26.696C-7.564,26.639 -6.688,26.605 -5.854,26.247C-5.043,25.9 -4.192,25.627 -3.536,24.994L-3.549,25.004ZM-24.144,17.627C-25.615,17.607 -26.992,18.173 -28.437,18.188C-29.173,18.194 -29.916,18.104 -30.656,18.012C-31.857,17.862 -33.034,17.642 -34.165,17.256C-35.846,16.682 -37.483,15.993 -39.084,15.208C-40.032,14.743 -40.925,14.258 -41.708,13.533C-42.705,12.61 -43.131,11.466 -43.293,10.163C-43.516,8.378 -43.592,6.583 -43.735,4.792C-43.766,4.41 -43.861,4.03 -44.274,3.836C-44.375,3.788 -44.468,3.679 -44.518,3.575C-45.069,2.43 -45.545,1.28 -45.008,-0.025C-44.769,-0.608 -44.389,-1.076 -43.979,-1.527C-42.235,-3.439 -40.035,-4.499 -37.553,-5.143C-35.216,-5.75 -32.888,-5.718 -30.529,-5.466C-27.945,-5.19 -25.395,-4.708 -22.837,-4.263C-20.959,-3.935 -19.162,-3.327 -17.332,-2.833C-16.655,-2.651 -15.953,-2.637 -15.271,-2.475C-14.712,-2.343 -14.215,-2.129 -13.758,-1.804C-13.246,-1.439 -12.971,-0.949 -12.924,-0.304C-12.837,0.926 -12.764,2.143 -13.444,3.259C-13.666,3.623 -13.965,3.917 -14.273,4.2C-14.662,4.559 -14.818,4.956 -14.728,5.508C-14.62,6.161 -14.598,6.829 -14.49,7.486C-14.448,7.739 -14.438,8.01 -14.536,8.266C-14.769,8.867 -14.54,9.551 -14.875,10.14C-14.933,10.242 -14.838,10.355 -14.7,10.282C-13.229,9.501 -11.672,9.714 -10.141,9.96C-8.714,10.19 -7.278,10.399 -5.882,10.786C-5.166,10.984 -4.502,11.307 -4.062,11.946C-3.934,12.132 -3.813,12.12 -3.623,12.066C-1.512,11.463 0.152,12.229 1.659,13.693C2.887,14.885 3.011,16.318 2.938,17.882C2.84,19.952 1.616,21.341 0.237,22.679C-1.094,23.97 -2.624,24.987 -4.214,25.896C-5.433,26.593 -6.755,26.992 -8.225,27.063C-9.568,27.129 -10.852,26.946 -12.154,26.765C-12.715,26.688 -13.229,26.441 -13.728,26.204C-14.222,25.97 -14.396,25.461 -14.451,24.937C-14.573,23.79 -14.604,23.909 -15.723,23.567C-17.204,23.113 -18.703,22.688 -20.131,22.058C-21.096,21.631 -22.104,21.303 -23.095,20.937C-23.271,20.871 -23.392,20.757 -23.482,20.603C-23.867,19.95 -24.178,19.276 -24.146,18.491C-24.134,18.182 -24.144,17.871 -24.144,17.627" style="fill:rgb(35,31,32);"/>
            </g>
            <g transform="matrix(1,0,0,1,528.266,225.577)">
                <path d="M0,-0.169C0.514,0.29 1.076,0.22 1.625,0.208C1.699,0.207 1.765,0.172 1.772,0.094C1.782,-0.002 1.721,-0.099 1.64,-0.107C1.116,-0.152 0.604,-0.429 0,-0.169M1.37,0.514C0.889,0.507 0.446,0.429 0.029,0.223C-0.192,0.113 -0.346,-0.046 -0.34,-0.299C-0.332,-0.584 -0.104,-0.677 0.124,-0.714C0.668,-0.804 1.201,-0.805 1.674,-0.446C1.916,-0.262 2.175,-0.078 2.066,0.266C1.95,0.636 1.602,0.463 1.37,0.514" style="fill:rgb(35,31,32);"/>
            </g>
            <g transform="matrix(1,0,0,1,490.528,221.511)">
                <path d="M0,-0.68C-0.303,-0.693 -0.562,-0.676 -0.815,-0.598C-0.937,-0.561 -1.062,-0.52 -1.062,-0.37C-1.062,-0.233 -0.957,-0.15 -0.834,-0.119C-0.277,0.022 0.28,0.16 0.864,0.064C1.156,0.016 1.164,-0.102 0.998,-0.32C0.727,-0.676 0.354,-0.703 0,-0.68M-0.216,-1.006C0.185,-1.07 0.606,-0.839 1.031,-0.644C1.305,-0.518 1.457,-0.267 1.41,0.036C1.36,0.357 1.073,0.344 0.832,0.358C0.291,0.39 -0.243,0.354 -0.759,0.162C-1.08,0.042 -1.442,-0.099 -1.371,-0.496C-1.304,-0.875 -0.948,-1.004 -0.573,-1.006C-0.486,-1.007 -0.399,-1.006 -0.216,-1.006" style="fill:rgb(35,31,32);"/>
            </g>
            <g transform="matrix(1,0,0,1,524.881,224.535)">
                <path d="M0,0.877C0.131,0.861 0.287,0.844 0.442,0.823C0.662,0.794 0.977,0.815 0.941,0.505C0.907,0.21 0.72,-0.041 0.337,-0.02C0.033,-0.003 -0.247,0.087 -0.516,0.211C-0.703,0.298 -0.945,0.415 -0.89,0.653C-0.837,0.882 -0.575,0.811 -0.391,0.828C-0.269,0.839 -0.147,0.858 0,0.877M-0.091,1.114C-0.347,1.156 -0.582,1.084 -0.816,1.021C-1.285,0.895 -1.378,0.561 -1.048,0.22C-0.578,-0.266 0.067,-0.305 0.651,-0.296C1.049,-0.29 1.189,0.208 1.224,0.601C1.252,0.935 0.958,0.967 0.726,1.019C0.455,1.079 0.188,1.182 -0.091,1.114" style="fill:rgb(35,31,32);"/>
            </g>
            <g transform="matrix(1,0,0,1,494.085,220.666)">
                <path d="M0,0.19C0.72,0.33 1.352,0.374 2.01,0.237C1.676,-0.205 0.785,-0.24 0,0.19M0.962,0.606C0.639,0.62 0.336,0.503 0.024,0.474C-0.209,0.452 -0.307,0.306 -0.344,0.097C-0.391,-0.168 -0.158,-0.18 -0.014,-0.219C0.564,-0.373 1.155,-0.43 1.751,-0.328C2.045,-0.277 2.325,-0.14 2.318,0.188C2.313,0.482 2.007,0.464 1.792,0.499C1.517,0.544 1.238,0.571 0.962,0.606" style="fill:rgb(35,31,32);"/>
            </g>
            <g transform="matrix(1,0,0,1,494.19,222.046)">
                <path d="M0,-0.059C-0.528,-0.208 -0.966,-0.389 -1.464,-0.011C-0.958,0.132 -0.522,0.255 0,-0.059M-0.805,0.359C-0.944,0.359 -0.979,0.363 -1.014,0.358C-1.333,0.312 -1.84,0.473 -1.826,-0.036C-1.815,-0.46 -1.321,-0.422 -0.999,-0.473C-0.615,-0.532 -0.256,-0.356 0.113,-0.282C0.265,-0.251 0.359,-0.131 0.362,0.018C0.364,0.191 0.221,0.225 0.075,0.256C-0.25,0.326 -0.574,0.388 -0.805,0.359" style="fill:rgb(35,31,32);"/>
            </g>
            <g transform="matrix(1,0,0,1,528.215,223.208)">
                <path d="M0,0.094C-0.687,-0.104 -0.816,-0.12 -0.867,-0.004C-0.883,0.031 -0.869,0.114 -0.846,0.125C-0.59,0.242 -0.329,0.33 -0.056,0.175C-0.042,0.167 -0.036,0.147 0,0.094M-0.521,0.476C-0.771,0.412 -1.208,0.576 -1.291,0.068C-1.341,-0.24 -0.969,-0.482 -0.489,-0.481C-0.111,-0.481 0.359,-0.141 0.362,0.133C0.365,0.386 0.169,0.468 -0.521,0.476" style="fill:rgb(35,31,32);"/>
            </g>
            <g transform="matrix(1,0,0,1,525.82,227.018)">
                <path d="M0,0.078C0.299,0.19 0.576,0.321 0.882,0.154C0.954,0.115 0.95,0.017 0.879,-0.01C0.587,-0.118 0.292,-0.18 0,0.078M0.678,0.446C0.35,0.45 0.033,0.435 -0.257,0.318C-0.531,0.206 -0.599,-0.027 -0.326,-0.187C0.105,-0.442 0.591,-0.484 1.071,-0.31C1.288,-0.232 1.423,-0.044 1.364,0.18C1.264,0.562 0.912,0.393 0.678,0.446" style="fill:rgb(35,31,32);"/>
            </g>
            <g transform="matrix(1,0,0,1,492.627,216.29)">
                <path d="M0,-17.408C0.135,-17.417 0.257,-17.412 0.373,-17.437C0.543,-17.473 0.713,-17.518 0.875,-17.58C1.247,-17.72 1.278,-17.915 0.981,-18.185C0.452,-18.666 -0.031,-18.432 -0.51,-18.092C-0.641,-17.999 -0.895,-18.003 -0.836,-17.759C-0.786,-17.554 -0.604,-17.47 -0.396,-17.452C-0.259,-17.441 -0.121,-17.422 0,-17.408M2.265,-15.634C3.094,-15.678 3.612,-16.131 3.787,-16.873C3.891,-17.309 3.623,-17.304 3.403,-17.213C2.854,-16.984 2.372,-16.638 1.966,-16.195C1.855,-16.076 1.852,-15.93 1.923,-15.808C1.99,-15.694 2.095,-15.58 2.265,-15.634M-0.69,-18.783C-0.527,-18.774 -0.404,-18.756 -0.284,-18.765C-0.11,-18.779 0.064,-18.799 0.232,-18.841C0.596,-18.932 0.67,-19.197 0.399,-19.455C0.115,-19.727 -0.254,-19.816 -0.622,-19.759C-1.005,-19.7 -1.631,-19.822 -1.657,-19.317C-1.687,-18.726 -1.066,-18.829 -0.69,-18.783M3.083,-18.325C3.326,-18.378 3.609,-18.455 3.897,-18.501C4.125,-18.538 4.242,-18.658 4.256,-18.876C4.269,-19.092 4.142,-19.221 3.96,-19.323C3.385,-19.644 2.591,-19.504 2.193,-18.996C1.983,-18.728 2.099,-18.529 2.372,-18.434C2.58,-18.362 2.813,-18.363 3.083,-18.325M-3.957,-18.095C-3.771,-18.095 -3.7,-18.088 -3.632,-18.096C-3.218,-18.144 -2.767,-18.241 -2.729,-18.718C-2.693,-19.158 -3.09,-19.342 -3.479,-19.458C-4.03,-19.622 -4.592,-19.588 -5.141,-19.504C-5.539,-19.443 -5.84,-19.114 -5.871,-18.737C-5.903,-18.359 -5.478,-18.288 -5.19,-18.23C-4.749,-18.141 -4.292,-18.128 -3.957,-18.095M6.106,-17.127C6.557,-17.172 7.011,-17.196 7.457,-17.265C7.988,-17.349 8.323,-17.907 8.012,-18.187C7.667,-18.498 7.21,-18.742 6.764,-18.754C6.033,-18.773 5.306,-18.627 4.657,-18.226C4.459,-18.103 4.238,-18.014 4.302,-17.72C4.365,-17.428 4.566,-17.282 4.851,-17.234C5.266,-17.163 5.684,-17.129 6.106,-17.127M3.093,2.884C2.562,3.068 2.036,3.021 1.567,2.935C0.077,2.662 -1.471,2.63 -2.896,2.105C-4.213,1.62 -5.576,1.25 -6.826,0.576C-7.591,0.165 -8.387,-0.195 -9.155,-0.603C-10.97,-1.567 -11.889,-3.07 -12.149,-5.104C-12.362,-6.772 -12.414,-8.445 -12.549,-10.115C-12.559,-10.237 -12.667,-10.409 -12.486,-10.49C-12.338,-10.555 -12.23,-10.413 -12.107,-10.356C-11.313,-9.985 -10.591,-9.43 -9.668,-9.379C-9.84,-9.638 -9.84,-9.638 -10.147,-9.72C-11.246,-10.009 -12.162,-10.661 -13.122,-11.223C-13.426,-11.402 -13.523,-11.746 -13.653,-12.049C-14.521,-14.074 -14.208,-14.81 -12.924,-16.345C-12.234,-17.168 -11.385,-17.873 -10.432,-18.412C-9.258,-19.075 -7.984,-19.494 -6.693,-19.851C-5.003,-20.317 -3.286,-20.476 -1.529,-20.327C1.186,-20.097 3.866,-19.673 6.548,-19.203C8.305,-18.895 10.032,-18.493 11.763,-18.087C11.966,-18.039 12.178,-17.995 12.28,-17.762C12.211,-17.603 12.055,-17.604 11.931,-17.629C10.912,-17.837 9.95,-17.545 8.993,-17.284C6.432,-16.588 4.041,-15.517 1.896,-13.935C1.309,-13.502 0.651,-13.157 0.203,-12.546C-0.58,-11.476 -0.896,-10.308 -0.592,-8.999C-0.451,-8.398 0.036,-8.077 0.535,-7.918C1.543,-7.597 1.669,-6.836 1.646,-5.985C1.634,-5.535 1.491,-5.091 1.443,-4.639C1.321,-3.475 1.339,-2.305 1.396,-1.139C1.416,-0.721 1.369,-0.303 1.418,0.112C1.584,1.539 1.85,1.978 3.093,2.884" style="fill:rgb(187,134,38);"/>
            </g>
            <g transform="matrix(1,0,0,1,513.617,211.154)">
                <path d="M0,15.065C-1.023,15.127 -2.014,14.916 -3.008,14.734C-4.097,14.535 -4.527,13.489 -3.851,12.631C-3.755,12.511 -3.704,12.357 -3.624,12.223C-3.532,12.069 -3.252,11.984 -3.373,11.756C-3.486,11.543 -3.74,11.482 -3.969,11.483C-4.854,11.492 -5.708,11.308 -6.535,11.035C-7.892,10.586 -9.332,10.326 -10.576,9.618C-11.391,9.156 -12.264,8.692 -12.8,7.836C-12.962,7.577 -12.986,7.277 -13.134,7.018C-13.211,6.881 -13.082,6.81 -12.985,6.727C-11.609,5.541 -10.211,4.382 -8.797,3.24C-7.899,2.516 -6.934,1.896 -5.955,1.312C-4.449,0.411 -2.83,-0.062 -1.014,0.273C0.666,0.582 2.366,0.789 4.012,1.259C4.719,1.461 5.379,1.804 5.718,2.53C5.822,2.752 5.956,2.739 6.141,2.649C7.793,1.85 9.256,2.432 10.587,3.384C11.219,3.835 11.82,4.392 12.125,5.195C12.397,5.918 12.357,6.538 12.039,7.25C11.271,8.969 10.053,10.241 8.559,11.351C7.381,12.225 6.278,13.193 4.986,13.911C3.429,14.777 1.743,15.038 0,15.065" style="fill:rgb(247,233,216);"/>
            </g>
            <g transform="matrix(1,0,0,1,510.294,215.545)">
                <path d="M0,-13.458C0.063,-12.183 -0.295,-11.221 -1.156,-10.462C-1.301,-10.335 -1.44,-10.201 -1.572,-10.061C-1.825,-9.791 -1.979,-9.521 -1.918,-9.094C-1.779,-8.131 -1.59,-7.164 -1.696,-6.182C-1.742,-5.75 -1.789,-5.317 -1.96,-4.906C-2.084,-4.606 -1.863,-4.273 -2.067,-3.951C-2.18,-3.771 -2.257,-3.582 -2.448,-3.477C-4.873,-2.145 -6.944,-0.329 -9.089,1.387C-9.671,1.854 -10.264,2.301 -10.78,2.852C-10.961,3.044 -11.339,3.074 -11.636,3.129C-12.553,3.299 -13.471,3.3 -14.396,3.147C-15.367,2.986 -15.582,2.205 -15.797,1.465C-16.005,0.745 -15.981,-0.013 -15.948,-0.765C-15.919,-1.426 -15.905,-2.092 -15.941,-2.753C-15.993,-3.706 -15.712,-4.623 -15.702,-5.568C-15.693,-6.474 -16.024,-7.154 -16.924,-7.402C-17.93,-7.68 -18.186,-8.751 -18.093,-9.527C-17.909,-11.059 -16.986,-12.019 -15.784,-12.903C-13.984,-14.225 -11.985,-15.106 -9.946,-15.923C-8.826,-16.372 -7.598,-16.322 -6.421,-16.514C-4.928,-16.758 -3.437,-16.737 -1.977,-16.292C-1.564,-16.167 -1.17,-15.985 -0.795,-15.759C-0.098,-15.336 -0.044,-14.646 -0.002,-13.946C0.011,-13.737 0,-13.526 0,-13.458" style="fill:rgb(247,233,216);"/>
            </g>
            <g transform="matrix(1,0,0,1,519.951,220.064)">
                <path d="M0,6.241C-0.656,6.874 -1.507,7.146 -2.318,7.494C-3.152,7.851 -4.028,7.886 -4.921,7.943C-5.922,8.008 -6.902,7.945 -7.887,7.824C-8.62,7.735 -9.299,7.444 -9.954,7.134C-10.599,6.829 -10.485,6.141 -10.617,5.626C-6.86,6.974 -3.308,6.692 0.101,4.483C0.185,5.031 0.526,5.096 1.001,4.972C1.373,4.875 1.76,4.823 2.057,4.554C2.207,4.418 2.379,4.274 2.271,4.016C2.164,3.759 1.962,3.699 1.718,3.72C1.529,3.737 1.343,3.77 1.112,3.749C3.018,2.118 5.184,0.73 6.135,-1.767C6.187,-0.363 5.918,0.914 5.057,2.021C4.925,2.189 4.861,2.192 4.688,2.074C4.228,1.761 3.791,1.934 3.38,2.213C3.202,2.333 3.127,2.512 3.194,2.716C3.266,2.93 3.454,2.985 3.661,2.97C3.85,2.956 4.036,2.931 4.298,2.904C3.471,3.912 2.524,4.68 1.497,5.343C1.006,5.66 0.57,6.082 -0.012,6.25C0.102,6.039 0.43,5.917 0.252,5.586C0.151,5.399 -0.003,5.273 -0.206,5.307C-0.602,5.372 -0.985,5.497 -1.246,5.83C-1.463,6.105 -1.348,6.366 -1.005,6.432C-0.643,6.501 -0.33,6.332 0,6.241" style="fill:rgb(187,134,38);"/>
            </g>
            <g transform="matrix(1,0,0,1,499.742,223.668)">
                <path d="M0,-3.976C0,-4.081 -0.006,-4.186 0.001,-4.29C0.021,-4.586 0.032,-5.019 0.261,-5.083C0.511,-5.153 0.562,-4.708 0.713,-4.497C0.875,-4.274 1.038,-4.024 1.262,-3.876C2.331,-3.166 3.322,-2.33 4.632,-2.027C5.903,-1.733 7.093,-1.145 8.387,-0.914C8.814,-0.838 9.247,-0.785 9.679,-0.736C9.934,-0.707 10.095,-0.702 9.887,-0.371C9.64,0.022 9.353,0.396 9.244,0.877C9.177,1.177 8.856,1.076 8.659,1.011C6.928,0.439 5.113,0.128 3.471,-0.737C2.677,-1.155 1.764,-1.324 0.943,-1.725C0.631,-1.877 0.447,-2.065 0.313,-2.362C0.082,-2.877 -0.037,-3.411 0,-3.976" style="fill:rgb(187,134,38);"/>
            </g>
            <g transform="matrix(0.316228,0.948683,0.948683,-0.316228,520.608,223.746)">
                <path d="M0.87,-0.55C0.566,-0.072 0.475,0.359 0.642,0.833C0.684,0.954 0.677,1.15 0.87,1.129C1.058,1.109 1.1,0.933 1.116,0.773C1.16,0.338 1.095,-0.078 0.87,-0.55" style="fill:rgb(255,246,141);"/>
            </g>
            <g transform="matrix(0.407515,0.913199,0.913199,-0.407515,523.635,222.194)">
                <path d="M0.392,-0.337C0.353,-0.32 0.327,-0.317 0.322,-0.305C0.196,-0.012 0.287,0.267 0.392,0.539C0.412,0.59 0.536,0.606 0.558,0.52C0.631,0.211 0.607,-0.085 0.392,-0.337" style="fill:rgb(255,246,141);"/>
            </g>
            <g transform="matrix(-0.146812,0.989164,0.989164,0.146812,529.387,224.641)">
                <path d="M0.923,-0.995C0.578,-0.436 0.776,0.111 0.744,0.636C0.74,0.717 0.827,0.792 0.923,0.796C1.002,0.8 1.046,0.74 1.058,0.667C1.15,0.126 1.302,-0.42 0.923,-0.995" style="fill:rgb(255,246,141);"/>
            </g>
            <g transform="matrix(1,0,0,1,490.528,221.648)">
                <path d="M0,-0.817C0.354,-0.84 0.727,-0.813 0.998,-0.457C1.164,-0.239 1.156,-0.121 0.864,-0.073C0.28,0.023 -0.277,-0.115 -0.834,-0.256C-0.957,-0.287 -1.062,-0.37 -1.062,-0.507C-1.062,-0.657 -0.937,-0.698 -0.815,-0.735C-0.562,-0.813 -0.303,-0.83 0,-0.817" style="fill:rgb(255,246,141);"/>
            </g>
            <g transform="matrix(1,0,0,1,524.881,224.499)">
                <path d="M0,0.913C-0.147,0.894 -0.269,0.875 -0.391,0.864C-0.575,0.847 -0.837,0.918 -0.89,0.689C-0.945,0.451 -0.703,0.334 -0.516,0.247C-0.247,0.123 0.033,0.033 0.337,0.016C0.72,-0.005 0.907,0.246 0.941,0.541C0.977,0.851 0.662,0.83 0.442,0.859C0.287,0.88 0.131,0.897 0,0.913" style="fill:rgb(255,246,141);"/>
            </g>
            <g transform="matrix(1,0,0,1,494.085,220.61)">
                <path d="M0,0.246C0.785,-0.184 1.676,-0.149 2.01,0.293C1.352,0.43 0.72,0.386 0,0.246" style="fill:rgb(255,246,141);"/>
            </g>
            <g transform="matrix(1,0,0,1,494.19,221.971)">
                <path d="M0,0.016C-0.522,0.33 -0.958,0.207 -1.464,0.064C-0.966,-0.314 -0.528,-0.133 0,0.016" style="fill:rgb(255,246,141);"/>
            </g>
            <g transform="matrix(-0.0366185,-0.999329,-0.999329,0.0366185,527.746,222.872)">
                <path d="M-0.447,-0.453C-0.498,-0.415 -0.518,-0.408 -0.526,-0.394C-0.67,-0.115 -0.573,0.142 -0.447,0.394C-0.435,0.417 -0.351,0.427 -0.317,0.41C-0.203,0.355 -0.224,0.227 -0.447,-0.453" style="fill:rgb(255,246,141);"/>
            </g>
            <g transform="matrix(1,0,0,1,525.82,227.081)">
                <path d="M0,0.015C0.292,-0.243 0.587,-0.181 0.879,-0.073C0.95,-0.046 0.954,0.052 0.882,0.091C0.576,0.258 0.299,0.127 0,0.015" style="fill:rgb(255,246,141);"/>
            </g>
            <g transform="matrix(1,0,0,1,498.875,197.816)">
                <path d="M0,1.048C0.416,1.004 0.841,1.062 1.249,0.923C1.422,0.864 1.513,0.768 1.514,0.585C1.515,0.412 1.396,0.331 1.262,0.288C0.37,-0.001 -0.511,-0.012 -1.359,0.437C-1.485,0.504 -1.673,0.58 -1.628,0.778C-1.587,0.961 -1.402,0.998 -1.253,1.009C-0.837,1.041 -0.42,1.118 0,1.048M-0.142,1.347C-0.564,1.345 -0.982,1.311 -1.397,1.241C-1.682,1.193 -1.883,1.047 -1.946,0.755C-2.01,0.461 -1.789,0.371 -1.591,0.249C-0.942,-0.152 -0.215,-0.299 0.516,-0.279C0.962,-0.267 1.419,-0.023 1.764,0.287C2.075,0.568 1.74,1.126 1.209,1.209C0.763,1.279 0.309,1.303 -0.142,1.347" style="fill:rgb(35,31,32);"/>
            </g>
            <g transform="matrix(1,0,0,1,488.466,196.943)">
                <path d="M0,0.984C0.206,0.969 0.422,0.986 0.616,0.929C0.799,0.875 1.063,0.876 1.098,0.606C1.134,0.307 0.871,0.261 0.677,0.157C-0.019,-0.218 -0.619,0.15 -1.214,0.422C-1.475,0.541 -1.317,0.697 -1.12,0.765C-0.759,0.891 -0.392,0.991 0,0.984M0.203,1.253C-0.132,1.219 -0.589,1.206 -1.03,1.117C-1.317,1.059 -1.743,0.988 -1.711,0.61C-1.68,0.233 -1.379,-0.096 -0.98,-0.157C-0.432,-0.241 0.13,-0.275 0.681,-0.111C1.07,0.005 1.467,0.19 1.432,0.629C1.394,1.106 0.942,1.203 0.528,1.251C0.46,1.259 0.389,1.253 0.203,1.253" style="fill:rgb(35,31,32);"/>
            </g>
            <g transform="matrix(1,0,0,1,496.046,197.353)">
                <path d="M0,-0.094C-0.002,-0.102 -0.003,-0.109 -0.004,-0.116C-0.243,-0.087 -0.484,-0.065 -0.723,-0.024C-0.821,-0.007 -0.947,0.031 -0.945,0.157C-0.944,0.301 -0.804,0.281 -0.711,0.301C-0.358,0.374 -0.021,0.257 0.321,0.211C0.429,0.197 0.534,0.138 0.515,0.013C0.491,-0.128 0.354,-0.082 0.26,-0.092C0.174,-0.101 0.086,-0.094 0,-0.094M-0.337,0.613C-0.606,0.574 -0.84,0.575 -1.048,0.503C-1.321,0.408 -1.437,0.209 -1.227,-0.059C-0.829,-0.567 -0.035,-0.707 0.54,-0.386C0.722,-0.284 0.849,-0.155 0.836,0.061C0.822,0.279 0.705,0.399 0.478,0.436C0.189,0.482 -0.094,0.559 -0.337,0.613" style="fill:rgb(35,31,32);"/>
            </g>
            <g transform="matrix(1,0,0,1,492.828,196.931)">
                <path d="M0,0.17C-0.367,-0.192 -1.114,-0.277 -1.451,-0.024C-1.607,0.093 -1.556,0.182 -1.397,0.217C-0.942,0.318 -0.483,0.432 0,0.17M-0.892,0.576C-1.268,0.529 -1.889,0.633 -1.858,0.042C-1.832,-0.463 -1.206,-0.341 -0.823,-0.4C-0.455,-0.457 -0.086,-0.368 0.198,-0.097C0.469,0.162 0.395,0.426 0.031,0.518C-0.137,0.56 -0.312,0.58 -0.485,0.593C-0.605,0.603 -0.729,0.585 -0.892,0.576" style="fill:rgb(35,31,32);"/>
            </g>
            <g transform="matrix(1,0,0,1,494.743,199.279)">
                <path d="M0,1.131C0.57,1.113 0.926,0.841 1.288,0.592C1.385,0.526 1.473,0.404 1.395,0.278C1.321,0.161 1.172,0.158 1.067,0.217C0.684,0.436 0.279,0.636 0,1.131M0.148,1.378C-0.021,1.43 -0.126,1.317 -0.193,1.202C-0.265,1.081 -0.261,0.935 -0.15,0.816C0.256,0.373 0.738,0.027 1.287,-0.202C1.507,-0.294 1.774,-0.299 1.671,0.138C1.496,0.88 0.978,1.333 0.148,1.378" style="fill:rgb(35,31,32);"/>
            </g>
            <g transform="matrix(1,0,0,1,492.163,197.887)">
                <path d="M0,0.731C0.452,0.691 0.757,0.667 1.062,0.634C1.155,0.625 1.236,0.559 1.24,0.47C1.243,0.372 1.151,0.325 1.059,0.32C0.709,0.3 0.372,0.322 0,0.731M0.464,0.995C0.343,0.981 0.205,0.962 0.067,0.95C-0.141,0.933 -0.322,0.849 -0.372,0.644C-0.431,0.399 -0.177,0.403 -0.046,0.311C0.433,-0.03 0.916,-0.264 1.445,0.217C1.742,0.487 1.711,0.682 1.339,0.823C1.177,0.884 1.007,0.93 0.837,0.966C0.721,0.99 0.599,0.985 0.464,0.995" style="fill:rgb(35,31,32);"/>
            </g>
            <g transform="matrix(1,0,0,1,518.928,225.747)">
                <path d="M0,0.408C0.443,0.522 0.747,0.38 1.01,0.139C1.074,0.081 1.035,-0.053 0.935,-0.061C0.565,-0.092 0.279,0.066 0,0.408M1.022,0.558C0.692,0.649 0.38,0.818 0.018,0.749C-0.325,0.683 -0.44,0.422 -0.224,0.147C0.037,-0.186 0.421,-0.311 0.816,-0.376C1.02,-0.41 1.174,-0.284 1.274,-0.097C1.452,0.234 1.124,0.356 1.011,0.567L1.022,0.558Z" style="fill:rgb(35,31,32);"/>
            </g>
            <g transform="matrix(1,0,0,1,498.875,197.875)">
                <path d="M0,0.988C-0.42,1.059 -0.837,0.982 -1.253,0.95C-1.402,0.939 -1.587,0.902 -1.628,0.719C-1.673,0.521 -1.485,0.445 -1.359,0.378C-0.511,-0.071 0.37,-0.06 1.262,0.229C1.396,0.272 1.515,0.353 1.514,0.526C1.513,0.709 1.422,0.805 1.249,0.864C0.841,1.003 0.416,0.945 0,0.988" style="fill:rgb(255,246,141);"/>
            </g>
            <g transform="matrix(1,0,0,1,488.466,196.732)">
                <path d="M0,1.195C-0.392,1.202 -0.759,1.102 -1.12,0.976C-1.317,0.908 -1.475,0.752 -1.214,0.633C-0.619,0.361 -0.019,-0.007 0.677,0.368C0.871,0.472 1.134,0.518 1.098,0.817C1.063,1.087 0.799,1.086 0.616,1.14C0.422,1.197 0.206,1.18 0,1.195" style="fill:rgb(255,246,141);"/>
            </g>
            <g transform="matrix(1,0,0,1,496.046,197.693)">
                <path d="M0,-0.434C0.086,-0.434 0.174,-0.441 0.26,-0.432C0.354,-0.422 0.491,-0.468 0.515,-0.327C0.534,-0.202 0.429,-0.143 0.321,-0.129C-0.021,-0.083 -0.358,0.034 -0.711,-0.039C-0.804,-0.059 -0.944,-0.039 -0.945,-0.183C-0.947,-0.309 -0.821,-0.347 -0.723,-0.364C-0.484,-0.405 -0.243,-0.427 -0.004,-0.456C-0.003,-0.449 -0.002,-0.442 0,-0.434" style="fill:rgb(255,246,141);"/>
            </g>
            <g transform="matrix(1,0,0,1,492.828,196.916)">
                <path d="M0,0.185C-0.483,0.447 -0.942,0.333 -1.397,0.232C-1.556,0.197 -1.607,0.108 -1.451,-0.009C-1.114,-0.262 -0.367,-0.177 0,0.185" style="fill:rgb(255,246,141);"/>
            </g>
            <g transform="matrix(0.521673,0.853146,0.853146,-0.521673,494.68,199.549)">
                <path d="M0.767,-0.396C0.491,0.101 0.531,0.55 0.544,0.991C0.549,1.112 0.629,1.237 0.767,1.239C0.916,1.24 0.974,1.102 0.979,0.984C1.003,0.546 1.049,0.1 0.767,-0.396" style="fill:rgb(255,246,141);"/>
            </g>
            <g transform="matrix(0.205971,0.978558,0.978558,-0.205971,492.445,197.839)">
                <path d="M0.704,-0.437C0.381,0.011 0.429,0.346 0.52,0.684C0.544,0.773 0.609,0.853 0.704,0.83C0.791,0.808 0.839,0.715 0.828,0.622C0.798,0.317 0.758,0.013 0.704,-0.437" style="fill:rgb(255,246,141);"/>
            </g>
            <g transform="matrix(1,0,0,1,518.928,225.769)">
                <path d="M0,0.386C0.279,0.044 0.565,-0.114 0.935,-0.083C1.035,-0.075 1.074,0.059 1.01,0.117C0.747,0.358 0.443,0.5 0,0.386" style="fill:rgb(255,246,141);"/>
            </g>
            <g opacity="0.5">
                <g transform="matrix(0,-1,-1,0,511.897,221.552)">
                    <path d="M-0.686,-0.686C-0.883,-0.686 -1.042,-0.379 -1.042,0C-1.042,0.377 -0.883,0.686 -0.686,0.686C-0.489,0.686 -0.33,0.377 -0.33,0C-0.33,-0.379 -0.489,-0.686 -0.686,-0.686" style="fill:rgb(187,134,38);"/>
                </g>
            </g>
            <g transform="matrix(0,-1,-1,0,510.911,223.498)">
                <path d="M-0.412,-0.411C-0.533,-0.411 -0.631,-0.226 -0.631,0.001C-0.631,0.228 -0.533,0.412 -0.412,0.412C-0.29,0.412 -0.192,0.228 -0.192,0.001C-0.192,-0.226 -0.29,-0.411 -0.412,-0.411" style="fill:rgb(187,134,38);"/>
            </g>
            <g transform="matrix(0,-1,-1,0,512.281,223.334)">
                <path d="M-0.192,-0.191C-0.283,-0.191 -0.356,-0.106 -0.356,0C-0.356,0.107 -0.283,0.192 -0.192,0.192C-0.101,0.192 -0.027,0.107 -0.027,0C-0.027,-0.106 -0.101,-0.191 -0.192,-0.191" style="fill:rgb(187,134,38);"/>
            </g>
            <g transform="matrix(0,-1,-1,0,512.857,224.265)">
                <path d="M-0.603,-0.603C-0.77,-0.603 -0.904,-0.332 -0.904,0.001C-0.904,0.334 -0.77,0.603 -0.603,0.603C-0.436,0.603 -0.302,0.334 -0.302,0.001C-0.302,-0.332 -0.436,-0.603 -0.603,-0.603" style="fill:rgb(187,134,38);"/>
            </g>
            <g transform="matrix(0,-1,-1,0,514.638,223.005)">
                <path d="M-0.302,-0.302C-0.363,-0.302 -0.411,-0.166 -0.411,0.001C-0.411,0.167 -0.363,0.302 -0.302,0.302C-0.241,0.302 -0.192,0.167 -0.192,0.001C-0.192,-0.166 -0.241,-0.302 -0.302,-0.302" style="fill:rgb(187,134,38);"/>
            </g>
            <g opacity="0.5">
                <g transform="matrix(0,-1,-1,0,494.084,206.589)">
                    <path d="M-0.466,-0.466C-0.693,-0.466 -0.877,-0.258 -0.877,0C-0.877,0.257 -0.693,0.466 -0.466,0.466C-0.239,0.466 -0.055,0.257 -0.055,0C-0.055,-0.258 -0.239,-0.466 -0.466,-0.466" style="fill:rgb(187,134,38);"/>
                </g>
            </g>
            <g transform="matrix(0,-1,-1,0,495.399,207.767)">
                <path d="M-0.302,-0.302C-0.453,-0.302 -0.576,-0.167 -0.576,0C-0.576,0.166 -0.453,0.302 -0.302,0.302C-0.151,0.302 -0.028,0.166 -0.028,0C-0.028,-0.167 -0.151,-0.302 -0.302,-0.302" style="fill:rgb(187,134,38);"/>
            </g>
            <g transform="matrix(0,-1,-1,0,496.605,208.069)">
                <path d="M-0.192,-0.192C-0.267,-0.192 -0.329,-0.106 -0.329,-0.001C-0.329,0.107 -0.267,0.192 -0.192,0.192C-0.115,0.192 -0.054,0.107 -0.054,-0.001C-0.054,-0.106 -0.115,-0.192 -0.192,-0.192" style="fill:rgb(187,134,38);"/>
            </g>
            <g opacity="0.5">
                <g transform="matrix(0,-1,-1,0,495.755,209.906)">
                    <path d="M-0.438,-0.439C-0.756,-0.439 -1.014,-0.243 -1.014,-0.001C-1.014,0.242 -0.756,0.438 -0.438,0.438C-0.12,0.438 0.137,0.242 0.137,-0.001C0.137,-0.243 -0.12,-0.439 -0.438,-0.439" style="fill:rgb(187,134,38);"/>
                </g>
            </g>
            <g transform="matrix(0,-1,-1,0,496.495,212.07)">
                <path d="M-0.192,-0.192C-0.268,-0.192 -0.329,-0.106 -0.329,-0.001C-0.329,0.106 -0.268,0.192 -0.192,0.192C-0.116,0.192 -0.055,0.106 -0.055,-0.001C-0.055,-0.106 -0.116,-0.192 -0.192,-0.192" style="fill:rgb(187,134,38);"/>
            </g>
            <g opacity="0.5">
                <g transform="matrix(0,-1,-1,0,495.865,213.303)">
                    <path d="M-0.33,-0.328C-0.647,-0.328 -0.905,-0.181 -0.905,0.001C-0.905,0.183 -0.647,0.33 -0.33,0.33C-0.012,0.33 0.247,0.183 0.247,0.001C0.247,-0.181 -0.012,-0.328 -0.33,-0.328" style="fill:rgb(187,134,38);"/>
                </g>
            </g>
            <g transform="matrix(0,-1,-1,0,497.783,213.605)">
                <path d="M-0.274,-0.274C-0.396,-0.274 -0.494,-0.152 -0.494,-0.001C-0.494,0.151 -0.396,0.274 -0.274,0.274C-0.153,0.274 -0.055,0.151 -0.055,-0.001C-0.055,-0.152 -0.153,-0.274 -0.274,-0.274" style="fill:rgb(187,134,38);"/>
            </g>
            <g transform="matrix(0,-1,-1,0,499.455,213.166)">
                <path d="M-0.192,-0.192C-0.328,-0.192 -0.439,-0.106 -0.439,0C-0.439,0.106 -0.328,0.192 -0.192,0.192C-0.056,0.192 0.055,0.106 0.055,0C0.055,-0.106 -0.056,-0.192 -0.192,-0.192" style="fill:rgb(187,134,38);"/>
            </g>
            <g transform="matrix(0,-1,-1,0,498.798,214.481)">
                <path d="M-0.247,-0.247C-0.383,-0.247 -0.494,-0.136 -0.494,0C-0.494,0.137 -0.383,0.247 -0.247,0.247C-0.111,0.247 0,0.137 0,0C0,-0.136 -0.111,-0.247 -0.247,-0.247" style="fill:rgb(187,134,38);"/>
            </g>
            <g opacity="0.5">
                <g transform="matrix(0,-1,-1,0,497.536,214.673)">
                    <path d="M-0.302,-0.302C-0.454,-0.302 -0.576,-0.167 -0.576,0C-0.576,0.166 -0.454,0.302 -0.302,0.302C-0.151,0.302 -0.028,0.166 -0.028,0C-0.028,-0.167 -0.151,-0.302 -0.302,-0.302" style="fill:rgb(187,134,38);"/>
                </g>
            </g>
            <g opacity="0.5">
                <g transform="matrix(0,-1,-1,0,496.248,217.359)">
                    <path d="M-0.384,-0.384C-0.581,-0.384 -0.74,-0.212 -0.74,0C-0.74,0.212 -0.581,0.384 -0.384,0.384C-0.187,0.384 -0.028,0.212 -0.028,0C-0.028,-0.212 -0.187,-0.384 -0.384,-0.384" style="fill:rgb(187,134,38);"/>
                </g>
            </g>
            <g transform="matrix(0,-1,-1,0,496.852,216.811)">
                <path d="M-0.274,-0.274C-0.41,-0.274 -0.521,-0.152 -0.521,0C-0.521,0.152 -0.41,0.274 -0.274,0.274C-0.138,0.274 -0.027,0.152 -0.027,0C-0.027,-0.152 -0.138,-0.274 -0.274,-0.274" style="fill:rgb(187,134,38);"/>
            </g>
            <g opacity="0.4">
                <g transform="matrix(1,0,0,1,489.671,203.581)">
                    <path d="M0,-7.515C-0.398,-7.621 -1.06,-7.42 -1.475,-7.342C-2.071,-7.228 -2.6,-7.118 -3.178,-6.911C-4.319,-6.502 -5.575,-6.283 -6.632,-5.664C-7.569,-5.115 -8.452,-4.593 -9.11,-3.735C-9.475,-3.261 -9.87,-2.768 -9.59,-2.256C-9.283,-1.696 -8.556,-1.36 -8.004,-1.102C-7.067,-0.665 -5.874,-0.226 -4.823,-0.171C-4.136,-0.135 -3.016,0.106 -2.622,-0.613C-3.454,-1.42 -4.888,-1.534 -5.783,-2.304C-7.009,-3.36 -6.158,-4.692 -5.152,-5.499C-4.425,-6.083 -3.686,-6.381 -2.838,-6.705C-1.96,-7.041 -1.305,-7.453 -0.329,-7.46" style="fill:white;"/>
                </g>
            </g>
        </g>
    </g>
</svg>
