<svg clip-rule="evenodd" fill-rule="evenodd" stroke-linejoin="round" stroke-miterlimit="2" viewBox="0 0 185 112" xmlns="http://www.w3.org/2000/svg"><g transform="translate(-3 -52)"><path d="m185.906 69.875c-.466-.672-9.203 2.692-10.656 3.125-12.542 3.743-22.35 7.815-26.562 21.531l.187.063c-.583 1.9-.91 3.889-.094 4.469.038.026.058.065.094.093l-.719.032c-.284 3.312.36 6.465.282 9.75-.182 7.57-3 14.361 5.937 18.093 6.077 2.538 14.374.384 20.063-2.187 1.283-.58 6.776-2.187 5.718-4.5-.353-.772-3.392-2.335-4.281-3.5-3.004-3.938-2.785-8.795-7.813-10.969-3.434-1.485-9.975-1.786-13.093-3.875 1.248.032 3.063.032 5.469-.344 5.944-.929 12.457-2.385 17.406-5.906 6.747-4.801 3.95-9.841 4.875-16.406.375-2.664 5.733-5.799 3.187-9.469z"/><path d="m185.781 70.531c-.132 1.282-3.87 5.988-4.219 8.407-.904 6.276 2.468 11.65-4.5 15.968-9.762 6.051-33.351 10.368-25.874-3.031l-.844-.5c3.941-8.961 13.301-14.765 22.594-16.531 2.854-.543 5.722-1.308 8.437-2.313.999-.369 2.076-.837 3.063-1.25.467-.195 1.395-1.254 1.343-.75z" fill="#a1b6c5"/><path d="m149.5 99.813c.523.615 1.008 1.272 1.969 1.718.624.29 2.595.845 2 .5-.043-.025.339.01.375 0l-.282.531c2.344 2.375 12.394 3.371 16.469 6.032 2.504 1.634 2.738 6.634 4.688 9.094.736.929 1.902 2.067 2.843 2.812.589.465 2.802 1.067 2.063.938-2.889-.506-8.117 3.106-11.781 3.874-22.01 4.617-17.132-10.923-18.344-25.499z" fill="#a1b6c5"/><path d="m152.363 98.523c1.391-1.187 1.589-3.645 2.838-5.147 7.391-8.879 20.208-20.589 31.595-23.729l.269.754c-14.977 4.037-23.539 19.171-34.632 28.199"/><path d="m159.471 97.961c7.134-5.693 14.299-10.762 21.899-15.891l.09.129c-7.158 5.523-14.934 10.055-21.507 16.243"/><path d="m152.057 102.949c4.79 9.315 9.544 13.982 20.257 16.792l-.024.087c-10.833-2.167-15.967-7.434-20.51-16.782"/><path d="m150.61 112.487c3.503 4.451 9.851 14.866 16.657 13.999l-.002.025c-6.66 1.787-13.634-9.549-16.916-13.818"/><path d="m161.853 105.972c3.286 3.51 7.322 7.183 11.432 9.701l-.047.069c-4.242-2.493-8.242-5.885-11.59-9.484"/><path d="m97.25 52.25c-2.378.08-5.09.588-8.25 1.625-4.341 1.425-8.312 3.399-12.281 5.625-5.376 3.015-10.661 6.287-15.094 10.594-.073-.003-.145-.028-.219-.031-5.098-.206-10.214.037-15.218.812-10.469 1.622-19.546 6.427-26.032 14.844-3.324 4.315-5.761 9.769-9.5 13.719-5.214 5.507-12.303 15.915-1.375 20.781 2.529 1.126 5.313 1.766 8.157 2.156l-.219.125c7.489 12.356 24.727 13.1 37.781 13.094 33.233-.017 70.215-11.879 94.625-35.344l-1.437-2.312c-9.624 1.306-17.287-1.322-24.719-5.157-1.903-2.279-3.856-3.84-5.188-7.187-5.216-13.108-4.385-33.903-21.031-33.344z"/><path d="m96.4 53.564c5.448-.408 10.327 1.5 13.782 7.469 4.285 7.406 3.639 22.148 9.156 29.781-4.436-2.549-8.904-5.27-13.781-7.875-13.028-6.958-28.07-11.595-43.094-12.343 8.043-4.679 22.213-16.153 33.937-17.032z" fill="#a1b6c5"/><path d="m55.688 71.031c9.345.131 18.843 2.077 26.093 4.125 10.098 2.854 19.868 7.181 29.219 11.938 7.246 3.686 13.713 9.376 21.469 12 4.674 1.581 8.081.622 12.912.017-.192.434 1.703 2.187 1.742 2.444-7.518 4.009-13.99 9.834-21.592 13.757-21.694 11.198-43.284 18.603-68.094 18.626-13.41.012-30.475.189-39.343-11.469 11.188 1.332 24.022-2.084 33.75-4.875 1.138-.327 8.065-3.141 11.406-5.438 1.647 2.277 3.345 4.324 4.031 4.125l.219-1.156c-.903-1.003-1.761-2.794-2.625-4.625.06-.145.212-.311.187-.438-.2-1.049-1.437-3.154-2.75-4.437-.593-.851-1.206-1.419-1.843-1.531-3.911-.688-.315 3.456.406 4.718.299.524.684.936 1.094 1.438.007.011-.007.021 0 .031-.39.258-.835.514-1.063.688-1.813 1.381-3.855 2.493-5.969 3.343-11.539 4.643-24.511 6.199-36.843 5.657-4.73-.208-11.653-1.469-12.875-7.063-1.379-6.307 6.909-11.913 9.968-16.625 4.415-6.798 8.884-13.49 15.344-18.531 6.618-5.163 15.811-6.849 25.156-6.719z" fill="#b8cfe4"/><path d="m71.147 69.909c6.831-6.024 14.186-11.227 22.611-14.766l.014.026c-8.002 4.189-15.158 9.642-22.233 15.21"/><path d="m85.527 71.802c6.186-4.295 13.16-8.972 20.456-11.042l.025.063c-7.003 3.051-13.761 7.205-20.072 11.5"/><path d="m97.915 77.164c2.873-1.584 7.798-5.496 10.946-5.733l.024.064c-3.69 1.279-7.411 3.956-10.877 5.777"/><path d="m147.812 100.469c.014-.008.018.047.032.031-.013.006-.019.025-.032.031-.006-.014.006-.047 0-.062z"/><path d="m69.276 132.656c-1.717 8.274-.129 16.077 4.145 21.735 4.275 5.658 11.235 9.169 20.262 8.859 8.907-.307 19.185-5.542 24.675-12.568 5.49-7.025 6.193-15.841-4.05-23.307-5.099-3.716-12.517-4.954-20.172-5.174-7.654-.22-15.546.578-21.593.934-.142-.015-.837 1.783-1.558 3.876s-1.467 4.481-1.709 5.645z"/><path d="m97.433 124.625c9.003.24 17.429 2.017 21.062 8.625 11.197 20.363-23.707 34.89-39 24.937-8.314-5.411-9.766-16.279-7.656-25.156.314-1.322 1.536-4.903 2.094-7.875 5.974.321 14.914-.761 23.5-.531z" fill="#a1b6c5"/><path d="m60.276 70.943c11.49 10.903 14.926 28.226 14.52 43.502-.071 2.689-3.73 18.82-3.286 19.762l-2-.4c3.066-21.986 6.668-43.996-10.26-61.838"/><path d="m93.64 129.848c6.66 3.39 10.048 5.805 15.132 11.147l-.009.01c-5.203-4.948-8.647-6.951-15.298-9.864"/><path d="m85.239 136.819c6.024 5.025 10.937 10.712 14.434 17.806l-.408.282c-3.901-6.385-9.013-12.208-14.547-17.213"/><path d="m73.073 123.884c-.14.749-.114 1.455-.103 2.206"/><path d="m32.41 96.338c-.795-2.05.762-4.952 3.477-6.482 2.716-1.529 5.562-1.108 6.357.942.795 2.049-.762 4.951-3.478 6.481s-5.562 1.108-6.356-.941z"/></g></svg>