<?xml version="1.0" encoding="UTF-8" standalone="no"?>
<!DOCTYPE svg PUBLIC "-//W3C//DTD SVG 1.1//EN" "http://www.w3.org/Graphics/SVG/1.1/DTD/svg11.dtd">
<svg width="100%" height="100%" viewBox="0 0 1649 1646" version="1.1" xmlns="http://www.w3.org/2000/svg" xmlns:xlink="http://www.w3.org/1999/xlink" xml:space="preserve" xmlns:serif="http://www.serif.com/" style="fill-rule:evenodd;clip-rule:evenodd;stroke-miterlimit:10;">
    <g transform="matrix(1,0,0,1,-240,-241)">
        <g transform="matrix(1,0,0,1,-11586.3,-2058.5)">
            <g transform="matrix(0,-5.55556,-5.55556,0,12650.8,2331.97)">
                <g>
                    <circle cx="-142.385" cy="0" r="142.385" style="fill:none;stroke:rgb(94,188,89);stroke-width:9.8px;"/>
                </g>
            </g>
            <g transform="matrix(-4.95431,-2.51377,-2.51377,4.95431,12830,2374.84)">
                <path d="M-32.163,134.692L110.222,134.692C110.222,81.144 80.016,31.946 32.263,7.717C-15.526,-16.531 -73.117,-11.829 -116.338,19.852L-32.163,134.692Z" style="fill:white;fill-rule:nonzero;stroke:rgb(196,218,89);stroke-width:1.03px;"/>
            </g>
            <g transform="matrix(5.55556,0,0,5.55556,12650.8,3557.82)">
                <path d="M0,-78.268L0.278,64.117L0,64.117C-78.11,64.117 -142.385,-0.158 -142.385,-78.268C-142.385,-100.538 -137.16,-122.501 -127.132,-142.385L0,-78.268Z" style="fill:white;fill-rule:nonzero;stroke:rgb(254,190,35);stroke-width:1.03px;"/>
            </g>
            <g transform="matrix(5.55556,0,0,5.55556,12651.6,3557.7)">
                <path d="M0,-78.268L-0.277,64.116C-0.185,64.117 -0.092,64.117 0,64.117C78.111,64.117 142.385,-0.158 142.385,-78.268C142.385,-100.538 137.161,-122.502 127.133,-142.385L0,-78.268Z" style="fill:white;fill-rule:nonzero;stroke:rgb(240,80,34);stroke-width:1.03px;"/>
            </g>
            <g transform="matrix(5.73924,0,0,5.73924,7175.3,128.118)">
                <g transform="matrix(12,0,0,12,890.798,470.443)">
                    <path d="M0.218,0.045C0.18,0.045 0.145,0.036 0.113,0.018C0.057,-0.015 0.029,-0.119 0.029,-0.296C0.029,-0.32 0.03,-0.344 0.032,-0.368C0.038,-0.47 0.051,-0.571 0.072,-0.67C0.081,-0.712 0.107,-0.737 0.149,-0.744C0.191,-0.751 0.22,-0.755 0.235,-0.755C0.269,-0.757 0.304,-0.758 0.338,-0.758C0.4,-0.758 0.463,-0.754 0.527,-0.747C0.553,-0.743 0.574,-0.733 0.588,-0.715C0.602,-0.697 0.609,-0.678 0.609,-0.657C0.609,-0.625 0.599,-0.601 0.578,-0.584C0.561,-0.57 0.541,-0.563 0.52,-0.563L0.513,-0.563C0.447,-0.569 0.381,-0.573 0.313,-0.573C0.307,-0.535 0.302,-0.497 0.297,-0.457L0.369,-0.453C0.395,-0.451 0.416,-0.442 0.432,-0.423C0.448,-0.405 0.457,-0.384 0.457,-0.359C0.456,-0.333 0.446,-0.31 0.426,-0.292C0.408,-0.277 0.386,-0.269 0.36,-0.269C0.334,-0.27 0.309,-0.271 0.284,-0.272C0.284,-0.192 0.29,-0.122 0.302,-0.063C0.304,-0.053 0.305,-0.044 0.305,-0.035C0.305,-0.013 0.299,0.005 0.286,0.018C0.269,0.036 0.246,0.045 0.218,0.045Z" style="fill:rgb(196,218,89);fill-rule:nonzero;"/>
                </g>
                <g transform="matrix(12,0,0,12,898.146,470.443)">
                    <path d="M0.22,0.035C0.183,0.035 0.153,0.03 0.129,0.02C0.106,0.01 0.088,-0.004 0.076,-0.022C0.064,-0.039 0.056,-0.06 0.054,-0.084C0.041,-0.226 0.035,-0.368 0.035,-0.51C0.035,-0.553 0.035,-0.596 0.036,-0.639C0.037,-0.668 0.043,-0.69 0.055,-0.703C0.067,-0.717 0.087,-0.726 0.115,-0.73C0.142,-0.734 0.181,-0.736 0.23,-0.736C0.268,-0.736 0.308,-0.733 0.349,-0.727C0.39,-0.722 0.43,-0.712 0.468,-0.7C0.506,-0.687 0.54,-0.67 0.57,-0.65C0.601,-0.629 0.625,-0.604 0.643,-0.574C0.661,-0.545 0.67,-0.51 0.67,-0.471C0.67,-0.409 0.643,-0.358 0.589,-0.318C0.544,-0.285 0.488,-0.262 0.422,-0.248C0.451,-0.204 0.493,-0.171 0.547,-0.148C0.586,-0.132 0.605,-0.103 0.605,-0.063C0.605,-0.051 0.602,-0.04 0.597,-0.028C0.581,0.011 0.553,0.03 0.513,0.03C0.501,0.03 0.489,0.027 0.477,0.022C0.408,-0.006 0.351,-0.045 0.306,-0.096C0.308,-0.075 0.309,-0.06 0.309,-0.052C0.309,-0.024 0.301,-0.003 0.286,0.011C0.268,0.027 0.246,0.035 0.22,0.035ZM0.29,-0.414C0.354,-0.42 0.403,-0.429 0.434,-0.441C0.466,-0.454 0.481,-0.467 0.481,-0.481C0.481,-0.494 0.465,-0.507 0.433,-0.519C0.4,-0.531 0.353,-0.54 0.29,-0.546L0.289,-0.494C0.289,-0.467 0.289,-0.441 0.29,-0.414Z" style="fill:rgb(196,218,89);fill-rule:nonzero;"/>
                </g>
                <g transform="matrix(12,0,0,12,906.39,470.443)">
                    <path d="M0.613,0.042C0.584,0.042 0.561,0.039 0.543,0.033C0.525,0.027 0.51,0.02 0.499,0.01C0.487,0 0.478,-0.01 0.471,-0.021C0.43,0.021 0.375,0.042 0.307,0.042C0.198,0.042 0.122,-0.016 0.078,-0.133C0.056,-0.189 0.043,-0.245 0.037,-0.302C0.032,-0.359 0.029,-0.41 0.029,-0.457C0.029,-0.529 0.034,-0.597 0.043,-0.661C0.05,-0.712 0.078,-0.737 0.126,-0.737C0.187,-0.736 0.231,-0.723 0.258,-0.697C0.283,-0.671 0.296,-0.643 0.296,-0.613C0.296,-0.608 0.295,-0.602 0.294,-0.597C0.292,-0.583 0.29,-0.56 0.287,-0.526C0.284,-0.493 0.282,-0.46 0.281,-0.428C0.279,-0.396 0.279,-0.369 0.279,-0.347C0.279,-0.222 0.295,-0.16 0.328,-0.16C0.364,-0.16 0.39,-0.22 0.407,-0.339C0.418,-0.42 0.426,-0.519 0.43,-0.636C0.432,-0.675 0.448,-0.701 0.48,-0.714C0.494,-0.719 0.51,-0.722 0.526,-0.722C0.562,-0.722 0.592,-0.716 0.615,-0.705C0.639,-0.693 0.656,-0.678 0.667,-0.659C0.678,-0.641 0.684,-0.621 0.684,-0.598C0.682,-0.5 0.682,-0.425 0.682,-0.375C0.682,-0.344 0.682,-0.314 0.682,-0.284C0.683,-0.209 0.689,-0.134 0.699,-0.06C0.7,-0.053 0.7,-0.046 0.7,-0.04C0.7,-0.006 0.687,0.018 0.661,0.031C0.647,0.038 0.631,0.042 0.613,0.042Z" style="fill:rgb(196,218,89);fill-rule:nonzero;"/>
                </g>
                <g transform="matrix(12,0,0,12,915.167,470.443)">
                    <path d="M0.384,0.055C0.315,0.055 0.267,0.036 0.241,-0.002C0.229,-0.02 0.222,-0.041 0.22,-0.065C0.21,-0.202 0.205,-0.323 0.205,-0.428C0.205,-0.472 0.205,-0.515 0.207,-0.558C0.17,-0.554 0.135,-0.548 0.101,-0.539C0.092,-0.537 0.084,-0.536 0.077,-0.536C0.06,-0.536 0.045,-0.54 0.03,-0.549C0.009,-0.562 -0.005,-0.581 -0.012,-0.606C-0.014,-0.614 -0.015,-0.622 -0.015,-0.629C-0.015,-0.646 -0.01,-0.661 -0.002,-0.676C0.011,-0.697 0.03,-0.711 0.055,-0.717C0.143,-0.739 0.212,-0.751 0.264,-0.751C0.316,-0.752 0.349,-0.752 0.361,-0.752C0.44,-0.752 0.518,-0.749 0.595,-0.741C0.621,-0.739 0.641,-0.728 0.657,-0.71C0.672,-0.692 0.68,-0.672 0.68,-0.649C0.68,-0.62 0.669,-0.597 0.648,-0.58C0.63,-0.564 0.609,-0.557 0.585,-0.557C0.557,-0.559 0.516,-0.562 0.462,-0.564C0.46,-0.515 0.459,-0.465 0.459,-0.415C0.459,-0.307 0.465,-0.182 0.475,-0.041L0.475,-0.03C0.475,0.007 0.46,0.032 0.432,0.045C0.417,0.052 0.402,0.055 0.384,0.055Z" style="fill:rgb(196,218,89);fill-rule:nonzero;"/>
                </g>
                <g transform="matrix(12,0,0,12,922.193,470.443)">
                    <path d="M0.302,-0.28C0.346,-0.282 0.39,-0.283 0.434,-0.283L0.484,-0.283C0.482,-0.337 0.477,-0.381 0.47,-0.415C0.464,-0.449 0.455,-0.474 0.445,-0.49C0.435,-0.506 0.424,-0.514 0.412,-0.514C0.393,-0.514 0.373,-0.493 0.354,-0.452C0.334,-0.41 0.316,-0.353 0.302,-0.28ZM0.177,0.061C0.144,0.061 0.115,0.057 0.09,0.05C0.066,0.043 0.047,0.03 0.035,0.013C0.024,-0.005 0.018,-0.027 0.018,-0.055C0.018,-0.077 0.021,-0.125 0.029,-0.2C0.055,-0.469 0.129,-0.64 0.251,-0.712C0.289,-0.734 0.334,-0.745 0.386,-0.745C0.467,-0.745 0.53,-0.713 0.576,-0.648C0.639,-0.56 0.67,-0.417 0.67,-0.221C0.67,-0.174 0.668,-0.125 0.665,-0.075C0.663,-0.048 0.653,-0.027 0.635,-0.011C0.617,0.004 0.596,0.012 0.572,0.012C0.544,0.012 0.521,0.002 0.504,-0.018C0.488,-0.036 0.48,-0.057 0.48,-0.081C0.48,-0.087 0.481,-0.093 0.481,-0.097L0.43,-0.098C0.379,-0.098 0.328,-0.096 0.277,-0.093C0.274,-0.05 0.273,-0.027 0.272,-0.025C0.27,0.006 0.26,0.028 0.243,0.041C0.225,0.054 0.203,0.061 0.177,0.061Z" style="fill:rgb(196,218,89);fill-rule:nonzero;"/>
                </g>
                <g transform="matrix(12,0,0,12,930.753,470.443)">
                    <path d="M0.341,0.081C0.33,0.081 0.319,0.08 0.308,0.079C0.246,0.071 0.19,0.05 0.14,0.015C0.09,-0.021 0.049,-0.065 0.016,-0.118C0.006,-0.134 0.001,-0.15 0.001,-0.167C0.001,-0.2 0.015,-0.225 0.044,-0.244C0.06,-0.254 0.076,-0.259 0.093,-0.259C0.126,-0.259 0.152,-0.245 0.171,-0.216C0.185,-0.195 0.202,-0.178 0.222,-0.164C0.242,-0.15 0.263,-0.144 0.286,-0.144C0.307,-0.144 0.324,-0.148 0.337,-0.156C0.35,-0.165 0.356,-0.177 0.356,-0.194C0.356,-0.212 0.339,-0.232 0.305,-0.255C0.289,-0.266 0.272,-0.277 0.252,-0.288C0.192,-0.324 0.146,-0.358 0.115,-0.388C0.068,-0.433 0.045,-0.484 0.045,-0.54C0.045,-0.608 0.073,-0.664 0.129,-0.709C0.155,-0.729 0.183,-0.745 0.215,-0.756C0.251,-0.769 0.286,-0.775 0.32,-0.775C0.391,-0.775 0.452,-0.757 0.502,-0.721C0.555,-0.683 0.597,-0.632 0.63,-0.568C0.638,-0.553 0.642,-0.539 0.642,-0.524C0.642,-0.515 0.64,-0.506 0.637,-0.497C0.63,-0.474 0.615,-0.456 0.592,-0.443C0.577,-0.436 0.563,-0.432 0.548,-0.432C0.54,-0.432 0.531,-0.433 0.521,-0.436C0.498,-0.444 0.48,-0.459 0.468,-0.482C0.445,-0.527 0.413,-0.549 0.37,-0.549C0.346,-0.549 0.326,-0.543 0.311,-0.533C0.301,-0.526 0.297,-0.517 0.297,-0.506C0.297,-0.488 0.314,-0.467 0.349,-0.444C0.364,-0.434 0.382,-0.423 0.401,-0.412C0.461,-0.378 0.506,-0.345 0.538,-0.313C0.585,-0.268 0.608,-0.217 0.608,-0.161C0.608,-0.12 0.6,-0.084 0.583,-0.053C0.566,-0.022 0.543,0.005 0.515,0.026C0.486,0.047 0.457,0.061 0.427,0.069C0.396,0.077 0.368,0.081 0.341,0.081Z" style="fill:rgb(196,218,89);fill-rule:nonzero;"/>
                </g>
                <g transform="matrix(12,0,0,12,941.57,470.443)">
                    <path d="M0.196,0.054C0.167,0.054 0.139,0.044 0.113,0.024C0.074,-0.006 0.054,-0.04 0.054,-0.078C0.054,-0.095 0.059,-0.111 0.07,-0.127C0.119,-0.201 0.165,-0.275 0.208,-0.348C0.133,-0.425 0.067,-0.503 0.01,-0.583C-0.001,-0.6 -0.007,-0.617 -0.007,-0.636C-0.007,-0.667 0.006,-0.693 0.032,-0.711C0.049,-0.724 0.067,-0.73 0.085,-0.73C0.116,-0.73 0.141,-0.717 0.16,-0.69C0.201,-0.634 0.249,-0.576 0.304,-0.515C0.335,-0.571 0.365,-0.628 0.396,-0.686C0.412,-0.717 0.428,-0.733 0.444,-0.734C0.46,-0.736 0.469,-0.736 0.473,-0.736C0.497,-0.736 0.521,-0.729 0.545,-0.714C0.572,-0.697 0.59,-0.678 0.6,-0.657C0.61,-0.637 0.615,-0.62 0.615,-0.606C0.615,-0.592 0.611,-0.579 0.604,-0.565C0.504,-0.365 0.391,-0.172 0.265,0.013C0.247,0.041 0.224,0.054 0.196,0.054Z" style="fill:rgb(196,218,89);fill-rule:nonzero;"/>
                </g>
                <g transform="matrix(12,0,0,12,951.759,470.443)">
                    <path d="M0.359,0.019C0.275,0.019 0.205,-0.035 0.149,-0.143C0.093,-0.25 0.044,-0.42 0.001,-0.653C0,-0.662 -0.001,-0.671 -0.001,-0.679C-0.001,-0.703 0.006,-0.722 0.02,-0.734C0.038,-0.751 0.062,-0.759 0.091,-0.759C0.149,-0.759 0.189,-0.749 0.212,-0.729C0.234,-0.71 0.249,-0.683 0.254,-0.65C0.263,-0.602 0.279,-0.532 0.303,-0.44C0.333,-0.329 0.355,-0.273 0.369,-0.273C0.378,-0.273 0.389,-0.29 0.401,-0.325C0.413,-0.36 0.425,-0.401 0.436,-0.448C0.448,-0.495 0.457,-0.54 0.464,-0.581C0.471,-0.623 0.476,-0.652 0.477,-0.668C0.478,-0.694 0.488,-0.716 0.506,-0.733C0.523,-0.749 0.543,-0.756 0.568,-0.756C0.596,-0.756 0.619,-0.747 0.637,-0.729C0.653,-0.712 0.661,-0.691 0.661,-0.667L0.661,-0.663C0.655,-0.519 0.638,-0.396 0.609,-0.295C0.58,-0.194 0.543,-0.116 0.499,-0.062C0.455,-0.008 0.408,0.019 0.359,0.019Z" style="fill:rgb(196,218,89);fill-rule:nonzero;"/>
                </g>
                <g transform="matrix(12,0,0,12,959.95,470.443)">
                    <path d="M0.329,0.06C0.289,0.06 0.254,0.059 0.222,0.057C0.191,0.055 0.164,0.05 0.141,0.042C0.118,0.034 0.099,0.022 0.084,0.005C0.07,-0.012 0.059,-0.035 0.053,-0.065C0.038,-0.141 0.03,-0.218 0.03,-0.296C0.03,-0.32 0.031,-0.344 0.032,-0.368C0.038,-0.47 0.051,-0.571 0.071,-0.67C0.077,-0.699 0.088,-0.72 0.105,-0.733C0.122,-0.745 0.144,-0.753 0.173,-0.755C0.201,-0.757 0.232,-0.758 0.266,-0.758C0.349,-0.758 0.407,-0.757 0.439,-0.755C0.468,-0.753 0.498,-0.75 0.528,-0.746C0.554,-0.743 0.574,-0.733 0.588,-0.715C0.603,-0.697 0.61,-0.678 0.61,-0.657C0.61,-0.625 0.599,-0.601 0.579,-0.584C0.561,-0.57 0.542,-0.563 0.52,-0.563L0.514,-0.563C0.448,-0.569 0.381,-0.573 0.314,-0.573C0.308,-0.535 0.302,-0.497 0.297,-0.457L0.37,-0.453C0.396,-0.451 0.417,-0.442 0.433,-0.423C0.449,-0.405 0.457,-0.384 0.457,-0.359C0.457,-0.333 0.447,-0.31 0.427,-0.292C0.409,-0.277 0.386,-0.269 0.36,-0.269C0.335,-0.27 0.309,-0.271 0.285,-0.272C0.285,-0.217 0.287,-0.168 0.292,-0.126C0.31,-0.124 0.328,-0.124 0.345,-0.124C0.393,-0.124 0.451,-0.131 0.52,-0.146C0.526,-0.147 0.532,-0.148 0.539,-0.148C0.557,-0.148 0.574,-0.143 0.589,-0.133C0.61,-0.119 0.623,-0.1 0.629,-0.074C0.631,-0.068 0.631,-0.061 0.631,-0.055C0.631,-0.037 0.626,-0.02 0.616,-0.004C0.603,0.016 0.583,0.029 0.558,0.035C0.484,0.052 0.408,0.06 0.329,0.06Z" style="fill:rgb(196,218,89);fill-rule:nonzero;"/>
                </g>
                <g transform="matrix(12,0,0,12,967.409,470.443)">
                    <path d="M0.22,0.035C0.183,0.035 0.153,0.03 0.129,0.02C0.106,0.01 0.088,-0.004 0.076,-0.022C0.064,-0.039 0.056,-0.06 0.054,-0.084C0.041,-0.226 0.035,-0.368 0.035,-0.51C0.035,-0.553 0.035,-0.596 0.036,-0.639C0.037,-0.668 0.043,-0.69 0.055,-0.703C0.067,-0.717 0.087,-0.726 0.115,-0.73C0.142,-0.734 0.181,-0.736 0.23,-0.736C0.268,-0.736 0.308,-0.733 0.349,-0.727C0.39,-0.722 0.43,-0.712 0.468,-0.7C0.506,-0.687 0.54,-0.67 0.57,-0.65C0.601,-0.629 0.625,-0.604 0.643,-0.574C0.661,-0.545 0.67,-0.51 0.67,-0.471C0.67,-0.409 0.643,-0.358 0.589,-0.318C0.544,-0.285 0.488,-0.262 0.422,-0.248C0.451,-0.204 0.493,-0.171 0.547,-0.148C0.586,-0.132 0.605,-0.103 0.605,-0.063C0.605,-0.051 0.602,-0.04 0.597,-0.028C0.581,0.011 0.553,0.03 0.513,0.03C0.501,0.03 0.489,0.027 0.477,0.022C0.408,-0.006 0.351,-0.045 0.306,-0.096C0.308,-0.075 0.309,-0.06 0.309,-0.052C0.309,-0.024 0.301,-0.003 0.286,0.011C0.268,0.027 0.246,0.035 0.22,0.035ZM0.29,-0.414C0.354,-0.42 0.403,-0.429 0.434,-0.441C0.466,-0.454 0.481,-0.467 0.481,-0.481C0.481,-0.494 0.465,-0.507 0.433,-0.519C0.4,-0.531 0.353,-0.54 0.29,-0.546L0.289,-0.494C0.289,-0.467 0.289,-0.441 0.29,-0.414Z" style="fill:rgb(196,218,89);fill-rule:nonzero;"/>
                </g>
                <g transform="matrix(12,0,0,12,975.654,470.443)">
                    <path d="M0.358,-0.137C0.428,-0.137 0.48,-0.162 0.514,-0.214C0.535,-0.245 0.545,-0.284 0.545,-0.331C0.545,-0.396 0.52,-0.449 0.469,-0.489C0.423,-0.525 0.367,-0.545 0.3,-0.55C0.291,-0.491 0.287,-0.424 0.287,-0.349C0.287,-0.269 0.293,-0.199 0.307,-0.141C0.325,-0.138 0.342,-0.137 0.358,-0.137ZM0.354,0.046C0.263,0.046 0.191,0.031 0.139,0C0.065,-0.045 0.027,-0.176 0.027,-0.395C0.027,-0.502 0.039,-0.591 0.062,-0.662C0.075,-0.703 0.109,-0.726 0.165,-0.731C0.189,-0.734 0.211,-0.735 0.232,-0.735C0.298,-0.735 0.361,-0.727 0.421,-0.712C0.481,-0.696 0.534,-0.672 0.58,-0.639C0.627,-0.607 0.663,-0.565 0.69,-0.514C0.717,-0.463 0.73,-0.402 0.73,-0.331C0.73,-0.258 0.714,-0.193 0.682,-0.137C0.65,-0.08 0.606,-0.035 0.549,-0.003C0.493,0.03 0.428,0.046 0.354,0.046Z" style="fill:rgb(196,218,89);fill-rule:nonzero;"/>
                </g>
                <g transform="matrix(12,0,0,12,984.806,470.443)">
                    <path d="M0.613,0.042C0.584,0.042 0.561,0.039 0.543,0.033C0.525,0.027 0.51,0.02 0.499,0.01C0.487,0 0.478,-0.01 0.471,-0.021C0.43,0.021 0.375,0.042 0.307,0.042C0.198,0.042 0.122,-0.016 0.078,-0.133C0.056,-0.189 0.043,-0.245 0.037,-0.302C0.032,-0.359 0.029,-0.41 0.029,-0.457C0.029,-0.529 0.034,-0.597 0.043,-0.661C0.05,-0.712 0.078,-0.737 0.126,-0.737C0.187,-0.736 0.231,-0.723 0.258,-0.697C0.283,-0.671 0.296,-0.643 0.296,-0.613C0.296,-0.608 0.295,-0.602 0.294,-0.597C0.292,-0.583 0.29,-0.56 0.287,-0.526C0.284,-0.493 0.282,-0.46 0.281,-0.428C0.279,-0.396 0.279,-0.369 0.279,-0.347C0.279,-0.222 0.295,-0.16 0.328,-0.16C0.364,-0.16 0.39,-0.22 0.407,-0.339C0.418,-0.42 0.426,-0.519 0.43,-0.636C0.432,-0.675 0.448,-0.701 0.48,-0.714C0.494,-0.719 0.51,-0.722 0.526,-0.722C0.562,-0.722 0.592,-0.716 0.615,-0.705C0.639,-0.693 0.656,-0.678 0.667,-0.659C0.678,-0.641 0.684,-0.621 0.684,-0.598C0.682,-0.5 0.682,-0.425 0.682,-0.375C0.682,-0.344 0.682,-0.314 0.682,-0.284C0.683,-0.209 0.689,-0.134 0.699,-0.06C0.7,-0.053 0.7,-0.046 0.7,-0.04C0.7,-0.006 0.687,0.018 0.661,0.031C0.647,0.038 0.631,0.042 0.613,0.042Z" style="fill:rgb(196,218,89);fill-rule:nonzero;"/>
                </g>
                <g transform="matrix(12,0,0,12,993.882,470.443)">
                    <path d="M0.22,0.035C0.183,0.035 0.153,0.03 0.129,0.02C0.106,0.01 0.088,-0.004 0.076,-0.022C0.064,-0.039 0.056,-0.06 0.054,-0.084C0.041,-0.226 0.035,-0.368 0.035,-0.51C0.035,-0.553 0.035,-0.596 0.036,-0.639C0.037,-0.668 0.043,-0.69 0.055,-0.703C0.067,-0.717 0.087,-0.726 0.115,-0.73C0.142,-0.734 0.181,-0.736 0.23,-0.736C0.268,-0.736 0.308,-0.733 0.349,-0.727C0.39,-0.722 0.43,-0.712 0.468,-0.7C0.506,-0.687 0.54,-0.67 0.57,-0.65C0.601,-0.629 0.625,-0.604 0.643,-0.574C0.661,-0.545 0.67,-0.51 0.67,-0.471C0.67,-0.409 0.643,-0.358 0.589,-0.318C0.544,-0.285 0.488,-0.262 0.422,-0.248C0.451,-0.204 0.493,-0.171 0.547,-0.148C0.586,-0.132 0.605,-0.103 0.605,-0.063C0.605,-0.051 0.602,-0.04 0.597,-0.028C0.581,0.011 0.553,0.03 0.513,0.03C0.501,0.03 0.489,0.027 0.477,0.022C0.408,-0.006 0.351,-0.045 0.306,-0.096C0.308,-0.075 0.309,-0.06 0.309,-0.052C0.309,-0.024 0.301,-0.003 0.286,0.011C0.268,0.027 0.246,0.035 0.22,0.035ZM0.29,-0.414C0.354,-0.42 0.403,-0.429 0.434,-0.441C0.466,-0.454 0.481,-0.467 0.481,-0.481C0.481,-0.494 0.465,-0.507 0.433,-0.519C0.4,-0.531 0.353,-0.54 0.29,-0.546L0.289,-0.494C0.289,-0.467 0.289,-0.441 0.29,-0.414Z" style="fill:rgb(196,218,89);fill-rule:nonzero;"/>
                </g>
                <g transform="matrix(12,0,0,12,1001.79,470.443)">
                    <path d="M0.302,-0.28C0.346,-0.282 0.39,-0.283 0.434,-0.283L0.484,-0.283C0.482,-0.337 0.477,-0.381 0.47,-0.415C0.464,-0.449 0.455,-0.474 0.445,-0.49C0.435,-0.506 0.424,-0.514 0.412,-0.514C0.393,-0.514 0.373,-0.493 0.354,-0.452C0.334,-0.41 0.316,-0.353 0.302,-0.28ZM0.177,0.061C0.144,0.061 0.115,0.057 0.09,0.05C0.066,0.043 0.047,0.03 0.035,0.013C0.024,-0.005 0.018,-0.027 0.018,-0.055C0.018,-0.077 0.021,-0.125 0.029,-0.2C0.055,-0.469 0.129,-0.64 0.251,-0.712C0.289,-0.734 0.334,-0.745 0.386,-0.745C0.467,-0.745 0.53,-0.713 0.576,-0.648C0.639,-0.56 0.67,-0.417 0.67,-0.221C0.67,-0.174 0.668,-0.125 0.665,-0.075C0.663,-0.048 0.653,-0.027 0.635,-0.011C0.617,0.004 0.596,0.012 0.572,0.012C0.544,0.012 0.521,0.002 0.504,-0.018C0.488,-0.036 0.48,-0.057 0.48,-0.081C0.48,-0.087 0.481,-0.093 0.481,-0.097L0.43,-0.098C0.379,-0.098 0.328,-0.096 0.277,-0.093C0.274,-0.05 0.273,-0.027 0.272,-0.025C0.27,0.006 0.26,0.028 0.243,0.041C0.225,0.054 0.203,0.061 0.177,0.061Z" style="fill:rgb(196,218,89);fill-rule:nonzero;"/>
                </g>
                <g transform="matrix(12,0,0,12,1010.35,470.443)">
                    <path d="M0.341,0.081C0.33,0.081 0.319,0.08 0.308,0.079C0.246,0.071 0.19,0.05 0.14,0.015C0.09,-0.021 0.049,-0.065 0.016,-0.118C0.006,-0.134 0.001,-0.15 0.001,-0.167C0.001,-0.2 0.015,-0.225 0.044,-0.244C0.06,-0.254 0.076,-0.259 0.093,-0.259C0.126,-0.259 0.152,-0.245 0.171,-0.216C0.185,-0.195 0.202,-0.178 0.222,-0.164C0.242,-0.15 0.263,-0.144 0.286,-0.144C0.307,-0.144 0.324,-0.148 0.337,-0.156C0.35,-0.165 0.356,-0.177 0.356,-0.194C0.356,-0.212 0.339,-0.232 0.305,-0.255C0.289,-0.266 0.272,-0.277 0.252,-0.288C0.192,-0.324 0.146,-0.358 0.115,-0.388C0.068,-0.433 0.045,-0.484 0.045,-0.54C0.045,-0.608 0.073,-0.664 0.129,-0.709C0.155,-0.729 0.183,-0.745 0.215,-0.756C0.251,-0.769 0.286,-0.775 0.32,-0.775C0.391,-0.775 0.452,-0.757 0.502,-0.721C0.555,-0.683 0.597,-0.632 0.63,-0.568C0.638,-0.553 0.642,-0.539 0.642,-0.524C0.642,-0.515 0.64,-0.506 0.637,-0.497C0.63,-0.474 0.615,-0.456 0.592,-0.443C0.577,-0.436 0.563,-0.432 0.548,-0.432C0.54,-0.432 0.531,-0.433 0.521,-0.436C0.498,-0.444 0.48,-0.459 0.468,-0.482C0.445,-0.527 0.413,-0.549 0.37,-0.549C0.346,-0.549 0.326,-0.543 0.311,-0.533C0.301,-0.526 0.297,-0.517 0.297,-0.506C0.297,-0.488 0.314,-0.467 0.349,-0.444C0.364,-0.434 0.382,-0.423 0.401,-0.412C0.461,-0.378 0.506,-0.345 0.538,-0.313C0.585,-0.268 0.608,-0.217 0.608,-0.161C0.608,-0.12 0.6,-0.084 0.583,-0.053C0.566,-0.022 0.543,0.005 0.515,0.026C0.486,0.047 0.457,0.061 0.427,0.069C0.396,0.077 0.368,0.081 0.341,0.081Z" style="fill:rgb(196,218,89);fill-rule:nonzero;"/>
                </g>
            </g>
            <g transform="matrix(5.73924,0,0,5.73924,6924.22,647.268)">
                <g opacity="0.8">
                    <g transform="matrix(12,0,0,12,890.798,470.443)">
                        <path d="M0.267,0.067L0.258,0.067C0.142,0.067 0.074,0.029 0.056,-0.046C0.04,-0.111 0.032,-0.18 0.032,-0.255C0.032,-0.382 0.046,-0.527 0.074,-0.689C0.082,-0.74 0.115,-0.765 0.173,-0.765C0.209,-0.765 0.239,-0.758 0.263,-0.745C0.287,-0.731 0.304,-0.715 0.313,-0.696C0.323,-0.677 0.327,-0.659 0.327,-0.642C0.327,-0.635 0.327,-0.629 0.326,-0.622C0.313,-0.549 0.304,-0.478 0.297,-0.408C0.29,-0.339 0.287,-0.281 0.287,-0.235C0.287,-0.196 0.288,-0.158 0.292,-0.121C0.36,-0.123 0.425,-0.135 0.489,-0.157C0.5,-0.161 0.511,-0.163 0.522,-0.163C0.535,-0.163 0.548,-0.16 0.56,-0.154C0.583,-0.144 0.598,-0.126 0.607,-0.102C0.612,-0.091 0.614,-0.08 0.614,-0.069C0.614,-0.056 0.611,-0.044 0.605,-0.031C0.595,-0.009 0.577,0.007 0.552,0.017C0.528,0.026 0.489,0.037 0.437,0.049C0.384,0.06 0.327,0.066 0.267,0.067Z" style="fill:rgb(254,190,35);fill-rule:nonzero;"/>
                    </g>
                    <g transform="matrix(12,0,0,12,897.999,470.443)">
                        <path d="M0.329,0.06C0.289,0.06 0.254,0.059 0.222,0.057C0.191,0.055 0.164,0.05 0.141,0.042C0.118,0.034 0.099,0.022 0.084,0.005C0.07,-0.012 0.059,-0.035 0.053,-0.065C0.038,-0.141 0.03,-0.218 0.03,-0.296C0.03,-0.32 0.031,-0.344 0.032,-0.368C0.038,-0.47 0.051,-0.571 0.071,-0.67C0.077,-0.699 0.088,-0.72 0.105,-0.733C0.122,-0.745 0.144,-0.753 0.173,-0.755C0.201,-0.757 0.232,-0.758 0.266,-0.758C0.349,-0.758 0.407,-0.757 0.439,-0.755C0.468,-0.753 0.498,-0.75 0.528,-0.746C0.554,-0.743 0.574,-0.733 0.588,-0.715C0.603,-0.697 0.61,-0.678 0.61,-0.657C0.61,-0.625 0.599,-0.601 0.579,-0.584C0.561,-0.57 0.542,-0.563 0.52,-0.563L0.514,-0.563C0.448,-0.569 0.381,-0.573 0.314,-0.573C0.308,-0.535 0.302,-0.497 0.297,-0.457L0.37,-0.453C0.396,-0.451 0.417,-0.442 0.433,-0.423C0.449,-0.405 0.457,-0.384 0.457,-0.359C0.457,-0.333 0.447,-0.31 0.427,-0.292C0.409,-0.277 0.386,-0.269 0.36,-0.269C0.335,-0.27 0.309,-0.271 0.285,-0.272C0.285,-0.217 0.287,-0.168 0.292,-0.126C0.31,-0.124 0.328,-0.124 0.345,-0.124C0.393,-0.124 0.451,-0.131 0.52,-0.146C0.526,-0.147 0.532,-0.148 0.539,-0.148C0.557,-0.148 0.574,-0.143 0.589,-0.133C0.61,-0.119 0.623,-0.1 0.629,-0.074C0.631,-0.068 0.631,-0.061 0.631,-0.055C0.631,-0.037 0.626,-0.02 0.616,-0.004C0.603,0.016 0.583,0.029 0.558,0.035C0.484,0.052 0.408,0.06 0.329,0.06Z" style="fill:rgb(254,190,35);fill-rule:nonzero;"/>
                    </g>
                    <g transform="matrix(12,0,0,12,905.054,470.443)">
                        <path d="M0.39,0.041C0.312,0.041 0.243,0.023 0.185,-0.012C0.127,-0.047 0.082,-0.095 0.05,-0.156C0.018,-0.217 0.001,-0.285 0.001,-0.362C0.001,-0.417 0.011,-0.468 0.031,-0.514C0.051,-0.56 0.077,-0.599 0.111,-0.633C0.145,-0.666 0.183,-0.692 0.227,-0.71C0.27,-0.728 0.315,-0.737 0.363,-0.737C0.413,-0.737 0.46,-0.729 0.504,-0.712C0.548,-0.695 0.59,-0.668 0.63,-0.63C0.65,-0.612 0.66,-0.596 0.66,-0.583C0.661,-0.57 0.661,-0.563 0.661,-0.561C0.661,-0.539 0.653,-0.518 0.637,-0.5C0.619,-0.48 0.603,-0.47 0.59,-0.47C0.577,-0.469 0.57,-0.469 0.568,-0.469C0.545,-0.469 0.525,-0.477 0.506,-0.493C0.476,-0.52 0.446,-0.533 0.416,-0.533C0.386,-0.533 0.359,-0.524 0.335,-0.504C0.311,-0.485 0.291,-0.459 0.276,-0.428C0.261,-0.396 0.254,-0.363 0.254,-0.328C0.254,-0.295 0.26,-0.264 0.271,-0.236C0.283,-0.209 0.299,-0.187 0.32,-0.17C0.34,-0.153 0.363,-0.145 0.39,-0.145C0.428,-0.145 0.454,-0.16 0.468,-0.19C0.464,-0.189 0.46,-0.189 0.456,-0.189C0.437,-0.189 0.419,-0.194 0.404,-0.206C0.385,-0.219 0.372,-0.237 0.367,-0.261C0.365,-0.269 0.364,-0.276 0.364,-0.283C0.364,-0.352 0.427,-0.386 0.553,-0.386C0.605,-0.386 0.653,-0.375 0.696,-0.353C0.731,-0.335 0.748,-0.308 0.748,-0.271C0.748,-0.257 0.744,-0.244 0.737,-0.23C0.72,-0.198 0.693,-0.181 0.658,-0.179C0.648,-0.136 0.631,-0.098 0.608,-0.066C0.586,-0.033 0.556,-0.007 0.52,0.012C0.484,0.031 0.44,0.041 0.39,0.041Z" style="fill:rgb(254,190,35);fill-rule:nonzero;"/>
                    </g>
                    <g transform="matrix(12,0,0,12,914.165,470.443)">
                        <path d="M0.613,0.042C0.584,0.042 0.561,0.039 0.543,0.033C0.525,0.027 0.51,0.02 0.499,0.01C0.487,0 0.478,-0.01 0.471,-0.021C0.43,0.021 0.375,0.042 0.307,0.042C0.198,0.042 0.122,-0.016 0.078,-0.133C0.056,-0.189 0.043,-0.245 0.037,-0.302C0.032,-0.359 0.029,-0.41 0.029,-0.457C0.029,-0.529 0.034,-0.597 0.043,-0.661C0.05,-0.712 0.078,-0.737 0.126,-0.737C0.187,-0.736 0.231,-0.723 0.258,-0.697C0.283,-0.671 0.296,-0.643 0.296,-0.613C0.296,-0.608 0.295,-0.602 0.294,-0.597C0.292,-0.583 0.29,-0.56 0.287,-0.526C0.284,-0.493 0.282,-0.46 0.281,-0.428C0.279,-0.396 0.279,-0.369 0.279,-0.347C0.279,-0.222 0.295,-0.16 0.328,-0.16C0.364,-0.16 0.39,-0.22 0.407,-0.339C0.418,-0.42 0.426,-0.519 0.43,-0.636C0.432,-0.675 0.448,-0.701 0.48,-0.714C0.494,-0.719 0.51,-0.722 0.526,-0.722C0.562,-0.722 0.592,-0.716 0.615,-0.705C0.639,-0.693 0.656,-0.678 0.667,-0.659C0.678,-0.641 0.684,-0.621 0.684,-0.598C0.682,-0.5 0.682,-0.425 0.682,-0.375C0.682,-0.344 0.682,-0.314 0.682,-0.284C0.683,-0.209 0.689,-0.134 0.699,-0.06C0.7,-0.053 0.7,-0.046 0.7,-0.04C0.7,-0.006 0.687,0.018 0.661,0.031C0.647,0.038 0.631,0.042 0.613,0.042Z" style="fill:rgb(254,190,35);fill-rule:nonzero;"/>
                    </g>
                    <g transform="matrix(12,0,0,12,922.943,470.443)">
                        <path d="M0.196,0.06C0.16,0.06 0.13,0.054 0.105,0.043C0.081,0.031 0.063,0.016 0.052,-0.002C0.04,-0.021 0.034,-0.043 0.034,-0.066L0.034,-0.089C0.034,-0.299 0.053,-0.486 0.092,-0.648C0.103,-0.696 0.13,-0.72 0.171,-0.72C0.232,-0.72 0.288,-0.695 0.337,-0.645C0.371,-0.611 0.413,-0.553 0.464,-0.472C0.493,-0.539 0.518,-0.607 0.539,-0.675C0.544,-0.694 0.555,-0.71 0.571,-0.722C0.586,-0.735 0.604,-0.741 0.624,-0.741C0.694,-0.741 0.741,-0.722 0.765,-0.684C0.776,-0.667 0.783,-0.65 0.788,-0.632C0.83,-0.465 0.857,-0.272 0.87,-0.055L0.871,-0.047C0.871,-0.019 0.863,0.003 0.849,0.017C0.832,0.033 0.812,0.041 0.788,0.041C0.677,0.041 0.62,0 0.615,-0.081C0.611,-0.159 0.604,-0.236 0.594,-0.313C0.581,-0.287 0.568,-0.262 0.554,-0.238C0.536,-0.207 0.509,-0.191 0.475,-0.191C0.442,-0.191 0.416,-0.205 0.397,-0.233C0.379,-0.26 0.361,-0.287 0.344,-0.315C0.332,-0.335 0.319,-0.355 0.306,-0.375C0.294,-0.269 0.288,-0.154 0.288,-0.031C0.288,0.01 0.273,0.037 0.242,0.05C0.228,0.056 0.213,0.06 0.196,0.06Z" style="fill:rgb(254,190,35);fill-rule:nonzero;"/>
                    </g>
                    <g transform="matrix(12,0,0,12,933.759,470.443)">
                        <path d="M0.192,0.052C0.157,0.052 0.128,0.047 0.105,0.037C0.083,0.027 0.066,0.013 0.056,-0.005C0.045,-0.023 0.039,-0.043 0.039,-0.066C0.038,-0.104 0.037,-0.142 0.037,-0.18C0.037,-0.339 0.046,-0.498 0.065,-0.656C0.068,-0.685 0.078,-0.705 0.094,-0.718C0.111,-0.731 0.13,-0.737 0.151,-0.737C0.187,-0.737 0.217,-0.731 0.243,-0.718C0.269,-0.706 0.288,-0.69 0.3,-0.671C0.312,-0.652 0.318,-0.632 0.318,-0.611L0.318,-0.604C0.301,-0.452 0.292,-0.301 0.292,-0.151C0.292,-0.116 0.292,-0.079 0.293,-0.042C0.293,-0.02 0.289,-0.001 0.28,0.012C0.271,0.026 0.259,0.036 0.243,0.042C0.228,0.049 0.211,0.052 0.192,0.052Z" style="fill:rgb(254,190,35);fill-rule:nonzero;"/>
                    </g>
                    <g transform="matrix(12,0,0,12,938.025,470.443)">
                        <path d="M0.602,0.049C0.543,0.049 0.501,0.036 0.474,0.009C0.449,-0.015 0.402,-0.097 0.333,-0.234C0.32,-0.259 0.307,-0.284 0.294,-0.309C0.292,-0.251 0.291,-0.193 0.291,-0.135L0.291,-0.042C0.291,-0.02 0.287,-0.002 0.278,0.012C0.261,0.036 0.233,0.049 0.192,0.049C0.158,0.049 0.129,0.043 0.106,0.032C0.083,0.021 0.066,0.006 0.054,-0.013C0.042,-0.032 0.036,-0.053 0.036,-0.077C0.036,-0.101 0.036,-0.125 0.036,-0.149C0.036,-0.315 0.044,-0.481 0.06,-0.646C0.062,-0.668 0.067,-0.684 0.076,-0.697C0.085,-0.709 0.097,-0.717 0.11,-0.723C0.124,-0.728 0.138,-0.73 0.153,-0.73C0.181,-0.73 0.205,-0.727 0.223,-0.72C0.241,-0.713 0.256,-0.704 0.268,-0.694C0.28,-0.683 0.289,-0.673 0.297,-0.663C0.35,-0.588 0.398,-0.511 0.44,-0.431C0.44,-0.501 0.436,-0.571 0.43,-0.642L0.43,-0.658C0.43,-0.693 0.443,-0.716 0.47,-0.729C0.484,-0.736 0.499,-0.74 0.516,-0.74C0.595,-0.74 0.645,-0.72 0.667,-0.68C0.686,-0.646 0.695,-0.547 0.695,-0.383C0.695,-0.299 0.692,-0.184 0.687,-0.041C0.685,-0.008 0.677,0.015 0.661,0.029C0.645,0.042 0.625,0.049 0.602,0.049Z" style="fill:rgb(254,190,35);fill-rule:nonzero;"/>
                    </g>
                    <g transform="matrix(12,0,0,12,947.007,470.443)">
                        <path d="M0.337,0.054C0.296,0.054 0.256,0.045 0.217,0.027C0.178,0.009 0.143,-0.017 0.111,-0.052C0.08,-0.086 0.055,-0.129 0.036,-0.179C0.018,-0.229 0.008,-0.287 0.008,-0.352C0.008,-0.406 0.016,-0.456 0.031,-0.504C0.045,-0.552 0.067,-0.594 0.095,-0.63C0.123,-0.666 0.157,-0.695 0.198,-0.716C0.239,-0.737 0.284,-0.747 0.335,-0.747C0.389,-0.747 0.435,-0.736 0.476,-0.714C0.516,-0.691 0.55,-0.661 0.577,-0.624C0.604,-0.586 0.624,-0.544 0.638,-0.497C0.651,-0.45 0.658,-0.402 0.658,-0.352C0.658,-0.282 0.649,-0.221 0.631,-0.17C0.613,-0.119 0.589,-0.077 0.558,-0.043C0.528,-0.01 0.493,0.014 0.455,0.03C0.417,0.046 0.377,0.054 0.337,0.054ZM0.372,-0.141C0.389,-0.141 0.405,-0.149 0.421,-0.165C0.437,-0.181 0.449,-0.205 0.459,-0.238C0.469,-0.27 0.474,-0.309 0.474,-0.356C0.474,-0.385 0.471,-0.412 0.464,-0.437C0.457,-0.463 0.448,-0.484 0.434,-0.5C0.421,-0.515 0.405,-0.523 0.385,-0.523C0.36,-0.523 0.338,-0.514 0.321,-0.496C0.303,-0.477 0.29,-0.453 0.28,-0.424C0.271,-0.395 0.266,-0.365 0.266,-0.334C0.266,-0.29 0.271,-0.254 0.281,-0.225C0.292,-0.197 0.305,-0.176 0.321,-0.162C0.338,-0.148 0.354,-0.141 0.372,-0.141Z" style="fill:rgb(254,190,35);fill-rule:nonzero;"/>
                    </g>
                    <g transform="matrix(12,0,0,12,955.105,470.443)">
                        <path d="M0.341,0.081C0.33,0.081 0.319,0.08 0.308,0.079C0.246,0.071 0.19,0.05 0.14,0.015C0.09,-0.021 0.049,-0.065 0.016,-0.118C0.006,-0.134 0.001,-0.15 0.001,-0.167C0.001,-0.2 0.015,-0.225 0.044,-0.244C0.06,-0.254 0.076,-0.259 0.093,-0.259C0.126,-0.259 0.152,-0.245 0.171,-0.216C0.185,-0.195 0.202,-0.178 0.222,-0.164C0.242,-0.15 0.263,-0.144 0.286,-0.144C0.307,-0.144 0.324,-0.148 0.337,-0.156C0.35,-0.165 0.356,-0.177 0.356,-0.194C0.356,-0.212 0.339,-0.232 0.305,-0.255C0.289,-0.266 0.272,-0.277 0.252,-0.288C0.192,-0.324 0.146,-0.358 0.115,-0.388C0.068,-0.433 0.045,-0.484 0.045,-0.54C0.045,-0.608 0.073,-0.664 0.129,-0.709C0.155,-0.729 0.183,-0.745 0.215,-0.756C0.251,-0.769 0.286,-0.775 0.32,-0.775C0.391,-0.775 0.452,-0.757 0.502,-0.721C0.555,-0.683 0.597,-0.632 0.63,-0.568C0.638,-0.553 0.642,-0.539 0.642,-0.524C0.642,-0.515 0.64,-0.506 0.637,-0.497C0.63,-0.474 0.615,-0.456 0.592,-0.443C0.577,-0.436 0.563,-0.432 0.548,-0.432C0.54,-0.432 0.531,-0.433 0.521,-0.436C0.498,-0.444 0.48,-0.459 0.468,-0.482C0.445,-0.527 0.413,-0.549 0.37,-0.549C0.346,-0.549 0.326,-0.543 0.311,-0.533C0.301,-0.526 0.297,-0.517 0.297,-0.506C0.297,-0.488 0.314,-0.467 0.349,-0.444C0.364,-0.434 0.382,-0.423 0.401,-0.412C0.461,-0.378 0.506,-0.345 0.538,-0.313C0.585,-0.268 0.608,-0.217 0.608,-0.161C0.608,-0.12 0.6,-0.084 0.583,-0.053C0.566,-0.022 0.543,0.005 0.515,0.026C0.486,0.047 0.457,0.061 0.427,0.069C0.396,0.077 0.368,0.081 0.341,0.081Z" style="fill:rgb(254,190,35);fill-rule:nonzero;"/>
                    </g>
                    <g transform="matrix(12,0,0,12,962.822,470.443)">
                        <path d="M0.302,-0.28C0.346,-0.282 0.39,-0.283 0.434,-0.283L0.484,-0.283C0.482,-0.337 0.477,-0.381 0.47,-0.415C0.464,-0.449 0.455,-0.474 0.445,-0.49C0.435,-0.506 0.424,-0.514 0.412,-0.514C0.393,-0.514 0.373,-0.493 0.354,-0.452C0.334,-0.41 0.316,-0.353 0.302,-0.28ZM0.177,0.061C0.144,0.061 0.115,0.057 0.09,0.05C0.066,0.043 0.047,0.03 0.035,0.013C0.024,-0.005 0.018,-0.027 0.018,-0.055C0.018,-0.077 0.021,-0.125 0.029,-0.2C0.055,-0.469 0.129,-0.64 0.251,-0.712C0.289,-0.734 0.334,-0.745 0.386,-0.745C0.467,-0.745 0.53,-0.713 0.576,-0.648C0.639,-0.56 0.67,-0.417 0.67,-0.221C0.67,-0.174 0.668,-0.125 0.665,-0.075C0.663,-0.048 0.653,-0.027 0.635,-0.011C0.617,0.004 0.596,0.012 0.572,0.012C0.544,0.012 0.521,0.002 0.504,-0.018C0.488,-0.036 0.48,-0.057 0.48,-0.081C0.48,-0.087 0.481,-0.093 0.481,-0.097L0.43,-0.098C0.379,-0.098 0.328,-0.096 0.277,-0.093C0.274,-0.05 0.273,-0.027 0.272,-0.025C0.27,0.006 0.26,0.028 0.243,0.041C0.225,0.054 0.203,0.061 0.177,0.061Z" style="fill:rgb(254,190,35);fill-rule:nonzero;"/>
                    </g>
                    <g transform="matrix(12,0,0,12,971.382,470.443)">
                        <path d="M0.341,0.081C0.33,0.081 0.319,0.08 0.308,0.079C0.246,0.071 0.19,0.05 0.14,0.015C0.09,-0.021 0.049,-0.065 0.016,-0.118C0.006,-0.134 0.001,-0.15 0.001,-0.167C0.001,-0.2 0.015,-0.225 0.044,-0.244C0.06,-0.254 0.076,-0.259 0.093,-0.259C0.126,-0.259 0.152,-0.245 0.171,-0.216C0.185,-0.195 0.202,-0.178 0.222,-0.164C0.242,-0.15 0.263,-0.144 0.286,-0.144C0.307,-0.144 0.324,-0.148 0.337,-0.156C0.35,-0.165 0.356,-0.177 0.356,-0.194C0.356,-0.212 0.339,-0.232 0.305,-0.255C0.289,-0.266 0.272,-0.277 0.252,-0.288C0.192,-0.324 0.146,-0.358 0.115,-0.388C0.068,-0.433 0.045,-0.484 0.045,-0.54C0.045,-0.608 0.073,-0.664 0.129,-0.709C0.155,-0.729 0.183,-0.745 0.215,-0.756C0.251,-0.769 0.286,-0.775 0.32,-0.775C0.391,-0.775 0.452,-0.757 0.502,-0.721C0.555,-0.683 0.597,-0.632 0.63,-0.568C0.638,-0.553 0.642,-0.539 0.642,-0.524C0.642,-0.515 0.64,-0.506 0.637,-0.497C0.63,-0.474 0.615,-0.456 0.592,-0.443C0.577,-0.436 0.563,-0.432 0.548,-0.432C0.54,-0.432 0.531,-0.433 0.521,-0.436C0.498,-0.444 0.48,-0.459 0.468,-0.482C0.445,-0.527 0.413,-0.549 0.37,-0.549C0.346,-0.549 0.326,-0.543 0.311,-0.533C0.301,-0.526 0.297,-0.517 0.297,-0.506C0.297,-0.488 0.314,-0.467 0.349,-0.444C0.364,-0.434 0.382,-0.423 0.401,-0.412C0.461,-0.378 0.506,-0.345 0.538,-0.313C0.585,-0.268 0.608,-0.217 0.608,-0.161C0.608,-0.12 0.6,-0.084 0.583,-0.053C0.566,-0.022 0.543,0.005 0.515,0.026C0.486,0.047 0.457,0.061 0.427,0.069C0.396,0.077 0.368,0.081 0.341,0.081Z" style="fill:rgb(254,190,35);fill-rule:nonzero;"/>
                    </g>
                    <g transform="matrix(12,0,0,12,890.798,482.443)">
                        <path d="M0.196,0.054C0.167,0.054 0.139,0.044 0.113,0.024C0.074,-0.006 0.054,-0.04 0.054,-0.078C0.054,-0.095 0.059,-0.111 0.07,-0.127C0.119,-0.201 0.165,-0.275 0.208,-0.348C0.133,-0.425 0.067,-0.503 0.01,-0.583C-0.001,-0.6 -0.007,-0.617 -0.007,-0.636C-0.007,-0.667 0.006,-0.693 0.032,-0.711C0.049,-0.724 0.067,-0.73 0.085,-0.73C0.116,-0.73 0.141,-0.717 0.16,-0.69C0.201,-0.634 0.249,-0.576 0.304,-0.515C0.335,-0.571 0.365,-0.628 0.396,-0.686C0.412,-0.717 0.428,-0.733 0.444,-0.734C0.46,-0.736 0.469,-0.736 0.473,-0.736C0.497,-0.736 0.521,-0.729 0.545,-0.714C0.572,-0.697 0.59,-0.678 0.6,-0.657C0.61,-0.637 0.615,-0.62 0.615,-0.606C0.615,-0.592 0.611,-0.579 0.604,-0.565C0.504,-0.365 0.391,-0.172 0.265,0.013C0.247,0.041 0.224,0.054 0.196,0.054Z" style="fill:rgb(254,190,35);fill-rule:nonzero;"/>
                    </g>
                    <g transform="matrix(12,0,0,12,900.988,482.443)">
                        <path d="M0.291,-0.41C0.339,-0.414 0.378,-0.423 0.406,-0.437C0.435,-0.451 0.45,-0.465 0.45,-0.481C0.45,-0.511 0.396,-0.533 0.29,-0.547L0.289,-0.501C0.289,-0.471 0.29,-0.44 0.291,-0.41ZM0.22,0.035C0.182,0.035 0.151,0.03 0.128,0.02C0.104,0.009 0.087,-0.005 0.076,-0.023C0.064,-0.041 0.057,-0.062 0.055,-0.086C0.042,-0.226 0.036,-0.365 0.036,-0.505C0.036,-0.549 0.037,-0.594 0.039,-0.639C0.04,-0.68 0.06,-0.708 0.098,-0.722C0.123,-0.731 0.16,-0.736 0.207,-0.736C0.244,-0.736 0.283,-0.733 0.323,-0.728C0.363,-0.723 0.402,-0.715 0.439,-0.703C0.476,-0.691 0.509,-0.675 0.538,-0.655C0.568,-0.635 0.591,-0.61 0.609,-0.581C0.626,-0.551 0.635,-0.516 0.635,-0.476C0.635,-0.396 0.599,-0.334 0.526,-0.29C0.463,-0.252 0.387,-0.23 0.298,-0.224C0.301,-0.17 0.306,-0.115 0.31,-0.057L0.31,-0.047C0.31,-0.031 0.307,-0.018 0.302,-0.007C0.287,0.021 0.26,0.035 0.22,0.035Z" style="fill:rgb(254,190,35);fill-rule:nonzero;"/>
                    </g>
                    <g transform="matrix(12,0,0,12,908.798,482.443)">
                        <path d="M0.22,0.035C0.183,0.035 0.153,0.03 0.129,0.02C0.106,0.01 0.088,-0.004 0.076,-0.022C0.064,-0.039 0.056,-0.06 0.054,-0.084C0.041,-0.226 0.035,-0.368 0.035,-0.51C0.035,-0.553 0.035,-0.596 0.036,-0.639C0.037,-0.668 0.043,-0.69 0.055,-0.703C0.067,-0.717 0.087,-0.726 0.115,-0.73C0.142,-0.734 0.181,-0.736 0.23,-0.736C0.268,-0.736 0.308,-0.733 0.349,-0.727C0.39,-0.722 0.43,-0.712 0.468,-0.7C0.506,-0.687 0.54,-0.67 0.57,-0.65C0.601,-0.629 0.625,-0.604 0.643,-0.574C0.661,-0.545 0.67,-0.51 0.67,-0.471C0.67,-0.409 0.643,-0.358 0.589,-0.318C0.544,-0.285 0.488,-0.262 0.422,-0.248C0.451,-0.204 0.493,-0.171 0.547,-0.148C0.586,-0.132 0.605,-0.103 0.605,-0.063C0.605,-0.051 0.602,-0.04 0.597,-0.028C0.581,0.011 0.553,0.03 0.513,0.03C0.501,0.03 0.489,0.027 0.477,0.022C0.408,-0.006 0.351,-0.045 0.306,-0.096C0.308,-0.075 0.309,-0.06 0.309,-0.052C0.309,-0.024 0.301,-0.003 0.286,0.011C0.268,0.027 0.246,0.035 0.22,0.035ZM0.29,-0.414C0.354,-0.42 0.403,-0.429 0.434,-0.441C0.466,-0.454 0.481,-0.467 0.481,-0.481C0.481,-0.494 0.465,-0.507 0.433,-0.519C0.4,-0.531 0.353,-0.54 0.29,-0.546L0.289,-0.494C0.289,-0.467 0.289,-0.441 0.29,-0.414Z" style="fill:rgb(254,190,35);fill-rule:nonzero;"/>
                    </g>
                    <g transform="matrix(12,0,0,12,917.183,482.443)">
                        <path d="M0.337,0.054C0.296,0.054 0.256,0.045 0.217,0.027C0.178,0.009 0.143,-0.017 0.111,-0.052C0.08,-0.086 0.055,-0.129 0.036,-0.179C0.018,-0.229 0.008,-0.287 0.008,-0.352C0.008,-0.406 0.016,-0.456 0.031,-0.504C0.045,-0.552 0.067,-0.594 0.095,-0.63C0.123,-0.666 0.157,-0.695 0.198,-0.716C0.239,-0.737 0.284,-0.747 0.335,-0.747C0.389,-0.747 0.435,-0.736 0.476,-0.714C0.516,-0.691 0.55,-0.661 0.577,-0.624C0.604,-0.586 0.624,-0.544 0.638,-0.497C0.651,-0.45 0.658,-0.402 0.658,-0.352C0.658,-0.282 0.649,-0.221 0.631,-0.17C0.613,-0.119 0.589,-0.077 0.558,-0.043C0.528,-0.01 0.493,0.014 0.455,0.03C0.417,0.046 0.377,0.054 0.337,0.054ZM0.372,-0.141C0.389,-0.141 0.405,-0.149 0.421,-0.165C0.437,-0.181 0.449,-0.205 0.459,-0.238C0.469,-0.27 0.474,-0.309 0.474,-0.356C0.474,-0.385 0.471,-0.412 0.464,-0.437C0.457,-0.463 0.448,-0.484 0.434,-0.5C0.421,-0.515 0.405,-0.523 0.385,-0.523C0.36,-0.523 0.338,-0.514 0.321,-0.496C0.303,-0.477 0.29,-0.453 0.28,-0.424C0.271,-0.395 0.266,-0.365 0.266,-0.334C0.266,-0.29 0.271,-0.254 0.281,-0.225C0.292,-0.197 0.305,-0.176 0.321,-0.162C0.338,-0.148 0.354,-0.141 0.372,-0.141Z" style="fill:rgb(254,190,35);fill-rule:nonzero;"/>
                    </g>
                    <g transform="matrix(12,0,0,12,924.917,482.443)">
                        <path d="M0.384,0.055C0.315,0.055 0.267,0.036 0.241,-0.002C0.229,-0.02 0.222,-0.041 0.22,-0.065C0.21,-0.202 0.205,-0.323 0.205,-0.428C0.205,-0.472 0.205,-0.515 0.207,-0.558C0.17,-0.554 0.135,-0.548 0.101,-0.539C0.092,-0.537 0.084,-0.536 0.077,-0.536C0.06,-0.536 0.045,-0.54 0.03,-0.549C0.009,-0.562 -0.005,-0.581 -0.012,-0.606C-0.014,-0.614 -0.015,-0.622 -0.015,-0.629C-0.015,-0.646 -0.01,-0.661 -0.002,-0.676C0.011,-0.697 0.03,-0.711 0.055,-0.717C0.143,-0.739 0.212,-0.751 0.264,-0.751C0.316,-0.752 0.349,-0.752 0.361,-0.752C0.44,-0.752 0.518,-0.749 0.595,-0.741C0.621,-0.739 0.641,-0.728 0.657,-0.71C0.672,-0.692 0.68,-0.672 0.68,-0.649C0.68,-0.62 0.669,-0.597 0.648,-0.58C0.63,-0.564 0.609,-0.557 0.585,-0.557C0.557,-0.559 0.516,-0.562 0.462,-0.564C0.46,-0.515 0.459,-0.465 0.459,-0.415C0.459,-0.307 0.465,-0.182 0.475,-0.041L0.475,-0.03C0.475,0.007 0.46,0.032 0.432,0.045C0.417,0.052 0.402,0.055 0.384,0.055Z" style="fill:rgb(254,190,35);fill-rule:nonzero;"/>
                    </g>
                    <g transform="matrix(12,0,0,12,932.798,482.443)">
                        <path d="M0.329,0.06C0.289,0.06 0.254,0.059 0.222,0.057C0.191,0.055 0.164,0.05 0.141,0.042C0.118,0.034 0.099,0.022 0.084,0.005C0.07,-0.012 0.059,-0.035 0.053,-0.065C0.038,-0.141 0.03,-0.218 0.03,-0.296C0.03,-0.32 0.031,-0.344 0.032,-0.368C0.038,-0.47 0.051,-0.571 0.071,-0.67C0.077,-0.699 0.088,-0.72 0.105,-0.733C0.122,-0.745 0.144,-0.753 0.173,-0.755C0.201,-0.757 0.232,-0.758 0.266,-0.758C0.349,-0.758 0.407,-0.757 0.439,-0.755C0.468,-0.753 0.498,-0.75 0.528,-0.746C0.554,-0.743 0.574,-0.733 0.588,-0.715C0.603,-0.697 0.61,-0.678 0.61,-0.657C0.61,-0.625 0.599,-0.601 0.579,-0.584C0.561,-0.57 0.542,-0.563 0.52,-0.563L0.514,-0.563C0.448,-0.569 0.381,-0.573 0.314,-0.573C0.308,-0.535 0.302,-0.497 0.297,-0.457L0.37,-0.453C0.396,-0.451 0.417,-0.442 0.433,-0.423C0.449,-0.405 0.457,-0.384 0.457,-0.359C0.457,-0.333 0.447,-0.31 0.427,-0.292C0.409,-0.277 0.386,-0.269 0.36,-0.269C0.335,-0.27 0.309,-0.271 0.285,-0.272C0.285,-0.217 0.287,-0.168 0.292,-0.126C0.31,-0.124 0.328,-0.124 0.345,-0.124C0.393,-0.124 0.451,-0.131 0.52,-0.146C0.526,-0.147 0.532,-0.148 0.539,-0.148C0.557,-0.148 0.574,-0.143 0.589,-0.133C0.61,-0.119 0.623,-0.1 0.629,-0.074C0.631,-0.068 0.631,-0.061 0.631,-0.055C0.631,-0.037 0.626,-0.02 0.616,-0.004C0.603,0.016 0.583,0.029 0.558,0.035C0.484,0.052 0.408,0.06 0.329,0.06Z" style="fill:rgb(254,190,35);fill-rule:nonzero;"/>
                    </g>
                    <g transform="matrix(12,0,0,12,940.257,482.443)">
                        <path d="M0.192,0.052C0.157,0.052 0.128,0.047 0.105,0.037C0.083,0.027 0.066,0.013 0.056,-0.005C0.045,-0.023 0.039,-0.043 0.039,-0.066C0.038,-0.104 0.037,-0.142 0.037,-0.18C0.037,-0.339 0.046,-0.498 0.065,-0.656C0.068,-0.685 0.078,-0.705 0.094,-0.718C0.111,-0.731 0.13,-0.737 0.151,-0.737C0.187,-0.737 0.217,-0.731 0.243,-0.718C0.269,-0.706 0.288,-0.69 0.3,-0.671C0.312,-0.652 0.318,-0.632 0.318,-0.611L0.318,-0.604C0.301,-0.452 0.292,-0.301 0.292,-0.151C0.292,-0.116 0.292,-0.079 0.293,-0.042C0.293,-0.02 0.289,-0.001 0.28,0.012C0.271,0.026 0.259,0.036 0.243,0.042C0.228,0.049 0.211,0.052 0.192,0.052ZM0.125,-0.786C0.115,-0.786 0.11,-0.789 0.11,-0.793C0.109,-0.798 0.109,-0.801 0.109,-0.802C0.109,-0.819 0.117,-0.841 0.134,-0.87C0.141,-0.882 0.149,-0.893 0.156,-0.902L0.193,-0.949C0.207,-0.966 0.22,-0.975 0.231,-0.976C0.242,-0.978 0.25,-0.979 0.254,-0.979C0.268,-0.979 0.28,-0.975 0.291,-0.969C0.305,-0.961 0.313,-0.952 0.314,-0.944C0.316,-0.935 0.316,-0.93 0.316,-0.928C0.316,-0.915 0.309,-0.901 0.293,-0.886C0.258,-0.854 0.224,-0.828 0.191,-0.807C0.169,-0.793 0.147,-0.786 0.125,-0.786Z" style="fill:rgb(254,190,35);fill-rule:nonzero;"/>
                    </g>
                    <g transform="matrix(12,0,0,12,944.523,482.443)">
                        <path d="M0.602,0.049C0.543,0.049 0.501,0.036 0.474,0.009C0.449,-0.015 0.402,-0.097 0.333,-0.234C0.32,-0.259 0.307,-0.284 0.294,-0.309C0.292,-0.251 0.291,-0.193 0.291,-0.135L0.291,-0.042C0.291,-0.02 0.287,-0.002 0.278,0.012C0.261,0.036 0.233,0.049 0.192,0.049C0.158,0.049 0.129,0.043 0.106,0.032C0.083,0.021 0.066,0.006 0.054,-0.013C0.042,-0.032 0.036,-0.053 0.036,-0.077C0.036,-0.101 0.036,-0.125 0.036,-0.149C0.036,-0.315 0.044,-0.481 0.06,-0.646C0.062,-0.668 0.067,-0.684 0.076,-0.697C0.085,-0.709 0.097,-0.717 0.11,-0.723C0.124,-0.728 0.138,-0.73 0.153,-0.73C0.181,-0.73 0.205,-0.727 0.223,-0.72C0.241,-0.713 0.256,-0.704 0.268,-0.694C0.28,-0.683 0.289,-0.673 0.297,-0.663C0.35,-0.588 0.398,-0.511 0.44,-0.431C0.44,-0.501 0.436,-0.571 0.43,-0.642L0.43,-0.658C0.43,-0.693 0.443,-0.716 0.47,-0.729C0.484,-0.736 0.499,-0.74 0.516,-0.74C0.595,-0.74 0.645,-0.72 0.667,-0.68C0.686,-0.646 0.695,-0.547 0.695,-0.383C0.695,-0.299 0.692,-0.184 0.687,-0.041C0.685,-0.008 0.677,0.015 0.661,0.029C0.645,0.042 0.625,0.049 0.602,0.049Z" style="fill:rgb(254,190,35);fill-rule:nonzero;"/>
                    </g>
                    <g transform="matrix(12,0,0,12,953.505,482.443)">
                        <path d="M0.302,-0.28C0.346,-0.282 0.39,-0.283 0.434,-0.283L0.484,-0.283C0.482,-0.337 0.477,-0.381 0.47,-0.415C0.464,-0.449 0.455,-0.474 0.445,-0.49C0.435,-0.506 0.424,-0.514 0.412,-0.514C0.393,-0.514 0.373,-0.493 0.354,-0.452C0.334,-0.41 0.316,-0.353 0.302,-0.28ZM0.177,0.061C0.144,0.061 0.115,0.057 0.09,0.05C0.066,0.043 0.047,0.03 0.035,0.013C0.024,-0.005 0.018,-0.027 0.018,-0.055C0.018,-0.077 0.021,-0.125 0.029,-0.2C0.055,-0.469 0.129,-0.64 0.251,-0.712C0.289,-0.734 0.334,-0.745 0.386,-0.745C0.467,-0.745 0.53,-0.713 0.576,-0.648C0.639,-0.56 0.67,-0.417 0.67,-0.221C0.67,-0.174 0.668,-0.125 0.665,-0.075C0.663,-0.048 0.653,-0.027 0.635,-0.011C0.617,0.004 0.596,0.012 0.572,0.012C0.544,0.012 0.521,0.002 0.504,-0.018C0.488,-0.036 0.48,-0.057 0.48,-0.081C0.48,-0.087 0.481,-0.093 0.481,-0.097L0.43,-0.098C0.379,-0.098 0.328,-0.096 0.277,-0.093C0.274,-0.05 0.273,-0.027 0.272,-0.025C0.27,0.006 0.26,0.028 0.243,0.041C0.225,0.054 0.203,0.061 0.177,0.061Z" style="fill:rgb(254,190,35);fill-rule:nonzero;"/>
                    </g>
                    <g transform="matrix(12,0,0,12,962.066,482.443)">
                        <path d="M0.341,0.081C0.33,0.081 0.319,0.08 0.308,0.079C0.246,0.071 0.19,0.05 0.14,0.015C0.09,-0.021 0.049,-0.065 0.016,-0.118C0.006,-0.134 0.001,-0.15 0.001,-0.167C0.001,-0.2 0.015,-0.225 0.044,-0.244C0.06,-0.254 0.076,-0.259 0.093,-0.259C0.126,-0.259 0.152,-0.245 0.171,-0.216C0.185,-0.195 0.202,-0.178 0.222,-0.164C0.242,-0.15 0.263,-0.144 0.286,-0.144C0.307,-0.144 0.324,-0.148 0.337,-0.156C0.35,-0.165 0.356,-0.177 0.356,-0.194C0.356,-0.212 0.339,-0.232 0.305,-0.255C0.289,-0.266 0.272,-0.277 0.252,-0.288C0.192,-0.324 0.146,-0.358 0.115,-0.388C0.068,-0.433 0.045,-0.484 0.045,-0.54C0.045,-0.608 0.073,-0.664 0.129,-0.709C0.155,-0.729 0.183,-0.745 0.215,-0.756C0.251,-0.769 0.286,-0.775 0.32,-0.775C0.391,-0.775 0.452,-0.757 0.502,-0.721C0.555,-0.683 0.597,-0.632 0.63,-0.568C0.638,-0.553 0.642,-0.539 0.642,-0.524C0.642,-0.515 0.64,-0.506 0.637,-0.497C0.63,-0.474 0.615,-0.456 0.592,-0.443C0.577,-0.436 0.563,-0.432 0.548,-0.432C0.54,-0.432 0.531,-0.433 0.521,-0.436C0.498,-0.444 0.48,-0.459 0.468,-0.482C0.445,-0.527 0.413,-0.549 0.37,-0.549C0.346,-0.549 0.326,-0.543 0.311,-0.533C0.301,-0.526 0.297,-0.517 0.297,-0.506C0.297,-0.488 0.314,-0.467 0.349,-0.444C0.364,-0.434 0.382,-0.423 0.401,-0.412C0.461,-0.378 0.506,-0.345 0.538,-0.313C0.585,-0.268 0.608,-0.217 0.608,-0.161C0.608,-0.12 0.6,-0.084 0.583,-0.053C0.566,-0.022 0.543,0.005 0.515,0.026C0.486,0.047 0.457,0.061 0.427,0.069C0.396,0.077 0.368,0.081 0.341,0.081Z" style="fill:rgb(254,190,35);fill-rule:nonzero;"/>
                    </g>
                </g>
            </g>
            <g transform="matrix(5.73924,0,0,5.73924,7641.38,647.177)">
                <g opacity="0.6">
                    <g transform="matrix(12,0,0,12,890.798,470.443)">
                        <path d="M0.456,0.057C0.398,0.057 0.342,0.048 0.288,0.031C0.233,0.014 0.185,-0.012 0.142,-0.046C0.099,-0.081 0.064,-0.124 0.039,-0.176C0.013,-0.228 0,-0.289 0,-0.358C0,-0.413 0.011,-0.463 0.031,-0.51C0.051,-0.556 0.079,-0.597 0.115,-0.631C0.151,-0.666 0.192,-0.693 0.24,-0.712C0.287,-0.732 0.337,-0.741 0.391,-0.741C0.484,-0.741 0.567,-0.719 0.64,-0.675C0.67,-0.657 0.685,-0.631 0.685,-0.598C0.685,-0.586 0.682,-0.574 0.677,-0.562C0.668,-0.54 0.655,-0.525 0.638,-0.517C0.622,-0.509 0.607,-0.504 0.592,-0.504C0.585,-0.504 0.577,-0.505 0.57,-0.507C0.539,-0.515 0.507,-0.519 0.476,-0.519C0.433,-0.519 0.394,-0.511 0.359,-0.495C0.328,-0.481 0.303,-0.46 0.284,-0.432C0.265,-0.404 0.255,-0.368 0.255,-0.324C0.255,-0.253 0.281,-0.2 0.333,-0.167C0.371,-0.142 0.415,-0.129 0.467,-0.129C0.512,-0.129 0.556,-0.138 0.599,-0.156C0.611,-0.161 0.624,-0.164 0.636,-0.164C0.647,-0.164 0.659,-0.161 0.67,-0.157C0.693,-0.147 0.71,-0.131 0.72,-0.106C0.725,-0.094 0.728,-0.082 0.728,-0.07C0.728,-0.059 0.726,-0.047 0.721,-0.036C0.712,-0.013 0.695,0.004 0.67,0.014C0.601,0.042 0.529,0.057 0.456,0.057Z" style="fill:rgb(240,80,34);fill-rule:nonzero;"/>
                    </g>
                    <g transform="matrix(12,0,0,12,899.458,470.443)">
                        <path d="M0.329,0.06C0.289,0.06 0.254,0.059 0.222,0.057C0.191,0.055 0.164,0.05 0.141,0.042C0.118,0.034 0.099,0.022 0.084,0.005C0.07,-0.012 0.059,-0.035 0.053,-0.065C0.038,-0.141 0.03,-0.218 0.03,-0.296C0.03,-0.32 0.031,-0.344 0.032,-0.368C0.038,-0.47 0.051,-0.571 0.071,-0.67C0.077,-0.699 0.088,-0.72 0.105,-0.733C0.122,-0.745 0.144,-0.753 0.173,-0.755C0.201,-0.757 0.232,-0.758 0.266,-0.758C0.349,-0.758 0.407,-0.757 0.439,-0.755C0.468,-0.753 0.498,-0.75 0.528,-0.746C0.554,-0.743 0.574,-0.733 0.588,-0.715C0.603,-0.697 0.61,-0.678 0.61,-0.657C0.61,-0.625 0.599,-0.601 0.579,-0.584C0.561,-0.57 0.542,-0.563 0.52,-0.563L0.514,-0.563C0.448,-0.569 0.381,-0.573 0.314,-0.573C0.308,-0.535 0.302,-0.497 0.297,-0.457L0.37,-0.453C0.396,-0.451 0.417,-0.442 0.433,-0.423C0.449,-0.405 0.457,-0.384 0.457,-0.359C0.457,-0.333 0.447,-0.31 0.427,-0.292C0.409,-0.277 0.386,-0.269 0.36,-0.269C0.335,-0.27 0.309,-0.271 0.285,-0.272C0.285,-0.217 0.287,-0.168 0.292,-0.126C0.31,-0.124 0.328,-0.124 0.345,-0.124C0.393,-0.124 0.451,-0.131 0.52,-0.146C0.526,-0.147 0.532,-0.148 0.539,-0.148C0.557,-0.148 0.574,-0.143 0.589,-0.133C0.61,-0.119 0.623,-0.1 0.629,-0.074C0.631,-0.068 0.631,-0.061 0.631,-0.055C0.631,-0.037 0.626,-0.02 0.616,-0.004C0.603,0.016 0.583,0.029 0.558,0.035C0.484,0.052 0.408,0.06 0.329,0.06Z" style="fill:rgb(240,80,34);fill-rule:nonzero;"/>
                    </g>
                    <g transform="matrix(12,0,0,12,906.917,470.443)">
                        <path d="M0.22,0.035C0.183,0.035 0.153,0.03 0.129,0.02C0.106,0.01 0.088,-0.004 0.076,-0.022C0.064,-0.039 0.056,-0.06 0.054,-0.084C0.041,-0.226 0.035,-0.368 0.035,-0.51C0.035,-0.553 0.035,-0.596 0.036,-0.639C0.037,-0.668 0.043,-0.69 0.055,-0.703C0.067,-0.717 0.087,-0.726 0.115,-0.73C0.142,-0.734 0.181,-0.736 0.23,-0.736C0.268,-0.736 0.308,-0.733 0.349,-0.727C0.39,-0.722 0.43,-0.712 0.468,-0.7C0.506,-0.687 0.54,-0.67 0.57,-0.65C0.601,-0.629 0.625,-0.604 0.643,-0.574C0.661,-0.545 0.67,-0.51 0.67,-0.471C0.67,-0.409 0.643,-0.358 0.589,-0.318C0.544,-0.285 0.488,-0.262 0.422,-0.248C0.451,-0.204 0.493,-0.171 0.547,-0.148C0.586,-0.132 0.605,-0.103 0.605,-0.063C0.605,-0.051 0.602,-0.04 0.597,-0.028C0.581,0.011 0.553,0.03 0.513,0.03C0.501,0.03 0.489,0.027 0.477,0.022C0.408,-0.006 0.351,-0.045 0.306,-0.096C0.308,-0.075 0.309,-0.06 0.309,-0.052C0.309,-0.024 0.301,-0.003 0.286,0.011C0.268,0.027 0.246,0.035 0.22,0.035ZM0.29,-0.414C0.354,-0.42 0.403,-0.429 0.434,-0.441C0.466,-0.454 0.481,-0.467 0.481,-0.481C0.481,-0.494 0.465,-0.507 0.433,-0.519C0.4,-0.531 0.353,-0.54 0.29,-0.546L0.289,-0.494C0.289,-0.467 0.289,-0.441 0.29,-0.414Z" style="fill:rgb(240,80,34);fill-rule:nonzero;"/>
                    </g>
                    <g transform="matrix(12,0,0,12,915.161,470.443)">
                        <path d="M0.329,0.06C0.289,0.06 0.254,0.059 0.222,0.057C0.191,0.055 0.164,0.05 0.141,0.042C0.118,0.034 0.099,0.022 0.084,0.005C0.07,-0.012 0.059,-0.035 0.053,-0.065C0.038,-0.141 0.03,-0.218 0.03,-0.296C0.03,-0.32 0.031,-0.344 0.032,-0.368C0.038,-0.47 0.051,-0.571 0.071,-0.67C0.077,-0.699 0.088,-0.72 0.105,-0.733C0.122,-0.745 0.144,-0.753 0.173,-0.755C0.201,-0.757 0.232,-0.758 0.266,-0.758C0.349,-0.758 0.407,-0.757 0.439,-0.755C0.468,-0.753 0.498,-0.75 0.528,-0.746C0.554,-0.743 0.574,-0.733 0.588,-0.715C0.603,-0.697 0.61,-0.678 0.61,-0.657C0.61,-0.625 0.599,-0.601 0.579,-0.584C0.561,-0.57 0.542,-0.563 0.52,-0.563L0.514,-0.563C0.448,-0.569 0.381,-0.573 0.314,-0.573C0.308,-0.535 0.302,-0.497 0.297,-0.457L0.37,-0.453C0.396,-0.451 0.417,-0.442 0.433,-0.423C0.449,-0.405 0.457,-0.384 0.457,-0.359C0.457,-0.333 0.447,-0.31 0.427,-0.292C0.409,-0.277 0.386,-0.269 0.36,-0.269C0.335,-0.27 0.309,-0.271 0.285,-0.272C0.285,-0.217 0.287,-0.168 0.292,-0.126C0.31,-0.124 0.328,-0.124 0.345,-0.124C0.393,-0.124 0.451,-0.131 0.52,-0.146C0.526,-0.147 0.532,-0.148 0.539,-0.148C0.557,-0.148 0.574,-0.143 0.589,-0.133C0.61,-0.119 0.623,-0.1 0.629,-0.074C0.631,-0.068 0.631,-0.061 0.631,-0.055C0.631,-0.037 0.626,-0.02 0.616,-0.004C0.603,0.016 0.583,0.029 0.558,0.035C0.484,0.052 0.408,0.06 0.329,0.06Z" style="fill:rgb(240,80,34);fill-rule:nonzero;"/>
                    </g>
                    <g transform="matrix(12,0,0,12,923.025,470.443)">
                        <path d="M0.302,-0.28C0.346,-0.282 0.39,-0.283 0.434,-0.283L0.484,-0.283C0.482,-0.337 0.477,-0.381 0.47,-0.415C0.464,-0.449 0.455,-0.474 0.445,-0.49C0.435,-0.506 0.424,-0.514 0.412,-0.514C0.393,-0.514 0.373,-0.493 0.354,-0.452C0.334,-0.41 0.316,-0.353 0.302,-0.28ZM0.177,0.061C0.144,0.061 0.115,0.057 0.09,0.05C0.066,0.043 0.047,0.03 0.035,0.013C0.024,-0.005 0.018,-0.027 0.018,-0.055C0.018,-0.077 0.021,-0.125 0.029,-0.2C0.055,-0.469 0.129,-0.64 0.251,-0.712C0.289,-0.734 0.334,-0.745 0.386,-0.745C0.467,-0.745 0.53,-0.713 0.576,-0.648C0.639,-0.56 0.67,-0.417 0.67,-0.221C0.67,-0.174 0.668,-0.125 0.665,-0.075C0.663,-0.048 0.653,-0.027 0.635,-0.011C0.617,0.004 0.596,0.012 0.572,0.012C0.544,0.012 0.521,0.002 0.504,-0.018C0.488,-0.036 0.48,-0.057 0.48,-0.081C0.48,-0.087 0.481,-0.093 0.481,-0.097L0.43,-0.098C0.379,-0.098 0.328,-0.096 0.277,-0.093C0.274,-0.05 0.273,-0.027 0.272,-0.025C0.27,0.006 0.26,0.028 0.243,0.041C0.225,0.054 0.203,0.061 0.177,0.061Z" style="fill:rgb(240,80,34);fill-rule:nonzero;"/>
                    </g>
                    <g transform="matrix(12,0,0,12,931.585,470.443)">
                        <path d="M0.267,0.067L0.258,0.067C0.142,0.067 0.074,0.029 0.056,-0.046C0.04,-0.111 0.032,-0.18 0.032,-0.255C0.032,-0.382 0.046,-0.527 0.074,-0.689C0.082,-0.74 0.115,-0.765 0.173,-0.765C0.209,-0.765 0.239,-0.758 0.263,-0.745C0.287,-0.731 0.304,-0.715 0.313,-0.696C0.323,-0.677 0.327,-0.659 0.327,-0.642C0.327,-0.635 0.327,-0.629 0.326,-0.622C0.313,-0.549 0.304,-0.478 0.297,-0.408C0.29,-0.339 0.287,-0.281 0.287,-0.235C0.287,-0.196 0.288,-0.158 0.292,-0.121C0.36,-0.123 0.425,-0.135 0.489,-0.157C0.5,-0.161 0.511,-0.163 0.522,-0.163C0.535,-0.163 0.548,-0.16 0.56,-0.154C0.583,-0.144 0.598,-0.126 0.607,-0.102C0.612,-0.091 0.614,-0.08 0.614,-0.069C0.614,-0.056 0.611,-0.044 0.605,-0.031C0.595,-0.009 0.577,0.007 0.552,0.017C0.528,0.026 0.489,0.037 0.437,0.049C0.384,0.06 0.327,0.066 0.267,0.067Z" style="fill:rgb(240,80,34);fill-rule:nonzero;"/>
                    </g>
                    <g transform="matrix(12,0,0,12,938.786,470.443)">
                        <path d="M0.329,0.06C0.289,0.06 0.254,0.059 0.222,0.057C0.191,0.055 0.164,0.05 0.141,0.042C0.118,0.034 0.099,0.022 0.084,0.005C0.07,-0.012 0.059,-0.035 0.053,-0.065C0.038,-0.141 0.03,-0.218 0.03,-0.296C0.03,-0.32 0.031,-0.344 0.032,-0.368C0.038,-0.47 0.051,-0.571 0.071,-0.67C0.077,-0.699 0.088,-0.72 0.105,-0.733C0.122,-0.745 0.144,-0.753 0.173,-0.755C0.201,-0.757 0.232,-0.758 0.266,-0.758C0.349,-0.758 0.407,-0.757 0.439,-0.755C0.468,-0.753 0.498,-0.75 0.528,-0.746C0.554,-0.743 0.574,-0.733 0.588,-0.715C0.603,-0.697 0.61,-0.678 0.61,-0.657C0.61,-0.625 0.599,-0.601 0.579,-0.584C0.561,-0.57 0.542,-0.563 0.52,-0.563L0.514,-0.563C0.448,-0.569 0.381,-0.573 0.314,-0.573C0.308,-0.535 0.302,-0.497 0.297,-0.457L0.37,-0.453C0.396,-0.451 0.417,-0.442 0.433,-0.423C0.449,-0.405 0.457,-0.384 0.457,-0.359C0.457,-0.333 0.447,-0.31 0.427,-0.292C0.409,-0.277 0.386,-0.269 0.36,-0.269C0.335,-0.27 0.309,-0.271 0.285,-0.272C0.285,-0.217 0.287,-0.168 0.292,-0.126C0.31,-0.124 0.328,-0.124 0.345,-0.124C0.393,-0.124 0.451,-0.131 0.52,-0.146C0.526,-0.147 0.532,-0.148 0.539,-0.148C0.557,-0.148 0.574,-0.143 0.589,-0.133C0.61,-0.119 0.623,-0.1 0.629,-0.074C0.631,-0.068 0.631,-0.061 0.631,-0.055C0.631,-0.037 0.626,-0.02 0.616,-0.004C0.603,0.016 0.583,0.029 0.558,0.035C0.484,0.052 0.408,0.06 0.329,0.06Z" style="fill:rgb(240,80,34);fill-rule:nonzero;"/>
                    </g>
                    <g transform="matrix(12,0,0,12,946.368,470.443)">
                        <path d="M0.341,0.081C0.33,0.081 0.319,0.08 0.308,0.079C0.246,0.071 0.19,0.05 0.14,0.015C0.09,-0.021 0.049,-0.065 0.016,-0.118C0.006,-0.134 0.001,-0.15 0.001,-0.167C0.001,-0.2 0.015,-0.225 0.044,-0.244C0.06,-0.254 0.076,-0.259 0.093,-0.259C0.126,-0.259 0.152,-0.245 0.171,-0.216C0.185,-0.195 0.202,-0.178 0.222,-0.164C0.242,-0.15 0.263,-0.144 0.286,-0.144C0.307,-0.144 0.324,-0.148 0.337,-0.156C0.35,-0.165 0.356,-0.177 0.356,-0.194C0.356,-0.212 0.339,-0.232 0.305,-0.255C0.289,-0.266 0.272,-0.277 0.252,-0.288C0.192,-0.324 0.146,-0.358 0.115,-0.388C0.068,-0.433 0.045,-0.484 0.045,-0.54C0.045,-0.608 0.073,-0.664 0.129,-0.709C0.155,-0.729 0.183,-0.745 0.215,-0.756C0.251,-0.769 0.286,-0.775 0.32,-0.775C0.391,-0.775 0.452,-0.757 0.502,-0.721C0.555,-0.683 0.597,-0.632 0.63,-0.568C0.638,-0.553 0.642,-0.539 0.642,-0.524C0.642,-0.515 0.64,-0.506 0.637,-0.497C0.63,-0.474 0.615,-0.456 0.592,-0.443C0.577,-0.436 0.563,-0.432 0.548,-0.432C0.54,-0.432 0.531,-0.433 0.521,-0.436C0.498,-0.444 0.48,-0.459 0.468,-0.482C0.445,-0.527 0.413,-0.549 0.37,-0.549C0.346,-0.549 0.326,-0.543 0.311,-0.533C0.301,-0.526 0.297,-0.517 0.297,-0.506C0.297,-0.488 0.314,-0.467 0.349,-0.444C0.364,-0.434 0.382,-0.423 0.401,-0.412C0.461,-0.378 0.506,-0.345 0.538,-0.313C0.585,-0.268 0.608,-0.217 0.608,-0.161C0.608,-0.12 0.6,-0.084 0.583,-0.053C0.566,-0.022 0.543,0.005 0.515,0.026C0.486,0.047 0.457,0.061 0.427,0.069C0.396,0.077 0.368,0.081 0.341,0.081Z" style="fill:rgb(240,80,34);fill-rule:nonzero;"/>
                    </g>
                    <g transform="matrix(12,0,0,12,890.798,482.443)">
                        <path d="M0.196,0.054C0.167,0.054 0.139,0.044 0.113,0.024C0.074,-0.006 0.054,-0.04 0.054,-0.078C0.054,-0.095 0.059,-0.111 0.07,-0.127C0.119,-0.201 0.165,-0.275 0.208,-0.348C0.133,-0.425 0.067,-0.503 0.01,-0.583C-0.001,-0.6 -0.007,-0.617 -0.007,-0.636C-0.007,-0.667 0.006,-0.693 0.032,-0.711C0.049,-0.724 0.067,-0.73 0.085,-0.73C0.116,-0.73 0.141,-0.717 0.16,-0.69C0.201,-0.634 0.249,-0.576 0.304,-0.515C0.335,-0.571 0.365,-0.628 0.396,-0.686C0.412,-0.717 0.428,-0.733 0.444,-0.734C0.46,-0.736 0.469,-0.736 0.473,-0.736C0.497,-0.736 0.521,-0.729 0.545,-0.714C0.572,-0.697 0.59,-0.678 0.6,-0.657C0.61,-0.637 0.615,-0.62 0.615,-0.606C0.615,-0.592 0.611,-0.579 0.604,-0.565C0.504,-0.365 0.391,-0.172 0.265,0.013C0.247,0.041 0.224,0.054 0.196,0.054Z" style="fill:rgb(240,80,34);fill-rule:nonzero;"/>
                    </g>
                    <g transform="matrix(12,0,0,12,900.988,482.443)">
                        <path d="M0.384,0.055C0.315,0.055 0.267,0.036 0.241,-0.002C0.229,-0.02 0.222,-0.041 0.22,-0.065C0.21,-0.202 0.205,-0.323 0.205,-0.428C0.205,-0.472 0.205,-0.515 0.207,-0.558C0.17,-0.554 0.135,-0.548 0.101,-0.539C0.092,-0.537 0.084,-0.536 0.077,-0.536C0.06,-0.536 0.045,-0.54 0.03,-0.549C0.009,-0.562 -0.005,-0.581 -0.012,-0.606C-0.014,-0.614 -0.015,-0.622 -0.015,-0.629C-0.015,-0.646 -0.01,-0.661 -0.002,-0.676C0.011,-0.697 0.03,-0.711 0.055,-0.717C0.143,-0.739 0.212,-0.751 0.264,-0.751C0.316,-0.752 0.349,-0.752 0.361,-0.752C0.44,-0.752 0.518,-0.749 0.595,-0.741C0.621,-0.739 0.641,-0.728 0.657,-0.71C0.672,-0.692 0.68,-0.672 0.68,-0.649C0.68,-0.62 0.669,-0.597 0.648,-0.58C0.63,-0.564 0.609,-0.557 0.585,-0.557C0.557,-0.559 0.516,-0.562 0.462,-0.564C0.46,-0.515 0.459,-0.465 0.459,-0.415C0.459,-0.307 0.465,-0.182 0.475,-0.041L0.475,-0.03C0.475,0.007 0.46,0.032 0.432,0.045C0.417,0.052 0.402,0.055 0.384,0.055Z" style="fill:rgb(240,80,34);fill-rule:nonzero;"/>
                    </g>
                    <g transform="matrix(12,0,0,12,909.179,482.443)">
                        <path d="M0.613,0.042C0.584,0.042 0.561,0.039 0.543,0.033C0.525,0.027 0.51,0.02 0.499,0.01C0.487,0 0.478,-0.01 0.471,-0.021C0.43,0.021 0.375,0.042 0.307,0.042C0.198,0.042 0.122,-0.016 0.078,-0.133C0.056,-0.189 0.043,-0.245 0.037,-0.302C0.032,-0.359 0.029,-0.41 0.029,-0.457C0.029,-0.529 0.034,-0.597 0.043,-0.661C0.05,-0.712 0.078,-0.737 0.126,-0.737C0.187,-0.736 0.231,-0.723 0.258,-0.697C0.283,-0.671 0.296,-0.643 0.296,-0.613C0.296,-0.608 0.295,-0.602 0.294,-0.597C0.292,-0.583 0.29,-0.56 0.287,-0.526C0.284,-0.493 0.282,-0.46 0.281,-0.428C0.279,-0.396 0.279,-0.369 0.279,-0.347C0.279,-0.222 0.295,-0.16 0.328,-0.16C0.364,-0.16 0.39,-0.22 0.407,-0.339C0.418,-0.42 0.426,-0.519 0.43,-0.636C0.432,-0.675 0.448,-0.701 0.48,-0.714C0.494,-0.719 0.51,-0.722 0.526,-0.722C0.562,-0.722 0.592,-0.716 0.615,-0.705C0.639,-0.693 0.656,-0.678 0.667,-0.659C0.678,-0.641 0.684,-0.621 0.684,-0.598C0.682,-0.5 0.682,-0.425 0.682,-0.375C0.682,-0.344 0.682,-0.314 0.682,-0.284C0.683,-0.209 0.689,-0.134 0.699,-0.06C0.7,-0.053 0.7,-0.046 0.7,-0.04C0.7,-0.006 0.687,0.018 0.661,0.031C0.647,0.038 0.631,0.042 0.613,0.042Z" style="fill:rgb(240,80,34);fill-rule:nonzero;"/>
                    </g>
                    <g transform="matrix(12,0,0,12,918.091,482.443)">
                        <path d="M0.298,-0.126C0.373,-0.126 0.429,-0.129 0.464,-0.135C0.499,-0.141 0.517,-0.153 0.517,-0.17C0.517,-0.181 0.51,-0.192 0.495,-0.201C0.48,-0.21 0.455,-0.218 0.422,-0.223C0.388,-0.229 0.343,-0.231 0.288,-0.231C0.289,-0.195 0.292,-0.16 0.298,-0.126ZM0.294,-0.419C0.34,-0.419 0.377,-0.422 0.406,-0.427C0.435,-0.433 0.457,-0.44 0.47,-0.449C0.484,-0.459 0.491,-0.469 0.491,-0.48C0.491,-0.51 0.43,-0.533 0.309,-0.548C0.303,-0.507 0.298,-0.464 0.294,-0.419ZM0.318,0.065C0.175,0.065 0.092,0.028 0.067,-0.046C0.047,-0.108 0.036,-0.162 0.033,-0.208C0.031,-0.253 0.03,-0.287 0.03,-0.31C0.03,-0.398 0.041,-0.51 0.063,-0.645C0.071,-0.696 0.109,-0.726 0.179,-0.733C0.208,-0.737 0.234,-0.738 0.257,-0.738C0.294,-0.738 0.333,-0.735 0.372,-0.727C0.412,-0.72 0.45,-0.708 0.486,-0.694C0.523,-0.679 0.555,-0.66 0.584,-0.638C0.613,-0.616 0.636,-0.59 0.653,-0.56C0.671,-0.53 0.679,-0.497 0.679,-0.46C0.679,-0.441 0.675,-0.423 0.667,-0.407C0.658,-0.39 0.647,-0.376 0.633,-0.364C0.619,-0.352 0.604,-0.342 0.587,-0.335C0.609,-0.329 0.63,-0.318 0.65,-0.303C0.671,-0.287 0.688,-0.268 0.702,-0.245C0.715,-0.222 0.722,-0.197 0.722,-0.169C0.722,-0.137 0.714,-0.108 0.698,-0.083C0.682,-0.058 0.661,-0.036 0.634,-0.017C0.606,0.002 0.575,0.017 0.541,0.029C0.506,0.041 0.47,0.05 0.431,0.056C0.393,0.062 0.355,0.065 0.318,0.065Z" style="fill:rgb(240,80,34);fill-rule:nonzero;"/>
                    </g>
                    <g transform="matrix(12,0,0,12,926.956,482.443)">
                        <path d="M0.329,0.06C0.289,0.06 0.254,0.059 0.222,0.057C0.191,0.055 0.164,0.05 0.141,0.042C0.118,0.034 0.099,0.022 0.084,0.005C0.07,-0.012 0.059,-0.035 0.053,-0.065C0.038,-0.141 0.03,-0.218 0.03,-0.296C0.03,-0.32 0.031,-0.344 0.032,-0.368C0.038,-0.47 0.051,-0.571 0.071,-0.67C0.077,-0.699 0.088,-0.72 0.105,-0.733C0.122,-0.745 0.144,-0.753 0.173,-0.755C0.201,-0.757 0.232,-0.758 0.266,-0.758C0.349,-0.758 0.407,-0.757 0.439,-0.755C0.468,-0.753 0.498,-0.75 0.528,-0.746C0.554,-0.743 0.574,-0.733 0.588,-0.715C0.603,-0.697 0.61,-0.678 0.61,-0.657C0.61,-0.625 0.599,-0.601 0.579,-0.584C0.561,-0.57 0.542,-0.563 0.52,-0.563L0.514,-0.563C0.448,-0.569 0.381,-0.573 0.314,-0.573C0.308,-0.535 0.302,-0.497 0.297,-0.457L0.37,-0.453C0.396,-0.451 0.417,-0.442 0.433,-0.423C0.449,-0.405 0.457,-0.384 0.457,-0.359C0.457,-0.333 0.447,-0.31 0.427,-0.292C0.409,-0.277 0.386,-0.269 0.36,-0.269C0.335,-0.27 0.309,-0.271 0.285,-0.272C0.285,-0.217 0.287,-0.168 0.292,-0.126C0.31,-0.124 0.328,-0.124 0.345,-0.124C0.393,-0.124 0.451,-0.131 0.52,-0.146C0.526,-0.147 0.532,-0.148 0.539,-0.148C0.557,-0.148 0.574,-0.143 0.589,-0.133C0.61,-0.119 0.623,-0.1 0.629,-0.074C0.631,-0.068 0.631,-0.061 0.631,-0.055C0.631,-0.037 0.626,-0.02 0.616,-0.004C0.603,0.016 0.583,0.029 0.558,0.035C0.484,0.052 0.408,0.06 0.329,0.06ZM0.278,-0.786C0.268,-0.786 0.263,-0.789 0.262,-0.793C0.262,-0.798 0.262,-0.801 0.262,-0.802C0.262,-0.819 0.27,-0.841 0.287,-0.87C0.294,-0.882 0.301,-0.893 0.309,-0.902L0.346,-0.949C0.36,-0.966 0.373,-0.975 0.384,-0.976C0.395,-0.978 0.403,-0.979 0.407,-0.979C0.42,-0.979 0.433,-0.975 0.444,-0.969C0.458,-0.961 0.466,-0.952 0.467,-0.944C0.469,-0.935 0.469,-0.93 0.469,-0.928C0.469,-0.915 0.462,-0.901 0.446,-0.886C0.411,-0.854 0.377,-0.828 0.344,-0.807C0.322,-0.793 0.3,-0.786 0.278,-0.786Z" style="fill:rgb(240,80,34);fill-rule:nonzero;"/>
                    </g>
                    <g transform="matrix(12,0,0,12,934.415,482.443)">
                        <path d="M0.22,0.035C0.183,0.035 0.153,0.03 0.129,0.02C0.106,0.01 0.088,-0.004 0.076,-0.022C0.064,-0.039 0.056,-0.06 0.054,-0.084C0.041,-0.226 0.035,-0.368 0.035,-0.51C0.035,-0.553 0.035,-0.596 0.036,-0.639C0.037,-0.668 0.043,-0.69 0.055,-0.703C0.067,-0.717 0.087,-0.726 0.115,-0.73C0.142,-0.734 0.181,-0.736 0.23,-0.736C0.268,-0.736 0.308,-0.733 0.349,-0.727C0.39,-0.722 0.43,-0.712 0.468,-0.7C0.506,-0.687 0.54,-0.67 0.57,-0.65C0.601,-0.629 0.625,-0.604 0.643,-0.574C0.661,-0.545 0.67,-0.51 0.67,-0.471C0.67,-0.409 0.643,-0.358 0.589,-0.318C0.544,-0.285 0.488,-0.262 0.422,-0.248C0.451,-0.204 0.493,-0.171 0.547,-0.148C0.586,-0.132 0.605,-0.103 0.605,-0.063C0.605,-0.051 0.602,-0.04 0.597,-0.028C0.581,0.011 0.553,0.03 0.513,0.03C0.501,0.03 0.489,0.027 0.477,0.022C0.408,-0.006 0.351,-0.045 0.306,-0.096C0.308,-0.075 0.309,-0.06 0.309,-0.052C0.309,-0.024 0.301,-0.003 0.286,0.011C0.268,0.027 0.246,0.035 0.22,0.035ZM0.29,-0.414C0.354,-0.42 0.403,-0.429 0.434,-0.441C0.466,-0.454 0.481,-0.467 0.481,-0.481C0.481,-0.494 0.465,-0.507 0.433,-0.519C0.4,-0.531 0.353,-0.54 0.29,-0.546L0.289,-0.494C0.289,-0.467 0.289,-0.441 0.29,-0.414Z" style="fill:rgb(240,80,34);fill-rule:nonzero;"/>
                    </g>
                    <g transform="matrix(12,0,0,12,942.841,482.443)">
                        <path d="M0.456,0.057C0.398,0.057 0.342,0.048 0.288,0.031C0.233,0.014 0.185,-0.012 0.142,-0.046C0.099,-0.081 0.064,-0.124 0.039,-0.176C0.013,-0.228 0,-0.289 0,-0.358C0,-0.413 0.011,-0.463 0.031,-0.51C0.051,-0.556 0.079,-0.597 0.115,-0.631C0.151,-0.666 0.192,-0.693 0.24,-0.712C0.287,-0.732 0.337,-0.741 0.391,-0.741C0.484,-0.741 0.567,-0.719 0.64,-0.675C0.67,-0.657 0.685,-0.631 0.685,-0.598C0.685,-0.586 0.682,-0.574 0.677,-0.562C0.668,-0.54 0.655,-0.525 0.638,-0.517C0.622,-0.509 0.607,-0.504 0.592,-0.504C0.585,-0.504 0.577,-0.505 0.57,-0.507C0.539,-0.515 0.507,-0.519 0.476,-0.519C0.433,-0.519 0.394,-0.511 0.359,-0.495C0.328,-0.481 0.303,-0.46 0.284,-0.432C0.265,-0.404 0.255,-0.368 0.255,-0.324C0.255,-0.253 0.281,-0.2 0.333,-0.167C0.371,-0.142 0.415,-0.129 0.467,-0.129C0.512,-0.129 0.556,-0.138 0.599,-0.156C0.611,-0.161 0.624,-0.164 0.636,-0.164C0.647,-0.164 0.659,-0.161 0.67,-0.157C0.693,-0.147 0.71,-0.131 0.72,-0.106C0.725,-0.094 0.728,-0.082 0.728,-0.07C0.728,-0.059 0.726,-0.047 0.721,-0.036C0.712,-0.013 0.695,0.004 0.67,0.014C0.601,0.042 0.529,0.057 0.456,0.057Z" style="fill:rgb(240,80,34);fill-rule:nonzero;"/>
                    </g>
                    <g transform="matrix(12,0,0,12,951.279,482.443)">
                        <path d="M0.613,0.042C0.584,0.042 0.561,0.039 0.543,0.033C0.525,0.027 0.51,0.02 0.499,0.01C0.487,0 0.478,-0.01 0.471,-0.021C0.43,0.021 0.375,0.042 0.307,0.042C0.198,0.042 0.122,-0.016 0.078,-0.133C0.056,-0.189 0.043,-0.245 0.037,-0.302C0.032,-0.359 0.029,-0.41 0.029,-0.457C0.029,-0.529 0.034,-0.597 0.043,-0.661C0.05,-0.712 0.078,-0.737 0.126,-0.737C0.187,-0.736 0.231,-0.723 0.258,-0.697C0.283,-0.671 0.296,-0.643 0.296,-0.613C0.296,-0.608 0.295,-0.602 0.294,-0.597C0.292,-0.583 0.29,-0.56 0.287,-0.526C0.284,-0.493 0.282,-0.46 0.281,-0.428C0.279,-0.396 0.279,-0.369 0.279,-0.347C0.279,-0.222 0.295,-0.16 0.328,-0.16C0.364,-0.16 0.39,-0.22 0.407,-0.339C0.418,-0.42 0.426,-0.519 0.43,-0.636C0.432,-0.675 0.448,-0.701 0.48,-0.714C0.494,-0.719 0.51,-0.722 0.526,-0.722C0.562,-0.722 0.592,-0.716 0.615,-0.705C0.639,-0.693 0.656,-0.678 0.667,-0.659C0.678,-0.641 0.684,-0.621 0.684,-0.598C0.682,-0.5 0.682,-0.425 0.682,-0.375C0.682,-0.344 0.682,-0.314 0.682,-0.284C0.683,-0.209 0.689,-0.134 0.699,-0.06C0.7,-0.053 0.7,-0.046 0.7,-0.04C0.7,-0.006 0.687,0.018 0.661,0.031C0.647,0.038 0.631,0.042 0.613,0.042Z" style="fill:rgb(240,80,34);fill-rule:nonzero;"/>
                    </g>
                    <g transform="matrix(12,0,0,12,960.191,482.443)">
                        <path d="M0.267,0.067L0.258,0.067C0.142,0.067 0.074,0.029 0.056,-0.046C0.04,-0.111 0.032,-0.18 0.032,-0.255C0.032,-0.382 0.046,-0.527 0.074,-0.689C0.082,-0.74 0.115,-0.765 0.173,-0.765C0.209,-0.765 0.239,-0.758 0.263,-0.745C0.287,-0.731 0.304,-0.715 0.313,-0.696C0.323,-0.677 0.327,-0.659 0.327,-0.642C0.327,-0.635 0.327,-0.629 0.326,-0.622C0.313,-0.549 0.304,-0.478 0.297,-0.408C0.29,-0.339 0.287,-0.281 0.287,-0.235C0.287,-0.196 0.288,-0.158 0.292,-0.121C0.36,-0.123 0.425,-0.135 0.489,-0.157C0.5,-0.161 0.511,-0.163 0.522,-0.163C0.535,-0.163 0.548,-0.16 0.56,-0.154C0.583,-0.144 0.598,-0.126 0.607,-0.102C0.612,-0.091 0.614,-0.08 0.614,-0.069C0.614,-0.056 0.611,-0.044 0.605,-0.031C0.595,-0.009 0.577,0.007 0.552,0.017C0.528,0.026 0.489,0.037 0.437,0.049C0.384,0.06 0.327,0.066 0.267,0.067Z" style="fill:rgb(240,80,34);fill-rule:nonzero;"/>
                    </g>
                    <g transform="matrix(12,0,0,12,967.175,482.443)">
                        <path d="M0.337,0.054C0.296,0.054 0.256,0.045 0.217,0.027C0.178,0.009 0.143,-0.017 0.111,-0.052C0.08,-0.086 0.055,-0.129 0.036,-0.179C0.018,-0.229 0.008,-0.287 0.008,-0.352C0.008,-0.406 0.016,-0.456 0.031,-0.504C0.045,-0.552 0.067,-0.594 0.095,-0.63C0.123,-0.666 0.157,-0.695 0.198,-0.716C0.239,-0.737 0.284,-0.747 0.335,-0.747C0.389,-0.747 0.435,-0.736 0.476,-0.714C0.516,-0.691 0.55,-0.661 0.577,-0.624C0.604,-0.586 0.624,-0.544 0.638,-0.497C0.651,-0.45 0.658,-0.402 0.658,-0.352C0.658,-0.282 0.649,-0.221 0.631,-0.17C0.613,-0.119 0.589,-0.077 0.558,-0.043C0.528,-0.01 0.493,0.014 0.455,0.03C0.417,0.046 0.377,0.054 0.337,0.054ZM0.372,-0.141C0.389,-0.141 0.405,-0.149 0.421,-0.165C0.437,-0.181 0.449,-0.205 0.459,-0.238C0.469,-0.27 0.474,-0.309 0.474,-0.356C0.474,-0.385 0.471,-0.412 0.464,-0.437C0.457,-0.463 0.448,-0.484 0.434,-0.5C0.421,-0.515 0.405,-0.523 0.385,-0.523C0.36,-0.523 0.338,-0.514 0.321,-0.496C0.303,-0.477 0.29,-0.453 0.28,-0.424C0.271,-0.395 0.266,-0.365 0.266,-0.334C0.266,-0.29 0.271,-0.254 0.281,-0.225C0.292,-0.197 0.305,-0.176 0.321,-0.162C0.338,-0.148 0.354,-0.141 0.372,-0.141Z" style="fill:rgb(240,80,34);fill-rule:nonzero;"/>
                    </g>
                    <g transform="matrix(12,0,0,12,975.273,482.443)">
                        <path d="M0.341,0.081C0.33,0.081 0.319,0.08 0.308,0.079C0.246,0.071 0.19,0.05 0.14,0.015C0.09,-0.021 0.049,-0.065 0.016,-0.118C0.006,-0.134 0.001,-0.15 0.001,-0.167C0.001,-0.2 0.015,-0.225 0.044,-0.244C0.06,-0.254 0.076,-0.259 0.093,-0.259C0.126,-0.259 0.152,-0.245 0.171,-0.216C0.185,-0.195 0.202,-0.178 0.222,-0.164C0.242,-0.15 0.263,-0.144 0.286,-0.144C0.307,-0.144 0.324,-0.148 0.337,-0.156C0.35,-0.165 0.356,-0.177 0.356,-0.194C0.356,-0.212 0.339,-0.232 0.305,-0.255C0.289,-0.266 0.272,-0.277 0.252,-0.288C0.192,-0.324 0.146,-0.358 0.115,-0.388C0.068,-0.433 0.045,-0.484 0.045,-0.54C0.045,-0.608 0.073,-0.664 0.129,-0.709C0.155,-0.729 0.183,-0.745 0.215,-0.756C0.251,-0.769 0.286,-0.775 0.32,-0.775C0.391,-0.775 0.452,-0.757 0.502,-0.721C0.555,-0.683 0.597,-0.632 0.63,-0.568C0.638,-0.553 0.642,-0.539 0.642,-0.524C0.642,-0.515 0.64,-0.506 0.637,-0.497C0.63,-0.474 0.615,-0.456 0.592,-0.443C0.577,-0.436 0.563,-0.432 0.548,-0.432C0.54,-0.432 0.531,-0.433 0.521,-0.436C0.498,-0.444 0.48,-0.459 0.468,-0.482C0.445,-0.527 0.413,-0.549 0.37,-0.549C0.346,-0.549 0.326,-0.543 0.311,-0.533C0.301,-0.526 0.297,-0.517 0.297,-0.506C0.297,-0.488 0.314,-0.467 0.349,-0.444C0.364,-0.434 0.382,-0.423 0.401,-0.412C0.461,-0.378 0.506,-0.345 0.538,-0.313C0.585,-0.268 0.608,-0.217 0.608,-0.161C0.608,-0.12 0.6,-0.084 0.583,-0.053C0.566,-0.022 0.543,0.005 0.515,0.026C0.486,0.047 0.457,0.061 0.427,0.069C0.396,0.077 0.368,0.081 0.341,0.081Z" style="fill:rgb(240,80,34);fill-rule:nonzero;"/>
                    </g>
                </g>
            </g>
        </g>
    </g>
</svg>
