<svg clip-rule="evenodd" fill-rule="evenodd" stroke-miterlimit="10" viewBox="0 0 1649 1646" xmlns="http://www.w3.org/2000/svg"><g transform="translate(-11826.3 -2299.5)"><circle cx="-142.385" fill="none" r="142.385" stroke="#5ebc59" stroke-width="9.8" transform="matrix(0 -5.55556 -5.55556 0 12650.8 2331.97)"/><g fill-rule="nonzero"><path d="m-32.163 134.692h142.385c0-53.548-30.206-102.746-77.959-126.975-47.789-24.248-105.38-19.546-148.601 12.135z" fill="#fff" stroke="#c4da59" stroke-width="1.03" transform="matrix(-4.95431 -2.51377 -2.51377 4.95431 12830 2374.84)"/><path d="m0-78.268.278 142.385h-.278c-78.11 0-142.385-64.275-142.385-142.385 0-22.27 5.225-44.233 15.253-64.117z" fill="#fff" stroke="#febe23" stroke-width="1.03" transform="matrix(5.55556 0 0 5.55556 12650.8 3557.82)"/><path d="m0-78.268-.277 142.384c.092.001.185.001.277.001 78.111 0 142.385-64.275 142.385-142.385 0-22.27-5.224-44.234-15.252-64.117z" fill="#fff" stroke="#f05022" stroke-width="1.03" transform="matrix(5.55556 0 0 5.55556 12651.6 3557.7)"/><path d="m.218.045c-.038 0-.073-.009-.105-.027-.056-.033-.084-.137-.084-.314 0-.024.001-.048.003-.072.006-.102.019-.203.04-.302.009-.042.035-.067.077-.074s.071-.011.086-.011c.034-.002.069-.003.103-.003.062 0 .125.004.189.011.026.004.047.014.061.032s.021.037.021.058c0 .032-.01.056-.031.073-.017.014-.037.021-.058.021h-.007c-.066-.006-.132-.01-.2-.01-.006.038-.011.076-.016.116l.072.004c.026.002.047.011.063.03.016.018.025.039.025.064-.001.026-.011.049-.031.067-.018.015-.04.023-.066.023-.026-.001-.051-.002-.076-.003 0 .08.006.15.018.209.002.01.003.019.003.028 0 .022-.006.04-.019.053-.017.018-.04.027-.068.027z" fill="#c4da59" transform="matrix(68.87088 0 0 68.87088 12287.80351352 2828.10328332)"/><path d="m.22.035c-.037 0-.067-.005-.091-.015-.023-.01-.041-.024-.053-.042-.012-.017-.02-.038-.022-.062-.013-.142-.019-.284-.019-.426 0-.043 0-.086.001-.129.001-.029.007-.051.019-.064.012-.014.032-.023.06-.027.027-.004.066-.006.115-.006.038 0 .078.003.119.009.041.005.081.015.119.027.038.013.072.03.102.05.031.021.055.046.073.076.018.029.027.064.027.103 0 .062-.027.113-.081.153-.045.033-.101.056-.167.07.029.044.071.077.125.1.039.016.058.045.058.085 0 .012-.003.023-.008.035-.016.039-.044.058-.084.058-.012 0-.024-.003-.036-.008-.069-.028-.126-.067-.171-.118.002.021.003.036.003.044 0 .028-.008.049-.023.063-.018.016-.04.024-.066.024zm.07-.449c.064-.006.113-.015.144-.027.032-.013.047-.026.047-.04 0-.013-.016-.026-.048-.038-.033-.012-.08-.021-.143-.027l-.001.052c0 .027 0 .053.001.08z" fill="#c4da59" transform="matrix(68.87088 0 0 68.87088 12329.97544904 2828.10328332)"/><path d="m.613.042c-.029 0-.052-.003-.07-.009s-.033-.013-.044-.023c-.012-.01-.021-.02-.028-.031-.041.042-.096.063-.164.063-.109 0-.185-.058-.229-.175-.022-.056-.035-.112-.041-.169-.005-.057-.008-.108-.008-.155 0-.072.005-.14.014-.204.007-.051.035-.076.083-.076.061.001.105.014.132.04.025.026.038.054.038.084 0 .005-.001.011-.002.016-.002.014-.004.037-.007.071-.003.033-.005.066-.006.098-.002.032-.002.059-.002.081 0 .125.016.187.049.187.036 0 .062-.06.079-.179.011-.081.019-.18.023-.297.002-.039.018-.065.05-.078.014-.005.03-.008.046-.008.036 0 .066.006.089.017.024.012.041.027.052.046.011.018.017.038.017.061-.002.098-.002.173-.002.223v.091c.001.075.007.15.017.224.001.007.001.014.001.02 0 .034-.013.058-.039.071-.014.007-.03.011-.048.011z" fill="#c4da59" transform="matrix(68.87088 0 0 68.87088 12377.2897436 2828.10328332)"/><path d="m.384.055c-.069 0-.117-.019-.143-.057-.012-.018-.019-.039-.021-.063-.01-.137-.015-.258-.015-.363 0-.044 0-.087.002-.13-.037.004-.072.01-.106.019-.009.002-.017.003-.024.003-.017 0-.032-.004-.047-.013-.021-.013-.035-.032-.042-.057-.002-.008-.003-.016-.003-.023 0-.017.005-.032.013-.047.013-.021.032-.035.057-.041.088-.022.157-.034.209-.034.052-.001.085-.001.097-.001.079 0 .157.003.234.011.026.002.046.013.062.031.015.018.023.038.023.061 0 .029-.011.052-.032.069-.018.016-.039.023-.063.023-.028-.002-.069-.005-.123-.007-.002.049-.003.099-.003.149 0 .108.006.233.016.374v.011c0 .037-.015.062-.043.075-.015.007-.03.01-.048.01z" fill="#c4da59" transform="matrix(68.87088 0 0 68.87088 12427.66305308 2828.10328332)"/><path d="m.302-.28c.044-.002.088-.003.132-.003h.05c-.002-.054-.007-.098-.014-.132-.006-.034-.015-.059-.025-.075s-.021-.024-.033-.024c-.019 0-.039.021-.058.062-.02.042-.038.099-.052.172zm-.125.341c-.033 0-.062-.004-.087-.011-.024-.007-.043-.02-.055-.037-.011-.018-.017-.04-.017-.068 0-.022.003-.07.011-.145.026-.269.1-.44.222-.512.038-.022.083-.033.135-.033.081 0 .144.032.19.097.063.088.094.231.094.427 0 .047-.002.096-.005.146-.002.027-.012.048-.03.064-.018.015-.039.023-.063.023-.028 0-.051-.01-.068-.03-.016-.018-.024-.039-.024-.063 0-.006.001-.012.001-.016l-.051-.001c-.051 0-.102.002-.153.005-.003.043-.004.066-.005.068-.002.031-.012.053-.029.066-.018.013-.04.02-.066.02z" fill="#c4da59" transform="matrix(68.87088 0 0 68.87088 12467.98695332 2828.10328332)"/><path d="m.341.081c-.011 0-.022-.001-.033-.002-.062-.008-.118-.029-.168-.064-.05-.036-.091-.08-.124-.133-.01-.016-.015-.032-.015-.049 0-.033.014-.058.043-.077.016-.01.032-.015.049-.015.033 0 .059.014.078.043.014.021.031.038.051.052s.041.02.064.02c.021 0 .038-.004.051-.012.013-.009.019-.021.019-.038 0-.018-.017-.038-.051-.061-.016-.011-.033-.022-.053-.033-.06-.036-.106-.07-.137-.1-.047-.045-.07-.096-.07-.152 0-.068.028-.124.084-.169.026-.02.054-.036.086-.047.036-.013.071-.019.105-.019.071 0 .132.018.182.054.053.038.095.089.128.153.008.015.012.029.012.044 0 .009-.002.018-.005.027-.007.023-.022.041-.045.054-.015.007-.029.011-.044.011-.008 0-.017-.001-.027-.004-.023-.008-.041-.023-.053-.046-.023-.045-.055-.067-.098-.067-.024 0-.044.006-.059.016-.01.007-.014.016-.014.027 0 .018.017.039.052.062.015.01.033.021.052.032.06.034.105.067.137.099.047.045.07.096.07.152 0 .041-.008.077-.025.108s-.04.058-.068.079c-.029.021-.058.035-.088.043-.031.008-.059.012-.086.012z" fill="#c4da59" transform="matrix(68.87088 0 0 68.87088 12517.11484772 2828.10328332)"/><path d="m.196.054c-.029 0-.057-.01-.083-.03-.039-.03-.059-.064-.059-.102 0-.017.005-.033.016-.049.049-.074.095-.148.138-.221-.075-.077-.141-.155-.198-.235-.011-.017-.017-.034-.017-.053 0-.031.013-.057.039-.075.017-.013.035-.019.053-.019.031 0 .056.013.075.04.041.056.089.114.144.175.031-.056.061-.113.092-.171.016-.031.032-.047.048-.048.016-.002.025-.002.029-.002.024 0 .048.007.072.022.027.017.045.036.055.057.01.02.015.037.015.051s-.004.027-.011.041c-.1.2-.213.393-.339.578-.018.028-.041.041-.069.041z" fill="#c4da59" transform="matrix(68.87088 0 0 68.87088 12579.1962068 2828.10328332)"/><path d="m.359.019c-.084 0-.154-.054-.21-.162-.056-.107-.105-.277-.148-.51-.001-.009-.002-.018-.002-.026 0-.024.007-.043.021-.055.018-.017.042-.025.071-.025.058 0 .098.01.121.03.022.019.037.046.042.079.009.048.025.118.049.21.03.111.052.167.066.167.009 0 .02-.017.032-.052s.024-.076.035-.123c.012-.047.021-.092.028-.133.007-.042.012-.071.013-.087.001-.026.011-.048.029-.065.017-.016.037-.023.062-.023.028 0 .051.009.069.027.016.017.024.038.024.062v.004c-.006.144-.023.267-.052.368s-.066.179-.11.233-.091.081-.14.081z" fill="#c4da59" transform="matrix(68.87088 0 0 68.87088 12637.67332316 2828.10328332)"/><path d="m.329.06c-.04 0-.075-.001-.107-.003-.031-.002-.058-.007-.081-.015s-.042-.02-.057-.037c-.014-.017-.025-.04-.031-.07-.015-.076-.023-.153-.023-.231 0-.024.001-.048.002-.072.006-.102.019-.203.039-.302.006-.029.017-.05.034-.063.017-.012.039-.02.068-.022.028-.002.059-.003.093-.003.083 0 .141.001.173.003.029.002.059.005.089.009.026.003.046.013.06.031.015.018.022.037.022.058 0 .032-.011.056-.031.073-.018.014-.037.021-.059.021h-.006c-.066-.006-.133-.01-.2-.01-.006.038-.012.076-.017.116l.073.004c.026.002.047.011.063.03.016.018.024.039.024.064 0 .026-.01.049-.03.067-.018.015-.041.023-.067.023-.025-.001-.051-.002-.075-.003 0 .055.002.104.007.146.018.002.036.002.053.002.048 0 .106-.007.175-.022.006-.001.012-.002.019-.002.018 0 .035.005.05.015.021.014.034.033.04.059.002.006.002.013.002.019 0 .018-.005.035-.015.051-.013.02-.033.033-.058.039-.074.017-.15.025-.229.025z" fill="#c4da59" transform="matrix(68.87088 0 0 68.87088 12684.683438 2828.10328332)"/><path d="m.22.035c-.037 0-.067-.005-.091-.015-.023-.01-.041-.024-.053-.042-.012-.017-.02-.038-.022-.062-.013-.142-.019-.284-.019-.426 0-.043 0-.086.001-.129.001-.029.007-.051.019-.064.012-.014.032-.023.06-.027.027-.004.066-.006.115-.006.038 0 .078.003.119.009.041.005.081.015.119.027.038.013.072.03.102.05.031.021.055.046.073.076.018.029.027.064.027.103 0 .062-.027.113-.081.153-.045.033-.101.056-.167.07.029.044.071.077.125.1.039.016.058.045.058.085 0 .012-.003.023-.008.035-.016.039-.044.058-.084.058-.012 0-.024-.003-.036-.008-.069-.028-.126-.067-.171-.118.002.021.003.036.003.044 0 .028-.008.049-.023.063-.018.016-.04.024-.066.024zm.07-.449c.064-.006.113-.015.144-.027.032-.013.047-.026.047-.04 0-.013-.016-.026-.048-.038-.033-.012-.08-.021-.143-.027l-.001.052c0 .027 0 .053.001.08z" fill="#c4da59" transform="matrix(68.87088 0 0 68.87088 12727.49242916 2828.10328332)"/><path d="m.358-.137c.07 0 .122-.025.156-.077.021-.031.031-.07.031-.117 0-.065-.025-.118-.076-.158-.046-.036-.102-.056-.169-.061-.009.059-.013.126-.013.201 0 .08.006.15.02.208.018.003.035.004.051.004zm-.004.183c-.091 0-.163-.015-.215-.046-.074-.045-.112-.176-.112-.395 0-.107.012-.196.035-.267.013-.041.047-.064.103-.069.024-.003.046-.004.067-.004.066 0 .129.008.189.023.06.016.113.04.159.073.047.032.083.074.11.125s.04.112.04.183c0 .073-.016.138-.048.194-.032.057-.076.102-.133.134-.056.033-.121.049-.195.049z" fill="#c4da59" transform="matrix(68.87088 0 0 68.87088 12774.81246296 2828.10328332)"/><path d="m.613.042c-.029 0-.052-.003-.07-.009s-.033-.013-.044-.023c-.012-.01-.021-.02-.028-.031-.041.042-.096.063-.164.063-.109 0-.185-.058-.229-.175-.022-.056-.035-.112-.041-.169-.005-.057-.008-.108-.008-.155 0-.072.005-.14.014-.204.007-.051.035-.076.083-.076.061.001.105.014.132.04.025.026.038.054.038.084 0 .005-.001.011-.002.016-.002.014-.004.037-.007.071-.003.033-.005.066-.006.098-.002.032-.002.059-.002.081 0 .125.016.187.049.187.036 0 .062-.06.079-.179.011-.081.019-.18.023-.297.002-.039.018-.065.05-.078.014-.005.03-.008.046-.008.036 0 .066.006.089.017.024.012.041.027.052.046.011.018.017.038.017.061-.002.098-.002.173-.002.223v.091c.001.075.007.15.017.224.001.007.001.014.001.02 0 .034-.013.058-.039.071-.014.007-.03.011-.048.011z" fill="#c4da59" transform="matrix(68.87088 0 0 68.87088 12827.33798744 2828.10328332)"/><path d="m.22.035c-.037 0-.067-.005-.091-.015-.023-.01-.041-.024-.053-.042-.012-.017-.02-.038-.022-.062-.013-.142-.019-.284-.019-.426 0-.043 0-.086.001-.129.001-.029.007-.051.019-.064.012-.014.032-.023.06-.027.027-.004.066-.006.115-.006.038 0 .078.003.119.009.041.005.081.015.119.027.038.013.072.03.102.05.031.021.055.046.073.076.018.029.027.064.027.103 0 .062-.027.113-.081.153-.045.033-.101.056-.167.07.029.044.071.077.125.1.039.016.058.045.058.085 0 .012-.003.023-.008.035-.016.039-.044.058-.084.058-.012 0-.024-.003-.036-.008-.069-.028-.126-.067-.171-.118.002.021.003.036.003.044 0 .028-.008.049-.023.063-.018.016-.04.024-.066.024zm.07-.449c.064-.006.113-.015.144-.027.032-.013.047-.026.047-.04 0-.013-.016-.026-.048-.038-.033-.012-.08-.021-.143-.027l-.001.052c0 .027 0 .053.001.08z" fill="#c4da59" transform="matrix(68.87088 0 0 68.87088 12879.42732968 2828.10328332)"/><path d="m.302-.28c.044-.002.088-.003.132-.003h.05c-.002-.054-.007-.098-.014-.132-.006-.034-.015-.059-.025-.075s-.021-.024-.033-.024c-.019 0-.039.021-.058.062-.02.042-.038.099-.052.172zm-.125.341c-.033 0-.062-.004-.087-.011-.024-.007-.043-.02-.055-.037-.011-.018-.017-.04-.017-.068 0-.022.003-.07.011-.145.026-.269.1-.44.222-.512.038-.022.083-.033.135-.033.081 0 .144.032.19.097.063.088.094.231.094.427 0 .047-.002.096-.005.146-.002.027-.012.048-.03.064-.018.015-.039.023-.063.023-.028 0-.051-.01-.068-.03-.016-.018-.024-.039-.024-.063 0-.006.001-.012.001-.016l-.051-.001c-.051 0-.102.002-.153.005-.003.043-.004.066-.005.068-.002.031-.012.053-.029.066-.018.013-.04.02-.066.02z" fill="#c4da59" transform="matrix(68.87088 0 0 68.87088 12924.8132396 2828.10328332)"/><path d="m.341.081c-.011 0-.022-.001-.033-.002-.062-.008-.118-.029-.168-.064-.05-.036-.091-.08-.124-.133-.01-.016-.015-.032-.015-.049 0-.033.014-.058.043-.077.016-.01.032-.015.049-.015.033 0 .059.014.078.043.014.021.031.038.051.052s.041.02.064.02c.021 0 .038-.004.051-.012.013-.009.019-.021.019-.038 0-.018-.017-.038-.051-.061-.016-.011-.033-.022-.053-.033-.06-.036-.106-.07-.137-.1-.047-.045-.07-.096-.07-.152 0-.068.028-.124.084-.169.026-.02.054-.036.086-.047.036-.013.071-.019.105-.019.071 0 .132.018.182.054.053.038.095.089.128.153.008.015.012.029.012.044 0 .009-.002.018-.005.027-.007.023-.022.041-.045.054-.015.007-.029.011-.044.011-.008 0-.017-.001-.027-.004-.023-.008-.041-.023-.053-.046-.023-.045-.055-.067-.098-.067-.024 0-.044.006-.059.016-.01.007-.014.016-.014.027 0 .018.017.039.052.062.015.01.033.021.052.032.06.034.105.067.137.099.047.045.07.096.07.152 0 .041-.008.077-.025.108s-.04.058-.068.079c-.029.021-.058.035-.088.043-.031.008-.059.012-.086.012z" fill="#c4da59" transform="matrix(68.87088 0 0 68.87088 12973.941134 2828.10328332)"/><g fill="#febe23" opacity=".8"><path d="m.267.067h-.009c-.116 0-.184-.038-.202-.113-.016-.065-.024-.134-.024-.209 0-.127.014-.272.042-.434.008-.051.041-.076.099-.076.036 0 .066.007.09.02.024.014.041.03.05.049.01.019.014.037.014.054 0 .007 0 .013-.001.02-.013.073-.022.144-.029.214-.007.069-.01.127-.01.173 0 .039.001.077.005.114.068-.002.133-.014.197-.036.011-.004.022-.006.033-.006.013 0 .026.003.038.009.023.01.038.028.047.052.005.011.007.022.007.033 0 .013-.003.025-.009.038-.01.022-.028.038-.053.048-.024.009-.063.02-.115.032-.053.011-.11.017-.17.018z" transform="matrix(68.87088 0 0 68.87088 12036.72351352 3347.25328332)"/><path d="m.329.06c-.04 0-.075-.001-.107-.003-.031-.002-.058-.007-.081-.015s-.042-.02-.057-.037c-.014-.017-.025-.04-.031-.07-.015-.076-.023-.153-.023-.231 0-.024.001-.048.002-.072.006-.102.019-.203.039-.302.006-.029.017-.05.034-.063.017-.012.039-.02.068-.022.028-.002.059-.003.093-.003.083 0 .141.001.173.003.029.002.059.005.089.009.026.003.046.013.06.031.015.018.022.037.022.058 0 .032-.011.056-.031.073-.018.014-.037.021-.059.021h-.006c-.066-.006-.133-.01-.2-.01-.006.038-.012.076-.017.116l.073.004c.026.002.047.011.063.03.016.018.024.039.024.064 0 .026-.01.049-.03.067-.018.015-.041.023-.067.023-.025-.001-.051-.002-.075-.003 0 .055.002.104.007.146.018.002.036.002.053.002.048 0 .106-.007.175-.022.006-.001.012-.002.019-.002.018 0 .035.005.05.015.021.014.034.033.04.059.002.006.002.013.002.019 0 .018-.005.035-.015.051-.013.02-.033.033-.058.039-.074.017-.15.025-.229.025z" transform="matrix(68.87088 0 0 68.87088 12078.05178076 3347.25328332)"/><path d="m.39.041c-.078 0-.147-.018-.205-.053s-.103-.083-.135-.144-.049-.129-.049-.206c0-.055.01-.106.03-.152s.046-.085.08-.119c.034-.033.072-.059.116-.077.043-.018.088-.027.136-.027.05 0 .097.008.141.025s.086.044.126.082c.02.018.03.034.03.047.001.013.001.02.001.022 0 .022-.008.043-.024.061-.018.02-.034.03-.047.03-.013.001-.02.001-.022.001-.023 0-.043-.008-.062-.024-.03-.027-.06-.04-.09-.04s-.057.009-.081.029c-.024.019-.044.045-.059.076-.015.032-.022.065-.022.1 0 .033.006.064.017.092.012.027.028.049.049.066.02.017.043.025.07.025.038 0 .064-.015.078-.045-.004.001-.008.001-.012.001-.019 0-.037-.005-.052-.017-.019-.013-.032-.031-.037-.055-.002-.008-.003-.015-.003-.022 0-.069.063-.103.189-.103.052 0 .1.011.143.033.035.018.052.045.052.082 0 .014-.004.027-.011.041-.017.032-.044.049-.079.051-.01.043-.027.081-.05.113-.022.033-.052.059-.088.078s-.08.029-.13.029z" transform="matrix(68.87088 0 0 68.87088 12118.54211896 3347.25328332)"/><path d="m.613.042c-.029 0-.052-.003-.07-.009s-.033-.013-.044-.023c-.012-.01-.021-.02-.028-.031-.041.042-.096.063-.164.063-.109 0-.185-.058-.229-.175-.022-.056-.035-.112-.041-.169-.005-.057-.008-.108-.008-.155 0-.072.005-.14.014-.204.007-.051.035-.076.083-.076.061.001.105.014.132.04.025.026.038.054.038.084 0 .005-.001.011-.002.016-.002.014-.004.037-.007.071-.003.033-.005.066-.006.098-.002.032-.002.059-.002.081 0 .125.016.187.049.187.036 0 .062-.06.079-.179.011-.081.019-.18.023-.297.002-.039.018-.065.05-.078.014-.005.03-.008.046-.008.036 0 .066.006.089.017.024.012.041.027.052.046.011.018.017.038.017.061-.002.098-.002.173-.002.223v.091c.001.075.007.15.017.224.001.007.001.014.001.02 0 .034-.013.058-.039.071-.014.007-.03.011-.048.011z" transform="matrix(68.87088 0 0 68.87088 12170.8323346 3347.25328332)"/><path d="m.196.06c-.036 0-.066-.006-.091-.017-.024-.012-.042-.027-.053-.045-.012-.019-.018-.041-.018-.064v-.023c0-.21.019-.397.058-.559.011-.048.038-.072.079-.072.061 0 .117.025.166.075.034.034.076.092.127.173.029-.067.054-.135.075-.203.005-.019.016-.035.032-.047.015-.013.033-.019.053-.019.07 0 .117.019.141.057.011.017.018.034.023.052.042.167.069.36.082.577l.001.008c0 .028-.008.05-.022.064-.017.016-.037.024-.061.024-.111 0-.168-.041-.173-.122-.004-.078-.011-.155-.021-.232-.013.026-.026.051-.04.075-.018.031-.045.047-.079.047-.033 0-.059-.014-.078-.042-.018-.027-.036-.054-.053-.082-.012-.02-.025-.04-.038-.06-.012.106-.018.221-.018.344 0 .041-.015.068-.046.081-.014.006-.029.01-.046.01z" transform="matrix(68.87088 0 0 68.87088 12221.21138332 3347.25328332)"/><path d="m.192.052c-.035 0-.064-.005-.087-.015-.022-.01-.039-.024-.049-.042-.011-.018-.017-.038-.017-.061-.001-.038-.002-.076-.002-.114 0-.159.009-.318.028-.476.003-.029.013-.049.029-.062.017-.013.036-.019.057-.019.036 0 .066.006.092.019.026.012.045.028.057.047s.018.039.018.06v.007c-.017.152-.026.303-.026.453 0 .035 0 .072.001.109 0 .022-.004.041-.013.054-.009.014-.021.024-.037.03-.015.007-.032.01-.051.01z" transform="matrix(68.87088 0 0 68.87088 12283.28700316 3347.25328332)"/><path d="m.602.049c-.059 0-.101-.013-.128-.04-.025-.024-.072-.106-.141-.243-.013-.025-.026-.05-.039-.075-.002.058-.003.116-.003.174v.093c0 .022-.004.04-.013.054-.017.024-.045.037-.086.037-.034 0-.063-.006-.086-.017s-.04-.026-.052-.045-.018-.04-.018-.064 0-.048 0-.072c0-.166.008-.332.024-.497.002-.022.007-.038.016-.051.009-.012.021-.02.034-.026.014-.005.028-.007.043-.007.028 0 .052.003.07.01s.033.016.045.026c.012.011.021.021.029.031.053.075.101.152.143.232 0-.07-.004-.14-.01-.211v-.016c0-.035.013-.058.04-.071.014-.007.029-.011.046-.011.079 0 .129.02.151.06.019.034.028.133.028.297 0 .084-.003.199-.008.342-.002.033-.01.056-.026.07-.016.013-.036.02-.059.02z" transform="matrix(68.87088 0 0 68.87088 12307.770601 3347.25328332)"/><path d="m.337.054c-.041 0-.081-.009-.12-.027s-.074-.044-.106-.079c-.031-.034-.056-.077-.075-.127-.018-.05-.028-.108-.028-.173 0-.054.008-.104.023-.152.014-.048.036-.09.064-.126s.062-.065.103-.086.086-.031.137-.031c.054 0 .1.011.141.033.04.023.074.053.101.09.027.038.047.08.061.127.013.047.02.095.02.145 0 .07-.009.131-.027.182s-.042.093-.073.127c-.03.033-.065.057-.103.073s-.078.024-.118.024zm.035-.195c.017 0 .033-.008.049-.024s.028-.04.038-.073c.01-.032.015-.071.015-.118 0-.029-.003-.056-.01-.081-.007-.026-.016-.047-.03-.063-.013-.015-.029-.023-.049-.023-.025 0-.047.009-.064.027-.018.019-.031.043-.041.072-.009.029-.014.059-.014.09 0 .044.005.08.015.109.011.028.024.049.04.063.017.014.033.021.051.021z" transform="matrix(68.87088 0 0 68.87088 12359.32045468 3347.25328332)"/><path d="m.341.081c-.011 0-.022-.001-.033-.002-.062-.008-.118-.029-.168-.064-.05-.036-.091-.08-.124-.133-.01-.016-.015-.032-.015-.049 0-.033.014-.058.043-.077.016-.01.032-.015.049-.015.033 0 .059.014.078.043.014.021.031.038.051.052s.041.02.064.02c.021 0 .038-.004.051-.012.013-.009.019-.021.019-.038 0-.018-.017-.038-.051-.061-.016-.011-.033-.022-.053-.033-.06-.036-.106-.07-.137-.1-.047-.045-.07-.096-.07-.152 0-.068.028-.124.084-.169.026-.02.054-.036.086-.047.036-.013.071-.019.105-.019.071 0 .132.018.182.054.053.038.095.089.128.153.008.015.012.029.012.044 0 .009-.002.018-.005.027-.007.023-.022.041-.045.054-.015.007-.029.011-.044.011-.008 0-.017-.001-.027-.004-.023-.008-.041-.023-.053-.046-.023-.045-.055-.067-.098-.067-.024 0-.044.006-.059.016-.01.007-.014.016-.014.027 0 .018.017.039.052.062.015.01.033.021.052.032.06.034.105.067.137.099.047.045.07.096.07.152 0 .041-.008.077-.025.108s-.04.058-.068.079c-.029.021-.058.035-.088.043-.031.008-.059.012-.086.012z" transform="matrix(68.87088 0 0 68.87088 12405.7968202 3347.25328332)"/><path d="m.302-.28c.044-.002.088-.003.132-.003h.05c-.002-.054-.007-.098-.014-.132-.006-.034-.015-.059-.025-.075s-.021-.024-.033-.024c-.019 0-.039.021-.058.062-.02.042-.038.099-.052.172zm-.125.341c-.033 0-.062-.004-.087-.011-.024-.007-.043-.02-.055-.037-.011-.018-.017-.04-.017-.068 0-.022.003-.07.011-.145.026-.269.1-.44.222-.512.038-.022.083-.033.135-.033.081 0 .144.032.19.097.063.088.094.231.094.427 0 .047-.002.096-.005.146-.002.027-.012.048-.03.064-.018.015-.039.023-.063.023-.028 0-.051-.01-.068-.03-.016-.018-.024-.039-.024-.063 0-.006.001-.012.001-.016l-.051-.001c-.051 0-.102.002-.153.005-.003.043-.004.066-.005.068-.002.031-.012.053-.029.066-.018.013-.04.02-.066.02z" transform="matrix(68.87088 0 0 68.87088 12450.08653528 3347.25328332)"/><path d="m.341.081c-.011 0-.022-.001-.033-.002-.062-.008-.118-.029-.168-.064-.05-.036-.091-.08-.124-.133-.01-.016-.015-.032-.015-.049 0-.033.014-.058.043-.077.016-.01.032-.015.049-.015.033 0 .059.014.078.043.014.021.031.038.051.052s.041.02.064.02c.021 0 .038-.004.051-.012.013-.009.019-.021.019-.038 0-.018-.017-.038-.051-.061-.016-.011-.033-.022-.053-.033-.06-.036-.106-.07-.137-.1-.047-.045-.07-.096-.07-.152 0-.068.028-.124.084-.169.026-.02.054-.036.086-.047.036-.013.071-.019.105-.019.071 0 .132.018.182.054.053.038.095.089.128.153.008.015.012.029.012.044 0 .009-.002.018-.005.027-.007.023-.022.041-.045.054-.015.007-.029.011-.044.011-.008 0-.017-.001-.027-.004-.023-.008-.041-.023-.053-.046-.023-.045-.055-.067-.098-.067-.024 0-.044.006-.059.016-.01.007-.014.016-.014.027 0 .018.017.039.052.062.015.01.033.021.052.032.06.034.105.067.137.099.047.045.07.096.07.152 0 .041-.008.077-.025.108s-.04.058-.068.079c-.029.021-.058.035-.088.043-.031.008-.059.012-.086.012z" transform="matrix(68.87088 0 0 68.87088 12499.21442968 3347.25328332)"/><path d="m.196.054c-.029 0-.057-.01-.083-.03-.039-.03-.059-.064-.059-.102 0-.017.005-.033.016-.049.049-.074.095-.148.138-.221-.075-.077-.141-.155-.198-.235-.011-.017-.017-.034-.017-.053 0-.031.013-.057.039-.075.017-.013.035-.019.053-.019.031 0 .056.013.075.04.041.056.089.114.144.175.031-.056.061-.113.092-.171.016-.031.032-.047.048-.048.016-.002.025-.002.029-.002.024 0 .048.007.072.022.027.017.045.036.055.057.01.02.015.037.015.051s-.004.027-.011.041c-.1.2-.213.393-.339.578-.018.028-.041.041-.069.041z" transform="matrix(68.87088 0 0 68.87088 12036.72351352 3416.12416332)"/><path d="m.291-.41c.048-.004.087-.013.115-.027.029-.014.044-.028.044-.044 0-.03-.054-.052-.16-.066l-.001.046c0 .03.001.061.002.091zm-.071.445c-.038 0-.069-.005-.092-.015-.024-.011-.041-.025-.052-.043-.012-.018-.019-.039-.021-.063-.013-.14-.019-.279-.019-.419 0-.044.001-.089.003-.134.001-.041.021-.069.059-.083.025-.009.062-.014.109-.014.037 0 .076.003.116.008s.079.013.116.025.07.028.099.048c.03.02.053.045.071.074.017.03.026.065.026.105 0 .08-.036.142-.109.186-.063.038-.139.06-.228.066.003.054.008.109.012.167v.01c0 .016-.003.029-.008.04-.015.028-.042.042-.082.042z" transform="matrix(68.87088 0 0 68.87088 12095.20636912 3416.12416332)"/><path d="m.22.035c-.037 0-.067-.005-.091-.015-.023-.01-.041-.024-.053-.042-.012-.017-.02-.038-.022-.062-.013-.142-.019-.284-.019-.426 0-.043 0-.086.001-.129.001-.029.007-.051.019-.064.012-.014.032-.023.06-.027.027-.004.066-.006.115-.006.038 0 .078.003.119.009.041.005.081.015.119.027.038.013.072.03.102.05.031.021.055.046.073.076.018.029.027.064.027.103 0 .062-.027.113-.081.153-.045.033-.101.056-.167.07.029.044.071.077.125.1.039.016.058.045.058.085 0 .012-.003.023-.008.035-.016.039-.044.058-.084.058-.012 0-.024-.003-.036-.008-.069-.028-.126-.067-.171-.118.002.021.003.036.003.044 0 .028-.008.049-.023.063-.018.016-.04.024-.066.024zm.07-.449c.064-.006.113-.015.144-.027.032-.013.047-.026.047-.04 0-.013-.016-.026-.048-.038-.033-.012-.08-.021-.143-.027l-.001.052c0 .027 0 .053.001.08z" transform="matrix(68.87088 0 0 68.87088 12140.02983352 3416.12416332)"/><path d="m.337.054c-.041 0-.081-.009-.12-.027s-.074-.044-.106-.079c-.031-.034-.056-.077-.075-.127-.018-.05-.028-.108-.028-.173 0-.054.008-.104.023-.152.014-.048.036-.09.064-.126s.062-.065.103-.086.086-.031.137-.031c.054 0 .1.011.141.033.04.023.074.053.101.09.027.038.047.08.061.127.013.047.02.095.02.145 0 .07-.009.131-.027.182s-.042.093-.073.127c-.03.033-.065.057-.103.073s-.078.024-.118.024zm.035-.195c.017 0 .033-.008.049-.024s.028-.04.038-.073c.01-.032.015-.071.015-.118 0-.029-.003-.056-.01-.081-.007-.026-.016-.047-.03-.063-.013-.015-.029-.023-.049-.023-.025 0-.047.009-.064.027-.018.019-.031.043-.041.072-.009.029-.014.059-.014.09 0 .044.005.08.015.109.011.028.024.049.04.063.017.014.033.021.051.021z" transform="matrix(68.87088 0 0 68.87088 12188.15336092 3416.12416332)"/><path d="m.384.055c-.069 0-.117-.019-.143-.057-.012-.018-.019-.039-.021-.063-.01-.137-.015-.258-.015-.363 0-.044 0-.087.002-.13-.037.004-.072.01-.106.019-.009.002-.017.003-.024.003-.017 0-.032-.004-.047-.013-.021-.013-.035-.032-.042-.057-.002-.008-.003-.016-.003-.023 0-.017.005-.032.013-.047.013-.021.032-.035.057-.041.088-.022.157-.034.209-.034.052-.001.085-.001.097-.001.079 0 .157.003.234.011.026.002.046.013.062.031.015.018.023.038.023.061 0 .029-.011.052-.032.069-.018.016-.039.023-.063.023-.028-.002-.069-.005-.123-.007-.002.049-.003.099-.003.149 0 .108.006.233.016.374v.011c0 .037-.015.062-.043.075-.015.007-.03.01-.048.01z" transform="matrix(68.87088 0 0 68.87088 12232.54064308 3416.12416332)"/><path d="m.329.06c-.04 0-.075-.001-.107-.003-.031-.002-.058-.007-.081-.015s-.042-.02-.057-.037c-.014-.017-.025-.04-.031-.07-.015-.076-.023-.153-.023-.231 0-.024.001-.048.002-.072.006-.102.019-.203.039-.302.006-.029.017-.05.034-.063.017-.012.039-.02.068-.022.028-.002.059-.003.093-.003.083 0 .141.001.173.003.029.002.059.005.089.009.026.003.046.013.06.031.015.018.022.037.022.058 0 .032-.011.056-.031.073-.018.014-.037.021-.059.021h-.006c-.066-.006-.133-.01-.2-.01-.006.038-.012.076-.017.116l.073.004c.026.002.047.011.063.03.016.018.024.039.024.064 0 .026-.01.049-.03.067-.018.015-.041.023-.067.023-.025-.001-.051-.002-.075-.003 0 .055.002.104.007.146.018.002.036.002.053.002.048 0 .106-.007.175-.022.006-.001.012-.002.019-.002.018 0 .035.005.05.015.021.014.034.033.04.059.002.006.002.013.002.019 0 .018-.005.035-.015.051-.013.02-.033.033-.058.039-.074.017-.15.025-.229.025z" transform="matrix(68.87088 0 0 68.87088 12277.77159352 3416.12416332)"/><path d="m.192.052c-.035 0-.064-.005-.087-.015-.022-.01-.039-.024-.049-.042-.011-.018-.017-.038-.017-.061-.001-.038-.002-.076-.002-.114 0-.159.009-.318.028-.476.003-.029.013-.049.029-.062.017-.013.036-.019.057-.019.036 0 .066.006.092.019.026.012.045.028.057.047s.018.039.018.06v.007c-.017.152-.026.303-.026.453 0 .035 0 .072.001.109 0 .022-.004.041-.013.054-.009.014-.021.024-.037.03-.015.007-.032.01-.051.01zm-.067-.838c-.01 0-.015-.003-.015-.007-.001-.005-.001-.008-.001-.009 0-.017.008-.039.025-.068.007-.012.015-.023.022-.032l.037-.047c.014-.017.027-.026.038-.027.011-.002.019-.003.023-.003.014 0 .026.004.037.01.014.008.022.017.023.025.002.009.002.014.002.016 0 .013-.007.027-.023.042-.035.032-.069.058-.102.079-.022.014-.044.021-.066.021z" transform="matrix(68.87088 0 0 68.87088 12320.58058468 3416.12416332)"/><path d="m.602.049c-.059 0-.101-.013-.128-.04-.025-.024-.072-.106-.141-.243-.013-.025-.026-.05-.039-.075-.002.058-.003.116-.003.174v.093c0 .022-.004.04-.013.054-.017.024-.045.037-.086.037-.034 0-.063-.006-.086-.017s-.04-.026-.052-.045-.018-.04-.018-.064 0-.048 0-.072c0-.166.008-.332.024-.497.002-.022.007-.038.016-.051.009-.012.021-.02.034-.026.014-.005.028-.007.043-.007.028 0 .052.003.07.01s.033.016.045.026c.012.011.021.021.029.031.053.075.101.152.143.232 0-.07-.004-.14-.01-.211v-.016c0-.035.013-.058.04-.071.014-.007.029-.011.046-.011.079 0 .129.02.151.06.019.034.028.133.028.297 0 .084-.003.199-.008.342-.002.033-.01.056-.026.07-.016.013-.036.02-.059.02z" transform="matrix(68.87088 0 0 68.87088 12345.06418252 3416.12416332)"/><path d="m.302-.28c.044-.002.088-.003.132-.003h.05c-.002-.054-.007-.098-.014-.132-.006-.034-.015-.059-.025-.075s-.021-.024-.033-.024c-.019 0-.039.021-.058.062-.02.042-.038.099-.052.172zm-.125.341c-.033 0-.062-.004-.087-.011-.024-.007-.043-.02-.055-.037-.011-.018-.017-.04-.017-.068 0-.022.003-.07.011-.145.026-.269.1-.44.222-.512.038-.022.083-.033.135-.033.081 0 .144.032.19.097.063.088.094.231.094.427 0 .047-.002.096-.005.146-.002.027-.012.048-.03.064-.018.015-.039.023-.063.023-.028 0-.051-.01-.068-.03-.016-.018-.024-.039-.024-.063 0-.006.001-.012.001-.016l-.051-.001c-.051 0-.102.002-.153.005-.003.043-.004.066-.005.068-.002.031-.012.053-.029.066-.018.013-.04.02-.066.02z" transform="matrix(68.87088 0 0 68.87088 12396.6140362 3416.12416332)"/><path d="m.341.081c-.011 0-.022-.001-.033-.002-.062-.008-.118-.029-.168-.064-.05-.036-.091-.08-.124-.133-.01-.016-.015-.032-.015-.049 0-.033.014-.058.043-.077.016-.01.032-.015.049-.015.033 0 .059.014.078.043.014.021.031.038.051.052s.041.02.064.02c.021 0 .038-.004.051-.012.013-.009.019-.021.019-.038 0-.018-.017-.038-.051-.061-.016-.011-.033-.022-.053-.033-.06-.036-.106-.07-.137-.1-.047-.045-.07-.096-.07-.152 0-.068.028-.124.084-.169.026-.02.054-.036.086-.047.036-.013.071-.019.105-.019.071 0 .132.018.182.054.053.038.095.089.128.153.008.015.012.029.012.044 0 .009-.002.018-.005.027-.007.023-.022.041-.045.054-.015.007-.029.011-.044.011-.008 0-.017-.001-.027-.004-.023-.008-.041-.023-.053-.046-.023-.045-.055-.067-.098-.067-.024 0-.044.006-.059.016-.01.007-.014.016-.014.027 0 .018.017.039.052.062.015.01.033.021.052.032.06.034.105.067.137.099.047.045.07.096.07.152 0 .041-.008.077-.025.108s-.04.058-.068.079c-.029.021-.058.035-.088.043-.031.008-.059.012-.086.012z" transform="matrix(68.87088 0 0 68.87088 12445.74766984 3416.12416332)"/></g><g fill="#f05022" opacity=".6"><path d="m.456.057c-.058 0-.114-.009-.168-.026-.055-.017-.103-.043-.146-.077-.043-.035-.078-.078-.103-.13-.026-.052-.039-.113-.039-.182 0-.055.011-.105.031-.152.02-.046.048-.087.084-.121.036-.035.077-.062.125-.081.047-.02.097-.029.151-.029.093 0 .176.022.249.066.03.018.045.044.045.077 0 .012-.003.024-.008.036-.009.022-.022.037-.039.045-.016.008-.031.013-.046.013-.007 0-.015-.001-.022-.003-.031-.008-.063-.012-.094-.012-.043 0-.082.008-.117.024-.031.014-.056.035-.075.063s-.029.064-.029.108c0 .071.026.124.078.157.038.025.082.038.134.038.045 0 .089-.009.132-.027.012-.005.025-.008.037-.008.011 0 .023.003.034.007.023.01.04.026.05.051.005.012.008.024.008.036 0 .011-.002.023-.007.034-.009.023-.026.04-.051.05-.069.028-.141.043-.214.043z" transform="matrix(68.87088 0 0 68.87088 12753.88351352 3347.16228332)"/><path d="m.329.06c-.04 0-.075-.001-.107-.003-.031-.002-.058-.007-.081-.015s-.042-.02-.057-.037c-.014-.017-.025-.04-.031-.07-.015-.076-.023-.153-.023-.231 0-.024.001-.048.002-.072.006-.102.019-.203.039-.302.006-.029.017-.05.034-.063.017-.012.039-.02.068-.022.028-.002.059-.003.093-.003.083 0 .141.001.173.003.029.002.059.005.089.009.026.003.046.013.06.031.015.018.022.037.022.058 0 .032-.011.056-.031.073-.018.014-.037.021-.059.021h-.006c-.066-.006-.133-.01-.2-.01-.006.038-.012.076-.017.116l.073.004c.026.002.047.011.063.03.016.018.024.039.024.064 0 .026-.01.049-.03.067-.018.015-.041.023-.067.023-.025-.001-.051-.002-.075-.003 0 .055.002.104.007.146.018.002.036.002.053.002.048 0 .106-.007.175-.022.006-.001.012-.002.019-.002.018 0 .035.005.05.015.021.014.034.033.04.059.002.006.002.013.002.019 0 .018-.005.035-.015.051-.013.02-.033.033-.058.039-.074.017-.15.025-.229.025z" transform="matrix(68.87088 0 0 68.87088 12803.58533192 3347.16228332)"/><path d="m.22.035c-.037 0-.067-.005-.091-.015-.023-.01-.041-.024-.053-.042-.012-.017-.02-.038-.022-.062-.013-.142-.019-.284-.019-.426 0-.043 0-.086.001-.129.001-.029.007-.051.019-.064.012-.014.032-.023.06-.027.027-.004.066-.006.115-.006.038 0 .078.003.119.009.041.005.081.015.119.027.038.013.072.03.102.05.031.021.055.046.073.076.018.029.027.064.027.103 0 .062-.027.113-.081.153-.045.033-.101.056-.167.07.029.044.071.077.125.1.039.016.058.045.058.085 0 .012-.003.023-.008.035-.016.039-.044.058-.084.058-.012 0-.024-.003-.036-.008-.069-.028-.126-.067-.171-.118.002.021.003.036.003.044 0 .028-.008.049-.023.063-.018.016-.04.024-.066.024zm.07-.449c.064-.006.113-.015.144-.027.032-.013.047-.026.047-.04 0-.013-.016-.026-.048-.038-.033-.012-.08-.021-.143-.027l-.001.052c0 .027 0 .053.001.08z" transform="matrix(68.87088 0 0 68.87088 12846.39432308 3347.16228332)"/><path d="m.329.06c-.04 0-.075-.001-.107-.003-.031-.002-.058-.007-.081-.015s-.042-.02-.057-.037c-.014-.017-.025-.04-.031-.07-.015-.076-.023-.153-.023-.231 0-.024.001-.048.002-.072.006-.102.019-.203.039-.302.006-.029.017-.05.034-.063.017-.012.039-.02.068-.022.028-.002.059-.003.093-.003.083 0 .141.001.173.003.029.002.059.005.089.009.026.003.046.013.06.031.015.018.022.037.022.058 0 .032-.011.056-.031.073-.018.014-.037.021-.059.021h-.006c-.066-.006-.133-.01-.2-.01-.006.038-.012.076-.017.116l.073.004c.026.002.047.011.063.03.016.018.024.039.024.064 0 .026-.01.049-.03.067-.018.015-.041.023-.067.023-.025-.001-.051-.002-.075-.003 0 .055.002.104.007.146.018.002.036.002.053.002.048 0 .106-.007.175-.022.006-.001.012-.002.019-.002.018 0 .035.005.05.015.021.014.034.033.04.059.002.006.002.013.002.019 0 .018-.005.035-.015.051-.013.02-.033.033-.058.039-.074.017-.15.025-.229.025z" transform="matrix(68.87088 0 0 68.87088 12893.70861764 3347.16228332)"/><path d="m.302-.28c.044-.002.088-.003.132-.003h.05c-.002-.054-.007-.098-.014-.132-.006-.034-.015-.059-.025-.075s-.021-.024-.033-.024c-.019 0-.039.021-.058.062-.02.042-.038.099-.052.172zm-.125.341c-.033 0-.062-.004-.087-.011-.024-.007-.043-.02-.055-.037-.011-.018-.017-.04-.017-.068 0-.022.003-.07.011-.145.026-.269.1-.44.222-.512.038-.022.083-.033.135-.033.081 0 .144.032.19.097.063.088.094.231.094.427 0 .047-.002.096-.005.146-.002.027-.012.048-.03.064-.018.015-.039.023-.063.023-.028 0-.051-.01-.068-.03-.016-.018-.024-.039-.024-.063 0-.006.001-.012.001-.016l-.051-.001c-.051 0-.102.002-.153.005-.003.043-.004.066-.005.068-.002.031-.012.053-.029.066-.018.013-.04.02-.066.02z" transform="matrix(68.87088 0 0 68.87088 12938.842001 3347.16228332)"/><path d="m.267.067h-.009c-.116 0-.184-.038-.202-.113-.016-.065-.024-.134-.024-.209 0-.127.014-.272.042-.434.008-.051.041-.076.099-.076.036 0 .066.007.09.02.024.014.041.03.05.049.01.019.014.037.014.054 0 .007 0 .013-.001.02-.013.073-.022.144-.029.214-.007.069-.01.127-.01.173 0 .039.001.077.005.114.068-.002.133-.014.197-.036.011-.004.022-.006.033-.006.013 0 .026.003.038.009.023.01.038.028.047.052.005.011.007.022.007.033 0 .013-.003.025-.009.038-.01.022-.028.038-.053.048-.024.009-.063.02-.115.032-.053.011-.11.017-.17.018z" transform="matrix(68.87088 0 0 68.87088 12987.9698954 3347.16228332)"/><path d="m.329.06c-.04 0-.075-.001-.107-.003-.031-.002-.058-.007-.081-.015s-.042-.02-.057-.037c-.014-.017-.025-.04-.031-.07-.015-.076-.023-.153-.023-.231 0-.024.001-.048.002-.072.006-.102.019-.203.039-.302.006-.029.017-.05.034-.063.017-.012.039-.02.068-.022.028-.002.059-.003.093-.003.083 0 .141.001.173.003.029.002.059.005.089.009.026.003.046.013.06.031.015.018.022.037.022.058 0 .032-.011.056-.031.073-.018.014-.037.021-.059.021h-.006c-.066-.006-.133-.01-.2-.01-.006.038-.012.076-.017.116l.073.004c.026.002.047.011.063.03.016.018.024.039.024.064 0 .026-.01.049-.03.067-.018.015-.041.023-.067.023-.025-.001-.051-.002-.075-.003 0 .055.002.104.007.146.018.002.036.002.053.002.048 0 .106-.007.175-.022.006-.001.012-.002.019-.002.018 0 .035.005.05.015.021.014.034.033.04.059.002.006.002.013.002.019 0 .018-.005.035-.015.051-.013.02-.033.033-.058.039-.074.017-.15.025-.229.025z" transform="matrix(68.87088 0 0 68.87088 13029.29816264 3347.16228332)"/><path d="m.341.081c-.011 0-.022-.001-.033-.002-.062-.008-.118-.029-.168-.064-.05-.036-.091-.08-.124-.133-.01-.016-.015-.032-.015-.049 0-.033.014-.058.043-.077.016-.01.032-.015.049-.015.033 0 .059.014.078.043.014.021.031.038.051.052s.041.02.064.02c.021 0 .038-.004.051-.012.013-.009.019-.021.019-.038 0-.018-.017-.038-.051-.061-.016-.011-.033-.022-.053-.033-.06-.036-.106-.07-.137-.1-.047-.045-.07-.096-.07-.152 0-.068.028-.124.084-.169.026-.02.054-.036.086-.047.036-.013.071-.019.105-.019.071 0 .132.018.182.054.053.038.095.089.128.153.008.015.012.029.012.044 0 .009-.002.018-.005.027-.007.023-.022.041-.045.054-.015.007-.029.011-.044.011-.008 0-.017-.001-.027-.004-.023-.008-.041-.023-.053-.046-.023-.045-.055-.067-.098-.067-.024 0-.044.006-.059.016-.01.007-.014.016-.014.027 0 .018.017.039.052.062.015.01.033.021.052.032.06.034.105.067.137.099.047.045.07.096.07.152 0 .041-.008.077-.025.108s-.04.058-.068.079c-.029.021-.058.035-.088.043-.031.008-.059.012-.086.012z" transform="matrix(68.87088 0 0 68.87088 13072.81308032 3347.16228332)"/><path d="m.196.054c-.029 0-.057-.01-.083-.03-.039-.03-.059-.064-.059-.102 0-.017.005-.033.016-.049.049-.074.095-.148.138-.221-.075-.077-.141-.155-.198-.235-.011-.017-.017-.034-.017-.053 0-.031.013-.057.039-.075.017-.013.035-.019.053-.019.031 0 .056.013.075.04.041.056.089.114.144.175.031-.056.061-.113.092-.171.016-.031.032-.047.048-.048.016-.002.025-.002.029-.002.024 0 .048.007.072.022.027.017.045.036.055.057.01.02.015.037.015.051s-.004.027-.011.041c-.1.2-.213.393-.339.578-.018.028-.041.041-.069.041z" transform="matrix(68.87088 0 0 68.87088 12753.88351352 3416.03316332)"/><path d="m.384.055c-.069 0-.117-.019-.143-.057-.012-.018-.019-.039-.021-.063-.01-.137-.015-.258-.015-.363 0-.044 0-.087.002-.13-.037.004-.072.01-.106.019-.009.002-.017.003-.024.003-.017 0-.032-.004-.047-.013-.021-.013-.035-.032-.042-.057-.002-.008-.003-.016-.003-.023 0-.017.005-.032.013-.047.013-.021.032-.035.057-.041.088-.022.157-.034.209-.034.052-.001.085-.001.097-.001.079 0 .157.003.234.011.026.002.046.013.062.031.015.018.023.038.023.061 0 .029-.011.052-.032.069-.018.016-.039.023-.063.023-.028-.002-.069-.005-.123-.007-.002.049-.003.099-.003.149 0 .108.006.233.016.374v.011c0 .037-.015.062-.043.075-.015.007-.03.01-.048.01z" transform="matrix(68.87088 0 0 68.87088 12812.36636912 3416.03316332)"/><path d="m.613.042c-.029 0-.052-.003-.07-.009s-.033-.013-.044-.023c-.012-.01-.021-.02-.028-.031-.041.042-.096.063-.164.063-.109 0-.185-.058-.229-.175-.022-.056-.035-.112-.041-.169-.005-.057-.008-.108-.008-.155 0-.072.005-.14.014-.204.007-.051.035-.076.083-.076.061.001.105.014.132.04.025.026.038.054.038.084 0 .005-.001.011-.002.016-.002.014-.004.037-.007.071-.003.033-.005.066-.006.098-.002.032-.002.059-.002.081 0 .125.016.187.049.187.036 0 .062-.06.079-.179.011-.081.019-.18.023-.297.002-.039.018-.065.05-.078.014-.005.03-.008.046-.008.036 0 .066.006.089.017.024.012.041.027.052.046.011.018.017.038.017.061-.002.098-.002.173-.002.223v.091c.001.075.007.15.017.224.001.007.001.014.001.02 0 .034-.013.058-.039.071-.014.007-.03.011-.048.011z" transform="matrix(68.87088 0 0 68.87088 12859.37648396 3416.03316332)"/><path d="m.298-.126c.075 0 .131-.003.166-.009s.053-.018.053-.035c0-.011-.007-.022-.022-.031s-.04-.017-.073-.022c-.034-.006-.079-.008-.134-.008.001.036.004.071.01.105zm-.004-.293c.046 0 .083-.003.112-.008.029-.006.051-.013.064-.022.014-.01.021-.02.021-.031 0-.03-.061-.053-.182-.068-.006.041-.011.084-.015.129zm.024.484c-.143 0-.226-.037-.251-.111-.02-.062-.031-.116-.034-.162-.002-.045-.003-.079-.003-.102 0-.088.011-.2.033-.335.008-.051.046-.081.116-.088.029-.004.055-.005.078-.005.037 0 .076.003.115.011.04.007.078.019.114.033.037.015.069.034.098.056s.052.048.069.078c.018.03.026.063.026.1 0 .019-.004.037-.012.053-.009.017-.02.031-.034.043s-.029.022-.046.029c.022.006.043.017.063.032.021.016.038.035.052.058.013.023.02.048.02.076 0 .032-.008.061-.024.086s-.037.047-.064.066c-.028.019-.059.034-.093.046-.035.012-.071.021-.11.027-.038.006-.076.009-.113.009z" transform="matrix(68.87088 0 0 68.87088 12910.52459084 3416.03316332)"/><path d="m.329.06c-.04 0-.075-.001-.107-.003-.031-.002-.058-.007-.081-.015s-.042-.02-.057-.037c-.014-.017-.025-.04-.031-.07-.015-.076-.023-.153-.023-.231 0-.024.001-.048.002-.072.006-.102.019-.203.039-.302.006-.029.017-.05.034-.063.017-.012.039-.02.068-.022.028-.002.059-.003.093-.003.083 0 .141.001.173.003.029.002.059.005.089.009.026.003.046.013.06.031.015.018.022.037.022.058 0 .032-.011.056-.031.073-.018.014-.037.021-.059.021h-.006c-.066-.006-.133-.01-.2-.01-.006.038-.012.076-.017.116l.073.004c.026.002.047.011.063.03.016.018.024.039.024.064 0 .026-.01.049-.03.067-.018.015-.041.023-.067.023-.025-.001-.051-.002-.075-.003 0 .055.002.104.007.146.018.002.036.002.053.002.048 0 .106-.007.175-.022.006-.001.012-.002.019-.002.018 0 .035.005.05.015.021.014.034.033.04.059.002.006.002.013.002.019 0 .018-.005.035-.015.051-.013.02-.033.033-.058.039-.074.017-.15.025-.229.025zm-.051-.846c-.01 0-.015-.003-.016-.007 0-.005 0-.008 0-.009 0-.017.008-.039.025-.068.007-.012.014-.023.022-.032l.037-.047c.014-.017.027-.026.038-.027.011-.002.019-.003.023-.003.013 0 .026.004.037.01.014.008.022.017.023.025.002.009.002.014.002.016 0 .013-.007.027-.023.042-.035.032-.069.058-.102.079-.022.014-.044.021-.066.021z" transform="matrix(68.87088 0 0 68.87088 12961.40295344 3416.03316332)"/><path d="m.22.035c-.037 0-.067-.005-.091-.015-.023-.01-.041-.024-.053-.042-.012-.017-.02-.038-.022-.062-.013-.142-.019-.284-.019-.426 0-.043 0-.086.001-.129.001-.029.007-.051.019-.064.012-.014.032-.023.06-.027.027-.004.066-.006.115-.006.038 0 .078.003.119.009.041.005.081.015.119.027.038.013.072.03.102.05.031.021.055.046.073.076.018.029.027.064.027.103 0 .062-.027.113-.081.153-.045.033-.101.056-.167.07.029.044.071.077.125.1.039.016.058.045.058.085 0 .012-.003.023-.008.035-.016.039-.044.058-.084.058-.012 0-.024-.003-.036-.008-.069-.028-.126-.067-.171-.118.002.021.003.036.003.044 0 .028-.008.049-.023.063-.018.016-.04.024-.066.024zm.07-.449c.064-.006.113-.015.144-.027.032-.013.047-.026.047-.04 0-.013-.016-.026-.048-.038-.033-.012-.08-.021-.143-.027l-.001.052c0 .027 0 .053.001.08z" transform="matrix(68.87088 0 0 68.87088 13004.2119446 3416.03316332)"/><path d="m.456.057c-.058 0-.114-.009-.168-.026-.055-.017-.103-.043-.146-.077-.043-.035-.078-.078-.103-.13-.026-.052-.039-.113-.039-.182 0-.055.011-.105.031-.152.02-.046.048-.087.084-.121.036-.035.077-.062.125-.081.047-.02.097-.029.151-.029.093 0 .176.022.249.066.03.018.045.044.045.077 0 .012-.003.024-.008.036-.009.022-.022.037-.039.045-.016.008-.031.013-.046.013-.007 0-.015-.001-.022-.003-.031-.008-.063-.012-.094-.012-.043 0-.082.008-.117.024-.031.014-.056.035-.075.063s-.029.064-.029.108c0 .071.026.124.078.157.038.025.082.038.134.038.045 0 .089-.009.132-.027.012-.005.025-.008.037-.008.011 0 .023.003.034.007.023.01.04.026.05.051.005.012.008.024.008.036 0 .011-.002.023-.007.034-.009.023-.026.04-.051.05-.069.028-.141.043-.214.043z" transform="matrix(68.87088 0 0 68.87088 13052.57078084 3416.03316332)"/><path d="m.613.042c-.029 0-.052-.003-.07-.009s-.033-.013-.044-.023c-.012-.01-.021-.02-.028-.031-.041.042-.096.063-.164.063-.109 0-.185-.058-.229-.175-.022-.056-.035-.112-.041-.169-.005-.057-.008-.108-.008-.155 0-.072.005-.14.014-.204.007-.051.035-.076.083-.076.061.001.105.014.132.04.025.026.038.054.038.084 0 .005-.001.011-.002.016-.002.014-.004.037-.007.071-.003.033-.005.066-.006.098-.002.032-.002.059-.002.081 0 .125.016.187.049.187.036 0 .062-.06.079-.179.011-.081.019-.18.023-.297.002-.039.018-.065.05-.078.014-.005.03-.008.046-.008.036 0 .066.006.089.017.024.012.041.027.052.046.011.018.017.038.017.061-.002.098-.002.173-.002.223v.091c.001.075.007.15.017.224.001.007.001.014.001.02 0 .034-.013.058-.039.071-.014.007-.03.011-.048.011z" transform="matrix(68.87088 0 0 68.87088 13100.99848796 3416.03316332)"/><path d="m.267.067h-.009c-.116 0-.184-.038-.202-.113-.016-.065-.024-.134-.024-.209 0-.127.014-.272.042-.434.008-.051.041-.076.099-.076.036 0 .066.007.09.02.024.014.041.03.05.049.01.019.014.037.014.054 0 .007 0 .013-.001.02-.013.073-.022.144-.029.214-.007.069-.01.127-.01.173 0 .039.001.077.005.114.068-.002.133-.014.197-.036.011-.004.022-.006.033-.006.013 0 .026.003.038.009.023.01.038.028.047.052.005.011.007.022.007.033 0 .013-.003.025-.009.038-.01.022-.028.038-.053.048-.024.009-.063.02-.115.032-.053.011-.11.017-.17.018z" transform="matrix(68.87088 0 0 68.87088 13152.14659484 3416.03316332)"/><path d="m.337.054c-.041 0-.081-.009-.12-.027s-.074-.044-.106-.079c-.031-.034-.056-.077-.075-.127-.018-.05-.028-.108-.028-.173 0-.054.008-.104.023-.152.014-.048.036-.09.064-.126s.062-.065.103-.086.086-.031.137-.031c.054 0 .1.011.141.033.04.023.074.053.101.09.027.038.047.08.061.127.013.047.02.095.02.145 0 .07-.009.131-.027.182s-.042.093-.073.127c-.03.033-.065.057-.103.073s-.078.024-.118.024zm.035-.195c.017 0 .033-.008.049-.024s.028-.04.038-.073c.01-.032.015-.071.015-.118 0-.029-.003-.056-.01-.081-.007-.026-.016-.047-.03-.063-.013-.015-.029-.023-.049-.023-.025 0-.047.009-.064.027-.018.019-.031.043-.041.072-.009.029-.014.059-.014.09 0 .044.005.08.015.109.011.028.024.049.04.063.017.014.033.021.051.021z" transform="matrix(68.87088 0 0 68.87088 13192.229447 3416.03316332)"/><path d="m.341.081c-.011 0-.022-.001-.033-.002-.062-.008-.118-.029-.168-.064-.05-.036-.091-.08-.124-.133-.01-.016-.015-.032-.015-.049 0-.033.014-.058.043-.077.016-.01.032-.015.049-.015.033 0 .059.014.078.043.014.021.031.038.051.052s.041.02.064.02c.021 0 .038-.004.051-.012.013-.009.019-.021.019-.038 0-.018-.017-.038-.051-.061-.016-.011-.033-.022-.053-.033-.06-.036-.106-.07-.137-.1-.047-.045-.07-.096-.07-.152 0-.068.028-.124.084-.169.026-.02.054-.036.086-.047.036-.013.071-.019.105-.019.071 0 .132.018.182.054.053.038.095.089.128.153.008.015.012.029.012.044 0 .009-.002.018-.005.027-.007.023-.022.041-.045.054-.015.007-.029.011-.044.011-.008 0-.017-.001-.027-.004-.023-.008-.041-.023-.053-.046-.023-.045-.055-.067-.098-.067-.024 0-.044.006-.059.016-.01.007-.014.016-.014.027 0 .018.017.039.052.062.015.01.033.021.052.032.06.034.105.067.137.099.047.045.07.096.07.152 0 .041-.008.077-.025.108s-.04.058-.068.079c-.029.021-.058.035-.088.043-.031.008-.059.012-.086.012z" transform="matrix(68.87088 0 0 68.87088 13238.70581252 3416.03316332)"/></g></g></g></svg>