<svg clip-rule="evenodd" fill-rule="evenodd" stroke-linejoin="round" stroke-miterlimit="2" viewBox="0 0 49 31" xmlns="http://www.w3.org/2000/svg" xmlns:xlink="http://www.w3.org/1999/xlink"><linearGradient id="a"><stop offset="0" stop-color="#ffcd53"/><stop offset="1" stop-color="#b58829"/></linearGradient><radialGradient id="b" cx="0" cy="0" gradientTransform="matrix(1 0 0 -1 0 .686548)" gradientUnits="userSpaceOnUse" r="1" xlink:href="#a"/><radialGradient id="c" cx="0" cy="0" gradientTransform="matrix(1 0 0 -1 0 .01288)" gradientUnits="userSpaceOnUse" r="1" xlink:href="#a"/><linearGradient id="d"><stop offset="0" stop-color="#fff"/><stop offset=".78" stop-color="#e2d5cf"/><stop offset="1" stop-color="#b18a7d"/></linearGradient><radialGradient id="e" cx="0" cy="0" gradientTransform="matrix(1 0 0 -1 0 .324491)" gradientUnits="userSpaceOnUse" r="1" xlink:href="#d"/><radialGradient id="f" cx="0" cy="0" gradientTransform="matrix(1 0 0 -1 0 .001818)" gradientUnits="userSpaceOnUse" r="1" xlink:href="#d"/><linearGradient id="g"><stop offset="0" stop-color="#fff"/><stop offset=".78" stop-color="#f1eee7"/><stop offset="1" stop-color="#c9bda9"/></linearGradient><linearGradient id="h" gradientUnits="userSpaceOnUse" x1="0" x2="1" xlink:href="#g" y1=".000748" y2=".000748"/><linearGradient id="i" gradientUnits="userSpaceOnUse" x1="0" x2="1" xlink:href="#g" y1=".000073" y2=".000073"/><linearGradient id="j"><stop offset="0" stop-color="#fff"/><stop offset=".94" stop-color="#d03224"/><stop offset="1" stop-color="#d02f23"/></linearGradient><radialGradient id="k" cx="0" cy="0" gradientTransform="matrix(1 0 0 -1 0 .679102)" gradientUnits="userSpaceOnUse" r="1" xlink:href="#j"/><radialGradient id="l" cx="0" cy="0" gradientTransform="matrix(1 0 0 -1 0 .591455)" gradientUnits="userSpaceOnUse" r="1" xlink:href="#j"/><radialGradient id="m" cx="0" cy="0" gradientTransform="matrix(1 0 0 -1 0 .688017)" gradientUnits="userSpaceOnUse" r="1" xlink:href="#j"/><radialGradient id="n" cx="0" cy="0" gradientTransform="matrix(1 0 0 -1 0 .053657)" gradientUnits="userSpaceOnUse" r="1"><stop offset="0" stop-color="#fff"/><stop offset="1" stop-color="#b58829"/></radialGradient><radialGradient id="o" cx="0" cy="0" gradientTransform="matrix(1 0 0 -1 0 .246974)" gradientUnits="userSpaceOnUse" r="1" xlink:href="#j"/><path d="m0 3.165c.002-.024.005-.047.004-.071 0-.003-.033-.01-.042-.003-.019.014-.031.036-.048.058.031.006.059.011.086.016m7.198 8.38c.203-.121.273-.17.111-.366-.469-.569-.689-1.202-.461-1.939.033-.109.007-.191-.119-.245-.565-.247-1.651.454-1.66 1.078.01 1.165 1.388 1.913 2.129 1.472m2.479-21.081c-.219.17-.165.3-.173.411-.043.649-.121.719-.758.587-.281-.059-.425-.036-.287.298.168.408-.105.41-.37.363-.203-.037-.395-.168-.597-.183-.212-.016-.472-.087-.448.353.028.506-.465.117-.705.308.353.389.884.6 1.103 1.134.067.159.341-.05.475-.165.736-.634 1.574-1.081 2.642-1.423-.677-.412-.864-.988-.882-1.683m.695 19.22c-.05-.786-.979-1.358-2.031-1.355-.842.003-1.253.824-1.21 1.533.048.8.561 1.495 1.531 1.407 1.266-.066 1.776-.54 1.71-1.585m4.498 1.952c.652-.899.16-2.011-.998-2.32-.709-.189-1.38.018-1.877.536-.6.624-.138 1.936.73 2.154.263.066.535.196.728.1.57-.068 1.079-.003 1.417-.47m18.575-4.023c-.034.955.574 1.594 1.579 1.661.732.05 1.849-.814 1.877-1.45.045-1.03-.712-1.78-1.837-1.821-.892-.031-1.584.657-1.619 1.61m-24.765-16.635c-.212-.307-.448-.585-.66-.87-.484-.648-.672-1.364-.718-2.15-.022-.363-.097-.746-.448-.957-.355-.212-.743-.233-1.079.036-.292.234-.378.556-.3.938.049.246.135.471.248.688.172.333.062.648-.035.965-.049.161-.188.226-.332.144-.129-.074-.08-.195-.021-.319.229-.481.152-.594-.387-.581-.428.01-.792.172-1.002.555-.193.351-.13.698.091 1.038.155.239.365.305.62.32.777.042 1.555.078 2.039.839.075.117.222.111.339.082.292-.072.581-.111.944.076-.143-.551-.143-.551.701-.804m-9.113 4.155c-.073.069-.151.172-.267.109-.112-.062-.084-.166-.048-.275.159-.466-.005-.529-.44-.401-.531.156-.967.386-1.199.917-.188.435-.082.787.286 1.059.468.346.99.578 1.568.68.739.131 1.388.396 1.883 1.022.28.356.667.62 1.194.616.316-.003.368-.07.284-.352-.134-.452.014-.721.523-.714.127.002.268-.006.302-.149.035-.14-.019-.294-.134-.376-.623-.447-.98-1.13-1.507-1.664-.426-.429-.456-1.045-.478-1.623-.029-.778-.294-1.177-.974-1.453-.348-.14-.557-.035-.622.309-.105.548-.176 1.102-.246 1.548.056.342.063.569-.125.747m7.31 12.55c-.177-.087-.456-.051-.502-.312-.04-.227.187-.315.312-.452.071-.077.162-.136.229-.215.168-.197.302-.443.134-.666-.178-.237-.408-.048-.609.045-.126.06-.25.124-.379.178-.059.025-.128.028-.194.041.163-.443-.55-.468-.422-.937.147-.535-.211-.915-.759-.905-.278.005-.213.214-.248.374-.057.278.177.678-.137.813-.261.114-.428-.29-.663-.431-.259-.155-.523-.277-.809-.349-.147-.038-.344-.091-.429.075-.075.147.057.289.142.42.115.179.478.256.353.512-.146.301-.438-.004-.667.039-.134.025-.279.002-.418.008-.127.006-.249.036-.288.18-.037.136.033.237.133.318.164.131.326.264.498.385.121.087.33.107.276.321-.051.204-.25.143-.396.177-.118.029-.239.06-.348.113-.214.103-.361.237-.149.48.226.258.137.442-.145.571-.402.183-.445.574-.488.928-.039.32.209.444.508.454.4.013.733-.203 1.096-.315.178-.055.382-.18.56.067.151.208.301.383.144.654-.206.357-.05.529.311.636.703.208 1.121-.043 1.195-.751.091-.877 1.087-1.635 2.076-1.525.23.026.345.038.442-.182.038-.086.154-.138.234-.205.149-.125.507-.107.424-.374-.08-.255-.396-.1-.608-.115-.138-.016-.292.003-.409-.055m-4.648-2.987c.27-.246.604-.13.895-.03.323.112.624.285.95.438.162-.221-.012-.521.178-.732.099-.11.007-.143-.092-.154-.404-.05-.385-.287-.238-.563.249-.464-.146-.818-.21-1.229-.021-.131-.181-.091-.303-.012-.39.252-.5.201-.475-.26.018-.375-.173-.58-.45-.76-.107-.07-.218-.134-.339-.067-.135.075-.103.209-.068.327.046.154.122.343-.071.411-.205.071-.221-.16-.296-.282-.019-.03-.039-.058-.064-.084-.168-.175-.388-.449-.593-.328-.199.118-.094.444.011.671.072.153.246.337.046.457-.211.127-.275-.143-.376-.264-.208-.252-.456-.668-.761-.455-.369.255-.091.665.129.959.145.195.34.351.508.529.081.084.202.165.112.309-.086.136-.203.115-.318.04-.186-.123-.41-.21-.572-.038-.143.152.035.317.126.461.048.076.084.167.025.243-.06.077-.154.06-.24.024-.129-.053-.258-.108-.389-.153-.127-.044-.247-.012-.333.09-.087.106-.092.214.01.326.275.3.089.376-.201.404-.226.022-.513-.112-.633.214-.113.305.116.45.304.6.244.195.151.356-.077.402-.352.07-.559.254-.529.594.031.349.234.633.601.711.251.054.356.071.248.396-.159.479.271.7.61.817.505.175 1.042.114 1.501-.189.232-.152.429-.298.288-.712-.181-.527.402-.589.755-.803-.232-.319-.809-.467-.668-.949.132-.452.656-.373 1.053-.495-.077-.316-.348-.598-.054-.864m3.112 10.252c1.743.504 3.534.831 5.33 1.055 1.973.246 3.962.36 5.957.364 1.993.003 3.991.023 5.968-.218 1.868-.227 3.746-.399 5.598-.763 1.453-.286 2.813-.79 4.073-1.552.576-.349.984-.923 1.564-1.302-.856.269-1.714.466-2.564.689-1.149.301-2.328.465-3.481.726-1.695.382-3.42.477-5.125.739-.764.118-1.536.069-2.303.05-.965-.024-1.926.075-2.895.045-1.115-.033-2.223-.081-3.334-.202-.864-.094-1.739-.088-2.607-.193-2.031-.245-4.01-.731-5.981-1.26-1.33-.356-2.709-.469-4.143-.916 1.065 1.436 2.385 2.288 3.943 2.738m32.342-12.787c.139-.115.448-.198.25-.474-.17-.237-.444-.283-.704-.171-.169.073-.311.215-.459.334-.204.163-.399.322-.429-.121-.018-.251-.167-.368-.402-.406-.448-.072-.607-.324-.53-.776.044-.255.037-.535-.189-.733-.133-.115-.318-.259-.469-.152-.514.36-.522.043-.56-.351-.014-.153-.036-.432-.216-.44-.234-.01-.215.275-.273.443-.172.498-.088.943.32 1.304.344.304.624.662.832 1.068.1.194.209.24.417.179.387-.114.589.124.721.441.065.155.066.328-.091.425-.193.121-.283-.016-.34-.184-.022-.063-.085-.173-.123-.131-.333.375-.571.078-.843-.086-.097-.058-.251-.06-.344.043-.078.085-.043.204-.002.297.106.239.222.474.343.707.125.241.187.479.083.751-.06.156-.112.332.085.465.111.075.156.209.048.316-.124.121-.224-.015-.32-.076-.191-.121-.374-.256-.604-.298-.287-.054-.519-.023-.596.322-.084.378-.199.647-.654.297-.281-.217-.513.009-.728.21-.103.095-.196.299-.383.201-.165-.087-.041-.249-.031-.379.054-.714-.146-1.051-.802-1.362-.552-.263-.759-.149-.829.445-.015.137-.033.295-.25.233-.465-.134-.379.214-.369.451.019.451.305.815.44 1.229.047.147.177.3 0 .421-.153.103-.347.094-.493-.022-.168-.135-.351-.223-.553-.288-.203-.064-.423-.136-.584.04-.161.177-.114.425.01.589.217.286.206.495-.09.697-.127.086-.151.22-.151.37-.002.49-.19.427-.49.179-.22-.182-.412-.426-.765-.394-.403.037-.68.171-.65.631.028.431-.209.435-.496.298-.336-.161-.649-.13-.938.074-.158.112-.181.298-.091.474.175.346.414.58.847.574.299-.005.558-.009.669-.35.047-.144.155-.253.316-.211.15.04.237.182.199.327-.056.204-.075.353.199.34.218-.01.501.049.54-.271.054-.453.211-.34.438-.119.223.219.502.363.809.249.276-.104.244-.388.26-.634.016-.261.096-.455.429-.318.25.104.44.005.576-.218.072-.119.163-.18.304-.104.136.073.147.171.09.307-.213.509.117.696.511.834.327.114.53.011.51-.352-.023-.38.056-.547.458-.329.302.163.489-.035.656-.253.168-.219.292-.484.633-.494.269-.008.157-.217.152-.356-.048-1.332 1.329-2.4 2.19-2.268.674.104 1.254.399 1.712.924.378.433 1.688.498 2.102.123.145-.132.093-.251-.013-.36-.196-.2-.401-.39-.596-.59-.078-.081-.234-.143-.173-.287.067-.161.2-.065.317-.043.135.024.275.02.473.032-.172-.33-.444-.48-.672-.673-.079-.066-.187-.137-.134-.254.064-.139.183-.107.315-.072.527.145 1.053.324 1.685.204-.426-.437-.873-.66-1.419-.682-.111-.005-.269.055-.293-.129-.022-.166.123-.205.24-.219.244-.029.493-.11.519-.359.03-.276-.252-.397-.457-.519-.39-.23-.794-.411-1.223-.01-.102-.275-.035-.401.123-.53m-31.885 2.983c.012.222.017.346.278.276.119-.031.222.024.239.143.038.259.174.24.373.187.22-.06.493-.111.633.106.149.227.107.503-.043.744-.055.089-.125.171-.167.266-.068.153-.355.216-.257.405.103.196.369.165.57.196.366.059.833-.131.98.436.009.033.157.038.24.043 1.134.069 1.954.573 2.036 1.903.011.186.037.355.288.34.194-.011.385.091.545-.168.925-1.487 2.82-1.493 3.811-.023.158.235.355.327.644.372 1.437.223 2.807-.168 4.192-.414.35-.062.658-.106.999.078.435.234.932.126 1.39.069.423-.051.805-.309 1.256-.324.228-.008.259-.207.252-.432-.027-.761.337-1.115 1.111-1.07.216.012.336.019.457-.2.346-.622.772-.745 1.51-.488.407.141.683-.072.588-.504-.093-.42-.141-.862.243-1.086.37-.214.817-.103 1.189.155.041.029.093.041.174.075.056-.302-.167-.489-.24-.722-.163-.516-.272-1.08.09-1.502.29-.339.678-.729 1.23-.606.557.124 1.074.337 1.331.911.055.122.086.256.138.412.257-.242.165-.479.07-.728-.502-1.324-1.528-1.992-2.829-2.411-1.7-.549-3.446-.666-5.205-.718-1.003-.03-1.84-.494-2.69-.934-.202-.104-.377-.269-.586-.346-.176-.064-.348-.338-.531-.165-.202.193-.265.482-.17.78.208.647.697 1.077 1.163 1.524 1.138 1.093 2.547 1.602 4.067 1.896.774.149 1.463.477 1.812 1.267.074.167.156.333.015.487-.187.205-.32-.014-.441-.102-.91-.651-1.985-1.026-3.018-.777-1.152.278-2.494.412-3.184 1.666-.166.301-.249.612-.216.957.015.166-.009.342-.217.354-.249.014-.193-.202-.198-.343-.048-1.336-.542-2.521-1.284-3.6-.765-1.111-1.872-1.803-3.074-2.368-1.601-.751-3.319-.776-5.029-.807-1.231-.022-2.396-.259-3.452-.894-.751-.452-1.368-1.067-1.907-1.758-.214-.275-.398-.577-.708-.764-.094-.056-.178-.127-.279-.03-.076.072-.043.161-.011.242.03.082.076.159.104.242.228.662.079.859-.585.761-.382-.057-.384.152-.276.398.126.287.288.558.439.834.065.118.093.238-.013.335-.127.114-.245-.003-.32-.075-.36-.338-.721-.611-1.254-.347-.141.07-.252-.058-.353-.164-.206-.214-.419-.422-.642-.618-.111-.1-.241-.237-.411-.099-.184.151-.106.338.007.466.316.355.69.66 1.14.815.396.136.697.39 1.014.633.164.126.265.28.253.491-.031.539.213.874.736 1.004.115.028.212.101.214.204.01.612.732 1.156.069 1.87.894-.134 1.661.477 1.7 1.244m20.613-.415c-.236-.461-.621-.571-.984-.689-.83-.27-1.705-.385-2.505-.755-1.276-.591-2.363-1.409-3.117-2.617-.373-.597-.327-1.154.094-1.703.187-.242.326-.134.518.009.99.735 2.042 1.379 3.29 1.519.737.082 1.488.128 2.23.154 1.528.056 2.94.44 4.341 1.041 1.25.537 1.746 1.566 2.184 2.698.068.178.093.392.319.441.253.055.244-.207.337-.329.165-.213.356-.322.623-.316.475.008.734-.306.494-.716-.556-.954-1.043-1.968-2.174-2.454-.513-.22-1.009-.468-1.554-.593-.564-.129-.87-.576-1.201-.971-.927-1.108-2.077-1.97-3.16-2.905-.281-.243-.648-.385-1.044-.614.315-.163.519-.087.717.064 1.375 1.053 2.733 2.119 3.889 3.426.387.436.901.709 1.512.867.903.234 1.689.763 2.321 1.453.309.337.604.143.841.054.231-.086-.017-.285-.103-.409-.791-1.148-1.911-1.825-3.228-2.189-.444-.123-.756-.358-1.072-.689-1.28-1.34-2.679-2.533-4.241-3.557-2.326-1.524-4.941-2.237-7.607-2.658-2.526-.399-5.111-.486-7.636.203-1.118.306-2.003 1.013-2.891 1.739-1.178.962-1.708 2.206-1.902 3.656-.017.13.021.2.094.269.887.833 1.835 1.475 3.102 1.699 1.406.249 2.825.17 4.224.384 2.949.453 5.962 2.272 6.712 5.56.025.111.089.213.14.329 1.329-1.89 3.937-2.475 6.437-1.401m-7.825 9.622c1.835.176 3.661.126 5.495-.073 1.586-.172 3.131-.536 4.691-.822 1.198-.22 2.403-.45 3.564-.807 1.362-.418 2.732-.822 4.052-1.385 1.279-.547 2.424-1.314 3.539-2.105.509-.361 1.074-.752 1.386-1.387.526-1.074.288-1.524-.461-2.273-.503-.501-1.185-.598-1.911-.667.153.171.273.314.402.449.173.18.207.348-.077.419-.389.095-.223.247-.074.424.339.4.292.648-.201.806-.463.147-.936.318-1.436.238-.225-.035-.223.005-.229.231-.042 1.554-1.248 2.589-2.751 2.128-.379-.116-.736-.322-1.055-.577-.481-.383-.797-.347-1.191.128-.093.111-.186.214-.334.236-.324.049-.546.187-.727.496-.231.391-.97.266-1.424-.194-.13-.133-.2-.32-.437-.342-.235-.023-.394-.092-.464.265-.108.558-.498.741-1.032.533-.25-.098-.446-.164-.654.054-.103.108-.253.129-.393.115-.626-.063-1.297.014-1.868-.162-.66-.203-1.203.027-1.773.143-.793.161-1.548.298-2.371.111-.469-.106-1.002.054-1.503.119-.882.115-1.761.242-2.639.38-.29.045-.557-.052-.826-.103-.266-.049-.363.02-.444.275-.348 1.098-.841 1.458-1.957 1.475-.984.015-1.679-.485-2.052-1.472-.142-.375-.721-.51-.971-.191-.613.785-1.44.929-2.346.829-.249-.027-.444.059-.655.127-1.032.336-1.704.172-2.385-.65-.18-.218-.301-.207-.513-.092-.426.231-.875.213-1.319.045-.364-.138-.651-.317-.336-.764.087-.125.078-.257-.021-.389-.121-.16-.277-.141-.428-.097-.268.079-.524.197-.795.263-.714.172-1.056-.113-1.021-.839.019-.422-.277-.282-.464-.24-.665.149-1.244.016-1.604-.577-.244-.403-.461-.806-.773-1.172-.287-.338-.284-.797.085-1.132.219-.2.189-.376.078-.601-.068-.136-.214-.364-.103-.432.514-.31.661-1.074 1.295-1.157.502-.066.327-.436.31-.597-.023-.219-.293-.131-.473-.063-1.279.482-2.411 1.209-3.363 2.177-.762.773-.62 1.752-.088 2.774.871 1.671 2.418 2.451 4.09 3.056 3.179 1.149 6.518 1.644 9.792 2.405 2.052.477 4.149.547 6.234.729.281.025.522-.254.804-.066-.046 0-.092-.001-.138-.002.009.022.015.06.029.064.056.015.093-.011.101-.072.711.119 1.423-.06 2.133.008m-13.015-17.57c.162-.9.733-1.576 1.24-2.281.335-.466.317-.861-.137-1.227-.216-.173-.425-.357-.621-.552-.141-.14-.204-.356.033-.419.604-.162.229-.412.061-.604-.269-.307-.627-.432-1.043-.374-.154.021-.322.068-.464.03-.59-.157-1.134-.903-1.119-1.498.015-.675.379-1.117 1.167-1.257.43-.076.561-.169.438-.631-.158-.595.229-1.185.791-1.371.592-.195 1.288.102 1.548.669.185.404.181.848.249 1.277.15.971.732 1.683 1.387 2.384.151-.2.07-.362.091-.512.02-.141.022-.3.185-.343.168-.044.352-.065.503.058.154.125.166.308.139.483-.101.664.405 1.045.744 1.467.156.195.5-.146.778-.153.052-.001.105-.005.157-.014 1.386-.27 2.775-.153 4.174-.107 1.94.063 3.799.432 5.657.941 3.505.96 6.31 2.994 8.778 5.573.133.139.26.277.444.355.831.355 1.711.599 2.482 1.153.109-.353.181-.66.301-.946.073-.175.101-.439.394-.42.245.016.364.191.442.394.082.214.145.39.433.452.625.135.943.567.991 1.235.01.144-.009.299.144.366.408.178.742.543 1.291.321.43-.175 1.062.137 1.054.501-.009.446.305.523.543.709.193.15.405.275.595.429.183.149.261.369.107.557-.213.26-.056.343.136.478.305.213.779.267.843.72.041.297.223.403.433.525.876.508 1.191 1.559.8 2.489-.22.525-.659.819-1.021 1.21-.893.962-2.056 1.495-3.137 2.15-.966.586-2.108.847-3.022 1.556-.426.331-.953.562-1.301.956-1.038 1.173-2.49 1.574-3.867 1.948-2.422.658-4.95.808-7.446 1.041-1.765.166-3.55.264-5.321.208-2.63-.083-5.269-.196-7.864-.71-1.549-.306-3.107-.559-4.602-1.113-1.362-.505-2.252-1.57-3.215-2.542-.199-.2-.364-.365-.619-.462-.588-.223-1.169-.467-1.76-.683-1.568-.573-2.718-1.61-3.476-3.089-.669-1.305-.346-2.56.817-3.43 1.099-.821 2.259-1.515 3.562-1.955.187-.063.195-.156.126-.313-.16-.357-.114-.682.177-.956.328-.309.566.024.845.157.047-.179.071-.333.127-.474.07-.172.188-.32.402-.215.314.154.614.526.92-.021.052-.091.191.021.289.049.09.025.206.118.271-.017.045-.093.029-.201-.052-.292-.202-.228-.444-.388-.729-.497-.578-.22-1.061-.586-1.49-1.023-.254-.259-.324-.551-.022-.82.249-.22.114-.346-.082-.468-.18-.11-.368-.202-.583-.225-.613-.063-1.165-.256-1.701-.586-.529-.324-.807-.766-.738-1.33.08-.654.437-1.211 1.137-1.356.743-.154 1.198-.484 1.175-1.309-.005-.198.097-.407.176-.6.11-.273.332-.402.625-.381.596.043 1.432.763 1.469 1.378.068 1.148.394 2.147 1.302 2.909.239.201.428.368.775.181.327-.176.615.05.843.266.199.188.348.428.525.655.188-.184.274-.421.316-.654" fill="#231f20" transform="translate(6.242 13.638)"/><path d="m.836.922c.099-.027.177-.089.255-.153.104-.085.151-.195.168-.323.002-.011-.002-.017-.008-.023-.078-.074-.162-.131-.274-.15-.124-.022-.249-.015-.372-.034-.26-.04-.526-.201-.592-.49-.003-.01-.008-.019-.013-.03-.117.167-.347.219-.567.124.021.041.054.05.086.061.074.024.151.034.221.066.113.052.209.125.275.231.033.053.029.102-.008.15-.016.022-.029.012-.046 0-.087-.065-.18-.122-.29-.134-.065-.008-.131-.012-.196-.014-.135-.005-.26-.039-.383-.092-.111-.047-.154-.138-.193-.238-.006-.015-.008-.034-.028-.039-.023-.004-.022.019-.03.029-.014.019-.031.029-.055.028-.042 0-.065.027-.043.063.049.085.092.174.191.217.046.019.089.041.137.052.05.011.077.051.106.086.082.098.184.173.279.256.025.021.057.034.092.054-.028.015-.046.008-.063-.006-.121-.092-.241-.186-.343-.302-.034-.038-.08-.062-.133-.076-.08-.021-.15-.067-.205-.128-.027-.03-.053-.013-.074-.005s.001.025.009.036c.07.101.168.161.284.193.04.011.067.032.095.061.113.118.236.223.374.314.205.134.436.197.671.234.105.017.212.027.319.027.118 0 .237-.013.354-.045z" fill="url(#b)" fill-rule="nonzero" transform="matrix(-11.3381 0 0 -11.3381 26.221 16.587)"/><path d="m1.016.569c.006-.006.003-.014.001-.02-.003-.007-.007-.013-.009-.02-.019-.055-.007-.071.048-.063.032.005.032-.012.023-.033-.011-.023-.024-.046-.036-.069-.006-.009-.008-.019.001-.027.01-.01.02 0 .026.006.03.028.06.05.104.029.011-.006.02.004.029.013.017.018.034.035.053.051.009.008.02.02.034.008.015-.012.008-.028-.001-.038-.026-.029-.057-.055-.094-.067-.033-.012-.057-.033-.084-.053-.013-.01-.021-.023-.02-.04.002-.045-.018-.072-.061-.083-.01-.002-.018-.008-.018-.017-.001-.05-.06-.095-.006-.154-.073.011-.137-.039-.14-.103-.001-.018-.001-.028-.023-.022-.01.002-.018-.002-.019-.012-.003-.021-.015-.02-.031-.015-.018.004-.041.009-.053-.009-.012-.019-.008-.042.004-.062.005-.007.01-.014.014-.022.005-.012.029-.017.021-.033s-.03-.014-.047-.016c-.007-.001-.015-.001-.023-.001-.024 0-.049 0-.058-.035 0-.003-.013-.003-.019-.004-.094-.005-.162-.047-.168-.157-.001-.015-.003-.029-.024-.028-.004.001-.008 0-.012 0-.012-.001-.023-.002-.033.014-.076.123-.233.123-.315.002-.013-.019-.029-.027-.053-.031-.118-.018-.231.014-.345.035-.029.005-.055.008-.083-.007-.036-.019-.077-.01-.114-.006-.035.005-.067.026-.104.027-.019.001-.021.017-.021.036.002.063-.028.092-.091.088-.018-.001-.028-.002-.038.017-.029.051-.064.061-.125.04-.033-.012-.056.006-.048.041s.011.072-.02.09-.068.008-.098-.013c-.004-.002-.008-.003-.015-.006-.004.025.014.04.02.06.014.042.023.089-.007.123-.024.028-.056.061-.102.05-.046-.01-.088-.027-.109-.075-.005-.01-.008-.021-.012-.034-.021.02-.013.04-.006.06.042.109.126.165.234.199.14.046.284.055.429.059.083.003.152.041.222.077.017.009.031.023.048.029.015.005.029.028.044.014.017-.016.022-.04.014-.065-.017-.053-.058-.089-.096-.125-.094-.091-.21-.133-.335-.157-.064-.012-.121-.039-.15-.104-.006-.014-.013-.028-.001-.04.015-.017.026.001.036.008.075.054.164.085.249.064.095-.023.206-.034.263-.137.014-.025.02-.051.018-.079-.002-.014 0-.029.018-.03.02-.001.016.017.016.029.004.11.045.208.106.297.063.091.154.148.253.195.132.062.274.064.415.067.102.001.198.021.285.073.062.038.113.088.157.145.018.023.033.048.059.063.005.003.009.007.014.007.003 0 .006-.001.009-.004z" fill="url(#c)" fill-rule="nonzero" transform="matrix(-12.1241 0 0 -12.1241 22.542 17.442)"/><path d="m.774.808c.051-.056.097-.14.135-.252.031-.089.025-.202.004-.32-.035-.193-.097-.283-.165-.353-.128-.133-.262-.19-.393-.278-.083-.055-.167-.063-.251-.085-.005-.001-.009.004-.013.008-.006.007-.013.013-.02 0l.001.001c-.016-.007-.031-.004-.047-.002-.013.003-.026.005-.039.001-.074-.02-.147-.014-.221.009-.064.02-.126.062-.189.095-.048.025-.096.052-.143.093-.055.048-.11.095-.163.16-.051.063-.097.152-.142.243-.021.042-.043.087-.056.16-.021.125-.012.176.019.263.02.058.047.069.076.077-.006-.02-.011-.036-.016-.052-.007-.021-.008-.04.003-.048.016-.011.009-.029.003-.049-.013-.046-.011-.075.008-.093.019-.017.038-.037.058-.028.009.004.009 0 .009-.026.002-.18.051-.3.111-.246.015.013.03.037.042.066.02.045.032.04.048-.014.004-.013.008-.025.014-.028.013-.005.022-.021.029-.057.009-.045.039-.031.057.022.005.016.008.037.018.04.009.003.016.011.019-.031.004-.064.019-.085.041-.061.01.011.018.019.026-.007.004-.012.01-.014.016-.013.025.007.052-.001.075.019.027.023.049-.003.072-.017.031-.018.062-.034.095-.012.019.012.04-.007.06-.014.036-.013.071-.028.106-.044.012-.005.023.006.034.012.01.006.014-.002.018-.032.014-.127.033-.168.078-.17.04-.002.068.056.083.17.005.043.029.059.039.022.024-.091.058-.107.094-.096.01.003.018-.007.027-.015.041-.038.068-.019.095.075.008.026.012.024.021.011.017-.027.035-.024.053-.005.015.016.026.036.014.088-.004.015-.004.03 0 .045.005.019.012.016.018.011.01-.009.021-.023.032-.03.028-.02.042.013.041.097-.001.049.011.032.018.028.027-.018.05-.002.065.066.01.047.018.093.031.136.011.039.011.092-.003.13-.009.024-.008.044-.004.07.003.016.009.042.004.05-.02.036-.026.124-.052.133-.02.008-.013.051-.012.069 0 .012.003.016.007.016.003 0 .008-.004.012-.008z" fill="url(#e)" fill-rule="nonzero" transform="matrix(-24.8657 0 0 -8.65597 24.48 23.906)"/><path d="m1.403.182c-.092-.125-.207-.198-.341-.237-.151-.044-.306-.072-.461-.091-.171-.022-.343-.032-.516-.032-.172 0-.345-.002-.516.019-.161.02-.324.034-.484.066-.126.025-.243.068-.352.134-.05.03-.086.08-.136.113.074-.023.148-.041.222-.06.099-.026.201-.04.301-.063.147-.033.296-.041.444-.064.066-.01.132-.005.199-.004.041.001.081 0 .122-.002.043-.001.085-.003.128-.002.097.003.192.007.289.018.074.008.15.007.225.017.176.021.347.063.517.108.116.031.235.041.359.08z" fill="url(#f)" fill-rule="nonzero" transform="matrix(-11.5604 0 0 -11.5604 23.857 27.948)"/><path d="m0 .987c-.077-.316-.349-.598-.055-.864.271-.246.605-.13.896-.03.323.112.624.285.95.438.162-.221-.013-.521.178-.732.098-.11.007-.143-.092-.154-.404-.05-.385-.287-.238-.563.249-.464-.146-.818-.21-1.229-.021-.131-.181-.091-.303-.012-.391.252-.5.201-.476-.26.019-.375-.172-.58-.449-.76-.107-.07-.219-.134-.34-.067-.134.075-.102.209-.067.327.046.154.122.343-.071.411-.205.071-.221-.16-.296-.282-.019-.03-.039-.058-.064-.084-.169-.175-.388-.449-.593-.328-.2.118-.094.444.011.671.072.153.245.337.046.457-.211.127-.275-.143-.376-.264-.208-.252-.456-.668-.762-.455-.368.255-.09.665.129.959.146.195.341.351.509.529.081.084.202.165.111.309-.085.136-.203.115-.317.04-.186-.123-.41-.21-.572-.038-.143.152.035.317.126.461.048.076.084.167.025.243-.06.077-.154.06-.24.024-.129-.053-.258-.108-.389-.153-.128-.044-.247-.012-.333.09-.088.106-.092.214.01.326.274.3.089.376-.201.404-.227.022-.513-.112-.633.214-.113.305.115.45.304.6.244.195.151.356-.077.402-.352.07-.559.254-.53.594.032.349.235.633.602.711.251.054.355.071.248.396-.159.479.27.7.609.817.506.175 1.042.114 1.502-.189.232-.152.429-.298.287-.712-.18-.527.403-.589.756-.803-.232-.319-.809-.467-.668-.949.132-.452.656-.373 1.053-.495" fill="#15ab4a" transform="translate(8.526 18.211)"/><path d="m0-.072c-.138-.016-.292.003-.409-.055-.177-.087-.456-.051-.502-.312-.04-.227.187-.315.312-.451.071-.078.162-.137.229-.216.168-.196.302-.443.134-.666-.178-.237-.409-.048-.609.045-.126.06-.25.125-.379.178-.059.025-.129.028-.194.041.163-.443-.55-.468-.422-.937.147-.535-.211-.915-.759-.904-.278.005-.214.214-.248.373-.057.278.177.678-.137.814-.261.113-.428-.291-.663-.431-.259-.156-.523-.277-.809-.35-.148-.038-.344-.09-.429.075-.075.147.057.289.142.421.115.179.477.255.353.511-.146.302-.438-.004-.667.039-.134.025-.279.003-.419.009-.127.005-.248.035-.287.179-.037.137.033.238.133.318.164.131.326.264.498.385.121.087.33.107.276.322-.051.203-.25.142-.396.176-.118.029-.239.061-.349.113-.213.103-.36.238-.148.481.226.258.137.442-.146.57-.401.183-.444.575-.487.928-.039.32.209.445.508.454.4.013.732-.202 1.096-.315.177-.055.382-.179.56.067.151.208.301.383.144.654-.206.358-.05.529.311.636.702.208 1.12-.043 1.195-.751.09-.877 1.087-1.635 2.076-1.525.23.026.345.038.442-.182.038-.086.154-.137.234-.205.149-.125.506-.107.423-.373-.079-.256-.395-.1-.607-.116" fill="#15ab4a" transform="translate(13.529 21.447)"/><g fill-rule="nonzero"><path d="m.607.461c.017-.089.028-.18.04-.252-.009-.056-.011-.093.02-.122.012-.011.025-.028.044-.018.018.011.013.028.007.045-.026.076.001.086.072.066.086-.026.157-.063.195-.15.031-.071.014-.128-.047-.172-.076-.056-.161-.094-.255-.111-.12-.021-.226-.064-.306-.166-.046-.058-.109-.101-.195-.1-.051 0-.06.011-.046.057.022.073-.002.117-.085.116-.021 0-.044.001-.049.024-.006.023.003.048.022.062.101.072.159.184.245.27.069.07.074.17.078.265.005.126.048.191.158.236.017.007.031.01.044.01.03 0 .05-.02.058-.06z" fill="url(#h)" transform="matrix(-6.14201 0 0 -6.14201 9.906 9.306)"/><path d="m.599.469c.06-.048.078-.115.062-.194-.01-.05-.028-.097-.051-.141-.036-.069-.013-.134.007-.2.01-.033.039-.046.068-.029.027.015.017.04.005.066-.047.099-.032.122.08.12.088-.003.163-.036.206-.115.04-.072.027-.144-.019-.214-.031-.049-.075-.063-.128-.066-.159-.009-.32-.016-.42-.173-.015-.024-.046-.023-.07-.017-.06.015-.12.023-.195-.016.03.114.03.114-.144.166.044.063.092.121.136.179.1.134.139.282.148.444.005.075.02.154.092.197.037.022.074.034.112.034s.076-.013.111-.041z" fill="url(#i)" transform="matrix(-4.84831 0 0 -4.84831 14.922 2.948)"/><path d="m1.222.369c.02-.567-.34-.946-.939-.987-.433-.029-1.097.484-1.114.862-.026.611.423 1.057 1.091 1.081.012 0 .023.001.035.001.513 0 .906-.403.927-.957z" fill="url(#k)" transform="matrix(-1.68375 0 0 -1.68375 41.745 21.872)"/><path d="m1.084.845c.377-.392.085-1.218-.459-1.355-.166-.042-.337-.124-.459-.063-.359.042-.679.002-.892.296-.411.565-.101 1.265.628 1.459.11.029.217.044.323.044.324 0 .623-.135.859-.381z" fill="url(#l)" transform="matrix(-1.58862 0 0 -1.58862 19.959 24.832)"/><path d="m.478 1.32c.542-.001.807-.531.78-.988-.031-.515-.362-.964-.988-.907-.815.043-1.144.349-1.103 1.022.034.505.629.873 1.304.873z" fill="url(#m)" transform="matrix(-1.55138 0 0 -1.55138 15.324 24.015)"/><path d="m-.555.714c.023-.343.063-.379.399-.309.147.03.223.019.151-.157-.089-.215.055-.216.194-.192.107.02.208.089.314.097.112.008.249.045.236-.186-.009-.162.083-.15.185-.138.066.008.137.015.186-.024-.186-.204-.465-.316-.58-.597-.035-.084-.179.026-.251.087-.387.334-.828.569-1.389.749.356.216.454.52.464.885.115-.089.087-.158.091-.215z" fill="url(#n)" transform="matrix(-1.90045 0 0 -1.90045 14.691 5.868)"/><path d="m.918.432c-.007-.918-1.095-1.508-1.678-1.16-.16.095-.215.134-.087.289.37.449.542.947.363 1.529-.026.085-.005.149.093.193.063.027.134.04.21.04.46 0 1.093-.468 1.099-.891z" fill="url(#o)" transform="matrix(-1.26859 0 0 -1.26859 12.476 24.259)"/></g><path d="m-.074-.109c.023.039.046.079.07.119-.024.003-.06.016-.07.006-.04-.042-.037-.086.012-.123z" fill="#fff" transform="matrix(-.49442 -.869223 -.869223 .49442 22.572 27.98)"/><path d="m.043-.027c.021.023.04.045.058.065-.019.014-.038.029-.058.04-.003.002-.026-.023-.026-.033.003-.024.016-.046.026-.072" fill="#fff" transform="matrix(.52145 .853282 .853282 -.52145 6.157 16.736)"/><path d="m0 3.646c.193-.399-.218-.388-.481-.387-.14.001-.261.185-.452.158-.157-.022-.224-.283-.34-.309-.254-.058-1.02.344-1.089-.23-.053-.438.869-.484 1.053-.713-.444-.608-1.014-.13-1.432.177-.641.471-1.196.03-.401-.439-.737-.151-1.69-.421-.476-.614.76-.121.668-.535.073-1.028.551-.261.919.546 1.407.635.704.129.176-.536.658-.54.592-.005.152 1.185.392 1.375.258.206.923-.407 1.245-.435-.118.515-.804.967-.322 1.406.203.184.558.086.727.271.203.223.142.606-.178.508" fill="#bed730" transform="translate(12.825 18.505)"/><path d="m0-3.46c-.102-.274-.034-.4.123-.53.14-.115.448-.198.25-.474-.17-.237-.443-.283-.703-.171-.17.073-.312.216-.46.334-.203.163-.398.322-.429-.12-.017-.251-.167-.369-.401-.407-.448-.072-.608-.323-.53-.776.044-.254.037-.535-.19-.732-.133-.116-.317-.26-.469-.153-.513.361-.522.043-.559-.351-.015-.153-.036-.432-.217-.44-.233-.01-.215.275-.272.443-.172.499-.088.943.32 1.304.344.304.623.662.832 1.068.1.194.209.24.417.179.387-.113.589.124.721.441.064.155.065.328-.091.426-.194.12-.283-.017-.341-.185-.022-.063-.085-.172-.123-.13-.332.375-.57.077-.843-.087-.097-.057-.251-.06-.344.043-.078.086-.043.204-.002.297.107.239.222.475.343.707.125.241.188.479.083.751-.059.156-.111.332.085.465.112.075.156.209.048.316-.124.121-.224-.014-.319-.075-.192-.122-.374-.257-.605-.299-.287-.054-.518-.023-.595.322-.084.378-.2.647-.655.297-.281-.217-.512.009-.727.21-.104.096-.197.299-.383.201-.165-.087-.041-.249-.031-.379.053-.714-.147-1.051-.802-1.362-.553-.262-.76-.149-.829.445-.016.137-.033.296-.25.234-.466-.135-.379.213-.369.45.018.451.304.815.439 1.229.048.147.178.3 0 .421-.152.103-.347.094-.492-.022-.169-.135-.352-.223-.554-.287-.203-.065-.423-.137-.584.039-.161.177-.113.425.011.589.217.286.205.495-.091.697-.127.086-.15.22-.15.37-.002.491-.191.428-.491.18-.219-.183-.412-.427-.764-.395-.403.038-.681.171-.651.631.029.431-.209.435-.496.298-.336-.16-.648-.13-.937.074-.158.112-.182.298-.092.475.176.345.414.579.848.573.299-.005.557-.009.669-.35.047-.144.154-.253.315-.211.15.04.237.182.199.327-.055.204-.075.353.2.34.217-.01.5.05.54-.271.053-.452.21-.34.437-.119.224.219.502.363.81.249.275-.103.244-.388.259-.634.016-.261.096-.455.429-.318.25.104.441.005.576-.218.073-.119.163-.179.304-.104.137.073.147.172.091.307-.214.51.116.696.511.834.327.115.53.012.509-.352-.022-.38.056-.547.458-.329.302.163.49-.035.657-.253.168-.219.292-.484.632-.494.269-.008.158-.217.153-.356-.048-1.332 1.329-2.4 2.189-2.268.674.105 1.254.399 1.712.924.378.433 1.689.498 2.103.123.144-.131.092-.251-.014-.359-.195-.201-.4-.391-.596-.591-.078-.081-.233-.143-.173-.286.068-.162.201-.066.318-.044.135.025.274.02.472.032-.171-.33-.444-.48-.671-.673-.08-.066-.188-.137-.134-.253.063-.14.182-.108.314-.073.528.145 1.053.324 1.686.204-.427-.437-.873-.66-1.419-.682-.111-.005-.27.055-.293-.129-.023-.166.122-.205.239-.219.244-.029.493-.11.52-.359.029-.276-.252-.397-.457-.519-.391-.23-.794-.41-1.224-.01" fill="#15ab4a" transform="translate(43.802 19.788)"/><path d="m0 4.569c.174.069.477-.032.659-.163-.196-.234-.448-.447-.761-.448.041-.249.368-.345.587-.441-.271-.405.02-.338.119-.702.067-.253.223-.105.058-.384-.16-.269-.417-.188-.622-.111-.237.091-.435.599-.694.608-.606.023.038-.561.102-.719-.601-.548-.438.105-.804.226-.438.144-.788-.616-.729-1.026.252.3.606.356.981.301.042-.27.453-.862.016-.932-.128-.847.664.316.772.443.346-.211.433-.726.811-.922.192.335-.423.664-.486 1.024.461.228.92-.273 1.471.13.739.538.121.473-.227.811.187.391.862.294 1.156.651-.399-.083-.946-.303-1.356-.256-.377.367-.085.702.301.912-.546-.032-.617.374-.427.781-.073.032-.164.138-.214.162" fill="#bed730" transform="translate(43.411 15.115)"/><path d="m0 7.089c-.632-.608-1.401-1.078-2.04-1.687-.762-.726-1.512-1.685-2.615-1.983.071.144.122.332.209.469-.474-.269-.812-.329-1.363-.299-.012.275-.021.556.102.806-.577-.02-1.355-.668-1.909-.875-.469-.176-.952-.284-1.361-.586 1.143-.443-.383-.97-.877-1.15-1.005-.365-2.022-.553-3.07-.724-1.152-.189-2.705-.679-3.834-.327 2.679-.733 5.783-.014 8.262.971 1.213.482 2.5.656 3.672 1.26 1.026.528 1.977 1.186 2.905 1.881.44.329.864.659 1.192 1.095.249.33.451.772.727 1.04" fill="#ffcf54" transform="translate(35.957 5.305)"/><path d="m0 9.217c-.051-1.373-1.311-3.007-2.344-3.786-1.245-.938-2.921-1.115-4.398-1.49-1.496-.38-3.136-.455-4.55-1.04-1.476-.611-2.187-1.644-3.102-2.901.774.849 1.691 1.969 2.77 2.433 1.311.565 2.764.472 4.156.602 1.535.143 3.584.259 4.947 1.042.953.547 1.71 1.594 2.192 2.564.21.42.425.912.491 1.37.064.442-.158.879-.162 1.206" fill="#ffcf54" transform="translate(25.268 11.235)"/><path d="m0 4.271c-.567-.683-1.548-.979-2.291-.39.128-1.851-3.952-1.622-4.999-1.749-1.552-.189-2.803-.995-3.818-2.132.749.813 2.267 1.295 3.316 1.53.996.223 2.003.254 3.023.327 1.722.125 4.165.551 4.824 2.359" fill="#ffcf54" transform="translate(37.766 13.221)"/></svg>