<svg clip-rule="evenodd" fill-rule="evenodd" stroke-linejoin="round" stroke-miterlimit="2" viewBox="0 0 47 23" xmlns="http://www.w3.org/2000/svg"><g fill-rule="nonzero"><path d="m0 8.398c-.025-.068-.051-.136-.077-.204-.289.115-.578.229-.866.343.022.06.044.119.067.179zm-12.896 1.295c-.004.035-.007.07-.011.104h1.359v-.104zm9.978-.46c-.008-.071-.016-.142-.024-.213-2.568.187-5.136.375-7.703.562.004.094.008.188.012.282 1.086 0 2.179.078 3.256-.019 1.492-.135 2.973-.401 4.459-.612m-15.9-.154c-2.502.079-4.655-.78-6.982-1.917.758 1.255 1.564 1.963 2.717 2.083 1.316.137 2.643.172 3.966.238.048.002.103-.133.299-.404m21.334-7.478c-2.163 1.522-4.513 2.124-6.876 2.209-3.8.135-7.612-.087-11.418-.148-.666-.011-1.334.004-1.997.054-1.329.102-2.642.109-3.951-.222-.966-.244-1.953-.415-2.938-.576-.244-.041-.515.082-.828.139.775.951 1.475 1.322 2.577 1.383.902.049 1.808.041 2.707.117 1.607.136 3.208.374 4.816.461 1.568.085 3.144.013 4.716.046 2.326.049 4.659.263 6.977.153 1.736-.082 3.471-.49 5.173-.896.869-.207 1.584-.823 2.114-1.751-.337-.305-.674-.609-1.072-.969m-.586-1.493c-.074-.073-.147-.145-.221-.217-3.184 1.347-6.544 1.612-9.931 1.692-1.525.036-3.051.033-4.577.034-3.816.003-7.623-.052-11.308-1.271-.929-.306-1.913-.384-3.032.074.291.324.428.621.639.69 1.444.471 2.882 1.004 4.366 1.299 1.246.247 2.551.222 3.831.28 2.661.118 5.323.238 7.986.303 1.329.032 2.672-.176 3.99-.058 2.105.188 4.077-.268 6.01-.963.703-.253 1.335-.729 1.957-1.164.174-.122.197-.46.29-.699m-28.053 4.679c-.075.084-.151.169-.227.253.335.309.624.704 1.013.909 1.054.552 2.104 1.248 3.238 1.479 2.372.482 4.79.821 7.205.992 2.228.158 4.478.031 6.718.01 3.022-.028 5.976-.488 8.824-1.518.979-.354 1.935-.782 2.446-2.063-.655.168-1.153.263-1.629.424-1.868.633-3.784.967-5.755.926-3.942-.082-7.883-.184-11.825-.28-.714-.018-1.428-.043-2.142-.076-1.518-.07-3.041-.259-4.552-.186-1.23.059-2.356.045-3.314-.87m14.855-4.167c.842 0 1.649-.029 2.454.006 3.516.151 6.937-.282 10.188-1.691.644-.279 1.291-.641 1.804-1.11.773-.707.724-1.413-.137-2.004-.691-.474-1.463-.907-2.263-1.134-3.087-.88-6.296-1.061-9.465-1.186-3.505-.138-7.03-.008-10.493.887-2.123.549-4.273.964-6.257 1.934-1.205.589-1.329 1.69-.253 2.412.384.258.858.405 1.311.534 4.301 1.223 8.689 1.633 13.111 1.352m-21.409 8.56c.225.33.348.718.603.85 1.641.844 3.285 1.697 4.984 2.413.953.401 2.008.576 3.028.802 1.529.34 3.059.847 4.604.911 4.667.193 9.342.246 14.014.266 1.371.006 2.802-.084 4.103-.474 2.911-.875 5.774-1.924 8.621-2.993.962-.362 1.886-.911 2.705-1.535 1.037-.789 1.037-1.315.103-2.206-1.616-1.542-3.735-1.86-5.784-2.433-.202.565-.393.958-.481 1.372-.369 1.736-1.517 2.648-3.14 3.143-3.214.98-6.534 1.402-9.855 1.473-4.046.087-8.1-.154-12.15-.283-2.165-.068-4.147-.595-5.501-2.49-.761-1.064-1.861-1.104-2.957-.819-1.119.291-2.088.903-2.897 2.003m5.23-6.787c-1.27-1.278-1.37-1.706-.575-3.024.244-.404.201-.673.07-1.042-.275-.771-.027-1.454.586-1.907.642-.474 1.351-.9 2.092-1.189 2.54-.99 5.219-1.442 7.879-1.991 2.549-.525 5.088-.45 7.649-.328 1.277.061 2.562-.013 3.836.08 2.186.16 4.385.289 6.54.656 1.138.193 2.248.768 3.275 1.341 1.235.689 1.335 1.903.397 3.001-.992 1.16-.992 1.16-.813 2.515 1.662.92 1.796 1.212 1.366 3.225.35.138.72.301 1.103.432 1.124.387 2.271.716 3.375 1.154.936.371 1.77.906 2.292 1.844.538.967.521 2.01-.482 2.762-1.394 1.045-2.874 1.808-4.545 2.322-2.093.643-4.137 1.45-6.183 2.236-1.728.662-3.548.699-5.346.84-1.851.145-3.728.323-5.569.178-3.846-.304-7.722.185-11.554-.605-3.51-.723-6.904-1.722-10.094-3.365-.967-.497-1.913-1.146-1.831-2.338.068-1.01.927-1.606 1.8-2.067 1.01-.532 2.015-1.072 3.014-1.621.203-.112.528-.284.529-.431.008-1.05.606-1.854 1.189-2.678" fill="#231f20" transform="translate(34.78 7.229812)"/><path d="m0-.849c.809-1.101 1.778-1.712 2.896-2.003 1.097-.286 2.197-.246 2.958.819 1.354 1.894 3.335 2.421 5.501 2.49 4.05.129 8.103.37 12.15.283 3.321-.071 6.641-.493 9.855-1.473 1.622-.495 2.771-1.408 3.14-3.143.088-.414.279-.807.481-1.372 2.049.572 4.168.891 5.784 2.433.934.89.934 1.417-.103 2.206-.819.623-1.744 1.173-2.705 1.534-2.848 1.07-5.71 2.119-8.622 2.994-1.3.39-2.731.48-4.103.474-4.671-.02-9.346-.073-14.013-.266-1.545-.064-3.075-.571-4.604-.911-1.02-.227-2.075-.401-3.028-.802-1.699-.717-3.343-1.569-4.984-2.413-.255-.132-.378-.52-.603-.85" fill="#b7d880" transform="translate(2.1027 17.258812)"/><g fill="#fff2ad"><path d="m0-1.611c-.331-.705-.778-.906-1.577-.737-.513.108-1.027.268-.797 1.128.767-.126 1.492-.245 2.374-.391m-4.979 1.43c-.536-.165-.916-.396-1.272-.365-.497.044-1.003.234-1.448.47-.146.078-.164.496-.14.749.009.103.341.296.434.252.725-.343 1.656-.226 2.426-1.106m8.18 2.863c-4.423.282-8.81-.128-13.112-1.352-.452-.128-.926-.276-1.311-.534-1.075-.721-.951-1.823.253-2.411 1.985-.971 4.135-1.386 6.258-1.934 3.462-.896 6.987-1.026 10.493-.888 3.169.125 6.378.306 9.465 1.186.799.227 1.571.66 2.263 1.134.861.591.91 1.297.136 2.005-.512.469-1.16.831-1.803 1.109-3.251 1.409-6.672 1.842-10.189 1.691-.804-.035-1.612-.006-2.453-.006" transform="translate(20.3107 5.167812)"/><path d="m0-3.791c.958.915 2.084.929 3.313.87 1.511-.073 3.034.116 4.552.186.714.032 1.428.058 2.142.075 3.942.097 7.884.199 11.826.281 1.971.041 3.887-.293 5.754-.926.476-.161.975-.256 1.629-.424-.511 1.281-1.466 1.709-2.445 2.063-2.849 1.03-5.802 1.49-8.824 1.518-2.24.021-4.49.148-6.718-.01-2.416-.171-4.833-.51-7.205-.992-1.135-.231-2.185-.927-3.238-1.479-.39-.205-.679-.6-1.014-.909.077-.085.152-.169.228-.253" transform="translate(8.6569 15.807812)"/><path d="m0-2.797c-.092.239-.115.577-.29.699-.622.435-1.254.911-1.957 1.164-1.932.695-3.904 1.151-6.01.963-1.317-.118-2.66.091-3.99.058-2.663-.065-5.324-.185-7.985-.303-1.281-.058-2.585-.033-3.832-.28-1.483-.295-2.921-.828-4.365-1.299-.212-.069-.349-.366-.64-.69 1.12-.458 2.103-.38 3.032-.074 3.685 1.219 7.492 1.274 11.308 1.271 1.526-.001 3.053.002 4.578-.034 3.386-.08 6.747-.345 9.93-1.692.074.072.147.144.221.217" transform="translate(36.709 10.134812)"/><path d="m0-3.726c.397.359.735.664 1.072.969-.53.928-1.245 1.544-2.114 1.751-1.702.405-3.437.814-5.173.896-2.318.11-4.651-.104-6.977-.153-1.572-.033-3.148.038-4.716-.046-1.609-.087-3.209-.325-4.816-.461-.899-.076-1.805-.068-2.707-.118-1.102-.06-1.802-.431-2.577-1.382.313-.058.584-.18.828-.14.985.162 1.972.333 2.938.577 1.309.331 2.622.324 3.95.222.664-.051 1.332-.065 1.998-.054 3.806.061 7.618.283 11.418.147 2.363-.084 4.713-.686 6.876-2.208" transform="translate(37.296 12.556812)"/></g><path d="m-4.382-2.703c-.263.207-.396.266-.392.314.118 1.32.204 2.645.392 3.955.166 1.147.905 1.925 2.189 2.632-1.227-2.28-2.17-4.399-2.189-6.901" fill="#fff" transform="matrix(-.0391259 -.999234 -.999234 .0391259 13.089 12.035812)"/><path d="m0-.495c-1.486.21-2.966.477-4.459.611-1.077.097-2.169.019-3.255.019-.004-.094-.009-.188-.013-.282 2.568-.187 5.136-.374 7.704-.561.007.071.015.142.023.213" fill="#fff2ad" transform="translate(31.861 16.957812)"/><path d="m0-.104h1.349c-.001.035-.001.069-.001.104h-1.359c.004-.035.008-.069.011-.104" fill="#fff" transform="translate(21.883 17.026812)"/><path d="m-.484-.532c-.062.305-.124.609-.187.913.063.014.125.027.187.04.071-.301.142-.604.213-.906-.071-.016-.142-.032-.213-.047" fill="#fff2ad" transform="matrix(-.145826 -.98931 -.98931 .145826 34.183 15.226812)"/><path d="m0-.753c-.769.879-1.701.763-2.426 1.105-.093.044-.424-.148-.434-.251-.024-.253-.006-.671.141-.749.445-.236.95-.426 1.447-.47.357-.031.737.2 1.272.365" fill="#231f20" transform="translate(15.3312 5.739812)"/><path d="m0 .515c-.882.146-1.607.265-2.374.391-.23-.86.284-1.02.797-1.128.799-.169 1.246.032 1.577.737" fill="#231f20" transform="translate(20.3107 3.041812)"/></g></svg>