<?xml version="1.0" encoding="UTF-8" standalone="no"?>
<!DOCTYPE svg PUBLIC "-//W3C//DTD SVG 1.1//EN" "http://www.w3.org/Graphics/SVG/1.1/DTD/svg11.dtd">
<svg width="100%" height="100%" viewBox="0 0 210 188" version="1.1" xmlns="http://www.w3.org/2000/svg" xmlns:xlink="http://www.w3.org/1999/xlink" xml:space="preserve" xmlns:serif="http://www.serif.com/" style="fill-rule:evenodd;clip-rule:evenodd;stroke-linecap:round;stroke-linejoin:round;stroke-miterlimit:10;">
    <g transform="matrix(1,0,0,1,-26572.5,-3272.84)">
        <g transform="matrix(5.55556,0,0,5.55556,25423.2,0)">
            <g transform="matrix(1,0,0,1,221.608,619.59)">
                <path d="M0,-29.003C-7.544,-27.16 -18.621,-12.354 -12.414,-4.391C-6.207,3.571 -1.504,3.946 1.633,1.038C4.771,-1.87 13.581,-6.507 17.314,-5.477C21.047,-4.446 24.5,-15.249 21.234,-19.593C17.967,-23.936 16.156,-32.949 0,-29.003" style="fill:rgb(133,75,117);fill-rule:nonzero;"/>
            </g>
        </g>
        <g transform="matrix(5.55556,0,0,5.55556,25423.2,0)">
            <g transform="matrix(1,0,0,1,221.608,619.59)">
                <path d="M0,-29.003C-7.544,-27.16 -18.621,-12.354 -12.414,-4.391C-6.207,3.571 -1.504,3.946 1.633,1.038C4.771,-1.87 13.581,-6.507 17.314,-5.477C21.047,-4.446 24.5,-15.249 21.234,-19.593C17.967,-23.936 16.156,-32.949 0,-29.003Z" style="fill:none;fill-rule:nonzero;stroke:rgb(97,52,86);stroke-width:1px;"/>
            </g>
        </g>
        <g transform="matrix(5.55556,0,0,5.55556,25423.2,0)">
            <g opacity="0.3">
                <g transform="matrix(1,0,0,1,222.136,617.53)">
                    <path d="M0,-24.991C-6.585,-23.382 -16.254,-10.457 -10.836,-3.507C-5.418,3.445 -1.96,2.831 0.779,0.293C3.518,-2.246 12.874,-7.031 16.133,-6.132C19.392,-5.232 21.388,-12.985 18.536,-16.776C15.684,-20.567 14.103,-28.436 0,-24.991" style="fill:white;fill-rule:nonzero;"/>
                </g>
            </g>
        </g>
        <g transform="matrix(5.55556,0,0,5.55556,25423.2,0)">
            <g opacity="0.25">
                <g transform="matrix(1,0,0,1,223.816,610.616)">
                    <path d="M0,-15.869C-4.164,-14.851 -12.807,-6.612 -9.38,-2.218C-5.955,2.178 -1.679,-1.218 0.053,-2.823C1.785,-4.429 7.436,-5.398 11.127,-5.398C13.25,-5.398 15.391,-8.454 13.588,-10.851C11.785,-13.249 8.917,-18.047 0,-15.869" style="fill:white;fill-rule:nonzero;"/>
                </g>
            </g>
        </g>
        <g transform="matrix(5.55556,0,0,5.55556,25423.2,0)">
            <text x="218.826px" y="608.64px" style="font-family:'LucidaGrande-Bold', 'Lucida Grande', sans-serif;font-weight:600;font-size:11.903px;fill:white;">2<tspan x="225.432px " y="608.64px ">0</tspan></text>
        </g>
    </g>
</svg>
