<?xml version="1.0" encoding="UTF-8" standalone="no"?>
<!DOCTYPE svg PUBLIC "-//W3C//DTD SVG 1.1//EN" "http://www.w3.org/Graphics/SVG/1.1/DTD/svg11.dtd">
<svg width="100%" height="100%" viewBox="0 0 209 188" version="1.1" xmlns="http://www.w3.org/2000/svg" xmlns:xlink="http://www.w3.org/1999/xlink" xml:space="preserve" xmlns:serif="http://www.serif.com/" style="fill-rule:evenodd;clip-rule:evenodd;stroke-linecap:round;stroke-linejoin:round;stroke-miterlimit:10;">
    <g transform="matrix(1,0,0,1,-26958.8,-2813.67)">
        <g transform="matrix(5.55556,0,0,5.55556,25423.2,0)">
            <g transform="matrix(1,0,0,1,282.313,532.1)">
                <path d="M0,-20.416C-6.179,-16.066 -8.712,0.509 1.493,4.912C11.698,9.315 16.373,7.887 17.785,4.274C19.197,0.662 25.071,-6.51 29.177,-7.026C33.285,-7.544 30.732,-17.921 25.279,-20.366C19.825,-22.812 13.232,-29.731 0,-20.416" style="fill:rgb(133,75,117);fill-rule:nonzero;"/>
            </g>
        </g>
        <g transform="matrix(5.55556,0,0,5.55556,25423.2,0)">
            <g transform="matrix(1,0,0,1,282.313,532.1)">
                <path d="M0,-20.416C-6.179,-16.066 -8.712,0.509 1.493,4.912C11.698,9.315 16.373,7.887 17.785,4.274C19.197,0.662 25.071,-6.51 29.177,-7.026C33.285,-7.544 30.732,-17.921 25.279,-20.366C19.825,-22.812 13.232,-29.731 0,-20.416Z" style="fill:none;fill-rule:nonzero;stroke:rgb(97,52,86);stroke-width:1px;"/>
            </g>
        </g>
        <g transform="matrix(5.55556,0,0,5.55556,25423.2,0)">
            <g opacity="0.3">
                <g transform="matrix(1,0,0,1,284.288,530.438)">
                    <path d="M0,-16.655C-5.419,-12.897 -7.72,0.697 1.081,4.373C9.882,8.049 12.084,6.698 13.356,3.605C14.628,0.512 20.639,-6.736 24.21,-7.209C27.781,-7.682 26.104,-14.409 21.402,-16.453C16.7,-18.496 11.604,-24.704 0,-16.655" style="fill:white;fill-rule:nonzero;"/>
                </g>
            </g>
        </g>
        <g transform="matrix(5.55556,0,0,5.55556,25423.2,0)">
            <g opacity="0.25">
                <g transform="matrix(1,0,0,1,289.134,517.083)">
                    <path d="M0,10.65C2.691,12.131 5.915,13.165 8.476,9.242C11.037,5.318 15.902,-0.09 13.797,-0.588C11.854,-1.049 3.478,-2.371 1.772,-2.448C0.293,-2.515 -3.561,-1.076 -3.561,1.424C-3.562,4.44 -4.22,8.326 0,10.65" style="fill:white;fill-rule:nonzero;"/>
                </g>
            </g>
        </g>
        <g transform="matrix(5.55556,0,0,5.55556,25423.2,0)">
            <text x="287.493px" y="527.019px" style="font-family:'LucidaGrande-Bold', 'Lucida Grande', sans-serif;font-weight:600;font-size:11.903px;fill:white;">8<tspan x="294.099px " y="527.019px ">0</tspan></text>
        </g>
    </g>
</svg>
