<?xml version="1.0" encoding="UTF-8" standalone="no"?><!DOCTYPE svg PUBLIC "-//W3C//DTD SVG 1.1//EN" "http://www.w3.org/Graphics/SVG/1.1/DTD/svg11.dtd"><svg width="100%" height="100%" viewBox="0 0 34 25" version="1.1" xmlns="http://www.w3.org/2000/svg" xmlns:xlink="http://www.w3.org/1999/xlink" xml:space="preserve" xmlns:serif="http://www.serif.com/" style="fill-rule:evenodd;clip-rule:evenodd;stroke-linejoin:round;stroke-miterlimit:2;"><g><path d="M9.778,15.522c0.254,-0.073 0.373,-0.083 0.462,-0.139c0.081,-0.054 0.2,-0.207 0.184,-0.229c-0.073,-0.1 -0.181,-0.226 -0.29,-0.239c-0.395,-0.046 -0.795,-0.044 -1.192,-0.075c-0.197,-0.015 -0.541,-0.133 -0.566,-0.083c-0.165,0.343 0.167,0.446 0.378,0.52c0.37,0.131 0.767,0.187 1.024,0.245m-0.08,-3.533c-0.095,-0.453 -0.288,-0.673 -0.638,-0.583c-0.27,0.07 -0.559,0.195 -0.761,0.381c-0.337,0.312 -0.29,1.023 0.027,1.294c0.295,0.251 0.82,0.091 1.104,-0.384c0.144,-0.242 0.205,-0.535 0.268,-0.708m3.062,1.113c-0.025,-0.553 -0.349,-0.904 -0.79,-0.856c-0.434,0.047 -0.672,0.454 -0.656,1.118c0.011,0.5 0.384,0.914 0.786,0.872c0.402,-0.043 0.689,-0.533 0.66,-1.134m-2.307,5.603c-2.307,0.458 -4.622,-0.634 -5.509,-2.585c-0.403,-0.885 -0.307,-1.821 0.124,-2.666c0.298,-0.58 0.682,-1.155 1.153,-1.6c1.235,-1.166 2.576,-2.217 4.312,-2.531c1.679,-0.304 3.222,0.122 4.559,1.139c1.082,0.825 1.44,2.025 1.288,3.347c-0.228,1.968 -1.283,3.397 -2.992,4.369c-0.331,0.188 -0.548,0.154 -0.667,-0.232c-0.044,-0.139 -0.125,-0.267 -0.17,-0.406c-0.263,-0.827 -1.264,-1.216 -2.296,-0.452c-0.496,0.368 -0.488,0.735 -0.037,1.265c0.07,0.081 0.12,0.177 0.235,0.352" style="fill:#a87b50;fill-rule:nonzero;"/><path d="M14.281,18.254c0.299,-0.303 0.459,-0.488 0.642,-0.645c1.759,-1.515 2.357,-3.405 1.834,-5.656c-0.049,-0.212 -0.135,-0.42 -0.233,-0.616c-0.904,-1.818 -2.895,-2.762 -4.917,-2.667c-2.242,0.106 -4.021,1.065 -5.647,2.466c-0.383,0.329 -0.709,0.726 -1.076,1.108c-0.367,-0.881 -0.344,-1.37 0.219,-1.782c0.365,-0.268 0.518,-0.578 0.631,-0.979c0.149,-0.535 0.412,-0.944 1.101,-0.81c0.159,0.031 0.45,-0.094 0.526,-0.233c0.571,-1.026 1.583,-1.561 2.543,-2.006c0.777,-0.36 1.745,-0.56 2.664,-0.088c0.263,0.135 0.651,0.165 0.942,0.089c0.877,-0.228 1.676,0.111 2.49,0.286c0.264,0.056 0.642,0.394 0.662,0.629c0.064,0.78 0.661,1.193 1.14,1.533c0.663,0.468 0.826,1.023 0.725,1.694c-0.063,0.421 0.039,0.707 0.285,1.006c0.115,0.139 0.19,0.313 0.275,0.476c0.304,0.581 0.332,1.13 -0.221,1.591c-0.373,0.312 -0.351,0.624 -0.172,1.07c0.502,1.249 0.253,1.658 -1.046,2.129c-0.363,0.132 -0.699,0.385 -0.996,0.639c-0.638,0.549 -1.342,0.819 -2.371,0.766" style="fill:#84493f;fill-rule:nonzero;"/><path d="M27.62,6.663c0.237,0.919 -0.013,1.595 -0.66,2.154c-0.305,0.264 -0.603,0.545 -0.85,0.861c-0.541,0.692 -1.05,1.384 -1.899,1.769c-0.38,0.172 -0.808,0.517 -0.948,0.884c-0.337,0.887 -1.091,1.178 -1.833,1.446c-0.566,0.204 -1.076,0.428 -1.502,0.858c-0.092,0.093 -0.37,0.145 -0.441,0.082c-0.116,-0.105 -0.144,-0.317 -0.184,-0.49c-0.013,-0.055 0.041,-0.143 0.088,-0.195c0.765,-0.836 0.452,-1.707 0.053,-2.556c-0.344,-0.734 -0.382,-0.899 0.26,-1.389c1.49,-1.136 2.982,-2.279 4.548,-3.305c0.721,-0.473 1.61,-0.704 2.439,-0.998c0.669,-0.238 0.704,-0.194 0.872,0.529c0.033,0.143 0.047,0.29 0.057,0.35" style="fill:#a87b50;fill-rule:nonzero;"/><path d="M25.14,3.073c-2.568,1.226 -4.752,2.841 -6.774,4.688c-0.389,0.354 -0.734,0.334 -0.96,-0.117c-0.246,-0.487 -0.322,-1.065 -0.829,-1.403c-0.044,-0.029 -0.021,-0.209 0.021,-0.296c0.045,-0.094 0.139,-0.171 0.226,-0.237c1.817,-1.41 3.736,-2.61 5.974,-3.275c0.608,-0.18 1.064,-0.11 1.557,0.168c0.248,0.14 0.489,0.294 0.785,0.472" style="fill:#a87b50;fill-rule:nonzero;"/><path d="M27.08,4.987c-3.201,0.743 -5.43,2.87 -7.784,4.758c-0.096,-0.068 -0.173,-0.095 -0.205,-0.149c-0.746,-1.242 -0.776,-1.284 0.416,-2.154c1.572,-1.146 3.15,-2.296 4.814,-3.301c1.501,-0.908 1.647,-0.798 2.759,0.846" style="fill:#84493f;fill-rule:nonzero;"/><path d="M10.4,5.769c0.27,-0.726 0.808,-0.995 1.296,-1.295c2.185,-1.339 4.429,-2.536 7.08,-2.732c-0.246,0.142 -0.482,0.308 -0.74,0.424c-1.677,0.748 -3.065,1.862 -4.228,3.272c-0.45,0.545 -0.455,0.51 -1.185,0.298c-0.339,-0.099 -0.715,-0.104 -1.073,-0.099c-0.351,0.005 -0.701,0.077 -1.15,0.132" style="fill:#a87b50;fill-rule:nonzero;"/><path d="M24.418,18.294c-0.088,0.794 -0.095,1.575 -0.276,2.311c-0.227,0.922 -0.588,1.813 -0.915,2.709c-0.072,0.198 -0.205,0.427 -0.377,0.522c-0.195,0.107 -0.464,0.079 -0.701,0.111c0.008,-0.197 -0.038,-0.417 0.033,-0.588c0.641,-1.545 0.732,-3.12 0.298,-4.728c-0.162,-0.599 0.17,-1.41 0.731,-1.613c0.163,-0.059 0.488,0 0.576,0.122c0.251,0.343 0.418,0.747 0.631,1.154" style="fill:#a87b50;fill-rule:nonzero;"/><path d="M14.236,5.686c1.143,-1.293 2.359,-2.268 3.82,-2.926c0.602,-0.27 1.21,-0.526 1.811,-0.799c1.068,-0.484 1.066,-0.488 2.387,-0.161c-0.165,0.139 -0.265,0.275 -0.399,0.329c-2.129,0.86 -4.109,1.953 -5.75,3.588c-0.258,0.256 -0.527,0.361 -0.891,0.22c-0.27,-0.103 -0.562,-0.148 -0.978,-0.251" style="fill:#84493f;fill-rule:nonzero;"/><path d="M1.431,12.607c0.611,0.679 0.773,1.27 0.585,2.089c-0.258,1.128 -0.279,2.311 -0.407,3.471c-0.049,0.444 -0.237,0.624 -0.597,0.574c-0.383,-0.053 -0.443,-0.313 -0.415,-0.643c0.125,-1.49 0.223,-2.986 0.381,-4.472c0.036,-0.33 0.278,-0.639 0.453,-1.019" style="fill:#a87b50;fill-rule:nonzero;"/><path d="M22.045,17.651c-0.748,-0.42 -1.456,-0.79 -2.132,-1.21c-0.44,-0.273 -0.418,-0.854 -0.002,-1.184c1.001,-0.794 1.06,-0.802 2.033,0.035c0.383,0.328 0.723,0.704 1.083,1.059c-0.324,0.427 -0.646,0.856 -0.982,1.3" style="fill:#84493f;fill-rule:nonzero;"/><path d="M23.405,12.83c0.544,-0.836 1.261,-1.214 2.004,-1.523c0.767,-0.319 2.261,0.214 2.661,0.9c0.047,0.079 0.061,0.243 0.012,0.3c-0.214,0.247 -0.442,0.488 -0.697,0.691c-0.074,0.058 -0.269,0.01 -0.385,-0.041c-1.681,-0.735 -1.782,-0.748 -3.595,-0.327" style="fill:#84493f;fill-rule:nonzero;"/><path d="M28.736,18.565c-0.372,-0.313 -0.3,-0.694 -0.286,-1.047c0.051,-1.225 0.023,-2.425 -0.692,-3.506c-0.08,-0.122 -0.018,-0.443 0.093,-0.561c0.189,-0.197 0.464,-0.316 0.718,-0.437c0.039,-0.019 0.198,0.109 0.231,0.197c0.614,1.656 0.944,3.332 0.232,5.048c-0.049,0.119 -0.19,0.2 -0.296,0.306" style="fill:#a87b50;fill-rule:nonzero;"/><path d="M4.984,9.892c-0.613,-1.376 -0.157,-3.292 1.059,-4.731c0.176,0.184 0.337,0.37 0.517,0.537c0.317,0.291 0.339,0.549 0.108,0.952c-0.578,1.009 -1.079,2.064 -1.684,3.242" style="fill:#a87b50;fill-rule:nonzero;"/><path d="M4.172,16.047c-0.019,0.063 -0.019,0.378 -0.174,0.504c-0.587,0.479 -0.769,1.131 -0.906,1.818c-0.022,0.106 -0.038,0.229 -0.101,0.308c-0.084,0.105 -0.207,0.237 -0.321,0.244c-0.107,0.006 -0.274,-0.107 -0.327,-0.213c-0.552,-1.075 0.152,-2.907 1.263,-3.323c0.31,-0.117 0.453,0.009 0.566,0.662" style="fill:#84493f;fill-rule:nonzero;"/><path d="M10.535,17.559c1.046,-0.593 1.437,-0.423 1.638,0.699c0.184,1.014 -0.1,1.881 -0.814,2.604c-0.1,0.101 -0.31,0.093 -0.468,0.134c-0.029,-0.135 -0.062,-0.269 -0.085,-0.405c-0.006,-0.033 0.012,-0.072 0.025,-0.106c0.205,-0.504 0.531,-0.995 0.319,-1.568c-0.173,-0.465 -0.407,-0.906 -0.615,-1.358" style="fill:#84493f;fill-rule:nonzero;"/><path d="M32.686,13.513c-0.204,-0.458 -0.348,-0.783 -0.494,-1.107c-0.331,-0.736 -0.636,-1.485 -1.003,-2.203c-0.201,-0.396 -0.054,-0.643 0.238,-0.838c0.111,-0.074 0.42,-0.067 0.466,0.008c0.704,1.177 1.251,2.406 1.052,3.832c-0.009,0.06 -0.09,0.11 -0.259,0.308" style="fill:#a87b50;fill-rule:nonzero;"/><path d="M6.616,4.653c1.084,-0.326 2.027,-0.109 2.951,0.296c0.241,0.106 0.29,0.29 0.173,0.543c-0.277,0.594 -0.573,0.751 -1.228,0.531c-0.582,-0.193 -1.258,-0.228 -1.63,-0.833c-0.09,-0.145 -0.153,-0.306 -0.266,-0.537" style="fill:#84493f;fill-rule:nonzero;"/><path d="M27.486,9.232c0.501,-0.525 1.07,-0.885 1.735,-1.123c0.775,-0.277 1.433,-0.214 2.01,0.537c-0.14,0.202 -0.272,0.451 -0.462,0.646c-0.104,0.107 -0.348,0.211 -0.455,0.161c-0.915,-0.429 -1.857,-0.27 -2.828,-0.221" style="fill:#84493f;fill-rule:nonzero;"/><path d="M15.977,1.6c-0.81,0.538 -1.608,0.555 -2.454,0.366c-0.417,-0.094 -0.513,-0.348 -0.542,-0.695c-0.031,-0.394 0.243,-0.48 0.55,-0.529c0.965,-0.153 1.737,0.204 2.446,0.858" style="fill:#84493f;fill-rule:nonzero;"/><path d="M12.261,1.188c0.263,0.434 0.544,0.695 0.351,1.182c-0.315,0.797 -0.575,1.607 -1.694,1.732c0.037,-1.144 0.453,-2.073 1.343,-2.914" style="fill:#a87b50;fill-rule:nonzero;"/><path d="M3.038,11.63c0.99,-0.161 1.197,-0.062 1.201,0.524c0.002,0.169 -0.139,0.422 -0.285,0.493c-0.359,0.172 -0.767,0.242 -1.14,0.391c-0.446,0.18 -0.6,-0.118 -0.754,-0.417c-0.159,-0.309 -0.105,-0.592 0.224,-0.74c0.298,-0.134 0.624,-0.209 0.754,-0.251" style="fill:#84493f;fill-rule:nonzero;"/><path d="M12.76,13.102c0.028,0.6 -0.258,1.092 -0.66,1.134c-0.402,0.042 -0.775,-0.371 -0.787,-0.872c-0.016,-0.664 0.223,-1.071 0.656,-1.118c0.441,-0.048 0.765,0.304 0.791,0.856" style="fill:#231f20;fill-rule:nonzero;"/><path d="M9.698,11.989c-0.063,0.173 -0.124,0.465 -0.269,0.708c-0.282,0.475 -0.809,0.636 -1.102,0.384c-0.318,-0.271 -0.364,-0.982 -0.027,-1.294c0.201,-0.186 0.49,-0.311 0.761,-0.381c0.349,-0.09 0.542,0.13 0.637,0.583" style="fill:#231f20;fill-rule:nonzero;"/><path d="M9.778,15.522c-0.257,-0.058 -0.654,-0.114 -1.024,-0.245c-0.211,-0.074 -0.543,-0.177 -0.378,-0.52c0.025,-0.05 0.369,0.068 0.566,0.083c0.397,0.031 0.797,0.029 1.192,0.075c0.109,0.013 0.217,0.139 0.29,0.239c0.016,0.022 -0.103,0.175 -0.184,0.229c-0.089,0.056 -0.208,0.066 -0.462,0.139" style="fill:#231f20;fill-rule:nonzero;"/><g opacity="0.2"><path d="M11.255,6.673c-0.403,0.356 -0.809,0.752 -0.961,1.268c-0.153,0.515 0.054,1.176 0.566,1.341c-2.52,0.149 -4.845,2.026 -5.522,4.457c-0.112,0.399 -0.179,0.836 -0.019,1.218c0.271,0.65 1.062,0.878 1.754,1.003c1.817,0.327 3.662,0.492 5.507,0.492c-0.971,1.352 -2.635,2.177 -4.3,2.131c-1.664,-0.044 -3.281,-0.958 -4.177,-2.361c0.426,-1.145 0.596,-2.386 0.494,-3.604l-1.74,0.626c0.318,-1.21 1.406,-2.18 2.646,-2.355c-0.308,-0.138 -0.615,-0.276 -0.923,-0.413c0.669,-1.138 2.116,-1.492 3.213,-2.224c0.908,-0.607 1.607,-1.522 1.951,-2.558c-0.871,0.214 -1.782,0.265 -2.671,0.15c0.193,-1.052 1.409,-1.57 2.474,-1.663c1.066,-0.094 2.204,0.038 3.147,-0.467c-0.29,-0.213 -0.581,-0.426 -0.871,-0.64c2.497,-1.714 5.721,-1.824 8.641,-1.627c-3.374,1.237 -6.496,2.818 -9.209,5.226" style="fill:#3b2314;fill-rule:nonzero;"/></g><path d="M6.801,8.165c0.524,-0.536 0.962,-0.986 1.424,-1.459c-0.946,-0.342 -1.383,0.085 -1.424,1.459m-2.665,5.249c-1.307,-0.061 -1.745,0.47 -1.721,2.158c0.353,-0.258 0.648,-0.526 0.988,-0.712c0.592,-0.324 0.803,-0.803 0.733,-1.446m-1.098,-1.783c-0.13,0.041 -0.455,0.117 -0.755,0.251c-0.328,0.148 -0.382,0.43 -0.222,0.74c0.154,0.299 0.306,0.597 0.753,0.417c0.372,-0.149 0.781,-0.219 1.14,-0.391c0.146,-0.072 0.287,-0.325 0.286,-0.494c-0.005,-0.585 -0.212,-0.684 -1.202,-0.523m9.223,-10.443c-0.891,0.84 -1.306,1.77 -1.343,2.914c1.118,-0.125 1.379,-0.935 1.694,-1.732c0.193,-0.486 -0.088,-0.748 -0.351,-1.182m3.716,0.412c-0.709,-0.654 -1.482,-1.011 -2.447,-0.858c-0.306,0.049 -0.58,0.135 -0.549,0.529c0.029,0.347 0.125,0.602 0.542,0.695c0.846,0.189 1.644,0.173 2.454,-0.366m11.509,7.633c0.971,-0.049 1.913,-0.208 2.828,0.22c0.107,0.051 0.351,-0.054 0.455,-0.16c0.19,-0.195 0.322,-0.445 0.462,-0.647c-0.577,-0.751 -1.235,-0.813 -2.01,-0.536c-0.665,0.237 -1.234,0.598 -1.735,1.123m-20.871,-4.58c0.113,0.231 0.177,0.392 0.266,0.537c0.372,0.606 1.049,0.64 1.63,0.834c0.655,0.219 0.951,0.062 1.229,-0.532c0.117,-0.252 0.067,-0.437 -0.174,-0.543c-0.923,-0.404 -1.866,-0.622 -2.951,-0.296m26.07,8.861c0.169,-0.198 0.251,-0.249 0.26,-0.309c0.198,-1.425 -0.348,-2.655 -1.053,-3.831c-0.044,-0.075 -0.354,-0.082 -0.465,-0.008c-0.292,0.193 -0.44,0.441 -0.239,0.837c0.367,0.719 0.674,1.467 1.004,2.204c0.145,0.324 0.289,0.649 0.493,1.107m-22.149,4.046c0.207,0.451 0.442,0.893 0.615,1.357c0.212,0.574 -0.114,1.065 -0.319,1.568c-0.013,0.034 -0.031,0.073 -0.026,0.106c0.023,0.136 0.056,0.271 0.085,0.406c0.159,-0.042 0.369,-0.033 0.468,-0.134c0.714,-0.723 0.999,-1.59 0.815,-2.604c-0.201,-1.122 -0.592,-1.292 -1.638,-0.699m-6.364,-1.513c-0.113,-0.652 -0.257,-0.779 -0.566,-0.662c-1.111,0.416 -1.815,2.248 -1.265,3.323c0.055,0.106 0.222,0.219 0.329,0.213c0.113,-0.006 0.237,-0.138 0.321,-0.244c0.063,-0.079 0.079,-0.201 0.1,-0.308c0.138,-0.687 0.32,-1.338 0.907,-1.818c0.154,-0.126 0.154,-0.44 0.174,-0.504m0.812,-6.154c0.605,-1.179 1.106,-2.233 1.684,-3.242c0.231,-0.403 0.21,-0.661 -0.108,-0.953c-0.18,-0.166 -0.342,-0.352 -0.516,-0.536c-1.217,1.439 -1.674,3.355 -1.06,4.731m23.753,8.672c0.106,-0.107 0.247,-0.186 0.296,-0.305c0.712,-1.717 0.381,-3.392 -0.233,-5.05c-0.032,-0.087 -0.192,-0.215 -0.231,-0.197c-0.254,0.122 -0.529,0.24 -0.717,0.438c-0.112,0.118 -0.174,0.44 -0.093,0.562c0.714,1.079 0.742,2.28 0.691,3.505c-0.014,0.352 -0.086,0.733 0.287,1.047m-5.333,-5.735c1.814,-0.421 1.915,-0.409 3.595,0.327c0.118,0.051 0.313,0.099 0.386,0.041c0.255,-0.203 0.483,-0.443 0.697,-0.691c0.05,-0.057 0.034,-0.221 -0.012,-0.301c-0.4,-0.685 -1.893,-1.218 -2.662,-0.899c-0.741,0.309 -1.46,0.687 -2.004,1.523m-1.359,4.822c0.336,-0.444 0.659,-0.873 0.982,-1.3c-0.36,-0.355 -0.7,-0.731 -1.083,-1.06c-0.973,-0.836 -1.032,-0.828 -2.033,-0.034c-0.416,0.33 -0.438,0.911 0.002,1.184c0.677,0.42 1.385,0.79 2.132,1.21m-20.614,-5.045c-0.176,0.38 -0.418,0.689 -0.453,1.019c-0.158,1.486 -0.256,2.982 -0.382,4.472c-0.028,0.33 0.032,0.591 0.415,0.643c0.36,0.05 0.549,-0.13 0.597,-0.574c0.129,-1.16 0.15,-2.343 0.408,-3.471c0.188,-0.819 0.026,-1.41 -0.585,-2.089m12.805,-6.921c0.416,0.104 0.708,0.148 0.977,0.252c0.364,0.14 0.634,0.035 0.892,-0.221c1.641,-1.635 3.621,-2.728 5.749,-3.588c0.135,-0.053 0.235,-0.19 0.399,-0.329c-1.32,-0.327 -1.318,-0.323 -2.387,0.161c-0.6,0.273 -1.209,0.528 -1.811,0.8c-1.46,0.657 -2.676,1.633 -3.819,2.925m10.182,12.608c-0.213,-0.407 -0.379,-0.811 -0.63,-1.155c-0.089,-0.121 -0.413,-0.181 -0.576,-0.121c-0.56,0.203 -0.894,1.014 -0.732,1.613c0.434,1.608 0.343,3.183 -0.297,4.728c-0.072,0.171 -0.025,0.391 -0.034,0.587c0.238,-0.03 0.506,-0.003 0.701,-0.11c0.172,-0.095 0.305,-0.324 0.378,-0.522c0.326,-0.896 0.687,-1.787 0.914,-2.71c0.182,-0.736 0.189,-1.515 0.276,-2.31m-14.018,-12.525c0.45,-0.055 0.799,-0.126 1.15,-0.132c0.358,-0.005 0.734,0 1.074,0.099c0.73,0.213 0.735,0.248 1.183,-0.297c1.164,-1.41 2.552,-2.525 4.229,-3.273c0.259,-0.115 0.494,-0.282 0.741,-0.425c-2.652,0.198 -4.896,1.395 -7.082,2.734c-0.487,0.299 -1.025,0.569 -1.295,1.294m16.68,-0.782c-1.112,-1.643 -1.257,-1.753 -2.76,-0.846c-1.662,1.005 -3.241,2.155 -4.812,3.301c-1.193,0.87 -1.163,0.912 -0.417,2.154c0.032,0.054 0.11,0.082 0.206,0.149c2.354,-1.887 4.582,-4.014 7.783,-4.758m-1.94,-1.913c-0.295,-0.178 -0.536,-0.333 -0.785,-0.472c-0.494,-0.278 -0.95,-0.348 -1.557,-0.168c-2.238,0.665 -4.158,1.865 -5.974,3.275c-0.086,0.066 -0.181,0.143 -0.227,0.237c-0.041,0.086 -0.063,0.267 -0.021,0.295c0.508,0.339 0.585,0.916 0.829,1.404c0.227,0.451 0.572,0.471 0.961,0.116c2.022,-1.847 4.206,-3.462 6.774,-4.687m2.48,3.59c-0.01,-0.06 -0.024,-0.207 -0.058,-0.35c-0.167,-0.724 -0.202,-0.767 -0.871,-0.53c-0.829,0.295 -1.718,0.526 -2.44,0.999c-1.565,1.026 -3.058,2.169 -4.547,3.306c-0.642,0.488 -0.604,0.653 -0.26,1.389c0.399,0.848 0.712,1.719 -0.053,2.556c-0.047,0.051 -0.101,0.138 -0.088,0.195c0.04,0.172 0.068,0.384 0.184,0.489c0.071,0.064 0.349,0.01 0.441,-0.082c0.426,-0.43 0.936,-0.655 1.502,-0.859c0.742,-0.268 1.495,-0.558 1.833,-1.444c0.14,-0.368 0.568,-0.712 0.948,-0.885c0.849,-0.386 1.358,-1.078 1.899,-1.769c0.247,-0.316 0.545,-0.598 0.85,-0.861c0.647,-0.559 0.897,-1.235 0.66,-2.154m-13.339,11.591c1.028,0.052 1.734,-0.217 2.371,-0.766c0.297,-0.255 0.633,-0.508 0.995,-0.64c1.3,-0.47 1.548,-0.879 1.047,-2.128c-0.179,-0.446 -0.201,-0.758 0.171,-1.07c0.554,-0.461 0.525,-1.01 0.221,-1.592c-0.085,-0.162 -0.16,-0.336 -0.274,-0.475c-0.246,-0.299 -0.348,-0.585 -0.285,-1.007c0.101,-0.67 -0.061,-1.225 -0.725,-1.694c-0.479,-0.339 -1.075,-0.752 -1.14,-1.532c-0.02,-0.235 -0.398,-0.573 -0.663,-0.629c-0.813,-0.175 -1.613,-0.515 -2.489,-0.286c-0.291,0.075 -0.679,0.046 -0.943,-0.089c-0.918,-0.472 -1.886,-0.272 -2.663,0.088c-0.96,0.445 -1.972,0.98 -2.542,2.005c-0.078,0.14 -0.368,0.264 -0.528,0.234c-0.688,-0.134 -0.951,0.275 -1.101,0.81c-0.111,0.401 -0.265,0.711 -0.63,0.979c-0.563,0.412 -0.587,0.901 -0.22,1.782c0.368,-0.382 0.694,-0.779 1.078,-1.109c1.624,-1.4 3.405,-2.359 5.646,-2.465c2.022,-0.095 4.013,0.849 4.917,2.667c0.097,0.195 0.184,0.404 0.233,0.616c0.523,2.251 -0.076,4.14 -1.835,5.656c-0.182,0.157 -0.342,0.342 -0.641,0.645m-3.828,0.451c-0.115,-0.175 -0.166,-0.272 -0.234,-0.353c-0.452,-0.529 -0.461,-0.896 0.036,-1.264c1.032,-0.765 2.033,-0.375 2.297,0.451c0.043,0.14 0.125,0.267 0.169,0.407c0.12,0.386 0.336,0.42 0.667,0.232c1.709,-0.972 2.764,-2.401 2.992,-4.37c0.153,-1.321 -0.207,-2.522 -1.288,-3.346c-1.336,-1.017 -2.88,-1.444 -4.558,-1.14c-1.737,0.315 -3.077,1.365 -4.313,2.532c-0.471,0.444 -0.856,1.02 -1.152,1.601c-0.432,0.845 -0.529,1.78 -0.126,2.665c0.888,1.951 3.204,3.043 5.51,2.585m11.561,-4.324c0.773,0.811 1.412,1.472 2.041,2.141c0.584,0.621 0.819,1.344 0.816,2.214c-0.007,1.756 -0.654,3.312 -1.363,4.855c-0.203,0.44 -0.533,0.803 -1.085,0.836c-0.671,0.037 -1.057,-0.36 -0.771,-0.953c0.519,-1.079 0.483,-2.227 0.572,-3.355c0.119,-1.497 -1.222,-3.113 -2.701,-3.353c-0.133,-0.021 -0.32,-0.01 -0.412,0.069c-0.732,0.619 -1.707,0.789 -2.448,1.459c-0.81,0.73 -1.896,0.916 -3.006,0.543c-0.549,-0.186 -0.67,-0.086 -0.866,0.49c-0.155,0.453 -0.278,0.927 -0.517,1.333c-0.197,0.335 -0.521,0.609 -0.829,0.862c-0.257,0.211 -0.619,0.412 -0.894,0.114c-0.201,-0.216 -0.326,-0.574 -0.339,-0.875c-0.014,-0.349 0.129,-0.704 0.228,-1.173c-0.515,-0.047 -0.978,-0.091 -1.442,-0.131c-0.888,-0.077 -1.746,-0.263 -2.547,-0.679c-0.605,-0.315 -1.068,-0.767 -1.469,-1.312c-0.408,-0.553 -0.735,-0.516 -1.033,0.095c-0.128,0.261 -0.196,0.554 -0.27,0.838c-0.309,1.181 -0.586,1.313 -1.763,0.865c-0.15,-0.057 -0.346,-0.01 -0.516,0.013c-1.044,0.143 -1.439,-0.121 -1.395,-1.116c0.069,-1.578 0.174,-3.16 0.374,-4.726c0.159,-1.242 1.481,-2.291 2.737,-2.334c0.147,-0.005 0.296,0.024 0.443,0.014c0.685,-0.041 0.868,-0.231 0.706,-0.912c-0.45,-1.892 0.117,-3.557 1.067,-5.153c0.456,-0.767 1.103,-1.191 2.015,-1.07c0.901,0.12 1.798,0.286 2.793,0.449c0.082,-0.305 0.15,-0.703 0.296,-1.071c0.257,-0.644 0.476,-1.329 0.863,-1.892c0.845,-1.232 2.202,-1.613 3.611,-1.127c0.243,0.085 0.514,0.157 0.703,0.317c0.882,0.747 1.845,0.693 2.892,0.444c2.792,-0.661 5.276,0.27 7.547,1.748c1.077,0.7 1.815,1.827 2.081,3.159c0.107,0.535 0.176,1.079 0.275,1.702c0.29,-0.078 0.499,-0.113 0.693,-0.189c1.298,-0.508 2.258,0.101 2.998,1.038c0.929,1.179 1.44,2.579 1.534,4.081c0.027,0.441 -0.174,0.935 -0.392,1.34c-0.207,0.388 -0.642,0.379 -0.914,0.022c-0.221,-0.288 -0.39,-0.624 -0.539,-0.957c-0.211,-0.47 -0.386,-0.956 -0.569,-1.438c-0.686,-1.814 -2.015,-1.879 -3.284,-1.652c-0.249,0.044 -0.487,0.166 -0.72,0.271c-0.19,0.086 -0.365,0.201 -0.611,0.338c0.624,0.406 1.159,0.773 1.713,1.108c0.6,0.362 0.964,0.892 1.143,1.546c0.426,1.569 0.842,3.142 0.343,4.783c-0.156,0.512 -0.371,0.962 -0.848,1.247c-0.372,0.222 -0.774,0.147 -0.9,-0.263c-0.139,-0.447 -0.168,-0.933 -0.208,-1.407c-0.055,-0.657 -0.005,-1.332 -0.126,-1.975c-0.216,-1.14 -0.894,-1.927 -2.062,-2.186c-0.347,-0.078 -0.752,-0.117 -1.081,-0.014c-0.83,0.262 -1.633,0.616 -2.564,0.979" style="fill:#231f20;fill-rule:nonzero;"/></g></svg>