<svg clip-rule="evenodd" fill-rule="evenodd" stroke-linejoin="round" stroke-miterlimit="2" viewBox="0 0 46 27" xmlns="http://www.w3.org/2000/svg"><g fill-rule="nonzero"><path d="m25.897 13.802c-.022.842-.452 1.525-.971 2.154-.338.41-.404.755.053 1.119.131.104.21.277.332.443 1.754-.954 3.264-2.135 4.646-3.474-1.343-.079-2.648-.158-4.06-.242m-20.306 9.417c.214.143.42.299.643.422.192.106.401.185.608.257.638.216.96.132 1.304-.436.263-.437.452-.919.663-1.386.24-.531.467-1.066.7-1.6-.526-.305-1.03-.655-1.582-.899-.623-.278-1.118-1.06-1.835-.83-.633.203-1.152.758-1.72 1.156-.06.042-.119.086-.173.136-.486.443-.544.652-.203 1.242.422.73.865 1.455 1.595 1.938m10.127.655c.272-.387.655-.731.484-1.28-.445-1.436-.869-2.885-1.825-4.092-.18-.228-.397-.494-.651-.574-.327-.105-.726-.104-1.061-.018-.139.036-.202.404-.281.628-.11.308-.216.62-.3.937-.056.202-.15.444-.089.619.299.844.112 1.665-.032 2.494-.125.723-.285 1.445-.343 2.175-.067.838.292 1.147 1.123 1.055.252-.028.512-.096.741-.202.877-.407 1.646-.961 2.234-1.742m19.406-16.4c-1.157 1.634-2.914 2.752-3.73 4.517 3.515-2.065 5.265-5.558 7.013-9.355-.368.231-.548.334-.716.452-2.566 1.799-4.933 3.84-7.285 5.902-1.065.935-1.868 2.069-2.451 3.358-.091.197-.165.415-.181.628-.009.105.108.282.208.322.771.298 1.829-.04 2.347-.733.639-.857 1.245-1.739 1.918-2.567.812-.999 1.748-1.875 2.877-2.524m-13.127 4.59c.317 1.225-.245 1.995-.84 2.771-.423.552-1.014.838-1.587 1.171-.682.397-.691.406-.459 1.184.248.833.153 1.597-.373 2.304-.169.227-.296.483-.465.76.169.056.271.126.367.117 1.961-.181 3.688-.979 5.314-2.033.09-.058.163-.148.234-.232.239-.287.29-.544.005-.872-.558-.648-.533-.662-.035-1.372.317-.45.628-.906.921-1.372.204-.324.162-.626-.165-.868-.206-.152-.376-.367-.6-.478-.689-.346-1.396-.655-2.317-1.08m9.557 1.567c1.67.353 3.237-.023 4.804.16-.428.214-.863.387-1.316.464-1.135.193-2.271.146-3.405-.073-.726-.139-.782-.096-1.255.741.288.087.578.137.836.26 1.528.729 3.055.703 4.597.053.305-.129.645-.179.94-.322.758-.369 1.575-.674 2.235-1.179 1.164-.893 2.263-1.876 3.096-3.118.572-.856 1.211-1.669 1.812-2.505.157-.218.285-.455.555-.893-.464.283-.722.417-.956.584-1.138.812-2.279 1.62-3.401 2.455-.864.643-1.769 1.218-2.818 1.476-1.32.324-2.655.598-3.994.83-.686.119-1.253.346-1.73 1.067m-12.98-4.445c.263 2.196-.545 3.363-2.542 3.838-.035.01-.072.018-.108.024-1.211.179-1.1.305-.879 1.365.016.072.026.145.041.217.182.887.279 1.759-.37 2.526-.202.24-.101.47.047.706.489.779.968 1.563 1.441 2.351.256.426.626.535.978.199.289-.276.49-.642.749-.952.627-.748.784-1.536.367-2.459-.304-.675-.213-.862.421-1.271.432-.279.91-.49 1.338-.777 1.499-1.007 1.806-2.595.677-3.861-.605-.678-1.367-1.217-2.16-1.906m-12.794 8.228.087-.1c.47.355.915.754 1.419 1.051.786.463 1.557.943 2.526 1.031 1.482.133 1.597.108 1.907-1.366.114-.543.386-.856.943-.91.292-.029.59-.045.878-.103.584-.118.9-.45.972-1.041.031-.25.005-.514-.036-.767-.069-.436-.181-.865-.255-1.301-.169-1.008-.001-1.214.985-1.444.604-.142 1.203-.333 1.776-.568.493-.203.865-.61.981-1.13.254-1.131.016-2.293-.696-3.101-1.879-2.127-4.078-3.933-6.379-5.6-1.546-1.119-3.315-1.357-5.159-1.175-.391.039-.8.173-1.144.366-1.462.816-2.58 2-3.16 3.561-1.435 3.854-.502 7.311 2.044 10.392.674.815 1.535 1.474 2.311 2.205m39.608-11.001c-.391.648-.76 1.312-1.18 1.942-.553.828-1.169 1.614-1.715 2.444-.884 1.344-2.023 2.45-3.282 3.41-1.52 1.16-3.308 1.754-5.171 2.127-.912.184-1.748-.158-2.598-.39-.39-.106-.804-.176-1.153-.362-.572-.304-.938-.041-1.367.293-2.474 1.933-5.059 3.711-8.046 4.75-1.309.456-2.725.606-4.116.9-.004.016-.054.096-.034.147.434 1.084.13 1.964-.619 2.821-.722.827-1.52 1.504-2.553 1.864-.374.128-.795.198-1.188.18-.943-.046-1.478-.636-1.484-1.584-.002-.366.048-.736.108-1.098.091-.546.212-1.086.321-1.628.271-1.351.265-1.361-1.156-1.536-.339.814-.677 1.624-1.015 2.435-.056.136-.101.277-.17.408-.629 1.193-1.299 1.459-2.538.93-1.457-.62-2.481-1.702-3.113-3.142-.329-.746-.241-1.13.389-1.662.448-.378.962-.681 1.43-1.037.41-.312.402-.419.04-.768-.77-.741-1.6-1.43-2.29-2.238-2.63-3.078-3.519-6.584-2.349-10.511.56-1.878 1.777-3.295 3.428-4.318.458-.282 1.008-.506 1.539-.57 2.194-.263 4.24.104 6.065 1.481 2.688 2.024 5.184 4.249 7.407 6.78 1.816 2.067 4.013 3.568 6.663 4.366.317.095.638.185.962.25.632.129.631.12.778-.518.343-1.492 1.176-2.717 2.28-3.709 2.3-2.067 4.627-4.106 7.161-5.892.965-.68 1.898-1.404 2.519-2.445.055-.094.12-.208.211-.25.149-.07.323-.088.486-.127.013.165.094.364.032.492-1.095 2.21-2.106 4.47-3.346 6.594-.959 1.642-2.068 3.235-3.734 4.308-.231.148-.408.38-.796.751 2.907-.456 5.549-.808 7.81-2.499 1.674-1.252 3.444-2.375 5.17-3.556.072.055.143.111.214.167" fill="#231f20"/><path d="m11.388 3.271c-.359-.332-.85-.383-.828-.162.02.223.267.433.434.63.063.074.183.129.281.139.094.01.235-.021.279-.088.047-.068.03-.207-.003-.299-.036-.095-.125-.171-.163-.22m2.446 2.719c-.179.454-.349.874-.51 1.298-.078.204-.158.413-.195.626-.015.081.068.22.146.263.079.044.245.047.303-.007.444-.407.819-.866.788-1.514-.017-.352-.152-.643-.532-.666m-5.928-1.658c.415.299 1.29.114 1.561-.33.164-.266.042-.598-.301-.824-.459-.302-1.038-.216-1.364.201-.258.332-.214.725.104.953m2.594 3.049c.304-.355.484-.664.221-1.037-.232-.328-.679-.384-1.06-.074-.274.222-.524.515-.678.829-.084.174-.023.534.114.67.134.137.479.19.67.118.293-.111.533-.361.733-.506m-6.782 7.189c.873.748 1.794.641 2.688.363.712-.221 1.299-.838 2.14-.654.028.006.074-.021.097-.045.071-.079.199-.176.186-.245-.022-.125-.107-.31-.204-.34-.528-.152-1.066-.283-1.607-.373-.105-.018-.363.203-.348.277.085.465-.222.578-.545.669-.86.243-1.666.305-2.273-.566-.163-.235-.391-.628-.761-.384-.073.047.132.576.265.857.09.192.276.34.362.441m2.062 2.843c-.776-.73-1.638-1.389-2.311-2.203-2.546-3.083-3.48-6.538-2.044-10.394.579-1.561 1.698-2.745 3.16-3.561.344-.192.752-.327 1.144-.366 1.844-.181 3.613.057 5.158 1.176 2.302 1.667 4.501 3.472 6.38 5.601.712.806.95 1.97.696 3.099-.116.522-.488.927-.981 1.13-.573.237-1.172.427-1.776.568-.986.23-1.154.437-.985 1.446.073.435.186.864.255 1.301.041.251.067.515.036.766-.072.59-.389.924-.972 1.041-.288.057-.586.074-.879.103-.556.054-.828.367-.942.909-.31 1.474-.425 1.499-1.907 1.366-.969-.088-1.74-.567-2.526-1.03-.504-.298-.949-.697-1.419-1.052z" fill="#e2e418"/><path d="m18.574 9.185c.792.69 1.555 1.228 2.16 1.906 1.129 1.266.822 2.855-.678 3.861-.426.287-.905.499-1.338.778-.633.409-.724.595-.42 1.27.416.924.259 1.712-.367 2.46-.26.31-.46.676-.749.952-.352.336-.722.227-.978-.2-.472-.787-.953-1.571-1.44-2.35-.149-.236-.25-.466-.048-.706.648-.768.552-1.64.37-2.526-.015-.072-.026-.145-.041-.217-.221-1.06-.333-1.187.879-1.366.037-.006.073-.014.109-.023 1.996-.476 2.804-1.643 2.541-3.839" fill="#bc85bb"/><path d="m31.554 13.631c.477-.721 1.043-.948 1.73-1.068 1.339-.231 2.674-.506 3.994-.83 1.049-.257 1.954-.832 2.818-1.476 1.121-.835 2.263-1.643 3.4-2.455.235-.166.493-.301.957-.583-.27.437-.399.674-.555.891-.601.838-1.24 1.651-1.813 2.506-.833 1.243-1.931 2.226-3.095 3.118-.66.505-1.477.81-2.235 1.18-.295.143-.635.193-.94.321-1.542.65-3.069.677-4.597-.053-.258-.122-.549-.173-.836-.26.473-.837.528-.88 1.255-.74 1.133.219 2.27.265 3.405.072.452-.076.887-.25 1.316-.463-1.567-.183-3.134.193-4.804-.16" fill="#e2e418"/><path d="m21.997 12.064c.921.425 1.628.734 2.317 1.08.223.111.394.325.598.478.329.242.371.543.167.868-.293.466-.604.922-.921 1.372-.498.71-.524.723.035 1.372.284.328.234.584-.006.872-.07.084-.143.173-.233.232-1.627 1.054-3.354 1.852-5.315 2.033-.095.009-.198-.061-.366-.117.168-.278.296-.533.465-.76.525-.707.621-1.471.373-2.304-.232-.778-.223-.787.459-1.184.572-.333 1.164-.619 1.587-1.171.594-.776 1.157-1.546.84-2.771" fill="#e2e418"/><path d="m35.123 7.474c-1.129.647-2.065 1.524-2.877 2.523-.673.828-1.279 1.711-1.918 2.567-.518.694-1.575 1.032-2.346.733-.101-.039-.217-.217-.209-.321.017-.213.09-.432.18-.63.585-1.287 1.386-2.422 2.453-3.357 2.35-2.063 4.719-4.104 7.283-5.902.169-.118.349-.22.717-.451-1.747 3.795-3.497 7.289-7.012 9.355.815-1.766 2.573-2.883 3.729-4.517" fill="#e2e418"/><path d="m15.718 23.874c-.588.78-1.358 1.333-2.234 1.742-.229.106-.488.173-.741.201-.831.092-1.19-.216-1.123-1.055.058-.729.218-1.451.344-2.175.143-.829.33-1.651.031-2.494-.061-.174.034-.416.088-.619.085-.316.191-.628.301-.937.08-.223.142-.592.281-.628.335-.086.733-.087 1.062.019.253.079.471.346.65.573.956 1.206 1.38 2.656 1.825 4.092.171.55-.212.894-.484 1.281" fill="#bc85bb"/><path d="m5.591 23.219c-.73-.483-1.174-1.209-1.596-1.938-.341-.59-.282-.799.203-1.242.055-.049.114-.094.174-.135.568-.399 1.087-.953 1.72-1.157.716-.229 1.211.553 1.834.83.553.244 1.057.594 1.582.898-.232.534-.46 1.071-.7 1.602-.21.466-.399.948-.662 1.385-.343.568-.667.652-1.305.435-.206-.07-.415-.151-.607-.256-.224-.124-.43-.28-.643-.422" fill="#bc85bb"/><path d="m25.897 13.802c1.412.084 2.717.163 4.06.242-1.382 1.339-2.892 2.52-4.646 3.474-.122-.166-.201-.339-.332-.443-.457-.364-.391-.709-.053-1.119.519-.629.949-1.312.971-2.154" fill="#bc85bb"/><g fill="#231f20"><path d="m3.718 14.57c-.087-.101-.272-.249-.362-.441-.132-.281-.339-.809-.266-.856.371-.245.599.148.763.383.607.872 1.413.81 2.272.566.324-.092.63-.205.544-.67-.013-.074.244-.294.349-.276.542.089 1.078.221 1.606.373.098.029.183.215.205.34.013.068-.115.166-.185.245-.023.024-.069.051-.098.045-.841-.185-1.428.432-2.14.654-.895.277-1.815.385-2.688-.363"/><path d="m10.5 7.381c-.199.144-.441.394-.732.505-.191.072-.537.019-.672-.117-.135-.138-.196-.496-.112-.672.152-.313.403-.605.677-.827.381-.31.829-.255 1.061.074.263.372.083.681-.222 1.037"/><path d="m7.905 4.332c-.318-.228-.361-.622-.103-.953.326-.417.905-.503 1.364-.201.342.225.464.557.301.824-.272.444-1.146.628-1.562.33"/><path d="m13.835 5.99c.379.022.514.314.531.666.03.648-.344 1.107-.787 1.513-.059.055-.225.052-.304.008-.077-.044-.16-.182-.146-.262.036-.214.117-.422.194-.628.162-.423.333-.844.512-1.297"/><path d="m11.388 3.271c.038.049.127.125.163.22.033.092.05.231.003.299-.044.067-.185.098-.279.088-.098-.01-.218-.065-.281-.139-.167-.197-.414-.407-.434-.63-.022-.221.469-.17.828.162"/></g><path d="m1.633 5.827c-.455 1.572-.273 3.318.496 4.761.412-1.4.916-2.775 1.508-4.11.275-.621 2.145-3.328 1.987-3.855-.721-2.396-3.793 2.52-3.991 3.204" fill="#fff"/><path d="m28.764 14.493c.472-.335.945-.701 1.506-.842.535-.135 1.096-.052 1.647-.007 3.044.252 6.174-.722 8.537-2.658-1.414 2.007-3.705 3.373-6.143 3.665-.979.116-1.97.068-2.949.175-5.661.624-9.998 6.267-15.693 6.27.913.926.656 2.578-.248 3.514-.904.935-2.247 1.294-3.537 1.451 1.468-.55 2.18-2.325 1.98-3.881-.199-1.554-1.102-2.922-2.051-4.17-.56-.737 3.1-.592 3.398-.523 1.534.353 2.85.522 4.467.366 3.25-.312 6.423-1.465 9.086-3.36" fill="#3b2314" opacity=".2"/></g></svg>