<?xml version="1.0" encoding="UTF-8" standalone="no"?><!DOCTYPE svg PUBLIC "-//W3C//DTD SVG 1.1//EN" "http://www.w3.org/Graphics/SVG/1.1/DTD/svg11.dtd"><svg width="100%" height="100%" viewBox="0 0 46 27" version="1.1" xmlns="http://www.w3.org/2000/svg" xmlns:xlink="http://www.w3.org/1999/xlink" xml:space="preserve" xmlns:serif="http://www.serif.com/" style="fill-rule:evenodd;clip-rule:evenodd;stroke-linejoin:round;stroke-miterlimit:2;"><g><path d="M25.897,13.802c-0.022,0.842 -0.452,1.525 -0.971,2.154c-0.338,0.41 -0.404,0.755 0.053,1.119c0.131,0.104 0.21,0.277 0.332,0.443c1.754,-0.954 3.264,-2.135 4.646,-3.474c-1.343,-0.079 -2.648,-0.158 -4.06,-0.242m-20.306,9.417c0.214,0.143 0.42,0.299 0.643,0.422c0.192,0.106 0.401,0.185 0.608,0.257c0.638,0.216 0.96,0.132 1.304,-0.436c0.263,-0.437 0.452,-0.919 0.663,-1.386c0.24,-0.531 0.467,-1.066 0.7,-1.6c-0.526,-0.305 -1.03,-0.655 -1.582,-0.899c-0.623,-0.278 -1.118,-1.06 -1.835,-0.83c-0.633,0.203 -1.152,0.758 -1.72,1.156c-0.06,0.042 -0.119,0.086 -0.173,0.136c-0.486,0.443 -0.544,0.652 -0.203,1.242c0.422,0.73 0.865,1.455 1.595,1.938m10.127,0.655c0.272,-0.387 0.655,-0.731 0.484,-1.28c-0.445,-1.436 -0.869,-2.885 -1.825,-4.092c-0.18,-0.228 -0.397,-0.494 -0.651,-0.574c-0.327,-0.105 -0.726,-0.104 -1.061,-0.018c-0.139,0.036 -0.202,0.404 -0.281,0.628c-0.11,0.308 -0.216,0.62 -0.3,0.937c-0.056,0.202 -0.15,0.444 -0.089,0.619c0.299,0.844 0.112,1.665 -0.032,2.494c-0.125,0.723 -0.285,1.445 -0.343,2.175c-0.067,0.838 0.292,1.147 1.123,1.055c0.252,-0.028 0.512,-0.096 0.741,-0.202c0.877,-0.407 1.646,-0.961 2.234,-1.742m19.406,-16.4c-1.157,1.634 -2.914,2.752 -3.73,4.517c3.515,-2.065 5.265,-5.558 7.013,-9.355c-0.368,0.231 -0.548,0.334 -0.716,0.452c-2.566,1.799 -4.933,3.84 -7.285,5.902c-1.065,0.935 -1.868,2.069 -2.451,3.358c-0.091,0.197 -0.165,0.415 -0.181,0.628c-0.009,0.105 0.108,0.282 0.208,0.322c0.771,0.298 1.829,-0.04 2.347,-0.733c0.639,-0.857 1.245,-1.739 1.918,-2.567c0.812,-0.999 1.748,-1.875 2.877,-2.524m-13.127,4.59c0.317,1.225 -0.245,1.995 -0.84,2.771c-0.423,0.552 -1.014,0.838 -1.587,1.171c-0.682,0.397 -0.691,0.406 -0.459,1.184c0.248,0.833 0.153,1.597 -0.373,2.304c-0.169,0.227 -0.296,0.483 -0.465,0.76c0.169,0.056 0.271,0.126 0.367,0.117c1.961,-0.181 3.688,-0.979 5.314,-2.033c0.09,-0.058 0.163,-0.148 0.234,-0.232c0.239,-0.287 0.29,-0.544 0.005,-0.872c-0.558,-0.648 -0.533,-0.662 -0.035,-1.372c0.317,-0.45 0.628,-0.906 0.921,-1.372c0.204,-0.324 0.162,-0.626 -0.165,-0.868c-0.206,-0.152 -0.376,-0.367 -0.6,-0.478c-0.689,-0.346 -1.396,-0.655 -2.317,-1.08m9.557,1.567c1.67,0.353 3.237,-0.023 4.804,0.16c-0.428,0.214 -0.863,0.387 -1.316,0.464c-1.135,0.193 -2.271,0.146 -3.405,-0.073c-0.726,-0.139 -0.782,-0.096 -1.255,0.741c0.288,0.087 0.578,0.137 0.836,0.26c1.528,0.729 3.055,0.703 4.597,0.053c0.305,-0.129 0.645,-0.179 0.94,-0.322c0.758,-0.369 1.575,-0.674 2.235,-1.179c1.164,-0.893 2.263,-1.876 3.096,-3.118c0.572,-0.856 1.211,-1.669 1.812,-2.505c0.157,-0.218 0.285,-0.455 0.555,-0.893c-0.464,0.283 -0.722,0.417 -0.956,0.584c-1.138,0.812 -2.279,1.62 -3.401,2.455c-0.864,0.643 -1.769,1.218 -2.818,1.476c-1.32,0.324 -2.655,0.598 -3.994,0.83c-0.686,0.119 -1.253,0.346 -1.73,1.067m-12.98,-4.445c0.263,2.196 -0.545,3.363 -2.542,3.838c-0.035,0.01 -0.072,0.018 -0.108,0.024c-1.211,0.179 -1.1,0.305 -0.879,1.365c0.016,0.072 0.026,0.145 0.041,0.217c0.182,0.887 0.279,1.759 -0.37,2.526c-0.202,0.24 -0.101,0.47 0.047,0.706c0.489,0.779 0.968,1.563 1.441,2.351c0.256,0.426 0.626,0.535 0.978,0.199c0.289,-0.276 0.49,-0.642 0.749,-0.952c0.627,-0.748 0.784,-1.536 0.367,-2.459c-0.304,-0.675 -0.213,-0.862 0.421,-1.271c0.432,-0.279 0.91,-0.49 1.338,-0.777c1.499,-1.007 1.806,-2.595 0.677,-3.861c-0.605,-0.678 -1.367,-1.217 -2.16,-1.906m-12.794,8.228l0.087,-0.1c0.47,0.355 0.915,0.754 1.419,1.051c0.786,0.463 1.557,0.943 2.526,1.031c1.482,0.133 1.597,0.108 1.907,-1.366c0.114,-0.543 0.386,-0.856 0.943,-0.91c0.292,-0.029 0.59,-0.045 0.878,-0.103c0.584,-0.118 0.9,-0.45 0.972,-1.041c0.031,-0.25 0.005,-0.514 -0.036,-0.767c-0.069,-0.436 -0.181,-0.865 -0.255,-1.301c-0.169,-1.008 -0.001,-1.214 0.985,-1.444c0.604,-0.142 1.203,-0.333 1.776,-0.568c0.493,-0.203 0.865,-0.61 0.981,-1.13c0.254,-1.131 0.016,-2.293 -0.696,-3.101c-1.879,-2.127 -4.078,-3.933 -6.379,-5.6c-1.546,-1.119 -3.315,-1.357 -5.159,-1.175c-0.391,0.039 -0.8,0.173 -1.144,0.366c-1.462,0.816 -2.58,2 -3.16,3.561c-1.435,3.854 -0.502,7.311 2.044,10.392c0.674,0.815 1.535,1.474 2.311,2.205m39.608,-11.001c-0.391,0.648 -0.76,1.312 -1.18,1.942c-0.553,0.828 -1.169,1.614 -1.715,2.444c-0.884,1.344 -2.023,2.45 -3.282,3.41c-1.52,1.16 -3.308,1.754 -5.171,2.127c-0.912,0.184 -1.748,-0.158 -2.598,-0.39c-0.39,-0.106 -0.804,-0.176 -1.153,-0.362c-0.572,-0.304 -0.938,-0.041 -1.367,0.293c-2.474,1.933 -5.059,3.711 -8.046,4.75c-1.309,0.456 -2.725,0.606 -4.116,0.9c-0.004,0.016 -0.054,0.096 -0.034,0.147c0.434,1.084 0.13,1.964 -0.619,2.821c-0.722,0.827 -1.52,1.504 -2.553,1.864c-0.374,0.128 -0.795,0.198 -1.188,0.18c-0.943,-0.046 -1.478,-0.636 -1.484,-1.584c-0.002,-0.366 0.048,-0.736 0.108,-1.098c0.091,-0.546 0.212,-1.086 0.321,-1.628c0.271,-1.351 0.265,-1.361 -1.156,-1.536c-0.339,0.814 -0.677,1.624 -1.015,2.435c-0.056,0.136 -0.101,0.277 -0.17,0.408c-0.629,1.193 -1.299,1.459 -2.538,0.93c-1.457,-0.62 -2.481,-1.702 -3.113,-3.142c-0.329,-0.746 -0.241,-1.13 0.389,-1.662c0.448,-0.378 0.962,-0.681 1.43,-1.037c0.41,-0.312 0.402,-0.419 0.04,-0.768c-0.77,-0.741 -1.6,-1.43 -2.29,-2.238c-2.63,-3.078 -3.519,-6.584 -2.349,-10.511c0.56,-1.878 1.777,-3.295 3.428,-4.318c0.458,-0.282 1.008,-0.506 1.539,-0.57c2.194,-0.263 4.24,0.104 6.065,1.481c2.688,2.024 5.184,4.249 7.407,6.78c1.816,2.067 4.013,3.568 6.663,4.366c0.317,0.095 0.638,0.185 0.962,0.25c0.632,0.129 0.631,0.12 0.778,-0.518c0.343,-1.492 1.176,-2.717 2.28,-3.709c2.3,-2.067 4.627,-4.106 7.161,-5.892c0.965,-0.68 1.898,-1.404 2.519,-2.445c0.055,-0.094 0.12,-0.208 0.211,-0.25c0.149,-0.07 0.323,-0.088 0.486,-0.127c0.013,0.165 0.094,0.364 0.032,0.492c-1.095,2.21 -2.106,4.47 -3.346,6.594c-0.959,1.642 -2.068,3.235 -3.734,4.308c-0.231,0.148 -0.408,0.38 -0.796,0.751c2.907,-0.456 5.549,-0.808 7.81,-2.499c1.674,-1.252 3.444,-2.375 5.17,-3.556c0.072,0.055 0.143,0.111 0.214,0.167" style="fill:#231f20;fill-rule:nonzero;"/><path d="M11.388,3.271c-0.359,-0.332 -0.85,-0.383 -0.828,-0.162c0.02,0.223 0.267,0.433 0.434,0.63c0.063,0.074 0.183,0.129 0.281,0.139c0.094,0.01 0.235,-0.021 0.279,-0.088c0.047,-0.068 0.03,-0.207 -0.003,-0.299c-0.036,-0.095 -0.125,-0.171 -0.163,-0.22m2.446,2.719c-0.179,0.454 -0.349,0.874 -0.51,1.298c-0.078,0.204 -0.158,0.413 -0.195,0.626c-0.015,0.081 0.068,0.22 0.146,0.263c0.079,0.044 0.245,0.047 0.303,-0.007c0.444,-0.407 0.819,-0.866 0.788,-1.514c-0.017,-0.352 -0.152,-0.643 -0.532,-0.666m-5.928,-1.658c0.415,0.299 1.29,0.114 1.561,-0.33c0.164,-0.266 0.042,-0.598 -0.301,-0.824c-0.459,-0.302 -1.038,-0.216 -1.364,0.201c-0.258,0.332 -0.214,0.725 0.104,0.953m2.594,3.049c0.304,-0.355 0.484,-0.664 0.221,-1.037c-0.232,-0.328 -0.679,-0.384 -1.06,-0.074c-0.274,0.222 -0.524,0.515 -0.678,0.829c-0.084,0.174 -0.023,0.534 0.114,0.67c0.134,0.137 0.479,0.19 0.67,0.118c0.293,-0.111 0.533,-0.361 0.733,-0.506m-6.782,7.189c0.873,0.748 1.794,0.641 2.688,0.363c0.712,-0.221 1.299,-0.838 2.14,-0.654c0.028,0.006 0.074,-0.021 0.097,-0.045c0.071,-0.079 0.199,-0.176 0.186,-0.245c-0.022,-0.125 -0.107,-0.31 -0.204,-0.34c-0.528,-0.152 -1.066,-0.283 -1.607,-0.373c-0.105,-0.018 -0.363,0.203 -0.348,0.277c0.085,0.465 -0.222,0.578 -0.545,0.669c-0.86,0.243 -1.666,0.305 -2.273,-0.566c-0.163,-0.235 -0.391,-0.628 -0.761,-0.384c-0.073,0.047 0.132,0.576 0.265,0.857c0.09,0.192 0.276,0.34 0.362,0.441m2.062,2.843c-0.776,-0.73 -1.638,-1.389 -2.311,-2.203c-2.546,-3.083 -3.48,-6.538 -2.044,-10.394c0.579,-1.561 1.698,-2.745 3.16,-3.561c0.344,-0.192 0.752,-0.327 1.144,-0.366c1.844,-0.181 3.613,0.057 5.158,1.176c2.302,1.667 4.501,3.472 6.38,5.601c0.712,0.806 0.95,1.97 0.696,3.099c-0.116,0.522 -0.488,0.927 -0.981,1.13c-0.573,0.237 -1.172,0.427 -1.776,0.568c-0.986,0.23 -1.154,0.437 -0.985,1.446c0.073,0.435 0.186,0.864 0.255,1.301c0.041,0.251 0.067,0.515 0.036,0.766c-0.072,0.59 -0.389,0.924 -0.972,1.041c-0.288,0.057 -0.586,0.074 -0.879,0.103c-0.556,0.054 -0.828,0.367 -0.942,0.909c-0.31,1.474 -0.425,1.499 -1.907,1.366c-0.969,-0.088 -1.74,-0.567 -2.526,-1.03c-0.504,-0.298 -0.949,-0.697 -1.419,-1.052l-0.087,0.1Z" style="fill:#e2e418;fill-rule:nonzero;"/><path d="M18.574,9.185c0.792,0.69 1.555,1.228 2.16,1.906c1.129,1.266 0.822,2.855 -0.678,3.861c-0.426,0.287 -0.905,0.499 -1.338,0.778c-0.633,0.409 -0.724,0.595 -0.42,1.27c0.416,0.924 0.259,1.712 -0.367,2.46c-0.26,0.31 -0.46,0.676 -0.749,0.952c-0.352,0.336 -0.722,0.227 -0.978,-0.2c-0.472,-0.787 -0.953,-1.571 -1.44,-2.35c-0.149,-0.236 -0.25,-0.466 -0.048,-0.706c0.648,-0.768 0.552,-1.64 0.37,-2.526c-0.015,-0.072 -0.026,-0.145 -0.041,-0.217c-0.221,-1.06 -0.333,-1.187 0.879,-1.366c0.037,-0.006 0.073,-0.014 0.109,-0.023c1.996,-0.476 2.804,-1.643 2.541,-3.839" style="fill:#bc85bb;fill-rule:nonzero;"/><path d="M31.554,13.631c0.477,-0.721 1.043,-0.948 1.73,-1.068c1.339,-0.231 2.674,-0.506 3.994,-0.83c1.049,-0.257 1.954,-0.832 2.818,-1.476c1.121,-0.835 2.263,-1.643 3.4,-2.455c0.235,-0.166 0.493,-0.301 0.957,-0.583c-0.27,0.437 -0.399,0.674 -0.555,0.891c-0.601,0.838 -1.24,1.651 -1.813,2.506c-0.833,1.243 -1.931,2.226 -3.095,3.118c-0.66,0.505 -1.477,0.81 -2.235,1.18c-0.295,0.143 -0.635,0.193 -0.94,0.321c-1.542,0.65 -3.069,0.677 -4.597,-0.053c-0.258,-0.122 -0.549,-0.173 -0.836,-0.26c0.473,-0.837 0.528,-0.88 1.255,-0.74c1.133,0.219 2.27,0.265 3.405,0.072c0.452,-0.076 0.887,-0.25 1.316,-0.463c-1.567,-0.183 -3.134,0.193 -4.804,-0.16" style="fill:#e2e418;fill-rule:nonzero;"/><path d="M21.997,12.064c0.921,0.425 1.628,0.734 2.317,1.08c0.223,0.111 0.394,0.325 0.598,0.478c0.329,0.242 0.371,0.543 0.167,0.868c-0.293,0.466 -0.604,0.922 -0.921,1.372c-0.498,0.71 -0.524,0.723 0.035,1.372c0.284,0.328 0.234,0.584 -0.006,0.872c-0.07,0.084 -0.143,0.173 -0.233,0.232c-1.627,1.054 -3.354,1.852 -5.315,2.033c-0.095,0.009 -0.198,-0.061 -0.366,-0.117c0.168,-0.278 0.296,-0.533 0.465,-0.76c0.525,-0.707 0.621,-1.471 0.373,-2.304c-0.232,-0.778 -0.223,-0.787 0.459,-1.184c0.572,-0.333 1.164,-0.619 1.587,-1.171c0.594,-0.776 1.157,-1.546 0.84,-2.771" style="fill:#e2e418;fill-rule:nonzero;"/><path d="M35.123,7.474c-1.129,0.647 -2.065,1.524 -2.877,2.523c-0.673,0.828 -1.279,1.711 -1.918,2.567c-0.518,0.694 -1.575,1.032 -2.346,0.733c-0.101,-0.039 -0.217,-0.217 -0.209,-0.321c0.017,-0.213 0.09,-0.432 0.18,-0.63c0.585,-1.287 1.386,-2.422 2.453,-3.357c2.35,-2.063 4.719,-4.104 7.283,-5.902c0.169,-0.118 0.349,-0.22 0.717,-0.451c-1.747,3.795 -3.497,7.289 -7.012,9.355c0.815,-1.766 2.573,-2.883 3.729,-4.517" style="fill:#e2e418;fill-rule:nonzero;"/><path d="M15.718,23.874c-0.588,0.78 -1.358,1.333 -2.234,1.742c-0.229,0.106 -0.488,0.173 -0.741,0.201c-0.831,0.092 -1.19,-0.216 -1.123,-1.055c0.058,-0.729 0.218,-1.451 0.344,-2.175c0.143,-0.829 0.33,-1.651 0.031,-2.494c-0.061,-0.174 0.034,-0.416 0.088,-0.619c0.085,-0.316 0.191,-0.628 0.301,-0.937c0.08,-0.223 0.142,-0.592 0.281,-0.628c0.335,-0.086 0.733,-0.087 1.062,0.019c0.253,0.079 0.471,0.346 0.65,0.573c0.956,1.206 1.38,2.656 1.825,4.092c0.171,0.55 -0.212,0.894 -0.484,1.281" style="fill:#bc85bb;fill-rule:nonzero;"/><path d="M5.591,23.219c-0.73,-0.483 -1.174,-1.209 -1.596,-1.938c-0.341,-0.59 -0.282,-0.799 0.203,-1.242c0.055,-0.049 0.114,-0.094 0.174,-0.135c0.568,-0.399 1.087,-0.953 1.72,-1.157c0.716,-0.229 1.211,0.553 1.834,0.83c0.553,0.244 1.057,0.594 1.582,0.898c-0.232,0.534 -0.46,1.071 -0.7,1.602c-0.21,0.466 -0.399,0.948 -0.662,1.385c-0.343,0.568 -0.667,0.652 -1.305,0.435c-0.206,-0.07 -0.415,-0.151 -0.607,-0.256c-0.224,-0.124 -0.43,-0.28 -0.643,-0.422" style="fill:#bc85bb;fill-rule:nonzero;"/><path d="M25.897,13.802c1.412,0.084 2.717,0.163 4.06,0.242c-1.382,1.339 -2.892,2.52 -4.646,3.474c-0.122,-0.166 -0.201,-0.339 -0.332,-0.443c-0.457,-0.364 -0.391,-0.709 -0.053,-1.119c0.519,-0.629 0.949,-1.312 0.971,-2.154" style="fill:#bc85bb;fill-rule:nonzero;"/><path d="M3.718,14.57c-0.087,-0.101 -0.272,-0.249 -0.362,-0.441c-0.132,-0.281 -0.339,-0.809 -0.266,-0.856c0.371,-0.245 0.599,0.148 0.763,0.383c0.607,0.872 1.413,0.81 2.272,0.566c0.324,-0.092 0.63,-0.205 0.544,-0.67c-0.013,-0.074 0.244,-0.294 0.349,-0.276c0.542,0.089 1.078,0.221 1.606,0.373c0.098,0.029 0.183,0.215 0.205,0.34c0.013,0.068 -0.115,0.166 -0.185,0.245c-0.023,0.024 -0.069,0.051 -0.098,0.045c-0.841,-0.185 -1.428,0.432 -2.14,0.654c-0.895,0.277 -1.815,0.385 -2.688,-0.363" style="fill:#231f20;fill-rule:nonzero;"/><path d="M10.5,7.381c-0.199,0.144 -0.441,0.394 -0.732,0.505c-0.191,0.072 -0.537,0.019 -0.672,-0.117c-0.135,-0.138 -0.196,-0.496 -0.112,-0.672c0.152,-0.313 0.403,-0.605 0.677,-0.827c0.381,-0.31 0.829,-0.255 1.061,0.074c0.263,0.372 0.083,0.681 -0.222,1.037" style="fill:#231f20;fill-rule:nonzero;"/><path d="M7.905,4.332c-0.318,-0.228 -0.361,-0.622 -0.103,-0.953c0.326,-0.417 0.905,-0.503 1.364,-0.201c0.342,0.225 0.464,0.557 0.301,0.824c-0.272,0.444 -1.146,0.628 -1.562,0.33" style="fill:#231f20;fill-rule:nonzero;"/><path d="M13.835,5.99c0.379,0.022 0.514,0.314 0.531,0.666c0.03,0.648 -0.344,1.107 -0.787,1.513c-0.059,0.055 -0.225,0.052 -0.304,0.008c-0.077,-0.044 -0.16,-0.182 -0.146,-0.262c0.036,-0.214 0.117,-0.422 0.194,-0.628c0.162,-0.423 0.333,-0.844 0.512,-1.297" style="fill:#231f20;fill-rule:nonzero;"/><path d="M11.388,3.271c0.038,0.049 0.127,0.125 0.163,0.22c0.033,0.092 0.05,0.231 0.003,0.299c-0.044,0.067 -0.185,0.098 -0.279,0.088c-0.098,-0.01 -0.218,-0.065 -0.281,-0.139c-0.167,-0.197 -0.414,-0.407 -0.434,-0.63c-0.022,-0.221 0.469,-0.17 0.828,0.162" style="fill:#231f20;fill-rule:nonzero;"/><path d="M1.633,5.827c-0.455,1.572 -0.273,3.318 0.496,4.761c0.412,-1.4 0.916,-2.775 1.508,-4.11c0.275,-0.621 2.145,-3.328 1.987,-3.855c-0.721,-2.396 -3.793,2.52 -3.991,3.204" style="fill:#fff;fill-rule:nonzero;"/><g opacity="0.2"><path d="M28.764,14.493c0.472,-0.335 0.945,-0.701 1.506,-0.842c0.535,-0.135 1.096,-0.052 1.647,-0.007c3.044,0.252 6.174,-0.722 8.537,-2.658c-1.414,2.007 -3.705,3.373 -6.143,3.665c-0.979,0.116 -1.97,0.068 -2.949,0.175c-5.661,0.624 -9.998,6.267 -15.693,6.27c0.913,0.926 0.656,2.578 -0.248,3.514c-0.904,0.935 -2.247,1.294 -3.537,1.451c1.468,-0.55 2.18,-2.325 1.98,-3.881c-0.199,-1.554 -1.102,-2.922 -2.051,-4.17c-0.56,-0.737 3.1,-0.592 3.398,-0.523c1.534,0.353 2.85,0.522 4.467,0.366c3.25,-0.312 6.423,-1.465 9.086,-3.36" style="fill:#3b2314;fill-rule:nonzero;"/></g></g></svg>