<?xml version="1.0" encoding="UTF-8" standalone="no"?><!DOCTYPE svg PUBLIC "-//W3C//DTD SVG 1.1//EN" "http://www.w3.org/Graphics/SVG/1.1/DTD/svg11.dtd"><svg width="100%" height="100%" viewBox="0 0 55 51" version="1.1" xmlns="http://www.w3.org/2000/svg" xmlns:xlink="http://www.w3.org/1999/xlink" xml:space="preserve" xmlns:serif="http://www.serif.com/" style="fill-rule:evenodd;clip-rule:evenodd;stroke-linejoin:round;stroke-miterlimit:2;"><g><path d="M43.098,14.784c0.565,-0.525 1.273,-1.638 1.479,-2.357c-1.191,-0.04 -2.181,-0.558 -3.082,-1.364c0.052,0.959 0.764,2.579 1.603,3.721m9.044,-10.192c-0.193,-0.315 -0.325,-0.574 -0.496,-0.801c-0.242,-0.321 -0.476,-0.664 -0.78,-0.916c-0.501,-0.416 -0.722,-0.338 -1.171,0.172c-0.802,0.912 -1.609,1.822 -2.451,2.697c-1.251,1.303 -2.829,1.729 -4.571,1.581c-0.225,0.405 -0.362,0.872 -0.67,1.144c-0.317,0.281 -0.803,0.371 -1.313,0.588c0.65,0.67 1.198,1.381 1.89,1.902c0.504,0.38 1.18,0.627 1.811,0.723c0.945,0.144 1.934,0.116 2.814,-0.339c1.502,-0.776 3.014,-1.544 4.453,-2.428c1.201,-0.737 1.926,-1.904 2.345,-3.249c0.463,-1.484 0.05,-2.888 -1.229,-3.803c-0.555,-0.397 -1.234,-0.636 -1.88,-0.882c-0.315,-0.12 -0.672,-0.046 -0.825,0.343c-0.158,0.405 0.017,0.79 0.44,0.974c0.169,0.073 0.359,0.098 0.523,0.179c0.782,0.39 1.219,1.18 1.11,2.115m-8.975,2.126c-0.639,-1.834 -1.598,-3.425 -2.785,-4.485c-0.513,-0.458 -1.121,-0.97 -1.757,-1.096c-1.181,-0.235 -2.414,-0.252 -3.627,-0.267c-0.69,-0.009 -1.286,0.329 -1.605,0.996c-0.235,0.494 -0.475,0.99 -0.648,1.508c-0.227,0.678 -0.321,0.703 -0.838,0.268c-0.533,-0.447 -1.089,-0.891 -1.7,-1.211c-0.401,-0.211 -0.914,-0.24 -1.382,-0.276c-0.36,-0.027 -0.64,0.183 -0.713,0.565c-0.081,0.428 0.222,0.603 0.552,0.699c0.495,0.144 1.008,0.223 1.501,0.374c0.372,0.113 0.87,0.182 0.825,0.727c-0.039,0.468 -0.5,0.465 -0.84,0.585c-0.449,0.158 -0.898,0.32 -1.337,0.503c-0.072,0.031 -0.143,0.189 -0.126,0.27c0.016,0.084 0.138,0.206 0.217,0.209c0.513,0.013 1.027,0.017 1.539,-0.011c0.658,-0.037 0.784,0.029 0.89,0.666c0.06,0.363 0.054,0.736 0.1,1.102c0.156,1.239 0.172,2.521 0.518,3.707c0.471,1.618 1.198,3.163 1.813,4.741c0.253,0.651 0.585,1.286 0.734,1.962c0.304,1.401 0.546,2.821 0.454,4.271c-0.079,1.211 -0.096,2.431 -0.246,3.634c-0.145,1.166 -0.409,2.311 -0.981,3.375c-0.248,0.459 -0.529,0.566 -0.971,0.468c-0.396,-0.087 -0.791,-0.18 -1.182,-0.283c-1.579,-0.415 -3.183,-0.611 -4.816,-0.571c-1.033,0.025 -2.068,0.016 -3.101,0.034c-2.984,0.053 -5.733,0.932 -8.296,2.419c-0.441,0.255 -0.842,0.597 -1.217,0.948c-0.943,0.881 -1.843,1.807 -2.79,2.685c-1.118,1.034 -2.062,2.206 -2.884,3.483c-0.28,0.434 -0.556,0.871 -0.854,1.291c-1.484,2.088 -3.322,3.746 -5.747,4.681c-0.163,0.064 -0.308,0.173 -0.602,0.341c0.68,0.264 1.209,0.524 1.768,0.674c0.815,0.219 1.655,0.349 2.479,0.539c0.155,0.036 0.372,0.151 0.407,0.273c0.037,0.135 -0.059,0.363 -0.171,0.474c-0.271,0.267 -0.586,0.489 -1.026,0.844c1.243,0.357 2.299,0.635 3.412,0.629c0.863,-0.006 1.673,0.138 2.431,0.607c0.365,0.227 0.82,0.422 1.239,0.432c1.174,0.028 2.383,0.118 3.517,-0.118c2.305,-0.479 4.572,-0.742 6.891,-0.124c0.787,0.21 1.625,0.149 2.392,-0.18c0.812,-0.347 1.624,-0.705 2.393,-1.136c2.714,-1.52 5.522,-2.604 8.727,-2.379c1.052,0.073 2.126,-0.138 3.189,-0.244c0.774,-0.077 1.309,-0.453 1.442,-1.275c0.047,-0.29 0.135,-0.572 0.184,-0.861c0.133,-0.798 0.243,-1.601 0.39,-2.397c0.044,-0.241 0.166,-0.47 0.27,-0.696c0.181,-0.391 0.454,-0.755 0.551,-1.163c0.735,-3.088 1.288,-6.209 1.248,-9.393c-0.048,-3.871 -0.15,-7.74 -0.279,-11.608c-0.054,-1.625 -0.345,-3.195 -1.225,-4.641c-0.451,-0.74 -0.805,-1.626 -0.887,-2.476c-0.085,-0.9 -0.521,-1.484 -1.076,-2.127c-0.177,0.15 -0.324,0.322 -0.509,0.417c-0.139,0.071 -0.329,0.043 -0.495,0.059c0.023,-0.162 -0.006,-0.362 0.08,-0.477c0.35,-0.474 0.726,-0.928 1.111,-1.374c0.128,-0.148 0.309,-0.251 0.555,-0.445c0.03,0.264 0.054,0.402 0.059,0.54c0.02,0.553 0.244,0.842 0.712,0.889c0.459,0.046 0.688,-0.253 0.778,-0.63c0.074,-0.315 0.041,-0.654 0.061,-0.983c0.026,-0.465 0.189,-0.554 0.637,-0.337c0.156,0.075 0.301,0.173 0.647,0.375m-38.658,40.157c-0.637,-0.186 -1.137,-0.294 -1.608,-0.476c-0.823,-0.318 -1.64,-0.659 -2.434,-1.043c-0.185,-0.09 -0.396,-0.408 -0.367,-0.585c0.03,-0.184 0.31,-0.419 0.521,-0.471c2.982,-0.734 5.056,-2.659 6.665,-5.138c1.274,-1.963 2.708,-3.768 4.477,-5.305c0.529,-0.459 1.027,-0.957 1.5,-1.472c0.788,-0.858 1.72,-1.51 2.764,-1.997c2.359,-1.099 4.789,-1.925 7.441,-1.876c0.369,0.007 0.739,-0.012 1.106,-0.048c2.449,-0.238 4.857,-0.025 7.235,0.592c1.377,0.358 1.462,0.318 1.811,-1.052c0.181,-0.711 0.325,-1.442 0.385,-2.172c0.204,-2.464 0.316,-4.935 -0.218,-7.373c-0.148,-0.674 -0.457,-1.323 -0.759,-1.95c-0.964,-2.002 -1.755,-4.061 -2.114,-6.262c-0.101,-0.615 -0.092,-1.248 -0.133,-1.872c-0.017,-0.258 -0.016,-0.517 -0.054,-0.771c-0.112,-0.75 -0.147,-0.774 -0.899,-0.798c-0.369,-0.011 -0.744,0.008 -1.102,-0.056c-0.364,-0.067 -0.725,-0.215 -0.803,-0.652c-0.079,-0.446 0.094,-0.804 0.463,-1.047c0.213,-0.141 0.453,-0.245 0.692,-0.339c0.203,-0.081 0.42,-0.122 0.812,-0.231c-0.357,-0.145 -0.565,-0.24 -0.779,-0.313c-0.279,-0.095 -0.577,-0.143 -0.844,-0.262c-0.652,-0.288 -0.866,-0.62 -0.806,-1.167c0.069,-0.617 0.499,-1.089 1.135,-1.188c0.755,-0.118 1.471,0.017 2.119,0.44c0.398,0.261 0.793,0.53 1.261,0.842c0.193,-0.349 0.38,-0.651 0.535,-0.968c0.531,-1.09 1.394,-1.682 2.605,-1.772c1.301,-0.096 2.595,0.011 3.836,0.362c0.887,0.252 1.597,0.882 2.24,1.566c1.086,1.156 1.705,2.581 2.301,4.006c0.304,0.726 0.322,0.974 1.306,0.559c0.598,-0.252 1.176,-0.643 1.642,-1.096c0.923,-0.898 1.767,-1.878 2.635,-2.832c0.303,-0.334 0.467,-0.705 0.484,-1.191c0.024,-0.741 0.412,-1.129 1.13,-1.024c0.711,0.105 1.445,0.33 2.072,0.677c1.707,0.945 2.404,2.879 1.88,4.74c-0.429,1.525 -1.257,2.782 -2.566,3.624c-1.39,0.894 -2.879,1.635 -4.338,2.422c-0.288,0.155 -0.623,0.297 -0.941,0.307c-1.127,0.036 -1.651,0.803 -2.159,1.636c-0.44,0.724 -1.099,1.375 -1.32,2.154c-0.207,0.731 0.035,1.59 0.075,2.394c0.123,2.501 0.255,5.003 0.363,7.506c0.108,2.47 0.035,4.938 -0.272,7.393c-0.15,1.204 -0.355,2.401 -0.546,3.601c-0.257,1.606 -0.744,3.146 -1.276,4.682c-0.356,1.03 -0.546,2.116 -0.836,3.283c1.024,-0.144 1.835,-0.526 2.721,-1.179c-0.088,0.857 -0.496,1.227 -1.073,1.409c-0.948,0.298 -1.896,0.641 -2.872,0.795c-1.27,0.201 -2.576,0.397 -3.848,0.312c-3.138,-0.21 -5.861,0.873 -8.506,2.356c-0.737,0.414 -1.52,0.749 -2.292,1.096c-0.907,0.409 -1.891,0.493 -2.821,0.249c-2.288,-0.601 -4.509,-0.35 -6.782,0.126c-1.201,0.251 -2.49,0.139 -3.737,0.088c-0.488,-0.021 -1.013,-0.249 -1.437,-0.514c-0.597,-0.372 -1.221,-0.445 -1.891,-0.51c-1.06,-0.102 -2.111,-0.291 -3.163,-0.462c-0.214,-0.035 -0.42,-0.137 -0.618,-0.234c-0.901,-0.441 -0.921,-0.653 0.002,-1.519" style="fill:#231f20;fill-rule:nonzero;"/><path d="M40.02,3.218c-0.192,0.182 -0.33,0.257 -0.38,0.37c-0.196,0.436 0.019,1.426 0.353,1.731c0.346,0.316 0.821,0.295 1.037,-0.055c0.242,-0.395 0.133,-0.801 -0.099,-1.127c-0.238,-0.334 -0.581,-0.594 -0.911,-0.919m-1.64,2.589c-0.111,-0.304 -0.185,-0.75 -0.416,-1.09c-0.306,-0.455 -0.969,-0.36 -1.143,0.145c-0.218,0.634 -0.246,1.311 0.024,1.933c0.093,0.216 0.429,0.455 0.653,0.454c0.223,-0.001 0.513,-0.247 0.649,-0.464c0.144,-0.231 0.141,-0.554 0.233,-0.978m-5.587,27.151c-0.387,0.245 -0.395,0.632 -0.507,0.961c-0.756,2.218 -1.814,4.281 -3.34,6.066c-1.102,1.287 -2.325,2.468 -3.44,3.744c-1.361,1.558 -3.043,2.273 -5.099,2.143c-0.221,-0.014 -0.443,-0.007 -0.664,0.001c-0.841,0.027 -1.629,-0.177 -2.28,-0.702c-1.203,-0.97 -2.382,-1.973 -3.548,-2.988c-0.284,-0.248 -0.588,-0.538 -0.601,-1.068c0.56,-0.061 1.054,-0.021 1.539,0.181c0.477,0.199 0.95,0.407 1.438,0.573c0.309,0.105 0.639,0.161 0.965,0.189c0.108,0.009 0.298,-0.118 0.326,-0.218c0.028,-0.1 -0.068,-0.312 -0.165,-0.357c-0.467,-0.216 -0.954,-0.388 -1.431,-0.583c-0.662,-0.271 -1.245,-0.648 -1.617,-1.281c-0.199,-0.337 -0.108,-0.622 0.253,-0.66c0.88,-0.095 1.773,-0.19 2.559,0.379c0.269,0.195 0.532,0.398 0.812,0.574c0.233,0.146 0.505,0.446 0.755,0.076c0.225,-0.332 -0.079,-0.53 -0.309,-0.714c-0.202,-0.161 -0.427,-0.298 -0.609,-0.478c-0.627,-0.618 -1.25,-1.243 -1.853,-1.884c-0.124,-0.131 -0.16,-0.343 -0.282,-0.626c0.788,0.054 1.314,0.394 1.861,0.671c0.394,0.199 0.784,0.405 1.192,0.569c0.085,0.034 0.257,-0.078 0.346,-0.167c0.035,-0.034 -0.018,-0.232 -0.084,-0.28c-0.962,-0.692 -1.956,-1.339 -3.173,-1.437c-0.289,-0.023 -0.675,0.118 -0.876,0.321c-0.274,0.28 -0.022,0.629 0.156,0.902c0.286,0.437 0.603,0.853 1.002,1.41c-0.45,0 -0.705,-0.012 -0.958,0.003c-0.256,0.015 -0.52,0.024 -0.765,0.092c-0.72,0.202 -0.94,0.609 -0.738,1.326c0.057,0.201 0.14,0.395 0.234,0.655c-0.299,0.025 -0.518,0.03 -0.732,0.063c-0.769,0.121 -0.964,0.444 -0.569,1.137c0.304,0.537 0.691,1.053 1.136,1.479c0.77,0.739 1.622,1.391 2.424,2.097c1.415,1.244 3.055,1.716 4.915,1.521c1.487,-0.157 2.92,-0.438 4.055,-1.526c1.813,-1.736 3.554,-3.542 5.055,-5.558c1.218,-1.634 2.152,-3.43 2.675,-5.419c0.099,-0.374 0.256,-0.76 -0.058,-1.187m10.374,-26.239c-0.346,-0.202 -0.491,-0.3 -0.647,-0.376c-0.448,-0.216 -0.611,-0.127 -0.637,0.338c-0.02,0.328 0.013,0.667 -0.061,0.982c-0.09,0.377 -0.319,0.676 -0.778,0.63c-0.468,-0.047 -0.692,-0.337 -0.712,-0.888c-0.005,-0.138 -0.029,-0.277 -0.059,-0.541c-0.246,0.194 -0.427,0.297 -0.555,0.445c-0.385,0.446 -0.761,0.9 -1.111,1.373c-0.086,0.116 -0.057,0.316 -0.08,0.478c0.166,-0.016 0.356,0.012 0.495,-0.059c0.185,-0.096 0.332,-0.267 0.509,-0.417c0.555,0.644 0.991,1.227 1.076,2.127c0.082,0.85 0.436,1.737 0.887,2.477c0.88,1.446 1.171,3.015 1.225,4.641c0.129,3.868 0.231,7.737 0.279,11.606c0.04,3.186 -0.513,6.307 -1.248,9.394c-0.097,0.408 -0.37,0.773 -0.551,1.164c-0.104,0.225 -0.226,0.455 -0.27,0.696c-0.147,0.795 -0.257,1.598 -0.39,2.396c-0.049,0.289 -0.137,0.571 -0.184,0.86c-0.133,0.823 -0.668,1.199 -1.442,1.276c-1.063,0.106 -2.137,0.317 -3.189,0.243c-3.205,-0.223 -6.013,0.86 -8.727,2.38c-0.769,0.43 -1.581,0.789 -2.393,1.136c-0.767,0.329 -1.605,0.39 -2.392,0.18c-2.319,-0.618 -4.586,-0.355 -6.891,0.124c-1.134,0.235 -2.343,0.146 -3.517,0.118c-0.419,-0.01 -0.874,-0.205 -1.239,-0.432c-0.758,-0.468 -1.568,-0.613 -2.431,-0.608c-1.113,0.007 -2.169,-0.27 -3.412,-0.628c0.44,-0.355 0.755,-0.577 1.026,-0.844c0.112,-0.111 0.208,-0.339 0.171,-0.474c-0.035,-0.122 -0.252,-0.237 -0.407,-0.272c-0.824,-0.19 -1.664,-0.321 -2.479,-0.54c-0.559,-0.15 -1.088,-0.409 -1.768,-0.673c0.294,-0.169 0.439,-0.278 0.602,-0.341c2.425,-0.937 4.263,-2.593 5.747,-4.682c0.298,-0.42 0.574,-0.857 0.854,-1.291c0.822,-1.277 1.766,-2.448 2.884,-3.484c0.947,-0.876 1.847,-1.802 2.79,-2.684c0.375,-0.35 0.776,-0.692 1.217,-0.949c2.563,-1.486 5.312,-2.366 8.296,-2.418c1.033,-0.019 2.068,-0.009 3.101,-0.034c1.633,-0.039 3.237,0.157 4.816,0.571c0.391,0.103 0.786,0.196 1.182,0.284c0.442,0.098 0.723,-0.01 0.971,-0.468c0.572,-1.065 0.836,-2.21 0.981,-3.376c0.15,-1.203 0.167,-2.422 0.246,-3.635c0.092,-1.449 -0.15,-2.869 -0.454,-4.27c-0.149,-0.676 -0.481,-1.311 -0.734,-1.962c-0.615,-1.578 -1.342,-3.123 -1.813,-4.741c-0.346,-1.186 -0.362,-2.467 -0.518,-3.707c-0.046,-0.366 -0.04,-0.739 -0.1,-1.101c-0.106,-0.638 -0.232,-0.705 -0.89,-0.668c-0.512,0.029 -1.026,0.025 -1.539,0.011c-0.079,-0.001 -0.201,-0.124 -0.217,-0.207c-0.017,-0.083 0.054,-0.241 0.126,-0.271c0.439,-0.183 0.888,-0.345 1.337,-0.503c0.34,-0.119 0.801,-0.118 0.84,-0.586c0.044,-0.545 -0.453,-0.612 -0.825,-0.727c-0.493,-0.15 -1.006,-0.229 -1.501,-0.374c-0.33,-0.096 -0.633,-0.27 -0.552,-0.699c0.073,-0.381 0.353,-0.591 0.713,-0.563c0.468,0.036 0.981,0.064 1.382,0.274c0.61,0.322 1.167,0.765 1.7,1.212c0.517,0.436 0.611,0.411 0.838,-0.268c0.173,-0.517 0.413,-1.014 0.648,-1.507c0.319,-0.669 0.915,-1.006 1.606,-0.997c1.212,0.014 2.445,0.032 3.626,0.267c0.636,0.127 1.244,0.638 1.757,1.096c1.187,1.061 2.146,2.651 2.785,4.486" style="fill:#fff;fill-rule:nonzero;"/><path d="M42.008,14.303c-0.012,1.574 -0.045,3.147 -0.127,4.719c-0.154,2.966 -0.455,5.93 -1.021,8.847c-0.545,2.806 -1.341,5.588 -2.598,8.162c-0.581,1.188 -1.255,2.34 -2.059,3.393c-0.777,1.016 -1.774,2.135 -3.003,2.593c-0.537,0.2 -1.129,0.226 -1.643,-0.048c-0.454,-0.242 -0.694,-0.576 -0.821,-1.06c-0.155,-0.593 -0.199,-1.202 -0.242,-1.81c-0.108,0.155 -0.205,0.314 -0.319,0.466c-1.5,2.014 -3.24,3.82 -5.053,5.557c-1.137,1.088 -2.568,1.369 -4.056,1.525c-1.859,0.196 -3.501,-0.276 -4.914,-1.52c-0.207,-0.181 -0.419,-0.355 -0.63,-0.532c-1.001,0.859 -2.429,1.184 -3.704,1.322c-1.458,0.158 -2.982,0.092 -4.397,-0.306c-0.106,-0.03 -0.188,-0.179 -0.146,-0.283c0.292,-0.716 0.684,-1.385 1.123,-2.021c-1.094,-0.035 -2.229,-0.192 -3.272,-0.555c-0.956,0.805 -2.032,1.464 -3.259,1.937c-0.164,0.064 -0.309,0.174 -0.601,0.341c0.678,0.264 1.208,0.524 1.767,0.674c0.817,0.219 1.655,0.349 2.479,0.54c0.155,0.036 0.373,0.15 0.407,0.272c0.038,0.135 -0.059,0.363 -0.172,0.475c-0.27,0.267 -0.584,0.488 -1.025,0.843c1.243,0.357 2.299,0.635 3.412,0.629c0.864,-0.006 1.674,0.138 2.43,0.607c0.367,0.228 0.821,0.421 1.241,0.432c1.172,0.028 2.383,0.118 3.517,-0.118c2.305,-0.479 4.571,-0.742 6.889,-0.123c0.789,0.209 1.626,0.148 2.393,-0.181c0.812,-0.347 1.624,-0.705 2.394,-1.135c2.714,-1.521 5.521,-2.605 8.726,-2.38c1.052,0.073 2.126,-0.138 3.188,-0.244c0.774,-0.077 1.31,-0.453 1.444,-1.275c0.047,-0.289 0.134,-0.572 0.183,-0.861c0.134,-0.798 0.244,-1.6 0.39,-2.396c0.045,-0.242 0.167,-0.471 0.271,-0.697c0.18,-0.39 0.452,-0.755 0.55,-1.162c0.735,-3.089 1.288,-6.21 1.248,-9.394c-0.047,-3.87 -0.151,-7.74 -0.278,-11.607c-0.042,-1.253 -0.228,-2.471 -0.712,-3.626" style="fill:#e4e5e6;fill-rule:nonzero;"/><path d="M29.824,38.636c0.187,-0.296 0.359,-0.607 0.517,-0.924c-0.001,-0.007 -0.002,-0.014 -0.003,-0.02c-0.022,-0.112 0.032,-0.18 0.107,-0.209c0.327,-0.712 0.563,-1.462 0.575,-2.244c-0.99,1.023 -1.807,2.22 -2.639,3.367c-0.894,1.231 -1.806,2.462 -2.891,3.535c-0.963,0.953 -2.132,1.813 -3.481,2.105c-1.468,0.318 -2.911,-0.437 -4.083,-1.246c-0.479,-0.331 -0.934,-0.696 -1.383,-1.066c-0.085,-0.021 -0.17,-0.038 -0.252,-0.066c-0.488,-0.165 -0.961,-0.374 -1.438,-0.572c-0.484,-0.203 -0.978,-0.242 -1.539,-0.181c0.012,0.53 0.317,0.82 0.601,1.068c1.166,1.015 2.345,2.018 3.548,2.988c0.651,0.525 1.439,0.729 2.28,0.701c0.221,-0.007 0.444,-0.014 0.664,0c2.056,0.13 3.738,-0.585 5.099,-2.143c1.009,-1.154 2.098,-2.239 3.113,-3.387c0.419,-0.555 0.834,-1.116 1.205,-1.706" style="fill:#e4e5e6;fill-rule:nonzero;"/><path d="M52.142,4.592c0.109,-0.935 -0.327,-1.725 -1.11,-2.116c-0.163,-0.08 -0.354,-0.105 -0.523,-0.178c-0.423,-0.185 -0.598,-0.569 -0.439,-0.973c0.152,-0.389 0.509,-0.465 0.824,-0.344c0.647,0.247 1.326,0.485 1.881,0.881c1.279,0.915 1.691,2.321 1.229,3.805c-0.42,1.344 -1.144,2.512 -2.346,3.249c-1.439,0.883 -2.95,1.651 -4.453,2.428c-0.88,0.454 -1.869,0.482 -2.814,0.339c-0.631,-0.097 -1.307,-0.344 -1.811,-0.724c-0.691,-0.52 -1.24,-1.232 -1.89,-1.902c0.511,-0.216 0.996,-0.307 1.313,-0.587c0.308,-0.273 0.445,-0.74 0.67,-1.144c1.742,0.147 3.32,-0.278 4.572,-1.581c0.841,-0.877 1.648,-1.786 2.451,-2.697c0.448,-0.512 0.669,-0.589 1.171,-0.173c0.304,0.252 0.537,0.596 0.779,0.916c0.171,0.228 0.303,0.485 0.496,0.801" style="fill:#ffd65e;fill-rule:nonzero;"/><path d="M43.098,14.784c-0.839,-1.142 -1.551,-2.762 -1.603,-3.721c0.901,0.806 1.891,1.324 3.082,1.364c-0.206,0.719 -0.914,1.832 -1.479,2.357" style="fill:#f9a456;fill-rule:nonzero;"/><path d="M32.793,32.958c0.314,0.427 0.157,0.813 0.058,1.188c-0.523,1.987 -1.457,3.784 -2.675,5.419c-1.501,2.014 -3.242,3.821 -5.054,5.557c-1.136,1.088 -2.569,1.369 -4.055,1.526c-1.86,0.195 -3.501,-0.277 -4.916,-1.521c-0.802,-0.706 -1.654,-1.358 -2.423,-2.097c-0.445,-0.426 -0.832,-0.942 -1.137,-1.479c-0.394,-0.693 -0.2,-1.016 0.57,-1.137c0.214,-0.033 0.432,-0.038 0.731,-0.063c-0.093,-0.26 -0.176,-0.454 -0.234,-0.655c-0.201,-0.717 0.018,-1.124 0.738,-1.325c0.245,-0.069 0.509,-0.078 0.765,-0.093c0.254,-0.015 0.508,-0.003 0.959,-0.003c-0.399,-0.557 -0.717,-0.973 -1.002,-1.411c-0.179,-0.272 -0.43,-0.621 -0.157,-0.901c0.201,-0.203 0.587,-0.344 0.876,-0.32c1.217,0.097 2.212,0.744 3.173,1.436c0.066,0.049 0.119,0.246 0.084,0.28c-0.089,0.089 -0.261,0.202 -0.345,0.167c-0.408,-0.164 -0.799,-0.371 -1.193,-0.569c-0.547,-0.277 -1.073,-0.617 -1.861,-0.671c0.123,0.283 0.159,0.495 0.282,0.626c0.603,0.641 1.226,1.266 1.853,1.884c0.183,0.18 0.407,0.317 0.609,0.478c0.23,0.184 0.534,0.381 0.309,0.714c-0.25,0.37 -0.521,0.069 -0.754,-0.076c-0.281,-0.176 -0.544,-0.379 -0.813,-0.574c-0.786,-0.569 -1.679,-0.473 -2.558,-0.379c-0.361,0.038 -0.453,0.323 -0.253,0.66c0.371,0.634 0.954,1.01 1.617,1.281c0.476,0.195 0.964,0.368 1.431,0.584c0.096,0.044 0.193,0.256 0.164,0.356c-0.027,0.1 -0.218,0.227 -0.326,0.218c-0.326,-0.028 -0.656,-0.084 -0.965,-0.189c-0.487,-0.166 -0.961,-0.374 -1.438,-0.573c-0.484,-0.202 -0.978,-0.242 -1.539,-0.181c0.013,0.53 0.317,0.82 0.602,1.069c1.166,1.015 2.344,2.017 3.547,2.987c0.651,0.525 1.439,0.73 2.28,0.702c0.221,-0.007 0.444,-0.015 0.664,-0.001c2.056,0.13 3.739,-0.585 5.099,-2.142c1.115,-1.277 2.339,-2.459 3.44,-3.745c1.526,-1.785 2.585,-3.847 3.34,-6.066c0.112,-0.329 0.12,-0.716 0.507,-0.961" style="fill:#231f20;fill-rule:nonzero;"/><path d="M38.38,5.806c-0.092,0.424 -0.089,0.747 -0.233,0.978c-0.135,0.216 -0.425,0.464 -0.649,0.465c-0.223,0 -0.56,-0.239 -0.653,-0.456c-0.269,-0.621 -0.242,-1.297 -0.023,-1.932c0.173,-0.505 0.837,-0.6 1.143,-0.146c0.231,0.341 0.305,0.787 0.415,1.091" style="fill:#231f20;fill-rule:nonzero;"/><path d="M40.02,3.218c0.33,0.325 0.673,0.585 0.911,0.919c0.232,0.326 0.341,0.732 0.099,1.127c-0.216,0.35 -0.691,0.371 -1.037,0.055c-0.334,-0.305 -0.549,-1.295 -0.353,-1.731c0.05,-0.113 0.188,-0.188 0.38,-0.37" style="fill:#231f20;fill-rule:nonzero;"/><path d="M51.534,6.28c-0.085,0.056 -0.17,0.113 -0.254,0.169c-1.094,0.718 -2.406,1.267 -3.405,2.05c1.264,1.539 3.235,-1.09 3.659,-2.219" style="fill:#e4e5e6;fill-rule:nonzero;"/></g></svg>