<?xml version="1.0" encoding="UTF-8" standalone="no"?><!DOCTYPE svg PUBLIC "-//W3C//DTD SVG 1.1//EN" "http://www.w3.org/Graphics/SVG/1.1/DTD/svg11.dtd"><svg width="100%" height="100%" viewBox="0 0 29 23" version="1.1" xmlns="http://www.w3.org/2000/svg" xmlns:xlink="http://www.w3.org/1999/xlink" xml:space="preserve" xmlns:serif="http://www.serif.com/" style="fill-rule:evenodd;clip-rule:evenodd;stroke-linejoin:round;stroke-miterlimit:2;"><g><path d="M25.15,13.781c0.236,1.317 0.421,2.538 0.002,3.769c0.987,-0.999 1.751,-2.102 2.109,-3.536c-0.7,-0.078 -1.339,-0.148 -2.111,-0.233m-5.409,7.992c0.46,-0.117 0.72,-0.134 0.932,-0.245c1.631,-0.859 3.019,-1.941 3.625,-3.798c0.323,-0.991 0.619,-1.943 0.394,-3.019c-0.262,-1.256 -0.592,-1.665 -1.888,-1.972c0,0.984 -0.001,1.973 0,2.963c0.003,1.856 -0.642,3.456 -1.896,4.819c-0.324,0.351 -0.651,0.699 -1.167,1.252m0.58,-12.475c-0.046,-0.412 -0.106,-0.733 -0.113,-1.055c-0.022,-1.133 -0.193,-2.283 0.502,-3.321c0.313,-0.467 0.135,-1.005 0.007,-1.503c-0.15,-0.591 -0.323,-0.757 -0.914,-0.745c-1.329,0.027 -2.53,0.426 -3.563,1.294c-0.487,0.409 -0.634,0.938 -0.428,1.488c0.256,0.684 0.565,1.367 0.974,1.966c0.276,0.403 0.725,0.745 1.169,0.965c0.72,0.355 1.499,0.585 2.366,0.911m2.771,-2.03c0.954,-0.064 1.474,-0.894 2.493,-0.758c-1.028,0.684 -2.095,0.992 -2.822,1.82c0.784,0.001 1.406,-0.6 2.374,-0.517c-0.299,0.217 -0.448,0.366 -0.627,0.448c-0.4,0.187 -0.818,0.334 -1.224,0.508c-0.906,0.394 -0.905,0.396 -0.879,1.395c0.005,0.183 0.007,0.368 0.033,0.55c0.048,0.321 0.217,0.443 0.541,0.313c1.546,-0.624 3.027,-1.363 4.24,-2.533c0.282,-0.271 0.564,-0.618 0.671,-0.982c0.44,-1.489 -0.469,-2.97 -2.017,-3.239c-1.252,-0.216 -2.506,-0.074 -3.686,0.423c-0.88,0.37 -1.433,1.022 -1.406,2.042c0.021,0.809 0.083,1.618 0.064,2.427c-0.016,0.636 0.234,1.045 0.918,1.347c-0.048,-1.203 0.066,-2.325 0.699,-3.327c0.608,-0.963 1.29,-1.835 2.495,-2.149c-0.592,0.708 -1.183,1.415 -1.867,2.232m-0.841,6.979c0.235,-0.726 -0.49,-1.631 -0.597,-2.644c-0.01,-0.095 -0.111,-0.189 -0.189,-0.265c-1.034,-1.018 -2.141,-1.939 -3.604,-2.257c-0.862,-0.186 -1.741,-0.299 -2.616,-0.414c-1.044,-0.138 -2.011,0.125 -2.765,0.847c-0.713,0.68 -1.445,1.396 -1.952,2.227c-1.228,2.012 -1.319,4.154 -0.444,6.357c0.545,1.374 1.438,2.386 2.772,3.008c1.425,0.666 2.938,0.944 4.503,0.973c0.692,0.014 1.288,-0.211 1.813,-0.679c0.974,-0.867 1.808,-1.841 2.378,-3.018c0.176,-0.36 0.342,-0.747 0.399,-1.139c0.128,-0.873 0.183,-1.756 0.302,-2.996m-5.976,-6.221c-0.363,-0.757 -0.774,-1.458 -1.041,-2.21c-0.395,-1.108 -0.152,-1.806 0.772,-2.526c1.151,-0.897 2.487,-1.273 3.929,-1.249c0.832,0.014 1.164,0.328 1.387,1.151c0.086,0.315 0.173,0.629 0.257,0.937c0.844,-0.167 1.628,-0.348 2.419,-0.472c0.922,-0.143 1.822,-0.062 2.725,0.244c2.01,0.68 2.516,3.85 1.005,5.047c-1.07,0.85 -2.089,1.754 -3.412,2.213c-0.404,0.14 -0.782,0.361 -1.301,0.606c1.352,1.082 2.677,1.684 4.277,1.584c0.663,-0.041 0.857,0.126 0.661,0.734c-0.28,0.868 -0.617,1.743 -1.092,2.516c-1.172,1.907 -2.77,3.424 -4.564,4.761c-1.108,0.825 -2.334,1.274 -3.675,1.381c-1.973,0.157 -3.895,-0.092 -5.743,-0.861c-1.747,-0.726 -2.899,-1.976 -3.516,-3.748c-0.883,-2.535 -0.605,-4.928 0.865,-7.18c0.101,-0.154 0.26,-0.293 0.296,-0.461c0.04,-0.183 0.044,-0.462 -0.065,-0.579c-1.675,-1.792 -3.621,-3.129 -6.114,-3.501c-0.292,-0.044 -0.586,-0.081 -0.878,-0.111c-1.157,-0.118 -1.902,0.302 -2.412,1.354c-0.29,0.602 -0.232,0.833 0.32,1.192c0.182,0.118 0.379,0.213 0.586,0.329c-0.506,0.386 -0.77,0.406 -1.251,0.131c-0.464,-0.265 -0.683,-0.664 -0.628,-1.194c0.135,-1.278 1.579,-2.57 2.897,-2.573c2.808,-0.008 5.144,1.131 7.173,2.992c0.19,0.174 0.352,0.382 0.555,0.538c0.219,0.169 0.581,0.474 0.687,0.408c0.418,-0.258 0.954,-0.459 1.048,-1.053c0.017,-0.107 0.015,-0.224 -0.006,-0.33c-0.29,-1.522 -0.561,-3.053 -1.389,-4.399c-0.966,-1.574 -2.418,-2.446 -4.211,-2.766c-0.566,-0.1 -1.128,-0.1 -1.343,0.621c-0.019,0.062 -0.185,0.136 -0.255,0.115c-0.088,-0.028 -0.186,-0.137 -0.213,-0.229c-0.162,-0.546 0.199,-1.112 0.842,-1.172c0.617,-0.057 1.275,-0.089 1.866,0.061c2.127,0.539 3.737,1.784 4.514,3.869c0.406,1.094 0.582,2.274 0.831,3.422c0.127,0.586 0.111,0.572 0.699,0.525c0.831,-0.068 1.668,-0.081 2.498,-0.117" style="fill:#231f20;fill-rule:nonzero;"/><path d="M11.692,12.017c0.16,0.211 0.279,0.509 0.495,0.625c0.331,0.177 0.656,0.002 0.824,-0.324c0.148,-0.286 0.279,-0.598 0.331,-0.914c0.066,-0.391 -0.211,-0.589 -0.555,-0.701c-0.335,-0.11 -0.594,0.02 -0.737,0.306c-0.144,0.287 -0.219,0.606 -0.358,1.008m5.329,0.356c0.013,-0.689 -0.26,-1.227 -0.64,-1.263c-0.448,-0.042 -0.916,0.47 -1.017,1.118c-0.102,0.642 0.239,1.412 0.657,1.484c0.499,0.088 0.987,-0.565 1,-1.339m-4.398,6.636c0.221,0.524 0.536,0.8 0.994,0.887c0.668,0.127 1.313,0.093 1.899,-0.322c0.717,-0.51 1.194,-1.18 1.456,-2.015c0.059,-0.184 0.049,-0.46 0.399,-0.383c0.115,0.026 0.253,-0.053 0.381,-0.084c-0.07,-0.157 -0.098,-0.368 -0.218,-0.463c-0.503,-0.399 -1.126,-0.286 -1.843,0.294c0.212,0.208 0.887,-0.058 0.66,0.589c-0.291,0.83 -0.839,1.457 -1.646,1.837c-0.698,0.331 -1.277,0.042 -1.831,-0.364c-0.02,-0.015 -0.065,0.005 -0.251,0.024m9.628,-4.762c-0.119,1.24 -0.175,2.123 -0.303,2.996c-0.057,0.392 -0.223,0.778 -0.399,1.14c-0.57,1.176 -1.404,2.149 -2.378,3.017c-0.524,0.468 -1.121,0.693 -1.813,0.679c-1.565,-0.029 -3.077,-0.307 -4.503,-0.973c-1.334,-0.623 -2.227,-1.635 -2.772,-3.008c-0.874,-2.203 -0.784,-4.345 0.444,-6.357c0.508,-0.831 1.239,-1.547 1.952,-2.228c0.754,-0.721 1.721,-0.984 2.766,-0.846c0.874,0.115 1.754,0.228 2.615,0.414c1.463,0.318 2.57,1.239 3.605,2.258c0.077,0.076 0.178,0.169 0.189,0.263c0.106,1.013 0.831,1.918 0.597,2.645" style="fill:#ffdd18;fill-rule:nonzero;"/><path d="M23.092,7.268c0.683,-0.817 1.275,-1.524 1.867,-2.232c-1.205,0.314 -1.886,1.187 -2.496,2.15c-0.632,1.001 -0.746,2.123 -0.698,3.326c-0.683,-0.302 -0.934,-0.711 -0.919,-1.347c0.019,-0.808 -0.041,-1.618 -0.063,-2.427c-0.027,-1.021 0.527,-1.672 1.407,-2.042c1.178,-0.497 2.432,-0.64 3.685,-0.423c1.547,0.269 2.457,1.749 2.017,3.24c-0.107,0.364 -0.389,0.71 -0.671,0.981c-1.214,1.17 -2.695,1.909 -4.24,2.533c-0.325,0.131 -0.494,0.008 -0.541,-0.313c-0.027,-0.182 -0.028,-0.367 -0.033,-0.55c-0.026,-0.998 -0.027,-1.001 0.879,-1.394c0.405,-0.175 0.825,-0.323 1.224,-0.508c0.179,-0.083 0.328,-0.231 0.627,-0.448c-0.968,-0.083 -1.59,0.516 -2.374,0.515c0.726,-0.826 1.795,-1.135 2.822,-1.819c-1.019,-0.137 -1.538,0.694 -2.493,0.758" style="fill:#fff;fill-rule:nonzero;"/><path d="M18.772,6.644c-0.482,-1.64 -0.482,-1.64 -1.004,-2.058c0.045,0.386 0.086,0.731 0.137,1.16c-0.374,-0.166 -0.636,-0.291 -0.905,-0.395c-0.049,-0.019 -0.177,0.031 -0.187,0.071c-0.022,0.087 -0.03,0.235 0.022,0.274c0.26,0.203 0.55,0.368 0.813,0.568c0.197,0.149 0.412,0.302 0.542,0.504c0.169,0.26 0.146,0.77 0.534,0.712c0.236,-0.035 0.43,-0.456 0.613,-0.723c0.165,-0.243 0.314,-0.504 0.422,-0.775c0.086,-0.217 0.1,-0.464 0.147,-0.697c-0.4,-0.078 -0.452,0.281 -0.607,0.495c-0.165,0.23 -0.298,0.485 -0.527,0.864m1.549,2.654c-0.867,-0.326 -1.647,-0.557 -2.365,-0.91c-0.445,-0.221 -0.894,-0.563 -1.169,-0.966c-0.411,-0.599 -0.719,-1.282 -0.976,-1.966c-0.206,-0.55 -0.059,-1.078 0.429,-1.487c1.032,-0.869 2.235,-1.268 3.563,-1.295c0.591,-0.012 0.763,0.153 0.914,0.745c0.127,0.499 0.306,1.036 -0.007,1.504c-0.695,1.038 -0.523,2.187 -0.501,3.32c0.005,0.322 0.066,0.643 0.112,1.055" style="fill:#fff;fill-rule:nonzero;"/><path d="M19.74,21.774c0.516,-0.554 0.844,-0.902 1.167,-1.252c1.253,-1.362 1.899,-2.963 1.897,-4.819c-0.002,-0.99 -0.001,-1.98 -0.001,-2.963c1.296,0.307 1.626,0.716 1.889,1.972c0.224,1.076 -0.072,2.028 -0.396,3.019c-0.605,1.857 -1.993,2.939 -3.624,3.797c-0.211,0.111 -0.471,0.129 -0.932,0.246" style="fill:#231f20;fill-rule:nonzero;"/><path d="M25.15,13.781c0.772,0.085 1.411,0.155 2.111,0.233c-0.358,1.434 -1.122,2.537 -2.109,3.536c0.419,-1.231 0.234,-2.452 -0.002,-3.769" style="fill:#ffdd18;fill-rule:nonzero;"/><path d="M12.624,19.009c0.186,-0.019 0.231,-0.039 0.25,-0.024c0.555,0.406 1.134,0.695 1.832,0.365c0.806,-0.381 1.355,-1.009 1.646,-1.838c0.226,-0.646 -0.449,-0.38 -0.661,-0.59c0.718,-0.58 1.341,-0.692 1.843,-0.293c0.12,0.094 0.149,0.306 0.219,0.464c-0.127,0.03 -0.266,0.11 -0.38,0.084c-0.35,-0.078 -0.342,0.197 -0.399,0.382c-0.263,0.835 -0.74,1.505 -1.457,2.014c-0.586,0.417 -1.231,0.45 -1.898,0.323c-0.458,-0.086 -0.774,-0.363 -0.995,-0.887" style="fill:#231f20;fill-rule:nonzero;"/><path d="M17.022,12.374c-0.014,0.774 -0.501,1.427 -1,1.339c-0.418,-0.073 -0.759,-0.842 -0.658,-1.484c0.102,-0.647 0.569,-1.161 1.017,-1.118c0.381,0.036 0.654,0.573 0.641,1.263" style="fill:#231f20;fill-rule:nonzero;"/><path d="M11.692,12.017c0.139,-0.402 0.214,-0.721 0.358,-1.008c0.143,-0.286 0.402,-0.416 0.737,-0.306c0.344,0.112 0.621,0.31 0.555,0.701c-0.052,0.316 -0.183,0.628 -0.331,0.914c-0.168,0.326 -0.493,0.501 -0.824,0.324c-0.216,-0.116 -0.335,-0.414 -0.495,-0.625" style="fill:#231f20;fill-rule:nonzero;"/><path d="M18.772,6.644c0.229,-0.379 0.362,-0.634 0.527,-0.864c0.155,-0.214 0.207,-0.573 0.607,-0.495c-0.047,0.233 -0.061,0.48 -0.147,0.697c-0.108,0.271 -0.257,0.532 -0.422,0.775c-0.183,0.267 -0.377,0.688 -0.613,0.723c-0.388,0.058 -0.365,-0.452 -0.534,-0.712c-0.13,-0.202 -0.345,-0.355 -0.542,-0.504c-0.263,-0.2 -0.553,-0.365 -0.813,-0.568c-0.052,-0.039 -0.044,-0.187 -0.022,-0.274c0.01,-0.04 0.138,-0.09 0.187,-0.071c0.269,0.104 0.531,0.229 0.905,0.395c-0.051,-0.429 -0.092,-0.774 -0.137,-1.16c0.522,0.418 0.522,0.418 1.004,2.058" style="fill:#231f20;fill-rule:nonzero;"/><path d="M10.5,13.721c-1.246,1.765 -0.558,4.566 1.363,5.554c-0.914,-1.995 -1.291,-4.234 -1.081,-6.419" style="fill:#fff;fill-rule:nonzero;"/></g></svg>