<svg clip-rule="evenodd" fill-rule="evenodd" stroke-linejoin="round" stroke-miterlimit="2" viewBox="0 0 51 41" xmlns="http://www.w3.org/2000/svg"><g fill-rule="nonzero"><path d="m18.339 29.036c1.225.513 2.389 1.001 3.643 1.527.129-.485.259-.897.349-1.318.279-1.303.226-1.162-1.038-1.578-1.357-.446-2.147.063-2.837 1.088-.039.059-.056.132-.117.281m-2.712 2.498c1.049.455 2.055.885 3.054 1.33.47.209.934.434 1.387.68.323.175.546.157.703-.203.237-.539.481-1.075.732-1.607.128-.272.125-.513-.166-.652-.996-.47-1.99-.944-3.003-1.376-.399-.17-.77-.044-1.093.292-.509.528-1.06 1.013-1.614 1.536m.43 7.864c.32-.133.834-.314 1.313-.563.307-.159.364-.422.078-.711-.92-.928-1.915-1.696-3.284-1.831-.618-.061-1.226-.22-1.839-.323-.777-.133-1.103.16-.787.859.47 1.039 1.098 2.022 2.341 2.288.641.136 1.304.172 2.178.281m-4.379-3.895c1.492-.068 2.775.232 4.049.584.742.204 1.261.735 1.823 1.209.662.557.731.556 1.164-.143.427-.687.815-1.398 1.203-2.108.289-.527.279-.705-.239-.981-1.104-.584-2.218-1.163-3.376-1.626-.591-.237-1.329-.373-1.907.071-1.047.805-2.039 1.681-2.717 2.994m16.065-12.358c-.028-.404-.025-.813-.09-1.212-.103-.637-.277-.713-.884-.505-.347.119-.702.273-1.059.285-.883.031-1.777.06-2.652-.042-.915-.106-1.822-.366-2.531-1.011-.627-.57-.565-.64-1.391-.077-.362.248-.754.503-1.006.845-.247.337-.367.782-.479 1.196-.067.25.006.556.321.616.603.114.59.53.601.999.009.394.014.845.203 1.166.852 1.455 2.386 1.984 4.067 1.478.101-.03.22-.087.308-.061.874.263 1.477-.287 2.083-.73.416-.304.727-.706 1.345-.593.179.032.456-.203.615-.38.505-.56.58-1.254.549-1.974m-8.116-6.634c0 .147.021.297-.003.44-.275 1.646 1.35 3.533 3.005 3.809.688.114 1.388.136 2.083.206 1.707.171 3.749-1.251 4.234-2.903.296-1.01.297-2.033.229-3.057-.052-.802-.376-1.49-1.191-1.839-.199-.085-.415-.201-.546-.364-.56-.694-1.364-.819-2.158-.983-2.242-.459-6.126 1.653-5.653 4.691m-9.263 13.619c1.062.16 2.103-.113 3.039-.804.175-.129.395-.199.584-.313 1.196-.726 2.397-1.442 3.574-2.194.299-.191.613-.468.738-.779.078-.194-.215-.517-.284-.796-.068-.281-.083-.58-.087-.872-.005-.273-.017-.531-.32-.631-.656-.219-.627-.757-.58-1.274.065-.728.412-1.339.958-1.812.346-.299.394-.591.143-.953-.438-.634-.837-1.301-1.324-1.896-1.747-2.139-3.515-4.262-5.295-6.374-.616-.731-1.268-1.435-1.95-2.105-.804-.79-1.824-1.09-2.934-1.065-.943.021-1.388.357-1.547 1.258-.167.945-.23 1.911.138 2.835 1.001 2.511 2.348 4.765 4.783 6.159 1.792 1.026 3.198 2.471 4.492 4.044.402.489.418.703-.05 1.123-1.015.91-2.055 1.783-3.357 2.291-.718.28-1.412.632-2.092.998-.593.32-1.067.785-1.357 1.41-.249.535-.175.733.257 1.155.685.669 1.527.641 2.471.595m30.94-15.931c-.763.171-1.654.276-2.478.57-2.775.989-5.527 2.045-8.288 3.075-.426.159-.731.404-.957.843-.299.578-.702 1.116-1.138 1.603-.31.345-.407.622-.254 1.076.321.959.403 1.973.113 2.94-.283.945-.632 1.933-1.933 1.907-.132-.003-.303.067-.393.162-.607.64-1.415.93-2.198 1.237-.474.187-.522.442-.373.846.354.955.938 1.749 1.711 2.403.985.833 1.956 1.685 2.98 2.467.487.373 1.068.639 1.637.883.247.106.585.093.858.031.36-.082.56-.349.443-.751-.052-.176-.114-.35-.193-.515-.686-1.425-1.376-2.848-2.064-4.272-.048-.099-.1-.198-.136-.302-.17-.497-.099-.754.364-1.014.546-.306 1.119-.565 1.677-.847 1.446-.731 2.94-1.383 4.323-2.218 1.605-.97 3.073-2.163 4.67-3.147 1.811-1.114 2.738-2.838 3.519-4.685.452-1.069.091-1.773-1.016-2.131-.242-.078-.503-.094-.874-.161m-18.12 15.067c-.675 1.127-.785 2.106.195 2.999.135.121.222.293.33.444.407.567.73 1.229 1.237 1.684 1.54 1.383 3.232 2.579 5.079 3.521 1.363.697 2.811.874 4.291.378.965-.322 1.33-.79 1.299-1.798-.06-1.888-.627-3.615-1.789-5.126-.405-.526-.859-1.018-1.224-1.568-.503-.758-.419-1.032.401-1.466 2.77-1.464 5.505-3.007 8.336-4.343 2.892-1.365 4.969-3.499 6.626-6.151 1.578-2.524 1.595-5.135.561-7.836-.253-.663-.684-1.158-1.353-1.366-2.103-.651-4.229-1.076-6.402-.327-1.114.384-2.23.774-3.32 1.223-2.62 1.079-4.993 2.541-6.899 4.677-.212.24-.468.532-.499.822-.074.683-.024 1.377-.024 2.146.325-.081.608-.125.871-.224 2.177-.811 4.348-1.638 6.525-2.446.656-.244 1.316-.502 1.996-.65.751-.163 1.544-.357 2.29-.272 1.878.214 2.864 1.382 2.069 3.32-.014.034-.03.067-.046.101-.335.656-.671 1.313-1.006 1.969-.463.906-1.138 1.625-1.957 2.22-.655.478-1.281 1.002-1.96 1.444-1.606 1.044-3.208 2.101-4.867 3.059-1.145.663-2.382 1.17-3.577 1.749-.231.113-.458.238-.687.356-.336.175-.365.428-.188.735.055.096.111.192.158.292.63 1.331 1.285 2.65 1.877 3.999.514 1.171-.05 2.006-1.31 1.98-.395-.008-.833-.058-1.174-.235-.615-.322-1.23-.691-1.743-1.153-1.444-1.297-3.161-2.32-4.116-4.157m-12.618 1.552c-.486 0-.82-.018-1.151.004-.749.052-1.365-.246-1.932-.692-.746-.586-.954-1.202-.506-2.024.291-.534.698-1.07 1.186-1.416.746-.526 1.577-.962 2.426-1.303 1.085-.436 2.012-1.078 2.885-1.823.518-.441.5-.451.105-.96-1.028-1.326-2.23-2.459-3.69-3.298-2.593-1.488-4.159-3.8-5.277-6.485-.519-1.245-.566-2.509-.162-3.785.307-.97.959-1.423 1.964-1.477 1.648-.088 3.051.411 4.162 1.657.271.303.56.589.816.904 1.535 1.888 3.059 3.786 4.597 5.673.995 1.223 2.221 2.283 2.669 3.886.071.255.298.301.537.178.24-.126.259-.294.163-.545-.21-.544-.51-1.096-.536-1.657-.045-.984.095-1.976.138-2.966.012-.248.013-.531-.094-.743-.829-1.643-1.555-3.344-2.725-4.799-.623-.775-1.168-1.612-1.748-2.421-.924-1.288-1.749-2.647-2.907-3.757-2.145-2.055-4.565-2.553-7.322-1.381-1.159.493-2.002 1.255-2.282 2.512-.217.968-.432 1.943-.542 2.927-.278 2.463-.017 4.825 1.189 7.074 1.544 2.877 3.196 5.651 5.675 7.844.274.242.515.533.719.837.262.392.139.681-.318.851-.102.038-.215.049-.323.074-1.91.437-3.573 1.374-5.108 2.551-.584.448-1.165.917-1.663 1.455-.819.884-.849 1.813-.168 2.822.726 1.076 1.724 1.81 2.946 2.232.627.216 1.259.444 1.907.575 1.547.311 3.076.751 4.693.621.738-.059 1.34-.232 1.819-.842.291-.372.687-.671 1.067-.96 1.71-1.297 3.241-2.787 4.704-4.351.202-.215.423-.411.611-.637.05-.059.047-.222-.001-.285-.052-.067-.188-.107-.281-.098-.101.01-.213.072-.291.143-1.411 1.281-3.179 1.998-4.756 3.018-1.031.669-2.114 1.032-3.195.867m11.605 1.086c-.397.828-.669 1.427-.966 2.014-.835 1.643-1.653 3.295-2.802 4.756-.528.672-1.207 1.083-2.021 1.265-1.964.437-4.317-.652-5.257-2.423-.288-.541-.36-1.118-.193-1.715.097-.345.195-.688.307-1.084-2.411.094-4.637-.525-6.858-1.182-1.349-.399-2.469-1.139-3.358-2.229-1.199-1.469-1.163-3.029.207-4.343 1.72-1.651 3.687-2.938 5.971-3.701.27-.09.532-.202.902-.344-.483-.483-.891-.904-1.31-1.311-2.535-2.464-4.192-5.5-5.598-8.685-.652-1.475-.796-3.045-.657-4.658.116-1.358.198-2.715.512-4.05.384-1.642 1.349-2.721 2.906-3.361 2.995-1.232 5.927-.672 8.128 1.61.587.607 1.136 1.261 1.635 1.944.956 1.31 1.841 2.673 2.797 3.984 1.182 1.618 2.156 3.342 2.793 5.337.192-.17.339-.271.45-.402.855-1.018 1.912-1.738 3.187-2.102.56-.159.917-.414.974-1.027.034-.364.18-.722.184-1.084.023-1.807.043-3.615.01-5.421-.016-.888-.311-1.739-1.232-2.045-1.038-.343-2.116-.456-2.965.512-.17.193-.319.41-.509.582-1.045.945-.981 2.171-.83 3.392.09.73.663 1.189 1.267 1.152.597-.037 1.061-.561 1.147-1.296.08-.675-.1-1.119-.539-1.332-.468-.228-.822-.014-.796.494.008.144.094.284.101.428.005.09-.048.228-.117.266-.078.042-.222.027-.308-.016-.385-.193-.566-.591-.484-1.012.108-.565.506-.952 1.031-1.004.821-.082 1.607.525 1.739 1.37.093.6-.007 1.176-.293 1.716-.35.659-.903.926-1.639.905-.701-.02-1.207-.334-1.494-.957-.438-.949-.419-1.964-.135-2.921.371-1.251 1.314-2.102 2.352-2.84 2.207-.514 4.175-.253 4.329 2.489.127 2.272.294 4.568-.209 6.831-.098.442.087.605.501.641.439.037.876.104 1.419.171.171-.678.366-1.374.519-2.078.427-1.957 1.124-3.815 2.021-5.601.471-.938 1.089-1.746 1.961-2.357 1.887-1.323 4.411-.374 4.819 1.882.315 1.731.051 3.382-1.122 4.793-.516.619-1.108 1.066-1.967 1.072-1.129.006-2.001-.768-2.143-1.948-.135-1.116.588-2.208 1.643-2.397.252-.045.602.045.798.206.294.24.392.623.221 1.006-.038.083-.154.178-.235.18-.077.002-.18-.097-.23-.178-.11-.178-.22-.54-.282-.53-.273.044-.569.143-.781.314-.646.529-.692 1.476-.147 2.183.483.63 1.393.736 2.068.202.746-.591 1.234-1.392 1.485-2.288.262-.931.256-1.911-.022-2.84-.433-1.447-2.098-2.045-3.415-1.254-.774.465-1.353 1.127-1.797 1.915-1.283 2.271-2.037 4.731-2.636 7.248-.122.514-.08.925.481 1.196.428.206.846.479 1.181.811.411.405.731.901 1.002 1.248.534-.473 1.092-.95 1.63-1.446 2.506-2.307 5.572-3.557 8.728-4.64 1.234-.423 2.497-.708 3.801-.542.985.125 1.958.349 2.929.562 1.188.262 1.908 1.047 2.322 2.159.991 2.665.944 5.248-.497 7.772-1.687 2.957-3.883 5.327-7.033 6.804-2.636 1.236-5.189 2.65-7.764 4.013-.962.509-.989.606-.221 1.422 1.117 1.188 1.88 2.557 2.249 4.126.191.817.257 1.669.314 2.509.076 1.119-.546 1.825-1.544 2.164-1.874.637-3.757.553-5.45-.47-1.668-1.008-3.233-2.19-4.805-3.348-.401-.295-.671-.773-.974-1.188-.431-.591-.836-1.201-1.386-1.996" fill="#231f20"/><path d="m10.566 30.818c1.08.164 2.163-.199 3.195-.866 1.576-1.021 3.345-1.737 4.755-3.019.079-.071.19-.133.291-.143.093-.009.229.03.282.099.048.062.051.225.001.284-.189.225-.409.422-.611.637-1.463 1.564-2.994 3.053-4.704 4.352-.38.289-.777.587-1.068.958-.478.611-1.081.783-1.818.843-1.617.13-3.146-.309-4.694-.621-.648-.13-1.279-.358-1.906-.575-1.222-.423-2.22-1.157-2.947-2.233-.68-1.007-.651-1.936.169-2.822.497-.537 1.079-1.006 1.663-1.453 1.535-1.178 3.198-2.115 5.107-2.553.108-.025.222-.034.324-.073.456-.171.579-.46.317-.851-.203-.303-.445-.595-.718-.837-2.479-2.193-4.132-4.966-5.675-7.844-1.207-2.25-1.468-4.611-1.19-7.075.111-.983.326-1.958.542-2.926.28-1.257 1.124-2.019 2.283-2.512 2.757-1.172 5.177-.674 7.322 1.381 1.157 1.11 1.982 2.47 2.906 3.756.581.809 1.126 1.647 1.749 2.422 1.17 1.455 1.895 3.156 2.725 4.799.106.211.105.496.094.743-.044.989-.184 1.982-.139 2.967.027.559.326 1.112.536 1.656.097.251.077.42-.163.544-.238.124-.465.078-.536-.177-.448-1.602-1.674-2.663-2.67-3.886-1.538-1.887-3.062-3.785-4.597-5.673-.256-.314-.545-.601-.815-.904-1.112-1.245-2.515-1.745-4.163-1.657-1.004.055-1.657.506-1.963 1.478-.404 1.275-.357 2.539.161 3.784 1.118 2.685 2.685 4.996 5.278 6.485 1.459.838 2.662 1.971 3.689 3.298.395.509.414.519-.104.961-.873.744-1.801 1.386-2.885 1.822-.849.341-1.681.777-2.426 1.303-.488.345-.896.882-1.187 1.416-.447.823-.239 1.439.506 2.024.567.446 1.183.743 1.932.692.332-.022.665-.004 1.152-.004" fill="#5cb1e3"/><path d="m23.183 29.265c.956 1.837 2.673 2.86 4.117 4.158.513.461 1.127.83 1.742 1.152.342.177.779.227 1.174.236 1.261.025 1.825-.81 1.311-1.981-.591-1.349-1.248-2.668-1.878-3.999-.047-.1-.102-.196-.157-.292-.177-.307-.148-.559.189-.735.229-.118.454-.243.687-.355 1.194-.58 2.43-1.087 3.576-1.75 1.658-.958 3.261-2.015 4.867-3.059.679-.441 1.304-.966 1.96-1.443.819-.596 1.494-1.315 1.957-2.221.336-.656.67-1.313 1.005-1.969.017-.034.033-.067.047-.101.795-1.938-.191-3.106-2.07-3.321-.744-.084-1.539.11-2.289.274-.68.147-1.34.405-1.996.649-2.178.808-4.349 1.635-6.525 2.446-.264.099-.547.143-.871.224 0-.769-.05-1.463.024-2.146.031-.29.286-.582.498-.822 1.907-2.136 4.279-3.597 6.901-4.677 1.089-.449 2.204-.839 3.319-1.223 2.173-.749 4.299-.324 6.401.327.67.208 1.1.703 1.354 1.366 1.034 2.701 1.017 5.312-.561 7.836-1.657 2.652-3.734 4.786-6.626 6.151-2.832 1.336-5.565 2.879-8.337 4.343-.82.434-.903.708-.4 1.466.365.55.819 1.042 1.223 1.568 1.163 1.511 1.73 3.239 1.789 5.126.031 1.008-.333 1.476-1.298 1.798-1.48.496-2.929.319-4.291-.378-1.848-.942-3.539-2.138-5.079-3.521-.508-.455-.83-1.117-1.238-1.684-.107-.151-.194-.323-.328-.444-.982-.893-.87-1.872-.197-2.999" fill="#5cb1e3"/><path d="m41.303 14.199c.371.066.633.083.874.161 1.108.358 1.468 1.062 1.015 2.131-.78 1.847-1.707 3.57-3.517 4.685-1.598.983-3.066 2.177-4.671 3.146-1.383.836-2.877 1.488-4.322 2.218-.56.283-1.132.542-1.678.847-.464.261-.534.517-.363 1.014.035.105.088.203.136.303.688 1.423 1.378 2.846 2.063 4.271.078.166.142.34.193.516.117.401-.083.668-.443.75-.273.063-.611.076-.858-.03-.569-.244-1.15-.51-1.638-.883-1.023-.782-1.994-1.635-2.979-2.468-.773-.654-1.357-1.448-1.711-2.403-.149-.403-.101-.659.373-.845.783-.307 1.59-.599 2.198-1.237.091-.095.26-.165.392-.162 1.302.025 1.651-.963 1.934-1.907.29-.967.208-1.981-.113-2.941-.152-.453-.056-.73.255-1.076.435-.486.838-1.025 1.137-1.603.227-.438.531-.683.957-.842 2.761-1.031 5.513-2.086 8.288-3.075.824-.294 1.715-.399 2.478-.57" fill="#fff797"/><path d="m10.363 30.13c-.944.045-1.786.074-2.471-.597-.432-.422-.505-.618-.258-1.153.291-.625.766-1.091 1.359-1.41.678-.367 1.373-.719 2.091-.998 1.301-.508 2.342-1.382 3.357-2.292.467-.419.452-.633.05-1.123-1.295-1.572-2.699-3.017-4.493-4.043-2.435-1.394-3.781-3.648-4.782-6.16-.369-.924-.304-1.89-.138-2.834.16-.902.604-1.237 1.548-1.258 1.109-.026 2.129.275 2.934 1.065.681.669 1.333 1.374 1.949 2.104 1.781 2.112 3.548 4.235 5.295 6.374.486.596.886 1.263 1.325 1.897.25.362.201.654-.144.953-.545.473-.893 1.083-.958 1.812-.047.517-.077 1.055.58 1.273.302.101.316.359.319.632.004.292.02.59.088.871.068.28.362.603.284.797-.125.31-.439.587-.737.778-1.178.753-2.38 1.469-3.576 2.195-.188.114-.407.183-.583.313-.936.69-1.977.964-3.039.804" fill="#fff797"/><path d="m22.454 17.627c-.079.099-.124.128-.122.155.051.851.393 1.243 1.137 1.311.744.07 1.69-.528 1.785-1.15.009-.06-.168-.189-.273-.21-.083-.015-.195.079-.283.14-1.306.903-1.305.904-2.244-.246m4.258-2.148c-.04-.189-.037-.392-.125-.537-.121-.199-.297-.471-.479-.495-.185-.026-.453.168-.604.337-.341.382-.363.865-.262 1.345.066.317.286.505.613.533.334.027.564-.132.667-.446.079-.242.128-.492.19-.737m-4.59-.141c.037.066.11.397.283.461.228.085.586.045.798-.087.544-.341.742-.905.66-1.527-.028-.215-.189-.511-.366-.583-.192-.08-.533-.018-.703.116-.444.353-.703.838-.672 1.62m-2.497 1.172c-.472-3.039 3.412-5.15 5.654-4.69.794.164 1.598.288 2.158.982.131.163.346.279.546.364.815.35 1.139 1.038 1.191 1.84.068 1.022.067 2.047-.229 3.056-.485 1.652-2.527 3.074-4.234 2.903-.694-.069-1.395-.092-2.082-.206-1.656-.276-3.281-2.162-3.006-3.808.024-.143.002-.294.002-.441" fill="#fff9b2"/><path d="m27.742 23.144c.032.72-.043 1.414-.549 1.974-.159.177-.435.412-.615.38-.618-.112-.929.29-1.344.594-.607.442-1.209.993-2.083.729-.088-.026-.207.031-.309.061-1.681.506-3.215-.023-4.067-1.477-.188-.321-.194-.773-.202-1.167-.011-.469.002-.885-.601-.999-.316-.06-.389-.366-.322-.615.112-.415.233-.86.479-1.196.254-.343.645-.598 1.007-.845.826-.564.764-.494 1.391.077.708.644 1.616.905 2.531 1.011.875.101 1.769.072 2.652.042.356-.013.712-.167 1.058-.286.608-.208.782-.131.884.505.065.399.062.808.09 1.212" fill="#bd82b9"/><path d="m11.678 35.503c.677-1.313 1.67-2.19 2.717-2.994.578-.444 1.316-.308 1.907-.071 1.158.463 2.272 1.043 3.376 1.626.518.275.528.454.239.981-.388.71-.776 1.421-1.203 2.108-.433.698-.502.7-1.164.142-.562-.473-1.081-1.003-1.823-1.208-1.275-.352-2.557-.652-4.049-.584" fill="#fff797"/><path d="m16.057 39.398c-.874-.109-1.537-.145-2.179-.283-1.243-.265-1.871-1.247-2.341-2.286-.315-.7.01-.992.788-.86.613.104 1.221.261 1.838.323 1.37.135 2.365.904 3.284 1.832.287.289.229.552-.078.711-.479.249-.993.429-1.312.563" fill="#bd82b9"/><path d="m15.627 31.534c.554-.523 1.104-1.008 1.613-1.537.324-.335.695-.461 1.095-.291 1.012.432 2.005.905 3.001 1.376.292.139.295.38.166.652-.251.532-.494 1.068-.731 1.607-.158.36-.381.378-.703.203-.452-.246-.917-.471-1.387-.681-.999-.444-2.006-.874-3.054-1.329" fill="#bd82b9"/><path d="m18.339 29.036c.061-.149.078-.222.117-.281.69-1.025 1.48-1.534 2.837-1.088 1.264.416 1.317.275 1.038 1.578-.09.421-.22.833-.349 1.318-1.254-.526-2.418-1.014-3.643-1.527" fill="#fff797"/><g fill="#231f20"><path d="m22.123 15.337c-.031-.781.227-1.266.671-1.619.17-.135.512-.196.703-.117.177.073.338.368.367.584.082.621-.117 1.185-.661 1.527-.211.132-.569.172-.797.087-.173-.064-.246-.395-.283-.462"/><path d="m26.713 15.479c-.062.245-.112.496-.19.737-.103.314-.334.474-.667.446-.328-.028-.548-.216-.613-.533-.101-.479-.08-.962.261-1.344.152-.17.419-.364.605-.338.181.024.357.296.478.495.089.145.085.348.126.537"/><path d="m22.454 17.627c.939 1.15.938 1.149 2.244.246.088-.061.2-.155.283-.14.105.021.282.15.273.21-.095.622-1.041 1.22-1.785 1.15-.744-.068-1.086-.46-1.137-1.311-.002-.027.043-.056.122-.155"/></g><path d="m3.309 3.551c-.834 1.027-.921 2.456-.92 3.778.001 1.626.1 3.328.929 4.727-.291-1.25-.582-2.546-.336-3.806.276-1.409 1.19-2.596 2.076-3.726.523-.667 1.115-1.266 1.727-1.836-.822-1.023-2.783.01-3.476.863" fill="#fff"/><path d="m15.49 36.948c1.585-.383 2.763-1.702 3.667-3.06 1.427-2.14 2.446-4.552 2.986-7.069-.801.13-1.602.259-2.402.389 1.038-1.74 2.729-3.078 4.659-3.69-.232-.627-.89-.972-1.325-1.48-.434-.507-.487-1.5.161-1.66.37-.091.728.163 1.097.263.744.201 1.54-.276 1.943-.932.404-.655.501-1.45.563-2.219.121-1.5.147-3.009.077-4.514 1.337.254 2.177 1.703 2.199 3.065.022 1.361-.573 2.648-1.167 3.873-.593 1.226-1.21 2.497-1.236 3.859 2.471-.794 4.871-1.809 7.161-3.029-.164 1.371-1.134 2.524-2.244 3.347s-2.383 1.397-3.53 2.169c-.622.418-1.232.929-1.497 1.63-.539 1.428.521 2.92 1.514 4.079l2.652 3.094c.285.334.587.708.585 1.145-.004.625-.662 1.088-1.287 1.099-.625.01-1.204-.306-1.732-.64-2.076-1.306-3.909-2.996-5.378-4.96-.233-.313-.544-.671-.93-.606-.235.038-.412.229-.558.419-1.607 2.085-1.747 5.253-3.91 6.753-1.237.857-2.98.91-4.266.128-.948-.577-1.669-1.618-1.775-2.72 1.351-.071 2.173 1.701 3.973 1.267" fill="#3b2314" opacity=".2"/></g></svg>