<?xml version="1.0" encoding="UTF-8" standalone="no"?><!DOCTYPE svg PUBLIC "-//W3C//DTD SVG 1.1//EN" "http://www.w3.org/Graphics/SVG/1.1/DTD/svg11.dtd"><svg width="100%" height="100%" viewBox="0 0 51 41" version="1.1" xmlns="http://www.w3.org/2000/svg" xmlns:xlink="http://www.w3.org/1999/xlink" xml:space="preserve" xmlns:serif="http://www.serif.com/" style="fill-rule:evenodd;clip-rule:evenodd;stroke-linejoin:round;stroke-miterlimit:2;"><g><path d="M18.339,29.036c1.225,0.513 2.389,1.001 3.643,1.527c0.129,-0.485 0.259,-0.897 0.349,-1.318c0.279,-1.303 0.226,-1.162 -1.038,-1.578c-1.357,-0.446 -2.147,0.063 -2.837,1.088c-0.039,0.059 -0.056,0.132 -0.117,0.281m-2.712,2.498c1.049,0.455 2.055,0.885 3.054,1.33c0.47,0.209 0.934,0.434 1.387,0.68c0.323,0.175 0.546,0.157 0.703,-0.203c0.237,-0.539 0.481,-1.075 0.732,-1.607c0.128,-0.272 0.125,-0.513 -0.166,-0.652c-0.996,-0.47 -1.99,-0.944 -3.003,-1.376c-0.399,-0.17 -0.77,-0.044 -1.093,0.292c-0.509,0.528 -1.06,1.013 -1.614,1.536m0.43,7.864c0.32,-0.133 0.834,-0.314 1.313,-0.563c0.307,-0.159 0.364,-0.422 0.078,-0.711c-0.92,-0.928 -1.915,-1.696 -3.284,-1.831c-0.618,-0.061 -1.226,-0.22 -1.839,-0.323c-0.777,-0.133 -1.103,0.16 -0.787,0.859c0.47,1.039 1.098,2.022 2.341,2.288c0.641,0.136 1.304,0.172 2.178,0.281m-4.379,-3.895c1.492,-0.068 2.775,0.232 4.049,0.584c0.742,0.204 1.261,0.735 1.823,1.209c0.662,0.557 0.731,0.556 1.164,-0.143c0.427,-0.687 0.815,-1.398 1.203,-2.108c0.289,-0.527 0.279,-0.705 -0.239,-0.981c-1.104,-0.584 -2.218,-1.163 -3.376,-1.626c-0.591,-0.237 -1.329,-0.373 -1.907,0.071c-1.047,0.805 -2.039,1.681 -2.717,2.994m16.065,-12.358c-0.028,-0.404 -0.025,-0.813 -0.09,-1.212c-0.103,-0.637 -0.277,-0.713 -0.884,-0.505c-0.347,0.119 -0.702,0.273 -1.059,0.285c-0.883,0.031 -1.777,0.06 -2.652,-0.042c-0.915,-0.106 -1.822,-0.366 -2.531,-1.011c-0.627,-0.57 -0.565,-0.64 -1.391,-0.077c-0.362,0.248 -0.754,0.503 -1.006,0.845c-0.247,0.337 -0.367,0.782 -0.479,1.196c-0.067,0.25 0.006,0.556 0.321,0.616c0.603,0.114 0.59,0.53 0.601,0.999c0.009,0.394 0.014,0.845 0.203,1.166c0.852,1.455 2.386,1.984 4.067,1.478c0.101,-0.03 0.22,-0.087 0.308,-0.061c0.874,0.263 1.477,-0.287 2.083,-0.73c0.416,-0.304 0.727,-0.706 1.345,-0.593c0.179,0.032 0.456,-0.203 0.615,-0.38c0.505,-0.56 0.58,-1.254 0.549,-1.974m-8.116,-6.634c0,0.147 0.021,0.297 -0.003,0.44c-0.275,1.646 1.35,3.533 3.005,3.809c0.688,0.114 1.388,0.136 2.083,0.206c1.707,0.171 3.749,-1.251 4.234,-2.903c0.296,-1.01 0.297,-2.033 0.229,-3.057c-0.052,-0.802 -0.376,-1.49 -1.191,-1.839c-0.199,-0.085 -0.415,-0.201 -0.546,-0.364c-0.56,-0.694 -1.364,-0.819 -2.158,-0.983c-2.242,-0.459 -6.126,1.653 -5.653,4.691m-9.263,13.619c1.062,0.16 2.103,-0.113 3.039,-0.804c0.175,-0.129 0.395,-0.199 0.584,-0.313c1.196,-0.726 2.397,-1.442 3.574,-2.194c0.299,-0.191 0.613,-0.468 0.738,-0.779c0.078,-0.194 -0.215,-0.517 -0.284,-0.796c-0.068,-0.281 -0.083,-0.58 -0.087,-0.872c-0.005,-0.273 -0.017,-0.531 -0.32,-0.631c-0.656,-0.219 -0.627,-0.757 -0.58,-1.274c0.065,-0.728 0.412,-1.339 0.958,-1.812c0.346,-0.299 0.394,-0.591 0.143,-0.953c-0.438,-0.634 -0.837,-1.301 -1.324,-1.896c-1.747,-2.139 -3.515,-4.262 -5.295,-6.374c-0.616,-0.731 -1.268,-1.435 -1.95,-2.105c-0.804,-0.79 -1.824,-1.09 -2.934,-1.065c-0.943,0.021 -1.388,0.357 -1.547,1.258c-0.167,0.945 -0.23,1.911 0.138,2.835c1.001,2.511 2.348,4.765 4.783,6.159c1.792,1.026 3.198,2.471 4.492,4.044c0.402,0.489 0.418,0.703 -0.05,1.123c-1.015,0.91 -2.055,1.783 -3.357,2.291c-0.718,0.28 -1.412,0.632 -2.092,0.998c-0.593,0.32 -1.067,0.785 -1.357,1.41c-0.249,0.535 -0.175,0.733 0.257,1.155c0.685,0.669 1.527,0.641 2.471,0.595m30.94,-15.931c-0.763,0.171 -1.654,0.276 -2.478,0.57c-2.775,0.989 -5.527,2.045 -8.288,3.075c-0.426,0.159 -0.731,0.404 -0.957,0.843c-0.299,0.578 -0.702,1.116 -1.138,1.603c-0.31,0.345 -0.407,0.622 -0.254,1.076c0.321,0.959 0.403,1.973 0.113,2.94c-0.283,0.945 -0.632,1.933 -1.933,1.907c-0.132,-0.003 -0.303,0.067 -0.393,0.162c-0.607,0.64 -1.415,0.93 -2.198,1.237c-0.474,0.187 -0.522,0.442 -0.373,0.846c0.354,0.955 0.938,1.749 1.711,2.403c0.985,0.833 1.956,1.685 2.98,2.467c0.487,0.373 1.068,0.639 1.637,0.883c0.247,0.106 0.585,0.093 0.858,0.031c0.36,-0.082 0.56,-0.349 0.443,-0.751c-0.052,-0.176 -0.114,-0.35 -0.193,-0.515c-0.686,-1.425 -1.376,-2.848 -2.064,-4.272c-0.048,-0.099 -0.1,-0.198 -0.136,-0.302c-0.17,-0.497 -0.099,-0.754 0.364,-1.014c0.546,-0.306 1.119,-0.565 1.677,-0.847c1.446,-0.731 2.94,-1.383 4.323,-2.218c1.605,-0.97 3.073,-2.163 4.67,-3.147c1.811,-1.114 2.738,-2.838 3.519,-4.685c0.452,-1.069 0.091,-1.773 -1.016,-2.131c-0.242,-0.078 -0.503,-0.094 -0.874,-0.161m-18.12,15.067c-0.675,1.127 -0.785,2.106 0.195,2.999c0.135,0.121 0.222,0.293 0.33,0.444c0.407,0.567 0.73,1.229 1.237,1.684c1.54,1.383 3.232,2.579 5.079,3.521c1.363,0.697 2.811,0.874 4.291,0.378c0.965,-0.322 1.33,-0.79 1.299,-1.798c-0.06,-1.888 -0.627,-3.615 -1.789,-5.126c-0.405,-0.526 -0.859,-1.018 -1.224,-1.568c-0.503,-0.758 -0.419,-1.032 0.401,-1.466c2.77,-1.464 5.505,-3.007 8.336,-4.343c2.892,-1.365 4.969,-3.499 6.626,-6.151c1.578,-2.524 1.595,-5.135 0.561,-7.836c-0.253,-0.663 -0.684,-1.158 -1.353,-1.366c-2.103,-0.651 -4.229,-1.076 -6.402,-0.327c-1.114,0.384 -2.23,0.774 -3.32,1.223c-2.62,1.079 -4.993,2.541 -6.899,4.677c-0.212,0.24 -0.468,0.532 -0.499,0.822c-0.074,0.683 -0.024,1.377 -0.024,2.146c0.325,-0.081 0.608,-0.125 0.871,-0.224c2.177,-0.811 4.348,-1.638 6.525,-2.446c0.656,-0.244 1.316,-0.502 1.996,-0.65c0.751,-0.163 1.544,-0.357 2.29,-0.272c1.878,0.214 2.864,1.382 2.069,3.32c-0.014,0.034 -0.03,0.067 -0.046,0.101c-0.335,0.656 -0.671,1.313 -1.006,1.969c-0.463,0.906 -1.138,1.625 -1.957,2.22c-0.655,0.478 -1.281,1.002 -1.96,1.444c-1.606,1.044 -3.208,2.101 -4.867,3.059c-1.145,0.663 -2.382,1.17 -3.577,1.749c-0.231,0.113 -0.458,0.238 -0.687,0.356c-0.336,0.175 -0.365,0.428 -0.188,0.735c0.055,0.096 0.111,0.192 0.158,0.292c0.63,1.331 1.285,2.65 1.877,3.999c0.514,1.171 -0.05,2.006 -1.31,1.98c-0.395,-0.008 -0.833,-0.058 -1.174,-0.235c-0.615,-0.322 -1.23,-0.691 -1.743,-1.153c-1.444,-1.297 -3.161,-2.32 -4.116,-4.157m-12.618,1.552c-0.486,0 -0.82,-0.018 -1.151,0.004c-0.749,0.052 -1.365,-0.246 -1.932,-0.692c-0.746,-0.586 -0.954,-1.202 -0.506,-2.024c0.291,-0.534 0.698,-1.07 1.186,-1.416c0.746,-0.526 1.577,-0.962 2.426,-1.303c1.085,-0.436 2.012,-1.078 2.885,-1.823c0.518,-0.441 0.5,-0.451 0.105,-0.96c-1.028,-1.326 -2.23,-2.459 -3.69,-3.298c-2.593,-1.488 -4.159,-3.8 -5.277,-6.485c-0.519,-1.245 -0.566,-2.509 -0.162,-3.785c0.307,-0.97 0.959,-1.423 1.964,-1.477c1.648,-0.088 3.051,0.411 4.162,1.657c0.271,0.303 0.56,0.589 0.816,0.904c1.535,1.888 3.059,3.786 4.597,5.673c0.995,1.223 2.221,2.283 2.669,3.886c0.071,0.255 0.298,0.301 0.537,0.178c0.24,-0.126 0.259,-0.294 0.163,-0.545c-0.21,-0.544 -0.51,-1.096 -0.536,-1.657c-0.045,-0.984 0.095,-1.976 0.138,-2.966c0.012,-0.248 0.013,-0.531 -0.094,-0.743c-0.829,-1.643 -1.555,-3.344 -2.725,-4.799c-0.623,-0.775 -1.168,-1.612 -1.748,-2.421c-0.924,-1.288 -1.749,-2.647 -2.907,-3.757c-2.145,-2.055 -4.565,-2.553 -7.322,-1.381c-1.159,0.493 -2.002,1.255 -2.282,2.512c-0.217,0.968 -0.432,1.943 -0.542,2.927c-0.278,2.463 -0.017,4.825 1.189,7.074c1.544,2.877 3.196,5.651 5.675,7.844c0.274,0.242 0.515,0.533 0.719,0.837c0.262,0.392 0.139,0.681 -0.318,0.851c-0.102,0.038 -0.215,0.049 -0.323,0.074c-1.91,0.437 -3.573,1.374 -5.108,2.551c-0.584,0.448 -1.165,0.917 -1.663,1.455c-0.819,0.884 -0.849,1.813 -0.168,2.822c0.726,1.076 1.724,1.81 2.946,2.232c0.627,0.216 1.259,0.444 1.907,0.575c1.547,0.311 3.076,0.751 4.693,0.621c0.738,-0.059 1.34,-0.232 1.819,-0.842c0.291,-0.372 0.687,-0.671 1.067,-0.96c1.71,-1.297 3.241,-2.787 4.704,-4.351c0.202,-0.215 0.423,-0.411 0.611,-0.637c0.05,-0.059 0.047,-0.222 -0.001,-0.285c-0.052,-0.067 -0.188,-0.107 -0.281,-0.098c-0.101,0.01 -0.213,0.072 -0.291,0.143c-1.411,1.281 -3.179,1.998 -4.756,3.018c-1.031,0.669 -2.114,1.032 -3.195,0.867m11.605,1.086c-0.397,0.828 -0.669,1.427 -0.966,2.014c-0.835,1.643 -1.653,3.295 -2.802,4.756c-0.528,0.672 -1.207,1.083 -2.021,1.265c-1.964,0.437 -4.317,-0.652 -5.257,-2.423c-0.288,-0.541 -0.36,-1.118 -0.193,-1.715c0.097,-0.345 0.195,-0.688 0.307,-1.084c-2.411,0.094 -4.637,-0.525 -6.858,-1.182c-1.349,-0.399 -2.469,-1.139 -3.358,-2.229c-1.199,-1.469 -1.163,-3.029 0.207,-4.343c1.72,-1.651 3.687,-2.938 5.971,-3.701c0.27,-0.09 0.532,-0.202 0.902,-0.344c-0.483,-0.483 -0.891,-0.904 -1.31,-1.311c-2.535,-2.464 -4.192,-5.5 -5.598,-8.685c-0.652,-1.475 -0.796,-3.045 -0.657,-4.658c0.116,-1.358 0.198,-2.715 0.512,-4.05c0.384,-1.642 1.349,-2.721 2.906,-3.361c2.995,-1.232 5.927,-0.672 8.128,1.61c0.587,0.607 1.136,1.261 1.635,1.944c0.956,1.31 1.841,2.673 2.797,3.984c1.182,1.618 2.156,3.342 2.793,5.337c0.192,-0.17 0.339,-0.271 0.45,-0.402c0.855,-1.018 1.912,-1.738 3.187,-2.102c0.56,-0.159 0.917,-0.414 0.974,-1.027c0.034,-0.364 0.18,-0.722 0.184,-1.084c0.023,-1.807 0.043,-3.615 0.01,-5.421c-0.016,-0.888 -0.311,-1.739 -1.232,-2.045c-1.038,-0.343 -2.116,-0.456 -2.965,0.512c-0.17,0.193 -0.319,0.41 -0.509,0.582c-1.045,0.945 -0.981,2.171 -0.83,3.392c0.09,0.73 0.663,1.189 1.267,1.152c0.597,-0.037 1.061,-0.561 1.147,-1.296c0.08,-0.675 -0.1,-1.119 -0.539,-1.332c-0.468,-0.228 -0.822,-0.014 -0.796,0.494c0.008,0.144 0.094,0.284 0.101,0.428c0.005,0.09 -0.048,0.228 -0.117,0.266c-0.078,0.042 -0.222,0.027 -0.308,-0.016c-0.385,-0.193 -0.566,-0.591 -0.484,-1.012c0.108,-0.565 0.506,-0.952 1.031,-1.004c0.821,-0.082 1.607,0.525 1.739,1.37c0.093,0.6 -0.007,1.176 -0.293,1.716c-0.35,0.659 -0.903,0.926 -1.639,0.905c-0.701,-0.02 -1.207,-0.334 -1.494,-0.957c-0.438,-0.949 -0.419,-1.964 -0.135,-2.921c0.371,-1.251 1.314,-2.102 2.352,-2.84c2.207,-0.514 4.175,-0.253 4.329,2.489c0.127,2.272 0.294,4.568 -0.209,6.831c-0.098,0.442 0.087,0.605 0.501,0.641c0.439,0.037 0.876,0.104 1.419,0.171c0.171,-0.678 0.366,-1.374 0.519,-2.078c0.427,-1.957 1.124,-3.815 2.021,-5.601c0.471,-0.938 1.089,-1.746 1.961,-2.357c1.887,-1.323 4.411,-0.374 4.819,1.882c0.315,1.731 0.051,3.382 -1.122,4.793c-0.516,0.619 -1.108,1.066 -1.967,1.072c-1.129,0.006 -2.001,-0.768 -2.143,-1.948c-0.135,-1.116 0.588,-2.208 1.643,-2.397c0.252,-0.045 0.602,0.045 0.798,0.206c0.294,0.24 0.392,0.623 0.221,1.006c-0.038,0.083 -0.154,0.178 -0.235,0.18c-0.077,0.002 -0.18,-0.097 -0.23,-0.178c-0.11,-0.178 -0.22,-0.54 -0.282,-0.53c-0.273,0.044 -0.569,0.143 -0.781,0.314c-0.646,0.529 -0.692,1.476 -0.147,2.183c0.483,0.63 1.393,0.736 2.068,0.202c0.746,-0.591 1.234,-1.392 1.485,-2.288c0.262,-0.931 0.256,-1.911 -0.022,-2.84c-0.433,-1.447 -2.098,-2.045 -3.415,-1.254c-0.774,0.465 -1.353,1.127 -1.797,1.915c-1.283,2.271 -2.037,4.731 -2.636,7.248c-0.122,0.514 -0.08,0.925 0.481,1.196c0.428,0.206 0.846,0.479 1.181,0.811c0.411,0.405 0.731,0.901 1.002,1.248c0.534,-0.473 1.092,-0.95 1.63,-1.446c2.506,-2.307 5.572,-3.557 8.728,-4.64c1.234,-0.423 2.497,-0.708 3.801,-0.542c0.985,0.125 1.958,0.349 2.929,0.562c1.188,0.262 1.908,1.047 2.322,2.159c0.991,2.665 0.944,5.248 -0.497,7.772c-1.687,2.957 -3.883,5.327 -7.033,6.804c-2.636,1.236 -5.189,2.65 -7.764,4.013c-0.962,0.509 -0.989,0.606 -0.221,1.422c1.117,1.188 1.88,2.557 2.249,4.126c0.191,0.817 0.257,1.669 0.314,2.509c0.076,1.119 -0.546,1.825 -1.544,2.164c-1.874,0.637 -3.757,0.553 -5.45,-0.47c-1.668,-1.008 -3.233,-2.19 -4.805,-3.348c-0.401,-0.295 -0.671,-0.773 -0.974,-1.188c-0.431,-0.591 -0.836,-1.201 -1.386,-1.996" style="fill:#231f20;fill-rule:nonzero;"/><path d="M10.566,30.818c1.08,0.164 2.163,-0.199 3.195,-0.866c1.576,-1.021 3.345,-1.737 4.755,-3.019c0.079,-0.071 0.19,-0.133 0.291,-0.143c0.093,-0.009 0.229,0.03 0.282,0.099c0.048,0.062 0.051,0.225 0.001,0.284c-0.189,0.225 -0.409,0.422 -0.611,0.637c-1.463,1.564 -2.994,3.053 -4.704,4.352c-0.38,0.289 -0.777,0.587 -1.068,0.958c-0.478,0.611 -1.081,0.783 -1.818,0.843c-1.617,0.13 -3.146,-0.309 -4.694,-0.621c-0.648,-0.13 -1.279,-0.358 -1.906,-0.575c-1.222,-0.423 -2.22,-1.157 -2.947,-2.233c-0.68,-1.007 -0.651,-1.936 0.169,-2.822c0.497,-0.537 1.079,-1.006 1.663,-1.453c1.535,-1.178 3.198,-2.115 5.107,-2.553c0.108,-0.025 0.222,-0.034 0.324,-0.073c0.456,-0.171 0.579,-0.46 0.317,-0.851c-0.203,-0.303 -0.445,-0.595 -0.718,-0.837c-2.479,-2.193 -4.132,-4.966 -5.675,-7.844c-1.207,-2.25 -1.468,-4.611 -1.19,-7.075c0.111,-0.983 0.326,-1.958 0.542,-2.926c0.28,-1.257 1.124,-2.019 2.283,-2.512c2.757,-1.172 5.177,-0.674 7.322,1.381c1.157,1.11 1.982,2.47 2.906,3.756c0.581,0.809 1.126,1.647 1.749,2.422c1.17,1.455 1.895,3.156 2.725,4.799c0.106,0.211 0.105,0.496 0.094,0.743c-0.044,0.989 -0.184,1.982 -0.139,2.967c0.027,0.559 0.326,1.112 0.536,1.656c0.097,0.251 0.077,0.42 -0.163,0.544c-0.238,0.124 -0.465,0.078 -0.536,-0.177c-0.448,-1.602 -1.674,-2.663 -2.67,-3.886c-1.538,-1.887 -3.062,-3.785 -4.597,-5.673c-0.256,-0.314 -0.545,-0.601 -0.815,-0.904c-1.112,-1.245 -2.515,-1.745 -4.163,-1.657c-1.004,0.055 -1.657,0.506 -1.963,1.478c-0.404,1.275 -0.357,2.539 0.161,3.784c1.118,2.685 2.685,4.996 5.278,6.485c1.459,0.838 2.662,1.971 3.689,3.298c0.395,0.509 0.414,0.519 -0.104,0.961c-0.873,0.744 -1.801,1.386 -2.885,1.822c-0.849,0.341 -1.681,0.777 -2.426,1.303c-0.488,0.345 -0.896,0.882 -1.187,1.416c-0.447,0.823 -0.239,1.439 0.506,2.024c0.567,0.446 1.183,0.743 1.932,0.692c0.332,-0.022 0.665,-0.004 1.152,-0.004" style="fill:#5cb1e3;fill-rule:nonzero;"/><path d="M23.183,29.265c0.956,1.837 2.673,2.86 4.117,4.158c0.513,0.461 1.127,0.83 1.742,1.152c0.342,0.177 0.779,0.227 1.174,0.236c1.261,0.025 1.825,-0.81 1.311,-1.981c-0.591,-1.349 -1.248,-2.668 -1.878,-3.999c-0.047,-0.1 -0.102,-0.196 -0.157,-0.292c-0.177,-0.307 -0.148,-0.559 0.189,-0.735c0.229,-0.118 0.454,-0.243 0.687,-0.355c1.194,-0.58 2.43,-1.087 3.576,-1.75c1.658,-0.958 3.261,-2.015 4.867,-3.059c0.679,-0.441 1.304,-0.966 1.96,-1.443c0.819,-0.596 1.494,-1.315 1.957,-2.221c0.336,-0.656 0.67,-1.313 1.005,-1.969c0.017,-0.034 0.033,-0.067 0.047,-0.101c0.795,-1.938 -0.191,-3.106 -2.07,-3.321c-0.744,-0.084 -1.539,0.11 -2.289,0.274c-0.68,0.147 -1.34,0.405 -1.996,0.649c-2.178,0.808 -4.349,1.635 -6.525,2.446c-0.264,0.099 -0.547,0.143 -0.871,0.224c0,-0.769 -0.05,-1.463 0.024,-2.146c0.031,-0.29 0.286,-0.582 0.498,-0.822c1.907,-2.136 4.279,-3.597 6.901,-4.677c1.089,-0.449 2.204,-0.839 3.319,-1.223c2.173,-0.749 4.299,-0.324 6.401,0.327c0.67,0.208 1.1,0.703 1.354,1.366c1.034,2.701 1.017,5.312 -0.561,7.836c-1.657,2.652 -3.734,4.786 -6.626,6.151c-2.832,1.336 -5.565,2.879 -8.337,4.343c-0.82,0.434 -0.903,0.708 -0.4,1.466c0.365,0.55 0.819,1.042 1.223,1.568c1.163,1.511 1.73,3.239 1.789,5.126c0.031,1.008 -0.333,1.476 -1.298,1.798c-1.48,0.496 -2.929,0.319 -4.291,-0.378c-1.848,-0.942 -3.539,-2.138 -5.079,-3.521c-0.508,-0.455 -0.83,-1.117 -1.238,-1.684c-0.107,-0.151 -0.194,-0.323 -0.328,-0.444c-0.982,-0.893 -0.87,-1.872 -0.197,-2.999" style="fill:#5cb1e3;fill-rule:nonzero;"/><path d="M41.303,14.199c0.371,0.066 0.633,0.083 0.874,0.161c1.108,0.358 1.468,1.062 1.015,2.131c-0.78,1.847 -1.707,3.57 -3.517,4.685c-1.598,0.983 -3.066,2.177 -4.671,3.146c-1.383,0.836 -2.877,1.488 -4.322,2.218c-0.56,0.283 -1.132,0.542 -1.678,0.847c-0.464,0.261 -0.534,0.517 -0.363,1.014c0.035,0.105 0.088,0.203 0.136,0.303c0.688,1.423 1.378,2.846 2.063,4.271c0.078,0.166 0.142,0.34 0.193,0.516c0.117,0.401 -0.083,0.668 -0.443,0.75c-0.273,0.063 -0.611,0.076 -0.858,-0.03c-0.569,-0.244 -1.15,-0.51 -1.638,-0.883c-1.023,-0.782 -1.994,-1.635 -2.979,-2.468c-0.773,-0.654 -1.357,-1.448 -1.711,-2.403c-0.149,-0.403 -0.101,-0.659 0.373,-0.845c0.783,-0.307 1.59,-0.599 2.198,-1.237c0.091,-0.095 0.26,-0.165 0.392,-0.162c1.302,0.025 1.651,-0.963 1.934,-1.907c0.29,-0.967 0.208,-1.981 -0.113,-2.941c-0.152,-0.453 -0.056,-0.73 0.255,-1.076c0.435,-0.486 0.838,-1.025 1.137,-1.603c0.227,-0.438 0.531,-0.683 0.957,-0.842c2.761,-1.031 5.513,-2.086 8.288,-3.075c0.824,-0.294 1.715,-0.399 2.478,-0.57" style="fill:#fff797;fill-rule:nonzero;"/><path d="M10.363,30.13c-0.944,0.045 -1.786,0.074 -2.471,-0.597c-0.432,-0.422 -0.505,-0.618 -0.258,-1.153c0.291,-0.625 0.766,-1.091 1.359,-1.41c0.678,-0.367 1.373,-0.719 2.091,-0.998c1.301,-0.508 2.342,-1.382 3.357,-2.292c0.467,-0.419 0.452,-0.633 0.05,-1.123c-1.295,-1.572 -2.699,-3.017 -4.493,-4.043c-2.435,-1.394 -3.781,-3.648 -4.782,-6.16c-0.369,-0.924 -0.304,-1.89 -0.138,-2.834c0.16,-0.902 0.604,-1.237 1.548,-1.258c1.109,-0.026 2.129,0.275 2.934,1.065c0.681,0.669 1.333,1.374 1.949,2.104c1.781,2.112 3.548,4.235 5.295,6.374c0.486,0.596 0.886,1.263 1.325,1.897c0.25,0.362 0.201,0.654 -0.144,0.953c-0.545,0.473 -0.893,1.083 -0.958,1.812c-0.047,0.517 -0.077,1.055 0.58,1.273c0.302,0.101 0.316,0.359 0.319,0.632c0.004,0.292 0.02,0.59 0.088,0.871c0.068,0.28 0.362,0.603 0.284,0.797c-0.125,0.31 -0.439,0.587 -0.737,0.778c-1.178,0.753 -2.38,1.469 -3.576,2.195c-0.188,0.114 -0.407,0.183 -0.583,0.313c-0.936,0.69 -1.977,0.964 -3.039,0.804" style="fill:#fff797;fill-rule:nonzero;"/><path d="M22.454,17.627c-0.079,0.099 -0.124,0.128 -0.122,0.155c0.051,0.851 0.393,1.243 1.137,1.311c0.744,0.07 1.69,-0.528 1.785,-1.15c0.009,-0.06 -0.168,-0.189 -0.273,-0.21c-0.083,-0.015 -0.195,0.079 -0.283,0.14c-1.306,0.903 -1.305,0.904 -2.244,-0.246m4.258,-2.148c-0.04,-0.189 -0.037,-0.392 -0.125,-0.537c-0.121,-0.199 -0.297,-0.471 -0.479,-0.495c-0.185,-0.026 -0.453,0.168 -0.604,0.337c-0.341,0.382 -0.363,0.865 -0.262,1.345c0.066,0.317 0.286,0.505 0.613,0.533c0.334,0.027 0.564,-0.132 0.667,-0.446c0.079,-0.242 0.128,-0.492 0.19,-0.737m-4.59,-0.141c0.037,0.066 0.11,0.397 0.283,0.461c0.228,0.085 0.586,0.045 0.798,-0.087c0.544,-0.341 0.742,-0.905 0.66,-1.527c-0.028,-0.215 -0.189,-0.511 -0.366,-0.583c-0.192,-0.08 -0.533,-0.018 -0.703,0.116c-0.444,0.353 -0.703,0.838 -0.672,1.62m-2.497,1.172c-0.472,-3.039 3.412,-5.15 5.654,-4.69c0.794,0.164 1.598,0.288 2.158,0.982c0.131,0.163 0.346,0.279 0.546,0.364c0.815,0.35 1.139,1.038 1.191,1.84c0.068,1.022 0.067,2.047 -0.229,3.056c-0.485,1.652 -2.527,3.074 -4.234,2.903c-0.694,-0.069 -1.395,-0.092 -2.082,-0.206c-1.656,-0.276 -3.281,-2.162 -3.006,-3.808c0.024,-0.143 0.002,-0.294 0.002,-0.441" style="fill:#fff9b2;fill-rule:nonzero;"/><path d="M27.742,23.144c0.032,0.72 -0.043,1.414 -0.549,1.974c-0.159,0.177 -0.435,0.412 -0.615,0.38c-0.618,-0.112 -0.929,0.29 -1.344,0.594c-0.607,0.442 -1.209,0.993 -2.083,0.729c-0.088,-0.026 -0.207,0.031 -0.309,0.061c-1.681,0.506 -3.215,-0.023 -4.067,-1.477c-0.188,-0.321 -0.194,-0.773 -0.202,-1.167c-0.011,-0.469 0.002,-0.885 -0.601,-0.999c-0.316,-0.06 -0.389,-0.366 -0.322,-0.615c0.112,-0.415 0.233,-0.86 0.479,-1.196c0.254,-0.343 0.645,-0.598 1.007,-0.845c0.826,-0.564 0.764,-0.494 1.391,0.077c0.708,0.644 1.616,0.905 2.531,1.011c0.875,0.101 1.769,0.072 2.652,0.042c0.356,-0.013 0.712,-0.167 1.058,-0.286c0.608,-0.208 0.782,-0.131 0.884,0.505c0.065,0.399 0.062,0.808 0.09,1.212" style="fill:#bd82b9;fill-rule:nonzero;"/><path d="M11.678,35.503c0.677,-1.313 1.67,-2.19 2.717,-2.994c0.578,-0.444 1.316,-0.308 1.907,-0.071c1.158,0.463 2.272,1.043 3.376,1.626c0.518,0.275 0.528,0.454 0.239,0.981c-0.388,0.71 -0.776,1.421 -1.203,2.108c-0.433,0.698 -0.502,0.7 -1.164,0.142c-0.562,-0.473 -1.081,-1.003 -1.823,-1.208c-1.275,-0.352 -2.557,-0.652 -4.049,-0.584" style="fill:#fff797;fill-rule:nonzero;"/><path d="M16.057,39.398c-0.874,-0.109 -1.537,-0.145 -2.179,-0.283c-1.243,-0.265 -1.871,-1.247 -2.341,-2.286c-0.315,-0.7 0.01,-0.992 0.788,-0.86c0.613,0.104 1.221,0.261 1.838,0.323c1.37,0.135 2.365,0.904 3.284,1.832c0.287,0.289 0.229,0.552 -0.078,0.711c-0.479,0.249 -0.993,0.429 -1.312,0.563" style="fill:#bd82b9;fill-rule:nonzero;"/><path d="M15.627,31.534c0.554,-0.523 1.104,-1.008 1.613,-1.537c0.324,-0.335 0.695,-0.461 1.095,-0.291c1.012,0.432 2.005,0.905 3.001,1.376c0.292,0.139 0.295,0.38 0.166,0.652c-0.251,0.532 -0.494,1.068 -0.731,1.607c-0.158,0.36 -0.381,0.378 -0.703,0.203c-0.452,-0.246 -0.917,-0.471 -1.387,-0.681c-0.999,-0.444 -2.006,-0.874 -3.054,-1.329" style="fill:#bd82b9;fill-rule:nonzero;"/><path d="M18.339,29.036c0.061,-0.149 0.078,-0.222 0.117,-0.281c0.69,-1.025 1.48,-1.534 2.837,-1.088c1.264,0.416 1.317,0.275 1.038,1.578c-0.09,0.421 -0.22,0.833 -0.349,1.318c-1.254,-0.526 -2.418,-1.014 -3.643,-1.527" style="fill:#fff797;fill-rule:nonzero;"/><path d="M22.123,15.337c-0.031,-0.781 0.227,-1.266 0.671,-1.619c0.17,-0.135 0.512,-0.196 0.703,-0.117c0.177,0.073 0.338,0.368 0.367,0.584c0.082,0.621 -0.117,1.185 -0.661,1.527c-0.211,0.132 -0.569,0.172 -0.797,0.087c-0.173,-0.064 -0.246,-0.395 -0.283,-0.462" style="fill:#231f20;fill-rule:nonzero;"/><path d="M26.713,15.479c-0.062,0.245 -0.112,0.496 -0.19,0.737c-0.103,0.314 -0.334,0.474 -0.667,0.446c-0.328,-0.028 -0.548,-0.216 -0.613,-0.533c-0.101,-0.479 -0.08,-0.962 0.261,-1.344c0.152,-0.17 0.419,-0.364 0.605,-0.338c0.181,0.024 0.357,0.296 0.478,0.495c0.089,0.145 0.085,0.348 0.126,0.537" style="fill:#231f20;fill-rule:nonzero;"/><path d="M22.454,17.627c0.939,1.15 0.938,1.149 2.244,0.246c0.088,-0.061 0.2,-0.155 0.283,-0.14c0.105,0.021 0.282,0.15 0.273,0.21c-0.095,0.622 -1.041,1.22 -1.785,1.15c-0.744,-0.068 -1.086,-0.46 -1.137,-1.311c-0.002,-0.027 0.043,-0.056 0.122,-0.155" style="fill:#231f20;fill-rule:nonzero;"/><path d="M3.309,3.551c-0.834,1.027 -0.921,2.456 -0.92,3.778c0.001,1.626 0.1,3.328 0.929,4.727c-0.291,-1.25 -0.582,-2.546 -0.336,-3.806c0.276,-1.409 1.19,-2.596 2.076,-3.726c0.523,-0.667 1.115,-1.266 1.727,-1.836c-0.822,-1.023 -2.783,0.01 -3.476,0.863" style="fill:#fff;fill-rule:nonzero;"/><g opacity="0.2"><path d="M15.49,36.948c1.585,-0.383 2.763,-1.702 3.667,-3.06c1.427,-2.14 2.446,-4.552 2.986,-7.069c-0.801,0.13 -1.602,0.259 -2.402,0.389c1.038,-1.74 2.729,-3.078 4.659,-3.69c-0.232,-0.627 -0.89,-0.972 -1.325,-1.48c-0.434,-0.507 -0.487,-1.5 0.161,-1.66c0.37,-0.091 0.728,0.163 1.097,0.263c0.744,0.201 1.54,-0.276 1.943,-0.932c0.404,-0.655 0.501,-1.45 0.563,-2.219c0.121,-1.5 0.147,-3.009 0.077,-4.514c1.337,0.254 2.177,1.703 2.199,3.065c0.022,1.361 -0.573,2.648 -1.167,3.873c-0.593,1.226 -1.21,2.497 -1.236,3.859c2.471,-0.794 4.871,-1.809 7.161,-3.029c-0.164,1.371 -1.134,2.524 -2.244,3.347c-1.11,0.823 -2.383,1.397 -3.53,2.169c-0.622,0.418 -1.232,0.929 -1.497,1.63c-0.539,1.428 0.521,2.92 1.514,4.079l2.652,3.094c0.285,0.334 0.587,0.708 0.585,1.145c-0.004,0.625 -0.662,1.088 -1.287,1.099c-0.625,0.01 -1.204,-0.306 -1.732,-0.64c-2.076,-1.306 -3.909,-2.996 -5.378,-4.96c-0.233,-0.313 -0.544,-0.671 -0.93,-0.606c-0.235,0.038 -0.412,0.229 -0.558,0.419c-1.607,2.085 -1.747,5.253 -3.91,6.753c-1.237,0.857 -2.98,0.91 -4.266,0.128c-0.948,-0.577 -1.669,-1.618 -1.775,-2.72c1.351,-0.071 2.173,1.701 3.973,1.267" style="fill:#3b2314;fill-rule:nonzero;"/></g></g></svg>