<svg clip-rule="evenodd" fill-rule="evenodd" stroke-linejoin="round" stroke-miterlimit="2" viewBox="0 0 23 25" xmlns="http://www.w3.org/2000/svg"><g fill-rule="nonzero"><path d="m19.851 11.501c-.072.031-.144.062-.217.093.076.304.108.63.244.904.071.145.314.241.497.282.103.023.346-.113.344-.172-.005-.154-.078-.333-.181-.45-.209-.237-.456-.44-.687-.657m-10.077.964c-.765.678-.933 1.5-1.049 2.373 1.305-.221 1.351-.279 1.185-1.419-.046-.318-.091-.635-.136-.954m1.905-.516c.038.263.049.437.091.602.341 1.379.202 1.293 1.667.872.261-.076.341-.274.156-.495-.477-.569-1.065-.926-1.914-.979m8.254 3.819c-.132-.672-.245-1.244-.358-1.817-.045-.23-.113-.445-.416-.358-.275.079-.693.141-.635.484.107.639.325 1.264.557 1.872.039.105.384.151.57.12.123-.021.218-.227.282-.301m-8.456-2.218c-.049-.394-.1-.789-.144-1.184-.041-.361-.258-.493-.598-.479-.348.015-.54.179-.527.541.015.435.023.87.052 1.304.017.262.074.515.432.493.506-.031.824-.295.785-.675m-.941 3.902c-.119-.684-.212-1.295-.339-1.899-.034-.161-.139-.363-.273-.438-.428-.242-1.259.305-1.261.804-.005 1.011.612 1.538 1.873 1.533m11.223-2.994c-.061-.217-.144-.613-.286-.987-.17-.448-.524-.42-.918-.307-.389.112-.547.28-.421.713.144.49.186 1.01.319 1.505.032.121.254.288.373.276.569-.057.936-.483.933-1.2m-2.45-2.093c-.072-.256-.173-.761-.358-1.231-.188-.477-.551-.596-.964-.405-.504.235-.622.525-.409 1.043.153.371.316.737.481 1.102.117.26.184.576.606.444.366-.114.716-.218.644-.953m-6.963 4.778c-.196-.767-.367-1.473-.561-2.175-.044-.161-.13-.374-.259-.437-.435-.212-1.093.272-1.038.766.052.47.138.941.262 1.397.234.859.392.93 1.244.642.101-.033.189-.102.352-.193m.502-.293c.953-.802 1.409-1.598 1.357-2.621-.009-.163-.25-.463-.333-.446-.498.098-.991.247-1.462.435-.1.04-.178.33-.144.476.154.665.351 1.32.582 2.156m4.186-5.095c-.658.874-.863 1.78-.841 2.752.018.808.232 1.137.992 1.397.362.123.806.441 1.121.083.141-.161-.04-.607-.075-.925-.004-.037-.008-.074-.016-.109-.21-.825-.236-.837-1.011-.525-.123.049-.256.081-.505.158.121-.198.152-.301.221-.354.934-.73.936-.729.451-1.834-.085-.195-.197-.378-.337-.643m-12.535-.946c.649 0 1.303.142 1.853-.037.633-.205 1.207-.651 1.744-1.072.319-.25.211-.666.054-1.017-.119-.267-.319-.356-.614-.34-1.277.064-2.547 1.05-3.037 2.466m-3.563-4.737c0 .259-.042.561.007.848.238 1.384.736 2.625 2.017 3.392.36.215.68.246.938-.177.749-1.233 1.858-1.952 3.25-2.296.496-.122.568-.272.308-.707-.642-1.072-1.284-2.153-2.037-3.144-.362-.476-.937-.843-1.486-1.113-1.079-.531-1.92-.227-2.522.814-.419.724-.539 1.52-.475 2.383m8.192-1.349c-.022.002-.043.005-.065.007.095.837.197 1.672.282 2.509.029.293.167.448.442.555 1.613.631 2.255.523 3.579-.646.193-.17.379-.348.559-.531.955-.971 1.218-2.16 1.014-3.456-.195-1.233-1.684-2.437-2.84-2.281-1.469.199-3.032.988-2.971 3.181.006.221 0 .441 0 .662m-.175 14.838c-1.102-1.221-1.214-2.749-1.299-4.25-.063-1.114.206-2.187.978-3.08.407-.473.739-1.011 1.144-1.487.393-.465.835-.89 1.452-1.539-1.124.253-1.806-.172-2.463-.701.006.204.027.357.107.469.345.494.179.908-.191 1.281-.953.959-2.071 1.519-3.464 1.381-.256-.026-.509-.073-.764-.114-.424-.069-.743.075-.855.499-.237.884-.573 1.765-.638 2.664-.12 1.66.384 3.114 1.876 4.088.264-.213.505-.407.804-.647-.1 1.244-.084 1.283 1.025 1.757.267.114.557.181.843.247.542.128 1.022.042 1.445-.568m12.363-3.428c-.299.202-.582.552-.897.581-1.131.106-2.281.265-3.399-.119-1.147-.393-1.543-.95-1.518-2.134.006-.295.039-.589.068-.883.101-1.026.692-1.855 1.155-2.725.124-.232.542-.304.818-.461.038-.021.039-.109.057-.164-1.559-.916-3.796-.897-4.844-.669-.866.189-1.737.514-2.234 1.411.753.122 1.458.165 2.12.357 2.033.591 3.031 2.683 2.121 4.563-.699 1.444-1.881 2.362-3.544 2.467-.671.042-1.35-.046-2.11-.079.555 1.012 1.394 1.532 2.38 1.774 2.408.591 4.766.418 6.995-.721 1.332-.679 2.406-1.644 2.832-3.198m-2.207 3.983-1.482.698c.106.494.2.99.319 1.481.131.536.298 1.063.422 1.6.027.118-.06.262-.095.394-.159-.051-.377-.057-.463-.167-.13-.164-.183-.397-.241-.608-.107-.391-.188-.788-.292-1.18-.344-1.309-.342-1.262-1.745-1.156-1.359.104-2.735.156-4.063-.245-.52-.157-.986-.217-1.488.048-.217.113-.5.107-.754.145-.672.1-.732.135-.764.824-.032.662-.007 1.326-.011 1.989-.001.221.023.453-.046.653-.025.076-.396.127-.407.101-.144-.331-.337-.674-.348-1.02-.023-.694.033-1.394.107-2.087.037-.342 0-.567-.356-.685-.691-.231-1.376-.478-2.143-.747-.053.229-.138.458-.153.692-.032.477-.007.959-.042 1.436-.022.293.167.791-.317.782-.394-.007-.386-.497-.385-.807.001-.587.04-1.179.126-1.759.081-.558-.035-.973-.484-1.36-2-1.726-2.056-3.94-1.49-6.28.12-.497.565-1.027.458-1.437-.102-.39-.796-.59-1.11-.969-.465-.561-.922-1.165-1.21-1.825-.661-1.513-.625-3.11-.118-4.646.64-1.938 2.273-2.505 4.057-1.52.966.534 1.656 1.347 2.22 2.266.463.752.862 1.543 1.297 2.314.12.212.268.408.467.708-.048-1.302-.127-2.468-.125-3.633.005-2.524 1.602-4.049 4.126-3.936.418.019.88.168 1.232.396 2.421 1.57 2.382 3.885 1.19 5.861-.316.523-.826.93-1.266 1.374-.227.229-.492.421-.811.689 1.044.11 1.99.147 2.912.319 2.04.381 3.831 1.258 5.301 2.771 1.859 1.915 1.801 4.362.393 6.344-.655.921-1.563 1.55-2.446 2.213z" fill="#231f20"/><path d="m19.08 20.146c.329-.061.608.027.714.357.293.906.575 1.816.816 2.735.037.141-.163.345-.254.521-.118-.119-.304-.217-.344-.358-.317-1.09-.606-2.189-.903-3.285z" fill="#231f20"/><path d="m17.368 17.48c-.06-.05-.121-.1-.182-.15-.734.561-1.429 1.29-2.446.605-.034-.024-.162.018-.183.061-.044.088-.099.244-.057.291.159.181.331.414.544.477.815.243 1.535.005 2.098-.618.144-.16.154-.441.226-.666m3.947-1.347c-.426 1.554-1.5 2.518-2.831 3.198-2.23 1.139-4.587 1.313-6.996.72-.985-.242-1.824-.762-2.38-1.773.76.032 1.44.122 2.111.079 1.664-.106 2.844-1.024 3.543-2.467.91-1.88-.088-3.972-2.12-4.563-.662-.192-1.368-.235-2.121-.357.498-.897 1.369-1.222 2.234-1.411 1.048-.228 3.286-.246 4.844.668-.018.055-.019.143-.056.165-.277.157-.695.228-.818.46-.463.871-1.054 1.7-1.155 2.725-.03.294-.062.589-.068.883-.024 1.185.371 1.741 1.518 2.135 1.117.384 2.268.225 3.399.119.314-.029.599-.379.896-.581" fill="#2b5b6e"/><path d="m8.952 19.56c-.423.609-.903.695-1.445.569-.286-.068-.576-.134-.843-.249-1.108-.473-1.125-.512-1.025-1.755-.299.24-.54.433-.804.645-1.491-.972-1.996-2.427-1.875-4.087.064-.898.4-1.78.637-2.664.113-.424.431-.567.855-.499.255.042.509.088.765.114 1.392.139 2.51-.421 3.464-1.381.369-.372.535-.787.19-1.281-.079-.112-.1-.265-.106-.469.656.529 1.339.955 2.462.702-.617.649-1.059 1.073-1.452 1.539-.404.476-.736 1.014-1.144 1.486-.771.893-1.041 1.965-.977 3.081.084 1.501.197 3.028 1.298 4.249" fill="#5f7783"/><path d="m9.128 4.722c0-.221.006-.441-.001-.661-.061-2.193 1.503-2.983 2.972-3.182 1.156-.156 2.645 1.049 2.84 2.281.204 1.296-.059 2.485-1.014 3.456-.18.183-.366.361-.559.531-1.324 1.169-1.966 1.277-3.58.647-.274-.109-.411-.263-.442-.555-.084-.837-.186-1.673-.281-2.51.022-.002.044-.005.065-.007" fill="#fff"/><path d="m.935 6.072c-.064-.863.055-1.659.475-2.383.603-1.041 1.443-1.345 2.523-.814.549.27 1.124.637 1.485 1.113.753.992 1.396 2.072 2.038 3.143.26.436.188.586-.309.709-1.391.343-2.501 1.062-3.249 2.294-.259.424-.58.393-.938.179-1.283-.768-1.779-2.009-2.018-3.394-.049-.286-.007-.587-.007-.847" fill="#fff"/><path d="m4.499 10.809c.489-1.417 1.759-2.402 3.036-2.467.295-.015.496.073.615.341.157.351.265.767-.055 1.017-.537.421-1.11.867-1.743 1.072-.551.178-1.205.037-1.853.037" fill="#fff"/><g fill="#fbc4ae"><path d="m17.034 11.755c.139.265.25.448.336.643.486 1.106.483 1.105-.451 1.834-.069.053-.099.157-.22.354.249-.077.38-.109.505-.158.775-.312.801-.3 1.009.525.01.035.013.073.017.109.035.318.217.764.075.925-.314.358-.758.04-1.12-.083-.761-.26-.975-.589-.993-1.397-.021-.972.184-1.877.842-2.752"/><path d="m12.848 16.85c-.231-.837-.429-1.491-.582-2.155-.034-.147.044-.437.143-.477.472-.188.964-.338 1.463-.436.083-.015.323.285.333.447.052 1.023-.404 1.819-1.357 2.621"/><path d="m12.346 17.143c-.163.091-.251.16-.352.193-.852.288-1.01.217-1.244-.643-.124-.455-.21-.926-.262-1.396-.055-.494.603-.979 1.038-.766.128.062.215.276.259.437.194.701.365 1.408.561 2.175"/><path d="m19.309 12.365c.072.735-.278.839-.644.953-.422.132-.49-.184-.606-.443-.165-.366-.328-.733-.481-1.103-.213-.519-.096-.809.409-1.042.413-.193.776-.073.964.404.185.471.286.975.358 1.231"/><path d="m21.759 14.457c.003.717-.364 1.144-.933 1.2-.119.012-.34-.154-.373-.276-.133-.495-.175-1.014-.318-1.505-.127-.432.031-.6.42-.712.394-.113.748-.141.918.307.142.373.225.769.286.986"/><path d="m10.535 17.451c-1.26.006-1.877-.522-1.873-1.533.003-.499.834-1.045 1.262-.804.134.075.239.278.273.438.127.604.22 1.215.338 1.899"/><path d="m11.476 13.55c.039.38-.278.644-.785.675-.358.022-.415-.231-.431-.493-.029-.433-.038-.869-.053-1.304-.012-.362.18-.526.528-.54.339-.014.556.118.597.478.045.395.096.79.144 1.184"/><path d="m19.933 15.768c-.065.074-.159.28-.284.3-.185.032-.53-.015-.568-.119-.232-.609-.451-1.234-.558-1.874-.057-.341.361-.404.636-.483.302-.087.37.129.416.359.111.572.225 1.144.358 1.817"/><path d="m11.679 11.948c.848.054 1.436.41 1.913.979.185.222.106.419-.156.495-1.464.421-1.325.507-1.667-.872-.041-.165-.052-.339-.09-.602"/><path d="m9.774 12.465c.045.319.089.636.135.954.167 1.14.121 1.198-1.185 1.419.117-.873.284-1.695 1.05-2.373"/><path d="m19.851 11.501c.231.217.478.42.687.657.103.117.176.296.181.45.002.059-.241.195-.344.172-.183-.041-.426-.137-.497-.282-.136-.274-.168-.6-.244-.904.073-.031.145-.062.217-.093"/></g><path d="m17.368 17.48c-.072.225-.082.506-.226.666-.563.623-1.283.861-2.098.618-.213-.063-.385-.296-.544-.477-.042-.047.013-.203.057-.291.021-.043.149-.085.183-.061 1.017.685 1.712-.044 2.446-.605.061.05.122.1.182.15" fill="#231f20"/></g></svg>