<?xml version="1.0" encoding="UTF-8" standalone="no"?><!DOCTYPE svg PUBLIC "-//W3C//DTD SVG 1.1//EN" "http://www.w3.org/Graphics/SVG/1.1/DTD/svg11.dtd"><svg width="100%" height="100%" viewBox="0 0 52 23" version="1.1" xmlns="http://www.w3.org/2000/svg" xmlns:xlink="http://www.w3.org/1999/xlink" xml:space="preserve" xmlns:serif="http://www.serif.com/" style="fill-rule:evenodd;clip-rule:evenodd;stroke-linejoin:round;stroke-miterlimit:2;"><g><path d="M5.92,5.094c0.331,-0.048 0.596,-0.053 0.832,-0.135c0.144,-0.049 0.352,-0.223 0.349,-0.338c-0.022,-0.904 0.312,-1.697 0.877,-2.541c-0.648,0.046 -1.202,0.08 -1.424,0.512c-0.38,0.733 -0.814,1.491 -0.634,2.502m36.265,4.196c-1.332,-0.47 -2.506,-0.672 -3.729,-0.551c-0.216,0.022 -0.436,0.066 -0.641,0.139c-0.529,0.189 -0.64,0.438 -0.436,0.916c0.301,0.695 0.64,0.926 1.113,0.675c1.104,-0.585 2.263,-0.992 3.693,-1.179m-3.609,1.812c0.423,0.309 0.785,0.547 1.117,0.821c0.331,0.272 0.618,0.294 0.982,0.036c0.822,-0.584 1.777,-0.849 2.75,-1.057c0.229,-0.049 0.441,-0.175 0.685,-0.275c-0.698,-0.8 -0.698,-0.799 -1.506,-0.754c-0.256,0.014 -0.515,0.003 -0.768,0.032c-1.136,0.134 -2.201,0.46 -3.26,1.197m-33.176,-7.99c-1.129,0.342 -3.551,1.94 -4.181,2.8c-0.193,0.263 -0.354,0.558 -0.474,0.86c-0.057,0.143 -0.046,0.399 0.046,0.49c0.093,0.091 0.352,0.105 0.491,0.044c0.566,-0.248 1.115,-0.539 1.671,-0.809c0.626,-0.306 1.265,-0.585 1.873,-0.922c0.191,-0.105 0.4,-0.344 0.429,-0.546c0.092,-0.637 0.104,-1.284 0.145,-1.917m33.938,9.598c-0.36,-0.245 -0.783,-0.534 -1.208,-0.819c-0.254,-0.171 -0.483,-0.122 -0.698,0.08c-1.007,0.948 -1.889,1.976 -2.224,3.365c-0.143,0.595 0.011,0.855 0.608,0.832c0.464,-0.016 0.939,-0.109 1.261,-0.533c0.733,-0.961 1.477,-1.912 2.261,-2.925m-16.141,-3.349c-0.79,-0.191 -0.795,-0.201 -1.102,-0.049c-2.587,1.283 -3.879,3.507 -4.446,6.22c-0.083,0.395 0.087,0.867 0.224,1.276c0.045,0.136 0.35,0.224 0.546,0.249c0.062,0.008 0.24,-0.267 0.228,-0.401c-0.103,-1.212 0.425,-2.214 1.02,-3.197c0.914,-1.511 1.877,-2.984 3.53,-4.098m13.092,0.331c-0.5,0.501 -0.933,0.848 -1.252,1.277c-0.94,1.263 -1.465,2.698 -1.601,4.268c-0.059,0.677 0.055,0.77 0.692,0.748c0.429,-0.017 0.56,-0.267 0.64,-0.614c0.249,-1.098 0.767,-2.053 1.506,-2.898c0.333,-0.382 0.898,-0.782 0.9,-1.177c0.004,-0.465 -0.488,-0.934 -0.885,-1.604m-6.023,-0.014c-1.164,-0.156 -1.886,0.526 -2.68,1.122c-1.768,1.326 -2.274,3.26 -2.64,5.268c-0.032,0.165 0.11,0.451 0.258,0.543c0.501,0.307 1.257,-0.102 1.252,-0.683c-0.007,-0.957 0.321,-1.799 0.811,-2.586c0.796,-1.28 1.64,-2.524 2.887,-3.427c0.058,-0.043 0.07,-0.146 0.112,-0.237m-11.85,-8.164c-0.935,-0.715 -1.869,-1.158 -2.856,-0.745c-1.833,0.771 -3.37,1.965 -4.335,3.765c-0.551,1.026 -0.449,1.286 0.589,1.827c1.269,-2.77 3.269,-4.547 6.602,-4.847m-3.61,11.027c0.237,-0.566 0.353,-0.915 0.522,-1.234c0.465,-0.876 0.9,-1.775 1.445,-2.6c0.71,-1.077 1.656,-1.874 3.027,-1.988c0.145,-0.012 0.284,-0.076 0.428,-0.104c0.431,-0.079 0.519,-0.343 0.415,-0.729c-0.125,-0.471 -0.286,-0.568 -0.934,-0.452c-2.459,0.437 -4.055,1.98 -5.135,4.116c-0.219,0.434 -0.425,1.099 -0.242,1.452c0.226,0.437 0.237,0.895 0.474,1.539m17.494,-2.967c-0.354,0.101 -0.462,0.112 -0.547,0.159c-2.005,1.113 -3.363,2.808 -4.315,4.851c-0.166,0.357 -0.224,0.772 -0.286,1.167c-0.025,0.162 0.031,0.458 0.122,0.489c0.173,0.061 0.483,0.051 0.584,-0.063c0.283,-0.32 0.445,-0.245 0.813,-0.072c0.7,0.329 1.224,-0.11 1.288,-0.87c0.158,-1.843 0.452,-3.647 1.842,-5.046c0.127,-0.129 0.23,-0.282 0.499,-0.615m-18.648,-8.828c-1.414,0.145 -2.778,0.323 -4.006,0.871c-1.066,0.478 -1.808,1.38 -1.894,2.649c-0.037,0.55 0.049,0.655 0.597,0.663c0.48,0.008 0.928,0.019 1.369,0.292c0.393,0.242 0.578,0.139 0.696,-0.352c0.184,-0.779 0.571,-1.43 1.116,-1.992c0.66,-0.683 1.338,-1.346 2.122,-2.131m19.039,14.875c0.144,-0.846 0.197,-1.736 0.461,-2.561c0.264,-0.828 0.651,-1.648 1.145,-2.363c0.48,-0.696 1.163,-1.252 1.833,-1.946c-1.381,-0.036 -2.429,0.451 -3.357,1.305c-1.277,1.175 -1.912,2.66 -2.175,4.334c-0.063,0.397 -0.127,0.799 -0.133,1.198c-0.001,0.136 0.174,0.386 0.275,0.39c0.471,0.017 1.016,0.295 1.327,-0.385c0.209,-0.454 0.466,-0.045 0.624,0.028m-15.821,0.752c0.057,-0.413 0.078,-0.627 0.115,-0.836c0.298,-1.654 0.869,-3.189 1.909,-4.537c0.642,-0.833 1.417,-1.491 2.314,-2.026c0.713,-0.426 0.705,-0.438 0.206,-1.146c-0.063,-0.091 -0.137,-0.176 -0.185,-0.275c-0.173,-0.355 -0.458,-0.421 -0.827,-0.381c-1.228,0.133 -2.258,0.605 -3.016,1.621c-0.935,1.252 -1.646,2.617 -2.156,4.091c-0.169,0.487 -0.167,0.924 0.296,1.268c0.099,0.073 0.222,0.217 0.212,0.316c-0.08,0.819 0.447,1.268 1.132,1.905m-3.214,-6.845c0.139,-0.133 0.212,-0.173 0.243,-0.234c1.22,-2.433 2.964,-4.2 5.802,-4.602c0.16,-0.022 0.361,-0.142 0.439,-0.276c0.221,-0.378 -0.754,-2.218 -1.17,-2.165c-0.903,0.111 -1.844,-0.113 -2.71,0.375c-1.067,0.603 -2.087,1.267 -2.875,2.213c-0.347,0.417 -0.62,0.913 -0.836,1.413c-0.122,0.283 -0.173,0.691 -0.06,0.96c0.324,0.771 0.747,1.499 1.167,2.316m14.016,0.291c-0.529,0 -0.964,0.006 -1.399,-0.002c-0.479,-0.01 -0.977,0.05 -1.427,-0.069c-0.563,-0.149 -1.014,-0.05 -1.434,0.296c-0.48,0.396 -1.03,0.748 -1.392,1.236c-0.853,1.146 -1.67,2.331 -2.383,3.567c-0.316,0.546 -0.364,1.252 -0.496,1.893c-0.032,0.152 0.042,0.381 0.15,0.497c0.272,0.293 1.365,0.195 1.562,-0.175c0.213,-0.401 0.396,-0.434 0.577,-0.051c0.167,0.351 0.422,0.375 0.721,0.329c0.545,-0.081 1.087,-0.18 1.628,-0.283c0.366,-0.069 0.594,-0.266 0.568,-0.678c-0.01,-0.145 0.008,-0.295 0.028,-0.44c0.318,-2.283 1.01,-4.37 3.041,-5.753c0.08,-0.055 0.12,-0.169 0.256,-0.367m13.323,2.943c0.281,0.333 0.481,0.547 0.647,0.786c0.045,0.064 0.021,0.229 -0.034,0.295c-0.048,0.056 -0.199,0.071 -0.281,0.041c-0.171,-0.065 -0.324,-0.173 -0.487,-0.259c-0.742,-0.393 -0.837,-0.402 -1.431,0.201c-0.885,0.898 -1.555,1.907 -1.943,3.15c-0.352,1.128 -0.169,2.021 0.616,2.829c0.688,0.707 1.561,1.084 2.506,1.325c1.306,0.336 2.634,0.279 3.957,0.222c1.559,-0.066 2.942,-0.636 4.14,-1.631c2.052,-1.705 2.23,-5.125 0.728,-6.775c-0.642,-0.705 -1.317,-1.292 -2.373,-0.906c-0.129,0.047 -0.272,0.06 -0.404,0.088c0.032,0.275 0.057,0.504 0.116,1.016c-0.457,-0.427 -0.711,-0.669 -0.971,-0.902c-0.157,-0.141 -0.317,-0.372 -0.489,-0.388c-1.485,-0.125 -2.928,-0.004 -4.297,0.908m-34.875,-5.176c-0.134,-0.073 -0.179,-0.083 -0.194,-0.109c-0.8,-1.299 -0.721,-1.386 -2.335,-0.646c-0.952,0.436 -1.503,1.026 -1.34,2.131c0.018,0.12 -0.157,0.268 -0.242,0.403c-0.116,-0.127 -0.242,-0.247 -0.344,-0.384c-0.04,-0.052 -0.026,-0.142 -0.037,-0.214c-0.042,-0.249 -0.002,-0.587 -0.149,-0.717c-0.139,-0.125 -0.472,-0.02 -0.719,-0.036c-0.472,-0.029 -0.691,-0.213 -0.689,-0.681c0.001,-0.32 0.073,-0.659 0.195,-0.955c0.334,-0.807 0.935,-1.401 1.627,-1.917c2.307,-1.719 4.851,-2.935 7.666,-3.553c1.87,-0.411 3.734,-0.855 5.671,-0.882c1.408,-0.019 2.726,0.202 3.827,1.141c0.328,0.281 0.658,0.609 0.856,0.984c0.582,1.105 1.104,2.231 1.328,3.49c0.12,0.668 0.399,1.351 0.763,1.928c0.79,1.25 2.129,1.531 3.471,1.611c2.4,0.144 4.786,-0.056 7.151,-0.514c0.903,-0.174 1.812,-0.337 2.724,-0.462c0.527,-0.071 0.841,-0.265 0.998,-0.821c0.291,-1.028 1.064,-1.558 2.096,-1.711c0.621,-0.092 1.186,0.08 1.611,0.545c0.158,0.172 0.212,0.451 0.276,0.692c0.021,0.08 -0.062,0.262 -0.121,0.274c-0.113,0.021 -0.31,-0.007 -0.356,-0.084c-0.248,-0.413 -0.565,-0.649 -1.075,-0.634c-0.873,0.028 -1.354,0.446 -1.62,1.509c0.73,0.038 1.454,0.047 2.173,0.121c0.694,0.072 1.382,0.21 2.072,0.324c1.366,0.225 2.492,0.865 3.369,1.942c0.08,0.099 0.215,0.155 0.329,0.234c-0.03,-1.294 -0.089,-2.537 -0.079,-3.778c0.014,-1.937 1.543,-3.118 3.431,-2.697c0.551,0.123 0.964,0.421 1.063,0.99c0.082,0.465 0.127,0.955 0.081,1.423c-0.068,0.687 -0.627,1.093 -1.328,1.023c-0.158,-0.017 -0.301,-0.168 -0.451,-0.257c0.107,-0.123 0.197,-0.329 0.324,-0.354c0.675,-0.138 0.748,-0.6 0.715,-1.162c-0.044,-0.751 -0.243,-0.971 -0.993,-1.039c-1.111,-0.1 -2.129,0.793 -2.149,2.034c-0.02,1.138 0.119,2.277 0.19,3.415c0.022,0.358 0.233,0.506 0.579,0.531c0.817,0.062 1.598,0.254 2.318,0.665c1.499,0.858 2.272,2.187 2.404,3.869c0.34,4.337 -2.478,6.238 -5.434,6.922c-1.904,0.441 -3.815,0.296 -5.691,-0.216c-0.933,-0.256 -1.775,-0.714 -2.505,-1.364c-0.722,-0.642 -1.016,-1.512 -1.284,-2.47c-0.214,0.564 -0.007,1.138 -0.315,1.69c-0.405,-0.356 -0.366,-0.723 -0.332,-1.076c0.046,-0.476 0.085,-0.957 0.187,-1.422c0.087,-0.403 -0.097,-0.547 -0.431,-0.607c-0.326,-0.06 -0.654,-0.116 -0.983,-0.157c-1.543,-0.191 -1.63,-0.082 -1.253,1.449c0.084,0.339 0.379,0.877 -0.002,0.996c-0.543,0.168 -0.488,-0.482 -0.615,-0.824c-0.178,-0.476 -0.187,-1.173 -0.52,-1.389c-0.395,-0.258 -1.057,-0.106 -1.603,-0.132c-0.037,-0.001 -0.074,0 -0.11,0.004c-0.505,0.063 -1.011,0.126 -1.516,0.189c0.078,0.455 0.205,0.91 0.216,1.366c0.009,0.351 0.469,0.902 -0.108,1.022c-0.392,0.082 -0.364,-0.551 -0.45,-0.881c-0.391,-1.479 -0.38,-1.48 -1.87,-1.251c-0.182,0.027 -0.371,0.028 -0.549,0.071c-0.506,0.121 -0.584,0.232 -0.52,0.779c0.059,0.51 0.152,1.017 0.208,1.529c0.009,0.084 -0.088,0.18 -0.136,0.271c-0.116,-0.066 -0.312,-0.112 -0.337,-0.204c-0.138,-0.494 -0.254,-0.996 -0.334,-1.503c-0.068,-0.422 -0.288,-0.565 -0.687,-0.495c-0.726,0.126 -1.458,0.23 -2.177,0.386c-0.528,0.114 -0.578,0.237 -0.488,0.783c0.007,0.036 0.024,0.071 0.03,0.107c0.043,0.289 0.382,0.648 -0.092,0.808c-0.086,0.028 -0.371,-0.457 -0.521,-0.73c-0.083,-0.153 -0.046,-0.372 -0.126,-0.532c-0.071,-0.144 -0.212,-0.335 -0.346,-0.355c-0.861,-0.139 -1.728,-0.236 -2.723,-0.363c0.049,0.419 0.109,0.805 0.138,1.194c0.013,0.177 -0.001,0.372 -0.068,0.531c-0.029,0.063 -0.236,0.065 -0.36,0.06c-0.04,-0.002 -0.095,-0.11 -0.11,-0.176c-0.161,-0.706 0.053,-1.516 -0.473,-2.11c-0.459,-0.518 -1.012,-0.953 -1.57,-1.464c-0.425,0.402 -0.43,1.017 -0.597,1.56c-0.054,0.174 -0.054,0.366 -0.115,0.538c-0.03,0.081 -0.147,0.185 -0.221,0.182c-0.073,-0.003 -0.197,-0.121 -0.202,-0.196c-0.021,-0.254 -0.026,-0.516 0.014,-0.768c0.045,-0.288 0.08,-0.609 0.229,-0.847c0.835,-1.339 0.129,-2.526 -0.299,-3.834c-0.578,0.365 -0.807,0.919 -1.144,1.378c-0.151,0.207 -0.285,0.429 -0.458,0.614c-0.032,0.034 -0.316,-0.088 -0.313,-0.115c0.039,-0.281 0.046,-0.599 0.191,-0.823c0.32,-0.493 0.705,-0.945 1.085,-1.395c0.2,-0.239 0.353,-0.471 0.253,-0.796c-0.319,-1.02 -0.803,-1.956 -1.362,-2.924c-0.713,0.619 -1.097,1.324 -1.423,2.069c-0.092,0.213 -0.221,0.451 -0.468,0.298c-0.129,-0.08 -0.242,-0.413 -0.178,-0.537c0.32,-0.616 0.657,-1.232 1.069,-1.789c0.546,-0.736 0.585,-0.816 -0.027,-1.474c-0.249,-0.27 -0.514,-0.538 -0.813,-0.747c-0.869,-0.607 -1.63,-0.412 -2.035,0.547c-0.27,0.641 -0.439,1.325 -0.675,1.981c-0.038,0.107 -0.184,0.176 -0.28,0.262c-0.08,-0.109 -0.231,-0.224 -0.224,-0.326c0.023,-0.326 0.07,-0.66 0.175,-0.968c0.187,-0.555 0.424,-1.095 0.665,-1.702c-0.841,-0.164 -1.609,-0.154 -2.362,0.212c0.376,0.909 0.376,0.909 0.288,1.492" style="fill:#231f20;fill-rule:nonzero;"/><path d="M44.487,18.784c-0.026,0.081 -0.054,0.162 -0.079,0.243c0.384,0.159 0.755,0.39 1.156,0.463c0.761,0.136 1.853,-0.608 2.042,-1.34c0.028,-0.113 -0.03,-0.312 -0.117,-0.373c-0.081,-0.055 -0.266,-0.008 -0.382,0.044c-0.092,0.04 -0.152,0.153 -0.219,0.239c-0.549,0.699 -1.207,1.037 -2.101,0.671c-0.079,-0.032 -0.199,0.034 -0.3,0.053m-1.634,-1.199c0.64,-0.015 1.031,-0.403 1.038,-1.029c0.009,-0.704 -0.605,-1.214 -1.433,-1.19c-0.605,0.017 -0.948,0.364 -0.956,0.965c-0.01,0.784 0.52,1.277 1.351,1.254m4.251,-3.74c-0.727,0.024 -1.218,0.556 -1.201,1.3c0.015,0.642 0.437,1.098 1.001,1.08c0.842,-0.028 1.395,-0.522 1.394,-1.248c0,-0.694 -0.486,-1.155 -1.194,-1.132m-6.109,-1.083c1.369,-0.912 2.812,-1.033 4.296,-0.908c0.174,0.016 0.333,0.248 0.49,0.388c0.26,0.234 0.513,0.476 0.97,0.902c-0.058,-0.511 -0.084,-0.74 -0.115,-1.016c0.133,-0.027 0.274,-0.041 0.404,-0.089c1.056,-0.384 1.732,0.202 2.373,0.908c1.501,1.649 1.324,5.07 -0.729,6.774c-1.198,0.995 -2.581,1.566 -4.14,1.631c-1.322,0.057 -2.65,0.113 -3.956,-0.221c-0.946,-0.242 -1.817,-0.618 -2.506,-1.327c-0.785,-0.808 -0.967,-1.7 -0.616,-2.827c0.388,-1.243 1.057,-2.253 1.943,-3.151c0.594,-0.603 0.689,-0.595 1.431,-0.201c0.164,0.086 0.317,0.194 0.487,0.258c0.081,0.031 0.233,0.016 0.281,-0.041c0.055,-0.065 0.079,-0.23 0.034,-0.294c-0.167,-0.238 -0.367,-0.453 -0.647,-0.786" style="fill:#fcbd73;fill-rule:nonzero;"/><path d="M27.671,9.819c-0.135,0.199 -0.175,0.312 -0.255,0.367c-2.032,1.383 -2.724,3.469 -3.041,5.754c-0.021,0.145 -0.038,0.294 -0.029,0.439c0.027,0.412 -0.201,0.609 -0.567,0.678c-0.542,0.104 -1.084,0.203 -1.629,0.284c-0.299,0.044 -0.554,0.021 -0.721,-0.33c-0.181,-0.382 -0.363,-0.35 -0.577,0.052c-0.197,0.369 -1.289,0.467 -1.561,0.174c-0.108,-0.116 -0.182,-0.344 -0.15,-0.496c0.131,-0.641 0.179,-1.348 0.495,-1.895c0.714,-1.235 1.53,-2.419 2.383,-3.566c0.362,-0.488 0.913,-0.839 1.393,-1.236c0.419,-0.345 0.871,-0.445 1.433,-0.295c0.451,0.119 0.949,0.059 1.427,0.068c0.435,0.008 0.871,0.002 1.399,0.002" style="fill:#fcbd73;fill-rule:nonzero;"/><path d="M13.656,9.528c-0.42,-0.816 -0.843,-1.545 -1.167,-2.315c-0.113,-0.27 -0.062,-0.678 0.06,-0.961c0.216,-0.499 0.489,-0.996 0.836,-1.413c0.788,-0.946 1.808,-1.608 2.875,-2.212c0.866,-0.489 1.807,-0.264 2.71,-0.376c0.416,-0.053 1.39,1.788 1.17,2.166c-0.078,0.133 -0.279,0.253 -0.439,0.277c-2.838,0.4 -4.582,2.167 -5.802,4.6c-0.032,0.061 -0.104,0.101 -0.243,0.234" style="fill:#fcbd73;fill-rule:nonzero;"/><path d="M16.87,16.374c-0.684,-0.636 -1.212,-1.086 -1.133,-1.905c0.01,-0.099 -0.113,-0.243 -0.211,-0.316c-0.463,-0.344 -0.465,-0.781 -0.296,-1.269c0.51,-1.474 1.222,-2.839 2.156,-4.091c0.758,-1.016 1.787,-1.488 3.015,-1.621c0.37,-0.039 0.654,0.026 0.828,0.382c0.047,0.099 0.123,0.184 0.185,0.274c0.499,0.708 0.507,0.72 -0.206,1.146c-0.897,0.536 -1.672,1.193 -2.315,2.026c-1.04,1.349 -1.61,2.883 -1.908,4.537c-0.037,0.21 -0.058,0.423 -0.115,0.837" style="fill:#fcbd73;fill-rule:nonzero;"/><path d="M32.691,15.621c-0.158,-0.073 -0.415,-0.482 -0.624,-0.028c-0.311,0.68 -0.857,0.401 -1.327,0.385c-0.102,-0.003 -0.276,-0.254 -0.275,-0.389c0.006,-0.401 0.07,-0.802 0.132,-1.199c0.265,-1.674 0.899,-3.158 2.176,-4.334c0.928,-0.854 1.976,-1.342 3.357,-1.305c-0.669,0.695 -1.353,1.251 -1.834,1.946c-0.493,0.714 -0.88,1.535 -1.144,2.363c-0.263,0.824 -0.318,1.715 -0.461,2.561" style="fill:#f05057;fill-rule:nonzero;"/><path d="M13.652,0.746c-0.784,0.785 -1.462,1.448 -2.122,2.13c-0.545,0.563 -0.932,1.214 -1.117,1.992c-0.117,0.492 -0.303,0.595 -0.695,0.353c-0.441,-0.273 -0.889,-0.284 -1.37,-0.293c-0.547,-0.007 -0.633,-0.112 -0.596,-0.663c0.086,-1.268 0.827,-2.171 1.894,-2.648c1.228,-0.549 2.592,-0.726 4.006,-0.871" style="fill:#fcbd73;fill-rule:nonzero;"/><path d="M32.3,9.574c-0.27,0.333 -0.372,0.487 -0.5,0.615c-1.39,1.4 -1.683,3.204 -1.841,5.047c-0.065,0.759 -0.589,1.199 -1.289,0.869c-0.367,-0.172 -0.53,-0.247 -0.813,0.072c-0.101,0.114 -0.411,0.125 -0.584,0.065c-0.09,-0.032 -0.147,-0.329 -0.121,-0.491c0.061,-0.394 0.12,-0.81 0.285,-1.166c0.953,-2.043 2.31,-3.738 4.314,-4.851c0.086,-0.048 0.193,-0.058 0.549,-0.16" style="fill:#fcbd73;fill-rule:nonzero;"/><path d="M14.805,12.542c-0.236,-0.644 -0.248,-1.102 -0.474,-1.539c-0.183,-0.354 0.023,-1.019 0.242,-1.452c1.081,-2.137 2.676,-3.68 5.135,-4.116c0.648,-0.116 0.81,-0.02 0.934,0.452c0.104,0.386 0.016,0.649 -0.414,0.729c-0.144,0.027 -0.285,0.092 -0.429,0.103c-1.371,0.114 -2.317,0.912 -3.027,1.989c-0.545,0.824 -0.98,1.724 -1.444,2.599c-0.17,0.32 -0.286,0.669 -0.523,1.235" style="fill:#f05057;fill-rule:nonzero;"/><path d="M18.416,1.514c-3.333,0.3 -5.332,2.077 -6.602,4.847c-1.038,-0.541 -1.14,-0.8 -0.588,-1.826c0.965,-1.801 2.501,-2.995 4.335,-3.765c0.986,-0.414 1.92,0.029 2.855,0.744" style="fill:#f05057;fill-rule:nonzero;"/><path d="M30.266,9.678c-0.042,0.091 -0.055,0.194 -0.112,0.236c-1.247,0.904 -2.091,2.147 -2.887,3.427c-0.49,0.788 -0.818,1.629 -0.81,2.588c0.004,0.58 -0.752,0.989 -1.253,0.682c-0.148,-0.092 -0.29,-0.378 -0.259,-0.543c0.367,-2.008 0.873,-3.942 2.641,-5.268c0.794,-0.597 1.515,-1.278 2.68,-1.122" style="fill:#f05057;fill-rule:nonzero;"/><path d="M36.288,9.692c0.398,0.67 0.889,1.139 0.886,1.604c-0.003,0.395 -0.567,0.796 -0.901,1.178c-0.738,0.845 -1.257,1.8 -1.505,2.896c-0.08,0.348 -0.212,0.599 -0.641,0.615c-0.636,0.023 -0.75,-0.071 -0.692,-0.747c0.137,-1.57 0.662,-3.006 1.602,-4.268c0.318,-0.429 0.751,-0.776 1.251,-1.278" style="fill:#fcbd73;fill-rule:nonzero;"/><path d="M23.197,9.361c-1.653,1.115 -2.616,2.588 -3.531,4.098c-0.594,0.983 -1.122,1.986 -1.02,3.197c0.012,0.134 -0.165,0.41 -0.227,0.401c-0.197,-0.025 -0.502,-0.112 -0.547,-0.249c-0.136,-0.408 -0.306,-0.88 -0.223,-1.275c0.567,-2.714 1.859,-4.937 4.445,-6.22c0.308,-0.152 0.312,-0.142 1.103,0.048" style="fill:#f05057;fill-rule:nonzero;"/><path d="M39.337,12.71c-0.784,1.013 -1.527,1.964 -2.26,2.925c-0.323,0.424 -0.798,0.517 -1.261,0.533c-0.598,0.023 -0.752,-0.237 -0.609,-0.832c0.335,-1.389 1.218,-2.417 2.225,-3.365c0.215,-0.203 0.444,-0.251 0.697,-0.08c0.425,0.285 0.848,0.574 1.208,0.819" style="fill:#f05057;fill-rule:nonzero;"/><path d="M5.399,3.112c-0.042,0.634 -0.053,1.281 -0.144,1.917c-0.03,0.202 -0.238,0.442 -0.429,0.547c-0.608,0.336 -1.248,0.616 -1.873,0.921c-0.557,0.271 -1.106,0.561 -1.672,0.809c-0.138,0.06 -0.398,0.048 -0.49,-0.044c-0.093,-0.09 -0.105,-0.347 -0.047,-0.489c0.121,-0.302 0.282,-0.599 0.474,-0.861c0.63,-0.859 3.052,-2.458 4.181,-2.8" style="fill:#fcbd73;fill-rule:nonzero;"/><path d="M38.576,11.102c1.058,-0.737 2.124,-1.062 3.259,-1.197c0.254,-0.029 0.512,-0.017 0.768,-0.032c0.807,-0.045 0.807,-0.046 1.506,0.753c-0.243,0.101 -0.456,0.227 -0.684,0.276c-0.974,0.207 -1.928,0.472 -2.751,1.057c-0.363,0.258 -0.651,0.236 -0.982,-0.036c-0.331,-0.274 -0.693,-0.513 -1.116,-0.821" style="fill:#f05057;fill-rule:nonzero;"/><path d="M42.184,9.29c-1.43,0.187 -2.589,0.594 -3.693,1.178c-0.473,0.252 -0.813,0.021 -1.112,-0.675c-0.205,-0.477 -0.094,-0.726 0.436,-0.915c0.204,-0.073 0.425,-0.117 0.641,-0.139c1.222,-0.121 2.396,0.081 3.728,0.551" style="fill:#fcbd73;fill-rule:nonzero;"/><path d="M5.92,5.094c-0.18,-1.011 0.254,-1.769 0.634,-2.502c0.222,-0.432 0.776,-0.466 1.424,-0.512c-0.565,0.844 -0.899,1.637 -0.877,2.541c0.003,0.115 -0.205,0.289 -0.349,0.338c-0.236,0.082 -0.501,0.087 -0.832,0.135" style="fill:#f05057;fill-rule:nonzero;"/><path d="M47.104,13.846c0.707,-0.023 1.194,0.438 1.194,1.132c0.001,0.726 -0.552,1.22 -1.394,1.247c-0.564,0.018 -0.986,-0.437 -1.001,-1.081c-0.017,-0.742 0.474,-1.275 1.201,-1.298" style="fill:#231f20;fill-rule:nonzero;"/><path d="M42.854,17.586c-0.831,0.022 -1.362,-0.47 -1.352,-1.254c0.008,-0.601 0.352,-0.949 0.956,-0.965c0.829,-0.024 1.442,0.486 1.434,1.189c-0.008,0.626 -0.399,1.013 -1.038,1.03" style="fill:#231f20;fill-rule:nonzero;"/><path d="M44.487,18.784c0.101,-0.019 0.221,-0.085 0.3,-0.053c0.894,0.366 1.552,0.028 2.101,-0.671c0.067,-0.086 0.127,-0.199 0.219,-0.239c0.116,-0.052 0.301,-0.099 0.382,-0.044c0.087,0.061 0.145,0.26 0.117,0.373c-0.189,0.732 -1.281,1.476 -2.042,1.34c-0.401,-0.073 -0.772,-0.304 -1.156,-0.463c0.025,-0.081 0.053,-0.162 0.079,-0.243" style="fill:#231f20;fill-rule:nonzero;"/><g opacity="0.2"><path d="M13.7,3.988c0.63,0.17 1.259,0.411 1.74,0.852c2.018,1.857 0.195,5.673 1.978,7.756c1.303,1.522 3.689,1.204 5.661,0.846c5.21,-0.947 10.539,-1.244 15.823,-0.884c-0.567,1.909 -1.07,4.179 0.185,5.724c0.978,1.203 2.669,1.49 4.207,1.693c1.538,0.204 3.075,0.409 4.613,0.614c-1.592,0.536 -3.265,0.833 -4.945,0.879c-1.798,0.048 -3.763,-0.271 -4.978,-1.596c-1.081,-1.178 -1.329,-2.874 -1.526,-4.46l-17.396,1.408c-0.511,0.04 -1.039,0.079 -1.52,-0.094c-0.597,-0.216 -1.035,-0.728 -1.398,-1.25c-1.164,-1.672 -1.847,-3.627 -2.824,-5.418c-0.978,-1.789 -2.375,-3.504 -4.322,-4.109c-2.157,-0.672 -4.464,0.148 -6.573,0.957c-0.778,0.298 -1.576,0.571 -2.351,0.229c2.965,-2.826 9.726,-4.201 13.626,-3.147" style="fill:#3b2314;fill-rule:nonzero;"/></g></g></svg>