<svg clip-rule="evenodd" fill-rule="evenodd" stroke-linejoin="round" stroke-miterlimit="2" viewBox="0 0 52 23" xmlns="http://www.w3.org/2000/svg"><g fill-rule="nonzero"><path d="m5.92 5.094c.331-.048.596-.053.832-.135.144-.049.352-.223.349-.338-.022-.904.312-1.697.877-2.541-.648.046-1.202.08-1.424.512-.38.733-.814 1.491-.634 2.502m36.265 4.196c-1.332-.47-2.506-.672-3.729-.551-.216.022-.436.066-.641.139-.529.189-.64.438-.436.916.301.695.64.926 1.113.675 1.104-.585 2.263-.992 3.693-1.179m-3.609 1.812c.423.309.785.547 1.117.821.331.272.618.294.982.036.822-.584 1.777-.849 2.75-1.057.229-.049.441-.175.685-.275-.698-.8-.698-.799-1.506-.754-.256.014-.515.003-.768.032-1.136.134-2.201.46-3.26 1.197m-33.176-7.99c-1.129.342-3.551 1.94-4.181 2.8-.193.263-.354.558-.474.86-.057.143-.046.399.046.49.093.091.352.105.491.044.566-.248 1.115-.539 1.671-.809.626-.306 1.265-.585 1.873-.922.191-.105.4-.344.429-.546.092-.637.104-1.284.145-1.917m33.938 9.598c-.36-.245-.783-.534-1.208-.819-.254-.171-.483-.122-.698.08-1.007.948-1.889 1.976-2.224 3.365-.143.595.011.855.608.832.464-.016.939-.109 1.261-.533.733-.961 1.477-1.912 2.261-2.925m-16.141-3.349c-.79-.191-.795-.201-1.102-.049-2.587 1.283-3.879 3.507-4.446 6.22-.083.395.087.867.224 1.276.045.136.35.224.546.249.062.008.24-.267.228-.401-.103-1.212.425-2.214 1.02-3.197.914-1.511 1.877-2.984 3.53-4.098m13.092.331c-.5.501-.933.848-1.252 1.277-.94 1.263-1.465 2.698-1.601 4.268-.059.677.055.77.692.748.429-.017.56-.267.64-.614.249-1.098.767-2.053 1.506-2.898.333-.382.898-.782.9-1.177.004-.465-.488-.934-.885-1.604m-6.023-.014c-1.164-.156-1.886.526-2.68 1.122-1.768 1.326-2.274 3.26-2.64 5.268-.032.165.11.451.258.543.501.307 1.257-.102 1.252-.683-.007-.957.321-1.799.811-2.586.796-1.28 1.64-2.524 2.887-3.427.058-.043.07-.146.112-.237m-11.85-8.164c-.935-.715-1.869-1.158-2.856-.745-1.833.771-3.37 1.965-4.335 3.765-.551 1.026-.449 1.286.589 1.827 1.269-2.77 3.269-4.547 6.602-4.847m-3.61 11.027c.237-.566.353-.915.522-1.234.465-.876.9-1.775 1.445-2.6.71-1.077 1.656-1.874 3.027-1.988.145-.012.284-.076.428-.104.431-.079.519-.343.415-.729-.125-.471-.286-.568-.934-.452-2.459.437-4.055 1.98-5.135 4.116-.219.434-.425 1.099-.242 1.452.226.437.237.895.474 1.539m17.494-2.967c-.354.101-.462.112-.547.159-2.005 1.113-3.363 2.808-4.315 4.851-.166.357-.224.772-.286 1.167-.025.162.031.458.122.489.173.061.483.051.584-.063.283-.32.445-.245.813-.072.7.329 1.224-.11 1.288-.87.158-1.843.452-3.647 1.842-5.046.127-.129.23-.282.499-.615m-18.648-8.828c-1.414.145-2.778.323-4.006.871-1.066.478-1.808 1.38-1.894 2.649-.037.55.049.655.597.663.48.008.928.019 1.369.292.393.242.578.139.696-.352.184-.779.571-1.43 1.116-1.992.66-.683 1.338-1.346 2.122-2.131m19.039 14.875c.144-.846.197-1.736.461-2.561.264-.828.651-1.648 1.145-2.363.48-.696 1.163-1.252 1.833-1.946-1.381-.036-2.429.451-3.357 1.305-1.277 1.175-1.912 2.66-2.175 4.334-.063.397-.127.799-.133 1.198-.001.136.174.386.275.39.471.017 1.016.295 1.327-.385.209-.454.466-.045.624.028m-15.821.752c.057-.413.078-.627.115-.836.298-1.654.869-3.189 1.909-4.537.642-.833 1.417-1.491 2.314-2.026.713-.426.705-.438.206-1.146-.063-.091-.137-.176-.185-.275-.173-.355-.458-.421-.827-.381-1.228.133-2.258.605-3.016 1.621-.935 1.252-1.646 2.617-2.156 4.091-.169.487-.167.924.296 1.268.099.073.222.217.212.316-.08.819.447 1.268 1.132 1.905m-3.214-6.845c.139-.133.212-.173.243-.234 1.22-2.433 2.964-4.2 5.802-4.602.16-.022.361-.142.439-.276.221-.378-.754-2.218-1.17-2.165-.903.111-1.844-.113-2.71.375-1.067.603-2.087 1.267-2.875 2.213-.347.417-.62.913-.836 1.413-.122.283-.173.691-.06.96.324.771.747 1.499 1.167 2.316m14.016.291c-.529 0-.964.006-1.399-.002-.479-.01-.977.05-1.427-.069-.563-.149-1.014-.05-1.434.296-.48.396-1.03.748-1.392 1.236-.853 1.146-1.67 2.331-2.383 3.567-.316.546-.364 1.252-.496 1.893-.032.152.042.381.15.497.272.293 1.365.195 1.562-.175.213-.401.396-.434.577-.051.167.351.422.375.721.329.545-.081 1.087-.18 1.628-.283.366-.069.594-.266.568-.678-.01-.145.008-.295.028-.44.318-2.283 1.01-4.37 3.041-5.753.08-.055.12-.169.256-.367m13.323 2.943c.281.333.481.547.647.786.045.064.021.229-.034.295-.048.056-.199.071-.281.041-.171-.065-.324-.173-.487-.259-.742-.393-.837-.402-1.431.201-.885.898-1.555 1.907-1.943 3.15-.352 1.128-.169 2.021.616 2.829.688.707 1.561 1.084 2.506 1.325 1.306.336 2.634.279 3.957.222 1.559-.066 2.942-.636 4.14-1.631 2.052-1.705 2.23-5.125.728-6.775-.642-.705-1.317-1.292-2.373-.906-.129.047-.272.06-.404.088.032.275.057.504.116 1.016-.457-.427-.711-.669-.971-.902-.157-.141-.317-.372-.489-.388-1.485-.125-2.928-.004-4.297.908m-34.875-5.176c-.134-.073-.179-.083-.194-.109-.8-1.299-.721-1.386-2.335-.646-.952.436-1.503 1.026-1.34 2.131.018.12-.157.268-.242.403-.116-.127-.242-.247-.344-.384-.04-.052-.026-.142-.037-.214-.042-.249-.002-.587-.149-.717-.139-.125-.472-.02-.719-.036-.472-.029-.691-.213-.689-.681.001-.32.073-.659.195-.955.334-.807.935-1.401 1.627-1.917 2.307-1.719 4.851-2.935 7.666-3.553 1.87-.411 3.734-.855 5.671-.882 1.408-.019 2.726.202 3.827 1.141.328.281.658.609.856.984.582 1.105 1.104 2.231 1.328 3.49.12.668.399 1.351.763 1.928.79 1.25 2.129 1.531 3.471 1.611 2.4.144 4.786-.056 7.151-.514.903-.174 1.812-.337 2.724-.462.527-.071.841-.265.998-.821.291-1.028 1.064-1.558 2.096-1.711.621-.092 1.186.08 1.611.545.158.172.212.451.276.692.021.08-.062.262-.121.274-.113.021-.31-.007-.356-.084-.248-.413-.565-.649-1.075-.634-.873.028-1.354.446-1.62 1.509.73.038 1.454.047 2.173.121.694.072 1.382.21 2.072.324 1.366.225 2.492.865 3.369 1.942.08.099.215.155.329.234-.03-1.294-.089-2.537-.079-3.778.014-1.937 1.543-3.118 3.431-2.697.551.123.964.421 1.063.99.082.465.127.955.081 1.423-.068.687-.627 1.093-1.328 1.023-.158-.017-.301-.168-.451-.257.107-.123.197-.329.324-.354.675-.138.748-.6.715-1.162-.044-.751-.243-.971-.993-1.039-1.111-.1-2.129.793-2.149 2.034-.02 1.138.119 2.277.19 3.415.022.358.233.506.579.531.817.062 1.598.254 2.318.665 1.499.858 2.272 2.187 2.404 3.869.34 4.337-2.478 6.238-5.434 6.922-1.904.441-3.815.296-5.691-.216-.933-.256-1.775-.714-2.505-1.364-.722-.642-1.016-1.512-1.284-2.47-.214.564-.007 1.138-.315 1.69-.405-.356-.366-.723-.332-1.076.046-.476.085-.957.187-1.422.087-.403-.097-.547-.431-.607-.326-.06-.654-.116-.983-.157-1.543-.191-1.63-.082-1.253 1.449.084.339.379.877-.002.996-.543.168-.488-.482-.615-.824-.178-.476-.187-1.173-.52-1.389-.395-.258-1.057-.106-1.603-.132-.037-.001-.074 0-.11.004-.505.063-1.011.126-1.516.189.078.455.205.91.216 1.366.009.351.469.902-.108 1.022-.392.082-.364-.551-.45-.881-.391-1.479-.38-1.48-1.87-1.251-.182.027-.371.028-.549.071-.506.121-.584.232-.52.779.059.51.152 1.017.208 1.529.009.084-.088.18-.136.271-.116-.066-.312-.112-.337-.204-.138-.494-.254-.996-.334-1.503-.068-.422-.288-.565-.687-.495-.726.126-1.458.23-2.177.386-.528.114-.578.237-.488.783.007.036.024.071.03.107.043.289.382.648-.092.808-.086.028-.371-.457-.521-.73-.083-.153-.046-.372-.126-.532-.071-.144-.212-.335-.346-.355-.861-.139-1.728-.236-2.723-.363.049.419.109.805.138 1.194.013.177-.001.372-.068.531-.029.063-.236.065-.36.06-.04-.002-.095-.11-.11-.176-.161-.706.053-1.516-.473-2.11-.459-.518-1.012-.953-1.57-1.464-.425.402-.43 1.017-.597 1.56-.054.174-.054.366-.115.538-.03.081-.147.185-.221.182-.073-.003-.197-.121-.202-.196-.021-.254-.026-.516.014-.768.045-.288.08-.609.229-.847.835-1.339.129-2.526-.299-3.834-.578.365-.807.919-1.144 1.378-.151.207-.285.429-.458.614-.032.034-.316-.088-.313-.115.039-.281.046-.599.191-.823.32-.493.705-.945 1.085-1.395.2-.239.353-.471.253-.796-.319-1.02-.803-1.956-1.362-2.924-.713.619-1.097 1.324-1.423 2.069-.092.213-.221.451-.468.298-.129-.08-.242-.413-.178-.537.32-.616.657-1.232 1.069-1.789.546-.736.585-.816-.027-1.474-.249-.27-.514-.538-.813-.747-.869-.607-1.63-.412-2.035.547-.27.641-.439 1.325-.675 1.981-.038.107-.184.176-.28.262-.08-.109-.231-.224-.224-.326.023-.326.07-.66.175-.968.187-.555.424-1.095.665-1.702-.841-.164-1.609-.154-2.362.212.376.909.376.909.288 1.492" fill="#231f20"/><g fill="#fcbd73"><path d="m44.487 18.784c-.026.081-.054.162-.079.243.384.159.755.39 1.156.463.761.136 1.853-.608 2.042-1.34.028-.113-.03-.312-.117-.373-.081-.055-.266-.008-.382.044-.092.04-.152.153-.219.239-.549.699-1.207 1.037-2.101.671-.079-.032-.199.034-.3.053m-1.634-1.199c.64-.015 1.031-.403 1.038-1.029.009-.704-.605-1.214-1.433-1.19-.605.017-.948.364-.956.965-.01.784.52 1.277 1.351 1.254m4.251-3.74c-.727.024-1.218.556-1.201 1.3.015.642.437 1.098 1.001 1.08.842-.028 1.395-.522 1.394-1.248 0-.694-.486-1.155-1.194-1.132m-6.109-1.083c1.369-.912 2.812-1.033 4.296-.908.174.016.333.248.49.388.26.234.513.476.97.902-.058-.511-.084-.74-.115-1.016.133-.027.274-.041.404-.089 1.056-.384 1.732.202 2.373.908 1.501 1.649 1.324 5.07-.729 6.774-1.198.995-2.581 1.566-4.14 1.631-1.322.057-2.65.113-3.956-.221-.946-.242-1.817-.618-2.506-1.327-.785-.808-.967-1.7-.616-2.827.388-1.243 1.057-2.253 1.943-3.151.594-.603.689-.595 1.431-.201.164.086.317.194.487.258.081.031.233.016.281-.041.055-.065.079-.23.034-.294-.167-.238-.367-.453-.647-.786"/><path d="m27.671 9.819c-.135.199-.175.312-.255.367-2.032 1.383-2.724 3.469-3.041 5.754-.021.145-.038.294-.029.439.027.412-.201.609-.567.678-.542.104-1.084.203-1.629.284-.299.044-.554.021-.721-.33-.181-.382-.363-.35-.577.052-.197.369-1.289.467-1.561.174-.108-.116-.182-.344-.15-.496.131-.641.179-1.348.495-1.895.714-1.235 1.53-2.419 2.383-3.566.362-.488.913-.839 1.393-1.236.419-.345.871-.445 1.433-.295.451.119.949.059 1.427.068.435.008.871.002 1.399.002"/><path d="m13.656 9.528c-.42-.816-.843-1.545-1.167-2.315-.113-.27-.062-.678.06-.961.216-.499.489-.996.836-1.413.788-.946 1.808-1.608 2.875-2.212.866-.489 1.807-.264 2.71-.376.416-.053 1.39 1.788 1.17 2.166-.078.133-.279.253-.439.277-2.838.4-4.582 2.167-5.802 4.6-.032.061-.104.101-.243.234"/><path d="m16.87 16.374c-.684-.636-1.212-1.086-1.133-1.905.01-.099-.113-.243-.211-.316-.463-.344-.465-.781-.296-1.269.51-1.474 1.222-2.839 2.156-4.091.758-1.016 1.787-1.488 3.015-1.621.37-.039.654.026.828.382.047.099.123.184.185.274.499.708.507.72-.206 1.146-.897.536-1.672 1.193-2.315 2.026-1.04 1.349-1.61 2.883-1.908 4.537-.037.21-.058.423-.115.837"/></g><path d="m32.691 15.621c-.158-.073-.415-.482-.624-.028-.311.68-.857.401-1.327.385-.102-.003-.276-.254-.275-.389.006-.401.07-.802.132-1.199.265-1.674.899-3.158 2.176-4.334.928-.854 1.976-1.342 3.357-1.305-.669.695-1.353 1.251-1.834 1.946-.493.714-.88 1.535-1.144 2.363-.263.824-.318 1.715-.461 2.561" fill="#f05057"/><path d="m13.652.746c-.784.785-1.462 1.448-2.122 2.13-.545.563-.932 1.214-1.117 1.992-.117.492-.303.595-.695.353-.441-.273-.889-.284-1.37-.293-.547-.007-.633-.112-.596-.663.086-1.268.827-2.171 1.894-2.648 1.228-.549 2.592-.726 4.006-.871" fill="#fcbd73"/><path d="m32.3 9.574c-.27.333-.372.487-.5.615-1.39 1.4-1.683 3.204-1.841 5.047-.065.759-.589 1.199-1.289.869-.367-.172-.53-.247-.813.072-.101.114-.411.125-.584.065-.09-.032-.147-.329-.121-.491.061-.394.12-.81.285-1.166.953-2.043 2.31-3.738 4.314-4.851.086-.048.193-.058.549-.16" fill="#fcbd73"/><path d="m14.805 12.542c-.236-.644-.248-1.102-.474-1.539-.183-.354.023-1.019.242-1.452 1.081-2.137 2.676-3.68 5.135-4.116.648-.116.81-.02.934.452.104.386.016.649-.414.729-.144.027-.285.092-.429.103-1.371.114-2.317.912-3.027 1.989-.545.824-.98 1.724-1.444 2.599-.17.32-.286.669-.523 1.235" fill="#f05057"/><path d="m18.416 1.514c-3.333.3-5.332 2.077-6.602 4.847-1.038-.541-1.14-.8-.588-1.826.965-1.801 2.501-2.995 4.335-3.765.986-.414 1.92.029 2.855.744" fill="#f05057"/><path d="m30.266 9.678c-.042.091-.055.194-.112.236-1.247.904-2.091 2.147-2.887 3.427-.49.788-.818 1.629-.81 2.588.004.58-.752.989-1.253.682-.148-.092-.29-.378-.259-.543.367-2.008.873-3.942 2.641-5.268.794-.597 1.515-1.278 2.68-1.122" fill="#f05057"/><path d="m36.288 9.692c.398.67.889 1.139.886 1.604-.003.395-.567.796-.901 1.178-.738.845-1.257 1.8-1.505 2.896-.08.348-.212.599-.641.615-.636.023-.75-.071-.692-.747.137-1.57.662-3.006 1.602-4.268.318-.429.751-.776 1.251-1.278" fill="#fcbd73"/><path d="m23.197 9.361c-1.653 1.115-2.616 2.588-3.531 4.098-.594.983-1.122 1.986-1.02 3.197.012.134-.165.41-.227.401-.197-.025-.502-.112-.547-.249-.136-.408-.306-.88-.223-1.275.567-2.714 1.859-4.937 4.445-6.22.308-.152.312-.142 1.103.048" fill="#f05057"/><path d="m39.337 12.71c-.784 1.013-1.527 1.964-2.26 2.925-.323.424-.798.517-1.261.533-.598.023-.752-.237-.609-.832.335-1.389 1.218-2.417 2.225-3.365.215-.203.444-.251.697-.08.425.285.848.574 1.208.819" fill="#f05057"/><path d="m5.399 3.112c-.042.634-.053 1.281-.144 1.917-.03.202-.238.442-.429.547-.608.336-1.248.616-1.873.921-.557.271-1.106.561-1.672.809-.138.06-.398.048-.49-.044-.093-.09-.105-.347-.047-.489.121-.302.282-.599.474-.861.63-.859 3.052-2.458 4.181-2.8" fill="#fcbd73"/><path d="m38.576 11.102c1.058-.737 2.124-1.062 3.259-1.197.254-.029.512-.017.768-.032.807-.045.807-.046 1.506.753-.243.101-.456.227-.684.276-.974.207-1.928.472-2.751 1.057-.363.258-.651.236-.982-.036-.331-.274-.693-.513-1.116-.821" fill="#f05057"/><path d="m42.184 9.29c-1.43.187-2.589.594-3.693 1.178-.473.252-.813.021-1.112-.675-.205-.477-.094-.726.436-.915.204-.073.425-.117.641-.139 1.222-.121 2.396.081 3.728.551" fill="#fcbd73"/><path d="m5.92 5.094c-.18-1.011.254-1.769.634-2.502.222-.432.776-.466 1.424-.512-.565.844-.899 1.637-.877 2.541.003.115-.205.289-.349.338-.236.082-.501.087-.832.135" fill="#f05057"/><path d="m47.104 13.846c.707-.023 1.194.438 1.194 1.132.001.726-.552 1.22-1.394 1.247-.564.018-.986-.437-1.001-1.081-.017-.742.474-1.275 1.201-1.298" fill="#231f20"/><path d="m42.854 17.586c-.831.022-1.362-.47-1.352-1.254.008-.601.352-.949.956-.965.829-.024 1.442.486 1.434 1.189-.008.626-.399 1.013-1.038 1.03" fill="#231f20"/><path d="m44.487 18.784c.101-.019.221-.085.3-.053.894.366 1.552.028 2.101-.671.067-.086.127-.199.219-.239.116-.052.301-.099.382-.044.087.061.145.26.117.373-.189.732-1.281 1.476-2.042 1.34-.401-.073-.772-.304-1.156-.463.025-.081.053-.162.079-.243" fill="#231f20"/><path d="m13.7 3.988c.63.17 1.259.411 1.74.852 2.018 1.857.195 5.673 1.978 7.756 1.303 1.522 3.689 1.204 5.661.846 5.21-.947 10.539-1.244 15.823-.884-.567 1.909-1.07 4.179.185 5.724.978 1.203 2.669 1.49 4.207 1.693 1.538.204 3.075.409 4.613.614-1.592.536-3.265.833-4.945.879-1.798.048-3.763-.271-4.978-1.596-1.081-1.178-1.329-2.874-1.526-4.46l-17.396 1.408c-.511.04-1.039.079-1.52-.094-.597-.216-1.035-.728-1.398-1.25-1.164-1.672-1.847-3.627-2.824-5.418-.978-1.789-2.375-3.504-4.322-4.109-2.157-.672-4.464.148-6.573.957-.778.298-1.576.571-2.351.229 2.965-2.826 9.726-4.201 13.626-3.147" fill="#3b2314" opacity=".2"/></g></svg>