<svg clip-rule="evenodd" fill-rule="evenodd" stroke-linejoin="round" stroke-miterlimit="2" viewBox="0 0 45 44" xmlns="http://www.w3.org/2000/svg"><g fill-rule="nonzero"><path d="m11.971 30.793c1.106-.589 2.166-.728 3.274-.559.115.018.268.15.298.258.021.075-.13.282-.219.29-1.019.102-2.04.176-3.061.249-.049.004-.105-.082-.292-.238" fill="#231f20"/><path d="m15.755 35.035c-.826-.103-1.211-.263-1.09-.526.22-.478.694-.24 1.047-.244.339-.004.825-.204.961.375-.306.132-.612.263-.918.395" fill="#231f20"/><path d="m8.001 35.304c.135-.549.245-.863.273-1.182.01-.107-.183-.234-.285-.351-.119.11-.263.205-.346.337-.046.071-.001.214.031.316.076.229.167.452.327.88m12.169-14.941c-1.417-.144-1.982.382-1.751 1.695.599-.58 1.171-1.133 1.751-1.695m-3.712 16.571c.208.15.375.234.494.362.308.335.561.224.811-.06.119-.137.271-.256.352-.412.126-.246.204-.515.302-.775-.291-.1-.58-.267-.873-.276-.202-.006-.455.165-.604.331-.188.209-.293.492-.482.83m-14.054-2.059c1.463.405 1.463.405 2.155-.283.406-.403.385-.595-.077-.887-.306-.194-.617-.255-.901.003-.367.335-.708.699-1.177 1.167m14.337 3.106c-.043-.449-.489-.675-.845-.461-.622.376-1.23.776-1.815 1.206-.131.096-.219.374-.184.541.065.321.367.361.609.229.701-.384 1.385-.796 2.063-1.217.104-.065.139-.236.172-.298m.258-14.056c-1.989-.474-3.438.393-3.258 2.558.953-.961 1.7-2.093 3.258-2.558m.319 11.391c.394 0 .793.018 1.189-.01.155-.011.39-.093.44-.208.392-.915.349-1.743-.863-1.792-.568-.023-.804.178-.82.767-.009.385.031.771.054 1.243m-8.024-4.863c.572 0 1.078.018 1.582-.011.158-.008.389-.097.45-.218.283-.559.519-1.141.772-1.718-2.089-.195-2.283-.075-2.832 1.746-.009.03.009.068.028.201m-.662 2.398c-.424-.35-.708-.641-1.045-.84-.195-.116-.508-.176-.717-.107-.788.259-1.542.606-2.287 1.102.305.255.506.487.759.617.203.104.492.167.701.106.801-.237 1.585-.531 2.589-.878m-.598-1.317c.415.383.745.619.987.926.32.409.706.454 1.17.392 1.242-.167 1.216-.159 1.167-1.393-.02-.468-.231-.558-.611-.55-.887.02-1.719.269-2.713.625m14.372-12.293c-.205-.068-.364-.157-.532-.173-1.127-.106-2.257-.211-3.388-.278-.178-.01-.497.143-.534.28-.224.839-.388 1.694-.562 2.546-.008.041.079.13.135.147.053.015.16-.02.184-.064.066-.124.119-.263.148-.401.202-.949.794-1.446 1.749-1.53.471-.041.944-.133 1.412-.114.5.019.937-.07 1.388-.413m5.442 22.082c.131-.419.182-.631.262-.833.753-1.873.921-3.84.92-5.831 0-.403.001-.808-.431-1.054-.669-.382-1.32-.797-1.99-1.179-.257-.147-.532-.193-.723.187.303.118.581.212.847.333.986.451 1.543 1.131 1.516 2.306-.041 1.835.032 3.671-.425 5.471-.026.102.006.217.024.6m-15.426-15.379c.101.184.181.329.259.473.123-.108.287-.194.357-.328.098-.193.122-.421.187-.63.519-1.681 1.245-2.23 3.045-2.286.403-.012.807.02 1.209-.006.11-.006.312-.166.301-.215-.037-.154-.128-.379-.246-.415-.343-.104-.717-.103-1.066-.191-.857-.22-1.684-.119-2.458.26-.306.151-.648.422-.765.72-.332.847-.555 1.737-.823 2.618m-4.614 4.415c.052.084.143.412.288.437.282.048.58-.089.647-.453.02-.109.025-.223.06-.326.155-.452.321-.901.476-1.354.128-.379.342-.633.78-.666.622-.047 1.242-.133 1.865-.182.404-.034.817.003 1.213-.065.22-.037.576-.21.589-.348.032-.352-.318-.311-.569-.327-.037-.003-.074 0-.111.001-.952.008-1.906.008-2.859.031-.329.008-.66.053-.984.116-.559.11-.92.441-1.024 1.018-.116.651-.229 1.303-.371 2.118m23.427-23.417c-.473-1.655-.874-1.937-2.288-1.715-.988.154-1.681.862-1.777 1.845-.05.504.267.803.649 1.07.36.25.603.104.86-.161.675-.699 1.564-.92 2.556-1.039m-22.621 35.565c1.115.239 1.956.087 2.759-.145 1.179-.341 1.712-1.318 2.019-2.415.048-.17-.151-.58-.286-.604-1.187-.217-2.381-.401-3.579-.532-.449-.049-.853.175-1.146.723.489.01.916.003 1.34.032.474.031.953.06 1.414.161.223.049.528.23.577.411.048.176-.133.486-.305.632-.359.309-.77.562-1.176.812-.459.282-.936.537-1.617.925m-7.52-1.483c.094-.022.187-.045.279-.068.023-.472-.008-.954.081-1.413.14-.716.337-1.422.565-2.115.05-.153.341-.332.503-.316.142.014.318.266.375.445.142.455.191.939.343 1.387.203.599.599 1.053 1.3 1.417-.054-1.539-.368-2.885-.936-4.163-.26-.586-.975-.695-1.494-.261-.508.424-.934.915-1.138 1.589-.274.907-.231 1.822-.18 2.738.015.259.197.507.302.76m41.523-10.532c.152-.307.206-.385.233-.472.508-1.605.542-3.261.498-4.922-.031-1.217-.543-1.737-1.788-1.706-.955.023-1.916.111-2.859.271-.756.128-1.496.386-2.224.64-.138.048-.277.36-.257.532.039.36.336.183.511.129 1.427-.455 2.891-.541 4.373-.481.854.035 1.055.135 1.225.964.161.786.232 1.596.279 2.399.044.801.009 1.605.009 2.646m-10.939-1.519c.382.066.562.083.735.129.993.267 1.993.514 2.973.822.71.222 1.083.744 1.032 1.512-.037.546-.032 1.11-.162 1.637-.284 1.139-.645 2.26-.967 3.391-.059.205-.087.417-.128.627.563-.823 1.038-1.657 1.41-2.535.415-.978.841-1.973 1.071-3.003.353-1.579.043-1.999-1.234-2.686-1.005-.541-2.095-.672-3.213-.647-.532.012-.975.246-1.517.753m1.117-1.788c.055.061.112.123.169.184.469-.392.983-.741 1.399-1.183 1.054-1.123 1.354-2.469.707-3.862-.935-2.02-2.865-3.149-5.03-3.176-.116-.002-.234.049-.515.11 1.508.876 2.681 1.847 3.221 3.396.522 1.505.61 3.013.049 4.531m-4.585-16.613c0 .22-.008.442.004.662.007.107.042.216.079.32.264.729.533.827 1.182.356.932-.675 1.941-1.048 3.1-.918.327.037.645.139.967.21.279.063.444-.073.428-.336-.038-.658-.062-1.323-.457-1.901-.752-1.095-1.927-1.529-3.184-1.172-1.231.352-2.094 1.472-2.119 2.779m7.906 6.307c.442-.903.228-1.727-.071-2.52-.508-1.352-1.681-1.952-2.902-2.527-1.508-.711-4.268.726-4.653 2.806-.019.107-.016.219-.014.33.013.843.338 1.058 1.103.727.202-.088.396-.196.598-.287 1.591-.718 3.131-.744 4.576.361.436.332.853.691 1.363 1.11m-7.881 1.891c1.618-.408 3.07-.311 4.536.238 1.506.564 2.261 1.88 3.321 2.969.11-.923.171-1.803.097-2.671-.149-1.785-2.428-4.061-4.533-3.666-.535.1-1.057.311-1.562.527-1.053.45-1.751 1.194-1.859 2.603m-7.818-11.813c.03-.474.025-.805.074-1.127.154-1.004 1.02-1.705 2.001-1.697.589.004.939.344 1.298.732.396.43.775.904 1.247 1.233.684.474 1.297.319 1.813-.316.116-.143.208-.328.358-.417 1.051-.628.897-1.627.727-2.561-.169-.931-.743-1.577-1.717-1.822-1.505-.377-2.922-.39-4.115.808-.338.34-.716.639-1.048.983-1.016 1.054-1.145 2.346-.949 3.711.018.125.15.233.311.473m-.86 26.019c.15-.86.23-1.698-.219-2.468-.562-.961-1.233-1.845-2.267-2.352-.221-.108-.501-.111-.756-.13-.896-.064-1.754.097-2.605.385-.632.213-1.093.604-1.468 1.111-.508.683-.549 2.355-.034 2.933.998 1.12 2.238 1.777 3.775 1.797.414.007.634-.083.768-.56.245-.873.658-1.098 1.579-1.007.393.039.775.18 1.227.291m4.923-.974c.809-.315 1.484-.542 2.124-.844.247-.117.443-.382.615-.615.763-1.036 1.133-2.169 1.071-3.494-.049-1.026-.33-1.887-1.078-2.555-1.947-1.737-4.228-2.461-6.816-2.058-.767.12-1.53.38-2.215 1.224 1.497-.245 2.609.264 3.551 1.05.895.748 1.713 1.607 2.462 2.502.917 1.094 1.095 2.377.611 3.734-.106.298-.187.604-.325 1.056m-8.57-4.645c1.173-.134 2.046.373 2.841 1.19 1.096 1.128 1.899 2.35 1.711 4.011-.09.782.161.863.914.758 2.214-.31 3.691-3.303 2.525-5.222-.69-1.132-1.635-2.065-2.687-2.897-1.457-1.152-2.997-1.071-4.583-.414-.979.406-1.723 1.127-2.249 2.043-.265.465-.099.673.429.627.366-.03.732-.064 1.099-.096m12.602 3.039c1.738-.434 2.6-1.725 3.335-3.094.32-.597.556-1.31.583-1.982.16-3.979-3.133-5.978-5.755-5.914-.988.025-1.976.166-2.958.3-1.463.201-2.689.959-3.89 1.753-.163.107-.277.289-.499.53.741-.134 1.34-.262 1.945-.347 1.965-.274 3.726.402 5.369 1.333 1.28.727 2.276 1.827 2.433 3.367.128 1.266.22 2.584-.587 3.73-.031.044.007.135.024.324m-.587-21.546c-.701-.279-1.271-.643-1.463-1.418-.04-.162-.377-.351-.583-.356-1.03-.031-1.711-.604-2.3-1.356-.136-.173-.292-.333-.426-.508-.478-.627-1.384-.44-1.768.209-.346.586-.318 1.188-.048 1.802.125.283.41.608.049.894-.334.264-.632-.015-.899-.189-.728-.472-1.11-1.106-1.116-2.021-.013-1.69.491-3.113 1.836-4.191.172-.139.343-.279.501-.434 1.238-1.218 2.706-1.309 4.318-.993 1.583.311 2.523 1.33 2.607 3.211.046 1.016.036 1.069 1.095 1.031.818-.03 1.339.305 1.693.983.154.292.31.591.4.906.132.462.407.717.842.936 1.248.631 1.937 1.665 1.971 3.092.005.184.029.37.01.553-.056.534.162.898.605 1.2 1.418.969 1.88 2.388 1.83 4.032-.002.074.018.159-.012.219-.477.952-.269 1.893-.06 2.875.143.67.077 1.399.021 2.095-.05.616-.128 1.253-.665 1.705-.08.068-.124.303-.07.374.063.082.257.111.383.09.215-.036.42-.132.633-.193 1.39-.394 2.809-.614 4.252-.648 1.663-.039 2.515.799 2.591 2.471.074 1.634-.108 3.246-.515 4.817-.171.661-.553 1.276-.902 1.874-.095.165-.424.272-.635.26-.111-.007-.286-.334-.288-.518-.007-.882-.006-1.769.071-2.648.094-1.072.105-2.127-.144-3.185-.111-.478-.348-.658-.832-.691-1.772-.118-3.463.269-5.072.924-.605.247-1.06.857-1.656 1.364.804.237 1.491.358 2.109.633 2.165.968 2.488 1.695 1.946 4.008-.595 2.541-1.951 4.76-3.286 6.973-.056.093-.127.183-.207.257-.253.237-.637.151-.682-.181-.044-.322-.046-.672.036-.982.253-.96.561-1.907.838-2.863.253-.883.516-1.766.729-2.661.093-.388.078-.803.103-1.204.032-.47-.199-.798-.627-.93-1.02-.316-2.042-.622-3.077-.879-.485-.122-.907.072-1.314.406-.688.565-1.487.971-2.378 1.115-.52.084-.877.342-1.174.797.478.535 1.117.835 1.74 1.122.479.223.64.531.656 1.025.065 2.073.002 4.123-.719 6.107-.265.725-.419 1.489-.666 2.222-.128.378-.312.756-.551 1.073-.126.166-.444.304-.643.271-.309-.053-.292-.377-.248-.64.217-1.27.516-2.532.638-3.81.142-1.499.161-3.013.162-4.52 0-.311-.25-.696-.499-.919-.531-.477-1.189-.729-1.919-.753-.367-.012-.734-.06-1.101-.052-.201.005-.445.033-.59.15-.821.67-1.784.857-2.799.846-.387-.005-.622.069-.701.494-.037.206-.183.4-.309.579-.317.452-.124 1.032-.524 1.516-1.122 1.352-2.364 2.542-3.985 3.237-.783.335-1.378.74-1.751 1.539-.455.976-1.363 1.493-2.384 1.594-1.092.109-2.208.026-3.309-.026-.2-.009-.388-.263-.581-.405.156-.139.291-.319.472-.413.945-.492 1.906-.957 2.855-1.444.153-.079.276-.215.534-.42-1.12-.22-2.087-.206-3.057-.035-.144.025-.279.121-.42.129-.133.008-.359-.021-.389-.096-.056-.143-.064-.368.016-.491.757-1.188 2.149-1.758 3.548-1.47.324.067.637.2.964.246.358.05.761.136 1.086.03 1.503-.491 2.833-1.255 3.651-2.685.12-.209.157-.465.257-.774-.461-.08-.85-.175-1.244-.215-1.063-.106-2.015-.491-2.8-1.201-.403-.363-.82-.464-1.316-.394-.511.073-1.017.199-1.529.229-.622.039-.873.365-.958.937-.064.436-.175.869-.316 1.285-.048.144-.242.319-.381.33-.138.012-.359-.134-.422-.269-.187-.397-.32-.82-.465-1.238-.198-.567-.228-.595-.781-.357-.474.203-.949.416-1.39.682-.791.479-.864.798-.604 1.756.3 1.1.631 2.199.59 3.358-.013.348.13.861-.309.95-.272.056-.65-.233-.935-.431-.757-.533-1.121-1.33-1.465-2.218-.073.224-.182.445-.212.676-.088.657-.142 1.317-.214 1.977-.024.22-.02.457-.112.646-.089.181-.27.406-.438.432-.157.024-.443-.145-.513-.3-.255-.566-.581-1.151-.628-1.749-.109-1.442.005-2.859.954-4.096.489-.637.778-1.422 1.256-2.067.941-1.272 2.408-1.779 3.776-2.415.132-.062.277-.096.421-.136.398-.111.573-.341.616-.782.079-.803.246-1.598.387-2.395.147-.818.643-1.324 1.456-1.456.651-.105 1.314-.145 1.972-.184.697-.041.7-.025.868-.693.151-.608.267-1.226.45-1.824.496-1.623 1.364-2.273 3.072-2.347 1.282-.055 1.275-.056 1.506-1.31.086-.469.169-.948.337-1.39.241-.632.636-.853 1.3-.776 1.793.208 3.584.438 5.376.657.217.027.438.06.654.051.81-.034 1.619-.09 2.428-.126.705-.031.7-.026.801-.709.038-.253.055-.529.173-.746.272-.505.347-.869-.019-1.461-.424-.688-.272-1.586.155-2.326.248-.431.315-.705-.094-1.132-.71-.741-.551-1.705-.384-2.623.052-.282.171-.553.277-.884" fill="#231f20"/><path d="m28.513 30.396c-.018-.187-.055-.28-.025-.323.807-1.147.716-2.465.587-3.731-.157-1.54-1.152-2.639-2.432-3.366-1.644-.932-3.405-1.607-5.369-1.334-.605.085-1.204.214-1.946.348.223-.241.336-.423.5-.531 1.201-.793 2.427-1.551 3.889-1.751.982-.135 1.97-.277 2.958-.301 2.623-.065 5.915 1.934 5.755 5.914-.026.671-.263 1.385-.582 1.981-.735 1.37-1.598 2.66-3.335 3.094" fill="#d3b255"/><path d="m15.911 27.356c-.367.032-.733.066-1.099.097-.528.045-.693-.162-.428-.626.524-.916 1.269-1.638 2.247-2.044 1.586-.657 3.127-.739 4.584.414 1.052.832 1.996 1.765 2.686 2.898 1.167 1.918-.31 4.911-2.524 5.22-.753.106-1.004.024-.914-.756.188-1.662-.614-2.883-1.711-4.013-.795-.817-1.667-1.324-2.841-1.19" fill="#d3b255"/><path d="m24.48 32.002c.139-.452.22-.757.326-1.056.483-1.357.307-2.64-.611-3.734-.749-.895-1.568-1.754-2.462-2.502-.942-.786-2.055-1.295-3.551-1.05.684-.844 1.448-1.103 2.214-1.223 2.588-.404 4.871.32 6.817 2.057.749.669 1.028 1.529 1.077 2.555.062 1.326-.307 2.459-1.071 3.495-.172.233-.367.498-.615.614-.64.302-1.315.529-2.124.844" fill="#cd834c"/><path d="m13.807 30.037c-.012-.308-.327-.599-.662-.61-.347-.011-.638.268-.63.604.007.362.263.6.64.599.368-.002.664-.27.652-.593m.92 2.884c.11-.042.425-.132.71-.279.082-.042.082-.247.12-.378-.127-.036-.288-.139-.372-.095-.688.361-1.268.326-1.73-.367-.041-.063-.184-.059-.281-.087-.037.129-.14.288-.098.384.264.626.795.827 1.651.822m1.804-1.586c.471.06.762-.121.818-.504.059-.416-.231-.735-.712-.778-.442-.041-.885.234-.932.579-.046.329.318.64.826.703m3.027 1.642c-.452-.111-.834-.253-1.228-.291-.92-.09-1.333.133-1.579 1.006-.133.479-.353.567-.768.561-1.537-.021-2.776-.677-3.774-1.797-.515-.578-.474-2.249.034-2.933.375-.506.836-.898 1.468-1.111.851-.288 1.709-.449 2.605-.385.255.019.535.022.755.13 1.035.507 1.706 1.391 2.268 2.352.449.769.369 1.608.219 2.468" fill="#cd834c"/><path d="m20.418 6.957c-.163-.24-.293-.348-.311-.474-.196-1.364-.068-2.656.948-3.709.333-.345.71-.645 1.047-.984 1.194-1.199 2.611-1.185 4.115-.808.976.245 1.55.891 1.719 1.822.169.935.324 1.933-.728 2.561-.15.089-.242.274-.357.417-.517.636-1.129.79-1.813.315-.474-.329-.851-.801-1.248-1.232-.358-.388-.709-.727-1.297-.732-.982-.007-1.847.693-2.001 1.697-.05.323-.045.652-.074 1.127" fill="#d3b255"/><path d="m28.236 18.77c.108-1.408.805-2.153 1.859-2.602.504-.216 1.027-.427 1.562-.528 2.103-.394 4.383 1.881 4.533 3.666.073.869.013 1.749-.098 2.672-1.06-1.09-1.815-2.405-3.321-2.97-1.465-.549-2.917-.645-4.535-.238" fill="#d3b255"/><path d="m36.117 16.879c-.512-.418-.927-.778-1.364-1.11-1.444-1.104-2.985-1.079-4.577-.361-.2.091-.394.199-.596.287-.765.332-1.091.116-1.104-.727-.002-.11-.005-.222.015-.329.384-2.081 3.143-3.518 4.651-2.807 1.222.576 2.396 1.177 2.904 2.528.298.792.512 1.616.071 2.519" fill="#cd834c"/><path d="m28.211 10.572c.025-1.308.887-2.427 2.118-2.778 1.257-.358 2.434.076 3.185 1.172.395.576.419 1.242.457 1.9.015.264-.15.399-.429.337-.321-.072-.64-.174-.966-.211-1.159-.13-2.169.243-3.101.918-.648.471-.918.374-1.182-.356-.037-.104-.072-.213-.078-.32-.012-.22-.004-.442-.004-.662" fill="#d3b255"/><path d="m32.795 27.185c.561-1.518.475-3.025-.049-4.531-.539-1.549-1.712-2.52-3.221-3.395.283-.062.4-.113.516-.111 2.164.028 4.094 1.156 5.03 3.176.647 1.393.348 2.74-.708 3.863-.416.441-.93.79-1.398 1.182-.057-.061-.114-.123-.17-.184" fill="#cd834c"/><path d="m31.678 28.973c.542-.507.984-.741 1.518-.752 1.118-.026 2.206.106 3.212.648 1.277.687 1.587 1.105 1.234 2.684-.23 1.031-.656 2.025-1.07 3.004-.373.878-.848 1.712-1.412 2.534.042-.209.071-.422.129-.627.323-1.13.683-2.25.967-3.391.131-.527.126-1.089.163-1.637.05-.767-.323-1.289-1.032-1.512-.981-.307-1.981-.554-2.974-.821-.174-.046-.354-.064-.735-.13" fill="#996236"/><path d="m42.618 30.492c0-1.041.035-1.845-.01-2.646-.046-.802-.117-1.613-.278-2.399-.17-.828-.37-.929-1.226-.964-1.481-.06-2.945.026-4.371.481-.176.055-.474.231-.513-.128-.018-.173.119-.485.258-.533.728-.255 1.467-.512 2.224-.641.942-.159 1.904-.247 2.859-.27 1.244-.031 1.757.49 1.788 1.706.044 1.661.011 3.317-.498 4.922-.027.087-.081.165-.233.472" fill="#996236"/><path d="m1.095 41.025c-.105-.253-.288-.501-.302-.76-.053-.916-.095-1.832.179-2.738.204-.675.631-1.166 1.139-1.59.518-.434 1.234-.324 1.494.261.568 1.278.882 2.624.935 4.163-.7-.363-1.097-.817-1.3-1.416-.152-.449-.201-.933-.343-1.387-.057-.179-.233-.432-.374-.445-.163-.016-.453.162-.504.315-.228.693-.425 1.4-.564 2.116-.089.459-.059.941-.081 1.413-.093.022-.186.046-.279.068" fill="#cd834c"/><path d="m8.615 42.507c.681-.388 1.158-.642 1.617-.925.405-.25.816-.504 1.176-.812.171-.146.352-.456.304-.631-.049-.182-.353-.363-.577-.412-.461-.101-.939-.129-1.414-.161-.424-.029-.85-.022-1.34-.033.293-.547.698-.771 1.146-.722 1.199.131 2.393.315 3.58.532.135.025.334.434.286.605-.307 1.096-.84 2.073-2.02 2.414-.802.232-1.643.384-2.758.145" fill="#cd834c"/><path d="m31.236 6.942c-.992.118-1.881.34-2.557 1.039-.256.265-.5.411-.859.161-.382-.267-.699-.566-.649-1.07.096-.983.789-1.691 1.776-1.845 1.415-.222 1.816.06 2.289 1.715" fill="#cd834c"/><g fill="#996236"><path d="m7.809 30.359c.142-.815.255-1.466.371-2.118.104-.577.465-.907 1.024-1.018.324-.063.655-.108.984-.116.953-.023 1.907-.023 2.859-.031.037-.001.074-.004.111-.001.251.018.601-.024.569.328-.013.138-.369.311-.589.348-.396.068-.809.031-1.213.064-.623.051-1.243.136-1.865.183-.438.033-.652.287-.78.666-.155.452-.321.902-.476 1.354-.035.103-.04.216-.06.325-.067.365-.365.502-.647.454-.145-.026-.236-.353-.288-.438"/><path d="m12.422 25.944c.269-.88.491-1.77.824-2.617.116-.298.459-.57.764-.72.774-.38 1.602-.481 2.459-.261.349.089.723.086 1.065.191.119.036.209.262.246.416.01.048-.191.208-.301.214-.402.026-.806-.006-1.209.007-1.8.056-2.526.604-3.045 2.285-.064.21-.089.438-.187.629-.069.136-.234.222-.357.33-.078-.145-.157-.289-.259-.474"/><path d="m27.848 41.323c-.018-.383-.051-.499-.024-.599.457-1.801.384-3.637.426-5.471.026-1.177-.531-1.856-1.517-2.306-.266-.121-.544-.216-.846-.334.191-.38.465-.335.723-.188.669.383 1.32.798 1.989 1.18.433.246.431.652.431 1.054.001 1.991-.166 3.957-.92 5.832-.08.2-.131.414-.262.832"/><path d="m22.407 19.242c-.451.343-.888.432-1.388.412-.468-.018-.94.073-1.411.114-.956.084-1.549.581-1.75 1.531-.03.138-.082.276-.149.4-.023.045-.13.079-.184.064-.056-.016-.142-.106-.134-.147.174-.852.339-1.706.563-2.546.037-.136.355-.289.534-.279 1.13.067 2.259.171 3.388.278.166.015.326.105.531.173"/></g><path d="m8.035 31.535c.994-.356 1.826-.605 2.713-.625.38-.008.591.082.611.549.048 1.235.074 1.227-1.168 1.394-.463.062-.849.016-1.171-.393-.24-.306-.57-.543-.985-.925" fill="#d3b255"/><path d="m8.632 32.851c-1.004.346-1.788.641-2.589.877-.207.063-.498-.002-.7-.105-.254-.13-.455-.362-.76-.617.746-.497 1.499-.843 2.288-1.102.209-.069.521-.01.717.107.337.2.62.49 1.044.84" fill="#cd834c"/><path d="m17.318 35.316c-.022-.472-.063-.858-.054-1.243.016-.588.252-.791.82-.767 1.213.049 1.255.877.863 1.793-.05.114-.285.197-.44.207-.396.029-.795.01-1.189.01" fill="#d3b255"/><path d="m16.741 37.982c-.033.061-.068.233-.172.296-.678.422-1.362.835-2.063 1.219-.242.131-.544.091-.609-.23-.035-.166.054-.446.184-.541.585-.429 1.194-.83 1.815-1.205.356-.214.803.012.845.461" fill="#d3b255"/><path d="m2.405 34.875c.469-.467.81-.831 1.176-1.166.284-.259.596-.199.902-.005.462.294.482.486.077.887-.692.688-.692.688-2.155.284" fill="#d3b255"/><path d="m16.459 36.934c.188-.337.293-.621.481-.829.15-.166.403-.338.605-.332.293.009.582.177.873.276-.098.26-.177.529-.302.775-.082.157-.233.276-.352.412-.25.285-.503.395-.811.061-.119-.129-.286-.213-.494-.363" fill="#cd834c"/><path d="m8.001 35.304c-.16-.428-.251-.651-.327-.88-.032-.102-.077-.245-.031-.316.083-.132.227-.227.346-.337.102.117.295.244.285.351-.028.319-.138.633-.273 1.182" fill="#996236"/><path d="m16.531 31.335c-.508-.064-.872-.374-.827-.705.048-.344.491-.619.932-.579.481.045.771.363.712.78-.055.383-.346.562-.817.504" fill="#231f20"/><path d="m14.727 32.921c-.856.005-1.387-.196-1.651-.822-.042-.096.062-.255.099-.384.097.028.239.024.28.087.462.693 1.042.728 1.73.367.084-.044.246.059.371.094-.038.132-.037.337-.119.379-.285.147-.6.237-.71.279" fill="#231f20"/><path d="m13.807 30.037c.012.323-.284.591-.652.593-.377.001-.633-.237-.64-.599-.008-.336.283-.615.63-.604.335.011.65.302.662.61" fill="#231f20"/><path d="m22.073 30.569c.328-.523.706-1.19 1.322-1.157.364.02.657.294.977.47 1.486.809 3.182-.569 4.309-1.831 1.528-1.71 3.102-3.502 3.728-5.707.157-.558.265-1.158.639-1.6.242-.285.577-.476.867-.713 1.026-.836 1.463-2.324 1.055-3.582-.219-.68-.667-1.338-.552-2.045.083-.502.441-.918.567-1.412.493-1.932-2.642-3.465-2.039-5.365 2.554 4.215 3.724 9.253 3.286 14.161-.132 1.482-.424 2.997-1.251 4.233-.851 1.269-2.181 2.121-3.471 2.937-2.135 1.351-4.304 2.715-6.728 3.428-1.185.35-2.436.544-3.507 1.159-2.027 1.161-2.992 3.556-4.73 5.116-1.126 1.011-2.578 1.651-4.084 1.798 2.322-1.954 4.719-4.004 5.966-6.771-.558 1.056-1.863 1.659-3.029 1.397-1.165-.263-2.087-1.367-2.138-2.561 3.146.322 6.791 1.261 8.813-1.955" fill="#3b2314" opacity=".2"/></g></svg>