<svg clip-rule="evenodd" fill-rule="evenodd" stroke-linejoin="round" stroke-miterlimit="2" viewBox="0 0 71 38" xmlns="http://www.w3.org/2000/svg"><g fill-rule="nonzero"><path d="m62.681 29.853c.219-.046.5-.105.779-.165.292-.063.575-.12.555-.528-.015-.347-.081-.632-.451-.784-.648-.265-1.245-.233-1.794.171.31.444.591.848.911 1.306m-4.126.707c.59.205 2.625-.061 3.106-.399.106-.074.196-.358.14-.441-.131-.191-.333-.397-.547-.46-.982-.287-1.884-.036-2.696.546-.133.095-.275.294-.267.439.006.132.208.254.264.315m6.218-1.198c.447-.132.902-.245 1.338-.41.141-.053.323-.24.328-.372.015-.47.018-.951-.468-1.262-.465-.299-.93-.429-1.432-.122-.241.148-.464.327-.703.497.64.61.64.61.937 1.669m-10.096-13.467c-.051-.028-.134-.094-.227-.121-1.477-.424-2.952-.847-4.433-1.26-.208-.058-.432-.077-.65-.082-.094-.002-.27.071-.274.118-.021.359-.068.737.024 1.072.033.119.43.189.663.195 1.643.039 3.285.054 4.897.078m12.497 12.264c.519-.462 1.246-.673 1.065-1.545-.177-.847-.812-1.089-1.505-1.238-.783-.167-.887.593-1.338 1.006.733.486 1.689.668 1.778 1.777m-27.623-14.424c1.484.656 2.719 1.204 3.957 1.751.298.132.501.042.591-.266.06-.21.116-.426.13-.643.037-.605-.116-.783-.74-.819-.694-.04-1.391-.051-2.087-.058-.535-.004-1.069.019-1.851.035m-22.35 3.256c-1.153.279-2.264.517-3.351.836-.204.059-.37.422-.439.675-.028.107.215.363.383.434.679.281 1.373.53 2.069.767.413.142.697.013.841-.439.233-.726.522-1.437.497-2.273m-6.814 15.804c.633 1.749 3.081 3.194 5.718 3.501-.25-.486-.581-.977-.76-1.519-.141-.428-.322-.597-.763-.58-.982.036-1.872-.292-2.731-.738-.448-.232-.92-.419-1.464-.664m34.312-18.954c-.036.673-.064 1.217-.094 1.76-.02.334.151.466.468.442.984-.075 1.97-.139 2.953-.237.408-.041.538-.301.562-.919.014-.359-.035-.636-.476-.721-1.115-.216-2.231-.356-3.413-.325m-14.651 6.031c.072-.966.11-1.804.207-2.637.047-.42-.082-.683-.411-.931-.612-.463-1.191-.969-1.787-1.452-.15-.121-.318-.222-.505-.351-.704 2.555.756 3.987 2.496 5.371m-16.047 3.643c.013-.028.026-.055.039-.083.378.144.754.294 1.134.429.246.088.442.02.504-.253.209-.931.411-1.864.615-2.797.053-.246-.017-.416-.274-.513-.89-.336-1.777-.684-2.662-1.032-.25-.099-.43-.041-.534.204-.318.745-.629 1.492-.944 2.237-.176.42-.018.718.356.914.584.307 1.177.597 1.766.894m29.647-1.593c-1.07-.295-2.053-.553-3.028-.837-1.02-.297-2.035-.614-3.048-.933-.314-.1-.61-.144-.687.26-.135.719-.238 1.445-.337 2.17-.044.326.097.58.426.679.561.169 1.126.321 1.688.48 2.283.647 1.696.45 3.701-.544.531-.262.912-.689 1.285-1.275m-7.761.853c.152-.911.284-1.709.418-2.507.054-.313.023-.556-.315-.727-.952-.48-1.876-1.014-2.831-1.484-.744-.366-1.521-.67-2.336-1.024-.173 1.044-.241 1.983-.057 2.942.102.524.331.85.846 1.04.587.215 1.132.541 1.711.778.811.333 1.638.631 2.564.982m-25.941 5.27c-.326.976-.355 1.996-.313 3.024.019.475.178.814.687 1.006.721.271 1.388.684 2.109.958.611.234 1.257.414 1.903.511.501.075.637-.132.615-.65-.045-1.028-.109-2.056-.131-3.083-.007-.314-.086-.442-.402-.526-1.454-.383-2.9-.802-4.468-1.24m1.48-5.256c-.72 1.247-1.04 2.551-1.257 3.891-.072.447.144.706.538.83 1.223.384 2.448.764 3.677 1.129.329.098.568-.005.62-.402.143-1.092.3-2.18.458-3.269.049-.339-.16-.474-.423-.536-1.292-.307-2.475-.866-3.613-1.643m-3.936-5.647c-.743-.809-1.506-.961-2.387-.586-.473.201-.964.363-1.432.577-.94.428-1.598 1.153-2.094 2.046-.447.806-.489 1.611-.002 2.409.229.375.477.743.755 1.082.471.572.542 1.165.27 1.851-.196.495-.442.92-.909 1.205-.242.15-.46.34-.689.512.257.421.572.37.893.216.363-.175.706-.404 1.084-.542.251-.092.546-.065.821-.092-.046.271-.033.573-.154.805-.183.355-.463.659-.695.99-.096.139-.172.292-.309.527.769.032 1.213-.388 1.652-.733 1.379-1.082 1.681-2.512.902-4.08-.163-.329-.371-.634-.547-.957-.208-.386-.427-.77-.601-1.173-.288-.665-.179-1.29.252-1.869.628-.845 1.396-1.509 2.398-1.876.238-.087.471-.185.792-.312m61.376 9.215c.198-.134.266-.167.314-.217.051-.051.1-.116.121-.183.651-2.15.843-4.265-.52-6.247-.335-.485-.662-.982-1.048-1.425-1.064-1.224-2.104-2.468-3.478-3.379-2.753-1.823-5.838-2.864-9.009-3.559-3.848-.843-7.75-1.438-11.631-2.126-1.016-.18-2.042-.297-3.063-.456-2.671-.418-5.345-.606-8.038-.171-2.002.322-3.521 1.306-4.329 3.182-.828 1.921-.658 1.935.67 3.117 1.933 1.719 4.318 2.679 6.6 3.766 2.057.982 4.229 1.759 6.479 2.226.701.146 1.386.523 2.15.24.078-.028.344.172.348.273.007.193-.08.409-.182.585-.635 1.103-1.67 1.708-2.766 2.28-2.344 1.224-4.772 2.145-7.429 2.376-.257.022-.515.063-.765.12-4.586 1.053-9.24 1.489-13.937 1.565-.275.004-.549.101-.924.175-.151-.407-.48-.86-.443-1.283.084-.981.263-1.973.551-2.915.628-2.049 1.477-4.015 2.654-5.817 1.397-2.138 2.61-4.355 3.394-6.803.345-1.074.506-2.156.455-3.264-.082-1.777-.504-3.433-1.972-4.628-.771-.628-1.551-1.247-2.343-1.851-1.494-1.141-3.174-1.455-5.012-1.155-3.044.497-5.534 1.873-7.464 4.325-1.775 2.254-3.035 4.687-3.304 7.578-.053.564-.084 1.111.294 1.582.606.753 1.287 1.409 2.195 1.809 3.387 1.498 6.745 1.29 10.081-.142.508-.218.984-.509 1.483-.744.161-.076.353-.084.772-.176-.366.373-.516.605-.729.726-.877.497-1.19 1.297-1.392 2.23-.333 1.547-.842 3.058-1.127 4.611-.413 2.244-.731 4.507-1.016 6.771-.224 1.774-.008 3.537.484 5.254.333 1.166 1.174 1.714 2.387 1.68.663-.019 1.328-.026 1.992-.008 3.045.082 6.04-.234 8.963-1.133.455-.14.935-.221 1.409-.276 1.43-.163 2.863-.292 4.293-.452.437-.049.874-.132 1.303-.237 2.793-.677 5.585-1.365 8.376-2.055.32-.079.643-.168.944-.302 1.491-.665 2.838-1.531 4.075-2.62 1.786-1.574 2.127-3.543 1.497-5.632-.605-2.003-1.869-3.677-3.56-4.958-.791-.599-1.655-1.104-2.501-1.629-.209-.13-.529-.301-.703-.228-.4.169-.584.141-.75-.283-.063-.166-.335-.265-.527-.363-2.21-1.129-4.526-1.984-6.908-2.668-.39-.111-.78-.239-1.144-.411-.122-.058-.166-.28-.246-.427.153-.064.326-.21.457-.179.573.131 1.154.267 1.697.488 1.009.41 1.993.523 3.11.434 5.029-.402 9.92.359 14.683 2.02 2.094.731 4.104 1.619 5.953 2.844 1.289.855 2.603 1.687 3.797 2.661 1.084.885 2.102 1.905 1.969 3.515-.024.297.168.362.406.409.88.175 1.601.57 1.904 1.56m-22.943-9.695c.639.426 1.277.855 1.919 1.278 1.958 1.29 3.301 3.134 4.015 5.281.778 2.339.355 4.579-1.579 6.375-1.286 1.194-2.728 2.128-4.309 2.86-.364.169-.765.269-1.157.369-2.822.716-5.646 1.427-8.471 2.131-.391.097-.795.163-1.195.206-1.468.158-2.937.293-4.404.454-.402.044-.814.096-1.194.225-3.193 1.084-6.49 1.292-9.828 1.226-.845-.016-1.692.083-2.538.114-.44.016-.923.111-1.315-.028-1.421-.502-2.921-.909-4.192-1.681-2.358-1.43-3.159-3.69-2.717-6.387.462-2.808 1.107-5.556 2.509-8.08.531-.956.926-1.987 1.44-3.11-.382-.034-.689-.062-.996-.09-.732-.067-1.497-.019-2.189-.223-1.554-.46-2.807.156-4.053.916-.063.038-.111.097-.166.146-1.409 1.246-1.503 1.928-.511 3.53.251.407.452.844.7 1.252.66 1.079.45 2.141-.115 3.149-.501.893-1.306 1.495-2.245 1.892-.259.11-.578.132-.864.113-.229-.014-.45-.15-.676-.231.095-.182.166-.384.29-.543.261-.339.55-.657.71-1.105-.302.117-.598.246-.905.347-.578.192-1.099.062-1.53-.356-.246-.238-.291-.522.008-.76.289-.229.584-.454.9-.642.406-.242.627-.598.789-1.026.174-.46.113-.834-.199-1.228-.363-.46-.68-.961-.968-1.473-.434-.77-.335-1.553.013-2.337.62-1.4 1.683-2.302 3.108-2.803.484-.172.977-.321 1.505-.492-.013-.432-.386-.606-.612-.86-.574-.643-.839-1.356-.746-2.229.25-2.352.994-4.531 2.29-6.5.954-1.446 1.986-2.837 3.388-3.908 2.164-1.654 4.624-2.422 7.321-2.419.644.001 1.309.194 1.928.406 1.971.674 3.466 2.065 4.94 3.452 1.364 1.283 1.628 3.008 1.669 4.77.027 1.186-.205 2.329-.576 3.47-.807 2.479-2.059 4.715-3.458 6.894-1.121 1.746-1.898 3.667-2.515 5.639-.226.724-.26 1.52-.311 2.288-.035.533.165.716.7.808.216.037.443.037.661.019 4.339-.338 8.686-.604 12.944-1.607 1.397-.329 2.821-.54 4.223-.847.532-.117 1.038-.355 1.781-.616-.744-.235-1.28-.367-1.786-.572-2.187-.886-4.366-1.791-6.544-2.7-.233-.097-.464-.239-.648-.411-.832-.782-1.667-1.564-2.463-2.383-.73-.749-1.012-1.665-1.002-2.722.014-1.724.245-3.374 1.15-4.883 1.019-1.697 2.517-2.632 4.46-2.917 2.762-.405 5.506-.311 8.256.156 2.033.346 4.093.534 6.124.895 3.192.568 6.405 1.075 9.538 1.886 2.698.699 5.387 1.53 7.786 3.081 1.577 1.021 2.827 2.352 4.038 3.74.363.414.652.894.996 1.327.711.894 1.151 1.899 1.174 3.043.021.918.043 1.854-.109 2.752-.172 1.017-.672 1.88-1.4 2.692-1.288 1.434-2.873 2.113-4.695 2.466-.793.153-1.558.447-2.348.633-.679.159-1.37.309-2.063.359-.421.03-.879-.079-1.283-.227-.622-.231-.732-.716-.275-1.204.244-.258.578-.462.909-.606 1.216-.53 2.439-1.05 3.677-1.527 1.259-.485 2.203-1.34 2.936-2.427.524-.78.614-1.552-.131-2.535-1.144-1.51-2.668-2.534-4.235-3.502-2.612-1.616-5.43-2.672-8.539-2.706-1.316-.015-2.636-.175-3.962.083-.551.106-1.161-.097-1.744-.126-.319-.015-.641.037-.961.059-.025.083-.049.165-.073.247" fill="#231f20"/><path d="m9.973 13c.349.072.716-.163.718-.434.001-.096-.202-.29-.235-.274-.209.099-.414.226-.579.386-.041.039.068.234.096.322m-1.856-1.135c.209-.385.079-.643-.176-.814-.105-.07-.304-.001-.46.004.094.254.167.52.294.755.035.064.234.04.342.055m8.042-3.549c.029-.092.1-.202.088-.301-.034-.277-.015-.654-.181-.792-.159-.131-.598-.113-.789.02-.441.307-.833.7-1.196 1.102-.249.276-.203.635.038.907.236.264.563.341.907.212.549-.204.899-.611 1.133-1.148m-6.589-2.93c-.014.291-.101.627-.033.927.139.611.829.829 1.29.453.514-.422.749-1.424.474-2.016-.24-.517-.755-.635-1.154-.225-.224.229-.365.538-.577.861m59.296 20.971c-.304-.99-1.024-1.384-1.904-1.56-.238-.048-.43-.111-.406-.41.133-1.609-.885-2.63-1.968-3.513-1.194-.976-2.509-1.808-3.799-2.662-1.848-1.225-3.857-2.113-5.952-2.843-4.764-1.663-9.654-2.423-14.683-2.021-1.116.09-2.102-.023-3.11-.434-.542-.221-1.123-.356-1.696-.488-.133-.03-.305.115-.458.18.08.146.124.367.246.425.365.173.754.301 1.143.412 2.383.684 4.699 1.539 6.909 2.668.192.098.463.198.527.362.166.426.35.453.751.285.173-.074.493.098.702.227.846.525 1.71 1.03 2.501 1.629 1.691 1.281 2.956 2.955 3.56 4.959.629 2.089.289 4.057-1.497 5.63-1.237 1.089-2.584 1.956-4.075 2.62-.301.134-.624.224-.944.303-2.791.69-5.583 1.377-8.376 2.056-.429.104-.867.187-1.303.236-1.43.16-2.863.288-4.293.453-.474.053-.954.136-1.409.275-2.923.899-5.917 1.215-8.963 1.133-.664-.018-1.329-.011-1.991.008-1.214.034-2.055-.514-2.388-1.679-.492-1.717-.708-3.481-.484-5.255.285-2.264.604-4.527 1.015-6.771.286-1.553.795-3.064 1.129-4.61.201-.935.513-1.734 1.391-2.23.213-.121.363-.354.729-.727-.419.092-.611.1-.772.175-.499.236-.975.527-1.483.745-3.336 1.432-6.694 1.64-10.082.143-.906-.401-1.588-1.057-2.194-1.81-.378-.471-.347-1.018-.293-1.582.268-2.891 1.528-5.324 3.303-7.577 1.931-2.452 4.42-3.828 7.463-4.326 1.839-.301 3.519.014 5.014 1.155.791.604 1.571 1.223 2.343 1.851 1.467 1.194 1.889 2.851 1.971 4.629.05 1.107-.11 2.188-.455 3.263-.783 2.448-1.997 4.666-3.394 6.803-1.177 1.801-2.027 3.767-2.655 5.817-.288.942-.465 1.933-.55 2.915-.036.422.292.876.442 1.283.376-.074.65-.171.925-.176 4.697-.074 9.351-.511 13.937-1.563.251-.057.508-.099.765-.121 2.657-.231 5.084-1.152 7.429-2.376 1.097-.573 2.131-1.177 2.766-2.28.102-.176.189-.392.182-.586-.003-.1-.27-.301-.347-.271-.765.281-1.45-.095-2.151-.24-2.251-.469-4.422-1.245-6.479-2.226-2.282-1.089-4.668-2.048-6.6-3.768-1.328-1.181-1.498-1.195-.67-3.117.809-1.874 2.327-2.859 4.329-3.181 2.693-.434 5.367-.247 8.038.171 1.021.159 2.047.275 3.063.455 3.881.688 7.783 1.285 11.631 2.128 3.171.694 6.256 1.734 9.008 3.559 1.375.911 2.416 2.154 3.479 3.377.386.444.713.94 1.048 1.427 1.362 1.982 1.17 4.097.52 6.246-.02.068-.07.132-.121.183-.048.051-.116.083-.314.217" fill="#f5821f"/><path d="m49.076 26.58c-2.59 1.844-5.584 3.127-8.551 4.232-3.165 1.18-6.431 2.229-9.76 2.808-3.712.645-7.533.875-11.262.256-.895-.148-2.719-.487-3.923-1.202.097.649.227 1.296.409 1.934.333 1.165 1.174 1.714 2.388 1.68.663-.02 1.327-.026 1.991-.009 3.046.083 6.04-.233 8.963-1.133.455-.139.935-.22 1.41-.275 1.429-.163 2.862-.293 4.292-.452.437-.049.874-.133 1.303-.237 2.793-.678 5.585-1.365 8.376-2.056.32-.078.644-.168.944-.302 1.491-.664 2.838-1.531 4.075-2.619 1.534-1.352 1.996-2.994 1.699-4.755-.681.835-1.548 1.556-2.354 2.13" fill="#3b2314" opacity=".2"/><path d="m7.49 17.142c-.321.126-.555.225-.792.312-1.002.367-1.77 1.031-2.398 1.876-.431.58-.54 1.204-.253 1.869.175.402.393.787.602 1.174.175.322.384.627.547.955.778 1.568.477 2.999-.902 4.081-.44.345-.883.765-1.652.734.136-.236.212-.389.309-.528.232-.331.512-.635.695-.99.121-.232.108-.534.154-.805-.275.027-.57 0-.822.092-.377.138-.72.367-1.084.541-.32.155-.635.205-.892-.215.229-.171.447-.363.689-.512.467-.286.712-.71.909-1.205.272-.686.201-1.279-.27-1.851-.279-.339-.526-.707-.755-1.082-.488-.798-.446-1.603.002-2.41.496-.892 1.154-1.616 2.093-2.045.469-.215.959-.376 1.433-.577.881-.375 1.644-.223 2.387.586" fill="#ed1c24"/><path d="m11.426 22.789c1.138.777 2.321 1.335 3.614 1.643.262.063.471.198.422.536-.158 1.089-.314 2.178-.458 3.269-.052.397-.29.499-.62.401-1.229-.364-2.454-.743-3.677-1.128-.394-.124-.61-.383-.538-.829.217-1.34.537-2.645 1.257-3.892" fill="#ffd62c"/><path d="m9.946 28.045c1.567.44 3.013.857 4.468 1.241.316.083.395.213.401.525.023 1.028.085 2.056.131 3.083.022.519-.114.726-.615.65-.646-.097-1.291-.277-1.903-.509-.721-.276-1.388-.687-2.11-.96-.508-.191-.667-.53-.686-1.005-.042-1.028-.013-2.049.314-3.025" fill="#ffe789"/><path d="m35.887 22.776c-.926-.353-1.753-.649-2.565-.983-.579-.237-1.123-.562-1.71-.778-.515-.189-.745-.516-.846-1.04-.184-.959-.116-1.898.057-2.941.814.353 1.591.656 2.336 1.023.955.47 1.879 1.005 2.83 1.485.339.171.37.413.316.727-.134.797-.267 1.596-.418 2.507" fill="#ffe789"/><path d="m43.647 21.922c-.372.585-.753 1.013-1.286 1.276-2.004.993-1.417 1.19-3.699.544-.563-.16-1.128-.312-1.689-.48-.329-.1-.469-.354-.425-.681.098-.725.201-1.449.337-2.169.077-.403.372-.359.686-.26 1.014.32 2.028.636 3.049.933.974.284 1.958.542 3.027.837" fill="#ffd62c"/><path d="m14.001 23.515c-.589-.296-1.182-.586-1.767-.893-.374-.197-.532-.494-.355-.915.315-.745.626-1.493.944-2.237.104-.246.283-.303.533-.204.886.348 1.773.695 2.663 1.033.257.096.327.265.272.512-.203.933-.404 1.865-.615 2.797-.061.273-.257.341-.502.253-.382-.135-.756-.285-1.134-.429-.013.028-.026.055-.039.083" fill="#ffe789"/><path d="m30.048 19.873c-1.74-1.385-3.2-2.816-2.496-5.371.187.129.355.229.505.351.596.482 1.176.989 1.787 1.452.33.248.458.51.411.931-.097.832-.135 1.671-.207 2.637" fill="#ffd62c"/><path d="m44.699 13.841c1.181-.03 2.298.109 3.412.325.442.085.491.362.477.721-.024.618-.154.879-.562.919-.983.097-1.969.162-2.954.238-.316.024-.487-.109-.468-.443.031-.544.059-1.087.095-1.76" fill="#ffd62c"/><path d="m10.387 32.795c.544.245 1.016.433 1.464.665.859.445 1.749.774 2.731.737.441-.017.622.152.763.58.178.542.51 1.034.76 1.52-2.637-.309-5.085-1.753-5.718-3.502" fill="#ffd62c"/><path d="m17.201 16.991c.025.836-.264 1.547-.497 2.274-.144.451-.428.58-.841.438-.696-.237-1.39-.485-2.069-.768-.169-.07-.412-.326-.383-.433.068-.254.235-.616.439-.676 1.087-.318 2.198-.557 3.351-.835" fill="#ffd62c"/><path d="m39.551 13.736c.781-.017 1.316-.04 1.851-.035.696.006 1.392.017 2.087.057.623.036.775.214.739.82-.013.216-.07.432-.13.642-.089.308-.293.399-.591.267-1.237-.548-2.474-1.095-3.956-1.751" fill="#ffe789"/><path d="m67.174 28.159c-.09-1.108-1.044-1.29-1.778-1.778.451-.412.555-1.172 1.337-1.004.693.147 1.329.389 1.506 1.237.182.872-.546 1.082-1.065 1.545" fill="#ffe789"/><path d="m54.677 15.895c-1.612-.023-3.254-.039-4.897-.078-.233-.006-.63-.075-.663-.194-.093-.336-.046-.713-.024-1.073.003-.047.18-.12.274-.118.218.006.442.024.65.082 1.48.413 2.956.836 4.433 1.26.093.027.176.093.227.121" fill="#ffe789"/><path d="m64.772 29.362c-.296-1.058-.296-1.058-.936-1.669.239-.17.461-.349.702-.497.503-.307.967-.177 1.434.122.484.312.482.793.467 1.263-.005.131-.187.318-.329.372-.435.164-.891.277-1.338.409" fill="#ffd62c"/><path d="m58.555 30.56c-.056-.061-.258-.184-.264-.316-.007-.144.133-.342.267-.438.812-.581 1.713-.833 2.696-.545.214.062.416.267.547.46.056.082-.034.366-.141.441-.48.337-2.515.603-3.105.398" fill="#ffd62c"/><path d="m62.681 29.853c-.32-.458-.601-.862-.911-1.306.549-.404 1.146-.436 1.794-.171.37.152.436.437.451.784.02.408-.263.465-.555.528-.279.06-.56.119-.779.165" fill="#ffe789"/><g fill="#231f20"><path d="m9.57 5.386c.211-.323.353-.632.576-.861.4-.41.914-.292 1.155.225.275.593.039 1.595-.475 2.016-.461.376-1.152.159-1.289-.453-.069-.3.017-.636.033-.927"/><path d="m16.159 8.316c-.235.537-.585.944-1.134 1.148-.344.128-.67.052-.906-.213-.242-.271-.288-.63-.039-.906.364-.402.755-.795 1.197-1.103.19-.132.63-.151.788-.019.167.137.148.515.182.791.011.1-.059.209-.088.302"/><path d="m8.117 11.865c-.108-.015-.307.01-.342-.054-.127-.236-.2-.502-.293-.755.155-.005.353-.075.46-.004.254.171.385.428.175.813"/><path d="m9.973 13c-.028-.088-.137-.283-.096-.322.165-.16.37-.287.579-.386.033-.016.236.178.235.274-.002.271-.369.506-.718.434"/></g><path d="m12.119 3.074c-.127.173-.235.385-.183.593.072.286.403.413.693.466 1.239.232 6.646.731 5.703-1.432-.857-1.965-5.201-1.011-6.213.373" fill="#fff"/><path d="m31.698 9.802c-.589-.115-1.196.206-1.576.67-.379.464-.571 1.05-.729 1.629-.101.371-.19.765-.079 1.133.105.346.375.617.662.839.828.642 1.873.999 2.922.998-.392-.717-1.003-1.283-1.536-1.902s-1.011-1.35-1.039-2.166c-.029-.817.554-1.696 1.37-1.73" fill="#fff"/><path d="m12.937 29.054c-.061 2.554.276 5.2 1.578 7.399-1.665-.498-3.201-1.42-4.421-2.657-.342-.346-.667-.729-.82-1.191-.125-.375-.127-.78-.113-1.174.185-4.904 3.355-11.736 7.184-14.874-1.724 4.134-3.298 7.904-3.408 12.497" fill="#3b2314" opacity=".2"/></g></svg>