<svg clip-rule="evenodd" fill-rule="evenodd" stroke-linejoin="round" stroke-miterlimit="2" viewBox="0 0 42 33" xmlns="http://www.w3.org/2000/svg"><g fill-rule="nonzero"><path d="m18.866 24.24c-.32.03-.573.096-.817.07-1.354-.146-2.716-.257-4.055-.492-1.272-.223-1.72-.883-1.749-2.155-.018-.76.182-1.458.463-2.143.521-1.272.867-2.588.972-3.957.05-.658.088-1.335-.012-1.982-.15-.947.005-1.802.344-2.691.699-1.835 1.879-3.171 3.559-4.216 2.196-1.364 4.527-2.125 7.094-2.2 1.482-.044 2.891.15 4.305.748 3.493 1.476 5.21 4.28 6.165 7.72.465 1.674.67 3.387.661 5.134-.007 1.268-.179 2.501-.528 3.708-.484 1.675-1.504 3.017-2.735 4.219-.33.322-.722.346-1.133.286-1.494-.221-2.989-.437-4.478-.684-.433-.072-.9-.159-1.265-.381-1.365-.834-2.895-.846-4.393-.88-1.118-.025-1.928-.408-2.478-1.347-.521-.888-1.079-1.763-1.504-2.698-1.598-3.515.967-10.098 7.065-9.804.288.014.615.041.851.182.788.471 1.577.954 2.301 1.514.628.486.954 1.206 1.147 1.977.134.535.221 1.092.429 1.597 1.071 2.596-1.108 4.95-2.974 5.422-1.576.4-2.403.055-3.233-1.351-.691-1.174-.792-2.445-.647-3.746.095-.857 1.101-1.776 2.037-1.976.821-.176 1.308.085 1.464.913.141.755.222 1.531-.084 2.287-.056.137.027.33.045.496.16-.065.353-.093.471-.203.127-.118.242-.304.26-.471.104-.957.163-1.921-.241-2.83-.259-.584-.705-.885-1.391-.89-1.725-.015-3.285 1.404-3.351 3.165-.055 1.471.289 2.85 1.142 4.081.778 1.123 1.826 1.535 3.169 1.282 1.72-.324 2.939-1.304 3.775-2.802.508-.913.594-1.889.341-2.893-.208-.821-.458-1.631-.666-2.453-.244-.972-.806-1.728-1.566-2.35-.313-.256-.669-.46-.989-.707-1.281-.991-2.72-1.012-4.216-.708-2.823.573-4.6 2.311-5.633 4.943-1.042 2.658-.669 5.129.848 7.479.378.584.788 1.147 1.23 1.787" fill="#f3da84"/><path d="m7.826 14.475c.561-.012 1.25-1.116.954-1.577-.088-.136-.373-.248-.534-.214-.523.112-.947.699-.954 1.215-.004.314.245.582.534.576m-3.07-.923c.324-.272.612-.436.788-.679.212-.294.363-.66.127-1.025-.177-.275-.428-.393-.752-.236-.441.213-.773.807-.647 1.28.056.206.265.371.484.66m.774 4.702c1.459.533 2.383.105 3.099-1.28.042-.082.048-.224.005-.303-.139-.265-.7-.416-1.093-.27-.465.173-.048.345-.003.542.041.179-.024.479-.155.579-.307.238-.67.416-1.033.563-.254.103-.545.116-.82.169m34.652 9.619c-.152.176-.222.322-.337.379-1.781.901-3.578 1.64-5.673 1.417-1.379-.147-2.718-.364-3.924-1.031-1.423-.787-2.92-.753-4.413-.486-1.515.269-3.016.128-4.523.09-.315-.008-.628-.193-.937-.313-.926-.362-1.838-.764-2.777-1.092-2.69-.94-5.373-.709-8.028.155-.707.231-1.398.415-2.154.4-.908-.019-1.634-.424-2.304-.955-.18-.143-.338-.425-.35-.65-.088-1.747.023-3.459.901-5.042.29-.522.626-.854 1.264-.914.424-.04.842-.244 1.237-.427.109-.05.129-.292.19-.445-.135-.026-.287-.109-.402-.071-.852.28-1.721.39-2.615.324-.901-.067-1.743-.302-2.454-.886-1.161-.954-1.204-2.263-.943-3.549.406-2.009 1.561-3.468 3.561-4.162 1.196-.415 2.421-.638 3.689-.574.293.015.59.049.875.119.579.142 1.061.377.883 1.131-.02.084.072.275.122.279.124.007.329-.026.37-.108.225-.461.487-.307.792-.102.433.293.586.735.705 1.208.39 1.543.236 3.074-.137 4.589-.177.712-.435 1.405-.681 2.099-.295.837-.461 1.682-.531 2.578-.095 1.246.993 2.381 2.016 2.552 1.342.224 2.69.453 4.045.552 1.8.132 3.609.148 5.414.199.639.018 1.205.203 1.794.464.833.369 1.725.684 2.622.816 3.571.527 7.153.976 10.762 1.183.619.036 1.234.17 1.941.273" fill="#ffcc40"/><path d="m34.101 30.249c-.32.225-.422.35-.544.375-1.057.213-2.133.32-3.164-.058-1.526-.562-3.042-.432-4.568-.07-.286.068-.579.145-.839.278-1.548.799-3.147.646-4.747.249-.892-.222-1.78-.486-2.637-.817-1.324-.513-2.664-.466-4.027-.276-1.422.198-2.844.391-4.269.561-1.928.23-3.63-1.133-4.065-3.099.208.069.366.106.51.172 1.197.555 2.412.599 3.653.158 1.576-.558 3.191-.847 4.875-.823 1.241.016 2.409.28 3.552.715.551.21 1.112.403 1.642.658 2.031.98 4.163.788 6.288.535 1.444-.17 2.833-.275 4.202.433 1.209.625 2.497 1.091 4.138 1.009" fill="#f8983e"/><g fill="#231f20"><path d="m5.53 18.254c.275-.054.566-.066.821-.169.362-.148.725-.326 1.032-.562.131-.101.196-.402.156-.579-.047-.198-.463-.37.001-.543.394-.145.954.005 1.095.27.041.08.036.22-.007.303-.714 1.384-1.638 1.813-3.098 1.28"/><path d="m4.756 13.551c-.218-.287-.428-.453-.483-.659-.127-.472.205-1.068.646-1.28.324-.156.575-.038.752.235.236.366.085.732-.126 1.025-.177.244-.464.408-.789.679"/><path d="m7.826 14.475c-.289.006-.538-.262-.534-.576.007-.516.431-1.103.954-1.215.161-.034.446.078.534.214.296.461-.393 1.565-.954 1.577"/></g><path d="m17.085 8.678c-.289.599-.345 1.449.213 1.811.453.293 1.064.096 1.509-.208 1.212-.826 1.894-1.871 3.28-2.444 1.027-.427 1.933.047.977-1.043-1.667-1.9-5.166.198-5.979 1.884" fill="#fff"/><path d="m28.237 6.602c-.803-.404-1.921.133-2.107 1.012-.133.626.154 1.272.544 1.78.654.855 1.705 1.482 2.775 1.353 1.069-.131 2.014-1.208 1.761-2.255-.175-.72-.837-1.24-1.546-1.455s-1.466-.179-2.206-.142" fill="#fff"/><path d="m7.347 26.073c0 .422.009.873.249 1.22.246.356.683.524 1.102.633 1.078.281 2.221.307 3.311.075.605-.128 1.202-.336 1.82-.326.787.012 1.518.373 2.252.655 5.403 2.072 11.502-.016 17.229.813-.613 1.405-2.418 1.816-3.95 1.752-1.532-.062-3.143-.399-4.547.217-.678.297-1.258.8-1.959 1.041-2.525.869-4.807-1.915-7.435-2.391-2.944-.533-6.15 1.891-8.794.49-1.653-.877-2.301-2.935-2.354-4.805-.034-1.168.391-4.592 1.973-4.812 1.867-.261 1.103 4.305 1.103 5.438" fill="#3b2314" opacity=".2"/><path d="m19.779 20.7c2.044.688 4.139 1.224 6.263 1.599 1.932.344 3.953.551 5.832-.017 1.878-.567 3.589-2.072 3.867-4.014-.113 2.426-.834 4.822-2.078 6.909-.18.303-.385.611-.696.779-.381.208-.845.162-1.276.11-1.583-.191-3.173-.382-4.714-.794-1.146-.306-2.267-.735-3.446-.856-1.859-.191-3.699.394-5.556.61-1.856.216-3.979-.054-5.146-1.513-1.221-1.525-1.454-6.616.569-7.732 1.515-.837 1.857 1.003 2.596 2.093 1.006 1.484 2.083 2.253 3.785 2.826" fill="#3b2314" opacity=".2"/><path d="m34.101 30.249c-1.641.082-2.929-.384-4.138-1.009-1.369-.708-2.758-.603-4.202-.433-2.125.253-4.257.445-6.288-.535-.53-.255-1.091-.448-1.642-.658-1.143-.435-2.311-.699-3.552-.715-1.684-.024-3.299.265-4.875.823-1.241.441-2.456.397-3.653-.158-.144-.066-.302-.103-.51-.172.435 1.966 2.137 3.329 4.065 3.099 1.425-.17 2.847-.363 4.269-.561 1.363-.19 2.703-.237 4.027.276.857.331 1.745.595 2.637.817 1.6.397 3.199.55 4.747-.249.26-.133.553-.21.839-.278 1.526-.362 3.042-.492 4.568.07 1.031.378 2.107.271 3.164.058.122-.025.224-.15.544-.375m6.081-2.376c-.708-.103-1.322-.237-1.942-.273-3.608-.207-7.19-.656-10.761-1.183-.898-.132-1.789-.447-2.622-.816-.589-.261-1.154-.446-1.793-.464-1.806-.051-3.615-.067-5.415-.199-1.355-.099-2.703-.328-4.045-.552-1.023-.171-2.111-1.306-2.016-2.552.07-.896.236-1.741.531-2.578.246-.694.505-1.387.681-2.099.373-1.515.527-3.046.138-4.589-.12-.473-.273-.915-.707-1.208-.304-.205-.566-.359-.792.102-.04.082-.245.115-.369.107-.05-.003-.142-.194-.122-.278.178-.754-.304-.989-.883-1.131-.285-.07-.582-.104-.876-.119-1.268-.064-2.492.159-3.688.574-2 .694-3.155 2.153-3.561 4.162-.261 1.286-.218 2.595.943 3.549.711.584 1.552.819 2.454.886.894.066 1.763-.045 2.616-.324.114-.038.266.045.401.071-.061.153-.081.395-.19.445-.396.183-.813.387-1.237.427-.638.06-.974.392-1.264.914-.879 1.583-.989 3.295-.901 5.041.012.226.17.508.35.651.67.531 1.396.936 2.304.955.755.015 1.446-.169 2.154-.4 2.656-.864 5.338-1.095 8.028-.155.939.328 1.851.73 2.777 1.092.309.12.622.305.937.313 1.507.038 3.008.179 4.523-.09 1.493-.267 2.99-.301 4.413.486 1.206.667 2.545.884 3.924 1.031 2.095.223 3.892-.516 5.673-1.417.115-.057.185-.203.337-.379m-21.317-3.632c-.441-.641-.851-1.203-1.229-1.787-1.518-2.351-1.889-4.822-.848-7.479 1.033-2.633 2.811-4.37 5.634-4.944 1.496-.303 2.934-.283 4.214.709.321.247.676.451.99.707.76.621 1.321 1.378 1.567 2.35.207.821.458 1.632.665 2.453.254 1.003.168 1.979-.342 2.893-.835 1.498-2.054 2.478-3.774 2.802-1.343.253-2.391-.16-3.17-1.282-.853-1.231-1.196-2.61-1.141-4.082.065-1.76 1.625-3.179 3.351-3.165.685.005 1.131.306 1.391.891.403.909.344 1.873.241 2.829-.019.168-.134.354-.261.471-.118.109-.31.139-.471.204-.018-.167-.099-.359-.045-.496.307-.757.226-1.533.084-2.287-.155-.828-.642-1.09-1.463-.914-.937.201-1.942 1.12-2.038 1.976-.145 1.301-.043 2.573.649 3.747.828 1.406 1.655 1.751 3.232 1.351 1.865-.473 4.046-2.827 2.974-5.422-.208-.505-.295-1.062-.429-1.598-.193-.771-.52-1.49-1.147-1.976-.725-.561-1.513-1.043-2.3-1.514-.238-.142-.564-.168-.853-.182-6.098-.294-8.662 6.289-7.063 9.804.424.934.982 1.809 1.502 2.697.55.94 1.361 1.323 2.479 1.347 1.498.034 3.028.046 4.394.88.363.222.831.31 1.264.381 1.489.247 2.984.464 4.478.684.412.061.802.036 1.133-.285 1.231-1.202 2.25-2.545 2.735-4.22.349-1.207.52-2.44.528-3.707.01-1.748-.196-3.461-.662-5.135-.954-3.439-2.67-6.244-6.165-7.719-1.414-.599-2.823-.793-4.305-.749-2.566.075-4.897.837-7.093 2.201-1.679 1.045-2.859 2.381-3.559 4.216-.339.888-.494 1.743-.345 2.691.102.645.063 1.323.012 1.981-.104 1.369-.451 2.685-.971 3.957-.281.686-.482 1.383-.463 2.143.029 1.273.476 1.932 1.749 2.156 1.339.235 2.7.346 4.054.491.244.027.498-.04.817-.069m-5.645-12.666c.175-.515.305-.887.427-1.263.561-1.724 1.682-2.972 3.179-3.975 2.595-1.74 5.436-2.576 8.544-2.592 2.267-.011 4.285.806 6.096 2.033 1.349.913 2.227 2.33 3.09 3.715.943 1.509 1.281 3.201 1.619 4.901.348 1.752.367 3.52.218 5.286-.193 2.306-1.034 4.355-2.624 6.069-.174.186-.348.372-.63.674.743.152 1.376.239 2.018.297 1.542.141 3.081.29 4.621.444.475.047 1.046.044 1.183.614.146.613-.431.811-.844 1.005-.765.358-1.561.653-2.349.965-1.301.513-2.593 1.057-3.914 1.517-1.137.394-2.339.49-3.474.046-1.807-.706-3.563-.513-5.273.208-1.242.522-2.513.625-3.795.438-1.051-.153-2.129-.372-3.099-.787-1.82-.782-3.624-.775-5.518-.399-1.223.244-2.483.358-3.73.403-1.746.065-3.038-.781-3.878-2.285-1.534-2.743-1.267-5.51-.039-8.273.087-.197.209-.377.355-.634-.527-.131-.983-.227-1.429-.359-1.803-.535-2.682-1.792-2.778-3.666-.112-2.187 1.273-5.105 4.273-5.882.5-.129.992-.287 1.496-.392.36-.076.501-.274.481-.616-.01-.184-.005-.377-.061-.548-.494-1.502-.94-3.024-1.526-4.49-.413-1.031-1.109-1.916-2.07-2.535-.277-.178-.579-.335-.891-.43-.46-.141-.873-.025-1.182.376-.721.937-.9 1.995-.698 3.137.012.071.049.139.078.206.181.417.395.838.906.863.472.024.707-.349.873-.733.224-.519.115-1.126-.268-1.416-.199-.152-.446-.24-.789-.416.257-.132.426-.291.595-.29.242.002.521.065.721.199.54.363.72 1.437.422 2.249-.29.792-.884 1.171-1.7 1.122-.528-.032-.898-.295-1.189-.706-.97-1.376-.508-4.119.86-5.138.488-.363 1.003-.395 1.57-.21 1.271.415 2.072 1.372 2.792 2.41 1.053 1.516 1.48 3.278 1.918 5.031.133.53.062 1.238.387 1.559.32.318 1.024.246 1.558.354.252.052.502.115.747.192.869.27.859.269 1.231-.505.571-1.188.775-2.451.78-3.753.004-1.066.094-2.145-.414-3.146-.099-.196-.17-.41-.282-.598-.514-.869-1.391-1.259-2.126-.957-.805.331-1.538 1.548-1.345 2.343.059.239.305.501.535.615.289.145.581-.034.739-.318.158-.285.165-.554-.171-.756-.088-.052-.113-.21-.166-.318.099-.04.199-.109.302-.115.486-.026.68.142.736.611.092.777-.366 1.416-1.099 1.536-.723.117-1.408-.368-1.501-1.133-.221-1.815 1.324-3.389 2.701-3.202.783.106 1.428.42 1.828 1.093.531.892.957 1.838.907 2.914-.05 1.065-.05 2.14-.216 3.189-.123.786-.422 1.558-.735 2.298-.424 1.001-.219.841.319 1.389.152.155.346.268.698.535" fill="#231f20"/></g></svg>