<?xml version="1.0" encoding="UTF-8" standalone="no"?><!DOCTYPE svg PUBLIC "-//W3C//DTD SVG 1.1//EN" "http://www.w3.org/Graphics/SVG/1.1/DTD/svg11.dtd"><svg width="100%" height="100%" viewBox="0 0 479 354" version="1.1" xmlns="http://www.w3.org/2000/svg" xmlns:xlink="http://www.w3.org/1999/xlink" xml:space="preserve" xmlns:serif="http://www.serif.com/" style="fill-rule:evenodd;clip-rule:evenodd;stroke-linecap:round;stroke-linejoin:round;stroke-miterlimit:10;"><g><path d="M31.023,188.456c-4.591,5.368 -1.825,51.519 3.027,56.599c6.737,7.076 18.793,0.802 26.705,6.171c4.013,2.715 6.028,7.816 8.827,12.013c6.084,9.153 16.796,14.275 27.023,12.938c5.412,-0.7 10.637,-3.086 16.105,-3.106c14.929,-0.041 25.025,16.599 38.611,23.408c11.589,5.821 26.089,3.743 35.943,-5.163c3.209,-2.9 5.971,-6.438 9.573,-8.68c3.621,-2.222 8.566,-2.777 11.608,0.308c3.06,3.086 3.004,8.331 4.441,12.65c3.639,10.964 15.956,14.337 26.444,16.106c15.041,2.551 32.677,4.176 43.239,-7.898c4.572,-5.246 7.446,-12.795 13.53,-15.592c4.61,-2.119 9.872,-0.905 14.706,0.535c11.477,3.394 23.01,7.857 34.86,7.178c11.85,-0.678 24.428,-8.207 27.339,-20.898c1.101,-4.854 0.84,-10.326 3.602,-14.296c1.624,-2.345 4.124,-3.785 6.662,-4.669c7.913,-2.736 16.479,-0.617 24.746,-1.275c19.501,-1.523 36.614,-20.611 37.753,-42.127c0.223,-4.113 1.925,-48.349 0.059,-51.907c-1.549,-2.942 -405.547,16.885 -414.803,27.705Z" style="fill:#312923;fill-rule:nonzero;"/><path d="M31.023,175.325c-4.591,5.369 -1.825,51.519 3.027,56.6c6.737,7.076 18.793,0.802 26.705,6.17c4.013,2.716 6.028,7.817 8.827,12.013c6.084,9.153 16.796,14.275 27.023,12.938c5.412,-0.699 10.637,-3.085 16.105,-3.106c14.929,-0.041 25.025,16.6 38.611,23.408c11.589,5.821 26.089,3.744 35.943,-5.163c3.209,-2.9 5.971,-6.438 9.573,-8.68c3.621,-2.222 8.566,-2.777 11.608,0.309c3.06,3.085 3.004,8.33 4.441,12.65c3.639,10.963 15.956,14.337 26.444,16.106c15.041,2.55 32.677,4.175 43.239,-7.899c4.572,-5.245 7.446,-12.794 13.53,-15.592c4.61,-2.118 9.872,-0.905 14.706,0.535c11.477,3.394 23.01,7.858 34.86,7.179c11.85,-0.679 24.428,-8.207 27.339,-20.899c1.101,-4.854 0.84,-10.326 3.602,-14.295c1.624,-2.345 4.124,-3.785 6.662,-4.67c7.913,-2.735 16.479,-0.617 24.746,-1.275c19.501,-1.522 36.614,-20.611 37.753,-42.126c0.223,-4.114 1.925,-48.349 0.059,-51.908c-1.549,-2.941 -405.547,16.885 -414.803,27.705Z" style="fill:#27190f;fill-rule:nonzero;"/><g><path d="M201.013,99.685c0.343,1.012 1.373,1.235 2.162,1.235c2.196,0 5.216,-1.595 5.954,-3.757c0.48,-1.407 -0.12,-2.814 -1.733,-4.067c-1.081,-0.84 -2.505,-0.755 -3.929,0.258c-1.785,1.286 -3.278,3.946 -2.454,6.331Zm5.868,-5.799c0,-0 2.213,1.081 1.785,3.054c-0.429,1.973 -4.05,3.002 -4.65,3.002c-0.601,0 -0.138,-6.434 2.865,-6.056Z" style="fill:#bc945b;fill-rule:nonzero;"/><path d="M201.116,100.629c0.463,0.463 1.167,0.703 2.059,0.703c2.351,0 5.559,-1.733 6.366,-4.049c0.377,-1.115 0.36,-2.797 -1.871,-4.547c-1.218,-0.944 -2.882,-0.858 -4.426,0.257c-1.939,1.373 -3.518,4.238 -2.626,6.829c0.103,0.326 0.258,0.584 0.498,0.807Zm2.368,-7.275c1.424,-1.013 2.848,-1.098 3.929,-0.258c1.613,1.253 2.213,2.66 1.733,4.067c-0.738,2.162 -3.758,3.757 -5.954,3.757c-0.789,0 -1.819,-0.223 -2.162,-1.235c-0.841,-2.385 0.652,-5.045 2.454,-6.331Z" style="fill:#73360b;fill-rule:nonzero;"/><path d="M204.016,99.942c0.6,0 4.221,-1.029 4.65,-3.002c0.428,-1.973 -1.785,-3.054 -1.785,-3.054c-3.003,-0.378 -3.466,6.056 -2.865,6.056Z" style="fill:#f4e0b8;fill-rule:nonzero;"/><path d="M284.608,118.456c0.343,0.635 1.115,0.944 2.093,0.824c1.081,-0.12 2.385,-0.824 2.66,-1.871c0.223,-0.875 -0.309,-1.818 -1.562,-2.728c-0.395,-0.274 -0.806,-0.412 -1.218,-0.412c-0.463,0 -0.944,0.189 -1.356,0.532c-0.858,0.755 -1.355,2.248 -0.617,3.655Zm3.02,-3.363c-0,0 1.561,0.772 1.509,1.99c-0.034,1.219 -2.247,1.733 -2.625,1.699c-0.394,0 -0.875,-4.049 1.116,-3.689Z" style="fill:#bc945b;fill-rule:nonzero;"/><path d="M286.306,119.726c0.138,-0 0.292,-0.017 0.429,-0.035c1.253,-0.154 2.694,-0.943 3.02,-2.196c0.189,-0.738 0.052,-1.887 -1.716,-3.174c-0.995,-0.721 -2.179,-0.652 -3.088,0.137c-0.995,0.858 -1.562,2.574 -0.721,4.17c0.361,0.72 1.133,1.098 2.076,1.098Zm0.275,-5.457c0.412,0 0.823,0.138 1.218,0.412c1.253,0.91 1.785,1.836 1.562,2.728c-0.275,1.047 -1.579,1.751 -2.66,1.871c-0.978,0.12 -1.75,-0.189 -2.093,-0.824c-0.738,-1.39 -0.241,-2.883 0.617,-3.637c0.412,-0.378 0.875,-0.55 1.356,-0.55Z" style="fill:#73360b;fill-rule:nonzero;"/><path d="M286.512,118.799c0.395,0.017 2.591,-0.48 2.625,-1.698c0.035,-1.219 -1.509,-1.991 -1.509,-1.991c-1.991,-0.377 -1.51,3.672 -1.116,3.689Z" style="fill:#f4e0b8;fill-rule:nonzero;"/><path d="M155.475,209.069c-0.395,-0.275 -0.806,-0.412 -1.218,-0.412c-0.463,-0 -0.944,0.188 -1.356,0.532c-0.875,0.755 -1.355,2.247 -0.617,3.637c0.343,0.635 1.115,0.944 2.093,0.824c1.081,-0.12 2.385,-0.824 2.659,-1.87c0.224,-0.858 -0.308,-1.802 -1.561,-2.711Zm-1.287,4.117c-0.394,-0.017 -0.875,-4.066 1.116,-3.706c-0,0 1.561,0.772 1.509,1.991c-0.034,1.235 -2.23,1.733 -2.625,1.715Z" style="fill:#bc945b;fill-rule:nonzero;"/><path d="M155.732,208.725c-0.995,-0.72 -2.179,-0.652 -3.088,0.138c-0.995,0.858 -1.561,2.573 -0.721,4.169c0.361,0.686 1.133,1.081 2.076,1.081c0.138,0 0.292,0 0.429,-0.034c1.253,-0.155 2.694,-0.944 3.02,-2.197c0.189,-0.72 0.052,-1.87 -1.716,-3.157Zm1.304,3.072c-0.274,1.046 -1.578,1.75 -2.659,1.87c-0.978,0.12 -1.75,-0.189 -2.093,-0.824c-0.738,-1.389 -0.241,-2.882 0.617,-3.637c0.412,-0.361 0.875,-0.532 1.356,-0.532c0.412,-0 0.823,0.137 1.218,0.412c1.253,0.892 1.785,1.836 1.561,2.711Z" style="fill:#73360b;fill-rule:nonzero;"/><path d="M155.304,209.48c-1.991,-0.36 -1.51,3.672 -1.116,3.706c0.395,0.018 2.591,-0.48 2.625,-1.698c0.052,-1.236 -1.509,-2.008 -1.509,-2.008Z" style="fill:#f4e0b8;fill-rule:nonzero;"/><path d="M339.548,125.886c0.343,0.634 1.116,0.943 2.094,0.823c1.081,-0.12 2.385,-0.823 2.659,-1.87c0.223,-0.875 -0.309,-1.819 -1.561,-2.728c-0.395,-0.275 -0.807,-0.412 -1.219,-0.412c-0.463,-0 -0.943,0.189 -1.355,0.549c-0.875,0.755 -1.356,2.248 -0.618,3.638Zm3.003,-3.346c-0,-0 1.561,0.772 1.51,1.99c-0.034,1.218 -2.248,1.733 -2.625,1.699c-0.378,-0.017 -0.858,-4.05 1.115,-3.689Z" style="fill:#bc945b;fill-rule:nonzero;"/><path d="M341.247,127.172c0.137,0 0.292,0 0.429,-0.034c1.252,-0.154 2.694,-0.944 3.02,-2.196c0.188,-0.738 0.051,-1.888 -1.716,-3.174c-0.995,-0.721 -2.179,-0.652 -3.089,0.137c-0.995,0.858 -1.561,2.574 -0.72,4.169c0.36,0.704 1.115,1.098 2.076,1.098Zm0.274,-5.473c0.412,-0 0.824,0.137 1.219,0.412c1.252,0.909 1.784,1.836 1.561,2.728c-0.274,1.047 -1.578,1.75 -2.659,1.87c-0.978,0.12 -1.751,-0.189 -2.094,-0.823c-0.738,-1.39 -0.24,-2.883 0.618,-3.638c0.412,-0.36 0.875,-0.549 1.355,-0.549Z" style="fill:#73360b;fill-rule:nonzero;"/><path d="M341.436,126.229c0.394,0.017 2.591,-0.481 2.625,-1.699c0.034,-1.218 -1.51,-1.99 -1.51,-1.99c-1.973,-0.361 -1.493,3.672 -1.115,3.689Z" style="fill:#f4e0b8;fill-rule:nonzero;"/><path d="M305.747,149.993c1.184,0.703 2.59,0.429 3.86,-0.755c1.63,-1.51 2.763,-4.341 1.647,-6.606c-0.48,-0.961 -1.51,-1.047 -2.299,-0.944c-2.179,0.275 -4.976,2.248 -5.439,4.479c-0.309,1.458 0.463,2.779 2.231,3.826Zm-1.751,-3.672c0.172,-2.008 3.638,-3.483 4.239,-3.569c0.6,-0.086 0.96,6.366 -2.077,6.366c0,-0 -2.333,-0.789 -2.162,-2.797Z" style="fill:#bc945b;fill-rule:nonzero;"/><path d="M309.899,149.547c1.75,-1.613 2.951,-4.65 1.75,-7.104c-0.463,-0.926 -1.424,-1.338 -2.745,-1.184c-2.334,0.292 -5.302,2.42 -5.8,4.822c-0.24,1.149 -0.017,2.814 2.437,4.272c0.48,0.292 1.012,0.429 1.561,0.429c0.927,0 1.905,-0.412 2.797,-1.235Zm-6.383,-3.38c0.463,-2.231 3.243,-4.204 5.439,-4.479c0.789,-0.103 1.836,-0.017 2.299,0.944c1.116,2.265 -0.017,5.096 -1.647,6.606c-1.27,1.184 -2.676,1.458 -3.86,0.755c-1.768,-1.047 -2.54,-2.368 -2.231,-3.826Z" style="fill:#73360b;fill-rule:nonzero;"/><path d="M306.158,149.118c3.037,-0 2.677,-6.452 2.077,-6.366c-0.601,0.086 -4.05,1.561 -4.239,3.569c-0.171,2.008 2.162,2.797 2.162,2.797Z" style="fill:#f4e0b8;fill-rule:nonzero;"/><path d="M244.286,123.106c0.892,2.351 3.088,4.65 5.576,4.65l0.035,-0c2.059,-0 3.826,-1.562 5.096,-4.753c0.875,-2.179 0.24,-4.221 -1.699,-5.559c-1.012,-0.704 -2.334,-1.098 -3.741,-1.098c-1.544,-0 -3.174,0.48 -4.546,1.715c-1.253,1.099 -1.51,2.969 -0.721,5.045Zm9.506,-0.223c-0,-0 -0.807,3.672 -3.398,4.238c-2.591,0.566 -4.804,-3.792 -4.958,-4.616c-0.172,-0.84 8.064,-3.997 8.356,0.378Z" style="fill:#bc945b;fill-rule:nonzero;"/><path d="M249.845,128.339l0.035,0c1.578,0 3.791,-0.858 5.49,-5.096c0.927,-2.333 0.223,-4.667 -1.853,-6.108c-2.265,-1.579 -6.022,-1.853 -8.819,0.669c-1.373,1.235 -1.682,3.277 -0.824,5.542c0.944,2.471 3.295,4.993 5.971,4.993Zm3.449,-10.844c1.922,1.339 2.557,3.329 1.699,5.508c-1.27,3.191 -3.037,4.753 -5.096,4.753l-0.035,-0c-2.488,-0 -4.684,-2.299 -5.576,-4.65c-0.789,-2.093 -0.515,-3.929 0.703,-5.045c1.39,-1.235 3.003,-1.733 4.547,-1.733c1.407,0 2.746,0.464 3.758,1.167Z" style="fill:#73360b;fill-rule:nonzero;"/><path d="M250.394,127.104c2.591,-0.566 3.398,-4.238 3.398,-4.238c-0.292,-4.358 -8.511,-1.218 -8.356,-0.395c0.154,0.841 2.367,5.199 4.958,4.633Z" style="fill:#f4e0b8;fill-rule:nonzero;"/><g><path d="M35.208,166.405c-4.591,5.369 -6.01,14.81 -1.158,19.891c6.737,7.076 18.793,0.802 26.705,6.171c4.013,2.715 6.028,7.816 8.827,12.012c6.084,9.153 16.796,14.275 27.023,12.938c5.412,-0.699 10.637,-3.085 16.105,-3.106c14.929,-0.041 25.025,16.6 38.611,23.408c11.589,5.821 26.089,3.744 35.943,-5.163c3.209,-2.9 5.971,-6.438 9.573,-8.68c3.621,-2.221 8.566,-2.777 11.608,0.309c3.06,3.085 3.004,8.33 4.441,12.65c3.639,10.963 15.956,14.337 26.444,16.106c15.041,2.55 32.677,4.175 43.239,-7.899c4.572,-5.245 7.446,-12.794 13.53,-15.592c4.61,-2.118 9.872,-0.905 14.706,0.535c11.477,3.394 23.01,7.858 34.86,7.179c11.85,-0.679 24.428,-8.207 27.339,-20.899c1.101,-4.854 0.84,-10.325 3.602,-14.295c1.624,-2.345 4.124,-3.785 6.662,-4.67c7.913,-2.735 16.479,-0.617 24.746,-1.275c19.501,-1.522 36.614,-20.611 37.753,-42.126c0.223,-4.114 -0.131,-8.413 -1.997,-11.972c-1.549,-2.941 -4.031,-5.162 -6.607,-7.075c-11.607,-8.66 -26.089,-12.486 -39.992,-10.553c-8.08,1.111 -16.982,3.909 -23.812,-0.966c-3.434,-2.448 -5.636,-6.439 -8.118,-9.997c-7.353,-10.593 -18.009,-18.348 -29.728,-21.66c-3.154,-0.884 -6.495,-1.522 -9.107,-3.682c-5.17,-4.257 -5.449,-12.485 -7.726,-19.129c-3.303,-9.585 -11.85,-16.682 -21.125,-17.505c-6.009,-0.534 -12.112,1.337 -18.065,0.288c-6.905,-1.213 -12.746,-6.191 -19.333,-8.783c-9.201,-3.6 -19.297,-2.365 -28.982,-1.069c-6.009,0.802 -12.037,1.604 -18.046,2.406c-10.525,1.399 -21.928,3.25 -29.374,11.56c-1.343,1.502 -2.538,3.188 -4.18,4.258c-2.183,1.419 -4.833,1.522 -7.353,1.892c-8.491,1.214 -16.534,5.822 -22.319,12.774c-2.352,2.839 -4.367,6.068 -7.129,8.413c-8.155,6.973 -20.939,4.875 -28.273,12.856c-4.609,4.998 -5.747,12.547 -8.173,19.15c-5.692,15.489 -18.532,25.403 -31.837,32.212c-11.944,6.047 -30.027,8.269 -39.283,19.088Z" style="fill:#4f3420;fill-rule:nonzero;"/></g><path d="M51.582,163.29c-4.221,4.479 -5.525,12.354 -1.064,16.592c6.194,5.903 17.279,0.67 24.554,5.148c3.689,2.265 5.542,6.52 8.116,10.02c5.593,7.636 15.442,11.908 24.845,10.793c4.976,-0.584 9.78,-2.574 14.807,-2.591c13.727,-0.034 23.009,13.847 35.501,19.526c10.655,4.856 23.987,3.123 33.046,-4.307c2.951,-2.419 5.491,-5.37 8.802,-7.241c3.329,-1.853 7.876,-2.316 10.673,0.258c2.814,2.574 2.762,6.949 4.083,10.552c3.346,9.145 14.671,11.959 24.314,13.435c13.829,2.128 30.044,3.483 39.755,-6.589c4.204,-4.375 6.846,-10.672 12.44,-13.006c4.238,-1.767 9.077,-0.755 13.52,0.446c10.553,2.832 21.157,6.555 32.052,5.989c10.895,-0.567 22.46,-6.846 25.137,-17.433c1.012,-4.049 0.772,-8.613 3.311,-11.925c1.493,-1.956 3.792,-3.157 6.126,-3.895c7.275,-2.282 15.15,-0.515 22.752,-1.064c17.93,-1.269 33.664,-17.192 34.711,-35.14c0.205,-3.431 -0.121,-7.017 -1.836,-9.986c-1.424,-2.453 -3.707,-4.307 -6.074,-5.902c-10.673,-7.224 -23.988,-10.415 -36.77,-8.802c-7.43,0.926 -15.614,3.26 -21.894,-0.807c-3.157,-2.042 -5.182,-5.37 -7.464,-8.339c-6.76,-8.836 -16.558,-15.305 -27.333,-18.067c-2.9,-0.738 -5.971,-1.27 -8.373,-3.072c-4.753,-3.551 -5.01,-10.415 -7.104,-15.957c-3.037,-7.995 -10.895,-13.915 -19.423,-14.601c-5.525,-0.446 -11.136,1.115 -16.609,0.24c-6.349,-1.012 -11.719,-5.165 -17.776,-7.327c-8.459,-3.002 -17.741,-1.973 -26.647,-0.892c-5.524,0.669 -11.067,1.338 -16.592,2.008c-9.677,1.166 -20.16,2.711 -27.007,9.642c-1.235,1.253 -2.333,2.66 -3.843,3.552c-2.007,1.184 -4.444,1.27 -6.76,1.579c-7.807,1.012 -15.202,4.856 -20.522,10.655c-2.161,2.368 -4.015,5.062 -6.554,7.018c-7.498,5.816 -19.251,4.066 -25.995,10.724c-4.238,4.169 -5.284,10.466 -7.515,15.974c-5.233,12.92 -17.038,21.19 -29.272,26.87c-10.981,5.044 -27.607,6.897 -36.118,15.922Z" style="fill:#371b08;fill-opacity:0.8;fill-rule:nonzero;"/><path d="M95.147,191.31c-0,-0 5.113,3.208 8.733,1.321c0.018,-0.017 0.018,-0.017 0.035,-0.017l0.12,-2.814c-0.189,-0 -0.343,-0.017 -0.481,-0.052c0,0 -5.525,-1.836 -8.407,1.562Z" style="fill:#f4e0b8;fill-rule:nonzero;stroke:#4f3420;stroke-width:0.96px;"/><path d="M104.035,189.8l-0.12,2.814c-0.017,-0 -0.017,0.017 -0.035,0.017c-0.343,0.292 -2.934,2.608 3.123,2.883c0,-0 1.407,-2.111 3.775,-0.292c-0,-0 -2.454,-4.393 -1.527,-6.52c-0,0.017 -3.552,1.132 -5.216,1.098Z" style="fill:#f4e0b8;fill-rule:nonzero;stroke:#4f3420;stroke-width:0.96px;"/><path d="M112.048,187.604c-0,-0 -0.79,0.686 1.046,2.024c0,0 15.065,-4.529 17.45,-5.233c0,0 2.78,-1.321 -2.093,-3.637c0.034,-0 -15.442,5.319 -16.403,6.846Z" style="fill:#f4e0b8;fill-rule:nonzero;stroke:#4f3420;stroke-width:0.96px;"/><path d="M112.82,192.03c-0,0 -1.133,2.231 3.346,4.204c-0,0 13.675,-7.275 18.874,-6.554c-0,-0 1.235,-1.03 -0.515,-3.535c0.017,-0.017 -20.641,4.221 -21.705,5.885Z" style="fill:#f4e0b8;fill-rule:nonzero;stroke:#4f3420;stroke-width:0.96px;"/><path d="M124.951,160.236c-0.584,-2.162 -1.613,-8.098 -5.422,-8.133c-0,0 5.713,7.67 0.926,8.648c0,0 -4.152,9.351 5.062,11.805c-0.635,-0.172 -1.338,-2.471 -1.424,-2.917c-0.309,-1.596 1.87,-2.711 1.887,-4.307c0,-1.561 -0.618,-3.534 -1.029,-5.096Z" style="fill:#f4e0b8;fill-rule:nonzero;stroke:#4f3420;stroke-width:0.96px;"/><path d="M119.82,139.904c-0.497,7.549 5.954,11.427 5.954,11.427l0.79,-0.412l3.328,-1.733c0.069,-0.24 0.189,-0.566 0.326,-0.995c1.115,-3.174 -10.398,-8.287 -10.398,-8.287Z" style="fill:#f4e0b8;fill-rule:nonzero;stroke:#4f3420;stroke-width:0.96px;"/><path d="M127.868,132.457c-2.66,8.459 6.64,12.131 6.64,12.131l4.324,-4.89c-4.873,-7.275 -10.964,-7.241 -10.964,-7.241Z" style="fill:#f4e0b8;fill-rule:nonzero;stroke:#4f3420;stroke-width:0.96px;"/><path d="M127.902,152.67c-0,-0 -1.613,6.382 -0.841,8.527c0,0 2.351,4.564 11.033,6.537c-0,0 -5.988,-6.708 -8.802,-11.581c-0.755,-1.356 -1.304,-2.591 -1.39,-3.483Z" style="fill:#f4e0b8;fill-rule:nonzero;stroke:#4f3420;stroke-width:0.96px;"/><path d="M129.892,149.186c-0.497,1.596 0.292,-0.154 0.292,-0.154l-0.292,0.154Z" style="fill:#f4e0b8;fill-rule:nonzero;stroke:#4f3420;stroke-width:0.96px;"/><path d="M132.912,149.238c-0.463,2.23 -0.892,5.165 -0.189,6.297c0,-0 0.017,0.24 0.223,0.669c0.567,1.27 2.574,4.204 9.763,7.361c0,-0 1.219,-4.461 -0.909,-6.709c0,0 -3.878,-9.917 -8.167,-10.484c-0.017,0 -0.361,1.253 -0.721,2.866Z" style="fill:#f4e0b8;fill-rule:nonzero;stroke:#4f3420;stroke-width:0.96px;"/><path d="M147.033,133.744c-6.108,-10.14 -12.405,-8.836 -12.405,-8.836c-0.807,10.758 8.356,13.108 8.356,13.108l4.049,-4.272Z" style="fill:#f4e0b8;fill-rule:nonzero;stroke:#4f3420;stroke-width:0.96px;"/><path d="M139.569,176.64c0,-0 -13.023,0.926 -7.086,4.495c0,-0 5.714,1.716 5.13,6.349c0,-0 7.481,-1.03 11.634,-13.83c-0,0 -2.402,-1.63 -4.187,-1.836c-0.017,0 -2.368,6.194 -5.491,4.822Z" style="fill:#f4e0b8;fill-rule:nonzero;stroke:#4f3420;stroke-width:0.96px;"/><path d="M141.766,113.291c-3.724,11.205 8.356,18.514 8.356,18.514l1.664,-0.892l3.312,-1.802c-0.018,-3.723 -0.875,-6.571 -2.111,-8.75c-3.74,-6.555 -11.136,-7.07 -11.221,-7.07Z" style="fill:#f4e0b8;fill-rule:nonzero;stroke:#4f3420;stroke-width:0.96px;"/><path d="M141.817,140.659c0,-0 -2.917,5.765 -1.012,10.278c-0,-0 2.265,5.181 9.677,6.485c0,0 1.338,-8.888 -0.326,-9.951c0,0.017 -4.101,-7.224 -8.339,-6.812Z" style="fill:#f4e0b8;fill-rule:nonzero;stroke:#4f3420;stroke-width:0.96px;"/><path d="M150.259,138.514c-0,0 -4.667,2.008 1.373,7.224c-0,-0 5.833,-6.778 10.26,-6.04c0,-0 -0.6,-0.669 -1.51,-1.596c-2.007,-2.042 -5.525,-5.37 -7.446,-5.748c0.017,0 -2.008,5.439 -2.677,6.16Z" style="fill:#f4e0b8;fill-rule:nonzero;stroke:#4f3420;stroke-width:0.96px;"/><path d="M156.402,99.994c-0,-0 -2.849,14.825 0.068,20.401c0.669,1.235 1.596,2.007 2.934,2.059c3.501,0.137 9.249,-2.093 13.933,-4.736c4.615,-2.608 8.167,-5.593 7.498,-7.052c-0.086,-0.154 -0.206,-0.291 -0.36,-0.412c-3.432,-2.367 -10.707,-10.655 -24.073,-10.26Z" style="fill:#f4e0b8;fill-rule:nonzero;stroke:#4f3420;stroke-width:0.96px;"/><path d="M159.868,175.799c-1.39,1.939 19.508,7.618 14.43,16.729c-0,0 11.393,-3.912 9.797,-5.782c-1.115,-1.321 -1.853,-2.849 -3.037,-4.17c-1.047,-1.132 -2.213,-2.179 -3.62,-3.037c-1.013,-0.635 -3.089,-0.686 -3.758,-1.613c-0.498,-0.634 -0.137,-1.698 -0.257,-2.453c-0.189,-1.081 -0.738,-2.042 -1.476,-2.934c-0.36,-0.429 -3.363,-3.123 -3.929,-2.763c-0.017,0.017 -5.662,3.466 -7.687,5.525c-0.189,0.172 -0.36,0.343 -0.463,0.498Z" style="fill:#f4e0b8;fill-rule:nonzero;stroke:#4f3420;stroke-width:0.96px;"/><path d="M165.067,155.175c-0,-0 -2.317,2.265 -1.871,4.409c0,0 2.951,4.547 16.06,14.602c0,0.017 -13.383,-17.175 -14.189,-19.011Z" style="fill:#f4e0b8;fill-rule:nonzero;stroke:#4f3420;stroke-width:0.96px;"/><path d="M165.547,203.2c-0,0 -7.121,-0.411 -10.432,5.096c0.394,-0.137 6.983,-2.419 8.15,-2.11c-0,-0 0.309,-2.128 2.282,-2.986Z" style="fill:#f4e0b8;fill-rule:nonzero;stroke:#4f3420;stroke-width:0.96px;"/><path d="M167.589,204.728c-2.196,1.355 -3.844,4.375 -3.758,6.64c3.157,-1.167 7.207,-4.873 6.829,-7.876c-0.034,-0.171 -2.934,1.167 -3.071,1.236Z" style="fill:#f4e0b8;fill-rule:nonzero;stroke:#4f3420;stroke-width:0.96px;"/><path d="M168.738,200.472c0,0 2.214,2.179 3.741,0.549c-0,0 7.172,-6.503 8.836,-7.481c0,0 -0.034,-2.299 -4.1,-0.6c0.017,0.017 -7.893,4.873 -8.477,7.532Z" style="fill:#f4e0b8;fill-rule:nonzero;stroke:#4f3420;stroke-width:0.96px;"/><path d="M182.774,84.14c-5.783,10.947 -0.91,25.154 0.892,25.497c0.086,0.017 0.257,0.034 0.48,0.051c0.618,0.035 1.682,0.069 3.055,0.017c4.512,-0.103 12.199,-0.84 17.347,-3.466c2.608,-1.321 4.564,-3.174 5.078,-5.662c0.189,-0.875 0.086,-1.75 -0.223,-2.591c-2.968,-8.081 -26.629,-13.846 -26.629,-13.846Z" style="fill:#f4e0b8;fill-rule:nonzero;stroke:#4f3420;stroke-width:0.96px;"/><path d="M172.273,204.933c-0.12,-0.085 -0.223,-0.171 -0.309,-0.24c1.236,0.789 -2.505,6.795 -2.762,7.927c2.196,-1.012 4.186,-2.779 5.422,-4.598c1.287,-1.905 -0.893,-2.025 -2.351,-3.089Z" style="fill:#f4e0b8;fill-rule:nonzero;stroke:#4f3420;stroke-width:0.96px;"/><path d="M187.715,190.778c0,-0 -15.494,11.29 -15.047,12.354c-0,-0 2.676,2.9 4.358,0.635c-0,-0 12.079,-10.141 13.486,-9.883c0,-0 1.664,-4.65 -2.797,-3.106Z" style="fill:#f4e0b8;fill-rule:nonzero;stroke:#4f3420;stroke-width:0.96px;"/><path d="M199.434,129.146c-0.206,-0.018 -0.411,-0.035 -0.634,-0.018c-0,0 0.034,18.703 18.239,32.052c-0.481,-0.755 -16.095,-25.703 -14.482,-30.37c0,-0 -0.446,-0.978 -1.922,-1.441c-0.343,-0.12 -0.754,-0.206 -1.201,-0.223Z" style="fill:#f4e0b8;fill-rule:nonzero;stroke:#4f3420;stroke-width:0.96px;"/><path d="M205.817,107.441c0,-0 -8.493,2.625 -5.336,20.401l0.223,-0c0.875,-0 4.238,0.223 6.023,2.59c-0,0 5.044,16.009 14.258,19.99c-0.36,-0.566 -12.045,-18.72 -12.062,-23.627c-0,-0 -0.034,-0.12 -0.069,-0.326c-0.412,-1.476 -2.042,-7.567 -3.38,-11.342c-0.017,-0.017 -0.343,-5.267 0.343,-7.686Z" style="fill:#f4e0b8;fill-rule:nonzero;stroke:#4f3420;stroke-width:0.96px;"/><path d="M219.509,74.634c-2.676,-0.995 -9.385,9.729 -5.713,22.168c0.137,0.498 0.309,1.013 0.497,1.51c0,0 2.231,0.086 5.577,0.223c2.848,0.103 6.503,0.223 10.243,0.361c7.584,0.24 15.546,0.446 17.931,0.291c0.326,-0.034 0.566,-0.051 0.669,-0.085c2.831,-0.944 3.946,-3.295 3.946,-5.731c-0.017,-1.785 -0.618,-3.603 -1.561,-4.942c-0.772,-1.081 -1.802,-1.921 -3.054,-2.402c-4.547,-1.681 -9.008,-3.483 -13.487,-5.302c-5.01,-2.076 -9.986,-4.169 -15.048,-6.091Z" style="fill:#f4e0b8;fill-rule:nonzero;stroke:#4f3420;stroke-width:0.96px;"/><path d="M219.767,101.041c-0,-0.086 -11.771,10.123 -7.67,24.845c1.613,5.748 5.628,12.216 13.744,19.011c-0,-0 -10.449,-15.237 -10.021,-17.604c0,-0 6.315,-1.339 4.822,-2.574c-0,-0 -0.292,-1.956 -0.738,-4.358c-0.6,-3.089 -1.424,-6.949 -2.162,-8.408c-0.017,-0.017 -0.36,-8.493 2.025,-10.912Z" style="fill:#f4e0b8;fill-rule:nonzero;stroke:#4f3420;stroke-width:0.96px;"/><path d="M221.963,112.622c0,0 -0.926,4.015 -0.257,7.67c0.326,1.802 1.046,3.535 2.453,4.65c0,-0 8.408,-0.652 8.597,-2.694c-0,0 0.532,-1.476 0.72,-3.397c0.275,-2.78 -0.206,-6.52 -4.101,-8.185c0,0 -1.304,-0.583 0.498,-8.939c0,-0 -4.032,3.157 -4.564,8.665c0.017,-0 -0.995,2.385 -3.346,2.23Z" style="fill:#f4e0b8;fill-rule:nonzero;stroke:#4f3420;stroke-width:0.96px;"/><path d="M238.349,79.576c-0.72,2.11 15.889,5.816 15.889,5.816c-0,0 1.115,-11.376 -1.733,-11.582c-2.866,-0.171 -13.435,3.655 -14.156,5.766Z" style="fill:#f4e0b8;fill-rule:nonzero;stroke:#4f3420;stroke-width:0.96px;"/><path d="M240.854,109.808c0,0 -4.941,-0.48 -4.65,2.076c0,0 -2.076,2.969 3.518,3.346c1.63,0.103 3.929,0 7.138,-0.463c-0,0 -2.094,-3.003 1.389,-14.155c-0.017,-0.018 -6.708,4.323 -7.395,9.196Z" style="fill:#f4e0b8;fill-rule:nonzero;stroke:#4f3420;stroke-width:0.96px;"/><path d="M284.23,144.108c0.24,0.343 4.65,6.314 13.023,5.61c0,0 1.356,-3.157 0.464,-4.718c-0,-0 -1.922,-2.214 -5.628,-5.405c-3.518,-3.02 -8.597,-6.915 -15.134,-10.604c-9.54,-5.387 -22.185,-10.363 -37.491,-11.616c-1.166,-0.103 -2.333,-0.171 -3.534,-0.223c-0,0 -0.36,0.721 -0.463,1.785c-0.189,1.835 0.394,4.649 4.907,6.194c-0,-0 17.793,0.188 25.909,9.951c-0,0 1.75,8.631 -18.943,1.356c0,-0 -9.523,-1.304 -9.643,5.164c0,0 -1.63,3.758 21.465,5.114c0,-0 6.229,-7.481 12.097,-6.366c-0,-0 7.704,1.647 7.103,7.652c-0.274,2.677 -4.289,4.376 -4.049,7.121c0.274,3.346 5.456,3.243 8.39,3.706c0.961,0.155 4.599,1.081 5.388,0.429c0.944,-0.772 -2.196,-6.623 -2.574,-7.807c-0.48,-1.544 -0.944,-3.105 -1.201,-4.701c-0.069,-0.498 0.172,-2.248 -0.086,-2.642Z" style="fill:#f4e0b8;fill-rule:nonzero;stroke:#4f3420;stroke-width:0.96px;"/><path d="M246.688,206.358c-0.978,0.6 -17.072,10.62 -16.866,13.606c1.578,-1.081 3.225,-2.162 4.838,-3.209c1.304,-0.84 2.608,-1.698 3.981,-2.47c1.064,-0.584 2.385,-0.944 3.294,-1.699c1.064,-0.841 1.184,-2.128 1.802,-3.191c0.686,-1.167 1.733,-2.214 2.951,-3.037Z" style="fill:#f4e0b8;fill-rule:nonzero;stroke:#4f3420;stroke-width:0.96px;"/><path d="M255.988,101.813c-0,-0 -6.332,9.78 -6.503,13.126c-0,-0 1.373,1.904 5.027,1.853c0,-0 -1.475,-6.057 1.476,-14.979Z" style="fill:#f4e0b8;fill-rule:nonzero;stroke:#4f3420;stroke-width:0.96px;"/><path d="M246.448,213.461c-0,0 -8.133,4.89 -3.981,6.743c0,0 5.628,-5.456 3.981,-6.743Z" style="fill:#f4e0b8;fill-rule:nonzero;stroke:#4f3420;stroke-width:0.96px;"/><path d="M262.697,84.243c-4.256,3.74 -5.663,6.88 -5.886,9.231c-0.291,3.191 1.613,4.976 1.613,4.976c28.174,8.39 23.919,11.77 27.831,11.822c0.12,-0 0.257,-0.018 0.377,-0.018c4.084,-0.326 12.251,-6.245 12.251,-6.245l2.179,-22.151c-10.432,-2.866 -23.077,3.637 -23.077,3.637l-15.288,-1.252Z" style="fill:#f4e0b8;fill-rule:nonzero;stroke:#4f3420;stroke-width:0.96px;"/><path d="M250.085,206.838c0,-0 -4.649,3.586 -3.86,4.547c-0,-0 3.552,1.87 3.998,0.669c-0.017,0 3.225,-6.177 -0.138,-5.216Z" style="fill:#f4e0b8;fill-rule:nonzero;stroke:#4f3420;stroke-width:0.96px;"/><path d="M250.72,186.265c-0.909,5.491 -1.595,11.033 -2.196,16.558c0.36,1.836 3.878,0.995 3.878,0.995c1.75,-6.932 5.164,-19.303 5.164,-19.303c-0.48,-1.87 -2.573,-3.346 -4.924,-2.642c-0.309,0.103 -0.549,0.223 -0.755,0.377c-1.304,0.892 -0.927,2.694 -1.167,4.015Z" style="fill:#f4e0b8;fill-rule:nonzero;stroke:#4f3420;stroke-width:0.96px;"/><path d="M264.859,104.163c-0.978,0.978 -10.93,11.256 -5.216,13.864l6.537,2.574c-0.017,-0 -2.9,-14.499 -1.321,-16.438Z" style="fill:#f4e0b8;fill-rule:nonzero;stroke:#4f3420;stroke-width:0.96px;"/><path d="M252.796,214.491c-2.299,0.326 -3.397,5.164 -3.397,5.164c5.868,-2.025 3.397,-5.164 3.397,-5.164Z" style="fill:#f4e0b8;fill-rule:nonzero;stroke:#4f3420;stroke-width:0.96px;"/><path d="M255.525,206.083c-5.079,7.91 -0.035,8.03 -0.035,8.03c0.961,-0.137 3.054,-7.052 3.054,-7.052c-0.892,-1.253 -3.019,-0.978 -3.019,-0.978Z" style="fill:#f4e0b8;fill-rule:nonzero;stroke:#4f3420;stroke-width:0.96px;"/><path d="M255.868,203.2c0.12,1.854 3.706,1.356 3.706,1.356c2.745,-6.709 7.875,-18.668 7.875,-18.668c-0.188,-1.905 -2.076,-3.586 -4.546,-3.089c-0.309,0.052 -0.567,0.155 -0.79,0.292c-1.407,0.755 -1.304,2.608 -1.716,3.895c-1.681,5.353 -3.157,10.775 -4.529,16.214Z" style="fill:#f4e0b8;fill-rule:nonzero;stroke:#4f3420;stroke-width:0.96px;"/><path d="M278.002,109.826c-1.51,0.634 -10.69,4.872 -7.944,11.015l2.968,1.905c-0,0.017 1.098,-10.964 4.976,-12.92Z" style="fill:#f4e0b8;fill-rule:nonzero;stroke:#4f3420;stroke-width:0.96px;"/><path d="M287.284,112.931c0,0 -12.697,6.949 -12.045,12.182l3.243,2.574l0.052,0.035l8.75,-14.791Z" style="fill:#f4e0b8;fill-rule:nonzero;stroke:#4f3420;stroke-width:0.96px;"/><path d="M278.002,109.826c0.051,-0.018 0.12,-0.052 0.171,-0.086c-0.034,0.017 -0.103,0.051 -0.171,0.086Z" style="fill:#f4e0b8;fill-rule:nonzero;stroke:#4f3420;stroke-width:0.96px;"/><path d="M287.284,120.944c-2.402,3.294 -5.559,8.699 -5.559,8.699c0,0 3.415,2.625 4.221,2.351c0,-0 4.564,-6.589 7.567,-7.841c-0,-0 0.892,-6.812 3.449,-7.945c-2.059,0.481 -7.704,2.059 -9.678,4.736Z" style="fill:#f4e0b8;fill-rule:nonzero;stroke:#4f3420;stroke-width:0.96px;"/><path d="M280.198,160.768c-0.858,1.013 4.633,3.003 5.456,3.363c5.714,2.522 11.479,4.959 17.485,7.001c2.848,0.978 6.142,-1.51 7,-3.603c2.008,-4.805 -5.439,-6.109 -9.488,-5.302c-0.944,-1.356 -3.14,-2.368 -4.685,-3.209c-1.372,-0.755 -2.608,-1.887 -4.323,-1.167c-1.15,0.464 -2.111,1.665 -2.78,2.523c-1.579,1.956 -6.126,-0.464 -8.03,0.085c-0.326,0.086 -0.532,0.189 -0.635,0.309Z" style="fill:#f4e0b8;fill-rule:nonzero;stroke:#4f3420;stroke-width:0.96px;"/><path d="M289.412,133.847l4.461,4.564l0.052,0.052l3.088,-2.78l4.067,-3.655c-0,0 3.397,-7 6.091,-8.665c-0,0 -16.695,-0.257 -17.759,10.484Z" style="fill:#f4e0b8;fill-rule:nonzero;stroke:#4f3420;stroke-width:0.96px;"/><path d="M297.699,116.02c-0.257,-0 -0.514,0.051 -0.755,0.171c0.481,-0.103 0.755,-0.171 0.755,-0.171Z" style="fill:#f4e0b8;fill-rule:nonzero;stroke:#4f3420;stroke-width:0.96px;"/><path d="M299.364,137.467c-0.618,0.498 -0.995,0.961 -1.013,1.287c0,0 1.322,2.9 2.849,6.023c1.733,3.552 3.757,7.395 4.409,7.669c0,0 1.013,-7.618 -0.858,-9.848c0,-0 12.389,-11.599 8.048,-12.577c-0.018,0.017 -10.141,4.684 -13.435,7.446Z" style="fill:#f4e0b8;fill-rule:nonzero;stroke:#4f3420;stroke-width:0.96px;"/><path d="M321.807,136.026c-0,0 -12.697,4.118 -12.972,8.631c0,-0 3.157,9.317 6.023,12.096l1.149,-9.128c0,0.017 9.008,-10.312 5.8,-11.599Z" style="fill:#f4e0b8;fill-rule:nonzero;stroke:#4f3420;stroke-width:0.96px;"/><path d="M309.59,173.328c-3.311,3.655 2.402,5.679 5.371,7.395c3.225,1.888 6.503,3.724 9.797,5.542c3.174,-0.051 3.552,-2.402 3.569,-2.419c0.189,-1.047 -5.096,-3.775 -5.971,-4.29c-1.218,-0.72 -12.2,-6.863 -12.766,-6.228Z" style="fill:#f4e0b8;fill-rule:nonzero;stroke:#4f3420;stroke-width:0.96px;"/><path d="M324.277,106.136c0,0 -19.92,-4.581 -24.45,6.778c0,-0 16.506,15.391 19.921,15.185c0.017,-0 4.255,-0.566 4.529,-21.963Z" style="fill:#f4e0b8;fill-rule:nonzero;stroke:#4f3420;stroke-width:0.96px;"/><path d="M314.892,168.043c-2.093,-1.355 -3.723,3.02 -3.723,3.02c0.171,0.824 18.17,10.467 18.17,10.467c3.071,1.063 2.437,-2.454 2.437,-2.454c-0.378,-0.395 -16.884,-11.033 -16.884,-11.033Z" style="fill:#f4e0b8;fill-rule:nonzero;stroke:#4f3420;stroke-width:0.96px;"/><path d="M318.392,149.856c0,-0 4.084,8.922 7.481,11.633c1.802,1.441 1.081,-1.476 0.017,-4.547c-0.926,-2.677 -2.11,-5.456 -2.11,-5.456c-0,-0 1.784,-0.738 3.603,-3.398c1.081,-1.613 2.196,-3.912 2.986,-7.189c-0,0.034 -11.033,4.684 -11.977,8.957Z" style="fill:#f4e0b8;fill-rule:nonzero;stroke:#4f3420;stroke-width:0.96px;"/><path d="M330.832,148.397c-1.459,2.042 -2.299,4.787 -1.012,8.288c0.737,1.956 2.144,4.152 4.495,6.588c0,0 -1.99,-6.417 -0.429,-8.905c0,0 5.611,-5.302 2.316,-10.329c0.018,-0 -3.311,1.424 -5.37,4.358Z" style="fill:#f4e0b8;fill-rule:nonzero;stroke:#4f3420;stroke-width:0.96px;"/><path d="M338.999,120.978c0,0 -8.733,1.15 -15.923,13.195c0,-0 17.639,9.197 20.556,8.751c0.017,-0.017 2.385,-16.078 -4.633,-21.946Z" style="fill:#f4e0b8;fill-rule:nonzero;stroke:#4f3420;stroke-width:0.96px;"/><path d="M326.92,188.976c-0.498,1.253 -0.326,5.508 1.561,6.091c0,0 2.728,-0.566 3.192,-2.779c-0,-0 4.478,1.424 5.147,-2.196c0,-0 6.126,-0.206 2.917,-4.136c-0.017,-0.017 -1.287,-0.274 -1.476,-0.394c-1.492,-0.944 -0.789,-2.574 -1.578,-3.672c-1.596,0.789 -2.745,2.162 -4.135,3.174c-1.527,1.098 -3.981,1.733 -5.131,3.14c-0.205,0.223 -0.343,0.481 -0.497,0.772Z" style="fill:#f4e0b8;fill-rule:nonzero;stroke:#4f3420;stroke-width:0.96px;"/><path d="M326.988,196.44c0,0 -1.012,2.728 0.224,4.701c1.252,1.974 1.784,-1.063 1.732,-4.015l-1.956,-0.686Z" style="fill:#f4e0b8;fill-rule:nonzero;stroke:#4f3420;stroke-width:0.96px;"/><path d="M335.156,194.467c-0,-0 -3.38,-0.618 -2.814,0.738c-0,-0 1.493,4.632 3.826,3.792c0,-0 1.527,-2.351 -1.012,-4.53Z" style="fill:#f4e0b8;fill-rule:nonzero;stroke:#4f3420;stroke-width:0.96px;"/><path d="M340.852,190.881c0,-0 -3.483,0.926 -2.573,1.699c-0,-0 4.032,3.826 5.662,2.264c-0,0.018 0.755,-2.573 -3.089,-3.963Z" style="fill:#f4e0b8;fill-rule:nonzero;stroke:#4f3420;stroke-width:0.96px;"/><path d="M343.254,147.007c0,0 -10.277,6.212 -0.326,18.977c-0.068,-0.497 -1.098,-6.451 0.944,-9.42c2.111,-3.105 1.905,-11.942 -0.618,-9.557Z" style="fill:#f4e0b8;fill-rule:nonzero;stroke:#4f3420;stroke-width:0.96px;"/><path d="M346.36,144.399c-0.721,2.111 12.697,3.672 15.031,3.827c-0,-0 0.051,-11.033 -4.685,-10.69c-4.735,0.343 -9.608,4.736 -10.346,6.863Z" style="fill:#f4e0b8;fill-rule:nonzero;stroke:#4f3420;stroke-width:0.96px;"/><path d="M359.503,154.214c0,-0 -6.983,7.241 4.324,16.866c-0.171,-0.394 -3.981,-8.956 -0.223,-13.555c0,0 1.03,-7.669 -4.101,-3.311Z" style="fill:#f4e0b8;fill-rule:nonzero;stroke:#4f3420;stroke-width:0.96px;"/><path d="M367.156,137.467l0.257,0.755l5.611,16.609l4.272,-0.995l-10.14,-16.369Z" style="fill:#f4e0b8;fill-rule:nonzero;stroke:#4f3420;stroke-width:0.96px;"/><path d="M368.666,156.702c-0,-0 -6.829,5.593 4.701,13.297c0,0 -4.272,-6.983 -0.515,-10.621c-0.017,0 0.841,-6.005 -4.186,-2.676Z" style="fill:#f4e0b8;fill-rule:nonzero;stroke:#4f3420;stroke-width:0.96px;"/><path d="M387.248,137.845l-7.876,18.737l5.989,0.394l1.887,-19.131Z" style="fill:#f4e0b8;fill-rule:nonzero;stroke:#4f3420;stroke-width:0.96px;"/><path d="M392.807,142.22l-1.492,15.168l4.341,-4.255l-2.849,-10.913Z" style="fill:#f4e0b8;fill-rule:nonzero;stroke:#4f3420;stroke-width:0.96px;"/><path d="M409.279,144.742l-16.352,16.198l3.398,1.321l12.817,-16.009l0.137,-1.51Z" style="fill:#f4e0b8;fill-rule:nonzero;stroke:#4f3420;stroke-width:0.96px;"/><path d="M115.05,165.95c0.446,-2.917 -3.5,-8.545 -3.5,-8.545c-1.973,-5.113 -11.067,-3.775 -11.067,-3.775c-1.802,1.322 -7.464,2.626 -7.464,2.626l-5.576,0.755l-4.65,3.671c-14.996,-1.921 -25.12,9.3 -25.12,9.3c-0.274,1.853 3.398,1.664 3.398,1.664l4.752,3.329c6.109,3.38 23.799,2.454 23.799,2.454l21.413,-1.39c14.207,-0.429 5.783,-5.062 5.783,-5.062c-1.922,-0.943 -1.768,-5.027 -1.768,-5.027Zm-29.066,-3.809c0,-0 5.971,-6.366 12.371,-0.429c0,-0 -3.894,6.211 -12.371,0.429Z" style="fill:#f4e0b8;fill-rule:nonzero;stroke:#4f3420;stroke-width:0.96px;"/><path d="M153.279,157.628c-0,0 -9.729,3.243 -6.04,13.538c0,0 8.922,2.865 13.315,0.086c-0,-0 -0.463,-20.624 3.603,-21.482c0,-0 7.704,-2.557 5.714,-3.826c-0,-0 3.998,-1.939 -10.604,-4.084c0,-0 -3.106,4.255 -4.839,4.084c0,-0.018 2.643,10.964 -1.149,11.684Z" style="fill:#f4e0b8;fill-rule:nonzero;stroke:#4f3420;stroke-width:0.96px;"/><path d="M163.694,125.354c-0,-0 -4.118,8.15 -3.655,9.265c0,0 1.441,1.596 3.415,3.397c3.14,2.883 7.687,6.349 9.883,4.788c-0,-0 -1.853,7.292 21.327,30.696c-0.978,-1.442 -16.918,-24.502 -17.381,-32.292c-0.017,-0.309 -0.017,-0.601 0.017,-0.858c0,-0 -1.99,-2.934 -4.701,-6.28c-2.694,-3.363 -6.074,-7.103 -8.905,-8.716Z" style="fill:#f4e0b8;fill-rule:nonzero;stroke:#4f3420;stroke-width:0.96px;"/><path d="M171.381,148.929c-0,0 -4.479,1.664 -3.947,4.307c0,-0 8.322,12.851 19.801,21.499c-0.498,-0.686 -16.386,-22.512 -15.854,-25.806Z" style="fill:#f4e0b8;fill-rule:nonzero;stroke:#4f3420;stroke-width:0.96px;"/><path d="M175.224,119.743c0,-0 -3.826,7 -3.637,9.111c-0,-0 1.595,2.608 3.5,5.096c1.819,2.351 3.912,4.598 5.182,4.341c-0,-0 0.017,8.202 22.494,32.24c-0.583,-0.858 -19.44,-28.345 -18.411,-35.449c0,0 2.728,-1.836 0.567,-6.005c-1.253,-2.351 -4.033,-5.439 -9.695,-9.334Z" style="fill:#f4e0b8;fill-rule:nonzero;stroke:#4f3420;stroke-width:0.96px;"/><path d="M187.321,112.279c-0,0 -3.518,10.981 -0.069,16.575c0.704,1.132 1.699,2.059 3.089,2.625c-0,0 -3.93,17.845 19.251,35.312c-6.194,-8.322 -11.565,-17.862 -14.035,-27.436c-0.893,-3.466 -1.064,-6.949 -0.996,-10.484c-0.017,0.978 1.836,-0.292 2.3,-1.047c0.051,-0.085 0.085,-0.154 0.103,-0.223c0.188,-0.823 -0.12,-1.715 -0.309,-2.505c-0.635,-2.814 -1.75,-5.576 -2.917,-8.27c-0,-0.034 -3.432,-4.959 -6.417,-4.547Z" style="fill:#f4e0b8;fill-rule:nonzero;stroke:#4f3420;stroke-width:0.96px;"/><path d="M252.814,177.944c-0.738,0.789 5.25,2.522 5.833,2.608c2.917,0.377 5.92,-0 8.785,-0.447c1.064,-0.171 0.824,-10.14 0.978,-11.427c0.498,-4.444 1.081,-8.974 2.54,-13.28c0.515,-1.579 1.184,-2.952 2.333,-4.273c0.017,-0.017 5.765,-6.691 -4.392,-9.883c-0,0 -8.768,3.809 -6.812,6.812c0.034,-0 4.307,15.803 -9.265,29.89Z" style="fill:#f4e0b8;fill-rule:nonzero;stroke:#4f3420;stroke-width:0.96px;"/></g><g><path d="M46.426,219.76c0.265,1.894 1.762,3.188 4.112,3.536c2.994,0.444 6.954,-0.792 8.394,-3.98c0.663,-1.449 -0.322,-2.725 -0.966,-3.343c-2.161,-2.106 -6.632,-3.4 -9.399,-1.951c-1.8,0.927 -2.539,2.917 -2.141,5.738Zm2.425,-5.062c2.255,-1.546 6.746,0.889 7.352,1.449c0.588,0.58 -5.874,6.55 -8.47,3.285c0,0.019 -1.136,-3.188 1.118,-4.734Z" style="fill:#bc945b;fill-rule:nonzero;"/><path d="M50.481,223.76c1.819,0.27 3.979,-0.058 5.779,-1.024c1.327,-0.715 2.464,-1.778 3.127,-3.227c0.587,-1.275 0.189,-2.647 -1.08,-3.903c-2.274,-2.222 -7.011,-3.574 -9.929,-2.029c-1.403,0.735 -2.937,2.416 -2.407,6.241c0.284,2.087 1.971,3.555 4.51,3.942Zm-1.895,-9.758c2.767,-1.449 7.238,-0.154 9.399,1.952c0.644,0.637 1.629,1.913 0.966,3.342c-1.459,3.188 -5.419,4.425 -8.394,3.98c-2.35,-0.347 -3.847,-1.642 -4.112,-3.535c-0.417,-2.802 0.322,-4.792 2.141,-5.739Z" style="fill:#73360b;fill-rule:nonzero;"/><path d="M56.203,216.166c-0.587,-0.579 -5.078,-2.994 -7.352,-1.449c-2.254,1.546 -1.118,4.734 -1.118,4.734c2.596,3.246 9.058,-2.724 8.47,-3.285Z" style="fill:#f4e0b8;fill-rule:nonzero;"/></g><g><path d="M234.1,275.223c0.265,1.893 1.762,3.188 4.112,3.536c2.993,0.444 6.954,-0.792 8.394,-3.98c0.663,-1.449 -0.322,-2.725 -0.967,-3.343c-2.16,-2.106 -6.632,-3.4 -9.398,-1.951c-1.8,0.927 -2.539,2.917 -2.141,5.738Zm2.425,-5.062c2.255,-1.546 6.746,0.889 7.352,1.449c0.588,0.58 -5.874,6.55 -8.47,3.285c0,0.019 -1.137,-3.188 1.118,-4.734Z" style="fill:#bc945b;fill-rule:nonzero;"/><path d="M238.155,279.222c1.819,0.271 3.979,-0.058 5.779,-1.024c1.326,-0.714 2.463,-1.777 3.127,-3.226c0.587,-1.275 0.189,-2.647 -1.081,-3.903c-2.273,-2.222 -7.01,-3.574 -9.929,-2.029c-1.402,0.734 -2.937,2.415 -2.406,6.241c0.284,2.087 1.971,3.555 4.51,3.941Zm-1.895,-9.757c2.766,-1.449 7.238,-0.154 9.398,1.952c0.645,0.637 1.63,1.913 0.967,3.342c-1.459,3.188 -5.42,4.425 -8.394,3.98c-2.35,-0.347 -3.847,-1.642 -4.112,-3.535c-0.417,-2.802 0.322,-4.792 2.141,-5.739Z" style="fill:#73360b;fill-rule:nonzero;"/><path d="M243.877,271.629c-0.587,-0.579 -5.078,-2.994 -7.352,-1.449c-2.255,1.546 -1.118,4.734 -1.118,4.734c2.596,3.246 9.058,-2.724 8.47,-3.285Z" style="fill:#f4e0b8;fill-rule:nonzero;"/></g><g><path d="M426.99,207.363c0.196,1.398 1.301,2.354 3.037,2.611c2.211,0.328 5.135,-0.585 6.199,-2.939c0.49,-1.071 -0.238,-2.012 -0.714,-2.469c-1.595,-1.555 -4.898,-2.511 -6.941,-1.441c-1.329,0.685 -1.875,2.154 -1.581,4.238Zm1.791,-3.739c1.665,-1.141 4.982,0.657 5.43,1.07c0.434,0.429 -4.338,4.838 -6.256,2.426c0,0.014 -0.839,-2.354 0.826,-3.496Z" style="fill:#bc945b;fill-rule:nonzero;"/><path d="M429.985,210.316c1.343,0.2 2.938,-0.042 4.268,-0.756c0.979,-0.528 1.819,-1.313 2.309,-2.383c0.433,-0.942 0.14,-1.955 -0.798,-2.882c-1.679,-1.641 -5.178,-2.64 -7.333,-1.498c-1.035,0.542 -2.169,1.783 -1.777,4.609c0.21,1.541 1.455,2.625 3.331,2.91Zm-1.4,-7.205c2.043,-1.071 5.346,-0.115 6.941,1.441c0.476,0.471 1.204,1.412 0.714,2.468c-1.078,2.355 -4.002,3.268 -6.199,2.94c-1.736,-0.257 -2.841,-1.213 -3.037,-2.612c-0.308,-2.069 0.238,-3.538 1.581,-4.237Z" style="fill:#73360b;fill-rule:nonzero;"/><path d="M434.211,204.709c-0.434,-0.428 -3.751,-2.212 -5.43,-1.07c-1.665,1.141 -0.826,3.495 -0.826,3.495c1.918,2.398 6.69,-2.011 6.256,-2.425Z" style="fill:#f4e0b8;fill-rule:nonzero;"/></g><g><path d="M419.93,221.049c0.133,0.951 0.885,1.602 2.066,1.776c1.504,0.224 3.493,-0.398 4.217,-1.999c0.333,-0.728 -0.162,-1.369 -0.486,-1.679c-1.085,-1.058 -3.331,-1.709 -4.721,-0.981c-0.905,0.466 -1.276,1.466 -1.076,2.883Zm1.219,-2.543c1.132,-0.776 3.388,0.447 3.693,0.728c0.295,0.291 -2.951,3.29 -4.255,1.65c-0,0.01 -0.571,-1.601 0.562,-2.378Z" style="fill:#bc945b;fill-rule:nonzero;"/><path d="M421.967,223.058c0.914,0.136 1.999,-0.029 2.904,-0.514c0.666,-0.359 1.237,-0.893 1.57,-1.621c0.295,-0.641 0.095,-1.33 -0.542,-1.961c-1.143,-1.116 -3.522,-1.795 -4.988,-1.019c-0.705,0.369 -1.476,1.213 -1.209,3.135c0.142,1.049 0.99,1.786 2.265,1.98Zm-0.952,-4.901c1.39,-0.728 3.637,-0.078 4.722,0.98c0.323,0.32 0.818,0.961 0.485,1.679c-0.733,1.602 -2.722,2.223 -4.217,2c-1.18,-0.175 -1.932,-0.825 -2.065,-1.777c-0.21,-1.407 0.161,-2.407 1.075,-2.882Z" style="fill:#73360b;fill-rule:nonzero;"/><path d="M424.842,219.244c-0.295,-0.291 -2.551,-1.505 -3.693,-0.728c-1.133,0.776 -0.562,2.378 -0.562,2.378c1.304,1.63 4.55,-1.369 4.255,-1.65Z" style="fill:#f4e0b8;fill-rule:nonzero;"/></g><g><path d="M412.034,208.817c0.134,0.952 0.886,1.602 2.066,1.777c1.504,0.223 3.493,-0.398 4.217,-2c0.333,-0.728 -0.162,-1.369 -0.486,-1.679c-1.085,-1.058 -3.331,-1.708 -4.721,-0.98c-0.904,0.465 -1.276,1.465 -1.076,2.882Zm1.219,-2.543c1.132,-0.776 3.389,0.447 3.693,0.728c0.295,0.291 -2.951,3.291 -4.255,1.65c0,0.01 -0.571,-1.601 0.562,-2.378Z" style="fill:#bc945b;fill-rule:nonzero;"/><path d="M414.071,210.827c0.914,0.135 1.999,-0.03 2.904,-0.515c0.666,-0.359 1.237,-0.893 1.57,-1.621c0.295,-0.64 0.096,-1.33 -0.542,-1.961c-1.143,-1.116 -3.522,-1.795 -4.988,-1.019c-0.705,0.369 -1.476,1.214 -1.209,3.135c0.143,1.049 0.99,1.786 2.265,1.981Zm-0.952,-4.902c1.39,-0.728 3.637,-0.078 4.722,0.98c0.324,0.32 0.819,0.961 0.485,1.679c-0.733,1.602 -2.722,2.223 -4.217,2c-1.18,-0.175 -1.932,-0.825 -2.065,-1.776c-0.21,-1.408 0.162,-2.408 1.075,-2.883Z" style="fill:#73360b;fill-rule:nonzero;"/><path d="M416.946,207.012c-0.295,-0.291 -2.551,-1.505 -3.693,-0.728c-1.133,0.776 -0.562,2.378 -0.562,2.378c1.304,1.631 4.55,-1.369 4.255,-1.65Z" style="fill:#f4e0b8;fill-rule:nonzero;"/></g><g><path d="M154.546,252.699c0.084,0.597 0.556,1.005 1.296,1.114c0.944,0.14 2.192,-0.249 2.646,-1.254c0.209,-0.457 -0.101,-0.859 -0.304,-1.054c-0.681,-0.664 -2.091,-1.072 -2.963,-0.615c-0.567,0.292 -0.8,0.92 -0.675,1.809Zm0.765,-1.596c0.71,-0.487 2.126,0.28 2.317,0.457c0.185,0.183 -1.851,2.064 -2.67,1.035c0,0.006 -0.358,-1.005 0.353,-1.492Z" style="fill:#bc945b;fill-rule:nonzero;"/><path d="M155.824,253.959c0.574,0.086 1.255,-0.018 1.822,-0.322c0.418,-0.226 0.777,-0.561 0.986,-1.017c0.185,-0.402 0.059,-0.835 -0.341,-1.231c-0.717,-0.7 -2.21,-1.126 -3.13,-0.639c-0.442,0.231 -0.925,0.761 -0.758,1.967c0.089,0.658 0.621,1.121 1.421,1.242Zm-0.597,-3.075c0.872,-0.457 2.282,-0.049 2.963,0.615c0.203,0.201 0.513,0.603 0.304,1.054c-0.46,1.004 -1.708,1.394 -2.646,1.254c-0.74,-0.109 -1.212,-0.517 -1.296,-1.114c-0.131,-0.883 0.102,-1.511 0.675,-1.809Z" style="fill:#73360b;fill-rule:nonzero;"/><path d="M157.628,251.566c-0.185,-0.183 -1.601,-0.944 -2.317,-0.457c-0.711,0.487 -0.353,1.492 -0.353,1.492c0.819,1.023 2.855,-0.858 2.67,-1.035Z" style="fill:#f4e0b8;fill-rule:nonzero;"/></g><g><path d="M140.704,268.639c0.083,0.597 0.555,1.005 1.296,1.114c0.944,0.14 2.192,-0.249 2.646,-1.254c0.209,-0.457 -0.102,-0.859 -0.305,-1.054c-0.681,-0.664 -2.09,-1.072 -2.962,-0.615c-0.568,0.292 -0.801,0.92 -0.675,1.809Zm0.764,-1.596c0.711,-0.487 2.127,0.28 2.318,0.457c0.185,0.183 -1.852,2.065 -2.67,1.035c-0,0.006 -0.358,-1.005 0.352,-1.492Z" style="fill:#bc945b;fill-rule:nonzero;"/><path d="M141.982,269.9c0.573,0.085 1.254,-0.019 1.822,-0.323c0.418,-0.226 0.776,-0.561 0.985,-1.017c0.185,-0.402 0.06,-0.835 -0.34,-1.231c-0.717,-0.7 -2.21,-1.126 -3.13,-0.639c-0.442,0.231 -0.926,0.761 -0.759,1.967c0.09,0.658 0.622,1.121 1.422,1.243Zm-0.597,-3.076c0.872,-0.457 2.281,-0.049 2.962,0.615c0.203,0.201 0.514,0.603 0.305,1.054c-0.46,1.005 -1.708,1.394 -2.646,1.254c-0.741,-0.109 -1.213,-0.517 -1.296,-1.114c-0.132,-0.883 0.101,-1.511 0.675,-1.809Z" style="fill:#73360b;fill-rule:nonzero;"/><path d="M143.786,267.506c-0.185,-0.183 -1.601,-0.944 -2.318,-0.457c-0.71,0.488 -0.352,1.492 -0.352,1.492c0.818,1.024 2.855,-0.858 2.67,-1.035Z" style="fill:#f4e0b8;fill-rule:nonzero;"/></g><g><path d="M136.745,251.7c0.084,0.597 0.556,1.005 1.297,1.115c0.943,0.14 2.192,-0.25 2.645,-1.255c0.21,-0.457 -0.101,-0.859 -0.304,-1.054c-0.681,-0.663 -2.091,-1.071 -2.963,-0.615c-0.567,0.293 -0.8,0.92 -0.675,1.809Zm0.765,-1.596c0.711,-0.487 2.126,0.281 2.317,0.457c0.186,0.183 -1.851,2.065 -2.669,1.036c-0,0.006 -0.359,-1.005 0.352,-1.493Z" style="fill:#bc945b;fill-rule:nonzero;"/><path d="M138.024,252.961c0.573,0.085 1.254,-0.019 1.821,-0.323c0.418,-0.225 0.777,-0.56 0.986,-1.017c0.185,-0.402 0.06,-0.834 -0.341,-1.23c-0.716,-0.701 -2.21,-1.127 -3.129,-0.64c-0.442,0.232 -0.926,0.762 -0.759,1.967c0.09,0.658 0.621,1.121 1.422,1.243Zm-0.598,-3.076c0.872,-0.457 2.282,-0.049 2.963,0.615c0.203,0.201 0.513,0.603 0.304,1.054c-0.459,1.005 -1.708,1.395 -2.646,1.254c-0.74,-0.109 -1.212,-0.517 -1.296,-1.114c-0.131,-0.883 0.102,-1.51 0.675,-1.809Z" style="fill:#73360b;fill-rule:nonzero;"/><path d="M139.827,250.567c-0.185,-0.182 -1.6,-0.944 -2.317,-0.456c-0.711,0.487 -0.352,1.492 -0.352,1.492c0.818,1.023 2.855,-0.859 2.669,-1.036Z" style="fill:#f4e0b8;fill-rule:nonzero;"/></g><g><path d="M100.42,232.813c0.084,0.597 0.555,1.005 1.296,1.115c0.944,0.14 2.192,-0.25 2.646,-1.255c0.209,-0.456 -0.102,-0.858 -0.305,-1.053c-0.681,-0.664 -2.09,-1.072 -2.962,-0.615c-0.568,0.292 -0.801,0.919 -0.675,1.808Zm0.764,-1.595c0.711,-0.487 2.127,0.28 2.318,0.457c0.185,0.182 -1.852,2.064 -2.67,1.035c0,0.006 -0.358,-1.005 0.352,-1.492Z" style="fill:#bc945b;fill-rule:nonzero;"/><path d="M101.698,234.074c0.573,0.085 1.254,-0.018 1.822,-0.323c0.418,-0.225 0.776,-0.56 0.985,-1.017c0.185,-0.402 0.06,-0.834 -0.34,-1.23c-0.717,-0.7 -2.21,-1.127 -3.13,-0.639c-0.442,0.231 -0.926,0.761 -0.758,1.967c0.089,0.657 0.621,1.12 1.421,1.242Zm-0.597,-3.076c0.872,-0.456 2.281,-0.048 2.962,0.616c0.203,0.201 0.514,0.603 0.305,1.053c-0.46,1.005 -1.708,1.395 -2.646,1.255c-0.741,-0.11 -1.213,-0.518 -1.296,-1.115c-0.132,-0.883 0.101,-1.51 0.675,-1.809Z" style="fill:#73360b;fill-rule:nonzero;"/><path d="M103.502,231.681c-0.185,-0.183 -1.601,-0.944 -2.318,-0.457c-0.71,0.487 -0.352,1.492 -0.352,1.492c0.818,1.023 2.855,-0.859 2.67,-1.035Z" style="fill:#f4e0b8;fill-rule:nonzero;"/></g></g></svg>