<?xml version="1.0" encoding="UTF-8" standalone="no"?>
<!DOCTYPE svg PUBLIC "-//W3C//DTD SVG 1.1//EN" "http://www.w3.org/Graphics/SVG/1.1/DTD/svg11.dtd">
<svg width="100%" height="100%" viewBox="0 0 479 354" version="1.1" xmlns="http://www.w3.org/2000/svg" xmlns:xlink="http://www.w3.org/1999/xlink" xml:space="preserve" xmlns:serif="http://www.serif.com/" style="fill-rule:evenodd;clip-rule:evenodd;stroke-linejoin:round;stroke-miterlimit:2;">
    <g transform="matrix(1.94452,0,0,1.94452,-66.6851,-372.517)">
        <g transform="matrix(0.815059,0,0,0.815059,-23.6975,11.7389)">
            <circle cx="217.35" cy="282.31" r="54.96" style="fill:rgb(55,27,8);"/>
        </g>
        <g transform="matrix(1,0,0,1,-63.8945,-43.585)">
            <path d="M239.72,314.17C241.47,311.22 241.53,309.08 243.59,306.34C245.15,304.27 242.67,305.21 244.35,301.59C245.19,299.79 246.89,295.9 248.01,293.97C248.76,292.67 249.69,293.47 250.45,292.41C251.15,291.43 250.08,290.51 250.54,289.4C251.01,288.26 253.45,285.46 252.84,284.99C249.96,282.75 248.51,281.17 244.01,275.74C242.04,273.36 242.08,270.35 241.67,270.04C240.74,269.34 237.65,268.95 238.16,267.52C238.37,266.94 235.94,264.71 235.24,263.16C234.56,261.67 233.78,260.29 232.63,259.12C230.43,256.89 227.99,254.67 225.31,253.02C224.25,252.36 223.07,251.88 221.8,252C221.22,252.06 220.67,252.22 220.17,252.52C219.53,252.9 219.05,254.64 218.29,254.67C217.15,254.72 216.61,254.75 215.54,254.41C214.53,254.09 213.69,252.47 212.7,252.77C211.59,253.11 210.04,254.72 209.01,255.25C207.95,255.8 206.92,254.81 206.03,255.62C204.98,256.59 204.83,257.72 203.8,258.74C202.53,259.98 200.9,261.08 199.36,261.99C197.99,262.79 195.58,264.67 194.11,265.25C192.59,265.85 190.52,266.19 189.37,265.93C188.19,265.66 187.71,267.38 187.58,268.59C187.39,270.34 187.38,272.02 186.93,273.74C186.47,275.47 185.68,277 185.02,278.65C184.71,279.42 184.85,280.11 184.67,280.87C184.49,281.65 183.49,282.19 183.07,282.88C182.48,283.87 182.29,285.18 182.67,286.28C182.8,286.66 182.99,286.96 183.15,287.25C182.99,288.93 182.38,290.44 181.3,291.8C180.83,292.39 181.3,293.22 181.99,293.31C184.22,293.6 186.21,294.56 187.82,296.13C188.93,297.21 190.02,298.12 191.65,297.61C191.95,297.52 192.36,297.23 192.66,297.24C193.33,297.26 195.21,298.86 195.88,299.48C197.28,300.78 201.33,303.12 203.04,303.91C212.78,308.39 215.2,313.69 217.23,314.5C218.71,315.09 220.32,315.29 221.9,315.29C225.24,315.3 228.8,314.4 232.04,315.54C233.4,316.02 234.71,316.8 236.19,316.8C237.95,316.79 238.9,315.56 239.72,314.17Z" style="fill:rgb(204,171,115);fill-rule:nonzero;"/>
        </g>
        <g transform="matrix(1,0,0,1,-63.8945,-43.585)">
            <path d="M198.76,300.13C198.76,300.13 200.53,298.08 200.9,297.15C201.27,296.21 196.99,283.7 196.49,282.44C195.99,281.18 197.11,282.28 197.11,282.28C197.38,283.58 201.44,296.23 201.61,296.35C201.79,296.48 205.18,293.29 206.51,292.13C207.84,290.98 208.8,290.06 208.7,289.08C208.6,288.1 205.76,273.72 205.76,273.72C205.93,272.64 206.36,274.15 206.36,274.15C206.36,274.15 208.93,287.64 209.27,288.29C209.61,288.94 209.93,288.77 210.75,288.05C211.57,287.33 214.66,284.83 215.22,283.92C215.77,283.01 215.84,274.23 216.25,273.11C216.65,271.99 216.83,272.72 216.68,273.92C216.53,275.12 215.76,282.5 216.04,282.8C216.32,283.1 221.97,277.61 223.27,276.64C224.57,275.67 224.24,276.43 224.24,276.43L220.74,279.75C220.74,279.75 224.3,280.39 227.12,281.21C229.95,282.03 238.25,285.57 239.44,286.43C240.63,287.29 229.66,282.43 226.94,281.88C224.22,281.33 220.12,280.61 220.12,280.61L213.57,286.66C213.57,286.66 223.24,289.28 226.07,290.1C228.9,290.92 235.39,292.93 235.39,292.93C235.39,292.93 226.77,290.81 225.8,290.62C224.83,290.43 213.58,287.08 212.89,287.48C212.2,287.89 206.56,293.79 205.9,294.01C205.24,294.24 201.38,297.8 200.5,299.58C199.62,301.36 198.76,300.13 198.76,300.13Z" style="fill:rgb(174,128,67);fill-rule:nonzero;"/>
        </g>
        <g transform="matrix(1,0,0,1,-63.8945,-43.585)">
            <path d="M201.71,287.51C201.71,287.51 200.35,289.09 200.14,289.7C199.93,290.3 199.51,291.43 199.96,291.53C200.41,291.63 202.01,289.92 202.31,288.77C202.6,287.63 202.85,286.37 202.46,286.32C202.07,286.27 200.74,286.97 200.14,287.59C199.54,288.21 199.48,290.04 199.48,290.04C199.48,290.04 200.77,288.03 201.71,287.51Z" style="fill:rgb(174,128,67);fill-rule:nonzero;"/>
        </g>
        <g transform="matrix(1,0,0,1,-63.8945,-43.585)">
            <path d="M211.48,284.18C211.48,284.18 210.12,285.76 209.91,286.37C209.7,286.97 209.28,288.1 209.73,288.2C210.18,288.3 211.78,286.59 212.08,285.44C212.38,284.29 212.62,283.04 212.23,282.99C211.84,282.94 210.51,283.64 209.91,284.26C209.31,284.88 209.25,286.71 209.25,286.71C209.25,286.71 210.54,284.69 211.48,284.18Z" style="fill:rgb(174,128,67);fill-rule:nonzero;"/>
        </g>
        <g transform="matrix(1,0,0,1,-63.8945,-43.585)">
            <path d="M218.99,278.76C218.99,278.76 217.23,279.89 216.86,280.41C216.49,280.93 216.39,281.41 216.79,281.63C217.19,281.85 218.6,281.15 219.2,280.13C219.81,279.12 220.4,277.98 220.04,277.82C219.68,277.66 218.21,277.95 217.45,278.38C216.7,278.81 216.12,280.54 216.12,280.54C216.12,280.54 217.94,278.98 218.99,278.76Z" style="fill:rgb(174,128,67);fill-rule:nonzero;"/>
        </g>
        <g transform="matrix(1,0,0,1,-63.8945,-43.585)">
            <path d="M210.32,281.24C210.32,281.24 209.23,282.51 209.06,283C208.89,283.49 208.55,284.39 208.92,284.47C209.28,284.55 210.57,283.17 210.81,282.25C211.05,281.33 211.25,280.32 210.94,280.28C210.63,280.24 209.56,280.8 209.08,281.31C208.6,281.81 208.55,283.28 208.55,283.28C208.55,283.28 209.56,281.66 210.32,281.24Z" style="fill:rgb(174,128,67);fill-rule:nonzero;"/>
        </g>
        <g transform="matrix(1,0,0,1,-63.8945,-43.585)">
            <path d="M200.74,284.12C200.74,284.12 199.49,285.59 199.29,286.14C199.09,286.69 198.69,287.72 199.1,287.8C199.5,287.88 200.97,286.3 201.26,285.25C201.55,284.2 201.79,283.06 201.44,283.02C201.09,282.98 199.89,283.64 199.34,284.22C198.79,284.8 198.7,286.46 198.7,286.46C198.7,286.46 199.88,284.6 200.74,284.12Z" style="fill:rgb(174,128,67);fill-rule:nonzero;"/>
        </g>
        <g transform="matrix(1,0,0,1,-63.8945,-43.585)">
            <path d="M209.9,277.49C209.9,277.49 208.65,278.95 208.45,279.51C208.25,280.06 207.85,281.09 208.26,281.17C208.66,281.25 210.13,279.67 210.42,278.62C210.71,277.57 210.95,276.43 210.6,276.39C210.25,276.35 209.05,277.01 208.5,277.59C207.95,278.17 207.86,279.83 207.86,279.83C207.86,279.83 209.04,277.97 209.9,277.49Z" style="fill:rgb(174,128,67);fill-rule:nonzero;"/>
        </g>
        <g transform="matrix(1,0,0,1,-63.8945,-43.585)">
            <path d="M209.17,274.15C209.17,274.15 207.92,275.62 207.72,276.17C207.52,276.72 207.12,277.75 207.53,277.83C207.93,277.91 209.4,276.33 209.69,275.28C209.98,274.23 210.22,273.09 209.87,273.05C209.52,273.01 208.32,273.67 207.77,274.25C207.22,274.83 207.13,276.49 207.13,276.49C207.13,276.49 208.31,274.63 209.17,274.15Z" style="fill:rgb(174,128,67);fill-rule:nonzero;"/>
        </g>
        <g transform="matrix(1,0,0,1,-63.8945,-43.585)">
            <path d="M218.97,275.04C218.97,275.04 217.67,275.91 217.42,276.33C217.17,276.75 216.68,277.51 217.03,277.72C217.37,277.92 218.88,277.02 219.28,276.2C219.67,275.38 220.04,274.47 219.74,274.32C219.44,274.17 218.29,274.36 217.72,274.69C217.16,275.02 216.86,276.43 216.86,276.43C216.86,276.43 218.15,275.18 218.97,275.04Z" style="fill:rgb(174,128,67);fill-rule:nonzero;"/>
        </g>
        <g transform="matrix(1,0,0,1,-63.8945,-43.585)">
            <path d="M214.02,273.15C214.02,273.15 215.07,274.31 215.21,274.77C215.35,275.23 215.64,276.1 215.26,276.21C214.88,276.32 213.63,275.08 213.45,274.19C213.27,273.3 213.13,272.32 213.46,272.25C213.79,272.18 214.86,272.64 215.33,273.09C215.8,273.54 215.75,274.99 215.75,274.99C215.75,274.99 214.79,273.49 214.02,273.15Z" style="fill:rgb(174,128,67);fill-rule:nonzero;"/>
        </g>
        <g transform="matrix(1,0,0,1,-63.8945,-43.585)">
            <path d="M193.06,284.25C193.06,284.25 194.55,284.49 195.6,284.9C196.66,285.32 197.14,285.59 197.14,285.59C197.14,285.59 197.23,284.3 195.34,283.32C193.45,282.34 191.77,283.84 191.77,283.84C191.77,283.84 191.94,284.86 193.71,285.76C195.48,286.65 195.62,286.45 196.11,287.03C196.6,287.61 197.79,286.89 197.79,286.89C197.79,286.89 196.26,285.04 193.06,284.25Z" style="fill:rgb(174,128,67);fill-rule:nonzero;"/>
        </g>
        <g transform="matrix(1,0,0,1,-63.8945,-43.585)">
            <path d="M203.04,274.75C203.04,274.75 204.06,274.85 204.72,275.12C205.38,275.39 205.67,275.57 205.67,275.57C205.67,275.57 206.03,274.56 204.89,273.9C203.75,273.24 202.2,274.5 202.2,274.5C202.2,274.5 202.09,275.29 203.16,275.89C204.23,276.49 204.38,276.33 204.6,276.75C204.82,277.17 205.84,276.55 205.84,276.55C205.84,276.55 205.16,275.19 203.04,274.75Z" style="fill:rgb(174,128,67);fill-rule:nonzero;"/>
        </g>
        <g transform="matrix(1,0,0,1,-63.8945,-43.585)">
            <path d="M193.92,288.78C193.92,288.78 194.77,288.9 195.63,288.76C196.48,288.62 197.18,288.44 197.47,288.55C197.76,288.67 198.24,289.1 198.24,289.1C198.24,289.1 198.26,288.12 197.05,287.59C195.83,287.06 192.72,288.67 192.72,288.67C192.72,288.67 193.08,289.27 194.1,289.85C195.12,290.43 195.73,290.15 196.16,290.34C196.59,290.53 197.15,290.97 197.9,290.72C198.66,290.47 199.01,289.94 198.67,289.65C198.32,289.36 197.63,288.91 197.19,288.85C196.73,288.8 194.54,289.38 193.92,288.78Z" style="fill:rgb(174,128,67);fill-rule:nonzero;"/>
        </g>
        <g transform="matrix(1,0,0,1,-63.8945,-43.585)">
            <path d="M202.64,277.95C202.64,277.95 203.31,278.15 204,278.15C204.69,278.14 205.26,278.09 205.49,278.22C205.71,278.35 206.06,278.75 206.06,278.75C206.06,278.75 206.16,277.98 205.24,277.41C204.32,276.84 201.7,277.72 201.7,277.72C201.7,277.72 201.94,278.24 202.7,278.82C203.46,279.4 203.97,279.26 204.29,279.46C204.61,279.67 205.02,280.08 205.65,279.98C206.27,279.88 206.61,279.5 206.35,279.23C206.1,278.96 205.59,278.52 205.24,278.41C204.89,278.3 203.09,278.5 202.64,277.95Z" style="fill:rgb(174,128,67);fill-rule:nonzero;"/>
        </g>
        <g transform="matrix(1,0,0,1,-63.8945,-43.585)">
            <path d="M203.6,281.42C203.6,281.42 204.27,281.62 204.96,281.62C205.65,281.61 206.22,281.56 206.45,281.69C206.67,281.82 207.02,282.22 207.02,282.22C207.02,282.22 207.12,281.45 206.2,280.88C205.28,280.31 202.66,281.19 202.66,281.19C202.66,281.19 202.9,281.71 203.66,282.29C204.42,282.87 204.93,282.73 205.25,282.93C205.57,283.14 205.98,283.55 206.61,283.45C207.24,283.35 207.57,282.97 207.31,282.7C207.06,282.43 206.55,281.99 206.2,281.88C205.85,281.77 204.05,281.97 203.6,281.42Z" style="fill:rgb(174,128,67);fill-rule:nonzero;"/>
        </g>
        <g transform="matrix(1,0,0,1,-63.8945,-43.585)">
            <path d="M195.93,292.48C195.93,292.48 197.45,292.22 198.39,292.32C199.32,292.42 199.72,292.75 199.72,292.75C199.72,292.75 199.46,291.02 197.94,290.99C196.42,290.96 194.16,292.42 194.16,292.42C194.16,292.42 194.51,293.08 196.03,293.91C197.55,294.74 199.87,294.29 199.89,294.04C199.92,293.79 199.65,292.85 198.79,292.69C197.93,292.52 196.39,292.73 195.93,292.48Z" style="fill:rgb(174,128,67);fill-rule:nonzero;"/>
        </g>
        <g transform="matrix(1,0,0,1,-63.8945,-43.585)">
            <path d="M204.85,287.98C204.85,287.98 206.18,288.19 206.93,288.53C207.68,288.88 207.93,289.26 207.93,289.26C207.93,289.26 208.15,287.75 206.9,287.3C205.65,286.85 203.4,287.44 203.4,287.44C203.4,287.44 203.52,288.09 204.57,289.2C205.62,290.31 207.66,290.59 207.74,290.39C207.82,290.19 207.84,289.34 207.17,288.96C206.5,288.57 205.17,288.32 204.85,287.98Z" style="fill:rgb(174,128,67);fill-rule:nonzero;"/>
        </g>
        <g transform="matrix(1,0,0,1,-63.8945,-43.585)">
            <path d="M204.66,284.94C204.66,284.94 205.92,284.96 206.68,285.19C207.45,285.42 207.77,285.73 207.77,285.73C207.77,285.73 207.57,284.32 206.32,284.06C205.07,283.8 203.2,284.61 203.2,284.61C203.2,284.61 203.48,285.19 204.73,286.07C205.97,286.96 207.89,286.96 207.91,286.77C207.93,286.58 207.72,285.79 207.02,285.53C206.31,285.28 205.04,285.21 204.66,284.94Z" style="fill:rgb(174,128,67);fill-rule:nonzero;"/>
        </g>
        <g transform="matrix(1,0,0,1,-63.8945,-43.585)">
            <path d="M219.64,292.3C219.64,292.3 218.59,289.96 218.03,289.42C217.46,288.88 216.42,287.83 216.07,288.29C215.72,288.74 216.77,291.42 217.9,292.33C219.03,293.25 220.3,294.16 220.57,293.76C220.84,293.35 220.77,291.5 220.39,290.51C220.01,289.52 217.99,288.52 217.99,288.52C217.99,288.52 219.57,290.98 219.64,292.3Z" style="fill:rgb(174,128,67);fill-rule:nonzero;"/>
        </g>
        <g transform="matrix(1,0,0,1,-63.8945,-43.585)">
            <path d="M223.22,292.62C223.22,292.62 222.53,291.09 222.16,290.73C221.79,290.37 221.12,289.68 220.89,289.98C220.67,290.27 221.37,292.03 222.1,292.63C222.83,293.24 223.66,293.84 223.83,293.58C224,293.32 223.94,292.11 223.69,291.46C223.44,290.81 222.13,290.14 222.13,290.14C222.13,290.14 223.17,291.75 223.22,292.62Z" style="fill:rgb(174,128,67);fill-rule:nonzero;"/>
        </g>
        <g transform="matrix(1,0,0,1,-63.8945,-43.585)">
            <path d="M226.8,293.83C226.8,293.83 226,292.08 225.59,291.66C225.17,291.25 224.41,290.45 224.16,290.78C223.92,291.11 224.73,293.11 225.55,293.81C226.38,294.51 227.31,295.22 227.49,294.92C227.67,294.62 227.58,293.25 227.29,292.51C227,291.77 225.53,290.98 225.53,290.98C225.53,290.98 226.73,292.85 226.8,293.83Z" style="fill:rgb(174,128,67);fill-rule:nonzero;"/>
        </g>
        <g transform="matrix(1,0,0,1,-63.8945,-43.585)">
            <path d="M230.14,294.58C230.14,294.58 229.34,292.83 228.93,292.41C228.51,292 227.75,291.2 227.5,291.53C227.26,291.86 228.07,293.86 228.89,294.56C229.72,295.26 230.65,295.97 230.83,295.67C231.01,295.37 230.92,294 230.63,293.26C230.34,292.52 228.87,291.73 228.87,291.73C228.87,291.73 230.06,293.6 230.14,294.58Z" style="fill:rgb(174,128,67);fill-rule:nonzero;"/>
        </g>
        <g transform="matrix(1,0,0,1,-63.8945,-43.585)">
            <path d="M232.72,293.69C232.72,293.69 232.18,292.42 231.85,292.14C231.52,291.86 230.93,291.32 230.68,291.59C230.44,291.86 230.97,293.32 231.63,293.79C232.29,294.25 233.04,294.71 233.23,294.47C233.42,294.23 233.46,293.18 233.27,292.64C233.08,292.1 231.87,291.63 231.87,291.63C231.87,291.63 232.74,292.94 232.72,293.69Z" style="fill:rgb(174,128,67);fill-rule:nonzero;"/>
        </g>
        <g transform="matrix(1,0,0,1,-63.8945,-43.585)">
            <path d="M232.19,288.78C232.19,288.78 231.67,289.66 231.14,290.14C230.61,290.62 230.33,290.81 230.33,290.81C230.33,290.81 231.09,291.57 232.17,290.82C233.25,290.07 232.76,288.13 232.76,288.13C232.76,288.13 232.09,287.69 231.1,288.41C230.1,289.12 230.19,289.33 229.71,289.35C229.23,289.37 229.36,290.56 229.36,290.56C229.36,290.56 230.89,290.52 232.19,288.78Z" style="fill:rgb(174,128,67);fill-rule:nonzero;"/>
        </g>
        <g transform="matrix(1,0,0,1,-63.8945,-43.585)">
            <path d="M235.03,290.91C235.03,290.91 234.5,291.38 234.05,291.59C233.6,291.8 233.37,291.86 233.37,291.86C233.37,291.86 233.71,292.54 234.58,292.27C235.45,292.01 235.55,290.59 235.55,290.59C235.55,290.59 235.2,290.15 234.39,290.41C233.58,290.67 233.59,290.82 233.27,290.73C232.95,290.64 232.78,291.46 232.78,291.46C232.78,291.46 233.8,291.79 235.03,290.91Z" style="fill:rgb(174,128,67);fill-rule:nonzero;"/>
        </g>
        <g transform="matrix(1,0,0,1,-63.8945,-43.585)">
            <path d="M229.46,287.06C229.46,287.06 228.99,287.58 228.7,288.21C228.41,288.84 228.22,289.38 228.01,289.53C227.8,289.68 227.29,289.82 227.29,289.82C227.29,289.82 227.94,290.24 228.85,289.65C229.76,289.06 230.07,286.31 230.07,286.31C230.07,286.31 229.5,286.3 228.65,286.75C227.8,287.19 227.71,287.72 227.39,287.92C227.07,288.13 226.52,288.32 226.34,288.93C226.17,289.54 226.37,290 226.72,289.88C227.07,289.77 227.69,289.49 227.93,289.22C228.18,288.93 228.77,287.23 229.46,287.06Z" style="fill:rgb(174,128,67);fill-rule:nonzero;"/>
        </g>
        <g transform="matrix(1,0,0,1,-63.8945,-43.585)">
            <path d="M225.91,286.46C225.91,286.46 225.44,286.98 225.15,287.61C224.86,288.24 224.67,288.78 224.46,288.93C224.25,289.08 223.74,289.22 223.74,289.22C223.74,289.22 224.39,289.64 225.3,289.05C226.21,288.46 226.52,285.71 226.52,285.71C226.52,285.71 225.95,285.7 225.1,286.15C224.25,286.59 224.16,287.12 223.84,287.32C223.52,287.53 222.97,287.72 222.79,288.33C222.61,288.94 222.82,289.4 223.17,289.28C223.52,289.17 224.14,288.89 224.38,288.62C224.63,288.33 225.22,286.63 225.91,286.46Z" style="fill:rgb(174,128,67);fill-rule:nonzero;"/>
        </g>
        <g transform="matrix(1,0,0,1,-63.8945,-43.585)">
            <path d="M219.44,284.81C219.44,284.81 218.69,285.93 218.06,286.46C217.43,286.99 216.98,287.06 216.98,287.06C216.98,287.06 218.25,287.9 219.19,286.96C220.13,286.02 220.55,283.73 220.55,283.73C220.55,283.73 219.91,283.56 218.46,284.05C217.01,284.53 215.89,286.26 216.04,286.42C216.18,286.58 216.95,286.96 217.58,286.51C218.21,286.06 219,284.95 219.44,284.81Z" style="fill:rgb(174,128,67);fill-rule:nonzero;"/>
        </g>
        <g transform="matrix(1,0,0,1,-63.8945,-43.585)">
            <path d="M222.28,285.93C222.28,285.93 221.72,287.06 221.19,287.66C220.66,288.26 220.23,288.42 220.23,288.42C220.23,288.42 221.59,288.84 222.35,287.81C223.12,286.79 223.17,284.75 223.17,284.75C223.17,284.75 222.53,284.76 221.2,285.51C219.87,286.26 219.06,287.99 219.22,288.09C219.38,288.19 220.18,288.33 220.72,287.81C221.27,287.28 221.87,286.15 222.28,285.93Z" style="fill:rgb(174,128,67);fill-rule:nonzero;"/>
        </g>
        <g transform="matrix(1,0,0,1,-63.8945,-43.585)">
            <path d="M226.74,285.09C226.74,285.09 225.96,283.22 225.47,282.82C224.98,282.42 224.09,281.63 223.71,282.04C223.33,282.45 224.1,284.6 225.09,285.27C226.08,285.94 227.21,286.59 227.5,286.23C227.79,285.86 227.89,284.31 227.62,283.52C227.35,282.72 225.52,282.06 225.52,282.06C225.52,282.06 226.79,283.98 226.74,285.09Z" style="fill:rgb(174,128,67);fill-rule:nonzero;"/>
        </g>
        <g transform="matrix(1,0,0,1,-63.8945,-43.585)">
            <path d="M230.14,285.09C230.14,285.09 229.45,283.56 229.08,283.2C228.71,282.84 228.04,282.15 227.81,282.45C227.58,282.74 228.29,284.5 229.02,285.1C229.75,285.71 230.58,286.31 230.75,286.05C230.92,285.79 230.86,284.58 230.61,283.93C230.36,283.28 229.05,282.61 229.05,282.61C229.05,282.61 230.09,284.22 230.14,285.09Z" style="fill:rgb(174,128,67);fill-rule:nonzero;"/>
        </g>
        <g transform="matrix(1,0,0,1,-63.8945,-43.585)">
            <path d="M233.77,286.45C233.77,286.45 233.08,284.89 232.7,284.54C232.32,284.18 231.62,283.49 231.37,283.8C231.12,284.11 231.82,285.89 232.58,286.49C233.34,287.09 234.2,287.69 234.39,287.42C234.58,287.15 234.55,285.9 234.3,285.24C234.05,284.58 232.68,283.93 232.68,283.93C232.68,283.93 233.74,285.56 233.77,286.45Z" style="fill:rgb(174,128,67);fill-rule:nonzero;"/>
        </g>
        <g transform="matrix(1,0,0,1,-63.8945,-43.585)">
            <path d="M237.11,287.43C237.11,287.43 236.55,286.14 236.23,285.85C235.9,285.56 235.31,285 235.08,285.27C234.85,285.54 235.4,287.02 236.06,287.5C236.71,287.98 237.46,288.46 237.63,288.22C237.81,287.98 237.82,286.93 237.63,286.38C237.43,285.83 236.24,285.33 236.24,285.33C236.24,285.33 237.11,286.69 237.11,287.43Z" style="fill:rgb(174,128,67);fill-rule:nonzero;"/>
        </g>
        <g transform="matrix(1,0,0,1,-63.8945,-43.585)">
            <path d="M236.41,282C236.41,282 236.01,282.53 235.59,282.78C235.17,283.02 234.94,283.1 234.94,283.1C234.94,283.1 235.6,283.81 236.49,283.52C237.4,283.24 236.89,281.65 236.88,281.65C236.88,281.65 236.26,281.15 235.46,281.47C234.66,281.79 234.75,281.96 234.35,281.88C233.95,281.8 234.14,282.71 234.14,282.71C234.12,282.7 235.38,282.98 236.41,282Z" style="fill:rgb(174,128,67);fill-rule:nonzero;"/>
        </g>
        <g transform="matrix(1,0,0,1,-63.8945,-43.585)">
            <path d="M238.91,284.37C238.91,284.37 238.45,284.56 238.07,284.59C237.69,284.62 237.5,284.6 237.5,284.6C237.5,284.6 237.78,285.18 238.52,285.24C239.27,285.31 239.37,284.3 239.37,284.29C239.37,284.29 239.07,283.85 238.37,283.81C237.68,283.77 237.69,283.9 237.42,283.74C237.15,283.59 237.02,284.16 237.02,284.15C237.01,284.16 237.86,284.65 238.91,284.37Z" style="fill:rgb(174,128,67);fill-rule:nonzero;"/>
        </g>
        <g transform="matrix(1,0,0,1,-63.8945,-43.585)">
            <path d="M233.9,280.12C233.9,280.12 233.56,280.43 233.38,280.85C233.2,281.27 233.09,281.64 232.93,281.72C232.77,281.79 232.36,281.82 232.36,281.82C232.36,281.82 232.93,282.22 233.64,281.95C234.37,281.68 234.37,279.67 234.35,279.66C234.35,279.66 233.85,279.54 233.17,279.74C232.5,279.93 232.49,280.32 232.24,280.42C231.99,280.53 231.56,280.6 231.49,281.02C231.42,281.45 231.62,281.81 231.9,281.78C232.18,281.74 232.66,281.64 232.84,281.47C233.01,281.31 233.33,280.13 233.9,280.12Z" style="fill:rgb(174,128,67);fill-rule:nonzero;"/>
        </g>
        <g transform="matrix(1,0,0,1,-63.8945,-43.585)">
            <path d="M230.79,279.14C230.79,279.14 230.48,279.48 230.33,279.92C230.18,280.36 230.1,280.74 229.95,280.82C229.8,280.91 229.41,280.96 229.41,280.97C229.41,280.97 229.98,281.33 230.65,281C231.34,280.68 231.21,278.66 231.19,278.65C231.19,278.65 230.7,278.57 230.06,278.82C229.43,279.07 229.44,279.45 229.21,279.58C228.98,279.71 228.57,279.81 228.52,280.25C228.48,280.69 228.7,281.03 228.96,280.97C229.22,280.91 229.68,280.77 229.84,280.59C230.01,280.4 230.24,279.19 230.79,279.14Z" style="fill:rgb(174,128,67);fill-rule:nonzero;"/>
        </g>
        <g transform="matrix(1,0,0,1,-63.8945,-43.585)">
            <path d="M225.15,277.55C225.15,277.55 224.82,278.38 224.45,278.78C224.08,279.18 223.76,279.24 223.76,279.24C223.76,279.24 224.89,279.8 225.43,279.12C225.98,278.44 225.78,276.75 225.77,276.75C225.77,276.75 225.2,276.61 224.17,277C223.15,277.4 222.77,278.72 222.91,278.82C223.06,278.93 223.72,279.16 224.09,278.82C224.47,278.47 224.84,277.65 225.15,277.55Z" style="fill:rgb(174,128,67);fill-rule:nonzero;"/>
        </g>
        <g transform="matrix(1,0,0,1,-63.8945,-43.585)">
            <path d="M227.68,278.44C227.68,278.44 227.45,279.25 227.14,279.67C226.83,280.09 226.53,280.2 226.53,280.2C226.53,280.2 227.65,280.54 228.1,279.84C228.56,279.14 228.2,277.62 228.19,277.61C228.19,277.61 227.65,277.57 226.73,278.09C225.82,278.61 225.56,279.88 225.69,279.95C225.83,280.02 226.47,280.14 226.8,279.77C227.13,279.39 227.4,278.58 227.68,278.44Z" style="fill:rgb(174,128,67);fill-rule:nonzero;"/>
        </g>
        <g transform="matrix(1,0,0,1,-63.8945,-43.585)">
            <path d="M214.7,278.36C215.2,278.59 215.45,279.17 215.25,279.68C215.12,280.01 214.88,280.22 214.42,279.94C213.36,279.28 212.39,277.77 212.39,277.07C212.39,276.37 214.72,276.23 215.21,276.86C215.7,277.49 215.69,278.03 215.17,278.11C214.65,278.19 213.26,277.27 213.26,277.27C213.26,277.27 213.84,277.97 214.7,278.36Z" style="fill:rgb(174,128,67);fill-rule:nonzero;"/>
        </g>
        <g transform="matrix(1,0,0,1,-63.8945,-43.585)">
            <path d="M240.59,287.1C240.78,286.75 240.9,286.04 240.23,285.49C240.29,285.38 240.35,285.27 240.4,285.14C240.52,284.84 240.58,284.57 240.58,284.33C240.58,284.25 240.58,284.18 240.57,284.09C240.54,283.86 240.44,283.66 240.29,283.48C240.18,283.34 240.04,283.2 239.84,283.07C239.44,282.78 238.95,282.61 238.43,282.58C238.36,282.58 238.29,282.57 238.23,282.57C238.23,282.22 238.2,281.73 238.05,281.31C237.99,281.1 237.87,280.89 237.68,280.72C237.66,280.7 237.64,280.68 237.61,280.66C237.59,280.65 237.57,280.63 237.55,280.62C237.09,280.29 236.36,280.03 235.56,280.16C235.61,279.43 235.51,278.98 235.05,278.65L234.85,278.5L234.6,278.45C234.41,278.41 233.72,278.29 232.82,278.54C232.67,278.58 232.54,278.63 232.42,278.69C232.37,278.04 232.16,277.82 231.89,277.63L230.62,276.72L230.33,277.45C230.11,277.49 229.87,277.55 229.61,277.65C229.56,277.67 229.51,277.69 229.46,277.72C229.33,276.93 229.11,276.75 228.9,276.6L227.54,275.62L227.25,276.51C227.17,276.53 227.08,276.56 227,276.59C226.94,276.13 226.69,275.87 226.49,275.73L225.28,274.87L225.09,275.28C225.04,275.23 224.98,275.18 224.92,275.14C224.02,274.5 223.04,275.23 222.51,275.63C222.17,275.88 221.62,276.36 220.95,276.97C220.9,276.92 220.85,276.88 220.79,276.83C220.72,276.78 220.63,276.73 220.55,276.69C220.5,276.67 220.45,276.65 220.4,276.64C220.89,275.62 221.59,274.11 220.47,273.31C220.41,273.27 220.34,273.23 220.27,273.19C219.66,272.89 218.69,273.02 217.94,273.25C217.96,272.38 217.77,271.87 217.32,271.54C216.99,271.3 216.58,271.24 216.19,271.36C215.94,271.44 215.75,271.58 215.59,271.75C215.14,271.47 214.05,270.86 213.21,271.04C211.63,271.38 212.04,273.36 212.26,274.42C212.33,274.75 212.47,275.08 212.64,275.38C212.46,275.43 212.3,275.49 212.15,275.57C212.01,275.64 211.89,275.73 211.77,275.82C211.68,275.66 211.55,275.52 211.38,275.4C211.25,275.31 211.11,275.24 210.97,275.2C211.34,273.79 211.49,272.66 210.65,272.06C210.46,271.93 210.24,271.84 210.01,271.81C209.17,271.71 207.94,272.48 207.26,273.04C207.03,272.56 206.81,272.4 206.71,272.33C206.34,272.06 205.86,272.01 205.45,272.18C205.22,272.27 205.06,272.41 204.93,272.57C203.29,272.09 201.65,273.37 201.44,273.53L201.07,273.83L201,274.3C200.92,274.85 201.1,275.68 201.81,276.37C201.62,276.43 201.45,276.48 201.31,276.53L200.02,276.96L200.58,278.19C200.64,278.32 200.99,279.02 201.95,279.75C201.99,279.78 202.02,279.81 202.06,279.83C202.14,279.88 202.21,279.93 202.29,279.98C202.27,279.99 200.99,280.42 200.99,280.42L201.55,281.65C201.56,281.67 201.58,281.72 201.61,281.77L201.59,281.77C200.66,281.66 199.26,282.61 198.64,283.17C198.46,282.58 198.35,282.16 198.31,281.99L198.23,281.63L197.97,281.37C197.93,281.33 197.71,281.12 197.46,280.94C196.55,280.29 195.89,280.66 195.65,280.85C195.32,281.11 195.15,281.46 195.15,281.89C193.35,281.36 191.71,282.22 190.95,282.89L190.45,283.34L190.56,284C190.59,284.2 190.83,285.25 192.21,286.25C192.49,286.45 192.81,286.64 193.15,286.82C193.24,286.87 193.34,286.91 193.42,286.95C192.91,287.16 192.46,287.38 192.15,287.54L190.99,288.14L191.67,289.26C191.73,289.36 192.08,289.9 192.89,290.48C193.08,290.61 193.28,290.74 193.49,290.86C193.64,290.95 193.79,291.02 193.94,291.08C193.72,291.21 193.56,291.31 193.51,291.35L192.58,291.96L193.1,292.95C193.2,293.14 193.53,293.66 194.43,294.3C194.74,294.52 195.09,294.74 195.47,294.94C196.73,295.63 198.34,295.66 199.43,295.46C199.58,296.06 199.69,296.53 199.71,296.8C199.42,297.34 198.56,298.46 197.85,299.29L197.23,300.01L197.77,300.79C197.82,300.86 198.01,301.11 198.31,301.33C198.79,301.68 199.36,301.79 199.9,301.66C200.58,301.49 201.15,300.95 201.58,300.06C202.21,298.79 212.44,289.35 213.31,288.62C213.63,288.66 214.16,288.76 214.81,288.91C214.99,290.5 216.3,292.57 217.13,293.24C217.54,293.57 217.89,293.84 218.21,294.07C219.32,294.87 220.01,295.13 220.65,295.01C221.04,294.94 221.38,294.72 221.6,294.39C221.69,294.26 221.76,294.09 221.81,293.91C221.92,294 222.03,294.08 222.13,294.15C222.7,294.56 223.32,294.92 223.98,294.8C224.2,294.76 224.41,294.66 224.58,294.53C224.65,294.6 224.72,294.67 224.78,294.72C225.17,295.05 225.5,295.32 225.79,295.52C226.36,295.93 226.99,296.29 227.66,296.16C227.96,296.1 228.23,295.95 228.42,295.72C228.68,295.94 228.92,296.12 229.13,296.27C229.7,296.68 230.33,297.05 231,296.91C231.38,296.83 231.7,296.61 231.9,296.29C232.03,296.07 232.11,295.79 232.15,295.48C232.86,295.8 233.66,295.91 234.22,295.18C234.46,294.87 234.57,294.42 234.62,293.95C234.8,293.99 234.96,294.03 235.11,294.07L235.33,293.27C236.31,292.76 236.74,291.59 236.8,290.66L236.83,290.19L236.54,289.82C236.49,289.75 236.37,289.62 236.18,289.49C235.85,289.25 235.15,288.91 234.12,289.21C234.13,289.02 234.12,288.84 234.11,288.68C234.25,288.69 234.39,288.69 234.53,288.67C234.78,288.63 235.01,288.51 235.2,288.35C235.25,288.39 235.3,288.44 235.36,288.48C235.42,288.52 235.47,288.56 235.53,288.6C236.19,289.07 237.73,290.18 238.65,288.94C238.89,288.61 239,288.14 239.02,287.65C239.92,287.89 240.37,287.49 240.59,287.1ZM222.39,282.25C222.38,282.39 222.38,282.54 222.4,282.7C222.43,282.97 222.5,283.28 222.6,283.6C222.38,283.65 222.1,283.74 221.77,283.87L221.96,282.82L220.86,282.53C220.73,282.5 220.4,282.44 219.86,282.48L220.49,281.9C220.94,281.99 221.61,282.11 222.39,282.25ZM212.09,279.74C211.99,279.58 211.87,279.44 211.7,279.31C211.64,279.27 211.58,279.23 211.51,279.2C211.55,279.1 211.58,279.02 211.6,278.94C211.62,278.85 211.65,278.76 211.67,278.68C211.86,279.02 212.09,279.35 212.34,279.66C212.26,279.69 212.17,279.71 212.09,279.74ZM202.91,283.26C202.95,283.29 202.98,283.32 203.02,283.34C203.03,283.35 203.04,283.36 203.06,283.36C202.97,283.39 202.89,283.42 202.84,283.45C202.84,283.36 202.84,283.27 202.83,283.18C202.85,283.21 202.87,283.23 202.91,283.26ZM204.12,292.63C203.57,293.13 202.81,293.81 202.19,294.36C201.98,293.74 201.72,292.96 201.44,292.09C202.24,291.43 202.95,290.39 203.31,289.6C203.42,289.74 203.55,289.88 203.69,290.02C203.87,290.21 204.08,290.39 204.31,290.56C204.71,290.85 205.17,291.08 205.64,291.26C205.24,291.62 204.69,292.11 204.12,292.63Z" style="fill:rgb(174,128,67);fill-opacity:0.2;fill-rule:nonzero;"/>
        </g>
        <g transform="matrix(1,0,0,1,-63.8945,-43.585)">
            <path d="M212.58,281.73C212.37,281.41 214.08,282.35 214.58,282.21C215.08,282.07 215.4,281.76 215.23,281.3C215.06,280.84 214.03,280.35 213.39,280.6C212.75,280.84 211.52,281.11 211.54,281.49C211.57,281.86 212.2,281.95 212.6,282.69C213,283.43 213.94,284.15 214.34,283.94C214.74,283.73 215.16,283.01 214.98,282.76C214.81,282.52 213.03,282.42 212.58,281.73Z" style="fill:rgb(174,128,67);fill-opacity:0.2;fill-rule:nonzero;"/>
        </g>
        <g transform="matrix(1,0,0,1,-63.8945,-43.585)">
            <path d="M237.54,316.85C238.49,316.41 239.14,315.51 239.73,314.52C241.48,311.57 241.54,309.43 243.6,306.69C245.16,304.62 242.68,305.56 244.36,301.94C245.2,300.14 246.9,296.25 248.02,294.32C248.77,293.02 249.7,293.82 250.46,292.76C251.16,291.78 250.09,290.86 250.55,289.75C249.36,290.77 248.88,291.02 248.88,291.02C248.88,291.02 247.93,292.35 247.15,292.59C246.37,292.84 246.07,293.82 245.47,293.39C244.87,292.96 245.69,292.24 244.8,291.8C243.91,291.36 243.28,293.22 242.8,294.59C242.32,295.96 243.65,296.91 242.46,297.66C241.27,298.41 241.73,300.85 241.73,300.85C241.73,300.85 240.76,302.07 239.67,302.6C238.59,303.13 239.19,305.26 239.22,305.69C239.26,306.12 240.67,307.23 240.74,307.68C240.82,308.14 238.61,310.37 238.53,312.02C238.46,313.67 240.15,313.14 237.54,316.85Z" style="fill:rgb(194,157,104);fill-rule:nonzero;"/>
        </g>
        <g transform="matrix(1,0,0,1,-63.8945,-43.585)">
            <path d="M201.8,276.4C201.09,275.71 200.91,274.88 200.99,274.33L201.06,273.86L201.43,273.56C201.63,273.4 203.27,272.12 204.92,272.6C205.04,272.44 205.21,272.31 205.44,272.21C205.86,272.04 206.33,272.09 206.7,272.36C206.8,272.43 207.03,272.59 207.25,273.07C207.94,272.51 209.16,271.74 210,271.84C210.23,271.87 210.45,271.95 210.64,272.09C211.45,272.11 211.85,272.66 212.05,273.23C211.97,272.29 212.13,271.3 213.2,271.07C214.04,270.89 215.14,271.5 215.58,271.78C215.73,271.61 215.93,271.47 216.18,271.39C216.57,271.27 216.98,271.34 217.31,271.57C217.22,270.26 216.18,271.39 215.69,271.41C215.2,271.44 213.51,270.18 212.32,270.6C211.13,271.02 210.64,272.08 210.2,271.07C209.76,270.06 207.45,272.05 206.61,271.3C205.77,270.55 204.87,272.01 204.25,271.64C203.63,271.27 200.44,272.85 200.19,273.77C199.93,274.7 201.8,276.4 201.8,276.4Z" style="fill:rgb(218,191,150);fill-rule:nonzero;"/>
        </g>
        <g transform="matrix(1,0,0,1,-63.8945,-43.585)">
            <path d="M218.34,256.87C219.22,255.64 222.56,254.83 221.29,252.44C220.9,252.53 220.52,252.67 220.17,252.88C219.53,253.26 219.05,255 218.29,255.03C217.15,255.08 216.61,255.11 215.54,254.77C214.53,254.45 213.69,252.83 212.7,253.13C211.59,253.47 210.04,255.08 209.01,255.61C207.95,256.16 206.92,255.17 206.03,255.98C204.98,256.95 204.83,258.08 203.8,259.1C202.53,260.34 200.9,261.44 199.36,262.35C198.16,263.06 196.14,264.6 194.67,265.35C198.37,264.78 205.31,263.37 207.62,261.74C210.66,259.6 214.4,262.89 217.08,263.3C219.76,263.72 222.24,263.69 221.79,261.06C221.34,258.42 217.34,258.26 218.34,256.87Z" style="fill:rgb(194,157,104);fill-rule:nonzero;"/>
        </g>
        <g transform="matrix(1,0,0,1,-63.8945,-43.585)">
            <path d="M219.08,257.2C218.77,256.48 221.18,255.99 222.16,254.39C222.57,253.73 222.45,252.98 222.18,252.34C222.05,252.34 221.93,252.34 221.8,252.35C221.63,252.37 221.46,252.4 221.29,252.43C222.56,254.82 219.22,255.63 218.34,256.86C217.34,258.25 221.34,258.41 221.79,261.04C221.83,261.28 221.85,261.5 221.84,261.7C223.15,259.27 219.39,257.93 219.08,257.2Z" style="fill:rgb(218,191,150);fill-rule:nonzero;"/>
        </g>
        <g transform="matrix(1,0,0,1,-63.8945,-43.585)">
            <path d="M221.29,252.44C221.25,252.45 221.21,252.46 221.17,252.47C221.2,252.46 221.24,252.45 221.29,252.44Z" style="fill:rgb(218,191,150);fill-rule:nonzero;"/>
        </g>
        <g transform="matrix(1,0,0,1,-63.8945,-43.585)">
            <path d="M207.62,261.74C205.55,263.2 199.78,264.48 195.94,265.14C195.94,265.14 202.25,264.75 205.8,263.16C208.17,262.1 209.46,260.99 211.6,261.28C210.24,260.9 208.87,260.86 207.62,261.74Z" style="fill:rgb(218,191,150);fill-rule:nonzero;"/>
        </g>
        <g transform="matrix(1,0,0,1,-63.8945,-43.585)">
            <path d="M217.08,263.3C216.63,263.23 216.14,263.08 215.64,262.88C216.69,263.49 217.15,263.57 217.22,263.32C217.17,263.31 217.12,263.31 217.08,263.3Z" style="fill:rgb(218,191,150);fill-rule:nonzero;"/>
        </g>
        <g transform="matrix(1,0,0,1,-63.8945,-43.585)">
            <path d="M223.49,310.96C225.23,309.59 225.47,308.2 225.47,308.2L222.45,303.33C222.45,303.33 216.4,301.87 213.42,303.74C210.44,305.61 201.09,303.23 201.09,303.23C201.86,303.66 202.55,304.02 203.05,304.25C212.79,308.73 215.21,314.03 217.24,314.84C218.72,315.43 220.33,315.63 221.91,315.63C224.7,315.64 227.64,315.02 230.41,315.47C229.22,313.43 221.75,312.33 223.49,310.96Z" style="fill:rgb(194,157,104);fill-rule:nonzero;"/>
        </g>
        <g transform="matrix(1,0,0,1,-63.8945,-43.585)">
            <path d="M184.66,280.87C184.84,280.11 184.7,279.42 185.01,278.65C185.67,277.01 186.47,275.47 186.92,273.74C187.37,272.02 187.38,270.34 187.57,268.59C187.7,267.38 188.17,265.66 189.36,265.93C190.51,266.2 192.58,265.86 194.1,265.25C195.57,264.66 197.99,262.79 199.35,261.99C200.88,261.09 202.51,259.99 203.79,258.74C204.83,257.73 204.97,256.59 206.02,255.62C206.91,254.8 207.94,255.79 209,255.25C210.03,254.72 211.57,253.12 212.69,252.77C213.68,252.46 214.53,254.09 215.53,254.41C216.6,254.75 217.14,254.72 218.28,254.67C219.05,254.64 219.52,252.9 220.16,252.52C220.66,252.22 221.21,252.05 221.79,252C223.06,251.88 224.23,252.37 225.3,253.02C227.98,254.67 230.42,256.88 232.62,259.12C233.77,260.29 234.56,261.67 235.23,263.16C235.93,264.71 238.36,266.94 238.15,267.52C237.64,268.95 240.73,269.34 241.66,270.04C242.07,270.35 242.03,273.36 244,275.74C248.5,281.16 249.95,282.75 252.83,284.99C252.83,284.99 243.99,271.9 241.79,267.1C239.58,262.3 228.15,249.2 223.16,248.91C218.18,248.62 214.62,251.96 209.73,250.82C204.84,249.68 203.34,252.33 196.34,259.14C189.34,265.95 183.23,260.96 182.81,265.15C182.39,269.33 181.25,278.21 183.05,282.89C183.48,282.19 184.48,281.64 184.66,280.87Z" style="fill:rgb(105,65,20);fill-rule:nonzero;"/>
        </g>
        <g transform="matrix(1,0,0,1,-63.8945,-43.585)">
            <path d="M244.36,301.59C242.67,305.2 245.15,304.27 243.6,306.34C241.54,309.08 241.48,311.22 239.73,314.17C238.9,315.56 237.96,316.79 236.2,316.79C234.72,316.79 233.41,316.01 232.05,315.53C228.81,314.39 225.25,315.28 221.91,315.28C221.03,315.28 220.15,315.21 219.28,315.06C219.31,315.4 219.63,315.6 220.31,315.63C228.03,315.97 235.4,320.55 239.92,318.8C244.44,317.05 245.93,309.68 246.57,303.31C247.21,296.94 250.47,292.77 250.47,292.77C250.47,292.77 249.46,293.37 247.8,294.38C246.68,296.4 245.14,299.91 244.36,301.59Z" style="fill:rgb(181,143,119);fill-rule:nonzero;"/>
        </g>
    </g>
    <g transform="matrix(2.40341,0,0,2.40341,-253.163,-70.1659)">
        <g transform="matrix(0.723092,0,0,0.723092,22.0743,4.36992)">
            <circle cx="310.46" cy="173.18" r="54.96" style="fill:rgb(153,102,51);"/>
        </g>
        <g transform="matrix(1,0,0,1,-63.8945,-43.585)">
            <path d="M341.55,171.75C341.92,170.45 341.76,169.27 341.7,168.79C341.47,167.1 341.15,165.41 340.84,163.79C340.6,162.53 340.15,160.18 338.11,158.71C335.34,153.52 331.08,150.24 326.31,149.67C325.52,149.57 324.72,149.48 323.92,149.39C321.96,149.17 319.99,149 318.1,149C315.89,149 313.89,149.26 312.08,149.78C312.05,149.79 312.02,149.8 311.99,149.8C311.82,149.85 311.64,149.91 311.47,149.96C311.42,149.98 311.36,149.99 311.31,150.01C311.16,150.06 311.01,150.12 310.86,150.18C310.79,150.21 310.72,150.23 310.65,150.26C310.51,150.31 310.38,150.37 310.25,150.43C310.17,150.46 310.09,150.5 310,150.53C309.88,150.58 309.76,150.64 309.64,150.7C309.55,150.74 309.46,150.78 309.37,150.83C309.26,150.88 309.16,150.94 309.05,151C308.95,151.05 308.85,151.1 308.76,151.16C308.66,151.21 308.57,151.27 308.47,151.33C308.37,151.39 308.27,151.45 308.17,151.51C308.08,151.57 307.99,151.63 307.9,151.69C307.8,151.76 307.7,151.82 307.6,151.89C307.51,151.95 307.43,152.02 307.34,152.08C307.24,152.15 307.14,152.22 307.04,152.3C306.95,152.37 306.86,152.44 306.78,152.51C306.69,152.58 306.59,152.66 306.5,152.73C306.41,152.8 306.33,152.88 306.24,152.96C306.15,153.04 306.06,153.11 305.97,153.19C305.88,153.27 305.8,153.35 305.71,153.44C305.63,153.52 305.54,153.6 305.46,153.68C305.37,153.77 305.28,153.86 305.2,153.95C305.12,154.03 305.04,154.11 304.97,154.19C304.88,154.29 304.79,154.39 304.7,154.5C304.63,154.58 304.56,154.66 304.49,154.74C304.4,154.85 304.3,154.97 304.21,155.08C304.15,155.16 304.08,155.23 304.02,155.31C303.92,155.43 303.83,155.56 303.74,155.68C303.68,155.76 303.63,155.83 303.57,155.91C303.47,156.04 303.38,156.18 303.28,156.32C303.23,156.39 303.18,156.46 303.13,156.54C303.03,156.69 302.93,156.84 302.84,156.99C302.8,157.06 302.75,157.12 302.71,157.19C302.61,157.35 302.51,157.52 302.41,157.69C302.37,157.75 302.33,157.82 302.3,157.88C302.2,158.06 302.1,158.24 302,158.42C301.97,158.48 301.94,158.54 301.9,158.59C301.8,158.78 301.7,158.97 301.6,159.17C301.57,159.23 301.54,159.28 301.51,159.34C301.41,159.54 301.31,159.74 301.22,159.95C301.19,160.01 301.17,160.06 301.14,160.11C301.04,160.32 300.95,160.54 300.86,160.75C300.84,160.8 300.81,160.86 300.79,160.91C300.7,161.13 300.6,161.36 300.51,161.58C300.49,161.63 300.47,161.69 300.44,161.74C300.35,161.97 300.26,162.2 300.17,162.43C300.15,162.48 300.13,162.53 300.11,162.58C300.1,162.6 300.08,162.66 300.08,162.66C300.01,162.84 299.95,163.01 299.89,163.18C299.87,163.17 299.85,163.17 299.82,163.16C299.46,163.07 299.09,162.98 298.71,162.9C298.63,162.88 298.56,162.87 298.48,162.85C298.15,162.78 297.81,162.7 297.46,162.63C297.39,162.62 297.32,162.6 297.25,162.59C296.86,162.51 296.47,162.44 296.07,162.36C295.98,162.34 295.89,162.33 295.8,162.31C295.44,162.25 295.08,162.19 294.71,162.13C294.69,162.13 294.67,162.12 294.64,162.12C294.59,162.11 294.55,162.11 294.5,162.1C294.11,162.04 293.72,161.99 293.33,161.94C293.19,161.92 293.06,161.91 292.92,161.89C292.56,161.85 292.21,161.81 291.85,161.78C291.81,161.78 291.78,161.77 291.74,161.77L291.7,161.77C291.67,161.77 291.65,161.77 291.62,161.76C291.25,161.73 290.88,161.71 290.52,161.69C290.46,161.69 290.39,161.68 290.33,161.68L290.18,161.68C289.78,161.66 289.38,161.65 288.99,161.65C287.41,161.65 285.96,161.79 284.68,162.06L282.77,162.46L282.65,162.49L282.45,164.32L280.99,170.65C280.99,170.86 281,171.04 281.02,171.23C281.08,171.83 281.21,172.4 281.43,172.94C281.57,173.44 281.78,173.87 282.01,174.26C282.02,174.29 282.04,174.31 282.05,174.33C282.08,174.38 282.11,174.42 282.14,174.46C282.18,174.52 282.22,174.58 282.25,174.63C282.28,174.68 282.31,174.72 282.35,174.77C282.38,174.82 282.42,174.87 282.45,174.91C282.49,174.97 282.53,175.02 282.57,175.07C282.6,175.1 282.62,175.14 282.65,175.17C282.69,175.21 282.72,175.26 282.75,175.3C282.78,175.34 282.81,175.38 282.84,175.41C282.86,175.43 282.87,175.45 282.89,175.48L282.73,177.46C282.6,179.16 283.28,180.84 284.63,181.93C284.73,182.06 284.85,182.18 284.97,182.29C285,182.32 285.02,182.34 285.04,182.37L288.05,187.79C288.35,188.12 288.7,188.41 289.1,188.67C289.12,188.68 289.13,188.69 289.15,188.7C289.27,188.77 289.39,188.85 289.53,188.91C289.64,188.97 289.75,189.02 289.86,189.07C289.89,189.08 289.9,189.09 289.91,189.09L290.28,189.56L293.74,193.62C293.98,193.81 294.23,193.99 294.48,194.14L300.71,196.62C300.73,196.63 300.76,196.63 300.78,196.63C300.95,196.68 301.13,196.71 301.3,196.74C301.33,196.74 301.36,196.75 301.4,196.76C301.51,196.77 301.61,196.78 301.72,196.79L301.35,197.1L306.24,198.59C306.25,198.59 306.38,198.63 306.38,198.63C306.45,198.65 306.53,198.66 306.6,198.68C306.71,198.71 306.81,198.74 306.93,198.76C307.14,198.8 307.35,198.83 307.56,198.85C307.7,198.86 307.85,198.87 307.99,198.87C308.21,198.87 308.43,198.86 308.65,198.83C308.74,198.82 308.82,198.8 308.91,198.78C309.03,198.76 309.16,198.74 309.28,198.71L309.56,198.88L314.27,199.59C314.31,199.6 314.34,199.61 314.38,199.62C314.44,199.64 314.5,199.65 314.55,199.67L314.82,199.73C314.88,199.74 314.93,199.75 314.99,199.76C315.09,199.78 315.19,199.79 315.29,199.8C315.34,199.81 315.39,199.81 315.44,199.82C315.59,199.83 315.74,199.84 315.9,199.84C316.59,199.84 317.29,199.72 317.92,199.49C318.17,199.4 318.41,199.29 318.66,199.18C318.7,199.16 318.74,199.14 318.78,199.12C318.94,199.19 319.11,199.26 319.27,199.31C319.77,199.49 320.53,199.73 321.4,199.73C322.24,199.73 323.02,199.52 323.72,199.1C324.2,198.81 324.55,198.47 324.82,198.17C326.11,198.08 327.29,197.56 328.42,196.57C329.2,195.89 329.93,195.17 330.62,194.42C333.2,194.06 334.62,191.79 335.33,190.66C336.47,188.83 337.55,186.98 338.54,185.14L338.64,184.96C339.03,184.25 339.51,183.36 339.71,182.24C339.77,181.88 339.8,181.55 339.81,181.26C340.11,180.33 340.37,179.37 340.58,178.41C340.77,177.82 340.88,177.27 340.9,176.73C340.9,176.71 340.91,176.69 340.91,176.67C341.79,175.18 342.02,173.38 341.55,171.75Z" style="fill:rgb(105,65,20);fill-rule:nonzero;"/>
        </g>
        <g transform="matrix(1,0,0,1,-63.8945,-43.585)">
            <path d="M336.41,161.02C336.26,160.92 336.1,160.82 335.93,160.75C333.72,156.22 330.19,153.02 325.97,152.52C315.95,151.31 307.65,150.36 302.77,163.65C302.38,164.71 302.09,165.72 301.89,166.67C295.93,164.96 289.64,163.93 285.28,164.85C285.28,164.85 285.12,165.79 285.08,167.36C284.95,167.33 284.81,167.38 284.75,167.56C284.68,167.8 284.6,168.05 284.53,168.3C284.1,169.12 283.78,169.99 283.87,170.93C283.91,171.31 284,171.67 284.15,172C284.3,172.74 284.84,173.28 285.37,173.97C285.95,174.73 285.89,175.7 285.89,176.66C285.22,177.87 285.69,179.25 286.69,179.86C286.83,180.12 287.06,180.34 287.32,180.53C287.69,180.79 288.07,180.93 288.35,181.25C288.46,181.44 288.56,181.63 288.68,181.82C288.8,182.12 288.86,182.45 288.93,182.76C289.24,184.19 289.64,186.05 291.28,186.5C291.55,186.58 291.84,186.52 292.1,186.6C292.57,186.74 292.96,187.29 293.2,187.69C293.67,188.44 293.94,189.29 294.41,190.04C295.21,191.31 296.61,192.51 298.2,191.97C298.38,191.91 298.53,191.77 298.63,191.6C299.49,191.76 300.57,193.44 301.19,193.73C301.79,194.01 302.31,193.91 302.93,193.8C303.12,193.76 303.29,193.74 303.45,193.73C304.01,193.96 304.57,194.17 305.12,194.37C305.94,195.11 306.6,195.88 307.76,195.97C308.31,196.01 308.86,195.89 309.25,195.57C309.44,195.61 309.63,195.65 309.81,195.69C311.19,196.58 312.86,197.22 314.26,196.32C314.85,197.02 316.04,197.08 316.9,196.77C317.58,196.52 318.24,196.06 319,196.18C319.42,196.25 319.82,196.46 320.21,196.6C320.86,196.84 321.57,197 322.21,196.62C322.97,196.16 322.99,195.14 324.04,195.27C325.01,195.39 325.76,195.03 326.48,194.4C327.2,193.77 327.95,193.04 328.64,192.26C328.95,192.04 329.25,191.8 329.55,191.57C331.14,191.78 332.1,190.31 332.84,189.13C333.94,187.38 334.98,185.59 335.96,183.77C336.31,183.13 336.7,182.46 336.82,181.73C336.88,181.39 336.89,181.07 336.89,180.75C337.24,179.72 337.53,178.68 337.75,177.64C337.89,177.26 337.98,176.87 337.97,176.47C338.02,176.16 338.07,175.85 338.11,175.55C339.03,174.53 339.14,172.94 338.38,171.78C338.91,171.03 338.94,170.14 338.81,169.2C338.59,167.59 338.28,165.96 337.98,164.36C337.78,163.13 337.47,161.77 336.41,161.02Z" style="fill:rgb(235,222,183);fill-rule:nonzero;"/>
        </g>
        <g transform="matrix(1,0,0,1,-63.8945,-43.585)">
            <path d="M293.49,169.24C298.16,170.16 301.59,167.84 301.88,166.66C295.92,164.95 289.63,163.92 285.27,164.84C285.14,166.05 288.82,168.31 293.49,169.24Z" style="fill:rgb(204,171,105);fill-rule:nonzero;"/>
        </g>
        <g transform="matrix(1,0,0,1,-63.8945,-43.585)">
            <path d="M317.5,180.1C313.79,180.88 309.95,178.88 307.38,177.11C304.41,175.06 302.45,171.56 301.58,166.71C301.55,166.54 301.66,166.38 301.83,166.36C302,166.33 302.15,166.44 302.18,166.61C304.31,178.44 312.34,179.05 316.94,178.35C320.32,177.84 323.18,175.86 324.59,173.06C325.83,170.6 325.79,167.78 324.47,165.32C323.26,163.04 321.66,161.62 319.71,161.11C317.62,160.56 315.14,161.09 312.73,162.61C310.72,163.87 310.63,165.88 310.76,166.96C311.03,169.32 312.7,171.48 314.81,172.22C317.02,172.99 319.22,171.85 320.25,170.32C321.12,169.02 321.1,167.63 320.19,166.6C318.78,165 317.46,164.28 316.56,164.63C316,164.85 315.66,165.48 315.67,166.25C315.68,166.96 316.04,167.84 317,168.18C317.16,168.23 317.24,168.41 317.19,168.57C317.13,168.73 316.96,168.81 316.8,168.76C315.76,168.4 312.91,166.48 312.89,165.33C312.87,164.3 314.77,162.98 316.6,162.6C317.31,162.45 319.1,162.59 321.27,165.06C322.36,166.29 321.77,169.15 320.75,170.67C319.59,172.39 317.11,173.68 314.61,172.8C312.28,171.99 309.94,170.09 309.64,167.51C309.4,165.43 310.1,161.32 312.32,159.88C314.86,158.23 318.11,158.21 320.31,159C327.28,161.52 330.42,167.52 327.43,173.65C324.92,178.81 320,179.57 317.5,180.1Z" style="fill:rgb(192,155,81);fill-rule:nonzero;"/>
        </g>
        <g transform="matrix(1,0,0,1,-63.8945,-43.585)">
            <path d="M302.57,173.36C300.62,173.96 294.11,176.1 287.48,173.45C285.98,172.85 284.78,171.74 283.86,170.61C283.86,170.71 283.86,170.82 283.87,170.92C283.91,171.3 284,171.66 284.15,171.99C284.3,172.73 284.84,173.27 285.37,173.96C285.65,174.33 285.78,174.75 285.84,175.19C289.43,177 294.52,176.97 297.77,176.3C303.54,175.11 304.52,172.77 302.57,173.36Z" style="fill:rgb(221,201,159);fill-rule:nonzero;"/>
        </g>
        <g transform="matrix(1,0,0,1,-63.8945,-43.585)">
            <path d="M296.67,176.49C291.2,176.84 286.91,174.8 284.46,172.75C284.7,173.15 285.04,173.53 285.37,173.96C285.65,174.33 285.78,174.75 285.84,175.19C289.05,176.81 293.45,176.95 296.67,176.49Z" style="fill:rgb(211,185,129);fill-rule:nonzero;"/>
        </g>
        <g transform="matrix(1,0,0,1,-63.8945,-43.585)">
            <path d="M300.08,179.42C304.88,176.74 305.03,174.25 303.47,175.35C301.9,176.44 296.73,180.23 289.94,179.52C288.31,179.35 286.8,178.54 285.59,177.66C285.52,178.56 285.96,179.41 286.7,179.85C286.84,180.11 287.07,180.33 287.33,180.52C287.7,180.78 288.08,180.92 288.36,181.24C288.41,181.32 288.45,181.4 288.5,181.49C292.38,182.48 297.24,181 300.08,179.42Z" style="fill:rgb(221,201,159);fill-rule:nonzero;"/>
        </g>
        <g transform="matrix(1,0,0,1,-63.8945,-43.585)">
            <path d="M299.15,179.9C293.71,181.96 288.66,180.68 285.97,179.13C286.16,179.42 286.41,179.67 286.71,179.85C286.85,180.11 287.08,180.33 287.34,180.52C287.71,180.78 288.09,180.92 288.37,181.24C288.42,181.32 288.46,181.4 288.51,181.49C291.99,182.37 296.26,181.28 299.15,179.9Z" style="fill:rgb(211,185,129);fill-rule:nonzero;"/>
        </g>
        <g transform="matrix(1,0,0,1,-63.8945,-43.585)">
            <path d="M301.37,182.98C305.61,179.48 305.32,177.01 303.97,178.37C302.62,179.73 298.22,184.38 291.41,184.9C290.77,184.95 290.13,184.9 289.51,184.78C289.85,185.58 290.38,186.25 291.29,186.5C291.56,186.58 291.85,186.52 292.11,186.6C292.32,186.66 292.51,186.81 292.69,186.99C296.01,186.49 299.35,184.65 301.37,182.98Z" style="fill:rgb(221,201,159);fill-rule:nonzero;"/>
        </g>
        <g transform="matrix(1,0,0,1,-63.8945,-43.585)">
            <path d="M300.54,183.62C296.89,185.82 293.13,186.22 290.22,185.86C290.5,186.15 290.85,186.37 291.29,186.49C291.56,186.57 291.85,186.51 292.11,186.59C292.32,186.65 292.51,186.8 292.69,186.98C295.59,186.55 298.5,185.1 300.54,183.62Z" style="fill:rgb(211,185,129);fill-rule:nonzero;"/>
        </g>
        <g transform="matrix(1,0,0,1,-63.8945,-43.585)">
            <path d="M306.04,184.58C308.75,179.8 307.59,177.59 306.82,179.34C306.05,181.09 303.6,187.01 297.42,189.92C296.6,190.31 295.71,190.5 294.83,190.59C295.65,191.62 296.87,192.41 298.21,191.96C298.39,191.9 298.54,191.76 298.64,191.59C298.72,191.6 298.8,191.64 298.88,191.67C302.01,190.09 304.67,186.99 306.04,184.58Z" style="fill:rgb(221,201,159);fill-rule:nonzero;"/>
        </g>
        <g transform="matrix(1,0,0,1,-63.8945,-43.585)">
            <path d="M295.71,191.46C296.43,191.99 297.28,192.27 298.21,191.96C298.39,191.9 298.54,191.76 298.64,191.59C298.72,191.6 298.8,191.64 298.88,191.67C301.63,190.27 304.02,187.71 305.48,185.47C302.57,189.21 298.72,190.92 295.71,191.46Z" style="fill:rgb(211,185,129);fill-rule:nonzero;"/>
        </g>
        <g transform="matrix(1,0,0,1,-63.8945,-43.585)">
            <path d="M309.03,185.77C310.83,180.57 309.28,178.62 308.84,180.48C308.4,182.34 307.07,188.61 301.53,192.6C301.22,192.82 300.89,193.01 300.56,193.18C300.8,193.43 301.03,193.63 301.21,193.72C301.81,194 302.33,193.9 302.95,193.79C303.14,193.75 303.31,193.73 303.47,193.72C303.53,193.74 303.58,193.76 303.64,193.79C306.25,191.63 308.17,188.28 309.03,185.77Z" style="fill:rgb(221,201,159);fill-rule:nonzero;"/>
        </g>
        <g transform="matrix(1,0,0,1,-63.8945,-43.585)">
            <path d="M308.66,186.75C306.81,190.31 304.04,192.56 301.5,193.82C301.98,193.96 302.43,193.88 302.95,193.78C303.14,193.74 303.31,193.72 303.47,193.71C303.53,193.73 303.58,193.75 303.64,193.78C305.92,191.9 307.67,189.1 308.66,186.75Z" style="fill:rgb(211,185,129);fill-rule:nonzero;"/>
        </g>
        <g transform="matrix(1,0,0,1,-63.8945,-43.585)">
            <path d="M311.81,181.15C311.91,183.06 312.39,189.45 308.19,194.84C307.9,195.21 307.57,195.55 307.21,195.85C307.39,195.9 307.57,195.94 307.77,195.96C308.32,196 308.87,195.88 309.26,195.56C309.45,195.6 309.64,195.64 309.82,195.68C309.93,195.75 310.05,195.82 310.16,195.89C312.31,193.05 313.32,189 313.46,186.19C313.74,180.68 311.72,179.24 311.81,181.15Z" style="fill:rgb(221,201,159);fill-rule:nonzero;"/>
        </g>
        <g transform="matrix(1,0,0,1,-63.8945,-43.585)">
            <path d="M308.67,195.86C308.89,195.79 309.1,195.69 309.27,195.55C309.46,195.59 309.65,195.63 309.83,195.67C309.94,195.74 310.06,195.81 310.17,195.88C312.07,193.38 313.08,189.93 313.38,187.22C312.63,191.05 310.69,193.94 308.67,195.86Z" style="fill:rgb(211,185,129);fill-rule:nonzero;"/>
        </g>
        <g transform="matrix(1,0,0,1,-63.8945,-43.585)">
            <path d="M289.47,165.46C290.12,165.19 292.68,165.01 294.21,164.93C290.88,164.42 287.77,164.31 285.28,164.84C285.15,166.05 288.83,168.31 293.5,169.24C294.56,169.45 295.56,169.49 296.47,169.42C291.2,169.14 288.54,165.85 289.47,165.46Z" style="fill:rgb(192,155,81);fill-rule:nonzero;"/>
        </g>
        <g transform="matrix(1,0,0,1,-63.8945,-43.585)">
            <path d="M336.94,180.72C337.29,179.69 337.58,178.65 337.8,177.61C337.94,177.23 338.03,176.84 338.02,176.44C338.07,176.13 338.12,175.82 338.16,175.52C339.08,174.5 339.19,172.91 338.43,171.75C338.96,171 338.99,170.11 338.86,169.17C338.64,167.56 338.33,165.93 338.03,164.33C337.8,163.13 337.48,161.78 336.42,161.02C336.27,160.92 336.11,160.82 335.94,160.75C333.73,156.22 330.2,153.02 325.98,152.52C315.98,151.31 307.7,150.37 302.81,163.56C304.86,160.59 310.62,153.28 317.37,153.85C325.83,154.56 331.48,159.67 333.33,167.45C335.18,175.23 333.28,183.94 326.99,188.6C320.7,193.25 317.33,192.72 315.72,194.09C315.16,194.57 314.59,195.46 314.08,196.43C314.15,196.39 314.23,196.35 314.3,196.31C314.89,197.01 316.08,197.07 316.94,196.76C317.62,196.51 318.28,196.05 319.04,196.17C319.46,196.24 319.86,196.45 320.25,196.59C320.9,196.83 321.61,196.99 322.25,196.61C323.01,196.15 323.03,195.13 324.08,195.26C325.05,195.38 325.8,195.02 326.52,194.39C327.24,193.76 327.99,193.03 328.68,192.25C328.99,192.03 329.29,191.79 329.59,191.56C331.18,191.77 332.14,190.3 332.88,189.12C333.98,187.37 335.02,185.58 336,183.76C336.35,183.12 336.74,182.45 336.86,181.72C336.93,181.36 336.93,181.04 336.94,180.72Z" style="fill:rgb(221,201,159);fill-rule:nonzero;"/>
        </g>
        <g transform="matrix(1,0,0,1,-63.8945,-43.585)">
            <path d="M317.5,175.84C311.63,176.87 303.52,174.8 302.8,163.55C302.79,163.58 302.78,163.61 302.77,163.64C302.42,164.59 302.15,165.5 301.96,166.36C302.07,166.39 302.17,166.48 302.19,166.6C304.32,178.43 312.35,179.04 316.95,178.34C320.33,177.83 323.19,175.85 324.6,173.05C325.48,171.3 325.71,169.37 325.3,167.51C325.25,167.65 323.32,174.82 317.5,175.84Z" style="fill:rgb(221,201,159);fill-rule:nonzero;"/>
        </g>
        <g transform="matrix(1,0,0,1,-63.8945,-43.585)">
            <path d="M285.04,182.34C285.01,182.31 284.99,182.29 284.97,182.26C284.85,182.14 284.73,182.02 284.63,181.9C283.28,180.81 282.6,179.13 282.73,177.45C282.73,177.44 282.89,175.45 282.89,175.45C282.87,175.43 282.86,175.41 282.84,175.38C282.81,175.34 282.78,175.31 282.75,175.27C282.72,175.23 282.68,175.19 282.65,175.14C282.62,175.11 282.6,175.07 282.57,175.04C282.53,174.99 282.49,174.93 282.45,174.88C282.42,174.83 282.38,174.78 282.35,174.74C282.32,174.7 282.29,174.65 282.25,174.6C282.21,174.54 282.17,174.49 282.14,174.43C282.11,174.39 282.08,174.34 282.05,174.3C282.04,174.28 282.02,174.25 282.01,174.23C281.78,173.85 281.58,173.41 281.44,172.91C281.22,172.37 281.09,171.79 281.03,171.2C281.01,171.02 281.01,170.83 281,170.64C281,170.62 282.46,164.29 282.46,164.29L282.66,162.46L282.78,162.43L284.69,162.03C285.97,161.76 287.42,161.62 289,161.62C289.39,161.62 289.79,161.63 290.19,161.65L290.34,161.65C290.4,161.65 290.47,161.66 290.53,161.66C290.9,161.68 291.27,161.7 291.63,161.73C291.66,161.73 291.68,161.73 291.71,161.74L291.75,161.74C291.79,161.74 291.82,161.75 291.86,161.75C292.22,161.78 292.57,161.82 292.93,161.86C293.07,161.88 293.2,161.89 293.34,161.91C293.73,161.96 294.12,162.01 294.51,162.07C294.56,162.08 294.6,162.08 294.65,162.09C294.67,162.1 294.69,162.1 294.72,162.1C295.09,162.16 295.45,162.22 295.81,162.28C295.9,162.3 295.99,162.31 296.08,162.33C296.48,162.4 296.87,162.48 297.26,162.56C297.33,162.57 297.4,162.59 297.47,162.6C297.81,162.67 298.15,162.74 298.49,162.82C298.57,162.84 298.64,162.85 298.72,162.87C299.1,162.96 299.47,163.04 299.83,163.13C299.85,163.14 299.87,163.14 299.9,163.15C299.96,162.98 300.02,162.81 300.08,162.64C300.08,162.63 300.11,162.56 300.11,162.56C300.14,162.49 300.16,162.44 300.18,162.39C300.27,162.16 300.36,161.92 300.45,161.7C300.47,161.65 300.49,161.59 300.52,161.54C300.61,161.31 300.7,161.09 300.8,160.87C300.82,160.81 300.85,160.76 300.87,160.71C300.96,160.49 301.06,160.28 301.15,160.07C301.18,160.01 301.2,159.96 301.23,159.91C301.33,159.7 301.42,159.5 301.52,159.3C301.55,159.24 301.58,159.19 301.61,159.13C301.71,158.94 301.81,158.74 301.91,158.55C301.94,158.49 301.97,158.43 302.01,158.38C302.11,158.2 302.21,158.02 302.31,157.84C302.35,157.78 302.39,157.71 302.42,157.65C302.52,157.48 302.62,157.32 302.72,157.15C302.76,157.08 302.81,157.02 302.85,156.95C302.95,156.8 303.04,156.64 303.14,156.5C303.19,156.43 303.24,156.36 303.29,156.28C303.39,156.14 303.48,156 303.58,155.87C303.64,155.79 303.69,155.72 303.75,155.64C303.84,155.51 303.94,155.39 304.03,155.27C304.09,155.19 304.16,155.12 304.22,155.04C304.31,154.93 304.4,154.81 304.5,154.7C304.57,154.62 304.64,154.54 304.71,154.46C304.8,154.36 304.89,154.25 304.98,154.15C305.06,154.07 305.13,153.99 305.21,153.91C305.3,153.82 305.38,153.73 305.47,153.64C305.55,153.56 305.64,153.48 305.72,153.4C305.81,153.32 305.89,153.23 305.98,153.15C306.07,153.07 306.16,152.99 306.25,152.92C306.34,152.84 306.42,152.77 306.51,152.69C306.6,152.61 306.7,152.54 306.79,152.47C306.88,152.4 306.96,152.33 307.05,152.26C307.15,152.19 307.25,152.12 307.35,152.04C307.44,151.98 307.52,151.91 307.61,151.85C307.71,151.78 307.81,151.72 307.91,151.65C308,151.59 308.09,151.53 308.18,151.47C308.28,151.41 308.38,151.35 308.48,151.29C308.58,151.23 308.67,151.17 308.77,151.12C308.87,151.07 308.97,151.02 309.06,150.96C309.17,150.9 309.27,150.85 309.38,150.79C309.47,150.75 309.56,150.7 309.65,150.66C309.77,150.6 309.89,150.55 310.01,150.49C310.09,150.45 310.17,150.42 310.26,150.39C310.39,150.33 310.53,150.28 310.66,150.22C310.73,150.19 310.8,150.17 310.87,150.14C311.02,150.08 311.17,150.03 311.32,149.97C311.37,149.95 311.43,149.94 311.48,149.92C311.65,149.86 311.82,149.81 312,149.76C312.03,149.75 312.06,149.74 312.09,149.74C313.9,149.22 315.9,148.96 318.11,148.96C320.01,148.96 321.98,149.13 323.93,149.35C324.73,149.44 325.53,149.53 326.32,149.63C331.09,150.21 335.35,153.48 338.12,158.67C340.16,160.14 340.6,162.49 340.85,163.75C340.85,163.75 341.05,152.3 327.48,148.36C313.91,144.42 307.66,146.92 302.81,151.1C297.96,155.28 295.47,155.81 288.09,156.02C280.71,156.23 273.72,173.6 285.28,183.59C285.54,183.81 285.81,184.01 286.1,184.19L285.04,182.34Z" style="fill:rgb(96,51,12);fill-rule:nonzero;"/>
        </g>
        <g transform="matrix(1,0,0,1,-63.8945,-43.585)">
            <path d="M302.8,151.13C307.65,146.95 313.91,144.45 327.47,148.39C334.29,150.37 337.63,154.25 339.27,157.62C339.27,157.62 336.6,149.08 325.49,146.69C314.38,144.3 309.65,145.71 304.35,148.99C299.06,152.27 296.43,154.98 290.9,155.94C296.19,155.62 298.62,154.73 302.8,151.13Z" style="fill:rgb(181,143,119);fill-rule:nonzero;"/>
        </g>
        <g transform="matrix(1,0,0,1,-63.8945,-43.585)">
            <path d="M324.81,198.13C324.55,198.43 324.19,198.78 323.71,199.06C323.01,199.48 322.23,199.69 321.39,199.69C320.52,199.69 319.76,199.45 319.26,199.27C319.1,199.21 318.93,199.14 318.77,199.08C318.73,199.1 318.68,199.12 318.65,199.14C318.4,199.25 318.16,199.36 317.91,199.45C317.28,199.68 316.58,199.8 315.89,199.8C315.74,199.8 315.58,199.79 315.43,199.78C315.38,199.78 315.33,199.77 315.28,199.76C315.18,199.75 315.08,199.74 314.98,199.72C314.92,199.71 314.87,199.7 314.81,199.69C314.72,199.67 314.63,199.65 314.54,199.63C314.48,199.62 314.42,199.6 314.37,199.58C314.33,199.57 314.3,199.56 314.26,199.55L309.55,198.84L309.27,198.67C309.15,198.7 309.03,198.72 308.9,198.74C308.81,198.76 308.73,198.78 308.64,198.79C308.42,198.82 308.21,198.83 307.98,198.83C307.84,198.83 307.69,198.82 307.55,198.81C307.34,198.79 307.13,198.76 306.92,198.72C306.81,198.7 306.7,198.67 306.59,198.64C306.52,198.62 306.44,198.61 306.37,198.59L306.24,198.55C306.23,198.55 301.34,197.06 301.34,197.06L301.71,196.75C301.6,196.74 301.49,196.73 301.39,196.72C301.36,196.72 301.33,196.71 301.29,196.7C301.11,196.67 300.94,196.64 300.77,196.59C300.75,196.58 300.72,196.58 300.7,196.58L294.47,194.1C294.22,193.94 293.97,193.77 293.73,193.58L290.27,189.52L289.9,189.05C289.89,189.05 289.88,189.04 289.87,189.04C289.74,188.99 289.63,188.93 289.52,188.88C289.39,188.81 289.27,188.74 289.14,188.67C289.12,188.66 289.11,188.65 289.09,188.64C288.69,188.38 288.33,188.09 288.04,187.76L285.78,183.7C285.44,183.65 285.25,183.62 285.25,183.62C285.25,183.62 290.49,194.33 296.44,196.92C302.39,199.51 319.18,204.1 327.24,197.36C326.48,197.82 325.67,198.07 324.81,198.13Z" style="fill:rgb(181,143,119);fill-rule:nonzero;"/>
        </g>
    </g>
    <g transform="matrix(2.16621,0,0,2.16621,-86.2077,2.90949)">
        <g transform="matrix(0.819906,0,0,0.819906,-31.6407,-21.4389)">
            <circle cx="162.63" cy="159.19" r="54.96" style="fill:rgb(79,52,32);"/>
        </g>
        <g transform="matrix(1,0,0,1,-63.8945,-43.585)">
            <path d="M153.06,135.2C153.99,134.79 154.92,134.42 155.85,134.09C154.36,134.56 153.33,134.96 153.06,135.2Z" style="fill:rgb(221,201,159);fill-rule:nonzero;"/>
        </g>
        <g transform="matrix(1,0,0,1,-63.8945,-43.585)">
            <path d="M201.97,151.04C202.05,150.02 202.06,149.01 201.98,148.02L201.98,147.97C201.93,147.32 201.84,146.68 201.72,146.04C201.71,146 201.7,145.95 201.7,145.91C201.64,145.6 201.57,145.28 201.49,144.97C201.47,144.89 201.45,144.81 201.42,144.73C201.29,144.24 201.14,143.75 200.96,143.26C200.89,143.08 200.83,142.89 200.76,142.71C200.67,142.48 200.58,142.25 200.48,142.03C200.32,141.66 200.15,141.3 199.97,140.94C199.89,140.78 199.8,140.62 199.71,140.45C199.54,140.14 199.37,139.83 199.18,139.53C199.11,139.41 199.04,139.29 198.97,139.18C198.71,138.77 198.43,138.37 198.14,137.97C198.06,137.87 197.99,137.76 197.91,137.66C197.59,137.24 197.26,136.83 196.91,136.42C195.46,134.76 193.74,133.34 191.87,132.14C186.25,128.53 179.23,126.88 174.03,126.59C173.88,126.58 173.7,126.58 173.54,126.58C173.38,126.58 173.22,126.57 173.05,126.57C172.86,126.57 172.66,126.57 172.45,126.58C168.32,126.69 162.8,127.9 159.79,128.63C157.93,129.08 156.15,129.57 154.63,130.07C151.87,130.91 150.97,131.41 150.27,132.04C148.13,133.95 148.39,135.93 148.77,136.99C148.07,137.25 147.46,137.67 146.97,138.24C146.88,138.27 146.79,138.29 146.7,138.33C146.42,138.28 146.14,138.26 145.87,138.26C144.92,138.26 144.03,138.55 143.3,139.07C142.42,139.17 141.62,139.53 140.97,140.07C140.92,140.07 140.87,140.06 140.82,140.06C139.4,140.06 138.13,140.67 137.3,141.71C136.55,141.88 135.89,142.22 135.34,142.7C133.87,143.04 133.03,143.93 132.59,144.59C131.19,145.2 130.55,146.28 130.27,147.01C130.21,147.15 130.18,147.3 130.14,147.45C128.3,148.38 127.8,149.88 127.67,150.8C127.46,152.32 128.06,153.8 129.23,154.75C129.55,155.7 130.19,156.54 131.08,157.07L132.57,157.97L133.75,157.69C133.77,158.15 133.86,158.66 134.04,159.19L132.82,159.33L131.73,160.68C131.08,161.49 130.75,162.49 130.78,163.5C130.05,164.71 129.95,166.23 130.55,167.53C130.8,168.08 131.77,169.77 134.12,170.05C134.87,171.13 136.06,171.8 137.4,171.9C138.15,172.46 139.07,172.78 140.05,172.78C140.25,172.78 140.45,172.76 140.64,172.73C141.15,172.93 141.69,173.04 142.25,173.04C142.44,173.04 142.62,173.01 142.8,172.99C143.48,173.41 144.26,173.63 145.09,173.63C145.74,173.63 146.32,173.49 146.83,173.29C147.3,173.46 147.81,173.56 148.33,173.56C148.7,173.56 149.05,173.51 149.38,173.44C149.75,173.54 150.13,173.6 150.51,173.6C151.43,173.6 152.19,173.33 152.83,172.97C152.87,172.97 152.91,172.98 152.94,172.98L152.99,172.98C152.83,173.97 153,174.99 153.5,175.88L154.66,177.95L157.03,178.05C157.03,178.05 157.85,178.08 159.2,178.08C163.14,178.08 170.65,177.81 176.63,175.97C184.77,173.47 192.54,170.5 198.14,161.86C200.41,158.36 201.69,154.77 202.01,151.26C201.96,151.18 201.97,151.11 201.97,151.04Z" style="fill:rgb(143,95,38);fill-rule:nonzero;"/>
        </g>
        <g transform="matrix(1,0,0,1,-63.8945,-43.585)">
            <path d="M190.94,138.57C197.31,143.91 197.64,151.63 197.64,151.63C198.28,147.09 196.85,142.83 193.68,139.21C188.73,133.54 179.48,131.15 173.75,130.83C170.68,130.66 165.28,131.65 160.75,132.75C173.28,130.21 185.66,134.14 190.94,138.57Z" style="fill:rgb(221,201,159);fill-rule:nonzero;"/>
        </g>
        <g transform="matrix(1,0,0,1,-63.8945,-43.585)">
            <path d="M178.92,156.09C178.92,156.09 175.75,156.96 176.64,160.66C177.53,164.36 180.75,166.19 179.61,167.28C178.46,168.37 165.84,173.17 161.19,172.94C156.54,172.71 157.15,173.79 157.15,173.79C157.15,173.79 167.81,174.21 175.33,171.89C182.86,169.57 189.69,166.99 194.52,159.53C199.36,152.07 198.63,144.87 193.68,139.2C188.73,133.53 179.48,131.14 173.75,130.82C168.02,130.5 154.13,134.23 153.06,135.19C151.99,136.15 153.51,135.09 158.05,134.88C162.59,134.67 170.65,133.56 174.7,136.36C178.75,139.16 178.27,140.04 176.18,141.58C172.71,144.14 176.48,146.1 176.48,146.1C176.48,146.1 171.21,153.48 178.92,156.09Z" style="fill:rgb(235,222,183);fill-rule:nonzero;"/>
        </g>
        <g transform="matrix(1,0,0,1,-63.8945,-43.585)">
            <path d="M180.24,155.59C180.24,155.59 182.38,154.79 185.22,155.53C188.06,156.28 190.36,154.98 193.03,152.57C195.7,150.16 195.87,146.46 194.44,145.21C193.01,143.95 188.6,141.41 187.11,141.74C185.62,142.07 183.02,143.36 181.99,144.48C180.95,145.6 176.47,146.13 176.47,146.13C176.47,146.13 177.89,146.93 181.81,146.02C185.73,145.1 188.92,143.62 191.72,146.43C194.52,149.24 191.38,153.56 189.19,154.29C187.01,155.02 184.8,153.1 180.24,155.59Z" style="fill:rgb(221,201,159);fill-rule:nonzero;"/>
        </g>
        <g transform="matrix(1,0,0,1,-63.8945,-43.585)">
            <path d="M142.41,157.18C142.71,157.85 142.49,158.63 141.88,159.04C140.9,159.71 139.38,160.26 138.31,158.45C137.26,156.69 138.75,156.02 140.07,155.76C140.99,155.58 141.91,156.06 142.29,156.91L142.41,157.18Z" style="fill:rgb(235,222,183);fill-rule:nonzero;"/>
        </g>
        <g transform="matrix(1,0,0,1,-63.8945,-43.585)">
            <path d="M144.63,154.16C144.63,154.16 144.65,158.5 145.46,158.79C146.26,159.08 144.18,160.01 143.73,157.07C143.26,154.12 143.91,153.83 144.63,154.16Z" style="fill:rgb(235,222,183);fill-rule:nonzero;"/>
        </g>
        <g transform="matrix(1,0,0,1,-63.8945,-43.585)">
            <path d="M143.4,154.65C143.4,154.65 142.62,156.45 143.92,158.6C144.33,159.27 142.61,159.09 142.34,157.22C141.98,154.71 142.72,154.41 143.4,154.65Z" style="fill:rgb(235,222,183);fill-rule:nonzero;"/>
        </g>
        <g transform="matrix(1,0,0,1,-63.8945,-43.585)">
            <path d="M146.13,153.85C146.13,153.85 146.22,158.34 147.03,158.64C147.84,158.95 145.76,159.88 145.26,156.84C144.75,153.79 145.4,153.51 146.13,153.85Z" style="fill:rgb(235,222,183);fill-rule:nonzero;"/>
        </g>
        <g transform="matrix(1,0,0,1,-63.8945,-43.585)">
            <path d="M147.79,153.7C147.79,153.7 147.93,158.3 148.75,158.63C149.57,158.96 147.49,159.89 146.95,156.76C146.41,153.62 147.05,153.34 147.79,153.7Z" style="fill:rgb(235,222,183);fill-rule:nonzero;"/>
        </g>
        <g transform="matrix(1,0,0,1,-63.8945,-43.585)">
            <path d="M149.66,153.15C149.66,153.15 150.31,157.4 150.76,158.09C151.24,158.83 148.88,159.6 148.34,156.47C147.8,153.34 148.92,152.78 149.66,153.15Z" style="fill:rgb(235,222,183);fill-rule:nonzero;"/>
        </g>
        <g transform="matrix(1,0,0,1,-63.8945,-43.585)">
            <path d="M151.75,152.88C151.75,152.88 152.4,157.13 152.85,157.82C153.33,158.56 150.97,159.33 150.43,156.2C149.88,153.08 151.01,152.52 151.75,152.88Z" style="fill:rgb(235,222,183);fill-rule:nonzero;"/>
        </g>
        <g transform="matrix(1,0,0,1,-63.8945,-43.585)">
            <path d="M153.94,152.54C153.94,152.54 154.59,156.79 155.04,157.48C155.52,158.22 153.16,158.99 152.62,155.86C152.08,152.74 153.2,152.18 153.94,152.54Z" style="fill:rgb(235,222,183);fill-rule:nonzero;"/>
        </g>
        <g transform="matrix(1,0,0,1,-63.8945,-43.585)">
            <path d="M156.02,151.94C156.02,151.94 156.85,156.6 157.34,157.37C157.86,158.2 155.48,158.94 154.81,155.51C154.13,152.08 155.25,151.52 156.02,151.94Z" style="fill:rgb(235,222,183);fill-rule:nonzero;"/>
        </g>
        <g transform="matrix(1,0,0,1,-63.8945,-43.585)">
            <path d="M160.81,149.89C160.81,149.89 161.15,156.01 161.83,156.94C162.56,157.93 158.79,159.13 157.61,155.5C156.14,150.97 159.53,149.5 160.81,149.89Z" style="fill:rgb(235,222,183);fill-rule:nonzero;"/>
        </g>
        <g transform="matrix(1,0,0,1,-63.8945,-43.585)">
            <path d="M165.04,149.01C165.04,149.01 165.38,155.13 166.06,156.06C166.79,157.05 163.02,158.25 161.84,154.62C160.36,150.1 163.76,148.62 165.04,149.01Z" style="fill:rgb(235,222,183);fill-rule:nonzero;"/>
        </g>
        <g transform="matrix(1,0,0,1,-63.8945,-43.585)">
            <path d="M169.56,148.59C169.56,148.59 169.9,154.71 170.58,155.64C171.31,156.63 167.54,157.83 166.36,154.2C164.89,149.67 168.29,148.2 169.56,148.59Z" style="fill:rgb(235,222,183);fill-rule:nonzero;"/>
        </g>
        <g transform="matrix(1,0,0,1,-63.8945,-43.585)">
            <path d="M173.97,147.47C173.97,147.47 174.31,153.59 174.99,154.52C175.72,155.51 171.95,156.71 170.77,153.08C169.3,148.56 172.69,147.09 173.97,147.47Z" style="fill:rgb(235,222,183);fill-rule:nonzero;"/>
        </g>
        <g transform="matrix(1,0,0,1,-63.8945,-43.585)">
            <path d="M144.99,159.56C145.15,159.74 145.2,159.99 145.1,160.21C144.6,161.34 141.88,164.25 138.17,165.25C137,165.57 135.76,165.76 135.21,165.82C134.14,165.94 134.38,165.66 134.38,165.66C134.38,165.66 140.36,163.96 142.55,161.77C144.59,159.73 143.98,158.46 144.99,159.56Z" style="fill:rgb(235,222,183);fill-rule:nonzero;"/>
        </g>
        <g transform="matrix(1,0,0,1,-63.8945,-43.585)">
            <path d="M143,159.46C143.12,159.66 143.16,159.92 143.08,160.11C142.7,161.1 140.65,163.38 137.85,163.66C136.97,163.75 136.04,163.7 135.62,163.66C134.82,163.57 135,163.35 135,163.35C135,163.35 139.51,162.83 141.16,161.14C142.7,159.55 142.24,158.22 143,159.46Z" style="fill:rgb(235,222,183);fill-rule:nonzero;"/>
        </g>
        <g transform="matrix(1,0,0,1,-63.8945,-43.585)">
            <path d="M146.52,159.2C146.72,159.34 146.82,159.58 146.78,159.81C146.55,161.03 144.55,164.47 141.17,166.28C140.1,166.85 138.94,167.32 138.41,167.5C137.4,167.85 137.57,167.53 137.57,167.53C137.57,167.53 143.01,164.53 144.65,161.9C146.16,159.46 145.28,158.36 146.52,159.2Z" style="fill:rgb(235,222,183);fill-rule:nonzero;"/>
        </g>
        <g transform="matrix(1,0,0,1,-63.8945,-43.585)">
            <path d="M147.99,159.24C148.2,159.36 148.33,159.58 148.3,159.82C148.19,161.05 146.54,164.67 143.34,166.81C142.33,167.49 141.22,168.06 140.72,168.3C139.75,168.75 139.88,168.41 139.88,168.41C139.88,168.41 145,164.89 146.38,162.11C147.66,159.53 146.68,158.52 147.99,159.24Z" style="fill:rgb(235,222,183);fill-rule:nonzero;"/>
        </g>
        <g transform="matrix(1,0,0,1,-63.8945,-43.585)">
            <path d="M149.69,159.09C149.91,159.19 150.04,159.42 150.04,159.66C149.99,160.9 148.54,164.6 145.46,166.91C144.49,167.64 143.41,168.27 142.92,168.54C141.97,169.04 142.09,168.7 142.09,168.7C142.09,168.7 147.02,164.91 148.24,162.06C149.38,159.4 148.35,158.44 149.69,159.09Z" style="fill:rgb(235,222,183);fill-rule:nonzero;"/>
        </g>
        <g transform="matrix(1,0,0,1,-63.8945,-43.585)">
            <path d="M151.56,158.99C151.79,159.07 151.94,159.28 151.96,159.52C152.04,160.76 150.95,164.58 148.12,167.18C147.22,168 146.22,168.74 145.75,169.05C144.86,169.64 144.94,169.29 144.94,169.29C144.94,169.29 149.47,165.04 150.41,162.08C151.28,159.33 150.16,158.48 151.56,158.99Z" style="fill:rgb(235,222,183);fill-rule:nonzero;"/>
        </g>
        <g transform="matrix(1,0,0,1,-63.8945,-43.585)">
            <path d="M153.81,158.36C154.04,158.42 154.22,158.61 154.26,158.85C154.45,160.07 153.73,163.99 151.16,166.84C150.35,167.74 149.41,168.57 148.98,168.92C148.15,169.59 148.19,169.23 148.19,169.23C148.19,169.23 152.3,164.57 152.96,161.54C153.57,158.72 152.37,157.98 153.81,158.36Z" style="fill:rgb(235,222,183);fill-rule:nonzero;"/>
        </g>
        <g transform="matrix(1,0,0,1,-63.8945,-43.585)">
            <path d="M155.99,158.39C156.22,158.45 156.4,158.64 156.44,158.88C156.63,160.1 155.91,164.02 153.34,166.87C152.53,167.77 151.59,168.6 151.16,168.95C150.33,169.62 150.37,169.26 150.37,169.26C150.37,169.26 154.48,164.6 155.14,161.57C155.75,158.75 154.55,158.01 155.99,158.39Z" style="fill:rgb(235,222,183);fill-rule:nonzero;"/>
        </g>
        <g transform="matrix(1,0,0,1,-63.8945,-43.585)">
            <path d="M158.42,157.76C158.65,157.82 158.83,158.01 158.87,158.25C159.06,159.47 158.34,163.39 155.77,166.24C154.96,167.14 154.02,167.97 153.59,168.32C152.76,168.99 152.8,168.63 152.8,168.63C152.8,168.63 156.91,163.97 157.57,160.94C158.18,158.13 156.98,157.39 158.42,157.76Z" style="fill:rgb(235,222,183);fill-rule:nonzero;"/>
        </g>
        <g transform="matrix(1,0,0,1,-63.8945,-43.585)">
            <path d="M160.72,158.32C160.95,158.38 161.13,158.57 161.17,158.81C161.36,160.03 160.64,163.95 158.07,166.8C157.26,167.7 156.32,168.53 155.89,168.88C155.06,169.55 155.1,169.19 155.1,169.19C155.1,169.19 159.21,164.53 159.87,161.5C160.48,158.69 159.28,157.95 160.72,158.32Z" style="fill:rgb(235,222,183);fill-rule:nonzero;"/>
        </g>
        <g transform="matrix(1,0,0,1,-63.8945,-43.585)">
            <path d="M163.22,158.33C163.45,158.39 163.63,158.58 163.67,158.82C163.86,160.04 163.14,163.96 160.57,166.81C159.76,167.71 158.82,168.54 158.39,168.89C157.56,169.56 157.6,169.2 157.6,169.2C157.6,169.2 161.71,164.54 162.37,161.51C162.97,158.69 161.77,157.96 163.22,158.33Z" style="fill:rgb(235,222,183);fill-rule:nonzero;"/>
        </g>
        <g transform="matrix(1,0,0,1,-63.8945,-43.585)">
            <path d="M166.02,157.82C166.25,157.88 166.43,158.07 166.47,158.31C166.66,159.53 165.94,163.45 163.37,166.3C162.56,167.2 161.62,168.03 161.19,168.38C160.36,169.05 160.4,168.69 160.4,168.69C160.4,168.69 164.51,164.03 165.17,161C165.78,158.19 164.58,157.45 166.02,157.82Z" style="fill:rgb(235,222,183);fill-rule:nonzero;"/>
        </g>
        <g transform="matrix(1,0,0,1,-63.8945,-43.585)">
            <path d="M168.25,157.33C168.48,157.39 168.66,157.58 168.7,157.82C168.89,159.04 168.17,162.96 165.6,165.81C164.79,166.71 163.85,167.54 163.42,167.89C162.59,168.56 162.63,168.2 162.63,168.2C162.63,168.2 166.74,163.54 167.4,160.51C168.01,157.69 166.81,156.95 168.25,157.33Z" style="fill:rgb(235,222,183);fill-rule:nonzero;"/>
        </g>
        <g transform="matrix(1,0,0,1,-63.8945,-43.585)">
            <path d="M171.01,157.3C171.24,157.36 171.42,157.55 171.46,157.79C171.65,159.01 170.93,162.93 168.36,165.78C167.55,166.68 166.61,167.51 166.18,167.86C165.35,168.53 165.39,168.17 165.39,168.17C165.39,168.17 169.5,163.51 170.16,160.48C170.77,157.67 169.57,156.93 171.01,157.3Z" style="fill:rgb(235,222,183);fill-rule:nonzero;"/>
        </g>
        <g transform="matrix(1,0,0,1,-63.8945,-43.585)">
            <path d="M173.24,156.12C173.5,156.22 173.73,156.43 173.81,156.65C174.24,157.81 174.19,161.27 171.93,163.42C171.22,164.1 170.36,164.69 169.96,164.93C169.18,165.39 169.17,165.07 169.17,165.07C169.17,165.07 172.75,161.55 172.91,158.88C173.05,156.41 171.61,155.51 173.24,156.12Z" style="fill:rgb(235,222,183);fill-rule:nonzero;"/>
        </g>
        <g transform="matrix(1,0,0,1,-63.8945,-43.585)">
            <path d="M174.41,155.86C174.68,155.91 174.95,156.07 175.08,156.26C175.76,157.24 176.48,160.36 174.79,162.6C174.26,163.31 173.57,163.96 173.23,164.23C172.59,164.75 172.5,164.47 172.5,164.47C172.5,164.47 175.15,160.81 174.7,158.39C174.29,156.14 172.71,155.53 174.41,155.86Z" style="fill:rgb(235,222,183);fill-rule:nonzero;"/>
        </g>
        <g transform="matrix(1,0,0,1,-63.8945,-43.585)">
            <path d="M143.94,153.59C144.03,153.37 143.99,153.11 143.82,152.94C142.97,152.05 139.42,150.24 135.59,150.56C134.38,150.66 133.15,150.9 132.61,151.03C131.57,151.28 131.89,151.46 131.89,151.46C131.89,151.46 138.09,151.02 140.9,152.34C143.5,153.56 143.36,154.96 143.94,153.59Z" style="fill:rgb(235,222,183);fill-rule:nonzero;"/>
        </g>
        <g transform="matrix(1,0,0,1,-63.8945,-43.585)">
            <path d="M142.1,154.36C142.15,154.13 142.09,153.88 141.96,153.72C141.27,152.91 138.56,151.47 135.84,152.16C134.98,152.38 134.12,152.74 133.74,152.92C133.01,153.28 133.26,153.42 133.26,153.42C133.26,153.42 137.67,152.37 139.81,153.41C141.78,154.38 141.8,155.79 142.1,154.36Z" style="fill:rgb(235,222,183);fill-rule:nonzero;"/>
        </g>
        <g transform="matrix(1,0,0,1,-63.8945,-43.585)">
            <path d="M145.49,153.4C145.63,153.2 145.65,152.94 145.52,152.74C144.89,151.68 141.84,149.12 138.04,148.56C136.84,148.38 135.59,148.34 135.03,148.35C133.96,148.36 134.23,148.61 134.23,148.61C134.23,148.61 140.37,149.58 142.81,151.5C145.07,153.28 144.62,154.61 145.49,153.4Z" style="fill:rgb(235,222,183);fill-rule:nonzero;"/>
        </g>
        <g transform="matrix(1,0,0,1,-63.8945,-43.585)">
            <path d="M146.86,152.86C147.02,152.68 147.06,152.42 146.96,152.2C146.44,151.08 143.65,148.24 139.92,147.31C138.74,147.02 137.5,146.85 136.95,146.8C135.88,146.71 136.13,146.98 136.13,146.98C136.13,146.98 142.14,148.54 144.38,150.69C146.46,152.7 145.87,153.98 146.86,152.86Z" style="fill:rgb(235,222,183);fill-rule:nonzero;"/>
        </g>
        <g transform="matrix(1,0,0,1,-63.8945,-43.585)">
            <path d="M148.52,152.43C148.69,152.26 148.74,152 148.65,151.78C148.19,150.63 145.56,147.65 141.88,146.52C140.72,146.17 139.49,145.93 138.94,145.86C137.88,145.71 138.11,146 138.11,146C138.11,146 144.03,147.88 146.15,150.15C148.12,152.24 147.47,153.49 148.52,152.43Z" style="fill:rgb(235,222,183);fill-rule:nonzero;"/>
        </g>
        <g transform="matrix(1,0,0,1,-63.8945,-43.585)">
            <path d="M150.3,151.88C150.48,151.73 150.56,151.48 150.5,151.25C150.15,150.06 147.83,146.83 144.28,145.35C143.16,144.88 141.96,144.53 141.42,144.4C140.38,144.15 140.58,144.45 140.58,144.45C140.58,144.45 146.29,146.91 148.18,149.37C149.93,151.66 149.16,152.84 150.3,151.88Z" style="fill:rgb(235,222,183);fill-rule:nonzero;"/>
        </g>
        <g transform="matrix(1,0,0,1,-63.8945,-43.585)">
            <path d="M152.64,151.72C152.84,151.58 152.94,151.34 152.89,151.11C152.65,149.89 150.65,146.46 147.25,144.65C146.18,144.08 145.02,143.62 144.49,143.43C143.48,143.08 143.65,143.4 143.65,143.4C143.65,143.4 149.1,146.38 150.75,149.01C152.28,151.46 151.41,152.56 152.64,151.72Z" style="fill:rgb(235,222,183);fill-rule:nonzero;"/>
        </g>
        <g transform="matrix(1,0,0,1,-63.8945,-43.585)">
            <path d="M154.68,150.94C154.88,150.8 154.98,150.56 154.93,150.33C154.69,149.11 152.69,145.68 149.29,143.87C148.22,143.3 147.06,142.84 146.53,142.65C145.52,142.3 145.69,142.62 145.69,142.62C145.69,142.62 151.14,145.6 152.79,148.23C154.32,150.69 153.44,151.79 154.68,150.94Z" style="fill:rgb(235,222,183);fill-rule:nonzero;"/>
        </g>
        <g transform="matrix(1,0,0,1,-63.8945,-43.585)">
            <path d="M157.18,150.7C157.38,150.56 157.48,150.32 157.43,150.09C157.19,148.87 155.19,145.44 151.79,143.63C150.72,143.06 149.56,142.6 149.03,142.41C148.02,142.06 148.19,142.38 148.19,142.38C148.19,142.38 153.64,145.36 155.29,147.99C156.82,150.45 155.94,151.55 157.18,150.7Z" style="fill:rgb(235,222,183);fill-rule:nonzero;"/>
        </g>
        <g transform="matrix(1,0,0,1,-63.8945,-43.585)">
            <path d="M159.14,149.39C159.34,149.25 159.44,149.01 159.39,148.78C159.15,147.56 157.15,144.13 153.75,142.32C152.68,141.75 151.52,141.29 150.99,141.1C149.98,140.75 150.15,141.07 150.15,141.07C150.15,141.07 155.6,144.05 157.25,146.68C158.79,149.14 157.91,150.24 159.14,149.39Z" style="fill:rgb(235,222,183);fill-rule:nonzero;"/>
        </g>
        <g transform="matrix(1,0,0,1,-63.8945,-43.585)">
            <path d="M161.49,148.54C161.69,148.4 161.79,148.16 161.74,147.93C161.5,146.71 159.5,143.28 156.1,141.47C155.03,140.9 153.87,140.44 153.34,140.25C152.33,139.9 152.5,140.22 152.5,140.22C152.5,140.22 157.95,143.2 159.6,145.83C161.14,148.28 160.26,149.38 161.49,148.54Z" style="fill:rgb(235,222,183);fill-rule:nonzero;"/>
        </g>
        <g transform="matrix(1,0,0,1,-63.8945,-43.585)">
            <path d="M164.3,148.06C164.5,147.92 164.6,147.68 164.55,147.45C164.31,146.23 162.31,142.8 158.91,140.99C157.84,140.42 156.68,139.96 156.15,139.77C155.14,139.42 155.31,139.74 155.31,139.74C155.31,139.74 160.76,142.72 162.41,145.35C163.95,147.81 163.07,148.91 164.3,148.06Z" style="fill:rgb(235,222,183);fill-rule:nonzero;"/>
        </g>
        <g transform="matrix(1,0,0,1,-63.8945,-43.585)">
            <path d="M166.57,147.77C166.77,147.63 166.87,147.39 166.82,147.16C166.58,145.94 164.58,142.51 161.18,140.7C160.11,140.13 158.95,139.67 158.42,139.48C157.41,139.13 157.58,139.45 157.58,139.45C157.58,139.45 163.03,142.43 164.68,145.06C166.21,147.51 165.34,148.62 166.57,147.77Z" style="fill:rgb(235,222,183);fill-rule:nonzero;"/>
        </g>
        <g transform="matrix(1,0,0,1,-63.8945,-43.585)">
            <path d="M169.17,146.85C169.37,146.71 169.47,146.47 169.42,146.24C169.18,145.02 167.18,141.59 163.78,139.78C162.71,139.21 161.55,138.75 161.02,138.56C160.01,138.21 160.18,138.53 160.18,138.53C160.18,138.53 165.63,141.51 167.28,144.14C168.82,146.6 167.94,147.7 169.17,146.85Z" style="fill:rgb(235,222,183);fill-rule:nonzero;"/>
        </g>
        <g transform="matrix(1,0,0,1,-63.8945,-43.585)">
            <path d="M171.67,147.21C171.88,147.03 172.03,146.75 172.03,146.51C172.04,145.27 170.81,142.04 167.96,140.79C167.06,140.4 166.05,140.13 165.59,140.04C164.7,139.87 164.8,140.18 164.8,140.18C164.8,140.18 169.37,142.27 170.42,144.73C171.39,147 170.35,148.34 171.67,147.21Z" style="fill:rgb(235,222,183);fill-rule:nonzero;"/>
        </g>
        <g transform="matrix(1,0,0,1,-63.8945,-43.585)">
            <path d="M172.86,147.05C173.1,146.91 173.3,146.67 173.35,146.45C173.65,145.3 173.27,142.12 170.92,140.58C170.18,140.1 169.31,139.72 168.9,139.58C168.12,139.31 168.14,139.61 168.14,139.61C168.14,139.61 171.88,142.15 172.27,144.58C172.64,146.83 171.37,147.94 172.86,147.05Z" style="fill:rgb(235,222,183);fill-rule:nonzero;"/>
        </g>
    </g>
</svg>
