<?xml version="1.0" encoding="UTF-8" standalone="no"?>
<!DOCTYPE svg PUBLIC "-//W3C//DTD SVG 1.1//EN" "http://www.w3.org/Graphics/SVG/1.1/DTD/svg11.dtd">
<svg width="100%" height="100%" viewBox="0 0 502 310" version="1.1" xmlns="http://www.w3.org/2000/svg" xmlns:xlink="http://www.w3.org/1999/xlink" xml:space="preserve" xmlns:serif="http://www.serif.com/" style="fill-rule:evenodd;clip-rule:evenodd;stroke-linejoin:round;stroke-miterlimit:2;">
    <g transform="matrix(1,0,0,1,-22010.6,-9762.5)">
        <g transform="matrix(4.16667,0,0,4.16667,21791.3,7175.19)">
            <g transform="matrix(1,0,0,1,98.0622,686.56)">
                <path d="M0,0.357L0.019,0.357C0.031,-0.706 0.045,-1.769 0.056,-2.832C0.062,-3.374 -0.178,-3.634 -0.75,-3.621C-1.945,-3.591 -3.143,-3.624 -4.337,-3.584C-5.291,-3.552 -5.313,-3.52 -5.326,-2.603C-5.351,-0.831 -5.349,0.94 -5.349,2.712C-5.348,2.975 -5.294,3.238 -5.266,3.502C-5.212,4.005 -5.018,4.276 -4.426,4.259C-3.231,4.226 -2.035,4.256 -0.842,4.305C-0.266,4.329 -0.033,4.106 -0.033,3.546C-0.034,2.483 -0.012,1.419 0,0.357M74.075,0.52C74.026,0.52 73.978,0.519 73.929,0.519C73.94,-0.544 73.927,-1.609 73.978,-2.67C74.002,-3.2 73.718,-3.459 73.3,-3.46C71.805,-3.462 70.31,-3.385 68.813,-3.368C68.334,-3.362 68.196,-3.127 68.207,-2.708C68.267,-0.455 68.314,1.797 68.404,4.049C68.41,4.202 68.727,4.468 68.898,4.468C70.313,4.468 71.728,4.424 73.143,4.381C73.94,4.357 74.027,4.258 74.04,3.438C74.054,2.465 74.063,1.493 74.075,0.52M-44.505,0.222C-44.471,0.222 -44.437,0.222 -44.402,0.223C-44.416,1.371 -44.424,2.518 -44.446,3.665C-44.454,4.065 -44.241,4.236 -43.885,4.243C-42.381,4.27 -40.877,4.292 -39.372,4.295C-39.161,4.295 -38.95,4.179 -38.739,4.118C-38.337,3.999 -38.219,3.766 -38.265,3.324C-38.352,2.496 -38.343,1.657 -38.371,0.823C-38.415,-0.455 -38.465,-1.734 -38.495,-3.012C-38.511,-3.65 -38.845,-3.826 -39.434,-3.823C-40.805,-3.817 -42.177,-3.875 -43.548,-3.872C-44.39,-3.87 -44.436,-3.815 -44.462,-2.959C-44.496,-1.9 -44.492,-0.838 -44.505,0.222M37.476,4.503C37.461,4.156 37.441,3.943 37.444,3.731C37.474,1.694 37.521,-0.343 37.533,-2.38C37.54,-3.429 37.515,-3.448 36.543,-3.463C34.904,-3.489 33.266,-3.498 31.627,-3.493C30.635,-3.49 30.616,-3.469 30.68,-2.429C30.803,-0.444 30.939,1.541 31.089,3.524C31.154,4.39 31.184,4.418 32.032,4.435C33.804,4.47 35.575,4.481 37.476,4.503M38.674,4.532C39.715,4.471 40.726,4.359 41.737,4.362C45.765,4.371 49.792,4.42 53.819,4.446C58.104,4.472 62.39,4.492 66.676,4.506C67.468,4.509 67.599,4.407 67.605,3.583C67.619,1.588 67.607,-0.407 67.569,-2.401C67.552,-3.31 67.457,-3.376 66.575,-3.387C64.14,-3.417 61.704,-3.455 59.269,-3.453C57.991,-3.451 56.713,-3.333 55.436,-3.338C54.067,-3.343 52.7,-3.445 51.331,-3.478C50.009,-3.51 48.686,-3.528 47.363,-3.521C44.578,-3.507 41.792,-3.469 39.007,-3.45C38.563,-3.447 38.364,-3.259 38.368,-2.813C38.373,-2.059 38.317,-1.304 38.354,-0.553C38.435,1.076 38.556,2.703 38.674,4.532M14.404,-3.482C13.38,-3.495 11.341,-3.522 9.303,-3.541C6.73,-3.566 4.159,-3.597 1.588,-3.599C0.592,-3.6 0.574,-3.567 0.579,-2.55C0.589,-0.556 0.607,1.439 0.646,3.434C0.663,4.257 0.72,4.274 1.598,4.286C4.296,4.323 6.994,4.379 9.693,4.406C11.993,4.428 14.294,4.431 16.594,4.425C19.377,4.419 22.16,4.388 24.944,4.378C26.318,4.373 27.693,4.371 29.066,4.406C29.662,4.421 30.035,4.235 30.018,3.605C29.954,1.449 30.161,-0.712 29.812,-2.867C29.724,-3.415 29.531,-3.519 29.074,-3.518C24.522,-3.502 19.971,-3.495 14.404,-3.482M-37.655,-3.809C-37.615,-1.495 -37.574,0.702 -37.54,2.898C-37.524,3.913 -37.433,4.043 -36.402,4.079C-34.646,4.14 -32.89,4.197 -31.134,4.197C-27.966,4.198 -24.799,4.131 -21.632,4.138C-16.768,4.147 -11.903,4.183 -7.039,4.24C-6.46,4.246 -6.244,4.09 -6.244,3.512C-6.241,1.608 -6.203,-0.296 -6.193,-2.201C-6.191,-2.463 -6.264,-2.727 -6.312,-2.989C-6.388,-3.395 -6.589,-3.553 -7.047,-3.542C-8.591,-3.508 -10.136,-3.528 -11.68,-3.545C-15.44,-3.589 -19.201,-3.655 -22.962,-3.693C-26.592,-3.729 -30.223,-3.74 -33.853,-3.765C-35.088,-3.774 -36.322,-3.793 -37.655,-3.809M71.547,8.007C71.548,7.979 71.548,7.951 71.549,7.923C72.034,7.902 72.526,7.923 73.002,7.844C73.363,7.785 73.965,7.65 74.005,7.456C74.14,6.79 74.092,6.083 74.06,5.394C74.056,5.329 73.673,5.234 73.465,5.232C72.627,5.224 71.789,5.255 70.951,5.256C66.048,5.259 61.144,5.262 56.24,5.257C50.658,5.252 45.077,5.24 39.495,5.227C36.008,5.22 32.521,5.215 29.034,5.194C23.147,5.159 17.261,5.095 11.374,5.074C7.658,5.061 3.942,5.12 0.227,5.115C-2.825,5.111 -5.876,5.061 -8.928,5.031C-13.62,4.984 -18.312,4.91 -23.006,4.895C-27.017,4.883 -31.027,4.95 -35.039,4.964C-37.368,4.972 -39.697,4.942 -42.026,4.935C-42.603,4.933 -43.179,4.937 -43.754,4.967C-44.099,4.985 -44.341,5.139 -44.304,5.552C-44.28,5.816 -44.296,6.085 -44.285,6.35C-44.25,7.207 -44.051,7.431 -43.208,7.533C-42.989,7.559 -42.765,7.535 -42.543,7.537C-38.296,7.59 -34.049,7.637 -29.803,7.701C-24.223,7.783 -18.644,7.924 -13.063,7.958C-6.99,7.993 -0.915,7.938 5.159,7.912C8.44,7.897 11.722,7.834 15.004,7.841C17.837,7.849 20.671,7.983 23.504,7.958C26.773,7.927 30.042,7.689 33.311,7.717C36.358,7.744 39.397,7.966 42.458,7.853C46.308,7.711 50.168,7.878 54.024,7.899C58.098,7.921 62.171,7.925 66.244,7.946C68.012,7.956 69.779,7.986 71.547,8.007M64.434,-4.237C64.435,-4.276 64.435,-4.315 64.436,-4.354C67.049,-4.323 69.663,-4.342 72.273,-4.245C74.361,-4.167 74.091,-4.294 73.881,-6.154C73.775,-7.093 73.569,-7.2 72.584,-7.183C70.289,-7.144 67.994,-7.112 65.699,-7.119C62.287,-7.127 58.876,-7.178 55.464,-7.201C53.165,-7.215 50.867,-7.206 48.569,-7.218C47.07,-7.227 45.572,-7.274 44.074,-7.265C41.999,-7.253 39.924,-7.172 37.85,-7.177C31.303,-7.194 24.756,-7.238 18.21,-7.268C13.781,-7.288 9.352,-7.295 4.923,-7.322C-1.542,-7.36 -8.006,-7.418 -14.471,-7.45C-16.903,-7.461 -19.337,-7.396 -21.771,-7.413C-24.987,-7.433 -28.205,-7.529 -31.422,-7.538C-34.391,-7.545 -37.359,-7.485 -40.327,-7.445C-41.075,-7.434 -41.827,-7.323 -42.571,-7.364C-44.653,-7.48 -45.089,-7.009 -44.629,-4.99C-44.593,-4.83 -44.386,-4.635 -44.222,-4.592C-43.93,-4.516 -43.61,-4.528 -43.303,-4.529C-41.048,-4.536 -38.793,-4.573 -36.539,-4.551C-35.084,-4.539 -33.631,-4.406 -32.176,-4.396C-30.809,-4.386 -29.439,-4.505 -28.071,-4.5C-24.704,-4.488 -21.336,-4.415 -17.968,-4.404C-12.922,-4.388 -7.876,-4.42 -2.83,-4.398C-0.14,-4.386 2.555,-4.18 5.239,-4.284C8.688,-4.416 12.124,-3.978 15.575,-4.218C17.47,-4.35 19.384,-4.18 21.289,-4.19C25.176,-4.208 29.062,-4.289 32.947,-4.285C38.352,-4.279 43.756,-4.198 49.16,-4.189C51.459,-4.186 53.758,-4.321 56.057,-4.327C58.849,-4.332 61.642,-4.27 64.434,-4.237M-23.993,-8.246C-20.139,-8.2 -16.285,-8.131 -12.432,-8.114C-5.035,-8.081 2.36,-8.091 9.756,-8.06C15.238,-8.037 20.72,-7.952 26.201,-7.94C30.892,-7.93 35.582,-7.977 40.271,-8.016C42.037,-8.031 43.803,-8.135 45.567,-8.128C50.385,-8.112 55.202,-8.059 60.02,-8.016C63.424,-7.987 66.828,-7.943 70.232,-7.918C71.414,-7.91 72.597,-7.952 73.778,-7.946C74.316,-7.943 74.67,-7.777 74.671,-7.093C74.673,-5.371 74.787,-3.648 74.8,-1.924C74.816,0.463 74.77,2.851 74.776,5.24C74.778,6.075 74.866,6.91 74.901,7.746C74.926,8.341 74.655,8.637 74.026,8.629C72.963,8.616 71.899,8.659 70.836,8.653C66.492,8.626 62.148,8.572 57.805,8.559C50.895,8.539 43.984,8.525 37.074,8.544C33.4,8.553 29.727,8.67 26.052,8.679C22.436,8.688 18.818,8.594 15.202,8.594C8.47,8.594 1.737,8.638 -4.995,8.649C-10.665,8.659 -16.336,8.66 -22.006,8.637C-24.737,8.627 -27.468,8.545 -30.199,8.509C-32.14,8.484 -34.08,8.461 -36.021,8.472C-37.165,8.478 -38.311,8.597 -39.455,8.587C-41.131,8.574 -42.806,8.488 -44.481,8.435C-44.992,8.42 -45.148,8.15 -45.142,7.662C-45.106,5.408 -45.044,3.152 -45.091,0.899C-45.132,-1.082 -45.314,-3.061 -45.417,-5.041C-45.451,-5.705 -45.433,-6.371 -45.436,-7.035C-45.44,-8.227 -45.44,-8.233 -44.321,-8.248C-42.858,-8.269 -41.395,-8.288 -39.931,-8.291C-34.618,-8.308 -29.306,-8.318 -23.993,-8.331L-23.993,-8.246Z" style="fill:rgb(35,31,32);fill-rule:nonzero;"/>
            </g>
        </g>
        <g transform="matrix(4.16667,0,0,4.16667,21791.3,7175.19)">
            <g transform="matrix(1,0,0,1,162.496,679.274)">
                <path d="M0,3.05C-2.792,3.017 -5.585,2.954 -8.377,2.96C-10.676,2.966 -12.975,3.101 -15.273,3.098C-20.678,3.089 -26.082,3.008 -31.486,3.002C-35.372,2.997 -39.258,3.078 -43.145,3.097C-45.05,3.107 -46.964,2.937 -48.858,3.069C-52.31,3.309 -55.745,2.87 -59.194,3.003C-61.879,3.107 -64.573,2.901 -67.264,2.889C-72.31,2.866 -77.355,2.899 -82.401,2.883C-85.77,2.871 -89.138,2.799 -92.505,2.786C-93.873,2.781 -95.242,2.901 -96.609,2.891C-98.064,2.881 -99.518,2.748 -100.973,2.736C-103.227,2.714 -105.481,2.751 -107.736,2.758C-108.044,2.759 -108.363,2.771 -108.655,2.695C-108.819,2.652 -109.026,2.457 -109.063,2.297C-109.522,0.278 -109.087,-0.193 -107.005,-0.077C-106.261,-0.036 -105.509,-0.147 -104.761,-0.158C-101.793,-0.198 -98.824,-0.259 -95.855,-0.251C-92.639,-0.242 -89.421,-0.146 -86.204,-0.126C-83.771,-0.109 -81.337,-0.175 -78.904,-0.163C-72.439,-0.132 -65.976,-0.073 -59.511,-0.035C-55.082,-0.009 -50.652,-0.001 -46.224,0.019C-39.678,0.049 -33.131,0.093 -26.584,0.11C-24.51,0.114 -22.435,0.033 -20.359,0.022C-18.861,0.013 -17.363,0.06 -15.864,0.069C-13.566,0.08 -11.269,0.071 -8.97,0.086C-5.558,0.109 -2.146,0.159 1.266,0.168C3.561,0.175 5.855,0.143 8.15,0.104C9.136,0.087 9.342,0.194 9.447,1.133C9.657,2.992 9.928,3.119 7.84,3.042C5.229,2.945 2.615,2.964 0.002,2.933C0.001,2.972 0.001,3.011 0,3.05" style="fill:rgb(198,168,112);fill-rule:nonzero;"/>
            </g>
        </g>
        <g transform="matrix(4.16667,0,0,4.16667,21791.3,7175.19)">
            <g transform="matrix(1,0,0,1,169.609,691.444)">
                <path d="M0,3.124C-1.768,3.103 -3.535,3.072 -5.303,3.062C-9.376,3.042 -13.449,3.038 -17.522,3.016C-21.379,2.994 -25.239,2.827 -29.089,2.97C-32.149,3.083 -35.188,2.86 -38.236,2.834C-41.505,2.806 -44.773,3.044 -48.043,3.074C-50.876,3.1 -53.71,2.966 -56.543,2.958C-59.825,2.95 -63.106,3.014 -66.388,3.028C-72.462,3.055 -78.537,3.109 -84.61,3.074C-90.19,3.041 -95.77,2.899 -101.35,2.817C-105.596,2.754 -109.843,2.707 -114.09,2.653C-114.312,2.651 -114.536,2.676 -114.755,2.649C-115.598,2.548 -115.797,2.323 -115.832,1.467C-115.843,1.201 -115.827,0.933 -115.851,0.669C-115.888,0.256 -115.646,0.102 -115.301,0.084C-114.726,0.054 -114.149,0.05 -113.573,0.052C-111.244,0.059 -108.915,0.089 -106.586,0.081C-102.574,0.066 -98.563,0 -94.553,0.012C-89.859,0.026 -85.167,0.101 -80.475,0.147C-77.423,0.178 -74.372,0.228 -71.32,0.231C-67.604,0.236 -63.889,0.178 -60.173,0.19C-54.286,0.212 -48.399,0.275 -42.513,0.311C-39.025,0.332 -35.539,0.337 -32.052,0.344C-26.47,0.356 -20.889,0.368 -15.307,0.374C-10.403,0.379 -5.499,0.376 -0.596,0.373C0.242,0.372 1.08,0.341 1.918,0.349C2.126,0.351 2.509,0.445 2.513,0.511C2.545,1.199 2.593,1.906 2.458,2.572C2.418,2.767 1.816,2.901 1.455,2.961C0.979,3.04 0.487,3.019 0.002,3.04C0.001,3.067 0.001,3.096 0,3.124" style="fill:rgb(198,168,112);fill-rule:nonzero;"/>
            </g>
        </g>
        <g transform="matrix(4.16667,0,0,4.16667,21791.3,7175.19)">
            <g transform="matrix(1,0,0,1,135.538,683.062)">
                <path d="M0,8.002C-1.9,7.98 -3.672,7.969 -5.443,7.934C-6.292,7.916 -6.321,7.889 -6.387,7.023C-6.536,5.039 -6.673,3.055 -6.796,1.069C-6.859,0.029 -6.841,0.009 -5.849,0.006C-4.21,0 -2.571,0.01 -0.933,0.035C0.039,0.051 0.064,0.069 0.058,1.118C0.045,3.155 -0.002,5.192 -0.031,7.23C-0.034,7.441 -0.015,7.654 0,8.002" style="fill:rgb(198,168,112);fill-rule:nonzero;"/>
            </g>
        </g>
        <g transform="matrix(4.16667,0,0,4.16667,21791.3,7175.19)">
            <g transform="matrix(1,0,0,1,53.5573,686.758)">
                <path d="M0,0.025C0.013,-1.036 0.009,-2.097 0.043,-3.157C0.069,-4.012 0.115,-4.067 0.957,-4.069C2.328,-4.073 3.7,-4.014 5.071,-4.02C5.66,-4.023 5.994,-3.847 6.01,-3.209C6.04,-1.931 6.09,-0.653 6.134,0.626C6.162,1.46 6.153,2.298 6.24,3.127C6.286,3.569 6.168,3.801 5.766,3.921C5.555,3.982 5.344,4.098 5.133,4.097C3.628,4.094 2.124,4.073 0.62,4.046C0.264,4.039 0.051,3.868 0.059,3.467C0.081,2.321 0.089,1.173 0.103,0.026C0.068,0.025 0.034,0.025 0,0.025" style="fill:rgb(198,168,112);fill-rule:nonzero;"/>
            </g>
        </g>
        <g transform="matrix(4.16667,0,0,4.16667,21791.3,7175.19)">
            <g transform="matrix(1,0,0,1,172.137,687.047)">
                <path d="M0,0.034C-0.012,1.007 -0.021,1.979 -0.035,2.952C-0.048,3.772 -0.135,3.871 -0.933,3.895C-2.348,3.938 -3.762,3.982 -5.177,3.982C-5.349,3.982 -5.665,3.716 -5.671,3.563C-5.761,1.311 -5.809,-0.942 -5.868,-3.195C-5.879,-3.613 -5.741,-3.848 -5.262,-3.854C-3.766,-3.871 -2.271,-3.948 -0.775,-3.946C-0.357,-3.945 -0.073,-3.686 -0.098,-3.156C-0.148,-2.095 -0.135,-1.03 -0.146,0.033C-0.098,0.033 -0.049,0.034 0,0.034" style="fill:rgb(198,168,112);fill-rule:nonzero;"/>
            </g>
        </g>
        <g transform="matrix(4.16667,0,0,4.16667,21791.3,7175.19)">
            <g transform="matrix(1,0,0,1,98.0622,686.898)">
                <path d="M0,0.019C-0.012,1.081 -0.034,2.145 -0.033,3.208C-0.033,3.768 -0.266,3.991 -0.842,3.967C-2.035,3.918 -3.231,3.888 -4.426,3.921C-5.018,3.938 -5.212,3.667 -5.266,3.164C-5.294,2.9 -5.348,2.637 -5.349,2.374C-5.349,0.602 -5.351,-1.169 -5.326,-2.941C-5.313,-3.858 -5.291,-3.89 -4.337,-3.922C-3.143,-3.962 -1.945,-3.929 -0.75,-3.959C-0.178,-3.972 0.062,-3.712 0.056,-3.17C0.045,-2.107 0.031,-1.044 0.019,0.019L0,0.019Z" style="fill:rgb(198,168,112);fill-rule:nonzero;"/>
            </g>
        </g>
        <g transform="matrix(4.16667,0,0,4.16667,21791.3,7175.19)">
            <g transform="matrix(1,0,0,1,104.105,670.986)">
                <path d="M0,0.611C-0.063,0.614 -0.127,0.618 -0.191,0.622C-0.055,2.516 0.107,4.409 0.204,6.305C0.235,6.921 0.512,7.02 1.035,7.023C3.026,7.032 5.018,7.077 7.009,7.102C7.999,7.115 8.025,7.114 8.16,6.156C8.27,5.372 8.375,4.577 8.366,3.787C8.334,0.869 8.25,-2.049 8.193,-4.968C8.186,-5.396 8.219,-5.826 8.233,-6.254C7.812,-6.254 7.389,-6.253 6.967,-6.256C6.879,-6.256 6.791,-6.279 6.704,-6.279C4.811,-6.26 2.916,-6.271 1.024,-6.207C0.134,-6.178 -0.289,-5.593 -0.244,-4.69C-0.158,-2.923 -0.081,-1.157 0,0.611M-23.49,6.925L-23.49,6.9C-22.781,6.905 -22.071,6.911 -21.362,6.914C-14.891,6.941 -8.42,6.97 -1.948,6.994C-0.992,6.997 -0.963,6.985 -0.926,5.965C-0.873,4.557 -0.852,3.148 -0.849,1.74C-0.844,-0.381 -0.839,-2.502 -0.887,-4.623C-0.922,-6.122 -1.018,-6.222 -2.472,-6.218C-7.3,-6.205 -12.128,-6.168 -16.956,-6.121C-22.657,-6.067 -28.357,-5.985 -34.059,-5.93C-38.2,-5.89 -42.343,-5.878 -46.485,-5.841C-47.141,-5.835 -48.019,-5.991 -48.386,-5.641C-48.722,-5.323 -48.503,-4.422 -48.528,-3.778C-48.532,-3.689 -48.533,-3.6 -48.53,-3.511C-48.445,-0.411 -48.366,2.688 -48.268,5.788C-48.239,6.67 -48.213,6.67 -47.374,6.733C-47.241,6.744 -47.108,6.748 -46.975,6.749C-44.727,6.773 -42.479,6.803 -40.23,6.819C-34.65,6.858 -29.07,6.89 -23.49,6.925M9.006,0.796C9.051,2.311 9.108,4.171 9.157,6.029C9.166,6.339 9.137,6.648 9.124,6.958C9.102,7.528 8.801,7.653 8.252,7.66C5.24,7.694 2.23,7.8 -0.781,7.838C-3.261,7.869 -5.74,7.84 -8.22,7.833C-12.073,7.822 -15.927,7.801 -19.779,7.796C-22.611,7.792 -25.443,7.798 -28.275,7.812C-32.998,7.835 -37.722,7.872 -42.445,7.893C-44.126,7.9 -45.807,7.89 -47.487,7.862C-48.789,7.84 -49.235,7.401 -49.257,6.096C-49.269,5.353 -49.141,4.608 -49.15,3.864C-49.192,0.633 -49.261,-2.596 -49.321,-5.826C-49.343,-7.021 -49.271,-7.092 -48.052,-7.062C-45.096,-6.988 -42.14,-6.867 -39.183,-6.852C-35.91,-6.835 -32.638,-6.936 -29.364,-6.948C-25.066,-6.963 -20.769,-6.92 -16.471,-6.943C-10.711,-6.972 -4.951,-7.028 0.808,-7.096C3.059,-7.122 5.31,-7.23 7.561,-7.269C8.796,-7.289 9.03,-7.061 9.039,-5.798C9.055,-3.715 9.021,-1.631 9.006,0.796" style="fill:rgb(35,31,32);fill-rule:nonzero;"/>
            </g>
        </g>
        <g transform="matrix(4.16667,0,0,4.16667,21791.3,7175.19)">
            <g transform="matrix(1,0,0,1,58.4352,671.381)">
                <path d="M0,-0.015L0.051,-0.015C0.043,1.226 0.019,2.466 0.033,3.707C0.043,4.627 0.076,4.661 1.01,4.702C2.468,4.767 3.929,4.849 5.388,4.836C8.696,4.806 12.005,4.682 15.313,4.671C20.051,4.653 24.789,4.713 29.527,4.72C33.154,4.726 36.781,4.712 40.409,4.686C41.367,4.679 41.372,4.637 41.351,3.7C41.294,1.268 41.228,-1.162 41.188,-3.593C41.181,-4.095 40.982,-4.326 40.494,-4.354C39.615,-4.404 38.736,-4.517 37.857,-4.514C33.787,-4.498 29.716,-4.396 25.646,-4.427C17.86,-4.489 10.077,-4.622 2.293,-4.715C1.763,-4.722 1.232,-4.629 0.702,-4.611C0.204,-4.594 0.009,-4.375 0.016,-3.868C0.033,-2.583 0.009,-1.299 0,-0.015M22.18,6.531C16.6,6.496 11.02,6.464 5.439,6.424C3.191,6.409 0.943,6.379 -1.305,6.354C-1.438,6.353 -1.571,6.349 -1.704,6.339C-2.543,6.275 -2.569,6.275 -2.598,5.393C-2.696,2.294 -2.775,-0.806 -2.86,-3.906C-2.863,-3.994 -2.862,-4.083 -2.858,-4.172C-2.833,-4.817 -3.052,-5.717 -2.716,-6.036C-2.349,-6.385 -1.471,-6.23 -0.815,-6.236C3.327,-6.273 7.47,-6.285 11.611,-6.325C17.312,-6.379 23.013,-6.461 28.714,-6.516C33.542,-6.563 38.37,-6.6 43.198,-6.613C44.652,-6.617 44.748,-6.517 44.783,-5.018C44.831,-2.897 44.826,-0.776 44.821,1.345C44.818,2.754 44.797,4.163 44.744,5.57C44.707,6.59 44.678,6.602 43.722,6.599C37.25,6.576 30.779,6.547 24.308,6.519C23.599,6.516 22.889,6.51 22.18,6.506L22.18,6.531Z" style="fill:rgb(209,117,122);fill-rule:nonzero;"/>
            </g>
        </g>
        <g transform="matrix(4.16667,0,0,4.16667,21791.3,7175.19)">
            <g transform="matrix(1,0,0,1,104.105,671.211)">
                <path d="M0,0.386C-0.081,-1.382 -0.158,-3.148 -0.244,-4.915C-0.289,-5.818 0.134,-6.403 1.024,-6.432C2.916,-6.496 4.811,-6.485 6.704,-6.504C6.791,-6.504 6.879,-6.481 6.967,-6.481C7.389,-6.478 7.812,-6.479 8.233,-6.479C8.219,-6.051 8.186,-5.621 8.193,-5.193C8.25,-2.274 8.334,0.644 8.366,3.562C8.375,4.352 8.27,5.147 8.16,5.931C8.025,6.889 7.999,6.89 7.009,6.877C5.018,6.852 3.026,6.807 1.035,6.798C0.512,6.795 0.235,6.696 0.204,6.08C0.107,4.184 -0.055,2.291 -0.191,0.397C-0.127,0.393 -0.063,0.389 0,0.386" style="fill:rgb(228,150,164);fill-rule:nonzero;"/>
            </g>
        </g>
        <g transform="matrix(4.16667,0,0,4.16667,21791.3,7175.19)">
            <g transform="matrix(1,0,0,1,80.611,667.631)">
                <path d="M0,7.626L0,7.56C4.03,7.585 8.06,7.629 12.09,7.626C13.895,7.625 15.698,7.522 17.503,7.478C18.048,7.465 18.305,7.254 18.258,6.674C18.209,6.062 18.206,5.443 18.213,4.829C18.229,3.511 18.259,2.193 18.292,0.876C18.308,0.258 18.033,-0.024 17.407,0.029C17.144,0.053 16.876,0.032 16.609,0.033C12.98,0.042 9.353,0.072 5.724,0.057C1.227,0.036 -3.271,-0.035 -7.768,-0.058C-9.617,-0.067 -11.467,-0.005 -13.316,0.022C-15.618,0.053 -17.921,0.054 -20.222,0.12C-21.452,0.155 -21.538,0.272 -21.51,1.565C-21.474,3.247 -21.373,4.928 -21.329,6.609C-21.312,7.242 -21.013,7.397 -20.419,7.452C-18.526,7.625 -16.638,7.551 -14.744,7.547C-9.829,7.537 -4.915,7.595 0,7.626M-22.176,3.734C-22.167,2.45 -22.143,1.166 -22.16,-0.118C-22.167,-0.626 -21.972,-0.845 -21.474,-0.861C-20.943,-0.88 -20.413,-0.973 -19.883,-0.966C-12.099,-0.873 -4.315,-0.739 3.47,-0.678C7.54,-0.646 11.611,-0.749 15.682,-0.765C16.561,-0.768 17.439,-0.654 18.318,-0.604C18.807,-0.576 19.005,-0.346 19.013,0.156C19.052,2.587 19.118,5.018 19.175,7.449C19.196,8.387 19.191,8.429 18.233,8.436C14.605,8.461 10.979,8.476 7.352,8.47C2.613,8.462 -2.125,8.402 -6.862,8.42C-10.171,8.432 -13.479,8.556 -16.788,8.585C-18.247,8.599 -19.708,8.517 -21.166,8.451C-22.1,8.41 -22.133,8.376 -22.143,7.456C-22.157,6.216 -22.133,4.976 -22.125,3.734L-22.176,3.734Z" style="fill:rgb(35,31,32);fill-rule:nonzero;"/>
            </g>
        </g>
        <g transform="matrix(4.16667,0,0,4.16667,21791.3,7175.19)">
            <g transform="matrix(1,0,0,1,80.611,667.567)">
                <path d="M0,7.69C-4.915,7.659 -9.829,7.601 -14.744,7.611C-16.638,7.615 -18.526,7.689 -20.419,7.516C-21.013,7.461 -21.312,7.306 -21.329,6.673C-21.373,4.992 -21.474,3.311 -21.51,1.629C-21.538,0.336 -21.452,0.219 -20.222,0.184C-17.921,0.118 -15.618,0.117 -13.316,0.086C-11.467,0.059 -9.617,-0.003 -7.768,0.006C-3.271,0.029 1.227,0.1 5.724,0.121C9.353,0.136 12.98,0.106 16.609,0.097C16.876,0.096 17.144,0.117 17.407,0.093C18.033,0.04 18.308,0.322 18.292,0.94C18.259,2.257 18.229,3.575 18.213,4.893C18.206,5.507 18.209,6.126 18.258,6.738C18.305,7.318 18.048,7.529 17.503,7.542C15.698,7.586 13.895,7.689 12.09,7.69C8.06,7.693 4.03,7.649 0,7.624L0,7.69Z" style="fill:rgb(189,86,160);fill-rule:nonzero;"/>
            </g>
        </g>
        <g transform="matrix(4.16667,0,0,4.16667,21791.3,7175.19)">
            <g transform="matrix(1,0,0,1,104.161,656.855)">
                <path d="M0,0.61C-0.063,0.614 -0.127,0.618 -0.191,0.622C-0.055,2.515 0.107,4.409 0.203,6.305C0.235,6.921 0.512,7.02 1.035,7.023C3.026,7.032 5.018,7.077 7.009,7.102C7.999,7.115 8.025,7.114 8.16,6.156C8.27,5.372 8.375,4.576 8.366,3.787C8.333,0.868 8.25,-2.05 8.193,-4.968C8.185,-5.397 8.219,-5.826 8.233,-6.255C7.811,-6.255 7.389,-6.253 6.967,-6.256C6.879,-6.256 6.791,-6.28 6.704,-6.279C4.811,-6.26 2.916,-6.271 1.024,-6.208C0.134,-6.179 -0.289,-5.593 -0.245,-4.69C-0.158,-2.923 -0.081,-1.157 0,0.61M-23.49,6.925L-23.49,6.9C-22.781,6.905 -22.072,6.91 -21.362,6.913C-14.892,6.941 -8.42,6.97 -1.948,6.993C-0.992,6.997 -0.964,6.985 -0.926,5.964C-0.873,4.557 -0.853,3.148 -0.849,1.74C-0.845,-0.381 -0.839,-2.503 -0.888,-4.623C-0.922,-6.123 -1.019,-6.223 -2.473,-6.219C-7.3,-6.205 -12.129,-6.168 -16.956,-6.121C-22.657,-6.067 -28.357,-5.986 -34.059,-5.93C-38.2,-5.89 -42.343,-5.879 -46.485,-5.841C-47.142,-5.835 -48.019,-5.991 -48.386,-5.642C-48.722,-5.323 -48.504,-4.422 -48.528,-3.778C-48.532,-3.689 -48.533,-3.6 -48.531,-3.512C-48.445,-0.411 -48.366,2.688 -48.268,5.787C-48.239,6.669 -48.213,6.669 -47.374,6.733C-47.241,6.743 -47.108,6.747 -46.976,6.749C-44.728,6.773 -42.479,6.803 -40.231,6.819C-34.65,6.858 -29.07,6.89 -23.49,6.925M9.006,0.796C9.051,2.311 9.108,4.17 9.157,6.029C9.166,6.338 9.137,6.648 9.124,6.958C9.102,7.528 8.801,7.653 8.251,7.66C5.24,7.694 2.23,7.8 -0.781,7.838C-3.261,7.869 -5.74,7.839 -8.221,7.833C-12.073,7.822 -15.927,7.801 -19.779,7.796C-22.611,7.792 -25.443,7.797 -28.275,7.811C-32.998,7.835 -37.722,7.872 -42.445,7.892C-44.126,7.9 -45.808,7.89 -47.488,7.862C-48.789,7.84 -49.235,7.401 -49.257,6.095C-49.269,5.352 -49.142,4.607 -49.15,3.864C-49.192,0.633 -49.261,-2.596 -49.321,-5.827C-49.343,-7.021 -49.271,-7.092 -48.052,-7.062C-45.096,-6.988 -42.14,-6.867 -39.183,-6.852C-35.91,-6.835 -32.638,-6.936 -29.364,-6.948C-25.066,-6.963 -20.769,-6.921 -16.471,-6.943C-10.711,-6.972 -4.952,-7.028 0.808,-7.096C3.059,-7.122 5.309,-7.231 7.561,-7.269C8.796,-7.29 9.03,-7.061 9.039,-5.798C9.054,-3.715 9.021,-1.631 9.006,0.796" style="fill:rgb(35,31,32);fill-rule:nonzero;"/>
            </g>
        </g>
        <g transform="matrix(4.16667,0,0,4.16667,21791.3,7175.19)">
            <g transform="matrix(1,0,0,1,58.4909,657.249)">
                <path d="M0,-0.014L0.051,-0.014C0.043,1.226 0.019,2.467 0.032,3.708C0.043,4.628 0.076,4.661 1.01,4.703C2.468,4.768 3.929,4.85 5.388,4.837C8.696,4.806 12.005,4.683 15.313,4.671C20.051,4.654 24.789,4.714 29.526,4.72C33.154,4.726 36.781,4.713 40.408,4.686C41.367,4.679 41.372,4.638 41.351,3.7C41.294,1.269 41.228,-1.161 41.188,-3.592C41.181,-4.094 40.982,-4.325 40.494,-4.353C39.615,-4.404 38.736,-4.517 37.857,-4.513C33.786,-4.497 29.715,-4.395 25.645,-4.426C17.86,-4.488 10.077,-4.621 2.293,-4.714C1.763,-4.721 1.232,-4.628 0.702,-4.611C0.203,-4.593 0.009,-4.374 0.016,-3.867C0.033,-2.583 0.008,-1.298 0,-0.014M22.18,6.532C16.6,6.497 11.02,6.465 5.438,6.425C3.19,6.41 0.942,6.38 -1.306,6.355C-1.438,6.353 -1.571,6.349 -1.704,6.34C-2.543,6.275 -2.569,6.275 -2.598,5.393C-2.696,2.295 -2.775,-0.805 -2.861,-3.906C-2.863,-3.993 -2.862,-4.082 -2.858,-4.171C-2.834,-4.816 -3.052,-5.716 -2.716,-6.035C-2.349,-6.384 -1.472,-6.229 -0.815,-6.235C3.327,-6.273 7.47,-6.284 11.611,-6.324C17.312,-6.379 23.013,-6.46 28.714,-6.515C33.541,-6.562 38.37,-6.599 43.197,-6.613C44.651,-6.617 44.748,-6.517 44.782,-5.017C44.831,-2.897 44.825,-0.775 44.821,1.346C44.817,2.755 44.797,4.164 44.744,5.571C44.706,6.591 44.678,6.603 43.722,6.599C37.25,6.577 30.778,6.548 24.308,6.519C23.598,6.516 22.889,6.511 22.18,6.507L22.18,6.532Z" style="fill:rgb(209,117,122);fill-rule:nonzero;"/>
            </g>
        </g>
        <g transform="matrix(4.16667,0,0,4.16667,21791.3,7175.19)">
            <g transform="matrix(1,0,0,1,104.161,657.08)">
                <path d="M0,0.385C-0.081,-1.382 -0.158,-3.148 -0.245,-4.915C-0.289,-5.818 0.134,-6.404 1.024,-6.433C2.916,-6.496 4.811,-6.485 6.704,-6.504C6.791,-6.505 6.879,-6.481 6.967,-6.481C7.389,-6.478 7.811,-6.48 8.233,-6.48C8.219,-6.051 8.185,-5.622 8.193,-5.193C8.25,-2.275 8.333,0.643 8.366,3.562C8.375,4.351 8.27,5.147 8.16,5.931C8.025,6.889 7.999,6.89 7.009,6.877C5.018,6.852 3.026,6.807 1.035,6.798C0.512,6.795 0.235,6.696 0.203,6.08C0.107,4.184 -0.055,2.29 -0.191,0.397C-0.127,0.393 -0.063,0.389 0,0.385" style="fill:rgb(228,150,164);fill-rule:nonzero;"/>
            </g>
        </g>
        <g transform="matrix(4.16667,0,0,4.16667,21791.3,7175.19)">
            <g transform="matrix(1,0,0,1,80.6667,653.501)">
                <path d="M0,7.624L0,7.559C4.03,7.583 8.06,7.628 12.09,7.625C13.894,7.624 15.698,7.52 17.502,7.477C18.048,7.464 18.304,7.253 18.258,6.672C18.209,6.06 18.206,5.442 18.213,4.827C18.229,3.51 18.259,2.192 18.292,0.875C18.308,0.256 18.033,-0.025 17.407,0.028C17.144,0.051 16.875,0.031 16.609,0.032C12.98,0.041 9.353,0.071 5.724,0.056C1.227,0.035 -3.271,-0.036 -7.768,-0.06C-9.617,-0.068 -11.467,-0.006 -13.316,0.02C-15.618,0.052 -17.921,0.052 -20.223,0.119C-21.453,0.154 -21.538,0.27 -21.51,1.563C-21.474,3.246 -21.373,4.926 -21.329,6.607C-21.312,7.241 -21.013,7.396 -20.419,7.45C-18.527,7.624 -16.638,7.55 -14.744,7.546C-9.83,7.535 -4.915,7.594 0,7.624M-22.176,3.733C-22.168,2.449 -22.143,1.164 -22.16,-0.119C-22.167,-0.627 -21.973,-0.846 -21.474,-0.863C-20.943,-0.881 -20.413,-0.974 -19.883,-0.967C-12.099,-0.874 -4.315,-0.74 3.469,-0.679C7.539,-0.647 11.61,-0.75 15.682,-0.766C16.561,-0.77 17.439,-0.656 18.318,-0.605C18.807,-0.577 19.005,-0.347 19.013,0.155C19.052,2.586 19.118,5.017 19.175,7.447C19.196,8.386 19.191,8.427 18.232,8.434C14.605,8.46 10.979,8.474 7.351,8.468C2.613,8.461 -2.125,8.401 -6.862,8.418C-10.171,8.431 -13.479,8.554 -16.788,8.584C-18.247,8.598 -19.708,8.516 -21.166,8.45C-22.1,8.408 -22.133,8.375 -22.144,7.455C-22.157,6.215 -22.133,4.974 -22.125,3.733L-22.176,3.733Z" style="fill:rgb(35,31,32);fill-rule:nonzero;"/>
            </g>
        </g>
        <g transform="matrix(4.16667,0,0,4.16667,21791.3,7175.19)">
            <g transform="matrix(1,0,0,1,80.6667,653.437)">
                <path d="M0,7.688C-4.915,7.658 -9.83,7.599 -14.744,7.61C-16.638,7.614 -18.527,7.688 -20.419,7.514C-21.013,7.46 -21.312,7.305 -21.329,6.671C-21.373,4.99 -21.474,3.31 -21.51,1.627C-21.538,0.334 -21.453,0.218 -20.223,0.183C-17.921,0.116 -15.618,0.116 -13.316,0.084C-11.467,0.058 -9.617,-0.004 -7.768,0.004C-3.271,0.028 1.227,0.099 5.724,0.12C9.353,0.135 12.98,0.105 16.609,0.096C16.875,0.095 17.144,0.115 17.407,0.092C18.033,0.039 18.308,0.32 18.292,0.939C18.259,2.256 18.229,3.574 18.213,4.891C18.206,5.506 18.209,6.124 18.258,6.736C18.304,7.317 18.048,7.528 17.502,7.541C15.698,7.584 13.894,7.688 12.09,7.689C8.06,7.692 4.03,7.647 0,7.623L0,7.688Z" style="fill:rgb(189,86,160);fill-rule:nonzero;"/>
            </g>
        </g>
        <g transform="matrix(4.16667,0,0,4.16667,21791.3,7175.19)">
            <g transform="matrix(1,0,0,1,103.758,642.355)">
                <path d="M0,0.611C-0.064,0.614 -0.128,0.618 -0.191,0.622C-0.056,2.516 0.106,4.409 0.203,6.305C0.234,6.921 0.511,7.02 1.034,7.023C3.026,7.032 5.018,7.077 7.009,7.102C7.998,7.115 8.024,7.114 8.159,6.156C8.27,5.372 8.374,4.576 8.365,3.787C8.333,0.869 8.249,-2.049 8.192,-4.968C8.185,-5.396 8.219,-5.826 8.232,-6.254C7.811,-6.254 7.388,-6.253 6.966,-6.256C6.878,-6.256 6.791,-6.279 6.703,-6.279C4.81,-6.26 2.916,-6.271 1.024,-6.208C0.133,-6.178 -0.289,-5.593 -0.245,-4.69C-0.158,-2.923 -0.081,-1.157 0,0.611M-23.491,6.925L-23.491,6.9C-22.781,6.905 -22.072,6.911 -21.363,6.914C-14.892,6.941 -8.42,6.97 -1.949,6.994C-0.992,6.997 -0.964,6.985 -0.926,5.965C-0.874,4.557 -0.853,3.148 -0.85,1.74C-0.845,-0.381 -0.839,-2.502 -0.888,-4.623C-0.922,-6.123 -1.019,-6.222 -2.473,-6.218C-7.301,-6.205 -12.129,-6.168 -16.957,-6.121C-22.657,-6.067 -28.358,-5.985 -34.059,-5.93C-38.201,-5.89 -42.344,-5.879 -46.486,-5.841C-47.142,-5.835 -48.02,-5.991 -48.387,-5.641C-48.722,-5.323 -48.504,-4.422 -48.529,-3.778C-48.532,-3.689 -48.534,-3.6 -48.531,-3.511C-48.445,-0.411 -48.367,2.688 -48.269,5.788C-48.24,6.67 -48.214,6.67 -47.375,6.733C-47.242,6.744 -47.108,6.748 -46.976,6.749C-44.728,6.773 -42.479,6.803 -40.231,6.819C-34.651,6.858 -29.071,6.89 -23.491,6.925M9.005,0.796C9.05,2.311 9.107,4.171 9.157,6.029C9.165,6.339 9.136,6.648 9.124,6.958C9.102,7.528 8.801,7.653 8.251,7.66C5.239,7.694 2.229,7.8 -0.781,7.838C-3.261,7.869 -5.741,7.84 -8.221,7.833C-12.074,7.822 -15.927,7.801 -19.78,7.796C-22.612,7.792 -25.444,7.798 -28.275,7.812C-32.999,7.835 -37.723,7.872 -42.445,7.893C-44.127,7.9 -45.808,7.89 -47.488,7.862C-48.789,7.84 -49.236,7.401 -49.258,6.096C-49.27,5.353 -49.142,4.608 -49.151,3.864C-49.193,0.633 -49.262,-2.596 -49.321,-5.826C-49.344,-7.021 -49.272,-7.092 -48.052,-7.062C-45.096,-6.988 -42.14,-6.867 -39.184,-6.852C-35.911,-6.835 -32.638,-6.936 -29.365,-6.948C-25.067,-6.963 -20.769,-6.92 -16.471,-6.943C-10.712,-6.972 -4.952,-7.028 0.807,-7.096C3.058,-7.122 5.309,-7.23 7.56,-7.269C8.795,-7.289 9.03,-7.061 9.039,-5.798C9.054,-3.715 9.021,-1.631 9.005,0.796" style="fill:rgb(35,31,32);fill-rule:nonzero;"/>
            </g>
        </g>
        <g transform="matrix(4.16667,0,0,4.16667,21791.3,7175.19)">
            <g transform="matrix(1,0,0,1,58.0876,642.75)">
                <path d="M0,-0.015L0.05,-0.015C0.042,1.226 0.019,2.466 0.032,3.707C0.042,4.627 0.075,4.661 1.009,4.702C2.468,4.767 3.928,4.849 5.387,4.836C8.695,4.806 12.004,4.682 15.313,4.671C20.051,4.653 24.788,4.713 29.526,4.72C33.153,4.726 36.781,4.712 40.408,4.686C41.367,4.678 41.372,4.637 41.35,3.7C41.293,1.268 41.228,-1.162 41.188,-3.593C41.18,-4.095 40.981,-4.326 40.493,-4.354C39.614,-4.404 38.735,-4.517 37.856,-4.514C33.786,-4.498 29.715,-4.396 25.645,-4.427C17.86,-4.489 10.076,-4.622 2.292,-4.715C1.763,-4.722 1.232,-4.629 0.701,-4.611C0.203,-4.594 0.009,-4.375 0.016,-3.868C0.032,-2.583 0.008,-1.299 0,-0.015M22.179,6.531C16.599,6.496 11.019,6.464 5.438,6.424C3.19,6.409 0.942,6.379 -1.306,6.354C-1.438,6.353 -1.572,6.349 -1.705,6.339C-2.544,6.275 -2.57,6.275 -2.599,5.393C-2.697,2.294 -2.775,-0.806 -2.861,-3.906C-2.864,-3.994 -2.862,-4.083 -2.859,-4.172C-2.834,-4.817 -3.052,-5.717 -2.717,-6.036C-2.35,-6.385 -1.472,-6.23 -0.816,-6.236C3.326,-6.274 7.469,-6.285 11.611,-6.325C17.312,-6.379 23.013,-6.461 28.713,-6.516C33.541,-6.563 38.369,-6.6 43.197,-6.613C44.651,-6.617 44.748,-6.518 44.782,-5.018C44.831,-2.897 44.825,-0.776 44.82,1.345C44.817,2.754 44.796,4.163 44.744,5.57C44.706,6.59 44.678,6.602 43.721,6.599C37.25,6.576 30.778,6.547 24.307,6.519C23.598,6.516 22.889,6.51 22.179,6.506L22.179,6.531Z" style="fill:rgb(209,117,122);fill-rule:nonzero;"/>
            </g>
        </g>
        <g transform="matrix(4.16667,0,0,4.16667,21791.3,7175.19)">
            <g transform="matrix(1,0,0,1,103.758,642.58)">
                <path d="M0,0.386C-0.081,-1.382 -0.158,-3.148 -0.245,-4.915C-0.289,-5.818 0.133,-6.403 1.024,-6.433C2.916,-6.496 4.81,-6.485 6.703,-6.504C6.791,-6.504 6.878,-6.481 6.966,-6.481C7.388,-6.478 7.811,-6.479 8.232,-6.479C8.219,-6.051 8.185,-5.621 8.192,-5.193C8.249,-2.274 8.333,0.644 8.365,3.562C8.374,4.351 8.27,5.147 8.159,5.931C8.024,6.889 7.998,6.89 7.009,6.877C5.018,6.852 3.026,6.807 1.034,6.798C0.511,6.795 0.234,6.696 0.203,6.08C0.106,4.184 -0.056,2.291 -0.191,0.397C-0.128,0.393 -0.064,0.389 0,0.386" style="fill:rgb(228,150,164);fill-rule:nonzero;"/>
            </g>
        </g>
        <g transform="matrix(4.16667,0,0,4.16667,21791.3,7175.19)">
            <g transform="matrix(1,0,0,1,80.2624,639)">
                <path d="M0,7.626C0,7.604 0,7.581 0.001,7.56C4.03,7.585 8.061,7.629 12.09,7.626C13.895,7.625 15.698,7.522 17.503,7.478C18.048,7.465 18.305,7.254 18.258,6.674C18.209,6.062 18.206,5.443 18.214,4.829C18.229,3.511 18.259,2.193 18.292,0.876C18.309,0.258 18.033,-0.024 17.407,0.029C17.144,0.053 16.876,0.032 16.609,0.033C12.981,0.042 9.353,0.072 5.725,0.057C1.227,0.036 -3.271,-0.035 -7.768,-0.058C-9.617,-0.067 -11.467,-0.005 -13.316,0.022C-15.618,0.053 -17.921,0.053 -20.222,0.12C-21.452,0.155 -21.537,0.272 -21.51,1.565C-21.474,3.247 -21.373,4.928 -21.329,6.609C-21.312,7.242 -21.013,7.397 -20.419,7.451C-18.526,7.625 -16.637,7.551 -14.744,7.547C-9.829,7.537 -4.914,7.595 0,7.626M-22.175,3.734C-22.167,2.45 -22.143,1.166 -22.159,-0.118C-22.166,-0.626 -21.972,-0.845 -21.474,-0.861C-20.942,-0.88 -20.412,-0.973 -19.883,-0.966C-12.099,-0.873 -4.314,-0.739 3.47,-0.678C7.54,-0.646 11.611,-0.749 15.682,-0.765C16.561,-0.768 17.439,-0.654 18.318,-0.604C18.807,-0.576 19.005,-0.346 19.014,0.156C19.053,2.587 19.118,5.018 19.175,7.449C19.197,8.387 19.192,8.428 18.233,8.436C14.606,8.461 10.979,8.476 7.352,8.47C2.613,8.462 -2.124,8.402 -6.862,8.42C-10.171,8.432 -13.479,8.556 -16.788,8.585C-18.247,8.599 -19.707,8.517 -21.166,8.451C-22.1,8.41 -22.133,8.376 -22.143,7.456C-22.156,6.216 -22.133,4.976 -22.125,3.734L-22.175,3.734Z" style="fill:rgb(35,31,32);fill-rule:nonzero;"/>
            </g>
        </g>
        <g transform="matrix(4.16667,0,0,4.16667,21791.3,7175.19)">
            <g transform="matrix(1,0,0,1,80.2624,638.936)">
                <path d="M0,7.69C-4.914,7.659 -9.829,7.601 -14.744,7.611C-16.637,7.615 -18.526,7.689 -20.419,7.515C-21.013,7.461 -21.312,7.306 -21.329,6.673C-21.373,4.992 -21.474,3.311 -21.51,1.629C-21.537,0.336 -21.452,0.219 -20.222,0.184C-17.921,0.117 -15.618,0.117 -13.316,0.086C-11.467,0.059 -9.617,-0.003 -7.768,0.006C-3.271,0.029 1.227,0.1 5.725,0.121C9.353,0.136 12.981,0.106 16.609,0.097C16.876,0.096 17.144,0.117 17.407,0.093C18.033,0.04 18.309,0.322 18.292,0.94C18.259,2.257 18.229,3.575 18.214,4.893C18.206,5.507 18.209,6.126 18.258,6.738C18.305,7.318 18.048,7.529 17.503,7.542C15.698,7.586 13.895,7.689 12.09,7.69C8.061,7.693 4.03,7.649 0.001,7.624C0,7.645 0,7.668 0,7.69" style="fill:rgb(189,86,160);fill-rule:nonzero;"/>
            </g>
        </g>
        <g transform="matrix(4.16667,0,0,4.16667,21791.3,7175.19)">
            <g transform="matrix(1,0,0,1,158.277,671.015)">
                <path d="M0,0.611C-0.063,0.615 -0.127,0.619 -0.191,0.622C-0.055,2.516 0.107,4.409 0.203,6.305C0.235,6.921 0.512,7.021 1.035,7.023C3.026,7.032 5.018,7.077 7.009,7.103C7.999,7.116 8.025,7.114 8.16,6.157C8.27,5.372 8.375,4.577 8.366,3.788C8.333,0.869 8.25,-2.049 8.193,-4.967C8.185,-5.396 8.219,-5.826 8.233,-6.254C7.811,-6.254 7.389,-6.253 6.967,-6.255C6.879,-6.256 6.791,-6.279 6.704,-6.278C4.811,-6.26 2.916,-6.27 1.024,-6.207C0.134,-6.178 -0.289,-5.593 -0.245,-4.69C-0.158,-2.923 -0.081,-1.156 0,0.611M-23.49,6.925L-23.49,6.901C-22.781,6.905 -22.072,6.911 -21.362,6.914C-14.892,6.941 -8.42,6.97 -1.948,6.994C-0.992,6.998 -0.964,6.985 -0.926,5.965C-0.873,4.557 -0.853,3.149 -0.849,1.741C-0.845,-0.38 -0.839,-2.502 -0.888,-4.622C-0.922,-6.122 -1.019,-6.222 -2.472,-6.218C-7.3,-6.205 -12.128,-6.167 -16.956,-6.121C-22.657,-6.067 -28.357,-5.985 -34.059,-5.929C-38.2,-5.889 -42.343,-5.878 -46.485,-5.84C-47.142,-5.834 -48.019,-5.99 -48.386,-5.641C-48.722,-5.323 -48.504,-4.421 -48.528,-3.777C-48.532,-3.689 -48.533,-3.6 -48.531,-3.511C-48.445,-0.411 -48.366,2.688 -48.268,5.788C-48.239,6.67 -48.213,6.67 -47.374,6.734C-47.241,6.744 -47.108,6.748 -46.976,6.749C-44.728,6.773 -42.479,6.803 -40.23,6.82C-34.65,6.858 -29.07,6.89 -23.49,6.925M9.006,0.796C9.051,2.312 9.108,4.171 9.157,6.029C9.166,6.339 9.137,6.649 9.124,6.959C9.102,7.528 8.801,7.654 8.251,7.66C5.24,7.694 2.23,7.8 -0.781,7.839C-3.261,7.869 -5.74,7.84 -8.22,7.834C-12.073,7.822 -15.927,7.801 -19.779,7.797C-22.611,7.792 -25.443,7.798 -28.275,7.812C-32.998,7.835 -37.722,7.873 -42.445,7.893C-44.126,7.9 -45.808,7.891 -47.488,7.863C-48.789,7.84 -49.235,7.402 -49.257,6.096C-49.269,5.353 -49.141,4.608 -49.15,3.865C-49.192,0.634 -49.261,-2.596 -49.321,-5.826C-49.343,-7.021 -49.271,-7.092 -48.052,-7.061C-45.096,-6.988 -42.14,-6.867 -39.183,-6.851C-35.91,-6.834 -32.638,-6.935 -29.364,-6.948C-25.066,-6.963 -20.769,-6.92 -16.471,-6.943C-10.711,-6.972 -4.952,-7.028 0.808,-7.096C3.059,-7.122 5.309,-7.23 7.561,-7.268C8.796,-7.289 9.03,-7.06 9.039,-5.798C9.054,-3.714 9.021,-1.631 9.006,0.796" style="fill:rgb(35,31,32);fill-rule:nonzero;"/>
            </g>
        </g>
        <g transform="matrix(4.16667,0,0,4.16667,21791.3,7175.19)">
            <g transform="matrix(1,0,0,1,112.607,671.411)">
                <path d="M0,-0.016C0.017,-0.016 0.034,-0.016 0.051,-0.015C0.043,1.225 0.019,2.465 0.032,3.706C0.043,4.626 0.076,4.66 1.01,4.702C2.468,4.767 3.929,4.848 5.388,4.836C8.696,4.805 12.005,4.681 15.313,4.67C20.051,4.653 24.789,4.712 29.527,4.719C33.154,4.725 36.781,4.712 40.408,4.685C41.367,4.678 41.372,4.636 41.351,3.699C41.294,1.268 41.228,-1.162 41.188,-3.594C41.181,-4.095 40.982,-4.327 40.494,-4.354C39.615,-4.405 38.736,-4.518 37.857,-4.515C33.786,-4.498 29.715,-4.396 25.645,-4.428C17.86,-4.489 10.077,-4.622 2.293,-4.716C1.763,-4.722 1.232,-4.63 0.702,-4.612C0.203,-4.595 0.009,-4.375 0.016,-3.869C0.033,-2.584 0.008,-1.3 0,-0.016M22.18,6.53C16.6,6.495 11.02,6.463 5.439,6.424C3.19,6.408 0.942,6.378 -1.306,6.353C-1.438,6.352 -1.571,6.348 -1.704,6.338C-2.543,6.274 -2.569,6.274 -2.598,5.392C-2.696,2.293 -2.775,-0.807 -2.861,-3.907C-2.863,-3.995 -2.862,-4.084 -2.858,-4.172C-2.834,-4.817 -3.052,-5.718 -2.716,-6.037C-2.349,-6.385 -1.472,-6.23 -0.815,-6.236C3.327,-6.274 7.47,-6.285 11.611,-6.325C17.312,-6.38 23.013,-6.462 28.714,-6.517C33.542,-6.563 38.37,-6.601 43.198,-6.614C44.651,-6.618 44.748,-6.518 44.782,-5.018C44.831,-2.898 44.825,-0.776 44.821,1.345C44.817,2.754 44.797,4.162 44.744,5.569C44.706,6.589 44.678,6.602 43.722,6.598C37.25,6.575 30.778,6.546 24.308,6.518C23.598,6.515 22.889,6.509 22.18,6.505L22.18,6.53Z" style="fill:rgb(209,117,122);fill-rule:nonzero;"/>
            </g>
        </g>
        <g transform="matrix(4.16667,0,0,4.16667,21791.3,7175.19)">
            <g transform="matrix(1,0,0,1,158.277,671.241)">
                <path d="M0,0.385C-0.081,-1.382 -0.158,-3.149 -0.245,-4.916C-0.289,-5.819 0.134,-6.404 1.024,-6.433C2.916,-6.496 4.811,-6.486 6.704,-6.504C6.791,-6.505 6.879,-6.482 6.967,-6.481C7.389,-6.479 7.811,-6.48 8.233,-6.48C8.219,-6.052 8.185,-5.622 8.193,-5.193C8.25,-2.275 8.333,0.643 8.366,3.562C8.375,4.351 8.27,5.146 8.16,5.931C8.025,6.888 7.999,6.89 7.009,6.877C5.018,6.851 3.026,6.806 1.035,6.797C0.512,6.795 0.235,6.695 0.203,6.079C0.107,4.183 -0.055,2.29 -0.191,0.396C-0.127,0.393 -0.063,0.389 0,0.385" style="fill:rgb(228,150,164);fill-rule:nonzero;"/>
            </g>
        </g>
        <g transform="matrix(4.16667,0,0,4.16667,21791.3,7175.19)">
            <g transform="matrix(1,0,0,1,134.783,667.662)">
                <path d="M0,7.625L0,7.559C4.03,7.584 8.06,7.629 12.09,7.626C13.894,7.624 15.698,7.521 17.502,7.478C18.048,7.464 18.304,7.253 18.258,6.673C18.209,6.061 18.206,5.443 18.213,4.828C18.229,3.511 18.259,2.192 18.292,0.875C18.308,0.257 18.033,-0.024 17.407,0.029C17.144,0.052 16.875,0.031 16.609,0.032C12.98,0.042 9.353,0.072 5.724,0.056C1.227,0.035 -3.271,-0.036 -7.768,-0.059C-9.617,-0.068 -11.467,-0.005 -13.316,0.021C-15.618,0.052 -17.921,0.053 -20.223,0.119C-21.453,0.155 -21.538,0.271 -21.51,1.564C-21.474,3.246 -21.373,4.927 -21.329,6.608C-21.312,7.241 -21.013,7.396 -20.419,7.451C-18.527,7.624 -16.638,7.551 -14.744,7.547C-9.83,7.536 -4.915,7.594 0,7.625M-22.176,3.733C-22.168,2.449 -22.143,1.165 -22.16,-0.119C-22.167,-0.626 -21.973,-0.846 -21.474,-0.862C-20.943,-0.881 -20.413,-0.973 -19.883,-0.967C-12.099,-0.873 -4.315,-0.739 3.469,-0.679C7.539,-0.646 11.61,-0.749 15.682,-0.766C16.561,-0.769 17.439,-0.655 18.318,-0.604C18.807,-0.577 19.005,-0.346 19.013,0.155C19.052,2.587 19.118,5.018 19.175,7.448C19.196,8.386 19.191,8.428 18.232,8.435C14.605,8.461 10.979,8.475 7.352,8.469C2.613,8.461 -2.125,8.402 -6.862,8.419C-10.171,8.431 -13.479,8.555 -16.788,8.585C-18.247,8.598 -19.708,8.517 -21.166,8.451C-22.1,8.409 -22.133,8.375 -22.144,7.455C-22.157,6.215 -22.133,4.975 -22.125,3.734C-22.142,3.733 -22.159,3.733 -22.176,3.733" style="fill:rgb(35,31,32);fill-rule:nonzero;"/>
            </g>
        </g>
        <g transform="matrix(4.16667,0,0,4.16667,21791.3,7175.19)">
            <g transform="matrix(1,0,0,1,134.783,667.598)">
                <path d="M0,7.689C-4.915,7.658 -9.83,7.6 -14.744,7.611C-16.638,7.615 -18.527,7.688 -20.419,7.515C-21.013,7.46 -21.312,7.305 -21.329,6.672C-21.373,4.991 -21.474,3.31 -21.51,1.628C-21.538,0.335 -21.453,0.219 -20.223,0.183C-17.921,0.117 -15.618,0.116 -13.316,0.085C-11.467,0.059 -9.617,-0.004 -7.768,0.005C-3.271,0.028 1.227,0.099 5.724,0.12C9.353,0.136 12.98,0.106 16.609,0.096C16.875,0.095 17.144,0.116 17.407,0.093C18.033,0.04 18.308,0.321 18.292,0.939C18.259,2.256 18.229,3.575 18.213,4.892C18.206,5.507 18.209,6.125 18.258,6.737C18.304,7.317 18.048,7.528 17.502,7.542C15.698,7.585 13.894,7.688 12.09,7.69C8.06,7.693 4.03,7.648 0,7.623L0,7.689Z" style="fill:rgb(189,86,160);fill-rule:nonzero;"/>
            </g>
        </g>
        <g transform="matrix(4.16667,0,0,4.16667,21791.3,7175.19)">
            <g transform="matrix(1,0,0,1,158.333,656.885)">
                <path d="M0,0.611C-0.063,0.615 -0.128,0.618 -0.191,0.622C-0.055,2.516 0.106,4.409 0.203,6.305C0.234,6.921 0.512,7.02 1.035,7.023C3.026,7.032 5.018,7.077 7.009,7.102C7.999,7.116 8.025,7.114 8.159,6.157C8.27,5.372 8.375,4.577 8.366,3.787C8.333,0.869 8.25,-2.049 8.193,-4.968C8.185,-5.396 8.219,-5.826 8.233,-6.254C7.811,-6.254 7.389,-6.253 6.966,-6.256C6.879,-6.256 6.791,-6.279 6.703,-6.279C4.811,-6.26 2.916,-6.27 1.024,-6.207C0.134,-6.178 -0.289,-5.593 -0.245,-4.69C-0.158,-2.923 -0.081,-1.157 0,0.611M-23.49,6.925L-23.49,6.9C-22.781,6.905 -22.072,6.911 -21.363,6.914C-14.892,6.941 -8.42,6.97 -1.948,6.994C-0.992,6.997 -0.964,6.985 -0.926,5.965C-0.873,4.557 -0.853,3.149 -0.85,1.741C-0.845,-0.381 -0.839,-2.502 -0.888,-4.623C-0.922,-6.122 -1.019,-6.222 -2.473,-6.218C-7.301,-6.205 -12.129,-6.168 -16.956,-6.121C-22.657,-6.067 -28.357,-5.985 -34.059,-5.93C-38.201,-5.89 -42.344,-5.878 -46.485,-5.841C-47.142,-5.835 -48.02,-5.991 -48.387,-5.641C-48.722,-5.323 -48.504,-4.422 -48.528,-3.778C-48.532,-3.689 -48.533,-3.6 -48.531,-3.511C-48.445,-0.411 -48.366,2.688 -48.268,5.788C-48.239,6.67 -48.213,6.67 -47.374,6.733C-47.241,6.744 -47.108,6.748 -46.976,6.749C-44.728,6.773 -42.479,6.803 -40.231,6.819C-34.651,6.858 -29.07,6.89 -23.49,6.925M9.006,0.796C9.05,2.311 9.108,4.171 9.157,6.029C9.165,6.339 9.137,6.648 9.124,6.958C9.102,7.528 8.801,7.653 8.251,7.66C5.24,7.694 2.229,7.8 -0.781,7.838C-3.261,7.869 -5.74,7.84 -8.221,7.833C-12.073,7.822 -15.927,7.801 -19.78,7.796C-22.611,7.792 -25.443,7.798 -28.275,7.812C-32.999,7.835 -37.722,7.873 -42.445,7.893C-44.126,7.9 -45.808,7.891 -47.488,7.862C-48.789,7.84 -49.236,7.402 -49.257,6.096C-49.269,5.353 -49.142,4.608 -49.15,3.864C-49.192,0.633 -49.262,-2.596 -49.321,-5.826C-49.343,-7.021 -49.271,-7.092 -48.052,-7.062C-45.096,-6.988 -42.14,-6.867 -39.184,-6.852C-35.91,-6.835 -32.638,-6.936 -29.364,-6.948C-25.066,-6.963 -20.769,-6.92 -16.471,-6.943C-10.711,-6.972 -4.952,-7.028 0.807,-7.096C3.059,-7.122 5.309,-7.23 7.561,-7.269C8.796,-7.289 9.03,-7.06 9.039,-5.798C9.054,-3.715 9.021,-1.631 9.006,0.796" style="fill:rgb(35,31,32);fill-rule:nonzero;"/>
            </g>
        </g>
        <g transform="matrix(4.16667,0,0,4.16667,21791.3,7175.19)">
            <g transform="matrix(1,0,0,1,112.663,657.279)">
                <path d="M0,-0.015L0.051,-0.015C0.043,1.226 0.019,2.466 0.032,3.707C0.043,4.627 0.076,4.661 1.01,4.703C2.468,4.767 3.929,4.849 5.387,4.836C8.696,4.806 12.004,4.682 15.313,4.671C20.051,4.653 24.789,4.713 29.526,4.72C33.154,4.726 36.781,4.712 40.408,4.686C41.367,4.679 41.372,4.637 41.351,3.7C41.293,1.268 41.228,-1.162 41.188,-3.593C41.181,-4.095 40.981,-4.326 40.494,-4.353C39.614,-4.404 38.736,-4.517 37.857,-4.514C33.786,-4.498 29.715,-4.396 25.645,-4.427C17.86,-4.489 10.076,-4.621 2.293,-4.715C1.763,-4.722 1.232,-4.629 0.702,-4.611C0.203,-4.594 0.009,-4.375 0.016,-3.868C0.033,-2.583 0.008,-1.299 0,-0.015M22.18,6.531C16.6,6.496 11.019,6.464 5.438,6.424C3.19,6.409 0.942,6.379 -1.306,6.354C-1.438,6.353 -1.571,6.349 -1.704,6.339C-2.543,6.275 -2.569,6.275 -2.598,5.393C-2.696,2.294 -2.775,-0.806 -2.861,-3.906C-2.863,-3.994 -2.862,-4.083 -2.858,-4.172C-2.834,-4.817 -3.052,-5.717 -2.717,-6.036C-2.35,-6.385 -1.472,-6.23 -0.815,-6.236C3.326,-6.273 7.469,-6.285 11.611,-6.325C17.312,-6.379 23.013,-6.461 28.714,-6.516C33.541,-6.563 38.369,-6.6 43.197,-6.613C44.651,-6.617 44.748,-6.517 44.782,-5.018C44.831,-2.897 44.825,-0.776 44.82,1.346C44.817,2.755 44.797,4.163 44.744,5.57C44.706,6.59 44.678,6.602 43.722,6.599C37.25,6.576 30.778,6.547 24.307,6.519C23.598,6.516 22.889,6.51 22.18,6.506L22.18,6.531Z" style="fill:rgb(209,117,122);fill-rule:nonzero;"/>
            </g>
        </g>
        <g transform="matrix(4.16667,0,0,4.16667,21791.3,7175.19)">
            <g transform="matrix(1,0,0,1,158.333,657.111)">
                <path d="M0,0.385C-0.081,-1.383 -0.158,-3.149 -0.245,-4.916C-0.289,-5.819 0.134,-6.404 1.024,-6.433C2.916,-6.496 4.811,-6.486 6.703,-6.505C6.791,-6.505 6.879,-6.482 6.966,-6.482C7.389,-6.479 7.811,-6.48 8.233,-6.48C8.219,-6.052 8.185,-5.622 8.193,-5.194C8.25,-2.275 8.333,0.643 8.366,3.561C8.375,4.351 8.27,5.146 8.159,5.931C8.025,6.888 7.999,6.89 7.009,6.876C5.018,6.851 3.026,6.806 1.035,6.797C0.512,6.794 0.234,6.695 0.203,6.079C0.106,4.183 -0.055,2.29 -0.191,0.396C-0.128,0.392 -0.063,0.389 0,0.385" style="fill:rgb(228,150,164);fill-rule:nonzero;"/>
            </g>
        </g>
        <g transform="matrix(4.16667,0,0,4.16667,21791.3,7175.19)">
            <g transform="matrix(1,0,0,1,134.839,653.53)">
                <path d="M0,7.626L0,7.56C4.03,7.585 8.06,7.629 12.09,7.626C13.894,7.625 15.698,7.522 17.502,7.478C18.048,7.465 18.304,7.254 18.258,6.674C18.209,6.062 18.206,5.443 18.213,4.829C18.229,3.511 18.258,2.193 18.292,0.876C18.308,0.258 18.033,-0.024 17.407,0.029C17.143,0.053 16.875,0.032 16.609,0.033C12.98,0.042 9.352,0.072 5.724,0.057C1.227,0.036 -3.271,-0.035 -7.769,-0.058C-9.617,-0.067 -11.467,-0.005 -13.316,0.022C-15.618,0.053 -17.922,0.054 -20.223,0.12C-21.453,0.155 -21.538,0.272 -21.51,1.565C-21.474,3.247 -21.374,4.928 -21.329,6.609C-21.312,7.242 -21.013,7.397 -20.419,7.452C-18.527,7.625 -16.638,7.551 -14.744,7.547C-9.83,7.537 -4.915,7.595 0,7.626M-22.176,3.734C-22.168,2.45 -22.143,1.166 -22.16,-0.118C-22.167,-0.626 -21.973,-0.845 -21.474,-0.861C-20.943,-0.88 -20.413,-0.973 -19.883,-0.966C-12.1,-0.872 -4.315,-0.739 3.469,-0.678C7.539,-0.646 11.61,-0.749 15.682,-0.765C16.561,-0.768 17.438,-0.654 18.318,-0.603C18.806,-0.576 19.005,-0.346 19.013,0.156C19.052,2.587 19.117,5.018 19.175,7.449C19.196,8.387 19.191,8.429 18.232,8.436C14.605,8.461 10.979,8.476 7.351,8.47C2.613,8.462 -2.125,8.402 -6.862,8.42C-10.172,8.432 -13.479,8.556 -16.789,8.585C-18.247,8.599 -19.708,8.517 -21.166,8.452C-22.1,8.41 -22.133,8.376 -22.144,7.456C-22.157,6.216 -22.133,4.976 -22.125,3.734L-22.176,3.734Z" style="fill:rgb(35,31,32);fill-rule:nonzero;"/>
            </g>
        </g>
        <g transform="matrix(4.16667,0,0,4.16667,21791.3,7175.19)">
            <g transform="matrix(1,0,0,1,134.839,653.466)">
                <path d="M0,7.69C-4.915,7.659 -9.83,7.601 -14.744,7.611C-16.638,7.615 -18.527,7.689 -20.419,7.516C-21.013,7.461 -21.312,7.306 -21.329,6.673C-21.374,4.992 -21.474,3.311 -21.51,1.629C-21.538,0.336 -21.453,0.219 -20.223,0.184C-17.922,0.118 -15.618,0.117 -13.316,0.086C-11.467,0.059 -9.617,-0.003 -7.769,0.006C-3.271,0.029 1.227,0.1 5.724,0.121C9.352,0.136 12.98,0.106 16.609,0.097C16.875,0.096 17.143,0.117 17.407,0.093C18.033,0.04 18.308,0.322 18.292,0.94C18.258,2.257 18.229,3.575 18.213,4.893C18.206,5.507 18.209,6.126 18.258,6.738C18.304,7.318 18.048,7.529 17.502,7.542C15.698,7.586 13.894,7.689 12.09,7.69C8.06,7.693 4.03,7.649 0,7.624L0,7.69Z" style="fill:rgb(189,86,160);fill-rule:nonzero;"/>
            </g>
        </g>
        <g transform="matrix(4.16667,0,0,4.16667,21791.3,7175.19)">
            <g transform="matrix(1,0,0,1,157.929,642.385)">
                <path d="M0,0.611C-0.064,0.615 -0.128,0.619 -0.191,0.622C-0.056,2.516 0.106,4.409 0.203,6.305C0.234,6.921 0.511,7.021 1.034,7.023C3.025,7.032 5.017,7.077 7.009,7.103C7.998,7.116 8.024,7.114 8.159,6.157C8.27,5.372 8.374,4.577 8.365,3.788C8.333,0.869 8.249,-2.049 8.192,-4.967C8.185,-5.396 8.218,-5.826 8.232,-6.254C7.811,-6.254 7.388,-6.253 6.966,-6.255C6.878,-6.256 6.79,-6.279 6.703,-6.278C4.81,-6.26 2.916,-6.27 1.023,-6.207C0.133,-6.178 -0.29,-5.593 -0.245,-4.69C-0.159,-2.923 -0.082,-1.156 0,0.611M-23.491,6.925L-23.491,6.901C-22.781,6.905 -22.072,6.911 -21.363,6.914C-14.892,6.941 -8.42,6.97 -1.949,6.994C-0.993,6.998 -0.964,6.985 -0.926,5.965C-0.874,4.557 -0.853,3.149 -0.85,1.741C-0.845,-0.38 -0.84,-2.502 -0.888,-4.622C-0.922,-6.122 -1.019,-6.222 -2.473,-6.218C-7.301,-6.205 -12.129,-6.168 -16.957,-6.121C-22.658,-6.067 -28.358,-5.985 -34.06,-5.929C-38.201,-5.889 -42.344,-5.878 -46.486,-5.841C-47.142,-5.834 -48.02,-5.99 -48.387,-5.641C-48.722,-5.323 -48.504,-4.421 -48.529,-3.778C-48.532,-3.689 -48.534,-3.6 -48.531,-3.511C-48.445,-0.411 -48.367,2.688 -48.269,5.788C-48.24,6.67 -48.214,6.67 -47.375,6.734C-47.242,6.744 -47.108,6.748 -46.976,6.749C-44.728,6.773 -42.479,6.803 -40.231,6.819C-34.651,6.858 -29.071,6.89 -23.491,6.925M9.005,0.796C9.05,2.312 9.107,4.171 9.157,6.029C9.165,6.339 9.136,6.649 9.124,6.959C9.101,7.528 8.8,7.654 8.251,7.66C5.239,7.694 2.229,7.8 -0.782,7.839C-3.261,7.869 -5.741,7.84 -8.221,7.834C-12.074,7.822 -15.927,7.801 -19.78,7.797C-22.612,7.792 -25.444,7.798 -28.275,7.812C-32.999,7.835 -37.723,7.873 -42.445,7.893C-44.127,7.9 -45.808,7.891 -47.488,7.863C-48.789,7.84 -49.236,7.402 -49.258,6.096C-49.27,5.353 -49.142,4.608 -49.151,3.865C-49.193,0.634 -49.262,-2.596 -49.321,-5.826C-49.344,-7.021 -49.272,-7.092 -48.053,-7.061C-45.096,-6.988 -42.141,-6.867 -39.184,-6.851C-35.911,-6.834 -32.638,-6.935 -29.365,-6.948C-25.067,-6.963 -20.769,-6.92 -16.471,-6.943C-10.712,-6.972 -4.952,-7.028 0.807,-7.096C3.058,-7.122 5.309,-7.23 7.56,-7.268C8.795,-7.289 9.029,-7.06 9.039,-5.798C9.054,-3.714 9.021,-1.631 9.005,0.796" style="fill:rgb(35,31,32);fill-rule:nonzero;"/>
            </g>
        </g>
        <g transform="matrix(4.16667,0,0,4.16667,21791.3,7175.19)">
            <g transform="matrix(1,0,0,1,112.258,642.78)">
                <path d="M0,-0.016C0.018,-0.016 0.034,-0.016 0.051,-0.015C0.043,1.225 0.019,2.465 0.033,3.706C0.043,4.626 0.076,4.66 1.01,4.702C2.469,4.767 3.929,4.848 5.388,4.836C8.696,4.805 12.005,4.681 15.313,4.67C20.052,4.653 24.789,4.712 29.527,4.719C33.154,4.725 36.782,4.711 40.409,4.685C41.368,4.678 41.373,4.636 41.351,3.699C41.294,1.268 41.228,-1.162 41.189,-3.594C41.181,-4.095 40.982,-4.327 40.494,-4.354C39.615,-4.405 38.736,-4.518 37.857,-4.515C33.787,-4.498 29.716,-4.396 25.646,-4.428C17.861,-4.489 10.077,-4.622 2.293,-4.716C1.764,-4.722 1.233,-4.63 0.702,-4.612C0.204,-4.595 0.01,-4.375 0.017,-3.869C0.033,-2.584 0.009,-1.3 0,-0.016M22.18,6.53C16.6,6.495 11.02,6.463 5.439,6.423C3.191,6.408 0.943,6.378 -1.305,6.353C-1.437,6.352 -1.571,6.348 -1.704,6.338C-2.543,6.274 -2.569,6.274 -2.598,5.392C-2.696,2.293 -2.774,-0.807 -2.86,-3.907C-2.863,-3.995 -2.861,-4.084 -2.858,-4.173C-2.833,-4.817 -3.051,-5.718 -2.716,-6.037C-2.349,-6.385 -1.471,-6.23 -0.815,-6.237C3.327,-6.274 7.47,-6.285 11.611,-6.325C17.312,-6.38 23.013,-6.462 28.714,-6.517C33.542,-6.564 38.37,-6.601 43.198,-6.614C44.652,-6.618 44.749,-6.518 44.783,-5.018C44.831,-2.898 44.826,-0.776 44.821,1.345C44.818,2.754 44.797,4.162 44.745,5.569C44.707,6.589 44.678,6.602 43.722,6.598C37.251,6.575 30.779,6.546 24.308,6.518C23.599,6.515 22.89,6.509 22.18,6.505L22.18,6.53Z" style="fill:rgb(209,117,122);fill-rule:nonzero;"/>
            </g>
        </g>
        <g transform="matrix(4.16667,0,0,4.16667,21791.3,7175.19)">
            <g transform="matrix(1,0,0,1,157.929,642.611)">
                <path d="M0,0.385C-0.082,-1.382 -0.159,-3.149 -0.245,-4.916C-0.29,-5.819 0.133,-6.404 1.023,-6.433C2.916,-6.496 4.81,-6.486 6.703,-6.504C6.79,-6.505 6.878,-6.482 6.966,-6.481C7.388,-6.479 7.811,-6.48 8.232,-6.48C8.218,-6.052 8.185,-5.622 8.192,-5.193C8.249,-2.275 8.333,0.643 8.365,3.562C8.374,4.351 8.27,5.146 8.159,5.931C8.024,6.888 7.998,6.89 7.009,6.877C5.017,6.851 3.025,6.806 1.034,6.797C0.511,6.795 0.234,6.695 0.203,6.079C0.106,4.183 -0.056,2.29 -0.191,0.396C-0.128,0.393 -0.064,0.389 0,0.385" style="fill:rgb(228,150,164);fill-rule:nonzero;"/>
            </g>
        </g>
        <g transform="matrix(4.16667,0,0,4.16667,21791.3,7175.19)">
            <g transform="matrix(1,0,0,1,134.434,639.031)">
                <path d="M0,7.625L0,7.559C4.03,7.584 8.061,7.629 12.09,7.626C13.895,7.624 15.698,7.521 17.503,7.478C18.048,7.464 18.305,7.253 18.258,6.673C18.209,6.061 18.206,5.443 18.214,4.828C18.229,3.511 18.259,2.192 18.292,0.875C18.308,0.257 18.033,-0.024 17.407,0.029C17.144,0.052 16.876,0.031 16.609,0.032C12.981,0.042 9.353,0.072 5.724,0.056C1.227,0.035 -3.271,-0.036 -7.768,-0.059C-9.617,-0.068 -11.467,-0.005 -13.316,0.021C-15.618,0.052 -17.921,0.053 -20.222,0.119C-21.452,0.155 -21.537,0.271 -21.51,1.564C-21.474,3.246 -21.373,4.927 -21.329,6.608C-21.312,7.241 -21.013,7.396 -20.419,7.451C-18.526,7.624 -16.638,7.551 -14.744,7.547C-9.829,7.536 -4.915,7.594 0,7.625M-22.176,3.733C-22.167,2.449 -22.143,1.165 -22.159,-0.119C-22.166,-0.626 -21.972,-0.846 -21.474,-0.862C-20.942,-0.881 -20.412,-0.973 -19.883,-0.967C-12.099,-0.873 -4.314,-0.739 3.47,-0.679C7.54,-0.646 11.611,-0.749 15.682,-0.766C16.561,-0.769 17.439,-0.655 18.318,-0.604C18.807,-0.577 19.005,-0.346 19.014,0.155C19.052,2.587 19.118,5.018 19.175,7.448C19.197,8.386 19.192,8.428 18.233,8.435C14.606,8.46 10.979,8.475 7.352,8.469C2.613,8.461 -2.124,8.402 -6.862,8.419C-10.171,8.431 -13.479,8.555 -16.788,8.585C-18.247,8.598 -19.707,8.517 -21.166,8.451C-22.1,8.409 -22.133,8.375 -22.143,7.455C-22.157,6.215 -22.133,4.975 -22.125,3.734C-22.142,3.733 -22.158,3.733 -22.176,3.733" style="fill:rgb(35,31,32);fill-rule:nonzero;"/>
            </g>
        </g>
        <g transform="matrix(4.16667,0,0,4.16667,21791.3,7175.19)">
            <g transform="matrix(1,0,0,1,134.434,638.967)">
                <path d="M0,7.689C-4.915,7.658 -9.829,7.6 -14.744,7.611C-16.638,7.615 -18.526,7.688 -20.419,7.515C-21.013,7.46 -21.312,7.305 -21.329,6.672C-21.373,4.991 -21.474,3.31 -21.51,1.628C-21.537,0.335 -21.452,0.219 -20.222,0.183C-17.921,0.117 -15.618,0.116 -13.316,0.085C-11.467,0.059 -9.617,-0.004 -7.768,0.005C-3.271,0.028 1.227,0.099 5.724,0.12C9.353,0.136 12.981,0.106 16.609,0.096C16.876,0.095 17.144,0.116 17.407,0.093C18.033,0.04 18.308,0.321 18.292,0.939C18.259,2.256 18.229,3.575 18.214,4.892C18.206,5.507 18.209,6.125 18.258,6.737C18.305,7.317 18.048,7.528 17.503,7.542C15.698,7.585 13.895,7.688 12.09,7.69C8.061,7.693 4.03,7.648 0,7.623L0,7.689Z" style="fill:rgb(189,86,160);fill-rule:nonzero;"/>
            </g>
        </g>
        <g transform="matrix(4.16667,0,0,4.16667,21791.3,7175.19)">
            <g transform="matrix(1,0,0,1,103.813,628.224)">
                <path d="M0,0.61C-0.064,0.614 -0.128,0.618 -0.191,0.622C-0.056,2.515 0.106,4.409 0.203,6.305C0.234,6.921 0.511,7.02 1.034,7.023C3.025,7.032 5.017,7.077 7.009,7.102C7.998,7.115 8.024,7.114 8.159,6.156C8.27,5.372 8.374,4.576 8.365,3.787C8.333,0.868 8.249,-2.05 8.192,-4.968C8.185,-5.397 8.218,-5.826 8.232,-6.255C7.811,-6.255 7.388,-6.253 6.966,-6.256C6.878,-6.257 6.79,-6.28 6.703,-6.279C4.81,-6.26 2.916,-6.271 1.023,-6.208C0.133,-6.179 -0.29,-5.593 -0.245,-4.69C-0.159,-2.923 -0.082,-1.157 0,0.61M-23.491,6.925L-23.491,6.9C-22.781,6.905 -22.072,6.91 -21.363,6.913C-14.892,6.941 -8.421,6.97 -1.949,6.993C-0.993,6.997 -0.964,6.985 -0.926,5.964C-0.874,4.557 -0.853,3.148 -0.85,1.74C-0.845,-0.381 -0.84,-2.503 -0.888,-4.623C-0.922,-6.123 -1.019,-6.223 -2.473,-6.219C-7.301,-6.205 -12.129,-6.168 -16.957,-6.121C-22.658,-6.067 -28.358,-5.986 -34.06,-5.93C-38.201,-5.89 -42.344,-5.879 -46.486,-5.841C-47.142,-5.835 -48.02,-5.991 -48.387,-5.642C-48.722,-5.323 -48.504,-4.422 -48.529,-3.778C-48.532,-3.689 -48.534,-3.6 -48.531,-3.512C-48.445,-0.412 -48.367,2.688 -48.269,5.787C-48.24,6.669 -48.214,6.669 -47.375,6.733C-47.242,6.743 -47.109,6.747 -46.976,6.749C-44.728,6.773 -42.479,6.803 -40.231,6.819C-34.651,6.858 -29.071,6.89 -23.491,6.925M9.005,0.796C9.05,2.311 9.107,4.17 9.156,6.029C9.165,6.338 9.136,6.648 9.124,6.958C9.101,7.528 8.8,7.653 8.251,7.66C5.239,7.694 2.229,7.8 -0.782,7.838C-3.261,7.868 -5.741,7.839 -8.221,7.833C-12.074,7.822 -15.927,7.801 -19.78,7.796C-22.612,7.792 -25.444,7.797 -28.275,7.811C-32.999,7.835 -37.723,7.872 -42.445,7.892C-44.127,7.9 -45.808,7.89 -47.488,7.862C-48.789,7.84 -49.236,7.401 -49.258,6.095C-49.27,5.352 -49.142,4.607 -49.151,3.864C-49.193,0.633 -49.262,-2.596 -49.321,-5.827C-49.344,-7.021 -49.272,-7.092 -48.053,-7.062C-45.096,-6.988 -42.141,-6.867 -39.184,-6.852C-35.911,-6.835 -32.638,-6.936 -29.365,-6.948C-25.067,-6.963 -20.769,-6.921 -16.471,-6.943C-10.712,-6.972 -4.952,-7.028 0.807,-7.096C3.058,-7.122 5.309,-7.231 7.56,-7.269C8.795,-7.29 9.029,-7.061 9.039,-5.798C9.054,-3.715 9.021,-1.631 9.005,0.796" style="fill:rgb(35,31,32);fill-rule:nonzero;"/>
            </g>
        </g>
        <g transform="matrix(4.16667,0,0,4.16667,21791.3,7175.19)">
            <g transform="matrix(1,0,0,1,58.1423,628.618)">
                <path d="M0,-0.014L0.051,-0.014C0.043,1.226 0.019,2.467 0.033,3.708C0.043,4.628 0.076,4.661 1.01,4.703C2.469,4.768 3.929,4.85 5.388,4.837C8.696,4.806 12.005,4.683 15.313,4.671C20.051,4.654 24.789,4.714 29.527,4.72C33.154,4.726 36.782,4.713 40.409,4.686C41.368,4.679 41.373,4.638 41.351,3.7C41.294,1.269 41.228,-1.161 41.188,-3.592C41.181,-4.094 40.982,-4.325 40.494,-4.353C39.615,-4.404 38.736,-4.517 37.857,-4.513C33.787,-4.497 29.716,-4.395 25.646,-4.427C17.86,-4.488 10.077,-4.621 2.293,-4.714C1.764,-4.721 1.233,-4.628 0.702,-4.611C0.204,-4.593 0.01,-4.374 0.017,-3.867C0.033,-2.583 0.009,-1.298 0,-0.014M22.18,6.532C16.6,6.497 11.02,6.465 5.439,6.425C3.191,6.41 0.943,6.38 -1.305,6.355C-1.438,6.353 -1.571,6.349 -1.704,6.34C-2.543,6.275 -2.569,6.275 -2.598,5.393C-2.696,2.295 -2.774,-0.806 -2.86,-3.906C-2.863,-3.993 -2.861,-4.082 -2.858,-4.171C-2.833,-4.816 -3.051,-5.716 -2.716,-6.035C-2.349,-6.384 -1.471,-6.229 -0.815,-6.235C3.327,-6.273 7.47,-6.284 11.611,-6.324C17.312,-6.379 23.013,-6.46 28.714,-6.515C33.542,-6.562 38.37,-6.599 43.198,-6.613C44.652,-6.617 44.749,-6.517 44.783,-5.017C44.831,-2.897 44.826,-0.775 44.821,1.346C44.818,2.755 44.797,4.164 44.745,5.571C44.707,6.591 44.678,6.603 43.722,6.599C37.25,6.577 30.779,6.548 24.308,6.519C23.599,6.516 22.89,6.511 22.18,6.507L22.18,6.532Z" style="fill:rgb(209,117,122);fill-rule:nonzero;"/>
            </g>
        </g>
        <g transform="matrix(4.16667,0,0,4.16667,21791.3,7175.19)">
            <g transform="matrix(1,0,0,1,103.813,628.449)">
                <path d="M0,0.385C-0.082,-1.382 -0.159,-3.148 -0.245,-4.915C-0.29,-5.818 0.133,-6.404 1.023,-6.433C2.916,-6.496 4.81,-6.485 6.703,-6.504C6.79,-6.505 6.878,-6.482 6.966,-6.481C7.388,-6.478 7.811,-6.48 8.232,-6.48C8.218,-6.051 8.185,-5.622 8.192,-5.193C8.249,-2.275 8.333,0.643 8.365,3.562C8.374,4.351 8.27,5.147 8.159,5.931C8.024,6.889 7.998,6.89 7.009,6.877C5.017,6.852 3.025,6.807 1.034,6.798C0.511,6.795 0.234,6.696 0.203,6.08C0.106,4.184 -0.056,2.29 -0.191,0.397C-0.128,0.393 -0.064,0.389 0,0.385" style="fill:rgb(228,150,164);fill-rule:nonzero;"/>
            </g>
        </g>
        <g transform="matrix(4.16667,0,0,4.16667,21791.3,7175.19)">
            <g transform="matrix(1,0,0,1,80.318,624.871)">
                <path d="M0,7.624L0,7.559C4.03,7.583 8.061,7.628 12.09,7.625C13.895,7.624 15.698,7.52 17.503,7.477C18.048,7.464 18.305,7.253 18.258,6.672C18.209,6.06 18.206,5.442 18.214,4.827C18.229,3.51 18.259,2.192 18.292,0.875C18.308,0.256 18.033,-0.025 17.407,0.028C17.144,0.051 16.876,0.031 16.609,0.031C12.981,0.041 9.353,0.071 5.724,0.056C1.227,0.035 -3.271,-0.036 -7.768,-0.06C-9.617,-0.068 -11.467,-0.006 -13.316,0.02C-15.618,0.052 -17.921,0.052 -20.222,0.119C-21.452,0.154 -21.537,0.27 -21.51,1.563C-21.474,3.246 -21.373,4.926 -21.329,6.607C-21.312,7.241 -21.013,7.395 -20.419,7.45C-18.526,7.624 -16.638,7.55 -14.744,7.546C-9.829,7.535 -4.915,7.594 0,7.624M-22.176,3.733C-22.167,2.449 -22.143,1.164 -22.159,-0.119C-22.166,-0.627 -21.972,-0.846 -21.474,-0.863C-20.942,-0.881 -20.412,-0.974 -19.883,-0.967C-12.099,-0.874 -4.315,-0.74 3.47,-0.68C7.54,-0.647 11.611,-0.75 15.682,-0.766C16.561,-0.77 17.439,-0.656 18.318,-0.605C18.807,-0.577 19.005,-0.347 19.013,0.155C19.052,2.586 19.118,5.017 19.175,7.447C19.197,8.386 19.192,8.427 18.233,8.434C14.606,8.46 10.979,8.474 7.352,8.468C2.613,8.461 -2.125,8.401 -6.862,8.418C-10.171,8.431 -13.479,8.554 -16.788,8.584C-18.247,8.598 -19.707,8.516 -21.166,8.45C-22.1,8.408 -22.133,8.375 -22.143,7.455C-22.157,6.215 -22.133,4.974 -22.125,3.733L-22.176,3.733Z" style="fill:rgb(35,31,32);fill-rule:nonzero;"/>
            </g>
        </g>
        <g transform="matrix(4.16667,0,0,4.16667,21791.3,7175.19)">
            <g transform="matrix(1,0,0,1,80.318,624.807)">
                <path d="M0,7.688C-4.915,7.658 -9.829,7.599 -14.744,7.61C-16.638,7.614 -18.526,7.688 -20.419,7.514C-21.013,7.459 -21.312,7.305 -21.329,6.671C-21.373,4.99 -21.474,3.31 -21.51,1.627C-21.537,0.334 -21.452,0.218 -20.222,0.183C-17.921,0.116 -15.618,0.116 -13.316,0.084C-11.467,0.058 -9.617,-0.004 -7.768,0.004C-3.271,0.028 1.227,0.099 5.724,0.12C9.353,0.135 12.981,0.105 16.609,0.095C16.876,0.095 17.144,0.115 17.407,0.092C18.033,0.039 18.308,0.32 18.292,0.939C18.259,2.256 18.229,3.574 18.214,4.891C18.206,5.506 18.209,6.124 18.258,6.736C18.305,7.317 18.048,7.528 17.503,7.541C15.698,7.584 13.895,7.688 12.09,7.689C8.061,7.692 4.03,7.647 0,7.623L0,7.688Z" style="fill:rgb(189,86,160);fill-rule:nonzero;"/>
            </g>
        </g>
        <g transform="matrix(4.16667,0,0,4.16667,21791.3,7175.19)">
            <text x="60.087px" y="630.475px" style="font-family:'LucidaGrande', 'Lucida Grande', sans-serif;font-weight:500;font-size:5.997px;fill:white;">2<tspan x="63.771px 67.456px 69.247px 72.21px 75.414px 77.76px 80.964px 86.455px 89.688px 91.314px 94.89px " y="630.475px 630.475px 630.475px 630.475px 630.475px 630.475px 630.475px 630.475px 630.475px 630.475px 630.475px ">0 caramelos</tspan></text>
            <text x="60.087px" y="644.621px" style="font-family:'LucidaGrande', 'Lucida Grande', sans-serif;font-weight:500;font-size:5.997px;fill:white;">2<tspan x="63.771px 67.456px 69.247px 72.21px 75.414px 77.76px 80.964px 86.455px 89.688px 91.314px 94.89px " y="644.621px 644.621px 644.621px 644.621px 644.621px 644.621px 644.621px 644.621px 644.621px 644.621px 644.621px ">0 caramelos</tspan></text>
            <text x="60.087px" y="659.148px" style="font-family:'LucidaGrande', 'Lucida Grande', sans-serif;font-weight:500;font-size:5.997px;fill:white;">2<tspan x="63.771px 67.456px 69.247px 72.21px 75.414px 77.76px 80.964px 86.455px 89.688px 91.314px 94.89px " y="659.148px 659.148px 659.148px 659.148px 659.148px 659.148px 659.148px 659.148px 659.148px 659.148px 659.148px ">0 caramelos</tspan></text>
            <text x="60.087px" y="673.295px" style="font-family:'LucidaGrande', 'Lucida Grande', sans-serif;font-weight:500;font-size:5.997px;fill:white;">2<tspan x="63.771px 67.456px 69.247px 72.21px 75.414px 77.76px 80.964px 86.455px 89.688px 91.314px 94.89px " y="673.295px 673.295px 673.295px 673.295px 673.295px 673.295px 673.295px 673.295px 673.295px 673.295px 673.295px ">0 caramelos</tspan></text>
        </g>
        <g transform="matrix(4.16667,0,0,4.16667,21791.3,7175.19)">
            <text x="114.405px" y="644.621px" style="font-family:'LucidaGrande', 'Lucida Grande', sans-serif;font-weight:500;font-size:5.997px;fill:white;">2<tspan x="118.09px 121.774px 123.565px 126.529px 129.733px 132.079px 135.283px 140.773px 144.007px 145.632px 149.208px " y="644.621px 644.621px 644.621px 644.621px 644.621px 644.621px 644.621px 644.621px 644.621px 644.621px 644.621px ">0 caramelos</tspan></text>
            <text x="114.405px" y="659.148px" style="font-family:'LucidaGrande', 'Lucida Grande', sans-serif;font-weight:500;font-size:5.997px;fill:white;">2<tspan x="118.09px 121.774px 123.565px 126.529px 129.733px 132.079px 135.283px 140.773px 144.007px 145.632px 149.208px " y="659.148px 659.148px 659.148px 659.148px 659.148px 659.148px 659.148px 659.148px 659.148px 659.148px 659.148px ">0 caramelos</tspan></text>
            <text x="114.405px" y="673.294px" style="font-family:'LucidaGrande', 'Lucida Grande', sans-serif;font-weight:500;font-size:5.997px;fill:white;">2<tspan x="118.09px 121.774px 123.565px 126.529px 129.733px 132.079px 135.283px 140.773px 144.007px 145.632px 149.208px " y="673.294px 673.294px 673.294px 673.294px 673.294px 673.294px 673.294px 673.294px 673.294px 673.294px 673.294px ">0 caramelos</tspan></text>
        </g>
    </g>
</svg>
