<?xml version="1.0" encoding="UTF-8" standalone="no"?>
<!DOCTYPE svg PUBLIC "-//W3C//DTD SVG 1.1//EN" "http://www.w3.org/Graphics/SVG/1.1/DTD/svg11.dtd">
<svg width="100%" height="100%" viewBox="0 0 502 367" version="1.1" xmlns="http://www.w3.org/2000/svg" xmlns:xlink="http://www.w3.org/1999/xlink" xml:space="preserve" xmlns:serif="http://www.serif.com/" style="fill-rule:evenodd;clip-rule:evenodd;stroke-linejoin:round;stroke-miterlimit:2;">
    <g transform="matrix(1,0,0,1,-23465.5,-9705.71)">
        <g transform="matrix(4.16667,0,0,4.16667,21791.3,7175.19)">
            <g transform="matrix(1,0,0,1,447.25,686.56)">
                <path d="M0,0.357L0.018,0.357C0.03,-0.706 0.044,-1.769 0.055,-2.832C0.061,-3.374 -0.179,-3.634 -0.751,-3.62C-1.946,-3.591 -3.144,-3.624 -4.338,-3.584C-5.292,-3.551 -5.314,-3.52 -5.327,-2.603C-5.352,-0.831 -5.35,0.941 -5.35,2.712C-5.349,2.975 -5.295,3.238 -5.267,3.502C-5.213,4.005 -5.019,4.276 -4.427,4.259C-3.232,4.226 -2.036,4.257 -0.843,4.305C-0.267,4.329 -0.034,4.107 -0.034,3.546C-0.035,2.483 -0.013,1.42 0,0.357M74.074,0.521C74.025,0.52 73.977,0.52 73.928,0.519C73.939,-0.544 73.926,-1.609 73.977,-2.669C74.002,-3.2 73.717,-3.459 73.299,-3.459C71.804,-3.462 70.309,-3.385 68.812,-3.367C68.333,-3.361 68.195,-3.126 68.206,-2.708C68.266,-0.455 68.313,1.798 68.403,4.049C68.41,4.202 68.726,4.468 68.897,4.468C70.312,4.469 71.727,4.424 73.142,4.381C73.939,4.358 74.026,4.258 74.039,3.438C74.053,2.465 74.062,1.493 74.074,0.521M-44.506,0.222C-44.472,0.222 -44.438,0.223 -44.403,0.223C-44.417,1.371 -44.425,2.518 -44.447,3.666C-44.455,4.065 -44.242,4.236 -43.886,4.243C-42.382,4.27 -40.877,4.292 -39.373,4.295C-39.162,4.295 -38.951,4.18 -38.74,4.118C-38.338,3.999 -38.22,3.766 -38.266,3.325C-38.353,2.496 -38.344,1.657 -38.372,0.823C-38.416,-0.455 -38.466,-1.734 -38.496,-3.012C-38.512,-3.65 -38.846,-3.826 -39.435,-3.823C-40.806,-3.816 -42.178,-3.874 -43.549,-3.872C-44.391,-3.87 -44.437,-3.814 -44.463,-2.959C-44.497,-1.899 -44.493,-0.838 -44.506,0.222M37.475,4.503C37.46,4.156 37.44,3.944 37.443,3.731C37.473,1.694 37.52,-0.342 37.532,-2.379C37.539,-3.429 37.514,-3.448 36.542,-3.462C34.903,-3.488 33.265,-3.498 31.626,-3.493C30.634,-3.489 30.615,-3.468 30.679,-2.429C30.802,-0.444 30.938,1.541 31.088,3.524C31.153,4.39 31.183,4.419 32.031,4.435C33.803,4.47 35.574,4.481 37.475,4.503M38.673,4.532C39.714,4.471 40.725,4.36 41.736,4.362C45.764,4.372 49.791,4.421 53.819,4.446C58.104,4.473 62.39,4.492 66.675,4.506C67.467,4.509 67.598,4.407 67.604,3.583C67.618,1.588 67.606,-0.407 67.568,-2.401C67.551,-3.31 67.456,-3.375 66.574,-3.387C64.139,-3.417 61.703,-3.455 59.268,-3.452C57.99,-3.451 56.712,-3.333 55.435,-3.338C54.066,-3.343 52.699,-3.444 51.33,-3.478C50.008,-3.51 48.685,-3.528 47.362,-3.521C44.577,-3.507 41.791,-3.469 39.006,-3.45C38.563,-3.447 38.363,-3.259 38.367,-2.812C38.372,-2.059 38.316,-1.304 38.354,-0.552C38.434,1.076 38.556,2.703 38.673,4.532M14.403,-3.482C13.379,-3.494 11.34,-3.522 9.302,-3.541C6.729,-3.566 4.158,-3.597 1.587,-3.599C0.591,-3.599 0.573,-3.567 0.578,-2.55C0.588,-0.555 0.607,1.44 0.646,3.434C0.662,4.258 0.719,4.274 1.597,4.286C4.296,4.323 6.994,4.379 9.692,4.406C11.992,4.429 14.293,4.431 16.593,4.425C19.376,4.419 22.159,4.388 24.943,4.378C26.317,4.373 27.692,4.371 29.065,4.406C29.661,4.421 30.034,4.235 30.017,3.605C29.953,1.449 30.16,-0.712 29.812,-2.867C29.723,-3.415 29.53,-3.519 29.073,-3.517C24.521,-3.502 19.97,-3.495 14.403,-3.482M-37.656,-3.809C-37.616,-1.495 -37.575,0.702 -37.541,2.898C-37.525,3.913 -37.434,4.043 -36.403,4.079C-34.647,4.141 -32.891,4.197 -31.134,4.197C-27.967,4.198 -24.8,4.132 -21.633,4.138C-16.769,4.148 -11.904,4.184 -7.04,4.24C-6.461,4.247 -6.245,4.09 -6.245,3.512C-6.242,1.608 -6.204,-0.296 -6.194,-2.201C-6.192,-2.463 -6.265,-2.727 -6.313,-2.989C-6.389,-3.395 -6.59,-3.552 -7.048,-3.542C-8.591,-3.507 -10.136,-3.527 -11.681,-3.545C-15.441,-3.589 -19.202,-3.655 -22.963,-3.693C-26.593,-3.729 -30.224,-3.74 -33.854,-3.765C-35.089,-3.774 -36.323,-3.793 -37.656,-3.809M71.546,8.007C71.547,7.979 71.547,7.952 71.548,7.923C72.033,7.902 72.525,7.923 73.001,7.844C73.362,7.785 73.964,7.65 74.004,7.456C74.14,6.791 74.091,6.084 74.059,5.395C74.056,5.329 73.672,5.235 73.464,5.233C72.626,5.224 71.788,5.256 70.95,5.256C66.047,5.259 61.143,5.262 56.239,5.257C50.657,5.252 45.076,5.24 39.494,5.228C36.007,5.22 32.521,5.215 29.033,5.195C23.146,5.159 17.26,5.095 11.373,5.075C7.657,5.061 3.941,5.12 0.226,5.115C-2.826,5.111 -5.877,5.061 -8.928,5.031C-13.621,4.984 -18.313,4.91 -23.007,4.896C-27.018,4.884 -31.028,4.951 -35.04,4.964C-37.369,4.972 -39.698,4.942 -42.027,4.935C-42.604,4.933 -43.18,4.938 -43.755,4.967C-44.1,4.985 -44.342,5.139 -44.305,5.552C-44.28,5.817 -44.297,6.085 -44.286,6.35C-44.251,7.207 -44.052,7.431 -43.209,7.533C-42.99,7.559 -42.766,7.535 -42.544,7.538C-38.297,7.59 -34.05,7.637 -29.804,7.701C-24.224,7.784 -18.645,7.925 -13.064,7.958C-6.991,7.993 -0.916,7.938 5.158,7.912C8.439,7.897 11.722,7.834 15.003,7.842C17.836,7.849 20.67,7.983 23.503,7.958C26.772,7.927 30.041,7.689 33.31,7.717C36.357,7.744 39.396,7.967 42.457,7.854C46.307,7.711 50.167,7.878 54.023,7.899C58.097,7.921 62.17,7.925 66.243,7.947C68.011,7.956 69.778,7.986 71.546,8.007M64.433,-4.236C64.434,-4.275 64.435,-4.314 64.435,-4.353C67.048,-4.323 69.662,-4.341 72.272,-4.245C74.36,-4.166 74.09,-4.294 73.88,-6.154C73.774,-7.093 73.568,-7.2 72.583,-7.183C70.288,-7.144 67.993,-7.112 65.698,-7.119C62.286,-7.127 58.875,-7.178 55.463,-7.2C53.165,-7.215 50.866,-7.206 48.568,-7.218C47.069,-7.226 45.571,-7.274 44.073,-7.265C41.998,-7.252 39.923,-7.172 37.849,-7.177C31.302,-7.194 24.756,-7.238 18.209,-7.267C13.78,-7.288 9.351,-7.295 4.922,-7.321C-1.543,-7.36 -8.007,-7.418 -14.472,-7.45C-16.904,-7.461 -19.338,-7.396 -21.771,-7.412C-24.988,-7.433 -28.206,-7.529 -31.423,-7.537C-34.392,-7.544 -37.36,-7.485 -40.328,-7.445C-41.076,-7.434 -41.828,-7.323 -42.571,-7.364C-44.654,-7.479 -45.09,-7.009 -44.63,-4.99C-44.594,-4.83 -44.387,-4.635 -44.223,-4.592C-43.931,-4.515 -43.611,-4.528 -43.304,-4.529C-41.049,-4.536 -38.794,-4.572 -36.54,-4.551C-35.085,-4.538 -33.632,-4.406 -32.177,-4.396C-30.809,-4.386 -29.44,-4.505 -28.072,-4.5C-24.704,-4.487 -21.337,-4.414 -17.969,-4.404C-12.923,-4.387 -7.877,-4.42 -2.831,-4.398C-0.141,-4.386 2.554,-4.18 5.238,-4.284C8.688,-4.416 12.123,-3.978 15.574,-4.217C17.469,-4.349 19.383,-4.18 21.288,-4.189C25.175,-4.208 29.061,-4.289 32.946,-4.285C38.351,-4.279 43.755,-4.198 49.159,-4.189C51.458,-4.185 53.757,-4.321 56.056,-4.326C58.848,-4.332 61.641,-4.269 64.433,-4.236M-23.994,-8.246C-20.14,-8.2 -16.286,-8.13 -12.433,-8.114C-5.036,-8.081 2.359,-8.091 9.755,-8.06C15.237,-8.037 20.719,-7.952 26.2,-7.94C30.891,-7.929 35.581,-7.977 40.271,-8.016C42.036,-8.031 43.802,-8.135 45.566,-8.128C50.384,-8.111 55.201,-8.059 60.019,-8.016C63.423,-7.986 66.827,-7.943 70.231,-7.918C71.413,-7.91 72.596,-7.951 73.778,-7.945C74.315,-7.943 74.669,-7.777 74.67,-7.093C74.672,-5.371 74.786,-3.647 74.799,-1.924C74.815,0.463 74.769,2.852 74.775,5.24C74.777,6.076 74.865,6.911 74.9,7.747C74.925,8.341 74.654,8.638 74.025,8.629C72.962,8.617 71.898,8.66 70.835,8.653C66.491,8.626 62.147,8.572 57.804,8.559C50.894,8.539 43.983,8.525 37.073,8.544C33.399,8.554 29.726,8.67 26.051,8.679C22.435,8.688 18.817,8.594 15.201,8.594C8.469,8.594 1.736,8.638 -4.996,8.649C-10.666,8.659 -16.337,8.66 -22.007,8.637C-24.738,8.627 -27.469,8.546 -30.2,8.509C-32.141,8.484 -34.081,8.461 -36.021,8.472C-37.166,8.479 -38.312,8.598 -39.456,8.588C-41.132,8.574 -42.807,8.488 -44.482,8.436C-44.993,8.42 -45.149,8.15 -45.143,7.662C-45.107,5.408 -45.045,3.152 -45.092,0.899C-45.133,-1.082 -45.315,-3.06 -45.418,-5.041C-45.452,-5.705 -45.434,-6.37 -45.437,-7.035C-45.441,-8.227 -45.441,-8.233 -44.322,-8.248C-42.858,-8.269 -41.396,-8.287 -39.932,-8.291C-34.619,-8.308 -29.307,-8.318 -23.994,-8.331L-23.994,-8.246Z" style="fill:rgb(35,31,32);fill-rule:nonzero;"/>
            </g>
        </g>
        <g transform="matrix(4.16667,0,0,4.16667,21791.3,7175.19)">
            <g transform="matrix(1,0,0,1,511.683,679.273)">
                <path d="M0,3.051C-2.792,3.018 -5.585,2.954 -8.377,2.961C-10.676,2.966 -12.975,3.102 -15.273,3.098C-20.678,3.089 -26.082,3.008 -31.486,3.002C-35.372,2.998 -39.258,3.078 -43.145,3.098C-45.05,3.107 -46.964,2.938 -48.858,3.07C-52.31,3.309 -55.745,2.87 -59.194,3.003C-61.879,3.107 -64.573,2.901 -67.264,2.889C-72.31,2.866 -77.355,2.9 -82.401,2.883C-85.77,2.872 -89.137,2.8 -92.505,2.786C-93.873,2.781 -95.241,2.901 -96.609,2.891C-98.064,2.881 -99.518,2.749 -100.973,2.736C-103.227,2.715 -105.481,2.751 -107.736,2.758C-108.044,2.759 -108.363,2.772 -108.655,2.695C-108.819,2.652 -109.026,2.457 -109.062,2.297C-109.522,0.278 -109.087,-0.192 -107.004,-0.077C-106.261,-0.036 -105.509,-0.147 -104.761,-0.158C-101.793,-0.198 -98.824,-0.258 -95.855,-0.25C-92.639,-0.242 -89.421,-0.146 -86.204,-0.125C-83.77,-0.109 -81.337,-0.175 -78.904,-0.163C-72.439,-0.132 -65.976,-0.073 -59.511,-0.034C-55.082,-0.009 -50.652,-0.001 -46.224,0.02C-39.677,0.049 -33.131,0.093 -26.584,0.11C-24.51,0.114 -22.435,0.034 -20.359,0.022C-18.861,0.013 -17.363,0.061 -15.864,0.069C-13.566,0.08 -11.268,0.072 -8.97,0.087C-5.558,0.109 -2.146,0.159 1.266,0.168C3.561,0.175 5.855,0.143 8.15,0.104C9.136,0.087 9.342,0.194 9.447,1.133C9.657,2.992 9.928,3.12 7.84,3.042C5.229,2.946 2.615,2.964 0.002,2.934C0.002,2.973 0.001,3.012 0,3.051" style="fill:rgb(198,168,112);fill-rule:nonzero;"/>
            </g>
        </g>
        <g transform="matrix(4.16667,0,0,4.16667,21791.3,7175.19)">
            <g transform="matrix(1,0,0,1,518.796,691.445)">
                <path d="M0,3.123C-1.768,3.102 -3.535,3.071 -5.303,3.062C-9.376,3.041 -13.449,3.037 -17.522,3.015C-21.379,2.993 -25.239,2.827 -29.089,2.97C-32.149,3.083 -35.188,2.859 -38.236,2.833C-41.505,2.805 -44.773,3.043 -48.043,3.073C-50.876,3.099 -53.71,2.965 -56.543,2.958C-59.824,2.949 -63.106,3.013 -66.388,3.027C-72.462,3.054 -78.537,3.108 -84.61,3.073C-90.19,3.041 -95.77,2.899 -101.35,2.816C-105.596,2.753 -109.843,2.706 -114.09,2.653C-114.312,2.65 -114.536,2.675 -114.755,2.648C-115.598,2.547 -115.797,2.322 -115.832,1.466C-115.843,1.2 -115.826,0.933 -115.851,0.668C-115.888,0.255 -115.645,0.101 -115.301,0.083C-114.726,0.054 -114.149,0.049 -113.573,0.051C-111.244,0.058 -108.915,0.088 -106.586,0.08C-102.574,0.066 -98.563,0 -94.553,0.012C-89.859,0.025 -85.167,0.1 -80.474,0.146C-77.423,0.177 -74.372,0.227 -71.32,0.23C-67.604,0.235 -63.889,0.177 -60.173,0.19C-54.286,0.211 -48.399,0.274 -42.513,0.31C-39.025,0.331 -35.539,0.336 -32.052,0.344C-26.47,0.355 -20.889,0.367 -15.307,0.373C-10.403,0.378 -5.499,0.375 -0.596,0.372C0.242,0.372 1.08,0.34 1.918,0.349C2.126,0.351 2.51,0.444 2.513,0.511C2.545,1.199 2.594,1.906 2.458,2.571C2.418,2.766 1.816,2.9 1.455,2.96C0.979,3.039 0.487,3.018 0.002,3.039C0.001,3.067 0.001,3.095 0,3.123" style="fill:rgb(198,168,112);fill-rule:nonzero;"/>
            </g>
        </g>
        <g transform="matrix(4.16667,0,0,4.16667,21791.3,7175.19)">
            <g transform="matrix(1,0,0,1,484.725,683.062)">
                <path d="M0,8.002C-1.9,7.98 -3.672,7.969 -5.443,7.934C-6.292,7.917 -6.321,7.889 -6.387,7.023C-6.536,5.039 -6.673,3.055 -6.796,1.069C-6.859,0.03 -6.841,0.01 -5.849,0.006C-4.21,0 -2.571,0.011 -0.933,0.036C0.039,0.051 0.064,0.069 0.058,1.119C0.045,3.156 -0.002,5.192 -0.031,7.23C-0.034,7.442 -0.015,7.654 0,8.002" style="fill:rgb(198,168,112);fill-rule:nonzero;"/>
            </g>
        </g>
        <g transform="matrix(4.16667,0,0,4.16667,21791.3,7175.19)">
            <g transform="matrix(1,0,0,1,402.744,686.758)">
                <path d="M0,0.024C0.013,-1.037 0.009,-2.097 0.043,-3.158C0.069,-4.012 0.115,-4.068 0.957,-4.07C2.328,-4.073 3.7,-4.014 5.071,-4.021C5.66,-4.024 5.994,-3.848 6.01,-3.21C6.04,-1.932 6.09,-0.654 6.134,0.625C6.162,1.459 6.153,2.297 6.24,3.127C6.286,3.568 6.168,3.8 5.766,3.92C5.555,3.982 5.344,4.097 5.133,4.096C3.629,4.093 2.124,4.072 0.62,4.045C0.264,4.038 0.051,3.867 0.059,3.467C0.081,2.32 0.089,1.172 0.103,0.025C0.068,0.025 0.034,0.024 0,0.024" style="fill:rgb(198,168,112);fill-rule:nonzero;"/>
            </g>
        </g>
        <g transform="matrix(4.16667,0,0,4.16667,21791.3,7175.19)">
            <g transform="matrix(1,0,0,1,521.324,687.046)">
                <path d="M0,0.035C-0.012,1.007 -0.021,1.979 -0.035,2.952C-0.048,3.772 -0.135,3.872 -0.933,3.895C-2.348,3.938 -3.762,3.983 -5.177,3.982C-5.349,3.982 -5.664,3.716 -5.671,3.563C-5.761,1.312 -5.809,-0.942 -5.868,-3.194C-5.879,-3.612 -5.741,-3.847 -5.262,-3.853C-3.766,-3.871 -2.271,-3.948 -0.775,-3.945C-0.357,-3.945 -0.072,-3.686 -0.098,-3.155C-0.148,-2.095 -0.135,-1.03 -0.146,0.033C-0.098,0.034 -0.049,0.034 0,0.035" style="fill:rgb(198,168,112);fill-rule:nonzero;"/>
            </g>
        </g>
        <g transform="matrix(4.16667,0,0,4.16667,21791.3,7175.19)">
            <g transform="matrix(1,0,0,1,447.25,686.898)">
                <path d="M0,0.019C-0.013,1.082 -0.035,2.145 -0.034,3.208C-0.034,3.769 -0.267,3.991 -0.843,3.967C-2.036,3.919 -3.232,3.888 -4.427,3.921C-5.019,3.938 -5.213,3.667 -5.267,3.164C-5.295,2.9 -5.349,2.637 -5.35,2.374C-5.35,0.603 -5.352,-1.169 -5.327,-2.941C-5.314,-3.858 -5.292,-3.889 -4.338,-3.922C-3.144,-3.962 -1.946,-3.929 -0.751,-3.958C-0.179,-3.972 0.061,-3.712 0.055,-3.17C0.044,-2.107 0.03,-1.044 0.018,0.019L0,0.019Z" style="fill:rgb(198,168,112);fill-rule:nonzero;"/>
            </g>
        </g>
        <g transform="matrix(4.16667,0,0,4.16667,21791.3,7175.19)">
            <g transform="matrix(1,0,0,1,453.292,670.986)">
                <path d="M0,0.611C-0.063,0.615 -0.127,0.618 -0.191,0.622C-0.055,2.516 0.107,4.409 0.204,6.305C0.235,6.921 0.512,7.021 1.035,7.023C3.026,7.032 5.018,7.077 7.01,7.103C7.999,7.116 8.025,7.114 8.16,6.157C8.27,5.372 8.375,4.577 8.366,3.787C8.334,0.869 8.25,-2.049 8.193,-4.967C8.186,-5.396 8.219,-5.826 8.233,-6.254C7.812,-6.254 7.389,-6.253 6.967,-6.255C6.879,-6.256 6.791,-6.279 6.704,-6.278C4.811,-6.26 2.916,-6.27 1.024,-6.207C0.134,-6.178 -0.289,-5.593 -0.244,-4.69C-0.158,-2.923 -0.081,-1.156 0,0.611M-23.49,6.925L-23.49,6.901C-22.781,6.905 -22.071,6.911 -21.362,6.914C-14.891,6.941 -8.42,6.97 -1.948,6.994C-0.992,6.998 -0.963,6.985 -0.926,5.965C-0.873,4.557 -0.852,3.149 -0.849,1.741C-0.844,-0.38 -0.839,-2.502 -0.887,-4.622C-0.922,-6.122 -1.018,-6.222 -2.472,-6.218C-7.3,-6.205 -12.128,-6.168 -16.956,-6.121C-22.657,-6.067 -28.357,-5.985 -34.059,-5.93C-38.2,-5.889 -42.343,-5.878 -46.485,-5.841C-47.141,-5.834 -48.019,-5.99 -48.386,-5.641C-48.721,-5.323 -48.503,-4.421 -48.528,-3.778C-48.531,-3.689 -48.533,-3.6 -48.53,-3.511C-48.444,-0.411 -48.366,2.688 -48.268,5.788C-48.239,6.67 -48.213,6.67 -47.374,6.734C-47.241,6.744 -47.108,6.748 -46.975,6.749C-44.727,6.773 -42.479,6.803 -40.23,6.819C-34.65,6.858 -29.07,6.89 -23.49,6.925M9.006,0.796C9.051,2.312 9.108,4.171 9.157,6.029C9.166,6.339 9.137,6.648 9.124,6.959C9.102,7.528 8.801,7.654 8.252,7.66C5.24,7.694 2.23,7.8 -0.781,7.839C-3.26,7.869 -5.74,7.84 -8.22,7.834C-12.073,7.822 -15.927,7.801 -19.779,7.797C-22.611,7.792 -25.443,7.798 -28.274,7.812C-32.998,7.835 -37.722,7.873 -42.444,7.893C-44.126,7.9 -45.807,7.891 -47.487,7.863C-48.788,7.84 -49.235,7.402 -49.257,6.096C-49.269,5.353 -49.141,4.608 -49.15,3.865C-49.192,0.634 -49.261,-2.596 -49.32,-5.826C-49.343,-7.021 -49.271,-7.092 -48.052,-7.061C-45.095,-6.988 -42.14,-6.867 -39.183,-6.851C-35.91,-6.834 -32.638,-6.935 -29.364,-6.948C-25.066,-6.963 -20.769,-6.92 -16.471,-6.943C-10.711,-6.972 -4.951,-7.028 0.808,-7.096C3.059,-7.122 5.31,-7.23 7.561,-7.268C8.796,-7.289 9.03,-7.06 9.039,-5.798C9.055,-3.715 9.021,-1.631 9.006,0.796" style="fill:rgb(35,31,32);fill-rule:nonzero;"/>
            </g>
        </g>
        <g transform="matrix(4.16667,0,0,4.16667,21791.3,7175.19)">
            <g transform="matrix(1,0,0,1,407.622,671.381)">
                <path d="M0,-0.016C0.018,-0.016 0.034,-0.016 0.051,-0.015C0.043,1.225 0.019,2.465 0.033,3.706C0.043,4.626 0.076,4.66 1.01,4.702C2.468,4.767 3.929,4.848 5.388,4.836C8.696,4.805 12.005,4.681 15.313,4.67C20.051,4.653 24.789,4.712 29.527,4.719C33.154,4.725 36.781,4.711 40.409,4.685C41.367,4.678 41.372,4.636 41.351,3.699C41.294,1.268 41.228,-1.162 41.188,-3.594C41.181,-4.095 40.982,-4.327 40.494,-4.354C39.615,-4.405 38.736,-4.518 37.857,-4.515C33.787,-4.499 29.716,-4.396 25.646,-4.428C17.86,-4.489 10.077,-4.622 2.293,-4.716C1.763,-4.722 1.233,-4.63 0.702,-4.612C0.204,-4.595 0.01,-4.375 0.017,-3.869C0.033,-2.584 0.009,-1.3 0,-0.016M22.18,6.53C16.6,6.495 11.02,6.463 5.439,6.423C3.191,6.408 0.943,6.378 -1.305,6.353C-1.438,6.352 -1.571,6.348 -1.704,6.338C-2.543,6.274 -2.569,6.274 -2.598,5.392C-2.696,2.293 -2.774,-0.807 -2.86,-3.907C-2.863,-3.995 -2.861,-4.084 -2.858,-4.173C-2.833,-4.817 -3.051,-5.718 -2.716,-6.037C-2.349,-6.385 -1.471,-6.23 -0.815,-6.237C3.327,-6.274 7.47,-6.285 11.611,-6.326C17.312,-6.38 23.013,-6.462 28.714,-6.517C33.542,-6.564 38.37,-6.601 43.198,-6.614C44.652,-6.618 44.748,-6.518 44.783,-5.018C44.831,-2.898 44.826,-0.776 44.821,1.345C44.818,2.754 44.797,4.162 44.744,5.569C44.707,6.589 44.678,6.602 43.722,6.598C37.25,6.575 30.779,6.546 24.308,6.518C23.599,6.515 22.889,6.509 22.18,6.505L22.18,6.53Z" style="fill:rgb(209,117,122);fill-rule:nonzero;"/>
            </g>
        </g>
        <g transform="matrix(4.16667,0,0,4.16667,21791.3,7175.19)">
            <g transform="matrix(1,0,0,1,453.292,671.212)">
                <path d="M0,0.385C-0.081,-1.382 -0.158,-3.149 -0.244,-4.916C-0.289,-5.819 0.134,-6.404 1.024,-6.433C2.916,-6.496 4.811,-6.486 6.704,-6.504C6.791,-6.505 6.879,-6.482 6.967,-6.481C7.389,-6.479 7.812,-6.48 8.233,-6.48C8.219,-6.052 8.186,-5.622 8.193,-5.193C8.25,-2.275 8.334,0.643 8.366,3.561C8.375,4.351 8.27,5.146 8.16,5.931C8.025,6.888 7.999,6.89 7.01,6.877C5.018,6.851 3.026,6.806 1.035,6.797C0.512,6.795 0.235,6.695 0.204,6.079C0.107,4.183 -0.055,2.29 -0.191,0.396C-0.127,0.392 -0.063,0.389 0,0.385" style="fill:rgb(228,150,164);fill-rule:nonzero;"/>
            </g>
        </g>
        <g transform="matrix(4.16667,0,0,4.16667,21791.3,7175.19)">
            <g transform="matrix(1,0,0,1,429.798,667.632)">
                <path d="M0,7.625L0,7.559C4.03,7.584 8.061,7.629 12.09,7.626C13.895,7.624 15.698,7.521 17.503,7.478C18.048,7.464 18.305,7.253 18.258,6.673C18.209,6.061 18.206,5.443 18.214,4.828C18.229,3.511 18.259,2.192 18.292,0.875C18.308,0.257 18.033,-0.024 17.407,0.029C17.144,0.052 16.876,0.031 16.609,0.032C12.981,0.042 9.353,0.072 5.724,0.056C1.227,0.035 -3.271,-0.036 -7.768,-0.059C-9.617,-0.068 -11.467,-0.005 -13.316,0.021C-15.618,0.052 -17.921,0.053 -20.222,0.119C-21.452,0.155 -21.537,0.271 -21.51,1.564C-21.474,3.246 -21.373,4.927 -21.329,6.608C-21.312,7.241 -21.013,7.396 -20.419,7.451C-18.526,7.624 -16.638,7.551 -14.744,7.546C-9.829,7.536 -4.915,7.594 0,7.625M-22.176,3.733C-22.167,2.449 -22.143,1.165 -22.159,-0.119C-22.166,-0.626 -21.972,-0.846 -21.474,-0.862C-20.942,-0.881 -20.413,-0.973 -19.883,-0.967C-12.099,-0.873 -4.315,-0.739 3.47,-0.679C7.54,-0.646 11.611,-0.75 15.682,-0.766C16.561,-0.769 17.439,-0.655 18.318,-0.604C18.807,-0.577 19.005,-0.346 19.013,0.155C19.052,2.587 19.118,5.018 19.175,7.448C19.196,8.386 19.191,8.428 18.233,8.435C14.605,8.46 10.979,8.475 7.352,8.469C2.613,8.461 -2.125,8.402 -6.862,8.419C-10.171,8.431 -13.479,8.555 -16.788,8.585C-18.247,8.598 -19.708,8.517 -21.166,8.451C-22.1,8.409 -22.133,8.375 -22.143,7.455C-22.157,6.215 -22.133,4.975 -22.125,3.734C-22.142,3.733 -22.158,3.733 -22.176,3.733" style="fill:rgb(35,31,32);fill-rule:nonzero;"/>
            </g>
        </g>
        <g transform="matrix(4.16667,0,0,4.16667,21791.3,7175.19)">
            <g transform="matrix(1,0,0,1,429.798,667.568)">
                <path d="M0,7.689C-4.915,7.658 -9.829,7.6 -14.744,7.61C-16.638,7.615 -18.526,7.688 -20.419,7.515C-21.013,7.46 -21.312,7.305 -21.329,6.672C-21.373,4.991 -21.474,3.31 -21.51,1.628C-21.537,0.335 -21.452,0.219 -20.222,0.183C-17.921,0.117 -15.618,0.116 -13.316,0.085C-11.467,0.059 -9.617,-0.004 -7.768,0.005C-3.271,0.028 1.227,0.099 5.724,0.12C9.353,0.136 12.981,0.106 16.609,0.096C16.876,0.095 17.144,0.116 17.407,0.093C18.033,0.04 18.308,0.321 18.292,0.939C18.259,2.256 18.229,3.575 18.214,4.892C18.206,5.507 18.209,6.125 18.258,6.737C18.305,7.317 18.048,7.528 17.503,7.542C15.698,7.585 13.895,7.688 12.09,7.69C8.061,7.693 4.03,7.648 0,7.623L0,7.689Z" style="fill:rgb(189,86,160);fill-rule:nonzero;"/>
            </g>
        </g>
        <g transform="matrix(4.16667,0,0,4.16667,21791.3,7175.19)">
            <g transform="matrix(1,0,0,1,453.348,656.855)">
                <path d="M0,0.611C-0.063,0.614 -0.127,0.618 -0.191,0.622C-0.055,2.516 0.107,4.409 0.204,6.305C0.235,6.921 0.512,7.02 1.035,7.023C3.026,7.032 5.018,7.077 7.009,7.102C7.999,7.116 8.025,7.114 8.16,6.156C8.27,5.372 8.375,4.577 8.366,3.787C8.333,0.869 8.25,-2.049 8.193,-4.968C8.186,-5.396 8.219,-5.826 8.233,-6.254C7.811,-6.254 7.389,-6.253 6.967,-6.256C6.879,-6.256 6.791,-6.279 6.704,-6.279C4.811,-6.26 2.916,-6.27 1.024,-6.207C0.134,-6.178 -0.289,-5.593 -0.244,-4.69C-0.158,-2.923 -0.081,-1.157 0,0.611M-23.49,6.925L-23.49,6.9C-22.781,6.905 -22.072,6.911 -21.362,6.914C-14.892,6.941 -8.42,6.97 -1.948,6.994C-0.992,6.997 -0.963,6.985 -0.926,5.965C-0.873,4.557 -0.852,3.148 -0.849,1.74C-0.845,-0.381 -0.839,-2.502 -0.887,-4.623C-0.922,-6.122 -1.019,-6.222 -2.472,-6.218C-7.3,-6.205 -12.128,-6.168 -16.956,-6.121C-22.657,-6.067 -28.357,-5.985 -34.059,-5.93C-38.2,-5.89 -42.343,-5.878 -46.485,-5.841C-47.142,-5.835 -48.019,-5.991 -48.386,-5.641C-48.722,-5.323 -48.503,-4.422 -48.528,-3.778C-48.532,-3.689 -48.533,-3.6 -48.53,-3.511C-48.445,-0.411 -48.366,2.688 -48.268,5.788C-48.239,6.67 -48.213,6.67 -47.374,6.733C-47.241,6.744 -47.108,6.748 -46.976,6.749C-44.728,6.773 -42.479,6.803 -40.23,6.819C-34.65,6.858 -29.07,6.89 -23.49,6.925M9.006,0.796C9.051,2.311 9.108,4.171 9.157,6.029C9.166,6.339 9.137,6.648 9.124,6.958C9.102,7.528 8.801,7.653 8.252,7.66C5.24,7.694 2.23,7.8 -0.781,7.838C-3.261,7.869 -5.74,7.84 -8.22,7.833C-12.073,7.822 -15.927,7.801 -19.779,7.796C-22.611,7.792 -25.443,7.798 -28.275,7.812C-32.998,7.835 -37.722,7.873 -42.445,7.893C-44.126,7.9 -45.808,7.89 -47.488,7.862C-48.789,7.84 -49.235,7.401 -49.257,6.096C-49.269,5.353 -49.141,4.608 -49.15,3.864C-49.192,0.633 -49.261,-2.596 -49.321,-5.827C-49.343,-7.021 -49.271,-7.092 -48.052,-7.062C-45.096,-6.988 -42.14,-6.867 -39.183,-6.852C-35.91,-6.835 -32.638,-6.936 -29.364,-6.948C-25.066,-6.963 -20.769,-6.92 -16.471,-6.943C-10.711,-6.972 -4.952,-7.028 0.808,-7.096C3.059,-7.122 5.309,-7.23 7.561,-7.269C8.796,-7.289 9.03,-7.061 9.039,-5.798C9.054,-3.715 9.021,-1.631 9.006,0.796" style="fill:rgb(35,31,32);fill-rule:nonzero;"/>
            </g>
        </g>
        <g transform="matrix(4.16667,0,0,4.16667,21791.3,7175.19)">
            <g transform="matrix(1,0,0,1,407.678,657.25)">
                <path d="M0,-0.015L0.051,-0.015C0.043,1.226 0.019,2.466 0.033,3.707C0.043,4.627 0.076,4.661 1.01,4.702C2.468,4.767 3.929,4.849 5.388,4.836C8.696,4.806 12.005,4.682 15.313,4.671C20.051,4.653 24.789,4.713 29.527,4.72C33.154,4.726 36.781,4.712 40.409,4.686C41.367,4.679 41.372,4.637 41.351,3.7C41.294,1.268 41.228,-1.162 41.188,-3.593C41.181,-4.095 40.982,-4.326 40.494,-4.354C39.615,-4.404 38.736,-4.517 37.857,-4.514C33.786,-4.498 29.715,-4.396 25.645,-4.427C17.86,-4.489 10.077,-4.621 2.293,-4.715C1.763,-4.722 1.232,-4.629 0.702,-4.611C0.203,-4.594 0.009,-4.375 0.016,-3.868C0.033,-2.583 0.008,-1.299 0,-0.015M22.18,6.531C16.6,6.496 11.02,6.464 5.439,6.424C3.19,6.409 0.942,6.379 -1.306,6.354C-1.438,6.353 -1.571,6.349 -1.704,6.339C-2.543,6.275 -2.569,6.275 -2.598,5.393C-2.696,2.294 -2.775,-0.806 -2.86,-3.906C-2.863,-3.994 -2.862,-4.083 -2.858,-4.172C-2.833,-4.817 -3.052,-5.717 -2.716,-6.036C-2.349,-6.385 -1.472,-6.23 -0.815,-6.236C3.327,-6.273 7.47,-6.285 11.611,-6.325C17.312,-6.379 23.013,-6.461 28.714,-6.516C33.542,-6.563 38.37,-6.6 43.198,-6.613C44.651,-6.617 44.748,-6.517 44.783,-5.018C44.831,-2.897 44.825,-0.776 44.821,1.345C44.818,2.754 44.797,4.163 44.744,5.57C44.707,6.59 44.678,6.602 43.722,6.599C37.25,6.576 30.778,6.547 24.308,6.519C23.598,6.516 22.889,6.51 22.18,6.506L22.18,6.531Z" style="fill:rgb(209,117,122);fill-rule:nonzero;"/>
            </g>
        </g>
        <g transform="matrix(4.16667,0,0,4.16667,21791.3,7175.19)">
            <g transform="matrix(1,0,0,1,453.348,657.081)">
                <path d="M0,0.385C-0.081,-1.383 -0.158,-3.149 -0.244,-4.916C-0.289,-5.819 0.134,-6.404 1.024,-6.433C2.916,-6.496 4.811,-6.486 6.704,-6.505C6.791,-6.505 6.879,-6.482 6.967,-6.482C7.389,-6.479 7.811,-6.48 8.233,-6.48C8.219,-6.052 8.186,-5.622 8.193,-5.194C8.25,-2.275 8.333,0.643 8.366,3.561C8.375,4.351 8.27,5.146 8.16,5.93C8.025,6.888 7.999,6.89 7.009,6.876C5.018,6.851 3.026,6.806 1.035,6.797C0.512,6.794 0.235,6.695 0.204,6.079C0.107,4.183 -0.055,2.29 -0.191,0.396C-0.127,0.392 -0.063,0.388 0,0.385" style="fill:rgb(228,150,164);fill-rule:nonzero;"/>
            </g>
        </g>
        <g transform="matrix(4.16667,0,0,4.16667,21791.3,7175.19)">
            <g transform="matrix(1,0,0,1,429.853,653.5)">
                <path d="M0,7.626L0,7.56C4.03,7.585 8.06,7.629 12.09,7.626C13.894,7.625 15.698,7.522 17.502,7.478C18.048,7.465 18.305,7.254 18.258,6.674C18.209,6.062 18.206,5.443 18.213,4.829C18.229,3.511 18.259,2.193 18.292,0.876C18.308,0.258 18.033,-0.024 17.407,0.029C17.144,0.053 16.875,0.032 16.609,0.033C12.98,0.042 9.353,0.072 5.724,0.057C1.227,0.036 -3.271,-0.035 -7.768,-0.058C-9.617,-0.067 -11.467,-0.005 -13.316,0.022C-15.618,0.053 -17.921,0.054 -20.222,0.12C-21.452,0.155 -21.538,0.272 -21.51,1.565C-21.474,3.247 -21.373,4.928 -21.329,6.609C-21.312,7.242 -21.013,7.397 -20.419,7.452C-18.527,7.625 -16.638,7.551 -14.744,7.547C-9.829,7.537 -4.915,7.595 0,7.626M-22.176,3.734C-22.168,2.45 -22.143,1.166 -22.16,-0.118C-22.167,-0.626 -21.973,-0.845 -21.474,-0.861C-20.943,-0.88 -20.413,-0.973 -19.883,-0.966C-12.099,-0.872 -4.315,-0.739 3.469,-0.678C7.539,-0.646 11.61,-0.749 15.682,-0.765C16.561,-0.768 17.439,-0.654 18.318,-0.604C18.807,-0.576 19.005,-0.346 19.013,0.156C19.052,2.587 19.118,5.018 19.175,7.449C19.196,8.387 19.191,8.429 18.233,8.436C14.605,8.461 10.979,8.476 7.352,8.47C2.613,8.462 -2.125,8.402 -6.862,8.42C-10.171,8.432 -13.479,8.556 -16.788,8.585C-18.247,8.599 -19.708,8.517 -21.166,8.451C-22.1,8.41 -22.133,8.376 -22.143,7.456C-22.157,6.216 -22.133,4.976 -22.125,3.734L-22.176,3.734Z" style="fill:rgb(35,31,32);fill-rule:nonzero;"/>
            </g>
        </g>
        <g transform="matrix(4.16667,0,0,4.16667,21791.3,7175.19)">
            <g transform="matrix(1,0,0,1,429.853,653.436)">
                <path d="M0,7.69C-4.915,7.659 -9.829,7.601 -14.744,7.611C-16.638,7.615 -18.527,7.689 -20.419,7.516C-21.013,7.461 -21.312,7.306 -21.329,6.673C-21.373,4.992 -21.474,3.311 -21.51,1.629C-21.538,0.336 -21.452,0.219 -20.222,0.184C-17.921,0.118 -15.618,0.117 -13.316,0.086C-11.467,0.059 -9.617,-0.003 -7.768,0.006C-3.271,0.029 1.227,0.1 5.724,0.121C9.353,0.136 12.98,0.106 16.609,0.097C16.875,0.096 17.144,0.117 17.407,0.093C18.033,0.04 18.308,0.322 18.292,0.94C18.259,2.257 18.229,3.575 18.213,4.893C18.206,5.507 18.209,6.126 18.258,6.738C18.305,7.318 18.048,7.529 17.502,7.542C15.698,7.586 13.894,7.689 12.09,7.69C8.06,7.693 4.03,7.649 0,7.624L0,7.69Z" style="fill:rgb(189,86,160);fill-rule:nonzero;"/>
            </g>
        </g>
        <g transform="matrix(4.16667,0,0,4.16667,21791.3,7175.19)">
            <g transform="matrix(1,0,0,1,452.944,642.355)">
                <path d="M0,0.611C-0.064,0.615 -0.128,0.618 -0.191,0.622C-0.056,2.516 0.106,4.409 0.203,6.305C0.234,6.921 0.511,7.021 1.034,7.023C3.026,7.032 5.018,7.077 7.009,7.103C7.999,7.116 8.024,7.114 8.159,6.157C8.27,5.372 8.374,4.577 8.365,3.787C8.333,0.869 8.249,-2.049 8.192,-4.967C8.185,-5.396 8.219,-5.826 8.232,-6.254C7.811,-6.254 7.388,-6.253 6.966,-6.255C6.878,-6.256 6.791,-6.279 6.703,-6.278C4.81,-6.26 2.916,-6.27 1.024,-6.207C0.133,-6.178 -0.289,-5.593 -0.245,-4.69C-0.158,-2.923 -0.081,-1.156 0,0.611M-23.491,6.925C-23.491,6.918 -23.49,6.909 -23.49,6.9C-22.781,6.905 -22.072,6.911 -21.363,6.914C-14.892,6.941 -8.42,6.97 -1.948,6.994C-0.992,6.997 -0.964,6.985 -0.926,5.965C-0.874,4.557 -0.853,3.149 -0.85,1.741C-0.845,-0.38 -0.839,-2.502 -0.888,-4.622C-0.922,-6.122 -1.019,-6.222 -2.473,-6.218C-7.301,-6.205 -12.129,-6.168 -16.957,-6.121C-22.657,-6.067 -28.358,-5.985 -34.059,-5.93C-38.201,-5.889 -42.344,-5.878 -46.486,-5.841C-47.142,-5.834 -48.02,-5.99 -48.387,-5.641C-48.722,-5.323 -48.504,-4.421 -48.529,-3.778C-48.532,-3.689 -48.534,-3.6 -48.531,-3.511C-48.445,-0.411 -48.366,2.688 -48.268,5.788C-48.24,6.67 -48.214,6.67 -47.374,6.734C-47.242,6.744 -47.108,6.748 -46.976,6.749C-44.728,6.773 -42.479,6.803 -40.231,6.819C-34.651,6.858 -29.071,6.89 -23.491,6.925M9.005,0.796C9.05,2.312 9.107,4.171 9.157,6.029C9.165,6.339 9.136,6.648 9.124,6.959C9.102,7.528 8.801,7.654 8.251,7.66C5.24,7.694 2.229,7.8 -0.781,7.839C-3.261,7.869 -5.741,7.84 -8.221,7.834C-12.074,7.822 -15.927,7.801 -19.78,7.797C-22.612,7.792 -25.443,7.798 -28.275,7.812C-32.999,7.835 -37.722,7.873 -42.445,7.893C-44.126,7.9 -45.808,7.891 -47.488,7.863C-48.789,7.84 -49.236,7.402 -49.257,6.096C-49.27,5.353 -49.142,4.608 -49.151,3.865C-49.193,0.634 -49.262,-2.596 -49.321,-5.826C-49.344,-7.021 -49.272,-7.092 -48.052,-7.061C-45.096,-6.988 -42.14,-6.867 -39.184,-6.851C-35.911,-6.834 -32.638,-6.935 -29.365,-6.948C-25.067,-6.963 -20.769,-6.92 -16.471,-6.943C-10.712,-6.972 -4.952,-7.028 0.807,-7.096C3.059,-7.122 5.309,-7.23 7.56,-7.268C8.796,-7.289 9.03,-7.06 9.039,-5.798C9.054,-3.715 9.021,-1.631 9.005,0.796" style="fill:rgb(35,31,32);fill-rule:nonzero;"/>
            </g>
        </g>
        <g transform="matrix(4.16667,0,0,4.16667,21791.3,7175.19)">
            <g transform="matrix(1,0,0,1,407.274,642.75)">
                <path d="M0,-0.015C0.017,-0.015 0.033,-0.015 0.05,-0.014C0.042,1.226 0.019,2.466 0.032,3.707C0.043,4.627 0.075,4.661 1.009,4.703C2.468,4.768 3.928,4.849 5.387,4.836C8.695,4.806 12.004,4.682 15.313,4.671C20.051,4.654 24.788,4.713 29.526,4.72C33.153,4.726 36.781,4.712 40.408,4.686C41.367,4.679 41.372,4.637 41.35,3.7C41.293,1.269 41.228,-1.161 41.188,-3.593C41.18,-4.094 40.981,-4.326 40.493,-4.353C39.614,-4.404 38.735,-4.517 37.856,-4.514C33.786,-4.498 29.715,-4.395 25.645,-4.427C17.86,-4.488 10.076,-4.621 2.292,-4.715C1.763,-4.722 1.232,-4.629 0.701,-4.611C0.203,-4.594 0.009,-4.374 0.016,-3.868C0.032,-2.583 0.008,-1.299 0,-0.015M22.179,6.531C16.599,6.496 11.019,6.464 5.438,6.424C3.19,6.409 0.942,6.379 -1.306,6.354C-1.438,6.353 -1.572,6.349 -1.704,6.339C-2.544,6.275 -2.57,6.275 -2.598,5.393C-2.696,2.294 -2.775,-0.806 -2.861,-3.906C-2.864,-3.994 -2.862,-4.083 -2.859,-4.172C-2.834,-4.816 -3.052,-5.717 -2.717,-6.036C-2.35,-6.384 -1.472,-6.229 -0.816,-6.236C3.326,-6.273 7.469,-6.284 11.611,-6.325C17.312,-6.379 23.013,-6.461 28.713,-6.516C33.541,-6.563 38.369,-6.6 43.197,-6.613C44.651,-6.617 44.748,-6.517 44.782,-5.017C44.831,-2.897 44.825,-0.775 44.82,1.346C44.817,2.755 44.796,4.163 44.744,5.57C44.706,6.59 44.678,6.602 43.722,6.599C37.25,6.576 30.778,6.547 24.307,6.519C23.598,6.516 22.889,6.51 22.18,6.506C22.18,6.514 22.179,6.523 22.179,6.531" style="fill:rgb(209,117,122);fill-rule:nonzero;"/>
            </g>
        </g>
        <g transform="matrix(4.16667,0,0,4.16667,21791.3,7175.19)">
            <g transform="matrix(1,0,0,1,452.944,642.581)">
                <path d="M0,0.385C-0.081,-1.382 -0.158,-3.149 -0.245,-4.916C-0.289,-5.819 0.133,-6.404 1.024,-6.433C2.916,-6.496 4.81,-6.486 6.703,-6.504C6.791,-6.505 6.878,-6.482 6.966,-6.481C7.388,-6.479 7.811,-6.48 8.232,-6.48C8.219,-6.052 8.185,-5.622 8.192,-5.193C8.249,-2.275 8.333,0.643 8.365,3.561C8.374,4.351 8.27,5.146 8.159,5.931C8.024,6.888 7.999,6.89 7.009,6.877C5.018,6.851 3.026,6.806 1.034,6.797C0.511,6.795 0.234,6.695 0.203,6.079C0.106,4.183 -0.056,2.29 -0.191,0.396C-0.128,0.392 -0.064,0.389 0,0.385" style="fill:rgb(228,150,164);fill-rule:nonzero;"/>
            </g>
        </g>
        <g transform="matrix(4.16667,0,0,4.16667,21791.3,7175.19)">
            <g transform="matrix(1,0,0,1,429.449,639)">
                <path d="M0,7.626C0,7.604 0,7.582 0.001,7.56C4.03,7.585 8.061,7.63 12.09,7.626C13.895,7.625 15.698,7.522 17.503,7.479C18.048,7.465 18.305,7.254 18.259,6.674C18.21,6.062 18.207,5.444 18.214,4.829C18.229,3.512 18.259,2.193 18.292,0.876C18.309,0.258 18.033,-0.023 17.408,0.03C17.144,0.053 16.876,0.032 16.609,0.033C12.981,0.043 9.353,0.073 5.725,0.057C1.227,0.036 -3.271,-0.035 -7.768,-0.058C-9.617,-0.067 -11.467,-0.004 -13.316,0.022C-15.618,0.053 -17.921,0.054 -20.222,0.12C-21.452,0.156 -21.537,0.272 -21.51,1.565C-21.474,3.247 -21.373,4.928 -21.328,6.609C-21.312,7.242 -21.013,7.397 -20.419,7.452C-18.526,7.625 -16.637,7.552 -14.744,7.547C-9.829,7.537 -4.914,7.595 0,7.626M-22.175,3.734C-22.167,2.45 -22.143,1.166 -22.159,-0.118C-22.166,-0.625 -21.972,-0.845 -21.474,-0.861C-20.942,-0.88 -20.412,-0.973 -19.883,-0.966C-12.099,-0.872 -4.314,-0.738 3.47,-0.678C7.54,-0.645 11.611,-0.749 15.682,-0.765C16.561,-0.768 17.439,-0.654 18.318,-0.603C18.807,-0.576 19.005,-0.345 19.014,0.156C19.053,2.588 19.118,5.019 19.175,7.449C19.197,8.387 19.192,8.429 18.233,8.436C14.606,8.461 10.979,8.476 7.352,8.47C2.613,8.462 -2.124,8.403 -6.862,8.42C-10.171,8.432 -13.479,8.556 -16.788,8.585C-18.247,8.599 -19.707,8.518 -21.166,8.452C-22.1,8.41 -22.132,8.376 -22.143,7.456C-22.156,6.216 -22.133,4.976 -22.125,3.735C-22.142,3.734 -22.158,3.734 -22.175,3.734" style="fill:rgb(35,31,32);fill-rule:nonzero;"/>
            </g>
        </g>
        <g transform="matrix(4.16667,0,0,4.16667,21791.3,7175.19)">
            <g transform="matrix(1,0,0,1,429.449,638.937)">
                <path d="M0,7.689C-4.914,7.658 -9.829,7.6 -14.744,7.61C-16.637,7.615 -18.526,7.688 -20.419,7.515C-21.013,7.46 -21.312,7.305 -21.328,6.672C-21.373,4.991 -21.474,3.31 -21.51,1.628C-21.537,0.335 -21.452,0.219 -20.222,0.183C-17.921,0.117 -15.618,0.116 -13.316,0.085C-11.467,0.059 -9.617,-0.004 -7.768,0.005C-3.271,0.028 1.227,0.099 5.725,0.12C9.353,0.136 12.981,0.106 16.609,0.096C16.876,0.095 17.144,0.116 17.408,0.093C18.033,0.04 18.309,0.321 18.292,0.939C18.259,2.256 18.229,3.575 18.214,4.892C18.207,5.507 18.21,6.125 18.259,6.737C18.305,7.317 18.048,7.528 17.503,7.542C15.698,7.585 13.895,7.688 12.09,7.689C8.061,7.693 4.03,7.648 0.001,7.623C0,7.645 0,7.667 0,7.689" style="fill:rgb(189,86,160);fill-rule:nonzero;"/>
            </g>
        </g>
        <g transform="matrix(4.16667,0,0,4.16667,21791.3,7175.19)">
            <g transform="matrix(1,0,0,1,507.464,671.016)">
                <path d="M0,0.61C-0.063,0.614 -0.127,0.618 -0.191,0.622C-0.055,2.515 0.107,4.409 0.204,6.304C0.235,6.921 0.512,7.02 1.035,7.022C3.026,7.032 5.018,7.076 7.009,7.102C7.999,7.115 8.025,7.113 8.16,6.156C8.27,5.372 8.375,4.576 8.366,3.787C8.333,0.868 8.25,-2.05 8.193,-4.968C8.186,-5.397 8.219,-5.827 8.233,-6.255C7.811,-6.255 7.389,-6.254 6.967,-6.256C6.879,-6.257 6.791,-6.28 6.704,-6.279C4.811,-6.261 2.916,-6.271 1.024,-6.208C0.134,-6.179 -0.289,-5.594 -0.244,-4.691C-0.158,-2.924 -0.081,-1.157 0,0.61M-23.49,6.924L-23.49,6.9C-22.781,6.904 -22.071,6.91 -21.362,6.913C-14.892,6.941 -8.42,6.969 -1.948,6.993C-0.992,6.997 -0.963,6.985 -0.926,5.964C-0.873,4.557 -0.852,3.148 -0.849,1.74C-0.844,-0.381 -0.839,-2.503 -0.887,-4.623C-0.922,-6.123 -1.019,-6.223 -2.472,-6.219C-7.3,-6.205 -12.128,-6.168 -16.956,-6.122C-22.657,-6.068 -28.357,-5.986 -34.059,-5.93C-38.2,-5.89 -42.343,-5.879 -46.485,-5.841C-47.142,-5.835 -48.019,-5.991 -48.386,-5.642C-48.722,-5.324 -48.503,-4.422 -48.528,-3.778C-48.532,-3.69 -48.533,-3.601 -48.53,-3.512C-48.445,-0.412 -48.366,2.688 -48.268,5.787C-48.239,6.669 -48.213,6.669 -47.374,6.733C-47.241,6.743 -47.108,6.747 -46.976,6.749C-44.728,6.773 -42.479,6.803 -40.23,6.819C-34.65,6.858 -29.07,6.89 -23.49,6.924M9.006,0.796C9.051,2.311 9.108,4.17 9.157,6.029C9.166,6.338 9.137,6.648 9.124,6.958C9.102,7.528 8.801,7.653 8.252,7.659C5.24,7.694 2.23,7.8 -0.781,7.838C-3.261,7.868 -5.74,7.839 -8.22,7.833C-12.073,7.822 -15.927,7.801 -19.779,7.796C-22.611,7.792 -25.443,7.797 -28.275,7.811C-32.998,7.835 -37.722,7.872 -42.445,7.892C-44.126,7.9 -45.808,7.89 -47.488,7.862C-48.789,7.839 -49.235,7.401 -49.257,6.095C-49.269,5.352 -49.141,4.607 -49.15,3.864C-49.192,0.633 -49.261,-2.597 -49.321,-5.827C-49.343,-7.021 -49.271,-7.092 -48.052,-7.062C-45.096,-6.988 -42.14,-6.868 -39.183,-6.852C-35.91,-6.835 -32.638,-6.936 -29.364,-6.948C-25.066,-6.963 -20.769,-6.921 -16.471,-6.943C-10.711,-6.973 -4.952,-7.029 0.808,-7.096C3.059,-7.123 5.309,-7.231 7.561,-7.269C8.796,-7.29 9.03,-7.061 9.039,-5.799C9.054,-3.715 9.021,-1.632 9.006,0.796" style="fill:rgb(35,31,32);fill-rule:nonzero;"/>
            </g>
        </g>
        <g transform="matrix(4.16667,0,0,4.16667,21791.3,7175.19)">
            <g transform="matrix(1,0,0,1,461.794,671.41)">
                <path d="M0,-0.014L0.051,-0.014C0.043,1.226 0.019,2.467 0.033,3.708C0.043,4.627 0.076,4.661 1.01,4.703C2.468,4.768 3.929,4.849 5.388,4.837C8.696,4.806 12.005,4.682 15.313,4.671C20.051,4.654 24.789,4.713 29.527,4.72C33.154,4.726 36.781,4.713 40.409,4.686C41.367,4.679 41.372,4.638 41.351,3.7C41.294,1.269 41.228,-1.161 41.188,-3.593C41.181,-4.094 40.982,-4.325 40.494,-4.353C39.615,-4.404 38.736,-4.517 37.857,-4.513C33.786,-4.497 29.715,-4.395 25.645,-4.427C17.86,-4.488 10.077,-4.621 2.293,-4.715C1.763,-4.721 1.232,-4.628 0.702,-4.611C0.203,-4.594 0.009,-4.374 0.016,-3.868C0.033,-2.583 0.009,-1.299 0,-0.014M22.18,6.531C16.6,6.497 11.02,6.465 5.439,6.425C3.19,6.41 0.942,6.38 -1.306,6.355C-1.438,6.353 -1.571,6.349 -1.704,6.34C-2.543,6.275 -2.569,6.275 -2.598,5.393C-2.696,2.295 -2.775,-0.806 -2.86,-3.906C-2.863,-3.994 -2.862,-4.083 -2.858,-4.171C-2.833,-4.816 -3.052,-5.717 -2.716,-6.035C-2.349,-6.384 -1.472,-6.229 -0.815,-6.235C3.327,-6.273 7.47,-6.284 11.611,-6.324C17.312,-6.379 23.013,-6.461 28.714,-6.516C33.542,-6.562 38.37,-6.599 43.198,-6.613C44.651,-6.617 44.748,-6.517 44.783,-5.017C44.831,-2.897 44.826,-0.775 44.821,1.346C44.818,2.755 44.797,4.164 44.744,5.571C44.707,6.591 44.678,6.603 43.722,6.599C37.25,6.576 30.778,6.548 24.308,6.519C23.599,6.516 22.889,6.51 22.18,6.507L22.18,6.531Z" style="fill:rgb(209,117,122);fill-rule:nonzero;"/>
            </g>
        </g>
        <g transform="matrix(4.16667,0,0,4.16667,21791.3,7175.19)">
            <g transform="matrix(1,0,0,1,507.464,671.241)">
                <path d="M0,0.385C-0.081,-1.382 -0.158,-3.149 -0.244,-4.916C-0.289,-5.819 0.134,-6.404 1.024,-6.433C2.916,-6.496 4.811,-6.486 6.704,-6.504C6.791,-6.505 6.879,-6.482 6.967,-6.481C7.389,-6.479 7.811,-6.48 8.233,-6.48C8.219,-6.052 8.186,-5.622 8.193,-5.193C8.25,-2.275 8.333,0.643 8.366,3.562C8.375,4.351 8.27,5.147 8.16,5.931C8.025,6.888 7.999,6.89 7.009,6.877C5.018,6.851 3.026,6.807 1.035,6.797C0.512,6.795 0.235,6.696 0.204,6.079C0.107,4.184 -0.055,2.29 -0.191,0.397C-0.127,0.393 -0.063,0.389 0,0.385" style="fill:rgb(228,150,164);fill-rule:nonzero;"/>
            </g>
        </g>
        <g transform="matrix(4.16667,0,0,4.16667,21791.3,7175.19)">
            <g transform="matrix(1,0,0,1,483.97,667.661)">
                <path d="M0,7.625L0,7.559C4.03,7.584 8.06,7.629 12.09,7.626C13.894,7.624 15.698,7.521 17.502,7.478C18.048,7.464 18.305,7.253 18.258,6.673C18.209,6.061 18.206,5.443 18.213,4.828C18.229,3.511 18.259,2.193 18.292,0.876C18.308,0.257 18.033,-0.024 17.407,0.029C17.144,0.052 16.875,0.032 16.609,0.032C12.98,0.042 9.353,0.072 5.724,0.056C1.227,0.036 -3.271,-0.036 -7.768,-0.059C-9.617,-0.067 -11.467,-0.005 -13.316,0.021C-15.618,0.053 -17.921,0.053 -20.222,0.119C-21.452,0.155 -21.538,0.271 -21.51,1.564C-21.474,3.246 -21.373,4.927 -21.329,6.608C-21.312,7.242 -21.013,7.396 -20.419,7.451C-18.527,7.625 -16.638,7.551 -14.744,7.547C-9.829,7.536 -4.915,7.595 0,7.625M-22.176,3.734C-22.167,2.449 -22.143,1.165 -22.16,-0.119C-22.167,-0.626 -21.973,-0.846 -21.474,-0.862C-20.943,-0.88 -20.413,-0.973 -19.883,-0.967C-12.099,-0.873 -4.315,-0.739 3.469,-0.679C7.539,-0.646 11.61,-0.749 15.682,-0.765C16.561,-0.769 17.439,-0.655 18.318,-0.604C18.807,-0.576 19.005,-0.346 19.013,0.155C19.052,2.587 19.118,5.018 19.175,7.448C19.196,8.387 19.191,8.428 18.233,8.435C14.605,8.461 10.979,8.475 7.352,8.469C2.613,8.461 -2.125,8.402 -6.862,8.419C-10.171,8.431 -13.479,8.555 -16.788,8.585C-18.247,8.598 -19.708,8.517 -21.166,8.451C-22.1,8.409 -22.133,8.375 -22.143,7.456C-22.157,6.216 -22.133,4.975 -22.125,3.734L-22.176,3.734Z" style="fill:rgb(35,31,32);fill-rule:nonzero;"/>
            </g>
        </g>
        <g transform="matrix(4.16667,0,0,4.16667,21791.3,7175.19)">
            <g transform="matrix(1,0,0,1,483.97,667.598)">
                <path d="M0,7.688C-4.915,7.658 -9.829,7.599 -14.744,7.61C-16.638,7.614 -18.527,7.688 -20.419,7.514C-21.013,7.459 -21.312,7.305 -21.329,6.671C-21.373,4.99 -21.474,3.309 -21.51,1.627C-21.538,0.334 -21.452,0.218 -20.222,0.182C-17.921,0.116 -15.618,0.116 -13.316,0.084C-11.467,0.058 -9.617,-0.004 -7.768,0.004C-3.271,0.027 1.227,0.099 5.724,0.119C9.353,0.135 12.98,0.105 16.609,0.095C16.875,0.095 17.144,0.115 17.407,0.092C18.033,0.039 18.308,0.32 18.292,0.939C18.259,2.256 18.229,3.574 18.213,4.891C18.206,5.506 18.209,6.124 18.258,6.736C18.305,7.316 18.048,7.527 17.502,7.541C15.698,7.584 13.894,7.687 12.09,7.689C8.06,7.692 4.03,7.647 0,7.622L0,7.688Z" style="fill:rgb(189,86,160);fill-rule:nonzero;"/>
            </g>
        </g>
        <g transform="matrix(4.16667,0,0,4.16667,21791.3,7175.19)">
            <g transform="matrix(1,0,0,1,507.519,656.884)">
                <path d="M0,0.611C-0.063,0.615 -0.127,0.619 -0.191,0.622C-0.055,2.516 0.106,4.409 0.203,6.305C0.235,6.921 0.512,7.021 1.035,7.023C3.026,7.032 5.018,7.077 7.009,7.103C7.999,7.116 8.025,7.114 8.159,6.157C8.27,5.372 8.375,4.577 8.366,3.788C8.333,0.869 8.25,-2.049 8.193,-4.967C8.185,-5.396 8.219,-5.826 8.233,-6.254C7.811,-6.254 7.389,-6.253 6.967,-6.255C6.879,-6.256 6.791,-6.279 6.703,-6.278C4.811,-6.26 2.916,-6.27 1.024,-6.207C0.134,-6.178 -0.289,-5.593 -0.245,-4.69C-0.158,-2.923 -0.081,-1.156 0,0.611M-23.49,6.925L-23.49,6.901C-22.781,6.905 -22.072,6.911 -21.362,6.914C-14.892,6.941 -8.42,6.97 -1.948,6.994C-0.992,6.998 -0.964,6.985 -0.926,5.965C-0.873,4.557 -0.853,3.149 -0.849,1.741C-0.845,-0.38 -0.839,-2.502 -0.888,-4.622C-0.922,-6.122 -1.019,-6.222 -2.473,-6.218C-7.301,-6.205 -12.129,-6.167 -16.956,-6.121C-22.657,-6.067 -28.357,-5.985 -34.059,-5.929C-38.201,-5.889 -42.343,-5.878 -46.485,-5.84C-47.142,-5.834 -48.02,-5.99 -48.386,-5.641C-48.722,-5.323 -48.504,-4.421 -48.528,-3.777C-48.532,-3.689 -48.533,-3.6 -48.531,-3.511C-48.445,-0.411 -48.366,2.688 -48.268,5.788C-48.239,6.67 -48.213,6.67 -47.374,6.734C-47.241,6.744 -47.108,6.748 -46.976,6.749C-44.728,6.773 -42.479,6.803 -40.231,6.82C-34.65,6.858 -29.07,6.89 -23.49,6.925M9.006,0.796C9.051,2.312 9.108,4.171 9.157,6.029C9.166,6.339 9.137,6.649 9.124,6.959C9.102,7.528 8.801,7.654 8.251,7.66C5.24,7.694 2.229,7.8 -0.781,7.839C-3.261,7.869 -5.74,7.84 -8.221,7.834C-12.073,7.823 -15.927,7.801 -19.779,7.797C-22.611,7.792 -25.443,7.798 -28.275,7.812C-32.998,7.835 -37.722,7.873 -42.445,7.893C-44.126,7.9 -45.808,7.891 -47.488,7.863C-48.789,7.84 -49.236,7.402 -49.257,6.096C-49.269,5.353 -49.142,4.608 -49.15,3.865C-49.192,0.634 -49.261,-2.596 -49.321,-5.827C-49.343,-7.021 -49.271,-7.091 -48.052,-7.061C-45.096,-6.988 -42.14,-6.867 -39.184,-6.851C-35.91,-6.834 -32.638,-6.935 -29.364,-6.948C-25.066,-6.963 -20.769,-6.92 -16.471,-6.943C-10.711,-6.972 -4.952,-7.028 0.808,-7.096C3.059,-7.122 5.309,-7.23 7.561,-7.268C8.796,-7.289 9.03,-7.06 9.039,-5.798C9.054,-3.714 9.021,-1.631 9.006,0.796" style="fill:rgb(35,31,32);fill-rule:nonzero;"/>
            </g>
        </g>
        <g transform="matrix(4.16667,0,0,4.16667,21791.3,7175.19)">
            <g transform="matrix(1,0,0,1,461.85,657.28)">
                <path d="M0,-0.016C0.017,-0.016 0.034,-0.015 0.051,-0.015C0.043,1.225 0.019,2.465 0.032,3.706C0.043,4.626 0.076,4.66 1.01,4.702C2.468,4.767 3.929,4.848 5.387,4.836C8.696,4.805 12.004,4.681 15.313,4.67C20.051,4.653 24.789,4.712 29.526,4.719C33.154,4.725 36.781,4.712 40.408,4.685C41.367,4.678 41.372,4.636 41.351,3.699C41.293,1.268 41.228,-1.162 41.188,-3.594C41.181,-4.095 40.981,-4.327 40.494,-4.354C39.614,-4.405 38.736,-4.518 37.857,-4.515C33.786,-4.498 29.715,-4.396 25.645,-4.428C17.86,-4.489 10.077,-4.622 2.293,-4.716C1.763,-4.722 1.232,-4.63 0.702,-4.612C0.203,-4.595 0.009,-4.375 0.016,-3.869C0.033,-2.584 0.008,-1.3 0,-0.016M22.18,6.53C16.6,6.495 11.02,6.463 5.438,6.424C3.19,6.408 0.942,6.378 -1.306,6.353C-1.438,6.352 -1.571,6.348 -1.704,6.338C-2.543,6.274 -2.569,6.274 -2.598,5.392C-2.696,2.293 -2.775,-0.807 -2.861,-3.907C-2.863,-3.995 -2.862,-4.084 -2.858,-4.172C-2.834,-4.817 -3.052,-5.718 -2.716,-6.037C-2.35,-6.385 -1.472,-6.23 -0.815,-6.236C3.327,-6.274 7.469,-6.285 11.611,-6.325C17.312,-6.38 23.013,-6.462 28.714,-6.517C33.541,-6.563 38.369,-6.601 43.197,-6.614C44.651,-6.618 44.748,-6.518 44.782,-5.018C44.831,-2.898 44.825,-0.776 44.821,1.345C44.817,2.754 44.797,4.162 44.744,5.569C44.706,6.589 44.678,6.602 43.722,6.598C37.25,6.575 30.778,6.546 24.308,6.518C23.598,6.515 22.889,6.509 22.18,6.505L22.18,6.53Z" style="fill:rgb(209,117,122);fill-rule:nonzero;"/>
            </g>
        </g>
        <g transform="matrix(4.16667,0,0,4.16667,21791.3,7175.19)">
            <g transform="matrix(1,0,0,1,507.519,657.11)">
                <path d="M0,0.385C-0.081,-1.382 -0.158,-3.149 -0.245,-4.916C-0.289,-5.819 0.134,-6.404 1.024,-6.433C2.916,-6.496 4.811,-6.486 6.703,-6.504C6.791,-6.505 6.879,-6.482 6.967,-6.481C7.389,-6.479 7.811,-6.48 8.233,-6.48C8.219,-6.052 8.185,-5.622 8.193,-5.193C8.25,-2.275 8.333,0.643 8.366,3.562C8.375,4.351 8.27,5.146 8.159,5.931C8.025,6.888 7.999,6.89 7.009,6.877C5.018,6.851 3.026,6.806 1.035,6.797C0.512,6.795 0.235,6.695 0.203,6.079C0.106,4.183 -0.055,2.29 -0.191,0.396C-0.127,0.393 -0.063,0.389 0,0.385" style="fill:rgb(228,150,164);fill-rule:nonzero;"/>
            </g>
        </g>
        <g transform="matrix(4.16667,0,0,4.16667,21791.3,7175.19)">
            <g transform="matrix(1,0,0,1,484.025,653.53)">
                <path d="M0,7.625L0,7.559C4.03,7.584 8.06,7.629 12.09,7.626C13.894,7.624 15.698,7.521 17.502,7.478C18.048,7.464 18.304,7.253 18.258,6.673C18.209,6.061 18.206,5.443 18.213,4.828C18.229,3.511 18.259,2.192 18.292,0.875C18.308,0.257 18.033,-0.024 17.407,0.029C17.143,0.052 16.875,0.031 16.609,0.032C12.98,0.042 9.353,0.072 5.724,0.056C1.227,0.036 -3.271,-0.036 -7.768,-0.059C-9.617,-0.068 -11.467,-0.005 -13.316,0.021C-15.618,0.052 -17.921,0.053 -20.223,0.119C-21.453,0.155 -21.538,0.271 -21.51,1.564C-21.474,3.246 -21.374,4.927 -21.329,6.608C-21.312,7.241 -21.013,7.396 -20.419,7.451C-18.527,7.625 -16.638,7.551 -14.744,7.547C-9.83,7.536 -4.915,7.594 0,7.625M-22.176,3.733C-22.168,2.449 -22.143,1.165 -22.16,-0.119C-22.167,-0.626 -21.973,-0.846 -21.474,-0.862C-20.943,-0.881 -20.413,-0.973 -19.883,-0.967C-12.099,-0.873 -4.315,-0.739 3.469,-0.679C7.539,-0.646 11.61,-0.749 15.682,-0.766C16.561,-0.769 17.438,-0.655 18.318,-0.604C18.806,-0.577 19.005,-0.346 19.013,0.155C19.052,2.587 19.117,5.018 19.175,7.448C19.196,8.386 19.191,8.428 18.232,8.435C14.605,8.461 10.979,8.475 7.351,8.469C2.613,8.461 -2.125,8.402 -6.862,8.419C-10.172,8.431 -13.479,8.555 -16.789,8.585C-18.247,8.598 -19.708,8.517 -21.166,8.451C-22.1,8.409 -22.133,8.375 -22.144,7.455C-22.157,6.215 -22.133,4.975 -22.125,3.734C-22.142,3.734 -22.159,3.733 -22.176,3.733" style="fill:rgb(35,31,32);fill-rule:nonzero;"/>
            </g>
        </g>
        <g transform="matrix(4.16667,0,0,4.16667,21791.3,7175.19)">
            <g transform="matrix(1,0,0,1,484.025,653.466)">
                <path d="M0,7.689C-4.915,7.658 -9.83,7.6 -14.744,7.611C-16.638,7.615 -18.527,7.689 -20.419,7.515C-21.013,7.46 -21.312,7.305 -21.329,6.672C-21.374,4.991 -21.474,3.31 -21.51,1.628C-21.538,0.335 -21.453,0.219 -20.223,0.183C-17.921,0.117 -15.618,0.116 -13.316,0.085C-11.467,0.059 -9.617,-0.004 -7.768,0.005C-3.271,0.028 1.227,0.1 5.724,0.12C9.353,0.136 12.98,0.106 16.609,0.096C16.875,0.095 17.143,0.116 17.407,0.093C18.033,0.04 18.308,0.321 18.292,0.939C18.259,2.256 18.229,3.575 18.213,4.892C18.206,5.507 18.209,6.125 18.258,6.737C18.304,7.317 18.048,7.528 17.502,7.542C15.698,7.585 13.894,7.688 12.09,7.69C8.06,7.693 4.03,7.648 0,7.623L0,7.689Z" style="fill:rgb(189,86,160);fill-rule:nonzero;"/>
            </g>
        </g>
        <g transform="matrix(4.16667,0,0,4.16667,21791.3,7175.19)">
            <g transform="matrix(1,0,0,1,507.116,642.385)">
                <path d="M0,0.61C-0.064,0.614 -0.128,0.618 -0.191,0.622C-0.056,2.515 0.106,4.409 0.203,6.304C0.234,6.921 0.511,7.02 1.034,7.022C3.025,7.032 5.017,7.076 7.009,7.102C7.998,7.115 8.024,7.113 8.159,6.156C8.27,5.372 8.374,4.576 8.365,3.787C8.333,0.868 8.249,-2.05 8.192,-4.968C8.185,-5.397 8.218,-5.827 8.232,-6.255C7.811,-6.255 7.388,-6.254 6.966,-6.256C6.878,-6.257 6.79,-6.28 6.703,-6.279C4.81,-6.261 2.916,-6.271 1.023,-6.208C0.133,-6.179 -0.289,-5.594 -0.245,-4.691C-0.159,-2.924 -0.081,-1.157 0,0.61M-23.491,6.924L-23.491,6.9C-22.781,6.904 -22.072,6.91 -21.363,6.913C-14.892,6.941 -8.42,6.969 -1.949,6.993C-0.993,6.997 -0.964,6.985 -0.926,5.964C-0.874,4.557 -0.853,3.148 -0.85,1.74C-0.845,-0.381 -0.839,-2.503 -0.888,-4.623C-0.922,-6.123 -1.019,-6.223 -2.473,-6.219C-7.301,-6.205 -12.129,-6.168 -16.957,-6.122C-22.658,-6.068 -28.358,-5.986 -34.059,-5.93C-38.201,-5.89 -42.344,-5.879 -46.486,-5.841C-47.142,-5.835 -48.02,-5.991 -48.387,-5.642C-48.722,-5.324 -48.504,-4.422 -48.529,-3.778C-48.532,-3.69 -48.534,-3.601 -48.531,-3.512C-48.445,-0.412 -48.367,2.688 -48.269,5.787C-48.24,6.669 -48.214,6.669 -47.375,6.733C-47.242,6.743 -47.108,6.747 -46.976,6.749C-44.728,6.773 -42.479,6.803 -40.231,6.819C-34.651,6.858 -29.071,6.89 -23.491,6.924M9.005,0.796C9.05,2.311 9.107,4.17 9.157,6.029C9.165,6.338 9.136,6.648 9.124,6.958C9.102,7.528 8.801,7.653 8.251,7.659C5.239,7.694 2.229,7.8 -0.782,7.838C-3.261,7.868 -5.741,7.839 -8.221,7.833C-12.074,7.822 -15.927,7.801 -19.78,7.796C-22.612,7.792 -25.444,7.797 -28.275,7.811C-32.999,7.835 -37.723,7.872 -42.445,7.892C-44.127,7.9 -45.808,7.89 -47.488,7.862C-48.789,7.839 -49.236,7.401 -49.258,6.095C-49.27,5.352 -49.142,4.607 -49.151,3.864C-49.193,0.633 -49.262,-2.597 -49.321,-5.827C-49.344,-7.021 -49.272,-7.092 -48.052,-7.062C-45.096,-6.988 -42.14,-6.868 -39.184,-6.852C-35.911,-6.835 -32.638,-6.936 -29.365,-6.948C-25.067,-6.963 -20.769,-6.921 -16.471,-6.943C-10.712,-6.973 -4.952,-7.029 0.807,-7.096C3.058,-7.123 5.309,-7.231 7.56,-7.269C8.795,-7.29 9.029,-7.061 9.039,-5.799C9.054,-3.715 9.021,-1.632 9.005,0.796" style="fill:rgb(35,31,32);fill-rule:nonzero;"/>
            </g>
        </g>
        <g transform="matrix(4.16667,0,0,4.16667,21791.3,7175.19)">
            <g transform="matrix(1,0,0,1,461.446,642.78)">
                <path d="M0,-0.016C0.017,-0.015 0.033,-0.015 0.05,-0.015C0.042,1.225 0.019,2.466 0.032,3.707C0.042,4.626 0.075,4.66 1.009,4.702C2.468,4.767 3.928,4.848 5.387,4.836C8.695,4.805 12.004,4.681 15.313,4.67C20.051,4.653 24.788,4.712 29.526,4.719C33.153,4.725 36.781,4.712 40.408,4.685C41.367,4.678 41.372,4.637 41.35,3.699C41.293,1.268 41.227,-1.162 41.188,-3.594C41.18,-4.095 40.981,-4.326 40.493,-4.354C39.614,-4.405 38.735,-4.518 37.856,-4.514C33.786,-4.498 29.715,-4.396 25.645,-4.428C17.86,-4.489 10.076,-4.622 2.292,-4.716C1.763,-4.722 1.232,-4.629 0.701,-4.612C0.203,-4.595 0.009,-4.375 0.016,-3.869C0.032,-2.584 0.008,-1.3 0,-0.016M22.179,6.53C16.599,6.496 11.019,6.463 5.438,6.424C3.19,6.409 0.942,6.379 -1.306,6.354C-1.438,6.352 -1.572,6.348 -1.705,6.338C-2.544,6.274 -2.57,6.274 -2.599,5.392C-2.697,2.294 -2.775,-0.807 -2.861,-3.907C-2.864,-3.995 -2.862,-4.084 -2.859,-4.172C-2.834,-4.817 -3.052,-5.718 -2.717,-6.037C-2.35,-6.385 -1.472,-6.23 -0.816,-6.236C3.326,-6.274 7.469,-6.285 11.611,-6.325C17.312,-6.38 23.012,-6.462 28.713,-6.517C33.541,-6.563 38.369,-6.6 43.197,-6.614C44.651,-6.618 44.748,-6.518 44.782,-5.018C44.831,-2.898 44.825,-0.776 44.82,1.345C44.817,2.754 44.796,4.163 44.744,5.57C44.706,6.59 44.677,6.602 43.721,6.598C37.25,6.575 30.778,6.546 24.307,6.518C23.598,6.515 22.889,6.509 22.179,6.505L22.179,6.53Z" style="fill:rgb(209,117,122);fill-rule:nonzero;"/>
            </g>
        </g>
        <g transform="matrix(4.16667,0,0,4.16667,21791.3,7175.19)">
            <g transform="matrix(1,0,0,1,507.116,642.61)">
                <path d="M0,0.385C-0.081,-1.382 -0.159,-3.149 -0.245,-4.916C-0.289,-5.819 0.133,-6.404 1.023,-6.433C2.916,-6.496 4.81,-6.486 6.703,-6.504C6.79,-6.505 6.878,-6.482 6.966,-6.481C7.388,-6.479 7.811,-6.48 8.232,-6.48C8.218,-6.052 8.185,-5.622 8.192,-5.193C8.249,-2.275 8.333,0.643 8.365,3.562C8.374,4.351 8.27,5.147 8.159,5.931C8.024,6.888 7.998,6.89 7.009,6.877C5.017,6.851 3.025,6.807 1.034,6.797C0.511,6.795 0.234,6.696 0.203,6.079C0.106,4.184 -0.056,2.29 -0.191,0.397C-0.128,0.393 -0.064,0.389 0,0.385" style="fill:rgb(228,150,164);fill-rule:nonzero;"/>
            </g>
        </g>
        <g transform="matrix(4.16667,0,0,4.16667,21791.3,7175.19)">
            <g transform="matrix(1,0,0,1,483.621,639.03)">
                <path d="M0,7.625L0,7.559C4.03,7.584 8.061,7.629 12.09,7.626C13.895,7.624 15.698,7.521 17.503,7.478C18.048,7.464 18.305,7.253 18.258,6.673C18.209,6.061 18.206,5.443 18.214,4.828C18.229,3.511 18.259,2.193 18.292,0.876C18.309,0.257 18.033,-0.024 17.407,0.029C17.144,0.052 16.876,0.032 16.609,0.032C12.981,0.042 9.353,0.072 5.725,0.056C1.227,0.036 -3.271,-0.036 -7.768,-0.059C-9.617,-0.067 -11.467,-0.005 -13.316,0.021C-15.618,0.053 -17.921,0.053 -20.222,0.119C-21.452,0.155 -21.537,0.271 -21.51,1.564C-21.474,3.246 -21.373,4.927 -21.329,6.608C-21.312,7.242 -21.013,7.396 -20.419,7.451C-18.526,7.625 -16.638,7.551 -14.744,7.547C-9.829,7.536 -4.915,7.595 0,7.625M-22.175,3.733C-22.167,2.449 -22.143,1.165 -22.159,-0.119C-22.166,-0.626 -21.972,-0.846 -21.474,-0.862C-20.942,-0.88 -20.412,-0.973 -19.883,-0.967C-12.099,-0.873 -4.314,-0.739 3.47,-0.679C7.54,-0.646 11.611,-0.749 15.682,-0.765C16.561,-0.769 17.439,-0.655 18.318,-0.604C18.807,-0.576 19.005,-0.346 19.014,0.155C19.052,2.587 19.118,5.018 19.175,7.448C19.197,8.387 19.192,8.428 18.233,8.435C14.606,8.461 10.979,8.475 7.352,8.469C2.613,8.461 -2.124,8.402 -6.862,8.419C-10.171,8.431 -13.479,8.555 -16.788,8.585C-18.247,8.598 -19.707,8.517 -21.166,8.451C-22.1,8.409 -22.133,8.375 -22.143,7.456C-22.156,6.216 -22.133,4.975 -22.125,3.734C-22.142,3.734 -22.158,3.734 -22.175,3.733" style="fill:rgb(35,31,32);fill-rule:nonzero;"/>
            </g>
        </g>
        <g transform="matrix(4.16667,0,0,4.16667,21791.3,7175.19)">
            <g transform="matrix(1,0,0,1,483.621,638.967)">
                <path d="M0,7.688C-4.915,7.658 -9.829,7.599 -14.744,7.61C-16.638,7.614 -18.526,7.688 -20.419,7.514C-21.013,7.459 -21.312,7.305 -21.329,6.671C-21.373,4.99 -21.474,3.309 -21.51,1.627C-21.537,0.334 -21.452,0.218 -20.222,0.182C-17.921,0.116 -15.618,0.116 -13.316,0.084C-11.467,0.058 -9.617,-0.004 -7.768,0.004C-3.271,0.027 1.227,0.099 5.725,0.119C9.353,0.135 12.981,0.105 16.609,0.095C16.876,0.095 17.144,0.115 17.407,0.092C18.033,0.039 18.309,0.32 18.292,0.939C18.259,2.256 18.229,3.574 18.214,4.891C18.206,5.506 18.209,6.124 18.258,6.736C18.305,7.316 18.048,7.527 17.503,7.541C15.698,7.584 13.895,7.687 12.09,7.689C8.061,7.692 4.03,7.647 0,7.622L0,7.688Z" style="fill:rgb(189,86,160);fill-rule:nonzero;"/>
            </g>
        </g>
        <g transform="matrix(4.16667,0,0,4.16667,21791.3,7175.19)">
            <g transform="matrix(1,0,0,1,453,628.224)">
                <path d="M0,0.611C-0.064,0.614 -0.128,0.618 -0.191,0.622C-0.056,2.516 0.106,4.409 0.203,6.305C0.234,6.921 0.511,7.02 1.034,7.023C3.025,7.032 5.017,7.077 7.009,7.102C7.998,7.116 8.024,7.114 8.159,6.156C8.27,5.372 8.374,4.577 8.365,3.787C8.333,0.869 8.249,-2.049 8.192,-4.968C8.185,-5.396 8.218,-5.826 8.232,-6.254C7.811,-6.254 7.388,-6.253 6.966,-6.256C6.878,-6.256 6.79,-6.279 6.703,-6.279C4.81,-6.26 2.916,-6.27 1.023,-6.207C0.133,-6.178 -0.29,-5.593 -0.245,-4.69C-0.159,-2.923 -0.081,-1.157 0,0.611M-23.491,6.925L-23.491,6.9C-22.781,6.905 -22.072,6.911 -21.363,6.914C-14.892,6.941 -8.42,6.97 -1.949,6.994C-0.993,6.997 -0.964,6.985 -0.926,5.965C-0.874,4.557 -0.853,3.148 -0.85,1.74C-0.845,-0.381 -0.84,-2.502 -0.888,-4.623C-0.922,-6.122 -1.019,-6.222 -2.473,-6.218C-7.301,-6.205 -12.129,-6.168 -16.957,-6.121C-22.658,-6.067 -28.358,-5.985 -34.059,-5.93C-38.201,-5.89 -42.344,-5.878 -46.486,-5.841C-47.142,-5.835 -48.02,-5.991 -48.387,-5.641C-48.722,-5.323 -48.504,-4.422 -48.529,-3.778C-48.532,-3.689 -48.534,-3.6 -48.531,-3.511C-48.445,-0.411 -48.367,2.688 -48.269,5.788C-48.24,6.67 -48.214,6.67 -47.375,6.733C-47.242,6.744 -47.108,6.748 -46.976,6.749C-44.728,6.773 -42.479,6.803 -40.231,6.819C-34.651,6.858 -29.071,6.89 -23.491,6.925M9.005,0.796C9.05,2.311 9.107,4.171 9.157,6.029C9.165,6.339 9.136,6.648 9.124,6.958C9.102,7.528 8.801,7.653 8.251,7.66C5.239,7.694 2.229,7.8 -0.782,7.838C-3.261,7.869 -5.741,7.84 -8.221,7.833C-12.074,7.822 -15.927,7.801 -19.78,7.796C-22.612,7.792 -25.444,7.798 -28.275,7.812C-32.999,7.835 -37.723,7.873 -42.445,7.893C-44.127,7.9 -45.808,7.89 -47.488,7.862C-48.789,7.84 -49.236,7.401 -49.258,6.096C-49.27,5.353 -49.142,4.608 -49.151,3.864C-49.193,0.633 -49.262,-2.596 -49.321,-5.826C-49.344,-7.021 -49.272,-7.092 -48.052,-7.062C-45.096,-6.988 -42.141,-6.867 -39.184,-6.852C-35.911,-6.835 -32.638,-6.936 -29.365,-6.948C-25.067,-6.963 -20.769,-6.92 -16.471,-6.943C-10.712,-6.972 -4.952,-7.028 0.807,-7.096C3.058,-7.122 5.309,-7.23 7.56,-7.269C8.795,-7.289 9.029,-7.061 9.039,-5.798C9.054,-3.715 9.021,-1.631 9.005,0.796" style="fill:rgb(35,31,32);fill-rule:nonzero;"/>
            </g>
        </g>
        <g transform="matrix(4.16667,0,0,4.16667,21791.3,7175.19)">
            <g transform="matrix(1,0,0,1,407.33,628.619)">
                <path d="M0,-0.015L0.05,-0.015C0.042,1.226 0.019,2.466 0.032,3.707C0.042,4.627 0.075,4.661 1.009,4.702C2.468,4.767 3.928,4.849 5.387,4.836C8.695,4.806 12.004,4.682 15.313,4.671C20.051,4.653 24.788,4.713 29.526,4.72C33.153,4.726 36.781,4.712 40.408,4.686C41.367,4.679 41.372,4.637 41.35,3.7C41.293,1.268 41.227,-1.162 41.188,-3.593C41.18,-4.095 40.981,-4.326 40.493,-4.354C39.614,-4.404 38.735,-4.517 37.856,-4.514C33.786,-4.498 29.715,-4.396 25.645,-4.427C17.86,-4.489 10.076,-4.622 2.292,-4.715C1.763,-4.722 1.232,-4.629 0.701,-4.611C0.203,-4.594 0.009,-4.375 0.016,-3.868C0.032,-2.583 0.008,-1.299 0,-0.015M22.179,6.531C16.599,6.496 11.019,6.464 5.438,6.424C3.19,6.409 0.942,6.379 -1.306,6.354C-1.438,6.353 -1.572,6.349 -1.705,6.339C-2.544,6.275 -2.57,6.275 -2.599,5.393C-2.697,2.294 -2.775,-0.806 -2.861,-3.906C-2.864,-3.994 -2.862,-4.083 -2.859,-4.172C-2.834,-4.817 -3.052,-5.717 -2.717,-6.036C-2.35,-6.385 -1.472,-6.23 -0.816,-6.236C3.326,-6.273 7.469,-6.285 11.611,-6.325C17.312,-6.379 23.012,-6.461 28.713,-6.516C33.541,-6.563 38.369,-6.6 43.197,-6.613C44.651,-6.617 44.748,-6.517 44.782,-5.018C44.83,-2.897 44.825,-0.776 44.82,1.345C44.817,2.754 44.796,4.163 44.744,5.57C44.706,6.59 44.677,6.602 43.721,6.599C37.25,6.576 30.778,6.547 24.307,6.519C23.598,6.516 22.889,6.51 22.179,6.506L22.179,6.531Z" style="fill:rgb(209,117,122);fill-rule:nonzero;"/>
            </g>
        </g>
        <g transform="matrix(4.16667,0,0,4.16667,21791.3,7175.19)">
            <g transform="matrix(1,0,0,1,453,628.45)">
                <path d="M0,0.385C-0.081,-1.383 -0.159,-3.149 -0.245,-4.916C-0.29,-5.819 0.133,-6.404 1.023,-6.433C2.916,-6.496 4.81,-6.486 6.703,-6.505C6.79,-6.505 6.878,-6.482 6.966,-6.482C7.388,-6.479 7.811,-6.48 8.232,-6.48C8.218,-6.052 8.185,-5.622 8.192,-5.194C8.249,-2.275 8.333,0.643 8.365,3.561C8.374,4.351 8.27,5.146 8.159,5.93C8.024,6.888 7.998,6.89 7.009,6.876C5.017,6.851 3.025,6.806 1.034,6.797C0.511,6.794 0.234,6.695 0.203,6.079C0.106,4.183 -0.056,2.29 -0.191,0.396C-0.128,0.392 -0.064,0.388 0,0.385" style="fill:rgb(228,150,164);fill-rule:nonzero;"/>
            </g>
        </g>
        <g transform="matrix(4.16667,0,0,4.16667,21791.3,7175.19)">
            <g transform="matrix(1,0,0,1,429.505,624.869)">
                <path d="M0,7.626L0,7.56C4.03,7.585 8.061,7.629 12.09,7.626C13.895,7.625 15.698,7.522 17.503,7.478C18.048,7.465 18.305,7.254 18.258,6.674C18.209,6.062 18.206,5.443 18.214,4.829C18.229,3.511 18.259,2.193 18.292,0.876C18.308,0.258 18.033,-0.024 17.407,0.029C17.144,0.053 16.876,0.032 16.609,0.033C12.981,0.042 9.353,0.072 5.725,0.057C1.227,0.036 -3.271,-0.035 -7.768,-0.058C-9.617,-0.067 -11.467,-0.005 -13.316,0.022C-15.618,0.053 -17.921,0.054 -20.222,0.12C-21.452,0.155 -21.537,0.272 -21.51,1.565C-21.474,3.247 -21.373,4.928 -21.329,6.609C-21.312,7.242 -21.013,7.397 -20.419,7.452C-18.526,7.625 -16.638,7.551 -14.744,7.547C-9.829,7.537 -4.915,7.595 0,7.626M-22.175,3.734C-22.167,2.45 -22.143,1.166 -22.159,-0.118C-22.166,-0.626 -21.972,-0.845 -21.474,-0.861C-20.942,-0.88 -20.412,-0.973 -19.883,-0.966C-12.099,-0.873 -4.314,-0.739 3.47,-0.678C7.54,-0.646 11.611,-0.749 15.682,-0.765C16.561,-0.768 17.439,-0.654 18.318,-0.604C18.807,-0.576 19.005,-0.346 19.014,0.156C19.052,2.587 19.118,5.018 19.175,7.449C19.197,8.387 19.192,8.429 18.233,8.436C14.606,8.461 10.979,8.476 7.352,8.47C2.613,8.462 -2.124,8.402 -6.862,8.42C-10.171,8.432 -13.479,8.556 -16.788,8.585C-18.247,8.599 -19.707,8.517 -21.166,8.451C-22.1,8.41 -22.133,8.376 -22.143,7.456C-22.156,6.216 -22.133,4.976 -22.125,3.734L-22.175,3.734Z" style="fill:rgb(35,31,32);fill-rule:nonzero;"/>
            </g>
        </g>
        <g transform="matrix(4.16667,0,0,4.16667,21791.3,7175.19)">
            <g transform="matrix(1,0,0,1,429.505,624.805)">
                <path d="M0,7.69C-4.915,7.659 -9.829,7.601 -14.744,7.611C-16.638,7.615 -18.526,7.689 -20.419,7.516C-21.013,7.461 -21.312,7.306 -21.329,6.673C-21.373,4.992 -21.474,3.311 -21.51,1.629C-21.537,0.336 -21.452,0.219 -20.222,0.184C-17.921,0.118 -15.618,0.117 -13.316,0.086C-11.467,0.059 -9.617,-0.003 -7.768,0.006C-3.271,0.029 1.227,0.1 5.725,0.121C9.353,0.136 12.981,0.106 16.609,0.097C16.876,0.096 17.144,0.117 17.407,0.093C18.033,0.04 18.308,0.322 18.292,0.94C18.259,2.257 18.229,3.575 18.214,4.893C18.206,5.507 18.209,6.126 18.258,6.738C18.305,7.318 18.048,7.529 17.503,7.542C15.698,7.586 13.895,7.689 12.09,7.69C8.061,7.693 4.03,7.649 0,7.624L0,7.69Z" style="fill:rgb(189,86,160);fill-rule:nonzero;"/>
            </g>
        </g>
        <g transform="matrix(4.16667,0,0,4.16667,21791.3,7175.19)">
            <g transform="matrix(1,0,0,1,507.091,628.417)">
                <path d="M0,0.61C-0.063,0.614 -0.128,0.618 -0.191,0.622C-0.055,2.515 0.106,4.409 0.203,6.304C0.234,6.921 0.511,7.02 1.035,7.022C3.026,7.032 5.018,7.076 7.009,7.102C7.999,7.115 8.025,7.113 8.159,6.156C8.27,5.372 8.374,4.576 8.365,3.787C8.333,0.868 8.25,-2.05 8.193,-4.968C8.185,-5.397 8.219,-5.826 8.233,-6.255C7.811,-6.255 7.389,-6.253 6.966,-6.256C6.879,-6.257 6.791,-6.28 6.703,-6.279C4.811,-6.261 2.916,-6.271 1.024,-6.208C0.133,-6.179 -0.289,-5.593 -0.245,-4.69C-0.158,-2.923 -0.081,-1.157 0,0.61M-23.49,6.925L-23.49,6.9C-22.781,6.904 -22.072,6.91 -21.363,6.913C-14.892,6.941 -8.42,6.969 -1.948,6.993C-0.992,6.997 -0.964,6.985 -0.926,5.964C-0.873,4.557 -0.853,3.148 -0.85,1.74C-0.845,-0.381 -0.839,-2.503 -0.888,-4.623C-0.922,-6.123 -1.019,-6.223 -2.473,-6.219C-7.301,-6.205 -12.129,-6.168 -16.957,-6.122C-22.657,-6.067 -28.357,-5.986 -34.059,-5.93C-38.201,-5.89 -42.344,-5.879 -46.485,-5.841C-47.142,-5.835 -48.02,-5.991 -48.387,-5.642C-48.722,-5.324 -48.504,-4.422 -48.528,-3.778C-48.532,-3.689 -48.533,-3.6 -48.531,-3.512C-48.445,-0.412 -48.366,2.688 -48.268,5.787C-48.239,6.669 -48.213,6.669 -47.374,6.733C-47.241,6.743 -47.108,6.747 -46.976,6.749C-44.728,6.773 -42.479,6.803 -40.231,6.819C-34.651,6.858 -29.07,6.89 -23.49,6.925M9.006,0.796C9.05,2.311 9.108,4.17 9.157,6.029C9.165,6.338 9.137,6.648 9.124,6.958C9.102,7.528 8.801,7.653 8.251,7.659C5.24,7.694 2.229,7.8 -0.781,7.838C-3.261,7.868 -5.741,7.839 -8.221,7.833C-12.073,7.822 -15.927,7.801 -19.78,7.796C-22.611,7.792 -25.443,7.797 -28.275,7.811C-32.999,7.835 -37.722,7.872 -42.445,7.892C-44.126,7.9 -45.808,7.89 -47.488,7.862C-48.789,7.84 -49.236,7.401 -49.257,6.095C-49.269,5.352 -49.142,4.607 -49.151,3.864C-49.192,0.633 -49.262,-2.597 -49.321,-5.827C-49.344,-7.021 -49.271,-7.092 -48.052,-7.062C-45.096,-6.988 -42.14,-6.868 -39.184,-6.852C-35.911,-6.835 -32.638,-6.936 -29.364,-6.948C-25.066,-6.963 -20.769,-6.921 -16.471,-6.943C-10.711,-6.972 -4.952,-7.028 0.807,-7.096C3.059,-7.122 5.309,-7.231 7.561,-7.269C8.796,-7.29 9.03,-7.061 9.039,-5.798C9.054,-3.715 9.021,-1.631 9.006,0.796" style="fill:rgb(35,31,32);fill-rule:nonzero;"/>
            </g>
        </g>
        <g transform="matrix(4.16667,0,0,4.16667,21791.3,7175.19)">
            <g transform="matrix(1,0,0,1,461.421,628.811)">
                <path d="M0,-0.014L0.051,-0.014C0.043,1.226 0.019,2.467 0.032,3.708C0.043,4.627 0.075,4.661 1.01,4.703C2.468,4.768 3.928,4.849 5.387,4.837C8.696,4.806 12.004,4.682 15.313,4.671C20.051,4.654 24.789,4.714 29.526,4.72C33.154,4.726 36.781,4.713 40.408,4.686C41.367,4.679 41.372,4.638 41.351,3.7C41.293,1.269 41.228,-1.161 41.188,-3.592C41.181,-4.094 40.981,-4.325 40.494,-4.353C39.614,-4.404 38.735,-4.517 37.857,-4.513C33.786,-4.497 29.715,-4.395 25.645,-4.427C17.86,-4.488 10.076,-4.621 2.292,-4.715C1.763,-4.721 1.232,-4.628 0.701,-4.611C0.203,-4.593 0.009,-4.374 0.016,-3.867C0.033,-2.583 0.008,-1.298 0,-0.014M22.18,6.532C16.6,6.497 11.019,6.465 5.438,6.425C3.19,6.41 0.942,6.38 -1.306,6.355C-1.438,6.353 -1.571,6.349 -1.704,6.34C-2.543,6.275 -2.569,6.275 -2.598,5.393C-2.696,2.295 -2.775,-0.806 -2.861,-3.906C-2.863,-3.993 -2.862,-4.082 -2.858,-4.171C-2.834,-4.816 -3.052,-5.717 -2.717,-6.035C-2.35,-6.384 -1.472,-6.229 -0.815,-6.235C3.326,-6.273 7.469,-6.284 11.611,-6.324C17.312,-6.379 23.013,-6.46 28.713,-6.516C33.541,-6.562 38.369,-6.599 43.197,-6.613C44.651,-6.617 44.748,-6.517 44.782,-5.017C44.831,-2.897 44.825,-0.775 44.82,1.346C44.817,2.755 44.797,4.164 44.744,5.571C44.706,6.591 44.678,6.603 43.722,6.599C37.25,6.576 30.778,6.548 24.307,6.519C23.598,6.516 22.889,6.51 22.18,6.507L22.18,6.532Z" style="fill:rgb(209,117,122);fill-rule:nonzero;"/>
            </g>
        </g>
        <g transform="matrix(4.16667,0,0,4.16667,21791.3,7175.19)">
            <g transform="matrix(1,0,0,1,507.091,628.642)">
                <path d="M0,0.385C-0.081,-1.382 -0.158,-3.148 -0.245,-4.915C-0.289,-5.818 0.133,-6.404 1.024,-6.433C2.916,-6.496 4.811,-6.486 6.703,-6.504C6.791,-6.505 6.879,-6.482 6.966,-6.481C7.389,-6.478 7.811,-6.48 8.233,-6.48C8.219,-6.051 8.185,-5.622 8.193,-5.193C8.25,-2.275 8.333,0.643 8.365,3.562C8.374,4.351 8.27,5.147 8.159,5.931C8.025,6.888 7.999,6.89 7.009,6.877C5.018,6.851 3.026,6.807 1.035,6.797C0.511,6.795 0.234,6.696 0.203,6.079C0.106,4.184 -0.055,2.29 -0.191,0.397C-0.128,0.393 -0.063,0.389 0,0.385" style="fill:rgb(228,150,164);fill-rule:nonzero;"/>
            </g>
        </g>
        <g transform="matrix(4.16667,0,0,4.16667,21791.3,7175.19)">
            <g transform="matrix(1,0,0,1,483.596,625.063)">
                <path d="M0,7.625C0.001,7.604 0.001,7.581 0.001,7.559C4.03,7.584 8.061,7.629 12.091,7.626C13.895,7.625 15.698,7.521 17.503,7.478C18.049,7.464 18.305,7.254 18.259,6.673C18.21,6.061 18.207,5.443 18.214,4.828C18.229,3.511 18.259,2.193 18.293,0.876C18.309,0.257 18.034,-0.024 17.408,0.029C17.144,0.052 16.876,0.032 16.61,0.032C12.981,0.042 9.353,0.072 5.725,0.056C1.228,0.036 -3.27,-0.036 -7.768,-0.059C-9.616,-0.067 -11.466,-0.005 -13.315,0.021C-15.618,0.053 -17.921,0.053 -20.222,0.12C-21.452,0.155 -21.537,0.271 -21.509,1.564C-21.473,3.246 -21.373,4.927 -21.328,6.608C-21.312,7.242 -21.012,7.396 -20.418,7.451C-18.526,7.625 -16.637,7.551 -14.743,7.547C-9.829,7.536 -4.914,7.595 0,7.625M-22.175,3.734C-22.167,2.45 -22.142,1.165 -22.159,-0.118C-22.166,-0.626 -21.972,-0.845 -21.474,-0.862C-20.942,-0.88 -20.412,-0.973 -19.883,-0.967C-12.099,-0.873 -4.314,-0.739 3.47,-0.679C7.54,-0.646 11.611,-0.749 15.683,-0.765C16.561,-0.769 17.439,-0.655 18.319,-0.604C18.807,-0.576 19.006,-0.346 19.014,0.156C19.053,2.587 19.118,5.018 19.176,7.448C19.197,8.387 19.192,8.428 18.233,8.435C14.606,8.461 10.979,8.475 7.352,8.469C2.614,8.462 -2.124,8.402 -6.861,8.419C-10.171,8.431 -13.479,8.555 -16.788,8.585C-18.247,8.598 -19.707,8.517 -21.165,8.451C-22.1,8.409 -22.132,8.375 -22.143,7.456C-22.156,6.216 -22.132,4.975 -22.124,3.734L-22.175,3.734Z" style="fill:rgb(35,31,32);fill-rule:nonzero;"/>
            </g>
        </g>
        <g transform="matrix(4.16667,0,0,4.16667,21791.3,7175.19)">
            <g transform="matrix(1,0,0,1,483.596,625)">
                <path d="M0,7.688C-4.914,7.658 -9.829,7.599 -14.743,7.61C-16.637,7.614 -18.526,7.688 -20.418,7.514C-21.012,7.459 -21.312,7.305 -21.328,6.671C-21.373,4.99 -21.473,3.309 -21.509,1.627C-21.537,0.334 -21.452,0.218 -20.222,0.183C-17.921,0.116 -15.618,0.116 -13.315,0.084C-11.466,0.058 -9.616,-0.004 -7.768,0.004C-3.27,0.027 1.228,0.099 5.725,0.119C9.353,0.135 12.981,0.105 16.61,0.095C16.876,0.095 17.144,0.115 17.408,0.092C18.034,0.039 18.309,0.32 18.293,0.939C18.259,2.256 18.229,3.574 18.214,4.891C18.207,5.506 18.21,6.124 18.259,6.736C18.305,7.317 18.049,7.527 17.503,7.541C15.698,7.584 13.895,7.688 12.091,7.689C8.061,7.692 4.03,7.647 0.001,7.622C0.001,7.644 0.001,7.667 0,7.688" style="fill:rgb(189,86,160);fill-rule:nonzero;"/>
            </g>
        </g>
        <g transform="matrix(4.16667,0,0,4.16667,21791.3,7175.19)">
            <g transform="matrix(1,0,0,1,480.511,614.592)">
                <path d="M0,0.611C-0.063,0.615 -0.127,0.619 -0.191,0.622C-0.055,2.516 0.107,4.409 0.204,6.305C0.235,6.921 0.512,7.021 1.035,7.023C3.026,7.032 5.018,7.077 7.009,7.103C7.999,7.116 8.025,7.114 8.16,6.157C8.27,5.372 8.375,4.577 8.366,3.788C8.333,0.869 8.25,-2.049 8.193,-4.967C8.186,-5.396 8.219,-5.826 8.233,-6.254C7.811,-6.254 7.389,-6.253 6.967,-6.255C6.879,-6.256 6.791,-6.279 6.704,-6.278C4.811,-6.26 2.916,-6.27 1.024,-6.207C0.134,-6.178 -0.289,-5.593 -0.245,-4.69C-0.158,-2.923 -0.081,-1.156 0,0.611M-23.49,6.925L-23.49,6.901C-22.781,6.905 -22.072,6.911 -21.362,6.914C-14.892,6.941 -8.42,6.97 -1.948,6.994C-0.992,6.998 -0.963,6.985 -0.926,5.965C-0.873,4.557 -0.852,3.149 -0.849,1.741C-0.845,-0.38 -0.839,-2.502 -0.888,-4.622C-0.922,-6.122 -1.019,-6.222 -2.472,-6.218C-7.3,-6.205 -12.128,-6.167 -16.956,-6.121C-22.657,-6.067 -28.357,-5.985 -34.059,-5.929C-38.2,-5.889 -42.343,-5.878 -46.485,-5.84C-47.142,-5.834 -48.019,-5.99 -48.386,-5.641C-48.722,-5.323 -48.503,-4.421 -48.528,-3.777C-48.532,-3.689 -48.533,-3.6 -48.53,-3.511C-48.445,-0.411 -48.366,2.688 -48.268,5.788C-48.239,6.67 -48.213,6.67 -47.374,6.734C-47.241,6.744 -47.108,6.748 -46.976,6.749C-44.728,6.773 -42.479,6.803 -40.23,6.82C-34.65,6.858 -29.07,6.89 -23.49,6.925M9.006,0.796C9.051,2.312 9.108,4.171 9.157,6.029C9.166,6.339 9.137,6.649 9.124,6.959C9.102,7.528 8.801,7.654 8.252,7.66C5.24,7.694 2.23,7.8 -0.781,7.839C-3.261,7.869 -5.74,7.84 -8.22,7.834C-12.073,7.822 -15.927,7.801 -19.779,7.797C-22.611,7.792 -25.443,7.798 -28.275,7.812C-32.998,7.835 -37.722,7.873 -42.445,7.893C-44.126,7.9 -45.808,7.891 -47.488,7.863C-48.789,7.84 -49.235,7.402 -49.257,6.096C-49.269,5.353 -49.141,4.608 -49.15,3.865C-49.192,0.634 -49.261,-2.596 -49.321,-5.826C-49.343,-7.021 -49.271,-7.092 -48.052,-7.061C-45.096,-6.988 -42.14,-6.867 -39.183,-6.851C-35.91,-6.834 -32.638,-6.935 -29.364,-6.948C-25.066,-6.963 -20.769,-6.92 -16.471,-6.943C-10.711,-6.972 -4.952,-7.028 0.808,-7.096C3.059,-7.122 5.309,-7.23 7.561,-7.268C8.796,-7.289 9.03,-7.06 9.039,-5.798C9.054,-3.714 9.021,-1.631 9.006,0.796" style="fill:rgb(35,31,32);fill-rule:nonzero;"/>
            </g>
        </g>
        <g transform="matrix(4.16667,0,0,4.16667,21791.3,7175.19)">
            <g transform="matrix(1,0,0,1,434.841,614.988)">
                <path d="M0,-0.016C0.017,-0.016 0.034,-0.015 0.051,-0.015C0.043,1.225 0.019,2.465 0.033,3.706C0.043,4.626 0.076,4.66 1.01,4.702C2.468,4.767 3.929,4.848 5.388,4.836C8.696,4.805 12.005,4.681 15.313,4.67C20.051,4.653 24.789,4.712 29.527,4.719C33.154,4.725 36.781,4.712 40.409,4.685C41.367,4.678 41.372,4.636 41.351,3.699C41.294,1.268 41.228,-1.162 41.188,-3.594C41.181,-4.095 40.982,-4.327 40.494,-4.354C39.615,-4.405 38.736,-4.518 37.857,-4.515C33.786,-4.498 29.715,-4.396 25.645,-4.428C17.86,-4.489 10.077,-4.622 2.293,-4.716C1.763,-4.722 1.232,-4.63 0.702,-4.612C0.203,-4.595 0.009,-4.375 0.016,-3.869C0.033,-2.584 0.008,-1.3 0,-0.016M22.18,6.53C16.6,6.495 11.02,6.463 5.439,6.424C3.19,6.408 0.942,6.378 -1.306,6.353C-1.438,6.352 -1.571,6.348 -1.704,6.338C-2.543,6.274 -2.569,6.274 -2.598,5.392C-2.696,2.293 -2.775,-0.807 -2.86,-3.907C-2.863,-3.995 -2.862,-4.084 -2.858,-4.172C-2.833,-4.817 -3.052,-5.718 -2.716,-6.037C-2.349,-6.385 -1.472,-6.23 -0.815,-6.236C3.327,-6.274 7.47,-6.285 11.611,-6.325C17.312,-6.38 23.013,-6.462 28.714,-6.517C33.542,-6.563 38.37,-6.601 43.198,-6.614C44.651,-6.618 44.748,-6.518 44.782,-5.018C44.831,-2.898 44.825,-0.776 44.821,1.345C44.818,2.754 44.797,4.162 44.744,5.569C44.707,6.589 44.678,6.602 43.722,6.598C37.25,6.575 30.778,6.546 24.308,6.518C23.598,6.515 22.889,6.509 22.18,6.505L22.18,6.53Z" style="fill:rgb(209,117,122);fill-rule:nonzero;"/>
            </g>
        </g>
        <g transform="matrix(4.16667,0,0,4.16667,21791.3,7175.19)">
            <g transform="matrix(1,0,0,1,480.511,614.818)">
                <path d="M0,0.385C-0.081,-1.382 -0.158,-3.149 -0.245,-4.916C-0.289,-5.819 0.134,-6.404 1.024,-6.433C2.916,-6.496 4.811,-6.486 6.704,-6.504C6.791,-6.505 6.879,-6.482 6.967,-6.481C7.389,-6.479 7.811,-6.48 8.233,-6.48C8.219,-6.052 8.186,-5.622 8.193,-5.193C8.25,-2.275 8.333,0.643 8.366,3.562C8.375,4.351 8.27,5.146 8.16,5.931C8.025,6.888 7.999,6.89 7.009,6.877C5.018,6.851 3.026,6.806 1.035,6.797C0.512,6.795 0.235,6.695 0.204,6.079C0.107,4.183 -0.055,2.29 -0.191,0.396C-0.127,0.393 -0.063,0.389 0,0.385" style="fill:rgb(228,150,164);fill-rule:nonzero;"/>
            </g>
        </g>
        <g transform="matrix(4.16667,0,0,4.16667,21791.3,7175.19)">
            <g transform="matrix(1,0,0,1,457.017,611.238)">
                <path d="M0,7.625L0,7.559C4.03,7.584 8.06,7.629 12.09,7.626C13.894,7.624 15.698,7.521 17.502,7.478C18.048,7.464 18.305,7.253 18.258,6.673C18.209,6.061 18.206,5.443 18.213,4.828C18.229,3.511 18.259,2.192 18.292,0.875C18.308,0.257 18.033,-0.024 17.407,0.029C17.144,0.052 16.875,0.031 16.609,0.032C12.98,0.042 9.353,0.072 5.724,0.056C1.227,0.035 -3.271,-0.036 -7.768,-0.059C-9.617,-0.068 -11.467,-0.005 -13.316,0.021C-15.618,0.052 -17.921,0.053 -20.222,0.119C-21.452,0.155 -21.538,0.271 -21.51,1.564C-21.474,3.246 -21.373,4.927 -21.329,6.608C-21.312,7.241 -21.013,7.396 -20.419,7.451C-18.527,7.624 -16.638,7.551 -14.744,7.547C-9.829,7.536 -4.915,7.594 0,7.625M-22.176,3.733C-22.168,2.449 -22.143,1.165 -22.16,-0.119C-22.167,-0.626 -21.973,-0.846 -21.474,-0.862C-20.943,-0.881 -20.413,-0.973 -19.883,-0.967C-12.099,-0.873 -4.315,-0.739 3.469,-0.679C7.539,-0.646 11.61,-0.749 15.682,-0.766C16.561,-0.769 17.439,-0.655 18.318,-0.604C18.807,-0.577 19.005,-0.346 19.013,0.155C19.052,2.587 19.118,5.018 19.175,7.448C19.196,8.386 19.191,8.428 18.233,8.435C14.605,8.461 10.979,8.475 7.352,8.469C2.613,8.461 -2.125,8.402 -6.862,8.419C-10.171,8.431 -13.479,8.555 -16.788,8.585C-18.247,8.598 -19.708,8.517 -21.166,8.451C-22.1,8.409 -22.133,8.375 -22.143,7.455C-22.157,6.215 -22.133,4.975 -22.125,3.734C-22.142,3.734 -22.159,3.733 -22.176,3.733" style="fill:rgb(35,31,32);fill-rule:nonzero;"/>
            </g>
        </g>
        <g transform="matrix(4.16667,0,0,4.16667,21791.3,7175.19)">
            <g transform="matrix(1,0,0,1,457.017,611.174)">
                <path d="M0,7.689C-4.915,7.658 -9.829,7.6 -14.744,7.611C-16.638,7.615 -18.527,7.688 -20.419,7.515C-21.013,7.46 -21.312,7.305 -21.329,6.672C-21.373,4.991 -21.474,3.31 -21.51,1.628C-21.538,0.335 -21.452,0.219 -20.222,0.183C-17.921,0.117 -15.618,0.116 -13.316,0.085C-11.467,0.059 -9.617,-0.004 -7.768,0.005C-3.271,0.028 1.227,0.099 5.724,0.12C9.353,0.136 12.98,0.106 16.609,0.096C16.875,0.095 17.144,0.116 17.407,0.093C18.033,0.04 18.308,0.321 18.292,0.939C18.259,2.256 18.229,3.575 18.213,4.892C18.206,5.507 18.209,6.125 18.258,6.737C18.305,7.317 18.048,7.528 17.502,7.542C15.698,7.585 13.894,7.688 12.09,7.69C8.06,7.693 4.03,7.648 0,7.623L0,7.689Z" style="fill:rgb(189,86,160);fill-rule:nonzero;"/>
            </g>
        </g>
        <g transform="matrix(4.16667,0,0,4.16667,21791.3,7175.19)">
            <text x="409.594px" y="644.641px" style="font-family:'LucidaGrande', 'Lucida Grande', sans-serif;font-weight:500;font-size:5.997px;fill:white;">2<tspan x="413.279px 416.963px 418.754px 421.718px 424.922px 427.268px 430.472px 435.962px 439.196px 440.821px 444.397px " y="644.641px 644.641px 644.641px 644.641px 644.641px 644.641px 644.641px 644.641px 644.641px 644.641px 644.641px ">0 caramelos</tspan></text>
            <text x="409.594px" y="659.168px" style="font-family:'LucidaGrande', 'Lucida Grande', sans-serif;font-weight:500;font-size:5.997px;fill:white;">2<tspan x="413.279px 416.963px 418.754px 421.718px 424.922px 427.268px 430.472px 435.962px 439.196px 440.821px 444.397px " y="659.168px 659.168px 659.168px 659.168px 659.168px 659.168px 659.168px 659.168px 659.168px 659.168px 659.168px ">0 caramelos</tspan></text>
            <text x="409.594px" y="673.315px" style="font-family:'LucidaGrande', 'Lucida Grande', sans-serif;font-weight:500;font-size:5.997px;fill:white;">2<tspan x="413.279px 416.963px 418.754px 421.718px 424.922px 427.268px 430.472px 435.962px 439.196px 440.821px 444.397px " y="673.315px 673.315px 673.315px 673.315px 673.315px 673.315px 673.315px 673.315px 673.315px 673.315px 673.315px ">0 caramelos</tspan></text>
        </g>
        <g transform="matrix(4.16667,0,0,4.16667,21791.3,7175.19)">
            <text x="463.913px" y="644.641px" style="font-family:'LucidaGrande', 'Lucida Grande', sans-serif;font-weight:500;font-size:5.997px;fill:white;">2<tspan x="467.597px 471.281px 473.072px 476.036px 479.24px 481.586px 484.79px 490.28px 493.514px 495.139px 498.715px " y="644.641px 644.641px 644.641px 644.641px 644.641px 644.641px 644.641px 644.641px 644.641px 644.641px 644.641px ">0 caramelos</tspan></text>
        </g>
        <g transform="matrix(4.16667,0,0,4.16667,21791.3,7175.19)">
            <text x="409.594px" y="630.687px" style="font-family:'LucidaGrande', 'Lucida Grande', sans-serif;font-weight:500;font-size:5.997px;fill:white;">2<tspan x="413.279px 416.963px 418.754px 421.718px 424.922px 427.268px 430.472px 435.962px 439.196px 440.821px 444.397px " y="630.687px 630.687px 630.687px 630.687px 630.687px 630.687px 630.687px 630.687px 630.687px 630.687px 630.687px ">0 caramelos</tspan></text>
        </g>
        <g transform="matrix(4.16667,0,0,4.16667,21791.3,7175.19)">
            <text x="463.913px" y="630.687px" style="font-family:'LucidaGrande', 'Lucida Grande', sans-serif;font-weight:500;font-size:5.997px;fill:white;">2<tspan x="467.597px 471.281px 473.072px 476.036px 479.24px 481.586px 484.79px 490.28px 493.514px 495.139px 498.715px " y="630.687px 630.687px 630.687px 630.687px 630.687px 630.687px 630.687px 630.687px 630.687px 630.687px 630.687px ">0 caramelos</tspan></text>
        </g>
        <g transform="matrix(4.16667,0,0,4.16667,21791.3,7175.19)">
            <text x="437.035px" y="616.751px" style="font-family:'LucidaGrande', 'Lucida Grande', sans-serif;font-weight:500;font-size:5.997px;fill:white;">2<tspan x="440.719px 444.404px 446.195px 449.158px 452.362px 454.708px 457.912px 463.403px 466.636px 468.262px 471.838px " y="616.751px 616.751px 616.751px 616.751px 616.751px 616.751px 616.751px 616.751px 616.751px 616.751px 616.751px ">0 caramelos</tspan></text>
        </g>
        <g transform="matrix(4.16667,0,0,4.16667,21791.3,7175.19)">
            <text x="463.913px" y="659.166px" style="font-family:'LucidaGrande', 'Lucida Grande', sans-serif;font-weight:500;font-size:5.997px;fill:white;">2<tspan x="467.597px 471.281px 473.072px 476.036px 479.24px 481.586px 484.79px 490.28px 493.514px 495.139px 498.715px " y="659.166px 659.166px 659.166px 659.166px 659.166px 659.166px 659.166px 659.166px 659.166px 659.166px 659.166px ">0 caramelos</tspan></text>
            <text x="463.913px" y="673.312px" style="font-family:'LucidaGrande', 'Lucida Grande', sans-serif;font-weight:500;font-size:5.997px;fill:white;">2<tspan x="467.597px 471.281px 473.072px 476.036px 479.24px 481.586px 484.79px 490.28px 493.514px 495.139px 498.715px " y="673.312px 673.312px 673.312px 673.312px 673.312px 673.312px 673.312px 673.312px 673.312px 673.312px 673.312px ">0 caramelos</tspan></text>
        </g>
    </g>
</svg>
