<?xml version="1.0" encoding="UTF-8" standalone="no"?>
<!DOCTYPE svg PUBLIC "-//W3C//DTD SVG 1.1//EN" "http://www.w3.org/Graphics/SVG/1.1/DTD/svg11.dtd">
<svg width="100%" height="100%" viewBox="0 0 311 330" version="1.1" xmlns="http://www.w3.org/2000/svg" xmlns:xlink="http://www.w3.org/1999/xlink" xml:space="preserve" xmlns:serif="http://www.serif.com/" style="fill-rule:evenodd;clip-rule:evenodd;stroke-linejoin:round;stroke-miterlimit:2;">
    <g transform="matrix(1,0,0,1,-22762.3,-9187.4)">
        <g transform="matrix(4.16667,0,0,4.16667,21791.3,7175.19)">
            <g transform="matrix(1,0,0,1,290.137,559.021)">
                <path d="M0,-73.028C-2.312,-71.302 -3.725,-67.556 -2.854,-65.367C-1.794,-67.923 -0.037,-70.088 0,-73.028M2.018,0.024C2.701,-0.407 3.074,-0.558 3.336,-0.82C6.407,-3.898 9.823,-6.571 13.209,-9.281C14.616,-10.406 14.667,-10.793 13.32,-11.954C10.332,-14.528 7.257,-17.001 3.996,-19.699C3.09,-13.072 2.333,-6.7 2.018,0.024M0.67,-4.038C0.816,-4.038 0.963,-4.039 1.111,-4.039C1.296,-5.473 1.504,-6.904 1.665,-8.341C1.995,-11.252 2.335,-14.165 2.607,-17.083C2.826,-19.429 3.125,-21.786 3.074,-24.131C3.008,-27.186 2.619,-30.234 2.4,-33.288C2.328,-34.308 2.381,-35.335 2.329,-36.357C2.074,-41.388 1.8,-46.419 1.535,-51.45C1.411,-53.791 1.292,-56.132 1.172,-58.474C0.671,-53.752 0.404,-49.035 0.118,-44.321C-0.041,-41.704 -0.258,-39.092 -0.402,-36.476C-0.597,-32.908 -0.983,-29.327 -0.866,-25.766C-0.672,-19.833 -0.153,-13.911 0.25,-7.986C0.34,-6.666 0.527,-5.353 0.67,-4.038M1.994,-62.681C2.105,-60.531 2.229,-58.374 2.326,-56.217C2.608,-49.899 2.939,-43.582 3.136,-37.26C3.286,-32.463 3.586,-27.691 4.261,-22.935C4.466,-21.488 5.12,-20.391 6.127,-19.537C8.555,-17.474 11.066,-15.504 13.585,-13.551C14.139,-13.121 14.867,-12.914 15.515,-12.605C15.626,-13.341 15.878,-14.087 15.822,-14.81C15.574,-18.053 15.291,-21.297 14.914,-24.527C14.597,-27.241 14.326,-29.974 13.444,-32.586C12.304,-35.964 11.16,-39.341 10,-42.71C9.42,-44.4 8.79,-46.072 8.197,-47.758C7.076,-50.944 5.941,-54.128 4.865,-57.329C4.416,-58.659 4.098,-60.032 3.727,-61.387C3.515,-62.164 3.212,-62.824 1.994,-62.681M-42.654,-73.977C-43.533,-71.755 -44.394,-69.565 -45.266,-67.38C-45.768,-66.122 -45.481,-65.613 -44.113,-65.481C-43.609,-65.431 -43.091,-65.47 -42.584,-65.51C-40.232,-65.696 -37.902,-65.823 -35.544,-65.365C-34.125,-65.09 -32.615,-65.036 -31.176,-65.177C-28.81,-65.41 -26.485,-65.449 -24.127,-65.092C-22.435,-64.837 -20.711,-64.771 -18.999,-64.717C-17.48,-64.671 -15.928,-64.967 -14.448,-64.742C-11.66,-64.319 -8.868,-64.342 -6.076,-64.313C-4.622,-64.297 -4.565,-64.406 -4.57,-65.831C-4.573,-67.47 -4.261,-68.975 -3.395,-70.402C-2.618,-71.683 -2.007,-73.066 -1.226,-74.59C-15.019,-74.55 -28.761,-74.258 -42.654,-73.977M1.54,-70.789L1.088,-70.864C0.917,-70.596 0.708,-70.345 0.581,-70.057C-0.319,-68.023 -1.245,-65.997 -2.066,-63.931C-2.356,-63.204 -2.734,-62.97 -3.483,-62.977C-5.014,-62.992 -6.547,-62.864 -8.077,-62.891C-9.666,-62.92 -11.255,-63.05 -12.841,-63.158C-14.237,-63.252 -15.629,-63.469 -17.023,-63.469C-19.744,-63.469 -22.456,-63.122 -25.177,-63.763C-26.709,-64.123 -28.295,-64.127 -29.918,-63.912C-31.74,-63.67 -33.621,-63.822 -35.474,-63.874C-37.638,-63.935 -39.799,-64.067 -41.962,-64.182C-42.7,-64.221 -43.173,-63.896 -43.452,-63.228C-44.02,-61.873 -44.653,-60.545 -45.163,-59.168C-47.348,-53.244 -49.427,-47.28 -51.688,-41.384C-52.979,-38.018 -53.923,-34.568 -54.334,-31.021C-54.893,-26.197 -55.236,-21.344 -55.505,-16.495C-55.76,-11.898 -55.805,-7.289 -55.928,-2.684C-55.944,-2.054 -56.051,-1.335 -55.798,-0.81C-55.41,-0.003 -54.673,-0.727 -54.092,-0.693C-53.906,-0.683 -53.73,-0.55 -53.543,-0.533C-51.893,-0.376 -50.245,-0.166 -48.59,-0.101C-43.736,0.086 -38.879,0.218 -34.024,0.361C-32.811,0.395 -31.595,0.336 -30.384,0.408C-27.139,0.603 -23.898,0.883 -20.651,1.062C-17.668,1.226 -14.681,1.326 -11.695,1.416C-8.817,1.502 -5.937,1.612 -3.06,1.579C-0.237,1.547 -0.194,1.462 -0.344,-1.364C-0.569,-5.575 -0.832,-9.784 -1.114,-13.992C-1.297,-16.726 -1.575,-19.455 -1.752,-22.19C-1.902,-24.482 -2.099,-26.785 -2.034,-29.076C-1.957,-31.755 -1.604,-34.425 -1.4,-37.1C-1.029,-41.933 -0.742,-46.775 -0.306,-51.603C0.145,-56.568 0.748,-61.52 1.254,-66.481C1.4,-67.911 1.447,-69.353 1.54,-70.789M-44.455,-63.916C-44.69,-64.031 -44.845,-64.136 -45.017,-64.186C-46.591,-64.651 -47.098,-65.255 -46.76,-66.789C-46.419,-68.331 -45.872,-69.836 -45.33,-71.325C-45.046,-72.099 -44.429,-72.764 -44.213,-73.548C-43.661,-75.575 -42.019,-75.753 -40.437,-75.766C-35.853,-75.807 -31.27,-75.676 -26.688,-75.675C-20.735,-75.674 -14.783,-75.705 -8.831,-75.778C-5.772,-75.815 -2.714,-75.954 0.343,-76.08C2.031,-76.151 2.322,-75.941 2.555,-74.276C2.65,-73.582 2.9,-72.878 2.843,-72.197C2.515,-68.265 3.862,-64.657 4.868,-60.97C6.989,-53.186 10.209,-45.791 12.814,-38.18C13.762,-35.411 14.684,-32.612 15.308,-29.76C15.851,-27.274 15.96,-24.694 16.256,-22.156C16.633,-18.919 17.025,-15.684 17.351,-12.443C17.388,-12.085 17.118,-11.628 16.865,-11.32C15.315,-9.439 13.454,-7.895 11.578,-6.347C8.38,-3.704 5.267,-0.958 2.178,1.813C0.984,2.883 -0.401,3.123 -1.862,3.063C-7.599,2.833 -13.334,2.53 -19.071,2.278C-25.585,1.993 -32.099,1.705 -38.614,1.473C-43.514,1.298 -48.419,1.231 -53.32,1.067C-54.391,1.032 -55.46,0.817 -56.515,0.611C-56.733,0.569 -57.021,0.208 -57.042,-0.028C-57.114,-0.79 -57.107,-1.563 -57.072,-2.329C-56.871,-6.856 -56.685,-11.384 -56.432,-15.906C-56.236,-19.415 -55.943,-22.918 -55.7,-26.424C-55.559,-28.453 -55.499,-30.493 -55.283,-32.514C-54.893,-36.159 -53.612,-39.576 -52.406,-43.004C-51.432,-45.771 -50.436,-48.53 -49.384,-51.268C-47.898,-55.134 -46.351,-58.976 -44.834,-62.829C-44.697,-63.177 -44.587,-63.534 -44.455,-63.916" style="fill:rgb(35,31,32);fill-rule:nonzero;"/>
            </g>
        </g>
        <g transform="matrix(4.16667,0,0,4.16667,21791.3,7175.19)">
            <g transform="matrix(1,0,0,1,263.738,505.832)">
                <path d="M0,37.126L0,37.52C4.924,37.52 9.851,37.515 14.777,37.523C16.304,37.525 17.833,37.6 19.359,37.554C19.723,37.543 20.409,37.117 20.384,36.996C20.153,35.862 20.875,34.911 20.924,33.887C21.099,30.252 21.132,26.61 21.189,22.971C21.279,17.214 21.333,11.458 21.434,5.701C21.445,5.025 21.203,4.783 20.57,4.765C19.227,4.728 17.884,4.661 16.542,4.613C10.159,4.383 3.777,4.138 -2.607,3.933C-6.874,3.797 -11.142,3.722 -15.41,3.608C-15.856,3.595 -16.299,3.509 -16.743,3.449C-18.278,3.241 -18.834,3.506 -19.317,5.001C-19.826,6.574 -20.212,8.189 -20.597,9.799C-21.786,14.778 -22.423,19.838 -22.594,24.945C-22.708,28.379 -22.64,31.819 -22.618,35.257C-22.61,36.619 -21.735,37.317 -20.279,37.249C-19.204,37.198 -18.129,37.134 -17.054,37.131C-11.369,37.12 -5.685,37.126 0,37.126M27.938,-17.6C27.846,-16.164 27.799,-14.723 27.653,-13.292C27.147,-8.331 26.543,-3.38 26.094,1.587C25.657,6.413 25.369,11.255 24.999,16.089C24.794,18.765 24.441,21.435 24.365,24.112C24.3,26.403 24.498,28.706 24.647,30.999C24.824,33.735 25.101,36.462 25.285,39.198C25.568,43.404 25.83,47.613 26.054,51.825C26.205,54.65 26.162,54.736 23.339,54.768C20.461,54.802 17.581,54.691 14.704,54.604C11.717,54.515 8.73,54.415 5.748,54.251C2.501,54.072 -0.74,53.792 -3.986,53.597C-5.195,53.524 -6.412,53.585 -7.626,53.55C-12.481,53.407 -17.338,53.275 -22.192,53.087C-23.845,53.023 -25.494,52.812 -27.145,52.657C-27.33,52.639 -27.507,52.505 -27.693,52.496C-28.275,52.461 -29.01,53.187 -29.399,52.378C-29.652,51.853 -29.546,51.135 -29.529,50.504C-29.407,45.9 -29.362,41.291 -29.107,36.694C-28.838,31.846 -28.495,26.992 -27.935,22.169C-27.525,18.622 -26.58,15.172 -25.289,11.805C-23.029,5.909 -20.949,-0.054 -18.763,-5.979C-18.255,-7.355 -17.621,-8.684 -17.053,-10.039C-16.775,-10.707 -16.301,-11.032 -15.563,-10.992C-13.401,-10.878 -11.239,-10.747 -9.076,-10.686C-7.222,-10.633 -5.341,-10.482 -3.52,-10.724C-1.897,-10.938 -0.311,-10.934 1.222,-10.573C3.943,-9.934 6.655,-10.279 9.376,-10.279C10.77,-10.279 12.162,-10.063 13.557,-9.969C15.144,-9.862 16.733,-9.731 18.321,-9.703C19.851,-9.676 21.384,-9.803 22.915,-9.789C23.664,-9.782 24.042,-10.015 24.333,-10.742C25.154,-12.809 26.08,-14.833 26.979,-16.868C27.106,-17.156 27.316,-17.408 27.487,-17.676L27.938,-17.6Z" style="fill:rgb(216,197,169);fill-rule:nonzero;"/>
            </g>
        </g>
        <g transform="matrix(4.16667,0,0,4.16667,21791.3,7175.19)">
            <g transform="matrix(1,0,0,1,247.483,494.111)">
                <path d="M0,-9.068C13.894,-9.348 27.635,-9.64 41.428,-9.68C40.648,-8.156 40.036,-6.774 39.259,-5.493C38.393,-4.065 38.081,-2.56 38.085,-0.921C38.089,0.504 38.032,0.612 36.578,0.597C33.786,0.568 30.994,0.59 28.206,0.167C26.726,-0.058 25.174,0.238 23.655,0.192C21.943,0.139 20.219,0.072 18.528,-0.183C16.169,-0.539 13.844,-0.5 11.479,-0.268C10.039,-0.126 8.529,-0.181 7.111,-0.456C4.752,-0.913 2.422,-0.786 0.07,-0.601C-0.437,-0.561 -0.954,-0.521 -1.458,-0.57C-2.827,-0.704 -3.114,-1.213 -2.611,-2.471C-1.74,-4.656 -0.879,-6.845 0,-9.068" style="fill:rgb(216,197,169);fill-rule:nonzero;"/>
            </g>
        </g>
        <g transform="matrix(4.16667,0,0,4.16667,21791.3,7175.19)">
            <g transform="matrix(1,0,0,1,292.131,546.273)">
                <path d="M0,-49.933C1.217,-50.077 1.52,-49.415 1.732,-48.638C2.104,-47.284 2.422,-45.91 2.87,-44.581C3.947,-41.38 5.082,-38.197 6.202,-35.009C6.796,-33.324 7.425,-31.652 8.006,-29.963C9.165,-26.593 10.309,-23.216 11.449,-19.838C12.331,-17.225 12.603,-14.493 12.92,-11.78C13.296,-8.548 13.58,-5.306 13.828,-2.062C13.884,-1.339 13.631,-0.592 13.521,0.144C12.873,-0.166 12.144,-0.373 11.59,-0.802C9.072,-2.757 6.561,-4.726 4.133,-6.79C3.126,-7.643 2.472,-8.739 2.266,-10.187C1.592,-14.943 1.291,-19.715 1.142,-24.512C0.944,-30.833 0.614,-37.151 0.331,-43.47C0.235,-45.627 0.11,-47.784 0,-49.933" style="fill:rgb(216,197,169);fill-rule:nonzero;"/>
            </g>
        </g>
        <g transform="matrix(4.16667,0,0,4.16667,21791.3,7175.19)">
            <g transform="matrix(1,0,0,1,290.806,500.548)">
                <path d="M0,54.435C-0.143,53.119 -0.329,51.807 -0.419,50.487C-0.823,44.563 -1.341,38.64 -1.536,32.707C-1.652,29.146 -1.267,25.566 -1.072,21.996C-0.928,19.381 -0.711,16.768 -0.551,14.152C-0.266,9.437 0.001,4.721 0.503,0C0.623,2.341 0.741,4.682 0.865,7.023C1.13,12.054 1.404,17.085 1.659,22.117C1.711,23.138 1.658,24.166 1.73,25.186C1.949,28.24 2.339,31.287 2.405,34.342C2.455,36.688 2.157,39.045 1.938,41.39C1.665,44.308 1.326,47.22 0.995,50.132C0.834,51.57 0.627,53.001 0.441,54.434C0.293,54.434 0.147,54.435 0,54.435" style="fill:rgb(216,197,169);fill-rule:nonzero;"/>
            </g>
        </g>
        <g transform="matrix(4.16667,0,0,4.16667,21791.3,7175.19)">
            <g transform="matrix(1,0,0,1,292.155,539.322)">
                <path d="M0,19.722C0.315,13 1.072,6.626 1.978,0C5.238,2.697 8.314,5.171 11.302,7.745C12.649,8.905 12.598,9.292 11.191,10.418C7.806,13.128 4.389,15.801 1.318,18.879C1.056,19.14 0.682,19.292 0,19.722" style="fill:rgb(216,197,169);fill-rule:nonzero;"/>
            </g>
        </g>
        <g transform="matrix(4.16667,0,0,4.16667,21791.3,7175.19)">
            <g transform="matrix(1,0,0,1,290.137,493.654)">
                <path d="M0,-7.661C-0.037,-4.721 -1.794,-2.556 -2.854,0C-3.725,-2.189 -2.312,-5.935 0,-7.661" style="fill:rgb(216,197,169);fill-rule:nonzero;"/>
            </g>
        </g>
        <g transform="matrix(4.16667,0,0,4.16667,21791.3,7175.19)">
            <g transform="matrix(1,0,0,1,284.068,541.157)">
                <path d="M0,-29.809C-1.151,-29.809 -2.479,-29.801 -3.807,-29.81C-9.304,-29.852 -14.802,-29.893 -20.298,-29.943C-25.857,-29.996 -31.416,-30.087 -36.976,-30.098C-38.643,-30.102 -38.652,-30.007 -39.138,-28.405C-40.403,-24.235 -40.987,-19.95 -41.517,-15.633C-42.114,-10.768 -41.541,-5.933 -41.586,-1.086C-41.594,-0.339 -41.257,0.221 -40.305,0.242C-38.271,0.287 -36.242,0.482 -34.209,0.517C-29.75,0.592 -25.29,0.579 -20.831,0.653C-16.802,0.718 -12.775,0.864 -8.746,0.943C-6.701,0.984 -4.655,0.944 -2.608,0.97C-1.982,0.977 -1.423,0.903 -1.246,0.208C-0.965,-0.904 -0.548,-2.023 -0.512,-3.148C-0.364,-7.797 -0.345,-12.448 -0.262,-17.098C-0.188,-21.285 -0.091,-25.471 0,-29.809M-20.33,1.801C-26.015,1.801 -31.699,1.795 -37.384,1.805C-38.459,1.809 -39.535,1.874 -40.61,1.924C-42.066,1.991 -42.941,1.293 -42.948,-0.069C-42.97,-3.505 -43.038,-6.946 -42.924,-10.38C-42.754,-15.487 -42.117,-20.548 -40.928,-25.526C-40.543,-27.137 -40.156,-28.752 -39.648,-30.325C-39.165,-31.819 -38.61,-32.084 -37.074,-31.876C-36.63,-31.816 -36.186,-31.729 -35.74,-31.718C-31.473,-31.603 -27.204,-31.529 -22.938,-31.391C-16.554,-31.187 -10.172,-30.943 -3.788,-30.713C-2.447,-30.665 -1.105,-30.597 0.239,-30.56C0.873,-30.543 1.115,-30.299 1.104,-29.624C1.003,-23.868 0.948,-18.111 0.858,-12.355C0.802,-8.715 0.768,-5.073 0.593,-1.438C0.545,-0.415 -0.177,0.536 0.054,1.67C0.078,1.792 -0.607,2.218 -0.971,2.23C-2.497,2.275 -4.026,2.199 -5.553,2.197C-10.479,2.19 -15.406,2.195 -20.33,2.195L-20.33,1.801Z" style="fill:rgb(35,31,32);fill-rule:nonzero;"/>
            </g>
        </g>
        <g transform="matrix(4.16667,0,0,4.16667,21791.3,7175.19)">
            <g transform="matrix(1,0,0,1,284.068,541.848)">
                <path d="M0,-30.5C-0.091,-26.162 -0.188,-21.976 -0.262,-17.789C-0.345,-13.139 -0.364,-8.488 -0.512,-3.839C-0.548,-2.714 -0.965,-1.595 -1.246,-0.483C-1.423,0.212 -1.982,0.286 -2.608,0.279C-4.655,0.253 -6.701,0.293 -8.746,0.252C-12.775,0.173 -16.802,0.027 -20.831,-0.038C-25.29,-0.112 -29.75,-0.099 -34.209,-0.174C-36.242,-0.209 -38.271,-0.404 -40.305,-0.449C-41.257,-0.47 -41.594,-1.03 -41.586,-1.777C-41.541,-6.624 -42.114,-11.459 -41.517,-16.324C-40.987,-20.641 -40.403,-24.926 -39.138,-29.096C-38.652,-30.698 -38.643,-30.793 -36.976,-30.789C-31.416,-30.778 -25.857,-30.687 -20.298,-30.634C-14.802,-30.584 -9.304,-30.543 -3.807,-30.501C-2.479,-30.492 -1.151,-30.5 0,-30.5" style="fill:rgb(242,111,106);fill-rule:nonzero;"/>
            </g>
        </g>
        <g transform="matrix(4.16667,0,0,4.16667,21791.3,7175.19)">
            <g opacity="0.52">
                <g transform="matrix(1,0,0,1,246.766,551.46)">
                    <path d="M0,-56.894C7.691,-53.706 16.114,-52.845 24.398,-52.017C30.726,-51.386 37.052,-50.754 43.379,-50.122C42.727,-43.084 42.624,-36.398 41.971,-29.361C41.655,-25.947 41.337,-22.526 41.373,-19.099C41.414,-15.229 41.904,-11.379 42.394,-7.539C43.041,-2.46 43.687,2.619 44.335,7.698C45.4,4.114 46.609,0.572 47.96,-2.914C48.892,-5.327 50.163,-7.977 52.619,-8.79C48.411,-27.113 49.579,-46.394 44.857,-64.592C42.884,-63.261 42.119,-60.787 40.928,-58.727C39.739,-56.668 37.334,-54.76 35.162,-55.734" style="fill:rgb(170,142,112);fill-rule:nonzero;"/>
                </g>
            </g>
        </g>
        <g transform="matrix(4.16667,0,0,4.16667,21791.3,7175.19)">
            <g transform="matrix(1,0,0,1,255.363,522.848)">
                <path d="M0,-5.079L-3.164,-5.646C-2.901,-6.654 -2.395,-7.427 -1.647,-7.963C-0.899,-8.5 0.159,-8.769 1.528,-8.769C3.101,-8.769 4.237,-8.475 4.938,-7.89C5.64,-7.303 5.99,-6.567 5.99,-5.679C5.99,-5.158 5.847,-4.687 5.563,-4.265C5.277,-3.843 4.848,-3.475 4.272,-3.156C4.739,-3.042 5.096,-2.908 5.341,-2.753C5.74,-2.508 6.052,-2.183 6.275,-1.78C6.495,-1.378 6.607,-0.897 6.607,-0.337C6.607,0.363 6.423,1.035 6.056,1.68C5.689,2.323 5.161,2.819 4.47,3.167C3.78,3.515 2.873,3.69 1.75,3.69C0.655,3.69 -0.209,3.56 -0.843,3.302C-1.475,3.045 -1.995,2.668 -2.403,2.172C-2.812,1.677 -3.126,1.054 -3.344,0.303L0,-0.141C0.131,0.533 0.335,1 0.612,1.26C0.889,1.52 1.241,1.65 1.668,1.65C2.118,1.65 2.491,1.486 2.789,1.157C3.088,0.829 3.237,0.39 3.237,-0.157C3.237,-0.716 3.093,-1.149 2.806,-1.455C2.518,-1.762 2.127,-1.915 1.636,-1.915C1.372,-1.915 1.011,-1.85 0.55,-1.719L0.722,-4.11C0.908,-4.083 1.054,-4.068 1.159,-4.068C1.597,-4.068 1.962,-4.209 2.255,-4.488C2.549,-4.766 2.694,-5.099 2.694,-5.482C2.694,-5.849 2.585,-6.143 2.367,-6.361C2.147,-6.58 1.846,-6.689 1.463,-6.689C1.069,-6.689 0.748,-6.571 0.502,-6.332C0.254,-6.094 0.088,-5.675 0,-5.079" style="fill:white;fill-rule:nonzero;"/>
            </g>
        </g>
        <g transform="matrix(4.16667,0,0,4.16667,21791.3,7175.19)">
            <g transform="matrix(1,0,0,1,266.661,520.35)">
                <path d="M0,-0.083C0,1.451 0.137,2.498 0.406,3.06C0.678,3.621 1.072,3.902 1.586,3.902C1.926,3.902 2.22,3.783 2.47,3.545C2.718,3.306 2.902,2.929 3.02,2.415C3.137,1.9 3.196,1.098 3.196,0.007C3.196,-1.592 3.061,-2.667 2.79,-3.217C2.518,-3.769 2.113,-4.043 1.569,-4.043C1.016,-4.043 0.616,-3.763 0.371,-3.201C0.123,-2.64 0,-1.6 0,-0.083M-3.319,-0.091C-3.319,-2.38 -2.907,-3.984 -2.083,-4.898C-1.258,-5.813 -0.002,-6.271 1.684,-6.271C2.495,-6.271 3.161,-6.17 3.681,-5.97C4.201,-5.771 4.625,-5.51 4.955,-5.19C5.284,-4.869 5.542,-4.533 5.732,-4.179C5.921,-3.825 6.072,-3.414 6.188,-2.943C6.411,-2.043 6.525,-1.108 6.525,-0.132C6.525,2.054 6.154,3.654 5.415,4.666C4.675,5.679 3.402,6.188 1.595,6.188C0.582,6.188 -0.239,6.025 -0.862,5.703C-1.488,5.378 -1.999,4.905 -2.399,4.28C-2.69,3.836 -2.916,3.23 -3.078,2.46C-3.239,1.69 -3.319,0.84 -3.319,-0.091" style="fill:white;fill-rule:nonzero;"/>
            </g>
        </g>
        <g transform="matrix(4.16667,0,0,4.16667,21791.3,7175.19)">
            <g transform="matrix(1,0,0,1,243.78,538.359)">
                <path d="M0,-5.84L4.015,-5.84L4.015,-4.398L2.668,-4.398L2.668,0L1.347,0L1.347,-4.398L0,-4.398L0,-5.84Z" style="fill:rgb(35,31,32);fill-rule:nonzero;"/>
            </g>
        </g>
        <g transform="matrix(4.16667,0,0,4.16667,21791.3,7175.19)">
            <g transform="matrix(1,0,0,1,249.344,535.426)">
                <path d="M0,0.025C0,0.615 0.08,1.037 0.24,1.296C0.401,1.553 0.619,1.682 0.896,1.682C1.179,1.682 1.399,1.556 1.553,1.304C1.709,1.052 1.787,0.598 1.787,-0.056C1.787,-0.605 1.706,-1.006 1.545,-1.26C1.381,-1.513 1.16,-1.64 0.883,-1.64C0.617,-1.64 0.403,-1.511 0.241,-1.255C0.08,-0.997 0,-0.57 0,0.025M-1.321,0.017C-1.321,-0.937 -1.127,-1.679 -0.737,-2.21C-0.349,-2.742 0.192,-3.007 0.886,-3.007C1.597,-3.007 2.146,-2.747 2.53,-2.224C2.915,-1.702 3.108,-0.971 3.108,-0.032C3.108,0.652 3.024,1.21 2.856,1.647C2.688,2.085 2.444,2.424 2.126,2.668C1.81,2.91 1.413,3.032 0.939,3.032C0.458,3.032 0.058,2.927 -0.258,2.716C-0.573,2.506 -0.829,2.175 -1.027,1.721C-1.222,1.267 -1.321,0.699 -1.321,0.017" style="fill:rgb(35,31,32);fill-rule:nonzero;"/>
            </g>
        </g>
        <g transform="matrix(4.16667,0,0,4.16667,21791.3,7175.19)">
            <g transform="matrix(1,0,0,1,254.506,535.991)">
                <path d="M0,-1.106L0.557,-1.106C0.617,-1.106 0.734,-1.132 0.906,-1.186C0.994,-1.211 1.066,-1.271 1.12,-1.37C1.176,-1.467 1.203,-1.581 1.203,-1.708C1.203,-1.897 1.16,-2.042 1.073,-2.141C0.985,-2.242 0.821,-2.294 0.581,-2.294L0,-2.294L0,-1.106ZM-1.326,2.367L-1.326,-3.473L0.875,-3.473C1.283,-3.473 1.595,-3.424 1.811,-3.329C2.026,-3.232 2.201,-3.056 2.333,-2.797C2.464,-2.537 2.53,-2.222 2.53,-1.852C2.53,-1.526 2.48,-1.248 2.379,-1.013C2.277,-0.778 2.139,-0.587 1.961,-0.44C1.849,-0.348 1.694,-0.27 1.498,-0.209C1.655,-0.139 1.77,-0.067 1.842,0.006C1.891,0.053 1.96,0.155 2.053,0.313C2.145,0.47 2.207,0.59 2.239,0.675L2.878,2.367L1.385,2.367L0.679,0.582C0.59,0.351 0.509,0.201 0.441,0.133C0.344,0.043 0.238,-0.002 0.117,-0.002L0,-0.002L0,2.367L-1.326,2.367Z" style="fill:rgb(35,31,32);fill-rule:nonzero;"/>
            </g>
        </g>
        <g transform="matrix(4.16667,0,0,4.16667,21791.3,7175.19)">
            <g transform="matrix(1,0,0,1,257.815,538.359)">
                <path d="M0,-5.84L1.234,-5.84L2.843,-2.609L2.843,-5.84L4.088,-5.84L4.088,0L2.843,0L1.242,-3.206L1.242,0L0,0L0,-5.84Z" style="fill:rgb(35,31,32);fill-rule:nonzero;"/>
            </g>
        </g>
        <g transform="matrix(4.16667,0,0,4.16667,21791.3,7175.19)">
            <g transform="matrix(1,0,0,1,0,305.522)">
                <rect x="262.834" y="226.996" width="1.324" height="5.84" style="fill:rgb(35,31,32);"/>
            </g>
        </g>
        <g transform="matrix(4.16667,0,0,4.16667,21791.3,7175.19)">
            <g transform="matrix(1,0,0,1,265.105,538.359)">
                <path d="M0,-5.84L1.321,-5.84L1.321,-1.438L3.382,-1.438L3.382,0L0,0L0,-5.84Z" style="fill:rgb(35,31,32);fill-rule:nonzero;"/>
            </g>
        </g>
        <g transform="matrix(4.16667,0,0,4.16667,21791.3,7175.19)">
            <g transform="matrix(1,0,0,1,269.086,538.359)">
                <path d="M0,-5.84L1.322,-5.84L1.322,-1.438L3.383,-1.438L3.383,0L0,0L0,-5.84Z" style="fill:rgb(35,31,32);fill-rule:nonzero;"/>
            </g>
        </g>
        <g transform="matrix(4.16667,0,0,4.16667,21791.3,7175.19)">
            <g transform="matrix(1,0,0,1,274.122,535.426)">
                <path d="M0,0.025C0,0.615 0.081,1.037 0.24,1.296C0.401,1.553 0.62,1.682 0.896,1.682C1.179,1.682 1.399,1.556 1.554,1.304C1.709,1.052 1.787,0.598 1.787,-0.056C1.787,-0.605 1.706,-1.006 1.545,-1.26C1.381,-1.513 1.16,-1.64 0.884,-1.64C0.617,-1.64 0.403,-1.511 0.241,-1.255C0.081,-0.997 0,-0.57 0,0.025M-1.321,0.017C-1.321,-0.937 -1.127,-1.679 -0.737,-2.21C-0.349,-2.742 0.193,-3.007 0.886,-3.007C1.597,-3.007 2.146,-2.747 2.53,-2.224C2.916,-1.702 3.108,-0.971 3.108,-0.032C3.108,0.652 3.024,1.21 2.856,1.647C2.688,2.085 2.444,2.424 2.127,2.668C1.81,2.91 1.413,3.032 0.939,3.032C0.458,3.032 0.058,2.927 -0.257,2.716C-0.573,2.506 -0.829,2.175 -1.027,1.721C-1.222,1.267 -1.321,0.699 -1.321,0.017" style="fill:rgb(35,31,32);fill-rule:nonzero;"/>
            </g>
        </g>
        <g transform="matrix(4.16667,0,0,4.16667,21791.3,7175.19)">
            <g transform="matrix(1,0,0,1,277.711,534.452)">
                <path d="M0,1.974L1.257,1.866C1.284,2.145 1.34,2.358 1.423,2.504C1.559,2.74 1.753,2.858 2.007,2.858C2.196,2.858 2.34,2.798 2.442,2.678C2.544,2.557 2.596,2.416 2.596,2.257C2.596,2.105 2.547,1.97 2.45,1.851C2.352,1.731 2.127,1.618 1.772,1.512C1.194,1.335 0.781,1.098 0.534,0.803C0.285,0.508 0.161,0.132 0.161,-0.323C0.161,-0.625 0.225,-0.908 0.352,-1.175C0.479,-1.442 0.671,-1.651 0.926,-1.804C1.182,-1.957 1.533,-2.033 1.978,-2.033C2.523,-2.033 2.94,-1.895 3.227,-1.617C3.513,-1.339 3.683,-0.897 3.738,-0.292L2.494,-0.192C2.46,-0.455 2.39,-0.647 2.285,-0.765C2.179,-0.886 2.033,-0.945 1.846,-0.945C1.693,-0.945 1.577,-0.901 1.499,-0.812C1.422,-0.723 1.382,-0.615 1.382,-0.488C1.382,-0.395 1.414,-0.311 1.478,-0.236C1.541,-0.159 1.688,-0.088 1.921,-0.021C2.499,0.149 2.913,0.321 3.163,0.495C3.413,0.668 3.594,0.884 3.708,1.142C3.821,1.4 3.878,1.688 3.878,2.007C3.878,2.381 3.802,2.726 3.651,3.042C3.499,3.357 3.288,3.597 3.016,3.76C2.743,3.923 2.399,4.007 1.987,4.007C1.259,4.007 0.756,3.815 0.476,3.432C0.196,3.049 0.038,2.564 0,1.974" style="fill:rgb(35,31,32);fill-rule:nonzero;"/>
            </g>
        </g>
        <g transform="matrix(4.16667,0,0,4.16667,21791.3,7175.19)">
            <g transform="matrix(1,0,0,1,275.761,502.099)">
                <path d="M0,27.295C1.1,26.551 1.556,25.558 1.441,24.086C1.218,24.265 1.048,24.438 0.844,24.56C-0.422,25.307 -0.425,25.304 -0.132,26.733C-0.093,26.919 -0.046,27.102 0,27.295M-0.287,24.246C1.943,23.198 2.209,22.659 2.017,20.93C1.664,21.192 1.308,21.45 0.959,21.715C0.145,22.334 -0.504,23.036 -0.287,24.246M2.558,6.407C2.643,6.455 2.728,6.503 2.814,6.55C3.457,5.973 4.107,5.402 4.742,4.817C5.204,4.389 5.179,4.011 4.634,3.686C4.36,3.522 4.027,3.444 3.713,3.354C3.332,3.244 3.057,3.372 2.989,3.758C2.834,4.639 2.7,5.524 2.558,6.407M0.75,17.536C2.688,16.773 3.41,15.421 3.269,13.473C2.726,13.917 2.277,14.387 1.728,14.697C1.273,14.954 1.139,15.32 1.049,15.73C0.925,16.298 0.855,16.879 0.75,17.536M2.247,9.754C4.121,9.026 4.893,7.723 4.74,5.729C4.033,6.369 3.441,6.968 2.778,7.482C2.337,7.823 2.229,8.249 2.195,8.724C2.171,9.032 2.223,9.348 2.247,9.754M1.307,14.079C2.883,12.871 4.126,11.757 3.872,9.753C3.273,10.062 2.685,10.335 2.135,10.668C1.957,10.776 1.819,11.028 1.779,11.236C1.61,12.106 1.485,12.984 1.307,14.079M0.05,21.557C1.667,20.393 2.98,19.342 2.646,17.284C2.036,17.694 1.45,18.055 0.908,18.468C0.701,18.625 0.512,18.883 0.459,19.128C0.296,19.856 0.205,20.599 0.05,21.557M9.254,3.287C8.536,1.627 7.752,0.452 6.249,-0.124C5.818,-0.288 5.345,-0.409 5.212,0.266C5.128,0.701 4.8,0.819 4.366,0.721C3.868,0.608 3.991,0.275 4.064,-0.033C4.196,-0.594 3.887,-0.717 3.379,-0.732C1.981,-0.774 0.902,-0.2 0.081,0.81C-0.51,1.536 -0.402,1.807 0.534,2.007C1.494,2.209 2.469,2.353 3.44,2.492C5.279,2.755 7.123,2.997 9.254,3.287M-0.958,23.203C-0.484,20.269 -0.007,17.338 0.462,14.404C1.021,10.919 1.58,7.435 2.122,3.948C2.252,3.115 2.225,3.084 1.384,2.891C0.736,2.743 0.072,2.657 -0.587,2.559C-1.052,2.491 -1.167,2.262 -1.165,1.818C-1.16,0.13 0.121,-0.536 1.401,-1.188C1.79,-1.387 2.262,-1.514 2.705,-1.532C4.435,-1.604 6.166,-1.392 7.613,-0.438C9.109,0.549 9.867,2.081 10.244,3.76C10.319,4.097 10.095,4.294 9.744,4.279C9.086,4.252 8.426,4.206 7.77,4.145C7.445,4.113 7.122,4.039 6.801,3.972C6.384,3.887 6.188,4.062 6.107,4.44C5.781,5.984 5.416,7.52 5.119,9.071C4.517,12.202 3.908,15.333 3.385,18.479C3.004,20.769 2.784,23.086 2.432,25.381C2.351,25.91 2.084,26.435 1.796,26.9C1.484,27.401 1.054,27.835 0.663,28.286C0.132,28.899 -0.439,28.834 -0.699,28.097C-1.183,26.73 -1.511,25.344 -1.078,23.907C-1.011,23.681 -0.999,23.437 -0.961,23.202C-0.96,23.202 -0.959,23.203 -0.958,23.203" style="fill:rgb(35,31,32);fill-rule:nonzero;"/>
            </g>
        </g>
        <g transform="matrix(4.16667,0,0,4.16667,21791.3,7175.19)">
            <g transform="matrix(1,0,0,1,285.015,501.326)">
                <path d="M0,4.06C-2.13,3.77 -3.974,3.529 -5.814,3.266C-6.786,3.127 -7.761,2.984 -8.72,2.78C-9.656,2.581 -9.765,2.31 -9.173,1.584C-8.352,0.573 -7.273,0 -5.876,0.042C-5.367,0.056 -5.058,0.18 -5.19,0.74C-5.264,1.049 -5.387,1.381 -4.888,1.494C-4.454,1.593 -4.126,1.475 -4.043,1.039C-3.91,0.364 -3.436,0.486 -3.005,0.65C-1.503,1.225 -0.718,2.4 0,4.06" style="fill:rgb(198,200,202);fill-rule:nonzero;"/>
            </g>
        </g>
        <g transform="matrix(4.16667,0,0,4.16667,21791.3,7175.19)">
            <g transform="matrix(0.963522,0.267628,0.267628,-0.963522,275.293,523.186)">
                <path d="M0.625,-0.314C0.517,0.65 0.407,1.391 0.37,2.136C0.355,2.385 0.468,2.685 0.625,2.892C1.037,3.435 1.506,3.94 1.983,4.497C2.856,2.603 1.872,1.239 0.625,-0.314" style="fill:rgb(198,200,202);fill-rule:nonzero;"/>
            </g>
        </g>
        <g transform="matrix(4.16667,0,0,4.16667,21791.3,7175.19)">
            <g transform="matrix(0.971828,0.23569,0.23569,-0.971828,276.598,515.785)">
                <path d="M0.55,-0.271C0.463,0.835 0.378,1.717 0.337,2.602C0.327,2.813 0.403,3.092 0.55,3.238C1.006,3.691 1.514,4.095 2.023,4.537C2.742,2.65 1.796,1.274 0.55,-0.271" style="fill:rgb(198,200,202);fill-rule:nonzero;"/>
            </g>
        </g>
        <g transform="matrix(4.16667,0,0,4.16667,21791.3,7175.19)">
            <g transform="matrix(0.973759,0.227582,0.227582,-0.973759,277.583,511.508)">
                <path d="M0.492,-0.24C0.377,0.15 0.255,0.445 0.206,0.751C0.131,1.223 0.14,1.662 0.492,2.093C1.021,2.745 1.461,3.463 2.003,4.247C2.607,2.341 2.151,0.896 0.492,-0.24" style="fill:rgb(198,200,202);fill-rule:nonzero;"/>
            </g>
        </g>
        <g transform="matrix(4.16667,0,0,4.16667,21791.3,7175.19)">
            <g transform="matrix(0.945369,0.326001,0.326001,-0.945369,275.921,519.091)">
                <path d="M0.735,-0.323C0.621,0.333 0.497,0.905 0.429,1.482C0.381,1.9 0.388,2.289 0.735,2.68C1.153,3.152 1.423,3.743 1.792,4.339C2.561,2.545 2.318,1.031 0.735,-0.323" style="fill:rgb(198,200,202);fill-rule:nonzero;"/>
            </g>
        </g>
        <g transform="matrix(4.16667,0,0,4.16667,21791.3,7175.19)">
            <g transform="matrix(1,0,0,1,278.318,505.486)">
                <path d="M0,3.021C0.143,2.138 0.277,1.253 0.432,0.372C0.5,-0.015 0.774,-0.143 1.156,-0.033C1.469,0.057 1.803,0.136 2.077,0.299C2.621,0.625 2.647,1.003 2.184,1.429C1.55,2.015 0.899,2.586 0.256,3.164C0.17,3.116 0.085,3.068 0,3.021" style="fill:rgb(198,200,202);fill-rule:nonzero;"/>
            </g>
        </g>
        <g transform="matrix(4.16667,0,0,4.16667,21791.3,7175.19)">
            <g transform="matrix(1,0,0,1,275.474,523.031)">
                <path d="M0,3.314C-0.217,2.105 0.432,1.403 1.246,0.783C1.596,0.518 1.951,0.261 2.305,0C2.496,1.727 2.229,2.266 0,3.314" style="fill:rgb(198,200,202);fill-rule:nonzero;"/>
            </g>
        </g>
        <g transform="matrix(4.16667,0,0,4.16667,21791.3,7175.19)">
            <g transform="matrix(0.955537,0.294871,0.294871,-0.955537,275.313,529.156)">
                <path d="M0.498,-0.095C0.397,0.075 0.299,0.236 0.206,0.403C-0.495,1.682 -0.491,1.68 0.498,2.767C0.657,2.944 0.769,3.159 0.929,3.396C1.473,2.023 1.33,0.94 0.498,-0.095" style="fill:rgb(198,200,202);fill-rule:nonzero;"/>
            </g>
        </g>
        <g transform="matrix(4.16667,0,0,4.16667,21791.3,7175.19)">
            <g transform="matrix(-0.995119,0.0986846,0.0986846,0.995119,283.637,504.693)">
                <path d="M1.783,-2.785C2.14,-2.728 2.35,-2.34 2.308,-1.994C2.267,-1.648 2.035,-1.346 1.783,-1.093C1.196,-0.502 0.437,-0.07 -0.38,0.14C-0.285,-0.914 0.47,-1.904 1.493,-2.317" style="fill:white;fill-rule:nonzero;"/>
            </g>
        </g>
    </g>
</svg>
