<svg clip-rule="evenodd" fill-rule="evenodd" stroke-linejoin="round" stroke-miterlimit="2" viewBox="0 0 311 330" xmlns="http://www.w3.org/2000/svg"><g fill-rule="nonzero"><path d="m0-73.029c-2.312 1.726-3.724 5.472-2.854 7.661 1.06-2.556 2.817-4.721 2.854-7.661m2.018 73.052c.684-.431 1.056-.582 1.318-.844 3.072-3.078 6.487-5.751 9.874-8.461 1.406-1.125 1.457-1.512.11-2.673-2.988-2.574-6.063-5.047-9.324-7.745-.906 6.627-1.663 12.999-1.978 19.723m-1.348-4.062c.146 0 .294-.001.441-.001.186-1.434.393-2.865.554-4.302.33-2.912.671-5.824.942-8.742.219-2.346.518-4.703.467-7.047-.066-3.056-.455-6.104-.674-9.158-.072-1.02-.019-2.047-.07-3.069-.256-5.031-.53-10.062-.795-15.094-.123-2.34-.242-4.681-.363-7.022-.501 4.721-.768 9.437-1.054 14.152-.159 2.616-.376 5.229-.52 7.845-.195 3.568-.581 7.149-.464 10.71.194 5.933.713 11.855 1.116 17.78.09 1.32.278 2.633.42 3.948m1.324-58.643c.111 2.15.235 4.307.332 6.464.282 6.318.614 12.635.81 18.957.15 4.797.45 9.569 1.125 14.325.206 1.447.859 2.544 1.866 3.398 2.428 2.063 4.939 4.033 7.458 5.986.554.43 1.282.637 1.93.946.111-.736.363-1.482.307-2.205-.248-3.243-.531-6.487-.908-9.717-.317-2.714-.588-5.447-1.47-8.059-1.14-3.378-2.284-6.755-3.444-10.124-.58-1.69-1.21-3.362-1.803-5.048-1.121-3.186-2.255-6.37-3.332-9.571-.449-1.33-.767-2.703-1.136-4.058-.214-.777-.517-1.437-1.735-1.294m-44.648-11.296c-.879 2.222-1.74 4.412-2.612 6.597-.502 1.258-.215 1.767 1.153 1.899.505.05 1.022.011 1.529-.029 2.352-.186 4.682-.313 7.04.145 1.419.275 2.929.329 4.37.188 2.364-.233 4.689-.272 7.047.085 1.692.255 3.416.321 5.128.375 1.519.046 3.071-.25 4.552-.025 2.787.423 5.579.4 8.371.43 1.454.015 1.511-.094 1.506-1.519-.003-1.639.309-3.144 1.175-4.571.777-1.281 1.388-2.664 2.169-4.188-13.793.04-27.535.332-41.428.613m44.194 3.188-.452-.075c-.171.268-.38.52-.507.807-.9 2.034-1.826 4.06-2.647 6.126-.29.728-.668.961-1.416.954-1.532-.015-3.065.113-4.595.086-1.589-.029-3.178-.159-4.764-.267-1.396-.094-2.788-.311-4.182-.311-2.721 0-5.433.347-8.154-.293-1.532-.361-3.118-.365-4.741-.15-1.822.242-3.703.09-5.555.038-2.165-.061-4.326-.193-6.489-.308-.738-.039-1.21.286-1.49.954-.568 1.355-1.201 2.684-1.71 4.06-2.186 5.924-4.265 11.888-6.526 17.784-1.29 3.366-2.235 6.816-2.646 10.363-.559 4.824-.902 9.677-1.171 14.526-.255 4.598-.3 9.206-.423 13.811-.016.63-.123 1.349.13 1.874.388.807 1.125.083 1.706.116.186.011.362.144.549.161 1.65.157 3.298.367 4.953.432 4.854.187 9.711.319 14.566.462 1.213.035 2.43-.026 3.64.047 3.245.195 6.486.475 9.733.654 2.983.165 5.97.264 8.956.354 2.878.087 5.758.196 8.635.163 2.823-.032 2.866-.117 2.716-2.943-.225-4.211-.488-8.42-.77-12.628-.182-2.734-.461-5.463-.638-8.198-.15-2.292-.347-4.595-.282-6.886.077-2.679.431-5.349.634-8.024.371-4.833.658-9.675 1.095-14.503.451-4.965 1.053-9.917 1.559-14.878.147-1.43.194-2.872.286-4.308m-45.995 6.873c-.235-.115-.39-.22-.562-.27-1.574-.465-2.081-1.069-1.743-2.603.341-1.542.888-3.047 1.43-4.536.284-.774.901-1.439 1.117-2.223.552-2.027 2.194-2.205 3.776-2.218 4.584-.041 9.167.091 13.749.091 5.953.001 11.905-.03 17.857-.103 3.059-.037 6.117-.176 9.174-.302 1.688-.07 1.979.139 2.212 1.804.096.694.346 1.398.288 2.079-.327 3.932 1.019 7.54 2.025 11.227 2.121 7.784 5.342 15.179 7.946 22.79.948 2.769 1.87 5.568 2.494 8.42.543 2.486.652 5.066.948 7.604.378 3.237.769 6.472 1.095 9.713.037.358-.233.815-.486 1.123-1.55 1.881-3.411 3.425-5.287 4.973-3.198 2.643-6.311 5.389-9.4 8.16-1.194 1.07-2.579 1.31-4.04 1.25-5.737-.23-11.472-.533-17.209-.784-6.513-.286-13.028-.574-19.543-.805-4.9-.176-9.805-.243-14.706-.407-1.071-.035-2.14-.25-3.195-.456-.218-.042-.506-.403-.527-.639-.072-.762-.064-1.535-.03-2.301.201-4.527.387-9.055.64-13.577.196-3.509.489-7.012.732-10.518.141-2.029.202-4.069.417-6.09.39-3.645 1.672-7.062 2.878-10.49.973-2.767 1.97-5.526 3.021-8.264 1.486-3.866 3.033-7.708 4.55-11.561.138-.348.247-.705.379-1.087" fill="#231f20" transform="matrix(4.16667 0 0 4.16667 237.90569379 317.04519548)"/><path d="m0 37.126v.394c4.926 0 9.851-.005 14.777.003 1.527.002 3.056.077 4.582.031.364-.011 1.05-.437 1.025-.558-.23-1.134.491-2.085.54-3.109.175-3.635.208-7.277.265-10.916.09-5.757.144-11.513.245-17.27.011-.676-.23-.918-.865-.936-1.342-.036-2.685-.104-4.027-.152-6.383-.23-12.765-.475-19.149-.68-4.266-.136-8.535-.211-12.803-.325-.446-.013-.889-.099-1.333-.159-1.535-.208-2.091.057-2.574 1.552-.509 1.573-.895 3.188-1.28 4.798-1.189 4.979-1.826 10.039-1.997 15.146-.114 3.435-.046 6.874-.024 10.312.008 1.362.883 2.06 2.339 1.992 1.075-.051 2.15-.115 3.225-.117 5.685-.012 11.369-.006 17.054-.006m27.938-54.726c-.091 1.436-.138 2.877-.285 4.308-.506 4.961-1.109 9.912-1.558 14.879-.438 4.827-.726 9.668-1.096 14.502-.204 2.676-.558 5.346-.634 8.023-.065 2.291.133 4.594.282 6.887.177 2.736.455 5.463.638 8.199.283 4.206.545 8.415.769 12.627.151 2.826.108 2.911-2.715 2.943-2.878.034-5.758-.077-8.635-.164-2.987-.089-5.974-.188-8.956-.352-3.247-.18-6.488-.46-9.734-.655-1.209-.073-2.426-.011-3.64-.047-4.855-.143-9.712-.275-14.566-.463-1.653-.064-3.302-.275-4.953-.43-.185-.018-.362-.152-.548-.161-.582-.035-1.317.691-1.706-.118-.253-.525-.147-1.243-.13-1.874.122-4.604.167-9.212.422-13.81.269-4.848.612-9.702 1.172-14.525.41-3.547 1.356-6.997 2.646-10.364 2.26-5.895 4.34-11.859 6.527-17.784.507-1.376 1.141-2.705 1.709-4.06.279-.668.752-.993 1.49-.953 2.162.114 4.324.246 6.488.306 1.853.053 3.734.204 5.555-.038 1.623-.214 3.209-.21 4.742.151 2.721.639 5.433.294 8.154.294 1.394 0 2.786.216 4.181.31 1.587.108 3.176.239 4.764.266 1.53.027 3.063-.1 4.595-.086.748.007 1.126-.226 1.417-.953.821-2.067 1.747-4.091 2.646-6.126.127-.288.337-.54.508-.808z" fill="#d8c5a9" transform="matrix(4.16667 0 0 4.16667 127.90977246 95.42001818)"/><path d="m0-9.068c13.894-.28 27.635-.572 41.428-.612-.78 1.524-1.392 2.906-2.169 4.187-.866 1.428-1.178 2.933-1.174 4.572.004 1.425-.053 1.533-1.507 1.518-2.792-.029-5.584-.007-8.371-.43-1.481-.225-3.033.071-4.552.025-1.712-.053-3.436-.12-5.127-.375-2.359-.356-4.684-.317-7.048-.085-1.441.142-2.951.087-4.369-.188-2.359-.457-4.689-.33-7.041-.145-.507.04-1.023.08-1.528.031-1.369-.134-1.656-.643-1.153-1.901.871-2.185 1.732-4.374 2.611-6.597" fill="#d8c5a9" transform="matrix(4.16667 0 0 4.16667 60.17638494 46.58247911)"/><path d="m0-49.934c1.217-.143 1.52.518 1.734 1.295.37 1.354.688 2.728 1.136 4.057 1.078 3.201 2.212 6.384 3.332 9.572.594 1.685 1.223 3.358 1.804 5.046 1.159 3.37 2.303 6.747 3.443 10.125.882 2.612 1.154 5.345 1.471 8.058.377 3.232.66 6.474.908 9.718.056.723-.197 1.47-.307 2.206-.648-.31-1.377-.517-1.93-.946-2.519-1.955-5.03-3.924-7.458-5.988-1.007-.853-1.661-1.949-1.867-3.397-.674-4.756-.975-9.528-1.124-14.325-.197-6.322-.528-12.639-.811-18.957-.096-2.158-.221-4.315-.331-6.464" fill="#d8c5a9" transform="matrix(4.16667 0 0 4.16667 246.21403377 263.92848632)"/><path d="m0 54.435c-.142-1.316-.329-2.628-.419-3.948-.404-5.924-.922-11.847-1.117-17.78-.116-3.561.269-7.141.464-10.711.144-2.615.361-5.229.521-7.844.285-4.715.552-9.431 1.054-14.152.121 2.341.239 4.682.362 7.023.265 5.031.539 10.061.795 15.094.051 1.021-.002 2.049.07 3.069.219 3.054.609 6.101.674 9.157.051 2.345-.247 4.702-.466 7.047-.272 2.918-.612 5.83-.943 8.742-.161 1.438-.367 2.869-.554 4.302-.147 0-.294.001-.441.001" fill="#d8c5a9" transform="matrix(4.16667 0 0 4.16667 240.69319602 73.4033339)"/><path d="m0 19.722c.315-6.722 1.072-13.096 1.978-19.722 3.26 2.697 6.336 5.171 9.324 7.745 1.347 1.16 1.296 1.547-.11 2.673-3.386 2.71-6.802 5.383-9.874 8.461-.262.261-.634.413-1.318.843" fill="#d8c5a9" transform="matrix(4.16667 0 0 4.16667 246.31403385 234.96179648)"/><path d="m0-7.661c-.037 2.94-1.794 5.105-2.854 7.661-.87-2.189.542-5.935 2.854-7.661" fill="#d8c5a9" transform="matrix(4.16667 0 0 4.16667 237.90569379 44.67831092)"/><path d="m0-29.809c-1.151 0-2.478.008-3.807-.001-5.497-.042-10.994-.083-16.491-.133-5.559-.053-11.118-.144-16.678-.155-1.667-.004-1.676.091-2.161 1.693-1.266 4.17-1.85 8.455-2.38 12.772-.597 4.865-.024 9.7-.069 14.547-.008.747.329 1.307 1.281 1.328 2.034.045 4.063.24 6.096.275 4.459.075 8.92.062 13.378.136 4.029.065 8.057.211 12.085.29 2.045.041 4.091.002 6.138.027.626.007 1.185-.067 1.362-.762.281-1.112.698-2.231.735-3.356.147-4.648.166-9.3.249-13.95.074-4.187.172-8.373.262-12.711m-20.33 31.609c-5.685 0-11.369-.005-17.054.006-1.075.003-2.151.068-3.226.118-1.456.067-2.331-.631-2.338-1.993-.022-3.436-.09-6.877.024-10.311.17-5.107.807-10.168 1.996-15.146.385-1.611.772-3.226 1.28-4.797.483-1.496 1.038-1.761 2.574-1.552.444.059.888.146 1.334.158 4.267.114 8.537.188 12.802.326 6.384.204 12.766.448 19.15.678 1.341.048 2.683.116 4.027.153.635.017.876.261.865.936-.101 5.756-.156 11.513-.246 17.269-.056 3.64-.09 7.282-.265 10.917-.048 1.023-.769 1.974-.539 3.108.024.122-.661.548-1.025.56-1.526.045-3.055-.031-4.582-.033-4.926-.007-9.852-.003-14.777-.003z" fill="#231f20" transform="matrix(4.16667 0 0 4.16667 212.61817356 242.60763593)"/><path d="m0-30.5c-.09 4.338-.188 8.524-.262 12.711-.083 4.65-.102 9.302-.249 13.95-.037 1.125-.454 2.244-.735 3.356-.177.695-.736.769-1.362.762-2.047-.025-4.093.014-6.138-.027-4.028-.079-8.056-.225-12.085-.29-4.458-.074-8.919-.061-13.378-.136-2.033-.035-4.062-.23-6.096-.275-.952-.021-1.289-.581-1.281-1.328.045-4.847-.528-9.682.069-14.547.53-4.317 1.114-8.602 2.38-12.772.485-1.602.494-1.697 2.161-1.693 5.56.011 11.119.102 16.678.155 5.497.05 10.994.091 16.491.133 1.329.009 2.656.001 3.807.001" fill="#f26f6a" transform="matrix(4.16667 0 0 4.16667 212.61817356 245.4868049)"/><path d="m0-56.895c7.69 3.188 16.113 4.049 24.397 4.877 6.328.631 12.654 1.263 18.982 1.896-.653 7.037-.756 13.723-1.408 20.76-.317 3.414-.635 6.835-.599 10.262.041 3.87.531 7.72 1.021 11.56.646 5.079 1.293 10.158 1.941 15.238 1.065-3.585 2.275-7.125 3.625-10.612.933-2.414 2.203-5.064 4.659-5.877-4.208-18.323-3.04-37.604-7.762-55.802-1.973 1.331-2.738 3.805-3.928 5.865-1.19 2.059-3.595 3.967-5.767 2.993" fill="#aa8e70" opacity=".52" transform="matrix(4.16667 0 0 4.16667 57.19721589 285.54100361)"/><path d="m0 2.556v-3.79l-3.221 3.79zm0 2.598h-6.097v-2.753l6.097-7.249h2.917v7.404h1.513v2.598h-1.513v2.25h-2.917z" fill="#fff" transform="matrix(4.16667 0 0 4.16667 102.53891883 151.2367295)"/><path d="m0-.081c0 1.533.135 2.581.406 3.142.272.561.666.843 1.179.843.341 0 .635-.119.885-.358.248-.238.432-.615.55-1.13.117-.515.176-1.317.176-2.408 0-1.598-.135-2.674-.406-3.224-.272-.55-.677-.826-1.221-.826-.553 0-.953.281-1.198.843-.248.56-.371 1.6-.371 3.118m-3.319-.009c0-2.289.41-3.892 1.236-4.806.825-.916 2.081-1.374 3.767-1.374.811 0 1.476.101 1.997.301.52.2.944.461 1.274.781.329.32.587.656.777 1.01.188.354.34.765.456 1.237.223.899.337 1.835.337 2.81 0 2.186-.371 3.786-1.11 4.799-.74 1.013-2.013 1.521-3.82 1.521-1.014 0-1.834-.163-2.457-.486-.626-.324-1.137-.798-1.537-1.421-.292-.444-.517-1.051-.679-1.821-.161-.77-.241-1.62-.241-2.551" fill="#fff" transform="matrix(4.16667 0 0 4.16667 139.17644814 157.16173424)"/><path d="m0-5.84h4.015v1.442h-1.347v4.398h-1.321v-4.398h-1.347z" fill="#231f20" transform="matrix(4.16667 0 0 4.16667 45.88887351 232.19096093)"/><path d="m0 .025c0 .59.08 1.013.24 1.272.161.257.379.385.655.385.283 0 .504-.126.658-.378.155-.252.234-.705.234-1.359 0-.55-.081-.951-.244-1.205-.162-.253-.383-.38-.66-.38-.267 0-.48.129-.642.386-.161.258-.241.685-.241 1.279m-1.321-.007c0-.954.194-1.697.583-2.227.388-.532.93-.798 1.624-.798.711 0 1.259.261 1.644.783s.578 1.254.578 2.193c0 .683-.084 1.242-.253 1.679-.168.437-.411.777-.729 1.021-.317.242-.713.363-1.187.363-.482 0-.881-.104-1.197-.315-.316-.21-.573-.541-.77-.995-.195-.454-.293-1.022-.293-1.704" fill="#231f20" transform="matrix(4.16667 0 0 4.16667 69.07222539 219.97011782)"/><path d="m0-1.108h.555c.062 0 .179-.026.351-.079.088-.025.16-.085.214-.183.056-.099.083-.212.083-.339 0-.189-.044-.333-.131-.434-.088-.101-.251-.151-.492-.151h-.58zm-1.327 3.474v-5.84h2.202c.408 0 .72.048.935.144.216.096.391.273.523.533.131.258.197.573.197.945 0 .324-.051.603-.151.839-.102.234-.24.424-.418.571-.112.093-.267.17-.463.231.157.071.272.144.344.215.048.047.118.15.211.308.092.156.154.276.186.361l.638 1.693h-1.492l-.707-1.785c-.088-.231-.169-.381-.238-.45-.096-.089-.203-.134-.325-.134h-.115v2.369z" fill="#231f20" transform="matrix(4.16667 0 0 4.16667 90.5847426 222.33261971)"/><path d="m0-5.84h1.234l1.608 3.231v-3.231h1.246v5.84h-1.246l-1.6-3.207v3.207h-1.242z" fill="#231f20" transform="matrix(4.16667 0 0 4.16667 104.37225363 232.19096093)"/></g><path d="m125.27643702 207.85760813h5.51667108v24.3333528h-5.51667108z" fill="#231f20" stroke-width="4.16667"/><path d="m0-5.84h1.322v4.401h2.061v1.439h-3.383z" fill="#231f20" fill-rule="nonzero" transform="matrix(4.16667 0 0 4.16667 134.73894459 232.19096093)"/><path d="m0-5.84h1.321v4.401h2.061v1.439h-3.382z" fill="#231f20" fill-rule="nonzero" transform="matrix(4.16667 0 0 4.16667 151.3347912 232.19096093)"/><path d="m0 .025c0 .59.08 1.013.24 1.272.161.257.379.385.655.385.284 0 .504-.126.658-.378.156-.252.234-.705.234-1.359 0-.55-.081-.951-.244-1.205-.162-.253-.383-.38-.66-.38-.266 0-.48.129-.642.386-.161.258-.241.685-.241 1.279m-1.321-.007c0-.954.194-1.697.584-2.227.388-.532.929-.798 1.623-.798.711 0 1.259.261 1.644.783s.578 1.254.578 2.193c0 .683-.084 1.242-.252 1.679s-.412.777-.73 1.021c-.317.242-.713.363-1.187.363-.482 0-.881-.104-1.197-.315-.316-.21-.571-.541-.769-.995-.196-.454-.294-1.022-.294-1.704" fill="#231f20" fill-rule="nonzero" transform="matrix(4.16667 0 0 4.16667 172.31814132 219.97011782)"/><path d="m0 1.976 1.257-.108c.027.279.083.492.165.638.137.235.332.354.583.354.19 0 .335-.06.436-.182.103-.119.155-.26.155-.42 0-.151-.05-.286-.146-.405-.098-.121-.324-.233-.678-.339-.578-.179-.992-.415-1.238-.709-.249-.295-.374-.672-.374-1.127 0-.302.064-.584.192-.851.127-.268.319-.477.574-.629.255-.153.606-.23 1.051-.23.546 0 .963.139 1.249.417.287.277.457.719.512 1.325l-1.244.1c-.034-.264-.104-.455-.209-.574-.107-.12-.252-.179-.439-.179-.153 0-.269.044-.348.132-.076.09-.116.198-.116.325 0 .093.032.177.096.252.063.076.209.148.444.215.577.17.99.341 1.241.515.25.174.431.39.545.647.113.258.17.546.17.864 0 .375-.076.721-.227 1.037-.152.315-.365.555-.636.718-.272.163-.616.246-1.028.246-.728 0-1.232-.192-1.512-.575-.279-.382-.438-.867-.475-1.457" fill="#231f20" fill-rule="nonzero" transform="matrix(4.16667 0 0 4.16667 187.27231995 215.90761457)"/><path d="m0 27.295c1.1-.744 1.556-1.737 1.441-3.209-.223.179-.393.352-.597.474-1.266.748-1.269.744-.976 2.173.039.186.086.369.132.562m-.287-3.049c2.229-1.048 2.496-1.587 2.304-3.315-.353.261-.709.519-1.058.784-.814.62-1.463 1.322-1.246 2.531m2.845-17.839c.085.049.17.096.256.143.643-.577 1.293-1.148 1.928-1.733.462-.427.437-.806-.108-1.131-.274-.163-.607-.242-.921-.332-.381-.109-.656.018-.724.404-.155.882-.289 1.766-.431 2.649m-1.808 11.129c1.938-.763 2.66-2.115 2.519-4.063-.543.444-.992.914-1.541 1.224-.455.257-.589.623-.679 1.033-.124.569-.194 1.15-.299 1.806m1.497-7.781c1.874-.729 2.646-2.032 2.493-4.026-.707.64-1.299 1.239-1.962 1.753-.441.341-.549.767-.584 1.242-.023.309.029.624.053 1.031m-.94 4.324c1.576-1.208 2.819-2.322 2.565-4.326-.599.309-1.187.582-1.737.916-.178.107-.316.359-.356.567-.169.87-.294 1.748-.472 2.843m-1.257 7.478c1.617-1.164 2.93-2.214 2.596-4.273-.61.41-1.196.771-1.738 1.184-.207.157-.396.417-.449.66-.163.728-.254 1.471-.409 2.429m9.204-18.27c-.718-1.66-1.502-2.835-3.005-3.41-.431-.164-.905-.286-1.037.389-.084.435-.412.553-.846.455-.498-.113-.375-.446-.303-.754.133-.561-.176-.683-.684-.699-1.398-.041-2.477.532-3.298 1.542-.591.726-.483.997.453 1.197.96.204 1.935.346 2.906.485 1.839.263 3.683.505 5.814.795m-10.212 19.916c.474-2.932.951-5.865 1.42-8.799.559-3.485 1.118-6.969 1.66-10.456.13-.833.103-.864-.738-1.056-.648-.149-1.312-.235-1.971-.333-.465-.068-.58-.296-.578-.741.005-1.688 1.286-2.353 2.566-3.006.389-.199.861-.326 1.304-.344 1.73-.072 3.461.14 4.907 1.094 1.497.987 2.255 2.519 2.632 4.198.075.337-.149.534-.5.52-.658-.028-1.318-.074-1.974-.135-.326-.031-.648-.106-.969-.173-.417-.085-.613.09-.694.468-.326 1.544-.691 3.081-.988 4.631-.602 3.132-1.211 6.263-1.734 9.408-.381 2.29-.601 4.607-.953 6.903-.081.528-.348 1.054-.636 1.518-.312.501-.742.935-1.133 1.387-.531.612-1.102.547-1.362-.19-.484-1.367-.812-2.753-.379-4.19.067-.226.079-.47.117-.704z" fill="#231f20" fill-rule="nonzero" transform="matrix(4.16667 0 0 4.16667 184.74731793 73.51166732)"/><path d="m0 4.059c-2.13-.29-3.974-.531-5.814-.794-.972-.139-1.947-.282-2.906-.486-.936-.199-1.045-.47-.453-1.196.821-1.01 1.9-1.583 3.297-1.542.509.015.818.138.686.698-.074.309-.197.641.302.755.434.098.761-.02.845-.455.133-.676.607-.554 1.038-.389 1.502.574 2.287 1.749 3.005 3.409" fill="#c6c8ca" fill-rule="nonzero" transform="matrix(4.16667 0 0 4.16667 223.30568211 70.29499808)"/><path d="m.625-.314c-.108.964-.218 1.705-.255 2.45-.015.248.098.549.255.756.412.543.881 1.048 1.358 1.605.873-1.895-.111-3.258-1.358-4.811" fill="#c6c8ca" fill-rule="nonzero" transform="matrix(4.01467821174 1.11511755876 1.11511755876 -4.01467821174 182.79731637 161.37423761)"/><path d="m.55-.271c-.087 1.106-.172 1.988-.213 2.873-.01.211.066.49.213.636.456.453.964.857 1.473 1.299.719-1.887-.227-3.263-1.473-4.808" fill="#c6c8ca" fill-rule="nonzero" transform="matrix(4.04928657276 .9820424523 .9820424523 -4.04928657276 188.23482072 130.53671294)"/><path d="m.492-.24c-.115.39-.238.685-.286.992-.075.471-.066.91.286 1.342.529.652.968 1.37 1.512 2.153.603-1.906.147-3.351-1.512-4.487" fill="#c6c8ca" fill-rule="nonzero" transform="matrix(4.05742407927 .94786325829 .94786325829 -4.05742407927 192.33899067 112.72003202)"/><path d="m.735-.323c-.114.655-.238 1.227-.306 1.805-.048.418-.041.807.306 1.198.418.472.688 1.063 1.057 1.66.769-1.795.526-3.309-1.057-4.663" fill="#c6c8ca" fill-rule="nonzero" transform="matrix(3.93904065123 1.35833858667 1.35833858667 -3.93904065123 185.40981846 144.31172396)"/><path d="m0 3.021c.143-.883.277-1.768.432-2.649.068-.387.342-.515.724-.405.313.09.647.169.921.332.544.326.57.704.107 1.131-.634.585-1.285 1.156-1.928 1.734-.086-.048-.171-.096-.256-.143" fill="#c6c8ca" fill-rule="nonzero" transform="matrix(4.16667 0 0 4.16667 195.40149312 87.62417861)"/><path d="m0 3.314c-.217-1.207.432-1.91 1.246-2.53.35-.266.705-.523 1.059-.784.191 1.727-.076 2.266-2.305 3.314" fill="#c6c8ca" fill-rule="nonzero" transform="matrix(4.16667 0 0 4.16667 183.54731697 160.72840376)"/><path d="m.498-.095c-.101.17-.199.331-.292.498-.701 1.279-.697 1.276.292 2.364.159.177.271.392.431.629.544-1.373.401-2.456-.431-3.491" fill="#c6c8ca" fill-rule="nonzero" transform="matrix(3.98140735179 1.22863014957 1.22863014957 -3.98140735179 182.88064977 186.24925751)"/><path d="m1.783-2.785c.357.057.567.445.525.791-.041.346-.273.647-.525.901-.587.591-1.346 1.023-2.163 1.233.095-1.054.85-2.044 1.873-2.457" fill="#fff" fill-rule="nonzero" transform="matrix(-4.14633248373 .41118616228 .41118616228 4.14633248373 217.56401085 84.32417597)"/></svg>