<svg clip-rule="evenodd" fill-rule="evenodd" stroke-miterlimit="10" viewBox="0 0 968 789" xmlns="http://www.w3.org/2000/svg"><path d="m296.466 419.849h14.173v14.173h-14.173zm14.173 0h14.173v14.173h-14.173zm14.174 0h14.173v14.173h-14.173zm14.173 0h14.173v14.173h-14.173zm14.173 0h14.173v14.173h-14.173zm14.173 0h14.173v14.173h-14.173zm14.174 0h14.173v14.173h-14.173zm14.173 0h14.173v14.173h-14.173zm14.173 0h14.173v14.173h-14.173zm14.173 0h14.173v14.173h-14.173zm14.173 0h14.173v14.173h-14.173zm14.174 0h14.173v14.173h-14.173zm14.173 0h14.173v14.173h-14.173zm14.173 0h14.173v14.173h-14.173zm14.173 0h14.173v14.173h-14.173zm14.174 0h14.173v14.173h-14.173zm-212.599 14.174h14.173v14.173h-14.173zm14.173 0h14.173v14.173h-14.173zm28.347 0h14.173v14.173h-14.173zm14.173 0h14.173v14.173h-14.173zm14.173 0h14.173v14.173h-14.173zm70.866 0h14.173v14.173h-14.173zm56.693 0h14.173v14.173h-14.173zm14.174 0h14.173v14.173h-14.173zm-212.599 14.173h14.173v14.173h-14.173zm56.693 0h14.173v14.173h-14.173zm14.173 0h14.173v14.173h-14.173zm70.866 0h14.173v14.173h-14.173zm56.693 0h14.173v14.173h-14.173zm14.174 0h14.173v14.173h-14.173zm-212.599 14.173h14.173v14.173h-14.173zm14.173 0h14.173v14.173h-14.173zm56.693 0h14.173v14.173h-14.173zm14.174 0h14.173v14.173h-14.173zm14.173 0h14.173v14.173h-14.173zm14.173 0h14.173v14.173h-14.173zm14.173 0h14.173v14.173h-14.173zm14.173 0h14.173v14.173h-14.173zm14.174 0h14.173v14.173h-14.173zm42.519 0h14.173v14.173h-14.173zm14.174 0h14.173v14.173h-14.173zm-212.599 14.173h14.173v14.173h-14.173zm14.173 0h14.173v14.173h-14.173zm28.347 0h14.173v14.173h-14.173zm14.173 0h14.173v14.173h-14.173zm14.173 0h14.173v14.173h-14.173zm14.174 0h14.173v14.173h-14.173zm14.173 0h14.173v14.173h-14.173zm28.346 0h14.173v14.173h-14.173zm14.173 0h14.173v14.173h-14.173zm14.174 0h14.173v14.173h-14.173zm42.519 0h14.173v14.173h-14.173zm14.174 0h14.173v14.173h-14.173zm-212.599 14.173h14.173v14.173h-14.173zm14.173 0h14.173v14.173h-14.173zm14.174 0h14.173v14.173h-14.173zm14.173 0h14.173v14.173h-14.173zm28.346 0h14.173v14.173h-14.173zm14.174 0h14.173v14.173h-14.173zm14.173 0h14.173v14.173h-14.173zm28.346 0h14.173v14.173h-14.173zm14.173 0h14.173v14.173h-14.173zm14.174 0h14.173v14.173h-14.173zm14.173 0h14.173v14.173h-14.173zm14.173 0h14.173v14.173h-14.173zm14.173 0h14.173v14.173h-14.173zm14.174 0h14.173v14.173h-14.173zm-212.599 14.174h14.173v14.173h-14.173zm14.173 0h14.173v14.173h-14.173zm14.174 0h14.173v14.173h-14.173zm42.519 0h14.173v14.173h-14.173zm14.174 0h14.173v14.173h-14.173zm56.692 0h14.173v14.173h-14.173zm14.174 0h14.173v14.173h-14.173zm14.173 0h14.173v14.173h-14.173zm14.173 0h14.173v14.173h-14.173zm14.173 0h14.173v14.173h-14.173zm14.174 0h14.173v14.173h-14.173zm-212.599 14.173h14.173v14.173h-14.173zm14.173 0h14.173v14.173h-14.173zm14.174 0h14.173v14.173h-14.173zm28.346 0h14.173v14.173h-14.173zm14.173 0h14.173v14.173h-14.173zm42.52 0h14.173v14.173h-14.173zm42.52 0h14.173v14.173h-14.173zm14.173 0h14.173v14.173h-14.173zm42.52 0h14.173v14.173h-14.173zm-212.599 14.173h14.173v14.173h-14.173zm56.693 0h14.173v14.173h-14.173zm14.173 0h14.173v14.173h-14.173zm14.174 0h14.173v14.173h-14.173zm14.173 0h14.173v14.173h-14.173zm14.173 0h14.173v14.173h-14.173zm14.173 0h14.173v14.173h-14.173zm14.173 0h14.173v14.173h-14.173zm14.174 0h14.173v14.173h-14.173zm14.173 0h14.173v14.173h-14.173zm42.52 0h14.173v14.173h-14.173zm-212.599 14.173h14.173v14.173h-14.173zm28.347 0h14.173v14.173h-14.173zm14.173 0h14.173v14.173h-14.173zm14.173 0h14.173v14.173h-14.173zm14.173 0h14.173v14.173h-14.173zm14.174 0h14.173v14.173h-14.173zm14.173 0h14.173v14.173h-14.173zm14.173 0h14.173v14.173h-14.173zm14.173 0h14.173v14.173h-14.173zm14.173 0h14.173v14.173h-14.173zm14.174 0h14.173v14.173h-14.173zm56.693 0h14.173v14.173h-14.173zm-212.599 14.174h14.173v14.173h-14.173zm14.173 0h14.173v14.173h-14.173zm14.174 0h14.173v14.173h-14.173zm14.173 0h14.173v14.173h-14.173zm14.173 0h14.173v14.173h-14.173zm56.693 0h14.173v14.173h-14.173zm14.173 0h14.173v14.173h-14.173zm14.173 0h14.173v14.173h-14.173zm14.174 0h14.173v14.173h-14.173zm14.173 0h14.173v14.173h-14.173zm14.173 0h14.173v14.173h-14.173zm14.173 0h14.173v14.173h-14.173zm14.174 0h14.173v14.173h-14.173zm-212.599 14.173h14.173v14.173h-14.173zm14.173 0h14.173v14.173h-14.173zm70.867 0h14.173v14.173h-14.173zm28.346 0h14.173v14.173h-14.173zm14.173 0h14.173v14.173h-14.173zm14.173 0h14.173v14.173h-14.173zm14.174 0h14.173v14.173h-14.173zm14.173 0h14.173v14.173h-14.173zm14.173 0h14.173v14.173h-14.173zm14.173 0h14.173v14.173h-14.173zm14.174 0h14.173v14.173h-14.173zm-212.599 14.173h14.173v14.173h-14.173zm14.173 0h14.173v14.173h-14.173zm14.174 0h14.173v14.173h-14.173zm14.173 0h14.173v14.173h-14.173zm14.173 0h14.173v14.173h-14.173zm14.173 0h14.173v14.173h-14.173zm14.174 0h14.173v14.173h-14.173zm14.173 0h14.173v14.173h-14.173zm14.173 0h14.173v14.173h-14.173zm14.173 0h14.173v14.173h-14.173zm14.173 0h14.173v14.173h-14.173zm14.174 0h14.173v14.173h-14.173zm14.173 0h14.173v14.173h-14.173zm14.173 0h14.173v14.173h-14.173zm14.173 0h14.173v14.173h-14.173zm14.174 0h14.173v14.173h-14.173z" fill="#fff" fill-rule="nonzero" transform="matrix(4.16667 0 0 4.16667 -1223.7 -1738.90419532)"/><g fill="none" stroke="#231f20" stroke-width=".5"><path d="m0 0h14.423" transform="matrix(4.16667 0 0 4.16667 10.53432072 10.46803751)"/><path d="m-6.837 6.837h13.674" transform="matrix(0 -4.16667 -4.16667 0 40.06351101 39.9972278)"/><path d="m0 0h14.173" transform="matrix(4.16667 0 0 4.16667 70.63020213 10.46803751)"/><path d="m-6.837 6.837h13.674" transform="matrix(0 -4.16667 -4.16667 0 99.11772492 39.9972278)"/><path d="m0 0h14.173" transform="matrix(4.16667 0 0 4.16667 129.68858271 10.46803751)"/><path d="m-6.837 6.837h13.674" transform="matrix(0 -4.16667 -4.16667 0 158.17193883 39.9972278)"/><path d="m0 0h14.173" transform="matrix(4.16667 0 0 4.16667 188.74279662 10.46803751)"/><path d="m-6.837 6.837h13.674" transform="matrix(0 -4.16667 -4.16667 0 217.22615274 39.9972278)"/><path d="m0 0h14.173" transform="matrix(4.16667 0 0 4.16667 247.79701053 10.46803751)"/><path d="m-6.837 6.837h13.674" transform="matrix(0 -4.16667 -4.16667 0 276.28453332 39.9972278)"/><path d="m0 0h14.173" transform="matrix(4.16667 0 0 4.16667 306.85122444 10.46803751)"/><path d="m-6.837 6.837h13.674" transform="matrix(0 -4.16667 -4.16667 0 335.33874723 39.9972278)"/><path d="m0 0h14.173" transform="matrix(4.16667 0 0 4.16667 365.90960502 10.46803751)"/><path d="m-6.837 6.837h13.674" transform="matrix(0 -4.16667 -4.16667 0 394.39296114 39.9972278)"/><path d="m0 0h14.173" transform="matrix(4.16667 0 0 4.16667 424.96381893 10.46803751)"/><path d="m-6.837 6.837h13.674" transform="matrix(0 -4.16667 -4.16667 0 453.44717505 39.9972278)"/><path d="m0 0h14.173" transform="matrix(4.16667 0 0 4.16667 484.01803284 10.46803751)"/><path d="m-6.837 6.837h13.674" transform="matrix(0 -4.16667 -4.16667 0 512.50555563 39.9972278)"/><path d="m0 0h14.173" transform="matrix(4.16667 0 0 4.16667 543.07224675 10.46803751)"/><path d="m-6.837 6.837h13.674" transform="matrix(0 -4.16667 -4.16667 0 571.55976954 39.9972278)"/><path d="m0 0h14.173" transform="matrix(4.16667 0 0 4.16667 602.12646066 10.46803751)"/><path d="m-6.837 6.837h13.674" transform="matrix(0 -4.16667 -4.16667 0 630.61398345 39.9972278)"/><path d="m0 0h14.173" transform="matrix(4.16667 0 0 4.16667 661.18484124 10.46803751)"/><path d="m-6.837 6.837h13.674" transform="matrix(0 -4.16667 -4.16667 0 689.66819736 39.9972278)"/><path d="m0 0h14.173" transform="matrix(4.16667 0 0 4.16667 720.23905515 10.46803751)"/><path d="m-6.837 6.837h13.674" transform="matrix(0 -4.16667 -4.16667 0 748.72657794 39.9972278)"/><path d="m0 0h14.173" transform="matrix(4.16667 0 0 4.16667 779.29326906 10.46803751)"/><path d="m-6.837 6.837h13.674" transform="matrix(0 -4.16667 -4.16667 0 807.78079185 39.9972278)"/><path d="m0 0h14.173" transform="matrix(4.16667 0 0 4.16667 838.34748297 10.46803751)"/><path d="m-6.837 6.837h13.674" transform="matrix(0 -4.16667 -4.16667 0 866.83500576 39.9972278)"/><path d="m0 0h14.423" transform="matrix(4.16667 0 0 4.16667 897.40586355 10.46803751)"/><path d="m-6.837 6.837h13.674" transform="matrix(0 -4.16667 -4.16667 0 925.88921967 39.9972278)"/><path d="m-6.837 6.837h13.674" transform="matrix(0 -4.16667 -4.16667 0 984.94343358 39.9972278)"/><path d="m0 0h14.423" transform="matrix(4.16667 0 0 4.16667 10.53432072 69.52641809)"/><path d="m-6.837 6.837h13.674" transform="matrix(0 -4.16667 -4.16667 0 40.06351101 99.05144171)"/><path d="m0 0h14.173" transform="matrix(4.16667 0 0 4.16667 70.63020213 69.52641809)"/><path d="m-6.837 6.837h13.674" transform="matrix(0 -4.16667 -4.16667 0 99.11772492 99.05144171)"/><path d="m0 0h14.173" transform="matrix(4.16667 0 0 4.16667 129.68858271 69.52641809)"/><path d="m-6.837 6.837h13.674" transform="matrix(0 -4.16667 -4.16667 0 158.17193883 99.05144171)"/><path d="m0 0h14.173" transform="matrix(4.16667 0 0 4.16667 188.74279662 69.52641809)"/><path d="m-6.837 6.837h13.674" transform="matrix(0 -4.16667 -4.16667 0 217.22615274 99.05144171)"/><path d="m0 0h14.173" transform="matrix(4.16667 0 0 4.16667 247.79701053 69.52641809)"/><path d="m-6.837 6.837h13.674" transform="matrix(0 -4.16667 -4.16667 0 276.28453332 99.05144171)"/><path d="m0 0h14.173" transform="matrix(4.16667 0 0 4.16667 306.85122444 69.52641809)"/><path d="m-6.837 6.837h13.674" transform="matrix(0 -4.16667 -4.16667 0 335.33874723 99.05144171)"/><path d="m0 0h14.173" transform="matrix(4.16667 0 0 4.16667 365.90960502 69.52641809)"/><path d="m-6.837 6.837h13.674" transform="matrix(0 -4.16667 -4.16667 0 394.39296114 99.05144171)"/><path d="m0 0h14.173" transform="matrix(4.16667 0 0 4.16667 424.96381893 69.52641809)"/><path d="m-6.837 6.837h13.674" transform="matrix(0 -4.16667 -4.16667 0 453.44717505 99.05144171)"/><path d="m0 0h14.173" transform="matrix(4.16667 0 0 4.16667 484.01803284 69.52641809)"/><path d="m-6.837 6.837h13.674" transform="matrix(0 -4.16667 -4.16667 0 512.50555563 99.05144171)"/><path d="m0 0h14.173" transform="matrix(4.16667 0 0 4.16667 543.07224675 69.52641809)"/><path d="m-6.837 6.837h13.674" transform="matrix(0 -4.16667 -4.16667 0 571.55976954 99.05144171)"/><path d="m0 0h14.173" transform="matrix(4.16667 0 0 4.16667 602.12646066 69.52641809)"/><path d="m-6.837 6.837h13.674" transform="matrix(0 -4.16667 -4.16667 0 630.61398345 99.05144171)"/><path d="m0 0h14.173" transform="matrix(4.16667 0 0 4.16667 661.18484124 69.52641809)"/><path d="m-6.837 6.837h13.674" transform="matrix(0 -4.16667 -4.16667 0 689.66819736 99.05144171)"/><path d="m0 0h14.173" transform="matrix(4.16667 0 0 4.16667 720.23905515 69.52641809)"/><path d="m-6.837 6.837h13.674" transform="matrix(0 -4.16667 -4.16667 0 748.72657794 99.05144171)"/><path d="m0 0h14.173" transform="matrix(4.16667 0 0 4.16667 779.29326906 69.52641809)"/><path d="m-6.837 6.837h13.674" transform="matrix(0 -4.16667 -4.16667 0 807.78079185 99.05144171)"/><path d="m0 0h14.173" transform="matrix(4.16667 0 0 4.16667 838.34748297 69.52641809)"/><path d="m-6.837 6.837h13.674" transform="matrix(0 -4.16667 -4.16667 0 866.83500576 99.05144171)"/><path d="m0 0h14.423" transform="matrix(4.16667 0 0 4.16667 897.40586355 69.52641809)"/><path d="m-6.837 6.837h13.674" transform="matrix(0 -4.16667 -4.16667 0 925.88921967 99.05144171)"/><path d="m-6.837 6.837h13.674" transform="matrix(0 -4.16667 -4.16667 0 984.94343358 99.05144171)"/><path d="m0 0h14.423" transform="matrix(4.16667 0 0 4.16667 10.53432072 128.580632)"/><path d="m-6.837 6.837h13.674" transform="matrix(0 -4.16667 -4.16667 0 40.06351101 158.10565562)"/><path d="m0 0h14.173" transform="matrix(4.16667 0 0 4.16667 70.63020213 128.580632)"/><path d="m-6.837 6.837h13.674" transform="matrix(0 -4.16667 -4.16667 0 99.11772492 158.10565562)"/><path d="m0 0h14.173" transform="matrix(4.16667 0 0 4.16667 129.68858271 128.580632)"/><path d="m-6.837 6.837h13.674" transform="matrix(0 -4.16667 -4.16667 0 158.17193883 158.10565562)"/><path d="m0 0h14.173" transform="matrix(4.16667 0 0 4.16667 188.74279662 128.580632)"/><path d="m-6.837 6.837h13.674" transform="matrix(0 -4.16667 -4.16667 0 217.22615274 158.10565562)"/><path d="m0 0h14.173" transform="matrix(4.16667 0 0 4.16667 247.79701053 128.580632)"/><path d="m-6.837 6.837h13.674" transform="matrix(0 -4.16667 -4.16667 0 276.28453332 158.10565562)"/><path d="m0 0h14.173" transform="matrix(4.16667 0 0 4.16667 306.85122444 128.580632)"/><path d="m-6.837 6.837h13.674" transform="matrix(0 -4.16667 -4.16667 0 335.33874723 158.10565562)"/><path d="m0 0h14.173" transform="matrix(4.16667 0 0 4.16667 365.90960502 128.580632)"/><path d="m-6.837 6.837h13.674" transform="matrix(0 -4.16667 -4.16667 0 394.39296114 158.10565562)"/><path d="m0 0h14.173" transform="matrix(4.16667 0 0 4.16667 424.96381893 128.580632)"/><path d="m-6.837 6.837h13.674" transform="matrix(0 -4.16667 -4.16667 0 453.44717505 158.10565562)"/><path d="m0 0h14.173" transform="matrix(4.16667 0 0 4.16667 484.01803284 128.580632)"/><path d="m-6.837 6.837h13.674" transform="matrix(0 -4.16667 -4.16667 0 512.50555563 158.10565562)"/><path d="m0 0h14.173" transform="matrix(4.16667 0 0 4.16667 543.07224675 128.580632)"/><path d="m-6.837 6.837h13.674" transform="matrix(0 -4.16667 -4.16667 0 571.55976954 158.10565562)"/><path d="m0 0h14.173" transform="matrix(4.16667 0 0 4.16667 602.12646066 128.580632)"/><path d="m-6.837 6.837h13.674" transform="matrix(0 -4.16667 -4.16667 0 630.61398345 158.10565562)"/><path d="m0 0h14.173" transform="matrix(4.16667 0 0 4.16667 661.18484124 128.580632)"/><path d="m-6.837 6.837h13.674" transform="matrix(0 -4.16667 -4.16667 0 689.66819736 158.10565562)"/><path d="m0 0h14.173" transform="matrix(4.16667 0 0 4.16667 720.23905515 128.580632)"/><path d="m-6.837 6.837h13.674" transform="matrix(0 -4.16667 -4.16667 0 748.72657794 158.10565562)"/><path d="m0 0h14.173" transform="matrix(4.16667 0 0 4.16667 779.29326906 128.580632)"/><path d="m-6.837 6.837h13.674" transform="matrix(0 -4.16667 -4.16667 0 807.78079185 158.10565562)"/><path d="m0 0h14.173" transform="matrix(4.16667 0 0 4.16667 838.34748297 128.580632)"/><path d="m-6.837 6.837h13.674" transform="matrix(0 -4.16667 -4.16667 0 866.83500576 158.10565562)"/><path d="m0 0h14.423" transform="matrix(4.16667 0 0 4.16667 897.40586355 128.580632)"/><path d="m-6.837 6.837h13.674" transform="matrix(0 -4.16667 -4.16667 0 925.88921967 158.10565562)"/><path d="m-6.837 6.837h13.674" transform="matrix(0 -4.16667 -4.16667 0 984.94343358 158.10565562)"/><path d="m0 0h14.423" transform="matrix(4.16667 0 0 4.16667 10.53432072 187.63484591)"/><path d="m-6.837 6.837h13.674" transform="matrix(0 -4.16667 -4.16667 0 40.06351101 217.1640362)"/><path d="m0 0h14.173" transform="matrix(4.16667 0 0 4.16667 70.63020213 187.63484591)"/><path d="m-6.837 6.837h13.674" transform="matrix(0 -4.16667 -4.16667 0 99.11772492 217.1640362)"/><path d="m0 0h14.173" transform="matrix(4.16667 0 0 4.16667 129.68858271 187.63484591)"/><path d="m-6.837 6.837h13.674" transform="matrix(0 -4.16667 -4.16667 0 158.17193883 217.1640362)"/><path d="m0 0h14.173" transform="matrix(4.16667 0 0 4.16667 188.74279662 187.63484591)"/><path d="m-6.837 6.837h13.674" transform="matrix(0 -4.16667 -4.16667 0 217.22615274 217.1640362)"/><path d="m0 0h14.173" transform="matrix(4.16667 0 0 4.16667 247.79701053 187.63484591)"/><path d="m-6.837 6.837h13.674" transform="matrix(0 -4.16667 -4.16667 0 276.28453332 217.1640362)"/><path d="m0 0h14.173" transform="matrix(4.16667 0 0 4.16667 306.85122444 187.63484591)"/><path d="m-6.837 6.837h13.674" transform="matrix(0 -4.16667 -4.16667 0 335.33874723 217.1640362)"/><path d="m0 0h14.173" transform="matrix(4.16667 0 0 4.16667 365.90960502 187.63484591)"/><path d="m-6.837 6.837h13.674" transform="matrix(0 -4.16667 -4.16667 0 394.39296114 217.1640362)"/><path d="m0 0h14.173" transform="matrix(4.16667 0 0 4.16667 424.96381893 187.63484591)"/><path d="m-6.837 6.837h13.674" transform="matrix(0 -4.16667 -4.16667 0 453.44717505 217.1640362)"/><path d="m0 0h14.173" transform="matrix(4.16667 0 0 4.16667 484.01803284 187.63484591)"/><path d="m-6.837 6.837h13.674" transform="matrix(0 -4.16667 -4.16667 0 512.50555563 217.1640362)"/><path d="m0 0h14.173" transform="matrix(4.16667 0 0 4.16667 543.07224675 187.63484591)"/><path d="m-6.837 6.837h13.674" transform="matrix(0 -4.16667 -4.16667 0 571.55976954 217.1640362)"/><path d="m0 0h14.173" transform="matrix(4.16667 0 0 4.16667 602.12646066 187.63484591)"/><path d="m-6.837 6.837h13.674" transform="matrix(0 -4.16667 -4.16667 0 630.61398345 217.1640362)"/><path d="m0 0h14.173" transform="matrix(4.16667 0 0 4.16667 661.18484124 187.63484591)"/><path d="m-6.837 6.837h13.674" transform="matrix(0 -4.16667 -4.16667 0 689.66819736 217.1640362)"/><path d="m0 0h14.173" transform="matrix(4.16667 0 0 4.16667 720.23905515 187.63484591)"/><path d="m-6.837 6.837h13.674" transform="matrix(0 -4.16667 -4.16667 0 748.72657794 217.1640362)"/><path d="m0 0h14.173" transform="matrix(4.16667 0 0 4.16667 779.29326906 187.63484591)"/><path d="m-6.837 6.837h13.674" transform="matrix(0 -4.16667 -4.16667 0 807.78079185 217.1640362)"/><path d="m0 0h14.173" transform="matrix(4.16667 0 0 4.16667 838.34748297 187.63484591)"/><path d="m-6.837 6.837h13.674" transform="matrix(0 -4.16667 -4.16667 0 866.83500576 217.1640362)"/><path d="m0 0h14.423" transform="matrix(4.16667 0 0 4.16667 897.40586355 187.63484591)"/><path d="m-6.837 6.837h13.674" transform="matrix(0 -4.16667 -4.16667 0 925.88921967 217.1640362)"/><path d="m-6.837 6.837h13.674" transform="matrix(0 -4.16667 -4.16667 0 984.94343358 217.1640362)"/><path d="m0 0h14.423" transform="matrix(4.16667 0 0 4.16667 10.53432072 246.68905982)"/><path d="m-6.837 6.837h13.674" transform="matrix(0 -4.16667 -4.16667 0 40.06351101 276.21825011)"/><path d="m0 0h14.173" transform="matrix(4.16667 0 0 4.16667 70.63020213 246.68905982)"/><path d="m-6.837 6.837h13.674" transform="matrix(0 -4.16667 -4.16667 0 99.11772492 276.21825011)"/><path d="m0 0h14.173" transform="matrix(4.16667 0 0 4.16667 129.68858271 246.68905982)"/><path d="m-6.837 6.837h13.674" transform="matrix(0 -4.16667 -4.16667 0 158.17193883 276.21825011)"/><path d="m0 0h14.173" transform="matrix(4.16667 0 0 4.16667 188.74279662 246.68905982)"/><path d="m-6.837 6.837h13.674" transform="matrix(0 -4.16667 -4.16667 0 217.22615274 276.21825011)"/><path d="m0 0h14.173" transform="matrix(4.16667 0 0 4.16667 247.79701053 246.68905982)"/><path d="m-6.837 6.837h13.674" transform="matrix(0 -4.16667 -4.16667 0 276.28453332 276.21825011)"/><path d="m0 0h14.173" transform="matrix(4.16667 0 0 4.16667 306.85122444 246.68905982)"/><path d="m-6.837 6.837h13.674" transform="matrix(0 -4.16667 -4.16667 0 335.33874723 276.21825011)"/><path d="m0 0h14.173" transform="matrix(4.16667 0 0 4.16667 365.90960502 246.68905982)"/><path d="m-6.837 6.837h13.674" transform="matrix(0 -4.16667 -4.16667 0 394.39296114 276.21825011)"/><path d="m0 0h14.173" transform="matrix(4.16667 0 0 4.16667 424.96381893 246.68905982)"/><path d="m-6.837 6.837h13.674" transform="matrix(0 -4.16667 -4.16667 0 453.44717505 276.21825011)"/><path d="m0 0h14.173" transform="matrix(4.16667 0 0 4.16667 484.01803284 246.68905982)"/><path d="m-6.837 6.837h13.674" transform="matrix(0 -4.16667 -4.16667 0 512.50555563 276.21825011)"/><path d="m0 0h14.173" transform="matrix(4.16667 0 0 4.16667 543.07224675 246.68905982)"/><path d="m-6.837 6.837h13.674" transform="matrix(0 -4.16667 -4.16667 0 571.55976954 276.21825011)"/><path d="m0 0h14.173" transform="matrix(4.16667 0 0 4.16667 602.12646066 246.68905982)"/><path d="m-6.837 6.837h13.674" transform="matrix(0 -4.16667 -4.16667 0 630.61398345 276.21825011)"/><path d="m0 0h14.173" transform="matrix(4.16667 0 0 4.16667 661.18484124 246.68905982)"/><path d="m-6.837 6.837h13.674" transform="matrix(0 -4.16667 -4.16667 0 689.66819736 276.21825011)"/><path d="m0 0h14.173" transform="matrix(4.16667 0 0 4.16667 720.23905515 246.68905982)"/><path d="m-6.837 6.837h13.674" transform="matrix(0 -4.16667 -4.16667 0 748.72657794 276.21825011)"/><path d="m0 0h14.173" transform="matrix(4.16667 0 0 4.16667 779.29326906 246.68905982)"/><path d="m-6.837 6.837h13.674" transform="matrix(0 -4.16667 -4.16667 0 807.78079185 276.21825011)"/><path d="m0 0h14.173" transform="matrix(4.16667 0 0 4.16667 838.34748297 246.68905982)"/><path d="m-6.837 6.837h13.674" transform="matrix(0 -4.16667 -4.16667 0 866.83500576 276.21825011)"/><path d="m0 0h14.423" transform="matrix(4.16667 0 0 4.16667 897.40586355 246.68905982)"/><path d="m-6.837 6.837h13.674" transform="matrix(0 -4.16667 -4.16667 0 925.88921967 276.21825011)"/><path d="m-6.837 6.837h13.674" transform="matrix(0 -4.16667 -4.16667 0 984.94343358 276.21825011)"/><path d="m0 0h14.423" transform="matrix(4.16667 0 0 4.16667 10.53432072 305.74327373)"/><path d="m-6.837 6.837h13.674" transform="matrix(0 -4.16667 -4.16667 0 40.06351101 335.27246402)"/><path d="m0 0h14.173" transform="matrix(4.16667 0 0 4.16667 70.63020213 305.74327373)"/><path d="m-6.837 6.837h13.674" transform="matrix(0 -4.16667 -4.16667 0 99.11772492 335.27246402)"/><path d="m0 0h14.173" transform="matrix(4.16667 0 0 4.16667 129.68858271 305.74327373)"/><path d="m-6.837 6.837h13.674" transform="matrix(0 -4.16667 -4.16667 0 158.17193883 335.27246402)"/><path d="m0 0h14.173" transform="matrix(4.16667 0 0 4.16667 188.74279662 305.74327373)"/><path d="m-6.837 6.837h13.674" transform="matrix(0 -4.16667 -4.16667 0 217.22615274 335.27246402)"/><path d="m0 0h14.173" transform="matrix(4.16667 0 0 4.16667 247.79701053 305.74327373)"/><path d="m-6.837 6.837h13.674" transform="matrix(0 -4.16667 -4.16667 0 276.28453332 335.27246402)"/><path d="m0 0h14.173" transform="matrix(4.16667 0 0 4.16667 306.85122444 305.74327373)"/><path d="m-6.837 6.837h13.674" transform="matrix(0 -4.16667 -4.16667 0 335.33874723 335.27246402)"/><path d="m0 0h14.173" transform="matrix(4.16667 0 0 4.16667 365.90960502 305.74327373)"/><path d="m-6.837 6.837h13.674" transform="matrix(0 -4.16667 -4.16667 0 394.39296114 335.27246402)"/><path d="m0 0h14.173" transform="matrix(4.16667 0 0 4.16667 424.96381893 305.74327373)"/><path d="m-6.837 6.837h13.674" transform="matrix(0 -4.16667 -4.16667 0 453.44717505 335.27246402)"/><path d="m0 0h14.173" transform="matrix(4.16667 0 0 4.16667 484.01803284 305.74327373)"/><path d="m-6.837 6.837h13.674" transform="matrix(0 -4.16667 -4.16667 0 512.50555563 335.27246402)"/><path d="m0 0h14.173" transform="matrix(4.16667 0 0 4.16667 543.07224675 305.74327373)"/><path d="m-6.837 6.837h13.674" transform="matrix(0 -4.16667 -4.16667 0 571.55976954 335.27246402)"/><path d="m0 0h14.173" transform="matrix(4.16667 0 0 4.16667 602.12646066 305.74327373)"/><path d="m-6.837 6.837h13.674" transform="matrix(0 -4.16667 -4.16667 0 630.61398345 335.27246402)"/><path d="m0 0h14.173" transform="matrix(4.16667 0 0 4.16667 661.18484124 305.74327373)"/><path d="m-6.837 6.837h13.674" transform="matrix(0 -4.16667 -4.16667 0 689.66819736 335.27246402)"/><path d="m0 0h14.173" transform="matrix(4.16667 0 0 4.16667 720.23905515 305.74327373)"/><path d="m-6.837 6.837h13.674" transform="matrix(0 -4.16667 -4.16667 0 748.72657794 335.27246402)"/><path d="m0 0h14.173" transform="matrix(4.16667 0 0 4.16667 779.29326906 305.74327373)"/><path d="m-6.837 6.837h13.674" transform="matrix(0 -4.16667 -4.16667 0 807.78079185 335.27246402)"/><path d="m0 0h14.173" transform="matrix(4.16667 0 0 4.16667 838.34748297 305.74327373)"/><path d="m-6.837 6.837h13.674" transform="matrix(0 -4.16667 -4.16667 0 866.83500576 335.27246402)"/><path d="m0 0h14.423" transform="matrix(4.16667 0 0 4.16667 897.40586355 305.74327373)"/><path d="m-6.837 6.837h13.674" transform="matrix(0 -4.16667 -4.16667 0 925.88921967 335.27246402)"/><path d="m-6.837 6.837h13.674" transform="matrix(0 -4.16667 -4.16667 0 984.94343358 335.27246402)"/><path d="m0 0h14.423" transform="matrix(4.16667 0 0 4.16667 10.53432072 364.80165431)"/><path d="m-6.837 6.837h13.674" transform="matrix(0 -4.16667 -4.16667 0 40.06351101 394.32667793)"/><path d="m0 0h14.173" transform="matrix(4.16667 0 0 4.16667 70.63020213 364.80165431)"/><path d="m-6.837 6.837h13.674" transform="matrix(0 -4.16667 -4.16667 0 99.11772492 394.32667793)"/><path d="m0 0h14.173" transform="matrix(4.16667 0 0 4.16667 129.68858271 364.80165431)"/><path d="m-6.837 6.837h13.674" transform="matrix(0 -4.16667 -4.16667 0 158.17193883 394.32667793)"/><path d="m0 0h14.173" transform="matrix(4.16667 0 0 4.16667 188.74279662 364.80165431)"/><path d="m-6.837 6.837h13.674" transform="matrix(0 -4.16667 -4.16667 0 217.22615274 394.32667793)"/><path d="m0 0h14.173" transform="matrix(4.16667 0 0 4.16667 247.79701053 364.80165431)"/><path d="m-6.837 6.837h13.674" transform="matrix(0 -4.16667 -4.16667 0 276.28453332 394.32667793)"/><path d="m0 0h14.173" transform="matrix(4.16667 0 0 4.16667 306.85122444 364.80165431)"/><path d="m-6.837 6.837h13.674" transform="matrix(0 -4.16667 -4.16667 0 335.33874723 394.32667793)"/><path d="m0 0h14.173" transform="matrix(4.16667 0 0 4.16667 365.90960502 364.80165431)"/><path d="m-6.837 6.837h13.674" transform="matrix(0 -4.16667 -4.16667 0 394.39296114 394.32667793)"/><path d="m0 0h14.173" transform="matrix(4.16667 0 0 4.16667 424.96381893 364.80165431)"/><path d="m-6.837 6.837h13.674" transform="matrix(0 -4.16667 -4.16667 0 453.44717505 394.32667793)"/><path d="m0 0h14.173" transform="matrix(4.16667 0 0 4.16667 484.01803284 364.80165431)"/><path d="m-6.837 6.837h13.674" transform="matrix(0 -4.16667 -4.16667 0 512.50555563 394.32667793)"/><path d="m0 0h14.173" transform="matrix(4.16667 0 0 4.16667 543.07224675 364.80165431)"/><path d="m-6.837 6.837h13.674" transform="matrix(0 -4.16667 -4.16667 0 571.55976954 394.32667793)"/><path d="m0 0h14.173" transform="matrix(4.16667 0 0 4.16667 602.12646066 364.80165431)"/><path d="m-6.837 6.837h13.674" transform="matrix(0 -4.16667 -4.16667 0 630.61398345 394.32667793)"/><path d="m0 0h14.173" transform="matrix(4.16667 0 0 4.16667 661.18484124 364.80165431)"/><path d="m-6.837 6.837h13.674" transform="matrix(0 -4.16667 -4.16667 0 689.66819736 394.32667793)"/><path d="m0 0h14.173" transform="matrix(4.16667 0 0 4.16667 720.23905515 364.80165431)"/><path d="m-6.837 6.837h13.674" transform="matrix(0 -4.16667 -4.16667 0 748.72657794 394.32667793)"/><path d="m0 0h14.173" transform="matrix(4.16667 0 0 4.16667 779.29326906 364.80165431)"/><path d="m-6.837 6.837h13.674" transform="matrix(0 -4.16667 -4.16667 0 807.78079185 394.32667793)"/><path d="m0 0h14.173" transform="matrix(4.16667 0 0 4.16667 838.34748297 364.80165431)"/><path d="m-6.837 6.837h13.674" transform="matrix(0 -4.16667 -4.16667 0 866.83500576 394.32667793)"/><path d="m0 0h14.423" transform="matrix(4.16667 0 0 4.16667 897.40586355 364.80165431)"/><path d="m-6.837 6.837h13.674" transform="matrix(0 -4.16667 -4.16667 0 925.88921967 394.32667793)"/><path d="m-6.837 6.837h13.674" transform="matrix(0 -4.16667 -4.16667 0 984.94343358 394.32667793)"/><path d="m0 0h14.423" transform="matrix(4.16667 0 0 4.16667 10.53432072 423.85586822)"/><path d="m-6.837 6.837h13.674" transform="matrix(0 -4.16667 -4.16667 0 40.06351101 453.38505851)"/><path d="m0 0h14.173" transform="matrix(4.16667 0 0 4.16667 70.63020213 423.85586822)"/><path d="m-6.837 6.837h13.674" transform="matrix(0 -4.16667 -4.16667 0 99.11772492 453.38505851)"/><path d="m0 0h14.173" transform="matrix(4.16667 0 0 4.16667 129.68858271 423.85586822)"/><path d="m-6.837 6.837h13.674" transform="matrix(0 -4.16667 -4.16667 0 158.17193883 453.38505851)"/><path d="m0 0h14.173" transform="matrix(4.16667 0 0 4.16667 188.74279662 423.85586822)"/><path d="m-6.837 6.837h13.674" transform="matrix(0 -4.16667 -4.16667 0 217.22615274 453.38505851)"/><path d="m0 0h14.173" transform="matrix(4.16667 0 0 4.16667 247.79701053 423.85586822)"/><path d="m-6.837 6.837h13.674" transform="matrix(0 -4.16667 -4.16667 0 276.28453332 453.38505851)"/><path d="m0 0h14.173" transform="matrix(4.16667 0 0 4.16667 306.85122444 423.85586822)"/><path d="m-6.837 6.837h13.674" transform="matrix(0 -4.16667 -4.16667 0 335.33874723 453.38505851)"/><path d="m0 0h14.173" transform="matrix(4.16667 0 0 4.16667 365.90960502 423.85586822)"/><path d="m-6.837 6.837h13.674" transform="matrix(0 -4.16667 -4.16667 0 394.39296114 453.38505851)"/><path d="m0 0h14.173" transform="matrix(4.16667 0 0 4.16667 424.96381893 423.85586822)"/><path d="m-6.837 6.837h13.674" transform="matrix(0 -4.16667 -4.16667 0 453.44717505 453.38505851)"/><path d="m0 0h14.173" transform="matrix(4.16667 0 0 4.16667 484.01803284 423.85586822)"/><path d="m-6.837 6.837h13.674" transform="matrix(0 -4.16667 -4.16667 0 512.50555563 453.38505851)"/><path d="m0 0h14.173" transform="matrix(4.16667 0 0 4.16667 543.07224675 423.85586822)"/><path d="m-6.837 6.837h13.674" transform="matrix(0 -4.16667 -4.16667 0 571.55976954 453.38505851)"/><path d="m0 0h14.173" transform="matrix(4.16667 0 0 4.16667 602.12646066 423.85586822)"/><path d="m-6.837 6.837h13.674" transform="matrix(0 -4.16667 -4.16667 0 630.61398345 453.38505851)"/><path d="m0 0h14.173" transform="matrix(4.16667 0 0 4.16667 661.18484124 423.85586822)"/><path d="m-6.837 6.837h13.674" transform="matrix(0 -4.16667 -4.16667 0 689.66819736 453.38505851)"/><path d="m0 0h14.173" transform="matrix(4.16667 0 0 4.16667 720.23905515 423.85586822)"/><path d="m-6.837 6.837h13.674" transform="matrix(0 -4.16667 -4.16667 0 748.72657794 453.38505851)"/><path d="m0 0h14.173" transform="matrix(4.16667 0 0 4.16667 779.29326906 423.85586822)"/><path d="m-6.837 6.837h13.674" transform="matrix(0 -4.16667 -4.16667 0 807.78079185 453.38505851)"/><path d="m0 0h14.173" transform="matrix(4.16667 0 0 4.16667 838.34748297 423.85586822)"/><path d="m-6.837 6.837h13.674" transform="matrix(0 -4.16667 -4.16667 0 866.83500576 453.38505851)"/><path d="m0 0h14.423" transform="matrix(4.16667 0 0 4.16667 897.40586355 423.85586822)"/><path d="m-6.837 6.837h13.674" transform="matrix(0 -4.16667 -4.16667 0 925.88921967 453.38505851)"/><path d="m-6.837 6.837h13.674" transform="matrix(0 -4.16667 -4.16667 0 984.94343358 453.38505851)"/><path d="m0 0h14.423" transform="matrix(4.16667 0 0 4.16667 10.53432072 482.91008213)"/><path d="m-6.837 6.837h13.674" transform="matrix(0 -4.16667 -4.16667 0 40.06351101 512.43927242)"/><path d="m0 0h14.173" transform="matrix(4.16667 0 0 4.16667 70.63020213 482.91008213)"/><path d="m-6.837 6.837h13.674" transform="matrix(0 -4.16667 -4.16667 0 99.11772492 512.43927242)"/><path d="m0 0h14.173" transform="matrix(4.16667 0 0 4.16667 129.68858271 482.91008213)"/><path d="m-6.837 6.837h13.674" transform="matrix(0 -4.16667 -4.16667 0 158.17193883 512.43927242)"/><path d="m0 0h14.173" transform="matrix(4.16667 0 0 4.16667 188.74279662 482.91008213)"/><path d="m-6.837 6.837h13.674" transform="matrix(0 -4.16667 -4.16667 0 217.22615274 512.43927242)"/><path d="m0 0h14.173" transform="matrix(4.16667 0 0 4.16667 247.79701053 482.91008213)"/><path d="m-6.837 6.837h13.674" transform="matrix(0 -4.16667 -4.16667 0 276.28453332 512.43927242)"/><path d="m0 0h14.173" transform="matrix(4.16667 0 0 4.16667 306.85122444 482.91008213)"/><path d="m-6.837 6.837h13.674" transform="matrix(0 -4.16667 -4.16667 0 335.33874723 512.43927242)"/><path d="m0 0h14.173" transform="matrix(4.16667 0 0 4.16667 365.90960502 482.91008213)"/><path d="m-6.837 6.837h13.674" transform="matrix(0 -4.16667 -4.16667 0 394.39296114 512.43927242)"/><path d="m0 0h14.173" transform="matrix(4.16667 0 0 4.16667 424.96381893 482.91008213)"/><path d="m-6.837 6.837h13.674" transform="matrix(0 -4.16667 -4.16667 0 453.44717505 512.43927242)"/><path d="m0 0h14.173" transform="matrix(4.16667 0 0 4.16667 484.01803284 482.91008213)"/><path d="m-6.837 6.837h13.674" transform="matrix(0 -4.16667 -4.16667 0 512.50555563 512.43927242)"/><path d="m0 0h14.173" transform="matrix(4.16667 0 0 4.16667 543.07224675 482.91008213)"/><path d="m-6.837 6.837h13.674" transform="matrix(0 -4.16667 -4.16667 0 571.55976954 512.43927242)"/><path d="m0 0h14.173" transform="matrix(4.16667 0 0 4.16667 602.12646066 482.91008213)"/><path d="m-6.837 6.837h13.674" transform="matrix(0 -4.16667 -4.16667 0 630.61398345 512.43927242)"/><path d="m0 0h14.173" transform="matrix(4.16667 0 0 4.16667 661.18484124 482.91008213)"/><path d="m-6.837 6.837h13.674" transform="matrix(0 -4.16667 -4.16667 0 689.66819736 512.43927242)"/><path d="m0 0h14.173" transform="matrix(4.16667 0 0 4.16667 720.23905515 482.91008213)"/><path d="m-6.837 6.837h13.674" transform="matrix(0 -4.16667 -4.16667 0 748.72657794 512.43927242)"/><path d="m0 0h14.173" transform="matrix(4.16667 0 0 4.16667 779.29326906 482.91008213)"/><path d="m-6.837 6.837h13.674" transform="matrix(0 -4.16667 -4.16667 0 807.78079185 512.43927242)"/><path d="m0 0h14.173" transform="matrix(4.16667 0 0 4.16667 838.34748297 482.91008213)"/><path d="m-6.837 6.837h13.674" transform="matrix(0 -4.16667 -4.16667 0 866.83500576 512.43927242)"/><path d="m0 0h14.423" transform="matrix(4.16667 0 0 4.16667 897.40586355 482.91008213)"/><path d="m-6.837 6.837h13.674" transform="matrix(0 -4.16667 -4.16667 0 925.88921967 512.43927242)"/><path d="m-6.837 6.837h13.674" transform="matrix(0 -4.16667 -4.16667 0 984.94343358 512.43927242)"/><path d="m0 0h14.423" transform="matrix(4.16667 0 0 4.16667 10.53432072 541.96429604)"/><path d="m-6.837 6.837h13.674" transform="matrix(0 -4.16667 -4.16667 0 40.06351101 571.49348633)"/><path d="m0 0h14.173" transform="matrix(4.16667 0 0 4.16667 70.63020213 541.96429604)"/><path d="m-6.837 6.837h13.674" transform="matrix(0 -4.16667 -4.16667 0 99.11772492 571.49348633)"/><path d="m0 0h14.173" transform="matrix(4.16667 0 0 4.16667 129.68858271 541.96429604)"/><path d="m-6.837 6.837h13.674" transform="matrix(0 -4.16667 -4.16667 0 158.17193883 571.49348633)"/><path d="m0 0h14.173" transform="matrix(4.16667 0 0 4.16667 188.74279662 541.96429604)"/><path d="m-6.837 6.837h13.674" transform="matrix(0 -4.16667 -4.16667 0 217.22615274 571.49348633)"/><path d="m0 0h14.173" transform="matrix(4.16667 0 0 4.16667 247.79701053 541.96429604)"/><path d="m-6.837 6.837h13.674" transform="matrix(0 -4.16667 -4.16667 0 276.28453332 571.49348633)"/><path d="m0 0h14.173" transform="matrix(4.16667 0 0 4.16667 306.85122444 541.96429604)"/><path d="m-6.837 6.837h13.674" transform="matrix(0 -4.16667 -4.16667 0 335.33874723 571.49348633)"/><path d="m0 0h14.173" transform="matrix(4.16667 0 0 4.16667 365.90960502 541.96429604)"/><path d="m-6.837 6.837h13.674" transform="matrix(0 -4.16667 -4.16667 0 394.39296114 571.49348633)"/><path d="m0 0h14.173" transform="matrix(4.16667 0 0 4.16667 424.96381893 541.96429604)"/><path d="m-6.837 6.837h13.674" transform="matrix(0 -4.16667 -4.16667 0 453.44717505 571.49348633)"/><path d="m0 0h14.173" transform="matrix(4.16667 0 0 4.16667 484.01803284 541.96429604)"/><path d="m-6.837 6.837h13.674" transform="matrix(0 -4.16667 -4.16667 0 512.50555563 571.49348633)"/><path d="m0 0h14.173" transform="matrix(4.16667 0 0 4.16667 543.07224675 541.96429604)"/><path d="m-6.837 6.837h13.674" transform="matrix(0 -4.16667 -4.16667 0 571.55976954 571.49348633)"/><path d="m0 0h14.173" transform="matrix(4.16667 0 0 4.16667 602.12646066 541.96429604)"/><path d="m-6.837 6.837h13.674" transform="matrix(0 -4.16667 -4.16667 0 630.61398345 571.49348633)"/><path d="m0 0h14.173" transform="matrix(4.16667 0 0 4.16667 661.18484124 541.96429604)"/><path d="m-6.837 6.837h13.674" transform="matrix(0 -4.16667 -4.16667 0 689.66819736 571.49348633)"/><path d="m0 0h14.173" transform="matrix(4.16667 0 0 4.16667 720.23905515 541.96429604)"/><path d="m-6.837 6.837h13.674" transform="matrix(0 -4.16667 -4.16667 0 748.72657794 571.49348633)"/><path d="m0 0h14.173" transform="matrix(4.16667 0 0 4.16667 779.29326906 541.96429604)"/><path d="m-6.837 6.837h13.674" transform="matrix(0 -4.16667 -4.16667 0 807.78079185 571.49348633)"/><path d="m0 0h14.173" transform="matrix(4.16667 0 0 4.16667 838.34748297 541.96429604)"/><path d="m-6.837 6.837h13.674" transform="matrix(0 -4.16667 -4.16667 0 866.83500576 571.49348633)"/><path d="m0 0h14.423" transform="matrix(4.16667 0 0 4.16667 897.40586355 541.96429604)"/><path d="m-6.837 6.837h13.674" transform="matrix(0 -4.16667 -4.16667 0 925.88921967 571.49348633)"/><path d="m-6.837 6.837h13.674" transform="matrix(0 -4.16667 -4.16667 0 984.94343358 571.49348633)"/><path d="m0 0h14.423" transform="matrix(4.16667 0 0 4.16667 10.53432072 601.02267662)"/><path d="m-6.837 6.837h13.674" transform="matrix(0 -4.16667 -4.16667 0 40.06351101 630.54770024)"/><path d="m0 0h14.173" transform="matrix(4.16667 0 0 4.16667 70.63020213 601.02267662)"/><path d="m-6.837 6.837h13.674" transform="matrix(0 -4.16667 -4.16667 0 99.11772492 630.54770024)"/><path d="m0 0h14.173" transform="matrix(4.16667 0 0 4.16667 129.68858271 601.02267662)"/><path d="m-6.837 6.837h13.674" transform="matrix(0 -4.16667 -4.16667 0 158.17193883 630.54770024)"/><path d="m0 0h14.173" transform="matrix(4.16667 0 0 4.16667 188.74279662 601.02267662)"/><path d="m-6.837 6.837h13.674" transform="matrix(0 -4.16667 -4.16667 0 217.22615274 630.54770024)"/><path d="m0 0h14.173" transform="matrix(4.16667 0 0 4.16667 247.79701053 601.02267662)"/><path d="m-6.837 6.837h13.674" transform="matrix(0 -4.16667 -4.16667 0 276.28453332 630.54770024)"/><path d="m0 0h14.173" transform="matrix(4.16667 0 0 4.16667 306.85122444 601.02267662)"/><path d="m-6.837 6.837h13.674" transform="matrix(0 -4.16667 -4.16667 0 335.33874723 630.54770024)"/><path d="m0 0h14.173" transform="matrix(4.16667 0 0 4.16667 365.90960502 601.02267662)"/><path d="m-6.837 6.837h13.674" transform="matrix(0 -4.16667 -4.16667 0 394.39296114 630.54770024)"/><path d="m0 0h14.173" transform="matrix(4.16667 0 0 4.16667 424.96381893 601.02267662)"/><path d="m-6.837 6.837h13.674" transform="matrix(0 -4.16667 -4.16667 0 453.44717505 630.54770024)"/><path d="m0 0h14.173" transform="matrix(4.16667 0 0 4.16667 484.01803284 601.02267662)"/><path d="m-6.837 6.837h13.674" transform="matrix(0 -4.16667 -4.16667 0 512.50555563 630.54770024)"/><path d="m0 0h14.173" transform="matrix(4.16667 0 0 4.16667 543.07224675 601.02267662)"/><path d="m-6.837 6.837h13.674" transform="matrix(0 -4.16667 -4.16667 0 571.55976954 630.54770024)"/><path d="m0 0h14.173" transform="matrix(4.16667 0 0 4.16667 602.12646066 601.02267662)"/><path d="m-6.837 6.837h13.674" transform="matrix(0 -4.16667 -4.16667 0 630.61398345 630.54770024)"/><path d="m0 0h14.173" transform="matrix(4.16667 0 0 4.16667 661.18484124 601.02267662)"/><path d="m-6.837 6.837h13.674" transform="matrix(0 -4.16667 -4.16667 0 689.66819736 630.54770024)"/><path d="m0 0h14.173" transform="matrix(4.16667 0 0 4.16667 720.23905515 601.02267662)"/><path d="m-6.837 6.837h13.674" transform="matrix(0 -4.16667 -4.16667 0 748.72657794 630.54770024)"/><path d="m0 0h14.173" transform="matrix(4.16667 0 0 4.16667 779.29326906 601.02267662)"/><path d="m-6.837 6.837h13.674" transform="matrix(0 -4.16667 -4.16667 0 807.78079185 630.54770024)"/><path d="m0 0h14.173" transform="matrix(4.16667 0 0 4.16667 838.34748297 601.02267662)"/><path d="m-6.837 6.837h13.674" transform="matrix(0 -4.16667 -4.16667 0 866.83500576 630.54770024)"/><path d="m0 0h14.423" transform="matrix(4.16667 0 0 4.16667 897.40586355 601.02267662)"/><path d="m-6.837 6.837h13.674" transform="matrix(0 -4.16667 -4.16667 0 925.88921967 630.54770024)"/><path d="m-6.837 6.837h13.674" transform="matrix(0 -4.16667 -4.16667 0 984.94343358 630.54770024)"/><path d="m0 0h14.423" transform="matrix(4.16667 0 0 4.16667 10.53432072 660.07689053)"/><path d="m-6.837 6.837h13.674" transform="matrix(0 -4.16667 -4.16667 0 40.06351101 689.60191415)"/><path d="m0 0h14.173" transform="matrix(4.16667 0 0 4.16667 70.63020213 660.07689053)"/><path d="m-6.837 6.837h13.674" transform="matrix(0 -4.16667 -4.16667 0 99.11772492 689.60191415)"/><path d="m0 0h14.173" transform="matrix(4.16667 0 0 4.16667 129.68858271 660.07689053)"/><path d="m-6.837 6.837h13.674" transform="matrix(0 -4.16667 -4.16667 0 158.17193883 689.60191415)"/><path d="m0 0h14.173" transform="matrix(4.16667 0 0 4.16667 188.74279662 660.07689053)"/><path d="m-6.837 6.837h13.674" transform="matrix(0 -4.16667 -4.16667 0 217.22615274 689.60191415)"/><path d="m0 0h14.173" transform="matrix(4.16667 0 0 4.16667 247.79701053 660.07689053)"/><path d="m-6.837 6.837h13.674" transform="matrix(0 -4.16667 -4.16667 0 276.28453332 689.60191415)"/><path d="m0 0h14.173" transform="matrix(4.16667 0 0 4.16667 306.85122444 660.07689053)"/><path d="m-6.837 6.837h13.674" transform="matrix(0 -4.16667 -4.16667 0 335.33874723 689.60191415)"/><path d="m0 0h14.173" transform="matrix(4.16667 0 0 4.16667 365.90960502 660.07689053)"/><path d="m-6.837 6.837h13.674" transform="matrix(0 -4.16667 -4.16667 0 394.39296114 689.60191415)"/><path d="m0 0h14.173" transform="matrix(4.16667 0 0 4.16667 424.96381893 660.07689053)"/><path d="m-6.837 6.837h13.674" transform="matrix(0 -4.16667 -4.16667 0 453.44717505 689.60191415)"/><path d="m0 0h14.173" transform="matrix(4.16667 0 0 4.16667 484.01803284 660.07689053)"/><path d="m-6.837 6.837h13.674" transform="matrix(0 -4.16667 -4.16667 0 512.50555563 689.60191415)"/><path d="m0 0h14.173" transform="matrix(4.16667 0 0 4.16667 543.07224675 660.07689053)"/><path d="m-6.837 6.837h13.674" transform="matrix(0 -4.16667 -4.16667 0 571.55976954 689.60191415)"/><path d="m0 0h14.173" transform="matrix(4.16667 0 0 4.16667 602.12646066 660.07689053)"/><path d="m-6.837 6.837h13.674" transform="matrix(0 -4.16667 -4.16667 0 630.61398345 689.60191415)"/><path d="m0 0h14.173" transform="matrix(4.16667 0 0 4.16667 661.18484124 660.07689053)"/><path d="m-6.837 6.837h13.674" transform="matrix(0 -4.16667 -4.16667 0 689.66819736 689.60191415)"/><path d="m0 0h14.173" transform="matrix(4.16667 0 0 4.16667 720.23905515 660.07689053)"/><path d="m-6.837 6.837h13.674" transform="matrix(0 -4.16667 -4.16667 0 748.72657794 689.60191415)"/><path d="m0 0h14.173" transform="matrix(4.16667 0 0 4.16667 779.29326906 660.07689053)"/><path d="m-6.837 6.837h13.674" transform="matrix(0 -4.16667 -4.16667 0 807.78079185 689.60191415)"/><path d="m0 0h14.173" transform="matrix(4.16667 0 0 4.16667 838.34748297 660.07689053)"/><path d="m-6.837 6.837h13.674" transform="matrix(0 -4.16667 -4.16667 0 866.83500576 689.60191415)"/><path d="m0 0h14.423" transform="matrix(4.16667 0 0 4.16667 897.40586355 660.07689053)"/><path d="m-6.837 6.837h13.674" transform="matrix(0 -4.16667 -4.16667 0 925.88921967 689.60191415)"/><path d="m-6.837 6.837h13.674" transform="matrix(0 -4.16667 -4.16667 0 984.94343358 689.60191415)"/><path d="m0 0h14.423" transform="matrix(4.16667 0 0 4.16667 10.53432072 719.13110444)"/><path d="m-6.837 6.837h13.674" transform="matrix(0 -4.16667 -4.16667 0 40.06351101 748.66029473)"/><path d="m0 0h14.173" transform="matrix(4.16667 0 0 4.16667 70.63020213 719.13110444)"/><path d="m-6.837 6.837h13.674" transform="matrix(0 -4.16667 -4.16667 0 99.11772492 748.66029473)"/><path d="m0 0h14.173" transform="matrix(4.16667 0 0 4.16667 129.68858271 719.13110444)"/><path d="m-6.837 6.837h13.674" transform="matrix(0 -4.16667 -4.16667 0 158.17193883 748.66029473)"/><path d="m0 0h14.173" transform="matrix(4.16667 0 0 4.16667 188.74279662 719.13110444)"/><path d="m-6.837 6.837h13.674" transform="matrix(0 -4.16667 -4.16667 0 217.22615274 748.66029473)"/><path d="m0 0h14.173" transform="matrix(4.16667 0 0 4.16667 247.79701053 719.13110444)"/><path d="m-6.837 6.837h13.674" transform="matrix(0 -4.16667 -4.16667 0 276.28453332 748.66029473)"/><path d="m0 0h14.173" transform="matrix(4.16667 0 0 4.16667 306.85122444 719.13110444)"/><path d="m-6.837 6.837h13.674" transform="matrix(0 -4.16667 -4.16667 0 335.33874723 748.66029473)"/><path d="m0 0h14.173" transform="matrix(4.16667 0 0 4.16667 365.90960502 719.13110444)"/><path d="m-6.837 6.837h13.674" transform="matrix(0 -4.16667 -4.16667 0 394.39296114 748.66029473)"/><path d="m0 0h14.173" transform="matrix(4.16667 0 0 4.16667 424.96381893 719.13110444)"/><path d="m-6.837 6.837h13.674" transform="matrix(0 -4.16667 -4.16667 0 453.44717505 748.66029473)"/><path d="m0 0h14.173" transform="matrix(4.16667 0 0 4.16667 484.01803284 719.13110444)"/><path d="m-6.837 6.837h13.674" transform="matrix(0 -4.16667 -4.16667 0 512.50555563 748.66029473)"/><path d="m0 0h14.173" transform="matrix(4.16667 0 0 4.16667 543.07224675 719.13110444)"/><path d="m-6.837 6.837h13.674" transform="matrix(0 -4.16667 -4.16667 0 571.55976954 748.66029473)"/><path d="m0 0h14.173" transform="matrix(4.16667 0 0 4.16667 602.12646066 719.13110444)"/><path d="m-6.837 6.837h13.674" transform="matrix(0 -4.16667 -4.16667 0 630.61398345 748.66029473)"/><path d="m0 0h14.173" transform="matrix(4.16667 0 0 4.16667 661.18484124 719.13110444)"/><path d="m-6.837 6.837h13.674" transform="matrix(0 -4.16667 -4.16667 0 689.66819736 748.66029473)"/><path d="m0 0h14.173" transform="matrix(4.16667 0 0 4.16667 720.23905515 719.13110444)"/><path d="m-6.837 6.837h13.674" transform="matrix(0 -4.16667 -4.16667 0 748.72657794 748.66029473)"/><path d="m0 0h14.173" transform="matrix(4.16667 0 0 4.16667 779.29326906 719.13110444)"/><path d="m-6.837 6.837h13.674" transform="matrix(0 -4.16667 -4.16667 0 807.78079185 748.66029473)"/><path d="m0 0h14.173" transform="matrix(4.16667 0 0 4.16667 838.34748297 719.13110444)"/><path d="m-6.837 6.837h13.674" transform="matrix(0 -4.16667 -4.16667 0 866.83500576 748.66029473)"/><path d="m0 0h14.423" transform="matrix(4.16667 0 0 4.16667 897.40586355 719.13110444)"/><path d="m-6.837 6.837h13.674" transform="matrix(0 -4.16667 -4.16667 0 925.88921967 748.66029473)"/><path d="m-6.837 6.837h13.674" transform="matrix(0 -4.16667 -4.16667 0 984.94343358 748.66029473)"/><path d="m0 0h14.423" transform="matrix(4.16667 0 0 4.16667 10.53432072 778.18531835)"/><path d="m0 0h14.173" transform="matrix(4.16667 0 0 4.16667 70.63020213 778.18531835)"/><path d="m0 0h14.173" transform="matrix(4.16667 0 0 4.16667 129.68858271 778.18531835)"/><path d="m0 0h14.173" transform="matrix(4.16667 0 0 4.16667 188.74279662 778.18531835)"/><path d="m0 0h14.173" transform="matrix(4.16667 0 0 4.16667 247.79701053 778.18531835)"/><path d="m0 0h14.173" transform="matrix(4.16667 0 0 4.16667 306.85122444 778.18531835)"/><path d="m0 0h14.173" transform="matrix(4.16667 0 0 4.16667 365.90960502 778.18531835)"/><path d="m0 0h14.173" transform="matrix(4.16667 0 0 4.16667 424.96381893 778.18531835)"/><path d="m0 0h14.173" transform="matrix(4.16667 0 0 4.16667 484.01803284 778.18531835)"/><path d="m0 0h14.173" transform="matrix(4.16667 0 0 4.16667 543.07224675 778.18531835)"/><path d="m0 0h14.173" transform="matrix(4.16667 0 0 4.16667 602.12646066 778.18531835)"/><path d="m0 0h14.173" transform="matrix(4.16667 0 0 4.16667 661.18484124 778.18531835)"/><path d="m0 0h14.173" transform="matrix(4.16667 0 0 4.16667 720.23905515 778.18531835)"/><path d="m0 0h14.173" transform="matrix(4.16667 0 0 4.16667 779.29326906 778.18531835)"/><path d="m0 0h14.173" transform="matrix(4.16667 0 0 4.16667 838.34748297 778.18531835)"/><path d="m0 0h14.423" transform="matrix(4.16667 0 0 4.16667 897.40586355 778.18531835)"/></g></svg>