<svg clip-rule="evenodd" fill-rule="evenodd" stroke-miterlimit="10" viewBox="0 0 945 768" xmlns="http://www.w3.org/2000/svg"><g fill="none" stroke="#231f20" stroke-width=".5"><path d="m0 0h14.423" transform="matrix(4.16667 0 0 4.16667 -1.5 .47)"/><path d="m-6.837 6.837h13.674" transform="matrix(0 -4.16667 -4.16667 0 28.1 30)"/><path d="m0 0h14.173" transform="matrix(4.16667 0 0 4.16667 58.6 .47)"/><path d="m-6.837 6.837h13.674" transform="matrix(0 -4.16667 -4.16667 0 87.1 30)"/><path d="m0 0h14.173" transform="matrix(4.16667 0 0 4.16667 117.7 .47)"/><path d="m-6.837 6.837h13.674" transform="matrix(0 -4.16667 -4.16667 0 146.2 30)"/><path d="m0 0h14.173" transform="matrix(4.16667 0 0 4.16667 176.7 .47)"/><path d="m-6.837 6.837h13.674" transform="matrix(0 -4.16667 -4.16667 0 205.2 30)"/><path d="m0 0h14.173" transform="matrix(4.16667 0 0 4.16667 235.8 .47)"/><path d="m-6.837 6.837h13.674" transform="matrix(0 -4.16667 -4.16667 0 264.3 30)"/><path d="m0 0h14.173" transform="matrix(4.16667 0 0 4.16667 294.9 .47)"/><path d="m-6.837 6.837h13.674" transform="matrix(0 -4.16667 -4.16667 0 323.3 30)"/><path d="m0 0h14.173" transform="matrix(4.16667 0 0 4.16667 353.9 .47)"/><path d="m-6.837 6.837h13.674" transform="matrix(0 -4.16667 -4.16667 0 382.4 30)"/><path d="m0 0h14.173" transform="matrix(4.16667 0 0 4.16667 413 .47)"/><path d="m-6.837 6.837h13.674" transform="matrix(0 -4.16667 -4.16667 0 441.4 30)"/><path d="m0 0h14.173" transform="matrix(4.16667 0 0 4.16667 472 .47)"/><path d="m-6.837 6.837h13.674" transform="matrix(0 -4.16667 -4.16667 0 500.5 30)"/><path d="m0 0h14.173" transform="matrix(4.16667 0 0 4.16667 531.1 .47)"/><path d="m-6.837 6.837h13.674" transform="matrix(0 -4.16667 -4.16667 0 559.6 30)"/><path d="m0 0h14.173" transform="matrix(4.16667 0 0 4.16667 590.1 .47)"/><path d="m-6.837 6.837h13.674" transform="matrix(0 -4.16667 -4.16667 0 618.6 30)"/><path d="m0 0h14.173" transform="matrix(4.16667 0 0 4.16667 649.2 .47)"/><path d="m-6.837 6.837h13.674" transform="matrix(0 -4.16667 -4.16667 0 677.7 30)"/><path d="m0 0h14.173" transform="matrix(4.16667 0 0 4.16667 708.2 .47)"/><path d="m-6.837 6.837h13.674" transform="matrix(0 -4.16667 -4.16667 0 736.7 30)"/><path d="m0 0h14.173" transform="matrix(4.16667 0 0 4.16667 767.3 .47)"/><path d="m-6.837 6.837h13.674" transform="matrix(0 -4.16667 -4.16667 0 795.8 30)"/><path d="m0 0h14.173" transform="matrix(4.16667 0 0 4.16667 826.3 .47)"/><path d="m-6.837 6.837h13.674" transform="matrix(0 -4.16667 -4.16667 0 854.8 30)"/><path d="m0 0h14.423" transform="matrix(4.16667 0 0 4.16667 -1.5 59.52)"/><path d="m-6.837 6.837h13.674" transform="matrix(0 -4.16667 -4.16667 0 28.1 89.05)"/><path d="m0 0h14.173" transform="matrix(4.16667 0 0 4.16667 58.6 59.52)"/><path d="m-6.837 6.837h13.674" transform="matrix(0 -4.16667 -4.16667 0 87.1 89.05)"/><path d="m0 0h14.173" transform="matrix(4.16667 0 0 4.16667 117.7 59.52)"/><path d="m-6.837 6.837h13.674" transform="matrix(0 -4.16667 -4.16667 0 146.2 89.05)"/><path d="m0 0h14.173" transform="matrix(4.16667 0 0 4.16667 176.7 59.52)"/><path d="m-6.837 6.837h13.674" transform="matrix(0 -4.16667 -4.16667 0 205.2 89.05)"/><path d="m0 0h14.173" transform="matrix(4.16667 0 0 4.16667 235.8 59.52)"/><path d="m-6.837 6.837h13.674" transform="matrix(0 -4.16667 -4.16667 0 264.3 89.05)"/><path d="m0 0h14.173" transform="matrix(4.16667 0 0 4.16667 294.9 59.52)"/><path d="m-6.837 6.837h13.674" transform="matrix(0 -4.16667 -4.16667 0 323.3 89.05)"/><path d="m0 0h14.173" transform="matrix(4.16667 0 0 4.16667 353.9 59.52)"/><path d="m-6.837 6.837h13.674" transform="matrix(0 -4.16667 -4.16667 0 382.4 89.05)"/><path d="m0 0h14.173" transform="matrix(4.16667 0 0 4.16667 413 59.52)"/><path d="m-6.837 6.837h13.674" transform="matrix(0 -4.16667 -4.16667 0 441.4 89.05)"/><path d="m0 0h14.173" transform="matrix(4.16667 0 0 4.16667 472 59.52)"/><path d="m-6.837 6.837h13.674" transform="matrix(0 -4.16667 -4.16667 0 500.5 89.05)"/><path d="m0 0h14.173" transform="matrix(4.16667 0 0 4.16667 531.1 59.52)"/><path d="m-6.837 6.837h13.674" transform="matrix(0 -4.16667 -4.16667 0 559.6 89.05)"/><path d="m0 0h14.173" transform="matrix(4.16667 0 0 4.16667 590.1 59.52)"/><path d="m-6.837 6.837h13.674" transform="matrix(0 -4.16667 -4.16667 0 618.6 89.05)"/><path d="m0 0h14.173" transform="matrix(4.16667 0 0 4.16667 649.2 59.52)"/><path d="m-6.837 6.837h13.674" transform="matrix(0 -4.16667 -4.16667 0 677.7 89.05)"/><path d="m0 0h14.173" transform="matrix(4.16667 0 0 4.16667 708.2 59.52)"/><path d="m-6.837 6.837h13.674" transform="matrix(0 -4.16667 -4.16667 0 736.7 89.05)"/><path d="m0 0h14.173" transform="matrix(4.16667 0 0 4.16667 767.3 59.52)"/><path d="m-6.837 6.837h13.674" transform="matrix(0 -4.16667 -4.16667 0 795.8 89.05)"/><path d="m0 0h14.173" transform="matrix(4.16667 0 0 4.16667 826.3 59.52)"/><path d="m-6.837 6.837h13.674" transform="matrix(0 -4.16667 -4.16667 0 854.8 89.05)"/><path d="m0 0h14.423" transform="matrix(4.16667 0 0 4.16667 -1.5 118.58)"/><path d="m-6.837 6.837h13.674" transform="matrix(0 -4.16667 -4.16667 0 28.1 148.11)"/><path d="m0 0h14.173" transform="matrix(4.16667 0 0 4.16667 58.6 118.58)"/><path d="m-6.837 6.837h13.674" transform="matrix(0 -4.16667 -4.16667 0 87.1 148.11)"/><path d="m0 0h14.173" transform="matrix(4.16667 0 0 4.16667 117.7 118.58)"/><path d="m-6.837 6.837h13.674" transform="matrix(0 -4.16667 -4.16667 0 146.2 148.11)"/><path d="m0 0h14.173" transform="matrix(4.16667 0 0 4.16667 176.7 118.58)"/><path d="m-6.837 6.837h13.674" transform="matrix(0 -4.16667 -4.16667 0 205.2 148.11)"/><path d="m0 0h14.173" transform="matrix(4.16667 0 0 4.16667 235.8 118.58)"/><path d="m-6.837 6.837h13.674" transform="matrix(0 -4.16667 -4.16667 0 264.3 148.11)"/><path d="m0 0h14.173" transform="matrix(4.16667 0 0 4.16667 294.9 118.58)"/><path d="m-6.837 6.837h13.674" transform="matrix(0 -4.16667 -4.16667 0 323.3 148.11)"/><path d="m0 0h14.173" transform="matrix(4.16667 0 0 4.16667 353.9 118.58)"/><path d="m-6.837 6.837h13.674" transform="matrix(0 -4.16667 -4.16667 0 382.4 148.11)"/><path d="m0 0h14.173" transform="matrix(4.16667 0 0 4.16667 413 118.58)"/><path d="m-6.837 6.837h13.674" transform="matrix(0 -4.16667 -4.16667 0 441.4 148.11)"/><path d="m0 0h14.173" transform="matrix(4.16667 0 0 4.16667 472 118.58)"/><path d="m-6.837 6.837h13.674" transform="matrix(0 -4.16667 -4.16667 0 500.5 148.11)"/><path d="m0 0h14.173" transform="matrix(4.16667 0 0 4.16667 531.1 118.58)"/><path d="m-6.837 6.837h13.674" transform="matrix(0 -4.16667 -4.16667 0 559.6 148.11)"/><path d="m0 0h14.173" transform="matrix(4.16667 0 0 4.16667 590.1 118.58)"/><path d="m-6.837 6.837h13.674" transform="matrix(0 -4.16667 -4.16667 0 618.6 148.11)"/><path d="m0 0h14.173" transform="matrix(4.16667 0 0 4.16667 649.2 118.58)"/><path d="m-6.837 6.837h13.674" transform="matrix(0 -4.16667 -4.16667 0 677.7 148.11)"/><path d="m0 0h14.173" transform="matrix(4.16667 0 0 4.16667 708.2 118.58)"/><path d="m-6.837 6.837h13.674" transform="matrix(0 -4.16667 -4.16667 0 736.7 148.11)"/><path d="m0 0h14.173" transform="matrix(4.16667 0 0 4.16667 767.3 118.58)"/><path d="m-6.837 6.837h13.674" transform="matrix(0 -4.16667 -4.16667 0 795.8 148.11)"/><path d="m0 0h14.173" transform="matrix(4.16667 0 0 4.16667 826.3 118.58)"/><path d="m-6.837 6.837h13.674" transform="matrix(0 -4.16667 -4.16667 0 854.8 148.11)"/><path d="m0 0h14.423" transform="matrix(4.16667 0 0 4.16667 -1.5 177.63)"/><path d="m-6.837 6.837h13.674" transform="matrix(0 -4.16667 -4.16667 0 28.1 207.16)"/><path d="m0 0h14.173" transform="matrix(4.16667 0 0 4.16667 58.6 177.63)"/><path d="m-6.837 6.837h13.674" transform="matrix(0 -4.16667 -4.16667 0 87.1 207.16)"/><path d="m0 0h14.173" transform="matrix(4.16667 0 0 4.16667 117.7 177.63)"/><path d="m-6.837 6.837h13.674" transform="matrix(0 -4.16667 -4.16667 0 146.2 207.16)"/><path d="m0 0h14.173" transform="matrix(4.16667 0 0 4.16667 176.7 177.63)"/><path d="m-6.837 6.837h13.674" transform="matrix(0 -4.16667 -4.16667 0 205.2 207.16)"/><path d="m0 0h14.173" transform="matrix(4.16667 0 0 4.16667 235.8 177.63)"/><path d="m-6.837 6.837h13.674" transform="matrix(0 -4.16667 -4.16667 0 264.3 207.16)"/><path d="m0 0h14.173" transform="matrix(4.16667 0 0 4.16667 294.9 177.63)"/><path d="m-6.837 6.837h13.674" transform="matrix(0 -4.16667 -4.16667 0 323.3 207.16)"/><path d="m0 0h14.173" transform="matrix(4.16667 0 0 4.16667 353.9 177.63)"/><path d="m-6.837 6.837h13.674" transform="matrix(0 -4.16667 -4.16667 0 382.4 207.16)"/><path d="m0 0h14.173" transform="matrix(4.16667 0 0 4.16667 413 177.63)"/><path d="m-6.837 6.837h13.674" transform="matrix(0 -4.16667 -4.16667 0 441.4 207.16)"/><path d="m0 0h14.173" transform="matrix(4.16667 0 0 4.16667 472 177.63)"/><path d="m-6.837 6.837h13.674" transform="matrix(0 -4.16667 -4.16667 0 500.5 207.16)"/><path d="m0 0h14.173" transform="matrix(4.16667 0 0 4.16667 531.1 177.63)"/><path d="m-6.837 6.837h13.674" transform="matrix(0 -4.16667 -4.16667 0 559.6 207.16)"/><path d="m0 0h14.173" transform="matrix(4.16667 0 0 4.16667 590.1 177.63)"/><path d="m-6.837 6.837h13.674" transform="matrix(0 -4.16667 -4.16667 0 618.6 207.16)"/><path d="m0 0h14.173" transform="matrix(4.16667 0 0 4.16667 649.2 177.63)"/><path d="m-6.837 6.837h13.674" transform="matrix(0 -4.16667 -4.16667 0 677.7 207.16)"/><path d="m0 0h14.173" transform="matrix(4.16667 0 0 4.16667 708.2 177.63)"/><path d="m-6.837 6.837h13.674" transform="matrix(0 -4.16667 -4.16667 0 736.7 207.16)"/><path d="m0 0h14.173" transform="matrix(4.16667 0 0 4.16667 767.3 177.63)"/><path d="m-6.837 6.837h13.674" transform="matrix(0 -4.16667 -4.16667 0 795.8 207.16)"/><path d="m0 0h14.173" transform="matrix(4.16667 0 0 4.16667 826.3 177.63)"/><path d="m-6.837 6.837h13.674" transform="matrix(0 -4.16667 -4.16667 0 854.8 207.16)"/><path d="m0 0h14.423" transform="matrix(4.16667 0 0 4.16667 -1.5 236.69)"/><path d="m-6.837 6.837h13.674" transform="matrix(0 -4.16667 -4.16667 0 28.1 266.22)"/><path d="m0 0h14.173" transform="matrix(4.16667 0 0 4.16667 58.6 236.69)"/><path d="m-6.837 6.837h13.674" transform="matrix(0 -4.16667 -4.16667 0 87.1 266.22)"/><path d="m0 0h14.173" transform="matrix(4.16667 0 0 4.16667 117.7 236.69)"/><path d="m-6.837 6.837h13.674" transform="matrix(0 -4.16667 -4.16667 0 146.2 266.22)"/><path d="m0 0h14.173" transform="matrix(4.16667 0 0 4.16667 176.7 236.69)"/><path d="m-6.837 6.837h13.674" transform="matrix(0 -4.16667 -4.16667 0 205.2 266.22)"/><path d="m0 0h14.173" transform="matrix(4.16667 0 0 4.16667 235.8 236.69)"/><path d="m-6.837 6.837h13.674" transform="matrix(0 -4.16667 -4.16667 0 264.3 266.22)"/><path d="m0 0h14.173" transform="matrix(4.16667 0 0 4.16667 294.9 236.69)"/><path d="m-6.837 6.837h13.674" transform="matrix(0 -4.16667 -4.16667 0 323.3 266.22)"/><path d="m0 0h14.173" transform="matrix(4.16667 0 0 4.16667 353.9 236.69)"/><path d="m-6.837 6.837h13.674" transform="matrix(0 -4.16667 -4.16667 0 382.4 266.22)"/><path d="m0 0h14.173" transform="matrix(4.16667 0 0 4.16667 413 236.69)"/><path d="m-6.837 6.837h13.674" transform="matrix(0 -4.16667 -4.16667 0 441.4 266.22)"/><path d="m0 0h14.173" transform="matrix(4.16667 0 0 4.16667 472 236.69)"/><path d="m-6.837 6.837h13.674" transform="matrix(0 -4.16667 -4.16667 0 500.5 266.22)"/><path d="m0 0h14.173" transform="matrix(4.16667 0 0 4.16667 531.1 236.69)"/><path d="m-6.837 6.837h13.674" transform="matrix(0 -4.16667 -4.16667 0 559.6 266.22)"/><path d="m0 0h14.173" transform="matrix(4.16667 0 0 4.16667 590.1 236.69)"/><path d="m-6.837 6.837h13.674" transform="matrix(0 -4.16667 -4.16667 0 618.6 266.22)"/><path d="m0 0h14.173" transform="matrix(4.16667 0 0 4.16667 649.2 236.69)"/><path d="m-6.837 6.837h13.674" transform="matrix(0 -4.16667 -4.16667 0 677.7 266.22)"/><path d="m0 0h14.173" transform="matrix(4.16667 0 0 4.16667 708.2 236.69)"/><path d="m-6.837 6.837h13.674" transform="matrix(0 -4.16667 -4.16667 0 736.7 266.22)"/><path d="m0 0h14.173" transform="matrix(4.16667 0 0 4.16667 767.3 236.69)"/><path d="m-6.837 6.837h13.674" transform="matrix(0 -4.16667 -4.16667 0 795.8 266.22)"/><path d="m0 0h14.173" transform="matrix(4.16667 0 0 4.16667 826.3 236.69)"/><path d="m-6.837 6.837h13.674" transform="matrix(0 -4.16667 -4.16667 0 854.8 266.22)"/><path d="m0 0h14.423" transform="matrix(4.16667 0 0 4.16667 -1.5 295.74)"/><path d="m-6.837 6.837h13.674" transform="matrix(0 -4.16667 -4.16667 0 28.1 325.27)"/><path d="m0 0h14.173" transform="matrix(4.16667 0 0 4.16667 58.6 295.74)"/><path d="m-6.837 6.837h13.674" transform="matrix(0 -4.16667 -4.16667 0 87.1 325.27)"/><path d="m0 0h14.173" transform="matrix(4.16667 0 0 4.16667 117.7 295.74)"/><path d="m-6.837 6.837h13.674" transform="matrix(0 -4.16667 -4.16667 0 146.2 325.27)"/><path d="m0 0h14.173" transform="matrix(4.16667 0 0 4.16667 176.7 295.74)"/><path d="m-6.837 6.837h13.674" transform="matrix(0 -4.16667 -4.16667 0 205.2 325.27)"/><path d="m0 0h14.173" transform="matrix(4.16667 0 0 4.16667 235.8 295.74)"/><path d="m-6.837 6.837h13.674" transform="matrix(0 -4.16667 -4.16667 0 264.3 325.27)"/><path d="m0 0h14.173" transform="matrix(4.16667 0 0 4.16667 294.9 295.74)"/><path d="m-6.837 6.837h13.674" transform="matrix(0 -4.16667 -4.16667 0 323.3 325.27)"/><path d="m0 0h14.173" transform="matrix(4.16667 0 0 4.16667 353.9 295.74)"/><path d="m-6.837 6.837h13.674" transform="matrix(0 -4.16667 -4.16667 0 382.4 325.27)"/><path d="m0 0h14.173" transform="matrix(4.16667 0 0 4.16667 413 295.74)"/><path d="m-6.837 6.837h13.674" transform="matrix(0 -4.16667 -4.16667 0 441.4 325.27)"/><path d="m0 0h14.173" transform="matrix(4.16667 0 0 4.16667 472 295.74)"/><path d="m-6.837 6.837h13.674" transform="matrix(0 -4.16667 -4.16667 0 500.5 325.27)"/><path d="m0 0h14.173" transform="matrix(4.16667 0 0 4.16667 531.1 295.74)"/><path d="m-6.837 6.837h13.674" transform="matrix(0 -4.16667 -4.16667 0 559.6 325.27)"/><path d="m0 0h14.173" transform="matrix(4.16667 0 0 4.16667 590.1 295.74)"/><path d="m-6.837 6.837h13.674" transform="matrix(0 -4.16667 -4.16667 0 618.6 325.27)"/><path d="m0 0h14.173" transform="matrix(4.16667 0 0 4.16667 649.2 295.74)"/><path d="m-6.837 6.837h13.674" transform="matrix(0 -4.16667 -4.16667 0 677.7 325.27)"/><path d="m0 0h14.173" transform="matrix(4.16667 0 0 4.16667 708.2 295.74)"/><path d="m-6.837 6.837h13.674" transform="matrix(0 -4.16667 -4.16667 0 736.7 325.27)"/><path d="m0 0h14.173" transform="matrix(4.16667 0 0 4.16667 767.3 295.74)"/><path d="m-6.837 6.837h13.674" transform="matrix(0 -4.16667 -4.16667 0 795.8 325.27)"/><path d="m0 0h14.173" transform="matrix(4.16667 0 0 4.16667 826.3 295.74)"/><path d="m-6.837 6.837h13.674" transform="matrix(0 -4.16667 -4.16667 0 854.8 325.27)"/><path d="m0 0h14.423" transform="matrix(4.16667 0 0 4.16667 -1.5 354.8)"/><path d="m-6.837 6.837h13.674" transform="matrix(0 -4.16667 -4.16667 0 28.1 384.33)"/><path d="m0 0h14.173" transform="matrix(4.16667 0 0 4.16667 58.6 354.8)"/><path d="m-6.837 6.837h13.674" transform="matrix(0 -4.16667 -4.16667 0 87.1 384.33)"/><path d="m0 0h14.173" transform="matrix(4.16667 0 0 4.16667 117.7 354.8)"/><path d="m-6.837 6.837h13.674" transform="matrix(0 -4.16667 -4.16667 0 146.2 384.33)"/><path d="m0 0h14.173" transform="matrix(4.16667 0 0 4.16667 176.7 354.8)"/><path d="m-6.837 6.837h13.674" transform="matrix(0 -4.16667 -4.16667 0 205.2 384.33)"/><path d="m0 0h14.173" transform="matrix(4.16667 0 0 4.16667 235.8 354.8)"/><path d="m-6.837 6.837h13.674" transform="matrix(0 -4.16667 -4.16667 0 264.3 384.33)"/><path d="m0 0h14.173" transform="matrix(4.16667 0 0 4.16667 294.9 354.8)"/><path d="m-6.837 6.837h13.674" transform="matrix(0 -4.16667 -4.16667 0 323.3 384.33)"/><path d="m0 0h14.173" transform="matrix(4.16667 0 0 4.16667 353.9 354.8)"/><path d="m-6.837 6.837h13.674" transform="matrix(0 -4.16667 -4.16667 0 382.4 384.33)"/><path d="m0 0h14.173" transform="matrix(4.16667 0 0 4.16667 413 354.8)"/><path d="m-6.837 6.837h13.674" transform="matrix(0 -4.16667 -4.16667 0 441.4 384.33)"/><path d="m0 0h14.173" transform="matrix(4.16667 0 0 4.16667 472 354.8)"/><path d="m-6.837 6.837h13.674" transform="matrix(0 -4.16667 -4.16667 0 500.5 384.33)"/><path d="m0 0h14.173" transform="matrix(4.16667 0 0 4.16667 531.1 354.8)"/><path d="m-6.837 6.837h13.674" transform="matrix(0 -4.16667 -4.16667 0 559.6 384.33)"/><path d="m0 0h14.173" transform="matrix(4.16667 0 0 4.16667 590.1 354.8)"/><path d="m-6.837 6.837h13.674" transform="matrix(0 -4.16667 -4.16667 0 618.6 384.33)"/><path d="m0 0h14.173" transform="matrix(4.16667 0 0 4.16667 649.2 354.8)"/><path d="m-6.837 6.837h13.674" transform="matrix(0 -4.16667 -4.16667 0 677.7 384.33)"/><path d="m0 0h14.173" transform="matrix(4.16667 0 0 4.16667 708.2 354.8)"/><path d="m-6.837 6.837h13.674" transform="matrix(0 -4.16667 -4.16667 0 736.7 384.33)"/><path d="m0 0h14.173" transform="matrix(4.16667 0 0 4.16667 767.3 354.8)"/><path d="m-6.837 6.837h13.674" transform="matrix(0 -4.16667 -4.16667 0 795.8 384.33)"/><path d="m0 0h14.173" transform="matrix(4.16667 0 0 4.16667 826.3 354.8)"/><path d="m-6.837 6.837h13.674" transform="matrix(0 -4.16667 -4.16667 0 854.8 384.33)"/><path d="m0 0h14.423" transform="matrix(4.16667 0 0 4.16667 -1.5 413.86)"/><path d="m-6.837 6.837h13.674" transform="matrix(0 -4.16667 -4.16667 0 28.1 443.39)"/><path d="m0 0h14.173" transform="matrix(4.16667 0 0 4.16667 58.6 413.86)"/><path d="m-6.837 6.837h13.674" transform="matrix(0 -4.16667 -4.16667 0 87.1 443.39)"/><path d="m0 0h14.173" transform="matrix(4.16667 0 0 4.16667 117.7 413.86)"/><path d="m-6.837 6.837h13.674" transform="matrix(0 -4.16667 -4.16667 0 146.2 443.39)"/><path d="m0 0h14.173" transform="matrix(4.16667 0 0 4.16667 176.7 413.86)"/><path d="m-6.837 6.837h13.674" transform="matrix(0 -4.16667 -4.16667 0 205.2 443.39)"/><path d="m0 0h14.173" transform="matrix(4.16667 0 0 4.16667 235.8 413.86)"/><path d="m-6.837 6.837h13.674" transform="matrix(0 -4.16667 -4.16667 0 264.3 443.39)"/><path d="m0 0h14.173" transform="matrix(4.16667 0 0 4.16667 294.9 413.86)"/><path d="m-6.837 6.837h13.674" transform="matrix(0 -4.16667 -4.16667 0 323.3 443.39)"/><path d="m0 0h14.173" transform="matrix(4.16667 0 0 4.16667 353.9 413.86)"/><path d="m-6.837 6.837h13.674" transform="matrix(0 -4.16667 -4.16667 0 382.4 443.39)"/><path d="m0 0h14.173" transform="matrix(4.16667 0 0 4.16667 413 413.86)"/><path d="m-6.837 6.837h13.674" transform="matrix(0 -4.16667 -4.16667 0 441.4 443.39)"/><path d="m0 0h14.173" transform="matrix(4.16667 0 0 4.16667 472 413.86)"/><path d="m-6.837 6.837h13.674" transform="matrix(0 -4.16667 -4.16667 0 500.5 443.39)"/><path d="m0 0h14.173" transform="matrix(4.16667 0 0 4.16667 531.1 413.86)"/><path d="m-6.837 6.837h13.674" transform="matrix(0 -4.16667 -4.16667 0 559.6 443.39)"/><path d="m0 0h14.173" transform="matrix(4.16667 0 0 4.16667 590.1 413.86)"/><path d="m-6.837 6.837h13.674" transform="matrix(0 -4.16667 -4.16667 0 618.6 443.39)"/><path d="m0 0h14.173" transform="matrix(4.16667 0 0 4.16667 649.2 413.86)"/><path d="m-6.837 6.837h13.674" transform="matrix(0 -4.16667 -4.16667 0 677.7 443.39)"/><path d="m0 0h14.173" transform="matrix(4.16667 0 0 4.16667 708.2 413.86)"/><path d="m-6.837 6.837h13.674" transform="matrix(0 -4.16667 -4.16667 0 736.7 443.39)"/><path d="m0 0h14.173" transform="matrix(4.16667 0 0 4.16667 767.3 413.86)"/><path d="m-6.837 6.837h13.674" transform="matrix(0 -4.16667 -4.16667 0 795.8 443.39)"/><path d="m0 0h14.173" transform="matrix(4.16667 0 0 4.16667 826.3 413.86)"/><path d="m-6.837 6.837h13.674" transform="matrix(0 -4.16667 -4.16667 0 854.8 443.39)"/><path d="m0 0h14.423" transform="matrix(4.16667 0 0 4.16667 -1.5 472.91)"/><path d="m-6.837 6.837h13.674" transform="matrix(0 -4.16667 -4.16667 0 28.1 502.44)"/><path d="m0 0h14.173" transform="matrix(4.16667 0 0 4.16667 58.6 472.91)"/><path d="m-6.837 6.837h13.674" transform="matrix(0 -4.16667 -4.16667 0 87.1 502.44)"/><path d="m0 0h14.173" transform="matrix(4.16667 0 0 4.16667 117.7 472.91)"/><path d="m-6.837 6.837h13.674" transform="matrix(0 -4.16667 -4.16667 0 146.2 502.44)"/><path d="m0 0h14.173" transform="matrix(4.16667 0 0 4.16667 176.7 472.91)"/><path d="m-6.837 6.837h13.674" transform="matrix(0 -4.16667 -4.16667 0 205.2 502.44)"/><path d="m0 0h14.173" transform="matrix(4.16667 0 0 4.16667 235.8 472.91)"/><path d="m-6.837 6.837h13.674" transform="matrix(0 -4.16667 -4.16667 0 264.3 502.44)"/><path d="m0 0h14.173" transform="matrix(4.16667 0 0 4.16667 294.9 472.91)"/><path d="m-6.837 6.837h13.674" transform="matrix(0 -4.16667 -4.16667 0 323.3 502.44)"/><path d="m0 0h14.173" transform="matrix(4.16667 0 0 4.16667 353.9 472.91)"/><path d="m-6.837 6.837h13.674" transform="matrix(0 -4.16667 -4.16667 0 382.4 502.44)"/><path d="m0 0h14.173" transform="matrix(4.16667 0 0 4.16667 413 472.91)"/><path d="m-6.837 6.837h13.674" transform="matrix(0 -4.16667 -4.16667 0 441.4 502.44)"/><path d="m0 0h14.173" transform="matrix(4.16667 0 0 4.16667 472 472.91)"/><path d="m-6.837 6.837h13.674" transform="matrix(0 -4.16667 -4.16667 0 500.5 502.44)"/><path d="m0 0h14.173" transform="matrix(4.16667 0 0 4.16667 531.1 472.91)"/><path d="m-6.837 6.837h13.674" transform="matrix(0 -4.16667 -4.16667 0 559.6 502.44)"/><path d="m0 0h14.173" transform="matrix(4.16667 0 0 4.16667 590.1 472.91)"/><path d="m-6.837 6.837h13.674" transform="matrix(0 -4.16667 -4.16667 0 618.6 502.44)"/><path d="m0 0h14.173" transform="matrix(4.16667 0 0 4.16667 649.2 472.91)"/><path d="m-6.837 6.837h13.674" transform="matrix(0 -4.16667 -4.16667 0 677.7 502.44)"/><path d="m0 0h14.173" transform="matrix(4.16667 0 0 4.16667 708.2 472.91)"/><path d="m-6.837 6.837h13.674" transform="matrix(0 -4.16667 -4.16667 0 736.7 502.44)"/><path d="m0 0h14.173" transform="matrix(4.16667 0 0 4.16667 767.3 472.91)"/><path d="m-6.837 6.837h13.674" transform="matrix(0 -4.16667 -4.16667 0 795.8 502.44)"/><path d="m0 0h14.173" transform="matrix(4.16667 0 0 4.16667 826.3 472.91)"/><path d="m-6.837 6.837h13.674" transform="matrix(0 -4.16667 -4.16667 0 854.8 502.44)"/><path d="m0 0h14.423" transform="matrix(4.16667 0 0 4.16667 -1.5 531.96)"/><path d="m-6.837 6.837h13.674" transform="matrix(0 -4.16667 -4.16667 0 28.1 561.49)"/><path d="m0 0h14.173" transform="matrix(4.16667 0 0 4.16667 58.6 531.96)"/><path d="m-6.837 6.837h13.674" transform="matrix(0 -4.16667 -4.16667 0 87.1 561.49)"/><path d="m0 0h14.173" transform="matrix(4.16667 0 0 4.16667 117.7 531.96)"/><path d="m-6.837 6.837h13.674" transform="matrix(0 -4.16667 -4.16667 0 146.2 561.49)"/><path d="m0 0h14.173" transform="matrix(4.16667 0 0 4.16667 176.7 531.96)"/><path d="m-6.837 6.837h13.674" transform="matrix(0 -4.16667 -4.16667 0 205.2 561.49)"/><path d="m0 0h14.173" transform="matrix(4.16667 0 0 4.16667 235.8 531.96)"/><path d="m-6.837 6.837h13.674" transform="matrix(0 -4.16667 -4.16667 0 264.3 561.49)"/><path d="m0 0h14.173" transform="matrix(4.16667 0 0 4.16667 294.9 531.96)"/><path d="m-6.837 6.837h13.674" transform="matrix(0 -4.16667 -4.16667 0 323.3 561.49)"/><path d="m0 0h14.173" transform="matrix(4.16667 0 0 4.16667 353.9 531.96)"/><path d="m-6.837 6.837h13.674" transform="matrix(0 -4.16667 -4.16667 0 382.4 561.49)"/><path d="m0 0h14.173" transform="matrix(4.16667 0 0 4.16667 413 531.96)"/><path d="m-6.837 6.837h13.674" transform="matrix(0 -4.16667 -4.16667 0 441.4 561.49)"/><path d="m0 0h14.173" transform="matrix(4.16667 0 0 4.16667 472 531.96)"/><path d="m-6.837 6.837h13.674" transform="matrix(0 -4.16667 -4.16667 0 500.5 561.49)"/><path d="m0 0h14.173" transform="matrix(4.16667 0 0 4.16667 531.1 531.96)"/><path d="m-6.837 6.837h13.674" transform="matrix(0 -4.16667 -4.16667 0 559.6 561.49)"/><path d="m0 0h14.173" transform="matrix(4.16667 0 0 4.16667 590.1 531.96)"/><path d="m-6.837 6.837h13.674" transform="matrix(0 -4.16667 -4.16667 0 618.6 561.49)"/><path d="m0 0h14.173" transform="matrix(4.16667 0 0 4.16667 649.2 531.96)"/><path d="m-6.837 6.837h13.674" transform="matrix(0 -4.16667 -4.16667 0 677.7 561.49)"/><path d="m0 0h14.173" transform="matrix(4.16667 0 0 4.16667 708.2 531.96)"/><path d="m-6.837 6.837h13.674" transform="matrix(0 -4.16667 -4.16667 0 736.7 561.49)"/><path d="m0 0h14.173" transform="matrix(4.16667 0 0 4.16667 767.3 531.96)"/><path d="m-6.837 6.837h13.674" transform="matrix(0 -4.16667 -4.16667 0 795.8 561.49)"/><path d="m0 0h14.173" transform="matrix(4.16667 0 0 4.16667 826.3 531.96)"/><path d="m-6.837 6.837h13.674" transform="matrix(0 -4.16667 -4.16667 0 854.8 561.49)"/><path d="m0 0h14.423" transform="matrix(4.16667 0 0 4.16667 -1.5 591.02)"/><path d="m-6.837 6.837h13.674" transform="matrix(0 -4.16667 -4.16667 0 28.1 620.55)"/><path d="m0 0h14.173" transform="matrix(4.16667 0 0 4.16667 58.6 591.02)"/><path d="m-6.837 6.837h13.674" transform="matrix(0 -4.16667 -4.16667 0 87.1 620.55)"/><path d="m0 0h14.173" transform="matrix(4.16667 0 0 4.16667 117.7 591.02)"/><path d="m-6.837 6.837h13.674" transform="matrix(0 -4.16667 -4.16667 0 146.2 620.55)"/><path d="m0 0h14.173" transform="matrix(4.16667 0 0 4.16667 176.7 591.02)"/><path d="m-6.837 6.837h13.674" transform="matrix(0 -4.16667 -4.16667 0 205.2 620.55)"/><path d="m0 0h14.173" transform="matrix(4.16667 0 0 4.16667 235.8 591.02)"/><path d="m-6.837 6.837h13.674" transform="matrix(0 -4.16667 -4.16667 0 264.3 620.55)"/><path d="m0 0h14.173" transform="matrix(4.16667 0 0 4.16667 294.9 591.02)"/><path d="m-6.837 6.837h13.674" transform="matrix(0 -4.16667 -4.16667 0 323.3 620.55)"/><path d="m0 0h14.173" transform="matrix(4.16667 0 0 4.16667 353.9 591.02)"/><path d="m-6.837 6.837h13.674" transform="matrix(0 -4.16667 -4.16667 0 382.4 620.55)"/><path d="m0 0h14.173" transform="matrix(4.16667 0 0 4.16667 413 591.02)"/><path d="m-6.837 6.837h13.674" transform="matrix(0 -4.16667 -4.16667 0 441.4 620.55)"/><path d="m0 0h14.173" transform="matrix(4.16667 0 0 4.16667 472 591.02)"/><path d="m-6.837 6.837h13.674" transform="matrix(0 -4.16667 -4.16667 0 500.5 620.55)"/><path d="m0 0h14.173" transform="matrix(4.16667 0 0 4.16667 531.1 591.02)"/><path d="m-6.837 6.837h13.674" transform="matrix(0 -4.16667 -4.16667 0 559.6 620.55)"/><path d="m0 0h14.173" transform="matrix(4.16667 0 0 4.16667 590.1 591.02)"/><path d="m-6.837 6.837h13.674" transform="matrix(0 -4.16667 -4.16667 0 618.6 620.55)"/><path d="m0 0h14.173" transform="matrix(4.16667 0 0 4.16667 649.2 591.02)"/><path d="m-6.837 6.837h13.674" transform="matrix(0 -4.16667 -4.16667 0 677.7 620.55)"/><path d="m0 0h14.173" transform="matrix(4.16667 0 0 4.16667 708.2 591.02)"/><path d="m-6.837 6.837h13.674" transform="matrix(0 -4.16667 -4.16667 0 736.7 620.55)"/><path d="m0 0h14.173" transform="matrix(4.16667 0 0 4.16667 767.3 591.02)"/><path d="m-6.837 6.837h13.674" transform="matrix(0 -4.16667 -4.16667 0 795.8 620.55)"/><path d="m0 0h14.173" transform="matrix(4.16667 0 0 4.16667 826.3 591.02)"/><path d="m-6.837 6.837h13.674" transform="matrix(0 -4.16667 -4.16667 0 854.8 620.55)"/><path d="m0 0h14.423" transform="matrix(4.16667 0 0 4.16667 -1.5 650.08)"/><path d="m-6.837 6.837h13.674" transform="matrix(0 -4.16667 -4.16667 0 28.1 679.6)"/><path d="m0 0h14.173" transform="matrix(4.16667 0 0 4.16667 58.6 650.08)"/><path d="m-6.837 6.837h13.674" transform="matrix(0 -4.16667 -4.16667 0 87.1 679.6)"/><path d="m0 0h14.173" transform="matrix(4.16667 0 0 4.16667 117.7 650.08)"/><path d="m-6.837 6.837h13.674" transform="matrix(0 -4.16667 -4.16667 0 146.2 679.6)"/><path d="m0 0h14.173" transform="matrix(4.16667 0 0 4.16667 176.7 650.08)"/><path d="m-6.837 6.837h13.674" transform="matrix(0 -4.16667 -4.16667 0 205.2 679.6)"/><path d="m0 0h14.173" transform="matrix(4.16667 0 0 4.16667 235.8 650.08)"/><path d="m-6.837 6.837h13.674" transform="matrix(0 -4.16667 -4.16667 0 264.3 679.6)"/><path d="m0 0h14.173" transform="matrix(4.16667 0 0 4.16667 294.9 650.08)"/><path d="m-6.837 6.837h13.674" transform="matrix(0 -4.16667 -4.16667 0 323.3 679.6)"/><path d="m0 0h14.173" transform="matrix(4.16667 0 0 4.16667 353.9 650.08)"/><path d="m-6.837 6.837h13.674" transform="matrix(0 -4.16667 -4.16667 0 382.4 679.6)"/><path d="m0 0h14.173" transform="matrix(4.16667 0 0 4.16667 413 650.08)"/><path d="m-6.837 6.837h13.674" transform="matrix(0 -4.16667 -4.16667 0 441.4 679.6)"/><path d="m0 0h14.173" transform="matrix(4.16667 0 0 4.16667 472 650.08)"/><path d="m-6.837 6.837h13.674" transform="matrix(0 -4.16667 -4.16667 0 500.5 679.6)"/><path d="m0 0h14.173" transform="matrix(4.16667 0 0 4.16667 531.1 650.08)"/><path d="m-6.837 6.837h13.674" transform="matrix(0 -4.16667 -4.16667 0 559.6 679.6)"/><path d="m0 0h14.173" transform="matrix(4.16667 0 0 4.16667 590.1 650.08)"/><path d="m-6.837 6.837h13.674" transform="matrix(0 -4.16667 -4.16667 0 618.6 679.6)"/><path d="m0 0h14.173" transform="matrix(4.16667 0 0 4.16667 649.2 650.08)"/><path d="m-6.837 6.837h13.674" transform="matrix(0 -4.16667 -4.16667 0 677.7 679.6)"/><path d="m0 0h14.173" transform="matrix(4.16667 0 0 4.16667 708.2 650.08)"/><path d="m-6.837 6.837h13.674" transform="matrix(0 -4.16667 -4.16667 0 736.7 679.6)"/><path d="m0 0h14.173" transform="matrix(4.16667 0 0 4.16667 767.3 650.08)"/><path d="m-6.837 6.837h13.674" transform="matrix(0 -4.16667 -4.16667 0 795.8 679.6)"/><path d="m0 0h14.173" transform="matrix(4.16667 0 0 4.16667 826.3 650.08)"/><path d="m-6.837 6.837h13.674" transform="matrix(0 -4.16667 -4.16667 0 854.8 679.6)"/><path d="m0 0h14.423" transform="matrix(4.16667 0 0 4.16667 -1.5 709.13)"/><path d="m-6.837 6.837h13.674" transform="matrix(0 -4.16667 -4.16667 0 28.1 738.66)"/><path d="m0 0h14.173" transform="matrix(4.16667 0 0 4.16667 58.6 709.13)"/><path d="m-6.837 6.837h13.674" transform="matrix(0 -4.16667 -4.16667 0 87.1 738.66)"/><path d="m0 0h14.173" transform="matrix(4.16667 0 0 4.16667 117.7 709.13)"/><path d="m-6.837 6.837h13.674" transform="matrix(0 -4.16667 -4.16667 0 146.2 738.66)"/><path d="m0 0h14.173" transform="matrix(4.16667 0 0 4.16667 176.7 709.13)"/><path d="m-6.837 6.837h13.674" transform="matrix(0 -4.16667 -4.16667 0 205.2 738.66)"/><path d="m0 0h14.173" transform="matrix(4.16667 0 0 4.16667 235.8 709.13)"/><path d="m-6.837 6.837h13.674" transform="matrix(0 -4.16667 -4.16667 0 264.3 738.66)"/><path d="m0 0h14.173" transform="matrix(4.16667 0 0 4.16667 294.9 709.13)"/><path d="m-6.837 6.837h13.674" transform="matrix(0 -4.16667 -4.16667 0 323.3 738.66)"/><path d="m0 0h14.173" transform="matrix(4.16667 0 0 4.16667 353.9 709.13)"/><path d="m-6.837 6.837h13.674" transform="matrix(0 -4.16667 -4.16667 0 382.4 738.66)"/><path d="m0 0h14.173" transform="matrix(4.16667 0 0 4.16667 413 709.13)"/><path d="m-6.837 6.837h13.674" transform="matrix(0 -4.16667 -4.16667 0 441.4 738.66)"/><path d="m0 0h14.173" transform="matrix(4.16667 0 0 4.16667 472 709.13)"/><path d="m-6.837 6.837h13.674" transform="matrix(0 -4.16667 -4.16667 0 500.5 738.66)"/><path d="m0 0h14.173" transform="matrix(4.16667 0 0 4.16667 531.1 709.13)"/><path d="m-6.837 6.837h13.674" transform="matrix(0 -4.16667 -4.16667 0 559.6 738.66)"/><path d="m0 0h14.173" transform="matrix(4.16667 0 0 4.16667 590.1 709.13)"/><path d="m-6.837 6.837h13.674" transform="matrix(0 -4.16667 -4.16667 0 618.6 738.66)"/><path d="m0 0h14.173" transform="matrix(4.16667 0 0 4.16667 649.2 709.13)"/><path d="m-6.837 6.837h13.674" transform="matrix(0 -4.16667 -4.16667 0 677.7 738.66)"/><path d="m0 0h14.173" transform="matrix(4.16667 0 0 4.16667 708.2 709.13)"/><path d="m-6.837 6.837h13.674" transform="matrix(0 -4.16667 -4.16667 0 736.7 738.66)"/><path d="m0 0h14.173" transform="matrix(4.16667 0 0 4.16667 767.3 709.13)"/><path d="m-6.837 6.837h13.674" transform="matrix(0 -4.16667 -4.16667 0 795.8 738.66)"/><path d="m0 0h14.173" transform="matrix(4.16667 0 0 4.16667 826.3 709.13)"/><path d="m-6.837 6.837h13.674" transform="matrix(0 -4.16667 -4.16667 0 854.8 738.66)"/><path d="m0 0h14.423" transform="matrix(4.16667 0 0 4.16667 -1.5 768.19)"/><path d="m0 0h14.173" transform="matrix(4.16667 0 0 4.16667 58.6 768.19)"/><path d="m0 0h14.173" transform="matrix(4.16667 0 0 4.16667 117.7 768.19)"/><path d="m0 0h14.173" transform="matrix(4.16667 0 0 4.16667 176.7 768.19)"/><path d="m0 0h14.173" transform="matrix(4.16667 0 0 4.16667 235.8 768.19)"/><path d="m0 0h14.173" transform="matrix(4.16667 0 0 4.16667 294.9 768.19)"/><path d="m0 0h14.173" transform="matrix(4.16667 0 0 4.16667 353.9 768.19)"/><path d="m0 0h14.173" transform="matrix(4.16667 0 0 4.16667 413 768.19)"/><path d="m0 0h14.173" transform="matrix(4.16667 0 0 4.16667 472 768.19)"/><path d="m0 0h14.173" transform="matrix(4.16667 0 0 4.16667 531.1 768.19)"/><path d="m0 0h14.173" transform="matrix(4.16667 0 0 4.16667 590.1 768.19)"/><path d="m0 0h14.173" transform="matrix(4.16667 0 0 4.16667 649.2 768.19)"/><path d="m0 0h14.173" transform="matrix(4.16667 0 0 4.16667 708.2 768.19)"/><path d="m0 0h14.173" transform="matrix(4.16667 0 0 4.16667 767.3 768.19)"/><path d="m0 0h14.173" transform="matrix(4.16667 0 0 4.16667 826.3 768.19)"/><path d="m0 0h14.423" transform="matrix(4.16667 0 0 4.16667 885.4 .47)"/><path d="m-6.837 6.837h13.674" transform="matrix(0 -4.16667 -4.16667 0 913.9 30)"/><path d="m-6.837 6.837h13.674" transform="matrix(0 -4.16667 -4.16667 0 972.9 30)"/><path d="m0 0h14.423" transform="matrix(4.16667 0 0 4.16667 885.4 59.52)"/><path d="m-6.837 6.837h13.674" transform="matrix(0 -4.16667 -4.16667 0 913.9 89.05)"/><path d="m-6.837 6.837h13.674" transform="matrix(0 -4.16667 -4.16667 0 972.9 89.05)"/><path d="m0 0h14.423" transform="matrix(4.16667 0 0 4.16667 885.4 118.58)"/><path d="m-6.837 6.837h13.674" transform="matrix(0 -4.16667 -4.16667 0 913.9 148.11)"/><path d="m-6.837 6.837h13.674" transform="matrix(0 -4.16667 -4.16667 0 972.9 148.11)"/><path d="m0 0h14.423" transform="matrix(4.16667 0 0 4.16667 885.4 177.63)"/><path d="m-6.837 6.837h13.674" transform="matrix(0 -4.16667 -4.16667 0 913.9 207.16)"/><path d="m-6.837 6.837h13.674" transform="matrix(0 -4.16667 -4.16667 0 972.9 207.16)"/><path d="m0 0h14.423" transform="matrix(4.16667 0 0 4.16667 885.4 236.69)"/><path d="m-6.837 6.837h13.674" transform="matrix(0 -4.16667 -4.16667 0 913.9 266.22)"/><path d="m-6.837 6.837h13.674" transform="matrix(0 -4.16667 -4.16667 0 972.9 266.22)"/><path d="m0 0h14.423" transform="matrix(4.16667 0 0 4.16667 885.4 295.74)"/><path d="m-6.837 6.837h13.674" transform="matrix(0 -4.16667 -4.16667 0 913.9 325.27)"/><path d="m-6.837 6.837h13.674" transform="matrix(0 -4.16667 -4.16667 0 972.9 325.27)"/><path d="m0 0h14.423" transform="matrix(4.16667 0 0 4.16667 885.4 354.8)"/><path d="m-6.837 6.837h13.674" transform="matrix(0 -4.16667 -4.16667 0 913.9 384.33)"/><path d="m-6.837 6.837h13.674" transform="matrix(0 -4.16667 -4.16667 0 972.9 384.33)"/><path d="m0 0h14.423" transform="matrix(4.16667 0 0 4.16667 885.4 413.86)"/><path d="m-6.837 6.837h13.674" transform="matrix(0 -4.16667 -4.16667 0 913.9 443.39)"/><path d="m-6.837 6.837h13.674" transform="matrix(0 -4.16667 -4.16667 0 972.9 443.39)"/><path d="m0 0h14.423" transform="matrix(4.16667 0 0 4.16667 885.4 472.91)"/><path d="m-6.837 6.837h13.674" transform="matrix(0 -4.16667 -4.16667 0 913.9 502.44)"/><path d="m-6.837 6.837h13.674" transform="matrix(0 -4.16667 -4.16667 0 972.9 502.44)"/><path d="m0 0h14.423" transform="matrix(4.16667 0 0 4.16667 885.4 531.96)"/><path d="m-6.837 6.837h13.674" transform="matrix(0 -4.16667 -4.16667 0 913.9 561.49)"/><path d="m-6.837 6.837h13.674" transform="matrix(0 -4.16667 -4.16667 0 972.9 561.49)"/><path d="m0 0h14.423" transform="matrix(4.16667 0 0 4.16667 885.4 591.02)"/><path d="m-6.837 6.837h13.674" transform="matrix(0 -4.16667 -4.16667 0 913.9 620.55)"/><path d="m-6.837 6.837h13.674" transform="matrix(0 -4.16667 -4.16667 0 972.9 620.55)"/><path d="m0 0h14.423" transform="matrix(4.16667 0 0 4.16667 885.4 650.08)"/><path d="m-6.837 6.837h13.674" transform="matrix(0 -4.16667 -4.16667 0 913.9 679.6)"/><path d="m-6.837 6.837h13.674" transform="matrix(0 -4.16667 -4.16667 0 972.9 679.6)"/><path d="m0 0h14.423" transform="matrix(4.16667 0 0 4.16667 885.4 709.13)"/><path d="m-6.837 6.837h13.674" transform="matrix(0 -4.16667 -4.16667 0 913.9 738.66)"/><path d="m-6.837 6.837h13.674" transform="matrix(0 -4.16667 -4.16667 0 972.9 738.66)"/><path d="m0 0h14.423" transform="matrix(4.16667 0 0 4.16667 885.4 768.19)"/></g></svg>