<?xml version="1.0" encoding="UTF-8" standalone="no"?><!DOCTYPE svg PUBLIC "-//W3C//DTD SVG 1.1//EN" "http://www.w3.org/Graphics/SVG/1.1/DTD/svg11.dtd"><svg width="100%" height="100%" viewBox="0 0 1479 494" version="1.1" xmlns="http://www.w3.org/2000/svg" xmlns:xlink="http://www.w3.org/1999/xlink" xml:space="preserve" xmlns:serif="http://www.serif.com/" style="fill-rule:evenodd;clip-rule:evenodd;"><g><g><path d="M625.759,287.351l0,-6.233l-16.256,0l0,-0.122l3.422,-2.995c6.967,-6.417 11.978,-12.039 11.978,-19.005c0,-6.478 -4.278,-12.039 -13.078,-12.039c-5.011,0 -9.35,1.772 -12.222,4.094l2.2,5.317c2.017,-1.528 4.95,-3.3 8.495,-3.3c5.194,0 7.089,3.116 7.089,6.661c-0.062,5.255 -4.462,10.022 -13.812,18.7l-4.705,4.339l0,4.583l26.889,0Z" style="fill:#231f20;fill-rule:nonzero;"/><g><path d="M659.676,287.351l0,-6.233l-16.256,0l0,-0.122l3.422,-2.995c6.967,-6.417 11.978,-12.039 11.978,-19.005c0,-6.478 -4.278,-12.039 -13.078,-12.039c-5.011,0 -9.35,1.772 -12.222,4.094l2.2,5.317c2.017,-1.528 4.95,-3.3 8.494,-3.3c5.195,0 7.089,3.116 7.089,6.661c-0.061,5.255 -4.461,10.022 -13.811,18.7l-4.705,4.339l0,4.583l26.889,0Z" style="fill:#231f20;fill-rule:nonzero;"/><path d="M679.537,246.957c-9.289,0 -14.545,8.25 -14.545,20.655c0.061,12.1 4.95,20.411 14.056,20.411c9.533,0 14.544,-8.005 14.544,-20.839c0,-11.672 -4.461,-20.227 -14.055,-20.227Zm-0.184,5.744c4.523,0 6.661,5.439 6.661,14.667c0,9.533 -2.261,14.911 -6.722,14.911c-4.094,0 -6.722,-5.011 -6.722,-14.728c0,-9.9 2.811,-14.85 6.783,-14.85Z" style="fill:#231f20;fill-rule:nonzero;"/><path d="M710.764,258.629l12.345,12.65l-12.345,12.589l3.423,3.483l12.344,-12.589l12.345,12.589l3.422,-3.483l-12.345,-12.589l12.345,-12.65l-3.422,-3.422l-12.345,12.65l-12.405,-12.65l-3.362,3.422Z" style="fill:#231f20;fill-rule:nonzero;"/></g></g><g><path d="M777.403,252.129c1.945,1.278 5.723,2.5 10.112,2.5c8.944,0 14.055,-4.833 14.055,-10.945c-0.055,-4.888 -3.555,-8.166 -7.944,-9l0,-0.111c4.444,-1.555 6.666,-4.666 6.666,-8.444c0,-4.722 -3.777,-8.834 -11.277,-8.834c-4.278,0 -8.334,1.389 -10.389,2.778l1.555,4.945c1.5,-1 4.445,-2.278 7.389,-2.278c4,0 5.778,2.055 5.778,4.555c0,3.556 -4,5.001 -7.111,5.001l-3.111,0l0,5l3.111,0c4.166,0 8.222,1.833 8.222,6.111c0,2.833 -2.056,5.777 -7.278,5.777c-3.444,0 -6.833,-1.388 -8.222,-2.222l-1.556,5.167Z" style="fill:#71bf44;fill-rule:nonzero;"/><path d="M799.07,315.129l0,-9.167l4.667,0l0,-5.166l-4.667,0l0,-21.778l-8.055,0l-14.778,22.5l0,4.444l16.389,0l0,9.167l6.444,0Zm-16.278,-14.333l0,-0.112l6.667,-9.888c1.111,-2 2.056,-3.834 3.167,-6.112l0.222,0c-0.111,2.167 -0.222,4.223 -0.222,6.278l0,9.834l-9.834,0Z" style="fill:#f68b1e;fill-rule:nonzero;"/></g><path d="M868.42,267.184l0,-4.766l-31.533,0l0,4.766l31.533,0Zm0,12.345l0,-4.767l-31.533,0l0,4.767l31.533,0Z" style="fill:#231f20;fill-rule:nonzero;"/><g><g><path d="M926.781,254.018l0,-5.667l-14.778,0l0,-0.111l3.112,-2.722c6.333,-5.834 10.889,-10.945 10.889,-17.278c0,-5.889 -3.889,-10.945 -11.889,-10.945c-4.556,0 -8.5,1.612 -11.112,3.723l2,4.833c1.834,-1.389 4.5,-3 7.723,-3c4.722,0 6.444,2.833 6.444,6.056c-0.055,4.777 -4.055,9.111 -12.555,17l-4.278,3.944l0,4.167l24.444,0Z" style="fill:#231f20;fill-rule:nonzero;"/><g><path d="M957.615,254.018l0,-5.667l-14.778,0l0,-0.111l3.111,-2.722c6.333,-5.834 10.889,-10.945 10.889,-17.278c0,-5.889 -3.889,-10.945 -11.889,-10.945c-4.556,0 -8.5,1.612 -11.111,3.723l2,4.833c1.833,-1.389 4.5,-3 7.722,-3c4.722,0 6.445,2.833 6.445,6.056c-0.056,4.777 -4.056,9.111 -12.556,17l-4.278,3.944l0,4.167l24.445,0Z" style="fill:#231f20;fill-rule:nonzero;"/><path d="M975.67,217.295c-8.444,0 -13.222,7.5 -13.222,18.778c0.056,11 4.5,18.556 12.778,18.556c8.666,0 13.222,-7.278 13.222,-18.945c0,-10.611 -4.056,-18.389 -12.778,-18.389Zm-0.166,5.223c4.111,0 6.055,4.944 6.055,13.333c0,8.667 -2.055,13.556 -6.111,13.556c-3.722,0 -6.111,-4.556 -6.111,-13.389c0,-9 2.555,-13.5 6.167,-13.5Z" style="fill:#231f20;fill-rule:nonzero;"/></g></g><path d="M943.892,315.129l6.612,0l0,-36.111l-5.667,0l-8.833,4.333l1.166,5.167l6.611,-3.334l0.111,0l0,29.945Z" style="fill:#231f20;fill-rule:nonzero;"/></g><path d="M1023.98,258.629l12.345,12.65l-12.345,12.589l3.423,3.483l12.344,-12.589l12.344,12.589l3.423,-3.483l-12.345,-12.589l12.345,-12.65l-3.423,-3.422l-12.344,12.65l-12.406,-12.65l-3.361,3.422Z" style="fill:#231f20;fill-rule:nonzero;"/><g><path d="M1088.6,252.129c1.944,1.278 5.722,2.5 10.111,2.5c8.944,0 14.055,-4.833 14.055,-10.945c-0.055,-4.888 -3.555,-8.166 -7.944,-9l0,-0.111c4.444,-1.555 6.667,-4.666 6.667,-8.444c0,-4.722 -3.778,-8.834 -11.278,-8.834c-4.278,0 -8.334,1.389 -10.389,2.778l1.555,4.945c1.5,-1 4.445,-2.278 7.389,-2.278c4,0 5.778,2.055 5.778,4.555c0,3.556 -4,5.001 -7.111,5.001l-3.111,0l0,5l3.111,0c4.167,0 8.222,1.833 8.222,6.111c0,2.833 -2.055,5.777 -7.278,5.777c-3.444,0 -6.833,-1.388 -8.222,-2.222l-1.555,5.167Z" style="fill:#71bf44;fill-rule:nonzero;"/><path d="M1110.27,315.129l0,-9.167l4.667,0l0,-5.166l-4.667,0l0,-21.778l-8.055,0l-14.778,22.5l0,4.444l16.389,0l0,9.167l6.444,0Zm-16.277,-14.333l0,-0.112l6.666,-9.888c1.111,-2 2.056,-3.834 3.167,-6.112l0.222,0c-0.111,2.167 -0.222,4.223 -0.222,6.278l0,9.834l-9.833,0Z" style="fill:#f68b1e;fill-rule:nonzero;"/></g><path d="M1179.62,267.184l0,-4.766l-31.534,0l0,4.766l31.534,0Zm0,12.345l0,-4.767l-31.534,0l0,4.767l31.534,0Z" style="fill:#231f20;fill-rule:nonzero;"/><g><g><path d="M1235.48,217.407c-0.834,-0.056 -1.945,-0.056 -3.445,0.166c-5.167,0.389 -9.555,2.167 -12.833,5.334c-3.778,3.555 -6.278,9.166 -6.278,16.111c0,8.944 4.833,15.611 13.611,15.611c7.667,0 12.722,-6 12.722,-12.889c0,-7.333 -4.833,-11.778 -11.055,-11.778c-3.611,0 -6.334,1.445 -8.111,3.5l-0.167,0c0.889,-5 4.5,-9.611 12.111,-10.5c1.333,-0.167 2.445,-0.222 3.445,-0.167l0,-5.388Zm-8.945,32.111c-4.5,0 -6.722,-3.889 -6.833,-8.667c0,-0.944 0.166,-1.611 0.444,-2.167c1.056,-2.166 3.334,-3.722 5.889,-3.722c4,0 6.278,2.945 6.278,7.167c0,4.333 -2.278,7.389 -5.778,7.389Z" style="fill:#231f20;fill-rule:nonzero;"/><g><path d="M1266.32,217.407c-0.833,-0.056 -1.945,-0.056 -3.445,0.166c-5.166,0.389 -9.555,2.167 -12.833,5.334c-3.778,3.555 -6.278,9.166 -6.278,16.111c0,8.944 4.834,15.611 13.611,15.611c7.667,0 12.723,-6 12.723,-12.889c0,-7.333 -4.834,-11.778 -11.056,-11.778c-3.611,0 -6.333,1.445 -8.111,3.5l-0.167,0c0.889,-5 4.5,-9.611 12.111,-10.5c1.334,-0.167 2.445,-0.222 3.445,-0.167l0,-5.388Zm-8.945,32.111c-4.5,0 -6.722,-3.889 -6.833,-8.667c0,-0.944 0.167,-1.611 0.445,-2.167c1.055,-2.166 3.333,-3.722 5.888,-3.722c4,0 6.278,2.945 6.278,7.167c0,4.333 -2.278,7.389 -5.778,7.389Z" style="fill:#231f20;fill-rule:nonzero;"/><path d="M1286.87,217.295c-8.444,0 -13.222,7.5 -13.222,18.778c0.056,11 4.5,18.556 12.778,18.556c8.667,0 13.222,-7.278 13.222,-18.945c0,-10.611 -4.055,-18.389 -12.778,-18.389Zm-0.166,5.223c4.111,0 6.055,4.944 6.055,13.333c0,8.667 -2.055,13.556 -6.111,13.556c-3.722,0 -6.111,-4.556 -6.111,-13.389c0,-9 2.556,-13.5 6.167,-13.5Z" style="fill:#231f20;fill-rule:nonzero;"/></g></g><path d="M1265.87,315.129l0,-9.167l4.667,0l0,-5.166l-4.667,0l0,-21.778l-8.055,0l-14.778,22.5l0,4.444l16.389,0l0,9.167l6.444,0Zm-16.277,-14.333l0,-0.112l6.666,-9.888c1.111,-2 2.056,-3.834 3.167,-6.112l0.222,0c-0.111,2.167 -0.222,4.223 -0.222,6.278l0,9.834l-9.833,0Z" style="fill:#f68b1e;fill-rule:nonzero;"/></g><g><path d="M1366.71,267.184l0,-4.766l-31.533,0l0,4.766l31.533,0Zm0,12.345l0,-4.767l-31.533,0l0,4.767l31.533,0Z" style="fill:#231f20;fill-rule:nonzero;"/><g><path d="M1397.78,287.351l7.272,0l0,-39.722l-6.233,0l-9.717,4.767l1.284,5.683l7.272,-3.667l0.122,0l0,32.939Z" style="fill:#008fd4;fill-rule:nonzero;"/><g><path d="M1443.65,247.079c-0.916,-0.061 -2.139,-0.061 -3.789,0.183c-5.683,0.428 -10.511,2.384 -14.116,5.867c-4.156,3.911 -6.906,10.083 -6.906,17.722c0,9.839 5.317,17.172 14.972,17.172c8.434,0 13.995,-6.6 13.995,-14.177c0,-8.067 -5.317,-12.956 -12.161,-12.956c-3.972,0 -6.967,1.589 -8.922,3.85l-0.184,0c0.978,-5.5 4.95,-10.572 13.322,-11.55c1.467,-0.183 2.689,-0.244 3.789,-0.183l0,-5.928Zm-9.839,35.322c-4.95,0 -7.394,-4.278 -7.516,-9.533c0,-1.039 0.183,-1.772 0.489,-2.384c1.161,-2.383 3.666,-4.094 6.477,-4.094c4.4,0 6.906,3.239 6.906,7.883c0,4.767 -2.506,8.128 -6.356,8.128Z" style="fill:#008fd4;fill-rule:nonzero;"/><path d="M1477.57,247.629l-20.594,0l-2.567,20.044c1.528,-0.183 3.178,-0.366 5.439,-0.366c7.883,0 11.244,2.994 11.244,7.577c0,4.706 -4.216,7.212 -8.616,7.212c-3.606,0 -7.028,-1.162 -8.739,-2.078l-1.528,5.683c2.078,1.161 5.928,2.322 10.572,2.322c9.717,0 16.011,-6.172 16.011,-13.75c0,-4.827 -2.2,-8.189 -5.194,-10.083c-2.628,-1.772 -6.172,-2.567 -9.656,-2.567c-1.161,0 -1.955,0.061 -2.811,0.184l1.161,-7.945l15.278,0l0,-6.233Z" style="fill:#008fd4;fill-rule:nonzero;"/></g></g></g><g><path d="M761.726,268.834l57.744,0" style="fill:none;fill-rule:nonzero;stroke:#231f20;stroke-width:3.89px;"/></g><g><path d="M888.453,268.834l115.484,0" style="fill:none;fill-rule:nonzero;stroke:#231f20;stroke-width:3.89px;"/></g><g><path d="M1072.93,268.834l57.744,0" style="fill:none;fill-rule:nonzero;stroke:#231f20;stroke-width:3.89px;"/></g><g><path d="M1199.65,268.834l115.483,0" style="fill:none;fill-rule:nonzero;stroke:#231f20;stroke-width:3.89px;"/></g><g><path d="M498.564,234.473c0,129.461 -111.6,234.412 -249.267,234.412c-137.672,0 -249.266,-104.951 -249.266,-234.412c0,-129.461 111.594,-234.411 249.266,-234.411c137.667,0 249.267,104.95 249.267,234.411" style="fill:#ffcd5d;fill-rule:nonzero;"/></g><g><path d="M403.048,170.707c-2.895,0.755 -5.978,-0.462 -8.034,-4.039c-1.566,-2.723 -2.622,-5.834 -3.344,-8.9c-0.545,-2.295 -0.078,-4.795 2.25,-6.273c2.055,-1.311 6.328,-0.816 8.539,0.906c3.35,2.606 4.172,6.344 4.527,9.706c0.084,4.905 -1.411,7.944 -3.938,8.6m-41.606,100.189c-8.317,-4 -13.606,-10.506 -14.156,-20.023c-0.172,-3 -1.05,-4.233 -4.161,-4.172c-2.333,0.05 -4.711,-0.467 -7.016,-0.994c-0.895,-0.211 -1.628,-1.139 -2.428,-1.745c0.772,-0.6 1.472,-1.555 2.333,-1.733c1.667,-0.333 3.433,-0.4 5.145,-0.278c3.838,0.272 6.683,-1.383 8.855,-4.339c2.267,-3.094 4.4,-6.278 7.128,-10.183c0.605,1.994 1.55,3.417 1.261,4.511c-0.711,2.656 -1.456,5.611 -3.144,7.644c-4.595,5.545 -3.534,11.3 -1.017,16.889c2.955,6.561 8.55,10.489 15.683,10.795c2.8,0.116 5.711,-2.395 8.867,-3.85c-3.144,8.983 -8.839,11.583 -17.35,7.478m7.844,-154.039c0.845,-0.528 2.028,-0.756 3.039,-0.717c0.711,0.022 1.717,0.578 2.017,1.178c0.294,0.605 0.172,1.822 -0.272,2.322c-0.989,1.094 -2.3,1.889 -3.461,2.833c-5.134,4.15 -8.128,9.272 -7.595,16.128c0.145,1.906 0.017,3.867 -0.266,5.756c-0.089,0.644 -1.006,1.566 -1.606,1.622c-0.578,0.044 -1.644,-0.778 -1.794,-1.384c-0.739,-3.105 -1.251,-6.266 -1.712,-8.694c0.778,-8.894 4.917,-14.806 11.65,-19.044m-92.922,123.261c-0.8,-0.095 -1.822,0.089 -2.361,-0.339c-1.683,-1.328 -3.15,-2.922 -4.767,-4.345c-1.605,-1.422 -3.194,-2.9 -4.955,-4.111c-5.434,-3.711 -7.284,-3.455 -12.156,1.323c-0.294,0.277 -0.733,0.411 -1.589,0.877c-0.427,-8.35 4.334,-12.139 11.667,-9.183c3.072,1.244 5.811,3.644 8.272,5.978c2.306,2.183 4.111,4.933 5.984,7.539c0.344,0.483 -0.045,1.494 -0.095,2.261m167.206,-71.867c-3.772,-5.078 -10.367,-8.606 -16.856,-1.044c-1.911,2.222 -3.1,5.111 -4.4,7.8c-0.65,1.327 -0.722,2.927 -1.239,4.333c-0.172,0.483 -0.905,1.022 -1.411,1.044c-0.539,0.023 -1.383,-0.411 -1.589,-0.866c-0.416,-0.956 -0.877,-2.156 -0.644,-3.084c0.767,-3.089 1.383,-6.361 2.917,-9.066c1.455,-2.573 1.683,-4.689 0.488,-7.228c-3.483,-7.417 -6.322,-15.2 -10.461,-22.222c-11.627,-19.767 -27.005,-36.35 -45.027,-50.495c-5.395,-4.239 -5.395,-4.194 -10.728,0.533c-1.45,1.284 -3.073,2.378 -4.55,3.634c-2.467,2.1 -5.078,4.078 -7.261,6.439c-6.35,6.861 -8.617,14.816 -5.617,23.911c1.011,3.072 2.2,6.089 3.283,9.133c3.072,8.65 1.561,16.584 -3.833,23.861c-1.539,2.073 -3.111,4.173 -4.95,5.973c-3.389,3.322 -6.811,6.655 -10.539,9.572c-6.344,4.955 -7.544,11.178 -5.406,18.5c1.217,4.139 2.378,8.294 3.573,12.444c1.672,5.861 2.5,11.845 1.944,17.917c-0.272,3.067 -0.311,6.572 -4.339,7.705c-3.8,-8.327 -8.689,-12.15 -20.972,-16.555c-2.067,2.778 -3.806,5.867 -6.261,8.205c-2.478,2.362 -4.817,4.556 -4.878,8.956c-2.011,-1.617 -3.655,-2.433 -4.572,-3.756c-4.872,-7.044 -12.183,-8.561 -19.917,-8.833c-9.133,-0.317 -16.594,5.078 -18.911,13.756c-3.005,11.233 -0.339,18.361 8.15,23.589c5.461,3.366 11.545,4.627 17.895,4.994c4.955,0.278 8.866,-1.305 11.555,-5.628c0.661,-1.055 1.617,-1.922 3.117,-3.677c0.128,9.083 -4.011,13.866 -11.861,14.394c-9.323,0.622 -18.039,-1.483 -25.745,-6.989c-3.439,-2.455 -5.844,-5.517 -7.416,-9.139c-2.717,3.489 -5.339,7.045 -6.095,11.478c4.389,3.161 8.995,5.761 14.389,7.033c2.383,0.556 5.028,1.85 6.55,3.661c1.328,1.562 2.744,2.434 4.4,3.406c7.883,4.633 15.272,9.733 17.022,19.733c0.395,2.245 1.245,4.489 3.295,5.845c5.633,-5.084 11.605,-8.778 19.289,-7.578c5.305,0.833 10.533,2.2 15.794,3.328c13.839,2.961 27.439,2.261 40.772,-2.656c2.222,-0.816 4.517,-1.483 6.823,-2.05c11.166,-2.755 21.75,-7.094 32.083,-12.044c12.483,-5.978 21.089,-15.628 25.894,-28.539c2.328,-6.261 4.411,-12.639 6.089,-19.106c2.311,-8.905 2.872,-17.955 0.322,-27.078c1.323,-0.422 2.523,-1.005 3.784,-1.172c4.672,-0.616 8.589,-2.816 12.228,-5.6c7.994,-6.128 9.866,-18.633 3.822,-26.772" style="fill:#fedcc4;fill-rule:nonzero;"/></g><g><path d="M276.364,240.112c-0.8,-0.094 -1.822,0.089 -2.361,-0.339c-1.683,-1.327 -3.15,-2.916 -4.761,-4.339c-1.611,-1.422 -3.2,-2.905 -4.961,-4.111c-5.434,-3.711 -7.284,-3.461 -12.161,1.311c-0.289,0.289 -0.728,0.423 -1.584,0.889c-0.427,-8.355 4.334,-12.139 11.661,-9.183c3.078,1.233 5.823,3.644 8.278,5.967c2.306,2.194 4.111,4.939 5.984,7.55c0.344,0.483 -0.045,1.489 -0.095,2.255m6.789,46.15c-0.622,-4.261 -0.533,-8.628 0,-12.894c0.5,-4.022 1.411,-7.928 3.033,-11.656c2.995,-6.855 7.723,-14.55 2.5,-21.589c-0.294,-0.4 -0.422,-1.122 0.089,-1.439c1.706,-1.05 3.517,-1.855 5.461,-2.344c8.245,-2.083 16.745,0.572 24.961,1.483c4.195,0.467 8.25,0.384 12.3,-0.883c3.178,-0.994 6.434,-2.478 8.65,-5.05c3.739,-4.35 3.162,-10.367 2.056,-15.589c-1.267,-6.033 -3.428,-11.889 -4.15,-18.033c-0.367,-3.128 -0.3,-6.289 0.611,-9.334c1.039,-3.477 3.222,-6.394 5.983,-8.705c5.817,-4.878 13.35,-7.239 18.606,-12.878c2,-2.15 3.489,-4.678 4.095,-7.572c0.711,-3.389 0.283,-6.945 -0.373,-10.306c-0.866,-4.483 -2.194,-8.822 -3.866,-13.072c-0.045,-0.106 -0.089,-0.211 -0.134,-0.322c-0.039,0.816 -0.033,1.65 0.039,2.516c0.145,1.906 0.017,3.862 -0.261,5.756c-0.094,0.644 -1.011,1.572 -1.611,1.617c-0.578,0.05 -1.644,-0.773 -1.789,-1.378c-0.744,-3.106 -1.256,-6.267 -1.711,-8.689c0.267,-3.094 0.967,-5.8 2.022,-8.228c-0.561,-1.455 -1.139,-2.905 -1.622,-4.394c-2.689,-8.356 -2.995,-17.422 2.133,-24.939c2.128,-3.122 5.156,-6.083 8.645,-8.084c-1.156,-0.95 -2.289,-1.911 -3.472,-2.838c-5.395,-4.239 -5.395,-4.195 -10.728,0.533c-1.45,1.283 -3.073,2.372 -4.556,3.639c-2.461,2.094 -5.067,4.072 -7.255,6.439c-6.35,6.855 -8.617,14.811 -5.617,23.905c1.011,3.078 2.2,6.089 3.283,9.139c3.072,8.65 1.561,16.584 -3.833,23.85c-1.539,2.078 -3.111,4.178 -4.95,5.978c-3.389,3.322 -6.806,6.656 -10.539,9.578c-6.344,4.955 -7.544,11.178 -5.4,18.494c1.211,4.145 2.378,8.3 3.567,12.445c1.677,5.861 2.5,11.844 1.944,17.916c-0.272,3.067 -0.311,6.573 -4.339,7.706c-3.8,-8.322 -8.689,-12.145 -20.972,-16.556c-2.067,2.773 -3.806,5.867 -6.261,8.206c-2.478,2.361 -4.817,4.555 -4.878,8.961c-2.011,-1.617 -3.655,-2.439 -4.572,-3.761c-4.867,-7.045 -12.183,-8.567 -19.911,-8.833c-9.134,-0.312 -16.6,5.083 -18.917,13.755c-3.005,11.228 -0.339,18.361 8.15,23.595c5.461,3.361 11.545,4.627 17.895,4.989c4.961,0.283 8.872,-1.3 11.561,-5.628c0.655,-1.05 1.611,-1.922 3.111,-3.678c0.128,9.078 -4.011,13.872 -11.867,14.394c-9.311,0.623 -18.033,-1.483 -25.733,-6.988c-3.445,-2.456 -5.845,-5.512 -7.422,-9.134c-2.712,3.489 -5.339,7.039 -6.1,11.472c4.394,3.162 9,5.762 14.394,7.028c2.383,0.561 5.028,1.861 6.55,3.667c1.333,1.567 2.744,2.439 4.4,3.411c7.883,4.628 15.272,9.728 17.022,19.733c0.4,2.239 1.245,4.484 3.295,5.839c2.522,-2.278 5.116,-4.233 7.894,-5.639c-0.7,-1.816 -1.133,-3.744 -1.411,-5.611" style="fill:#fcc59f;fill-rule:nonzero;"/></g><g><path d="M541.42,290.834c-4.117,4.295 -4.133,4.334 -0.145,6.412c1.178,0.622 2.512,0.938 4.634,1.711c-1.811,-3.289 -3.106,-5.623 -4.489,-8.123m-36.445,-16.711c0.917,-5.189 0.945,-5.233 -2.5,-7.516c-1.85,-1.228 -3.05,-2.639 -3.494,-5.006c-0.644,-3.439 -1.872,-3.655 -4.506,-1.178c-0.905,0.85 -1.666,1.867 -2.844,3.211c4.505,3.545 8.806,6.923 13.344,10.489m23.656,-5.977c-3.728,7.422 -9.111,9.983 -16.717,10.344c2.334,2.2 3.878,3.928 5.717,5.272c0.9,0.656 2.633,1.172 3.467,0.739c4.739,-2.444 8.2,-6.144 9.261,-11.539c0.194,-1.005 -0.756,-2.228 -1.728,-4.816m5.839,8.983c-3.739,3.894 -6.783,7.072 -10.145,10.567c2.412,1.427 4.889,2.988 7.473,4.361c0.633,0.339 1.722,0.311 2.389,0c2.755,-1.284 4.811,-5.945 3.688,-8.723c-0.85,-2.111 -2.188,-4.022 -3.405,-6.205m-230.106,158.006c-2.867,0 -4.372,-0.039 -5.872,0.011c-4.495,0.144 -5.172,0.655 -6.411,4.739c-0.784,2.594 -0.222,3.744 2.428,4.033c6.366,0.694 11.672,-2.039 16.566,-5.672c1.261,-0.928 0.661,-2.467 -1.016,-2.673c-2.339,-0.294 -4.7,-0.366 -5.695,-0.438m208.9,-160.851c9.684,-0.261 17.411,-14.205 13.178,-21.761c-0.378,-0.666 -1.222,-1.433 -1.883,-1.477c-0.589,-0.023 -1.539,0.777 -1.789,1.427c-2.261,5.778 -5.806,10.528 -10.895,14.106c-0.35,0.244 -0.8,0.555 -0.888,0.911c-0.395,1.6 -1.323,3.494 -0.8,4.767c0.488,1.183 2.561,1.722 3.077,2.027m-60.255,-40.4c0.611,0.45 1.494,1.028 2.3,1.717c3.794,3.211 7.666,2.589 11.016,-0.378c2.856,-2.522 5.461,-5.466 7.623,-8.605c4.811,-7 5.755,-5.395 -0.65,-13.528c-0.117,-0.156 -0.373,-0.206 -0.467,-0.256c-2.389,4.184 -4.117,8.973 -7.333,12.361c-3.389,3.573 -8.195,5.801 -12.489,8.689m101.55,31.745c-0.134,-0.406 -0.2,-0.845 -0.406,-1.206c-3.45,-6.089 -13.689,-9.683 -20.494,-7.272c-2.945,1.039 -2.356,3.878 -2.939,5.939c-0.6,2.094 1.122,3.906 3.033,4.333c5.034,1.145 10.145,2.017 15.261,2.678c2.578,0.339 5.623,-2.428 5.545,-4.472m-223.328,57.222c-7.495,-0.705 -14.572,-1.35 -21.645,-2.05c-3.005,-0.289 -5.994,-0.894 -9,-1.011c-10.589,-0.411 -10.6,-0.356 -13.277,10.194c-0.078,0.323 0.205,0.739 0.433,1.478c14.267,-2.822 28.572,-5.661 43.489,-8.611m179.472,-89.972c0,1.5 0.056,2.944 -0.011,4.389c-0.128,2.778 -0.067,5.594 -0.55,8.311c-0.755,4.322 -2.683,8.094 -6,11.155c-1.794,1.645 -2.067,3.934 -0.483,5.812c1.589,1.883 3.822,1.655 5.928,0.661c0.572,-0.273 1.116,-0.656 1.6,-1.073c5.416,-4.733 8.916,-10.422 8.9,-17.855c-0.012,-5.111 -3.545,-9.45 -9.384,-11.4m-45.122,8.233c3.905,0.828 7.794,1.772 11.728,2.434c2.522,0.427 5.122,0.622 7.677,0.55c1.106,-0.028 2.612,-0.717 3.2,-1.595c2.262,-3.394 1.845,-8.128 -0.766,-11.272c-1.372,-1.65 -2.85,-3.228 -4.361,-4.75c-2.156,-2.172 -2.606,-2.211 -4.434,0.25c-3.722,5.005 -7.239,10.178 -13.044,14.383m-280.117,-154.533c6.761,-2.195 13.339,-4.089 19.722,-6.5c2.711,-1.028 5.3,-2.834 7.45,-4.817c2.678,-2.472 2.328,-4.128 -0.983,-5.989c-6.156,-3.45 -12.689,-3.555 -18.345,0.45c-5.577,3.945 -9.227,9.5 -7.844,16.856m299.945,136.255c2.755,2.056 4.466,4.367 6.005,4.256c3.478,-0.233 3.411,1.083 3.172,3.733c-0.533,5.961 -2.6,12.1 1.339,17.756c0.228,0.322 0.128,0.861 0.295,1.244c0.544,1.267 1.211,3.6 1.711,3.561c1.567,-0.094 3.572,-0.683 4.506,-1.816c1.455,-1.767 2.777,-4.061 3.061,-6.278c0.522,-4.033 0.75,-8.244 0.183,-12.244c-1.272,-9.106 -6.306,-12.556 -15.467,-11.256c-1.044,0.144 -2.066,0.439 -4.805,1.044m-154.367,238.689c2.389,3.267 4.328,6.123 6.505,8.778c0.884,1.072 2.295,2.434 3.456,2.428c6.872,-0.056 13.85,0.183 20.583,-0.944c6.756,-1.139 7.945,-4.639 5,-10.789c-0.372,-0.778 -0.861,-1.495 -1.311,-2.228c-0.883,-1.417 -2.011,-1.928 -3.789,-1.695c-7.894,1.062 -15.811,1.912 -23.711,2.95c-2.189,0.289 -4.322,0.95 -6.733,1.5m-110.761,-14.977c3.172,2.111 6.611,3.183 10.172,3.966c3.567,0.784 7.194,1.378 10.689,2.4c6.322,1.856 12.761,1.839 19.222,1.617c1.472,-0.056 3.1,-0.261 4.356,-0.939c4.111,-2.25 8.089,-4.75 12.622,-7.461c-1.306,-0.328 -1.883,-0.622 -2.445,-0.594c-15.155,0.738 -29.977,-2.384 -44.927,-4.017c-4.534,-0.495 -7.361,0.972 -9.689,5.028m227.755,-216.612c7.367,-0.383 15.062,-5.344 17.834,-11.322c1.072,-2.317 1.433,-4.961 2.461,-7.305c1.128,-2.573 0.667,-4.556 -1.383,-6.323c-1.462,-1.261 -2.823,-2.672 -4.389,-3.783c-2.528,-1.8 -5.167,-1.944 -7.734,0.067c-4.411,3.439 -9.072,6.594 -13.183,10.35c-6.9,6.294 -6.533,9.977 0.922,15.339c1.045,0.755 2.106,1.511 3.239,2.116c0.9,0.484 1.922,0.75 2.233,0.861m-87.533,222.984c-1.95,-4.495 -5.489,-6.633 -8.911,-8.717c-8.806,-5.344 -18.189,-8.628 -28.745,-8.3c-3.927,0.122 -7.172,0.167 -8.861,4.484c-0.472,1.211 -2.15,1.994 -3.355,2.855c-1.472,1.039 -3.028,1.956 -4.956,3.183c1.345,0.856 2.022,1.35 2.756,1.739c4.716,2.545 9.378,5.211 14.211,7.517c1.85,0.878 4.117,1.317 6.167,1.25c3.861,-0.128 7.711,-0.7 11.555,-1.2c6.583,-0.872 13.156,-1.833 20.139,-2.811m-11.006,-90.784c-4.283,6.773 -9.466,4.017 -14.783,1.884c-0.017,6.028 -2.567,10.461 -5.75,14.589c-2.228,2.9 -4.611,5.683 -6.878,8.555c-5.2,6.595 -10.583,13.061 -15.489,19.861c-4.811,6.667 -7.55,14.356 -9.994,22.184c2.75,1.694 5.372,0.705 7.872,0.822c1.828,0.083 2.878,-0.894 2.728,-2.75c-0.444,-5.472 2.45,-9.522 5.828,-13.2c7.428,-8.089 14.989,-16.056 22.622,-23.956c5.294,-5.488 9.478,-11.7 12.889,-18.477c1.283,-2.539 2.155,-5.156 0.955,-9.512m-163.694,-13.138c-3.672,8.627 -7.067,16.272 -10.178,24.022c-4.005,9.961 -4.789,11.072 7.489,9.517c13.028,-1.656 25.928,-4.462 38.783,-7.2c8.856,-1.889 17.55,-4.5 26.295,-6.867c2.639,-0.711 5.217,-1.667 7.817,-2.511c-8.767,-0.989 -17.4,-0.65 -26,-1.078c-9.662,-0.483 -19.306,-0.978 -28.867,-3.178c-7.134,-1.639 -12.406,-4.655 -15.339,-12.705m118.806,140.533c0.005,-0.1 0.005,-0.2 0.011,-0.306c6.905,0 13.816,0.056 20.722,-0.011c9.5,-0.1 11.822,-3.477 8.839,-12.533c-0.661,-1.994 -1.567,-2.767 -3.795,-1.967c-10.511,3.784 -21.472,4.445 -32.505,4.289c-15.956,-0.211 -31.945,1.134 -47.85,-1.178c-3.195,-0.466 -6.417,-0.738 -9.611,-1.222c-4.878,-0.733 -9.817,-1.261 -14.595,-2.444c-5.216,-1.289 -10.261,-3.267 -15.422,-4.828c-1.145,-0.35 -2.733,-0.7 -3.611,-0.183c-2.5,1.477 -2.811,9.855 -0.406,11.877c2.789,2.339 5.684,4.523 9.667,4.784c9.467,0.622 18.911,1.85 28.383,2.194c20.05,0.722 40.117,1.045 60.173,1.528m25.455,-20.172c-0.583,-0.956 -0.878,-1.528 -1.25,-2.045c-0.378,-0.527 -0.739,-1.105 -1.239,-1.489c-10.1,-7.844 -20.589,-14.922 -33.678,-16.777c-7.933,-4.045 -14.45,-0.839 -20.644,4.022c-0.344,0.267 -0.722,0.483 -1.061,0.755c-6.739,5.35 -14.545,6.378 -22.667,5.045c-9.972,-1.645 -19.983,-3.295 -29.45,-7.128c-1.639,-0.667 -3.317,-1.45 -4.628,0.439c-2.216,3.189 -4.416,6.383 -6.461,9.678c-0.966,1.561 -0.444,2.894 1.417,3.511c1.017,0.333 2.061,0.622 3.061,1.017c13.211,5.216 27.15,7.033 41.128,7.472c18.761,0.589 37.555,0.316 56.328,-0.05c6.405,-0.117 12.855,-1.345 19.144,-4.45m176.267,-188.934c-5.389,-4.389 -10.422,-8.139 -15.011,-12.372c-2.189,-2.017 -3.872,-2.872 -6.756,-1.628c-7.666,3.334 -14.789,-0.355 -22,-2.216c-0.672,-0.173 -1.511,-1.773 -1.35,-2.506c0.167,-0.733 1.539,-1.767 2.289,-1.7c2.761,0.267 5.589,0.633 8.195,1.528c4.977,1.711 9.766,1.444 14.522,-0.517c4.8,-1.983 5.766,-3.683 5.444,-8.983c-0.205,-3.345 -0.428,-3.833 -3.85,-3.667c-6.778,0.339 -13.333,-0.65 -19.828,-2.428c-2.7,-0.738 -5.494,-1.155 -8.172,-1.972c-2.122,-0.65 -3.922,-0.183 -5.411,1.161c-2.967,2.678 -5.405,5.778 -4.683,10.111c0.444,2.734 1.189,5.45 2.078,8.078c1.544,4.545 1.455,4.984 -3.445,5.911c-11.661,2.189 -23.333,4.311 -35.028,6.334c-7.666,1.333 -15.122,2.827 -22.139,6.711c-9.255,5.128 -19.172,8.905 -29.455,11.644c-6.456,1.717 -12.834,3.739 -19.228,5.678c-2.822,0.856 -3.517,2.528 -2.917,6.094c0.417,2.456 2.223,2.362 3.934,2.239c5.377,-0.389 10.755,-0.827 16.116,-1.355c4.723,-0.467 9.484,-0.784 14.128,-1.678c16.311,-3.156 32.589,-6.467 48.85,-9.861c7.395,-1.539 14.961,-2.75 21.984,-5.356c7.272,-2.7 14.822,-4.116 22.133,-6.45c4.789,-1.533 8.839,-0.689 12.605,2.578c3.739,3.245 8.45,4.106 13.134,5c2.35,0.445 4.272,-0.167 5.872,-1.861c2.667,-2.811 5.306,-5.65 7.989,-8.517m-212.589,28.311c-0.756,6.823 -0.756,6.8 4.428,6.967c3.45,0.117 6.905,0.206 10.35,0.461c7.089,0.534 14.161,1.3 21.255,1.722c3.722,0.223 4.545,-0.727 4.689,-4.422c0.111,-3.016 0.117,-6.044 0.05,-9.066c-0.083,-3.823 -0.139,-4.034 -4.083,-3.839c-11.217,0.544 -21.845,-1.989 -32.3,-5.661c-1.589,-0.556 -3.456,-1.273 -4.961,-0.917c-4.945,1.178 -9.517,3.272 -13.517,7.228c1.183,0.705 2.022,1.016 2.583,1.594c0.639,0.667 1.039,1.578 1.534,2.383c-0.873,0.506 -1.717,1.328 -2.645,1.439c-3.022,0.356 -5.528,-0.911 -7.316,-3.289c-1.156,-1.538 -2.195,-3.244 -2.889,-5.027c-1.334,-3.4 -2.423,-6.9 -3.539,-10.373c-3.084,-9.594 -13.239,-14.866 -22.645,-11.511c-2.816,1.006 -5.616,2.389 -8.011,4.156c-8.683,6.394 -17.3,12.894 -25.711,19.644c-2.606,2.089 -4.467,5.111 -6.678,7.717c8.511,3.972 16.517,7.572 24.367,11.472c2.528,1.256 3.506,0.689 5.1,-1.483c4.978,-6.772 10.289,-13.295 15.583,-19.822c1.35,-1.656 3.056,-3.045 4.717,-4.4c1.172,-0.956 2.772,-1.984 3.856,-0.217c0.416,0.683 -0.217,2.422 -0.889,3.267c-1.617,2.011 -3.617,3.705 -5.323,5.65c-6.105,6.983 -12.216,13.961 -16.716,22.189c-1.767,3.25 -2.111,3.25 -4.956,0.927c-1.622,-1.316 -2.711,-1.016 -3.772,0.367c-1.383,1.817 -3.117,3.511 -3.028,6.7c2.878,0.45 5.578,1.083 8.311,1.256c7.75,0.466 15.511,1.072 23.267,1.022c7.956,-0.05 15.928,-0.717 23.872,-1.334c2.834,-0.222 4.734,-1.188 5.395,-4.933c1,-5.667 3.344,-11.111 5.405,-16.55c0.417,-1.105 2.128,-1.722 4.217,-3.317m-38.5,30.756c-9.817,-0.6 -18.461,-0.85 -27.033,-1.783c-3.528,-0.384 -6.995,-2.006 -10.284,-3.511c-1.689,-0.773 -2.161,-2.473 -0.444,-4.234c1.639,-1.678 2.972,-3.65 4.439,-5.494c1.344,-1.689 1.372,-3.239 -0.778,-4.156c-5.545,-2.372 -11.122,-4.666 -16.722,-6.911c-2.712,-1.089 -4.478,0.006 -5.684,2.589c-1.822,3.911 -3.972,7.672 -5.705,11.617c-2.65,6.061 -3.556,12.439 -2.65,19.005c0.666,4.861 2.877,8.684 8.072,9.734c6.333,1.277 12.678,3.005 19.072,3.283c14.239,0.628 28.517,0.594 42.778,0.589c7.311,-0.006 14.539,-0.978 21.511,-3.445c0.811,-0.283 2.083,0.106 2.906,0.578c6.689,3.822 8.983,3.572 13.955,-1.733c4.045,-4.317 5.978,-4.189 9.256,0.783c1.066,1.617 1.783,3.456 2.794,5.111c0.778,1.272 1.606,2.611 2.711,3.584c3.078,2.716 7.228,1.494 7.906,-2.523c0.372,-2.211 -0.111,-4.711 -0.778,-6.905c-0.933,-3.084 -2.455,-5.989 -3.628,-9c-0.372,-0.978 -0.744,-2.15 -0.516,-3.084c0.127,-0.516 1.566,-1.105 2.283,-0.972c0.644,0.122 1.283,1.111 1.617,1.856c2.405,5.289 5.255,10.444 5.777,16.394c0.112,1.228 -0.355,3.022 1.467,2.928c1.278,-0.067 2.995,-0.917 3.645,-1.95c1.633,-2.594 2.372,-5.594 1.461,-8.689c-1.156,-3.917 -2.05,-7.944 -5.089,-11.05c-0.55,-0.567 -0.328,-1.883 -0.461,-2.855c1,-0.134 2.233,-0.684 2.961,-0.289c1.255,0.666 2.716,1.727 3.178,2.961c1.494,3.994 2.644,8.122 3.755,12.244c0.328,1.211 -0.05,2.595 0.111,3.872c0.317,2.556 2.234,4.284 4.745,4.423c2.294,0.127 3.566,-1.128 4.272,-3.189c2.194,-6.378 1.755,-12.311 -3.878,-16.245c-2.478,-1.727 -4.867,-3.622 -7.028,-5.722c-0.916,-0.889 -1.9,-2.878 -1.5,-3.689c0.895,-1.811 2.595,-0.844 3.806,0.122c4.539,3.612 9.689,6.612 12.528,11.984c0.783,1.483 1.627,2.555 3.516,1.728c1.728,-0.756 3.067,-1.895 2.734,-3.895c-0.239,-1.444 -0.867,-2.883 -1.578,-4.183c-4.506,-8.122 -15.089,-13.361 -24.867,-11.711c-11.689,1.972 -23.3,4.405 -34.911,6.8c-4.205,0.872 -8.261,2.789 -12.489,3.222c-9.422,0.967 -18.922,1.3 -27.233,1.811m48.644,17.622c-1.077,0.711 -1.722,0.956 -2.116,1.417c-4.573,5.405 -9.811,6.678 -16.761,4.394c-5.084,-1.666 -10.623,-0.572 -15.556,2.084c-2.244,1.211 -4.4,2.705 -6.778,3.494c-5.528,1.834 -11.122,3.5 -16.772,4.9c-12.967,3.206 -25.956,6.334 -38.989,9.245c-6.089,1.355 -12.311,2.161 -18.489,3.122c-2.3,0.361 -2.639,1.428 -2.217,3.589c1.334,6.733 4.817,11.305 11.623,13.328c7.25,2.144 14.627,1.566 21.85,0.838c9.85,-0.983 19.594,-3.011 29.389,-4.527c8.877,-1.378 17.233,-3.817 23.827,-10.456c0.834,-0.839 2.362,-0.983 3.567,-1.45c-8.383,10.272 -17.078,19.856 -27.767,27.256c-6.433,4.444 -12.494,9.233 -17.75,15.011c-1.672,1.833 -3.722,3.505 -4.25,6.572c2.045,0.572 3.856,1.322 5.728,1.567c10.05,1.3 20.089,2.733 30.178,3.583c6.433,0.544 12.956,0.294 19.428,0.111c2.466,-0.072 5,-0.289 6.133,-3.594c2.228,-6.506 4.689,-12.95 7.533,-19.206c2.489,-5.472 5.2,-10.944 8.595,-15.883c4.639,-6.728 10.022,-12.95 15.089,-19.395c3.561,-4.527 7.65,-8.727 9.705,-14.522c-2.589,-1.267 -4.533,-1.111 -6.877,0.233c-5.839,3.345 -10.095,2.25 -13.778,-3.333c-1.65,-2.494 -2.878,-5.267 -4.545,-8.378m-215.3,-221.755c-1.166,-5.8 1.339,-9.734 6.322,-12.028c5.367,-2.478 10.839,-2.934 16.128,0.333c2.389,1.472 4.734,3.011 7.022,4.639c3.939,2.789 8.173,4.7 13.017,5.433c10.322,1.561 14.033,-0.977 15.183,-11.366c1.178,-10.656 3.439,-21.345 -0.95,-31.917c-1.1,-2.661 1.256,-4.772 4.034,-3.867c1.816,0.595 3.416,1.817 5.155,2.672c6.156,3.023 11.061,1.684 14.05,-4.5c1.75,-3.622 2.406,-7.772 3.645,-11.65c0.85,-2.655 1.555,-5.427 2.883,-7.838c1.461,-2.65 4.25,-2.984 6.622,-1.017c1.773,1.483 3.239,3.333 4.85,5.028c2.439,-1.789 4.611,-3.523 6.928,-5.039c1.756,-1.15 2.15,-2.689 1.622,-4.467c-0.622,-2.061 -1.155,-4.272 -2.327,-6c-3.145,-4.633 -6.306,-9.322 -10.034,-13.467c-6.116,-6.794 -14.222,-9.555 -23.228,-9.7c-5.783,-0.094 -8.383,1.884 -9.505,7.495c-0.495,2.461 -0.289,5.1 -0.195,7.65c0.162,4.589 -1.994,6.45 -6.4,5.205c-1.444,-0.4 -2.8,-1.138 -4.155,-1.794c-8.028,-3.861 -16.617,-4.761 -25.295,-4.133c-10.355,0.75 -15.966,7.572 -15.611,17.75c0.15,4.35 2.456,7.272 5.467,9.844c2.628,2.233 5.578,4.106 8.139,6.411c4.422,3.989 4.561,9.456 0.305,13.6c-1.822,1.778 -3.977,3.428 -6.283,4.456c-6.1,2.728 -12.3,5.267 -18.589,7.539c-6.233,2.261 -10.005,6.55 -11.844,12.744c-1.334,4.484 -0.311,8.6 2.383,12.25c2.472,3.339 5.35,6.217 10.661,5.734m193.55,112.733c0.117,9.083 -4.016,13.872 -11.866,14.4c-9.317,0.622 -18.039,-1.489 -25.739,-6.994c-5.167,-3.689 -8.189,-8.6 -9.189,-14.995c-0.7,-4.439 -0.045,-8.678 1.089,-12.767c2.978,-10.75 11.578,-19.011 25.905,-17.333c6.628,0.772 12.667,2.6 17.684,7.128c1.45,1.311 3.072,2.028 4.555,0.494c4.05,-4.178 8.028,-8.289 7.367,-15.011c-0.345,-3.555 0.428,-7.255 0.978,-10.855c0.422,-2.756 1.339,-5.434 1.939,-8.173c1.483,-6.783 1.033,-13.283 -2.956,-19.255c-1.072,-1.617 -2.094,-3.284 -2.95,-5.028c-2.506,-5.122 -1.806,-8.9 2.389,-12.822c1.411,-1.322 2.944,-2.545 4.544,-3.639c6.623,-4.517 10.167,-10.772 11.823,-18.595c1.044,-4.933 -0.239,-9.4 -0.939,-14.055c-0.761,-5.1 -1.578,-10.195 -2.189,-15.317c-0.122,-1.039 0.561,-2.183 1.078,-4.011c1.061,1.361 1.872,1.939 2.005,2.65c1.622,8.661 4.122,17.3 4.456,26.022c0.422,11.411 -4.639,20.706 -14.523,27.295c-7.666,5.116 -7.65,6.35 -3.077,14.15c0.544,0.933 1.061,1.883 1.627,2.8c2.473,3.95 3.439,8.161 3.5,12.894c0.073,5.989 -1.727,11.489 -3.083,17.128c-2.022,8.411 -1.017,10.7 6.356,14.617c4.344,2.311 8.583,4.827 13.444,7.577c-0.217,-3.144 -0.044,-6.35 -0.711,-9.372c-1.406,-6.311 -3.178,-12.539 -4.944,-18.755c-2.25,-7.889 -0.334,-14.484 5.788,-19.884c1.95,-1.711 4.017,-3.289 5.9,-5.061c3.139,-2.961 6.4,-5.833 9.206,-9.094c6,-6.967 7.428,-14.889 4.078,-23.567c-0.928,-2.417 -1.889,-4.833 -2.611,-7.311c-3.084,-10.556 -1.323,-20.094 6.339,-28.217c1.916,-2.022 4.177,-3.733 6.344,-5.505c2.5,-2.056 5.233,-3.856 7.578,-6.073c5.144,-4.85 5.611,-8.944 1.928,-14.994c-1.056,-1.733 -2.35,-3.322 -4.412,-6.206c2.317,0.806 3.406,0.912 4.112,1.478c3.755,3.017 5.783,7.006 5.65,11.828c-0.106,3.417 1.122,5.411 4.233,7.117c12.85,7.044 23.572,16.7 33,27.85c1.056,1.244 2.239,2.378 3.839,4.066c0.255,-2.011 0.517,-3.272 0.55,-4.538c0.067,-2.378 0.111,-4.762 -0.039,-7.128c-0.433,-6.65 -4.811,-12.123 -11.256,-14.273c-1.438,-0.472 -2.866,-0.955 -4.277,-1.505c-2.595,-1.006 -3.689,-2.967 -3.117,-5.65c0.35,-1.661 1.067,-3.25 1.65,-4.867c1.089,-3.044 2.628,-5.994 3.233,-9.133c3.006,-15.667 -8.316,-22.989 -18.983,-19.245c-4.011,1.406 -8.089,2.617 -12.122,3.912c-2.228,-4.912 -2.867,-5.712 -6.634,-6.134c-14.761,-1.644 -28.411,0.811 -39.916,11.056c-2.9,2.583 -5.989,4.966 -9.128,7.255c-1.233,0.9 -2.85,1.289 -4.945,2.195c0.534,-5.6 5.162,-6.995 7.428,-10.017c-0.45,-0.528 -0.655,-1.022 -0.983,-1.111c-16.039,-4.65 -32.267,-8.022 -49.111,-7.172c-13.739,0.7 -24.528,6.211 -30.945,18.911c-1.461,2.889 -3.094,5.7 -4.744,8.483c-2.889,4.889 -7.089,8.045 -12.656,9.345c-1.889,0.439 -3.778,0.9 -5.639,1.444c-9.672,2.833 -17.227,8.161 -22.95,16.795c-11.505,17.361 -13.266,35.127 -4.244,53.927c2.239,4.678 2.317,9.5 1.344,14.539c-2.111,10.861 -2.872,21.756 -0.527,32.75c3.766,17.678 13.316,29.534 31.755,33.4c4.528,0.956 8.85,3.356 12.961,5.634c1.911,1.055 3.617,3.194 4.5,5.244c1.634,3.789 4.373,6.3 7.545,8.634c4.572,3.35 9.344,6.094 14.978,7.422c2.377,0.555 5.022,1.855 6.55,3.661c1.327,1.567 2.738,2.439 4.394,3.411c7.883,4.633 15.272,9.728 17.028,19.733c0.389,2.239 1.244,4.484 3.294,5.839c5.628,-5.078 11.6,-8.778 19.284,-7.578c5.311,0.834 10.538,2.2 15.8,3.328c13.838,2.961 27.433,2.267 40.772,-2.65c2.222,-0.816 4.516,-1.489 6.811,-2.055c11.178,-2.756 21.756,-7.089 32.089,-12.045c12.489,-5.972 21.089,-15.622 25.894,-28.533c2.328,-6.261 4.411,-12.645 6.084,-19.106c2.316,-8.905 2.877,-17.961 0.333,-27.078c1.317,-0.422 2.522,-1.011 3.778,-1.172c4.666,-0.622 8.594,-2.822 12.228,-5.6c7.994,-6.128 9.866,-18.633 3.822,-26.772c-3.772,-5.078 -10.361,-8.606 -16.856,-1.05c-1.905,2.228 -3.094,5.111 -4.394,7.8c-0.65,1.333 -0.722,2.933 -1.245,4.339c-0.177,0.478 -0.911,1.022 -1.405,1.039c-0.539,0.022 -1.395,-0.406 -1.595,-0.867c-0.416,-0.955 -0.877,-2.15 -0.644,-3.078c0.767,-3.089 1.383,-6.361 2.917,-9.072c1.461,-2.567 1.683,-4.683 0.488,-7.228c-3.477,-7.416 -6.322,-15.194 -10.455,-22.222c-11.639,-19.761 -27.011,-36.344 -45.033,-50.494c-5.389,-4.234 -5.389,-4.195 -10.728,0.538c-1.45,1.284 -3.078,2.373 -4.55,3.628c-2.461,2.106 -5.073,4.084 -7.261,6.445c-6.35,6.861 -8.617,14.816 -5.623,23.905c1.017,3.073 2.206,6.089 3.289,9.139c3.072,8.65 1.561,16.584 -3.833,23.856c-1.539,2.072 -3.106,4.172 -4.945,5.978c-3.394,3.316 -6.811,6.65 -10.544,9.566c-6.344,4.961 -7.544,11.184 -5.4,18.506c1.211,4.139 2.378,8.294 3.567,12.444c1.677,5.861 2.505,11.845 1.95,17.911c-0.284,3.067 -0.311,6.578 -4.345,7.711c-3.805,-8.327 -8.689,-12.15 -20.966,-16.555c-2.067,2.772 -3.806,5.867 -6.262,8.2c-2.483,2.361 -4.822,4.555 -4.883,8.961c-2.005,-1.617 -3.655,-2.433 -4.567,-3.761c-4.872,-7.045 -12.188,-8.561 -19.916,-8.828c-9.134,-0.317 -16.595,5.078 -18.917,13.756c-3.005,11.228 -0.339,18.361 8.15,23.589c5.467,3.366 11.545,4.627 17.889,4.994c4.967,0.278 8.872,-1.305 11.567,-5.633c0.655,-1.05 1.611,-1.922 3.116,-3.678m144.028,-87.933c1.045,-0.339 2.034,-0.7 3.045,-0.989c10.394,-2.939 20.25,3.283 21.844,14.122c0.583,4.022 0.8,8.267 0.183,12.261c-1.472,9.583 -8.238,14.728 -16.694,18.089c-1.922,0.761 -4.561,0.85 -5.667,2.222c-0.9,1.111 -0.072,3.683 0.134,5.6c1.366,12.895 -2.934,24.695 -7,36.539c-2.628,7.656 -6.717,14.461 -12.117,20.489c-0.972,1.083 -1.794,2.289 -3.322,4.267c14.044,-2.511 27.216,-4.139 39.811,-7.378c-0.483,-5.1 -2.122,-10.017 -1.028,-14.233c1.111,-4.267 4.917,-7.834 7.922,-12.256c-3.355,-2.361 -7.394,-5.122 -11.333,-8.006c-2.256,-1.655 -4.556,-3.327 -6.489,-5.327c-3.061,-3.178 -3.422,-6.828 -1.094,-10.656c1.327,-2.189 2.939,-4.333 4.85,-6.011c4.222,-3.689 8.577,-7.256 13.127,-10.533c5.35,-3.856 8.995,-3.8 14.156,0.2c2.706,2.094 5.028,4.716 7.328,7.283c1.722,1.922 3.105,4.139 4.655,6.222c1.667,2.25 2.911,5.45 5.156,6.467c2.117,0.966 5.294,-0.256 7.978,-0.684c6.678,-1.088 12,0.717 15.216,7.006c0.973,1.906 2.256,2.622 4.473,2.989c6.122,1 12.144,8.1 12.616,14.544c0.167,2.35 0.467,4.062 3.089,4.939c1.25,0.423 2.595,1.811 3.072,3.073c1.223,3.227 3.445,3.611 6.223,2.755c9.094,-2.828 14.661,3.161 20.427,8.295c2.334,2.072 2.328,5.177 0.839,7.761c-1.922,3.333 -5.033,4.744 -8.683,4.65c-2.117,-0.056 -4.206,-0.911 -6.333,-1.289c-2.023,-0.361 -4.073,-0.567 -6.295,-0.861c4.711,8.972 9.122,17.361 13.528,25.75c0.294,0.572 0.628,1.144 0.817,1.761c0.989,3.15 -0.806,5.222 -4.006,4.528c-1.467,-0.317 -2.933,-0.812 -4.278,-1.478c-10.439,-5.134 -21.033,-10.05 -29.977,-17.7c-1.662,-1.411 -2.895,-1.556 -4.345,0.144c-1.961,2.3 -4.055,4.484 -6.017,6.784c-2.466,2.905 -5.627,3.877 -9.283,3.483c-5.661,-0.617 -11.133,-1.945 -15.639,-5.606c-3.194,-2.594 -6.655,-2.922 -10.361,-1.994c-3.561,0.894 -7.156,1.778 -10.567,3.089c-12.155,4.689 -24.961,6.866 -37.594,9.566c-15.383,3.295 -30.911,6.017 -46.461,8.395c-8.945,1.372 -18.056,1.65 -27.1,2.267c-4.706,0.327 -4.584,0.216 -5.65,4.694c-0.584,2.461 -1.684,4.806 -2.667,7.528c6.133,1.278 12.128,3.433 16.978,7.911c3.555,3.283 6.55,6.905 6.961,12.017c0.433,5.266 -0.561,6.877 -5.472,8.916c-4.467,1.861 -4.55,1.9 -2.739,5.678c2.394,4.989 2.305,10.006 0.255,14.995c-3.144,7.666 -7.694,14.433 -13.383,20.477c-7.544,8.023 -15,16.128 -22.383,24.295c-2.95,3.261 -5.061,6.961 -4.423,11.694c0.312,2.3 1.278,3.545 3.717,3.489c3.028,-0.067 6.067,0.111 9.078,-0.067c11.083,-0.655 20.767,3.384 29.944,8.923c7.267,4.394 12.245,10.983 15.623,18.555c1.311,2.956 1.25,6.75 0.977,10.089c-0.111,1.489 -2.055,3.211 -3.594,4.122c-4.55,2.695 -9.678,3.589 -14.911,3.8c-3.45,0.139 -6.917,0.123 -10.372,0.111c-2.217,-0.011 -3.084,1.067 -3.012,3.2c0.062,1.728 0.045,3.462 -0.05,5.184c-0.266,4.533 -1.594,6.205 -6.061,6.961c-2.755,0.461 -5.6,0.555 -8.4,0.544c-23.555,-0.111 -47.122,-0.089 -70.677,-0.527c-9.912,-0.189 -19.795,-1.412 -29.7,-2.134c-2.15,-0.155 -4.328,-0.105 -6.467,-0.333c-2.35,-0.256 -4.756,-0.439 -6.989,-1.139c-8.611,-2.7 -11.283,-6.767 -10.928,-15.656c0.311,-7.672 3.7,-14.111 8.083,-20.044c3.445,-4.667 7.423,-8.939 11.106,-13.433c0.456,-0.556 0.972,-1.561 0.767,-2.078c-1.317,-3.289 0.783,-5.433 2.539,-7.528c5.844,-6.961 12.194,-13.383 19.877,-18.428c4.1,-2.694 8.723,-4.805 12.517,-9.883c-4.617,0.661 -8.328,0.983 -11.944,1.761c-12.945,2.789 -26.017,3.828 -39.245,3.589c-5.183,-0.089 -9.789,-1.756 -14.094,-4.261c-4.673,-2.717 -6.017,-7.689 -7.267,-12.528c-1.089,-4.194 -1.022,-4.211 -5.239,-4.433c-1.072,-0.056 -2.172,0.016 -3.228,-0.156c-4.661,-0.755 -6.533,-3.139 -4.983,-7.705c2.361,-6.928 5.328,-13.65 8.161,-20.412c1.25,-2.983 3.05,-5.75 4.189,-8.766c1.433,-3.806 2.75,-7.706 3.589,-11.672c3.911,-18.445 13.083,-33.617 27.833,-45.373c5.234,-4.172 10.523,-8.283 15.85,-12.339c5.345,-4.066 10.956,-7.694 19.128,-9.45c-2.711,-1.061 -4.128,-1.861 -5.644,-2.172c-7.717,-1.589 -13.678,-6.305 -19.567,-11.022c-1.589,-1.283 -2.756,-3.372 -3.533,-5.322c-1.206,-3.045 -3.212,-5.095 -6.145,-6.267c-3.789,-1.522 -7.533,-3.305 -11.472,-4.267c-15.883,-3.872 -26.045,-13.494 -31.011,-29.055c-4.189,-13.111 -4.328,-26.311 -1.895,-39.645c1.078,-5.905 0.589,-11.244 -1.827,-16.944c-6.295,-14.867 -7.639,-30.006 0.066,-45.011c3.461,-6.739 6.884,-13.489 12.4,-18.85c1.545,-1.506 2.078,-3.061 1.834,-5.195c-0.417,-3.666 -0.128,-7.233 1.35,-10.778c1.511,-3.627 -1.623,-5.083 -4.456,-7.844c-0.894,3.494 -1.456,6.156 -2.267,8.733c-1.155,3.684 -2.044,7.556 -3.872,10.906c-3.217,5.878 -8.461,8.406 -15.239,7.111c-1.433,-0.278 -2.839,-0.733 -4.622,-1.2c1.1,11.117 -0.367,21.717 -2.128,32.283c-0.35,2.1 -1.005,4.228 -1.961,6.123c-1.394,2.777 -3.6,5.172 -6.805,5.494c-8.262,0.839 -16.439,0.717 -23.662,-4.361c-2.65,-1.867 -5.294,-3.75 -8.022,-5.5c-4.2,-2.7 -8.672,-2.483 -12.989,-0.483c-4.105,1.9 -4.477,4.361 -1.844,8.222c0.655,0.961 1.583,2.828 1.267,3.139c-0.934,0.916 -2.412,1.694 -3.712,1.755c-11.939,0.534 -20.511,-6.189 -22.127,-17.266c-1.05,-7.184 3.394,-18.934 13.755,-22.734c5.267,-1.933 10.539,-3.872 15.728,-5.994c2.389,-0.972 4.706,-2.217 6.856,-3.645c4.672,-3.105 4.822,-6.161 0.566,-9.744c-2.144,-1.811 -4.433,-3.45 -6.644,-5.172c-7.872,-6.134 -8.261,-14.328 -5.7,-22.873c2.394,-7.95 8.805,-11.627 16.594,-12.438c10.389,-1.089 20.717,-0.689 30.339,4.244c0.561,0.289 1.206,0.411 1.822,0.556c0.173,0.044 0.389,-0.089 0.978,-0.245c0.095,-1.772 0.2,-3.667 0.306,-5.561c0.522,-9.772 7.227,-15.356 16.9,-14.106c18.039,2.345 33.033,15.545 37.272,33.156c0.6,2.489 1.089,3.933 3.944,3.717c5.095,-0.373 9.806,0.922 14.211,4.272c1.25,-1.833 2.412,-3.35 3.378,-4.989c7.423,-12.567 19.128,-17.578 33.023,-18.361c17.533,-0.995 34.361,2.75 50.766,8.522c2.778,0.983 4.55,0.711 6.95,-0.955c11.861,-8.25 25.006,-11.489 39.328,-8.789c2.439,0.461 5.106,1.533 6.9,3.161c2.156,1.961 3.772,1.778 6.311,1.078c3.9,-1.067 8.022,-1.695 12.067,-1.773c7.65,-0.155 13.505,4.645 15.655,12.006c1.917,6.544 0.928,12.767 -1.588,18.944c-2.756,6.767 -2.578,6.567 4.15,9.573c8.033,3.594 12.072,10.272 12.561,18.9c0.222,3.833 -0.367,7.733 -0.789,11.583c-0.289,2.661 -0.139,4.944 1.594,7.283c7.917,10.673 13.9,22.345 17.611,35.139c0.178,0.6 0.545,1.145 0.939,1.934" style="fill:#231f20;fill-rule:nonzero;"/></g><g><path d="M259.72,274.001c3.322,-3.278 5.833,-7.4 8.205,-11.444c-8.433,0.144 -16.344,-2.017 -23.394,-7.056c-5.167,-3.689 -8.189,-8.6 -9.195,-15c-0.694,-4.444 -0.039,-8.678 1.095,-12.772c2.972,-10.745 11.578,-19.006 25.9,-17.334c6.633,0.778 12.666,2.6 17.689,7.128c1.45,1.317 3.066,2.034 4.555,0.5c4.045,-4.178 8.022,-8.289 7.367,-15.011c-0.345,-3.555 0.428,-7.255 0.978,-10.85c0.416,-2.761 1.339,-5.439 1.939,-8.172c1.483,-6.789 1.033,-13.289 -2.95,-19.261c-1.078,-1.617 -2.106,-3.289 -2.956,-5.028c-2.511,-5.128 -1.806,-8.894 2.383,-12.822c1.417,-1.322 2.95,-2.55 4.55,-3.639c6.623,-4.517 10.167,-10.778 11.823,-18.589c1.044,-4.944 -0.239,-9.406 -0.939,-14.061c-0.767,-5.1 -1.578,-10.2 -2.189,-15.311c-0.122,-1.045 0.561,-2.184 1.078,-4.017c1.055,1.356 1.872,1.939 2.005,2.645c1.622,8.661 4.128,17.305 4.45,26.027c0.422,11.411 -4.628,20.7 -14.517,27.3c-7.666,5.111 -7.65,6.339 -3.077,14.145c0.544,0.933 1.055,1.883 1.627,2.8c2.473,3.95 3.439,8.166 3.495,12.894c0.078,5.989 -1.722,11.489 -3.078,17.134c-2.028,8.405 -1.017,10.694 6.35,14.605c4.35,2.317 8.589,4.833 13.445,7.583c-0.212,-3.138 -0.039,-6.355 -0.712,-9.377c-1.405,-6.306 -3.166,-12.534 -4.938,-18.756c-2.245,-7.878 -0.334,-14.478 5.788,-19.872c1.945,-1.711 4.017,-3.289 5.9,-5.067c3.139,-2.955 6.4,-5.833 9.2,-9.089c6,-6.977 7.434,-14.889 4.084,-23.572c-0.928,-2.411 -1.889,-4.828 -2.617,-7.311c-3.083,-10.556 -1.317,-20.094 6.35,-28.211c1.911,-2.028 4.178,-3.734 6.339,-5.511c2.5,-2.056 5.233,-3.856 7.578,-6.067c5.144,-4.861 5.611,-8.95 1.933,-14.994c-1.061,-1.739 -2.355,-3.328 -4.422,-6.212c2.322,0.812 3.411,0.912 4.117,1.478c3.75,3.022 5.783,7.006 5.644,11.828c-0.094,3.417 1.128,5.417 4.239,7.122c12.844,7.039 23.578,16.695 33,27.85c1.05,1.245 2.239,2.378 3.839,4.061c0.255,-2.016 0.517,-3.277 0.55,-4.538c0.067,-2.373 0.117,-4.762 -0.039,-7.123c-0.439,-6.65 -4.811,-12.128 -11.261,-14.272c-1.428,-0.483 -2.867,-0.961 -4.272,-1.506c-2.595,-1.011 -3.689,-2.972 -3.123,-5.65c0.35,-1.666 1.078,-3.255 1.656,-4.872c1.094,-3.039 2.628,-5.994 3.228,-9.128c3.011,-15.677 -8.311,-22.994 -18.978,-19.25c-4.011,1.406 -8.089,2.612 -12.128,3.906c-2.228,-4.906 -2.861,-5.706 -6.628,-6.128c-14.761,-1.65 -28.411,0.811 -39.916,11.056c-2.906,2.583 -5.989,4.966 -9.128,7.255c-1.239,0.9 -2.845,1.289 -4.945,2.189c0.528,-5.6 5.162,-6.983 7.428,-10.011c-0.444,-0.522 -0.661,-1.017 -0.983,-1.111c-16.033,-4.65 -32.267,-8.028 -49.111,-7.167c-13.745,0.695 -24.528,6.206 -30.95,18.911c-1.461,2.889 -3.089,5.689 -4.739,8.478c-2.884,4.884 -7.089,8.039 -12.656,9.345c-1.889,0.444 -3.778,0.9 -5.644,1.444c-9.667,2.828 -17.222,8.161 -22.945,16.795c-11.505,17.361 -13.266,35.127 -4.25,53.933c2.239,4.672 2.328,9.494 1.35,14.533c-2.111,10.867 -2.872,21.761 -0.527,32.75c3.766,17.678 13.316,29.528 31.755,33.4c4.528,0.95 8.845,3.35 12.956,5.634c1.911,1.061 3.622,3.2 4.505,5.244c1.628,3.789 4.378,6.306 7.55,8.634c4.561,3.344 9.339,6.1 14.967,7.422c2.383,0.561 5.028,1.855 6.55,3.661c1.333,1.572 2.744,2.439 4.4,3.417c1.139,0.666 2.261,1.355 3.367,2.055" style="fill:#c37645;fill-rule:nonzero;"/></g><g><path d="M208.342,92.162c4.861,0.472 9.683,0.406 14.344,-1.189c3.923,-1.333 7.467,-3.467 10.611,-6.139c5.889,-5.011 10.212,-11.533 15.7,-16.939c6.65,-6.539 15.306,-10.866 24.773,-10.633c8.544,0.211 16.655,3.328 25.094,4.356c1.667,-1.923 3.889,-3.162 5.261,-4.995c-0.444,-0.517 -0.661,-1.017 -0.983,-1.111c-16.033,-4.65 -32.267,-8.022 -49.111,-7.167c-13.745,0.695 -24.528,6.206 -30.95,18.911c-1.461,2.889 -3.089,5.695 -4.739,8.484c-2.884,4.883 -7.089,8.039 -12.656,9.344c-1.889,0.439 -3.778,0.9 -5.644,1.445c-3.611,1.055 -6.928,2.466 -9.967,4.261c5.995,-0.339 12.233,0.783 18.267,1.372" style="fill:#e08b5a;fill-rule:nonzero;"/></g><g><path d="M402.192,103.034c-0.433,-6.65 -4.811,-12.122 -11.256,-14.272c-1.433,-0.472 -2.866,-0.961 -4.277,-1.506c-2.595,-1.005 -3.689,-2.966 -3.123,-5.65c0.356,-1.661 1.073,-3.25 1.656,-4.872c1.089,-3.039 2.633,-5.994 3.233,-9.128c3.006,-15.672 -8.316,-22.988 -18.983,-19.25c-4.011,1.412 -8.089,2.623 -12.128,3.912c-2.222,-4.912 -2.861,-5.712 -6.628,-6.134c-9.572,-1.066 -18.655,-0.361 -27.011,3.022c0.745,0.262 1.506,0.456 2.234,0.756c4.738,1.95 9.605,5.028 11.188,10.194c1.345,4.35 -0.105,9.039 -1.916,13.028c-4.667,10.239 -12.684,18.867 -16.172,29.656c-0.906,2.805 -1.162,5.489 -1.117,8.422c0.061,4.156 0.294,8.3 0.539,12.456c0.433,7.183 0.872,14.433 -0.445,21.555c-0.672,3.645 -1.761,7.195 -3.239,10.595c-1.661,3.827 -3.944,7.266 -5.855,10.95c-3.028,5.839 -5.245,12.216 -6.178,18.744c-0.905,6.3 -0.639,12.945 1.806,18.889c1.311,3.189 3.211,5.989 5.527,8.389c2.028,1.167 4.095,2.355 6.312,3.611c-0.212,-3.144 -0.039,-6.356 -0.712,-9.378c-1.4,-6.305 -3.172,-12.533 -4.938,-18.755c-2.245,-7.884 -0.334,-14.484 5.788,-19.878c1.95,-1.711 4.017,-3.289 5.9,-5.067c3.139,-2.955 6.4,-5.833 9.206,-9.089c6,-6.966 7.428,-14.889 4.078,-23.566c-0.928,-2.417 -1.889,-4.834 -2.611,-7.311c-3.089,-10.556 -1.323,-20.095 6.344,-28.217c1.911,-2.022 4.172,-3.734 6.339,-5.511c2.5,-2.05 5.233,-3.85 7.578,-6.067c5.144,-4.856 5.611,-8.95 1.928,-14.994c-1.056,-1.739 -2.35,-3.323 -4.412,-6.206c2.317,0.806 3.4,0.906 4.112,1.478c3.755,3.016 5.783,7.005 5.644,11.828c-0.094,3.416 1.128,5.411 4.239,7.116c12.85,7.039 23.572,16.7 33,27.85c1.05,1.245 2.239,2.378 3.839,4.067c0.255,-2.017 0.517,-3.278 0.55,-4.544c0.061,-2.373 0.117,-4.756 -0.039,-7.123" style="fill:#e08b5a;fill-rule:nonzero;"/></g><g><path d="M88.592,135.351c-5.317,0.489 -8.189,-2.389 -10.661,-5.733c-2.7,-3.65 -3.717,-7.767 -2.389,-12.245c1.839,-6.194 5.616,-10.489 11.85,-12.744c6.283,-2.267 12.489,-4.811 18.589,-7.539c2.305,-1.033 4.461,-2.683 6.283,-4.456c4.25,-4.144 4.111,-9.605 -0.311,-13.6c-2.556,-2.311 -5.506,-4.178 -8.133,-6.416c-3.017,-2.567 -5.317,-5.495 -5.467,-9.839c-0.356,-10.178 5.25,-16.995 15.605,-17.75c8.684,-0.628 17.267,0.272 25.289,4.133c1.367,0.65 2.723,1.389 4.161,1.8c4.412,1.244 6.567,-0.622 6.395,-5.217c-0.089,-2.544 -0.289,-5.183 0.2,-7.65c1.122,-5.605 3.722,-7.577 9.511,-7.489c9,0.145 17.111,2.9 23.222,9.695c3.734,4.15 6.889,8.839 10.034,13.467c1.177,1.733 1.711,3.944 2.322,6c0.533,1.777 0.144,3.322 -1.611,4.472c-2.323,1.511 -4.495,3.25 -6.928,5.039c-1.617,-1.695 -3.083,-3.55 -4.861,-5.028c-2.361,-1.967 -5.156,-1.639 -6.617,1.017c-1.322,2.405 -2.028,5.183 -2.878,7.833c-1.239,3.883 -1.894,8.028 -3.644,11.655c-2.995,6.184 -7.9,7.523 -14.05,4.495c-1.745,-0.85 -3.345,-2.072 -5.161,-2.667c-2.772,-0.911 -5.134,1.206 -4.028,3.867c4.389,10.567 2.128,21.267 0.95,31.911c-1.156,10.389 -4.861,12.933 -15.189,11.367c-4.839,-0.728 -9.072,-2.634 -13.011,-5.434c-2.289,-1.622 -4.639,-3.161 -7.028,-4.633c-5.289,-3.267 -10.761,-2.811 -16.122,-0.339c-4.983,2.3 -7.494,6.239 -6.322,12.028" style="fill:#c37645;fill-rule:nonzero;"/></g><g><path d="M303.886,357.107c1.667,3.111 2.895,5.883 4.545,8.383c3.689,5.583 7.944,6.672 13.778,3.333c2.344,-1.35 4.288,-1.5 6.877,-0.239c-2.055,5.801 -6.139,10.001 -9.705,14.534c-5.067,6.433 -10.45,12.655 -15.084,19.389c-3.4,4.933 -6.111,10.411 -8.594,15.883c-2.844,6.256 -5.311,12.7 -7.539,19.2c-1.133,3.311 -3.661,3.528 -6.133,3.595c-6.472,0.183 -12.995,0.438 -19.428,-0.106c-10.089,-0.85 -20.128,-2.289 -30.178,-3.583c-1.872,-0.245 -3.683,-1 -5.728,-1.573c0.528,-3.066 2.578,-4.738 4.25,-6.566c5.256,-5.772 11.323,-10.572 17.75,-15.017c10.689,-7.4 19.384,-16.978 27.773,-27.25c-1.211,0.467 -2.739,0.611 -3.573,1.45c-6.594,6.633 -14.95,9.078 -23.827,10.45c-9.795,1.522 -19.534,3.55 -29.384,4.533c-7.228,0.728 -14.6,1.306 -21.85,-0.844c-6.811,-2.017 -10.294,-6.589 -11.628,-13.322c-0.422,-2.161 -0.083,-3.234 2.217,-3.589c6.178,-0.961 12.4,-1.767 18.495,-3.122c13.033,-2.906 26.022,-6.039 38.983,-9.245c5.65,-1.4 11.244,-3.072 16.772,-4.905c2.378,-0.784 4.534,-2.284 6.778,-3.489c4.933,-2.656 10.472,-3.75 15.556,-2.084c6.95,2.284 12.194,1.017 16.761,-4.394c0.394,-0.461 1.039,-0.711 2.116,-1.422" style="fill:#87caef;fill-rule:nonzero;"/></g><g><path d="M255.242,339.496c8.317,-0.523 17.811,-0.85 27.233,-1.817c4.228,-0.433 8.284,-2.35 12.489,-3.217c11.611,-2.4 23.228,-4.833 34.911,-6.805c9.778,-1.645 20.361,3.594 24.867,11.716c0.711,1.295 1.339,2.734 1.578,4.178c0.333,2 -1.006,3.139 -2.734,3.895c-1.889,0.833 -2.733,-0.239 -3.516,-1.723c-2.839,-5.377 -7.989,-8.372 -12.528,-11.989c-1.211,-0.961 -2.911,-1.933 -3.8,-0.122c-0.406,0.817 0.578,2.806 1.494,3.689c2.161,2.1 4.55,3.995 7.028,5.722c5.633,3.934 6.072,9.867 3.878,16.245c-0.706,2.061 -1.978,3.322 -4.272,3.194c-2.511,-0.139 -4.423,-1.866 -4.745,-4.428c-0.161,-1.277 0.217,-2.661 -0.111,-3.866c-1.111,-4.128 -2.261,-8.256 -3.755,-12.245c-0.462,-1.239 -1.917,-2.3 -3.178,-2.972c-0.728,-0.383 -1.961,0.167 -2.961,0.295c0.133,0.972 -0.089,2.294 0.461,2.861c3.039,3.105 3.939,7.133 5.089,11.044c0.911,3.095 0.172,6.089 -1.461,8.689c-0.65,1.039 -2.367,1.889 -3.645,1.95c-1.822,0.094 -1.355,-1.7 -1.467,-2.928c-0.522,-5.95 -3.366,-11.1 -5.772,-16.394c-0.339,-0.739 -0.978,-1.734 -1.622,-1.85c-0.717,-0.139 -2.156,0.45 -2.283,0.966c-0.228,0.934 0.144,2.112 0.516,3.078c1.173,3.022 2.695,5.922 3.628,9.006c0.672,2.194 1.156,4.694 0.778,6.905c-0.678,4.023 -4.828,5.245 -7.906,2.528c-1.105,-0.972 -1.933,-2.311 -2.711,-3.583c-1.011,-1.656 -1.728,-3.5 -2.794,-5.117c-3.278,-4.967 -5.211,-5.094 -9.256,-0.783c-4.972,5.305 -7.266,5.555 -13.955,1.733c-0.823,-0.467 -2.089,-0.861 -2.906,-0.578c-6.972,2.467 -14.2,3.445 -21.511,3.445c-14.261,0.005 -28.539,0.039 -42.778,-0.584c-6.394,-0.283 -12.739,-2.011 -19.072,-3.283c-5.195,-1.05 -7.406,-4.872 -8.072,-9.733c-0.9,-6.567 0,-12.956 2.65,-19.006c1.733,-3.95 3.883,-7.705 5.711,-11.616c1.2,-2.589 2.972,-3.684 5.678,-2.6c5.6,2.25 11.183,4.55 16.727,6.922c2.145,0.916 2.117,2.466 0.773,4.15c-1.467,1.844 -2.8,3.816 -4.439,5.494c-1.717,1.761 -1.239,3.456 0.444,4.234c3.289,1.511 6.761,3.133 10.284,3.511c8.572,0.933 17.216,1.189 27.033,1.789" style="fill:#fedcc4;fill-rule:nonzero;"/></g><g><path d="M293.742,308.74c-2.089,1.589 -3.795,2.211 -4.217,3.317c-2.061,5.427 -4.4,10.877 -5.4,16.539c-0.661,3.755 -2.566,4.722 -5.394,4.938c-7.956,0.617 -15.917,1.284 -23.878,1.334c-7.756,0.055 -15.522,-0.55 -23.267,-1.028c-2.733,-0.167 -5.433,-0.8 -8.311,-1.25c-0.089,-3.189 1.639,-4.883 3.028,-6.694c1.061,-1.389 2.156,-1.684 3.772,-0.367c2.85,2.317 3.189,2.311 4.961,-0.933c4.495,-8.228 10.606,-15.2 16.717,-22.189c1.7,-1.945 3.706,-3.639 5.317,-5.65c0.677,-0.839 1.305,-2.584 0.889,-3.261c-1.078,-1.767 -2.684,-0.745 -3.85,0.211c-1.667,1.355 -3.378,2.744 -4.717,4.4c-5.3,6.533 -10.617,13.05 -15.589,19.822c-1.594,2.178 -2.572,2.739 -5.1,1.483c-7.85,-3.9 -15.861,-7.494 -24.367,-11.472c2.217,-2.611 4.072,-5.622 6.678,-7.717c8.406,-6.75 17.028,-13.25 25.717,-19.644c2.394,-1.761 5.194,-3.145 8,-4.15c9.405,-3.361 19.572,1.917 22.65,11.5c1.122,3.483 2.205,6.978 3.533,10.378c0.7,1.783 1.739,3.489 2.895,5.027c1.788,2.378 4.294,3.645 7.322,3.289c0.922,-0.111 1.761,-0.939 2.644,-1.433c-0.505,-0.806 -0.894,-1.717 -1.539,-2.383c-0.555,-0.584 -1.4,-0.889 -2.583,-1.595c4,-3.955 8.567,-6.055 13.522,-7.228c1.495,-0.361 3.372,0.356 4.956,0.917c10.461,3.672 21.083,6.206 32.294,5.656c3.95,-0.195 4.011,0.016 4.089,3.839c0.061,3.022 0.061,6.044 -0.05,9.066c-0.139,3.695 -0.972,4.645 -4.689,4.422c-7.094,-0.422 -14.172,-1.183 -21.261,-1.716c-3.439,-0.261 -6.894,-0.35 -10.344,-0.461c-5.184,-0.173 -5.184,-0.156 -4.428,-6.967" style="fill:#bf75b1;fill-rule:nonzero;"/></g><g><path d="M247.675,316.496c-0.033,-3.5 0.311,-7.162 1.134,-10.7c-5.089,5.888 -10.006,11.9 -13.773,18.8c-1.772,3.244 -2.111,3.25 -4.961,0.933c-1.616,-1.322 -2.711,-1.022 -3.772,0.367c-1.389,1.811 -3.117,3.505 -3.033,6.694c2.883,0.45 5.583,1.083 8.311,1.25c6.889,0.422 13.789,0.889 20.683,0.956c-3.289,-5.412 -4.533,-12.089 -4.589,-18.3" style="fill:#955a8b;fill-rule:nonzero;"/></g><g><path d="M217.697,313.718c6.573,-9.156 15.234,-17.078 24.834,-22.961c6.555,-4.006 14.261,-7.517 22.105,-8.039c-4.489,-6.106 -12.405,-8.967 -19.905,-6.295c-2.806,1.006 -5.606,2.389 -8,4.15c-8.689,6.4 -17.306,12.9 -25.711,19.65c-2.606,2.089 -4.467,5.106 -6.684,7.717c4.506,2.106 8.861,4.111 13.145,6.1c0.072,-0.106 0.139,-0.217 0.216,-0.322" style="fill:#955a8b;fill-rule:nonzero;"/></g><g><path d="M506.331,280.429c-2.683,2.861 -5.322,5.7 -7.989,8.517c-1.6,1.688 -3.522,2.305 -5.872,1.855c-4.684,-0.894 -9.395,-1.761 -13.134,-5c-3.766,-3.261 -7.816,-4.105 -12.605,-2.583c-7.311,2.339 -14.861,3.755 -22.133,6.461c-7.023,2.605 -14.589,3.805 -21.984,5.355c-16.261,3.395 -32.539,6.7 -48.85,9.856c-4.644,0.9 -9.405,1.217 -14.128,1.683c-5.361,0.523 -10.739,0.967 -16.116,1.356c-1.711,0.117 -3.517,0.211 -3.934,-2.245c-0.6,-3.561 0.095,-5.238 2.917,-6.088c6.394,-1.939 12.772,-3.962 19.228,-5.684c10.283,-2.739 20.2,-6.516 29.455,-11.639c7.017,-3.883 14.473,-5.383 22.139,-6.711c11.695,-2.028 23.367,-4.144 35.028,-6.339c4.9,-0.922 4.989,-1.361 3.445,-5.905c-0.889,-2.634 -1.634,-5.345 -2.078,-8.078c-0.722,-4.339 1.716,-7.439 4.683,-10.111c1.489,-1.35 3.289,-1.822 5.411,-1.167c2.678,0.822 5.472,1.234 8.172,1.972c6.495,1.778 13.05,2.767 19.828,2.434c3.422,-0.172 3.645,0.316 3.85,3.666c0.322,5.295 -0.644,7 -5.444,8.978c-4.756,1.961 -9.545,2.228 -14.522,0.517c-2.606,-0.889 -5.434,-1.256 -8.195,-1.522c-0.75,-0.073 -2.122,0.966 -2.289,1.7c-0.161,0.733 0.678,2.333 1.35,2.505c7.211,1.861 14.334,5.545 22,2.217c2.884,-1.256 4.567,-0.389 6.756,1.628c4.589,4.227 9.622,7.983 15.011,12.372" style="fill:#fedcc4;fill-rule:nonzero;"/></g><g><path d="M330.064,469.362c-6.289,3.1 -12.739,4.328 -19.144,4.45c-18.773,0.361 -37.567,0.639 -56.328,0.05c-13.978,-0.444 -27.917,-2.261 -41.128,-7.472c-1,-0.394 -2.039,-0.683 -3.061,-1.017c-1.861,-0.622 -2.378,-1.955 -1.417,-3.511c2.045,-3.294 4.245,-6.489 6.461,-9.677c1.311,-1.889 2.989,-1.106 4.628,-0.439c9.467,3.827 19.478,5.477 29.45,7.122c8.128,1.339 15.928,0.305 22.667,-5.045c0.339,-0.272 0.722,-0.483 1.061,-0.75c6.194,-4.861 12.711,-8.066 20.644,-4.027c13.089,1.861 23.578,8.933 33.678,16.777c0.5,0.395 0.861,0.967 1.239,1.495c0.372,0.517 0.672,1.083 1.25,2.044" style="fill:#00b8ad;fill-rule:nonzero;"/></g><g><path d="M304.614,489.529c-20.055,-0.483 -40.122,-0.806 -60.172,-1.528c-9.478,-0.344 -18.917,-1.572 -28.384,-2.194c-3.988,-0.261 -6.883,-2.445 -9.672,-4.778c-2.405,-2.022 -2.094,-10.406 0.411,-11.883c0.873,-0.517 2.461,-0.161 3.606,0.183c5.155,1.561 10.206,3.544 15.422,4.833c4.778,1.178 9.717,1.711 14.6,2.445c3.189,0.478 6.417,0.75 9.611,1.216c15.9,2.317 31.895,0.962 47.845,1.184c11.033,0.15 22,-0.511 32.505,-4.289c2.234,-0.8 3.139,-0.033 3.795,1.961c2.989,9.061 0.661,12.439 -8.834,12.533c-6.905,0.067 -13.816,0.017 -20.727,0.017c0,0.1 -0.006,0.2 -0.006,0.3" style="fill:#fff;fill-rule:nonzero;"/></g><g><path d="M185.803,348.996c2.933,8.05 8.205,11.061 15.344,12.705c9.561,2.2 19.2,2.695 28.862,3.172c8.6,0.428 17.233,0.089 26,1.084c-2.6,0.844 -5.173,1.805 -7.817,2.516c-8.745,2.356 -17.439,4.973 -26.289,6.862c-12.861,2.738 -25.761,5.538 -38.783,7.194c-12.284,1.561 -11.5,0.45 -7.495,-9.511c3.117,-7.75 6.506,-15.395 10.178,-24.022" style="fill:#955a8b;fill-rule:nonzero;"/></g><g><path d="M349.503,362.134c1.2,4.35 0.322,6.967 -0.956,9.512c-3.411,6.777 -7.6,12.989 -12.9,18.477c-7.622,7.9 -15.188,15.867 -22.622,23.956c-3.372,3.672 -6.266,7.733 -5.822,13.2c0.156,1.85 -0.894,2.828 -2.722,2.75c-2.5,-0.111 -5.122,0.872 -7.878,-0.822c2.444,-7.822 5.189,-15.517 10,-22.178c4.906,-6.811 10.289,-13.272 15.489,-19.861c2.261,-2.878 4.644,-5.661 6.878,-8.556c3.177,-4.133 5.733,-8.561 5.744,-14.594c5.317,2.133 10.506,4.889 14.789,-1.884" style="fill:#87caef;fill-rule:nonzero;"/></g><g><path d="M360.503,452.918c-6.983,0.978 -13.556,1.944 -20.144,2.811c-3.839,0.506 -7.689,1.072 -11.55,1.2c-2.05,0.067 -4.317,-0.372 -6.167,-1.25c-4.833,-2.306 -9.495,-4.972 -14.217,-7.511c-0.728,-0.395 -1.405,-0.889 -2.755,-1.745c1.933,-1.227 3.489,-2.138 4.955,-3.183c1.211,-0.861 2.889,-1.644 3.356,-2.855c1.7,-4.323 4.939,-4.367 8.866,-4.484c10.556,-0.328 19.939,2.956 28.745,8.3c3.422,2.084 6.961,4.222 8.911,8.717" style="fill:#00b8ad;fill-rule:nonzero;"/></g><g><path d="M448.036,229.934c-0.305,-0.116 -1.327,-0.377 -2.233,-0.861c-1.133,-0.611 -2.2,-1.361 -3.244,-2.111c-7.45,-5.372 -7.817,-9.05 -0.917,-15.35c4.111,-3.755 8.778,-6.911 13.183,-10.35c2.567,-2.005 5.206,-1.867 7.734,-0.067c1.572,1.112 2.927,2.528 4.389,3.789c2.05,1.761 2.511,3.745 1.383,6.323c-1.028,2.344 -1.389,4.988 -2.461,7.305c-2.778,5.978 -10.467,10.933 -17.834,11.322" style="fill:#f59aa5;fill-rule:nonzero;"/></g><g><path d="M220.281,446.546c2.322,-4.061 5.161,-5.523 9.694,-5.028c14.939,1.628 29.761,4.755 44.917,4.011c0.567,-0.022 1.144,0.272 2.45,0.6c-4.539,2.711 -8.511,5.211 -12.622,7.456c-1.25,0.683 -2.884,0.888 -4.35,0.938c-6.467,0.228 -12.9,0.245 -19.228,-1.611c-3.495,-1.022 -7.117,-1.616 -10.689,-2.4c-3.561,-0.783 -7,-1.855 -10.172,-3.966" style="fill:#fedcc4;fill-rule:nonzero;"/></g><g><path d="M331.042,461.523c2.417,-0.55 4.55,-1.211 6.739,-1.5c7.894,-1.038 15.811,-1.888 23.711,-2.95c1.772,-0.238 2.906,0.278 3.783,1.695c0.45,0.728 0.945,1.45 1.311,2.222c2.945,6.156 1.756,9.656 -5,10.795c-6.733,1.127 -13.711,0.888 -20.577,0.944c-1.167,0.006 -2.578,-1.356 -3.462,-2.428c-2.177,-2.655 -4.116,-5.516 -6.505,-8.778" style="fill:#fff;fill-rule:nonzero;"/></g><g><path d="M485.409,222.834c2.739,-0.605 3.761,-0.9 4.805,-1.044c9.161,-1.3 14.189,2.15 15.473,11.25c0.555,4.006 0.333,8.217 -0.189,12.25c-0.284,2.217 -1.611,4.511 -3.061,6.278c-0.934,1.133 -2.939,1.722 -4.506,1.816c-0.5,0.034 -1.167,-2.294 -1.711,-3.561c-0.172,-0.383 -0.067,-0.922 -0.295,-1.244c-3.944,-5.656 -1.877,-11.795 -1.344,-17.756c0.239,-2.65 0.305,-3.966 -3.167,-3.733c-1.544,0.111 -3.25,-2.206 -6.005,-4.256" style="fill:#fedcc4;fill-rule:nonzero;"/></g><g><path d="M185.464,86.579c-1.383,-7.356 2.272,-12.906 7.844,-16.856c5.656,-4 12.195,-3.9 18.345,-0.444c3.317,1.855 3.667,3.511 0.989,5.983c-2.156,1.983 -4.739,3.794 -7.456,4.817c-6.383,2.416 -12.961,4.311 -19.722,6.5" style="fill:#87caef;fill-rule:nonzero;"/></g><g><path d="M465.575,241.118c5.811,-4.211 9.323,-9.384 13.05,-14.389c1.828,-2.461 2.273,-2.422 4.428,-0.245c1.511,1.523 2.989,3.095 4.367,4.745c2.611,3.144 3.028,7.878 0.761,11.272c-0.589,0.878 -2.089,1.567 -3.195,1.595c-2.555,0.077 -5.155,-0.123 -7.677,-0.545c-3.939,-0.667 -7.828,-1.605 -11.734,-2.433" style="fill:#ffdd18;fill-rule:nonzero;"/></g><g><path d="M510.703,232.879c5.839,1.95 9.372,6.294 9.384,11.4c0.016,7.433 -3.484,13.122 -8.9,17.855c-0.484,0.417 -1.028,0.8 -1.606,1.073c-2.1,0.994 -4.333,1.222 -5.917,-0.661c-1.589,-1.878 -1.311,-4.167 0.478,-5.812c3.322,-3.061 5.245,-6.833 6.006,-11.155c0.477,-2.717 0.416,-5.533 0.544,-8.311c0.067,-1.445 0.011,-2.889 0.011,-4.389" style="fill:#fedcc4;fill-rule:nonzero;"/></g><g><path d="M554.553,265.629c0.078,2.044 -2.966,4.811 -5.544,4.472c-5.111,-0.667 -10.222,-1.533 -15.261,-2.678c-1.906,-0.427 -3.634,-2.244 -3.034,-4.339c0.589,-2.055 0,-4.894 2.939,-5.933c6.806,-2.411 17.045,1.178 20.495,7.272c0.211,0.361 0.272,0.8 0.405,1.206" style="fill:#fedcc4;fill-rule:nonzero;"/></g><g><path d="M453.009,233.884c4.294,-2.883 9.1,-5.116 12.489,-8.689c3.211,-3.383 4.944,-8.172 7.333,-12.355c0.094,0.05 0.35,0.1 0.467,0.25c6.405,8.133 5.455,6.533 0.65,13.533c-2.162,3.139 -4.773,6.078 -7.623,8.606c-3.35,2.967 -7.222,3.583 -11.016,0.372c-0.806,-0.683 -1.689,-1.261 -2.3,-1.717" style="fill:#87caef;fill-rule:nonzero;"/></g><g><path d="M513.264,274.284c-0.516,-0.305 -2.589,-0.838 -3.077,-2.027c-0.523,-1.273 0.405,-3.161 0.8,-4.761c0.088,-0.356 0.538,-0.667 0.888,-0.912c5.089,-3.577 8.634,-8.327 10.895,-14.111c0.25,-0.644 1.2,-1.45 1.789,-1.422c0.661,0.039 1.505,0.806 1.883,1.472c4.233,7.556 -3.494,21.506 -13.178,21.761" style="fill:#fedcc4;fill-rule:nonzero;"/></g><g><path d="M304.364,435.14c0.989,0.072 3.356,0.139 5.695,0.433c1.672,0.212 2.272,1.75 1.016,2.678c-4.9,3.634 -10.2,6.367 -16.566,5.672c-2.65,-0.288 -3.217,-1.444 -2.428,-4.038c1.239,-4.078 1.916,-4.595 6.405,-4.734c1.506,-0.05 3.006,-0.011 5.878,-0.011" style="fill:#fedcc4;fill-rule:nonzero;"/></g><g><path d="M534.464,277.129c1.223,2.183 2.561,4.094 3.411,6.205c1.117,2.784 -0.933,7.439 -3.688,8.723c-0.667,0.311 -1.756,0.339 -2.389,0c-2.584,-1.373 -5.067,-2.934 -7.473,-4.361c3.356,-3.495 6.4,-6.673 10.139,-10.567" style="fill:#fdbb24;fill-rule:nonzero;"/></g><g><path d="M528.631,268.146c0.967,2.588 1.922,3.811 1.722,4.816c-1.055,5.395 -4.516,9.095 -9.255,11.539c-0.834,0.433 -2.567,-0.083 -3.473,-0.739c-1.833,-1.344 -3.383,-3.072 -5.716,-5.272c7.611,-0.361 12.994,-2.922 16.722,-10.344" style="fill:#fedcc4;fill-rule:nonzero;"/></g><g><path d="M504.975,274.123c-4.538,-3.566 -8.839,-6.944 -13.339,-10.489c1.178,-1.344 1.939,-2.361 2.845,-3.211c2.628,-2.483 3.856,-2.261 4.5,1.178c0.444,2.367 1.644,3.778 3.494,5.006c3.445,2.283 3.417,2.327 2.5,7.516" style="fill:#ffdd18;fill-rule:nonzero;"/></g><g><path d="M541.42,290.834c1.383,2.5 2.678,4.834 4.489,8.123c-2.122,-0.773 -3.456,-1.089 -4.634,-1.711c-3.988,-2.078 -3.972,-2.117 0.145,-6.412" style="fill:#231f20;fill-rule:nonzero;"/></g><g><path d="M378.792,263.418c-3.144,8.983 -8.833,11.583 -17.344,7.478c-8.323,-4 -13.606,-10.506 -14.156,-20.023c-0.178,-3 -1.05,-4.227 -4.161,-4.172c-2.339,0.05 -4.717,-0.467 -7.017,-0.994c-0.9,-0.211 -1.628,-1.139 -2.433,-1.739c0.772,-0.606 1.478,-1.561 2.333,-1.739c1.667,-0.333 3.433,-0.395 5.145,-0.278c3.844,0.272 6.688,-1.383 8.855,-4.339c2.267,-3.094 4.406,-6.278 7.128,-10.183c0.605,1.994 1.55,3.417 1.261,4.511c-0.711,2.661 -1.45,5.611 -3.139,7.644c-4.594,5.545 -3.533,11.3 -1.017,16.889c2.956,6.561 8.545,10.489 15.684,10.795c2.794,0.116 5.705,-2.395 8.861,-3.85" style="fill:#231f20;fill-rule:nonzero;"/></g><g><path d="M406.986,162.107c0.084,4.905 -1.411,7.944 -3.938,8.6c-2.895,0.755 -5.978,-0.462 -8.034,-4.039c-1.566,-2.717 -2.622,-5.834 -3.35,-8.9c-0.533,-2.295 -0.072,-4.795 2.256,-6.273c2.055,-1.311 6.322,-0.816 8.539,0.906c3.344,2.606 4.166,6.344 4.527,9.706" style="fill:#231f20;fill-rule:nonzero;"/></g><g><path d="M357.642,135.901c0.778,-8.894 4.917,-14.811 11.65,-19.044c0.844,-0.534 2.028,-0.756 3.039,-0.723c0.711,0.028 1.722,0.578 2.011,1.178c0.306,0.611 0.178,1.828 -0.267,2.322c-0.989,1.095 -2.305,1.895 -3.466,2.834c-5.134,4.155 -8.128,9.277 -7.595,16.133c0.15,1.906 0.017,3.861 -0.261,5.756c-0.094,0.638 -1.011,1.566 -1.611,1.616c-0.578,0.045 -1.644,-0.772 -1.789,-1.383c-0.744,-3.106 -1.256,-6.267 -1.711,-8.689" style="fill:#231f20;fill-rule:nonzero;"/></g><g><path d="M250.536,233.523c-0.427,-8.344 4.334,-12.133 11.667,-9.183c3.072,1.239 5.811,3.639 8.272,5.972c2.306,2.195 4.111,4.934 5.984,7.55c0.344,0.478 -0.045,1.489 -0.095,2.25c-0.8,-0.089 -1.822,0.089 -2.361,-0.333c-1.683,-1.333 -3.15,-2.922 -4.767,-4.345c-1.605,-1.422 -3.194,-2.9 -4.955,-4.111c-5.434,-3.711 -7.284,-3.455 -12.161,1.323c-0.289,0.277 -0.728,0.411 -1.584,0.877" style="fill:#231f20;fill-rule:nonzero;"/></g><g><path d="M732.659,15.373l0,39.372c0,21.745 17.628,39.367 39.372,39.367l574.801,0l0,-39.367c0,-21.744 -17.628,-39.372 -39.367,-39.372l-574.806,0Z" style="fill:#008fd4;fill-rule:nonzero;"/></g><g><g><path d="M814.187,53.273l-15.522,0l0,-10.633l16.438,0l0,-6.172l-23.955,0l0,41.188l24.872,0l0,-6.172l-17.355,0l0,-12.1l15.522,0l0,-6.111Z" style="fill:#fff;fill-rule:nonzero;"/><path d="M822.315,77.656l7.516,0l0,-17.538c0,-0.856 0.122,-1.773 0.367,-2.384c0.794,-2.261 2.872,-4.4 5.867,-4.4c4.094,0 5.683,3.239 5.683,7.517l0,16.805l7.517,0l0,-17.661c0,-9.411 -5.378,-12.772 -10.573,-12.772c-4.95,0 -8.189,2.811 -9.533,5.133l-0.183,0l-0.367,-4.461l-6.539,0c0.122,2.567 0.245,5.439 0.245,8.861l0,20.9Z" style="fill:#fff;fill-rule:nonzero;"/><path d="M858.187,42.334l0,5.561l-4.217,0l0,5.623l4.217,0l0,13.994c0,3.911 0.733,6.661 2.383,8.372c1.406,1.528 3.667,2.445 6.478,2.445c2.322,0 4.339,-0.367 5.439,-0.795l-0.122,-5.683c-0.856,0.244 -1.589,0.305 -2.934,0.305c-2.872,0 -3.85,-1.833 -3.85,-5.5l0,-13.138l7.15,0l0,-5.623l-7.15,0l0,-7.639l-7.394,2.078Z" style="fill:#fff;fill-rule:nonzero;"/></g><g><path d="M903.281,64.884c0.122,-0.672 0.245,-1.772 0.245,-3.178c0,-6.538 -3.178,-14.483 -12.834,-14.483c-9.533,0 -14.544,7.761 -14.544,16.011c0,9.106 5.683,15.034 15.339,15.034c4.278,0 7.822,-0.795 10.389,-1.895l-1.1,-5.133c-2.323,0.794 -4.767,1.344 -8.25,1.344c-4.828,0 -8.984,-2.322 -9.167,-7.7l19.922,0Zm-19.922,-5.255c0.306,-3.056 2.261,-7.273 6.906,-7.273c5.011,0 6.233,4.523 6.172,7.273l-13.078,0Z" style="fill:#fff;fill-rule:nonzero;"/><path d="M909.576,77.656l7.516,0l0,-15.461c0,-0.794 0.062,-1.589 0.184,-2.261c0.672,-3.422 3.178,-5.683 6.722,-5.683c0.917,0 1.589,0.061 2.261,0.183l0,-7.028c-0.611,-0.122 -1.039,-0.183 -1.772,-0.183c-3.239,0 -6.722,2.139 -8.189,6.295l-0.183,0l-0.306,-5.623l-6.478,0c0.184,2.628 0.245,5.561 0.245,9.595l0,20.166Z" style="fill:#fff;fill-rule:nonzero;"/><path d="M944.287,47.223c-8.983,0 -15.4,5.989 -15.4,15.767c0,9.594 6.539,15.339 14.911,15.339c7.578,0 15.278,-4.889 15.278,-15.828c0,-9.045 -5.928,-15.278 -14.789,-15.278Zm-0.183,5.439c5.133,0 7.211,5.378 7.211,10.022c0,6.05 -2.995,10.206 -7.273,10.206c-4.522,0 -7.394,-4.339 -7.394,-10.084c0,-4.95 2.139,-10.144 7.456,-10.144Z" style="fill:#fff;fill-rule:nonzero;"/><path d="M977.898,89.756l7.517,0l0,-15.4l0.122,0c1.528,2.384 4.644,3.973 8.372,3.973c6.783,0 13.567,-5.195 13.567,-15.95c0,-9.289 -5.684,-15.156 -12.528,-15.156c-4.522,0 -8.006,1.895 -10.206,5.256l-0.122,0l-0.366,-4.584l-6.6,0c0.122,2.811 0.244,5.989 0.244,9.9l0,31.961Zm7.517,-29.15c0,-0.611 0.122,-1.283 0.244,-1.894c0.795,-3.3 3.667,-5.561 6.783,-5.561c4.828,0 7.395,4.278 7.395,9.533c0,5.867 -2.811,9.839 -7.578,9.839c-3.239,0 -5.867,-2.2 -6.661,-5.255c-0.122,-0.673 -0.183,-1.345 -0.183,-2.078l0,-4.584Z" style="fill:#fff;fill-rule:nonzero;"/><path d="M1027.15,47.223c-8.984,0 -15.4,5.989 -15.4,15.767c0,9.594 6.538,15.339 14.911,15.339c7.577,0 15.277,-4.889 15.277,-15.828c0,-9.045 -5.927,-15.278 -14.788,-15.278Zm-0.184,5.439c5.134,0 7.211,5.378 7.211,10.022c0,6.05 -2.994,10.206 -7.272,10.206c-4.522,0 -7.394,-4.339 -7.394,-10.084c0,-4.95 2.139,-10.144 7.455,-10.144Z" style="fill:#fff;fill-rule:nonzero;"/><path d="M1048.12,77.656l7.516,0l0,-15.461c0,-0.794 0.062,-1.589 0.184,-2.261c0.672,-3.422 3.178,-5.683 6.722,-5.683c0.917,0 1.589,0.061 2.261,0.183l0,-7.028c-0.611,-0.122 -1.039,-0.183 -1.772,-0.183c-3.239,0 -6.722,2.139 -8.189,6.295l-0.183,0l-0.306,-5.623l-6.478,0c0.184,2.628 0.245,5.561 0.245,9.595l0,20.166Z" style="fill:#fff;fill-rule:nonzero;"/><path d="M1090.89,77.656l0,-24.138l6.416,0l0,-5.623l-6.478,0l0,-1.527c0,-3.667 1.223,-6.784 4.95,-6.784c1.406,0 2.384,0.245 3.239,0.55l0.489,-5.805c-1.161,-0.367 -2.75,-0.734 -4.766,-0.734c-2.628,0 -5.562,0.795 -7.762,2.873c-2.566,2.444 -3.605,6.294 -3.605,10.144l0,1.283l-4.033,0l0,5.623l4.033,0l0,24.138l7.517,0Z" style="fill:#fff;fill-rule:nonzero;"/><path d="M1102.02,77.656l7.516,0l0,-15.461c0,-0.794 0.062,-1.589 0.184,-2.261c0.672,-3.422 3.178,-5.683 6.722,-5.683c0.917,0 1.589,0.061 2.261,0.183l0,-7.028c-0.611,-0.122 -1.039,-0.183 -1.772,-0.183c-3.239,0 -6.722,2.139 -8.189,6.295l-0.183,0l-0.306,-5.623l-6.478,0c0.184,2.628 0.245,5.561 0.245,9.595l0,20.166Z" style="fill:#fff;fill-rule:nonzero;"/></g><g><path d="M1146.32,59.812c0,-6.539 -2.75,-12.589 -12.283,-12.589c-4.706,0 -8.556,1.283 -10.756,2.628l1.467,4.889c2.017,-1.284 5.072,-2.2 8.006,-2.2c5.255,0 6.05,3.239 6.05,5.194l0,0.489c-11,-0.061 -17.661,3.789 -17.661,11.245c0,4.522 3.361,8.861 9.35,8.861c3.911,0 7.027,-1.65 8.8,-3.973l0.183,0l0.55,3.3l6.783,0c-0.366,-1.833 -0.489,-4.461 -0.489,-7.15l0,-10.694Zm-7.333,7.394c0,0.55 0,1.1 -0.183,1.65c-0.734,2.139 -2.873,4.095 -5.928,4.095c-2.383,0 -4.278,-1.345 -4.278,-4.278c0,-4.522 5.072,-5.622 10.389,-5.561l0,4.094Z" style="fill:#fff;fill-rule:nonzero;"/><path d="M1175.1,71.179c-1.467,0.611 -3.361,1.161 -5.928,1.161c-5.133,0 -9.106,-3.484 -9.106,-9.595c-0.061,-5.439 3.361,-9.655 9.106,-9.655c2.689,0 4.461,0.55 5.683,1.161l1.345,-5.683c-1.711,-0.734 -4.523,-1.345 -7.273,-1.345c-10.45,0 -16.561,6.906 -16.561,15.828c0,9.228 6.05,15.217 15.339,15.217c3.728,0 6.845,-0.795 8.434,-1.528l-1.039,-5.561Z" style="fill:#fff;fill-rule:nonzero;"/><path d="M1201.99,71.179c-1.467,0.611 -3.361,1.161 -5.928,1.161c-5.134,0 -9.106,-3.484 -9.106,-9.595c-0.061,-5.439 3.361,-9.655 9.106,-9.655c2.689,0 4.461,0.55 5.683,1.161l1.345,-5.683c-1.711,-0.734 -4.523,-1.345 -7.273,-1.345c-10.45,0 -16.561,6.906 -16.561,15.828c0,9.228 6.05,15.217 15.339,15.217c3.728,0 6.845,-0.795 8.434,-1.528l-1.039,-5.561Z" style="fill:#fff;fill-rule:nonzero;"/><path d="M1216.11,77.656l0,-29.761l-7.516,0l0,29.761l7.516,0Zm-3.727,-42.166c-2.506,0 -4.217,1.772 -4.217,4.094c0,2.2 1.65,4.034 4.155,4.034c2.628,0 4.278,-1.834 4.278,-4.034c-0.061,-2.322 -1.65,-4.094 -4.216,-4.094Z" style="fill:#fff;fill-rule:nonzero;"/><path d="M1237.74,47.223c-8.984,0 -15.4,5.989 -15.4,15.767c0,9.594 6.539,15.339 14.911,15.339c7.578,0 15.278,-4.889 15.278,-15.828c0,-9.045 -5.928,-15.278 -14.789,-15.278Zm-0.184,5.439c5.134,0 7.211,5.378 7.211,10.022c0,6.05 -2.994,10.206 -7.272,10.206c-4.522,0 -7.394,-4.339 -7.394,-10.084c0,-4.95 2.139,-10.144 7.455,-10.144Zm1.467,-17.661l-5.317,9.044l5.195,0l7.455,-9.044l-7.333,0Z" style="fill:#fff;fill-rule:nonzero;"/><path d="M1258.7,77.656l7.516,0l0,-17.538c0,-0.856 0.123,-1.773 0.367,-2.384c0.795,-2.261 2.872,-4.4 5.867,-4.4c4.094,0 5.683,3.239 5.683,7.517l0,16.805l7.517,0l0,-17.661c0,-9.411 -5.378,-12.772 -10.572,-12.772c-4.95,0 -8.189,2.811 -9.534,5.133l-0.183,0l-0.367,-4.461l-6.539,0c0.123,2.567 0.245,5.439 0.245,8.861l0,20.9Z" style="fill:#fff;fill-rule:nonzero;"/></g></g></g></svg>