<?xml version="1.0" encoding="UTF-8" standalone="no"?>
<!DOCTYPE svg PUBLIC "-//W3C//DTD SVG 1.1//EN" "http://www.w3.org/Graphics/SVG/1.1/DTD/svg11.dtd">
<svg width="100%" height="100%" viewBox="0 0 2400 787" version="1.1" xmlns="http://www.w3.org/2000/svg" xmlns:xlink="http://www.w3.org/1999/xlink" xml:space="preserve" xmlns:serif="http://www.serif.com/" style="fill-rule:evenodd;clip-rule:evenodd;stroke-linecap:round;stroke-linejoin:round;stroke-miterlimit:1.5;">
    <g transform="matrix(1,0,0,1,-4216.11,-15263.1)">
        <g transform="matrix(5.55556,0,0,5.55556,3631.89,14350.4)">
            <g transform="matrix(0.227591,0,0,0.180476,-788.364,-2443.97)">
                <path d="M5813,14655.2C5813,14550.8 5745.76,14466 5662.93,14466L4087.07,14466C4004.24,14466 3937,14550.8 3937,14655.2L3937,15033.8C3937,15138.2 4004.24,15223 4087.07,15223L5662.93,15223C5745.76,15223 5813,15138.2 5813,15033.8L5813,14655.2Z" style="fill:white;stroke:rgb(112,238,255);stroke-width:24.34px;"/>
            </g>
        </g>
        <g transform="matrix(5.55556,0,0,5.55556,3631.89,14350.4)">
            <text x="230.303px" y="247.689px" style="font-family:'MyriadPro-Semibold', 'Myriad Pro', sans-serif;font-weight:600;font-size:11px;fill:rgb(35,31,32);">2<tspan x="236.408px 242.513px 248.618px 251.104px " y="247.689px 247.689px 247.689px 247.689px ">20 ×</tspan></text>
            <g>
                <text x="262.512px" y="241.689px" style="font-family:'MyriadPro-Semibold', 'Myriad Pro', sans-serif;font-weight:600;font-size:10px;fill:rgb(113,191,68);">3</text>
                <text x="262.512px" y="252.689px" style="font-family:'MyriadPro-Semibold', 'Myriad Pro', sans-serif;font-weight:600;font-size:10px;fill:rgb(246,139,30);">4</text>
            </g>
            <text x="273.179px" y="247.689px" style="font-family:'MyriadPro-Semibold', 'Myriad Pro', sans-serif;font-weight:600;font-size:11px;fill:rgb(35,31,32);">=</text>
            <g>
                <text x="284.97px" y="241.689px" style="font-family:'MyriadPro-Semibold', 'Myriad Pro', sans-serif;font-weight:600;font-size:10px;fill:rgb(35,31,32);">2<tspan x="290.52px 296.07px " y="241.689px 241.689px ">20</tspan></text>
                <text x="290.52px" y="252.689px" style="font-family:'MyriadPro-Semibold', 'Myriad Pro', sans-serif;font-weight:600;font-size:10px;fill:rgb(35,31,32);">1</text>
            </g>
            <text x="306.856px" y="247.689px" style="font-family:'MyriadPro-Semibold', 'Myriad Pro', sans-serif;font-weight:600;font-size:11px;fill:rgb(35,31,32);">×</text>
            <g>
                <text x="318.528px" y="241.689px" style="font-family:'MyriadPro-Semibold', 'Myriad Pro', sans-serif;font-weight:600;font-size:10px;fill:rgb(113,191,68);">3</text>
                <text x="318.528px" y="252.689px" style="font-family:'MyriadPro-Semibold', 'Myriad Pro', sans-serif;font-weight:600;font-size:10px;fill:rgb(246,139,30);">4</text>
            </g>
            <text x="329.194px" y="247.689px" style="font-family:'MyriadPro-Semibold', 'Myriad Pro', sans-serif;font-weight:600;font-size:11px;fill:rgb(35,31,32);">=</text>
            <g>
                <text x="340.986px" y="241.689px" style="font-family:'MyriadPro-Semibold', 'Myriad Pro', sans-serif;font-weight:600;font-size:10px;fill:rgb(35,31,32);">6<tspan x="346.536px 352.086px " y="241.689px 241.689px ">60</tspan></text>
                <text x="346.536px" y="252.689px" style="font-family:'MyriadPro-Semibold', 'Myriad Pro', sans-serif;font-weight:600;font-size:10px;fill:rgb(246,139,30);">4</text>
            </g>
            <g>
                <text x="362.871px" y="247.689px" style="font-family:'MyriadPro-Semibold', 'Myriad Pro', sans-serif;font-weight:600;font-size:11px;fill:rgb(35,31,32);">=</text>
                <text x="371.983px" y="247.689px" style="font-family:'MyriadPro-Semibold', 'Myriad Pro', sans-serif;font-weight:600;font-size:11px;fill:rgb(0,143,212);">1<tspan x="378.018px 384.053px " y="247.689px 247.689px ">65</tspan></text>
            </g>
            <g transform="matrix(1,0,0,1,260.09,244.356)">
                <path d="M0,0L10.394,0" style="fill:none;fill-rule:nonzero;stroke:rgb(35,31,32);stroke-width:0.7px;stroke-linecap:butt;stroke-linejoin:miter;stroke-miterlimit:4;"/>
            </g>
            <g transform="matrix(1,0,0,1,282.901,244.356)">
                <path d="M0,0L20.787,0" style="fill:none;fill-rule:nonzero;stroke:rgb(35,31,32);stroke-width:0.7px;stroke-linecap:butt;stroke-linejoin:miter;stroke-miterlimit:4;"/>
            </g>
            <g transform="matrix(1,0,0,1,316.106,244.356)">
                <path d="M0,0L10.394,0" style="fill:none;fill-rule:nonzero;stroke:rgb(35,31,32);stroke-width:0.7px;stroke-linecap:butt;stroke-linejoin:miter;stroke-miterlimit:4;"/>
            </g>
            <g transform="matrix(1,0,0,1,338.917,244.356)">
                <path d="M0,0L20.787,0" style="fill:none;fill-rule:nonzero;stroke:rgb(35,31,32);stroke-width:0.7px;stroke-linecap:butt;stroke-linejoin:miter;stroke-miterlimit:4;"/>
            </g>
            <g transform="matrix(0,-1,-1,0,167.853,193.303)">
                <path d="M-44.868,-44.868C-68.171,-44.868 -87.062,-24.78 -87.062,0C-87.062,24.781 -68.171,44.868 -44.868,44.868C-21.565,44.868 -2.674,24.781 -2.674,0C-2.674,-24.78 -21.565,-44.868 -44.868,-44.868" style="fill:rgb(255,205,93);fill-rule:nonzero;"/>
            </g>
            <g transform="matrix(1,0,0,1,195.528,233.765)">
                <path d="M0,-7.072C-0.521,-6.936 -1.076,-7.155 -1.446,-7.799C-1.728,-8.289 -1.918,-8.849 -2.048,-9.401C-2.146,-9.814 -2.062,-10.264 -1.643,-10.53C-1.273,-10.766 -0.504,-10.677 -0.106,-10.367C0.497,-9.898 0.645,-9.225 0.709,-8.62C0.724,-7.737 0.455,-7.19 0,-7.072M-7.489,10.962C-8.986,10.242 -9.938,9.071 -10.037,7.358C-10.068,6.818 -10.226,6.596 -10.786,6.607C-11.206,6.616 -11.634,6.523 -12.049,6.428C-12.21,6.39 -12.342,6.223 -12.486,6.114C-12.347,6.006 -12.221,5.834 -12.066,5.802C-11.766,5.742 -11.448,5.73 -11.14,5.752C-10.449,5.801 -9.937,5.503 -9.546,4.971C-9.138,4.414 -8.754,3.841 -8.263,3.138C-8.154,3.497 -7.984,3.753 -8.036,3.95C-8.164,4.428 -8.298,4.96 -8.602,5.326C-9.429,6.324 -9.238,7.36 -8.785,8.366C-8.253,9.547 -7.246,10.254 -5.962,10.309C-5.458,10.33 -4.934,9.878 -4.366,9.616C-4.932,11.233 -5.957,11.701 -7.489,10.962M-6.077,-16.765C-5.925,-16.86 -5.712,-16.901 -5.53,-16.894C-5.402,-16.89 -5.221,-16.79 -5.167,-16.682C-5.114,-16.573 -5.136,-16.354 -5.216,-16.264C-5.394,-16.067 -5.63,-15.924 -5.839,-15.754C-6.763,-15.007 -7.302,-14.085 -7.206,-12.851C-7.18,-12.508 -7.203,-12.155 -7.254,-11.815C-7.27,-11.699 -7.435,-11.533 -7.543,-11.523C-7.647,-11.515 -7.839,-11.663 -7.866,-11.772C-7.999,-12.331 -8.091,-12.9 -8.174,-13.337C-8.034,-14.938 -7.289,-16.002 -6.077,-16.765M-22.803,5.422C-22.947,5.405 -23.131,5.438 -23.228,5.361C-23.531,5.122 -23.795,4.835 -24.086,4.579C-24.375,4.323 -24.661,4.057 -24.978,3.839C-25.956,3.171 -26.289,3.217 -27.166,4.077C-27.219,4.127 -27.298,4.151 -27.452,4.235C-27.529,2.732 -26.672,2.05 -25.352,2.582C-24.799,2.806 -24.306,3.238 -23.863,3.658C-23.448,4.051 -23.123,4.546 -22.786,5.015C-22.724,5.102 -22.794,5.284 -22.803,5.422M7.294,-7.514C6.615,-8.428 5.428,-9.063 4.26,-7.702C3.916,-7.302 3.702,-6.782 3.468,-6.298C3.351,-6.059 3.338,-5.771 3.245,-5.518C3.214,-5.431 3.082,-5.334 2.991,-5.33C2.894,-5.326 2.742,-5.404 2.705,-5.486C2.63,-5.658 2.547,-5.874 2.589,-6.041C2.727,-6.597 2.838,-7.186 3.114,-7.673C3.376,-8.136 3.417,-8.517 3.202,-8.974C2.575,-10.309 2.064,-11.71 1.319,-12.974C-0.774,-16.532 -3.542,-19.517 -6.786,-22.063C-7.757,-22.826 -7.757,-22.818 -8.717,-21.967C-8.978,-21.736 -9.27,-21.539 -9.536,-21.313C-9.98,-20.935 -10.45,-20.579 -10.843,-20.154C-11.986,-18.919 -12.394,-17.487 -11.854,-15.85C-11.672,-15.297 -11.458,-14.754 -11.263,-14.206C-10.71,-12.649 -10.982,-11.221 -11.953,-9.911C-12.23,-9.538 -12.513,-9.16 -12.844,-8.836C-13.454,-8.238 -14.07,-7.638 -14.741,-7.113C-15.883,-6.221 -16.099,-5.101 -15.714,-3.783C-15.495,-3.038 -15.286,-2.29 -15.071,-1.543C-14.77,-0.488 -14.621,0.589 -14.721,1.682C-14.77,2.234 -14.777,2.865 -15.502,3.069C-16.186,1.57 -17.066,0.882 -19.277,0.089C-19.649,0.589 -19.962,1.145 -20.404,1.566C-20.85,1.991 -21.271,2.386 -21.282,3.178C-21.644,2.887 -21.94,2.74 -22.105,2.502C-22.982,1.234 -24.298,0.961 -25.69,0.912C-27.334,0.855 -28.677,1.826 -29.094,3.388C-29.635,5.41 -29.155,6.693 -27.627,7.634C-26.644,8.24 -25.549,8.467 -24.406,8.533C-23.514,8.583 -22.81,8.298 -22.326,7.52C-22.207,7.33 -22.035,7.174 -21.765,6.858C-21.742,8.493 -22.487,9.354 -23.9,9.449C-25.578,9.561 -27.147,9.182 -28.534,8.191C-29.153,7.749 -29.586,7.198 -29.869,6.546C-30.358,7.174 -30.83,7.814 -30.966,8.612C-30.176,9.181 -29.347,9.649 -28.376,9.878C-27.947,9.978 -27.471,10.211 -27.197,10.537C-26.958,10.818 -26.703,10.975 -26.405,11.15C-24.986,11.984 -23.656,12.902 -23.341,14.702C-23.27,15.106 -23.117,15.51 -22.748,15.754C-21.734,14.839 -20.659,14.174 -19.276,14.39C-18.321,14.54 -17.38,14.786 -16.433,14.989C-13.942,15.522 -11.494,15.396 -9.094,14.511C-8.694,14.364 -8.281,14.244 -7.866,14.142C-5.856,13.646 -3.951,12.865 -2.091,11.974C0.156,10.898 1.705,9.161 2.57,6.837C2.989,5.71 3.364,4.562 3.666,3.398C4.082,1.795 4.183,0.166 3.724,-1.476C3.962,-1.552 4.178,-1.657 4.405,-1.687C5.246,-1.798 5.951,-2.194 6.606,-2.695C8.045,-3.798 8.382,-6.049 7.294,-7.514" style="fill:rgb(254,220,196);fill-rule:nonzero;"/>
            </g>
            <g transform="matrix(1,0,0,1,172.725,221.27)">
                <path d="M0,17.916C-0.144,17.899 -0.328,17.932 -0.425,17.855C-0.728,17.616 -0.992,17.33 -1.282,17.074C-1.572,16.818 -1.858,16.551 -2.175,16.334C-3.153,15.666 -3.486,15.711 -4.364,16.57C-4.416,16.622 -4.495,16.646 -4.649,16.73C-4.726,15.226 -3.869,14.545 -2.55,15.077C-1.996,15.299 -1.502,15.733 -1.06,16.151C-0.645,16.546 -0.32,17.04 0.017,17.51C0.079,17.597 0.009,17.778 0,17.916M1.222,26.223C1.11,25.456 1.126,24.67 1.222,23.902C1.312,23.178 1.476,22.475 1.768,21.804C2.307,20.57 3.158,19.185 2.218,17.918C2.165,17.846 2.142,17.716 2.234,17.659C2.541,17.47 2.867,17.325 3.217,17.237C4.701,16.862 6.231,17.34 7.71,17.504C8.465,17.588 9.195,17.573 9.924,17.345C10.496,17.166 11.082,16.899 11.481,16.436C12.154,15.653 12.05,14.57 11.851,13.63C11.623,12.544 11.234,11.49 11.104,10.384C11.038,9.821 11.05,9.252 11.214,8.704C11.401,8.078 11.794,7.553 12.291,7.137C13.338,6.259 14.694,5.834 15.64,4.819C16,4.432 16.268,3.977 16.377,3.456C16.505,2.846 16.428,2.206 16.31,1.601C16.154,0.794 15.915,0.013 15.614,-0.752C15.606,-0.771 15.598,-0.79 15.59,-0.81C15.583,-0.663 15.584,-0.513 15.597,-0.357C15.623,-0.014 15.6,0.338 15.55,0.679C15.533,0.795 15.368,0.962 15.26,0.97C15.156,0.979 14.964,0.831 14.938,0.722C14.804,0.163 14.712,-0.406 14.63,-0.842C14.678,-1.399 14.804,-1.886 14.994,-2.323C14.893,-2.585 14.789,-2.846 14.702,-3.114C14.218,-4.618 14.163,-6.25 15.086,-7.603C15.469,-8.165 16.014,-8.698 16.642,-9.058C16.434,-9.229 16.23,-9.402 16.017,-9.569C15.046,-10.332 15.046,-10.324 14.086,-9.473C13.825,-9.242 13.533,-9.046 13.266,-8.818C12.823,-8.441 12.354,-8.085 11.96,-7.659C10.817,-6.425 10.409,-4.993 10.949,-3.356C11.131,-2.802 11.345,-2.26 11.54,-1.711C12.093,-0.154 11.821,1.274 10.85,2.582C10.573,2.956 10.29,3.334 9.959,3.658C9.349,4.256 8.734,4.856 8.062,5.382C6.92,6.274 6.704,7.394 7.09,8.711C7.308,9.457 7.518,10.205 7.732,10.951C8.034,12.006 8.182,13.083 8.082,14.176C8.033,14.728 8.026,15.359 7.301,15.563C6.617,14.065 5.737,13.377 3.526,12.583C3.154,13.082 2.841,13.639 2.399,14.06C1.953,14.485 1.532,14.88 1.521,15.673C1.159,15.382 0.863,15.234 0.698,14.996C-0.178,13.728 -1.495,13.454 -2.886,13.406C-4.53,13.35 -5.874,14.321 -6.291,15.882C-6.832,17.903 -6.352,19.187 -4.824,20.129C-3.841,20.734 -2.746,20.962 -1.603,21.027C-0.71,21.078 -0.006,20.793 0.478,20.014C0.596,19.825 0.768,19.668 1.038,19.352C1.061,20.986 0.316,21.849 -1.098,21.943C-2.774,22.055 -4.344,21.676 -5.73,20.685C-6.35,20.243 -6.782,19.693 -7.066,19.041C-7.554,19.669 -8.027,20.308 -8.164,21.106C-7.373,21.675 -6.544,22.143 -5.573,22.371C-5.144,22.472 -4.668,22.706 -4.394,23.031C-4.154,23.313 -3.9,23.47 -3.602,23.645C-2.183,24.478 -0.853,25.396 -0.538,27.197C-0.466,27.6 -0.314,28.004 0.055,28.248C0.509,27.838 0.976,27.486 1.476,27.233C1.35,26.906 1.272,26.559 1.222,26.223" style="fill:rgb(252,197,159);fill-rule:nonzero;"/>
            </g>
            <g transform="matrix(1,0,0,1,220.435,236.915)">
                <path d="M0,11.401C-0.741,12.174 -0.744,12.181 -0.026,12.555C0.186,12.667 0.426,12.724 0.808,12.863C0.482,12.271 0.249,11.851 0,11.401M-6.56,8.393C-6.395,7.459 -6.39,7.451 -7.01,7.04C-7.343,6.819 -7.559,6.565 -7.639,6.139C-7.755,5.52 -7.976,5.481 -8.45,5.927C-8.613,6.08 -8.75,6.263 -8.962,6.505C-8.151,7.143 -7.377,7.751 -6.56,8.393M-2.302,7.317C-2.973,8.653 -3.942,9.114 -5.311,9.179C-4.891,9.575 -4.613,9.886 -4.282,10.128C-4.12,10.246 -3.808,10.339 -3.658,10.261C-2.805,9.821 -2.182,9.155 -1.991,8.184C-1.956,8.003 -2.127,7.783 -2.302,7.317M-1.251,8.934C-1.924,9.635 -2.472,10.207 -3.077,10.836C-2.643,11.093 -2.197,11.374 -1.732,11.621C-1.618,11.682 -1.422,11.677 -1.302,11.621C-0.806,11.39 -0.436,10.551 -0.638,10.051C-0.791,9.671 -1.032,9.327 -1.251,8.934M-42.67,37.375C-43.186,37.375 -43.457,37.368 -43.727,37.377C-44.536,37.403 -44.658,37.495 -44.881,38.23C-45.022,38.697 -44.921,38.904 -44.444,38.956C-43.298,39.081 -42.343,38.589 -41.462,37.935C-41.235,37.768 -41.343,37.491 -41.645,37.454C-42.066,37.401 -42.491,37.388 -42.67,37.375M-5.068,8.422C-3.325,8.375 -1.934,5.865 -2.696,4.505C-2.764,4.385 -2.916,4.247 -3.035,4.239C-3.141,4.235 -3.312,4.379 -3.357,4.496C-3.764,5.536 -4.402,6.391 -5.318,7.035C-5.381,7.079 -5.462,7.135 -5.478,7.199C-5.549,7.487 -5.716,7.828 -5.622,8.057C-5.534,8.27 -5.161,8.367 -5.068,8.422M-15.914,1.15C-15.804,1.231 -15.645,1.335 -15.5,1.459C-14.817,2.037 -14.12,1.925 -13.517,1.391C-13.003,0.937 -12.534,0.407 -12.145,-0.158C-11.279,-1.418 -11.109,-1.129 -12.262,-2.593C-12.283,-2.621 -12.329,-2.63 -12.346,-2.639C-12.776,-1.886 -13.087,-1.024 -13.666,-0.414C-14.276,0.229 -15.141,0.63 -15.914,1.15M2.365,6.864C2.341,6.791 2.329,6.712 2.292,6.647C1.671,5.551 -0.172,4.904 -1.397,5.338C-1.927,5.525 -1.821,6.036 -1.926,6.407C-2.034,6.784 -1.724,7.11 -1.38,7.187C-0.474,7.393 0.446,7.55 1.367,7.669C1.831,7.73 2.379,7.232 2.365,6.864M-37.834,17.164C-39.183,17.037 -40.457,16.921 -41.73,16.795C-42.271,16.743 -42.809,16.634 -43.35,16.613C-45.256,16.539 -45.258,16.549 -45.74,18.448C-45.754,18.506 -45.703,18.581 -45.662,18.714C-43.094,18.206 -40.519,17.695 -37.834,17.164M-5.529,0.969C-5.529,1.239 -5.519,1.499 -5.531,1.759C-5.554,2.259 -5.543,2.766 -5.63,3.255C-5.766,4.033 -6.113,4.712 -6.71,5.263C-7.033,5.559 -7.082,5.971 -6.797,6.309C-6.511,6.648 -6.109,6.607 -5.73,6.428C-5.627,6.379 -5.529,6.31 -5.442,6.235C-4.467,5.383 -3.837,4.359 -3.84,3.021C-3.842,2.101 -4.478,1.32 -5.529,0.969M-13.651,2.451C-12.948,2.6 -12.248,2.77 -11.54,2.889C-11.086,2.966 -10.618,3.001 -10.158,2.988C-9.959,2.983 -9.688,2.859 -9.582,2.701C-9.175,2.09 -9.25,1.238 -9.72,0.672C-9.967,0.375 -10.233,0.091 -10.505,-0.183C-10.893,-0.574 -10.974,-0.581 -11.303,-0.138C-11.973,0.763 -12.606,1.694 -13.651,2.451M-64.072,-25.365C-62.855,-25.76 -61.671,-26.101 -60.522,-26.535C-60.034,-26.72 -59.568,-27.045 -59.181,-27.402C-58.699,-27.847 -58.762,-28.145 -59.358,-28.48C-60.466,-29.101 -61.642,-29.12 -62.66,-28.399C-63.664,-27.689 -64.321,-26.689 -64.072,-25.365M-10.082,-0.839C-9.586,-0.469 -9.278,-0.053 -9.001,-0.073C-8.375,-0.115 -8.387,0.122 -8.43,0.599C-8.526,1.672 -8.898,2.777 -8.189,3.795C-8.148,3.853 -8.166,3.95 -8.136,4.019C-8.038,4.247 -7.918,4.667 -7.828,4.66C-7.546,4.643 -7.185,4.537 -7.017,4.333C-6.755,4.015 -6.517,3.602 -6.466,3.203C-6.372,2.477 -6.331,1.719 -6.433,0.999C-6.662,-0.64 -7.568,-1.261 -9.217,-1.027C-9.405,-1.001 -9.589,-0.948 -10.082,-0.839M-37.868,42.125C-37.438,42.713 -37.089,43.227 -36.697,43.705C-36.538,43.898 -36.284,44.143 -36.075,44.142C-34.838,44.132 -33.582,44.175 -32.37,43.972C-31.154,43.767 -30.94,43.137 -31.47,42.03C-31.537,41.89 -31.625,41.761 -31.706,41.629C-31.865,41.374 -32.068,41.282 -32.388,41.324C-33.809,41.515 -35.234,41.668 -36.656,41.855C-37.05,41.907 -37.434,42.026 -37.868,42.125M-57.805,39.429C-57.234,39.809 -56.615,40.002 -55.974,40.143C-55.332,40.284 -54.679,40.391 -54.05,40.575C-52.912,40.909 -51.753,40.906 -50.59,40.866C-50.325,40.856 -50.032,40.819 -49.806,40.697C-49.066,40.292 -48.35,39.842 -47.534,39.354C-47.769,39.295 -47.873,39.242 -47.974,39.247C-50.702,39.38 -53.37,38.818 -56.061,38.524C-56.877,38.435 -57.386,38.699 -57.805,39.429M-16.809,0.439C-15.483,0.37 -14.098,-0.523 -13.599,-1.599C-13.406,-2.016 -13.341,-2.492 -13.156,-2.914C-12.953,-3.377 -13.036,-3.734 -13.405,-4.052C-13.668,-4.279 -13.913,-4.533 -14.195,-4.733C-14.65,-5.057 -15.125,-5.083 -15.587,-4.721C-16.381,-4.102 -17.22,-3.534 -17.96,-2.858C-19.202,-1.725 -19.136,-1.062 -17.794,-0.097C-17.606,0.039 -17.415,0.175 -17.211,0.284C-17.049,0.371 -16.865,0.419 -16.809,0.439M-32.565,40.576C-32.916,39.767 -33.553,39.382 -34.169,39.007C-35.754,38.045 -37.443,37.454 -39.343,37.513C-40.05,37.535 -40.634,37.543 -40.938,38.32C-41.023,38.538 -41.325,38.679 -41.542,38.834C-41.807,39.021 -42.087,39.186 -42.434,39.407C-42.192,39.561 -42.07,39.65 -41.938,39.72C-41.089,40.178 -40.25,40.658 -39.38,41.073C-39.047,41.231 -38.639,41.31 -38.27,41.298C-37.575,41.275 -36.882,41.172 -36.19,41.082C-35.005,40.925 -33.822,40.752 -32.565,40.576M-34.546,24.235C-35.317,25.454 -36.25,24.958 -37.207,24.574C-37.21,25.659 -37.669,26.457 -38.242,27.2C-38.643,27.722 -39.072,28.223 -39.48,28.74C-40.416,29.927 -41.385,31.091 -42.268,32.315C-43.134,33.515 -43.627,34.899 -44.067,36.308C-43.572,36.613 -43.1,36.435 -42.65,36.456C-42.321,36.471 -42.132,36.295 -42.159,35.961C-42.239,34.976 -41.718,34.247 -41.11,33.585C-39.773,32.129 -38.412,30.695 -37.038,29.273C-36.085,28.285 -35.332,27.167 -34.718,25.947C-34.487,25.49 -34.33,25.019 -34.546,24.235M-64.011,21.87C-64.672,23.423 -65.283,24.799 -65.843,26.194C-66.564,27.987 -66.705,28.187 -64.495,27.907C-62.15,27.609 -59.828,27.104 -57.514,26.611C-55.92,26.271 -54.355,25.801 -52.781,25.375C-52.306,25.247 -51.842,25.075 -51.374,24.923C-52.952,24.745 -54.506,24.806 -56.054,24.729C-57.793,24.642 -59.529,24.553 -61.25,24.157C-62.534,23.862 -63.483,23.319 -64.011,21.87M-42.626,47.166C-42.625,47.148 -42.625,47.13 -42.624,47.111C-41.381,47.111 -40.137,47.121 -38.894,47.109C-37.184,47.091 -36.766,46.483 -37.303,44.853C-37.422,44.494 -37.585,44.355 -37.986,44.499C-39.878,45.18 -41.851,45.299 -43.837,45.271C-46.709,45.233 -49.587,45.475 -52.45,45.059C-53.025,44.975 -53.605,44.926 -54.18,44.839C-55.058,44.707 -55.947,44.612 -56.807,44.399C-57.746,44.167 -58.654,43.811 -59.583,43.53C-59.789,43.467 -60.075,43.404 -60.233,43.497C-60.683,43.763 -60.739,45.271 -60.306,45.635C-59.804,46.056 -59.283,46.449 -58.566,46.496C-56.862,46.608 -55.162,46.829 -53.457,46.891C-49.848,47.021 -46.236,47.079 -42.626,47.166M-38.044,43.535C-38.149,43.363 -38.202,43.26 -38.269,43.167C-38.337,43.072 -38.402,42.968 -38.492,42.899C-40.31,41.487 -42.198,40.213 -44.554,39.879C-45.982,39.151 -47.155,39.728 -48.27,40.603C-48.332,40.651 -48.4,40.69 -48.461,40.739C-49.674,41.702 -51.079,41.887 -52.541,41.647C-54.336,41.351 -56.138,41.054 -57.842,40.364C-58.137,40.244 -58.439,40.103 -58.675,40.443C-59.074,41.017 -59.47,41.592 -59.838,42.185C-60.012,42.466 -59.918,42.706 -59.583,42.817C-59.4,42.877 -59.212,42.929 -59.032,43C-56.654,43.939 -54.145,44.266 -51.629,44.345C-48.252,44.451 -44.869,44.402 -41.49,44.336C-40.337,44.315 -39.176,44.094 -38.044,43.535M-6.316,9.527C-7.286,8.737 -8.192,8.062 -9.018,7.3C-9.412,6.937 -9.715,6.783 -10.234,7.007C-11.614,7.607 -12.896,6.943 -14.194,6.608C-14.315,6.577 -14.466,6.289 -14.437,6.157C-14.407,6.025 -14.16,5.839 -14.025,5.851C-13.528,5.899 -13.019,5.965 -12.55,6.126C-11.654,6.434 -10.792,6.386 -9.936,6.033C-9.072,5.676 -8.898,5.37 -8.956,4.416C-8.993,3.814 -9.033,3.726 -9.649,3.756C-10.869,3.817 -12.049,3.639 -13.218,3.319C-13.704,3.186 -14.207,3.111 -14.689,2.964C-15.071,2.847 -15.395,2.931 -15.663,3.173C-16.197,3.655 -16.636,4.213 -16.506,4.993C-16.426,5.485 -16.292,5.974 -16.132,6.447C-15.854,7.265 -15.87,7.344 -16.752,7.511C-18.851,7.905 -20.952,8.287 -23.057,8.651C-24.437,8.891 -25.779,9.16 -27.042,9.859C-28.708,10.782 -30.493,11.462 -32.344,11.955C-33.506,12.264 -34.654,12.628 -35.805,12.977C-36.313,13.131 -36.438,13.432 -36.33,14.074C-36.255,14.516 -35.93,14.499 -35.622,14.477C-34.654,14.407 -33.686,14.328 -32.721,14.233C-31.871,14.149 -31.014,14.092 -30.178,13.931C-27.242,13.363 -24.312,12.767 -21.385,12.156C-20.054,11.879 -18.692,11.661 -17.428,11.192C-16.119,10.706 -14.76,10.451 -13.444,10.031C-12.582,9.755 -11.853,9.907 -11.175,10.495C-10.502,11.079 -9.654,11.234 -8.811,11.395C-8.388,11.475 -8.042,11.365 -7.754,11.06C-7.274,10.554 -6.799,10.043 -6.316,9.527M-44.582,14.623C-44.718,15.851 -44.718,15.847 -43.785,15.877C-43.164,15.898 -42.542,15.914 -41.922,15.96C-40.646,16.056 -39.373,16.194 -38.096,16.27C-37.426,16.31 -37.278,16.139 -37.252,15.474C-37.232,14.931 -37.231,14.386 -37.243,13.842C-37.258,13.154 -37.268,13.116 -37.978,13.151C-39.997,13.249 -41.91,12.793 -43.792,12.132C-44.078,12.032 -44.414,11.903 -44.685,11.967C-45.575,12.179 -46.398,12.556 -47.118,13.268C-46.905,13.395 -46.754,13.451 -46.653,13.555C-46.538,13.675 -46.466,13.839 -46.377,13.984C-46.534,14.075 -46.686,14.223 -46.853,14.243C-47.397,14.307 -47.848,14.079 -48.17,13.651C-48.378,13.374 -48.565,13.067 -48.69,12.746C-48.93,12.134 -49.126,11.504 -49.327,10.879C-49.882,9.152 -51.71,8.203 -53.403,8.807C-53.91,8.988 -54.414,9.237 -54.845,9.555C-56.408,10.706 -57.959,11.876 -59.473,13.091C-59.942,13.467 -60.277,14.011 -60.675,14.48C-59.143,15.195 -57.702,15.843 -56.289,16.545C-55.834,16.771 -55.658,16.669 -55.371,16.278C-54.475,15.059 -53.519,13.885 -52.566,12.71C-52.323,12.412 -52.016,12.162 -51.717,11.918C-51.506,11.746 -51.218,11.561 -51.023,11.879C-50.948,12.002 -51.062,12.315 -51.183,12.467C-51.474,12.829 -51.834,13.134 -52.141,13.484C-53.24,14.741 -54.34,15.997 -55.15,17.478C-55.468,18.063 -55.53,18.063 -56.042,17.645C-56.334,17.408 -56.53,17.462 -56.721,17.711C-56.97,18.038 -57.282,18.343 -57.266,18.917C-56.748,18.998 -56.262,19.112 -55.77,19.143C-54.375,19.227 -52.978,19.336 -51.582,19.327C-50.15,19.318 -48.715,19.198 -47.285,19.087C-46.775,19.047 -46.433,18.873 -46.314,18.199C-46.134,17.179 -45.712,16.199 -45.341,15.22C-45.266,15.021 -44.958,14.91 -44.582,14.623M-51.512,20.159C-53.279,20.051 -54.835,20.006 -56.378,19.838C-57.013,19.769 -57.637,19.477 -58.229,19.206C-58.533,19.067 -58.618,18.761 -58.309,18.444C-58.014,18.142 -57.774,17.787 -57.51,17.455C-57.268,17.151 -57.263,16.872 -57.65,16.707C-58.648,16.28 -59.652,15.867 -60.66,15.463C-61.148,15.267 -61.466,15.464 -61.683,15.929C-62.011,16.633 -62.398,17.31 -62.71,18.02C-63.187,19.111 -63.35,20.259 -63.187,21.441C-63.067,22.316 -62.669,23.004 -61.734,23.193C-60.594,23.423 -59.452,23.734 -58.301,23.784C-55.738,23.897 -53.168,23.891 -50.601,23.89C-49.285,23.889 -47.984,23.714 -46.729,23.27C-46.583,23.219 -46.354,23.289 -46.206,23.374C-45.002,24.062 -44.589,24.017 -43.694,23.062C-42.966,22.285 -42.618,22.308 -42.028,23.203C-41.836,23.494 -41.707,23.825 -41.525,24.123C-41.385,24.352 -41.236,24.593 -41.037,24.768C-40.483,25.257 -39.736,25.037 -39.614,24.314C-39.547,23.916 -39.634,23.466 -39.754,23.071C-39.922,22.516 -40.196,21.993 -40.407,21.451C-40.474,21.275 -40.541,21.064 -40.5,20.896C-40.477,20.803 -40.218,20.697 -40.089,20.721C-39.973,20.743 -39.858,20.921 -39.798,21.055C-39.365,22.007 -38.852,22.935 -38.758,24.006C-38.738,24.227 -38.822,24.55 -38.494,24.533C-38.264,24.521 -37.955,24.368 -37.838,24.182C-37.544,23.715 -37.411,23.175 -37.575,22.618C-37.783,21.913 -37.944,21.188 -38.491,20.629C-38.59,20.527 -38.55,20.29 -38.574,20.115C-38.394,20.091 -38.172,19.992 -38.041,20.063C-37.815,20.183 -37.552,20.374 -37.469,20.596C-37.2,21.315 -36.993,22.058 -36.793,22.8C-36.734,23.018 -36.802,23.267 -36.773,23.497C-36.716,23.957 -36.371,24.268 -35.919,24.293C-35.506,24.316 -35.277,24.09 -35.15,23.719C-34.755,22.571 -34.834,21.503 -35.848,20.795C-36.294,20.484 -36.724,20.143 -37.113,19.765C-37.278,19.605 -37.455,19.247 -37.383,19.101C-37.222,18.775 -36.916,18.949 -36.698,19.123C-35.881,19.773 -34.954,20.313 -34.443,21.28C-34.302,21.547 -34.15,21.74 -33.81,21.591C-33.499,21.455 -33.258,21.25 -33.318,20.89C-33.361,20.63 -33.474,20.371 -33.602,20.137C-34.413,18.675 -36.318,17.732 -38.078,18.029C-40.182,18.384 -42.272,18.822 -44.362,19.253C-45.119,19.41 -45.849,19.755 -46.61,19.833C-48.306,20.007 -50.016,20.067 -51.512,20.159M-42.756,23.331C-42.95,23.459 -43.066,23.503 -43.137,23.586C-43.96,24.559 -44.903,24.788 -46.154,24.377C-47.069,24.077 -48.066,24.274 -48.954,24.752C-49.358,24.97 -49.746,25.239 -50.174,25.381C-51.169,25.711 -52.176,26.011 -53.193,26.263C-55.527,26.84 -57.865,27.403 -60.211,27.927C-61.307,28.171 -62.427,28.316 -63.539,28.489C-63.953,28.554 -64.014,28.746 -63.938,29.135C-63.698,30.347 -63.071,31.17 -61.846,31.534C-60.541,31.92 -59.213,31.816 -57.913,31.685C-56.14,31.508 -54.386,31.143 -52.623,30.87C-51.025,30.622 -49.521,30.183 -48.334,28.988C-48.184,28.837 -47.909,28.811 -47.692,28.727C-49.201,30.576 -50.766,32.301 -52.69,33.633C-53.848,34.433 -54.939,35.295 -55.885,36.335C-56.186,36.665 -56.555,36.966 -56.65,37.518C-56.282,37.621 -55.956,37.756 -55.619,37.8C-53.81,38.034 -52.003,38.292 -50.187,38.445C-49.029,38.543 -47.855,38.498 -46.69,38.465C-46.246,38.452 -45.79,38.413 -45.586,37.818C-45.185,36.647 -44.742,35.487 -44.23,34.361C-43.782,33.376 -43.294,32.391 -42.683,31.502C-41.848,30.291 -40.879,29.171 -39.967,28.011C-39.326,27.196 -38.59,26.44 -38.22,25.397C-38.686,25.169 -39.036,25.197 -39.458,25.439C-40.509,26.041 -41.275,25.844 -41.938,24.839C-42.235,24.39 -42.456,23.891 -42.756,23.331M-81.51,-16.585C-81.72,-17.629 -81.269,-18.337 -80.372,-18.75C-79.406,-19.196 -78.421,-19.278 -77.469,-18.69C-77.039,-18.425 -76.617,-18.148 -76.205,-17.855C-75.496,-17.353 -74.734,-17.009 -73.862,-16.877C-72.004,-16.596 -71.336,-17.053 -71.129,-18.923C-70.917,-20.841 -70.51,-22.765 -71.3,-24.668C-71.498,-25.147 -71.074,-25.527 -70.574,-25.364C-70.247,-25.257 -69.959,-25.037 -69.646,-24.883C-68.538,-24.339 -67.655,-24.58 -67.117,-25.693C-66.802,-26.345 -66.684,-27.092 -66.461,-27.79C-66.308,-28.268 -66.181,-28.767 -65.942,-29.201C-65.679,-29.678 -65.177,-29.738 -64.75,-29.384C-64.431,-29.117 -64.167,-28.784 -63.877,-28.479C-63.438,-28.801 -63.047,-29.113 -62.63,-29.386C-62.314,-29.593 -62.243,-29.87 -62.338,-30.19C-62.45,-30.561 -62.546,-30.959 -62.757,-31.27C-63.323,-32.104 -63.892,-32.948 -64.563,-33.694C-65.664,-34.917 -67.123,-35.414 -68.744,-35.44C-69.785,-35.457 -70.253,-35.101 -70.455,-34.091C-70.544,-33.648 -70.507,-33.173 -70.49,-32.714C-70.461,-31.888 -70.849,-31.553 -71.642,-31.777C-71.902,-31.849 -72.146,-31.982 -72.39,-32.1C-73.835,-32.795 -75.381,-32.957 -76.943,-32.844C-78.807,-32.709 -79.817,-31.481 -79.753,-29.649C-79.726,-28.866 -79.311,-28.34 -78.769,-27.877C-78.296,-27.475 -77.765,-27.138 -77.304,-26.723C-76.508,-26.005 -76.483,-25.021 -77.249,-24.275C-77.577,-23.955 -77.965,-23.658 -78.38,-23.473C-79.478,-22.982 -80.594,-22.525 -81.726,-22.116C-82.848,-21.709 -83.527,-20.937 -83.858,-19.822C-84.098,-19.015 -83.914,-18.274 -83.429,-17.617C-82.984,-17.016 -82.466,-16.498 -81.51,-16.585M-46.671,3.707C-46.65,5.342 -47.394,6.204 -48.807,6.299C-50.484,6.411 -52.054,6.031 -53.44,5.04C-54.37,4.376 -54.914,3.492 -55.094,2.341C-55.22,1.542 -55.102,0.779 -54.898,0.043C-54.362,-1.892 -52.814,-3.379 -50.235,-3.077C-49.042,-2.938 -47.955,-2.609 -47.052,-1.794C-46.791,-1.558 -46.499,-1.429 -46.232,-1.705C-45.503,-2.457 -44.787,-3.197 -44.906,-4.407C-44.968,-5.047 -44.829,-5.713 -44.73,-6.361C-44.654,-6.857 -44.489,-7.339 -44.381,-7.832C-44.114,-9.053 -44.195,-10.223 -44.913,-11.298C-45.106,-11.589 -45.29,-11.889 -45.444,-12.203C-45.895,-13.125 -45.769,-13.805 -45.014,-14.511C-44.76,-14.749 -44.484,-14.969 -44.196,-15.166C-43.004,-15.979 -42.366,-17.105 -42.068,-18.513C-41.88,-19.401 -42.111,-20.205 -42.237,-21.043C-42.374,-21.961 -42.521,-22.878 -42.631,-23.8C-42.653,-23.987 -42.53,-24.193 -42.437,-24.522C-42.246,-24.277 -42.1,-24.173 -42.076,-24.045C-41.784,-22.486 -41.334,-20.931 -41.274,-19.361C-41.198,-17.307 -42.109,-15.634 -43.888,-14.448C-45.268,-13.527 -45.265,-13.305 -44.442,-11.901C-44.344,-11.733 -44.251,-11.562 -44.149,-11.397C-43.704,-10.686 -43.53,-9.928 -43.519,-9.076C-43.506,-7.998 -43.83,-7.008 -44.074,-5.993C-44.438,-4.479 -44.257,-4.067 -42.93,-3.362C-42.148,-2.946 -41.385,-2.493 -40.51,-1.998C-40.549,-2.564 -40.518,-3.141 -40.638,-3.685C-40.891,-4.821 -41.21,-5.942 -41.528,-7.061C-41.933,-8.481 -41.588,-9.668 -40.486,-10.64C-40.135,-10.948 -39.763,-11.232 -39.424,-11.551C-38.859,-12.084 -38.272,-12.601 -37.767,-13.188C-36.687,-14.442 -36.43,-15.868 -37.033,-17.43C-37.2,-17.865 -37.373,-18.3 -37.503,-18.746C-38.058,-20.646 -37.741,-22.363 -36.362,-23.825C-36.017,-24.189 -35.61,-24.497 -35.22,-24.816C-34.77,-25.186 -34.278,-25.51 -33.856,-25.909C-32.93,-26.782 -32.846,-27.519 -33.509,-28.608C-33.699,-28.92 -33.932,-29.206 -34.303,-29.725C-33.886,-29.58 -33.69,-29.561 -33.563,-29.459C-32.887,-28.916 -32.522,-28.198 -32.546,-27.33C-32.565,-26.715 -32.344,-26.356 -31.784,-26.049C-29.471,-24.781 -27.541,-23.043 -25.844,-21.036C-25.654,-20.812 -25.441,-20.608 -25.153,-20.304C-25.107,-20.666 -25.06,-20.893 -25.054,-21.121C-25.042,-21.549 -25.034,-21.978 -25.061,-22.404C-25.139,-23.601 -25.927,-24.586 -27.087,-24.973C-27.346,-25.058 -27.603,-25.145 -27.857,-25.244C-28.324,-25.425 -28.521,-25.778 -28.418,-26.261C-28.355,-26.56 -28.226,-26.846 -28.121,-27.137C-27.925,-27.685 -27.648,-28.216 -27.539,-28.781C-26.998,-31.601 -29.036,-32.919 -30.956,-32.245C-31.678,-31.992 -32.412,-31.774 -33.138,-31.541C-33.539,-32.425 -33.654,-32.569 -34.332,-32.645C-36.989,-32.941 -39.446,-32.499 -41.517,-30.655C-42.039,-30.19 -42.595,-29.761 -43.16,-29.349C-43.382,-29.187 -43.673,-29.117 -44.05,-28.954C-43.954,-29.962 -43.121,-30.213 -42.713,-30.757C-42.794,-30.852 -42.831,-30.941 -42.89,-30.957C-45.777,-31.794 -48.698,-32.401 -51.73,-32.248C-54.203,-32.122 -56.145,-31.13 -57.3,-28.844C-57.563,-28.324 -57.857,-27.818 -58.154,-27.317C-58.674,-26.437 -59.43,-25.869 -60.432,-25.635C-60.772,-25.556 -61.112,-25.473 -61.447,-25.375C-63.188,-24.865 -64.548,-23.906 -65.578,-22.352C-67.649,-19.227 -67.966,-16.029 -66.342,-12.645C-65.939,-11.803 -65.925,-10.935 -66.1,-10.028C-66.48,-8.073 -66.617,-6.112 -66.195,-4.133C-65.517,-0.951 -63.798,1.183 -60.479,1.879C-59.664,2.051 -58.886,2.483 -58.146,2.893C-57.802,3.083 -57.495,3.468 -57.336,3.837C-57.042,4.519 -56.549,4.971 -55.978,5.391C-55.155,5.994 -54.296,6.488 -53.282,6.727C-52.854,6.827 -52.378,7.061 -52.103,7.386C-51.864,7.668 -51.61,7.825 -51.312,8C-49.893,8.834 -48.563,9.751 -48.247,11.552C-48.177,11.955 -48.023,12.359 -47.654,12.603C-46.641,11.689 -45.566,11.023 -44.183,11.239C-43.227,11.389 -42.286,11.635 -41.339,11.838C-38.848,12.371 -36.401,12.246 -34,11.361C-33.6,11.214 -33.187,11.093 -32.774,10.991C-30.762,10.495 -28.858,9.715 -26.998,8.823C-24.75,7.748 -23.202,6.011 -22.337,3.687C-21.918,2.56 -21.543,1.411 -21.242,0.248C-20.825,-1.355 -20.724,-2.985 -21.182,-4.626C-20.945,-4.702 -20.728,-4.808 -20.502,-4.837C-19.662,-4.949 -18.955,-5.345 -18.301,-5.845C-16.862,-6.948 -16.525,-9.199 -17.613,-10.664C-18.292,-11.578 -19.478,-12.213 -20.647,-10.853C-20.99,-10.452 -21.204,-9.933 -21.438,-9.449C-21.555,-9.209 -21.568,-8.921 -21.662,-8.668C-21.694,-8.582 -21.826,-8.484 -21.915,-8.481C-22.012,-8.477 -22.166,-8.554 -22.202,-8.637C-22.277,-8.809 -22.36,-9.024 -22.318,-9.191C-22.18,-9.747 -22.069,-10.336 -21.793,-10.824C-21.53,-11.286 -21.49,-11.667 -21.705,-12.125C-22.331,-13.46 -22.843,-14.86 -23.587,-16.125C-25.682,-19.682 -28.449,-22.667 -31.693,-25.214C-32.663,-25.976 -32.663,-25.969 -33.624,-25.117C-33.885,-24.886 -34.178,-24.69 -34.443,-24.464C-34.886,-24.085 -35.356,-23.729 -35.75,-23.304C-36.893,-22.069 -37.301,-20.637 -36.762,-19.001C-36.579,-18.448 -36.365,-17.905 -36.17,-17.356C-35.617,-15.799 -35.889,-14.371 -36.86,-13.062C-37.137,-12.689 -37.419,-12.311 -37.75,-11.986C-38.361,-11.389 -38.976,-10.789 -39.648,-10.264C-40.79,-9.371 -41.006,-8.251 -40.62,-6.933C-40.402,-6.188 -40.192,-5.44 -39.978,-4.693C-39.676,-3.638 -39.527,-2.561 -39.627,-1.469C-39.678,-0.917 -39.683,-0.285 -40.409,-0.081C-41.094,-1.58 -41.973,-2.268 -44.183,-3.061C-44.555,-2.562 -44.868,-2.005 -45.31,-1.585C-45.757,-1.16 -46.178,-0.765 -46.189,0.028C-46.55,-0.263 -46.847,-0.41 -47.011,-0.649C-47.888,-1.917 -49.205,-2.19 -50.596,-2.238C-52.24,-2.295 -53.583,-1.324 -54.001,0.238C-54.542,2.259 -54.062,3.543 -52.534,4.484C-51.55,5.09 -50.456,5.317 -49.314,5.383C-48.42,5.433 -47.717,5.148 -47.232,4.369C-47.114,4.18 -46.942,4.023 -46.671,3.707M-20.746,-12.121C-20.558,-12.182 -20.38,-12.247 -20.198,-12.299C-18.327,-12.828 -16.553,-11.708 -16.266,-9.757C-16.161,-9.033 -16.122,-8.269 -16.233,-7.55C-16.498,-5.825 -17.716,-4.899 -19.238,-4.294C-19.584,-4.157 -20.059,-4.141 -20.258,-3.894C-20.42,-3.694 -20.271,-3.231 -20.234,-2.886C-19.988,-0.565 -20.762,1.559 -21.494,3.691C-21.967,5.069 -22.703,6.294 -23.675,7.379C-23.85,7.574 -23.998,7.791 -24.273,8.147C-21.745,7.695 -19.374,7.402 -17.107,6.819C-17.194,5.901 -17.489,5.016 -17.292,4.257C-17.092,3.489 -16.407,2.847 -15.866,2.051C-16.47,1.626 -17.197,1.129 -17.906,0.61C-18.312,0.312 -18.726,0.011 -19.074,-0.349C-19.625,-0.921 -19.69,-1.578 -19.271,-2.267C-19.032,-2.661 -18.742,-3.047 -18.398,-3.349C-17.638,-4.013 -16.854,-4.655 -16.035,-5.245C-15.072,-5.939 -14.416,-5.929 -13.487,-5.209C-13,-4.832 -12.582,-4.36 -12.168,-3.898C-11.858,-3.552 -11.609,-3.153 -11.33,-2.778C-11.03,-2.373 -10.806,-1.797 -10.402,-1.614C-10.021,-1.44 -9.449,-1.66 -8.966,-1.737C-7.764,-1.933 -6.806,-1.608 -6.227,-0.476C-6.052,-0.133 -5.821,-0.004 -5.422,0.062C-4.32,0.242 -3.236,1.52 -3.151,2.68C-3.121,3.103 -3.067,3.411 -2.595,3.569C-2.37,3.645 -2.128,3.895 -2.042,4.122C-1.822,4.703 -1.422,4.772 -0.922,4.618C0.715,4.109 1.717,5.187 2.755,6.111C3.175,6.484 3.174,7.043 2.906,7.508C2.56,8.108 2,8.362 1.343,8.345C0.962,8.335 0.586,8.181 0.203,8.113C-0.161,8.048 -0.53,8.011 -0.93,7.958C-0.082,9.573 0.712,11.083 1.505,12.593C1.558,12.696 1.618,12.799 1.652,12.91C1.83,13.477 1.507,13.85 0.931,13.725C0.667,13.668 0.403,13.579 0.161,13.459C-1.718,12.535 -3.625,11.65 -5.235,10.273C-5.534,10.019 -5.756,9.993 -6.017,10.299C-6.37,10.713 -6.747,11.106 -7.1,11.52C-7.544,12.043 -8.113,12.218 -8.771,12.147C-9.79,12.036 -10.775,11.797 -11.586,11.138C-12.161,10.671 -12.784,10.612 -13.451,10.779C-14.092,10.94 -14.739,11.099 -15.353,11.335C-17.541,12.179 -19.846,12.571 -22.12,13.057C-24.889,13.65 -27.684,14.14 -30.483,14.568C-32.093,14.815 -33.733,14.865 -35.361,14.976C-36.208,15.035 -36.186,15.015 -36.378,15.821C-36.483,16.264 -36.681,16.686 -36.858,17.176C-35.754,17.406 -34.675,17.794 -33.802,18.6C-33.162,19.191 -32.623,19.843 -32.549,20.763C-32.471,21.711 -32.65,22.001 -33.534,22.368C-34.338,22.703 -34.353,22.71 -34.027,23.39C-33.596,24.288 -33.612,25.191 -33.981,26.089C-34.547,27.469 -35.366,28.687 -36.39,29.775C-37.748,31.219 -39.09,32.678 -40.419,34.148C-40.95,34.735 -41.33,35.401 -41.215,36.253C-41.159,36.667 -40.985,36.891 -40.546,36.881C-40.001,36.869 -39.454,36.901 -38.912,36.869C-36.917,36.751 -35.174,37.478 -33.522,38.475C-32.214,39.266 -31.318,40.452 -30.71,41.815C-30.474,42.347 -30.485,43.03 -30.534,43.631C-30.554,43.899 -30.904,44.209 -31.181,44.373C-32,44.858 -32.923,45.019 -33.865,45.057C-34.486,45.082 -35.11,45.079 -35.732,45.077C-36.131,45.075 -36.287,45.269 -36.274,45.653C-36.263,45.964 -36.266,46.276 -36.283,46.586C-36.331,47.402 -36.57,47.703 -37.374,47.839C-37.87,47.922 -38.382,47.939 -38.886,47.937C-43.126,47.917 -47.368,47.921 -51.608,47.842C-53.392,47.808 -55.171,47.588 -56.954,47.458C-57.341,47.43 -57.733,47.439 -58.118,47.398C-58.541,47.352 -58.974,47.319 -59.376,47.193C-60.926,46.707 -61.407,45.975 -61.343,44.375C-61.287,42.994 -60.677,41.835 -59.888,40.767C-59.268,39.927 -58.552,39.158 -57.889,38.349C-57.807,38.249 -57.714,38.068 -57.751,37.975C-57.988,37.383 -57.61,36.997 -57.294,36.62C-56.242,35.367 -55.099,34.211 -53.716,33.303C-52.978,32.818 -52.146,32.438 -51.463,31.524C-52.294,31.643 -52.962,31.701 -53.613,31.841C-55.943,32.343 -58.296,32.53 -60.677,32.487C-61.61,32.471 -62.439,32.171 -63.214,31.72C-64.055,31.231 -64.297,30.336 -64.522,29.465C-64.718,28.71 -64.706,28.707 -65.465,28.667C-65.658,28.657 -65.856,28.67 -66.046,28.639C-66.885,28.503 -67.222,28.074 -66.943,27.252C-66.518,26.005 -65.984,24.795 -65.474,23.578C-65.249,23.041 -64.925,22.543 -64.72,22C-64.462,21.315 -64.225,20.613 -64.074,19.899C-63.37,16.579 -61.719,13.848 -59.064,11.732C-58.122,10.981 -57.17,10.241 -56.211,9.511C-55.249,8.779 -54.239,8.126 -52.768,7.81C-53.256,7.619 -53.511,7.475 -53.784,7.419C-55.173,7.133 -56.246,6.284 -57.306,5.435C-57.592,5.204 -57.802,4.828 -57.942,4.477C-58.159,3.929 -58.52,3.56 -59.048,3.349C-59.73,3.075 -60.404,2.754 -61.113,2.581C-63.972,1.884 -65.801,0.152 -66.695,-2.649C-67.449,-5.009 -67.474,-7.385 -67.036,-9.785C-66.842,-10.848 -66.93,-11.809 -67.365,-12.835C-68.498,-15.511 -68.74,-18.236 -67.353,-20.937C-66.73,-22.15 -66.114,-23.365 -65.121,-24.33C-64.843,-24.601 -64.747,-24.881 -64.791,-25.265C-64.866,-25.925 -64.814,-26.567 -64.548,-27.205C-64.276,-27.858 -64.84,-28.12 -65.35,-28.617C-65.511,-27.988 -65.612,-27.509 -65.758,-27.045C-65.966,-26.382 -66.126,-25.685 -66.455,-25.082C-67.034,-24.024 -67.978,-23.569 -69.198,-23.802C-69.456,-23.852 -69.709,-23.934 -70.03,-24.018C-69.832,-22.017 -70.096,-20.109 -70.413,-18.207C-70.476,-17.829 -70.594,-17.446 -70.766,-17.105C-71.017,-16.605 -71.414,-16.174 -71.991,-16.116C-73.478,-15.965 -74.95,-15.987 -76.25,-16.901C-76.727,-17.237 -77.203,-17.576 -77.694,-17.891C-78.45,-18.377 -79.255,-18.338 -80.032,-17.978C-80.771,-17.636 -80.838,-17.193 -80.364,-16.498C-80.246,-16.325 -80.079,-15.989 -80.136,-15.933C-80.304,-15.768 -80.57,-15.628 -80.804,-15.617C-82.953,-15.521 -84.496,-16.731 -84.787,-18.725C-84.976,-20.018 -84.176,-22.133 -82.311,-22.817C-81.363,-23.165 -80.414,-23.514 -79.48,-23.896C-79.05,-24.071 -78.633,-24.295 -78.246,-24.552C-77.405,-25.111 -77.378,-25.661 -78.144,-26.306C-78.53,-26.632 -78.942,-26.927 -79.34,-27.237C-80.757,-28.341 -80.827,-29.816 -80.366,-31.354C-79.935,-32.785 -78.781,-33.447 -77.379,-33.593C-75.509,-33.789 -73.65,-33.717 -71.918,-32.829C-71.817,-32.777 -71.701,-32.755 -71.59,-32.729C-71.559,-32.721 -71.52,-32.745 -71.414,-32.773C-71.397,-33.092 -71.378,-33.433 -71.359,-33.774C-71.265,-35.533 -70.058,-36.538 -68.317,-36.313C-65.07,-35.891 -62.371,-33.515 -61.608,-30.345C-61.5,-29.897 -61.412,-29.637 -60.898,-29.676C-59.981,-29.743 -59.133,-29.51 -58.34,-28.907C-58.115,-29.237 -57.906,-29.51 -57.732,-29.805C-56.396,-32.067 -54.289,-32.969 -51.788,-33.11C-48.632,-33.289 -45.603,-32.615 -42.65,-31.576C-42.15,-31.399 -41.831,-31.448 -41.399,-31.748C-39.264,-33.233 -36.898,-33.816 -34.32,-33.33C-33.881,-33.247 -33.401,-33.054 -33.078,-32.761C-32.69,-32.408 -32.399,-32.441 -31.942,-32.567C-31.24,-32.759 -30.498,-32.872 -29.77,-32.886C-28.393,-32.914 -27.339,-32.05 -26.952,-30.725C-26.607,-29.547 -26.785,-28.427 -27.238,-27.315C-27.734,-26.097 -27.702,-26.133 -26.491,-25.592C-25.045,-24.945 -24.318,-23.743 -24.23,-22.19C-24.19,-21.5 -24.296,-20.798 -24.372,-20.105C-24.424,-19.626 -24.397,-19.215 -24.085,-18.794C-22.66,-16.873 -21.583,-14.772 -20.915,-12.469C-20.883,-12.361 -20.817,-12.263 -20.746,-12.121" style="fill:rgb(35,31,32);fill-rule:nonzero;"/>
            </g>
            <g transform="matrix(1,0,0,1,169.729,203.973)">
                <path d="M0,41.313C0.598,40.723 1.05,39.981 1.477,39.253C-0.041,39.279 -1.465,38.89 -2.734,37.983C-3.664,37.319 -4.208,36.435 -4.389,35.283C-4.514,34.483 -4.396,33.721 -4.192,32.984C-3.657,31.05 -2.108,29.563 0.47,29.864C1.664,30.004 2.75,30.332 3.654,31.147C3.915,31.384 4.206,31.513 4.474,31.237C5.202,30.485 5.918,29.745 5.8,28.535C5.738,27.895 5.877,27.229 5.976,26.582C6.051,26.085 6.217,25.603 6.325,25.111C6.592,23.889 6.511,22.719 5.794,21.644C5.6,21.353 5.415,21.052 5.262,20.739C4.81,19.816 4.937,19.138 5.691,18.431C5.946,18.193 6.222,17.972 6.51,17.776C7.702,16.963 8.34,15.836 8.638,14.43C8.826,13.54 8.595,12.737 8.469,11.899C8.331,10.981 8.185,10.063 8.075,9.143C8.053,8.955 8.176,8.75 8.269,8.42C8.459,8.664 8.606,8.769 8.63,8.896C8.922,10.455 9.373,12.011 9.431,13.581C9.507,15.635 8.598,17.307 6.818,18.495C5.438,19.415 5.441,19.636 6.264,21.041C6.362,21.209 6.454,21.38 6.557,21.545C7.002,22.256 7.176,23.015 7.186,23.866C7.2,24.944 6.876,25.934 6.632,26.95C6.267,28.463 6.449,28.875 7.775,29.579C8.558,29.996 9.321,30.449 10.195,30.944C10.157,30.379 10.188,29.8 10.067,29.256C9.814,28.121 9.497,27 9.178,25.88C8.774,24.462 9.118,23.274 10.22,22.303C10.57,21.995 10.943,21.711 11.282,21.391C11.847,20.859 12.434,20.341 12.938,19.755C14.018,18.499 14.276,17.075 13.673,15.512C13.506,15.078 13.333,14.643 13.202,14.196C12.647,12.296 12.965,10.579 14.345,9.118C14.689,8.753 15.097,8.446 15.486,8.126C15.936,7.756 16.428,7.432 16.85,7.034C17.776,6.159 17.86,5.423 17.198,4.335C17.007,4.022 16.774,3.736 16.402,3.217C16.82,3.363 17.016,3.381 17.143,3.483C17.818,4.027 18.184,4.744 18.159,5.612C18.142,6.227 18.362,6.587 18.922,6.894C21.234,8.161 23.166,9.899 24.862,11.907C25.051,12.131 25.265,12.335 25.553,12.638C25.599,12.275 25.646,12.048 25.652,11.821C25.664,11.394 25.673,10.964 25.645,10.539C25.566,9.342 24.779,8.356 23.618,7.97C23.361,7.883 23.102,7.797 22.849,7.699C22.382,7.517 22.185,7.164 22.287,6.682C22.35,6.382 22.481,6.096 22.585,5.805C22.782,5.258 23.058,4.726 23.166,4.162C23.708,1.34 21.67,0.023 19.75,0.697C19.028,0.95 18.294,1.167 17.567,1.4C17.166,0.517 17.052,0.373 16.374,0.297C13.717,0 11.26,0.443 9.189,2.287C8.666,2.752 8.111,3.181 7.546,3.593C7.323,3.755 7.034,3.825 6.656,3.987C6.751,2.979 7.585,2.73 7.993,2.185C7.913,2.091 7.874,2.002 7.816,1.985C4.93,1.148 2.008,0.54 -1.024,0.695C-3.498,0.82 -5.439,1.812 -6.595,4.099C-6.858,4.619 -7.151,5.123 -7.448,5.625C-7.967,6.504 -8.724,7.072 -9.726,7.307C-10.066,7.387 -10.406,7.469 -10.742,7.567C-12.482,8.076 -13.842,9.036 -14.872,10.59C-16.943,13.715 -17.26,16.913 -15.637,20.298C-15.234,21.139 -15.218,22.007 -15.394,22.914C-15.774,24.87 -15.911,26.831 -15.489,28.809C-14.811,31.991 -13.092,34.124 -9.773,34.821C-8.958,34.992 -8.181,35.424 -7.441,35.835C-7.097,36.026 -6.789,36.411 -6.63,36.779C-6.337,37.461 -5.842,37.914 -5.271,38.333C-4.45,38.935 -3.59,39.431 -2.577,39.669C-2.148,39.77 -1.672,40.003 -1.398,40.328C-1.158,40.611 -0.904,40.767 -0.606,40.943C-0.401,41.063 -0.199,41.187 0,41.313" style="fill:rgb(195,118,69);fill-rule:nonzero;"/>
            </g>
            <g transform="matrix(1,0,0,1,160.481,204.599)">
                <path d="M0,7.956C0.875,8.041 1.743,8.029 2.582,7.742C3.288,7.502 3.926,7.118 4.492,6.637C5.552,5.735 6.33,4.561 7.318,3.588C8.515,2.411 10.073,1.632 11.777,1.674C13.315,1.712 14.775,2.273 16.294,2.458C16.594,2.112 16.994,1.889 17.241,1.559C17.161,1.466 17.122,1.376 17.064,1.359C14.178,0.522 11.256,-0.085 8.224,0.069C5.75,0.194 3.809,1.186 2.653,3.473C2.39,3.993 2.097,4.498 1.8,5C1.281,5.879 0.524,6.447 -0.478,6.682C-0.818,6.761 -1.158,6.844 -1.494,6.942C-2.144,7.132 -2.741,7.386 -3.288,7.709C-2.209,7.648 -1.086,7.85 0,7.956" style="fill:rgb(224,139,90);fill-rule:nonzero;"/>
            </g>
            <g transform="matrix(1,0,0,1,195.374,224.403)">
                <path d="M0,-9.891C-0.078,-11.088 -0.866,-12.073 -2.026,-12.46C-2.284,-12.545 -2.542,-12.633 -2.796,-12.731C-3.263,-12.912 -3.46,-13.265 -3.358,-13.748C-3.294,-14.047 -3.165,-14.333 -3.06,-14.625C-2.864,-15.172 -2.586,-15.704 -2.478,-16.268C-1.937,-19.089 -3.975,-20.406 -5.895,-19.733C-6.617,-19.479 -7.351,-19.261 -8.078,-19.029C-8.478,-19.913 -8.593,-20.057 -9.271,-20.133C-10.994,-20.325 -12.629,-20.198 -14.133,-19.589C-13.999,-19.542 -13.862,-19.507 -13.731,-19.453C-12.878,-19.102 -12.002,-18.548 -11.717,-17.618C-11.475,-16.835 -11.736,-15.991 -12.062,-15.273C-12.902,-13.43 -14.345,-11.877 -14.973,-9.935C-15.136,-9.43 -15.182,-8.947 -15.174,-8.419C-15.163,-7.671 -15.121,-6.925 -15.077,-6.177C-14.999,-4.884 -14.92,-3.579 -15.157,-2.297C-15.278,-1.641 -15.474,-1.002 -15.74,-0.39C-16.039,0.299 -16.45,0.918 -16.794,1.581C-17.339,2.632 -17.738,3.78 -17.906,4.955C-18.069,6.089 -18.021,7.285 -17.581,8.355C-17.345,8.929 -17.003,9.433 -16.586,9.865C-16.221,10.075 -15.849,10.289 -15.45,10.515C-15.488,9.949 -15.457,9.371 -15.578,8.827C-15.83,7.692 -16.149,6.571 -16.467,5.451C-16.871,4.032 -16.527,2.844 -15.425,1.873C-15.074,1.565 -14.702,1.281 -14.363,0.961C-13.798,0.429 -13.211,-0.089 -12.706,-0.675C-11.626,-1.929 -11.369,-3.355 -11.972,-4.917C-12.139,-5.352 -12.312,-5.787 -12.442,-6.233C-12.998,-8.133 -12.68,-9.85 -11.3,-11.312C-10.956,-11.676 -10.549,-11.984 -10.159,-12.304C-9.709,-12.673 -9.217,-12.997 -8.795,-13.396C-7.869,-14.27 -7.785,-15.007 -8.448,-16.095C-8.638,-16.408 -8.871,-16.693 -9.242,-17.212C-8.825,-17.067 -8.63,-17.049 -8.502,-16.946C-7.826,-16.403 -7.461,-15.685 -7.486,-14.817C-7.503,-14.202 -7.283,-13.843 -6.723,-13.536C-4.41,-12.269 -2.48,-10.53 -0.783,-8.523C-0.594,-8.299 -0.38,-8.095 -0.092,-7.791C-0.046,-8.154 0.001,-8.381 0.007,-8.609C0.018,-9.036 0.028,-9.465 0,-9.891" style="fill:rgb(224,139,90);fill-rule:nonzero;"/>
            </g>
            <g transform="matrix(1,0,0,1,138.926,201.547)">
                <path d="M0,18.782C-0.957,18.87 -1.474,18.352 -1.919,17.75C-2.405,17.093 -2.588,16.352 -2.349,15.546C-2.018,14.431 -1.338,13.658 -0.216,13.252C0.915,12.844 2.032,12.386 3.13,11.895C3.545,11.709 3.933,11.412 4.261,11.093C5.026,10.347 5.001,9.364 4.205,8.645C3.745,8.229 3.214,7.893 2.741,7.49C2.198,7.028 1.784,6.501 1.757,5.719C1.693,3.887 2.702,2.66 4.566,2.524C6.129,2.411 7.674,2.573 9.118,3.268C9.364,3.385 9.608,3.518 9.867,3.592C10.661,3.816 11.049,3.48 11.018,2.653C11.002,2.195 10.966,1.72 11.054,1.276C11.256,0.267 11.724,-0.088 12.766,-0.072C14.386,-0.046 15.846,0.45 16.946,1.673C17.618,2.42 18.186,3.264 18.752,4.097C18.964,4.409 19.06,4.807 19.17,5.177C19.266,5.497 19.196,5.775 18.88,5.982C18.462,6.254 18.071,6.567 17.633,6.889C17.342,6.584 17.078,6.25 16.758,5.984C16.333,5.63 15.83,5.689 15.567,6.167C15.329,6.6 15.202,7.1 15.049,7.577C14.826,8.276 14.708,9.022 14.393,9.675C13.854,10.788 12.971,11.029 11.864,10.484C11.55,10.331 11.262,10.111 10.935,10.004C10.436,9.84 10.011,10.221 10.21,10.7C11,12.602 10.593,14.528 10.381,16.444C10.173,18.314 9.506,18.772 7.647,18.49C6.776,18.359 6.014,18.016 5.305,17.512C4.893,17.22 4.47,16.943 4.04,16.678C3.088,16.09 2.103,16.172 1.138,16.617C0.241,17.031 -0.211,17.74 0,18.782" style="fill:rgb(195,118,69);fill-rule:nonzero;"/>
            </g>
            <g transform="matrix(1,0,0,1,177.679,275.458)">
                <path d="M0,-15.213C0.3,-14.653 0.521,-14.154 0.818,-13.704C1.482,-12.699 2.248,-12.503 3.298,-13.104C3.72,-13.347 4.07,-13.374 4.536,-13.147C4.166,-12.103 3.431,-11.347 2.789,-10.531C1.877,-9.373 0.908,-8.253 0.074,-7.041C-0.538,-6.153 -1.026,-5.167 -1.473,-4.182C-1.985,-3.056 -2.429,-1.896 -2.83,-0.726C-3.034,-0.13 -3.489,-0.091 -3.934,-0.079C-5.099,-0.046 -6.273,0 -7.431,-0.098C-9.247,-0.251 -11.054,-0.51 -12.863,-0.743C-13.2,-0.787 -13.526,-0.923 -13.894,-1.026C-13.799,-1.578 -13.43,-1.879 -13.129,-2.208C-12.183,-3.247 -11.091,-4.111 -9.934,-4.911C-8.01,-6.243 -6.445,-7.967 -4.935,-9.816C-5.153,-9.732 -5.428,-9.706 -5.578,-9.555C-6.765,-8.361 -8.269,-7.921 -9.867,-7.674C-11.63,-7.4 -13.383,-7.035 -15.156,-6.858C-16.457,-6.727 -17.784,-6.623 -19.089,-7.01C-20.315,-7.373 -20.942,-8.196 -21.182,-9.408C-21.258,-9.797 -21.197,-9.99 -20.783,-10.054C-19.671,-10.227 -18.551,-10.372 -17.454,-10.616C-15.108,-11.139 -12.77,-11.703 -10.437,-12.28C-9.42,-12.532 -8.413,-12.833 -7.418,-13.163C-6.99,-13.304 -6.602,-13.574 -6.198,-13.791C-5.31,-14.269 -4.313,-14.466 -3.398,-14.166C-2.147,-13.755 -1.203,-13.983 -0.381,-14.957C-0.31,-15.04 -0.194,-15.085 0,-15.213" style="fill:rgb(135,202,239);fill-rule:nonzero;"/>
            </g>
            <g transform="matrix(1,0,0,1,168.923,257.28)">
                <path d="M0,-0.205C1.497,-0.299 3.206,-0.358 4.902,-0.532C5.663,-0.61 6.393,-0.955 7.15,-1.111C9.24,-1.543 11.331,-1.981 13.434,-2.336C15.194,-2.632 17.099,-1.689 17.91,-0.227C18.038,0.006 18.151,0.265 18.194,0.525C18.254,0.885 18.013,1.09 17.702,1.226C17.362,1.376 17.21,1.183 17.069,0.916C16.558,-0.052 15.631,-0.591 14.814,-1.242C14.596,-1.415 14.29,-1.59 14.13,-1.264C14.057,-1.117 14.234,-0.759 14.399,-0.6C14.788,-0.222 15.218,0.119 15.664,0.43C16.678,1.138 16.757,2.206 16.362,3.354C16.235,3.725 16.006,3.952 15.593,3.929C15.141,3.904 14.797,3.593 14.739,3.132C14.71,2.902 14.778,2.653 14.719,2.436C14.519,1.693 14.312,0.95 14.043,0.232C13.96,0.009 13.698,-0.182 13.471,-0.303C13.34,-0.372 13.118,-0.273 12.938,-0.25C12.962,-0.075 12.922,0.163 13.021,0.265C13.568,0.824 13.73,1.549 13.937,2.253C14.101,2.81 13.968,3.349 13.674,3.817C13.557,4.004 13.248,4.157 13.018,4.168C12.69,4.185 12.774,3.862 12.754,3.641C12.66,2.57 12.148,1.643 11.715,0.69C11.654,0.557 11.539,0.378 11.423,0.357C11.294,0.332 11.035,0.438 11.012,0.531C10.971,0.699 11.038,0.911 11.105,1.085C11.316,1.629 11.59,2.151 11.758,2.706C11.879,3.101 11.966,3.551 11.898,3.949C11.776,4.673 11.029,4.893 10.475,4.404C10.276,4.229 10.127,3.988 9.987,3.759C9.805,3.461 9.676,3.129 9.484,2.838C8.894,1.944 8.546,1.921 7.818,2.697C6.923,3.652 6.51,3.697 5.306,3.009C5.158,2.925 4.93,2.854 4.783,2.905C3.528,3.349 2.227,3.525 0.911,3.525C-1.656,3.526 -4.226,3.532 -6.789,3.42C-7.94,3.369 -9.082,3.058 -10.222,2.829C-11.157,2.64 -11.555,1.952 -11.675,1.077C-11.837,-0.105 -11.675,-1.255 -11.198,-2.344C-10.886,-3.055 -10.499,-3.731 -10.17,-4.435C-9.954,-4.901 -9.635,-5.098 -9.148,-4.903C-8.14,-4.498 -7.135,-4.084 -6.137,-3.657C-5.751,-3.492 -5.756,-3.213 -5.998,-2.91C-6.262,-2.578 -6.502,-2.223 -6.797,-1.921C-7.106,-1.604 -7.02,-1.299 -6.717,-1.159C-6.125,-0.887 -5.5,-0.595 -4.866,-0.527C-3.323,-0.359 -1.767,-0.313 0,-0.205" style="fill:rgb(254,220,196);fill-rule:nonzero;"/>
            </g>
            <g transform="matrix(1,0,0,1,175.853,249.831)">
                <path d="M0,1.708C-0.376,1.994 -0.683,2.106 -0.759,2.305C-1.13,3.282 -1.551,4.263 -1.731,5.282C-1.85,5.958 -2.193,6.132 -2.702,6.171C-4.134,6.282 -5.567,6.402 -7,6.411C-8.396,6.421 -9.794,6.312 -11.188,6.226C-11.68,6.196 -12.166,6.082 -12.684,6.001C-12.7,5.427 -12.389,5.122 -12.139,4.796C-11.948,4.546 -11.751,4.493 -11.46,4.73C-10.947,5.147 -10.886,5.146 -10.567,4.562C-9.758,3.081 -8.658,1.826 -7.558,0.568C-7.252,0.218 -6.891,-0.087 -6.601,-0.449C-6.479,-0.6 -6.366,-0.914 -6.441,-1.036C-6.635,-1.354 -6.924,-1.17 -7.134,-0.998C-7.434,-0.754 -7.742,-0.504 -7.983,-0.206C-8.937,0.97 -9.894,2.143 -10.789,3.362C-11.076,3.754 -11.252,3.855 -11.707,3.629C-13.12,2.927 -14.562,2.28 -16.093,1.564C-15.694,1.094 -15.36,0.552 -14.891,0.175C-13.378,-1.04 -11.826,-2.21 -10.262,-3.361C-9.831,-3.678 -9.327,-3.927 -8.822,-4.108C-7.129,-4.713 -5.299,-3.763 -4.745,-2.038C-4.543,-1.411 -4.348,-0.782 -4.109,-0.17C-3.983,0.151 -3.796,0.458 -3.588,0.735C-3.266,1.163 -2.815,1.391 -2.27,1.327C-2.104,1.307 -1.953,1.158 -1.794,1.069C-1.885,0.924 -1.955,0.76 -2.071,0.64C-2.171,0.535 -2.323,0.48 -2.536,0.353C-1.816,-0.359 -0.994,-0.737 -0.102,-0.948C0.167,-1.013 0.505,-0.884 0.79,-0.783C2.673,-0.122 4.585,0.334 6.603,0.235C7.314,0.2 7.325,0.238 7.339,0.926C7.35,1.47 7.35,2.014 7.33,2.558C7.305,3.223 7.155,3.394 6.486,3.354C5.209,3.278 3.935,3.141 2.659,3.045C2.04,2.998 1.418,2.982 0.797,2.962C-0.136,2.931 -0.136,2.934 0,1.708" style="fill:rgb(191,117,177);fill-rule:nonzero;"/>
            </g>
            <g transform="matrix(1,0,0,1,167.561,254.303)">
                <path d="M0,-1.368C-0.006,-1.998 0.056,-2.657 0.204,-3.294C-0.712,-2.234 -1.597,-1.152 -2.275,0.09C-2.594,0.674 -2.655,0.675 -3.168,0.258C-3.459,0.02 -3.656,0.074 -3.847,0.324C-4.097,0.65 -4.408,0.955 -4.393,1.529C-3.874,1.61 -3.388,1.724 -2.897,1.754C-1.657,1.83 -0.415,1.914 0.826,1.926C0.234,0.952 0.01,-0.25 0,-1.368" style="fill:rgb(149,90,139);fill-rule:nonzero;"/>
            </g>
            <g transform="matrix(1,0,0,1,162.165,245.299)">
                <path d="M0,7.136C1.183,5.488 2.742,4.062 4.47,3.003C5.65,2.282 7.037,1.65 8.449,1.556C7.641,0.457 6.216,-0.058 4.866,0.423C4.361,0.604 3.857,0.853 3.426,1.17C1.862,2.322 0.311,3.492 -1.202,4.707C-1.671,5.083 -2.006,5.626 -2.405,6.096C-1.594,6.475 -0.81,6.836 -0.039,7.194C-0.026,7.175 -0.014,7.155 0,7.136" style="fill:rgb(149,90,139);fill-rule:nonzero;"/>
            </g>
            <g transform="matrix(1,0,0,1,214.119,244.749)">
                <path d="M0,1.694C-0.483,2.209 -0.958,2.72 -1.438,3.227C-1.726,3.531 -2.072,3.642 -2.495,3.561C-3.338,3.4 -4.186,3.244 -4.859,2.661C-5.537,2.074 -6.266,1.922 -7.128,2.196C-8.444,2.617 -9.803,2.872 -11.112,3.359C-12.376,3.828 -13.738,4.044 -15.069,4.323C-17.996,4.934 -20.926,5.529 -23.862,6.097C-24.698,6.259 -25.555,6.316 -26.405,6.4C-27.37,6.494 -28.338,6.574 -29.306,6.644C-29.614,6.665 -29.939,6.682 -30.014,6.24C-30.122,5.599 -29.997,5.297 -29.489,5.144C-28.338,4.795 -27.19,4.431 -26.028,4.121C-24.177,3.628 -22.392,2.948 -20.726,2.026C-19.463,1.327 -18.121,1.057 -16.741,0.818C-14.636,0.453 -12.535,0.072 -10.436,-0.323C-9.554,-0.489 -9.538,-0.568 -9.816,-1.386C-9.976,-1.86 -10.11,-2.348 -10.19,-2.84C-10.32,-3.621 -9.881,-4.179 -9.347,-4.66C-9.079,-4.903 -8.755,-4.988 -8.373,-4.87C-7.891,-4.722 -7.388,-4.648 -6.902,-4.515C-5.733,-4.195 -4.553,-4.017 -3.333,-4.077C-2.717,-4.108 -2.677,-4.02 -2.64,-3.417C-2.582,-2.464 -2.756,-2.157 -3.62,-1.801C-4.476,-1.448 -5.338,-1.4 -6.234,-1.708C-6.703,-1.868 -7.212,-1.934 -7.709,-1.982C-7.844,-1.995 -8.091,-1.808 -8.121,-1.676C-8.15,-1.544 -7.999,-1.256 -7.878,-1.225C-6.58,-0.89 -5.298,-0.227 -3.918,-0.826C-3.399,-1.052 -3.096,-0.896 -2.702,-0.533C-1.876,0.228 -0.97,0.904 0,1.694" style="fill:rgb(254,220,196);fill-rule:nonzero;"/>
            </g>
            <g transform="matrix(1,0,0,1,182.391,276.983)">
                <path d="M0,3.468C-1.132,4.026 -2.293,4.247 -3.446,4.269C-6.825,4.334 -10.208,4.384 -13.585,4.278C-16.101,4.198 -18.61,3.871 -20.988,2.933C-21.168,2.862 -21.355,2.81 -21.539,2.75C-21.874,2.638 -21.967,2.398 -21.794,2.118C-21.426,1.525 -21.03,0.95 -20.631,0.376C-20.395,0.036 -20.093,0.177 -19.798,0.297C-18.094,0.986 -16.292,1.283 -14.497,1.579C-13.034,1.82 -11.63,1.634 -10.417,0.671C-10.356,0.622 -10.287,0.584 -10.226,0.536C-9.111,-0.339 -7.938,-0.916 -6.51,-0.189C-4.154,0.146 -2.266,1.419 -0.448,2.831C-0.358,2.902 -0.293,3.005 -0.225,3.1C-0.158,3.193 -0.104,3.295 0,3.468" style="fill:rgb(0,184,173);fill-rule:nonzero;"/>
            </g>
            <g transform="matrix(1,0,0,1,177.81,280.319)">
                <path d="M0,3.762C-3.61,3.675 -7.222,3.617 -10.831,3.487C-12.537,3.425 -14.236,3.204 -15.94,3.092C-16.658,3.045 -17.179,2.652 -17.681,2.232C-18.114,1.868 -18.058,0.359 -17.607,0.093C-17.45,0 -17.164,0.064 -16.958,0.126C-16.03,0.407 -15.121,0.764 -14.182,0.996C-13.322,1.208 -12.433,1.304 -11.554,1.436C-10.98,1.522 -10.399,1.571 -9.824,1.655C-6.962,2.072 -4.083,1.828 -1.212,1.868C0.774,1.895 2.748,1.776 4.639,1.096C5.041,0.952 5.204,1.09 5.322,1.449C5.86,3.08 5.441,3.688 3.732,3.705C2.489,3.717 1.245,3.708 0.001,3.708C0.001,3.726 0,3.744 0,3.762" style="fill:white;fill-rule:nonzero;"/>
            </g>
            <g transform="matrix(1,0,0,1,156.424,265.102)">
                <path d="M0,-6.317C0.528,-4.868 1.477,-4.326 2.762,-4.03C4.483,-3.634 6.218,-3.545 7.957,-3.459C9.505,-3.382 11.059,-3.443 12.637,-3.264C12.169,-3.112 11.706,-2.939 11.23,-2.811C9.656,-2.387 8.091,-1.916 6.498,-1.576C4.183,-1.083 1.861,-0.579 -0.483,-0.281C-2.694,0 -2.553,-0.2 -1.832,-1.993C-1.271,-3.388 -0.661,-4.764 0,-6.317" style="fill:rgb(149,90,139);fill-rule:nonzero;"/>
            </g>
            <g transform="matrix(1,0,0,1,185.89,273.528)">
                <path d="M0,-12.378C0.216,-11.595 0.058,-11.124 -0.172,-10.666C-0.786,-9.446 -1.54,-8.328 -2.494,-7.34C-3.866,-5.918 -5.228,-4.484 -6.566,-3.028C-7.173,-2.367 -7.694,-1.636 -7.614,-0.652C-7.586,-0.319 -7.775,-0.143 -8.104,-0.157C-8.554,-0.177 -9.026,0 -9.522,-0.305C-9.082,-1.713 -8.588,-3.098 -7.722,-4.297C-6.839,-5.523 -5.87,-6.686 -4.934,-7.872C-4.527,-8.39 -4.098,-8.891 -3.696,-9.412C-3.124,-10.156 -2.664,-10.953 -2.662,-12.039C-1.705,-11.655 -0.771,-11.159 0,-12.378" style="fill:rgb(135,202,239);fill-rule:nonzero;"/>
            </g>
            <g transform="matrix(1,0,0,1,187.87,275.103)">
                <path d="M0,2.388C-1.257,2.564 -2.44,2.738 -3.626,2.894C-4.317,2.985 -5.01,3.087 -5.705,3.11C-6.074,3.122 -6.482,3.043 -6.815,2.885C-7.685,2.47 -8.524,1.99 -9.374,1.533C-9.505,1.462 -9.627,1.373 -9.87,1.219C-9.522,0.998 -9.242,0.834 -8.978,0.646C-8.76,0.491 -8.458,0.35 -8.374,0.132C-8.068,-0.646 -7.485,-0.654 -6.778,-0.675C-4.878,-0.734 -3.189,-0.143 -1.604,0.819C-0.988,1.194 -0.351,1.579 0,2.388" style="fill:rgb(0,184,173);fill-rule:nonzero;"/>
            </g>
            <g transform="matrix(1,0,0,1,203.626,231.832)">
                <path d="M0,5.522C-0.055,5.501 -0.239,5.454 -0.402,5.367C-0.606,5.257 -0.798,5.122 -0.986,4.987C-2.327,4.02 -2.393,3.358 -1.151,2.224C-0.411,1.548 0.429,0.98 1.222,0.361C1.684,0 2.159,0.025 2.614,0.349C2.897,0.549 3.141,0.804 3.404,1.031C3.773,1.348 3.856,1.705 3.653,2.169C3.468,2.591 3.403,3.067 3.21,3.484C2.71,4.56 1.326,5.452 0,5.522" style="fill:rgb(245,154,165);fill-rule:nonzero;"/>
            </g>
            <g transform="matrix(1,0,0,1,162.63,276.83)">
                <path d="M0,-0.486C0.418,-1.217 0.929,-1.48 1.745,-1.391C4.434,-1.098 7.102,-0.535 9.83,-0.669C9.932,-0.673 10.036,-0.62 10.271,-0.561C9.454,-0.073 8.739,0.377 7.999,0.781C7.774,0.904 7.48,0.941 7.216,0.95C6.052,0.991 4.894,0.994 3.755,0.66C3.126,0.476 2.474,0.369 1.831,0.228C1.19,0.087 0.571,-0.106 0,-0.486" style="fill:rgb(254,220,196);fill-rule:nonzero;"/>
            </g>
            <g transform="matrix(1,0,0,1,182.567,280.246)">
                <path d="M0,-1.206C0.435,-1.305 0.819,-1.424 1.213,-1.476C2.634,-1.663 4.059,-1.816 5.481,-2.007C5.8,-2.05 6.004,-1.957 6.162,-1.702C6.243,-1.571 6.332,-1.441 6.398,-1.302C6.928,-0.194 6.714,0.436 5.498,0.641C4.286,0.844 3.03,0.801 1.794,0.811C1.584,0.812 1.33,0.567 1.171,0.374C0.779,-0.104 0.43,-0.619 0,-1.206" style="fill:white;fill-rule:nonzero;"/>
            </g>
            <g transform="matrix(1,0,0,1,210.353,241.159)">
                <path d="M0,-5.083C0.493,-5.192 0.677,-5.245 0.865,-5.271C2.514,-5.505 3.419,-4.884 3.65,-3.246C3.75,-2.525 3.71,-1.767 3.616,-1.041C3.565,-0.642 3.326,-0.229 3.065,0.089C2.897,0.293 2.536,0.399 2.254,0.416C2.164,0.422 2.044,0.003 1.946,-0.225C1.915,-0.294 1.934,-0.391 1.893,-0.449C1.183,-1.467 1.555,-2.572 1.651,-3.645C1.694,-4.122 1.706,-4.359 1.081,-4.317C0.803,-4.297 0.496,-4.714 0,-5.083" style="fill:rgb(254,220,196);fill-rule:nonzero;"/>
            </g>
            <g transform="matrix(1,0,0,1,156.363,207.796)">
                <path d="M0,3.754C-0.249,2.43 0.409,1.431 1.412,0.72C2.43,0 3.607,0.018 4.714,0.64C5.311,0.974 5.374,1.272 4.892,1.717C4.504,2.074 4.039,2.4 3.55,2.584C2.401,3.019 1.217,3.36 0,3.754" style="fill:rgb(135,202,239);fill-rule:nonzero;"/>
            </g>
            <g transform="matrix(1,0,0,1,206.783,236.884)">
                <path d="M0,2.483C1.046,1.725 1.678,0.794 2.349,-0.107C2.678,-0.55 2.758,-0.543 3.146,-0.151C3.418,0.123 3.684,0.406 3.932,0.703C4.402,1.269 4.477,2.121 4.069,2.732C3.963,2.89 3.693,3.014 3.494,3.019C3.034,3.033 2.566,2.997 2.112,2.921C1.403,2.801 0.703,2.632 0,2.483" style="fill:rgb(255,221,24);fill-rule:nonzero;"/>
            </g>
            <g transform="matrix(1,0,0,1,214.906,243.563)">
                <path d="M0,-5.679C1.051,-5.328 1.687,-4.546 1.689,-3.627C1.692,-2.289 1.062,-1.265 0.087,-0.413C0,-0.338 -0.098,-0.269 -0.202,-0.22C-0.58,-0.041 -0.982,0 -1.267,-0.339C-1.553,-0.677 -1.503,-1.089 -1.181,-1.385C-0.583,-1.936 -0.237,-2.615 -0.1,-3.393C-0.014,-3.882 -0.025,-4.389 -0.002,-4.889C0.01,-5.149 0,-5.409 0,-5.679" style="fill:rgb(254,220,196);fill-rule:nonzero;"/>
            </g>
            <g transform="matrix(1,0,0,1,222.799,242.685)">
                <path d="M0,1.094C0.014,1.462 -0.534,1.96 -0.998,1.899C-1.918,1.779 -2.838,1.623 -3.745,1.417C-4.088,1.34 -4.399,1.013 -4.291,0.636C-4.185,0.266 -4.291,-0.245 -3.762,-0.432C-2.537,-0.866 -0.694,-0.22 -0.073,0.877C-0.035,0.942 -0.024,1.021 0,1.094" style="fill:rgb(254,220,196);fill-rule:nonzero;"/>
            </g>
            <g transform="matrix(1,0,0,1,204.521,235.164)">
                <path d="M0,2.901C0.773,2.382 1.638,1.98 2.248,1.337C2.826,0.728 3.138,-0.134 3.568,-0.887C3.585,-0.878 3.631,-0.869 3.652,-0.842C4.805,0.622 4.634,0.334 3.769,1.594C3.38,2.159 2.91,2.688 2.397,3.143C1.794,3.677 1.097,3.788 0.414,3.21C0.269,3.087 0.11,2.983 0,2.901" style="fill:rgb(135,202,239);fill-rule:nonzero;"/>
            </g>
            <g transform="matrix(1,0,0,1,215.367,241.15)">
                <path d="M0,4.187C-0.093,4.132 -0.466,4.036 -0.554,3.822C-0.648,3.593 -0.481,3.253 -0.41,2.965C-0.394,2.901 -0.313,2.845 -0.25,2.801C0.666,2.157 1.304,1.302 1.711,0.261C1.756,0.145 1.927,0 2.033,0.005C2.152,0.012 2.304,0.15 2.372,0.27C3.134,1.63 1.743,4.141 0,4.187" style="fill:rgb(254,220,196);fill-rule:nonzero;"/>
            </g>
            <g transform="matrix(1,0,0,1,177.765,275.99)">
                <path d="M0,-1.699C0.178,-1.686 0.604,-1.674 1.025,-1.621C1.326,-1.583 1.434,-1.306 1.208,-1.139C0.326,-0.485 -0.628,0.007 -1.774,-0.118C-2.251,-0.17 -2.353,-0.378 -2.211,-0.845C-1.988,-1.579 -1.866,-1.672 -1.058,-1.697C-0.787,-1.706 -0.517,-1.699 0,-1.699" style="fill:rgb(254,220,196);fill-rule:nonzero;"/>
            </g>
            <g transform="matrix(1,0,0,1,219.183,248.597)">
                <path d="M0,-2.748C0.22,-2.355 0.461,-2.011 0.614,-1.631C0.815,-1.13 0.446,-0.292 -0.05,-0.061C-0.17,-0.005 -0.366,0 -0.48,-0.061C-0.945,-0.308 -1.392,-0.589 -1.825,-0.846C-1.221,-1.475 -0.673,-2.047 0,-2.748" style="fill:rgb(253,187,36);fill-rule:nonzero;"/>
            </g>
            <g transform="matrix(1,0,0,1,218.133,247.254)">
                <path d="M0,-3.022C0.174,-2.556 0.346,-2.336 0.31,-2.155C0.12,-1.184 -0.503,-0.518 -1.356,-0.078C-1.506,0 -1.818,-0.093 -1.981,-0.211C-2.311,-0.453 -2.59,-0.764 -3.01,-1.16C-1.64,-1.225 -0.671,-1.686 0,-3.022" style="fill:rgb(254,220,196);fill-rule:nonzero;"/>
            </g>
            <g transform="matrix(1,0,0,1,213.875,242.395)">
                <path d="M0,2.913C-0.817,2.271 -1.591,1.663 -2.401,1.025C-2.189,0.783 -2.052,0.6 -1.889,0.447C-1.416,0 -1.195,0.04 -1.079,0.659C-0.999,1.085 -0.783,1.339 -0.45,1.56C0.17,1.971 0.165,1.979 0,2.913" style="fill:rgb(255,221,24);fill-rule:nonzero;"/>
            </g>
            <g transform="matrix(1,0,0,1,220.435,249.778)">
                <path d="M0,-1.462C0.249,-1.012 0.482,-0.592 0.808,0C0.426,-0.139 0.186,-0.196 -0.026,-0.308C-0.744,-0.682 -0.741,-0.689 0,-1.462" style="fill:rgb(35,31,32);fill-rule:nonzero;"/>
            </g>
            <g transform="matrix(1,0,0,1,191.162,238.988)">
                <path d="M0,4.393C-0.566,6.01 -1.59,6.478 -3.122,5.739C-4.62,5.019 -5.571,3.848 -5.67,2.135C-5.702,1.595 -5.859,1.374 -6.419,1.384C-6.84,1.393 -7.268,1.3 -7.682,1.205C-7.844,1.167 -7.975,1 -8.12,0.892C-7.981,0.783 -7.854,0.611 -7.7,0.579C-7.4,0.519 -7.082,0.508 -6.774,0.529C-6.082,0.578 -5.57,0.28 -5.18,-0.252C-4.772,-0.809 -4.387,-1.382 -3.897,-2.085C-3.788,-1.726 -3.618,-1.47 -3.67,-1.273C-3.798,-0.794 -3.931,-0.263 -4.235,0.103C-5.062,1.101 -4.871,2.137 -4.418,3.143C-3.886,4.324 -2.88,5.031 -1.595,5.086C-1.092,5.107 -0.568,4.655 0,4.393" style="fill:rgb(35,31,32);fill-rule:nonzero;"/>
            </g>
            <g transform="matrix(1,0,0,1,196.237,224.683)">
                <path d="M0,0.462C0.015,1.345 -0.254,1.892 -0.709,2.01C-1.23,2.146 -1.785,1.927 -2.155,1.283C-2.437,0.794 -2.627,0.233 -2.758,-0.319C-2.854,-0.732 -2.771,-1.182 -2.352,-1.448C-1.982,-1.684 -1.214,-1.595 -0.815,-1.285C-0.213,-0.816 -0.065,-0.143 0,0.462" style="fill:rgb(35,31,32);fill-rule:nonzero;"/>
            </g>
            <g transform="matrix(1,0,0,1,187.355,218.685)">
                <path d="M0,1.743C0.14,0.142 0.885,-0.923 2.097,-1.685C2.249,-1.781 2.462,-1.821 2.644,-1.815C2.772,-1.81 2.954,-1.711 3.006,-1.603C3.061,-1.493 3.038,-1.274 2.958,-1.185C2.78,-0.988 2.543,-0.844 2.334,-0.675C1.41,0.073 0.871,0.995 0.967,2.229C0.994,2.572 0.97,2.924 0.92,3.265C0.903,3.38 0.738,3.547 0.63,3.556C0.526,3.564 0.334,3.417 0.308,3.307C0.174,2.748 0.082,2.179 0,1.743" style="fill:rgb(35,31,32);fill-rule:nonzero;"/>
            </g>
            <g transform="matrix(1,0,0,1,168.076,237.018)">
                <path d="M0,0.982C-0.077,-0.52 0.78,-1.202 2.1,-0.671C2.653,-0.448 3.146,-0.016 3.589,0.404C4.004,0.799 4.329,1.292 4.666,1.763C4.728,1.849 4.658,2.031 4.649,2.168C4.505,2.152 4.321,2.184 4.224,2.108C3.921,1.868 3.657,1.582 3.366,1.326C3.077,1.07 2.791,0.804 2.474,0.586C1.496,-0.082 1.163,-0.036 0.285,0.824C0.233,0.874 0.154,0.898 0,0.982" style="fill:rgb(35,31,32);fill-rule:nonzero;"/>
            </g>
            <g transform="matrix(1,0,0,1,254.858,212.906)">
                <path d="M0,-14.173L0,-7.086C0,-3.172 3.173,0 7.087,0L110.551,0L110.551,-7.086C110.551,-11 107.378,-14.173 103.465,-14.173L0,-14.173Z" style="fill:rgb(0,143,212);fill-rule:nonzero;"/>
            </g>
            <g transform="matrix(1,0,0,1,409.606,191.719)">
                <path d="M0,-14.173L0,-7.086C0,-3.172 3.173,0 7.087,0L110.551,0L110.551,-7.086C110.551,-11 107.378,-14.173 103.465,-14.173L0,-14.173Z" style="fill:rgb(246,139,30);fill-rule:nonzero;"/>
            </g>
            <g transform="matrix(1,0,0,1,409.606,258.094)">
                <path d="M0,-14.173L0,-7.086C0,-3.172 3.173,0 7.087,0L110.551,0L110.551,-7.086C110.551,-11 107.378,-14.173 103.465,-14.173L0,-14.173Z" style="fill:rgb(113,191,68);fill-rule:nonzero;"/>
            </g>
            <text x="264.605px" y="209.944px" style="font-family:'MyriadPro-Semibold', 'Myriad Pro', sans-serif;font-weight:600;font-size:11px;fill:white;">Ent<tspan x="280.301px " y="209.944px ">e</tspan>ro por fr<tspan x="324.433px " y="209.944px ">a</tspan>cción</text>
            <text x="419.573px" y="188.758px" style="font-family:'MyriadPro-Semibold', 'Myriad Pro', sans-serif;font-weight:600;font-size:11px;fill:white;">Ent<tspan x="435.27px " y="188.758px ">e</tspan>ro por decimal</text>
            <text x="415.123px" y="255.133px" style="font-family:'MyriadPro-Semibold', 'Myriad Pro', sans-serif;font-weight:600;font-size:11px;fill:white;">F<tspan x="420.48px " y="255.133px ">r</tspan>ac<tspan x="434.725px " y="255.133px ">c</tspan>ión por frac<tspan x="493.839px " y="255.133px ">c</tspan>ión</text>
            <g>
                <text x="463.028px" y="203.84px" style="font-family:'MyriadPro-Semibold', 'Myriad Pro', sans-serif;font-weight:600;font-size:11px;fill:rgb(0,143,212);">2<tspan x="469.133px 475.239px " y="203.84px 203.84px ">25</tspan></text>
                <text x="449.168px" y="217.84px" style="font-family:'MyriadPro-Semibold', 'Myriad Pro', sans-serif;font-weight:600;font-size:11px;fill:rgb(35,31,32);">×</text>
                <text x="460.168px" y="217.84px" style="font-family:'MyriadPro-Semibold', 'Myriad Pro', sans-serif;font-weight:600;font-size:11px;fill:rgb(246,139,30);">0<tspan x="466.235px 469.001px 475.068px " y="217.84px 217.84px 217.84px ">.21</tspan></text>
                <text x="454.063px" y="231.84px" style="font-family:'MyriadPro-Semibold', 'Myriad Pro', sans-serif;font-weight:600;font-size:11px;fill:rgb(113,191,68);">4<tspan x="460.182px 466.301px 469.12px 475.238px " y="231.84px 231.84px 231.84px 231.84px ">7.25</tspan></text>
            </g>
            <g>
                <text x="418.141px" y="276.009px" style="font-family:'MyriadPro-Semibold', 'Myriad Pro', sans-serif;font-weight:600;font-size:10px;fill:rgb(246,139,30);">3</text>
                <text x="418.141px" y="291.009px" style="font-family:'MyriadPro-Semibold', 'Myriad Pro', sans-serif;font-weight:600;font-size:10px;fill:rgb(113,191,68);">4</text>
            </g>
            <text x="437.585px" y="285.009px" style="font-family:'MyriadPro-Semibold', 'Myriad Pro', sans-serif;font-weight:600;font-size:11px;fill:rgb(35,31,32);">×</text>
            <g>
                <text x="460.257px" y="276.009px" style="font-family:'MyriadPro-Semibold', 'Myriad Pro', sans-serif;font-weight:600;font-size:10px;fill:rgb(246,139,30);">1</text>
                <text x="460.257px" y="291.009px" style="font-family:'MyriadPro-Semibold', 'Myriad Pro', sans-serif;font-weight:600;font-size:10px;fill:rgb(113,191,68);">2</text>
            </g>
            <text x="479.701px" y="285.009px" style="font-family:'MyriadPro-Semibold', 'Myriad Pro', sans-serif;font-weight:600;font-size:11px;fill:rgb(35,31,32);">=</text>
            <g>
                <text x="500.152px" y="276.009px" style="font-family:'MyriadPro-Semibold', 'Myriad Pro', sans-serif;font-weight:600;font-size:10px;fill:rgb(246,139,30);">3</text>
                <text x="500.152px" y="291.009px" style="font-family:'MyriadPro-Semibold', 'Myriad Pro', sans-serif;font-weight:600;font-size:10px;fill:rgb(113,191,68);">8</text>
            </g>
            <g transform="matrix(1,0,0,1,447.547,221.984)">
                <path d="M0,0L36.85,0" style="fill:none;fill-rule:nonzero;stroke:rgb(35,31,32);stroke-width:0.7px;stroke-linecap:butt;stroke-linejoin:miter;stroke-miterlimit:4;"/>
            </g>
            <g transform="matrix(1,0,0,1,415.719,280.093)">
                <path d="M0,0L10.394,0" style="fill:none;fill-rule:nonzero;stroke:rgb(35,31,32);stroke-width:0.7px;stroke-linecap:butt;stroke-linejoin:miter;stroke-miterlimit:4;"/>
            </g>
            <g transform="matrix(1,0,0,1,457.835,279.384)">
                <path d="M0,0L10.394,0" style="fill:none;fill-rule:nonzero;stroke:rgb(35,31,32);stroke-width:0.7px;stroke-linecap:butt;stroke-linejoin:miter;stroke-miterlimit:4;"/>
            </g>
            <g transform="matrix(1,0,0,1,497.73,279.384)">
                <path d="M0,0L10.394,0" style="fill:none;fill-rule:nonzero;stroke:rgb(35,31,32);stroke-width:0.7px;stroke-linecap:butt;stroke-linejoin:miter;stroke-miterlimit:4;"/>
            </g>
            <g transform="matrix(1,0,0,1,429.414,272.191)">
                <path d="M0,0L19.604,0" style="fill:none;fill-rule:nonzero;stroke:rgb(113,191,68);stroke-width:1px;stroke-linecap:butt;stroke-linejoin:miter;stroke-miterlimit:4;"/>
            </g>
            <g transform="matrix(1,0,0,1,452.092,272.19)">
                <path d="M0,0.001L-3.716,-3.454L-3.716,3.455L0,0.001Z" style="fill:rgb(113,191,68);fill-rule:nonzero;"/>
            </g>
            <g transform="matrix(1,0,0,1,472.373,272.191)">
                <path d="M0,0L19.604,0" style="fill:none;fill-rule:nonzero;stroke:rgb(113,191,68);stroke-width:1px;stroke-linecap:butt;stroke-linejoin:miter;stroke-miterlimit:4;"/>
            </g>
            <g transform="matrix(1,0,0,1,495.05,272.19)">
                <path d="M0,0.001L-3.716,-3.454L-3.716,3.455L0,0.001Z" style="fill:rgb(113,191,68);fill-rule:nonzero;"/>
            </g>
            <g transform="matrix(1,0,0,1,428.706,287.923)">
                <path d="M0,0L19.604,0" style="fill:none;fill-rule:nonzero;stroke:rgb(113,191,68);stroke-width:1px;stroke-linecap:butt;stroke-linejoin:miter;stroke-miterlimit:4;"/>
            </g>
            <g transform="matrix(1,0,0,1,451.383,287.922)">
                <path d="M0,0.001L-3.716,-3.454L-3.716,3.455L0,0.001Z" style="fill:rgb(113,191,68);fill-rule:nonzero;"/>
            </g>
            <g transform="matrix(1,0,0,1,471.664,287.923)">
                <path d="M0,0L19.604,0" style="fill:none;fill-rule:nonzero;stroke:rgb(113,191,68);stroke-width:1px;stroke-linecap:butt;stroke-linejoin:miter;stroke-miterlimit:4;"/>
            </g>
            <g transform="matrix(1,0,0,1,494.341,287.922)">
                <path d="M0,0.001L-3.716,-3.454L-3.716,3.455L0,0.001Z" style="fill:rgb(113,191,68);fill-rule:nonzero;"/>
            </g>
        </g>
    </g>
</svg>
