<svg clip-rule="evenodd" fill-rule="evenodd" stroke-linejoin="round" stroke-miterlimit="2" viewBox="0 0 560 495" xmlns="http://www.w3.org/2000/svg"><g fill-rule="nonzero"><path d="m-44.868-44.868c-23.303 0-42.194 20.088-42.194 44.868 0 24.781 18.891 44.868 42.194 44.868s42.194-20.087 42.194-44.868c0-24.78-18.891-44.868-42.194-44.868" fill="#ffcd5d" transform="matrix(0 -5.55556 -5.55556 0 249.79741268 -14.26358532)"/><path d="m0-7.072c-.521.136-1.076-.083-1.446-.727-.282-.49-.472-1.05-.602-1.602-.098-.413-.014-.863.405-1.129.37-.236 1.139-.147 1.537.163.603.469.751 1.142.815 1.747.015.883-.254 1.43-.709 1.548m-7.489 18.034c-1.497-.72-2.449-1.891-2.548-3.604-.031-.54-.189-.762-.749-.751-.42.009-.848-.084-1.263-.179-.161-.038-.293-.205-.437-.314.139-.108.265-.28.42-.312.3-.06.618-.072.926-.05.691.049 1.203-.249 1.594-.781.408-.557.792-1.13 1.283-1.833.109.359.279.615.227.812-.128.478-.262 1.01-.566 1.376-.827.998-.636 2.034-.183 3.04.532 1.181 1.539 1.888 2.823 1.943.504.021 1.028-.431 1.596-.693-.566 1.617-1.591 2.085-3.123 1.346m1.412-27.727c.152-.095.365-.136.547-.129.128.004.309.104.363.212.053.109.031.328-.049.418-.178.197-.414.34-.623.51-.924.747-1.463 1.669-1.367 2.903.026.343.003.696-.048 1.036-.016.116-.181.282-.289.292-.104.008-.296-.14-.323-.249-.133-.559-.225-1.128-.308-1.565.14-1.601.885-2.665 2.097-3.428m-16.726 22.187c-.144-.017-.328.016-.425-.061-.303-.239-.567-.526-.858-.782-.289-.256-.575-.522-.892-.74-.978-.668-1.311-.622-2.188.238-.053.05-.132.074-.286.158-.077-1.503.78-2.185 2.1-1.653.553.224 1.046.656 1.489 1.076.415.393.74.888 1.077 1.357.062.087-.008.269-.017.407m30.097-12.936c-.679-.914-1.866-1.549-3.034-.188-.344.4-.558.92-.792 1.404-.117.239-.13.527-.223.78-.031.087-.163.184-.254.188-.097.004-.249-.074-.286-.156-.075-.172-.158-.388-.116-.555.138-.556.249-1.145.525-1.632.262-.463.303-.844.088-1.301-.627-1.335-1.138-2.736-1.883-4-2.093-3.558-4.861-6.543-8.105-9.089-.971-.763-.971-.755-1.931.096-.261.231-.553.428-.819.654-.444.378-.914.734-1.307 1.159-1.143 1.235-1.551 2.667-1.011 4.304.182.553.396 1.096.591 1.644.553 1.557.281 2.985-.69 4.295-.277.373-.56.751-.891 1.075-.61.598-1.226 1.198-1.897 1.723-1.142.892-1.358 2.012-.973 3.33.219.745.428 1.493.643 2.24.301 1.055.45 2.132.35 3.225-.049.552-.056 1.183-.781 1.387-.684-1.499-1.564-2.187-3.775-2.98-.372.5-.685 1.056-1.127 1.477-.446.425-.867.82-.878 1.612-.362-.291-.658-.438-.823-.676-.877-1.268-2.193-1.541-3.585-1.59-1.644-.057-2.987.914-3.404 2.476-.541 2.022-.061 3.305 1.467 4.246.983.606 2.078.833 3.221.899.892.05 1.596-.235 2.08-1.013.119-.19.291-.346.561-.662.023 1.635-.722 2.496-2.135 2.591-1.678.112-3.247-.267-4.634-1.258-.619-.442-1.052-.993-1.335-1.645-.489.628-.961 1.268-1.097 2.066.79.569 1.619 1.037 2.59 1.266.429.1.905.333 1.179.659.239.281.494.438.792.613 1.419.834 2.749 1.752 3.064 3.552.071.404.224.808.593 1.052 1.014-.915 2.089-1.58 3.472-1.364.955.15 1.896.396 2.843.599 2.491.533 4.939.407 7.339-.478.4-.147.813-.267 1.228-.369 2.01-.496 3.915-1.277 5.775-2.168 2.247-1.076 3.796-2.813 4.661-5.137.419-1.127.794-2.275 1.096-3.439.416-1.603.517-3.232.058-4.874.238-.076.454-.181.681-.211.841-.111 1.546-.507 2.201-1.008 1.439-1.103 1.776-3.354.688-4.819" fill="#fedcc4" transform="matrix(5.55556 0 0 5.55556 403.54753568 210.5254834)"/><path d="m0 17.916c-.144-.017-.328.016-.425-.061-.303-.239-.567-.525-.857-.781s-.576-.523-.893-.74c-.978-.668-1.311-.623-2.189.236-.052.052-.131.076-.285.16-.077-1.504.78-2.185 2.099-1.653.554.222 1.048.656 1.49 1.074.415.395.74.889 1.077 1.359.062.087-.008.268-.017.406m1.222 8.307c-.112-.767-.096-1.553 0-2.321.09-.724.254-1.427.546-2.098.539-1.234 1.39-2.619.45-3.886-.053-.072-.076-.202.016-.259.307-.189.633-.334.983-.422 1.484-.375 3.014.103 4.493.267.755.084 1.485.069 2.214-.159.572-.179 1.158-.446 1.557-.909.673-.783.569-1.866.37-2.806-.228-1.086-.617-2.14-.747-3.246-.066-.563-.054-1.132.11-1.68.187-.626.58-1.151 1.077-1.567 1.047-.878 2.403-1.303 3.349-2.318.36-.387.628-.842.737-1.363.128-.61.051-1.25-.067-1.855-.156-.807-.395-1.588-.696-2.353-.008-.019-.016-.038-.024-.058-.007.147-.006.297.007.453.026.343.003.695-.047 1.036-.017.116-.182.283-.29.291-.104.009-.296-.139-.322-.248-.134-.559-.226-1.128-.308-1.564.048-.557.174-1.044.364-1.481-.101-.262-.205-.523-.292-.791-.484-1.504-.539-3.136.384-4.489.383-.562.928-1.095 1.556-1.455-.208-.171-.412-.344-.625-.511-.971-.763-.971-.755-1.931.096-.261.231-.553.427-.82.655-.443.377-.912.733-1.306 1.159-1.143 1.234-1.551 2.666-1.011 4.303.182.554.396 1.096.591 1.645.553 1.557.281 2.985-.69 4.293-.277.374-.56.752-.891 1.076-.61.598-1.225 1.198-1.897 1.724-1.142.892-1.358 2.012-.972 3.329.218.746.428 1.494.642 2.24.302 1.055.45 2.132.35 3.225-.049.552-.056 1.183-.781 1.387-.684-1.498-1.564-2.186-3.775-2.98-.372.499-.685 1.056-1.127 1.477-.446.425-.867.82-.878 1.613-.362-.291-.658-.439-.823-.677-.876-1.268-2.193-1.542-3.584-1.59-1.644-.056-2.988.915-3.405 2.476-.541 2.021-.061 3.305 1.467 4.247.983.605 2.078.833 3.221.898.893.051 1.597-.234 2.081-1.013.118-.189.29-.346.56-.662.023 1.634-.722 2.497-2.136 2.591-1.676.112-3.246-.267-4.632-1.258-.62-.442-1.052-.992-1.336-1.644-.488.628-.961 1.267-1.098 2.065.791.569 1.62 1.037 2.591 1.265.429.101.905.335 1.179.66.24.282.494.439.792.614 1.419.833 2.749 1.751 3.064 3.552.072.403.224.807.593 1.051.454-.41.921-.762 1.421-1.015-.126-.327-.204-.674-.254-1.01" fill="#fcc59f" transform="matrix(5.55556 0 0 5.55556 276.864101 141.1087612)"/><path d="m0 11.401c-.741.773-.744.78-.026 1.154.212.112.452.169.834.308-.326-.592-.559-1.012-.808-1.462m-6.56-3.008c.165-.934.17-.942-.45-1.353-.333-.221-.549-.475-.629-.901-.116-.619-.337-.658-.811-.212-.163.153-.3.336-.512.578.811.638 1.585 1.246 2.402 1.888m4.258-1.076c-.671 1.336-1.64 1.797-3.009 1.862.42.396.698.707 1.029.949.162.118.474.211.624.133.853-.44 1.476-1.106 1.667-2.077.035-.181-.136-.401-.311-.867m1.051 1.617c-.673.701-1.221 1.273-1.826 1.902.434.257.88.538 1.345.785.114.061.31.056.43 0 .496-.231.866-1.07.664-1.57-.153-.38-.394-.724-.613-1.117m-41.419 28.441c-.516 0-.787-.007-1.057.002-.809.026-.931.118-1.154.853-.141.467-.04.674.437.726 1.146.125 2.101-.367 2.982-1.021.227-.167.119-.444-.183-.481-.421-.053-.846-.066-1.025-.079m37.602-28.953c1.743-.047 3.134-2.557 2.372-3.917-.068-.12-.22-.258-.339-.266-.106-.004-.277.14-.322.257-.407 1.04-1.045 1.895-1.961 2.539-.063.044-.144.1-.16.164-.071.288-.238.629-.144.858.088.213.461.31.554.365m-10.846-7.272c.11.081.269.185.414.309.683.578 1.38.466 1.983-.068.514-.454.983-.984 1.372-1.549.866-1.26 1.036-.971-.117-2.435-.021-.028-.067-.037-.084-.046-.43.753-.741 1.615-1.32 2.225-.61.643-1.475 1.044-2.248 1.564m18.279 5.714c-.024-.073-.036-.152-.073-.217-.621-1.096-2.464-1.743-3.689-1.309-.53.187-.424.698-.529 1.069-.108.377.202.703.546.78.906.206 1.826.363 2.747.482.464.061 1.012-.437.998-.805m-40.199 10.3c-1.349-.127-2.623-.243-3.896-.369-.541-.052-1.079-.161-1.62-.182-1.906-.074-1.908-.064-2.39 1.835-.014.058.037.133.078.266 2.568-.508 5.143-1.019 7.828-1.55m32.305-16.195c0 .27.01.53-.002.79-.023.5-.012 1.007-.099 1.496-.136.778-.483 1.457-1.08 2.008-.323.296-.372.708-.087 1.046.286.339.688.298 1.067.119.103-.049.201-.118.288-.193.975-.852 1.605-1.876 1.602-3.214-.002-.92-.638-1.701-1.689-2.052m-8.122 1.482c.703.149 1.403.319 2.111.438.454.077.922.112 1.382.099.199-.005.47-.129.576-.287.407-.611.332-1.463-.138-2.029-.247-.297-.513-.581-.785-.855-.388-.391-.469-.398-.798.045-.67.901-1.303 1.832-2.348 2.589m-50.421-27.816c1.217-.395 2.401-.736 3.55-1.17.488-.185.954-.51 1.341-.867.482-.445.419-.743-.177-1.078-1.108-.621-2.284-.64-3.302.081-1.004.71-1.661 1.71-1.412 3.034m53.99 24.526c.496.37.804.786 1.081.766.626-.042.614.195.571.672-.096 1.073-.468 2.178.241 3.196.041.058.023.155.053.224.098.228.218.648.308.641.282-.017.643-.123.811-.327.262-.318.5-.731.551-1.13.094-.726.135-1.484.033-2.204-.229-1.639-1.135-2.26-2.784-2.026-.188.026-.372.079-.865.188m-27.786 42.964c.43.588.779 1.102 1.171 1.58.159.193.413.438.622.437 1.237-.01 2.493.033 3.705-.17 1.216-.205 1.43-.835.9-1.942-.067-.14-.155-.269-.236-.401-.159-.255-.362-.347-.682-.305-1.421.191-2.846.344-4.268.531-.394.052-.778.171-1.212.27m-19.937-2.696c.571.38 1.19.573 1.831.714.642.141 1.295.248 1.924.432 1.138.334 2.297.331 3.46.291.265-.01.558-.047.784-.169.74-.405 1.456-.855 2.272-1.343-.235-.059-.339-.112-.44-.107-2.728.133-5.396-.429-8.087-.723-.816-.089-1.325.175-1.744.905m40.996-38.99c1.326-.069 2.711-.962 3.21-2.038.193-.417.258-.893.443-1.315.203-.463.12-.82-.249-1.138-.263-.227-.508-.481-.79-.681-.455-.324-.93-.35-1.392.012-.794.619-1.633 1.187-2.373 1.863-1.242 1.133-1.176 1.796.166 2.761.188.136.379.272.583.381.162.087.346.135.402.155m-15.756 40.137c-.351-.809-.988-1.194-1.604-1.569-1.585-.962-3.274-1.553-5.174-1.494-.707.022-1.291.03-1.595.807-.085.218-.387.359-.604.514-.265.187-.545.352-.892.573.242.154.364.243.496.313.849.458 1.688.938 2.558 1.353.333.158.741.237 1.11.225.695-.023 1.388-.126 2.08-.216 1.185-.157 2.368-.33 3.625-.506m-1.981-16.341c-.771 1.219-1.704.723-2.661.339-.003 1.085-.462 1.883-1.035 2.626-.401.522-.83 1.023-1.238 1.54-.936 1.187-1.905 2.351-2.788 3.575-.866 1.2-1.359 2.584-1.799 3.993.495.305.967.127 1.417.148.329.015.518-.161.491-.495-.08-.985.441-1.714 1.049-2.376 1.337-1.456 2.698-2.89 4.072-4.312.953-.988 1.706-2.106 2.32-3.326.231-.457.388-.928.172-1.712m-29.465-2.365c-.661 1.553-1.272 2.929-1.832 4.324-.721 1.793-.862 1.993 1.348 1.713 2.345-.298 4.667-.803 6.981-1.296 1.594-.34 3.159-.81 4.733-1.236.475-.128.939-.3 1.407-.452-1.578-.178-3.132-.117-4.68-.194-1.739-.087-3.475-.176-5.196-.572-1.284-.295-2.233-.838-2.761-2.287m21.385 25.296c.001-.018.001-.036.002-.055 1.243 0 2.487.01 3.73-.002 1.71-.018 2.128-.626 1.591-2.256-.119-.359-.282-.498-.683-.354-1.892.681-3.865.8-5.851.772-2.872-.038-5.75.204-8.613-.212-.575-.084-1.155-.133-1.73-.22-.878-.132-1.767-.227-2.627-.44-.939-.232-1.847-.588-2.776-.869-.206-.063-.492-.126-.65-.033-.45.266-.506 1.774-.073 2.138.502.421 1.023.814 1.74.861 1.704.112 3.404.333 5.109.395 3.609.13 7.221.188 10.831.275m4.582-3.631c-.105-.172-.158-.275-.225-.368-.068-.095-.133-.199-.223-.268-1.818-1.412-3.706-2.686-6.062-3.02-1.428-.728-2.601-.151-3.716.724-.062.048-.13.087-.191.136-1.213.963-2.618 1.148-4.08.908-1.795-.296-3.597-.593-5.301-1.283-.295-.12-.597-.261-.833.079-.399.574-.795 1.149-1.163 1.742-.174.281-.08.521.255.632.183.06.371.112.551.183 2.378.939 4.887 1.266 7.403 1.345 3.377.106 6.76.057 10.139-.009 1.153-.021 2.314-.242 3.446-.801m31.728-34.008c-.97-.79-1.876-1.465-2.702-2.227-.394-.363-.697-.517-1.216-.293-1.38.6-2.662-.064-3.96-.399-.121-.031-.272-.319-.243-.451.03-.132.277-.318.412-.306.497.048 1.006.114 1.475.275.896.308 1.758.26 2.614-.093.864-.357 1.038-.663.98-1.617-.037-.602-.077-.69-.693-.66-1.22.061-2.4-.117-3.569-.437-.486-.133-.989-.208-1.471-.355-.382-.117-.706-.033-.974.209-.534.482-.973 1.04-.843 1.82.08.492.214.981.374 1.454.278.818.262.897-.62 1.064-2.099.394-4.2.776-6.305 1.14-1.38.24-2.722.509-3.985 1.208-1.666.923-3.451 1.603-5.302 2.096-1.162.309-2.31.673-3.461 1.022-.508.154-.633.455-.525 1.097.075.442.4.425.708.403.968-.07 1.936-.149 2.901-.244.85-.084 1.707-.141 2.543-.302 2.936-.568 5.866-1.164 8.793-1.775 1.331-.277 2.693-.495 3.957-.964 1.309-.486 2.668-.741 3.984-1.161.862-.276 1.591-.124 2.269.464.673.584 1.521.739 2.364.9.423.08.769-.03 1.057-.335.48-.506.955-1.017 1.438-1.533m-38.266 5.096c-.136 1.228-.136 1.224.797 1.254.621.021 1.243.037 1.863.083 1.276.096 2.549.234 3.826.31.67.04.818-.131.844-.796.02-.543.021-1.088.009-1.632-.015-.688-.025-.726-.735-.691-2.019.098-3.932-.358-5.814-1.019-.286-.1-.622-.229-.893-.165-.89.212-1.713.589-2.433 1.301.213.127.364.183.465.287.115.12.187.284.276.429-.157.091-.309.239-.476.259-.544.064-.995-.164-1.317-.592-.208-.277-.395-.584-.52-.905-.24-.612-.436-1.242-.637-1.867-.555-1.727-2.383-2.676-4.076-2.072-.507.181-1.011.43-1.442.748-1.563 1.151-3.114 2.321-4.628 3.536-.469.376-.804.92-1.202 1.389 1.532.715 2.973 1.363 4.386 2.065.455.226.631.124.918-.267.896-1.219 1.852-2.393 2.805-3.568.243-.298.55-.548.849-.792.211-.172.499-.357.694-.039.075.123-.039.436-.16.588-.291.362-.651.667-.958 1.017-1.099 1.257-2.199 2.513-3.009 3.994-.318.585-.38.585-.892.167-.292-.237-.488-.183-.679.066-.249.327-.561.632-.545 1.206.518.081 1.004.195 1.496.226 1.395.084 2.792.193 4.188.184 1.432-.009 2.867-.129 4.297-.24.51-.04.852-.214.971-.888.18-1.02.602-2 .973-2.979.075-.199.383-.31.759-.597m-6.93 5.536c-1.767-.108-3.323-.153-4.866-.321-.635-.069-1.259-.361-1.851-.632-.304-.139-.389-.445-.08-.762.295-.302.535-.657.799-.989.242-.304.247-.583-.14-.748-.998-.427-2.002-.84-3.01-1.244-.488-.196-.806.001-1.023.466-.328.704-.715 1.381-1.027 2.091-.477 1.091-.64 2.239-.477 3.421.12.875.518 1.563 1.453 1.752 1.14.23 2.282.541 3.433.591 2.563.113 5.133.107 7.7.106 1.316-.001 2.617-.176 3.872-.62.146-.051.375.019.523.104 1.204.688 1.617.643 2.512-.312.728-.777 1.076-.754 1.666.141.192.291.321.622.503.92.14.229.289.47.488.645.554.489 1.301.269 1.423-.454.067-.398-.02-.848-.14-1.243-.168-.555-.442-1.078-.653-1.62-.067-.176-.134-.387-.093-.555.023-.093.282-.199.411-.175.116.022.231.2.291.334.433.952.946 1.88 1.04 2.951.02.221-.064.544.264.527.23-.012.539-.165.656-.351.294-.467.427-1.007.263-1.564-.208-.705-.369-1.43-.916-1.989-.099-.102-.059-.339-.083-.514.18-.024.402-.123.533-.052.226.12.489.311.572.533.269.719.476 1.462.676 2.204.059.218-.009.467.02.697.057.46.402.771.854.796.413.023.642-.203.769-.574.395-1.148.316-2.216-.698-2.924-.446-.311-.876-.652-1.265-1.03-.165-.16-.342-.518-.27-.664.161-.326.467-.152.685.022.817.65 1.744 1.19 2.255 2.157.141.267.293.46.633.311.311-.136.552-.341.492-.701-.043-.26-.156-.519-.284-.753-.811-1.462-2.716-2.405-4.476-2.108-2.104.355-4.194.793-6.284 1.224-.757.157-1.487.502-2.248.58-1.696.174-3.406.234-4.902.326m8.756 3.172c-.194.128-.31.172-.381.255-.823.973-1.766 1.202-3.017.791-.915-.3-1.912-.103-2.8.375-.404.218-.792.487-1.22.629-.995.33-2.002.63-3.019.882-2.334.577-4.672 1.14-7.018 1.664-1.096.244-2.216.389-3.328.562-.414.065-.475.257-.399.646.24 1.212.867 2.035 2.092 2.399 1.305.386 2.633.282 3.933.151 1.773-.177 3.527-.542 5.29-.815 1.598-.248 3.102-.687 4.289-1.882.15-.151.425-.177.642-.261-1.509 1.849-3.074 3.574-4.998 4.906-1.158.8-2.249 1.662-3.195 2.702-.301.33-.67.631-.765 1.183.368.103.694.238 1.031.282 1.809.234 3.616.492 5.432.645 1.158.098 2.332.053 3.497.02.444-.013.9-.052 1.104-.647.401-1.171.844-2.331 1.356-3.457.448-.985.936-1.97 1.547-2.859.835-1.211 1.804-2.331 2.716-3.491.641-.815 1.377-1.571 1.747-2.614-.466-.228-.816-.2-1.238.042-1.051.602-1.817.405-2.48-.6-.297-.449-.518-.948-.818-1.508m-38.754-39.916c-.21-1.044.241-1.752 1.138-2.165.966-.446 1.951-.528 2.903.06.43.265.852.542 1.264.835.709.502 1.471.846 2.343.978 1.858.281 2.526-.176 2.733-2.046.212-1.918.619-3.842-.171-5.745-.198-.479.226-.859.726-.696.327.107.615.327.928.481 1.108.544 1.991.303 2.529-.81.315-.652.433-1.399.656-2.097.153-.478.28-.977.519-1.411.263-.477.765-.537 1.192-.183.319.267.583.6.873.905.439-.322.83-.634 1.247-.907.316-.207.387-.484.292-.804-.112-.371-.208-.769-.419-1.08-.566-.834-1.135-1.678-1.806-2.424-1.101-1.223-2.56-1.72-4.181-1.746-1.041-.017-1.509.339-1.711 1.349-.089.443-.052.918-.035 1.377.029.826-.359 1.161-1.152.937-.26-.072-.504-.205-.748-.323-1.445-.695-2.991-.857-4.553-.744-1.864.135-2.874 1.363-2.81 3.195.027.783.442 1.309.984 1.772.473.402 1.004.739 1.465 1.154.796.718.821 1.702.055 2.448-.328.32-.716.617-1.131.802-1.098.491-2.214.948-3.346 1.357-1.122.407-1.801 1.179-2.132 2.294-.24.807-.056 1.548.429 2.205.445.601.963 1.119 1.919 1.032m34.839 20.292c.021 1.635-.723 2.497-2.136 2.592-1.677.112-3.247-.268-4.633-1.259-.93-.664-1.474-1.548-1.654-2.699-.126-.799-.008-1.562.196-2.298.536-1.935 2.084-3.422 4.663-3.12 1.193.139 2.28.468 3.183 1.283.261.236.553.365.82.089.729-.752 1.445-1.492 1.326-2.702-.062-.64.077-1.306.176-1.954.076-.496.241-.978.349-1.471.267-1.221.186-2.391-.532-3.466-.193-.291-.377-.591-.531-.905-.451-.922-.325-1.602.43-2.308.254-.238.53-.458.818-.655 1.192-.813 1.83-1.939 2.128-3.347.188-.888-.043-1.692-.169-2.53-.137-.918-.284-1.835-.394-2.757-.022-.187.101-.393.194-.722.191.245.337.349.361.477.292 1.559.742 3.114.802 4.684.076 2.054-.835 3.727-2.614 4.913-1.38.921-1.377 1.143-.554 2.547.098.168.191.339.293.504.445.711.619 1.469.63 2.321.013 1.078-.311 2.068-.555 3.083-.364 1.514-.183 1.926 1.144 2.631.782.416 1.545.869 2.42 1.364-.039-.566-.008-1.143-.128-1.687-.253-1.136-.572-2.257-.89-3.376-.405-1.42-.06-2.607 1.042-3.579.351-.308.723-.592 1.062-.911.565-.533 1.152-1.05 1.657-1.637 1.08-1.254 1.337-2.68.734-4.242-.167-.435-.34-.87-.47-1.316-.555-1.9-.238-3.617 1.141-5.079.345-.364.752-.672 1.142-.991.45-.37.942-.694 1.364-1.093.926-.873 1.01-1.61.347-2.699-.19-.312-.423-.598-.794-1.117.417.145.613.164.74.266.676.543 1.041 1.261 1.017 2.129-.019.615.202.974.762 1.281 2.313 1.268 4.243 3.006 5.94 5.013.19.224.403.428.691.732.046-.362.093-.589.099-.817.012-.428.02-.857-.007-1.283-.078-1.197-.866-2.182-2.026-2.569-.259-.085-.516-.172-.77-.271-.467-.181-.664-.534-.561-1.017.063-.299.192-.585.297-.876.196-.548.473-1.079.582-1.644.541-2.82-1.497-4.138-3.417-3.464-.722.253-1.456.471-2.182.704-.401-.884-.516-1.028-1.194-1.104-2.657-.296-5.114.146-7.185 1.99-.522.465-1.078.894-1.643 1.306-.222.162-.513.232-.89.395.096-1.008.929-1.259 1.337-1.803-.081-.095-.118-.184-.177-.2-2.887-.837-5.808-1.444-8.84-1.291-2.473.126-4.415 1.118-5.57 3.404-.263.52-.557 1.026-.854 1.527-.52.88-1.276 1.448-2.278 1.682-.34.079-.68.162-1.015.26-1.741.51-3.101 1.469-4.131 3.023-2.071 3.125-2.388 6.323-.764 9.707.403.842.417 1.71.242 2.617-.38 1.955-.517 3.916-.095 5.895.678 3.182 2.397 5.316 5.716 6.012.815.172 1.593.604 2.333 1.014.344.19.651.575.81.944.294.682.787 1.134 1.358 1.554.823.603 1.682 1.097 2.696 1.336.428.1.904.334 1.179.659.239.282.493.439.791.614 1.419.834 2.749 1.751 3.065 3.552.07.403.224.807.593 1.051 1.013-.914 2.088-1.58 3.471-1.364.956.15 1.897.396 2.844.599 2.491.533 4.938.408 7.339-.477.4-.147.813-.268 1.226-.37 2.012-.496 3.916-1.276 5.776-2.168 2.248-1.075 3.796-2.812 4.661-5.136.419-1.127.794-2.276 1.095-3.439.417-1.603.518-3.233.06-4.874.237-.076.454-.182.68-.211.84-.112 1.547-.508 2.201-1.008 1.439-1.103 1.776-3.354.688-4.819-.679-.914-1.865-1.549-3.034-.189-.343.401-.557.92-.791 1.404-.117.24-.13.528-.224.781-.032.086-.164.184-.253.187-.097.004-.251-.073-.287-.156-.075-.172-.158-.387-.116-.554.138-.556.249-1.145.525-1.633.263-.462.303-.843.088-1.301-.626-1.335-1.138-2.735-1.882-4-2.095-3.557-4.862-6.542-8.106-9.089-.97-.762-.97-.755-1.931.097-.261.231-.554.427-.819.653-.443.379-.913.735-1.307 1.16-1.143 1.235-1.551 2.667-1.012 4.303.183.553.397 1.096.592 1.645.553 1.557.281 2.985-.69 4.294-.277.373-.559.751-.89 1.076-.611.597-1.226 1.197-1.898 1.722-1.142.893-1.358 2.013-.972 3.331.218.745.428 1.493.642 2.24.302 1.055.451 2.132.351 3.224-.051.552-.056 1.184-.782 1.388-.685-1.499-1.564-2.187-3.774-2.98-.372.499-.685 1.056-1.127 1.476-.447.425-.868.82-.879 1.613-.361-.291-.658-.438-.822-.677-.877-1.268-2.194-1.541-3.585-1.589-1.644-.057-2.987.914-3.405 2.476-.541 2.021-.061 3.305 1.467 4.246.984.606 2.078.833 3.22.899.894.05 1.597-.235 2.082-1.014.118-.189.29-.346.561-.662m25.925-15.828c.188-.061.366-.126.548-.178 1.871-.529 3.645.591 3.932 2.542.105.724.144 1.488.033 2.207-.265 1.725-1.483 2.651-3.005 3.256-.346.137-.821.153-1.02.4-.162.2-.013.663.024 1.008.246 2.321-.528 4.445-1.26 6.577-.473 1.378-1.209 2.603-2.181 3.688-.175.195-.323.412-.598.768 2.528-.452 4.899-.745 7.166-1.328-.087-.918-.382-1.803-.185-2.562.2-.768.885-1.41 1.426-2.206-.604-.425-1.331-.922-2.04-1.441-.406-.298-.82-.599-1.168-.959-.551-.572-.616-1.229-.197-1.918.239-.394.529-.78.873-1.082.76-.664 1.544-1.306 2.363-1.896.963-.694 1.619-.684 2.548.036.487.377.905.849 1.319 1.311.31.346.559.745.838 1.12.3.405.524.981.928 1.164.381.174.953-.046 1.436-.123 1.202-.196 2.16.129 2.739 1.261.175.343.406.472.805.538 1.102.18 2.186 1.458 2.271 2.618.03.423.084.731.556.889.225.076.467.326.553.553.22.581.62.65 1.12.496 1.637-.509 2.639.569 3.677 1.493.42.373.419.932.151 1.397-.346.6-.906.854-1.563.837-.381-.01-.757-.164-1.14-.232-.364-.065-.733-.102-1.133-.155.848 1.615 1.642 3.125 2.435 4.635.053.103.113.206.147.317.178.567-.145.94-.721.815-.264-.057-.528-.146-.77-.266-1.879-.924-3.786-1.809-5.396-3.186-.299-.254-.521-.28-.782.026-.353.414-.73.807-1.083 1.221-.444.523-1.013.698-1.671.627-1.019-.111-2.004-.35-2.815-1.009-.575-.467-1.198-.526-1.865-.359-.641.161-1.288.32-1.902.556-2.188.844-4.493 1.236-6.767 1.722-2.769.593-5.564 1.083-8.363 1.511-1.61.247-3.25.297-4.878.408-.847.059-.825.039-1.017.845-.105.443-.303.865-.48 1.355 1.104.23 2.183.618 3.056 1.424.64.591 1.179 1.243 1.253 2.163.078.948-.101 1.238-.985 1.605-.804.335-.819.342-.493 1.022.431.898.415 1.801.046 2.699-.566 1.38-1.385 2.598-2.409 3.686-1.358 1.444-2.7 2.903-4.029 4.373-.531.587-.911 1.253-.796 2.105.056.414.23.638.669.628.545-.012 1.092.02 1.634-.012 1.995-.118 3.738.609 5.39 1.606 1.308.791 2.204 1.977 2.812 3.34.236.532.225 1.215.176 1.816-.02.268-.37.578-.647.742-.819.485-1.742.646-2.684.684-.621.025-1.245.022-1.867.02-.399-.002-.555.192-.542.576.011.311.008.623-.009.933-.048.816-.287 1.117-1.091 1.253-.496.083-1.008.1-1.512.098-4.24-.02-8.482-.016-12.722-.095-1.784-.034-3.563-.254-5.346-.384-.387-.028-.779-.019-1.164-.06-.423-.046-.856-.079-1.258-.205-1.55-.486-2.031-1.218-1.967-2.818.056-1.381.666-2.54 1.455-3.608.62-.84 1.336-1.609 1.999-2.418.082-.1.175-.281.138-.374-.237-.592.141-.978.457-1.355 1.052-1.253 2.195-2.409 3.578-3.317.738-.485 1.57-.865 2.253-1.779-.831.119-1.499.177-2.15.317-2.33.502-4.683.689-7.064.646-.933-.016-1.762-.316-2.537-.767-.841-.489-1.083-1.384-1.308-2.255-.196-.755-.184-.758-.943-.798-.193-.01-.391.003-.581-.028-.839-.136-1.176-.565-.897-1.387.425-1.247.959-2.457 1.469-3.674.225-.537.549-1.035.754-1.578.258-.685.495-1.387.646-2.101.704-3.32 2.355-6.051 5.01-8.167.942-.751 1.894-1.491 2.853-2.221.962-.732 1.972-1.385 3.443-1.701-.488-.191-.743-.335-1.016-.391-1.389-.286-2.462-1.135-3.522-1.984-.286-.231-.496-.607-.636-.958-.217-.548-.578-.917-1.106-1.128-.682-.274-1.356-.595-2.065-.768-2.859-.697-4.688-2.429-5.582-5.23-.754-2.36-.779-4.736-.341-7.136.194-1.063.106-2.024-.329-3.05-1.133-2.676-1.375-5.401.012-8.102.623-1.213 1.239-2.428 2.232-3.393.278-.271.374-.551.33-.935-.075-.66-.023-1.302.243-1.94.272-.653-.292-.915-.802-1.412-.161.629-.262 1.108-.408 1.572-.208.663-.368 1.36-.697 1.963-.579 1.058-1.523 1.513-2.743 1.28-.258-.05-.511-.132-.832-.216.198 2.001-.066 3.909-.383 5.811-.063.378-.181.761-.353 1.102-.251.5-.648.931-1.225.989-1.487.151-2.959.129-4.259-.785-.477-.336-.953-.675-1.444-.99-.756-.486-1.561-.447-2.338-.087-.739.342-.806.785-.332 1.48.118.173.285.509.228.565-.168.165-.434.305-.668.316-2.149.096-3.692-1.114-3.983-3.108-.189-1.293.611-3.408 2.476-4.092.948-.348 1.897-.697 2.831-1.079.43-.175.847-.399 1.234-.656.841-.559.868-1.109.102-1.754-.386-.326-.798-.621-1.196-.931-1.417-1.104-1.487-2.579-1.026-4.117.431-1.431 1.585-2.093 2.987-2.239 1.87-.196 3.729-.124 5.461.764.101.052.217.074.328.1.031.008.07-.016.176-.044.017-.319.036-.66.055-1.001.094-1.759 1.301-2.764 3.042-2.539 3.247.422 5.946 2.798 6.709 5.968.108.448.196.708.71.669.917-.067 1.765.166 2.558.769.225-.33.434-.603.608-.898 1.336-2.262 3.443-3.164 5.944-3.305 3.156-.179 6.185.495 9.138 1.534.5.177.819.128 1.251-.172 2.135-1.485 4.501-2.068 7.079-1.582.439.083.919.276 1.242.569.388.353.679.32 1.136.194.702-.192 1.444-.305 2.172-.319 1.377-.028 2.431.836 2.818 2.161.345 1.178.167 2.298-.286 3.41-.496 1.218-.464 1.182.747 1.723 1.446.647 2.173 1.849 2.261 3.402.04.69-.066 1.392-.142 2.085-.052.479-.025.89.287 1.311 1.425 1.921 2.502 4.022 3.17 6.325.032.108.098.206.169.348" fill="#231f20" transform="matrix(5.55556 0 0 5.55556 541.9198686 228.0254974)"/><path d="m0 41.313c.598-.59 1.05-1.332 1.477-2.06-1.518.026-2.942-.363-4.211-1.27-.93-.664-1.474-1.548-1.655-2.7-.125-.8-.007-1.562.197-2.299.535-1.934 2.084-3.421 4.662-3.12 1.194.14 2.28.468 3.184 1.283.261.237.552.366.82.09.728-.752 1.444-1.492 1.326-2.702-.062-.64.077-1.306.176-1.953.075-.497.241-.979.349-1.471.267-1.222.186-2.392-.531-3.467-.194-.291-.379-.592-.532-.905-.452-.923-.325-1.601.429-2.308.255-.238.531-.459.819-.655 1.192-.813 1.83-1.94 2.128-3.346.188-.89-.043-1.693-.169-2.531-.138-.918-.284-1.836-.394-2.756-.022-.188.101-.393.194-.723.19.244.337.349.361.476.292 1.559.743 3.115.801 4.685.076 2.054-.833 3.726-2.613 4.914-1.38.92-1.377 1.141-.554 2.546.098.168.19.339.293.504.445.711.619 1.47.629 2.321.014 1.078-.31 2.068-.554 3.084-.365 1.513-.183 1.925 1.143 2.629.783.417 1.546.87 2.42 1.365-.038-.565-.007-1.144-.128-1.688-.253-1.135-.57-2.256-.889-3.376-.404-1.418-.06-2.606 1.042-3.577.35-.308.723-.592 1.062-.912.565-.532 1.152-1.05 1.656-1.636 1.08-1.256 1.338-2.68.735-4.243-.167-.434-.34-.869-.471-1.316-.555-1.9-.237-3.617 1.143-5.078.344-.365.752-.672 1.141-.992.45-.37.942-.694 1.364-1.092.926-.875 1.01-1.611.348-2.699-.191-.313-.424-.599-.796-1.118.418.146.614.164.741.266.675.544 1.041 1.261 1.016 2.129-.017.615.203.975.763 1.282 2.312 1.267 4.244 3.005 5.94 5.013.189.224.403.428.691.731.046-.363.093-.59.099-.817.012-.427.021-.857-.007-1.282-.079-1.197-.866-2.183-2.027-2.569-.257-.087-.516-.173-.769-.271-.467-.182-.664-.535-.562-1.017.063-.3.194-.586.298-.877.197-.547.473-1.079.581-1.643.542-2.822-1.496-4.139-3.416-3.465-.722.253-1.456.47-2.183.703-.401-.883-.515-1.027-1.193-1.103-2.657-.297-5.114.146-7.185 1.99-.523.465-1.078.894-1.643 1.306-.223.162-.512.232-.89.394.095-1.008.929-1.257 1.337-1.802-.08-.094-.119-.183-.177-.2-2.886-.837-5.808-1.445-8.84-1.29-2.474.125-4.415 1.117-5.571 3.404-.263.52-.556 1.024-.853 1.526-.519.879-1.276 1.447-2.278 1.682-.34.08-.68.162-1.016.26-1.74.509-3.1 1.469-4.13 3.023-2.071 3.125-2.388 6.323-.765 9.708.403.841.419 1.709.243 2.616-.38 1.956-.517 3.917-.095 5.895.678 3.182 2.397 5.315 5.716 6.012.815.171 1.592.603 2.332 1.014.344.191.652.576.811.944.293.682.788 1.135 1.359 1.554.821.602 1.681 1.098 2.694 1.336.429.101.905.334 1.179.659.24.283.494.439.792.615.205.12.407.244.606.37" fill="#c37645" transform="matrix(5.55556 0 0 5.55556 260.21964324 45.01423988)"/><path d="m0 7.956c.875.085 1.743.073 2.582-.214.706-.24 1.344-.624 1.91-1.105 1.06-.902 1.838-2.076 2.826-3.049 1.197-1.177 2.755-1.956 4.459-1.914 1.538.038 2.998.599 4.517.784.3-.346.7-.569.947-.899-.08-.093-.119-.183-.177-.2-2.886-.837-5.808-1.444-8.84-1.29-2.474.125-4.415 1.117-5.571 3.404-.263.52-.556 1.025-.853 1.527-.519.879-1.276 1.447-2.278 1.682-.34.079-.68.162-1.016.26-.65.19-1.247.444-1.794.767 1.079-.061 2.202.141 3.288.247" fill="#e08b5a" transform="matrix(5.55556 0 0 5.55556 208.84182436 48.49202044)"/><path d="m0-9.891c-.078-1.197-.866-2.182-2.026-2.569-.258-.085-.516-.173-.77-.271-.467-.181-.664-.534-.562-1.017.064-.299.193-.585.298-.877.196-.547.474-1.079.582-1.643.541-2.821-1.497-4.138-3.417-3.465-.722.254-1.456.472-2.183.704-.4-.884-.515-1.028-1.193-1.104-1.723-.192-3.358-.065-4.862.544.134.047.271.082.402.136.853.351 1.729.905 2.014 1.835.242.783-.019 1.627-.345 2.345-.84 1.843-2.283 3.396-2.911 5.338-.163.505-.209.988-.201 1.516.011.748.053 1.494.097 2.242.078 1.293.157 2.598-.08 3.88-.121.656-.317 1.295-.583 1.907-.299.689-.71 1.308-1.054 1.971-.545 1.051-.944 2.199-1.112 3.374-.163 1.134-.115 2.33.325 3.4.236.574.578 1.078.995 1.51.365.21.737.424 1.136.65-.038-.566-.007-1.144-.128-1.688-.252-1.135-.571-2.256-.889-3.376-.404-1.419-.06-2.607 1.042-3.578.351-.308.723-.592 1.062-.912.565-.532 1.152-1.05 1.657-1.636 1.08-1.254 1.337-2.68.734-4.242-.167-.435-.34-.87-.47-1.316-.556-1.9-.238-3.617 1.142-5.079.344-.364.751-.672 1.141-.992.45-.369.942-.693 1.364-1.092.926-.874 1.01-1.611.347-2.699-.19-.313-.423-.598-.794-1.117.417.145.612.163.74.266.676.543 1.041 1.261 1.016 2.129-.017.615.203.974.763 1.281 2.313 1.267 4.243 3.006 5.94 5.013.189.224.403.428.691.732.046-.363.093-.59.099-.818.011-.427.021-.856-.007-1.282" fill="#e08b5a" transform="matrix(5.55556 0 0 5.55556 402.69197944 158.51433068)"/><path d="m0 18.782c-.957.088-1.474-.43-1.919-1.032-.486-.657-.669-1.398-.43-2.204.331-1.115 1.011-1.888 2.133-2.294 1.131-.408 2.248-.866 3.346-1.357.415-.186.803-.483 1.131-.802.765-.746.74-1.729-.056-2.448-.46-.416-.991-.752-1.464-1.155-.543-.462-.957-.989-.984-1.771-.064-1.832.945-3.059 2.809-3.195 1.563-.113 3.108.049 4.552.744.246.117.49.25.749.324.794.224 1.182-.112 1.151-.939-.016-.458-.052-.933.036-1.377.202-1.009.67-1.364 1.712-1.348 1.62.026 3.08.522 4.18 1.745.672.747 1.24 1.591 1.806 2.424.212.312.308.71.418 1.08.096.32.026.598-.29.805-.418.272-.809.585-1.247.907-.291-.305-.555-.639-.875-.905-.425-.354-.928-.295-1.191.183-.238.433-.365.933-.518 1.41-.223.699-.341 1.445-.656 2.098-.539 1.113-1.422 1.354-2.529.809-.314-.153-.602-.373-.929-.48-.499-.164-.924.217-.725.696.79 1.902.383 3.828.171 5.744-.208 1.87-.875 2.328-2.734 2.046-.871-.131-1.633-.474-2.342-.978-.412-.292-.835-.569-1.265-.834-.952-.588-1.937-.506-2.902-.061-.897.414-1.349 1.123-1.138 2.165" fill="#c37645" transform="matrix(5.55556 0 0 5.55556 89.09172856 31.53645132)"/><path d="m0-15.213c.3.56.521 1.059.818 1.509.664 1.005 1.43 1.201 2.48.6.422-.243.772-.27 1.238-.043-.37 1.044-1.105 1.8-1.747 2.616-.912 1.158-1.881 2.278-2.715 3.49-.612.888-1.1 1.874-1.547 2.859-.512 1.126-.956 2.286-1.357 3.456-.204.596-.659.635-1.104.647-1.165.033-2.339.079-3.497-.019-1.816-.153-3.623-.412-5.432-.645-.337-.044-.663-.18-1.031-.283.095-.552.464-.853.765-1.182.946-1.039 2.038-1.903 3.195-2.703 1.924-1.332 3.489-3.056 4.999-4.905-.218.084-.493.11-.643.261-1.187 1.194-2.691 1.634-4.289 1.881-1.763.274-3.516.639-5.289.816-1.301.131-2.628.235-3.933-.152-1.226-.363-1.853-1.186-2.093-2.398-.076-.389-.015-.582.399-.646 1.112-.173 2.232-.318 3.329-.562 2.346-.523 4.684-1.087 7.017-1.664 1.017-.252 2.024-.553 3.019-.883.428-.141.816-.411 1.22-.628.888-.478 1.885-.675 2.8-.375 1.251.411 2.195.183 3.017-.791.071-.083.187-.128.381-.256" fill="#87caef" transform="matrix(5.55556 0 0 5.55556 304.38634524 442.15344648)"/><path d="m0-.205c1.497-.094 3.206-.153 4.902-.327.761-.078 1.491-.423 2.248-.579 2.09-.432 4.181-.87 6.284-1.225 1.76-.296 3.665.647 4.476 2.109.128.233.241.492.284.752.06.36-.181.565-.492.701-.34.15-.492-.043-.633-.31-.511-.968-1.438-1.507-2.255-2.158-.218-.173-.524-.348-.684-.022-.073.147.104.505.269.664.389.378.819.719 1.265 1.03 1.014.708 1.093 1.776.698 2.924-.127.371-.356.598-.769.575-.452-.025-.796-.336-.854-.797-.029-.23.039-.479-.02-.696-.2-.743-.407-1.486-.676-2.204-.083-.223-.345-.414-.572-.535-.131-.069-.353.03-.533.053.024.175-.016.413.083.515.547.559.709 1.284.916 1.988.164.557.031 1.096-.263 1.564-.117.187-.426.34-.656.351-.328.017-.244-.306-.264-.527-.094-1.071-.606-1.998-1.039-2.951-.061-.133-.176-.312-.292-.333-.129-.025-.388.081-.411.174-.041.168.026.38.093.554.211.544.485 1.066.653 1.621.121.395.208.845.14 1.243-.122.724-.869.944-1.423.455-.199-.175-.348-.416-.488-.645-.182-.298-.311-.63-.503-.921-.59-.894-.938-.917-1.666-.141-.895.955-1.308 1-2.512.312-.148-.084-.376-.155-.523-.104-1.255.444-2.556.62-3.872.62-2.567.001-5.137.007-7.7-.105-1.151-.051-2.293-.362-3.433-.591-.935-.189-1.333-.877-1.453-1.752-.162-1.182 0-2.332.477-3.421.312-.711.699-1.387 1.028-2.091.216-.466.535-.663 1.022-.468 1.008.405 2.013.819 3.011 1.246.386.165.381.444.139.747-.264.332-.504.687-.799.989-.309.317-.223.622.08.762.592.272 1.217.564 1.851.632 1.543.168 3.099.214 4.866.322" fill="#fedcc4" transform="matrix(5.55556 0 0 5.55556 255.74186188 341.1644768)"/><path d="m0 1.708c-.376.286-.683.398-.759.597-.371.977-.792 1.958-.972 2.977-.119.676-.462.85-.971.889-1.432.111-2.865.231-4.298.24-1.396.01-2.794-.099-4.188-.185-.492-.03-.978-.144-1.496-.225-.016-.574.295-.879.545-1.205.191-.25.388-.303.679-.066.513.417.574.416.893-.168.809-1.481 1.909-2.736 3.009-3.994.306-.35.667-.655.957-1.017.122-.151.235-.465.16-.587-.194-.318-.483-.134-.693.038-.3.244-.608.494-.849.792-.954 1.176-1.911 2.349-2.806 3.568-.287.392-.463.493-.918.267-1.413-.702-2.855-1.349-4.386-2.065.399-.47.733-1.012 1.202-1.389 1.513-1.215 3.065-2.385 4.629-3.536.431-.317.935-.566 1.44-.747 1.693-.605 3.523.345 4.077 2.07.202.627.397 1.256.636 1.868.126.321.313.628.521.905.322.428.773.656 1.318.592.166-.02.317-.169.476-.258-.091-.145-.161-.309-.277-.429-.1-.105-.252-.16-.465-.287.72-.712 1.542-1.09 2.434-1.301.269-.065.607.064.892.165 1.883.661 3.795 1.117 5.813 1.018.711-.035.722.003.736.691.011.544.011 1.088-.009 1.632-.025.665-.175.836-.844.796-1.277-.076-2.551-.213-3.827-.309-.619-.047-1.241-.063-1.862-.083-.933-.031-.933-.028-.797-1.254" fill="#bf75b1" transform="matrix(5.55556 0 0 5.55556 294.24189268 299.78111036)"/><path d="m0-1.368c-.006-.63.056-1.289.204-1.926-.916 1.06-1.801 2.142-2.479 3.384-.319.584-.38.585-.893.168-.291-.238-.488-.184-.679.066-.25.326-.561.631-.546 1.205.519.081 1.005.195 1.496.225 1.24.076 2.482.16 3.723.172-.592-.974-.816-2.176-.826-3.294" fill="#955a8b" transform="matrix(5.55556 0 0 5.55556 248.17518916 324.62557468)"/><path d="m0 7.136c1.183-1.648 2.742-3.074 4.47-4.133 1.18-.721 2.567-1.353 3.979-1.447-.808-1.099-2.233-1.614-3.583-1.133-.505.181-1.009.43-1.44.747-1.564 1.152-3.115 2.322-4.628 3.537-.469.376-.804.919-1.203 1.389.811.379 1.595.74 2.366 1.098.013-.019.025-.039.039-.058" fill="#955a8b" transform="matrix(5.55556 0 0 5.55556 218.1973874 274.60331244)"/><path d="m0 1.694c-.483.515-.958 1.026-1.438 1.533-.288.304-.634.415-1.057.334-.843-.161-1.691-.317-2.364-.9-.678-.587-1.407-.739-2.269-.465-1.316.421-2.675.676-3.984 1.163-1.264.469-2.626.685-3.957.964-2.927.611-5.857 1.206-8.793 1.774-.836.162-1.693.219-2.543.303-.965.094-1.933.174-2.901.244-.308.021-.633.038-.708-.404-.108-.641.017-.943.525-1.096 1.151-.349 2.299-.713 3.461-1.023 1.851-.493 3.636-1.173 5.302-2.095 1.263-.699 2.605-.969 3.985-1.208 2.105-.365 4.206-.746 6.305-1.141.882-.166.898-.245.62-1.063-.16-.474-.294-.962-.374-1.454-.13-.781.309-1.339.843-1.82.268-.243.592-.328.974-.21.482.148.985.222 1.471.355 1.169.32 2.349.498 3.569.438.616-.031.656.057.693.66.058.953-.116 1.26-.98 1.616-.856.353-1.718.401-2.614.093-.469-.16-.978-.226-1.475-.274-.135-.013-.382.174-.412.306-.029.132.122.42.243.451 1.298.335 2.58.998 3.96.399.519-.226.822-.07 1.216.293.826.761 1.732 1.437 2.702 2.227" fill="#fedcc4" transform="matrix(5.55556 0 0 5.55556 506.83095164 271.54775444)"/><path d="m0 3.468c-1.132.558-2.293.779-3.446.801-3.379.065-6.762.115-10.139.009-2.516-.08-5.025-.407-7.403-1.345-.18-.071-.367-.123-.551-.183-.335-.112-.428-.352-.255-.632.368-.593.764-1.168 1.163-1.742.236-.34.538-.199.833-.079 1.704.689 3.506.986 5.301 1.282 1.463.241 2.867.055 4.08-.908.061-.049.13-.087.191-.135 1.115-.875 2.288-1.452 3.716-.725 2.356.335 4.244 1.608 6.062 3.02.09.071.155.174.223.269.067.093.121.195.225.368" fill="#00b8ad" transform="matrix(5.55556 0 0 5.55556 330.56414396 450.62567548)"/><path d="m0 3.762c-3.61-.087-7.222-.145-10.831-.275-1.706-.062-3.405-.283-5.109-.395-.718-.047-1.239-.44-1.741-.86-.433-.364-.377-1.873.074-2.139.157-.093.443-.029.649.033.928.281 1.837.638 2.776.87.86.212 1.749.308 2.628.44.574.086 1.155.135 1.73.219 2.862.417 5.741.173 8.612.213 1.986.027 3.96-.092 5.851-.772.402-.144.565-.006.683.353.538 1.631.119 2.239-1.59 2.256-1.243.012-2.487.003-3.731.003 0 .018-.001.036-.001.054" fill="#fff" transform="matrix(5.55556 0 0 5.55556 305.1141236 469.15902364)"/><path d="m0-6.317c.528 1.449 1.477 1.991 2.762 2.287 1.721.396 3.456.485 5.195.571 1.548.077 3.102.016 4.68.195-.468.152-.931.325-1.407.453-1.574.424-3.139.895-4.732 1.235-2.315.493-4.637.997-6.981 1.295-2.211.281-2.07.081-1.349-1.712.561-1.395 1.171-2.771 1.832-4.324" fill="#955a8b" transform="matrix(5.55556 0 0 5.55556 186.30291744 384.62006712)"/><path d="m0-12.378c.216.783.058 1.254-.172 1.712-.614 1.22-1.368 2.338-2.322 3.326-1.372 1.422-2.734 2.856-4.072 4.312-.607.661-1.128 1.392-1.048 2.376.028.333-.161.509-.49.495-.45-.02-.922.157-1.418-.148.44-1.408.934-2.793 1.8-3.992.883-1.226 1.852-2.389 2.788-3.575.407-.518.836-1.019 1.238-1.54.572-.744 1.032-1.541 1.034-2.627.957.384 1.891.88 2.662-.339" fill="#87caef" transform="matrix(5.55556 0 0 5.55556 350.0030484 431.43121568)"/><path d="m0 2.388c-1.257.176-2.44.35-3.626.506-.691.091-1.384.193-2.079.216-.369.012-.777-.067-1.11-.225-.87-.415-1.709-.895-2.559-1.352-.131-.071-.253-.16-.496-.314.348-.221.628-.385.892-.573.218-.155.52-.296.604-.514.306-.778.889-.786 1.596-.807 1.9-.059 3.589.532 5.174 1.494.616.375 1.253.76 1.604 1.569" fill="#00b8ad" transform="matrix(5.55556 0 0 5.55556 361.0030572 440.18122268)"/><path d="m0 5.522c-.055-.021-.239-.068-.402-.155-.204-.11-.396-.245-.584-.38-1.341-.967-1.407-1.629-.165-2.763.74-.676 1.58-1.244 2.373-1.863.462-.361.937-.336 1.392-.012.283.2.527.455.79.682.369.317.452.674.249 1.138-.185.422-.25.898-.443 1.315-.5 1.076-1.884 1.968-3.21 2.038" fill="#f59aa5" transform="matrix(5.55556 0 0 5.55556 448.53646056 199.78658592)"/><path d="m0-.486c.418-.731.929-.994 1.745-.905 2.689.293 5.357.856 8.085.722.102-.004.206.049.441.108-.817.488-1.532.938-2.272 1.342-.225.123-.519.16-.783.169-1.164.041-2.322.044-3.461-.29-.629-.184-1.281-.291-1.924-.432-.641-.141-1.26-.334-1.831-.714" fill="#fedcc4" transform="matrix(5.55556 0 0 5.55556 220.7807228 449.7756748)"/><path d="m0-1.206c.435-.099.819-.218 1.213-.27 1.421-.187 2.846-.34 4.268-.531.319-.043.523.05.681.305.081.131.17.261.236.4.53 1.108.316 1.738-.9 1.943-1.212.203-2.468.16-3.704.17-.21.001-.464-.244-.623-.437-.392-.478-.741-.993-1.171-1.58" fill="#fff" transform="matrix(5.55556 0 0 5.55556 331.54192252 468.75346776)"/><path d="m0-5.083c.493-.109.677-.162.865-.188 1.649-.234 2.554.387 2.785 2.025.1.721.06 1.479-.034 2.205-.051.399-.29.812-.551 1.13-.168.204-.529.31-.811.327-.09.006-.21-.413-.308-.641-.031-.069-.012-.166-.053-.224-.71-1.018-.338-2.123-.242-3.196.043-.477.055-.714-.57-.672-.278.02-.585-.397-1.081-.766" fill="#fedcc4" transform="matrix(5.55556 0 0 5.55556 485.90871268 251.60329404)"/><path d="m0 3.754c-.249-1.324.409-2.323 1.412-3.034 1.018-.72 2.195-.702 3.302-.08.597.334.66.632.178 1.077-.388.357-.853.683-1.342.867-1.149.435-2.333.776-3.55 1.17" fill="#87caef" transform="matrix(5.55556 0 0 5.55556 185.96402828 66.25314576)"/><path d="m0 2.483c1.046-.758 1.678-1.689 2.349-2.59.329-.443.409-.436.797-.044.272.274.538.557.786.854.47.566.545 1.418.137 2.029-.106.158-.376.282-.575.287-.46.014-.928-.022-1.382-.098-.709-.12-1.409-.289-2.112-.438" fill="#ffdd18" transform="matrix(5.55556 0 0 5.55556 466.07536348 227.85327504)"/><path d="m0-5.679c1.051.351 1.687 1.133 1.689 2.052.003 1.338-.627 2.362-1.602 3.214-.087.075-.185.144-.289.193-.378.179-.78.22-1.065-.119-.286-.338-.236-.75.086-1.046.598-.551.944-1.23 1.081-2.008.086-.489.075-.996.098-1.496.012-.26.002-.52.002-.79" fill="#fedcc4" transform="matrix(5.55556 0 0 5.55556 511.20317736 264.95886028)"/><path d="m0 1.094c.014.368-.534.866-.998.805-.92-.12-1.84-.276-2.747-.482-.343-.077-.654-.404-.546-.781.106-.37 0-.881.529-1.068 1.225-.434 3.068.212 3.689 1.309.038.065.049.144.073.217" fill="#fedcc4" transform="matrix(5.55556 0 0 5.55556 555.05321244 260.0810786)"/><path d="m0 2.901c.773-.519 1.638-.921 2.248-1.564.578-.609.89-1.471 1.32-2.224.017.009.063.018.084.045 1.153 1.464.982 1.176.117 2.436-.389.565-.859 1.094-1.372 1.549-.603.534-1.3.645-1.983.067-.145-.123-.304-.227-.414-.309" fill="#87caef" transform="matrix(5.55556 0 0 5.55556 453.50868676 218.29771184)"/><path d="m0 4.187c-.093-.055-.466-.151-.554-.365-.094-.229.073-.569.144-.857.016-.064.097-.12.16-.164.916-.644 1.554-1.499 1.961-2.54.045-.116.216-.261.322-.256.119.007.271.145.339.265.762 1.36-.629 3.871-2.372 3.917" fill="#fedcc4" transform="matrix(5.55556 0 0 5.55556 513.76429052 251.553294)"/><path d="m0-1.699c.178.013.604.025 1.025.078.301.038.409.315.183.482-.882.654-1.836 1.146-2.982 1.021-.477-.052-.579-.26-.437-.727.223-.734.345-.827 1.153-.852.271-.009.541-.002 1.058-.002" fill="#fedcc4" transform="matrix(5.55556 0 0 5.55556 304.8641234 445.1090044)"/><path d="m0-2.748c.22.393.461.737.614 1.117.201.501-.168 1.339-.664 1.57-.12.056-.316.061-.43 0-.465-.247-.912-.528-1.345-.785.604-.629 1.152-1.201 1.825-1.902" fill="#fdbb24" transform="matrix(5.55556 0 0 5.55556 534.96430748 292.92554932)"/><path d="m0-3.022c.174.466.346.686.31.867-.19.971-.813 1.637-1.666 2.077-.15.078-.462-.015-.625-.133-.33-.242-.609-.553-1.029-.949 1.37-.065 2.339-.526 3.01-1.862" fill="#fedcc4" transform="matrix(5.55556 0 0 5.55556 529.13096948 285.46443224)"/><path d="m0 2.913c-.817-.642-1.591-1.25-2.401-1.888.212-.242.349-.425.512-.578.473-.447.694-.407.81.212.08.426.296.68.629.901.62.411.615.419.45 1.353" fill="#ffdd18" transform="matrix(5.55556 0 0 5.55556 505.475395 258.4699662)"/><g fill="#231f20"><path d="m0-1.462c.249.45.482.87.808 1.462-.382-.139-.622-.196-.834-.308-.718-.374-.715-.381.026-1.154" transform="matrix(5.55556 0 0 5.55556 541.9198686 299.48666568)"/><path d="m0 4.393c-.566 1.617-1.59 2.085-3.122 1.346-1.498-.72-2.449-1.891-2.548-3.604-.032-.54-.189-.761-.749-.751-.421.009-.849-.084-1.263-.179-.162-.038-.293-.205-.438-.313.139-.109.266-.281.42-.313.3-.06.618-.071.926-.05.692.049 1.204-.249 1.594-.781.408-.557.793-1.13 1.283-1.833.109.359.279.615.227.812-.128.479-.261 1.01-.565 1.376-.827.998-.636 2.034-.183 3.04.532 1.181 1.538 1.888 2.823 1.943.503.021 1.027-.431 1.595-.693" transform="matrix(5.55556 0 0 5.55556 379.29196072 239.54217328)"/><path d="m0 .462c.015.883-.254 1.43-.709 1.548-.521.136-1.076-.083-1.446-.727-.282-.489-.472-1.05-.603-1.602-.096-.413-.013-.863.406-1.129.37-.236 1.138-.147 1.537.163.602.469.75 1.142.815 1.747" transform="matrix(5.55556 0 0 5.55556 407.48642772 160.06988748)"/><path d="m0 1.743c.14-1.601.885-2.666 2.097-3.428.152-.096.365-.136.547-.13.128.005.31.104.362.212.055.11.032.329-.048.418-.178.197-.415.341-.624.51-.924.748-1.463 1.67-1.367 2.904.027.343.003.695-.047 1.036-.017.115-.182.282-.29.291-.104.008-.296-.139-.322-.249-.134-.559-.226-1.128-.308-1.564" transform="matrix(5.55556 0 0 5.55556 358.1419438 126.7476386)"/><path d="m0 .982c-.077-1.502.78-2.184 2.1-1.653.553.223 1.046.655 1.489 1.075.415.395.74.888 1.077 1.359.062.086-.008.268-.017.405-.144-.016-.328.016-.425-.06-.303-.24-.567-.526-.858-.782-.289-.256-.575-.522-.892-.74-.978-.668-1.311-.622-2.189.238-.052.05-.131.074-.285.158" transform="matrix(5.55556 0 0 5.55556 251.03630256 228.59772008)"/></g></g></svg>