<svg clip-rule="evenodd" fill-rule="evenodd" stroke-linejoin="round" stroke-miterlimit="2" viewBox="0 0 212 212" xmlns="http://www.w3.org/2000/svg"><g fill-rule="nonzero" transform="matrix(.856074 0 0 .856074 28.1321 17.5233)"><path d="m84.96 113.36c-.3-.03-.6.05-.86.23-.18-.17-.38-.31-.59-.45.71-.17 1.42-.4 2.06-.67-.06.03-.11.05-.17.09-.29.2-.44.5-.44.8z" fill="#c96"/><path d="m78.8 55.22c-.07-.04-.14-.04-.21.01-.14-.08-.3-.1-.46-.02-.17.08-.21.24-.23.41-.02.16.11.33.23.41.1.06.21.13.32.17v.06h.02c.01.14.07.28.22.32.17.05.37-.06.41-.23.01-.03 0-.06.01-.09.56.45 1.16.85 1.75 1.27.79.55 1.23.88 1.54 1.82.08.24.08.41.2.65.1.2.51.53.49.74-.26.3-.51.6-.77.89-.22 0-.44 0-.66-.02-.43-.01-.72 0-1.14.11-.24.06-.19.43.06.43.87-.01 1.9.31 2.72-.11.07.04.14.08.21.12.71.4.89 1.33 1.1 2.09.1.36.32 1.04-.11 1.31-.23.15-.84.08-1.12.12-.67.08-1.35.24-1.92.6-.27.17-.1.59.22.52.02 0 .04-.01.06-.02.01.01.01.02.02.03.38.25.8.37 1.23.5.58.18 1.11.18.99.91-.14.9-.73 1.52-1.49 1.94-.09-.04-.19-.03-.28.02-.01-.01-.02-.03-.03-.04-.61-.46-1.64-.44-2.27.01-.01-.03-.03-.06-.05-.09-.22-.27-.49-.43-.79-.5.25-.63-.06-1.32-.71-1.58.35-.68.53-1.51-.17-1.96.41-.27.75-.68.77-1.18.04-.75-.45-.91-.96-1.17.1-.44-.2-.94-.66-1.12-.23-.09-.45-.05-.68-.1-.74-.17-.45-.34-.68-.82-.18-.37-.48-.56-.85-.69-.11-.04-.19-.03-.27.01-.3-.38-.66-.65-1.09-.83.13-.42.02-.87-.33-1.21-.23-.22-.4-.37-.54-.67-.07-.15-.13-.29-.25-.43-.27-.32-.63-.48-1.04-.45-.09.01-.16.05-.22.1-.35-1.04-.79-2.51-.11-3.23.46-.49.71-.9.57-1.55.36-.19.8-.26 1.06-.61.18-.24.13-.45.24-.71.26-.64.53-.39.99-.6.26-.12.36-.31.58-.47.46-.35.69-.29 1.23-.36.46-.06.81-.25 1.04-.66v-.02c1.93 1.77 4.38 3.37 1.81 5.97z" fill="#c96"/><path d="m56.27 53.71c.32-.67-.03-1.5.45-2.27.51-.81 1.31-1.3 2.14-1.73.06-.03.11-.07.15-.12.01 0 .02.01.04.01.23.04.43-.3.17-.41-.71-.32-.22-.95.26-1.12.24-.08.52-.05.76-.13.38-.12.64-.31.85-.65.22-.35.2-.7.54-1.01.26-.24.61-.37.94-.45.62-.16 1.24-.05 1.86-.17.2-.04.29-.27.24-.46.01 0 .03-.01.04-.01.16-.05.24-.32.05-.4-.28-.12.67-.41.79-.41.33.01.65.09.97.18.44.12.87.27 1.3.44.27.1.5-.2.44-.44-.14-.55-.42-1.66.49-1.16.49.27.89.77 1.19 1.24.16.25.47.2.61.03.06-.01.11-.04.16-.1.54-.61 1.31.87 1.77 1.05.88-.14 1.65.12 2.3.76.26.37.5.76.72 1.15.24.34.48.65.76.96.09.1.19.2.28.3-.46.6-1.37.1-1.98.42-.43.23-.54.59-1.07.78-.23.09-.45.02-.67.14-.67.36-.26.96-.68 1.43-.35.4-.95.26-1.26.81-.14.25.02.52.24.6.06.61-.5.56-.77.94-.25.34-.19.81-.17 1.19.02.41.06.82.12 1.23-.14-.33-.47-.85-.64-.83.4-.05.41-.67 0-.64-.08.01-.15.03-.22.05-.33-1.35-2-2.97-3.36-3.08-1.22-.1-1.89.98-2.16 2.03-.67 2.59 0 6.66 2.32 8.31 1.24.89 3.59.79 4.49-.6.11-.18.04-.36-.09-.48.11-.12.14-.3-.02-.44-.73-.66-.28-1.09-.16-1.84.06-.37-.01-.41-.1-.77-.12-.5.01-.89.02-1.33.11.51.27 1.01.53 1.47.17.31.65.16.67-.14.33.08.51.24.64.55.06.16.06.29.17.43.21.3.99.56.55 1.01-.2.21-.12.6.18.66.53.12.91.37 1.25.79.14.17.31.16.45.06.04.04.09.07.14.09.58.22.26.97.7 1.32.15.12.31.15.49.19.12.03 1.27.18 1.06.36-.2.17-.12.49.08.62.37.25.51.15.63.65.13.56-.19.58-.54.92-.23.22 0 .66.32.55.03-.01.06-.03.09-.04.02.02.02.05.04.07.62.46.13 1.25-.19 1.73-.14.21.05.46.27.47.72.35.85.72.39 1.11-.19.18-.05.58.23.55.33-.04.68.1.89.36.07.09.16.12.25.1.04.15.17.27.34.2.32-.12.61-.24.95-.24.26 0 .47.07.7.15-.08.07-.16.14-.25.2-.3.17-.64.21-.96.1-.15-.12-.37-.1-.49.03-.15.12-.19.34-.07.5-.04.88-2.39.32-2.89.45-.82.21-1.11.52-2.02.43-.1-.01-.39-.03-.61-.05-.02-.1-.07-.18-.17-.24-1.09-.57-3.01-.21-3.76-1.31-.22-.33-.69-.26-.82.11-.07.2-.85-.29-1.48-.68-.03-.21-.26-.35-.47-.32-.02-.1-.07-.2-.16-.3-.08-.09-.25-.12-.32-.21-.12-.15-.06-.22-.14-.4-.11-.26-.22-.44-.47-.6-.15-.09-.33-.14-.49-.18-.09-.01-.18-.03-.26-.04-.26.01-.46-.11-.59-.37.25-.07.35-.4.15-.58-.62-.59-1.4-1.01-2.26-1.02-.12-.72.38-1.24-.15-1.97-.2-.27-.47-.47-.75-.65-.15-.09-.62-.23-.67-.31-.1-.13.01-.06.06-.31.22-1.27-.58-2.46-2-2.01-.01 0-.01.01-.02.01-.44-.18-.9-.24-1.38-.29-.32-.03-.65.01-.94-.15-.3-.17-.29-.31-.51-.57-.48-.57-1.25-.69-1.96-.75 0-.07-.01-.14-.04-.22.16-.56.31-1.12.47-1.68.36-.22.27-.74-.11-.86-2.24-.74.8-2.02 1.14-2.75z" fill="#4f3420"/><path d="m69.48 56.29c.18.44-.1.88-.06 1.31.02.27.17.41.24.65.13.45-.12.7-.19 1.12-.11.65.14 1.25.61 1.69-1.08.36-1.88 1.18-3.1.46-.98-.58-1.52-1.78-1.84-2.82-.37-1.2-.53-2.5-.4-3.75.07-.66.25-1.91 1.04-2.11 1.27-.33 2.34 1.69 3.32 2.34-.07.11-.12.23-.11.39.04.35.38.45.49.72z" fill="#c96"/><path d="m40.51 165.6c-4.77 2.5-9.5 5.09-14.16 7.78-3.05 1.76-7.29 3.43-9.49 6.32-2.05 2.68-1.91 6.84-2.71 9.98-.37 1.46-.91 2.78-.61 4.28.19.93.73 1.69 1.23 2.47-.22-.02-.44.21-.32.48.19.42.37.84.54 1.26-.28-.35-.56-.7-.87-1.02-.39-.42-1.16.14-.81.63.41.58.87 1.11 1.32 1.65.19.23.52.49.63.76.32.78-.33.97-.96 1.01-.79.04-1.61-.09-2.06-.81-.39-.63-.6-1.43-.84-2.12-.05-.14-.14-.23-.24-.27-.02-.18-.12-.36-.33-.44-3.88-1.5-1.73-5.87-2.02-8.6-.34-3.21-2.72-5.56-2.37-9.05.48-4.73 5.17-4.81 8.24-7.49 2.74-2.39 4.72-5.54 7.12-8.25 3.87-4.38 8.46-6.99 13.53-9.68.28.01.58-.16.54-.48-.65-5.54-1.63-11.2-3.21-16.59.68 1.19 1.36 2.38 1.99 3.6 2.59 5.02 3.27 10.19 4.85 15.53.99 3.35 1.26 6.18 1.09 9.03-.03 0-.05 0-.08.02z" fill="#c96"/><path d="m63.46 204.08c-.07-.35-.28-.7-.56-.93-.08-.06-.16-.11-.24-.16.38.01.76.13.93.5.1.21.07.46-.13.59z" fill="#c96"/><path d="m56.32 153.43c.12 3.41 1.79 6.02-.06 9.6-4.82 9.33-7.27 20.06-8.41 30.55-.01.1.02.18.08.24 0 .12.04.24.14.35 1.04 1.14 2.63 1.7 3.84 2.65 1.19.94 2.15 2.08 3.22 3.13-.07.29.11.66.46.64 1.07-.07 2.16-.23 3.22-.02.91.19 1.47.83 2.29 1.09.94.3 1.72-.13 2.7.5.77.5.91.48.48.97-.45-.9-1.58-1-2.44-.64-.13.06-.15.17-.13.28-.48 0-.97.13-1.39.29-.46.17-.29.86.21.75.49-.11 1.13-.34 1.63-.11.4.18.48.54.34.91-4.13 1.37-6.53-.43-10.45-1.14-2.71-.49-5.68-.32-8.44-.3-.07-.04-.15-.07-.25-.07-6.6.32-3.21-7.46-2.57-9.98.36-1.41.65-2.76.66-4.21.04-4.83-2.25-9.11-1.3-14.06.65-3.41 2.1-6.58 2.11-10.11.01-3.2-.97-6.22-1.84-9.26-1.01-3.5-1.41-7.2-2.67-10.61-1.13-3.06-2.83-5.88-4.43-8.7-2.21-3.89-4.79-8.02-5.15-12.59-.43-5.46 2.25-10.4 5.59-14.49.04.06.08.12.13.19 2.69 3.85 6.57 7.58 7.73 12.18 1.53 6.11 4.55 8.73 10.9 9.57.95.54 2.22.78 3.1.08.02 0 .05.01.07.01-.36 4.85.81 9.87 1.03 14.74.11 2.57-.49 5.03-.4 7.57z" fill="#c96"/><path d="m55.08 123.59c.01.05.01.1.02.15-.09-.12-.19-.23-.27-.36-.12-.18-.23-.36-.35-.53.18.07.37.13.56.19 0 .17.02.36.04.55z" fill="#c96"/><path d="m53.08 117.8c-.92-.65-2.31-1.15-3.49-1.11-.01-.03-.01-.06-.02-.08-2.7-5.26-5.46-10.51-7.38-16.12-.84-2.45-1.4-4.85-2.73-6.89l.02-.26c.14.02.28-.01.35-.17.25-.56.33-1.2.55-1.78.1-.26.48-.76.37-1.09 1.21-.75 2.41-1.7 3.73-2.78 4.03-3.3 8.37-6.06 9.76-11.32.09-.33-.39-.45-.51-.14-1.71 4.36-4.71 6.46-8.23 9.31-1.79 1.44-3.55 3.17-5.5 4.38-2.36 1.46-4.54 1.42-7.18 1.39-.48 0-.62.8-.12.86 1.66.23 3.08.16 4.37-.13.01.01.01.02.02.03 3.55 3.36 4.25 9.44 6.11 13.83 1.65 3.88 3.59 7.63 5.55 11.35.04.08.1.14.17.17.02.05.04.1.08.14.04.03.06.06.11.08.58.23 1.3.16 1.92.35 1.13.36 1.72 1.03 2.61 1.72 1.41 1.1 3.31 1.54 5.02 2.06-1.14 1.44-3.61.35-4.95-.26-.31-.14-.59.02-.71.25-.38-.05-.66.47-.26.69 1.21.66 1.67 2.4 2.72 3.32.44.39.93.72 1.43 1.02.36.22 2.55 1.14 2.25 1.76-1.03 1.12-3.59-.38-4.59-1.08-.95-.67-1.52-1.74-2.6-2.19-.56-.23-.79.6-.38.9.7.52 1.18 1.26 1.86 1.81.72.57 1.55.98 2.39 1.33.65.27 1.28.55 1.89.66-1.23.55-2.44.43-3.81-.46-1.24-.8-2.3-1.81-3.33-2.85-.26-.27-.77.09-.54.41 1.07 1.44 2.52 2.87 4.16 3.7-.42.02-.81-.08-1.2-.28-.05-.12-.14-.21-.29-.23-.05-.01-.1-.02-.15-.03-.29-.19-.57-.41-.85-.66-.83-.71-2.25-1.59-2.79-2.54-.16-.28-.53-.08-.49.2.13.75.89 1.22 1.43 1.72.32.3.65.61.98.92-3.8-.95-6.86-2.91-7.95-7.22-.71-2.81-1.09-4.3-2.84-6.66-4.32-5.84-8.26-11.83-12.29-17.86.12-.17.13-.43-.1-.59-.22-.15-.41-.3-.6-.45-.02-.03-.04-.06-.06-.09-.06-.09-.15-.13-.23-.14-3.75-3.22-2.45-7.6.71-10.93.8-.84 1.63-1.58 2.32-2.52 2.75-3.74 3.3-8.44 8.04-10.52.01-.01.02-.01.03-.02.13-.02.25-.1.33-.26 1.3-2.74 3.27-4.83 5.85-6.42 3.31-2.02 9.9-3.36 10.49 2.35.03.32.57.47.63.08.43-2.95-2.69-5.36-5.59-5.58.66-.54 1.29-1.1 2.04-1.54.54-.31 1.1-.58 1.68-.8.16-.06 1.6-.59 1.64-.55.07.07.19.08.27.04.37.08.71.22.97.54.22.29.25.54.59.7.26.12.57.11.84.13.63.04 1.26.2 1.89.19.06.03.14.04.23.02.57-.17.96.07 1.15.73-.05.17-.11.35-.16.52-.03.11-.14.23-.13.36.02.24.16.36.33.51.76.67 1.53.52 1.42 1.83-.04.42-.13.61.06 1.02.1.23.36.23.53.11.6.15 1.14.35 1.62.74-.2.33-.13.82.22 1.11.24.2.53.22.82.29.41.1.51.06.73.48.07.13.03.27.12.41.01.02.45.48.49.29-.04.2.08.35.23.41-1.2 2.14-.57 4.56-.32 6.96.2 1.87.64 3.91.49 5.8-.27 3.34-2.2 5.32-4.23 7.66-.25.29.01.67.31.65-.05 5.39-.89 10.64-2.9 15.65-1.64 4.1-4.59 7.55-6.03 11.69-.44-.29-.87-.66-1.39-1.03z" fill="#c96"/><path d="m83.66 120.22c-1.58.73-2.71-1.32-4.14-1.88-2.19-.85-6.82.47-6-3.28.09-.43-.55-.61-.66-.18-.01.04-.01.08-.02.12-.19-.04-.39.01-.49.22-.68 1.52-5.77 1.13-7.3 1.11-2.61-.02-5.2-.35-7.75-.88 1.67-2.97 3.43-5.88 4.62-9.13 3.72 1.65 7.6 3.29 11.52 4.45.02.24.36.44.62.24 2.47-1.91 4.92-1.13 7.73-.8.79.09 1.57.15 2.36.06.6-.07 1.24-.46 1.8-.48 2.62-.09-1.18 1.9-1.95 2.15-1.3.43-2.72.79-4.08.52-.12-.02-.23 0-.33.06-.38.1-.6.5-.87.77-.45.44-.99.56-1.56.77-.46.17-.37.78.11.83.56.06 1.13-.19 1.59-.5.21-.14.41-.31.58-.49.14-.15.26-.38.43-.53.53.15 1.35.15 2.28.02.09.13.26.22.47.17-.13 0-.13.02-.01.08l.18.12c.09.06.18.12.27.19.16.11.31.24.47.35-.11.22-.19.48-.24.77-1.82-.15-1.61 2.96-.94 4.04.28.45 1 .04.72-.42-.19-.31-.37-.65-.44-1.02-.12-.59.15-1.7 1.04-1.44.53.16.8 1.76.83 2.22.05 1 .1 1.34-.84 1.77z" fill="#c96"/><path d="m85.35 119.64c.36-1.55-.11-3.63-1.24-4.31.18-.78.85-1.44 1.37-.55.28.48.47 1 .59 1.54.22 1.06.19 2.55-.72 3.32z" fill="#c96"/><path d="m86.34 114.5c-.18-.33-.38-.58-.58-.76.04-.31.35-.4.97-.25.12.17.23.35.35.52.31.59.41 1.28.43 1.93.03.74-.06 1.49-.47 2.07.12-1.21-.18-2.52-.7-3.51z" fill="#c96"/><path d="m88.37 116.72c.13-1.23-.17-2.55-.78-3.41.75-.35 1.12 1.36 1.17 1.85.04.59-.03 1.17-.39 1.56z" fill="#c96"/><path d="m39.49 156.54c-1.57-5.34-2.26-10.51-4.85-15.53-.63-1.22-1.31-2.41-1.99-3.6 1.58 5.39 2.56 11.05 3.21 16.59.04.32-.27.49-.54.48-5.07 2.68-9.65 5.3-13.53 9.68-.68.77-1.33 1.58-1.98 2.4 1.5-.96 3.03-1.89 4.64-2.64 1.75-.82 3.62-1.46 5.56-1.54 1.34-.05 2.64.29 3.86.84 1.23.56 2.42 1.36 3.24 2.45.31.41.55.87.71 1.35.89-.48 1.78-.96 2.67-1.43.02-.01.05-.01.07-.02.19-2.85-.08-5.68-1.07-9.03z" fill="#4f3420" fill-opacity=".5"/><path d="m42 197.82c-.04-1.94.5-3.92.87-5.82.16-.82.25-1.63.36-2.45.25-1.86.57-3.7.93-5.54.72-3.75 1.57-7.47 2.21-11.24 1.24-7.27 1.26-14.74 1.02-22.1-.24-7.27-.83-14.53-1.28-21.79-2.24-1.53-3.63-3.89-4.51-7.43-.44-1.76-1.28-3.38-2.29-4.94-.02-.01-.04-.03-.05-.06v-.02c-1.64-2.49-3.73-4.81-5.38-7.17-.04-.06-.08-.12-.13-.19-3.34 4.09-6.02 9.03-5.59 14.49.36 4.57 2.94 8.7 5.15 12.59 1.6 2.83 3.3 5.65 4.43 8.7 1.26 3.41 1.66 7.11 2.67 10.61.87 3.04 1.85 6.06 1.84 9.26-.01 3.53-1.46 6.7-2.11 10.11-.95 4.94 1.34 9.22 1.3 14.06-.01 1.45-.3 2.8-.66 4.21-.64 2.52-4.03 10.3 2.57 9.98.11-.01.19.03.25.07 1.05-.01 2.13-.04 3.21-.04-.83-.5-1.63-1.03-2.39-1.64-1.09-.87-2.39-2.15-2.42-3.65z" fill="#4f3420" fill-opacity=".5"/><path d="m38.77 114.04c-.16-.69-.33-1.37-.53-2.05-.19-.63-.41-1.24-.62-1.86-.2-.59-.42-1.18-.66-1.76-.49-1.21-1.05-2.39-1.67-3.54-.3-.56-.62-1.12-.95-1.67-.31-.51-.62-1.05-1-1.51-.69-.85-1.72-1.41-2.31-2.35-.04-.06 0-.12.06-.15.47-.19 1-.23 1.5-.26.43-.03.91-.01 1.32-.19.35-.15.47-.46.44-.83-.02-.24-.15-.46-.28-.66-.16-.24-.36-.46-.57-.66-.38-.38-.81-.71-1.25-1.02-.37-.26-.77-.46-1.17-.67-.41-.22-.84-.45-1.14-.81-.28-.34-.36-.78-.25-1.21.19-.79 1.04-.96 1.78-.94-.15-.22-.29-.46-.39-.71-.21-.52-.25-1.09-.1-1.64.14-.53.42-1.02.74-1.47.67-.96 1.49-1.8 1.95-2.89.26-.61.54-1.21.84-1.79.23-.44.48-.86.77-1.25.66-.87 1.51-1.57 2.35-2.26.28-.23.57-.47.87-.67.28-.19.56-.37.84-.56.6-.41 1.19-.83 1.75-1.28 1.1-.89 2.14-1.96 2.69-3.28.44-1.05.54-2.19.87-3.27.14-.46.32-.9.58-1.29.31-.46.7-.84 1.14-1.18.6-.45 1.28-.83 1.97-1.13.71-.31 1.45-.53 2.22-.64 1.31-.18 2.65.01 3.79.66-1.34-4.33-7.19-3.06-10.25-1.19-2.59 1.58-4.55 3.67-5.85 6.42-.08.16-.2.24-.33.26-.01.01-.02.02-.03.02-4.74 2.08-5.29 6.78-8.04 10.52-.69.94-1.52 1.68-2.32 2.52-3.17 3.33-4.46 7.71-.71 10.93.08.01.17.05.23.14l.06.09c.19.15.38.3.6.45.23.15.22.42.1.59 3.59 5.4 7.15 10.77 10.96 16.04z" fill="#4f3420" fill-opacity=".5"/><path d="m59.99 107.86c-.88 1.12-1.85 2.18-2.93 3.12-.56.49-1.16.92-1.71 1.43-.56.51-1.09 1.06-1.59 1.62-.85.95-1.66 1.95-2.49 2.91.67.2 1.31.5 1.81.85.52.37.95.74 1.42 1.08 1.44-4.14 4.38-7.59 6.03-11.69.02-.04.03-.08.04-.11-.2.27-.38.54-.58.79z" fill="#4f3420" fill-opacity=".5"/><path d="m54.8 66.17c1.21-.22 2.4-.57 3.54-1.03.04-.02.09.01.11.05.55.91.27 1.95.25 2.95.98.2 1.95.47 2.88.86.85.36 1.66.8 2.47 1.25.87.48 1.79.86 2.72 1.2.11-.33.23-.67.42-.99-.15-.06-.28-.21-.23-.41-.04.19-.48-.28-.49-.29-.09-.14-.05-.27-.12-.41-.22-.41-.32-.38-.73-.48-.29-.07-.58-.09-.82-.29-.34-.29-.42-.77-.22-1.11-.48-.38-1.01-.59-1.62-.74-.17.12-.42.12-.53-.11-.19-.41-.1-.6-.06-1.02.11-1.32-.66-1.16-1.42-1.83-.17-.15-.31-.27-.33-.51-.01-.13.1-.25.13-.36.05-.17.11-.35.16-.52-.19-.66-.58-.9-1.15-.73-.09.02-.16.01-.23-.02-.63.01-1.26-.15-1.89-.19-.28-.02-.59-.01-.84-.13-.34-.17-.37-.42-.59-.7-.25-.33-.6-.47-.97-.54-.08.05-.21.03-.27-.04-.04-.05-1.49.49-1.64.55-.58.22-1.15.48-1.68.8-.76.44-1.38 1-2.04 1.54 2.09.15 4.28 1.44 5.19 3.25z" fill="#4f3420" fill-opacity=".5"/><path d="m53.36 72.13c-.1-.2-.21-.42-.37-.58-.07-.07-.17-.14-.28-.12-.11.03-.19.13-.26.21-.22.31-.34.69-.45 1.05-.14.48-.25.96-.42 1.43-.33.94-.79 1.84-1.32 2.69-1.1 1.75-2.5 3.3-3.91 4.81-.71.77-1.44 1.52-2.14 2.3-.69.76-1.33 1.56-1.96 2.37-.65.84-1.2 1.75-1.83 2.6-.29.39-.59.77-.93 1.11.16-.09.32-.16.49-.27 1.95-1.21 3.71-2.93 5.5-4.38 3.42-2.76 6.35-4.84 8.08-8.97 0-.17.01-.34.02-.51.03-.52.08-1.05.09-1.57.02-.5.02-1.01-.09-1.5-.03-.22-.12-.44-.22-.67z" fill="#4f3420" fill-opacity=".5"/><path d="m44.62 106.53c0-.03.01-.05.03-.07.02-.29.05-.57.09-.85.21-1.33.69-2.6 1.26-3.82.24-.51.46-1.02.78-1.48.3-.43.64-.83.98-1.22.36-.41.73-.81 1.07-1.24.3-.37.6-.76.79-1.19.39-.84.17-1.86-.1-2.7-.29-.9-.72-1.75-.96-2.67-.22-.82-.21-1.69.3-2.41.27-.38.64-.73 1.06-.94.39-.2.82-.33 1.23-.48.42-.15.85-.3 1.22-.56.33-.23.51-.67.32-1.05-.21-.42-.63-.72-.89-1.12-.31-.49-.54-1.09-.57-1.67-.06-1.17.7-2.19 1.32-3.11.01-.01.02-.01.03-.02.01-.03.01-.06.02-.09-2 3.07-5.14 5.22-8.13 7.66-1.32 1.08-2.52 2.02-3.73 2.78.11.33-.28.83-.37 1.09-.22.58-.3 1.22-.55 1.78-.07.16-.21.2-.35.17l-.02.26c1.33 2.04 1.89 4.44 2.73 6.89.71 2.08 1.54 4.11 2.44 6.11z" fill="#4f3420" fill-opacity=".5"/><g fill="#222221"><path d="m69.53 55.18c-.15-1.4-1.98-3.23-3.43-3.34-1.22-.1-1.89.98-2.16 2.03-.67 2.59 0 6.66 2.32 8.31 1.24.89 3.59.79 4.49-.6.19-.3-.12-.67-.45-.58-1.2.31-2.01 1.3-3.31.53-.98-.58-1.52-1.78-1.84-2.82-.37-1.2-.53-2.5-.4-3.75.07-.66.25-1.91 1.04-2.11 1.37-.35 2.49 1.99 3.53 2.46.09.02.22-.02.21-.13z"/><path d="m66.41 55.68c-.02.68.46 1.34.74 1.94.3.64.54 1.55 1.11 1.99.2.15.5.07.5-.21.02-.72-.51-1.44-.82-2.08s-.54-1.45-1.11-1.89c-.18-.13-.42.06-.42.25z"/><path d="m72.06 56.06c.47-.57.63-1.27 1.14-1.82s1.17-.88 1.88-1.1c1.3-.4 2.65-.3 3.98-.5.42-.06.29-.68-.1-.71-1.53-.1-3.39.06-4.8.7-1.21.54-2.62 1.83-2.5 3.27.02.18.26.33.4.16z"/><path d="m54.73 59c.16-.56.31-1.12.47-1.68.36-.22.27-.74-.11-.86-2.21-.74.84-2.02 1.18-2.75.32-.67-.03-1.5.45-2.27.51-.81 1.31-1.3 2.14-1.73.53-.27.06-1.06-.47-.8-1.05.52-2.02 1.21-2.61 2.26-.23.42-.32.85-.46 1.31-.29 1.01-.62 1.02-1.34 1.68-1.16 1.06-.52 2.76.85 3.2-.04-.29-.08-.58-.11-.86-1.07.66-1.44 1.83-.74 2.93.31.48.99.07.75-.43z"/><path d="m59.22 49.2c-.71-.32-.22-.95.26-1.12.24-.08.52-.05.76-.13.38-.12.64-.31.85-.65.22-.35.2-.7.54-1.01.26-.24.61-.37.94-.45.62-.16 1.24-.05 1.86-.17.29-.06.37-.54.09-.67-.81-.35-1.89-.22-2.69.11-.39.16-.75.39-1.03.7-.3.34-.42 1.02-.81 1.25-.72.42-1.74.03-2.01 1.12-.2.82.34 1.31 1.06 1.43.23.04.43-.3.18-.41z"/><path d="m64.77 44.79c-.28-.12.67-.41.79-.41.33.01.65.09.97.18.44.12.87.27 1.3.44.27.1.5-.2.44-.44-.14-.55-.42-1.66.49-1.16.49.27.89.77 1.19 1.24.26.4.89.03.63-.37-.47-.73-1.38-1.89-2.38-1.81-1.16.09-.83 1.56-.62 2.29.15-.15.29-.29.44-.44-1.18-.42-3.86-1.41-4 .66-.01.21.22.38.42.32.09-.03.19-.06.28-.09.16-.06.23-.33.05-.41z"/><path d="m70.72 44.56c.54-.61 1.31.87 1.77 1.05.88-.14 1.65.12 2.3.76.26.37.5.76.72 1.15.24.34.48.65.76.96 1.91 2.13 5.48 3.8 2.47 6.77-.39.39.21.99.6.6 3.37-3.38 0-5.2-2.37-7.76-.71-.77-1.06-1.79-1.85-2.47-.67-.57-1.33-.52-2.07-.84-1.12-.48-1.68-2.2-2.84-.72-.24.35.21.84.51.5z"/><path d="m80.59 62.13c.97-.01 2.15.4 3-.29.5-.4.56-.96.32-1.53-.25-.61-.48-.81-.54-1.5-.05-.49-.07-.64-.45-.97-1.02-.9-2.3-1.75-3.47-2.45-.42-.25-.94.37-.54.7.62.51 1.29.96 1.95 1.42.79.55 1.23.88 1.54 1.82.08.24.08.41.2.65.1.2.51.53.49.74-.26.3-.51.6-.77.89-.22 0-.44 0-.66-.02-.43-.01-.72 0-1.14.11-.23.06-.18.43.07.43z"/><path d="m81.69 66.77c.61-.14 1.18-.34 1.8-.39.4-.03.83.01 1.22-.11.74-.23.98-.78.89-1.53-.14-1.27-.6-3.56-2.26-3.66-.21-.01-.37.18-.38.38-.02.39.25.51.55.68.71.4.89 1.33 1.1 2.09.1.36.32 1.04-.11 1.31-.23.15-.84.08-1.12.12-.67.08-1.35.24-1.92.6-.27.16-.09.58.23.51z"/><path d="m67.15 70.1c.23 1.21 2.68 2.71 3.3 1.06-.27.04-.55.07-.82.11 1 1.51 2.76.98 4.25 1.55.4.15.67-.49.29-.69-1.09-.57-3.01-.21-3.76-1.31-.22-.33-.69-.26-.82.11-.11.31-1.84-.99-2.19-1.07-.16-.04-.28.09-.25.24z"/><path d="m74.32 72.13c-.33 1.48 2.69.62 3.25.64 1.16.04 3.63.16 2.77-1.79-.14.19-.29.37-.43.56 1.03.32 2.24.06 2.77-.95.18-.34-.25-.68-.53-.41-.56.54-1.27.88-2.03.62-.26-.09-.57.2-.47.47-.26.27-.51.53-.77.8-.27-.03-.54-.06-.82-.1-.2-.01-.4-.07-.6-.04-.37.05-2.73 1.05-2.72.24-.01-.22-.37-.28-.42-.04z"/><path d="m82.56 70.75c1.22-.25 2.17-1.43 2.27-2.66.04-.49-.02-.99-.49-1.23-.65-.33-1.7-.59-2.43-.58-.28 0-.35.36-.14.5.38.25.8.37 1.23.5.58.18 1.11.18.99.91-.15.97-.81 1.62-1.66 2.03-.29.16-.07.59.23.53z"/><path d="m69.68 54.86c-.39.04-.7.26-.67.7.02.35.36.45.47.72.18.44-.1.88-.06 1.31.02.27.17.41.24.65.13.45-.12.7-.19 1.12-.12.69.16 1.32.67 1.76.33.28.81-.19.48-.48-.73-.66-.28-1.09-.16-1.84.06-.37-.01-.41-.1-.77-.14-.57.06-1 .02-1.51-.02-.24-.5-1.05-.7-1.03.4-.04.42-.67 0-.63z"/><path d="m76.58 48.77c-.46.63-1.38.11-1.99.44-.43.23-.54.59-1.07.78-.23.09-.45.02-.67.14-.67.36-.26.96-.68 1.43-.35.4-.95.26-1.26.81-.22.4.32.84.64.5.38-.4 1.03-.38 1.37-.83.18-.24.13-.45.24-.71.26-.64.53-.39.99-.6.26-.12.36-.31.58-.47.46-.35.69-.29 1.23-.36.46-.06.81-.25 1.04-.66.05-.09.06-.22 0-.31-.03-.05-.07-.1-.1-.15-.08-.13-.24-.12-.32-.01z"/><path d="m71.1 52.72c.25.89-.42.77-.73 1.19-.25.34-.19.81-.17 1.19.04 1.06.18 2.14.71 3.08.2.35.78.12.65-.28-.34-1.02-1.06-2.87-.27-3.7.49-.52.77-.94.55-1.68-.13-.47-.87-.27-.74.2z"/><path d="m71.53 58.02c.36.08.55.24.68.57.06.16.06.29.17.43.21.3.99.56.55 1.01-.2.21-.12.6.18.66.53.12.91.37 1.25.79.31.39.85-.16.55-.55-.41-.52-.94-.85-1.58-1.01.06.22.12.44.18.66.51-.51.47-1.22-.03-1.72-.23-.22-.4-.37-.54-.67-.07-.15-.13-.29-.25-.43-.27-.32-.63-.48-1.04-.45-.4.04-.53.63-.12.71z"/><path d="m74.95 61.64c.58.22.26.97.7 1.32.15.12.31.15.49.19.12.03 1.27.18 1.06.36-.2.17-.12.49.08.62.37.25.51.15.63.65.13.56-.19.58-.54.92-.23.22 0 .66.32.55.63-.21 1.26-.73 1.3-1.45.05-.92-.7-.96-1.3-1.36.03.21.05.41.08.62.55-.48.23-1.31-.4-1.55-.24-.09-.45-.05-.68-.1-.74-.17-.45-.34-.68-.82-.18-.37-.48-.56-.85-.69-.47-.16-.67.57-.21.74z"/><path d="m77.82 66.28c.62.46.13 1.25-.19 1.73-.14.21.05.46.27.47.72.35.85.72.39 1.11-.19.18-.05.58.23.55.33-.04.68.1.89.36.27.33.73-.14.46-.46-.35-.42-.81-.61-1.36-.54.08.18.15.37.23.55.89-.84.34-2.14-.85-2.19.09.16.18.31.27.47.49-.75.94-1.93-.12-2.43-.26-.14-.45.21-.22.38z"/><path d="m80 70.8c.32-.12.61-.24.95-.24.35 0 .63.12.95.25.43.18.61-.46.29-.7-.69-.51-1.9-.43-2.49.19-.19.2 0 .61.3.5z"/><path d="m54.6 59.98c.6.05 1.21.12 1.61.63.22.29.25.54.59.7.26.12.57.11.84.13.64.04 1.28.21 1.92.19.29-.01.44-.44.16-.57-.49-.24-1.01-.31-1.55-.36-.32-.03-.65.01-.94-.15-.3-.17-.29-.31-.51-.57-.52-.62-1.38-.71-2.13-.76-.48-.04-.48.72.01.76z"/><path d="m59.77 61.66c.57-.17.96.07 1.15.73-.05.17-.11.35-.16.52-.03.11-.14.23-.13.36.02.24.16.36.33.51.76.67 1.53.52 1.42 1.83-.04.42-.13.61.06 1.02.18.4.8.11.69-.29-.21-.79.39-1.33-.17-2.1-.2-.27-.47-.47-.75-.65-.15-.09-.62-.23-.67-.31-.1-.13.01-.06.06-.31.22-1.27-.58-2.46-2-2.01-.45.16-.27.81.17.7z"/><path d="m62.71 66.69c.84.19 1.54.42 2.15 1.05.05-.19.1-.39.15-.58-.68.18-.73 1.02-.23 1.44.24.2.53.22.82.29.41.1.51.06.73.48.07.13.03.27.12.41.01.02.45.48.49.29-.09.45.6.64.69.19.05-.25.03-.43-.15-.62-.08-.09-.25-.12-.32-.21-.12-.15-.06-.22-.14-.4-.11-.26-.22-.44-.47-.6-.15-.09-.33-.14-.49-.18-.09-.01-.18-.03-.26-.04-.26.01-.46-.11-.59-.37.25-.07.35-.4.15-.58-.69-.67-1.6-1.14-2.58-1.03-.25.01-.35.39-.07.46z"/><path d="m67.38 70.1c-1.5 2.22-.79 4.8-.52 7.33.2 1.87.64 3.91.49 5.8-.27 3.34-2.2 5.32-4.23 7.66-.32.37.19.89.54.54 1.95-1.9 3.9-4.12 4.41-6.88.79-4.27-2.49-10.24 0-14.05.27-.43-.41-.82-.69-.4z"/><path d="m63.43 91.2c-.02 5.5-.85 10.87-2.91 15.99-1.7 4.23-4.8 7.76-6.18 12.09-.15.46.59.79.79.33 2.13-4.66 5.21-8.75 6.92-13.64 1.68-4.79 2.33-9.71 2.12-14.77-.01-.48-.74-.48-.74 0z"/><path d="m55.26 60.07c.03-.02.06-.04.1-.06.28-.17.22-.59-.09-.69-1.07-.33-2.61.49-3.56.97-1.19.59-2.52 1.45-3.27 2.57-.22.32.22.78.55.55.91-.66 1.68-1.45 2.67-2.03.54-.31 1.1-.58 1.68-.8.16-.06 1.6-.59 1.64-.55.07.07.2.09.28.04z"/><path d="m55.2 68.49c.51-3.44-3.8-6.15-6.98-5.51-4.58.91-8.96 4.86-10.9 8.96-.29.61.62 1.15.91.53 1.3-2.74 3.27-4.83 5.85-6.42 3.31-2.02 9.9-3.36 10.49 2.35.04.33.57.48.63.09z"/><path d="m37.57 72.03c-2.58 1.03-4.01 2.65-5.39 5.05-.96 1.68-1.58 3.56-2.68 5.17-1.26 1.86-3.09 3.02-4.43 4.77-2.95 3.84-1.97 8.67 2.21 11.08.45.26.83-.4.4-.69-4.82-3.26-3.57-8.03-.17-11.61.8-.84 1.63-1.58 2.32-2.52 2.75-3.74 3.3-8.44 8.04-10.52.41-.18.12-.89-.3-.73z"/><path d="m26.49 97.19c2.08 4.23 4.69 8.22 7.39 12.09 2.69 3.85 6.57 7.58 7.73 12.18 1.54 6.14 4.58 8.76 11 9.59.52.07.65-.84.13-.93-4.65-.76-8.56-2.61-9.82-7.61-.71-2.81-1.09-4.3-2.84-6.66-4.59-6.21-8.74-12.58-13.05-18.98-.23-.33-.72-.04-.54.32z"/><path d="m53.73 76.06c-1.71 4.36-4.71 6.46-8.23 9.31-1.79 1.44-3.55 3.17-5.5 4.38-2.36 1.46-4.54 1.42-7.18 1.39-.48 0-.62.8-.12.86 5.12.7 7.94-1.34 11.77-4.48 4.03-3.3 8.37-6.06 9.76-11.32.1-.33-.38-.45-.5-.14z"/><path d="m39.87 76.32c-.2.9-.36 2.29.12 3.14.2.36.55.42.93.5.64.13 1.3.22 1.95.23.4 0 .38-.57 0-.61-.83-.1-2.16.08-2.48-.85-.24-.7-.16-1.63-.11-2.35.02-.24-.36-.29-.41-.06z"/><path d="m29.47 92.86c.05.89-.37 1.79-.12 2.67.23.78 1.05 1.1 1.39 1.81.16.35.73.1.62-.26-.22-.72-.93-.97-1.27-1.6-.42-.78-.18-1.8-.38-2.66-.03-.12-.25-.1-.24.04z"/><path d="m37.09 91.9c3.55 3.36 4.25 9.44 6.11 13.83 1.65 3.88 3.59 7.63 5.55 11.35.28.53 1.08.06.8-.47-2.7-5.26-5.46-10.51-7.38-16.12-1.16-3.38-1.76-6.69-4.64-9.05-.3-.26-.74.17-.44.46z"/><path d="m49.12 117.47c.58.23 1.3.16 1.92.35 1.13.36 1.72 1.03 2.61 1.72 1.51 1.17 3.58 1.6 5.37 2.17.56.18.79-.69.24-.88-1.06-.37-2.14-.68-3.18-1.07-1.27-.48-1.95-1.21-2.99-1.95-1.03-.73-2.64-1.27-3.9-1.07-.3.04-.38.48-.18.66.03.03.06.05.11.07z"/><path d="m59.26 121.31c-.05 0-.1-.01-.15-.01-.15-.01-.29.09-.37.21-1.1 1.6-3.65.46-5.03-.16-.59-.26-1.09.53-.52.88 1.8 1.1 4.96 1.82 6.28-.29.07-.12.08-.31 0-.43-.06-.09-.1-.19-.21-.2z"/><path d="m52.74 122.28c1.11.63 1.51 2.13 2.41 3.03.43.42.92.79 1.42 1.12.56.37 1.46.62 1.93 1.07.29.07.4.28.33.63.3.54.12.74-.53.59-.62.07-.78.03-1.31-.19-.77-.31-1.55-.63-2.25-1.09-1.04-.67-1.65-1.84-2.8-2.32-.56-.23-.79.6-.38.9.83.61 1.38 1.49 2.24 2.09.82.57 1.75.96 2.69 1.32 1.36.52 3.06.91 3.68-.88.54-1.54-1.76-2.14-2.71-2.7-1.2-.71-2.05-1.56-2.8-2.73-.43-.66-.82-1.17-1.55-1.51-.42-.19-.8.42-.37.67z"/><path d="m50.05 126.93c1.17 1.59 2.81 3.17 4.66 3.94 1.82.76 3.43 0 4.89-1.14.47-.37-.19-1.03-.66-.66-1.68 1.31-3.21 1.48-5.02.3-1.24-.8-2.3-1.81-3.33-2.85-.27-.27-.77.09-.54.41z"/><path d="m48.45 127.09c.13.75.89 1.22 1.43 1.72.75.7 1.48 1.46 2.33 2.04 1.07.73 2.76 1.13 3.7-.03.26-.31-.07-.86-.47-.6-1.43.91-2.57.2-3.72-.79-.83-.71-2.25-1.59-2.79-2.54-.15-.28-.53-.08-.48.2z"/><path d="m61.66 106.22c3.94 1.75 8.05 3.51 12.2 4.69.49.14.85-.64.36-.85-3.99-1.7-8.16-3.11-12.23-4.63-.45-.17-.78.59-.33.79z"/><path d="m57.01 116.33c3.59.84 7.21 1.22 10.89.97 1.65-.11 4.68.17 5.32-1.72.17-.5-.65-.86-.87-.37-.68 1.52-5.77 1.13-7.3 1.11-2.63-.02-5.23-.36-7.8-.89-.57-.1-.82.76-.24.9z"/><path d="m72.86 114.88c-.66 2.49.65 3.49 3.01 3.78 1.9.23 3.22.23 4.78 1.45.98.76 2.14 1.71 3.44 1.24 2.03-.74 1.72-5.42-.23-6.15-2.44-.91-2.26 2.73-1.52 3.91.28.45 1 .04.72-.42-.19-.31-.37-.65-.44-1.02-.12-.59.15-1.7 1.04-1.44.53.16.8 1.76.83 2.22.06.99.11 1.33-.83 1.76-1.58.73-2.71-1.32-4.14-1.88-2.19-.85-6.82.47-6-3.28.09-.42-.55-.6-.66-.17z"/><path d="m84.07 115.52c.1-.86.85-1.7 1.41-.75.28.48.47 1 .59 1.54.23 1.12.2 2.73-.86 3.45-.49.33-.02 1.12.46.79 1.9-1.3 1.63-4.24.67-6.05-1.11-2.08-3.08-1.11-3.1 1.02 0 .56.77.52.83 0z"/><path d="m85.75 113.95c-.09-.48.24-.64.98-.46.12.17.23.35.35.52.31.59.41 1.28.43 1.93.04.99-.13 2.02-1.02 2.61-.46.31-.05 1.03.44.75 1.93-1.08 1.81-4.5.6-6.08-.47-.61-1.38-1.2-2.13-.66-.57.41-.6 1.23-.01 1.59.15.09.36-.03.36-.2z"/><path d="m87.35 113.48c.92-.88 1.36 1.14 1.41 1.68.08.83-.1 1.67-1 1.94-.57.17-.32.96.24.87 1.76-.27 1.81-2.44 1.46-3.78-.28-1.09-1.62-2.5-2.67-1.27-.33.39.18.92.56.56z"/><path d="m74.05 111.02c2.47-1.91 4.92-1.13 7.73-.8.79.09 1.57.15 2.36.06.6-.07 1.24-.46 1.8-.48 2.62-.09-1.18 1.9-1.95 2.15-1.3.43-2.72.79-4.08.52-.46-.09-.81.57-.34.81 1.62.84 8.89-.82 8.37-3.4-.1-.5-.63-.9-1.08-1.06-.36-.13-.43-.15-.76-.12-.73.05-1.48.64-2.28.72-.42.04-.86.02-1.28-.01-3.32-.21-6.24-1.39-8.99 1.12-.35.3.15.76.5.49z"/><path d="m79.8 112.49c-.53-.04-.76.49-1.09.81-.45.44-.99.56-1.56.77-.46.17-.37.78.11.83.56.06 1.13-.19 1.59-.5.21-.14.41-.31.58-.49.18-.2.33-.52.58-.63.42-.19.15-.76-.21-.79z"/><path d="m82.61 113.57c-.13 0-.13.02-.01.08.06.04.12.08.18.12.09.06.18.12.27.19.2.15.39.32.61.45.45.26.91-.34.55-.72-.26-.27-.61-.48-.92-.68-.29-.19-.56-.41-.92-.3-.56.15-.33 1 .24.86z"/><path d="m80.1 116.9c.52.35 1.06.78 1.63 1.04.34.16.77-.28.43-.56-.52-.42-1.15-.73-1.73-1.06-.37-.22-.69.34-.33.58z"/><path d="m81.09 115.46c.32.15.53.35.76.61.26.28.76-.09.54-.41-.26-.36-.64-.61-1.05-.78-.33-.14-.57.43-.25.58z"/><path d="m82.03 115c.25.07.51.14.76.2.26.07.49.16.77.1.26-.05.37-.44.16-.61-.21-.18-.45-.21-.71-.28-.26-.06-.51-.12-.77-.18-.49-.11-.7.64-.21.77z"/><path d="m40.67 90.17c-.01-.01-.01-.01-.02-.02-.14-.14-.43-.17-.57 0-.29.35-.45.85-.6 1.27-.18.48-.39 1.03-.37 1.55.01.35.55.56.71.19.25-.56.33-1.2.55-1.78.11-.29.6-.91.3-1.21z"/><path d="m57.97 87.83c-1.69-2.51-6.24-3.09-6.39-6.57-.02-.34-.52-.54-.69-.19-.72 1.5.28 2.89 1.43 3.81 1.58 1.26 3.48 2.34 5.21 3.38.27.17.62-.16.44-.43z"/><path d="m51.64 89.75c-.61-.32-1.13-.72-1.6-1.22-.48-.51-.76-1.08-1.12-1.66-.26-.41-.95-.15-.8.34.46 1.47 1.9 2.58 3.27 3.13.34.14.57-.42.25-.59z"/><path d="m48.02 93.23c-.21-.25-.49-.41-.68-.69-.2-.28-.33-.61-.48-.92-.25-.53-.46-1.29-1.03-1.55-.25-.12-.51.07-.46.35.07.35.29.63.47.94.2.36.37.73.58 1.08.31.49.79 1.16 1.43 1.19.23.02.29-.25.17-.4z"/><path d="m45.82 96.77c-1.01-.99-1.5-2.2-1.75-3.58-.08-.44-.8-.34-.78.11.07 1.59.94 2.97 2.18 3.93.26.2.58-.24.35-.46z"/><path d="m43.35 203.1c-6.6.32-3.21-7.46-2.57-9.98.36-1.41.65-2.76.66-4.21.04-4.83-2.25-9.11-1.3-14.06.65-3.41 2.1-6.58 2.11-10.11.01-3.2-.97-6.22-1.84-9.26-1.01-3.5-1.41-7.2-2.67-10.61-1.13-3.06-2.83-5.88-4.43-8.7-2.21-3.89-4.79-8.02-5.15-12.59-.45-5.68 2.47-10.81 6-14.99.46-.55-.33-1.35-.79-.79-5.17 6.11-8.11 13.44-5.05 21.23 1.66 4.23 4.25 7.97 6.33 11.99 2.59 5.02 3.27 10.19 4.85 15.53 1.87 6.36 1.2 10.88-.27 17.17-1.22 5.21.92 9.19 1.14 14.35.17 3.77-5.77 16.75 2.99 15.96.58-.06.6-.96-.01-.93z"/><path d="m31.17 134.78c1.33 6.46 2.74 12.82 3.72 19.36.08.55 1.05.43.98-.13-.77-6.5-1.98-13.18-4.09-19.39-.13-.39-.69-.23-.61.16z"/><path d="m35.48 153.85c-6.04 1.71-11.07 5.68-15.09 10.4-3.76 4.42-6.24 7.67-11.56 10.16-5.08 2.37-3.27 7.56-1.88 12.17 1.22 4.03-1.25 10.06 3.61 11.94.6.23.86-.73.27-.96-3.88-1.5-1.73-5.87-2.02-8.6-.34-3.21-2.72-5.56-2.37-9.05.48-4.73 5.17-4.81 8.24-7.49 2.74-2.39 4.72-5.54 7.12-8.25 3.96-4.48 8.66-7.11 13.88-9.86.24-.14.07-.54-.2-.46z"/><path d="m10.53 198.5c.33 1.02.61 2.38 1.49 3.08.8.64 2.15.7 3.1.46.8-.2 1.6-.75 1.41-1.69-.1-.48-.49-.86-.78-1.22-.53-.67-1.05-1.37-1.63-1.99-.39-.42-1.16.14-.81.63.41.58.87 1.11 1.32 1.65.19.23.52.49.63.76.32.78-.33.97-.96 1.01-.79.04-1.61-.09-2.06-.81-.39-.63-.6-1.43-.84-2.12-.18-.54-1.04-.31-.87.24z"/><path d="m14.44 196.91c.28.62.56 1.24.79 1.88.2.54.32 1.13.57 1.64.17.34.74.18.72-.2-.07-1.24-.83-2.65-1.52-3.67-.23-.34-.73-.03-.56.35z"/><path d="m16.27 198.59c-.01-2.89-1.93-4.54-1.36-7.83.71-4.06 1.62-9.64 4.95-12.27 6.16-4.85 14.27-8.33 21.18-11.97.61-.32.07-1.24-.54-.92-4.77 2.5-9.5 5.09-14.16 7.78-3.05 1.76-7.29 3.43-9.49 6.32-2.05 2.68-1.91 6.84-2.71 9.98-.37 1.46-.91 2.78-.61 4.28.35 1.73 1.92 2.84 2.12 4.63.05.38.63.4.62 0z"/><path d="m43.31 203.96c4.04.22 7.88.12 11.73 1.5 2.76.99 5.21 1.05 7.96 0 .57-.22.33-1.13-.25-.92-4.29 1.53-6.7-.34-10.7-1.06-2.81-.51-5.9-.3-8.74-.29-.51-.02-.5.74 0 .77z"/><path d="m60.53 203.81c.49-.11 1.13-.34 1.63-.11.41.19.48.56.34.94-.15.4.43.71.71.41.52-.58.24-1.44-.31-1.9-.72-.6-1.77-.4-2.57-.09-.46.18-.29.86.2.75z"/><path d="m62.08 203.04c.52-.12 1.24-.12 1.5.45.1.22.07.46-.14.6s-.39.09-.54.34c-.06.1-.06.24 0 .35.29.49.88.22 1.19-.12.33-.37.46-.86.29-1.33-.37-1.09-1.61-1.23-2.54-.84-.31.14-.07.63.24.55z"/><path d="m64.28 204.28c.56-.47 1.63-.63 1.48-1.61-.13-.86-1.62-1.71-2.35-1.99-.67-.26-1.1-.09-1.75-.18-.6-.08-1.01-.47-1.57-.7-1.47-.6-3.1-.44-4.63-.19-.54.09-.42 1 .13.97 1.07-.07 2.16-.23 3.22-.02.91.19 1.47.83 2.3 1.09.94.3 1.72-.13 2.7.5.88.57.94.46.28 1.2-.14.16-.24.29-.38.48-.27.36.28.7.57.45z"/><path d="m55.89 199.92c-1.28-3.19-4.46-4.83-7.16-6.63-.54-.36-1.08.42-.67.87 1.04 1.14 2.63 1.7 3.84 2.65 1.29 1.02 2.3 2.28 3.49 3.4.21.19.62.01.5-.29z"/><path d="m48.54 193.67c1.25-6.23 2.6-12.43 4.15-18.6.85-3.36 1.64-6.71 3.36-9.74.93-1.65 2.3-3.04 2.55-4.99.22-1.7-.66-3.05-.89-4.67-.42-2.97.33-6.07.21-9.05-.21-5.24-1.16-10.48-1.3-15.7-.02-.61-.89-.6-.94 0-.41 4.91.8 10 1.02 14.95.11 2.56-.48 5.03-.39 7.56.12 3.41 1.79 6.02-.06 9.6-4.82 9.33-7.27 20.06-8.41 30.55-.04.39.62.48.7.09z"/><path d="m55.05 122.74c-.06.28 0 .57.03.85.03.33.07.67.11 1 .07.6.84.59.92 0 .02-.18 0-.35-.03-.53-.05-.32-.55-.37-.69-.09-.08.16-.15.31-.18.49h.89c-.04-.27-.08-.53-.12-.8-.03-.19-.14-.51-.11-.7.09-.53-.71-.77-.82-.22z"/><path d="m44.38 142.24v-1c0-.02-.03-.02-.03 0v1c-.01.03.03.03.03 0z"/><path d="m45.77 138.18c-.48 5.77 1.04 11.8 2.9 17.22.13.38.7.23.6-.17-1.42-5.74-2.97-11.08-2.95-17.06.01-.35-.52-.34-.55.01z"/><path d="m50.51 161.19c.02-.04.05.48.05.61-.01.19-.03.36-.02.56.04.37.16.74.36 1.06.38.62 1.1 1.19 1.86 1.17.39-.01.48-.58.09-.69-.83-.24-1.54-.64-1.7-1.58-.09-.52.31-1.31-.39-1.52-.14-.04-.26.05-.3.17-.02.05-.04.11-.06.16-.03.07.07.13.11.06z"/><path d="m47.67 169.08c-.98 1.29-2.2 2.75-2.62 4.36-.52 1.97-.8 4.01-1.31 5.99-.12.45.52.6.68.19.7-1.77.92-3.56 1.32-5.4.4-1.83 1.57-3.21 2.45-4.83.21-.36-.28-.62-.52-.31z"/><path d="m42.41 194.52c-.32.42-.32.99-.39 1.5-.08.61-.14 1.25.06 1.85.28.83 1.02 1.46 1.92 1.39.51-.04.52-.84 0-.81-2.13.14-.79-2.86-1.15-3.87-.07-.21-.31-.22-.44-.06z"/><path d="m12.65 179.09c-.6-2.06 1.37-2.57 2.83-3.12.75-.28 2.08-.8 2.04-1.77-.01-.24-.25-.38-.46-.26-.28.15-.42.39-.66.6-.3.26-.67.42-1.04.56-.66.26-1.36.44-2 .76-1.3.67-2 2.01-1.48 3.43.18.48.91.3.77-.2z"/><path d="m29.72 163.27c1.89-2.36 4.46-3.87 7.43-4.43.45-.08.26-.78-.19-.68-3.07.65-5.67 2.37-7.53 4.89-.12.17.16.39.29.22z"/><path d="m53.76 109.81c-.29 2-.28 4.03-.22 6.05.01.4.65.39.62 0-.19-2.01-.09-3.99.05-5.99.01-.25-.42-.31-.45-.06z"/><path d="m74.11 55.88c.72.02 1.44-.31 2.16-.23.22.02.38-.2.4-.4.02-.41.1-.88-.03-1.28-.12-.36-.6-.35-.72 0-.14.4-.06.87-.04 1.28.07-.11.13-.23.2-.34-.33.15-.78.17-1.13.26-.32.08-.64.15-.94.3-.22.09-.11.41.1.41z"/><path d="m75.74 55.61c-.18.43.18.95.61 1.04.18.03.35-.01.47-.16.1-.13.14-.35.03-.49-.1-.13-.19-.26-.28-.4-.13.23-.27.47-.4.7.01 0 .12.01.09.01-.02 0-.02-.01-.03-.02.17.14.4.18.58.03.17-.14.22-.38.11-.57-.1-.19-.19-.3-.34-.45-.18-.18-.49-.18-.67 0-.17.17-.2.51 0 .67.21.16.27.39.4.61.19.34.79.2.76-.21-.02-.37-.22-.68-.41-.98-.22.22-.43.43-.65.65.04.03.11.1.14.15.23-.18.47-.36.7-.54-.2-.17-.41-.29-.68-.29-.33.01-.61.4-.4.7.11.17.24.33.38.47.1-.25.21-.51.31-.76.06 0 .07.05.03 0 .04.05-.01-.04 0 0 0 .02.02.08 0 0s0 .04 0-.05c.01-.19-.16-.36-.34-.38-.19-.03-.33.09-.41.27z"/><path d="m76.54 56.2c.12-.14.1-.38.04-.53-.04-.11-.1-.21-.17-.3-.03-.03-.05-.06-.08-.09l-.12-.09c-.23-.26-.7-.12-.78.2-.07.3.02.55.21.78.18-.23.35-.46.53-.69-.16-.07-.3-.13-.48-.15s-.39.15-.43.33c-.04.19.03.4.2.5.11.07.24.1.37.13.4.1.77-.43.43-.73.06.05.04.14.01.2-.09.07-.18.14-.28.21-.03.01-.18-.02-.08.01.12.04-.03-.02.04.01.06.02.1.05.16.08.09.06.16.14.26.18.06.02.14-.01.17-.05z"/><path d="m78.7 54.08c-.13.34-.24.66-.47.94.13-.03.26-.07.39-.1-.21-.09-.45-.1-.68-.09-.55.03-.55.88 0 .85.34-.02.7-.07.94-.33.25-.26.32-.7.42-1.04.14-.45-.57-.65-.71-.2-.07.23-.13.48-.14.72-.01.38.55.45.65.09.06-.21.11-.41.19-.62-.24-.07-.47-.13-.71-.2-.04.12-.09.24-.13.36-.03.08-.05.23-.11.3-.09.09-.3.05-.41.05v.85c.2-.01.38.01.57.02.21.01.4-.19.4-.4-.01-.39.11-.74.22-1.1.11-.27-.31-.37-.42-.1z"/><path d="m78.47 55.47c.05.23.04.46-.01.68-.04.18.05.36.23.41.17.05.37-.06.41-.23.06-.24.01-.44-.02-.68-.09.16-.18.32-.28.49h.02c-.15-.06-.3-.12-.45-.18 0 .01.01.01.01.02-.02-.07-.04-.14-.05-.2v.03c.04-.1.08-.19.12-.29-.01.01-.01.01-.02.02.1-.04.19-.08.29-.12h-.04c.07.02.14.04.21.06.07.04-.06-.07-.06-.07-.04-.04-.09-.08-.14-.12-.17-.14-.37-.18-.57-.07-.17.08-.21.24-.23.41-.02.16.11.33.23.41.22.14.49.3.76.17.15-.07.26-.22.26-.4 0-.17-.1-.29-.23-.39-.12-.09-.28-.06-.4 0-.01 0-.01.01-.02.01-.23.12-.25.45-.08.62.04.04.03.16.03.21h.67c0-.33-.09-.65-.23-.95-.12-.26-.46-.08-.41.16z"/><path d="m77.31 55.64c.27.14.56.21.86.23.2.01.38-.16.4-.36.02-.18-.09-.42-.29-.45-.22-.04-.44-.08-.67-.14-.19-.05-.39.05-.46.23-.07.17-.02.4.16.49z"/><path d="m79.96 61.41c.14-.05.29-.09.44-.1.21-.01.38.06.58-.06.17-.1.26-.37.14-.54-.18-.25-.45-.29-.75-.27-.26.02-.5.09-.73.22-.4.22-.13.92.32.75z"/><path d="m82.51 60.54c.04-.03.09-.06.13-.09.01-.01.02-.01.03-.02.03-.01.04-.02.02-.02h-.03c-.05.01-.02.01.08-.01.08-.02.15-.06.21-.11.09-.07.14-.16.17-.27.03-.12 0-.25-.09-.33-.09-.09-.21-.11-.33-.09-.18.03-.3.16-.37.33-.01.03-.07.22-.01.08.05-.12.01-.04-.02-.01-.03.04-.07.09-.1.13-.08.1-.1.23-.02.34.07.1.22.14.33.07z"/><path d="m63.39 69.12c-.13-.74-.71-1.28-1.29-1.7-.71-.52-1.39-.96-2-1.61-.22-.23-.7.01-.57.33.27.68.85 1.09 1.45 1.47.76.49 1.41.92 1.83 1.75.17.35.64.09.58-.24z"/><path d="m59.73 64.23c.17-.49.26-.97.51-1.43s.59-.81.97-1.17c.3-.28-.11-.85-.45-.59-.88.68-1.72 1.94-1.62 3.1.02.35.47.42.59.09z"/></g></g><g fill-rule="nonzero" transform="matrix(.856074 0 0 .856074 28.1321 17.5233)"><path d="m150.28 37.91c3.77.64 7.17 2.11 9.9 4.89 1.19 1.21 2.67 1.97 4.24 2.56 2.29.88 4.67 1.24 7.13 1.26 3.6.03 6.4 1.52 8.15 4.8.34.64.91 1.18 1.46 1.66 1 .87 1.38 1.91.93 3.12-.41 1.1-.87 2.19-1.84 2.96-1.02.81-1.3 1.89-1.12 3.17.19 1.37.21 2.76.42 4.13.07.49.33 1.1.71 1.39 2.56 1.93 4.26 4.55 5.81 7.26 1.39 2.41 2.98 4.51 5.83 5.26.2.05.38.16.58.23 1.28.46 2.08 1.38 2.44 2.65.62 2.17.84 4.35-.06 6.51-.48 1.15-.96 2.3-1.44 3.44-1.66 3.95-4.34 7.1-7.78 9.54-2.27 1.61-4.92 2.57-7.75 2.58-2.21.01-4.17-1.05-6.01-2.11-3.09-1.77-6.24-3.25-9.76-3.97-3.11-.64-6.16-1.57-9.25-2.34-4.14-1.03-7.89-2.83-10.53-6.26-1.44-1.86-3.2-3-5.3-3.82-1.66-.64-3.01-1.7-4.09-3.1-.68-.88-1.35-1.77-2.06-2.61-2.03-2.4-4.11-4.73-7.36-5.51-.74-.18-1.45-.46-2.19-.65-2.85-.72-5.47-1.99-8.06-3.32-3.53-1.82-4.53-6.13-3.88-8.93.75-3.25 2.17-6.27 4.28-8.92 2.69-3.38 5.74-6.39 9.12-9.08.49-.39 1.01-.73 1.53-1.06 3.85-2.39 7.91-4.24 12.4-5.17 2.58-.54 5.12-1.23 7.81-1.19 1.9.2 3.84.3 5.74.63zm-28.59 32.55c1.47 1.35 2.6 2.44 3.78 3.47 1.66 1.44 3.58 2.06 5.78 1.63 1.48-.29 1.77-.62 1.6-2.1-.08-.67-.38-1.32-.6-1.97-.5-1.47-.26-2.11 1.25-2.47.91-.22 1.94-.25 2.84-.04 1.2.28 2.33.86 3.48 1.35 1.13.48 2.27.75 3.4.11 1.35-.76 2.56-.39 3.71.36 1.28.84 2.51 1.74 3.72 2.67 2.14 1.64 4.39 2.08 6.74.57 2.36-1.52 4.71-1.44 7.09-.17 1.16.62 2.36 1.21 3.4 2.01 1.59 1.21 3.35 1.92 5.26 2.39 2.15.53 4.29 1.09 6.52.52.04-.01.1.08.26.2-1.26 1.06-2.68 1.03-4.11.73-2.78-.57-5.6-1.02-8.15-2.93-.87 2.63-1.8 4.98-1.55 7.61.08.9.38 1.29 1.36 1.44 3.25.5 6.51.33 9.76.25 1.18-.03 2.35-.25 3.53-.23 2.81.04 5.49-.63 8.18-1.32 1.11-.28 2.32-.2 3.48-.23.47-.01.93.12 1.57.22-.02-1.51-.69-2.37-1.92-2.94-1.44-.66-2.84-1.42-4.28-2.09-.26-.12-.63-.1-.93-.04-.26.05-.48.3-.74.36-.57.13-1.15.19-1.73.27-.06-.9.75-.81 1.23-1.1.34-.2.69-.41 1.09-.65-1.57-2.9-3.27-5.58-5.32-8.02-.31-.37-.65-.77-1.07-.98-1.78-.88-2.1-2.37-1.99-4.17.06-.88-.05-1.81-.25-2.67-.33-1.43 0-2.61 1.05-3.59.88-.82 1.6-1.73 1.98-2.88.36-1.11.2-1.66-.82-2.26-.81-.47-1.53-.92-1.7-1.94-.05-.31-.35-.59-.54-.88-1.52-2.24-3.24-2.42-5.04-.37-1.09 1.24-2.3 2.44-2.72 4.14-.04.17-.24.3-.4.49-.36-2.12.72-3.96 4.09-6.98-1.32-.62-2.68-.75-4.04-.71-2.93.07-5.61-.8-8.17-2.1-.73-.37-1.47-.82-2.05-1.4-3.56-3.55-8.01-4.8-12.85-5.06-3.99-.21-7.86.34-11.7 1.45-2.48.71-4.91 1.46-7.1 2.85-.29.18-.57.38-.78.8.63-.17 1.26-.38 1.91-.5 2.1-.39 4.21-.8 6.33-1.08 1.99-.26 4.01-.32 6-.54 3.47-.39 6.92-.36 10.37.1 1.64.22 3.62 1 5.39 2.17-.87-.2-1.32-.25-1.73-.4-2.43-.9-4.95-1.29-7.54-1.32-3.55-.05-7.07.19-10.58.68-1.44.2-2.91.18-4.34.44-1.7.31-3.36.8-5.03 1.23-.54.14-1.05.44-1.59.47-2.3.14-3.95 1.45-5.65 2.82-2.47 1.97-4.38 4.44-6.43 6.77-2 2.27-3.28 5.04-3.87 7.97-.64 3.16.62 6.46 3.82 8.04 2.93 1.44 5.92 2.71 9.14 3.37.18.04.36.03.7.06-.8-1.29-2.54-1.75-2.5-3.88zm59.45 21.46c-3.8.06-7.59-.03-11.48-.05.46 1.23 1.7 1.43 2.73 2.03-.51.75-1.21.35-1.61.13-2.69-1.5-4.77-3.46-5.4-6.71-.6-3.09-.39-6.05.65-8.99.16-.46.23-.95.4-1.4.21-.57-.01-.94-.47-1.22-2.6-1.56-5.18-2.54-8.18-.77-2.57 1.52-5.17 1.21-7.57-.59-1.11-.83-2.25-1.63-3.34-2.47-1.01-.78-2.07-1.03-3.3-.56-1.58.59-3.09.38-4.61-.35-1.05-.51-2.18-.87-3.32-1.15-.57-.14-1.24-.04-1.83.08-.86.18-1.02.48-.59 1.33.46.91.56 1.84.52 2.82-.05 1.6-.6 2.24-2.19 2.47-.48.07-.97.05-1.45.08-.4.03-.8.07-1.26.11.14.28.2.49.33.64 1.52 1.8 3.08 3.57 4.58 5.38 1.17 1.41 2.51 2.5 4.28 3.16 2.02.75 3.73 1.95 5.06 3.8 2.35 3.28 5.71 5.14 9.62 6.1 4.36 1.06 8.74 2.12 13.04 3.39 1.83.54 3.52 1.6 5.27 2.42 1.57.73 3.12 1.5 4.7 2.19 1.53.67 3.04.43 4.65.07 5.26-1.19 8.33-4.98 11.14-9.08.64-.93.96-2.08 1.5-3.29-4.15.15-8.01.37-11.87.43zm-11.9-1.09c1.38 0 2.76.13 4.14.17 1.87.06 3.74.14 5.6.11 3.18-.06 6.36-.2 9.54-.33.53-.02 1.18.17 1.43-.53.18-.51.25-1.05.37-1.58-.51-.1-1.02-.29-1.52-.27-2.62.07-5.24.17-7.86.31-2.48.14-4.96.38-7.45.5-1.79.09-3.58.05-5.37.09-.19 0-.38.09-.57.14.47 1.44.47 1.39 1.69 1.39zm13.11-2.98c.25-.02.48-.31.72-.47-.23-.23-.44-.63-.7-.66-.68-.1-1.38-.06-2.07-.03-2.21.09-4.42.2-6.63.31-.21.01-.47-.04-.6.07-.23.19-.45.46-.51.74-.03.14.3.5.49.51.75.06 1.52.02 2.28.02v-.06c2.34-.14 4.68-.26 7.02-.43zm-14.6.49c.82.01 1.64.2 2.47.26.33.02.74 0 .99-.18.22-.16.36-.57.36-.87 0-.18-.31-.49-.51-.52-1.49-.17-2.99-.29-4.66-.44.04 1.17.33 1.74 1.35 1.75zm23.58-1.73c.63.86 1.63 1.09 2.47.46.25-.19.41-.72.35-1.05-.05-.31-.42-.74-.7-.79-.93-.16-1.88-.17-3.2-.26.56.84.8 1.25 1.08 1.64zm.31 4.03c1.32.02 2.21-.7 2.45-2.02.04-.22-.08-.63-.23-.7-1.07-.49-2.91 1.03-2.79 2.44.14.07.35.28.57.28zm-4.37-4.6c.58 1.87.58 1.87 3.38 1.3-1.08-2.03-1.36-2.13-3.38-1.3zm-1.57 1.7c.32-.17.76-.36.86-.64.16-.47-.43-.92-1.06-.89-.2.01-.42.02-.6.1-.39.17-1.11.12-.86.81.12.34.6.56.76.7.5-.04.74.01.9-.08z" fill="#252723"/><path d="m123.46 74.25c-3.22-.66-6.21-1.92-9.14-3.37-3.2-1.57-4.46-4.88-3.82-8.04.59-2.93 1.87-5.69 3.87-7.97 2.05-2.33 3.97-4.8 6.43-6.77 1.71-1.37 3.36-2.67 5.65-2.82.54-.03 1.05-.34 1.59-.47 1.67-.43 3.34-.92 5.03-1.23 1.42-.26 2.9-.24 4.34-.44 3.51-.49 7.03-.72 10.58-.68 2.59.03 5.11.42 7.54 1.32.41.15.86.2 1.73.4-1.77-1.17-3.75-1.95-5.39-2.17-3.45-.47-6.91-.5-10.37-.1-2 .23-4.01.28-6 .54-2.12.28-4.22.7-6.33 1.08-.64.12-1.27.33-1.91.5.21-.42.49-.61.78-.8 2.19-1.39 4.62-2.14 7.1-2.85 3.84-1.11 7.71-1.66 11.7-1.45 4.84.26 9.29 1.5 12.85 5.06.58.58 1.32 1.02 2.05 1.4 2.56 1.31 5.24 2.17 8.17 2.1 1.36-.03 2.72.09 4.04.71-3.37 3.03-4.44 4.87-4.09 6.98.15-.18.35-.32.4-.49.43-1.7 1.64-2.9 2.72-4.14 1.8-2.04 3.52-1.86 5.04.37.19.29.49.56.54.88.17 1.03.89 1.47 1.7 1.94 1.02.59 1.18 1.15.82 2.26-.37 1.15-1.1 2.07-1.98 2.88-1.05.98-1.38 2.16-1.05 3.59.2.87.3 1.79.25 2.67-.12 1.79.21 3.28 1.99 4.17.42.21.76.61 1.07.98 2.05 2.44 3.75 5.12 5.32 8.02-.41.24-.75.45-1.09.65-.48.28-1.3.2-1.23 1.1.58-.09 1.16-.15 1.73-.27.26-.06.48-.31.74-.36.3-.06.67-.08.93.04 1.44.67 2.84 1.43 4.28 2.09 1.23.57 1.9 1.43 1.92 2.94-.64-.09-1.11-.23-1.57-.22-1.16.03-2.37-.05-3.48.23-2.69.69-5.37 1.36-8.18 1.32-1.17-.02-2.35.2-3.53.23-3.26.08-6.51.24-9.76-.25-.97-.15-1.27-.54-1.36-1.44-.25-2.64.68-4.99 1.55-7.61 2.56 1.9 5.38 2.36 8.15 2.93 1.43.3 2.85.32 4.11-.73-.16-.13-.22-.21-.26-.2-2.23.57-4.38.01-6.52-.52-1.9-.47-3.67-1.18-5.26-2.39-1.04-.79-2.23-1.39-3.4-2.01-2.39-1.27-4.73-1.34-7.09.17-2.35 1.51-4.6 1.07-6.74-.57-1.21-.93-2.45-1.83-3.72-2.67-1.15-.75-2.36-1.12-3.71-.36-1.13.63-2.27.37-3.4-.11-1.14-.49-2.28-1.07-3.48-1.35-.9-.21-1.94-.18-2.84.04-1.51.36-1.74.99-1.25 2.47.22.65.52 1.3.6 1.97.17 1.49-.12 1.81-1.6 2.1-2.2.43-4.12-.19-5.78-1.63-1.18-1.03-2.31-2.12-3.78-3.47-.04 2.13 1.7 2.59 2.47 3.85-.31 0-.49.01-.67-.03zm43.43-19.55c-.01.86.31 1.79.69 2.58.48.97.32 1.72-.37 2.45-.19.2-.34.45-.55.61-3.16 2.38-6.37 4.67-10.1 6.1-1.88.72-3.74.78-5.69.25-4.82-1.31-9.7-2.34-14.71-2.4-3.6-.04-6.97.95-10.15 2.62-.12.06-.27.13-.33.24-.07.15-.11.35-.08.52.01.07.24.17.35.15.33-.07.67-.15.97-.3 5.2-2.62 10.66-2.68 16.22-1.58 2.58.51 5.14 1.1 7.69 1.73 3.25.8 6.21-.06 8.96-1.68 2.38-1.41 4.64-3.02 6.94-4.57.4-.27.76-.61 1.08-.96 1-1.11 1.47-2.29.55-3.73-.75-1.18-.5-2.55-.46-3.86.03-.79.58-1.21 1.13-1.65.31-.24.58-.53.86-.8-3.04.67-2.97 1.92-3 4.28zm12.8 17.1c1.2 3.45-.6 4.46-3.62 4.3-1.53-.08-3.09-.75-4.51-1.43-1.36-.65-2.59-1.6-3.82-2.5-2.84-2.07-5.98-3.17-9.51-3.06-.33.01-.65.12-1.49.29.77.3 1.08.49 1.41.55 1.29.23 2.6.36 3.89.63 2 .42 3.75 1.38 5.37 2.63 2.09 1.61 4.27 3.11 6.94 3.63 1.73.34 3.44.36 5.1-.35 1.1-.47 1.58-1.34 1.63-2.45s-.02-2.22-1.4-2.94c.01.45-.02.59.01.7zm-6.47-5.64c-1.5-.53-1.57-.64-1.59-2.23-.02-1.24.06-2.49 0-3.73-.11-2.11.87-3.55 2.61-4.58.29-.17.58-.37.86-.56.05-.03.05-.12.14-.34-.21-.08-.43-.27-.62-.24-1.73.26-3.58 1.92-3.77 3.63-.24 2.19-.32 4.4-.37 6.6-.01.48.24 1.22.6 1.42 1.9 1.07 3.9 1.85 6.22 1.38-1.37-.45-2.74-.87-4.08-1.35z" fill="#eed6a2"/><g fill="#f5e9d4"><path d="m191.5 94.78c-2.81 4.1-5.88 7.89-11.14 9.08-1.61.36-3.12.6-4.65-.07-1.58-.69-3.14-1.45-4.7-2.19-1.75-.82-3.43-1.88-5.27-2.42-4.31-1.27-8.68-2.32-13.04-3.39-3.91-.95-7.27-2.82-9.62-6.1-1.33-1.86-3.04-3.05-5.06-3.8-1.77-.66-3.11-1.74-4.28-3.16-1.5-1.81-3.06-3.58-4.58-5.38-.13-.15-.19-.36-.33-.64.47-.04.86-.08 1.26-.11.48-.03.98-.01 1.45-.08 1.59-.24 2.14-.87 2.19-2.47.03-.98-.06-1.91-.52-2.82-.43-.85-.26-1.15.59-1.33.6-.12 1.26-.22 1.83-.08 1.13.28 2.27.64 3.32 1.15 1.52.74 3.04.95 4.61.35 1.24-.47 2.29-.22 3.3.56 1.1.85 2.23 1.64 3.34 2.47 2.4 1.8 5 2.12 7.57.59 2.99-1.77 5.58-.79 8.18.77.46.28.69.65.47 1.22-.17.45-.24.94-.4 1.4-1.04 2.94-1.25 5.9-.65 8.99.63 3.24 2.71 5.21 5.4 6.71.4.22 1.1.62 1.61-.13-1.03-.61-2.27-.8-2.73-2.03 3.89.02 7.69.11 11.48.05 3.86-.06 7.73-.28 11.86-.44-.53 1.21-.85 2.36-1.49 3.3zm-30.24-12.55c-.16 1.67.05 3.29.71 4.87.47 1.14.86 2.33 1.2 3.52.35 1.22.12 1.65-1.16 1.9-1.14.22-2.33.19-3.49.3-.72.07-1.5-.29-2.33.38.36.2.63.47.9.47 1.66.03 3.33.11 4.97-.02 1.94-.16 2.7-1.41 2.17-3.3-.28-1-.53-2.01-.93-2.96-1.12-2.65-1.46-5.29-.17-8.07-1.3.57-1.76 1.65-1.87 2.91z"/><path d="m167.55 89.44c.48 1.44.48 1.39 1.69 1.39 1.38 0 2.76.13 4.14.17 1.87.06 3.74.14 5.6.11 3.18-.06 6.36-.2 9.54-.33.53-.02 1.18.17 1.43-.53.18-.51.25-1.05.37-1.58-.51-.1-1.02-.29-1.52-.27-2.62.07-5.24.17-7.86.31-2.48.14-4.96.38-7.45.5-1.79.09-3.58.05-5.37.09-.19 0-.38.09-.57.14z"/><path d="m175.33 88.27c2.34-.13 4.69-.26 7.03-.42.25-.02.48-.31.72-.47-.23-.23-.44-.63-.7-.66-.68-.1-1.38-.06-2.07-.03-2.21.09-4.42.2-6.63.31-.21.01-.47-.04-.6.07-.23.19-.45.46-.51.74-.03.14.3.5.49.51.75.06 1.52.02 2.28.02-.01-.03-.01-.05-.01-.07z"/><path d="m166.4 86.59c.04 1.16.33 1.73 1.34 1.75.82.01 1.64.2 2.47.26.33.02.74 0 .99-.18.22-.16.36-.57.36-.87 0-.18-.31-.49-.51-.52-1.48-.17-2.98-.28-4.65-.44z"/><path d="m190.25 84.96c.55.85.8 1.26 1.08 1.64.63.86 1.63 1.09 2.47.46.25-.19.41-.72.35-1.05-.05-.31-.42-.74-.7-.79-.93-.16-1.88-.16-3.2-.26z"/><path d="m191.07 90.36c.14.07.35.27.57.28 1.32.02 2.21-.7 2.45-2.02.04-.22-.08-.63-.23-.7-1.08-.48-2.92 1.03-2.79 2.44z"/><path d="m190.65 87.34c-1.08-2.03-1.36-2.13-3.38-1.3.58 1.87.58 1.87 3.38 1.3z"/><path d="m184.8 87.82c.5-.04.74.01.9-.08.32-.17.76-.36.86-.64.16-.47-.43-.92-1.06-.89-.2.01-.42.02-.6.1-.39.17-1.11.12-.86.81.12.35.6.56.76.7z"/></g><path d="m169.88 50.43c-3.03.66-2.96 1.91-3 4.27-.01.86.31 1.79.69 2.58.48.97.32 1.72-.37 2.45-.19.2-.34.45-.55.61-3.16 2.38-6.37 4.67-10.1 6.1-1.88.72-3.74.78-5.69.25-4.82-1.31-9.7-2.34-14.71-2.4-3.6-.04-6.97.95-10.15 2.62-.12.06-.27.13-.33.24-.07.15-.11.35-.08.52.01.07.24.17.35.15.33-.07.67-.15.97-.3 5.2-2.62 10.66-2.68 16.22-1.58 2.58.51 5.14 1.1 7.69 1.73 3.25.8 6.21-.06 8.96-1.68 2.38-1.41 4.64-3.02 6.94-4.57.4-.27.76-.61 1.08-.96 1-1.11 1.47-2.29.55-3.73-.75-1.18-.5-2.55-.46-3.86.03-.79.58-1.21 1.13-1.65.31-.23.58-.52.86-.79z" fill="#252723"/><path d="m179.69 71.11c0 .44-.03.58 0 .69 1.2 3.45-.6 4.46-3.62 4.3-1.53-.08-3.09-.75-4.51-1.43-1.36-.65-2.59-1.6-3.82-2.5-2.84-2.07-5.98-3.17-9.51-3.06-.33.01-.65.12-1.49.29.77.3 1.08.49 1.41.55 1.29.23 2.6.36 3.89.63 2 .42 3.75 1.38 5.37 2.63 2.09 1.61 4.27 3.11 6.94 3.63 1.73.34 3.44.36 5.1-.35 1.1-.47 1.58-1.34 1.63-2.45.07-1.1-.01-2.21-1.39-2.93z" fill="#252723"/><path d="m177.29 67.51c-1.36-.45-2.73-.87-4.07-1.35-1.5-.53-1.57-.64-1.59-2.23-.02-1.24.06-2.49 0-3.73-.11-2.11.87-3.55 2.61-4.58.29-.17.58-.37.86-.56.05-.03.05-.12.14-.34-.21-.08-.43-.27-.62-.24-1.73.26-3.58 1.92-3.77 3.63-.24 2.19-.32 4.4-.37 6.6-.01.48.24 1.22.6 1.42 1.88 1.06 3.89 1.85 6.21 1.38z" fill="#252723"/><path d="m163.12 79.32c-1.29.57-1.75 1.66-1.86 2.91-.16 1.67.05 3.29.71 4.87.47 1.14.86 2.33 1.2 3.52.35 1.22.12 1.65-1.16 1.9-1.14.22-2.33.19-3.49.3-.72.07-1.5-.29-2.33.38.36.2.63.47.9.47 1.66.03 3.33.11 4.97-.02 1.94-.16 2.7-1.41 2.17-3.3-.28-1-.53-2.01-.93-2.96-1.12-2.65-1.46-5.29-.18-8.07z" fill="#252723"/><path d="m160.5 45.61c-.38.98-1.55 1.44-2.59 1.38s-2.02-.53-3-.9c-3.87-1.45-8.29-1.39-12.13.16 6.25-.26 12.03 3.06 17.39 6.29.74-.94 1.21-2.11 1.31-3.31 1.26.17 1.87 1.95 3.14 2.02.44.02.85-.17 1.25-.36 1.18-.57 2.41-1.11 3.47-1.81-.65-.31-9.95-.52-8.84-3.47z" fill="#fff"/><path d="m178.94 54.28c.78.4.82 1.56.38 2.32s-1.21 1.26-1.83 1.88c-.99 1.01-1.61 2.38-1.7 3.8-1.18-1.34-1.14-3.59.08-4.89.51-.54 1.17-.91 1.7-1.42.54-.51.96-1.25.77-1.97.78-.01 1.57-.03 2.35-.04" fill="#fff"/></g><path d="m13.997 13.413h5.428v180.654h-5.428z" fill="#d2574a" transform="matrix(.43145 0 0 .807673 -6.03912 37.3244)"/><path d="m13.997 13.413h5.428v180.654h-5.428z" fill="#d2574a" transform="matrix(3.53904 0 0 .0140281 -49.5369 191.345)"/><path d="m13.997 13.413h5.428v180.654h-5.428z" fill="#a6443a" transform="matrix(.868401 0 0 .0140281 9.60704 191.345)"/><path d="m13.997 13.413h5.428v180.654h-5.428z" fill="#732d26" transform="matrix(.868401 0 0 .0140281 17.1907 191.345)"/><path d="m13.997 13.413h5.428v180.654h-5.428z" fill="#541e18" transform="matrix(.868401 0 0 .0140281 24.2064 191.345)"/><path d="m13.997 13.413h5.428v180.654h-5.428z" fill="#d2574a" transform="matrix(3.53904 0 0 .0140281 -49.5369 47.9698)"/><path d="m13.997 13.413h5.428v180.654h-5.428z" fill="#a6443a" transform="matrix(.868401 0 0 .0140281 9.60704 47.9698)"/><path d="m13.997 13.413h5.428v180.654h-5.428z" fill="#732d26" transform="matrix(.868401 0 0 .0140281 17.1907 47.9698)"/><path d="m13.997 13.413h5.428v180.654h-5.428z" fill="#541e18" transform="matrix(.868401 0 0 .0140281 24.2064 47.9698)"/><g fill-rule="nonzero"><path d="m.238.035c-.044 0-.077-.005-.099-.016s-.036-.025-.044-.043-.012-.039-.013-.061c-.003-.07-.004-.139-.004-.208 0-.065.001-.131.004-.196-.024 0-.044-.009-.061-.028-.014-.016-.021-.033-.021-.052 0-.024.009-.044.027-.061.006-.006.013-.012.02-.019.036-.035.064-.058.083-.071.015-.009.027-.014.037-.014.057 0 .097.005.12.016.022.011.035.022.038.035.002.013.004.025.004.034 0 .01-.001.021-.002.033-.012.106-.018.228-.018.366 0 .03.001.062.003.098.001.036.002.072.002.11 0 .027-.007.046-.022.058-.014.013-.032.019-.054.019z" fill="#541e18" transform="matrix(12 0 0 12 9.9677 38.47072)"/><path d="m.103.051c-.027 0-.049-.004-.066-.013-.016-.008-.029-.019-.037-.033-.007-.014-.011-.029-.011-.046 0-.025.01-.047.029-.064.02-.018.048-.027.085-.027s.065.009.085.027c.019.017.029.039.029.064 0 .017-.004.032-.012.046s-.02.025-.037.033c-.017.009-.038.013-.065.013z" fill="#541e18" transform="matrix(12 0 0 12 14.3095 38.47072)"/><path d="m.229.038c-.076 0-.141-.013-.194-.039-.035-.018-.052-.042-.052-.071 0-.025.017-.053.052-.083.048-.044.103-.102.165-.176.074-.089.112-.154.112-.194 0-.027-.01-.04-.029-.04-.011 0-.023.004-.037.012-.024.013-.042.03-.054.051-.005.009-.011.016-.017.022-.013.012-.03.019-.053.019-.014 0-.027-.004-.04-.012-.02-.012-.032-.024-.036-.038s-.005-.025-.005-.031c0-.014.003-.028.011-.041.027-.047.064-.083.11-.11s.095-.041.148-.041c.047 0 .087.011.122.032s.063.05.082.087c.02.037.029.078.029.124 0 .036-.009.074-.029.116-.019.042-.044.084-.075.126s-.063.082-.098.12c.029-.004.055-.009.078-.015.008-.002.015-.003.023-.003.014 0 .027.004.039.011.019.011.031.027.038.049.002.007.003.014.003.022 0 .014-.004.027-.011.039-.011.019-.027.032-.049.038-.063.017-.141.026-.233.026z" fill="#541e18" transform="matrix(12 0 0 12 17.3212 38.47072)"/><path d="m.33.033c-.049 0-.092-.011-.129-.032-.037-.022-.067-.05-.092-.086-.025-.035-.044-.075-.057-.12-.012-.044-.019-.079-.02-.105 0-.025 0-.04 0-.044 0-.043.005-.085.015-.126.011-.045.029-.085.052-.121.023-.035.053-.064.088-.085s.077-.032.125-.032c.047 0 .089.011.126.033.036.023.067.052.092.09.024.038.043.08.056.128s.019.098.019.15c0 .045-.005.088-.016.13s-.028.079-.051.112c-.022.033-.051.059-.086.078-.034.02-.075.03-.122.03zm.034-.167c.019 0 .034-.009.046-.029.011-.019.02-.043.025-.073.006-.03.008-.061.008-.094 0-.03-.003-.059-.01-.088-.006-.028-.016-.052-.029-.07-.012-.018-.028-.028-.045-.028-.016 0-.031.009-.046.025-.015.017-.027.04-.036.069s-.014.062-.014.099c0 .038.005.071.015.1.01.028.023.05.038.066.016.015.031.023.048.023z" fill="#541e18" transform="matrix(12 0 0 12 23.9833 38.47072)"/><path d="m.209-.007h-.004c-.04 0-.07-.004-.091-.013s-.036-.022-.044-.038-.013-.035-.016-.056c-.008-.074-.013-.131-.013-.172s0-.066 0-.075c0-.065.002-.129.006-.193.002-.025.009-.043.023-.055.013-.011.029-.017.048-.017.066 0 .11.019.132.056.026-.019.055-.028.085-.028.023 0 .044.004.063.013s.036.021.051.035c.015.015.028.031.039.05.037-.058.085-.087.146-.087.051 0 .088.02.114.059.025.039.041.084.048.135.007.052.01.1.01.144 0 .06-.003.117-.009.171-.003.025-.012.043-.027.054-.015.01-.033.015-.054.015-.046 0-.08-.006-.102-.018-.022-.011-.035-.025-.04-.042-.005-.016-.008-.031-.008-.046 0-.007.001-.02.003-.037.01-.071.014-.126.014-.164 0-.03-.003-.044-.011-.044-.007 0-.012.006-.017.018-.004.012-.008.027-.011.046s-.006.039-.008.061c-.005.041-.011.075-.019.103-.01.038-.03.057-.059.057-.044 0-.076-.007-.097-.021-.017-.012-.027-.024-.029-.037s-.002-.024-.002-.033c0-.01 0-.02.001-.03.004-.041.006-.075.006-.103 0-.039-.003-.067-.01-.085-.005-.014-.012-.021-.019-.021-.01 0-.017.016-.023.047-.005.032-.008.071-.008.118 0 .048.003.097.01.148 0 .005.001.01.001.015 0 .022-.007.039-.019.05-.016.013-.036.02-.06.02z" fill="#541e18" transform="matrix(12 0 0 12 31.4013 38.47072)"/><path d="m.329.06c-.04 0-.075-.001-.107-.003-.031-.002-.058-.007-.081-.015s-.042-.02-.057-.037c-.014-.017-.025-.04-.031-.07-.015-.076-.023-.153-.023-.231 0-.024.001-.048.002-.072.006-.102.019-.203.039-.302.006-.029.017-.05.034-.063.017-.012.039-.02.068-.022.028-.002.059-.003.093-.003.083 0 .141.001.173.003.029.002.059.005.089.009.026.003.046.013.06.031.015.018.022.037.022.058 0 .032-.011.056-.031.073-.018.014-.037.021-.059.021h-.006c-.066-.006-.133-.01-.2-.01-.006.038-.012.076-.017.116l.073.004c.026.002.047.011.063.03.016.018.024.039.024.064 0 .026-.01.049-.03.067-.018.015-.041.023-.067.023-.025-.001-.051-.002-.075-.003 0 .055.002.104.007.146.018.002.036.002.053.002.048 0 .106-.007.175-.022.006-.001.012-.002.019-.002.018 0 .035.005.05.015.021.014.034.033.04.059.002.006.002.013.002.019 0 .018-.005.035-.015.051-.013.02-.033.033-.058.039-.074.017-.15.025-.229.025z" fill="#d2574a" transform="matrix(8.957808 0 0 8.957808 142.4879766076 124.405135522)"/><path d="m.279-.004c-.05 0-.1-.041-.147-.124-.048-.083-.09-.204-.127-.364-.001-.007-.002-.013-.002-.019 0-.023.009-.043.028-.059.016-.014.033-.021.052-.021.025 0 .058.014.101.041.026.017.042.038.048.063.018.072.032.128.043.167s.021.059.032.059.022-.02.035-.059c.012-.039.028-.099.048-.181.005-.023.015-.039.031-.048.016-.01.031-.015.047-.015.006 0 .012.001.018.002.022.006.038.017.048.032.01.016.015.032.015.047 0 .006-.001.012-.003.019-.072.307-.161.46-.267.46z" fill="#d2574a" transform="matrix(8.957808 0 0 8.957808 147.5923595512 124.405135522)"/><path d="m.286.026c-.043 0-.081-.009-.113-.027-.033-.019-.06-.043-.082-.074s-.039-.065-.05-.104c-.012-.038-.018-.068-.018-.089s0-.032 0-.033c0-.086.022-.159.065-.22.048-.067.115-.101.201-.101.083 0 .148.034.192.101.038.057.057.126.057.208 0 .047-.006.092-.019.134-.025.083-.067.142-.127.178-.031.018-.066.027-.106.027zm.025-.165c.014 0 .026-.01.036-.03s.017-.044.022-.071c.005-.028.007-.054.007-.08 0-.035-.003-.062-.011-.083-.007-.02-.018-.031-.032-.031-.016 0-.03.008-.041.022s-.019.032-.024.055c-.008.027-.011.056-.011.086 0 .047.007.084.023.11.008.015.018.022.031.022z" fill="#d2574a" transform="matrix(8.957808 0 0 8.957808 152.5961164516 124.405135522)"/><path d="m.297.046c-.1 0-.169-.032-.206-.096-.018-.032-.032-.076-.04-.13-.01-.072-.016-.185-.016-.34 0-.043 0-.088.001-.137 0-.027.008-.046.023-.058.015-.011.032-.017.053-.017.052 0 .088.006.11.017.022.012.034.026.038.041.004.016.006.031.006.046 0 .012-.002.044-.007.096-.007.088-.011.159-.011.215 0 .135.022.203.065.203h.007c.019 0 .034.008.046.025.012.016.018.035.018.055 0 .025-.009.045-.027.06-.017.014-.037.02-.06.02z" fill="#d2574a" transform="matrix(8.957808 0 0 8.957808 157.66108504 124.405135522)"/><path d="m.25.005c-.039 0-.072-.01-.099-.03s-.049-.046-.066-.079c-.017-.034-.03-.07-.039-.111-.008-.04-.013-.073-.014-.099s-.002-.043-.002-.053c0-.074.008-.135.025-.185.012-.037.039-.055.08-.055.039 0 .07.003.091.008.022.006.037.015.045.025.009.011.013.024.013.038s-.005.048-.014.1c-.015.082-.022.142-.022.179 0 .043.009.065.028.065.038 0 .057-.078.057-.235 0-.021-.001-.055-.001-.102 0-.019.003-.033.011-.044.007-.011.017-.018.029-.023.012-.004.025-.007.039-.007.049 0 .084.006.105.016.021.011.034.025.039.043.005.017.008.037.008.058.003.067.006.133.011.198.006.065.014.131.026.197.001.008.002.015.002.021 0 .021-.006.037-.018.049-.015.015-.035.022-.059.022-.038 0-.067-.005-.085-.015-.018-.011-.035-.027-.051-.048-.016.021-.036.037-.061.049-.025.012-.051.018-.078.018z" fill="#d2574a" transform="matrix(8.957808 0 0 8.957808 160.648514008 124.405135522)"/><path d="m.352.02c-.06 0-.115-.013-.166-.038s-.092-.062-.122-.11c-.031-.049-.047-.108-.047-.178 0-.055.013-.102.039-.141s.061-.069.104-.09c.044-.021.092-.032.144-.032.072 0 .145.026.219.077.019.013.03.026.033.04.002.013.004.022.004.027 0 .015-.005.03-.015.045-.013.019-.026.029-.04.032-.013.002-.022.004-.027.004-.016 0-.031-.005-.045-.014-.017-.011-.031-.017-.043-.018s-.02-.001-.024-.001c-.041 0-.074.015-.097.045-.013.016-.02.036-.02.061 0 .027.006.05.018.069s.027.033.046.042.038.014.058.014c.027 0 .054-.007.079-.021.013-.006.026-.01.039-.01.007 0 .015.001.023.004.021.006.037.019.048.039.006.012.01.025.01.038 0 .008-.001.015-.004.023-.005.021-.018.036-.038.047-.056.03-.115.046-.176.046z" fill="#d2574a" transform="matrix(8.957808 0 0 8.957808 166.2252720268 124.405135522)"/><path d="m.203.051c-.046 0-.079-.005-.101-.015-.021-.01-.035-.023-.042-.04-.013-.031-.019-.119-.019-.266 0-.082.001-.16.004-.234.002-.027.01-.046.025-.059.014-.012.032-.018.053-.018.05 0 .086.006.107.017.022.011.035.024.04.04.004.016.006.032.006.048-.003.105-.004.186-.004.243 0 .066.002.133.007.2v.012c0 .024-.006.041-.019.053-.016.013-.035.019-.057.019zm-.044-.66c-.031 0-.058-.008-.081-.023-.022-.016-.033-.034-.033-.056s.011-.041.033-.056c.023-.016.05-.024.081-.024s.058.008.081.024c.022.015.033.034.033.056s-.011.04-.033.056c-.023.015-.05.023-.081.023z" fill="#d2574a" transform="matrix(8.957808 0 0 8.957808 171.4127386396 124.405135522)"/><path d="m.286.026c-.043 0-.081-.009-.113-.027-.033-.019-.06-.043-.082-.074s-.039-.065-.05-.104c-.012-.038-.018-.068-.018-.089s0-.032 0-.033c0-.086.022-.159.065-.22.048-.067.115-.101.201-.101.083 0 .148.034.192.101.038.057.057.126.057.208 0 .047-.006.092-.019.134-.025.083-.067.142-.127.178-.031.018-.066.027-.106.027zm.025-.165c.014 0 .026-.01.036-.03s.017-.044.022-.071c.005-.028.007-.054.007-.08 0-.035-.003-.062-.011-.083-.007-.02-.018-.031-.032-.031-.016 0-.03.008-.041.022s-.019.032-.024.055c-.008.027-.011.056-.011.086 0 .047.007.084.023.11.008.015.018.022.031.022zm-.083-.513c-.01 0-.015-.003-.016-.008 0-.005-.001-.007-.001-.008 0-.017.009-.039.025-.068.008-.013.015-.023.022-.033l.037-.046c.015-.017.028-.026.039-.028.011-.001.019-.002.022-.002.014 0 .026.004.038.01.014.008.022.016.023.025.001.008.002.014.002.016 0 .013-.008.027-.023.042-.035.031-.069.058-.103.079-.021.014-.043.021-.065.021z" fill="#d2574a" transform="matrix(8.957808 0 0 8.957808 174.334551664 124.405135522)"/><path d="m.507.013c-.048 0-.083-.006-.105-.018-.023-.012-.037-.026-.042-.042-.006-.017-.008-.033-.008-.05v-.01c.002-.051.003-.093.003-.127 0-.099-.011-.149-.035-.149-.014 0-.026.023-.035.069s-.014.09-.014.132c0 .032.002.068.006.11v.01c0 .023-.006.039-.018.05-.015.013-.035.02-.058.02-.045 0-.077-.004-.098-.014-.022-.009-.036-.022-.043-.039-.008-.017-.013-.036-.015-.057-.005-.055-.008-.108-.008-.161 0-.081.002-.154.007-.217.002-.027.01-.045.024-.057.015-.012.031-.018.049-.018.033 0 .057.004.072.01.015.007.026.014.032.023.044-.052.093-.078.147-.078.065 0 .115.036.152.107.043.086.064.205.064.358 0 .029 0 .053-.001.073-.002.026-.01.045-.025.057-.014.012-.031.018-.051.018z" fill="#d2574a" transform="matrix(8.957808 0 0 8.957808 179.3995202524 124.405135522)"/><path d="m.501.028c-.037 0-.065-.005-.083-.015-.019-.011-.033-.025-.043-.043-.035.012-.07.018-.105.018-.05 0-.097-.011-.14-.034-.036-.019-.065-.045-.088-.079-.022-.034-.033-.075-.033-.123 0-.04.009-.076.028-.108.018-.032.043-.057.073-.077.031-.02.06-.033.086-.037.027-.005.048-.008.064-.008.022 0 .044.003.066.008.002-.063.007-.129.015-.197.005-.047.03-.07.074-.07.047 0 .083.006.108.02.022.011.035.025.04.04.006.016.008.031.008.046 0 .006 0 .012-.001.019-.009.09-.014.177-.014.259 0 .093.008.19.023.291.001.007.002.014.002.02 0 .012-.003.023-.007.032-.012.025-.036.038-.073.038zm-.235-.203c.024 0 .047-.005.068-.014-.003-.036-.006-.071-.007-.106-.02-.013-.043-.019-.069-.019-.029 0-.053.008-.07.024-.011.01-.017.025-.017.042 0 .021.006.036.017.047s.024.018.039.022c.014.003.027.004.039.004z" fill="#d2574a" transform="matrix(8.957808 0 0 8.957808 139.9379872636 133.362943522)"/><path d="m.262-.354.185-.018c-.01-.017-.023-.031-.039-.039-.016-.009-.033-.013-.05-.013-.021 0-.04.006-.058.018-.019.011-.031.029-.038.052zm.088.365c-.063 0-.119-.012-.169-.035s-.089-.058-.118-.103c-.028-.045-.042-.101-.042-.167 0-.058.012-.11.037-.157s.06-.085.105-.112.098-.041.157-.041c.057 0 .109.013.153.038.045.026.078.059.1.101.022.041.033.086.033.134 0 .008 0 .015-.001.023-.001.021-.009.038-.022.052-.014.013-.031.021-.052.023l-.272.022c.013.04.044.06.091.06.03 0 .059-.008.087-.023.013-.008.027-.012.041-.012.03 0 .053.014.069.041.008.013.012.027.012.041 0 .03-.014.052-.041.068-.053.031-.109.047-.168.047z" fill="#d2574a" transform="matrix(8.957808 0 0 8.957808 145.3223017072 133.362943522)"/><path d="m.297.046c-.1 0-.169-.032-.206-.096-.018-.032-.032-.076-.04-.13-.01-.072-.016-.185-.016-.34 0-.043 0-.088.001-.137 0-.027.008-.046.023-.058.015-.011.032-.017.053-.017.052 0 .088.006.11.017.022.012.034.026.038.041.004.016.006.031.006.046 0 .012-.002.044-.007.096-.007.088-.011.159-.011.215 0 .135.022.203.065.203h.007c.019 0 .034.008.046.025.012.016.018.035.018.055 0 .025-.009.045-.027.06-.017.014-.037.02-.06.02z" fill="#d2574a" transform="matrix(8.957808 0 0 8.957808 150.9209317072 133.362943522)"/><path d="m.352.02c-.06 0-.115-.013-.166-.038s-.092-.062-.122-.11c-.031-.049-.047-.108-.047-.178 0-.055.013-.102.039-.141s.061-.069.104-.09c.044-.021.092-.032.144-.032.072 0 .145.026.219.077.019.013.03.026.033.04.002.013.004.022.004.027 0 .015-.005.03-.015.045-.013.019-.026.029-.04.032-.013.002-.022.004-.027.004-.016 0-.031-.005-.045-.014-.017-.011-.031-.017-.043-.018s-.02-.001-.024-.001c-.041 0-.074.015-.097.045-.013.016-.02.036-.02.061 0 .027.006.05.018.069s.027.033.046.042.038.014.058.014c.027 0 .054-.007.079-.021.013-.006.026-.01.039-.01.007 0 .015.001.023.004.021.006.037.019.048.039.006.012.01.025.01.038 0 .008-.001.015-.004.023-.005.021-.018.036-.038.047-.056.03-.115.046-.176.046z" fill="#d2574a" transform="matrix(8.957808 0 0 8.957808 156.2832995212 133.362943522)"/><path d="m.216.012c-.07 0-.117-.017-.14-.052-.018-.028-.03-.099-.036-.215-.002-.04-.003-.07-.003-.091 0-.04.002-.081.006-.124.003-.025.011-.044.025-.055.013-.011.03-.016.049-.016.032 0 .055.003.069.01s.03.018.047.033c.03-.019.063-.028.099-.028.05 0 .09.02.121.061.024.034.041.077.05.132.001.004.001.008.001.012 0 .018-.005.034-.015.048-.017.023-.038.034-.066.034-.017 0-.033-.005-.048-.015-.017-.013-.028-.031-.032-.053-.006-.035-.016-.053-.029-.053s-.022.007-.029.022c-.006.015-.01.031-.011.047-.001.017-.002.032-.002.044 0 .045.005.098.014.159.001.012.002.021.002.027 0 .022-.006.039-.017.051-.015.015-.033.022-.055.022z" fill="#d2574a" transform="matrix(8.957808 0 0 8.957808 161.4708407824 133.362943522)"/><path d="m.482.03c-.044 0-.076-.005-.093-.016s-.03-.026-.038-.044c-.039.014-.078.021-.117.021-.074 0-.133-.022-.178-.066-.031-.03-.046-.068-.046-.114 0-.048.015-.086.045-.114.054-.049.14-.073.259-.073-.003-.025-.01-.047-.022-.067-.012-.019-.024-.029-.036-.029s-.021.002-.029.007c-.007.004-.014.011-.02.021-.012.019-.025.031-.04.035-.014.005-.025.007-.033.007-.013 0-.025-.003-.037-.01-.02-.01-.032-.021-.036-.034-.003-.013-.005-.023-.005-.03 0-.013.004-.026.011-.039.022-.035.049-.063.083-.082.035-.019.073-.029.116-.029.052 0 .095.009.13.028.035.018.064.043.086.075s.039.067.05.107c.012.04.02.081.024.123s.007.083.007.122c0 .048-.001.089-.003.126-.001.027-.009.046-.024.058-.015.011-.033.017-.054.017zm-.238-.189c.035 0 .065-.006.089-.02l-.003-.051c-.018-.008-.041-.012-.069-.012-.019 0-.039.004-.059.012-.02.007-.03.02-.03.036 0 .013.007.022.022.027.014.006.03.008.05.008zm-.012-.493c-.01 0-.015-.003-.015-.008-.001-.005-.001-.007-.001-.008 0-.017.008-.039.025-.068.007-.013.015-.023.022-.033l.037-.046c.014-.017.027-.026.038-.028.011-.001.019-.002.023-.002.014 0 .026.004.037.01.014.008.022.016.023.025.002.008.002.014.002.016 0 .013-.007.027-.023.042-.035.031-.069.058-.102.079-.022.014-.044.021-.066.021z" fill="#d2574a" transform="matrix(8.957808 0 0 8.957808 165.8797245832 133.362943522)"/><path d="m.507.013c-.048 0-.083-.006-.105-.018-.023-.012-.037-.026-.042-.042-.006-.017-.008-.033-.008-.05v-.01c.002-.051.003-.093.003-.127 0-.099-.011-.149-.035-.149-.014 0-.026.023-.035.069s-.014.09-.014.132c0 .032.002.068.006.11v.01c0 .023-.006.039-.018.05-.015.013-.035.02-.058.02-.045 0-.077-.004-.098-.014-.022-.009-.036-.022-.043-.039-.008-.017-.013-.036-.015-.057-.005-.055-.008-.108-.008-.161 0-.081.002-.154.007-.217.002-.027.01-.045.024-.057.015-.012.031-.018.049-.018.033 0 .057.004.072.01.015.007.026.014.032.023.044-.052.093-.078.147-.078.065 0 .115.036.152.107.043.086.064.205.064.358 0 .029 0 .053-.001.073-.002.026-.01.045-.025.057-.014.012-.031.018-.051.018z" fill="#d2574a" transform="matrix(8.957808 0 0 8.957808 171.1896892204 133.362943522)"/><path d="m.262-.354.185-.018c-.01-.017-.023-.031-.039-.039-.016-.009-.033-.013-.05-.013-.021 0-.04.006-.058.018-.019.011-.031.029-.038.052zm.088.365c-.063 0-.119-.012-.169-.035s-.089-.058-.118-.103c-.028-.045-.042-.101-.042-.167 0-.058.012-.11.037-.157s.06-.085.105-.112.098-.041.157-.041c.057 0 .109.013.153.038.045.026.078.059.1.101.022.041.033.086.033.134 0 .008 0 .015-.001.023-.001.021-.009.038-.022.052-.014.013-.031.021-.052.023l-.272.022c.013.04.044.06.091.06.03 0 .059-.008.087-.023.013-.008.027-.012.041-.012.03 0 .053.014.069.041.008.013.012.027.012.041 0 .03-.014.052-.041.068-.053.031-.109.047-.168.047z" fill="#d2574a" transform="matrix(8.957808 0 0 8.957808 176.6789593144 133.362943522)"/><path d="m.286.026c-.043 0-.081-.009-.113-.027-.033-.019-.06-.043-.082-.074s-.039-.065-.05-.104c-.012-.038-.018-.068-.018-.089s0-.032 0-.033c0-.086.022-.159.065-.22.048-.067.115-.101.201-.101.083 0 .148.034.192.101.038.057.057.126.057.208 0 .047-.006.092-.019.134-.025.083-.067.142-.127.178-.031.018-.066.027-.106.027zm.025-.165c.014 0 .026-.01.036-.03s.017-.044.022-.071c.005-.028.007-.054.007-.08 0-.035-.003-.062-.011-.083-.007-.02-.018-.031-.032-.031-.016 0-.03.008-.041.022s-.019.032-.024.055c-.008.027-.011.056-.011.086 0 .047.007.084.023.11.008.015.018.022.031.022z" fill="#d2574a" transform="matrix(8.957808 0 0 8.957808 182.373811102 133.362943522)"/></g></svg>