<svg clip-rule="evenodd" fill-rule="evenodd" stroke-linejoin="round" stroke-miterlimit="2" viewBox="0 0 212 212" xmlns="http://www.w3.org/2000/svg"><g fill-rule="nonzero" transform="translate(11.427)"><path d="m53.67 30.45c.26.74.19 1.51.34 2.27.12.6.33 1.08.74 1.53.75.83 2.35 1.95 3.42 1.18.02-.02.04-.04.05-.05.33-.05.6-.48.29-.8-.3-.31.15-.83.25-1.18.13-.46-.01-.73-.06-1.2-.1-.88.45-1.66.15-2.55-.08-.24-.31-.32-.5-.27l-.53-.36c-.57-1.16-1.89-2.74-3.32-2.14-.92.39-1.66 1.51-1.34 2.49.13.38.38.7.51 1.08z" fill="#c96"/><path d="m54.44 28.16c.89-.86 2.34.66 3.05 1.28.15.13.32.06.39-.08l.25.17c-.07.09-.1.2-.06.34.18.63-.18 1.15-.27 1.75-.1.65.17 1.14-.03 1.8-.14.47-.32.88-.22 1.28-1.02.02-2.04-1.03-2.34-1.83-.32-.84-.26-1.67-.5-2.52-.19-.64-.9-1.58-.27-2.19z" fill="#c96"/><path d="m70.94 26.53c.46 1.28-.59 2.76-.56 4.08.01.21.15.31.31.32.18.61.58 1.08 1.07 1.53.02.02.84.65.85.67 1.55 2.16.36.86.14 1.75-.1.4-.26.65-.08 1.07.44 1.03 1.42 1.29.66 2.73-.81-.09-1.67-.03-2.52.05-.02 0-.05 0-.07.01-.44.05-.88.09-1.3.12-.49.04-.51.78 0 .78.6 0 1.25.04 1.89.05.16.03.31.06.48.09.43.06 1.29.16 1.1.8-.1.34-.46.63-.65.92-.13.2-.2.42-.25.64h-.01c-.47-.15-.97-.08-1.45-.1-.38.02-.77-.02-1.14-.1-.56-.14-.79-.44-.7-.9-.37-.69-.61-1.54-1.01-2.19-.45-.72-1.33-1.08-2.08-1.47v-.01c-.39-1.03-.85-2.14-1.77-2.82-.77-.58-1.39-1.11-1.88-1.98-.43-.77-.33.22-.42-.75-.04-.49.42-1.11.44-1.64.02-.57-.1-1.04-.4-1.44.29-.42.42-.85.58-1.38.16-.55 0-.45.45-1 .48-.58.71-.46 1.36-.6.57-.12.9-.3 1.28-.73.65-.72 1.17-1.13 2.04-1.09.12.17.35.28.6.15.04-.02.09-.05.13-.07.1-.01.17-.06.22-.13.03-.02.06-.04.1-.07.81.87 2.16 1.53 2.59 2.71z" fill="#c96"/><path d="m42.65 34.8c.08-.13.15-.25.21-.39.1-.19.04-.38-.08-.5.04-.09.02-.21-.09-.27-.92-.61.57-1.33.8-1.64.2-.25.65-1.1.61-1.49-.04-.38-.31-.63-.63-.8-.58-.3-.76.12-.54-.73.19-.73.55-.73 1.12-1.14.1-.07.13-.19.14-.31.03-.06.05-.12.04-.19-.1-.49-.31-.71.24-1.3.14-.15.43-.18.58-.36.28-.35.2-1.38.5-1.55.43-.25.14-.98-.34-.81-.55-.19-.62-.4-.2-.62.25-.21.52-.39.81-.54.39-.2.81-.3 1.21-.47.18.09.42-.1.39-.33.14-1.18.68-1.77 1.64-1.77.35-.04.64-.48.32-.77-.35-.32 2-1.08 2.18-1.19.86-.51 1.24-1.53 2.4-.53.28.25.62.09.73-.17.35-.34.4-.65.63-1.12.14-.3-.27-.63.56-.45.31.07.85.76 1.1.98.24.22.6.12.7-.19.26-.76 1.27.39 1.27.39-.13.29.08.54.39.5.04 0 .07-.01.11-.01.19-.03.27-.23.29-.39v-.03c.39-.17.82-.39 1.2-.43.85-.09.67.42 1.02.82.68.76 2.2-.27 2.32 1.25.03.35.44.45.65.29.04.04.08.07.13.09.51.21 1.05.14 1.42.62.32.41.16.88.36 1.31.12.27.34.37.56.52.41.28.75.36.81.93.05.51-.2.86-.59 1.15-.54-.13-1.08-.09-1.62.12-1.13.44-1.48 1.51-2.77 1.71-2.06.32-1.73 1.67-2.31 3.27-.16.03-.27.18-.18.37.01.03.02.05.03.08 0 .11.05.22.12.3.5 1.42-.48 2.16-.31 3.53.03.21.12.34.32.42.54.22.76 1.3 1.23 1.74.57.53.56-.03 1.44.85.59.59.88 1.45 1.2 2.2.01.02.02.03.03.04.01.12.07.23.21.32.77.48 1.53.7 1.84 1.62.07.19.05.41.14.6.14.29.36.32.51.58.21.37.11.71.29 1.04.97 1.79 3.81.25 4.61 1.79.01.03.03.04.05.06-.01.04-.02.08-.02.13.01.42-.83.91-1.11 1.27-.11.14-.06.38-.14.51-.41.67-.9.81-1.59.83-.51.02-.89.12-1.38.26-.42.12-1 .43-1.46.23-.27-.12-.7-.63-.92-.83-.26-.23-.59-.12-.75.1-.78.07-1.5.18-2.23-.22-.52-.28-.97-.68-1.5-.95-.38-.2-.83-.21-1.2-.39-.84-.4-1.32-1.51-1.8-2.26-.1-.16-.25-.21-.4-.21-.5-.61-1.11-1.01-1.79-1.43-.48-.29-.7-.66-.99-1.14-.14-.24-.13-.47-.45-.62-.25-.12-.45.07-.69.01-.56-.15-.73-.72-1.06-1.17-.63-.86-1.71-.63-2.25-1.49-.01-.02-.02-.03-.04-.05-.1-.15-.25-.2-.4-.19-.61-.31-1.19-1-1.82-1-.84 0-.67.97-1.87.44-.19-.09-.3-.41-.63-.5-.39-.1-.93.07-1.35.06-.68-.05-1.32-.19-1.96-.39z" fill="#4f3420"/><path d="m34.53 168.6c-4.09 4.15-7.82 7.73-12.55 11.13-.02.02-.03.04-.05.05-.01.01-.03.01-.04.02-2.09 1.85-1.82 3.87-1.73 6.47.05 1.28-.15 2.54-.01 3.82.24 2.06.92 3.87.96 5.97v.02c.08.67.31 1.24.93 1.56.45.24.89.36 1.24.67-.23 0-.44.01-.62.03-.49.06-.52.8 0 .79.46-.01 1.73-.15 2.02.3.77 1.2-.94 1.35-1.47 1.32-.77-.05-1.5-.15-2.28-.12-1.92.09-4.19.46-4.82-1.77.04-.06.07-.13.08-.21.31-3.3-.37-6.2-1.9-9.14-.91-1.73-2.74-3.39-3.42-5.17-2.12-5.5 1.42-6.62 4.56-8.74 5.6-3.78 7.43-10.19 11.11-15.56 1.79-2.62 3.39-4.26 6.36-5.37.73-.27 2.15-.45 2.72-1.04 1.27-1.29 1.35-3.98 1.26-5.63-.36-6.64-4.43-12.49-2.8-19.16 1.99 2.77 4.2 5.42 5.69 8.69 2.09 4.57 3.95 9.28 5.1 14.19.8 3.42.85 6.49.5 9.58-4.35 1.27-7.67 4.08-10.84 7.3z" fill="#c96"/><path d="m58.93 147.17c.17 6.04 2.16 12.98-2.35 17.79-.1.11-.11.23-.06.33-.04.04-.07.09-.09.16-1.1 4.94-2.08 9.91-3.01 14.88-.66 3.52-2.48 8.18-1.96 11.77.98 6.79 11.14 6.77 15.73 9.1.15.08.29.08.42.03.3.23.73.35 1.05.37.63.03 1.5-.38 2.09-.13 1.28.56.15 1.2-.26 1.36-.38.15-.74.23-1.15.16-.22-.04-.46.1-.56.3-1.94 1.47-4.96.86-7.2.6-2.4-.27-4.61-.78-7.01-.55-2.34-.3-4.79.42-7.12.66-1.31.13-2.97.33-4.18-.34-2.56-1.43-.9-4.81-.41-6.95.8-4.24.74-8.18.51-12.47-.27-5.01.43-9.82 1.53-14.7.98-4.34 2.45-8.26 1.96-12.74-.4-3.59-1.29-7.12-2.42-10.54-1.14-3.45-2.57-6.8-4.1-10.09-1.52-3.27-3.9-5.56-5.97-8.31.04-.11.06-.22.1-.33.08-.22-.26-.36-.37-.16-.01.02-.02.05-.03.07-.34-.47-.67-.95-.98-1.45-5.01-8.09-1.55-16.77.91-25 .74 2.82 1.7 5.47 3.27 8.12 2.37 4.02 5.95 7.22 8.16 11.29.1.18.24.26.4.27.63 3.91-1.03 11.98 4.38 12.08 1.38.03 2.71-.3 4.01-.68.73-.21.82-.27 1.64-.38.22-.03.49.12.74.04 1.04-.35 1.52-1.43 1.85-2.56.01 6.01.31 12.01.48 18z" fill="#c96"/><path d="m58.7 100.34c-.21 3.43-1.43 6.8-2.27 10.14-.08-.27-.15-.55-.22-.82-.04-.14-.23-.1-.24.03-.23 2.25.36 4.23.99 6.36.59 2.01.51 4.07.91 6.07-.48-.52-.95-1.08-1.46-1.64-.89-.96-2.06-2.02-3.42-2.02 0-.05.01-.1-.01-.16-2.12-7.95-1.91-16.5-4.9-24.22-1.51-3.9-2.55-6.95-2.11-11.18.32-3.01.62-18.13 5.44-18.56.35-.03.35-.52 0-.54-3.36-.19-3.98 2.84-4.51 5.64-1.03 5.45-2.46 11.78-2.25 17.34.17 4.6 3.11 8.8 4.06 13.28 1.31 6.15 1.55 12.44 3.25 18.52.09.33.39.42.64.35 1 .58 1.93.99 2.77 1.84.74.75 1.34 1.63 2.05 2.42.94 1.04 2.15 2.07 3.57 2.25-.46.48-.94.9-1.71.73s-1.44-.65-2.14-1c-.45-.22-.77.37-.39.66.41.32.92.67 1.46.93-.29.83-.46 1.69-.76 2.52-.11.9-.62 1.38-1.53 1.47-.1-.05-.22-.07-.33-.09-.1-.23-.19-.47-.3-.7-.16-.34-.75-.1-.61.26.07.19.12.38.19.56-.52.18-1.03.38-1.56.56-.09-.17-.23-.3-.38-.41-.2-.15-.4-.36-.67-.28-.15.04-.24.18-.25.33-.01.25.2.39.36.55l.09.09c-.48.13-.97.21-1.47.23.01-.08 0-.16-.05-.24-.14-.24-.38-.45-.59-.63-.11-.1-.23-.22-.37-.27-.18-.08-.5.01-.53.24-.03.19 0 .31.14.44.08.08.17.15.25.23.04.04.08.09.12.14-4.24-.88-2.47-8.16-3.45-11.66-.01-.08-.03-.16-.07-.24l-.01-.01c-.02-.07-.04-.16-.07-.22-.04-.09-.1-.15-.17-.19-3.18-5.57-8.18-9.71-10.46-15.95-1.01-2.77-1.1-5.66-1.92-8.46-.23-.77-.57-1.4-.86-2.15-1.14-2.94-1.5-5.33-1.13-8.58.39-3.39.97-6.73 1.51-10.08.08-.1.13-.24.08-.41 0-.01-.01-.03-.01-.04.45-2.85.86-5.72 1.09-8.62.24-3.05.36-6.15 1.04-9.15 1-4.38 5.71-14.61 12.11-7.74.32.35.81-.16.52-.52-3.5-4.17-8.25-2.45-11 1.63-4.2 6.21-3.59 14.97-4.32 22.24-.95-3.71-1.62-7.44-.92-11.3.57-3.12.65-6.81 1.5-9.81 1.13-3.98 4.26-5.55 7.04-8.09 2.02-1.84 2.71-4.53 4.72-6.4.02-.02.02-.04.04-.05.28-.01.51 0 .57.04.39.25.2 1.01 1.17 1.08.25.02.51-.04.73-.15.19-.09.63-.69.75-.71.35-.05.73.43 1.09.55.18.06.32.08.45.09.1.35.24.69.54.93.44.36.9.18 1.36.48.76.5.6 1.66 1.68 1.93.42.1.47-.15.76.15.18.18.18.63.4.86.27.29.53.33.89.46.73.26 1.28.67 1.92 1.03 0 .07.02.15.07.23.3.48.63 1.25 1.05 1.83-.08.01-.16.05-.23.14-.43.53-.85 1.06-1.28 1.59-.39.48-.88.97-1.14 1.54-.2.43.27.77.63.49.17-.14.33-.3.47-.48-.58 3.32.29 6.35 1.5 9.55 2.21 5.81 3.84 10.56 1.01 16.57-.15.33.05.63.31.74.25 3.8.39 7.45-.33 11.25-.44 2.29-1.82 4.78-1.76 7.15.02 2.35 1.02 4.59.87 7.04z" fill="#c96"/><path d="m79.84 105.14c-.23.77-.61.52-1.16.16-.02-.01-.04-.02-.06-.02.05-.37.06-.74.04-1.03-.03-.57-.2-1.45-.58-2.13.03-.39.19-2.07 1.03-1.65.13.07.24.36.31.54-.01.08.02.14.07.2.24.63.36 1.32.42 1.98.05.62.11 1.34-.07 1.95z" fill="#c96"/><path d="m82.07 104.6c-.3.75-.79.54-1.36.45.16-.84.02-1.8-.11-2.56-.08-.43-.19-1.11-.42-1.69.25-.37.53-.7.97-.35.54.42.79 1.3.93 1.93.15.7.26 1.55-.01 2.22z" fill="#c96"/><path d="m83.01 99.61c.01-.01.01-.01 0 0-.03-.02.01-.02.09.04.11.09.26.3.36.46.54.9 1.03 2.41.61 3.44-.08.21-.22.38-.43.47-.22.09-.46.04-.68.03.05-.65-.06-1.33-.21-1.91-.04-.15-.09-.31-.14-.48.2-.65.04-1.5.4-2.05z" fill="#c96"/><path d="m82.09 100.07c-.02.12-.04.23-.05.35-.2-.29-.43-.53-.72-.68-.57-.3-1.13-.03-1.5.41-.11-.15-.24-.28-.39-.37.66-.05 1.28-.23 1.77-.58.23.34.57.61.89.87z" fill="#c96"/><path d="m81.56 97.91c-.14.02-.24.09-.3.17-.04.03-.08.07-.12.11-1.04 1.48-3.92.59-5-.28-.41-.33-.96.19-.59.59.61.66 1.71 1.12 2.83 1.25-.49.31-.77 1.05-.82 1.71-.2-.16-.43-.28-.69-.31-1.71-.17-1.31 3-1.17 3.87.06.35.64.27.63-.08-.03-.48-.36-3.16.56-2.99.69.13.98 1.65 1.01 2.16.03.41.06 1.13-.19 1.47-1.04 1.42-2.14-.53-2.63-1.23-.44-.64-1.1-1.05-1.56-1.7-.7-1.01-.7-1.95-.26-3.06.12-.29-.31-.41-.47-.2-.21.28-.36.58-.45.88-.04-.02-.09-.04-.15-.04-4.24-.28-8.56-.42-12.81-.26.09-1.67.06-3.4-.18-5.28-.12-.9-.08-1.81.04-2.72 4.98 1.22 10.01 1.88 14.67 4.18.26.13.51.01.63-.19 4.06-1.51 8.46.75 12.47-.8-.4 2.19-3.7 2.55-5.45 2.75z" fill="#c96"/><path d="m44.87 151.73c-1.14-4.91-3.01-9.62-5.1-14.19-1.49-3.26-3.71-5.92-5.69-8.69-1.62 6.67 2.44 12.52 2.8 19.16.09 1.66.02 4.34-1.26 5.63-.58.58-1.99.77-2.72 1.04-2.97 1.1-4.57 2.75-6.36 5.37-1.28 1.86-2.33 3.85-3.4 5.81.94-1.03 1.87-2.07 2.89-3.03 1.14-1.07 2.42-2.07 3.91-2.6.65-.23 1.36-.41 2.05-.46.37-.03.81-.02 1.11.23.57.46.14 1.38-.13 1.89-.49.94-1.16 1.79-1.84 2.6-.33.39-.68.76-1 1.15-.51.63-1.02 1.27-1.48 1.95-.34.5-.66 1.02-.9 1.57-.23.5-.39 1.03-.51 1.57-.15.65-.24 1.32-.32 1.99-.1.85-.17 1.71-.37 2.55-.09.39-.2.76-.33 1.14 2.88-2.42 5.5-4.97 8.28-7.8 3.17-3.22 6.49-6.04 10.85-7.3.37-3.09.32-6.16-.48-9.58z" fill="#4f3420" fill-opacity=".5"/><path d="m49.49 202.9c-1.23-.25-2.48-.37-3.69-.72-.6-.17-1.2-.43-1.46-1.04-.36-.81-.24-1.86-.17-2.71.27-3.67.79-7.34 1.33-10.99s1.17-7.28 1.89-10.89c.35-1.79.68-3.61 1.14-5.37.45-1.71.69-3.45.99-5.19.12-.68.32-1.36.21-2.05-.05-.32-.12-.61-.03-.94.32-1.14 1.27-1.74 2.26-2.23.51-.25 1.6-.64 1.35-1.36-.17-.49-.44-.95-.69-1.4-.78-1.43-1.6-2.83-2.3-4.3-.34-.71-.65-1.43-.89-2.18-.18-.57-.33-1.19-.27-1.79.12-1.22 1.26-1.39 2.28-1.25-.23-5.39-1.64-10.63-2.49-15.95-3.85-1.3-2.54-8.29-3.11-11.86-.15-.01-.3-.09-.4-.27-2.21-4.07-5.79-7.27-8.16-11.29-1.56-2.65-2.53-5.3-3.27-8.12-2.46 8.24-5.92 16.92-.91 25 .31.51.64.99.98 1.45.01-.02.02-.05.03-.07.11-.2.45-.06.37.16-.04.11-.06.22-.1.33 2.07 2.75 4.44 5.05 5.97 8.31 1.53 3.29 2.96 6.64 4.1 10.09 1.14 3.43 2.02 6.95 2.42 10.54.5 4.47-.97 8.4-1.96 12.74-1.11 4.88-1.8 9.69-1.53 14.7.23 4.29.28 8.23-.51 12.47-.49 2.14-2.15 5.52.41 6.95 1.2.67 2.87.47 4.18.34s2.67-.42 4.02-.59c-.66-.21-1.33-.38-1.99-.52z" fill="#4f3420" fill-opacity=".5"/><path d="m39.69 104.01c-.27-1.01-.49-2.03-.49-3.08-.01-.82.02-1.64 0-2.45-.04-1.22-.17-3.62-1.97-3.23-.05.01-.11-.01-.12-.07-.29-1.66-.99-3.23-1.24-4.9-.11-.7.11-1.39.41-2.03.4-.86.81-1.67 1.02-2.61.46-2.1.32-4.29.19-6.42-.13-2.12-.24-4.25-.1-6.38.07-1.02.22-2.03.51-3.01.27-.87.69-1.53 1.27-2.23.55-.66 1.16-1.29 1.59-2.04.22-.38.39-.8.42-1.24.03-.39-.06-.54-.37-.77-.48-.35-1.2-.64-1.5-1.18-.2-.34-.21-.86-.25-1.25-.04-.44-.02-.88-.07-1.32-.21-1.96.16-4.1 1.04-5.86.7-1.41 1.76-2.64 3.11-3.46 1.33-.81 2.87-1.17 4.42-1.2-.04-.41-.22-.77-.4-1.14-.02-.04-.01-.07.01-.1-.03-.11-.06-.21-.09-.32-6.13-5.8-10.61 3.99-11.59 8.26-.69 3-.8 6.09-1.04 9.15-.23 2.91-.64 5.77-1.09 8.62 0 .01.01.03.01.04.05.17 0 .3-.08.41-.53 3.35-1.11 6.7-1.51 10.08-.38 3.25-.02 5.64 1.13 8.58.29.75.63 1.38.86 2.15.81 2.79.9 5.69 1.92 8.46 2.08 5.69 6.42 9.64 9.58 14.52-.62-2.19-1.46-4.31-2.38-6.39-1.12-2.5-2.48-4.92-3.2-7.59z" fill="#4f3420" fill-opacity=".5"/><path d="m59.79 84.61c-.43 1.86-1.65 3.38-2.63 5-.27.45-.52.91-.72 1.4-.25.59-.39 1.18-.47 1.81-.18 1.42-.09 2.85-.01 4.28.07 1.4.18 2.86-.09 4.24-.24 1.25-.61 2.46-.88 3.7-.25 1.18-.34 2.38-.16 3.58.1.68.28 1.35.46 2.01.17.65.35 1.3.54 1.95.39 1.35.8 2.69 1.25 4.01-.04-.18-.08-.36-.14-.54-.63-2.13-1.23-4.11-.99-6.36.01-.13.2-.18.24-.03.08.27.15.55.22.82.84-3.34 2.06-6.71 2.27-10.14.15-2.45-.85-4.69-.91-7.05s1.32-4.86 1.76-7.15c.11-.51.19-1.02.26-1.53z" fill="#4f3420" fill-opacity=".5"/><path d="m45.95 82.91c-.42 3.97.48 6.91 1.84 10.48.1-.99.19-1.99.27-2.99.05-.6.11-1.21.18-1.81.07-.61.18-1.22.25-1.83.27-2.41-.22-4.84.12-7.24.13-.93.6-1.71 1.2-2.41.26-.31.54-.61.77-.94.28-.4.48-.85.67-1.31.11-.25.26-.56.26-.85 0-.15-.1-.26-.19-.38-.48-.66-.59-1.5-.63-2.29-.11-2.28.59-4.6.15-6.87-4.28 1.51-4.58 15.55-4.89 18.44z" fill="#4f3420" fill-opacity=".5"/><path d="m37.12 49.37c1.66-2.46 4.04-4.05 6.44-4.02.08-.1.15-.2.23-.3.7-.96 1.37-1.97 2.21-2.8.8-.79 1.77-1.33 2.87-1.56.31-.07.62-.1.94-.15.21-.03.42-.02.62.03.41.1.76.34 1.1.58.36.26.73.52 1.15.67.23.08.47.13.71.14.14 0 .28 0 .41-.02.15-.02.3-.08.45-.09.16-.02.32-.02.49-.06s.33-.09.48-.16c.03-.01.06-.03.09-.05-.23-.08-.43-.16-.63-.37-.21-.23-.22-.69-.4-.86-.3-.3-.35-.05-.76-.15-1.08-.27-.92-1.43-1.68-1.93-.46-.3-.91-.12-1.36-.48-.3-.24-.43-.58-.54-.93-.13 0-.27-.03-.45-.09-.36-.12-.74-.6-1.09-.55-.13.02-.57.61-.75.71-.23.11-.48.17-.73.15-.97-.07-.78-.83-1.17-1.08-.06-.04-.29-.05-.57-.04-.01.02-.02.04-.04.05-2.01 1.87-2.7 4.56-4.72 6.4-2.78 2.55-5.92 4.11-7.04 8.09-.85 3-.94 6.69-1.5 9.81-.7 3.86-.02 7.59.92 11.3.73-7.27.12-16.04 4.32-22.24z" fill="#4f3420" fill-opacity=".5"/><g fill="#222221"><path d="m44.59 35.47c-1.16 1-1.62 1.92-2.49 3.18-1.57 2.28-3.42 3.69-5.48 5.43-1.96 1.65-3.41 3.71-4.12 6.18-1.03 3.6-1.43 7.92-1.81 11.64-.43 4.13.69 8.22 1.75 12.16.16.6 1.09.34.93-.26-1.21-4.43-2.34-8.87-1.5-13.49.57-3.12.65-6.81 1.5-9.81 1.13-3.98 4.26-5.55 7.04-8.09 2.02-1.84 2.71-4.53 4.72-6.4.36-.34-.17-.86-.54-.54z"/><path d="m48.12 47.73c-3.5-4.17-8.25-2.45-11 1.63-4.43 6.55-3.5 15.94-4.46 23.42-.63 4.91-2.24 9.91-2.62 14.82-.29 3.76 2.41 6.25 3.14 9.88.85 4.2 1.88 7.92 4.08 11.65 2.37 4.02 5.95 7.22 8.16 11.29.35.64 1.32.07.97-.57-3.17-5.79-8.36-9.98-10.7-16.37-1.01-2.77-1.1-5.66-1.92-8.46-.23-.77-.57-1.4-.86-2.15-1.14-2.94-1.5-5.33-1.13-8.58.74-6.42 2.16-12.68 2.67-19.15.24-3.05.36-6.15 1.04-9.15 1-4.38 5.71-14.61 12.11-7.74.33.35.82-.16.52-.52z"/><path d="m51.4 63.8c-3.36-.19-3.98 2.84-4.51 5.64-1.03 5.45-2.46 11.78-2.25 17.34.17 4.6 3.11 8.8 4.06 13.28 1.31 6.15 1.55 12.44 3.25 18.52.18.65 1.19.38 1.02-.28-2.12-7.95-1.91-16.5-4.9-24.22-1.51-3.9-2.55-6.95-2.11-11.18.32-3.01.62-18.13 5.44-18.56.34-.02.35-.52 0-.54z"/><path d="m43.31 66.69c-1.74 2.5-4.05 3.95-6.87 4.96-.51.18-.31.95.23.82 2.98-.75 5.55-2.92 7.19-5.46.23-.35-.32-.65-.55-.32z"/><path d="m34.43 85.76c-.93 1.7-.52 3.61.07 5.36.19.55.38 1.37.87 1.76.7.55 1.9.69 2.74.91.51.13.7-.6.21-.78-.61-.22-1.61-.33-2.13-.68-.67-.45-.92-1.39-1.15-2.12-.46-1.44-.58-2.78-.11-4.23.09-.3-.36-.49-.5-.22z"/><path d="m40.07 102.46c.02 2.85.73 5.62 2.07 8.13.21.39.79.04.59-.34-1.29-2.47-1.99-5.01-2.18-7.79-.02-.3-.48-.31-.48 0z"/><path d="m45.61 119.81c1.15 3.4-1.28 12.85 4.58 12.97 1.38.03 2.71-.3 4.01-.68.73-.21.82-.27 1.64-.38.22-.03.49.12.74.04 1.78-.59 1.94-3.32 2.47-4.8.19-.53-.65-.76-.84-.23-.3.85-.47 1.73-.78 2.58-.11.9-.62 1.38-1.53 1.47-.16-.07-.33-.12-.51-.15-1.59.46-3.09 1.34-4.86 1.24-5.26-.29-2.83-8.82-4.21-12.24-.18-.44-.86-.27-.71.18z"/><path d="m52.53 118.91c1.02.59 1.97 1.01 2.82 1.87.74.75 1.34 1.63 2.05 2.42 1.1 1.21 2.54 2.41 4.27 2.28.46-.04.64-.76.12-.86-2.56-.5-3.72-2.33-5.39-4.12-.98-1.05-2.28-2.23-3.81-2-.21.02-.22.32-.06.41z"/><path d="m56.73 125.85c.82.63 2.02 1.4 3.11 1.31.97-.08 1.84-.92 2.33-1.7.28-.44-.35-.9-.71-.54-.65.64-1.17 1.49-2.21 1.27-.77-.17-1.44-.65-2.14-1-.45-.22-.77.37-.38.66z"/><path d="m54.65 130.23c.14.37.26.74.37 1.11.14.49.92.25.75-.21-.15-.39-.32-.78-.5-1.16-.17-.34-.76-.1-.62.26z"/><path d="m51.98 130.99c-.01.25.2.39.36.55.15.16.29.34.51.41.3.09.58-.21.5-.5-.06-.23-.26-.37-.44-.51-.2-.15-.4-.36-.67-.28-.16.04-.25.17-.26.33z"/><path d="m49.4 130.94c-.03.19 0 .31.14.44.08.08.17.15.25.23.16.16.29.35.45.5.34.31.89-.08.65-.5-.14-.24-.38-.45-.59-.63-.11-.1-.23-.22-.37-.27-.18-.08-.49 0-.53.23z"/><path d="m57.88 29.14c-.54-1.17-1.91-2.87-3.38-2.26-.92.39-1.66 1.51-1.34 2.49.12.38.38.7.51 1.08.26.74.19 1.51.34 2.27.12.6.33 1.08.74 1.53.75.83 2.35 1.95 3.42 1.18.37-.26.16-.89-.32-.76-1.12.29-2.33-.92-2.66-1.79-.32-.84-.26-1.67-.5-2.52-.18-.64-.88-1.59-.25-2.19.89-.86 2.34.66 3.05 1.28.21.19.51-.05.39-.31z"/><path d="m58.06 29.87c.18.63-.18 1.15-.27 1.75-.1.65.17 1.14-.03 1.8-.21.68-.5 1.24.1 1.83.43.43 1.09-.23.67-.67-.3-.31.15-.83.25-1.18.13-.46 0-.73-.06-1.2-.1-.88.45-1.66.15-2.55-.19-.49-.96-.29-.81.22z"/><path d="m55.89 29.72v-.09c-.05.08-.09.16-.14.24-.12.09-.01.23.04.4.06.23.11.47.16.7.09.48.07.95.13 1.43.07.51.73.51.8 0 .11-.86-.15-2.16-.65-2.88-.29-.42-1.04-.32-.86.27.09.29.51.23.52-.07z"/><path d="m68.07 23.28c-.68-.28-1.38-.29-2.06-.02-1.13.44-1.48 1.51-2.77 1.71-2.19.34-1.68 1.84-2.43 3.57-.15.35.28.8.59.45.45-.51.58-1 .77-1.64.16-.55 0-.45.45-1 .48-.58.71-.46 1.36-.6.57-.12.9-.3 1.28-.73.78-.87 1.38-1.3 2.61-1.02.48.11.64-.54.2-.72z"/><path d="m60.75 28.6c.86 1.69-.35 2.43-.15 3.91.03.21.12.34.32.42.54.22.76 1.3 1.23 1.74.57.53.56-.03 1.44.85.59.59.88 1.45 1.2 2.2.2.47 1.01.13.83-.35-.39-1.03-.85-2.14-1.77-2.82-.77-.58-1.39-1.11-1.88-1.98-.43-.77-.33.22-.42-.75-.04-.49.42-1.11.44-1.64.03-.79-.21-1.4-.83-1.89-.22-.18-.55.03-.41.31z"/><path d="m65.03 38.08c.77.48 1.53.7 1.84 1.62.07.19.05.41.14.6.14.29.36.32.51.58.21.37.11.71.29 1.04.97 1.79 3.81.25 4.61 1.79.24.47 1.02.15.86-.36-.21-.63-.61-1.01-1.25-1.21-.47-.15-.97-.08-1.45-.1-.38.02-.77-.02-1.14-.1-.56-.14-.79-.44-.7-.9-.37-.69-.61-1.54-1.01-2.19-.47-.77-1.45-1.12-2.22-1.54-.54-.27-.97.47-.48.77z"/><path d="m72.43 43.9c.01.42-.83.91-1.11 1.27-.11.14-.06.38-.14.51-.41.67-.9.81-1.59.83-.51.02-.89.12-1.38.26-.42.12-1 .43-1.46.23-.27-.12-.7-.63-.92-.83-.47-.42-1.17.28-.7.7.6.53 1.28 1.4 2.16 1.35.76-.04 1.35-.66 2.13-.73.6-.06 1.22.06 1.79-.18.79-.33.66-.86 1.03-1.47.44-.73 1.13-.88 1.09-1.94-.03-.57-.91-.58-.9 0z"/><path d="m65.31 46.25c-.87.06-1.66.24-2.47-.2-.52-.28-.97-.68-1.5-.95-.38-.2-.83-.21-1.2-.39-.84-.4-1.32-1.51-1.8-2.26-.32-.5-1.11-.04-.79.46.44.7.94 2.02 1.67 2.49.62.4 1.47.37 2.16.79 1.31.81 2.63 1.53 4.04.5.18-.12.15-.45-.11-.44z"/><path d="m58.22 42.59c-.54-.83-1.25-1.28-2.06-1.78-.48-.29-.7-.66-.99-1.14-.14-.24-.13-.47-.44-.62-.25-.12-.45.07-.69.01-.56-.15-.73-.72-1.06-1.17-.63-.87-1.74-.62-2.27-1.52-.26-.43-.94-.15-.81.34.11.41.24.79.58 1.07.44.36.9.18 1.36.48.76.5.6 1.66 1.68 1.93.42.1.47-.15.76.15.18.18.18.63.4.86.27.29.53.33.89.46.88.31 1.5.85 2.33 1.26.2.1.46-.11.32-.33z"/><path d="m50.6 36.28c-.72-.18-1.39-1.12-2.12-1.12-.84 0-.67.97-1.87.44-.19-.09-.3-.41-.63-.5-.39-.1-.93.07-1.35.06-.93-.03-1.76-.26-2.61-.59.1.24.19.48.29.72.23-.27.41-.56.56-.88.22-.41-.32-.86-.66-.51-.35.37-.44.48-.74.89-.2.28.03.62.29.72.57.22 1.14.4 1.75.49.42.07 2.04-.14 2.23-.01.39.25.2 1.01 1.17 1.08.25.02.51-.04.73-.15.19-.09.63-.69.75-.71.35-.05.73.43 1.09.55.45.15.67.1 1.11-.02.23-.07.24-.4.01-.46z"/><path d="m42.7 33.63c-.92-.61.57-1.33.8-1.64.2-.25.65-1.1.61-1.49-.04-.38-.31-.63-.63-.8-.58-.3-.76.12-.54-.73.19-.73.55-.73 1.12-1.14.24-.17.19-.65-.17-.62-.87.08-1.84.63-2.2 1.47-.17.39-.2.83.06 1.2.26.36.65.29.97.51 1.06.74-1.02 1.49-1.27 2.19-.28.82.28 1.52 1.11 1.48.25-.02.33-.3.14-.43z"/><path d="m44.24 27.34c-.1-.49-.31-.71.24-1.3.14-.15.43-.18.58-.36.28-.35.2-1.38.5-1.55.43-.25.14-.98-.34-.81-.55-.19-.62-.4-.2-.62.25-.21.52-.39.81-.54.43-.22.89-.32 1.32-.51.32-.15.13-.58-.16-.61-1.11-.08-2.91.85-3.34 1.94-.49 1.26.94 1.5 1.81 1.2-.11-.27-.23-.54-.34-.81-.48.27-.75.65-.81 1.21-.02.15.1.43.01.59-.12.2-.64.29-.83.51-.53.61-.44 1.97.53 1.98.16-.01.26-.17.22-.32z"/><path d="m47.43 21.35c.14-1.18.68-1.77 1.64-1.77.35-.04.64-.48.32-.77-.35-.32 2-1.08 2.18-1.19.86-.51 1.24-1.53 2.4-.53.44.38 1.02-.2.64-.64-.48-.55-1.15-.81-1.88-.72-.96.11-1.3.86-2.11 1.21-.73.33-3.6 1.55-1.77 2.57.04-.27.07-.55.11-.82-1.35.41-2.88 1.23-2.04 2.87.15.31.55.08.51-.21z"/><path d="m54.56 17.06c.51-.4.52-.73.77-1.26.14-.3-.27-.63.56-.45.31.07.85.76 1.1.98.24.22.6.12.7-.19.26-.76 1.27.39 1.27.39-.13.29.08.54.39.5.04 0 .07-.01.11-.01.19-.03.27-.23.29-.39.09-.65-.77-1.38-1.34-1.53-.68-.18-1.33.16-1.52.82.23-.06.47-.12.7-.19-.58-.5-1.46-1.62-2.35-1.41-.29.07-.5.28-.6.55-.25.67.17 1.19-.45 1.81-.25.25.11.58.37.38z"/><path d="m59.48 16.71c.44-.17 1-.5 1.47-.55.85-.09.67.42 1.02.82.68.76 2.2-.27 2.32 1.25.04.49.81.49.77 0-.05-.57-.26-1.07-.75-1.41-.55-.39-1.54-.07-1.87-.57-.27-.41-.26-.78-.85-.89-.74-.13-1.64.44-2.3.7-.39.16-.22.81.19.65z"/><path d="m65.06 18.61c.51.21 1.05.14 1.42.62.32.41.16.88.36 1.31.12.27.34.37.56.52.41.28.75.36.81.93.06.6-.28.98-.79 1.29s-.06 1.06.47.8c.82-.41 1.41-1.04 1.38-2.02-.01-.4-.14-.76-.37-1.08-.28-.4-.7-.46-1.01-.77-.25-.25-.18-.74-.31-1.06-.14-.34-.36-.63-.64-.86-.57-.47-1.44-.77-2.03-.23-.19.19-.06.46.15.55z"/><path d="m68.31 23.77c.81.9 2.2 1.56 2.64 2.76.46 1.28-.59 2.76-.56 4.08.01.36.44.43.64.17.73-.96 1.39-3.38.91-4.58-.44-1.1-2.21-2.68-3.39-2.86-.24-.02-.42.23-.24.43z"/><path d="m70.63 30.71c.14.73.59 1.25 1.13 1.76.02.02.84.65.85.67 1.55 2.16.36.86.14 1.75-.1.4-.26.65-.08 1.07.45 1.06 1.49 1.29.61 2.84-.2.34.19.72.53.53.68-.38.98-1.05.9-1.85-.04-.41-.2-.79-.41-1.13-.37-.59-.54-.73-.28-1.5.25-.74.55-1.09-.02-1.82-.32-.4-.84-.65-1.24-.96-.63-.49-1.04-1.14-1.66-1.62-.22-.18-.52-.03-.47.26z"/><path d="m69.45 39.65c1.33.01 2.9.18 4.2-.13.38-.09.42-.74 0-.81-1.32-.22-2.87.06-4.2.16-.5.03-.51.77 0 .78z"/><path d="m71.13 39.34c.01-.02.02-.04.03-.06.05-.09.05-.24-.04-.31-.02-.01-.03-.02-.05-.03-.28-.57-1.09.23-.52.52.41.2.81.27 1.26.34.43.06 1.29.16 1.1.8-.1.34-.46.63-.65.92-.19.3-.29.6-.31.96-.03.63.97.63.98 0 .01-.49.49-.86.72-1.26.22-.4.32-.85.14-1.29-.51-1.22-1.98-.8-2.95-1.16.09.12.19.24.28.37v-.03c-.12.09-.23.18-.35.27.04.02.07.03.11.05.09.02.21 0 .25-.09z"/><path d="m69.45 35.81c-1.15.47-2.15 1.37-2.56 2.57-.14.39.5.67.68.29.48-1.01 1.09-1.82 2.09-2.37.24-.15.07-.6-.21-.49z"/><path d="m70.7 34.29c.15.4.47.66.87.8.36.12.96.22 1.23-.12.17-.21.13-.54-.16-.62-.27-.08-.55.06-.82 0-.27-.05-.5-.22-.71-.38-.2-.13-.49.1-.41.32z"/><path d="m65.34 30.7c1.23-1.72 2.68-2.79 4.75-3.28.46-.11.26-.78-.19-.7-2.09.36-4.16 1.75-5.17 3.63-.21.4.35.71.61.35z"/><path d="m69.27 28.41c-.49.14-.61.59-.88.97-.34.49-.83.75-1.39.91-.55.15-.31.95.23.84.51-.1.98-.37 1.36-.71.18-.16.34-.36.48-.56.09-.13.24-.63.41-.68.49-.16.29-.91-.21-.77z"/><path d="m68.64 29.75c-.12.41-.06.87.19 1.21.11.15.28.24.47.19.18-.05.31-.22.31-.4 0-.28-.08-.55-.22-.79-.12-.2-.39-.28-.6-.16-.19.11-.29.4-.16.6.08.11.13.22.14.35.24-.1.47-.2.71-.29-.11-.14-.12-.34-.07-.5.13-.5-.62-.7-.77-.21z"/><path d="m52.2 42.7c.22-.38.45-.76.71-1.11s.65-.63.85-1c.16-.29-.16-.59-.44-.44-.39.2-.7.69-.95 1.05-.29.41-.5.83-.67 1.3-.1.29.35.47.5.2z"/><path d="m58.38 44.89c-.43.53-.85 1.06-1.28 1.59-.39.48-.88.97-1.14 1.54-.2.43.27.77.63.49.49-.38.85-.98 1.23-1.48.39-.51.79-1.02 1.18-1.53.34-.43-.27-1.05-.62-.61z"/><path d="m57.24 47.15c-.93 3.67.01 6.95 1.33 10.43 2.21 5.81 3.84 10.56 1.01 16.57-.28.6.61 1.12.89.52 1.62-3.45 2.38-6.67 1.53-10.46-1.34-5.95-4.73-10.6-4.08-16.98.03-.38-.59-.45-.68-.08z"/><path d="m59.85 74.44c.27 3.97.45 7.75-.31 11.7-.44 2.29-1.82 4.78-1.76 7.15.06 2.36 1.06 4.6.91 7.05-.24 3.83-1.73 7.59-2.56 11.31-.15.69.9.98 1.06.29 1.37-6.2 2.82-10.91 1.99-17.23-.44-3.35 1.24-6.87 1.67-10.24.44-3.42.35-6.76-.41-10.12-.06-.33-.61-.26-.59.09z"/><path d="m55.96 109.7c-.23 2.25.36 4.23.99 6.36.68 2.3.47 4.67 1.12 6.93.17.59 1 .33.9-.25-.38-2.26-.25-4.29-.93-6.53-.66-2.18-1.22-4.36-1.83-6.55-.05-.14-.24-.1-.25.04z"/><path d="m57.49 128.28c.01-1.01-.08-2.2-.49-3.13-.25-.56-.75-1.25-1.43-1.12-.16.03-.2.25-.09.35.5.48.62 1.24.8 1.89.2.7.35 1.42.63 2.1.12.29.58.27.58-.09z"/><path d="m41.82 196.44c-.48 2.11-1.69 4.38-.65 6.5.58 1.18 1.68 1.78 2.92 2.04 3.48.7 7.16-.96 10.64-1.07.28-.01.37-.47.07-.52-2.42-.39-4.95.39-7.36.63-1.31.13-2.97.33-4.18-.34-2.56-1.43-.9-4.81-.41-6.95.16-.68-.88-.97-1.03-.29z"/><path d="m33.97 99.6c-2.96 5.99-5.29 13.28-4.18 20.03 1.2 7.33 7.02 11.42 9.99 17.91 2.09 4.57 3.95 9.28 5.1 14.19 1.39 5.95.56 10.82-.8 16.62-.93 3.98-1.77 8.02-1.88 12.13-.14 5.48.66 10.47-.37 15.96-.13.68.91.97 1.04.29.8-4.24.74-8.18.51-12.47-.27-5.01.43-9.82 1.53-14.7.98-4.34 2.45-8.26 1.96-12.74-.4-3.59-1.29-7.12-2.42-10.54-1.14-3.45-2.57-6.8-4.1-10.08-1.85-3.97-4.98-6.5-7.26-10.18-5.26-8.49-1.18-17.65 1.27-26.25.06-.23-.28-.38-.39-.17z"/><path d="m54.21 203.89c4.21.25 11.4 3.12 15.15.17.43-.34-.15-1.1-.59-.76-1.94 1.47-4.96.86-7.2.61-2.52-.28-4.82-.84-7.36-.52-.32.04-.33.48 0 .5z"/><path d="m56.43 165.45c-1.1 4.94-2.08 9.91-3.01 14.88-.66 3.52-2.48 8.18-1.96 11.77.98 6.79 11.14 6.77 15.73 9.1.62.32 1.17-.61.55-.93-6.63-3.42-16.54-2.38-14.62-13.01 1.3-7.21 2.65-14.42 4-21.62.08-.44-.59-.64-.69-.19z"/><path d="m67.34 200.41c-.32.77.72 1.18 1.31 1.2.63.03 1.5-.38 2.09-.13 1.28.56.15 1.2-.26 1.36-.38.15-.74.23-1.15.16s-.87.46-.46.79c1.18.94 3.73-.39 3.44-1.97-.15-.82-.91-1.33-1.7-1.41-.64-.06-1.21.19-1.84.22-.48.02-.83-.21-1.27-.32-.07-.01-.13.03-.16.1z"/><path d="m45.96 190.5c-.43 1.81-1.04 3.66-1.28 5.5-.2 1.56.52 1.62 1.33 2.69.29.39.93.05.67-.39-.28-.48-.31-.31-.66-.71-.76-.85-.6-1.6-.42-2.71.23-1.43.53-2.84.8-4.26.04-.28-.37-.41-.44-.12z"/><path d="m53.67 161.52c.2.76.32 1.54.38 2.32.03.37.61.38.58 0-.05-.84-.22-1.66-.46-2.46-.09-.32-.59-.18-.5.14z"/><path d="m48.29 167.9c-.66 2.77-1.5 5.48-2.46 8.17-.15.41.51.59.65.18.95-2.68 1.68-5.43 2.26-8.22.07-.3-.38-.42-.45-.13z"/><path d="m58.42 127.62c-.03 6.52.33 13.04.51 19.55.17 6.04 2.16 12.98-2.35 17.79-.27.29.14.7.44.44 4.29-3.75 3.46-7.5 3.08-12.64-.62-8.36-.31-16.78-1.02-25.14-.04-.42-.66-.44-.66 0z"/><path d="m53.61 158.05c.62-.74 1.19-1.45 1.93-2.09.73-.63 1.49-1.23 2.13-1.95.25-.29-.15-.7-.43-.43-1.31 1.31-3.31 2.47-4.03 4.24-.09.21.25.4.4.23z"/><path d="m50.46 139.1c.8 3.7 1.58 7.42 2.42 11.11.08.35.62.2.54-.15-.82-3.7-1.72-7.38-2.58-11.07-.05-.25-.44-.14-.38.11z"/><path d="m34.1 127.39c-3.03 5.73-.07 11.45 1.23 17.25.43 1.91 1.09 4.59.33 6.51-.94 2.36-3.07 2.37-5 3.31-2.73 1.32-4.59 4.37-6.1 6.9-2.14 3.6-3.7 7.73-6.57 10.86-2.28 2.48-6.03 3.63-7.94 6.51-1 1.51-1.21 3.05-.59 4.75.76 2.1 2.64 3.86 3.71 5.8 1.66 3.03 2.44 5.9 2.19 9.37-.04.55.8.54.85 0 .31-3.3-.37-6.2-1.9-9.14-.91-1.73-2.74-3.39-3.42-5.17-2.12-5.5 1.42-6.62 4.56-8.74 5.6-3.78 7.43-10.19 11.11-15.56 1.79-2.62 3.39-4.26 6.36-5.37.73-.27 2.15-.45 2.72-1.04 1.27-1.29 1.35-3.98 1.26-5.63-.39-7.07-4.97-13.24-2.41-20.47.06-.2-.28-.34-.39-.14z"/><path d="m15.31 198.87c.72 3.91 5.03 2.27 7.8 2.79 1.03.2 2.81-.43 2.78-1.76-.03-1.49-2.17-1.68-3.22-1.55-.49.06-.52.8 0 .79.46-.01 1.73-.15 2.02.3.77 1.2-.94 1.35-1.47 1.32-.77-.05-1.5-.15-2.28-.12-1.98.09-4.34.49-4.88-1.98-.11-.48-.84-.27-.75.21z"/><path d="m22.16 199.03c.02 0 .02-.03 0-.03-.01 0-.01.03 0 .03z"/><path d="m22.44 180.52c3.69-2.67 6.92-5.15 10.13-8.48 4.01-4.17 7.96-8.54 13.78-9.99.62-.15.36-1.11-.26-.96-4.73 1.14-8.22 4.11-11.56 7.51-4.09 4.15-7.82 7.73-12.55 11.13-.47.34-.01 1.13.46.79z"/><path d="m21.94 196.09c-.02-2.43-.95-4.68-1.01-7.11-.06-2.73-.57-6.6 1.6-8.54.43-.39-.2-1.02-.64-.64-2.09 1.85-1.82 3.87-1.73 6.47.05 1.28-.15 2.54-.01 3.82.24 2.07.93 3.88.96 6 .02.53.84.53.83 0z"/><path d="m24.25 198.32c-.31-.54-.76-.89-1.32-1.14-.55-.24-.92-.43-.98-1.09-.05-.53-.89-.53-.83 0 .08.67.31 1.24.93 1.56.6.32 1.18.42 1.56 1.04.25.42.88.05.64-.37z"/><path d="m28.41 163.86c2-2.45 4.28-4.63 6.33-7.02.25-.29-.13-.68-.42-.42-2.33 2.05-4.34 4.66-6.27 7.08-.21.25.15.62.36.36z"/><path d="m58.66 91.85c5.17 1.31 10.4 1.93 15.24 4.32.55.27 1.03-.55.48-.82-4.86-2.4-10.22-3.29-15.52-4.23-.47-.09-.68.61-.2.73z"/><path d="m74.48 96c4.2-1.6 8.76.89 12.88-.95.36-.16.1-.71-.26-.62-4.26 1.04-8.72-.84-12.82.82-.47.18-.28.93.2.75z"/><path d="m87.05 94.83c-.07 2.49-3.64 2.87-5.49 3.08-.49.06-.52.76 0 .79 2.32.1 6.22-1.03 6.25-3.87 0-.49-.75-.49-.76 0z"/><path d="m81.14 98.2c-1.04 1.48-3.92.59-5-.28-.41-.33-.96.19-.59.59 1.35 1.45 5.02 1.95 6.26.08.28-.42-.39-.79-.67-.39z"/><path d="m59.24 100.65c4.32.11 8.63.23 12.94.38.51.02.5-.75 0-.79-4.28-.29-8.65-.42-12.94-.25-.42.01-.42.65 0 .66z"/><path d="m72.78 99.4c-.81 1.08-.71 2.34-.03 3.47.39.65.96 1.08 1.43 1.67.42.52.67 1.13 1.15 1.61.66.67 1.95 1.19 2.76.41.52-.5.59-1.62.56-2.32-.05-1-.53-2.96-1.8-3.08-1.71-.17-1.31 3-1.17 3.87.06.35.64.27.63-.08-.03-.48-.36-3.16.56-2.99.69.13.98 1.65 1.01 2.16.03.41.06 1.13-.19 1.47-1.04 1.42-2.14-.53-2.63-1.23-.44-.64-1.1-1.05-1.56-1.7-.7-1.01-.7-1.95-.26-3.06.13-.3-.3-.41-.46-.2z"/><path d="m78.08 102.11c.03-.38.19-2.08 1.03-1.66.16.08.28.47.34.61.27.66.39 1.4.46 2.11.06.63.12 1.35-.06 1.97-.23.77-.61.52-1.16.16-.36-.24-.77.3-.46.6.66.64 1.67.89 2.2-.02.55-.95.36-2.36.18-3.38-.14-.77-.38-2.31-1.18-2.73-1.42-.75-2.09 1.44-1.8 2.41.06.26.42.19.45-.07z"/><path d="m79.89 101.23c.32-.42.64-1.26 1.26-.78.54.42.79 1.3.93 1.93.16.69.26 1.54-.01 2.21-.35.88-.97.43-1.66.43-.29 0-.44.37-.24.57.71.71 2.02.4 2.48-.42.5-.89.35-2.1.11-3.04-.21-.83-.61-1.97-1.43-2.4-.87-.45-1.72.4-1.92 1.22-.06.26.29.52.48.28z"/><path d="m82.61 101.69c.2-.66.03-1.53.4-2.08l.01-.01c-.04-.01.01-.01.08.05.11.09.26.3.36.46.54.9 1.03 2.41.61 3.44-.08.21-.22.38-.43.47-.34.14-.72-.06-1.05.07-.23.09-.32.34-.14.54.55.61 1.76.15 2.15-.43.43-.65.39-1.51.27-2.24-.12-.74-.9-3.64-2.17-3-.76.38-.77 2.09-.56 2.73.08.23.4.24.47 0z"/><path d="m82.52 99.98c-.24-.42-.46-.91-.82-1.24-.27-.25-.74.07-.53.41.26.42.7.73 1.07 1.04.15.13.38-.03.28-.21z"/><path d="m51.7 72.64c-.84-.61-1.68-1.16-2.39-1.93-.68-.73-1.05-1.63-1.67-2.39-.31-.38-.85.04-.76.44.22 1.01 1.12 2.02 1.83 2.73.76.76 1.68 1.47 2.71 1.81.42.15.59-.43.28-.66z"/><path d="m49.9 91.32c-.85-1-1.87-2.04-3.1-2.55-.22-.09-.4.24-.23.39.99.86 2.05 1.56 2.93 2.56.24.27.63-.13.4-.4z"/></g></g><g fill-rule="nonzero" transform="translate(10.8918)"><path d="m145.9 79.49c-1.14-.65-1.91-1.53-2.36-2.78-.98-2.67-1.14-5.41-.84-8.19.34-3.13.2-6.23-.71-9.26-.21-.69-.65-1.37-1.16-1.9-.57-.59-1.03-.39-1.4.39-.6 1.25-1.11 2.55-1.83 3.73-.91 1.5-2.35 2.01-3.96 1.45-.76-.27-1.48-.76-2.11-1.28-.69-.57-1.28-1.28-1.87-1.95-1.83-2.06-3.99-3.65-6.58-4.62-.62-.23-1.37-.37-2.01-.26-2.21.37-4.29.03-6.27-.9-1.82-.85-3.57-1.86-5.39-2.7-2.98-1.36-5.3-3.53-7.48-5.87-1.09-1.16-1.62-2.57-1.63-4.16-.01-.9-.1-1.83.07-2.7.2-1.07.42-2.24 1.02-3.11 1.37-1.99 2.89-3.92 4.92-5.32 2.11-1.45 4.31-2.78 6.4-4.27 2.05-1.45 4.24-2.61 6.53-3.62 2.54-1.11 4.97-2.46 7.47-3.65.99-.47 2.04-.88 3.1-1.17 1.2-.32 2.43-.57 3.66-.69 2.41-.24 4.85-.64 7.24-.49 3.03.19 6.06.71 9.02 1.37 3.78.83 7.51 1.9 11.25 2.94 4.23 1.18 8.32 2.65 11.74 5.57 1.09.93 2.48 1.18 3.89 1.29 1.45.12 2.91.2 4.35.37 2.88.36 4.08 1.64 3.95 4.52-.13 2.9-.44 5.8-.74 8.69-.19 1.79-.21 1.96 1.34 2.8.79.43 1.07.99 1.06 1.84-.03 1.87-.09 3.76.03 5.62.08 1.22.26 2.51.74 3.62.89 2.03 2.03 3.94 3.07 5.9.68 1.28 1.51 2.51 2.03 3.86 1.27 3.31 2.18 6.66-.43 9.82-.26.32-.5.67-.76.99-1.24 1.49-2.45 3-3.75 4.44-1.9 2.11-3.79 4.25-5.84 6.21-.8.77-1.99 1.41-3.07 1.54-2.12.25-4.28.17-6.34-.68-3.71-1.53-7.45-2.98-11.19-4.44-2.74-1.07-5.6-1.56-8.64-1.55-2.27.27-4.46-.23-6.52-1.4zm24.27-42.43c-.39-.56-.86-1.06-1.58-1.94.73.19 1.13.17 1.37.37 1.83 1.55 2.21 3.5 1.44 5.77-.62 1.83-.97 3.74-1.47 5.61-.24.86-.53 1.71-.87 2.54-.57 1.38-1.65 2.21-3.09 2.55-1.75.41-3.49.92-5.33.7-2.34-.27-4.67-.59-7.02-.78-2.83-.22-5.67-.36-8.51-.46-2.51-.09-4.61-1.23-6.76-2.62.33-.09.71-.33.99-.26.87.24 1.72.54 2.53.93 1.22.58 2.5.71 3.83.8 3.59.25 7.18.61 10.77.92 1.36.12 2.73.21 4.42.35-.95-1.85-.74-3.46-.59-5.09.18-1.95-.1-2.21-2.04-2.63-.78-.17-1.4-.49-1.88-1.17-1.82-2.55-5.42-3.95-8.41-3.14-1.64.44-3.15.29-4.67-.31-.71-.28-1.39-.67-2.12-.84-.93-.21-1.95-.48-2.84-.3-2.53.52-2.89 1.07-2.78 3.5.03.76.18 1.52.15 2.28-.07 1.44-1.06 2.44-2.52 2.52-.9.05-1.8-.05-2.7-.07-.55-.01-1.18-.16-1.65.04-1.71.72-3.39 1.53-5.05 2.37-.25.13-.48.54-.5.84-.1 1.22-.89 1.79-1.85 2.3-.29.15-.63.59-.62.88.03.55.5.79 1.06.72.27-.04.54-.13.8-.21.6-.16 1.05-.05 1.4.55.23.38.59.78.99.96 2.61 1.18 4.51 3.17 6.4 5.23.68.74 1.55 1.41 2.46 1.81 1.1.48 1.66 0 1.75-1.25.18-2.42.26-4.84.5-7.25.21-2.13.73-2.55 2.82-2.27.94.13 1.85.53 2.74.89.57.23 1.07.64 1.62.94 1.98 1.08 4.05 1.7 6.36 1.59 3.63-.16 7.16.37 10.69 1.29 2.39.62 4.96.67 7.37-.24 1.48-.56 2.7-.32 3.84.7.47.41.96.8 1.45 1.18 1.7 1.35 2.29 1.4 3.93-.08.75-.67 1.22-1.66 1.86-2.47.12-.15.43-.15.66-.21.03.19.15.41.09.57-.69 2.05-2.12 3.39-4.15 4.06-.75.25-1.51.12-2.16-.42-.69-.58-1.39-1.16-2.11-1.69-.5-.37-1.02-.75-1.59-.96-.78-.29-1.41.15-1.35.98.09 1.13-.33 1.99-.95 2.87-.8 1.13-1.48 2.35-2.18 3.54-.24.41-.44.87-.56 1.34-.32 1.29.01 1.83 1.37 1.94 2 .16 4.02.27 6.03.26s4.02-.19 6.03-.3c1.18-.07 1.22-.14.89-1.39-.07-.26-.15-.53-.15-.79 0-.07.42-.22.45-.18.28.39.56.79.77 1.22.32.64.82.91 1.51.86.48-.03.97-.04 1.45-.08.81-.08 1.62-.19 2.44-.29-.14-.71-.29-1.41-.41-2.13-.02-.1.11-.23.24-.48.35.6.68 1.11.96 1.65.33.62.84.95 1.53.83 1.27-.23 2.53-.52 4.02-.84-.8-1.48-1.45-2.69-2.11-3.89-1.06-1.95-2.16-3.88-3.17-5.85-.73-1.44-1.03-3-1.02-4.62.01-1.6-.01-3.19 0-4.79 0-.66-.06-1.22-.84-1.47-1.21-.38-1.48-1.36-1.39-2.49.22-2.69.46-5.39.69-8.08.05-.62.16-1.24.17-1.86.03-1.77-.68-2.73-2.39-3.16-.8-.2-1.63-.31-2.46-.43-1.3-.2-2.51-.01-3.46.97-.91.94-1.77 1.93-2.67 2.88-.12.13-.35.16-.53.23-.06-.22-.25-.52-.17-.65.38-.65.78-1.3 1.28-1.87.45-.51 1.04-.91 1.61-1.38-.12-.18-.2-.43-.34-.48-1.88-.59-3.42-1.77-5.04-2.83-2.63-1.72-5.57-2.8-8.58-3.64-3.67-1.02-7.35-1.98-11.03-2.97-.33-.09-.66-.21-1-.27-.46-.07-.8.08-.9.61-.19 1.08-.14 2.07.87 2.79.62.44 1.25.89 1.81 1.4 1.18 1.1 1.18 1.52.38 3-.2.37-.16.89-.13 1.33.02.25.27.47.42.71.88 1.37 1.36 2.76.1 4.31 1.38.78 2.71.95 4.06 1.16.95.15 1.91.37 2.78.74 1.26.54 2.22 1.42 2.28 2.95.01.27.15.54.16.81.02 1 .58 1.51 1.49 1.73 1.81.44 3.63.89 5.45 1.3.61.14 1.25.17 1.51.88-2.66-.04-5.17-.81-7.68-1.59-1.02-.32-1.61-1.02-1.8-2.08-.16-.86.08-1.83-.8-2.48-1.09-.79-2.25-1.29-3.62-1.43-1.3-.14-2.58-.45-3.85-.79-.99-.26-1.32-.84-.77-1.69.89-1.36.55-2.45-.26-3.62-.76-1.09-1.3-2.2.17-3.23.12-.09.07-.68-.1-.89-.38-.48-.83-.95-1.35-1.26-1.85-1.13-2.57-2.66-1.63-4.97-2.31-.35-4.45-.81-6.62-.98-4.04-.31-8 .47-11.93 1.28-.67.14-1.3.48-1.92.79-2.8 1.36-5.62 2.69-8.39 4.11-1.78.91-3.52 1.92-5.23 2.96-1.66 1.01-3.22 2.17-4.9 3.15-2.7 1.58-4.74 3.84-6.53 6.32-1.57 2.18-1.45 6.35.23 8.46 1.87 2.35 4.08 4.34 6.78 5.73 1.79.92 3.56 1.87 5.38 2.73 1.57.74 3.22 1.21 4.99.89-.16-1.85-.14-1.81 1.52-2.91.47-.31.96-.88 1.08-1.41.23-1.11.88-1.73 1.87-2.01 1.28-.37 2.44-.91 3.54-1.68.52-.36 1.29-.45 1.96-.47.96-.03 1.93.15 2.9.18 1.51.05 2.14-.63 2.07-2.15-.04-.97-.13-1.94-.11-2.91.04-1.29.67-2.14 1.89-2.72 1.75-.82 3.44-.97 5.21-.19.82.36 1.65.73 2.5 1.02 1.12.38 2.19.47 3.43.21 2.8-.58 5.51-.04 7.96 1.53.06.04.13.07.17.12 1.23 1.36 2.38 2.75 4.41 3.03.77.1 1.1 1.01 1.11 1.83.01.83-.04 1.66-.06 2.49-.01.62-.07 1.26.01 1.87.22 1.59.72 2.01 2.36 1.92 3.62-.2 4.56-1.31 5.34-4.19.44-1.63 1.09-3.3.56-5.06 1.67-1.43 1.96-3.37.76-5.09zm3.57 39.34c.14.1.18.35.26.53-.23.07-.53.26-.69.18-2.78-1.3-5.5-2.77-7.49-5.13-1.39-1.64-2.09-3.76-2.48-5.89-.23-1.28.4-2.44 1.05-3.51.76-1.24 1.56-2.46 2.32-3.7.63-1.02.3-1.88-.9-1.85-2.61.06-5.24-.61-7.83.24-.77.25-1.63.32-2.45.34-2.57.06-5.14.1-7.7.04-.95-.02-1.9-.3-2.83-.56-.92-.26-1.81-.57-2.84-.41 1.21 3.3 1.99 6.49 1.77 9.86-.11 1.66-.27 3.32-.24 4.97.02 1.24.22 2.49.5 3.7.64 2.69 2.6 4.25 6.46 4.51 2.42.16 4.84.17 7.22.72 4 .93 7.8 2.44 11.49 4.18 2.82 1.33 5.69 2.09 8.82 1.92 1.03-.06 1.91-.4 2.63-1.08 1.1-1.05 2.18-2.13 3.19-3.26 2.07-2.32 4.09-4.68 6.39-7.33-3.48 0-6.6.05-9.72-.02-3.18-.07-6.35-.27-9.91-.42 1.19.77 2.1 1.35 2.98 1.97zm-35.53-18.54c.38-1.17 1-1.78 2.3-2.02 1.54-.28 3.01-.38 4.48.17 1.38.51 2.77.64 4.26.53 2.2-.17 4.42-.05 6.64-.07.54 0 1.09-.08 1.66-.41-1.19-.17-2.37-.43-3.56-.5-1.45-.09-2.91-.06-4.36-.03-2.8.07-5.25-.97-7.64-2.3-1.01-.56-2.12-.99-3.23-1.35-.76-.25-1.34.07-1.47.97-.35 2.45-.8 4.89-.69 7.37.14.07.29.13.43.2.4-.85.89-1.67 1.18-2.56zm44.18 15.33c.06.63.48.8 1.01.76.58-.04 1.29.24 1.57-.59.07-.2.15-.39.2-.59.38-1.43.16-1.75-1.28-1.76-1.58-.01-3.17-.01-4.75.02-1.28.02-1.36.12-1.1 1.28.11.51.27 1.35.57 1.42.84.21 1.76.13 2.64.09.1 0 .25-.43.27-.67.04-.56-.59-1.13.12-1.78.6.49.69 1.15.75 1.82zm-4.08-3.03c1.04-.05 1.63-1.23 1.08-2.16-.07-.11-.19-.26-.29-.26-1.15.02-2.31-.02-3.43.17-.19.03-.31 1.08-.27 1.65.02.22.54.49.87.58.38.1.81.02 1.22.02v.01c.27-.01.54.01.82-.01zm-4.65 2.77c.05.18.18.47.3.49.94.14 1.89.26 2.85.31.17.01.47-.32.52-.54.27-1.12-.56-2.12-1.72-2.15-.14 0-.28 0-.2 0-1.67.04-2.09.55-1.75 1.89zm14.91-6.12c-.44.13-1.2.29-1.22.5-.08.72-.09 1.58.25 2.18.18.33 1.11.35 1.69.32.31-.02.62-.42.87-.7.11-.13.1-.4.1-.6.01-.61 0-1.22 0-2.05-.76.15-1.23.21-1.69.35zm-15.36 3.35c.84.01 1.01-.5.99-1.21-.01-.68-.31-1.01-1-.98-.68.02-1.37 0-2.05.03-1.08.05-1.26.23-1.28 1.13-.02.88.18 1.05 1.29 1.07.34.01.68 0 1.02 0v-.04zm10.03-1.8c-.49-.78-1.46-1.08-2.33-.75-.81.3-.49 1.02-.54 1.6-.05.55.14.95.78.95h3.01c-.43-.84-.63-1.35-.92-1.8zm-15.16 1.84c.65-.02 1.04-.19 1.01-.92-.02-.66-.06-1.23-.94-1.25-.95-.03-1.89-.12-3.03-.2.67 2.21.98 2.43 2.96 2.37zm21.23 3.45c2.12.24 2.77-.37 3.31-3.22-2.37-.07-3.13 1.29-3.31 3.22zm-2.56.25c.9.18 1.3-.06 1.61-.98.04-.13.12-.25.13-.38.03-.45.12-1.27.04-1.29-.63-.14-1.36-.29-1.93-.08-.3.11-.35.92-.43 1.17.04.77-.24 1.4.58 1.56zm-14.03-1.7c-.01-.59-.09-1.13-.9-1.08-1.11.07-1.72.54-1.74 1.36-.02.71.44 1.02 1.48 1.01.92-.01 1.18-.3 1.16-1.29zm13.49-4.19c-.2-.77-1.38-1.08-1.93-.52-.04.05-.09.1-.11.16-.24.63.9 2.34 1.58 2.37.5.02.75-.35.7-.8-.11-.54-.16-.88-.24-1.21zm4.98.97c.03.21.35.57.42.54.29-.11.78-.37.77-.53-.09-.94-.29-1.87-.5-2.8-.02-.08-.33-.13-.51-.12-.11.01-.29.15-.29.24-.03.4-.01.81-.01 1.21h.1c0 .5-.05.99.02 1.46zm-21.94 4.52c.34-1.98.35-1.99-1.14-2.29-.39-.08-.79-.11-1.19-.17-.08.13-.15.26-.23.39.83.67 1.65 1.33 2.56 2.07z" fill="#252723"/><path d="m169.52 42.27c-.26-.71-.9-.74-1.51-.88-1.82-.41-3.63-.86-5.45-1.3-.91-.22-1.47-.73-1.49-1.73-.01-.27-.15-.54-.16-.81-.05-1.53-1.01-2.41-2.28-2.95-.88-.37-1.84-.59-2.78-.74-1.35-.21-2.69-.38-4.06-1.16 1.26-1.55.78-2.94-.1-4.31-.15-.23-.4-.46-.42-.71-.04-.44-.07-.97.13-1.33.8-1.49.8-1.9-.38-3-.56-.52-1.19-.96-1.81-1.4-1.01-.72-1.06-1.71-.87-2.79.09-.53.44-.68.9-.61.34.05.67.18 1 .27 3.68.99 7.36 1.95 11.03 2.97 3.01.84 5.95 1.92 8.58 3.64 1.62 1.06 3.16 2.24 5.04 2.83.14.04.22.3.34.48-.56.48-1.15.87-1.61 1.38-.5.56-.9 1.22-1.28 1.87-.08.14.11.43.17.65.18-.07.41-.1.53-.23.9-.95 1.76-1.94 2.67-2.88.95-.99 2.16-1.17 3.46-.97.82.13 1.65.23 2.46.43 1.7.43 2.42 1.39 2.39 3.16-.01.62-.12 1.24-.17 1.86-.23 2.69-.47 5.39-.69 8.08-.09 1.13.18 2.11 1.39 2.49.78.25.84.81.84 1.47-.01 1.6 0 3.19 0 4.79-.01 1.62.29 3.19 1.02 4.62 1.01 1.97 2.11 3.9 3.17 5.85.66 1.21 1.31 2.42 2.11 3.89-1.49.31-2.75.6-4.02.84-.69.13-1.19-.2-1.53-.83-.29-.54-.61-1.05-.96-1.65-.13.26-.25.38-.24.48.12.71.27 1.42.41 2.13-.81.1-1.62.2-2.44.29-.48.05-.97.05-1.45.08-.69.04-1.19-.22-1.51-.86-.21-.43-.49-.83-.77-1.22-.03-.04-.45.12-.45.18 0 .26.08.53.15.79.33 1.25.29 1.32-.89 1.39-2.01.11-4.02.29-6.03.3s-4.02-.09-6.03-.26c-1.36-.11-1.69-.66-1.37-1.94.12-.46.32-.92.56-1.34.7-1.2 1.38-2.41 2.18-3.54.62-.88 1.04-1.74.95-2.87-.06-.83.57-1.27 1.35-.98.57.21 1.09.59 1.59.96.73.53 1.42 1.12 2.11 1.69.65.54 1.41.67 2.16.42 2.03-.67 3.46-2.01 4.15-4.06.05-.16-.06-.38-.09-.57-.22.07-.54.06-.66.21-.64.81-1.1 1.8-1.86 2.47-1.65 1.47-2.24 1.42-3.93.08-.49-.39-.98-.77-1.45-1.18-1.14-1.01-2.37-1.26-3.84-.7-2.41.92-4.98.87-7.37.24-3.53-.92-7.06-1.46-10.69-1.29-2.31.1-4.38-.52-6.36-1.59-.55-.3-1.05-.7-1.62-.94-.89-.36-1.8-.76-2.74-.89-2.1-.28-2.62.14-2.82 2.27-.23 2.41-.32 4.84-.5 7.25-.09 1.25-.64 1.73-1.75 1.25-.91-.4-1.78-1.07-2.46-1.81-1.89-2.05-3.8-4.05-6.4-5.23-.4-.18-.76-.57-.99-.96-.35-.59-.8-.71-1.4-.55-.27.07-.53.17-.8.21-.56.07-1.03-.17-1.06-.72-.01-.29.33-.72.62-.88.97-.51 1.76-1.08 1.85-2.3.02-.3.25-.71.5-.84 1.66-.83 3.33-1.65 5.05-2.37.47-.2 1.1-.05 1.65-.04.9.02 1.81.12 2.7.07 1.46-.08 2.45-1.08 2.52-2.52.03-.76-.11-1.52-.15-2.28-.11-2.44.25-2.99 2.78-3.5.89-.18 1.91.09 2.84.3.73.16 1.41.56 2.12.84 1.52.6 3.03.75 4.67.31 2.99-.8 6.58.59 8.41 3.14.48.67 1.1 1 1.88 1.17 1.95.42 2.22.68 2.04 2.63-.15 1.64-.36 3.24.59 5.09-1.7-.13-3.06-.23-4.42-.35-3.59-.31-7.18-.67-10.77-.92-1.33-.09-2.61-.22-3.83-.8-.81-.38-1.67-.69-2.53-.93-.29-.08-.66.16-.99.26 2.15 1.39 4.25 2.53 6.76 2.62 2.84.1 5.68.23 8.51.46 2.35.18 4.68.5 7.02.78 1.84.22 3.58-.29 5.33-.7 1.43-.34 2.51-1.17 3.09-2.55.34-.82.64-1.68.87-2.54.51-1.86.86-3.78 1.47-5.61.77-2.27.39-4.23-1.44-5.77-.23-.2-.64-.18-1.37-.37.72.88 1.19 1.38 1.58 1.94 1.2 1.72.91 3.66-.73 5.14zm10.48-9c-.33.97-.63 1.98-.78 3-.32 2.22-1.01 4.29-2.16 6.23-1.14 1.93-1.97 3.96-1.74 6.29.09.99.15 2.09 1.23 2.42 1.03.32 1.88-.39 2.46-1.19.78-1.07 1.79-2.03 1.86-3.56-.17.16-.38.29-.52.48-.51.66-.97 1.35-1.5 1.99-.47.57-.92 1.48-1.76 1.21-.9-.29-1-1.38-.85-2.12.32-1.54.67-3.15 1.42-4.51 1.43-2.6 2.31-5.32 2.62-8.24.13-1.21.64-2.21 1.88-3.17-1.42-.15-1.91.44-2.16 1.17zm1.93 16.46c-.82 1.37-2.04 2.26-3.4 2.96-1.94 1-3.69.26-4.47-1.8-.23-.61-.49-1.22-.84-2.09-.73 2.6.73 4.82 2.99 5.08 2.42.28 4.11-1.06 5.58-2.66.88-.95 1.45-2.18 2.14-3.3.08-.13-.01-.36-.06-1.02-.81 1.17-1.43 1.97-1.94 2.83zm4.05 7.6c-.04 1.37.34 1.89 2.11 2.57-.69-.84-1.38-1.67-2.11-2.57z" fill="#f5e9d4"/><path d="m169.52 42.27c-2.66-.04-5.17-.81-7.68-1.59-1.02-.32-1.61-1.02-1.8-2.08-.16-.86.08-1.83-.8-2.48-1.09-.79-2.25-1.29-3.62-1.43-1.3-.14-2.58-.45-3.85-.79-.99-.26-1.32-.84-.77-1.69.89-1.36.55-2.45-.26-3.62-.76-1.09-1.3-2.2.17-3.23.12-.09.07-.68-.1-.89-.38-.48-.83-.95-1.35-1.26-1.85-1.13-2.57-2.66-1.63-4.97-2.31-.35-4.45-.81-6.62-.98-4.04-.31-8 .47-11.93 1.28-.67.14-1.3.48-1.92.79-2.8 1.36-5.62 2.69-8.39 4.11-1.78.91-3.52 1.92-5.23 2.96-1.66 1.01-3.22 2.17-4.9 3.15-2.7 1.58-4.74 3.84-6.53 6.32-1.57 2.18-1.45 6.35.23 8.46 1.87 2.35 4.08 4.34 6.78 5.73 1.79.92 3.56 1.87 5.38 2.73 1.57.74 3.22 1.21 4.99.89-.16-1.85-.14-1.81 1.52-2.91.47-.31.96-.88 1.08-1.41.23-1.11.88-1.73 1.87-2.01 1.28-.37 2.44-.91 3.54-1.68.52-.36 1.29-.45 1.96-.47.96-.03 1.93.15 2.9.18 1.51.05 2.14-.63 2.07-2.15-.04-.97-.13-1.94-.11-2.91.04-1.29.67-2.14 1.89-2.72 1.75-.82 3.44-.97 5.21-.19.82.36 1.65.73 2.5 1.02 1.12.38 2.19.47 3.43.21 2.8-.58 5.51-.04 7.96 1.53.06.04.13.07.17.12 1.23 1.36 2.38 2.75 4.41 3.03.77.1 1.1 1.01 1.11 1.83.01.83-.04 1.66-.06 2.49-.01.62-.07 1.26.01 1.87.22 1.59.72 2.01 2.36 1.92 3.62-.2 4.56-1.31 5.34-4.19.44-1.63 1.09-3.3.56-5.06z" fill="#eed6a2"/><path d="m180.67 74.85c3.12.07 6.23.02 9.72.02-2.3 2.64-4.32 5.01-6.39 7.33-1.01 1.13-2.09 2.21-3.19 3.26-.72.68-1.61 1.03-2.63 1.08-3.12.17-6-.59-8.82-1.92-3.69-1.74-7.49-3.25-11.49-4.18-2.38-.55-4.8-.56-7.22-.72-3.86-.26-5.82-1.82-6.46-4.51-.29-1.21-.48-2.46-.5-3.7-.03-1.66.13-3.32.24-4.97.22-3.37-.56-6.56-1.77-9.86 1.03-.16 1.92.16 2.84.41.92.26 1.88.53 2.83.56 2.57.06 5.13.02 7.7-.04.82-.02 1.68-.08 2.45-.34 2.6-.86 5.23-.18 7.83-.24 1.21-.03 1.53.83.9 1.85-.76 1.24-1.56 2.45-2.32 3.7-.65 1.08-1.28 2.24-1.05 3.51.38 2.13 1.09 4.25 2.48 5.89 1.99 2.36 4.71 3.83 7.49 5.13.17.08.46-.11.69-.18-.08-.18-.12-.43-.26-.53-.89-.61-1.79-1.19-2.98-1.97 3.55.15 6.73.35 9.91.42zm-33.94-1.94c.86 2.89 2.4 5.13 5.65 5.68 1.68.29 3.13-.39 4.53-1.1 1.91-.97 3.14-2.68 4.36-4.37.12-.16.25-.38.24-.56-.03-.31-.17-.61-.27-.91-.23.12-.53.18-.68.36-.57.69-1.09 1.43-1.64 2.14-1.13 1.48-2.61 2.46-4.37 3.02-2.03.65-4.32-.1-5.43-1.92-.56-.93-.99-1.98-1.29-3.04-.91-3.21-1.11-6.53-1.27-9.84-.04-.86.15-1.79-.76-2.43 0 4.37-.33 8.73.93 12.97zm13.37-14.03c-.59.58-1.08 1.26-1.58 1.92-.39.52-.83.7-1.43.35-.24-.14-.5-.28-.76-.33-.54-.09-1.22-1.01-1.57-.15-.28.67.75.81 1.22 1.13.28.19.61.33.94.45 1.08.41 1.64.27 2.36-.63.39-.49.68-1.06 1.09-1.52.49-.54 1.07-1.01 1.69-1.57-.72-.59-1.4-.19-1.96.35z" fill="#eed6a2"/><g fill="#f5e9d4"><path d="m137.02 60.43c.4-.85.9-1.68 1.19-2.57.38-1.17 1-1.78 2.3-2.02 1.54-.28 3.01-.38 4.48.17 1.38.51 2.77.64 4.26.53 2.2-.17 4.42-.05 6.64-.07.54 0 1.09-.08 1.66-.41-1.19-.17-2.37-.43-3.56-.5-1.45-.09-2.91-.06-4.36-.03-2.8.07-5.25-.97-7.64-2.3-1.01-.56-2.12-.99-3.23-1.35-.76-.25-1.34.07-1.47.97-.35 2.45-.8 4.89-.69 7.37.14.08.28.14.42.21z"/><path d="m181.65 71.38c.6.48.68 1.15.74 1.81.06.63.48.8 1.01.76.58-.04 1.29.24 1.57-.59.07-.2.15-.39.2-.59.38-1.43.16-1.75-1.28-1.76-1.58-.01-3.17-.01-4.75.02-1.28.02-1.36.12-1.1 1.28.11.51.27 1.35.57 1.42.84.21 1.76.13 2.64.09.1 0 .25-.43.27-.67.05-.55-.59-1.13.13-1.77z"/><path d="m177.49 70.16c.27 0 .55.01.82 0 1.04-.05 1.63-1.23 1.08-2.16-.07-.11-.19-.26-.29-.26-1.15.02-2.31-.02-3.43.17-.19.03-.31 1.08-.27 1.65.02.22.54.49.87.58.38.1.81.02 1.22.02z"/><path d="m175.4 71.04c-1.66.04-2.08.55-1.74 1.89.05.18.18.47.3.49.94.14 1.89.26 2.85.31.17.01.47-.32.52-.54.27-1.12-.56-2.12-1.72-2.15-.15 0-.29 0-.21 0z"/><path d="m190.25 66.45c-.75.15-1.23.22-1.69.35-.44.13-1.2.29-1.22.5-.08.72-.09 1.58.25 2.18.18.33 1.11.35 1.69.32.31-.02.62-.42.87-.7.11-.13.1-.4.1-.6.01-.6 0-1.21 0-2.05z"/><path d="m172.19 70.16h1.02c.84.01 1.01-.5.99-1.21-.01-.68-.31-1.01-1-.98-.68.02-1.37 0-2.05.03-1.08.05-1.26.23-1.28 1.13-.02.88.18 1.05 1.29 1.07.34.01.68 0 1.02 0 .01-.01.01-.02.01-.04z"/><path d="m184.15 70.15c-.42-.83-.62-1.34-.91-1.79-.49-.78-1.46-1.08-2.33-.75-.81.3-.49 1.02-.54 1.6-.05.55.14.95.78.95.87-.01 1.76-.01 3-.01z"/><path d="m165.12 67.83c.66 2.21.98 2.44 2.96 2.38.65-.02 1.04-.19 1.01-.92-.02-.66-.06-1.23-.94-1.25-.94-.04-1.88-.14-3.03-.21z"/><path d="m192.63 70.43c-2.38-.07-3.14 1.29-3.31 3.22 2.11.23 2.77-.37 3.31-3.22z"/><path d="m186.17 72.33c.04.78-.24 1.4.58 1.57.9.18 1.3-.06 1.61-.98.04-.13.12-.25.13-.38.03-.45.12-1.27.04-1.29-.63-.14-1.36-.29-1.93-.08-.3.1-.35.91-.43 1.16z"/><path d="m171.56 73.49c.92-.01 1.18-.3 1.16-1.29-.01-.59-.09-1.13-.9-1.08-1.11.07-1.72.54-1.74 1.36-.02.71.44 1.02 1.48 1.01z"/><path d="m186.45 69.22c-.11-.54-.15-.88-.24-1.21-.2-.77-1.38-1.08-1.93-.52-.04.05-.09.1-.11.16-.24.63.9 2.34 1.58 2.37.5.02.75-.35.7-.8z"/><path d="m191.17 67.53c0 .48-.04.97.02 1.45.03.21.35.57.42.54.29-.11.78-.37.77-.53-.09-.94-.29-1.87-.5-2.8-.02-.08-.33-.13-.51-.12-.11.01-.29.15-.29.24-.03.4-.01.81-.01 1.21.03.01.06.01.1.01z"/><path d="m166.7 71.44c.82.66 1.63 1.32 2.55 2.07.34-1.98.35-1.99-1.14-2.29-.39-.08-.79-.11-1.19-.17-.07.12-.14.25-.22.39z"/></g><path d="m182.16 32.1c-1.42-.15-1.91.44-2.16 1.17-.33.97-.63 1.98-.78 3-.32 2.22-1.01 4.29-2.16 6.23-1.14 1.93-1.97 3.96-1.74 6.29.09.99.15 2.09 1.23 2.42 1.03.32 1.88-.39 2.46-1.19.78-1.07 1.79-2.03 1.86-3.56-.17.16-.38.29-.52.48-.51.66-.97 1.35-1.5 1.99-.47.57-.92 1.48-1.76 1.21-.9-.29-1-1.38-.85-2.12.32-1.54.67-3.15 1.42-4.51 1.43-2.6 2.31-5.32 2.62-8.24.13-1.21.64-2.21 1.88-3.17z" fill="#252723"/><path d="m183.86 46.91c-.8 1.16-1.42 1.96-1.93 2.82-.82 1.37-2.04 2.26-3.4 2.96-1.94 1-3.69.26-4.47-1.8-.23-.61-.49-1.22-.84-2.09-.73 2.6.73 4.82 2.99 5.08 2.42.28 4.11-1.06 5.58-2.66.88-.95 1.45-2.18 2.14-3.3.07-.12-.02-.35-.07-1.01z" fill="#252723"/><path d="m188.09 59.9c-.69-.84-1.38-1.68-2.11-2.57-.04 1.37.34 1.89 2.11 2.57z" fill="#252723"/><path d="m145.8 59.94c0 4.37-.33 8.73.93 12.97.86 2.89 2.4 5.13 5.65 5.68 1.68.29 3.13-.39 4.53-1.1 1.91-.97 3.14-2.68 4.36-4.37.12-.16.25-.38.24-.56-.03-.31-.17-.61-.27-.91-.23.12-.53.18-.68.36-.57.69-1.09 1.43-1.64 2.14-1.13 1.48-2.61 2.46-4.37 3.02-2.03.65-4.32-.1-5.43-1.92-.56-.93-.99-1.98-1.29-3.04-.91-3.21-1.11-6.53-1.27-9.84-.04-.87.15-1.79-.76-2.43z" fill="#252723"/><path d="m162.07 58.53c-.73-.59-1.41-.2-1.96.35-.59.58-1.08 1.26-1.58 1.92-.39.52-.83.7-1.43.35-.24-.14-.5-.28-.76-.33-.54-.09-1.22-1.01-1.57-.15-.28.67.75.81 1.22 1.13.28.19.61.33.94.45 1.08.41 1.64.27 2.36-.63.39-.49.68-1.06 1.09-1.52.49-.54 1.07-1 1.69-1.57z" fill="#252723"/><path d="m172.04 28.34c.07.98-.27 1.99-.93 2.72-.16.18-.36.36-.6.41-.3.06-.6-.08-.87-.23-4.33-2.26-9.44-4.9-12.83-8.43 4.02-.4 11.22 3.98 15.23 5.53z" fill="#fff"/><path d="m126.12 21.55c-6.3 2.93-11.45 7.89-15.71 13.37 4.24-2.42 8.48-4.85 12.72-7.27 2.44-1.39 4.89-2.8 7.56-3.67 5.17-1.7 10.79-1.32 16.15-.39.09.02-1.2-2.87-1.7-3.25-1.47-1.11-4.66-1.23-6.41-1.33-4.32-.24-8.7.72-12.61 2.54z" fill="#fff"/></g><path d="m13.997 13.413h5.428v180.654h-5.428z" fill="#d2574a" transform="matrix(.43145 0 0 1.0573 -6.03912 -1.15485)"/><path d="m13.997 13.413h5.428v180.654h-5.428z" fill="#d2574a" transform="matrix(3.53904 0 0 .0140281 -49.5369 201.30937)"/><path d="m13.997 13.413h5.428v180.654h-5.428z" fill="#a6443a" transform="matrix(.868401 0 0 .0140281 9.60704 201.30937)"/><path d="m13.997 13.413h5.428v180.654h-5.428z" fill="#732d26" transform="matrix(.868401 0 0 .0140281 17.1907 201.30937)"/><path d="m13.997 13.413h5.428v180.654h-5.428z" fill="#541e18" transform="matrix(.868401 0 0 .0140281 24.2064 201.30937)"/><path d="m13.997 13.413h5.428v180.654h-5.428z" fill="#d2574a" transform="matrix(3.53904 0 0 .0140281 -49.5369 11.5717)"/><path d="m13.997 13.413h5.428v180.654h-5.428z" fill="#a6443a" transform="matrix(.868401 0 0 .0140281 9.60704 11.5717)"/><path d="m13.997 13.413h5.428v180.654h-5.428z" fill="#732d26" transform="matrix(.868401 0 0 .0140281 17.1907 11.5717)"/><path d="m13.997 13.413h5.428v180.654h-5.428z" fill="#541e18" transform="matrix(.868401 0 0 .0140281 24.2064 11.5717)"/><path d="m13.997 13.413h5.428v180.654h-5.428z" fill="#d2574a" transform="matrix(0 -.43145 .489818 0 105.5246 157.79912)"/><path d="m13.997 13.413h5.428v180.654h-5.428z" fill="#d2574a" transform="matrix(0 -3.53904 .0140281 0 197.8596 201.2969)"/><path d="m13.997 13.413h5.428v180.654h-5.428z" fill="#a6443a" transform="matrix(0 -.868401 .0140281 0 197.8596 142.15296)"/><path d="m13.997 13.413h5.428v180.654h-5.428z" fill="#732d26" transform="matrix(0 -.868401 .0140281 0 197.8596 134.5693)"/><path d="m13.997 13.413h5.428v180.654h-5.428z" fill="#541e18" transform="matrix(0 -.868401 .0140281 0 197.8596 127.5536)"/><path d="m13.997 13.413h5.428v180.654h-5.428z" fill="#d2574a" transform="matrix(0 -3.53904 .0140281 0 111.9066 201.2969)"/><path d="m13.997 13.413h5.428v180.654h-5.428z" fill="#a6443a" transform="matrix(0 -.868401 .0140281 0 111.9066 142.15296)"/><path d="m13.997 13.413h5.428v180.654h-5.428z" fill="#732d26" transform="matrix(0 -.868401 .0140281 0 111.9066 134.5693)"/><path d="m13.997 13.413h5.428v180.654h-5.428z" fill="#541e18" transform="matrix(0 -.868401 .0140281 0 111.9066 127.5536)"/><g fill="#d2574a" fill-rule="nonzero"><path d="m.238.035c-.044 0-.077-.005-.099-.016s-.036-.025-.044-.043-.012-.039-.013-.061c-.003-.07-.004-.139-.004-.208 0-.065.001-.131.004-.196-.024 0-.044-.009-.061-.028-.014-.016-.021-.033-.021-.052 0-.024.009-.044.027-.061.006-.006.013-.012.02-.019.036-.035.064-.058.083-.071.015-.009.027-.014.037-.014.057 0 .097.005.12.016.022.011.035.022.038.035.002.013.004.025.004.034 0 .01-.001.021-.002.033-.012.106-.018.228-.018.366 0 .03.001.062.003.098.001.036.002.072.002.11 0 .027-.007.046-.022.058-.014.013-.032.019-.054.019z" transform="matrix(12 0 0 12 9.9677 28.7535)"/><path d="m.103.051c-.027 0-.049-.004-.066-.013-.016-.008-.029-.019-.037-.033-.007-.014-.011-.029-.011-.046 0-.025.01-.047.029-.064.02-.018.048-.027.085-.027s.065.009.085.027c.019.017.029.039.029.064 0 .017-.004.032-.012.046s-.02.025-.037.033c-.017.009-.038.013-.065.013z" transform="matrix(12 0 0 12 14.3095 28.7535)"/><path d="m.322.048c-.046 0-.088-.01-.124-.03-.035-.02-.066-.047-.091-.081-.025-.033-.044-.07-.057-.112-.014-.041-.02-.083-.02-.125 0-.053.009-.105.029-.158.019-.053.046-.101.08-.144.035-.043.076-.078.123-.105.047-.026.098-.039.154-.039.06 0 .106.02.139.061.011.016.017.032.017.049 0 .026-.01.047-.031.065-.016.01-.038.017-.066.022-.023.004-.045.01-.065.018.053.024.095.061.126.112s.047.106.047.165c0 .038-.006.076-.017.112-.012.036-.029.068-.051.097-.022.028-.049.051-.082.068-.032.017-.07.025-.111.025zm.029-.163c.018 0 .035-.012.049-.037.014-.024.021-.058.021-.102 0-.04-.009-.074-.026-.101-.018-.027-.038-.04-.06-.04-.011 0-.022.004-.033.013-.012.009-.021.023-.029.043-.007.019-.011.044-.011.074 0 .029.004.056.013.078.009.023.02.041.034.053.014.013.028.019.042.019z" transform="matrix(12 0 0 12 17.3212 28.7535)"/><path d="m.33.033c-.049 0-.092-.011-.129-.032-.037-.022-.067-.05-.092-.086-.025-.035-.044-.075-.057-.12-.012-.044-.019-.079-.02-.105 0-.025 0-.04 0-.044 0-.043.005-.085.015-.126.011-.045.029-.085.052-.121.023-.035.053-.064.088-.085s.077-.032.125-.032c.047 0 .089.011.126.033.036.023.067.052.092.09.024.038.043.08.056.128s.019.098.019.15c0 .045-.005.088-.016.13s-.028.079-.051.112c-.022.033-.051.059-.086.078-.034.02-.075.03-.122.03zm.034-.167c.019 0 .034-.009.046-.029.011-.019.02-.043.025-.073.006-.03.008-.061.008-.094 0-.03-.003-.059-.01-.088-.006-.028-.016-.052-.029-.07-.012-.018-.028-.028-.045-.028-.016 0-.031.009-.046.025-.015.017-.027.04-.036.069s-.014.062-.014.099c0 .038.005.071.015.1.01.028.023.05.038.066.016.015.031.023.048.023z" transform="matrix(12 0 0 12 24.5985 28.7535)"/><path d="m.209-.007h-.004c-.04 0-.07-.004-.091-.013s-.036-.022-.044-.038-.013-.035-.016-.056c-.008-.074-.013-.131-.013-.172s0-.066 0-.075c0-.065.002-.129.006-.193.002-.025.009-.043.023-.055.013-.011.029-.017.048-.017.066 0 .11.019.132.056.026-.019.055-.028.085-.028.023 0 .044.004.063.013s.036.021.051.035c.015.015.028.031.039.05.037-.058.085-.087.146-.087.051 0 .088.02.114.059.025.039.041.084.048.135.007.052.01.1.01.144 0 .06-.003.117-.009.171-.003.025-.012.043-.027.054-.015.01-.033.015-.054.015-.046 0-.08-.006-.102-.018-.022-.011-.035-.025-.04-.042-.005-.016-.008-.031-.008-.046 0-.007.001-.02.003-.037.01-.071.014-.126.014-.164 0-.03-.003-.044-.011-.044-.007 0-.012.006-.017.018-.004.012-.008.027-.011.046s-.006.039-.008.061c-.005.041-.011.075-.019.103-.01.038-.03.057-.059.057-.044 0-.076-.007-.097-.021-.017-.012-.027-.024-.029-.037s-.002-.024-.002-.033c0-.01 0-.02.001-.03.004-.041.006-.075.006-.103 0-.039-.003-.067-.01-.085-.005-.014-.012-.021-.019-.021-.01 0-.017.016-.023.047-.005.032-.008.071-.008.118 0 .048.003.097.01.148 0 .005.001.01.001.015 0 .022-.007.039-.019.05-.016.013-.036.02-.06.02z" transform="matrix(12 0 0 12 32.0165 28.7535)"/><path d="m.349.047c-.038 0-.077-.004-.115-.014-.039-.009-.074-.024-.106-.044-.031-.02-.057-.046-.076-.077-.019-.032-.029-.07-.029-.115 0-.03.006-.058.017-.083.011-.026.026-.048.045-.069.018-.02.04-.039.064-.054-.027-.034-.041-.076-.043-.126.001-.05.016-.091.044-.123.029-.032.063-.056.103-.07s.079-.022.118-.022c.045 0 .087.011.125.033.033.019.059.043.077.072.018.03.028.062.028.098-.003.075-.034.134-.094.176.023.015.044.033.063.053.02.021.035.043.047.068.012.024.018.051.018.079 0 .072-.031.128-.093.167-.054.034-.118.051-.193.051zm-.07-.17c.039 0 .067-.007.084-.02s.026-.03.026-.05c0-.016-.009-.033-.026-.052-.017-.018-.042-.036-.072-.054-.017.006-.033.014-.049.023s-.029.019-.04.032c-.011.012-.016.026-.016.041 0 .018.004.032.013.044s.021.02.035.027c.014.006.029.009.045.009zm.08-.35c.021-.003.04-.01.057-.022.017-.013.025-.024.025-.034s-.003-.018-.009-.025-.015-.01-.025-.01c-.023.001-.039.01-.047.027-.006.014-.01.025-.01.034 0 .01.003.02.009.03z" transform="matrix(8.957808 0 0 8.957808 124.83068820612 166.032635522)"/><path d="m.33.033c-.049 0-.092-.011-.129-.032-.037-.022-.067-.05-.092-.086-.025-.035-.044-.075-.057-.12-.012-.044-.019-.079-.02-.105 0-.025 0-.04 0-.044 0-.043.005-.085.015-.126.011-.045.029-.085.052-.121.023-.035.053-.064.088-.085s.077-.032.125-.032c.047 0 .089.011.126.033.036.023.067.052.092.09.024.038.043.08.056.128s.019.098.019.15c0 .045-.005.088-.016.13s-.028.079-.051.112c-.022.033-.051.059-.086.078-.034.02-.075.03-.122.03zm.034-.167c.019 0 .034-.009.046-.029.011-.019.02-.043.025-.073.006-.03.008-.061.008-.094 0-.03-.003-.059-.01-.088-.006-.028-.016-.052-.029-.07-.012-.018-.028-.028-.045-.028-.016 0-.031.009-.046.025-.015.017-.027.04-.036.069s-.014.062-.014.099c0 .038.005.071.015.1.01.028.023.05.038.066.016.015.031.023.048.023z" transform="matrix(8.957808 0 0 8.957808 130.6480156236 166.032635522)"/><path d="m.33.033c-.049 0-.092-.011-.129-.032-.037-.022-.067-.05-.092-.086-.025-.035-.044-.075-.057-.12-.012-.044-.019-.079-.02-.105 0-.025 0-.04 0-.044 0-.043.005-.085.015-.126.011-.045.029-.085.052-.121.023-.035.053-.064.088-.085s.077-.032.125-.032c.047 0 .089.011.126.033.036.023.067.052.092.09.024.038.043.08.056.128s.019.098.019.15c0 .045-.005.088-.016.13s-.028.079-.051.112c-.022.033-.051.059-.086.078-.034.02-.075.03-.122.03zm.034-.167c.019 0 .034-.009.046-.029.011-.019.02-.043.025-.073.006-.03.008-.061.008-.094 0-.03-.003-.059-.01-.088-.006-.028-.016-.052-.029-.07-.012-.018-.028-.028-.045-.028-.016 0-.031.009-.046.025-.015.017-.027.04-.036.069s-.014.062-.014.099c0 .038.005.071.015.1.01.028.023.05.038.066.016.015.031.023.048.023z" transform="matrix(8.957808 0 0 8.957808 136.1854339356 166.032635522)"/><path d="m.031-.219c-.011 0-.021-.003-.031-.009-.015-.009-.026-.023-.031-.042-.001-.006-.002-.012-.002-.018 0-.012.003-.024.008-.034.009-.017.022-.027.039-.032.052-.016.104-.023.156-.023.053 0 .112.005.176.016.018.003.032.011.041.024.01.014.014.028.014.044 0 .023-.008.042-.024.054-.012.01-.025.015-.039.015l-.005-.001c-.061-.009-.114-.014-.161-.014-.042 0-.083.006-.124.018-.006.001-.011.002-.017.002z" transform="matrix(8.957808 0 0 8.957808 141.7227775992 166.032635522)"/><path d="m.238.035c-.044 0-.077-.005-.099-.016s-.036-.025-.044-.043-.012-.039-.013-.061c-.003-.07-.004-.139-.004-.208 0-.065.001-.131.004-.196-.024 0-.044-.009-.061-.028-.014-.016-.021-.033-.021-.052 0-.024.009-.044.027-.061.006-.006.013-.012.02-.019.036-.035.064-.058.083-.071.015-.009.027-.014.037-.014.057 0 .097.005.12.016.022.011.035.022.038.035.002.013.004.025.004.034 0 .01-.001.021-.002.033-.012.106-.018.228-.018.366 0 .03.001.062.003.098.001.036.002.072.002.11 0 .027-.007.046-.022.058-.014.013-.032.019-.054.019z" transform="matrix(8.957808 0 0 8.957808 145.3312812552 166.032635522)"/><path d="m.33.033c-.049 0-.092-.011-.129-.032-.037-.022-.067-.05-.092-.086-.025-.035-.044-.075-.057-.12-.012-.044-.019-.079-.02-.105 0-.025 0-.04 0-.044 0-.043.005-.085.015-.126.011-.045.029-.085.052-.121.023-.035.053-.064.088-.085s.077-.032.125-.032c.047 0 .089.011.126.033.036.023.067.052.092.09.024.038.043.08.056.128s.019.098.019.15c0 .045-.005.088-.016.13s-.028.079-.051.112c-.022.033-.051.059-.086.078-.034.02-.075.03-.122.03zm.034-.167c.019 0 .034-.009.046-.029.011-.019.02-.043.025-.073.006-.03.008-.061.008-.094 0-.03-.003-.059-.01-.088-.006-.028-.016-.052-.029-.07-.012-.018-.028-.028-.045-.028-.016 0-.031.009-.046.025-.015.017-.027.04-.036.069s-.014.062-.014.099c0 .038.005.071.015.1.01.028.023.05.038.066.016.015.031.023.048.023z" transform="matrix(8.957808 0 0 8.957808 150.7943497608 166.032635522)"/><path d="m.33.033c-.049 0-.092-.011-.129-.032-.037-.022-.067-.05-.092-.086-.025-.035-.044-.075-.057-.12-.012-.044-.019-.079-.02-.105 0-.025 0-.04 0-.044 0-.043.005-.085.015-.126.011-.045.029-.085.052-.121.023-.035.053-.064.088-.085s.077-.032.125-.032c.047 0 .089.011.126.033.036.023.067.052.092.09.024.038.043.08.056.128s.019.098.019.15c0 .045-.005.088-.016.13s-.028.079-.051.112c-.022.033-.051.059-.086.078-.034.02-.075.03-.122.03zm.034-.167c.019 0 .034-.009.046-.029.011-.019.02-.043.025-.073.006-.03.008-.061.008-.094 0-.03-.003-.059-.01-.088-.006-.028-.016-.052-.029-.07-.012-.018-.028-.028-.045-.028-.016 0-.031.009-.046.025-.015.017-.027.04-.036.069s-.014.062-.014.099c0 .038.005.071.015.1.01.028.023.05.038.066.016.015.031.023.048.023z" transform="matrix(8.957808 0 0 8.957808 156.3316934244 166.032635522)"/><path d="m.33.033c-.049 0-.092-.011-.129-.032-.037-.022-.067-.05-.092-.086-.025-.035-.044-.075-.057-.12-.012-.044-.019-.079-.02-.105 0-.025 0-.04 0-.044 0-.043.005-.085.015-.126.011-.045.029-.085.052-.121.023-.035.053-.064.088-.085s.077-.032.125-.032c.047 0 .089.011.126.033.036.023.067.052.092.09.024.038.043.08.056.128s.019.098.019.15c0 .045-.005.088-.016.13s-.028.079-.051.112c-.022.033-.051.059-.086.078-.034.02-.075.03-.122.03zm.034-.167c.019 0 .034-.009.046-.029.011-.019.02-.043.025-.073.006-.03.008-.061.008-.094 0-.03-.003-.059-.01-.088-.006-.028-.016-.052-.029-.07-.012-.018-.028-.028-.045-.028-.016 0-.031.009-.046.025-.015.017-.027.04-.036.069s-.014.062-.014.099c0 .038.005.071.015.1.01.028.023.05.038.066.016.015.031.023.048.023z" transform="matrix(8.957808 0 0 8.957808 161.8691117364 166.032635522)"/><path d="m.352.02c-.06 0-.115-.013-.166-.038s-.092-.062-.122-.11c-.031-.049-.047-.108-.047-.178 0-.055.013-.102.039-.141s.061-.069.104-.09c.044-.021.092-.032.144-.032.072 0 .145.026.219.077.019.013.03.026.033.04.002.013.004.022.004.027 0 .015-.005.03-.015.045-.013.019-.026.029-.04.032-.013.002-.022.004-.027.004-.016 0-.031-.005-.045-.014-.017-.011-.031-.017-.043-.018s-.02-.001-.024-.001c-.041 0-.074.015-.097.045-.013.016-.02.036-.02.061 0 .027.006.05.018.069s.027.033.046.042.038.014.058.014c.027 0 .054-.007.079-.021.013-.006.026-.01.039-.01.007 0 .015.001.023.004.021.006.037.019.048.039.006.012.01.025.01.038 0 .008-.001.015-.004.023-.005.021-.018.036-.038.047-.056.03-.115.046-.176.046z" transform="matrix(8.957808 0 0 8.957808 169.6284396744 166.032635522)"/><path d="m.209-.007h-.004c-.04 0-.07-.004-.091-.013s-.036-.022-.044-.038-.013-.035-.016-.056c-.008-.074-.013-.131-.013-.172s0-.066 0-.075c0-.065.002-.129.006-.193.002-.025.009-.043.023-.055.013-.011.029-.017.048-.017.066 0 .11.019.132.056.026-.019.055-.028.085-.028.023 0 .044.004.063.013s.036.021.051.035c.015.015.028.031.039.05.037-.058.085-.087.146-.087.051 0 .088.02.114.059.025.039.041.084.048.135.007.052.01.1.01.144 0 .06-.003.117-.009.171-.003.025-.012.043-.027.054-.015.01-.033.015-.054.015-.046 0-.08-.006-.102-.018-.022-.011-.035-.025-.04-.042-.005-.016-.008-.031-.008-.046 0-.007.001-.02.003-.037.01-.071.014-.126.014-.164 0-.03-.003-.044-.011-.044-.007 0-.012.006-.017.018-.004.012-.008.027-.011.046s-.006.039-.008.061c-.005.041-.011.075-.019.103-.01.038-.03.057-.059.057-.044 0-.076-.007-.097-.021-.017-.012-.027-.024-.029-.037s-.002-.024-.002-.033c0-.01 0-.02.001-.03.004-.041.006-.075.006-.103 0-.039-.003-.067-.01-.085-.005-.014-.012-.021-.019-.021-.01 0-.017.016-.023.047-.005.032-.008.071-.008.118 0 .048.003.097.01.148 0 .005.001.01.001.015 0 .022-.007.039-.019.05-.016.013-.036.02-.06.02z" transform="matrix(8.957808 0 0 8.957808 174.8159809356 166.032635522)"/><path d="m.359.028c-.054 0-.106-.009-.156-.028-.05-.02-.101-.046-.151-.079-.025-.016-.038-.039-.038-.068 0-.015.005-.029.013-.043.013-.019.026-.03.039-.033.014-.003.023-.005.029-.005.015 0 .029.004.044.013.047.029.088.043.123.043.037 0 .066-.011.087-.034.019-.02.029-.043.029-.067 0-.018-.006-.034-.017-.048-.012-.014-.025-.022-.04-.024-.014-.002-.024-.003-.03-.003-.022 0-.048.005-.079.015-.009.004-.018.005-.028.005-.009 0-.018-.001-.027-.005-.017-.006-.031-.018-.041-.035-.008-.014-.012-.027-.012-.041 0-.024.009-.044.028-.06l.124-.11h-.024c-.033 0-.074.003-.123.009l-.008.001c-.018 0-.033-.006-.047-.016-.02-.016-.03-.038-.03-.066 0-.018.005-.034.017-.048.013-.017.031-.028.053-.031.054-.007.102-.011.143-.011.088 0 .156.003.206.01.049.007.084.019.105.036.02.017.03.041.03.071 0 .05-.032.103-.097.16.047.029.083.063.107.103.024.039.036.083.036.13 0 .032-.007.063-.02.094-.012.031-.03.059-.053.083-.024.025-.052.045-.084.06-.033.015-.069.022-.108.022z" transform="matrix(8.957808 0 0 8.957808 182.3478551988 166.032635522)"/></g></svg>