<svg enable-background="new 0 0 283.46 113.39" viewBox="0 0 283.46 113.39" xmlns="http://www.w3.org/2000/svg"><path d="m137.74 28.68c4.74-.21 9.46.38 14.06 1.54 4.06 1.03 8.16 2.01 11.97 3.89 3.07 1.51 5.51 3.56 7 6.7.77 1.63 1.71 3.17 2.57 4.76.2.37.4.75.52 1.15.86 3.07 1.7 6.14 1.63 9.37-.05 2.27-.66 4.25-2.09 6.16-2.62 3.49-5.95 5.83-9.91 7.53-4.5 1.93-9.21 3.11-13.9 4.36-.34.09-.72.07-1.08.07-2.65 0-5.3-.01-7.94-.02-.3 0-.61.01-.9-.02-1.58-.2-2.46-1.2-2.42-2.79.01-.53.18-1.06.2-1.6.02-.31-.11-.63-.17-.94-.27.21-.64.37-.78.64-1.98 3.81-3.75 7.69-3.61 12.11.04 1.17-.46 1.82-1.46 2.19-1.13.42-2.25.87-3.4 1.19-3.18.89-6.39 1.67-9.55 2.6-3.4 1-6.77 2.08-10.12 3.22-1.18.4-2.29 1.04-3.4 1.63-1.3.68-1.94.5-2.6-.81-.74-1.48-.6-3.03-.41-4.59.08-.65.19-1.31.23-1.96.08-1.34-.28-2.52-1.44-3.31-1.05-.71-1.17-1.62-.97-2.82.35-2.13.49-4.29.71-6.44.05-.48.12-.96.12-1.44 0-1.02.53-1.64 1.38-2.15 1.86-1.11 2.12-1.93 1.09-3.81-.48-.88-1.19-1.65-1.84-2.43-1.16-1.38-1.11-1.94.34-3.08.99-.78 1.99-1.55 2.97-2.35.89-.73 1.37-1.63 1.27-2.83-.13-1.49-.21-2.99-.27-4.49-.02-.47.03-.96.16-1.41.15-.52.36-1.03.63-1.49 2.45-4.09 5.2-7.96 8.61-11.3 3.59-3.52 7.96-5.5 12.91-6.32 3.25-.52 6.53-.82 9.89-.71zm-25.8 37.99c.1-.13.19-.26.29-.39.7.51 1.41 1.02 2.1 1.54 1.91 1.42 4.43 1.45 6.39.11.83-.56 1.32-1.35 1.86-2.16.86-1.29 1.75-2.61 2.86-3.68 1.3-1.26 2.94-1.59 4.67-.73.48.24 1 .41 1.47.68.82.46 1.68.68 2.6.58 1.07-.12 2.13-.31 3.2-.47 1.1-.17 1.37-.01 1.66 1.08.18.7.35 1.4.49 2.1.31 1.49.45 2.85-.59 4.27-1.16 1.58-.47 3.28 1.25 3.36 2.76.13 5.54.11 8.29-.04 2.59-.14 5.1-.84 7.55-1.66 2.9-.98 5.82-1.93 8.64-3.13 3.35-1.43 5.81-3.98 7.97-6.87 1.03-1.38 1.48-2.83 1.55-4.51.11-2.73-.27-5.4-1.03-8.01-.25-.86-.47-1.75-.87-2.54-.89-1.77-1.95-3.46-2.82-5.24-1.32-2.67-3.46-4.36-6.06-5.68-3.52-1.79-7.35-2.63-11.09-3.7-3.83-1.1-7.79-1.57-11.75-1.73-3.24-.13-6.49.16-9.74.3-.82.03-.95.28-.71 1.01.07.23.2.44.26.67 1.11 3.72 1.31 7.35-1.21 10.65-.59.77-.62 1.43-.09 2.29.52.85.31 1.22-.57 1.73-.46.26-.92.52-1.27.72.65.97 1.24 1.83 1.82 2.71.6.9 1.09 1.1 1.92.49 1.31-.95 2.76-1.36 4.31-1.69 2.44-.53 4.89-.63 7.36-.57.67.02 1.52.22 1.96.67.52.52.97.75 1.68.81 1.73.16 3.04 1.42 3.18 3.11.08.97.4 1.6 1.35 1.87.66.19.98.68 1.08 1.31.02.14-.08.38-.2.44-.11.06-.41 0-.46-.09-.28-.48-.6-.84-1.17-1.03-.81-.27-1.17-.9-1.35-1.75-.51-2.38-1.03-2.79-3.43-3.15-.38-.06-.87-.25-1.05-.53-.5-.81-1.24-.92-2.03-.88-1.38.07-2.76.18-4.13.3-2.4.22-4.76.56-6.8 2.06-1.1.81-2.15.48-2.89-.71-.22-.35-.33-.77-.53-1.14-.49-.92-.58-.94-1.71-.79-.26.03-.53-.05-.79-.08.06-.28.04-.64.21-.81.55-.55 1.15-1.04 1.76-1.52.37-.28.8-.49 1.19-.73-.92-1.97-.92-1.97.26-3.87.16-.26.33-.51.47-.77 1.76-3.14 1.52-6.34.3-9.57-.22-.57-.56-.86-1.23-.76-5.11.77-9.49 2.94-13.11 6.65-2.88 2.94-5.16 6.34-7.45 9.73-.5.74-.96 1.52-.94 2.49.04 1.87.02 3.73.06 5.6.02.92.29 1.24 1.19 1.2 1.07-.05 2 .1 2.87.77.29.22.8.21 1.21.19.52-.03 1.02-.17 1.7-.3-.17-.88-.24-1.72-.49-2.5-.51-1.56-2.47-2.23-3.83-1.33-.49.33-.86.83-1.32 1.21-.2.17-.5.22-.75.33.01-.32-.09-.72.06-.95 1.47-2.38 4.4-2.61 6.27-.53 1.13 1.26 2.48 1.59 4.22.95-.58-.94-1.13-1.86-1.71-2.77-1.1-1.7-1.02-2.76.46-4.12 1.7-1.57 3.7-2.67 5.89-3.43.14-.05.32.03.76.07-.51.44-.82.78-1.19 1.02-.92.58-1.9 1.06-2.79 1.66-.79.53-1.54 1.15-2.26 1.79-.48.42-.74 1.02-.43 1.63.62 1.19 1.33 2.33 2.28 3.37.37-.49.6-.97.97-1.23.73-.49 1.52-1.11 2.34-1.22 1.44-.2 2.95.07 4.35-.7-.09.29-.21.47-.38.58-.94.64-2 .71-3.11.72-2.43.02-4.15 2.27-3.59 4.65.14.58.36 1.14.53 1.72.23.82.81 1.2 1.6 1.2.9 0 1.8-.05 2.69-.18 2.6-.39 5.16-.35 7.65.58 1.06.4 2.11.44 3.19.23 2.13-.42 4.27-.68 6.45-.6 3.18.12 6.37.24 9.55.37.23.01.46.17.89.33-.42.18-.58.32-.73.32-2.11-.01-4.23.14-6.31-.11-2.79-.34-5.53-.14-8.25.36-1.98.36-3.88.48-5.85-.19-1.7-.58-3.46-.9-5.31-.44-1.21.3-2.5.32-3.76.34-1.58.02-2.57-.87-3.02-2.36-.17-.58-.27-1.17-.46-1.75-.06-.2-.26-.46-.43-.49-1.15-.19-2.3-.32-3.57-.48.09.53.17.87.22 1.22.25 1.96.12 3.87-.94 5.58-1.45 2.33-3.56 2.31-5.63 1.05-1.17-.71-1.4-2.35-.59-3.76.15.5.36.88.37 1.26.02 1.21.63 1.83 1.76 2.19 1.19.38 2.15.11 2.93-.78.74-.83 1.14-1.83 1.19-2.96.03-.61-.19-.87-.84-.82-1.14.09-2.27.16-3.29-.61-.24-.18-.7-.08-1.05-.12-.47-.06-.98-.05-1.41-.23-.62-.26-1.01-.07-1.43.36-.85.85-1.74 1.65-2.59 2.5-1.5 1.49-1.46 1.47-.06 3.15.57.68 1.15 1.46 1.38 2.29.71 2.57.32 3.5-1.53 4.62-.21.12-.47.2-.61.38-.21.27-.44.58-.49.9-.16 1.06-.26 2.14-.36 3.21-.05.57.12.93.82.83.59-.08 1.23-.23 1.78-.09 4.9 1.25 9.65.57 14.34-1.03 1.26-.43 1.26-.46 1.22-1.81-.06-2.31-.06-2.33-2.46-2.4-2.41-.08-3.99-1.38-5.25-3.19zm11.41.32c-.65.59-1.12 1.19-1.74 1.51-1.09.56-1.16 1.41-.96 2.42.06.29.14.59.17.89.23 2.62.18 5.18-1.64 7.35-1.44 1.72-3.12 3.17-5.02 4.35-.27.17-.62.22-.93.32-.06-.09-.12-.17-.18-.26.56-.54 1.11-1.08 1.68-1.63-.14-.1-.19-.16-.23-.16-3.24.14-6.48.28-9.72.44-.23.01-.45.16-.69.21-.73.15-.9.57-.9 1.3 0 1.37-.21 2.75-.24 4.12-.02.89 0 1.81.23 2.66.32 1.21.57 1.24 1.62.63.52-.3 1.03-.64 1.59-.83 4.21-1.41 8.42-2.83 12.66-4.15 3.15-.98 6.35-1.79 9.53-2.7.69-.2 1.35-.5 2.04-.73.66-.22.89-.65.93-1.35.19-3.64 1.02-7.12 2.77-10.35.43-.79.77-1.63 1.17-2.44.43-.87.41-1.74.01-2.61-.65-1.4-2.36-1.64-3.38-.46-.63.73-1.22 1.49-1.87 2.2-.73.8-1.65 1.12-2.74 1.13-1.68.02-3.02-.64-4.16-1.86zm9.05-3.46c-.8-.37-1.59-.75-2.4-1.11-1.88-.85-2.89-.69-4.35.76-.59.59-1.06 1.29-1.56 1.96-.34.44-.27.87.07 1.31 1.06 1.37 4.08 2.39 5.6.26.8-1.1 1.74-2.1 2.64-3.18zm-12.78 11.29c-2.02.3-2.08.34-2.24 1.44-.34 2.35-.6 2.59-2.94 2.67-.6.02-1.2 0-1.8.02-.3.01-.61.02-.89.1-.74.22-.58.86-.49 1.35.04.24.46.59.7.58 1.32-.03 2.63-.14 3.95-.26.22-.02.48-.12.65-.28 1.58-1.49 3.03-3.08 3.06-5.62zm-13.55 3.6h6.54c.11 0 .24-.04.34-.1.64-.34.42-.93.34-1.43-.03-.19-.4-.46-.61-.46-1.79.02-3.57.07-5.36.16-.24.01-.56.21-.69.42-.22.39-.34.85-.56 1.41zm32.54-10.9c.33-1.41-.18-2.7-.58-4-.05-.17-.36-.4-.5-.38-.8.14-1.59.35-2.27.51.53.82 1.25 1.5 1.4 2.28.23 1.19.85 1.56 1.95 1.59zm-37.47 10.19c-.01 0-.02 0-.03 0 0 .24-.06.49.02.7.06.18.25.42.42.44.99.16 1.64-.37 1.78-1.38.04-.29.12-.59.12-.88 0-.21-.06-.49-.21-.61-.86-.69-1.94-.25-2.08.83-.05.3-.02.6-.02.9zm15.56-1.2c.01-.64-.15-.86-.6-.88-.75-.02-1.91.54-1.93.94-.04.77.47 1.6 1 1.64 1.02.07 1.52-.48 1.53-1.7zm-13.16 2.84c-.52 0-1-.07-1.44.02s-.84.36-1.25.55c.25.38.45.81.77 1.12.36.36.88.9 1.24.85.7-.11.33-.88.43-1.37.08-.35.15-.69.25-1.17zm2.25-1.97c0-.18.01-.36 0-.54-.03-.61-.46-.87-.96-.82-.23.02-.47.42-.62.7-.14.25-.18.57-.21.87-.08.8.25 1.08 1.05.98.76-.1.79-.61.74-1.19zm-.04 2.75c-.01-.63-.18-.85-.65-.87-.74-.04-1.12.39-1.12 1.29 0 .45.05.86.65.85.81 0 1.14-.37 1.12-1.27zm4.71-.58c-.01-.31-.21-.55-.74-.53-.71.03-1.05.51-1 1.35.04.68.5.67 1 .67.78 0 .76-.54.74-1.49zm-4.1.38c.01.94.16 1.13.77 1.15.65.02.82-.35.81-.91-.01-.77-.22-1.01-.91-1-.53.01-.77.24-.67.76z" fill="#252723"/><path d="m111.94 66.67c1.26 1.81 2.84 3.12 5.23 3.19 2.4.07 2.4.09 2.46 2.4.04 1.36.04 1.38-1.22 1.81-4.69 1.6-9.44 2.27-14.34 1.03-.55-.14-1.19 0-1.78.09-.7.1-.87-.26-.82-.83.1-1.07.2-2.15.36-3.21.05-.32.27-.64.49-.9.14-.18.4-.25.61-.38 1.86-1.12 2.24-2.05 1.53-4.62-.23-.83-.81-1.61-1.38-2.29-1.4-1.68-1.44-1.66.06-3.15.85-.85 1.75-1.65 2.59-2.5.43-.43.82-.61 1.43-.36.43.18.93.17 1.41.23.35.04.81-.06 1.05.12 1.01.77 2.15.7 3.29.61.65-.05.87.2.84.82-.05 1.13-.45 2.12-1.19 2.96-.79.89-1.74 1.16-2.93.78-1.13-.36-1.74-.98-1.76-2.19-.01-.38-.21-.76-.37-1.26-.81 1.41-.58 3.05.59 3.76 2.07 1.26 4.18 1.28 5.63-1.05 1.06-1.71 1.2-3.62.94-5.58-.05-.35-.12-.7-.22-1.22 1.27.16 2.42.3 3.57.48.17.03.36.3.43.49.18.57.28 1.17.46 1.75.45 1.49 1.44 2.38 3.02 2.36 1.26-.01 2.55-.04 3.76-.34 1.86-.46 3.62-.14 5.31.44 1.97.67 3.87.56 5.85.19 2.73-.5 5.46-.7 8.25-.36 2.08.25 4.21.1 6.31.11.16 0 .32-.13.73-.32-.43-.17-.66-.32-.89-.33-3.18-.14-6.37-.26-9.55-.37-2.18-.08-4.32.18-6.45.6-1.08.21-2.14.17-3.19-.23-2.49-.94-5.05-.97-7.65-.58-.89.13-1.79.17-2.69.18-.79 0-1.37-.38-1.6-1.2-.16-.58-.39-1.14-.53-1.72-.56-2.38 1.16-4.62 3.59-4.65 1.1-.01 2.17-.08 3.11-.72.17-.12.29-.3.38-.58-1.4.77-2.91.5-4.35.7-.82.11-1.61.73-2.34 1.22-.38.25-.6.74-.97 1.23-.95-1.04-1.66-2.18-2.28-3.37-.32-.61-.05-1.21.43-1.63.72-.63 1.46-1.25 2.26-1.79.9-.6 1.88-1.08 2.79-1.66.38-.24.68-.58 1.19-1.02-.44-.05-.62-.12-.76-.07-2.19.75-4.18 1.85-5.89 3.43-1.47 1.36-1.55 2.42-.46 4.12.58.9 1.13 1.83 1.71 2.77-1.74.64-3.09.31-4.22-.95-1.87-2.08-4.8-1.85-6.27.53-.15.24-.04.63-.06.95.25-.11.55-.16.75-.33.46-.38.83-.89 1.32-1.21 1.36-.9 3.32-.23 3.83 1.33.26.78.33 1.62.49 2.5-.67.12-1.18.27-1.7.3-.41.02-.92.03-1.21-.19-.87-.67-1.8-.83-2.87-.77-.91.05-1.17-.28-1.19-1.2-.04-1.87-.02-3.73-.06-5.6-.02-.97.44-1.75.94-2.49 2.29-3.39 4.57-6.78 7.45-9.73 3.62-3.7 8-5.88 13.11-6.65.67-.1 1.02.19 1.23.76 1.22 3.23 1.46 6.43-.3 9.57-.15.26-.32.51-.47.77-1.17 1.89-1.17 1.89-.26 3.87-.39.24-.82.44-1.19.73-.61.47-1.22.97-1.76 1.52-.17.17-.14.54-.21.81.26.03.54.11.79.08 1.13-.15 1.22-.13 1.71.79.2.37.31.79.53 1.14.74 1.19 1.78 1.52 2.89.71 2.05-1.51 4.4-1.84 6.8-2.06 1.38-.13 2.75-.24 4.13-.3.79-.04 1.53.07 2.03.88.18.29.67.48 1.05.53 2.4.36 2.92.77 3.43 3.15.18.85.54 1.48 1.35 1.75.57.19.89.54 1.17 1.03.06.1.35.15.46.09.12-.06.22-.3.2-.44-.11-.63-.42-1.12-1.08-1.31-.95-.27-1.27-.9-1.35-1.87-.14-1.69-1.46-2.95-3.18-3.11-.71-.07-1.16-.3-1.68-.81-.45-.44-1.29-.65-1.96-.67-2.46-.06-4.92.04-7.36.57-1.55.34-3.01.74-4.31 1.69-.83.61-1.32.41-1.92-.49-.58-.87-1.17-1.74-1.82-2.71.36-.2.82-.46 1.27-.72.88-.51 1.09-.88.57-1.73-.53-.86-.5-1.52.09-2.29 2.52-3.3 2.31-6.93 1.21-10.65-.07-.23-.19-.44-.26-.67-.24-.73-.11-.98.71-1.01 3.25-.14 6.5-.43 9.74-.3 3.96.16 7.92.64 11.75 1.73 3.75 1.07 7.57 1.91 11.09 3.7 2.6 1.32 4.74 3.01 6.06 5.68.88 1.78 1.93 3.47 2.82 5.24.4.79.62 1.68.87 2.54.76 2.61 1.13 5.28 1.03 8.01-.07 1.68-.52 3.13-1.55 4.51-2.16 2.9-4.62 5.45-7.97 6.87-2.81 1.2-5.73 2.15-8.64 3.13-2.45.82-4.96 1.52-7.55 1.66-2.76.15-5.53.16-8.29.04-1.72-.08-2.41-1.78-1.25-3.36 1.04-1.42.9-2.78.59-4.27-.15-.71-.31-1.41-.49-2.1-.29-1.09-.56-1.25-1.66-1.08-1.06.17-2.13.36-3.2.47-.92.1-1.79-.12-2.6-.58-.47-.26-.99-.44-1.47-.68-1.73-.86-3.37-.53-4.67.73-1.11 1.07-2 2.39-2.86 3.68-.54.81-1.03 1.6-1.86 2.16-1.96 1.34-4.47 1.32-6.39-.11-.7-.52-1.4-1.03-2.1-1.54-.08.12-.18.25-.27.39zm34.5 4.56v.05c.78 0 1.58.11 2.33-.03.99-.18 1.95-.53 2.9-.86.16-.05.22-.37.33-.57-.24-.09-.56-.33-.72-.26-2.05.97-4.23.7-6.37.75-.42.01-.85-.05-1.26.03-.22.04-.41.29-.61.45.17.15.34.41.52.42.96.05 1.92.02 2.88.02zm10.48-3.29c.77.05 1.14.17 1.46.08 2.01-.52 3.79-1.47 5.2-3.02.19-.21.35-.52.37-.79.02-.24-.16-.51-.26-.76-.2.1-.49.16-.58.32-.49.96-1.33 1.56-2.2 2.07-1.16.68-2.38 1.26-3.99 2.1zm-52.48-5.5c.14-.06.22-.07.24-.11.35-.85.7-1.69 1.01-2.55.01-.02-.39-.29-.5-.24-.66.31-1.32 1.73-1.14 2.41.06.19.27.34.39.49z" fill="#eed6a2"/><path d="m123.35 66.99c1.14 1.23 2.48 1.89 4.16 1.87 1.1-.01 2.02-.33 2.74-1.13.65-.71 1.24-1.47 1.87-2.2 1.02-1.18 2.74-.95 3.38.46.4.87.42 1.73-.01 2.61-.4.81-.74 1.65-1.17 2.44-1.75 3.23-2.58 6.71-2.77 10.35-.04.7-.27 1.13-.93 1.35-.68.23-1.35.53-2.04.73-3.17.91-6.38 1.72-9.53 2.7-4.24 1.32-8.45 2.74-12.66 4.15-.56.19-1.07.53-1.59.83-1.05.61-1.31.58-1.62-.63-.22-.85-.24-1.77-.23-2.66.03-1.38.24-2.75.24-4.12 0-.73.17-1.15.9-1.3.23-.05.46-.2.69-.21 3.24-.16 6.48-.3 9.72-.44.05 0 .1.07.23.16-.57.55-1.13 1.09-1.68 1.63.06.09.12.17.18.26.31-.1.66-.15.93-.32 1.91-1.18 3.58-2.63 5.02-4.35 1.82-2.17 1.87-4.73 1.64-7.35-.03-.3-.11-.59-.17-.89-.2-1.01-.13-1.85.96-2.42.62-.33 1.09-.94 1.74-1.52zm-2 13.58c.74-.19 1.16-.57 1.52-1.03 1.49-1.91 1.44-4.13 1.24-6.36-.01-.16-.31-.4-.49-.41-.15-.01-.42.24-.46.41-.08.34-.03.71-.05 1.07-.05.9.05 1.84-.2 2.68-.34 1.17-.95 2.27-1.56 3.64zm8.33-7.39c-.13 0-.26 0-.39 0 0 .88-.01 1.77 0 2.65.02 2.01-.83 3.58-2.4 4.79-.24.18-.5.34-.7.55-.08.09-.07.31-.04.46.02.07.21.15.3.12.28-.08.57-.17.82-.32 2.43-1.42 3.53-5.21 2.41-8.25z" fill="#f5e9d4"/><path d="m132.4 63.53c-.9 1.08-1.84 2.08-2.63 3.18-1.53 2.13-4.54 1.11-5.6-.26-.34-.43-.41-.86-.07-1.31.5-.66.97-1.37 1.56-1.96 1.46-1.46 2.47-1.61 4.35-.76.79.37 1.59.75 2.39 1.11z" fill="#f5e9d4"/><path d="m119.62 74.82c-.04 2.55-1.48 4.13-3.07 5.62-.16.15-.42.26-.65.28-1.31.11-2.63.23-3.95.26-.24.01-.65-.34-.7-.58-.09-.49-.25-1.13.49-1.35.28-.08.59-.09.89-.1.6-.02 1.2 0 1.8-.02 2.34-.08 2.6-.31 2.94-2.67.17-1.1.23-1.14 2.25-1.44z" fill="#f5e9d4"/><path d="m106.07 78.42c.22-.56.33-1.02.57-1.41.13-.21.45-.41.69-.42 1.78-.09 3.57-.14 5.36-.16.21 0 .58.27.61.46.08.49.3 1.09-.34 1.43-.1.05-.23.1-.34.1-2.14 0-4.27 0-6.55 0z" fill="#f5e9d4"/><path d="m138.61 67.52c-1.11-.03-1.72-.4-1.95-1.59-.15-.79-.87-1.46-1.4-2.28.68-.16 1.47-.37 2.27-.51.15-.03.45.21.5.38.4 1.3.91 2.59.58 4z" fill="#f5e9d4"/><path d="m101.14 77.71c0-.3-.03-.6.01-.89.14-1.09 1.22-1.53 2.08-.83.14.12.2.4.21.61.01.29-.08.59-.12.88-.13 1.01-.78 1.54-1.78 1.38-.16-.03-.36-.26-.42-.44-.07-.21-.02-.47-.02-.7.02-.01.03-.01.04-.01z" fill="#f5e9d4"/><path d="m116.7 76.51c-.02 1.22-.51 1.77-1.53 1.7-.53-.04-1.04-.87-1-1.64.02-.4 1.18-.96 1.93-.94.46.02.61.24.6.88z" fill="#f5e9d4"/><path d="m103.54 79.35c-.1.48-.17.82-.24 1.16-.11.49.27 1.27-.43 1.37-.37.06-.88-.49-1.24-.85-.32-.31-.52-.74-.77-1.12.42-.19.81-.45 1.25-.55.43-.09.91-.01 1.43-.01z" fill="#f5e9d4"/><path d="m105.79 77.38c.05.58.02 1.09-.74 1.18-.8.1-1.13-.18-1.05-.98.03-.29.07-.61.21-.87.15-.28.39-.67.62-.7.5-.05.93.21.96.82.01.19 0 .37 0 .55z" fill="#f5e9d4"/><path d="m105.75 80.13c.02.9-.32 1.27-1.12 1.27-.61 0-.65-.41-.65-.85 0-.9.38-1.33 1.12-1.29.48.02.64.24.65.87z" fill="#f5e9d4"/><path d="m110.46 79.55c.03.95.04 1.49-.75 1.49-.49 0-.95.01-1-.67-.05-.84.29-1.32 1-1.35.54-.02.74.23.75.53z" fill="#f5e9d4"/><path d="m106.36 79.93c-.1-.51.13-.75.67-.76.69-.01.9.22.91 1 .01.56-.16.93-.81.91-.61-.02-.76-.22-.77-1.15z" fill="#f5e9d4"/><path d="m146.44 71.23c-.96 0-1.92.02-2.87-.02-.18-.01-.35-.27-.52-.42.2-.16.39-.41.61-.45.41-.07.84-.02 1.26-.03 2.15-.05 4.33.22 6.37-.75.16-.08.48.16.72.26-.11.2-.18.52-.33.57-.95.33-1.91.68-2.9.86-.75.14-1.55.03-2.33.03-.01-.01-.01-.03-.01-.05z" fill="#252723"/><path d="m156.92 67.94c1.61-.84 2.83-1.42 4-2.1.88-.51 1.71-1.11 2.2-2.07.08-.16.38-.21.58-.32.09.25.28.52.26.76-.02.28-.18.58-.37.79-1.41 1.55-3.19 2.5-5.2 3.02-.34.09-.71-.02-1.47-.08z" fill="#252723"/><path d="m104.44 62.44c-.12-.15-.33-.3-.38-.49-.18-.68.48-2.1 1.14-2.41.11-.05.51.22.5.24-.32.86-.66 1.71-1.01 2.55-.03.04-.11.05-.25.11z" fill="#252723"/><path d="m121.35 80.57c.61-1.37 1.22-2.47 1.57-3.64.25-.84.15-1.78.2-2.68.02-.36-.03-.73.05-1.07.04-.17.31-.42.46-.41.18.01.47.25.49.41.2 2.23.25 4.45-1.24 6.36-.37.46-.79.85-1.53 1.03z" fill="#252723"/><path d="m129.68 73.18c1.12 3.04.02 6.83-2.4 8.25-.25.15-.54.24-.82.32-.09.02-.29-.06-.3-.12-.04-.14-.05-.37.04-.46.2-.21.46-.37.7-.55 1.57-1.21 2.42-2.78 2.4-4.79-.01-.88 0-1.77 0-2.65.13-.01.25 0 .38 0z" fill="#252723"/><path d="m115.11 39.85c-2.5 2.62-4.6 5.62-7.34 7.99 1.23 1.01 2.73 1.69 4.3 1.96.05-3.29 2.21-6.18 4.59-8.45 1.81-1.73 3.51-3.86 4.65-6.01-2.4.89-4.45 2.68-6.2 4.51z" fill="#fff"/><path d="m156.48 34.66c1.29.74 2.66 1.78 2.74 3.26-2.5-.52-4.94-1.3-7.29-2.31-1.77-.77-3.5-1.67-5.37-2.18-2.78-.76-7.33.33-9.76-.9-1.99-1.01-.09-2.09 1.83-2.49 5.46-1.15 13.27 1.93 17.85 4.62z" fill="#fff"/><path d="m253.93 59.82c.42 1.93-.03 3.34-.97 4.68-.39.56-.64 1.35-.63 2.02.07 3.26.21 6.53.39 9.79.2 3.4-.45 6.67-1.49 9.87-.45 1.38-1.41 2.38-2.75 2.98-3.23 1.46-6.5 2.66-10.16 2.22-2.94-.35-5.88-.07-8.79.44-.87.16-1.73.5-2.54.88-3.68 1.72-7.48 2.69-11.6 2.55-4.25-.14-8.52-.09-12.69-1-7.12-1.56-12.16-6.1-16.36-11.76-.33-.45-.63-1.02-.68-1.56-.1-1.08-.43-1.89-1.27-2.7-.79-.76-.47-2 .01-3 1.72-3.59 3.98-6.77 7.11-9.28 1.59-1.28 3.2-2.56 4.83-3.79 1.01-.76 1.59-1.58 1.06-2.93-.29-.75-.37-1.59-.49-2.4-.19-1.31.04-2.01 1.23-2.32 3.16-.83 5-3.34 7.14-5.42 1.58-1.54 1.91-3.76 2.23-5.87.07-.45-.33-1.06-.67-1.48-.66-.83-1.49-1.53-2.14-2.36-2.09-2.66-1.27-5.6 1.98-6.55 1.69-.5 3.55-.69 5.32-.61 3.16.14 5.93-.65 8.58-2.35 4.57-2.93 8.56-6.58 12.6-10.15 3.51-3.1 7.54-3.99 11.87-2.91 3.87.97 7.59.83 11.38-.05 2.4-.55 4.82-.86 7.29-.77 3.76.13 7.46 3.14 8.3 6.83.15.64.36 1.27.43 1.91.21 1.69 1.07 2.83 2.61 3.59.87.43 1.68 1.02 2.41 1.66 1.55 1.34 1.64 3 .19 4.44-.86.86-1.85 1.63-2.88 2.27-1.24.77-2.14 1.77-2.64 3.12-1.01 2.76-2.06 5.51-2.95 8.31-.96 3.02-2.42 5.75-4.51 8.08-2.02 2.26-4.5 3.79-7.73 3.6-.9-.03-1.8.02-3.02.02zm-58.13 24.57c-1.21.05-2.43-.26-2.94-1.34-1-2.12-3.1-2.4-4.85-3.28-.13-.07-.65.31-.74.57-.09.24.09.65.26.9 1.54 2.26 3.18 4.43 5.48 6.01 1.01-1.04 1.9-1.95 2.79-2.86 1.61-.49 3.22-.96 4.82-1.49.23-.08.43-.43.49-.69.03-.15-.21-.5-.39-.55-1.63-.42-2.89-1.47-4.15-2.69-.28 1.96-.53 3.69-.77 5.42zm67.43-64.87c-2.28-.16-4.56-.39-6.84-.47-3.84-.13-7.67-.05-11.45-1.03-3.26-.84-6.53-.81-9.35 1.46-2.48 2-4.92 4.06-7.35 6.13-.59.5-.43 1.35.32 1.48.77.13 1.65.14 2.38-.09 4.61-1.47 9.32-2.46 14.14-2.87 3.66-.31 7.41-.8 10.97.31 2.94.91 5.72 2.36 8.56 3.61.26.12.38.56.87 1.32-2.81-1.25-5.06-2.33-7.38-3.25-1.42-.56-2.93-1.15-4.43-1.24-4.83-.29-9.66-.12-14.43.79-3.36.64-6.69 1.43-10.03 2.18-.19.04-.46.29-.47.45-.01.29.08.79.26.86.74.29 1.52.53 2.3.63 1.23.17 2.26.49 2.36 1.98.06.85.51 1.31 1.33 1.53 1.09.28 1.72.95 1.45 2.16-.13.59.26.6.65.77 1.62.7 1.73 1.04.73 2.48-.56.8-1.28 1.48-1.88 2.26s-.39 1.89.43 2.63c.69.62 1.22.16 1.7-.29 1.11-1.07 2.31-2.07 3.25-3.28 1.51-1.94 3.35-2.41 5.49-1.07.97.61 1.98.75 3.05.53 1.04-.21 2.06-.53 3.11-.7 1.37-.23 1.83-.06 2.25 1.22.42 1.27 1.37 1.76 2.43 2.2 1.31.54 2.06.23 2.42-1.09.29-1.1.48-2.24.62-3.37.29-2.3 1.55-3.9 3.5-5.02.35-.21.71-.4 1.08-.58.68-.32.85-.82.88-1.57.06-1.71.35-3.4.4-5.11.03-.87-.13-1.79-.44-2.61-.55-1.48-1.56-2.64-2.97-3.41.61.19 1.36.22 1.79.61 1.86 1.66 2.96 3.68 2.55 6.3-.16 1.04-.35 2.1-.35 3.15.01 1.45.32 1.71 1.73 1.77.9.04 1.81-.02 2.7.06.29.02.56.33.83.51-1.22.47-2.34.46-3.46.52-4.14.22-6.79 2.71-7.28 6.81-.05.45-.08.91-.12 1.42h1.41c2.25 0 2.74.32 3.17 2.51.27 1.35.3 2.75.42 4.13.07.84.09 1.68.13 2.51.18.03.37.05.55.08.29-.72.6-1.44.86-2.17 1-2.85 1.96-5.71 3-8.55.55-1.5 1.57-2.63 2.98-3.47.97-.58 1.89-1.31 2.7-2.11 1.02-1.01.97-1.74-.15-2.69-.74-.63-1.58-1.19-2.45-1.61-1.52-.74-2.43-1.89-2.74-3.54-.12-.64-.27-1.28-.4-1.92-.84-4.04-4.33-6.92-8.47-6.71-2.16.11-4.3.67-6.45 1.03.75.36 1.48.36 2.19.48 1.65.29 3.3.63 4.95.95zm-57.21 38.51c2.27 1.25 3.35 3.35 4.41 5.47.11.22.25.42.41.61.95 1.18 1.56 1.43 2.98.84 5.07-2.1 10.28-3.11 15.8-2.87 3.36.15 6.54-.59 8.63-3.66.22-.33.56-.6.89-.84 1-.72 2.09-.9 3.25-.46.38.15.72.39 1.1.55 1.25.52 2.24-.1 3.13-.85.75-.63 1.87-.94 1.59-2.41-.37-1.93.89-3.03 2.48-3.77 1.61-.75 3.2-1.16 4.87 0 2.08 1.45 3.11 3.86 1.63 6.65-.18.34-.24.73-.35 1.1.45.06.92.23 1.35.16 3.74-.63 5.97-3.16 7.72-6.25.2-.35.2-1.02-.01-1.36-.78-1.28-.73-2.66-.73-4.05 0-.98 0-1.97-.06-2.95-.05-.92-.27-1.82-1.22-2.24-.83-.36-1.97.12-2.77 1.12-.2.25-.37.54-.5.84-1.21 2.57-3.4 3.86-5.98 4.72-2.76.93-5.58 1.11-8.47 1.07-4.07-.05-7.64 1.19-10.8 3.91-2.03 1.75-4.35 3.21-6.71 4.5-2.52 1.38-5.29 2.21-8.25 1.9-2.31-.24-4.15-1.17-5.38-3.31-1.57-2.72-1.04-5.35-.03-8.02.55-1.45 1.22-2.86 1.72-4.33.58-1.71.99-3.47.25-5.28-.11-.27.08-.65.18-1.34 1.46 1.89 1.46 3.69 1.01 5.43-.48 1.89-1.14 3.76-1.92 5.55-.68 1.55-.92 3.13-.89 4.78.04 2.34 1.46 4.17 3.65 5.02 1.88.73 3.7.4 5.54-.09 4.14-1.11 7.48-3.64 10.73-6.27 1.76-1.42 3.58-2.61 5.83-2.94 2.26-.33 4.53-.71 6.8-.78 2.49-.08 4.89-.43 7.2-1.29 1.52-.57 2.97-1.33 3.72-3.04-.78-.29-1.53-.43-2.12-.81-.86-.57-1.87-1.18-2.32-2.03-.51-.97-1.09-1.08-1.95-.95-.48.07-.96.21-1.44.28-1.86.3-3.71.68-5.35-.79-.33-.29-1.06-.26-1.58-.17-.95.15-1.41.96-2.02 1.64-1.2 1.32-2.53 2.54-3.95 3.61-.46.35-1.48.37-2.04.11-1.75-.81-2.1-3.26-.82-4.73.67-.77 1.28-1.6 1.85-2.31-.79-.53-1.87-.96-1.84-1.28.14-1.47-.34-2.25-1.73-2.73-.39-.13-.74-.9-.79-1.4-.13-1.17-.79-1.52-1.81-1.55-.33-.01-.66 0-.98-.06-1.46-.27-1.87-.69-2.17-2.2-.03-.16-.01-.33-.05-.49-.27-1.16-.72-1.34-1.69-.66-1.74 1.22-3.45 2.49-5.24 3.63-1.15.74-2.41 1.29-3.7 1.97.81.52 1.51.97 2.21 1.42-.52.3-.92.32-1.29.22-1.49-.39-2.96-.89-4.46-1.2-2.31-.47-4.58.01-6.73.82-1.89.71-2.34 2.3-1.18 3.95.65.93 1.57 1.67 2.25 2.59.46.63 1.08 1.44 1.01 2.11-.25 2.52-.64 5.14-2.51 7.02-2.16 2.18-4.1 4.74-7.28 5.66-.75.22-1 .78-.89 1.52.16 1.05.26 2.12.5 3.15.31 1.3-.14 2.23-1.17 2.97-.53.38-1.07.76-1.58 1.17-2.51 1.96-5.09 3.85-7.08 6.4-.73.94-1.44 1.87-1.72 3.05 1.66.53 2.69.13 3.44-1.27.42-.77.96-1.61 2.52-1.9-1.14 1.43-1.96 2.46-3.05 3.83 1.78-.17 3.05-.38 4.32-.4 3.2-.06 3.2-.03 5.24-1.01-.34.83-.61 1.5-.95 2.34 1.89.1 3.68.69 4.42-1.69.5.68.88 1.62 1.28 1.63.91.02 1.97-.21 2.71-.72.61-.42.73-.45 1.33-.01 1.28.93 2.77.64 3.68-.52.36-.46.66-.49.83.07.25.85.83.86 1.54.78 2.68-.32 5.35-.62 8.03-.91 1.83-.2 2.03-.38 1.42-2.1-.92-2.61-.84-5.13.35-7.62.12-.26.14-.57.25-1.04-.6.04-1.02 0-1.38.11-3.05.9-6.13 1.72-9.12 2.8-1.47.53-2.53.3-3.53-.74-.45-.47-.99-.94-1.22-1.52-.99-2.47-2.48-4.55-4.68-6.09 1.65-1.33 3.18-2.53 4.68-3.77.92-.76 1.61-1.74 1.66-2.92.11-2.5.82-4.83 1.64-7.14.68-1.91.02-3.46-1.03-5.02-.9-1.33-2.29-1.47-4.23-1.61 2.22-.76 2.61-.74 3.75-.04 2.11 1.29 3.3 4.16 2.61 6.61-.73 2.59-1.63 5.13-1.79 7.87-.06 1.15-.79 2.13-1.73 2.88-1.3 1.09-2.62 2.16-4.13 3.37zm5.49 25.67v.19c-2.7 0-5.4-.1-8.1.03-3.15.15-6.17.85-8.59 3.08-1.01.93-1 1.35.12 2.06 3.92 2.49 8.05 4.34 12.83 4.25 1.05-.02 2.11.18 3.16.29 4.87.49 9.69.26 14.16-1.83 4.1-1.92 8.38-2.33 12.68-1.78 3.65.47 6.75-.63 9.91-2.02 1.3-.57 2.11-1.56 2.5-2.86.87-2.91 1.38-5.87 1.17-8.93-.21-3.09-.31-6.19-.48-9.29-.07-1.27.24-2.35 1.03-3.42 1.38-1.88 1.26-3.18-.4-4.76-.75-.71-1.69-1.41-2.65-1.62-.58-.13-1.38.68-2.07 1.1-1.22.74-2.38 1.27-3.9.58-2.11-.95-2.79-.82-4.25.99-2.1 2.6-4.85 3.45-8.01 3.46-1.31.01-2.62-.04-3.93.05-.38.03-.91.38-1.07.72-1.29 2.86-1.83 5.9-.09 8.65.85 1.34.91 2.68 1.12 4.02.51 3.31-1.62 6.19-4.88 6.72-1.6.26-3.25.26-4.88.3-1.79.06-3.59.02-5.38.02zm37.58-29.56c.4.8.58 1.56 1.04 2.01.75.73 1.68 1.28 2.56 1.88.65.44 1.36.57 2.06.12 2.19-1.41 2.48-4.1.64-5.88-1.61-1.57-3.01-1.64-4.96-.07-.56.45-.87 1.24-1.34 1.94zm-53.05 21.11c-1.52-.46-3.09-.15-4.68.22-.86.2-1 .67-.8 1.43.6 2.25 1.8 4.15 3.4 5.81.14.14.43.13.64.18.49-2.55.96-5.05 1.44-7.64zm22.84 2.19c.02-1.77-.19-2-1.91-1.88-.64.05-1.27.24-1.91.32-.98.11-1.14.75-1.06 1.56.12 1.24.74 1.69 2.65 1.93 1.68.23 2.21-.23 2.23-1.93zm-19.16-.95c-.16 0-.33-.02-.49 0-.62.1-1.23.22-1.85.33.19.68.28 1.42.61 2.03.53.96 1.43 1.53 2.55 1.7 1.54.24 1.87-.11 1.68-1.74-.05-.4-.06-.81-.05-1.22.03-.87-.47-1.12-1.23-1.11-.41.02-.81.01-1.22.01zm21.53 1.75c1.12-.41 2.27-.77 3.34-1.28.33-.15.63-.71.65-1.09.04-.68-.49-.97-1.14-.95-1.05.04-2.1.07-3.14.18-1.04.12-1.16.41-1.15 1.7.01.98.47 1.3 1.44 1.44zm-15.3-1.88c-.88.06-1.31-.01-1.67.14-.39.16-.94.46-1 .78-.09.48.05 1.14.34 1.53.32.41.91.65 1.43.86.82.33 1.73.72 2.44-.13.69-.82.29-1.79-.16-2.48-.31-.47-1.15-.59-1.38-.7zm18.17 4.91c-.68-1.1-1.61-1.64-2.75-1.94-.8-.21-1.58-.07-1.98.56-.35.55-.46 1.36-.38 2.02.03.24.9.51 1.4.54 1.33.08 2.55-.33 3.71-1.18zm-33.98-1.91c-.12-.93-.21-1.79-.36-2.65-.29-1.6-1.83-2.33-3.29-1.57-.84.44-1.22 1.88-.56 2.22 1.34.69 2.71 1.3 4.21 2zm20.44-3.24c0-.01 0-.02 0-.02-.16 0-.32-.01-.48 0-1.55.06-1.83.57-1.14 1.92.52 1 1.39 1.31 2.39 1.33.9.02 1.57-.75 1.66-1.74.08-.93-.32-1.34-1.46-1.47-.32-.05-.65-.02-.97-.02zm-.81 6.34c0-.02 0-.03 0-.05.64 0 1.31.11 1.92-.04.33-.08.69-.56.8-.93.14-.47-.03-.96-.66-1.05-.87-.13-1.73-.32-2.61-.38-.77-.05-1.7 1.07-1.54 1.82.16.78.84.57 1.37.62.23.03.48.01.72.01zm3.81-.68c.07.1.24.52.43.53 1.12.07 2.24.1 3.36.02.19-.01.49-.62.48-.93-.02-.31-.31-.78-.59-.88-.67-.23-1.41-.3-2.12-.41-1.11-.18-1.59.29-1.56 1.67zm-9.55.82c.16-.01.33 0 .48-.04.69-.18 1.9.47 1.96-.68.05-.96-1.16-.86-1.89-1.09-.23-.07-.45-.22-.68-.22-.67-.01-1.81 1.27-1.58 1.8.33.75.95.31 1.47.28.08-.01.16-.03.24-.05zm19.15-3.62c.42.36.61.61.87.73.72.33 1.07-.12 1.19-.73.04-.2-.3-.67-.36-.65-.51.13-.99.36-1.7.65z" fill="#252723"/><path d="m206.02 58.03c1.52-1.22 2.84-2.28 4.16-3.34.94-.75 1.66-1.73 1.73-2.88.16-2.74 1.05-5.27 1.79-7.87.69-2.45-.5-5.32-2.61-6.61-1.14-.7-1.53-.72-3.75.04 1.94.14 3.33.28 4.23 1.61 1.05 1.56 1.71 3.11 1.03 5.02-.82 2.31-1.54 4.64-1.64 7.14-.05 1.17-.75 2.16-1.66 2.92-1.5 1.23-3.02 2.44-4.68 3.77 2.2 1.53 3.69 3.61 4.68 6.09.23.58.77 1.05 1.22 1.52 1 1.04 2.06 1.27 3.53.74 2.99-1.08 6.07-1.9 9.12-2.8.37-.11.78-.06 1.38-.11-.11.47-.13.78-.25 1.04-1.19 2.49-1.27 5.01-.35 7.62.61 1.72.41 1.9-1.42 2.1-2.68.29-5.36.59-8.03.91-.71.08-1.29.07-1.54-.78-.17-.56-.47-.53-.83-.07-.91 1.16-2.4 1.44-3.68.52-.6-.43-.72-.4-1.33.01-.74.51-1.8.74-2.71.72-.4-.01-.77-.95-1.28-1.63-.74 2.38-2.53 1.79-4.42 1.69.34-.83.61-1.5.95-2.34-2.04.99-2.04.95-5.24 1.01-1.27.02-2.54.23-4.32.4 1.09-1.37 1.91-2.4 3.05-3.83-1.56.29-2.11 1.12-2.52 1.9-.75 1.4-1.78 1.8-3.44 1.27.28-1.18.99-2.11 1.72-3.05 1.99-2.55 4.57-4.44 7.08-6.4.52-.4 1.05-.79 1.58-1.17 1.03-.74 1.48-1.67 1.17-2.97-.24-1.03-.34-2.1-.5-3.15-.11-.75.14-1.31.89-1.52 3.18-.92 5.11-3.48 7.28-5.66 1.86-1.88 2.26-4.5 2.51-7.02.07-.67-.55-1.48-1.01-2.11-.68-.92-1.59-1.66-2.25-2.59-1.16-1.65-.71-3.23 1.18-3.95 2.16-.82 4.42-1.29 6.73-.82 1.51.3 2.97.81 4.46 1.2.37.1.77.08 1.29-.22-.7-.45-1.4-.9-2.21-1.42 1.28-.67 2.55-1.23 3.7-1.97 1.79-1.15 3.5-2.41 5.24-3.63.96-.67 1.41-.5 1.69.66.04.16.01.33.05.49.3 1.5.71 1.93 2.17 2.2.32.06.65.05.98.06 1.02.03 1.69.38 1.81 1.55.05.51.4 1.27.79 1.4 1.39.48 1.87 1.26 1.73 2.73-.03.32 1.05.75 1.84 1.28-.57.71-1.18 1.54-1.85 2.31-1.28 1.46-.93 3.92.82 4.73.56.26 1.58.24 2.04-.11 1.42-1.07 2.75-2.29 3.95-3.61.61-.67 1.07-1.48 2.02-1.64.51-.08 1.25-.12 1.58.17 1.64 1.47 3.49 1.09 5.35.79.48-.08.96-.21 1.44-.28.86-.13 1.44-.02 1.95.95.45.85 1.46 1.46 2.32 2.03.58.39 1.33.53 2.12.81-.76 1.71-2.21 2.47-3.72 3.04-2.31.87-4.72 1.22-7.2 1.29-2.27.07-4.54.44-6.8.78-2.25.33-4.08 1.52-5.83 2.94-3.25 2.63-6.58 5.16-10.73 6.27-1.84.49-3.66.82-5.54.09-2.19-.85-3.61-2.68-3.65-5.02-.03-1.64.22-3.23.89-4.78.78-1.79 1.44-3.66 1.92-5.55.44-1.74.44-3.53-1.01-5.43-.1.69-.29 1.07-.18 1.34.74 1.81.33 3.56-.25 5.28-.5 1.47-1.17 2.88-1.72 4.33-1.01 2.67-1.54 5.3.03 8.02 1.23 2.14 3.06 3.07 5.38 3.31 2.96.31 5.73-.51 8.25-1.9 2.36-1.29 4.68-2.75 6.71-4.5 3.16-2.72 6.73-3.96 10.8-3.91 2.89.04 5.71-.14 8.47-1.07 2.58-.87 4.77-2.16 5.98-4.72.14-.29.3-.59.5-.84.8-1 1.94-1.49 2.77-1.12.95.42 1.17 1.32 1.22 2.24.06.98.06 1.97.06 2.95 0 1.39-.05 2.77.73 4.05.21.34.21 1.01.01 1.36-1.75 3.09-3.99 5.62-7.72 6.25-.43.07-.9-.1-1.35-.16.11-.37.17-.77.35-1.1 1.47-2.79.45-5.2-1.63-6.65-1.66-1.16-3.26-.75-4.87 0-1.59.74-2.85 1.84-2.48 3.77.28 1.48-.84 1.78-1.59 2.41-.9.75-1.88 1.37-3.13.85-.38-.16-.72-.4-1.1-.55-1.16-.44-2.26-.25-3.25.46-.33.24-.67.51-.89.84-2.1 3.07-5.27 3.81-8.63 3.66-5.51-.24-10.73.77-15.8 2.87-1.42.59-2.03.34-2.98-.84-.15-.19-.3-.39-.41-.61-1.09-2.15-2.17-4.25-4.44-5.5z" fill="#eed6a2"/><g fill="#f5e9d4"><path d="m211.51 83.7c1.79 0 3.59.04 5.38-.01 1.63-.04 3.28-.04 4.88-.3 3.27-.53 5.39-3.42 4.88-6.72-.21-1.34-.27-2.68-1.12-4.02-1.74-2.75-1.19-5.79.09-8.65.15-.34.69-.69 1.07-.72 1.3-.09 2.62-.04 3.93-.05 3.16-.01 5.91-.87 8.01-3.46 1.46-1.81 2.14-1.94 4.25-.99 1.52.69 2.68.16 3.9-.58.68-.42 1.49-1.22 2.07-1.1.96.21 1.91.91 2.65 1.62 1.66 1.58 1.78 2.88.4 4.76-.78 1.07-1.1 2.15-1.03 3.42.17 3.1.27 6.19.48 9.29.21 3.07-.3 6.02-1.17 8.93-.39 1.3-1.2 2.29-2.5 2.86-3.16 1.39-6.26 2.48-9.91 2.02-4.3-.55-8.58-.14-12.68 1.78-4.47 2.09-9.3 2.32-14.16 1.83-1.05-.11-2.11-.31-3.16-.29-4.78.09-8.91-1.76-12.83-4.25-1.11-.71-1.13-1.13-.12-2.06 2.42-2.23 5.44-2.93 8.59-3.08 2.69-.13 5.4-.03 8.1-.03 0-.07 0-.13 0-.2zm27.23-.97c.31.11.51.25.59.2 2.01-1.11 3.92-2.35 5.34-4.23 2.88-3.79 4.07-8.13 4.23-12.82.05-1.41-.09-2.78-.84-4.01-.14-.22-.53-.3-.8-.44-.08.29-.31.65-.21.87.95 2.13.79 4.29.41 6.5-.76 4.49-2.46 8.46-6.02 11.48-.91.78-1.76 1.6-2.7 2.45z"/><path d="m263.13 19.45c1.41.77 2.42 1.93 2.97 3.41.3.81.46 1.74.44 2.61-.05 1.71-.34 3.4-.4 5.11-.03.75-.2 1.25-.88 1.57-.37.17-.73.37-1.08.58-1.95 1.13-3.21 2.72-3.5 5.02-.14 1.13-.32 2.27-.62 3.37-.35 1.32-1.11 1.63-2.42 1.09-1.06-.44-2.01-.93-2.43-2.2-.42-1.28-.88-1.45-2.25-1.22-1.05.18-2.07.49-3.11.7-1.08.22-2.08.08-3.05-.53-2.14-1.34-3.97-.87-5.49 1.07-.94 1.2-2.14 2.21-3.25 3.28-.48.46-1.01.92-1.7.29-.82-.74-1.02-1.85-.43-2.63.6-.78 1.32-1.46 1.88-2.26 1-1.44.89-1.78-.73-2.48-.39-.17-.78-.18-.65-.77.27-1.21-.37-1.88-1.45-2.16-.83-.21-1.28-.68-1.33-1.53-.1-1.49-1.13-1.81-2.36-1.98-.78-.11-1.56-.35-2.3-.63-.18-.07-.26-.56-.26-.86 0-.16.28-.41.47-.45 3.34-.75 6.67-1.54 10.03-2.18 4.77-.91 9.6-1.07 14.43-.79 1.5.09 3.01.68 4.43 1.24 2.32.92 4.57 2 7.38 3.25-.49-.77-.61-1.21-.87-1.32-2.83-1.25-5.61-2.7-8.56-3.61-3.56-1.11-7.31-.62-10.97-.31-4.82.41-9.53 1.41-14.14 2.87-.74.23-1.61.23-2.38.09-.75-.13-.91-.98-.32-1.48 2.43-2.06 4.87-4.12 7.35-6.13 2.82-2.27 6.09-2.3 9.35-1.46 3.78.98 7.61.89 11.45 1.03 2.28.08 4.56.31 6.84.47z"/><path d="m263.23 19.52c-1.65-.32-3.3-.66-4.96-.94-.71-.12-1.44-.11-2.19-.48 2.15-.36 4.29-.92 6.45-1.03 4.14-.22 7.62 2.66 8.47 6.71.13.64.28 1.28.4 1.92.31 1.65 1.21 2.79 2.74 3.54.87.43 1.71.98 2.45 1.61 1.11.95 1.16 1.68.15 2.69-.81.8-1.72 1.53-2.7 2.11-1.41.84-2.43 1.96-2.98 3.47-1.04 2.83-1.99 5.7-3 8.55-.26.73-.57 1.45-.86 2.17-.18-.03-.37-.05-.55-.08-.04-.84-.06-1.68-.13-2.51-.11-1.38-.15-2.78-.42-4.13-.43-2.19-.92-2.51-3.17-2.51-.4 0-.8 0-1.41 0 .04-.51.07-.96.12-1.42.49-4.1 3.14-6.59 7.28-6.81 1.12-.06 2.24-.05 3.46-.52-.28-.18-.54-.49-.83-.51-.9-.07-1.8-.01-2.7-.06-1.41-.07-1.72-.32-1.73-1.77 0-1.05.19-2.11.35-3.15.41-2.62-.7-4.64-2.55-6.3-.43-.39-1.18-.42-1.79-.61z"/><path d="m249.09 54.14c.47-.7.78-1.49 1.35-1.95 1.96-1.56 3.35-1.49 4.96.07 1.84 1.79 1.55 4.48-.64 5.88-.7.45-1.41.32-2.06-.12-.88-.6-1.81-1.15-2.56-1.88-.47-.44-.65-1.19-1.05-2z"/><path d="m196.04 75.25c-.48 2.59-.95 5.09-1.43 7.64-.21-.05-.5-.04-.64-.18-1.6-1.66-2.8-3.56-3.4-5.81-.2-.76-.06-1.23.8-1.43 1.58-.37 3.15-.68 4.67-.22z"/><path d="m195.79 84.39c-.89.91-1.77 1.83-2.78 2.87-2.3-1.58-3.94-3.75-5.48-6.01-.17-.26-.35-.66-.26-.9.09-.26.61-.64.74-.57 1.75.88 3.85 1.17 4.85 3.28.51 1.07 1.72 1.38 2.93 1.33z"/><path d="m218.88 77.44c-.02 1.7-.55 2.15-2.24 1.94-1.91-.24-2.52-.69-2.65-1.93-.08-.81.08-1.45 1.06-1.56.64-.07 1.27-.27 1.91-.32 1.73-.13 1.94.1 1.92 1.87z"/><path d="m199.72 76.49c.41 0 .81.01 1.22 0 .76-.02 1.26.24 1.23 1.11-.01.41 0 .82.05 1.22.19 1.63-.13 1.98-1.68 1.74-1.12-.17-2.02-.74-2.55-1.7-.33-.6-.42-1.35-.61-2.03.62-.11 1.23-.23 1.85-.33.16-.04.33-.01.49-.01z"/><path d="m195.8 84.39c.24-1.73.49-3.46.77-5.43 1.26 1.23 2.52 2.27 4.15 2.69.18.05.42.4.39.55-.06.26-.27.62-.49.69-1.6.54-3.22 1.01-4.82 1.5z"/><path d="m221.25 78.24c-.97-.14-1.43-.46-1.43-1.43-.01-1.28.1-1.58 1.15-1.7 1.04-.12 2.1-.14 3.14-.18.64-.02 1.18.27 1.14.95-.02.39-.32.94-.65 1.09-1.09.5-2.23.85-3.35 1.27z"/><path d="m205.95 76.36c.23.11 1.07.23 1.39.71.46.69.85 1.66.16 2.48-.72.85-1.63.45-2.44.13-.52-.21-1.11-.45-1.43-.86-.3-.38-.43-1.04-.34-1.53.06-.32.61-.63 1-.78.35-.15.78-.09 1.66-.15z"/><path d="m224.12 81.27c-1.16.85-2.38 1.26-3.71 1.18-.5-.03-1.37-.3-1.4-.54-.08-.66.03-1.47.38-2.02.4-.63 1.18-.76 1.98-.56 1.14.3 2.07.84 2.75 1.94z"/><path d="m190.14 79.36c-1.49-.7-2.87-1.31-4.21-2-.66-.34-.28-1.78.56-2.22 1.45-.76 3-.03 3.29 1.57.15.86.23 1.73.36 2.65z"/><path d="m210.58 76.12c.32 0 .65-.03.97.01 1.14.13 1.54.54 1.46 1.47-.08.99-.76 1.76-1.66 1.74-1-.02-1.87-.32-2.39-1.33-.7-1.35-.42-1.86 1.14-1.92.16-.01.32 0 .48 0z"/><path d="m209.77 82.46c-.24 0-.48.02-.72 0-.53-.05-1.21.16-1.37-.62-.15-.75.77-1.87 1.54-1.82.87.05 1.74.25 2.61.38.63.09.8.58.66 1.05-.11.37-.47.85-.8.93-.61.15-1.28.04-1.92.04z"/><path d="m213.58 81.78c-.03-1.38.46-1.85 1.55-1.68.71.11 1.45.18 2.12.41.28.1.57.56.59.88s-.28.92-.48.93c-1.11.08-2.24.06-3.36-.02-.18 0-.35-.42-.42-.52z"/><path d="m204.03 82.61c-.08.01-.16.03-.24.04-.52.04-1.14.47-1.47-.28-.23-.53.91-1.81 1.58-1.8.23 0 .45.15.68.22.73.24 1.94.13 1.89 1.09-.06 1.16-1.27.5-1.96.68-.15.04-.32.03-.48.05z"/><path d="m223.18 78.98c.71-.29 1.19-.51 1.7-.65.06-.02.4.46.36.65-.12.61-.47 1.06-1.19.73-.25-.12-.45-.37-.87-.73z"/></g><path d="m238.74 82.73c.93-.85 1.79-1.67 2.7-2.44 3.56-3.02 5.26-6.98 6.02-11.48.37-2.21.54-4.38-.41-6.5-.1-.21.13-.58.21-.87.27.14.66.21.8.44.75 1.23.89 2.6.84 4.01-.16 4.69-1.35 9.02-4.23 12.82-1.42 1.87-3.33 3.11-5.34 4.23-.08.04-.28-.1-.59-.21z" fill="#252723"/><path d="m209.06 34.14c-.42 0-.87.01-1.21.26s-.47.82-.14 1.08c1.78.31 12.57 3.09 12.72 1.16.17-2.18-9.8-2.49-11.37-2.5z" fill="#fff"/><path d="m194.68 69.57c1.94-1.04 3.99-2.18 5.06-4.11 1.39-2.51.73-5.62.03-8.41 1.52 3.36 3.29 6.61 5.29 9.72-3.57 1.45-7.4 2.27-11.25 2.39" fill="#fff"/><path d="m63.23 32.69c2.1.21 4.57.15 6.88.74 3.85 1 7.01 3.11 8.84 6.88 1.02 2.1 2.26 4.1 3.44 6.12.34.57.79 1.1 1.27 1.56 1.7 1.61 2.04 3.18 1.08 5.31-.28.62-.63 1.21-.95 1.81-1.38 2.6-2.76 5.21-4.14 7.81-.71 1.33-1.61 2.29-3.28 2.43-1.88.16-3.4 1.29-4.82 2.39-2.5 1.95-4.9 2.07-7.47.2-.99-.72-1.4-.64-2.02.4-.61 1.02-1.12 2.14-1.45 3.28-.81 2.75-1.53 5.53-2.22 8.31-.32 1.31-1.11 2.15-2.33 2.55-1.58.51-3.17 1.02-4.79 1.35-3.33.68-6.7 1.17-10.02 1.88-1.54.33-3.09.83-4.49 1.54-2.61 1.33-5.37 2.04-8.22 2.43-2.02.28-4.06.42-6.09.54-3.14.18-5.77-1.02-7.97-3.2-3.28-3.26-6.35-6.71-9.05-10.47-.22-.31-.42-.63-.61-.96-.89-1.57-1.57-3.1.19-4.62.55-.47.85-1.24 1.21-1.91 1.9-3.56 5.01-5.72 8.42-7.69 3.4-1.96 6.6-4.28 9.84-6.51.5-.35.81-1.03 1.11-1.6.24-.46.36-.99.5-1.5.56-1.99 1.68-3.56 3.55-4.5 1.35-.68 2.14-1.57 1.91-3.21-.09-.64.13-1.35.32-1.99.55-1.84 1.54-2.84 3.41-2.72 3.16.21 5.82-.77 8.56-2.23 3.74-1.98 7.79-3.36 12.03-3.92 2.34-.31 4.7-.33 7.36-.5zm-55.32 35.9c-.5.7-.95 1.5-1.55 2.16-1.52 1.69-1.06 3.29.07 4.91.09.12.19.24.28.36 2.86 3.85 6.18 7.27 9.65 10.55 2.32 2.19 5.23 2.55 8.28 2.2.82-.1 1.65-.22 2.47-.35 3.07-.47 6.11-.96 8.92-2.46 1.32-.71 2.8-1.2 4.26-1.51 3.47-.74 6.98-1.29 10.47-1.96 1.26-.24 2.5-.58 3.74-.9 1.52-.39 2.49-1.28 2.85-2.88.57-2.51 1.18-5.01 1.91-7.47.38-1.29.97-2.53 1.61-3.71.61-1.11 1.58-1.76 2.96-1.78.68-.01 1.35-.37 2.44-.7-3.88-.85-4.18-1.07-5.66-4.06-1.04.6-2.12 1.13-3.09 1.82-2.14 1.51-4.51 2.47-7.03 3.08-2.56.62-5.09 1.6-7.78.63-1.21-.43-2.44-.81-3.6-1.34-1.1-.51-2.18-.58-3.31-.27-.66.18-1.3.41-1.94.63-3.68 1.25-6.68-.56-8.37-3.61-.42-.75-.5-2.1-.09-2.8.89-1.54 2.18-2.84 3.33-4.23.02-.03.24.11.5.24-.82 1.17-1.67 2.3-2.44 3.48-1.04 1.6-.96 2.11.24 3.65 1.65 2.12 3.86 3.32 7.01 2.04 2.17-.88 4.2-.84 6.32.23 1.98 1.01 4.17 1.57 6.39 1.13 3.56-.71 7.04-1.64 10.17-3.7 2.13-1.4 4.5-2.49 6.85-3.53 1.15-.51 2.47-.69 3.74-.84 1.18-.14 2.37.19 2.93 1.33.59 1.21.5 2.48-.41 3.63-1.32 1.67-2.64 3.32-4.74 4.16 1.81 1.48 2.71 1.62 4.35.7.46-.26.87-.62 1.35-.84 2.8-1.25 4.43-3.43 5.43-6.3.56-1.61.69-3.03-.2-4.63-2.43 1.3-4.98.68-7.38.29-3.72-.62-7.11.01-10.28 1.8-3.56 2.01-7.46 2.91-11.37 3.74-1.66.35-3.49.23-5.2.02-2.8-.34-4.24-2.17-4.07-5 .08-1.4.42-2.78.64-4.18-.89-.24-1.74-.46-2.6-.69-.94 1.33-1.79 2.67-2.78 3.91-.56.7-1.3 1.25-2.02 1.8-.16.12-.54-.04-.81-.08.11-.24.14-.58.33-.71 1.9-1.38 3-3.38 4.18-5.32.47-.77.43-1.35-.4-1.91-.93-.62-1.76-1.38-2.63-2.07-2.73 1.1-4.49 3-5.05 5.94-.04.22-.11.45-.23.64-.4.61-.69 1.43-1.26 1.77-2.54 1.53-4.27 3.84-6.08 6.06-1.9 2.35-3.39 4.97-4.7 7.83.63.2 1.11.42 1.61.5 2.38.4 4.76.8 7.15 1.12 2.02.27 4.05.46 6.08.64 1.65.14 3.31.28 4.97.26 2.09-.03 3.86-.61 4.3-3.09.14-.8.64-1.53 1.01-2.28.12-.23.38-.38.97-.95-.16.98-.16 1.49-.34 1.92-.81 1.96-1.71 3.88-2.52 5.84-1.59 3.85-4.49 6.21-8.39 7.39-1.64.49-3.32.55-4.93-.41 2.71.13 5.28-.24 7.6-1.68 2.29-1.42 3.94-3.37 4.76-5.94-2.19.04-4.23.25-6.24.07-3.46-.31-6.89-.85-10.33-1.32-1.43-.2-1.44-.23-1.94 1.1-.16.42-.24.88-.42 1.29-.69 1.6-1.28 3.25-2.14 4.75-.95 1.66-2.56 1.57-3.23-.17-.51-1.31-.81-2.77-.86-4.18-.05-1.3.36-2.63.57-3.94-1.24-.54-2.48-1.08-3.72-1.62-.13-.04-.27-.09-.56-.2zm49.76-34.78c.74 3.72-.5 7.24.19 10.75.12.61-.28 1.31-.41 1.97-.18.89-.42 1.77-.47 2.67-.08 1.32.6 2.09 1.9 2.38 1.12.25 2.12.05 2.89-.84 1.19-1.39 2.68-1.21 4.16-.75 1 .31 1.98.78 2.9 1.29 1.5.83 3.08 1.16 4.77 1.25 1.18.06 2.35.36 3.73.58.91-.76 1.36-2.03 1.78-3.33.07-.2.44-.3.68-.45.11.25.37.58.3.75-.55 1.23-1.09 2.47-1.79 3.61-.54.87-.96 1.59-.63 2.71.47 1.55.31 3.09-.47 4.61-.47.93-1.12 1.9-1.07 3.11 1.74-.45 1.84-.51 2.53-1.8 1.32-2.47 2.61-4.94 3.91-7.42.46-.87.97-1.72 1.33-2.63.58-1.48.27-2.33-.89-3.43-.64-.61-1.3-1.28-1.7-2.06-.46-.91-.89-1.13-1.91-.86-1.1.29-2.08-.37-2.82-1.16-1.18-1.27-2.25-2.65-3.41-3.93-.81-.89-1.58-1.92-2.59-2.51-.91-.53-2.12-.56-3.27-.82 2.08-.99 3.74-.28 5.15 1.19.94.98 1.73 2.1 2.64 3.12.8.9 1.61 1.82 2.55 2.57.47.38 1.22.45 1.86.54.13.02.54-.65.47-.77-1.32-2.1-2.46-4.4-4.13-6.2-2.61-2.82-6.03-4.2-9.96-4.17-2.67.06-5.38.03-8.22.03zm-18.58 12.69c.96.61 1.36 1.53 1.65 2.55.45 1.57.47 1.58 2.14 1.6 1.97.02 3.94.01 5.91.01.79 0 1.56.09 1.79 1.03.22.9.86.91 1.58.88 1.08-.05 2.08-.3 3-.91.47-.32.72-.62.79-1.24.19-1.71.53-3.41.76-5.11.11-.81.29-1.68.12-2.45-.33-1.44-.39-2.81.02-4.25.27-.96-.29-1.43-1.28-1.04-1.26.5-2.46 1.17-3.69 1.75-3.29 1.53-6.59 3.05-9.89 4.55-1.38.63-2.82.66-4.16-.08-1.52-.84-2.89-.52-4.3.25-1.23.67-1.5 1.9-.47 2.87.74.71 1.64 1.25 2.88 2.18-.05-1.06.12-1.74-.14-2.14-.43-.67-1.13-1.17-1.72-1.74.55-.55 1.14-.3 1.61.08.78.65 1.28 1.49 1.26 2.56-.01.68-.11 1.36-.07 2.04.05.92.69 1.35 1.56 1.14 1.21-.3 1.6-1.17 1.12-2.45-.26-.64-1.18-1.11-.47-2.08zm36.98 7.47c-.65-.09-1.01-.19-1.38-.18-2.48.03-4.79-.54-6.93-1.8-.58-.34-1.26-.52-1.86-.83-1.29-.67-2.38-.62-3.49.48-.6.59-1.54 1.15-2.34 1.17-1.16.03-2.35-.73-3.49-.64-1.23.09-2.4.78-3.61 1.19-.21.07-.46.07-.68.03-1.57-.26-2.28.93-3.15 1.85-.82.88-.07 1.71.13 2.55.15.64.42 1.24.64 1.86 2.92-.55 5.56-1.41 8.01-2.85 3.64-2.13 7.57-2.41 11.65-1.86 1.27.17 2.56.21 3.84.27.93.04 1.8-.13 2.66-1.24zm-31.13-2.32c0-.03 0-.05 0-.08-1.13 0-2.27.04-3.4-.01-.89-.04-1.48.32-1.73 1.13-.35 1.15-.67 2.32-.92 3.49-.4 1.88.2 3.28 2.4 3.99 1.33.42 2.82.49 4.23.47 3.13-.03 3.44-.48 2.53-3.39-.37-1.2-.3-2.2.66-3.1.3-.29.48-.75.62-1.16.36-1.01.23-1.28-.76-1.33-1.21-.06-2.42-.01-3.63-.01zm-12.09-8.26c2.09-1.35 3.96-1.6 5.92-.33.92.59 1.91.26 2.82-.16 3.5-1.6 6.98-3.24 10.48-4.84 1.23-.56 2.47-1.12 3.75-1.53.76-.24 1.27-.49 1.11-1.36s-.81-.99-1.55-.92c-.22.02-.45.05-.67.11-4.54 1.18-8.99 2.59-13.01 5.09-.87.54-1.76.8-2.78.75-1.06-.05-2.12-.08-3.17.01-1.96.18-2.54.79-2.9 3.18zm-13.83 16.66c-2.38 1.42-4.53 2.62-6.59 3.95-1.06.69-2.03 1.55-2.94 2.44-1.04 1.01-.9 1.53.41 2.14.14.06.28.12.42.17 2.44.92 2.8.79 4.17-1.42 1.42-2.3 2.86-4.59 4.53-7.28zm46.42 3.7c2.01-.04 3.35-.89 4.06-2.29.74-1.46.14-2.58-1.48-2.7-1.7-.13-3.3.26-4.81 1.05-1.43.75-1.62 2.1-.28 2.98.86.54 1.94.75 2.51.96zm-53.04 11.04c.31 1.11.54 2.22.94 3.27.38.98 1.12 1 1.62.03.72-1.42 1.37-2.87 1.91-4.37.88-2.47.7-2.68-1.99-3.02-.15-.02-.3-.03-.45-.05-.61-.06-1.02.18-1.17.8-.28 1.1-.56 2.19-.86 3.34z" fill="#252723"/><path d="m7.91 68.59c.29.11.43.16.56.22 1.24.54 2.48 1.08 3.72 1.62-.21 1.31-.62 2.63-.57 3.94.05 1.41.35 2.86.86 4.18.67 1.74 2.28 1.82 3.23.17.86-1.5 1.45-3.15 2.14-4.75.18-.41.26-.87.42-1.29.5-1.33.5-1.3 1.94-1.1 3.44.47 6.88 1.01 10.33 1.32 2.01.18 4.05-.03 6.24-.07-.83 2.58-2.47 4.52-4.76 5.94-2.31 1.43-4.89 1.81-7.6 1.68 1.61.95 3.29.9 4.93.41 3.9-1.18 6.81-3.54 8.39-7.39.81-1.96 1.71-3.88 2.52-5.84.18-.43.17-.94.34-1.92-.59.56-.85.72-.97.95-.38.74-.87 1.48-1.01 2.28-.45 2.48-2.21 3.06-4.3 3.09-1.65.02-3.32-.12-4.97-.26-2.03-.17-4.06-.36-6.08-.64-2.39-.32-4.77-.72-7.15-1.12-.5-.08-.98-.3-1.61-.5 1.32-2.86 2.8-5.48 4.7-7.83 1.8-2.23 3.54-4.53 6.08-6.06.57-.34.86-1.16 1.26-1.77.12-.19.19-.42.23-.64.56-2.93 2.32-4.84 5.05-5.94.86.69 1.69 1.46 2.63 2.07.84.55.87 1.14.4 1.91-1.18 1.94-2.28 3.94-4.18 5.32-.18.13-.22.47-.33.71.28.03.65.2.81.08.71-.55 1.46-1.11 2.02-1.8.99-1.24 1.85-2.58 2.78-3.91.85.23 1.71.46 2.6.69-.22 1.4-.56 2.78-.64 4.18-.17 2.83 1.27 4.65 4.07 5 1.71.21 3.54.33 5.2-.02 3.91-.83 7.81-1.73 11.37-3.74 3.17-1.79 6.55-2.42 10.28-1.8 2.39.4 4.95 1.01 7.38-.29.9 1.6.77 3.02.2 4.63-1 2.87-2.62 5.05-5.43 6.3-.48.21-.89.58-1.35.84-1.64.92-2.54.79-4.35-.7 2.1-.84 3.42-2.49 4.74-4.16.91-1.15 1-2.41.41-3.63-.55-1.14-1.75-1.47-2.93-1.33-1.27.15-2.59.33-3.74.84-2.35 1.04-4.71 2.12-6.85 3.53-3.13 2.06-6.6 2.99-10.17 3.7-2.22.44-4.41-.12-6.39-1.13-2.12-1.08-4.15-1.11-6.32-.23-3.15 1.28-5.36.08-7.01-2.04-1.2-1.53-1.28-2.05-.24-3.65.77-1.18 1.62-2.31 2.44-3.48-.26-.13-.48-.27-.5-.24-1.14 1.39-2.44 2.69-3.33 4.23-.41.7-.33 2.05.09 2.8 1.69 3.04 4.69 4.86 8.37 3.61.64-.22 1.29-.46 1.94-.63 1.13-.3 2.21-.23 3.31.27 1.16.53 2.4.91 3.6 1.34 2.69.96 5.22-.01 7.78-.63 2.52-.61 4.89-1.57 7.03-3.08.97-.69 2.05-1.22 3.09-1.82 1.48 2.99 1.78 3.21 5.66 4.06-1.09.33-1.77.69-2.44.7-1.38.02-2.35.67-2.96 1.78-.65 1.18-1.23 2.43-1.61 3.71-.73 2.46-1.34 4.96-1.91 7.47-.36 1.6-1.33 2.49-2.85 2.88-1.24.32-2.48.66-3.74.9-3.49.67-7 1.22-10.47 1.96-1.47.31-2.95.8-4.26 1.51-2.81 1.51-5.85 1.99-8.92 2.46-.82.13-1.64.25-2.47.35-3.05.35-5.96-.01-8.28-2.2-3.47-3.28-6.79-6.71-9.65-10.55-.09-.12-.19-.24-.28-.36-1.14-1.62-1.6-3.22-.07-4.91.6-.68 1.06-1.48 1.55-2.18zm24.29 13.86c.08.17.16.34.24.5 3.09-.4 5.48-2.05 7.4-4.5.14-.18.06-.54.09-.81-.32.06-.78.01-.93.21-1.61 2.01-3.67 3.34-6.09 4.16-.27.08-.48.29-.71.44z" fill="#eed6a2"/><path d="m57.67 33.81c2.84 0 5.55.02 8.26 0 3.92-.04 7.34 1.35 9.96 4.17 1.67 1.8 2.8 4.09 4.13 6.2.08.12-.34.79-.47.77-.64-.09-1.39-.16-1.86-.54-.93-.75-1.74-1.67-2.55-2.57-.91-1.01-1.7-2.14-2.64-3.12-1.41-1.47-3.07-2.17-5.15-1.19 1.15.27 2.36.29 3.27.82 1.01.59 1.78 1.61 2.59 2.51 1.16 1.29 2.23 2.66 3.41 3.93.74.79 1.72 1.45 2.82 1.16 1.02-.27 1.45-.05 1.91.86.39.78 1.05 1.45 1.7 2.06 1.16 1.1 1.47 1.95.89 3.43-.36.91-.87 1.76-1.33 2.63-1.3 2.47-2.6 4.95-3.91 7.42-.69 1.29-.79 1.34-2.53 1.8-.05-1.22.6-2.19 1.07-3.11.78-1.52.93-3.06.47-4.61-.34-1.12.09-1.84.63-2.71.71-1.14 1.24-2.38 1.79-3.61.08-.17-.19-.5-.3-.75-.23.15-.61.24-.68.45-.42 1.3-.87 2.57-1.78 3.33-1.38-.23-2.55-.52-3.73-.58-1.69-.09-3.28-.42-4.77-1.25-.92-.51-1.9-.97-2.9-1.29-1.48-.46-2.97-.65-4.16.75-.77.9-1.77 1.09-2.89.84-1.3-.29-1.98-1.06-1.9-2.38.06-.9.3-1.78.47-2.67.13-.66.53-1.37.41-1.97-.73-3.54.51-7.05-.23-10.78z" fill="#f5e9d4"/><path d="m39.09 46.5c-.71.97.21 1.45.46 2.09.49 1.28.1 2.15-1.12 2.45-.86.21-1.5-.22-1.56-1.14-.04-.68.06-1.36.07-2.04.02-1.07-.47-1.91-1.26-2.56-.47-.38-1.06-.64-1.61-.08.59.58 1.29 1.07 1.72 1.74.26.4.09 1.08.14 2.14-1.24-.93-2.14-1.48-2.88-2.18-1.02-.97-.75-2.2.47-2.87 1.41-.77 2.78-1.09 4.3-.25 1.34.74 2.77.7 4.16.08 3.3-1.5 6.6-3.02 9.89-4.55 1.24-.57 2.43-1.24 3.69-1.75.99-.39 1.56.08 1.28 1.04-.41 1.43-.35 2.8-.02 4.25.17.77-.01 1.64-.12 2.45-.23 1.71-.58 3.4-.76 5.11-.07.62-.32.92-.79 1.24-.92.62-1.92.87-3 .91-.72.03-1.36.02-1.58-.88-.23-.94-1-1.03-1.79-1.03-1.97 0-3.94.01-5.91-.01-1.67-.02-1.69-.03-2.14-1.6-.28-1.03-.68-1.95-1.64-2.56zm16.6-7.15c-.1-.18-.2-.35-.3-.53-.38.15-.78.26-1.13.47-1.67 1.02-3.38 1.99-4.98 3.12-1.54 1.09-3.16 1.67-5.05 1.56-.04 0-.1.2-.25.5 1.46.38 2.8.45 4.11-.35 1.35-.82 2.71-1.63 4.05-2.47 1.19-.75 2.37-1.53 3.55-2.3z" fill="#f5e9d4"/><path d="m76.07 53.97c-.86 1.11-1.73 1.29-2.65 1.25-1.28-.06-2.57-.1-3.84-.27-4.08-.54-8.01-.27-11.65 1.86-2.44 1.43-5.09 2.29-8.01 2.85-.22-.62-.49-1.23-.64-1.86-.2-.83-.95-1.67-.13-2.55.86-.92 1.58-2.11 3.15-1.85.22.04.47.04.68-.03 1.21-.41 2.38-1.1 3.61-1.19 1.14-.09 2.33.67 3.49.64.8-.02 1.73-.58 2.34-1.17 1.12-1.1 2.2-1.15 3.49-.48.6.31 1.28.49 1.86.83 2.14 1.27 4.45 1.83 6.93 1.8.36-.02.72.08 1.37.17z" fill="#f5e9d4"/><path d="m44.94 51.65c1.21 0 2.42-.05 3.63.02.99.05 1.12.32.76 1.33-.15.41-.32.87-.62 1.16-.96.9-1.03 1.9-.66 3.1.9 2.92.6 3.36-2.53 3.39-1.41.01-2.9-.05-4.23-.47-2.2-.7-2.8-2.1-2.4-3.99.25-1.18.57-2.34.92-3.49.25-.82.84-1.17 1.73-1.13 1.13.05 2.27.01 3.4.01z" fill="#f5e9d4"/><path d="m32.85 43.39c.36-2.4.94-3 2.9-3.17 1.05-.09 2.12-.06 3.17-.01 1.02.05 1.91-.21 2.78-.75 4.02-2.5 8.47-3.9 13.01-5.09.22-.06.44-.09.67-.11.74-.07 1.39.05 1.55.92s-.35 1.12-1.11 1.36c-1.28.41-2.52.97-3.75 1.53-3.5 1.6-6.98 3.23-10.48 4.84-.91.42-1.91.75-2.82.16-1.96-1.28-3.83-1.02-5.92.32z" fill="#f5e9d4"/><path d="m65.44 63.75c-.57-.21-1.65-.41-2.5-.97-1.34-.88-1.16-2.23.28-2.98 1.51-.79 3.11-1.18 4.81-1.05 1.61.12 2.21 1.24 1.48 2.7-.72 1.4-2.07 2.26-4.07 2.3z" fill="#f5e9d4"/><path d="m32.2 82.45c.23-.15.45-.36.7-.45 2.42-.82 4.48-2.14 6.09-4.16.15-.19.61-.14.93-.21-.02.28.06.63-.09.81-1.92 2.45-4.31 4.1-7.4 4.5-.08-.16-.16-.32-.23-.49z" fill="#252723"/><path d="m55.69 39.35c-1.18.77-2.35 1.55-3.54 2.29-1.34.84-2.7 1.65-4.05 2.47-1.31.8-2.65.73-4.11.35.15-.3.2-.5.25-.5 1.88.12 3.51-.47 5.05-1.56 1.6-1.13 3.3-2.1 4.98-3.12.34-.21.75-.32 1.13-.47.08.19.18.37.29.54z" fill="#252723"/><path d="m19.02 60.05c-2.38 1.42-4.53 2.62-6.59 3.95-1.06.69-2.03 1.55-2.94 2.44-1.04 1.01-.9 1.53.41 2.14.14.06.28.12.42.17 2.44.92 2.8.79 4.17-1.42 1.42-2.3 2.86-4.59 4.53-7.28z" fill="#f5e9d4"/><path d="m12.4 74.79c.31 1.11.54 2.22.94 3.27.38.98 1.12 1 1.62.03.72-1.42 1.37-2.87 1.91-4.37.88-2.47.7-2.68-1.99-3.02-.15-.02-.3-.03-.45-.05-.61-.06-1.02.18-1.17.8-.28 1.1-.56 2.19-.86 3.34z" fill="#f5e9d4"/><path d="m6.81 72.72c-.22.31-.45.67-.4 1.05.05.39.38.68.67.95 1.07 1 1.86 2.28 2.72 3.47 2.35 3.27 5.35 6.07 8.77 8.19-1.48-2.3-4.04-3.68-5.73-5.83-1.23-1.55-1.95-3.43-2.65-5.28-.59-1.55-1-3.04-.56-4.68-1.28-1.12-2.24 1.3-2.82 2.13z" fill="#fff"/><path d="m26.97 53.02c-.07.69.33 1.48 1.02 1.59.56.09 1.08-.29 1.49-.69.97-.93 3.22-3.4 1.03-4.2-1.67-.61-3.39 1.89-3.54 3.3z" fill="#fff"/></svg>