<svg clip-rule="evenodd" fill-rule="evenodd" stroke-linejoin="round" stroke-miterlimit="2" viewBox="0 0 275 245" xmlns="http://www.w3.org/2000/svg"><g fill-rule="nonzero"><path d="m0 7.099c-.382 1.234-1.221 2.689-2.521 3.129-1.254.425-3.365.117-4.321-.778-.069-.066-.145-.083-.216-.072-.06-.047-.133-.081-.223-.077-2.023.081-3.966.009-5.925-.558-1.708-.494-4.397-1.245-5.353-2.905.188-.23-.006-.683-.384-.597-1.799.407-4.066.895-6.423 1.184-.005-.053-.022-.107-.062-.164-1.778-2.482-.544-6.792 1.312-8.835.001-.001.002-.003.002-.004 7.122-.976 12.129 1.487 17.711 6.308-.064.377-.042.763.12 1.164.091.226.39.187.418-.057.117-1.033.427-1.874 1.016-2.73.408-.591.912-1.077 1.082-1.794.015-.062.014-.118.004-.168.571-.619 1.553-1.339 2.242-.605.2.212.561-.063.405-.312-.018-.029-.04-.05-.059-.077.151-.155.31-.286.541-.328.307-.057.5.06.767.181.28.126.507-.177.32-.415-.036-.046-.083-.074-.124-.11.239-.035.449.08.669.229.063.041.133.027.196-.004.301.425-.202 1.083-.503 1.418-.093.104-.096.224-.052.325-.001.006-.004.011-.005.017-.198 2.2.029 4.498-.634 6.635" fill="#fedcc0" transform="matrix(4.16667 0 0 4.16667 227.701 197.6835)"/><path d="m0 1.988c.615 1.41 2.034 1.88 3.488 1.917 1.063.027 2.892-.179 3.11-1.501.007-.046-.005-.084-.015-.123.78-.307 1.199-1.677 1.082-2.372-.003-.019-.013-.03-.018-.046.293-.554-.006-1.062-.541-1.481-.344-.271-.746-.454-1.15-.627-.005-.013-.007-.028-.017-.042-.138-.218-.275-.449-.421-.67 1.361-.081 2.817-.555 3.958-1.244.859-.518 1.362-1.534 1.563-2.522.185.398.376.795.614 1.162.106.167.247.373.415.529-.06.019-.121.037-.181.056-.377.119-.221.704.165.595.615-.175 1.231-.341 1.849-.499-.189.249-.351.51-.472.708-.355.584-.954 1.614-.681 2.312-1.29.105-2.632.344-4.046.755-.277.08-.162.488.119.429.252-.052.495-.089.741-.134-.931.996-1.367 2.374-1.541 3.738-.207 1.646-.358 3.747.649 5.169-5.958.614-12.238-.211-12.902-6.908 1.487.551 2.989.855 4.232.799" fill="#80c1b1" transform="matrix(4.16667 0 0 4.16667 82.801 191.0835)"/><path d="m0-.668c.068-.002.139-.021.183-.085.247-.343.467-.672.665-1.046.18-.34.405-.678.505-1.051.017-.067.006-.132-.02-.19.068-.255.134-.51.227-.755.171-.453.439-.537.739-.844.192-.195.274-.427.42-.65.166-.252.377-.345.617-.386-.249.266-.447.594-.558.937-.061.185.219.302.313.132.335-.607 1.05-1.386 1.837-.987.837.426.299 1.422-.074 1.965-.048.07-.057.138-.045.201-.117.084-.191.219-.139.376.444 1.357-.02 2.134-.372 3.412-.27.978-.453 2.061-.468 3.087-.273-.045-.567 0-.797.139-.02.012-.02.031-.034.047-.515-.092-1.128.15-1.427.553-.818-.421-2.05.317-2.613 1.073-.052.009-.101.031-.146.064-.032-.132-.131-.249-.301-.262-1.334-.097-2.666-.193-3.998-.29-1.143-.084-2.363-.103-3.412-.596-.092-.05-.185-.1-.276-.148-.092-.053-.186-.102-.274-.164-.02-.013-.036-.008-.055-.012-2.726-1.375-5.584-2.113-8.772-1.966.007-.045.008-.093-.01-.145-.18-.527.424-1.469.689-1.896.309-.498.668-.892 1.113-1.245 2.113-.488 4.249-.827 6.448-.848 3.509-.035 6.292 1.215 9.636 1.803.194.034.335-.081.399-.223" fill="#fedcc0" transform="matrix(4.16667 0 0 4.16667 214.701 175.2835)"/><path d="m0 3.012c-1.334-1.122-2.658-2.138-3.998-3.012.04.004.077.011.118.016 1.792.204 3.608.271 5.406.405.025.002.043-.005.066-.008-.398.836-1.171 1.689-1.592 2.599" fill="#fecf8c" transform="matrix(4.16667 0 0 4.16667 202.101 197.3835)"/><path d="m0 3.812c-.077-.124-.18-.198-.296-.306-.168-.158-.295-.351-.414-.547-.259-.428-.504-.861-.769-1.285-.018-.03-.045-.032-.069-.051.019-.37.032-.74.038-1.11.035.01.068.022.11.023 1.716.023 3.578-.089 5.266-.536-.071.457-.113.915-.087 1.363.037.656.299 1.073.717 1.386-1.517.258-3.017.624-4.496 1.063" fill="#fecf8c" transform="matrix(4.16667 0 0 4.16667 136.001 153.3835)"/><path d="m0-10.785c1.124.397 1.644 1.262.923 2.339-.692 1.033-2.033 1.653-3.002 2.399-.342.264-.037.847.351.599.788-.507 1.868-1.116 2.658-1.895.021.025.041.049.072.071 2.613 1.831-1.01 3.991-2.64 4.996-1.707 1.051-3.517 1.901-5.286 2.836.049-1.129.018-2.239-.003-3.23-.001-.059-.014-.11-.033-.154.283-.355.533-.75.519-1.22-.016-.458-.278-.896-.742-.999.296-.721.494-1.474.688-2.228.156.036.333.03.489.035.339.012.693.015 1.026-.058.009-.002.01-.009.016-.011.675.527 1.658 1.001 2.328.183.278-.339.281-.77.071-1.146-.183-.327-.454-.687-.755-.966.642-.573 1.246-1.294 1.787-2.111.508.195 1.018.379 1.533.56" fill="#fecf8c" transform="matrix(4.16667 0 0 4.16667 262.301 210.7835)"/><path d="m0-13.274c.024.103.101.192.218.185.414-.023.791-.21 1.197-.287.407-.076.809-.083 1.216-.061.027.585-.434 1.084-.832 1.483-.244.245-.579.476-.775.773-.153.037-.282.173-.23.371.942 3.541-1.517 8.842-4.161 11.188-.24.213-.017.605.248.611.068.119.145.232.227.348.112.159.46.484.464.694.005.24-.303.291-.483.257-.28-.052-.545-.283-.758-.456-.196-.159-.428-.11-.582.017-.012-.002-.017-.013-.031-.014-.309-.021-.621.006-.932-.013-.094-.007-.188-.019-.28-.029.077-.265.153-.531.249-.79.38-1.018.399-1.98-.029-2.977.012-.013.026-.02.037-.035.612-.857 1.011-2.221-.198-2.8-.508-.242-.995-.166-1.404.076-.737-.287-1.228-.102-1.633.601-.242.42-.667.571-.936.938-.281.386-.4 1.03-.496 1.541-.391.548-.653 1.231-.872 1.865-.021-.007-.037-.021-.063-.024-3.391-.592-6.299-1.854-9.822-1.814-1.058.012-2.109.099-3.152.235-.022-.019-.042-.04-.074-.054-1.021-.446-1.224-1.157-1.109-2.203.096-.895.382-1.714.7-2.548.697-.301 1.369-.734 2.001-1.341 1.661-1.592 4.07-3.964 4.441-6.456.754-.138 1.321-.542 1.743-1.087 5.499-.516 10.866.07 16.111 1.806" fill="#c7eafb" transform="matrix(4.16667 0 0 4.16667 259.001 169.8835)"/><path d="m0 5.348c.967-2.442 3.064-3.898 5.139-5.343.273-.191.177-.555-.046-.668-.101-.272.072-.861.117-1.069.069-.32.154-.605.368-.858.131-.153.28-.3.433-.429.263-.219.427-.33.646-.063.033.194.265.288.435.199.51-.264 1.054-2.146 1.847-1.652.021.14.116.271.296.282.712.043 1.472.559 1.661 1.267.01.039.036.062.064.079.225.499.49.853.487 1.454-.003.428-.113.885-.24 1.292-.321 1.033-.886 1.949-2.033 2.154-.041.007-.069.024-.101.04-.01.003-.018.007-.028.011-.018.012-.031.027-.046.041-.033.023-.07.039-.09.079-.949 1.855-1.503 3.354-2.945 4.912-1.197 1.295-2.317 2.695-4.118 3.003-1.745.298-4.164-.161-5.752-.817-.288-2.733-.918-5.421-1.895-8.027 2.1.56 3.974 1.594 5.575 3.063-.143.284-.272.577-.383.882-.14.387.463.539.609.168" fill="#fedcc0" transform="matrix(4.16667 0 0 4.16667 145.301 100.3835)"/><path d="m-1.264.767c.009.043.023.079.031.122.017.088-.001.165-.031.231.956.84 1.824 1.764 2.593 2.749.603-1.011-1.667-2.576-2.593-3.102" fill="#fedcc0" transform="matrix(3.08469 -2.80104 -2.80104 -3.08469 138.601 68.3835)"/><path d="m0 12.726c.249-.088.491-.224.72-.423.218-.188-.063-.537-.304-.393-1.723 1.03-3.786-.555-3.806-2.434-.009-.832.42-1.678.999-2.25.683-.676 1.366-.855 2.307-.957.148-.016.15-.249 0-.233-.458.047-.874.101-1.267.204-.793-3.62-.692-8.099 1.998-10.933 2.347-2.474 6.387-4.049 9.661-3.523 7.966 1.279 10.038 8.428 9.448 15.558-.009.107.028.184.086.233.009.035.016.07.038.107 5.231 8.589-15.656 13.786-19.88 5.044" fill="#fedcc0" transform="matrix(4.16667 0 0 4.16667 46.601 38.7835)"/><path d="m-4.546-4.877c-.832.688-1.577 1.256-1.088 2.651.188.536.716 1.12 1.088 1.535.886.989 1.923 1.649 3.131 2.139-1.463-1.891-2.562-4.134-3.131-6.325" fill="#fedcc0" transform="matrix(-2.60884 -3.24886 -3.24886 2.60884 86.801 106.0835)"/><path d="m0-13.605c.113-.073.235-.13.354-.19 1.146.33 2.379.496 3.64.522-.007.055.004.111.056.158 1.517 1.38 3.715 1.884 5.728 1.619 1.977-.26 2.568-1.56 2.481-3.434-.003-.073-.027-.131-.057-.182.157-.08.313-.161.464-.247.836 2.722 1.388 5.443 1.655 8.211-.011.057-.005.114.015.167.144 1.568.194 3.152.156 4.76-.005.013-.021.016-.024.03-.354 1.153-.636 2.301-1.804 2.875-1.125.553-2.29.919-3.529 1.07-.277-.322-.612-.573-1.072-.647-.516-.084-1.577-.083-2.094.301-1.61-1.515-3.383-2.845-5.466-3.491 1.357-2.611 2.459-6.234 1.321-9.063-.453-1.125-1.342-1.824-2.331-2.036.154-.154.316-.299.507-.423" fill="#e5f0d4" transform="matrix(4.16667 0 0 4.16667 66.501 169.7835)"/><path d="m0-4.624c.267-2.87 1.811-4.825 3.331-7.106 1.703-1.419 3.886-.546 4.425 1.627.193.776.18 1.635.127 2.425-.137 1.998-.767 3.876-1.706 5.631-.331-.076-.667-.136-1.014-.174-.35-.039-.436.57-.083.62 2.789.387 4.807 2.099 6.849 3.903.248.22.57.039.63-.203.489-.295 1.69-.238 2.078.003.23.142.383.355.527.578-.21-.056-.424-.076-.637-.001-.225.08-.313.419-.07.546.63.33 3.39.818 3.043 1.85-.119.061-.211.184-.182.35.121.729-.209 1.655-.89 2.009-.04.021-.056.055-.06.092-.842.666-1.441.999-2.619.958-1.195-.041-2.337-.371-2.86-1.544-.011-.023-.026-.035-.038-.054-.027-.077-.08-.143-.193-.165-3.085-.567-7.201-1.415-9.288-4.047-1.3-1.64-1.546-5.417-1.37-7.298" fill="#fedcc0" transform="matrix(4.16667 0 0 4.16667 40.101 168.7835)"/><path d="m0-4.704c.069-.045.105-.105.124-.168.533.424 1.14.771 1.63.996 1.641.756 3.532.816 5.232 1.437.275.1.454-.335.198-.47-2.046-1.085-4.467-.76-6.368-2.238-3.013-2.343 1.248-4.476 3.271-5.548.159.8.384 1.539.706 2.097.955 1.655 3.216 3.198 5.592 4.143-.019.029-.041.056-.042.102-.204 10.344 13.45 8 20.313 6.472.369.907 1.196 1.572 2.126 2.079-7.237 1.542-14.457.836-21.81.293-2.613-.194-4.015-.309-6.382-1.62-.979-.541-1.423-.89-2.417-1.292-1.229-.497-4.578-.727-5.364-1.875-1.682-2.455 1.699-3.446 3.191-4.408" fill="#fecf8c" transform="matrix(4.16667 0 0 4.16667 20.401 214.0835)"/><path d="m0-4.782c.72.035 1.439.093 2.157.157.748.065 1.508.138 2.214.409.375.145.7.348 1.026.582.348.249.692.503 1.035.759.686.509 1.37 1.023 2.079 1.501 1.384.934 2.858 1.719 4.288 2.578.305.183.609.369.914.557.244.15.494.312.775.391.276.079.611.031.754-.254.056-.112.051-.238.03-.367-.102.087-.272.065-.337-.096-.162-.4-.183-.787-.12-1.163-5.582-4.821-10.588-7.285-17.711-6.308 0 .001-.001.003-.002.004-.423.466-.812 1.055-1.142 1.71 1.28-.481 2.688-.525 4.04-.46" fill="#fff" opacity=".4" transform="matrix(4.16667 0 0 4.16667 139.335451734 212.1351638)"/><path d="m0-6.886c-.062.032-.133.047-.196.004-.219-.148-.43-.263-.669-.228.041.036.089.064.124.109.187.239-.04.542-.32.415-.266-.12-.46-.238-.767-.181-.232.042-.39.173-.541.328.019.028.041.048.059.077.155.249-.205.524-.404.312-.69-.733-1.672-.014-2.243.606.01.05.011.106-.004.168-.035.147-.09.279-.15.409.279.038.56.028.834-.048 1.091-.304 1.959-1.265 3.162-1.155.056.006.09.04.095.095.041.443.11.89.084 1.335-.022.359-.119.701-.288 1.018-.202.378-.49.707-.734 1.059-.452.652-.922 1.427-.919 2.248.247-.142.492-.295.759-.396.231-.086.49-.114.711.015.234.138.371.391.439.645.028.103.044.206.06.31.298-1.768.188-3.607.347-5.385.001-.006.005-.01.006-.017-.044-.1-.042-.221.051-.325.302-.335.805-.992.504-1.418" fill="#fff" opacity=".4" transform="matrix(4.16667 0 0 4.16667 232.71802644 221.01433757)"/><path d="m0 4.491c.907-.266 1.876-.237 2.81-.211 1.069.03 2.135.003 3.204-.018 2.24-.046 4.494-.006 6.719.271 1.09.135 2.182.319 3.245.596.387.102.752.269 1.145.344.178.034.426.084.553-.08.096-.126.109-.293.232-.4.17-.15.374-.151.585-.192.203-.04.386-.216.512-.376.219-.28.29-.633.311-.982.041-.671-.066-1.411.424-1.951.271-.298.74-.226 1-.543.12-.145.174-.323.236-.497.062-.172.138-.337.206-.505.127-.308.274-.693.491-1.002-.504.127-.929.631-1.164 1.058-.094.17-.375.053-.314-.132.111-.343.309-.671.559-.937-.241.041-.452.134-.618.386-.146.222-.228.455-.42.65-.301.307-.568.391-.739.844-.093.245-.158.5-.227.755.027.058.037.123.02.19-.1.373-.325.711-.504 1.051-.199.374-.418.703-.665 1.046-.046.064-.115.083-.184.085-.063.142-.205.257-.399.223-3.344-.588-6.126-1.838-9.636-1.803-2.199.021-4.334.36-6.447.847-.446.353-.805.748-1.114 1.246-.025.041-.056.091-.087.141.088-.034.175-.077.266-.104" fill="#fff" opacity=".4" transform="matrix(4.16667 0 0 4.16667 142.106703951 156.12261899)"/><path d="m0 1.942c1.681-.368 3.412-.386 5.126-.386-.008-.065-.025-.122-.029-.193-.025-.448.017-.906.087-1.363-1.687.447-3.549.559-5.266.536-.042 0-.075-.013-.11-.024-.006.371-.02.74-.037 1.112.023.018.05.021.068.05.056.088.107.179.161.268" fill="#fff" opacity=".4" transform="matrix(4.16667 0 0 4.16667 130.51377801 153.38095013)"/><path d="m0-2.369c-.06.064-.11.128-.141.212-.002.007-.018.067-.032.117.034.005.069.012.097.035.098.078.083.193.131.293.049.106.151.176.198.286.137.324-.091.625-.283.867-.106.132-.193.266-.283.406-.071.112-.151.219-.211.336-.038.075-.074.164-.02.241.077.11.251.172.376.199.244.053.509-.005.745-.068.038-.01.073-.028.11-.039.453-.333.871-.697 1.166-1.14.722-1.076.201-1.942-.923-2.339-.077-.026-.152-.056-.228-.082-.201.255-.481.439-.702.676" fill="#fff" opacity=".4" transform="matrix(4.16667 0 0 4.16667 258.3763803 178.18930331)"/><path d="m0-2.638c-.513.321-1.09.528-1.656.733-.503.183-.998.391-1.492.597-.635.266-1.268.547-1.86.899-.425.251-.922.578-1.169 1.031.593.061 1.191.039 1.778-.074 1.385-.266 2.642-.9 3.926-1.467.849-.73 1.475-1.572 1.198-2.402-.182.274-.438.503-.725.683" fill="#fff" opacity=".4" transform="matrix(4.16667 0 0 4.16667 266.93888715 198.53515292)"/><path d="m0-5.521c-.408.077-.784.264-1.197.287-.118.007-.195-.083-.218-.185-5.245-1.736-10.612-2.322-16.112-1.806-.422.545-.989.949-1.743 1.087-.186 1.251-.887 2.472-1.749 3.58.337-.149.666-.309.99-.483.893-.481 1.766-1.05 2.728-1.394.975-.35 2.02-.328 3.042-.286.599.025 1.193-.016 1.792-.022.648-.007 1.333-.002 1.958.186.359.109.81.353.829.781.013.306-.274.507-.514.63-.392.2-.826.317-1.248.434-.479.132-.961.251-1.433.406-.37.121-.788.26-1.079.531-.186.172-.304.477-.123.671.204.221.655.16.936.116.535-.082 1.058-.25 1.569-.427 1.05-.364 2.06-.825 3.101-1.211.145-.054.292-.109.444-.146.287-.071.608-.057.902-.048.879.026 1.761.209 2.577.538.397.159.781.352 1.137.591.378.256.703.567 1.001.912.569.664 1.027 1.437 1.231 2.291.055.233.095.47.137.708.598-1.801.825-3.651.421-5.175-.053-.199.077-.334.23-.371.195-.297.53-.529.774-.773.399-.4.86-.899.831-1.484-.406-.022-.807-.015-1.214.062" fill="#fff" opacity=".6" transform="matrix(4.16667 0 0 4.16667 264.85138548 137.15177048)"/><path d="m0 7.444c.222.192.439.392.65.598.232.227.439.476.694.681.341.271.747.441 1.178.291.465-.162.844-.555 1.187-.891.461-.449.898-.922 1.358-1.372.942-.918 1.918-1.811 2.679-2.891.349-.494.426-1.055.473-1.641.05-.594.149-1.158.461-1.676.021-.035.068-.057.107-.043.328.11.645.247.967.368.264.1.536.185.821.187.612.005 1.133-.353 1.622-.681.266-.179.519-.379.777-.57-.33-.427-.872-.716-1.393-.748-.178-.011-.274-.142-.294-.282-.793-.494-1.338 1.388-1.848 1.652-.17.089-.402-.004-.435-.198-.218-.267-.384-.157-.646.062-.153.129-.303.276-.432.429-.215.254-.3.539-.369.859-.044.207-.217.797-.117 1.069.223.113.32.477.046.667-2.076 1.446-4.172 2.901-5.139 5.343-.147.372-.748.219-.609-.167.111-.306.241-.598.382-.883-1.599-1.469-3.475-2.503-5.574-3.062.11.293.199.59.301.885 1.117.567 2.199 1.193 3.153 2.014" fill="#fff" opacity=".4" transform="matrix(4.16667 0 0 4.16667 135.473781978 86.56839668)"/><path d="m0 .657c.518-.075 1.043-.031 1.542.156.349.13.683.3 1.036.419.362.12.732.156 1.106.082-.004-.477-.036-.982-.236-1.419-.094-.203-.228-.389-.42-.507-.109-.065-.227-.1-.35-.119-.004.055-.038.111-.107.12-.942.101-1.625.28-2.308.956-.094.094-.177.205-.263.312" fill="#fff" opacity=".4" transform="matrix(4.16667 0 0 4.16667 35.521618683 67.45171472)"/><path d="m0-11.535c1.246-.684 2.649-1.208 4.074-1.332.774-.067 1.57 0 2.335.122.816.13 1.614.358 2.372.686 1.485.641 2.831 1.685 3.81 2.972.457.6.867 1.284 1.05 2.021.133.531.167 1.26-.309 1.632-.405.318-.91.502-1.361.743-.39.205-.944.487-1.06.956-.051.206.013.454.157.608.168.177.427.228.66.246.612.044 1.222-.102 1.833-.124.238-.008.502-.005.719.101.326.158.493.435.604.764.056.164.125.319.24.45.118.136.217.288.333.425.154.183.333.291.548.393.325.157.658.296.989.444.247.111.495.229.717.386.397.279.629.671.765 1.131.096.327.154.667.208 1.003.077.501.128 1.009.16 1.514.023.37.027.741.017 1.112.644-1.336.624-2.876-.394-4.547-.021-.036-.028-.07-.038-.106-.057-.05-.094-.126-.085-.233.59-7.131-1.482-14.279-9.448-15.558-3.274-.527-7.313 1.048-9.662 3.522-.673.71-1.184 1.523-1.56 2.401.676-.697 1.492-1.275 2.326-1.732" fill="#fff" opacity=".4" transform="matrix(4.16667 0 0 4.16667 52.464548904 70.07671682)"/><path d="m0-2.127c-.282-.083-.478-.26-.451-.574.042-.508.354-.901.64-1.297.171-.234.295-.477.322-.77.028-.309.029-.618.03-.928-.086-.025-.172-.037-.261-.041-.488.558-1.032 1.059-1.617 1.515-.551.43-1.125.828-1.692 1.235-.447.323-.893.646-1.351.956-.501.337-1.005.675-1.472 1.059-.357.293-.722.625-.949 1.035.382.188.818.246 1.24.247.984.002 1.963-.25 2.898-.532.427-.128.848-.269 1.267-.414.223-.076.441-.153.658-.245.287-.122.575-.249.886-.291.046-.006.109.011.117.066.052.371.001.736-.133 1.085-.467 1.209-1.775 2.221-1.424 3.631.797-.042 1.487-.617 1.964-1.215.882-1.104 1.554-3.11.24-4.169-.271-.218-.588-.258-.912-.353" fill="#fff" opacity=".6" transform="matrix(4.16667 0 0 4.16667 117.827517861 147.36427865)"/><path d="m0-16.239c.637.654.97 1.521 1.096 2.413.151 1.058.111 2.152-.145 3.19-.219.884-.694 1.646-1.119 2.44-.208.388-.412.785-.547 1.206-.111.342-.187.721-.079 1.073.109.355.364.652.629.902.306.287.653.527 1.013.739.719.427 1.489.715 2.288.956.463.14.927.278 1.366.481.215.1.424.215.613.357.183.137.338.32.494.485.316.335.634.679 1.051.892.446.229.963.226 1.452.291.237.032.471.078.694.166.239.095.441.235.647.386.381.278.761.56 1.167.799.382.226.789.411 1.224.506.367.081.741.074 1.112.031-.004-.031.004-.064-.002-.094-.028-.166.064-.289.183-.351.346-1.031-2.413-1.519-3.043-1.848-.243-.129-.155-.466.07-.547.213-.076.427-.055.637.001-.144-.223-.297-.435-.528-.578-.387-.242-1.587-.299-2.077-.002-.06.241-.381.422-.63.202-2.043-1.804-4.061-3.516-6.85-3.903-.352-.049-.266-.659.084-.621.347.039.684.1 1.014.175.939-1.756 1.57-3.633 1.706-5.631.054-.79.065-1.649-.128-2.425-.475-1.913-2.224-2.815-3.798-2.035.142.108.282.217.406.344" fill="#fff" opacity=".4" transform="matrix(4.16667 0 0 4.16667 58.239553524 187.35181064)"/><path d="m0 .955c.475.227.983.375 1.486.525.366.111.731.221 1.089.358.273.106.545.217.819.324.664.255 1.351.501 2.06.6.503.07 1.132.055 1.472-.373-.78-.356-1.65-.464-2.469-.702-.352-.101-.704-.228-1.018-.418-.218-.134-.467-.316-.478-.595-.004-.103.013-.204-.005-.307-.022-.144-.085-.287-.174-.402-.17-.218-.421-.358-.646-.511-.21-.142-.431-.301-.54-.537-.112-.242-.087-.519.047-.747.01-.017.026-.031.037-.047-1.105.719-2.083 1.594-2.132 2.553.137.105.285.2.452.279" fill="#fff" opacity=".4" transform="matrix(4.16667 0 0 4.16667 21.369940695 182.45180672)"/><path d="m0-1.186c.295.237.654.377 1.011.492.678.219 1.382.335 2.075.49.683.155 1.37.347 1.979.702.302.177.575.396.884.563.268.145.55.262.843.346.602.171 1.231.203 1.852.245.507.033 1.002.124 1.505.209.58.097 1.166.184 1.756.192.436.005.918-.032 1.305-.255-.395-.379-.87-.634-1.402-.77-.545-.139-1.108-.172-1.667-.21-.506-.034-1.015-.07-1.512-.18-.243-.053-.482-.125-.711-.221-.222-.093-.468-.203-.649-.366-.09-.082-.153-.188-.23-.281-.088-.106-.197-.186-.311-.261-.21-.138-.437-.252-.67-.347-.498-.205-1.025-.336-1.549-.457-1.04-.242-2.104-.439-3.034-.988-.261-.154-.598-.387-.53-.735.016-.08.052-.154.093-.226-.71.415-1.352.901-1.606 1.52.175.194.363.374.568.538" fill="#fff" opacity=".4" transform="matrix(4.16667 0 0 4.16667 8.068263387 212.385164)"/><path d="m0 1.008c-.438.74-1.285 1.271-2.153 1.292-1.223.029-1.433-1.542-1.739-2.498.077-.255.187-.478.33-.664.003.007 0 .015.005.021.459.655 1.643 1.355 2.454.976.744-.348.536-1.031.074-1.456.263.101.53.221.752.359.718.446.661 1.321.277 1.97" fill="#24aae1" transform="matrix(4.16667 0 0 4.16667 122.201 88.6835)"/><path d="m0-.335c.161.103.534.275.5.517-.054.402-.687.232-.918.161-.472-.143-.833-.436-1.227-.715-.014-.009-.029-.004-.042-.009.418-.387 1.002-.538 1.643-.439-.131.124-.159.355.044.485" fill="#1375bc" transform="matrix(4.16667 0 0 4.16667 115.201 85.7835)"/><path d="m0-.585c.492-1.604 2.376-.645 3.485-1.393.031.077.106.136.196.105.315-.11.585-.282.881-.436.344-.181.896-.577 1.284-.576.524 0 .729.431.863.885.108.362.049.602-.04.918-.339-.152-.704-.262-1.061-.327-1.215-.218-2.344.51-2.76 1.613-.116.046-.202.159-.163.323.113.478.218.985.364 1.452-.778.291-1.541.322-2.3-.129-.943-.561-1.055-1.44-.749-2.435" fill="#08a79d" transform="matrix(4.16667 0 0 4.16667 92.201 85.5835)"/><g fill="#231f20"><path d="m0-7.757c-1.064.109-1.913.238-2.734.999-.793.735-1.206 1.929-1.01 2.991.349 1.894 2.807 3.783 4.548 2.278.217-.188-.063-.538-.304-.393-1.724 1.029-3.786-.555-3.806-2.435-.01-.831.42-1.677.998-2.25.684-.675 1.367-.854 2.308-.956.147-.016.149-.25 0-.234" transform="matrix(4.16667 0 0 4.16667 46.201 96.2835)"/><path d="m0 14.281c-.795-3.622-.696-8.106 1.996-10.943 2.347-2.474 6.387-4.049 9.661-3.523 7.966 1.28 10.038 8.429 9.448 15.558-.034.412.583.394.631 0 1.024-8.202-2.879-16.877-12.274-16.51-8.136.317-11.91 8.53-9.958 15.555.088.32.566.185.496-.137" transform="matrix(4.16667 0 0 4.16667 41.001 5.2835)"/><path d="m8.091-14.661c10.94 1.231 10.624 25.214-.226 21.791-.5-.156-.279-.939.226-.784 9.633 2.952 9.492-18.658-.073-20.523-.272-.053-.206-.516.073-.484" transform="matrix(1.02918 4.03757 4.03757 -1.02918 95.501 44.6835)"/><path d="m0-.748c-.031.467.098.917.376 1.294.108.144.329.134.389-.051.165-.522.215-1.047.113-1.588-.07-.362-.584-.31-.682 0-.173.549-.039 1.096.314 1.538.211.262.598.026.614-.254.007-.121.011-.237-.001-.358-.037-.351-.581-.495-.668-.09-.031.149-.043.297-.049.448.204-.085.407-.169.612-.254-.196-.241-.229-.551-.14-.842h-.682c.145.418.228.844.159 1.287.118-.031.237-.062.355-.094-.242-.298-.349-.655-.339-1.036.005-.24-.355-.237-.371 0" transform="matrix(4.16667 0 0 4.16667 86.001 57.1835)"/><path d="m0-1.72c-.175.581-.073 1.188.161 1.738.107.25.458.139.532-.071.163-.468.161-.982.016-1.456-.088-.282-.455-.323-.613-.08-.203.312-.282.682-.199 1.047.083.37.711.298.674-.091-.023-.236-.019-.409.104-.617h-.579c.161.343.152.688.036 1.042l.531-.069c-.2-.444-.208-.899-.158-1.375.033-.297-.424-.336-.505-.068" transform="matrix(4.16667 0 0 4.16667 110.101 55.7835)"/><path d="m.46-1.238c-.662.189.296 1.505.437 1.837.112.256-.287.497-.437.248-.378-.625-1.342-2.214-.112-2.527.25-.063.364.37.112.442" transform="matrix(-3.31792 2.52042 2.52042 3.31792 46.301 75.6835)"/><path d="m3.359-2.116c-.805 2.509-.188 4.992.41 7.469.063.263-.34.342-.41.084-.682-2.521-1.223-5.119-.248-7.634.06-.156.299-.081.248.081" transform="matrix(1.88938 3.71367 3.71367 -1.88938 98.601 3.2835)"/><path d="m0 3.602c.086-1.02 1.337-1.602 2.099-2.054.707-.421 1.444-.791 2.193-1.131.352-.161.045-.666-.302-.516-1.13.488-2.234 1.074-3.223 1.811-.651.485-1.198 1.03-1.151 1.89.013.249.364.245.384 0" transform="matrix(4.16667 0 0 4.16667 89.501 .8835)"/><path d="m0 .407c1.518 1.379 3.715 1.883 5.729 1.619 1.976-.26 2.567-1.56 2.481-3.434-.022-.471-.726-.475-.734 0-.021 1.141.067 2.136-1.387 2.651-.536.189-1.321.143-1.879.113-1.453-.079-2.713-.53-3.955-1.278-.202-.12-.433.167-.255.329" transform="matrix(4.16667 0 0 4.16667 83.301 113.4835)"/><path d="m0-8.261c1.727-1.654 4.058-.791 4.618 1.464.193.776.181 1.635.127 2.424-.141 2.077-.806 4.027-1.809 5.843-.209.379.372.719.58.339 1.44-2.629 2.701-6.461 1.509-9.421-.928-2.307-3.691-2.838-5.384-1.008-.221.24.122.586.359.359" transform="matrix(4.16667 0 0 4.16667 53.101 155.0835)"/><path d="m0-19.44c-1.669 2.217-3.426 4.453-3.779 7.302-.239 1.928-.087 5.274.9 6.983 1.65 2.859 7.196 5.395 10.5 5.067.315-.031.448-.532.082-.599-3.085-.568-7.201-1.415-9.288-4.048-1.299-1.64-1.545-5.417-1.37-7.298.269-2.894 1.838-4.857 3.37-7.165.174-.262-.235-.482-.415-.242" transform="matrix(4.16667 0 0 4.16667 52.401 199.6835)"/><path d="m3.604-5.877c-.808 2.699-.091 5.246.701 7.854.138.457-.543.719-.701.261-.931-2.697-1.514-5.518-.598-8.296.11-.334.701-.159.598.181" transform="matrix(-1.73307 3.78914 3.78914 1.73307 89.701 158.6835)"/><path d="m0-.561c.412-.368 1.762-.314 2.176-.057.501.313.652.943 1.09 1.324.245.216.667-.06.474-.365-.456-.722-.876-1.576-1.798-1.726-.606-.098-1.973-.085-2.315.536-.131.241.173.467.373.288" transform="matrix(4.16667 0 0 4.16667 92.001 180.1835)"/><path d="m0-1.154c.61 1.428 2.039 1.902 3.501 1.939 1.063.026 2.892-.18 3.109-1.501.045-.273-.234-.431-.447-.26-.867.691-1.464 1.033-2.662.992-1.195-.04-2.337-.372-2.861-1.544-.195-.437-.824-.058-.64.374" transform="matrix(4.16667 0 0 4.16667 82.801 204.0835)"/><path d="m.517-.149c.949.312.911 2.076.516 2.775-.199.352-.714-.014-.516-.365.363-.645.367-1.628-.152-2.193-.096-.104.028-.258.152-.217" transform="matrix(3.91858 1.41629 1.41629 -3.91858 107.001 199.5835)"/><path d="m0 2.774c.551-.651.245-1.25-.37-1.732-.443-.349-.984-.554-1.501-.775-.419-.18-.881-.437-1.338-.275-.225.081-.314.418-.07.546.66.346 3.672.864 2.978 2.003-.112.183.158.403.301.233" transform="matrix(4.16667 0 0 4.16667 114.001 179.9835)"/><path d="m1.438-1.612c.311.956.437 1.902.412 2.905-.007.265-.424.255-.412-.01.047-.951-.04-1.903-.239-2.834-.034-.157.191-.21.239-.061" transform="matrix(-.100754 4.16545 4.16545 .100754 104.401 194.0835)"/><path d="m1.463-1.66c.283.953.573 2.098.389 3.093-.04.22-.41.166-.389-.057.089-.995-.065-1.987-.325-2.95-.058-.211.264-.293.325-.086" transform="matrix(-.052165 4.16634 4.16634 .052165 107.201 188.9835)"/><path d="m0-.478c.576.209 1.875.769 2.348.139.087-.116-.032-.28-.16-.279-.173.001-.312.067-.485.078-.197.014-.397-.029-.591-.062-.361-.062-.709-.121-1.074-.152-.168-.015-.177.226-.038.276" transform="matrix(4.16667 0 0 4.16667 104.001 192.3835)"/><path d="m3.164-4.965c-.4 2.323-.182 4.634.626 6.846.15.407-.478.655-.626.247-.836-2.318-1.069-4.753-.632-7.182.072-.404.702-.317.632.089" transform="matrix(-1.65883 3.82223 3.82223 1.65883 144.201 101.2835)"/><path d="m0 6.063c3.27 1.434 6.679 1.894 9.394-.708 1.744-1.671 4.317-4.203 4.484-6.83.02-.299-.434-.419-.569-.154-.949 1.855-1.502 3.354-2.944 4.912-1.198 1.295-2.318 2.695-4.119 3.003-1.787.306-4.287-.181-5.872-.863-.433-.187-.812.448-.374.64" transform="matrix(4.16667 0 0 4.16667 126.901 116.1835)"/><path d="m2.347-.849c-.762 2.514-.027 4.958.698 7.381.135.455-.534.73-.698.27-.901-2.54-1.461-5.278-.58-7.899.13-.389.697-.133.58.248" transform="matrix(3.26163 2.59286 2.59286 -3.26163 139.801 113.7835)"/><path d="m0 3.493c-.186-.212.04-.933.089-1.163.069-.32.154-.605.368-.859.13-.153.279-.299.433-.428.28-.235.449-.364.692-.014.189.272.642.113.552-.233-.321-1.238-1.531-.449-2.054.142-.396.449-.531.925-.622 1.513-.063.394-.21 1.282.321 1.423.228.061.368-.214.221-.381" transform="matrix(4.16667 0 0 4.16667 166.601 83.3835)"/><path d="m0 6.08c1.473-.237 2.253-1.469 2.618-2.821.281-1.041.473-2.734-.748-3.233-.246-.101-.384.209-.303.393.229.526.512.88.508 1.5-.003.428-.113.885-.24 1.292-.321 1.033-.886 1.95-2.033 2.155-.471.083-.267.789.198.714" transform="matrix(4.16667 0 0 4.16667 184.301 86.2835)"/><path d="m-1.205-.448c.919.252.898 2.004.528 2.652-.202.352-.729.004-.528-.347.356-.618.341-1.537-.145-2.084-.094-.105.018-.256.145-.221" transform="matrix(2.28868 -3.48182 -3.48182 -2.28868 193.001 82.6835)"/><path d="m-1.907-1.488c1.575-.11 1.299 2.381.477 3.1-.179.157-.44.008-.477-.199-.107-.601 1.209-2.345-.001-2.52-.21-.03-.223-.365.001-.381" transform="matrix(-2.53845 -3.30415 -3.30415 2.53845 174.601 78.4835)"/><path d="m.377-.068c.304.904.43 1.805.412 2.758-.005.266-.424.267-.412.004.041-.905-.045-1.813-.239-2.697-.034-.155.189-.216.239-.065" transform="matrix(4.02417 1.08036 1.08036 -4.02417 186.801 97.3835)"/><path d="m.364-.046c.275.9.567 1.999.392 2.942-.04.218-.411.18-.392-.045.076-.95-.071-1.889-.324-2.804-.057-.21.261-.3.324-.093" transform="matrix(4.03662 1.03289 1.03289 -4.03662 182.901 93.8835)"/><path d="m0 2.109c.319-.467 1.128-1.531.699-2.107-.086-.117-.301-.127-.338.045-.039.176-.016.343-.055.522-.042.186-.129.363-.207.536-.133.297-.254.586-.356.896-.053.158.171.233.257.108" transform="matrix(4.16667 0 0 4.16667 181.001 81.0835)"/><path d="m0-1.983c-.883.019-1.886.675-2.355 1.411-.175.272.223.576.447.345.301-.311.56-.624.929-.863.339-.219.716-.359 1.074-.541.168-.086.086-.356-.095-.352" transform="matrix(4.16667 0 0 4.16667 70.601 117.6835)"/><path d="m1.435-13.715c-.549 4.622-.355 9.103.629 13.652.088.405-.531.514-.629.116-1.119-4.543-1.274-9.201-.43-13.806.049-.268.464-.244.43.038" transform="matrix(-4.09774 .754784 .754784 4.09774 135.301 160.4835)"/><path d="m8.315-16.589c10.199 2.612 3.903 15.544.638 21.629-.227.42-.863.04-.638-.381 3.162-5.884 8.984-17.382-.106-20.864-.236-.09-.146-.448.106-.384" transform="matrix(-1.11322 4.01521 4.01521 1.11322 139.401 180.9835)"/><path d="m11.016-11.976c-3.797 7.429-2.811 13.274.673 20.531.215.45-.461.836-.673.385-3.464-7.34-4.85-13.84-.384-21.144.15-.246.514-.027.384.228" transform="matrix(-1.09668 4.01976 4.01976 1.09668 179.801 157.1835)"/><path d="m0-4.302c.457 1.836 2.779 2.74 4.363 3.371 2.428.966 5.112 1.376 7.704 1.024.445-.06.338-.799-.106-.782-2.023.082-3.966.009-5.925-.558-1.809-.522-4.743-1.321-5.527-3.196-.127-.304-.595-.2-.509.141" transform="matrix(4.16667 0 0 4.16667 147.601 239.3835)"/><path d="m0 8.038c1.438 1.736 4.716 1.793 6.332.284 2.474-2.307 2.304-6.561 2.238-9.644-.011-.471-.679-.455-.721 0-.198 2.201.029 4.497-.634 6.635-.383 1.234-1.221 2.689-2.522 3.13-1.253.424-3.365.116-4.32-.779-.252-.236-.588.116-.373.374" transform="matrix(4.16667 0 0 4.16667 197.701 205.1835)"/><path d="m0 4.857c.117-1.033.427-1.875 1.016-2.731.408-.59.912-1.076 1.083-1.793.108-.46-.53-.615-.695-.191-.579 1.474-2.541 2.987-1.822 4.772.091.225.39.187.418-.057" transform="matrix(4.16667 0 0 4.16667 203.301 197.6835)"/><path d="m1.865-.455c-.401.692-.962 2.225.132 2.637.273.103.158.542-.132.493-1.53-.256-1.068-2.66-.305-3.431.187-.19.416.109.305.301" transform="matrix(1.60238 3.84624 3.84624 -1.60238 209.801 191.5835)"/><path d="m0 1.183c.185-.212.368-.384.655-.437.307-.057.5.061.766.181.28.128.507-.175.32-.415-.54-.687-1.856-.293-2.142.437-.088.225.249.409.401.234" transform="matrix(4.16667 0 0 4.16667 222.401 189.6835)"/><path d="m.564-.302c-.142.361.03.614.257.876.137.158-.07.435-.257.329-.46-.26-.571-.908-.366-1.362.106-.234.46-.081.366.157" transform="matrix(.498075 4.13679 4.13679 -.498075 229.101 189.1835)"/><path d="m0-1.921c.78.375.118 1.237-.242 1.637-.263.293.179.73.432.432.353-.417.737-.884.718-1.465-.016-.458-.279-.896-.742-.999-.226-.051-.398.284-.166.395" transform="matrix(4.16667 0 0 4.16667 231.601 199.3835)"/><path d="m0 1.897c.388.014.833-.282 1.126-.515.309-.247.756-.612.79-1.025.017-.22-.266-.371-.444-.255-.172.113-.23.259-.337.428-.1.16-.228.298-.364.428-.269.256-.629.408-.885.664-.102.101-.024.27.114.275" transform="matrix(4.16667 0 0 4.16667 216.601 198.0835)"/><path d="m0 1.065c.198-.068.388-.159.56-.277.173-.122.374-.26.451-.463.071-.187-.185-.385-.348-.268-.146.106-.226.276-.355.404-.128.126-.272.229-.43.315-.153.086-.05.349.122.289" transform="matrix(4.16667 0 0 4.16667 223.801 197.9835)"/><path d="m0-9.823c-1.467.974-2.071 2.695-2.285 4.384-.214 1.686-.376 3.859.718 5.28.274.356.888.019.617-.36-1.778-2.482-.544-6.792 1.312-8.835.217-.239-.066-.666-.362-.469" transform="matrix(4.16667 0 0 4.16667 125.801 225.9835)"/><path d="m0 4.658c1.5.032 3.194-.503 4.479-1.279 1.007-.608 1.53-1.9 1.643-3.031.034-.338-.48-.38-.572-.078-.354 1.152-.637 2.301-1.804 2.875-1.192.585-2.424.971-3.746 1.101-.258.026-.27.406 0 .412" transform="matrix(4.16667 0 0 4.16667 103.601 159.4835)"/><path d="m0-1.819c.248.528.485 1.072.803 1.564.203.315.522.793.941.754.203-.019.294-.196.216-.377-.075-.177-.203-.239-.34-.366-.167-.158-.294-.351-.413-.547-.259-.428-.505-.861-.769-1.285-.176-.281-.577-.036-.438.257" transform="matrix(4.16667 0 0 4.16667 128.001 168.9835)"/><path d="m0 2.155c3.135-.891 6.278-1.623 9.561-1.655 3.51-.035 6.292 1.215 9.637 1.803.44.077.628-.597.185-.675-3.391-.591-6.3-1.853-9.822-1.813-3.32.038-6.571.746-9.725 1.744-.377.12-.221.705.164.596" transform="matrix(4.16667 0 0 4.16667 133.001 163.8835)"/><path d="m0 2.448c.247-.344.465-.673.664-1.047.181-.339.406-.677.505-1.051.073-.273-.305-.536-.505-.294-.507.615-.806 1.478-1.059 2.226-.084.247.261.352.395.166" transform="matrix(4.16667 0 0 4.16667 215.401 161.9835)"/><path d="m0-1.299c.782.847 1.617 1.081 2.742 1.209 1.79.205 3.608.273 5.405.406.423.031.422-.628 0-.659-1.333-.097-2.665-.194-3.998-.291-1.348-.098-2.808-.1-3.962-.907-.149-.105-.301.118-.187.242" transform="matrix(4.16667 0 0 4.16667 174.501 197.8835)"/><path d="m.865-2.281c.395.7.597 1.598.494 2.399-.041.315-.497.293-.494-.028.006-.782-.095-1.45-.387-2.179-.104-.257.249-.437.387-.192" transform="matrix(-3.10683 2.77646 2.77646 3.10683 178.401 188.8835)"/><path d="m0 7.352c.611-1.305.771-2.752 1.271-4.095.385-1.034.405-2.011-.046-3.026-.168-.376-.793-.108-.664.28.443 1.357-.021 2.134-.373 3.412-.292 1.062-.493 2.251-.476 3.351.003.144.221.223.288.078" transform="matrix(4.16667 0 0 4.16667 231.801 160.4835)"/><path d="m0 .422c.335-.607 1.05-1.386 1.837-.987.836.426.299 1.422-.074 1.965-.226.33.306.63.534.311.613-.856 1.011-2.221-.198-2.799-1.088-.52-2.09.387-2.413 1.378-.06.185.22.302.314.132" transform="matrix(4.16667 0 0 4.16667 227.601 154.3835)"/><path d="m0-3.358c-.817-.371-1.334-.188-1.764.559-.242.419-.668.571-.937.939-.321.441-.432 1.232-.537 1.759-.069.344.403.472.523.144.142-.391.209-.809.357-1.198.171-.452.438-.537.739-.844.192-.194.274-.428.42-.649.274-.416.659-.418 1.123-.429.138-.003.219-.215.076-.281" transform="matrix(4.16667 0 0 4.16667 231.001 164.2835)"/><path d="m0-4.161c-.769-.094-1.434.978-1.78 1.548-.366.602-.998 1.679-.661 2.376.159.331.716.098.595-.251-.18-.527.424-1.468.688-1.896.347-.558.737-.997 1.265-1.381.179-.129.106-.37-.107-.396" transform="matrix(4.16667 0 0 4.16667 146.201 184.5835)"/><path d="m0-1.098c.352 1.485.574 3.279 2.474 3.148 1.346-.093 2.588-1.105 2.904-2.425.374-1.558-1.104-2.417-2.455-2.66-1.359-.244-2.619.694-2.882 2.021-.065.323.428.461.496.136.263-1.263 1.344-1.807 2.555-1.466.358.1.796.29 1.123.495.718.446.662 1.321.278 1.97-.437.74-1.285 1.271-2.152 1.292-1.293.031-1.454-1.734-1.792-2.662-.124-.341-.635-.21-.549.151" transform="matrix(4.16667 0 0 4.16667 103.401 92.3835)"/><path d="m0-.45c.459.655 1.643 1.356 2.454.976.912-.427.402-1.364-.266-1.703-.355-.179-.648.318-.312.533.161.104.533.275.5.518-.055.402-.688.231-.919.16-.471-.143-.833-.435-1.227-.714-.135-.096-.326.094-.23.23" transform="matrix(4.16667 0 0 4.16667 107.301 87.0835)"/><path d="m0-5.636c-1.025.366-2.195-.177-3.178.323-.917.465-1.126 1.669-1.126 2.598.002 2.056 2.957 2.892 4.453 1.886.358-.24.051-.738-.332-.569-.862.381-1.702.451-2.538-.047-.942-.56-1.055-1.44-.748-2.434.512-1.672 2.54-.554 3.623-1.493.117-.102-.008-.316-.154-.264" transform="matrix(4.16667 0 0 4.16667 106.701 99.2835)"/><path d="m0 .361c.314-.11.585-.282.881-.436.344-.181.895-.577 1.284-.576.523 0 .729.432.864.885.123.421.029.668-.085 1.069-.053.189.142.43.346.346.991-.4.431-2.097-.157-2.654-.383-.363-.89-.367-1.36-.179-.662.266-1.412.78-1.94 1.258-.126.113.006.343.167.287" transform="matrix(4.16667 0 0 4.16667 107.601 76.2835)"/><path d="m-.06-1.429c.495.225.816.829.604 1.354-.114.285-.583.23-.604-.088-.019-.302-.062-.535-.313-.732-.274-.215-.015-.685.313-.534" transform="matrix(-3.86364 1.55994 1.55994 3.86364 99.601 88.5835)"/><path d="m0-.072c.003.026.005.052.008.079-.002.028.004.056.017.081.008.025.023.048.043.067.036.036.096.064.149.061.054-.002.11-.02.148-.061.011-.014.021-.028.032-.043.018-.032.029-.067.029-.105.001-.027.004-.053.006-.079.001-.029-.005-.058-.018-.084-.008-.026-.024-.05-.044-.069-.038-.038-.1-.066-.153-.064-.056.003-.115.021-.154.064-.036.04-.068.096-.063.153" transform="matrix(4.16667 0 0 4.16667 117.201 78.1835)"/><path d="m0-.448c.268.136.54.259.819.369.307.118.667.176.957.328.496.261.674-.62.162-.601-.298.011-.636-.119-.92-.207-.286-.089-.566-.19-.843-.303-.238-.096-.402.299-.175.414" transform="matrix(4.16667 0 0 4.16667 81.201 85.9835)"/><path d="m-.024-1.96c-.069.674.141 1.29.483 1.867.174.296-.263.549-.483.32-.575-.6-.771-1.418-.671-2.234.052-.428.715-.386.671.047" transform="matrix(-4.15632 -.293477 -.293477 4.15632 79.701 88.1835)"/><path d="m0 .926c.186.012.388-.105.533-.214.166-.125.388-.318.297-.556-.039-.101-.133-.168-.245-.139-.181.048-.24.216-.343.348-.099.126-.239.186-.353.291-.108.099-.018.261.111.27" transform="matrix(4.16667 0 0 4.16667 122.901 72.0835)"/><path d="m.545-1.791c.26.531.406 1.074.478 1.66.039.307-.454.355-.478.045-.041-.539-.15-1.076-.302-1.593-.059-.203.211-.297.302-.112" transform="matrix(-3.38593 2.42829 2.42829 3.38593 130.301 74.7835)"/><path d="m0 .893c.216-.15.44-.261.693-.329.242-.064.489-.05.729-.108.246-.059.218-.396 0-.47-.545-.183-1.256.13-1.689.451-.268.199-.016.653.267.456" transform="matrix(4.16667 0 0 4.16667 101.601 57.4835)"/><path d="m0-1.846c-.462.004-.752.4-.752.839.001.424.123.969.542 1.162.429.197.828-.098.904-.532.077-.44-.045-.954-.222-1.355-.205-.466-.982-.038-.693.405.087.135.171.251.208.411.018.077.026.151.029.231.001.04-.026.167-.011.197.025-.001.051-.002.076-.003-.01-.016-.02-.033-.029-.049.005-.054-.042-.161-.052-.22-.011-.064-.05-.352 0-.352.473.003.474-.737 0-.734" transform="matrix(4.16667 0 0 4.16667 88.701 58.5835)"/><path d="m0-1.13c-.42-.038-.604.653-.593.977.013.371.308.788.72.686.459-.117.43-.618.401-.988-.037-.482-.091-1.005-.599-1.205-.266-.105-.567.213-.472.473.072.2.214.345.305.536.084.176.095.357.146.54.004.036.004.07 0 .104.103-.023.129-.072.077-.147.024-.091.009-.195.041-.291.064-.199.216-.333.15-.552-.027-.083-.093-.125-.176-.133" transform="matrix(4.16667 0 0 4.16667 112.201 53.3835)"/><path d="m0-4.248c1.625.007.592 3.692.315 4.364-.142.346.407.551.589.248.649-1.074.695-2.486.614-3.708-.06-.914-.544-1.571-1.518-1.556-.419.006-.42.651 0 .652" transform="matrix(4.16667 0 0 4.16667 130.901 70.1835)"/><path d="m0-3.104c-.186.044-.275.14-.339.322-.041.119-.028.243-.037.366-.029.313-.128.559-.272.836-.088.169.02.396.226.392.641-.015 1.182.421 1.465.952.133.252.476.067.432-.182-.135-.784-1.163-1.309-1.897-1.292.075.131.149.262.224.392.299-.57.333-1.05.333-1.683 0-.072-.069-.119-.135-.103" transform="matrix(4.16667 0 0 4.16667 174.201 100.2835)"/><path d="m0 .269c.196.074.394.134.599.176.187.038.392.091.556-.033.091-.069.124-.19.036-.281-.137-.142-.314-.134-.498-.164-.194-.032-.384-.081-.57-.142-.286-.092-.395.341-.123.444" transform="matrix(4.16667 0 0 4.16667 175.801 107.1835)"/><path d="m8.486-8.693c-.942 5.516-.75 10.982.633 16.409.102.403-.532.526-.633.124-1.404-5.511-1.589-10.979-.507-16.571.061-.314.562-.287.507.038" transform="matrix(-.311243 4.15503 4.15503 .311243 230.501 74.4835)"/><path d="m0-1.481c.413-.023.789-.209 1.197-.287.502-.094.997-.1 1.503-.051-.107-.082-.216-.165-.324-.246.187.689-.344 1.267-.796 1.72-.327.327-.818.63-.917 1.099-.038.185.109.326.292.292.346-.066.517-.303.763-.546.292-.29.588-.576.838-.905.419-.546.662-1.156.468-1.839-.044-.152-.175-.234-.324-.246-.874-.071-2.195-.04-2.867.604-.144.138-.039.416.167.405" transform="matrix(4.16667 0 0 4.16667 259.901 121.4835)"/><path d="m-.979-11.598c-1.969 3.09-1.233 8.886.576 11.923.202.339-.346.733-.576.399-2.187-3.159-2.678-9.435-.518-12.659.221-.329.732 0 .518.337" transform="matrix(-3.97086 -1.2623 -1.2623 3.97086 243.701 169.6835)"/><path d="m0-2.516c.083.275.231.495.395.73.112.158.46.482.464.694.005.239-.303.29-.483.257-.28-.054-.545-.284-.758-.456-.421-.342-1.025.251-.601.601.673.556 1.722 1.119 2.426.261.278-.34.281-.77.071-1.147-.253-.454-.673-.974-1.116-1.246-.199-.123-.465.081-.398.306" transform="matrix(4.16667 0 0 4.16667 245.301 182.8835)"/><path d="m0-.634c-.31-.021-.621.006-.932-.014-.281-.018-.58-.126-.786.124-.088.109-.104.223-.044.349.148.315.53.277.83.287.339.011.693.015 1.026-.058.403-.09.282-.663-.094-.688" transform="matrix(4.16667 0 0 4.16667 241.101 180.1835)"/><path d="m0-5.569c-.658 1.132-1.017 2.554-.943 3.867.057 1.024.617 1.499 1.556 1.83.39.138.671-.509.285-.677-1.022-.447-1.225-1.157-1.111-2.203.1-.914.394-1.749.721-2.602.114-.3-.353-.481-.508-.215" transform="matrix(4.16667 0 0 4.16667 155.701 166.1835)"/><path d="m0-5.727c.572.225 1.146.427 1.724.631 1.124.397 1.646 1.261.924 2.338-.692 1.033-2.033 1.654-3.001 2.399-.342.264-.037.847.349.599 1.329-.852 3.5-1.986 3.683-3.758.212-2.048-2.058-2.288-3.562-2.633-.281-.064-.375.322-.117.424" transform="matrix(4.16667 0 0 4.16667 255.101 187.0835)"/><path d="m0-8.311c2.612 1.831-1.009 3.991-2.639 4.995-1.813 1.117-3.744 2.003-5.616 3.008-.491.264-.055 1.007.437.746 1.752-.926 13.837-6.661 8.13-9.283-.361-.165-.641.304-.312.534" transform="matrix(4.16667 0 0 4.16667 266.401 215.0835)"/><path d="m-2.934-3.602c.226 1.919.346 3.791.752 5.689.102.483-.64.646-.752.164-.429-1.846-.759-3.908-.582-5.807.028-.313.541-.392.582-.046" transform="matrix(-.889172 -4.07069 -4.07069 .889172 136.701 141.6835)"/><path d="m0-8.826c-1.499.64-5.95 2.688-5.151 4.943.381 1.075 1.843 2.023 2.829 2.476 1.642.755 3.532.817 5.232 1.437.275.101.455-.335.198-.47-2.046-1.085-4.467-.76-6.367-2.238-3.146-2.446 1.644-4.667 3.529-5.685.311-.169.038-.594-.27-.463" transform="matrix(4.16667 0 0 4.16667 37.401 203.7835)"/><path d="m0-11.079c-1.557.944-5.648 2.232-4.332 4.668.428.793 1.712 1.127 2.487 1.473 2.402 1.077 4.591 1.795 6.953 3.023 3.858 2.004 8.836 1.492 13.105 1.751 5.561.336 10.593.367 16.039-.948.489-.117.282-.872-.209-.754-7.558 1.822-15.09 1.072-22.766.504-2.614-.194-4.014-.309-6.382-1.62-.979-.542-1.423-.89-2.417-1.292-1.229-.497-4.578-.728-5.364-1.876-1.682-2.454 1.699-3.445 3.191-4.407.325-.21.03-.725-.305-.522" transform="matrix(4.16667 0 0 4.16667 19.101 238.4835)"/></g></g></svg>