<svg clip-rule="evenodd" fill-rule="evenodd" stroke-linejoin="round" stroke-miterlimit="2" viewBox="0 0 278 191" xmlns="http://www.w3.org/2000/svg"><g fill-rule="nonzero"><path d="m0-44.025c1.023-.046 2.05-.094 3.073-.051 5.289.222 6.888 4.117 8.494 8.383 1.872 4.975 4.252 9.779 5.533 14.962.619 2.507 1.591 6.464-.462 8.62-1.477 1.551-5.753 2.05-7.775 2.619-2.607.733-5.213 1.476-7.824 2.201-9.542 2.649-19.19 5.151-29.053 6.254-2.422.271-5.922 1.131-8.071-.146-1.333-.792-2.27-2.368-3.029-3.674-1.758-3.022-2.788-6.505-3.694-9.863-1.607-5.964-2.459-12.092-3.974-18.073-.011-.045-.034-.076-.054-.111.971-7.136 41.896-10.903 46.836-11.121" fill="#ec008c" transform="matrix(4.16667 0 0 4.16667 199.6701 188.0558)"/><path d="m0-39.419c1.467-.047 2.665-.054 4.128.335 4.083 1.085 4.88 4.486 6.226 7.973 1.743 4.517 3.873 8.955 4.9 13.713.808 3.742.895 6.582-3.109 8.213-3.996 1.627-8.643 2.451-12.803 3.586-8.456 2.306-17.016 4.357-25.765 5.124-2.138.188-4.176.529-5.932-.838-1.041-.81-1.77-2.251-2.389-3.402-1.497-2.774-2.388-5.962-3.175-8.999-1.366-5.262-2.124-10.654-3.44-15.925-.013-.048-.035-.083-.057-.119.864-6.514 36.888-9.513 41.416-9.661" fill="#82838f" transform="matrix(4.16667 0 0 4.16667 199.7701 176.7558)"/><path d="m0-2.799c.128.207.185.469.251.7.147.529.425 1.173.417 1.72-.009.549-.774.972-1.197.519-.199-.212-.279-.743-.368-1.009-.222-.653-.41-1.316-.622-1.975.482-.293 1.152-.548 1.519.045" fill="#be1e2d" transform="matrix(4.16667 0 0 4.16667 30.2701 115.0558)"/><path d="m0 25.957c1.484-3.055 3.017-6.084 4.578-9.099 1.566-3.023 3.153-6.033 4.73-9.049 1.558-2.982 3.055-5.995 4.781-8.886.845-1.417 1.722-2.815 2.594-4.215.288-.462.563-.946.848-1.424-8.217.537-39.069 3.553-39.869 9.577.022.036.044.071.057.118 1.315 5.271 2.074 10.663 3.44 15.925.787 3.037 1.678 6.226 3.175 9 .619 1.151 1.348 2.591 2.389 3.402 1.755 1.367 3.794 1.026 5.932.838 1.525-.134 3.043-.319 4.558-.525.954-1.876 1.867-3.771 2.787-5.662" fill="#727172" transform="matrix(4.16667 0 0 4.16667 120.2701 40.8558)"/><path d="m0-13.886c-1.439-.705-3.026-1.058-4.614-1.195-3.459-.297-6.95.29-10.371.736-4.777.624-9.524 1.461-14.247 2.403-3.722.742-7.276 2.058-10.897 3.149.004.032-.003.065-.042.083-.714.346-1.499.5-2.226.811.354.153.711.297 1.08.409 1.705.52 3.496.644 5.237.994 1.889.38 3.809.576 5.731.658 3.825.166 7.649-.099 11.472-.195 1.926-.049 3.855-.055 5.78.054 1.809.102 3.608.329 5.394.636 3.396.586 6.713 1.534 9.904 2.834 1.536.625 3.074 1.292 4.555 2.035 1.063.534 2.081 1.173 2.966 1.966-.8-2.371-1.767-4.69-2.712-7.009-.948-1.751-1.986-3.477-3.158-5.087-1.006-1.384-2.313-2.527-3.852-3.282" fill="#fff" opacity=".15" transform="matrix(4.16667 0 0 4.16667 217.81628041 80.54466351)"/><g fill="#231f20"><path d="m0-19.015c-3.771-7.904 41.429-12.078 46.636-12.308 1.024-.046 2.051-.094 3.074-.051 5.288.222 6.887 4.117 8.494 8.382 1.871 4.975 4.252 9.78 5.532 14.962.62 2.508 1.592 6.465-.462 8.621-1.476 1.55-5.752 2.051-7.774 2.619-2.608.734-5.214 1.476-7.824 2.2-9.543 2.65-19.191 5.151-29.053 6.255-2.423.271-5.922 1.131-8.072-.146-1.332-.792-2.27-2.369-3.029-3.676-1.758-3.021-2.788-6.503-3.693-9.862-1.608-5.964-2.461-12.091-3.974-18.072-.148-.576-1.037-.332-.892.246 1.774 7.094 2.642 14.387 4.884 21.373 1.216 3.791 3.294 10.204 7.67 11.503 2.367.704 6.41-.478 8.882-.805 2.411-.319 4.811-.721 7.201-1.173 6.54-1.235 12.987-2.914 19.397-4.689 2.903-.803 5.798-1.632 8.698-2.449 1.998-.563 5.255-.878 6.965-1.946 1.596-.998 2.236-2.389 2.462-4.233.748-6.119-3-12.946-5.23-18.415-2.032-4.983-3.12-10.943-9.548-11.391-9.755-.68-20.391 1.379-29.951 3.053-2.902.509-24.761 3.583-20.827 10.256.167.281.572.035.434-.254" transform="matrix(4.16667 0 0 4.16667 5.3701 135.1558)"/><path d="m0-17.844c-3.358-7.278 36.463-10.605 41.238-10.761 1.466-.048 2.664-.055 4.127.334 4.083 1.086 4.881 4.487 6.228 7.973 1.743 4.517 3.872 8.956 4.899 13.713.807 3.742.895 6.582-3.11 8.213-3.995 1.627-8.643 2.451-12.803 3.585-8.456 2.307-17.014 4.357-25.765 5.126-2.137.188-4.176.53-5.931-.838-1.042-.811-1.77-2.252-2.39-3.402-1.496-2.774-2.387-5.962-3.175-9-1.365-5.263-2.124-10.654-3.44-15.924-.135-.545-.974-.315-.84.23 1.573 6.384 2.356 12.937 4.319 19.228 1.101 3.527 2.941 9.456 6.969 10.755 1.712.553 5.276-.362 7.126-.582 2.072-.246 4.135-.566 6.189-.928 5.486-.968 10.896-2.305 16.272-3.76 2.846-.772 5.681-1.581 8.519-2.384 2.086-.589 5.02-.798 6.85-1.918 1.377-.84 2.004-1.996 2.273-3.579.918-5.402-2.494-11.724-4.445-16.546-1.722-4.256-2.65-10.093-8.061-10.94-3.44-.536-7.386.147-10.81.444-5.499.478-10.992 1.138-16.433 2.069-2.676.458-21.749 3.028-18.215 9.13.155.269.535.034.409-.238" transform="matrix(4.16667 0 0 4.16667 27.8701 131.7558)"/><path d="m0-2.797c.484-.311 1.205-.617 1.587.003.129.207.186.469.251.7.148.529.426 1.173.417 1.72-.008.549-.774.971-1.197.519-.198-.213-.279-.744-.367-1.009-.243-.716-.444-1.444-.681-2.162-.141-.426-.821-.241-.675.185.282.819.607 1.622.873 2.447.142.44.201 1.018.651 1.266.734.407 1.907.081 2.058-.795.087-.508-.126-1.045-.261-1.524-.153-.542-.259-1.158-.555-1.647-.592-.982-1.565-.722-2.378-.177-.292.195-.022.666.277.474" transform="matrix(4.16667 0 0 4.16667 23.6701 115.0558)"/><path d="m1.888-6.706c.877 2.278.821 4.513.482 6.895-.045.315-.53.209-.482-.106.356-2.301.512-4.476-.165-6.738-.032-.106.125-.152.165-.051" transform="matrix(-3.50814 2.24813 2.24813 3.50814 57.5701 173.7558)"/><path d="m0 4.756c-.222-.686-.614-1.282-.783-1.994-.208-.868-.214-1.739-.089-2.619.042-.301-.391-.443-.47-.13-.385 1.521-.232 3.811 1.027 4.926.132.117.376.007.315-.183" transform="matrix(4.16667 0 0 4.16667 14.6701 45.4558)"/></g></g></svg>