<svg clip-rule="evenodd" fill-rule="evenodd" stroke-linejoin="round" stroke-miterlimit="2" viewBox="0 0 200 200" xmlns="http://www.w3.org/2000/svg" xmlns:xlink="http://www.w3.org/1999/xlink"><linearGradient id="a"><stop offset="0" stop-color="#7c4a18"/><stop offset="1" stop-color="#412103"/></linearGradient><linearGradient id="b" gradientTransform="matrix(0 101.523 -101.523 0 159.437 69.1699)" gradientUnits="userSpaceOnUse" x1="0" x2="1" xlink:href="#a" y1="0" y2="0"/><linearGradient id="c" gradientTransform="matrix(0 30.8691 -30.8691 0 60.7285 68.4434)" gradientUnits="userSpaceOnUse" x1="0" x2="1" xlink:href="#a" y1="0" y2="0"/><linearGradient id="d" gradientTransform="matrix(0 31.6953 -31.6953 0 157.57 49.8633)" gradientUnits="userSpaceOnUse" x1="0" x2="1" xlink:href="#a" y1="0" y2="0"/><linearGradient id="e" gradientTransform="matrix(0 29.5332 -29.5332 0 98.4805 62.582)" gradientUnits="userSpaceOnUse" x1="0" x2="1" xlink:href="#a" y1="0" y2="0"/><g fill-rule="nonzero"><path d="m10.292 79.087 12.047 68.234c1.544 7.901 9.397 14.375 17.451 14.375h115.302c8.059 0 15.911-6.474 17.451-14.375l12.049-68.234z" fill="url(#b)"/><path d="m177.356 79.087-11.001 61.433c-1.546 7.908-9.399 14.375-17.452 14.375h-115.301c-3.409 0-6.776-1.169-9.648-3.099 3.048 5.727 9.373 9.9 15.836 9.9h115.302c8.059 0 15.911-6.474 17.451-14.375l12.049-68.234z" fill-opacity=".2"/><path d="m12.669 94.515h169.544l2.379-15.428h-174.3z" fill-opacity=".2"/><path d="m6.959 72.286h180.97v16.736h-180.97z" fill="url(#c)"/><path d="m190.337 56.412-63.042 10.846-21.692 3.731-7.742 1.331c-3.841.66-6.496 3.984-5.912 7.389l.576 3.347c.585 3.403 4.202 5.648 8.041 4.987l7.741-1.333 21.693-3.73 63.041-10.844z" fill="url(#d)"/><path d="m187.928 77.793v-5.507l-90.486 13.849-4.637-2.072s.991 4.959 10.22 4.959h11.469z" fill-opacity=".2"/><path d="m103.025 80.048c0 2.217-1.799 4.015-4.016 4.015-2.218 0-4.015-1.798-4.015-4.015s1.797-4.016 4.015-4.016c2.217 0 4.016 1.799 4.016 4.016z" fill="url(#e)"/><g fill-opacity=".25"><path d="m41.783 103.106h-9.417l-1.029-6.829h10.446z"/><path d="m61.698 96.277h11.166v6.828h-11.166z"/><path d="m154.105 103.106h9.416l1.029-6.829h-10.445z"/><path d="m123.024 96.277h11.166v6.828h-11.166z"/><path d="m91.858 96.277h11.166v6.828h-11.166z"/><path d="m45.966 125.864h-9.416l-1.029-6.83h10.445z"/><path d="m63.79 119.034h11.169v6.83h-11.169z"/><path d="m149.921 125.864h9.415l1.03-6.83h-10.445z"/><path d="m120.929 119.034h11.173v6.83h-11.173z"/><path d="m91.858 119.034h11.166v6.83h-11.166z"/><path d="m50.15 147.683h-9.415l-1.029-6.83h10.444z"/><path d="m69.104 140.853h8.91v6.83h-8.91z"/><path d="m145.737 147.683h9.415l1.03-6.83h-10.445z"/><path d="m117.939 140.853h8.786v6.83h-8.786z"/><path d="m93.112 140.853h8.665v6.83h-8.665z"/></g></g></svg>