<?xml version="1.0" encoding="UTF-8" standalone="no"?><!DOCTYPE svg PUBLIC "-//W3C//DTD SVG 1.1//EN" "http://www.w3.org/Graphics/SVG/1.1/DTD/svg11.dtd"><svg width="100%" height="100%" viewBox="0 0 280 206" version="1.1" xmlns="http://www.w3.org/2000/svg" xmlns:xlink="http://www.w3.org/1999/xlink" xml:space="preserve" xmlns:serif="http://www.serif.com/" style="fill-rule:evenodd;clip-rule:evenodd;stroke-linejoin:round;stroke-miterlimit:2;"><g><path d="M78.499,61.368c17.061,-1.559 33.42,1.462 48.729,8.296c9.552,4.265 16.477,12.174 18.163,23.257c1.174,7.675 1.449,15.392 -0.42,23.039c-0.091,0.372 -0.27,0.762 -0.231,1.132c0.598,6.37 -1.814,12.089 -3.676,17.964c-1.574,4.959 -2.453,10.153 -4.219,15.031c-1.951,5.4 -4.634,10.54 -6.875,15.843c-5.002,11.863 -14.33,19.929 -24.35,27.191c-6.043,4.381 -13.189,5.365 -20.5,3.468c-10.215,-2.657 -19.405,-7.536 -28.157,-13.322c-12.347,-8.167 -21.634,-19.114 -28.861,-31.91c-9.431,-16.684 -12.461,-34.292 -7.729,-53.063c2.062,-8.172 6.573,-14.792 12.746,-20.329c2.586,-2.318 5.337,-4.555 8.331,-6.272c2.791,-1.589 5.969,-2.551 9.042,-3.584c3.816,-1.279 7.661,-2.557 11.572,-3.465c5.442,-1.264 10.956,-2.196 16.435,-3.276Zm-25.719,65.089c1.926,-4.508 -0.436,-7.546 -1.229,-10.776c-0.166,-0.666 -1.735,-0.987 -2.653,-1.46c-0.488,0.959 -1.531,2.023 -1.369,2.857c0.509,2.609 1.326,5.19 2.357,7.648c0.32,0.741 1.698,1.045 2.894,1.731Zm-2.223,-36.035c1.207,-5.368 1.021,-7.285 -0.919,-11.346c-3.1,1.218 -3.348,1.228 -3.256,2.96c0.172,3.121 -0.234,6.662 4.175,8.386Zm82.114,15.121c4.101,-0.807 3.181,-4.026 3.94,-6.082c0.613,-1.678 0.455,-3.686 0.38,-5.544c-0.02,-0.431 -1.172,-1.215 -1.686,-1.132c-0.823,0.14 -2.15,0.825 -2.197,1.37c-0.304,3.696 -0.321,7.415 -0.437,11.388Zm-43.852,74.07c0.797,-3.967 1.694,-6.848 1.86,-9.775c0.132,-2.247 -1.597,-2.789 -3.888,-1.939c-0.894,3.559 -2.34,7.204 2.028,11.714Zm29.203,-38.292c4.685,-2.792 6.249,-5.867 5.969,-10.893c-2.33,-0.283 -4.135,0.269 -4.665,2.861c-0.49,2.384 -0.79,4.812 -1.304,8.032Zm-12.113,37.497c0.437,0.211 0.883,0.419 1.319,0.63c2.374,-1.89 3.218,-4.913 4.485,-7.525c0.28,-0.579 -0.94,-2.496 -1.853,-2.896c-1.558,-0.679 -3.191,0.1 -3.448,1.966c-0.346,2.582 -0.35,5.218 -0.503,7.825Zm12.259,-94.43c0.691,-3.889 2.284,-6.806 -0.053,-9.638c-0.489,-0.595 -1.699,-1.081 -2.388,-0.898c-0.751,0.192 -1.94,1.449 -1.809,1.847c0.936,2.693 0.715,5.99 4.25,8.689Zm-59.34,79.895c-0.425,-1.48 -0.881,-2.393 -0.914,-3.323c-0.06,-1.75 -0.45,-3.176 -2.521,-3.008c-1.944,0.157 -3.068,2.204 -2.438,4.385c0.313,1.087 0.733,2.308 1.503,3.06c0.679,0.667 2.048,1.216 2.868,0.975c0.743,-0.218 1.157,-1.573 1.502,-2.089Zm40.276,-18.675c3.878,-2.48 4.588,-5.425 4.823,-8.429c0.051,-0.686 -1.382,-2.054 -2.186,-2.096c-0.822,-0.038 -2.362,1.076 -2.456,1.831c-0.325,2.529 -0.154,5.129 -0.181,8.694Zm1.444,-35.491c3.848,-2.452 2.699,-5.601 3.617,-7.958c0.532,-1.363 -0.428,-2.922 -2.083,-2.611c-0.985,0.189 -2.466,1.526 -2.493,2.382c-0.06,2.42 0.518,4.859 0.959,8.187Zm-70.253,-3.184c2.388,-3.942 2.36,-4.762 -0.309,-8.163c-3.982,2.838 -3.883,5.386 0.309,8.163Zm41.723,33.116c2.202,-3.606 0.414,-6.532 0.648,-9.508c-5.086,0.69 -5.245,2.666 -0.648,9.508Zm6.513,-49.627c2.897,-2.217 2.295,-4.64 1.998,-6.709c-0.103,-0.732 -2.039,-1.797 -2.939,-1.633c-0.758,0.138 -1.902,1.997 -1.7,2.81c0.455,1.853 1.627,3.524 2.641,5.532Zm-40.984,50.636c0.053,-1.775 0.14,-2.528 0.088,-3.276c-0.136,-1.997 -0.433,-4.001 -2.905,-4.352c-0.603,-0.086 -1.888,0.614 -1.865,0.84c0.197,1.802 0.401,3.685 1.115,5.319c0.303,0.689 1.858,0.81 3.567,1.469Z" style="fill:#b71c32;fill-rule:nonzero;"/><path d="M127.284,87.381c3.477,16.755 5.496,34.225 1.711,50.919c-3.787,16.686 -14.234,32.598 -29.956,39.361c-14.751,6.345 -31.607,3.978 -47.467,1.493c14.14,11.929 30.832,23.041 47.947,17.76c11.175,-3.455 21.525,-16.367 27.948,-26.141c9.618,-14.634 16.419,-31.116 19.925,-48.265c3.265,-15.958 3.011,-34.415 -8.186,-46.248c-8.544,-9.033 -21.635,-12.421 -33.44,-14.648c12.709,5.274 18.641,11.885 21.518,25.769Z" style="fill:#9a2d35;fill-rule:nonzero;"/><path d="M40.357,67.662c-11.723,-0.921 -22.414,-4.801 -33.554,-9.418c0.544,-1.172 1.051,-2.742 1.929,-4.072c6.318,-9.538 15.65,-12.383 26.541,-12.083c8.197,0.23 15.777,2.734 23.479,5.909c-5.235,-16.264 -5.235,-16.264 -3.383,-24.575c11.726,3.153 16.546,12.338 20.073,23.902c2.554,-4.952 4.407,-9.028 6.699,-12.857c2.471,-4.126 5.121,-8.185 8.107,-11.938c2.835,-3.576 6.219,-6.724 9.719,-10.438c6.613,10.024 3.923,20.314 1.083,31.665c10.294,-5.364 20.749,-7.035 31.792,-8.913c-1.824,12.846 -10.462,18.969 -20.112,24.368c5.24,1.973 10.327,3.722 15.27,5.794c9.975,4.183 16.783,11.652 20.604,21.589c2.681,6.972 1.935,14.424 1.493,21.774c-0.981,16.396 -6.168,31.853 -10.777,47.375c-2.748,9.247 -7.535,17.795 -13.259,25.652c-1.58,2.168 -3.419,4.313 -5.584,5.85c-6.118,4.348 -12.321,8.628 -18.78,12.437c-4.479,2.645 -9.622,2.813 -14.653,1.4c-22.234,-6.252 -40.953,-17.507 -54.82,-36.613c-7.193,-9.912 -12.108,-20.687 -15.522,-32.155c-2.837,-9.521 -2.759,-19.432 -1.023,-29.309c1.293,-7.34 3.324,-14.459 8.073,-20.175c3.914,-4.707 8.857,-8.573 13.385,-12.76c0.966,-0.92 2.141,-1.614 3.22,-2.409Zm38.142,-6.294c-5.479,1.08 -10.993,2.012 -16.423,3.282c-3.918,0.919 -7.757,2.186 -11.573,3.465c-3.073,1.033 -6.254,1.987 -9.042,3.584c-2.997,1.708 -5.745,3.954 -8.331,6.272c-6.173,5.537 -10.675,12.155 -12.746,20.329c-4.743,18.765 -1.705,36.371 7.729,53.063c7.227,12.796 16.525,23.749 28.861,31.91c8.743,5.789 17.942,10.665 28.157,13.322c7.303,1.9 14.457,0.912 20.5,-3.468c10.012,-7.26 19.34,-15.326 24.342,-27.189c2.241,-5.303 4.915,-10.44 6.875,-15.843c1.766,-4.878 2.645,-10.071 4.219,-15.03c1.861,-5.876 4.274,-11.594 3.675,-17.965c-0.038,-0.37 0.14,-0.759 0.231,-1.132c1.869,-7.646 1.586,-15.361 0.42,-23.038c-1.686,-11.084 -8.613,-19.001 -18.162,-23.258c-15.312,-6.842 -31.679,-9.861 -48.732,-8.304Zm-15.802,-2.447c-5.574,-9.55 -15.276,-11.657 -24.67,-12.452c-9.433,-0.801 -19.268,0.066 -26.02,8.824c10.999,9.148 37.79,11.092 50.69,3.628Zm36.985,-39.909c-12.127,8.168 -23.04,28.616 -20.532,37.484c5.438,0.673 5.328,0.558 10.287,-3.956c9.872,-8.996 11.254,-20.459 10.245,-33.528Zm26.693,20.77c-13.272,2.02 -24.641,5.907 -33.336,16.469c14.137,2.882 30.052,-4.741 33.336,-16.469Zm-56.891,18.227c2.895,-0.885 3.266,-2.805 2.96,-4.415c-1.227,-6.448 -2.588,-12.967 -6.727,-18.283c-1.812,-2.332 -4.037,-4.677 -8.213,-4.666c1.739,10.314 6.225,18.986 11.98,27.364Z" style="fill:#252723;fill-rule:nonzero;"/><g><path d="M62.697,58.921c-12.892,7.461 -39.682,5.517 -50.693,-3.637c6.752,-8.758 16.59,-9.616 26.021,-8.823c9.388,0.806 19.09,2.912 24.672,12.46Z" style="fill:#81b167;fill-rule:nonzero;"/><path d="M99.682,19.012c1.009,13.069 -0.373,24.532 -10.237,33.525c-4.959,4.514 -4.857,4.632 -10.287,3.956c-2.516,-8.865 8.397,-29.313 20.524,-37.481Z" style="fill:#81b167;fill-rule:nonzero;"/><path d="M126.375,39.782c-3.284,11.728 -19.199,19.351 -33.336,16.469c8.695,-10.562 20.064,-14.449 33.336,-16.469Z" style="fill:#81b167;fill-rule:nonzero;"/><path d="M69.484,58.009c-5.755,-8.378 -10.239,-17.042 -11.98,-27.364c4.179,-0.002 6.404,2.343 8.213,4.666c4.142,5.324 5.5,11.835 6.727,18.283c0.304,1.602 -0.077,3.524 -2.96,4.415Z" style="fill:#81b167;fill-rule:nonzero;"/></g><g><path d="M52.78,126.457c-1.205,-0.683 -2.583,-0.988 -2.896,-1.739c-1.031,-2.459 -1.848,-5.039 -2.358,-7.648c-0.162,-0.835 0.881,-1.899 1.37,-2.858c0.92,0.482 2.497,0.8 2.653,1.46c0.795,3.239 3.157,6.277 1.231,10.785Z" style="fill:#252723;fill-rule:nonzero;"/><path d="M50.557,90.422c-4.415,-1.713 -4.003,-5.265 -4.175,-8.386c-0.101,-1.729 0.156,-1.742 3.256,-2.96c1.948,4.058 2.134,5.975 0.919,11.346Z" style="fill:#252723;fill-rule:nonzero;"/><path d="M132.671,105.543c0.116,-3.973 0.142,-7.695 0.445,-11.391c0.048,-0.545 1.374,-1.23 2.197,-1.37c0.512,-0.091 1.666,0.701 1.687,1.132c0.083,1.855 0.241,3.864 -0.381,5.544c-0.767,2.059 0.144,5.281 -3.948,6.085Z" style="fill:#252723;fill-rule:nonzero;"/><path d="M88.819,179.613c-4.368,-4.51 -2.92,-8.146 -2.028,-11.714c2.291,-0.85 4.012,-0.306 3.888,1.939c-0.166,2.927 -1.063,5.808 -1.86,9.775Z" style="fill:#252723;fill-rule:nonzero;"/><path d="M118.022,141.321c0.511,-3.228 0.814,-5.648 1.302,-8.041c0.538,-2.594 2.337,-3.135 4.664,-2.86c0.285,5.042 -1.281,8.109 -5.966,10.901Z" style="fill:#252723;fill-rule:nonzero;"/><path d="M105.909,178.818c0.153,-2.607 0.157,-5.243 0.511,-7.827c0.258,-1.866 1.891,-2.645 3.448,-1.967c0.922,0.398 2.133,2.317 1.854,2.896c-1.268,2.613 -2.123,5.63 -4.485,7.525c-0.445,-0.208 -0.891,-0.416 -1.328,-0.627Z" style="fill:#252723;fill-rule:nonzero;"/><path d="M118.168,84.388c-3.535,-2.699 -3.312,-5.988 -4.252,-8.698c-0.14,-0.395 1.058,-1.655 1.809,-1.847c0.7,-0.177 1.898,0.304 2.388,0.899c2.339,2.84 0.737,5.76 0.055,9.646Z" style="fill:#252723;fill-rule:nonzero;"/><path d="M58.828,164.283c-0.342,0.524 -0.759,1.871 -1.502,2.089c-0.82,0.241 -2.189,-0.308 -2.868,-0.975c-0.77,-0.752 -1.19,-1.973 -1.503,-3.06c-0.627,-2.172 0.494,-4.228 2.438,-4.385c2.071,-0.168 2.461,1.258 2.521,3.008c0.031,0.922 0.489,1.843 0.914,3.323Z" style="fill:#252723;fill-rule:nonzero;"/><path d="M99.104,145.608c0.027,-3.565 -0.144,-6.165 0.181,-8.694c0.094,-0.755 1.626,-1.866 2.456,-1.831c0.801,0.034 2.234,1.401 2.186,2.096c-0.227,3.002 -0.948,5.94 -4.823,8.429Z" style="fill:#252723;fill-rule:nonzero;"/><path d="M100.548,110.117c-0.441,-3.328 -1.017,-5.759 -0.95,-8.19c0.018,-0.853 1.496,-2.198 2.492,-2.382c1.655,-0.311 2.616,1.248 2.083,2.612c-0.928,2.35 0.223,5.508 -3.625,7.96Z" style="fill:#252723;fill-rule:nonzero;"/><path d="M30.295,106.933c-4.192,-2.777 -4.289,-5.317 -0.309,-8.163c2.669,3.401 2.705,4.218 0.309,8.163Z" style="fill:#252723;fill-rule:nonzero;"/><path d="M72.018,140.049c-4.594,-6.834 -4.438,-8.818 0.648,-9.508c-0.237,2.968 1.554,5.902 -0.648,9.508Z" style="fill:#252723;fill-rule:nonzero;"/><path d="M78.531,90.422c-1.014,-2.008 -2.189,-3.688 -2.641,-5.532c-0.202,-0.813 0.942,-2.672 1.7,-2.81c0.9,-0.164 2.828,0.904 2.939,1.633c0.306,2.066 0.899,4.492 -1.998,6.709Z" style="fill:#252723;fill-rule:nonzero;"/><path d="M37.547,141.058c-1.701,-0.662 -3.266,-0.788 -3.559,-1.471c-0.722,-1.632 -0.915,-3.509 -1.115,-5.319c-0.022,-0.226 1.263,-0.926 1.866,-0.841c2.472,0.352 2.768,2.356 2.904,4.353c0.044,0.75 -0.043,1.503 -0.096,3.278Z" style="fill:#252723;fill-rule:nonzero;"/></g><path d="M28.619,137.495c0.333,-1.805 0.654,-3.616 0.986,-5.421c3.873,-3.651 11.26,-2.084 13.314,2.836c0.304,-3.603 -0.909,-7.142 -1.83,-10.64c-0.92,-3.498 -1.549,-7.318 -0.148,-10.651c1.401,-3.333 5.569,-5.715 8.766,-4.03c1.4,0.744 2.372,2.095 3.676,3.009c1.303,0.914 3.314,1.248 4.313,0.012c0.262,-3.497 0.98,-7.663 4.199,-9.039c2.676,-1.144 5.693,0.289 8.599,0.508c2.906,0.219 6.536,-2.493 5.007,-4.967c-5.505,-1.379 -9.634,-6.968 -9.338,-12.635c0.296,-5.666 4.995,-10.79 10.618,-11.579c2.829,-0.399 5.978,0.341 7.782,2.554c1.598,-1.075 1.688,-3.551 0.65,-5.179c-1.035,-1.62 -2.865,-2.549 -4.667,-3.236c-7.125,-2.69 -15.254,-2.606 -22.328,0.228c-1.326,0.536 -2.683,1.211 -3.484,2.397c-1.185,1.758 -0.843,4.093 -0.447,6.178c0.934,4.974 1.869,9.948 2.804,14.922c0.765,4.085 1.353,8.867 -1.502,11.891c-2.792,2.957 -7.903,2.649 -11.13,0.164c-3.225,-2.477 -4.856,-6.53 -5.637,-10.518c-0.774,-3.961 -0.823,-8.229 0.913,-11.869c1.743,-3.642 5.599,-6.469 9.615,-6.059c0.702,-2.607 -3.377,-3.678 -5.938,-2.829c-8.413,2.777 -14.166,12.003 -12.963,20.776c0.918,6.655 5.278,12.508 5.972,19.194c0.273,2.626 -0.314,5.728 -2.651,6.946c-4.031,2.098 -7.945,-3.212 -8.817,-7.674c-1.632,-8.382 -0.055,-16.526 2.889,-24.371c-14.333,6.674 -8.025,39.933 0.777,49.082Z" style="fill:#fff;fill-opacity:0.36;fill-rule:nonzero;"/></g><g><path d="M209.037,49.06c18.84,3.93 35.42,12.55 49.62,24.92c8.86,7.72 13.7,18.49 11.87,30.95c-1.26,8.63 -3.5,17.01 -8.02,24.61c-0.22,0.37 -0.54,0.73 -0.62,1.14c-1.45,7.04 -5.92,12.39 -9.85,18.09c-3.32,4.81 -5.97,10.1 -9.47,14.76c-3.87,5.16 -8.44,9.8 -12.59,14.76c-9.27,11.1 -21.94,16.7 -35.09,21.21c-7.93,2.72 -15.93,1.43 -23.16,-3.01c-10.1,-6.21 -18.37,-14.47 -25.87,-23.56c-10.58,-12.83 -16.96,-27.64 -20.52,-43.76c-4.65,-21.02 -2.12,-40.93 9.13,-59.54c4.9,-8.1 11.92,-13.73 20.37,-17.65c3.54,-1.64 7.23,-3.14 11.01,-4c3.52,-0.79 7.25,-0.78 10.89,-0.88c4.52,-0.12 9.07,-0.23 13.57,0.08c6.26,0.43 12.49,1.24 18.73,1.88Zm-49.01,61.47c3.55,-4.21 2.01,-8.25 2.22,-11.98c0.04,-0.77 -1.54,-1.63 -2.37,-2.44c-0.84,0.87 -2.31,1.67 -2.41,2.62c-0.31,2.97 -0.28,6.01 0.02,8.99c0.1,0.9 1.48,1.68 2.54,2.81Zm9.45,-39.44c3.06,-5.37 3.49,-7.49 2.74,-12.49c-3.73,0.29 -4,0.22 -4.47,2.11c-0.84,3.41 -2.44,7.08 1.73,10.38Zm83.24,43.22c4.67,0.48 4.74,-3.28 6.23,-5.24c1.21,-1.6 1.7,-3.81 2.23,-5.83c0.12,-0.47 -0.86,-1.69 -1.44,-1.77c-0.93,-0.12 -2.58,0.18 -2.81,0.75c-1.54,3.87 -2.78,7.86 -4.21,12.09Zm-71.44,65.16c2.16,-4 4.07,-6.8 5.21,-9.89c0.88,-2.37 -0.8,-3.52 -3.54,-3.36c-2.13,3.53 -4.88,6.97 -1.67,13.25Zm43.95,-31.54c5.95,-1.46 8.64,-4.25 9.99,-9.74c-2.41,-1.07 -4.53,-1.07 -5.95,1.54c-1.31,2.4 -2.43,4.91 -4.04,8.2Zm-25.33,36.3c0.4,0.37 0.81,0.74 1.21,1.11c3.17,-1.25 5.07,-4.22 7.29,-6.61c0.49,-0.53 -0.19,-2.99 -1.04,-3.72c-1.45,-1.24 -3.46,-0.94 -4.35,0.98c-1.22,2.66 -2.09,5.49 -3.11,8.24Zm44.19,-97.41c2.02,-3.95 4.69,-6.56 3.11,-10.37c-0.33,-0.8 -1.47,-1.72 -2.27,-1.75c-0.87,-0.04 -2.56,0.92 -2.55,1.39c0.12,3.2 -1.2,6.67 1.71,10.73Zm-89.99,66.33c0.03,-1.73 -0.16,-2.86 0.11,-3.87c0.51,-1.9 0.56,-3.56 -1.72,-4.06c-2.14,-0.47 -4.02,1.36 -4.06,3.91c-0.02,1.27 0.03,2.72 0.61,3.78c0.51,0.94 1.8,1.98 2.76,1.99c0.87,0.01 1.76,-1.31 2.3,-1.75Zm49.4,-6.83c4.98,-1.39 6.71,-4.32 7.95,-7.47c0.28,-0.72 -0.81,-2.66 -1.66,-2.97c-0.87,-0.31 -2.89,0.38 -3.24,1.16c-1.18,2.61 -1.85,5.46 -3.05,9.28Zm13.21,-37.65c4.94,-1.37 4.74,-5.13 6.5,-7.36c1.02,-1.29 0.5,-3.28 -1.38,-3.49c-1.12,-0.12 -3.15,0.83 -3.46,1.74c-0.86,2.58 -1.04,5.39 -1.66,9.11Zm-74.42,-26.5c3.86,-3.45 4.1,-4.34 2.35,-8.87c-5.21,1.74 -5.94,4.51 -2.35,8.87Zm33.94,49.28c3.55,-3.15 2.59,-6.88 3.82,-10c-5.69,-0.93 -6.51,1.14 -3.82,10Zm23.3,-51.17c3.84,-1.43 3.99,-4.23 4.35,-6.55c0.13,-0.82 -1.6,-2.6 -2.62,-2.72c-0.86,-0.1 -2.7,1.52 -2.75,2.46c-0.12,2.14 0.59,4.32 1.02,6.81Zm-60.66,40.93c0.64,-1.89 0.98,-2.67 1.17,-3.49c0.51,-2.19 0.85,-4.44 -1.69,-5.63c-0.62,-0.29 -2.23,0.04 -2.28,0.29c-0.38,2 -0.78,4.09 -0.55,6.08c0.1,0.84 1.73,1.48 3.35,2.75Z" style="fill:#b71c32;fill-rule:nonzero;"/><path d="M252.897,93.03c-1.77,19.14 -5.34,38.57 -14.89,55.26c-9.55,16.68 -26,30.34 -45.11,32.44c-17.93,1.97 -35.26,-6.11 -51.48,-13.99c11.27,17.46 25.55,34.88 45.67,34.83c13.14,-0.04 28.5,-10.51 38.61,-18.9c15.14,-12.56 27.86,-28.03 37.26,-45.3c8.75,-16.07 14.54,-35.98 6.4,-52.37c-6.21,-12.51 -19.16,-20.45 -31.11,-26.72c11.92,9.84 16.12,18.89 14.65,34.75Z" style="fill:#9a2d35;fill-rule:nonzero;"/><path d="M165.997,43.29c-12.29,-4.84 -22.5,-12.52 -32.95,-21.14c0.97,-1.08 2.03,-2.6 3.41,-3.74c9.92,-8.17 20.88,-8.16 32.48,-4.26c8.73,2.94 16.05,8.12 23.28,14.06c-0.28,-19.19 -0.28,-19.19 4.44,-27.51c11.56,7.24 13.72,18.69 13.71,32.27c4.37,-4.48 7.7,-8.25 11.42,-11.61c4.01,-3.62 8.19,-7.11 12.63,-10.16c4.22,-2.91 8.89,-5.18 13.87,-8.02c3.81,12.94 -2.46,23.11 -9.24,34.37c12.82,-2.38 24.6,-0.74 37.08,0.87c-6.18,13.2 -17.47,16.94 -29.61,19.57c4.98,3.84 9.87,7.39 14.5,11.24c9.34,7.77 14.2,18.03 15.04,29.96c0.59,8.37 -2.66,16.13 -5.55,23.88c-6.44,17.29 -17.09,32.19 -27.14,47.35c-5.99,9.03 -13.94,16.64 -22.67,23.2c-2.41,1.81 -5.09,3.51 -7.92,4.45c-8,2.66 -16.07,5.22 -24.26,7.19c-5.68,1.37 -11.26,-0.14 -16.2,-3.31c-21.83,-14.02 -38.24,-32.26 -46.86,-57.34c-4.47,-13.01 -6.21,-26.2 -6.11,-39.64c0.08,-11.16 3.42,-21.78 8.53,-31.82c3.8,-7.46 8.32,-14.44 15.3,-19.02c5.75,-3.77 12.33,-6.3 18.57,-9.31c1.34,-0.67 2.83,-1.03 4.25,-1.53Zm43.04,5.77c-6.24,-0.64 -12.47,-1.45 -18.72,-1.87c-4.51,-0.3 -9.05,-0.2 -13.57,-0.08c-3.64,0.1 -7.37,0.08 -10.89,0.88c-3.78,0.85 -7.47,2.36 -11.01,4c-8.45,3.92 -15.46,9.55 -20.37,17.65c-11.26,18.6 -13.78,38.51 -9.13,59.54c3.56,16.12 9.95,30.94 20.52,43.76c7.49,9.09 15.77,17.35 25.87,23.56c7.22,4.44 15.23,5.73 23.16,3.01c13.14,-4.51 25.81,-10.11 35.08,-21.21c4.15,-4.96 8.71,-9.6 12.59,-14.76c3.5,-4.66 6.15,-9.95 9.47,-14.76c3.93,-5.7 8.4,-11.05 9.85,-18.09c0.08,-0.41 0.4,-0.77 0.62,-1.14c4.52,-7.6 6.75,-15.98 8.02,-24.61c1.83,-12.46 -3.01,-23.24 -11.87,-30.95c-14.2,-12.38 -30.79,-21 -49.62,-24.93Zm-16.17,-7.82c-2.85,-12.09 -12.58,-17.54 -22.41,-21.48c-9.87,-3.96 -20.72,-6.26 -30.85,0.93c8.81,13.44 36.95,24.33 53.26,20.55Zm52.84,-30.72c-15.71,4.79 -34.15,23.17 -34.37,33.52c5.62,2.51 5.54,2.35 12.35,-0.87c13.56,-6.42 18.81,-18.28 22.02,-32.65Zm21.85,31.08c-14.92,-2.19 -28.41,-1.75 -41.22,6.74c14.24,7.74 33.84,4.78 41.22,-6.74Zm-67.1,0.89c3.4,0 4.43,-1.94 4.63,-3.77c0.8,-7.33 1.48,-14.78 -1.22,-21.85c-1.18,-3.1 -2.8,-6.35 -7.29,-7.71c-1.52,11.65 0.45,22.44 3.88,33.33Z" style="fill:#252723;fill-rule:nonzero;"/><g><path d="M192.867,41.24c-16.3,3.78 -44.44,-7.11 -53.26,-20.56c10.13,-7.19 20.98,-4.88 30.85,-0.93c9.82,3.95 19.55,9.4 22.41,21.49Z" style="fill:#81b167;fill-rule:nonzero;"/><path d="M245.707,10.52c-3.21,14.37 -8.46,26.23 -22.01,32.65c-6.81,3.22 -6.74,3.38 -12.35,0.87c0.21,-10.35 18.65,-28.73 34.36,-33.52Z" style="fill:#81b167;fill-rule:nonzero;"/><path d="M267.557,41.6c-7.38,11.52 -26.98,14.48 -41.22,6.74c12.81,-8.49 26.3,-8.93 41.22,-6.74Z" style="fill:#81b167;fill-rule:nonzero;"/><path d="M200.457,42.49c-3.43,-10.89 -5.4,-21.67 -3.88,-33.33c4.49,1.37 6.11,4.62 7.29,7.71c2.7,7.08 2.02,14.52 1.22,21.85c-0.2,1.82 -1.24,3.76 -4.63,3.77Z" style="fill:#81b167;fill-rule:nonzero;"/></g><g><path d="M160.027,110.53c-1.07,-1.13 -2.45,-1.91 -2.54,-2.82c-0.3,-2.98 -0.33,-6.02 -0.02,-8.99c0.1,-0.95 1.57,-1.75 2.41,-2.62c0.83,0.82 2.42,1.68 2.37,2.44c-0.21,3.74 1.33,7.78 -2.22,11.99Z" style="fill:#252723;fill-rule:nonzero;"/><path d="M169.477,71.09c-4.18,-3.29 -2.57,-6.97 -1.73,-10.38c0.46,-1.89 0.74,-1.82 4.47,-2.11c0.76,5 0.33,7.12 -2.74,12.49Z" style="fill:#252723;fill-rule:nonzero;"/><path d="M252.717,114.31c1.43,-4.23 2.68,-8.22 4.22,-12.09c0.23,-0.57 1.88,-0.87 2.81,-0.75c0.58,0.07 1.56,1.3 1.44,1.77c-0.52,2.02 -1.01,4.23 -2.23,5.83c-1.5,1.96 -1.58,5.72 -6.24,5.24Z" style="fill:#252723;fill-rule:nonzero;"/><path d="M181.277,179.47c-3.21,-6.28 -0.46,-9.71 1.67,-13.25c2.74,-0.16 4.41,0.99 3.54,3.36c-1.14,3.09 -3.05,5.89 -5.21,9.89Z" style="fill:#252723;fill-rule:nonzero;"/><path d="M225.227,147.93c1.61,-3.3 2.73,-5.8 4.04,-8.21c1.43,-2.61 3.54,-2.6 5.95,-1.54c-1.35,5.51 -4.04,8.29 -9.99,9.75Z" style="fill:#252723;fill-rule:nonzero;"/><path d="M199.897,184.23c1.02,-2.75 1.89,-5.58 3.12,-8.24c0.89,-1.92 2.9,-2.22 4.35,-0.98c0.86,0.73 1.53,3.19 1.04,3.72c-2.22,2.39 -4.13,5.35 -7.29,6.61c-0.41,-0.37 -0.82,-0.74 -1.22,-1.11Z" style="fill:#252723;fill-rule:nonzero;"/><path d="M244.087,86.82c-2.91,-4.06 -1.59,-7.52 -1.71,-10.74c-0.02,-0.47 1.68,-1.43 2.55,-1.39c0.81,0.04 1.94,0.95 2.27,1.75c1.58,3.82 -1.1,6.43 -3.11,10.38Z" style="fill:#252723;fill-rule:nonzero;"/><path d="M154.097,153.15c-0.54,0.45 -1.43,1.76 -2.3,1.75c-0.96,-0.01 -2.25,-1.05 -2.76,-1.99c-0.58,-1.06 -0.63,-2.51 -0.61,-3.78c0.04,-2.54 1.92,-4.38 4.06,-3.91c2.28,0.5 2.23,2.16 1.72,4.06c-0.27,1 -0.08,2.14 -0.11,3.87Z" style="fill:#252723;fill-rule:nonzero;"/><path d="M203.497,146.32c1.2,-3.82 1.87,-6.67 3.05,-9.28c0.35,-0.78 2.36,-1.47 3.24,-1.16c0.85,0.3 1.94,2.24 1.66,2.97c-1.23,3.15 -2.97,6.07 -7.95,7.47Z" style="fill:#252723;fill-rule:nonzero;"/><path d="M216.707,108.67c0.62,-3.72 0.8,-6.52 1.67,-9.11c0.3,-0.91 2.33,-1.87 3.46,-1.74c1.88,0.21 2.4,2.2 1.38,3.49c-1.77,2.22 -1.57,5.99 -6.51,7.36Z" style="fill:#252723;fill-rule:nonzero;"/><path d="M142.287,82.17c-3.59,-4.36 -2.86,-7.12 2.35,-8.87c1.75,4.53 1.52,5.42 -2.35,8.87Z" style="fill:#252723;fill-rule:nonzero;"/><path d="M176.227,131.45c-2.69,-8.85 -1.87,-10.93 3.82,-10c-1.23,3.11 -0.27,6.85 -3.82,10Z" style="fill:#252723;fill-rule:nonzero;"/><path d="M199.527,80.28c-0.43,-2.49 -1.14,-4.68 -1.02,-6.81c0.05,-0.94 1.89,-2.56 2.75,-2.46c1.02,0.12 2.74,1.9 2.62,2.72c-0.35,2.32 -0.51,5.12 -4.35,6.55Z" style="fill:#252723;fill-rule:nonzero;"/><path d="M138.867,121.21c-1.61,-1.27 -3.25,-1.92 -3.34,-2.75c-0.24,-1.99 0.17,-4.07 0.55,-6.08c0.05,-0.25 1.66,-0.58 2.28,-0.29c2.54,1.19 2.2,3.44 1.69,5.63c-0.2,0.82 -0.54,1.6 -1.18,3.49Z" style="fill:#252723;fill-rule:nonzero;"/></g><path d="M130.447,114.45c0.95,-1.83 1.89,-3.67 2.84,-5.5c5.36,-2.65 12.78,1.46 13.37,7.42c1.51,-3.77 1.37,-7.97 1.53,-12.03c0.16,-4.06 0.74,-8.37 3.34,-11.49c2.6,-3.12 7.86,-4.31 10.74,-1.45c1.26,1.26 1.86,3.03 2.96,4.44c1.1,1.41 3.15,2.43 4.63,1.43c1.43,-3.67 3.57,-7.91 7.48,-8.33c3.25,-0.35 6.02,2.18 9.07,3.37c3.05,1.19 7.84,-0.53 7.01,-3.69c-5.46,-3.29 -8.06,-10.65 -5.88,-16.64c2.18,-5.99 8.91,-9.95 15.21,-8.95c3.17,0.5 6.31,2.33 7.52,5.3c2.07,-0.63 2.98,-3.26 2.4,-5.35c-0.58,-2.08 -2.24,-3.68 -3.95,-5.01c-6.77,-5.23 -15.53,-7.81 -24.06,-7.09c-1.6,0.14 -3.28,0.42 -4.53,1.43c-1.85,1.5 -2.25,4.12 -2.51,6.49c-0.63,5.65 -1.26,11.3 -1.89,16.95c-0.52,4.64 -1.46,9.97 -5.52,12.28c-3.97,2.26 -9.36,0.25 -12.01,-3.48c-2.65,-3.72 -3.07,-8.61 -2.6,-13.15c0.47,-4.51 1.82,-9.11 4.88,-12.45c3.07,-3.34 8.14,-5.11 12.32,-3.35c1.61,-2.57 -2.42,-5.06 -5.45,-4.99c-9.95,0.22 -19.16,8.24 -20.75,18.06c-1.2,7.45 1.56,15.17 0.11,22.58c-0.57,2.91 -2.22,6.05 -5.13,6.59c-5.02,0.93 -7.48,-6.06 -6.95,-11.14c1,-9.54 5.37,-17.77 11.11,-25.23c-17.59,2.46 -21.74,40.26 -15.29,52.98Z" style="fill:#fff;fill-opacity:0.36;fill-rule:nonzero;"/></g></svg>