<?xml version="1.0" encoding="UTF-8" standalone="no"?>
<!DOCTYPE svg PUBLIC "-//W3C//DTD SVG 1.1//EN" "http://www.w3.org/Graphics/SVG/1.1/DTD/svg11.dtd">
<svg width="100%" height="100%" viewBox="0 0 186 306" version="1.1" xmlns="http://www.w3.org/2000/svg" xmlns:xlink="http://www.w3.org/1999/xlink" xml:space="preserve" xmlns:serif="http://www.serif.com/" style="fill-rule:evenodd;clip-rule:evenodd;stroke-linejoin:round;stroke-miterlimit:2;">
    <g transform="matrix(1,0,0,1,-180,-171)">
        <g id="Capa_1">
            <g>
                <path d="M213.35,210.02C212.97,203.16 212.57,195.79 212.13,188.41C211.96,185.58 213.82,183.97 215.83,182.79C223.27,178.45 231.11,174.79 239.71,173.83C249.99,172.68 260.36,172.13 270.7,171.67C275.04,171.48 279.42,172.16 283.77,172.51C295.37,173.44 306.91,174.67 318.37,176.83C324.06,177.9 328.28,181.23 332.41,184.77C333.53,185.73 334.36,187.54 334.48,189.03C335,195.13 335.13,201.27 335.57,207.38C335.65,208.53 336.29,209.8 337.03,210.72C340.45,214.97 344,219.1 347.48,223.3C348.41,224.42 349.38,225.53 350.13,226.76C355.88,236.33 360.29,246.31 362.3,257.5C366.16,279.01 366.25,300.63 365.37,322.29C364.72,338.28 363.27,354.24 362.15,370.2C361.45,380.18 360.71,390.16 359.95,400.13C359.34,408.11 358.6,416.08 358.03,424.06C357.9,425.84 358.56,427.69 358.37,429.45C357.97,433.08 356.42,436.27 354.76,439.58C347.59,453.84 335.26,461.92 321.41,468.06C306.16,474.83 289.95,476.78 273.4,475.94C265.42,475.53 257.33,475.33 249.53,473.79C241.92,472.29 234.5,469.53 227.22,466.74C218.91,463.57 210.56,460.41 203.07,455.39C197.37,451.56 193.08,446.4 189.34,440.85C187.82,438.59 187.17,435.43 187,432.63C186.4,422.46 186.35,412.26 185.76,402.09C184.92,387.56 183.75,373.05 182.8,358.53C182.29,350.72 181.83,342.91 181.55,335.1C181,319.81 180.53,304.52 180.14,289.23C179.84,277.87 182.01,266.85 184.84,255.9C187.19,246.8 191.33,238.58 196.04,230.55C200.52,222.93 206.5,216.64 213.35,210.02ZM216.71,213.21C204.78,222.01 197.22,233.69 191.6,246.7C187.39,256.43 185.11,266.77 183.99,277.28C183.28,283.96 182.96,290.72 183.12,297.43C183.33,306.51 184.27,315.57 184.69,324.65C184.97,330.66 184.7,336.69 185.03,342.69C185.6,353.05 186.45,363.38 187.17,373.73C187.93,384.62 188.69,395.51 189.4,406.4C189.8,412.55 190.05,418.71 190.44,424.87C190.58,427.02 191.53,429.31 191.05,431.27C190.3,434.31 191.22,436.88 192.72,439.01C197.48,445.73 202.89,451.92 210.68,455.35C218.16,458.64 225.76,461.7 233.19,465.11C240.9,468.65 249.13,470.41 257.39,471.21C268.04,472.24 278.72,472.68 289.53,471.73C302.84,470.56 315.37,467.4 327.02,461.1C333.06,457.83 339.24,454.33 343.54,448.75C346.51,444.89 348.6,440.37 351.42,436.38C353.89,432.89 354.4,429.11 354.58,425.02C354.92,417.2 355.46,409.38 356.08,401.58C356.95,390.51 358.11,379.47 358.87,368.4C359.53,358.78 359.81,349.13 360.29,339.5C360.35,338.23 360.62,336.97 360.68,335.7C361.32,320.98 362.41,306.25 362.39,291.53C362.38,282.49 360.72,273.45 359.71,264.42C357.48,244.53 347.16,228.66 334.54,213.94C333.12,212.28 331.54,211.44 329.27,212.49C321.62,216.02 313.58,218.16 305.22,219.2C295.85,220.36 286.51,222.46 277.13,222.65C266.82,222.86 256.46,221.5 246.14,220.56C236.16,219.65 226.4,217.6 216.71,213.21ZM328.73,191.18C325.55,191.68 322.81,191.76 320.31,192.56C307.14,196.77 293.57,197.54 279.9,197.75C276.44,197.8 272.95,197.61 269.52,198C255.65,199.58 241.89,198.69 228.21,196.39C224.53,195.77 220.96,194.47 216.57,193.27C216.89,196.76 216.96,199.62 217.44,202.41C218.72,209.69 218.78,209.71 225.43,212.52C226.93,213.15 228.5,213.7 230.09,213.99C235.63,214.98 241.29,215.43 246.72,216.83C255.83,219.18 265.16,219.07 274.35,219.36C288.21,219.79 301.86,217.2 315.23,213.5C318.9,212.48 322.5,211.19 326.1,209.96C329.22,208.89 330.93,206.05 330.94,203.35C330.96,199.47 329.61,195.59 328.73,191.18ZM216.78,187.03C219.82,190.23 219.81,190.25 223.12,191.1C235.35,194.24 247.68,196.22 260.41,195.34C269.11,194.74 277.87,195.09 286.55,194.36C296.32,193.55 306.06,192.21 315.75,190.66C319.19,190.11 322.93,189.32 325.71,186.02C321.7,181.94 316.68,180.21 311.56,179.2C304.79,177.87 297.91,176.99 291.04,176.3C283.81,175.58 276.54,175.01 269.28,174.93C262.57,174.85 255.84,175.4 249.13,175.86C239,176.55 229.52,179.57 220.56,184.27C219.3,184.92 218.25,185.93 216.78,187.03Z" style="fill:rgb(37,39,35);fill-rule:nonzero;"/>
                <path d="M216.71,213.21C226.39,217.6 236.15,219.65 246.14,220.56C256.45,221.5 266.81,222.85 277.13,222.65C286.51,222.46 295.85,220.37 305.22,219.2C313.58,218.16 321.62,216.02 329.27,212.49C331.54,211.44 333.12,212.28 334.54,213.94C347.16,228.66 357.48,244.53 359.71,264.42C360.72,273.45 362.38,282.49 362.39,291.53C362.41,306.25 361.32,320.98 360.68,335.7C360.62,336.97 360.35,338.23 360.29,339.5C359.82,349.13 359.54,358.78 358.87,368.4C358.11,379.47 356.95,390.52 356.08,401.58C355.47,409.39 354.93,417.2 354.58,425.02C354.4,429.1 353.88,432.89 351.42,436.38C348.6,440.37 346.51,444.9 343.54,448.75C339.24,454.33 333.06,457.84 327.02,461.1C315.38,467.39 302.85,470.56 289.53,471.73C278.71,472.68 268.03,472.24 257.39,471.21C249.13,470.41 240.9,468.65 233.19,465.11C225.76,461.7 218.17,458.64 210.68,455.35C202.89,451.92 197.48,445.74 192.72,439.01C191.22,436.89 190.3,434.32 191.05,431.27C191.53,429.31 190.58,427.02 190.44,424.87C190.05,418.72 189.8,412.56 189.4,406.4C188.69,395.51 187.93,384.62 187.17,373.73C186.45,363.38 185.6,353.04 185.03,342.69C184.7,336.69 184.97,330.65 184.69,324.65C184.26,315.57 183.33,306.51 183.12,297.43C182.96,290.72 183.29,283.96 183.99,277.28C185.1,266.77 187.39,256.43 191.6,246.7C197.22,233.69 204.78,222.01 216.71,213.21Z" style="fill:rgb(196,128,51);fill-rule:nonzero;"/>
                <path d="M328.73,191.18C329.61,195.59 330.96,199.47 330.96,203.35C330.95,206.04 329.25,208.89 326.12,209.96C322.51,211.19 318.92,212.48 315.25,213.5C301.88,217.2 288.23,219.79 274.37,219.36C265.17,219.07 255.85,219.18 246.74,216.83C241.31,215.43 235.65,214.98 230.11,213.99C228.52,213.71 226.94,213.15 225.45,212.52C218.8,209.71 218.74,209.7 217.46,202.41C216.97,199.62 216.9,196.76 216.59,193.27C220.98,194.47 224.54,195.77 228.23,196.39C241.92,198.7 255.68,199.58 269.54,198C272.96,197.61 276.46,197.8 279.92,197.75C293.58,197.54 307.16,196.77 320.33,192.56C322.81,191.76 325.55,191.68 328.73,191.18Z" style="fill:white;fill-rule:nonzero;"/>
                <path d="M216.78,187.03C218.25,185.94 219.3,184.92 220.54,184.27C229.5,179.57 238.98,176.55 249.11,175.86C255.82,175.4 262.55,174.85 269.26,174.93C276.52,175.01 283.79,175.58 291.02,176.3C297.89,176.99 304.77,177.87 311.54,179.2C316.67,180.21 321.68,181.94 325.69,186.02C322.91,189.31 319.17,190.11 315.73,190.66C306.05,192.21 296.3,193.54 286.53,194.36C277.85,195.08 269.08,194.73 260.39,195.34C247.66,196.22 235.33,194.24 223.1,191.1C219.81,190.25 219.82,190.23 216.78,187.03Z" style="fill:rgb(210,213,214);fill-rule:nonzero;"/>
                <path d="M188.85,321.08C190.91,351.34 192.97,381.6 195.03,411.86C195.58,419.95 196.23,428.37 200.32,435.37C206.5,445.93 218.95,450.81 230.59,454.57C250.55,461.03 271.45,466.44 292.31,464.16C313.17,461.88 334.14,450.48 342.63,431.3C355.1,403.14 349.01,368.03 350.78,337.29C352.03,315.59 352.93,293.54 347.92,272.4C344.75,259.04 338.67,245.54 327.27,237.89C315.19,229.78 299.62,229.71 285.07,229.92C274.09,230.08 263.1,230.25 252.12,230.41C239.5,230.6 226.36,230.91 215.12,236.66C201.77,243.49 193.01,257.28 189.13,271.77C185.25,286.25 187.83,306.12 188.85,321.08Z" style="fill:url(#_Linear1);fill-rule:nonzero;"/>
                <path d="M251.83,231.88C265.48,234.43 279.87,234.55 292.42,240.48C315.15,251.21 325.62,277.91 328.87,302.84C333.67,339.65 327.13,377.86 310.34,410.97C302.82,425.81 293.08,439.85 279.84,449.93C266.6,460.01 249.53,465.78 233.12,463.07C241.37,468.21 251.44,469.27 261.12,470.04C278.8,471.45 296.89,472.31 313.98,467.55C331.06,462.79 347.21,451.47 353.48,434.88C356.23,427.61 356.97,419.75 357.6,412C360.99,370.89 362.32,329.6 361.59,288.36C361.33,273.85 360.74,258.95 355.05,245.6C348.85,231.05 337.18,219.66 325.79,208.68C326.23,209.11 297.03,220.56 294.01,221.2C281.69,223.82 268.89,224.25 256.42,222.49C251.43,221.79 228.25,213.12 226.35,216.01C220.76,224.53 247.57,231.08 251.83,231.88Z" style="fill:rgb(160,79,54);fill-opacity:0.32;fill-rule:nonzero;"/>
                <path d="M195.43,269.05C192.98,281.43 195.03,294.2 197.07,306.65C200.03,324.67 202.99,342.69 205.95,360.71C206.22,362.36 206.55,364.14 207.75,365.31C210.21,367.72 214.73,365.8 216.12,362.65C217.5,359.5 216.76,355.87 216.07,352.5C211.15,328.37 210.13,303.45 213.06,279C213.53,275.06 214.41,270.64 217.77,268.52C220.18,267 223.24,267.11 226.1,267.19C236.85,267.47 259.21,268.8 265.28,257.38C270.5,247.58 263.42,244.11 254.71,241.81C229.55,235.17 201.17,239.99 195.43,269.05Z" style="fill:white;fill-opacity:0.36;fill-rule:nonzero;"/>
            </g>
        </g>
    </g>
    <defs>
        <linearGradient id="_Linear1" x1="0" y1="0" x2="1" y2="0" gradientUnits="userSpaceOnUse" gradientTransform="matrix(1.4379e-14,-234.827,234.827,1.4379e-14,269.411,464.691)"><stop offset="0" style="stop-color:rgb(232,193,48);stop-opacity:1"/><stop offset="1" style="stop-color:rgb(232,193,48);stop-opacity:0"/></linearGradient>
    </defs>
</svg>
