<svg clip-rule="evenodd" fill-rule="evenodd" stroke-linejoin="round" stroke-miterlimit="2" viewBox="0 0 406 355" xmlns="http://www.w3.org/2000/svg"><g transform="translate(-96 -103)"><g><path d="m260.12 105.35c30.52 10.48 54.35 27.01 78.41 45.9 8.97 17.33 18.23 28.73 20.08 49.72 1.01 11.5.95 20.74.95 31.56 0 26.32-15.79 41.54-29.64 59.28-18.28 23.41-50.26 45.31-93.71 42.07-29.77-2.22-59.96-14.53-81.28-30.6-9.05-6.82-19.12-14.26-23.91-21.04-13.84-19.55-21.59-53.25-16.26-76.5 3.25-14.15 10.12-31.22 16.26-42.07 16.78-29.65 51.56-56.25 93.71-60.24 12.54-1.18 20.55 3.26 35.39 1.92zm-142.47 109c-2.38 24.1 7.16 55.12 17.21 66.93 2.64 3.11 7.75 6.11 11.47 9.56 13.02 12.08 32.02 24.33 46.85 29.64 29.83 10.68 68.3 12.33 96.58-1.91 18.92-9.53 29.45-20.83 43.03-37.29 4.5-5.46 10.15-10.33 12.43-14.34 10.88-19.15 11.53-41.9 9.56-63.11-1.5-16.26-10.97-38.89-21.04-50.68-7.58-8.88-21.22-16.84-35.38-24.86-14.03-7.95-26.21-16.53-41.12-19.12-11.1-1.93-25.31-1.78-33.47-.96-58.51 5.94-100.55 49.71-106.12 106.14z" fill="#252723"/><path d="m223.79 108.21c8.15-.83 22.36-.98 33.47.96 14.91 2.6 27.08 11.17 41.12 19.12 14.16 8.02 27.8 15.98 35.38 24.86 10.07 11.79 19.53 34.42 21.04 50.68 1.96 21.21 1.32 43.96-9.56 63.11-2.28 4.02-7.93 8.88-12.43 14.34-13.57 16.47-24.1 27.76-43.03 37.29-28.28 14.25-66.75 12.59-96.58 1.91-14.83-5.31-33.83-17.56-46.85-29.64-3.72-3.46-8.83-6.46-11.47-9.56-10.05-11.82-19.6-42.83-17.21-66.93 5.55-56.43 47.59-100.2 106.12-106.14zm45.89 22c-7.68 9.67-23.13 7.28-34.42 4.78 8.47 6.32 12.72 17.73 10.52 29.64 7.09-5.77 21.9-9.25 33.47-4.78.82-9.06-10.73-13.28-6.69-28.69-1.23-.05-1.33-1.22-2.88-.95z" fill="#d99f31"/><path d="m264.9 149.33c-4.23 2.79-8.76-1.09-11.47-2.87.81-4.87 13.78-4.09 11.47 2.87z" fill="#c3cf3f"/><path d="m249.61 148.38c1.25 3.21 5.87 3.06 6.69 6.69-2.8-.25-2.94 2.16-5.74 1.91-.59-2.29-.29-4.5-.95-8.6z" fill="#319454"/><path d="m269.68 150.29c1.8.11.66 3.16 2.87 2.87-.12 2.11-4.06.4-5.74.96.29-1.96 2.59-1.88 2.87-3.83z" fill="#319454"/><path d="m272.55 131.16c-4.04 15.4 7.51 19.62 6.69 28.69-11.56-4.47-26.37-.99-33.47 4.78 2.21-11.91-2.05-23.33-10.52-29.64 11.29 2.5 26.74 4.89 34.42-4.78 1.56-.27 1.66.9 2.88.95zm-19.12 15.3c2.71 1.78 7.24 5.65 11.47 2.87 2.31-6.96-10.66-7.74-11.47-2.87zm-2.87 10.52c2.8.25 2.94-2.16 5.74-1.91-.83-3.64-5.44-3.48-6.69-6.69.66 4.1.36 6.31.95 8.6zm16.25-2.87c1.68-.55 5.62 1.15 5.74-.96-2.2.29-1.06-2.76-2.87-2.87-.28 1.96-2.58 1.88-2.87 3.83z" fill="#252723"/><g fill="#fff"><path d="m216.68 124.64c-9.83.65-11.84 11.14-11.47 19.07.4 8.51 4.03 14.24 10.17 19.87 10.4 9.55 28.52 14.7 35.37 27.71 5.59 10.62 1.12 19.3-9.45 22.94-6.78 2.34-13.92 2.59-21.01 2.58-9.95-.01-19.85.66-29.49-2.06-11.46-3.25-24.61-11.27-31.96-20.8-5.34-6.92-5.61-15.26-5.07-23.68.85-13.41 13.41-27.61 23.63-35.39 8.72-6.63 18.52-14.34 30.11-12.62 3.01.45 6.3 1.85 9.17 3.16" fill-opacity=".35"/><circle cx="189.16" cy="153.65" r="3.34"/><circle cx="189.16" cy="164.63" r="3.34"/><path d="m210.06 169.45c0 1.85-1.5 3.34-3.34 3.34-1.85 0-3.34-1.5-3.34-3.34 0-1.85 1.5-3.34 3.34-3.34s3.34 1.5 3.34 3.34z"/><path d="m199.2 183.59c0 1.85-1.5 3.34-3.34 3.34-1.85 0-3.34-1.5-3.34-3.34 0-1.85 1.5-3.34 3.34-3.34 1.84-.01 3.34 1.49 3.34 3.34z"/><path d="m168.05 186.93c0 1.85-1.5 3.34-3.34 3.34-1.85 0-3.34-1.5-3.34-3.34 0-1.85 1.5-3.34 3.34-3.34s3.34 1.5 3.34 3.34z"/><path d="m199.2 208.51c0 1.85-1.5 3.34-3.34 3.34-1.85 0-3.34-1.5-3.34-3.34 0-1.85 1.5-3.34 3.34-3.34s3.34 1.49 3.34 3.34z"/><path d="m185.82 193.62c0 1.85-1.5 3.34-3.34 3.34-1.85 0-3.34-1.5-3.34-3.34 0-1.85 1.5-3.34 3.34-3.34s3.34 1.49 3.34 3.34z"/><path d="m192.51 190.28c0 1.85-1.5 3.34-3.34 3.34-1.85 0-3.34-1.5-3.34-3.34 0-1.85 1.5-3.34 3.34-3.34 1.84-.01 3.34 1.49 3.34 3.34z"/><path d="m189.16 180.24c0 1.85-1.5 3.34-3.34 3.34-1.85 0-3.34-1.5-3.34-3.34 0-1.85 1.5-3.34 3.34-3.34s3.34 1.5 3.34 3.34z"/><path d="m195.85 172.8c0 1.85-1.5 3.34-3.34 3.34-1.85 0-3.34-1.5-3.34-3.34 0-1.85 1.5-3.34 3.34-3.34 1.84-.01 3.34 1.49 3.34 3.34z"/><path d="m195.85 180.24c0 1.85-1.5 3.34-3.34 3.34-1.85 0-3.34-1.5-3.34-3.34 0-1.85 1.5-3.34 3.34-3.34s3.34 1.5 3.34 3.34z"/><path d="m205.89 176.9c0 1.85-1.5 3.34-3.34 3.34-1.85 0-3.34-1.5-3.34-3.34 0-1.85 1.5-3.34 3.34-3.34 1.84-.01 3.34 1.49 3.34 3.34z"/><path d="m205.89 190.28c0 1.85-1.5 3.34-3.34 3.34-1.85 0-3.34-1.5-3.34-3.34 0-1.85 1.5-3.34 3.34-3.34 1.84-.01 3.34 1.49 3.34 3.34z"/><path d="m199.2 193.62c0 1.85-1.5 3.34-3.34 3.34-1.85 0-3.34-1.5-3.34-3.34 0-1.85 1.5-3.34 3.34-3.34s3.34 1.49 3.34 3.34z"/><path d="m213.4 205.17c0 1.85-1.5 3.34-3.34 3.34-1.85 0-3.34-1.5-3.34-3.34 0-1.85 1.5-3.34 3.34-3.34 1.85-.01 3.34 1.49 3.34 3.34z"/><path d="m226.75 190.28c0 1.85-1.5 3.34-3.34 3.34-1.85 0-3.34-1.5-3.34-3.34 0-1.85 1.5-3.34 3.34-3.34 1.84-.01 3.34 1.49 3.34 3.34z"/><path d="m223.4 176.9c0 1.85-1.5 3.34-3.34 3.34-1.85 0-3.34-1.5-3.34-3.34 0-1.85 1.5-3.34 3.34-3.34 1.84-.01 3.34 1.49 3.34 3.34z"/><circle cx="171.39" cy="167.98" r="3.34"/></g><g fill="#bd6232"><circle cx="316.77" cy="267.06" r="3.34"/><circle cx="307.27" cy="288.42" r="3.34"/><circle cx="290.66" cy="291.77" r="3.34"/><circle cx="294" cy="304.25" r="3.34"/><path d="m279.24 310.94c0 1.85-1.5 3.34-3.34 3.34-1.85 0-3.34-1.5-3.34-3.34s1.5-3.34 3.34-3.34c1.84-.01 3.34 1.49 3.34 3.34z"/><circle cx="249.61" cy="312.56" r="3.34"/><circle cx="261.74" cy="319.24" r="3.34"/><circle cx="265.09" cy="304.25" r="3.34"/><path d="m275.9 295.11c0 1.85-1.5 3.34-3.34 3.34-1.85 0-3.34-1.5-3.34-3.34s1.5-3.34 3.34-3.34 3.34 1.49 3.34 3.34z"/><path d="m275.9 273.75c0 1.85-1.5 3.34-3.34 3.34-1.85 0-3.34-1.5-3.34-3.34s1.5-3.34 3.34-3.34c1.84-.01 3.34 1.49 3.34 3.34z"/><path d="m239.81 297.56c0 1.85-1.5 3.34-3.34 3.34-1.85 0-3.34-1.5-3.34-3.34 0-1.85 1.5-3.34 3.34-3.34s3.34 1.49 3.34 3.34z"/><circle cx="206.71" cy="307.59" r="3.34"/><circle cx="226.75" cy="319.24" r="3.34"/><path d="m239.67 309.21c0 1.85-1.5 3.34-3.34 3.34-1.85 0-3.34-1.5-3.34-3.34 0-1.85 1.5-3.34 3.34-3.34s3.34 1.49 3.34 3.34z"/><path d="m243.16 315.9c0 1.85-1.5 3.34-3.34 3.34-1.85 0-3.34-1.5-3.34-3.34s1.5-3.34 3.34-3.34 3.34 1.49 3.34 3.34z"/><path d="m252.95 322.59c0 1.85-1.5 3.34-3.34 3.34-1.85 0-3.34-1.5-3.34-3.34 0-1.85 1.5-3.34 3.34-3.34 1.84-.01 3.34 1.49 3.34 3.34z"/><path d="m273.03 319.24c0 1.85-1.5 3.34-3.34 3.34-1.85 0-3.34-1.5-3.34-3.34s1.5-3.34 3.34-3.34 3.34 1.5 3.34 3.34z"/><path d="m290.65 310.94c0 1.85-1.5 3.34-3.34 3.34-1.85 0-3.34-1.5-3.34-3.34s1.5-3.34 3.34-3.34c1.85-.01 3.34 1.49 3.34 3.34z"/><path d="m287.31 298.46c0 1.85-1.5 3.34-3.34 3.34-1.85 0-3.34-1.5-3.34-3.34 0-1.85 1.5-3.34 3.34-3.34 1.84-.01 3.34 1.49 3.34 3.34z"/><circle cx="297.34" cy="250.05" r="3.34"/><circle cx="297.34" cy="270.4" r="3.34"/><path d="m323.45 277.09c0 1.85-1.5 3.34-3.34 3.34-1.85 0-3.34-1.5-3.34-3.34 0-1.85 1.5-3.34 3.34-3.34 1.85 0 3.34 1.5 3.34 3.34z"/><path d="m330.14 260.37c0 1.85-1.5 3.34-3.34 3.34-1.85 0-3.34-1.5-3.34-3.34 0-1.85 1.5-3.34 3.34-3.34s3.34 1.49 3.34 3.34z"/><path d="m340.82 250.05c0 1.85-1.5 3.34-3.34 3.34-1.85 0-3.34-1.5-3.34-3.34 0-1.85 1.5-3.34 3.34-3.34 1.85 0 3.34 1.49 3.34 3.34z"/><path d="m337.46 260.02c.19 1.84-1.14 3.48-2.97 3.67-1.84.19-3.48-1.14-3.68-2.97-.19-1.84 1.14-3.48 2.97-3.68 1.84-.18 3.49 1.14 3.68 2.98z"/><path d="m330.12 273.4c.19 1.84-1.14 3.48-2.97 3.67-1.84.19-3.48-1.14-3.68-2.97-.19-1.84 1.14-3.48 2.97-3.68 1.84-.19 3.49 1.14 3.68 2.98z"/><path d="m320.09 288.07c.19 1.84-1.14 3.48-2.97 3.67-1.84.19-3.48-1.14-3.68-2.97-.19-1.84 1.14-3.48 2.97-3.68 1.84-.18 3.49 1.15 3.68 2.98z"/><path d="m307.25 297.21c.19 1.84-1.14 3.48-2.97 3.67-1.84.19-3.48-1.14-3.68-2.97-.19-1.84 1.14-3.48 2.97-3.68 1.84-.19 3.49 1.14 3.68 2.98z"/></g><path d="m178.08 154.25c0 1.85-1.5 3.34-3.34 3.34-1.85 0-3.34-1.5-3.34-3.34 0-1.85 1.5-3.34 3.34-3.34 1.84-.01 3.34 1.49 3.34 3.34z" fill="#fff"/></g><g fill-rule="nonzero"><g><path d="m216.62 279.17c-22.12 22.36-18.54 59.7-3.07 81.53 10.1 14.25 23.01 20.86 36.95 26.24 12.61 4.87 32.31 5.51 45.3 1.75 9.58-2.77 20.2-12.17 27.42-19.05 9.62-9.18 14.91-21.74 17.42-34.79.94-4.86.48-10.8-3.7-13.46-3.02-1.93-6.91-1.44-10.48-1.08-30.92 3.13-63.03-9.86-83.07-33.61-3.42-4.05-6.64-8.51-11.29-11.06s-11.3-2.46-14.45 1.8" fill="#dda951"/><path d="m215.2 277.76c-4.45 4.52-8.1 9.82-10.71 15.6-2.63 5.82-4.24 11.96-5.02 18.28-.75 6.17-.59 12.39.25 18.54.81 5.91 2.32 11.74 4.51 17.29 2.2 5.57 5.02 10.87 8.62 15.66 4.37 5.83 9.6 10.87 15.61 15 5.54 3.8 11.6 6.72 17.8 9.27 2.95 1.21 5.91 2.35 9 3.17 3.38.89 6.82 1.48 10.29 1.9 6.98.85 14.11.9 21.09.04 3.27-.4 6.52-.96 9.68-1.88 3.33-.97 6.5-2.55 9.45-4.35 6.25-3.81 11.86-8.65 17.18-13.64 2.65-2.48 5.12-5.07 7.32-7.97 2.19-2.88 4.07-5.98 5.68-9.22 3.21-6.48 5.57-13.6 6.73-20.75.52-3.22.59-6.72-.61-9.81-1.34-3.44-4.1-5.97-7.8-6.63-3.67-.66-7.38.09-11.06.33-3.48.23-6.97.25-10.45.08-1.71-.08-3.41-.21-5.11-.39-.85-.09-1.7-.19-2.55-.3-.05-.01-.46-.06-.22-.03.21.03-.11-.02-.12-.02-.2-.03-.39-.05-.59-.08-.46-.07-.91-.14-1.36-.21-3.41-.55-6.79-1.27-10.12-2.18-3.33-.9-6.62-1.98-9.84-3.23-.8-.31-1.59-.63-2.38-.96-.09-.04-.18-.08-.27-.11-.31-.13.24.1-.07-.03-.18-.08-.36-.16-.54-.23-.42-.18-.84-.37-1.26-.56-1.56-.7-3.1-1.45-4.62-2.23-3.07-1.58-6.06-3.32-8.95-5.21-1.46-.95-2.89-1.95-4.29-2.98-.34-.25-.69-.51-1.03-.77-.16-.12-.31-.24-.47-.36 0 0-.26-.2-.11-.08.13.1-.16-.13-.19-.15-.67-.53-1.34-1.06-2-1.6-2.69-2.22-5.25-4.58-7.68-7.08-2.47-2.55-4.71-5.29-6.99-8.01-2.4-2.87-5-5.66-8.24-7.6-2.79-1.68-6.17-2.58-9.43-2.29-3.38.3-6.33 1.72-8.39 4.44-.63.84-.16 2.27.72 2.74 1.05.56 2.06.18 2.74-.72-.21.27.02-.01.11-.12.11-.12.22-.24.34-.36.14-.14.28-.26.42-.39.06-.05.13-.1.19-.16-.13.11-.19.14-.02.02.27-.18.54-.36.82-.52.14-.08.29-.15.43-.23.07-.04.15-.06.22-.1.24-.13-.3.09-.03.01.7-.2 1.35-.44 2.07-.57.08-.01.17-.03.25-.04-.03 0-.35.03-.11.02.17-.01.34-.03.51-.05.4-.03.79-.04 1.19-.03.34.01.69.03 1.03.06.09.01.17.02.26.03-.03 0-.34-.05-.1-.01.2.04.4.06.6.1.74.14 1.46.34 2.16.6.16.06.32.12.48.19-.32-.13.02.01.15.07.38.18.76.38 1.12.59.68.39 1.54.97 2.03 1.35 1.24.96 2.65 2.36 3.8 3.63 1.2 1.33 2.34 2.72 3.48 4.1 2.18 2.64 4.46 5.2 6.91 7.6 4.87 4.8 10.28 9.07 16.04 12.74 5.81 3.7 12 6.77 18.43 9.23 6.3 2.4 12.84 4.17 19.5 5.24 6.8 1.1 13.7 1.53 20.58 1.16 3.44-.19 6.95-.91 10.4-.6.1.01.2.02.31.03-.04 0-.26-.04-.03 0 .23.03.47.08.7.13.43.09.84.22 1.26.36.21.07.03 0-.01-.01.09.04.18.08.28.13.18.09.36.18.54.29l.48.3.21.15c-.32-.23-.01 0 .06.06.25.22.49.45.71.7.05.06.34.41.21.24-.12-.16.17.25.22.33.2.3.37.61.53.93.03.07.23.49.14.29-.08-.18.11.29.14.39.25.71.41 1.43.54 2.17.07.39-.02-.23.03.16.02.18.04.35.05.53.03.38.05.77.06 1.15.01.77-.02 1.55-.09 2.32-.02.18-.04.35-.06.53-.02.24.01-.06.02-.09-.01.09-.02.17-.04.26-.06.42-.14.84-.22 1.25-.68 3.46-1.55 6.88-2.66 10.23-.56 1.7-1.18 3.38-1.87 5.03-.04.1-.08.19-.12.28.02-.04.09-.22 0 0-.08.19-.16.38-.25.57-.18.41-.36.81-.55 1.22-.37.81-.76 1.6-1.17 2.39-.8 1.55-1.66 3.06-2.59 4.52-.47.75-.97 1.48-1.48 2.21-.24.33-.47.67-.72 1-.14.19-.29.38-.43.57 0 0-.2.26-.09.12.08-.11-.14.17-.16.2-2.13 2.7-4.55 5.08-7.06 7.41-2.54 2.36-5.14 4.66-7.85 6.83-.36.29-.72.57-1.08.86-.08.07-.17.13-.25.2.04-.03.16-.13-.02.01-.2.15-.39.3-.59.45-.73.55-1.47 1.09-2.22 1.62-1.44 1.02-2.92 1.99-4.44 2.88-1.45.85-2.93 1.64-4.47 2.32-.17.08-.35.15-.52.23.33-.14-.21.08-.31.12-.37.15-.75.29-1.13.42-.72.25-1.46.47-2.2.67-1.46.39-2.94.72-4.43.99-.8.15-1.59.27-2.39.39-.09.01-.56.08-.39.06s-.31.04-.4.05c-.41.05-.83.1-1.24.15-3.4.37-6.83.52-10.25.48-3.47-.04-6.94-.28-10.38-.71-.38-.05.12.02-.26-.03-.2-.03-.39-.05-.59-.08-.42-.06-.84-.13-1.26-.19-.83-.13-1.66-.28-2.48-.45-1.56-.31-3.12-.67-4.66-1.09-3.02-.83-5.93-1.98-8.81-3.18-.17-.07-.35-.15-.52-.22-.21-.09.01 0 .04.02-.12-.05-.23-.1-.35-.15-.38-.16-.75-.32-1.12-.49-.75-.33-1.49-.66-2.23-1-1.45-.67-2.88-1.37-4.3-2.11-2.87-1.5-5.66-3.16-8.32-5.01-.65-.46-1.3-.92-1.94-1.4-.15-.12-.31-.23-.46-.35.26.2-.21-.17-.28-.22-.33-.26-.66-.52-.98-.79-1.3-1.06-2.55-2.18-3.76-3.35-2.54-2.46-4.93-5.21-6.88-7.88-1.66-2.28-3.16-4.67-4.5-7.16-.66-1.23-1.28-2.47-1.86-3.74-.3-.65-.59-1.31-.87-1.97.14.32 0 0-.06-.14-.06-.15-.13-.31-.19-.46-.14-.34-.27-.67-.4-1.01-1.05-2.71-1.94-5.48-2.66-8.3-.37-1.44-.7-2.89-.98-4.35-.14-.71-.26-1.41-.38-2.12-.06-.37-.12-.74-.17-1.11-.03-.17-.05-.34-.07-.51-.01-.09-.02-.17-.04-.26-.05-.31.04.33 0 .02-.38-2.96-.6-5.93-.62-8.91-.02-2.95.14-5.91.5-8.84.02-.17.04-.34.07-.52-.05.41.02-.1.04-.24.05-.37.11-.74.17-1.12.12-.74.25-1.48.4-2.22.29-1.45.63-2.88 1.02-4.31.39-1.42.84-2.83 1.34-4.22.26-.71.52-1.41.81-2.11.07-.16.13-.32.2-.48-.13.32.02-.04.07-.16.16-.37.33-.75.5-1.11 1.25-2.71 2.72-5.33 4.41-7.79.42-.61.85-1.22 1.3-1.81.11-.14.22-.29.32-.43.14-.18-.02.02-.04.05.06-.07.11-.14.17-.21.24-.31.49-.61.73-.91.97-1.17 1.99-2.29 3.05-3.37.74-.75.8-2.09 0-2.83-.85-.72-2.1-.79-2.89.01z" fill="#252723"/><path d="m226.72 288.04c-.52 17.79-.53 36.15 6.25 52.6 8.09 19.65 25.42 34.64 45.06 42.76-10.29-2.22-20.47-4.96-30.48-8.21-7.61-2.46-15.28-5.3-21.54-10.29-6.46-5.16-11.06-12.36-14.21-20.01-5.94-14.4-6.73-30.74-2.79-45.77 1.37-5.23 4.64-18.59 9.63-21.58 6.49-3.87 8.27 4.07 8.08 10.5z" fill="#b45a2e" fill-opacity=".51"/><path d="m244.9 298.96c-1.95.7-3.9 1.4-5.84 2.1 9.57 23.32 33.55 39.99 58.74 40.84 5.41.18 11.98-1.12 13.79-6.22-6.87-2.76-13.75-5.53-20.62-8.29 11.92.75 23.89.85 35.82.3 3.29-.15 7.75-1.81 6.96-5.01-21.44 2.83-42.76-4.6-63.1-11.92-4.53-1.63-9.11-3.28-13.14-5.9-9.91-6.44-15.39-17.91-24.37-25.59-3.33-2.85-8.28-5.64-12.26-3.07 10.9 4.57 18.77 11.82 24.02 22.76z" fill="#f4e4b0"/><path d="m243.82 294.6c-13.84-1.28-28.09 4.1-37.47 14.18l-.7-.89c12.81-7.53 28.16-10.64 42.95-8.68l4.68.62-4.61 1.07c-10.08 2.35-19.07 8.58-25.33 16.78-3.14 4.1-5.63 8.71-7.28 13.59-1.66 4.88-2.47 10.05-2.26 15.18l-1.87-.65c5.88-6.84 12.06-13.42 18.6-19.62 6.53-6.22 13.36-12.12 20.46-17.68l1.41 1.52c-6.69 7.27-12.14 15.7-16.03 24.82-3.89 9.11-6.24 18.9-6.8 28.81l-1.33-.26c3.07-8.57 7.07-16.8 11.88-24.51 4.78-7.73 10.37-14.96 16.66-21.51l1.31-1.36-.61 1.79c-1.98 5.82-3.5 11.79-4.56 17.85-1.03 6.06-1.57 12.2-1.64 18.35-.03 3.07.02 6.15.3 9.2.29 3.04.87 6.06 2.01 8.86 1.11 2.81 2.91 5.32 5.26 7.19 2.33 1.87 5.27 3 8.22 2.85l-.41.8c-2.7-4.11-4.61-8.72-5.71-13.51s-1.4-9.76-.93-14.66 1.7-9.73 3.69-14.24 4.74-8.71 8.2-12.26l.64-.65.59.7c6.4 7.61 10.59 16.97 12.32 26.75 1.73 9.77 1.03 20.04-2.4 29.42l-.92-1.5c2.37.28 4.81-.82 6.61-2.55 1.82-1.74 2.93-4.11 3.5-6.67.56-2.56.65-5.26.56-7.98-.05-2.73-.31-5.45-.66-8.15-.72-5.41-2.04-10.74-3.9-15.86-1.85-5.13-4.27-10.05-7.17-14.67l-1.61-2.57 2.96.64c10.98 2.36 20.52 10.21 24.98 20.51 4.44 10.31 3.62 22.62-2.13 32.24l-2-1.53c3.13-3.24 5.13-7.49 6.05-11.95.92-4.47.83-9.17-.15-13.66-.99-4.51-2.77-8.85-5-12.95-2.24-4.11-4.91-7.99-7.76-11.76l-6.16-8.16 7.79 6.61c12.09 10.26 19.33 25.84 19.41 41.64l-1.65-.59c5.3-6.36 7.13-15.54 4.59-23.49-2.53-7.95-9.35-14.46-17.47-16.61l-2.94-.78 3.02-.36c3.81-.45 7.68-.75 11.55-.55 3.86.21 7.75.98 11.25 2.73 3.5 1.76 6.36 4.66 8.11 8.13.87 1.73 1.45 3.62 1.59 5.56.15 1.93-.17 3.91-.99 5.67l-.23-.1c.76-1.74 1.03-3.67.85-5.54-.18-1.88-.78-3.71-1.66-5.37-1.77-3.33-4.62-6.09-8-7.71-3.41-1.62-7.2-2.3-10.98-2.42-3.79-.13-7.58.26-11.36.75l.07-1.14c8.56 2.15 15.8 8.83 18.63 17.26 2.8 8.43 1.05 18.2-4.6 25.15l-1.62 2-.03-2.58c-.19-15.22-7.34-30.22-19-39.92l1.63-1.55c2.92 3.8 5.7 7.75 8.05 11.99 2.35 4.23 4.28 8.77 5.33 13.57 1.06 4.81 1.17 9.84.18 14.7-.98 4.84-3.17 9.56-6.68 13.2l-7.69 7.99 5.69-9.52c5.32-8.89 6.06-20.42 1.93-29.91-4.12-9.49-13.04-16.81-23.14-19.04l1.35-1.93c2.97 4.79 5.45 9.88 7.33 15.19 1.89 5.3 3.23 10.8 3.95 16.39.35 2.79.6 5.6.64 8.41.07 2.81-.02 5.69-.66 8.55-.33 1.43-.8 2.84-1.49 4.17-.67 1.35-1.61 2.58-2.69 3.63-1.11 1.03-2.38 1.92-3.83 2.49-1.43.59-3.05.82-4.63.65l-1.42-.16.5-1.34c3.34-8.96 4.16-18.85 2.58-28.32-1.57-9.47-5.54-18.59-11.66-26.02l1.23.05c-6.71 6.75-10.73 15.99-11.72 25.48-1.01 9.48.97 19.4 6.16 27.47l.49.76-.9.04c-3.25.13-6.41-1.15-8.85-3.15-2.47-1.99-4.37-4.66-5.51-7.59-1.18-2.92-1.75-6.03-2.03-9.12-.28-3.1-.31-6.19-.27-9.29.2-12.37 2.31-24.71 6.22-36.45l.7.43c-6.22 6.54-11.73 13.74-16.42 21.45-4.66 7.72-8.51 15.93-11.43 24.44l-1.53 4.47.2-4.73c.44-10.08 2.69-20.08 6.54-29.43 3.85-9.34 9.27-18.07 16.14-25.54l1.41 1.52c-7.02 5.55-13.77 11.43-20.23 17.63-6.44 6.21-12.65 12.66-18.51 19.43l-1.77 2.05-.09-2.7c-.19-5.41.69-10.83 2.45-15.92s4.38-9.87 7.66-14.13c3.29-4.25 7.26-7.98 11.74-10.95 4.48-2.98 9.5-5.16 14.76-6.31l.07 1.69c-14.37-2.09-29.46.75-42.14 7.97l-3.52 2.01 2.82-2.9c9.85-10.13 24.43-15.33 38.33-13.63z" fill="#f4e4b0"/><path d="m255.12 313.4c-2.24 5.62-3.58 12.29-.5 17.5 1.49 2.51 4.82 4.51 7.27 2.91 2.96-1.93 1.55-6.49-.17-9.58-1.79-3.21-3.58-6.42-5.37-9.63" fill="#fff"/><path d="m212.8 330.88c6.34 14.06 17.64 25.4 30.28 34.22 6.02 4.2 12.44 7.93 19.38 10.32 23.77 8.19 51.37-.91 68.93-18.9-11.91 21.32-36.31 34.91-60.72 34.21s-47.84-15.49-59.33-37.04c-10.13-18.98-12.09-46.65-.8-65.64-1.22 15.41-4.54 27.73 2.26 42.83z" fill="#f4e4b0"/></g><g><path d="m113.65 279.69c-22.12 22.36-18.54 59.7-3.07 81.53 10.1 14.25 23.01 20.86 36.95 26.24 12.61 4.87 32.31 5.51 45.3 1.75 9.58-2.77 20.2-12.17 27.42-19.05 9.62-9.18 14.91-21.74 17.42-34.79.94-4.86.48-10.8-3.7-13.46-3.02-1.93-6.91-1.44-10.48-1.08-30.92 3.13-63.03-9.86-83.07-33.61-3.42-4.05-6.64-8.51-11.29-11.06s-11.3-2.46-14.45 1.8" fill="#dda951"/><path d="m112.23 278.28c-4.45 4.52-8.1 9.82-10.71 15.6-2.63 5.82-4.24 11.96-5.02 18.28-.75 6.17-.59 12.39.25 18.54.81 5.91 2.32 11.74 4.51 17.29 2.2 5.57 5.02 10.87 8.62 15.66 4.37 5.83 9.6 10.87 15.61 15 5.54 3.8 11.6 6.72 17.8 9.27 2.95 1.21 5.91 2.35 9 3.17 3.38.89 6.82 1.48 10.29 1.9 6.98.85 14.11.9 21.09.04 3.27-.4 6.52-.96 9.68-1.88 3.33-.97 6.5-2.55 9.45-4.35 6.25-3.81 11.86-8.65 17.18-13.64 2.65-2.48 5.12-5.07 7.32-7.97 2.19-2.88 4.07-5.98 5.68-9.22 3.21-6.48 5.57-13.6 6.73-20.75.52-3.22.59-6.72-.61-9.81-1.34-3.44-4.1-5.97-7.8-6.63-3.67-.66-7.38.09-11.06.33-3.48.23-6.97.25-10.45.08-1.71-.08-3.41-.21-5.11-.39-.85-.09-1.7-.19-2.55-.3-.05-.01-.46-.06-.22-.03.21.03-.11-.02-.12-.02-.2-.03-.39-.05-.59-.08-.46-.07-.91-.14-1.36-.21-3.41-.55-6.79-1.27-10.12-2.18-3.33-.9-6.62-1.98-9.84-3.23-.8-.31-1.59-.63-2.38-.96-.09-.04-.18-.08-.27-.11-.31-.13.24.1-.07-.03-.18-.08-.36-.16-.54-.23-.42-.18-.84-.37-1.26-.56-1.56-.7-3.1-1.44-4.62-2.23-3.07-1.58-6.06-3.32-8.95-5.21-1.46-.95-2.89-1.95-4.29-2.98-.34-.25-.69-.51-1.03-.77-.16-.12-.31-.24-.47-.36 0 0-.26-.2-.11-.08.13.1-.16-.13-.19-.15-.67-.53-1.34-1.06-2-1.6-2.69-2.22-5.25-4.58-7.68-7.08-2.47-2.55-4.71-5.29-6.99-8.01-2.4-2.87-5-5.66-8.24-7.6-2.79-1.68-6.17-2.58-9.43-2.29-3.38.3-6.33 1.72-8.39 4.44-.63.84-.16 2.27.72 2.74 1.05.56 2.06.18 2.74-.72-.21.27.02-.01.11-.12.11-.12.22-.24.34-.36.14-.14.28-.26.42-.39.06-.05.13-.1.19-.16-.13.11-.19.14-.02.02.27-.18.54-.36.82-.52.14-.08.29-.15.43-.23.07-.04.15-.06.22-.1.24-.13-.3.09-.03.01.7-.2 1.35-.44 2.07-.57.08-.01.17-.03.25-.04-.03 0-.35.03-.11.02.17-.01.34-.03.5-.05.4-.03.79-.04 1.19-.03.34.01.69.03 1.03.06.09.01.17.02.26.03-.03 0-.34-.05-.1-.01.2.04.4.06.6.1.74.14 1.46.34 2.16.6.16.06.32.12.48.19-.32-.13.02.01.15.07.38.18.76.38 1.12.59.68.39 1.54.97 2.03 1.35 1.24.96 2.65 2.36 3.8 3.63 1.2 1.33 2.34 2.72 3.48 4.1 2.18 2.64 4.46 5.2 6.91 7.6 4.87 4.8 10.28 9.07 16.04 12.74 5.81 3.7 12 6.77 18.43 9.23 6.3 2.4 12.84 4.17 19.5 5.24 6.8 1.1 13.7 1.53 20.58 1.16 3.44-.19 6.95-.91 10.4-.6.1.01.2.02.31.03-.04 0-.26-.04-.03 0 .23.03.47.08.7.13.43.09.84.22 1.26.36.21.07.03 0-.01-.01.09.04.18.08.28.13.18.09.36.18.54.29l.48.3c.07.05.14.1.21.15-.32-.23-.01 0 .06.06.25.22.49.45.71.7.05.06.34.41.21.24-.12-.16.17.25.22.33.2.3.37.61.53.93.03.07.23.49.14.29-.08-.18.11.29.14.39.25.71.41 1.43.54 2.17.07.39-.02-.23.03.16.02.18.04.35.05.53.03.38.05.77.06 1.15.01.77-.02 1.55-.09 2.32-.02.18-.04.35-.06.53-.02.24.01-.06.02-.09-.01.09-.02.17-.04.26-.06.42-.14.84-.22 1.25-.68 3.46-1.55 6.88-2.66 10.23-.56 1.7-1.18 3.38-1.87 5.03-.04.1-.08.19-.12.28.02-.04.09-.22 0 0-.08.19-.16.38-.25.57-.18.41-.36.81-.55 1.22-.37.81-.76 1.6-1.17 2.39-.8 1.55-1.66 3.06-2.59 4.52-.47.75-.97 1.48-1.48 2.21-.24.33-.47.67-.72 1-.14.19-.29.38-.43.57 0 0-.2.26-.09.12.08-.11-.14.17-.16.2-2.13 2.7-4.55 5.08-7.06 7.41-2.54 2.36-5.14 4.66-7.85 6.83-.36.29-.72.57-1.08.86-.08.07-.17.13-.25.2.04-.03.16-.13-.02.01-.2.15-.39.3-.59.45-.73.55-1.47 1.09-2.22 1.62-1.44 1.02-2.92 1.99-4.44 2.88-1.45.85-2.93 1.64-4.47 2.32-.17.08-.35.15-.52.23.33-.14-.21.08-.31.12-.37.15-.75.29-1.13.42-.72.25-1.46.47-2.2.67-1.46.39-2.94.72-4.43.99-.8.15-1.59.27-2.39.39-.09.01-.56.08-.39.06s-.31.04-.4.05c-.41.05-.83.1-1.24.15-3.4.37-6.83.52-10.25.48-3.47-.04-6.94-.28-10.38-.71-.38-.05.12.02-.26-.03-.2-.03-.39-.05-.59-.08-.42-.06-.84-.13-1.26-.19-.83-.13-1.66-.28-2.48-.45-1.56-.31-3.12-.67-4.66-1.09-3.02-.83-5.93-1.98-8.81-3.18-.17-.07-.35-.15-.52-.22-.21-.09.01 0 .04.02-.12-.05-.23-.1-.35-.15-.38-.16-.75-.32-1.12-.49-.75-.33-1.49-.66-2.23-1-1.45-.67-2.88-1.37-4.3-2.11-2.87-1.5-5.66-3.16-8.32-5.01-.65-.46-1.3-.92-1.94-1.4-.15-.12-.31-.23-.46-.35.26.2-.21-.17-.28-.22-.33-.26-.66-.52-.98-.79-1.3-1.06-2.55-2.18-3.76-3.35-2.54-2.46-4.93-5.21-6.88-7.88-1.66-2.28-3.16-4.67-4.5-7.16-.66-1.23-1.28-2.47-1.86-3.74-.3-.65-.59-1.31-.87-1.97.14.32 0 0-.06-.14-.06-.15-.13-.31-.19-.46-.14-.34-.27-.67-.4-1.01-1.05-2.71-1.94-5.48-2.66-8.3-.37-1.44-.7-2.89-.98-4.35-.14-.71-.26-1.41-.38-2.12-.06-.37-.12-.74-.17-1.11-.03-.17-.05-.34-.07-.51-.01-.09-.02-.17-.04-.26-.05-.31.04.33 0 .02-.38-2.96-.6-5.93-.62-8.91-.02-2.95.14-5.91.5-8.84.02-.17.04-.34.07-.52-.05.41.02-.1.04-.24.05-.37.11-.74.17-1.12.12-.74.25-1.48.4-2.22.29-1.45.63-2.88 1.02-4.31.39-1.42.84-2.83 1.34-4.22.26-.71.52-1.41.81-2.11.07-.16.13-.32.2-.48-.13.32.02-.04.07-.16.16-.37.33-.75.5-1.11 1.25-2.71 2.72-5.33 4.41-7.79.42-.61.85-1.22 1.3-1.81.11-.14.22-.29.32-.43.14-.18-.02.02-.04.05.06-.07.11-.14.17-.21.24-.31.49-.61.73-.91.97-1.17 1.99-2.29 3.05-3.37.74-.75.8-2.09 0-2.83-.84-.72-2.09-.79-2.88.01z" fill="#252723"/><path d="m123.75 288.56c-.52 17.79-.53 36.15 6.25 52.6 8.09 19.65 25.42 34.64 45.06 42.76-10.29-2.22-20.47-4.96-30.48-8.21-7.61-2.46-15.28-5.3-21.54-10.29-6.46-5.16-11.06-12.36-14.21-20.01-5.94-14.4-6.73-30.74-2.79-45.77 1.37-5.23 4.64-18.59 9.63-21.58 6.49-3.87 8.27 4.07 8.08 10.5z" fill="#b45a2e" fill-opacity=".51"/><path d="m141.93 299.49c-1.95.7-3.9 1.4-5.84 2.1 9.57 23.32 33.55 39.99 58.74 40.84 5.41.18 11.98-1.12 13.79-6.22-6.87-2.76-13.75-5.53-20.62-8.29 11.92.75 23.89.85 35.82.3 3.29-.15 7.75-1.81 6.96-5.01-21.44 2.83-42.76-4.6-63.1-11.92-4.53-1.63-9.11-3.28-13.14-5.9-9.91-6.44-15.39-17.91-24.37-25.59-3.33-2.85-8.28-5.64-12.26-3.07 10.9 4.56 18.78 11.81 24.02 22.76z" fill="#f4e4b0"/><path d="m140.85 295.12c-13.84-1.28-28.09 4.1-37.47 14.18l-.7-.89c12.81-7.53 28.16-10.64 42.95-8.68l4.68.62-4.61 1.07c-10.08 2.35-19.07 8.58-25.33 16.78-3.14 4.1-5.63 8.71-7.28 13.59-1.66 4.88-2.47 10.05-2.26 15.18l-1.87-.65c5.88-6.84 12.06-13.42 18.6-19.62 6.53-6.22 13.36-12.12 20.46-17.68l1.41 1.52c-6.69 7.27-12.14 15.7-16.03 24.82-3.89 9.11-6.24 18.9-6.8 28.81l-1.33-.26c3.07-8.57 7.07-16.8 11.88-24.51 4.78-7.73 10.37-14.96 16.66-21.51l1.31-1.36-.61 1.79c-1.98 5.82-3.5 11.79-4.56 17.85-1.03 6.06-1.57 12.2-1.64 18.35-.03 3.07.02 6.15.3 9.2.29 3.04.87 6.06 2.01 8.86 1.11 2.81 2.91 5.32 5.26 7.19 2.33 1.87 5.27 3 8.22 2.85l-.41.8c-2.7-4.11-4.61-8.72-5.71-13.51s-1.4-9.76-.93-14.66 1.7-9.73 3.69-14.24 4.74-8.71 8.2-12.26l.64-.65.59.7c6.4 7.61 10.59 16.97 12.32 26.75 1.73 9.77 1.03 20.04-2.4 29.42l-.92-1.5c2.37.28 4.81-.82 6.61-2.55 1.82-1.74 2.93-4.11 3.5-6.67.56-2.56.65-5.26.56-7.98-.05-2.73-.31-5.45-.66-8.15-.72-5.41-2.04-10.74-3.9-15.86-1.85-5.13-4.27-10.05-7.17-14.67l-1.61-2.57 2.96.64c10.98 2.36 20.52 10.21 24.98 20.51 4.44 10.31 3.62 22.62-2.13 32.24l-2-1.53c3.13-3.24 5.13-7.49 6.05-11.95.92-4.47.83-9.17-.15-13.66-.99-4.51-2.77-8.85-5-12.95-2.24-4.11-4.91-7.99-7.76-11.76l-6.16-8.16 7.79 6.61c12.09 10.26 19.33 25.84 19.41 41.64l-1.65-.59c5.3-6.36 7.13-15.54 4.59-23.49-2.53-7.95-9.35-14.46-17.47-16.61l-2.94-.78 3.02-.36c3.81-.45 7.68-.75 11.55-.55 3.86.21 7.75.98 11.25 2.73 3.5 1.76 6.36 4.66 8.11 8.13.87 1.73 1.45 3.62 1.59 5.56.15 1.93-.17 3.91-.99 5.67l-.23-.1c.76-1.74 1.03-3.67.85-5.54-.18-1.88-.78-3.71-1.66-5.37-1.77-3.33-4.62-6.09-8-7.71-3.41-1.62-7.2-2.3-10.98-2.42-3.79-.13-7.58.26-11.36.75l.07-1.14c8.56 2.15 15.8 8.83 18.63 17.26 2.8 8.43 1.05 18.2-4.6 25.15l-1.62 2-.03-2.58c-.19-15.22-7.34-30.22-19-39.92l1.63-1.55c2.92 3.8 5.7 7.75 8.05 11.99 2.35 4.23 4.28 8.77 5.33 13.57 1.06 4.81 1.17 9.84.18 14.7-.98 4.84-3.17 9.56-6.68 13.2l-7.69 7.99 5.69-9.52c5.32-8.89 6.06-20.42 1.93-29.91-4.12-9.49-13.04-16.81-23.14-19.04l1.35-1.93c2.97 4.79 5.45 9.88 7.33 15.19 1.89 5.3 3.23 10.8 3.95 16.39.35 2.79.6 5.6.64 8.41.07 2.81-.02 5.69-.66 8.55-.33 1.43-.8 2.84-1.49 4.17-.67 1.35-1.61 2.58-2.69 3.63-1.11 1.03-2.38 1.92-3.83 2.49-1.43.59-3.05.82-4.63.65l-1.42-.16.5-1.34c3.34-8.96 4.16-18.85 2.58-28.32-1.57-9.47-5.54-18.59-11.66-26.02l1.23.05c-6.71 6.75-10.73 15.99-11.72 25.48-1.01 9.48.97 19.4 6.16 27.47l.49.76-.9.04c-3.25.13-6.41-1.15-8.85-3.15-2.47-1.99-4.37-4.66-5.51-7.59-1.18-2.92-1.75-6.03-2.03-9.12-.28-3.1-.31-6.19-.27-9.29.2-12.37 2.31-24.71 6.22-36.45l.7.43c-6.22 6.54-11.73 13.74-16.42 21.45-4.66 7.72-8.51 15.93-11.43 24.44l-1.53 4.47.2-4.73c.44-10.08 2.69-20.08 6.54-29.43 3.85-9.34 9.27-18.07 16.14-25.54l1.41 1.52c-7.02 5.55-13.77 11.43-20.23 17.63-6.44 6.21-12.65 12.66-18.51 19.43l-1.77 2.05-.09-2.7c-.19-5.41.69-10.83 2.45-15.92s4.38-9.87 7.66-14.13c3.29-4.25 7.26-7.98 11.74-10.95 4.48-2.98 9.5-5.16 14.76-6.31l.07 1.69c-14.37-2.09-29.46.75-42.14 7.97l-3.52 2.01 2.82-2.9c9.85-10.13 24.43-15.33 38.33-13.63z" fill="#f4e4b0"/><path d="m152.15 313.92c-2.24 5.62-3.58 12.29-.5 17.5 1.49 2.51 4.82 4.51 7.27 2.91 2.96-1.93 1.55-6.49-.17-9.58-1.79-3.21-3.58-6.42-5.37-9.63" fill="#fff"/><path d="m109.83 331.4c6.34 14.06 17.64 25.4 30.28 34.22 6.02 4.2 12.44 7.93 19.38 10.32 23.77 8.19 51.37-.91 68.93-18.9-11.91 21.32-36.31 34.91-60.72 34.21s-47.84-15.49-59.33-37.04c-10.13-18.98-12.09-46.65-.8-65.64-1.22 15.41-4.54 27.73 2.26 42.83z" fill="#f4e4b0"/></g><g><path d="m375.2 259.2c-22.12 22.36-18.54 59.7-3.07 81.53 10.1 14.25 23.01 20.86 36.95 26.24 12.61 4.87 32.31 5.51 45.3 1.75 9.58-2.77 20.2-12.17 27.42-19.05 9.62-9.18 14.91-21.74 17.42-34.79.94-4.86.48-10.8-3.7-13.46-3.02-1.93-6.91-1.44-10.48-1.08-30.92 3.13-63.03-9.86-83.07-33.61-3.42-4.05-6.64-8.51-11.29-11.06s-11.3-2.46-14.45 1.8" fill="#dda951"/><path d="m373.78 257.78c-4.45 4.52-8.1 9.82-10.71 15.6-2.63 5.82-4.24 11.96-5.02 18.28-.75 6.17-.59 12.39.25 18.54.81 5.91 2.32 11.74 4.51 17.29 2.2 5.57 5.02 10.87 8.62 15.66 4.37 5.83 9.6 10.87 15.61 15 5.54 3.8 11.6 6.72 17.8 9.27 2.95 1.21 5.91 2.35 9 3.17 3.38.89 6.82 1.48 10.29 1.9 6.98.85 14.11.9 21.09.04 3.27-.4 6.52-.96 9.68-1.88 3.33-.97 6.5-2.55 9.45-4.35 6.25-3.81 11.86-8.65 17.18-13.64 2.65-2.48 5.12-5.07 7.32-7.97 2.19-2.88 4.07-5.98 5.68-9.22 3.21-6.48 5.57-13.6 6.73-20.75.52-3.22.59-6.72-.61-9.81-1.34-3.44-4.1-5.97-7.8-6.63-3.67-.66-7.38.09-11.06.33-3.48.23-6.97.25-10.45.08-1.71-.08-3.41-.21-5.11-.39-.85-.09-1.7-.19-2.55-.3-.05-.01-.46-.06-.22-.03.21.03-.11-.02-.12-.02-.2-.03-.39-.05-.59-.08-.46-.07-.91-.14-1.36-.21-3.41-.55-6.79-1.27-10.12-2.18-3.33-.9-6.62-1.98-9.84-3.23-.8-.31-1.59-.63-2.38-.96-.09-.04-.18-.08-.27-.11-.31-.13.24.1-.07-.03-.18-.08-.36-.16-.54-.23-.42-.18-.84-.37-1.26-.56-1.56-.7-3.1-1.45-4.62-2.23-3.07-1.58-6.06-3.32-8.95-5.21-1.46-.95-2.89-1.95-4.29-2.98-.34-.25-.69-.51-1.03-.77-.16-.12-.31-.24-.47-.36 0 0-.26-.2-.11-.08.13.1-.16-.13-.19-.15-.67-.53-1.34-1.06-2-1.6-2.69-2.22-5.25-4.58-7.68-7.08-2.47-2.55-4.71-5.29-6.99-8.01-2.4-2.87-5-5.66-8.24-7.6-2.79-1.68-6.17-2.58-9.43-2.29-3.38.3-6.33 1.72-8.39 4.44-.63.84-.16 2.27.72 2.74 1.05.56 2.06.18 2.74-.72-.21.27.02-.01.11-.12.11-.12.22-.24.34-.36.14-.14.28-.26.42-.39.06-.05.13-.1.19-.16-.13.11-.19.14-.02.02.27-.18.54-.36.82-.52.14-.08.29-.15.43-.23.07-.04.15-.06.22-.1.24-.13-.3.09-.03.01.7-.2 1.35-.44 2.07-.57.08-.01.17-.03.25-.04-.03 0-.35.03-.11.02.17-.01.34-.03.51-.05.4-.03.79-.04 1.19-.03.34.01.69.03 1.03.06.09.01.17.02.26.03-.03 0-.34-.05-.1-.01.2.04.4.06.6.1.74.14 1.46.34 2.16.6.16.06.32.12.48.19-.32-.13.02.01.15.07.38.18.76.38 1.12.59.68.39 1.54.97 2.03 1.35 1.24.96 2.65 2.36 3.8 3.63 1.2 1.33 2.34 2.72 3.48 4.1 2.18 2.64 4.46 5.2 6.91 7.6 4.87 4.8 10.28 9.07 16.04 12.74 5.81 3.7 12 6.77 18.43 9.23 6.3 2.4 12.84 4.17 19.5 5.24 6.8 1.1 13.7 1.53 20.58 1.16 3.44-.19 6.95-.91 10.4-.6.1.01.2.02.31.03-.04 0-.26-.04-.03 0 .23.03.47.08.7.13.43.09.84.22 1.26.36.21.07.03 0-.01-.01.09.04.18.08.28.13.18.09.36.18.54.29l.48.3.21.15c-.32-.23-.01 0 .06.06.25.22.49.45.71.7.05.06.34.41.21.24-.12-.16.17.25.22.33.2.3.37.61.53.93.03.07.23.49.14.29-.08-.18.11.29.14.39.25.71.41 1.43.54 2.17.07.39-.02-.23.03.16.02.18.04.35.05.53.03.38.05.77.06 1.15.01.77-.02 1.55-.09 2.32-.02.18-.04.35-.06.53-.02.24.01-.06.02-.09-.01.09-.02.17-.04.26-.06.42-.14.84-.22 1.25-.68 3.46-1.55 6.88-2.66 10.23-.56 1.7-1.18 3.38-1.87 5.03-.04.1-.08.19-.12.28.02-.04.09-.22 0 0-.08.19-.16.38-.25.57-.18.41-.36.81-.55 1.22-.37.81-.76 1.6-1.17 2.39-.8 1.55-1.66 3.06-2.59 4.52-.47.75-.97 1.48-1.48 2.21-.24.33-.47.67-.72 1-.14.19-.29.38-.43.57 0 0-.2.26-.09.12.08-.11-.14.17-.16.2-2.13 2.7-4.55 5.08-7.06 7.41-2.54 2.36-5.14 4.66-7.85 6.83-.36.29-.72.57-1.08.86-.08.07-.17.13-.25.2.04-.03.16-.13-.02.01-.2.15-.39.3-.59.45-.73.55-1.47 1.09-2.22 1.62-1.44 1.02-2.92 1.99-4.44 2.88-1.45.85-2.93 1.64-4.47 2.32-.17.08-.35.15-.52.23.33-.14-.21.08-.31.12-.37.15-.75.29-1.13.42-.72.25-1.46.47-2.2.67-1.46.39-2.94.72-4.43.99-.8.15-1.59.27-2.39.39-.09.01-.56.08-.39.06s-.31.04-.4.05c-.41.05-.83.1-1.24.15-3.4.37-6.83.52-10.25.48-3.47-.04-6.94-.28-10.38-.71-.38-.05.12.02-.26-.03-.2-.03-.39-.05-.59-.08-.42-.06-.84-.13-1.26-.19-.83-.13-1.66-.28-2.48-.45-1.56-.31-3.12-.67-4.66-1.09-3.02-.83-5.93-1.98-8.81-3.18-.17-.07-.35-.15-.52-.22-.21-.09.01 0 .04.02-.12-.05-.23-.1-.35-.15-.38-.16-.75-.32-1.12-.49-.75-.33-1.49-.66-2.23-1-1.45-.67-2.88-1.37-4.3-2.11-2.87-1.5-5.66-3.16-8.32-5.01-.65-.46-1.3-.92-1.94-1.4-.15-.12-.31-.23-.46-.35.26.2-.21-.17-.28-.22-.33-.26-.66-.52-.98-.79-1.3-1.06-2.55-2.18-3.76-3.35-2.54-2.46-4.93-5.21-6.88-7.88-1.66-2.28-3.16-4.67-4.5-7.16-.66-1.23-1.28-2.47-1.86-3.74-.3-.65-.59-1.31-.87-1.97.14.32 0 0-.06-.14-.06-.15-.13-.31-.19-.46-.14-.34-.27-.67-.4-1.01-1.05-2.71-1.94-5.48-2.66-8.3-.37-1.44-.7-2.89-.98-4.35-.14-.71-.26-1.41-.38-2.12-.06-.37-.12-.74-.17-1.11-.03-.17-.05-.34-.07-.51-.01-.09-.02-.17-.04-.26-.05-.31.04.33 0 .02-.38-2.96-.6-5.93-.62-8.91-.02-2.95.14-5.91.5-8.84.02-.17.04-.34.07-.52-.05.41.02-.1.04-.24.05-.37.11-.74.17-1.12.12-.74.25-1.48.4-2.22.29-1.45.63-2.88 1.02-4.31.39-1.42.84-2.83 1.34-4.22.26-.71.52-1.41.81-2.11.07-.16.13-.32.2-.48-.13.32.02-.04.07-.16.16-.37.33-.75.5-1.11 1.25-2.71 2.72-5.33 4.41-7.79.42-.61.85-1.22 1.3-1.81.11-.14.22-.29.32-.43.14-.18-.02.02-.04.05.06-.07.11-.14.17-.21.24-.31.49-.61.73-.91.97-1.17 1.99-2.29 3.05-3.37.74-.75.8-2.09 0-2.83-.85-.71-2.1-.78-2.89.01z" fill="#252723"/><path d="m385.3 268.07c-.52 17.79-.53 36.15 6.25 52.6 8.09 19.65 25.42 34.64 45.06 42.76-10.29-2.22-20.47-4.96-30.48-8.21-7.61-2.46-15.28-5.3-21.54-10.29-6.46-5.16-11.06-12.36-14.21-20.01-5.94-14.4-6.73-30.74-2.79-45.77 1.37-5.23 4.64-18.59 9.63-21.58 6.49-3.88 8.27 4.07 8.08 10.5z" fill="#b45a2e" fill-opacity=".51"/><path d="m403.48 278.99c-1.95.7-3.9 1.4-5.84 2.1 9.57 23.32 33.55 39.99 58.74 40.84 5.41.18 11.98-1.12 13.79-6.22-6.87-2.76-13.75-5.53-20.62-8.29 11.92.75 23.89.85 35.82.3 3.29-.15 7.75-1.81 6.96-5.01-21.44 2.83-42.76-4.6-63.1-11.92-4.53-1.63-9.11-3.28-13.14-5.9-9.91-6.44-15.39-17.91-24.37-25.59-3.33-2.85-8.28-5.64-12.26-3.07 10.91 4.56 18.78 11.82 24.02 22.76z" fill="#f4e4b0"/><path d="m402.4 274.63c-13.84-1.28-28.09 4.1-37.47 14.18l-.7-.89c12.81-7.53 28.16-10.64 42.95-8.68l4.68.62-4.61 1.07c-10.08 2.35-19.07 8.58-25.33 16.78-3.14 4.1-5.63 8.71-7.28 13.59-1.66 4.88-2.47 10.05-2.26 15.18l-1.87-.65c5.88-6.84 12.06-13.42 18.6-19.62 6.53-6.22 13.36-12.12 20.46-17.68l1.41 1.52c-6.69 7.27-12.14 15.7-16.03 24.82-3.89 9.11-6.24 18.9-6.8 28.81l-1.33-.26c3.07-8.57 7.07-16.8 11.88-24.51 4.78-7.73 10.37-14.96 16.66-21.51l1.31-1.36-.61 1.79c-1.98 5.82-3.5 11.79-4.56 17.85-1.03 6.06-1.57 12.2-1.64 18.35-.03 3.07.02 6.15.3 9.2.29 3.04.87 6.06 2.01 8.86 1.11 2.81 2.91 5.32 5.26 7.19 2.33 1.87 5.27 3 8.22 2.85l-.41.8c-2.7-4.11-4.61-8.72-5.71-13.51s-1.4-9.76-.93-14.66 1.7-9.73 3.69-14.24 4.74-8.71 8.2-12.26l.64-.65.59.7c6.4 7.61 10.59 16.97 12.32 26.75 1.73 9.77 1.03 20.04-2.4 29.42l-.92-1.5c2.37.28 4.81-.82 6.61-2.55 1.82-1.74 2.93-4.11 3.5-6.67.56-2.56.65-5.26.56-7.98-.05-2.73-.31-5.45-.66-8.15-.72-5.41-2.04-10.74-3.9-15.86-1.85-5.13-4.27-10.05-7.17-14.67l-1.61-2.57 2.96.64c10.98 2.36 20.52 10.21 24.98 20.51 4.44 10.31 3.62 22.62-2.13 32.24l-2-1.53c3.13-3.24 5.13-7.49 6.05-11.95.92-4.47.83-9.17-.15-13.66-.99-4.51-2.77-8.85-5-12.95-2.24-4.11-4.91-7.99-7.76-11.76l-6.16-8.16 7.79 6.61c12.09 10.26 19.33 25.84 19.41 41.64l-1.65-.59c5.3-6.36 7.13-15.54 4.59-23.49-2.53-7.95-9.35-14.46-17.47-16.61l-2.94-.78 3.02-.36c3.81-.45 7.68-.75 11.55-.55 3.86.21 7.75.98 11.25 2.73 3.5 1.76 6.36 4.66 8.11 8.13.87 1.73 1.45 3.62 1.59 5.56.15 1.93-.17 3.91-.99 5.67l-.23-.1c.76-1.74 1.03-3.67.85-5.54-.18-1.88-.78-3.71-1.66-5.37-1.77-3.33-4.62-6.09-8-7.71-3.41-1.62-7.2-2.3-10.98-2.42-3.79-.13-7.58.26-11.36.75l.07-1.14c8.56 2.15 15.8 8.83 18.63 17.26 2.8 8.43 1.05 18.2-4.6 25.15l-1.62 2-.03-2.58c-.19-15.22-7.34-30.22-19-39.92l1.63-1.55c2.92 3.8 5.7 7.75 8.05 11.99 2.35 4.23 4.28 8.77 5.33 13.57 1.06 4.81 1.17 9.84.18 14.7-.98 4.84-3.17 9.56-6.68 13.2l-7.69 7.99 5.69-9.52c5.32-8.89 6.06-20.42 1.93-29.91-4.12-9.49-13.04-16.81-23.14-19.04l1.35-1.93c2.97 4.79 5.45 9.88 7.33 15.19 1.89 5.3 3.23 10.8 3.95 16.39.35 2.79.6 5.6.64 8.41.07 2.81-.02 5.69-.66 8.55-.33 1.43-.8 2.84-1.49 4.17-.67 1.35-1.61 2.58-2.69 3.63-1.11 1.03-2.38 1.92-3.83 2.49-1.43.59-3.05.82-4.63.65l-1.42-.16.5-1.34c3.34-8.96 4.16-18.85 2.58-28.32-1.57-9.47-5.54-18.59-11.66-26.02l1.23.05c-6.71 6.75-10.73 15.99-11.72 25.48-1.01 9.48.97 19.4 6.16 27.47l.49.76-.9.04c-3.25.13-6.41-1.15-8.85-3.15-2.47-1.99-4.37-4.66-5.51-7.59-1.18-2.92-1.75-6.03-2.03-9.12-.28-3.1-.31-6.19-.27-9.29.2-12.37 2.31-24.71 6.22-36.45l.7.43c-6.22 6.54-11.73 13.74-16.42 21.45-4.66 7.72-8.51 15.93-11.43 24.44l-1.53 4.47.2-4.73c.44-10.08 2.69-20.08 6.54-29.43 3.85-9.34 9.27-18.07 16.14-25.54l1.41 1.52c-7.02 5.55-13.77 11.43-20.23 17.63-6.44 6.21-12.65 12.66-18.51 19.43l-1.77 2.05-.09-2.7c-.19-5.41.69-10.83 2.45-15.92s4.38-9.87 7.66-14.13c3.29-4.25 7.26-7.98 11.74-10.95 4.48-2.98 9.5-5.16 14.76-6.31l.07 1.69c-14.37-2.09-29.46.75-42.14 7.97l-3.52 2.01 2.82-2.9c9.85-10.13 24.43-15.33 38.33-13.63z" fill="#f4e4b0"/><path d="m413.71 293.43c-2.24 5.62-3.58 12.29-.5 17.5 1.49 2.52 4.82 4.51 7.27 2.91 2.96-1.93 1.55-6.49-.17-9.58-1.79-3.21-3.58-6.42-5.37-9.63" fill="#fff"/><path d="m371.39 310.9c6.34 14.06 17.64 25.4 30.28 34.22 6.02 4.2 12.44 7.93 19.38 10.32 23.77 8.19 51.37-.91 68.93-18.9-11.91 21.32-36.31 34.91-60.72 34.21s-47.84-15.49-59.33-37.04c-10.13-18.98-12.09-46.65-.8-65.64-1.23 15.42-4.55 27.74 2.26 42.83z" fill="#f4e4b0"/></g><g><path d="m310.75 343.31c-22.12 22.36-18.54 59.7-3.07 81.53 10.1 14.25 23.01 20.86 36.95 26.24 12.61 4.87 32.31 5.51 45.3 1.75 9.58-2.77 20.2-12.17 27.42-19.05 9.62-9.18 14.91-21.74 17.42-34.79.94-4.86.48-10.8-3.7-13.46-3.02-1.93-6.91-1.44-10.48-1.08-30.92 3.13-63.03-9.86-83.07-33.61-3.42-4.05-6.64-8.51-11.29-11.06s-11.3-2.46-14.45 1.8" fill="#dda951"/><path d="m309.34 341.9c-4.45 4.52-8.1 9.82-10.71 15.6-2.63 5.82-4.24 11.96-5.02 18.28-.75 6.17-.59 12.39.25 18.54.81 5.91 2.32 11.74 4.51 17.29 2.2 5.57 5.02 10.87 8.62 15.66 4.37 5.83 9.6 10.87 15.61 15 5.54 3.8 11.6 6.72 17.8 9.27 2.95 1.21 5.91 2.35 9 3.17 3.38.89 6.82 1.48 10.29 1.9 6.98.85 14.11.9 21.09.04 3.27-.4 6.52-.96 9.68-1.88 3.33-.97 6.5-2.55 9.45-4.35 6.25-3.81 11.86-8.65 17.18-13.64 2.65-2.48 5.12-5.07 7.32-7.97 2.19-2.88 4.07-5.98 5.68-9.22 3.21-6.48 5.57-13.6 6.73-20.75.52-3.22.59-6.72-.61-9.81-1.34-3.44-4.1-5.97-7.8-6.63-3.67-.66-7.38.09-11.06.33-3.48.23-6.97.25-10.45.08-1.71-.08-3.41-.21-5.11-.39-.85-.09-1.7-.19-2.55-.3-.05-.01-.46-.06-.22-.03.21.03-.11-.02-.12-.02-.2-.03-.39-.06-.59-.08-.46-.07-.91-.14-1.36-.21-3.41-.55-6.79-1.27-10.12-2.18-3.33-.9-6.62-1.98-9.84-3.23-.8-.31-1.59-.63-2.38-.96-.09-.04-.18-.08-.27-.11-.31-.13.24.1-.07-.03-.18-.08-.36-.16-.54-.23-.42-.18-.84-.37-1.26-.56-1.56-.7-3.1-1.44-4.62-2.23-3.07-1.58-6.06-3.32-8.95-5.21-1.46-.95-2.89-1.95-4.29-2.98-.34-.25-.69-.51-1.03-.77-.16-.12-.31-.24-.47-.36 0 0-.26-.2-.11-.08.13.1-.16-.13-.19-.15-.67-.53-1.34-1.06-2-1.6-2.69-2.22-5.25-4.58-7.68-7.08-2.47-2.55-4.71-5.29-6.99-8.01-2.4-2.87-5-5.66-8.24-7.6-2.79-1.68-6.17-2.58-9.43-2.29-3.38.3-6.33 1.72-8.39 4.44-.63.84-.16 2.27.72 2.74 1.05.56 2.06.18 2.74-.72-.21.27.02-.01.11-.12.11-.12.22-.24.34-.36.14-.14.28-.26.42-.39.06-.05.13-.1.19-.16-.13.11-.19.14-.02.02.27-.18.54-.36.82-.52.14-.08.29-.15.43-.23.07-.04.15-.06.22-.1.24-.13-.3.09-.03.01.7-.2 1.35-.44 2.07-.57.08-.01.17-.03.25-.04-.03 0-.35.03-.11.02.17-.01.34-.03.51-.05.4-.03.79-.04 1.19-.03.34.01.69.03 1.03.06.09.01.17.02.26.03-.03 0-.34-.05-.1-.01.2.04.4.06.6.1.74.14 1.46.34 2.16.6.16.06.32.12.48.19-.32-.13.02.01.15.07.38.18.76.38 1.12.59.68.39 1.54.97 2.03 1.35 1.24.96 2.65 2.36 3.8 3.63 1.2 1.33 2.34 2.72 3.48 4.1 2.18 2.64 4.46 5.2 6.91 7.6 4.87 4.8 10.28 9.07 16.04 12.74 5.81 3.7 12 6.77 18.43 9.23 6.3 2.4 12.84 4.17 19.5 5.24 6.8 1.1 13.7 1.53 20.58 1.16 3.44-.19 6.95-.91 10.4-.6.1.01.2.02.31.03-.04 0-.26-.04-.03 0 .23.03.47.08.7.13.43.09.84.22 1.26.36.21.07.03 0-.01-.01.09.04.18.08.28.13.18.09.36.18.54.29l.48.3.21.15c-.32-.23-.01 0 .06.06.25.22.49.45.71.7.05.06.34.41.21.24-.12-.16.17.25.22.33.2.3.37.61.53.93.03.07.23.49.14.29-.08-.18.11.29.14.39.25.71.41 1.43.54 2.17.07.39-.02-.23.03.16.02.18.04.35.05.53.03.38.05.77.06 1.15.01.77-.02 1.55-.09 2.32-.02.18-.04.35-.06.53-.02.24.01-.06.02-.09-.01.09-.02.17-.04.26-.06.42-.14.84-.22 1.25-.68 3.46-1.55 6.88-2.66 10.23-.56 1.7-1.18 3.38-1.87 5.03-.04.1-.08.19-.12.28.02-.04.09-.22 0 0-.08.19-.16.38-.25.57-.18.41-.36.81-.55 1.22-.37.81-.76 1.6-1.17 2.39-.8 1.55-1.66 3.06-2.59 4.52-.47.75-.97 1.48-1.48 2.21-.24.33-.47.67-.72 1-.14.19-.29.38-.43.57 0 0-.2.26-.09.12.08-.11-.14.17-.16.2-2.13 2.7-4.55 5.08-7.06 7.41-2.54 2.36-5.14 4.66-7.85 6.83-.36.29-.72.57-1.08.86-.08.07-.17.13-.25.2.04-.03.16-.13-.02.01-.2.15-.39.3-.59.45-.73.55-1.47 1.09-2.22 1.62-1.44 1.02-2.92 1.99-4.44 2.88-1.45.85-2.93 1.64-4.47 2.32-.17.08-.35.15-.52.23.33-.14-.21.08-.31.12-.37.15-.75.29-1.13.42-.72.25-1.46.47-2.2.67-1.46.39-2.94.72-4.43.99-.8.15-1.59.27-2.39.39-.09.01-.56.08-.39.06s-.31.04-.4.05c-.41.05-.83.1-1.24.15-3.4.37-6.83.52-10.25.48-3.47-.04-6.94-.28-10.38-.71-.38-.05.12.02-.26-.03-.2-.03-.39-.05-.59-.08-.42-.06-.84-.13-1.26-.19-.83-.13-1.66-.28-2.48-.45-1.56-.31-3.12-.67-4.66-1.09-3.02-.83-5.93-1.98-8.81-3.18-.17-.07-.35-.15-.52-.22-.21-.09.01 0 .04.02-.12-.05-.23-.1-.35-.15-.38-.16-.75-.32-1.12-.49-.75-.33-1.49-.66-2.23-1-1.45-.67-2.88-1.37-4.3-2.11-2.87-1.5-5.66-3.16-8.32-5.01-.65-.46-1.3-.92-1.94-1.4-.15-.12-.31-.23-.46-.35.26.2-.21-.17-.28-.22-.33-.26-.66-.52-.98-.79-1.3-1.06-2.55-2.18-3.76-3.35-2.54-2.46-4.93-5.21-6.88-7.88-1.66-2.28-3.16-4.67-4.5-7.16-.66-1.23-1.28-2.47-1.86-3.74-.3-.65-.59-1.31-.87-1.97.14.32 0 0-.06-.14-.06-.15-.13-.31-.19-.46-.14-.34-.27-.67-.4-1.01-1.05-2.71-1.94-5.48-2.66-8.3-.37-1.44-.7-2.89-.98-4.35-.14-.71-.26-1.41-.38-2.12-.06-.37-.12-.74-.17-1.11-.03-.17-.05-.34-.07-.51-.01-.09-.02-.17-.04-.26-.05-.31.04.33 0 .02-.38-2.96-.6-5.93-.62-8.91-.02-2.95.14-5.91.5-8.84.02-.17.04-.34.07-.52-.05.41.02-.1.04-.24.05-.37.11-.74.17-1.12.12-.74.25-1.48.4-2.22.29-1.45.63-2.88 1.02-4.31.39-1.42.84-2.83 1.34-4.22.26-.71.52-1.41.81-2.11.07-.16.13-.32.2-.48-.13.32.02-.04.07-.16.16-.37.33-.75.5-1.11 1.25-2.71 2.72-5.33 4.41-7.79.42-.61.85-1.22 1.3-1.81.11-.14.22-.29.32-.43.14-.18-.02.02-.04.05.06-.07.11-.14.17-.21.24-.31.49-.61.73-.91.97-1.17 1.99-2.29 3.05-3.37.74-.75.8-2.09 0-2.83-.86-.72-2.11-.79-2.89.01z" fill="#252723"/><path d="m320.85 352.18c-.52 17.79-.53 36.15 6.25 52.6 8.09 19.65 25.42 34.64 45.06 42.76-10.29-2.22-20.47-4.96-30.48-8.2-7.61-2.46-15.28-5.3-21.54-10.29-6.46-5.16-11.06-12.36-14.21-20.01-5.94-14.4-6.73-30.74-2.79-45.77 1.37-5.23 4.64-18.59 9.63-21.58 6.49-3.88 8.27 4.06 8.08 10.49z" fill="#b45a2e" fill-opacity=".51"/><path d="m339.03 363.11c-1.95.7-3.9 1.4-5.84 2.1 9.57 23.32 33.55 39.99 58.74 40.84 5.41.18 11.98-1.12 13.79-6.22-6.87-2.76-13.75-5.53-20.62-8.29 11.92.75 23.89.85 35.82.3 3.29-.15 7.75-1.81 6.96-5.01-21.44 2.83-42.76-4.6-63.1-11.92-4.53-1.63-9.11-3.28-13.14-5.9-9.91-6.44-15.39-17.91-24.37-25.59-3.33-2.85-8.28-5.64-12.26-3.07 10.91 4.56 18.78 11.81 24.02 22.76z" fill="#f4e4b0"/><path d="m337.96 358.74c-13.84-1.28-28.09 4.1-37.47 14.18l-.7-.89c12.81-7.53 28.16-10.64 42.95-8.68l4.68.62-4.61 1.07c-10.08 2.35-19.07 8.58-25.33 16.78-3.14 4.1-5.63 8.71-7.28 13.59-1.66 4.88-2.47 10.05-2.26 15.18l-1.87-.65c5.88-6.84 12.06-13.42 18.6-19.62 6.53-6.22 13.36-12.12 20.46-17.68l1.41 1.52c-6.69 7.27-12.14 15.7-16.03 24.82-3.89 9.11-6.24 18.9-6.8 28.81l-1.33-.26c3.07-8.57 7.07-16.8 11.88-24.51 4.78-7.73 10.37-14.96 16.66-21.51l1.31-1.36-.61 1.79c-1.98 5.82-3.5 11.79-4.56 17.85-1.03 6.06-1.57 12.2-1.64 18.35-.03 3.07.02 6.15.3 9.2.29 3.04.87 6.06 2.01 8.86 1.11 2.81 2.91 5.32 5.26 7.19 2.33 1.87 5.27 3 8.22 2.85l-.41.8c-2.7-4.11-4.61-8.72-5.71-13.51s-1.4-9.76-.93-14.66 1.7-9.73 3.69-14.24 4.74-8.71 8.2-12.26l.64-.65.59.7c6.4 7.61 10.59 16.97 12.32 26.75 1.73 9.77 1.03 20.04-2.4 29.42l-.92-1.5c2.37.28 4.81-.82 6.61-2.55 1.82-1.74 2.93-4.11 3.5-6.67.56-2.56.65-5.26.56-7.98-.05-2.73-.31-5.45-.66-8.15-.72-5.41-2.04-10.74-3.9-15.86-1.85-5.13-4.27-10.05-7.17-14.67l-1.61-2.57 2.96.64c10.98 2.36 20.52 10.21 24.98 20.51 4.44 10.31 3.62 22.62-2.13 32.24l-2-1.53c3.13-3.24 5.13-7.49 6.05-11.95.92-4.47.83-9.17-.15-13.66-.99-4.51-2.77-8.85-5-12.95-2.24-4.11-4.91-7.99-7.76-11.76l-6.16-8.16 7.79 6.61c12.09 10.26 19.33 25.84 19.41 41.64l-1.65-.59c5.3-6.36 7.13-15.54 4.59-23.49-2.53-7.95-9.35-14.46-17.47-16.61l-2.94-.78 3.02-.36c3.81-.45 7.68-.75 11.55-.55 3.86.21 7.75.98 11.25 2.73 3.5 1.76 6.36 4.66 8.11 8.13.87 1.73 1.45 3.62 1.59 5.56.15 1.93-.17 3.91-.99 5.67l-.23-.1c.76-1.74 1.03-3.67.85-5.54-.18-1.88-.78-3.71-1.66-5.37-1.77-3.33-4.62-6.09-8-7.71-3.41-1.62-7.2-2.3-10.98-2.42-3.79-.13-7.58.26-11.36.75l.07-1.14c8.56 2.15 15.8 8.83 18.63 17.26 2.8 8.43 1.05 18.2-4.6 25.15l-1.62 2-.03-2.58c-.19-15.22-7.34-30.22-19-39.92l1.63-1.55c2.92 3.8 5.7 7.75 8.05 11.99 2.35 4.23 4.28 8.77 5.33 13.57 1.06 4.81 1.17 9.84.18 14.7-.98 4.84-3.17 9.56-6.68 13.2l-7.69 7.99 5.69-9.52c5.32-8.89 6.06-20.42 1.93-29.91-4.12-9.49-13.04-16.81-23.14-19.04l1.35-1.93c2.97 4.79 5.45 9.88 7.33 15.19 1.89 5.3 3.23 10.8 3.95 16.39.35 2.79.6 5.6.64 8.41.07 2.81-.02 5.69-.66 8.55-.33 1.43-.8 2.84-1.49 4.17-.67 1.35-1.61 2.58-2.69 3.63-1.11 1.03-2.38 1.92-3.83 2.49-1.43.59-3.05.82-4.63.65l-1.42-.16.5-1.34c3.34-8.96 4.16-18.85 2.58-28.32-1.57-9.47-5.54-18.59-11.66-26.02l1.23.05c-6.71 6.75-10.73 15.99-11.72 25.48-1.01 9.48.97 19.4 6.16 27.47l.49.76-.9.04c-3.25.13-6.41-1.15-8.85-3.15-2.47-1.99-4.37-4.66-5.51-7.59-1.18-2.92-1.75-6.03-2.03-9.12-.28-3.1-.31-6.19-.27-9.29.2-12.37 2.31-24.71 6.22-36.45l.7.43c-6.22 6.54-11.73 13.74-16.42 21.45-4.66 7.72-8.51 15.93-11.43 24.44l-1.53 4.47.2-4.73c.44-10.08 2.69-20.08 6.54-29.43 3.85-9.34 9.27-18.07 16.14-25.54l1.41 1.52c-7.02 5.55-13.77 11.43-20.23 17.63-6.44 6.21-12.65 12.66-18.51 19.43l-1.77 2.05-.09-2.7c-.19-5.41.69-10.83 2.45-15.92s4.38-9.87 7.66-14.13c3.29-4.25 7.26-7.98 11.74-10.95 4.48-2.98 9.5-5.16 14.76-6.31l.07 1.69c-14.37-2.09-29.46.75-42.14 7.97l-3.52 2.01 2.82-2.9c9.85-10.13 24.43-15.33 38.33-13.63z" fill="#f4e4b0"/><path d="m349.26 377.54c-2.24 5.62-3.58 12.29-.5 17.5 1.49 2.51 4.82 4.51 7.27 2.91 2.96-1.93 1.55-6.49-.17-9.58-1.79-3.21-3.58-6.42-5.37-9.63" fill="#fff"/><path d="m306.94 395.02c6.34 14.06 17.64 25.4 30.28 34.22 6.02 4.2 12.44 7.93 19.38 10.32 23.77 8.19 51.37-.91 68.93-18.9-11.91 21.32-36.31 34.91-60.72 34.21s-47.84-15.49-59.33-37.04c-10.13-18.98-12.09-46.65-.8-65.64-1.23 15.41-4.55 27.73 2.26 42.83z" fill="#f4e4b0"/></g></g></g></svg>