<?xml version="1.0" encoding="UTF-8" standalone="no"?>
<!DOCTYPE svg PUBLIC "-//W3C//DTD SVG 1.1//EN" "http://www.w3.org/Graphics/SVG/1.1/DTD/svg11.dtd">
<svg width="100%" height="100%" viewBox="0 0 144 102" version="1.1" xmlns="http://www.w3.org/2000/svg" xmlns:xlink="http://www.w3.org/1999/xlink" xml:space="preserve" xmlns:serif="http://www.serif.com/" style="fill-rule:evenodd;clip-rule:evenodd;stroke-linejoin:round;">
    <g transform="matrix(1,0,0,1,-28,-44)">
        <g id="Layer-2" serif:id="Layer 2">
            <path d="M168.531,44.781C155.734,51.601 152.498,66.42 141.625,75.375C116.753,95.86 93.721,97.385 65.531,86.781C63.535,86.03 61.488,85.183 59.438,84.313C58.597,78.669 53.375,63.935 52.625,59.688C50.349,46.796 38.702,57.229 28.844,60.75C31.009,70.236 31.225,86.705 41.625,90.656C24.936,129.359 56.825,147.86 92.156,145.375C149.14,141.366 183.002,101.005 168.531,44.781Z"/>
            <path d="M167.281,46.281C174.393,87.453 159.265,126.389 116.281,138.781C98.788,143.825 74.472,147.985 57.844,137.5C47.156,130.761 35.017,115.491 39.281,101.781C39.851,99.948 45.307,94.718 43.813,91C39.725,80.834 34.584,71.083 30.938,60.75C42.982,58.53 37.225,60.278 48.25,55.563C50.918,65.978 53.528,76.458 55.094,87.094L54.063,88.156C93.084,102.338 123.937,94.646 143.688,78.563C150.837,72.741 165.354,46.407 167.281,46.281Z" style="fill:rgb(241,217,0);"/>
            <path d="M167.281,46.281C165.354,46.407 150.837,72.741 143.688,78.563C123.937,94.646 93.084,102.338 54.063,88.156L55.094,87.094C53.528,76.458 50.918,65.978 48.25,55.563C45.438,56.765 45.234,56.84 44.031,57.375C45.191,60.715 46.29,64.054 46.906,67.563C47.699,72.08 48.648,77.542 48.688,82.094C48.707,84.349 47.551,89.503 48.219,91.219C50.354,96.704 56.582,99.963 61.063,103.312C63.874,105.414 66.738,107.733 70.156,108.812C78.256,111.369 85.662,113.663 94.25,111.438C98.32,110.383 101.928,108.047 106.031,107.156C110.445,106.198 115.289,105.906 119.406,103.906C123.094,102.116 126.314,99.69 130.125,98.031C136.215,95.38 143.209,92.454 147.906,87.531C152.599,82.613 157.268,77.233 160.844,71.438C161.629,70.165 161.684,68.554 162.438,67.281C163.196,66.001 164.677,65.286 165.344,63.938C166.268,62.068 166.725,59.08 167.219,57.031C167.608,55.415 167.886,53.794 168.094,52.188C167.855,50.224 167.623,48.258 167.281,46.281Z" style="fill:rgb(191,113,0);fill-opacity:0.3;"/>
            <path d="M38.906,104C36.482,117.107 47.728,131.121 57.844,137.5C67.189,143.393 78.968,144.572 90.594,143.656C86.496,143.411 82.443,142.911 78.906,142.125C67.671,139.628 56.975,134.162 48.75,125.938C46.004,123.192 41.885,114.943 40.188,111.406C39.552,110.082 39.21,107.15 38.906,104ZM116.25,138.75C116.017,138.732 115.578,138.977 115.281,139.031C115.594,138.943 115.972,138.87 116.281,138.781C116.264,138.779 116.268,138.751 116.25,138.75Z" style="fill:rgb(255,255,154);"/>
            <path d="M44.646,102.326C54.409,116.122 70.199,124.85 86.918,124.85C91.762,124.85 97.573,123.216 102.312,122.2C107.69,121.048 113.202,119.051 118.211,116.774C121.409,115.321 124.286,112.297 127.927,112.106C130.89,111.95 136.497,113.327 136.003,117.279C135.125,124.307 126.758,126.933 121.24,129.141C111.765,132.93 101.18,132.421 91.082,132.421C78.238,132.421 68.571,133.683 57.264,126.617C51.876,123.249 45.31,115.803 44.015,109.33C43.653,107.522 43.416,100.588 44.646,102.326Z" style="fill:rgb(255,255,213);"/>
            <path d="M36.868,69.43C35.618,70.539 38.081,72.76 38.579,74.498C38.749,75.087 39.204,77.631 39.264,77.654C39.852,77.873 40.648,76.581 40.718,76.028C40.87,74.839 39.611,74.243 39.521,73.637C39.235,71.723 39.479,67.112 36.868,69.43Z" style="fill:rgb(159,122,79);"/>
            <path d="M67.784,136.607C68.575,138.364 75.854,138.276 76.098,137.688C77.025,135.447 71.208,137.48 70.63,137.394C68.96,137.146 67.852,133.581 65.876,134.399C63.329,135.455 67.182,135.271 67.784,136.607Z" style="fill:rgb(159,122,79);"/>
            <path d="M47.266,73.5C46.334,75.46 47.378,78.529 48.075,80.545C48.461,81.661 49.228,82.568 49.682,83.658C50.001,84.424 50.633,88.419 51.968,87.032C52.121,86.873 52.223,86.563 52.229,86.354C52.273,84.789 51.139,84.041 50.637,82.717C50.354,81.971 50.829,81.35 50.696,80.62C50.55,79.811 49.736,78.923 49.475,78.123C48.97,76.571 49.392,74.428 48.529,73.052C48.24,72.59 47.397,73.224 47.266,73.5Z" style="fill:rgb(159,122,79);"/>
            <path d="M94.949,137.614C95.065,137.222 83.291,138.657 83.334,139.802C83.346,140.108 84.143,140.671 84.299,140.761C86.199,141.852 92.284,142.077 93.617,141.658C94.11,141.503 97.699,140.381 97.438,139.6C97.13,138.68 94.74,138.317 94.949,137.614Z" style="fill:rgb(159,122,79);"/>
            <path d="M42.583,80.488C42.302,81.419 43.239,83.239 43.716,84.698C44.034,85.672 44.373,86.621 44.762,87.443C45.177,88.32 45.444,88.215 45.869,88.537C45.955,88.603 46.801,89.449 46.875,89.216C47.047,88.676 43.44,77.651 42.583,80.488Z" style="fill:rgb(159,122,79);"/>
            <path d="M160.736,91.721C159.19,91.426 161.845,92.043 162.045,91.794C162.925,90.694 163.011,88.158 161.027,88.158C159.959,88.158 159.702,90.454 160.008,91.067C160.337,91.725 162.491,92.057 160.736,91.721Z" style="fill:rgb(159,122,79);"/>
            <path d="M152.615,93.167C152.532,94.218 151.453,95.639 153.415,95.639C153.854,95.639 154.499,95.87 154.724,95.494C155.152,94.781 153.683,93.519 153.27,93.312C153.138,93.246 152.629,92.993 152.615,93.167Z" style="fill:rgb(159,122,79);"/>
            <path d="M154.787,100.491C154.727,102.237 158.661,105.035 159.806,102.746C160.57,101.216 154.86,98.367 154.787,100.491Z" style="fill:rgb(159,122,79);"/>
            <path d="M148.543,112.076C148.384,113.058 153.313,113.412 152.688,110.912C152.287,109.309 149.814,108.277 148.324,109.021C147.088,109.64 148.654,111.387 148.543,112.076Z" style="fill:rgb(159,122,79);"/>
            <path d="M52.329,96.498C58.88,101.399 64.512,106.195 72.952,107.876C77.311,108.744 81.784,109.478 86.201,110.013C88.965,110.348 91.703,109.498 94.219,110.952L94.184,111.407C84.039,113.207 71.73,110.162 62.667,105.245C58.691,103.088 55.848,99.226 52.282,96.566" style="stroke:black;stroke-width:1px;"/>
            <path d="M167.417,51.418C164.39,58.888 157.878,85.658 148.784,85.415L148.693,85.181C160.215,79.124 161.459,61.339 167.104,51.114" style="stroke:black;stroke-width:1px;"/>
            <path d="M42.509,108.704C48.996,124.61 65.474,134.425 82.696,132.897L82.733,133.135C79.112,134.194 75.624,133.047 72.013,132.633C57.907,131.018 46.656,122.272 41.638,108.87" style="stroke:black;stroke-width:1px;"/>
            <path d="M106.962,133.174C113.517,128.861 121.951,127.252 129.071,123.832C137.383,119.84 148.196,107.085 152.218,98.999L152.33,99.062C149.284,107.735 137.938,120.772 129.538,124.866C122.244,128.421 114.069,129.907 107.013,133.796" style="stroke:black;stroke-width:1px;"/>
            <path d="M32.198,60.684C34.729,61.241 36.001,62.484 38.701,61.742C40.688,61.196 44.734,58.756 45.975,57.058C46.149,56.82 46.683,56.431 46.421,56.296C46.318,56.243 46.36,57.243 47.225,57.264C47.803,57.278 46.133,57.66 45.635,57.953C44.855,58.411 44.128,58.927 43.387,59.443C40.871,61.196 37.695,60.997 35.366,62.275C34.882,62.54 35.936,61.282 35.964,60.731C36.003,59.967 37.76,60.752 39.182,59.931C39.654,59.658 39.136,61.423 38.592,61.457C37.532,61.522 36.447,61.08 35.4,61.218C34.841,61.292 33.483,62.291 33.827,61.844C34.187,61.377 33.774,60.655 33.895,60.078C33.997,59.591 35.036,60.243 35.374,59.878C35.76,59.462 35.461,61.337 34.924,61.523C33.644,61.965 33.306,62.321 33.3,60.291C33.299,60.214 33.388,59.999 33.356,60.068C32.649,61.62 32.868,61.01 33.576,61.693C33.983,62.085 32.467,61.915 31.904,61.971C31.493,62.012 31.026,63.281 30.98,61.132L30.879,61.973C30.11,59.001 34.561,60.064 34.574,60.103C34.739,60.598 34.13,62.009 33.927,61.528C33.715,61.025 33.57,60.404 33.112,60.109C33.068,60.08 34.828,59.6 34.993,59.597C35.936,59.579 35.567,59.877 35.888,61.287C36.017,61.853 31.228,61.637 33.064,59.935C33.762,59.287 38.951,58.542 39.591,59.747C41.065,62.517 34.537,62.102 34.45,61.922C34.211,61.426 34.67,60.841 34.828,60.314C34.884,60.124 37.796,59.914 38.134,59.798C40.372,59.037 45.942,53.956 47.741,55.768C49.209,57.247 45.145,60.013 44.048,60.573C38.143,63.583 38.436,64.111 32.069,61.235" style="stroke:black;stroke-width:1px;"/>
            <path d="M45.312,61.094C46.012,63.434 47.496,66.486 46.748,69.005C47.022,66.362 45.651,63.698 44.943,61.238" style="stroke:black;stroke-width:1px;"/>
        </g>
    </g>
</svg>
