<svg clip-rule="evenodd" fill-rule="evenodd" stroke-miterlimit="10" viewBox="0 0 73 68" xmlns="http://www.w3.org/2000/svg"><path d="m42.971 22.076c0 9.35-7.66 16.928-17.111 16.928-9.449 0-17.11-7.578-17.11-16.928 0-9.349 7.661-16.927 17.11-16.927 9.451 0 17.111 7.578 17.111 16.927" fill="#fff" fill-rule="nonzero"/><path d="m42.971 22.077c0 9.342-7.667 16.927-17.111 16.927-9.443 0-17.11-7.585-17.11-16.927 0-9.343 7.667-16.928 17.11-16.928 9.444 0 17.111 7.585 17.111 16.928z" fill="none" stroke="#ed1c24" stroke-width=".99"/><g fill-rule="nonzero"><path d="m48.536 50.221h.007c0-.529.019-1.059-.006-1.586-.027-.591-.333-.742-.878-.502-.454.201-.512.55-.475.979.077.876.13 1.755.198 2.632.013.173-.006.419.097.5.189.148.457.264.691.262.123-.002.338-.274.349-.434.042-.615.017-1.234.017-1.851m-43.325-.583h.006c0 .488.013.978-.003 1.466-.018.541.269.696.758.644.224-.025.451-.017.672-.052.403-.063.643-.274.633-.716-.019-.932-.004-1.866-.052-2.796-.012-.221-.171-.558-.346-.623-.94-.35-1.644.155-1.667 1.144-.007.311-.001.622-.001.933m32.823 2.755h-.062c0-.883.001-1.768 0-2.651-.001-.524-.313-.671-.786-.669-.487.001-.586.29-.605.686-.077 1.631-.171 3.264-.243 4.896-.033.738.048.818.676.835.81.022.993-.112 1.015-.842.023-.752.005-1.504.005-2.255m-31.048 2.781c-.342-.025-.75-.105-1.144-.066-.214.021-.575.24-.58.381-.031.742.031 1.488.062 2.232.563.066 1.124.148 1.69.19.401.028.809.031 1.207-.016.19-.023.512-.18.517-.287.031-.743-.007-1.488-.021-2.234-.467-.066-.935-.135-1.402-.198-.088-.012-.179-.002-.329-.002m7.47-3.234c-.018.002-.036.005-.054.007.092.877.16 1.757.285 2.631.097.69.31.81 1.119.77.67-.034.818-.15.795-.918-.044-1.41-.141-2.819-.237-4.227-.036-.522-.276-.669-.809-.577-.757.134-1.053.465-1.095 1.254-.019.352-.004.707-.004 1.06m9.929 12.503c.18.551-.53 1.452.182 1.853.551.311 1.4.105 2.116.126.09.003.18-.003.27-.009.389-.03.551-.241.509-.621-.106-.97-.185-1.943-.338-2.907-.029-.179-.331-.363-.546-.451-.195-.08-.443-.036-.667-.041-1.51-.033-1.51-.032-1.525 1.4-.002.179-.001.356-.001.65m24.155-23.776h.014v-.796c.004-2.248-.149-2.379-2.422-2.061-.043.005-.107-.011-.13.012-.162.175-.45.355-.452.535-.019 1.461.01 2.919.042 4.378.008.366.234.525.616.54.577.025 1.154.087 1.729.153.398.044.598-.119.601-.505.006-.752.002-1.504.002-2.256m-24.913 23.746h-.014c0-.134.001-.267 0-.401-.016-1.818.165-1.785-1.864-1.832-.653-.015-1.307-.012-1.96-.017-.05.701-.134 1.402-.14 2.104-.014 1.687.002 1.685 1.647 1.98.308.055.61.163.92.184 1.368.094 1.425.031 1.411-1.352-.002-.222 0-.444 0-.666m6.771 1.975c.539 0 1.077.017 1.614-.007.301-.014.485-.176.455-.519-.087-1.016-.177-2.031-.234-3.048-.028-.51-.265-.723-.763-.678-.981.087-1.962.186-2.943.263-.486.039-.594.326-.535.73.062.439.174.871.216 1.31.187 1.981.181 1.981 2.19 1.949m-3.826-21.284c1.44 0 2.881-.001 4.321 0 3.151.002 6.302.01 9.453.004.864-.002.901-.062.912-.919.011-.896-.036-.943-.995-.973-.135-.005-.27-.002-.405-.002-8.869-.006-17.737-.013-26.606-.021-.179 0-.36.003-.54.001-.519-.003-.721.27-.692.759.013.221.003.445.008.667.009.318.165.491.497.489.316-.002.631-.004.946-.004 4.367 0 8.734 0 13.101-.001m.185-2.602v-.006c4.369 0 8.739 0 13.109-.001.314 0 .634.019.942-.03.147-.024.387-.183.389-.285.018-.659-.019-1.32-.038-1.979-.474-.071-.948-.152-1.425-.209-.222-.026-.45-.002-.674-.003-8.425-.011-16.848-.019-25.273-.039-1.873-.004-1.769-.362-1.767 1.791 0 .045-.002.09.002.133.049.688.082.752.82.745 1.035-.008 2.068-.108 3.103-.112 3.603-.015 7.207-.005 10.812-.005m-9.959 3.517c-1.133-.016-2.244-.053-3.352-.044-1.42.011-1.426.028-1.428 1.4-.008 4.673-.01 9.347-.015 14.02-.002 1.424-.02 2.848-.005 4.272.008.72.055.775.768.781 1.845.017 3.691.013 5.536-.008.69-.008.703-.049.709-.802.006-.935-.047-1.872.017-2.803.048-.708-.068-1.153-.867-1.354-.954-.242-1.304-.943-1.294-1.925.009-.974-.147-1.949-.216-2.924-.027-.379-.203-.569-.586-.57-.181-.001-.364-.031-.539-.005-1.07.159-1.58-.581-1.605-1.508-.031-1.243-.107-2.486-.117-3.729-.009-1.091.248-1.415 1.277-1.766.253-.085.546-.072.779-.187.204-.101.452-.293.5-.489.177-.726.28-1.469.438-2.359m24.448 10.138h.013v-8.67c0-.313-.01-.624-.007-.935.005-.451-.227-.635-.67-.624-.899.02-1.798.018-2.698.042-1.126.031-1.187.1-1.237 1.239-.035.817-.035.817.69 1.003 1.15.295 1.342.474 1.382 1.611.053 1.51.055 3.023.06 4.534.005 1.653-.004 1.654-1.736 1.703-.09.002-.18.002-.269-.003-.522-.031-.692.236-.73.722-.08 1.018-.169 2.038-.331 3.046-.255 1.589-.409 1.777-1.726 1.958-.132.019-.26.076-.392.093-.447.061-.601.339-.578.748.046.843.047 1.691.158 2.526.158 1.2.232 1.246 1.438 1.253 1.799.011 3.598-.001 5.397-.003.134 0 .27-.006.404 0 .544.022.858-.186.831-.772-.014-.31.001-.621.001-.934zm8.319-23.372c0 .996-.002 1.833 0 2.67.002.371.181.579.572.577.27-.001.54-.003.81-.003 5.314-.005 10.627-.011 15.94-.014.495 0 .99.029 1.485.026.711-.004 1.421-.016 2.131-.042.492-.018.728-.295.72-.778-.025-1.557-.053-3.115-.078-4.672-.007-.445-.235-.651-.677-.634-.673.027-1.347.081-2.022.083-4.547.012-9.095.01-13.642.022-.492.002-1.117-.095-1.436.157-.304.24-.296.873-.412 1.336-.251 1.003-.528 1.237-1.583 1.269-.582.018-1.165.003-1.808.003m-22.667 13.186v.002h-2.565c-1.844 0-3.689-.013-5.534.004-.984.009-1.176.14-1.435 1.062-.141.504-.221 1.05-.199 1.571.142 3.374.319 6.746.488 10.119.094 1.895.216 2.03 2.126 2.376.221.039.447.061.671.07 2.066.085 4.133.251 6.198.223 2.15-.029 4.306-.169 6.443-.405 1.553-.17 1.54-.274 1.677-1.77.012-.133.026-.266.043-.398.374-2.905.9-5.796.764-8.748-.031-.664.023-1.334.065-2 .031-.486.118-.969.161-1.455.032-.37-.157-.597-.534-.623-.36-.026-.72-.026-1.079-.026-2.43-.003-4.86-.002-7.29-.002m-.42-14.008v-.03c7.658 0 15.316.003 22.974-.006.802-.001 1.603-.077 2.404-.117.067-.827.176-1.653.188-2.48.016-1.121-.017-1.125-1.099-1.152-.495-.011-.991-.01-1.486-.01-6.307-.002-12.614.016-18.919-.008-9.234-.038-18.468-.108-27.701-.165-.405-.002-.811-.006-1.216-.021-.443-.015-.668.166-.662.625.011.757-.01 1.514.005 2.271.021 1.051.074 1.093 1.187 1.093 8.108.001 16.216 0 24.325 0m41.577 17.942h.03c0-2.76-.014-5.52.006-8.279.01-1.334.095-2.667.121-4.002.015-.74-.033-.772-.726-.813-.269-.017-.54-.005-.81-.005-4.592-.001-9.184-.001-13.776-.003-.855 0-1.711-.023-2.566-.001-.698.018-.73.071-.769.791-.012.222-.002.445-.002.668.005 7.789.009 15.578.013 23.367.001.266-.001.534.006.8.01.388.231.55.606.544.225-.004.45-.003.675-.003 4.907-.007 9.814-.01 14.721-.019.585-.001 1.17-.027 1.755-.02.523.007.726-.251.71-.741-.01-.311.005-.624.005-.935.001-3.783.001-7.566.001-11.349m-19.498-17.123h-1.134c-13.603 0-27.208-.001-40.81-.001-.271 0-.541.006-.811.008-.389.003-.571.202-.572.58-.001.356-.011.712-.011 1.069-.002 3.429-.011 6.858.004 10.288.002.607.105 1.214.162 1.822.572.028 1.143.075 1.715.081.905.008 1.072.145 1.098 1.103.024.889.009 1.78.003 2.671-.013 1.728-.128 1.844-1.934 1.949-.09.006-.181-.004-.27.005-.643.075-.807.312-.788 1.131.015.65.093.759.805.76.944.001 1.887-.066 2.832-.097.702-.021.927.141.949.808.034 1.024.013 2.049.008 3.073-.002.419-.245.665-.653.717-.444.057-.896.087-1.346.103-.628.02-1.258.022-1.887.022-.512 0-.707.254-.718.747-.045 2.002-.125 4.004-.163 6.007-.015.78.042.825.844.838 1.307.021 2.613.011 3.919.007 1.406-.005 1.411-.009 1.407-1.38-.027-8.015-.055-16.033-.089-24.049-.002-.444-.086-.886-.092-1.33-.008-.573.253-.75.858-.672.53.067 1.065.141 1.598.136 3.332-.034 6.664-.115 9.996-.132 5.495-.029 10.991-.021 16.486-.028.316 0 .633-.02.945.018.96.113 1.302.501 1.34 1.486.01.267.003.534.004.802.005 7.17.012 14.34.018 21.51.001.846-.01 1.692.007 2.539.019.969.032.999.973 1.029 1.486.044 2.973.059 4.459.058.78 0 .826-.042.829-.862.015-3.874.015-7.75.006-11.623-.001-.733-.029-.733-.837-.838-.974-.126-1.035-.188-1.073-1.151-.038-.977-.035-1.957-.113-2.932-.081-.988.068-1.262 1.028-1.534.987-.281.989-.281.999-1.308.004-.401-.015-.803.003-1.203.022-.475-.165-.78-.661-.826-.623-.058-1.247-.108-1.872-.129-.839-.026-.983-.051-1.042-.869-.121-1.684-.174-3.375-.182-5.064-.003-.749.318-.985 1.125-1.023.584-.028 1.171.014 1.756.001.802-.018.856-.051.875-.826.026-1.11.007-2.219.007-3.491m-22.228-5.605c8.061 0 16.122-.004 24.183.008.529.001 1.076.058 1.58.206.546.159 1.126.365 1.025 1.164-.051.398.273.509.628.509.36.001.72.014 1.081.014 5.492-.003 10.985.001 16.477-.023.539-.002.749.187.747.676-.007 2.004-.021 4.008-.029 6.011-.002.547-.348.787-.817.915-.129.034-.27.016-.402.035-.61.09-1.466-.017-1.761.334-.303.363-.058 1.172-.057 1.786.011 5.254.021 10.508.031 15.762.005 2.494.015 4.987.014 7.481-.001 1.41-.299 1.73-1.737 1.737-3.107.017-6.215 0-9.322-.002-2.387-.001-4.774-.004-7.161 0-1.221.002-1.221.008-1.235 1.265-.003.401.022.804-.014 1.202-.074.824-.319 1.059-1.193 1.151-.402.041-.81.037-1.215.038-9.366.007-18.732.026-28.099.009-4.411-.008-8.822-.086-13.232-.134-.181-.002-.361-.005-.54-.008-.899-.013-1.097.037-1.092-1.149.028-5.788-.016-11.576-.027-17.364-.009-4.757-.008-9.513-.011-14.271 0-.222.003-.445-.002-.667-.023-1.052-.024-1.056-1.032-1.079-.586-.014-1.171.004-1.756-.017-.802-.029-1.149-.252-1.188-.965-.074-1.332-.065-2.669-.05-4.003.002-.148.25-.384.417-.418.481-.099.978-.15 1.471-.156 1.711-.029 3.422-.039 5.133-.04 6.395-.005 12.791-.002 19.185-.002z" fill="#231f20"/><path d="m48.556 32.782c0 1.272.02 2.381-.007 3.491-.018.775-.072.808-.874.826-.586.012-1.172-.029-1.756-.001-.807.039-1.129.274-1.125 1.023.007 1.689.061 3.379.182 5.063.058.818.204.844 1.042.87.625.021 1.25.071 1.873.129.494.046.681.351.659.826-.018.4.002.801-.002 1.203-.011 1.028-.012 1.028-1 1.308-.958.272-1.108.546-1.028 1.534.08.975.077 1.956.115 2.932.036.963.097 1.025 1.071 1.151.809.105.836.105.838.837.008 3.875.008 7.75-.007 11.624-.002.821-.048.862-.828.862-1.486.001-2.972-.015-4.458-.058-.943-.03-.955-.06-.974-1.029-.017-.847-.006-1.693-.007-2.539-.006-7.17-.012-14.34-.018-21.51 0-.268.006-.535-.004-.802-.037-.985-.381-1.373-1.34-1.486-.311-.039-.63-.018-.945-.018-5.496.007-10.991-.001-16.486.028-3.333.017-6.664.098-9.997.132-.531.006-1.067-.069-1.597-.137-.605-.077-.866.1-.857.673.006.444.089.886.09 1.33.035 8.016.062 16.034.089 24.049.005 1.371-.001 1.375-1.406 1.38-1.306.005-2.613.013-3.918-.007-.803-.013-.859-.058-.844-.838.037-2.003.116-4.004.162-6.007.011-.492.207-.746.718-.746.629 0 1.258-.002 1.887-.023.45-.016.901-.045 1.347-.103.407-.052.65-.298.652-.717.006-1.025.026-2.05-.007-3.073-.022-.667-.249-.829-.95-.808-.944.031-1.888.098-2.833.097-.712-.001-.789-.111-.804-.76-.019-.818.145-1.056.788-1.131.09-.009.18.001.27-.004 1.805-.106 1.921-.222 1.934-1.951.006-.89.021-1.781-.003-2.67-.026-.958-.194-1.095-1.097-1.104-.572-.005-1.145-.052-1.716-.081-.057-.607-.16-1.214-.162-1.821-.015-3.43-.006-6.859-.003-10.288 0-.357.009-.713.011-1.069.001-.378.183-.576.571-.579.27-.003.54-.009.81-.009 13.604 0 27.207.001 40.811.001z" fill="#ebb56e"/><path d="m52.628 46.607h-.005v2.668c0 1.066-.007 2.132.001 3.2.01 1.532.117 1.631 1.713 1.681.18.006.361.011.54.011 3.057.003 6.113.013 9.171-.002.431-.002.962-.004 1.259-.238.195-.153.045-.728.052-1.113.001-.088.019-.177.02-.266.044-3.953.099-7.907.124-11.861.007-1.098-.124-1.21-1.249-1.223-3.462-.038-6.923-.064-10.383-.077-1.136-.004-1.23.094-1.24 1.22-.014 2.001-.003 4.001-.003 6m15.426 3.298c0 3.783.001 7.566 0 11.349 0 .311-.015.625-.005.935.015.49-.187.748-.71.741-.584-.007-1.171.019-1.755.02-4.907.008-9.814.013-14.721.019-.225 0-.45-.001-.675.003-.376.006-.597-.156-.607-.544-.006-.266-.004-.534-.005-.8-.004-7.789-.009-15.578-.013-23.368 0-.222-.01-.445.001-.667.039-.72.072-.772.771-.791.854-.022 1.71.001 2.565.001 4.592.002 9.184.002 13.776.003.27 0 .54-.012.81.005.693.041.74.074.727.813-.026 1.334-.113 2.668-.122 4.001-.02 2.76-.006 5.52-.006 8.28z" fill="#c89a57"/><path d="m26.478 31.963c-8.108 0-16.217.001-24.325 0-1.113 0-1.166-.042-1.187-1.092-.015-.758.006-1.515-.005-2.272-.006-.459.219-.64.662-.625.405.015.811.02 1.216.022 9.233.056 18.467.127 27.701.164 6.305.025 12.612.006 18.919.008.495 0 .991-.001 1.486.01 1.082.027 1.115.031 1.099 1.152-.012.827-.121 1.653-.188 2.48-.801.04-1.602.116-2.404.117-7.658.009-15.316.006-22.974.006z" fill="#977540"/><path d="m30.356 60.358c1.12-.01 1.914-.746 1.903-1.763-.01-.884-.867-1.629-1.917-1.662-.972-.033-1.82.919-1.829 2.052-.006.944.583 1.384 1.843 1.373m-8.746.207c1.035.012 2.048-.892 2.076-1.856.035-1.128-.784-1.775-2.138-1.862-.814-.052-1.785.757-1.858 1.903-.061.949.859 1.802 1.92 1.815m6.504-4.4.004-.087c.36 0 .721.006 1.08-.001 1.17-.022 2.343-.004 3.508-.088 1.154-.082 1.444-.31 1.528-1.441.127-1.726.151-3.463.149-5.195-.001-1.365-.512-1.971-1.933-2.078-3.847-.294-7.704-.623-11.536.193-.842.179-1.023.285-1.042 1.097-.044 1.822-.069 3.649-.023 5.47.028 1.114.517 1.607 1.673 1.703 2.193.181 4.395.289 6.592.427m-1.216-10.194c2.43 0 4.86-.001 7.29.002.359 0 .719 0 1.079.026.377.026.566.253.534.623-.043.486-.13.969-.16 1.455-.043.666-.097 1.336-.066 2.001.136 2.951-.39 5.842-.763 8.747-.018.132-.032.265-.044.398-.137 1.495-.124 1.6-1.677 1.771-2.137.235-4.293.375-6.443.404-2.065.027-4.132-.138-6.198-.223-.224-.01-.45-.031-.67-.071-1.912-.345-2.032-.479-2.128-2.375-.168-3.373-.345-6.745-.487-10.119-.022-.521.058-1.067.199-1.572.259-.921.451-1.052 1.435-1.06 1.845-.018 3.69-.005 5.534-.005h2.565z" fill="#ed1c24"/><path d="m49.565 32.785c.643 0 1.226.015 1.808-.003 1.055-.032 1.332-.266 1.583-1.269.116-.463.108-1.096.412-1.336.319-.252.944-.155 1.435-.157 4.548-.012 9.096-.01 13.644-.022.674-.002 1.347-.056 2.021-.083.442-.017.671.189.678.634.024 1.557.052 3.115.076 4.672.009.483-.227.76-.718.778-.711.026-1.421.038-2.132.042-.495.003-.99-.026-1.485-.026-5.313.003-10.627.009-15.94.014-.27 0-.539.002-.81.003-.391.002-.57-.206-.572-.577-.002-.837 0-1.674 0-2.67" fill="#72592e"/><path d="m41.246 56.157v8.538c0 .311-.016.623-.001.933.027.586-.286.795-.831.771-.134-.006-.269 0-.404 0-1.799.002-3.597.015-5.397.003-1.206-.007-1.281-.051-1.438-1.251-.11-.835-.111-1.684-.158-2.528-.023-.409.131-.686.578-.746.132-.018.26-.076.392-.094 1.316-.182 1.471-.369 1.726-1.958.162-1.007.252-2.027.33-3.045.039-.487.209-.755.73-.724.089.006.18.006.27.004 1.732-.048 1.741-.049 1.736-1.703-.005-1.511-.007-3.023-.06-4.535-.04-1.136-.231-1.316-1.383-1.609-.723-.187-.723-.187-.689-1.004.049-1.139.11-1.208 1.237-1.239.899-.024 1.799-.022 2.698-.043.443-.01.674.175.67.625-.003.312.006.623.006.934.001 2.891 0 5.78 0 8.671z" fill="#c89a57"/><path d="m16.798 46.019c-.158.889-.261 1.632-.438 2.359-.048.196-.296.388-.5.489-.233.116-.526.102-.779.188-1.029.349-1.286.675-1.277 1.766.01 1.242.086 2.484.117 3.728.025.926.535 1.667 1.605 1.508.175-.026.359.004.539.005.383.001.559.192.586.569.069.977.225 1.951.216 2.925-.009.982.34 1.684 1.294 1.924.799.201.916.646.867 1.355-.064.93-.011 1.869-.017 2.803-.006.752-.019.794-.709.802-1.845.021-3.691.025-5.536.008-.713-.006-.76-.061-.768-.78-.015-1.424.003-2.85.005-4.273.005-4.673.007-9.346.015-14.019.002-1.374.009-1.389 1.428-1.4 1.109-.01 2.219.026 3.352.043" fill="#c89a57"/><path d="m26.756 42.502c-3.604 0-7.208-.01-10.812.006-1.034.004-2.068.102-3.102.111-.738.007-.771-.057-.821-.744-.004-.045-.002-.09-.002-.133-.002-2.154-.105-1.796 1.769-1.791 8.423.019 16.847.027 25.271.038.225.001.453-.023.676.003.477.057.949.138 1.424.209.019.659.056 1.32.039 1.979-.003.102-.242.261-.39.285-.308.05-.628.03-.943.03-4.37.001-8.739.001-13.109.001z" fill="#4b8cca"/><path d="m26.571 45.105h-13.101c-.314 0-.63.001-.944.003-.332.002-.49-.17-.498-.488-.006-.222.004-.445-.009-.667-.028-.489.175-.762.693-.759.18.002.36-.001.54-.001 8.869.007 17.737.014 26.606.021.135 0 .27-.003.405.002.959.03 1.006.077.995.973-.011.856-.048.917-.911.918-3.152.007-6.303-.001-9.454-.003-1.441-.001-2.882 0-4.322.001" fill="#30a1db"/><path d="m30.399 66.388c-2.011.032-2.004.032-2.192-1.949-.041-.439-.152-.871-.215-1.31-.059-.404.049-.691.535-.73.981-.077 1.961-.175 2.942-.263.499-.045.736.169.764.678.056 1.017.146 2.033.234 3.048.029.343-.155.505-.454.519-.538.025-1.076.007-1.614.007" fill="#58595b"/><path d="m23.626 64.413c0 .222-.002.444 0 .666.015 1.383-.041 1.446-1.411 1.352-.309-.021-.611-.129-.919-.184-1.645-.296-1.66-.294-1.647-1.98.006-.702.091-1.403.14-2.104.653.005 1.307.002 1.961.017 2.028.047 1.848.014 1.863 1.832.001.134 0 .267 0 .401z" fill="#58595b"/><path d="m48.54 40.667c0 .752.004 1.504-.002 2.256-.003.387-.203.549-.601.505-.576-.066-1.152-.128-1.729-.153-.382-.015-.608-.174-.616-.539-.032-1.46-.061-2.919-.042-4.379.002-.18.29-.36.452-.535.023-.023.087-.006.131-.012 2.271-.318 2.425-.187 2.421 2.061v.796z" fill="#e36a5a"/><path d="m24.386 64.444c0-.295-.001-.472 0-.65.014-1.433.014-1.434 1.524-1.4.225.005.473-.04.668.04.215.089.517.272.545.451.154.964.233 1.938.34 2.908.042.38-.122.59-.511.62-.089.007-.18.013-.269.01-.717-.023-1.566.184-2.116-.126-.713-.402-.002-1.303-.181-1.853" fill="#c89a57"/><path d="m14.456 51.94c0-.352-.016-.708.003-1.059.042-.79.34-1.121 1.096-1.255.533-.092.773.055.809.577.096 1.408.192 2.817.236 4.227.024.768-.124.884-.794.918-.809.04-1.021-.08-1.12-.77-.123-.874-.192-1.755-.284-2.631.018-.002.036-.005.054-.007" fill="#ed1c24"/><path d="m6.986 55.175c.15 0 .241-.011.329.002.468.062.934.132 1.401.197.016.746.053 1.491.022 2.235-.004.106-.327.263-.517.286-.398.047-.807.044-1.208.015-.564-.042-1.126-.123-1.69-.188-.029-.745-.091-1.491-.061-2.233.005-.141.366-.36.58-.38.395-.04.802.04 1.144.066" fill="#e36a5a"/><path d="m38.034 52.393c0 .751.019 1.503-.005 2.255-.023.73-.204.864-1.014.842-.629-.017-.71-.097-.678-.834.073-1.633.167-3.265.245-4.897.019-.396.118-.685.603-.686.474-.002.787.146.787.669.001.884.001 1.768.001 2.651z" fill="#ed1c24"/><path d="m5.212 49.638c0-.311-.006-.622.001-.933.022-.989.726-1.494 1.666-1.143.175.065.334.401.345.621.049.931.034 1.865.054 2.797.009.442-.231.652-.635.716-.221.035-.448.027-.671.052-.489.052-.776-.103-.758-.644.017-.488.004-.978.004-1.466z" fill="#e36a5a"/><path d="m48.536 50.221c0 .617.025 1.236-.017 1.851-.011.16-.226.432-.349.434-.234.002-.502-.114-.691-.262-.103-.081-.084-.327-.097-.5-.068-.877-.121-1.756-.198-2.632-.037-.429.021-.778.475-.979.545-.24.851-.089.878.502.025.527.006 1.057.006 1.586z" fill="#e36a5a"/><path d="m64.47 46.866c.015 0 .03-.001.044-.001 0-2.002.012-4.003-.005-6.006-.007-.719-.054-.733-.781-.714-.629.015-1.258.044-1.888.046-2.43.011-4.859.008-7.288.027-1.078.008-1.113.035-1.115 1.004-.006 3.737-.002 7.472.014 11.209.005.933.032.938 1.025.933 2.97-.016 5.939-.037 8.908-.058.225-.001.45.003.674-.01.445-.023.614-.256.597-.7-.074-1.909-.125-3.82-.185-5.73m-11.842-.259c0-2-.012-3.999.004-5.999.009-1.127.103-1.225 1.238-1.221 3.461.013 6.923.038 10.383.077 1.127.013 1.257.125 1.25 1.224-.025 3.953-.08 7.907-.123 11.86-.001.089-.019.177-.02.266-.007.386.141.961-.052 1.113-.298.234-.828.236-1.261.238-3.056.016-6.114.005-9.17.002-.18 0-.359-.005-.539-.011-1.598-.049-1.703-.15-1.715-1.682-.008-1.067-.001-2.133-.001-3.2v-2.667z" fill="#231f20"/><path d="m27.973 51.555h-.045c0 .979-.019 1.959.006 2.937.018.695.074.752.808.757 1.125.008 2.253.011 3.376-.062 1.181-.079 1.287-.22 1.307-1.381.022-1.424.03-2.848.022-4.274-.005-1.123-.149-1.347-1.276-1.453-1.117-.107-2.25-.084-3.373-.072-.769.008-.804.065-.821.877-.019.89-.004 1.781-.004 2.671m-.805.011h.123c0-.891-.002-1.78 0-2.669.003-.816-.042-.888-.928-.892-1.704-.009-3.408-.078-5.098.291-.522.116-.675.349-.673.8.009 1.558-.001 3.116.039 4.673.021.812.243 1.096 1 1.163 1.614.14 3.233.202 4.849.303.541.033.7-.247.693-.733-.015-.978-.005-1.957-.005-2.936m.946 4.599c-2.197-.139-4.399-.246-6.592-.427-1.156-.096-1.645-.59-1.673-1.702-.045-1.823-.021-3.649.023-5.471.019-.811.2-.918 1.042-1.097 3.832-.816 7.689-.487 11.536-.194 1.421.109 1.932.713 1.933 2.08.002 1.731-.022 3.468-.149 5.194-.084 1.131-.374 1.359-1.528 1.442-1.165.084-2.338.065-3.508.088-.359.007-.72.001-1.08.001z" fill="#231f20"/><path d="m22.891 58.698c.021-.471-.186-.728-.7-.786-.353-.039-.714-.023-1.072-.02-.495.005-.716.272-.738.749-.033.702.39 1.161 1.122 1.197.741.036 1.358-.47 1.388-1.14m-1.28 1.866c-1.062-.011-1.981-.864-1.921-1.813.073-1.146 1.043-1.957 1.857-1.904 1.355.087 2.175.733 2.14 1.862-.03.963-1.042 1.867-2.076 1.855" fill="#231f20"/><path d="m30.347 57.848c-.705-.008-1.071.354-1.058 1.049.008.483.281.694.913.711.721.021 1.197-.329 1.248-.913.046-.523-.365-.84-1.103-.847m.009 2.51c-1.259.011-1.849-.429-1.842-1.373.008-1.132.856-2.085 1.828-2.053 1.05.033 1.908.778 1.917 1.663.011 1.017-.783 1.753-1.903 1.763" fill="#231f20"/><path d="m55.177 47.216c-.031.001-.061.003-.092.005.057 1.244.099 2.487.175 3.731.066 1.089.207 1.255 1.285 1.24 1.976-.028 3.953-.101 5.928-.19.872-.038.969-.186.961-1.076-.019-1.958-.032-3.915-.063-5.872-.009-.576-.065-1.152-.112-1.728-.062-.772-.519-1.273-1.263-1.34-1.609-.144-3.224-.243-4.837-.259-.61-.006-1.235.231-1.828.429-.185.062-.413.364-.406.548.055 1.504.162 3.009.252 4.512m9.293-.349c.059 1.91.111 3.82.185 5.73.018.444-.152.675-.596.7-.225.012-.45.009-.675.01-2.969.02-5.939.041-8.907.057-.995.006-1.021 0-1.025-.932-.016-3.737-.02-7.474-.015-11.21.002-.969.037-.997 1.115-1.003 2.429-.019 4.858-.016 7.287-.028.63-.003 1.259-.031 1.889-.046.728-.018.774-.005.78.715.018 2.001.006 4.003.006 6.006-.015 0-.028.001-.044.001" fill="#edcb87"/><path d="m27.168 51.566c0 .979-.01 1.957.005 2.936.006.486-.151.767-.693.734-1.616-.102-3.236-.163-4.848-.305-.758-.066-.98-.349-1.001-1.162-.04-1.557-.03-3.116-.038-4.673-.003-.451.149-.685.672-.799 1.69-.369 3.394-.301 5.097-.292.888.005.932.075.93.892-.003.889-.001 1.779-.001 2.669z" fill="#78c8ef"/><path d="m27.973 51.555c0-.89-.015-1.781.004-2.671.017-.812.052-.869.821-.877 1.123-.012 2.256-.035 3.373.072 1.127.106 1.271.33 1.276 1.453.008 1.426 0 2.85-.022 4.274-.02 1.161-.126 1.302-1.307 1.381-1.123.073-2.251.07-3.376.062-.734-.005-.79-.062-.808-.757-.025-.978-.006-1.958-.006-2.937z" fill="#78c8ef"/><path d="m22.891 58.698c-.03.67-.647 1.176-1.388 1.14-.732-.036-1.155-.495-1.122-1.197.022-.477.243-.744.738-.749.358-.003.719-.019 1.072.02.514.058.721.315.7.786" fill="#ffdd18"/><path d="m30.347 57.848c.738.007 1.149.324 1.103.847-.051.584-.527.934-1.248.913-.632-.017-.905-.228-.913-.711-.013-.695.353-1.057 1.058-1.049" fill="#ffdd18"/><path d="m62.615 47.423h-.059c0-1.111.042-2.223-.011-3.331-.05-1.039-.343-1.301-1.402-1.416-.759-.083-1.522-.182-2.283-.175-.849.009-1.698.116-2.544.206-.457.048-.671.245-.641.792.096 1.729.105 3.46.154 5.191.017.622.015 1.246.08 1.864.081.755.188.872.908.859 1.705-.031 3.409-.121 5.113-.166.534-.015.692-.286.688-.76-.01-1.021-.003-2.043-.003-3.064m-7.438-.207c-.091-1.503-.197-3.008-.253-4.512-.007-.184.223-.486.406-.548.594-.198 1.218-.435 1.829-.429 1.614.016 3.229.115 4.836.26.745.066 1.201.567 1.264 1.339.048.576.103 1.152.112 1.728.031 1.957.043 3.914.062 5.872.009.89-.088 1.038-.96 1.076-1.975.089-3.952.162-5.929.19-1.077.015-1.218-.151-1.284-1.24-.075-1.244-.118-2.488-.175-3.731.03-.002.062-.004.092-.005" fill="#231f20"/><path d="m62.615 47.423c0 1.021-.007 2.043.003 3.064.004.474-.154.745-.688.76-1.704.045-3.408.135-5.113.166-.72.013-.827-.104-.908-.859-.065-.618-.063-1.242-.08-1.864-.049-1.731-.058-3.462-.154-5.191-.03-.547.184-.744.641-.792.846-.09 1.695-.197 2.544-.206.761-.007 1.524.092 2.283.175 1.059.115 1.352.377 1.402 1.416.053 1.108.011 2.22.011 3.331z" fill="#78c8ef"/><path d="m26.382 11.263v-.002c.268 0 .539.025.802-.006.38-.046.531-.457.302-.764-.349-.472-1.318-.698-1.883-.47-.418.171-.421.493-.376.845.042.342.288.405.581.398.191-.004.383-.001.574-.001m5.278 10.776c.631-.173.902-.491.888-1.089-.049-2.069-.139-4.11-.994-6.071-.505-1.16-1.362-1.724-2.585-2.223 1.725 3.007 2.204 6.178 2.691 9.383m-2.699-.211c.129.062.361.195.609.286 1.225.454 1.426.285 1.298-1.011-.214-2.149-.858-4.198-1.491-6.247-.325-1.05-.922-1.932-1.952-2.471-.532-.277-.704-.227-.747.334-.045.573-.028 1.15-.079 1.723-.044.489.171.785.575 1.027.728.439 1.438.909 2.154 1.366.375.239.686.51.564 1.022-.308 1.298-.61 2.598-.931 3.971m-7.42.262c.653-.215 1.091-.356 1.529-.505.351-.118.371-.329.189-.619-.367-.584-.751-1.162-1.07-1.771-.296-.563-.232-.773.237-1.205.622-.574 1.246-1.148 1.888-1.702.523-.45 1.257-.771 1.56-1.327.302-.559.187-1.339.256-2.021.01-.115.079-.262.03-.336-.107-.166-.262-.406-.416-.419-.926-.078-1.788.063-2.315.955-.273.461-.589.905-.799 1.393-.66 1.527-.991 3.139-1.08 4.792-.047.866-.009 1.738-.009 2.765m7.427-3.952c.113-.429-.096-.625-.38-.804-.589-.37-1.186-.735-1.745-1.148-.455-.335-.841-.303-1.245.051-.842.736-1.684 1.473-2.533 2.202-.261.224-.233.456-.078.713.317.528.638 1.054.949 1.585.197.333.477.436.868.447.77.023 1.539.104 2.305.181.71.071 1.203-.207 1.391-.928.202-.777.324-1.573.468-2.299m-6.069-5.319c-2.74.984-3.907 3.06-4.798 5.37-.04.106-.042.227-.052.341-.063.726-.142 1.45-.181 2.179-.06 1.164.226 1.49 1.414 1.61.384.039.775.015 1.163.01.381-.004.562-.222.577-.579.017-.421.023-.844.021-1.266-.008-1.737.188-3.449.762-5.097.286-.818.678-1.6 1.094-2.568m7.448 11.48c.005-.04.01-.082.015-.122.543 0 1.09.042 1.627-.009 1.626-.153 2.871-1.237 3.068-2.668.032-.237-.048-.684-.15-.705-.264-.058-.606.003-.85.135-.219.12-.341.404-.518.607-1.307 1.49-2.289 1.998-4.509 1.175-.903-.335-1.841-.606-2.785-.79-.552-.106-1.168-.067-1.724.055-.903.199-1.781.515-2.668.789-2.163.665-4.05.28-5.592-1.43-.181-.2-.351-.409-.541-.6-.311-.312-.672-.366-1.055-.142-.386.224-.503.623-.259 1.106.189.373.404.773.716 1.036 1.704 1.446 3.623 2.182 5.896 1.555.523-.144 1.039-.311 1.566-.438 1.675-.406 3.329-.573 5.029.015.858.296 1.82.297 2.734.431m-13.204-3.255c.02-.325.059-.651.057-.976-.024-3.642 2.395-7.446 6.429-8.455.691-.172 1.133-.376.999-1.192-.081-.494.27-.797.711-.92.605-.168 1.219-.185 1.824.064.573.238 1.046.566 1.046 1.237.001.529.281.745.736.874 2.856.81 3.81 3.031 4.224 5.626.132.832.166 1.678.252 2.516.012.109.068.214.108.338.311-.073.605-.165.906-.208.909-.128 1.586.55 1.459 1.445-.256 1.801-1.324 2.971-3.154 3.415-1.657.403-3.37.41-4.944-.117-2.171-.728-4.22-.436-6.259.243-2.236.744-4.198.181-6.08-.976-.81-.499-1.389-1.216-1.719-2.115-.258-.706-.085-1.234.559-1.699.617-.446 1.232-.449 1.799.064.306.278.531.643.794.97.084-.046.168-.09.253-.134" fill="#231f20"/><path d="m30.347 24.299c-.914-.135-1.876-.136-2.734-.431-1.701-.588-3.355-.421-5.029-.015-.527.127-1.043.295-1.566.438-2.273.627-4.191-.109-5.897-1.554-.311-.263-.526-.665-.715-1.038-.244-.482-.128-.88.259-1.106.383-.222.744-.169 1.055.143.19.191.36.401.541.601 1.542 1.71 3.428 2.095 5.592 1.428.887-.273 1.765-.589 2.668-.788.556-.122 1.172-.161 1.724-.055.944.183 1.882.455 2.784.79 2.221.823 3.203.315 4.511-1.176.176-.201.298-.486.518-.606.243-.133.584-.193.849-.136.102.023.182.47.149.706-.197 1.431-1.442 2.516-3.067 2.668-.537.051-1.084.009-1.627.009-.005.04-.01.082-.015.122" fill="#ed1c24"/><path d="m22.899 12.82c-.416.967-.808 1.749-1.094 2.567-.574 1.648-.77 3.36-.762 5.097.002.422-.004.845-.021 1.266-.015.357-.196.575-.577.579-.388.005-.779.029-1.163-.01-1.188-.12-1.474-.446-1.414-1.61.039-.728.118-1.453.181-2.179.01-.114.012-.235.052-.34.891-2.311 2.058-4.387 4.798-5.37" fill="#ed1c24"/><path d="m28.967 18.139c-.144.724-.265 1.522-.467 2.299-.187.719-.681.998-1.391.926-.767-.077-1.535-.157-2.305-.18-.392-.011-.67-.113-.867-.447-.313-.531-.632-1.057-.95-1.585-.155-.256-.183-.49.078-.713.849-.73 1.692-1.466 2.534-2.203.404-.353.79-.385 1.244-.05.559.414 1.155.778 1.745 1.148.285.178.494.374.379.805" fill="#ffdd18"/><path d="m21.541 22.091c0-1.027-.039-1.9.009-2.767.089-1.652.42-3.264 1.081-4.791.21-.488.525-.932.797-1.392.528-.893 1.39-1.034 2.317-.957.153.014.308.255.416.42.048.074-.02.221-.032.336-.068.682.048 1.462-.255 2.021-.303.556-1.037.877-1.56 1.327-.641.554-1.265 1.128-1.887 1.702-.47.432-.534.642-.239 1.205.32.609.704 1.187 1.072 1.771.182.291.161.501-.19.619-.437.149-.876.29-1.529.506" fill="#ed1c24"/><path d="m28.961 21.828c.321-1.373.623-2.673.931-3.971.122-.513-.188-.783-.564-1.022-.717-.457-1.425-.927-2.154-1.366-.404-.242-.619-.538-.575-1.026.051-.573.035-1.151.079-1.724.043-.561.215-.611.747-.334 1.03.538 1.627 1.422 1.952 2.471.633 2.049 1.277 4.098 1.491 6.247.128 1.295-.073 1.465-1.298 1.012-.248-.092-.48-.226-.609-.287" fill="#ed1c24"/><path d="m31.66 22.04c-.487-3.205-.966-6.378-2.691-9.384 1.223.5 2.08 1.064 2.586 2.224.855 1.96.944 4.001.993 6.071.014.597-.257.914-.888 1.089" fill="#ed1c24"/><path d="m26.382 11.263c-.191 0-.383-.003-.574.001-.293.007-.539-.056-.581-.398-.045-.352-.042-.674.376-.845.565-.228 1.534-.002 1.883.47.229.307.078.718-.302.764-.263.031-.534.006-.802.006z" fill="#ed1c24"/><path d="m26.009 16.67v.132c-.898.726-1.741 1.518-2.544 2.346.484.552 1.026 1.053 1.618 1.49.243-.209.2-.598.067-.89-.131-.292-.333-.567-.348-.886-.039-.855 1.236-1.338 1.207-2.192" fill="#fff"/><path d="m29.791 15.275c.732.894 1.396 1.886 1.637 3.012.241 1.125-.015 2.411-.884 3.174-.781.686-1.901.842-2.944.802-1.042-.04-2.082-.246-3.121-.161-.208.017-.481.128-.437.331.014.062.058.113.101.162 2.09 2.284 5.596 2.735 8.668 2.221.765-.128 1.272-1.112 1.919-1.534.649-.422 1.156-1.121 1.164-1.888.007-.767-.334-.747-1.109-.773-1.065-.039-1.753 1.167-2.78 1.445-.164-.692.478-1.301.656-1.989.137-.529-.009-1.085-.155-1.612-.658-2.382-1.509-5.015-3.7-6.199-.316-.17-.675-.327-.834-.646-.17-.341-.05-.749-.082-1.128-.053-.653-.986-1.559-1.672-1.164-.412.238-.408 1.693-.594 2.12 1.488 1.203 2.944 2.333 4.167 3.827" fill="#3b2314" opacity=".2"/><path d="m19.063 20.386c.073.338.307.757.645.667.295-.078.342-.466.333-.769-.056-1.946.002-3.975.391-5.889-1.199 1.789-1.833 3.843-1.369 5.991" fill="#fff"/><path d="m36.394 34.686c1.829.337 3.671.711 5.364 1.476.386.176.78.385 1.014.736.231.349.269.785.3 1.201.743 9.785 1.485 19.571 2.228 29.355 1.097-.055 2.195-.111 3.294-.167l.082-2.896c.008-.33.026-.683.228-.947.267-.347.758-.417 1.197-.455 4.565-.4 9.17-.358 13.727.127-4.423-7.247-8.145-15.277-8.184-23.742-.004-.809.044-1.672.522-2.326.703-.958 2.067-1.137 3.262-1.08 1.195.056 2.455.252 3.54-.25-1.879-2.153-3.758-4.306-5.636-6.461-1.606.108-3.212.214-4.818.321.125-.715-.503-1.39-1.209-1.59s-1.458-.052-2.179.093c-10.052 2.023-20.264 3.271-30.513 3.727-2.727.122-5.444.263-8.164.46 1.267-.791 3.694-.202 5.142-.115 2.367.141 4.732.333 7.092.573 4.595.467 9.17 1.121 13.711 1.96" fill="#3b2314" opacity=".2"/><path d="m22.124 46.665c2.001.588 4.033 1.394 5.421 2.935 1.288 1.431 1.881 3.328 2.406 5.17 1.135 3.977 2.067 8.457.025 12.061 3.787.126 7.588-.13 11.322-.765.43-8.902.516-17.821.259-26.728-4.46 2.9-9.913 3.788-15.184 4.611-3.31.517-6.79 1.409-10.133 1.524 1.934.122 4 1.192 5.884 1.192" fill="#3b2314" opacity=".2"/><path d="m22.076 53.317c.014.168.037.353.166.465.094.081.226.103.351.122 1.157.169 2.314.338 3.471.508-1.572-.231-2.793-2.779-4.134-3.449-.017.778.082 1.572.146 2.354" fill="#fff"/></g></svg>