<?xml version="1.0" encoding="UTF-8" standalone="no"?><!DOCTYPE svg PUBLIC "-//W3C//DTD SVG 1.1//EN" "http://www.w3.org/Graphics/SVG/1.1/DTD/svg11.dtd"><svg width="100%" height="100%" viewBox="0 0 73 68" version="1.1" xmlns="http://www.w3.org/2000/svg" xmlns:xlink="http://www.w3.org/1999/xlink" xml:space="preserve" xmlns:serif="http://www.serif.com/" style="fill-rule:evenodd;clip-rule:evenodd;stroke-miterlimit:10;"><g><path d="M42.971,22.076c0,9.35 -7.66,16.928 -17.111,16.928c-9.449,0 -17.11,-7.578 -17.11,-16.928c0,-9.349 7.661,-16.927 17.11,-16.927c9.451,0 17.111,7.578 17.111,16.927" style="fill:#fff;fill-rule:nonzero;"/><path d="M42.971,22.077c0,9.342 -7.667,16.927 -17.111,16.927c-9.443,0 -17.11,-7.585 -17.11,-16.927c0,-9.343 7.667,-16.928 17.11,-16.928c9.444,0 17.111,7.585 17.111,16.928Z" style="fill:none;stroke:#ed1c24;stroke-width:0.99px;"/><path d="M48.536,50.221l0.007,0c0,-0.529 0.019,-1.059 -0.006,-1.586c-0.027,-0.591 -0.333,-0.742 -0.878,-0.502c-0.454,0.201 -0.512,0.55 -0.475,0.979c0.077,0.876 0.13,1.755 0.198,2.632c0.013,0.173 -0.006,0.419 0.097,0.5c0.189,0.148 0.457,0.264 0.691,0.262c0.123,-0.002 0.338,-0.274 0.349,-0.434c0.042,-0.615 0.017,-1.234 0.017,-1.851m-43.325,-0.583l0.006,0c0,0.488 0.013,0.978 -0.003,1.466c-0.018,0.541 0.269,0.696 0.758,0.644c0.224,-0.025 0.451,-0.017 0.672,-0.052c0.403,-0.063 0.643,-0.274 0.633,-0.716c-0.019,-0.932 -0.004,-1.866 -0.052,-2.796c-0.012,-0.221 -0.171,-0.558 -0.346,-0.623c-0.94,-0.35 -1.644,0.155 -1.667,1.144c-0.007,0.311 -0.001,0.622 -0.001,0.933m32.823,2.755l-0.062,0c0,-0.883 0.001,-1.768 0,-2.651c-0.001,-0.524 -0.313,-0.671 -0.786,-0.669c-0.487,0.001 -0.586,0.29 -0.605,0.686c-0.077,1.631 -0.171,3.264 -0.243,4.896c-0.033,0.738 0.048,0.818 0.676,0.835c0.81,0.022 0.993,-0.112 1.015,-0.842c0.023,-0.752 0.005,-1.504 0.005,-2.255m-31.048,2.781c-0.342,-0.025 -0.75,-0.105 -1.144,-0.066c-0.214,0.021 -0.575,0.24 -0.58,0.381c-0.031,0.742 0.031,1.488 0.062,2.232c0.563,0.066 1.124,0.148 1.69,0.19c0.401,0.028 0.809,0.031 1.207,-0.016c0.19,-0.023 0.512,-0.18 0.517,-0.287c0.031,-0.743 -0.007,-1.488 -0.021,-2.234c-0.467,-0.066 -0.935,-0.135 -1.402,-0.198c-0.088,-0.012 -0.179,-0.002 -0.329,-0.002m7.47,-3.234c-0.018,0.002 -0.036,0.005 -0.054,0.007c0.092,0.877 0.16,1.757 0.285,2.631c0.097,0.69 0.31,0.81 1.119,0.77c0.67,-0.034 0.818,-0.15 0.795,-0.918c-0.044,-1.41 -0.141,-2.819 -0.237,-4.227c-0.036,-0.522 -0.276,-0.669 -0.809,-0.577c-0.757,0.134 -1.053,0.465 -1.095,1.254c-0.019,0.352 -0.004,0.707 -0.004,1.06m9.929,12.503c0.18,0.551 -0.53,1.452 0.182,1.853c0.551,0.311 1.4,0.105 2.116,0.126c0.09,0.003 0.18,-0.003 0.27,-0.009c0.389,-0.03 0.551,-0.241 0.509,-0.621c-0.106,-0.97 -0.185,-1.943 -0.338,-2.907c-0.029,-0.179 -0.331,-0.363 -0.546,-0.451c-0.195,-0.08 -0.443,-0.036 -0.667,-0.041c-1.51,-0.033 -1.51,-0.032 -1.525,1.4c-0.002,0.179 -0.001,0.356 -0.001,0.65m24.155,-23.776l0.014,0l0,-0.796c0.004,-2.248 -0.149,-2.379 -2.422,-2.061c-0.043,0.005 -0.107,-0.011 -0.13,0.012c-0.162,0.175 -0.45,0.355 -0.452,0.535c-0.019,1.461 0.01,2.919 0.042,4.378c0.008,0.366 0.234,0.525 0.616,0.54c0.577,0.025 1.154,0.087 1.729,0.153c0.398,0.044 0.598,-0.119 0.601,-0.505c0.006,-0.752 0.002,-1.504 0.002,-2.256m-24.913,23.746l-0.014,0c0,-0.134 0.001,-0.267 0,-0.401c-0.016,-1.818 0.165,-1.785 -1.864,-1.832c-0.653,-0.015 -1.307,-0.012 -1.96,-0.017c-0.05,0.701 -0.134,1.402 -0.14,2.104c-0.014,1.687 0.002,1.685 1.647,1.98c0.308,0.055 0.61,0.163 0.92,0.184c1.368,0.094 1.425,0.031 1.411,-1.352c-0.002,-0.222 0,-0.444 0,-0.666m6.771,1.975c0.539,0 1.077,0.017 1.614,-0.007c0.301,-0.014 0.485,-0.176 0.455,-0.519c-0.087,-1.016 -0.177,-2.031 -0.234,-3.048c-0.028,-0.51 -0.265,-0.723 -0.763,-0.678c-0.981,0.087 -1.962,0.186 -2.943,0.263c-0.486,0.039 -0.594,0.326 -0.535,0.73c0.062,0.439 0.174,0.871 0.216,1.31c0.187,1.981 0.181,1.981 2.19,1.949m-3.826,-21.284c1.44,0 2.881,-0.001 4.321,0c3.151,0.002 6.302,0.01 9.453,0.004c0.864,-0.002 0.901,-0.062 0.912,-0.919c0.011,-0.896 -0.036,-0.943 -0.995,-0.973c-0.135,-0.005 -0.27,-0.002 -0.405,-0.002c-8.869,-0.006 -17.737,-0.013 -26.606,-0.021c-0.179,0 -0.36,0.003 -0.54,0.001c-0.519,-0.003 -0.721,0.27 -0.692,0.759c0.013,0.221 0.003,0.445 0.008,0.667c0.009,0.318 0.165,0.491 0.497,0.489c0.316,-0.002 0.631,-0.004 0.946,-0.004c4.367,0 8.734,0 13.101,-0.001m0.185,-2.602l0,-0.006c4.369,0 8.739,0 13.109,-0.001c0.314,0 0.634,0.019 0.942,-0.03c0.147,-0.024 0.387,-0.183 0.389,-0.285c0.018,-0.659 -0.019,-1.32 -0.038,-1.979c-0.474,-0.071 -0.948,-0.152 -1.425,-0.209c-0.222,-0.026 -0.45,-0.002 -0.674,-0.003c-8.425,-0.011 -16.848,-0.019 -25.273,-0.039c-1.873,-0.004 -1.769,-0.362 -1.767,1.791c0,0.045 -0.002,0.09 0.002,0.133c0.049,0.688 0.082,0.752 0.82,0.745c1.035,-0.008 2.068,-0.108 3.103,-0.112c3.603,-0.015 7.207,-0.005 10.812,-0.005m-9.959,3.517c-1.133,-0.016 -2.244,-0.053 -3.352,-0.044c-1.42,0.011 -1.426,0.028 -1.428,1.4c-0.008,4.673 -0.01,9.347 -0.015,14.02c-0.002,1.424 -0.02,2.848 -0.005,4.272c0.008,0.72 0.055,0.775 0.768,0.781c1.845,0.017 3.691,0.013 5.536,-0.008c0.69,-0.008 0.703,-0.049 0.709,-0.802c0.006,-0.935 -0.047,-1.872 0.017,-2.803c0.048,-0.708 -0.068,-1.153 -0.867,-1.354c-0.954,-0.242 -1.304,-0.943 -1.294,-1.925c0.009,-0.974 -0.147,-1.949 -0.216,-2.924c-0.027,-0.379 -0.203,-0.569 -0.586,-0.57c-0.181,-0.001 -0.364,-0.031 -0.539,-0.005c-1.07,0.159 -1.58,-0.581 -1.605,-1.508c-0.031,-1.243 -0.107,-2.486 -0.117,-3.729c-0.009,-1.091 0.248,-1.415 1.277,-1.766c0.253,-0.085 0.546,-0.072 0.779,-0.187c0.204,-0.101 0.452,-0.293 0.5,-0.489c0.177,-0.726 0.28,-1.469 0.438,-2.359m24.448,10.138l0.013,0l0,-8.67c0,-0.313 -0.01,-0.624 -0.007,-0.935c0.005,-0.451 -0.227,-0.635 -0.67,-0.624c-0.899,0.02 -1.798,0.018 -2.698,0.042c-1.126,0.031 -1.187,0.1 -1.237,1.239c-0.035,0.817 -0.035,0.817 0.69,1.003c1.15,0.295 1.342,0.474 1.382,1.611c0.053,1.51 0.055,3.023 0.06,4.534c0.005,1.653 -0.004,1.654 -1.736,1.703c-0.09,0.002 -0.18,0.002 -0.269,-0.003c-0.522,-0.031 -0.692,0.236 -0.73,0.722c-0.08,1.018 -0.169,2.038 -0.331,3.046c-0.255,1.589 -0.409,1.777 -1.726,1.958c-0.132,0.019 -0.26,0.076 -0.392,0.093c-0.447,0.061 -0.601,0.339 -0.578,0.748c0.046,0.843 0.047,1.691 0.158,2.526c0.158,1.2 0.232,1.246 1.438,1.253c1.799,0.011 3.598,-0.001 5.397,-0.003c0.134,0 0.27,-0.006 0.404,0c0.544,0.022 0.858,-0.186 0.831,-0.772c-0.014,-0.31 0.001,-0.621 0.001,-0.934l0,-8.537Zm8.319,-23.372c0,0.996 -0.002,1.833 0,2.67c0.002,0.371 0.181,0.579 0.572,0.577c0.27,-0.001 0.54,-0.003 0.81,-0.003c5.314,-0.005 10.627,-0.011 15.94,-0.014c0.495,0 0.99,0.029 1.485,0.026c0.711,-0.004 1.421,-0.016 2.131,-0.042c0.492,-0.018 0.728,-0.295 0.72,-0.778c-0.025,-1.557 -0.053,-3.115 -0.078,-4.672c-0.007,-0.445 -0.235,-0.651 -0.677,-0.634c-0.673,0.027 -1.347,0.081 -2.022,0.083c-4.547,0.012 -9.095,0.01 -13.642,0.022c-0.492,0.002 -1.117,-0.095 -1.436,0.157c-0.304,0.24 -0.296,0.873 -0.412,1.336c-0.251,1.003 -0.528,1.237 -1.583,1.269c-0.582,0.018 -1.165,0.003 -1.808,0.003m-22.667,13.186l0,0.002l-2.565,0c-1.844,0 -3.689,-0.013 -5.534,0.004c-0.984,0.009 -1.176,0.14 -1.435,1.062c-0.141,0.504 -0.221,1.05 -0.199,1.571c0.142,3.374 0.319,6.746 0.488,10.119c0.094,1.895 0.216,2.03 2.126,2.376c0.221,0.039 0.447,0.061 0.671,0.07c2.066,0.085 4.133,0.251 6.198,0.223c2.15,-0.029 4.306,-0.169 6.443,-0.405c1.553,-0.17 1.54,-0.274 1.677,-1.77c0.012,-0.133 0.026,-0.266 0.043,-0.398c0.374,-2.905 0.9,-5.796 0.764,-8.748c-0.031,-0.664 0.023,-1.334 0.065,-2c0.031,-0.486 0.118,-0.969 0.161,-1.455c0.032,-0.37 -0.157,-0.597 -0.534,-0.623c-0.36,-0.026 -0.72,-0.026 -1.079,-0.026c-2.43,-0.003 -4.86,-0.002 -7.29,-0.002m-0.42,-14.008l0,-0.03c7.658,0 15.316,0.003 22.974,-0.006c0.802,-0.001 1.603,-0.077 2.404,-0.117c0.067,-0.827 0.176,-1.653 0.188,-2.48c0.016,-1.121 -0.017,-1.125 -1.099,-1.152c-0.495,-0.011 -0.991,-0.01 -1.486,-0.01c-6.307,-0.002 -12.614,0.016 -18.919,-0.008c-9.234,-0.038 -18.468,-0.108 -27.701,-0.165c-0.405,-0.002 -0.811,-0.006 -1.216,-0.021c-0.443,-0.015 -0.668,0.166 -0.662,0.625c0.011,0.757 -0.01,1.514 0.005,2.271c0.021,1.051 0.074,1.093 1.187,1.093c8.108,0.001 16.216,0 24.325,0m41.577,17.942l0.03,0c0,-2.76 -0.014,-5.52 0.006,-8.279c0.01,-1.334 0.095,-2.667 0.121,-4.002c0.015,-0.74 -0.033,-0.772 -0.726,-0.813c-0.269,-0.017 -0.54,-0.005 -0.81,-0.005c-4.592,-0.001 -9.184,-0.001 -13.776,-0.003c-0.855,0 -1.711,-0.023 -2.566,-0.001c-0.698,0.018 -0.73,0.071 -0.769,0.791c-0.012,0.222 -0.002,0.445 -0.002,0.668c0.005,7.789 0.009,15.578 0.013,23.367c0.001,0.266 -0.001,0.534 0.006,0.8c0.01,0.388 0.231,0.55 0.606,0.544c0.225,-0.004 0.45,-0.003 0.675,-0.003c4.907,-0.007 9.814,-0.01 14.721,-0.019c0.585,-0.001 1.17,-0.027 1.755,-0.02c0.523,0.007 0.726,-0.251 0.71,-0.741c-0.01,-0.311 0.005,-0.624 0.005,-0.935c0.001,-3.783 0.001,-7.566 0.001,-11.349m-19.498,-17.123l-1.134,0c-13.603,0 -27.208,-0.001 -40.81,-0.001c-0.271,0 -0.541,0.006 -0.811,0.008c-0.389,0.003 -0.571,0.202 -0.572,0.58c-0.001,0.356 -0.011,0.712 -0.011,1.069c-0.002,3.429 -0.011,6.858 0.004,10.288c0.002,0.607 0.105,1.214 0.162,1.822c0.572,0.028 1.143,0.075 1.715,0.081c0.905,0.008 1.072,0.145 1.098,1.103c0.024,0.889 0.009,1.78 0.003,2.671c-0.013,1.728 -0.128,1.844 -1.934,1.949c-0.09,0.006 -0.181,-0.004 -0.27,0.005c-0.643,0.075 -0.807,0.312 -0.788,1.131c0.015,0.65 0.093,0.759 0.805,0.76c0.944,0.001 1.887,-0.066 2.832,-0.097c0.702,-0.021 0.927,0.141 0.949,0.808c0.034,1.024 0.013,2.049 0.008,3.073c-0.002,0.419 -0.245,0.665 -0.653,0.717c-0.444,0.057 -0.896,0.087 -1.346,0.103c-0.628,0.02 -1.258,0.022 -1.887,0.022c-0.512,0 -0.707,0.254 -0.718,0.747c-0.045,2.002 -0.125,4.004 -0.163,6.007c-0.015,0.78 0.042,0.825 0.844,0.838c1.307,0.021 2.613,0.011 3.919,0.007c1.406,-0.005 1.411,-0.009 1.407,-1.38c-0.027,-8.015 -0.055,-16.033 -0.089,-24.049c-0.002,-0.444 -0.086,-0.886 -0.092,-1.33c-0.008,-0.573 0.253,-0.75 0.858,-0.672c0.53,0.067 1.065,0.141 1.598,0.136c3.332,-0.034 6.664,-0.115 9.996,-0.132c5.495,-0.029 10.991,-0.021 16.486,-0.028c0.316,0 0.633,-0.02 0.945,0.018c0.96,0.113 1.302,0.501 1.34,1.486c0.01,0.267 0.003,0.534 0.004,0.802c0.005,7.17 0.012,14.34 0.018,21.51c0.001,0.846 -0.01,1.692 0.007,2.539c0.019,0.969 0.032,0.999 0.973,1.029c1.486,0.044 2.973,0.059 4.459,0.058c0.78,0 0.826,-0.042 0.829,-0.862c0.015,-3.874 0.015,-7.75 0.006,-11.623c-0.001,-0.733 -0.029,-0.733 -0.837,-0.838c-0.974,-0.126 -1.035,-0.188 -1.073,-1.151c-0.038,-0.977 -0.035,-1.957 -0.113,-2.932c-0.081,-0.988 0.068,-1.262 1.028,-1.534c0.987,-0.281 0.989,-0.281 0.999,-1.308c0.004,-0.401 -0.015,-0.803 0.003,-1.203c0.022,-0.475 -0.165,-0.78 -0.661,-0.826c-0.623,-0.058 -1.247,-0.108 -1.872,-0.129c-0.839,-0.026 -0.983,-0.051 -1.042,-0.869c-0.121,-1.684 -0.174,-3.375 -0.182,-5.064c-0.003,-0.749 0.318,-0.985 1.125,-1.023c0.584,-0.028 1.171,0.014 1.756,0.001c0.802,-0.018 0.856,-0.051 0.875,-0.826c0.026,-1.11 0.007,-2.219 0.007,-3.491m-22.228,-5.605c8.061,0 16.122,-0.004 24.183,0.008c0.529,0.001 1.076,0.058 1.58,0.206c0.546,0.159 1.126,0.365 1.025,1.164c-0.051,0.398 0.273,0.509 0.628,0.509c0.36,0.001 0.72,0.014 1.081,0.014c5.492,-0.003 10.985,0.001 16.477,-0.023c0.539,-0.002 0.749,0.187 0.747,0.676c-0.007,2.004 -0.021,4.008 -0.029,6.011c-0.002,0.547 -0.348,0.787 -0.817,0.915c-0.129,0.034 -0.27,0.016 -0.402,0.035c-0.61,0.09 -1.466,-0.017 -1.761,0.334c-0.303,0.363 -0.058,1.172 -0.057,1.786c0.011,5.254 0.021,10.508 0.031,15.762c0.005,2.494 0.015,4.987 0.014,7.481c-0.001,1.41 -0.299,1.73 -1.737,1.737c-3.107,0.017 -6.215,0 -9.322,-0.002c-2.387,-0.001 -4.774,-0.004 -7.161,0c-1.221,0.002 -1.221,0.008 -1.235,1.265c-0.003,0.401 0.022,0.804 -0.014,1.202c-0.074,0.824 -0.319,1.059 -1.193,1.151c-0.402,0.041 -0.81,0.037 -1.215,0.038c-9.366,0.007 -18.732,0.026 -28.099,0.009c-4.411,-0.008 -8.822,-0.086 -13.232,-0.134c-0.181,-0.002 -0.361,-0.005 -0.54,-0.008c-0.899,-0.013 -1.097,0.037 -1.092,-1.149c0.028,-5.788 -0.016,-11.576 -0.027,-17.364c-0.009,-4.757 -0.008,-9.513 -0.011,-14.271c0,-0.222 0.003,-0.445 -0.002,-0.667c-0.023,-1.052 -0.024,-1.056 -1.032,-1.079c-0.586,-0.014 -1.171,0.004 -1.756,-0.017c-0.802,-0.029 -1.149,-0.252 -1.188,-0.965c-0.074,-1.332 -0.065,-2.669 -0.05,-4.003c0.002,-0.148 0.25,-0.384 0.417,-0.418c0.481,-0.099 0.978,-0.15 1.471,-0.156c1.711,-0.029 3.422,-0.039 5.133,-0.04c6.395,-0.005 12.791,-0.002 19.185,-0.002l0,-0.005Z" style="fill:#231f20;fill-rule:nonzero;"/><path d="M48.556,32.782c0,1.272 0.02,2.381 -0.007,3.491c-0.018,0.775 -0.072,0.808 -0.874,0.826c-0.586,0.012 -1.172,-0.029 -1.756,-0.001c-0.807,0.039 -1.129,0.274 -1.125,1.023c0.007,1.689 0.061,3.379 0.182,5.063c0.058,0.818 0.204,0.844 1.042,0.87c0.625,0.021 1.25,0.071 1.873,0.129c0.494,0.046 0.681,0.351 0.659,0.826c-0.018,0.4 0.002,0.801 -0.002,1.203c-0.011,1.028 -0.012,1.028 -1,1.308c-0.958,0.272 -1.108,0.546 -1.028,1.534c0.08,0.975 0.077,1.956 0.115,2.932c0.036,0.963 0.097,1.025 1.071,1.151c0.809,0.105 0.836,0.105 0.838,0.837c0.008,3.875 0.008,7.75 -0.007,11.624c-0.002,0.821 -0.048,0.862 -0.828,0.862c-1.486,0.001 -2.972,-0.015 -4.458,-0.058c-0.943,-0.03 -0.955,-0.06 -0.974,-1.029c-0.017,-0.847 -0.006,-1.693 -0.007,-2.539c-0.006,-7.17 -0.012,-14.34 -0.018,-21.51c0,-0.268 0.006,-0.535 -0.004,-0.802c-0.037,-0.985 -0.381,-1.373 -1.34,-1.486c-0.311,-0.039 -0.63,-0.018 -0.945,-0.018c-5.496,0.007 -10.991,-0.001 -16.486,0.028c-3.333,0.017 -6.664,0.098 -9.997,0.132c-0.531,0.006 -1.067,-0.069 -1.597,-0.137c-0.605,-0.077 -0.866,0.1 -0.857,0.673c0.006,0.444 0.089,0.886 0.09,1.33c0.035,8.016 0.062,16.034 0.089,24.049c0.005,1.371 -0.001,1.375 -1.406,1.38c-1.306,0.005 -2.613,0.013 -3.918,-0.007c-0.803,-0.013 -0.859,-0.058 -0.844,-0.838c0.037,-2.003 0.116,-4.004 0.162,-6.007c0.011,-0.492 0.207,-0.746 0.718,-0.746c0.629,0 1.258,-0.002 1.887,-0.023c0.45,-0.016 0.901,-0.045 1.347,-0.103c0.407,-0.052 0.65,-0.298 0.652,-0.717c0.006,-1.025 0.026,-2.05 -0.007,-3.073c-0.022,-0.667 -0.249,-0.829 -0.95,-0.808c-0.944,0.031 -1.888,0.098 -2.833,0.097c-0.712,-0.001 -0.789,-0.111 -0.804,-0.76c-0.019,-0.818 0.145,-1.056 0.788,-1.131c0.09,-0.009 0.18,0.001 0.27,-0.004c1.805,-0.106 1.921,-0.222 1.934,-1.951c0.006,-0.89 0.021,-1.781 -0.003,-2.67c-0.026,-0.958 -0.194,-1.095 -1.097,-1.104c-0.572,-0.005 -1.145,-0.052 -1.716,-0.081c-0.057,-0.607 -0.16,-1.214 -0.162,-1.821c-0.015,-3.43 -0.006,-6.859 -0.003,-10.288c0,-0.357 0.009,-0.713 0.011,-1.069c0.001,-0.378 0.183,-0.576 0.571,-0.579c0.27,-0.003 0.54,-0.009 0.81,-0.009c13.604,0 27.207,0.001 40.811,0.001l1.133,0Z" style="fill:#ebb56e;fill-rule:nonzero;"/><path d="M52.628,46.607l-0.005,0l0,2.668c0,1.066 -0.007,2.132 0.001,3.2c0.01,1.532 0.117,1.631 1.713,1.681c0.18,0.006 0.361,0.011 0.54,0.011c3.057,0.003 6.113,0.013 9.171,-0.002c0.431,-0.002 0.962,-0.004 1.259,-0.238c0.195,-0.153 0.045,-0.728 0.052,-1.113c0.001,-0.088 0.019,-0.177 0.02,-0.266c0.044,-3.953 0.099,-7.907 0.124,-11.861c0.007,-1.098 -0.124,-1.21 -1.249,-1.223c-3.462,-0.038 -6.923,-0.064 -10.383,-0.077c-1.136,-0.004 -1.23,0.094 -1.24,1.22c-0.014,2.001 -0.003,4.001 -0.003,6m15.426,3.298c0,3.783 0.001,7.566 0,11.349c0,0.311 -0.015,0.625 -0.005,0.935c0.015,0.49 -0.187,0.748 -0.71,0.741c-0.584,-0.007 -1.171,0.019 -1.755,0.02c-4.907,0.008 -9.814,0.013 -14.721,0.019c-0.225,0 -0.45,-0.001 -0.675,0.003c-0.376,0.006 -0.597,-0.156 -0.607,-0.544c-0.006,-0.266 -0.004,-0.534 -0.005,-0.8c-0.004,-7.789 -0.009,-15.578 -0.013,-23.368c0,-0.222 -0.01,-0.445 0.001,-0.667c0.039,-0.72 0.072,-0.772 0.771,-0.791c0.854,-0.022 1.71,0.001 2.565,0.001c4.592,0.002 9.184,0.002 13.776,0.003c0.27,0 0.54,-0.012 0.81,0.005c0.693,0.041 0.74,0.074 0.727,0.813c-0.026,1.334 -0.113,2.668 -0.122,4.001c-0.02,2.76 -0.006,5.52 -0.006,8.28l-0.031,0Z" style="fill:#c89a57;fill-rule:nonzero;"/><path d="M26.478,31.963c-8.108,0 -16.217,0.001 -24.325,0c-1.113,0 -1.166,-0.042 -1.187,-1.092c-0.015,-0.758 0.006,-1.515 -0.005,-2.272c-0.006,-0.459 0.219,-0.64 0.662,-0.625c0.405,0.015 0.811,0.02 1.216,0.022c9.233,0.056 18.467,0.127 27.701,0.164c6.305,0.025 12.612,0.006 18.919,0.008c0.495,0 0.991,-0.001 1.486,0.01c1.082,0.027 1.115,0.031 1.099,1.152c-0.012,0.827 -0.121,1.653 -0.188,2.48c-0.801,0.04 -1.602,0.116 -2.404,0.117c-7.658,0.009 -15.316,0.006 -22.974,0.006l0,0.03Z" style="fill:#977540;fill-rule:nonzero;"/><path d="M30.356,60.358c1.12,-0.01 1.914,-0.746 1.903,-1.763c-0.01,-0.884 -0.867,-1.629 -1.917,-1.662c-0.972,-0.033 -1.82,0.919 -1.829,2.052c-0.006,0.944 0.583,1.384 1.843,1.373m-8.746,0.207c1.035,0.012 2.048,-0.892 2.076,-1.856c0.035,-1.128 -0.784,-1.775 -2.138,-1.862c-0.814,-0.052 -1.785,0.757 -1.858,1.903c-0.061,0.949 0.859,1.802 1.92,1.815m6.504,-4.4l0.004,-0.087c0.36,0 0.721,0.006 1.08,-0.001c1.17,-0.022 2.343,-0.004 3.508,-0.088c1.154,-0.082 1.444,-0.31 1.528,-1.441c0.127,-1.726 0.151,-3.463 0.149,-5.195c-0.001,-1.365 -0.512,-1.971 -1.933,-2.078c-3.847,-0.294 -7.704,-0.623 -11.536,0.193c-0.842,0.179 -1.023,0.285 -1.042,1.097c-0.044,1.822 -0.069,3.649 -0.023,5.47c0.028,1.114 0.517,1.607 1.673,1.703c2.193,0.181 4.395,0.289 6.592,0.427m-1.216,-10.194c2.43,0 4.86,-0.001 7.29,0.002c0.359,0 0.719,0 1.079,0.026c0.377,0.026 0.566,0.253 0.534,0.623c-0.043,0.486 -0.13,0.969 -0.16,1.455c-0.043,0.666 -0.097,1.336 -0.066,2.001c0.136,2.951 -0.39,5.842 -0.763,8.747c-0.018,0.132 -0.032,0.265 -0.044,0.398c-0.137,1.495 -0.124,1.6 -1.677,1.771c-2.137,0.235 -4.293,0.375 -6.443,0.404c-2.065,0.027 -4.132,-0.138 -6.198,-0.223c-0.224,-0.01 -0.45,-0.031 -0.67,-0.071c-1.912,-0.345 -2.032,-0.479 -2.128,-2.375c-0.168,-3.373 -0.345,-6.745 -0.487,-10.119c-0.022,-0.521 0.058,-1.067 0.199,-1.572c0.259,-0.921 0.451,-1.052 1.435,-1.06c1.845,-0.018 3.69,-0.005 5.534,-0.005l2.565,0l0,-0.002Z" style="fill:#ed1c24;fill-rule:nonzero;"/><path d="M49.565,32.785c0.643,0 1.226,0.015 1.808,-0.003c1.055,-0.032 1.332,-0.266 1.583,-1.269c0.116,-0.463 0.108,-1.096 0.412,-1.336c0.319,-0.252 0.944,-0.155 1.435,-0.157c4.548,-0.012 9.096,-0.01 13.644,-0.022c0.674,-0.002 1.347,-0.056 2.021,-0.083c0.442,-0.017 0.671,0.189 0.678,0.634c0.024,1.557 0.052,3.115 0.076,4.672c0.009,0.483 -0.227,0.76 -0.718,0.778c-0.711,0.026 -1.421,0.038 -2.132,0.042c-0.495,0.003 -0.99,-0.026 -1.485,-0.026c-5.313,0.003 -10.627,0.009 -15.94,0.014c-0.27,0 -0.539,0.002 -0.81,0.003c-0.391,0.002 -0.57,-0.206 -0.572,-0.577c-0.002,-0.837 0,-1.674 0,-2.67" style="fill:#72592e;fill-rule:nonzero;"/><path d="M41.246,56.157l0,8.538c0,0.311 -0.016,0.623 -0.001,0.933c0.027,0.586 -0.286,0.795 -0.831,0.771c-0.134,-0.006 -0.269,0 -0.404,0c-1.799,0.002 -3.597,0.015 -5.397,0.003c-1.206,-0.007 -1.281,-0.051 -1.438,-1.251c-0.11,-0.835 -0.111,-1.684 -0.158,-2.528c-0.023,-0.409 0.131,-0.686 0.578,-0.746c0.132,-0.018 0.26,-0.076 0.392,-0.094c1.316,-0.182 1.471,-0.369 1.726,-1.958c0.162,-1.007 0.252,-2.027 0.33,-3.045c0.039,-0.487 0.209,-0.755 0.73,-0.724c0.089,0.006 0.18,0.006 0.27,0.004c1.732,-0.048 1.741,-0.049 1.736,-1.703c-0.005,-1.511 -0.007,-3.023 -0.06,-4.535c-0.04,-1.136 -0.231,-1.316 -1.383,-1.609c-0.723,-0.187 -0.723,-0.187 -0.689,-1.004c0.049,-1.139 0.11,-1.208 1.237,-1.239c0.899,-0.024 1.799,-0.022 2.698,-0.043c0.443,-0.01 0.674,0.175 0.67,0.625c-0.003,0.312 0.006,0.623 0.006,0.934c0.001,2.891 0,5.78 0,8.671l-0.012,0Z" style="fill:#c89a57;fill-rule:nonzero;"/><path d="M16.798,46.019c-0.158,0.889 -0.261,1.632 -0.438,2.359c-0.048,0.196 -0.296,0.388 -0.5,0.489c-0.233,0.116 -0.526,0.102 -0.779,0.188c-1.029,0.349 -1.286,0.675 -1.277,1.766c0.01,1.242 0.086,2.484 0.117,3.728c0.025,0.926 0.535,1.667 1.605,1.508c0.175,-0.026 0.359,0.004 0.539,0.005c0.383,0.001 0.559,0.192 0.586,0.569c0.069,0.977 0.225,1.951 0.216,2.925c-0.009,0.982 0.34,1.684 1.294,1.924c0.799,0.201 0.916,0.646 0.867,1.355c-0.064,0.93 -0.011,1.869 -0.017,2.803c-0.006,0.752 -0.019,0.794 -0.709,0.802c-1.845,0.021 -3.691,0.025 -5.536,0.008c-0.713,-0.006 -0.76,-0.061 -0.768,-0.78c-0.015,-1.424 0.003,-2.85 0.005,-4.273c0.005,-4.673 0.007,-9.346 0.015,-14.019c0.002,-1.374 0.009,-1.389 1.428,-1.4c1.109,-0.01 2.219,0.026 3.352,0.043" style="fill:#c89a57;fill-rule:nonzero;"/><path d="M26.756,42.502c-3.604,0 -7.208,-0.01 -10.812,0.006c-1.034,0.004 -2.068,0.102 -3.102,0.111c-0.738,0.007 -0.771,-0.057 -0.821,-0.744c-0.004,-0.045 -0.002,-0.09 -0.002,-0.133c-0.002,-2.154 -0.105,-1.796 1.769,-1.791c8.423,0.019 16.847,0.027 25.271,0.038c0.225,0.001 0.453,-0.023 0.676,0.003c0.477,0.057 0.949,0.138 1.424,0.209c0.019,0.659 0.056,1.32 0.039,1.979c-0.003,0.102 -0.242,0.261 -0.39,0.285c-0.308,0.05 -0.628,0.03 -0.943,0.03c-4.37,0.001 -8.739,0.001 -13.109,0.001l0,0.006Z" style="fill:#4b8cca;fill-rule:nonzero;"/><path d="M26.571,45.105l-13.101,0c-0.314,0 -0.63,0.001 -0.944,0.003c-0.332,0.002 -0.49,-0.17 -0.498,-0.488c-0.006,-0.222 0.004,-0.445 -0.009,-0.667c-0.028,-0.489 0.175,-0.762 0.693,-0.759c0.18,0.002 0.36,-0.001 0.54,-0.001c8.869,0.007 17.737,0.014 26.606,0.021c0.135,0 0.27,-0.003 0.405,0.002c0.959,0.03 1.006,0.077 0.995,0.973c-0.011,0.856 -0.048,0.917 -0.911,0.918c-3.152,0.007 -6.303,-0.001 -9.454,-0.003c-1.441,-0.001 -2.882,0 -4.322,0.001" style="fill:#30a1db;fill-rule:nonzero;"/><path d="M30.399,66.388c-2.011,0.032 -2.004,0.032 -2.192,-1.949c-0.041,-0.439 -0.152,-0.871 -0.215,-1.31c-0.059,-0.404 0.049,-0.691 0.535,-0.73c0.981,-0.077 1.961,-0.175 2.942,-0.263c0.499,-0.045 0.736,0.169 0.764,0.678c0.056,1.017 0.146,2.033 0.234,3.048c0.029,0.343 -0.155,0.505 -0.454,0.519c-0.538,0.025 -1.076,0.007 -1.614,0.007" style="fill:#58595b;fill-rule:nonzero;"/><path d="M23.626,64.413c0,0.222 -0.002,0.444 0,0.666c0.015,1.383 -0.041,1.446 -1.411,1.352c-0.309,-0.021 -0.611,-0.129 -0.919,-0.184c-1.645,-0.296 -1.66,-0.294 -1.647,-1.98c0.006,-0.702 0.091,-1.403 0.14,-2.104c0.653,0.005 1.307,0.002 1.961,0.017c2.028,0.047 1.848,0.014 1.863,1.832c0.001,0.134 0,0.267 0,0.401l0.013,0Z" style="fill:#58595b;fill-rule:nonzero;"/><path d="M48.54,40.667c0,0.752 0.004,1.504 -0.002,2.256c-0.003,0.387 -0.203,0.549 -0.601,0.505c-0.576,-0.066 -1.152,-0.128 -1.729,-0.153c-0.382,-0.015 -0.608,-0.174 -0.616,-0.539c-0.032,-1.46 -0.061,-2.919 -0.042,-4.379c0.002,-0.18 0.29,-0.36 0.452,-0.535c0.023,-0.023 0.087,-0.006 0.131,-0.012c2.271,-0.318 2.425,-0.187 2.421,2.061l0,0.796l-0.014,0Z" style="fill:#e36a5a;fill-rule:nonzero;"/><path d="M24.386,64.444c0,-0.295 -0.001,-0.472 0,-0.65c0.014,-1.433 0.014,-1.434 1.524,-1.4c0.225,0.005 0.473,-0.04 0.668,0.04c0.215,0.089 0.517,0.272 0.545,0.451c0.154,0.964 0.233,1.938 0.34,2.908c0.042,0.38 -0.122,0.59 -0.511,0.62c-0.089,0.007 -0.18,0.013 -0.269,0.01c-0.717,-0.023 -1.566,0.184 -2.116,-0.126c-0.713,-0.402 -0.002,-1.303 -0.181,-1.853" style="fill:#c89a57;fill-rule:nonzero;"/><path d="M14.456,51.94c0,-0.352 -0.016,-0.708 0.003,-1.059c0.042,-0.79 0.34,-1.121 1.096,-1.255c0.533,-0.092 0.773,0.055 0.809,0.577c0.096,1.408 0.192,2.817 0.236,4.227c0.024,0.768 -0.124,0.884 -0.794,0.918c-0.809,0.04 -1.021,-0.08 -1.12,-0.77c-0.123,-0.874 -0.192,-1.755 -0.284,-2.631c0.018,-0.002 0.036,-0.005 0.054,-0.007" style="fill:#ed1c24;fill-rule:nonzero;"/><path d="M6.986,55.175c0.15,0 0.241,-0.011 0.329,0.002c0.468,0.062 0.934,0.132 1.401,0.197c0.016,0.746 0.053,1.491 0.022,2.235c-0.004,0.106 -0.327,0.263 -0.517,0.286c-0.398,0.047 -0.807,0.044 -1.208,0.015c-0.564,-0.042 -1.126,-0.123 -1.69,-0.188c-0.029,-0.745 -0.091,-1.491 -0.061,-2.233c0.005,-0.141 0.366,-0.36 0.58,-0.38c0.395,-0.04 0.802,0.04 1.144,0.066" style="fill:#e36a5a;fill-rule:nonzero;"/><path d="M38.034,52.393c0,0.751 0.019,1.503 -0.005,2.255c-0.023,0.73 -0.204,0.864 -1.014,0.842c-0.629,-0.017 -0.71,-0.097 -0.678,-0.834c0.073,-1.633 0.167,-3.265 0.245,-4.897c0.019,-0.396 0.118,-0.685 0.603,-0.686c0.474,-0.002 0.787,0.146 0.787,0.669c0.001,0.884 0.001,1.768 0.001,2.651l0.061,0Z" style="fill:#ed1c24;fill-rule:nonzero;"/><path d="M5.212,49.638c0,-0.311 -0.006,-0.622 0.001,-0.933c0.022,-0.989 0.726,-1.494 1.666,-1.143c0.175,0.065 0.334,0.401 0.345,0.621c0.049,0.931 0.034,1.865 0.054,2.797c0.009,0.442 -0.231,0.652 -0.635,0.716c-0.221,0.035 -0.448,0.027 -0.671,0.052c-0.489,0.052 -0.776,-0.103 -0.758,-0.644c0.017,-0.488 0.004,-0.978 0.004,-1.466l-0.006,0Z" style="fill:#e36a5a;fill-rule:nonzero;"/><path d="M48.536,50.221c0,0.617 0.025,1.236 -0.017,1.851c-0.011,0.16 -0.226,0.432 -0.349,0.434c-0.234,0.002 -0.502,-0.114 -0.691,-0.262c-0.103,-0.081 -0.084,-0.327 -0.097,-0.5c-0.068,-0.877 -0.121,-1.756 -0.198,-2.632c-0.037,-0.429 0.021,-0.778 0.475,-0.979c0.545,-0.24 0.851,-0.089 0.878,0.502c0.025,0.527 0.006,1.057 0.006,1.586l-0.007,0Z" style="fill:#e36a5a;fill-rule:nonzero;"/><path d="M64.47,46.866c0.015,0 0.03,-0.001 0.044,-0.001c0,-2.002 0.012,-4.003 -0.005,-6.006c-0.007,-0.719 -0.054,-0.733 -0.781,-0.714c-0.629,0.015 -1.258,0.044 -1.888,0.046c-2.43,0.011 -4.859,0.008 -7.288,0.027c-1.078,0.008 -1.113,0.035 -1.115,1.004c-0.006,3.737 -0.002,7.472 0.014,11.209c0.005,0.933 0.032,0.938 1.025,0.933c2.97,-0.016 5.939,-0.037 8.908,-0.058c0.225,-0.001 0.45,0.003 0.674,-0.01c0.445,-0.023 0.614,-0.256 0.597,-0.7c-0.074,-1.909 -0.125,-3.82 -0.185,-5.73m-11.842,-0.259c0,-2 -0.012,-3.999 0.004,-5.999c0.009,-1.127 0.103,-1.225 1.238,-1.221c3.461,0.013 6.923,0.038 10.383,0.077c1.127,0.013 1.257,0.125 1.25,1.224c-0.025,3.953 -0.08,7.907 -0.123,11.86c-0.001,0.089 -0.019,0.177 -0.02,0.266c-0.007,0.386 0.141,0.961 -0.052,1.113c-0.298,0.234 -0.828,0.236 -1.261,0.238c-3.056,0.016 -6.114,0.005 -9.17,0.002c-0.18,0 -0.359,-0.005 -0.539,-0.011c-1.598,-0.049 -1.703,-0.15 -1.715,-1.682c-0.008,-1.067 -0.001,-2.133 -0.001,-3.2l0,-2.667l0.006,0Z" style="fill:#231f20;fill-rule:nonzero;"/><path d="M27.973,51.555l-0.045,0c0,0.979 -0.019,1.959 0.006,2.937c0.018,0.695 0.074,0.752 0.808,0.757c1.125,0.008 2.253,0.011 3.376,-0.062c1.181,-0.079 1.287,-0.22 1.307,-1.381c0.022,-1.424 0.03,-2.848 0.022,-4.274c-0.005,-1.123 -0.149,-1.347 -1.276,-1.453c-1.117,-0.107 -2.25,-0.084 -3.373,-0.072c-0.769,0.008 -0.804,0.065 -0.821,0.877c-0.019,0.89 -0.004,1.781 -0.004,2.671m-0.805,0.011l0.123,0c0,-0.891 -0.002,-1.78 0,-2.669c0.003,-0.816 -0.042,-0.888 -0.928,-0.892c-1.704,-0.009 -3.408,-0.078 -5.098,0.291c-0.522,0.116 -0.675,0.349 -0.673,0.8c0.009,1.558 -0.001,3.116 0.039,4.673c0.021,0.812 0.243,1.096 1,1.163c1.614,0.14 3.233,0.202 4.849,0.303c0.541,0.033 0.7,-0.247 0.693,-0.733c-0.015,-0.978 -0.005,-1.957 -0.005,-2.936m0.946,4.599c-2.197,-0.139 -4.399,-0.246 -6.592,-0.427c-1.156,-0.096 -1.645,-0.59 -1.673,-1.702c-0.045,-1.823 -0.021,-3.649 0.023,-5.471c0.019,-0.811 0.2,-0.918 1.042,-1.097c3.832,-0.816 7.689,-0.487 11.536,-0.194c1.421,0.109 1.932,0.713 1.933,2.08c0.002,1.731 -0.022,3.468 -0.149,5.194c-0.084,1.131 -0.374,1.359 -1.528,1.442c-1.165,0.084 -2.338,0.065 -3.508,0.088c-0.359,0.007 -0.72,0.001 -1.08,0.001l-0.004,0.086Z" style="fill:#231f20;fill-rule:nonzero;"/><path d="M22.891,58.698c0.021,-0.471 -0.186,-0.728 -0.7,-0.786c-0.353,-0.039 -0.714,-0.023 -1.072,-0.02c-0.495,0.005 -0.716,0.272 -0.738,0.749c-0.033,0.702 0.39,1.161 1.122,1.197c0.741,0.036 1.358,-0.47 1.388,-1.14m-1.28,1.866c-1.062,-0.011 -1.981,-0.864 -1.921,-1.813c0.073,-1.146 1.043,-1.957 1.857,-1.904c1.355,0.087 2.175,0.733 2.14,1.862c-0.03,0.963 -1.042,1.867 -2.076,1.855" style="fill:#231f20;fill-rule:nonzero;"/><path d="M30.347,57.848c-0.705,-0.008 -1.071,0.354 -1.058,1.049c0.008,0.483 0.281,0.694 0.913,0.711c0.721,0.021 1.197,-0.329 1.248,-0.913c0.046,-0.523 -0.365,-0.84 -1.103,-0.847m0.009,2.51c-1.259,0.011 -1.849,-0.429 -1.842,-1.373c0.008,-1.132 0.856,-2.085 1.828,-2.053c1.05,0.033 1.908,0.778 1.917,1.663c0.011,1.017 -0.783,1.753 -1.903,1.763" style="fill:#231f20;fill-rule:nonzero;"/><path d="M55.177,47.216c-0.031,0.001 -0.061,0.003 -0.092,0.005c0.057,1.244 0.099,2.487 0.175,3.731c0.066,1.089 0.207,1.255 1.285,1.24c1.976,-0.028 3.953,-0.101 5.928,-0.19c0.872,-0.038 0.969,-0.186 0.961,-1.076c-0.019,-1.958 -0.032,-3.915 -0.063,-5.872c-0.009,-0.576 -0.065,-1.152 -0.112,-1.728c-0.062,-0.772 -0.519,-1.273 -1.263,-1.34c-1.609,-0.144 -3.224,-0.243 -4.837,-0.259c-0.61,-0.006 -1.235,0.231 -1.828,0.429c-0.185,0.062 -0.413,0.364 -0.406,0.548c0.055,1.504 0.162,3.009 0.252,4.512m9.293,-0.349c0.059,1.91 0.111,3.82 0.185,5.73c0.018,0.444 -0.152,0.675 -0.596,0.7c-0.225,0.012 -0.45,0.009 -0.675,0.01c-2.969,0.02 -5.939,0.041 -8.907,0.057c-0.995,0.006 -1.021,0 -1.025,-0.932c-0.016,-3.737 -0.02,-7.474 -0.015,-11.21c0.002,-0.969 0.037,-0.997 1.115,-1.003c2.429,-0.019 4.858,-0.016 7.287,-0.028c0.63,-0.003 1.259,-0.031 1.889,-0.046c0.728,-0.018 0.774,-0.005 0.78,0.715c0.018,2.001 0.006,4.003 0.006,6.006c-0.015,0 -0.028,0.001 -0.044,0.001" style="fill:#edcb87;fill-rule:nonzero;"/><path d="M27.168,51.566c0,0.979 -0.01,1.957 0.005,2.936c0.006,0.486 -0.151,0.767 -0.693,0.734c-1.616,-0.102 -3.236,-0.163 -4.848,-0.305c-0.758,-0.066 -0.98,-0.349 -1.001,-1.162c-0.04,-1.557 -0.03,-3.116 -0.038,-4.673c-0.003,-0.451 0.149,-0.685 0.672,-0.799c1.69,-0.369 3.394,-0.301 5.097,-0.292c0.888,0.005 0.932,0.075 0.93,0.892c-0.003,0.889 -0.001,1.779 -0.001,2.669l-0.123,0Z" style="fill:#78c8ef;fill-rule:nonzero;"/><path d="M27.973,51.555c0,-0.89 -0.015,-1.781 0.004,-2.671c0.017,-0.812 0.052,-0.869 0.821,-0.877c1.123,-0.012 2.256,-0.035 3.373,0.072c1.127,0.106 1.271,0.33 1.276,1.453c0.008,1.426 0,2.85 -0.022,4.274c-0.02,1.161 -0.126,1.302 -1.307,1.381c-1.123,0.073 -2.251,0.07 -3.376,0.062c-0.734,-0.005 -0.79,-0.062 -0.808,-0.757c-0.025,-0.978 -0.006,-1.958 -0.006,-2.937l0.045,0Z" style="fill:#78c8ef;fill-rule:nonzero;"/><path d="M22.891,58.698c-0.03,0.67 -0.647,1.176 -1.388,1.14c-0.732,-0.036 -1.155,-0.495 -1.122,-1.197c0.022,-0.477 0.243,-0.744 0.738,-0.749c0.358,-0.003 0.719,-0.019 1.072,0.02c0.514,0.058 0.721,0.315 0.7,0.786" style="fill:#ffdd18;fill-rule:nonzero;"/><path d="M30.347,57.848c0.738,0.007 1.149,0.324 1.103,0.847c-0.051,0.584 -0.527,0.934 -1.248,0.913c-0.632,-0.017 -0.905,-0.228 -0.913,-0.711c-0.013,-0.695 0.353,-1.057 1.058,-1.049" style="fill:#ffdd18;fill-rule:nonzero;"/><path d="M62.615,47.423l-0.059,0c0,-1.111 0.042,-2.223 -0.011,-3.331c-0.05,-1.039 -0.343,-1.301 -1.402,-1.416c-0.759,-0.083 -1.522,-0.182 -2.283,-0.175c-0.849,0.009 -1.698,0.116 -2.544,0.206c-0.457,0.048 -0.671,0.245 -0.641,0.792c0.096,1.729 0.105,3.46 0.154,5.191c0.017,0.622 0.015,1.246 0.08,1.864c0.081,0.755 0.188,0.872 0.908,0.859c1.705,-0.031 3.409,-0.121 5.113,-0.166c0.534,-0.015 0.692,-0.286 0.688,-0.76c-0.01,-1.021 -0.003,-2.043 -0.003,-3.064m-7.438,-0.207c-0.091,-1.503 -0.197,-3.008 -0.253,-4.512c-0.007,-0.184 0.223,-0.486 0.406,-0.548c0.594,-0.198 1.218,-0.435 1.829,-0.429c1.614,0.016 3.229,0.115 4.836,0.26c0.745,0.066 1.201,0.567 1.264,1.339c0.048,0.576 0.103,1.152 0.112,1.728c0.031,1.957 0.043,3.914 0.062,5.872c0.009,0.89 -0.088,1.038 -0.96,1.076c-1.975,0.089 -3.952,0.162 -5.929,0.19c-1.077,0.015 -1.218,-0.151 -1.284,-1.24c-0.075,-1.244 -0.118,-2.488 -0.175,-3.731c0.03,-0.002 0.062,-0.004 0.092,-0.005" style="fill:#231f20;fill-rule:nonzero;"/><path d="M62.615,47.423c0,1.021 -0.007,2.043 0.003,3.064c0.004,0.474 -0.154,0.745 -0.688,0.76c-1.704,0.045 -3.408,0.135 -5.113,0.166c-0.72,0.013 -0.827,-0.104 -0.908,-0.859c-0.065,-0.618 -0.063,-1.242 -0.08,-1.864c-0.049,-1.731 -0.058,-3.462 -0.154,-5.191c-0.03,-0.547 0.184,-0.744 0.641,-0.792c0.846,-0.09 1.695,-0.197 2.544,-0.206c0.761,-0.007 1.524,0.092 2.283,0.175c1.059,0.115 1.352,0.377 1.402,1.416c0.053,1.108 0.011,2.22 0.011,3.331l0.059,0Z" style="fill:#78c8ef;fill-rule:nonzero;"/><path d="M26.382,11.263l0,-0.002c0.268,0 0.539,0.025 0.802,-0.006c0.38,-0.046 0.531,-0.457 0.302,-0.764c-0.349,-0.472 -1.318,-0.698 -1.883,-0.47c-0.418,0.171 -0.421,0.493 -0.376,0.845c0.042,0.342 0.288,0.405 0.581,0.398c0.191,-0.004 0.383,-0.001 0.574,-0.001m5.278,10.776c0.631,-0.173 0.902,-0.491 0.888,-1.089c-0.049,-2.069 -0.139,-4.11 -0.994,-6.071c-0.505,-1.16 -1.362,-1.724 -2.585,-2.223c1.725,3.007 2.204,6.178 2.691,9.383m-2.699,-0.211c0.129,0.062 0.361,0.195 0.609,0.286c1.225,0.454 1.426,0.285 1.298,-1.011c-0.214,-2.149 -0.858,-4.198 -1.491,-6.247c-0.325,-1.05 -0.922,-1.932 -1.952,-2.471c-0.532,-0.277 -0.704,-0.227 -0.747,0.334c-0.045,0.573 -0.028,1.15 -0.079,1.723c-0.044,0.489 0.171,0.785 0.575,1.027c0.728,0.439 1.438,0.909 2.154,1.366c0.375,0.239 0.686,0.51 0.564,1.022c-0.308,1.298 -0.61,2.598 -0.931,3.971m-7.42,0.262c0.653,-0.215 1.091,-0.356 1.529,-0.505c0.351,-0.118 0.371,-0.329 0.189,-0.619c-0.367,-0.584 -0.751,-1.162 -1.07,-1.771c-0.296,-0.563 -0.232,-0.773 0.237,-1.205c0.622,-0.574 1.246,-1.148 1.888,-1.702c0.523,-0.45 1.257,-0.771 1.56,-1.327c0.302,-0.559 0.187,-1.339 0.256,-2.021c0.01,-0.115 0.079,-0.262 0.03,-0.336c-0.107,-0.166 -0.262,-0.406 -0.416,-0.419c-0.926,-0.078 -1.788,0.063 -2.315,0.955c-0.273,0.461 -0.589,0.905 -0.799,1.393c-0.66,1.527 -0.991,3.139 -1.08,4.792c-0.047,0.866 -0.009,1.738 -0.009,2.765m7.427,-3.952c0.113,-0.429 -0.096,-0.625 -0.38,-0.804c-0.589,-0.37 -1.186,-0.735 -1.745,-1.148c-0.455,-0.335 -0.841,-0.303 -1.245,0.051c-0.842,0.736 -1.684,1.473 -2.533,2.202c-0.261,0.224 -0.233,0.456 -0.078,0.713c0.317,0.528 0.638,1.054 0.949,1.585c0.197,0.333 0.477,0.436 0.868,0.447c0.77,0.023 1.539,0.104 2.305,0.181c0.71,0.071 1.203,-0.207 1.391,-0.928c0.202,-0.777 0.324,-1.573 0.468,-2.299m-6.069,-5.319c-2.74,0.984 -3.907,3.06 -4.798,5.37c-0.04,0.106 -0.042,0.227 -0.052,0.341c-0.063,0.726 -0.142,1.45 -0.181,2.179c-0.06,1.164 0.226,1.49 1.414,1.61c0.384,0.039 0.775,0.015 1.163,0.01c0.381,-0.004 0.562,-0.222 0.577,-0.579c0.017,-0.421 0.023,-0.844 0.021,-1.266c-0.008,-1.737 0.188,-3.449 0.762,-5.097c0.286,-0.818 0.678,-1.6 1.094,-2.568m7.448,11.48c0.005,-0.04 0.01,-0.082 0.015,-0.122c0.543,0 1.09,0.042 1.627,-0.009c1.626,-0.153 2.871,-1.237 3.068,-2.668c0.032,-0.237 -0.048,-0.684 -0.15,-0.705c-0.264,-0.058 -0.606,0.003 -0.85,0.135c-0.219,0.12 -0.341,0.404 -0.518,0.607c-1.307,1.49 -2.289,1.998 -4.509,1.175c-0.903,-0.335 -1.841,-0.606 -2.785,-0.79c-0.552,-0.106 -1.168,-0.067 -1.724,0.055c-0.903,0.199 -1.781,0.515 -2.668,0.789c-2.163,0.665 -4.05,0.28 -5.592,-1.43c-0.181,-0.2 -0.351,-0.409 -0.541,-0.6c-0.311,-0.312 -0.672,-0.366 -1.055,-0.142c-0.386,0.224 -0.503,0.623 -0.259,1.106c0.189,0.373 0.404,0.773 0.716,1.036c1.704,1.446 3.623,2.182 5.896,1.555c0.523,-0.144 1.039,-0.311 1.566,-0.438c1.675,-0.406 3.329,-0.573 5.029,0.015c0.858,0.296 1.82,0.297 2.734,0.431m-13.204,-3.255c0.02,-0.325 0.059,-0.651 0.057,-0.976c-0.024,-3.642 2.395,-7.446 6.429,-8.455c0.691,-0.172 1.133,-0.376 0.999,-1.192c-0.081,-0.494 0.27,-0.797 0.711,-0.92c0.605,-0.168 1.219,-0.185 1.824,0.064c0.573,0.238 1.046,0.566 1.046,1.237c0.001,0.529 0.281,0.745 0.736,0.874c2.856,0.81 3.81,3.031 4.224,5.626c0.132,0.832 0.166,1.678 0.252,2.516c0.012,0.109 0.068,0.214 0.108,0.338c0.311,-0.073 0.605,-0.165 0.906,-0.208c0.909,-0.128 1.586,0.55 1.459,1.445c-0.256,1.801 -1.324,2.971 -3.154,3.415c-1.657,0.403 -3.37,0.41 -4.944,-0.117c-2.171,-0.728 -4.22,-0.436 -6.259,0.243c-2.236,0.744 -4.198,0.181 -6.08,-0.976c-0.81,-0.499 -1.389,-1.216 -1.719,-2.115c-0.258,-0.706 -0.085,-1.234 0.559,-1.699c0.617,-0.446 1.232,-0.449 1.799,0.064c0.306,0.278 0.531,0.643 0.794,0.97c0.084,-0.046 0.168,-0.09 0.253,-0.134" style="fill:#231f20;fill-rule:nonzero;"/><path d="M30.347,24.299c-0.914,-0.135 -1.876,-0.136 -2.734,-0.431c-1.701,-0.588 -3.355,-0.421 -5.029,-0.015c-0.527,0.127 -1.043,0.295 -1.566,0.438c-2.273,0.627 -4.191,-0.109 -5.897,-1.554c-0.311,-0.263 -0.526,-0.665 -0.715,-1.038c-0.244,-0.482 -0.128,-0.88 0.259,-1.106c0.383,-0.222 0.744,-0.169 1.055,0.143c0.19,0.191 0.36,0.401 0.541,0.601c1.542,1.71 3.428,2.095 5.592,1.428c0.887,-0.273 1.765,-0.589 2.668,-0.788c0.556,-0.122 1.172,-0.161 1.724,-0.055c0.944,0.183 1.882,0.455 2.784,0.79c2.221,0.823 3.203,0.315 4.511,-1.176c0.176,-0.201 0.298,-0.486 0.518,-0.606c0.243,-0.133 0.584,-0.193 0.849,-0.136c0.102,0.023 0.182,0.47 0.149,0.706c-0.197,1.431 -1.442,2.516 -3.067,2.668c-0.537,0.051 -1.084,0.009 -1.627,0.009c-0.005,0.04 -0.01,0.082 -0.015,0.122" style="fill:#ed1c24;fill-rule:nonzero;"/><path d="M22.899,12.82c-0.416,0.967 -0.808,1.749 -1.094,2.567c-0.574,1.648 -0.77,3.36 -0.762,5.097c0.002,0.422 -0.004,0.845 -0.021,1.266c-0.015,0.357 -0.196,0.575 -0.577,0.579c-0.388,0.005 -0.779,0.029 -1.163,-0.01c-1.188,-0.12 -1.474,-0.446 -1.414,-1.61c0.039,-0.728 0.118,-1.453 0.181,-2.179c0.01,-0.114 0.012,-0.235 0.052,-0.34c0.891,-2.311 2.058,-4.387 4.798,-5.37" style="fill:#ed1c24;fill-rule:nonzero;"/><path d="M28.967,18.139c-0.144,0.724 -0.265,1.522 -0.467,2.299c-0.187,0.719 -0.681,0.998 -1.391,0.926c-0.767,-0.077 -1.535,-0.157 -2.305,-0.18c-0.392,-0.011 -0.67,-0.113 -0.867,-0.447c-0.313,-0.531 -0.632,-1.057 -0.95,-1.585c-0.155,-0.256 -0.183,-0.49 0.078,-0.713c0.849,-0.73 1.692,-1.466 2.534,-2.203c0.404,-0.353 0.79,-0.385 1.244,-0.05c0.559,0.414 1.155,0.778 1.745,1.148c0.285,0.178 0.494,0.374 0.379,0.805" style="fill:#ffdd18;fill-rule:nonzero;"/><path d="M21.541,22.091c0,-1.027 -0.039,-1.9 0.009,-2.767c0.089,-1.652 0.42,-3.264 1.081,-4.791c0.21,-0.488 0.525,-0.932 0.797,-1.392c0.528,-0.893 1.39,-1.034 2.317,-0.957c0.153,0.014 0.308,0.255 0.416,0.42c0.048,0.074 -0.02,0.221 -0.032,0.336c-0.068,0.682 0.048,1.462 -0.255,2.021c-0.303,0.556 -1.037,0.877 -1.56,1.327c-0.641,0.554 -1.265,1.128 -1.887,1.702c-0.47,0.432 -0.534,0.642 -0.239,1.205c0.32,0.609 0.704,1.187 1.072,1.771c0.182,0.291 0.161,0.501 -0.19,0.619c-0.437,0.149 -0.876,0.29 -1.529,0.506" style="fill:#ed1c24;fill-rule:nonzero;"/><path d="M28.961,21.828c0.321,-1.373 0.623,-2.673 0.931,-3.971c0.122,-0.513 -0.188,-0.783 -0.564,-1.022c-0.717,-0.457 -1.425,-0.927 -2.154,-1.366c-0.404,-0.242 -0.619,-0.538 -0.575,-1.026c0.051,-0.573 0.035,-1.151 0.079,-1.724c0.043,-0.561 0.215,-0.611 0.747,-0.334c1.03,0.538 1.627,1.422 1.952,2.471c0.633,2.049 1.277,4.098 1.491,6.247c0.128,1.295 -0.073,1.465 -1.298,1.012c-0.248,-0.092 -0.48,-0.226 -0.609,-0.287" style="fill:#ed1c24;fill-rule:nonzero;"/><path d="M31.66,22.04c-0.487,-3.205 -0.966,-6.378 -2.691,-9.384c1.223,0.5 2.08,1.064 2.586,2.224c0.855,1.96 0.944,4.001 0.993,6.071c0.014,0.597 -0.257,0.914 -0.888,1.089" style="fill:#ed1c24;fill-rule:nonzero;"/><path d="M26.382,11.263c-0.191,0 -0.383,-0.003 -0.574,0.001c-0.293,0.007 -0.539,-0.056 -0.581,-0.398c-0.045,-0.352 -0.042,-0.674 0.376,-0.845c0.565,-0.228 1.534,-0.002 1.883,0.47c0.229,0.307 0.078,0.718 -0.302,0.764c-0.263,0.031 -0.534,0.006 -0.802,0.006l0,0.002Z" style="fill:#ed1c24;fill-rule:nonzero;"/><path d="M26.009,16.67l0,0.132c-0.898,0.726 -1.741,1.518 -2.544,2.346c0.484,0.552 1.026,1.053 1.618,1.49c0.243,-0.209 0.2,-0.598 0.067,-0.89c-0.131,-0.292 -0.333,-0.567 -0.348,-0.886c-0.039,-0.855 1.236,-1.338 1.207,-2.192" style="fill:#fff;fill-rule:nonzero;"/><g opacity="0.2"><path d="M29.791,15.275c0.732,0.894 1.396,1.886 1.637,3.012c0.241,1.125 -0.015,2.411 -0.884,3.174c-0.781,0.686 -1.901,0.842 -2.944,0.802c-1.042,-0.04 -2.082,-0.246 -3.121,-0.161c-0.208,0.017 -0.481,0.128 -0.437,0.331c0.014,0.062 0.058,0.113 0.101,0.162c2.09,2.284 5.596,2.735 8.668,2.221c0.765,-0.128 1.272,-1.112 1.919,-1.534c0.649,-0.422 1.156,-1.121 1.164,-1.888c0.007,-0.767 -0.334,-0.747 -1.109,-0.773c-1.065,-0.039 -1.753,1.167 -2.78,1.445c-0.164,-0.692 0.478,-1.301 0.656,-1.989c0.137,-0.529 -0.009,-1.085 -0.155,-1.612c-0.658,-2.382 -1.509,-5.015 -3.7,-6.199c-0.316,-0.17 -0.675,-0.327 -0.834,-0.646c-0.17,-0.341 -0.05,-0.749 -0.082,-1.128c-0.053,-0.653 -0.986,-1.559 -1.672,-1.164c-0.412,0.238 -0.408,1.693 -0.594,2.12c1.488,1.203 2.944,2.333 4.167,3.827" style="fill:#3b2314;fill-rule:nonzero;"/></g><path d="M19.063,20.386c0.073,0.338 0.307,0.757 0.645,0.667c0.295,-0.078 0.342,-0.466 0.333,-0.769c-0.056,-1.946 0.002,-3.975 0.391,-5.889c-1.199,1.789 -1.833,3.843 -1.369,5.991" style="fill:#fff;fill-rule:nonzero;"/><g opacity="0.2"><path d="M36.394,34.686c1.829,0.337 3.671,0.711 5.364,1.476c0.386,0.176 0.78,0.385 1.014,0.736c0.231,0.349 0.269,0.785 0.3,1.201c0.743,9.785 1.485,19.571 2.228,29.355c1.097,-0.055 2.195,-0.111 3.294,-0.167l0.082,-2.896c0.008,-0.33 0.026,-0.683 0.228,-0.947c0.267,-0.347 0.758,-0.417 1.197,-0.455c4.565,-0.4 9.17,-0.358 13.727,0.127c-4.423,-7.247 -8.145,-15.277 -8.184,-23.742c-0.004,-0.809 0.044,-1.672 0.522,-2.326c0.703,-0.958 2.067,-1.137 3.262,-1.08c1.195,0.056 2.455,0.252 3.54,-0.25c-1.879,-2.153 -3.758,-4.306 -5.636,-6.461c-1.606,0.108 -3.212,0.214 -4.818,0.321c0.125,-0.715 -0.503,-1.39 -1.209,-1.59c-0.706,-0.2 -1.458,-0.052 -2.179,0.093c-10.052,2.023 -20.264,3.271 -30.513,3.727c-2.727,0.122 -5.444,0.263 -8.164,0.46c1.267,-0.791 3.694,-0.202 5.142,-0.115c2.367,0.141 4.732,0.333 7.092,0.573c4.595,0.467 9.17,1.121 13.711,1.96" style="fill:#3b2314;fill-rule:nonzero;"/></g><g opacity="0.2"><path d="M22.124,46.665c2.001,0.588 4.033,1.394 5.421,2.935c1.288,1.431 1.881,3.328 2.406,5.17c1.135,3.977 2.067,8.457 0.025,12.061c3.787,0.126 7.588,-0.13 11.322,-0.765c0.43,-8.902 0.516,-17.821 0.259,-26.728c-4.46,2.9 -9.913,3.788 -15.184,4.611c-3.31,0.517 -6.79,1.409 -10.133,1.524c1.934,0.122 4,1.192 5.884,1.192" style="fill:#3b2314;fill-rule:nonzero;"/></g><path d="M22.076,53.317c0.014,0.168 0.037,0.353 0.166,0.465c0.094,0.081 0.226,0.103 0.351,0.122c1.157,0.169 2.314,0.338 3.471,0.508c-1.572,-0.231 -2.793,-2.779 -4.134,-3.449c-0.017,0.778 0.082,1.572 0.146,2.354" style="fill:#fff;fill-rule:nonzero;"/></g></svg>