<svg clip-rule="evenodd" fill-rule="evenodd" stroke-linejoin="round" stroke-miterlimit="2" viewBox="0 0 89 65" xmlns="http://www.w3.org/2000/svg"><g fill-rule="nonzero"><path d="m10.739 27.8c-1.218.393-2.443.444-3.669.465-.4.007-.662-.179-.659-.643.009-1.548.004-3.097.004-4.633.961.111 1.773.22 2.587.291.424.037.625.214.67.65.067.66.125 1.332.3 1.968.174.632.487 1.225.767 1.902" fill="#ba843d"/><path d="m33.513 52.788c7.046 0 13.98 0 20.914-.007.044 0 .088-.092.211-.229-.262-.082-.475-.199-.693-.21-1.057-.047-2.115-.085-3.173-.093-5.04-.033-10.078-.041-15.116-.1-.765-.008-1.444.082-2.143.639m22.711 4.421c-.348-.698-.724-.944-1.367-.931-1.568.029-3.137-.027-4.707-.036-5.254-.029-10.509-.052-15.764-.077-.913-.005-1.178.152-1.736 1.044zm-.195-48.405c.039-.178.092-.315.096-.453.072-2.023-.359-4-.533-6-.009-.11-.03-.218-.052-.325-.132-.615-.529-.97-1.127-1.032-1.02-.105-2.036-.074-3.024.257-.375.126-.516.339-.406.747.153.564.262 1.14.385 1.711.277 1.287.556 2.574.823 3.862.065.316.159.578.543.543 1.013-.091 1.942.197 2.846.622.119.058.272.045.449.068m-25.336 52.483c.042.089.084.176.125.263.759 0 1.517.002 2.275 0 8.073-.017 16.146-.033 24.22-.051.292 0 .587.01.874-.029.391-.052.447-.275.2-.611-.28-.383-.633-.574-1.119-.565-.986.019-1.972.007-2.958.004-3.581-.014-7.16-.027-10.741-.048-3.652-.023-7.304-.051-10.958-.089-.431-.004-.776.132-1.086.424-.264.249-.554.47-.832.702m12.054-49.016c0 .009.001.018.001.026.546-.032 1.099-.021 1.636-.11.608-.101.691-.314.555-.934-.289-1.324-.562-2.649-.837-3.975-.193-.932-.392-1.865-.559-2.803-.081-.457-.308-.607-.753-.562-.704.071-1.379-.068-2.017-.383-.129-.064-.29-.141-.414-.112-.137.031-.294.152-.36.279-.06.113-.016.287-.004.432.137 1.57.273 3.14.416 4.709.073.804.141 1.61.248 2.408.121.894.23.98 1.102 1.023.328.015.657.002.986.002m3.042-.738c.145-.076.286-.119.388-.207 1.455-1.258 3.059-2.257 4.896-2.848.409-.131.473-.374.379-.758-.123-.497-.206-1.005-.3-1.51-.242-1.297-.471-2.596-.726-3.891-.11-.56-.24-.648-.733-.425-1.608.728-3.314 1.125-4.998 1.606-.668.191-.679.258-.539.939.228 1.113.431 2.23.673 3.34.27 1.246.392 2.534.96 3.754m-1.445 46.365v-.037c-3.034 0-6.067.006-9.101-.003-.839-.002-1.678-.043-2.517-.072-.597-.02-.649.021-.672.575-.052 1.272-.042 1.282 1.24 1.272 4.166-.033 8.331-.076 12.497-.1 3.4-.018 6.799-.009 10.197-.022.806-.004.806-.019.81-.757.005-.831.005-.831-.832-.854-.11-.004-.219-.002-.329-.002zm.014-4.416v-.04c-3.4 0-6.799.004-10.199-.003-.972-.003-.968-.02-.845 1.008.03.255.044.514.049.77.008.387.227.508.57.489.693-.038 1.386-.106 2.078-.11 5.995-.028 11.989-.042 17.984-.063.291-.001.606.046.869-.045.25-.086.541-.279.65-.504.546-1.132.296-1.502-.958-1.502-3.4-.001-6.799 0-10.198 0m14.454 8.652c-.673.051-1.31.143-1.946.142-5.04-.019-10.08-.059-15.119-.084-3.654-.017-7.306-.023-10.959-.035-.108 0-.218-.01-.328-.007-.253.007-.414.117-.403.396.006.183.019.367.029.55.046.777.046.78.815.778 5.625-.018 11.25-.031 16.875-.059 1.46-.007 2.92-.103 4.38-.077 1.67.027 3.34-.151 5.017.172 1.465.283 1.698 0 1.701-1.524 0-.101-.049-.203-.062-.252m8.916-25.412c.276.015.487.033.698.036 1.205.02 2.412.022 3.617.055 2.115.054 4.229.139 6.345.183.859.016 1.083.187.918 1.04-.415 2.137-.268 4.319-.549 6.465-.314 2.399-.292 2.276-2.465 2.563-1.837.244-3.712.202-5.571.253-1.095.029-2.193.004-3.289-.021-.409-.01-.616.15-.648.555-.011.147-.04.292-.045.439-.012.487.083.583.57.549.764-.054 1.527-.174 2.291-.172 2.885.009 5.772.056 8.658.09.219.002.46.068.65-.003.211-.08.426-.251.545-.442.13-.209.181-.482.214-.734.229-1.745.448-3.491.661-5.238.191-1.566.375-3.133.549-4.701.057-.51.074-1.024.108-1.536.027-.409-.16-.607-.571-.626-1.824-.079-3.646-.213-5.471-.241-1.494-.024-2.991.071-4.486.116-.694.02-1.387.048-2.08.068-.395.011-.609.192-.61.605-.001.21-.023.422-.039.697m-52.009 13.222c2.321.096 4.589-.341 6.871-.6.361-.042.503-.205.508-.565.014-1.052-.276-1.319-1.301-1.168-.072.012-.142.041-.214.048-1.05.107-2.099.268-3.151.304-1.825.062-3.65.053-5.475.063-1.295.006-1.541-.172-1.998-1.403-.075-.205-.126-.421-.169-.636-.274-1.365-.565-2.728-.805-4.1-.128-.72-.21-1.454-.233-2.185-.022-.748.096-.821.845-1.009 2.731-.688 5.529-.948 8.314-1.284.687-.083 1.375-.159 2.062-.249.339-.045.369-.299.351-.574-.019-.3-.129-.471-.473-.449-1.128.077-2.257.122-3.383.201-1.745.123-3.488.265-5.231.402-.29.022-.581.049-.87.082-1.013.119-2.024.251-3.037.357-.7.072-.75.083-.656.794.256 1.925.503 3.854.82 5.769.276 1.662.621 3.313.979 4.959.175.802.22.806 1.015.868 1.743.134 3.487.252 5.231.375m28.635-15.875v.012c-2.776 0-5.553.001-8.329-.001-.73 0-1.461-.014-2.191-.006-.94.009-.979.042-.881 1.019.079.804.202 1.602.318 2.401.189 1.305.407 2.607.577 3.916.112.872.141 1.756.238 2.631.196 1.749.409 3.495.624 5.241.077.62.147 1.243.288 1.849.119.505.359.556 1.04.477.498-.059.433-.381.431-.715-.011-2.134-.246-4.245-.609-6.346-.356-2.06-.778-4.113-.716-6.223.007-.255-.014-.518-.072-.765-.463-1.961.087-1.866 1.46-1.869 5.407-.01 10.813-.022 16.218-.032.147-.001.293-.008.439.003.552.046.604.094.566.669-.157 2.38-.313 4.761-.493 7.138-.083 1.098-.244 2.19-.324 3.287-.096 1.319-.169 2.64-.202 3.961-.017.733.14.833.829.819.558-.011.829-.185.863-.857.111-2.161.287-4.321.442-6.481.211-2.929.425-5.856.637-8.786.021-.293.03-.587.042-.881.015-.319-.141-.471-.456-.464-.183.003-.366.003-.549.003zm26.237 12.631v-.022c.876 0 1.755.051 2.627-.012 1.233-.087 2.459-.269 3.689-.387.712-.067 1.01-.462 1.07-1.146.108-1.243.261-2.48.372-3.722.088-.983.136-1.971.214-2.954.044-.543-.033-.651-.564-.669-1.823-.065-3.646-.129-5.469-.19-1.458-.05-2.916-.083-4.374-.15-.45-.021-.549.182-.576.579-.143 2.014-.304 4.026-.465 6.038-.044.549-.127 1.095-.162 1.644-.063.992-.053.992.899.991.913-.002 1.826 0 2.739 0m-54.924.656.01.118c2.069-.184 4.137-.361 6.205-.554.835-.078.852-.098.744-.928-.123-.944-.294-1.883-.424-2.826-.208-1.526-.382-3.056-.606-4.579-.118-.798-.155-.821-.973-.739-1.233.123-2.467.256-3.692.441-1.909.288-3.814.602-5.714.948-.773.141-.85.239-.722 1.052.306 1.956.667 3.902 1.025 5.848.046.245.206.469.316.701.175.368.454.533.873.524.986-.018 1.972-.006 2.958-.006m29.328-3.326h-.013c0 2.242-.004 4.485.003 6.727.001.74.025.756.716.777.329.011.659.001.987 0 1.57 0 3.142-.013 4.713 0 .47.005.658-.186.654-.65-.004-.625-.007-1.252.045-1.874.247-2.963.513-5.923.773-8.885.086-.985.191-1.971.253-2.959.052-.824.005-.866-.835-.87-2.12-.009-4.238-.009-6.357 0-.929.004-.935.016-.937 1.007-.004 2.241-.002 4.485-.002 6.727m-.644-.115h-.01c0-2.205.005-4.41-.002-6.615-.003-.991-.014-1.001-.945-1.006-2.301-.014-4.601-.016-6.902-.022-.182-.001-.366-.008-.547.01-.267.027-.372.19-.329.456.063.397.141.793.183 1.193.17 1.678.226 3.376.518 5.031.46 2.61.857 5.213.786 7.871-.02.708.008.726.735.727 1.826.003 3.652-.007 5.477-.018 1.033-.005 1.035-.008 1.036-1.013 0-2.204 0-4.41 0-6.614m-33.367-12.45c0 .011 0 .024.001.036 2.631 0 5.262.014 7.893-.005 1.774-.014 1.653.344 1.526-1.776-.004-.073-.015-.146-.03-.218-.119-.595-.182-.661-.784-.686-.511-.022-1.023-.007-1.535-.018-.895-.018-.987-.07-1.092-.981-.108-.948-.153-1.904-.202-2.858-.052-1.02-.041-1.021-1.044-1.027-.037 0-.074.001-.11.001-4.458.001-8.917.004-13.375.007-.256 0-.513-.01-.768.007-.552.035-.612.092-.603.665.006.441.03.884.083 1.321.195 1.603.405 3.202.609 4.805.114.894.112.898.994.882 2.813-.049 5.625-.103 8.437-.155m68.074-8.183c-.001-.019-.001-.038-.001-.058-2.518 0-5.036 0-7.554.001-.292 0-.595-.038-.871.031-.164.04-.358.232-.409.397-.071.235-.028.508-.028.766.001 1.211.022 2.423 0 3.635-.017.906-.226 1.11-1.068 1.181-.872.074-.872.074-.901.951-.005.109 0 .22-.01.33-.033.368.124.552.499.537.182-.007.365-.004.548-.004 5.437-.001 10.874-.002 16.312-.003.147 0 .292.006.439 0 .694-.029.75-.059.882-.709.14-.681.274-1.366.362-2.056.189-1.49.371-2.982.506-4.476.051-.559-.072-.633-.61-.676-.144-.011-.292-.004-.437-.001-2.553.051-5.106.103-7.659.154m-11.214 11.486c.158.058.224.105.288.103 2.808-.097 5.615-.23 8.424-.283 1.162-.022 2.328.13 3.493.197.291.017.587-.016.876.013.55.054.725.196.723.761-.003.954-.035 1.911-.132 2.858-.239 2.334-.512 4.666-.794 6.996-.115.946-.249 1.893-.444 2.825-.227 1.085-.534 1.313-1.672 1.286-1.496-.036-2.99-.174-4.485-.167-2.187.014-4.375.111-6.561.186-.825.028-.872.041-.95.851-.159 1.643-.222 3.295-.405 4.935-.081.725.074.854.741.819.109-.006.219 0 .329 0 4.491.004 8.984.008 13.477.014.219 0 .438-.005.657-.003.3.003.481-.144.539-.437.044-.215.082-.433.113-.651.319-2.213.669-4.421.945-6.638.322-2.584.579-5.175.864-7.762.092-.839.16-1.681.283-2.515.271-1.849.572-3.695.853-5.543.119-.775.107-.779-.69-.803-.22-.006-.439 0-.658 0-4.565-.006-9.131-.009-13.696-.017-.475-.001-.95-.065-1.421-.035-.169.01-.451.199-.467.333-.11.898-.162 1.803-.23 2.677m-55.866-2.469v-.018c-2.631 0-5.262-.003-7.892.002-.746.001-.811.077-.719.831.112.911.226 1.822.367 2.728.624 3.985 1.245 7.97 1.89 11.952.394 2.425.831 4.843 1.241 7.265.145.854.169.904 1.045.884 1.789-.037 3.576-.129 5.365-.143 3.215-.026 6.43-.012 9.644-.014.256 0 .511-.006.767-.011.387-.006.506-.207.434-.574-.176-.9-.356-1.8-.509-2.704-.115-.686-.194-1.379-.283-2.071-.04-.315-.203-.451-.516-.408-.181.025-.362.047-.543.069-1.412.169-2.82.432-4.237.486-2.699.102-5.401.06-8.083-.367-.497-.079-.805-.303-.939-.78-.131-.459-.302-.911-.381-1.38-.453-2.675-.897-5.353-1.315-8.034-.131-.833-.173-1.679-.254-2.519-.037-.381.108-.639.495-.735.212-.054.419-.146.634-.174 1.445-.191 2.888-.402 4.337-.542 1.853-.18 3.711-.303 5.567-.445.801-.061 1.603-.115 2.405-.163.382-.025.651-.15.573-.599-.099-.578-.204-1.155-.324-1.729-.167-.792-.175-.803-.988-.805-2.594-.006-5.187-.002-7.781-.002m28.273-14.809c-4.923-.038-13.18-.101-21.439-.161-1.158-.008-1.191-.001-1.199 1.118-.024 2.978-.024 5.956-.019 8.934.002.771.069.819.802.844.182.006.366-.003.549-.004 2.923-.015 5.846-.035 8.77-.041 13.155-.023 26.311-.044 39.467-.062.363 0 .737-.002 1.089.075 1.1.239 1.097.253 1.116-.833.002-.147.003-.293.002-.441-.009-2.794-.023-5.588-.025-8.383-.001-1.034.012-1.034-1-1.046-.073-.001-.147 0-.22 0zm3.891 11.393v-.061c-6.654 0-13.307.001-19.96 0-.877 0-1.755.005-2.632-.005-.418-.005-.585.129-.515.592.221 1.452.391 2.91.6 4.364.252 1.743.532 3.483.782 5.227.276 1.924.516 3.854.798 5.778.377 2.578.759 5.156 1.18 7.726.284 1.739.649 3.464.953 5.199.086.486.292.691.801.664.876-.043 1.754-.017 2.631-.047.692-.023 1.382-.092 2.074-.13.338-.018.571-.138.544-.522-.041-.559.263-.926.711-1.138.569-.27.684-.703.621-1.262-.036-.329 0-.669-.065-.99-.248-1.249-.5-1.816 1.119-2.377.347-.12.506-.387.469-.774-.113-1.206-.192-2.417-.327-3.62-.151-1.351-.425-2.689-.511-4.041-.2-3.122-.776-6.183-1.301-9.255-.132-.77-.04-.923.717-.948.219-.008.439-.005.658-.004 7.49.011 14.98.022 22.47.032.484 0 .625.164.569.682-.051.474-.122.946-.157 1.42-.154 2.125-.293 4.252-.448 6.376-.072.989-.16 1.978-.253 2.965-.2 2.119-.398 4.241-.623 6.357-.064.6.015 1.115.545 1.451.929.586 1.05 1.367.639 2.323-.327.758-.102 1.355.596 1.772.489.292.67.696.652 1.284-.025.821.06.896.863.904 2.046.019 4.094.011 6.141-.005.616-.005.649-.059.699-.713.232-3.04.459-6.081.691-9.121.085-1.099.182-2.197.271-3.296.196-2.415.39-4.832.583-7.248.123-1.538.25-3.076.361-4.614.102-1.393.204-2.786.27-4.18.027-.588-.025-.604-.627-.64-.146-.008-.292-.002-.439-.003-7.384-.04-14.767-.081-22.15-.122m-3.244-15.99c.13 1.145.257 2.194.361 3.245.034.357.183.54.545.538.365-.002.731.004 1.096.004 8.481-.002 16.962-.006 25.442-.008 1.467 0 1.64.168 1.654 1.635.01 1.066-.011 2.133.015 3.2.021.885.058.917.963.918 3.143.005 6.286-.009 9.43-.002 2.23.003 4.459.023 6.689.046 1.107.011 1.343.169 1.286 1.267-.082 1.61-.29 3.214-.476 4.816-.081.692-.251 1.371-.36 2.06-.11.689-.402 1.189-1.173 1.2-.401.007-.565.164-.618.58-.346 2.729-.736 5.453-1.077 8.183-.292 2.331-.54 4.668-.804 7.002-.165 1.459-.296 2.922-.494 4.376-.183 1.343-.431 2.679-.661 4.015-.125.726-.265.863-1.007.88-1.206.028-2.413.026-3.619.028-3.545.004-7.091.005-10.637.009-.255 0-.512.006-.767 0-.45-.008-.668.191-.668.662 0 .365-.071.731-.085 1.097-.033.814-.026.833-.853.836-1.974.009-3.947-.001-5.921-.004-.355-.001-.709 0-1.141 0 .403.555.719.998 1.043 1.435.815 1.094.403 2.243.109 3.368-.039.149-.405.286-.625.298-.619.033-1.242-.008-1.863-.011-7.383-.03-14.767-.054-22.15-.092-1.352-.007-2.703-.096-4.055-.099-.547-.001-.81-.254-.918-.732-.114-.499-.2-1.005-.284-1.511-.063-.378.163-.612.43-.831.452-.371.903-.744 1.332-1.141.154-.142.289-.34.352-.538.085-.266.021-.531-.319-.574-.288-.037-.583-.04-.875-.044-1.535-.018-3.07-.029-4.605-.045-.771-.008-.857-.086-.967-.858-.213-1.497-.213-1.496-1.731-1.498-4.569-.007-9.139-.01-13.707-.03-.692-.002-1.386-.07-2.076-.144-.728-.076-.794-.158-.903-.831-.229-1.412-.45-2.827-.689-4.237-.706-4.16-1.447-8.315-2.115-12.48-.3-1.884-.493-3.787-.671-5.686-.087-.926-.107-.97-.913-1.012-.522-.027-.809-.25-.864-.782-.235-2.3-.52-4.596-.701-6.901-.1-1.275-.026-1.292 1.241-1.289 4.714.013 9.43.033 14.146.05.145.001.293.014.438.008.596-.023.634-.041.649-.628.022-.882-.009-1.766.016-2.648.019-.734.065-1.469.138-2.199.082-.824.267-1.008 1.111-1.036 1.388-.045 2.777-.062 4.167-.065 5.592-.01 11.184-.009 16.777-.013.147 0 .293-.001.439-.001 1.264-.004 1.223 0 1.089-1.222-.339-3.101-.641-6.207-.951-9.312-.084-.839-.15-1.682-.216-2.523-.017-.219-.024-.443-.001-.661.05-.499.267-.65.732-.492.379.13.751.288 1.116.457.765.354 1.551.391 2.351.164 2.107-.596 4.233-1.121 6.266-1.98.997-.422 2.083-.677 3.154-.865.624-.109 1.316-.014 1.944.133.853.201 1.46.815 1.485 1.707.058 2.094.668 4.139.493 6.248-.015.183.007.369-.006.552-.059.804-.264.938-1.053.692-.243-.077-.496-.145-.721-.262-1.296-.676-2.623-.55-3.935-.112-1.398.467-2.714 1.144-3.81 2.132-1.373 1.236-2.94 1.703-4.738 1.564-.507-.039-1.02-.006-1.676-.006" fill="#231f20"/><path d="m44.141 28.883c7.384.041 14.767.082 22.151.123.146.001.293-.006.439.003.602.036.654.05.627.639-.066 1.395-.169 2.787-.27 4.18-.112 1.539-.237 3.076-.361 4.614-.193 2.416-.387 4.833-.583 7.249-.089 1.098-.186 2.196-.271 3.295-.233 3.04-.459 6.082-.691 9.121-.05.654-.083.708-.699.713-2.047.016-4.094.024-6.14.005-.803-.008-.889-.084-.864-.904.017-.588-.164-.992-.651-1.284-.699-.417-.924-1.014-.597-1.772.411-.957.29-1.737-.639-2.323-.531-.336-.609-.852-.545-1.451.226-2.117.422-4.237.623-6.357.093-.988.181-1.976.253-2.965.154-2.125.294-4.251.448-6.376.035-.474.106-.946.158-1.421.055-.517-.086-.68-.569-.681-7.491-.01-14.981-.022-22.471-.031-.22-.001-.44-.004-.659.002-.756.026-.848.179-.716.949.526 3.071 1.102 6.134 1.301 9.255.087 1.352.359 2.691.51 4.041.135 1.203.215 2.414.329 3.62.037.387-.123.654-.471.775-1.617.559-1.365 1.127-1.117 2.375.064.321.027.662.064.99.063.561-.051.994-.621 1.262-.447.212-.752.58-.712 1.139.027.383-.204.504-.544.523-.692.037-1.381.106-2.073.129-.876.03-1.756.004-2.632.048-.507.026-.714-.179-.799-.665-.305-1.735-.671-3.46-.955-5.199-.42-2.57-.802-5.148-1.179-7.725-.281-1.924-.522-3.854-.798-5.778-.249-1.745-.53-3.485-.781-5.228-.211-1.454-.38-2.912-.601-4.363-.07-.464.097-.598.515-.593.878.01 1.754.006 2.632.006 6.653.001 13.305 0 19.959 0v.06z" fill="#ffd771"/><path d="m40.252 17.49h27.892c.073 0 .146-.001.219 0 1.014.012 1 .012 1.001 1.047.001 2.793.016 5.588.026 8.382 0 .147 0 .293-.003.441-.019 1.087-.017 1.072-1.116.833-.352-.077-.726-.074-1.089-.074-13.156.017-26.312.037-39.468.062-2.923.005-5.847.026-8.77.041-.183 0-.366.008-.548.003-.732-.026-.8-.073-.802-.843-.005-2.979-.005-5.957.019-8.934.008-1.12.041-1.127 1.199-1.119 8.258.061 16.516.123 21.44.161" fill="#24aae1"/><path d="m11.978 32.299c2.593 0 5.187-.004 7.781.002.814.002.822.013.987.804.122.574.226 1.152.325 1.73.077.449-.191.574-.573.598-.803.048-1.604.102-2.404.164-1.857.142-3.715.265-5.567.444-1.45.141-2.894.352-4.339.543-.214.028-.421.12-.633.173-.387.097-.533.355-.495.736.081.84.124 1.687.253 2.519.42 2.681.862 5.358 1.316 8.034.08.469.251.921.381 1.38.134.477.442.701.939.78 2.682.427 5.384.469 8.082.367 1.418-.053 2.825-.317 4.237-.486.182-.022.363-.044.544-.069.312-.042.477.093.517.408.087.691.167 1.385.283 2.071.152.904.332 1.805.509 2.704.071.367-.048.568-.434.574-.256.004-.512.01-.767.01-3.215.004-6.431-.011-9.646.014-1.788.015-3.576.107-5.364.144-.876.02-.9-.03-1.044-.883-.411-2.423-.848-4.841-1.242-7.266-.644-3.982-1.266-7.967-1.89-11.952-.141-.907-.256-1.817-.367-2.727-.092-.755-.027-.831.72-.832 2.63-.004 5.26-.002 7.891-.002z" fill="#fec143"/><path d="m67.844 34.768c.068-.874.12-1.779.23-2.677.016-.134.298-.323.467-.333.471-.031.946.034 1.421.035 4.565.009 9.131.012 13.696.016.219 0 .438-.004.657.001.799.024.81.029.692.803-.282 1.848-.583 3.693-.854 5.543-.123.834-.191 1.677-.283 2.516-.285 2.586-.542 5.177-.864 7.761-.276 2.217-.626 4.425-.945 6.638-.031.218-.069.435-.113.651-.058.293-.239.439-.539.437-.219-.002-.438.002-.657.002-4.493-.005-8.986-.008-13.477-.014-.11 0-.22-.005-.329.001-.667.035-.822-.094-.741-.819.182-1.64.247-3.292.405-4.936.078-.809.125-.821.95-.85 2.186-.075 4.373-.173 6.561-.185 1.495-.009 2.989.13 4.485.166 1.138.027 1.445-.202 1.673-1.287.194-.931.328-1.878.443-2.824.282-2.33.555-4.662.794-6.996.097-.947.129-1.905.133-2.858.002-.565-.174-.707-.724-.761-.29-.029-.585.004-.876-.013-1.165-.067-2.331-.219-3.493-.197-2.809.053-5.616.186-8.424.283-.064.002-.13-.046-.288-.103" fill="#fec143"/><path d="m79.058 23.282c2.552-.052 5.106-.103 7.659-.154.146-.003.293-.009.438.001.537.043.66.117.609.676-.135 1.494-.317 2.986-.506 4.476-.089.689-.222 1.375-.362 2.056-.132.65-.188.68-.883.708-.147.007-.292.001-.439.001-5.436.001-10.874.002-16.312.003-.183 0-.365-.003-.547.004-.375.015-.532-.169-.499-.537.01-.11.006-.221.01-.331.029-.876.029-.876.901-.95.842-.071 1.052-.275 1.068-1.181.022-1.212.001-2.424 0-3.636 0-.257-.043-.53.029-.765.049-.165.244-.356.407-.397.277-.068.579-.03.871-.03 2.52-.001 5.037-.001 7.555-.001 0 .019 0 .039.001.057" fill="#098fcf"/><path d="m10.984 31.465c-2.812.052-5.624.105-8.436.156-.882.015-.881.01-.995-.884-.204-1.602-.414-3.201-.609-4.805-.053-.437-.077-.88-.084-1.319-.008-.574.052-.632.605-.667.254-.016.511-.007.766-.007 4.459-.002 8.917-.005 13.376-.007h.11c1.003.006.991.007 1.044 1.027.049.953.094 1.909.203 2.857.104.912.196.963 1.091.982.512.011 1.024-.004 1.535.018.602.024.665.091.784.685.014.073.026.145.031.219.126 2.121.247 1.763-1.527 1.775-2.631.02-5.262.006-7.893.006-.001-.013-.001-.024-.001-.036" fill="#098fcf"/><path d="m44.35 43.915c0 2.204.001 4.41 0 6.614 0 1.004-.002 1.008-1.034 1.013-1.826.011-3.652.021-5.478.018-.726-.001-.755-.018-.735-.727.071-2.658-.327-5.262-.786-7.87-.292-1.656-.348-3.354-.519-5.032-.041-.4-.119-.796-.182-1.193-.043-.266.062-.429.329-.456.181-.018.364-.011.547-.01 2.301.006 4.601.009 6.902.022.931.005.942.015.945 1.006.007 2.205.002 4.41.002 6.615z" fill="#c39a6b"/><path d="m44.995 44.03c0-2.242-.003-4.486.002-6.727.002-.991.008-1.003.937-1.007 2.119-.009 4.238-.009 6.357 0 .841.004.887.046.835.87-.062.988-.167 1.974-.253 2.959-.26 2.962-.527 5.922-.773 8.885-.052.622-.048 1.249-.045 1.874.004.464-.184.655-.654.65-1.571-.013-3.142 0-4.713 0-.329.001-.658.011-.987 0-.691-.021-.715-.037-.716-.777-.007-2.242-.003-4.485-.003-6.727z" fill="#c39a6b"/><path d="m15.667 47.356c-.987 0-1.972-.013-2.958.006-.419.009-.699-.157-.874-.525-.11-.231-.269-.455-.314-.699-.359-1.947-.719-3.893-1.027-5.849-.127-.812-.05-.911.723-1.052 1.9-.346 3.805-.66 5.715-.948 1.225-.184 2.458-.319 3.691-.441.819-.082.855-.06.973.739.224 1.523.398 3.053.606 4.578.129.944.301 1.883.424 2.828.107.829.092.849-.743.927-2.068.194-4.138.371-6.206.554z" fill="#78c8ef"/><path d="m70.591 46.699c-.913 0-1.826-.001-2.739 0-.953.001-.961.002-.899-.99.035-.55.119-1.096.162-1.645.161-2.011.322-4.024.464-6.037.029-.397.127-.601.576-.579 1.458.067 2.917.1 4.375.149 1.823.062 3.646.126 5.469.19.53.019.607.128.564.67-.078.984-.125 1.971-.214 2.954-.112 1.241-.264 2.479-.372 3.721-.06.685-.358 1.08-1.07 1.148-1.23.117-2.456.299-3.689.386-.872.062-1.752.012-2.627.012z" fill="#78c8ef"/><path d="m44.354 34.069h10.191c.183 0 .366 0 .547-.003.317-.007.472.145.458.464-.013.294-.023.588-.043.881-.212 2.929-.427 5.857-.636 8.786-.156 2.16-.331 4.319-.443 6.481-.035.672-.305.846-.864.857-.688.014-.845-.086-.827-.819.032-1.321.105-2.642.201-3.961.08-1.097.242-2.189.324-3.287.179-2.377.336-4.758.494-7.138.037-.575-.015-.623-.568-.669-.145-.011-.292-.004-.438-.003-5.406.01-10.811.022-16.217.032-1.373.003-1.924-.092-1.462 1.869.059.247.08.51.072.765-.061 2.11.361 4.163.717 6.223.363 2.101.598 4.212.609 6.346.001.334.067.656-.431.715-.682.079-.922.028-1.04-.477-.141-.606-.212-1.229-.288-1.849-.216-1.746-.429-3.492-.624-5.241-.097-.875-.126-1.759-.239-2.631-.169-1.309-.387-2.611-.577-3.916-.116-.799-.238-1.597-.318-2.401-.097-.977-.058-1.01.881-1.019.731-.008 1.462.006 2.192.006 2.777.002 5.552.001 8.329.001z" fill="#f68d3f"/><path d="m15.719 49.945c-1.744-.125-3.488-.242-5.231-.376-.795-.061-.84-.066-1.015-.868-.358-1.646-.703-3.297-.979-4.959-.317-1.916-.564-3.844-.82-5.77-.094-.71-.044-.721.656-.794 1.013-.104 2.024-.237 3.037-.356.289-.033.58-.06.87-.083 1.743-.136 3.486-.278 5.231-.402 1.126-.078 2.255-.123 3.383-.199.344-.023.454.148.473.448.018.276-.012.529-.351.574-.687.089-1.375.166-2.062.249-2.785.336-5.583.596-8.314 1.284-.749.188-.867.26-.845 1.009.023.731.105 1.466.233 2.185.24 1.372.531 2.735.805 4.1.043.215.094.431.169.635.457 1.232.703 1.41 1.998 1.404 1.825-.01 3.65-.001 5.475-.063 1.052-.036 2.101-.197 3.152-.304.072-.007.141-.036.213-.048 1.025-.152 1.315.116 1.301 1.168-.005.361-.147.523-.508.565-2.282.258-4.55.695-6.871.601" fill="#f68d3f"/><path d="m67.728 36.722c.016-.275.038-.487.039-.697.001-.413.215-.594.61-.605.693-.02 1.387-.048 2.079-.068 1.496-.045 2.993-.14 4.487-.116 1.825.028 3.647.161 5.471.241.411.019.598.217.571.627-.034.512-.051 1.025-.108 1.535-.174 1.568-.358 3.135-.549 4.701-.213 1.747-.432 3.493-.661 5.238-.033.252-.084.525-.214.734-.119.191-.335.362-.545.442-.189.072-.431.005-.65.003-2.886-.034-5.773-.081-8.658-.09-.764-.002-1.527.118-2.291.172-.487.034-.582-.062-.57-.549.005-.147.033-.292.045-.439.032-.404.239-.565.648-.555 1.096.025 2.193.05 3.289.02 1.859-.05 3.734-.008 5.571-.252 2.174-.287 2.151-.164 2.465-2.563.281-2.146.134-4.328.549-6.465.165-.853-.059-1.024-.918-1.041-2.116-.043-4.23-.128-6.346-.182-1.204-.033-2.411-.036-3.616-.054-.211-.004-.422-.022-.698-.037" fill="#f68d3f"/><path d="m58.812 62.134c.013.05.062.151.062.252-.004 1.524-.236 1.807-1.702 1.524-1.675-.323-3.346-.145-5.017-.173-1.459-.024-2.919.071-4.379.078-5.625.028-11.25.042-16.875.058-.769.003-.769 0-.815-.776-.01-.183-.024-.367-.029-.55-.011-.28.15-.39.403-.396.109-.004.219.006.328.006 3.653.012 7.306.017 10.959.035 5.039.025 10.079.065 15.119.084.636.001 1.274-.09 1.946-.142" fill="#9b9fac"/><path d="m44.357 53.482c3.4 0 6.8-.001 10.198 0 1.256 0 1.506.37.958 1.502-.109.225-.4.418-.648.504-.265.091-.578.045-.87.045-5.995.021-11.99.036-17.985.063-.692.004-1.384.072-2.076.11-.344.018-.563-.102-.57-.489-.005-.257-.02-.515-.05-.77-.123-1.028-.127-1.011.846-1.009 3.398.008 6.798.004 10.197.004z" fill="#9b9fac"/><path d="m44.344 57.898h11.293c.11 0 .219-.001.329.002.837.022.837.023.832.853-.004.738-.004.755-.81.758-3.398.012-6.797.005-10.197.023-4.166.023-8.331.065-12.497.098-1.282.012-1.292 0-1.24-1.271.023-.553.075-.594.672-.574.839.028 1.678.069 2.517.071 3.034.009 6.067.004 9.101.004z" fill="#9b9fac"/><path d="m49.626 6.443c-.003-.976-.692-1.675-1.643-1.666-.919.007-1.424.646-1.443 1.823-.013.898.576 1.447 1.547 1.438.959-.008 1.542-.612 1.539-1.595m-3.838 5.091c-.567-1.221-.689-2.509-.96-3.755-.24-1.11-.444-2.227-.672-3.34-.14-.681-.13-.747.539-.938 1.683-.482 3.391-.879 4.998-1.607.493-.224.623-.134.733.425.255 1.295.484 2.595.726 3.891.094.506.177 1.013.299 1.51.096.383.032.627-.378.758-1.837.591-3.441 1.59-4.896 2.848-.103.088-.243.131-.389.208" fill="#fff"/><path d="m42.747 12.271c-.329 0-.658.014-.986-.002-.873-.043-.981-.129-1.102-1.023-.107-.799-.175-1.604-.248-2.408-.143-1.568-.28-3.139-.416-4.709-.012-.145-.055-.319.004-.432.066-.127.223-.248.36-.28.125-.028.285.049.414.114.638.314 1.312.453 2.018.382.443-.045.671.105.752.562.166.938.366 1.87.558 2.803.276 1.326.55 2.651.838 3.974.136.621.053.834-.555.935-.537.089-1.09.078-1.636.11 0-.007-.001-.017-.001-.026" fill="#39b54a"/><path d="m30.693 61.288c.278-.233.568-.455.832-.703.31-.292.655-.428 1.087-.423 3.653.037 7.304.065 10.957.088 3.581.021 7.16.034 10.741.048.986.003 1.972.015 2.958-.004.486-.009.839.182 1.119.565.247.336.19.559-.2.611-.287.039-.583.029-.874.029-8.074.018-16.147.035-24.22.051-.758.002-1.516 0-2.275 0-.041-.087-.083-.174-.125-.262" fill="#c4c8d7"/><path d="m56.029 8.804c-.176-.023-.33-.011-.45-.068-.903-.424-1.831-.713-2.846-.621-.383.034-.477-.229-.543-.544-.266-1.289-.546-2.575-.822-3.862-.123-.571-.231-1.147-.385-1.711-.11-.408.031-.621.406-.747.988-.331 2.004-.362 3.024-.257.598.062.995.417 1.127 1.032.022.107.042.215.052.325.173 2 .605 3.977.533 5.999-.005.14-.057.277-.096.454" fill="#ed1c24"/><path d="m56.224 57.209h-23.575c.56-.892.824-1.049 1.736-1.044 5.255.026 10.511.047 15.765.077 1.57.008 3.139.065 4.707.036.643-.012 1.02.233 1.367.931" fill="#c4c8d7"/><path d="m33.513 52.788c.699-.557 1.378-.647 2.143-.639 5.038.059 10.076.067 15.116.1 1.058.008 2.116.046 3.173.093.218.011.431.128.693.21-.123.137-.167.229-.211.229-6.934.007-13.868.007-20.914.007" fill="#c4c8d7"/><path d="m49.626 6.443c.003.983-.58 1.587-1.539 1.595-.971.009-1.56-.54-1.547-1.438.019-1.177.524-1.816 1.443-1.823.951-.009 1.64.69 1.643 1.666" fill="#231f20"/><g fill="#fff"><path d="m25.518 26.247h4.066v-1.292h-2.606v-1.766h2.557v-1.292h-2.557v-1.658h2.606v-1.292h-4.066z"/><path d="m34.199 22.291c-.108-1.302-1.185-1.627-1.91-1.627-1.039 0-1.931.66-1.931 1.726.01.779.598 1.184 1.323 1.41.99.346 1.391.474 1.391.938.01.365-.333.631-.734.631-.245 0-.745-.118-.794-.7h-1.284c.098 1.312 1.225 1.746 2.058 1.746 1.127 0 2.058-.711 2.038-1.825-.01-1.164-.941-1.421-1.803-1.658-.509-.148-.901-.335-.911-.68 0-.267.206-.543.637-.543.499 0 .646.296.656.582z"/><path d="m39.265 24.274c-.196.444-.647.927-1.45.927-.912 0-1.588-.69-1.588-1.667 0-.473.167-.907.441-1.203.314-.306.676-.474 1.147-.464.705 0 1.224.404 1.45.977h1.313c-.314-1.322-1.46-2.18-2.812-2.18-1.607 0-2.832 1.272-2.832 2.87 0 1.549 1.176 2.881 2.881 2.881 1.391 0 2.459-.938 2.763-2.141z"/><path d="m46.407 20.831h-1.283v2.989c0 .77-.314 1.381-1.235 1.381-.911.01-1.176-.621-1.176-1.42v-2.95h-1.283v3.275c0 .947.333 2.299 2.097 2.309.97.009 1.45-.464 1.675-.888v.72h1.205z"/><path d="m52.874 23.968c.108-.947-.137-1.795-.794-2.476-.5-.523-1.205-.828-2.008-.828-1.627 0-2.822 1.351-2.822 2.89 0 1.509 1.185 2.861 2.841 2.861.559 0 1.088-.158 1.538-.474.451-.306.833-.76 1.088-1.361h-1.323c-.245.444-.666.73-1.293.73-.735.01-1.499-.474-1.558-1.342zm-4.311-.986c.049-.533.568-1.224 1.518-1.224.941-.009 1.48.711 1.529 1.224z"/><path d="m53.765 18.947h1.284v7.3h-1.284z"/><path d="m61.77 20.831h-1.283v.789c-.235-.434-.833-.956-1.813-.956-1.509 0-2.733 1.164-2.733 2.87 0 1.529 1.009 2.881 2.733 2.881.755 0 1.47-.316 1.813-.947v.779h1.283zm-4.546 2.723c0-.839.588-1.687 1.626-1.687.774 0 1.274.444 1.5.957.107.237.156.503.146.759-.019.267-.078.523-.205.76-.245.493-.716.868-1.431.868-1.156 0-1.636-.977-1.636-1.647z"/></g></g></svg>