<?xml version="1.0" encoding="UTF-8" standalone="no"?><!DOCTYPE svg PUBLIC "-//W3C//DTD SVG 1.1//EN" "http://www.w3.org/Graphics/SVG/1.1/DTD/svg11.dtd"><svg width="100%" height="100%" viewBox="0 0 89 65" version="1.1" xmlns="http://www.w3.org/2000/svg" xmlns:xlink="http://www.w3.org/1999/xlink" xml:space="preserve" xmlns:serif="http://www.serif.com/" style="fill-rule:evenodd;clip-rule:evenodd;stroke-linejoin:round;stroke-miterlimit:2;"><g><path d="M10.739,27.8c-1.218,0.393 -2.443,0.444 -3.669,0.465c-0.4,0.007 -0.662,-0.179 -0.659,-0.643c0.009,-1.548 0.004,-3.097 0.004,-4.633c0.961,0.111 1.773,0.22 2.587,0.291c0.424,0.037 0.625,0.214 0.67,0.65c0.067,0.66 0.125,1.332 0.3,1.968c0.174,0.632 0.487,1.225 0.767,1.902" style="fill:#ba843d;fill-rule:nonzero;"/><path d="M33.513,52.788c7.046,0 13.98,0 20.914,-0.007c0.044,0 0.088,-0.092 0.211,-0.229c-0.262,-0.082 -0.475,-0.199 -0.693,-0.21c-1.057,-0.047 -2.115,-0.085 -3.173,-0.093c-5.04,-0.033 -10.078,-0.041 -15.116,-0.1c-0.765,-0.008 -1.444,0.082 -2.143,0.639m22.711,4.421c-0.348,-0.698 -0.724,-0.944 -1.367,-0.931c-1.568,0.029 -3.137,-0.027 -4.707,-0.036c-5.254,-0.029 -10.509,-0.052 -15.764,-0.077c-0.913,-0.005 -1.178,0.152 -1.736,1.044l23.574,0Zm-0.195,-48.405c0.039,-0.178 0.092,-0.315 0.096,-0.453c0.072,-2.023 -0.359,-4 -0.533,-6c-0.009,-0.11 -0.03,-0.218 -0.052,-0.325c-0.132,-0.615 -0.529,-0.97 -1.127,-1.032c-1.02,-0.105 -2.036,-0.074 -3.024,0.257c-0.375,0.126 -0.516,0.339 -0.406,0.747c0.153,0.564 0.262,1.14 0.385,1.711c0.277,1.287 0.556,2.574 0.823,3.862c0.065,0.316 0.159,0.578 0.543,0.543c1.013,-0.091 1.942,0.197 2.846,0.622c0.119,0.058 0.272,0.045 0.449,0.068m-25.336,52.483c0.042,0.089 0.084,0.176 0.125,0.263c0.759,0 1.517,0.002 2.275,0c8.073,-0.017 16.146,-0.033 24.22,-0.051c0.292,0 0.587,0.01 0.874,-0.029c0.391,-0.052 0.447,-0.275 0.2,-0.611c-0.28,-0.383 -0.633,-0.574 -1.119,-0.565c-0.986,0.019 -1.972,0.007 -2.958,0.004c-3.581,-0.014 -7.16,-0.027 -10.741,-0.048c-3.652,-0.023 -7.304,-0.051 -10.958,-0.089c-0.431,-0.004 -0.776,0.132 -1.086,0.424c-0.264,0.249 -0.554,0.47 -0.832,0.702m12.054,-49.016c0,0.009 0.001,0.018 0.001,0.026c0.546,-0.032 1.099,-0.021 1.636,-0.11c0.608,-0.101 0.691,-0.314 0.555,-0.934c-0.289,-1.324 -0.562,-2.649 -0.837,-3.975c-0.193,-0.932 -0.392,-1.865 -0.559,-2.803c-0.081,-0.457 -0.308,-0.607 -0.753,-0.562c-0.704,0.071 -1.379,-0.068 -2.017,-0.383c-0.129,-0.064 -0.29,-0.141 -0.414,-0.112c-0.137,0.031 -0.294,0.152 -0.36,0.279c-0.06,0.113 -0.016,0.287 -0.004,0.432c0.137,1.57 0.273,3.14 0.416,4.709c0.073,0.804 0.141,1.61 0.248,2.408c0.121,0.894 0.23,0.98 1.102,1.023c0.328,0.015 0.657,0.002 0.986,0.002m3.042,-0.738c0.145,-0.076 0.286,-0.119 0.388,-0.207c1.455,-1.258 3.059,-2.257 4.896,-2.848c0.409,-0.131 0.473,-0.374 0.379,-0.758c-0.123,-0.497 -0.206,-1.005 -0.3,-1.51c-0.242,-1.297 -0.471,-2.596 -0.726,-3.891c-0.11,-0.56 -0.24,-0.648 -0.733,-0.425c-1.608,0.728 -3.314,1.125 -4.998,1.606c-0.668,0.191 -0.679,0.258 -0.539,0.939c0.228,1.113 0.431,2.23 0.673,3.34c0.27,1.246 0.392,2.534 0.96,3.754m-1.445,46.365l0,-0.037c-3.034,0 -6.067,0.006 -9.101,-0.003c-0.839,-0.002 -1.678,-0.043 -2.517,-0.072c-0.597,-0.02 -0.649,0.021 -0.672,0.575c-0.052,1.272 -0.042,1.282 1.24,1.272c4.166,-0.033 8.331,-0.076 12.497,-0.1c3.4,-0.018 6.799,-0.009 10.197,-0.022c0.806,-0.004 0.806,-0.019 0.81,-0.757c0.005,-0.831 0.005,-0.831 -0.832,-0.854c-0.11,-0.004 -0.219,-0.002 -0.329,-0.002l-11.293,0Zm0.014,-4.416l0,-0.04c-3.4,0 -6.799,0.004 -10.199,-0.003c-0.972,-0.003 -0.968,-0.02 -0.845,1.008c0.03,0.255 0.044,0.514 0.049,0.77c0.008,0.387 0.227,0.508 0.57,0.489c0.693,-0.038 1.386,-0.106 2.078,-0.11c5.995,-0.028 11.989,-0.042 17.984,-0.063c0.291,-0.001 0.606,0.046 0.869,-0.045c0.25,-0.086 0.541,-0.279 0.65,-0.504c0.546,-1.132 0.296,-1.502 -0.958,-1.502c-3.4,-0.001 -6.799,0 -10.198,0m14.454,8.652c-0.673,0.051 -1.31,0.143 -1.946,0.142c-5.04,-0.019 -10.08,-0.059 -15.119,-0.084c-3.654,-0.017 -7.306,-0.023 -10.959,-0.035c-0.108,0 -0.218,-0.01 -0.328,-0.007c-0.253,0.007 -0.414,0.117 -0.403,0.396c0.006,0.183 0.019,0.367 0.029,0.55c0.046,0.777 0.046,0.78 0.815,0.778c5.625,-0.018 11.25,-0.031 16.875,-0.059c1.46,-0.007 2.92,-0.103 4.38,-0.077c1.67,0.027 3.34,-0.151 5.017,0.172c1.465,0.283 1.698,0 1.701,-1.524c0,-0.101 -0.049,-0.203 -0.062,-0.252m8.916,-25.412c0.276,0.015 0.487,0.033 0.698,0.036c1.205,0.02 2.412,0.022 3.617,0.055c2.115,0.054 4.229,0.139 6.345,0.183c0.859,0.016 1.083,0.187 0.918,1.04c-0.415,2.137 -0.268,4.319 -0.549,6.465c-0.314,2.399 -0.292,2.276 -2.465,2.563c-1.837,0.244 -3.712,0.202 -5.571,0.253c-1.095,0.029 -2.193,0.004 -3.289,-0.021c-0.409,-0.01 -0.616,0.15 -0.648,0.555c-0.011,0.147 -0.04,0.292 -0.045,0.439c-0.012,0.487 0.083,0.583 0.57,0.549c0.764,-0.054 1.527,-0.174 2.291,-0.172c2.885,0.009 5.772,0.056 8.658,0.09c0.219,0.002 0.46,0.068 0.65,-0.003c0.211,-0.08 0.426,-0.251 0.545,-0.442c0.13,-0.209 0.181,-0.482 0.214,-0.734c0.229,-1.745 0.448,-3.491 0.661,-5.238c0.191,-1.566 0.375,-3.133 0.549,-4.701c0.057,-0.51 0.074,-1.024 0.108,-1.536c0.027,-0.409 -0.16,-0.607 -0.571,-0.626c-1.824,-0.079 -3.646,-0.213 -5.471,-0.241c-1.494,-0.024 -2.991,0.071 -4.486,0.116c-0.694,0.02 -1.387,0.048 -2.08,0.068c-0.395,0.011 -0.609,0.192 -0.61,0.605c-0.001,0.21 -0.023,0.422 -0.039,0.697m-52.009,13.222c2.321,0.096 4.589,-0.341 6.871,-0.6c0.361,-0.042 0.503,-0.205 0.508,-0.565c0.014,-1.052 -0.276,-1.319 -1.301,-1.168c-0.072,0.012 -0.142,0.041 -0.214,0.048c-1.05,0.107 -2.099,0.268 -3.151,0.304c-1.825,0.062 -3.65,0.053 -5.475,0.063c-1.295,0.006 -1.541,-0.172 -1.998,-1.403c-0.075,-0.205 -0.126,-0.421 -0.169,-0.636c-0.274,-1.365 -0.565,-2.728 -0.805,-4.1c-0.128,-0.72 -0.21,-1.454 -0.233,-2.185c-0.022,-0.748 0.096,-0.821 0.845,-1.009c2.731,-0.688 5.529,-0.948 8.314,-1.284c0.687,-0.083 1.375,-0.159 2.062,-0.249c0.339,-0.045 0.369,-0.299 0.351,-0.574c-0.019,-0.3 -0.129,-0.471 -0.473,-0.449c-1.128,0.077 -2.257,0.122 -3.383,0.201c-1.745,0.123 -3.488,0.265 -5.231,0.402c-0.29,0.022 -0.581,0.049 -0.87,0.082c-1.013,0.119 -2.024,0.251 -3.037,0.357c-0.7,0.072 -0.75,0.083 -0.656,0.794c0.256,1.925 0.503,3.854 0.82,5.769c0.276,1.662 0.621,3.313 0.979,4.959c0.175,0.802 0.22,0.806 1.015,0.868c1.743,0.134 3.487,0.252 5.231,0.375m28.635,-15.875l0,0.012c-2.776,0 -5.553,0.001 -8.329,-0.001c-0.73,0 -1.461,-0.014 -2.191,-0.006c-0.94,0.009 -0.979,0.042 -0.881,1.019c0.079,0.804 0.202,1.602 0.318,2.401c0.189,1.305 0.407,2.607 0.577,3.916c0.112,0.872 0.141,1.756 0.238,2.631c0.196,1.749 0.409,3.495 0.624,5.241c0.077,0.62 0.147,1.243 0.288,1.849c0.119,0.505 0.359,0.556 1.04,0.477c0.498,-0.059 0.433,-0.381 0.431,-0.715c-0.011,-2.134 -0.246,-4.245 -0.609,-6.346c-0.356,-2.06 -0.778,-4.113 -0.716,-6.223c0.007,-0.255 -0.014,-0.518 -0.072,-0.765c-0.463,-1.961 0.087,-1.866 1.46,-1.869c5.407,-0.01 10.813,-0.022 16.218,-0.032c0.147,-0.001 0.293,-0.008 0.439,0.003c0.552,0.046 0.604,0.094 0.566,0.669c-0.157,2.38 -0.313,4.761 -0.493,7.138c-0.083,1.098 -0.244,2.19 -0.324,3.287c-0.096,1.319 -0.169,2.64 -0.202,3.961c-0.017,0.733 0.14,0.833 0.829,0.819c0.558,-0.011 0.829,-0.185 0.863,-0.857c0.111,-2.161 0.287,-4.321 0.442,-6.481c0.211,-2.929 0.425,-5.856 0.637,-8.786c0.021,-0.293 0.03,-0.587 0.042,-0.881c0.015,-0.319 -0.141,-0.471 -0.456,-0.464c-0.183,0.003 -0.366,0.003 -0.549,0.003l-10.19,0Zm26.237,12.631l0,-0.022c0.876,0 1.755,0.051 2.627,-0.012c1.233,-0.087 2.459,-0.269 3.689,-0.387c0.712,-0.067 1.01,-0.462 1.07,-1.146c0.108,-1.243 0.261,-2.48 0.372,-3.722c0.088,-0.983 0.136,-1.971 0.214,-2.954c0.044,-0.543 -0.033,-0.651 -0.564,-0.669c-1.823,-0.065 -3.646,-0.129 -5.469,-0.19c-1.458,-0.05 -2.916,-0.083 -4.374,-0.15c-0.45,-0.021 -0.549,0.182 -0.576,0.579c-0.143,2.014 -0.304,4.026 -0.465,6.038c-0.044,0.549 -0.127,1.095 -0.162,1.644c-0.063,0.992 -0.053,0.992 0.899,0.991c0.913,-0.002 1.826,0 2.739,0m-54.924,0.656l0.01,0.118c2.069,-0.184 4.137,-0.361 6.205,-0.554c0.835,-0.078 0.852,-0.098 0.744,-0.928c-0.123,-0.944 -0.294,-1.883 -0.424,-2.826c-0.208,-1.526 -0.382,-3.056 -0.606,-4.579c-0.118,-0.798 -0.155,-0.821 -0.973,-0.739c-1.233,0.123 -2.467,0.256 -3.692,0.441c-1.909,0.288 -3.814,0.602 -5.714,0.948c-0.773,0.141 -0.85,0.239 -0.722,1.052c0.306,1.956 0.667,3.902 1.025,5.848c0.046,0.245 0.206,0.469 0.316,0.701c0.175,0.368 0.454,0.533 0.873,0.524c0.986,-0.018 1.972,-0.006 2.958,-0.006m29.328,-3.326l-0.013,0c0,2.242 -0.004,4.485 0.003,6.727c0.001,0.74 0.025,0.756 0.716,0.777c0.329,0.011 0.659,0.001 0.987,0c1.57,0 3.142,-0.013 4.713,0c0.47,0.005 0.658,-0.186 0.654,-0.65c-0.004,-0.625 -0.007,-1.252 0.045,-1.874c0.247,-2.963 0.513,-5.923 0.773,-8.885c0.086,-0.985 0.191,-1.971 0.253,-2.959c0.052,-0.824 0.005,-0.866 -0.835,-0.87c-2.12,-0.009 -4.238,-0.009 -6.357,0c-0.929,0.004 -0.935,0.016 -0.937,1.007c-0.004,2.241 -0.002,4.485 -0.002,6.727m-0.644,-0.115l-0.01,0c0,-2.205 0.005,-4.41 -0.002,-6.615c-0.003,-0.991 -0.014,-1.001 -0.945,-1.006c-2.301,-0.014 -4.601,-0.016 -6.902,-0.022c-0.182,-0.001 -0.366,-0.008 -0.547,0.01c-0.267,0.027 -0.372,0.19 -0.329,0.456c0.063,0.397 0.141,0.793 0.183,1.193c0.17,1.678 0.226,3.376 0.518,5.031c0.46,2.61 0.857,5.213 0.786,7.871c-0.02,0.708 0.008,0.726 0.735,0.727c1.826,0.003 3.652,-0.007 5.477,-0.018c1.033,-0.005 1.035,-0.008 1.036,-1.013c0,-2.204 0,-4.41 0,-6.614m-33.367,-12.45c0,0.011 0,0.024 0.001,0.036c2.631,0 5.262,0.014 7.893,-0.005c1.774,-0.014 1.653,0.344 1.526,-1.776c-0.004,-0.073 -0.015,-0.146 -0.03,-0.218c-0.119,-0.595 -0.182,-0.661 -0.784,-0.686c-0.511,-0.022 -1.023,-0.007 -1.535,-0.018c-0.895,-0.018 -0.987,-0.07 -1.092,-0.981c-0.108,-0.948 -0.153,-1.904 -0.202,-2.858c-0.052,-1.02 -0.041,-1.021 -1.044,-1.027c-0.037,0 -0.074,0.001 -0.11,0.001c-4.458,0.001 -8.917,0.004 -13.375,0.007c-0.256,0 -0.513,-0.01 -0.768,0.007c-0.552,0.035 -0.612,0.092 -0.603,0.665c0.006,0.441 0.03,0.884 0.083,1.321c0.195,1.603 0.405,3.202 0.609,4.805c0.114,0.894 0.112,0.898 0.994,0.882c2.813,-0.049 5.625,-0.103 8.437,-0.155m68.074,-8.183c-0.001,-0.019 -0.001,-0.038 -0.001,-0.058c-2.518,0 -5.036,0 -7.554,0.001c-0.292,0 -0.595,-0.038 -0.871,0.031c-0.164,0.04 -0.358,0.232 -0.409,0.397c-0.071,0.235 -0.028,0.508 -0.028,0.766c0.001,1.211 0.022,2.423 0,3.635c-0.017,0.906 -0.226,1.11 -1.068,1.181c-0.872,0.074 -0.872,0.074 -0.901,0.951c-0.005,0.109 0,0.22 -0.01,0.33c-0.033,0.368 0.124,0.552 0.499,0.537c0.182,-0.007 0.365,-0.004 0.548,-0.004c5.437,-0.001 10.874,-0.002 16.312,-0.003c0.147,0 0.292,0.006 0.439,0c0.694,-0.029 0.75,-0.059 0.882,-0.709c0.14,-0.681 0.274,-1.366 0.362,-2.056c0.189,-1.49 0.371,-2.982 0.506,-4.476c0.051,-0.559 -0.072,-0.633 -0.61,-0.676c-0.144,-0.011 -0.292,-0.004 -0.437,-0.001c-2.553,0.051 -5.106,0.103 -7.659,0.154m-11.214,11.486c0.158,0.058 0.224,0.105 0.288,0.103c2.808,-0.097 5.615,-0.23 8.424,-0.283c1.162,-0.022 2.328,0.13 3.493,0.197c0.291,0.017 0.587,-0.016 0.876,0.013c0.55,0.054 0.725,0.196 0.723,0.761c-0.003,0.954 -0.035,1.911 -0.132,2.858c-0.239,2.334 -0.512,4.666 -0.794,6.996c-0.115,0.946 -0.249,1.893 -0.444,2.825c-0.227,1.085 -0.534,1.313 -1.672,1.286c-1.496,-0.036 -2.99,-0.174 -4.485,-0.167c-2.187,0.014 -4.375,0.111 -6.561,0.186c-0.825,0.028 -0.872,0.041 -0.95,0.851c-0.159,1.643 -0.222,3.295 -0.405,4.935c-0.081,0.725 0.074,0.854 0.741,0.819c0.109,-0.006 0.219,0 0.329,0c4.491,0.004 8.984,0.008 13.477,0.014c0.219,0 0.438,-0.005 0.657,-0.003c0.3,0.003 0.481,-0.144 0.539,-0.437c0.044,-0.215 0.082,-0.433 0.113,-0.651c0.319,-2.213 0.669,-4.421 0.945,-6.638c0.322,-2.584 0.579,-5.175 0.864,-7.762c0.092,-0.839 0.16,-1.681 0.283,-2.515c0.271,-1.849 0.572,-3.695 0.853,-5.543c0.119,-0.775 0.107,-0.779 -0.69,-0.803c-0.22,-0.006 -0.439,0 -0.658,0c-4.565,-0.006 -9.131,-0.009 -13.696,-0.017c-0.475,-0.001 -0.95,-0.065 -1.421,-0.035c-0.169,0.01 -0.451,0.199 -0.467,0.333c-0.11,0.898 -0.162,1.803 -0.23,2.677m-55.866,-2.469l0,-0.018c-2.631,0 -5.262,-0.003 -7.892,0.002c-0.746,0.001 -0.811,0.077 -0.719,0.831c0.112,0.911 0.226,1.822 0.367,2.728c0.624,3.985 1.245,7.97 1.89,11.952c0.394,2.425 0.831,4.843 1.241,7.265c0.145,0.854 0.169,0.904 1.045,0.884c1.789,-0.037 3.576,-0.129 5.365,-0.143c3.215,-0.026 6.43,-0.012 9.644,-0.014c0.256,0 0.511,-0.006 0.767,-0.011c0.387,-0.006 0.506,-0.207 0.434,-0.574c-0.176,-0.9 -0.356,-1.8 -0.509,-2.704c-0.115,-0.686 -0.194,-1.379 -0.283,-2.071c-0.04,-0.315 -0.203,-0.451 -0.516,-0.408c-0.181,0.025 -0.362,0.047 -0.543,0.069c-1.412,0.169 -2.82,0.432 -4.237,0.486c-2.699,0.102 -5.401,0.06 -8.083,-0.367c-0.497,-0.079 -0.805,-0.303 -0.939,-0.78c-0.131,-0.459 -0.302,-0.911 -0.381,-1.38c-0.453,-2.675 -0.897,-5.353 -1.315,-8.034c-0.131,-0.833 -0.173,-1.679 -0.254,-2.519c-0.037,-0.381 0.108,-0.639 0.495,-0.735c0.212,-0.054 0.419,-0.146 0.634,-0.174c1.445,-0.191 2.888,-0.402 4.337,-0.542c1.853,-0.18 3.711,-0.303 5.567,-0.445c0.801,-0.061 1.603,-0.115 2.405,-0.163c0.382,-0.025 0.651,-0.15 0.573,-0.599c-0.099,-0.578 -0.204,-1.155 -0.324,-1.729c-0.167,-0.792 -0.175,-0.803 -0.988,-0.805c-2.594,-0.006 -5.187,-0.002 -7.781,-0.002m28.273,-14.809c-4.923,-0.038 -13.18,-0.101 -21.439,-0.161c-1.158,-0.008 -1.191,-0.001 -1.199,1.118c-0.024,2.978 -0.024,5.956 -0.019,8.934c0.002,0.771 0.069,0.819 0.802,0.844c0.182,0.006 0.366,-0.003 0.549,-0.004c2.923,-0.015 5.846,-0.035 8.77,-0.041c13.155,-0.023 26.311,-0.044 39.467,-0.062c0.363,0 0.737,-0.002 1.089,0.075c1.1,0.239 1.097,0.253 1.116,-0.833c0.002,-0.147 0.003,-0.293 0.002,-0.441c-0.009,-2.794 -0.023,-5.588 -0.025,-8.383c-0.001,-1.034 0.012,-1.034 -1,-1.046c-0.073,-0.001 -0.147,0 -0.22,0l-27.893,0Zm3.891,11.393l0,-0.061c-6.654,0 -13.307,0.001 -19.96,0c-0.877,0 -1.755,0.005 -2.632,-0.005c-0.418,-0.005 -0.585,0.129 -0.515,0.592c0.221,1.452 0.391,2.91 0.6,4.364c0.252,1.743 0.532,3.483 0.782,5.227c0.276,1.924 0.516,3.854 0.798,5.778c0.377,2.578 0.759,5.156 1.18,7.726c0.284,1.739 0.649,3.464 0.953,5.199c0.086,0.486 0.292,0.691 0.801,0.664c0.876,-0.043 1.754,-0.017 2.631,-0.047c0.692,-0.023 1.382,-0.092 2.074,-0.13c0.338,-0.018 0.571,-0.138 0.544,-0.522c-0.041,-0.559 0.263,-0.926 0.711,-1.138c0.569,-0.27 0.684,-0.703 0.621,-1.262c-0.036,-0.329 0,-0.669 -0.065,-0.99c-0.248,-1.249 -0.5,-1.816 1.119,-2.377c0.347,-0.12 0.506,-0.387 0.469,-0.774c-0.113,-1.206 -0.192,-2.417 -0.327,-3.62c-0.151,-1.351 -0.425,-2.689 -0.511,-4.041c-0.2,-3.122 -0.776,-6.183 -1.301,-9.255c-0.132,-0.77 -0.04,-0.923 0.717,-0.948c0.219,-0.008 0.439,-0.005 0.658,-0.004c7.49,0.011 14.98,0.022 22.47,0.032c0.484,0 0.625,0.164 0.569,0.682c-0.051,0.474 -0.122,0.946 -0.157,1.42c-0.154,2.125 -0.293,4.252 -0.448,6.376c-0.072,0.989 -0.16,1.978 -0.253,2.965c-0.2,2.119 -0.398,4.241 -0.623,6.357c-0.064,0.6 0.015,1.115 0.545,1.451c0.929,0.586 1.05,1.367 0.639,2.323c-0.327,0.758 -0.102,1.355 0.596,1.772c0.489,0.292 0.67,0.696 0.652,1.284c-0.025,0.821 0.06,0.896 0.863,0.904c2.046,0.019 4.094,0.011 6.141,-0.005c0.616,-0.005 0.649,-0.059 0.699,-0.713c0.232,-3.04 0.459,-6.081 0.691,-9.121c0.085,-1.099 0.182,-2.197 0.271,-3.296c0.196,-2.415 0.39,-4.832 0.583,-7.248c0.123,-1.538 0.25,-3.076 0.361,-4.614c0.102,-1.393 0.204,-2.786 0.27,-4.18c0.027,-0.588 -0.025,-0.604 -0.627,-0.64c-0.146,-0.008 -0.292,-0.002 -0.439,-0.003c-7.384,-0.04 -14.767,-0.081 -22.15,-0.122m-3.244,-15.99c0.13,1.145 0.257,2.194 0.361,3.245c0.034,0.357 0.183,0.54 0.545,0.538c0.365,-0.002 0.731,0.004 1.096,0.004c8.481,-0.002 16.962,-0.006 25.442,-0.008c1.467,0 1.64,0.168 1.654,1.635c0.01,1.066 -0.011,2.133 0.015,3.2c0.021,0.885 0.058,0.917 0.963,0.918c3.143,0.005 6.286,-0.009 9.43,-0.002c2.23,0.003 4.459,0.023 6.689,0.046c1.107,0.011 1.343,0.169 1.286,1.267c-0.082,1.61 -0.29,3.214 -0.476,4.816c-0.081,0.692 -0.251,1.371 -0.36,2.06c-0.11,0.689 -0.402,1.189 -1.173,1.2c-0.401,0.007 -0.565,0.164 -0.618,0.58c-0.346,2.729 -0.736,5.453 -1.077,8.183c-0.292,2.331 -0.54,4.668 -0.804,7.002c-0.165,1.459 -0.296,2.922 -0.494,4.376c-0.183,1.343 -0.431,2.679 -0.661,4.015c-0.125,0.726 -0.265,0.863 -1.007,0.88c-1.206,0.028 -2.413,0.026 -3.619,0.028c-3.545,0.004 -7.091,0.005 -10.637,0.009c-0.255,0 -0.512,0.006 -0.767,0c-0.45,-0.008 -0.668,0.191 -0.668,0.662c0,0.365 -0.071,0.731 -0.085,1.097c-0.033,0.814 -0.026,0.833 -0.853,0.836c-1.974,0.009 -3.947,-0.001 -5.921,-0.004c-0.355,-0.001 -0.709,0 -1.141,0c0.403,0.555 0.719,0.998 1.043,1.435c0.815,1.094 0.403,2.243 0.109,3.368c-0.039,0.149 -0.405,0.286 -0.625,0.298c-0.619,0.033 -1.242,-0.008 -1.863,-0.011c-7.383,-0.03 -14.767,-0.054 -22.15,-0.092c-1.352,-0.007 -2.703,-0.096 -4.055,-0.099c-0.547,-0.001 -0.81,-0.254 -0.918,-0.732c-0.114,-0.499 -0.2,-1.005 -0.284,-1.511c-0.063,-0.378 0.163,-0.612 0.43,-0.831c0.452,-0.371 0.903,-0.744 1.332,-1.141c0.154,-0.142 0.289,-0.34 0.352,-0.538c0.085,-0.266 0.021,-0.531 -0.319,-0.574c-0.288,-0.037 -0.583,-0.04 -0.875,-0.044c-1.535,-0.018 -3.07,-0.029 -4.605,-0.045c-0.771,-0.008 -0.857,-0.086 -0.967,-0.858c-0.213,-1.497 -0.213,-1.496 -1.731,-1.498c-4.569,-0.007 -9.139,-0.01 -13.707,-0.03c-0.692,-0.002 -1.386,-0.07 -2.076,-0.144c-0.728,-0.076 -0.794,-0.158 -0.903,-0.831c-0.229,-1.412 -0.45,-2.827 -0.689,-4.237c-0.706,-4.16 -1.447,-8.315 -2.115,-12.48c-0.3,-1.884 -0.493,-3.787 -0.671,-5.686c-0.087,-0.926 -0.107,-0.97 -0.913,-1.012c-0.522,-0.027 -0.809,-0.25 -0.864,-0.782c-0.235,-2.3 -0.52,-4.596 -0.701,-6.901c-0.1,-1.275 -0.026,-1.292 1.241,-1.289c4.714,0.013 9.43,0.033 14.146,0.05c0.145,0.001 0.293,0.014 0.438,0.008c0.596,-0.023 0.634,-0.041 0.649,-0.628c0.022,-0.882 -0.009,-1.766 0.016,-2.648c0.019,-0.734 0.065,-1.469 0.138,-2.199c0.082,-0.824 0.267,-1.008 1.111,-1.036c1.388,-0.045 2.777,-0.062 4.167,-0.065c5.592,-0.01 11.184,-0.009 16.777,-0.013c0.147,0 0.293,-0.001 0.439,-0.001c1.264,-0.004 1.223,0 1.089,-1.222c-0.339,-3.101 -0.641,-6.207 -0.951,-9.312c-0.084,-0.839 -0.15,-1.682 -0.216,-2.523c-0.017,-0.219 -0.024,-0.443 -0.001,-0.661c0.05,-0.499 0.267,-0.65 0.732,-0.492c0.379,0.13 0.751,0.288 1.116,0.457c0.765,0.354 1.551,0.391 2.351,0.164c2.107,-0.596 4.233,-1.121 6.266,-1.98c0.997,-0.422 2.083,-0.677 3.154,-0.865c0.624,-0.109 1.316,-0.014 1.944,0.133c0.853,0.201 1.46,0.815 1.485,1.707c0.058,2.094 0.668,4.139 0.493,6.248c-0.015,0.183 0.007,0.369 -0.006,0.552c-0.059,0.804 -0.264,0.938 -1.053,0.692c-0.243,-0.077 -0.496,-0.145 -0.721,-0.262c-1.296,-0.676 -2.623,-0.55 -3.935,-0.112c-1.398,0.467 -2.714,1.144 -3.81,2.132c-1.373,1.236 -2.94,1.703 -4.738,1.564c-0.507,-0.039 -1.02,-0.006 -1.676,-0.006" style="fill:#231f20;fill-rule:nonzero;"/><path d="M44.141,28.883c7.384,0.041 14.767,0.082 22.151,0.123c0.146,0.001 0.293,-0.006 0.439,0.003c0.602,0.036 0.654,0.05 0.627,0.639c-0.066,1.395 -0.169,2.787 -0.27,4.18c-0.112,1.539 -0.237,3.076 -0.361,4.614c-0.193,2.416 -0.387,4.833 -0.583,7.249c-0.089,1.098 -0.186,2.196 -0.271,3.295c-0.233,3.04 -0.459,6.082 -0.691,9.121c-0.05,0.654 -0.083,0.708 -0.699,0.713c-2.047,0.016 -4.094,0.024 -6.14,0.005c-0.803,-0.008 -0.889,-0.084 -0.864,-0.904c0.017,-0.588 -0.164,-0.992 -0.651,-1.284c-0.699,-0.417 -0.924,-1.014 -0.597,-1.772c0.411,-0.957 0.29,-1.737 -0.639,-2.323c-0.531,-0.336 -0.609,-0.852 -0.545,-1.451c0.226,-2.117 0.422,-4.237 0.623,-6.357c0.093,-0.988 0.181,-1.976 0.253,-2.965c0.154,-2.125 0.294,-4.251 0.448,-6.376c0.035,-0.474 0.106,-0.946 0.158,-1.421c0.055,-0.517 -0.086,-0.68 -0.569,-0.681c-7.491,-0.01 -14.981,-0.022 -22.471,-0.031c-0.22,-0.001 -0.44,-0.004 -0.659,0.002c-0.756,0.026 -0.848,0.179 -0.716,0.949c0.526,3.071 1.102,6.134 1.301,9.255c0.087,1.352 0.359,2.691 0.51,4.041c0.135,1.203 0.215,2.414 0.329,3.62c0.037,0.387 -0.123,0.654 -0.471,0.775c-1.617,0.559 -1.365,1.127 -1.117,2.375c0.064,0.321 0.027,0.662 0.064,0.99c0.063,0.561 -0.051,0.994 -0.621,1.262c-0.447,0.212 -0.752,0.58 -0.712,1.139c0.027,0.383 -0.204,0.504 -0.544,0.523c-0.692,0.037 -1.381,0.106 -2.073,0.129c-0.876,0.03 -1.756,0.004 -2.632,0.048c-0.507,0.026 -0.714,-0.179 -0.799,-0.665c-0.305,-1.735 -0.671,-3.46 -0.955,-5.199c-0.42,-2.57 -0.802,-5.148 -1.179,-7.725c-0.281,-1.924 -0.522,-3.854 -0.798,-5.778c-0.249,-1.745 -0.53,-3.485 -0.781,-5.228c-0.211,-1.454 -0.38,-2.912 -0.601,-4.363c-0.07,-0.464 0.097,-0.598 0.515,-0.593c0.878,0.01 1.754,0.006 2.632,0.006c6.653,0.001 13.305,0 19.959,0l0,0.06Z" style="fill:#ffd771;fill-rule:nonzero;"/><path d="M40.252,17.49l27.892,0c0.073,0 0.146,-0.001 0.219,0c1.014,0.012 1,0.012 1.001,1.047c0.001,2.793 0.016,5.588 0.026,8.382c0,0.147 0,0.293 -0.003,0.441c-0.019,1.087 -0.017,1.072 -1.116,0.833c-0.352,-0.077 -0.726,-0.074 -1.089,-0.074c-13.156,0.017 -26.312,0.037 -39.468,0.062c-2.923,0.005 -5.847,0.026 -8.77,0.041c-0.183,0 -0.366,0.008 -0.548,0.003c-0.732,-0.026 -0.8,-0.073 -0.802,-0.843c-0.005,-2.979 -0.005,-5.957 0.019,-8.934c0.008,-1.12 0.041,-1.127 1.199,-1.119c8.258,0.061 16.516,0.123 21.44,0.161" style="fill:#24aae1;fill-rule:nonzero;"/><path d="M11.978,32.299c2.593,0 5.187,-0.004 7.781,0.002c0.814,0.002 0.822,0.013 0.987,0.804c0.122,0.574 0.226,1.152 0.325,1.73c0.077,0.449 -0.191,0.574 -0.573,0.598c-0.803,0.048 -1.604,0.102 -2.404,0.164c-1.857,0.142 -3.715,0.265 -5.567,0.444c-1.45,0.141 -2.894,0.352 -4.339,0.543c-0.214,0.028 -0.421,0.12 -0.633,0.173c-0.387,0.097 -0.533,0.355 -0.495,0.736c0.081,0.84 0.124,1.687 0.253,2.519c0.42,2.681 0.862,5.358 1.316,8.034c0.08,0.469 0.251,0.921 0.381,1.38c0.134,0.477 0.442,0.701 0.939,0.78c2.682,0.427 5.384,0.469 8.082,0.367c1.418,-0.053 2.825,-0.317 4.237,-0.486c0.182,-0.022 0.363,-0.044 0.544,-0.069c0.312,-0.042 0.477,0.093 0.517,0.408c0.087,0.691 0.167,1.385 0.283,2.071c0.152,0.904 0.332,1.805 0.509,2.704c0.071,0.367 -0.048,0.568 -0.434,0.574c-0.256,0.004 -0.512,0.01 -0.767,0.01c-3.215,0.004 -6.431,-0.011 -9.646,0.014c-1.788,0.015 -3.576,0.107 -5.364,0.144c-0.876,0.02 -0.9,-0.03 -1.044,-0.883c-0.411,-2.423 -0.848,-4.841 -1.242,-7.266c-0.644,-3.982 -1.266,-7.967 -1.89,-11.952c-0.141,-0.907 -0.256,-1.817 -0.367,-2.727c-0.092,-0.755 -0.027,-0.831 0.72,-0.832c2.63,-0.004 5.26,-0.002 7.891,-0.002l0,0.018Z" style="fill:#fec143;fill-rule:nonzero;"/><path d="M67.844,34.768c0.068,-0.874 0.12,-1.779 0.23,-2.677c0.016,-0.134 0.298,-0.323 0.467,-0.333c0.471,-0.031 0.946,0.034 1.421,0.035c4.565,0.009 9.131,0.012 13.696,0.016c0.219,0 0.438,-0.004 0.657,0.001c0.799,0.024 0.81,0.029 0.692,0.803c-0.282,1.848 -0.583,3.693 -0.854,5.543c-0.123,0.834 -0.191,1.677 -0.283,2.516c-0.285,2.586 -0.542,5.177 -0.864,7.761c-0.276,2.217 -0.626,4.425 -0.945,6.638c-0.031,0.218 -0.069,0.435 -0.113,0.651c-0.058,0.293 -0.239,0.439 -0.539,0.437c-0.219,-0.002 -0.438,0.002 -0.657,0.002c-4.493,-0.005 -8.986,-0.008 -13.477,-0.014c-0.11,0 -0.22,-0.005 -0.329,0.001c-0.667,0.035 -0.822,-0.094 -0.741,-0.819c0.182,-1.64 0.247,-3.292 0.405,-4.936c0.078,-0.809 0.125,-0.821 0.95,-0.85c2.186,-0.075 4.373,-0.173 6.561,-0.185c1.495,-0.009 2.989,0.13 4.485,0.166c1.138,0.027 1.445,-0.202 1.673,-1.287c0.194,-0.931 0.328,-1.878 0.443,-2.824c0.282,-2.33 0.555,-4.662 0.794,-6.996c0.097,-0.947 0.129,-1.905 0.133,-2.858c0.002,-0.565 -0.174,-0.707 -0.724,-0.761c-0.29,-0.029 -0.585,0.004 -0.876,-0.013c-1.165,-0.067 -2.331,-0.219 -3.493,-0.197c-2.809,0.053 -5.616,0.186 -8.424,0.283c-0.064,0.002 -0.13,-0.046 -0.288,-0.103" style="fill:#fec143;fill-rule:nonzero;"/><path d="M79.058,23.282c2.552,-0.052 5.106,-0.103 7.659,-0.154c0.146,-0.003 0.293,-0.009 0.438,0.001c0.537,0.043 0.66,0.117 0.609,0.676c-0.135,1.494 -0.317,2.986 -0.506,4.476c-0.089,0.689 -0.222,1.375 -0.362,2.056c-0.132,0.65 -0.188,0.68 -0.883,0.708c-0.147,0.007 -0.292,0.001 -0.439,0.001c-5.436,0.001 -10.874,0.002 -16.312,0.003c-0.183,0 -0.365,-0.003 -0.547,0.004c-0.375,0.015 -0.532,-0.169 -0.499,-0.537c0.01,-0.11 0.006,-0.221 0.01,-0.331c0.029,-0.876 0.029,-0.876 0.901,-0.95c0.842,-0.071 1.052,-0.275 1.068,-1.181c0.022,-1.212 0.001,-2.424 0,-3.636c0,-0.257 -0.043,-0.53 0.029,-0.765c0.049,-0.165 0.244,-0.356 0.407,-0.397c0.277,-0.068 0.579,-0.03 0.871,-0.03c2.52,-0.001 5.037,-0.001 7.555,-0.001c0,0.019 0,0.039 0.001,0.057" style="fill:#098fcf;fill-rule:nonzero;"/><path d="M10.984,31.465c-2.812,0.052 -5.624,0.105 -8.436,0.156c-0.882,0.015 -0.881,0.01 -0.995,-0.884c-0.204,-1.602 -0.414,-3.201 -0.609,-4.805c-0.053,-0.437 -0.077,-0.88 -0.084,-1.319c-0.008,-0.574 0.052,-0.632 0.605,-0.667c0.254,-0.016 0.511,-0.007 0.766,-0.007c4.459,-0.002 8.917,-0.005 13.376,-0.007c0.036,0 0.073,0 0.11,0c1.003,0.006 0.991,0.007 1.044,1.027c0.049,0.953 0.094,1.909 0.203,2.857c0.104,0.912 0.196,0.963 1.091,0.982c0.512,0.011 1.024,-0.004 1.535,0.018c0.602,0.024 0.665,0.091 0.784,0.685c0.014,0.073 0.026,0.145 0.031,0.219c0.126,2.121 0.247,1.763 -1.527,1.775c-2.631,0.02 -5.262,0.006 -7.893,0.006c-0.001,-0.013 -0.001,-0.024 -0.001,-0.036" style="fill:#098fcf;fill-rule:nonzero;"/><path d="M44.35,43.915c0,2.204 0.001,4.41 0,6.614c0,1.004 -0.002,1.008 -1.034,1.013c-1.826,0.011 -3.652,0.021 -5.478,0.018c-0.726,-0.001 -0.755,-0.018 -0.735,-0.727c0.071,-2.658 -0.327,-5.262 -0.786,-7.87c-0.292,-1.656 -0.348,-3.354 -0.519,-5.032c-0.041,-0.4 -0.119,-0.796 -0.182,-1.193c-0.043,-0.266 0.062,-0.429 0.329,-0.456c0.181,-0.018 0.364,-0.011 0.547,-0.01c2.301,0.006 4.601,0.009 6.902,0.022c0.931,0.005 0.942,0.015 0.945,1.006c0.007,2.205 0.002,4.41 0.002,6.615l0.009,0Z" style="fill:#c39a6b;fill-rule:nonzero;"/><path d="M44.995,44.03c0,-2.242 -0.003,-4.486 0.002,-6.727c0.002,-0.991 0.008,-1.003 0.937,-1.007c2.119,-0.009 4.238,-0.009 6.357,0c0.841,0.004 0.887,0.046 0.835,0.87c-0.062,0.988 -0.167,1.974 -0.253,2.959c-0.26,2.962 -0.527,5.922 -0.773,8.885c-0.052,0.622 -0.048,1.249 -0.045,1.874c0.004,0.464 -0.184,0.655 -0.654,0.65c-1.571,-0.013 -3.142,0 -4.713,0c-0.329,0.001 -0.658,0.011 -0.987,0c-0.691,-0.021 -0.715,-0.037 -0.716,-0.777c-0.007,-2.242 -0.003,-4.485 -0.003,-6.727l0.013,0Z" style="fill:#c39a6b;fill-rule:nonzero;"/><path d="M15.667,47.356c-0.987,0 -1.972,-0.013 -2.958,0.006c-0.419,0.009 -0.699,-0.157 -0.874,-0.525c-0.11,-0.231 -0.269,-0.455 -0.314,-0.699c-0.359,-1.947 -0.719,-3.893 -1.027,-5.849c-0.127,-0.812 -0.05,-0.911 0.723,-1.052c1.9,-0.346 3.805,-0.66 5.715,-0.948c1.225,-0.184 2.458,-0.319 3.691,-0.441c0.819,-0.082 0.855,-0.06 0.973,0.739c0.224,1.523 0.398,3.053 0.606,4.578c0.129,0.944 0.301,1.883 0.424,2.828c0.107,0.829 0.092,0.849 -0.743,0.927c-2.068,0.194 -4.138,0.371 -6.206,0.554l-0.01,-0.118Z" style="fill:#78c8ef;fill-rule:nonzero;"/><path d="M70.591,46.699c-0.913,0 -1.826,-0.001 -2.739,0c-0.953,0.001 -0.961,0.002 -0.899,-0.99c0.035,-0.55 0.119,-1.096 0.162,-1.645c0.161,-2.011 0.322,-4.024 0.464,-6.037c0.029,-0.397 0.127,-0.601 0.576,-0.579c1.458,0.067 2.917,0.1 4.375,0.149c1.823,0.062 3.646,0.126 5.469,0.19c0.53,0.019 0.607,0.128 0.564,0.67c-0.078,0.984 -0.125,1.971 -0.214,2.954c-0.112,1.241 -0.264,2.479 -0.372,3.721c-0.06,0.685 -0.358,1.08 -1.07,1.148c-1.23,0.117 -2.456,0.299 -3.689,0.386c-0.872,0.062 -1.752,0.012 -2.627,0.012l0,0.021Z" style="fill:#78c8ef;fill-rule:nonzero;"/><path d="M44.354,34.069l10.191,0c0.183,0 0.366,0 0.547,-0.003c0.317,-0.007 0.472,0.145 0.458,0.464c-0.013,0.294 -0.023,0.588 -0.043,0.881c-0.212,2.929 -0.427,5.857 -0.636,8.786c-0.156,2.16 -0.331,4.319 -0.443,6.481c-0.035,0.672 -0.305,0.846 -0.864,0.857c-0.688,0.014 -0.845,-0.086 -0.827,-0.819c0.032,-1.321 0.105,-2.642 0.201,-3.961c0.08,-1.097 0.242,-2.189 0.324,-3.287c0.179,-2.377 0.336,-4.758 0.494,-7.138c0.037,-0.575 -0.015,-0.623 -0.568,-0.669c-0.145,-0.011 -0.292,-0.004 -0.438,-0.003c-5.406,0.01 -10.811,0.022 -16.217,0.032c-1.373,0.003 -1.924,-0.092 -1.462,1.869c0.059,0.247 0.08,0.51 0.072,0.765c-0.061,2.11 0.361,4.163 0.717,6.223c0.363,2.101 0.598,4.212 0.609,6.346c0.001,0.334 0.067,0.656 -0.431,0.715c-0.682,0.079 -0.922,0.028 -1.04,-0.477c-0.141,-0.606 -0.212,-1.229 -0.288,-1.849c-0.216,-1.746 -0.429,-3.492 -0.624,-5.241c-0.097,-0.875 -0.126,-1.759 -0.239,-2.631c-0.169,-1.309 -0.387,-2.611 -0.577,-3.916c-0.116,-0.799 -0.238,-1.597 -0.318,-2.401c-0.097,-0.977 -0.058,-1.01 0.881,-1.019c0.731,-0.008 1.462,0.006 2.192,0.006c2.777,0.002 5.552,0.001 8.329,0.001l0,-0.012Z" style="fill:#f68d3f;fill-rule:nonzero;"/><path d="M15.719,49.945c-1.744,-0.125 -3.488,-0.242 -5.231,-0.376c-0.795,-0.061 -0.84,-0.066 -1.015,-0.868c-0.358,-1.646 -0.703,-3.297 -0.979,-4.959c-0.317,-1.916 -0.564,-3.844 -0.82,-5.77c-0.094,-0.71 -0.044,-0.721 0.656,-0.794c1.013,-0.104 2.024,-0.237 3.037,-0.356c0.289,-0.033 0.58,-0.06 0.87,-0.083c1.743,-0.136 3.486,-0.278 5.231,-0.402c1.126,-0.078 2.255,-0.123 3.383,-0.199c0.344,-0.023 0.454,0.148 0.473,0.448c0.018,0.276 -0.012,0.529 -0.351,0.574c-0.687,0.089 -1.375,0.166 -2.062,0.249c-2.785,0.336 -5.583,0.596 -8.314,1.284c-0.749,0.188 -0.867,0.26 -0.845,1.009c0.023,0.731 0.105,1.466 0.233,2.185c0.24,1.372 0.531,2.735 0.805,4.1c0.043,0.215 0.094,0.431 0.169,0.635c0.457,1.232 0.703,1.41 1.998,1.404c1.825,-0.01 3.65,-0.001 5.475,-0.063c1.052,-0.036 2.101,-0.197 3.152,-0.304c0.072,-0.007 0.141,-0.036 0.213,-0.048c1.025,-0.152 1.315,0.116 1.301,1.168c-0.005,0.361 -0.147,0.523 -0.508,0.565c-2.282,0.258 -4.55,0.695 -6.871,0.601" style="fill:#f68d3f;fill-rule:nonzero;"/><path d="M67.728,36.722c0.016,-0.275 0.038,-0.487 0.039,-0.697c0.001,-0.413 0.215,-0.594 0.61,-0.605c0.693,-0.02 1.387,-0.048 2.079,-0.068c1.496,-0.045 2.993,-0.14 4.487,-0.116c1.825,0.028 3.647,0.161 5.471,0.241c0.411,0.019 0.598,0.217 0.571,0.627c-0.034,0.512 -0.051,1.025 -0.108,1.535c-0.174,1.568 -0.358,3.135 -0.549,4.701c-0.213,1.747 -0.432,3.493 -0.661,5.238c-0.033,0.252 -0.084,0.525 -0.214,0.734c-0.119,0.191 -0.335,0.362 -0.545,0.442c-0.189,0.072 -0.431,0.005 -0.65,0.003c-2.886,-0.034 -5.773,-0.081 -8.658,-0.09c-0.764,-0.002 -1.527,0.118 -2.291,0.172c-0.487,0.034 -0.582,-0.062 -0.57,-0.549c0.005,-0.147 0.033,-0.292 0.045,-0.439c0.032,-0.404 0.239,-0.565 0.648,-0.555c1.096,0.025 2.193,0.05 3.289,0.02c1.859,-0.05 3.734,-0.008 5.571,-0.252c2.174,-0.287 2.151,-0.164 2.465,-2.563c0.281,-2.146 0.134,-4.328 0.549,-6.465c0.165,-0.853 -0.059,-1.024 -0.918,-1.041c-2.116,-0.043 -4.23,-0.128 -6.346,-0.182c-1.204,-0.033 -2.411,-0.036 -3.616,-0.054c-0.211,-0.004 -0.422,-0.022 -0.698,-0.037" style="fill:#f68d3f;fill-rule:nonzero;"/><path d="M58.812,62.134c0.013,0.05 0.062,0.151 0.062,0.252c-0.004,1.524 -0.236,1.807 -1.702,1.524c-1.675,-0.323 -3.346,-0.145 -5.017,-0.173c-1.459,-0.024 -2.919,0.071 -4.379,0.078c-5.625,0.028 -11.25,0.042 -16.875,0.058c-0.769,0.003 -0.769,0 -0.815,-0.776c-0.01,-0.183 -0.024,-0.367 -0.029,-0.55c-0.011,-0.28 0.15,-0.39 0.403,-0.396c0.109,-0.004 0.219,0.006 0.328,0.006c3.653,0.012 7.306,0.017 10.959,0.035c5.039,0.025 10.079,0.065 15.119,0.084c0.636,0.001 1.274,-0.09 1.946,-0.142" style="fill:#9b9fac;fill-rule:nonzero;"/><path d="M44.357,53.482c3.4,0 6.8,-0.001 10.198,0c1.256,0 1.506,0.37 0.958,1.502c-0.109,0.225 -0.4,0.418 -0.648,0.504c-0.265,0.091 -0.578,0.045 -0.87,0.045c-5.995,0.021 -11.99,0.036 -17.985,0.063c-0.692,0.004 -1.384,0.072 -2.076,0.11c-0.344,0.018 -0.563,-0.102 -0.57,-0.489c-0.005,-0.257 -0.02,-0.515 -0.05,-0.77c-0.123,-1.028 -0.127,-1.011 0.846,-1.009c3.398,0.008 6.798,0.004 10.197,0.004l0,0.04Z" style="fill:#9b9fac;fill-rule:nonzero;"/><path d="M44.344,57.898l11.293,0c0.11,0 0.219,-0.001 0.329,0.002c0.837,0.022 0.837,0.023 0.832,0.853c-0.004,0.738 -0.004,0.755 -0.81,0.758c-3.398,0.012 -6.797,0.005 -10.197,0.023c-4.166,0.023 -8.331,0.065 -12.497,0.098c-1.282,0.012 -1.292,0 -1.24,-1.271c0.023,-0.553 0.075,-0.594 0.672,-0.574c0.839,0.028 1.678,0.069 2.517,0.071c3.034,0.009 6.067,0.004 9.101,0.004l0,0.036Z" style="fill:#9b9fac;fill-rule:nonzero;"/><path d="M49.626,6.443c-0.003,-0.976 -0.692,-1.675 -1.643,-1.666c-0.919,0.007 -1.424,0.646 -1.443,1.823c-0.013,0.898 0.576,1.447 1.547,1.438c0.959,-0.008 1.542,-0.612 1.539,-1.595m-3.838,5.091c-0.567,-1.221 -0.689,-2.509 -0.96,-3.755c-0.24,-1.11 -0.444,-2.227 -0.672,-3.34c-0.14,-0.681 -0.13,-0.747 0.539,-0.938c1.683,-0.482 3.391,-0.879 4.998,-1.607c0.493,-0.224 0.623,-0.134 0.733,0.425c0.255,1.295 0.484,2.595 0.726,3.891c0.094,0.506 0.177,1.013 0.299,1.51c0.096,0.383 0.032,0.627 -0.378,0.758c-1.837,0.591 -3.441,1.59 -4.896,2.848c-0.103,0.088 -0.243,0.131 -0.389,0.208" style="fill:#fff;fill-rule:nonzero;"/><path d="M42.747,12.271c-0.329,0 -0.658,0.014 -0.986,-0.002c-0.873,-0.043 -0.981,-0.129 -1.102,-1.023c-0.107,-0.799 -0.175,-1.604 -0.248,-2.408c-0.143,-1.568 -0.28,-3.139 -0.416,-4.709c-0.012,-0.145 -0.055,-0.319 0.004,-0.432c0.066,-0.127 0.223,-0.248 0.36,-0.28c0.125,-0.028 0.285,0.049 0.414,0.114c0.638,0.314 1.312,0.453 2.018,0.382c0.443,-0.045 0.671,0.105 0.752,0.562c0.166,0.938 0.366,1.87 0.558,2.803c0.276,1.326 0.55,2.651 0.838,3.974c0.136,0.621 0.053,0.834 -0.555,0.935c-0.537,0.089 -1.09,0.078 -1.636,0.11c0,-0.007 -0.001,-0.017 -0.001,-0.026" style="fill:#39b54a;fill-rule:nonzero;"/><path d="M30.693,61.288c0.278,-0.233 0.568,-0.455 0.832,-0.703c0.31,-0.292 0.655,-0.428 1.087,-0.423c3.653,0.037 7.304,0.065 10.957,0.088c3.581,0.021 7.16,0.034 10.741,0.048c0.986,0.003 1.972,0.015 2.958,-0.004c0.486,-0.009 0.839,0.182 1.119,0.565c0.247,0.336 0.19,0.559 -0.2,0.611c-0.287,0.039 -0.583,0.029 -0.874,0.029c-8.074,0.018 -16.147,0.035 -24.22,0.051c-0.758,0.002 -1.516,0 -2.275,0c-0.041,-0.087 -0.083,-0.174 -0.125,-0.262" style="fill:#c4c8d7;fill-rule:nonzero;"/><path d="M56.029,8.804c-0.176,-0.023 -0.33,-0.011 -0.45,-0.068c-0.903,-0.424 -1.831,-0.713 -2.846,-0.621c-0.383,0.034 -0.477,-0.229 -0.543,-0.544c-0.266,-1.289 -0.546,-2.575 -0.822,-3.862c-0.123,-0.571 -0.231,-1.147 -0.385,-1.711c-0.11,-0.408 0.031,-0.621 0.406,-0.747c0.988,-0.331 2.004,-0.362 3.024,-0.257c0.598,0.062 0.995,0.417 1.127,1.032c0.022,0.107 0.042,0.215 0.052,0.325c0.173,2 0.605,3.977 0.533,5.999c-0.005,0.14 -0.057,0.277 -0.096,0.454" style="fill:#ed1c24;fill-rule:nonzero;"/><path d="M56.224,57.209l-23.575,0c0.56,-0.892 0.824,-1.049 1.736,-1.044c5.255,0.026 10.511,0.047 15.765,0.077c1.57,0.008 3.139,0.065 4.707,0.036c0.643,-0.012 1.02,0.233 1.367,0.931" style="fill:#c4c8d7;fill-rule:nonzero;"/><path d="M33.513,52.788c0.699,-0.557 1.378,-0.647 2.143,-0.639c5.038,0.059 10.076,0.067 15.116,0.1c1.058,0.008 2.116,0.046 3.173,0.093c0.218,0.011 0.431,0.128 0.693,0.21c-0.123,0.137 -0.167,0.229 -0.211,0.229c-6.934,0.007 -13.868,0.007 -20.914,0.007" style="fill:#c4c8d7;fill-rule:nonzero;"/><path d="M49.626,6.443c0.003,0.983 -0.58,1.587 -1.539,1.595c-0.971,0.009 -1.56,-0.54 -1.547,-1.438c0.019,-1.177 0.524,-1.816 1.443,-1.823c0.951,-0.009 1.64,0.69 1.643,1.666" style="fill:#231f20;fill-rule:nonzero;"/><g><path d="M25.518,26.247l4.066,0l0,-1.292l-2.606,0l0,-1.766l2.557,0l0,-1.292l-2.557,0l0,-1.658l2.606,0l0,-1.292l-4.066,0l0,7.3Z" style="fill:#fff;fill-rule:nonzero;"/><path d="M34.199,22.291c-0.108,-1.302 -1.185,-1.627 -1.91,-1.627c-1.039,0 -1.931,0.66 -1.931,1.726c0.01,0.779 0.598,1.184 1.323,1.41c0.99,0.346 1.391,0.474 1.391,0.938c0.01,0.365 -0.333,0.631 -0.734,0.631c-0.245,0 -0.745,-0.118 -0.794,-0.7l-1.284,0c0.098,1.312 1.225,1.746 2.058,1.746c1.127,0 2.058,-0.711 2.038,-1.825c-0.01,-1.164 -0.941,-1.421 -1.803,-1.658c-0.509,-0.148 -0.901,-0.335 -0.911,-0.68c0,-0.267 0.206,-0.543 0.637,-0.543c0.499,0 0.646,0.296 0.656,0.582l1.264,0Z" style="fill:#fff;fill-rule:nonzero;"/><path d="M39.265,24.274c-0.196,0.444 -0.647,0.927 -1.45,0.927c-0.912,0 -1.588,-0.69 -1.588,-1.667c0,-0.473 0.167,-0.907 0.441,-1.203c0.314,-0.306 0.676,-0.474 1.147,-0.464c0.705,0 1.224,0.404 1.45,0.977l1.313,0c-0.314,-1.322 -1.46,-2.18 -2.812,-2.18c-1.607,0 -2.832,1.272 -2.832,2.87c0,1.549 1.176,2.881 2.881,2.881c1.391,0 2.459,-0.938 2.763,-2.141l-1.313,0Z" style="fill:#fff;fill-rule:nonzero;"/><path d="M46.407,20.831l-1.283,0l0,2.989c0,0.77 -0.314,1.381 -1.235,1.381c-0.911,0.01 -1.176,-0.621 -1.176,-1.42l0,-2.95l-1.283,0l0,3.275c0,0.947 0.333,2.299 2.097,2.309c0.97,0.009 1.45,-0.464 1.675,-0.888l0,0.72l1.205,0l0,-5.416Z" style="fill:#fff;fill-rule:nonzero;"/><path d="M52.874,23.968c0.108,-0.947 -0.137,-1.795 -0.794,-2.476c-0.5,-0.523 -1.205,-0.828 -2.008,-0.828c-1.627,0 -2.822,1.351 -2.822,2.89c0,1.509 1.185,2.861 2.841,2.861c0.559,0 1.088,-0.158 1.538,-0.474c0.451,-0.306 0.833,-0.76 1.088,-1.361l-1.323,0c-0.245,0.444 -0.666,0.73 -1.293,0.73c-0.735,0.01 -1.499,-0.474 -1.558,-1.342l4.331,0Zm-4.311,-0.986c0.049,-0.533 0.568,-1.224 1.518,-1.224c0.941,-0.009 1.48,0.711 1.529,1.224l-3.047,0Z" style="fill:#fff;fill-rule:nonzero;"/><rect x="53.765" y="18.947" width="1.284" height="7.3" style="fill:#fff;fill-rule:nonzero;"/><path d="M61.77,20.831l-1.283,0l0,0.789c-0.235,-0.434 -0.833,-0.956 -1.813,-0.956c-1.509,0 -2.733,1.164 -2.733,2.87c0,1.529 1.009,2.881 2.733,2.881c0.755,0 1.47,-0.316 1.813,-0.947l0,0.779l1.283,0l0,-5.416Zm-4.546,2.723c0,-0.839 0.588,-1.687 1.626,-1.687c0.774,0 1.274,0.444 1.5,0.957c0.107,0.237 0.156,0.503 0.146,0.759c-0.019,0.267 -0.078,0.523 -0.205,0.76c-0.245,0.493 -0.716,0.868 -1.431,0.868c-1.156,0 -1.636,-0.977 -1.636,-1.647l0,-0.01Z" style="fill:#fff;fill-rule:nonzero;"/></g></g></svg>