<?xml version="1.0" encoding="UTF-8" standalone="no"?><!DOCTYPE svg PUBLIC "-//W3C//DTD SVG 1.1//EN" "http://www.w3.org/Graphics/SVG/1.1/DTD/svg11.dtd"><svg width="100%" height="100%" viewBox="0 0 95 53" version="1.1" xmlns="http://www.w3.org/2000/svg" xmlns:xlink="http://www.w3.org/1999/xlink" xml:space="preserve" xmlns:serif="http://www.serif.com/" style="fill-rule:evenodd;clip-rule:evenodd;stroke-linejoin:round;stroke-miterlimit:2;"><g><path d="M67.628,13.298c-1.658,0 -2.844,0.008 -4.028,-0.005c-0.813,-0.008 -1.183,0.36 -1.068,1.175c0.079,0.549 0.092,1.126 0.275,1.639c0.237,0.663 0.668,0.92 1.492,0.713c1.73,-0.433 2.197,-1.912 3.329,-3.522m4.806,-4.477c-3.447,-0.339 -6.38,0.954 -9.681,2.863c4.079,0.647 7.048,-0.524 9.681,-2.863m12.663,32.026c0.417,-0.458 0.822,-0.751 1.019,-1.144c0.941,-1.883 0.721,-3.86 0.328,-5.826c-0.059,-0.293 -0.295,-0.566 -0.497,-0.808c-2.015,-2.436 -4.581,-3.694 -7.764,-3.403c-0.709,0.066 -1.71,0.413 -1.988,0.939c-0.499,0.945 0.445,1.547 1.154,2.076c0.191,0.143 0.382,0.291 0.584,0.42c2.472,1.572 4.385,3.676 5.919,6.155c0.324,0.521 0.756,0.974 1.245,1.591m-7.596,-12.906c1.523,0.179 3.21,0.069 4.655,0.612c3.131,1.177 5.648,0.218 7.964,-1.749c0.877,-0.743 1.879,-1.53 1.81,-2.916c-1.037,-0.318 -2.062,-0.841 -3.119,-0.915c-2.762,-0.196 -5.405,0.453 -7.924,1.586c-1.546,0.694 -3.411,1.066 -3.386,3.382m8.41,-15.648c-0.428,0.184 -0.609,0.211 -0.707,0.314c-2.723,2.808 -5.458,5.603 -8.124,8.465c-0.385,0.414 -0.581,1.135 -0.609,1.725c-0.059,1.26 0.605,1.63 1.832,1.161c1.862,-0.708 3.749,-1.358 5.581,-2.131c1.19,-0.505 2.372,-1.292 2.557,-2.629c0.307,-2.265 0.544,-4.586 -0.53,-6.905m-9.764,13.172c-5.955,-0.562 -6.03,-0.097 -9.157,1.821c-0.545,0.334 -1.084,0.795 -1.68,0.91c-2.982,0.567 -5.647,2.189 -8.548,2.798c-5.861,1.23 -11.769,1.14 -17.475,-1.043c-1.144,-0.438 -2.211,-0.74 -3.474,-0.451c-1.787,0.406 -3.619,0.615 -5.435,0.898c-0.65,0.101 -1.341,0.347 -2.028,-0.329c2.069,-1.409 4.497,-1.222 6.528,-2.064c-0.973,-1.221 -1.842,-2.26 -2.653,-3.341c-0.447,-0.597 -0.904,-0.704 -1.645,-0.543c-2.113,0.461 -3.811,1.69 -5.291,3.083c-3.027,2.849 -5.909,5.856 -8.754,8.887c-1.806,1.923 -3.438,4.01 -5.149,6.024c-0.411,0.482 -0.863,0.878 -0.437,1.663c0.597,1.1 1.034,2.288 1.584,3.538c0.942,-0.258 1.993,-0.74 3.062,-0.78c1.06,-0.041 2.139,0.362 3.098,0.548c1.854,-1.974 3.51,-4.068 5.494,-5.782c4.64,-4.01 9.714,-6.848 16.268,-6.408c5.174,0.345 10.394,0.023 15.591,-0.005c4.981,-0.027 9.304,-2.05 13.454,-4.519c1.314,-0.784 2.566,-1.587 4.133,-1.804c0.473,-0.064 1.001,-0.462 1.298,-0.859c0.467,-0.62 0.757,-1.372 1.216,-2.242m-46.432,-8.219c0.966,0.959 1.555,1.6 2.203,2.178c0.695,0.618 1.863,1.092 0.371,2.097c-0.103,0.069 -0.112,0.459 -0.018,0.61c1.104,1.762 2.122,3.624 4.024,4.681c3.469,1.927 7.117,3.279 11.162,3.264c1.602,-0.007 3.209,0.08 4.806,-0.007c1.431,-0.077 2.918,-0.126 4.264,-0.552c3.794,-1.196 8.181,-4.359 7.499,-10.042c-0.081,-0.68 -0.183,-1.137 -0.912,-1.482c-0.58,-0.277 -1.297,-0.948 -1.357,-1.507c-0.232,-2.194 -1.164,-3.701 -3.314,-4.423c-0.211,-0.069 -0.255,-0.635 -0.375,-0.969c0.289,-0.069 0.679,-0.295 0.857,-0.181c1.334,0.834 2.393,0.308 3.492,-0.505c0.702,-0.518 1.517,-0.892 2.291,-1.309c1.52,-0.82 1.555,-1.16 0.964,-2.839c-1.914,-5.453 -10.825,-6.248 -13.687,-1.654c-0.719,1.154 -1.559,2.233 -2.37,3.325c-1.257,1.691 -2.755,3.082 -4.642,4.094c-1.485,0.794 -3.079,0.84 -4.66,0.97c-3.186,0.26 -6.397,0.667 -9.453,-0.768c-0.258,-0.123 -0.574,-0.125 -0.941,-0.197c0.446,1.934 0.5,1.977 1.74,3.12c0.366,0.336 0.588,0.828 0.875,1.249c-0.472,0.222 -0.931,0.472 -1.416,0.651c-0.286,0.105 -0.615,0.094 -1.403,0.196m37.855,-9.476c1.589,-0.208 3.012,-0.491 4.443,-0.538c0.637,-0.02 1.426,0.279 1.897,0.71c0.506,0.462 0.15,1.765 -0.627,2.328c-0.967,0.699 -2.026,1.288 -3.096,1.822c-0.75,0.374 -1.304,0.833 -1.687,1.601c-0.459,0.929 -0.916,1.928 -1.629,2.648c-1.251,1.268 -1.49,2.724 -1.393,4.379c0.137,2.316 -0.253,4.484 -1.989,6.367c0.484,-0.145 0.984,-0.252 1.446,-0.444c0.365,-0.151 0.698,-0.396 1.02,-0.63c2.132,-1.541 4.413,-2.592 7.141,-2.306c1.001,0.107 1.62,-0.142 1.742,-1.38c0.08,-0.811 0.554,-1.709 1.116,-2.324c2.543,-2.77 5.127,-5.512 7.804,-8.154c2.214,-2.185 3.232,-1.885 3.982,1.127c0.663,2.673 0.428,5.383 -0.115,8.303c0.791,0.056 1.567,0.043 2.316,0.184c0.862,0.161 1.734,0.37 2.531,0.714c1.372,0.592 1.723,1.589 1.038,2.928c-1.094,2.143 -2.814,3.666 -4.977,4.693c-0.709,0.335 -1.444,0.615 -2.336,0.992c2.704,2.451 2.759,5.41 1.902,8.487c-0.247,0.89 -0.797,1.759 -1.4,2.474c-1.107,1.308 -2.415,1.193 -3.372,-0.182c-0.504,-0.721 -0.854,-1.57 -1.435,-2.213c-1.386,-1.536 -2.793,-3.071 -4.339,-4.441c-1.25,-1.109 -2.738,-1.9 -3.186,-3.735c-0.23,-0.94 -1.155,-0.744 -1.806,-0.433c-1.225,0.587 -2.474,1.178 -3.578,1.957c-3.788,2.68 -8.069,3.64 -12.603,4.134c-5.699,0.62 -11.369,-0.216 -17.049,0.033c-0.799,0.036 -1.618,-0.099 -2.401,0.025c-1.333,0.212 -2.738,0.356 -3.948,0.896c-4.999,2.221 -9.087,5.655 -12.547,9.858c-0.668,0.809 -0.463,2.428 0.426,2.868c0.342,0.17 0.929,0.033 1.332,-0.133c2.428,-1.003 4.961,-1.27 7.542,-1.076c0.768,0.056 1.561,0.321 2.245,0.678c0.275,0.143 0.38,0.786 0.369,1.198c-0.004,0.125 -0.66,0.357 -1.001,0.327c-0.866,-0.074 -1.718,-0.339 -2.585,-0.395c-2.19,-0.138 -4.308,0.219 -6.333,1.089c-0.439,0.191 -0.893,0.37 -1.357,0.469c-0.872,0.186 -1.505,0.002 -1.879,-0.979c-0.301,-0.791 -0.838,-1.516 -1.376,-2.186c-1.107,-1.377 -1.884,-1.566 -3.491,-0.926c-0.668,0.265 -1.283,0.671 -1.959,0.91c-0.956,0.337 -1.536,-0.053 -1.699,-1.046c-0.026,-0.157 -0.028,-0.32 -0.02,-0.479c0.073,-1.403 -0.097,-2.68 -1.293,-3.681c-1.441,-1.209 -2.906,-2.259 -4.896,-2.224c-1.203,0.021 -2.407,0.039 -3.606,-0.002c-0.242,-0.008 -0.472,-0.284 -0.709,-0.434c0.202,-0.217 0.37,-0.559 0.614,-0.629c2.131,-0.598 4.263,-0.587 6.372,0.139c0.742,0.255 1.609,0.918 2.176,0.715c0.725,-0.26 1.234,-1.181 1.786,-1.86c4.203,-5.154 8.504,-10.207 13.506,-14.64c1.269,-1.123 2.68,-1.654 4.162,-2.217c2.033,-0.77 2.374,-2.115 0.975,-3.806c-1.653,-2.004 -1.654,-2.069 -0.18,-3.955c-0.665,-1.398 -1.369,-2.748 -1.953,-4.148c-0.306,-0.735 0.214,-1.314 0.987,-1.138c1.171,0.263 2.367,0.513 3.462,0.982c1.532,0.651 3.094,0.78 4.703,0.684c1.838,-0.112 3.681,-0.204 5.507,-0.429c2.183,-0.268 3.854,-1.543 5.233,-3.15c1.092,-1.273 2.089,-2.64 3.013,-4.04c3.315,-5.025 9.322,-4.701 13.437,-2.253c0.902,0.534 1.568,1.584 2.135,2.523c0.609,1.01 0.972,2.164 1.49,3.364" style="fill:#231f20;fill-rule:nonzero;"/><path d="M62.856,5.011c-0.964,0.12 -1.406,0.763 -1.242,1.456c0.143,0.598 0.584,1.11 1.168,0.853c0.382,-0.164 0.739,-0.824 0.748,-1.269c0.01,-0.384 -0.49,-0.777 -0.674,-1.04m-3.148,0.493c-0.13,0.311 -0.431,0.698 -0.418,1.073c0.031,0.898 0.765,1.638 1.235,1.316c0.364,-0.247 0.661,-0.859 0.658,-1.305c-0.003,-0.692 -0.525,-1.092 -1.475,-1.084m-21.504,13.712c-1.449,1.359 -1.526,1.859 -0.426,3.359c0.89,1.212 2.05,2.043 3.602,2.086c6.021,0.166 12.001,-3.588 13.132,-10.715c-0.435,0.474 -0.731,0.712 -0.913,1.018c-0.412,0.684 -0.711,1.438 -1.15,2.099c-2.561,3.851 -5.976,6.145 -10.799,5.89c-1.036,-0.054 -1.867,-0.371 -2.433,-1.26c-0.329,-0.523 -0.223,-0.97 0.405,-1.046c0.949,-0.112 1.923,-0.039 2.867,-0.176c0.388,-0.056 0.725,-0.455 1.086,-0.697c-0.351,-0.258 -0.668,-0.622 -1.06,-0.744c-0.523,-0.159 -1.126,-0.047 -1.654,-0.199c-0.956,-0.274 -2.004,-0.48 -2.542,-1.798c1.092,0 2.047,0.102 2.969,-0.026c1.088,-0.153 2.157,-0.472 3.211,-0.793c0.225,-0.069 0.35,-0.462 0.522,-0.704c-0.341,-0.126 -0.765,-0.452 -1.009,-0.347c-1.62,0.686 -3.303,0.444 -4.972,0.471c-0.757,0.011 -1.828,-0.461 -2.135,0.468c-0.203,0.614 0.271,1.486 0.544,2.205c0.132,0.348 0.495,0.61 0.755,0.909m-8.489,-1.97c0.789,-0.102 1.117,-0.091 1.403,-0.196c0.485,-0.179 0.946,-0.429 1.416,-0.651c-0.288,-0.422 -0.51,-0.913 -0.873,-1.249c-1.24,-1.143 -1.296,-1.186 -1.742,-3.119c0.367,0.073 0.682,0.073 0.941,0.196c3.058,1.434 6.267,1.028 9.453,0.768c1.581,-0.13 3.175,-0.176 4.66,-0.97c1.887,-1.012 3.387,-2.403 4.642,-4.094c0.812,-1.093 1.651,-2.172 2.37,-3.325c2.864,-4.594 11.774,-3.799 13.687,1.653c0.591,1.68 0.558,2.02 -0.964,2.84c-0.775,0.417 -1.589,0.791 -2.291,1.309c-1.099,0.812 -2.158,1.339 -3.492,0.505c-0.178,-0.112 -0.566,0.112 -0.857,0.181c0.12,0.334 0.164,0.9 0.375,0.969c2.15,0.722 3.082,2.23 3.314,4.424c0.059,0.558 0.778,1.229 1.357,1.505c0.731,0.348 0.831,0.803 0.912,1.482c0.682,5.684 -3.705,8.847 -7.499,10.042c-1.346,0.427 -2.831,0.477 -4.262,0.553c-1.599,0.087 -3.206,0 -4.808,0.007c-4.045,0.015 -7.693,-1.338 -11.161,-3.264c-1.903,-1.057 -2.92,-2.919 -4.025,-4.681c-0.092,-0.151 -0.085,-0.541 0.018,-0.61c1.494,-1.005 0.326,-1.479 -0.372,-2.098c-0.648,-0.577 -1.237,-1.218 -2.202,-2.177" style="fill:#00c1f3;fill-rule:nonzero;"/><path d="M63.113,17.992c-0.579,-0.276 -1.296,-0.946 -1.355,-1.505c-0.035,-0.311 -0.084,-0.604 -0.147,-0.887c-0.592,1.213 -1.362,2.348 -2.234,3.369c-3.426,4.019 -8.311,6.997 -13.368,8.451c-2.207,0.637 -4.633,0.992 -6.948,0.769c2.641,1.161 5.411,1.899 8.396,1.888c1.602,-0.007 3.209,0.081 4.806,-0.007c1.431,-0.077 2.918,-0.126 4.264,-0.552c3.795,-1.198 8.182,-4.361 7.499,-10.044c-0.081,-0.679 -0.183,-1.135 -0.913,-1.482" style="fill:#c1e8fb;fill-rule:nonzero;"/><path d="M76.146,25.466c-0.457,0.868 -0.748,1.62 -1.214,2.24c-0.299,0.398 -0.827,0.796 -1.298,0.861c-1.567,0.217 -2.819,1.019 -4.135,1.802c-4.148,2.469 -8.471,4.494 -13.453,4.521c-5.198,0.026 -10.418,0.348 -15.591,0.003c-6.555,-0.438 -11.629,2.398 -16.268,6.41c-1.983,1.714 -3.64,3.806 -5.495,5.782c-0.959,-0.188 -2.037,-0.591 -3.097,-0.548c-1.068,0.039 -2.121,0.521 -3.062,0.778c-0.549,-1.25 -0.988,-2.436 -1.585,-3.537c-0.426,-0.786 0.026,-1.181 0.437,-1.664c1.711,-2.013 3.344,-4.099 5.15,-6.022c2.844,-3.033 5.728,-6.04 8.754,-8.887c1.479,-1.394 3.178,-2.622 5.29,-3.083c0.741,-0.161 1.198,-0.056 1.645,0.543c0.811,1.081 1.68,2.12 2.654,3.341c-2.03,0.842 -4.46,0.653 -6.529,2.064c0.688,0.676 1.378,0.429 2.028,0.327c1.816,-0.283 3.648,-0.491 5.435,-0.898c1.263,-0.289 2.331,0.015 3.474,0.453c5.708,2.182 11.614,2.271 17.475,1.041c2.902,-0.609 5.568,-2.229 8.549,-2.798c0.595,-0.114 1.136,-0.574 1.681,-0.91c3.125,-1.918 3.201,-2.383 9.155,-1.819" style="fill:#d58f59;fill-rule:nonzero;"/><path d="M85.911,12.293c1.072,2.319 0.837,4.64 0.528,6.905c-0.183,1.339 -1.365,2.124 -2.554,2.629c-1.835,0.774 -3.72,1.423 -5.582,2.133c-1.227,0.467 -1.891,0.097 -1.832,-1.161c0.026,-0.592 0.222,-1.313 0.609,-1.727c2.666,-2.861 5.401,-5.657 8.122,-8.465c0.1,-0.103 0.281,-0.13 0.709,-0.314" style="fill:#77c043;fill-rule:nonzero;"/><path d="M77.501,27.942c-0.025,-2.316 1.841,-2.689 3.387,-3.384c2.518,-1.131 5.161,-1.781 7.923,-1.585c1.058,0.074 2.083,0.599 3.119,0.916c0.069,1.387 -0.933,2.171 -1.809,2.916c-2.316,1.968 -4.833,2.927 -7.965,1.749c-1.444,-0.543 -3.132,-0.434 -4.655,-0.612" style="fill:#77c043;fill-rule:nonzero;"/><path d="M85.097,40.847c-0.489,-0.617 -0.923,-1.069 -1.245,-1.591c-1.533,-2.478 -3.448,-4.582 -5.918,-6.155c-0.204,-0.128 -0.394,-0.276 -0.584,-0.419c-0.711,-0.53 -1.654,-1.132 -1.155,-2.076c0.278,-0.526 1.28,-0.873 1.989,-0.939c3.181,-0.291 5.748,0.967 7.763,3.401c0.203,0.244 0.438,0.517 0.497,0.81c0.393,1.965 0.612,3.942 -0.327,5.826c-0.198,0.393 -0.602,0.686 -1.02,1.143" style="fill:#77c043;fill-rule:nonzero;"/><path d="M72.434,8.821c-2.633,2.339 -5.602,3.51 -9.682,2.862c3.302,-1.908 6.234,-3.201 9.682,-2.862" style="fill:#ffdd18;fill-rule:nonzero;"/><path d="M67.628,13.298c-1.132,1.61 -1.599,3.089 -3.329,3.522c-0.824,0.207 -1.255,-0.05 -1.492,-0.713c-0.183,-0.513 -0.196,-1.09 -0.275,-1.639c-0.115,-0.815 0.255,-1.183 1.068,-1.175c1.184,0.013 2.37,0.005 4.028,0.005" style="fill:#ffdd18;fill-rule:nonzero;"/><path d="M38.203,19.218c-0.26,-0.301 -0.622,-0.563 -0.755,-0.911c-0.273,-0.717 -0.747,-1.591 -0.544,-2.204c0.307,-0.93 1.378,-0.458 2.136,-0.469c1.668,-0.025 3.351,0.215 4.973,-0.471c0.243,-0.103 0.668,0.221 1.008,0.347c-0.171,0.244 -0.298,0.635 -0.521,0.704c-1.055,0.321 -2.126,0.64 -3.213,0.793c-0.923,0.129 -1.877,0.027 -2.969,0.027c0.538,1.319 1.586,1.524 2.543,1.799c0.526,0.15 1.13,0.038 1.653,0.199c0.392,0.12 0.709,0.485 1.06,0.742c-0.361,0.242 -0.698,0.643 -1.086,0.699c-0.944,0.137 -1.918,0.063 -2.867,0.174c-0.628,0.076 -0.734,0.523 -0.403,1.047c0.564,0.888 1.395,1.205 2.431,1.26c4.823,0.256 8.238,-2.04 10.799,-5.891c0.441,-0.661 0.738,-1.414 1.149,-2.099c0.185,-0.304 0.479,-0.544 0.913,-1.018c-1.128,7.127 -7.109,10.881 -13.131,10.717c-1.553,-0.045 -2.712,-0.876 -3.602,-2.088c-1.1,-1.5 -1.022,-2 0.426,-3.357" style="fill:#231f20;fill-rule:nonzero;"/><path d="M59.707,5.504c0.951,-0.008 1.474,0.391 1.475,1.084c0.004,0.447 -0.294,1.058 -0.657,1.304c-0.471,0.323 -1.205,-0.417 -1.236,-1.316c-0.013,-0.375 0.288,-0.761 0.418,-1.072" style="fill:#231f20;fill-rule:nonzero;"/><path d="M62.856,5.011c0.184,0.263 0.684,0.656 0.674,1.04c-0.009,0.445 -0.366,1.105 -0.748,1.269c-0.584,0.257 -1.025,-0.255 -1.168,-0.853c-0.164,-0.693 0.278,-1.336 1.242,-1.456" style="fill:#231f20;fill-rule:nonzero;"/><path d="M52.67,5.194c-0.908,2.096 -2.189,4.194 -4.242,5.195c0.156,0.129 0.344,0.213 0.539,0.264c0.991,0.265 2.048,-0.286 2.706,-1.072c0.657,-0.786 1.01,-1.773 1.411,-2.716c0.402,-0.944 0.895,-1.9 1.729,-2.495c0.749,-0.535 0.436,-1.156 -0.367,-1.153c-0.931,0.003 -1.485,1.304 -1.776,1.977" style="fill:#fff;fill-rule:nonzero;"/></g></svg>