<?xml version="1.0" encoding="UTF-8" standalone="no"?><!DOCTYPE svg PUBLIC "-//W3C//DTD SVG 1.1//EN" "http://www.w3.org/Graphics/SVG/1.1/DTD/svg11.dtd"><svg width="100%" height="100%" viewBox="0 0 71 49" version="1.1" xmlns="http://www.w3.org/2000/svg" xmlns:xlink="http://www.w3.org/1999/xlink" xml:space="preserve" xmlns:serif="http://www.serif.com/" style="fill-rule:evenodd;clip-rule:evenodd;stroke-linejoin:round;stroke-miterlimit:2;"><g><path d="M55.895,33.879l0.005,-0.008c-0.25,-0.182 -0.497,-0.372 -0.752,-0.548c-0.872,-0.6 -1.036,-0.626 -1.622,0.242c-0.69,1.021 -1.272,2.117 -1.872,3.196c-0.233,0.418 -0.171,0.754 0.353,0.978c0.759,0.324 1.502,0.695 2.217,1.105c0.579,0.333 0.807,0.088 1.053,-0.414c0.337,-0.693 0.712,-1.375 1.139,-2.014c1.022,-1.524 1.261,-1.227 -0.396,-2.446c-0.042,-0.03 -0.083,-0.061 -0.125,-0.091m1.161,3.114c-0.33,0.638 -0.66,1.277 -0.993,1.913c-0.279,0.535 -0.09,0.866 0.432,1.102c0.894,0.4 1.787,0.808 2.663,1.247c2.112,1.054 2.117,1.059 3.566,-0.863c0.521,-0.69 0.522,-0.729 -0.108,-1.249c-0.999,-0.821 -2.006,-1.631 -3.006,-2.451c-1.371,-1.126 -1.436,-1.118 -2.554,0.301m-8.63,-4.709c0.036,0.033 0.071,0.065 0.108,0.099c-0.335,0.459 -0.673,0.914 -1.001,1.378c-0.089,0.123 -0.158,0.268 -0.209,0.413c-0.339,0.952 -0.144,1.413 0.787,1.835c0.563,0.256 1.131,0.502 1.708,0.73c0.717,0.284 0.853,0.212 1.21,-0.465c0.384,-0.727 0.779,-1.45 1.191,-2.162c0.38,-0.659 0.79,-1.3 1.187,-1.95c-0.596,-0.562 -1.205,-1.112 -1.784,-1.69c-0.456,-0.454 -0.918,-0.46 -1.359,-0.043c-0.632,0.599 -1.228,1.234 -1.838,1.855m17.977,11.814c-0.012,-0.01 -0.024,-0.019 -0.037,-0.026c0.642,-0.88 1.285,-1.758 1.924,-2.638c0.254,-0.347 0.508,-0.752 0.093,-1.098c-0.671,-0.558 -1.356,-1.133 -2.121,-1.534c-0.713,-0.373 -1.078,-0.156 -1.505,0.576c-0.127,0.216 -0.19,0.529 -0.377,0.641c-1.56,0.936 -2.313,2.515 -3.045,4.027c-0.798,1.65 -0.867,2.009 0.994,2.852c0.236,0.106 0.485,0.187 0.713,0.309c0.563,0.304 0.994,0.125 1.344,-0.35c0.676,-0.917 1.345,-1.839 2.017,-2.759m-33.65,-26.967c-0.458,-0.402 -0.737,-0.695 -1.061,-0.923c-4.718,-3.31 -9.44,-6.612 -14.163,-9.914c-0.17,-0.12 -0.34,-0.24 -0.521,-0.341c-0.351,-0.197 -0.602,-0.047 -0.749,0.277c-0.68,1.499 -0.913,3.019 0.161,4.42c0.752,0.98 1.58,1.924 2.488,2.762c2.464,2.278 5.472,3.543 8.68,4.329c1.701,0.418 3.361,0.049 5.165,-0.61m17.5,12.295c-0.458,-0.401 -0.783,-0.734 -1.153,-1.006c-2.473,-1.818 -4.928,-3.662 -7.443,-5.421c-2.299,-1.608 -4.672,-3.111 -7,-4.68c-0.474,-0.319 -0.907,-0.403 -1.454,-0.188c-2.674,1.053 -5.295,0.976 -8.047,0.03c-3.079,-1.059 -5.747,-2.66 -8.003,-4.95c-0.792,-0.803 -1.422,-1.786 -2.023,-2.749c-0.578,-0.923 -0.644,-1.964 -0.288,-3.006c0.201,-0.589 0.395,-1.184 0.647,-1.753c0.215,-0.48 0.086,-0.759 -0.341,-1.026c-1.057,-0.662 -2.062,-1.41 -3.142,-2.028c-0.943,-0.539 -1.944,-0.985 -2.95,-1.398c-0.415,-0.17 -0.927,-0.256 -1.365,-0.19c-1.884,0.283 -3.652,0.808 -4.713,2.611c-0.289,0.491 -0.674,0.923 -1.002,1.392c-1.366,1.958 -1.048,4.601 0.742,6.201c0.581,0.52 1.205,0.997 1.739,1.56c2.354,2.486 5.172,4.358 8.144,5.971c3.19,1.731 6.475,3.296 9.748,4.87c4.446,2.134 8.925,4.198 13.377,6.318c1.778,0.848 3.519,1.776 5.285,2.648c1.656,0.815 3.323,1.605 4.997,2.413c0.849,-2.343 2.156,-4.163 4.245,-5.619m17.14,15.283c-0.644,0.883 -1.272,1.777 -1.935,2.644c-1.025,1.341 -1.353,1.418 -2.881,0.77c-0.287,-0.122 -0.6,-0.2 -0.859,-0.364c-2.294,-1.448 -2.127,-1.471 -1.475,-3.575c0.308,-0.996 0.315,-1.041 -0.655,-1.504c-4.216,-2.012 -8.452,-3.982 -12.666,-6.001c-2.153,-1.032 -4.272,-2.134 -6.406,-3.202c-1.438,-0.721 -2.863,-1.469 -4.318,-2.155c-4.602,-2.171 -9.237,-4.277 -13.82,-6.491c-3.692,-1.784 -7.363,-3.618 -10.975,-5.557c-2.476,-1.328 -4.754,-2.975 -6.775,-4.956c-0.891,-0.874 -1.864,-1.66 -2.777,-2.511c-2.062,-1.925 -2.376,-4.957 -0.702,-7.195c0.837,-1.121 1.773,-2.169 2.679,-3.236c0.199,-0.233 0.44,-0.545 0.703,-0.592c1.608,-0.289 3.191,-1.13 4.862,-0.461c1.103,0.441 2.204,0.939 3.2,1.578c3.194,2.047 6.367,4.133 9.495,6.279c2.96,2.032 5.828,4.198 8.785,6.234c3.467,2.389 7.02,4.651 10.473,7.059c3.324,2.319 6.688,4.586 9.743,7.28c1.91,1.683 3.96,3.207 5.963,4.782c1.923,1.51 3.87,2.988 5.798,4.494c0.923,0.72 0.932,0.751 1.721,-0.085c0.316,-0.336 0.633,-0.493 1.09,-0.438c1.869,0.22 3.111,1.34 4.062,2.848c0.319,0.504 0.093,0.998 -0.234,1.443c-0.709,0.964 -1.412,1.931 -2.118,2.897c0.008,0.006 0.016,0.01 0.022,0.015" style="fill:#231f20;fill-rule:nonzero;"/><path d="M50.253,29.426c-2.089,1.457 -3.396,3.276 -4.245,5.618c-1.674,-0.807 -3.342,-1.597 -4.997,-2.413c-1.767,-0.871 -3.507,-1.799 -5.285,-2.647c-4.452,-2.12 -8.932,-4.183 -13.377,-6.318c-3.274,-1.574 -6.558,-3.139 -9.749,-4.871c-2.971,-1.612 -5.79,-3.484 -8.143,-5.97c-0.534,-0.564 -1.159,-1.04 -1.739,-1.559c-1.79,-1.6 -2.108,-4.244 -0.742,-6.202c0.328,-0.469 0.713,-0.901 1.002,-1.391c1.061,-1.803 2.829,-2.329 4.712,-2.612c0.439,-0.066 0.951,0.02 1.366,0.19c1.006,0.413 2.007,0.859 2.95,1.398c1.08,0.619 2.085,1.366 3.142,2.028c0.427,0.267 0.556,0.546 0.341,1.026c-0.253,0.568 -0.447,1.163 -0.647,1.754c-0.357,1.041 -0.29,2.082 0.288,3.005c0.601,0.964 1.231,1.946 2.023,2.75c2.255,2.289 4.924,3.89 8.003,4.949c2.751,0.946 5.373,1.023 8.047,-0.03c0.547,-0.215 0.98,-0.13 1.454,0.189c2.327,1.568 4.701,3.072 6.999,4.679c2.515,1.759 4.97,3.604 7.444,5.421c0.369,0.272 0.695,0.604 1.153,1.006" style="fill:#f0cb7a;fill-rule:nonzero;"/><path d="M32.752,17.131c-1.803,0.659 -3.464,1.028 -5.164,0.611c-3.209,-0.787 -6.217,-2.051 -8.681,-4.33c-0.908,-0.838 -1.735,-1.782 -2.487,-2.762c-1.075,-1.401 -0.84,-2.921 -0.161,-4.42c0.146,-0.324 0.397,-0.474 0.749,-0.277c0.18,0.102 0.351,0.221 0.52,0.341c4.723,3.303 9.446,6.605 14.163,9.915c0.324,0.227 0.603,0.52 1.061,0.922" style="fill:#6dc7f1;fill-rule:nonzero;"/><path d="M66.403,44.097c-0.672,0.92 -1.342,1.842 -2.016,2.76c-0.351,0.476 -0.781,0.653 -1.346,0.35c-0.227,-0.123 -0.476,-0.203 -0.711,-0.31c-1.862,-0.841 -1.793,-1.201 -0.995,-2.852c0.731,-1.51 1.486,-3.09 3.045,-4.025c0.186,-0.112 0.25,-0.426 0.376,-0.643c0.427,-0.73 0.792,-0.949 1.506,-0.575c0.766,0.402 1.449,0.976 2.121,1.533c0.414,0.346 0.161,0.751 -0.093,1.1c-0.64,0.88 -1.282,1.757 -1.923,2.636c0.011,0.008 0.024,0.017 0.036,0.026" style="fill:#f0cb7a;fill-rule:nonzero;"/><path d="M48.425,32.284c0.612,-0.621 1.207,-1.256 1.839,-1.855c0.44,-0.418 0.902,-0.411 1.358,0.043c0.579,0.578 1.19,1.127 1.786,1.69c-0.398,0.649 -0.807,1.291 -1.188,1.95c-0.412,0.712 -0.808,1.434 -1.192,2.162c-0.356,0.677 -0.493,0.748 -1.21,0.465c-0.577,-0.227 -1.144,-0.474 -1.708,-0.731c-0.931,-0.422 -1.125,-0.882 -0.786,-1.834c0.05,-0.146 0.121,-0.29 0.208,-0.414c0.328,-0.463 0.666,-0.919 1.001,-1.377c-0.035,-0.034 -0.072,-0.066 -0.108,-0.099" style="fill:#ed1c24;fill-rule:nonzero;"/><path d="M57.056,36.992c1.118,-1.419 1.183,-1.425 2.554,-0.301c1,0.82 2.007,1.63 3.006,2.451c0.63,0.52 0.627,0.56 0.108,1.25c-1.449,1.923 -1.454,1.916 -3.566,0.862c-0.876,-0.438 -1.769,-0.846 -2.663,-1.247c-0.523,-0.234 -0.712,-0.566 -0.432,-1.1c0.333,-0.638 0.662,-1.276 0.993,-1.915" style="fill:#ed1c24;fill-rule:nonzero;"/><path d="M55.895,33.879c0.042,0.03 0.083,0.061 0.125,0.091c1.657,1.219 1.418,0.922 0.396,2.446c-0.427,0.639 -0.802,1.321 -1.139,2.014c-0.246,0.502 -0.474,0.747 -1.053,0.414c-0.715,-0.41 -1.458,-0.781 -2.217,-1.105c-0.524,-0.224 -0.586,-0.56 -0.353,-0.978c0.6,-1.079 1.182,-2.175 1.872,-3.196c0.586,-0.868 0.75,-0.842 1.622,-0.242c0.255,0.176 0.502,0.366 0.752,0.548l-0.005,0.008Z" style="fill:#b12a30;fill-rule:nonzero;"/><g opacity="0.2"><path d="M14.33,17.979c5.735,2.378 11.848,3.69 17.75,5.621c11.272,3.686 21.79,9.669 30.719,17.474c-0.367,0.784 -0.268,1.902 0.507,2.285c0.849,0.42 1.835,-0.311 2.332,-1.118c0.496,-0.807 0.828,-1.785 1.63,-2.291c0.696,0.402 1.391,0.804 2.087,1.206c-1.926,1.107 -2.8,3.384 -4.265,5.054c-1.466,1.67 -4.526,2.519 -5.682,0.621c0.47,-1.544 0.941,-3.087 1.409,-4.631c-10.999,-5.46 -26.52,-11.12 -38.936,-18.424c-3.91,-2.301 -7.819,-4.601 -11.728,-6.901c-2.873,-1.69 -6.829,-3.978 -8.037,-7.245c3.382,3.74 7.572,6.424 12.214,8.349" style="fill:#3b2314;fill-rule:nonzero;"/></g><path d="M7.071,2.182c-1.23,0.407 -2.331,1.196 -3.112,2.231c-0.55,0.727 -0.952,1.648 -0.757,2.539c0.3,1.361 1.94,2.089 3.308,1.821c1.369,-0.268 2.478,-1.259 3.396,-2.308c0.292,-0.332 0.579,-0.693 0.671,-1.124c0.102,-0.488 -0.066,-0.994 -0.304,-1.433c-0.656,-1.212 -1.887,-2.094 -3.246,-2.327" style="fill:#fff;fill-rule:nonzero;"/></g></svg>