<?xml version="1.0" encoding="UTF-8" standalone="no"?>
<!DOCTYPE svg PUBLIC "-//W3C//DTD SVG 1.1//EN" "http://www.w3.org/Graphics/SVG/1.1/DTD/svg11.dtd">
<svg width="100%" height="100%" viewBox="0 0 382 260" version="1.1" xmlns="http://www.w3.org/2000/svg" xmlns:xlink="http://www.w3.org/1999/xlink" xml:space="preserve" xmlns:serif="http://www.serif.com/" style="fill-rule:evenodd;clip-rule:evenodd;stroke-linejoin:round;stroke-miterlimit:2;">
    <g transform="matrix(1,0,0,1,-104,-140)">
        <g transform="matrix(1,0,0,1,206.411,339.179)">
            <g transform="matrix(1,0,0,1,-191,-130)">
                <g transform="matrix(1,0,0,1,-104,-140)">
                    <g transform="matrix(1.19016,0,0,1.19016,-54.3791,-44.682)">
                        <path d="M253.12,220.09C242.63,238.79 248.99,256.9 265.92,267.28C270.41,270.04 277.118,270.117 282.73,269.72C307.434,267.973 315.445,260.769 320.46,248.96C324.334,239.836 325.22,230.72 321.76,221.61C317.78,211.12 310.47,204.07 299.38,201.82C276.7,197.03 264,201.59 253.12,220.09Z" style="fill-rule:nonzero;"/>
                    </g>
                    <path d="M253.12,220.09C242.63,238.79 248.99,256.9 265.92,267.28C270.41,270.04 277.118,270.117 282.73,269.72C307.434,267.973 315.445,260.769 320.46,248.96C324.334,239.836 325.22,230.72 321.76,221.61C317.78,211.12 310.47,204.07 299.38,201.82C276.7,197.03 264,201.59 253.12,220.09Z" style="fill:url(#_Radial1);fill-rule:nonzero;"/>
                </g>
            </g>
        </g>
        <g transform="matrix(1,0,0,1,293.896,339.179)">
            <g transform="matrix(1,0,0,1,-191,-130)">
                <g transform="matrix(1,0,0,1,-104,-140)">
                    <g transform="matrix(1.19016,0,0,1.19016,-54.3791,-44.682)">
                        <path d="M253.12,220.09C242.63,238.79 248.99,256.9 265.92,267.28C270.41,270.04 277.118,270.117 282.73,269.72C307.434,267.973 315.445,260.769 320.46,248.96C324.334,239.836 325.22,230.72 321.76,221.61C317.78,211.12 310.47,204.07 299.38,201.82C276.7,197.03 264,201.59 253.12,220.09Z" style="fill-rule:nonzero;"/>
                    </g>
                    <path d="M253.12,220.09C242.63,238.79 248.99,256.9 265.92,267.28C270.41,270.04 277.118,270.117 282.73,269.72C307.434,267.973 315.445,260.769 320.46,248.96C324.334,239.836 325.22,230.72 321.76,221.61C317.78,211.12 310.47,204.07 299.38,201.82C276.7,197.03 264,201.59 253.12,220.09Z" style="fill:url(#_Radial2);fill-rule:nonzero;"/>
                </g>
            </g>
        </g>
        <g transform="matrix(1,0,0,1,256.881,270)">
            <g transform="matrix(1,0,0,1,-191,-130)">
                <g transform="matrix(1,0,0,1,-104,-140)">
                    <g transform="matrix(1.19016,0,0,1.19016,-54.3791,-44.682)">
                        <path d="M253.12,220.09C242.63,238.79 248.99,256.9 265.92,267.28C270.41,270.04 277.118,270.117 282.73,269.72C307.434,267.973 315.445,260.769 320.46,248.96C324.334,239.836 325.22,230.72 321.76,221.61C317.78,211.12 310.47,204.07 299.38,201.82C276.7,197.03 264,201.59 253.12,220.09Z" style="fill-rule:nonzero;"/>
                    </g>
                    <path d="M253.12,220.09C242.63,238.79 248.99,256.9 265.92,267.28C270.41,270.04 277.118,270.117 282.73,269.72C307.434,267.973 315.445,260.769 320.46,248.96C324.334,239.836 325.22,230.72 321.76,221.61C317.78,211.12 310.47,204.07 299.38,201.82C276.7,197.03 264,201.59 253.12,220.09Z" style="fill:url(#_Radial3);fill-rule:nonzero;"/>
                </g>
            </g>
        </g>
        <g transform="matrix(1,0,0,1,383.589,339.179)">
            <g transform="matrix(1,0,0,1,-191,-130)">
                <g transform="matrix(1,0,0,1,-104,-140)">
                    <g transform="matrix(1.19016,0,0,1.19016,-54.3791,-44.682)">
                        <path d="M253.12,220.09C242.63,238.79 248.99,256.9 265.92,267.28C270.41,270.04 277.118,270.117 282.73,269.72C307.434,267.973 315.445,260.769 320.46,248.96C324.334,239.836 325.22,230.72 321.76,221.61C317.78,211.12 310.47,204.07 299.38,201.82C276.7,197.03 264,201.59 253.12,220.09Z" style="fill-rule:nonzero;"/>
                    </g>
                    <path d="M253.12,220.09C242.63,238.79 248.99,256.9 265.92,267.28C270.41,270.04 277.118,270.117 282.73,269.72C307.434,267.973 315.445,260.769 320.46,248.96C324.334,239.836 325.22,230.72 321.76,221.61C317.78,211.12 310.47,204.07 299.38,201.82C276.7,197.03 264,201.59 253.12,220.09Z" style="fill:url(#_Radial4);fill-rule:nonzero;"/>
                </g>
            </g>
        </g>
    </g>
    <defs>
        <radialGradient id="_Radial1" cx="0" cy="0" r="1" gradientUnits="userSpaceOnUse" gradientTransform="matrix(32.3332,17.9226,-17.9226,32.3332,286.129,235.68)"><stop offset="0" style="stop-color:white;stop-opacity:1"/><stop offset="1" style="stop-color:rgb(133,86,131);stop-opacity:1"/></radialGradient>
        <radialGradient id="_Radial2" cx="0" cy="0" r="1" gradientUnits="userSpaceOnUse" gradientTransform="matrix(32.3332,17.9226,-17.9226,32.3332,286.129,235.68)"><stop offset="0" style="stop-color:white;stop-opacity:1"/><stop offset="1" style="stop-color:rgb(133,86,131);stop-opacity:1"/></radialGradient>
        <radialGradient id="_Radial3" cx="0" cy="0" r="1" gradientUnits="userSpaceOnUse" gradientTransform="matrix(32.3332,17.9226,-17.9226,32.3332,286.129,235.68)"><stop offset="0" style="stop-color:white;stop-opacity:1"/><stop offset="1" style="stop-color:rgb(133,86,131);stop-opacity:1"/></radialGradient>
        <radialGradient id="_Radial4" cx="0" cy="0" r="1" gradientUnits="userSpaceOnUse" gradientTransform="matrix(32.3332,17.9226,-17.9226,32.3332,286.129,235.68)"><stop offset="0" style="stop-color:white;stop-opacity:1"/><stop offset="1" style="stop-color:rgb(133,86,131);stop-opacity:1"/></radialGradient>
    </defs>
</svg>
