<svg clip-rule="evenodd" fill-rule="evenodd" stroke-miterlimit="10" viewBox="0 0 802 798" xmlns="http://www.w3.org/2000/svg"><path d="m273.698 172.527h22.677v22.677h-22.677zm-22.677 22.677h22.677v22.677h-22.677zm22.677 0h22.677v22.677h-22.677zm22.677 22.677h22.677v22.677h-22.677zm0 22.677h22.677v22.677h-22.677zm22.677 22.677h22.677v22.677h-22.677zm22.677 0h22.677v22.677h-22.677zm-45.354 22.677h22.677v22.677h-22.677zm22.677 0h22.677v22.677h-22.677zm45.355 0h22.677v22.677h-22.677zm-22.678 22.678h22.677v22.677h-22.677zm22.678 0h22.677v22.677h-22.677zm45.354 0h22.677v22.677h-22.677zm-22.677 22.677h22.677v22.677h-22.677zm22.677 0h22.677v22.677h-22.677z" fill="#fff" fill-rule="nonzero" transform="matrix(4.16667 0 0 4.16667 -1022.9 -697.92337039)"/><path d="m400.97197243 493.37758265h94.48757559v94.48757559h-94.48757559z" fill="#231f20" stroke-width="4.16667"/><g fill="none" stroke="#231f20"><path d="m0 0h23.677" transform="matrix(4.16667 0 0 4.16667 115.42591066 20.93553803)"/><path d="m-10.839 10.839h21.678" transform="matrix(0 -4.16667 -4.16667 0 162.66761512 68.18140916)"/><path d="m-10.839 10.839h21.678" transform="matrix(0 -4.16667 -4.16667 0 257.15935738 68.18140916)"/><path d="m0 0h23.177" transform="matrix(4.16667 0 0 4.16667 20.93833507 115.42728029)"/><path d="m-10.839 10.839h21.678" transform="matrix(0 -4.16667 -4.16667 0 68.18003953 162.66898475)"/><path d="m0 0h23.177" transform="matrix(4.16667 0 0 4.16667 117.50924566 115.42728029)"/><path d="m-10.839 10.839h21.678" transform="matrix(0 -4.16667 -4.16667 0 162.66761512 162.66898475)"/><path d="m-10.839 10.839h21.678" transform="matrix(0 -4.16667 -4.16667 0 257.15935738 162.66898475)"/><path d="m0 0h23.177" transform="matrix(4.16667 0 0 4.16667 20.93833507 209.91485588)"/><path d="m0 0h22.677" transform="matrix(4.16667 0 0 4.16667 117.50924566 209.91485588)"/><path d="m0 0h23.177" transform="matrix(4.16667 0 0 4.16667 211.99682125 209.91485588)"/><path d="m-10.839 10.839h21.678" transform="matrix(0 -4.16667 -4.16667 0 257.15935738 257.15656034)"/><path d="m-10.839 10.839h21.678" transform="matrix(0 -4.16667 -4.16667 0 351.64693297 257.15656034)"/><path d="m0 0h23.677" transform="matrix(4.16667 0 0 4.16667 209.91348625 304.40243147)"/><path d="m-10.839 10.839h21.678" transform="matrix(0 -4.16667 -4.16667 0 257.15935738 351.6483026)"/><path d="m-10.839 10.839h21.678" transform="matrix(0 -4.16667 -4.16667 0 351.64693297 351.6483026)"/><path d="m0 0h23.177" transform="matrix(4.16667 0 0 4.16667 209.91348625 398.89000706)"/><path d="m0 0h22.677" transform="matrix(4.16667 0 0 4.16667 306.48439684 398.89000706)"/><path d="m-10.839 10.839h21.678" transform="matrix(0 -4.16667 -4.16667 0 351.64693297 446.13587819)"/><path d="m0 0h23.177" transform="matrix(4.16667 0 0 4.16667 400.97197243 398.89000706)"/><path d="m-10.839 10.839h21.678" transform="matrix(0 -4.16667 -4.16667 0 446.13450856 446.13587819)"/><path d="m-10.839 10.839h21.678" transform="matrix(0 -4.16667 -4.16667 0 540.62208415 446.13587819)"/><path d="m-10.839 10.839h21.678" transform="matrix(0 -4.16667 -4.16667 0 257.15935738 540.62345378)"/><path d="m0 0h22.677" transform="matrix(4.16667 0 0 4.16667 306.48439684 493.37758265)"/><path d="m-10.839 10.839h21.678" transform="matrix(0 -4.16667 -4.16667 0 351.64693297 540.62345378)"/><path d="m0 0h22.677" transform="matrix(4.16667 0 0 4.16667 400.97197243 493.37758265)"/><path d="m-10.839 10.839h21.678" transform="matrix(0 -4.16667 -4.16667 0 446.13450856 540.62345378)"/><path d="m0 0h23.177" transform="matrix(4.16667 0 0 4.16667 495.46371469 493.37758265)"/><path d="m-10.839 10.839h21.678" transform="matrix(0 -4.16667 -4.16667 0 540.62208415 540.62345378)"/><path d="m-10.839 10.839h21.678" transform="matrix(0 -4.16667 -4.16667 0 635.10965974 540.62345378)"/><path d="m0 0h23.177" transform="matrix(4.16667 0 0 4.16667 209.91348625 587.86515824)"/><path d="m0 0h22.677" transform="matrix(4.16667 0 0 4.16667 306.48439684 587.86515824)"/><path d="m0 0h22.677" transform="matrix(4.16667 0 0 4.16667 400.97197243 587.86515824)"/><path d="m-10.839 10.839h21.678" transform="matrix(0 -4.16667 -4.16667 0 446.13450856 635.11102937)"/><path d="m0 0h23.177" transform="matrix(4.16667 0 0 4.16667 495.46371469 587.86515824)"/><path d="m-10.839 10.839h21.678" transform="matrix(0 -4.16667 -4.16667 0 540.62208415 635.11102937)"/><path d="m-10.839 10.839h21.678" transform="matrix(0 -4.16667 -4.16667 0 635.10965974 635.11102937)"/><path d="m0 0h23.677" transform="matrix(4.16667 0 0 4.16667 682.35553087 587.86515824)"/><path d="m-10.839 10.839h21.678" transform="matrix(0 -4.16667 -4.16667 0 729.59723533 635.11102937)"/><path d="m-10.839 10.839h21.678" transform="matrix(0 -4.16667 -4.16667 0 824.08897759 635.11102937)"/><path d="m0 0h23.177" transform="matrix(4.16667 0 0 4.16667 398.88863743 682.3569005)"/><path d="m0 0h22.677" transform="matrix(4.16667 0 0 4.16667 495.46371469 682.3569005)"/><path d="m0 0h22.677" transform="matrix(4.16667 0 0 4.16667 589.95129028 682.3569005)"/><path d="m-10.839 10.839h21.678" transform="matrix(0 -4.16667 -4.16667 0 635.10965974 729.59860496)"/><path d="m0 0h23.177" transform="matrix(4.16667 0 0 4.16667 684.43886587 682.3569005)"/><path d="m-10.839 10.839h21.678" transform="matrix(0 -4.16667 -4.16667 0 729.59723533 729.59860496)"/><path d="m-10.839 10.839h21.678" transform="matrix(0 -4.16667 -4.16667 0 824.08897759 729.59860496)"/><path d="m0 0h23.177" transform="matrix(4.16667 0 0 4.16667 587.86795528 776.84447609)"/><path d="m0 0h23.177" transform="matrix(4.16667 0 0 4.16667 684.43886587 776.84447609)"/><path d="m0 0h23.177" transform="matrix(4.16667 0 0 4.16667 209.91348625 493.37758265)"/></g></svg>