<?xml version="1.0" encoding="utf-8"?>
<!-- Generator: Adobe Illustrator 24.2.1, SVG Export Plug-In . SVG Version: 6.00 Build 0)  -->
<svg version="1.1" id="Capa_1" xmlns="http://www.w3.org/2000/svg" xmlns:xlink="http://www.w3.org/1999/xlink" x="0px" y="0px"
	 viewBox="0 0 99.21 99.21" style="enable-background:new 0 0 99.21 99.21;" xml:space="preserve">
<style type="text/css">
	.st0{fill:#E1CBB6;}
	.st1{fill:#292929;}
	.st2{fill:#C6AC94;}
	.st3{fill:#DFCBC0;}
	.st4{fill:#D9BA80;}
	.st5{fill:#CDA258;}
	.st6{fill:#C39D79;}
	.st7{fill:#B0714A;}
	.st8{fill:#666666;}
	.st9{fill:#999999;}
	.st10{fill:#E5BE64;}
	.st11{fill:#FFFFFF;}
	.st12{fill:#CBC8B2;}
	.st13{fill:#985F43;}
	.st14{fill:#D4BAAC;}
	.st15{fill:#252723;}
	.st16{fill:#BBA471;}
	.st17{fill:#B8BBA4;}
	.st18{fill:#9597A0;}
	.st19{fill:#957B59;}
	.st20{fill:#B71C32;}
	.st21{fill:#B1A98C;}
	.st22{fill:#CF8531;}
	.st23{fill:#F0D32F;}
	.st24{fill:#FCF5AD;}
	.st25{opacity:0.2;fill:#FFFFFF;}
	.st26{fill:#BE9B65;}
	.st27{fill:#AE8248;}
	.st28{fill:#95B849;}
	.st29{fill:#C7D13E;}
	.st30{stroke:#000000;stroke-width:0.1898;stroke-miterlimit:10;}
	.st31{fill:#6B6B6B;}
	.st32{fill:#6BA550;}
	.st33{fill:#F0D559;}
	.st34{stroke:#000000;stroke-width:0.3796;stroke-miterlimit:10;}
	.st35{fill:#C5D0D7;}
	.st36{fill:#A9B7C1;}
	.st37{fill:#E1DED0;}
	.st38{fill:#D7BEB0;}
	.st39{fill:#D9BAAB;}
	.st40{fill:#DAE1E6;}
	.st41{fill:#B9CA41;}
	.st42{fill:#93B2D9;}
	.st43{fill:#E4BB5E;}
	.st44{fill:#ADB7BE;}
	.st45{fill:#9EBC47;}
	.st46{fill:#56649A;}
	.st47{fill:#83A0CB;}
	.st48{fill:#7BAC4D;}
	.st49{fill:#FBEF74;}
	.st50{fill:#D18CAA;}
	.st51{fill:#A880A7;}
	.st52{fill:#E1E6EA;}
	.st53{fill:#DCA549;}
	.st54{fill:#0F9B00;}
	.st55{fill:#E8E9EA;}
	.st56{fill:#222221;}
</style>
<path class="st0" d="M4.8,68.83c10.96-13.58-10.09-26.7,0.15-30.72c15.75-6.17,43.07-3.7,43.07-3.7s12.9,7.21,12.5,7.87
	c-0.4,0.66,13.74,3.7,13.74,3.7s8.93,4.09,13.74,5.4c4.81,1.31,11.73,7.56,8.8,16.98c-1.03,3.3-3.79,11.74-4.01,15.9
	s-6.03,12.16-12.81,12.81s-20-2.89-30.72-3.55c-10.72-0.66-33.68-2.78-35.2-3.09C-0.91,87.36-1.84,77.07,4.8,68.83z"/>
<path class="st2" d="M22.46,40.16c-1.67-0.1-6.11-0.86-6.11-0.86s-2.96-1.05-6.97,1.34c-4.01,2.39-6.97,0.19-3.63,1.53
	c3.34,1.34-5.45-1.34-0.86,1.82c4.59,3.15,4.68,3.63,8.41,2.39c3.73-1.24,3.82-0.86,9.74,0.38s3.63,4.78,7.93,0.86
	s10.41,2.01,8.22-3.53S25.51,40.35,22.46,40.16z"/>
<path class="st2" d="M38.6,79.43c-5.16-0.38-6.5,1.62-9.08,3.73s-3.63,4.78-0.1,4.97c3.53,0.19-1.24,0.29,5.83,0.19
	c7.07-0.1,3.44-2.77,8.5-1.34c5.06,1.43,3.92,0.86,8.31,1.91s0.29-2.01,5.45-1.82s8.79-1.24,10.22,0.86
	c1.43,2.1,1.62,4.39,5.16,3.25c3.53-1.15,6.31,1.53,8.6,0.38c2.29-1.15,3.25-3.82,3.25-3.82s0.29-3.92,3.34-6.88
	c3.06-2.96,4.49-2.01,4.59-4.78c0.1-2.77,2.29-4.78-1.24-4.97c-3.53-0.19-37.16,9.27-41.08,9.36C46.44,80.57,41.18,79.62,38.6,79.43
	z"/>
<path class="st1" d="M51.39,46.69c-1.26-0.21-1.92-0.91-1.97-2.21c-0.01-0.28-0.01-0.51-0.16-0.75c-0.37-0.57-1.82-0.55-1.66-1.51
	c0.04-0.25-0.11-0.41-0.29-0.45c0-0.02,0-0.03,0-0.05c-0.28-1.09,1.08-2.86,2.24-2.55c0.24,0.07,0.51-0.12,0.51-0.38
	c-0.02-0.66,0.27-1.04,0.63-1.46c2.09,0.91,4.64,0.62,5.67-1.77c0.59-0.07,1.13-0.36,1.75-0.34c0.65,0.01,1.02,0.39,1.6,0.4
	c0.34,0,0.66-0.3,1.01-0.31c0.77-0.02,1.44,0.57,2,0.92c0.56,0.35,0.56,0.35,1.2,0.24c0.06-0.01,0.11-0.03,0.15-0.07
	c0.08,0.08,0.19,0.11,0.3,0.03c0.49-0.36,0.98-0.68,1.61-0.35c0.21,0.11,0.33,0.33,0.55,0.42c0.48,0.18,0.72-0.03,1.1-0.34
	c0.54-0.45,1.17-1.03,1.48-1.67c0.3-0.63-0.1-1.39,0.7-1.79c0.28-0.14,0.16-0.67-0.17-0.62c-0.05,0.01-0.09,0.02-0.14,0.03
	c-0.66-0.68-1.47-1.25-1.66-2.23c-0.13-0.66,0.45-1.37,0.3-1.98c-0.05-0.22-0.19-0.32-0.32-0.49c-0.06-0.07-0.22-0.06-0.29-0.12
	c-1.01-0.82-1.4-1.42-0.78-2.65c0.04-0.08,0.05-0.17,0.04-0.25c0.41-0.02,0.58-0.63,0.12-0.72c-0.8-0.16-1.8-0.06-2.49-0.49
	c-0.52-0.32-0.58-0.94-1.16-1.14c-0.53-0.18-1-0.02-1.54-0.31c-1.06-0.55-1.25-1.67-1.21-2.75c0.01-0.05,0.01-0.1,0.01-0.15
	c0-0.03,0-0.07,0-0.1c0.02-0.38-0.57-0.48-0.69-0.16c-0.04,0.03-0.08,0.06-0.12,0.11c-2.25,2.93-5.5-1.68-8.11-1.84
	c-1.56-0.09-2.95,0.82-3.9,1.97c-1.66-1.11-3.87-0.41-5.36,0.71c-0.68,0.51-1.12,1.14-1.3,1.97c-0.29,1.37,0.57,3.05-0.79,4.05
	c-0.26,0.19-0.17,0.57,0.16,0.59c0.09,0.01,0.16-0.01,0.24-0.02c-0.06,1.11-0.15,2.15-0.55,3.24c-0.19,0.51,0.63,0.73,0.82,0.23
	c0.04-0.1,0.07-0.2,0.1-0.3c0.22,0.92,0.52,1.84,0.91,2.73c-1.81-0.51-3.93-1.4-2.64-3.83c0.15-0.28,0.05-0.57-0.2-0.76
	c-1.21-0.88-2.52-2.31-1.21-3.8c0.17-0.19,0.11-0.46-0.05-0.6c-0.46-1.62-0.6-3.24,0.88-4.42c0.12-0.1,0.17-0.32,0.12-0.46
	c-0.69-1.89-0.18-4.04,2-4.54c0.4-0.09,0.4-0.51,0.18-0.74c0.45-1.28,0.8-3.88,2.62-2.45c0.2,0.16,0.56,0.19,0.69-0.09
	c0.71-1.52,2.13-2.93,3.96-2.62c0.28,0.05,0.47-0.16,0.5-0.38c0.09-0.02,0.16-0.08,0.21-0.18c0.4-0.87,0.96-1.56,1.92-1.83
	c0.58-0.17,0.99,0.03,1.53-0.06c1.26-0.21,3.25-2.74,4.54-0.79c0.08,0.11,0.19,0.16,0.31,0.16c0.04,0.21,0.3,0.37,0.46,0.17
	c0.67-0.82,2.28-0.8,3.22-0.74c0.41,0.02,0.84,0.24,1.24,0.2c0.58-0.06,1.24-0.59,1.84-0.73c0.93-0.21,1.15-0.05,1.23,1.01
	c0.03,0.42-0.05,0.88-0.05,1.3c0,0.23,0.21,0.33,0.39,0.28c0.06,0.03,0.14,0.04,0.22,0.03c0.69-0.13,1.37-0.24,2.07-0.29
	c0.24-0.02,0.47-0.03,0.71-0.03c0.41,0.53,0.34,0.9-0.22,1.1c-0.29,0.19-0.22,0.77,0.2,0.72c0.87-0.1,2.54-0.22,2.7,0.95
	c0.1,0.74-0.77,1.68-1.16,2.31c-0.04,0.06-0.05,0.11-0.05,0.17c-0.12,0.24,0.01,0.6,0.33,0.57c0.6-0.05,1.2-0.14,1.8-0.08
	c0.63,0.07,2.17,0.72,1.47,1.59c-0.2,0.25-0.17,0.7,0.21,0.78c0.58,0.13,0.86,0.47,1.14,0.97c0.1,0.18,0.95,1.79,0.02,1.75
	c-0.48-0.02-0.57,0.64-0.18,0.83c-0.14,0.21-0.13,0.5,0.17,0.64c0.99,0.46,1.82,0.85,1.84,2.04c0.01,0.82-0.63,1.52-0.56,2.28
	c0.02,0.23,0.18,0.37,0.27,0.57c0.23,0.48,0.68,0.83,0.76,1.43c0.07,0.51,0.01,1.02-0.02,1.54c-0.01,0.17,0.08,0.29,0.2,0.37
	c0.05,0.07,0.11,0.13,0.2,0.16c0.65,0.23,1.12,0.84,1.2,1.53c0.03,0.3-0.24,0.63-0.23,0.93c0.01,0.24,0.04,0.28,0.17,0.49
	c0.06,0.09,0.13,0.1,0.2,0.16c0.51,0.51,0.68,0.36,0.89,1.1c0.18,0.59,0.13,1.27,0.1,1.91c-0.59-0.19-1.21-0.29-1.84-0.29
	c-0.07-0.32-0.46-0.5-0.77-0.24c-0.58,0.48-0.97,0.8-1.77,0.74c-0.25-0.02-0.54,0.25-0.51,0.51c0.06,0.5-0.01,0.96-0.17,1.39
	c-0.16,0.05-0.25,0.25-0.19,0.41c-0.22,0.39-0.53,0.75-0.91,1.05c-0.01,0.01-0.01,0.02-0.02,0.03c-0.34-0.09-0.76,0.25-0.64,0.63
	c0.56,1.65-0.79,2.95-2.38,3c-0.33,0.01-0.6,0.33-0.5,0.66c0.54,1.83-1.37,2.43-2.59,3.07c-0.28-0.19-0.72-0.08-0.7,0.34
	c0.09,1.32,0.25,3.77-1.83,3.5c-0.23-0.03-0.42,0.22-0.42,0.42c0,1.07-0.21,2.2-1.31,2.62c-0.01,0-0.01,0.01-0.02,0.01
	c-0.05,0.02-0.09,0.04-0.15,0.06c-0.15,0.04-0.22,0.16-0.22,0.28c-0.51,0.41-1.08,0.41-1.73,0.33c-0.29-0.03-0.47-0.18-0.77-0.16
	c-0.09,0-0.35,0.07-0.44,0.07c-0.1,0.05-0.19,0.1-0.29,0.15c-1.05-0.34-1.67-1.02-1.84-2.04c-0.08-0.27-0.39-0.4-0.64-0.26
	c-1.05,0.58-2.38-1.5-2.79-2.06c-0.12-0.17-0.3-0.2-0.46-0.16c-0.08-0.17-0.24-0.28-0.47-0.2C52.91,46.72,52.18,46.82,51.39,46.69z"
	/>
<path class="st3" d="M70.04,24.94c0.1-0.56,0.36-1.1,0.74-1.54c0.53-0.61,0.71-0.8,1.47-0.48c1.04,0.44,1.16,1.51,1.26,2.57
	c0.14,1.44-0.46,2.79-1.45,3.85c-0.12-0.66-0.36-1.38-0.88-1.51C71.29,26.74,70.89,25.63,70.04,24.94z"/>
<path class="st53" d="M38.09,65.71c0.28-0.75-0.31-1.39-0.28-2.12c0.02-0.45-0.69-0.55-0.79-0.11c-0.01,0.03,0,0.06,0,0.09
	c-0.61,0.29-1.16,0.7-1.32,1.4c-0.15,0.67,0.22,1.35,0.89,1.54C37.21,66.67,37.86,66.31,38.09,65.71z"/>
<path class="st53" d="M37.25,65.63c-0.46,0.48-0.98-0.14-0.83-0.63c0.1-0.32,0.36-0.57,0.64-0.79c0.03,0.11,0.05,0.21,0.09,0.32
	C37.28,64.86,37.56,65.3,37.25,65.63z"/>
<path class="st53" d="M40.41,66.01c-0.09,0.01-0.16,0.04-0.23,0.09c0,0-0.01,0-0.01,0c-0.01,0-0.01,0.01-0.01,0.01
	c-0.01,0.01-0.02,0.01-0.02,0.02c-1.12,0.89,0.12,2.76,1.39,2.5c0.11-0.02,0.17-0.09,0.19-0.17c0.07-0.04,0.12-0.1,0.14-0.18
	c0.01-0.04,0.01-0.07,0.02-0.11c0.08-0.02,0.15-0.08,0.19-0.18C42.53,67.01,41.39,65.88,40.41,66.01z"/>
<path class="st53" d="M40.48,67.53c-0.14-0.25-0.13-0.5-0.08-0.75c0,0,0,0,0.01,0c0.29-0.03,0.54,0.06,0.73,0.28
	c0.21,0.24,0.19,0.46,0.22,0.75c0,0,0,0.01,0,0.01c-0.03,0.06-0.06,0.12-0.08,0.19C40.96,67.95,40.66,67.84,40.48,67.53z"/>
<path class="st53" d="M38.24,69.95c-0.25-0.06-0.41,0.12-0.44,0.31c-0.78,0.89-0.49,2.62,0.8,2.85c0.15,0.03,0.26-0.04,0.34-0.13
	c0.16,0.05,0.35,0.02,0.46-0.17C40.06,71.71,39.53,70.24,38.24,69.95z"/>
<path class="st53" d="M38.11,71.67c-0.09-0.33,0-0.64,0.18-0.91c0.58,0.32,0.78,1.01,0.41,1.62C38.43,72.2,38.21,72.01,38.11,71.67z
	"/>
<path class="st54" d="M13.23,43.92c-0.17-0.22-0.36-0.43-0.57-0.61c-0.17-0.1-0.34-0.16-0.51-0.23c-0.13-0.87-0.42-1.74-1-2.41
	c-0.06-0.07-0.15-0.12-0.22-0.19c0.11,0.04,0.22,0.07,0.33,0.12c0.98,0.46,1.65,1.18,2.3,2.01c0.25,0.32,0.73-0.04,0.63-0.38
	c0.2-0.63,0.45-1.22,0.75-1.8c-0.03,0.99,0.02,2,0.07,2.99c-0.34,0.08-0.67,0.19-1,0.2C13.76,43.74,13.5,43.83,13.23,43.92z"/>
<path class="st54" d="M27.37,39.52c-0.48-0.34-0.72-0.67-1.09-1.1c-0.23-0.27-0.81-0.55-1.2-0.83c1.16-0.31,2.7,1.36,3.61,1.79
	c0.35,0.16,0.78-0.28,0.45-0.58c-0.02-0.02-0.05-0.04-0.07-0.06c0.31-0.89,0.43-1.8,0.86-2.67c0.22-0.44,0.47-0.85,0.75-1.23
	c-0.47,1.48-0.63,3.1-0.54,4.62c0,0.06,0.02,0.1,0.04,0.15c-0.03,0.19,0.17,0.38,0.37,0.27c0.63-0.32,1.24-0.65,1.93-0.8
	c0.49-0.11,0.96-0.09,1.44-0.08c-0.77,0.42-1.43,1.05-1.96,1.73c-0.57,0.73-1.3,1.85-1.29,2.83c-0.27,0.03-0.55,0.07-0.81,0.12
	c-0.43,0.08-0.86,0.08-1.29,0.03c0-0.07-0.03-0.13-0.07-0.17c0.29-1.16,0.22-2.54-0.49-3.48C27.78,39.74,27.7,39.75,27.37,39.52z"/>
<path class="st55" d="M48.3,76.21c0-0.02,0.01-0.09,0.02-0.17c0,0,0,0,0,0C48.31,76.13,48.3,76.19,48.3,76.21z"/>
<path class="st55" d="M48.3,76.21C48.3,76.22,48.3,76.22,48.3,76.21L48.3,76.21z"/>
<path class="st13" d="M89.07,38.88c0.3,0.06,0.73,0.14,0.9,0.43c0.24,0.41-0.12,0.5-0.41,0.66c-0.49,0.27-0.54,0.82-0.09,1.15
	c0.53,0.41,1.34,1.31,0.94,1.96c-0.15,0.26-0.4,0.39-0.54,0.7c-0.07,0.16-0.05,0.29,0.05,0.42c0.64,0.79,0.53,1.77,0.43,2.7
	c-0.01,0.13,0.04,0.22,0.11,0.27c0.01,0.01,0.01,0.03,0.02,0.04c1.68,2.54-0.27,4.86-0.7,7.37c-0.22,1.25,0,2.45-0.33,3.71
	c-0.29,1.12-0.9,2.19-1.29,3.28c-0.14,0.4,0.51,0.68,0.69,0.29c0.52-1.16,1.11-2.4,1.4-3.64c0.03,0.04,0.06,0.09,0.1,0.14
	c0.38,0.59,0.26,1.14,0.07,1.79c-0.3,1.06-0.76,2.07-1.02,3.14c-0.02,0.07-0.01,0.13,0.01,0.2c-0.02,0.06-0.03,0.14-0.01,0.22
	c0.58,2.13-1.1,5.57-1.68,7.63c-0.55,1.93-2.08,2.8-2.81,4.53c-0.08,0.18-0.02,0.35,0.09,0.46c-0.23,0.9-0.8,2.02-1.5,2.14
	c-0.67,0.11-0.9-0.03-1.41,0.52c-0.73,0.76-0.92,1.79-2.21,1.65c-0.7-0.08-1.14-0.27-1.86-0.16c0.12-0.49,0.22-0.97,0.32-1.37
	c0.05-0.03,0.09-0.07,0.12-0.13c1-2.01,0.07-2.84-0.99-4.52c-0.54-0.85-0.51-1.82-0.97-2.68c-0.42-0.79-1.13-1.34-1.86-1.84
	c0.11-0.26,0.19-0.53,0.22-0.82c0.62-0.76,1.11-1.62,1.27-2.74c0.01-0.04,0-0.08-0.01-0.12c2.56,0.35,5.4,0.05,6.03-2.19
	c0.07,0.01,0.14,0,0.2-0.05c3.75-2.38,5.49-7.51,6.78-11.56c1.17-3.65,2.15-7.7-0.96-10.6c-0.07-0.06-0.14-0.09-0.21-0.09
	c0.37-0.93,0.75-1.9,1.07-2.88C89.04,38.87,89.05,38.88,89.07,38.88z"/>
<path class="st16" d="M69.89,71.62c0.06-0.67-0.11-1.42-0.12-2.1c0-1.85,0.42-3.4,1.4-4.93c0.57,0.32,1.16,0.58,1.63,0.77
	c0.66,0.28,1.57,0.55,2.56,0.74c0,0.01-0.01,0.02-0.01,0.03c-0.25,1.8-1.42,2.93-2.67,4.14c-0.51,0.49-1.01,0.99-1.43,1.55
	c-0.16,0.22-0.32,0.43-0.45,0.67c-0.12,0.21-0.23,0.42-0.32,0.64c-0.15,0.42-0.55,0.51-1.21,0.26
	C69.33,72.7,69.83,72.26,69.89,71.62z"/>
<path class="st3" d="M71,60.77c0.02,0,0.03,0,0.05,0c0.08-0.01,0.15-0.04,0.21-0.1c0.28-0.14,0.22-0.65-0.13-0.61c0,0-0.01,0-0.01,0
	c-0.46-0.26-1.22-0.49-0.96-1.1c0.27-0.63,1.1-0.89,1.69-1.08c0.08-0.02,0.13-0.07,0.17-0.13c0.02,0.01,0.03,0.02,0.05,0.02
	c0.4,0.17,0.7-0.53,0.3-0.71c-0.62-0.27-1.26-0.77-0.97-1.53c0.23-0.58,0.74-0.73,1.27-0.83c0.03,0.01,0.05,0.03,0.08,0.04
	c0.52,0.24,0.97-0.52,0.45-0.77c-0.29-0.14-0.6-0.31-0.77-0.58c-0.28-0.44,0.06-0.74,0.43-0.97c0.66-0.41,1.4-0.62,2.16-0.7
	c1.68-0.1,3.3,0.26,4.88,0.81c0.92,0.32,1.92,0.88,2.91,1.1c0.04,0.05,0.08,0.1,0.15,0.12c1.99,0.73,1.09,3.44,0.52,4.9
	c-0.33,0.84-0.74,1.67-1.26,2.41c-0.23,0.33-0.64,0.66-0.63,1.09c-0.04,0.04-0.07,0.1-0.09,0.17c-0.34,1.63-0.74,2.74-2.53,3.13
	c-1.57,0.34-3.3-0.04-4.79-0.54c-1.34-0.44-2.86-1.07-3.9-2.06C69.01,61.69,69.7,61.17,71,60.77z"/>
<path class="st3" d="M87.73,42.33c4.69,4.86-1.13,16.72-5.48,20.76c0-0.21,0.01-0.42-0.02-0.65c-0.01-0.06-0.03-0.11-0.05-0.15
	c1.24-0.56,2.4-3.98,2.61-4.81c0.41-1.58,0.42-3.77-1.37-4.26c-0.2-0.19-0.43-0.36-0.67-0.51c2.01-2.96,3.44-6.21,4.68-9.56
	C87.52,42.87,87.62,42.6,87.73,42.33z"/>
<path class="st16" d="M87.63,31.7c0.9,0.54,1.19,1.22,1.51,2.13c-1.12,6.48-3.64,12.89-7.1,18.49c-0.72-0.33-1.49-0.58-2.16-0.8
	c-0.8-0.27-1.6-0.48-2.42-0.61c2.71-6.12,6.44-12.61,7.68-19.18c0.01-0.04,0-0.08,0-0.12C85.89,30.96,86.8,31.2,87.63,31.7z"/>
<path class="st3" d="M45.91,35.44c-0.81-0.85-1.74-1.38-2.4-2.41c-0.93-1.44-1.54-3.09-2.08-4.7c-0.03-0.08-0.08-0.14-0.14-0.17
	c0.15-0.77,0.18-1.58,0.02-2.33c0.58-0.52,0.67-1.63,0.59-2.38c-0.14-1.48-0.01-2.63,1.33-3.49c1.32-0.85,2.77-1.12,4.22-0.43
	c0.06,0.03,0.12,0.04,0.17,0.04c0.17,0.12,0.41,0.15,0.58-0.02c1.75-1.79,3.39-1.87,5.58-0.72c1.14,0.6,2.18,1.57,3.43,1.93
	c1.11,0.32,1.93-0.01,2.57-0.72c0.16,1.14,0.75,2.17,1.93,2.59c0.37,0.13,0.86,0.05,1.2,0.21c0.31,0.15,0.46,0.52,0.74,0.76
	c0.63,0.52,1.47,0.61,2.27,0.69c-1.09,1.44-0.28,3,1.14,3.84c0.01,0.01,0.02,0.01,0.03,0.01c0,0.01-0.01,0.02-0.01,0.04
	c-0.05,0.28-0.15,0.55-0.19,0.83c-0.08,0.56-0.09,1.21,0.07,1.76c0.24,0.82,1.04,1.32,1.82,1.68c-0.11,0.12-0.22,0.26-0.28,0.44
	c-0.12,0.33-0.1,0.71-0.16,1.06c-0.1,0.5-0.7,1.44-1.24,1.67c-0.52,0.22-1.14-0.42-1.73-0.4c-0.5,0.02-0.96,0.23-1.25,0.62
	c-0.07-0.11-0.17-0.19-0.33-0.18c-0.68,0.02-1.37-1.14-2.15-1.27c-0.69-0.12-1.18,0.24-1.84,0.3c-0.46,0.04-0.8-0.21-1.29-0.26
	c-0.91-0.11-1.69,0.45-2.58,0.51c-0.01,0-0.02,0.01-0.03,0.01c-0.12,0.01-0.24,0.07-0.3,0.19c-1.21,2.32-3.84,2.2-5.72,0.75
	c-0.37-0.28-0.87,0.36-0.5,0.65c0.19,0.14,0.38,0.27,0.59,0.4c-0.36,0.34-0.59,0.84-0.67,1.36c-0.7-0.05-1.38,0.31-1.9,0.86
	C47.27,37.79,46.88,36.46,45.91,35.44z"/>
<path class="st3" d="M78.36,40.39c-0.08,0.03-0.15,0.1-0.19,0.2c-0.01,0.03-0.02,0.06-0.03,0.09c-0.04,0.05-0.08,0.1-0.11,0.15
	c-0.04,0.05-0.02,0.11,0.02,0.15c-0.26,0.83-0.34,1.66-0.51,2.52c0,0.18,0,0.36-0.01,0.54c-0.85,0.56-1.19,0.34-1.02-0.63
	c-0.02-0.5,0.04-1.01,0.09-1.51c0.02-0.18-0.18-0.35-0.35-0.35c-1.78,0.05-3.5,0.6-5.28,0.78c0.28-0.44,0.43-0.96,0.42-1.54
	c1.8-0.35,3.88-2.25,2.97-4.03c0.52-0.33,0.9-0.77,1.19-1.26c0.34,0.13,0.67,0.26,0.98,0.46c0.47,0.31,0.68,0.79,1.03,1.14
	c0.62,0.6,1.51,0.9,2.27,1.37C79.39,39.15,78.85,39.75,78.36,40.39z"/>
<path class="st3" d="M50.66,59.88c-2.73,0.03-5.58-0.5-8.3-0.36c0.36-0.73,0.25-1.61-0.01-2.61c-0.12-0.44-0.78-0.26-0.68,0.19
	c0.86,3.95-3.73,3.24-5.86,4.41c-1.03,0.57-1.84,1.27-3.04,1.54c-0.63,0.14-2.27,0.23-1.84-0.7c1.51-0.12,2.96-0.77,4.3-1.44
	c0.44-0.22,0.05-0.85-0.38-0.65c-0.92,0.43-1.84,0.89-2.83,1.16c-0.45,0.12-4.02,0.62-3.7-0.69c0.92-0.03,1.9-0.27,2.69-0.37
	c1.41-0.17,2.95-0.18,4.24-0.84c0.36-0.19,0.11-0.82-0.28-0.67c-1.3,0.48-2.7,0.57-4.06,0.76c-0.71,0.1-1.86,0.41-2.54,0.35
	c-0.79,0.19-1.31-0.24-1.54-1.28c0.16-0.15,0.32-0.29,0.47-0.43c2.67,0.16,5.69,0.16,8.18-0.84c0.46-0.18,0.26-0.93-0.21-0.75
	c-2.56,1.03-5.35,0.74-8.05,1.07c0-0.01,0-0.02,0-0.04c-1.15-2.55,4.46-2.5,5.65-2.66c1.53-0.2,2.91-0.91,4.43-1.06
	c0.25-0.02,0.36-0.43,0.06-0.48c-1.41-0.22-2.73,0.42-4.12,0.65c-0.02-0.22-0.21-0.45-0.5-0.4c-0.86,0.15-2.44-1.85-1.01-1.81
	c0.33,0.01,0.71,0.2,1.06,0.24c1.02,0.11,1.8-0.22,2.78-0.4c1.29-0.23,3.12-0.05,4,0.97c0.51,0.59,0.34,0.9,1,1.22
	c0.05,0.02,0.1,0.03,0.15,0.02c0.02,0.01,0.04,0.03,0.06,0.03c2.49,0.29,4.99,0.4,7.49,0.52c1.62,0.07,3.99,0.59,5.59,0.07
	c2.11-0.69,1.64-3.58,1.27-5.7c0.63,0.66,1.37,1.14,2.21,0.94c0.44,1.21,1.22,2.37,2.63,2.28c0.2-0.01,0.39-0.05,0.59-0.09
	c-0.01,0.02-0.01,0.04-0.01,0.06c0.15,0.75,0.7,2.04,1.48,2.53c-0.16,1.17-0.24,2.32-1.04,3.29c0,0,0,0-0.01,0
	C58.39,60.03,53.78,59.85,50.66,59.88z"/>
<path class="st13" d="M65.35,52.94c-0.77,0.32-1.75,0.93-2.57,0.83c-0.1-0.08-0.24-0.12-0.36-0.1c-0.73-0.3-1.04-1.13-1.6-1.71
	c0.18-0.02,0.37-0.04,0.57-0.01c0.28,0.04,0.55,0.19,0.84,0.16c0.73-0.06,1.19-0.57,1.61-1.12c0,0,0,0,0-0.01
	c1.16-0.45,1.55-1.55,1.74-2.74c2-0.03,2.52-2.22,2.41-4c0.01,0,0.02,0,0.04,0c0.91-0.24,1.82-0.69,2.47-1.33
	c1.85,0.07,3.56-0.57,5.37-0.65c-0.1,1.12-0.19,3.6,1.27,3.38c0.5-0.08,0.69-0.55,0.85-0.96c0.46-1.23,0.37-2.64,0.83-3.92
	c0.03-0.09,0.02-0.16,0-0.22c0.64-0.57,1.16-1.27,1.69-1.94c0.1-0.13,0.13-0.32,0-0.44c-0.46-0.43-0.92-0.74-1.48-1.03
	c-0.56-0.29-0.82-0.61-1.19-1.09c-0.43-0.55-1.2-0.98-1.95-1.2c0.12-0.32,0.2-0.66,0.24-1.01c0.62-0.04,1.27-0.27,1.7-0.71
	c0.03,0.01,0.07,0.02,0.11,0.02c0.69,0,1.37,0.1,2.01,0.35c0.22,0.08,1.8,0.95,1.71,1.07c-0.15,0.18-0.09,0.5,0.14,0.57
	c0.05,0.12,0.15,0.23,0.29,0.24c0.44,0.05,0.82,0.11,1.2,0.27c-1.72,5.19-4.49,10.27-6.59,15.18c-0.55-0.05-1.11-0.08-1.68-0.05
	c-1.12,0.13-2.74,0.5-3.4,1.53c-0.43,0.66-0.19,1.32,0.27,1.82c-0.57,0.24-1.05,0.71-1.23,1.26c-0.24,0.75,0.06,1.39,0.57,1.85
	c-0.6,0.17-1.21,0.5-1.6,0.99c-0.04-0.1-0.12-0.17-0.26-0.2c-0.27-0.47-0.54-0.93-0.81-1.4c0.07-0.2-0.08-0.47-0.29-0.52
	c-0.67-0.13-1.68-0.12-2.16-0.63c-0.51-0.55-0.29-1.42-0.23-2.14C65.89,53.1,65.59,52.85,65.35,52.94z"/>
<path class="st13" d="M48.47,68.34c0.12-0.34,0.19-0.66,0.04-1.01c-0.02-0.04-0.3-0.35-0.33-0.44c-0.09-0.06-0.19-0.12-0.28-0.19
	c0.1-0.29,0.23-0.57,0.37-0.83c0.13,0.08,0.29,0.11,0.44,0.02c3.54-2.13,6.49-3.17,10.67-3.3c2.6-0.08,4.98-0.01,7.34-1.23
	c0.24-0.12,0.07-0.48-0.18-0.42c-0.09,0.02-0.18,0.03-0.27,0.06c-0.22-0.75-0.49-1.44-0.45-2.24c0.04-0.75,0.32-1.42,0.7-2.05
	c0.38,0.07,0.78,0.11,1.13,0.15c-0.09,0.94,0.49,1.75,1.5,1.95c0.06,0.01,0.11,0.01,0.16,0c-0.18,0.58,0.12,1.17,0.59,1.54
	c-0.8,0.32-1.41,0.91-1.09,1.91c0.25,0.8,0.97,1.45,1.79,1.98c-0.91,1.21-1.41,2.55-1.55,4.09c-0.02,0.2-0.02,0.4-0.02,0.61
	c-1.42-0.04-2.15,0.37-3.37,1.07c-1.18,0.67-2.57,0.11-3.62,1.06c-0.14,0.13-0.13,0.31-0.05,0.44c-0.79,1.23-1.72,2.58-2.25,3.92
	c-0.41,1.05-0.17,1.91-0.38,2.99c-0.06-0.09-0.16-0.16-0.29-0.18c-1.08-0.14-2.11,0.05-3.17-0.01c-1.02-0.06-1.91-0.2-2.65-1.05
	c-0.11-0.13,0.01-0.47-0.13-0.6c-0.26-0.23-0.42-0.39-0.73-0.55c-0.99-0.5-3.92,0.11-2.62-1.87c0.14-0.22-0.01-0.47-0.22-0.55
	c-0.94-0.35-1.62-0.23-2.36,0.3c-0.01-0.02-0.02-0.05-0.04-0.07C44.89,71.27,47.71,70.59,48.47,68.34z"/>
<path class="st3" d="M57.65,81.92c-0.56,0.14-0.99,0.39-1.35,0.85c-0.01,0.02-0.01,0.03-0.01,0.05c-0.57,0.09-1.14,0.18-1.72,0.18
	c-0.74,0-1.48-0.18-2.22-0.17c-1.48-0.67-3.2-1.24-4.44-2.23c-1.54-1.24-0.87-4.32-0.37-5.99c0.01-0.04,0.01-0.07,0.01-0.1
	c0.38-0.04,0.77-0.08,1.15-0.11c-0.06,0.14-0.12,0.29-0.16,0.44c-0.05-0.21-0.16,0.77-0.21,1.2c-0.02,0.2,0.2,0.39,0.39,0.38
	c0.71-0.03,2.7-0.23,3.27,0.3c0.36,0.34,0.28,0.82,0.4,1.2c0.13,0.38,0.06,0.65,0.4,0.99c0.49,0.5,1.13,0.44,1.76,0.4
	c1.6-0.09,2.89-0.51,4.52-0.29c0.05,0.01,0.08,0,0.12-0.01c-0.24,0.69-0.56,1.32-0.53,2.1c0.01,0.21,0.04,0.41,0.08,0.61
	C58.35,81.76,57.97,81.84,57.65,81.92z"/>
<path class="st18" d="M73.3,85.54c-0.37,0.19-1.22,0.09-1.68,0.22c-0.83,0.23-1.58,0.63-2.22,1.2c-1.06-1.15-2.32-2-4.03-2.23
	c-1.5-0.2-3.57-1.04-5.24-0.75c-0.1-0.57-0.29-1.09-0.42-1.64c0.18-0.16,0.11-0.49-0.11-0.57c-0.22-1.5,0.3-1.97,0.57-3.33
	c0.24-1.22,0.06-2,0.6-3.37c0.47-1.2,1.28-2.32,1.86-3.48c0.91-0.5,1.94-0.14,2.9-0.51c0.56-0.22,0.96-0.68,1.5-0.94
	c0.64-0.31,1.34-0.31,2.03-0.35c0.03,0.56,0.05,1.12-0.04,1.66c-0.13,0.74-0.52,1.26-0.54,2.03c0,0.04,0.01,0.07,0.02,0.1
	c0,0,0,0,0,0c0,0,0,0,0,0c0.01,0.05,0.03,0.09,0.05,0.12c0.19,0.57,0.8,0.91,1.37,0.85c1.09-0.11,1.24-1.21,1.76-1.97
	c0.64-0.95,1.47-1.7,2.25-2.48c0,0,0,0.01,0,0.01c-0.08,0.19,0.11,0.36,0.3,0.35c0.97,0.73,1.55,1.43,1.85,2.68
	c0.1,0.41,0.15,0.76,0.35,1.15c0.79,1.59,2.09,2.35,1.31,4.35c-0.03,0.08-0.02,0.15,0,0.22c-0.23,0.69-0.36,1.62-0.73,2.23
	c-1.02,1.69-0.87,0.6-1.64,1.24c-0.56,0.46-0.81,0.83-1.07,1.51C74.08,84.4,73.9,85.24,73.3,85.54z"/>
<path class="st3" d="M89.84,71.77c-0.3,2.42,0.6,4.72-2.12,6.15c0.92-1.85,1.57-3.81,1.71-5.68c0.04-0.47-0.71-0.57-0.82-0.11
	c-0.74,3.24-1.99,5.87-3.91,8.57c-2.03,2.86-6.35,6.36-10.07,4.55c0.05-0.12,0.09-0.25,0.14-0.37c0.37-1.04,0.88-1.59,1.8-2.21
	c0.18-0.12,0.41-0.18,0.57-0.34c0.33-0.31,0.55-0.78,0.71-1.29c0.05,0.04,0.11,0.06,0.19,0.06c0.38-0.04,0.79-0.06,1.17,0.03
	c-0.28-0.07,0.8,0.38,0.94,0.39c0.33,0.03,0.27,0.07,0.6-0.05c1.27-0.45,1.47-1.86,2.87-2.2c0.69-0.17,0.91-0.19,1.31-0.88
	c0.44-0.77,0.98-1.68,0.94-2.58c0.56-0.69,1.23-1.05,1.77-1.76c0.7-0.91,0.86-2.31,1.16-3.38c0.59-2.07,2.04-4.87,1.36-7.03
	c0.01-0.01,0.02-0.02,0.03-0.04c0.05-0.12,0.1-0.24,0.16-0.36C91.68,65.47,90.1,69.67,89.84,71.77z"/>
<path class="st2" d="M23.89,76.18c-1.67-0.1-6.11-0.86-6.11-0.86s-2.96-1.05-6.97,1.34c-4.01,2.39-7.26,2.1-3.92,3.44
	s-5.06-0.48-0.48,2.68s4.39,5.35,8.12,4.11s-0.67-2.48,5.25-1.24c5.92,1.24,1.62,5.16,5.92,1.24s7.26,0.29,5.06-5.25
	C28.57,76.08,26.95,76.37,23.89,76.18z"/>
<path class="st2" d="M23.89,76.18c-1.67-0.1-6.11-0.86-6.11-0.86s-2.96-1.05-6.97,1.34c-4.01,2.39-7.26,2.1-3.92,3.44
	s-5.06-0.48-0.48,2.68s4.39,5.35,8.12,4.11s-0.67-2.48,5.25-1.24c5.92,1.24,1.62,5.16,5.92,1.24s7.26,0.29,5.06-5.25
	C28.57,76.08,26.95,76.37,23.89,76.18z"/>
<path class="st25" d="M61.05,43.09c-0.54,0.2-0.65,0.81-0.66,1.32c0,0.09-0.11,0.13-0.17,0.07c-0.38-0.34-0.83-0.7-1.35-0.77
	c-0.31-0.04-0.58,0.05-0.82,0.2c-0.08,0.13-0.16,0.25-0.23,0.39c-0.14,0.3-0.27,0.61-0.51,0.84c-0.23,0.23-0.53,0.34-0.82,0.46
	c-0.3,0.13-0.54,0.31-0.71,0.58c0.58,0.34,1.27,0.45,1.82,0.85c0.17-0.26,0.39-0.48,0.66-0.63c0.53-0.3,1.16-0.36,1.76-0.35
	c0.57,0.01,1.14,0.1,1.7,0.14c0.03-0.33,0.04-0.65,0.05-0.98c0.01-0.37,0-0.78,0.23-1.1c0.25-0.35,0.67-0.56,1.07-0.75
	c-0.2-0.07-0.4-0.15-0.61-0.21C62.02,43.05,61.5,42.93,61.05,43.09z"/>
<path class="st25" d="M64.36,36.42c-0.11,0.08-0.22,0.05-0.3-0.03c-0.04,0.03-0.09,0.06-0.15,0.07c-0.64,0.11-0.63,0.11-1.2-0.24
	c-0.56-0.35-1.23-0.94-2-0.92c-0.35,0.01-0.67,0.31-1.01,0.31c-0.58-0.01-0.96-0.39-1.6-0.4c0,0-0.01,0-0.01,0
	c-0.07,0.14-0.13,0.28-0.17,0.45c-0.16,0.81,0.55,1.48,0.46,2.29c-0.01,0.05-0.04,0.1-0.1,0.1c-0.38-0.03-0.77,0-1.1,0.19
	c-0.26,0.15-0.48,0.37-0.73,0.55c-0.61,0.44-1.38,0.59-2.04,0.96c-0.39,0.22-0.71,0.58-0.94,0.97c-0.18,0.3-0.37,0.74-0.24,1.09
	c0.16,0.43,0.75,0.38,1.11,0.32c0.03,0,0.05,0.01,0.06,0.02c0.49-0.49,0.98-0.98,1.53-1.39c0.27-0.2,0.55-0.32,0.89-0.38
	c0.44-0.08,0.88-0.08,1.3-0.24c0.17-0.07,0.33-0.12,0.43-0.28c0.08-0.13,0.13-0.27,0.22-0.4c0.16-0.25,0.38-0.32,0.66-0.3
	c0.3,0.02,0.59,0.1,0.89,0.12c0.15,0.01,0.32-0.02,0.47-0.04c0.15-0.02,0.31-0.04,0.46-0.08c0.25-0.06,0.5-0.16,0.67-0.37
	c0.2-0.26,0.24-0.62,0.24-0.94c0-0.08,0.08-0.12,0.15-0.09c0.2,0.1,0.41,0.13,0.64,0.11c0.19-0.01,0.39-0.05,0.58-0.05
	c0.19,0,0.38,0.04,0.56,0.09c0.38,0.11,0.75,0.27,1.13,0.38c0.29,0.08,0.57,0.15,0.87,0.08c0.23-0.05,0.46-0.13,0.68-0.2
	c0.58-0.2,1.15-0.45,1.71-0.72c0.44-0.21,0.92-0.44,1.29-0.77c0.19-0.17,0.26-0.45,0.35-0.69c0.13-0.37,0.24-0.75,0.34-1.13
	c0.09-0.35,0.17-0.71,0.26-1.06c0.08-0.34,0.17-0.67,0.16-1.02c-0.02-0.58-0.39-0.99-0.84-1.32c-0.3-0.23-0.61-0.43-0.91-0.67
	c-0.27-0.21-0.53-0.44-0.77-0.68c-0.2-0.2-0.38-0.41-0.55-0.63c-0.02,0.13-0.02,0.26,0,0.38c0.19,0.98,1,1.55,1.66,2.23
	c0.05-0.01,0.09-0.03,0.14-0.03c0.33-0.04,0.45,0.48,0.17,0.62c-0.81,0.4-0.4,1.15-0.7,1.79c-0.31,0.64-0.94,1.22-1.48,1.67
	c-0.37,0.31-0.61,0.52-1.1,0.34c-0.22-0.08-0.34-0.31-0.55-0.42C65.34,35.74,64.85,36.06,64.36,36.42z"/>
<path class="st25" d="M50.79,45.94c-0.14-0.4-0.26-0.83-0.23-1.26c0.03-0.35,0.17-0.74,0.48-0.92c0.31-0.18,0.71-0.23,1.06-0.3
	c0.3-0.05,0.61-0.11,0.9-0.21c-0.35-0.19-0.75-0.3-1.13-0.41c-0.49-0.14-0.99-0.28-1.44-0.52c-0.05-0.03-0.06-0.09-0.04-0.14
	c0.09-0.18,0.16-0.37,0.24-0.56c-0.33-0.1-0.66-0.23-0.91-0.48c-0.38-0.37-0.39-0.89-0.25-1.37c0.06-0.21,0.15-0.41,0.23-0.6
	c-0.05,0.01-0.11,0.01-0.16,0c-1.16-0.32-2.52,1.46-2.24,2.55c0,0.02,0,0.03,0,0.05c0.18,0.04,0.33,0.2,0.29,0.45
	c-0.16,0.96,1.29,0.94,1.66,1.51c0.15,0.24,0.15,0.48,0.16,0.75c0.04,1.18,0.6,1.86,1.65,2.14C50.97,46.4,50.87,46.17,50.79,45.94z"
	/>
<path class="st25" d="M38.02,21.34c0.16-0.47,0.38-0.91,0.64-1.34c0.29-0.47,0.61-0.89,0.81-1.4c0.15-0.4,0.26-0.84,0.54-1.19
	c0.27-0.34,0.65-0.45,1.07-0.42c0.13-1.04,0.2-2.14,0.99-2.92c0.47-0.47,1.05-0.78,1.7-0.87c0.66-0.09,1.33,0,1.99-0.1
	c0.08-0.25,0.16-0.51,0.25-0.76c0.25-0.69,0.56-1.4,1.15-1.88c0.6-0.48,1.38-0.71,2.09-0.96c0.65-0.22,1.22-0.56,1.8-0.92
	c0.55-0.34,1.12-0.69,1.74-0.88c0.24-0.07,0.42-0.07,0.64,0.05c0.11,0.06,0.21,0.15,0.32,0.21c0.14,0.08,0.25,0.05,0.39,0
	c0.59-0.18,1.13-0.49,1.68-0.76c1.12-0.55,2.4-0.72,3.63-0.81c0.63-0.05,1.27-0.05,1.9,0.03c0.28,0.04,0.55,0.09,0.83,0.15
	c0.17,0.04,0.36,0.07,0.51,0.16c0.16,0.1,0.11,0.23,0.17,0.37c0.06,0.15,0.24,0.2,0.31,0.34c0.09,0.18-0.04,0.41,0.01,0.6
	c0.12,0.47,1.01,0.29,1.35,0.3c0.38,0.01,0.86,0.11,0.93,0.55c0.03,0.17-0.05,0.45,0.05,0.59c0.08,0.11,0.28,0.18,0.39,0.24
	c0.13,0.06,0.27,0.12,0.41,0.17c0.52,0.19,1.03,0.34,1.46,0.7c0.31,0.26,0.63,0.56,0.73,0.97c0.1,0.4,0.03,0.84,0,1.25
	c0.64,0.13,1.3,0.05,1.93,0.24c0.54,0.17,0.95,0.55,1.09,1.11c0.07,0.27,0.13,0.53,0.24,0.79c0.15,0.32,0.31,0.64,0.49,0.95
	c0.17,0.31,0.35,0.61,0.53,0.92c0.08,0.13,0.19,0.27,0.21,0.43c0.02,0.12-0.02,0.23-0.04,0.35c-0.03,0.21,0.07,0.3,0.23,0.4
	c0.11,0.07,0.24,0.13,0.35,0.21c0.18,0.12,0.28,0.26,0.39,0.44c0.22,0.36,0.42,0.78,0.75,1.06c0.56,0.48,1.36,0.71,2.11,1
	c0.06-0.19,0.09-0.38,0.09-0.59c-0.02-1.19-0.85-1.58-1.84-2.04c-0.3-0.14-0.3-0.42-0.17-0.64c-0.39-0.19-0.3-0.85,0.18-0.83
	c0.92,0.04,0.08-1.57-0.02-1.75c-0.28-0.5-0.56-0.84-1.14-0.97c-0.38-0.08-0.41-0.53-0.21-0.78c0.7-0.88-0.84-1.53-1.47-1.59
	c-0.6-0.06-1.2,0.03-1.8,0.08c-0.32,0.02-0.44-0.34-0.33-0.57c0-0.05,0.02-0.11,0.05-0.17c0.39-0.63,1.26-1.56,1.16-2.31
	c-0.15-1.18-1.83-1.05-2.7-0.95c-0.41,0.05-0.48-0.53-0.2-0.72c0.56-0.2,0.63-0.57,0.22-1.1c-0.24,0-0.48,0.01-0.71,0.03
	c-0.7,0.05-1.38,0.16-2.07,0.29c-0.08,0.02-0.16,0-0.22-0.03c-0.18,0.04-0.4-0.05-0.39-0.28c0-0.42,0.08-0.88,0.05-1.3
	c-0.08-1.06-0.3-1.22-1.23-1.01c-0.61,0.14-1.26,0.68-1.84,0.73c-0.4,0.04-0.83-0.17-1.24-0.2c-0.94-0.06-2.55-0.08-3.22,0.74
	c-0.17,0.2-0.42,0.04-0.46-0.17c-0.11,0-0.23-0.05-0.31-0.16c-1.29-1.95-3.28,0.58-4.54,0.79c-0.54,0.09-0.95-0.11-1.53,0.06
	c-0.96,0.28-1.52,0.97-1.92,1.83c-0.05,0.1-0.12,0.16-0.21,0.18c-0.02,0.22-0.21,0.43-0.5,0.38c-1.83-0.31-3.25,1.11-3.96,2.62
	c-0.13,0.28-0.49,0.25-0.69,0.09c-1.82-1.43-2.17,1.17-2.62,2.45c0.22,0.23,0.22,0.65-0.18,0.74c-2.18,0.5-2.68,2.65-2,4.54
	c0.05,0.14,0,0.37-0.12,0.46c-1.34,1.07-1.35,2.5-1,3.96C37.79,22.14,37.88,21.73,38.02,21.34z"/>
<path class="st14" d="M87.73,42.33c-0.11,0.27-0.21,0.55-0.31,0.81c-0.14,0.38-0.29,0.74-0.43,1.12c0.32,0.7,0.57,1.44,0.73,2.2
	c0.35,1.67,0.23,3.4-0.32,5.01c-0.51,1.47-1.37,2.78-2.4,3.94c0.06,0.69-0.03,1.43-0.2,2.08c-0.21,0.83-1.37,4.25-2.61,4.81
	c0.03,0.05,0.05,0.1,0.05,0.15c0.03,0.23,0.02,0.44,0.02,0.65C86.6,59.05,92.42,47.19,87.73,42.33z"/>
<path class="st14" d="M66.97,30.77c-0.16-0.55-0.15-1.2-0.07-1.76c0.04-0.28,0.13-0.55,0.19-0.83c0-0.02,0.01-0.02,0.01-0.04
	c-0.01-0.01-0.02,0-0.03-0.01c-1.42-0.84-2.23-2.4-1.14-3.84c-0.81-0.08-1.65-0.18-2.27-0.69c-0.29-0.24-0.43-0.61-0.74-0.76
	c-0.34-0.16-0.82-0.08-1.2-0.21c-1.18-0.41-1.77-1.45-1.93-2.59c-0.64,0.71-1.46,1.04-2.57,0.72c-1.25-0.36-2.29-1.33-3.43-1.93
	c-2.19-1.15-3.82-1.07-5.58,0.72c-0.17,0.17-0.41,0.14-0.58,0.02c-0.05,0-0.11-0.01-0.17-0.04c-1.45-0.69-2.89-0.42-4.22,0.43
	c-1.34,0.86-1.47,2.01-1.33,3.49c0.07,0.76-0.01,1.86-0.59,2.38c0.16,0.75,0.13,1.55-0.02,2.33c0.06,0.04,0.11,0.09,0.14,0.17
	c0.15,0.43,0.3,0.87,0.46,1.31c0.1-1.5,0.31-3,0.66-4.46c0.15-0.64,0.33-1.33,0.65-1.91c0.37-0.65,0.94-1.16,1.59-1.51
	c1.38-0.75,3.03-0.93,4.57-0.96c0.19,0,0.38,0,0.57-0.01c0.25-0.02,0.51-0.05,0.76-0.05c0.45-0.01,0.89,0.02,1.33,0.09
	c0.85,0.15,1.64,0.5,2.49,0.68c1.56,0.33,3.16,0.36,4.72,0.69c0.65,0.14,1.31,0.33,1.85,0.73c0.32,0.23,0.54,0.54,0.68,0.91
	c0.14,0.36,0.21,0.74,0.32,1.1c0.27,0.85,0.89,1.48,1.57,2.01c0.66,0.52,1.43,0.99,1.91,1.69c0.33,0.48,0.52,1.06,0.64,1.62
	c0.12,0.62,0.14,1.25,0.08,1.88c-0.12,1.12-0.53,2.23-1.22,3.13c0.1-0.02,0.2-0.04,0.31-0.04c0.59-0.02,1.2,0.62,1.73,0.4
	c0.55-0.23,1.14-1.17,1.24-1.67c0.07-0.35,0.04-0.73,0.16-1.06c0.07-0.19,0.17-0.32,0.28-0.44C68.01,32.09,67.21,31.59,66.97,30.77z
	"/>
<path class="st14" d="M75.5,40.65c0.34-0.39,0.69-0.83,0.84-1.33c0.18-0.65-0.02-1.34-0.19-1.97c-0.15-0.56-0.3-1.14-0.31-1.72
	c-0.09-0.04-0.17-0.07-0.26-0.11c-0.29,0.49-0.68,0.93-1.19,1.26c0.91,1.78-1.17,3.68-2.97,4.03c0.01,0.58-0.14,1.09-0.42,1.54
	c1.16-0.12,2.29-0.38,3.43-0.57C74.78,41.4,75.15,41.04,75.5,40.65z"/>
<path class="st14" d="M60.56,52.07c0-0.02,0-0.04,0.01-0.06c-0.2,0.04-0.4,0.08-0.59,0.09c-0.16,0.01-0.31,0-0.45-0.02
	c-0.05,0.15-0.1,0.29-0.14,0.44c-0.24,0.85-0.36,1.73-0.64,2.57c-0.26,0.76-0.7,1.4-1.37,1.86c-0.46,0.31-0.96,0.52-1.48,0.71
	c-0.64,0.24-1.28,0.43-1.95,0.55c-1.37,0.25-2.76,0.28-4.14,0.28c-0.76,0-1.52,0.02-2.28,0.05c-0.4,0.02-0.8,0.03-1.19,0.02
	c-0.37-0.01-0.76-0.01-1.13-0.08c-0.51-0.1-1.01-0.3-1.5-0.47c-0.38-0.13-0.77-0.28-1.17-0.33c0.12,0.69,0.11,1.31-0.15,1.85
	c2.72-0.14,5.58,0.39,8.3,0.36c3.12-0.03,7.73,0.15,10.33-2c0,0,0,0,0.01,0c0.8-0.97,0.88-2.12,1.04-3.29
	C61.26,54.11,60.71,52.82,60.56,52.07z"/>
<path class="st14" d="M41.07,57.85c-0.55,0.17-1.08,0.41-1.6,0.66c-1.06,0.51-2.09,1.1-3.14,1.63c-0.3,0.15-0.62,0.28-0.93,0.42
	c0.02,0.13-0.03,0.26-0.19,0.34c-1.34,0.67-2.79,1.32-4.3,1.44c-0.43,0.93,1.21,0.84,1.84,0.7c1.2-0.27,2.01-0.97,3.04-1.54
	c2.02-1.11,6.23-0.53,5.95-3.81C41.52,57.72,41.3,57.78,41.07,57.85z"/>
<path class="st14" d="M59.18,79.01c-0.04,0.01-0.07,0.01-0.12,0.01c-1.63-0.22-2.92,0.2-4.52,0.29c-0.63,0.04-1.27,0.1-1.76-0.4
	c-0.34-0.34-0.27-0.61-0.4-0.99c-0.12-0.38-0.04-0.87-0.4-1.2c-0.57-0.53-2.57-0.33-3.27-0.3c-0.19,0.01-0.4-0.18-0.39-0.38
	c0.05-0.42,0.16-1.41,0.21-1.2c0.05-0.15,0.1-0.3,0.16-0.44c-0.38,0.04-0.77,0.08-1.15,0.11c0,0.03,0,0.06-0.01,0.1
	c-0.16,0.53-0.33,1.2-0.44,1.91c0.54,0.46,1.05,0.95,1.58,1.41c0.27,0.23,0.54,0.46,0.82,0.67c0.14,0.1,0.27,0.2,0.41,0.29
	c0.08,0.05,0.16,0.12,0.25,0.15c0.69,0.2,1.4,0.34,2.1,0.51c0.38,0.09,0.76,0.18,1.14,0.29c0.12,0.03,0.25,0.07,0.37,0.11
	c0.08,0.03,0.16,0.05,0.21,0.13c0.21,0.33,0.2,0.81-0.03,1.12c-0.27,0.38-0.73,0.58-1.15,0.72c-0.55,0.19-1.14,0.29-1.71,0.36
	c0.43,0.18,0.86,0.36,1.27,0.55c0.74-0.01,1.48,0.17,2.22,0.17c0.58,0,1.15-0.09,1.72-0.18c0.01-0.02,0-0.03,0.01-0.05
	c0.35-0.46,0.79-0.71,1.35-0.85c0.32-0.08,0.7-0.16,1.08-0.2c-0.04-0.2-0.07-0.4-0.08-0.61C58.62,80.34,58.95,79.71,59.18,79.01z"/>
<path class="st14" d="M90.34,63.24c-0.05,0.12-0.11,0.25-0.16,0.36c-0.01,0.02-0.02,0.02-0.03,0.04c0.68,2.17-0.77,4.96-1.36,7.03
	c-0.3,1.06-0.46,2.47-1.16,3.38c-0.54,0.71-1.21,1.07-1.77,1.76c0.04,0.9-0.5,1.81-0.94,2.58c-0.39,0.69-0.61,0.71-1.31,0.88
	c-1.4,0.34-1.6,1.74-2.87,2.2c-0.33,0.12-0.27,0.08-0.6,0.05c-0.15-0.01-1.22-0.46-0.94-0.39c-0.38-0.1-0.79-0.07-1.17-0.03
	c-0.08,0.01-0.14-0.02-0.19-0.06c-0.17,0.51-0.38,0.98-0.71,1.29c-0.01,0.01-0.02,0.01-0.03,0.02c1.56,0.41,3.22,0.22,4.78-0.17
	c0.08-0.02,0.14,0.05,0.12,0.12c-0.02,0.1-0.05,0.2-0.09,0.3c-0.27,0.78-0.85,1.36-1.58,1.73c-0.83,0.42-1.77,0.58-2.69,0.65
	c-0.97,0.08-1.95,0.04-2.92-0.04c-0.03,0.1-0.07,0.19-0.11,0.29c3.73,1.81,8.05-1.69,10.07-4.55c1.91-2.69,3.17-5.33,3.91-8.57
	c0.1-0.46,0.85-0.36,0.82,0.11c-0.14,1.88-0.78,3.83-1.71,5.68c2.72-1.43,1.82-3.73,2.12-6.15C90.1,69.67,91.68,65.47,90.34,63.24z"
	/>
<path class="st25" d="M76.49,71.74c0.46,0.86,0.43,1.83,0.97,2.68c0.07,0.11,0.14,0.21,0.21,0.31c0.12-0.01,0.23-0.02,0.35-0.03
	c0.39-0.05,0.79-0.11,1.17-0.21c0.29-0.08,0.58-0.19,0.8-0.39c0.18-0.16,0.32-0.32,0.39-0.55c0.06-0.21,0.07-0.43,0.08-0.64
	c0.02-0.49,0.06-0.98,0.33-1.41c0.21-0.34,0.59-0.57,0.93-0.76c0.39-0.22,0.8-0.4,1.19-0.62c0.18-0.1,0.36-0.21,0.53-0.33
	c0.16-0.12,0.29-0.26,0.43-0.4c0.37-0.4,0.64-0.86,0.88-1.35c0.22-0.45,0.44-0.91,0.76-1.3c0.3-0.35,0.64-0.65,0.99-0.94
	c0.25-0.21,0.45-0.44,0.54-0.76c0.04-0.13,0.09-0.28,0.07-0.42c-0.01-0.09-0.02-0.19-0.04-0.28c-0.1-0.67-0.21-1.35-0.27-2.02
	c-0.09-0.9-0.04-1.81-0.05-2.71c0-0.3-0.02-0.59-0.06-0.88c-1.07,2.12-2.45,4.04-4.36,5.25c-0.07,0.04-0.14,0.05-0.2,0.05
	c-0.62,2.24-3.46,2.55-6.03,2.19c0.01,0.04,0.01,0.08,0.01,0.12c-0.15,1.12-0.64,1.98-1.27,2.74c-0.03,0.29-0.11,0.56-0.22,0.82
	C75.35,70.41,76.07,70.95,76.49,71.74z"/>
<path class="st25" d="M82.39,37.28c-0.79-0.72-1.75-1.3-2.81-1.52c-0.66-0.14-1.31-0.08-1.93,0.1c0.06,0.06,0.13,0.12,0.18,0.18
	c0.37,0.48,0.63,0.8,1.19,1.09c0.56,0.29,1.02,0.6,1.48,1.03c0.13,0.13,0.1,0.31,0,0.44c-0.53,0.67-1.05,1.37-1.69,1.94
	c0.03,0.06,0.04,0.13,0,0.22c-0.46,1.27-0.37,2.68-0.83,3.92c-0.16,0.42-0.35,0.89-0.85,0.96c-1.46,0.22-1.37-2.26-1.27-3.38
	c-1.2,0.05-2.36,0.35-3.54,0.52c-0.14,0.48-0.32,0.95-0.56,1.39c-0.19,0.36-0.41,0.71-0.64,1.05c-0.18,0.26-0.35,0.55-0.59,0.77
	c-0.39,0.37-0.88,0.63-1.32,0.93c-0.24,0.16-0.47,0.33-0.68,0.52c-0.17,0.16-0.34,0.34-0.43,0.56c-0.15,0.4,0.12,0.73,0.41,0.97
	c0.4,0.33,0.87,0.57,1.33,0.8c0.45,0.22,0.92,0.43,1.35,0.68c0.34,0.2,0.61,0.47,0.81,0.82c0.07,0.13,0.12,0.26,0.17,0.4
	c0.79-0.58,1.94-0.82,2.81-0.92c0.57-0.03,1.12,0,1.68,0.05c1.85-4.32,4.21-8.77,5.93-13.32C82.54,37.43,82.47,37.35,82.39,37.28z"
	/>
<path class="st25" d="M65.09,70.23c-0.6-0.72-1.64-0.93-2.57-0.8c-0.09,0.01-0.15-0.06-0.11-0.15c0.26-0.52,0.45-1.15,0.88-1.55
	c-1.74-0.43-3.57-0.32-5.3-0.79c-0.05-0.01-0.09-0.07-0.07-0.12c0.05-0.14,0.1-0.28,0.17-0.41c0.24-0.48,0.63-0.87,1.11-1.12
	c0.5-0.25,1.05-0.36,1.61-0.41c1.24-0.11,2.49,0.07,3.73,0.11c0.55,0.02,1.11,0.01,1.65-0.11c0.47-0.11,0.98-0.34,1.29-0.72
	c0.69-0.85-0.54-1.86-1.13-2.33c-0.08-0.06-0.17-0.12-0.25-0.18c-2.16,0.92-4.35,0.88-6.73,0.95c-4.18,0.13-7.13,1.17-10.67,3.3
	c-0.15,0.09-0.31,0.06-0.44-0.02c-0.15,0.27-0.28,0.54-0.37,0.83c0.09,0.06,0.19,0.12,0.28,0.19c0.03,0.09,0.31,0.4,0.33,0.44
	c0.15,0.35,0.08,0.67-0.04,1.01c-0.23,0.67-0.64,1.21-1.05,1.69c0.41,0.12,0.78,0.34,1.12,0.64c0.4,0.36,0.75,0.77,1.21,1.05
	c0.15,0.09,0.3,0.16,0.44,0.25c0.16,0.1,0.35,0.17,0.54,0.22c0.4,0.1,0.82,0.13,1.22,0.2c0.31,0.06,0.69,0.12,0.89,0.39
	c0.13,0.17,0.14,0.39,0.19,0.6c0.06,0.25,0.18,0.44,0.41,0.57c0.15,0.08,0.31,0.12,0.46,0.18c0.13,0.05,0.26,0.09,0.39,0.14
	c0.59,0.2,1.2,0.37,1.8,0.51c1.21,0.28,2.45,0.46,3.7,0.51c0.54-1.29,1.42-2.58,2.18-3.77c-0.08-0.14-0.09-0.32,0.05-0.44
	C62.92,70.26,64.05,70.53,65.09,70.23z"/>
<g>
	<path class="st56" d="M56.78,41.46c1.22,0.46,2.46,0.79,3.73,0.28c0.59-0.23,1.26-0.62,1.73-1.05c0.21-0.19,0.53-1.01,0.72-1.06
		c0.29-0.09,0.33-0.47,0.08-0.63c-0.06-0.04-0.12-0.07-0.17-0.11c-0.17-0.11-0.39-0.06-0.53,0.07c-0.28,0.24-0.2,0.29-0.38,0.59
		c-0.34,0.6-0.71,0.92-1.3,1.26c-1.21,0.69-2.42,0.43-3.65,0.04c0.01-0.04,0.03-0.08,0.04-0.12c0.18-0.65-0.88-0.83-0.93-0.13
		c-0.17,2.16-2.29,3.09-4.2,2.75c-0.42-0.08-0.59,0.5-0.18,0.65C53.94,44.74,55.93,43.39,56.78,41.46z"/>
	<path class="st56" d="M47.64,29.91c0.07-0.08,0.12-0.18,0.12-0.3c0.01-0.41-0.04-0.86-0.34-1.17c-0.08-0.08-0.19-0.14-0.3-0.19
		c-0.22-0.14-0.45-0.22-0.73-0.23c-0.17,0-0.35,0.1-0.43,0.25c-0.22,0.38-0.16,0.83,0.09,1.18c0.05,0.06,0.1,0.11,0.16,0.17
		c0.21,0.31,0.5,0.58,0.73,0.73C47.29,30.56,47.66,30.24,47.64,29.91z"/>
	<path class="st56" d="M53.27,25.67c-0.24-0.07-0.43,0.09-0.51,0.29c-0.17,0.41-0.03,0.95,0.32,1.24c0.38,0.32,0.89,0.36,1.32,0.13
		c0.13-0.07,0.22-0.23,0.22-0.38c-0.01-0.33-0.11-0.67-0.37-0.89c-0.14-0.12-0.31-0.19-0.49-0.21
		C53.6,25.79,53.44,25.72,53.27,25.67z"/>
	<path class="st56" d="M50.53,21.55c0.36-0.22,0.6-0.46,1.06-0.45c0.51,0.02,0.94,0.29,1.43,0.38c0.36,0.06,0.73-0.39,0.39-0.67
		c-0.83-0.72-3.15-1.26-3.52,0.25C49.81,21.42,50.2,21.75,50.53,21.55z"/>
	<path class="st56" d="M44.23,23.73c-0.38,0.58-1.02,1-1.19,1.71c-0.12,0.5,0.07,1.2,0.67,1.23c0.18,0.01,0.34-0.19,0.28-0.37
		c-0.16-0.43-0.18-0.7,0.16-1.07c0.34-0.37,0.72-0.67,0.9-1.16C45.23,23.58,44.49,23.32,44.23,23.73z"/>
	<path class="st56" d="M70.28,28.23c-0.11,0.36,0.3,0.63,0.61,0.47c0.21-0.11,0.42,1.41,0.44,1.54c0.05,0.22,0.26,0.31,0.45,0.3
		c0.17,0.08,0.39,0.06,0.55-0.08c2.14-1.95,2.96-5.14,1.35-7.72c-1.5-2.4-4.13-0.29-4.39,1.88c-0.21,0.08-0.35,0.34-0.13,0.51
		C70.15,25.89,70.66,26.98,70.28,28.23z M70.04,24.94c0.1-0.56,0.36-1.1,0.74-1.54c0.53-0.61,0.71-0.8,1.47-0.48
		c1.04,0.44,1.16,1.51,1.26,2.57c0.14,1.44-0.46,2.79-1.45,3.85c-0.12-0.66-0.36-1.38-0.88-1.51c0.03-0.31,0.01-0.63-0.04-0.94
		c0.17-0.04,0.33-0.15,0.35-0.33c0.04-0.27,0.14-0.52,0.33-0.72c0.21-0.22,0.48-0.27,0.72-0.43c0.27-0.18,0.24-0.62-0.09-0.71
		c-0.45-0.12-0.94,0.16-1.27,0.45c-0.19,0.17-0.34,0.38-0.45,0.6C70.56,25.45,70.33,25.17,70.04,24.94z"/>
	<path class="st56" d="M24.43,84.25c-3.22-2.06-6.32-2.26-9.96-1.44c-0.33,0.07-0.58,0.13-0.81,0.17c1.05-0.75,2.12-1.29,3.45-1.69
		c0.33-0.1,0.28-0.65-0.08-0.62c-1.69,0.13-3.48,0.96-4.65,2.22c-0.26-0.1-0.55-0.24-0.97-0.45c-0.74-0.38-1.1-0.81-1.88-1.16
		c-1.43-0.63-2.74-0.74-4.29-0.62c-0.13,0.01-0.14,0.21,0,0.21c1.04,0.02,2.12,0.13,3.11,0.45c1.56,0.51,2.27,1.98,3.61,2.46
		c0.65,0.23-0.04,0.29,0.98,0.31c0.85,0.02,1.94-0.74,2.8-0.92c2.97-0.63,5.82,0.14,8.31,1.75C24.46,85.18,24.85,84.52,24.43,84.25z
		"/>
	<path class="st56" d="M51.47,86.03c-1.7-0.67-3.56-1.44-5.43-1.42c-0.55,0-1.74,0.36-2.43,0.46c-0.48-1.08-1.2-2.06-2.37-2.36
		c-0.62-0.16-2.23-0.71-2.6,0.13c-0.15,0.34,0.22,0.65,0.52,0.4c0.33-0.28,1.78,0.17,2.15,0.32c0.66,0.26,0.99,0.91,1.38,1.49
		c-0.87-0.11-1.73-0.41-2.57-0.6c-3.08-0.72-5.72-0.59-8.57,0.86c-0.35,0.18-0.04,0.67,0.3,0.52c2.38-1.07,4.95-1.48,7.5-0.73
		c0.99,0.3,1.99,1.1,3.03,1.27c0.45,0.07,0.69-0.26,1.21-0.29c1.67-0.6,3.34-0.61,5.01-0.01c0.89,0.27,1.76,0.58,2.62,0.91
		C51.8,87.17,52.03,86.25,51.47,86.03z"/>
	<path class="st56" d="M76.67,77.7c0.1-0.27-0.34-0.45-0.46-0.19c-0.28,0.59-0.62,1.14-1.06,1.63c-0.49,0.55-1.11,0.86-1.66,1.32
		c-0.26,0.22-0.34,0.29-0.43,0.67c-0.08,0.31-0.03,0.67-0.12,0.99c-0.12,0.41-0.39,0.75-0.62,1.1c-0.2,0.28,0.22,0.54,0.45,0.35
		c0.4-0.34,0.67-0.76,0.83-1.26c0.08-0.25,0.06-0.52,0.13-0.76c0.2-0.63,0.4-0.63,0.86-0.98C75.58,79.82,76.24,78.86,76.67,77.7z"/>
	<path class="st56" d="M64.47,73.07c-0.79,0.6-1.97,1.54-2.16,2.59c-0.21,1.19,0.72,0.94-0.18,2.67c-0.3,0.58-0.74,0.9-0.9,1.57
		c-0.08,0.36,0.47,0.52,0.56,0.15c0.27-1.2,1.43-1.75,1.42-3.05c-0.01-0.63-0.29-1.23-0.08-1.94c0.2-0.66,1.02-1.3,1.55-1.73
		C64.83,73.22,64.63,72.96,64.47,73.07z"/>
	<path class="st56" d="M66.51,76.67c0.22,1.02,0.01,2-0.5,2.9c-0.2,0.35,0.32,0.66,0.54,0.32c0.65-1,0.76-2.21,0.41-3.34
		C66.87,76.26,66.45,76.38,66.51,76.67z"/>
	<path class="st56" d="M37.02,63.48c-0.01,0.03,0,0.06,0,0.09c-0.61,0.29-1.16,0.7-1.32,1.4c-0.15,0.67,0.22,1.35,0.89,1.54
		c0.63,0.17,1.28-0.19,1.5-0.79c0.28-0.75-0.31-1.39-0.28-2.12C37.82,63.14,37.11,63.03,37.02,63.48z M37.25,65.63
		c-0.46,0.48-0.98-0.14-0.83-0.63c0.1-0.32,0.36-0.57,0.64-0.79c0.03,0.11,0.05,0.21,0.09,0.32C37.28,64.86,37.56,65.3,37.25,65.63z
		"/>
	<path class="st56" d="M41.53,68.64c0.11-0.02,0.17-0.09,0.19-0.17c0.07-0.04,0.12-0.1,0.14-0.18c0.01-0.04,0.01-0.07,0.02-0.11
		c0.08-0.02,0.15-0.08,0.19-0.18c0.45-0.99-0.68-2.12-1.67-2c-0.09,0.01-0.16,0.04-0.23,0.09c0,0-0.01,0-0.01,0
		c-0.01,0-0.01,0.01-0.01,0.01c-0.01,0.01-0.02,0.01-0.02,0.02C39.01,67.03,40.25,68.89,41.53,68.64z M40.48,67.53
		c-0.14-0.25-0.13-0.5-0.08-0.75c0,0,0,0,0.01,0c0.29-0.03,0.54,0.06,0.73,0.28c0.21,0.24,0.19,0.46,0.22,0.75c0,0,0,0.01,0,0.01
		c-0.03,0.06-0.06,0.12-0.08,0.19C40.96,67.95,40.66,67.84,40.48,67.53z"/>
	<path class="st56" d="M37.8,70.26c-0.78,0.89-0.49,2.62,0.8,2.85c0.15,0.03,0.26-0.04,0.34-0.13c0.16,0.05,0.35,0.02,0.46-0.17
		c0.66-1.1,0.13-2.57-1.16-2.86C37.99,69.9,37.83,70.07,37.8,70.26z M38.7,72.37c-0.27-0.18-0.5-0.36-0.59-0.71
		c-0.09-0.33,0-0.64,0.18-0.91C38.87,71.08,39.08,71.76,38.7,72.37z"/>
	<path class="st56" d="M9.95,80c-0.31-0.01-0.62-0.1-0.93-0.08c-0.34,0.01-0.53,0.52-0.19,0.68c0.71,0.35,1.62,0.11,2.31-0.18
		c0.31-0.13,0.08-0.61-0.22-0.53C10.6,79.97,10.28,80.01,9.95,80z"/>
	<path class="st56" d="M12.85,77.3c-0.26,0.07-0.15,0.44,0.11,0.4c2.85-0.45,5.38,0.34,7.64,2.06c0.33,0.25,0.75-0.3,0.44-0.57
		C18.8,77.22,15.71,76.58,12.85,77.3z"/>
	<path class="st56" d="M27.67,80.92c-1-0.25-2.06-0.39-3.09-0.51c-0.31-0.04-0.38,0.47-0.07,0.55c1.01,0.24,2.05,0.48,3.08,0.59
		C27.95,81.59,28.02,81.01,27.67,80.92z"/>
	<path class="st56" d="M6.28,44.01c0.87-0.08,1.72-0.28,2.58-0.35c1.05-0.09,2.44-0.09,3.39,0.47c0.22,0.13,0.36,0.61,0.64,0.64
		c0.19,0.02,0.36,0.02,0.56,0.03c0.08,0,1.21-0.31,1.28-0.35c0.2-0.04,0.4-0.08,0.58-0.1c0.11,0.04,0.24,0.03,0.34-0.03
		c0.73-0.04,1.38,0.1,2.2,0.5c0.5,0.24,0.94-0.49,0.44-0.75c-0.78-0.4-1.58-0.66-2.44-0.7c0-1.36-0.03-2.75-0.23-4.09
		c0.03-0.05,0.06-0.09,0.09-0.14c0.28-0.41-0.36-0.75-0.65-0.38c-0.66,0.85-1.06,1.84-1.26,2.88c-1.23-1.56-3.42-2.57-5.37-2.54
		c-0.14-0.07-0.29-0.13-0.43-0.2c-0.41-0.21-0.88,0.32-0.51,0.66c0.71,0.67,1.73,0.78,2.55,1.27c0.77,0.46,1.1,1.21,1.38,2
		c-1.68-0.42-3.37,0.13-5.22,0.68C5.95,43.59,5.98,44.03,6.28,44.01z M11.15,40.67c-0.06-0.07-0.15-0.12-0.22-0.19
		c0.11,0.04,0.22,0.07,0.33,0.12c0.98,0.46,1.65,1.18,2.3,2.01c0.25,0.32,0.73-0.04,0.63-0.38c0.2-0.63,0.45-1.22,0.75-1.8
		c-0.03,0.99,0.02,2,0.07,2.99c-0.34,0.08-0.67,0.19-1,0.2c-0.26,0.11-0.52,0.21-0.78,0.3c-0.17-0.22-0.36-0.43-0.57-0.61
		c-0.17-0.1-0.34-0.16-0.51-0.23C12.02,42.2,11.73,41.33,11.15,40.67z"/>
	<path class="st56" d="M22.37,44.24c1.79-0.38,3.2-0.75,4.94,0.05c0.57,0.26,1,0.67,1.64,0.69c0.2,0.01,0.41-0.18,0.6-0.22
		c1.39-0.3,1.48-0.55,2.82-0.32c0.84,0.15,3.38,0.71,3.62,0.83c0.45,0.22,0.83-0.41,0.39-0.67c-1.46-0.89-3.21-1.19-4.89-1.11
		c0.37-0.75,0.58-1.57,1.1-2.28c0.61-0.82,1.4-1.37,2.2-1.99c0.13-0.1,0.1-0.26,0.02-0.38c0.12-0.16,0.08-0.41-0.16-0.51
		c-1.09-0.46-2.64-0.08-3.72,0.6c0.03-1.75,0.27-3.4,0.6-5.12c0.03-0.04,0.07-0.08,0.1-0.11c0.3-0.33-0.16-0.8-0.49-0.49
		c-1.28,1.19-2.56,3.25-2.59,5.11c-0.65-0.5-1.41-0.97-2.1-1.25c-0.61-0.25-1.25-0.28-1.77,0.05c-0.18-0.34-0.75-0.23-0.76,0.2
		c-0.01,0.46,0.02,0.66,0.41,0.96c0.55,0.43,1.09,0.73,1.6,1.25c0.4,0.41,0.87,0.69,1.25,1.1c0.75,0.78,0.76,1.94,0.56,2.97
		c-1.87-0.4-3.71-1.25-5.54,0.37C22.06,44.07,22.21,44.27,22.37,44.24z M27.37,39.52c-0.48-0.34-0.72-0.67-1.09-1.1
		c-0.23-0.27-0.81-0.55-1.2-0.83c1.16-0.31,2.7,1.36,3.61,1.79c0.35,0.16,0.78-0.28,0.45-0.58c-0.02-0.02-0.05-0.04-0.07-0.06
		c0.31-0.89,0.43-1.8,0.86-2.67c0.22-0.44,0.47-0.85,0.75-1.23c-0.47,1.48-0.63,3.1-0.54,4.62c0,0.06,0.02,0.1,0.04,0.15
		c-0.03,0.19,0.17,0.38,0.37,0.27c0.63-0.32,1.24-0.65,1.93-0.8c0.49-0.11,0.96-0.09,1.44-0.08c-0.77,0.42-1.43,1.05-1.96,1.73
		c-0.57,0.73-1.3,1.85-1.29,2.83c-0.27,0.03-0.55,0.07-0.81,0.12c-0.43,0.08-0.86,0.08-1.29,0.03c0-0.07-0.03-0.13-0.07-0.17
		c0.29-1.16,0.22-2.54-0.49-3.48C27.78,39.74,27.7,39.75,27.37,39.52z"/>
	<path class="st56" d="M48.3,76.21C48.3,76.22,48.3,76.22,48.3,76.21L48.3,76.21z"/>
	<path class="st56" d="M48.3,76.21c0-0.02,0.01-0.09,0.02-0.17c0,0,0,0,0,0C48.31,76.13,48.3,76.19,48.3,76.21z"/>
	<path class="st56" d="M86.21,62.77c-0.48,0.26-0.96,0.54-1.42,0.83c-0.33,0.21-0.73,0.64-1.12,0.37c-0.36-0.25-0.89,0.26-0.62,0.62
		c0.39,0.53,0.87,0.43,1.4,0.15c0.73-0.39,1.38-0.99,2.07-1.45C86.83,63.07,86.55,62.58,86.21,62.77z"/>
	<path class="st56" d="M90.6,62.63c0.45-1.07,0.91-2.3,0.83-3.33c-0.05-0.69-0.42-1.5-1.03-1.86c0.22-1.47,0.15-2.91,0.6-4.41
		c0.64-2.13,1.43-4.05,0.02-6.02c0.02-0.04,0.03-0.07,0.03-0.12c0.05-0.62,0.11-1.26-0.03-1.88c-0.03-0.16-0.13-0.34-0.14-0.5
		c-0.05-0.7-0.15-0.01,0.23-1.1c0.25-0.71,0.02-1.43-0.45-2.07c-0.11-0.16-0.28-0.29-0.39-0.45c-0.11-0.17-0.18-0.27-0.23-0.33
		c0.08,0.03,0.18,0.01,0.27-0.19c0.1-0.2,0.3-0.34,0.35-0.57c0.2-0.92-0.7-1.4-1.45-1.51c-0.01,0-0.01,0-0.02,0
		c0.39-1.34,0.6-2.69,0.44-4.03c0.17-0.02,0.32-0.14,0.3-0.37c-0.17-2.4-3.68-4.9-5.56-2.61c-0.12,0.14-0.11,0.31-0.05,0.43
		c-0.22,1.07-0.51,2.14-0.84,3.2c-0.32-0.13-0.66-0.22-1.01-0.24c0.11-0.75-0.91-1.34-1.48-1.65c-0.04-0.02-0.08-0.04-0.12-0.06
		c0.06-0.94,0.17-2.01-0.16-2.89c-0.14-0.37-0.35-0.72-0.68-0.94c-0.07-0.05-0.31-0.18-0.43-0.21c0.08-0.18,0.14-0.91,0.14-0.9
		c0-0.36-0.09-0.74-0.25-1.07c-0.27-0.55-0.72-0.89-1.25-1.13c0.14-0.83,0.2-1.7-0.15-2.49c-0.09-0.21-0.58-0.7-0.63-0.89
		c-0.11-0.48,0.3-1.1,0.41-1.54c0.45-1.78-0.65-2.79-2.08-3.5c0.52-0.32,0.71-1.12,0.52-1.8c-0.26-0.95-0.81-1.96-1.7-2.4
		c0.21-0.67-0.01-1.39-0.62-1.9c-0.79-0.68-1.85-0.75-2.85-0.61c0.61-0.81,1.37-1.81,0.85-2.68c-0.54-0.9-1.48-1.18-2.44-1.21
		c0.32-0.46,0.44-0.99-0.08-1.47c-0.76-0.71-2.47-0.25-3.53,0c0.16-0.76,0.24-1.71-0.15-2.28c-0.57-0.84-1.95-0.35-2.72-0.08
		c-1.19,0.42-2.15,0.25-3.43,0.4c-0.8,0.09-1.59,0.15-2.11,0.69c-0.7-2.07-3.34-0.7-4.63-0.05c-0.9,0.46-1.85,0.21-2.79,0.65
		c-0.94,0.43-1.58,1.2-1.9,2.16c-0.01,0.02,0,0.04-0.01,0.06c-1.87-0.36-3.57,1.03-4.47,2.61c-1.89-0.89-4.1,1.39-3.46,3.29
		c-0.93,0.21-1.72,0.71-2.25,1.55c-0.67,1.06-0.38,1.98-0.46,3.12c-0.06,0.88-0.2,0.84-0.74,1.57c-0.26,0.35-0.46,0.7-0.55,1.14
		c-0.21,1.04,0.23,2.16,0.7,3.1c-1.6,1.38-0.1,3.47,1.12,4.75c-0.52,1.05-0.77,2.17,0.07,3.17c0.95,1.15,2.69,1.64,4.14,1.7
		c0.29,0.55,0.62,1.08,0.99,1.55c0.55,0.7,1.33,1.05,1.93,1.69c1.04,1.11,1.11,2.61,1.36,4.02c0.01,0.06,0.03,0.11,0.06,0.15
		c-0.24,0.56-0.32,1.15-0.2,1.66c0.05,0.2,0.19,0.29,0.35,0.3c-0.1,0.49,0.09,0.94,0.49,1.29c0.22,0.19,0.56,0.24,0.76,0.43
		c0.38,0.34,0.39,0.67,0.47,1.1c0.08,0.41,0.05,0.73,0.27,1.12c0.94,1.66,3.53,1.66,5.08,1.11c0.01,0,0.01-0.01,0.02-0.01
		c0.04,0.06,0.08,0.13,0.13,0.19c0,0.01-0.01,0.02-0.01,0.04c0.07,1.35,0.45,2.85,0.33,4.18c-0.23,2.57-1.89,2.12-3.96,2.06
		c-3.18-0.1-6.36-0.26-9.54-0.2c-0.43-0.71-0.36-1.39-1.09-1.92c-0.54-0.39-1.35-0.58-1.98-0.72c-0.87-0.2-1.6-0.21-2.47-0.04
		c-1.08,0.22-1.92,0.54-3.05,0.27c-0.2-0.05-0.8-0.37-1.09-0.34c-0.99,0.1-1.08,1.1-0.89,1.94c0.16,0.73,0.56,1.25,1.11,1.54
		c-0.97,0.06-1.95,0.12-2.88,0.36c-1.42,0.36-3.45,2.02-1.78,3.39c0.01,0,0.01,0,0.02,0.01c-0.98,0.66-1.48,1.77,0,2.42
		c0.28,0.12,0.58,0.18,0.89,0.21c-0.47,1.06,1.41,1.57,2.2,1.65c0.14,0.01,0.28,0.01,0.42,0.02c-1.69,1.64,2.87,1.49,4.14,0.91
		c1.27-0.58,2.22-1.37,3.61-1.71c1.13-0.28,2.28-0.36,3.3-0.97c0.3-0.18,0.53-0.38,0.71-0.59c0.03,0.01,0.04,0.03,0.07,0.03
		c5.18,0.21,11.32,0.96,16.41-0.03c2.99-0.58,4.08-2.46,4.35-5.21c0.68-0.04,1.44-0.44,2.09-0.76c-0.08,0.72-0.14,1.56,0.27,2.08
		c0.15,0.19,0.36,0.33,0.61,0.43c-1,1.38-0.8,3.02-0.31,4.64c-3.36,0.63-6.63,0.2-10.01,0.68c-2.7,0.39-5.1,1.63-7.23,3.3
		c-0.06-0.01-0.12-0.01-0.18,0.03c-0.66,0.4-1.09,0.96-1.11,1.76c0,0.14,0.08,0.29,0.21,0.36c1.24,0.68-1.67,3.19-1.93,4.06
		c-0.34,1.15,0.43,2.38,1.19,3.16c0.1,0.1,0.2,0.14,0.31,0.14c-0.44,1.18-0.57,2.38-0.59,3.65c-0.01,0.68-0.14,1.64,0.22,2.26
		c0.45,0.77,1.72,1.23,2.45,1.61c0.68,0.36,1.36,0.7,2.07,1.02c-0.31,0.19-0.54,0.45-0.45,0.81c0.04,0.16,0.2,0.23,0.36,0.2
		c0.03-0.01,0.06-0.01,0.08-0.02c0.1-0.02,0.2-0.14,0.19-0.25c0-0.02,0-0.05-0.01-0.07c0-0.06-0.04-0.11-0.08-0.15
		c0.35,0.03,0.71,0.01,1.06-0.04c0.14,0.05,0.28,0.11,0.42,0.16c0.15,0.05,0.27,0,0.37-0.08c0.23,0.03,0.46,0.05,0.69,0.09
		c0.34,0.04,0.67,0.09,1.01,0.1c0.92,0.04,1.9-0.01,2.76-0.36c0.34-0.13,0.41-0.65,0.15-0.83c0.47-0.11,0.98-0.09,1.47-0.16
		c0.16,0.54,0.35,1.07,0.45,1.62c-0.24,0.11-0.47,0.25-0.68,0.44c-0.17,0.15,0.01,0.46,0.22,0.38c1.87-0.71,3.62,0.23,5.48,0.5
		c2.62,0.38,4.07,1.49,5.52,3.71c0.34,0.52,1.18,0.03,0.84-0.49c-0.08-0.12-0.16-0.24-0.25-0.36c1.37-0.83,3.88-0.27,5.24-0.01
		c1.68,0.32,3.15,0.78,4.4,2.01c0.42,0.41,1.05-0.22,0.65-0.64c-1.62-1.68-3.8-2.11-6.05-2.4c-1.47-0.19-3.4-0.45-4.55,0.6
		c-0.1-0.13-0.2-0.26-0.3-0.39c0.61-0.41,1.2-0.79,1.93-1c0.6-0.17,1.52,0.02,2.05-0.3c0.18-0.11,0.31-0.25,0.42-0.41
		c2.4,2.04,7-0.1,8.98-1.93c1.48-1.37,2.87-3.15,3.96-5.09c0.14,0.14,0.35,0.22,0.57,0.12c1.1-0.49,2.67-1.37,3.1-2.64
		c0.62-1.82-0.24-3.75,0.09-5.75C91.38,68.27,92.54,64.45,90.6,62.63z M89.07,38.88c0.16,0.04,0.37,1.15,0.36,1.18
		c0,0.05-0.24,0.2-0.24,0.3c0.01,0.18-0.05,0.35,0.03,0.53c0.23,0.57,1.24,0.86,1.28,1.62c0.03,0.62-0.34,0.73-0.63,1.27
		c-0.08,0.15-0.04,0.29,0.05,0.42c0.65,0.84,0.53,1.76,0.43,2.7c-0.01,0.13,0.04,0.21,0.11,0.27c0.01,0.01,0.01,0.03,0.02,0.04
		c1.68,2.54-0.27,4.86-0.7,7.37c-0.22,1.25,0,2.45-0.33,3.71c-0.29,1.12-0.9,2.19-1.29,3.28c-0.14,0.4,0.51,0.68,0.69,0.29
		c0.52-1.16,1.11-2.4,1.4-3.64c0.03,0.04,0.06,0.09,0.1,0.14c0.38,0.59,0.26,1.14,0.07,1.79c-0.3,1.06-0.76,2.07-1.02,3.14
		c-0.02,0.07-0.01,0.13,0.01,0.2c-0.02,0.06-0.03,0.14-0.01,0.22c0.58,2.13-1.1,5.57-1.68,7.63c-0.55,1.93-2.08,2.8-2.81,4.53
		c-0.08,0.18-0.02,0.35,0.09,0.46c-0.23,0.9-0.8,2.02-1.5,2.14c-0.67,0.11-0.9-0.03-1.41,0.52c-0.73,0.76-0.92,1.79-2.21,1.65
		c-0.7-0.08-1.14-0.27-1.86-0.16c0.12-0.49,0.22-0.97,0.32-1.37c0.05-0.03,0.09-0.07,0.12-0.13c1-2.01,0.07-2.84-0.99-4.52
		c-0.54-0.85-0.51-1.82-0.97-2.68c-0.42-0.79-1.13-1.34-1.86-1.84c0.11-0.26,0.19-0.53,0.22-0.82c0.03-0.04,0.07-0.08,0.1-0.12
		c0.19-0.03,0.31-0.19,0.26-0.38c0.44-0.64,0.79-1.36,0.91-2.24c0.01-0.04,0-0.08-0.01-0.12c2.56,0.35,5.4,0.05,6.03-2.19
		c0.07,0.01,0.14,0,0.2-0.05c3.75-2.38,5.49-7.51,6.78-11.56c1.17-3.65,2.15-7.7-0.96-10.6c-0.07-0.06-0.14-0.09-0.21-0.09
		c0.37-0.94,0.75-1.9,1.07-2.88C89.04,38.87,89.05,38.87,89.07,38.88z M71.43,72.99c0.06-0.12,0.13-0.24,0.2-0.35
		c0.18,0.21,0.34,0.42,0.52,0.62C71.92,73.16,71.67,73.08,71.43,72.99z M69.36,72.95c0.33,0.13,0.66,0.26,0.99,0.39
		c-0.2,0.23-0.56,0.25-1.08,0.05C69.28,73.24,69.31,73.09,69.36,72.95z M69.65,72.33c0.11-0.21,0.2-0.43,0.23-0.67
		c0.11-0.02,0.22-0.04,0.31-0.05c0.17-0.02,0.34-0.05,0.51-0.08c0.13,0.17,0.28,0.33,0.41,0.49c-0.11,0.15-0.22,0.3-0.32,0.47
		c-0.04,0.07-0.07,0.15-0.11,0.22C70.34,72.58,70,72.45,69.65,72.33z M68.85,72.04c-0.16-0.06-0.32-0.11-0.48-0.17
		c0.18-0.01,0.36-0.03,0.54-0.05C68.89,71.89,68.88,71.97,68.85,72.04z M69.09,68.04c-0.04-0.06-0.09-0.12-0.13-0.18
		c0.05,0.01,0.1,0.03,0.15,0.04C69.11,67.95,69.1,67.99,69.09,68.04z M69.84,70.41c0.1,0.13,0.19,0.28,0.3,0.41
		c-0.09,0.01-0.17,0.02-0.26,0.03C69.86,70.71,69.85,70.56,69.84,70.41z M71.64,71.37C71.64,71.37,71.64,71.37,71.64,71.37
		L71.64,71.37L71.64,71.37z M71.05,70.68c-0.44-0.55-0.85-1.13-1.27-1.7c0.02-0.47,0.07-0.92,0.16-1.35c0.59,0.2,1.2,0.34,1.81,0.44
		c0.25,0.04,0.48,0.09,0.72,0.14c0.33,0.44,0.64,0.89,0.93,1.35c-0.23,0.24-0.47,0.47-0.72,0.71c-0.02,0.02-0.05,0.05-0.07,0.07
		C72.1,70.47,71.58,70.58,71.05,70.68z M71,60.77c0.02,0,0.03,0,0.05,0c0,0,0.01,0,0.01,0c0.78,0.15,1.54,0.29,2.28,0.59
		c0.64,0.26,0.92,0.42,1.55,0.48c1.27,0.13,2.32,1.05,3.61,0.97c0.14-0.01,0.2-0.19,0.07-0.27c-1.05-0.66-2.1-1.29-3.33-1.51
		c-1.45-0.26-2.78-0.91-4.29-1.1c-0.03,0-0.05,0-0.08,0.01c-0.44-0.22-0.94-0.46-0.72-0.98c0.27-0.63,1.1-0.89,1.69-1.08
		c0.06-0.02,0.11-0.06,0.15-0.1c0.03,0,0.06,0,0.09,0c0.07,0.02,0.14,0.02,0.2,0c1.42,0,2.76,0.22,4.14,0.63
		c1.22,0.36,2.43,0.87,3.71,0.88c0.19,0,0.29-0.29,0.1-0.38c-2.3-1.11-5.36-2.1-8.01-1.91c-0.57-0.28-1.09-0.76-0.82-1.46
		c0.23-0.58,0.74-0.73,1.27-0.83c0.03,0.01,0.05,0.03,0.08,0.04c0.13,0.06,0.25,0.06,0.36,0.01c1.48,0.07,2.75,0.61,4.14,1.1
		c1.26,0.44,2.39,0.42,3.67,0.64c0.24,0.04,0.44-0.31,0.18-0.43c-1.19-0.57-2.62-0.61-3.88-1.09c-1.36-0.52-2.67-1.04-4.14-1.07
		c-0.25-0.13-0.51-0.28-0.66-0.52c-0.28-0.44,0.06-0.74,0.43-0.97c0.66-0.41,1.4-0.62,2.16-0.7c1.68-0.1,3.3,0.26,4.88,0.81
		c0.92,0.32,1.92,0.88,2.91,1.1c0.04,0.05,0.08,0.1,0.15,0.12c1.99,0.73,1.09,3.44,0.52,4.9c-0.33,0.84-0.74,1.67-1.26,2.41
		c-0.23,0.33-0.64,0.66-0.63,1.09c-0.04,0.04-0.07,0.1-0.09,0.17c-0.34,1.63-0.74,2.74-2.53,3.13c-1.57,0.34-3.3-0.04-4.79-0.54
		c-1.34-0.44-2.86-1.07-3.9-2.06C69.01,61.69,69.7,61.17,71,60.77z M87.73,42.33c4.69,4.86-1.13,16.72-5.48,20.76
		c0-0.21,0.01-0.42-0.02-0.65c-0.01-0.06-0.03-0.11-0.05-0.15c1.24-0.56,2.4-3.98,2.61-4.81c0.41-1.58,0.42-3.77-1.37-4.26
		c-0.2-0.19-0.43-0.36-0.67-0.51c2.01-2.96,3.44-6.21,4.68-9.56C87.52,42.87,87.62,42.6,87.73,42.33z M72.8,65.36
		c0.66,0.28,1.57,0.55,2.56,0.74c0,0.01-0.01,0.02-0.01,0.03c-0.1,0.73-0.36,1.35-0.71,1.91c-0.55-0.33-1.23-0.45-1.87-0.54
		c-0.15-0.19-0.29-0.39-0.45-0.57c-0.39-0.46-0.79-1.01-1.3-1.34c0.01-0.01,0.03-0.01,0.04-0.02c0.31-0.13,0.19-0.59-0.07-0.69
		c0.06-0.09,0.12-0.19,0.18-0.28C71.75,64.91,72.33,65.16,72.8,65.36z M73.89,69.03c-0.12-0.18-0.24-0.36-0.36-0.54
		c0.21,0.07,0.42,0.14,0.63,0.22C74.07,68.82,73.98,68.93,73.89,69.03z M71.82,67.34c-0.58-0.1-1.17-0.19-1.75-0.28
		c0.1-0.37,0.22-0.73,0.37-1.09C70.97,66.29,71.42,66.83,71.82,67.34z M87.63,31.7c0.9,0.54,1.19,1.22,1.51,2.13
		c-1.12,6.48-3.64,12.89-7.1,18.49c-0.72-0.33-1.49-0.58-2.16-0.8c-0.8-0.27-1.6-0.48-2.42-0.61c2.71-6.12,6.44-12.61,7.68-19.18
		c0.01-0.04,0-0.08,0-0.12C85.89,30.96,86.8,31.2,87.63,31.7z M45.91,35.44c-0.81-0.85-1.74-1.38-2.4-2.41
		c-0.93-1.44-1.54-3.09-2.08-4.7c-0.03-0.08-0.08-0.14-0.14-0.17c0.15-0.77,0.18-1.58,0.02-2.33c0.58-0.52,0.67-1.63,0.59-2.38
		c-0.14-1.48-0.01-2.63,1.33-3.49c1.32-0.85,2.77-1.12,4.22-0.43c0.06,0.03,0.12,0.04,0.17,0.04c0.17,0.12,0.41,0.15,0.58-0.02
		c1.75-1.79,3.39-1.87,5.58-0.72c1.14,0.6,2.18,1.57,3.43,1.93c1.11,0.32,1.93-0.01,2.57-0.72c0.16,1.14,0.75,2.17,1.93,2.59
		c0.37,0.13,0.86,0.05,1.2,0.21c0.31,0.15,0.46,0.52,0.74,0.76c0.63,0.52,1.47,0.61,2.27,0.69c-1.09,1.44-0.28,3,1.14,3.84
		c0.01,0.01,0.02,0.01,0.03,0.01c0,0.01-0.01,0.02-0.01,0.04c-0.05,0.28-0.15,0.55-0.19,0.83c-0.08,0.56-0.09,1.21,0.07,1.76
		c0.24,0.82,1.04,1.32,1.82,1.68c-0.11,0.12-0.22,0.26-0.28,0.44c-0.12,0.33-0.1,0.71-0.16,1.06c-0.1,0.5-0.7,1.44-1.24,1.67
		c-0.52,0.22-1.14-0.42-1.73-0.4c-0.5,0.02-0.96,0.23-1.25,0.62c-0.07-0.11-0.17-0.19-0.33-0.18c-0.68,0.02-1.37-1.14-2.15-1.27
		c-0.69-0.12-1.18,0.24-1.84,0.3c-0.46,0.04-0.8-0.21-1.29-0.26c-0.91-0.11-1.69,0.45-2.58,0.51c-0.13,0-0.25,0.05-0.34,0.21
		c-0.82,1.51-2.94,2.24-4.57,1.62c0-0.12-0.07-0.25-0.22-0.23c-0.06,0.01-0.12,0.03-0.18,0.04c-0.4-0.22-0.76-0.54-1.04-0.96
		c-1.22-1.83,0.24-4.94,0.89-6.8c0.16-0.45-0.55-0.64-0.71-0.2c-0.97,2.64-2.81,6.33,0.11,8.31c0.02,0.01,0.04,0.02,0.06,0.03
		c-0.35,0.34-0.56,0.83-0.65,1.33c-0.7-0.05-1.38,0.31-1.9,0.86C47.27,37.79,46.88,36.46,45.91,35.44z M51.39,46.69
		c-1.26-0.21-1.92-0.91-1.97-2.21c-0.01-0.28-0.01-0.51-0.16-0.75c-0.37-0.57-1.82-0.55-1.66-1.51c0.04-0.25-0.11-0.41-0.29-0.45
		c0-0.02,0-0.03,0-0.05c-0.28-1.09,1.08-2.86,2.24-2.55c0.24,0.07,0.51-0.12,0.51-0.38c-0.02-0.64,0.25-1.02,0.59-1.42
		c2.07,0.93,4.7,0.5,5.7-1.77c0.01-0.01,0-0.02,0.01-0.03c0.59-0.07,1.13-0.36,1.75-0.34c0.65,0.01,1.02,0.39,1.6,0.4
		c0.34,0,0.66-0.3,1.01-0.31c0.77-0.02,1.44,0.57,2,0.92c0.56,0.35,0.56,0.35,1.2,0.24c0.06-0.01,0.11-0.03,0.15-0.07
		c0.08,0.08,0.19,0.11,0.3,0.03c0.49-0.36,0.98-0.68,1.61-0.35c0.21,0.11,0.33,0.33,0.55,0.42c0.48,0.18,0.72-0.03,1.1-0.34
		c0.54-0.45,1.17-1.03,1.48-1.67c0.3-0.63-0.1-1.39,0.7-1.79c0.28-0.14,0.16-0.67-0.17-0.62c-0.05,0.01-0.09,0.02-0.14,0.03
		c-0.66-0.68-1.47-1.25-1.66-2.23c-0.13-0.66,0.45-1.37,0.3-1.98c-0.05-0.22-0.19-0.32-0.32-0.49c-0.06-0.07-0.22-0.06-0.29-0.12
		c-1.01-0.82-1.4-1.42-0.78-2.65c0.04-0.08,0.05-0.17,0.04-0.25c0.41-0.02,0.58-0.63,0.12-0.72c-0.8-0.16-1.8-0.06-2.49-0.49
		c-0.52-0.32-0.58-0.94-1.16-1.14c-0.53-0.18-1-0.02-1.54-0.31c-1.06-0.55-1.25-1.67-1.21-2.75c0.01-0.05,0.01-0.1,0.01-0.15
		c0-0.03,0-0.07,0-0.1c0.02-0.38-0.57-0.48-0.69-0.16c-0.04,0.03-0.08,0.06-0.12,0.11c-2.25,2.93-5.5-1.68-8.11-1.84
		c-1.56-0.09-2.95,0.82-3.9,1.97c-1.66-1.11-3.87-0.41-5.36,0.71c-0.68,0.51-1.12,1.14-1.3,1.97c-0.29,1.37,0.57,3.05-0.79,4.05
		c-0.26,0.19-0.17,0.57,0.16,0.59c0.09,0.01,0.16-0.01,0.24-0.02c-0.06,1.11-0.15,2.15-0.55,3.24c-0.19,0.51,0.63,0.73,0.82,0.23
		c0.04-0.1,0.07-0.2,0.1-0.3c0.22,0.92,0.52,1.84,0.91,2.73c-1.81-0.51-3.93-1.4-2.64-3.83c0.15-0.28,0.05-0.57-0.2-0.76
		c-1.21-0.88-2.52-2.31-1.21-3.8c0.17-0.19,0.11-0.46-0.05-0.6c-0.46-1.62-0.6-3.24,0.88-4.42c0.12-0.1,0.17-0.32,0.12-0.46
		c-0.69-1.89-0.18-4.04,2-4.54c0.4-0.09,0.4-0.51,0.18-0.74c0.45-1.28,0.8-3.88,2.62-2.45c0.2,0.16,0.56,0.19,0.69-0.09
		c0.71-1.52,2.13-2.93,3.96-2.62c0.28,0.05,0.47-0.16,0.5-0.38c0.09-0.02,0.16-0.08,0.21-0.18c0.4-0.87,0.96-1.56,1.92-1.83
		c0.58-0.17,0.99,0.03,1.53-0.06c1.26-0.21,3.25-2.74,4.54-0.79c0.08,0.11,0.19,0.16,0.31,0.16c0.04,0.21,0.3,0.37,0.46,0.17
		c0.67-0.82,2.28-0.8,3.22-0.74c0.41,0.02,0.84,0.24,1.24,0.2c0.58-0.06,1.24-0.59,1.84-0.73c0.93-0.21,1.15-0.05,1.23,1.01
		c0.03,0.42-0.05,0.88-0.05,1.3c0,0.23,0.21,0.33,0.39,0.28c0.06,0.03,0.14,0.04,0.22,0.03c0.69-0.13,1.37-0.24,2.07-0.29
		c0.24-0.02,0.47-0.03,0.71-0.03c0.41,0.53,0.34,0.9-0.22,1.1c-0.29,0.19-0.22,0.77,0.2,0.72c0.87-0.1,2.54-0.22,2.7,0.95
		c0.1,0.74-0.77,1.68-1.16,2.31c-0.04,0.06-0.05,0.11-0.05,0.17c-0.12,0.24,0.01,0.6,0.33,0.57c0.6-0.05,1.2-0.14,1.8-0.08
		c0.63,0.07,2.17,0.72,1.47,1.59c-0.2,0.25-0.17,0.7,0.21,0.78c0.58,0.13,0.86,0.47,1.14,0.97c0.1,0.18,0.95,1.79,0.02,1.75
		c-0.48-0.02-0.57,0.64-0.18,0.83c-0.14,0.21-0.13,0.5,0.17,0.64c0.99,0.46,1.82,0.85,1.84,2.04c0.01,0.82-0.63,1.52-0.56,2.28
		c0.02,0.23,0.18,0.37,0.27,0.57c0.23,0.48,0.68,0.83,0.76,1.43c0.07,0.51,0.01,1.02-0.02,1.54c-0.01,0.17,0.08,0.29,0.2,0.37
		c0.05,0.07,0.11,0.13,0.2,0.16c0.65,0.23,1.12,0.84,1.2,1.53c0.03,0.3-0.24,0.63-0.23,0.93c0.01,0.24,0.04,0.28,0.17,0.49
		c0.06,0.09,0.13,0.1,0.2,0.16c0.51,0.51,0.68,0.36,0.89,1.1c0.18,0.59,0.13,1.27,0.1,1.91c-0.59-0.19-1.21-0.29-1.84-0.29
		c-0.07-0.32-0.46-0.5-0.77-0.24c-0.58,0.48-0.97,0.8-1.77,0.74c-0.25-0.02-0.54,0.25-0.51,0.51c0.06,0.5-0.01,0.96-0.17,1.39
		c-0.16,0.05-0.25,0.25-0.19,0.41c-0.01,0.03-0.03,0.05-0.04,0.08c-0.09,0.05-0.15,0.14-0.16,0.24c-0.2,0.27-0.43,0.51-0.71,0.74
		c-0.01,0.01-0.01,0.02-0.02,0.03c-0.34-0.09-0.76,0.25-0.64,0.63c0.56,1.65-0.79,2.95-2.38,3c-0.33,0.01-0.6,0.33-0.5,0.66
		c0.54,1.83-1.37,2.43-2.59,3.07c-0.28-0.19-0.72-0.08-0.7,0.34c0.09,1.32,0.25,3.77-1.83,3.5c-0.23-0.03-0.42,0.22-0.42,0.42
		c0,1.07-0.21,2.2-1.31,2.62c-0.01,0-0.01,0.01-0.02,0.01c-0.05,0.02-0.09,0.04-0.15,0.06c-0.15,0.04-0.22,0.16-0.22,0.28
		c-0.51,0.41-1.08,0.41-1.73,0.33c-0.29-0.03-0.47-0.18-0.77-0.16c-0.09,0-0.35,0.07-0.44,0.07c-0.1,0.05-0.19,0.1-0.29,0.15
		c-1.05-0.34-1.67-1.02-1.84-2.04c-0.08-0.27-0.39-0.4-0.64-0.26c-1.05,0.58-2.38-1.5-2.79-2.06c-0.12-0.17-0.3-0.2-0.46-0.16
		c-0.08-0.17-0.24-0.28-0.47-0.2C52.91,46.72,52.18,46.82,51.39,46.69z M78.36,40.39c-0.08,0.03-0.15,0.1-0.19,0.2
		c-0.01,0.03-0.02,0.06-0.03,0.09c-0.04,0.05-0.08,0.1-0.11,0.15c-0.04,0.05-0.02,0.11,0.02,0.15c-0.11,0.34-0.19,0.68-0.25,1.02
		c-0.28,0.27-0.55,0.54-0.82,0.82c0,0,0,0,0,0c-0.15,0.04-0.29,0.08-0.44,0.12c0.02-0.35,0.05-0.69,0.08-1.04
		c0.02-0.18-0.18-0.35-0.35-0.35c-1.78,0.05-3.5,0.6-5.28,0.78c0.28-0.44,0.43-0.96,0.42-1.54c1.8-0.35,3.88-2.25,2.97-4.03
		c0.15-0.1,0.26-0.22,0.4-0.33c0.11,0.43,0.24,0.85,0.36,1.27c0.17,0.62,0.33,1.29,0.76,1.78c0.16,0.18,0.52,0.04,0.5-0.21
		c-0.06-0.65-0.33-1.29-0.49-1.93c-0.14-0.56-0.26-1.13-0.44-1.67c0.04-0.06,0.09-0.12,0.12-0.18c0.34,0.13,0.67,0.26,0.98,0.46
		c0.47,0.31,0.68,0.79,1.03,1.14c0.62,0.6,1.51,0.9,2.27,1.37C79.39,39.15,78.85,39.75,78.36,40.39z M76.96,43.7
		c0.05-0.04,0.09-0.09,0.14-0.13c0.15-0.04,0.3-0.08,0.45-0.12c0,0.02-0.01,0.04-0.01,0.06c0,0.18,0,0.36-0.01,0.54
		c-0.57,0.37-0.9,0.39-1.01,0.07C76.67,43.98,76.82,43.84,76.96,43.7z M26.82,58.66c0.16-0.15,0.32-0.29,0.47-0.43
		c2.52,0.15,5.36,0.15,7.76-0.7c-0.03,0.43-0.03,0.86,0.01,1.29c-0.03,0-0.07,0-0.11,0.02c-1.3,0.48-2.7,0.57-4.06,0.76
		c-0.71,0.1-1.86,0.41-2.54,0.35C27.57,60.12,27.05,59.7,26.82,58.66z M42.36,59.52c0.36-0.73,0.25-1.61-0.01-2.61
		c-0.12-0.44-0.78-0.26-0.68,0.19c0.86,3.95-3.73,3.24-5.86,4.41c-1.03,0.57-1.84,1.27-3.04,1.54c-0.63,0.14-2.27,0.23-1.84-0.7
		c1.51-0.12,2.96-0.77,4.3-1.44c0.44-0.22,0.05-0.85-0.38-0.65c-0.92,0.43-1.84,0.89-2.83,1.16c-0.45,0.12-4.02,0.62-3.7-0.69
		c0.92-0.03,1.9-0.27,2.69-0.37c1.39-0.17,2.9-0.18,4.17-0.81c0.05,0.26,0.1,0.53,0.18,0.78c0.15,0.45,0.8,0.27,0.7-0.19
		c-0.3-1.45-0.29-2.7-0.12-4.16c0.04-0.34-0.45-0.35-0.55-0.08c-0.09,0.25-0.15,0.51-0.21,0.78c-2.54,0.99-5.29,0.71-7.96,1.04
		c0-0.01,0-0.02,0-0.04c-1.15-2.55,4.46-2.5,5.65-2.66c1.37-0.18,2.63-0.75,3.98-0.98c-0.07,0.37,0.26,0.86,0.42,1.15
		c0.35,0.62,0.77,1.21,1.31,1.67c0.31,0.27,0.71-0.14,0.45-0.45c-0.31-0.36-0.63-0.71-0.9-1.11c-0.19-0.28-0.73-0.93-0.68-1.29
		c0.01-0.04-0.01-0.08-0.02-0.12c0.14-0.12,0.16-0.37-0.07-0.41c-1.41-0.22-2.73,0.42-4.12,0.65c-0.02-0.22-0.21-0.45-0.5-0.4
		c-0.86,0.15-2.44-1.85-1.01-1.81c0.33,0.01,0.71,0.2,1.06,0.24c1.02,0.11,1.8-0.22,2.78-0.4c1.29-0.23,3.12-0.05,4,0.97
		c0.51,0.59,0.34,0.9,1,1.22c0.05,0.02,0.1,0.03,0.15,0.02c0.02,0.01,0.04,0.03,0.06,0.03c2.49,0.29,4.99,0.4,7.49,0.52
		c1.62,0.07,3.99,0.59,5.59,0.07c2.11-0.69,1.64-3.58,1.27-5.7c0.63,0.66,1.37,1.14,2.21,0.94c0.44,1.21,1.22,2.37,2.63,2.28
		c0.2-0.01,0.39-0.05,0.59-0.09c-0.01,0.02-0.01,0.04-0.01,0.06c0.15,0.75,0.7,2.03,1.47,2.52C60.57,61.29,47.89,59.32,42.36,59.52z
		 M65.35,52.94c-0.75,0.31-1.7,0.9-2.51,0.84c-0.09-0.09-0.24-0.12-0.37-0.08c-0.76-0.29-1.08-1.14-1.65-1.73
		c0.18-0.02,0.37-0.04,0.57-0.01c0.28,0.04,0.55,0.19,0.84,0.16c0.73-0.06,1.19-0.57,1.61-1.12c0,0,0,0,0-0.01
		c1.16-0.45,1.55-1.55,1.74-2.74c2-0.03,2.52-2.22,2.41-4c0.01,0,0.02,0,0.04,0c0.91-0.24,1.82-0.69,2.47-1.33
		c1.85,0.07,3.56-0.57,5.37-0.65c-0.02,0.24-0.04,0.55-0.05,0.88c-0.6,0.19-1.2,0.39-1.75,0.63c-0.17,0.08-0.09,0.37,0.1,0.35
		c0.55-0.05,1.11-0.16,1.67-0.28c0,0,0,0,0,0c-0.51,0.43-1.03,0.85-1.53,1.31c-0.13,0.12,0.01,0.34,0.17,0.29
		c0.54-0.15,1.03-0.48,1.48-0.85c0.16,0.66,0.51,1.14,1.18,1.04c0.5-0.08,0.69-0.55,0.85-0.96c0.17-0.47,0.26-0.96,0.34-1.46
		c0.4-0.12,0.79-0.23,1.17-0.34c0.4-0.12,0.23-0.71-0.17-0.62c-0.29,0.07-0.58,0.14-0.88,0.2c0.01-0.07,0.02-0.15,0.03-0.22
		c0.42-0.38,0.86-0.75,1.34-1.06c0.37-0.24,0.02-0.84-0.34-0.59c-0.28,0.19-0.52,0.41-0.77,0.62c0.04-0.15,0.07-0.3,0.12-0.44
		c0.03-0.09,0.02-0.16,0-0.22c0.64-0.57,1.16-1.27,1.69-1.94c0.1-0.13,0.13-0.32,0-0.44c-0.46-0.43-0.92-0.74-1.48-1.03
		c-0.56-0.29-0.82-0.61-1.19-1.09c-0.43-0.55-1.2-0.98-1.95-1.2c0.12-0.32,0.2-0.66,0.24-1.01c0.62-0.04,1.27-0.27,1.7-0.71
		c0.03,0.01,0.07,0.02,0.11,0.02c0.69,0,1.37,0.1,2.01,0.35c0.22,0.08,1.8,0.95,1.71,1.07c-0.15,0.18-0.09,0.5,0.14,0.57
		c0.05,0.12,0.15,0.23,0.29,0.24c0.44,0.05,0.82,0.11,1.2,0.27c-1.72,5.19-4.49,10.27-6.59,15.18c-0.55-0.05-1.11-0.08-1.68-0.05
		c-1.12,0.13-2.74,0.5-3.4,1.53c-0.43,0.66-0.19,1.32,0.27,1.82c-0.57,0.24-1.05,0.71-1.23,1.26c-0.24,0.75,0.06,1.39,0.57,1.85
		c-0.6,0.17-1.21,0.5-1.6,0.99c-0.04-0.1-0.12-0.17-0.26-0.2c-0.27-0.47-0.54-0.93-0.81-1.4c0.07-0.2-0.08-0.47-0.29-0.52
		c-0.67-0.13-1.68-0.12-2.16-0.63c-0.51-0.55-0.29-1.42-0.23-2.14C65.89,53.1,65.59,52.85,65.35,52.94z M48.47,68.34
		c0.12-0.34,0.19-0.66,0.04-1.01c-0.02-0.04-0.3-0.35-0.33-0.44c-0.09-0.06-0.19-0.12-0.28-0.19c0.1-0.29,0.23-0.57,0.37-0.83
		c0.13,0.08,0.29,0.11,0.44,0.02c3.54-2.13,6.49-3.17,10.67-3.3c2.6-0.08,4.98-0.01,7.34-1.23c0.24-0.12,0.07-0.48-0.18-0.42
		c-0.09,0.02-0.18,0.03-0.27,0.06c-0.22-0.75-0.49-1.44-0.45-2.24c0.04-0.75,0.32-1.42,0.7-2.05c0.38,0.07,0.78,0.11,1.13,0.15
		c-0.09,0.94,0.49,1.75,1.5,1.95c0.06,0.01,0.11,0.01,0.16,0c-0.18,0.58,0.12,1.17,0.59,1.54c-0.8,0.32-1.41,0.91-1.09,1.91
		c0.25,0.8,0.97,1.45,1.79,1.98c-0.25,0.33-0.47,0.68-0.65,1.03c-0.87,0.44-1.88,0.96-2.65,0.8c-0.63-0.14-1.02-0.67-1.8-0.78
		c-2.19-0.3-5,0.26-7.08,0.94c-0.42,0.14-0.25,0.79,0.18,0.67c1.59-0.43,3.15-0.68,4.8-0.8c0.66-0.05,1.33-0.13,1.98-0.02
		c0.68,0.12,1.09,0.65,1.67,0.8c0.73,0.18,1.61-0.14,2.43-0.54c-0.07,0.19-0.13,0.39-0.18,0.59c-0.02,0-0.04-0.01-0.07-0.01
		c-0.19-0.03-0.35,0.23-0.14,0.34c0.04,0.02,0.08,0.04,0.12,0.06c0,0.01,0,0.02,0,0.02c-0.25-0.08-0.52-0.12-0.76-0.06
		c-0.21,0.05-0.33,0.23-0.33,0.4c-0.06,0.1-0.07,0.23,0.02,0.36c0.2,0.3,0.43,0.59,0.64,0.89c-1.25,0.01-1.96,0.42-3.11,1.07
		c-1.18,0.67-2.57,0.11-3.62,1.06c-0.14,0.13-0.13,0.31-0.05,0.44c-0.79,1.23-1.72,2.58-2.25,3.92c-0.41,1.05-0.17,1.91-0.38,2.99
		c-0.06-0.09-0.16-0.16-0.29-0.18c-1.08-0.14-2.11,0.05-3.17-0.01c-1.02-0.06-1.91-0.2-2.65-1.05c-0.11-0.13,0.01-0.47-0.13-0.6
		c-0.26-0.23-0.42-0.39-0.73-0.55c-0.99-0.5-3.92,0.11-2.62-1.87c0.14-0.22-0.01-0.47-0.22-0.55c-0.94-0.35-1.62-0.23-2.36,0.3
		c-0.01-0.02-0.02-0.05-0.04-0.07C44.89,71.27,47.71,70.59,48.47,68.34z M57.65,81.92c-0.56,0.14-0.99,0.39-1.35,0.85
		c-0.01,0.02-0.01,0.03-0.01,0.05c-0.57,0.09-1.14,0.18-1.72,0.18c-0.74,0-1.48-0.18-2.22-0.17c-1.48-0.67-3.2-1.24-4.44-2.23
		c-1.54-1.24-0.87-4.32-0.37-5.99c0.01-0.04,0.01-0.07,0.01-0.1c0.38-0.04,0.77-0.08,1.15-0.11c-0.06,0.14-0.12,0.29-0.16,0.44
		c-0.05-0.21-0.16,0.77-0.21,1.2c-0.02,0.2,0.2,0.39,0.39,0.38c0.71-0.03,2.7-0.23,3.27,0.3c0.36,0.34,0.28,0.82,0.4,1.2
		c0.13,0.38,0.06,0.65,0.4,0.99c0.49,0.5,1.13,0.44,1.76,0.4c1.6-0.09,2.89-0.51,4.52-0.29c0.05,0.01,0.08,0,0.12-0.01
		c-0.24,0.69-0.56,1.32-0.53,2.1c0.01,0.21,0.04,0.41,0.08,0.61C58.35,81.76,57.97,81.84,57.65,81.92z M73.3,85.54
		c-0.37,0.19-1.22,0.09-1.68,0.22c-0.83,0.23-1.58,0.63-2.22,1.2c-0.29-0.32-0.59-0.62-0.92-0.88c0.03-0.01,0.07-0.02,0.1-0.04
		c0.65-0.46,1.24-1.06,1.85-1.57c0.17-0.15-0.05-0.44-0.24-0.31c-0.66,0.45-1.4,0.85-2.02,1.35c-0.1,0.08-0.12,0.19-0.09,0.29
		c-0.77-0.53-1.65-0.92-2.7-1.06c-1.5-0.2-3.57-1.04-5.24-0.75c-0.1-0.57-0.29-1.09-0.42-1.64c0.18-0.16,0.11-0.49-0.11-0.57
		c-0.22-1.5,0.3-1.97,0.57-3.33c0.24-1.22,0.06-2,0.6-3.37c0.47-1.2,1.28-2.32,1.86-3.48c0.91-0.5,1.94-0.14,2.9-0.51
		c0.56-0.22,0.96-0.68,1.5-0.94c0.64-0.31,1.34-0.31,2.03-0.35c0.02,0.4,0.02,0.79,0,1.17c-0.08,0.01-0.15,0.02-0.23,0.03
		c-0.19,0.02-0.37,0.03-0.56,0.04c0-0.01,0-0.02,0-0.02c-0.04-0.24-0.31-0.34-0.52-0.29c-0.04-0.07-0.11-0.12-0.19-0.15
		c-0.38-0.14-0.8,0.08-0.98,0.42c-0.2,0.38-0.07,0.81,0.26,1.06c0.22,0.16,0.49,0.21,0.74,0.15c0.35,0.15,0.71,0.3,1.07,0.45
		c-0.09,0.26-0.16,0.52-0.17,0.83c0,0.04,0.01,0.07,0.02,0.1c0,0,0,0,0,0c0,0,0,0,0,0c0.01,0.05,0.03,0.09,0.05,0.12
		c0.19,0.57,0.8,0.91,1.37,0.85c0.63-0.07,0.94-0.46,1.2-0.93c0.21,0.07,0.42,0.14,0.63,0.2c0.13,0.36,0.54,0.61,0.92,0.49
		c0.23-0.07,0.4-0.23,0.51-0.43c0.15-0.11,0.2-0.3,0.14-0.48c0.01-0.07,0.02-0.14,0.02-0.21c-0.01-0.21-0.17-0.39-0.39-0.39
		c-0.02,0-0.05,0.01-0.07,0.01c-0.25-0.28-0.49-0.57-0.73-0.86c0.25-0.31,0.52-0.6,0.8-0.89c0.48-0.13,0.95-0.27,1.41-0.44
		c0.02-0.01,0.03-0.02,0.05-0.03c0.86,0.68,1.39,1.36,1.67,2.54c0.1,0.41,0.15,0.76,0.35,1.15c0.79,1.59,2.09,2.35,1.31,4.35
		c-0.03,0.08-0.02,0.15,0,0.22c-0.23,0.69-0.36,1.62-0.73,2.23c-1.02,1.69-0.87,0.6-1.64,1.24c-0.56,0.46-0.81,0.83-1.07,1.51
		C74.08,84.4,73.9,85.24,73.3,85.54z M89.84,71.77c-0.3,2.42,0.6,4.72-2.12,6.15c0.92-1.85,1.57-3.81,1.71-5.68
		c0.04-0.47-0.71-0.57-0.82-0.11c-0.74,3.24-1.99,5.87-3.91,8.57c-2.03,2.86-6.35,6.36-10.07,4.55c0.05-0.12,0.09-0.25,0.14-0.37
		c0.37-1.04,0.88-1.59,1.8-2.21c0.18-0.12,0.41-0.18,0.57-0.34c0.33-0.31,0.55-0.78,0.71-1.29c0.05,0.04,0.11,0.06,0.19,0.06
		c0.38-0.04,0.79-0.06,1.17,0.03c-0.28-0.07,0.8,0.38,0.94,0.39c0.33,0.03,0.27,0.07,0.6-0.05c1.27-0.45,1.47-1.86,2.87-2.2
		c0.69-0.17,0.91-0.19,1.31-0.88c0.44-0.77,0.98-1.68,0.94-2.58c0.56-0.69,1.23-1.05,1.77-1.76c0.7-0.91,0.86-2.31,1.16-3.38
		c0.59-2.07,2.04-4.87,1.36-7.03c0.01-0.01,0.02-0.02,0.03-0.04c0.05-0.12,0.1-0.24,0.16-0.36C91.68,65.47,90.1,69.67,89.84,71.77z"
		/>
	<path class="st56" d="M83.86,45.12c-0.72,1.97-1.64,3.83-2.76,5.6c-0.25,0.39,0.38,0.76,0.62,0.36c1.1-1.84,1.98-3.78,2.63-5.82
		C84.45,44.94,83.97,44.81,83.86,45.12z"/>
	<path class="st56" d="M82.71,43.5c1.34-2.66,2.3-5.57,2.94-8.47c0.06-0.27-0.33-0.38-0.41-0.11c-0.88,2.83-1.94,5.52-3.1,8.25
		C81.98,43.55,82.52,43.89,82.71,43.5z"/>
</g>
</svg>
