<svg enable-background="new 0 0 99.21 99.21" viewBox="0 0 99.21 99.21" xmlns="http://www.w3.org/2000/svg"><path d="m4.8 68.83c10.96-13.58-10.09-26.7.15-30.72 15.75-6.17 43.07-3.7 43.07-3.7s12.9 7.21 12.5 7.87 13.74 3.7 13.74 3.7 8.93 4.09 13.74 5.4 11.73 7.56 8.8 16.98c-1.03 3.3-3.79 11.74-4.01 15.9s-6.03 12.16-12.81 12.81-20-2.89-30.72-3.55-33.68-2.78-35.2-3.09c-14.97-3.07-15.9-13.36-9.26-21.6z" fill="#e1cbb6"/><path d="m22.46 40.16c-1.67-.1-6.11-.86-6.11-.86s-2.96-1.05-6.97 1.34-6.97.19-3.63 1.53-5.45-1.34-.86 1.82c4.59 3.15 4.68 3.63 8.41 2.39s3.82-.86 9.74.38 3.63 4.78 7.93.86 10.41 2.01 8.22-3.53-13.68-3.74-16.73-3.93z" fill="#c6ac94"/><path d="m38.6 79.43c-5.16-.38-6.5 1.62-9.08 3.73s-3.63 4.78-.1 4.97-1.24.29 5.83.19 3.44-2.77 8.5-1.34 3.92.86 8.31 1.91.29-2.01 5.45-1.82 8.79-1.24 10.22.86 1.62 4.39 5.16 3.25c3.53-1.15 6.31 1.53 8.6.38s3.25-3.82 3.25-3.82.29-3.92 3.34-6.88c3.06-2.96 4.49-2.01 4.59-4.78s2.29-4.78-1.24-4.97-37.16 9.27-41.08 9.36c-3.91.1-9.17-.85-11.75-1.04z" fill="#c6ac94"/><path d="m51.39 46.69c-1.26-.21-1.92-.91-1.97-2.21-.01-.28-.01-.51-.16-.75-.37-.57-1.82-.55-1.66-1.51.04-.25-.11-.41-.29-.45 0-.02 0-.03 0-.05-.28-1.09 1.08-2.86 2.24-2.55.24.07.51-.12.51-.38-.02-.66.27-1.04.63-1.46 2.09.91 4.64.62 5.67-1.77.59-.07 1.13-.36 1.75-.34.65.01 1.02.39 1.6.4.34 0 .66-.3 1.01-.31.77-.02 1.44.57 2 .92s.56.35 1.2.24c.06-.01.11-.03.15-.07.08.08.19.11.3.03.49-.36.98-.68 1.61-.35.21.11.33.33.55.42.48.18.72-.03 1.1-.34.54-.45 1.17-1.03 1.48-1.67.3-.63-.1-1.39.7-1.79.28-.14.16-.67-.17-.62-.05.01-.09.02-.14.03-.66-.68-1.47-1.25-1.66-2.23-.13-.66.45-1.37.3-1.98-.05-.22-.19-.32-.32-.49-.06-.07-.22-.06-.29-.12-1.01-.82-1.4-1.42-.78-2.65.04-.08.05-.17.04-.25.41-.02.58-.63.12-.72-.8-.16-1.8-.06-2.49-.49-.52-.32-.58-.94-1.16-1.14-.53-.18-1-.02-1.54-.31-1.06-.55-1.25-1.67-1.21-2.75.01-.05.01-.1.01-.15 0-.03 0-.07 0-.1.02-.38-.57-.48-.69-.16-.04.03-.08.06-.12.11-2.25 2.93-5.5-1.68-8.11-1.84-1.56-.09-2.95.82-3.9 1.97-1.66-1.11-3.87-.41-5.36.71-.68.51-1.12 1.14-1.3 1.97-.29 1.37.57 3.05-.79 4.05-.26.19-.17.57.16.59.09.01.16-.01.24-.02-.06 1.11-.15 2.15-.55 3.24-.19.51.63.73.82.23.04-.1.07-.2.1-.3.22.92.52 1.84.91 2.73-1.81-.51-3.93-1.4-2.64-3.83.15-.28.05-.57-.2-.76-1.21-.88-2.52-2.31-1.21-3.8.17-.19.11-.46-.05-.6-.46-1.62-.6-3.24.88-4.42.12-.1.17-.32.12-.46-.69-1.89-.18-4.04 2-4.54.4-.09.4-.51.18-.74.45-1.28.8-3.88 2.62-2.45.2.16.56.19.69-.09.71-1.52 2.13-2.93 3.96-2.62.28.05.47-.16.5-.38.09-.02.16-.08.21-.18.4-.87.96-1.56 1.92-1.83.58-.17.99.03 1.53-.06 1.26-.21 3.25-2.74 4.54-.79.08.11.19.16.31.16.04.21.3.37.46.17.67-.82 2.28-.8 3.22-.74.41.02.84.24 1.24.2.58-.06 1.24-.59 1.84-.73.93-.21 1.15-.05 1.23 1.01.03.42-.05.88-.05 1.3 0 .23.21.33.39.28.06.03.14.04.22.03.69-.13 1.37-.24 2.07-.29.24-.02.47-.03.71-.03.41.53.34.9-.22 1.1-.29.19-.22.77.2.72.87-.1 2.54-.22 2.7.95.1.74-.77 1.68-1.16 2.31-.04.06-.05.11-.05.17-.12.24.01.6.33.57.6-.05 1.2-.14 1.8-.08.63.07 2.17.72 1.47 1.59-.2.25-.17.7.21.78.58.13.86.47 1.14.97.1.18.95 1.79.02 1.75-.48-.02-.57.64-.18.83-.14.21-.13.5.17.64.99.46 1.82.85 1.84 2.04.01.82-.63 1.52-.56 2.28.02.23.18.37.27.57.23.48.68.83.76 1.43.07.51.01 1.02-.02 1.54-.01.17.08.29.2.37.05.07.11.13.2.16.65.23 1.12.84 1.2 1.53.03.3-.24.63-.23.93.01.24.04.28.17.49.06.09.13.1.2.16.51.51.68.36.89 1.1.18.59.13 1.27.1 1.91-.59-.19-1.21-.29-1.84-.29-.07-.32-.46-.5-.77-.24-.58.48-.97.8-1.77.74-.25-.02-.54.25-.51.51.06.5-.01.96-.17 1.39-.16.05-.25.25-.19.41-.22.39-.53.75-.91 1.05-.01.01-.01.02-.02.03-.34-.09-.76.25-.64.63.56 1.65-.79 2.95-2.38 3-.33.01-.6.33-.5.66.54 1.83-1.37 2.43-2.59 3.07-.28-.19-.72-.08-.7.34.09 1.32.25 3.77-1.83 3.5-.23-.03-.42.22-.42.42 0 1.07-.21 2.2-1.31 2.62-.01 0-.01.01-.02.01-.05.02-.09.04-.15.06-.15.04-.22.16-.22.28-.51.41-1.08.41-1.73.33-.29-.03-.47-.18-.77-.16-.09 0-.35.07-.44.07-.1.05-.19.1-.29.15-1.05-.34-1.67-1.02-1.84-2.04-.08-.27-.39-.4-.64-.26-1.05.58-2.38-1.5-2.79-2.06-.12-.17-.3-.2-.46-.16-.08-.17-.24-.28-.47-.2-.79.23-1.52.33-2.31.2z" fill="#292929"/><path d="m70.04 24.94c.1-.56.36-1.1.74-1.54.53-.61.71-.8 1.47-.48 1.04.44 1.16 1.51 1.26 2.57.14 1.44-.46 2.79-1.45 3.85-.12-.66-.36-1.38-.88-1.51.11-1.09-.29-2.2-1.14-2.89z" fill="#dfcbc0"/><path d="m38.09 65.71c.28-.75-.31-1.39-.28-2.12.02-.45-.69-.55-.79-.11-.01.03 0 .06 0 .09-.61.29-1.16.7-1.32 1.4-.15.67.22 1.35.89 1.54.62.16 1.27-.2 1.5-.8z" fill="#dca549"/><path d="m37.25 65.63c-.46.48-.98-.14-.83-.63.1-.32.36-.57.64-.79.03.11.05.21.09.32.13.33.41.77.1 1.1z" fill="#dca549"/><path d="m40.41 66.01c-.09.01-.16.04-.23.09h-.01c-.01 0-.01.01-.01.01-.01.01-.02.01-.02.02-1.12.89.12 2.76 1.39 2.5.11-.02.17-.09.19-.17.07-.04.12-.1.14-.18.01-.04.01-.07.02-.11.08-.02.15-.08.19-.18.46-.98-.68-2.11-1.66-1.98z" fill="#dca549"/><path d="m40.48 67.53c-.14-.25-.13-.5-.08-.75h.01c.29-.03.54.06.73.28.21.24.19.46.22.75v.01c-.03.06-.06.12-.08.19-.32-.06-.62-.17-.8-.48z" fill="#dca549"/><path d="m38.24 69.95c-.25-.06-.41.12-.44.31-.78.89-.49 2.62.8 2.85.15.03.26-.04.34-.13.16.05.35.02.46-.17.66-1.1.13-2.57-1.16-2.86z" fill="#dca549"/><path d="m38.11 71.67c-.09-.33 0-.64.18-.91.58.32.78 1.01.41 1.62-.27-.18-.49-.37-.59-.71z" fill="#dca549"/><path d="m13.23 43.92c-.17-.22-.36-.43-.57-.61-.17-.1-.34-.16-.51-.23-.13-.87-.42-1.74-1-2.41-.06-.07-.15-.12-.22-.19.11.04.22.07.33.12.98.46 1.65 1.18 2.3 2.01.25.32.73-.04.63-.38.2-.63.45-1.22.75-1.8-.03.99.02 2 .07 2.99-.34.08-.67.19-1 .2-.25.12-.51.21-.78.3z" fill="#0f9b00"/><path d="m27.37 39.52c-.48-.34-.72-.67-1.09-1.1-.23-.27-.81-.55-1.2-.83 1.16-.31 2.7 1.36 3.61 1.79.35.16.78-.28.45-.58-.02-.02-.05-.04-.07-.06.31-.89.43-1.8.86-2.67.22-.44.47-.85.75-1.23-.47 1.48-.63 3.1-.54 4.62 0 .06.02.1.04.15-.03.19.17.38.37.27.63-.32 1.24-.65 1.93-.8.49-.11.96-.09 1.44-.08-.77.42-1.43 1.05-1.96 1.73-.57.73-1.3 1.85-1.29 2.83-.27.03-.55.07-.81.12-.43.08-.86.08-1.29.03 0-.07-.03-.13-.07-.17.29-1.16.22-2.54-.49-3.48-.23-.32-.31-.31-.64-.54z" fill="#0f9b00"/><path d="m48.3 76.21c0-.02.01-.09.02-.17-.01.09-.02.15-.02.17z" fill="#e8e9ea"/><path d="m48.3 76.21c0 .01 0 .01 0 0z" fill="#e8e9ea"/><path d="m89.07 38.88c.3.06.73.14.9.43.24.41-.12.5-.41.66-.49.27-.54.82-.09 1.15.53.41 1.34 1.31.94 1.96-.15.26-.4.39-.54.7-.07.16-.05.29.05.42.64.79.53 1.77.43 2.7-.01.13.04.22.11.27.01.01.01.03.02.04 1.68 2.54-.27 4.86-.7 7.37-.22 1.25 0 2.45-.33 3.71-.29 1.12-.9 2.19-1.29 3.28-.14.4.51.68.69.29.52-1.16 1.11-2.4 1.4-3.64.03.04.06.09.1.14.38.59.26 1.14.07 1.79-.3 1.06-.76 2.07-1.02 3.14-.02.07-.01.13.01.2-.02.06-.03.14-.01.22.58 2.13-1.1 5.57-1.68 7.63-.55 1.93-2.08 2.8-2.81 4.53-.08.18-.02.35.09.46-.23.9-.8 2.02-1.5 2.14-.67.11-.9-.03-1.41.52-.73.76-.92 1.79-2.21 1.65-.7-.08-1.14-.27-1.86-.16.12-.49.22-.97.32-1.37.05-.03.09-.07.12-.13 1-2.01.07-2.84-.99-4.52-.54-.85-.51-1.82-.97-2.68-.42-.79-1.13-1.34-1.86-1.84.11-.26.19-.53.22-.82.62-.76 1.11-1.62 1.27-2.74.01-.04 0-.08-.01-.12 2.56.35 5.4.05 6.03-2.19.07.01.14 0 .2-.05 3.75-2.38 5.49-7.51 6.78-11.56 1.17-3.65 2.15-7.7-.96-10.6-.07-.06-.14-.09-.21-.09.37-.93.75-1.9 1.07-2.88.01-.02.02-.01.04-.01z" fill="#985f43"/><path d="m69.89 71.62c.06-.67-.11-1.42-.12-2.1 0-1.85.42-3.4 1.4-4.93.57.32 1.16.58 1.63.77.66.28 1.57.55 2.56.74 0 .01-.01.02-.01.03-.25 1.8-1.42 2.93-2.67 4.14-.51.49-1.01.99-1.43 1.55-.16.22-.32.43-.45.67-.12.21-.23.42-.32.64-.15.42-.55.51-1.21.26.06-.69.56-1.13.62-1.77z" fill="#bba471"/><path d="m71 60.77h.05c.08-.01.15-.04.21-.1.28-.14.22-.65-.13-.61h-.01c-.46-.26-1.22-.49-.96-1.1.27-.63 1.1-.89 1.69-1.08.08-.02.13-.07.17-.13.02.01.03.02.05.02.4.17.7-.53.3-.71-.62-.27-1.26-.77-.97-1.53.23-.58.74-.73 1.27-.83.03.01.05.03.08.04.52.24.97-.52.45-.77-.29-.14-.6-.31-.77-.58-.28-.44.06-.74.43-.97.66-.41 1.4-.62 2.16-.7 1.68-.1 3.3.26 4.88.81.92.32 1.92.88 2.91 1.1.04.05.08.1.15.12 1.99.73 1.09 3.44.52 4.9-.33.84-.74 1.67-1.26 2.41-.23.33-.64.66-.63 1.09-.04.04-.07.1-.09.17-.34 1.63-.74 2.74-2.53 3.13-1.57.34-3.3-.04-4.79-.54-1.34-.44-2.86-1.07-3.9-2.06-1.27-1.16-.58-1.68.72-2.08z" fill="#dfcbc0"/><path d="m87.73 42.33c4.69 4.86-1.13 16.72-5.48 20.76 0-.21.01-.42-.02-.65-.01-.06-.03-.11-.05-.15 1.24-.56 2.4-3.98 2.61-4.81.41-1.58.42-3.77-1.37-4.26-.2-.19-.43-.36-.67-.51 2.01-2.96 3.44-6.21 4.68-9.56.09-.28.19-.55.3-.82z" fill="#dfcbc0"/><path d="m87.63 31.7c.9.54 1.19 1.22 1.51 2.13-1.12 6.48-3.64 12.89-7.1 18.49-.72-.33-1.49-.58-2.16-.8-.8-.27-1.6-.48-2.42-.61 2.71-6.12 6.44-12.61 7.68-19.18.01-.04 0-.08 0-.12.75-.65 1.66-.41 2.49.09z" fill="#bba471"/><path d="m45.91 35.44c-.81-.85-1.74-1.38-2.4-2.41-.93-1.44-1.54-3.09-2.08-4.7-.03-.08-.08-.14-.14-.17.15-.77.18-1.58.02-2.33.58-.52.67-1.63.59-2.38-.14-1.48-.01-2.63 1.33-3.49 1.32-.85 2.77-1.12 4.22-.43.06.03.12.04.17.04.17.12.41.15.58-.02 1.75-1.79 3.39-1.87 5.58-.72 1.14.6 2.18 1.57 3.43 1.93 1.11.32 1.93-.01 2.57-.72.16 1.14.75 2.17 1.93 2.59.37.13.86.05 1.2.21.31.15.46.52.74.76.63.52 1.47.61 2.27.69-1.09 1.44-.28 3 1.14 3.84.01.01.02.01.03.01 0 .01-.01.02-.01.04-.05.28-.15.55-.19.83-.08.56-.09 1.21.07 1.76.24.82 1.04 1.32 1.82 1.68-.11.12-.22.26-.28.44-.12.33-.1.71-.16 1.06-.1.5-.7 1.44-1.24 1.67-.52.22-1.14-.42-1.73-.4-.5.02-.96.23-1.25.62-.07-.11-.17-.19-.33-.18-.68.02-1.37-1.14-2.15-1.27-.69-.12-1.18.24-1.84.3-.46.04-.8-.21-1.29-.26-.91-.11-1.69.45-2.58.51-.01 0-.02.01-.03.01-.12.01-.24.07-.3.19-1.21 2.32-3.84 2.2-5.72.75-.37-.28-.87.36-.5.65.19.14.38.27.59.4-.36.34-.59.84-.67 1.36-.7-.05-1.38.31-1.9.86-.13-1.37-.52-2.7-1.49-3.72z" fill="#dfcbc0"/><path d="m78.36 40.39c-.08.03-.15.1-.19.2-.01.03-.02.06-.03.09-.04.05-.08.1-.11.15-.04.05-.02.11.02.15-.26.83-.34 1.66-.51 2.52 0 .18 0 .36-.01.54-.85.56-1.19.34-1.02-.63-.02-.5.04-1.01.09-1.51.02-.18-.18-.35-.35-.35-1.78.05-3.5.6-5.28.78.28-.44.43-.96.42-1.54 1.8-.35 3.88-2.25 2.97-4.03.52-.33.9-.77 1.19-1.26.34.13.67.26.98.46.47.31.68.79 1.03 1.14.62.6 1.51.9 2.27 1.37-.44.68-.98 1.28-1.47 1.92z" fill="#dfcbc0"/><path d="m50.66 59.88c-2.73.03-5.58-.5-8.3-.36.36-.73.25-1.61-.01-2.61-.12-.44-.78-.26-.68.19.86 3.95-3.73 3.24-5.86 4.41-1.03.57-1.84 1.27-3.04 1.54-.63.14-2.27.23-1.84-.7 1.51-.12 2.96-.77 4.3-1.44.44-.22.05-.85-.38-.65-.92.43-1.84.89-2.83 1.16-.45.12-4.02.62-3.7-.69.92-.03 1.9-.27 2.69-.37 1.41-.17 2.95-.18 4.24-.84.36-.19.11-.82-.28-.67-1.3.48-2.7.57-4.06.76-.71.1-1.86.41-2.54.35-.79.19-1.31-.24-1.54-1.28.16-.15.32-.29.47-.43 2.67.16 5.69.16 8.18-.84.46-.18.26-.93-.21-.75-2.56 1.03-5.35.74-8.05 1.07 0-.01 0-.02 0-.04-1.15-2.55 4.46-2.5 5.65-2.66 1.53-.2 2.91-.91 4.43-1.06.25-.02.36-.43.06-.48-1.41-.22-2.73.42-4.12.65-.02-.22-.21-.45-.5-.4-.86.15-2.44-1.85-1.01-1.81.33.01.71.2 1.06.24 1.02.11 1.8-.22 2.78-.4 1.29-.23 3.12-.05 4 .97.51.59.34.9 1 1.22.05.02.1.03.15.02.02.01.04.03.06.03 2.49.29 4.99.4 7.49.52 1.62.07 3.99.59 5.59.07 2.11-.69 1.64-3.58 1.27-5.7.63.66 1.37 1.14 2.21.94.44 1.21 1.22 2.37 2.63 2.28.2-.01.39-.05.59-.09-.01.02-.01.04-.01.06.15.75.7 2.04 1.48 2.53-.16 1.17-.24 2.32-1.04 3.29 0 0 0 0-.01 0-2.59 2.12-7.2 1.94-10.32 1.97z" fill="#dfcbc0"/><path d="m65.35 52.94c-.77.32-1.75.93-2.57.83-.1-.08-.24-.12-.36-.1-.73-.3-1.04-1.13-1.6-1.71.18-.02.37-.04.57-.01.28.04.55.19.84.16.73-.06 1.19-.57 1.61-1.12 0 0 0 0 0-.01 1.16-.45 1.55-1.55 1.74-2.74 2-.03 2.52-2.22 2.41-4h.04c.91-.24 1.82-.69 2.47-1.33 1.85.07 3.56-.57 5.37-.65-.1 1.12-.19 3.6 1.27 3.38.5-.08.69-.55.85-.96.46-1.23.37-2.64.83-3.92.03-.09.02-.16 0-.22.64-.57 1.16-1.27 1.69-1.94.1-.13.13-.32 0-.44-.46-.43-.92-.74-1.48-1.03s-.82-.61-1.19-1.09c-.43-.55-1.2-.98-1.95-1.2.12-.32.2-.66.24-1.01.62-.04 1.27-.27 1.7-.71.03.01.07.02.11.02.69 0 1.37.1 2.01.35.22.08 1.8.95 1.71 1.07-.15.18-.09.5.14.57.05.12.15.23.29.24.44.05.82.11 1.2.27-1.72 5.19-4.49 10.27-6.59 15.18-.55-.05-1.11-.08-1.68-.05-1.12.13-2.74.5-3.4 1.53-.43.66-.19 1.32.27 1.82-.57.24-1.05.71-1.23 1.26-.24.75.06 1.39.57 1.85-.6.17-1.21.5-1.6.99-.04-.1-.12-.17-.26-.2-.27-.47-.54-.93-.81-1.4.07-.2-.08-.47-.29-.52-.67-.13-1.68-.12-2.16-.63-.51-.55-.29-1.42-.23-2.14.01-.23-.29-.48-.53-.39z" fill="#985f43"/><path d="m48.47 68.34c.12-.34.19-.66.04-1.01-.02-.04-.3-.35-.33-.44-.09-.06-.19-.12-.28-.19.1-.29.23-.57.37-.83.13.08.29.11.44.02 3.54-2.13 6.49-3.17 10.67-3.3 2.6-.08 4.98-.01 7.34-1.23.24-.12.07-.48-.18-.42-.09.02-.18.03-.27.06-.22-.75-.49-1.44-.45-2.24.04-.75.32-1.42.7-2.05.38.07.78.11 1.13.15-.09.94.49 1.75 1.5 1.95.06.01.11.01.16 0-.18.58.12 1.17.59 1.54-.8.32-1.41.91-1.09 1.91.25.8.97 1.45 1.79 1.98-.91 1.21-1.41 2.55-1.55 4.09-.02.2-.02.4-.02.61-1.42-.04-2.15.37-3.37 1.07-1.18.67-2.57.11-3.62 1.06-.14.13-.13.31-.05.44-.79 1.23-1.72 2.58-2.25 3.92-.41 1.05-.17 1.91-.38 2.99-.06-.09-.16-.16-.29-.18-1.08-.14-2.11.05-3.17-.01-1.02-.06-1.91-.2-2.65-1.05-.11-.13.01-.47-.13-.6-.26-.23-.42-.39-.73-.55-.99-.5-3.92.11-2.62-1.87.14-.22-.01-.47-.22-.55-.94-.35-1.62-.23-2.36.3-.01-.02-.02-.05-.04-.07-2.26-2.57.56-3.25 1.32-5.5z" fill="#985f43"/><path d="m57.65 81.92c-.56.14-.99.39-1.35.85-.01.02-.01.03-.01.05-.57.09-1.14.18-1.72.18-.74 0-1.48-.18-2.22-.17-1.48-.67-3.2-1.24-4.44-2.23-1.54-1.24-.87-4.32-.37-5.99.01-.04.01-.07.01-.1.38-.04.77-.08 1.15-.11-.06.14-.12.29-.16.44-.05-.21-.16.77-.21 1.2-.02.2.2.39.39.38.71-.03 2.7-.23 3.27.3.36.34.28.82.4 1.2.13.38.06.65.4.99.49.5 1.13.44 1.76.4 1.6-.09 2.89-.51 4.52-.29.05.01.08 0 .12-.01-.24.69-.56 1.32-.53 2.1.01.21.04.41.08.61-.39.04-.77.12-1.09.2z" fill="#dfcbc0"/><path d="m73.3 85.54c-.37.19-1.22.09-1.68.22-.83.23-1.58.63-2.22 1.2-1.06-1.15-2.32-2-4.03-2.23-1.5-.2-3.57-1.04-5.24-.75-.1-.57-.29-1.09-.42-1.64.18-.16.11-.49-.11-.57-.22-1.5.3-1.97.57-3.33.24-1.22.06-2 .6-3.37.47-1.2 1.28-2.32 1.86-3.48.91-.5 1.94-.14 2.9-.51.56-.22.96-.68 1.5-.94.64-.31 1.34-.31 2.03-.35.03.56.05 1.12-.04 1.66-.13.74-.52 1.26-.54 2.03 0 .04.01.07.02.1.01.05.03.09.05.12.19.57.8.91 1.37.85 1.09-.11 1.24-1.21 1.76-1.97.64-.95 1.47-1.7 2.25-2.48v.01c-.08.19.11.36.3.35.97.73 1.55 1.43 1.85 2.68.1.41.15.76.35 1.15.79 1.59 2.09 2.35 1.31 4.35-.03.08-.02.15 0 .22-.23.69-.36 1.62-.73 2.23-1.02 1.69-.87.6-1.64 1.24-.56.46-.81.83-1.07 1.51-.22.56-.4 1.4-1 1.7z" fill="#9597a0"/><path d="m89.84 71.77c-.3 2.42.6 4.72-2.12 6.15.92-1.85 1.57-3.81 1.71-5.68.04-.47-.71-.57-.82-.11-.74 3.24-1.99 5.87-3.91 8.57-2.03 2.86-6.35 6.36-10.07 4.55.05-.12.09-.25.14-.37.37-1.04.88-1.59 1.8-2.21.18-.12.41-.18.57-.34.33-.31.55-.78.71-1.29.05.04.11.06.19.06.38-.04.79-.06 1.17.03-.28-.07.8.38.94.39.33.03.27.07.6-.05 1.27-.45 1.47-1.86 2.87-2.2.69-.17.91-.19 1.31-.88.44-.77.98-1.68.94-2.58.56-.69 1.23-1.05 1.77-1.76.7-.91.86-2.31 1.16-3.38.59-2.07 2.04-4.87 1.36-7.03.01-.01.02-.02.03-.04.05-.12.1-.24.16-.36 1.33 2.23-.25 6.43-.51 8.53z" fill="#dfcbc0"/><path d="m23.89 76.18c-1.67-.1-6.11-.86-6.11-.86s-2.96-1.05-6.97 1.34-7.26 2.1-3.92 3.44-5.06-.48-.48 2.68 4.39 5.35 8.12 4.11-.67-2.48 5.25-1.24 1.62 5.16 5.92 1.24 7.26.29 5.06-5.25c-2.19-5.56-3.81-5.27-6.87-5.46z" fill="#c6ac94"/><path d="m23.89 76.18c-1.67-.1-6.11-.86-6.11-.86s-2.96-1.05-6.97 1.34-7.26 2.1-3.92 3.44-5.06-.48-.48 2.68 4.39 5.35 8.12 4.11-.67-2.48 5.25-1.24 1.62 5.16 5.92 1.24 7.26.29 5.06-5.25c-2.19-5.56-3.81-5.27-6.87-5.46z" fill="#c6ac94"/><path d="m61.05 43.09c-.54.2-.65.81-.66 1.32 0 .09-.11.13-.17.07-.38-.34-.83-.7-1.35-.77-.31-.04-.58.05-.82.2-.08.13-.16.25-.23.39-.14.3-.27.61-.51.84-.23.23-.53.34-.82.46-.3.13-.54.31-.71.58.58.34 1.27.45 1.82.85.17-.26.39-.48.66-.63.53-.3 1.16-.36 1.76-.35.57.01 1.14.1 1.7.14.03-.33.04-.65.05-.98.01-.37 0-.78.23-1.1.25-.35.67-.56 1.07-.75-.2-.07-.4-.15-.61-.21-.44-.1-.96-.22-1.41-.06z" fill="#fff" opacity=".2"/><path d="m64.36 36.42c-.11.08-.22.05-.3-.03-.04.03-.09.06-.15.07-.64.11-.63.11-1.2-.24-.56-.35-1.23-.94-2-.92-.35.01-.67.31-1.01.31-.58-.01-.96-.39-1.6-.4h-.01c-.07.14-.13.28-.17.45-.16.81.55 1.48.46 2.29-.01.05-.04.1-.1.1-.38-.03-.77 0-1.1.19-.26.15-.48.37-.73.55-.61.44-1.38.59-2.04.96-.39.22-.71.58-.94.97-.18.3-.37.74-.24 1.09.16.43.75.38 1.11.32.03 0 .05.01.06.02.49-.49.98-.98 1.53-1.39.27-.2.55-.32.89-.38.44-.08.88-.08 1.3-.24.17-.07.33-.12.43-.28.08-.13.13-.27.22-.4.16-.25.38-.32.66-.3.3.02.59.1.89.12.15.01.32-.02.47-.04s.31-.04.46-.08c.25-.06.5-.16.67-.37.2-.26.24-.62.24-.94 0-.08.08-.12.15-.09.2.1.41.13.64.11.19-.01.39-.05.58-.05s.38.04.56.09c.38.11.75.27 1.13.38.29.08.57.15.87.08.23-.05.46-.13.68-.2.58-.2 1.15-.45 1.71-.72.44-.21.92-.44 1.29-.77.19-.17.26-.45.35-.69.13-.37.24-.75.34-1.13.09-.35.17-.71.26-1.06.08-.34.17-.67.16-1.02-.02-.58-.39-.99-.84-1.32-.3-.23-.61-.43-.91-.67-.27-.21-.53-.44-.77-.68-.2-.2-.38-.41-.55-.63-.02.13-.02.26 0 .38.19.98 1 1.55 1.66 2.23.05-.01.09-.03.14-.03.33-.04.45.48.17.62-.81.4-.4 1.15-.7 1.79-.31.64-.94 1.22-1.48 1.67-.37.31-.61.52-1.1.34-.22-.08-.34-.31-.55-.42-.61-.32-1.1 0-1.59.36z" fill="#fff" opacity=".2"/><path d="m50.79 45.94c-.14-.4-.26-.83-.23-1.26.03-.35.17-.74.48-.92s.71-.23 1.06-.3c.3-.05.61-.11.9-.21-.35-.19-.75-.3-1.13-.41-.49-.14-.99-.28-1.44-.52-.05-.03-.06-.09-.04-.14.09-.18.16-.37.24-.56-.33-.1-.66-.23-.91-.48-.38-.37-.39-.89-.25-1.37.06-.21.15-.41.23-.6-.05.01-.11.01-.16 0-1.16-.32-2.52 1.46-2.24 2.55v.05c.18.04.33.2.29.45-.16.96 1.29.94 1.66 1.51.15.24.15.48.16.75.04 1.18.6 1.86 1.65 2.14-.09-.22-.19-.45-.27-.68z" fill="#fff" opacity=".2"/><path d="m38.02 21.34c.16-.47.38-.91.64-1.34.29-.47.61-.89.81-1.4.15-.4.26-.84.54-1.19.27-.34.65-.45 1.07-.42.13-1.04.2-2.14.99-2.92.47-.47 1.05-.78 1.7-.87.66-.09 1.33 0 1.99-.1.08-.25.16-.51.25-.76.25-.69.56-1.4 1.15-1.88.6-.48 1.38-.71 2.09-.96.65-.22 1.22-.56 1.8-.92.55-.34 1.12-.69 1.74-.88.24-.07.42-.07.64.05.11.06.21.15.32.21.14.08.25.05.39 0 .59-.18 1.13-.49 1.68-.76 1.12-.55 2.4-.72 3.63-.81.63-.05 1.27-.05 1.9.03.28.04.55.09.83.15.17.04.36.07.51.16.16.1.11.23.17.37.06.15.24.2.31.34.09.18-.04.41.01.6.12.47 1.01.29 1.35.3.38.01.86.11.93.55.03.17-.05.45.05.59.08.11.28.18.39.24.13.06.27.12.41.17.52.19 1.03.34 1.46.7.31.26.63.56.73.97.1.4.03.84 0 1.25.64.13 1.3.05 1.93.24.54.17.95.55 1.09 1.11.07.27.13.53.24.79.15.32.31.64.49.95.17.31.35.61.53.92.08.13.19.27.21.43.02.12-.02.23-.04.35-.03.21.07.3.23.4.11.07.24.13.35.21.18.12.28.26.39.44.22.36.42.78.75 1.06.56.48 1.36.71 2.11 1 .06-.19.09-.38.09-.59-.02-1.19-.85-1.58-1.84-2.04-.3-.14-.3-.42-.17-.64-.39-.19-.3-.85.18-.83.92.04.08-1.57-.02-1.75-.28-.5-.56-.84-1.14-.97-.38-.08-.41-.53-.21-.78.7-.88-.84-1.53-1.47-1.59-.6-.06-1.2.03-1.8.08-.32.02-.44-.34-.33-.57 0-.05.02-.11.05-.17.39-.63 1.26-1.56 1.16-2.31-.15-1.18-1.83-1.05-2.7-.95-.41.05-.48-.53-.2-.72.56-.2.63-.57.22-1.1-.24 0-.48.01-.71.03-.7.05-1.38.16-2.07.29-.08.02-.16 0-.22-.03-.18.04-.4-.05-.39-.28 0-.42.08-.88.05-1.3-.08-1.06-.3-1.22-1.23-1.01-.61.14-1.26.68-1.84.73-.4.04-.83-.17-1.24-.2-.94-.06-2.55-.08-3.22.74-.17.2-.42.04-.46-.17-.11 0-.23-.05-.31-.16-1.29-1.95-3.28.58-4.54.79-.54.09-.95-.11-1.53.06-.96.28-1.52.97-1.92 1.83-.05.1-.12.16-.21.18-.02.22-.21.43-.5.38-1.83-.31-3.25 1.11-3.96 2.62-.13.28-.49.25-.69.09-1.82-1.43-2.17 1.17-2.62 2.45.22.23.22.65-.18.74-2.18.5-2.68 2.65-2 4.54.05.14 0 .37-.12.46-1.34 1.07-1.35 2.5-1 3.96.1-.38.19-.79.33-1.18z" fill="#fff" opacity=".2"/><path d="m87.73 42.33c-.11.27-.21.55-.31.81-.14.38-.29.74-.43 1.12.32.7.57 1.44.73 2.2.35 1.67.23 3.4-.32 5.01-.51 1.47-1.37 2.78-2.4 3.94.06.69-.03 1.43-.2 2.08-.21.83-1.37 4.25-2.61 4.81.03.05.05.1.05.15.03.23.02.44.02.65 4.34-4.05 10.16-15.91 5.47-20.77z" fill="#d4baac"/><path d="m66.97 30.77c-.16-.55-.15-1.2-.07-1.76.04-.28.13-.55.19-.83 0-.02.01-.02.01-.04-.01-.01-.02 0-.03-.01-1.42-.84-2.23-2.4-1.14-3.84-.81-.08-1.65-.18-2.27-.69-.29-.24-.43-.61-.74-.76-.34-.16-.82-.08-1.2-.21-1.18-.41-1.77-1.45-1.93-2.59-.64.71-1.46 1.04-2.57.72-1.25-.36-2.29-1.33-3.43-1.93-2.19-1.15-3.82-1.07-5.58.72-.17.17-.41.14-.58.02-.05 0-.11-.01-.17-.04-1.45-.69-2.89-.42-4.22.43-1.34.86-1.47 2.01-1.33 3.49.07.76-.01 1.86-.59 2.38.16.75.13 1.55-.02 2.33.06.04.11.09.14.17.15.43.3.87.46 1.31.1-1.5.31-3 .66-4.46.15-.64.33-1.33.65-1.91.37-.65.94-1.16 1.59-1.51 1.38-.75 3.03-.93 4.57-.96.19 0 .38 0 .57-.01.25-.02.51-.05.76-.05.45-.01.89.02 1.33.09.85.15 1.64.5 2.49.68 1.56.33 3.16.36 4.72.69.65.14 1.31.33 1.85.73.32.23.54.54.68.91.14.36.21.74.32 1.1.27.85.89 1.48 1.57 2.01.66.52 1.43.99 1.91 1.69.33.48.52 1.06.64 1.62.12.62.14 1.25.08 1.88-.12 1.12-.53 2.23-1.22 3.13.1-.02.2-.04.31-.04.59-.02 1.2.62 1.73.4.55-.23 1.14-1.17 1.24-1.67.07-.35.04-.73.16-1.06.07-.19.17-.32.28-.44-.78-.37-1.58-.87-1.82-1.69z" fill="#d4baac"/><path d="m75.5 40.65c.34-.39.69-.83.84-1.33.18-.65-.02-1.34-.19-1.97-.15-.56-.3-1.14-.31-1.72-.09-.04-.17-.07-.26-.11-.29.49-.68.93-1.19 1.26.91 1.78-1.17 3.68-2.97 4.03.01.58-.14 1.09-.42 1.54 1.16-.12 2.29-.38 3.43-.57.35-.38.72-.74 1.07-1.13z" fill="#d4baac"/><path d="m60.56 52.07c0-.02 0-.04.01-.06-.2.04-.4.08-.59.09-.16.01-.31 0-.45-.02-.05.15-.1.29-.14.44-.24.85-.36 1.73-.64 2.57-.26.76-.7 1.4-1.37 1.86-.46.31-.96.52-1.48.71-.64.24-1.28.43-1.95.55-1.37.25-2.76.28-4.14.28-.76 0-1.52.02-2.28.05-.4.02-.8.03-1.19.02-.37-.01-.76-.01-1.13-.08-.51-.1-1.01-.3-1.5-.47-.38-.13-.77-.28-1.17-.33.12.69.11 1.31-.15 1.85 2.72-.14 5.58.39 8.3.36 3.12-.03 7.73.15 10.33-2h.01c.8-.97.88-2.12 1.04-3.29-.81-.49-1.36-1.78-1.51-2.53z" fill="#d4baac"/><path d="m41.07 57.85c-.55.17-1.08.41-1.6.66-1.06.51-2.09 1.1-3.14 1.63-.3.15-.62.28-.93.42.02.13-.03.26-.19.34-1.34.67-2.79 1.32-4.3 1.44-.43.93 1.21.84 1.84.7 1.2-.27 2.01-.97 3.04-1.54 2.02-1.11 6.23-.53 5.95-3.81-.22.03-.44.09-.67.16z" fill="#d4baac"/><path d="m59.18 79.01c-.04.01-.07.01-.12.01-1.63-.22-2.92.2-4.52.29-.63.04-1.27.1-1.76-.4-.34-.34-.27-.61-.4-.99-.12-.38-.04-.87-.4-1.2-.57-.53-2.57-.33-3.27-.3-.19.01-.4-.18-.39-.38.05-.42.16-1.41.21-1.2.05-.15.1-.3.16-.44-.38.04-.77.08-1.15.11 0 .03 0 .06-.01.1-.16.53-.33 1.2-.44 1.91.54.46 1.05.95 1.58 1.41.27.23.54.46.82.67.14.1.27.2.41.29.08.05.16.12.25.15.69.2 1.4.34 2.1.51.38.09.76.18 1.14.29.12.03.25.07.37.11.08.03.16.05.21.13.21.33.2.81-.03 1.12-.27.38-.73.58-1.15.72-.55.19-1.14.29-1.71.36.43.18.86.36 1.27.55.74-.01 1.48.17 2.22.17.58 0 1.15-.09 1.72-.18.01-.02 0-.03.01-.05.35-.46.79-.71 1.35-.85.32-.08.7-.16 1.08-.2-.04-.2-.07-.4-.08-.61-.03-.77.3-1.4.53-2.1z" fill="#d4baac"/><path d="m90.34 63.24c-.05.12-.11.25-.16.36-.01.02-.02.02-.03.04.68 2.17-.77 4.96-1.36 7.03-.3 1.06-.46 2.47-1.16 3.38-.54.71-1.21 1.07-1.77 1.76.04.9-.5 1.81-.94 2.58-.39.69-.61.71-1.31.88-1.4.34-1.6 1.74-2.87 2.2-.33.12-.27.08-.6.05-.15-.01-1.22-.46-.94-.39-.38-.1-.79-.07-1.17-.03-.08.01-.14-.02-.19-.06-.17.51-.38.98-.71 1.29-.01.01-.02.01-.03.02 1.56.41 3.22.22 4.78-.17.08-.02.14.05.12.12-.02.1-.05.2-.09.3-.27.78-.85 1.36-1.58 1.73-.83.42-1.77.58-2.69.65-.97.08-1.95.04-2.92-.04-.03.1-.07.19-.11.29 3.73 1.81 8.05-1.69 10.07-4.55 1.91-2.69 3.17-5.33 3.91-8.57.1-.46.85-.36.82.11-.14 1.88-.78 3.83-1.71 5.68 2.72-1.43 1.82-3.73 2.12-6.15.28-2.08 1.86-6.28.52-8.51z" fill="#d4baac"/><path d="m76.49 71.74c.46.86.43 1.83.97 2.68.07.11.14.21.21.31.12-.01.23-.02.35-.03.39-.05.79-.11 1.17-.21.29-.08.58-.19.8-.39.18-.16.32-.32.39-.55.06-.21.07-.43.08-.64.02-.49.06-.98.33-1.41.21-.34.59-.57.93-.76.39-.22.8-.4 1.19-.62.18-.1.36-.21.53-.33.16-.12.29-.26.43-.4.37-.4.64-.86.88-1.35.22-.45.44-.91.76-1.3.3-.35.64-.65.99-.94.25-.21.45-.44.54-.76.04-.13.09-.28.07-.42-.01-.09-.02-.19-.04-.28-.1-.67-.21-1.35-.27-2.02-.09-.9-.04-1.81-.05-2.71 0-.3-.02-.59-.06-.88-1.07 2.12-2.45 4.04-4.36 5.25-.07.04-.14.05-.2.05-.62 2.24-3.46 2.55-6.03 2.19.01.04.01.08.01.12-.15 1.12-.64 1.98-1.27 2.74-.03.29-.11.56-.22.82.73.51 1.45 1.05 1.87 1.84z" fill="#fff" opacity=".2"/><path d="m82.39 37.28c-.79-.72-1.75-1.3-2.81-1.52-.66-.14-1.31-.08-1.93.1.06.06.13.12.18.18.37.48.63.8 1.19 1.09s1.02.6 1.48 1.03c.13.13.1.31 0 .44-.53.67-1.05 1.37-1.69 1.94.03.06.04.13 0 .22-.46 1.27-.37 2.68-.83 3.92-.16.42-.35.89-.85.96-1.46.22-1.37-2.26-1.27-3.38-1.2.05-2.36.35-3.54.52-.14.48-.32.95-.56 1.39-.19.36-.41.71-.64 1.05-.18.26-.35.55-.59.77-.39.37-.88.63-1.32.93-.24.16-.47.33-.68.52-.17.16-.34.34-.43.56-.15.4.12.73.41.97.4.33.87.57 1.33.8.45.22.92.43 1.35.68.34.2.61.47.81.82.07.13.12.26.17.4.79-.58 1.94-.82 2.81-.92.57-.03 1.12 0 1.68.05 1.85-4.32 4.21-8.77 5.93-13.32-.05-.05-.12-.13-.2-.2z" fill="#fff" opacity=".2"/><path d="m65.09 70.23c-.6-.72-1.64-.93-2.57-.8-.09.01-.15-.06-.11-.15.26-.52.45-1.15.88-1.55-1.74-.43-3.57-.32-5.3-.79-.05-.01-.09-.07-.07-.12.05-.14.1-.28.17-.41.24-.48.63-.87 1.11-1.12.5-.25 1.05-.36 1.61-.41 1.24-.11 2.49.07 3.73.11.55.02 1.11.01 1.65-.11.47-.11.98-.34 1.29-.72.69-.85-.54-1.86-1.13-2.33-.08-.06-.17-.12-.25-.18-2.16.92-4.35.88-6.73.95-4.18.13-7.13 1.17-10.67 3.3-.15.09-.31.06-.44-.02-.15.27-.28.54-.37.83.09.06.19.12.28.19.03.09.31.4.33.44.15.35.08.67-.04 1.01-.23.67-.64 1.21-1.05 1.69.41.12.78.34 1.12.64.4.36.75.77 1.21 1.05.15.09.3.16.44.25.16.1.35.17.54.22.4.1.82.13 1.22.2.31.06.69.12.89.39.13.17.14.39.19.6.06.25.18.44.41.57.15.08.31.12.46.18.13.05.26.09.39.14.59.2 1.2.37 1.8.51 1.21.28 2.45.46 3.7.51.54-1.29 1.42-2.58 2.18-3.77-.08-.14-.09-.32.05-.44.91-.83 2.04-.56 3.08-.86z" fill="#fff" opacity=".2"/><g fill="#222221"><path d="m56.78 41.46c1.22.46 2.46.79 3.73.28.59-.23 1.26-.62 1.73-1.05.21-.19.53-1.01.72-1.06.29-.09.33-.47.08-.63-.06-.04-.12-.07-.17-.11-.17-.11-.39-.06-.53.07-.28.24-.2.29-.38.59-.34.6-.71.92-1.3 1.26-1.21.69-2.42.43-3.65.04.01-.04.03-.08.04-.12.18-.65-.88-.83-.93-.13-.17 2.16-2.29 3.09-4.2 2.75-.42-.08-.59.5-.18.65 2.2.74 4.19-.61 5.04-2.54z"/><path d="m47.64 29.91c.07-.08.12-.18.12-.3.01-.41-.04-.86-.34-1.17-.08-.08-.19-.14-.3-.19-.22-.14-.45-.22-.73-.23-.17 0-.35.1-.43.25-.22.38-.16.83.09 1.18.05.06.1.11.16.17.21.31.5.58.73.73.35.21.72-.11.7-.44z"/><path d="m53.27 25.67c-.24-.07-.43.09-.51.29-.17.41-.03.95.32 1.24.38.32.89.36 1.32.13.13-.07.22-.23.22-.38-.01-.33-.11-.67-.37-.89-.14-.12-.31-.19-.49-.21-.16-.06-.32-.13-.49-.18z"/><path d="m50.53 21.55c.36-.22.6-.46 1.06-.45.51.02.94.29 1.43.38.36.06.73-.39.39-.67-.83-.72-3.15-1.26-3.52.25-.08.36.31.69.64.49z"/><path d="m44.23 23.73c-.38.58-1.02 1-1.19 1.71-.12.5.07 1.2.67 1.23.18.01.34-.19.28-.37-.16-.43-.18-.7.16-1.07s.72-.67.9-1.16-.56-.75-.82-.34z"/><path d="m70.28 28.23c-.11.36.3.63.61.47.21-.11.42 1.41.44 1.54.05.22.26.31.45.3.17.08.39.06.55-.08 2.14-1.95 2.96-5.14 1.35-7.72-1.5-2.4-4.13-.29-4.39 1.88-.21.08-.35.34-.13.51.99.76 1.5 1.85 1.12 3.1zm-.24-3.29c.1-.56.36-1.1.74-1.54.53-.61.71-.8 1.47-.48 1.04.44 1.16 1.51 1.26 2.57.14 1.44-.46 2.79-1.45 3.85-.12-.66-.36-1.38-.88-1.51.03-.31.01-.63-.04-.94.17-.04.33-.15.35-.33.04-.27.14-.52.33-.72.21-.22.48-.27.72-.43.27-.18.24-.62-.09-.71-.45-.12-.94.16-1.27.45-.19.17-.34.38-.45.6-.17-.3-.4-.58-.69-.81z"/><path d="m24.43 84.25c-3.22-2.06-6.32-2.26-9.96-1.44-.33.07-.58.13-.81.17 1.05-.75 2.12-1.29 3.45-1.69.33-.1.28-.65-.08-.62-1.69.13-3.48.96-4.65 2.22-.26-.1-.55-.24-.97-.45-.74-.38-1.1-.81-1.88-1.16-1.43-.63-2.74-.74-4.29-.62-.13.01-.14.21 0 .21 1.04.02 2.12.13 3.11.45 1.56.51 2.27 1.98 3.61 2.46.65.23-.04.29.98.31.85.02 1.94-.74 2.8-.92 2.97-.63 5.82.14 8.31 1.75.41.26.8-.4.38-.67z"/><path d="m51.47 86.03c-1.7-.67-3.56-1.44-5.43-1.42-.55 0-1.74.36-2.43.46-.48-1.08-1.2-2.06-2.37-2.36-.62-.16-2.23-.71-2.6.13-.15.34.22.65.52.4.33-.28 1.78.17 2.15.32.66.26.99.91 1.38 1.49-.87-.11-1.73-.41-2.57-.6-3.08-.72-5.72-.59-8.57.86-.35.18-.04.67.3.52 2.38-1.07 4.95-1.48 7.5-.73.99.3 1.99 1.1 3.03 1.27.45.07.69-.26 1.21-.29 1.67-.6 3.34-.61 5.01-.01.89.27 1.76.58 2.62.91.58.19.81-.73.25-.95z"/><path d="m76.67 77.7c.1-.27-.34-.45-.46-.19-.28.59-.62 1.14-1.06 1.63-.49.55-1.11.86-1.66 1.32-.26.22-.34.29-.43.67-.08.31-.03.67-.12.99-.12.41-.39.75-.62 1.1-.2.28.22.54.45.35.4-.34.67-.76.83-1.26.08-.25.06-.52.13-.76.2-.63.4-.63.86-.98.99-.75 1.65-1.71 2.08-2.87z"/><path d="m64.47 73.07c-.79.6-1.97 1.54-2.16 2.59-.21 1.19.72.94-.18 2.67-.3.58-.74.9-.9 1.57-.08.36.47.52.56.15.27-1.2 1.43-1.75 1.42-3.05-.01-.63-.29-1.23-.08-1.94.2-.66 1.02-1.3 1.55-1.73.15-.11-.05-.37-.21-.26z"/><path d="m66.51 76.67c.22 1.02.01 2-.5 2.9-.2.35.32.66.54.32.65-1 .76-2.21.41-3.34-.09-.29-.51-.17-.45.12z"/><path d="m37.02 63.48c-.01.03 0 .06 0 .09-.61.29-1.16.7-1.32 1.4-.15.67.22 1.35.89 1.54.63.17 1.28-.19 1.5-.79.28-.75-.31-1.39-.28-2.12.01-.46-.7-.57-.79-.12zm.23 2.15c-.46.48-.98-.14-.83-.63.1-.32.36-.57.64-.79.03.11.05.21.09.32.13.33.41.77.1 1.1z"/><path d="m41.53 68.64c.11-.02.17-.09.19-.17.07-.04.12-.1.14-.18.01-.04.01-.07.02-.11.08-.02.15-.08.19-.18.45-.99-.68-2.12-1.67-2-.09.01-.16.04-.23.09h-.01c-.01 0-.01.01-.01.01-.01.01-.02.01-.02.02-1.12.91.12 2.77 1.4 2.52zm-1.05-1.11c-.14-.25-.13-.5-.08-.75h.01c.29-.03.54.06.73.28.21.24.19.46.22.75v.01c-.03.06-.06.12-.08.19-.32-.06-.62-.17-.8-.48z"/><path d="m37.8 70.26c-.78.89-.49 2.62.8 2.85.15.03.26-.04.34-.13.16.05.35.02.46-.17.66-1.1.13-2.57-1.16-2.86-.25-.05-.41.12-.44.31zm.9 2.11c-.27-.18-.5-.36-.59-.71-.09-.33 0-.64.18-.91.58.33.79 1.01.41 1.62z"/><path d="m9.95 80c-.31-.01-.62-.1-.93-.08-.34.01-.53.52-.19.68.71.35 1.62.11 2.31-.18.31-.13.08-.61-.22-.53-.32.08-.64.12-.97.11z"/><path d="m12.85 77.3c-.26.07-.15.44.11.4 2.85-.45 5.38.34 7.64 2.06.33.25.75-.3.44-.57-2.24-1.97-5.33-2.61-8.19-1.89z"/><path d="m27.67 80.92c-1-.25-2.06-.39-3.09-.51-.31-.04-.38.47-.07.55 1.01.24 2.05.48 3.08.59.36.04.43-.54.08-.63z"/><path d="m6.28 44.01c.87-.08 1.72-.28 2.58-.35 1.05-.09 2.44-.09 3.39.47.22.13.36.61.64.64.19.02.36.02.56.03.08 0 1.21-.31 1.28-.35.2-.04.4-.08.58-.1.11.04.24.03.34-.03.73-.04 1.38.1 2.2.5.5.24.94-.49.44-.75-.78-.4-1.58-.66-2.44-.7 0-1.36-.03-2.75-.23-4.09.03-.05.06-.09.09-.14.28-.41-.36-.75-.65-.38-.66.85-1.06 1.84-1.26 2.88-1.23-1.56-3.42-2.57-5.37-2.54-.14-.07-.29-.13-.43-.2-.41-.21-.88.32-.51.66.71.67 1.73.78 2.55 1.27.77.46 1.1 1.21 1.38 2-1.68-.42-3.37.13-5.22.68-.25.08-.22.52.08.5zm4.87-3.34c-.06-.07-.15-.12-.22-.19.11.04.22.07.33.12.98.46 1.65 1.18 2.3 2.01.25.32.73-.04.63-.38.2-.63.45-1.22.75-1.8-.03.99.02 2 .07 2.99-.34.08-.67.19-1 .2-.26.11-.52.21-.78.3-.17-.22-.36-.43-.57-.61-.17-.1-.34-.16-.51-.23-.13-.88-.42-1.75-1-2.41z"/><path d="m22.37 44.24c1.79-.38 3.2-.75 4.94.05.57.26 1 .67 1.64.69.2.01.41-.18.6-.22 1.39-.3 1.48-.55 2.82-.32.84.15 3.38.71 3.62.83.45.22.83-.41.39-.67-1.46-.89-3.21-1.19-4.89-1.11.37-.75.58-1.57 1.1-2.28.61-.82 1.4-1.37 2.2-1.99.13-.1.1-.26.02-.38.12-.16.08-.41-.16-.51-1.09-.46-2.64-.08-3.72.6.03-1.75.27-3.4.6-5.12.03-.04.07-.08.1-.11.3-.33-.16-.8-.49-.49-1.28 1.19-2.56 3.25-2.59 5.11-.65-.5-1.41-.97-2.1-1.25-.61-.25-1.25-.28-1.77.05-.18-.34-.75-.23-.76.2-.01.46.02.66.41.96.55.43 1.09.73 1.6 1.25.4.41.87.69 1.25 1.1.75.78.76 1.94.56 2.97-1.87-.4-3.71-1.25-5.54.37-.14.1.01.3.17.27zm5-4.72c-.48-.34-.72-.67-1.09-1.1-.23-.27-.81-.55-1.2-.83 1.16-.31 2.7 1.36 3.61 1.79.35.16.78-.28.45-.58-.02-.02-.05-.04-.07-.06.31-.89.43-1.8.86-2.67.22-.44.47-.85.75-1.23-.47 1.48-.63 3.1-.54 4.62 0 .06.02.1.04.15-.03.19.17.38.37.27.63-.32 1.24-.65 1.93-.8.49-.11.96-.09 1.44-.08-.77.42-1.43 1.05-1.96 1.73-.57.73-1.3 1.85-1.29 2.83-.27.03-.55.07-.81.12-.43.08-.86.08-1.29.03 0-.07-.03-.13-.07-.17.29-1.16.22-2.54-.49-3.48-.23-.32-.31-.31-.64-.54z"/><path d="m48.3 76.21c0 .01 0 .01 0 0z"/><path d="m48.3 76.21c0-.02.01-.09.02-.17-.01.09-.02.15-.02.17z"/><path d="m86.21 62.77c-.48.26-.96.54-1.42.83-.33.21-.73.64-1.12.37-.36-.25-.89.26-.62.62.39.53.87.43 1.4.15.73-.39 1.38-.99 2.07-1.45.31-.22.03-.71-.31-.52z"/><path d="m90.6 62.63c.45-1.07.91-2.3.83-3.33-.05-.69-.42-1.5-1.03-1.86.22-1.47.15-2.91.6-4.41.64-2.13 1.43-4.05.02-6.02.02-.04.03-.07.03-.12.05-.62.11-1.26-.03-1.88-.03-.16-.13-.34-.14-.5-.05-.7-.15-.01.23-1.1.25-.71.02-1.43-.45-2.07-.11-.16-.28-.29-.39-.45-.11-.17-.18-.27-.23-.33.08.03.18.01.27-.19.1-.2.3-.34.35-.57.2-.92-.7-1.4-1.45-1.51-.01 0-.01 0-.02 0 .39-1.34.6-2.69.44-4.03.17-.02.32-.14.3-.37-.17-2.4-3.68-4.9-5.56-2.61-.12.14-.11.31-.05.43-.22 1.07-.51 2.14-.84 3.2-.32-.13-.66-.22-1.01-.24.11-.75-.91-1.34-1.48-1.65-.04-.02-.08-.04-.12-.06.06-.94.17-2.01-.16-2.89-.14-.37-.35-.72-.68-.94-.07-.05-.31-.18-.43-.21.08-.18.14-.91.14-.9 0-.36-.09-.74-.25-1.07-.27-.55-.72-.89-1.25-1.13.14-.83.2-1.7-.15-2.49-.09-.21-.58-.7-.63-.89-.11-.48.3-1.1.41-1.54.45-1.78-.65-2.79-2.08-3.5.52-.32.71-1.12.52-1.8-.26-.95-.81-1.96-1.7-2.4.21-.67-.01-1.39-.62-1.9-.79-.68-1.85-.75-2.85-.61.61-.81 1.37-1.81.85-2.68-.54-.9-1.48-1.18-2.44-1.21.32-.46.44-.99-.08-1.47-.76-.71-2.47-.25-3.53 0 .16-.76.24-1.71-.15-2.28-.57-.84-1.95-.35-2.72-.08-1.19.42-2.15.25-3.43.4-.8.09-1.59.15-2.11.69-.7-2.07-3.34-.7-4.63-.05-.9.46-1.85.21-2.79.65-.94.43-1.58 1.2-1.9 2.16-.01.02 0 .04-.01.06-1.87-.36-3.57 1.03-4.47 2.61-1.89-.89-4.1 1.39-3.46 3.29-.93.21-1.72.71-2.25 1.55-.67 1.06-.38 1.98-.46 3.12-.06.88-.2.84-.74 1.57-.26.35-.46.7-.55 1.14-.21 1.04.23 2.16.7 3.1-1.6 1.38-.1 3.47 1.12 4.75-.52 1.05-.77 2.17.07 3.17.95 1.15 2.69 1.64 4.14 1.7.29.55.62 1.08.99 1.55.55.7 1.33 1.05 1.93 1.69 1.04 1.11 1.11 2.61 1.36 4.02.01.06.03.11.06.15-.24.56-.32 1.15-.2 1.66.05.2.19.29.35.3-.1.49.09.94.49 1.29.22.19.56.24.76.43.38.34.39.67.47 1.1.08.41.05.73.27 1.12.94 1.66 3.53 1.66 5.08 1.11.01 0 .01-.01.02-.01.04.06.08.13.13.19 0 .01-.01.02-.01.04.07 1.35.45 2.85.33 4.18-.23 2.57-1.89 2.12-3.96 2.06-3.18-.1-6.36-.26-9.54-.2-.43-.71-.36-1.39-1.09-1.92-.54-.39-1.35-.58-1.98-.72-.87-.2-1.6-.21-2.47-.04-1.08.22-1.92.54-3.05.27-.2-.05-.8-.37-1.09-.34-.99.1-1.08 1.1-.89 1.94.16.73.56 1.25 1.11 1.54-.97.06-1.95.12-2.88.36-1.42.36-3.45 2.02-1.78 3.39.01 0 .01 0 .02.01-.98.66-1.48 1.77 0 2.42.28.12.58.18.89.21-.47 1.06 1.41 1.57 2.2 1.65.14.01.28.01.42.02-1.69 1.64 2.87 1.49 4.14.91s2.22-1.37 3.61-1.71c1.13-.28 2.28-.36 3.3-.97.3-.18.53-.38.71-.59.03.01.04.03.07.03 5.18.21 11.32.96 16.41-.03 2.99-.58 4.08-2.46 4.35-5.21.68-.04 1.44-.44 2.09-.76-.08.72-.14 1.56.27 2.08.15.19.36.33.61.43-1 1.38-.8 3.02-.31 4.64-3.36.63-6.63.2-10.01.68-2.7.39-5.1 1.63-7.23 3.3-.06-.01-.12-.01-.18.03-.66.4-1.09.96-1.11 1.76 0 .14.08.29.21.36 1.24.68-1.67 3.19-1.93 4.06-.34 1.15.43 2.38 1.19 3.16.1.1.2.14.31.14-.44 1.18-.57 2.38-.59 3.65-.01.68-.14 1.64.22 2.26.45.77 1.72 1.23 2.45 1.61.68.36 1.36.7 2.07 1.02-.31.19-.54.45-.45.81.04.16.2.23.36.2.03-.01.06-.01.08-.02.1-.02.2-.14.19-.25 0-.02 0-.05-.01-.07 0-.06-.04-.11-.08-.15.35.03.71.01 1.06-.04.14.05.28.11.42.16.15.05.27 0 .37-.08.23.03.46.05.69.09.34.04.67.09 1.01.1.92.04 1.9-.01 2.76-.36.34-.13.41-.65.15-.83.47-.11.98-.09 1.47-.16.16.54.35 1.07.45 1.62-.24.11-.47.25-.68.44-.17.15.01.46.22.38 1.87-.71 3.62.23 5.48.5 2.62.38 4.07 1.49 5.52 3.71.34.52 1.18.03.84-.49-.08-.12-.16-.24-.25-.36 1.37-.83 3.88-.27 5.24-.01 1.68.32 3.15.78 4.4 2.01.42.41 1.05-.22.65-.64-1.62-1.68-3.8-2.11-6.05-2.4-1.47-.19-3.4-.45-4.55.6-.1-.13-.2-.26-.3-.39.61-.41 1.2-.79 1.93-1 .6-.17 1.52.02 2.05-.3.18-.11.31-.25.42-.41 2.4 2.04 7-.1 8.98-1.93 1.48-1.37 2.87-3.15 3.96-5.09.14.14.35.22.57.12 1.1-.49 2.67-1.37 3.1-2.64.62-1.82-.24-3.75.09-5.75.4-2.3 1.56-6.12-.38-7.94zm-1.53-23.75c.16.04.37 1.15.36 1.18 0 .05-.24.2-.24.3.01.18-.05.35.03.53.23.57 1.24.86 1.28 1.62.03.62-.34.73-.63 1.27-.08.15-.04.29.05.42.65.84.53 1.76.43 2.7-.01.13.04.21.11.27.01.01.01.03.02.04 1.68 2.54-.27 4.86-.7 7.37-.22 1.25 0 2.45-.33 3.71-.29 1.12-.9 2.19-1.29 3.28-.14.4.51.68.69.29.52-1.16 1.11-2.4 1.4-3.64.03.04.06.09.1.14.38.59.26 1.14.07 1.79-.3 1.06-.76 2.07-1.02 3.14-.02.07-.01.13.01.2-.02.06-.03.14-.01.22.58 2.13-1.1 5.57-1.68 7.63-.55 1.93-2.08 2.8-2.81 4.53-.08.18-.02.35.09.46-.23.9-.8 2.02-1.5 2.14-.67.11-.9-.03-1.41.52-.73.76-.92 1.79-2.21 1.65-.7-.08-1.14-.27-1.86-.16.12-.49.22-.97.32-1.37.05-.03.09-.07.12-.13 1-2.01.07-2.84-.99-4.52-.54-.85-.51-1.82-.97-2.68-.42-.79-1.13-1.34-1.86-1.84.11-.26.19-.53.22-.82.03-.04.07-.08.1-.12.19-.03.31-.19.26-.38.44-.64.79-1.36.91-2.24.01-.04 0-.08-.01-.12 2.56.35 5.4.05 6.03-2.19.07.01.14 0 .2-.05 3.75-2.38 5.49-7.51 6.78-11.56 1.17-3.65 2.15-7.7-.96-10.6-.07-.06-.14-.09-.21-.09.37-.94.75-1.9 1.07-2.88.01-.02.02-.02.04-.01zm-17.64 34.11c.06-.12.13-.24.2-.35.18.21.34.42.52.62-.23-.1-.48-.18-.72-.27zm-2.07-.04c.33.13.66.26.99.39-.2.23-.56.25-1.08.05.01-.15.04-.3.09-.44zm.29-.62c.11-.21.2-.43.23-.67.11-.02.22-.04.31-.05.17-.02.34-.05.51-.08.13.17.28.33.41.49-.11.15-.22.3-.32.47-.04.07-.07.15-.11.22-.34-.13-.68-.26-1.03-.38zm-.8-.29c-.16-.06-.32-.11-.48-.17.18-.01.36-.03.54-.05-.02.07-.03.15-.06.22zm.24-4c-.04-.06-.09-.12-.13-.18.05.01.1.03.15.04 0 .05-.01.09-.02.14zm.75 2.37c.1.13.19.28.3.41-.09.01-.17.02-.26.03-.02-.14-.03-.29-.04-.44zm1.21.27c-.44-.55-.85-1.13-1.27-1.7.02-.47.07-.92.16-1.35.59.2 1.2.34 1.81.44.25.04.48.09.72.14.33.44.64.89.93 1.35-.23.24-.47.47-.72.71-.02.02-.05.05-.07.07-.51.13-1.03.24-1.56.34zm-.05-9.91h.05.01c.78.15 1.54.29 2.28.59.64.26.92.42 1.55.48 1.27.13 2.32 1.05 3.61.97.14-.01.2-.19.07-.27-1.05-.66-2.1-1.29-3.33-1.51-1.45-.26-2.78-.91-4.29-1.1-.03 0-.05 0-.08.01-.44-.22-.94-.46-.72-.98.27-.63 1.1-.89 1.69-1.08.06-.02.11-.06.15-.1h.09c.07.02.14.02.2 0 1.42 0 2.76.22 4.14.63 1.22.36 2.43.87 3.71.88.19 0 .29-.29.1-.38-2.3-1.11-5.36-2.1-8.01-1.91-.57-.28-1.09-.76-.82-1.46.23-.58.74-.73 1.27-.83.03.01.05.03.08.04.13.06.25.06.36.01 1.48.07 2.75.61 4.14 1.1 1.26.44 2.39.42 3.67.64.24.04.44-.31.18-.43-1.19-.57-2.62-.61-3.88-1.09-1.36-.52-2.67-1.04-4.14-1.07-.25-.13-.51-.28-.66-.52-.28-.44.06-.74.43-.97.66-.41 1.4-.62 2.16-.7 1.68-.1 3.3.26 4.88.81.92.32 1.92.88 2.91 1.1.04.05.08.1.15.12 1.99.73 1.09 3.44.52 4.9-.33.84-.74 1.67-1.26 2.41-.23.33-.64.66-.63 1.09-.04.04-.07.1-.09.17-.34 1.63-.74 2.74-2.53 3.13-1.57.34-3.3-.04-4.79-.54-1.34-.44-2.86-1.07-3.9-2.06-1.26-1.16-.57-1.68.73-2.08zm16.73-18.44c4.69 4.86-1.13 16.72-5.48 20.76 0-.21.01-.42-.02-.65-.01-.06-.03-.11-.05-.15 1.24-.56 2.4-3.98 2.61-4.81.41-1.58.42-3.77-1.37-4.26-.2-.19-.43-.36-.67-.51 2.01-2.96 3.44-6.21 4.68-9.56.09-.28.19-.55.3-.82zm-14.93 23.03c.66.28 1.57.55 2.56.74 0 .01-.01.02-.01.03-.1.73-.36 1.35-.71 1.91-.55-.33-1.23-.45-1.87-.54-.15-.19-.29-.39-.45-.57-.39-.46-.79-1.01-1.3-1.34.01-.01.03-.01.04-.02.31-.13.19-.59-.07-.69.06-.09.12-.19.18-.28.58.31 1.16.56 1.63.76zm1.09 3.67c-.12-.18-.24-.36-.36-.54.21.07.42.14.63.22-.09.11-.18.22-.27.32zm-2.07-1.69c-.58-.1-1.17-.19-1.75-.28.1-.37.22-.73.37-1.09.53.32.98.86 1.38 1.37zm15.81-35.64c.9.54 1.19 1.22 1.51 2.13-1.12 6.48-3.64 12.89-7.1 18.49-.72-.33-1.49-.58-2.16-.8-.8-.27-1.6-.48-2.42-.61 2.71-6.12 6.44-12.61 7.68-19.18.01-.04 0-.08 0-.12.75-.65 1.66-.41 2.49.09zm-41.72 3.74c-.81-.85-1.74-1.38-2.4-2.41-.93-1.44-1.54-3.09-2.08-4.7-.03-.08-.08-.14-.14-.17.15-.77.18-1.58.02-2.33.58-.52.67-1.63.59-2.38-.14-1.48-.01-2.63 1.33-3.49 1.32-.85 2.77-1.12 4.22-.43.06.03.12.04.17.04.17.12.41.15.58-.02 1.75-1.79 3.39-1.87 5.58-.72 1.14.6 2.18 1.57 3.43 1.93 1.11.32 1.93-.01 2.57-.72.16 1.14.75 2.17 1.93 2.59.37.13.86.05 1.2.21.31.15.46.52.74.76.63.52 1.47.61 2.27.69-1.09 1.44-.28 3 1.14 3.84.01.01.02.01.03.01 0 .01-.01.02-.01.04-.05.28-.15.55-.19.83-.08.56-.09 1.21.07 1.76.24.82 1.04 1.32 1.82 1.68-.11.12-.22.26-.28.44-.12.33-.1.71-.16 1.06-.1.5-.7 1.44-1.24 1.67-.52.22-1.14-.42-1.73-.4-.5.02-.96.23-1.25.62-.07-.11-.17-.19-.33-.18-.68.02-1.37-1.14-2.15-1.27-.69-.12-1.18.24-1.84.3-.46.04-.8-.21-1.29-.26-.91-.11-1.69.45-2.58.51-.13 0-.25.05-.34.21-.82 1.51-2.94 2.24-4.57 1.62 0-.12-.07-.25-.22-.23-.06.01-.12.03-.18.04-.4-.22-.76-.54-1.04-.96-1.22-1.83.24-4.94.89-6.8.16-.45-.55-.64-.71-.2-.97 2.64-2.81 6.33.11 8.31.02.01.04.02.06.03-.35.34-.56.83-.65 1.33-.7-.05-1.38.31-1.9.86-.11-1.36-.5-2.69-1.47-3.71zm5.48 11.25c-1.26-.21-1.92-.91-1.97-2.21-.01-.28-.01-.51-.16-.75-.37-.57-1.82-.55-1.66-1.51.04-.25-.11-.41-.29-.45 0-.02 0-.03 0-.05-.28-1.09 1.08-2.86 2.24-2.55.24.07.51-.12.51-.38-.02-.64.25-1.02.59-1.42 2.07.93 4.7.5 5.7-1.77.01-.01 0-.02.01-.03.59-.07 1.13-.36 1.75-.34.65.01 1.02.39 1.6.4.34 0 .66-.3 1.01-.31.77-.02 1.44.57 2 .92s.56.35 1.2.24c.06-.01.11-.03.15-.07.08.08.19.11.3.03.49-.36.98-.68 1.61-.35.21.11.33.33.55.42.48.18.72-.03 1.1-.34.54-.45 1.17-1.03 1.48-1.67.3-.63-.1-1.39.7-1.79.28-.14.16-.67-.17-.62-.05.01-.09.02-.14.03-.66-.68-1.47-1.25-1.66-2.23-.13-.66.45-1.37.3-1.98-.05-.22-.19-.32-.32-.49-.06-.07-.22-.06-.29-.12-1.01-.82-1.4-1.42-.78-2.65.04-.08.05-.17.04-.25.41-.02.58-.63.12-.72-.8-.16-1.8-.06-2.49-.49-.52-.32-.58-.94-1.16-1.14-.53-.18-1-.02-1.54-.31-1.06-.55-1.25-1.67-1.21-2.75.01-.05.01-.1.01-.15 0-.03 0-.07 0-.1.02-.38-.57-.48-.69-.16-.04.03-.08.06-.12.11-2.25 2.93-5.5-1.68-8.11-1.84-1.56-.09-2.95.82-3.9 1.97-1.66-1.11-3.87-.41-5.36.71-.68.51-1.12 1.14-1.3 1.97-.29 1.37.57 3.05-.79 4.05-.26.19-.17.57.16.59.09.01.16-.01.24-.02-.06 1.11-.15 2.15-.55 3.24-.19.51.63.73.82.23.04-.1.07-.2.1-.3.22.92.52 1.84.91 2.73-1.81-.51-3.93-1.4-2.64-3.83.15-.28.05-.57-.2-.76-1.21-.88-2.52-2.31-1.21-3.8.17-.19.11-.46-.05-.6-.46-1.62-.6-3.24.88-4.42.12-.1.17-.32.12-.46-.69-1.89-.18-4.04 2-4.54.4-.09.4-.51.18-.74.45-1.28.8-3.88 2.62-2.45.2.16.56.19.69-.09.71-1.52 2.13-2.93 3.96-2.62.28.05.47-.16.5-.38.09-.02.16-.08.21-.18.4-.87.96-1.56 1.92-1.83.58-.17.99.03 1.53-.06 1.26-.21 3.25-2.74 4.54-.79.08.11.19.16.31.16.04.21.3.37.46.17.67-.82 2.28-.8 3.22-.74.41.02.84.24 1.24.2.58-.06 1.24-.59 1.84-.73.93-.21 1.15-.05 1.23 1.01.03.42-.05.88-.05 1.3 0 .23.21.33.39.28.06.03.14.04.22.03.69-.13 1.37-.24 2.07-.29.24-.02.47-.03.71-.03.41.53.34.9-.22 1.1-.29.19-.22.77.2.72.87-.1 2.54-.22 2.7.95.1.74-.77 1.68-1.16 2.31-.04.06-.05.11-.05.17-.12.24.01.6.33.57.6-.05 1.2-.14 1.8-.08.63.07 2.17.72 1.47 1.59-.2.25-.17.7.21.78.58.13.86.47 1.14.97.1.18.95 1.79.02 1.75-.48-.02-.57.64-.18.83-.14.21-.13.5.17.64.99.46 1.82.85 1.84 2.04.01.82-.63 1.52-.56 2.28.02.23.18.37.27.57.23.48.68.83.76 1.43.07.51.01 1.02-.02 1.54-.01.17.08.29.2.37.05.07.11.13.2.16.65.23 1.12.84 1.2 1.53.03.3-.24.63-.23.93.01.24.04.28.17.49.06.09.13.1.2.16.51.51.68.36.89 1.1.18.59.13 1.27.1 1.91-.59-.19-1.21-.29-1.84-.29-.07-.32-.46-.5-.77-.24-.58.48-.97.8-1.77.74-.25-.02-.54.25-.51.51.06.5-.01.96-.17 1.39-.16.05-.25.25-.19.41-.01.03-.03.05-.04.08-.09.05-.15.14-.16.24-.2.27-.43.51-.71.74-.01.01-.01.02-.02.03-.34-.09-.76.25-.64.63.56 1.65-.79 2.95-2.38 3-.33.01-.6.33-.5.66.54 1.83-1.37 2.43-2.59 3.07-.28-.19-.72-.08-.7.34.09 1.32.25 3.77-1.83 3.5-.23-.03-.42.22-.42.42 0 1.07-.21 2.2-1.31 2.62-.01 0-.01.01-.02.01-.05.02-.09.04-.15.06-.15.04-.22.16-.22.28-.51.41-1.08.41-1.73.33-.29-.03-.47-.18-.77-.16-.09 0-.35.07-.44.07-.1.05-.19.1-.29.15-1.05-.34-1.67-1.02-1.84-2.04-.08-.27-.39-.4-.64-.26-1.05.58-2.38-1.5-2.79-2.06-.12-.17-.3-.2-.46-.16-.08-.17-.24-.28-.47-.2-.79.21-1.52.31-2.31.18zm26.97-6.3c-.08.03-.15.1-.19.2-.01.03-.02.06-.03.09-.04.05-.08.1-.11.15-.04.05-.02.11.02.15-.11.34-.19.68-.25 1.02-.28.27-.55.54-.82.82-.15.04-.29.08-.44.12.02-.35.05-.69.08-1.04.02-.18-.18-.35-.35-.35-1.78.05-3.5.6-5.28.78.28-.44.43-.96.42-1.54 1.8-.35 3.88-2.25 2.97-4.03.15-.1.26-.22.4-.33.11.43.24.85.36 1.27.17.62.33 1.29.76 1.78.16.18.52.04.5-.21-.06-.65-.33-1.29-.49-1.93-.14-.56-.26-1.13-.44-1.67.04-.06.09-.12.12-.18.34.13.67.26.98.46.47.31.68.79 1.03 1.14.62.6 1.51.9 2.27 1.37-.48.69-1.02 1.29-1.51 1.93zm-1.4 3.31c.05-.04.09-.09.14-.13l.45-.12c0 .02-.01.04-.01.06 0 .18 0 .36-.01.54-.57.37-.9.39-1.01.07.15-.14.3-.28.44-.42zm-50.14 14.96c.16-.15.32-.29.47-.43 2.52.15 5.36.15 7.76-.7-.03.43-.03.86.01 1.29-.03 0-.07 0-.11.02-1.3.48-2.7.57-4.06.76-.71.1-1.86.41-2.54.35-.78.17-1.3-.25-1.53-1.29zm15.54.86c.36-.73.25-1.61-.01-2.61-.12-.44-.78-.26-.68.19.86 3.95-3.73 3.24-5.86 4.41-1.03.57-1.84 1.27-3.04 1.54-.63.14-2.27.23-1.84-.7 1.51-.12 2.96-.77 4.3-1.44.44-.22.05-.85-.38-.65-.92.43-1.84.89-2.83 1.16-.45.12-4.02.62-3.7-.69.92-.03 1.9-.27 2.69-.37 1.39-.17 2.9-.18 4.17-.81.05.26.1.53.18.78.15.45.8.27.7-.19-.3-1.45-.29-2.7-.12-4.16.04-.34-.45-.35-.55-.08-.09.25-.15.51-.21.78-2.54.99-5.29.71-7.96 1.04 0-.01 0-.02 0-.04-1.15-2.55 4.46-2.5 5.65-2.66 1.37-.18 2.63-.75 3.98-.98-.07.37.26.86.42 1.15.35.62.77 1.21 1.31 1.67.31.27.71-.14.45-.45-.31-.36-.63-.71-.9-1.11-.19-.28-.73-.93-.68-1.29.01-.04-.01-.08-.02-.12.14-.12.16-.37-.07-.41-1.41-.22-2.73.42-4.12.65-.02-.22-.21-.45-.5-.4-.86.15-2.44-1.85-1.01-1.81.33.01.71.2 1.06.24 1.02.11 1.8-.22 2.78-.4 1.29-.23 3.12-.05 4 .97.51.59.34.9 1 1.22.05.02.1.03.15.02.02.01.04.03.06.03 2.49.29 4.99.4 7.49.52 1.62.07 3.99.59 5.59.07 2.11-.69 1.64-3.58 1.27-5.7.63.66 1.37 1.14 2.21.94.44 1.21 1.22 2.37 2.63 2.28.2-.01.39-.05.59-.09-.01.02-.01.04-.01.06.15.75.7 2.03 1.47 2.52-1.45 6.69-14.13 4.72-19.66 4.92zm22.99-6.58c-.75.31-1.7.9-2.51.84-.09-.09-.24-.12-.37-.08-.76-.29-1.08-1.14-1.65-1.73.18-.02.37-.04.57-.01.28.04.55.19.84.16.73-.06 1.19-.57 1.61-1.12 0 0 0 0 0-.01 1.16-.45 1.55-1.55 1.74-2.74 2-.03 2.52-2.22 2.41-4h.04c.91-.24 1.82-.69 2.47-1.33 1.85.07 3.56-.57 5.37-.65-.02.24-.04.55-.05.88-.6.19-1.2.39-1.75.63-.17.08-.09.37.1.35.55-.05 1.11-.16 1.67-.28-.51.43-1.03.85-1.53 1.31-.13.12.01.34.17.29.54-.15 1.03-.48 1.48-.85.16.66.51 1.14 1.18 1.04.5-.08.69-.55.85-.96.17-.47.26-.96.34-1.46.4-.12.79-.23 1.17-.34.4-.12.23-.71-.17-.62-.29.07-.58.14-.88.2.01-.07.02-.15.03-.22.42-.38.86-.75 1.34-1.06.37-.24.02-.84-.34-.59-.28.19-.52.41-.77.62.04-.15.07-.3.12-.44.03-.09.02-.16 0-.22.64-.57 1.16-1.27 1.69-1.94.1-.13.13-.32 0-.44-.46-.43-.92-.74-1.48-1.03s-.82-.61-1.19-1.09c-.43-.55-1.2-.98-1.95-1.2.12-.32.2-.66.24-1.01.62-.04 1.27-.27 1.7-.71.03.01.07.02.11.02.69 0 1.37.1 2.01.35.22.08 1.8.95 1.71 1.07-.15.18-.09.5.14.57.05.12.15.23.29.24.44.05.82.11 1.2.27-1.72 5.19-4.49 10.27-6.59 15.18-.55-.05-1.11-.08-1.68-.05-1.12.13-2.74.5-3.4 1.53-.43.66-.19 1.32.27 1.82-.57.24-1.05.71-1.23 1.26-.24.75.06 1.39.57 1.85-.6.17-1.21.5-1.6.99-.04-.1-.12-.17-.26-.2-.27-.47-.54-.93-.81-1.4.07-.2-.08-.47-.29-.52-.67-.13-1.68-.12-2.16-.63-.51-.55-.29-1.42-.23-2.14 0-.24-.3-.49-.54-.4zm-16.88 15.4c.12-.34.19-.66.04-1.01-.02-.04-.3-.35-.33-.44-.09-.06-.19-.12-.28-.19.1-.29.23-.57.37-.83.13.08.29.11.44.02 3.54-2.13 6.49-3.17 10.67-3.3 2.6-.08 4.98-.01 7.34-1.23.24-.12.07-.48-.18-.42-.09.02-.18.03-.27.06-.22-.75-.49-1.44-.45-2.24.04-.75.32-1.42.7-2.05.38.07.78.11 1.13.15-.09.94.49 1.75 1.5 1.95.06.01.11.01.16 0-.18.58.12 1.17.59 1.54-.8.32-1.41.91-1.09 1.91.25.8.97 1.45 1.79 1.98-.25.33-.47.68-.65 1.03-.87.44-1.88.96-2.65.8-.63-.14-1.02-.67-1.8-.78-2.19-.3-5 .26-7.08.94-.42.14-.25.79.18.67 1.59-.43 3.15-.68 4.8-.8.66-.05 1.33-.13 1.98-.02.68.12 1.09.65 1.67.8.73.18 1.61-.14 2.43-.54-.07.19-.13.39-.18.59-.02 0-.04-.01-.07-.01-.19-.03-.35.23-.14.34l.12.06v.02c-.25-.08-.52-.12-.76-.06-.21.05-.33.23-.33.4-.06.1-.07.23.02.36.2.3.43.59.64.89-1.25.01-1.96.42-3.11 1.07-1.18.67-2.57.11-3.62 1.06-.14.13-.13.31-.05.44-.79 1.23-1.72 2.58-2.25 3.92-.41 1.05-.17 1.91-.38 2.99-.06-.09-.16-.16-.29-.18-1.08-.14-2.11.05-3.17-.01-1.02-.06-1.91-.2-2.65-1.05-.11-.13.01-.47-.13-.6-.26-.23-.42-.39-.73-.55-.99-.5-3.92.11-2.62-1.87.14-.22-.01-.47-.22-.55-.94-.35-1.62-.23-2.36.3-.01-.02-.02-.05-.04-.07-2.27-2.56.55-3.24 1.31-5.49zm9.18 13.58c-.56.14-.99.39-1.35.85-.01.02-.01.03-.01.05-.57.09-1.14.18-1.72.18-.74 0-1.48-.18-2.22-.17-1.48-.67-3.2-1.24-4.44-2.23-1.54-1.24-.87-4.32-.37-5.99.01-.04.01-.07.01-.1.38-.04.77-.08 1.15-.11-.06.14-.12.29-.16.44-.05-.21-.16.77-.21 1.2-.02.2.2.39.39.38.71-.03 2.7-.23 3.27.3.36.34.28.82.4 1.2.13.38.06.65.4.99.49.5 1.13.44 1.76.4 1.6-.09 2.89-.51 4.52-.29.05.01.08 0 .12-.01-.24.69-.56 1.32-.53 2.1.01.21.04.41.08.61-.39.04-.77.12-1.09.2zm15.65 3.62c-.37.19-1.22.09-1.68.22-.83.23-1.58.63-2.22 1.2-.29-.32-.59-.62-.92-.88.03-.01.07-.02.1-.04.65-.46 1.24-1.06 1.85-1.57.17-.15-.05-.44-.24-.31-.66.45-1.4.85-2.02 1.35-.1.08-.12.19-.09.29-.77-.53-1.65-.92-2.7-1.06-1.5-.2-3.57-1.04-5.24-.75-.1-.57-.29-1.09-.42-1.64.18-.16.11-.49-.11-.57-.22-1.5.3-1.97.57-3.33.24-1.22.06-2 .6-3.37.47-1.2 1.28-2.32 1.86-3.48.91-.5 1.94-.14 2.9-.51.56-.22.96-.68 1.5-.94.64-.31 1.34-.31 2.03-.35.02.4.02.79 0 1.17-.08.01-.15.02-.23.03-.19.02-.37.03-.56.04 0-.01 0-.02 0-.02-.04-.24-.31-.34-.52-.29-.04-.07-.11-.12-.19-.15-.38-.14-.8.08-.98.42-.2.38-.07.81.26 1.06.22.16.49.21.74.15.35.15.71.3 1.07.45-.09.26-.16.52-.17.83 0 .04.01.07.02.1.01.05.03.09.05.12.19.57.8.91 1.37.85.63-.07.94-.46 1.2-.93.21.07.42.14.63.2.13.36.54.61.92.49.23-.07.4-.23.51-.43.15-.11.2-.3.14-.48.01-.07.02-.14.02-.21-.01-.21-.17-.39-.39-.39-.02 0-.05.01-.07.01-.25-.28-.49-.57-.73-.86.25-.31.52-.6.8-.89.48-.13.95-.27 1.41-.44.02-.01.03-.02.05-.03.86.68 1.39 1.36 1.67 2.54.1.41.15.76.35 1.15.79 1.59 2.09 2.35 1.31 4.35-.03.08-.02.15 0 .22-.23.69-.36 1.62-.73 2.23-1.02 1.69-.87.6-1.64 1.24-.56.46-.81.83-1.07 1.51-.23.56-.41 1.4-1.01 1.7zm16.54-13.77c-.3 2.42.6 4.72-2.12 6.15.92-1.85 1.57-3.81 1.71-5.68.04-.47-.71-.57-.82-.11-.74 3.24-1.99 5.87-3.91 8.57-2.03 2.86-6.35 6.36-10.07 4.55.05-.12.09-.25.14-.37.37-1.04.88-1.59 1.8-2.21.18-.12.41-.18.57-.34.33-.31.55-.78.71-1.29.05.04.11.06.19.06.38-.04.79-.06 1.17.03-.28-.07.8.38.94.39.33.03.27.07.6-.05 1.27-.45 1.47-1.86 2.87-2.2.69-.17.91-.19 1.31-.88.44-.77.98-1.68.94-2.58.56-.69 1.23-1.05 1.77-1.76.7-.91.86-2.31 1.16-3.38.59-2.07 2.04-4.87 1.36-7.03.01-.01.02-.02.03-.04.05-.12.1-.24.16-.36 1.33 2.23-.25 6.43-.51 8.53z"/><path d="m83.86 45.12c-.72 1.97-1.64 3.83-2.76 5.6-.25.39.38.76.62.36 1.1-1.84 1.98-3.78 2.63-5.82.1-.32-.38-.45-.49-.14z"/><path d="m82.71 43.5c1.34-2.66 2.3-5.57 2.94-8.47.06-.27-.33-.38-.41-.11-.88 2.83-1.94 5.52-3.1 8.25-.16.38.38.72.57.33z"/></g></svg>