<?xml version="1.0" encoding="UTF-8" standalone="no"?>
<!DOCTYPE svg PUBLIC "-//W3C//DTD SVG 1.1//EN" "http://www.w3.org/Graphics/SVG/1.1/DTD/svg11.dtd">
<svg width="100%" height="100%" viewBox="0 0 447 655" version="1.1" xmlns="http://www.w3.org/2000/svg" xmlns:xlink="http://www.w3.org/1999/xlink" xml:space="preserve" xmlns:serif="http://www.serif.com/" style="fill-rule:evenodd;clip-rule:evenodd;stroke-linejoin:round;stroke-miterlimit:2;">
    <g transform="matrix(1,0,0,1,-11059,-730.836)">
        <g transform="matrix(5.55556,0,0,5.55556,10895.7,0)">
            <g transform="matrix(1,0,0,1,-5.22,4.32)">
                <clipPath id="_clip1">
                    <rect x="35.002" y="126.157" width="511.467" height="180.679" clip-rule="nonzero"/>
                </clipPath>
                <g clip-path="url(#_clip1)">
                    <g transform="matrix(1,0,0,1,34.9204,242.058)">
                        <path d="M0,-41.259C0,-41.259 9.801,-44.781 20.339,-43.463C30.879,-42.146 36.169,-41.772 40.33,-40.313C44.491,-38.852 49.322,-37.535 49.322,-37.535C49.322,-37.535 58.461,-36.44 58.063,-35.781C57.664,-35.12 59.479,-33.439 59.479,-33.439C59.479,-33.439 60.518,-31.827 65.349,-30.51C70.179,-29.192 76.985,-26.557 75.009,-23.703C73.034,-20.849 62.934,-17.336 62.714,-13.164C62.495,-8.992 57.884,-3.285 51.078,-2.625C44.271,-1.967 36.587,3.522 25.828,2.864C15.07,2.205 9.142,0.668 7.605,0.888C6.068,1.107 -0.299,0.009 -0.299,0.009L0,-41.259Z" style="fill:rgb(240,209,188);fill-rule:nonzero;"/>
                    </g>
                    <g transform="matrix(1,0,0,1,91.9445,134.495)">
                        <path d="M0,29.19C0,29.19 1.427,24.579 1.427,23.592C1.427,22.604 0.439,20.957 1.098,19.09C1.756,17.224 2.854,15.907 2.525,13.601C2.196,11.296 1.207,4.49 0.658,3.721C0.109,2.952 -3.293,0.538 -5.38,0.208C-7.465,-0.121 -10.157,0.385 -12.378,0.735C-14.6,1.087 -17.223,3.583 -17.223,3.583C-17.223,3.583 -19.945,18.978 -20.566,20.132C-21.187,21.286 -20.2,28.421 -20.2,28.421L-18.426,29.109C-18.426,29.109 -11.741,29.311 -11.195,29.141C-10.649,28.97 -6.038,28.421 -5.38,28.751C-4.721,29.081 0,29.19 0,29.19" style="fill:rgb(79,79,81);fill-rule:nonzero;"/>
                    </g>
                    <g transform="matrix(1,0,0,1,64.5542,215.273)">
                        <path d="M0,26.867C-2.185,25.471 -4.84,24.614 -6.725,22.728C-8.095,21.357 -8.041,20.232 -8.637,18.492C-9.111,17.11 -9.744,17.056 -10.934,16.229C-12.783,14.944 -13.973,13.088 -15.496,11.487C-16.301,10.643 -17.44,9.888 -18.614,9.141C-20.115,8.188 -21.907,8.127 -23.479,7.319C-28.842,4.564 -24.84,0.774 -20.487,0.257C-18.331,0 -16.096,0.286 -13.949,0.373C-12.219,0.445 -10.086,0.228 -8.478,0.899C-7.011,1.512 -7.489,2.287 -6.802,3.386C-6.462,3.93 -5.834,4.296 -5.35,4.802C-4.059,6.151 -3.996,7.885 -3.146,9.503C-2.471,10.788 -1.234,11.875 -0.213,12.879C0.104,13.19 1.37,13.875 1.47,14.07C1.976,15.059 1.117,15.033 0.801,15.739C-0.267,18.123 5.886,25.948 0,26.867" style="fill:rgb(212,176,152);fill-rule:nonzero;"/>
                    </g>
                    <g transform="matrix(1,0,0,1,89.1447,211.613)">
                        <path d="M0,17.354C-2.245,16.169 -5.393,16.368 -7.212,14.578C-8.354,13.454 -8.595,11.937 -9.981,11.01C-11.5,9.994 -13.412,9.688 -15.157,9.296C-17.347,8.803 -21.501,7.894 -22.109,5.242C-22.604,3.079 -20.605,2.531 -18.956,1.912C-17.012,1.183 -15.867,0 -13.819,0.503C-11.892,0.976 -11.02,1.827 -9.511,3.147C-8.164,4.325 -6.525,5.108 -5.126,6.19C-3.065,7.783 -2.778,10.038 -1.86,12.3C-1.275,13.739 -0.153,14.977 0,17.354" style="fill:rgb(212,176,152);fill-rule:nonzero;"/>
                    </g>
                    <g transform="matrix(1,0,0,1,87.7564,176.237)">
                        <path d="M0,17.877C0.29,18.699 0.529,19.379 0.774,20.073C1.633,19.268 1.434,18.626 0,17.877M23.464,-5.807C23.343,-5.782 23.21,-5.744 23.074,-5.728C22.383,-5.648 21.689,-5.578 20.997,-5.494C20.805,-5.471 20.496,-5.459 20.457,-5.356C20.392,-5.186 20.431,-4.874 20.556,-4.748C20.995,-4.303 21.558,-4.185 22.128,-4.413C22.737,-4.657 23.523,-4.727 23.56,-5.643C23.561,-5.682 23.514,-5.725 23.464,-5.807M24.252,-7.37C24.21,-7.479 24.168,-7.588 24.125,-7.696C23.769,-7.62 23.404,-7.567 23.059,-7.46C22.535,-7.298 22.033,-7.062 21.503,-6.929C21.145,-6.84 20.755,-6.874 20.361,-6.852C20.657,-6.167 20.971,-5.919 21.688,-6.006C22.72,-6.131 23.61,-6.563 24.252,-7.37M-21.406,55.071C-20.784,54.761 -20.303,54.585 -19.896,54.304C-19.458,54.002 -19.452,53.435 -19.86,53.185C-20.374,52.872 -20.928,52.627 -21.468,52.351C-21.448,53.219 -21.43,54.052 -21.406,55.071M-17.473,14.53C-17.392,14.54 -17.313,14.551 -17.233,14.561C-17.097,14.055 -16.795,13.53 -16.857,13.045C-17.017,11.811 -17.614,10.722 -18.335,9.751C-18.988,10.356 -18.825,10.951 -18.39,11.598C-18.175,11.918 -18.083,12.326 -17.969,12.704C-17.789,13.308 -17.636,13.921 -17.473,14.53M-18.244,-19.806C-17.321,-19.864 -16.976,-20.25 -16.864,-20.964C-16.826,-21.203 -16.576,-21.428 -16.378,-21.611C-16.112,-21.855 -15.756,-22.011 -15.52,-22.278C-15.137,-22.709 -14.85,-23.225 -14.468,-23.655C-14.065,-24.109 -13.771,-24.57 -13.873,-25.215C-14.459,-24.868 -14.993,-24.474 -15.589,-24.225C-15.988,-24.059 -16.23,-23.905 -16.148,-23.449C-16.047,-22.889 -16.403,-22.63 -16.828,-22.455C-17.091,-22.347 -17.389,-22.321 -17.672,-22.258C-17.432,-21.431 -17.446,-21.441 -18.007,-20.652C-18.142,-20.462 -18.146,-20.176 -18.244,-19.806M21.145,-10.165L21.106,-10.021C21.254,-9.939 21.396,-9.833 21.555,-9.782C22.318,-9.53 23.177,-9.445 23.527,-8.517C23.555,-8.443 23.748,-8.367 23.842,-8.386C24.651,-8.55 25.472,-8.687 26.254,-8.935C26.712,-9.08 26.729,-9.466 26.321,-9.775C26.109,-9.935 25.855,-10.142 25.619,-10.148C24.129,-10.182 22.636,-10.165 21.145,-10.165M-34.432,-29.851C-34.975,-30.01 -35.343,-30.047 -35.632,-30.217C-36.427,-30.687 -37.608,-30.442 -38.041,-29.667C-38.524,-28.803 -38.173,-27.332 -37.391,-26.951C-36.578,-26.555 -34.352,-27.329 -33.993,-28.136C-33.964,-28.2 -33.938,-28.286 -33.957,-28.348C-34.135,-28.93 -34.324,-29.51 -34.432,-29.851M-37.223,-0.816C-39.297,1.563 -41.781,7.917 -41.294,12.43C-41.23,12.298 -41.156,12.199 -41.131,12.089C-40.641,9.907 -39.649,7.957 -38.432,6.12C-38.034,5.517 -37.513,5.031 -37.482,4.202C-37.43,2.829 -37.248,1.464 -37.141,0.093C-37.119,-0.185 -37.19,-0.471 -37.223,-0.816M-19.229,43.577C-19.516,42.209 -37.921,21.855 -39.857,20.612C-39.887,21.194 -39.914,21.727 -39.937,22.14C-39.494,22.486 -39.12,22.724 -38.811,23.029C-37.116,24.711 -35.402,26.378 -33.76,28.111C-31.43,30.571 -29.14,33.071 -26.861,35.581C-24.857,37.787 -22.904,40.041 -20.896,42.243C-20.47,42.71 -19.9,43.048 -19.229,43.577M-26.623,42.646C-26.886,42.929 -27.05,43.042 -27.127,43.199C-27.998,44.978 -29.354,46.314 -30.894,47.514C-32.039,48.406 -31.93,49.529 -30.614,50.218C-29.476,50.813 -28.578,51.626 -27.813,52.628C-27.748,52.713 -27.639,52.766 -27.484,52.884C-26.522,49.568 -26.396,46.25 -26.623,42.646M-21.416,39.104C-21.372,38.954 -21.327,38.869 -21.325,38.782C-21.246,36.092 -21.776,33.483 -22.56,30.91C-22.607,30.753 -22.79,30.553 -22.94,30.519C-23.828,30.315 -24.72,30.255 -25.493,30.826C-26.184,31.336 -26.846,31.887 -27.536,32.433C-25.48,34.675 -23.474,36.862 -21.416,39.104M-21.642,-17.213C-20.843,-16.694 -20.366,-15.849 -20.133,-14.861C-20.015,-14.36 -20.135,-13.72 -19.32,-13.696C-19.273,-13.695 -19.207,-13.542 -19.185,-13.452C-18.858,-12.091 -18.502,-10.735 -18.224,-9.366C-18.038,-8.445 -17.961,-7.503 -17.875,-6.859C-17.086,-8.581 -16.201,-10.499 -15.335,-12.427C-15.268,-12.576 -15.305,-12.797 -15.351,-12.97C-15.814,-14.704 -16.057,-16.456 -16.027,-18.243C-16.015,-19.045 -16.059,-19.849 -16.078,-20.652C-16.305,-19.719 -16.865,-19.172 -17.813,-18.977C-17.985,-18.942 -18.162,-18.66 -18.222,-18.456C-18.641,-17.055 -18.584,-15.611 -18.49,-14.163C-18.478,-13.974 -18.609,-13.78 -18.673,-13.589C-18.855,-13.731 -19.153,-13.849 -19.195,-14.022C-19.297,-14.448 -19.327,-14.902 -19.304,-15.339C-19.247,-16.46 -19.146,-17.577 -19.057,-18.763C-19.891,-18.263 -20.739,-17.755 -21.642,-17.213M-17.224,18.618C-17.403,20.647 -17.585,22.692 -17.766,24.734C-16.645,24.881 -15.599,25.007 -14.555,25.156C-13.87,25.255 -13.181,25.352 -12.506,25.509C-11.067,25.843 -9.545,25.885 -8.27,26.814C-7.946,27.05 -7.684,26.981 -7.56,26.544C-7.354,25.815 -7.088,25.105 -6.883,24.377C-6.572,23.276 -6.882,22.319 -7.57,21.577C-8.231,21.992 -8.807,22.444 -9.456,22.741C-10.399,23.171 -10.585,23.036 -10.78,21.98C-11.074,22.127 -11.342,22.296 -11.634,22.395C-11.821,22.459 -12.061,22.476 -12.249,22.416C-13.153,22.13 -14.05,21.819 -14.943,21.497C-15.191,21.409 -15.502,21.312 -15.636,21.118C-16.191,20.314 -16.689,19.472 -17.224,18.618M-34.373,37.465C-32.228,36.637 -31.385,34.667 -30.031,33.036C-32.649,30.316 -35.276,27.585 -37.938,24.818C-38.768,25.831 -39.599,26.469 -40.96,26.296C-40.627,27.01 -40.417,27.654 -40.052,28.194C-39.602,28.858 -39.117,29.6 -38.094,29.341C-38.01,29.32 -37.829,29.429 -37.789,29.518C-37.535,30.095 -37.276,30.673 -37.084,31.27C-36.996,31.549 -37.057,31.872 -37.05,32.175C-36.968,32.188 -36.885,32.201 -36.803,32.215C-36.697,31.817 -36.614,31.41 -36.474,31.026C-36.408,30.842 -36.259,30.628 -36.094,30.567C-35.976,30.523 -35.696,30.666 -35.611,30.8C-34.415,32.681 -33.781,34.679 -34.292,36.896C-34.328,37.054 -34.338,37.218 -34.373,37.465M-13.035,-38.16C-13.13,-38.857 -13.183,-39.372 -13.271,-39.88C-13.667,-42.173 -14.509,-44.292 -16.166,-45.981C-18.11,-47.964 -20.57,-48.404 -23.169,-48.051C-24.009,-47.937 -24.804,-47.539 -25.695,-47.246C-25.143,-46.539 -24.695,-46.029 -24.326,-45.47C-24.069,-45.079 -23.846,-44.941 -23.372,-45.088C-22.953,-45.218 -22.478,-45.178 -22.026,-45.213C-22.006,-45.118 -21.985,-45.021 -21.965,-44.926C-22.487,-44.672 -23.01,-44.417 -23.566,-44.147C-23.37,-43.805 -23.226,-43.555 -23.115,-43.361C-22.4,-43.508 -21.767,-43.637 -21.136,-43.767C-21.102,-43.661 -21.069,-43.556 -21.035,-43.45C-21.199,-43.368 -21.358,-43.273 -21.528,-43.206C-21.777,-43.107 -22.044,-43.05 -22.286,-42.938C-23.094,-42.563 -22.697,-41.952 -22.479,-41.441C-22.277,-40.965 -21.848,-40.896 -21.358,-41.014C-20.602,-41.194 -19.84,-41.432 -19.07,-41.46C-17.434,-41.519 -15.851,-41.243 -14.617,-39.979C-14.105,-39.455 -13.652,-38.874 -13.035,-38.16M-5.885,24.482C-5.937,24.504 -5.987,24.526 -6.037,24.548C-6.537,25.867 -6.981,27.21 -7.548,28.498C-8.582,30.853 -10.067,32.895 -12.071,34.515C-13.024,35.283 -13.09,36.062 -12.175,36.892C-11.418,37.581 -10.925,38.417 -10.667,39.408C-10.203,41.195 -7.961,42.471 -6.182,41.99C-5.574,41.826 -5.296,41.27 -5.703,40.82C-6.573,39.855 -6.866,38.655 -7.368,37.525C-7.877,36.378 -7.554,35.577 -6.923,34.675C-6.231,33.685 -5.683,32.593 -5.068,31.547C-4.913,31.281 -4.746,31.021 -4.585,30.758C-4.501,30.766 -4.418,30.774 -4.335,30.782C-4.852,28.682 -5.369,26.582 -5.885,24.482M-12.062,-6.56C-11.995,-6.495 -11.927,-6.43 -11.861,-6.363C-10.863,-6.612 -10.044,-7.126 -9.655,-8.136C-8.727,-10.547 -8.927,-12.945 -9.896,-15.352C-10.158,-16.001 -10.442,-15.985 -10.941,-15.708C-12.298,-14.955 -13.305,-13.848 -14.238,-12.633C-15.575,-10.893 -16.265,-8.841 -17.02,-6.825C-17.364,-5.906 -17.701,-4.958 -17.406,-3.891C-16.832,-1.815 -16.336,0.281 -15.795,2.367C-15.725,2.635 -15.585,2.885 -15.437,3.241C-15.069,1.474 -14.834,-0.185 -14.363,-1.768C-13.785,-3.713 -13.025,-5.602 -12.302,-7.497C-12.169,-7.847 -11.88,-8.165 -11.587,-8.406C-11.416,-8.547 -11.093,-8.509 -10.839,-8.552C-10.908,-8.319 -10.927,-8.051 -11.056,-7.861C-11.363,-7.408 -11.724,-6.991 -12.062,-6.56M1.15,-13.848C1.058,-13.8 0.965,-13.754 0.872,-13.707C1.317,-12.185 1.818,-10.677 2.187,-9.138C2.414,-8.196 2.896,-7.77 3.819,-7.461C6.033,-6.718 8.264,-6.213 10.586,-6.238C11.991,-6.253 13.412,-6.222 14.793,-6.413C15.9,-6.566 16.766,-6.528 17.596,-5.609C18.116,-5.032 19.105,-5.21 19.477,-5.892C19.731,-6.357 19.685,-6.979 19.156,-7.425C19.022,-7.539 18.994,-7.777 18.832,-8.161C19.247,-8.02 19.44,-7.924 19.641,-7.892C20.362,-7.776 21.09,-7.605 21.807,-7.62C22.105,-7.626 22.385,-8.048 22.672,-8.28C22.435,-8.466 22.212,-8.675 21.957,-8.83C21.495,-9.113 20.985,-9.325 20.545,-9.636C19.172,-10.607 18.81,-10.668 17.624,-9.786C17.027,-9.34 16.382,-9.278 15.686,-9.294C15.218,-9.305 14.749,-9.331 14.281,-9.326C12.314,-9.303 10.373,-9.54 8.518,-10.242C6.065,-11.169 3.525,-11.931 1.472,-13.709C1.388,-13.782 1.259,-13.802 1.15,-13.848M-35.485,-24.988C-35.208,-25.082 -35.012,-25.177 -34.804,-25.212C-34.583,-25.25 -34.272,-25.325 -34.144,-25.216C-34.009,-25.1 -33.988,-24.777 -34.015,-24.559C-34.05,-24.273 -34.212,-24.006 -34.267,-23.719C-34.453,-22.748 -34.165,-22.47 -33.249,-22.747C-32.791,-22.886 -32.539,-22.781 -32.456,-22.286C-32.372,-21.775 -32.271,-21.266 -32.164,-20.759C-32.082,-20.371 -31.851,-20.303 -31.504,-20.443C-30.593,-20.809 -30.61,-20.797 -30.249,-19.811C-30.18,-19.623 -29.794,-19.343 -29.748,-19.375C-28.988,-19.914 -28.794,-19.418 -28.558,-18.8C-28.22,-17.914 -27.598,-17.784 -26.896,-18.332C-26.737,-18.456 -26.347,-18.478 -26.178,-18.368C-25.645,-18.021 -25.18,-17.812 -24.682,-18.377C-24.621,-18.445 -24.408,-18.38 -24.265,-18.376C-23.297,-18.342 -22.326,-18.268 -21.361,-18.297C-21.021,-18.308 -20.658,-18.527 -20.378,-18.743C-20.227,-18.862 -20.122,-19.202 -20.178,-19.394C-20.353,-20.001 -20.113,-20.167 -19.564,-20.127C-19.13,-20.095 -18.863,-20.184 -19.142,-20.709C-19.321,-21.046 -19.223,-21.28 -18.808,-21.318C-18.649,-21.333 -18.492,-21.379 -18.218,-21.434C-18.41,-21.832 -18.589,-22.145 -18.713,-22.478C-18.794,-22.695 -18.795,-22.939 -18.833,-23.172C-18.606,-23.178 -18.378,-23.207 -18.153,-23.184C-17.986,-23.166 -17.827,-23.066 -17.658,-23.027C-17.161,-22.913 -16.79,-23.027 -16.86,-23.622C-16.901,-23.963 -16.965,-24.476 -17.182,-24.589C-17.627,-24.821 -18.282,-25.064 -18.677,-24.902C-20.26,-24.251 -21.773,-23.963 -23.312,-25.058C-23.385,-25.111 -23.5,-25.144 -23.587,-25.134C-24.602,-25.021 -25.557,-24.765 -26.378,-24.026C-26.177,-23.905 -26.025,-23.815 -25.759,-23.655C-26.315,-23.393 -26.768,-23.18 -27.22,-22.966C-27.18,-22.866 -27.139,-22.768 -27.099,-22.668C-26.673,-22.816 -26.252,-22.975 -25.823,-23.109C-25.594,-23.181 -25.353,-23.213 -25.118,-23.263C-25.189,-23.026 -25.21,-22.754 -25.342,-22.56C-25.598,-22.184 -25.959,-21.876 -26.19,-21.487C-26.287,-21.326 -26.164,-21.031 -26.142,-20.797C-25.934,-20.819 -25.68,-20.775 -25.527,-20.877C-25.222,-21.083 -24.981,-21.378 -24.696,-21.617C-24.568,-21.725 -24.401,-21.788 -24.25,-21.872C-24.162,-21.711 -24.018,-21.557 -23.997,-21.39C-23.969,-21.163 -24.037,-20.929 -24.086,-20.509C-23.291,-21.456 -23.042,-21.403 -22.113,-20.183C-22.417,-20.141 -22.648,-20.094 -22.88,-20.082C-23.042,-20.074 -23.266,-20.192 -23.36,-20.12C-24.027,-19.612 -24.536,-19.861 -24.969,-20.478C-25.539,-20.25 -26.157,-19.777 -26.613,-20.406C-26.915,-20.824 -26.909,-21.461 -27.059,-22.078C-27.263,-22.222 -27.616,-22.472 -27.968,-22.722C-28.206,-22.89 -28.423,-23.133 -28.686,-23.213C-30.677,-23.817 -32.28,-24.896 -33.225,-26.823C-33.326,-27.031 -33.456,-27.224 -33.673,-27.595C-34.158,-26.54 -35.635,-26.466 -35.485,-24.988M-12.45,14.994C-11.558,14.071 -10.665,14.328 -9.808,14.809C-9.243,15.126 -8.935,14.834 -8.623,14.47C-8.284,14.072 -8.53,13.733 -8.785,13.41C-9.361,12.682 -10.093,12.19 -10.992,11.961C-11.642,11.797 -12.3,11.655 -12.939,11.451C-13.379,11.309 -13.713,11.071 -13.341,10.521C-13.247,10.384 -13.291,10.069 -13.386,9.894C-15.04,6.863 -16.399,3.723 -17.144,0.353C-17.321,-0.451 -17.504,-1.254 -17.684,-2.056C-17.763,-2.049 -17.842,-2.041 -17.92,-2.032C-17.903,-1.253 -17.855,-0.471 -17.874,0.308C-17.933,2.801 -18.038,5.291 -18.077,7.785C-18.085,8.244 -17.94,8.74 -17.749,9.168C-17.143,10.524 -16.474,11.851 -15.858,13.202C-15.785,13.365 -15.819,13.671 -15.93,13.801C-16.751,14.768 -16.769,15.87 -16.494,17.036C-15.757,17.102 -15.402,17.491 -15.299,18.379C-15.224,19.02 -15.203,19.667 -15.122,20.307C-15.102,20.464 -14.94,20.606 -14.832,20.773C-14.026,19.957 -14.106,18.62 -14.761,17.634C-15.058,17.184 -15.055,16.923 -14.476,16.773C-13.749,17.787 -13.386,18.861 -13.585,20.114C-13.635,20.435 -13.391,20.81 -13.281,21.16C-13.005,20.951 -12.718,20.754 -12.458,20.526C-12.378,20.454 -12.322,20.298 -12.335,20.188C-12.459,19.129 -11.959,18.024 -12.645,16.998C-12.715,16.891 -12.596,16.661 -12.564,16.488C-12.416,16.549 -12.177,16.573 -12.134,16.677C-11.892,17.255 -11.652,17.843 -11.501,18.447C-11.37,18.969 -11.359,19.517 -11.292,20.084C-10.449,19.828 -10.016,19.38 -10.058,18.606C-10.106,17.695 -10.183,16.784 -10.287,15.877C-10.348,15.359 -10.66,15.117 -11.218,15.139C-11.625,15.155 -12.04,15.047 -12.45,14.994M-28.386,35.156C-28.011,36.145 -27.837,36.967 -27.414,37.634C-26.719,38.729 -26.364,39.856 -26.145,41.132C-25.74,43.502 -25.726,45.868 -25.867,48.218C-25.983,50.14 -26.444,52.032 -26.76,53.936C-26.774,54.023 -26.84,54.124 -26.913,54.169C-27.993,54.84 -28.474,55.946 -28.665,57.09C-28.938,58.716 -28.595,59.482 -27.257,60.059C-26.529,60.374 -25.878,61.038 -25.367,61.683C-24.568,62.693 -23.914,63.818 -23.201,64.897C-22.604,65.799 -21.544,66.137 -20.55,65.831C-19.807,65.603 -19.037,65.421 -18.265,65.334C-17.4,65.237 -17.031,64.95 -16.705,64.044C-16.416,63.246 -16.999,62.952 -17.445,62.532C-17.946,62.059 -18.501,61.601 -18.867,61.033C-19.849,59.506 -20.756,57.927 -21.666,56.354C-21.911,55.933 -22.191,55.467 -22.23,55.006C-22.321,53.949 -22.344,52.877 -22.268,51.823C-22.055,48.876 -21.552,45.952 -21.801,42.972C-21.827,42.677 -21.907,42.324 -22.091,42.111C-23.96,39.958 -25.853,37.83 -27.745,35.699C-27.886,35.541 -28.069,35.422 -28.386,35.156M-4.771,46.387C-4.757,47.739 -4.246,48.591 -3.304,48.895C-2.355,49.202 -1.674,49.779 -1.078,50.563C-0.149,51.784 0.991,52.649 2.646,52.488C3.024,52.451 3.438,52.535 3.81,52.65C5.021,53.019 5.525,52.846 6.242,51.792C6.54,51.353 6.845,50.904 7.224,50.539C7.539,50.236 7.949,49.945 7.641,49.517C7.441,49.24 6.964,49.036 6.606,49.016C5.813,48.974 5.172,48.725 4.62,48.143C3.641,47.114 2.634,46.113 1.652,45.086C1.528,44.958 1.413,44.741 1.424,44.576C1.569,42.517 1.809,40.463 1.88,38.401C1.956,36.17 1.995,33.924 1.842,31.693C1.668,29.156 1.296,26.627 0.949,24.101C0.646,21.887 0.02,19.758 -1.001,17.733C-1.277,17.184 -1.662,17.181 -2.015,17.327C-3.548,17.961 -5.069,18.625 -6.558,19.35C-7.39,19.756 -7.501,20.331 -6.963,21.094C-5.887,22.622 -5.14,24.3 -4.663,26.079C-3.962,28.691 -3.57,31.349 -3.42,34.048C-3.219,37.678 -3.336,41.254 -4.406,44.734C-4.599,45.362 -4.693,46.023 -4.771,46.387M-23.934,4.739C-23.888,4.789 -23.843,4.841 -23.797,4.892C-25.775,8.93 -28.672,11.901 -33.419,12.899C-31.855,12.991 -30.484,13.79 -28.844,12.971C-27.08,12.09 -25.679,11.003 -24.737,9.296C-24.554,8.964 -24.315,8.661 -24.102,8.346C-24.047,8.386 -23.993,8.428 -23.939,8.468C-24.296,10.627 -25.842,11.936 -27.386,13.278C-25.017,12.95 -22.695,12.613 -20.674,11.241C-19.708,10.583 -19.099,9.758 -19.021,8.616C-18.849,6.034 -18.657,3.447 -18.636,0.858C-18.61,-2.327 -18.74,-5.516 -18.825,-8.703C-18.861,-10.085 -19.245,-11.402 -19.696,-12.713C-19.923,-10.73 -20.178,-8.798 -20.358,-6.857C-20.54,-4.89 -21.014,-3.015 -21.771,-1.212C-21.492,-3.478 -21.111,-5.724 -20.818,-7.982C-20.52,-10.271 -20.25,-12.569 -20.931,-14.871C-21.116,-15.495 -21.377,-16.036 -22.095,-16.483C-22.01,-15.859 -21.913,-15.404 -21.893,-14.95C-21.805,-12.917 -22.264,-10.973 -22.919,-9.099C-24.226,-5.36 -25.976,-1.827 -28.438,1.269C-30.129,3.395 -31.661,5.687 -33.837,7.386C-35.025,8.312 -36.235,9.212 -37.47,10.076C-37.842,10.335 -38.332,10.494 -38.893,10.058C-38.031,9.584 -37.247,9.154 -36.34,8.656C-37.741,8.313 -38.153,7.941 -38.336,7.046C-38.849,8.042 -39.361,9.039 -39.854,9.995C-38.187,11.041 -36.756,12.307 -34.856,12.446C-34.566,12.258 -34.26,12.134 -33.94,12.082C-33.556,12.02 -33.15,12.067 -32.772,11.984C-30.195,11.416 -28.207,9.909 -26.512,7.996C-25.594,6.962 -24.789,5.828 -23.934,4.739M-33.214,-19.384C-32.74,-18.467 -32.973,-17.644 -33.398,-16.828C-33.771,-16.109 -34.11,-15.371 -34.522,-14.524C-33.348,-14.93 -32.347,-15.327 -31.316,-15.618C-29.826,-16.038 -29.292,-16.904 -29.671,-18.616C-30.731,-18.236 -30.855,-19.133 -31.144,-19.788C-32.45,-19.622 -32.749,-19.766 -32.913,-20.628C-32.946,-20.798 -32.947,-20.974 -32.977,-21.144C-33.061,-21.614 -33.193,-21.946 -33.823,-21.935C-34.626,-21.92 -35.031,-22.412 -35.039,-23.226C-35.042,-23.589 -34.983,-23.952 -34.952,-24.316C-35.962,-24.532 -35.944,-24.534 -36.158,-25.584C-36.192,-25.747 -36.458,-25.953 -36.644,-25.991C-38.25,-26.313 -38.592,-26.632 -38.964,-28.26C-39.338,-29.895 -38.174,-31.325 -36.508,-31.191C-35.921,-31.144 -35.348,-30.88 -34.654,-30.682C-34.497,-31.294 -34.362,-31.988 -34.142,-32.65C-33.25,-35.339 -31.918,-37.749 -29.708,-39.579C-28.178,-40.845 -26.492,-41.701 -24.396,-41.488C-24.088,-41.457 -23.774,-41.484 -23.419,-41.484C-23.672,-43.029 -24.366,-44.276 -25.279,-45.365C-25.956,-46.17 -26.728,-47.056 -27.646,-47.461C-28.975,-48.047 -30.448,-47.922 -31.85,-47.434C-33.75,-46.774 -35.266,-45.576 -36.702,-44.231C-39.063,-42.02 -40.233,-39.189 -40.602,-36.047C-40.792,-34.427 -40.56,-32.736 -40.418,-31.083C-40.261,-29.26 -39.934,-27.448 -39.779,-25.624C-39.565,-23.094 -39.719,-20.584 -40.46,-18.16C-40.858,-16.859 -41.508,-15.621 -41.157,-14.176C-41.129,-14.06 -41.176,-13.931 -41.173,-13.808C-41.147,-12.656 -41.135,-11.504 -41.072,-10.354C-41.059,-10.118 -40.845,-9.888 -40.723,-9.655L-40.47,-9.662C-40.022,-12.983 -38.809,-15.939 -36.755,-18.493C-36.642,-18.444 -36.528,-18.396 -36.414,-18.348C-37.648,-15.577 -39.517,-13.046 -39.786,-9.821C-38.692,-10.915 -37.624,-11.879 -36.689,-12.96C-36.229,-13.491 -35.665,-13.889 -35.324,-14.629C-34.604,-16.195 -33.466,-17.562 -33.214,-19.384M-40.075,10.51C-40.307,11.604 -40.492,12.534 -40.706,13.455C-40.78,13.768 -41.049,14.071 -41.018,14.361C-40.946,15.052 -40.761,15.735 -40.582,16.412C-40.565,16.476 -40.271,16.506 -40.109,16.497C-38.896,16.427 -37.867,17.096 -37.649,18.289C-37.446,19.397 -37.429,20.533 -37.323,21.657C-37.31,21.788 -37.281,21.951 -37.197,22.041C-34.558,24.896 -31.912,27.744 -29.266,30.59C-28.832,31.057 -28.389,31.515 -27.946,31.982C-26.815,30.906 -25.857,29.75 -24.213,29.685C-22.591,29.621 -21.211,30.012 -20.482,31.804C-19.906,30.868 -19.559,29.984 -19.654,29.039C-19.862,26.922 -20.216,24.826 -21.395,22.956C-21.485,22.812 -21.403,22.564 -21.4,22.364C-21.229,22.428 -20.978,22.441 -20.902,22.562C-20.557,23.106 -20.198,23.656 -19.963,24.249C-19.649,25.041 -19.445,25.875 -19.13,26.898C-18.979,26.323 -18.843,25.958 -18.791,25.581C-18.593,24.119 -18.426,22.651 -18.238,21.187C-17.915,18.651 -17.909,16.114 -18.491,13.593C-18.673,12.808 -19.031,12.059 -19.329,11.239C-22.537,13.612 -26.054,14.336 -29.745,14.149C-33.417,13.964 -37.037,13.348 -40.075,10.51M-38.23,21.023C-38.16,20.992 -38.091,20.963 -38.021,20.932C-38.091,20.35 -38.141,19.764 -38.233,19.184C-38.429,17.947 -39.098,17.009 -40.512,17.215C-40.958,17.28 -41.276,17.103 -41.407,16.63C-41.499,16.296 -41.681,15.979 -41.734,15.643C-42.224,12.518 -42.675,9.472 -41.461,6.339C-40.24,3.189 -38.965,0.112 -37.016,-2.637C-36.481,-3.392 -35.775,-4.027 -35.116,-4.75C-34.418,-3.843 -35.223,-3.634 -35.477,-3.225C-35.79,-2.722 -36.345,-2.263 -36.41,-1.731C-36.59,-0.225 -36.574,1.31 -36.633,2.832C-36.663,3.581 -36.633,4.338 -36.731,5.076C-36.809,5.671 -37.058,6.238 -37.195,6.827C-37.37,7.585 -36.917,8.059 -36.195,7.744C-35.196,7.308 -34.172,6.814 -33.359,6.114C-32.386,5.278 -31.612,4.209 -30.775,3.222C-27.157,-1.052 -24.561,-5.882 -23.081,-11.326C-22.533,-13.341 -22.478,-15.335 -23.142,-17.361C-23.637,-17.406 -24.217,-17.634 -24.585,-17.452C-25.312,-17.089 -25.893,-17.162 -26.504,-17.675C-27.171,-16.869 -27.961,-17.33 -28.738,-17.48C-28.843,-17.14 -28.948,-16.84 -29.029,-16.535C-29.279,-15.584 -29.747,-14.889 -30.845,-14.806C-31.258,-14.774 -31.66,-14.624 -32.061,-14.51C-35.027,-13.667 -37.162,-11.684 -39.003,-9.37C-40.185,-7.885 -41.21,-6.27 -42.262,-4.684C-44.532,-1.266 -45.545,2.624 -46.03,6.656C-46.21,8.162 -45.945,9.737 -45.829,11.278C-45.716,12.776 -45.58,14.279 -44.746,15.627C-44.665,15.757 -44.783,16.083 -44.905,16.246C-45.336,16.828 -45.838,17.359 -46.26,17.949C-46.848,18.77 -46.951,19.71 -46.737,20.7C-46.468,21.951 -46.469,21.951 -45.128,22.854C-45.389,21.977 -45.636,21.127 -45.057,20.175C-44.516,21.723 -44.82,23.574 -43.083,24.364C-43.109,23.214 -43.133,22.149 -43.157,21.083C-42.942,21.229 -42.881,21.398 -42.84,21.572C-42.638,22.43 -42.465,23.294 -42.234,24.145C-42.119,24.565 -41.844,24.834 -41.34,24.667C-41.224,24.629 -41.071,24.697 -40.935,24.717C-40.985,24.772 -41.037,24.827 -41.088,24.883C-40.914,25.098 -40.781,25.411 -40.559,25.509C-40.033,25.739 -38.964,25.247 -38.77,24.665C-38.51,23.886 -39.492,23.981 -39.594,23.601C-39.669,23.815 -39.76,24.078 -39.851,24.341C-40.082,24.129 -40.46,23.948 -40.518,23.7C-40.856,22.246 -40.841,20.805 -40.147,19.455C-39.944,19.058 -39.739,18.946 -39.429,19.434C-39.072,19.991 -38.634,20.496 -38.23,21.023M2.395,18.61C2.298,17.614 2.134,16.472 2.089,15.327C1.958,11.988 1.859,8.647 1.778,5.307C1.73,3.259 1.554,1.185 1.766,-0.835C2.098,-3.983 2.248,-7.047 1.066,-10.121C0.574,-11.4 0.555,-12.843 0.187,-14.177C-0.213,-15.621 -1.151,-16.67 -2.513,-17.243C-3.232,-16.015 -2.637,-14.846 -2.503,-13.673C-2.364,-12.449 -2.171,-11.223 -2.161,-10.001C-2.154,-9.155 -3.008,-8.847 -3.616,-9.455C-4.317,-10.154 -5.006,-10.907 -5.515,-11.745C-6.302,-13.041 -6.837,-14.489 -7.656,-15.761C-8.367,-16.868 -8.636,-17.876 -8.304,-19.168C-8.058,-20.122 -7.912,-21.22 -8.8,-22.111C-8.947,-22.257 -8.893,-22.635 -8.872,-22.899C-8.864,-23.002 -8.704,-23.129 -8.586,-23.169C-8.505,-23.195 -8.324,-23.116 -8.277,-23.035C-7.867,-22.334 -7.477,-21.621 -7.131,-21.003C-7.276,-20.698 -7.438,-20.487 -7.473,-20.254C-7.58,-19.549 -7.714,-18.836 -7.688,-18.128C-7.668,-17.575 -7.457,-17.013 -7.266,-16.477C-7.162,-16.185 -6.901,-15.949 -6.747,-15.668C-5.798,-13.953 -5.167,-12.051 -3.715,-10.635C-3.485,-10.411 -3.214,-10.23 -2.798,-9.901C-2.814,-10.592 -2.772,-11.039 -2.842,-11.471C-3.239,-13.896 -3.753,-16.29 -3.502,-18.781C-3.351,-20.279 -3.263,-20.718 -1.914,-21.322C-1.6,-21.461 -1.295,-21.619 -0.976,-21.746C2.157,-23.006 4.568,-26.656 3.914,-30.517C3.746,-31.517 3.554,-32.515 3.349,-33.508C3.121,-34.615 2.702,-35.627 1.949,-36.521C1.437,-37.128 0.859,-37.206 0.23,-36.977C-0.168,-36.831 -0.485,-36.488 -0.86,-36.272C-1.196,-36.08 -1.552,-35.907 -1.919,-35.78C-2.9,-35.443 -4.058,-35.357 -4.845,-34.771C-6.491,-33.542 -7.43,-31.755 -7.791,-29.695C-7.838,-29.434 -7.85,-29.136 -7.773,-28.884C-7.392,-27.625 -7.74,-26.499 -8.251,-25.385C-8.721,-24.36 -9.28,-23.326 -9.108,-22.15C-8.832,-20.27 -9.053,-18.463 -9.54,-16.673C-9.57,-16.561 -9.569,-16.414 -9.52,-16.312C-8.859,-14.948 -8.723,-13.481 -8.473,-12.021C-8.248,-10.712 -8.421,-9.5 -8.784,-8.31C-9.294,-6.641 -10.524,-5.728 -12.268,-5.484C-12.003,-4.438 -11.201,-4.027 -10.141,-3.611C-10.537,-3.448 -10.84,-3.228 -10.938,-3.298C-11.543,-3.734 -12.103,-4.234 -12.727,-4.753C-13.009,-3.829 -13.368,-2.895 -13.575,-1.924C-13.967,-0.1 -14.275,1.745 -14.609,3.583C-14.841,4.862 -14.45,6.002 -13.809,7.054C-13.511,6.744 -13.246,6.468 -12.98,6.192C-12.887,6.256 -12.795,6.319 -12.701,6.383C-12.829,6.725 -12.913,7.093 -13.094,7.404C-13.363,7.869 -13.456,8.267 -13.097,8.764C-12.747,9.247 -12.412,9.775 -12.235,10.332C-12.069,10.853 -11.78,11.032 -11.307,11.098C-10.215,11.25 -9.309,11.705 -8.537,12.558C-7.444,13.766 -7.377,14.227 -8.457,15.335C-8.622,15.505 -8.884,15.582 -9.05,15.751C-9.202,15.908 -9.38,16.13 -9.379,16.324C-9.373,17.063 -9.26,17.804 -9.26,18.542C-9.261,19.927 -10.248,20.715 -11.178,20.899C-11.824,21.026 -11.838,20.991 -12.014,21.683C-10.399,21.105 -10.079,21.171 -9.726,22.158C-8.547,21.662 -8.332,21.356 -7.988,20.178C-7.86,19.74 -7.59,19.204 -7.222,19.006C-5.683,18.176 -4.081,17.455 -2.5,16.701C-2.416,16.662 -2.303,16.686 -2.209,16.664C-0.12,16.162 1.064,17.758 2.395,18.61M-18.558,-31.215C-18.544,-31.105 -18.53,-30.997 -18.516,-30.888C-17.509,-29.248 -17.173,-27.51 -17.737,-25.692C-17.362,-25.514 -17.017,-25.435 -16.792,-25.226C-16.293,-24.759 -15.854,-24.938 -15.397,-25.211C-14.549,-25.72 -13.958,-26.451 -13.604,-27.37C-12.958,-29.04 -12.727,-30.786 -12.82,-32.583C-12.911,-34.348 -12.855,-36.056 -13.939,-37.732C-14.819,-39.091 -15.747,-40.046 -17.284,-40.447C-18.741,-40.827 -20.128,-40.518 -21.521,-40.192C-21.692,-40.152 -21.908,-40.112 -22.055,-40.18C-24.391,-41.248 -26.552,-40.874 -28.536,-39.473C-31.092,-37.665 -32.57,-35.082 -33.485,-32.134C-33.817,-31.062 -33.938,-29.985 -33.332,-28.928C-33.247,-28.779 -33.217,-28.6 -33.15,-28.439C-32.305,-26.431 -31.069,-24.828 -28.867,-24.159C-28.036,-23.907 -27.356,-23.968 -26.699,-24.569C-25.766,-25.419 -24.572,-25.736 -23.343,-25.914C-23.141,-25.943 -22.854,-25.835 -22.695,-25.692C-21.686,-24.788 -20.612,-24.993 -19.516,-25.377C-18.508,-25.73 -18.259,-26.554 -18.306,-27.497C-18.396,-29.29 -19.093,-30.852 -20.285,-32.215C-20.492,-32.452 -20.603,-32.771 -20.76,-33.054C-20.683,-33.111 -20.608,-33.169 -20.533,-33.226C-20.321,-33.085 -20.071,-32.978 -19.905,-32.796C-19.438,-32.286 -19.004,-31.744 -18.558,-31.215M-20.916,33.333C-20.835,34.533 -20.741,35.731 -20.675,36.93C-20.633,37.692 -20.677,38.458 -20.597,39.214C-20.552,39.645 -20.412,40.112 -20.179,40.476C-19.721,41.187 -19.142,41.82 -18.662,42.519C-18.308,43.037 -18.096,43.638 -18.664,44.123C-19.193,44.575 -19.718,44.305 -20.202,43.931C-20.375,43.796 -20.559,43.677 -20.762,43.535C-20.816,43.629 -20.874,43.683 -20.878,43.743C-21.027,46.028 -21.147,48.315 -21.328,50.596C-21.38,51.243 -21.108,51.632 -20.623,51.952C-20.395,52.102 -20.148,52.226 -19.9,52.339C-18.666,52.897 -18.476,54.004 -19.526,54.837C-19.97,55.189 -20.533,55.392 -21.121,55.705C-21.08,55.782 -20.986,55.967 -20.882,56.144C-20.009,57.622 -19.172,59.121 -18.242,60.563C-17.832,61.201 -17.276,61.766 -16.714,62.287C-15.777,63.156 -15.613,63.567 -15.977,64.613C-16.338,65.646 -17.068,66.183 -18.102,66.255C-18.635,66.292 -19.207,66.323 -19.678,66.533C-21.689,67.436 -23.359,66.805 -24.409,64.494C-25.211,62.729 -26.335,61.259 -28.244,60.501C-29.247,60.103 -29.522,59.155 -29.54,58.163C-29.565,56.833 -29.189,55.626 -28.345,54.609C-27.933,54.113 -27.96,53.815 -28.398,53.247C-29.249,52.149 -30.297,51.367 -31.433,50.629C-32.703,49.803 -32.871,48.419 -31.847,47.334C-31.331,46.787 -30.695,46.356 -30.148,45.834C-28.815,44.561 -27.528,43.23 -27.206,41.311C-27.094,40.635 -27.081,39.849 -27.316,39.216C-27.849,37.779 -28.575,36.41 -29.194,35.001C-29.285,34.796 -29.216,34.525 -29.224,34.212C-29.682,33.913 -30.084,34.027 -30.456,34.66C-31.455,36.361 -32.832,37.608 -34.745,38.221C-34.996,38.302 -35.211,38.497 -35.465,38.556C-35.618,38.593 -35.842,38.503 -35.972,38.396C-36.024,38.354 -35.961,38.044 -35.862,37.964C-34.266,36.666 -34.584,33.374 -35.64,32.066C-36.098,32.467 -36.543,32.911 -37.048,33.274C-37.251,33.421 -37.582,33.391 -37.855,33.441C-37.864,33.209 -37.885,32.978 -37.878,32.747C-37.862,32.181 -37.751,31.604 -37.841,31.054C-37.892,30.737 -38.249,30.228 -38.489,30.21C-39.922,30.107 -40.514,29.049 -41.084,28.007C-41.36,27.501 -41.396,26.872 -41.597,26.318C-41.697,26.039 -41.867,25.701 -42.103,25.566C-43.259,24.909 -44.488,24.378 -45.609,23.669C-46.466,23.127 -47.328,23.279 -48.118,23.466C-49.398,23.77 -50.61,24.332 -51.868,24.736C-52.151,24.827 -52.501,24.724 -52.837,24.562C-51.096,23.29 -49.022,22.997 -47.091,22.435C-47.277,21.685 -47.493,20.964 -47.63,20.231C-47.785,19.401 -47.668,18.601 -47.185,17.894C-46.718,17.213 -46.231,16.545 -45.79,15.849C-45.691,15.695 -45.672,15.425 -45.733,15.243C-46.509,12.879 -46.794,10.43 -46.731,7.999C-46.68,6.045 -46.292,4.091 -45.888,2.175C-45.061,-1.745 -43.17,-5.16 -40.809,-8.325C-40.75,-8.403 -40.705,-8.489 -40.638,-8.595C-42.115,-9.566 -41.87,-11.108 -42.028,-12.514C-42.053,-12.73 -41.931,-12.974 -41.995,-13.17C-42.547,-14.852 -41.89,-16.351 -41.331,-17.824C-40.792,-19.25 -40.654,-20.721 -40.507,-22.218C-40.242,-24.903 -40.758,-27.543 -41.022,-30.198C-41.137,-31.348 -41.489,-32.49 -41.512,-33.636C-41.553,-35.737 -41.203,-37.771 -40.48,-39.769C-39.166,-43.399 -36.5,-45.746 -33.31,-47.559C-31.255,-48.73 -29.003,-48.897 -26.697,-47.885C-26.328,-47.723 -25.72,-47.877 -25.321,-48.075C-22.343,-49.559 -19.471,-49.21 -16.676,-47.45C-14.95,-46.363 -13.962,-44.682 -13.268,-42.849C-12.792,-41.59 -12.504,-40.261 -12.133,-38.968C-11.841,-39.299 -11.495,-39.716 -11.125,-40.109C-10.062,-41.237 -8.687,-41.682 -7.174,-41.831C-6.148,-41.931 -5.123,-42.182 -4.101,-42.139C-2.364,-42.066 -0.589,-42.077 1.036,-41.212C1.629,-40.896 2.245,-40.626 2.843,-40.318C4.603,-39.415 5.551,-37.904 5.922,-36.038C6.147,-34.905 6.206,-33.744 6.358,-32.598C6.473,-31.742 6.537,-30.868 6.768,-30.039C7.357,-27.916 7.369,-25.921 6.16,-24.005C5.23,-22.53 4.955,-20.929 5.738,-19.211C6.234,-18.122 5.854,-17.091 5.448,-16.066C5.218,-15.489 5.155,-14.844 4.976,-14.243C4.907,-14.01 4.725,-13.813 4.596,-13.601C4.427,-13.815 4.092,-14.057 4.119,-14.24C4.218,-14.936 4.318,-15.675 4.635,-16.281C5.154,-17.275 5.207,-18.264 4.836,-19.279C4.184,-21.061 4.495,-22.695 5.398,-24.238C6.347,-25.861 6.617,-27.535 6.06,-29.403C5.667,-30.723 5.447,-32.068 5.499,-33.488C5.559,-35.122 4.958,-36.701 4.147,-38.158C4,-38.424 3.695,-38.617 3.44,-38.812C1.392,-40.37 -0.91,-41.258 -3.453,-41.302C-5.035,-41.329 -6.637,-41.255 -8.191,-41.006C-9.37,-40.817 -10.241,-39.952 -11.083,-39.103C-12.438,-37.739 -12.283,-36.085 -12.164,-34.361C-12.004,-32.015 -11.976,-29.65 -12.745,-27.409C-13.054,-26.512 -13.242,-25.646 -13.222,-24.69C-13.213,-24.234 -13.366,-23.622 -13.68,-23.355C-14.994,-22.238 -15.179,-20.706 -15.252,-19.158C-15.338,-17.315 -15.286,-15.462 -14.588,-13.607C-13.276,-15.144 -11.912,-16.583 -9.751,-16.979C-9.768,-17.131 -9.762,-17.324 -9.815,-17.501C-10.074,-18.353 -10.092,-19.184 -9.814,-20.032C-9.712,-20.342 -9.719,-20.728 -9.794,-21.055C-10.141,-22.586 -9.818,-23.971 -9.157,-25.341C-8.675,-26.344 -8.325,-27.359 -8.5,-28.596C-8.633,-29.543 -8.39,-30.628 -8.01,-31.516C-7.538,-32.622 -6.827,-33.645 -6.089,-34.603C-5.106,-35.881 -3.485,-36.029 -2.082,-36.554C-1.819,-36.653 -1.572,-36.795 -1.32,-36.921C-0.715,-37.223 -0.112,-37.532 0.496,-37.829C0.58,-37.869 0.734,-37.824 0.779,-37.88C1.5,-38.79 1.751,-37.992 2.166,-37.517C4.78,-34.524 4.989,-30.971 4.654,-27.357C4.493,-25.622 3.423,-24.258 2.258,-22.985C1.123,-21.745 -0.395,-21.196 -1.833,-20.482C-2.442,-20.18 -2.914,-18.682 -2.561,-18.109C-2.469,-17.96 -2.257,-17.864 -2.082,-17.785C-0.955,-17.275 -0.124,-16.46 0.572,-15.441C0.897,-14.967 1.4,-14.572 1.894,-14.256C4.251,-12.744 6.78,-11.612 9.445,-10.778C11.776,-10.05 14.147,-10.129 16.518,-10.16C16.76,-10.163 17.011,-10.353 17.229,-10.499C18.033,-11.04 18.844,-11.409 19.849,-10.914C20.094,-10.793 20.433,-10.861 20.728,-10.866C22.21,-10.887 23.69,-10.929 25.173,-10.933C25.483,-10.934 25.837,-10.878 26.1,-10.725C26.672,-10.392 27.408,-10.065 27.279,-9.254C27.155,-8.47 26.482,-8.071 25.761,-7.946C25.259,-7.858 25.077,-7.674 24.972,-7.198C24.9,-6.867 24.612,-6.59 24.428,-6.284C24.346,-6.147 24.216,-5.998 24.222,-5.856C24.27,-4.647 23.571,-4.03 22.516,-3.806C21.517,-3.595 20.534,-2.927 19.456,-3.6C18.493,-4.202 17.546,-4.829 16.581,-5.426C16.387,-5.547 16.143,-5.658 15.924,-5.658C13.46,-5.651 10.988,-5.472 8.534,-5.649C6.855,-5.769 5.199,-6.376 3.534,-6.769C3.302,-6.823 3.073,-6.891 2.771,-6.974C2.792,-6.05 2.867,-5.211 2.818,-4.383C2.714,-2.661 2.442,-0.948 2.426,0.776C2.406,2.996 2.581,5.222 2.651,7.446C2.736,10.181 2.762,12.918 2.892,15.652C2.938,16.625 3.243,17.59 3.366,18.567C3.42,18.993 3.467,19.583 3.234,19.826C3.035,20.033 2.429,19.848 1.986,19.744C1.187,20.316 1.087,21.086 1.32,22.161C1.812,24.429 2.068,26.744 2.422,29.04C2.432,29.11 2.466,29.177 2.559,29.079C3.45,29.398 4.34,29.713 5.227,30.04C5.338,30.083 5.458,30.163 5.527,30.258C6.504,31.614 8.079,32.093 9.394,32.951C9.859,33.253 10.297,33.533 9.939,34.277C9.76,34.177 9.58,34.083 9.405,33.982C8.483,33.453 7.551,32.936 6.643,32.382C6.302,32.174 5.927,31.933 5.717,31.612C4.978,30.483 3.803,29.859 2.617,30.088C2.634,30.836 2.623,31.596 2.674,32.353C2.874,35.362 2.799,38.355 2.425,41.335C2.035,44.434 2.342,45.122 4.826,47.265C5.458,47.811 6.101,48.165 6.942,48.216C7.6,48.256 8.193,48.48 8.37,49.272C8.599,50.294 8.461,50.688 7.715,51.255C7.418,51.48 7.18,51.813 6.986,52.14C6.198,53.473 5.079,53.893 3.596,53.401C3.349,53.319 3.065,53.262 2.816,53.3C0.993,53.577 -0.36,52.731 -1.462,51.392C-2.042,50.687 -2.599,50 -3.508,49.734C-5.015,49.291 -5.935,47.637 -5.453,45.838C-5.027,44.251 -4.524,42.658 -4.364,41.031C-4.144,38.809 -4.211,36.553 -4.17,34.311C-4.158,33.655 -4.195,32.996 -4.21,32.339C-4.274,32.328 -4.337,32.317 -4.4,32.307C-4.944,33.152 -5.389,34.086 -6.054,34.822C-7.2,36.089 -6.684,37.34 -6.131,38.609C-5.918,39.101 -5.588,39.567 -5.233,39.978C-4.716,40.575 -4.642,41.233 -4.842,41.915C-5.036,42.576 -5.569,42.88 -6.25,42.892C-7.921,42.922 -9.549,42.725 -10.694,41.297C-11.081,40.814 -11.292,40.155 -11.467,39.546C-11.707,38.705 -12.055,38.002 -12.804,37.469C-13.871,36.71 -13.889,35.171 -12.908,34.346C-10.845,32.61 -9.193,30.553 -8.116,28.056C-8.068,27.948 -8.048,27.827 -8.016,27.716C-9.135,26.823 -10.455,26.515 -11.762,26.285C-13.559,25.968 -15.38,25.795 -17.192,25.573C-17.729,25.508 -18.037,25.718 -18.16,26.297C-18.482,27.795 -18.807,29.299 -19.252,30.761C-19.489,31.539 -19.961,32.247 -20.369,32.961C-20.473,33.142 -20.744,33.224 -20.939,33.351C-21.086,32.723 -20.929,31.998 -21.469,31.493C-21.559,31.527 -21.649,31.561 -21.739,31.595C-21.465,32.174 -21.191,32.754 -20.916,33.333" style="fill:rgb(35,31,32);fill-rule:nonzero;"/>
                    </g>
                    <g transform="matrix(1,0,0,1,76.9225,138.881)">
                        <path d="M0,11.11C-0.248,10.228 0.059,9.434 0.375,8.639C0.934,7.234 1.565,5.853 2.02,4.414C2.489,2.93 3.286,1.733 4.467,0.753C5.408,-0.028 6.541,-0.065 7.678,-0.098C7.815,-0.102 7.964,0.108 8.108,0.218C7.957,0.354 7.825,0.575 7.653,0.607C7.196,0.693 6.712,0.651 6.259,0.742C4.767,1.042 3.921,2.117 3.327,3.387C2.927,4.245 2.707,5.19 2.384,6.089C2.137,6.777 1.858,7.454 1.586,8.132C1.287,8.88 0.989,9.627 0.672,10.366C0.547,10.659 0.376,10.931 0.226,11.212L0,11.11" style="fill:rgb(35,31,32);fill-rule:nonzero;"/>
                    </g>
                    <g transform="matrix(1,0,0,1,77.1676,137.207)">
                        <path d="M0,6.533C0.429,4.349 1.432,2.485 3.184,1.05C4.232,0.19 6.026,-0.156 7.174,0.391C6.773,0.597 6.486,0.877 6.201,0.869C4.421,0.82 3.213,1.756 2.309,3.099C1.659,4.066 1.194,5.16 0.633,6.19C0.533,6.375 0.365,6.524 0.229,6.689C0.153,6.637 0.076,6.585 0,6.533" style="fill:rgb(35,31,32);fill-rule:nonzero;"/>
                    </g>
                    <g transform="matrix(1,0,0,1,80.4965,157.76)">
                        <path d="M0,21.906C-0.243,22.205 -0.541,22.474 -0.5,22.539C-0.339,22.801 -0.098,23.114 0.163,23.176C0.323,23.214 0.574,22.831 0.785,22.638C0.56,22.429 0.335,22.219 0,21.906M6.126,-5.102L6.144,-5.441C5.193,-5.962 4.136,-6.357 3.72,-7.5C3.688,-7.584 3.382,-7.574 3.203,-7.608C3.179,-7.413 3.064,-7.17 3.141,-7.031C3.64,-6.141 4.319,-5.414 5.302,-5.066C5.544,-4.981 5.85,-5.085 6.126,-5.102M-0.558,29.871C-0.571,30.401 0.083,30.8 0.553,30.51C1.239,30.087 1.586,29.413 1.689,28.627C1.744,28.21 1.242,27.855 0.831,27.974C0.073,28.195 -0.538,29.03 -0.558,29.871M2.953,12.096C3.389,11.281 2.817,11.034 2.626,10.654C1.824,9.066 0.969,7.501 0.253,5.876C-0.22,4.802 -0.489,3.64 -0.849,2.517C-0.916,2.307 -0.935,2.062 -1.06,1.894C-1.153,1.767 -1.38,1.738 -1.548,1.665C-1.589,1.817 -1.689,1.98 -1.658,2.118C-1.538,2.674 -1.444,3.251 -1.217,3.768C-0.2,6.091 0.843,8.406 1.92,10.703C2.138,11.17 2.542,11.552 2.953,12.096M9.135,-9.223C9.139,-9.279 9.241,-9.523 9.157,-9.642C8.569,-10.49 7.959,-11.324 7.316,-12.132C7.198,-12.28 6.896,-12.282 6.679,-12.35C6.695,-12.133 6.641,-11.874 6.742,-11.704C7.132,-11.043 7.59,-10.419 7.99,-9.762C8.331,-9.201 8.511,-8.643 7.907,-8.115C7.225,-7.518 6.571,-7.435 5.917,-7.846C5.694,-7.987 5.364,-7.954 5.083,-8C5.194,-7.733 5.235,-7.385 5.43,-7.213C6.105,-6.618 6.863,-6.612 7.632,-7.02C8.47,-7.465 9.303,-7.907 9.135,-9.223M9.654,37.086C8.323,36.235 7.139,34.638 5.051,35.14C4.956,35.163 4.844,35.138 4.76,35.178C3.179,35.933 1.578,36.653 0.038,37.484C-0.33,37.681 -0.6,38.216 -0.729,38.655C-1.073,39.832 -1.287,40.139 -2.467,40.634C-2.819,39.648 -3.139,39.581 -4.753,40.159C-4.579,39.468 -4.565,39.504 -3.918,39.376C-2.989,39.193 -2.001,38.405 -2,37.019C-1.999,36.28 -2.114,35.54 -2.119,34.802C-2.121,34.606 -1.942,34.384 -1.791,34.229C-1.624,34.059 -1.363,33.982 -1.197,33.812C-0.117,32.704 -0.185,32.244 -1.277,31.035C-2.049,30.182 -2.955,29.726 -4.048,29.575C-4.519,29.51 -4.81,29.33 -4.975,28.808C-5.152,28.252 -5.488,27.723 -5.836,27.241C-6.196,26.744 -6.103,26.345 -5.833,25.88C-5.654,25.57 -5.568,25.202 -5.441,24.86C-5.534,24.797 -5.626,24.733 -5.72,24.669C-5.986,24.946 -6.252,25.222 -6.549,25.53C-7.19,24.478 -7.582,23.338 -7.349,22.061C-7.015,20.223 -6.706,18.378 -6.315,16.554C-6.107,15.583 -5.75,14.648 -5.468,13.723C-4.844,14.244 -4.284,14.744 -3.678,15.179C-3.581,15.25 -3.278,15.029 -2.882,14.866C-3.94,14.451 -4.743,14.038 -5.008,12.994C-3.265,12.75 -2.034,11.836 -1.525,10.167C-1.16,8.977 -0.989,7.764 -1.212,6.457C-1.463,4.995 -1.6,3.53 -2.259,2.165C-2.308,2.064 -2.31,1.916 -2.28,1.805C-1.794,0.013 -1.573,-1.792 -1.848,-3.672C-2.02,-4.848 -1.461,-5.882 -0.992,-6.907C-0.481,-8.022 -0.132,-9.148 -0.513,-10.408C-0.589,-10.659 -0.577,-10.957 -0.532,-11.219C-0.171,-13.278 0.769,-15.065 2.416,-16.293C3.202,-16.879 4.36,-16.966 5.341,-17.304C5.708,-17.43 6.064,-17.602 6.399,-17.796C6.775,-18.011 7.093,-18.355 7.49,-18.499C8.12,-18.728 8.698,-18.652 9.209,-18.044C9.961,-17.15 10.381,-16.139 10.609,-15.032C10.813,-14.037 11.005,-13.04 11.175,-12.041C11.827,-8.18 9.416,-4.528 6.284,-3.27C5.966,-3.142 5.66,-2.985 5.346,-2.844C3.997,-2.24 3.909,-1.802 3.759,-0.304C3.508,2.186 4.021,4.582 4.417,7.006C4.488,7.437 4.446,7.886 4.461,8.575C4.047,8.246 3.775,8.066 3.545,7.843C2.093,6.426 1.461,4.525 0.514,2.809C0.358,2.528 0.098,2.293 -0.006,1.999C-0.198,1.463 -0.407,0.902 -0.428,0.348C-0.455,-0.359 -0.319,-1.073 -0.213,-1.776C-0.178,-2.009 -0.016,-2.221 0.128,-2.526C-0.217,-3.144 -0.607,-3.857 -1.018,-4.558C-1.065,-4.64 -1.245,-4.717 -1.327,-4.691C-1.444,-4.653 -1.605,-4.524 -1.613,-4.422C-1.634,-4.157 -1.686,-3.78 -1.54,-3.633C-0.651,-2.743 -0.799,-1.646 -1.045,-0.691C-1.301,0.305 -1.199,1.132 -0.814,1.966C-0.699,2.214 -0.559,2.462 -0.396,2.716C0.423,3.988 0.958,5.436 1.744,6.732C2.254,7.571 2.944,8.323 3.643,9.022C4.251,9.629 5.106,9.321 5.099,8.477C5.089,7.254 4.896,6.027 4.756,4.805C4.623,3.63 4.028,2.461 4.746,1.235C6.108,1.807 7.047,2.856 7.446,4.3C7.814,5.634 7.834,7.077 8.325,8.356C9.508,11.43 9.358,14.494 9.027,17.643C8.814,19.663 8.99,21.735 9.038,23.785C9.118,27.125 9.218,30.464 9.348,33.803C9.393,34.949 9.558,36.091 9.654,37.086" style="fill:rgb(236,209,200);fill-rule:nonzero;"/>
                    </g>
                    <g transform="matrix(1,0,0,1,81.0493,169.118)">
                        <path d="M0,19.152C-0.47,19.442 -1.124,19.043 -1.111,18.512C-1.091,17.672 -0.48,16.837 0.278,16.616C0.689,16.496 1.191,16.852 1.136,17.269C1.033,18.055 0.686,18.728 0,19.152M-0.553,10.548C-0.218,10.86 0.007,11.07 0.232,11.279C0.021,11.473 -0.23,11.854 -0.39,11.817C-0.651,11.755 -0.892,11.442 -1.053,11.181C-1.093,11.116 -0.796,10.847 -0.553,10.548M8.486,12.425C8.437,10.377 8.261,8.303 8.474,6.284C8.805,3.136 8.955,0.071 7.773,-3.003C7.281,-4.281 7.261,-5.725 6.893,-7.059C6.494,-8.503 5.556,-9.552 4.193,-10.124C3.475,-8.897 4.07,-7.728 4.203,-6.554C4.343,-5.331 4.537,-4.105 4.546,-2.882C4.553,-2.037 3.699,-1.729 3.091,-2.336C2.391,-3.036 1.701,-3.788 1.191,-4.627C0.405,-5.922 -0.129,-7.371 -0.948,-8.642C-1.043,-8.789 -1.129,-8.933 -1.207,-9.078C-1.277,-9.08 -1.349,-9.098 -1.415,-9.151C-1.44,-9.172 -1.47,-9.183 -1.496,-9.202C-1.463,-9.084 -1.439,-8.957 -1.401,-8.841C-1.042,-7.718 -0.773,-6.558 -0.3,-5.483C0.416,-3.858 1.272,-2.292 2.073,-0.704C2.264,-0.324 2.836,-0.077 2.401,0.738C1.989,0.194 1.586,-0.189 1.367,-0.655C0.29,-2.953 -0.753,-5.267 -1.77,-7.591C-1.997,-8.108 -2.091,-8.684 -2.211,-9.24C-2.231,-9.33 -2.195,-9.431 -2.156,-9.533C-2.368,-9.599 -2.584,-9.64 -2.808,-9.651C-2.817,-9.619 -2.824,-9.586 -2.833,-9.555C-2.863,-9.443 -2.861,-9.295 -2.812,-9.193C-2.153,-7.828 -2.015,-6.363 -1.765,-4.902C-1.542,-3.594 -1.713,-2.381 -2.077,-1.192C-2.587,0.478 -3.818,1.391 -5.561,1.634C-5.295,2.68 -4.493,3.092 -3.434,3.508C-3.83,3.671 -4.134,3.89 -4.231,3.82C-4.837,3.386 -5.396,2.885 -6.021,2.365C-6.303,3.289 -6.66,4.224 -6.868,5.195C-7.259,7.02 -7.568,8.865 -7.902,10.702C-8.134,11.98 -7.742,13.12 -7.102,14.172C-6.805,13.863 -6.539,13.588 -6.273,13.311C-6.18,13.375 -6.087,13.438 -5.994,13.501C-6.121,13.844 -6.207,14.212 -6.386,14.522C-6.656,14.987 -6.749,15.385 -6.389,15.883C-6.041,16.365 -5.705,16.894 -5.527,17.45C-5.362,17.972 -5.072,18.15 -4.6,18.217C-3.508,18.368 -2.601,18.823 -1.83,19.676C-0.737,20.885 -0.669,21.346 -1.75,22.454C-1.916,22.624 -2.177,22.701 -2.343,22.871C-2.494,23.026 -2.674,23.248 -2.672,23.443C-2.667,24.181 -2.552,24.922 -2.552,25.661C-2.553,27.047 -3.542,27.834 -4.471,28.017C-5.118,28.145 -5.132,28.11 -5.306,28.801C-3.692,28.223 -3.371,28.289 -3.019,29.276C-1.84,28.78 -1.626,28.475 -1.281,27.297C-1.152,26.858 -0.883,26.323 -0.515,26.124C1.025,25.294 2.626,24.574 4.207,23.819C4.291,23.78 4.404,23.805 4.498,23.782C6.586,23.28 7.77,24.877 9.101,25.728C9.006,24.732 8.841,23.59 8.796,22.445C8.665,19.106 8.565,15.766 8.486,12.425" style="fill:rgb(238,195,134);fill-rule:nonzero;"/>
                    </g>
                    <g transform="matrix(1,0,0,1,79.9384,179.284)">
                        <path d="M0,8.236C0.02,7.396 0.631,6.561 1.389,6.34C1.8,6.221 2.302,6.575 2.247,6.992C2.144,7.779 1.797,8.452 1.111,8.876C0.641,9.166 -0.013,8.767 0,8.236M0.558,0.271C0.893,0.584 1.118,0.794 1.343,1.004C1.132,1.197 0.881,1.579 0.721,1.542C0.46,1.479 0.219,1.166 0.058,0.905C0.018,0.839 0.315,0.571 0.558,0.271M1.057,11.861C1.94,10.234 3.771,9.665 5.314,8.8C4.837,8.727 4.353,8.71 3.864,8.663C3.665,8.645 3.469,8.465 3.545,8.244C3.795,7.522 4.262,7.202 4.855,6.846C3.209,5.452 0.661,5.434 -1.343,4.807C-2.214,4.535 -4.364,4.007 -4.415,2.813C-4.481,1.303 -2.262,1.47 -1.36,1.699C-0.207,1.991 0.889,2.583 2.064,2.783C2.303,2.823 2.794,2.933 3.024,2.83C3.522,2.606 3.297,2.639 3.2,2.275C3.093,1.875 2.65,1.434 2.481,1.034C2.392,0.825 2.46,0.631 2.678,0.548C2.95,0.445 3.217,0.328 3.484,0.213C1.966,-1.072 -0.178,-1.436 -1.142,-3.357C-1.255,-3.58 -1.118,-3.85 -0.857,-3.855C0.659,-3.884 2.135,-3.487 3.64,-3.683C3.285,-4.488 2.528,-4.975 1.957,-5.629C1.446,-6.215 1.017,-6.893 0.596,-7.545C-0.076,-8.585 -0.677,-9.668 -1.254,-10.764C-1.867,-9.542 -2.971,-8.848 -4.45,-8.641C-4.184,-7.596 -3.382,-7.184 -2.322,-6.769C-2.719,-6.605 -3.023,-6.385 -3.12,-6.456C-3.726,-6.891 -4.286,-7.391 -4.91,-7.911C-5.192,-6.986 -5.549,-6.052 -5.757,-5.082C-6.148,-3.257 -6.457,-1.412 -6.791,0.426C-7.024,1.704 -6.631,2.844 -5.991,3.896C-5.694,3.587 -5.428,3.311 -5.162,3.035C-5.069,3.098 -4.976,3.162 -4.883,3.226C-5.01,3.568 -5.096,3.935 -5.275,4.246C-5.545,4.711 -5.638,5.11 -5.278,5.606C-4.93,6.089 -4.594,6.617 -4.416,7.174C-4.25,7.696 -3.961,7.875 -3.49,7.941C-2.397,8.093 -1.49,8.547 -0.719,9.4C0.374,10.609 0.441,11.069 -0.639,12.177C-0.805,12.348 -1.066,12.424 -1.232,12.595C-1.383,12.75 -1.563,12.972 -1.561,13.167C-1.556,13.906 -1.441,14.646 -1.442,15.385C-1.442,16.77 -2.431,17.558 -3.36,17.742C-4.007,17.869 -4.021,17.834 -4.195,18.525C-2.581,17.947 -2.26,18.014 -1.908,19C-0.729,18.504 -0.515,18.198 -0.17,17.021C-0.054,16.624 0.183,16.161 0.498,15.927C0.274,14.525 0.41,13.054 1.057,11.861" style="fill:rgb(231,172,89);fill-rule:nonzero;"/>
                    </g>
                    <g transform="matrix(1,0,0,1,55.2003,187.916)">
                        <path d="M0,-15.295C0.123,-15.408 0.258,-15.475 0.272,-15.562C0.287,-15.654 0.212,-15.822 0.131,-15.862C-0.491,-16.175 -1.118,-16.48 -1.758,-16.75C-1.869,-16.796 -2.05,-16.668 -2.2,-16.62C-2.138,-16.448 -2.12,-16.176 -2.005,-16.122C-1.357,-15.82 -0.684,-15.571 0,-15.295M5.928,-23.956C5.949,-24.067 5.971,-24.178 5.992,-24.289C4.967,-24.679 3.949,-25.086 2.913,-25.437C2.763,-25.488 2.53,-25.277 2.335,-25.188C2.473,-25.013 2.577,-24.753 2.756,-24.68C3.417,-24.405 4.094,-24.152 4.784,-23.973C5.145,-23.879 5.545,-23.956 5.928,-23.956M-5.674,9.344C-6.077,8.816 -6.517,8.312 -6.872,7.754C-7.183,7.267 -7.388,7.38 -7.592,7.775C-8.285,9.126 -8.299,10.566 -7.961,12.022C-7.904,12.269 -7.525,12.45 -7.296,12.661C-7.203,12.398 -7.112,12.135 -7.039,11.922C-6.936,12.303 -5.955,12.207 -6.214,12.986C-6.408,13.568 -7.476,14.06 -8.002,13.83C-8.225,13.732 -8.357,13.419 -8.531,13.204C-8.48,13.149 -8.43,13.093 -8.38,13.037C-8.515,13.018 -8.669,12.949 -8.783,12.987C-9.289,13.155 -9.564,12.886 -9.678,12.465C-9.909,11.615 -10.082,10.751 -10.284,9.893C-10.326,9.719 -10.387,9.55 -10.602,9.404C-10.578,10.469 -10.553,11.535 -10.527,12.685C-12.264,11.895 -11.96,10.044 -12.501,8.497C-13.08,9.448 -12.834,10.298 -12.573,11.175C-13.914,10.272 -13.912,10.271 -14.182,9.022C-14.395,8.03 -14.292,7.091 -13.704,6.27C-13.281,5.68 -12.781,5.15 -12.348,4.566C-12.228,4.403 -12.109,4.078 -12.189,3.947C-13.024,2.6 -13.16,1.098 -13.273,-0.402C-13.389,-1.942 -13.654,-3.517 -13.473,-5.024C-12.988,-9.054 -11.976,-12.945 -9.706,-16.363C-8.654,-17.95 -7.629,-19.564 -6.447,-21.049C-4.607,-23.362 -2.47,-25.346 0.495,-26.189C0.896,-26.303 1.299,-26.454 1.71,-26.485C2.808,-26.569 3.277,-27.263 3.528,-28.214C3.608,-28.52 3.713,-28.818 3.818,-29.158C4.596,-29.01 5.385,-28.548 6.053,-29.355C6.662,-28.84 7.244,-28.769 7.971,-29.131C8.339,-29.314 8.919,-29.084 9.414,-29.041C10.079,-27.015 10.024,-25.019 9.476,-23.005C7.994,-17.561 5.399,-12.732 1.78,-8.458C0.944,-7.469 0.17,-6.402 -0.802,-5.566C-1.616,-4.865 -2.641,-4.371 -3.639,-3.936C-4.36,-3.62 -4.814,-4.094 -4.639,-4.853C-4.502,-5.442 -4.253,-6.008 -4.174,-6.603C-4.077,-7.341 -4.106,-8.099 -4.077,-8.847C-4.018,-10.37 -4.035,-11.905 -3.854,-13.41C-3.79,-13.943 -3.235,-14.401 -2.922,-14.905C-2.667,-15.314 -1.863,-15.523 -2.56,-16.43C-3.219,-15.705 -3.924,-15.072 -4.46,-14.315C-6.409,-11.567 -7.684,-8.49 -8.904,-5.34C-10.119,-2.206 -9.667,0.838 -9.177,3.964C-9.124,4.3 -8.944,4.618 -8.851,4.951C-8.721,5.424 -8.403,5.601 -7.956,5.536C-6.543,5.33 -5.873,6.268 -5.677,7.505C-5.585,8.085 -5.534,8.67 -5.465,9.253C-5.534,9.284 -5.604,9.314 -5.674,9.344" style="fill:rgb(236,209,200);fill-rule:nonzero;"/>
                    </g>
                    <g transform="matrix(1,0,0,1,55.5326,199.328)">
                        <path d="M0,-3.69C-0.291,-4.112 -0.483,-4.582 -0.83,-4.799C-0.974,-4.888 -1.533,-4.494 -1.752,-4.204C-2.006,-3.871 -2.217,-3.411 -2.215,-3.001C-2.212,-2.651 -1.945,-2.222 -1.665,-1.978C-1.549,-1.876 -0.999,-2.087 -0.813,-2.301C-0.492,-2.67 -0.301,-3.154 0,-3.69M-7.851,-12.581C-4.813,-9.743 -1.192,-9.128 2.478,-8.942C6.169,-8.755 9.687,-9.479 12.895,-11.853C13.192,-11.033 13.55,-10.284 13.733,-9.498C14.314,-6.978 14.309,-4.441 13.985,-1.904C13.798,-0.44 13.631,1.027 13.432,2.49C13.381,2.867 13.245,3.231 13.094,3.806C12.779,2.784 12.575,1.95 12.261,1.158C12.026,0.565 11.668,0.015 11.322,-0.529C11.245,-0.651 10.994,-0.664 10.823,-0.727C10.821,-0.527 10.738,-0.28 10.828,-0.136C12.008,1.735 12.362,3.83 12.571,5.947C12.664,6.892 12.318,7.777 11.742,8.712C11.013,6.921 9.632,6.529 8.011,6.594C6.366,6.659 5.409,7.815 4.279,8.891C3.835,8.423 3.391,7.966 2.958,7.499C0.312,4.652 -2.335,1.804 -4.973,-1.05C-5.056,-1.141 -5.087,-1.303 -5.099,-1.435C-5.206,-2.559 -5.223,-3.695 -5.425,-4.803C-5.643,-5.995 -6.671,-6.665 -7.886,-6.595C-8.047,-6.586 -8.34,-6.616 -8.357,-6.68C-8.536,-7.356 -8.723,-8.04 -8.795,-8.73C-8.825,-9.021 -8.555,-9.323 -8.483,-9.637C-8.268,-10.558 -8.083,-11.487 -7.851,-12.581" style="fill:rgb(220,167,129);fill-rule:nonzero;"/>
                    </g>
                    <g transform="matrix(1,0,0,1,54.72,197.938)">
                        <path d="M0,-0.911C-0.186,-0.697 -0.737,-0.486 -0.852,-0.588C-1.132,-0.832 -1.399,-1.261 -1.402,-1.612C-1.405,-2.02 -1.193,-2.48 -0.94,-2.814C-0.721,-3.104 -0.161,-3.498 -0.018,-3.409C0.329,-3.192 0.522,-2.722 0.813,-2.3C0.511,-1.764 0.321,-1.28 0,-0.911M13.365,7.165C12.458,6.415 11.324,6.116 10.43,5.361C9.724,4.765 9.198,3.903 8.813,3.071C8.433,2.246 8.255,1.546 7.493,0.962C6.694,0.349 5.778,0.16 4.842,-0.107C3.32,-0.54 2.898,-1.716 2.602,-3.232C2.345,-4.559 2.799,-5.43 3.697,-6.184C2.521,-6.414 1.332,-6.724 0.366,-7.455C0.182,-7.594 0.012,-7.75 -0.151,-7.912C-2.605,-8.348 -4.958,-9.248 -7.039,-11.191C-7.27,-10.096 -7.455,-9.168 -7.67,-8.247C-7.743,-7.934 -8.012,-7.63 -7.982,-7.34C-7.91,-6.65 -7.724,-5.966 -7.545,-5.29C-7.527,-5.225 -7.234,-5.196 -7.073,-5.205C-5.859,-5.275 -4.83,-4.605 -4.613,-3.413C-4.41,-2.305 -4.393,-1.168 -4.287,-0.045C-4.274,0.087 -4.244,0.249 -4.16,0.34C-1.522,3.194 1.124,6.042 3.771,8.889C4.204,9.355 4.647,9.814 5.091,10.28C6.222,9.205 7.179,8.049 8.824,7.983C10.445,7.919 11.825,8.311 12.555,10.102C13.131,9.168 13.477,8.283 13.383,7.337C13.378,7.28 13.371,7.223 13.365,7.165" style="fill:rgb(213,127,77);fill-rule:nonzero;"/>
                    </g>
                    <g transform="matrix(1,0,0,1,71.474,146.252)">
                        <path d="M0,-5.186C0.141,-5.887 -0.28,-6.173 -0.676,-6.423C-0.805,-6.505 -1.049,-6.399 -1.24,-6.379C-1.179,-6.184 -1.176,-5.918 -1.045,-5.807C-0.773,-5.579 -0.432,-5.434 0,-5.186M-6.575,-6.316C-6.852,-6.45 -7.098,-6.673 -7.28,-6.633C-7.65,-6.552 -8.011,-6.364 -8.323,-6.146C-8.477,-6.039 -8.513,-5.765 -8.602,-5.566C-8.394,-5.573 -8.16,-5.522 -7.979,-5.596C-7.577,-5.762 -7.2,-5.99 -6.575,-6.316M-2.275,-1.231C-2.722,-1.759 -3.156,-2.3 -3.622,-2.811C-3.789,-2.993 -4.038,-3.1 -4.249,-3.242C-4.326,-3.184 -4.401,-3.126 -4.476,-3.068C-4.321,-2.787 -4.209,-2.468 -4.003,-2.23C-2.81,-0.866 -2.113,0.695 -2.023,2.487C-1.976,3.431 -2.226,4.255 -3.234,4.608C-4.33,4.992 -5.404,5.197 -6.412,4.293C-6.571,4.15 -6.858,4.043 -7.061,4.072C-8.289,4.248 -9.484,4.566 -10.416,5.417C-11.073,6.016 -11.754,6.078 -12.585,5.826C-14.787,5.158 -16.022,3.554 -16.867,1.546C-16.935,1.385 -16.965,1.206 -17.05,1.057C-17.655,0 -17.535,-1.078 -17.203,-2.149C-16.287,-5.097 -14.81,-7.68 -12.253,-9.488C-10.269,-10.89 -8.109,-11.264 -5.772,-10.195C-5.624,-10.127 -5.41,-10.167 -5.239,-10.207C-3.846,-10.533 -2.459,-10.843 -1.002,-10.462C0.535,-10.062 1.463,-9.106 2.344,-7.746C3.428,-6.072 3.371,-4.363 3.463,-2.599C3.555,-0.801 3.325,0.945 2.679,2.614C2.324,3.533 1.734,4.265 0.885,4.773C0.429,5.047 -0.011,5.225 -0.51,4.759C-0.734,4.549 -1.08,4.471 -1.454,4.294C-0.89,2.474 -1.226,0.738 -2.234,-0.902C-1.954,-0.78 -1.63,-0.63 -1.402,-0.77C-1.327,-0.816 -1.262,-0.895 -1.212,-1.018C-1.045,-1.436 -2.15,-1.649 -2.275,-1.231" style="fill:rgb(236,209,200);fill-rule:nonzero;"/>
                    </g>
                    <g transform="matrix(1,0,0,1,54.5427,137.918)">
                        <path d="M0,18.935C-0.252,20.757 -1.39,22.124 -2.111,23.689C-2.451,24.429 -3.015,24.826 -3.475,25.357C-4.411,26.438 -5.478,27.404 -6.572,28.498C-6.303,25.272 -4.434,22.741 -3.2,19.97C-3.314,19.922 -3.427,19.873 -3.541,19.825C-5.595,22.379 -6.809,25.334 -7.256,28.656L-7.509,28.663C-7.631,28.431 -7.845,28.201 -7.858,27.965C-7.922,26.814 -7.933,25.662 -7.96,24.509C-7.963,24.387 -7.916,24.257 -7.944,24.142C-8.294,22.697 -7.644,21.459 -7.246,20.157C-6.505,17.735 -6.351,15.224 -6.566,12.694C-6.719,10.871 -7.047,9.058 -7.204,7.234C-7.346,5.582 -7.578,3.891 -7.388,2.27C-7.02,-0.871 -5.849,-3.702 -3.488,-5.914C-2.051,-7.258 -0.537,-8.455 1.363,-9.115C2.766,-9.603 4.239,-9.728 5.567,-9.142C6.485,-8.737 7.258,-7.852 7.934,-7.047C8.847,-5.958 9.541,-4.711 9.795,-3.166C9.439,-3.166 9.126,-3.138 8.818,-3.169C6.722,-3.382 5.036,-2.527 3.506,-1.261C1.296,0.569 -0.036,2.98 -0.928,5.668C-1.148,6.331 -1.283,7.024 -1.44,7.637C-2.134,7.439 -2.707,7.175 -3.294,7.128C-4.96,6.994 -6.124,8.423 -5.75,10.059C-5.378,11.686 -5.037,12.006 -3.43,12.328C-3.244,12.365 -2.978,12.571 -2.945,12.733C-2.73,13.783 -2.748,13.787 -1.738,14.003C-1.769,14.366 -1.828,14.73 -1.825,15.093C-1.818,15.907 -1.412,16.398 -0.609,16.384C0.021,16.373 0.152,16.704 0.237,17.175C0.267,17.345 0.268,17.52 0.3,17.69C0.465,18.552 0.764,18.696 2.07,18.53C2.359,19.185 2.483,20.082 3.542,19.702C3.922,21.415 3.387,22.28 1.898,22.7C0.866,22.992 -0.133,23.388 -1.308,23.795C-0.896,22.948 -0.558,22.209 -0.184,21.489C0.241,20.673 0.474,19.851 0,18.935" style="fill:rgb(128,130,133);fill-rule:nonzero;"/>
                    </g>
                    <g transform="matrix(1,0,0,1,62.2568,132.253)">
                        <path d="M0,-1.381C-0.675,-2.186 -1.448,-3.071 -2.366,-3.477C-3.694,-4.063 -5.168,-3.937 -6.57,-3.449C-8.278,-2.856 -9.674,-1.828 -10.982,-0.649C-10.007,-0.64 -9.038,-0.782 -8.403,-0.942C-8.118,-1.014 -7.891,-0.712 -8.029,-0.457C-8.175,-0.187 -8.232,0.127 -8.293,0.438C-7.37,0.234 -6.411,0.34 -5.46,0.363C-5.235,0.368 -5.098,0.569 -5.141,0.782C-5.246,1.29 -5.24,1.801 -5.277,2.31C-3.844,1.668 -2.587,1.917 -1.342,2.682C-0.649,2.49 0.087,2.415 0.884,2.496C1.192,2.527 1.505,2.5 1.861,2.5C1.608,0.956 0.914,-0.292 0,-1.381" style="fill:rgb(167,169,172);fill-rule:nonzero;"/>
                    </g>
                    <g transform="matrix(1,0,0,1,60.4288,170.668)">
                        <path d="M0,8.445C0.259,8.193 0.433,8.024 0.606,7.856C0.432,7.73 0.251,7.504 0.083,7.509C-0.092,7.515 -0.316,7.714 -0.397,7.888C-0.437,7.97 -0.19,8.19 0,8.445M3.393,10.308C2.538,11.397 1.733,12.531 0.816,13.566C-0.879,15.478 -2.867,16.985 -5.445,17.553C-5.822,17.635 -6.229,17.588 -6.612,17.651C-6.932,17.703 -7.238,17.827 -7.528,18.015C-9.428,17.875 -10.86,16.61 -12.527,15.565C-12.034,14.608 -11.521,13.611 -11.008,12.614C-10.825,13.509 -10.413,13.882 -9.013,14.225C-9.919,14.723 -10.703,15.153 -11.565,15.626C-11.004,16.063 -10.514,15.903 -10.142,15.644C-8.907,14.781 -7.697,13.882 -6.51,12.954C-4.334,11.255 -2.801,8.964 -1.11,6.837C1.352,3.742 3.101,0.209 4.409,-3.531C5.063,-5.404 5.522,-7.348 5.435,-9.38C5.416,-9.836 5.317,-10.29 5.233,-10.915C5.951,-10.466 6.212,-9.926 6.396,-9.303C7.078,-7 6.808,-4.702 6.51,-2.414C6.217,-0.154 5.835,2.091 5.556,4.357C6.314,2.554 6.788,0.679 6.969,-1.289C7.15,-3.23 7.405,-5.162 7.632,-7.145C8.082,-5.833 8.467,-4.516 8.503,-3.134C8.587,0.053 8.718,3.242 8.692,6.427C8.671,9.016 8.479,11.602 8.306,14.185C8.229,15.327 7.62,16.153 6.653,16.809C4.633,18.181 2.31,18.519 -0.058,18.848C1.485,17.505 3.032,16.195 3.388,14.037C3.334,13.996 3.281,13.956 3.226,13.915C3.013,14.231 2.773,14.532 2.59,14.864C1.649,16.572 0.248,17.659 -1.517,18.54C-3.156,19.36 -4.527,18.561 -6.091,18.468C-1.345,17.471 1.553,14.499 3.531,10.46C3.485,10.409 3.44,10.359 3.393,10.308" style="fill:rgb(220,167,129);fill-rule:nonzero;"/>
                    </g>
                    <g transform="matrix(1,0,0,1,65.133,173.737)">
                        <path d="M0,-0.444C-0.621,1.192 -1.589,2.963 -1.571,4.76C-0.135,3.555 0.799,1.907 1.332,0.124C1.186,0.553 1.029,0.978 0.852,1.398C1.124,-0.812 1.492,-3.002 1.782,-5.204C1.145,-3.635 0.602,-2.03 0,-0.444" style="fill:rgb(213,127,77);fill-rule:nonzero;"/>
                    </g>
                    <g transform="matrix(1,0,0,1,64.5033,186.915)">
                        <path d="M0,-0.626C-0.204,-0.709 -0.304,-0.904 -0.198,-1.112C0.204,-1.897 0.736,-2.594 1.198,-3.336C0.568,-2.93 -0.052,-2.493 -0.692,-2.104L-0.686,-2.1C-1.042,0.059 -2.588,1.368 -4.132,2.71C-1.763,2.382 0.559,2.045 2.578,0.672C3.545,0.015 4.155,-0.811 4.231,-1.952C4.247,-2.198 4.265,-2.445 4.282,-2.69C3.082,-1.095 1.59,0.026 0,-0.626" style="fill:rgb(213,127,77);fill-rule:nonzero;"/>
                    </g>
                    <g transform="matrix(1,0,0,1,63.0189,189.534)">
                        <path d="M0,-3.892C0.115,-4.101 0.252,-4.298 0.391,-4.494C-0.465,-4.011 -1.365,-3.652 -2.367,-3.587C-4.015,-1.99 -6.066,-0.839 -8.682,-0.289C-7.117,-0.197 -5.747,0.602 -4.106,-0.217C-2.343,-1.098 -0.941,-2.186 0,-3.892" style="fill:rgb(213,127,77);fill-rule:nonzero;"/>
                    </g>
                    <g transform="matrix(1,0,0,1,59.8838,184.805)">
                        <path d="M0,0.913C-0.006,0.888 -0.016,0.863 -0.015,0.836C0.03,-0.621 1.132,-1.714 1.368,-3.074C-2.076,-1.076 -5.292,2.057 -9.501,1.547C-9.534,1.569 -9.565,1.593 -9.598,1.617C-9.969,1.875 -10.459,2.036 -11.02,1.599C-10.745,1.448 -10.478,1.301 -10.212,1.155C-10.186,0.977 -10.035,0.804 -9.806,0.846C-9.763,0.854 -9.72,0.855 -9.677,0.862C-9.287,0.648 -8.891,0.43 -8.468,0.198C-9.868,-0.146 -10.28,-0.517 -10.463,-1.413C-10.976,-0.416 -11.489,0.581 -11.982,1.537C-10.315,2.583 -8.883,3.849 -6.983,3.987C-6.693,3.8 -6.387,3.675 -6.067,3.624C-5.684,3.562 -5.277,3.609 -4.9,3.525C-2.98,3.103 -1.388,2.158 0,0.913" style="fill:rgb(213,127,77);fill-rule:nonzero;"/>
                    </g>
                    <g transform="matrix(1,0,0,1,82.9851,200.05)">
                        <path d="M0,22.574C0.078,22.21 0.173,21.549 0.365,20.921C1.435,17.441 1.553,13.865 1.351,10.235C1.201,7.536 0.809,4.879 0.108,2.266C-0.368,0.488 -1.116,-1.191 -2.193,-2.719C-2.73,-3.482 -2.619,-4.057 -1.787,-4.462C-0.298,-5.188 1.223,-5.852 2.756,-6.486C3.109,-6.632 3.495,-6.628 3.771,-6.08C4.791,-4.056 5.418,-1.927 5.721,0.288C6.067,2.814 6.439,5.343 6.613,7.879C6.767,10.111 6.728,12.356 6.651,14.588C6.58,16.65 6.34,18.704 6.196,20.763C6.185,20.927 6.299,21.145 6.422,21.273C7.404,22.3 8.413,23.301 9.39,24.33C9.943,24.913 10.585,25.161 11.376,25.204C11.736,25.223 12.211,25.426 12.412,25.704C12.72,26.131 12.311,26.422 11.996,26.726C11.616,27.09 11.311,27.539 11.013,27.979C10.297,29.034 9.793,29.206 8.581,28.837C8.209,28.722 7.795,28.638 7.417,28.675C5.762,28.836 4.622,27.97 3.693,26.75C3.097,25.965 2.417,25.389 1.466,25.082C0.524,24.778 0.014,23.926 0,22.574" style="fill:rgb(236,209,200);fill-rule:nonzero;"/>
                    </g>
                    <g transform="matrix(1,0,0,1,59.3698,242.374)">
                        <path d="M0,-30.981C0.317,-30.715 0.502,-30.597 0.641,-30.438C2.533,-28.307 4.427,-26.179 6.295,-24.027C6.481,-23.813 6.561,-23.46 6.585,-23.165C6.835,-20.185 6.332,-17.261 6.118,-14.315C6.042,-13.26 6.065,-12.188 6.156,-11.131C6.196,-10.671 6.476,-10.204 6.72,-9.783C7.631,-8.21 8.537,-6.632 9.52,-5.104C9.885,-4.536 10.44,-4.079 10.942,-3.606C11.388,-3.185 11.971,-2.891 11.683,-2.093C11.355,-1.187 10.986,-0.901 10.122,-0.803C9.349,-0.716 8.579,-0.535 7.838,-0.306C6.843,0 5.782,-0.339 5.186,-1.241C4.473,-2.319 3.819,-3.444 3.019,-4.454C2.509,-5.099 1.859,-5.764 1.129,-6.078C-0.209,-6.656 -0.552,-7.421 -0.279,-9.047C-0.086,-10.191 0.394,-11.298 1.473,-11.968C1.547,-12.013 1.613,-12.115 1.628,-12.201C1.943,-14.106 2.404,-15.997 2.519,-17.919C2.661,-20.269 2.648,-22.635 2.241,-25.005C2.023,-26.281 1.668,-27.408 0.973,-28.503C0.549,-29.17 0.375,-29.992 0,-30.981" style="fill:rgb(236,209,200);fill-rule:nonzero;"/>
                    </g>
                    <g transform="matrix(1,0,0,1,75.3058,180.348)">
                        <path d="M0,10.882C0.411,10.935 0.826,11.044 1.232,11.028C1.792,11.005 2.104,11.247 2.163,11.765C2.268,12.673 2.345,13.584 2.393,14.494C2.434,15.268 2.001,15.717 1.158,15.973C1.091,15.405 1.08,14.857 0.949,14.336C0.798,13.731 0.558,13.143 0.316,12.565C0.273,12.462 0.035,12.438 -0.113,12.376C-0.146,12.549 -0.265,12.78 -0.195,12.886C0.492,13.912 -0.009,15.017 0.116,16.077C0.128,16.186 0.073,16.343 -0.007,16.414C-0.268,16.642 -0.554,16.84 -0.831,17.049C-0.94,16.698 -1.184,16.324 -1.133,16.003C-0.935,14.749 -1.299,13.675 -2.025,12.661C-2.604,12.811 -2.607,13.073 -2.309,13.523C-1.655,14.508 -1.576,15.845 -2.382,16.661C-2.489,16.494 -2.652,16.353 -2.672,16.195C-2.753,15.555 -2.774,14.909 -2.848,14.267C-2.951,13.379 -3.306,12.991 -4.044,12.924C-4.318,11.758 -4.301,10.656 -3.48,9.69C-3.368,9.559 -3.334,9.253 -3.407,9.09C-4.023,7.74 -4.693,6.413 -5.297,5.057C-5.489,4.628 -5.634,4.132 -5.626,3.674C-5.586,1.18 -5.483,-1.31 -5.423,-3.803C-5.405,-4.582 -5.453,-5.364 -5.47,-6.144C-5.392,-6.152 -5.312,-6.159 -5.233,-6.167C-5.053,-5.364 -4.871,-4.562 -4.693,-3.758C-3.948,-0.388 -2.589,2.751 -0.935,5.782C-0.84,5.957 -0.797,6.272 -0.89,6.41C-1.263,6.96 -0.927,7.198 -0.488,7.339C0.151,7.544 0.808,7.685 1.458,7.85C2.359,8.079 3.089,8.571 3.665,9.298C3.921,9.621 4.166,9.961 3.827,10.358C3.516,10.722 3.208,11.015 2.643,10.697C1.786,10.217 0.892,9.96 0,10.882" style="fill:rgb(236,209,200);fill-rule:nonzero;"/>
                    </g>
                    <g transform="matrix(1,0,0,1,52.2712,155.846)">
                        <path d="M0,-4.598C-0.15,-6.075 1.327,-6.15 1.813,-7.205C2.029,-6.834 2.159,-6.639 2.26,-6.433C3.206,-4.505 4.809,-3.426 6.8,-2.822C7.063,-2.742 7.28,-2.499 7.517,-2.331C7.87,-2.082 8.222,-1.831 8.427,-1.686C8.576,-1.071 8.57,-0.434 8.872,-0.016C9.328,0.613 9.946,0.141 10.516,-0.087C10.949,0.529 11.459,0.779 12.125,0.271C12.22,0.198 12.443,0.316 12.605,0.308C12.838,0.296 13.069,0.25 13.373,0.209C12.443,-1.012 12.194,-1.066 11.4,-0.118C11.449,-0.538 11.516,-0.773 11.488,-0.999C11.468,-1.166 11.323,-1.32 11.235,-1.481C11.084,-1.397 10.918,-1.335 10.789,-1.227C10.504,-0.987 10.263,-0.692 9.958,-0.487C9.806,-0.384 9.552,-0.428 9.343,-0.406C9.321,-0.641 9.199,-0.936 9.295,-1.096C9.527,-1.485 9.887,-1.793 10.143,-2.17C10.275,-2.364 10.297,-2.635 10.368,-2.872C10.132,-2.822 9.891,-2.79 9.662,-2.718C9.234,-2.584 8.812,-2.425 8.387,-2.278C8.346,-2.377 8.305,-2.476 8.265,-2.576C8.718,-2.789 9.17,-3.003 9.726,-3.265C9.46,-3.424 9.308,-3.515 9.107,-3.635C9.928,-4.374 10.884,-4.631 11.897,-4.744C11.986,-4.753 12.1,-4.72 12.173,-4.667C13.712,-3.572 15.225,-3.86 16.808,-4.512C17.204,-4.674 17.857,-4.43 18.304,-4.199C18.52,-4.086 18.585,-3.572 18.625,-3.231C18.695,-2.636 18.325,-2.522 17.827,-2.637C17.658,-2.675 17.5,-2.775 17.332,-2.792C17.107,-2.817 16.88,-2.787 16.653,-2.78C16.69,-2.549 16.691,-2.304 16.772,-2.088C16.896,-1.755 17.075,-1.441 17.267,-1.044C16.993,-0.989 16.836,-0.942 16.678,-0.928C16.262,-0.89 16.164,-0.655 16.344,-0.317C16.623,0.207 16.356,0.295 15.921,0.264C15.372,0.224 15.132,0.389 15.307,0.997C15.363,1.189 15.259,1.528 15.107,1.647C14.827,1.864 14.465,2.083 14.124,2.093C13.159,2.123 12.188,2.048 11.22,2.015C11.077,2.01 10.865,1.945 10.803,2.013C10.306,2.578 9.84,2.369 9.307,2.022C9.137,1.912 8.748,1.934 8.589,2.058C7.888,2.607 7.265,2.477 6.927,1.592C6.691,0.973 6.498,0.476 5.737,1.015C5.692,1.048 5.305,0.769 5.236,0.579C4.876,-0.407 4.892,-0.419 3.982,-0.052C3.634,0.088 3.403,0.02 3.321,-0.369C3.215,-0.875 3.113,-1.384 3.029,-1.896C2.947,-2.39 2.694,-2.494 2.236,-2.357C1.32,-2.079 1.033,-2.358 1.218,-3.328C1.274,-3.615 1.435,-3.881 1.47,-4.168C1.497,-4.386 1.476,-4.708 1.341,-4.825C1.212,-4.934 0.902,-4.86 0.681,-4.822C0.474,-4.786 0.277,-4.692 0,-4.598" style="fill:rgb(128,130,133);fill-rule:nonzero;"/>
                    </g>
                    <g transform="matrix(1,0,0,1,88.9071,171.204)">
                        <path d="M0,-8.815C0.108,-8.77 0.238,-8.75 0.322,-8.677C2.375,-6.897 4.915,-6.136 7.367,-5.209C9.223,-4.507 11.164,-4.27 13.13,-4.294C13.598,-4.299 14.067,-4.271 14.536,-4.26C15.23,-4.244 15.877,-4.308 16.474,-4.752C17.658,-5.635 18.021,-5.574 19.394,-4.604C19.835,-4.292 20.344,-4.08 20.807,-3.797C21.061,-3.641 21.285,-3.432 21.521,-3.248C21.233,-3.015 20.953,-2.592 20.656,-2.586C19.939,-2.572 19.212,-2.744 18.49,-2.858C18.289,-2.89 18.096,-2.987 17.681,-3.128C17.844,-2.744 17.872,-2.505 18.006,-2.393C18.534,-1.945 18.581,-1.325 18.326,-0.859C17.954,-0.178 16.965,0 16.446,-0.576C15.616,-1.495 14.75,-1.533 13.642,-1.38C12.261,-1.188 10.84,-1.22 9.434,-1.204C7.114,-1.18 4.883,-1.685 2.669,-2.428C1.744,-2.738 1.263,-3.162 1.036,-4.106C0.667,-5.643 0.167,-7.153 -0.279,-8.673C-0.186,-8.721 -0.092,-8.768 0,-8.815" style="fill:rgb(236,209,200);fill-rule:nonzero;"/>
                    </g>
                    <g transform="matrix(1,0,0,1,75.6949,170.036)">
                        <path d="M0,-0.359C0.338,-0.791 0.698,-1.207 1.005,-1.66C1.134,-1.851 1.153,-2.118 1.223,-2.351C0.969,-2.308 0.646,-2.346 0.474,-2.205C0.182,-1.964 -0.107,-1.646 -0.241,-1.297C-0.964,0.599 -1.723,2.488 -2.301,4.432C-2.773,6.016 -3.007,7.674 -3.375,9.442C-3.523,9.086 -3.663,8.835 -3.734,8.568C-4.274,6.482 -4.771,4.386 -5.344,2.309C-5.64,1.243 -5.303,0.295 -4.958,-0.625C-4.203,-2.64 -3.513,-4.692 -2.176,-6.433C-1.244,-7.648 -0.237,-8.755 1.121,-9.508C1.62,-9.785 1.904,-9.801 2.166,-9.151C3.135,-6.744 3.334,-4.346 2.407,-1.936C2.017,-0.925 1.199,-0.411 0.201,-0.163C0.133,-0.229 0.066,-0.294 0,-0.359" style="fill:rgb(236,209,200);fill-rule:nonzero;"/>
                    </g>
                    <g transform="matrix(1,0,0,1,81.8707,218.707)">
                        <path d="M0,-17.989C0.517,-15.888 1.034,-13.789 1.551,-11.688C1.467,-11.696 1.384,-11.704 1.301,-11.713C1.139,-11.449 0.973,-11.19 0.817,-10.923C0.203,-9.877 -0.345,-8.786 -1.038,-7.796C-1.668,-6.894 -1.99,-6.092 -1.482,-4.946C-0.981,-3.816 -0.687,-2.615 0.183,-1.65C0.589,-1.2 0.311,-0.645 -0.295,-0.481C-2.076,0 -4.317,-1.275 -4.781,-3.062C-5.039,-4.054 -5.532,-4.889 -6.29,-5.578C-7.204,-6.408 -7.138,-7.187 -6.186,-7.956C-4.181,-9.576 -2.697,-11.618 -1.662,-13.973C-1.096,-15.26 -0.65,-16.604 -0.152,-17.922C-0.101,-17.944 -0.05,-17.967 0,-17.989" style="fill:rgb(236,209,200);fill-rule:nonzero;"/>
                    </g>
                    <g transform="matrix(1,0,0,1,74.7221,127.832)">
                        <path d="M0,10.245C-0.617,9.531 -1.071,8.95 -1.583,8.426C-2.816,7.161 -4.399,6.886 -6.036,6.945C-6.806,6.973 -7.569,7.21 -8.323,7.391C-8.813,7.508 -9.243,7.439 -9.445,6.963C-9.662,6.452 -10.06,5.842 -9.252,5.467C-9.011,5.354 -8.743,5.297 -8.494,5.199C-8.323,5.131 -8.165,5.037 -8,4.955C-8.034,4.849 -8.068,4.744 -8.102,4.639C-8.734,4.767 -9.366,4.897 -10.081,5.043C-10.191,4.85 -10.336,4.599 -10.531,4.258C-9.975,3.987 -9.452,3.733 -8.931,3.479C-8.951,3.383 -8.972,3.288 -8.992,3.191C-9.443,3.226 -9.918,3.186 -10.338,3.317C-10.811,3.463 -11.035,3.325 -11.291,2.935C-11.661,2.375 -12.108,1.865 -12.66,1.158C-11.771,0.866 -10.976,0.468 -10.136,0.354C-7.535,0 -5.076,0.441 -3.131,2.424C-1.474,4.113 -0.632,6.231 -0.237,8.525C-0.149,9.034 -0.095,9.547 0,10.245" style="fill:rgb(128,130,133);fill-rule:nonzero;"/>
                    </g>
                    <g transform="matrix(1,0,0,1,69.7362,130.358)">
                        <path d="M0,2.712C-0.196,2.532 -0.075,2.238 0.147,2.159C1.279,1.752 -0.797,0.844 -0.92,0.788C-1.072,0.719 -1.138,0.47 -1.04,0.335C-0.209,-0.802 -2.099,-1.743 -3.635,-2.27C-4.063,-2.259 -4.493,-2.232 -4.93,-2.173C-5.77,-2.057 -6.565,-1.661 -7.455,-1.368C-6.903,-0.66 -6.456,-0.151 -6.086,0.409C-5.829,0.799 -5.606,0.937 -5.133,0.79C-4.713,0.661 -4.237,0.701 -3.787,0.665C-3.766,0.761 -3.746,0.856 -3.725,0.953C-4.247,1.207 -4.769,1.46 -5.326,1.731C-5.13,2.074 -4.986,2.324 -4.875,2.517C-4.16,2.371 -3.528,2.241 -2.896,2.112C-2.862,2.217 -2.828,2.323 -2.795,2.428C-2.959,2.51 -3.118,2.606 -3.289,2.672C-3.537,2.771 -3.805,2.828 -4.047,2.941C-4.854,3.315 -4.456,3.925 -4.239,4.437C-4.038,4.912 -3.608,4.982 -3.117,4.865C-2.363,4.683 -1.601,4.446 -0.831,4.418C-0.079,4.391 0.659,4.441 1.36,4.618C1.063,3.883 0.609,3.273 0,2.712" style="fill:rgb(167,169,172);fill-rule:nonzero;"/>
                    </g>
                    <g transform="matrix(1,0,0,1,53.3837,201.054)">
                        <path d="M0,12.648C0.034,12.4 0.044,12.237 0.081,12.079C0.591,9.862 -0.042,7.864 -1.238,5.983C-1.323,5.848 -1.603,5.706 -1.721,5.749C-1.887,5.811 -2.034,6.025 -2.102,6.208C-2.241,6.593 -2.324,6.999 -2.43,7.398C-2.512,7.384 -2.594,7.371 -2.677,7.358C-2.684,7.055 -2.623,6.73 -2.712,6.452C-2.903,5.854 -3.162,5.277 -3.416,4.701C-3.456,4.612 -3.638,4.502 -3.722,4.523C-4.744,4.782 -5.229,4.041 -5.679,3.376C-6.044,2.836 -6.254,2.193 -6.587,1.478C-5.226,1.651 -4.395,1.014 -3.565,0C-0.902,2.768 1.724,5.498 4.342,8.219C2.988,9.85 2.144,11.82 0,12.648" style="fill:rgb(213,127,77);fill-rule:nonzero;"/>
                    </g>
                    <g transform="matrix(1,0,0,1,66.1141,165.938)">
                        <path d="M0,-6.914C0.904,-7.457 1.75,-7.964 2.585,-8.465C2.496,-7.278 2.395,-6.161 2.338,-5.04C2.315,-4.604 2.345,-4.149 2.447,-3.723C2.489,-3.55 2.787,-3.432 2.969,-3.29C3.033,-3.482 3.164,-3.675 3.152,-3.864C3.059,-5.312 3.002,-6.756 3.419,-8.158C3.481,-8.361 3.658,-8.643 3.829,-8.678C4.777,-8.873 5.336,-9.42 5.565,-10.354C5.583,-9.551 5.628,-8.747 5.614,-7.944C5.585,-6.158 5.829,-4.405 6.292,-2.672C6.337,-2.498 6.374,-2.277 6.308,-2.129C5.442,-0.201 4.557,1.717 3.767,3.44C3.68,2.795 3.604,1.854 3.417,0.933C3.139,-0.436 2.785,-1.792 2.458,-3.153C2.436,-3.244 2.369,-3.396 2.321,-3.397C1.506,-3.422 1.628,-4.062 1.508,-4.562C1.276,-5.55 0.8,-6.395 0,-6.914" style="fill:rgb(128,130,133);fill-rule:nonzero;"/>
                    </g>
                    <g transform="matrix(1,0,0,1,66.3401,206.493)">
                        <path d="M0,8.848C-2.057,6.606 -4.063,4.419 -6.119,2.177C-5.429,1.632 -4.767,1.08 -4.077,0.57C-3.304,0 -2.412,0.059 -1.524,0.263C-1.374,0.297 -1.191,0.497 -1.143,0.653C-0.359,3.227 0.17,5.837 0.092,8.526C0.089,8.613 0.044,8.697 0,8.848" style="fill:rgb(236,209,200);fill-rule:nonzero;"/>
                    </g>
                    <g transform="matrix(1,0,0,1,61.1331,229.12)">
                        <path d="M0,-10.237C0.228,-6.634 0.101,-3.315 -0.86,0C-1.015,-0.117 -1.125,-0.17 -1.19,-0.256C-1.955,-1.257 -2.852,-2.07 -3.991,-2.665C-5.307,-3.354 -5.416,-4.477 -4.27,-5.369C-2.731,-6.57 -1.375,-7.906 -0.503,-9.684C-0.427,-9.842 -0.262,-9.954 0,-10.237" style="fill:rgb(236,209,200);fill-rule:nonzero;"/>
                    </g>
                    <g transform="matrix(1,0,0,1,68.5277,196.848)">
                        <path d="M0,22.966C-0.67,22.437 -1.241,22.1 -1.667,21.631C-3.676,19.429 -5.628,17.175 -7.632,14.969C-9.911,12.461 -12.2,9.961 -14.532,7.5C-16.174,5.766 -17.887,4.1 -19.583,2.417C-19.89,2.113 -20.265,1.875 -20.707,1.529C-20.685,1.115 -20.658,0.582 -20.628,0C-18.692,1.243 -0.287,21.597 0,22.966" style="fill:rgb(254,199,101);fill-rule:nonzero;"/>
                    </g>
                    <g transform="matrix(1,0,0,1,51.1999,148.203)">
                        <path d="M0,-1.174C-0.195,-1.057 -0.423,-0.92 -0.65,-0.784C-0.405,-0.638 -0.175,-0.454 0.087,-0.357C0.432,-0.23 0.797,-0.13 1.159,-0.096C1.339,-0.079 1.531,-0.236 1.716,-0.315C1.609,-0.482 1.536,-0.741 1.387,-0.799C0.975,-0.96 0.531,-1.037 0,-1.174M2.124,-1.817C2.233,-1.476 2.421,-0.897 2.599,-0.315C2.619,-0.253 2.592,-0.166 2.563,-0.102C2.204,0.706 -0.021,1.479 -0.835,1.082C-1.616,0.702 -1.968,-0.769 -1.484,-1.634C-1.051,-2.408 0.129,-2.653 0.924,-2.184C1.213,-2.012 1.581,-1.977 2.124,-1.817" style="fill:rgb(236,209,200);fill-rule:nonzero;"/>
                    </g>
                    <g transform="matrix(1,0,0,1,108.902,167.854)">
                        <path d="M0,-1.782C1.491,-1.782 2.983,-1.799 4.474,-1.765C4.709,-1.76 4.964,-1.552 5.176,-1.392C5.583,-1.082 5.567,-0.697 5.109,-0.552C4.327,-0.304 3.506,-0.167 2.697,-0.002C2.601,0.017 2.409,-0.06 2.382,-0.134C2.032,-1.061 1.172,-1.147 0.408,-1.399C0.251,-1.45 0.109,-1.556 -0.04,-1.637L0,-1.782Z" style="fill:rgb(236,209,200);fill-rule:nonzero;"/>
                    </g>
                    <g transform="matrix(1,0,0,1,69.5117,151.021)">
                        <path d="M0,5.409C0.098,5.04 0.103,4.754 0.238,4.563C0.799,3.774 0.814,3.784 0.572,2.957C0.855,2.894 1.153,2.869 1.416,2.76C1.842,2.586 2.197,2.327 2.097,1.767C2.014,1.31 2.256,1.156 2.656,0.99C3.252,0.741 3.786,0.348 4.372,0C4.474,0.645 4.18,1.106 3.777,1.56C3.394,1.991 3.107,2.506 2.725,2.937C2.488,3.204 2.133,3.36 1.867,3.604C1.669,3.787 1.418,4.011 1.38,4.251C1.27,4.965 0.923,5.351 0,5.409" style="fill:rgb(128,130,133);fill-rule:nonzero;"/>
                    </g>
                    <g transform="matrix(1,0,0,1,70.2841,186.02)">
                        <path d="M0,4.746C-0.165,4.138 -0.316,3.525 -0.498,2.92C-0.61,2.543 -0.703,2.134 -0.918,1.814C-1.353,1.167 -1.516,0.573 -0.862,-0.032C-0.142,0.939 0.456,2.028 0.614,3.262C0.677,3.747 0.375,4.271 0.24,4.778C0.16,4.767 0.08,4.757 0,4.746" style="fill:rgb(238,195,134);fill-rule:nonzero;"/>
                    </g>
                    <g transform="matrix(0.773372,0.633952,0.633952,-0.773372,65.7025,230.399)">
                        <path d="M1.077,-0.292C0.413,0.482 -0.13,1.114 -0.696,1.773C-0.103,1.902 0.481,2.063 1.077,2.147C1.551,2.212 1.905,1.77 1.757,1.258C1.621,0.784 1.362,0.342 1.077,-0.292" style="fill:rgb(236,209,200);fill-rule:nonzero;"/>
                    </g>
                    <g transform="matrix(1,0,0,1,112.009,169.992)">
                        <path d="M0,-1.125C-0.642,-0.317 -1.533,0.114 -2.564,0.239C-3.282,0.326 -3.596,0.078 -3.891,-0.606C-3.498,-0.628 -3.107,-0.595 -2.749,-0.684C-2.219,-0.817 -1.717,-1.053 -1.193,-1.214C-0.848,-1.322 -0.484,-1.375 -0.127,-1.451C-0.084,-1.343 -0.042,-1.233 0,-1.125" style="fill:rgb(236,209,200);fill-rule:nonzero;"/>
                    </g>
                    <g transform="matrix(1,0,0,1,111.221,172.051)">
                        <path d="M0,-1.622C0.049,-1.54 0.096,-1.497 0.094,-1.456C0.058,-0.542 -0.729,-0.472 -1.338,-0.228C-1.908,0 -2.469,-0.117 -2.909,-0.563C-3.033,-0.689 -3.073,-1.001 -3.008,-1.17C-2.969,-1.274 -2.66,-1.286 -2.467,-1.309C-1.776,-1.392 -1.083,-1.462 -0.391,-1.543C-0.255,-1.559 -0.122,-1.597 0,-1.622" style="fill:rgb(236,209,200);fill-rule:nonzero;"/>
                    </g>
                    <g transform="matrix(1,0,0,1,87.7564,196.31)">
                        <path d="M0,-2.196C1.434,-1.447 1.633,-0.805 0.774,0C0.529,-0.694 0.29,-1.374 0,-2.196" style="fill:rgb(236,209,200);fill-rule:nonzero;"/>
                    </g>
                    <g transform="matrix(0.957826,-0.287348,-0.287348,-0.957826,67.0842,209.413)">
                        <path d="M-0.279,-0.08C-0.375,0.554 -0.471,1.188 -0.567,1.821C-0.472,1.828 -0.375,1.836 -0.279,1.841C0.093,1.202 -0.266,0.553 -0.305,-0.092C-0.304,-0.091 -0.279,-0.08 -0.279,-0.08" style="fill:white;fill-rule:nonzero;"/>
                    </g>
                    <g transform="matrix(1,0,0,1,89.6314,148.022)">
                        <path d="M0,0.515C0.168,1.832 -0.665,2.273 -1.503,2.718C-2.272,3.127 -3.029,3.119 -3.704,2.524C-3.9,2.354 -3.94,2.005 -4.052,1.738C-3.771,1.785 -3.442,1.751 -3.219,1.892C-2.564,2.303 -1.91,2.22 -1.227,1.623C-0.623,1.094 -0.803,0.537 -1.145,-0.024C-1.546,-0.68 -2.002,-1.305 -2.394,-1.966C-2.493,-2.136 -2.439,-2.395 -2.455,-2.612C-2.238,-2.543 -1.936,-2.541 -1.819,-2.394C-1.175,-1.587 -0.565,-0.752 0.022,0.096C0.105,0.216 0.004,0.46 0,0.515" style="fill:rgb(35,31,32);fill-rule:nonzero;"/>
                    </g>
                    <g transform="matrix(1,0,0,1,83.4497,159.425)">
                        <path d="M0,10.431C-0.411,9.887 -0.815,9.505 -1.034,9.038C-2.111,6.741 -3.153,4.426 -4.171,2.103C-4.398,1.586 -4.49,1.009 -4.612,0.453C-4.642,0.315 -4.542,0.152 -4.5,0C-4.333,0.072 -4.106,0.101 -4.013,0.228C-3.888,0.396 -3.869,0.641 -3.802,0.852C-3.443,1.975 -3.174,3.135 -2.7,4.21C-1.985,5.835 -1.129,7.401 -0.328,8.989C-0.135,9.369 0.437,9.616 0,10.431" style="fill:rgb(35,31,32);fill-rule:nonzero;"/>
                    </g>
                    <g transform="matrix(1,0,0,1,81.7091,187.807)">
                        <path d="M0,-1.44C-0.706,-1.222 -1.093,-0.909 -1.024,-0.131C-0.269,-0.28 -0.265,-0.886 0,-1.44M-1.77,-0.177C-1.75,-1.017 -1.139,-1.852 -0.381,-2.073C0.029,-2.193 0.532,-1.837 0.477,-1.42C0.373,-0.634 0.026,0.039 -0.659,0.463C-1.129,0.753 -1.784,0.354 -1.77,-0.177" style="fill:rgb(35,31,32);fill-rule:nonzero;"/>
                    </g>
                    <g transform="matrix(1,0,0,1,86.623,150.273)">
                        <path d="M0,2.385C-0.276,2.402 -0.582,2.506 -0.824,2.421C-1.808,2.074 -2.486,1.345 -2.985,0.456C-3.062,0.316 -2.949,0.074 -2.924,-0.121C-2.744,-0.087 -2.438,-0.098 -2.407,-0.013C-1.99,1.13 -0.933,1.526 0.018,2.047L0,2.385Z" style="fill:rgb(35,31,32);fill-rule:nonzero;"/>
                    </g>
                    <g transform="matrix(-0.991864,0.127302,0.127302,0.991864,80.8228,180.953)">
                        <path d="M0.16,-1.318C-0.133,-0.965 -0.329,-0.728 -0.526,-0.492C-0.292,-0.328 0.006,0.02 0.16,-0.038C0.411,-0.133 0.61,-0.474 0.736,-0.754C0.769,-0.824 0.439,-1.053 0.16,-1.318" style="fill:rgb(35,31,32);fill-rule:nonzero;"/>
                    </g>
                    <g transform="matrix(1,0,0,1,61.1282,162.504)">
                        <path d="M0,1.456C-0.382,1.456 -0.783,1.533 -1.143,1.439C-1.834,1.26 -2.51,1.006 -3.173,0.732C-3.35,0.659 -3.455,0.398 -3.593,0.224C-3.398,0.134 -3.165,-0.077 -3.015,-0.025C-1.979,0.327 -0.96,0.733 0.063,1.123C0.042,1.233 0.021,1.345 0,1.456" style="fill:rgb(35,31,32);fill-rule:nonzero;"/>
                    </g>
                    <g transform="matrix(1,0,0,1,55.2003,171.12)">
                        <path d="M0,1.501C-0.684,1.225 -1.357,0.976 -2.005,0.674C-2.12,0.62 -2.138,0.348 -2.2,0.176C-2.05,0.128 -1.869,0 -1.758,0.046C-1.118,0.316 -0.491,0.621 0.131,0.934C0.212,0.974 0.287,1.142 0.272,1.234C0.258,1.321 0.123,1.388 0,1.501" style="fill:rgb(35,31,32);fill-rule:nonzero;"/>
                    </g>
                    <g transform="matrix(1,0,0,1,54.9714,196.556)">
                        <path d="M0,-1.221C-0.082,-1.256 -0.164,-1.291 -0.246,-1.326C-0.972,-0.777 -1.13,-0.328 -0.678,0.47C-0.415,-0.188 -0.208,-0.704 0,-1.221M0.561,-0.918C0.26,-0.383 0.069,0.101 -0.251,0.471C-0.438,0.685 -0.988,0.895 -1.104,0.794C-1.384,0.55 -1.651,0.121 -1.653,-0.23C-1.656,-0.639 -1.444,-1.099 -1.191,-1.432C-0.972,-1.723 -0.413,-2.116 -0.269,-2.027C0.078,-1.81 0.27,-1.34 0.561,-0.918" style="fill:rgb(35,31,32);fill-rule:nonzero;"/>
                    </g>
                    <g transform="matrix(1,0,0,1,64.8992,140.373)">
                        <path d="M0,-0.437C-0.626,-0.111 -1.002,0.117 -1.404,0.283C-1.585,0.357 -1.819,0.306 -2.028,0.313C-1.939,0.114 -1.903,-0.16 -1.748,-0.267C-1.437,-0.485 -1.075,-0.673 -0.706,-0.754C-0.523,-0.794 -0.277,-0.57 0,-0.437" style="fill:rgb(35,31,32);fill-rule:nonzero;"/>
                    </g>
                    <g transform="matrix(0.693318,-0.720632,-0.720632,-0.693318,71.7807,140.468)">
                        <path d="M-0.644,-0.194C-0.765,0.29 -0.897,0.636 -0.921,0.99C-0.932,1.161 -0.742,1.348 -0.644,1.527C-0.497,1.403 -0.251,1.301 -0.221,1.151C-0.127,0.692 -0.041,0.191 -0.644,-0.194" style="fill:rgb(35,31,32);fill-rule:nonzero;"/>
                    </g>
                    <g transform="matrix(0.996091,0.0883286,0.0883286,-0.996091,60.3876,179.103)">
                        <path d="M0.042,-0.006C-0.17,0.232 -0.435,0.429 -0.403,0.514C-0.337,0.695 -0.132,0.913 0.042,0.934C0.209,0.954 0.409,0.745 0.593,0.635C0.436,0.452 0.278,0.268 0.042,-0.006" style="fill:rgb(35,31,32);fill-rule:nonzero;"/>
                    </g>
                    <g transform="matrix(1,0,0,1,51.1999,148.124)">
                        <path d="M0,-1.095C0.531,-0.958 0.975,-0.881 1.387,-0.72C1.536,-0.662 1.609,-0.403 1.716,-0.236C1.531,-0.157 1.339,0 1.159,-0.017C0.797,-0.051 0.432,-0.151 0.087,-0.278C-0.175,-0.375 -0.405,-0.559 -0.65,-0.705C-0.423,-0.841 -0.195,-0.978 0,-1.095" style="fill:rgb(35,31,32);fill-rule:nonzero;"/>
                    </g>
                    <g transform="matrix(1,0,0,1,81.7091,187.676)">
                        <path d="M0,-1.309C-0.265,-0.755 -0.269,-0.149 -1.024,0C-1.093,-0.778 -0.706,-1.091 0,-1.309" style="fill:rgb(236,209,200);fill-rule:nonzero;"/>
                    </g>
                    <g transform="matrix(1,0,0,1,54.9714,196.921)">
                        <path d="M0,-1.586C-0.208,-1.069 -0.415,-0.553 -0.678,0.105C-1.13,-0.693 -0.972,-1.142 -0.246,-1.691C-0.164,-1.656 -0.082,-1.621 0,-1.586" style="fill:rgb(236,209,200);fill-rule:nonzero;"/>
                    </g>
                    <g transform="matrix(0,-1,-1,0,64.3904,144.035)">
                        <path d="M-0.603,-0.603C-1.104,-0.603 -1.509,-0.332 -1.509,0.001C-1.509,0.334 -1.104,0.603 -0.603,0.603C-0.102,0.603 0.302,0.334 0.302,0.001C0.302,-0.332 -0.102,-0.603 -0.603,-0.603" style="fill:rgb(35,31,32);fill-rule:nonzero;"/>
                    </g>
                    <g transform="matrix(0,-1,-1,0,84.8157,144.702)">
                        <path d="M-0.556,-0.557C-1.017,-0.557 -1.391,-0.307 -1.391,0C-1.391,0.307 -1.017,0.556 -0.556,0.556C-0.095,0.556 0.278,0.307 0.278,0C0.278,-0.307 -0.095,-0.557 -0.556,-0.557" style="fill:rgb(35,31,32);fill-rule:nonzero;"/>
                    </g>
                    <g transform="matrix(0,-1,-1,0,88.329,144.593)">
                        <path d="M-0.556,-0.557C-1.016,-0.557 -1.391,-0.308 -1.391,-0.001C-1.391,0.307 -1.016,0.556 -0.556,0.556C-0.094,0.556 0.279,0.307 0.279,-0.001C0.279,-0.308 -0.094,-0.557 -0.556,-0.557" style="fill:rgb(35,31,32);fill-rule:nonzero;"/>
                    </g>
                    <g transform="matrix(0,-1,-1,0,69.7144,144.254)">
                        <path d="M-0.603,-0.603C-1.104,-0.603 -1.509,-0.333 -1.509,0.001C-1.509,0.334 -1.104,0.603 -0.603,0.603C-0.102,0.603 0.302,0.334 0.302,0.001C0.302,-0.333 -0.102,-0.603 -0.603,-0.603" style="fill:rgb(35,31,32);fill-rule:nonzero;"/>
                    </g>
                    <g transform="matrix(1,0,0,1,78.949,153.323)">
                        <path d="M0,6.102C-0.635,6.135 -0.943,5.934 -0.943,5.934C-0.943,5.934 -0.471,4.05 -0.526,2.787C-0.581,1.524 -0.417,-0.615 -0.417,-0.615C-0.417,-0.615 0.901,1.25 0.956,2.129C1.011,3.007 0.517,4.269 0.627,5.092C0.737,5.915 0.893,6.717 0.893,6.717L0,6.102Z" style="fill:rgb(79,79,81);fill-rule:nonzero;"/>
                    </g>
                </g>
            </g>
        </g>
    </g>
</svg>
