<svg clip-rule="evenodd" fill-rule="evenodd" stroke-miterlimit="10" viewBox="0 0 495 388" xmlns="http://www.w3.org/2000/svg"><path d="m0-8.299c.176-.413.315-.741.477-1.12-.158-.094-.33-.198-.517-.31-.15.359-.274.66-.384.92.147.177.275.33.424.51m2.229 1.992c-.106-.08-.254-.284-.419-.299-.306-.028-.713-.073-.726.423-.01.36.169.567.56.599.453.036.494-.273.585-.723m-14.471 3.111c.515.14.856.232 1.193.324.305-.481.2-.918-.2-1.437-.331.371-.627.703-.993 1.113m11.509-2.74c-.418.009-.838.401-.727.764.066.218.357.5.565.515.428.033.64-.317.631-.722-.006-.277-.036-.623-.469-.557m-27.806 25.022c.07 1.031.134 1.986.203 2.983.177-.054.328-.099.351-.106v-3.009c-.267.065-.403.097-.554.132m26.921-29.996c-.394.687-.339 1.355.091 1.566.282.139.636.225.788-.182.086-.229.179-.598.068-.729-.235-.273-.605-.43-.947-.655m-31.311 24.875c.068-.04.137-.08.206-.121 0-.392.015-.786-.008-1.177-.01-.164-.105-.325-.16-.486-.172.078-.407.112-.505.244-.245.331-.425.706-.631 1.062.365.159.732.319 1.098.478m28.127-37.825c.134-.236.402-.499.349-.647-.317-.898-.71-1.771-1.076-2.651l-.209.018c-.054.201-.206.437-.146.596.315.867.683 1.714 1.082 2.684m3.457 17.214c.276-.068.502-.101.707-.186.135-.055.325-.174.34-.285.028-.225-.034-.465-.075-.697-.104-.568-.614-.488-.963-.486-.16.001-.399.395-.461.646-.109.448.087.82.452 1.008m-11.098 4.027c-.23.494-.461.991-.692 1.489.504-.021.891-.16 1.287-.264.652-.171.819-.443.644-1.149-.389-.023-.787-.048-1.239-.076m-17.723 13.731c-1.63.077-2.517 1.172-2.08 2.494.694-.831 1.345-1.613 2.08-2.494m-2.178.308c-.02-.056-.041-.114-.06-.17-.248-.11-.54-.171-.733-.343-.192-.172-.287-.454-.392-.634-.903.58-1.104 1.626-.59 2.595.072-1.191 1.13-1.052 1.775-1.448m-13.942.6c.128-.648.161-1.322.402-1.91.248-.606.698-1.129 1.062-1.688-.736-.075-1.738.758-1.954 1.422-.239.725.021 1.851.49 2.176m48.061-19.455c.581.038.741-.147.807-.768.058-.534-.246-.896-.625-1.144-.336-.221-.487.167-.672.378-.056.064-.159.085-.239.129-.438.236-.544.63-.318 1.172.169.408.426.514.817.268.083-.052.21-.032.23-.035m-7.185 2.991c-1.09 1.591-1.098 1.887-.076 2.694.316-.47.628-.941.944-1.409.537-.8.449-1.007-.512-1.204-.122-.025-.243-.055-.356-.081m12.974-13.406c-.46.833-.992 1.799-1.451 2.63.465.496.952 1.017 1.451 1.549zm-19.597 17.011c-.5.214-1.213.126-1.352.734-.205.903-.214 1.852-.306 2.781l.177.032c.442-.496.885-.992 1.324-1.489.033-.037.049-.099.052-.151.035-.596.067-1.191.105-1.907m15.421-32.705c.259.424.498.807.73 1.194.11.186.161.444.319.559.736.534 1.501 1.03 2.225 1.52-.671-2.219-1.673-3.388-3.274-3.273m7.397 3.219c1.647-.472 1.789-1.899 1.549-3.242-.205-1.151-1.01-1.929-1.836-1.893 1.233 1.619 1.528 3.3.287 5.135m-15.605 22.34c.073.522.245 1.011.175 1.462-.082.516-.38.998-.568 1.457.501.257.928.475 1.372.701.454-.641.465-1.371.443-2.105-.025-.856-.721-1.119-1.422-1.515m-6.956 13.356c.109-1.051.23-2.064.303-3.079.011-.146-.181-.352-.333-.448-.095-.06-.35-.025-.426.06-.281.326-.539.677-.766 1.042-.692 1.107-.124 2.248 1.222 2.425m21.364-40.031c-.295-.544-.784-.541-1.287-.392-.313.093-.599.269-.909.375-.158.053-.34.034-.512.048.101-.152.169-.356.31-.445.324-.204.685-.353 1.03-.523-.024-.069-.047-.136-.071-.203-.725.186-1.449.373-1.988.512.613.601 1.229 1.207 1.871 1.836.638-.439 1.483-.983 2.564-.307-.203-.841-.555-1.154-1.008-.901m-21.127 35.098c0 .091-.03.197.005.272.137.294.232.709.467.823.176.085.633-.15.808-.367.554-.686.854-1.489.717-2.394-.078-.521-.377-.697-.857-.459-.867.431-1.129 1.219-1.14 2.125m17.508 5.97c.09.035.18.068.271.102.436-.769.884-1.532 1.301-2.31.077-.142.113-.399.037-.516-.509-.772-1.054-1.52-1.609-2.308zm-5.456-18.942c.31.377.171.64-.162.878-.111.079-.221.205-.259.331-.183.597.287 1.401.862 1.508.66.124 1.339-.39 1.369-1.09.016-.34-.05-.695-.145-1.023-.273-.939-.697-1.097-1.665-.604m-8.121 14.176c.073.005.144.01.217.015.503-.908 1.01-1.815 1.502-2.73.038-.07.008-.214-.044-.288-.25-.359-.519-.706-.803-1.088-.512.521-1.002 1.008-1.475 1.512-.072.076-.114.244-.085.345.218.749.455 1.491.688 2.234m16.447-31.79c.22-.084.414-.172.614-.231 1.062-.312 1.665-1.281 1.442-2.341-.025-.121-.049-.269-.129-.348-.646-.637-1.679-.638-2.381-.026-.189.164-.364.286-.185.585.147.25.264.363.593.293.478-.101.978-.133 1.468-.127.402.006.587.249.437.69-.075-.018-.147-.023-.208-.051-.61-.285-1.245-.172-1.707.196-.193.156-.026.762-.02 1.164 0 .033.025.067.076.196m-13.193 21.914c1.464.579 1.627 1.377 1.504 2.355-.086.672.224.827.716.967.151-.707.538-1.391-.138-2.055-.159-.158-.148-.57-.093-.84.074-.364.265-.703.341-.889-.221-.681-.405-1.244-.598-1.837-.065.051-.344.158-.39.329-.215.791-.637 1.426-1.342 1.97m11.993-20.21c.456-.865.645-1.793.385-2.732-.375-1.359-.95-2.625-2.263-3.366-.881-.498-1.865-.364-2.404.3 2.232.201 3.951 2.293 4.282 5.798m-21.853 29.189c-.618.874-1.154 1.802-1.858 2.577-.699.773-1.567 1.393-2.521 2.216.128.068.285.165.455.235.687.284 1.378.563 2.069.837.573.227.62.191.651-.418.063-1.27.249-2.539.858-3.653.335-.611.367-1.179.346-1.794m5.297-1.088c-.444.99-.587 2.148-1.818 2.546-.059.018-.124.086-.146.145-.339.936-.311 1.903-.301 2.883 1.284-.171 2.729-1.764 3.214-2.747.051-.104.087-.261.048-.36-.317-.817-.654-1.626-.997-2.467m10.77-33.596c-1.436-1.697-6.506-2.818-7.936-2.584.848.89 1.739 1.845 2.661 2.77.13.131.419.184.616.154.757-.119 1.5-.359 2.26-.413.823-.057 1.657.043 2.399.073m8.83 4.218c-.59.072-1.098.18-1.605.181-.4.001-.465.191-.551.51-.092.343-.307.649-.443.981-.081.198-.164.415-.159.62.02.801.079 1.601.116 2.402.009.216-.018.435-.008.651.042.911.144 1.822.121 2.731-.018.721-.186 1.439-.286 2.157.302-.695.568-1.397.756-2.118.531-2.037 1.136-4.063 1.08-6.203-.004-.12.117-.241.181-.361.133.076.268.152.376.212.113-.472.247-1.033.422-1.763m-16.451 2.15c-.22-.331-.397-.652-.623-.933-.702-.87-1.371-1.773-2.147-2.574-1.533-1.585-3.29-2.812-5.58-3.012-1.176-.102-2.133.71-2.293 1.966.365-.247.684-.494 1.031-.691.327-.187.693-.618 1.013.034.021.044.131.06.201.063.754.029 1.421.304 2.122.573 1.371.526 2.565 1.274 3.657 2.227.293.256.622.469.929.708.053.041.085.11.119.171.309.568.619 1.135.918 1.684.25-.083.403-.133.653-.216m11.202 33.804c0-.348.001-.578 0-.806-.006-1.464-.038-2.929-.005-4.392.011-.44.164-.852.015-1.32-.218-.675-.351-1.384-.473-2.085-.095-.552-.117-1.116-.18-1.755-1.641 2.956-1.318 8.651.643 10.358m-45.662 2.413c-.005-.062-.009-.124-.014-.186-.566-.178-1.122-.42-1.702-.522-2.007-.352-3.714 2.048-3.635 3.518.019.358.308.775.592 1.033.667.602 1.401.216 2.046-.081.406-.187.873-.533 1.028-.921.418-1.041.777-2.09 1.685-2.841m8.383 5.435c.178.063.305.127.441.154 1.021.21 2.073.32 3.057.643 1.051.344 1.98.088 2.93-.246.496-.176.972-.412 1.579-.672-.452-.258-.767-.406-1.045-.604-.395-.281-.812-.399-1.297-.48-.511-.084-1.037-.369-1.445-.702-.499-.409-.877-.965-1.325-1.442-.092-.098-.295-.205-.383-.166-.152.066-.298.226-.373.382-.19.4-.267.872-.521 1.222-.479.658-1.049 1.249-1.618 1.911m10.433 3.169c-.318.081-.486.124-.653.168-.938.241-1.872.493-2.812.722-.774.188-1.557.34-2.332.526-.097.024-.233.163-.235.251-.016.928-.01 1.855-.01 2.874.523-.103.903-.15 1.267-.252 1.44-.411 2.872-.847 4.312-1.253.398-.11.543-.382.542-.727 0-.738-.047-1.477-.079-2.309m6.36-52.176c.019.056.039.112.059.168.327 0 .658-.035.979.005 2.432.297 4.373 1.527 6.002 3.275 1.174 1.26 2.314 2.561 3.033 4.163.387.862.787 1.719 1.194 2.607.293-.107.564-.207.881-.323-.042-.231-.05-.453-.123-.651-.799-2.199-1.846-4.257-3.316-6.101-1.615-2.024-3.658-3.288-6.192-3.788-.237-.048-.45-.21-.774-.368-.525.306-1.135.66-1.743 1.013m-19.981 45.292c-.93-.46-1.985-1.024-3.076-1.505-.855-.378-1.539-.013-2.146.638-.663.711-.838 1.608-1.026 2.494-.116.544.245.974.822.888.592-.09 1.157-.387 1.724-.616.269-.106.517-.261.775-.396-.04.281-.08.563-.129.911 1.039.229 2.147.474 3.249.715-.062-1.014-.119-1.938-.193-3.129m5.324-6.267c.035.04.069.081.103.123.153-.083.301-.179.461-.247.42-.176.849-.49 1.269-.482 1.171.022 1.774-.526 2.336-1.526.812-1.449 1.892-2.746 2.827-4.129.207-.304.446-.725.388-1.04-.115-.609-.761-.731-1.259-.944-.374-.159-.687-.018-.911.302-.769 1.091-1.56 2.169-2.289 3.286-1 1.536-1.953 3.103-2.925 4.657m39.611-28.306c-.157.56-.317 1.119-.473 1.679-.35 1.254-.761 2.494-1.03 3.765-.424 2.003-.511 4.036-.044 6.048.126.539.445 1.034.735 1.682.613-1.074 1.15-1.948 1.176-3.055.056-2.247-.077-4.505.334-6.739.085-.465.253-.822.6-1.126.178-.155.317-.357.479-.545-.115-.084-.145-.125-.172-.124-1.116.063-1.741-.365-1.605-1.585m-5.014 4.132c1.092-.56 1.232-1.697 1.645-2.672.115.098.169.125.194.169.027.044.046.11.033.159-.257.99-.48 1.993-1.374 2.668-.192.146-.385.406-.414.634-.12.94-.21 1.887-.233 2.834-.005.206.285.448.489.611.062.05.344-.059.431-.171.292-.373.59-.756.798-1.179.993-2.03 1.106-4.232 1.193-6.435.005-.124-.102-.251-.147-.38-.053-.149-.128-.301-.133-.454-.032-.983.067-1.987-.1-2.944-.189-1.088-.619-2.132-1.554-2.918-.379 2.446-1.272 4.538-3.298 5.853.582.634 1.148 1.25 1.702 1.854.938-.605 1.619-1.43 1.843-2.683.581 1.027-.595 2.712-1.641 3.293.182.572.366 1.14.566 1.761m-25.51 39.24c-.217.532-.189.917.13 1.035.939.341 1.895.63 2.906.961-.359-2.674-.001-5.15 1.219-7.519-.852-.383-1.66-.721-2.442-1.111-.331-.165-.558-.093-.835.088-.565.37-1.113.807-1.734 1.037-1.036.385-2.117.65-3.115 1.145-.4.197-.811.365-1.218.547 1.393.518 2.775.919 4.172 1.272.279.071.472.109.53.426.094.502.218.998.329 1.489.272.055.546.056.758.17.151.082.216.319.321.485-.176.052-.352.148-.525.145-.168-.004-.333-.11-.496-.17m8.341-55.333c.307.106.615.208.922.318 1.723.617 3.339 1.408 4.616 2.776 2.029 2.172 3.438 4.689 4.284 7.532.036.123.197.29.305.294.709.026 1.418.013 2.14.013.01-.039.042-.095.033-.142-.182-.802-.296-1.63-.584-2.393-.127-.334-.429-.585-.384-1.019.012-.125-.258-.275-.389-.422-.09-.102-.243-.302-.23-.315.315-.305.075-.559-.086-.779-.863-1.186-1.704-2.391-2.628-3.528-1.145-1.413-2.456-2.605-4.419-2.745-1.218-.087-2.407.009-3.58.41m-16.695 55.474c-2.304.621-4.396 1.185-6.481 1.747 0 .776.008 1.504-.007 2.233-.003.121-.106.238-.163.357-.089-.118-.245-.23-.253-.354-.019-.271.065-.548.057-.821-.012-.396-.069-.792-.106-1.187-.069-.007-.139-.013-.209-.02-.068.131-.187.26-.195.394-.024.416.008.834-.007 1.251-.006.157-.08.313-.122.469-.07-.016-.141-.033-.212-.049-.023-.495-.046-.99-.072-1.548-.161.096-.248.156-.341.201-.575.274-1.164.788-1.726.762-.838-.041-1.591.177-2.377.303-1.718.274-3.441.526-5.152.837-1.104.201-1.089.241-1.256 1.325-.026.165-.181.309-.277.464l-.203-.083v-1.324c-.051-.017-.102-.036-.153-.053-.11.141-.29.27-.319.427-.082.447-.086.906-.155 1.355-.035.215-.146.416-.222.624-.065-.016-.131-.032-.196-.048v-1.917c-.04-.033-.08-.067-.12-.101-.114.127-.315.249-.326.384-.078.952-.117 1.906-.172 2.926.32-.061.498-.092.672-.131 1.125-.244 2.248-.503 3.377-.732 2.376-.485 4.676-1.22 6.921-2.13.15-.061.329-.134.475-.105.812.165 1.499-.123 2.19-.5.444-.241.931-.427 1.421-.549 1.724-.434 3.46-.819 5.184-1.254.2-.049.493-.282.501-.444.051-.872.024-1.749.024-2.709m-21.279 8.611c.059-1.019.121-2.07.186-3.163-.263.042-.487.078-.694.11-.068.32-.127.602-.188.882-.062.017-.125.032-.187.048-.072-.196-.226-.402-.201-.583.067-.489-.137-.593-.582-.685-2.422-.499-4.842-1.013-7.245-1.591-1.94-.468-3.861-1.018-5.78-1.565-1.128-.323-2.239-.701-3.348-1.081-.453-.154-.711-.077-.747.433-.029.42-.051.841-.079 1.26-.065.982.09 1.221 1.024 1.506 1.068.326 2.145.625 3.208.969.466.152.818.242.983-.394.046-.182.362-.393.564-.402.161-.007.343.264.498.429.057.061.082.168.091.256.066.664.518.851 1.09 1.018 2.393.695 4.775 1.431 7.155 2.167 1.374.424 2.743.827 4.252.386m53.464-41.144c.923 1.421 1.334 3.027 1.543 4.697.231 1.832.443 3.666.697 5.495.212 1.529.554 3.013 1.298 4.404.508.954 1.275 1.655 2.003 2.396.376.381.909.609 1.451.957.089-.38.167-.589.184-.801.152-2.011.288-4.023.445-6.034.035-.433-.154-.687-.507-.882-.636-.351-.629-.426-.174-1.021.198-.258.47-.619.42-.878-.235-1.257-.482-2.526-.888-3.735-.68-2.029-1.883-3.768-3.352-5.309-.523-.549-1.167-.981-1.763-1.472-.449.726-.432.71-.004 1.159 1.8 1.893 2.847 4.2 3.537 6.674.473 1.691.896 3.402 1.225 5.126.239 1.251.296 2.537.413 3.807.013.126-.118.265-.182.398-.048-.013-.098-.027-.146-.04-.039-.305-.075-.611-.119-.916-.182-1.249-.313-2.509-.565-3.745-.252-1.237-.682-2.437-.934-3.675-.471-2.313-1.536-4.347-2.83-6.277-.285-.425-.681-.775-1.044-1.178-.285.341-.482.578-.708.85m10.508 2.646c-.076.024-.153.049-.229.073-.082-.146-.228-.288-.237-.439-.111-1.899-.197-3.801-.305-5.7-.096-1.717-.129-3.442-.338-5.145-.254-2.071-.656-4.124-1.01-6.183-.064-.371-.203-.729-.352-1.246-.137.41-.26.646-.289.894-.155 1.307-.325 2.614-.414 3.925-.061.915.049.981.998 1.141.811.138.993.528.555 1.21-.077.119-.23.194-.301.315-.225.382-.553.76-.612 1.171-.152 1.044-.1 2.118-.271 3.157-.312 1.898.017 3.772.206 5.631.195 1.931.7 3.831 1.078 5.742.242 1.217.618 2.385 1.309 3.552.241-.413.497-.735.63-1.103 1.197-3.303 1.39-6.619.049-9.935-.125-.306-.026-.483.229-.558.555-.164.605-.502.43-.978-.047-.128-.025-.291-.007-.434.27-2.171.083-4.334-.257-6.469-.309-1.949-.781-3.876-1.273-5.788-.228-.885-.55-1.777-1.22-2.495-.118.086-.209.147-.294.214-.083.066-.161.139-.221.191 1.744 6.335 1.95 12.795 2.146 19.257m-17.24-13.648c.141.189.26.348.379.508-.212.064-.421.144-.637.189-.338.073-.71.058-1.02.19-1.719.734-3.449 3.402-3.377 5.257.097 2.488 1.118 4.485 3.313 5.771.818.48 1.709.745 2.684.579.555-.093 1.12-.137 1.668-.259.183-.041.404-.221.473-.393.266-.651.813-.903 1.406-.836.966.108 1.494-.446 1.886-1.129 1.198-2.091 1.407-4.332.779-6.64-.237-.869-.567-1.767-1.375-2.249-.875-.522-1.813-.976-2.778-1.294-1.152-.379-2.308-.099-3.401.306m-64.564 43.823c-.001.055-.001.11-.002.165 1.814.578 3.618 1.185 5.443 1.723 1.298.385 2.619.701 3.94 1.007 1.898.438 3.801.852 5.708 1.249.661.138 1.389.072 1.997.32.496.202.892.19 1.357.065 1.08-.289 2.154-.617 3.248-.832 1.636-.323 3.29-.556 4.932-.843.646-.114 1.313-.458 1.919-.364.837.129 1.483-.073 2.094-.544.926-.717 1.933-1.23 3.104-1.394.273-.039.546-.09.808-.171 2.415-.751 4.824-1.52 7.244-2.255.444-.136.929-.138 1.39-.222.647-.118 1.29-.257 1.933-.387-.008-.064-.016-.127-.024-.19-.62-.214-1.233-.451-1.861-.637-3.224-.954-6.573-1.353-9.822-2.204-1.223-.321-2.461-.579-3.697-.842-.226-.048-.503-.048-.708.042-1.296.563-2.054.382-2.872-.729-1.02.639-2.079 1.064-3.307.624-.073-.027-.179.023-.266.048-.951.281-1.904.553-2.85.848-1.891.589-3.764 1.239-5.671 1.772-2.612.73-5.256 1.352-7.875 2.063-1.552.423-3.077.943-4.622 1.391-.5.145-1.026.199-1.54.297m43.62-31.375c-.013.05-.046.104-.034.143.696 2.265 2.179 3.901 4.231 4.975 2.54 1.33 5.279 1.409 8.053.964.484-.077.96.057 1.154.386.443.755 1.188 1.487.622 2.517-.07.125-.039.308-.06.507.746.015 1.324.223 1.463 1.11.333-.215.612-.329.805-.529 1.052-1.087 1.896-2.323 2.618-3.653.444-.819.549-1.604.116-2.449-.058-.115-.04-.37.043-.437.495-.403.976-.77 1.305-1.373.29-.531.851-.914 1.259-1.328-.83-.298-1.694-.451-2.385-.885-2.206-1.383-3.381-3.463-3.382-6.052-.002-2.236.965-4.103 2.805-5.446.325-.238.411-.478.274-.842-.201-.531-.379-1.07-.576-1.602-.15-.4-.335-.773-.874-.718.218-.54-.088-1.234-.804-1.873-.191.153-.377.333-.593.46-.11.064-.277.033-.418.044.029-.143.008-.341.095-.417.198-.173.449-.288.678-.426-.3-.367-.46-.491-.607-.629-.594-.555-.589-.552-1.249-.104-.082.056-.224.023-.338.031-.006-.133-.061-.293-.006-.392.1-.183.265-.331.414-.507-.133-.121-.222-.213-.323-.288-.163-.12-.327-.238-.502-.339-.549-.321-.755-.277-1.147.225-.045.058-.069.152-.126.176-.132.057-.278.082-.418.12-.008-.151-.073-.337-.01-.448.121-.216.317-.39.487-.586-1.134-.653-1.129-.649-1.949.23-.079.084-.267.068-.404.098-.009-.143-.069-.31-.015-.425.088-.186.251-.34.408-.539-.573-.252-1.062-.245-1.56.06-2.647 1.616-4.545 3.948-6.21 6.499-.936 1.436-1.697 2.963-2.189 4.609-.44 1.475-.839 2.963-1.255 4.445.173.021.213.008.231-.019.051-.076.089-.16.135-.24.874-1.511 1.998-2.804 3.409-3.833.311-.225.52-.403.382-.835-.058-.181.026-.443.122-.63.077-.151.258-.314.412-.335.114-.015.293.167.378.303.115.181.164.4.238.595 1.26-.024 1.26-.024 1.351.264-.472.124-.987.169-1.411.388-2.553 1.318-4.172 3.461-5.195 6.087-.394 1.011-.143 1.856.63 2.194.564.244 1.169.429 1.776.538 1.306.232 2.625.243 3.926-.073.284-.069.549-.22.852-.346-.106.722-.287.911-.995 1.012-1.898.269-3.787.363-5.637-.382m8.635 26.152c-.178.191-.362.316-.446.489-.813 1.672-.85 3.468-.819 5.276.014.863.303 1.487 1.251 1.631.215.032.418.136.631.191 1.757.458 3.504.965 5.279 1.347 1.393.301 2.726.861 4.239.674 1.958-.243 3.836-.642 5.514-1.709.739-.469 1.529-.958 1.704-1.92.162-.898.336-1.809.342-2.716.028-3.58.05-7.161-.044-10.738-.067-2.551-.399-5.086-1.257-7.515-.576-1.629-1.409-3.066-3.044-3.871-.276-.136-.472-.159-.621.163-.13.285-.279.561-.441.825-1.137 1.862-2.27 3.725-3.422 5.577-.824 1.322-1.598 2.693-3.092 3.419-.434.213-.83.506-1.255.737-.082.043-.231-.018-.338-.057-.133-.047-.248-.156-.382-.18-.95-.169-1.524-.754-1.831-1.633-.13-.377-.23-.764-.344-1.146-.29.966-.482 1.935-.599 2.914-.097.809.058.986.887.899 1.506-.159 2.982-.485 4.263-1.35 2.118-1.431 3.783-3.287 5.056-5.503.122-.211.335-.368.506-.55.068.035.138.071.205.106-.045.225-.027.492-.146.667-.666.983-1.299 1.998-2.065 2.899-1.434 1.686-3.015 3.211-5.227 3.872-1.169.35-2.335.668-3.57.451-1.315-.231-2.527-.772-3.675-1.416-.433-.242-.758-.763-1.007-1.224-.287-.528-.336-1.198-.662-1.69-.933-1.404-2.462-1.662-3.985-1.872-.092-.013-.239.036-.288.106-.387.562-.756 1.135-1.135 1.711.12.064.152.08.183.098.199.112.577.253.564.33-.067.402-.404.233-.663.22-1.01-.054-2.027-.098-2.961.379-1.513.772-2.891 1.737-3.987 3.051-.278.331-.502.728-.665 1.129-.261.644-.267 1.336.228 1.861.48.511 1.159.515 1.806.349.289-.073.547-.265.821-.396.756-.364 1.511-.73 2.276-1.078.153-.07.344-.061.519-.089-.079.197-.134.408-.245.583-.059.094-.22.122-.332.184-.317.176-.422.416-.166.71.418.48.795 1.027 1.3 1.392.366.264.913.371 1.38.372.36.001.609.02.86.295.58.635 1.297.965 2.17.763.866-.2 1.679-.52 2.33-1.167.433-.431.956-.519 1.513-.294.475.192.926.442 1.401.635s.893.619 1.488.385c.065-.026.188.074.275.13.249.161.471.398.742.485 2.044.656 4.059.572 6.084-.182 2.126-.791 3.779-2.16 5.083-3.959.662-.917 1.174-1.942 1.768-2.909.083-.137.247-.222.374-.331.069.191.155.38.199.577.015.067-.08.158-.123.239-.346.64-.691 1.28-1.05 1.946.574.288 1.115.179 1.661-.076-.465.971-1.254.805-2.042.595-1.636 2.317-3.655 4.081-6.427 4.835-2.041.555-4.057.565-6.039-.268-.152-.064-.336-.057-.507-.082zm19.412-46.237c-.413.961-1.004 1.784-1.884 2.373-.488.327-.988.635-1.469.971-.118.082-.271.26-.25.362.064.313.205.609.338.979 1.553-.912 2.975-1.853 3.972-3.348.073.168.12.319.065.398-.311.447-.58.955-.987 1.294-.847.706-1.779 1.309-2.654 1.981-.129.099-.18.344-.198.527-.018.174.069.358.086.538.083.932.08.932.819 1.146 1.308-.504 2.253-1.228 2.824-2.409.549-1.141 1.142-2.247.825-3.612-.19-.088-.422-.285-.655-.285-.433 0-.573-.223-.664-.574-.031-.117-.12-.218-.182-.328-.259-.485-.517-.968-.799-1.497-.218.242-.325.362-.455.506-.732-.632-1.504-.89-2.432-.676-.834.192-1.689.296-2.629.455.706 1.065 1.307 1.971 1.906 2.875.638-.327 1.226-.63 1.815-.933.033.052.065.104.098.155-.21.839-1.277.734-1.656 1.477.06.146.145.355.245.597.279-.165.497-.293.714-.422 1.081-.638 2.123-1.313 2.739-2.474.046-.084.307-.053.468-.076m-66.874 56.148c-.376 1.079-.387 1.113-1.43.809-1.437-.42-2.859-.897-4.286-1.351-.421-.134-.604-.399-.59-.864.034-1.094.005-2.19.037-3.284.004-.131.205-.334.349-.369.498-.121 1.021-.144 1.514-.279 1.462-.398 2.91-.845 4.371-1.249 2.191-.603 4.391-1.176 6.581-1.783 2.052-.568 4.1-1.145 6.14-1.75 1.402-.417 2.786-.89 4.27-1.367-.825-.459-.985-1.204-1.062-1.966-.177-1.807 1.196-2.883 2.866-2.982.282-.017.584-.062.834-.183 1.267-.617 2.428-.169 3.604.289.322.126.685.146 1.029.217.674.142 1.403.168 2.008.454.88.415 1.671 1.018 2.535 1.562.422-.154.609-.462.578-1.013-.072-1.269.729-2.158 1.594-2.886 1.275-1.072 2.162-2.396 2.977-3.81.714-1.236 1.477-2.445 2.256-3.642.7-1.072 1.429-2.125 2.183-3.16.492-.672 1.049-.759 1.77-.36.35.194.716.372 1.028.616.681.534.611 1.517-.136 2.335-.061.067-.149.114-.197.189-.497.766-.986 1.537-1.547 2.413 2.543.187 4.324 1.377 5.236 3.923.646-.465 1.317-.804 1.79-1.322.674-.738 1.205-1.605 1.791-2.421.404-.565.799-1.135 1.191-1.708.11-.162.217-.331.295-.51.552-1.254 1.038-2.543 2.026-3.55.07-.07.07-.212.102-.32-.129-.016-.261-.061-.384-.042-3.111.485-6.167.397-8.962-1.228-2.277-1.322-3.695-3.35-4.329-5.915-.047-.19-.178-.36-.226-.548-.111-.438-.31-.893-.27-1.32.125-1.347.296-2.694.536-4.025.366-2.03 1.028-3.982 1.982-5.807 1.257-2.403 2.847-4.58 4.763-6.509.025-.026.046-.061.076-.079 1.064-.626 1.397-1.739 1.763-2.786.491-1.405 1.375-2.312 2.727-2.959 1.32-.632 2.661-.888 4.084-.895.851-.005 1.703-.166 2.554.105.235.076.536-.068.81-.085 1.882-.117 3.7.315 5.464.852 1.046.318 1.989.992 2.951 1.551.294.169.506.204.796.042 1.483-.834 3.144-1.172 4.759-1.601.571-.152 1.254.117 1.883.199.289.036.583.144.861.112.813-.095 1.69.314 2.106 1.032.669 1.16.811 2.383.383 3.649-.142.423-.173.714.087 1.161.472.813.831 1.718 1.088 2.626.635 2.239 1.184 4.504 1.31 6.844.095 1.737.16 3.478.24 5.216.012.256.066.515.044.768-.023.281-.021.721-.182.808-.688.367-.46.88-.279 1.35.571 1.475.555 3.01.545 4.549-.011 1.706-.402 3.333-1.015 4.914-.085.221-.161.468-.313.638-.245.276-.55.498-.829.743-.204-.251-.501-.471-.598-.758-.515-1.521-1.069-3.04-1.435-4.6-.372-1.581-.537-3.21-.795-4.817-.022-.143-.057-.284-.206-.466-.141.313-.211.699-.438.927-.643.64-.253 1.202-.04 1.861.499 1.547.895 3.127 1.323 4.697.105.383.048.724-.345.949-.117.066-.19.209-.356.402 1.022.406.918 1.246.854 2.057-.148 1.896-.289 3.793-.48 5.686-.112 1.102-.768 1.348-1.736.698-.317-.213-.62-.45-.892-.65-.505.798-.986 1.583-1.496 2.347-.179.27-.409.518-.655.731-.216.187-.432.337-.731-.005-1.694-1.927-2.384-4.201-2.276-6.709.073-1.666.268-3.345.929-4.897.685-1.61.48-3.208.066-4.801-.283-1.091-.699-2.149-1.061-3.219-.035-.102-.09-.211-.168-.28-.107-.095-.243-.155-.367-.229-.01.132-.047.271-.024.398.043.232.12.46.188.688.21.709.154 1.373-.323 1.891.222.423.432.798.616 1.185.06.127.118.318.066.426-.424.873-.323 1.847-.564 2.753-.041.158-.077.362-.012.495.287.587.244 1.156-.137 1.651-.147.193-.537.4-.708.331-.32-.13-.655-.409-.806-.715-.1-.206.089-.569.191-.848.021-.058.249-.105.332-.06.076.04.115.207.117.319.002.123-.116.271-.077.365.07.171.219.309.335.462.12-.094.283-.16.351-.281.35-.628.141-1.06-.56-1.209-.771-.162-1.161-.799-1.015-1.621.029-.167-.032-.352-.117-.521-.234.475-.439.89-.243 1.456.238.696-.166 1.228-.857 1.537 1.901 2.203 2.545 4.848 2.813 7.596.192 1.979.244 3.975.297 5.965.061 2.309.068 4.622.075 6.932.002.823-.05 1.647-.108 2.467-.033.429-.014.806.399 1.052.061.036.11.096.162.148.821.839.825.992.207 1.989-.102.164-.077.431-.057.647.057.631.285 1.304-.416 1.736-.17.106-.407.104-.613.152.082-.183.122-.406.253-.539.336-.339.414-.703.235-1.248-.269.243-.464.45-.689.617-.32.239-.653.468-1.003.657-.09.048-.272-.074-.411-.117.079-.104.135-.252.239-.302.883-.43 1.571-1.061 2.087-1.893.491-.794.456-.947-.409-1.481-.079.109-.174.214-.239.337-1.074 1.965-2.893 2.838-4.951 3.304-1.081.246-2.19.376-3.289.535-.503.074-1.025.17-1.521.11-.586-.07-1.152-.298-1.729-.456-1.621-.442-3.251-.858-4.861-1.336-2.141-.635-4.263-1.326-6.401-1.973-.266-.08-.58-.082-.856-.03-.685.128-1.363.285-2.033.473-.576.162-1.129.412-1.705.573-1.129.314-2.271.581-3.4.893-.846.234-1.673.535-2.523.756-1.078.281-2.176.489-3.253.774-.524.138-1.029.357-1.523.585-.74.34-1.481.624-2.321.54-.172-.018-.358.047-.529.099-2.222.683-4.434 1.401-6.671 2.041-.783.222-1.627.221-2.433.377-.749.145-1.494.33-2.226.55-1.806.544-3.463-.08-5.145-.594-2.367-.724-4.74-1.433-7.12-2.11-.456-.129-.713-.277-.706-.789.003-.233-.132-.467-.206-.701" fill="#231f20" fill-rule="nonzero" transform="matrix(5.55556 0 0 5.55556 397.36817888 217.33341804)"/><path d="m0-8.299c.176-.413.315-.741.477-1.12-.158-.094-.33-.198-.517-.31-.15.359-.274.66-.384.92.147.177.275.33.424.51zm2.229 1.992c-.106-.08-.254-.284-.419-.299-.306-.028-.713-.073-.726.423-.01.36.169.567.56.599.453.036.494-.273.585-.723zm-14.471 3.111c.515.14.856.232 1.193.324.305-.481.2-.918-.2-1.437-.331.371-.627.703-.993 1.113zm11.509-2.74c-.418.009-.838.401-.727.764.066.218.357.5.565.515.428.033.64-.317.631-.722-.006-.277-.036-.623-.469-.557zm-27.806 25.022c.07 1.031.134 1.986.203 2.983.177-.054.328-.099.351-.106v-3.009c-.267.065-.403.097-.554.132zm26.921-29.996c-.394.687-.339 1.355.091 1.566.282.139.636.225.788-.182.086-.229.179-.598.068-.729-.235-.273-.605-.43-.947-.655zm-31.311 24.875c.068-.04.137-.08.206-.121 0-.392.015-.786-.008-1.177-.01-.164-.105-.325-.16-.486-.172.078-.407.112-.505.244-.245.331-.425.706-.631 1.062.365.159.732.319 1.098.478zm28.127-37.825c.134-.236.402-.499.349-.647-.317-.898-.71-1.771-1.076-2.651l-.209.018c-.054.201-.206.437-.146.596.315.867.683 1.714 1.082 2.684zm3.457 17.214c.276-.068.502-.101.707-.186.135-.055.325-.174.34-.285.028-.225-.034-.465-.075-.697-.104-.568-.614-.488-.963-.486-.16.001-.399.395-.461.646-.109.448.087.82.452 1.008zm-11.098 4.027c-.23.494-.461.991-.692 1.489.504-.021.891-.16 1.287-.264.652-.171.819-.443.644-1.149-.389-.023-.787-.048-1.239-.076zm-17.723 13.731c-1.63.077-2.517 1.172-2.08 2.494.694-.831 1.345-1.613 2.08-2.494zm-2.178.308c-.02-.056-.041-.114-.06-.17-.248-.11-.54-.171-.733-.343-.192-.172-.287-.454-.392-.634-.903.58-1.104 1.626-.59 2.595.072-1.191 1.13-1.052 1.775-1.448zm-13.942.6c.128-.648.161-1.322.402-1.91.248-.606.698-1.129 1.062-1.688-.736-.075-1.738.758-1.954 1.422-.239.725.021 1.851.49 2.176zm48.061-19.455c.581.038.741-.147.807-.768.058-.534-.246-.896-.625-1.144-.336-.221-.487.167-.672.378-.056.064-.159.085-.239.129-.438.236-.544.63-.318 1.172.169.408.426.514.817.268.083-.052.21-.032.23-.035zm-7.185 2.991c-1.09 1.591-1.098 1.887-.076 2.694.316-.47.628-.941.944-1.409.537-.8.449-1.007-.512-1.204-.122-.025-.243-.055-.356-.081zm12.974-13.406c-.46.833-.992 1.799-1.451 2.63.465.496.952 1.017 1.451 1.549zm-19.597 17.011c-.5.214-1.213.126-1.352.734-.205.903-.214 1.852-.306 2.781l.177.032c.442-.496.885-.992 1.324-1.489.033-.037.049-.099.052-.151.035-.596.067-1.191.105-1.907zm15.421-32.705c.259.424.498.807.73 1.194.11.186.161.444.319.559.736.534 1.501 1.03 2.225 1.52-.671-2.219-1.673-3.388-3.274-3.273zm7.397 3.219c1.647-.472 1.789-1.899 1.549-3.242-.205-1.151-1.01-1.929-1.836-1.893 1.233 1.619 1.528 3.3.287 5.135zm-15.605 22.34c.073.522.245 1.011.175 1.462-.082.516-.38.998-.568 1.457.501.257.928.475 1.372.701.454-.641.465-1.371.443-2.105-.025-.856-.721-1.119-1.422-1.515zm-6.956 13.356c.109-1.051.23-2.064.303-3.079.011-.146-.181-.352-.333-.448-.095-.06-.35-.025-.426.06-.281.326-.539.677-.766 1.042-.692 1.107-.124 2.248 1.222 2.425zm21.364-40.031c-.295-.544-.784-.541-1.287-.392-.313.093-.599.269-.909.375-.158.053-.34.034-.512.048.101-.152.169-.356.31-.445.324-.204.685-.353 1.03-.523-.024-.069-.047-.136-.071-.203-.725.186-1.449.373-1.988.512.613.601 1.229 1.207 1.871 1.836.638-.439 1.483-.983 2.564-.307-.203-.841-.555-1.154-1.008-.901zm-21.127 35.098c0 .091-.03.197.005.272.137.294.232.709.467.823.176.085.633-.15.808-.367.554-.686.854-1.489.717-2.394-.078-.521-.377-.697-.857-.459-.867.431-1.129 1.219-1.14 2.125zm17.508 5.97c.09.035.18.068.271.102.436-.769.884-1.532 1.301-2.31.077-.142.113-.399.037-.516-.509-.772-1.054-1.52-1.609-2.308zm-5.456-18.942c.31.377.171.64-.162.878-.111.079-.221.205-.259.331-.183.597.287 1.401.862 1.508.66.124 1.339-.39 1.369-1.09.016-.34-.05-.695-.145-1.023-.273-.939-.697-1.097-1.665-.604zm-8.121 14.176c.073.005.144.01.217.015.503-.908 1.01-1.815 1.502-2.73.038-.07.008-.214-.044-.288-.25-.359-.519-.706-.803-1.088-.512.521-1.002 1.008-1.475 1.512-.072.076-.114.244-.085.345.218.749.455 1.491.688 2.234zm16.447-31.79c.22-.084.414-.172.614-.231 1.062-.312 1.665-1.281 1.442-2.341-.025-.121-.049-.269-.129-.348-.646-.637-1.679-.638-2.381-.026-.189.164-.364.286-.185.585.147.25.264.363.593.293.478-.101.978-.133 1.468-.127.402.006.587.249.437.69-.075-.018-.147-.023-.208-.051-.61-.285-1.245-.172-1.707.196-.193.156-.026.762-.02 1.164 0 .033.025.067.076.196zm-13.193 21.914c1.464.579 1.627 1.377 1.504 2.355-.086.672.224.827.716.967.151-.707.538-1.391-.138-2.055-.159-.158-.148-.57-.093-.84.074-.364.265-.703.341-.889-.221-.681-.405-1.244-.598-1.837-.065.051-.344.158-.39.329-.215.791-.637 1.426-1.342 1.97zm11.993-20.21c.456-.865.645-1.793.385-2.732-.375-1.359-.95-2.625-2.263-3.366-.881-.498-1.865-.364-2.404.3 2.232.201 3.951 2.293 4.282 5.798zm-21.853 29.189c-.618.874-1.154 1.802-1.858 2.577-.699.773-1.567 1.393-2.521 2.216.128.068.285.165.455.235.687.284 1.378.563 2.069.837.573.227.62.191.651-.418.063-1.27.249-2.539.858-3.653.335-.611.367-1.179.346-1.794zm5.297-1.088c-.444.99-.587 2.148-1.818 2.546-.059.018-.124.086-.146.145-.339.936-.311 1.903-.301 2.883 1.284-.171 2.729-1.764 3.214-2.747.051-.104.087-.261.048-.36-.317-.817-.654-1.626-.997-2.467zm10.77-33.596c-1.436-1.697-6.506-2.818-7.936-2.584.848.89 1.739 1.845 2.661 2.77.13.131.419.184.616.154.757-.119 1.5-.359 2.26-.413.823-.057 1.657.043 2.399.073zm8.83 4.218c-.59.072-1.098.18-1.605.181-.4.001-.465.191-.551.51-.092.343-.307.649-.443.981-.081.198-.164.415-.159.62.02.801.079 1.601.116 2.402.009.216-.018.435-.008.651.042.911.144 1.822.121 2.731-.018.721-.186 1.439-.286 2.157.302-.695.568-1.397.756-2.118.531-2.037 1.136-4.063 1.08-6.203-.004-.12.117-.241.181-.361.133.076.268.152.376.212.113-.472.247-1.033.422-1.763zm-16.451 2.15c-.22-.331-.397-.652-.623-.933-.702-.87-1.371-1.773-2.147-2.574-1.533-1.585-3.29-2.812-5.58-3.012-1.176-.102-2.133.71-2.293 1.966.365-.247.684-.494 1.031-.691.327-.187.693-.618 1.013.034.021.044.131.06.201.063.754.029 1.421.304 2.122.573 1.371.526 2.565 1.274 3.657 2.227.293.256.622.469.929.708.053.041.085.11.119.171.309.568.619 1.135.918 1.684.25-.083.403-.133.653-.216zm11.202 33.804c0-.348.001-.578 0-.806-.006-1.464-.038-2.929-.005-4.392.011-.44.164-.852.015-1.32-.218-.675-.351-1.384-.473-2.085-.095-.552-.117-1.116-.18-1.755-1.641 2.956-1.318 8.651.643 10.358zm-45.662 2.413c-.005-.062-.009-.124-.014-.186-.566-.178-1.122-.42-1.702-.522-2.007-.352-3.714 2.048-3.635 3.518.019.358.308.775.592 1.033.667.602 1.401.216 2.046-.081.406-.187.873-.533 1.028-.921.418-1.041.777-2.09 1.685-2.841zm8.383 5.435c.178.063.305.127.441.154 1.021.21 2.073.32 3.057.643 1.051.344 1.98.088 2.93-.246.496-.176.972-.412 1.579-.672-.452-.258-.767-.406-1.045-.604-.395-.281-.812-.399-1.297-.48-.511-.084-1.037-.369-1.445-.702-.499-.409-.877-.965-1.325-1.442-.092-.098-.295-.205-.383-.166-.152.066-.298.226-.373.382-.19.4-.267.872-.521 1.222-.479.658-1.049 1.249-1.618 1.911zm10.433 3.169c-.318.081-.486.124-.653.168-.938.241-1.872.493-2.812.722-.774.188-1.557.34-2.332.526-.097.024-.233.163-.235.251-.016.928-.01 1.855-.01 2.874.523-.103.903-.15 1.267-.252 1.44-.411 2.872-.847 4.312-1.253.398-.11.543-.382.542-.727 0-.738-.047-1.477-.079-2.309zm6.36-52.176c.019.056.039.112.059.168.327 0 .658-.035.979.005 2.432.297 4.373 1.527 6.002 3.275 1.174 1.26 2.314 2.561 3.033 4.163.387.862.787 1.719 1.194 2.607.293-.107.564-.207.881-.323-.042-.231-.05-.453-.123-.651-.799-2.199-1.846-4.257-3.316-6.101-1.615-2.024-3.658-3.288-6.192-3.788-.237-.048-.45-.21-.774-.368-.525.306-1.135.66-1.743 1.013zm-19.981 45.292c-.93-.46-1.985-1.024-3.076-1.505-.855-.378-1.539-.013-2.146.638-.663.711-.838 1.608-1.026 2.494-.116.544.245.974.822.888.592-.09 1.157-.387 1.724-.616.269-.106.517-.261.775-.396-.04.281-.08.563-.129.911 1.039.229 2.147.474 3.249.715-.062-1.014-.119-1.938-.193-3.129zm5.324-6.267c.035.04.069.081.103.123.153-.083.301-.179.461-.247.42-.176.849-.49 1.269-.482 1.171.022 1.774-.526 2.336-1.526.812-1.449 1.892-2.746 2.827-4.129.207-.304.446-.725.388-1.04-.115-.609-.761-.731-1.259-.944-.374-.159-.687-.018-.911.302-.769 1.091-1.56 2.169-2.289 3.286-1 1.536-1.953 3.103-2.925 4.657zm39.611-28.306c-.157.56-.317 1.119-.473 1.679-.35 1.254-.761 2.494-1.03 3.765-.424 2.003-.511 4.036-.044 6.048.126.539.445 1.034.735 1.682.613-1.074 1.15-1.948 1.176-3.055.056-2.247-.077-4.505.334-6.739.085-.465.253-.822.6-1.126.178-.155.317-.357.479-.545-.115-.084-.145-.125-.172-.124-1.116.063-1.741-.365-1.605-1.585zm-5.014 4.132c1.092-.56 1.232-1.697 1.645-2.672.115.098.169.125.194.169.027.044.046.11.033.159-.257.99-.48 1.993-1.374 2.668-.192.146-.385.406-.414.634-.12.94-.21 1.887-.233 2.834-.005.206.285.448.489.611.062.05.344-.059.431-.171.292-.373.59-.756.798-1.179.993-2.03 1.106-4.232 1.193-6.435.005-.124-.102-.251-.147-.38-.053-.149-.128-.301-.133-.454-.032-.983.067-1.987-.1-2.944-.189-1.088-.619-2.132-1.554-2.918-.379 2.446-1.272 4.538-3.298 5.853.582.634 1.148 1.25 1.702 1.854.938-.605 1.619-1.43 1.843-2.683.581 1.027-.595 2.712-1.641 3.293.182.572.366 1.14.566 1.761zm-25.51 39.24c-.217.532-.189.917.13 1.035.939.341 1.895.63 2.906.961-.359-2.674-.001-5.15 1.219-7.519-.852-.383-1.66-.721-2.442-1.111-.331-.165-.558-.093-.835.088-.565.37-1.113.807-1.734 1.037-1.036.385-2.117.65-3.115 1.145-.4.197-.811.365-1.218.547 1.393.518 2.775.919 4.172 1.272.279.071.472.109.53.426.094.502.218.998.329 1.489.272.055.546.056.758.17.151.082.216.319.321.485-.176.052-.352.148-.525.145-.168-.004-.333-.11-.496-.17zm8.341-55.333c.307.106.615.208.922.318 1.723.617 3.339 1.408 4.616 2.776 2.029 2.172 3.438 4.689 4.284 7.532.036.123.197.29.305.294.709.026 1.418.013 2.14.013.01-.039.042-.095.033-.142-.182-.802-.296-1.63-.584-2.393-.127-.334-.429-.585-.384-1.019.012-.125-.258-.275-.389-.422-.09-.102-.243-.302-.23-.315.315-.305.075-.559-.086-.779-.863-1.186-1.704-2.391-2.628-3.528-1.145-1.413-2.456-2.605-4.419-2.745-1.218-.087-2.407.009-3.58.41zm-16.695 55.474c-2.304.621-4.396 1.185-6.481 1.747 0 .776.008 1.504-.007 2.233-.003.121-.106.238-.163.357-.089-.118-.245-.23-.253-.354-.019-.271.065-.548.057-.821-.012-.396-.069-.792-.106-1.187-.069-.007-.139-.013-.209-.02-.068.131-.187.26-.195.394-.024.416.008.834-.007 1.251-.006.157-.08.313-.122.469-.07-.016-.141-.033-.212-.049-.023-.495-.046-.99-.072-1.548-.161.096-.248.156-.341.201-.575.274-1.164.788-1.726.762-.838-.041-1.591.177-2.377.303-1.718.274-3.441.526-5.152.837-1.104.201-1.089.241-1.256 1.325-.026.165-.181.309-.277.464l-.203-.083v-1.324c-.051-.017-.102-.036-.153-.053-.11.141-.29.27-.319.427-.082.447-.086.906-.155 1.355-.035.215-.146.416-.222.624-.065-.016-.131-.032-.196-.048v-1.917c-.04-.033-.08-.067-.12-.101-.114.127-.315.249-.326.384-.078.952-.117 1.906-.172 2.926.32-.061.498-.092.672-.131 1.125-.244 2.248-.503 3.377-.732 2.376-.485 4.676-1.22 6.921-2.13.15-.061.329-.134.475-.105.812.165 1.499-.123 2.19-.5.444-.241.931-.427 1.421-.549 1.724-.434 3.46-.819 5.184-1.254.2-.049.493-.282.501-.444.051-.872.024-1.749.024-2.709zm-21.279 8.611c.059-1.019.121-2.07.186-3.163-.263.042-.487.078-.694.11-.068.32-.127.602-.188.882-.062.017-.125.032-.187.048-.072-.196-.226-.402-.201-.583.067-.489-.137-.593-.582-.685-2.422-.499-4.842-1.013-7.245-1.591-1.94-.468-3.861-1.018-5.78-1.565-1.128-.323-2.239-.701-3.348-1.081-.453-.154-.711-.077-.747.433-.029.42-.051.841-.079 1.26-.065.982.09 1.221 1.024 1.506 1.068.326 2.145.625 3.208.969.466.152.818.242.983-.394.046-.182.362-.393.564-.402.161-.007.343.264.498.429.057.061.082.168.091.256.066.664.518.851 1.09 1.018 2.393.695 4.775 1.431 7.155 2.167 1.374.424 2.743.827 4.252.386zm53.464-41.144c.923 1.421 1.334 3.027 1.543 4.697.231 1.832.443 3.666.697 5.495.212 1.529.554 3.013 1.298 4.404.508.954 1.275 1.655 2.003 2.396.376.381.909.609 1.451.957.089-.38.167-.589.184-.801.152-2.011.288-4.023.445-6.034.035-.433-.154-.687-.507-.882-.636-.351-.629-.426-.174-1.021.198-.258.47-.619.42-.878-.235-1.257-.482-2.526-.888-3.735-.68-2.029-1.883-3.768-3.352-5.309-.523-.549-1.167-.981-1.763-1.472-.449.726-.432.71-.004 1.159 1.8 1.893 2.847 4.2 3.537 6.674.473 1.691.896 3.402 1.225 5.126.239 1.251.296 2.537.413 3.807.013.126-.118.265-.182.398-.048-.013-.098-.027-.146-.04-.039-.305-.075-.611-.119-.916-.182-1.249-.313-2.509-.565-3.745-.252-1.237-.682-2.437-.934-3.675-.471-2.313-1.536-4.347-2.83-6.277-.285-.425-.681-.775-1.044-1.178-.285.341-.482.578-.708.85zm10.508 2.646c-.076.024-.153.049-.229.073-.082-.146-.228-.288-.237-.439-.111-1.899-.197-3.801-.305-5.7-.096-1.717-.129-3.442-.338-5.145-.254-2.071-.656-4.124-1.01-6.183-.064-.371-.203-.729-.352-1.246-.137.41-.26.646-.289.894-.155 1.307-.325 2.614-.414 3.925-.061.915.049.981.998 1.141.811.138.993.528.555 1.21-.077.119-.23.194-.301.315-.225.382-.553.76-.612 1.171-.152 1.044-.1 2.118-.271 3.157-.312 1.898.017 3.772.206 5.631.195 1.931.7 3.831 1.078 5.742.242 1.217.618 2.385 1.309 3.552.241-.413.497-.735.63-1.103 1.197-3.303 1.39-6.619.049-9.935-.125-.306-.026-.483.229-.558.555-.164.605-.502.43-.978-.047-.128-.025-.291-.007-.434.27-2.171.083-4.334-.257-6.469-.309-1.949-.781-3.876-1.273-5.788-.228-.885-.55-1.777-1.22-2.495-.118.086-.209.147-.294.214-.083.066-.161.139-.221.191 1.744 6.335 1.95 12.795 2.146 19.257zm-17.24-13.648c.141.189.26.348.379.508-.212.064-.421.144-.637.189-.338.073-.71.058-1.02.19-1.719.734-3.449 3.402-3.377 5.257.097 2.488 1.118 4.485 3.313 5.771.818.48 1.709.745 2.684.579.555-.093 1.12-.137 1.668-.259.183-.041.404-.221.473-.393.266-.651.813-.903 1.406-.836.966.108 1.494-.446 1.886-1.129 1.198-2.091 1.407-4.332.779-6.64-.237-.869-.567-1.767-1.375-2.249-.875-.522-1.813-.976-2.778-1.294-1.152-.379-2.308-.099-3.401.306zm-64.564 43.823c-.001.055-.001.11-.002.165 1.814.578 3.618 1.185 5.443 1.723 1.298.385 2.619.701 3.94 1.007 1.898.438 3.801.852 5.708 1.249.661.138 1.389.072 1.997.32.496.202.892.19 1.357.065 1.08-.289 2.154-.617 3.248-.832 1.636-.323 3.29-.556 4.932-.843.646-.114 1.313-.458 1.919-.364.837.129 1.483-.073 2.094-.544.926-.717 1.933-1.23 3.104-1.394.273-.039.546-.09.808-.171 2.415-.751 4.824-1.52 7.244-2.255.444-.136.929-.138 1.39-.222.647-.118 1.29-.257 1.933-.387-.008-.064-.016-.127-.024-.19-.62-.214-1.233-.451-1.861-.637-3.224-.954-6.573-1.353-9.822-2.204-1.223-.321-2.461-.579-3.697-.842-.226-.048-.503-.048-.708.042-1.296.563-2.054.382-2.872-.729-1.02.639-2.079 1.064-3.307.624-.073-.027-.179.023-.266.048-.951.281-1.904.553-2.85.848-1.891.589-3.764 1.239-5.671 1.772-2.612.73-5.256 1.352-7.875 2.063-1.552.423-3.077.943-4.622 1.391-.5.145-1.026.199-1.54.297zm43.62-31.375c-.013.05-.046.104-.034.143.696 2.265 2.179 3.901 4.231 4.975 2.54 1.33 5.279 1.409 8.053.964.484-.077.96.057 1.154.386.443.755 1.188 1.487.622 2.517-.07.125-.039.308-.06.507.746.015 1.324.223 1.463 1.11.333-.215.612-.329.805-.529 1.052-1.087 1.896-2.323 2.618-3.653.444-.819.549-1.604.116-2.449-.058-.115-.04-.37.043-.437.495-.403.976-.77 1.305-1.373.29-.531.851-.914 1.259-1.328-.83-.298-1.694-.451-2.385-.885-2.206-1.383-3.381-3.463-3.382-6.052-.002-2.236.965-4.103 2.805-5.446.325-.238.411-.478.274-.842-.201-.531-.379-1.07-.576-1.602-.15-.4-.335-.773-.874-.718.218-.54-.088-1.234-.804-1.873-.191.153-.377.333-.593.46-.11.064-.277.033-.418.044.029-.143.008-.341.095-.417.198-.173.449-.288.678-.426-.3-.367-.46-.491-.607-.629-.594-.555-.589-.552-1.249-.104-.082.056-.224.023-.338.031-.006-.133-.061-.293-.006-.392.1-.183.265-.331.414-.507-.133-.121-.222-.213-.323-.288-.163-.12-.327-.238-.502-.339-.549-.321-.755-.277-1.147.225-.045.058-.069.152-.126.176-.132.057-.278.082-.418.12-.008-.151-.073-.337-.01-.448.121-.216.317-.39.487-.586-1.134-.653-1.129-.649-1.949.23-.079.084-.267.068-.404.098-.009-.143-.069-.31-.015-.425.088-.186.251-.34.408-.539-.573-.252-1.062-.245-1.56.06-2.647 1.616-4.545 3.948-6.21 6.499-.936 1.436-1.697 2.963-2.189 4.609-.44 1.475-.839 2.963-1.255 4.445.173.021.213.008.231-.019.051-.076.089-.16.135-.24.874-1.511 1.998-2.804 3.409-3.833.311-.225.52-.403.382-.835-.058-.181.026-.443.122-.63.077-.151.258-.314.412-.335.114-.015.293.167.378.303.115.181.164.4.238.595 1.26-.024 1.26-.024 1.351.264-.472.124-.987.169-1.411.388-2.553 1.318-4.172 3.461-5.195 6.087-.394 1.011-.143 1.856.63 2.194.564.244 1.169.429 1.776.538 1.306.232 2.625.243 3.926-.073.284-.069.549-.22.852-.346-.106.722-.287.911-.995 1.012-1.898.269-3.787.363-5.637-.382zm8.635 26.152c-.178.191-.362.316-.446.489-.813 1.672-.85 3.468-.819 5.276.014.863.303 1.487 1.251 1.631.215.032.418.136.631.191 1.757.458 3.504.965 5.279 1.347 1.393.301 2.726.861 4.239.674 1.958-.243 3.836-.642 5.514-1.709.739-.469 1.529-.958 1.704-1.92.162-.898.336-1.809.342-2.716.028-3.58.05-7.161-.044-10.738-.067-2.551-.399-5.086-1.257-7.515-.576-1.629-1.409-3.066-3.044-3.871-.276-.136-.472-.159-.621.163-.13.285-.279.561-.441.825-1.137 1.862-2.27 3.725-3.422 5.577-.824 1.322-1.598 2.693-3.092 3.419-.434.213-.83.506-1.255.737-.082.043-.231-.018-.338-.057-.133-.047-.248-.156-.382-.18-.95-.169-1.524-.754-1.831-1.633-.13-.377-.23-.764-.344-1.146-.29.966-.482 1.935-.599 2.914-.097.809.058.986.887.899 1.506-.159 2.982-.485 4.263-1.35 2.118-1.431 3.783-3.287 5.056-5.503.122-.211.335-.368.506-.55.068.035.138.071.205.106-.045.225-.027.492-.146.667-.666.983-1.299 1.998-2.065 2.899-1.434 1.686-3.015 3.211-5.227 3.872-1.169.35-2.335.668-3.57.451-1.315-.231-2.527-.772-3.675-1.416-.433-.242-.758-.763-1.007-1.224-.287-.528-.336-1.198-.662-1.69-.933-1.404-2.462-1.662-3.985-1.872-.092-.013-.239.036-.288.106-.387.562-.756 1.135-1.135 1.711.12.064.152.08.183.098.199.112.577.253.564.33-.067.402-.404.233-.663.22-1.01-.054-2.027-.098-2.961.379-1.513.772-2.891 1.737-3.987 3.051-.278.331-.502.728-.665 1.129-.261.644-.267 1.336.228 1.861.48.511 1.159.515 1.806.349.289-.073.547-.265.821-.396.756-.364 1.511-.73 2.276-1.078.153-.07.344-.061.519-.089-.079.197-.134.408-.245.583-.059.094-.22.122-.332.184-.317.176-.422.416-.166.71.418.48.795 1.027 1.3 1.392.366.264.913.371 1.38.372.36.001.609.02.86.295.58.635 1.297.965 2.17.763.866-.2 1.679-.52 2.33-1.167.433-.431.956-.519 1.513-.294.475.192.926.442 1.401.635s.893.619 1.488.385c.065-.026.188.074.275.13.249.161.471.398.742.485 2.044.656 4.059.572 6.084-.182 2.126-.791 3.779-2.16 5.083-3.959.662-.917 1.174-1.942 1.768-2.909.083-.137.247-.222.374-.331.069.191.155.38.199.577.015.067-.08.158-.123.239-.346.64-.691 1.28-1.05 1.946.574.288 1.115.179 1.661-.076-.465.971-1.254.805-2.042.595-1.636 2.317-3.655 4.081-6.427 4.835-2.041.555-4.057.565-6.039-.268-.152-.064-.336-.057-.507-.082zm19.412-46.237c-.413.961-1.004 1.784-1.884 2.373-.488.327-.988.635-1.469.971-.118.082-.271.26-.25.362.064.313.205.609.338.979 1.553-.912 2.975-1.853 3.972-3.348.073.168.12.319.065.398-.311.447-.58.955-.987 1.294-.847.706-1.779 1.309-2.654 1.981-.129.099-.18.344-.198.527-.018.174.069.358.086.538.083.932.08.932.819 1.146 1.308-.504 2.253-1.228 2.824-2.409.549-1.141 1.142-2.247.825-3.612-.19-.088-.422-.285-.655-.285-.433 0-.573-.223-.664-.574-.031-.117-.12-.218-.182-.328-.259-.485-.517-.968-.799-1.497-.218.242-.325.362-.455.506-.732-.632-1.504-.89-2.432-.676-.834.192-1.689.296-2.629.455.706 1.065 1.307 1.971 1.906 2.875.638-.327 1.226-.63 1.815-.933.033.052.065.104.098.155-.21.839-1.277.734-1.656 1.477.06.146.145.355.245.597.279-.165.497-.293.714-.422 1.081-.638 2.123-1.313 2.739-2.474.046-.084.307-.053.468-.076zm-66.874 56.148c-.376 1.079-.387 1.113-1.43.809-1.437-.42-2.859-.897-4.286-1.351-.421-.134-.604-.399-.59-.864.034-1.094.005-2.19.037-3.284.004-.131.205-.334.349-.369.498-.121 1.021-.144 1.514-.279 1.462-.398 2.91-.845 4.371-1.249 2.191-.603 4.391-1.176 6.581-1.783 2.052-.568 4.1-1.145 6.14-1.75 1.402-.417 2.786-.89 4.27-1.367-.825-.459-.985-1.204-1.062-1.966-.177-1.807 1.196-2.883 2.866-2.982.282-.017.584-.062.834-.183 1.267-.617 2.428-.169 3.604.289.322.126.685.146 1.029.217.674.142 1.403.168 2.008.454.88.415 1.671 1.018 2.535 1.562.422-.154.609-.462.578-1.013-.072-1.269.729-2.158 1.594-2.886 1.275-1.072 2.162-2.396 2.977-3.81.714-1.236 1.477-2.445 2.256-3.642.7-1.072 1.429-2.125 2.183-3.16.492-.672 1.049-.759 1.77-.36.35.194.716.372 1.028.616.681.534.611 1.517-.136 2.335-.061.067-.149.114-.197.189-.497.766-.986 1.537-1.547 2.413 2.543.187 4.324 1.377 5.236 3.923.646-.465 1.317-.804 1.79-1.322.674-.738 1.205-1.605 1.791-2.421.404-.565.799-1.135 1.191-1.708.11-.162.217-.331.295-.51.552-1.254 1.038-2.543 2.026-3.55.07-.07.07-.212.102-.32-.129-.016-.261-.061-.384-.042-3.111.485-6.167.397-8.962-1.228-2.277-1.322-3.695-3.35-4.329-5.915-.047-.19-.178-.36-.226-.548-.111-.438-.31-.893-.27-1.32.125-1.347.296-2.694.536-4.025.366-2.03 1.028-3.982 1.982-5.807 1.257-2.403 2.847-4.58 4.763-6.509.025-.026.046-.061.076-.079 1.064-.626 1.397-1.739 1.763-2.786.491-1.405 1.375-2.312 2.727-2.959 1.32-.632 2.661-.888 4.084-.895.851-.005 1.703-.166 2.554.105.235.076.536-.068.81-.085 1.882-.117 3.7.315 5.464.852 1.046.318 1.989.992 2.951 1.551.294.169.506.204.796.042 1.483-.834 3.144-1.172 4.759-1.601.571-.152 1.254.117 1.883.199.289.036.583.144.861.112.813-.095 1.69.314 2.106 1.032.669 1.16.811 2.383.383 3.649-.142.423-.173.714.087 1.161.472.813.831 1.718 1.088 2.626.635 2.239 1.184 4.504 1.31 6.844.095 1.737.16 3.478.24 5.216.012.256.066.515.044.768-.023.281-.021.721-.182.808-.688.367-.46.88-.279 1.35.571 1.475.555 3.01.545 4.549-.011 1.706-.402 3.333-1.015 4.914-.085.221-.161.468-.313.638-.245.276-.55.498-.829.743-.204-.251-.501-.471-.598-.758-.515-1.521-1.069-3.04-1.435-4.6-.372-1.581-.537-3.21-.795-4.817-.022-.143-.057-.284-.206-.466-.141.313-.211.699-.438.927-.643.64-.253 1.202-.04 1.861.499 1.547.895 3.127 1.323 4.697.105.383.048.724-.345.949-.117.066-.19.209-.356.402 1.022.406.918 1.246.854 2.057-.148 1.896-.289 3.793-.48 5.686-.112 1.102-.768 1.348-1.736.698-.317-.213-.62-.45-.892-.65-.505.798-.986 1.583-1.496 2.347-.179.27-.409.518-.655.731-.216.187-.432.337-.731-.005-1.694-1.927-2.384-4.201-2.276-6.709.073-1.666.268-3.345.929-4.897.685-1.61.48-3.208.066-4.801-.283-1.091-.699-2.149-1.061-3.219-.035-.102-.09-.211-.168-.28-.107-.095-.243-.155-.367-.229-.01.132-.047.271-.024.398.043.232.12.46.188.688.21.709.154 1.373-.323 1.891.222.423.432.798.616 1.185.06.127.118.318.066.426-.424.873-.323 1.847-.564 2.753-.041.158-.077.362-.012.495.287.587.244 1.156-.137 1.651-.147.193-.537.4-.708.331-.32-.13-.655-.409-.806-.715-.1-.206.089-.569.191-.848.021-.058.249-.105.332-.06.076.04.115.207.117.319.002.123-.116.271-.077.365.07.171.219.309.335.462.12-.094.283-.16.351-.281.35-.628.141-1.06-.56-1.209-.771-.162-1.161-.799-1.015-1.621.029-.167-.032-.352-.117-.521-.234.475-.439.89-.243 1.456.238.696-.166 1.228-.857 1.537 1.901 2.203 2.545 4.848 2.813 7.596.192 1.979.244 3.975.297 5.965.061 2.309.068 4.622.075 6.932.002.823-.05 1.647-.108 2.467-.033.429-.014.806.399 1.052.061.036.11.096.162.148.821.839.825.992.207 1.989-.102.164-.077.431-.057.647.057.631.285 1.304-.416 1.736-.17.106-.407.104-.613.152.082-.183.122-.406.253-.539.336-.339.414-.703.235-1.248-.269.243-.464.45-.689.617-.32.239-.653.468-1.003.657-.09.048-.272-.074-.411-.117.079-.104.135-.252.239-.302.883-.43 1.571-1.061 2.087-1.893.491-.794.456-.947-.409-1.481-.079.109-.174.214-.239.337-1.074 1.965-2.893 2.838-4.951 3.304-1.081.246-2.19.376-3.289.535-.503.074-1.025.17-1.521.11-.586-.07-1.152-.298-1.729-.456-1.621-.442-3.251-.858-4.861-1.336-2.141-.635-4.263-1.326-6.401-1.973-.266-.08-.58-.082-.856-.03-.685.128-1.363.285-2.033.473-.576.162-1.129.412-1.705.573-1.129.314-2.271.581-3.4.893-.846.234-1.673.535-2.523.756-1.078.281-2.176.489-3.253.774-.524.138-1.029.357-1.523.585-.74.34-1.481.624-2.321.54-.172-.018-.358.047-.529.099-2.222.683-4.434 1.401-6.671 2.041-.783.222-1.627.221-2.433.377-.749.145-1.494.33-2.226.55-1.806.544-3.463-.08-5.145-.594-2.367-.724-4.74-1.433-7.12-2.11-.456-.129-.713-.277-.706-.789.003-.233-.132-.467-.206-.701z" fill="none" stroke="#231f20" stroke-width=".38" transform="matrix(5.55556 0 0 5.55556 397.36817888 217.33341804)"/><g fill-rule="nonzero"><path d="m0-1.925c-.435-.111-.673-.205-.917-.221-.105-.007-.219.152-.328.234.227.117.447.29.688.33.132.022.302-.177.557-.343m9.447 5.575v-.423c.171.025.356.017.508.082 1.982.833 3.997.823 6.039.267 2.771-.755 4.79-2.517 6.427-4.835.788.211 1.576.377 2.041-.596-.546.257-1.087.366-1.66.077.358-.666.704-1.305 1.05-1.946.043-.08.137-.171.123-.238-.044-.198-.13-.386-.2-.578-.127.11-.29.195-.374.332-.593.966-1.105 1.992-1.767 2.908-1.304 1.8-2.958 3.168-5.084 3.959-2.024.753-4.038.838-6.083.182-.272-.086-.493-.323-.743-.484-.086-.057-.21-.157-.275-.13-.595.234-1.013-.194-1.487-.385-.475-.193-.926-.443-1.402-.636-.557-.224-1.079-.137-1.513.294-.65.648-1.464.968-2.33 1.168-.872.2-1.59-.129-2.169-.764-.251-.274-.5-.294-.861-.295-.466 0-1.013-.108-1.38-.372-.504-.364-.881-.911-1.299-1.392-.256-.294-.151-.534.166-.709.112-.062.272-.09.332-.184.111-.175.167-.387.245-.583-.175.027-.366.019-.52.088-.765.349-1.519.715-2.275 1.078-.275.132-.533.323-.822.397-.646.165-1.325.161-1.806-.35-.495-.524-.489-1.216-.227-1.861.163-.401.387-.797.664-1.129 1.097-1.313 2.475-2.279 3.988-3.052.934-.475 1.951-.431 2.961-.378.259.014.596.183.663-.22.013-.076-.365-.217-.565-.329-.031-.018-.063-.035-.182-.098.379-.576.748-1.15 1.135-1.711.049-.071.195-.119.288-.107 1.522.21 3.052.469 3.985 1.873.327.492.375 1.162.662 1.69.249.461.574.982 1.007 1.224 1.147.644 2.359 1.185 3.675 1.416 1.234.217 2.401-.102 3.569-.451 2.212-.661 3.794-2.186 5.227-3.873.766-.9 1.4-1.916 2.065-2.899.119-.174.102-.442.147-.666-.068-.035-.137-.072-.206-.107-.17.182-.383.34-.505.551-1.273 2.216-2.938 4.071-5.057 5.503-1.281.865-2.757 1.191-4.263 1.35-.829.087-.983-.091-.886-.9.118-.978.308-1.948.598-2.914.115.382.214.769.346 1.147.306.879.88 1.464 1.829 1.633.134.023.249.132.382.179.108.04.258.1.338.057.426-.23.821-.523 1.255-.736 1.494-.728 2.269-2.098 3.092-3.419 1.153-1.852 2.285-3.715 3.422-5.577.162-.266.312-.542.442-.825.148-.323.344-.3.621-.163 1.635.805 2.468 2.242 3.043 3.871.859 2.429 1.191 4.963 1.258 7.514.094 3.578.071 7.159.044 10.739-.007.907-.181 1.818-.343 2.716-.175.962-.965 1.45-1.703 1.92-1.678 1.067-3.556 1.465-5.514 1.708-1.513.187-2.846-.372-4.24-.673-1.774-.383-3.522-.89-5.279-1.347-.213-.055-.416-.16-.631-.192-.948-.143-1.236-.768-1.251-1.631-.031-1.807.006-3.603.82-5.275.084-.174.267-.298.445-.49" fill="#ecd1c8" transform="matrix(5.55556 0 0 5.55556 256.92362208 276.8945768)"/><path d="m0-4.736c-.241-.04-.461-.213-.689-.33.11-.083.224-.24.329-.234.244.016.482.109.917.221-.255.165-.425.365-.557.343m27.656-2.242c-.068-2.551-.4-5.087-1.258-7.516-.064-.18-.132-.358-.203-.534-1.31 1.329-1.85 3.971-2.533 5.676-2.365 5.911-10.099 7.203-15.71 6.705-2.277-.203-6.231-.772-6.651-3.538-.119-.782-.244-1.162-1.14-1.362-.448-.1-.919-.001-1.352.113-.941.246-1.823.704-2.664 1.178-1.222.692-2.377 1.493-3.508 2.324.063.126.142.248.248.36.481.511 1.159.515 1.806.35.289-.074.547-.265.821-.397.756-.363 1.511-.73 2.276-1.078.153-.069.345-.06.519-.088-.078.196-.133.407-.245.583-.059.093-.219.121-.332.184-.316.175-.422.415-.166.709.418.481.795 1.028 1.3 1.392.366.264.913.372 1.38.373.361.001.61.02.861.295.579.634 1.297.964 2.169.762.866-.199 1.68-.519 2.33-1.167.434-.43.956-.519 1.513-.294.475.193.927.443 1.401.635.475.193.893.62 1.488.386.065-.026.188.073.275.13.249.161.471.398.742.484 2.046.656 4.059.572 6.084-.182.045-.017.088-.038.132-.055.001-.001.002-.003.003-.004.085-.12.212-.153.327-.134 1.903-.81 3.414-2.1 4.621-3.766.663-.916 1.174-1.941 1.768-2.909.084-.136.247-.221.374-.331.069.192.155.381.199.577.015.068-.08.159-.123.239-.345.641-.691 1.281-1.05 1.946.574.288 1.115.18 1.661-.076-.465.972-1.253.806-2.041.595-1.423 2.017-3.138 3.611-5.386 4.49-1.806 2.722-2.457 6.062-2.034 9.275.113.026.227.055.342.079 1.393.301 2.727.861 4.239.673 1.959-.243 3.837-.641 5.515-1.708.738-.47 1.528-.959 1.703-1.92.162-.898.336-1.81.343-2.716.027-3.58.049-7.161-.044-10.738" fill="#e7c4b8" transform="matrix(5.55556 0 0 5.55556 253.82917516 294.41681304)"/><path d="m0 19.522c-.196.172-.345.303-.494.435.093.089.231.273.268.253.206-.105.388-.259.578-.397-.091-.076-.183-.152-.352-.291m-12.057-17.838c.458-.168.813-.287 1.157-.431.112-.047.195-.16.291-.243-.106-.082-.24-.252-.313-.229-.39.121-.769.282-1.14.455-.057.027-.076.188-.069.284.006.083.073.161.074.164m6.413-1.531c.022.101.012.247.074.29.351.244.715.47 1.086.684.044.026.197-.037.217-.089.033-.089.027-.216-.015-.302-.183-.389-.866-.682-1.362-.583m-.064 16.807c-.056.038-.111.077-.167.115.068.119.136.237.205.356.118-.096.282-.169.341-.293.064-.134.1-.377.025-.466-.329-.386-.693-.741-1.069-1.079-.054-.05-.246.052-.374.084.037.127.038.288.119.375.12.131.316.189.442.316.178.179.32.393.478.592m-3.097.813c.469-.105.835-.156 1.179-.27.345-.115.698-.253.993-.458.13-.09.13-.368.189-.562-.158.026-.322.033-.475.079-.607.184-1.215.372-1.815.577-.166.057-.311.181-.465.274.145.132.289.264.394.36m-7.114-3.036c1.849.745 3.739.65 5.638.381.707-.1.888-.29.994-1.012-.304.127-.568.277-.853.347-1.3.316-2.619.305-3.926.072-.605-.108-1.212-.293-1.775-.538-.774-.337-1.024-1.181-.63-2.194 1.022-2.626 2.643-4.769 5.195-6.086.423-.219.938-.263 1.411-.389-.091-.287-.091-.287-1.352-.264-.073-.194-.123-.414-.237-.595-.085-.135-.265-.318-.378-.303-.154.021-.335.186-.412.335-.096.187-.181.449-.122.63.137.433-.072.61-.381.836-1.412 1.028-2.537 2.321-3.411 3.833-.046.079-.084.163-.133.239-.018.027-.059.041-.233.019.416-1.482.816-2.969 1.255-4.445.492-1.646 1.253-3.172 2.19-4.608 1.665-2.551 3.563-4.883 6.209-6.5.498-.304.989-.311 1.561-.059-.157.199-.32.352-.408.539-.054.114.006.282.014.424.138-.03.326-.014.405-.098.819-.878.814-.882 1.949-.23-.171.197-.366.37-.487.586-.064.111.002.297.009.449.141-.038.287-.064.419-.121.056-.024.081-.118.125-.175.392-.502.598-.545 1.148-.226.175.101.339.22.502.339.101.075.19.168.322.288-.148.177-.313.324-.414.507-.054.099 0 .26.006.392.114-.008.257.025.339-.031.659-.447.654-.45 1.248.105.148.137.308.262.608.628-.23.138-.48.253-.678.426-.087.077-.067.274-.095.417.141-.011.308.02.417-.044.217-.127.403-.306.595-.459.715.638 1.02 1.332.803 1.872.539-.054.723.318.874.719.196.532.375 1.07.576 1.601.137.365.051.605-.274.842-1.84 1.343-2.806 3.21-2.804 5.446.001 2.59 1.175 4.669 3.381 6.052.69.434 1.556.588 2.386.886-.409.414-.97.796-1.26 1.327-.329.604-.811.97-1.305 1.373-.083.068-.102.323-.044.437.434.845.328 1.63-.115 2.449-.723 1.331-1.567 2.567-2.619 3.654-.192.199-.471.313-.804.528-.139-.887-.716-1.095-1.463-1.11.02-.199-.01-.38.059-.506.567-1.03-.178-1.763-.622-2.518-.193-.328-.67-.463-1.152-.385-2.775.444-5.513.365-8.055-.965-2.052-1.074-3.534-2.71-4.231-4.974-.011-.04.022-.093.035-.143" fill="#ecd1c8" transform="matrix(5.55556 0 0 5.55556 349.879252 70.01663352)"/><path d="m0 8.791c-.036.019-.177-.165-.269-.254.151-.131.299-.263.495-.434.168.139.26.214.352.291-.19.137-.371.291-.578.397m3.497-5.526c-2.206-1.383-3.381-3.464-3.383-6.052 0-.835.135-1.617.4-2.341-2.861 4.225 2.355 11.663-4.063 14.065-1.015.379-2.141.597-3.318.684 1.128.048 2.273-.037 3.423-.222.485-.077.961.056 1.155.386.443.753 1.188 1.486.621 2.517-.069.126-.038.307-.059.506.746.015 1.325.222 1.462 1.111.334-.215.614-.33.806-.528 1.052-1.088 1.896-2.324 2.617-3.656.444-.818.549-1.602.117-2.448-.059-.114-.039-.369.044-.437.494-.403.974-.769 1.303-1.372.291-.531.852-.914 1.259-1.329-.829-.297-1.694-.452-2.384-.884" fill="#ebbfb3" transform="matrix(5.55556 0 0 5.55556 347.83480592 132.6722392)"/><path d="m0 7.638c.829-.009 1.15-.419.981-1.274-.021-.1-.047-.216-.015-.307.127-.368.084-.498-.29-.45-.386.048-.765.207-1.13.359-.486.204-.531.621-.409 1.064.112.413.379.659.863.608m-5.422-4.974c-.061.014-.281.062-.501.112.182.167.338.404.551.488.558.219 1.151.353 1.716.555 1.068.379 2.124.79 3.19 1.172.218.079.522.2.679.112.554-.313.991.049 1.516.113-.077.165-.114.29-.185.392-.247.345-.272.768.015 1.003.234.191.662.216.994.19.295-.023.595-.189.854-.353.141-.09.267-.299.286-.468.071-.631-.402-.88-.877-1.101.452-.73.296-1.402-.432-1.653-.327-.111-.403-.289-.466-.567-.137-.611-.729-1.095-1.336-.943-.637.159-1.082-.165-1.589-.375-.37-.155-.731-.335-1.112-.461-.478-.157-.895.02-1.278.317-.241.186-.506.342-.753.521-.38.276-.756.561-1.272.946m3.804 4.116c.091-.085.154-.151.224-.207.68-.536.629-1.162-.14-1.576-.274-.147-.58-.237-.843-.398-.433-.267-.783-.215-1.118.165-.603.679-1.373.77-2.208.575-.339-.08-.413-.241-.192-.547.476-.661.237-1.039-.547-1.286-1.415-.446-2.585.186-3.762.736-.818.382-.942 1.577-.242 2.014.535.333 1.141.575 1.742.773.813.265 1.668.402 2.477.678.884.301 1.741.437 2.628.068.039-.018.097.01.152.018.062.519.216.957.821 1.009.601.052 1.263.058 1.581-.515.337-.605-.055-1.114-.573-1.507m10.259-1.974c.38-.073.697-.095.987-.195.97-.336 1.941-.67 2.889-1.063.639-.266 1.262-.59 1.848-.96.532-.337.526-.938-.023-1.244-.375-.209-.688-.801-1.273-.391-.018.013-.09-.053-.137-.08-1.438-.848-3.058-1.122-4.66-1.411-.566-.102-1.208-.016-1.769.146-.568.163-1.117.472-1.603.817-.462.328-.894.364-1.366.15-.548-.248-.905.02-1.242.641-.241.442.078.695.378.965 1.117 1.01 2.517 1.48 3.874 2.019.687.274 1.427.417 2.097.606m-30.085.201c.513-.097 1.039-.151 1.538-.297 1.547-.447 3.072-.967 4.623-1.39 2.62-.711 5.263-1.334 7.876-2.063 1.907-.533 3.78-1.184 5.671-1.772.946-.295 1.899-.567 2.849-.848.087-.025.194-.075.267-.049 1.228.441 2.286.016 3.307-.623.817 1.111 1.575 1.29 2.871.728.205-.089.483-.089.708-.041 1.237.263 2.475.52 3.698.841 3.248.85 6.598 1.251 9.822 2.204.628.187 1.24.424 1.861.638.007.063.016.126.024.189-.644.131-1.286.269-1.934.388-.461.084-.945.086-1.39.222-2.42.735-4.828 1.504-7.243 2.255-.262.081-.536.132-.808.17-1.171.165-2.178.678-3.106 1.394-.609.472-1.256.674-2.093.544-.605-.093-1.272.25-1.918.365-1.643.287-3.296.52-4.932.842-1.095.216-2.168.544-3.248.833-.465.124-.862.136-1.358-.065-.607-.248-1.335-.182-1.996-.32-1.907-.397-3.81-.811-5.708-1.249-1.321-.306-2.642-.622-3.941-1.007-1.825-.539-3.63-1.145-5.442-1.723 0-.055.001-.11.002-.166" fill="#d6e1e7" transform="matrix(5.55556 0 0 5.55556 138.2401938 298.37237176)"/><path d="m0 7.851c1.452.085 2.531-.481 3.19-1.743.469-.902.595-1.86.319-2.869-.239-.875-.438-1.833-1.199-2.342-.638-.428-1.474-.689-2.245-.751-.653-.053-1.371.207-1.999.473-.372.158-.652.574-.928.911-.975 1.199-1.252 2.578-.747 4.021.472 1.35 1.599 2.452 3.609 2.3m-2.441-9.912c1.093-.406 2.25-.686 3.401-.307.965.318 1.904.772 2.779 1.293.807.483 1.137 1.381 1.374 2.25.628 2.308.419 4.549-.779 6.64-.392.683-.92 1.237-1.886 1.129-.593-.067-1.14.185-1.406.836-.069.172-.29.352-.473.392-.548.123-1.113.167-1.668.26-.974.166-1.866-.099-2.684-.579-2.195-1.286-3.217-3.282-3.313-5.77-.072-1.857 1.658-4.524 3.377-5.258.311-.132.682-.117 1.021-.19.215-.045.424-.125.635-.189-.118-.16-.237-.318-.378-.507" fill="#b8d532" transform="matrix(5.55556 0 0 5.55556 391.35706296 94.18331952)"/><path d="m0 11.563c-.196-6.462-.402-12.922-2.146-19.256.06-.052.138-.126.221-.192.085-.067.176-.127.294-.214.67.718.992 1.61 1.22 2.495.492 1.912.964 3.839 1.273 5.789.34 2.134.527 4.297.257 6.468-.018.144-.04.306.007.435.175.475.125.814-.43.977-.255.076-.354.252-.229.558 1.341 3.316 1.148 6.632-.048 9.935-.134.367-.39.69-.631 1.104-.691-1.168-1.067-2.336-1.309-3.552-.378-1.912-.883-3.811-1.078-5.742-.189-1.86-.518-3.734-.206-5.632.171-1.039.119-2.113.271-3.156.059-.412.387-.789.612-1.172.071-.121.224-.195.301-.315.438-.681.256-1.072-.555-1.209-.949-.161-1.059-.227-.998-1.141.089-1.312.259-2.619.414-3.926.029-.248.152-.484.289-.894.149.517.288.875.352 1.247.354 2.058.756 4.112 1.01 6.182.209 1.703.242 3.429.338 5.145.108 1.9.194 3.802.305 5.701.009.15.155.293.237.438.076-.024.153-.049.229-.073" fill="#77b8e5" transform="matrix(5.55556 0 0 5.55556 473.5737954 94.3110974)"/><path d="m0-15.766c.227-.272.424-.509.709-.85.361.403.758.753 1.043 1.178 1.294 1.93 2.359 3.964 2.83 6.277.252 1.238.682 2.438.934 3.675s.384 2.496.565 3.746c.044.304.08.61.12.915.048.012.096.027.144.04.065-.133.196-.272.184-.398-.118-1.27-.175-2.556-.414-3.807-.329-1.723-.751-3.435-1.224-5.126-.691-2.474-1.737-4.781-3.538-6.674-.428-.449-.446-.433.004-1.159.595.491 1.24.924 1.762 1.472 1.47 1.541 2.673 3.281 3.353 5.31.406 1.209.653 2.477.889 3.734.049.259-.224.62-.421.878-.454.596-.461.67.174 1.021.352.196.542.45.508.881-.158 2.012-.293 4.024-.447 6.034-.016.213-.093.422-.183.802-.542-.348-1.074-.575-1.451-.957-.727-.741-1.494-1.442-2.004-2.396-.743-1.391-1.086-2.875-1.298-4.404-.253-1.829-.465-3.663-.695-5.495-.21-1.67-.621-3.276-1.544-4.697" fill="#fec65c" transform="matrix(5.55556 0 0 5.55556 415.19597092 231.43898488)"/><path d="m0 7.341c-1.509.441-2.877.038-4.25-.386-2.381-.736-4.763-1.472-7.157-2.167-.572-.167-1.024-.354-1.09-1.018-.009-.088-.034-.195-.091-.256-.154-.165-.336-.436-.498-.428-.2.009-.517.219-.564.401-.165.636-.516.546-.983.394-1.063-.344-2.139-.643-3.208-.969-.933-.285-1.088-.524-1.024-1.506.028-.419.05-.84.08-1.26.035-.51.294-.587.746-.433 1.109.38 2.221.758 3.348 1.081 1.919.547 3.84 1.097 5.781 1.565 2.403.578 4.823 1.092 7.244 1.591.446.092.649.196.582.685-.024.181.13.388.201.583.063-.016.125-.031.188-.048.06-.28.119-.562.187-.882.207-.032.431-.068.695-.11-.066 1.093-.127 2.144-.187 3.163" fill="#a7b6bf" transform="matrix(5.55556 0 0 5.55556 118.16795552 331.6446206)"/><path d="m0-8.554c0 .961.026 1.838-.023 2.71-.009.161-.302.394-.502.445-1.724.433-3.461.818-5.184 1.252-.491.123-.977.308-1.421.549-.692.377-1.378.666-2.19.501-.146-.029-.325.043-.476.104-2.245.911-4.544 1.645-6.921 2.13-1.128.231-2.25.489-3.376.734-.175.038-.352.068-.672.129.055-1.02.094-1.974.172-2.925.011-.136.212-.256.325-.384.04.033.08.067.121.1v1.917c.065.017.131.034.195.049.077-.208.189-.41.222-.625.069-.448.073-.908.156-1.355.029-.156.208-.286.319-.426.051.017.101.035.152.052v1.325l.203.082c.096-.154.252-.299.277-.463.168-1.084.153-1.125 1.257-1.325 1.711-.311 3.433-.563 5.151-.837.786-.127 1.539-.345 2.377-.303.562.026 1.151-.487 1.726-.762.094-.045.18-.105.342-.202.026.559.05 1.054.072 1.549.07.016.141.033.212.049.042-.157.115-.312.121-.47.015-.416-.016-.835.007-1.25.008-.135.128-.263.196-.395.07.007.139.013.209.02.037.396.094.791.106 1.188.009.273-.075.55-.057.821.008.123.163.235.253.354.057-.12.159-.237.162-.358.015-.728.007-1.457.007-2.233 2.086-.562 4.178-1.126 6.482-1.747" fill="#bfd0d9" transform="matrix(5.55556 0 0 5.55556 236.39027232 372.11131964)"/><path d="m0-10.447c1.172-.401 2.363-.499 3.58-.411 1.963.14 3.274 1.331 4.42 2.744.923 1.139 1.765 2.343 2.627 3.529.16.22.401.474.086.778-.013.013.14.214.23.315.13.148.401.298.388.424-.044.432.258.684.385 1.018.288.762.402 1.59.584 2.393.01.046-.023.104-.032.143-.723 0-1.433.013-2.14-.014-.11-.004-.27-.172-.306-.293-.846-2.844-2.255-5.361-4.283-7.533-1.278-1.368-2.893-2.159-4.618-2.777-.306-.108-.613-.211-.921-.316" fill="#93c83d" transform="matrix(5.55556 0 0 5.55556 329.14034652 74.44441484)"/><path d="m0 5.625c-.2-.621-.383-1.19-.566-1.761 1.046-.582 2.221-2.266 1.641-3.293-.224 1.253-.904 2.078-1.843 2.683-.554-.604-1.12-1.22-1.702-1.854 2.026-1.315 2.92-3.407 3.298-5.853.935.786 1.365 1.83 1.555 2.918.166.957.066 1.961.099 2.944.005.153.08.305.133.454.045.129.152.256.147.38-.087 2.203-.2 4.405-1.194 6.435-.208.423-.505.806-.797 1.179-.087.112-.369.221-.431.171-.204-.164-.494-.405-.489-.611.024-.947.113-1.894.233-2.835.029-.227.222-.487.414-.633.894-.675 1.116-1.678 1.374-2.669.013-.048-.006-.114-.032-.158-.025-.044-.08-.071-.195-.169-.413.975-.553 2.112-1.645 2.672" fill="#4f4f51" transform="matrix(5.55556 0 0 5.55556 424.52375616 74.5610816)"/><path d="m0-13.174c-.137 1.22.488 1.648 1.605 1.586.027-.002.057.039.171.123-.162.188-.3.39-.478.546-.348.303-.516.66-.601 1.125-.41 2.234-.277 4.492-.333 6.74-.026 1.107-.563 1.98-1.177 3.054-.29-.648-.608-1.143-.734-1.682-.467-2.012-.38-4.045.044-6.048.269-1.271.68-2.511 1.029-3.765.157-.56.316-1.119.474-1.679" fill="#456db5" transform="matrix(5.55556 0 0 5.55556 452.379334 156.03892456)"/><path d="m0 8.282c.973-1.554 1.925-3.12 2.926-4.657.728-1.117 1.519-2.194 2.287-3.286.225-.319.537-.461.912-.301.498.212 1.143.335 1.258.942.059.316-.18.737-.387 1.042-.935 1.383-2.015 2.68-2.828 4.128-.561 1-1.165 1.549-2.335 1.526-.421-.007-.849.306-1.269.483-.161.067-.308.163-.461.245-.035-.041-.069-.082-.103-.122" fill="#a7b6bf" transform="matrix(5.55556 0 0 5.55556 232.31804684 194.09451056)"/><path d="m0-1.246c.073 1.191.13 2.115.193 3.129-1.101-.241-2.21-.485-3.249-.715.049-.347.088-.63.128-.911-.258.135-.506.29-.774.397-.568.228-1.132.525-1.724.615-.576.087-.938-.344-.823-.888.189-.886.365-1.782 1.027-2.493.606-.652 1.291-1.017 2.147-.639 1.09.481 2.145 1.045 3.075 1.505" fill="#ecd1c8" transform="matrix(5.55556 0 0 5.55556 202.7402454 281.84458076)"/><path d="m0-9.205c.608-.353 1.217-.707 1.743-1.013.325.158.537.32.774.367 2.533.501 4.577 1.765 6.192 3.789 1.47 1.844 2.518 3.902 3.316 6.101.073.198.082.419.123.65-.317.117-.588.217-.881.324-.407-.889-.807-1.745-1.194-2.607-.719-1.602-1.859-2.903-3.033-4.163-1.629-1.748-3.57-2.978-6.002-3.275-.321-.04-.653-.005-.979-.005-.02-.057-.039-.112-.059-.168" fill="#69a5d9" transform="matrix(5.55556 0 0 5.55556 313.74588976 74.44441484)"/><path d="m0-7.195c.062.109.151.211.183.328.09.35.23.574.663.574.233 0 .466.197.655.285.318 1.365-.275 2.471-.825 3.611-.571 1.182-1.516 1.905-2.824 2.41-.739-.214-.736-.214-.819-1.145-.017-.182-.104-.364-.086-.539.019-.184.069-.427.198-.527.875-.672 1.807-1.275 2.654-1.981.407-.339.677-.847.987-1.294.055-.079.008-.231-.064-.398-.997 1.496-2.419 2.436-3.972 3.348-.134-.369-.275-.666-.339-.979-.021-.102.133-.281.25-.362.481-.336.981-.644 1.47-.97.88-.591 1.471-1.414 1.884-2.374z" fill="#4f4f51" transform="matrix(5.55556 0 0 5.55556 417.17375028 80.34441956)"/><path d="m0-4.541c.032.832.079 1.57.079 2.309.001.345-.144.617-.542.727-1.44.406-2.872.842-4.312 1.252-.364.103-.744.15-1.268.253 0-1.019-.005-1.947.011-2.874.002-.088.139-.227.235-.251.775-.187 1.558-.338 2.332-.526.94-.229 1.874-.481 2.812-.722.167-.045.335-.087.653-.168" fill="#bfd0d9" transform="matrix(5.55556 0 0 5.55556 278.41252816 338.394626)"/><path d="m0 2.413c.569-.661 1.14-1.253 1.618-1.911.254-.349.331-.822.522-1.221.074-.157.221-.317.373-.383.088-.039.291.068.383.167.447.477.825 1.033 1.324 1.442.408.333.935.617 1.446.702.485.081.902.198 1.296.479.279.199.594.347 1.046.605-.608.261-1.084.495-1.58.671-.949.334-1.879.59-2.93.247-.983-.322-2.036-.434-3.057-.643-.135-.028-.262-.092-.441-.155" fill="#ecd1c8" transform="matrix(5.55556 0 0 5.55556 220.44581512 282.15569212)"/><path d="m0-3.386c-.908.752-1.268 1.801-1.685 2.841-.156.389-.622.735-1.029.922-.644.296-1.379.683-2.045.08-.284-.258-.572-.674-.593-1.033-.079-1.47 1.628-3.87 3.636-3.518.58.102 1.136.345 1.702.522.005.063.009.124.014.186" fill="#ecd1c8" transform="matrix(5.55556 0 0 5.55556 173.8791112 284.17791596)"/><path d="m0-1.105c-.161.023-.424-.008-.469.077-.615 1.159-1.657 1.836-2.738 2.473-.217.129-.436.258-.714.423-.101-.242-.186-.452-.245-.597.379-.744 1.446-.639 1.656-1.477-.033-.052-.065-.104-.1-.155-.588.302-1.175.605-1.813.933-.6-.905-1.202-1.812-1.907-2.875.941-.16 1.794-.264 2.628-.456.929-.214 1.702.044 2.433.676.13-.144.238-.264.455-.506.283.528.541 1.013.799 1.497z" fill="#4f4f51" transform="matrix(5.55556 0 0 5.55556 417.25708368 46.43883688)"/><path d="m0 10.357c-1.961-1.706-2.283-7.401-.642-10.357.062.639.084 1.203.179 1.755.122.701.255 1.409.473 2.085.15.468-.004.88-.015 1.319-.033 1.463-.001 2.928.005 4.392.001.229 0 .458 0 .806" fill="#5cba47" transform="matrix(5.55556 0 0 5.55556 427.55153636 194.4222886)"/><path d="m0 6.406c-.25.083-.402.133-.653.216-.299-.55-.609-1.116-.918-1.683-.034-.062-.066-.132-.119-.172-.307-.239-.637-.452-.929-.708-1.092-.953-2.286-1.702-3.657-2.228-.701-.269-1.368-.544-2.122-.572-.07-.003-.18-.019-.201-.063-.32-.651-.686-.221-1.013-.034-.347.198-.667.444-1.031.691.16-1.257 1.117-2.069 2.293-1.967 2.29.201 4.047 1.428 5.58 3.012.776.801 1.445 1.705 2.147 2.576.226.281.403.601.623.932" fill="#4f4f51" transform="matrix(5.55556 0 0 5.55556 365.3237088 28.57771148)"/><path d="m0 2.446c-.741-.028-1.575-.129-2.399-.072-.759.053-1.503.295-2.26.412-.197.031-.486-.023-.616-.153-.922-.925-1.813-1.88-2.66-2.77 1.43-.234 6.499.888 7.935 2.583" fill="#4f4f51" transform="matrix(5.55556 0 0 5.55556 407.657076 15.19436744)"/><path d="m0-5.575c.343.841.68 1.651.998 2.467.039.1.003.256-.05.36-.483.983-1.93 2.576-3.212 2.748-.011-.981-.038-1.948.301-2.883.021-.06.086-.127.144-.146 1.233-.397 1.375-1.556 1.819-2.546" fill="#fff572" transform="matrix(5.55556 0 0 5.55556 347.8236948 246.40010796)"/><path d="m0-6.092c.021.615-.011 1.184-.346 1.795-.61 1.113-.795 2.382-.858 3.653-.03.608-.079.644-.651.418-.691-.275-1.382-.554-2.069-.838-.17-.07-.327-.167-.455-.235.953-.823 1.822-1.443 2.521-2.216.705-.774 1.24-1.703 1.858-2.577" fill="#ecd1c8" transform="matrix(5.55556 0 0 5.55556 318.40144904 255.31678176)"/><path d="m-1.051-.389c.715 3.447-.311 5.952-2.387 6.801.711.475 1.691.315 2.387-.421 1.036-1.094 1.214-2.472 1.172-3.882-.028-.974-.481-1.807-1.172-2.498" fill="#fec65c" transform="matrix(5.30947091424 -1.63515686368 -1.63515686368 -5.30947091424 444.75155012 55.52773304)"/><path d="m0 3.558c-.051-.129-.075-.164-.075-.197-.007-.401-.174-1.007.019-1.162.461-.369 1.097-.482 1.708-.198.06.029.131.033.208.052.148-.441-.036-.684-.438-.69-.49-.006-.989.026-1.468.126-.329.071-.445-.043-.593-.293-.178-.299-.004-.42.184-.585.703-.611 1.736-.61 2.382.026.08.08.103.227.129.349.223 1.059-.38 2.029-1.442 2.34-.2.059-.393.148-.614.232" fill="#4f4f51" transform="matrix(5.55556 0 0 5.55556 446.46821816 30.08326824)"/><path d="m0 4.076c-.232-.744-.471-1.485-.689-2.235-.029-.101.014-.268.086-.344.473-.504.962-.992 1.475-1.512.284.381.553.728.803 1.088.051.073.081.218.043.288-.492.914-.998 1.821-1.501 2.73-.072-.005-.145-.01-.217-.015" fill="#fec65c" transform="matrix(5.55556 0 0 5.55556 355.1014784 203.81674056)"/><path d="m0-2.349c.969-.493 1.393-.334 1.665.604.095.329.161.685.147 1.024-.032.699-.71 1.214-1.37 1.09-.576-.107-1.046-.911-.863-1.509.039-.126.149-.252.259-.331.333-.238.473-.501.162-.878" fill="#77b8e5" transform="matrix(5.55556 0 0 5.55556 400.2126256 160.75003944)"/><path d="m0 4.93v-5.032c.555.788 1.1 1.536 1.609 2.308.076.116.04.373-.037.516-.418.778-.864 1.542-1.301 2.31-.09-.035-.181-.068-.271-.102" fill="#5cba47" transform="matrix(5.55556 0 0 5.55556 430.52931652 225.54453572)"/><path d="m0 1.183c.011-.906.273-1.694 1.14-2.125.48-.238.779-.062.857.459.137.905-.163 1.708-.717 2.395-.175.216-.632.451-.808.366-.235-.113-.329-.53-.467-.823-.035-.075-.005-.181-.005-.272" fill="#93c83d" transform="matrix(5.55556 0 0 5.55556 333.26257204 213.19452584)"/><path d="m0-.069c.453-.252.806.06 1.008.901-1.08-.676-1.926-.131-2.564.308-.641-.63-1.258-1.235-1.87-1.836.538-.14 1.263-.326 1.987-.513.024.067.047.135.072.203-.346.17-.706.319-1.031.523-.14.089-.209.294-.309.445.172-.013.353.006.511-.048.31-.105.596-.282.909-.375.504-.149.992-.152 1.287.392" fill="#4f4f51" transform="matrix(5.55556 0 0 5.55556 450.6293326 25.16104208)"/><path d="m0 3.587c-1.346-.177-1.913-1.318-1.222-2.425.228-.365.486-.715.767-1.042.075-.085.33-.12.426-.06.15.097.343.302.333.448-.074 1.015-.195 2.028-.304 3.079" fill="#fec65c" transform="matrix(5.55556 0 0 5.55556 331.94034876 227.24453708)"/><path d="m0-3.62c.701.395 1.396.658 1.421 1.515.021.734.011 1.464-.442 2.105-.444-.226-.873-.444-1.373-.701.188-.459.486-.941.569-1.457.07-.451-.104-.94-.175-1.462" fill="#fec65c" transform="matrix(5.55556 0 0 5.55556 370.59037968 193.08339864)"/><path d="m0 5.171c1.241-1.836.945-3.516-.287-5.135.826-.036 1.631.742 1.836 1.893.239 1.343.098 2.77-1.549 3.242" fill="#fec65c" transform="matrix(5.55556 0 0 5.55556 457.28489348 20.13326028)"/><path d="m2.231-3.775c-1.433.724-1.692 2.241-1.129 4.49.371-.793.772-1.611 1.129-2.447.077-.18-.012-.427-.014-.644.001-.45.009-.902.014-1.399" fill="#fec65c" transform="matrix(-4.76720936932 2.85271339328 2.85271339328 4.76720936932 437.59598884 42.61105604)"/><path d="m0-3.547c-.038.717-.069 1.312-.104 1.907-.003.052-.02.114-.054.152-.438.497-.881.992-1.323 1.488l-.176-.032c.091-.93.1-1.877.305-2.781.139-.609.852-.52 1.352-.734" fill="#fff572" transform="matrix(5.55556 0 0 5.55556 330.5181254 232.37787452)"/><path d="m-.475-2.55c-.077.084-.161.178-.248.267-.688.7-.644.92.248 1.283.523.212 1.046.427 1.571.642.396-1.242.223-1.483-1.571-2.192" fill="#fff572" transform="matrix(-4.60534257316 3.10726359692 3.10726359692 4.60534257316 373.05149276 205.8667422)"/><path d="m0 1.852c-.02.002-.147-.017-.23.035-.39.246-.648.139-.818-.268-.226-.542-.118-.936.318-1.172.082-.044.184-.066.24-.13.185-.21.336-.598.673-.377.378.248.681.61.625 1.143-.067.621-.228.807-.808.769" fill="#77b8e5" transform="matrix(5.55556 0 0 5.55556 407.22929788 165.74448788)"/><path d="m.718-.003c-.558.124-1.222 1.07-1.274 1.832-.048.697.567 1.846 1.274 2.053-.124-.655-.346-1.309-.347-1.964-.001-.635.221-1.273.347-1.921" fill="#ecd1c8" transform="matrix(5.147087451 2.09086833936 2.09086833936 -5.147087451 136.53463688 282.60013692)"/><path d="m0-.299c-.646.396-1.703.257-1.776 1.447-.513-.968-.313-2.014.59-2.595.106.18.2.463.393.634.192.172.484.234.732.343.02.058.04.114.061.171" fill="#a7b6bf" transform="matrix(5.55556 0 0 5.55556 217.67914624 282.44458124)"/><path d="m0-2.494c-.735.881-1.387 1.663-2.08 2.494-.438-1.322.45-2.417 2.08-2.494" fill="#a7b6bf" transform="matrix(5.55556 0 0 5.55556 229.77915592 292.9223674)"/><path d="m.361-1.571c-.395.222-.742.42-1.081.61.152.712.421.883 1.081.752.402-.08.811-.124 1.272-.326-.423-.346-.849-.692-1.272-1.036" fill="#fec65c" transform="matrix(-4.99566510764 2.43054638888 2.43054638888 4.99566510764 333.85701696 209.7556342)"/><path d="m0 1.736c-.365-.188-.562-.561-.452-1.009.061-.251.3-.645.461-.646.348-.002.859-.081.963.487.041.231.103.471.075.697-.015.111-.205.23-.34.285-.205.085-.432.117-.707.186" fill="#fec65c" transform="matrix(5.55556 0 0 5.55556 389.89595068 170.77226968)"/><path d="m0 3.298c-.397-.971-.767-1.819-1.082-2.684-.059-.159.093-.395.147-.597l.208-.017c.368.88.759 1.752 1.077 2.65.052.149-.216.412-.35.648" fill="#4f4f51" transform="matrix(5.55556 0 0 5.55556 370.6848242 66.46107512)"/><path d="m0 1.783c-.366-.159-.733-.318-1.099-.478.206-.356.387-.731.631-1.061.099-.133.333-.166.506-.244.055.161.15.321.159.485.024.392.008.785.008 1.178-.069.04-.138.08-.205.12" fill="#d6e1e7" transform="matrix(5.55556 0 0 5.55556 214.42914364 285.01124996)"/><path d="m.133-1.829c-.169.373-.397.704-.448 1.06-.024.172.252.431.448.578.346.263.599 0 .763-.267.249-.41-.063-1.003-.763-1.371" fill="#fec65c" transform="matrix(-4.68770930572 2.98154682968 2.98154682968 4.68770930572 394.45150988 164.90559832)"/><path d="m.279-2.879c-.153-.006-.293-.011-.568-.024l.568 2.955c.025.003.181.018.366.037-.122-.992-.238-1.942-.366-2.968" fill="#bfd0d9" transform="matrix(-5.45540436432 1.050139729 1.050139729 5.45540436432 243.36805568 338.77795964)"/><path d="m-.279-1.266c-.423-.119-.496.22-.536.494-.06.401.106.775.536.797.207.011.531-.233.626-.44.155-.348-.212-.789-.626-.851" fill="#fec65c" transform="matrix(-5.51159329816 -.69756166916 -.69756166916 5.51159329816 390.87372924 191.13895264)"/><path d="m0 .79c.365-.41.661-.743.993-1.114.401.521.504.956.199 1.438-.336-.092-.676-.183-1.192-.324" fill="#fff572" transform="matrix(5.55556 0 0 5.55556 329.35701336 195.18895588)"/><path d="m-.447-.787c-.436.138-.74.213-.655.658.074.387.297.541.655.493.492-.066.403-.465.343-.766-.032-.163-.251-.29-.343-.385" fill="#77b8e5" transform="matrix(-.59338380804 -5.5237821968 -5.5237821968 .59338380804 405.13485176 180.30005508)"/><path d="m-.02.001c-.144.184-.268.341-.41.522.118.256.25.554.41.909.184-.118.353-.226.508-.325-.172-.374-.321-.698-.508-1.106" fill="#fff" transform="matrix(5.55338777604 -.15533956872 -.15533956872 -5.55338777604 397.47929008 171.23338116)"/><path d="m-.561-.692c-.163.257-.36.429-.337.561.043.24.218.459.337.684.081-.109.239-.225.231-.33-.018-.244-.115-.481-.231-.915" fill="#231f20" transform="matrix(-.05800671307 -5.5552544442 -5.5552544442 .05800671307 253.05139676 263.12789912)"/><path d="m0 1.29c-.104-.095-.249-.228-.393-.359.154-.094.298-.217.464-.273.601-.206 1.208-.394 1.816-.578.152-.046.316-.054.476-.08-.06.194-.061.473-.191.562-.295.205-.646.344-.992.458-.345.114-.71.166-1.18.27" fill="#231f20" transform="matrix(5.55556 0 0 5.55556 300.95699064 161.58337344)"/><path d="m0 .946c-.158-.199-.3-.413-.478-.591-.126-.128-.322-.186-.442-.316-.081-.089-.082-.248-.118-.376.128-.032.318-.134.374-.084.376.338.739.694 1.067 1.078.077.09.04.332-.024.468-.059.123-.223.196-.341.292-.068-.119-.137-.237-.205-.356.057-.038.111-.077.167-.115" fill="#231f20" transform="matrix(5.55556 0 0 5.55556 318.16811552 158.98337136)"/><path d="m0-.9c.496-.1 1.178.193 1.362.582.041.086.047.213.015.302-.019.052-.174.116-.218.09-.37-.214-.734-.44-1.086-.684-.061-.043-.051-.19-.073-.29" fill="#231f20" transform="matrix(5.55556 0 0 5.55556 318.52367136 75.87219376)"/><path d="m0 .926c-.001-.003-.068-.081-.074-.164-.007-.095.012-.257.069-.284.37-.172.75-.333 1.14-.455.073-.023.207.147.312.229-.095.083-.178.196-.291.243-.343.145-.698.263-1.156.431" fill="#231f20" transform="matrix(5.55556 0 0 5.55556 282.89586508 74.22219244)"/><path d="m-.028-.712c-.204.079-.315.122-.425.166.137.191.262.394.425.558.029.03.217-.102.334-.157-.101-.172-.201-.343-.334-.567" fill="#231f20" transform="matrix(-5.2780875558 -1.73379027592 -1.73379027592 5.2780875558 348.49591756 182.18338992)"/><path d="m0-1.182c-.377.327-.641.663-.987.833-.754.37-1.545.666-2.331.973-.56.218-1.114.406-1.754.26-1.676-.384-3.149-1.135-4.469-2.229-.197-.164-.517-.217-.787-.245-.111-.014-.289.153-.35.28-.035.073.076.261.169.342.247.214.499.437.787.583.992.5 1.982 1.012 3.009 1.433.795.327 1.663.571 2.518.285 1.284-.428 2.545-.927 3.803-1.43.357-.143.666-.4 1.103-.671-.357-.208-.588-.343-.711-.414m-.724.042c-.263-.179-.37-.293-.499-.334-1.182-.372-2.366-.741-3.554-1.095-1.349-.402-2.514.159-3.672.736-.377.187-.384.421-.073.657.215.163.472.266.71.399.933.525 1.943.897 2.988 1.007 1.504.158 2.648-.873 4.1-1.37m-4.201 3.272c-.67-.189-1.41-.331-2.099-.605-1.357-.539-2.756-1.01-3.873-2.019-.3-.27-.619-.523-.377-.966.336-.62.692-.888 1.24-.64.473.213.905.177 1.366-.15.487-.345 1.036-.654 1.603-.818.562-.161 1.204-.248 1.771-.144 1.601.288 3.221.562 4.659 1.41.047.027.118.092.136.079.586-.409.898.183 1.274.392.549.306.555.907.023 1.243-.585.37-1.209.695-1.849.961-.946.392-1.919.726-2.888 1.062-.29.101-.607.123-.986.195" fill="#231f20" transform="matrix(5.55556 0 0 5.55556 213.61247632 313.22238364)"/><path d="m0 4.952c.291-.099.543-.134.729-.264.13-.091.274-.353.228-.466-.06-.152-.295-.322-.458-.326-.218-.004-.465.108-.648.24-.151.107-.34.346-.308.477.035.146.303.235.457.339m-3.957-4.271c-1.232-.616-2.907-.007-3.773.682-.391.309-.318.853.127 1.102.3.168.637.286.969.377 1.112.308 2.222.631 3.349.872.502.108 1.093.181 1.552.017.853-.307 1.641-.794 2.447-1.224.081-.043.162-.221.137-.304-.097-.321-1.373-.65-1.63-.418-.858.77-1.855.799-2.886.526-.198-.052-.466-.312-.478-.491-.023-.357.107-.724.186-1.139m4.724 2.614c.518.393.91.902.573 1.508-.318.573-.981.567-1.581.514-.605-.052-.76-.489-.821-1.009-.055-.007-.113-.035-.152-.018-.888.369-1.745.233-2.628-.068-.809-.276-1.664-.413-2.477-.678-.602-.198-1.207-.44-1.742-.773-.7-.436-.576-1.632.242-2.014 1.177-.55 2.347-1.181 3.761-.736.785.247 1.024.625.547 1.286-.221.306-.146.467.193.547.835.195 1.605.105 2.208-.575.335-.38.684-.432 1.118-.165.263.162.569.251.843.398.769.414.82 1.04.14 1.577-.071.055-.133.121-.224.206" fill="#231f20" transform="matrix(5.55556 0 0 5.55556 124.9901832 317.7279428)"/><path d="m0-3.037c-.029.07-.06.143-.089.213.179.167.379.317.532.507.163.201.349.339.494.062.082-.153.044-.532-.057-.584-.259-.134-.582-.14-.88-.198m1.943 4.365c.397-.305.695-.534.994-.763-.156-.119-.301-.319-.47-.342-.467-.061-.94.245-.907.565.016.153.197.29.383.54m-.93-1.886c.701.016 1.225-.252 1.144-.543-.056-.203-.315-.45-.52-.49-.452-.087-.863.255-.839.645.01.157.167.307.215.388m-6.105-1.856c.396.116.716.192 1.022.302 1.083.385 2.173.752 3.237 1.185.436.176.828.195 1.076-.169.249-.368.027-.769-.285-1.018-.905-.722-1.935-1.176-3.106-1.243-.777-.044-1.426.217-1.944.943m-.704-.217c.516-.384.891-.669 1.271-.945.247-.18.512-.335.753-.522.384-.296.8-.473 1.279-.316.38.125.742.307 1.112.461.507.209.951.534 1.589.375.607-.152 1.199.331 1.336.942.063.279.139.456.465.569.729.25.885.923.433 1.652.475.22.947.469.877 1.101-.019.168-.145.378-.287.468-.258.164-.558.329-.853.353-.332.027-.761.001-.995-.19-.287-.235-.262-.658-.015-1.004.072-.101.109-.227.186-.391-.525-.063-.963-.427-1.517-.114-.156.09-.46-.032-.678-.11-1.066-.382-2.123-.793-3.191-1.172-.565-.203-1.157-.337-1.715-.556-.214-.085-.369-.321-.551-.487.22-.05.44-.099.501-.114" fill="#231f20" transform="matrix(5.55556 0 0 5.55556 140.31797324 327.7835064)"/><path d="m0 .406-.012-.212c-.151-.078-.303-.225-.453-.222-.267.005-.671-.064-.649.373.008.162.291.453.414.436.246-.034.468-.24.7-.375m-.739.812c-.484.05-.75-.196-.864-.609-.121-.442-.076-.859.411-1.063.364-.153.743-.311 1.13-.36.373-.048.416.082.289.45-.032.091-.006.207.014.308.169.855-.151 1.265-.98 1.274" fill="#231f20" transform="matrix(5.55556 0 0 5.55556 142.34575264 334.03906696)"/><path d="m0-4.737c-.894.548-1.331 2.478-.867 3.851.283.839 1.332 1.645 1.938 1.586-.399-.829-.997-1.654-1.177-2.563-.182-.909.053-1.903.106-2.874m.306 2.296c.217 1.202.755 2.336 1.915 3.107.087.058.203.09.308.099.839.069 1.516-.307 2.01-.92.856-1.063.864-2.289.499-3.548-.302-1.045-.899-1.783-2.034-1.964-.035-.006-.066-.033-.101-.039-.302-.049-.601-.102-.903-.139-.395-.049-.461.317-.681.504-.889.754-.832 1.779-1.013 2.9m1.872 3.875c-2.01.153-3.138-.95-3.609-2.3-.505-1.442-.228-2.82.746-4.02.276-.338.557-.753.929-.911.628-.266 1.346-.527 1.999-.474.771.064 1.607.324 2.245.752.76.509.96 1.467 1.199 2.342.276 1.009.149 1.968-.319 2.868-.659 1.263-1.738 1.83-3.19 1.743" fill="#231f20" transform="matrix(5.55556 0 0 5.55556 379.25705328 129.82779248)"/><path d="m0-.044c.012.079.022.158.034.237-.575.087-1.16.279-1.722.227-.442-.041-.849-.398-1.286-.581-.154-.067-.347-.04-.522-.055.072.163.1.381.223.478.285.224.605.412.931.574.804.401 1.966.511 2.737-.333.425-.466.363-.897-.236-1.074-.525-.157-1.06-.288-1.6-.391-.141-.027-.309.089-.466.14.109.134.194.345.331.389.516.159 1.05.264 1.576.389m2.746.174c-1.452.496-2.596 1.527-4.1 1.37-1.046-.111-2.055-.482-2.989-1.007-.237-.134-.495-.237-.709-.4-.312-.235-.305-.469.073-.658 1.158-.576 2.322-1.136 3.671-.735 1.189.355 2.373.723 3.554 1.095.13.042.237.155.5.335" fill="#a7b6bf" transform="matrix(5.55556 0 0 5.55556 194.33468312 306.172378)"/><path d="m0-2.379c.123.071.354.206.711.414-.437.271-.746.528-1.103.671-1.258.503-2.519 1.002-3.803 1.43-.855.286-1.723.042-2.518-.285-1.027-.421-2.017-.933-3.009-1.433-.288-.146-.54-.369-.787-.583-.093-.081-.204-.269-.169-.342.061-.127.239-.294.35-.28.27.028.59.081.787.245 1.32 1.094 2.793 1.845 4.469 2.229.64.146 1.194-.042 1.754-.26.786-.307 1.577-.603 2.331-.973.346-.17.61-.506.987-.833" fill="#a7b6bf" transform="matrix(5.55556 0 0 5.55556 213.61247632 319.87238896)"/><path d="m0-2.598c-.077.414-.209.782-.186 1.138.012.179.281.44.478.492 1.032.273 2.029.244 2.887-.526.258-.233 1.532.096 1.63.418.025.083-.057.26-.138.304-.805.429-1.594.916-2.446 1.223-.459.165-1.051.091-1.553-.017-1.127-.241-2.237-.563-3.349-.871-.332-.091-.668-.21-.968-.378-.445-.248-.518-.792-.128-1.102.866-.688 2.541-1.297 3.773-.681" fill="#a7b6bf" transform="matrix(5.55556 0 0 5.55556 103.00683228 335.9501796)"/><path d="m0 1.06c-.154-.104-.422-.193-.457-.339-.032-.131.157-.37.308-.477.183-.132.43-.244.648-.24.163.004.398.174.458.326.046.113-.098.375-.228.466-.186.13-.438.165-.729.264" fill="#a7b6bf" transform="matrix(5.55556 0 0 5.55556 124.9901832 339.35018232)"/><path d="m0-.694c.519-.727 1.166-.988 1.944-.943 1.171.067 2.2.52 3.105 1.243.313.249.534.649.285 1.017-.247.365-.639.346-1.075.168-1.063-.431-2.153-.798-3.236-1.183-.307-.11-.627-.187-1.023-.302" fill="#a7b6bf" transform="matrix(5.55556 0 0 5.55556 112.03461728 318.2279432)"/><path d="m.356-.176c-.083.044-.294.091-.384.221-.221.321-.047.826.384.985.196.072.545-.005.699-.149.22-.207-.089-.708-.699-1.057" fill="#a7b6bf" transform="matrix(4.75407046992 2.87455229964 2.87455229964 -4.75407046992 144.75686568 322.81683576)"/><path d="m.278-.067c-.276.146-.496.192-.578.323-.167.274.13.755.578.9.162.051.379-.067.571-.108-.172-.336-.343-.67-.571-1.115" fill="#a7b6bf" transform="matrix(5.0197540158 2.38040745988 2.38040745988 -5.0197540158 149.879092 334.16128928)"/><path d="m0-1.059c.298.058.621.064.88.198.101.052.139.431.057.584-.145.277-.331.139-.494-.062-.153-.19-.353-.34-.532-.507.029-.07.06-.143.089-.213" fill="#a7b6bf" transform="matrix(5.55556 0 0 5.55556 140.31797324 316.79460872)"/><path d="m0 .106c-.232.135-.454.341-.7.375-.123.017-.406-.274-.414-.436-.022-.437.382-.368.649-.373.15-.003.302.144.453.222z" fill="#a7b6bf" transform="matrix(5.55556 0 0 5.55556 142.34575264 335.70573496)"/><path d="m0 .179c.182-1.121.123-2.147 1.014-2.901.219-.186.285-.553.68-.503.302.037.601.09.902.139.036.005.067.032.102.038 1.135.182 1.732.92 2.034 1.964.365 1.26.357 2.485-.499 3.548-.493.614-1.17.99-2.01.921-.105-.009-.221-.041-.308-.1-1.16-.77-1.698-1.905-1.915-3.106" fill="#f392bd" transform="matrix(5.55556 0 0 5.55556 380.95149908 115.27778084)"/><path d="m-.789-5.419c.24.942.663 1.872.66 2.799-.001.927-.428 1.852-.66 2.742.606-.059 1.48-1.052 1.595-1.93.19-1.437-.612-3.246-1.595-3.611" fill="#bb85bb" transform="matrix(-5.45081547176 1.0737230812 1.0737230812 5.45081547176 380.77372116 133.90001796)"/><path d="m0-.446c-.526-.125-1.06-.23-1.576-.389-.137-.044-.222-.255-.331-.389.157-.051.325-.167.466-.14.54.103 1.075.234 1.6.391.599.177.661.608.236 1.074-.771.844-1.933.734-2.737.333-.326-.162-.646-.35-.931-.574-.123-.097-.151-.315-.223-.478.175.015.368-.012.522.055.437.183.844.54 1.286.581.562.052 1.147-.14 1.722-.227-.012-.079-.022-.158-.034-.237" fill="#231f20" transform="matrix(5.55556 0 0 5.55556 194.33468312 308.40571312)"/><path d="m-.663-.663c-.542 0-.982.297-.982.663s.44.663.982.663c.543 0 .982-.297.982-.663s-.439-.663-.982-.663" fill="#231f20" transform="matrix(0 -5.55556 -5.55556 0 316.70700324 93.93887488)"/></g></svg>