<svg enable-background="new 0 0 99.21 99.21" viewBox="0 0 99.21 99.21" xmlns="http://www.w3.org/2000/svg"><path d="m13.45 78.04c-.38 1.08-.39 1.11-1.43.81-1.43-.42-2.85-.89-4.27-1.35-.42-.13-.6-.4-.59-.86.03-1.09 0-2.18.04-3.27 0-.13.2-.33.35-.37.5-.12 1.02-.14 1.51-.28 1.46-.4 2.9-.84 4.35-1.24 2.18-.6 4.38-1.17 6.56-1.78 2.04-.57 4.08-1.14 6.12-1.74 1.4-.41 2.78-.89 4.26-1.36-.82-.46-.98-1.2-1.06-1.96-.18-1.8 1.19-2.87 2.85-2.97.28-.02.58-.06.83-.18 1.26-.61 2.42-.17 3.59.29.32.13.68.14 1.03.22.67.14 1.4.17 2 .45.88.41 1.66 1.01 2.52 1.56.42-.15.61-.46.58-1.01-.07-1.26.73-2.15 1.59-2.88 1.27-1.07 2.15-2.39 2.97-3.8.71-1.23 1.47-2.44 2.25-3.63.7-1.07 1.42-2.12 2.17-3.15.49-.67 1.04-.76 1.76-.36.35.19.71.37 1.02.61.68.53.61 1.51-.14 2.33-.06.07-.15.11-.2.19-.49.76-.98 1.53-1.54 2.4 2.53.19 4.31 1.37 5.22 3.91.64-.46 1.31-.8 1.78-1.32.67-.73 1.2-1.6 1.78-2.41.4-.56.8-1.13 1.19-1.7.11-.16.22-.33.29-.51.55-1.25 1.03-2.53 2.02-3.54.07-.07.07-.21.1-.32-.13-.02-.26-.06-.38-.04-3.1.48-6.14.4-8.93-1.22-2.27-1.32-3.68-3.34-4.31-5.89-.05-.19-.18-.36-.22-.55-.11-.44-.31-.89-.27-1.31.12-1.34.3-2.68.53-4.01.37-2.02 1.02-3.97 1.97-5.79 1.25-2.39 2.84-4.56 4.75-6.48.03-.03.05-.06.08-.08 1.06-.62 1.39-1.73 1.76-2.78.49-1.4 1.37-2.3 2.72-2.95 1.32-.63 2.65-.88 4.07-.89.85 0 1.7-.16 2.54.11.24.08.54-.07.81-.08 1.88-.12 3.69.31 5.44.85 1.04.32 1.98.99 2.94 1.54.29.17.5.2.79.04 1.48-.83 3.13-1.17 4.74-1.59.57-.15 1.25.12 1.88.2.29.04.58.14.86.11.81-.1 1.68.31 2.1 1.03.67 1.16.81 2.37.38 3.64-.14.42-.17.71.09 1.16.47.81.83 1.71 1.08 2.62.63 2.23 1.18 4.49 1.31 6.82.09 1.73.16 3.46.24 5.2.01.26.06.51.04.76-.02.28-.02.72-.18.81-.68.37-.46.88-.28 1.34.57 1.47.55 3 .54 4.53-.01 1.7-.4 3.32-1.01 4.9-.09.22-.16.47-.31.64-.24.27-.55.5-.83.74-.2-.25-.5-.47-.6-.75-.51-1.52-1.07-3.03-1.43-4.58-.37-1.58-.54-3.2-.79-4.8-.02-.14-.06-.28-.2-.46-.14.31-.21.7-.44.92-.64.64-.25 1.2-.04 1.86.5 1.54.89 3.12 1.32 4.68.1.38.05.72-.34.95-.12.07-.19.21-.35.4 1.02.41.91 1.24.85 2.05-.15 1.89-.29 3.78-.48 5.66-.11 1.1-.77 1.34-1.73.7-.32-.21-.62-.45-.89-.65-.5.79-.98 1.58-1.49 2.34-.18.27-.41.52-.65.73-.22.19-.43.34-.73 0-1.69-1.92-2.37-4.19-2.27-6.69.07-1.66.27-3.33.92-4.88.68-1.6.48-3.2.07-4.78-.28-1.09-.7-2.14-1.06-3.21-.03-.1-.09-.21-.17-.28-.11-.09-.24-.15-.36-.23-.01.13-.05.27-.02.4.04.23.12.46.19.68.21.71.15 1.37-.32 1.88.22.42.43.79.61 1.18.06.13.12.32.07.43-.42.87-.32 1.84-.56 2.74-.04.16-.08.36-.01.49.29.59.24 1.15-.14 1.65-.15.19-.54.4-.71.33-.32-.13-.65-.41-.8-.71-.1-.21.09-.57.19-.85.02-.06.25-.1.33-.06s.12.21.12.32c0 .12-.12.27-.08.36.07.17.22.31.33.46.12-.09.28-.16.35-.28.35-.62.14-1.06-.56-1.2-.77-.16-1.16-.8-1.01-1.61.03-.17-.03-.35-.12-.52-.23.47-.44.89-.24 1.45.24.69-.16 1.22-.85 1.53 1.89 2.19 2.54 4.83 2.8 7.57.19 1.97.24 3.96.3 5.94.06 2.3.07 4.6.07 6.91 0 .82-.05 1.64-.11 2.46-.03.43-.01.8.4 1.05.06.04.11.1.16.15.82.84.82.99.21 1.98-.1.16-.08.43-.06.64.06.63.28 1.3-.41 1.73-.17.1-.41.1-.61.15.08-.18.12-.4.25-.54.33-.34.41-.7.23-1.24-.27.24-.46.45-.69.61-.32.24-.65.47-1 .65-.09.05-.27-.07-.41-.12.08-.1.14-.25.24-.3.88-.43 1.57-1.06 2.08-1.89.49-.79.45-.94-.41-1.48-.08.11-.17.21-.24.33-1.07 1.96-2.88 2.83-4.93 3.29-1.08.24-2.18.37-3.28.53-.5.07-1.02.17-1.51.11-.58-.07-1.15-.3-1.72-.45-1.62-.44-3.24-.85-4.84-1.33-2.13-.63-4.25-1.32-6.38-1.97-.26-.08-.58-.08-.85-.03-.68.13-1.36.28-2.03.47-.57.16-1.12.41-1.7.57-1.12.31-2.26.58-3.39.89-.84.23-1.67.53-2.51.75-1.07.28-2.17.49-3.24.77-.52.14-1.02.36-1.52.58-.74.34-1.48.62-2.31.54-.17-.02-.36.05-.53.1-2.21.68-4.42 1.4-6.65 2.03-.78.22-1.62.22-2.42.38-.75.14-1.49.33-2.22.55-1.8.54-3.45-.08-5.13-.59-2.36-.72-4.72-1.43-7.09-2.1-.45-.13-.71-.28-.7-.79.01-.24-.13-.47-.2-.71zm66.63-55.94c-.41.96-1 1.78-1.88 2.36-.49.33-.99.63-1.46.97-.12.08-.27.26-.25.36.06.31.2.61.34.98 1.55-.91 2.96-1.85 3.96-3.34.07.17.12.32.06.4-.31.44-.58.95-.98 1.29-.84.7-1.77 1.3-2.65 1.97-.13.1-.18.34-.2.52-.02.17.07.36.09.54.08.93.08.93.82 1.14 1.3-.5 2.24-1.22 2.81-2.4.55-1.14 1.14-2.24.82-3.6-.19-.09-.42-.28-.65-.28-.43 0-.57-.22-.66-.57-.03-.12-.12-.22-.18-.33-.26-.48-.51-.96-.8-1.49-.22.24-.32.36-.45.5-.73-.63-1.5-.89-2.42-.67-.83.19-1.68.3-2.62.45.7 1.06 1.3 1.96 1.9 2.87.64-.33 1.22-.63 1.81-.93.03.05.07.1.1.15-.21.84-1.27.73-1.65 1.47.06.15.14.35.24.6.28-.16.5-.29.71-.42 1.08-.64 2.11-1.31 2.73-2.46.04-.09.3-.06.46-.08zm-19.34 46.07c-.18.19-.36.32-.44.49-.81 1.67-.85 3.46-.82 5.26.01.86.3 1.48 1.25 1.63.21.03.42.14.63.19 1.75.46 3.49.96 5.26 1.34 1.39.3 2.72.86 4.23.67 1.95-.24 3.82-.64 5.49-1.7.74-.47 1.52-.96 1.7-1.91.16-.89.34-1.8.34-2.71.03-3.57.05-7.13-.04-10.7-.07-2.54-.4-5.07-1.25-7.49-.57-1.62-1.4-3.05-3.03-3.86-.28-.14-.47-.16-.62.16-.13.28-.28.56-.44.82-1.13 1.85-2.26 3.71-3.41 5.55-.82 1.32-1.59 2.68-3.08 3.41-.43.21-.83.5-1.25.73-.08.04-.23-.02-.34-.06-.13-.05-.25-.16-.38-.18-.95-.17-1.52-.75-1.82-1.63-.13-.38-.23-.76-.34-1.14-.29.96-.48 1.93-.6 2.9-.1.81.06.98.88.9 1.5-.16 2.97-.48 4.25-1.35 2.11-1.43 3.77-3.27 5.04-5.48.12-.21.33-.37.5-.55.07.04.14.07.2.11-.05.22-.03.49-.15.66-.66.98-1.29 1.99-2.06 2.89-1.43 1.68-3 3.2-5.21 3.86-1.16.35-2.33.67-3.56.45-1.31-.23-2.52-.77-3.66-1.41-.43-.24-.76-.76-1-1.22-.29-.53-.33-1.19-.66-1.68-.93-1.4-2.45-1.66-3.97-1.87-.09-.01-.24.04-.29.11-.39.56-.75 1.13-1.13 1.71.12.06.15.08.18.1.2.11.58.25.56.33-.07.4-.4.23-.66.22-1.01-.05-2.02-.1-2.95.38-1.51.77-2.88 1.73-3.97 3.04-.28.33-.5.73-.66 1.13-.26.64-.27 1.33.23 1.85.48.51 1.16.51 1.8.35.29-.07.54-.26.82-.4.75-.36 1.51-.73 2.27-1.07.15-.07.34-.06.52-.09-.08.2-.13.41-.24.58-.06.09-.22.12-.33.18-.32.17-.42.41-.17.71.42.48.79 1.02 1.3 1.39.37.26.91.37 1.37.37.36 0 .61.02.86.29.58.63 1.29.96 2.16.76.86-.2 1.67-.52 2.32-1.16.43-.43.95-.52 1.51-.29.47.19.92.44 1.4.63.47.19.89.62 1.48.38.07-.03.19.07.28.13.25.16.47.4.74.48 2.04.65 4.04.57 6.06-.18 2.12-.79 3.77-2.15 5.06-3.94.66-.91 1.17-1.93 1.76-2.9.08-.14.25-.22.37-.33.07.19.16.38.2.58.01.07-.08.16-.12.24-.34.64-.69 1.28-1.05 1.94.57.29 1.11.18 1.65-.08-.46.97-1.25.8-2.03.59-1.63 2.31-3.64 4.07-6.4 4.82-2.03.55-4.04.56-6.02-.27-.15-.06-.34-.06-.51-.08-.01.17-.01.35-.01.42zm-8.61-26.06c-.01.05-.05.1-.03.14.69 2.26 2.17 3.89 4.22 4.96 2.53 1.32 5.26 1.4 8.02.96.48-.08.96.06 1.15.38.44.75 1.18 1.48.62 2.51-.07.13-.04.31-.06.5.74.01 1.32.22 1.46 1.11.33-.21.61-.33.8-.53 1.05-1.08 1.89-2.31 2.61-3.64.44-.82.55-1.6.12-2.44-.06-.11-.04-.37.04-.44.49-.4.97-.77 1.3-1.37.29-.53.85-.91 1.25-1.32-.83-.3-1.69-.45-2.38-.88-2.2-1.38-3.37-3.45-3.37-6.03 0-2.23.96-4.09 2.79-5.43.32-.24.41-.48.27-.84-.2-.53-.38-1.07-.57-1.6-.15-.4-.33-.77-.87-.72.22-.54-.09-1.23-.8-1.87-.19.15-.38.33-.59.46-.11.06-.28.03-.42.04.03-.14.01-.34.09-.41.2-.17.45-.29.67-.43-.3-.37-.46-.49-.6-.63-.59-.55-.59-.55-1.24-.1-.08.06-.22.02-.34.03-.01-.13-.06-.29-.01-.39.1-.18.26-.33.41-.5-.13-.12-.22-.21-.32-.29-.16-.12-.33-.24-.5-.34-.55-.32-.75-.28-1.14.22-.04.06-.07.15-.13.18-.13.06-.28.08-.42.12-.01-.15-.07-.34-.01-.45.12-.21.32-.39.49-.58-1.13-.65-1.13-.65-1.94.23-.08.08-.27.07-.4.1-.01-.14-.07-.31-.02-.42.09-.19.25-.34.41-.54-.57-.25-1.06-.24-1.55.06-2.64 1.61-4.53 3.93-6.19 6.48-.93 1.43-1.69 2.95-2.18 4.59-.44 1.47-.84 2.95-1.25 4.43.17.02.21.01.23-.02.05-.08.09-.16.13-.24.87-1.51 1.99-2.79 3.4-3.82.31-.22.52-.4.38-.83-.06-.18.03-.44.12-.63.08-.15.26-.31.41-.33.11-.02.29.17.38.3.11.18.16.4.24.59 1.26-.02 1.26-.02 1.35.26-.47.12-.98.17-1.41.39-2.54 1.31-4.16 3.45-5.18 6.06-.39 1.01-.14 1.85.63 2.19.56.24 1.17.43 1.77.54 1.3.23 2.62.24 3.91-.07.28-.07.55-.22.85-.34-.11.72-.29.91-.99 1.01-1.88.28-3.76.37-5.61-.37zm-43.46 31.26v.17c1.81.58 3.6 1.18 5.42 1.72 1.29.38 2.61.7 3.93 1 1.89.44 3.79.85 5.69 1.24.66.14 1.38.07 1.99.32.49.2.89.19 1.35.06 1.08-.29 2.15-.61 3.24-.83 1.63-.32 3.28-.55 4.91-.84.64-.11 1.31-.46 1.91-.36.83.13 1.48-.07 2.09-.54.92-.71 1.93-1.23 3.09-1.39.27-.04.54-.09.8-.17 2.41-.75 4.81-1.51 7.22-2.25.44-.13.93-.14 1.39-.22.64-.12 1.28-.26 1.93-.39-.01-.06-.02-.13-.02-.19-.62-.21-1.23-.45-1.85-.63-3.21-.95-6.55-1.35-9.79-2.2-1.22-.32-2.45-.58-3.68-.84-.22-.05-.5-.05-.71.04-1.29.56-2.05.38-2.86-.73-1.02.64-2.07 1.06-3.29.62-.07-.03-.18.02-.27.05-.95.28-1.9.55-2.84.84-1.88.59-3.75 1.23-5.65 1.77-2.6.73-5.24 1.35-7.85 2.06-1.55.42-3.07.94-4.61 1.38-.5.16-1.03.22-1.54.31zm64.33-43.66c.14.19.26.35.38.51-.21.06-.42.14-.63.19-.34.07-.71.06-1.02.19-1.71.73-3.44 3.39-3.36 5.24.1 2.48 1.11 4.47 3.3 5.75.82.48 1.7.74 2.67.58.55-.09 1.12-.14 1.66-.26.18-.04.4-.22.47-.39.26-.65.81-.9 1.4-.83.96.11 1.49-.44 1.88-1.13 1.19-2.08 1.4-4.32.78-6.62-.24-.87-.56-1.76-1.37-2.24-.87-.52-1.81-.97-2.77-1.29-1.15-.38-2.3-.1-3.39.3zm17.18 13.6c-.08.02-.15.05-.23.07-.08-.15-.23-.29-.24-.44-.11-1.89-.2-3.79-.3-5.68-.1-1.71-.13-3.43-.34-5.13-.25-2.06-.65-4.11-1.01-6.16-.06-.37-.2-.73-.35-1.24-.14.41-.26.64-.29.89-.15 1.3-.32 2.6-.41 3.91-.06.91.05.98.99 1.14.81.14.99.53.55 1.2-.08.12-.23.19-.3.31-.22.38-.55.76-.61 1.17-.15 1.04-.1 2.11-.27 3.14-.31 1.89.02 3.76.2 5.61.2 1.92.7 3.82 1.08 5.72.24 1.21.61 2.38 1.3 3.54.24-.41.5-.73.63-1.1 1.19-3.29 1.38-6.6.05-9.9-.12-.31-.02-.48.23-.56.55-.16.6-.5.43-.97-.05-.13-.02-.29-.01-.43.27-2.16.08-4.32-.26-6.45-.31-1.94-.78-3.86-1.27-5.77-.23-.88-.55-1.77-1.22-2.49-.12.09-.21.15-.29.21-.08.07-.16.14-.22.19 1.76 6.34 1.96 12.78 2.16 19.22zm-10.47-2.64c.92 1.42 1.33 3.02 1.54 4.68.23 1.83.44 3.65.69 5.47.21 1.52.55 3 1.29 4.39.51.95 1.27 1.65 2 2.39.37.38.91.61 1.45.95.09-.38.17-.59.18-.8.15-2 .29-4.01.45-6.01.03-.43-.15-.68-.51-.88-.63-.35-.63-.42-.17-1.02.2-.26.47-.62.42-.87-.24-1.25-.48-2.52-.89-3.72-.68-2.02-1.88-3.75-3.34-5.29-.52-.55-1.16-.98-1.76-1.47-.45.72-.43.71 0 1.16 1.79 1.89 2.84 4.18 3.53 6.65.47 1.69.89 3.39 1.22 5.11.24 1.25.29 2.53.41 3.79.01.12-.12.26-.18.4-.05-.01-.1-.03-.14-.04-.04-.3-.07-.61-.12-.91-.18-1.25-.31-2.5-.56-3.73s-.68-2.43-.93-3.66c-.47-2.3-1.53-4.33-2.82-6.25-.28-.42-.68-.77-1.04-1.17-.3.32-.5.56-.72.83zm-53.27 41c.06-1.02.12-2.06.19-3.15-.26.04-.49.08-.69.11-.07.32-.13.6-.19.88-.06.02-.12.03-.19.05-.07-.19-.23-.4-.2-.58.07-.49-.14-.59-.58-.68-2.41-.5-4.82-1.01-7.22-1.59-1.93-.47-3.85-1.01-5.76-1.56-1.12-.32-2.23-.7-3.34-1.08-.45-.15-.71-.08-.74.43-.03.42-.05.84-.08 1.26-.06.98.09 1.22 1.02 1.5 1.06.33 2.14.62 3.2.97.47.15.82.24.98-.39.05-.18.36-.39.56-.4.16-.01.34.26.5.43.06.06.08.17.09.25.07.66.52.85 1.09 1.01 2.38.69 4.76 1.43 7.13 2.16 1.36.41 2.73.81 4.23.38zm21.2-8.59c-2.3.62-4.38 1.18-6.46 1.74 0 .77.01 1.5-.01 2.22 0 .12-.11.24-.16.36-.09-.12-.24-.23-.25-.35-.02-.27.07-.55.06-.82-.01-.4-.07-.79-.11-1.18-.07-.01-.14-.01-.21-.02-.07.13-.19.26-.2.39-.02.41.01.83-.01 1.25-.01.16-.08.31-.12.47-.07-.02-.14-.03-.21-.05-.02-.49-.05-.99-.07-1.54-.16.1-.25.16-.34.2-.57.27-1.16.79-1.72.76-.83-.04-1.58.18-2.37.3-1.71.27-3.43.53-5.13.83-1.1.2-1.08.24-1.25 1.32-.03.16-.18.31-.28.46-.07-.03-.13-.05-.2-.08 0-.44 0-.88 0-1.32-.05-.02-.1-.04-.15-.05-.11.14-.29.27-.32.43-.08.44-.09.9-.16 1.35-.03.21-.14.42-.22.62-.07-.02-.13-.03-.2-.05 0-.64 0-1.27 0-1.91-.04-.03-.08-.07-.12-.1-.11.13-.31.25-.32.38-.08.95-.12 1.9-.17 2.91.32-.06.49-.09.67-.13 1.12-.24 2.24-.5 3.36-.73 2.37-.48 4.66-1.21 6.9-2.12.15-.06.33-.13.47-.1.81.16 1.49-.12 2.18-.5.44-.24.93-.43 1.41-.55 1.72-.43 3.45-.82 5.17-1.25.2-.05.49-.28.5-.44.07-.86.04-1.74.04-2.7zm16.63-55.27c.31.11.61.21.92.32 1.72.61 3.33 1.4 4.6 2.77 2.02 2.16 3.42 4.67 4.27 7.5.04.12.2.29.3.29.71.03 1.41.01 2.13.01.01-.04.04-.1.03-.14-.18-.8-.3-1.62-.58-2.38-.13-.33-.43-.58-.38-1.01.01-.13-.26-.27-.39-.42-.09-.1-.24-.3-.23-.31.31-.3.07-.56-.09-.78-.86-1.18-1.7-2.38-2.62-3.52-1.14-1.41-2.45-2.59-4.4-2.73-1.2-.09-2.39 0-3.56.4zm-8.31 55.14c-.22.53-.19.91.13 1.03.93.34 1.89.63 2.89.96-.36-2.66 0-5.13 1.22-7.49-.85-.38-1.65-.72-2.43-1.11-.33-.16-.56-.09-.83.09-.56.37-1.11.8-1.73 1.03-1.03.38-2.11.65-3.1 1.14-.4.2-.81.36-1.21.54 1.39.52 2.77.92 4.16 1.27.28.07.47.11.53.42.09.5.22.99.33 1.48.27.05.54.06.76.17.15.08.22.32.32.48-.17.05-.35.15-.52.14-.19.01-.35-.09-.52-.15zm25.42-39.1c1.09-.56 1.23-1.69 1.64-2.66.11.1.17.12.19.17.03.04.04.11.03.16-.26.99-.48 1.99-1.37 2.66-.19.14-.38.4-.41.63-.12.94-.21 1.88-.23 2.82-.01.2.28.45.49.61.06.05.34-.06.43-.17.29-.37.59-.75.79-1.18.99-2.02 1.1-4.22 1.19-6.41 0-.12-.1-.25-.15-.38-.05-.15-.13-.3-.13-.45-.03-.98.07-1.98-.1-2.93-.19-1.08-.62-2.12-1.55-2.91-.38 2.44-1.27 4.52-3.29 5.83.58.63 1.14 1.25 1.7 1.85.93-.6 1.61-1.42 1.84-2.67.58 1.02-.59 2.7-1.64 3.28.19.56.37 1.13.57 1.75zm5-4.12c-.16.56-.32 1.12-.47 1.67-.35 1.25-.76 2.48-1.03 3.75-.42 2-.51 4.02-.04 6.03.13.54.44 1.03.73 1.68.61-1.07 1.15-1.94 1.17-3.04.05-2.24-.08-4.49.33-6.72.08-.46.25-.82.6-1.12.18-.16.32-.36.48-.54-.11-.08-.14-.13-.17-.12-1.12.05-1.74-.37-1.6-1.59zm-39.47 28.2c.03.04.07.08.1.12.15-.08.3-.18.46-.24.42-.18.85-.49 1.26-.48 1.17.02 1.77-.52 2.33-1.52.81-1.44 1.89-2.74 2.82-4.11.21-.3.44-.72.39-1.04-.11-.61-.76-.73-1.25-.94-.37-.16-.68-.02-.91.3-.77 1.09-1.55 2.16-2.28 3.27-1 1.53-1.95 3.1-2.92 4.64zm-5.3 6.25c-.93-.46-1.98-1.02-3.06-1.5-.85-.38-1.53-.01-2.14.64-.66.71-.84 1.6-1.02 2.48-.12.54.25.97.82.88.59-.09 1.15-.39 1.72-.61.27-.11.51-.26.77-.39-.04.28-.08.56-.13.91 1.04.23 2.14.47 3.24.71-.07-1.01-.13-1.93-.2-3.12zm19.9-45.13c.02.06.04.11.06.17.33 0 .66-.03.98.01 2.42.3 4.36 1.52 5.98 3.26 1.17 1.26 2.31 2.55 3.02 4.15.39.86.78 1.71 1.19 2.6.29-.11.56-.21.88-.32-.04-.23-.05-.45-.12-.65-.8-2.19-1.84-4.24-3.31-6.08-1.61-2.02-3.64-3.28-6.17-3.78-.24-.05-.45-.21-.77-.37-.52.31-1.13.66-1.74 1.01zm-6.33 51.99c-.32.08-.48.12-.65.17-.93.24-1.86.49-2.8.72-.77.19-1.55.34-2.32.52-.1.02-.23.16-.23.25-.02.92-.01 1.85-.01 2.86.52-.1.9-.15 1.26-.25 1.43-.41 2.86-.84 4.3-1.25.4-.11.54-.38.54-.72-.01-.74-.06-1.47-.09-2.3zm-10.4-3.16c.18.06.3.13.44.15 1.02.21 2.07.32 3.05.64 1.05.34 1.97.09 2.92-.25.49-.17.97-.41 1.57-.67-.45-.26-.76-.4-1.04-.6-.39-.28-.81-.4-1.29-.48-.51-.08-1.03-.37-1.44-.7-.5-.41-.87-.96-1.32-1.44-.09-.1-.29-.2-.38-.17-.15.07-.3.23-.37.38-.19.4-.27.87-.52 1.22-.48.67-1.05 1.26-1.62 1.92zm-8.35-5.42c0-.06-.01-.12-.01-.18-.56-.18-1.12-.42-1.7-.52-2-.35-3.7 2.04-3.62 3.51.02.36.31.77.59 1.03.66.6 1.4.22 2.04-.08.41-.19.87-.53 1.03-.92.41-1.04.76-2.09 1.67-2.84zm45.5-2.4c0-.35 0-.57 0-.8-.01-1.46-.04-2.92 0-4.38.01-.44.16-.85.01-1.31-.22-.67-.35-1.38-.47-2.08-.09-.55-.12-1.11-.18-1.75-1.64 2.95-1.32 8.62.64 10.32zm-11.17-33.68c-.22-.33-.4-.65-.62-.93-.7-.87-1.37-1.77-2.14-2.57-1.53-1.58-3.28-2.8-5.56-3-1.17-.1-2.13.71-2.28 1.96.36-.25.68-.49 1.03-.69.33-.19.69-.62 1.01.03.02.04.13.06.2.06.75.03 1.41.3 2.11.57 1.37.52 2.56 1.27 3.64 2.22.29.25.62.47.93.7.05.04.08.11.12.17.31.56.62 1.13.91 1.68.25-.07.4-.12.65-.2zm16.39-2.14c-.59.07-1.09.18-1.6.18-.4 0-.46.19-.55.51-.09.34-.31.65-.44.98-.08.2-.16.41-.16.62.02.8.08 1.59.12 2.39.01.22-.02.43-.01.65.04.91.14 1.82.12 2.72-.02.72-.19 1.43-.29 2.15.3-.69.57-1.39.75-2.11.53-2.03 1.13-4.05 1.08-6.18 0-.12.12-.24.18-.36.13.08.27.15.38.21.12-.48.25-1.04.42-1.76zm-8.79-4.21c-1.43-1.69-6.48-2.81-7.91-2.57.84.89 1.73 1.84 2.65 2.76.13.13.42.18.61.15.75-.12 1.5-.36 2.25-.41.83-.06 1.66.05 2.4.07zm-10.73 33.48c-.44.99-.58 2.14-1.81 2.54-.06.02-.12.09-.14.14-.34.93-.31 1.9-.3 2.87 1.28-.17 2.72-1.76 3.2-2.74.05-.1.09-.26.05-.36-.33-.81-.66-1.61-1-2.45zm-5.28 1.08c-.62.87-1.15 1.8-1.85 2.57s-1.56 1.39-2.51 2.21c.13.07.28.16.45.23.69.28 1.37.56 2.06.83.57.23.62.19.65-.42.06-1.27.25-2.53.86-3.64.33-.6.36-1.17.34-1.78zm21.77-29.08c.45-.86.64-1.79.38-2.72-.37-1.35-.95-2.61-2.25-3.35-.88-.5-1.86-.36-2.4.3 2.23.19 3.94 2.28 4.27 5.77zm-11.95 20.14c1.46.58 1.62 1.37 1.5 2.35-.08.67.22.82.71.96.15-.71.54-1.39-.14-2.05-.16-.16-.15-.57-.09-.84.07-.36.26-.7.34-.89-.22-.68-.4-1.24-.6-1.83-.06.05-.34.16-.39.33-.2.79-.62 1.42-1.33 1.97zm13.15-21.84c.22-.08.41-.17.61-.23 1.06-.31 1.66-1.28 1.44-2.33-.03-.12-.05-.27-.13-.35-.64-.63-1.67-.64-2.37-.03-.19.16-.36.28-.18.58.15.25.26.36.59.29.48-.1.97-.13 1.46-.13.4.01.58.25.44.69-.08-.02-.15-.02-.21-.05-.61-.28-1.24-.17-1.7.2-.19.15-.03.76-.02 1.16-.01.04.02.07.07.2zm-16.39 31.68c.07 0 .14.01.22.01.5-.91 1.01-1.81 1.5-2.72.04-.07.01-.21-.04-.29-.25-.36-.52-.7-.8-1.08-.51.52-1 1-1.47 1.51-.07.08-.11.24-.09.34.21.75.45 1.49.68 2.23zm8.09-14.13c.31.38.17.64-.16.88-.11.08-.22.2-.26.33-.18.59.29 1.4.86 1.5.66.12 1.33-.39 1.36-1.09.01-.34-.05-.69-.15-1.02-.26-.93-.68-1.09-1.65-.6zm5.44 18.88c.09.03.18.07.27.1.44-.77.88-1.53 1.3-2.3.08-.14.11-.4.04-.51-.51-.77-1.05-1.51-1.6-2.3-.01 1.69-.01 3.35-.01 5.01zm-17.45-5.95c0 .09-.03.2.01.27.14.29.23.71.47.82.18.09.63-.15.81-.37.55-.68.85-1.48.71-2.39-.08-.52-.38-.69-.85-.46-.87.44-1.14 1.22-1.15 2.13zm21.05-34.97c-.29-.54-.78-.54-1.28-.39-.31.09-.6.27-.91.37-.16.05-.34.03-.51.05.1-.15.17-.36.31-.44.32-.2.68-.35 1.03-.52-.02-.07-.05-.13-.07-.2-.72.19-1.44.37-1.98.51.61.6 1.22 1.2 1.86 1.83.63-.44 1.48-.98 2.55-.31-.19-.84-.55-1.16-1-.9zm-21.28 39.88c.11-1.05.23-2.06.3-3.07.01-.15-.18-.35-.33-.45-.1-.06-.35-.03-.42.06-.28.32-.54.67-.77 1.04-.69 1.11-.12 2.25 1.22 2.42zm6.93-13.31c.07.52.24 1.01.17 1.46-.08.51-.38.99-.57 1.45.5.26.93.47 1.37.7.45-.64.46-1.37.44-2.1-.02-.85-.71-1.11-1.41-1.51zm15.55-22.25c1.64-.47 1.78-1.89 1.54-3.23-.2-1.15-1.01-1.92-1.83-1.89 1.23 1.61 1.52 3.29.29 5.12zm-7.37-3.21c.26.42.5.8.73 1.19.11.19.16.44.32.56.73.53 1.5 1.03 2.22 1.51-.68-2.21-1.68-3.38-3.27-3.26zm-15.37 32.58c-.5.21-1.21.13-1.35.73-.2.9-.21 1.84-.3 2.77.06.01.12.02.18.03.44-.49.88-.99 1.32-1.48.03-.04.05-.1.05-.15.03-.59.06-1.18.1-1.9zm19.53-16.94c-.46.83-.99 1.79-1.44 2.62.46.49.95 1.01 1.44 1.54 0-1.42 0-2.87 0-4.16zm-12.93 13.35c-1.09 1.59-1.1 1.88-.08 2.68.31-.47.63-.94.94-1.4.54-.8.45-1-.51-1.2-.12-.02-.24-.05-.35-.08zm7.16-2.98c.58.04.74-.15.8-.77.06-.53-.25-.89-.62-1.14-.34-.22-.49.17-.67.38-.06.06-.16.09-.24.13-.44.24-.54.63-.32 1.17.17.41.43.51.81.27.09-.05.22-.04.24-.04zm-47.89 19.39c.13-.65.16-1.32.4-1.9.25-.6.7-1.12 1.06-1.68-.73-.08-1.73.76-1.95 1.42-.23.71.03 1.83.49 2.16zm13.89-.6c-.02-.06-.04-.11-.06-.17-.25-.11-.54-.17-.73-.34s-.29-.45-.39-.63c-.9.58-1.1 1.62-.59 2.59.08-1.2 1.13-1.06 1.77-1.45zm2.17-.31c-1.62.08-2.51 1.17-2.07 2.49.69-.83 1.34-1.61 2.07-2.49zm17.66-13.68c-.23.49-.46.99-.69 1.48.5-.02.89-.16 1.28-.26.65-.17.82-.44.64-1.14-.38-.03-.78-.05-1.23-.08zm11.06-4.01c.27-.07.5-.1.7-.18.13-.06.32-.17.34-.28.03-.22-.03-.46-.08-.7-.1-.57-.61-.49-.96-.48-.16 0-.4.39-.46.64-.1.44.1.81.46 1zm-3.44-17.15c.13-.24.4-.5.35-.65-.32-.89-.71-1.76-1.07-2.64-.07.01-.14.01-.21.02-.05.2-.2.44-.15.59.31.87.68 1.71 1.08 2.68zm-28.03 37.68c.07-.04.14-.08.2-.12 0-.39.02-.78-.01-1.17-.01-.16-.1-.32-.16-.49-.17.08-.41.11-.5.25-.24.33-.42.7-.63 1.06.37.16.74.32 1.1.47zm31.2-24.78c-.39.68-.34 1.35.09 1.56.28.14.63.22.78-.18.09-.23.18-.59.07-.73-.23-.27-.6-.43-.94-.65zm-26.82 29.89c.07 1.03.13 1.98.2 2.97.18-.05.33-.1.35-.11 0-1.02 0-1.98 0-3-.27.07-.4.1-.55.14zm27.7-24.93c-.42.01-.84.4-.72.76.07.22.36.5.56.51.43.03.64-.32.63-.72-.01-.28-.04-.62-.47-.55zm-11.47 2.73c.51.14.85.23 1.19.32.3-.48.2-.91-.2-1.43-.33.37-.62.7-.99 1.11zm14.42-3.1c-.11-.08-.25-.28-.42-.3-.3-.03-.71-.07-.72.42-.01.36.17.56.56.6.45.03.49-.28.58-.72zm-2.22-1.99c.17-.41.31-.74.47-1.12-.16-.09-.33-.2-.52-.31-.15.36-.27.66-.38.92.15.18.28.33.43.51z" stroke="#000" stroke-miterlimit="10" stroke-width=".3796"/><path d="m60.74 68.17c0-.07 0-.24 0-.42.17.03.35.02.51.08 1.97.83 3.98.82 6.02.27 2.76-.75 4.77-2.51 6.4-4.82.78.21 1.57.37 2.03-.59-.54.26-1.08.36-1.65.08.36-.66.7-1.3 1.05-1.94.04-.08.14-.17.12-.24-.04-.2-.13-.38-.2-.58-.13.11-.29.19-.37.33-.59.96-1.1 1.99-1.76 2.9-1.3 1.79-2.95 3.16-5.06 3.94-2.02.75-4.02.84-6.06.18-.27-.09-.49-.32-.74-.48-.09-.06-.21-.16-.28-.13-.59.23-1.01-.19-1.48-.38s-.92-.44-1.4-.63c-.55-.22-1.08-.14-1.51.29-.65.64-1.46.96-2.32 1.16-.87.2-1.58-.13-2.16-.76-.25-.27-.5-.29-.86-.29-.47 0-1.01-.11-1.37-.37-.5-.36-.88-.91-1.3-1.39-.25-.29-.15-.53.17-.71.11-.06.27-.09.33-.18.11-.17.17-.38.24-.58-.17.03-.36.02-.52.09-.76.35-1.51.71-2.27 1.07-.27.13-.53.32-.82.4-.64.17-1.32.16-1.8-.35-.49-.52-.49-1.21-.23-1.85.16-.4.38-.8.66-1.13 1.09-1.31 2.47-2.27 3.97-3.04.93-.47 1.94-.43 2.95-.38.26.01.59.18.66-.22.01-.08-.36-.22-.56-.33-.03-.02-.06-.03-.18-.1.38-.57.75-1.15 1.13-1.71.05-.07.2-.12.29-.11 1.52.21 3.04.47 3.97 1.87.33.49.37 1.16.66 1.68.25.46.57.98 1 1.22 1.14.64 2.35 1.18 3.66 1.41 1.23.22 2.39-.1 3.56-.45 2.2-.66 3.78-2.18 5.21-3.86.76-.9 1.39-1.91 2.06-2.89.12-.17.1-.44.15-.66-.07-.04-.14-.07-.2-.11-.17.18-.38.34-.5.55-1.27 2.21-2.93 4.06-5.04 5.48-1.28.86-2.75 1.19-4.25 1.35-.83.09-.98-.09-.88-.9.12-.97.31-1.94.6-2.9.11.38.21.77.34 1.14.3.88.88 1.46 1.82 1.63.13.02.25.13.38.18.11.04.26.1.34.06.43-.23.82-.52 1.25-.73 1.49-.73 2.26-2.09 3.08-3.41 1.15-1.84 2.28-3.7 3.41-5.55.16-.26.31-.54.44-.82.15-.32.34-.3.62-.16 1.63.8 2.46 2.23 3.03 3.86.86 2.42 1.19 4.95 1.25 7.49.09 3.56.07 7.13.04 10.7-.01.9-.18 1.81-.34 2.71-.17.96-.96 1.45-1.7 1.91-1.67 1.06-3.54 1.46-5.49 1.7-1.51.19-2.84-.37-4.23-.67-1.77-.38-3.51-.89-5.26-1.34-.21-.06-.41-.16-.63-.19-.95-.14-1.23-.76-1.25-1.63-.03-1.8.01-3.59.82-5.26.09-.18.27-.3.45-.49zm-9.42-5.56c-.43-.11-.67-.2-.91-.22-.1-.01-.22.15-.33.23.23.12.45.29.69.33.13.03.3-.17.55-.34z" fill="#dfcbc0"/><path d="m78.32 60.72c-.07-2.54-.4-5.07-1.25-7.49-.06-.18-.13-.36-.2-.53-1.31 1.32-1.84 3.96-2.52 5.66-2.36 5.89-10.06 7.18-15.65 6.68-2.27-.2-6.21-.77-6.63-3.53-.12-.78-.24-1.16-1.14-1.36-.45-.1-.91 0-1.35.11-.94.24-1.81.7-2.65 1.17-1.22.69-2.37 1.49-3.5 2.31.06.13.14.25.25.36.48.51 1.16.51 1.8.35.29-.07.54-.26.82-.4.75-.36 1.51-.73 2.27-1.07.15-.07.34-.06.52-.09-.08.2-.13.41-.24.58-.06.09-.22.12-.33.18-.32.17-.42.41-.17.71.42.48.79 1.02 1.3 1.39.37.26.91.37 1.37.37.36 0 .61.02.86.29.58.63 1.29.96 2.16.76.86-.2 1.67-.52 2.32-1.16.43-.43.95-.52 1.51-.29.47.19.92.44 1.4.63.47.19.89.62 1.48.38.07-.03.19.07.28.13.25.16.47.4.74.48 2.04.65 4.04.57 6.06-.18.04-.02.09-.04.13-.05.08-.12.21-.15.33-.13 1.9-.81 3.4-2.09 4.6-3.75.66-.91 1.17-1.93 1.76-2.9.08-.14.25-.22.37-.33.07.19.16.38.2.58.01.07-.08.16-.12.24-.34.64-.69 1.28-1.05 1.94.57.29 1.11.18 1.65-.08-.46.97-1.25.8-2.03.59-1.42 2.01-3.13 3.6-5.37 4.47-1.8 2.71-2.45 6.04-2.03 9.24.11.03.23.05.34.08 1.39.3 2.72.86 4.23.67 1.95-.24 3.82-.64 5.49-1.7.74-.47 1.52-.96 1.7-1.91.16-.89.34-1.8.34-2.71.02-3.56.05-7.12-.05-10.69zm-27.55 2.24c-.24-.04-.46-.21-.69-.33.11-.08.22-.24.33-.23.24.02.48.11.91.22-.25.16-.42.36-.55.34z" fill="#d7beb0"/><path d="m52.13 42.11c1.84.74 3.73.65 5.62.38.7-.1.89-.29.99-1.01-.3.13-.57.28-.85.34-1.3.32-2.61.3-3.91.07-.6-.11-1.21-.29-1.77-.54-.77-.34-1.02-1.18-.63-2.19 1.02-2.62 2.63-4.75 5.18-6.06.42-.22.93-.26 1.41-.39-.09-.29-.09-.29-1.35-.26-.07-.19-.12-.41-.24-.59-.08-.13-.26-.32-.38-.3-.15.02-.33.18-.41.33-.1.19-.18.45-.12.63.14.43-.07.61-.38.83-1.41 1.02-2.53 2.31-3.4 3.82-.05.08-.08.16-.13.24-.02.03-.06.04-.23.02.42-1.48.81-2.96 1.25-4.43.49-1.64 1.25-3.16 2.18-4.59 1.66-2.54 3.55-4.87 6.19-6.48.5-.3.98-.31 1.55-.06-.16.2-.32.35-.41.54-.05.11.01.28.02.42.14-.03.32-.01.4-.1.82-.87.81-.88 1.94-.23-.17.2-.36.37-.49.58-.06.11 0 .3.01.45.14-.04.29-.06.42-.12.06-.02.08-.12.13-.18.39-.5.6-.54 1.14-.22.17.1.34.22.5.34.1.07.19.17.32.29-.15.18-.31.32-.41.5-.05.1 0 .26.01.39.11-.01.26.03.34-.03.66-.45.65-.45 1.24.1.15.14.3.26.6.63-.23.14-.48.25-.67.43-.09.08-.07.27-.09.41.14-.01.31.02.42-.04.22-.13.4-.3.59-.46.71.64 1.02 1.33.8 1.87.54-.05.72.32.87.72.2.53.37 1.07.57 1.6.14.36.05.6-.27.84-1.83 1.34-2.8 3.2-2.79 5.43 0 2.58 1.17 4.65 3.37 6.03.69.43 1.55.59 2.38.88-.41.41-.97.79-1.25 1.32-.33.6-.81.97-1.3 1.37-.08.07-.1.32-.04.44.43.84.33 1.62-.12 2.44-.72 1.33-1.56 2.56-2.61 3.64-.19.2-.47.31-.8.53-.14-.88-.71-1.09-1.46-1.11.02-.2-.01-.38.06-.5.57-1.03-.18-1.76-.62-2.51-.19-.33-.67-.46-1.15-.38-2.76.44-5.49.36-8.02-.96-2.05-1.07-3.52-2.7-4.22-4.96-.02-.04.01-.1.02-.15zm7.09 3.03c.47-.1.83-.16 1.18-.27.34-.11.69-.25.99-.46.13-.09.13-.37.19-.56-.16.03-.32.03-.47.08-.61.18-1.21.37-1.81.58-.17.06-.31.18-.46.27.13.13.28.26.38.36zm3.09-.81c-.06.04-.11.08-.17.12.07.12.14.24.2.35.12-.1.28-.17.34-.29.06-.13.1-.38.02-.47-.33-.38-.69-.74-1.06-1.07-.05-.05-.24.05-.37.08.04.13.04.29.12.37.12.13.32.19.44.31.18.19.32.4.48.6zm.06-16.75c.02.1.01.25.07.29.35.24.71.47 1.08.68.04.03.2-.04.22-.09.03-.09.03-.22-.01-.3-.19-.39-.87-.68-1.36-.58zm-6.39 1.53c.46-.17.81-.29 1.15-.43.11-.05.19-.16.29-.24-.11-.08-.24-.25-.31-.23-.39.12-.77.28-1.14.45-.06.03-.08.19-.07.28s.08.16.08.17zm12.01 17.77c-.19.17-.34.3-.49.43.09.09.23.27.27.25.21-.11.39-.26.58-.4-.1-.07-.19-.14-.36-.28z" fill="#dfcbc0"/><path d="m71.11 41.92c-2.2-1.38-3.37-3.45-3.37-6.03 0-.83.13-1.61.4-2.33-2.85 4.21 2.35 11.62-4.05 14.01-1.01.38-2.13.6-3.31.68 1.12.05 2.26-.04 3.41-.22.48-.08.96.06 1.15.38.44.75 1.18 1.48.62 2.51-.07.13-.04.31-.06.5.74.01 1.32.22 1.46 1.11.33-.21.61-.33.8-.53 1.05-1.08 1.89-2.31 2.61-3.64.44-.82.55-1.6.12-2.44-.06-.11-.04-.37.04-.44.49-.4.97-.77 1.3-1.37.29-.53.85-.91 1.25-1.32-.82-.29-1.68-.44-2.37-.87zm-3.48 5.51c-.04.02-.18-.16-.27-.25.15-.13.3-.26.49-.43.17.14.26.21.35.29-.19.13-.37.28-.57.39z" fill="#d9baab"/><path d="m8.67 73.37c.51-.1 1.04-.15 1.53-.3 1.54-.45 3.06-.96 4.61-1.38 2.61-.71 5.24-1.33 7.85-2.06 1.9-.53 3.77-1.18 5.65-1.77.94-.29 1.89-.56 2.84-.84.09-.03.19-.08.27-.05 1.22.44 2.28.02 3.29-.62.81 1.11 1.57 1.29 2.86.73.2-.09.48-.09.71-.04 1.23.26 2.47.52 3.68.84 3.24.85 6.57 1.25 9.79 2.2.63.19 1.24.42 1.85.63.01.06.02.13.02.19-.64.13-1.28.27-1.93.39-.46.08-.94.09-1.39.22-2.41.73-4.81 1.5-7.22 2.25-.26.08-.53.13-.8.17-1.17.16-2.17.67-3.09 1.39-.61.47-1.25.67-2.09.54-.6-.09-1.27.25-1.91.36-1.64.29-3.28.52-4.91.84-1.09.22-2.16.54-3.24.83-.46.12-.86.14-1.35-.06-.61-.25-1.33-.18-1.99-.32-1.9-.39-3.8-.81-5.69-1.24-1.32-.3-2.63-.62-3.93-1-1.82-.54-3.62-1.14-5.42-1.72.01-.07.01-.12.01-.18zm29.98-.2c.38-.07.69-.09.98-.19.97-.33 1.93-.67 2.88-1.06.64-.26 1.26-.59 1.84-.96.53-.34.52-.93-.02-1.24-.37-.21-.69-.8-1.27-.39-.02.01-.09-.05-.14-.08-1.43-.84-3.05-1.12-4.64-1.41-.56-.1-1.2-.02-1.76.15-.57.16-1.11.47-1.6.81-.46.33-.89.36-1.36.15-.55-.25-.9.02-1.24.64-.24.44.08.69.38.96 1.11 1.01 2.51 1.47 3.86 2.01.68.28 1.42.42 2.09.61zm-10.22 1.97c.09-.08.15-.15.22-.2.68-.53.63-1.16-.14-1.57-.27-.15-.58-.24-.84-.4-.43-.27-.78-.21-1.11.16-.6.68-1.37.77-2.2.57-.34-.08-.41-.24-.19-.54.47-.66.24-1.04-.54-1.28-1.41-.44-2.58.19-3.75.73-.82.38-.94 1.57-.24 2.01.53.33 1.14.57 1.74.77.81.26 1.66.4 2.47.68.88.3 1.73.43 2.62.07.04-.02.1.01.15.02.06.52.22.95.82 1.01.6.05 1.26.06 1.57-.51.32-.62-.07-1.13-.58-1.52zm-3.79-4.1c-.06.01-.28.06-.5.11.18.17.34.4.55.49.56.22 1.15.35 1.71.55 1.06.38 2.12.79 3.18 1.17.22.08.52.2.67.11.55-.31.99.05 1.51.11-.08.16-.11.29-.19.39-.25.34-.27.77.02 1 .23.19.66.22.99.19.29-.02.59-.19.85-.35.14-.09.27-.3.28-.47.07-.63-.4-.88-.87-1.1.45-.73.29-1.4-.43-1.65-.32-.11-.4-.29-.46-.57-.14-.61-.73-1.09-1.33-.94-.63.16-1.08-.16-1.58-.37-.37-.15-.73-.33-1.11-.46-.48-.16-.89.02-1.27.31-.24.19-.5.34-.75.52-.39.29-.76.57-1.27.96zm5.4 4.95c.83-.01 1.15-.42.98-1.27-.02-.1-.05-.22-.01-.31.13-.37.08-.5-.29-.45-.38.05-.76.21-1.13.36-.48.2-.53.62-.41 1.06.11.42.37.66.86.61z" fill="#dae1e6"/><path d="m73 29.71c1.09-.4 2.24-.68 3.39-.31.96.32 1.9.77 2.77 1.29.8.48 1.13 1.37 1.37 2.24.63 2.3.42 4.53-.78 6.62-.39.68-.92 1.23-1.88 1.13-.59-.07-1.14.18-1.4.83-.07.17-.29.35-.47.39-.55.12-1.11.17-1.66.26-.97.16-1.86-.1-2.67-.58-2.19-1.28-3.2-3.27-3.3-5.75-.07-1.85 1.65-4.51 3.36-5.24.31-.13.68-.12 1.02-.19.22-.05.42-.13.63-.19-.12-.15-.24-.31-.38-.5zm2.43 9.88c1.45.09 2.52-.48 3.18-1.74.47-.9.59-1.85.32-2.86-.24-.87-.44-1.83-1.19-2.33-.64-.43-1.47-.69-2.24-.75-.65-.05-1.37.21-1.99.47-.37.16-.65.57-.92.91-.97 1.2-1.25 2.57-.74 4.01.46 1.34 1.58 2.44 3.58 2.29z" fill="#b9ca41"/><path d="m90.18 43.31c-.2-6.44-.4-12.88-2.14-19.19.06-.05.14-.12.22-.19s.17-.13.29-.21c.67.71.99 1.6 1.22 2.49.49 1.91.96 3.83 1.27 5.77.34 2.13.52 4.28.26 6.45-.02.14-.04.3.01.43.17.47.12.81-.43.97-.25.08-.35.25-.23.56 1.34 3.3 1.14 6.61-.05 9.9-.13.37-.39.69-.63 1.1-.69-1.16-1.06-2.33-1.3-3.54-.38-1.9-.88-3.8-1.08-5.72-.19-1.85-.52-3.72-.2-5.61.17-1.03.12-2.11.27-3.14.06-.41.39-.79.61-1.17.07-.12.22-.19.3-.31.44-.68.25-1.07-.55-1.2-.95-.16-1.05-.23-.99-1.14.09-1.31.26-2.61.41-3.91.03-.25.15-.48.29-.89.15.51.29.87.35 1.24.35 2.05.75 4.1 1.01 6.16.21 1.7.24 3.42.34 5.13.11 1.89.19 3.79.3 5.68.01.15.15.29.24.44.06-.05.13-.08.21-.1z" fill="#93b2d9"/><path d="m79.71 40.67c.23-.27.42-.51.71-.85.36.4.76.75 1.04 1.17 1.29 1.92 2.35 3.95 2.82 6.25.25 1.23.68 2.43.93 3.66s.38 2.49.56 3.73c.04.3.08.61.12.91.05.01.1.03.14.04.06-.13.19-.27.18-.4-.12-1.27-.17-2.55-.41-3.79-.33-1.72-.75-3.42-1.22-5.11-.69-2.46-1.73-4.76-3.53-6.65-.43-.45-.44-.43 0-1.16.59.49 1.24.92 1.76 1.47 1.46 1.53 2.66 3.27 3.34 5.29.4 1.21.65 2.47.89 3.72.05.26-.22.62-.42.87-.45.59-.46.67.17 1.02.35.19.54.45.51.88-.16 2-.29 4.01-.45 6.01-.02.21-.09.42-.18.8-.54-.35-1.07-.57-1.45-.95-.73-.74-1.49-1.44-2-2.39-.74-1.39-1.08-2.86-1.29-4.39-.25-1.82-.46-3.65-.69-5.47-.2-1.64-.61-3.24-1.53-4.66z" fill="#e4bb5e"/><path d="m26.44 81.67c-1.5.44-2.87.04-4.24-.39-2.37-.73-4.75-1.47-7.13-2.16-.57-.17-1.02-.35-1.09-1.01-.01-.09-.03-.19-.09-.25-.15-.16-.34-.43-.5-.43-.2.01-.52.22-.56.4-.16.63-.51.54-.98.39-1.06-.34-2.13-.64-3.2-.97-.93-.28-1.08-.52-1.02-1.5.03-.42.05-.84.08-1.26.04-.51.29-.59.74-.43 1.11.38 2.21.75 3.34 1.08 1.91.55 3.83 1.09 5.76 1.56 2.39.58 4.81 1.09 7.22 1.59.44.09.65.2.58.68-.03.18.13.39.2.58.06-.02.12-.03.19-.05.06-.28.12-.56.19-.88.21-.03.43-.07.69-.11-.06 1.09-.12 2.14-.18 3.16z" fill="#adb7be"/><path d="m47.64 73.08c0 .96.03 1.83-.02 2.7-.01.16-.3.39-.5.44-1.72.43-3.45.82-5.17 1.25-.49.12-.97.31-1.41.55-.69.38-1.37.66-2.18.5-.15-.03-.32.04-.47.1-2.24.91-4.53 1.64-6.9 2.12-1.12.23-2.24.49-3.36.73-.17.04-.35.07-.67.13.05-1.02.09-1.97.17-2.91.01-.14.21-.26.32-.38.04.03.08.07.12.1v1.91c.07.02.13.03.2.05.08-.21.19-.41.22-.62.07-.45.07-.91.16-1.35.03-.16.21-.28.32-.43.05.02.1.04.15.05v1.32c.07.03.13.05.2.08.1-.15.25-.3.28-.46.17-1.08.15-1.12 1.25-1.32 1.71-.31 3.42-.56 5.13-.83.78-.13 1.53-.34 2.37-.3.56.03 1.15-.48 1.72-.76.09-.04.18-.1.34-.2.03.56.05 1.05.07 1.54.07.02.14.03.21.05.04-.16.12-.31.12-.47.01-.42-.02-.83.01-1.25.01-.13.13-.26.2-.39.07.01.14.01.21.02.04.39.09.79.11 1.18.01.27-.08.55-.06.82.01.12.16.24.25.35.06-.12.16-.24.16-.36.02-.73.01-1.45.01-2.22 2.06-.55 4.14-1.12 6.44-1.74z" fill="#c5d0d7"/><path d="m64.27 17.81c1.17-.4 2.35-.5 3.57-.41 1.96.14 3.26 1.33 4.4 2.73.92 1.13 1.76 2.33 2.62 3.52.16.22.4.47.09.78-.01.01.14.21.23.31.13.15.4.3.39.42-.04.43.26.68.38 1.01.29.76.4 1.58.58 2.38.01.05-.02.1-.03.14-.72 0-1.43.01-2.13-.01-.11 0-.27-.17-.3-.29-.84-2.83-2.25-5.34-4.27-7.5-1.27-1.36-2.88-2.15-4.6-2.77-.31-.1-.62-.2-.93-.31z" fill="#9ebc47"/><path d="m81.38 33.85c-.2-.62-.38-1.19-.56-1.75 1.04-.58 2.21-2.26 1.64-3.28-.22 1.25-.9 2.07-1.84 2.67-.55-.6-1.12-1.22-1.7-1.85 2.02-1.31 2.91-3.39 3.29-5.83.93.78 1.36 1.82 1.55 2.91.17.95.07 1.95.1 2.93 0 .15.08.3.13.45.04.13.15.25.15.38-.09 2.19-.2 4.39-1.19 6.41-.21.42-.5.8-.79 1.18-.09.11-.37.22-.43.17-.2-.16-.49-.4-.49-.61.02-.94.11-1.89.23-2.82.03-.23.22-.49.41-.63.89-.67 1.11-1.67 1.37-2.66.01-.05-.01-.11-.03-.16-.03-.04-.08-.07-.19-.17-.42.97-.56 2.1-1.65 2.66z" fill="#292929"/><path d="m86.38 29.73c-.14 1.22.49 1.64 1.6 1.58.03 0 .06.04.17.12-.16.19-.3.39-.48.54-.35.3-.51.66-.6 1.12-.41 2.23-.28 4.48-.33 6.72-.03 1.1-.56 1.97-1.17 3.04-.29-.65-.61-1.14-.73-1.68-.47-2-.38-4.03.04-6.03.27-1.27.68-2.5 1.03-3.75.15-.54.31-1.1.47-1.66z" fill="#56649a"/><path d="m46.91 57.93c.97-1.55 1.92-3.11 2.92-4.64.73-1.11 1.51-2.19 2.28-3.27.22-.32.53-.46.91-.3.5.21 1.14.33 1.25.94.06.31-.18.73-.39 1.04-.93 1.38-2.01 2.67-2.82 4.11-.56 1-1.16 1.54-2.33 1.52-.42-.01-.85.3-1.26.48-.16.07-.31.16-.46.24-.03-.03-.07-.08-.1-.12z" fill="#adb7be"/><path d="m41.61 64.18c.07 1.19.13 2.11.19 3.12-1.1-.24-2.2-.49-3.24-.71.05-.35.09-.63.13-.91-.26.13-.5.29-.77.39-.57.23-1.13.52-1.72.61-.57.09-.93-.34-.82-.88.19-.88.36-1.78 1.02-2.48.6-.65 1.29-1.01 2.14-.64 1.09.48 2.14 1.04 3.07 1.5z" fill="#dfcbc0"/><path d="m61.51 19.05c.61-.35 1.21-.7 1.74-1.01.32.16.54.32.77.37 2.52.5 4.56 1.76 6.17 3.78 1.47 1.84 2.51 3.89 3.31 6.08.07.2.08.42.12.65-.32.12-.59.22-.88.32-.41-.89-.8-1.74-1.19-2.6-.72-1.6-1.85-2.89-3.02-4.15-1.62-1.74-3.56-2.97-5.98-3.26-.32-.04-.65-.01-.98-.01-.02-.06-.04-.11-.06-.17z" fill="#83a0cb"/><path d="m80.06 22.11c.06.11.15.21.18.33.09.35.23.57.66.57.23 0 .46.2.65.28.32 1.36-.27 2.46-.82 3.6-.57 1.18-1.51 1.9-2.81 2.4-.74-.21-.73-.21-.82-1.14-.02-.18-.1-.36-.09-.54.02-.18.07-.43.2-.52.87-.67 1.8-1.27 2.65-1.97.41-.34.67-.84.98-1.29.06-.08.01-.23-.06-.4-.99 1.49-2.41 2.43-3.96 3.34-.13-.37-.27-.66-.34-.98-.02-.1.13-.28.25-.36.48-.34.98-.64 1.46-.97.88-.59 1.46-1.41 1.88-2.36z" fill="#292929"/><path d="m55.18 71.04c.03.83.08 1.56.08 2.3 0 .34-.15.61-.54.72-1.44.4-2.86.84-4.3 1.25-.36.1-.74.15-1.26.25 0-1.02-.01-1.94.01-2.86 0-.09.14-.23.23-.25.77-.19 1.55-.34 2.32-.52.94-.23 1.87-.48 2.8-.72.17-.05.34-.09.66-.17z" fill="#c5d0d7"/><path d="m44.78 67.88c.57-.66 1.14-1.25 1.61-1.9.25-.35.33-.82.52-1.22.07-.16.22-.31.37-.38.09-.04.29.07.38.17.45.48.82 1.03 1.32 1.44.41.33.93.62 1.44.7.48.08.9.2 1.29.48.28.2.59.34 1.04.6-.61.26-1.08.49-1.57.67-.95.33-1.87.59-2.92.25-.98-.32-2.03-.43-3.05-.64-.12-.04-.25-.11-.43-.17z" fill="#dfcbc0"/><path d="m36.43 62.46c-.91.75-1.26 1.79-1.68 2.83-.16.39-.62.73-1.03.92-.64.29-1.37.68-2.04.08-.28-.26-.57-.67-.59-1.03-.08-1.47 1.62-3.86 3.62-3.51.58.1 1.13.34 1.7.52.01.07.01.13.02.19z" fill="#dfcbc0"/><path d="m80.08 22.1c-.16.02-.42-.01-.47.08-.61 1.16-1.65 1.83-2.73 2.46-.22.13-.43.26-.71.42-.1-.24-.18-.45-.24-.6.38-.74 1.44-.64 1.65-1.47-.03-.05-.07-.1-.1-.15-.59.3-1.17.6-1.81.93-.6-.9-1.2-1.81-1.9-2.87.94-.16 1.79-.26 2.62-.45.93-.21 1.7.04 2.42.67.13-.14.24-.26.45-.5.28.53.54 1.01.8 1.49 0 0 .02-.01.02-.01z" fill="#292929"/><path d="m81.93 60.06c-1.95-1.7-2.28-7.37-.64-10.32.06.64.08 1.2.18 1.75.12.7.25 1.4.47 2.08.15.47 0 .88-.01 1.31-.03 1.46 0 2.92 0 4.38z" fill="#7bac4d"/><path d="m70.76 26.38c-.25.08-.4.13-.65.21-.3-.55-.61-1.11-.91-1.68-.03-.06-.07-.13-.12-.17-.31-.24-.63-.45-.93-.7-1.09-.95-2.28-1.7-3.64-2.22-.7-.27-1.36-.54-2.11-.57-.07 0-.18-.02-.2-.06-.32-.65-.68-.22-1.01-.03-.35.2-.66.44-1.03.69.16-1.25 1.11-2.06 2.28-1.96 2.28.2 4.03 1.42 5.56 3 .77.8 1.44 1.7 2.14 2.57.23.27.4.59.62.92z" fill="#292929"/><path d="m78.36 20.03c-.74-.03-1.57-.13-2.39-.07-.76.05-1.5.29-2.25.41-.2.03-.48-.02-.61-.15-.92-.92-1.8-1.87-2.65-2.76 1.42-.23 6.47.88 7.9 2.57z" fill="#292929"/><path d="m67.63 53.51c.34.84.68 1.64.99 2.46.04.1 0 .25-.05.36-.48.98-1.92 2.57-3.2 2.74-.01-.98-.04-1.94.3-2.87.02-.06.09-.13.14-.14 1.23-.41 1.37-1.57 1.82-2.55z" fill="#fbef74"/><path d="m62.35 54.59c.02.61-.01 1.18-.34 1.79-.61 1.11-.79 2.37-.86 3.64-.03.61-.08.64-.65.42-.69-.27-1.38-.55-2.06-.83-.17-.07-.33-.17-.45-.23.95-.82 1.82-1.44 2.51-2.21.7-.78 1.23-1.71 1.85-2.58z" fill="#dfcbc0"/><path d="m84.12 25.51c-.33-3.49-2.04-5.58-4.27-5.78.54-.66 1.52-.8 2.4-.3 1.31.74 1.88 2 2.25 3.35.26.94.08 1.87-.38 2.73z" fill="#e4bb5e"/><path d="m85.32 23.81c-.05-.13-.08-.16-.08-.2-.01-.4-.17-1 .02-1.16.46-.37 1.09-.48 1.7-.2.06.03.13.03.21.05.15-.44-.04-.68-.44-.69-.49-.01-.99.03-1.46.13-.33.07-.44-.04-.59-.29-.18-.3 0-.42.18-.58.7-.61 1.73-.61 2.37.03.08.08.1.23.13.35.22 1.06-.38 2.02-1.44 2.33-.19.06-.38.15-.6.23z" fill="#292929"/><path d="m68.93 55.49c-.23-.74-.47-1.48-.69-2.23-.03-.1.01-.27.09-.34.47-.5.96-.99 1.47-1.51.28.38.55.73.8 1.08.05.07.08.22.04.29-.49.91-1 1.81-1.5 2.72-.07 0-.14-.01-.21-.01z" fill="#e4bb5e"/><path d="m77.02 41.36c.97-.49 1.39-.33 1.66.6.09.33.16.68.15 1.02-.03.7-.71 1.21-1.36 1.09-.57-.11-1.04-.91-.86-1.5.04-.13.15-.25.26-.33.32-.24.46-.5.15-.88z" fill="#93b2d9"/><path d="m82.46 60.24c0-1.66 0-3.32 0-5.01.55.78 1.1 1.53 1.6 2.3.08.12.04.37-.04.51-.42.78-.86 1.54-1.3 2.3-.08-.04-.17-.07-.26-.1z" fill="#7bac4d"/><path d="m65.01 54.29c.01-.9.27-1.69 1.14-2.12.48-.24.78-.06.85.46.14.9-.16 1.7-.71 2.39-.17.22-.63.45-.81.37-.23-.11-.33-.53-.47-.82-.03-.09 0-.19 0-.28z" fill="#9ebc47"/><path d="m86.06 19.32c.45-.25.8.06 1 .9-1.08-.67-1.92-.13-2.55.31-.64-.63-1.25-1.23-1.86-1.83.54-.14 1.26-.32 1.98-.51.02.07.05.13.07.2-.34.17-.7.32-1.03.52-.14.09-.21.29-.31.44.17-.01.35.01.51-.05.31-.11.59-.28.91-.37.5-.15.99-.16 1.28.39z" fill="#292929"/><path d="m64.78 59.2c-1.34-.18-1.91-1.31-1.22-2.42.23-.36.48-.71.77-1.04.07-.09.33-.12.42-.06.15.1.34.3.33.45-.07 1.02-.19 2.02-.3 3.07z" fill="#e4bb5e"/><path d="m71.71 45.89c.7.39 1.39.66 1.42 1.51.02.73.01 1.46-.44 2.1-.44-.23-.87-.44-1.37-.7.19-.46.49-.94.57-1.45.06-.45-.11-.94-.18-1.46z" fill="#e4bb5e"/><path d="m87.26 23.64c1.24-1.83.94-3.5-.29-5.12.82-.04 1.62.74 1.83 1.89.24 1.33.1 2.76-1.54 3.23z" fill="#e4bb5e"/><path d="m79.89 20.43c1.6-.12 2.59 1.05 3.26 3.26-.72-.49-1.48-.98-2.22-1.51-.16-.11-.21-.37-.32-.56-.23-.39-.47-.77-.72-1.19z" fill="#e4bb5e"/><path d="m64.52 53.01c-.04.71-.07 1.31-.1 1.9 0 .05-.02.11-.05.15-.44.5-.88.99-1.32 1.48-.06-.01-.12-.02-.18-.03.09-.93.1-1.87.3-2.77.14-.6.85-.51 1.35-.73z" fill="#fbef74"/><path d="m71.12 49.42c.11.03.23.06.35.08.96.2 1.05.4.51 1.2-.31.47-.63.94-.94 1.4-1.01-.8-1.01-1.09.08-2.68z" fill="#fbef74"/><path d="m78.28 46.44c-.02 0-.15-.02-.23.03-.39.25-.65.14-.81-.27-.22-.54-.12-.93.32-1.17.08-.04.18-.07.24-.13.18-.21.34-.6.67-.38.38.25.68.61.62 1.14-.07.63-.23.82-.81.78z" fill="#93b2d9"/><path d="m30.39 65.83c-.47-.32-.73-1.45-.49-2.17.22-.66 1.22-1.49 1.95-1.42-.36.56-.81 1.08-1.06 1.68-.24.59-.27 1.26-.4 1.91z" fill="#dfcbc0"/><path d="m44.28 65.23c-.64.39-1.7.26-1.77 1.44-.51-.97-.31-2.01.59-2.59.11.18.2.46.39.63s.48.23.73.34c.02.07.04.12.06.18z" fill="#adb7be"/><path d="m46.45 64.92c-.73.88-1.38 1.66-2.07 2.49-.43-1.32.45-2.41 2.07-2.49z" fill="#adb7be"/><path d="m64.11 51.24c.45.03.85.05 1.24.08.17.7.01.97-.64 1.14-.39.1-.78.24-1.28.26.22-.49.45-.99.68-1.48z" fill="#e4bb5e"/><path d="m75.17 47.23c-.36-.19-.56-.56-.45-1 .06-.25.3-.64.46-.64.35 0 .86-.08.96.48.04.23.1.47.08.7-.01.11-.2.23-.34.28-.21.08-.44.11-.71.18z" fill="#e4bb5e"/><path d="m71.73 30.08c-.4-.97-.76-1.81-1.08-2.67-.06-.16.09-.39.15-.59.07-.01.14-.01.21-.02.37.88.76 1.75 1.07 2.64.05.14-.22.4-.35.64z" fill="#292929"/><path d="m43.7 67.76c-.36-.16-.73-.32-1.09-.48.21-.36.39-.73.63-1.06.1-.13.33-.17.5-.25.06.16.15.32.16.49.02.39.01.78.01 1.17-.07.05-.14.09-.21.13z" fill="#dae1e6"/><path d="m74.9 42.98c.34.22.71.38.94.65.11.13.02.5-.07.73-.15.41-.5.32-.78.18-.43-.21-.48-.88-.09-1.56z" fill="#e4bb5e"/><path d="m48.08 72.87c.15-.04.29-.07.55-.13v3c-.02.01-.17.05-.35.11-.07-1-.13-1.96-.2-2.98z" fill="#c5d0d7"/><path d="m75.78 47.94c.43-.07.46.28.47.55.01.4-.2.75-.63.72-.21-.02-.5-.3-.56-.51-.12-.37.3-.76.72-.76z" fill="#e4bb5e"/><path d="m64.31 50.67c.36-.41.66-.74.99-1.11.4.52.5.95.2 1.43-.33-.09-.67-.18-1.19-.32z" fill="#fbef74"/><path d="m78.73 47.57c-.09.45-.13.76-.58.72-.39-.03-.57-.24-.56-.6.01-.49.42-.45.72-.42.17.01.32.22.42.3z" fill="#93b2d9"/><path d="m76.51 45.58c-.15-.18-.28-.33-.42-.51.11-.26.23-.56.38-.92.19.11.36.22.52.31-.17.38-.3.71-.48 1.12z" fill="#fff"/><path d="m51.32 62.61c-.25.17-.42.36-.55.34-.24-.04-.46-.21-.69-.33.11-.08.22-.24.33-.23.24.02.48.11.91.22z"/><path d="m59.22 45.14c-.1-.1-.25-.23-.39-.36.15-.09.3-.22.46-.27.6-.2 1.2-.39 1.81-.58.15-.05.32-.05.47-.08-.06.19-.06.47-.19.56-.29.2-.64.34-.99.46-.34.11-.7.16-1.17.27z"/><path d="m62.31 44.33c-.16-.2-.3-.41-.48-.59-.13-.13-.32-.18-.44-.31-.08-.09-.08-.25-.12-.37.13-.03.32-.13.37-.08.37.34.74.69 1.06 1.07.08.09.04.33-.02.47-.06.12-.22.2-.34.29-.07-.12-.14-.24-.2-.35.06-.06.11-.09.17-.13z"/><path d="m62.37 27.58c.49-.1 1.17.19 1.36.58.04.09.05.21.01.3-.02.05-.17.12-.22.09-.37-.21-.73-.44-1.08-.68-.06-.04-.05-.19-.07-.29z"/><path d="m55.98 29.11s-.07-.08-.07-.16c-.01-.1.01-.26.07-.28.37-.17.75-.33 1.14-.45.07-.02.21.15.31.23-.1.08-.18.2-.29.24-.35.13-.7.25-1.16.42z"/><path d="m67.99 46.88c.17.14.26.21.35.29-.19.14-.37.29-.58.4-.04.02-.18-.16-.27-.25.16-.14.31-.27.5-.44z"/><path d="m38.65 73.17c-.67-.19-1.41-.33-2.09-.6-1.35-.54-2.75-1.01-3.86-2.01-.3-.27-.62-.52-.38-.96.34-.62.69-.89 1.24-.64.47.21.9.18 1.36-.15.48-.34 1.03-.65 1.6-.81.56-.16 1.2-.25 1.76-.15 1.6.29 3.21.56 4.64 1.41.05.03.12.09.14.08.58-.41.89.18 1.27.39.55.3.55.9.02 1.24-.58.37-1.2.69-1.84.96-.94.39-1.91.73-2.88 1.06-.29.09-.6.11-.98.18zm4.18-3.26c-.26-.18-.37-.29-.5-.33-1.18-.37-2.36-.74-3.54-1.09-1.34-.4-2.5.16-3.66.73-.38.19-.38.42-.07.66.21.16.47.27.71.4.93.52 1.94.89 2.98 1 1.5.15 2.64-.87 4.08-1.37zm.73-.04c-.38.33-.64.66-.98.83-.75.37-1.54.66-2.32.97-.56.22-1.11.41-1.75.26-1.67-.38-3.14-1.13-4.45-2.22-.2-.16-.51-.22-.78-.25-.11-.01-.29.15-.35.28-.03.07.08.26.17.34.25.21.5.44.78.58.99.5 1.97 1.01 3 1.43.79.33 1.66.57 2.51.28 1.28-.43 2.54-.92 3.79-1.43.36-.14.66-.4 1.1-.67-.37-.2-.6-.33-.72-.4z"/><path d="m28.43 75.14c.52.39.91.9.57 1.5-.32.57-.98.56-1.57.51-.6-.05-.76-.49-.82-1.01-.06-.01-.11-.03-.15-.02-.88.37-1.74.23-2.62-.07-.81-.27-1.66-.41-2.47-.68-.6-.2-1.2-.44-1.74-.77-.7-.43-.57-1.63.24-2.01 1.17-.55 2.34-1.18 3.75-.73.78.25 1.02.62.54 1.28-.22.3-.15.47.19.54.83.2 1.6.1 2.2-.57.33-.38.68-.43 1.11-.16.26.16.57.25.84.4.77.41.82 1.04.14 1.57-.06.07-.12.13-.21.22zm-4.71-2.61c-1.23-.61-2.9-.01-3.76.68-.39.31-.32.85.13 1.1.3.17.63.28.97.38 1.11.31 2.21.63 3.34.87.5.11 1.09.18 1.55.02.85-.31 1.63-.79 2.44-1.22.08-.04.16-.22.14-.3-.1-.32-1.37-.65-1.62-.42-.85.77-1.85.8-2.88.52-.2-.05-.46-.31-.48-.49-.04-.36.09-.72.17-1.14zm3.94 4.26c.29-.1.54-.13.73-.26.13-.09.27-.35.23-.46-.06-.15-.29-.32-.46-.32-.22 0-.46.11-.65.24-.15.11-.34.35-.31.48.04.13.31.21.46.32z"/><path d="m24.64 71.04c.51-.38.89-.67 1.27-.94.25-.18.51-.33.75-.52.38-.29.8-.47 1.27-.31.38.12.74.3 1.11.46.5.21.95.53 1.58.37.6-.15 1.2.33 1.33.94.06.28.14.45.46.57.73.25.88.92.43 1.65.47.22.94.47.87 1.1-.02.17-.14.38-.28.47-.26.16-.56.33-.85.35-.33.03-.76 0-.99-.19-.29-.23-.26-.66-.02-1 .07-.1.11-.23.19-.39-.52-.06-.96-.43-1.51-.11-.16.09-.46-.03-.67-.11-1.06-.38-2.12-.79-3.18-1.17-.56-.2-1.15-.33-1.71-.55-.21-.08-.37-.32-.55-.49.22-.07.44-.12.5-.13zm.7.21c.39.12.71.19 1.02.3 1.08.38 2.16.75 3.22 1.18.43.18.83.2 1.07-.17.25-.37.03-.77-.28-1.01-.9-.72-1.93-1.17-3.09-1.24-.78-.04-1.43.22-1.94.94zm6.08 1.85c.7.02 1.22-.25 1.14-.54-.06-.2-.31-.45-.52-.49-.45-.09-.86.25-.84.64.02.16.17.31.22.39zm.93 1.88c.4-.3.69-.53.99-.76-.16-.12-.3-.32-.47-.34-.46-.06-.94.24-.9.56.01.16.19.29.38.54zm-1.94-4.35c-.03.07-.06.14-.09.21.18.17.38.32.53.5.16.2.35.34.49.06.08-.15.04-.53-.06-.58-.25-.12-.57-.13-.87-.19z"/><path d="m30.04 75.99c-.48.05-.75-.19-.86-.61-.12-.44-.08-.86.41-1.06.36-.15.74-.31 1.13-.36.37-.05.42.08.29.45-.03.09-.01.21.01.31.16.86-.16 1.26-.98 1.27zm.73-.8c0-.07-.01-.14-.01-.21-.15-.08-.3-.22-.45-.22-.27 0-.67-.06-.65.37.01.16.29.45.41.43.25-.03.47-.24.7-.37z"/><path d="m75.43 39.59c-2 .15-3.13-.95-3.6-2.29-.5-1.44-.23-2.81.74-4.01.27-.34.55-.75.92-.91.63-.27 1.34-.52 1.99-.47.77.06 1.6.32 2.24.75.76.51.96 1.46 1.19 2.33.28 1.01.15 1.96-.32 2.86-.63 1.26-1.71 1.82-3.16 1.74zm-1.86-3.86c.22 1.2.75 2.33 1.91 3.1.09.06.2.09.31.1.84.07 1.51-.31 2-.92.85-1.06.86-2.28.5-3.53-.3-1.04-.9-1.78-2.03-1.96-.04-.01-.07-.03-.1-.04-.3-.05-.6-.1-.9-.14-.39-.05-.46.32-.68.5-.89.75-.83 1.77-1.01 2.89zm-.31-2.29c-.89.55-1.33 2.47-.86 3.84.28.84 1.33 1.64 1.93 1.58-.4-.83-.99-1.65-1.17-2.55-.18-.92.05-1.91.1-2.87z"/><g fill="#adb7be"><path d="m42.83 69.91c-1.45.49-2.59 1.52-4.09 1.36-1.04-.11-2.05-.48-2.98-1-.24-.13-.49-.24-.71-.4-.31-.23-.3-.47.07-.66 1.15-.57 2.31-1.13 3.66-.73 1.18.35 2.36.72 3.54 1.09.15.05.25.16.51.34zm-2.73-.17c.01.08.02.16.03.24-.57.09-1.16.28-1.72.22-.44-.04-.85-.39-1.28-.58-.15-.06-.35-.04-.52-.05.07.16.1.38.22.48.28.22.6.41.93.57.8.4 1.96.51 2.73-.33.42-.46.36-.89-.23-1.07-.52-.16-1.06-.29-1.59-.39-.14-.03-.31.09-.46.14.11.13.19.35.33.39.5.15 1.03.25 1.56.38z"/><path d="m43.56 69.87c.12.07.35.21.71.41-.43.27-.74.53-1.1.67-1.25.5-2.51 1-3.79 1.43-.85.28-1.72.04-2.51-.28-1.02-.42-2.01-.93-3-1.43-.29-.14-.54-.37-.78-.58-.09-.08-.2-.27-.17-.34.06-.13.24-.29.35-.28.27.03.59.08.78.25 1.31 1.09 2.78 1.84 4.45 2.22.64.15 1.19-.04 1.75-.26.78-.3 1.57-.6 2.32-.97.35-.18.61-.51.99-.84z"/><path d="m23.72 72.53c-.08.41-.21.78-.18 1.13.01.18.28.44.48.49 1.03.27 2.02.24 2.88-.52.26-.23 1.53.1 1.62.42.03.08-.06.26-.14.3-.8.43-1.59.91-2.44 1.22-.46.16-1.05.09-1.55-.02-1.12-.24-2.23-.56-3.34-.87-.33-.09-.67-.21-.97-.38-.44-.25-.52-.79-.13-1.1.87-.67 2.54-1.28 3.77-.67z"/><path d="m27.66 76.79c-.15-.1-.42-.19-.45-.34-.03-.13.16-.37.31-.48.18-.13.43-.24.65-.24.16 0 .4.17.46.32.04.11-.1.37-.23.46-.2.15-.45.18-.74.28z"/><path d="m25.34 71.25c.52-.72 1.16-.98 1.94-.94 1.17.07 2.19.52 3.09 1.24.31.25.53.65.28 1.01s-.64.34-1.07.17c-1.06-.43-2.15-.8-3.22-1.18-.31-.11-.63-.18-1.02-.3z"/><path d="m31.42 73.1c-.05-.08-.2-.23-.21-.39-.02-.39.39-.73.84-.64.2.04.46.28.52.49.07.29-.45.56-1.15.54z"/><path d="m32.35 74.98c-.18-.25-.37-.38-.38-.54-.03-.32.44-.62.9-.56.17.02.31.22.47.34-.3.23-.6.46-.99.76z"/><path d="m30.41 70.63c.3.06.62.06.88.2.1.05.14.43.06.58-.15.27-.33.14-.49-.06-.15-.19-.35-.34-.53-.5.02-.08.05-.15.08-.22z"/><path d="m30.77 75.19c-.23.13-.45.34-.7.37-.12.02-.4-.27-.41-.43-.02-.44.38-.37.65-.37.15 0 .3.14.45.22.01.06.01.13.01.21z"/></g><path d="m73.57 35.73c.18-1.12.12-2.14 1.01-2.89.22-.19.28-.55.68-.5.3.04.6.09.9.14.04.01.07.03.1.04 1.13.18 1.72.92 2.03 1.96.36 1.25.36 2.48-.5 3.53-.49.61-1.17.99-2 .92-.1-.01-.22-.04-.31-.1-1.16-.78-1.7-1.91-1.91-3.1z" fill="#d18caa"/><path d="m73.26 33.44c-.05.97-.29 1.96-.11 2.86.18.91.78 1.73 1.17 2.55-.61.06-1.65-.74-1.93-1.58-.45-1.36-.02-3.29.87-3.83z" fill="#a880a7"/><path d="m40.1 69.74c-.52-.12-1.06-.23-1.57-.39-.14-.04-.22-.25-.33-.39.16-.05.32-.17.46-.14.54.1 1.07.23 1.59.39.6.18.66.61.23 1.07-.77.84-1.93.73-2.73.33-.32-.16-.64-.35-.93-.57-.12-.1-.15-.31-.22-.48.17.02.37-.01.52.05.43.18.84.54 1.28.58.56.05 1.14-.14 1.72-.22 0-.07-.01-.15-.02-.23z"/><ellipse cx="62.05" cy="32.38" fill="#252723" rx=".66" ry=".98"/></svg>