<svg enable-background="new 0 0 99.21 99.21" viewBox="0 0 99.21 99.21" xmlns="http://www.w3.org/2000/svg"><path d="m29.55 77.75s-.72 5.12-.82 6.15c-.1 1.02-.45 2.24-.45 2.24s9.37 1.96 15.2 1.65c5.84-.31 9.22-1.33 9.32-1.64s1.02-.1.92-1.54c-.1-1.43-3.38-15.47-3.38-15.47l-7.88-3.38s-1.65 2.97-3.59 3.69c-1.95.72-6.04 1.13-6.04 1.13z" fill="#be9b65"/><path d="m53.45 84.62c-.1-1.43-3.38-15.47-3.38-15.47l-7.88-3.38s-1.65 2.97-3.59 3.69c-.97.36-2.48.64-3.75.83.57 1.72 1.31 3.29 2.95 4.25 1.93 1.13 3.51.48 5.53.26 1.88-.21 3.5.48 4.58 2.04 1.91 2.74 2.16 6.74 1.83 10.19 1.76-.35 2.73-.71 2.79-.87.1-.31 1.03-.11.92-1.54z" fill="#ae8248"/><path d="m58.75 85.74s.23-11.94.11-12.78c-.11-.84-.49-.31-.82-.78s-3.1-.41-3.45-1c-.36-.59-2.51-3.46-2.51-3.46s.51-3.07 4.3-4.92c3.79-1.84 5.63-2.66 7.17-2.66s1.43.41 2.66.51 1.5.93 2.29 2.15c.78 1.23 1.09 4.61.78 6.76s-2.12 3.64-2.12 3.64-2.03-2.36-2.77-1.97c-.74.38-.74 14.52-.74 14.52s-.82.51-2.36.72c-1.52.2-2.54-.73-2.54-.73z" fill="#95b849"/><path d="m68.38 63.21c-.78-1.23-1.06-2.05-2.29-2.15s-1.13-.51-2.66-.51c-1.33 0-2.89.61-5.73 1.97.15-.01.3-.03.45-.04 5.9-.23 9.83 5.3 9.26 10.79.55-.56 1.54-1.75 1.75-3.29.31-2.16 0-5.55-.78-6.77z" fill="#c7d13e"/><path d="m47.16 51.57c1.53 1.23 2.94 2.48 3.6 4.09.23-2.15.39-4.47.76-6.75.51-3.15 1.67-6.08 3.39-8.77.31-.48.78-.85 1.14-1.3.16-.19.34-.46.33-.67-.07-.99.08-2.02-.5-2.95.48-.19.66.08.74.41.13.58.19 1.18.29 1.77.04.24-.03.6.39.57.35-.03.61-.18.58-.58-.12-1.31-.25-2.61-.4-3.92-.02-.18-.19-.34-.26-.51-.06-.14-.08-.3-.03-.49.66.5.97 1.19 1.06 1.96.12.96.16 1.93.25 2.89.01.14.12.26.19.39.08-.14.22-.27.23-.42.07-1.35.06-2.71.18-4.06.06-.7.33-1.39.53-2.07.04-.13.21-.23.31-.34.06.16.19.34.16.49-.17.89-.48 1.77-.55 2.67-.1 1.17-.03 2.35 0 3.52 0 .13.25.34.42.38 1.29.25 2.04 1.11 2.56 2.23.6 1.29 1.19 2.59 1.77 3.89.08.19.08.42.16.61.11.28.22.74.39.77.43.07.87.05 1.17-.48.78-1.4 1.09-2.92 1.43-4.45.07-.3.16-.6.25-.9.09 0 .17 0 .26-.01.05.26.19.54.13.76-.33 1.26-.7 2.5-1.07 3.75-.08.29-.18.58-.28.91.97.32 1.59.96 1.77 2 .55-.47 1.18-.82 1.55-1.35.35-.5.41-1.18.64-1.77.34-.88.71-1.74 1.07-2.64.43.2.43.38.24.77-.46.94-.82 1.92-1.22 2.89.07.06.14.12.21.17.89-.63 1.84-1.19 2.65-1.91.77-.69 1.38-1.55 2.08-2.32.12-.13.33-.19.5-.28.07.16.17.32.2.49.24 1.11.44 2.24.71 3.34.54 2.24.21 4.32-.8 6.4-1.23 2.52-3.27 4.34-5.14 6.31-1.15 1.21-1.87 2.65-2.48 4.15-.1.25-.05.69.11.91.79 1.07.99 2.31 1.08 3.56.16 2.26-.31 4.44-1.16 6.52-.22.53-.63 1.02-1.05 1.42-.42.41-.82.27-1.14-.21-.52-.77-.95-1.65-1.63-2.24-.84-.74-1.85-1.32-2.86-1.82-.68-.34-1.47-.44-2.22-.61-1.05-.23-2.02.15-2.99.49-.17.06-.37.03-.55.04.11-.18.18-.43.34-.52 1.01-.53 2.06-.77 3.24-.56 1.64.3 3.14.86 4.56 1.77 1.19.76 1.81 1.93 2.6 2.99.06.08.11.16.16.23 1.99-1.05 2.9-8.4 1.34-10.4-.21.05-.4.09-.58.14-.03-.17-.12-.36-.09-.52.09-.49-.27-.76-.58-.92-.52-.27-1.11-.4-1.67-.59-.04-.01-.1-.02-.11 0-.37.5-.87.25-1.34.3-.51.06-1 .37-1.48.6-.19.09-.33.26-.6.47 1.89.68 3.15 1.81 3.73 3.6-.05.05-.09.1-.14.14-.25-.24-.58-.43-.73-.72-.74-1.35-1.86-2.14-3.35-2.42-1.04-.19-1.97.07-2.81.7-.17.12-.38.23-.58.25-.75.1-1.26.54-1.66 1.01.57 0 1.19-.05 1.81.01.76.07 1.52.22 2.28.35.48.08.59.31.23.75-.23-.1-.46-.22-.7-.32-.98-.4-2.02-.29-3.03-.25-.26.01-.5.3-.77.37-1 .25-1.39 1.08-1.9 1.84-.32.48-.83.84-1.3 1.3.9 1.37 2.13 2.3 3.85 2.48.44.05.89.06 1.33.07.61.01.93.41 1.1.89.2.55.39 1.15.03 1.73-.03.05-.13.07-.27.15-.11-.44-.23-.84-.3-1.24-.09-.47-.28-.7-.82-.78-1.19-.19-2.47-.14-3.45-1-.67-.6-1.32-1.22-1.92-1.9-.21-.24-.37-.29-.63-.22-.15.04-.3.09-.45.11-.83.13-.93.24-.73 1.1.22.96.49 1.91.71 2.87.17.73.3 1.48.48 2.21.24 1.01.52 2.01.78 3.02.03.13.15.28.11.38-.06.19-.2.35-.3.53-.11-.13-.29-.24-.33-.38-.52-2.22-1.01-4.45-1.52-6.67-.21-.88-.45-1.76-.72-2.63-.05-.17-.25-.3-.39-.45-.06.03-.13.06-.19.1.08.49.16.99.25 1.48.23 1.17.48 2.34.69 3.51.12.64.18 1.29.25 1.94.13 1.25.25 2.49.38 3.74.01.11.07.25.03.34-.07.14-.21.25-.31.37-.1-.11-.25-.2-.28-.32-.11-.51-.2-1.02-.25-1.54-.14-1.59-.21-3.2-.41-4.78-.17-1.36-.5-2.7-.72-4.05-.1-.58-.45-.79-1.14-.85 0 .67.04 1.34-.01 2-.11 1.49-.24 2.98-.4 4.46-.22 1.94-.47 3.87-.72 5.8-.02.17-.05.36-.14.49-.07.09-.26.13-.39.12-.06-.01-.15-.21-.13-.31.26-1.86.61-3.7.79-5.57.22-2.25.3-4.51.41-6.77.01-.17-.17-.44-.33-.52-.39-.2-.82-.32-1.33-.51-.29 1.26-.54 2.47-.85 3.67-.31 1.19-.65 2.38-1.02 3.55-.37 1.15-.33 2.43-.94 3.5-.08-.02-.17-.03-.25-.05.02-.2.01-.42.06-.61.76-3.11 1.53-6.23 2.28-9.34.22-.89.19-.9-.66-1.19-.35-.12-.7-.22-1.18-.38-.86 2.78-2.42 5.32-2.63 8.41 1.1-.78.97-2.17 1.81-3.15.08.28.16.4.13.48-.46 1.01-.92 2.02-1.43 3-.08.17-.36.27-.57.33-.41.11-.6-.04-.56-.52.14-1.54.69-2.96 1.21-4.39.45-1.23.89-2.47 1.33-3.71.06-.17.07-.36.11-.54-.05-.03-.1-.05-.15-.08-.13.18-.26.36-.38.54-.53.83-1.03 1.67-1.59 2.47-.23.33-.6.55-.84.87-.28.38-.54.79-.71 1.23-.58 1.43-1.08 2.89-1.68 4.31-.4.96-.9 1.88-1.39 2.8-.38.7-.82 1.38-1.25 2.05-.08.12-.28.15-.42.23 0-.17-.06-.38.02-.5 1.44-2.21 2.55-4.59 3.47-7.05.25-.66.54-1.3.86-2.07-.86.33-1.58.61-2.16.84-.35 1.13-.63 2.22-1.03 3.25-.32.84-.79 1.63-1.2 2.43-.53 1.05-1.3 1.91-2.18 2.68-.59.52-1.25.58-1.94.29-.14-.06-.25-.33-.26-.51-.03-.54-.01-1.08-.1-1.63-.11.69-.26 1.39-.33 2.08-.16 1.55-.29 3.1-.45 4.65-.01.11-.17.2-.26.3-.11-.13-.32-.26-.32-.38.04-.96.08-1.93.21-2.88.35-2.45.8-4.88 1.09-7.34.13-1.1-.03-2.22-.36-3.31-.27-.91-.44-1.85-.66-2.78-.02-.09-.07-.19-.14-.25-1.15-1.11-1.72-2.54-2.23-4.01-.96-2.8-1.08-5.64-.34-8.5.31-1.19.93-2.2 1.73-3.12.07-.08.13-.18.27-.38-.49-.2-.98-.32-1.37-.58s-.72-.65-1-1.03c-.34-.46-.67-.78-1.28-1.01-1.11-.41-1.84-1.34-2.14-2.56-.44-1.83-.04-3.56.51-5.29.78-2.45.74-4.95.39-7.47-.02-.17-.1-.34-.19-.48-.53-.82-.79-1.65-.62-2.68.11-.67-.19-1.41-.23-2.12-.06-1.4-.13-2.81-.08-4.21.05-1.17.13-2.37.44-3.49.67-2.45 1.77-4.69 3.67-6.47 2.24-2.1 4.78-3.62 7.88-3.95 1.14-.12 2.3-.28 3.45.15.27.1.68-.14 1.01-.25 2.17-.7 4.4-1.13 6.57-.22 1.35.57 2.6 1.4 3.73 2.39 1.32 1.16 2.5 2.4 3.19 4.06.88 2.1 1.18 4.28 1.14 6.53-.03 1.84-.32 3.7-.08 5.5.25 1.87-.01 3.67-.09 5.49-.09 1.93-.28 3.88-1.26 5.61-1.07 1.89-2.46 3.46-4.53 4.32-.68.28-1.33.61-1.98.95-.38.19-.48 1.22-.17 1.51.8.75 1.18.83 2.09.24.49-.32.98-.42 1.53-.39.54.03.78.25.76.79-.02.61-.28 1.11-.74 1.51-.45.35-.85.71-1.35 1.16zm-5.96-1.02c-.09-.04-.18-.07-.28-.11.09-.81.08-1.65.3-2.43.11-.39.56-.76.94-.99s.89-.25 1.32-.43c1.43-.58 2.97-1.01 4.25-1.83 2.6-1.66 4.01-4.17 4.22-7.25.15-2.25.48-4.48.35-6.76-.11-1.77-.01-3.56-.47-5.29-.53-1.98-.97-3.97-2.75-5.35-1.39-1.08-2.84-1.75-4.62-1.65-.95.05-1.94.18-2.85-.02-1.69-.37-3.04.26-4.25 1.2-2.59 2.01-4.31 4.63-5.12 7.81-.44 1.78-.74 3.59-1.24 5.35-.45 1.6-1.03 3.16-2.15 4.45-.53.61-.71 1.27-.5 2.13.33 1.4 1.07 2.55 2.04 3.53 1.25 1.26 2.64 2.38 3.94 3.59.32.3.72.73.74 1.12.05.9-.1 1.81-.2 2.7-.01.12-.23.22-.38.3-.13.07-.29.08-.42.15-1.58.85-3.16 1.7-4.73 2.57-1.31.72-2.18 1.83-2.7 3.22-.52 1.36-.66 2.77-.63 4.21.08 3.84 1.27 7.21 4.19 9.83 1.04.93 2.18 1.67 3.63 1.75 1.22.06 2.43.13 3.58-.44 1.41-.71 2.49-1.76 3.31-3.08.34-.55.65-1.11.97-1.67-.03-.06-.07-.13-.1-.19-.6-.03-1.2-.06-1.81-.08-1.62-.05-3.06.47-4.43 1.3-.64.39-1.33.72-2.03.99-.8.3-1.76-.06-1.97-.65-.28-.81-.27-1.61.01-2.44.53-1.55 1.38-2.88 2.54-4.03.2-.19.3-.56.32-.85.06-1.22.26-2.38 1.1-3.33.46-.51 1.07-.64 1.69-.55.6.1.95-.12 1.32-.55.26-.3.65-.61 1.03-.67.76-.11 1.07-.59 1.32-1.21.06-.16.15-.31.22-.47.54-1.3 1.09-2.59 1.61-3.89.17-.43-.13-.58-.47-.71-.36-.14-.42.11-.53.34-.07.14-.2.25-.31.38zm-14.6 1.58c-.04-.14-.07-.28-.13-.41-.46-1.11-.76-2.24-.43-3.45.24-.89.47-1.8.8-2.66.62-1.65.84-3.29.4-5.05-.25-.99-.08-2.1.6-2.93 1.63-1.99 2.5-4.29 3.11-6.74.54-2.15.72-4.39 1.73-6.42 1.24-2.49 2.93-4.56 5.3-6.01.95-.58 2.02-.93 3.21-.81 1.17.12 2.36.23 3.52.13 2.84-.23 6.05 2.21 6.82 4.45.23.68.48 1.36.72 2.03.05-.58.01-1.14-.06-1.69-.24-2.06-.78-4.02-2.04-5.72-.93-1.26-2.2-2.15-3.41-3.1-1.65-1.3-3.48-1.98-5.62-1.57-.89.17-1.78.34-2.81.54.63.52 1.07.92 1.55 1.26.15.11.43.1.64.07.5-.07.99-.2 1.48-.25.14-.01.3.19.46.3-.14.09-.27.24-.42.27-.46.1-.93.16-1.47.25.2.3.36.5.47.72.22.44.5.47.94.29.49-.2 1.03-.31 1.55-.41.12-.02.28.16.42.24-.12.11-.22.29-.36.33-.61.17-1.23.3-1.81.44-.02.38-.04.67-.06.96-.05.01-.1.03-.15.04-.1-.13-.22-.24-.28-.38-.73-1.85-2.11-3.03-3.87-3.87-1.23-.59-2.47-.31-3.71-.19-.82.08-1.67.2-2.43.51-.99.4-1.91.98-2.83 1.54-1.76 1.06-3.12 2.53-4.1 4.33-1.04 1.91-1.89 3.89-1.89 6.13 0 1.47-.02 2.94.01 4.4.01.48.14.96.23 1.58.27-.34.49-.55.62-.8.46-.89 1.24-1.22 2.16-1.18.61.03.66-.22.62-.71-.06-.63-.07-1.28-.05-1.91.01-.15.24-.29.37-.43.06.15.18.31.18.46.03.81.03 1.62.06 2.44.01.17.02.38.13.48.39.39.82.74 1.25 1.13-.16-1.26-.33-2.54-.5-3.82.04-.03.09-.06.13-.09.15.22.38.43.44.67.67 2.81.82 5.62-.06 8.42-.18.59-.46 1.14-.73 1.7-.05.1-.27.11-.41.16-.03-.15-.07-.29-.08-.44 0-.08.05-.17.08-.26-.33 0-.63 0-1 0 .67 2.04.12 3.96-.45 5.84-.61 1.99-1.34 3.91-.69 6.07.36 1.23.86 2.29 1.85 3.12zm26.43 13.17c-.46-.11-.82-.13-1.13-.28-2.42-1.11-4.94-1.47-7.58-1.1-.13.02-.28-.12-.42-.18.11-.13.2-.33.33-.36.28-.06.57-.03.86-.05 1.69-.15 3.37-.03 4.99.49.89.29 1.76.65 2.69 1-.01-.13 0-.21-.02-.28-.21-.71-.86-1.04-1.38-1.41-1.21-.86-2.62-1.16-4.09-1.29-2.1-.19-4.13.1-6.14.6-.71.17-1.37.53-2.06.78-.15.05-.35-.02-.53-.04.03-.12.03-.29.1-.34.3-.2.61-.43.94-.54 2.05-.68 4.16-1.07 6.32-1.07 1.56 0 3.15 0 4.6.75.47.24.95.47 1.47.73 0-.87-.34-1.48-1.13-1.79-.41-.16-.85-.27-1.26-.43-.14-.06-.25-.21-.37-.31.16-.07.34-.23.48-.2.34.06.66.2.99.32.26.09.51.2.84.33-.34-1.02-2.34-1.85-4.04-1.76.1.86-.28 1.48-1.05 1.8-.97.4-1.92.35-2.77-.4-1.13.85-2.23 1.81-3.71.74-.73 1.37-2.71 1.73-3.63.66-.37-.43-.68-.35-1.03-.07-1.42 1.18-2.61 2.55-3.21 4.32-.23.67-.18 1.43-.21 2.16-.02.48.34.7.73.59.7-.19 1.44-.38 2.03-.77 1.93-1.27 3.99-1.83 6.28-1.52.59.08 1.16.18 1.39-.58 0-.01.07-.01.19-.02.06.27.13.56.17.73.47.18.87.35 1.28.49.82.29 1.68.5 2.46.86 1.88.86 3.8 1.01 5.78.52.77-.19 1.46-.5 1.9-1.29.38-.7.94-1.31 1.4-1.97.09-.13.17-.31.14-.45-.12-.72-.31-.85-1.05-.89-.33-.02-.65-.1-.98-.14-.16-.02-.32 0-.68 0 .43.88.81 1.6 1.14 2.35.07.17 0 .4 0 .6-.16-.09-.38-.15-.47-.29-.25-.37-.43-.76-.56-1zm22.89-23.57c-.08 0-.16-.01-.24-.01-.13.14-.24.29-.38.42-.67.64-1.33 1.3-2.04 1.89-1.42 1.17-3.24 1.81-4.36 3.37-.51.72-1.01 1.44-1.53 2.18.63.47 1.11 1.01 1.11 1.88.88-1.05 1.62-2.18 2.77-2.98.05.22.05.44-.05.58-.53.66-1.08 1.32-1.65 1.95-.42.46-.54 1.26-1.46 1.2.88.63 1.2 1.44 1.13 2.45-.01.16.19.33.3.52 1.39-1.04 2.36-2.34 3.23-3.72.09-.14.26-.24.39-.36.05.05.1.1.15.15-.09.19-.15.39-.27.56-.71.94-1.45 1.85-2.13 2.81-.4.56-.98.98-1.1 1.76-.12.77-.58 1.34-1.45 1.43-.26.03-.51.14-.81.22 0 .8.05 1.63-.02 2.45-.04.44.07.68.32.76.76-1.28 1.37-2.62 2.26-3.73 1.21-1.51 2.67-2.81 3.95-4.26 1.67-1.9 2.8-4.1 2.68-6.67-.07-1.63-.52-3.24-.8-4.85zm-48.26-1.94c.05.58 0 1.14.16 1.62.54 1.68-.04 3.19-.58 4.73-.52 1.48-.97 2.94-.56 4.58.27 1.1 1.18 1.52 1.82 2.23.05.05.28-.02.4-.08.61-.34 1.2-.7 1.81-1.03.99-.53 2-1.01 2.98-1.57.79-.45 1.24-2.13.65-2.8-.7-.79-1.59-1.42-2.52-2.23-.07.99-.12 1.8-.17 2.6-.09.01-.18.03-.27.04-.1-.34-.27-.68-.28-1.02-.01-.48.11-.96.14-1.44.06-.8-.36-1.42-1.02-1.67-.32 1.05-.63 2.12-.97 3.18-.29.92-.65 1.82-.53 2.82.05.43.07.86.1 1.29-.06.02-.12.05-.17.07-.1-.15-.25-.29-.28-.45-.26-1.11-.26-2.22.12-3.31.31-.91.67-1.82.84-2.76.12-.67.13-1.46-.11-2.09-.38-.92-1-1.74-1.56-2.71zm1.5 30.94c.09.36.21.78.3 1.21.27 1.21.64 2.4.75 3.62.15 1.73.11 3.48.12 5.22 0 .5.28.61.62.47.4-.17.78-.42 1.09-.72 1.55-1.51 2.34-3.48 3.14-5.43.27-.66.44-1.36.67-2.08-1.31.24-2.56.16-3.67-.33-1.07-.48-2.01-1.29-3.02-1.96zm-1.05-37.71c-.09-.7-.84-2.21-1.38-2.61-1.25-.92-2.22-.74-3.1.58-.15.22-.31.45-.44.68-1.05 1.94-.5 2.65.61 3.83.67.71 1.63.87 2.53 1.04.3.06.89-.22.98-.47.35-.98.55-2.02.8-3.05zm-4.45 3.08c0 .4-.02.7 0 1 .19 2.14.04 4.25-.58 6.31-.46 1.53-.82 3.04-.44 4.67.22.93.96 1.95 1.75 2.3-.16-.69-.4-1.44-.49-2.21-.17-1.51.24-2.95.61-4.39.4-1.51.81-3.02 1.07-4.56.12-.73.02-1.57-.22-2.27-.11-.31-.82-.41-1.26-.61-.1-.06-.2-.11-.44-.24zm42.22 13.39c.27-.02.5.02.66-.07.74-.41 1.36-1.78 1.21-2.61-.1-.57-.54-1.08-1-1.06-1.16.04-2.3.15-3.32.79-.67.42-1.02 1.03-.85 1.61.17.59.78.93 1.6.83.55-.07 1.09-.21 1.64-.32.17-.03.35-.07.52-.1.04.05.08.11.12.16-.17.22-.34.44-.58.77zm-27.46 8.15c.03.04.05.1.09.14.7.68 1.35 1.38 1.52 2.41.03.18.24.35.4.48.67.5 1.61.27 2.48-.58.44-.43.48-1.25.01-1.87-.31-.41-.71-.76-1.09-1.11-1.02-.98-2.72-.71-3.41.53zm3.7-1.18c.19.21.34.38.49.55.54.62 1.18 1.16 1.27 2.08.09.95.3 1.11 1.24 1.26.86.13 1.84-.57 1.64-1.27-.25-.86-.67-1.68-1.12-2.46-.32-.55-.93-.69-1.58-.79-.8-.13-1.33.15-1.94.63zm-6.65 3.58c.07 0 .14 0 .22-.01.26.35.52.7.78 1.04.43.57 1.19.83 1.79.61.67-.25 1.07-.85 1.04-1.57-.04-.87-1.07-2.06-1.94-2.12-.49-.03-1.12-.02-1.48.24-.94.69-1.06 1.79-1.14 3.03.3-.24.55-.35.66-.54.1-.18.05-.45.07-.68zm15.67-1c-.29-2.77-1.69-4.79-3.94-6.47-.26 1.01-.48 1.89-.71 2.8 1.73-.15 2.6 1.44 2.63 2.85.65.26 1.3.53 2.02.82zm14.21-5.81c1.22-.15 2.05-.7 2.37-1.66.2-.59-.2-1.42-.76-1.46-1.07-.07-2.13-.02-3.09.54-.83.48-.98 1.62-.04 2.09.48.24 1.01.33 1.52.49zm-22.03-2.73c-.83 1.85-1.64 3.63-2.44 5.42.71.34.81.3 1.16-.32.42-.73.87-1.46 1.32-2.17.06-.09.21-.12.32-.18.05.13.17.27.15.38-.03.16-.17.3-.26.44-.25.35-.5.7-.79 1.13 1.33-.11 1.32-.11 1.67-1.17.1-.31.24-.61.34-.92.57-1.73.57-1.73-1.11-2.49-.13-.07-.26-.09-.36-.12zm15.03 7.02c.06.92.09 1.74.18 2.56.02.13.3.34.46.34.79-.01 1.58-.06 2.37-.15.14-.01.35-.23.36-.37.07-.79.09-1.58.1-2.37 0-.11-.19-.32-.28-.32-1.03.09-2.06.2-3.19.31zm3.24-3.98c0-.92.02-1.76-.02-2.6-.01-.12-.3-.31-.46-.31-.79 0-1.58.03-2.36.09-.16.01-.45.2-.45.32-.04.88-.02 1.76-.02 2.68 1.16-.07 2.23-.13 3.31-.18zm-.43-6.5c-.87.04-1.69.06-2.51.13-.12.01-.3.23-.31.37-.05.77-.07 1.55-.05 2.32 0 .14.22.39.34.39.85.01 1.7-.01 2.54-.06.12-.01.33-.27.32-.4-.09-.89-.21-1.77-.33-2.75zm-2.94 10.02c1.14-.11 2.23-.21 3.32-.34.1-.01.27-.19.27-.29 0-.66-.02-1.31-.08-1.96-.01-.13-.26-.33-.39-.33-.85.02-1.69.12-2.54.12-.49 0-.6.21-.59.62.02.68.01 1.35.01 2.18zm-3.68-4.66c0 .37-.04.57.01.75.04.15.18.37.3.38.82.09 1.65.15 2.48.17.12 0 .35-.24.36-.38.04-.73.05-1.46.02-2.2-.01-.14-.2-.38-.34-.4-.76-.1-1.53-.13-2.3-.21-.31-.03-.42.11-.43.39-.03.56-.07 1.12-.1 1.5zm3.19-5.27c-.45-.05-.89-.09-1.32-.16-1.22-.17-1.24-.18-1.43 1.05-.1.65-.14 1.32-.21 2.02 1.04.08 1.99.14 2.96.21 0-1.06 0-2.04 0-3.12zm-.74 13.26c0-.01 0-.01 0 0 .12 0 .23 0 .35.01.48.04.71-.05.6-.64-.12-.62-.12-1.27-.15-1.9-.01-.3-.07-.46-.42-.46-.53-.01-1.07-.08-1.6-.14-.89-.09-1.06.08-.97.95.03.31.04.62.11.92.26 1.18-.12 1.1 1.28 1.2.27.01.53.03.8.06zm-2.49-6.34c.06.9.1 1.69.16 2.47.01.1.14.27.22.27.94.07 1.88.12 2.86.18 0-.82 0-1.57 0-2.32 0-.32-.14-.47-.5-.48-.86 0-1.72-.07-2.74-.12zm3.82-7.44c.87 0 1.6-.01 2.33 0 .4.01.45-.19.39-.51-.09-.44-.17-.87-.24-1.31-.24-1.58-.23-1.58-1.8-1.56-.02 0-.04 0-.06 0-.32-.03-.44.1-.45.43-.01.61-.06 1.23-.1 1.84-.02.36-.04.71-.07 1.11zm8.2 9.51c.6.05 1.13-.27 1.59-.7.6-.56.69-1.45.28-2.16-.2-.35-.45-.45-.82-.25-.54.3-1.08.59-1.62.87-.48.25-.81.96-.68 1.51.1.44.56.73 1.25.73zm-8.71-12.85c-.59.07-1.22.11-1.83.23-.14.03-.3.29-.33.46-.14.72-.26 1.44-.34 2.16-.02.14.16.42.26.43.72.04 1.44.02 2.24.02 0-1.07 0-2.13 0-3.3zm-6.3 10.3c0 .87-.02 1.68.01 2.49.01.14.18.37.31.4.71.14 1.43.22 2.12.32 0-.95.02-1.77-.02-2.59 0-.12-.23-.3-.38-.33-.63-.12-1.28-.19-2.04-.29zm.41-3.53c-.1.91-.2 1.75-.27 2.59-.01.11.13.31.23.34.67.19 1.36.35 2.14.55 0-1.13 0-2.11 0-3.15-.65-.11-1.33-.21-2.1-.33zm2.5 10.13c-.1-.95-.18-1.79-.29-2.62-.01-.09-.16-.22-.27-.23-.63-.1-1.26-.16-1.89-.25-.34-.05-.49.08-.44.41.1.64.22 1.29.36 1.93.02.11.2.23.33.26.71.17 1.4.32 2.2.5zm10.06-3.54c-.64.15-1.15.25-1.65.4-.15.04-.35.23-.36.35-.03.9-.02 1.8-.02 2.74.64-.12 1.25-.22 1.85-.35.12-.03.3-.18.29-.27 0-.94-.06-1.87-.11-2.87zm-9.28 6.76c-.22-.94-.4-1.74-.6-2.53-.02-.08-.2-.16-.32-.18-.59-.11-1.18-.18-1.76-.29-.42-.08-.5.14-.42.45.16.61.36 1.22.56 1.82.04.13.16.3.27.33.7.13 1.42.25 2.27.4zm6.45-17.08c.66.01 1.17-.23 1.7-.37.72-.2.63-.5.52-.98-.08-.32-.14-.64-.25-.95-.05-.15-.17-.36-.29-.39-.68-.13-1.37-.22-2.16-.33.18 1.12.32 2.05.48 3.02zm-5.43 14.46c0 .01 0 .02-.01.04-.12-.01-.23-.02-.35-.03-.62-.06-.69.02-.54.6.09.37.18.75.26 1.13.19.88.19.88 1.08.92 1 .05 1.53-.48 1.44-1.47-.01-.12-.05-.23-.04-.34.03-.46-.09-.72-.64-.69-.39.02-.8-.1-1.2-.16zm-2.07-10.83c.12-.88.23-1.68.34-2.48.01-.04.03-.09.01-.11-.11-.16-.2-.44-.34-.46-1.27-.25-1.49-.1-1.78 1.12-.02.09-.04.19-.06.28-.3 1.25-.26 1.32 1.03 1.57.23.03.48.04.8.08zm8.21 6.69c.62-.13 1.06-.22 1.49-.32.11-.03.24-.07.31-.15.12-.12.29-.28.3-.42.01-.56-.03-1.12-.07-1.68-.01-.1-.1-.21-.18-.28-.21-.18-1.62 0-1.79.23-.04.06-.06.14-.06.21zm-7.24-13.11c-.5.07-.88.1-1.25.19-.14.03-.28.19-.35.32-.2.41-.37.84-.55 1.27-.28.66-.16.92.53 1.06.23.05.47.12.69.08.17-.03.42-.2.45-.34.18-.81.31-1.62.48-2.58zm3.56 19.09c.87-.16 1.64-.28 2.4-.48.21-.06.43-.32.53-.54.1-.23.06-.52.09-.87-1.04.06-2.04.11-3.11.17.03.62.06 1.18.09 1.72zm-12.91-10.72c-.3.94-.57 1.9-.93 2.83-.23.6.19.71.53.87.38.18.64-.06.73-.41.19-.76.33-1.53.51-2.3.17-.67-.19-.9-.84-.99zm-1.75-4.77c-1.85.35-2.24.64-2.31 1.79.69.33 1.37.65 2.15 1.02-.19-.43-.36-.72-.42-1.03-.04-.19.02-.55.13-.59.57-.24.52-.68.45-1.19zm14.51-6.46v2.03h1.93c-.11-.45-.2-.81-.28-1.16-.21-.9-.28-.96-1.23-.91-.15.01-.3.03-.42.04zm6.62 18.95c.36-.12.57-.2.79-.27.74-.22.74-.22.56-.77-.32-.21-.53-.35-.77-.5.41-.27.72-.43.96-.67.08-.08.01-.48-.06-.51-.48-.16-.99-.25-1.48-.36zm-9.3-16.6c.33-.02.52-.04.7-.05 1.38-.12 1.39-.12 1.33-1.51-.01-.23-.2-.66-.25-.65-.4.07-.95.11-1.13.38-.32.48-.42 1.12-.65 1.83zm7.25-.07c-.23-1.42-1.13-2.14-2.42-1.96.12.53.24 1.05.38 1.57.03.1.16.23.25.24.59.06 1.18.1 1.79.15zm-17.04 13.21c.35.59.6 1.19 1.01 1.66.22.25.71.3 1.08.37.07.01.31-.33.28-.48-.19-1.1-.82-2.07-2.37-1.55zm10.84-15.92c.86.03.93-.05.85-.88-.02-.19.01-.38.02-.61.55.28.57.28.59.83.01.35.13.5.48.48.26-.01.52 0 .88 0-.2-.43-.34-.78-.53-1.11-.09-.17-.27-.42-.4-.41-.4.02-.95.01-1.17.26-.36.37-.49.95-.72 1.44zm-9.79 10.55c.37-.26.77-.44 1-.75.24-.31.52-.82.42-1.1-.16-.45-.67-.17-1.02-.05-.21.08-.4.23-.57.38-.07.06-.14.2-.13.29.08.39.19.78.3 1.23zm20.6 6.72.24-.24c.56.01 1.32-.47 1.43-1 .05-.23-.14-.51-.25-.76-.01-.03-.28.01-.37.08-.37.3-.73.62-1.06.95-.1.1-.17.28-.17.41.01.19.11.37.18.56zm-7.95-18.88c.53 1.51.95 1.85 2.23 1.87-.52-.88-1.04-1.69-2.23-1.87zm-5.6 4.42c.42-.05.94.02 1.04-.16.29-.49.41-1.09.62-1.72-.98.28-1.44.87-1.66 1.88zm-8.12 8.1c.48-.5.5-1.25.02-1.5-.22-.11-.64.09-.93.23-.1.05-.17.44-.1.51.29.29.65.5 1.01.76zm17.71-1.17c0-.06-.01-.11-.01-.17-1.57-.57-1.57-.57-1.81-2.89-.2 1.04.13 2.06.14 3.18.59-.04 1.13-.08 1.68-.12zm-.64 3.15c-.8-.74-.67-1.59-.11-2.54-.39.05-.61.08-.76.1 0 .76-.03 1.47.01 2.17.03.58.29.66.86.27zm1.44 7.23c.01-.02.01-.04.02-.06-.64.09-1.28.16-1.91.3-.17.04-.3.3-.45.45.05.05.09.1.14.15.73-.27 1.47-.55 2.2-.84zm2.35.2c-.04-.31-.08-.55-.12-.88-.48.17-.89.32-1.46.52.61.13 1.06.23 1.58.36zm-22.81-11.96c-.05.07-.1.13-.15.2.15.27.31.54.49.87.19-.22.32-.37.53-.62-.33-.18-.6-.31-.87-.45zm11.35-8.06c.76.04.82-.52.91-1.04-.3.35-.6.7-.91 1.04z" stroke="#000" stroke-miterlimit="10" stroke-width=".1898"/><path d="m63.42 74.03c.12-.97.23-1.95.37-2.92.02-.15.23-.27.36-.4.09.17.27.35.26.51-.09 1.19-.2 2.38-.34 3.56-.02.15-.18.29-.27.43-.1-.14-.26-.27-.3-.43-.05-.24-.01-.5-.01-.75-.03 0-.05 0-.07 0z"/><path d="m41.2 50.55c.1-.13.24-.24.31-.38.12-.23.17-.48.53-.34.33.13.64.28.47.71-.53 1.3-1.07 2.6-1.61 3.89-.07.16-.15.31-.22.47-.25.61-.55 1.09-1.32 1.21-.37.05-.77.36-1.03.67-.37.43-.71.65-1.32.55-.62-.1-1.23.03-1.69.55-.85.95-1.04 2.11-1.1 3.33-.01.29-.12.66-.32.85-1.17 1.15-2.01 2.48-2.54 4.03-.28.83-.29 1.63-.01 2.44.2.59 1.17.95 1.97.65.7-.26 1.39-.6 2.03-.99 1.37-.84 2.81-1.35 4.43-1.3.6.02 1.2.05 1.81.08.03.06.07.13.1.19-.32.56-.63 1.12-.97 1.67-.83 1.32-1.9 2.38-3.31 3.08-1.15.57-2.36.5-3.58.44-1.45-.07-2.59-.82-3.63-1.75-2.93-2.62-4.11-5.99-4.19-9.83-.03-1.44.12-2.86.63-4.21.53-1.39 1.39-2.5 2.7-3.22 1.57-.87 3.15-1.72 4.73-2.57.13-.07.29-.08.42-.15.14-.08.36-.19.38-.3.1-.9.25-1.81.2-2.7-.02-.39-.41-.81-.74-1.12-1.3-1.21-2.69-2.33-3.94-3.59-.96-.98-1.71-2.12-2.04-3.53-.2-.86-.03-1.51.5-2.13 1.12-1.29 1.7-2.86 2.15-4.45.49-1.76.8-3.57 1.24-5.35.8-3.19 2.53-5.81 5.12-7.81 1.22-.94 2.57-1.58 4.25-1.2.91.2 1.9.07 2.85.02 1.79-.1 3.24.57 4.62 1.65 1.78 1.38 2.22 3.37 2.75 5.35.46 1.74.37 3.52.47 5.29.14 2.29-.19 4.51-.35 6.76-.21 3.08-1.62 5.59-4.22 7.25-1.28.82-2.82 1.25-4.25 1.83-.43.17-.94.19-1.32.43-.38.23-.84.6-.94.99-.21.78-.21 1.62-.3 2.43.1.03.19.07.28.11zm.51-12.86c-.07.02-.14.04-.21.07.06.2.06.47.19.59.58.51 1.26.84 2.06.76.94-.09 1.8-.38 2.57-.98 1.33-1.02 1.79-3.08.91-4.35-.97-1.39-2.05-2.73-2.27-4.51-.02-.13-.26-.22-.39-.33-.06.15-.19.33-.16.45.22.82.39 1.66.74 2.43.33.73.81 1.4 1.29 2.05.61.83.71 1.71.39 2.64-.49 1.43-2.97 2.61-4.37 1.62-.25-.17-.5-.3-.75-.44zm-4.02 2.86c1.08 1.98 3.01 2.68 5.12 3.1.39.08.64-.03.67-.45-1.05-.34-2.08-.64-3.09-1.01-1.06-.39-1.75-1.24-2.27-2 .04-.37.06-.59.08-.8-.2.07-.42.12-.61.22-.15.08-.3.21-.37.36-.09.18-.1.41-.14.61.19 0 .37-.01.61-.03zm10.22-15.65c-.56-.19-1.07-.38-1.59-.51-.1-.03-.26.16-.39.25.12.12.26.37.36.35.51-.08.85.15 1.16.5.03.03.11.02.16.03.07-.14.14-.28.3-.62zm-7.24-1.16c-.33.33-.65.61-.91.93-.11.13-.1.35-.14.53.16-.08.34-.14.48-.25.32-.26.5-.8 1.08-.45.04.03.19-.04.23-.1.03-.06 0-.2-.06-.24-.18-.13-.38-.24-.68-.42zm2.51 16.55c-.32-.28-.41-.37-.51-.46-.2.24-.4.47-.58.72-.02.02.22.28.26.27.26-.14.5-.32.83-.53zm1.56.09c-.2-.17-.32-.26-.43-.36-.16.26-.33.52-.46.79-.02.05.14.18.21.28.2-.21.41-.43.68-.71zm-3.33-1.04c-.05-.01-.1-.02-.16-.03-.19.15-.43.27-.56.47-.07.1.02.32.05.49.21-.15.45-.26.61-.45.09-.11.04-.32.06-.48zm-.7-.34c-.25-.11-.43-.24-.48-.2-.22.17-.39.39-.58.6.1.09.27.28.29.26.24-.17.46-.38.77-.66zm-1.29-.97c-.23-.14-.43-.32-.48-.29-.18.14-.34.33-.46.53-.03.04.14.2.22.31.21-.16.42-.32.72-.55zm6.33 3.04h.19c.07-.22.17-.43.19-.65.01-.1-.14-.22-.22-.34-.12.2-.29.38-.35.59-.02.1.12.26.19.4zm1.78-.36h.18c.07-.21.17-.42.2-.64.01-.07-.15-.17-.23-.25-.13.19-.28.37-.36.58-.03.06.13.2.21.31zm-9.75-3.06c-.17-.15-.27-.24-.37-.33-.14.16-.3.32-.4.5-.03.05.14.2.22.3.16-.13.32-.27.55-.47z" fill="#dfcbc0"/><path d="m39.77 66.88c-1.62-.05-3.06.47-4.43 1.3-.64.39-1.33.72-2.03.99-.8.3-1.76-.06-1.97-.65-.28-.81-.27-1.61.01-2.44.46-1.34 1.17-2.51 2.1-3.54-1.26-.86-3.78-1.95-3.67-3.47-.57-2.08.24-4.77 2.15-6.48 1.19-1.06 2.63-1.56 4.16-1.83-.43-.15-.85-.33-1.24-.54 0 .03-.01.06-.01.09-.01.12-.23.22-.38.3-.13.07-.29.08-.42.15-1.58.85-3.16 1.7-4.73 2.57-1.31.72-2.18 1.83-2.7 3.22-.52 1.36-.66 2.77-.63 4.21.08 3.84 1.27 7.21 4.19 9.83 1.04.93 2.18 1.67 3.63 1.75 1.22.06 2.43.13 3.58-.44 1.41-.71 2.49-1.76 3.31-3.08.34-.55.65-1.11.97-1.67-.03-.06-.07-.13-.1-.19-.58-.03-1.18-.06-1.79-.08z" fill="#d4baac"/><path d="m42.33 45.38c-3 .1-6.27.03-8.84-1.71-2.38-1.61-3.63-4.22-4.23-6.94-.13.18-.27.36-.42.53-.53.61-.71 1.27-.5 2.13.33 1.4 1.07 2.55 2.04 3.53 1.25 1.26 2.64 2.38 3.94 3.59.32.3.72.73.74 1.12.04.65-.03 1.3-.11 1.95.8.47 1.79.81 2.82.97 1.06-.1 2.14-.16 3.17-.26.07-.76.08-1.54.28-2.27.11-.39.56-.76.94-.99s.89-.25 1.32-.43c1.43-.58 2.97-1.01 4.25-1.83.26-.17.5-.35.74-.53-1.88.72-4.02 1.06-6.14 1.14z" fill="#d4baac"/><path d="m26.6 52.13c-.99-.83-1.49-1.89-1.86-3.1-.65-2.16.09-4.08.69-6.07.57-1.88 1.12-3.8.45-5.84h1c-.03.09-.08.18-.08.26.01.15.05.29.08.44.14-.05.37-.06.41-.16.27-.55.55-1.11.73-1.7.88-2.8.73-5.61.06-8.42-.06-.25-.29-.45-.44-.67-.04.03-.09.06-.13.09.17 1.28.34 2.56.5 3.82-.44-.39-.87-.74-1.25-1.13-.1-.1-.12-.32-.13-.48-.03-.81-.03-1.62-.06-2.44-.01-.16-.12-.31-.18-.46-.13.14-.36.28-.37.43-.02.64-.01 1.28.05 1.91.05.5-.01.74-.62.71-.93-.04-1.7.29-2.16 1.18-.13.25-.35.45-.62.8-.09-.62-.22-1.1-.23-1.58-.03-1.47-.01-2.94-.01-4.4 0-2.24.85-4.22 1.89-6.13.98-1.79 2.34-3.26 4.1-4.33.92-.55 1.84-1.13 2.83-1.54.76-.31 1.61-.43 2.43-.51 1.24-.12 2.48-.4 3.71.19 1.76.84 3.14 2.01 3.87 3.87.06.14.18.25.28.38.05-.01.1-.03.15-.04.02-.29.04-.58.06-.96.58-.14 1.2-.27 1.81-.44.14-.04.24-.22.36-.33-.14-.09-.3-.26-.42-.24-.53.1-1.06.21-1.55.41-.44.18-.72.15-.94-.29-.11-.22-.27-.42-.47-.72.54-.09 1.01-.15 1.47-.25.15-.03.28-.18.42-.27-.15-.11-.31-.31-.46-.3-.5.04-.99.18-1.48.25-.21.03-.48.04-.64-.07-.49-.34-.93-.75-1.55-1.26 1.03-.2 1.92-.37 2.81-.54 2.13-.41 3.97.27 5.62 1.57 1.21.95 2.48 1.84 3.41 3.1 1.26 1.7 1.8 3.66 2.04 5.72.06.56.11 1.11.06 1.69-.24-.68-.49-1.35-.72-2.03-.77-2.24-3.98-4.68-6.82-4.45-1.16.09-2.36-.01-3.52-.13-1.19-.13-2.26.23-3.21.81-2.37 1.45-4.07 3.52-5.3 6.01-1.01 2.03-1.2 4.27-1.73 6.42-.61 2.45-1.48 4.75-3.11 6.74-.68.83-.84 1.95-.6 2.93.44 1.76.22 3.4-.4 5.05-.32.87-.55 1.77-.8 2.66-.33 1.2-.02 2.34.43 3.45.06.11.09.25.14.39z" fill="#292929"/><path d="m36.72 18.64c-.05-.72.27-1.27.3-1.93.02-.47.24-.17-.21-.45-.4-.25-1.38-.15-1.83-.19-.25-.02-.42-.33-.22-.53.31-.3.52-.66.77-1-.4-.14-.78-.26-1.24-.25-.22.01-.4-.27-.27-.46.57-.83-.69-.96-1.9-.92-.3.07-.59.15-.86.27-.99.4-1.91.98-2.83 1.54-.86.52-1.63 1.14-2.3 1.84-.2.38-.36.76-.46 1.19 1.15-.44 2.31-.74 3.57-.79.16-.01.32.15.31.31-.05.64-.19 1.22-.4 1.81.75-.12 1.45-.38 2.19-.61.21-.07.46.16.38.38-.17.48-.31.95-.5 1.4.58-.23 1.14-.48 1.69-.8.21-.12.46.03.46.27.02.67.02 1.95 1.35 1.41.69-.82 1.46-1.56 2.33-2.21-.17.02-.32-.08-.33-.28z" fill="#6b6b6b"/><path d="m46.1 16.67c-.13-.11-.11-.33 0-.44.81-.8-.77-1.06-1.09-1.12-.18-.03-.24-.23-.22-.38.21-1.51-1.94-1.43-2.84-1.52-.24-.02-.37-.24-.27-.46.14-.3.12-.56-.02-.77-.18.02-.35.04-.54.07-.89.17-1.78.34-2.81.54.63.52 1.07.92 1.55 1.26.15.11.43.1.64.07.5-.07.99-.2 1.48-.25.14-.01.3.19.46.3-.14.09-.27.24-.42.27-.46.1-.93.16-1.47.25.2.3.36.5.47.72.22.44.5.47.94.29.49-.2 1.03-.31 1.55-.41.12-.02.28.16.42.24-.12.11-.22.29-.36.33-.61.17-1.23.3-1.81.44-.02.35-.04.63-.06.9.05.19.1.38.14.57.95.09 1.9.14 2.84.07.67-.05 1.37.05 2.05.25.02-.4-.2-.81-.63-1.22z" fill="#6b6b6b"/><path d="m53.03 65.3c.13.24.31.63.54.98.09.14.31.2.47.29 0-.2.07-.43 0-.6-.33-.74-.71-1.47-1.14-2.35.36 0 .52-.02.68 0 .33.04.65.12.98.14.73.04.92.17 1.05.89.02.14-.06.33-.14.45-.46.66-1.02 1.27-1.4 1.97-.43.79-1.12 1.1-1.9 1.29-1.98.49-3.9.34-5.78-.52-.79-.36-1.64-.57-2.46-.86-.41-.14-.81-.31-1.28-.49-.04-.17-.11-.45-.17-.73-.12.01-.18.01-.19.02-.23.75-.8.66-1.39.58-2.29-.31-4.36.25-6.28 1.52-.59.39-1.33.58-2.03.77-.39.1-.75-.11-.73-.59.04-.72-.02-1.49.21-2.16.6-1.76 1.79-3.14 3.21-4.32.35-.29.66-.37 1.03.07.92 1.07 2.89.7 3.63-.66 1.48 1.07 2.58.11 3.71-.74.84.75 1.79.81 2.77.4.77-.32 1.16-.94 1.05-1.8 1.71-.08 3.7.74 4.04 1.76-.33-.13-.58-.23-.84-.33-.33-.12-.65-.26-.99-.32-.14-.03-.32.13-.48.2.12.11.23.26.37.31.41.16.85.27 1.26.43.79.31 1.12.92 1.13 1.79-.51-.25-.99-.49-1.47-.73-1.45-.75-3.04-.75-4.6-.75-2.16 0-4.27.38-6.32 1.07-.34.11-.64.34-.94.54-.08.05-.07.22-.1.34.18.02.38.09.53.04.69-.24 1.35-.6 2.06-.78 2.01-.5 4.05-.79 6.14-.6 1.47.13 2.88.43 4.09 1.29.52.37 1.17.7 1.38 1.41.02.07.01.14.02.28-.93-.35-1.79-.71-2.69-1-1.62-.52-3.29-.64-4.99-.49-.29.03-.59-.01-.86.05-.13.03-.22.24-.33.36.14.06.29.2.42.18 2.64-.37 5.16-.01 7.58 1.1.32.17.69.19 1.15.3zm-6.89-.68c-.2.13-.35.24-.51.34.13.11.26.3.41.32.38.07.77.06 1.15.08.61.04 1.22.04 1.82.15.74.14 1.46.38 2.19.55.16.04.36-.08.54-.13-.14-.15-.27-.3-.41-.43-.05-.05-.15-.04-.22-.06-1.64-.27-3.29-.54-4.97-.82z" fill="#6ba550"/><path d="m75.92 41.73c.28 1.61.72 3.22.8 4.84.11 2.58-1.01 4.78-2.68 6.67-1.28 1.45-2.74 2.75-3.95 4.26-.89 1.12-1.5 2.46-2.26 3.73-.25-.09-.35-.32-.32-.76.07-.82.02-1.64.02-2.45.29-.08.54-.19.81-.22.87-.1 1.34-.67 1.45-1.43.12-.78.71-1.2 1.1-1.76.68-.96 1.42-1.87 2.13-2.81.12-.16.18-.37.27-.56-.05-.05-.1-.1-.15-.15-.13.12-.29.22-.39.36-.88 1.38-1.84 2.68-3.23 3.72-.12-.19-.32-.36-.3-.52.07-1-.24-1.82-1.13-2.45.92.07 1.05-.74 1.46-1.2.57-.63 1.12-1.29 1.65-1.95.11-.13.1-.35.05-.58-1.15.8-1.89 1.92-2.77 2.98.01-.87-.47-1.42-1.11-1.88.52-.75 1.02-1.47 1.53-2.18 1.11-1.56 2.94-2.2 4.36-3.37.71-.59 1.36-1.25 2.04-1.89.14-.13.25-.28.38-.42.08.01.16.01.24.02zm-6.52 11.45.18.09c.18-.2.38-.4.54-.61.33-.43.61-.89.95-1.31.88-1.1 1.83-2.14 2.66-3.28.53-.73.89-1.59 1.32-2.39.07-.13.09-.3.07-.44-.02-.1-.13-.2-.22-.26-.03-.02-.19.1-.22.19-.54 1.59-1.59 2.85-2.59 4.15-.86 1.11-1.71 2.22-2.55 3.35-.12.12-.1.33-.14.51z" fill="#c7d13e"/><path d="m27.66 39.79c.57.97 1.18 1.79 1.53 2.71.24.62.23 1.41.11 2.09-.17.94-.53 1.85-.84 2.76-.38 1.1-.38 2.2-.12 3.31.04.16.19.3.28.45.06-.02.12-.05.17-.07-.03-.43-.04-.86-.1-1.29-.12-1 .24-1.9.53-2.82.34-1.06.65-2.12.97-3.18.66.25 1.08.87 1.02 1.67-.04.48-.16.96-.14 1.44.01.34.18.68.28 1.02.09-.01.18-.03.27-.04.05-.81.11-1.61.17-2.6.94.81 1.82 1.44 2.52 2.23.59.66.14 2.35-.65 2.8-.97.55-1.99 1.04-2.98 1.57-.61.33-1.2.7-1.81 1.03-.12.06-.35.13-.4.08-.64-.71-1.54-1.13-1.82-2.23-.41-1.64.04-3.1.56-4.58.54-1.54 1.11-3.05.58-4.73-.13-.49-.08-1.04-.13-1.62z" fill="#292929"/><path d="m29.16 70.73c1.01.67 1.95 1.48 3.03 1.96 1.1.49 2.36.57 3.67.33-.23.72-.4 1.42-.67 2.08-.8 1.95-1.58 3.92-3.14 5.43-.31.3-.7.56-1.09.72-.34.14-.62.03-.62-.47-.01-1.74.03-3.49-.12-5.22-.11-1.22-.49-2.42-.75-3.62-.1-.43-.22-.85-.31-1.21z" fill="#dfcbc0"/><path d="m28.11 33.02c-.25 1.03-.45 2.07-.79 3.07-.09.25-.68.53-.98.47-.9-.17-1.86-.34-2.53-1.04-1.11-1.18-1.66-1.9-.61-3.83.13-.24.29-.46.44-.68.88-1.32 1.84-1.5 3.1-.58.53.38 1.28 1.89 1.37 2.59zm-1.19 1.8c.04-.27.09-.38.07-.49-.09-.61-1.59-1.81-2.21-1.75-.14.01-.26.17-.39.26.11.11.2.25.33.33.43.24.89.42 1.29.7.32.22.55.56.91.95z" fill="#dfcbc0"/><path d="m23.66 36.1c.25.13.35.18.45.23.44.2 1.15.3 1.26.61.24.7.35 1.54.22 2.27-.26 1.54-.67 3.05-1.07 4.56-.38 1.44-.79 2.89-.61 4.39.09.77.33 1.52.49 2.21-.79-.35-1.53-1.37-1.75-2.3-.38-1.63-.02-3.13.44-4.67.62-2.06.77-4.17.58-6.31-.04-.29-.01-.59-.01-.99z" fill="#292929"/><path d="m65.88 49.49c.24-.33.41-.56.58-.78-.04-.05-.08-.11-.12-.16-.17.03-.35.06-.52.1-.55.11-1.09.26-1.64.32-.82.1-1.43-.24-1.6-.83-.17-.58.19-1.19.85-1.61 1.02-.64 2.16-.75 3.32-.79.46-.02.9.49 1 1.06.14.84-.47 2.21-1.21 2.61-.16.1-.39.06-.66.08z" fill="#dfcbc0"/><path d="m38.42 57.64c.69-1.24 2.39-1.51 3.42-.55.38.35.78.7 1.09 1.11.47.62.43 1.44-.01 1.87-.87.86-1.81 1.09-2.48.58-.16-.12-.37-.3-.4-.48-.17-1.03-.82-1.73-1.52-2.41-.05-.02-.07-.08-.1-.12z" fill="#dfcbc0"/><path d="m42.12 56.46c.6-.48 1.14-.76 1.93-.64.65.1 1.26.25 1.58.79.46.77.87 1.6 1.12 2.46.21.7-.78 1.4-1.64 1.27-.95-.14-1.15-.3-1.24-1.26-.09-.92-.73-1.46-1.27-2.08-.14-.16-.29-.33-.48-.54z" fill="#dfcbc0"/><path d="m35.47 60.04c-.02.23.03.5-.07.69-.11.19-.36.31-.66.54.08-1.24.2-2.34 1.14-3.03.36-.27.99-.27 1.48-.24.87.06 1.9 1.24 1.94 2.12.03.72-.37 1.33-1.04 1.57-.6.22-1.36-.03-1.79-.61-.26-.35-.52-.7-.78-1.04-.07-.01-.15-.01-.22 0z" fill="#dfcbc0"/><path d="m51.14 59.04c-.72-.29-1.37-.56-2.02-.82-.03-1.41-.9-3-2.63-2.85.23-.91.45-1.79.71-2.8 2.25 1.68 3.65 3.7 3.94 6.47z" fill="#dfcbc0"/><path d="m65.35 53.23c-.51-.16-1.05-.26-1.52-.49-.94-.46-.78-1.61.04-2.09.96-.56 2.02-.61 3.09-.54.56.04.96.86.76 1.46-.32.96-1.15 1.51-2.37 1.66z" fill="#dfcbc0"/><path d="m43.32 50.5c.1.03.23.06.35.11 1.68.76 1.68.76 1.11 2.49-.1.31-.24.61-.34.92-.35 1.06-.35 1.06-1.67 1.17.3-.42.55-.77.79-1.13.1-.14.23-.28.26-.44.02-.11-.09-.25-.15-.38-.11.06-.26.09-.32.18-.45.72-.9 1.44-1.32 2.17-.36.62-.46.66-1.16.32.82-1.78 1.62-3.57 2.45-5.41z" fill="#be9b65"/><path d="m58.35 57.52c1.13-.11 2.16-.22 3.2-.3.09-.01.28.21.28.32-.01.79-.03 1.58-.1 2.37-.01.14-.23.35-.36.37-.79.08-1.58.13-2.37.15-.16 0-.44-.2-.46-.34-.1-.83-.13-1.65-.19-2.57z" fill="#f0d559"/><path d="m61.59 53.54c-1.08.06-2.15.12-3.32.18 0-.92-.02-1.8.02-2.68.01-.12.29-.31.45-.32.79-.06 1.58-.1 2.36-.09.16 0 .45.2.46.31.05.83.03 1.68.03 2.6z" fill="#f0d559"/><path d="m61.16 47.04c.12.98.25 1.86.32 2.74.01.13-.2.4-.32.4-.85.06-1.69.08-2.54.06-.12 0-.33-.25-.34-.39-.02-.77 0-1.55.05-2.32.01-.13.19-.36.31-.37.82-.05 1.64-.08 2.52-.12z" fill="#f0d559"/><path d="m58.22 57.06c0-.82.01-1.49 0-2.17-.01-.42.1-.63.59-.62.84 0 1.69-.1 2.54-.12.13 0 .38.2.39.33.06.65.08 1.31.08 1.96 0 .1-.17.27-.27.29-1.09.11-2.19.21-3.33.33z" fill="#f0d559"/><path d="m54.54 52.4c.03-.39.07-.94.1-1.5.02-.28.12-.42.43-.39.77.08 1.54.11 2.3.21.13.02.33.26.34.4.03.73.02 1.47-.02 2.2-.01.14-.23.38-.36.38-.83-.02-1.65-.08-2.48-.17-.12-.01-.26-.23-.3-.38-.05-.18-.01-.38-.01-.75z" fill="#f0d559"/><path d="m57.73 47.13v3.13c-.97-.07-1.92-.14-2.96-.21.07-.7.11-1.36.21-2.02.19-1.23.2-1.23 1.43-1.05.44.06.87.1 1.32.15z" fill="#f0d559"/><path d="m56.99 60.39c-.27-.02-.54-.05-.81-.07-1.41-.09-1.02-.02-1.28-1.2-.07-.3-.08-.61-.11-.92-.09-.87.09-1.03.97-.95.53.05 1.07.13 1.6.14.35.01.41.17.42.46.03.64.03 1.28.15 1.9.12.58-.12.68-.6.64-.1 0-.22-.01-.34 0 0-.01 0-.01 0 0z" fill="#f0d559"/><path d="m54.5 54.05c1.02.05 1.88.11 2.75.13.36.01.5.16.5.48.01.75 0 1.5 0 2.32-.99-.06-1.93-.11-2.86-.18-.08-.01-.21-.17-.22-.27-.07-.79-.11-1.58-.17-2.48z" fill="#f0d559"/><path d="m58.32 46.61c.02-.4.05-.75.07-1.1.04-.61.09-1.23.1-1.84.01-.33.13-.46.45-.43h.06c1.57-.02 1.56-.02 1.8 1.56.07.44.15.88.24 1.31.06.32.01.52-.39.51-.72-.02-1.45-.01-2.33-.01z" fill="#f0d559"/><path d="m66.52 56.12c-.68 0-1.15-.29-1.25-.74-.13-.55.2-1.26.68-1.51.54-.28 1.09-.58 1.62-.87.36-.2.62-.1.82.25.41.71.32 1.6-.28 2.16-.46.44-.99.76-1.59.71z" fill="#dfcbc0"/><g fill="#f0d559"><path d="m57.81 43.27v3.31c-.8 0-1.52.02-2.24-.02-.1-.01-.28-.29-.26-.43.08-.73.2-1.45.34-2.16.04-.18.19-.44.33-.46.61-.13 1.24-.17 1.83-.24z"/><path d="m51.51 53.57c.76.1 1.41.17 2.06.29.15.03.37.21.38.33.03.82.02 1.65.02 2.59-.69-.1-1.41-.19-2.12-.32-.13-.03-.31-.26-.31-.4-.05-.81-.03-1.61-.03-2.49z"/><path d="m51.92 50.04c.78.12 1.45.23 2.1.33v3.15c-.78-.2-1.47-.36-2.14-.55-.11-.03-.24-.23-.23-.34.06-.84.17-1.68.27-2.59z"/><path d="m54.42 60.17c-.8-.18-1.49-.33-2.18-.51-.13-.03-.31-.15-.33-.26-.14-.64-.26-1.28-.36-1.93-.05-.32.1-.46.44-.41.63.09 1.26.15 1.89.25.1.02.25.14.27.23.09.84.17 1.68.27 2.63z"/><path d="m64.48 56.63c.05 1 .1 1.93.12 2.87 0 .09-.18.24-.29.27-.6.13-1.21.23-1.85.35 0-.94-.01-1.84.02-2.74 0-.12.21-.31.36-.35.49-.15 1-.25 1.64-.4z"/><path d="m55.2 63.39c-.85-.15-1.57-.26-2.27-.41-.11-.02-.22-.2-.27-.33-.2-.6-.4-1.21-.56-1.82-.08-.31 0-.53.42-.45.58.12 1.18.19 1.76.29.12.02.29.1.32.18.2.8.38 1.6.6 2.54z"/><path d="m61.65 46.31c-.15-.97-.3-1.9-.48-3.02.8.12 1.48.2 2.16.33.12.02.23.24.29.39.11.31.17.63.25.95.12.48.2.78-.52.98-.53.14-1.04.38-1.7.37z"/><path d="m56.22 60.77c.4.06.8.18 1.2.16.55-.03.67.23.64.69-.01.11.03.23.04.34.09.99-.43 1.52-1.44 1.47-.9-.05-.9-.05-1.08-.92-.08-.38-.16-.75-.26-1.13-.15-.59-.08-.67.54-.6.12.01.23.02.35.03.01-.01.01-.03.01-.04z"/><path d="m54.15 49.94c-.32-.04-.57-.05-.81-.09-1.29-.25-1.33-.32-1.03-1.57.02-.09.04-.19.06-.28.29-1.22.51-1.37 1.78-1.12.14.03.23.3.34.46.02.02 0 .08-.01.11-.1.81-.21 1.61-.33 2.49z"/><path d="m62.36 56.63c0-.86 0-1.63 0-2.39 0-.07.02-.16.06-.21.17-.23 1.57-.41 1.79-.23.08.07.17.18.18.28.04.56.08 1.12.07 1.68 0 .14-.17.3-.3.42-.08.08-.2.12-.31.15-.43.08-.86.17-1.49.3z"/><path d="m55.12 43.52c-.17.96-.3 1.77-.48 2.57-.03.15-.28.31-.45.34-.22.04-.46-.03-.69-.08-.69-.15-.81-.4-.53-1.06.18-.42.35-.85.55-1.27.07-.13.21-.29.35-.32.37-.08.75-.11 1.25-.18z"/><path d="m58.68 62.61c-.03-.55-.06-1.11-.09-1.71 1.06-.06 2.07-.11 3.11-.17-.03.35.01.64-.09.87-.1.22-.32.48-.53.54-.76.19-1.54.31-2.4.47z"/></g><path d="m45.77 51.89c.65.1 1.01.32.85.99-.18.76-.32 1.54-.51 2.3-.09.35-.35.59-.73.41-.34-.16-.76-.27-.53-.87.35-.93.62-1.89.92-2.83z" fill="#be9b65"/><path d="m44.02 47.12c.07.51.13.95-.45 1.18-.11.05-.18.41-.13.59.07.31.24.6.42 1.03-.78-.37-1.46-.69-2.15-1.02.07-1.15.46-1.43 2.31-1.78z" fill="#292929"/><path d="m58.53 40.66c.12-.01.27-.04.42-.04.95-.05 1.02.01 1.23.91.08.36.17.71.28 1.16-.65 0-1.26 0-1.93 0 0-.63 0-1.3 0-2.03z" fill="#f0d559"/><path d="m65.15 59.61c0-1.08 0-2.07 0-3.07.49.11.99.2 1.48.36.08.02.14.43.06.51-.24.24-.55.4-.96.67.24.15.45.29.77.5.18.55.17.54-.56.77-.22.06-.43.14-.79.26z" fill="#f0d559"/><path d="m55.85 43.01c.23-.7.33-1.34.65-1.83.18-.27.73-.3 1.13-.38.04-.01.24.42.25.65.06 1.39.04 1.39-1.33 1.51-.18.01-.37.02-.7.05z" fill="#f0d559"/><path d="m63.1 42.94c-.61-.05-1.2-.09-1.79-.15-.1-.01-.23-.14-.25-.24-.14-.52-.25-1.04-.38-1.57 1.29-.18 2.19.54 2.42 1.96z" fill="#f0d559"/><path d="m46.06 56.15c1.55-.52 2.18.45 2.38 1.55.03.15-.21.49-.28.48-.38-.07-.86-.11-1.08-.37-.41-.47-.67-1.07-1.02-1.66z" fill="#dfcbc0"/><path d="m56.9 40.23c.23-.5.37-1.08.72-1.46.23-.24.77-.24 1.17-.26.13-.01.31.25.4.41.18.33.33.68.53 1.11-.36 0-.62-.01-.88 0-.35.02-.47-.13-.48-.48-.01-.55-.03-.55-.59-.83-.01.23-.04.42-.02.61.08.85.01.93-.85.9z" fill="#f0d559"/><path d="m47.11 50.78c-.11-.45-.22-.84-.29-1.23-.02-.09.05-.23.13-.29.18-.15.36-.3.57-.38.35-.13.85-.4 1.02.05.1.29-.18.79-.42 1.1-.25.3-.65.48-1.01.75z" fill="#be9b65"/><path d="m67.71 57.5c-.06-.18-.17-.36-.18-.55-.01-.14.07-.32.17-.41.34-.33.69-.65 1.06-.95.09-.08.36-.11.37-.08.11.24.3.53.25.76-.11.53-.87 1.01-1.43 1-.08.07-.16.15-.24.23z" fill="#dfcbc0"/><path d="m59.76 38.62c1.18.19 1.7 1 2.23 1.87-1.28-.02-1.69-.37-2.23-1.87z" fill="#f0d559"/><path d="m54.16 43.04c.23-1.01.69-1.6 1.67-1.88-.21.64-.33 1.23-.62 1.72-.11.18-.63.11-1.05.16z" fill="#f0d559"/><path d="m46.04 51.14c-.36-.26-.72-.47-1.01-.75-.07-.07 0-.47.1-.51.29-.14.71-.34.93-.23.48.24.46.99-.02 1.49z" fill="#be9b65"/><path d="m63.75 49.97c-.54.04-1.08.08-1.68.13-.01-1.12-.34-2.14-.14-3.18.24 2.32.24 2.32 1.81 2.89 0 .04 0 .1.01.16z" fill="#f0d559"/><path d="m63.11 53.12c-.57.39-.83.31-.87-.27-.04-.7-.01-1.41-.01-2.17.16-.02.38-.05.76-.1-.55.95-.68 1.8.12 2.54z" fill="#f0d559"/><path d="m64.55 60.35c-.73.28-1.47.56-2.2.84-.05-.05-.09-.1-.14-.15.15-.16.27-.41.45-.45.63-.14 1.27-.21 1.91-.3-.01.02-.02.04-.02.06z" fill="#f0d559"/><path d="m66.9 60.55c-.53-.12-.97-.22-1.58-.36.56-.2.97-.35 1.46-.52.05.32.08.56.12.88z" fill="#f0d559"/><path d="m44.09 48.59c.27.14.54.27.88.44-.21.25-.34.4-.53.62-.19-.33-.34-.6-.49-.87.04-.05.09-.12.14-.19z" fill="#be9b65"/><path d="m55.44 40.53c.3-.35.61-.69.91-1.04-.09.53-.15 1.08-.91 1.04z" fill="#f0d559"/><path d="m41.71 37.69c.25.15.51.28.74.44 1.4.99 3.88-.19 4.37-1.62.32-.93.22-1.81-.39-2.64-.48-.65-.96-1.32-1.29-2.05-.35-.76-.52-1.61-.74-2.43-.03-.13.1-.3.16-.45.14.11.38.21.39.33.22 1.78 1.3 3.11 2.27 4.51.88 1.27.42 3.32-.91 4.35-.77.59-1.63.88-2.57.98-.79.08-1.48-.25-2.06-.76-.13-.12-.13-.39-.19-.59.08-.03.15-.05.22-.07z"/><path d="m37.69 40.55c-.24.02-.42.03-.61.04.04-.21.05-.43.14-.61.07-.15.22-.28.37-.36.19-.1.4-.15.61-.22-.02.21-.04.43-.08.8.52.76 1.2 1.6 2.27 2 1.01.37 2.04.67 3.09 1.01-.03.42-.28.53-.67.45-2.1-.42-4.04-1.13-5.12-3.11z"/><path d="m47.91 24.9c-.16.34-.23.48-.3.63-.06-.01-.13 0-.16-.03-.31-.35-.65-.58-1.16-.5-.1.01-.24-.23-.36-.35.13-.09.29-.28.39-.25.53.13 1.03.32 1.59.5z"/><path d="m40.67 23.74c.3.18.5.29.68.42.05.04.09.18.06.24s-.18.13-.23.1c-.58-.36-.76.19-1.08.45-.14.11-.32.17-.48.25.04-.18.03-.4.14-.53.26-.33.58-.61.91-.93z"/><path d="m43.18 40.29c-.33.21-.57.39-.83.52-.03.02-.27-.24-.26-.27.17-.25.38-.48.58-.72.1.1.2.19.51.47z"/><path d="m44.74 40.38c-.27.28-.47.5-.68.71-.08-.09-.23-.23-.21-.28.13-.28.3-.53.46-.79.11.1.23.19.43.36z"/><path d="m41.41 39.34c-.02.16.03.38-.06.48-.16.19-.4.3-.61.45-.02-.17-.12-.39-.05-.49.14-.19.37-.31.56-.47.05.01.1.02.16.03z"/><path d="m40.71 39c-.32.28-.53.49-.77.66-.02.02-.19-.17-.29-.26.19-.2.37-.43.58-.6.05-.04.24.09.48.2z"/><path d="m39.42 38.03c-.3.23-.51.39-.72.54-.08-.11-.25-.26-.22-.31.12-.2.27-.39.46-.53.05-.02.25.16.48.3z"/><path d="m45.75 41.07c-.07-.13-.22-.29-.18-.4.07-.21.23-.4.35-.59.08.11.23.23.22.34-.02.22-.12.43-.19.65-.07-.01-.13 0-.2 0z"/><path d="m47.53 40.71c-.08-.11-.24-.25-.21-.32.08-.21.24-.39.36-.58.08.08.24.18.23.25-.03.22-.13.43-.2.64-.06.01-.12.01-.18.01z"/><path d="m37.78 37.65c-.23.2-.39.33-.55.47-.08-.1-.25-.26-.22-.3.1-.18.26-.34.4-.5.1.09.2.18.37.33z"/><path d="m46.14 64.62c1.68.28 3.33.55 4.98.82.08.01.17.01.22.06.15.13.28.29.41.43-.18.05-.38.17-.54.13-.74-.16-1.46-.41-2.19-.55-.6-.11-1.21-.11-1.82-.15-.39-.03-.78-.02-1.15-.08-.15-.03-.27-.21-.41-.32.15-.1.3-.2.5-.34z"/><path d="m69.4 53.18c.04-.18.03-.4.13-.53.84-1.13 1.69-2.24 2.55-3.35 1-1.3 2.06-2.56 2.59-4.15.03-.08.19-.2.22-.19.1.06.21.16.22.26.02.14 0 .32-.07.44-.42.81-.79 1.66-1.32 2.39-.82 1.14-1.77 2.19-2.66 3.28-.34.42-.63.88-.95 1.31-.16.22-.36.41-.54.61-.05-.01-.11-.04-.17-.07z"/><path d="m26.92 34.82c-.37-.39-.6-.73-.91-.95-.4-.28-.87-.46-1.29-.7-.13-.07-.22-.22-.33-.33.13-.09.25-.25.39-.26.62-.06 2.12 1.14 2.21 1.75.02.1-.03.22-.07.49z"/><ellipse cx="40.41" cy="30.35" rx=".65" ry="1.26"/><ellipse cx="46.08" cy="30.35" rx=".65" ry="1.26"/></svg>