<svg enable-background="new 0 0 99.21 127.56" viewBox="0 0 99.21 127.56" xmlns="http://www.w3.org/2000/svg"><path d="m12.1 79.81s9.76-3.51 20.27-2.2c10.5 1.31 15.77 1.69 19.92 3.14s8.96 2.77 8.96 2.77 9.11 1.09 8.71 1.75 1.41 2.33 1.41 2.33 1.04 1.61 5.85 2.92 11.59 3.94 9.63 6.78c-1.97 2.84-12.03 6.34-12.25 10.5s-4.81 9.84-11.59 10.5-14.44 6.13-25.16 5.47-16.63-2.19-18.16-1.97-7.88-.88-7.88-.88z" fill="#e1cbb6"/><path d="m68.91 42.83s1.42-4.59 1.42-5.58-.98-2.63-.33-4.48c.66-1.86 1.75-3.17 1.42-5.47s-1.31-9.08-1.86-9.84c-.55-.77-3.94-3.17-6.02-3.5s-4.76.18-6.97.53-4.83 2.84-4.83 2.84-2.71 15.34-3.33 16.49.37 8.26.37 8.26l1.77.68s6.66.2 7.21.03 5.14-.72 5.79-.39 5.36.43 5.36.43z" fill="#292929"/><path d="m41.62 121c-2.18-1.39-4.82-2.25-6.7-4.12-1.37-1.37-1.31-2.49-1.91-4.22-.47-1.38-1.1-1.43-2.29-2.25-1.84-1.28-3.03-3.13-4.55-4.72-.8-.84-1.94-1.59-3.11-2.34-1.5-.95-3.28-1.01-4.85-1.82-5.34-2.75-1.36-6.52 2.98-7.04 2.15-.26 4.38.03 6.51.12 1.72.07 3.85-.14 5.45.52 1.46.61.98 1.38 1.67 2.48.34.54.96.91 1.45 1.41 1.29 1.34 1.35 3.07 2.2 4.68.67 1.28 1.91 2.36 2.92 3.36.32.31 1.58.99 1.68 1.19.5.98-.35.96-.67 1.66-1.04 2.38 5.09 10.17-.78 11.09z" fill="#c6ac94"/><path d="m66.12 107.87c-2.24-1.18-5.37-.98-7.19-2.77-1.14-1.12-1.38-2.63-2.76-3.55-1.51-1.01-3.42-1.32-5.16-1.71-2.18-.49-6.32-1.4-6.93-4.04-.49-2.15 1.5-2.7 3.14-3.32 1.94-.73 3.08-1.91 5.12-1.4 1.92.47 2.79 1.32 4.29 2.63 1.34 1.17 2.97 1.95 4.37 3.03 2.05 1.59 2.34 3.83 3.26 6.09.59 1.44 1.71 2.68 1.86 5.04z" fill="#c6ac94"/><path d="m43.9 88.55c.08 1.19.18 2.39.24 3.58.04.76 0 1.52.08 2.28.05.43.18.89.42 1.26.46.71 1.03 1.34 1.51 2.04.35.52.56 1.11 0 1.6-.53.45-1.05.18-1.53-.19-.17-.13-.36-.25-.56-.39-.05.09-.11.15-.12.21-.15 2.28-.27 4.55-.45 6.83-.05.64.22 1.03.7 1.35.23.15.47.27.72.39 1.23.56 1.42 1.66.37 2.49-.44.35-1 .55-1.59.86.04.08.13.26.24.44.87 1.47 1.7 2.97 2.63 4.4.41.64.96 1.2 1.52 1.72.93.87 1.1 1.28.73 2.32-.36 1.03-1.09 1.56-2.12 1.64-.53.04-1.1.07-1.57.28-2 .9-3.67.27-4.71-2.03-.8-1.76-1.92-3.22-3.82-3.98-1-.4-1.27-1.34-1.29-2.33-.02-1.32.35-2.53 1.19-3.54.41-.49.38-.79-.05-1.36-.85-1.09-1.89-1.87-3.02-2.61-1.27-.82-1.43-2.2-.41-3.28.51-.55 1.15-.98 1.69-1.5 1.33-1.27 2.61-2.59 2.93-4.51.11-.67.13-1.46-.11-2.09-.53-1.43-1.25-2.8-1.87-4.2-.09-.2-.02-.47-.03-.79-.46-.3-.86-.18-1.23.45-1 1.69-2.37 2.94-4.27 3.55-.25.08-.47.28-.72.33-.15.04-.37-.05-.5-.16-.05-.04.01-.35.11-.43 1.59-1.29 1.27-4.57.22-5.88-.46.4-.9.84-1.4 1.2-.2.15-.53.12-.8.17-.01-.23-.03-.46-.02-.69.02-.56.13-1.14.04-1.69-.05-.32-.41-.82-.65-.84-1.43-.1-2.02-1.16-2.58-2.19-.28-.5-.31-1.13-.51-1.68-.1-.28-.27-.61-.51-.75-1.15-.66-2.38-1.18-3.49-1.89-.85-.54-1.71-.39-2.5-.2-1.28.3-2.48.86-3.74 1.26-.28.09-.63-.01-.96-.17 1.73-1.27 3.8-1.56 5.72-2.12-.19-.75-.4-1.46-.54-2.2-.15-.83-.04-1.62.44-2.33.46-.68.95-1.34 1.39-2.04.1-.15.12-.42.06-.6-.77-2.36-1.06-4.8-.99-7.22.05-1.95.44-3.89.84-5.8.82-3.91 2.71-7.31 5.06-10.46.06-.08.1-.16.17-.27-1.47-.97-1.23-2.5-1.39-3.9-.02-.22.1-.46.03-.65-.55-1.68.1-3.17.66-4.64.54-1.42.67-2.89.82-4.38.26-2.68-.25-5.31-.51-7.95-.11-1.15-.47-2.28-.49-3.42-.04-2.09.31-4.12 1.03-6.11 1.31-3.62 3.97-5.95 7.14-7.76 2.05-1.17 4.29-1.33 6.59-.32.37.16.97.01 1.37-.19 2.97-1.48 5.83-1.13 8.61.62 1.72 1.08 2.7 2.76 3.4 4.58.48 1.26.76 2.58 1.13 3.87.29-.33.64-.75 1.01-1.14 1.06-1.12 2.43-1.57 3.94-1.71 1.02-.1 2.04-.35 3.06-.31 1.73.07 3.5.06 5.12.92.59.31 1.21.58 1.8.89 1.75.9 2.7 2.41 3.07 4.26.22 1.13.28 2.29.44 3.43.11.85.18 1.72.41 2.55.59 2.11.6 4.1-.6 6.01-.93 1.47-1.2 3.06-.42 4.78.49 1.08.12 2.11-.29 3.13-.23.58-.29 1.22-.47 1.82-.07.23-.25.43-.38.64-.17-.21-.5-.46-.48-.64.1-.69.2-1.43.51-2.03.52-.99.57-1.98.2-2.99-.65-1.77-.34-3.4.56-4.94.95-1.62 1.21-3.28.66-5.15-.39-1.32-.61-2.65-.56-4.07.06-1.63-.54-3.2-1.35-4.65-.15-.26-.45-.46-.71-.65-2.04-1.55-4.33-2.44-6.87-2.48-1.58-.03-3.17.05-4.72.29-1.18.19-2.04 1.05-2.88 1.9-1.35 1.36-1.19 3.01-1.08 4.72.16 2.34.19 4.69-.58 6.93-.31.89-.49 1.76-.47 2.71.01.45-.14 1.06-.46 1.33-1.31 1.11-1.49 2.64-1.57 4.18-.09 1.84-.03 3.68.66 5.53 1.31-1.53 2.67-2.97 4.82-3.36-.02-.15-.01-.34-.06-.52-.26-.85-.28-1.68 0-2.52.1-.31.09-.69.02-1.02-.35-1.53-.02-2.91.63-4.27.48-1 .83-2.01.65-3.24-.13-.94.11-2.02.49-2.91.47-1.1 1.18-2.12 1.91-3.07.98-1.27 2.6-1.42 3.99-1.94.26-.1.51-.24.76-.36.6-.3 1.2-.61 1.81-.91.08-.04.24.01.28-.05.72-.91.97-.11 1.38.36 2.6 2.98 2.81 6.52 2.48 10.12-.16 1.73-1.23 3.09-2.39 4.36-1.13 1.24-2.64 1.78-4.08 2.49-.61.3-1.08 1.79-.73 2.36.09.15.3.24.48.32 1.12.51 1.95 1.32 2.64 2.33.32.47.82.87 1.32 1.18 2.35 1.51 4.87 2.63 7.52 3.46 2.32.73 4.68.65 7.05.62.24 0 .49-.19.71-.34.8-.54 1.61-.91 2.61-.41.24.12.58.05.87.05 1.48-.02 2.95-.06 4.43-.07.31 0 .66.05.92.21.57.33 1.3.66 1.17 1.47-.12.78-.79 1.18-1.51 1.3-.5.09-.68.27-.79.74-.07.33-.36.61-.54.91-.08.14-.21.28-.21.43.05 1.21-.65 1.82-1.7 2.04-.99.21-1.97.88-3.05.2-.96-.6-1.9-1.22-2.86-1.82-.19-.12-.44-.23-.66-.23-2.46.01-4.92.19-7.36.01-1.67-.12-3.32-.73-4.98-1.12-.23-.05-.46-.12-.76-.2.02.92.1 1.76.05 2.58-.1 1.72-.37 3.42-.39 5.14-.02 2.21.15 4.43.22 6.65.09 2.73.11 5.45.24 8.18.05.97.35 1.93.47 2.9.05.42.1 1.01-.13 1.26-.2.21-.8.02-1.24-.08-.8.57-.9 1.34-.66 2.41.49 2.26.74 4.57 1.1 6.85.01.07.04.14.14.04.89.32 1.77.63 2.66.96.11.04.23.12.3.22.97 1.35 2.54 1.83 3.85 2.68.46.3.9.58.54 1.32-.18-.1-.36-.19-.53-.29-.92-.53-1.85-1.04-2.75-1.59-.34-.21-.71-.45-.92-.77-.74-1.12-1.91-1.75-3.09-1.52.02.75.01 1.5.06 2.26.2 3 .13 5.98-.25 8.95-.39 3.09-.08 3.77 2.39 5.91.63.54 1.27.9 2.11.95.65.04 1.25.26 1.42 1.05.23 1.02.09 1.41-.65 1.97-.3.23-.53.56-.73.88-.79 1.33-1.9 1.75-3.38 1.26-.25-.08-.53-.14-.78-.1-1.82.28-3.16-.57-4.26-1.9-.58-.7-1.13-1.39-2.04-1.65-1.5-.44-2.42-2.09-1.94-3.88.42-1.58.92-3.17 1.08-4.79.22-2.21.15-4.46.19-6.7.01-.65-.03-1.31-.04-1.97-.06-.01-.13-.02-.19-.03-.54.84-.98 1.77-1.65 2.51-1.14 1.26-.63 2.51-.08 3.77.21.49.54.95.89 1.36.52.6.59 1.25.39 1.93-.19.66-.73.96-1.4.97-1.66.03-3.29-.17-4.43-1.59-.39-.48-.6-1.14-.77-1.74-.24-.84-.59-1.54-1.33-2.07-1.06-.76-1.08-2.29-.1-3.11 2.06-1.73 3.7-3.78 4.78-6.27.05-.11.07-.23.1-.34-1.11-.89-2.43-1.2-3.73-1.43-1.79-.32-3.6-.49-5.41-.71-.54-.07-.84.14-.97.72-.32 1.49-.64 2.99-1.09 4.45-.24.78-.71 1.48-1.11 2.19-.1.18-.37.26-.57.39-.15-.63.01-1.35-.53-1.85-.09.03-.18.07-.27.1.32.56.6 1.14.87 1.72zm2.35-64.31c.01.11.03.22.04.33 1 1.63 1.34 3.36.78 5.18.37.18.72.26.94.46.5.46.94.29 1.39.01.85-.51 1.43-1.24 1.79-2.15.64-1.66.87-3.4.78-5.19-.09-1.76-.03-3.46-1.11-5.13-.88-1.35-1.8-2.31-3.33-2.71-1.45-.38-2.83-.07-4.22.25-.17.04-.38.08-.53.01-2.33-1.07-4.48-.69-6.46.7-2.55 1.8-4.02 4.37-4.93 7.31-.33 1.07-.45 2.14.15 3.19.09.15.12.33.18.49.84 2 2.07 3.6 4.27 4.26.83.25 1.51.19 2.16-.41.93-.85 2.12-1.16 3.34-1.34.2-.03.49.08.65.22 1 .9 2.07.7 3.17.31 1-.35 1.25-1.17 1.21-2.11-.09-1.79-.78-3.34-1.97-4.7-.21-.24-.32-.55-.47-.83.08-.06.15-.12.23-.17.21.14.46.25.63.43.43.52.87 1.06 1.31 1.59zm20.88 49.64c-.1-.99-.26-2.13-.3-3.27-.13-3.33-.23-6.66-.31-9.98-.05-2.04-.22-4.11-.01-6.12.33-3.14.48-6.19-.7-9.25-.49-1.27-.51-2.71-.88-4.04-.4-1.44-1.33-2.48-2.69-3.05-.72 1.22-.12 2.39.01 3.56.14 1.22.33 2.44.34 3.66.01.84-.84 1.15-1.45.54-.7-.7-1.39-1.45-1.89-2.28-.78-1.29-1.32-2.73-2.13-4-.71-1.1-.98-2.11-.65-3.39.24-.95.39-2.04-.49-2.93-.15-.15-.09-.52-.07-.79.01-.1.17-.23.29-.27.08-.03.26.05.31.13.41.7.8 1.41 1.14 2.02-.14.3-.31.51-.34.75-.11.7-.24 1.41-.21 2.12.02.55.23 1.11.42 1.64.1.29.36.53.52.81.94 1.71 1.57 3.6 3.02 5.02.23.22.5.4.91.73-.02-.69.03-1.13-.04-1.56-.4-2.42-.91-4.8-.66-7.28.15-1.49.24-1.93 1.58-2.53.31-.14.62-.3.93-.42 3.12-1.25 5.52-4.89 4.87-8.74-.17-1-.36-1.99-.56-2.98-.23-1.1-.65-2.11-1.4-3-.51-.61-1.09-.68-1.71-.45-.4.14-.71.49-1.09.7-.33.19-.69.36-1.05.49-.98.34-2.13.42-2.92 1.01-1.64 1.22-2.58 3-2.94 5.06-.05.26-.06.56.02.81.38 1.25.03 2.38-.48 3.49-.47 1.02-1.03 2.05-.85 3.22.27 1.87.05 3.67-.43 5.46-.03.11-.03.26.02.36.66 1.36.79 2.82 1.04 4.28.22 1.3.05 2.51-.31 3.7-.51 1.66-1.73 2.57-3.47 2.82.26 1.04 1.06 1.45 2.12 1.87-.4.16-.7.38-.79.31-.6-.43-1.16-.93-1.78-1.45-.28.92-.64 1.85-.84 2.82-.39 1.82-.7 3.66-1.03 5.49-.23 1.27.16 2.41.8 3.46.3-.31.56-.58.83-.86.09.06.19.13.28.19-.13.34-.21.71-.39 1.02-.27.46-.36.86 0 1.36.35.48.68 1.01.86 1.56.17.52.45.7.92.76 1.09.15 1.99.6 2.76 1.45 1.09 1.2 1.16 1.66.08 2.77-.17.17-.43.25-.59.42-.15.15-.33.38-.33.57.01.74.12 1.47.12 2.21 0 1.38-.99 2.17-1.91 2.35-.64.13-.66.09-.83.78 1.61-.58 1.93-.51 2.28.47 1.18-.49 1.39-.8 1.73-1.97.13-.44.4-.97.76-1.17 1.53-.83 3.13-1.54 4.71-2.3.08-.04.2-.01.29-.04 2.05-.56 3.23 1.03 4.56 1.88zm-40.48 2.4.21-.09c-.07-.58-.12-1.16-.21-1.74-.2-1.23-.86-2.17-2.27-1.96-.44.06-.76-.11-.89-.58-.09-.33-.27-.65-.32-.98-.49-3.11-.94-6.15.27-9.27 1.22-3.14 2.49-6.2 4.43-8.94.53-.75 1.24-1.38 1.89-2.11.69.9-.11 1.11-.36 1.52-.31.5-.87.96-.93 1.49-.18 1.5-.16 3.03-.22 4.55-.03.75 0 1.5-.1 2.24-.08.59-.33 1.16-.46 1.74-.17.76.28 1.23 1 .91 1-.43 2.02-.93 2.83-1.62.97-.83 1.74-1.9 2.57-2.88 3.61-4.26 6.19-9.07 7.67-14.49.55-2.01.6-4-.06-6.01-.49-.04-1.07-.27-1.44-.09-.72.36-1.3.29-1.91-.22-.67.8-1.45.34-2.23.2-.11.34-.21.64-.29.94-.25.95-.72 1.64-1.81 1.72-.41.03-.81.18-1.21.29-2.95.84-5.08 2.82-6.92 5.12-1.18 1.48-2.2 3.09-3.25 4.67-2.26 3.41-3.27 7.28-3.75 11.3-.18 1.5.08 3.07.2 4.6.11 1.49.25 2.99 1.08 4.33.08.13-.04.45-.16.62-.43.58-.93 1.11-1.35 1.7-.59.82-.69 1.75-.48 2.74.27 1.25.27 1.25 1.6 2.15-.26-.87-.51-1.72.07-2.67.54 1.54.24 3.39 1.97 4.17-.03-1.15-.05-2.21-.07-3.27.21.15.28.31.32.49.2.85.37 1.72.6 2.56.11.42.39.69.89.52.12-.04.27.03.4.05-.05.06-.1.11-.15.17.17.21.3.53.53.62.52.23 1.59-.26 1.78-.84.26-.78-.72-.68-.82-1.06-.07.21-.16.47-.26.74-.23-.21-.61-.39-.66-.64-.34-1.45-.32-2.89.37-4.23.2-.39.41-.51.72-.02.34.53.78 1.04 1.18 1.56zm-1.84-10.47c-.23 1.09-.42 2.02-.63 2.93-.07.31-.34.61-.31.9.07.69.26 1.37.44 2.04.02.06.31.09.47.08 1.21-.07 2.23.6 2.45 1.79.2 1.1.22 2.24.32 3.36.01.13.04.29.13.38 2.63 2.84 5.26 5.68 7.9 8.52.43.46.87.92 1.32 1.39 1.13-1.07 2.08-2.22 3.72-2.29 1.62-.06 2.99.33 3.72 2.11.57-.93.92-1.81.83-2.76-.21-2.11-.56-4.2-1.74-6.06-.09-.14-.01-.39 0-.59.17.06.42.08.5.2.34.54.7 1.09.94 1.68.31.79.52 1.62.83 2.64.15-.57.29-.94.34-1.31.2-1.46.36-2.92.55-4.38.32-2.53.33-5.06-.25-7.57-.18-.78-.54-1.53-.83-2.35-3.2 2.36-6.7 3.09-10.38 2.9-3.68-.17-7.29-.78-10.32-3.61zm6.84-29.79c.47.91.24 1.73-.18 2.55-.37.72-.71 1.45-1.12 2.3 1.17-.4 2.17-.8 3.19-1.09 1.48-.42 2.02-1.28 1.64-2.99-1.06.38-1.18-.51-1.47-1.17-1.3.17-1.6.02-1.76-.84-.03-.17-.03-.34-.06-.51-.08-.47-.21-.8-.84-.79-.8.01-1.2-.48-1.21-1.29 0-.36.06-.72.09-1.09-1.01-.22-.99-.22-1.2-1.26-.03-.16-.3-.37-.48-.4-1.6-.32-1.94-.64-2.31-2.26-.37-1.63.79-3.05 2.45-2.92.58.05 1.16.31 1.85.51.16-.61.29-1.3.51-1.96.89-2.68 2.22-5.08 4.42-6.9 1.52-1.26 3.21-2.11 5.29-1.9.31.03.62 0 .97 0-.25-1.54-.94-2.78-1.85-3.87-.67-.8-1.44-1.68-2.36-2.09-1.32-.58-2.79-.46-4.19.03-1.89.66-3.4 1.85-4.83 3.19-2.35 2.2-3.52 5.02-3.89 8.15-.19 1.61.04 3.3.18 4.95.16 1.82.48 3.62.64 5.44.21 2.52.06 5.02-.68 7.44-.4 1.3-1.04 2.53-.69 3.97.03.11-.02.24-.02.37.03 1.15.04 2.3.1 3.44.01.24.23.46.35.7.08 0 .17 0 .25-.01.45-3.31 1.65-6.25 3.7-8.8.11.05.23.1.34.14-1.23 2.76-3.09 5.28-3.36 8.5 1.09-1.09 2.15-2.05 3.09-3.13.46-.53 1.02-.93 1.36-1.66.69-1.57 1.83-2.93 2.08-4.75zm9.24 24.04c.05.05.09.1.14.15-1.97 4.02-4.86 6.99-9.59 7.98 1.56.09 2.92.89 4.56.07 1.76-.88 3.15-1.96 4.09-3.66.18-.33.42-.63.63-.95.05.04.11.08.16.12-.36 2.15-1.9 3.46-3.43 4.79 2.36-.33 4.67-.66 6.69-2.03.96-.65 1.57-1.48 1.65-2.61.17-2.57.36-5.15.38-7.73.03-3.17-.1-6.35-.19-9.53-.04-1.38-.42-2.69-.87-4-.23 1.98-.48 3.9-.66 5.84-.18 1.96-.65 3.83-1.41 5.63.28-2.26.66-4.5.95-6.75.3-2.28.57-4.57-.11-6.86-.18-.62-.44-1.16-1.16-1.61.08.62.18 1.07.2 1.53.09 2.02-.37 3.96-1.02 5.83-1.3 3.73-3.05 7.25-5.5 10.33-1.68 2.12-3.21 4.4-5.38 6.09-1.18.92-2.39 1.82-3.62 2.68-.37.26-.86.42-1.42-.02.86-.47 1.64-.9 2.54-1.4-1.4-.34-1.81-.71-1.99-1.61-.51.99-1.02 1.99-1.51 2.94 1.66 1.04 3.09 2.3 4.98 2.44.29-.19.59-.31.91-.36.38-.06.79-.01 1.16-.1 2.57-.57 4.55-2.07 6.24-3.97.93-1.02 1.73-2.15 2.58-3.23zm19.1 41.49c.01 1.35.52 2.2 1.46 2.5.95.31 1.62.88 2.22 1.66.93 1.22 2.06 2.08 3.71 1.92.38-.04.79.05 1.16.16 1.21.37 1.71.2 2.42-.85.3-.44.6-.88.98-1.25.31-.3.72-.59.42-1.02-.2-.28-.67-.48-1.03-.5-.79-.04-1.43-.29-1.98-.87-.97-1.03-1.98-2.02-2.96-3.05-.12-.13-.24-.34-.23-.51.14-2.05.38-4.1.45-6.15.08-2.22.11-4.46-.04-6.68-.17-2.53-.54-5.05-.89-7.56-.3-2.21-.93-4.33-1.94-6.34-.28-.55-.66-.55-1.01-.4-1.53.63-3.04 1.29-4.53 2.02-.83.4-.94.98-.4 1.74 1.07 1.52 1.82 3.19 2.29 4.97.7 2.6 1.09 5.25 1.24 7.94.2 3.62.08 7.18-.98 10.65-.19.6-.29 1.26-.36 1.62zm-23.53-11.19c.37.98.55 1.8.97 2.47.69 1.09 1.05 2.21 1.26 3.49.4 2.36.42 4.72.28 7.06-.12 1.91-.57 3.8-.89 5.7-.01.09-.08.19-.15.23-1.08.67-1.55 1.77-1.75 2.91-.27 1.62.07 2.38 1.4 2.96.73.31 1.37.98 1.88 1.62.8 1.01 1.45 2.13 2.16 3.2.59.9 1.65 1.24 2.64.93.74-.23 1.51-.41 2.28-.5.86-.1 1.23-.38 1.55-1.29.29-.79-.29-1.09-.74-1.51-.5-.47-1.05-.93-1.42-1.49-.98-1.52-1.88-3.09-2.79-4.66-.24-.42-.52-.88-.56-1.34-.09-1.05-.11-2.12-.04-3.17.21-2.94.71-5.85.47-8.82-.02-.29-.1-.65-.29-.86-1.86-2.14-3.75-4.27-5.63-6.39-.13-.15-.32-.27-.63-.54zm15.87-20.08c.89-.92 1.78-.66 2.63-.18.56.32.87.02 1.18-.34.34-.4.09-.73-.16-1.06-.57-.73-1.3-1.22-2.2-1.44-.65-.16-1.3-.3-1.94-.51-.44-.14-.77-.38-.4-.93.09-.14.05-.45-.04-.62-1.65-3.02-3-6.15-3.74-9.51-.18-.8-.36-1.6-.54-2.4-.08.01-.16.02-.24.02.02.78.07 1.56.05 2.33-.06 2.48-.16 4.97-.2 7.45-.01.46.14.95.33 1.38.6 1.35 1.27 2.67 1.88 4.02.07.16.04.47-.07.6-.82.96-.84 2.06-.56 3.22.73.07 1.09.45 1.19 1.34.07.64.1 1.28.18 1.92.02.16.18.3.29.46.8-.81.72-2.15.07-3.13-.3-.45-.29-.71.28-.86.72 1.01 1.09 2.08.89 3.33-.05.32.19.69.3 1.04.28-.21.56-.41.82-.63.08-.07.14-.23.12-.34-.12-1.06.37-2.16-.31-3.18-.07-.11.05-.34.08-.51.15.06.39.09.43.19.24.58.48 1.16.63 1.76.13.52.14 1.07.21 1.63.84-.25 1.27-.7 1.23-1.47-.05-.91-.12-1.81-.23-2.72-.06-.52-.37-.76-.93-.74-.4.04-.82-.07-1.23-.12zm-22.95-39.84c.28-.09.47-.19.68-.22.22-.04.53-.11.66 0 .14.12.16.44.13.65-.04.29-.2.55-.25.84-.18.97.1 1.24 1.01.97.46-.14.71-.03.79.46.08.51.19 1.02.29 1.52.08.39.31.45.66.31.91-.37.89-.35 1.25.63.07.19.45.47.5.44.76-.54.95-.04 1.19.57.34.88.96 1.01 1.66.47.16-.12.55-.15.72-.04.53.35 1 .55 1.49-.01.06-.07.27 0 .41 0 .97.03 1.93.11 2.89.08.34-.01.7-.23.98-.44.15-.12.26-.46.2-.65-.17-.61.06-.77.61-.73.43.03.7-.06.42-.58-.18-.34-.08-.57.33-.61.16-.01.31-.06.59-.12-.19-.4-.37-.71-.49-1.04-.08-.22-.08-.46-.12-.69.23-.01.45-.04.68-.01.17.02.33.12.49.16.5.11.87 0 .8-.59-.04-.34-.1-.85-.32-.96-.44-.23-1.1-.47-1.49-.31-1.58.65-3.09.94-4.62-.16-.07-.05-.19-.08-.27-.08-1.01.11-1.96.37-2.78 1.1.2.12.35.21.62.37-.55.26-1 .47-1.46.69.04.1.08.2.12.3.42-.15.84-.31 1.27-.44.23-.07.47-.1.7-.15-.07.24-.09.51-.22.7-.26.38-.61.68-.85 1.07-.1.16.03.45.05.69.21-.02.46.02.61-.08.3-.2.54-.5.83-.74.13-.11.3-.17.44-.25.09.16.23.31.25.48.03.22-.04.46-.09.88.79-.94 1.04-.89 1.97.32-.3.04-.53.09-.77.1-.16.01-.38-.11-.48-.04-.66.51-1.17.26-1.6-.36-.57.23-1.18.7-1.64.07-.3-.42-.3-1.05-.45-1.66-.2-.14-.55-.39-.91-.64-.24-.17-.45-.41-.71-.49-1.98-.6-3.58-1.68-4.52-3.6-.1-.21-.23-.4-.45-.77-.47 1.04-1.95 1.12-1.8 2.59zm36.51 11.1c-.09.05-.19.09-.28.14.44 1.52.94 3.02 1.31 4.55.23.94.71 1.36 1.63 1.67 2.21.74 4.43 1.24 6.74 1.22 1.4-.02 2.82.02 4.19-.17 1.1-.15 1.97-.11 2.79.8.52.57 1.5.4 1.87-.28.25-.46.21-1.08-.32-1.53-.13-.11-.16-.35-.32-.73.41.14.61.24.81.27.72.11 1.44.29 2.16.27.3-.01.57-.43.86-.66-.24-.18-.46-.39-.71-.55-.46-.28-.97-.49-1.41-.8-1.37-.97-1.73-1.03-2.91-.15-.59.44-1.24.51-1.93.49-.47-.01-.93-.04-1.4-.03-1.96.02-3.89-.21-5.74-.91-2.44-.92-4.97-1.68-7.02-3.45-.09-.09-.22-.11-.32-.15zm-13.17 7.26.2.2c1-.25 1.81-.76 2.2-1.77.92-2.4.73-4.79-.24-7.19-.26-.65-.54-.63-1.04-.36-1.35.75-2.36 1.85-3.29 3.06-1.33 1.73-2.02 3.78-2.77 5.79-.34.92-.68 1.86-.38 2.92.57 2.07 1.07 4.16 1.61 6.23.07.27.21.52.36.87.37-1.76.6-3.41 1.07-4.99.58-1.94 1.33-3.82 2.05-5.71.13-.35.42-.66.71-.9.17-.14.49-.1.75-.15-.07.23-.09.5-.22.69-.31.47-.67.88-1.01 1.31zm6.16 30.93c-.05.02-.1.04-.15.07-.5 1.31-.94 2.65-1.5 3.93-1.03 2.35-2.51 4.38-4.51 5.99-.95.77-1.01 1.54-.1 2.37.76.69 1.25 1.52 1.5 2.51.46 1.78 2.7 3.05 4.47 2.57.6-.16.88-.72.48-1.17-.87-.96-1.16-2.16-1.66-3.28-.51-1.14-.19-1.94.44-2.84.69-.99 1.24-2.07 1.85-3.12.16-.27.32-.52.48-.79.08.01.17.02.25.02-.52-2.08-1.04-4.17-1.55-6.26zm-7.13-62.41c-.09-.69-.15-1.21-.24-1.71-.39-2.28-1.23-4.4-2.88-6.08-1.94-1.97-4.39-2.41-6.98-2.06-.84.11-1.63.51-2.52.8.55.71 1 1.21 1.36 1.77.26.39.48.53.95.38.42-.13.89-.09 1.34-.12.02.1.04.19.06.29-.52.25-1.04.51-1.6.78.2.34.34.59.45.78.71-.15 1.34-.27 1.97-.4.03.1.07.21.1.31-.16.08-.32.18-.49.24-.25.1-.51.16-.75.27-.81.37-.41.98-.19 1.49.2.47.63.54 1.12.43.75-.18 1.51-.42 2.28-.44 1.63-.06 3.21.22 4.44 1.48.52.5.97 1.07 1.58 1.79zm-21.26 75.35c2.14-.83 2.98-2.79 4.33-4.41-2.61-2.71-5.23-5.43-7.88-8.19-.83 1.01-1.65 1.65-3.01 1.47.33.71.54 1.35.91 1.89.45.66.93 1.4 1.95 1.14.08-.02.26.09.3.18.25.57.51 1.15.7 1.75.09.28.03.6.03.9.08.01.16.03.25.04.11-.4.19-.8.33-1.19.07-.18.21-.4.38-.46.12-.04.4.1.48.23 1.19 1.87 1.82 3.86 1.31 6.07-.03.17-.04.33-.08.58zm17.09-18.78c-.18 2.02-.36 4.06-.54 6.09 1.12.15 2.16.27 3.2.42.68.1 1.37.2 2.04.35 1.43.33 2.95.37 4.22 1.3.32.24.58.17.71-.27.21-.73.47-1.43.67-2.16.31-1.1 0-2.05-.68-2.79-.66.41-1.23.86-1.88 1.16-.94.43-1.12.29-1.32-.76-.29.15-.56.32-.85.41-.19.06-.43.08-.61.02-.9-.29-1.8-.59-2.68-.91-.25-.09-.56-.19-.69-.38-.56-.79-1.06-1.63-1.59-2.48zm-4.4-35.7c.8.52 1.27 1.36 1.5 2.34.12.5 0 1.14.81 1.16.05 0 .11.15.14.24.33 1.36.68 2.71.96 4.07.19.92.26 1.86.35 2.5.79-1.72 1.67-3.63 2.53-5.55.07-.15.03-.37-.02-.54-.46-1.73-.7-3.47-.67-5.25.01-.8-.03-1.6-.05-2.4-.23.93-.79 1.47-1.73 1.67-.17.04-.35.32-.41.52-.42 1.4-.36 2.83-.27 4.28.01.19-.12.38-.18.57-.18-.14-.48-.26-.52-.43-.1-.42-.13-.88-.11-1.31.06-1.12.16-2.23.25-3.41-.84.49-1.68 1-2.58 1.54zm.22 56.11c.04-.15.09-.23.09-.32.08-2.68-.45-5.28-1.23-7.84-.05-.16-.23-.36-.38-.39-.88-.2-1.77-.26-2.54.31-.69.51-1.35 1.06-2.04 1.6 2.05 2.22 4.05 4.4 6.1 6.64zm-5.19 3.53c-.26.28-.42.39-.5.55-.87 1.77-2.22 3.1-3.75 4.3-1.14.89-1.03 2.01.28 2.69 1.13.59 2.03 1.4 2.79 2.4.07.09.17.14.33.25.95-3.3 1.08-6.6.85-10.19zm7.37.92c-.29-1.36-18.62-21.64-20.55-22.88-.03.58-.06 1.11-.08 1.52.44.35.81.58 1.12.89 1.69 1.68 3.4 3.34 5.03 5.06 2.32 2.45 4.6 4.94 6.87 7.44 2 2.2 3.94 4.44 5.94 6.64.44.47 1 .81 1.67 1.33zm-17.93-44.23c-2.07 2.37-4.54 8.7-4.06 13.2.06-.13.14-.23.16-.34.49-2.17 1.48-4.12 2.69-5.95.4-.6.92-1.08.95-1.91.05-1.37.23-2.73.34-4.09.03-.28-.04-.56-.08-.91zm2.78-28.93c-.54-.16-.91-.19-1.2-.36-.79-.47-1.97-.22-2.4.55-.48.86-.13 2.33.65 2.71.81.39 3.03-.38 3.39-1.18.03-.06.05-.15.04-.21-.18-.59-.37-1.17-.48-1.51zm55.38 19.62c-.01.05-.03.1-.04.14.15.08.29.19.45.24.76.25 1.62.34 1.97 1.26.03.07.22.15.31.13.81-.16 1.62-.3 2.4-.55.46-.15.47-.53.07-.84-.21-.16-.46-.37-.7-.37-1.49-.03-2.98-.01-4.46-.01zm-39.25-9.61c.92-.06 1.26-.44 1.38-1.15.04-.24.29-.46.48-.64.27-.24.62-.4.85-.67.38-.43.67-.94 1.05-1.37.4-.45.69-.91.59-1.55-.58.35-1.12.74-1.71.99-.4.17-.64.32-.56.77.1.56-.25.82-.68.99-.26.11-.56.13-.84.2.24.82.23.81-.33 1.6-.13.18-.13.46-.23.83zm.77 34.21.24.03c.14-.5.44-1.03.37-1.51-.16-1.23-.75-2.31-1.47-3.28-.65.6-.49 1.19-.06 1.84.21.32.31.73.42 1.1.19.61.34 1.22.5 1.82zm-3.92 40.4c.62-.31 1.1-.48 1.5-.76.44-.3.44-.87.04-1.11-.51-.31-1.06-.56-1.6-.83.02.85.04 1.68.06 2.7zm45.49-62.22c-.04-.11-.08-.22-.13-.33-.35.08-.72.13-1.06.24-.52.16-1.02.4-1.55.53-.36.09-.75.06-1.14.08.29.68.61.93 1.32.84 1.04-.12 1.92-.55 2.56-1.36zm-.78 1.56c-.12.03-.25.06-.39.08-.69.08-1.38.15-2.07.23-.19.02-.5.03-.54.14-.06.17-.02.48.1.61.44.44 1 .56 1.57.33.61-.24 1.39-.31 1.43-1.22 0-.04-.05-.09-.1-.17zm-23.38 23.6c.29.82.53 1.5.77 2.19.86-.81.66-1.45-.77-2.19z"/><path d="m53.95 29.19c-.25-.88.06-1.67.37-2.46.56-1.4 1.18-2.78 1.64-4.21.47-1.48 1.26-2.67 2.44-3.65.94-.78 2.07-.81 3.2-.85.14 0 .28.2.43.32-.15.13-.28.35-.45.39-.45.09-.94.04-1.39.14-1.49.3-2.33 1.37-2.92 2.63-.4.86-.62 1.8-.94 2.69-.25.69-.52 1.36-.8 2.04-.3.74-.6 1.49-.91 2.23-.12.29-.3.56-.45.84-.07-.05-.15-.08-.22-.11z"/><path d="m54.19 22.96c.43-2.18 1.43-4.03 3.17-5.46 1.05-.86 2.83-1.2 3.98-.66-.4.21-.69.49-.97.48-1.77-.05-2.98.88-3.88 2.22-.65.96-1.11 2.05-1.67 3.08-.1.18-.27.33-.4.5-.08-.06-.15-.11-.23-.16z"/><path d="m67.13 73.88c-1.33-.85-2.51-2.44-4.59-1.94-.09.02-.21 0-.29.04-1.58.75-3.17 1.47-4.71 2.3-.37.2-.64.73-.76 1.17-.34 1.17-.56 1.48-1.73 1.97-.35-.98-.67-1.05-2.28-.47.17-.69.19-.65.83-.78.93-.18 1.91-.97 1.91-2.35 0-.74-.11-1.47-.12-2.21 0-.19.18-.42.33-.57.17-.17.43-.25.59-.42 1.08-1.1 1.01-1.56-.08-2.77-.77-.85-1.67-1.3-2.76-1.45-.47-.07-.76-.24-.92-.76-.18-.55-.51-1.08-.86-1.56-.36-.5-.27-.89 0-1.36.18-.31.26-.68.39-1.02-.09-.06-.19-.13-.28-.19-.26.28-.53.55-.83.86-.64-1.05-1.03-2.18-.8-3.46.33-1.83.64-3.67 1.03-5.49.21-.97.56-1.9.84-2.82.62.52 1.18 1.02 1.78 1.45.1.07.4-.15.79-.31-1.06-.41-1.85-.82-2.12-1.87 1.74-.24 2.96-1.15 3.47-2.82.36-1.19.53-2.39.31-3.7-.25-1.46-.39-2.92-1.04-4.28-.05-.1-.05-.25-.02-.36.49-1.78.71-3.58.43-5.46-.17-1.17.39-2.2.85-3.22.51-1.11.86-2.23.48-3.49-.08-.25-.06-.55-.02-.81.36-2.05 1.3-3.83 2.94-5.06.78-.58 1.94-.67 2.92-1.01.37-.13.72-.3 1.05-.49.37-.22.69-.56 1.09-.7.63-.23 1.2-.15 1.71.45.75.89 1.17 1.9 1.4 3 .2.99.39 1.98.56 2.98.65 3.85-1.75 7.48-4.87 8.74-.32.13-.62.28-.93.42-1.35.6-1.43 1.04-1.58 2.53-.25 2.48.26 4.87.66 7.28.07.43.03.88.04 1.56-.41-.33-.68-.51-.91-.73-1.45-1.41-2.08-3.31-3.02-5.02-.15-.28-.41-.51-.52-.81-.19-.53-.4-1.09-.42-1.64-.03-.71.11-1.42.21-2.12.04-.23.2-.44.34-.75-.34-.62-.73-1.33-1.14-2.02-.05-.08-.23-.16-.31-.13-.12.04-.28.17-.29.27-.02.26-.07.64.07.79.88.89.74 1.98.49 2.93-.26.99-.15 1.82.23 2.65.11.25.25.49.42.75.82 1.27 1.35 2.71 2.13 4 .51.84 1.19 1.58 1.89 2.28.61.61 1.46.3 1.45-.54-.01-1.22-.2-2.44-.34-3.66-.13-1.17-.73-2.33-.01-3.56 1.36.57 2.29 1.62 2.69 3.05.37 1.33.39 2.77.88 4.04 1.18 3.06 1.03 6.12.7 9.25-.21 2.01-.04 4.08.01 6.12.08 3.33.18 6.66.31 9.98.07 1.19.23 2.33.33 3.32zm-.52-46.14c0-.05.11-.3.02-.42-.59-.84-1.19-1.68-1.83-2.48-.12-.15-.42-.15-.63-.22.02.22-.04.47.06.64.39.66.85 1.28 1.24 1.94.34.56.52 1.11-.08 1.64-.68.59-1.33.68-1.98.27-.22-.14-.55-.11-.83-.15.11.27.15.61.35.78.67.59 1.43.6 2.19.19.83-.44 1.66-.88 1.49-2.19zm-6.16 21.24c.43-.81-.14-1.06-.33-1.44-.8-1.58-1.65-3.14-2.36-4.76-.47-1.07-.74-2.23-1.1-3.35-.07-.21-.09-.45-.21-.62-.09-.13-.32-.16-.49-.23-.04.15-.14.31-.11.45.12.55.21 1.13.44 1.64 1.01 2.32 2.05 4.62 3.13 6.91.22.48.62.86 1.03 1.4zm-3.5 17.71c-.01.53.64.93 1.11.64.68-.42 1.03-1.09 1.13-1.88.05-.42-.45-.77-.85-.65-.76.22-1.37 1.05-1.39 1.89zm6.66-34.85c.01-.11.01-.22.02-.34-.95-.52-2-.91-2.42-2.05-.03-.08-.34-.07-.51-.11-.03.19-.14.44-.06.57.5.89 1.17 1.61 2.15 1.96.24.09.55-.01.82-.03zm-6.1 26.91c-.24.3-.54.57-.5.63.16.26.4.57.66.63.16.04.41-.34.62-.54-.23-.2-.45-.41-.78-.72z" fill="#dfcbc0"/><path d="m66.51 60.62c-.05-2.04-.22-4.11-.01-6.12.33-3.14.48-6.19-.7-9.25-.49-1.27-.51-2.71-.88-4.04-.4-1.44-1.33-2.48-2.69-3.05-.72 1.22-.12 2.39.01 3.56.14 1.22.33 2.44.34 3.66.01.84-.84 1.15-1.45.54-.7-.7-1.39-1.45-1.89-2.28-.78-1.29-1.32-2.73-2.13-4-.09-.15-.18-.29-.26-.43-.07 0-.14-.02-.21-.07-.03-.02-.06-.03-.08-.05l.09.36c.36 1.12.63 2.28 1.1 3.35.71 1.62 1.56 3.18 2.36 4.76.19.38.76.63.33 1.44-.41-.54-.81-.92-1.03-1.39-1.07-2.29-2.11-4.6-3.13-6.91-.23-.52-.32-1.09-.44-1.64-.02-.09.02-.19.05-.29-.21-.07-.43-.11-.65-.12-.01.03-.02.06-.02.1-.03.11-.03.26.02.36.66 1.36.79 2.82 1.04 4.28.22 1.3.05 2.51-.31 3.7-.51 1.66-1.73 2.57-3.47 2.82.26 1.04 1.06 1.45 2.12 1.87-.4.16-.7.38-.79.31-.6-.43-1.16-.93-1.78-1.45-.28.92-.64 1.85-.84 2.82-.39 1.82-.7 3.66-1.03 5.49-.23 1.27.16 2.41.8 3.46.3-.31.56-.58.83-.86.09.06.19.13.28.19-.13.34-.21.71-.39 1.02-.27.46-.36.86 0 1.36.35.48.68 1.01.86 1.56.17.52.45.7.92.76 1.09.15 1.99.6 2.76 1.45 1.09 1.2 1.16 1.66.08 2.77-.17.17-.43.25-.59.42-.15.15-.33.38-.33.57.01.74.12 1.47.12 2.21 0 1.38-.99 2.17-1.91 2.35-.64.13-.66.09-.83.78 1.61-.58 1.93-.51 2.28.47 1.18-.49 1.39-.8 1.73-1.97.13-.44.4-.97.76-1.17 1.53-.83 3.13-1.54 4.71-2.3.08-.04.2-.02.29-.04 2.08-.5 3.26 1.09 4.59 1.94-.1-.99-.26-2.13-.3-3.27-.15-3.37-.25-6.7-.33-10.03zm-9-1.87c.33.31.56.52.78.73-.21.19-.46.57-.62.54-.26-.06-.5-.37-.66-.63-.04-.07.25-.34.5-.64zm.55 8.58c-.47.29-1.12-.11-1.11-.64.02-.84.63-1.67 1.38-1.89.41-.12.91.23.85.65-.09.78-.44 1.45-1.12 1.88z" fill="#d9ba80"/><path d="m58 70.19c.88-1.62 2.7-2.19 4.24-3.05-.48-.07-.96-.09-1.45-.14-.2-.02-.39-.2-.32-.42.25-.72.71-1.04 1.3-1.39-1.64-1.39-4.18-1.41-6.18-2.03-.87-.27-3.01-.8-3.06-1.99-.07-1.51 2.15-1.34 3.04-1.11 1.15.29 2.24.88 3.41 1.08.24.04.73.15.96.05.5-.22.27-.19.17-.55-.11-.4-.55-.84-.72-1.24-.09-.21-.02-.4.2-.48.27-.1.54-.22.8-.33-1.51-1.28-3.65-1.64-4.61-3.56-.11-.22.02-.49.28-.5 1.51-.03 2.98.37 4.48.17-.35-.8-1.11-1.29-1.68-1.94-.51-.58-.94-1.26-1.36-1.91-.67-1.04-1.27-2.12-1.84-3.21-.61 1.22-1.71 1.91-3.19 2.12.26 1.04 1.06 1.45 2.12 1.87-.4.16-.7.38-.79.31-.6-.43-1.16-.93-1.78-1.45-.28.92-.64 1.85-.84 2.82-.39 1.82-.7 3.66-1.03 5.49-.23 1.27.16 2.41.8 3.46.3-.31.56-.58.83-.86.09.06.19.13.28.19-.13.34-.21.71-.39 1.02-.27.46-.36.86 0 1.36.35.48.68 1.01.86 1.56.17.52.45.7.92.76 1.09.15 1.99.6 2.76 1.45 1.09 1.2 1.16 1.66.08 2.77-.17.17-.43.25-.59.42-.15.15-.33.38-.33.57.01.74.12 1.47.12 2.21 0 1.38-.99 2.17-1.91 2.35-.64.13-.66.09-.83.78 1.61-.58 1.93-.51 2.28.47 1.18-.49 1.39-.8 1.73-1.97.12-.4.35-.86.67-1.09-.21-1.41-.07-2.87.57-4.06zm-.49-11.55c.33.31.56.52.78.73-.21.19-.46.57-.62.54-.26-.06-.5-.37-.66-.63-.04-.07.25-.34.5-.64zm-.56 7.94c.02-.84.63-1.67 1.38-1.89.41-.12.91.23.85.65-.1.78-.45 1.45-1.13 1.88-.46.29-1.11-.11-1.1-.64z" fill="#cda258"/><path d="m26.65 76.28c-.4-.53-.84-1.03-1.19-1.58-.31-.49-.51-.37-.72.02-.69 1.35-.71 2.78-.37 4.23.06.25.43.43.66.64.09-.26.18-.52.26-.74.1.38 1.08.28.82 1.06-.19.58-1.26 1.07-1.78.84-.22-.1-.35-.41-.53-.62.05-.06.1-.11.15-.17-.14-.02-.29-.09-.4-.05-.5.17-.78-.1-.89-.52-.23-.85-.4-1.71-.6-2.56-.04-.17-.1-.34-.32-.49.02 1.06.05 2.12.07 3.27-1.73-.79-1.43-2.63-1.97-4.17-.58.95-.33 1.8-.07 2.67-1.34-.9-1.33-.9-1.6-2.15-.21-.99-.11-1.92.48-2.74.42-.59.92-1.12 1.35-1.7.12-.16.24-.49.16-.62-.83-1.34-.97-2.84-1.08-4.33-.12-1.54-.38-3.1-.2-4.6.48-4.02 1.49-7.89 3.75-11.3 1.05-1.58 2.07-3.19 3.25-4.67 1.83-2.3 3.96-4.28 6.92-5.12.4-.11.8-.26 1.21-.29 1.09-.08 1.56-.78 1.81-1.72.08-.3.18-.6.29-.94.77.15 1.56.61 2.23-.2.61.51 1.19.58 1.91.22.37-.18.94.05 1.44.09.66 2.02.61 4.01.06 6.01-1.48 5.42-4.06 10.24-7.67 14.49-.83.98-1.6 2.05-2.57 2.88-.81.7-1.83 1.19-2.83 1.62-.72.31-1.17-.16-1-.91.14-.59.38-1.15.46-1.74.1-.74.07-1.49.1-2.24.06-1.52.04-3.05.22-4.55.06-.53.62-.99.93-1.49.25-.41 1.05-.62.36-1.52-.66.72-1.36 1.35-1.89 2.11-1.94 2.74-3.21 5.8-4.43 8.94-1.21 3.12-.76 6.16-.27 9.27.05.33.23.65.32.98.13.47.45.65.89.58 1.41-.21 2.08.73 2.27 1.96.09.58.14 1.16.21 1.74-.06.05-.13.08-.2.11zm11.56-33.18c.02-.11.04-.22.06-.33-1.02-.39-2.04-.79-3.07-1.14-.15-.05-.38.16-.58.25.14.17.24.43.42.51.66.27 1.33.53 2.02.7.37.09.77.01 1.15.01zm-5.91 8.63c.12-.11.26-.18.27-.27s-.06-.26-.14-.3c-.62-.31-1.24-.62-1.88-.88-.11-.05-.29.08-.44.13.06.17.08.44.19.5.65.3 1.32.55 2 .82z" fill="#dfcbc0"/><path d="m24.81 65.81c3.03 2.83 6.63 3.44 10.29 3.63 3.68.19 7.18-.54 10.38-2.9.3.82.65 1.56.83 2.35.58 2.51.57 5.04.25 7.57-.19 1.46-.35 2.92-.55 4.38-.05.38-.19.74-.34 1.31-.31-1.02-.52-1.85-.83-2.64-.23-.59-.59-1.14-.94-1.68-.08-.12-.33-.13-.5-.2 0 .2-.08.45 0 .59 1.18 1.86 1.53 3.95 1.74 6.06.09.94-.25 1.82-.83 2.76-.73-1.78-2.1-2.17-3.72-2.11-1.64.06-2.59 1.22-3.72 2.29-.44-.47-.88-.92-1.32-1.39-2.64-2.84-5.27-5.67-7.9-8.52-.08-.09-.11-.25-.13-.38-.11-1.12-.12-2.25-.32-3.36-.22-1.19-1.24-1.86-2.45-1.79-.16.01-.45-.02-.47-.08-.18-.67-.36-1.36-.44-2.04-.03-.29.24-.59.31-.9.25-.94.43-1.86.66-2.95zm7.82 8.86c-.29-.42-.48-.89-.83-1.1-.14-.09-.7.3-.92.59-.25.33-.46.79-.46 1.2 0 .35.27.78.55 1.02.12.1.66-.11.85-.32.32-.38.51-.86.81-1.39z" fill="#c39d79"/><path d="m45.14 84.1c-.9-.75-2.03-1.05-2.92-1.8-.7-.59-1.23-1.45-1.61-2.28-.38-.82-.56-1.52-1.32-2.1-.8-.61-1.71-.8-2.64-1.06-1.52-.43-1.94-1.6-2.23-3.11-.26-1.32.2-2.19 1.09-2.94-1.17-.23-2.36-.54-3.32-1.27-.18-.14-.35-.29-.52-.46-2.45-.43-4.79-1.33-6.86-3.27-.23 1.09-.42 2.02-.63 2.93-.07.31-.34.61-.31.9.07.69.26 1.37.44 2.04.02.06.31.09.47.08 1.21-.07 2.23.6 2.45 1.79.2 1.1.22 2.24.32 3.36.01.13.04.29.13.38 2.63 2.84 5.26 5.68 7.9 8.52.43.46.87.92 1.32 1.39 1.13-1.07 2.08-2.22 3.72-2.29 1.62-.06 2.99.33 3.72 2.11.57-.93.92-1.81.83-2.76-.02-.05-.02-.1-.03-.16zm-13.32-8.05c-.19.21-.73.42-.85.32-.28-.24-.54-.67-.55-1.02 0-.41.21-.87.46-1.2.22-.29.78-.68.92-.59.35.22.54.68.83 1.1-.3.54-.49 1.02-.81 1.39z" fill="#b0714a"/><path d="m46.25 24.24c-.44-.53-.88-1.07-1.34-1.58-.17-.18-.41-.29-.63-.43-.08.06-.15.12-.23.17.16.28.27.6.47.83 1.19 1.36 1.88 2.92 1.97 4.7.05.94-.2 1.76-1.21 2.11-1.09.38-2.16.59-3.17-.31-.16-.14-.44-.25-.65-.22-1.22.18-2.41.49-3.34 1.34-.65.6-1.33.66-2.16.41-2.18-.66-3.41-2.26-4.25-4.26-.07-.16-.1-.34-.18-.49-.6-1.05-.48-2.13-.15-3.19.91-2.94 2.38-5.51 4.93-7.31 1.98-1.4 4.13-1.77 6.46-.7.15.07.36.03.53-.01 1.39-.32 2.77-.63 4.22-.25 1.53.4 2.46 1.35 3.33 2.71 1.08 1.67 1.02 3.37 1.11 5.13.09 1.79-.14 3.53-.78 5.19-.35.91-.94 1.64-1.79 2.15-.46.27-.89.45-1.39-.01-.22-.21-.57-.29-.94-.46.56-1.81.23-3.54-.78-5.18.28.12.6.27.83.13.08-.05.14-.12.19-.25.18-.43-.92-.64-1.05-.22zm-4.28-5.07c-.28-.13-.52-.36-.7-.32-.37.08-.73.27-1.04.49-.15.11-.19.38-.28.58.21-.01.44.04.62-.03.4-.17.77-.4 1.4-.72zm6.55 1.12c.14-.7-.28-.98-.67-1.23-.13-.08-.37.02-.56.04.06.19.06.46.19.57.27.23.61.38 1.04.62z" fill="#dfcbc0"/><path d="m31.65 36.02c-.25 1.82-1.38 3.18-2.1 4.74-.34.74-.9 1.13-1.36 1.66-.93 1.08-2 2.04-3.09 3.13.27-3.21 2.13-5.74 3.36-8.5-.11-.05-.23-.1-.34-.14-2.05 2.54-3.26 5.49-3.7 8.8-.08 0-.17 0-.25.01-.12-.23-.33-.46-.35-.7-.06-1.15-.08-2.29-.1-3.44 0-.12.04-.25.02-.37-.35-1.44.3-2.67.69-3.97.74-2.41.89-4.92.68-7.44-.15-1.82-.48-3.62-.64-5.44-.14-1.65-.37-3.33-.18-4.95.37-3.13 1.53-5.95 3.89-8.15 1.43-1.34 2.94-2.53 4.83-3.19 1.4-.49 2.86-.61 4.19-.03.91.4 1.68 1.29 2.36 2.09.91 1.08 1.6 2.33 1.85 3.87-.35 0-.67.03-.97 0-2.09-.21-3.77.64-5.29 1.9-2.2 1.82-3.53 4.22-4.42 6.9-.22.66-.35 1.35-.51 1.96-.69-.2-1.26-.46-1.85-.51-1.66-.13-2.82 1.29-2.45 2.92.37 1.62.71 1.94 2.31 2.26.18.04.45.24.48.4.21 1.05.2 1.05 1.2 1.26-.03.36-.09.72-.09 1.09.01.81.41 1.3 1.21 1.29.63-.01.76.32.84.79.03.17.03.34.06.51.16.86.46 1 1.76.84.29.65.41 1.55 1.47 1.17.38 1.71-.15 2.57-1.64 2.99-1.03.29-2.02.69-3.19 1.09.41-.84.75-1.58 1.12-2.3.44-.8.67-1.62.2-2.54z" fill="#666"/><path d="m39.33 10.14c-.67-.8-1.44-1.68-2.36-2.09-1.32-.58-2.79-.46-4.19.03-1.7.59-3.09 1.62-4.4 2.79.97.01 1.94-.13 2.57-.29.28-.07.51.23.37.48-.15.27-.2.58-.26.89.92-.2 1.88-.1 2.82-.07.22.01.36.21.32.42-.1.51-.1 1.02-.14 1.52 1.43-.64 2.68-.39 3.92.37.69-.19 1.42-.27 2.22-.19.31.03.62 0 .97 0-.24-1.54-.93-2.78-1.84-3.86z" fill="#999"/><path d="m40.89 60.06c-.85 1.09-1.65 2.21-2.57 3.25-1.69 1.91-3.67 3.41-6.24 3.97-.38.08-.78.04-1.16.1-.32.05-.62.18-.91.36-1.89-.14-3.32-1.4-4.98-2.44.49-.95 1-1.95 1.51-2.94.18.89.59 1.26 1.99 1.61-.9.5-1.68.92-2.54 1.4.56.44 1.05.28 1.42.02 1.23-.86 2.44-1.76 3.62-2.68 2.17-1.69 3.7-3.98 5.38-6.09 2.45-3.08 4.2-6.6 5.5-10.33.65-1.87 1.11-3.8 1.02-5.83-.02-.45-.12-.91-.2-1.53.72.45.98.98 1.16 1.61.68 2.29.41 4.58.11 6.86-.29 2.25-.67 4.49-.95 6.75.76-1.8 1.23-3.67 1.41-5.63.18-1.93.43-3.86.66-5.84.45 1.31.83 2.62.87 4 .08 3.18.21 6.35.19 9.53-.02 2.58-.21 5.16-.38 7.73-.08 1.14-.68 1.96-1.65 2.61-2.01 1.37-4.33 1.7-6.69 2.03 1.54-1.34 3.08-2.64 3.43-4.79-.05-.04-.11-.08-.16-.12-.21.31-.45.61-.63.95-.94 1.7-2.33 2.78-4.09 3.66-1.63.82-3 .02-4.56-.07 4.73-.99 7.62-3.95 9.59-7.98-.06-.07-.1-.12-.15-.17zm-3.38-1.86c.26-.25.43-.42.6-.59-.17-.12-.35-.35-.52-.35-.18.01-.4.2-.48.38-.03.09.21.31.4.56z" fill="#c39d79"/><path d="m42.2 52.4c-.62 1.63-1.58 3.39-1.57 5.19 1.43-1.2 2.36-2.84 2.89-4.62-.15.43-.3.85-.48 1.27.27-2.2.64-4.38.93-6.58-.63 1.56-1.17 3.16-1.77 4.74z" fill="#b0714a"/><path d="m41.57 65.35c-.2-.08-.3-.28-.2-.48.4-.78.93-1.48 1.39-2.22-.63.4-1.25.84-1.88 1.23h.01c-.36 2.15-1.9 3.46-3.43 4.79 2.36-.33 4.67-.66 6.69-2.03.96-.65 1.57-1.48 1.65-2.61.02-.24.03-.49.05-.74-1.21 1.6-2.69 2.71-4.28 2.06z" fill="#b0714a"/><path d="m40.09 64.71c.11-.21.25-.4.39-.6-.85.48-1.75.84-2.75.9-1.64 1.59-3.69 2.74-6.29 3.29 1.56.09 2.92.89 4.56.07 1.76-.88 3.15-1.96 4.09-3.66z" fill="#b0714a"/><path d="m36.97 64.78c-.01-.03-.02-.05-.01-.08.04-1.45 1.14-2.54 1.38-3.89-3.43 1.99-6.64 5.11-10.83 4.6-.03.02-.06.05-.1.07-.37.26-.86.42-1.42-.02.27-.15.54-.3.81-.44.03-.18.18-.35.4-.31.04.01.08.01.13.02.39-.21.78-.43 1.21-.66-1.4-.34-1.81-.71-1.99-1.61-.51.99-1.02 1.99-1.51 2.94 1.66 1.04 3.09 2.3 4.98 2.44.29-.19.59-.31.91-.36.38-.06.79-.01 1.16-.1 1.91-.42 3.5-1.36 4.88-2.6z" fill="#b0714a"/><path d="m59.99 101.55c.08-.36.17-1.02.36-1.65 1.07-3.47 1.18-7.03.98-10.65-.15-2.69-.54-5.34-1.24-7.94-.47-1.77-1.22-3.44-2.29-4.97-.53-.76-.42-1.33.4-1.74 1.48-.72 3-1.38 4.53-2.02.35-.15.74-.14 1.01.4 1.02 2.02 1.64 4.14 1.94 6.34.34 2.52.72 5.04.89 7.56.15 2.22.11 4.46.04 6.68-.07 2.06-.31 4.1-.45 6.15-.01.16.1.38.23.51.98 1.02 1.98 2.02 2.96 3.05.55.58 1.19.83 1.98.87.36.02.83.22 1.03.5.31.43-.1.72-.42 1.02-.38.36-.68.81-.98 1.25-.71 1.05-1.22 1.22-2.42.85-.37-.11-.78-.2-1.16-.16-1.65.16-2.78-.7-3.71-1.92-.59-.78-1.27-1.36-2.22-1.66-.94-.27-1.45-1.12-1.46-2.47z" fill="#dfcbc0"/><path d="m36.46 90.36c.32.26.5.38.64.54 1.89 2.12 3.77 4.24 5.63 6.39.18.21.26.56.29.86.25 2.97-.25 5.88-.47 8.82-.08 1.05-.05 2.12.04 3.17.04.46.32.92.56 1.34.91 1.57 1.81 3.14 2.79 4.66.36.57.92 1.02 1.42 1.49.44.42 1.02.71.74 1.51-.33.9-.69 1.19-1.55 1.29-.77.09-1.54.27-2.28.5-.99.31-2.05-.03-2.64-.93-.71-1.07-1.36-2.2-2.16-3.2-.51-.64-1.16-1.3-1.88-1.62-1.33-.58-1.67-1.34-1.4-2.96.19-1.14.67-2.24 1.75-2.91.07-.05.14-.15.15-.23.31-1.9.77-3.78.89-5.7.14-2.34.13-4.7-.28-7.06-.22-1.27-.57-2.39-1.26-3.49-.44-.66-.61-1.48-.98-2.47z" fill="#dfcbc0"/><path d="m52.33 70.28c.41.05.82.16 1.23.14.56-.02.87.22.93.74.1.9.18 1.81.23 2.72.04.77-.39 1.22-1.23 1.47-.07-.56-.08-1.11-.21-1.63-.15-.6-.39-1.19-.63-1.76-.04-.1-.28-.13-.43-.19-.03.17-.15.4-.08.51.68 1.02.19 2.12.31 3.18.01.11-.04.27-.12.34-.26.23-.54.42-.82.63-.11-.35-.35-.72-.3-1.04.2-1.25-.16-2.32-.89-3.33-.58.15-.58.41-.28.86.65.98.73 2.31-.07 3.13-.11-.17-.27-.31-.29-.46-.08-.64-.1-1.28-.18-1.92-.1-.88-.46-1.27-1.19-1.34-.27-1.16-.26-2.26.56-3.22.11-.13.15-.44.07-.6-.61-1.35-1.28-2.67-1.88-4.02-.19-.43-.33-.92-.33-1.38.04-2.48.14-4.97.2-7.45.02-.78-.03-1.55-.05-2.33.08-.01.16-.02.24-.02.18.8.36 1.6.54 2.4.74 3.36 2.1 6.49 3.74 9.51.09.17.14.49.04.62-.37.55-.04.78.4.93.64.2 1.29.34 1.94.51.9.23 1.63.72 2.2 1.44.25.32.5.66.16 1.06-.31.36-.62.65-1.18.34-.85-.51-1.74-.76-2.63.16z" fill="#dfcbc0"/><path d="m29.38 30.44c-.15-1.47 1.32-1.55 1.81-2.6.22.37.34.56.45.77.94 1.92 2.54 3 4.52 3.6.26.08.48.32.71.49.35.25.7.5.91.64.15.61.14 1.25.45 1.66.45.63 1.07.16 1.64-.07.43.61.94.86 1.6.36.09-.07.32.05.48.04.23-.01.46-.06.77-.1-.93-1.22-1.17-1.27-1.97-.32.05-.42.11-.65.09-.88-.02-.17-.16-.32-.25-.48-.15.08-.32.15-.44.25-.28.24-.52.53-.83.74-.15.1-.41.06-.61.08-.02-.23-.14-.53-.05-.69.23-.39.59-.69.85-1.07.13-.19.15-.46.22-.7-.23.05-.48.08-.7.15-.43.13-.85.29-1.27.44-.04-.1-.08-.2-.12-.3.45-.21.9-.43 1.46-.69-.26-.16-.42-.25-.62-.37.82-.74 1.77-.99 2.78-1.1.09-.01.2.02.27.08 1.53 1.09 3.04.8 4.62.16.39-.16 1.05.08 1.49.31.22.11.28.62.32.96.07.59-.3.71-.8.59-.17-.04-.33-.14-.49-.16-.22-.02-.45.01-.68.01.04.23.04.47.12.69.12.33.3.64.49 1.04-.27.06-.43.1-.59.12-.41.04-.51.27-.33.61.28.52.01.61-.42.58-.55-.04-.79.13-.61.73.06.19-.05.53-.2.65-.28.22-.64.43-.98.44-.96.03-1.93-.04-2.89-.08-.14 0-.35-.07-.41 0-.5.56-.96.35-1.49.01-.17-.11-.56-.09-.72.04-.7.55-1.32.42-1.66-.47-.23-.62-.43-1.11-1.19-.57-.05.03-.43-.25-.5-.44-.36-.98-.34-.99-1.25-.63-.35.14-.58.07-.66-.31-.11-.51-.21-1.01-.29-1.52-.08-.49-.33-.6-.79-.46-.91.28-1.2 0-1.01-.97.05-.29.22-.55.25-.84.03-.22.01-.54-.13-.65-.13-.11-.44-.03-.66 0-.21.04-.41.14-.69.23z" fill="#666"/><path d="m65.89 41.54c.11.04.24.07.32.14 2.04 1.77 4.58 2.53 7.02 3.45 1.85.7 3.78.94 5.74.91.47-.01.93.02 1.4.03.69.02 1.34-.05 1.93-.49 1.18-.88 1.54-.82 2.91.15.44.31.95.52 1.41.8.25.16.48.36.71.55-.29.23-.57.65-.86.66-.72.01-1.44-.16-2.16-.27-.2-.03-.39-.13-.81-.27.16.38.19.62.32.73.53.45.57 1.06.32 1.53-.37.68-1.36.86-1.87.28-.83-.92-1.69-.95-2.79-.8-1.38.19-2.79.16-4.19.17-2.31.02-4.54-.48-6.74-1.22-.92-.31-1.4-.73-1.63-1.67-.37-1.53-.87-3.04-1.31-4.55.09-.04.18-.08.28-.13z" fill="#dfcbc0"/><path d="m52.72 48.8c.34-.43.7-.85 1-1.3.13-.19.15-.46.22-.69-.25.04-.57 0-.75.15-.29.24-.58.56-.71.9-.72 1.89-1.48 3.77-2.05 5.71-.47 1.58-.7 3.23-1.07 4.99-.15-.35-.29-.6-.36-.87-.54-2.08-1.03-4.17-1.61-6.23-.29-1.06.04-2.01.38-2.92.75-2.01 1.44-4.05 2.77-5.79.93-1.21 1.93-2.31 3.29-3.06.5-.28.78-.29 1.04.36.97 2.4 1.16 4.79.24 7.19-.39 1.01-1.2 1.52-2.2 1.77-.05-.08-.12-.14-.19-.21z" fill="#dfcbc0"/><path d="m58.88 79.73c.52 2.09 1.03 4.19 1.55 6.28-.08-.01-.17-.02-.25-.02-.16.26-.33.52-.48.79-.61 1.04-1.16 2.13-1.85 3.12-.63.9-.95 1.7-.44 2.84.5 1.13.79 2.32 1.66 3.28.4.45.13 1-.48 1.17-1.77.48-4.01-.79-4.47-2.57-.26-.99-.75-1.82-1.5-2.51-.91-.83-.85-1.6.1-2.37 2-1.61 3.48-3.65 4.51-5.99.56-1.28 1.01-2.62 1.5-3.93.05-.05.1-.07.15-.09z" fill="#dfcbc0"/><path d="m51.75 17.32c-.62-.71-1.07-1.29-1.58-1.81-1.23-1.26-2.81-1.53-4.44-1.48-.77.03-1.53.26-2.28.44-.49.12-.92.05-1.12-.43-.22-.51-.61-1.12.19-1.49.24-.11.51-.17.75-.27.17-.07.33-.16.49-.24-.03-.1-.07-.21-.1-.31-.63.13-1.26.26-1.97.4-.11-.19-.25-.44-.45-.78.55-.27 1.07-.52 1.6-.78-.02-.1-.04-.19-.06-.29-.45.03-.92 0-1.34.12-.47.15-.69.01-.95-.38-.37-.56-.81-1.07-1.36-1.77.89-.29 1.68-.69 2.52-.8 2.59-.35 5.04.09 6.98 2.06 1.65 1.68 2.49 3.79 2.88 6.08.09.52.15 1.03.24 1.73z" fill="#666"/><path d="m46.79 12.33c-.2-.18-.07-.47.15-.55 1.13-.41-.94-1.31-1.06-1.37-.15-.07-.22-.32-.12-.45.83-1.13-1.06-2.07-2.59-2.6-.43.01-.85.04-1.29.1-.84.11-1.63.51-2.52.8.55.71 1 1.21 1.36 1.77.26.39.48.53.95.38.42-.13.89-.09 1.34-.12.02.1.04.19.06.29-.52.25-1.04.51-1.6.78.2.34.34.59.45.78.71-.15 1.34-.27 1.97-.4.03.1.07.21.1.31-.16.08-.32.18-.49.24-.25.1-.51.16-.75.27-.8.37-.41.98-.19 1.49.2.47.63.54 1.12.43.75-.18 1.51-.42 2.28-.44.75-.03 1.48.02 2.18.2-.3-.75-.75-1.35-1.35-1.91z" fill="#999"/><path d="m30.49 92.67c.03-.25.04-.41.08-.57.51-2.21-.12-4.2-1.31-6.07-.09-.13-.36-.28-.48-.23-.16.06-.31.27-.38.46-.14.38-.22.79-.33 1.19-.08-.01-.16-.03-.25-.04-.01-.3.05-.62-.03-.9-.19-.6-.45-1.17-.7-1.75-.04-.09-.22-.2-.3-.18-1.02.26-1.5-.48-1.95-1.14-.36-.54-.57-1.18-.91-1.89 1.36.17 2.18-.46 3.01-1.47 2.65 2.76 5.27 5.48 7.88 8.19-1.35 1.61-2.19 3.57-4.33 4.4z" fill="#b0714a"/><path d="m43.18 38.19c.9-.54 1.74-1.05 2.58-1.55-.09 1.18-.19 2.3-.25 3.41-.02.44.01.89.11 1.31.04.17.34.29.52.43.06-.19.19-.38.18-.57-.09-1.44-.15-2.88.27-4.28.06-.2.24-.48.41-.52.94-.19 1.5-.74 1.73-1.67.02.8.06 1.6.05 2.4-.03 1.78.21 3.53.67 5.25.05.17.08.39.02.54-.86 1.92-1.74 3.83-2.53 5.55-.09-.64-.16-1.58-.35-2.5-.28-1.36-.63-2.72-.96-4.07-.02-.09-.09-.24-.14-.24-.81-.02-.69-.66-.81-1.16-.23-.97-.71-1.82-1.5-2.33z" fill="#666"/><path d="m43.4 94.3c-2.05-2.23-4.05-4.41-6.1-6.65.69-.54 1.35-1.09 2.04-1.6.77-.57 1.66-.51 2.54-.31.15.03.33.23.38.39.78 2.56 1.31 5.16 1.23 7.84 0 .09-.04.18-.09.33z" fill="#dfcbc0"/><path d="m38.21 97.83c.23 3.59.1 6.9-.86 10.2-.15-.12-.26-.17-.33-.25-.76-1-1.66-1.81-2.79-2.4-1.31-.69-1.42-1.8-.28-2.69 1.53-1.2 2.89-2.53 3.75-4.3.09-.17.25-.28.51-.56z" fill="#dfcbc0"/><path d="m45.58 98.75c-.67-.53-1.24-.86-1.66-1.33-2-2.19-3.95-4.44-5.94-6.64-2.27-2.5-4.55-4.99-6.87-7.44-1.64-1.73-3.34-3.39-5.03-5.06-.31-.3-.68-.54-1.12-.89.02-.41.05-.94.08-1.52 1.92 1.24 20.26 21.52 20.54 22.88z" fill="#e5be64"/><path d="m30.43 25.59c.11.34.3.92.47 1.5.02.06-.01.15-.04.21-.36.8-2.58 1.57-3.39 1.18-.78-.38-1.13-1.84-.65-2.71.43-.77 1.61-1.02 2.4-.55.31.18.67.22 1.21.37zm-2.11.65c-.19.12-.42.25-.65.39.24.14.47.33.74.42.34.13.71.23 1.07.26.18.02.37-.14.55-.22-.11-.17-.18-.43-.33-.48-.41-.16-.85-.24-1.38-.37z" fill="#dfcbc0"/><path d="m85.81 45.21c1.49 0 2.97-.02 4.46.02.23.01.49.21.7.37.41.31.39.69-.07.84-.78.25-1.6.38-2.4.55-.09.02-.29-.06-.31-.13-.35-.92-1.2-1.01-1.97-1.26-.16-.05-.3-.16-.45-.24.01-.06.03-.1.04-.15z" fill="#dfcbc0"/><path d="m46.56 35.6c.1-.37.1-.65.24-.84.56-.79.57-.78.33-1.6.28-.06.58-.09.84-.2.42-.17.78-.43.68-.99-.08-.45.16-.61.56-.77.59-.25 1.13-.64 1.71-.99.1.64-.19 1.1-.59 1.55-.38.43-.67.94-1.05 1.37-.24.27-.59.42-.85.67-.2.18-.45.41-.48.64-.12.72-.47 1.1-1.39 1.16z" fill="#666"/><path d="m47.33 69.81c-.16-.61-.32-1.22-.5-1.82-.11-.38-.2-.78-.42-1.1-.43-.65-.6-1.24.06-1.84.72.97 1.31 2.05 1.47 3.28.06.48-.24 1.01-.37 1.51-.08-.01-.16-.02-.24-.03z" fill="#d9ba80"/><g fill="#dfcbc0"><path d="m43.41 110.21c-.02-1.02-.04-1.84-.06-2.71.54.27 1.09.52 1.6.83.41.25.4.81-.04 1.11-.4.28-.88.46-1.5.77z"/><path d="m88.9 47.99c-.64.8-1.53 1.23-2.55 1.36-.71.09-1.03-.16-1.32-.84.39-.02.78.01 1.14-.08.53-.13 1.03-.37 1.55-.53.35-.11.71-.16 1.06-.24.04.12.08.22.12.33z"/><path d="m88.12 49.55c.05.08.1.12.09.16-.04.91-.82.98-1.43 1.22-.57.23-1.13.11-1.57-.33-.12-.13-.16-.44-.1-.61.04-.1.35-.11.54-.14.69-.08 1.38-.15 2.07-.23.15-.01.28-.04.4-.07z"/><path d="m64.74 73.15c1.43.75 1.63 1.39.77 2.19-.24-.7-.48-1.37-.77-2.19z"/></g><path d="m43.9 88.55c-.27-.58-.55-1.15-.82-1.73.09-.03.18-.07.27-.1.54.5.38 1.23.53 1.85 0 0 .02-.02.02-.02z" fill="#fff"/><path d="m66.61 27.74c.17 1.31-.66 1.75-1.5 2.2-.77.41-1.52.4-2.19-.19-.19-.17-.23-.52-.35-.78.28.05.61.01.83.15.65.41 1.3.33 1.98-.27.6-.53.42-1.08.08-1.64-.4-.65-.85-1.28-1.24-1.94-.1-.17-.05-.43-.06-.64.22.07.52.07.63.22.64.8 1.25 1.64 1.83 2.48.09.11-.01.35-.01.41z"/><path d="m60.45 48.98c-.41-.54-.81-.92-1.03-1.39-1.07-2.29-2.11-4.6-3.13-6.91-.23-.52-.32-1.09-.44-1.64-.03-.14.07-.3.11-.45.17.07.39.1.49.23.12.17.14.41.21.62.36 1.12.63 2.28 1.1 3.35.71 1.62 1.56 3.18 2.36 4.76.19.37.76.62.33 1.43z"/><path d="m56.95 66.69c.02-.84.63-1.67 1.38-1.89.41-.12.91.23.85.65-.1.78-.45 1.45-1.13 1.88-.46.28-1.11-.11-1.1-.64zm1.76-1.26c-.7.22-1.09.53-1.02 1.3.76-.14.76-.75 1.02-1.3z"/><path d="m63.61 31.84c-.28.02-.58.12-.82.04-.98-.35-1.66-1.07-2.15-1.96-.08-.14.04-.38.06-.57.18.03.48.02.51.11.41 1.14 1.47 1.53 2.42 2.05-.01.11-.01.22-.02.33z"/><path d="m57.51 58.75c.33.31.56.52.78.73-.21.19-.46.57-.62.54-.26-.06-.5-.37-.66-.63-.04-.07.25-.34.5-.64z"/><path d="m38.21 43.1c-.38 0-.78.08-1.14-.02-.69-.18-1.36-.43-2.02-.7-.18-.07-.28-.33-.42-.51.19-.09.43-.3.58-.25 1.03.35 2.05.76 3.07 1.14-.03.12-.05.23-.07.34z"/><path d="m32.3 51.73c-.68-.27-1.35-.52-2-.82-.11-.05-.13-.33-.19-.5.15-.05.33-.18.44-.13.64.27 1.26.57 1.88.88.08.04.15.21.14.3-.01.1-.14.16-.27.27z"/><path d="m32.63 74.67c-.3.53-.49 1.02-.81 1.38-.19.21-.73.42-.85.32-.28-.24-.54-.67-.55-1.02 0-.41.21-.87.46-1.2.22-.29.78-.68.92-.59.35.22.54.69.83 1.11zm-.56-.3c-.08-.03-.16-.07-.24-.1-.72.55-.88.99-.43 1.79.26-.67.47-1.18.67-1.69z"/><path d="m41.97 19.17c-.62.33-1 .55-1.4.72-.18.07-.41.02-.62.03.09-.2.13-.47.28-.58.31-.22.67-.4 1.04-.49.17-.04.42.18.7.32z"/><path d="m48.52 20.29c-.43-.25-.77-.39-1.04-.62-.13-.11-.13-.37-.19-.57.19-.02.43-.13.56-.04.39.25.81.54.67 1.23z"/><path d="m37.51 58.2c-.19-.25-.43-.47-.4-.55.08-.17.3-.37.48-.38.17-.01.35.22.52.35-.17.16-.34.33-.6.58z"/><path d="m28.32 26.24c.53.14.97.21 1.38.37.15.06.22.32.33.48-.19.08-.38.23-.55.22-.36-.03-.73-.13-1.07-.26-.26-.1-.49-.28-.74-.42.23-.14.45-.28.65-.39z"/><path d="m58.71 65.43c-.26.55-.27 1.16-1.02 1.3-.06-.77.32-1.08 1.02-1.3z" fill="#dfcbc0"/><path d="m32.07 74.37c-.21.51-.41 1.03-.68 1.68-.45-.8-.29-1.24.43-1.79.09.04.17.07.25.11z" fill="#dfcbc0"/><ellipse cx="41.46" cy="23.85" rx=".6" ry=".9"/><ellipse cx="61.81" cy="24.47" rx=".55" ry=".83"/><ellipse cx="65.31" cy="24.36" rx=".55" ry=".83"/><ellipse cx="46.76" cy="24.07" rx=".6" ry=".9"/><path d="m55.96 38.59c-.63.03-.94-.17-.94-.17s.47-1.88.42-3.14.11-3.39.11-3.39 1.31 1.86 1.37 2.73c.05.88-.44 2.13-.33 2.95s.27 1.62.27 1.62z" fill="#292929"/></svg>