<svg enable-background="new 0 0 99.21 99.21" viewBox="0 0 99.21 99.21" xmlns="http://www.w3.org/2000/svg"><path d="m75.97 40.26c.03.43.23.95.06 1.27-.33.63-.21 1.14.04 1.75.1.24-.05.59-.07.89-.05.73-.08 1.46-.12 2.19-.04.62-.32 1.07-.85 1.35-.33.17-.46.4-.4.85.39 2.89.49 5.79.34 8.69-.06 1.21.04 2.43.06 3.65.02 1.91.22 3.86-.01 5.72-.17 1.33-.89 2.57-1.43 3.82-.41.94-.91 1.84-1.41 2.74-.16.29-.44.5-.67.75-.06.06-.16.08-.2.14-.84 1.33-2.15 1.99-3.53 2.51-2.26.86-4.57 1.6-7.01 1.85-1.81.19-3.63.35-5.46.38-3.02.06-6.05.02-9.08-.02-2.31-.03-4.6-.37-6.87-.9-1.95-.46-3.92-.86-5.89-1.24-1.21-.23-2.45-.32-3.65-.6-.58-.14-1.19-.49-1.64-.91-.5-.46-.85-1.12-1.26-1.69-.19-.26-.39-.52-.58-.77-.86-1.15-1.39-2.46-1.55-3.86-.18-1.58-.32-3.18-.28-4.75.04-1.58.33-3.15.49-4.72.11-1.02.16-2.05.29-3.06.17-1.3.42-2.58.6-3.87.21-1.48.38-2.96.54-4.44.02-.14-.12-.35-.24-.47-.34-.36-.77-.65-1.06-1.04-.59-.78-.37-1.63-.2-2.47.34-1.75 1.02-3.32 1.94-4.8.15-.23.1-.59.2-.86.75-2.04 1.36-4.16 2.3-6.1 1.63-3.36 4.09-6 7.29-7.84 1.55-.9 3.24-1.46 4.96-1.93 1.62-.44 3.24-.9 4.87-1.32 2.19-.57 4.43-.84 6.72-.7 1.78.11 3.57.2 5.35.39.67.07 1.33.4 2 .59.2.06.41.03.62.04.32.03.67 0 .96.1 2.09.76 4.13 1.61 6.08 2.76.98.58 1.75 1.31 2.42 2.15.68.85 1.19 1.83 1.73 2.79.81 1.44.8 3.09 1.28 4.62.2.65.3 1.34.5 1.99.07.24.27.53.48.64.66.35 1.02.9 1.12 1.62.11.71.18 1.43.27 2.14-.03-.02-.04-.02-.05-.02zm-50.87 25.88c0 .25 0 .5.01.75.11 2.89 1.23 5.33 3.3 7.37.74.73 1.48 1.41 2.54 1.51.67.07 1.35.12 2.02.21 1.08.15 2.18.22 3.24.5 3.45.91 6.91 1.63 10.45 1.66 2.92.02 5.85.14 8.76.06 2.1-.06 4.19-.33 6.28-.57 2.1-.25 4.07-.96 6.02-1.72 1.34-.52 2.59-1.25 3.36-2.59.06-.1.16-.16.25-.24.18-.16.42-.28.53-.48.7-1.38 1.38-2.77 2.06-4.17.5-1.04.75-2.14.72-3.33-.06-1.87-.11-3.75-.14-5.62-.03-2.13.03-4.25-.04-6.38-.06-1.57-.25-3.14-.44-4.7-.06-.53.04-.87.51-1.06.52-.2.77-.61.8-1.17.05-.89.31-1.84.07-2.65-.25-.85-.14-1.49.01-2.29.16-.82-.09-1.74-.16-2.61-.06-.8-.41-1.39-1.15-1.76-.22-.11-.5-.32-.55-.53-.42-1.8-.76-3.62-1.2-5.41-.5-2.06-1.54-3.82-3.19-5.15-1.88-1.51-4.04-2.44-6.24-3.27-.52-.2-1.07-.33-1.61-.46-.35-.08-.72-.08-1.06-.17-.59-.15-1.16-.4-1.76-.5-1.97-.35-3.95-.47-5.94-.48-1.94-.01-3.82.29-5.68.69-1.53.33-3.01.81-4.52 1.23-2.23.63-4.44 1.36-6.37 2.67-2.55 1.73-4.62 3.96-5.99 6.79-.84 1.74-1.49 3.59-2.19 5.4-.14.35-.15.76-.22 1.14-.04.23-.03.51-.15.67-1.14 1.56-1.72 3.38-2.09 5.29-.13.65-.06 1.28.4 1.77.31.33.74.53 1.13.77.26.16.61.25.22.64-.13.13-.18.38-.21.58-.23 1.74-.47 3.48-.68 5.23-.16 1.31-.24 2.63-.45 3.92-.44 2.8-.74 5.6-.65 8.46z" stroke="#000" stroke-miterlimit="10" stroke-width=".3796"/><path d="m72.93 73.72c-.03-1.11.82-2.01 1.88-1.98.86.02 1.87 1 1.92 1.79.07 1.02-1.07 1.85-1.87 1.87-1.08.04-1.9-.7-1.93-1.68zm1.82.98c.08-.01.22 0 .35-.03.61-.14 1.11-.64 1.13-1.13.02-.44-.39-.85-1.09-1.11-.52-.19-.96-.08-1.31.33-.31.35-.52.76-.33 1.26.23.53.72.61 1.25.68z"/><path d="m22.87 74.57c-.43-.01-.79-.36-.8-.78-.03-.61.81-1.44 1.43-1.41.5.02.97.56.96 1.11-.01.61-.74 1.11-1.59 1.08zm.02-.45c.6.03 1.25-.36 1.17-.66-.05-.22-.25-.5-.45-.59-.29-.13-1.05.58-.99.91.02.15.22.28.27.34z"/><path d="m78.54 74.15c-.55-.03-.98-.38-.97-.79.02-.52.82-1.23 1.33-1.17.29.03.72.82.72 1.3-.01.44-.43.7-1.08.66zm.48-1.47c-.11-.03-.22-.06-.33-.1-.16.32-.32.64-.47.96.28.02.56.05.83.07-.01-.31-.02-.62-.03-.93z"/><path d="m19.6 73.75c.09-.1.23-.43.44-.47.37-.07.8.46.78.85-.03.43-.36.48-.66.48-.43.02-.55-.3-.56-.86z"/><path d="m25.1 66.14c-.09-2.86.2-5.67.66-8.46.21-1.29.29-2.62.45-3.92.21-1.74.44-3.49.68-5.23.03-.2.08-.45.21-.58.39-.4.04-.48-.22-.64-.39-.24-.82-.44-1.13-.77-.46-.49-.53-1.12-.4-1.77.38-1.91.96-3.73 2.09-5.29.12-.17.11-.45.15-.67.07-.38.08-.79.22-1.14.71-1.81 1.35-3.66 2.19-5.4 1.37-2.83 3.44-5.06 5.99-6.79 1.93-1.31 4.14-2.04 6.37-2.67 1.5-.43 2.99-.91 4.52-1.23 1.86-.4 3.75-.7 5.68-.69 1.99.01 3.97.13 5.94.48.59.11 1.17.35 1.76.5.35.09.71.09 1.06.17.54.13 1.08.27 1.61.46 2.2.82 4.36 1.75 6.24 3.27 1.65 1.33 2.69 3.09 3.19 5.15.44 1.8.78 3.61 1.2 5.41.05.21.33.42.55.53.73.36 1.09.95 1.15 1.76.07.87.32 1.79.16 2.61-.15.79-.26 1.44-.01 2.29.24.81-.03 1.76-.07 2.65-.03.57-.28.97-.8 1.17-.47.18-.57.53-.51 1.06.19 1.57.38 3.14.44 4.7.08 2.13.02 4.25.04 6.38.02 1.87.08 3.74.14 5.62.04 1.19-.21 2.3-.72 3.33-.68 1.4-1.36 2.79-2.06 4.17-.1.2-.35.32-.53.48-.09.08-.19.14-.25.24-.77 1.34-2.02 2.07-3.36 2.59-1.94.76-3.92 1.47-6.02 1.72-2.09.25-4.18.52-6.28.57-2.91.08-5.84-.03-8.76-.06-3.54-.03-7-.75-10.45-1.66-1.06-.28-2.16-.35-3.24-.5-.67-.09-1.35-.14-2.02-.21-1.06-.11-1.79-.79-2.54-1.51-2.07-2.03-3.19-4.48-3.3-7.37-.02-.25-.01-.5-.02-.75zm10.29-1.6c.15.14.24.24.36.33.21.15.44.41.65.08.05-.07-.15-.35-.27-.5-.25-.32-.73-.61-.76-.94-.18-2.05-.36-4.12-.37-6.17-.01-2.23.17-4.46.26-6.69.06-1.44.11-2.88.18-4.33.01-.28.03-.59.15-.82.2-.4.49-.74.74-1.11.42-.63.47-.65 1.13-.18.63.46 1.27.45 1.94.26.2-.05.39-.12.59-.15.9-.16 1.8-.32 2.7-.45 1.08-.16 2.01-.6 2.62-1.55.34-.53.73-.53 1.24-.34.76.29 1.5.66 2.28.82 1.48.31 2.98.57 4.48.7.9.08 1.84-.04 2.65-.51.72-.42.86-.4 1.54.18.25.21.57.39.87.43 1.88.27 3.75.53 5.64.72.97.1 1.97.29 2.9-.21.11-.06.43.09.54.23.47.61 1.07.92 1.79 1.05.34.06.69.15 1.01.29.15.07.33.27.35.43.11.71.19 1.42.24 2.14.15 2.06.28 4.11.41 6.17.04.59.05 1.18.07 1.77.07 2.13.14 4.25.22 6.54-.77-.5-.71.24-1.02.43-.07.05-.06.24-.09.36.15.02.31.1.43.06.17-.06.31-.22.57-.41-.14.88-.2 1.64-.38 2.36-.15.58-.44 1.12-.64 1.69-.05.15-.04.33-.03.49.03.43.08.87.14 1.44.17.12.4.01.53-.33.07-.18.14-.39.1-.57-.17-.63.03-1.14.32-1.65.06-.1.08-.23.11-.35.52-2.26.44-4.59.4-6.91-.02-1.04-.1-2.07-.12-3.11-.04-2.45-.17-4.9-.44-7.35-.1-.9-.14-1.81-.2-2.72.05-.04.09-.09.14-.13.37.27.99.49 1.05.81.26 1.28.43 2.6.47 3.9.06 2.22 0 4.44-.01 6.66-.01 2.16-.01 4.32-.01 6.48 0 .33.03.67.04 1.01.08.02.16.04.24.05.1-.26.28-.5.29-.77.04-1.76.04-3.53.05-5.29.01-1.95-.02-3.9.01-5.84.03-2.16-.21-4.31-.6-6.45-.07-.4-.25-.65-.63-.78-1.01-.35-2.02-.72-3.04-1.04-.52-.16-.97-.37-1.31-.85-.45-.63-.8-.68-1.49-.34-.2.1-.42.22-.62.2-1.97-.15-3.95-.27-5.91-.54-.87-.12-1.82-.18-2.55-.95-.4-.42-.93-.41-1.42-.04-.3.22-.65.44-1.01.48-2.07.2-4.15.13-6.18-.58-.7-.24-1.41-.44-2.09-.73-.75-.32-1.26-.17-1.71.5-.47.69-1.15 1.1-2 1.23-1.07.16-2.16.3-3.19.6-.93.27-1.74.19-2.58-.35-.56-.36-.79-.27-1.12.29-.23.38-.31.91-.9.93-.04 0-.1.1-.11.17-.02.37-.29.42-.56.48-1.35.32-2.7.64-4.05.97-.1.03-.18.16-.26.24.12.1.23.27.36.29.2.03.41-.04.61-.08.75-.16 1.49-.32 2.36-.5-.09.61-.21 1.12-.23 1.65-.08 1.91-.14 3.82-.2 5.72-.07 2.13-.16 4.25-.17 6.38-.01 1.13-.03 2.28.59 3.34.14.24.1.66.02.94-.31 1-.75 1.96-1.01 2.98-.29 1.11-.1 2.24.38 3.31.13.3.34.59.69.24-.13-.27-.27-.5-.35-.75-.37-1.21-.4-2.41.04-3.57.24-.64.51-1.27.79-1.89.26-.59.24-1.15-.07-1.75-.18-.36-.34-.78-.36-1.17-.06-1.39-.1-2.79-.07-4.18.09-3.57.24-7.13.36-10.7.03-.74.29-.95.98-.84 0 .59.02 1.18.01 1.76-.03 1.09-.06 2.18-.11 3.27-.1 2.35-.29 4.7-.3 7.06-.01 1.98.2 3.97.3 5.95.01.14-.07.29-.13.43-.23.53-.48 1.04-.68 1.58-.09.25-.1.58.25.63.1.02.31-.26.33-.44.08-.61.35-1.13.84-1.6zm35.44-28.43c0-.06.01-.12.01-.18-.1-.09-.18-.21-.29-.27-.31-.16-.63-.33-.96-.44-2.27-.76-4.55-1.41-6.91-1.76-3.87-.58-7.76-1.02-11.63-.81-2.96.16-5.91.55-8.82 1.05-2.18.38-4.3 1.04-6.41 1.68-2.31.7-4.52 1.65-6.63 2.83-.14.08-.19.34-.28.51.2 0 .43.07.58-.02.52-.29.98-.71 1.53-.94 1.49-.63 2.99-1.26 4.53-1.75 2.09-.66 4.21-1.25 6.34-1.76 1.29-.31 2.65-.37 3.96-.6 1.93-.34 3.87-.49 5.84-.53 2.67-.06 5.33.11 7.99.45 2.57.33 5.14.7 7.64 1.51 1 .32 1.98.75 2.97 1.09.16.07.36-.03.54-.06zm-27.29 30.34c-.04-.04-.09-.08-.13-.12.34-.59.62-1.23 1.03-1.76 1.55-1.96 3.54-3.17 6.04-3.47.12-.01.22-.15.32-.24-.11-.09-.23-.25-.33-.24-.46.02-.93.04-1.38.15-1.28.32-2.4 1.01-3.45 1.78-1.25.91-2.12 2.15-2.76 3.58-.07.16.01.39.02.59.44-.05.76.44 1.3.23 1.13-.42 2.31-.79 3.51-.98 1.37-.22 2.78-.3 4.17-.29 1.46.01 2.94.17 4.4.33 1.6.17 3.16.61 4.61 1.37.66.34 1.21.26 1.79.06.42-.14.66-.51.53-.96-.16-.54-.36-1.11-.69-1.56-1.19-1.66-2.75-2.88-4.5-3.83-.16-.08-.32-.16-.49-.2-.1-.02-.27.01-.29.07-.03.09 0 .27.07.33.12.12.3.19.45.28.53.32 1.08.61 1.57.98.61.47 1.22.95 1.73 1.53.54.61 1.02 1.3 1.4 2.02.29.54-.17 1.03-.77.9-.13-.03-.26-.11-.39-.16-.92-.33-1.83-.74-2.77-.99-2.49-.64-5.01-.88-7.54-.74-.79.04-1.58.14-2.36.28-1.15.19-2.29.43-3.43.67-.54.12-1.1.26-1.66.39zm-6.97-17.45c.19-.1.33-.13.41-.22.48-.49 1-.95 1.41-1.5.94-1.27 2.3-1.71 3.73-1.96 1.72-.3 3.18.57 4.58 1.54.71.49 1.36 1.11 2.26 1.23.13.02.3.08.37.18.2.3.39.2.62.08 1.93-.98 3.96-1 6.04-.29.46.16.91.38 1.38.48 1.27.28 2.23-.34 3.13-1.1 1.84-1.55 3.91-2.13 6.31-1.41.7.21 1.39.42 1.73 1.21.04.09.33.17.42.11.1-.05.16-.3.12-.43-.06-.2-.2-.38-.35-.54-.86-.88-1.99-1.11-3.08-1.24-2.13-.26-4.02.37-5.6 1.82-.55.51-1.19.95-1.96.91-.71-.04-1.42-.25-2.12-.46-1.63-.5-3.26-.6-4.86-.13-.83.24-1.65.57-2.5.15-.57-.28-1.08-.68-1.6-1.06-2.2-1.64-4.46-2.19-7-1.13-1.67.69-2.49 2.13-3.45 3.48-.01.04.01.11.01.28zm8.81 7.56c-.06.1-.11.21-.17.31-.38.69-.51 1.47 0 2.12.52.66 1.22 1.18 2.15.93.66-.18 1.33-.32 2-.48.42-.1.75.01 1.09.35.44.44.91.93 1.46 1.16 1.32.57 2.7.79 3.9-.15.81-.63 1.64-.54 2.53-.22.17.06.33.11.5.16.64.17 1.33.21 1.72-.34.38-.55.57-1.25.8-1.9.02-.07-.23-.26-.36-.39-.07.12-.18.22-.22.35-.09.3-.11.62-.22.91-.28.71-.69.91-1.43.76-.63-.13-1.25-.33-1.89-.42-.32-.05-.69-.01-.98.12-.45.2-.81.6-1.27.75-1.4.47-2.73.19-3.78-.98-.68-.76-1.4-.98-2.29-.72-.54.16-1.09.32-1.63.47-.95.25-2.03-.63-1.87-1.54s.74-1.54 1.42-2.07 1.34-1.05 1.66-1.9c-.41-.27-.41-.27-.62.06-.09.15-.18.3-.29.43-2.31 2.5-7.18 2.55-9.32-.48-.08-.11-.28-.14-.43-.2-.01.16-.1.38-.03.48.31.44.59.95 1.01 1.25 1.23.92 2.6 1.46 4.11 1.42.79-.04 1.59-.16 2.45-.24zm15.55-31.56c-.11.19-.37.47-.32.57.46.84.2 1.66.05 2.46-.06.31-.13.73-.62.69-.79-.07-1.59-.14-2.38-.19-1.8-.1-3.6-.28-5.39-.26-2.13.03-4.24.21-6.36.37-1.25.09-2.5.31-3.75.37-1.19.05-1.54-.34-1.52-1.56.01-.85.11-1.7.14-2.56.01-.15-.13-.31-.2-.47-.1.13-.28.26-.29.4-.08.9-.2 1.8-.17 2.7.05 1.54.46 2.01 1.95 2.08.31.01.62-.02.93-.05 1.64-.17 3.28-.35 4.92-.53.05-.01.1-.02.15-.02 1.56-.1 3.12-.25 4.69-.28 1.06-.02 2.13.12 3.19.2.61.04 1.23.08 1.84.15.86.1 1.72.22 2.58.32 1.48.18 2.29-.34 2.57-1.75.09-.43-.02-.92-.07-1.38-.09-.92-.39-1.78-.86-2.59-.08-.13-.3-.18-.54-.32.03.24.02.32.05.37.58 1.1.76 2.28.88 3.49.09.86-.53 1.6-1.34 1.45.44-1.18.45-2.37-.13-3.66zm-12.57 48.88c.76.12 1.22-.47 1.69-.98 1.3-1.43 3.43-1.61 5.01-.81.42.21.92.54 1.11.94.35.73.87 1.06 1.56 1.23 1.03.27 1.71-.33 1.57-1.4-.05-.37-.18-.73-.29-1.08-.03-.09-.15-.16-.23-.24-.06.09-.17.19-.16.28.03.32.13.64.13.96 0 .26-.05.63-.21.74-.53.37-1.36.01-1.71-.59-.21-.36-.5-.7-.82-.95-1.02-.8-2.21-1.04-3.42-.94-1.12.09-2.14.46-2.86 1.41-.21.27-.43.6-.72.73-.31.14-.74.21-1.06.1-.41-.14-.26-.59-.17-.9.14-.45.34-.88.49-1.33.05-.14.01-.32.01-.47-.14.08-.35.13-.41.26-.24.55-.5 1.11-.64 1.71-.19.8.24 1.3 1.13 1.33zm15.58-16.74c2.08-.04 3.8-.7 4.64-2.82.06-.16-.01-.37-.02-.56-.15.11-.38.19-.45.34-1.06 2.56-4.63 3.03-6.43 1.67-.48-.36-.89-.82-1.36-1.2-.12-.1-.34-.08-.51-.11.03.18.02.38.1.55.06.14.23.22.34.34 1.05 1.04 2.21 1.76 3.69 1.79zm-21.75-5.01c.13 0 .3.01.47.02 1.72.11 3.31-.35 4.85-.97.26-.11.84-.18.65-.63-.24-.55-.58-.01-.85.09-2.67.97-5.37 1.4-8.17.17-.12-.05-.3.05-.45.08.06.17.09.34.18.49.04.08.18.1.27.15.97.45 1.97.6 3.05.6zm1.35-4.39c-.56.07-1.29.13-1.99.27-1.04.21-2.09.46-2.91 1.18-.26.23-.43.58-.6.91-.03.06.18.36.29.38.13.02.31-.13.41-.25s.09-.36.2-.44c.46-.31.92-.69 1.44-.85.89-.27 1.82-.5 2.76-.57 1.48-.12 2.93.17 4.24 1.05.1.07.24.06.36.09-.01-.15.03-.31-.03-.44-.05-.12-.2-.2-.31-.28-1.14-.76-2.42-.88-3.86-1.05zm9.61 21.86c-1.71.1-3.05.18-4.39.28-.14.01-.26.19-.39.28.15.08.31.22.45.22.67-.03 1.33-.13 2-.15.62-.02 1.25.02 1.87.05 1.82.09 3.64.19 5.41.76.17.06.4-.08.6-.12-.15-.14-.28-.38-.44-.41-1.81-.34-3.63-.65-5.11-.91zm14.59-18.03c-.31.17-.6.43-.93.48-.96.15-1.93.33-2.9.28-1.26-.06-2.53-.28-3.53-1.3-.09-.09-.31-.06-.46-.08.02.18-.04.45.06.53.39.33.79.73 1.24.87.91.29 1.86.51 2.81.61 1.24.13 2.45-.01 3.56-.62.28-.17.44-.37.15-.77zm-4.23-2.39c1.59.16 3.02.65 4.24 1.77.11.1.36.04.55.05-.08-.19-.11-.46-.25-.56-1.52-1.15-3.17-1.91-5.06-1.71-.97.1-1.94.25-2.9.41-.16.03-.27.29-.41.44.19.03.4.12.58.09 1.09-.14 2.17-.32 3.25-.49zm-5.59 5.46c.02-.06.04-.13.06-.19-.17-.14-.32-.32-.5-.41-1.43-.63-2.88-1.16-4.44-.98-.63.07-1.24.25-1.84.42-.12.03-.17.29-.26.44.16.05.32.13.48.13.17 0 .33-.07.49-.13.95-.37 1.94-.48 2.94-.21.86.23 1.68.59 2.53.88.18.05.37.03.54.05zm10.59-28.18c-.08.02-.16.04-.24.06.02.23.01.46.06.68.19.8.45 1.6.57 2.41.19 1.23.86 2.14 1.99 2.51.13.04.29.02.43.02.03-.05.07-.1.1-.15-.2-.22-.35-.52-.59-.66-.75-.43-1.26-.96-1.41-1.89-.13-.83-.4-1.64-.63-2.46-.05-.18-.19-.34-.28-.52zm-36.22 5.96c.68-.43 1.19-.74 1.68-1.06.06-.04.07-.16.08-.24.17-.95.34-1.9.49-2.85.02-.12-.07-.27-.12-.41-.1.08-.26.13-.28.23-.22.85-.4 1.71-.64 2.55-.07.24-.23.48-.41.64-.23.2-.54.29-.79.46-.07.05-.12.19-.12.3s.06.23.11.38zm34.01-1.01c.14-.22.3-.37.27-.43-.07-.15-.21-.29-.36-.35-.06-.02-.3.2-.28.27.05.15.2.28.37.51zm4.16 8.73c.13-.26.26-.4.26-.54 0-.11-.17-.22-.27-.33-.11.11-.29.21-.3.33 0 .13.16.28.31.54zm-3.34-11.17c.2.17.33.35.44.34.12-.01.23-.19.34-.29-.1-.11-.2-.31-.31-.32-.12-.01-.25.14-.47.27zm-26.91 46.02c-.19-.1-.38-.2-.56-.31-.05.11-.15.24-.13.33.11.38.35.31.69-.02zm26.28-47.54c-.24-.16-.37-.3-.49-.29-.1.01-.27.2-.25.28.04.14.18.31.3.34.09.01.22-.16.44-.33zm4.94 13.14c.21.14.34.26.48.3.04.01.21-.22.18-.28-.07-.13-.2-.26-.33-.31-.05-.02-.17.15-.33.29zm-3.5-7.97c-.2-.14-.32-.27-.44-.29-.08-.01-.27.16-.26.18.06.15.15.32.27.38.07.05.23-.13.43-.27zm-37.67 20.07c-.1-.04-.19-.09-.29-.13-.07.17-.18.33-.2.5-.01.05.22.15.34.22.05-.2.1-.39.15-.59zm-.96-11.35c.11-.23.21-.35.19-.43-.04-.15-.16-.28-.24-.41-.09.1-.25.2-.25.3.01.14.15.28.3.54zm5.54-9.53c.16.17.26.27.37.37.09-.1.24-.19.24-.3s-.14-.24-.22-.36c-.11.09-.22.17-.39.29zm-.91 2.93c.12-.23.23-.34.24-.47.01-.1-.12-.21-.18-.31-.11.09-.3.16-.32.27-.03.1.12.25.26.51zm-.95 9.76c-.09-.04-.17-.09-.26-.13-.08.16-.18.32-.23.49-.01.03.21.13.32.2.05-.19.11-.37.17-.56zm37.58-1.9c.1-.26.2-.41.2-.56 0-.07-.21-.23-.27-.21-.11.04-.23.19-.23.3 0 .12.14.24.3.47zm-40.63-.17c.19.18.3.35.41.36.09.01.23-.17.27-.29.02-.06-.14-.27-.22-.27-.12-.01-.25.1-.46.2zm9.66 19.71c.08 0 .15-.01.23-.01.01-.19.02-.38.03-.57-.12.01-.25.01-.37.02.04.19.08.37.11.56zm-2.89-33.39c-.04.07-.07.15-.11.22.14.07.29.2.4.18.12-.03.2-.21.29-.33-.11-.09-.2-.22-.32-.25-.07-.03-.17.11-.26.18z" fill="#c5d0d7"/><g fill="#a9b7c1"><path d="m70.64 29.4c.36.55.83.83 1.35.94-.43-1.34-1.1-2.53-2.05-3.54.04.91.21 1.84.7 2.6z"/><path d="m75.32 44.09c-1.44-.83-3.08-1.36-4.74-1.76-.03.11-.1.24-.17.43-.16-.23-.3-.35-.3-.46 0-.02.01-.05.02-.07-.93-.21-1.86-.39-2.74-.57-3.92-.79-8.01 0-11.99-.56-2.29-.32-4.58-.8-6.9-.89-2.22-.09-4.34.39-6.42 1.11-3.54 1.22-6.84 1.89-10.56 1.94.24.54.58 1.01 1.03 1.33.01-.02.02-.04.03-.06.09.04.17.09.26.13-.01.03-1.14.53-1.15.56.24.13 1.63-.23 1.93-.18s.3.37.14.55c.19-.04.38-.09.57-.14.28-.06.54-.11.56-.48 0-.06.06-.16.11-.17.59-.02.67-.55.9-.93.33-.55.56-.65 1.12-.29.84.54 1.65.62 2.58.35 1.03-.3 2.12-.44 3.19-.6.85-.12 1.53-.54 2-1.23.46-.67.96-.82 1.71-.5.68.29 1.39.49 2.09.73 2.04.71 4.11.77 6.18.58.35-.03.71-.26 1.01-.48.49-.37 1.01-.37 1.42.04.74.77 1.68.83 2.55.95 1.96.26 3.94.38 5.91.54.21.02.43-.11.62-.2.68-.34 1.04-.29 1.49.34.34.48.79.68 1.31.85 1.02.32 2.02.7 3.04 1.04.11.04.2.09.27.15.04-.02.09-.04.14-.05.91-.11 2.12.22 2.17 1.23.31-.23.47-.56.5-1 .01-.74.2-1.52.12-2.23z"/><path d="m58.37 73.66c.16-.11.21-.48.21-.74 0-.16-.02-.31-.05-.47-.23.05-.5-.12-.43-.42.1-.36-.18-.64-.45-.83-.05-.03-.08-.08-.11-.12-1.65-.46-3.32-.56-5-.65-.62-.03-1.25-.07-1.87-.05-.58.02-1.17.09-1.75.13-.29.11-.55.25-.78.46 0 .08 0 .15-.02.22-.15.45-.35.87-.49 1.33-.1.31-.24.75.17.9.32.11.75.04 1.06-.1.29-.14.51-.46.72-.73.72-.95 1.74-1.31 2.86-1.41 1.21-.1 2.4.14 3.42.94.16.12.3.27.44.42.12-.02.24.03.31.17.12.26.25.5.39.72.39.36.97.51 1.37.23z"/><path d="m60.92 64.24c-.51-.58-1.12-1.06-1.73-1.53-.36-.28-.76-.5-1.15-.73-.09.11-.24.16-.39.04-.6-.44-1.24-.83-1.92-1.13-.02.02-.05.03-.07.05-1.2.94-2.58.72-3.9.15-.13-.06-.26-.13-.38-.21-.3.13-.6.23-.91.3-.04.04-.09.07-.14.07-2.5.29-4.49 1.5-6.04 3.47-.41.53-.69 1.17-1.03 1.76.04.04.09.08.13.12.56-.13 1.12-.27 1.68-.39 1.14-.23 2.28-.47 3.43-.67.78-.13 1.57-.24 2.36-.28 2.53-.13 5.05.1 7.54.74.94.24 1.85.65 2.77.99.13.05.26.13.39.16.6.13 1.06-.36.77-.9-.39-.71-.87-1.4-1.41-2.01z"/><path d="m60.43 58.84c-1.31-2.72-5.27-.12-7.49-.28-1.97-.14-5.74-2.4-7.41-.72-.08.08-.17.11-.26.1v.01c-.16.91.92 1.79 1.87 1.54.55-.14 1.09-.31 1.63-.47.89-.26 1.61-.03 2.29.72 1.05 1.17 2.38 1.46 3.78.98.19-.06.36-.17.53-.29.02-.19.17-.35.39-.27.11-.07.23-.14.35-.2.29-.13.66-.17.98-.12.63.09 1.26.29 1.89.42.75.16 1.15-.05 1.43-.76.07-.17.11-.36.14-.54-.04-.01-.09-.05-.12-.12z"/><path d="m69.37 48.3c-.15-.29-.36-.55-.6-.78-.12.02-.34-.04-.37-.12-.06-.13-.13-.24-.2-.34-.36-.25-.76-.45-1.14-.6-.11-.04-.17-.12-.21-.21-.06-.02-.13-.04-.19-.06-2.4-.73-4.47-.14-6.31 1.41-.9.76-1.86 1.38-3.13 1.1-.47-.1-.92-.32-1.38-.48-2.08-.71-4.11-.69-6.04.29-.23.12-.42.22-.62-.08-.07-.1-.24-.17-.37-.18-.89-.12-1.54-.74-2.26-1.23-1.4-.97-2.86-1.83-4.58-1.54-1.43.25-2.79.69-3.73 1.96-.41.55-.93 1.01-1.41 1.5-.03.03-.07.04-.1.06-.01.54.31.89.9.91.17 0 .27.1.31.22.15-.29.31-.59.54-.79.82-.72 1.87-.97 2.91-1.18.7-.14 1.43-.2 1.99-.27 1.39.17 2.63.29 3.75.97.12-.15.34-.23.53-.08 1.93 1.53 4.43.35 6.64.36 2.19 0 4.21.28 6.33-.45.3-.1.47.19.4.43.6-.09 1.2-.17 1.8-.24 1.6-.17 3.02.35 4.34 1.2.03-.06.09-.11.15-.14.05-.1.14-.19.29-.2.86-.03 2.36-.26 1.76-1.44z"/><path d="m60.7 26.77c-1.27-.27-2.43-.62-3.75-.62-2.29.01-4.59.35-6.84.75-2.97.52-6.68 1.44-9.61.23-.01.15-.02.31-.02.46-.01 1.23.33 1.62 1.52 1.56 1.26-.05 2.5-.27 3.75-.37 2.12-.15 4.23-.34 6.36-.37 1.79-.02 3.6.16 5.39.26.8.05 1.59.12 2.38.19.49.04.56-.38.62-.69.09-.47.21-.94.21-1.42 0 .02-.01.02-.01.02z"/><path d="m56.26 73.57c-.09-.12-.17-.24-.24-.39-.19-.4-.69-.72-1.11-.94-1.57-.8-3.71-.62-5.01.81-.47.52-.93 1.1-1.69.98-.44-.01-.76-.14-.96-.37-.01.01-.02.01-.04.02-2.42.64-5.02 1.15-7.6 1.22.15.08.29.16.44.24-.34.32-.58.4-.69.02-.02-.07.04-.17.09-.26-1.13.03-1.64-1.08-2.74-1.25-1.31-.21-3.4.49-4.13-.73-.72-1.21-.51-2.83-.5-4.16 0-.1.04-.17.09-.23-.01-.39.03-.77.13-1.16.26-1.02.7-1.98 1.01-2.98.09-.29.12-.7-.02-.94-.62-1.07 1.27-.6 1.27-1.73.01-2.13-.07-5.52 0-7.65.06-1.91.38-5.43.46-7.34.02-.52-1.81.24-1.72-.37-.86.18-1.61.35-2.36.5-.2.04-.41.11-.61.08-.13-.02-.24-.19-.36-.29.09-.08.16-.21.26-.24 1.03-.25 2.06-.5 3.08-.74-3.14-.58-3.65-5.36-2.22-7.86-.09.04-.17.07-.26.11-.54.23-1.01.65-1.53.94-.15.08-.38.02-.58.02.09-.17.13-.43.28-.51.75-.43 1.53-.81 2.31-1.17-.41-1.77-.79-3.87-.86-5.94-.22.38-.43.76-.63 1.17-.84 1.74-1.49 3.59-2.19 5.4-.14.35-.15.76-.22 1.14-.04.23-.03.51-.15.67-1.14 1.56-1.72 3.38-2.09 5.29-.13.65-.06 1.28.4 1.77.31.33.74.53 1.13.77.26.16.61.25.22.64-.13.13-.18.38-.21.58-.23 1.74-.47 3.48-.68 5.23-.16 1.31-.24 2.63-.45 3.92-.45 2.79-.75 5.6-.66 8.46 0 .25 0 .5.01.75.11 2.89 1.23 5.33 3.3 7.37.74.73 1.48 1.41 2.54 1.51.67.07 1.35.12 2.02.21 1.08.15 2.18.22 3.24.5 3.45.91 6.91 1.63 10.45 1.66 2.92.02 5.85.14 8.76.06 2.1-.06 4.19-.33 6.28-.57 2.1-.25 4.07-.96 6.02-1.72 1.34-.52 2.59-1.25 3.36-2.59.06-.1.16-.16.25-.24.18-.16.42-.28.53-.48.7-1.38 1.38-2.77 2.06-4.17.19-.4.34-.81.45-1.23-3.69 4.95-10.25 10.43-17.93 6.21zm-26.02-31.19c.08 0 .24.21.22.27-.04.12-.18.3-.27.29-.11-.01-.22-.18-.41-.36.21-.1.33-.21.46-.2zm-1.09-.89c-.16-.26-.3-.4-.3-.54 0-.1.16-.21.25-.31.08.14.2.26.24.41.02.1-.08.21-.19.44zm.81 11.94c-.12-.07-.35-.17-.34-.22.02-.18.13-.34.2-.5.1.04.19.09.29.13z"/></g><path d="m74.75 74.7c-.53-.07-1.02-.15-1.23-.69-.19-.49.02-.91.33-1.26.35-.4.78-.52 1.31-.33.69.25 1.1.66 1.09 1.11-.02.49-.52 1-1.13 1.13-.15.04-.29.04-.37.04z" fill="#c5d0d7"/><path d="m22.89 74.12c-.05-.06-.25-.19-.27-.34-.05-.33.7-1.04.99-.91.2.09.4.37.45.59.07.3-.57.69-1.17.66z" fill="#c5d0d7"/><path d="m79.02 72.68c.01.31.02.62.03.93-.28-.02-.56-.05-.83-.07.16-.32.32-.64.47-.96.11.03.22.06.33.1z" fill="#e1ded0"/><path d="m35.39 64.54c-.48.47-.76.99-.85 1.63-.02.17-.23.45-.33.44-.36-.06-.35-.39-.25-.63.2-.54.46-1.05.68-1.58.06-.14.14-.29.13-.43-.1-1.98-.31-3.97-.3-5.95.01-2.36.2-4.71.3-7.06.05-1.09.08-2.18.11-3.27.01-.58 0-1.17-.01-1.76-.69-.12-.96.1-.98.84-.12 3.57-.26 7.13-.36 10.7-.04 1.39.01 2.79.07 4.18.02.39.18.81.36 1.17.3.6.33 1.16.07 1.75-.28.62-.54 1.25-.79 1.89-.44 1.16-.41 2.36-.04 3.57.08.25.22.48.35.75-.35.35-.56.06-.69-.24-.48-1.07-.67-2.2-.38-3.31.26-1.02.7-1.98 1.01-2.98.09-.29.12-.7-.02-.94-.62-1.07-.6-2.22-.59-3.34.01-2.13.11-4.25.17-6.38.06-1.91.11-3.82.2-5.72.02-.52.14-1.04.23-1.65-.86.18-1.61.35-2.36.5-.2.04-.41.11-.61.08-.13-.02-.24-.19-.36-.29.09-.08.16-.21.26-.24 1.35-.33 2.7-.66 4.05-.97.28-.06.54-.11.56-.48 0-.06.06-.16.11-.17.59-.02.67-.55.9-.93.33-.55.56-.65 1.12-.29.84.54 1.65.62 2.58.35 1.03-.3 2.12-.44 3.19-.6.85-.12 1.53-.54 2-1.23.46-.67.96-.82 1.71-.5.68.29 1.39.49 2.09.73 2.04.71 4.11.77 6.18.58.35-.03.71-.26 1.01-.48.49-.37 1.01-.37 1.42.04.74.77 1.68.83 2.55.95 1.96.26 3.94.38 5.91.54.21.02.43-.11.62-.2.68-.34 1.04-.29 1.49.34.34.48.79.68 1.31.85 1.02.32 2.02.7 3.04 1.04.38.13.55.39.63.78.4 2.14.63 4.28.6 6.45-.03 1.95 0 3.9-.01 5.84-.01 1.77-.01 3.53-.05 5.29-.01.26-.19.51-.29.77-.08-.02-.16-.04-.24-.05-.02-.34-.04-.67-.04-1.01 0-2.16 0-4.32.01-6.48.01-2.22.07-4.44.01-6.66-.04-1.3-.21-2.61-.47-3.9-.06-.32-.69-.54-1.05-.81-.05.04-.09.09-.14.13.06.91.1 1.82.2 2.72.27 2.45.4 4.9.44 7.35.02 1.04.11 2.07.12 3.11.04 2.32.12 4.65-.4 6.91-.03.12-.05.25-.11.35-.29.5-.49 1.02-.32 1.65.05.17-.03.39-.1.57-.13.33-.36.45-.53.33-.06-.57-.11-1.01-.14-1.44-.01-.16-.03-.35.03-.49.2-.57.5-1.11.64-1.69.18-.72.25-1.48.38-2.36-.26.2-.4.35-.57.41-.12.04-.29-.04-.43-.06.03-.12.01-.32.09-.36.3-.19.25-.92 1.02-.43-.08-2.29-.15-4.42-.22-6.54-.02-.59-.03-1.18-.07-1.77-.13-2.06-.26-4.11-.41-6.17-.05-.71-.13-1.43-.24-2.14-.02-.16-.2-.37-.35-.43-.32-.14-.67-.23-1.01-.29-.72-.13-1.32-.44-1.79-1.05-.11-.14-.43-.29-.54-.23-.93.5-1.93.31-2.9.21-1.88-.2-3.76-.45-5.64-.72-.3-.04-.63-.23-.87-.43-.68-.57-.82-.6-1.54-.18-.81.48-1.75.59-2.65.51-1.5-.13-3-.39-4.48-.7-.78-.16-1.52-.53-2.28-.82-.51-.19-.91-.19-1.24.34-.6.95-1.53 1.39-2.62 1.55-.9.13-1.8.29-2.7.45-.2.03-.4.1-.59.15-.67.19-1.31.19-1.94-.26-.65-.48-.7-.45-1.13.18-.25.37-.54.72-.74 1.11-.12.23-.13.54-.15.82-.07 1.44-.12 2.88-.18 4.33-.09 2.23-.27 4.45-.26 6.69.01 2.05.18 4.12.37 6.17.03.32.51.62.76.94.12.15.32.43.27.5-.21.33-.44.07-.65-.08-.11-.11-.2-.22-.35-.36z"/><path d="m70.83 36.11c-.18.03-.38.13-.54.07-1-.35-1.97-.77-2.97-1.09-2.5-.81-5.07-1.18-7.64-1.51-2.66-.34-5.32-.51-7.99-.45-1.97.04-3.91.2-5.84.53-1.32.23-2.67.29-3.96.6-2.14.51-4.25 1.1-6.34 1.76-1.54.49-3.04 1.12-4.53 1.75-.54.23-1.01.65-1.53.94-.15.08-.38.02-.58.02.09-.17.13-.43.28-.51 2.1-1.19 4.32-2.13 6.63-2.83 2.11-.64 4.24-1.31 6.41-1.68 2.91-.5 5.86-.89 8.82-1.05 3.87-.21 7.76.23 11.63.81 2.36.35 4.64 1 6.91 1.76.33.11.65.28.96.44.11.06.19.18.29.27 0 .05-.01.11-.01.17z"/><path d="m43.54 66.45c.56-.13 1.12-.27 1.68-.39 1.14-.23 2.28-.47 3.43-.67.78-.13 1.57-.24 2.36-.28 2.53-.13 5.05.1 7.54.74.94.24 1.85.65 2.77.99.13.05.26.13.39.16.6.13 1.06-.36.77-.9-.39-.72-.87-1.41-1.4-2.02-.51-.58-1.12-1.06-1.73-1.53-.49-.37-1.04-.66-1.57-.98-.15-.09-.32-.16-.45-.28-.07-.07-.1-.24-.07-.33.02-.06.2-.1.29-.07.17.04.33.12.49.2 1.75.95 3.31 2.17 4.5 3.83.32.45.53 1.02.69 1.56.13.45-.11.82-.53.96-.58.2-1.14.28-1.79-.06-1.45-.75-3.01-1.2-4.61-1.37-1.47-.15-2.94-.31-4.4-.33-1.4-.01-2.8.08-4.17.29-1.2.19-2.38.55-3.51.98-.54.2-.86-.28-1.3-.23-.01-.2-.09-.44-.02-.59.63-1.43 1.51-2.67 2.76-3.58 1.06-.77 2.17-1.46 3.45-1.78.44-.11.92-.13 1.38-.15.1 0 .22.16.33.24-.11.08-.21.22-.32.24-2.5.29-4.49 1.5-6.04 3.47-.41.53-.69 1.17-1.03 1.76.03.04.07.08.11.12z"/><path d="m36.57 49c0-.17-.02-.24 0-.27.96-1.35 1.78-2.79 3.45-3.48 2.54-1.06 4.8-.51 7 1.13.51.38 1.03.79 1.6 1.06.86.42 1.68.09 2.5-.15 1.61-.47 3.23-.36 4.86.13.69.21 1.41.42 2.12.46.77.04 1.41-.4 1.96-.91 1.58-1.45 3.47-2.08 5.6-1.82 1.08.13 2.22.35 3.08 1.24.15.15.29.34.35.54.04.13-.02.37-.12.43-.1.05-.38-.02-.42-.11-.35-.79-1.03-1-1.73-1.21-2.4-.73-4.47-.14-6.31 1.41-.9.76-1.86 1.38-3.13 1.1-.47-.1-.92-.32-1.38-.48-2.08-.71-4.11-.69-6.04.29-.23.12-.42.22-.62-.08-.07-.1-.24-.17-.37-.18-.89-.12-1.54-.74-2.26-1.23-1.4-.97-2.86-1.83-4.58-1.54-1.43.25-2.79.69-3.73 1.96-.41.55-.93 1.01-1.41 1.5-.09.09-.23.12-.42.21z"/><path d="m45.38 56.56c-.85.08-1.65.2-2.46.22-1.51.03-2.88-.51-4.11-1.42-.41-.31-.7-.81-1.01-1.25-.07-.1.01-.32.03-.48.15.07.35.09.43.2 2.14 3.04 7.01 2.99 9.32.48.12-.13.2-.28.29-.43.21-.33.21-.33.62-.06-.32.85-.98 1.38-1.66 1.9-.68.53-1.26 1.16-1.42 2.07s.92 1.79 1.87 1.54c.55-.14 1.09-.31 1.63-.47.89-.26 1.61-.03 2.29.72 1.05 1.17 2.38 1.46 3.78.98.46-.15.82-.56 1.27-.75.29-.13.66-.17.98-.12.63.09 1.26.29 1.89.42.75.16 1.15-.05 1.43-.76.11-.28.13-.61.22-.91.04-.13.14-.23.22-.35.13.13.38.32.36.39-.23.65-.42 1.35-.8 1.9-.39.56-1.08.52-1.72.34-.17-.05-.34-.1-.5-.16-.89-.32-1.72-.41-2.53.22-1.2.94-2.58.72-3.9.15-.54-.24-1.01-.72-1.46-1.16-.34-.33-.67-.44-1.09-.35-.67.15-1.34.3-2 .48-.93.25-1.63-.26-2.15-.93-.51-.65-.39-1.43 0-2.12.06-.08.12-.19.18-.29z"/><path d="m60.93 25c.58 1.28.57 2.48.14 3.66.81.15 1.43-.59 1.34-1.45-.12-1.2-.3-2.39-.88-3.49-.03-.06-.02-.14-.05-.37.25.14.47.19.54.32.46.8.77 1.67.86 2.59.04.46.15.95.07 1.38-.29 1.41-1.1 1.93-2.57 1.75-.86-.11-1.72-.23-2.58-.32-.61-.07-1.23-.11-1.84-.15-1.06-.07-2.13-.22-3.19-.2-1.57.03-3.12.18-4.69.28-.05 0-.1.02-.15.02-1.64.18-3.28.36-4.92.53-.31.03-.62.06-.93.05-1.49-.07-1.9-.54-1.95-2.08-.03-.9.09-1.8.17-2.7.01-.15.19-.27.29-.4.07.16.2.32.2.47-.03.85-.13 1.7-.14 2.56-.01 1.23.33 1.62 1.52 1.56 1.26-.05 2.5-.27 3.75-.37 2.12-.15 4.23-.34 6.36-.37 1.79-.02 3.6.16 5.39.26.8.05 1.59.12 2.38.19.49.04.56-.38.62-.69.15-.8.42-1.62-.05-2.46-.06-.1.2-.37.31-.57z"/><path d="m48.36 73.88c-.89-.02-1.32-.53-1.13-1.34.14-.59.4-1.15.64-1.71.06-.13.27-.17.41-.26 0 .16.04.33-.01.47-.15.45-.35.87-.49 1.33-.1.31-.24.75.17.9.32.11.75.04 1.06-.1.29-.14.51-.46.72-.73.72-.95 1.74-1.31 2.86-1.41 1.21-.1 2.4.14 3.42.94.32.25.61.59.82.95.35.6 1.18.96 1.71.59.16-.11.21-.48.21-.74 0-.32-.1-.64-.13-.96-.01-.09.11-.18.16-.28.08.08.2.14.23.24.12.36.25.72.29 1.08.14 1.07-.54 1.67-1.57 1.4-.69-.18-1.21-.51-1.56-1.23-.19-.4-.69-.72-1.11-.94-1.57-.8-3.71-.62-5.01.81-.47.52-.93 1.11-1.69.99z"/><path d="m63.94 57.14c-1.48-.03-2.65-.75-3.68-1.79-.11-.11-.28-.2-.34-.34-.08-.16-.07-.36-.1-.55.17.03.39.01.51.11.47.38.88.84 1.36 1.2 1.8 1.36 5.37.89 6.43-1.67.06-.15.29-.23.45-.34.01.19.08.4.02.56-.85 2.12-2.57 2.78-4.65 2.82z"/><path d="m42.19 52.13c-1.08 0-2.09-.15-3.05-.61-.1-.04-.23-.07-.27-.15-.09-.15-.12-.33-.18-.49.15-.03.33-.13.45-.08 2.81 1.24 5.5.8 8.17-.17.27-.1.61-.64.85-.09.19.44-.38.52-.65.63-1.55.62-3.14 1.08-4.85.97-.17 0-.34 0-.47-.01z"/><path d="m43.54 47.74c1.44.18 2.72.3 3.87 1.04.12.08.26.16.31.28.06.13.02.29.03.44-.12-.03-.26-.02-.36-.09-1.31-.88-2.76-1.17-4.24-1.05-.93.08-1.86.3-2.76.57-.52.16-.98.54-1.44.85-.11.08-.1.32-.2.44s-.28.27-.41.25c-.12-.02-.32-.31-.29-.38.16-.33.33-.68.6-.91.82-.72 1.87-.97 2.91-1.18.69-.13 1.42-.19 1.98-.26z"/><path d="m53.15 69.6c1.48.26 3.3.57 5.11.91.16.03.3.27.44.41-.2.05-.42.18-.6.12-1.78-.57-3.6-.67-5.41-.76-.62-.03-1.25-.07-1.87-.05-.67.02-1.33.12-2 .15-.14.01-.3-.14-.45-.22.13-.1.25-.27.39-.28 1.34-.1 2.68-.17 4.39-.28z"/><path d="m67.74 51.57c.28.4.13.61-.17.77-1.1.62-2.32.75-3.56.62-.94-.1-1.89-.32-2.81-.61-.45-.14-.86-.54-1.24-.87-.09-.08-.04-.35-.06-.53.16.02.37-.01.46.08 1 1.01 2.27 1.24 3.53 1.3.97.04 1.94-.13 2.9-.28.36-.05.65-.32.95-.48z"/><path d="m63.51 49.18c-1.08.17-2.16.35-3.25.5-.18.03-.39-.06-.58-.09.14-.15.25-.41.41-.44.96-.17 1.93-.31 2.9-.41 1.89-.2 3.54.56 5.06 1.71.14.1.17.37.25.56-.19-.01-.44.05-.55-.05-1.22-1.13-2.65-1.62-4.24-1.78z"/><path d="m57.92 54.64c-.18-.02-.36 0-.53-.06-.84-.29-1.67-.65-2.53-.88-1-.26-1.99-.15-2.94.21-.16.06-.33.13-.49.13s-.32-.08-.48-.13c.08-.15.14-.4.26-.44.6-.18 1.22-.35 1.84-.42 1.56-.18 3.01.35 4.44.98.19.08.34.27.5.41-.02.07-.05.13-.07.2z"/><path d="m68.51 26.46c.1.18.23.34.28.53.23.81.5 1.63.63 2.46.14.93.66 1.46 1.41 1.89.24.14.4.43.59.66-.03.05-.07.1-.1.15-.14-.01-.3.02-.43-.02-1.14-.37-1.81-1.29-1.99-2.51-.12-.81-.39-1.6-.57-2.41-.05-.22-.04-.45-.06-.68.08-.03.16-.05.24-.07z"/><path d="m32.29 32.42c-.05-.15-.11-.27-.11-.39 0-.1.05-.25.12-.3.26-.17.56-.27.79-.46.18-.16.35-.4.41-.64.23-.84.42-1.7.64-2.55.03-.1.19-.15.28-.23.04.14.14.28.12.41-.15.95-.32 1.9-.49 2.85-.01.08-.03.2-.08.24-.49.33-.99.64-1.68 1.07z"/><path d="m66.3 31.41c-.17-.23-.32-.36-.36-.52-.02-.07.22-.29.28-.27.14.06.29.2.36.35.03.07-.13.22-.28.44z"/><path d="m70.46 40.14c-.15-.26-.31-.41-.3-.53s.19-.22.3-.33c.09.11.26.22.27.33-.01.13-.14.27-.27.53z"/><path d="m67.12 28.97c.22-.13.35-.28.48-.27.11.01.2.2.31.32-.11.1-.22.29-.34.29-.12.01-.25-.17-.45-.34z"/><path d="m40.21 74.99c-.34.32-.58.4-.69.02-.03-.09.08-.22.13-.33.18.11.37.21.56.31z"/><path d="m66.49 27.45c-.22.17-.35.35-.44.32-.12-.04-.26-.21-.3-.34-.02-.07.15-.27.25-.28.12 0 .25.14.49.3z"/><path d="m71.43 40.59c.16-.14.28-.31.33-.29.13.06.26.18.33.31.03.05-.15.29-.18.28-.14-.05-.26-.16-.48-.3z"/><path d="m67.93 32.62c-.2.14-.36.31-.43.28-.12-.06-.21-.24-.27-.38-.01-.02.18-.2.26-.18.13.01.24.14.44.28z"/><path d="m30.26 52.69c-.05.2-.1.39-.15.59-.12-.07-.35-.17-.34-.22.02-.18.13-.34.2-.5.1.04.2.09.29.13z"/><path d="m29.3 41.34c-.16-.26-.3-.4-.3-.54 0-.1.16-.21.25-.31.08.14.2.26.24.41.02.09-.08.21-.19.44z"/><path d="m34.84 31.81c.17-.12.28-.2.39-.28.08.12.22.24.22.36 0 .1-.16.2-.24.3-.11-.11-.21-.21-.37-.38z"/><path d="m33.93 34.74c-.14-.25-.29-.4-.27-.51s.21-.18.32-.27c.07.1.19.21.18.31 0 .13-.11.24-.23.47z"/><path d="m32.98 44.5c-.06.19-.11.37-.17.56-.11-.07-.33-.17-.32-.2.05-.17.15-.33.23-.49.09.04.17.08.26.13z"/><path d="m70.56 42.6c-.16-.23-.3-.35-.3-.46s.12-.25.23-.3c.06-.02.27.14.27.21 0 .15-.1.29-.2.55z"/><path d="m29.93 42.43c.21-.1.34-.21.46-.21.08 0 .24.21.22.27-.04.12-.18.3-.27.29-.11 0-.22-.17-.41-.35z"/><path d="m39.59 62.14c-.04-.19-.07-.37-.11-.56.12-.01.25-.01.37-.02-.01.19-.02.38-.03.57-.07 0-.15.01-.23.01z"/><path d="m36.7 28.75c.09-.07.19-.21.26-.19.12.03.22.16.32.25-.1.12-.17.3-.29.33-.11.03-.27-.11-.4-.18.04-.06.07-.14.11-.21z"/></svg>