<?xml version="1.0" encoding="utf-8"?>
<!-- Generator: Adobe Illustrator 24.2.1, SVG Export Plug-In . SVG Version: 6.00 Build 0)  -->
<svg version="1.1" id="Capa_1" xmlns="http://www.w3.org/2000/svg" xmlns:xlink="http://www.w3.org/1999/xlink" x="0px" y="0px"
	 viewBox="0 0 99.21 99.21" style="enable-background:new 0 0 99.21 99.21;" xml:space="preserve">
<style type="text/css">
	.st0{fill:#E1CBB6;}
	.st1{fill:#292929;}
	.st2{fill:#C6AC94;}
	.st3{fill:#DFCBC0;}
	.st4{fill:#D9BA80;}
	.st5{fill:#CDA258;}
	.st6{fill:#C39D79;}
	.st7{fill:#B0714A;}
	.st8{fill:#666666;}
	.st9{fill:#999999;}
	.st10{fill:#E5BE64;}
	.st11{fill:#FFFFFF;}
	.st12{fill:#CBC8B2;}
	.st13{fill:#985F43;}
	.st14{fill:#D4BAAC;}
	.st15{fill:#252723;}
	.st16{fill:#BBA471;}
	.st17{fill:#B8BBA4;}
	.st18{fill:#9597A0;}
	.st19{fill:#957B59;}
	.st20{fill:#B71C32;}
	.st21{fill:#B1A98C;}
	.st22{fill:#CF8531;}
	.st23{fill:#F0D32F;}
	.st24{fill:#FCF5AD;}
	.st25{opacity:0.2;fill:#FFFFFF;}
	.st26{fill:#BE9B65;}
	.st27{fill:#AE8248;}
	.st28{fill:#95B849;}
	.st29{fill:#C7D13E;}
	.st30{stroke:#000000;stroke-width:0.1898;stroke-miterlimit:10;}
	.st31{fill:#6B6B6B;}
	.st32{fill:#6BA550;}
	.st33{fill:#F0D559;}
	.st34{stroke:#000000;stroke-width:0.3796;stroke-miterlimit:10;}
	.st35{fill:#C5D0D7;}
	.st36{fill:#A9B7C1;}
	.st37{fill:#E1DED0;}
	.st38{fill:#D7BEB0;}
	.st39{fill:#D9BAAB;}
	.st40{fill:#DAE1E6;}
	.st41{fill:#B9CA41;}
	.st42{fill:#93B2D9;}
	.st43{fill:#E4BB5E;}
	.st44{fill:#ADB7BE;}
	.st45{fill:#9EBC47;}
	.st46{fill:#56649A;}
	.st47{fill:#83A0CB;}
	.st48{fill:#7BAC4D;}
	.st49{fill:#FBEF74;}
	.st50{fill:#D18CAA;}
	.st51{fill:#A880A7;}
	.st52{fill:#E1E6EA;}
	.st53{fill:#DCA549;}
	.st54{fill:#0F9B00;}
	.st55{fill:#E8E9EA;}
	.st56{fill:#222221;}
</style>
<g>
	<path class="st34" d="M75.97,40.26c0.03,0.43,0.23,0.95,0.06,1.27c-0.33,0.63-0.21,1.14,0.04,1.75c0.1,0.24-0.05,0.59-0.07,0.89
		c-0.05,0.73-0.08,1.46-0.12,2.19c-0.04,0.62-0.32,1.07-0.85,1.35c-0.33,0.17-0.46,0.4-0.4,0.85c0.39,2.89,0.49,5.79,0.34,8.69
		c-0.06,1.21,0.04,2.43,0.06,3.65c0.02,1.91,0.22,3.86-0.01,5.72c-0.17,1.33-0.89,2.57-1.43,3.82c-0.41,0.94-0.91,1.84-1.41,2.74
		c-0.16,0.29-0.44,0.5-0.67,0.75c-0.06,0.06-0.16,0.08-0.2,0.14c-0.84,1.33-2.15,1.99-3.53,2.51c-2.26,0.86-4.57,1.6-7.01,1.85
		c-1.81,0.19-3.63,0.35-5.46,0.38c-3.02,0.06-6.05,0.02-9.08-0.02c-2.31-0.03-4.6-0.37-6.87-0.9c-1.95-0.46-3.92-0.86-5.89-1.24
		c-1.21-0.23-2.45-0.32-3.65-0.6c-0.58-0.14-1.19-0.49-1.64-0.91c-0.5-0.46-0.85-1.12-1.26-1.69c-0.19-0.26-0.39-0.52-0.58-0.77
		c-0.86-1.15-1.39-2.46-1.55-3.86c-0.18-1.58-0.32-3.18-0.28-4.75c0.04-1.58,0.33-3.15,0.49-4.72c0.11-1.02,0.16-2.05,0.29-3.06
		c0.17-1.3,0.42-2.58,0.6-3.87c0.21-1.48,0.38-2.96,0.54-4.44c0.02-0.14-0.12-0.35-0.24-0.47c-0.34-0.36-0.77-0.65-1.06-1.04
		c-0.59-0.78-0.37-1.63-0.2-2.47c0.34-1.75,1.02-3.32,1.94-4.8c0.15-0.23,0.1-0.59,0.2-0.86c0.75-2.04,1.36-4.16,2.3-6.1
		c1.63-3.36,4.09-6,7.29-7.84c1.55-0.9,3.24-1.46,4.96-1.93c1.62-0.44,3.24-0.9,4.87-1.32c2.19-0.57,4.43-0.84,6.72-0.7
		c1.78,0.11,3.57,0.2,5.35,0.39c0.67,0.07,1.33,0.4,2,0.59c0.2,0.06,0.41,0.03,0.62,0.04c0.32,0.03,0.67,0,0.96,0.1
		c2.09,0.76,4.13,1.61,6.08,2.76c0.98,0.58,1.75,1.31,2.42,2.15c0.68,0.85,1.19,1.83,1.73,2.79c0.81,1.44,0.8,3.09,1.28,4.62
		c0.2,0.65,0.3,1.34,0.5,1.99c0.07,0.24,0.27,0.53,0.48,0.64c0.66,0.35,1.02,0.9,1.12,1.62c0.11,0.71,0.18,1.43,0.27,2.14
		C75.99,40.26,75.98,40.26,75.97,40.26z M25.1,66.14c0,0.25,0,0.5,0.01,0.75c0.11,2.89,1.23,5.33,3.3,7.37
		c0.74,0.73,1.48,1.41,2.54,1.51c0.67,0.07,1.35,0.12,2.02,0.21c1.08,0.15,2.18,0.22,3.24,0.5c3.45,0.91,6.91,1.63,10.45,1.66
		c2.92,0.02,5.85,0.14,8.76,0.06c2.1-0.06,4.19-0.33,6.28-0.57c2.1-0.25,4.07-0.96,6.02-1.72c1.34-0.52,2.59-1.25,3.36-2.59
		c0.06-0.1,0.16-0.16,0.25-0.24c0.18-0.16,0.42-0.28,0.53-0.48c0.7-1.38,1.38-2.77,2.06-4.17c0.5-1.04,0.75-2.14,0.72-3.33
		c-0.06-1.87-0.11-3.75-0.14-5.62c-0.03-2.13,0.03-4.25-0.04-6.38c-0.06-1.57-0.25-3.14-0.44-4.7c-0.06-0.53,0.04-0.87,0.51-1.06
		c0.52-0.2,0.77-0.61,0.8-1.17c0.05-0.89,0.31-1.84,0.07-2.65c-0.25-0.85-0.14-1.49,0.01-2.29c0.16-0.82-0.09-1.74-0.16-2.61
		c-0.06-0.8-0.41-1.39-1.15-1.76c-0.22-0.11-0.5-0.32-0.55-0.53c-0.42-1.8-0.76-3.62-1.2-5.41c-0.5-2.06-1.54-3.82-3.19-5.15
		c-1.88-1.51-4.04-2.44-6.24-3.27c-0.52-0.2-1.07-0.33-1.61-0.46c-0.35-0.08-0.72-0.08-1.06-0.17c-0.59-0.15-1.16-0.4-1.76-0.5
		c-1.97-0.35-3.95-0.47-5.94-0.48c-1.94-0.01-3.82,0.29-5.68,0.69c-1.53,0.33-3.01,0.81-4.52,1.23c-2.23,0.63-4.44,1.36-6.37,2.67
		c-2.55,1.73-4.62,3.96-5.99,6.79c-0.84,1.74-1.49,3.59-2.19,5.4c-0.14,0.35-0.15,0.76-0.22,1.14c-0.04,0.23-0.03,0.51-0.15,0.67
		c-1.14,1.56-1.72,3.38-2.09,5.29c-0.13,0.65-0.06,1.28,0.4,1.77c0.31,0.33,0.74,0.53,1.13,0.77c0.26,0.16,0.61,0.25,0.22,0.64
		c-0.13,0.13-0.18,0.38-0.21,0.58c-0.23,1.74-0.47,3.48-0.68,5.23c-0.16,1.31-0.24,2.63-0.45,3.92
		C25.31,60.48,25.01,63.28,25.1,66.14z"/>
	<path d="M72.93,73.72c-0.03-1.11,0.82-2.01,1.88-1.98c0.86,0.02,1.87,1,1.92,1.79c0.07,1.02-1.07,1.85-1.87,1.87
		C73.78,75.44,72.96,74.7,72.93,73.72z M74.75,74.7c0.08-0.01,0.22,0,0.35-0.03c0.61-0.14,1.11-0.64,1.13-1.13
		c0.02-0.44-0.39-0.85-1.09-1.11c-0.52-0.19-0.96-0.08-1.31,0.33c-0.31,0.35-0.52,0.76-0.33,1.26
		C73.73,74.55,74.22,74.63,74.75,74.7z"/>
	<path d="M22.87,74.57c-0.43-0.01-0.79-0.36-0.8-0.78c-0.03-0.61,0.81-1.44,1.43-1.41c0.5,0.02,0.97,0.56,0.96,1.11
		C24.45,74.1,23.72,74.6,22.87,74.57z M22.89,74.12c0.6,0.03,1.25-0.36,1.17-0.66c-0.05-0.22-0.25-0.5-0.45-0.59
		c-0.29-0.13-1.05,0.58-0.99,0.91C22.64,73.93,22.84,74.06,22.89,74.12z"/>
	<path d="M78.54,74.15c-0.55-0.03-0.98-0.38-0.97-0.79c0.02-0.52,0.82-1.23,1.33-1.17c0.29,0.03,0.72,0.82,0.72,1.3
		C79.61,73.93,79.19,74.19,78.54,74.15z M79.02,72.68c-0.11-0.03-0.22-0.06-0.33-0.1c-0.16,0.32-0.32,0.64-0.47,0.96
		c0.28,0.02,0.56,0.05,0.83,0.07C79.04,73.3,79.03,72.99,79.02,72.68z"/>
	<path d="M19.6,73.75c0.09-0.1,0.23-0.43,0.44-0.47c0.37-0.07,0.8,0.46,0.78,0.85c-0.03,0.43-0.36,0.48-0.66,0.48
		C19.73,74.63,19.61,74.31,19.6,73.75z"/>
	<path class="st35" d="M25.1,66.14c-0.09-2.86,0.2-5.67,0.66-8.46c0.21-1.29,0.29-2.62,0.45-3.92c0.21-1.74,0.44-3.49,0.68-5.23
		c0.03-0.2,0.08-0.45,0.21-0.58c0.39-0.4,0.04-0.48-0.22-0.64c-0.39-0.24-0.82-0.44-1.13-0.77c-0.46-0.49-0.53-1.12-0.4-1.77
		c0.38-1.91,0.96-3.73,2.09-5.29c0.12-0.17,0.11-0.45,0.15-0.67c0.07-0.38,0.08-0.79,0.22-1.14c0.71-1.81,1.35-3.66,2.19-5.4
		c1.37-2.83,3.44-5.06,5.99-6.79c1.93-1.31,4.14-2.04,6.37-2.67c1.5-0.43,2.99-0.91,4.52-1.23c1.86-0.4,3.75-0.7,5.68-0.69
		c1.99,0.01,3.97,0.13,5.94,0.48c0.59,0.11,1.17,0.35,1.76,0.5c0.35,0.09,0.71,0.09,1.06,0.17c0.54,0.13,1.08,0.27,1.61,0.46
		c2.2,0.82,4.36,1.75,6.24,3.27c1.65,1.33,2.69,3.09,3.19,5.15c0.44,1.8,0.78,3.61,1.2,5.41c0.05,0.21,0.33,0.42,0.55,0.53
		c0.73,0.36,1.09,0.95,1.15,1.76c0.07,0.87,0.32,1.79,0.16,2.61c-0.15,0.79-0.26,1.44-0.01,2.29c0.24,0.81-0.03,1.76-0.07,2.65
		c-0.03,0.57-0.28,0.97-0.8,1.17c-0.47,0.18-0.57,0.53-0.51,1.06c0.19,1.57,0.38,3.14,0.44,4.7c0.08,2.13,0.02,4.25,0.04,6.38
		c0.02,1.87,0.08,3.74,0.14,5.62c0.04,1.19-0.21,2.3-0.72,3.33c-0.68,1.4-1.36,2.79-2.06,4.17c-0.1,0.2-0.35,0.32-0.53,0.48
		c-0.09,0.08-0.19,0.14-0.25,0.24c-0.77,1.34-2.02,2.07-3.36,2.59c-1.94,0.76-3.92,1.47-6.02,1.72c-2.09,0.25-4.18,0.52-6.28,0.57
		c-2.91,0.08-5.84-0.03-8.76-0.06c-3.54-0.03-7-0.75-10.45-1.66c-1.06-0.28-2.16-0.35-3.24-0.5c-0.67-0.09-1.35-0.14-2.02-0.21
		c-1.06-0.11-1.79-0.79-2.54-1.51c-2.07-2.03-3.19-4.48-3.3-7.37C25.1,66.64,25.11,66.39,25.1,66.14z M35.39,64.54
		c0.15,0.14,0.24,0.24,0.36,0.33c0.21,0.15,0.44,0.41,0.65,0.08c0.05-0.07-0.15-0.35-0.27-0.5c-0.25-0.32-0.73-0.61-0.76-0.94
		c-0.18-2.05-0.36-4.12-0.37-6.17c-0.01-2.23,0.17-4.46,0.26-6.69c0.06-1.44,0.11-2.88,0.18-4.33c0.01-0.28,0.03-0.59,0.15-0.82
		c0.2-0.4,0.49-0.74,0.74-1.11c0.42-0.63,0.47-0.65,1.13-0.18c0.63,0.46,1.27,0.45,1.94,0.26c0.2-0.05,0.39-0.12,0.59-0.15
		c0.9-0.16,1.8-0.32,2.7-0.45c1.08-0.16,2.01-0.6,2.62-1.55c0.34-0.53,0.73-0.53,1.24-0.34c0.76,0.29,1.5,0.66,2.28,0.82
		c1.48,0.31,2.98,0.57,4.48,0.7c0.9,0.08,1.84-0.04,2.65-0.51c0.72-0.42,0.86-0.4,1.54,0.18c0.25,0.21,0.57,0.39,0.87,0.43
		c1.88,0.27,3.75,0.53,5.64,0.72c0.97,0.1,1.97,0.29,2.9-0.21c0.11-0.06,0.43,0.09,0.54,0.23c0.47,0.61,1.07,0.92,1.79,1.05
		c0.34,0.06,0.69,0.15,1.01,0.29c0.15,0.07,0.33,0.27,0.35,0.43c0.11,0.71,0.19,1.42,0.24,2.14c0.15,2.06,0.28,4.11,0.41,6.17
		c0.04,0.59,0.05,1.18,0.07,1.77c0.07,2.13,0.14,4.25,0.22,6.54c-0.77-0.5-0.71,0.24-1.02,0.43c-0.07,0.05-0.06,0.24-0.09,0.36
		c0.15,0.02,0.31,0.1,0.43,0.06c0.17-0.06,0.31-0.22,0.57-0.41c-0.14,0.88-0.2,1.64-0.38,2.36c-0.15,0.58-0.44,1.12-0.64,1.69
		c-0.05,0.15-0.04,0.33-0.03,0.49c0.03,0.43,0.08,0.87,0.14,1.44c0.17,0.12,0.4,0.01,0.53-0.33c0.07-0.18,0.14-0.39,0.1-0.57
		c-0.17-0.63,0.03-1.14,0.32-1.65c0.06-0.1,0.08-0.23,0.11-0.35c0.52-2.26,0.44-4.59,0.4-6.91c-0.02-1.04-0.1-2.07-0.12-3.11
		c-0.04-2.45-0.17-4.9-0.44-7.35c-0.1-0.9-0.14-1.81-0.2-2.72c0.05-0.04,0.09-0.09,0.14-0.13c0.37,0.27,0.99,0.49,1.05,0.81
		c0.26,1.28,0.43,2.6,0.47,3.9c0.06,2.22,0,4.44-0.01,6.66c-0.01,2.16-0.01,4.32-0.01,6.48c0,0.33,0.03,0.67,0.04,1.01
		c0.08,0.02,0.16,0.04,0.24,0.05c0.1-0.26,0.28-0.5,0.29-0.77c0.04-1.76,0.04-3.53,0.05-5.29c0.01-1.95-0.02-3.9,0.01-5.84
		c0.03-2.16-0.21-4.31-0.6-6.45c-0.07-0.4-0.25-0.65-0.63-0.78c-1.01-0.35-2.02-0.72-3.04-1.04c-0.52-0.16-0.97-0.37-1.31-0.85
		c-0.45-0.63-0.8-0.68-1.49-0.34c-0.2,0.1-0.42,0.22-0.62,0.2c-1.97-0.15-3.95-0.27-5.91-0.54c-0.87-0.12-1.82-0.18-2.55-0.95
		c-0.4-0.42-0.93-0.41-1.42-0.04c-0.3,0.22-0.65,0.44-1.01,0.48c-2.07,0.2-4.15,0.13-6.18-0.58c-0.7-0.24-1.41-0.44-2.09-0.73
		c-0.75-0.32-1.26-0.17-1.71,0.5c-0.47,0.69-1.15,1.1-2,1.23c-1.07,0.16-2.16,0.3-3.19,0.6c-0.93,0.27-1.74,0.19-2.58-0.35
		c-0.56-0.36-0.79-0.27-1.12,0.29c-0.23,0.38-0.31,0.91-0.9,0.93c-0.04,0-0.1,0.1-0.11,0.17c-0.02,0.37-0.29,0.42-0.56,0.48
		c-1.35,0.32-2.7,0.64-4.05,0.97c-0.1,0.03-0.18,0.16-0.26,0.24c0.12,0.1,0.23,0.27,0.36,0.29c0.2,0.03,0.41-0.04,0.61-0.08
		c0.75-0.16,1.49-0.32,2.36-0.5c-0.09,0.61-0.21,1.12-0.23,1.65c-0.08,1.91-0.14,3.82-0.2,5.72c-0.07,2.13-0.16,4.25-0.17,6.38
		c-0.01,1.13-0.03,2.28,0.59,3.34c0.14,0.24,0.1,0.66,0.02,0.94c-0.31,1-0.75,1.96-1.01,2.98c-0.29,1.11-0.1,2.24,0.38,3.31
		c0.13,0.3,0.34,0.59,0.69,0.24c-0.13-0.27-0.27-0.5-0.35-0.75c-0.37-1.21-0.4-2.41,0.04-3.57c0.24-0.64,0.51-1.27,0.79-1.89
		c0.26-0.59,0.24-1.15-0.07-1.75c-0.18-0.36-0.34-0.78-0.36-1.17c-0.06-1.39-0.1-2.79-0.07-4.18c0.09-3.57,0.24-7.13,0.36-10.7
		c0.03-0.74,0.29-0.95,0.98-0.84c0,0.59,0.02,1.18,0.01,1.76c-0.03,1.09-0.06,2.18-0.11,3.27c-0.1,2.35-0.29,4.7-0.3,7.06
		c-0.01,1.98,0.2,3.97,0.3,5.95c0.01,0.14-0.07,0.29-0.13,0.43c-0.23,0.53-0.48,1.04-0.68,1.58c-0.09,0.25-0.1,0.58,0.25,0.63
		c0.1,0.02,0.31-0.26,0.33-0.44C34.63,65.53,34.9,65.01,35.39,64.54z M70.83,36.11c0-0.06,0.01-0.12,0.01-0.18
		c-0.1-0.09-0.18-0.21-0.29-0.27c-0.31-0.16-0.63-0.33-0.96-0.44c-2.27-0.76-4.55-1.41-6.91-1.76c-3.87-0.58-7.76-1.02-11.63-0.81
		c-2.96,0.16-5.91,0.55-8.82,1.05c-2.18,0.38-4.3,1.04-6.41,1.68c-2.31,0.7-4.52,1.65-6.63,2.83c-0.14,0.08-0.19,0.34-0.28,0.51
		c0.2,0,0.43,0.07,0.58-0.02c0.52-0.29,0.98-0.71,1.53-0.94c1.49-0.63,2.99-1.26,4.53-1.75c2.09-0.66,4.21-1.25,6.34-1.76
		c1.29-0.31,2.65-0.37,3.96-0.6c1.93-0.34,3.87-0.49,5.84-0.53c2.67-0.06,5.33,0.11,7.99,0.45c2.57,0.33,5.14,0.7,7.64,1.51
		c1,0.32,1.98,0.75,2.97,1.09C70.45,36.24,70.65,36.14,70.83,36.11z M43.54,66.45c-0.04-0.04-0.09-0.08-0.13-0.12
		c0.34-0.59,0.62-1.23,1.03-1.76c1.55-1.96,3.54-3.17,6.04-3.47c0.12-0.01,0.22-0.15,0.32-0.24c-0.11-0.09-0.23-0.25-0.33-0.24
		c-0.46,0.02-0.93,0.04-1.38,0.15c-1.28,0.32-2.4,1.01-3.45,1.78c-1.25,0.91-2.12,2.15-2.76,3.58c-0.07,0.16,0.01,0.39,0.02,0.59
		c0.44-0.05,0.76,0.44,1.3,0.23c1.13-0.42,2.31-0.79,3.51-0.98c1.37-0.22,2.78-0.3,4.17-0.29c1.46,0.01,2.94,0.17,4.4,0.33
		c1.6,0.17,3.16,0.61,4.61,1.37c0.66,0.34,1.21,0.26,1.79,0.06c0.42-0.14,0.66-0.51,0.53-0.96c-0.16-0.54-0.36-1.11-0.69-1.56
		c-1.19-1.66-2.75-2.88-4.5-3.83c-0.16-0.08-0.32-0.16-0.49-0.2c-0.1-0.02-0.27,0.01-0.29,0.07c-0.03,0.09,0,0.27,0.07,0.33
		c0.12,0.12,0.3,0.19,0.45,0.28c0.53,0.32,1.08,0.61,1.57,0.98c0.61,0.47,1.22,0.95,1.73,1.53c0.54,0.61,1.02,1.3,1.4,2.02
		c0.29,0.54-0.17,1.03-0.77,0.9c-0.13-0.03-0.26-0.11-0.39-0.16c-0.92-0.33-1.83-0.74-2.77-0.99c-2.49-0.64-5.01-0.88-7.54-0.74
		c-0.79,0.04-1.58,0.14-2.36,0.28c-1.15,0.19-2.29,0.43-3.43,0.67C44.66,66.18,44.1,66.32,43.54,66.45z M36.57,49
		c0.19-0.1,0.33-0.13,0.41-0.22c0.48-0.49,1-0.95,1.41-1.5c0.94-1.27,2.3-1.71,3.73-1.96c1.72-0.3,3.18,0.57,4.58,1.54
		c0.71,0.49,1.36,1.11,2.26,1.23c0.13,0.02,0.3,0.08,0.37,0.18c0.2,0.3,0.39,0.2,0.62,0.08c1.93-0.98,3.96-1,6.04-0.29
		c0.46,0.16,0.91,0.38,1.38,0.48c1.27,0.28,2.23-0.34,3.13-1.1c1.84-1.55,3.91-2.13,6.31-1.41c0.7,0.21,1.39,0.42,1.73,1.21
		c0.04,0.09,0.33,0.17,0.42,0.11c0.1-0.05,0.16-0.3,0.12-0.43c-0.06-0.2-0.2-0.38-0.35-0.54c-0.86-0.88-1.99-1.11-3.08-1.24
		c-2.13-0.26-4.02,0.37-5.6,1.82c-0.55,0.51-1.19,0.95-1.96,0.91c-0.71-0.04-1.42-0.25-2.12-0.46c-1.63-0.5-3.26-0.6-4.86-0.13
		c-0.83,0.24-1.65,0.57-2.5,0.15c-0.57-0.28-1.08-0.68-1.6-1.06c-2.2-1.64-4.46-2.19-7-1.13c-1.67,0.69-2.49,2.13-3.45,3.48
		C36.55,48.76,36.57,48.83,36.57,49z M45.38,56.56c-0.06,0.1-0.11,0.21-0.17,0.31c-0.38,0.69-0.51,1.47,0,2.12
		c0.52,0.66,1.22,1.18,2.15,0.93c0.66-0.18,1.33-0.32,2-0.48c0.42-0.1,0.75,0.01,1.09,0.35c0.44,0.44,0.91,0.93,1.46,1.16
		c1.32,0.57,2.7,0.79,3.9-0.15c0.81-0.63,1.64-0.54,2.53-0.22c0.17,0.06,0.33,0.11,0.5,0.16c0.64,0.17,1.33,0.21,1.72-0.34
		c0.38-0.55,0.57-1.25,0.8-1.9c0.02-0.07-0.23-0.26-0.36-0.39c-0.07,0.12-0.18,0.22-0.22,0.35c-0.09,0.3-0.11,0.62-0.22,0.91
		c-0.28,0.71-0.69,0.91-1.43,0.76c-0.63-0.13-1.25-0.33-1.89-0.42c-0.32-0.05-0.69-0.01-0.98,0.12c-0.45,0.2-0.81,0.6-1.27,0.75
		c-1.4,0.47-2.73,0.19-3.78-0.98c-0.68-0.76-1.4-0.98-2.29-0.72c-0.54,0.16-1.09,0.32-1.63,0.47c-0.95,0.25-2.03-0.63-1.87-1.54
		c0.16-0.91,0.74-1.54,1.42-2.07c0.68-0.53,1.34-1.05,1.66-1.9c-0.41-0.27-0.41-0.27-0.62,0.06c-0.09,0.15-0.18,0.3-0.29,0.43
		c-2.31,2.5-7.18,2.55-9.32-0.48c-0.08-0.11-0.28-0.14-0.43-0.2c-0.01,0.16-0.1,0.38-0.03,0.48c0.31,0.44,0.59,0.95,1.01,1.25
		c1.23,0.92,2.6,1.46,4.11,1.42C43.72,56.76,44.52,56.64,45.38,56.56z M60.93,25c-0.11,0.19-0.37,0.47-0.32,0.57
		c0.46,0.84,0.2,1.66,0.05,2.46c-0.06,0.31-0.13,0.73-0.62,0.69c-0.79-0.07-1.59-0.14-2.38-0.19c-1.8-0.1-3.6-0.28-5.39-0.26
		c-2.13,0.03-4.24,0.21-6.36,0.37c-1.25,0.09-2.5,0.31-3.75,0.37c-1.19,0.05-1.54-0.34-1.52-1.56c0.01-0.85,0.11-1.7,0.14-2.56
		c0.01-0.15-0.13-0.31-0.2-0.47c-0.1,0.13-0.28,0.26-0.29,0.4c-0.08,0.9-0.2,1.8-0.17,2.7c0.05,1.54,0.46,2.01,1.95,2.08
		c0.31,0.01,0.62-0.02,0.93-0.05c1.64-0.17,3.28-0.35,4.92-0.53c0.05-0.01,0.1-0.02,0.15-0.02c1.56-0.1,3.12-0.25,4.69-0.28
		c1.06-0.02,2.13,0.12,3.19,0.2c0.61,0.04,1.23,0.08,1.84,0.15c0.86,0.1,1.72,0.22,2.58,0.32c1.48,0.18,2.29-0.34,2.57-1.75
		c0.09-0.43-0.02-0.92-0.07-1.38c-0.09-0.92-0.39-1.78-0.86-2.59c-0.08-0.13-0.3-0.18-0.54-0.32c0.03,0.24,0.02,0.32,0.05,0.37
		c0.58,1.1,0.76,2.28,0.88,3.49c0.09,0.86-0.53,1.6-1.34,1.45C61.5,27.48,61.51,26.29,60.93,25z M48.36,73.88
		c0.76,0.12,1.22-0.47,1.69-0.98c1.3-1.43,3.43-1.61,5.01-0.81c0.42,0.21,0.92,0.54,1.11,0.94c0.35,0.73,0.87,1.06,1.56,1.23
		c1.03,0.27,1.71-0.33,1.57-1.4c-0.05-0.37-0.18-0.73-0.29-1.08c-0.03-0.09-0.15-0.16-0.23-0.24c-0.06,0.09-0.17,0.19-0.16,0.28
		c0.03,0.32,0.13,0.64,0.13,0.96c0,0.26-0.05,0.63-0.21,0.74c-0.53,0.37-1.36,0.01-1.71-0.59c-0.21-0.36-0.5-0.7-0.82-0.95
		c-1.02-0.8-2.21-1.04-3.42-0.94c-1.12,0.09-2.14,0.46-2.86,1.41c-0.21,0.27-0.43,0.6-0.72,0.73c-0.31,0.14-0.74,0.21-1.06,0.1
		c-0.41-0.14-0.26-0.59-0.17-0.9c0.14-0.45,0.34-0.88,0.49-1.33c0.05-0.14,0.01-0.32,0.01-0.47c-0.14,0.08-0.35,0.13-0.41,0.26
		c-0.24,0.55-0.5,1.11-0.64,1.71C47.04,73.35,47.47,73.85,48.36,73.88z M63.94,57.14c2.08-0.04,3.8-0.7,4.64-2.82
		c0.06-0.16-0.01-0.37-0.02-0.56c-0.15,0.11-0.38,0.19-0.45,0.34c-1.06,2.56-4.63,3.03-6.43,1.67c-0.48-0.36-0.89-0.82-1.36-1.2
		c-0.12-0.1-0.34-0.08-0.51-0.11c0.03,0.18,0.02,0.38,0.1,0.55c0.06,0.14,0.23,0.22,0.34,0.34C61.3,56.39,62.46,57.11,63.94,57.14z
		 M42.19,52.13c0.13,0,0.3,0.01,0.47,0.02c1.72,0.11,3.31-0.35,4.85-0.97c0.26-0.11,0.84-0.18,0.65-0.63
		c-0.24-0.55-0.58-0.01-0.85,0.09c-2.67,0.97-5.37,1.4-8.17,0.17c-0.12-0.05-0.3,0.05-0.45,0.08c0.06,0.17,0.09,0.34,0.18,0.49
		c0.04,0.08,0.18,0.1,0.27,0.15C40.11,51.98,41.11,52.13,42.19,52.13z M43.54,47.74c-0.56,0.07-1.29,0.13-1.99,0.27
		c-1.04,0.21-2.09,0.46-2.91,1.18c-0.26,0.23-0.43,0.58-0.6,0.91c-0.03,0.06,0.18,0.36,0.29,0.38c0.13,0.02,0.31-0.13,0.41-0.25
		c0.1-0.12,0.09-0.36,0.2-0.44c0.46-0.31,0.92-0.69,1.44-0.85c0.89-0.27,1.82-0.5,2.76-0.57c1.48-0.12,2.93,0.17,4.24,1.05
		c0.1,0.07,0.24,0.06,0.36,0.09c-0.01-0.15,0.03-0.31-0.03-0.44c-0.05-0.12-0.2-0.2-0.31-0.28C46.26,48.03,44.98,47.91,43.54,47.74z
		 M53.15,69.6c-1.71,0.1-3.05,0.18-4.39,0.28c-0.14,0.01-0.26,0.19-0.39,0.28c0.15,0.08,0.31,0.22,0.45,0.22
		c0.67-0.03,1.33-0.13,2-0.15c0.62-0.02,1.25,0.02,1.87,0.05c1.82,0.09,3.64,0.19,5.41,0.76c0.17,0.06,0.4-0.08,0.6-0.12
		c-0.15-0.14-0.28-0.38-0.44-0.41C56.45,70.17,54.63,69.86,53.15,69.6z M67.74,51.57c-0.31,0.17-0.6,0.43-0.93,0.48
		c-0.96,0.15-1.93,0.33-2.9,0.28c-1.26-0.06-2.53-0.28-3.53-1.3c-0.09-0.09-0.31-0.06-0.46-0.08c0.02,0.18-0.04,0.45,0.06,0.53
		c0.39,0.33,0.79,0.73,1.24,0.87c0.91,0.29,1.86,0.51,2.81,0.61c1.24,0.13,2.45-0.01,3.56-0.62C67.87,52.17,68.03,51.97,67.74,51.57
		z M63.51,49.18c1.59,0.16,3.02,0.65,4.24,1.77c0.11,0.1,0.36,0.04,0.55,0.05c-0.08-0.19-0.11-0.46-0.25-0.56
		c-1.52-1.15-3.17-1.91-5.06-1.71c-0.97,0.1-1.94,0.25-2.9,0.41c-0.16,0.03-0.27,0.29-0.41,0.44c0.19,0.03,0.4,0.12,0.58,0.09
		C61.35,49.53,62.43,49.35,63.51,49.18z M57.92,54.64c0.02-0.06,0.04-0.13,0.06-0.19c-0.17-0.14-0.32-0.32-0.5-0.41
		c-1.43-0.63-2.88-1.16-4.44-0.98c-0.63,0.07-1.24,0.25-1.84,0.42c-0.12,0.03-0.17,0.29-0.26,0.44c0.16,0.05,0.32,0.13,0.48,0.13
		c0.17,0,0.33-0.07,0.49-0.13c0.95-0.37,1.94-0.48,2.94-0.21c0.86,0.23,1.68,0.59,2.53,0.88C57.56,54.64,57.75,54.62,57.92,54.64z
		 M68.51,26.46c-0.08,0.02-0.16,0.04-0.24,0.06c0.02,0.23,0.01,0.46,0.06,0.68c0.19,0.8,0.45,1.6,0.57,2.41
		c0.19,1.23,0.86,2.14,1.99,2.51c0.13,0.04,0.29,0.02,0.43,0.02c0.03-0.05,0.07-0.1,0.1-0.15c-0.2-0.22-0.35-0.52-0.59-0.66
		c-0.75-0.43-1.26-0.96-1.41-1.89c-0.13-0.83-0.4-1.64-0.63-2.46C68.74,26.8,68.6,26.64,68.51,26.46z M32.29,32.42
		c0.68-0.43,1.19-0.74,1.68-1.06c0.06-0.04,0.07-0.16,0.08-0.24c0.17-0.95,0.34-1.9,0.49-2.85c0.02-0.12-0.07-0.27-0.12-0.41
		c-0.1,0.08-0.26,0.13-0.28,0.23c-0.22,0.85-0.4,1.71-0.64,2.55c-0.07,0.24-0.23,0.48-0.41,0.64c-0.23,0.2-0.54,0.29-0.79,0.46
		c-0.07,0.05-0.12,0.19-0.12,0.3C32.18,32.15,32.24,32.27,32.29,32.42z M66.3,31.41c0.14-0.22,0.3-0.37,0.27-0.43
		c-0.07-0.15-0.21-0.29-0.36-0.35c-0.06-0.02-0.3,0.2-0.28,0.27C65.98,31.05,66.13,31.18,66.3,31.41z M70.46,40.14
		c0.13-0.26,0.26-0.4,0.26-0.54c0-0.11-0.17-0.22-0.27-0.33c-0.11,0.11-0.29,0.21-0.3,0.33C70.15,39.73,70.31,39.88,70.46,40.14z
		 M67.12,28.97c0.2,0.17,0.33,0.35,0.44,0.34c0.12-0.01,0.23-0.19,0.34-0.29c-0.1-0.11-0.2-0.31-0.31-0.32
		C67.47,28.69,67.34,28.84,67.12,28.97z M40.21,74.99c-0.19-0.1-0.38-0.2-0.56-0.31c-0.05,0.11-0.15,0.24-0.13,0.33
		C39.63,75.39,39.87,75.32,40.21,74.99z M66.49,27.45c-0.24-0.16-0.37-0.3-0.49-0.29c-0.1,0.01-0.27,0.2-0.25,0.28
		c0.04,0.14,0.18,0.31,0.3,0.34C66.14,27.79,66.27,27.62,66.49,27.45z M71.43,40.59c0.21,0.14,0.34,0.26,0.48,0.3
		c0.04,0.01,0.21-0.22,0.18-0.28c-0.07-0.13-0.2-0.26-0.33-0.31C71.71,40.28,71.59,40.45,71.43,40.59z M67.93,32.62
		c-0.2-0.14-0.32-0.27-0.44-0.29c-0.08-0.01-0.27,0.16-0.26,0.18c0.06,0.15,0.15,0.32,0.27,0.38
		C67.57,32.94,67.73,32.76,67.93,32.62z M30.26,52.69c-0.1-0.04-0.19-0.09-0.29-0.13c-0.07,0.17-0.18,0.33-0.2,0.5
		c-0.01,0.05,0.22,0.15,0.34,0.22C30.16,53.08,30.21,52.89,30.26,52.69z M29.3,41.34c0.11-0.23,0.21-0.35,0.19-0.43
		c-0.04-0.15-0.16-0.28-0.24-0.41C29.16,40.6,29,40.7,29,40.8C29.01,40.94,29.15,41.08,29.3,41.34z M34.84,31.81
		c0.16,0.17,0.26,0.27,0.37,0.37c0.09-0.1,0.24-0.19,0.24-0.3c0-0.11-0.14-0.24-0.22-0.36C35.12,31.61,35.01,31.69,34.84,31.81z
		 M33.93,34.74c0.12-0.23,0.23-0.34,0.24-0.47c0.01-0.1-0.12-0.21-0.18-0.31c-0.11,0.09-0.3,0.16-0.32,0.27
		C33.64,34.33,33.79,34.48,33.93,34.74z M32.98,44.5c-0.09-0.04-0.17-0.09-0.26-0.13c-0.08,0.16-0.18,0.32-0.23,0.49
		c-0.01,0.03,0.21,0.13,0.32,0.2C32.86,44.87,32.92,44.69,32.98,44.5z M70.56,42.6c0.1-0.26,0.2-0.41,0.2-0.56
		c0-0.07-0.21-0.23-0.27-0.21c-0.11,0.04-0.23,0.19-0.23,0.3C70.26,42.25,70.4,42.37,70.56,42.6z M29.93,42.43
		c0.19,0.18,0.3,0.35,0.41,0.36c0.09,0.01,0.23-0.17,0.27-0.29c0.02-0.06-0.14-0.27-0.22-0.27C30.27,42.22,30.14,42.33,29.93,42.43z
		 M39.59,62.14c0.08,0,0.15-0.01,0.23-0.01c0.01-0.19,0.02-0.38,0.03-0.57c-0.12,0.01-0.25,0.01-0.37,0.02
		C39.52,61.77,39.56,61.95,39.59,62.14z M36.7,28.75c-0.04,0.07-0.07,0.15-0.11,0.22c0.14,0.07,0.29,0.2,0.4,0.18
		c0.12-0.03,0.2-0.21,0.29-0.33c-0.11-0.09-0.2-0.22-0.32-0.25C36.89,28.54,36.79,28.68,36.7,28.75z"/>
	<path class="st36" d="M70.64,29.4c0.36,0.55,0.83,0.83,1.35,0.94c-0.43-1.34-1.1-2.53-2.05-3.54
		C69.98,27.71,70.15,28.64,70.64,29.4z"/>
	<path class="st36" d="M75.32,44.09c-1.44-0.83-3.08-1.36-4.74-1.76c-0.03,0.11-0.1,0.24-0.17,0.43c-0.16-0.23-0.3-0.35-0.3-0.46
		c0-0.02,0.01-0.05,0.02-0.07c-0.93-0.21-1.86-0.39-2.74-0.57c-3.92-0.79-8.01,0-11.99-0.56c-2.29-0.32-4.58-0.8-6.9-0.89
		c-2.22-0.09-4.34,0.39-6.42,1.11c-3.54,1.22-6.84,1.89-10.56,1.94c0.24,0.54,0.58,1.01,1.03,1.33c0.01-0.02,0.02-0.04,0.03-0.06
		c0.09,0.04,0.17,0.09,0.26,0.13c-0.01,0.03-1.14,0.53-1.15,0.56c0.24,0.13,1.63-0.23,1.93-0.18c0.3,0.05,0.3,0.37,0.14,0.55
		c0.19-0.04,0.38-0.09,0.57-0.14c0.28-0.06,0.54-0.11,0.56-0.48c0-0.06,0.06-0.16,0.11-0.17c0.59-0.02,0.67-0.55,0.9-0.93
		c0.33-0.55,0.56-0.65,1.12-0.29c0.84,0.54,1.65,0.62,2.58,0.35c1.03-0.3,2.12-0.44,3.19-0.6c0.85-0.12,1.53-0.54,2-1.23
		c0.46-0.67,0.96-0.82,1.71-0.5c0.68,0.29,1.39,0.49,2.09,0.73c2.04,0.71,4.11,0.77,6.18,0.58c0.35-0.03,0.71-0.26,1.01-0.48
		c0.49-0.37,1.01-0.37,1.42,0.04c0.74,0.77,1.68,0.83,2.55,0.95c1.96,0.26,3.94,0.38,5.91,0.54c0.21,0.02,0.43-0.11,0.62-0.2
		c0.68-0.34,1.04-0.29,1.49,0.34c0.34,0.48,0.79,0.68,1.31,0.85c1.02,0.32,2.02,0.7,3.04,1.04c0.11,0.04,0.2,0.09,0.27,0.15
		c0.04-0.02,0.09-0.04,0.14-0.05c0.91-0.11,2.12,0.22,2.17,1.23c0.31-0.23,0.47-0.56,0.5-1C75.21,45.58,75.4,44.8,75.32,44.09z"/>
	<path class="st36" d="M58.37,73.66c0.16-0.11,0.21-0.48,0.21-0.74c0-0.16-0.02-0.31-0.05-0.47c-0.23,0.05-0.5-0.12-0.43-0.42
		c0.1-0.36-0.18-0.64-0.45-0.83c-0.05-0.03-0.08-0.08-0.11-0.12c-1.65-0.46-3.32-0.56-5-0.65c-0.62-0.03-1.25-0.07-1.87-0.05
		c-0.58,0.02-1.17,0.09-1.75,0.13c-0.29,0.11-0.55,0.25-0.78,0.46c0,0.08,0,0.15-0.02,0.22c-0.15,0.45-0.35,0.87-0.49,1.33
		c-0.1,0.31-0.24,0.75,0.17,0.9c0.32,0.11,0.75,0.04,1.06-0.1c0.29-0.14,0.51-0.46,0.72-0.73c0.72-0.95,1.74-1.31,2.86-1.41
		c1.21-0.1,2.4,0.14,3.42,0.94c0.16,0.12,0.3,0.27,0.44,0.42c0.12-0.02,0.24,0.03,0.31,0.17c0.12,0.26,0.25,0.5,0.39,0.72
		C57.39,73.79,57.97,73.94,58.37,73.66z"/>
	<path class="st36" d="M60.92,64.24c-0.51-0.58-1.12-1.06-1.73-1.53c-0.36-0.28-0.76-0.5-1.15-0.73c-0.09,0.11-0.24,0.16-0.39,0.04
		c-0.6-0.44-1.24-0.83-1.92-1.13c-0.02,0.02-0.05,0.03-0.07,0.05c-1.2,0.94-2.58,0.72-3.9,0.15c-0.13-0.06-0.26-0.13-0.38-0.21
		c-0.3,0.13-0.6,0.23-0.91,0.3c-0.04,0.04-0.09,0.07-0.14,0.07c-2.5,0.29-4.49,1.5-6.04,3.47c-0.41,0.53-0.69,1.17-1.03,1.76
		c0.04,0.04,0.09,0.08,0.13,0.12c0.56-0.13,1.12-0.27,1.68-0.39c1.14-0.23,2.28-0.47,3.43-0.67c0.78-0.13,1.57-0.24,2.36-0.28
		c2.53-0.13,5.05,0.1,7.54,0.74c0.94,0.24,1.85,0.65,2.77,0.99c0.13,0.05,0.26,0.13,0.39,0.16c0.6,0.13,1.06-0.36,0.77-0.9
		C61.94,65.54,61.46,64.85,60.92,64.24z"/>
	<path class="st36" d="M60.43,58.84c-1.31-2.72-5.27-0.12-7.49-0.28c-1.97-0.14-5.74-2.4-7.41-0.72c-0.08,0.08-0.17,0.11-0.26,0.1
		c0,0,0,0,0,0.01c-0.16,0.91,0.92,1.79,1.87,1.54c0.55-0.14,1.09-0.31,1.63-0.47c0.89-0.26,1.61-0.03,2.29,0.72
		c1.05,1.17,2.38,1.46,3.78,0.98c0.19-0.06,0.36-0.17,0.53-0.29c0.02-0.19,0.17-0.35,0.39-0.27c0.11-0.07,0.23-0.14,0.35-0.2
		c0.29-0.13,0.66-0.17,0.98-0.12c0.63,0.09,1.26,0.29,1.89,0.42c0.75,0.16,1.15-0.05,1.43-0.76c0.07-0.17,0.11-0.36,0.14-0.54
		C60.51,58.95,60.46,58.91,60.43,58.84z"/>
	<path class="st36" d="M69.37,48.3c-0.15-0.29-0.36-0.55-0.6-0.78c-0.12,0.02-0.34-0.04-0.37-0.12c-0.06-0.13-0.13-0.24-0.2-0.34
		c-0.36-0.25-0.76-0.45-1.14-0.6c-0.11-0.04-0.17-0.12-0.21-0.21c-0.06-0.02-0.13-0.04-0.19-0.06c-2.4-0.73-4.47-0.14-6.31,1.41
		c-0.9,0.76-1.86,1.38-3.13,1.1c-0.47-0.1-0.92-0.32-1.38-0.48c-2.08-0.71-4.11-0.69-6.04,0.29c-0.23,0.12-0.42,0.22-0.62-0.08
		c-0.07-0.1-0.24-0.17-0.37-0.18c-0.89-0.12-1.54-0.74-2.26-1.23c-1.4-0.97-2.86-1.83-4.58-1.54c-1.43,0.25-2.79,0.69-3.73,1.96
		c-0.41,0.55-0.93,1.01-1.41,1.5c-0.03,0.03-0.07,0.04-0.1,0.06c-0.01,0.54,0.31,0.89,0.9,0.91c0.17,0,0.27,0.1,0.31,0.22
		c0.15-0.29,0.31-0.59,0.54-0.79c0.82-0.72,1.87-0.97,2.91-1.18c0.7-0.14,1.43-0.2,1.99-0.27c1.39,0.17,2.63,0.29,3.75,0.97
		c0.12-0.15,0.34-0.23,0.53-0.08c1.93,1.53,4.43,0.35,6.64,0.36c2.19,0,4.21,0.28,6.33-0.45c0.3-0.1,0.47,0.19,0.4,0.43
		c0.6-0.09,1.2-0.17,1.8-0.24c1.6-0.17,3.02,0.35,4.34,1.2c0.03-0.06,0.09-0.11,0.15-0.14c0.05-0.1,0.14-0.19,0.29-0.2
		C68.47,49.71,69.97,49.48,69.37,48.3z"/>
	<path class="st36" d="M60.7,26.77c-1.27-0.27-2.43-0.62-3.75-0.62c-2.29,0.01-4.59,0.35-6.84,0.75c-2.97,0.52-6.68,1.44-9.61,0.23
		c-0.01,0.15-0.02,0.31-0.02,0.46c-0.01,1.23,0.33,1.62,1.52,1.56c1.26-0.05,2.5-0.27,3.75-0.37c2.12-0.15,4.23-0.34,6.36-0.37
		c1.79-0.02,3.6,0.16,5.39,0.26c0.8,0.05,1.59,0.12,2.38,0.19c0.49,0.04,0.56-0.38,0.62-0.69c0.09-0.47,0.21-0.94,0.21-1.42
		C60.71,26.77,60.7,26.77,60.7,26.77z"/>
	<path class="st36" d="M56.26,73.57c-0.09-0.12-0.17-0.24-0.24-0.39c-0.19-0.4-0.69-0.72-1.11-0.94c-1.57-0.8-3.71-0.62-5.01,0.81
		c-0.47,0.52-0.93,1.1-1.69,0.98c-0.44-0.01-0.76-0.14-0.96-0.37c-0.01,0.01-0.02,0.01-0.04,0.02c-2.42,0.64-5.02,1.15-7.6,1.22
		c0.15,0.08,0.29,0.16,0.44,0.24c-0.34,0.32-0.58,0.4-0.69,0.02c-0.02-0.07,0.04-0.17,0.09-0.26c-1.13,0.03-1.64-1.08-2.74-1.25
		c-1.31-0.21-3.4,0.49-4.13-0.73c-0.72-1.21-0.51-2.83-0.5-4.16c0-0.1,0.04-0.17,0.09-0.23c-0.01-0.39,0.03-0.77,0.13-1.16
		c0.26-1.02,0.7-1.98,1.01-2.98c0.09-0.29,0.12-0.7-0.02-0.94c-0.62-1.07,1.27-0.6,1.27-1.73c0.01-2.13-0.07-5.52,0-7.65
		c0.06-1.91,0.38-5.43,0.46-7.34c0.02-0.52-1.81,0.24-1.72-0.37c-0.86,0.18-1.61,0.35-2.36,0.5c-0.2,0.04-0.41,0.11-0.61,0.08
		c-0.13-0.02-0.24-0.19-0.36-0.29c0.09-0.08,0.16-0.21,0.26-0.24c1.03-0.25,2.06-0.5,3.08-0.74c-3.14-0.58-3.65-5.36-2.22-7.86
		c-0.09,0.04-0.17,0.07-0.26,0.11c-0.54,0.23-1.01,0.65-1.53,0.94c-0.15,0.08-0.38,0.02-0.58,0.02c0.09-0.17,0.13-0.43,0.28-0.51
		c0.75-0.43,1.53-0.81,2.31-1.17c0,0,0,0,0,0c-0.41-1.77-0.79-3.87-0.86-5.94c-0.22,0.38-0.43,0.76-0.63,1.17
		c-0.84,1.74-1.49,3.59-2.19,5.4c-0.14,0.35-0.15,0.76-0.22,1.14c-0.04,0.23-0.03,0.51-0.15,0.67c-1.14,1.56-1.72,3.38-2.09,5.29
		c-0.13,0.65-0.06,1.28,0.4,1.77c0.31,0.33,0.74,0.53,1.13,0.77c0.26,0.16,0.61,0.25,0.22,0.64c-0.13,0.13-0.18,0.38-0.21,0.58
		c-0.23,1.74-0.47,3.48-0.68,5.23c-0.16,1.31-0.24,2.63-0.45,3.92c-0.45,2.79-0.75,5.6-0.66,8.46c0,0.25,0,0.5,0.01,0.75
		c0.11,2.89,1.23,5.33,3.3,7.37c0.74,0.73,1.48,1.41,2.54,1.51c0.67,0.07,1.35,0.12,2.02,0.21c1.08,0.15,2.18,0.22,3.24,0.5
		c3.45,0.91,6.91,1.63,10.45,1.66c2.92,0.02,5.85,0.14,8.76,0.06c2.1-0.06,4.19-0.33,6.28-0.57c2.1-0.25,4.07-0.96,6.02-1.72
		c1.34-0.52,2.59-1.25,3.36-2.59c0.06-0.1,0.16-0.16,0.25-0.24c0.18-0.16,0.42-0.28,0.53-0.48c0.7-1.38,1.38-2.77,2.06-4.17
		c0.19-0.4,0.34-0.81,0.45-1.23C70.5,72.31,63.94,77.79,56.26,73.57z M30.24,42.38c0.08,0,0.24,0.21,0.22,0.27
		c-0.04,0.12-0.18,0.3-0.27,0.29c-0.11-0.01-0.22-0.18-0.41-0.36C29.99,42.48,30.11,42.37,30.24,42.38z M29.15,41.49
		c-0.16-0.26-0.3-0.4-0.3-0.54c0-0.1,0.16-0.21,0.25-0.31c0.08,0.14,0.2,0.26,0.24,0.41C29.36,41.15,29.26,41.26,29.15,41.49z
		 M29.96,53.43c-0.12-0.07-0.35-0.17-0.34-0.22c0.02-0.18,0.13-0.34,0.2-0.5c0.1,0.04,0.19,0.09,0.29,0.13L29.96,53.43z"/>
	<path class="st35" d="M74.75,74.7c-0.53-0.07-1.02-0.15-1.23-0.69c-0.19-0.49,0.02-0.91,0.33-1.26c0.35-0.4,0.78-0.52,1.31-0.33
		c0.69,0.25,1.1,0.66,1.09,1.11c-0.02,0.49-0.52,1-1.13,1.13C74.97,74.7,74.83,74.7,74.75,74.7z"/>
	<path class="st35" d="M22.89,74.12c-0.05-0.06-0.25-0.19-0.27-0.34c-0.05-0.33,0.7-1.04,0.99-0.91c0.2,0.09,0.4,0.37,0.45,0.59
		C24.13,73.76,23.49,74.15,22.89,74.12z"/>
	<path class="st37" d="M79.02,72.68c0.01,0.31,0.02,0.62,0.03,0.93c-0.28-0.02-0.56-0.05-0.83-0.07c0.16-0.32,0.32-0.64,0.47-0.96
		C78.8,72.61,78.91,72.64,79.02,72.68z"/>
	<path d="M35.39,64.54c-0.48,0.47-0.76,0.99-0.85,1.63c-0.02,0.17-0.23,0.45-0.33,0.44c-0.36-0.06-0.35-0.39-0.25-0.63
		c0.2-0.54,0.46-1.05,0.68-1.58c0.06-0.14,0.14-0.29,0.13-0.43c-0.1-1.98-0.31-3.97-0.3-5.95c0.01-2.36,0.2-4.71,0.3-7.06
		c0.05-1.09,0.08-2.18,0.11-3.27c0.01-0.58,0-1.17-0.01-1.76c-0.69-0.12-0.96,0.1-0.98,0.84c-0.12,3.57-0.26,7.13-0.36,10.7
		c-0.04,1.39,0.01,2.79,0.07,4.18c0.02,0.39,0.18,0.81,0.36,1.17c0.3,0.6,0.33,1.16,0.07,1.75c-0.28,0.62-0.54,1.25-0.79,1.89
		c-0.44,1.16-0.41,2.36-0.04,3.57c0.08,0.25,0.22,0.48,0.35,0.75c-0.35,0.35-0.56,0.06-0.69-0.24c-0.48-1.07-0.67-2.2-0.38-3.31
		c0.26-1.02,0.7-1.98,1.01-2.98c0.09-0.29,0.12-0.7-0.02-0.94c-0.62-1.07-0.6-2.22-0.59-3.34c0.01-2.13,0.11-4.25,0.17-6.38
		c0.06-1.91,0.11-3.82,0.2-5.72c0.02-0.52,0.14-1.04,0.23-1.65c-0.86,0.18-1.61,0.35-2.36,0.5c-0.2,0.04-0.41,0.11-0.61,0.08
		c-0.13-0.02-0.24-0.19-0.36-0.29c0.09-0.08,0.16-0.21,0.26-0.24c1.35-0.33,2.7-0.66,4.05-0.97c0.28-0.06,0.54-0.11,0.56-0.48
		c0-0.06,0.06-0.16,0.11-0.17c0.59-0.02,0.67-0.55,0.9-0.93c0.33-0.55,0.56-0.65,1.12-0.29c0.84,0.54,1.65,0.62,2.58,0.35
		c1.03-0.3,2.12-0.44,3.19-0.6c0.85-0.12,1.53-0.54,2-1.23c0.46-0.67,0.96-0.82,1.71-0.5c0.68,0.29,1.39,0.49,2.09,0.73
		c2.04,0.71,4.11,0.77,6.18,0.58c0.35-0.03,0.71-0.26,1.01-0.48c0.49-0.37,1.01-0.37,1.42,0.04c0.74,0.77,1.68,0.83,2.55,0.95
		c1.96,0.26,3.94,0.38,5.91,0.54c0.21,0.02,0.43-0.11,0.62-0.2c0.68-0.34,1.04-0.29,1.49,0.34c0.34,0.48,0.79,0.68,1.31,0.85
		c1.02,0.32,2.02,0.7,3.04,1.04c0.38,0.13,0.55,0.39,0.63,0.78c0.4,2.14,0.63,4.28,0.6,6.45c-0.03,1.95,0,3.9-0.01,5.84
		c-0.01,1.77-0.01,3.53-0.05,5.29c-0.01,0.26-0.19,0.51-0.29,0.77c-0.08-0.02-0.16-0.04-0.24-0.05c-0.02-0.34-0.04-0.67-0.04-1.01
		c0-2.16,0-4.32,0.01-6.48c0.01-2.22,0.07-4.44,0.01-6.66c-0.04-1.3-0.21-2.61-0.47-3.9c-0.06-0.32-0.69-0.54-1.05-0.81
		c-0.05,0.04-0.09,0.09-0.14,0.13c0.06,0.91,0.1,1.82,0.2,2.72c0.27,2.45,0.4,4.9,0.44,7.35c0.02,1.04,0.11,2.07,0.12,3.11
		c0.04,2.32,0.12,4.65-0.4,6.91c-0.03,0.12-0.05,0.25-0.11,0.35c-0.29,0.5-0.49,1.02-0.32,1.65c0.05,0.17-0.03,0.39-0.1,0.57
		c-0.13,0.33-0.36,0.45-0.53,0.33c-0.06-0.57-0.11-1.01-0.14-1.44c-0.01-0.16-0.03-0.35,0.03-0.49c0.2-0.57,0.5-1.11,0.64-1.69
		c0.18-0.72,0.25-1.48,0.38-2.36c-0.26,0.2-0.4,0.35-0.57,0.41c-0.12,0.04-0.29-0.04-0.43-0.06c0.03-0.12,0.01-0.32,0.09-0.36
		c0.3-0.19,0.25-0.92,1.02-0.43c-0.08-2.29-0.15-4.42-0.22-6.54c-0.02-0.59-0.03-1.18-0.07-1.77c-0.13-2.06-0.26-4.11-0.41-6.17
		c-0.05-0.71-0.13-1.43-0.24-2.14c-0.02-0.16-0.2-0.37-0.35-0.43c-0.32-0.14-0.67-0.23-1.01-0.29c-0.72-0.13-1.32-0.44-1.79-1.05
		c-0.11-0.14-0.43-0.29-0.54-0.23c-0.93,0.5-1.93,0.31-2.9,0.21c-1.88-0.2-3.76-0.45-5.64-0.72c-0.3-0.04-0.63-0.23-0.87-0.43
		c-0.68-0.57-0.82-0.6-1.54-0.18c-0.81,0.48-1.75,0.59-2.65,0.51c-1.5-0.13-3-0.39-4.48-0.7c-0.78-0.16-1.52-0.53-2.28-0.82
		c-0.51-0.19-0.91-0.19-1.24,0.34c-0.6,0.95-1.53,1.39-2.62,1.55c-0.9,0.13-1.8,0.29-2.7,0.45c-0.2,0.03-0.4,0.1-0.59,0.15
		c-0.67,0.19-1.31,0.19-1.94-0.26c-0.65-0.48-0.7-0.45-1.13,0.18c-0.25,0.37-0.54,0.72-0.74,1.11c-0.12,0.23-0.13,0.54-0.15,0.82
		c-0.07,1.44-0.12,2.88-0.18,4.33c-0.09,2.23-0.27,4.45-0.26,6.69c0.01,2.05,0.18,4.12,0.37,6.17c0.03,0.32,0.51,0.62,0.76,0.94
		c0.12,0.15,0.32,0.43,0.27,0.5c-0.21,0.33-0.44,0.07-0.65-0.08C35.63,64.79,35.54,64.68,35.39,64.54z"/>
	<path d="M70.83,36.11c-0.18,0.03-0.38,0.13-0.54,0.07c-1-0.35-1.97-0.77-2.97-1.09c-2.5-0.81-5.07-1.18-7.64-1.51
		c-2.66-0.34-5.32-0.51-7.99-0.45c-1.97,0.04-3.91,0.2-5.84,0.53c-1.32,0.23-2.67,0.29-3.96,0.6c-2.14,0.51-4.25,1.1-6.34,1.76
		c-1.54,0.49-3.04,1.12-4.53,1.75c-0.54,0.23-1.01,0.65-1.53,0.94c-0.15,0.08-0.38,0.02-0.58,0.02c0.09-0.17,0.13-0.43,0.28-0.51
		c2.1-1.19,4.32-2.13,6.63-2.83c2.11-0.64,4.24-1.31,6.41-1.68c2.91-0.5,5.86-0.89,8.82-1.05c3.87-0.21,7.76,0.23,11.63,0.81
		c2.36,0.35,4.64,1,6.91,1.76c0.33,0.11,0.65,0.28,0.96,0.44c0.11,0.06,0.19,0.18,0.29,0.27C70.84,35.99,70.83,36.05,70.83,36.11z"
		/>
	<path d="M43.54,66.45c0.56-0.13,1.12-0.27,1.68-0.39c1.14-0.23,2.28-0.47,3.43-0.67c0.78-0.13,1.57-0.24,2.36-0.28
		c2.53-0.13,5.05,0.1,7.54,0.74c0.94,0.24,1.85,0.65,2.77,0.99c0.13,0.05,0.26,0.13,0.39,0.16c0.6,0.13,1.06-0.36,0.77-0.9
		c-0.39-0.72-0.87-1.41-1.4-2.02c-0.51-0.58-1.12-1.06-1.73-1.53c-0.49-0.37-1.04-0.66-1.57-0.98c-0.15-0.09-0.32-0.16-0.45-0.28
		c-0.07-0.07-0.1-0.24-0.07-0.33c0.02-0.06,0.2-0.1,0.29-0.07c0.17,0.04,0.33,0.12,0.49,0.2c1.75,0.95,3.31,2.17,4.5,3.83
		c0.32,0.45,0.53,1.02,0.69,1.56c0.13,0.45-0.11,0.82-0.53,0.96c-0.58,0.2-1.14,0.28-1.79-0.06c-1.45-0.75-3.01-1.2-4.61-1.37
		c-1.47-0.15-2.94-0.31-4.4-0.33c-1.4-0.01-2.8,0.08-4.17,0.29c-1.2,0.19-2.38,0.55-3.51,0.98c-0.54,0.2-0.86-0.28-1.3-0.23
		c-0.01-0.2-0.09-0.44-0.02-0.59c0.63-1.43,1.51-2.67,2.76-3.58c1.06-0.77,2.17-1.46,3.45-1.78c0.44-0.11,0.92-0.13,1.38-0.15
		c0.1,0,0.22,0.16,0.33,0.24c-0.11,0.08-0.21,0.22-0.32,0.24c-2.5,0.29-4.49,1.5-6.04,3.47c-0.41,0.53-0.69,1.17-1.03,1.76
		C43.46,66.37,43.5,66.41,43.54,66.45z"/>
	<path d="M36.57,49c0-0.17-0.02-0.24,0-0.27c0.96-1.35,1.78-2.79,3.45-3.48c2.54-1.06,4.8-0.51,7,1.13c0.51,0.38,1.03,0.79,1.6,1.06
		c0.86,0.42,1.68,0.09,2.5-0.15c1.61-0.47,3.23-0.36,4.86,0.13c0.69,0.21,1.41,0.42,2.12,0.46c0.77,0.04,1.41-0.4,1.96-0.91
		c1.58-1.45,3.47-2.08,5.6-1.82c1.08,0.13,2.22,0.35,3.08,1.24c0.15,0.15,0.29,0.34,0.35,0.54c0.04,0.13-0.02,0.37-0.12,0.43
		c-0.1,0.05-0.38-0.02-0.42-0.11c-0.35-0.79-1.03-1-1.73-1.21c-2.4-0.73-4.47-0.14-6.31,1.41c-0.9,0.76-1.86,1.38-3.13,1.1
		c-0.47-0.1-0.92-0.32-1.38-0.48c-2.08-0.71-4.11-0.69-6.04,0.29c-0.23,0.12-0.42,0.22-0.62-0.08c-0.07-0.1-0.24-0.17-0.37-0.18
		c-0.89-0.12-1.54-0.74-2.26-1.23c-1.4-0.97-2.86-1.83-4.58-1.54c-1.43,0.25-2.79,0.69-3.73,1.96c-0.41,0.55-0.93,1.01-1.41,1.5
		C36.9,48.88,36.76,48.91,36.57,49z"/>
	<path d="M45.38,56.56c-0.85,0.08-1.65,0.2-2.46,0.22c-1.51,0.03-2.88-0.51-4.11-1.42c-0.41-0.31-0.7-0.81-1.01-1.25
		c-0.07-0.1,0.01-0.32,0.03-0.48c0.15,0.07,0.35,0.09,0.43,0.2c2.14,3.04,7.01,2.99,9.32,0.48c0.12-0.13,0.2-0.28,0.29-0.43
		c0.21-0.33,0.21-0.33,0.62-0.06c-0.32,0.85-0.98,1.38-1.66,1.9c-0.68,0.53-1.26,1.16-1.42,2.07c-0.16,0.91,0.92,1.79,1.87,1.54
		c0.55-0.14,1.09-0.31,1.63-0.47c0.89-0.26,1.61-0.03,2.29,0.72c1.05,1.17,2.38,1.46,3.78,0.98c0.46-0.15,0.82-0.56,1.27-0.75
		c0.29-0.13,0.66-0.17,0.98-0.12c0.63,0.09,1.26,0.29,1.89,0.42c0.75,0.16,1.15-0.05,1.43-0.76c0.11-0.28,0.13-0.61,0.22-0.91
		c0.04-0.13,0.14-0.23,0.22-0.35c0.13,0.13,0.38,0.32,0.36,0.39c-0.23,0.65-0.42,1.35-0.8,1.9c-0.39,0.56-1.08,0.52-1.72,0.34
		c-0.17-0.05-0.34-0.1-0.5-0.16c-0.89-0.32-1.72-0.41-2.53,0.22c-1.2,0.94-2.58,0.72-3.9,0.15c-0.54-0.24-1.01-0.72-1.46-1.16
		c-0.34-0.33-0.67-0.44-1.09-0.35c-0.67,0.15-1.34,0.3-2,0.48c-0.93,0.25-1.63-0.26-2.15-0.93c-0.51-0.65-0.39-1.43,0-2.12
		C45.26,56.77,45.32,56.66,45.38,56.56z"/>
	<path d="M60.93,25c0.58,1.28,0.57,2.48,0.14,3.66c0.81,0.15,1.43-0.59,1.34-1.45c-0.12-1.2-0.3-2.39-0.88-3.49
		c-0.03-0.06-0.02-0.14-0.05-0.37c0.25,0.14,0.47,0.19,0.54,0.32c0.46,0.8,0.77,1.67,0.86,2.59c0.04,0.46,0.15,0.95,0.07,1.38
		c-0.29,1.41-1.1,1.93-2.57,1.75c-0.86-0.11-1.72-0.23-2.58-0.32c-0.61-0.07-1.23-0.11-1.84-0.15c-1.06-0.07-2.13-0.22-3.19-0.2
		c-1.57,0.03-3.12,0.18-4.69,0.28c-0.05,0-0.1,0.02-0.15,0.02c-1.64,0.18-3.28,0.36-4.92,0.53c-0.31,0.03-0.62,0.06-0.93,0.05
		c-1.49-0.07-1.9-0.54-1.95-2.08c-0.03-0.9,0.09-1.8,0.17-2.7c0.01-0.15,0.19-0.27,0.29-0.4c0.07,0.16,0.2,0.32,0.2,0.47
		c-0.03,0.85-0.13,1.7-0.14,2.56c-0.01,1.23,0.33,1.62,1.52,1.56c1.26-0.05,2.5-0.27,3.75-0.37c2.12-0.15,4.23-0.34,6.36-0.37
		c1.79-0.02,3.6,0.16,5.39,0.26c0.8,0.05,1.59,0.12,2.38,0.19c0.49,0.04,0.56-0.38,0.62-0.69c0.15-0.8,0.42-1.62-0.05-2.46
		C60.56,25.47,60.82,25.2,60.93,25z"/>
	<path d="M48.36,73.88c-0.89-0.02-1.32-0.53-1.13-1.34c0.14-0.59,0.4-1.15,0.64-1.71c0.06-0.13,0.27-0.17,0.41-0.26
		c0,0.16,0.04,0.33-0.01,0.47c-0.15,0.45-0.35,0.87-0.49,1.33c-0.1,0.31-0.24,0.75,0.17,0.9c0.32,0.11,0.75,0.04,1.06-0.1
		c0.29-0.14,0.51-0.46,0.72-0.73c0.72-0.95,1.74-1.31,2.86-1.41c1.21-0.1,2.4,0.14,3.42,0.94c0.32,0.25,0.61,0.59,0.82,0.95
		c0.35,0.6,1.18,0.96,1.71,0.59c0.16-0.11,0.21-0.48,0.21-0.74c0-0.32-0.1-0.64-0.13-0.96c-0.01-0.09,0.11-0.18,0.16-0.28
		c0.08,0.08,0.2,0.14,0.23,0.24c0.12,0.36,0.25,0.72,0.29,1.08c0.14,1.07-0.54,1.67-1.57,1.4c-0.69-0.18-1.21-0.51-1.56-1.23
		c-0.19-0.4-0.69-0.72-1.11-0.94c-1.57-0.8-3.71-0.62-5.01,0.81C49.58,73.41,49.12,74,48.36,73.88z"/>
	<path d="M63.94,57.14c-1.48-0.03-2.65-0.75-3.68-1.79c-0.11-0.11-0.28-0.2-0.34-0.34c-0.08-0.16-0.07-0.36-0.1-0.55
		c0.17,0.03,0.39,0.01,0.51,0.11c0.47,0.38,0.88,0.84,1.36,1.2c1.8,1.36,5.37,0.89,6.43-1.67c0.06-0.15,0.29-0.23,0.45-0.34
		c0.01,0.19,0.08,0.4,0.02,0.56C67.74,56.44,66.02,57.1,63.94,57.14z"/>
	<path d="M42.19,52.13c-1.08,0-2.09-0.15-3.05-0.61c-0.1-0.04-0.23-0.07-0.27-0.15c-0.09-0.15-0.12-0.33-0.18-0.49
		c0.15-0.03,0.33-0.13,0.45-0.08c2.81,1.24,5.5,0.8,8.17-0.17c0.27-0.1,0.61-0.64,0.85-0.09c0.19,0.44-0.38,0.52-0.65,0.63
		c-1.55,0.62-3.14,1.08-4.85,0.97C42.49,52.14,42.32,52.14,42.19,52.13z"/>
	<path d="M43.54,47.74c1.44,0.18,2.72,0.3,3.87,1.04c0.12,0.08,0.26,0.16,0.31,0.28c0.06,0.13,0.02,0.29,0.03,0.44
		c-0.12-0.03-0.26-0.02-0.36-0.09c-1.31-0.88-2.76-1.17-4.24-1.05c-0.93,0.08-1.86,0.3-2.76,0.57c-0.52,0.16-0.98,0.54-1.44,0.85
		c-0.11,0.08-0.1,0.32-0.2,0.44c-0.1,0.12-0.28,0.27-0.41,0.25c-0.12-0.02-0.32-0.31-0.29-0.38c0.16-0.33,0.33-0.68,0.6-0.91
		c0.82-0.72,1.87-0.97,2.91-1.18C42.25,47.87,42.98,47.81,43.54,47.74z"/>
	<path d="M53.15,69.6c1.48,0.26,3.3,0.57,5.11,0.91c0.16,0.03,0.3,0.27,0.44,0.41c-0.2,0.05-0.42,0.18-0.6,0.12
		c-1.78-0.57-3.6-0.67-5.41-0.76c-0.62-0.03-1.25-0.07-1.87-0.05c-0.67,0.02-1.33,0.12-2,0.15c-0.14,0.01-0.3-0.14-0.45-0.22
		c0.13-0.1,0.25-0.27,0.39-0.28C50.1,69.78,51.44,69.71,53.15,69.6z"/>
	<path d="M67.74,51.57c0.28,0.4,0.13,0.61-0.17,0.77c-1.1,0.62-2.32,0.75-3.56,0.62c-0.94-0.1-1.89-0.32-2.81-0.61
		c-0.45-0.14-0.86-0.54-1.24-0.87c-0.09-0.08-0.04-0.35-0.06-0.53c0.16,0.02,0.37-0.01,0.46,0.08c1,1.01,2.27,1.24,3.53,1.3
		c0.97,0.04,1.94-0.13,2.9-0.28C67.15,52,67.44,51.73,67.74,51.57z"/>
	<path d="M63.51,49.18c-1.08,0.17-2.16,0.35-3.25,0.5c-0.18,0.03-0.39-0.06-0.58-0.09c0.14-0.15,0.25-0.41,0.41-0.44
		c0.96-0.17,1.93-0.31,2.9-0.41c1.89-0.2,3.54,0.56,5.06,1.71c0.14,0.1,0.17,0.37,0.25,0.56c-0.19-0.01-0.44,0.05-0.55-0.05
		C66.53,49.83,65.1,49.34,63.51,49.18z"/>
	<path d="M57.92,54.64c-0.18-0.02-0.36,0-0.53-0.06c-0.84-0.29-1.67-0.65-2.53-0.88c-1-0.26-1.99-0.15-2.94,0.21
		c-0.16,0.06-0.33,0.13-0.49,0.13c-0.16,0-0.32-0.08-0.48-0.13c0.08-0.15,0.14-0.4,0.26-0.44c0.6-0.18,1.22-0.35,1.84-0.42
		c1.56-0.18,3.01,0.35,4.44,0.98c0.19,0.08,0.34,0.27,0.5,0.41C57.97,54.51,57.94,54.57,57.92,54.64z"/>
	<path d="M68.51,26.46c0.1,0.18,0.23,0.34,0.28,0.53c0.23,0.81,0.5,1.63,0.63,2.46c0.14,0.93,0.66,1.46,1.41,1.89
		c0.24,0.14,0.4,0.43,0.59,0.66c-0.03,0.05-0.07,0.1-0.1,0.15c-0.14-0.01-0.3,0.02-0.43-0.02c-1.14-0.37-1.81-1.29-1.99-2.51
		c-0.12-0.81-0.39-1.6-0.57-2.41c-0.05-0.22-0.04-0.45-0.06-0.68C68.35,26.5,68.43,26.48,68.51,26.46z"/>
	<path d="M32.29,32.42c-0.05-0.15-0.11-0.27-0.11-0.39c0-0.1,0.05-0.25,0.12-0.3c0.26-0.17,0.56-0.27,0.79-0.46
		c0.18-0.16,0.35-0.4,0.41-0.64c0.23-0.84,0.42-1.7,0.64-2.55c0.03-0.1,0.19-0.15,0.28-0.23c0.04,0.14,0.14,0.28,0.12,0.41
		c-0.15,0.95-0.32,1.9-0.49,2.85c-0.01,0.08-0.03,0.2-0.08,0.24C33.48,31.68,32.98,31.99,32.29,32.42z"/>
	<path d="M66.3,31.41c-0.17-0.23-0.32-0.36-0.36-0.52c-0.02-0.07,0.22-0.29,0.28-0.27c0.14,0.06,0.29,0.2,0.36,0.35
		C66.61,31.04,66.45,31.19,66.3,31.41z"/>
	<path d="M70.46,40.14c-0.15-0.26-0.31-0.41-0.3-0.53c0.01-0.12,0.19-0.22,0.3-0.33c0.09,0.11,0.26,0.22,0.27,0.33
		C70.72,39.74,70.59,39.88,70.46,40.14z"/>
	<path d="M67.12,28.97c0.22-0.13,0.35-0.28,0.48-0.27c0.11,0.01,0.2,0.2,0.31,0.32c-0.11,0.1-0.22,0.29-0.34,0.29
		C67.45,29.32,67.32,29.14,67.12,28.97z"/>
	<path d="M40.21,74.99c-0.34,0.32-0.58,0.4-0.69,0.02c-0.03-0.09,0.08-0.22,0.13-0.33C39.83,74.79,40.02,74.89,40.21,74.99z"/>
	<path d="M66.49,27.45c-0.22,0.17-0.35,0.35-0.44,0.32c-0.12-0.04-0.26-0.21-0.3-0.34c-0.02-0.07,0.15-0.27,0.25-0.28
		C66.12,27.15,66.25,27.29,66.49,27.45z"/>
	<path d="M71.43,40.59c0.16-0.14,0.28-0.31,0.33-0.29c0.13,0.06,0.26,0.18,0.33,0.31c0.03,0.05-0.15,0.29-0.18,0.28
		C71.77,40.84,71.65,40.73,71.43,40.59z"/>
	<path d="M67.93,32.62c-0.2,0.14-0.36,0.31-0.43,0.28c-0.12-0.06-0.21-0.24-0.27-0.38c-0.01-0.02,0.18-0.2,0.26-0.18
		C67.62,32.35,67.73,32.48,67.93,32.62z"/>
	<path d="M30.26,52.69c-0.05,0.2-0.1,0.39-0.15,0.59c-0.12-0.07-0.35-0.17-0.34-0.22c0.02-0.18,0.13-0.34,0.2-0.5
		C30.07,52.6,30.17,52.65,30.26,52.69z"/>
	<path d="M29.3,41.34c-0.16-0.26-0.3-0.4-0.3-0.54c0-0.1,0.16-0.21,0.25-0.31c0.08,0.14,0.2,0.26,0.24,0.41
		C29.51,40.99,29.41,41.11,29.3,41.34z"/>
	<path d="M34.84,31.81c0.17-0.12,0.28-0.2,0.39-0.28c0.08,0.12,0.22,0.24,0.22,0.36c0,0.1-0.16,0.2-0.24,0.3
		C35.1,32.08,35,31.98,34.84,31.81z"/>
	<path d="M33.93,34.74c-0.14-0.25-0.29-0.4-0.27-0.51c0.02-0.11,0.21-0.18,0.32-0.27c0.07,0.1,0.19,0.21,0.18,0.31
		C34.16,34.4,34.05,34.51,33.93,34.74z"/>
	<path d="M32.98,44.5c-0.06,0.19-0.11,0.37-0.17,0.56c-0.11-0.07-0.33-0.17-0.32-0.2c0.05-0.17,0.15-0.33,0.23-0.49
		C32.81,44.41,32.89,44.45,32.98,44.5z"/>
	<path d="M70.56,42.6c-0.16-0.23-0.3-0.35-0.3-0.46c0-0.11,0.12-0.25,0.23-0.3c0.06-0.02,0.27,0.14,0.27,0.21
		C70.76,42.2,70.66,42.34,70.56,42.6z"/>
	<path d="M29.93,42.43c0.21-0.1,0.34-0.21,0.46-0.21c0.08,0,0.24,0.21,0.22,0.27c-0.04,0.12-0.18,0.3-0.27,0.29
		C30.23,42.78,30.12,42.61,29.93,42.43z"/>
	<path d="M39.59,62.14c-0.04-0.19-0.07-0.37-0.11-0.56c0.12-0.01,0.25-0.01,0.37-0.02c-0.01,0.19-0.02,0.38-0.03,0.57
		C39.75,62.13,39.67,62.14,39.59,62.14z"/>
	<path d="M36.7,28.75c0.09-0.07,0.19-0.21,0.26-0.19c0.12,0.03,0.22,0.16,0.32,0.25c-0.1,0.12-0.17,0.3-0.29,0.33
		c-0.11,0.03-0.27-0.11-0.4-0.18C36.63,28.9,36.66,28.82,36.7,28.75z"/>
</g>
</svg>
