<svg clip-rule="evenodd" fill-rule="evenodd" stroke-miterlimit="10" viewBox="0 0 321 432" xmlns="http://www.w3.org/2000/svg"><path d="m0 1.649s-.72 5.142-.822 6.169c-.103 1.028-.454 2.253-.454 2.253s9.4 1.963 15.26 1.655c5.86-.309 9.254-1.337 9.357-1.645.101-.309 1.028-.104.925-1.543s-3.393-15.525-3.393-15.525l-7.91-3.398s-1.652 2.986-3.606 3.706c-1.954.719-6.067 1.131-6.067 1.131z" fill="#d7a56b" fill-rule="nonzero" transform="matrix(5.55556 0 0 5.55556 48.46290948 366.21289004)"/><path d="m0 16.503c-.103-1.439-3.393-15.526-3.393-15.526l-7.909-3.397s-1.653 2.986-3.606 3.706c-.976.359-2.489.642-3.761.835.577 1.727 1.316 3.3 2.966 4.267 1.937 1.138 3.52.487 5.548.257 1.882-.213 3.513.485 4.598 2.048 1.913 2.754 2.165 6.763 1.836 10.23 1.764-.351 2.74-.715 2.796-.877.103-.309 1.028-.103.925-1.543" fill="#cd9043" fill-rule="nonzero" transform="matrix(5.55556 0 0 5.55556 181.74634944 321.96285464)"/><path d="m0 24.78s.23-11.98.114-12.827c-.114-.848-.492-.314-.818-.787-.324-.472-3.106-.413-3.463-1.008-.358-.595-2.516-3.474-2.516-3.474s.514-3.085 4.318-4.936c3.805-1.851 5.655-2.673 7.197-2.673 1.543 0 1.44.412 2.674.514 1.234.103 1.509.93 2.298 2.161.787 1.233 1.095 4.626.787 6.785-.31 2.159-2.131 3.652-2.131 3.652s-2.036-2.368-2.78-1.982c-.745.386-.745 14.575-.745 14.575s-.822.514-2.364.72c-1.543.205-2.571-.72-2.571-.72" fill="#87c540" fill-rule="nonzero" transform="matrix(5.55556 0 0 5.55556 211.26303972 282.26282288)"/><path d="m0-7.413c-.788-1.232-1.064-2.057-2.297-2.161-1.235-.102-1.131-.514-2.673-.514-1.333 0-2.9.616-5.755 1.977.152-.012.302-.033.457-.039 5.922-.235 9.87 5.322 9.293 10.825.549-.56 1.541-1.76 1.762-3.303.309-2.16 0-5.553-.787-6.785" fill="#cadb2a" fill-rule="nonzero" transform="matrix(5.55556 0 0 5.55556 264.96308268 335.45175432)"/><path d="m0-16.505c.765.036.821-.518.915-1.046-.305.349-.609.698-.915 1.046m-11.396 8.089c-.048.067-.097.135-.146.202.153.27.307.539.496.87.191-.222.322-.375.536-.626-.344-.173-.615-.31-.886-.446m22.897 11.996c-.043-.315-.076-.553-.123-.886-.485.173-.899.32-1.461.521.611.141 1.056.244 1.584.365m-2.362-.191c.005-.02.01-.04.015-.061-.639.096-1.284.163-1.914.304-.174.04-.299.297-.446.455.045.05.092.1.139.151.736-.283 1.471-.565 2.206-.849m-1.441-7.261c-.803-.744-.673-1.597-.112-2.547-.389.049-.611.076-.767.096 0 .762-.029 1.47.01 2.176.031.587.293.665.869.275m.635-3.165c-.005-.057-.011-.113-.016-.169-1.573-.569-1.573-.569-1.814-2.897-.199 1.046.13 2.073.141 3.196.602-.046 1.145-.088 1.689-.13m-17.766 1.181c.475-.5.501-1.256.016-1.503-.222-.113-.644.089-.935.229-.101.049-.171.445-.097.516.294.281.65.497 1.016.758m8.143-8.132c.423-.053.945.017 1.049-.158.291-.495.41-1.091.624-1.731-.984.282-1.446.877-1.673 1.889m5.627-4.441c.536 1.514.953 1.861 2.242 1.881-.534-.881-1.053-1.694-2.242-1.881m7.972 18.951.238-.238c.559.008 1.325-.475 1.436-1.005.047-.229-.138-.516-.249-.761-.012-.026-.279.009-.372.084-.37.301-.727.618-1.066.954-.101.098-.176.278-.167.415.012.187.116.367.18.551m-20.675-6.747c.368-.262.77-.443 1.009-.75.24-.308.525-.819.42-1.105-.165-.45-.673-.176-1.022-.047-.212.077-.399.233-.576.38-.074.061-.143.202-.126.289.076.393.184.781.295 1.233m9.824-10.579c.863.028.939-.055.855-.882-.02-.19.012-.385.023-.617.555.285.576.283.588.834.008.348.134.499.482.482.26-.014.522-.003.882-.003-.2-.432-.342-.788-.527-1.118-.095-.168-.272-.421-.402-.414-.406.018-.949.01-1.176.256-.355.382-.493.964-.725 1.462m-10.871 15.973c.346.59.604 1.196 1.016 1.664.222.253.708.297 1.087.368.069.012.308-.332.282-.477-.199-1.107-.83-2.076-2.385-1.555m17.1-13.259c-.23-1.42-1.132-2.144-2.428-1.967.125.529.239 1.055.38 1.572.028.1.158.23.254.241.591.067 1.185.105 1.794.154m-7.28.068c.334-.025.521-.036.707-.053 1.381-.12 1.392-.12 1.336-1.515-.009-.23-.204-.66-.249-.652-.399.074-.959.111-1.135.38-.326.49-.423 1.132-.659 1.84m9.335 16.66c.358-.121.574-.2.794-.267.742-.224.743-.223.567-.771-.325-.211-.537-.349-.772-.503.407-.274.721-.435.96-.671.079-.079.011-.486-.064-.511-.486-.157-.992-.249-1.485-.361zm-6.649-19.012v2.039h1.94c-.111-.457-.201-.811-.283-1.168-.208-.907-.281-.963-1.23-.916-.152.008-.302.032-.427.045m-14.56 6.477c-1.853.354-2.25.64-2.321 1.8.691.327 1.372.647 2.158 1.019-.186-.434-.358-.723-.427-1.035-.041-.188.023-.55.136-.596.581-.235.522-.675.454-1.188m1.758 4.787c-.305.944-.57 1.907-.93 2.836-.231.6.19.712.533.87.385.177.644-.065.733-.413.194-.762.332-1.539.516-2.304.158-.666-.201-.891-.852-.989m12.953 10.767c.869-.165 1.648-.28 2.406-.477.214-.056.433-.319.532-.541.103-.229.064-.523.094-.873-1.042.057-2.052.113-3.118.172.032.608.059 1.172.086 1.719m-3.567-19.161c-.501.07-.883.099-1.251.19-.137.033-.284.185-.35.321-.205.414-.373.846-.555 1.271-.283.663-.159.919.53 1.066.227.047.471.121.688.08.172-.033.419-.198.452-.345.184-.806.312-1.624.486-2.583m7.268 13.154c.627-.131 1.063-.217 1.497-.316.111-.025.236-.07.314-.147.122-.121.295-.277.298-.42.01-.561-.03-1.124-.071-1.686-.008-.098-.097-.208-.179-.279-.214-.184-1.622 0-1.793.231-.043.058-.063.144-.064.216-.004.768-.002 1.535-.002 2.401m-8.243-6.713c.12-.886.229-1.69.336-2.494.006-.038.027-.088.01-.113-.108-.165-.201-.439-.342-.467-1.275-.252-1.497-.099-1.788 1.12-.023.095-.041.189-.064.283-.304 1.255-.257 1.33 1.035 1.576.244.046.494.059.813.095m2.083 10.871-.006.037c-.116-.01-.232-.018-.347-.029-.626-.063-.694.015-.545.605.092.377.175.755.256 1.133.188.882.186.882 1.087.928 1.007.051 1.531-.486 1.443-1.475-.011-.116-.045-.231-.039-.346.026-.462-.096-.723-.647-.694-.396.021-.801-.101-1.202-.159m5.443-14.52c.664.014 1.171-.227 1.708-.375.724-.199.636-.502.519-.979-.079-.319-.145-.643-.251-.953-.051-.15-.168-.366-.286-.39-.682-.132-1.373-.217-2.171-.333.179 1.126.327 2.059.481 3.03m-6.475 17.145c-.22-.945-.398-1.748-.603-2.542-.021-.084-.201-.158-.316-.179-.588-.108-1.184-.177-1.769-.295-.421-.085-.503.136-.42.446.16.615.358 1.223.56 1.826.043.129.157.305.267.329.709.151 1.427.265 2.281.415m9.32-6.781c-.643.149-1.155.249-1.654.398-.147.043-.352.227-.357.352-.03.9-.015 1.802-.015 2.746.644-.119 1.254-.219 1.856-.352.117-.025.298-.177.295-.268-.022-.935-.076-1.87-.125-2.876m-10.099 3.549c-.101-.954-.181-1.794-.29-2.63-.011-.091-.164-.217-.267-.233-.628-.097-1.263-.158-1.893-.252-.341-.051-.488.085-.436.408.104.648.218 1.295.362 1.934.024.11.205.232.334.265.691.176 1.389.325 2.19.508m-2.515-10.166c-.1.913-.203 1.754-.274 2.598-.009.11.129.307.235.338.675.196 1.363.357 2.148.553v-3.162c-.649-.101-1.327-.206-2.109-.327m-.41 3.549c0 .876-.015 1.686.015 2.494.006.141.185.373.316.398.711.139 1.433.224 2.13.324 0-.951.015-1.778-.018-2.604-.005-.118-.231-.299-.379-.326-.643-.116-1.297-.185-2.064-.286m6.325-10.343c-.596.069-1.223.114-1.836.232-.141.027-.299.289-.334.466-.144.718-.261 1.444-.344 2.171-.015.138.162.425.262.43.723.037 1.448.02 2.252.02zm8.741 12.9c.605.045 1.137-.276 1.596-.708.601-.563.692-1.455.281-2.172-.198-.349-.453-.45-.819-.249-.54.298-1.083.591-1.63.876-.48.252-.809.965-.683 1.515.101.443.569.733 1.255.738m-8.223-9.545c.877 0 1.606-.012 2.337.004.399.01.451-.189.386-.514-.086-.436-.172-.875-.239-1.314-.239-1.585-.236-1.585-1.809-1.566-.019 0-.038.001-.058-.001-.316-.028-.446.101-.452.433-.01.618-.063 1.233-.099 1.85-.02.353-.042.706-.066 1.108m-3.836 7.467c.056.907.098 1.696.165 2.481.007.101.137.268.22.275.941.074 1.885.123 2.874.18 0-.822.005-1.574-.002-2.325-.004-.318-.139-.477-.501-.483-.869-.014-1.735-.076-2.756-.128m2.501 6.359c.001-.003.001-.007.001-.01.116.007.233.009.348.02.479.044.717-.055.599-.642-.125-.622-.123-1.27-.15-1.908-.013-.298-.071-.458-.424-.465-.535-.01-1.071-.083-1.605-.136-.888-.089-1.061.076-.974.949.031.309.04.623.106.924.262 1.18-.123 1.108 1.288 1.2.271.018.541.045.811.068m.74-13.301c-.449-.053-.889-.095-1.324-.157-1.227-.175-1.242-.18-1.432 1.058-.101.657-.14 1.322-.211 2.025 1.045.076 1.997.145 2.967.216zm-3.198 5.285c0 .367-.04.572.011.75.044.149.185.366.303.38.825.087 1.655.146 2.486.167.12.003.347-.24.355-.378.042-.734.048-1.471.02-2.204-.006-.145-.204-.385-.338-.402-.766-.098-1.539-.133-2.307-.208-.314-.033-.417.105-.433.388-.03.56-.072 1.12-.097 1.507m3.69 4.671c1.147-.111 2.242-.21 3.334-.336.105-.013.271-.187.271-.288-.001-.657-.018-1.318-.083-1.971-.012-.126-.258-.329-.392-.327-.849.018-1.697.121-2.545.119-.492 0-.597.208-.589.627.015.677.004 1.353.004 2.176m2.946-10.048c-.877.039-1.701.062-2.522.13-.118.01-.304.234-.311.367-.047.774-.068 1.552-.05 2.328.003.141.218.394.339.396.849.015 1.701-.006 2.55-.062.12-.008.331-.274.319-.405-.077-.886-.203-1.769-.325-2.754m.433 6.517c0-.923.018-1.769-.022-2.612-.006-.115-.3-.311-.46-.312-.791-.003-1.583.03-2.372.094-.166.013-.449.204-.453.322-.038.883-.021 1.768-.021 2.689 1.167-.064 2.245-.122 3.328-.181m-3.247 3.997c.058.919.091 1.749.184 2.572.015.135.302.342.461.34.794-.012 1.589-.064 2.379-.146.138-.015.353-.231.365-.368.065-.792.092-1.587.098-2.382.001-.109-.191-.324-.282-.317-1.039.078-2.076.19-3.205.301m-15.085-7.049c-.835 1.854-1.644 3.648-2.452 5.439.71.341.809.297 1.168-.324.424-.738.871-1.462 1.325-2.183.057-.091.211-.12.319-.178.055.129.173.271.15.384-.035.16-.166.303-.266.445-.246.356-.497.708-.796 1.132 1.33-.11 1.326-.111 1.677-1.176.103-.312.237-.615.34-.927.571-1.736.57-1.738-1.115-2.499-.122-.054-.254-.082-.35-.113m22.11 2.745c1.222-.149 2.056-.703 2.383-1.664.202-.595-.197-1.422-.764-1.461-1.07-.074-2.135-.023-3.1.54-.83.483-.985 1.63-.043 2.095.472.233 1.013.332 1.524.49m-14.264 5.83c-.287-2.784-1.694-4.807-3.957-6.495-.258 1.015-.483 1.902-.715 2.813 1.737-.151 2.615 1.443 2.644 2.86.653.265 1.307.529 2.028.822m-15.725 1c.072-.002.144-.004.217-.006.262.35.523.699.785 1.047.437.577 1.196.834 1.798.611.673-.248 1.076-.857 1.043-1.579-.039-.878-1.073-2.067-1.95-2.123-.497-.031-1.123-.024-1.486.243-.942.695-1.063 1.797-1.145 3.042.303-.238.557-.351.665-.546.103-.186.055-.456.073-.689m6.674-3.587c.188.212.34.381.489.552.541.624 1.187 1.162 1.275 2.09.089.956.3 1.117 1.249 1.259.861.131 1.851-.574 1.643-1.273-.256-.86-.671-1.69-1.129-2.468-.323-.549-.93-.694-1.588-.797-.794-.126-1.335.155-1.939.637m-3.718 1.184c.028.042.051.097.091.136.703.682 1.354 1.386 1.522 2.416.028.178.237.352.402.477.674.504 1.62.274 2.492-.587.44-.436.478-1.254.009-1.877-.31-.412-.71-.759-1.089-1.115-1.032-.97-2.733-.697-3.427.55m27.563-8.178c.267-.023.502.02.665-.069.742-.409 1.362-1.785 1.217-2.625-.1-.575-.542-1.085-1-1.068-1.159.042-2.305.148-3.331.795-.67.422-1.024 1.035-.858 1.613.17.589.781.933 1.601.834.555-.067 1.099-.214 1.649-.324.175-.035.349-.067.524-.1.038.054.076.106.116.159-.168.228-.338.456-.583.785m-42.378-13.442c0 .398-.023.702.003 1 .188 2.147.041 4.267-.58 6.332-.463 1.539-.82 3.054-.441 4.685.218.935.962 1.957 1.751 2.306-.156-.693-.399-1.448-.488-2.222-.175-1.514.236-2.961.616-4.41.398-1.515.816-3.031 1.075-4.572.122-.735.019-1.572-.224-2.278-.107-.31-.822-.411-1.261-.609-.104-.048-.204-.105-.451-.232m4.467-3.091c-.091-.701-.844-2.22-1.387-2.618-1.258-.923-2.224-.742-3.106.586-.151.226-.308.449-.438.687-1.053 1.944-.501 2.66.617 3.846.671.711 1.634.876 2.538 1.047.299.058.894-.218.981-.471.345-.998.543-2.047.795-3.077m1.057 37.845c.09.359.209.784.303 1.214.266 1.21.646 2.411.754 3.635.152 1.736.115 3.49.125 5.237.003.498.28.614.621.472.399-.166.786-.424 1.096-.727 1.559-1.515 2.347-3.489 3.15-5.446.272-.661.442-1.363.67-2.086-1.309.239-2.569.157-3.678-.333-1.089-.481-2.029-1.295-3.041-1.966m-1.508-31.054c.051.586.002 1.14.158 1.628.538 1.687-.037 3.206-.578 4.751-.519 1.482-.972 2.945-.562 4.592.275 1.106 1.182 1.528 1.824 2.239.049.054.281-.016.4-.08.608-.337 1.198-.705 1.812-1.034.99-.534 2.008-1.018 2.985-1.573.791-.448 1.241-2.14.651-2.807-.704-.793-1.594-1.423-2.533-2.236-.067.994-.121 1.803-.175 2.612-.088.013-.178.026-.267.038-.099-.341-.271-.682-.28-1.026-.015-.48.107-.961.143-1.445.063-.8-.364-1.421-1.022-1.675-.321 1.057-.632 2.128-.972 3.189-.296.924-.655 1.829-.532 2.833.052.426.066.859.098 1.289-.058.024-.117.048-.175.071-.098-.15-.249-.287-.287-.452-.26-1.116-.259-2.223.118-3.325.312-.915.675-1.828.844-2.773.122-.677.128-1.468-.111-2.094-.354-.923-.971-1.746-1.539-2.722m48.439 1.948c-.08-.003-.16-.007-.24-.01-.125.14-.241.29-.378.42-.678.637-1.331 1.304-2.047 1.897-1.42 1.176-3.256 1.817-4.374 3.386-.512.718-1.011 1.444-1.534 2.192.636.468 1.118 1.018 1.109 1.892.881-1.059 1.627-2.188 2.779-2.99.051.226.054.446-.051.579-.534.666-1.083 1.322-1.655 1.955-.417.463-.544 1.27-1.47 1.201.887.633 1.203 1.45 1.131 2.458-.01.16.191.335.306.524 1.398-1.046 2.368-2.347 3.247-3.732.093-.146.256-.245.387-.366.05.049.1.098.15.146-.089.188-.15.396-.272.559-.708.944-1.458 1.858-2.139 2.821-.396.564-.986.981-1.105 1.768-.116.769-.586 1.34-1.459 1.439-.263.029-.517.138-.81.219 0 .808.05 1.638-.02 2.458-.037.445.07.678.317.764.761-1.28 1.374-2.626 2.272-3.746 1.209-1.512 2.676-2.816 3.96-4.275 1.677-1.903 2.808-4.112 2.694-6.696-.071-1.629-.519-3.242-.798-4.863m-22.977 23.659c-.461-.109-.826-.135-1.139-.278-2.43-1.116-4.961-1.475-7.607-1.109-.128.018-.277-.118-.416-.183.107-.126.197-.331.328-.362.278-.066.577-.027.866-.053 1.701-.153 3.378-.033 5.007.492.896.289 1.768.656 2.696 1.005-.01-.135-.004-.211-.024-.279-.211-.714-.863-1.041-1.389-1.414-1.213-.859-2.627-1.161-4.108-1.292-2.103-.189-4.145.1-6.165.601-.71.176-1.372.535-2.069.78-.154.053-.354-.024-.534-.04.032-.119.026-.291.103-.343.3-.206.608-.431.947-.544 2.056-.688 4.174-1.072 6.34-1.072 1.569.001 3.159.004 4.615.751.477.245.958.477 1.474.732-.001-.873-.339-1.485-1.129-1.796-.415-.163-.852-.27-1.267-.434-.143-.056-.249-.207-.372-.315.161-.072.336-.227.479-.201.339.062.665.205.992.324.258.095.513.201.841.328-.346-1.024-2.346-1.851-4.06-1.768.101.865-.286 1.486-1.058 1.807-.977.404-1.932.351-2.777-.406-1.132.854-2.241 1.817-3.726.74-.735 1.37-2.72 1.741-3.64.664-.372-.434-.683-.353-1.03-.065-1.426 1.182-2.62 2.563-3.225 4.333-.227.668-.176 1.438-.211 2.163-.024.486.345.7.733.596.699-.189 1.443-.379 2.034-.769 1.934-1.279 4.007-1.839 6.307-1.529.588.08 1.162.177 1.396-.579.005-.014.069-.009.187-.022.066.275.132.559.172.731.471.182.871.347 1.281.491.824.291 1.682.504 2.472.867 1.883.866 3.812 1.017 5.799.526.774-.191 1.47-.5 1.902-1.291.386-.705.944-1.316 1.41-1.979.089-.127.169-.313.144-.455-.123-.719-.314-.855-1.052-.893-.327-.017-.652-.101-.979-.14-.157-.019-.32-.004-.678-.004.434.883.811 1.609 1.145 2.356.075.166.004.397 0 .598-.16-.094-.377-.151-.47-.291-.235-.35-.414-.739-.545-.979m-26.529-13.222c-.042-.138-.074-.281-.129-.414-.459-1.114-.764-2.251-.435-3.459.246-.897.475-1.804.8-2.673.619-1.66.841-3.298.399-5.068-.248-.988-.08-2.113.599-2.942 1.633-1.994 2.506-4.306 3.118-6.761.539-2.158.726-4.403 1.74-6.444 1.239-2.497 2.944-4.574 5.323-6.028.954-.582 2.024-.938 3.22-.812 1.171.125 2.367.228 3.537.134 2.853-.231 6.076 2.222 6.849 4.47.233.683.48 1.36.721 2.04.046-.581.005-1.141-.06-1.699-.241-2.07-.779-4.037-2.045-5.744-.936-1.261-2.206-2.156-3.42-3.11-1.656-1.303-3.496-1.991-5.637-1.578-.894.173-1.786.345-2.817.543.628.519 1.072.925 1.56 1.269.155.108.43.095.639.067.5-.065.992-.202 1.492-.246.142-.012.305.196.458.302-.14.094-.27.237-.422.272-.461.103-.93.163-1.472.252.202.302.364.499.475.721.22.441.498.475.942.291.494-.204 1.032-.312 1.56-.414.12-.023.277.157.418.242-.119.116-.22.293-.359.334-.611.172-1.232.305-1.818.444-.023.38-.041.671-.06.962-.05.015-.103.029-.154.042-.096-.127-.225-.239-.281-.383-.733-1.86-2.122-3.038-3.888-3.882-1.235-.59-2.483-.311-3.724-.192-.825.08-1.681.206-2.438.516-.993.406-1.92.984-2.844 1.541-1.767 1.065-3.131 2.542-4.116 4.342-1.048 1.915-1.894 3.909-1.898 6.153-.003 1.474-.022 2.947.005 4.42.009.483.138.965.232 1.583.273-.345.49-.55.619-.8.463-.89 1.242-1.228 2.172-1.184.612.028.667-.217.619-.716-.061-.636-.072-1.28-.047-1.919.006-.15.24-.291.369-.435.064.154.176.308.182.465.034.814.034 1.629.06 2.444.005.167.023.383.125.486.391.392.819.746 1.26 1.138-.166-1.263-.335-2.548-.503-3.834l.129-.09c.153.225.387.43.445.676.673 2.82.822 5.644-.057 8.45-.185.587-.465 1.146-.737 1.702-.046.098-.272.109-.415.16-.03-.148-.073-.293-.081-.441-.005-.084.048-.171.077-.261h-.999c.667 2.048.12 3.971-.456 5.862-.608 1.998-1.348 3.926-.694 6.096.367 1.216.869 2.278 1.862 3.11m14.659-1.585c-.092-.038-.186-.075-.279-.112.087-.815.083-1.656.298-2.436.109-.395.563-.761.949-.995.385-.235.894-.253 1.324-.428 1.438-.584 2.979-1.013 4.268-1.835 2.608-1.664 4.026-4.183 4.238-7.277.154-2.257.485-4.495.348-6.788-.106-1.78-.01-3.57-.472-5.313-.529-1.986-.975-3.988-2.76-5.372-1.392-1.079-2.848-1.758-4.64-1.656-.953.055-1.947.184-2.857-.017-1.693-.372-3.048.261-4.27 1.21-2.596 2.012-4.33 4.642-5.136 7.839-.449 1.781-.752 3.6-1.247 5.367-.451 1.603-1.037 3.173-2.162 4.469-.536.616-.71 1.275-.506 2.136.332 1.409 1.078 2.559 2.045 3.539 1.253 1.265 2.652 2.385 3.956 3.602.324.304.718.731.738 1.122.05.899-.097 1.811-.201 2.715-.014.115-.236.225-.38.304-.127.071-.291.077-.419.146-1.585.856-3.171 1.711-4.748 2.58-1.315.725-2.184 1.84-2.712 3.23-.518 1.363-.668 2.779-.637 4.228.082 3.857 1.27 7.237 4.21 9.87 1.042.934 2.191 1.678 3.646 1.752 1.22.062 2.437.134 3.59-.443 1.418-.71 2.497-1.766 3.327-3.094.341-.548.648-1.117.972-1.676-.034-.065-.07-.129-.104-.193-.605-.028-1.208-.063-1.812-.082-1.624-.051-3.073.467-4.442 1.309-.642.395-1.334.728-2.04.993-.8.3-1.769-.06-1.972-.652-.279-.816-.273-1.616.012-2.45.532-1.557 1.381-2.891 2.553-4.042.198-.195.305-.56.318-.853.058-1.225.256-2.389 1.105-3.347.458-.516 1.078-.646 1.697-.548.606.098.953-.121 1.323-.557.258-.303.657-.613 1.03-.668.765-.112 1.073-.596 1.321-1.209.066-.161.155-.313.221-.473.542-1.302 1.09-2.602 1.619-3.908.172-.428-.133-.577-.467-.712-.362-.146-.421.109-.537.34-.072.144-.204.257-.308.385m5.983 1.023c1.535 1.236 2.951 2.486 3.613 4.102.237-2.162.392-4.487.763-6.776.512-3.158 1.678-6.101 3.4-8.804.306-.482.779-.856 1.143-1.305.158-.193.345-.458.33-.675-.075-.993.083-2.028-.503-2.964.48-.192.666.08.737.411.127.586.193 1.184.295 1.776.043.244-.033.599.395.569.348-.025.618-.186.582-.581-.122-1.31-.251-2.621-.402-3.93-.019-.179-.185-.336-.258-.514-.058-.144-.076-.305-.026-.488.662.503.97 1.196 1.065 1.967.118.962.157 1.935.247 2.901.012.137.126.264.191.396.079-.14.222-.275.229-.419.065-1.357.058-2.72.179-4.073.064-.702.33-1.39.532-2.076.039-.133.206-.228.313-.341.059.165.189.343.16.49-.174.896-.481 1.775-.555 2.676-.098 1.17-.034 2.357.001 3.534.005.134.254.346.418.377 1.297.252 2.048 1.119 2.572 2.238.605 1.297 1.191 2.602 1.774 3.909.086.191.082.42.158.617.109.278.223.744.391.771.428.068.876.052 1.177-.486.786-1.401 1.099-2.935 1.432-4.471.065-.305.164-.604.248-.906.087-.002.174-.004.263-.006.05.256.193.538.134.766-.329 1.263-.706 2.511-1.071 3.765-.085.293-.18.583-.285.917.97.323 1.592.959 1.776 2.007.556-.468 1.18-.825 1.553-1.356.35-.497.413-1.189.639-1.781.338-.881.709-1.749 1.077-2.647.428.203.43.383.239.772-.462.94-.822 1.928-1.223 2.897l.215.173c.89-.632 1.846-1.193 2.655-1.917.773-.69 1.389-1.556 2.091-2.329.121-.134.328-.188.497-.278.07.164.168.32.206.491.243 1.117.443 2.244.712 3.354.546 2.248.212 4.338-.806 6.419-1.237 2.532-3.286 4.356-5.162 6.331-1.156 1.216-1.874 2.659-2.494 4.169-.105.254-.052.695.111.916.789 1.073.989 2.316 1.081 3.574.164 2.27-.308 4.452-1.166 6.54-.22.533-.634 1.018-1.053 1.428-.419.408-.824.268-1.145-.209-.522-.771-.958-1.651-1.638-2.25-.842-.742-1.858-1.321-2.871-1.824-.679-.337-1.478-.442-2.233-.61-1.058-.233-2.025.156-2.997.496-.168.058-.367.027-.552.036.11-.177.179-.435.337-.519 1.017-.532 2.066-.776 3.249-.556 1.649.305 3.151.867 4.573 1.776 1.194.762 1.816 1.941 2.612 3.005.058.076.109.156.161.233 2.003-1.052 2.906-8.435 1.344-10.437-.214.051-.398.095-.582.138-.034-.174-.122-.358-.094-.522.088-.496-.268-.76-.578-.919-.523-.269-1.114-.407-1.677-.597-.035-.013-.099-.022-.112-.004-.368.507-.871.251-1.342.303-.514.055-1.004.37-1.489.602-.187.088-.335.26-.602.474 1.898.683 3.165 1.817 3.744 3.617-.046.048-.091.095-.138.143-.25-.238-.579-.431-.735-.72-.738-1.358-1.862-2.151-3.364-2.429-1.042-.194-1.975.071-2.82.7-.166.124-.378.227-.58.253-.75.1-1.268.538-1.67 1.016.572 0 1.199-.046 1.815.011.767.072 1.527.226 2.29.352.482.081.588.316.23.757-.227-.104-.463-.223-.708-.322-.986-.401-2.023-.295-3.046-.256-.261.01-.503.299-.776.368-1.001.255-1.399 1.081-1.912 1.844-.325.484-.835.844-1.307 1.303.905 1.371 2.139 2.304 3.866 2.489.443.047.891.064 1.336.07.609.009.931.414 1.104.889.203.555.395 1.155.032 1.738-.035.055-.128.074-.269.151-.111-.44-.228-.839-.304-1.245-.088-.471-.282-.701-.818-.787-1.19-.193-2.481-.137-3.465-1.009-.675-.599-1.328-1.229-1.925-1.905-.212-.241-.368-.287-.627-.221-.151.038-.299.091-.452.115-.834.132-.929.244-.735 1.108.218.963.489 1.915.718 2.876.172.736.299 1.483.478 2.216.245 1.013.519 2.02.781 3.027.036.131.147.277.115.383-.059.19-.2.356-.307.533-.113-.128-.293-.238-.327-.384-.52-2.227-1.01-4.462-1.53-6.69-.207-.887-.456-1.766-.719-2.639-.052-.174-.254-.304-.386-.454-.064.032-.127.064-.19.096.084.496.157.994.251 1.485.228 1.177.482 2.348.695 3.527.115.643.181 1.295.25 1.944.133 1.25.252 2.501.377 3.752.012.115.072.253.029.34-.069.141-.206.247-.314.368-.096-.106-.253-.2-.279-.322-.104-.51-.199-1.027-.246-1.546-.144-1.6-.214-3.208-.412-4.8-.172-1.363-.498-2.707-.724-4.065-.096-.586-.449-.796-1.147-.851 0 .677.04 1.348-.009 2.013-.109 1.495-.236 2.989-.402 4.479-.217 1.943-.476 3.881-.721 5.821-.022.171-.047.365-.143.494-.068.092-.263.134-.393.119-.058-.006-.148-.211-.134-.314.265-1.863.616-3.717.797-5.588.219-2.258.302-4.531.416-6.798.009-.173-.167-.439-.329-.524-.39-.203-.824-.324-1.333-.515-.292 1.262-.545 2.481-.858 3.685-.309 1.196-.653 2.387-1.026 3.565-.368 1.155-.328 2.438-.947 3.513-.084-.017-.168-.034-.252-.052.019-.204.012-.416.062-.614.76-3.125 1.535-6.249 2.29-9.376.217-.895.192-.903-.662-1.194-.348-.118-.699-.224-1.186-.379-.865 2.791-2.432 5.339-2.643 8.446 1.103-.783.97-2.18 1.815-3.165.079.278.163.404.13.477-.464 1.012-.928 2.025-1.434 3.016-.085.166-.361.273-.571.328-.415.109-.602-.039-.559-.518.139-1.545.689-2.969 1.211-4.404.451-1.239.896-2.479 1.335-3.721.061-.171.073-.359.106-.539-.051-.027-.103-.054-.155-.081-.126.18-.26.358-.378.544-.531.828-1.038 1.673-1.596 2.482-.227.328-.601.554-.839.876-.28.379-.538.794-.713 1.229-.581 1.435-1.085 2.899-1.687 4.323-.405.963-.9 1.891-1.398 2.811-.382.707-.82 1.384-1.257 2.058-.077.117-.28.153-.424.228.002-.169-.06-.38.017-.5 1.441-2.223 2.556-4.603 3.486-7.078.249-.662.542-1.309.864-2.081-.866.335-1.582.612-2.17.84-.351 1.138-.628 2.223-1.028 3.261-.326.843-.796 1.631-1.209 2.44-.537 1.053-1.304 1.92-2.185 2.695-.59.519-1.255.578-1.945.286-.139-.058-.252-.328-.263-.507-.034-.539-.013-1.081-.102-1.637-.113.697-.257 1.39-.333 2.092-.164 1.556-.289 3.115-.447 4.671-.011.108-.173.202-.265.301-.112-.125-.325-.257-.319-.377.044-.966.078-1.936.213-2.892.347-2.457.803-4.901 1.093-7.364.13-1.102-.03-2.231-.359-3.325-.275-.914-.442-1.859-.663-2.791-.021-.09-.073-.189-.14-.253-1.158-1.113-1.727-2.548-2.235-4.026-.967-2.815-1.083-5.656-.339-8.534.307-1.189.936-2.207 1.733-3.129.074-.085.132-.184.271-.38-.496-.202-.988-.32-1.38-.584-.391-.265-.721-.649-1.006-1.033-.345-.465-.675-.783-1.286-1.011-1.117-.415-1.85-1.346-2.146-2.57-.445-1.837-.042-3.573.515-5.313.785-2.458.742-4.971.39-7.492-.024-.169-.1-.341-.195-.485-.535-.822-.795-1.655-.62-2.686.116-.675-.193-1.412-.227-2.124-.065-1.409-.135-2.822-.08-4.229.046-1.175.134-2.379.443-3.505.674-2.458 1.775-4.71 3.686-6.496 2.251-2.105 4.793-3.632 7.911-3.969 1.144-.122 2.31-.279 3.463.152.27.1.679-.14 1.016-.249 2.182-.702 4.414-1.138 6.599-.217 1.356.572 2.615 1.404 3.744 2.398 1.323 1.163 2.509 2.409 3.207 4.073.881 2.104 1.179 4.299 1.148 6.552-.025 1.843-.322 3.716-.08 5.521.25 1.872-.011 3.678-.093 5.507-.086 1.939-.283 3.896-1.264 5.634-1.07 1.895-2.472 3.474-4.549 4.338-.678.282-1.335.617-1.989.949-.383.194-.487 1.222-.175 1.516.805.757 1.184.83 2.095.24.488-.316.981-.424 1.539-.394.543.03.782.25.766.795-.019.609-.278 1.113-.742 1.513-.407.353-.808.715-1.311 1.16" fill="#231f20" fill-rule="nonzero" transform="matrix(5.55556 0 0 5.55556 192.84080276 259.53502692)"/><path d="m0-16.505c.765.036.821-.518.915-1.046-.305.349-.609.698-.915 1.046zm-11.396 8.089c-.048.067-.097.135-.146.202.153.27.307.539.496.87.191-.222.322-.375.536-.626-.344-.173-.615-.31-.886-.446zm22.897 11.996c-.043-.315-.076-.553-.123-.886-.485.173-.899.32-1.461.521.611.141 1.056.244 1.584.365zm-2.362-.191c.005-.02.01-.04.015-.061-.639.096-1.284.163-1.914.304-.174.04-.299.297-.446.455.045.05.092.1.139.151.736-.283 1.471-.565 2.206-.849zm-1.441-7.261c-.803-.744-.673-1.597-.112-2.547-.389.049-.611.076-.767.096 0 .762-.029 1.47.01 2.176.031.587.293.665.869.275zm.635-3.165c-.005-.057-.011-.113-.016-.169-1.573-.569-1.573-.569-1.814-2.897-.199 1.046.13 2.073.141 3.196.602-.046 1.145-.088 1.689-.13zm-17.766 1.181c.475-.5.501-1.256.016-1.503-.222-.113-.644.089-.935.229-.101.049-.171.445-.097.516.294.281.65.497 1.016.758zm8.143-8.132c.423-.053.945.017 1.049-.158.291-.495.41-1.091.624-1.731-.984.282-1.446.877-1.673 1.889zm5.627-4.441c.536 1.514.953 1.861 2.242 1.881-.534-.881-1.053-1.694-2.242-1.881zm7.972 18.951.238-.238c.559.008 1.325-.475 1.436-1.005.047-.229-.138-.516-.249-.761-.012-.026-.279.009-.372.084-.37.301-.727.618-1.066.954-.101.098-.176.278-.167.415.012.187.116.367.18.551zm-20.675-6.747c.368-.262.77-.443 1.009-.75.24-.308.525-.819.42-1.105-.165-.45-.673-.176-1.022-.047-.212.077-.399.233-.576.38-.074.061-.143.202-.126.289.076.393.184.781.295 1.233zm9.824-10.579c.863.028.939-.055.855-.882-.02-.19.012-.385.023-.617.555.285.576.283.588.834.008.348.134.499.482.482.26-.014.522-.003.882-.003-.2-.432-.342-.788-.527-1.118-.095-.168-.272-.421-.402-.414-.406.018-.949.01-1.176.256-.355.382-.493.964-.725 1.462zm-10.871 15.973c.346.59.604 1.196 1.016 1.664.222.253.708.297 1.087.368.069.012.308-.332.282-.477-.199-1.107-.83-2.076-2.385-1.555zm17.1-13.259c-.23-1.42-1.132-2.144-2.428-1.967.125.529.239 1.055.38 1.572.028.1.158.23.254.241.591.067 1.185.105 1.794.154zm-7.28.068c.334-.025.521-.036.707-.053 1.381-.12 1.392-.12 1.336-1.515-.009-.23-.204-.66-.249-.652-.399.074-.959.111-1.135.38-.326.49-.423 1.132-.659 1.84zm9.335 16.66c.358-.121.574-.2.794-.267.742-.224.743-.223.567-.771-.325-.211-.537-.349-.772-.503.407-.274.721-.435.96-.671.079-.079.011-.486-.064-.511-.486-.157-.992-.249-1.485-.361zm-6.649-19.012v2.039h1.94c-.111-.457-.201-.811-.283-1.168-.208-.907-.281-.963-1.23-.916-.152.008-.302.032-.427.045zm-14.56 6.477c-1.853.354-2.25.64-2.321 1.8.691.327 1.372.647 2.158 1.019-.186-.434-.358-.723-.427-1.035-.041-.188.023-.55.136-.596.581-.235.522-.675.454-1.188zm1.758 4.787c-.305.944-.57 1.907-.93 2.836-.231.6.19.712.533.87.385.177.644-.065.733-.413.194-.762.332-1.539.516-2.304.158-.666-.201-.891-.852-.989zm12.953 10.767c.869-.165 1.648-.28 2.406-.477.214-.056.433-.319.532-.541.103-.229.064-.523.094-.873-1.042.057-2.052.113-3.118.172.032.608.059 1.172.086 1.719zm-3.567-19.161c-.501.07-.883.099-1.251.19-.137.033-.284.185-.35.321-.205.414-.373.846-.555 1.271-.283.663-.159.919.53 1.066.227.047.471.121.688.08.172-.033.419-.198.452-.345.184-.806.312-1.624.486-2.583zm7.268 13.154c.627-.131 1.063-.217 1.497-.316.111-.025.236-.07.314-.147.122-.121.295-.277.298-.42.01-.561-.03-1.124-.071-1.686-.008-.098-.097-.208-.179-.279-.214-.184-1.622 0-1.793.231-.043.058-.063.144-.064.216-.004.768-.002 1.535-.002 2.401zm-8.243-6.713c.12-.886.229-1.69.336-2.494.006-.038.027-.088.01-.113-.108-.165-.201-.439-.342-.467-1.275-.252-1.497-.099-1.788 1.12-.023.095-.041.189-.064.283-.304 1.255-.257 1.33 1.035 1.576.244.046.494.059.813.095zm2.083 10.871-.006.037c-.116-.01-.232-.018-.347-.029-.626-.063-.694.015-.545.605.092.377.175.755.256 1.133.188.882.186.882 1.087.928 1.007.051 1.531-.486 1.443-1.475-.011-.116-.045-.231-.039-.346.026-.462-.096-.723-.647-.694-.396.021-.801-.101-1.202-.159zm5.443-14.52c.664.014 1.171-.227 1.708-.375.724-.199.636-.502.519-.979-.079-.319-.145-.643-.251-.953-.051-.15-.168-.366-.286-.39-.682-.132-1.373-.217-2.171-.333.179 1.126.327 2.059.481 3.03zm-6.475 17.145c-.22-.945-.398-1.748-.603-2.542-.021-.084-.201-.158-.316-.179-.588-.108-1.184-.177-1.769-.295-.421-.085-.503.136-.42.446.16.615.358 1.223.56 1.826.043.129.157.305.267.329.709.151 1.427.265 2.281.415zm9.32-6.781c-.643.149-1.155.249-1.654.398-.147.043-.352.227-.357.352-.03.9-.015 1.802-.015 2.746.644-.119 1.254-.219 1.856-.352.117-.025.298-.177.295-.268-.022-.935-.076-1.87-.125-2.876zm-10.099 3.549c-.101-.954-.181-1.794-.29-2.63-.011-.091-.164-.217-.267-.233-.628-.097-1.263-.158-1.893-.252-.341-.051-.488.085-.436.408.104.648.218 1.295.362 1.934.024.11.205.232.334.265.691.176 1.389.325 2.19.508zm-2.515-10.166c-.1.913-.203 1.754-.274 2.598-.009.11.129.307.235.338.675.196 1.363.357 2.148.553v-3.162c-.649-.101-1.327-.206-2.109-.327zm-.41 3.549c0 .876-.015 1.686.015 2.494.006.141.185.373.316.398.711.139 1.433.224 2.13.324 0-.951.015-1.778-.018-2.604-.005-.118-.231-.299-.379-.326-.643-.116-1.297-.185-2.064-.286zm6.325-10.343c-.596.069-1.223.114-1.836.232-.141.027-.299.289-.334.466-.144.718-.261 1.444-.344 2.171-.015.138.162.425.262.43.723.037 1.448.02 2.252.02zm8.741 12.9c.605.045 1.137-.276 1.596-.708.601-.563.692-1.455.281-2.172-.198-.349-.453-.45-.819-.249-.54.298-1.083.591-1.63.876-.48.252-.809.965-.683 1.515.101.443.569.733 1.255.738zm-8.223-9.545c.877 0 1.606-.012 2.337.004.399.01.451-.189.386-.514-.086-.436-.172-.875-.239-1.314-.239-1.585-.236-1.585-1.809-1.566-.019 0-.038.001-.058-.001-.316-.028-.446.101-.452.433-.01.618-.063 1.233-.099 1.85-.02.353-.042.706-.066 1.108zm-3.836 7.467c.056.907.098 1.696.165 2.481.007.101.137.268.22.275.941.074 1.885.123 2.874.18 0-.822.005-1.574-.002-2.325-.004-.318-.139-.477-.501-.483-.869-.014-1.735-.076-2.756-.128zm2.501 6.359c.001-.003.001-.007.001-.01.116.007.233.009.348.02.479.044.717-.055.599-.642-.125-.622-.123-1.27-.15-1.908-.013-.298-.071-.458-.424-.465-.535-.01-1.071-.083-1.605-.136-.888-.089-1.061.076-.974.949.031.309.04.623.106.924.262 1.18-.123 1.108 1.288 1.2.271.018.541.045.811.068zm.74-13.301c-.449-.053-.889-.095-1.324-.157-1.227-.175-1.242-.18-1.432 1.058-.101.657-.14 1.322-.211 2.025 1.045.076 1.997.145 2.967.216zm-3.198 5.285c0 .367-.04.572.011.75.044.149.185.366.303.38.825.087 1.655.146 2.486.167.12.003.347-.24.355-.378.042-.734.048-1.471.02-2.204-.006-.145-.204-.385-.338-.402-.766-.098-1.539-.133-2.307-.208-.314-.033-.417.105-.433.388-.03.56-.072 1.12-.097 1.507zm3.69 4.671c1.147-.111 2.242-.21 3.334-.336.105-.013.271-.187.271-.288-.001-.657-.018-1.318-.083-1.971-.012-.126-.258-.329-.392-.327-.849.018-1.697.121-2.545.119-.492 0-.597.208-.589.627.015.677.004 1.353.004 2.176zm2.946-10.048c-.877.039-1.701.062-2.522.13-.118.01-.304.234-.311.367-.047.774-.068 1.552-.05 2.328.003.141.218.394.339.396.849.015 1.701-.006 2.55-.062.12-.008.331-.274.319-.405-.077-.886-.203-1.769-.325-2.754zm.433 6.517c0-.923.018-1.769-.022-2.612-.006-.115-.3-.311-.46-.312-.791-.003-1.583.03-2.372.094-.166.013-.449.204-.453.322-.038.883-.021 1.768-.021 2.689 1.167-.064 2.245-.122 3.328-.181zm-3.247 3.997c.058.919.091 1.749.184 2.572.015.135.302.342.461.34.794-.012 1.589-.064 2.379-.146.138-.015.353-.231.365-.368.065-.792.092-1.587.098-2.382.001-.109-.191-.324-.282-.317-1.039.078-2.076.19-3.205.301zm-15.085-7.049c-.835 1.854-1.644 3.648-2.452 5.439.71.341.809.297 1.168-.324.424-.738.871-1.462 1.325-2.183.057-.091.211-.12.319-.178.055.129.173.271.15.384-.035.16-.166.303-.266.445-.246.356-.497.708-.796 1.132 1.33-.11 1.326-.111 1.677-1.176.103-.312.237-.615.34-.927.571-1.736.57-1.738-1.115-2.499-.122-.054-.254-.082-.35-.113zm22.11 2.745c1.222-.149 2.056-.703 2.383-1.664.202-.595-.197-1.422-.764-1.461-1.07-.074-2.135-.023-3.1.54-.83.483-.985 1.63-.043 2.095.472.233 1.013.332 1.524.49zm-14.264 5.83c-.287-2.784-1.694-4.807-3.957-6.495-.258 1.015-.483 1.902-.715 2.813 1.737-.151 2.615 1.443 2.644 2.86.653.265 1.307.529 2.028.822zm-15.725 1c.072-.002.144-.004.217-.006.262.35.523.699.785 1.047.437.577 1.196.834 1.798.611.673-.248 1.076-.857 1.043-1.579-.039-.878-1.073-2.067-1.95-2.123-.497-.031-1.123-.024-1.486.243-.942.695-1.063 1.797-1.145 3.042.303-.238.557-.351.665-.546.103-.186.055-.456.073-.689zm6.674-3.587c.188.212.34.381.489.552.541.624 1.187 1.162 1.275 2.09.089.956.3 1.117 1.249 1.259.861.131 1.851-.574 1.643-1.273-.256-.86-.671-1.69-1.129-2.468-.323-.549-.93-.694-1.588-.797-.794-.126-1.335.155-1.939.637zm-3.718 1.184c.028.042.051.097.091.136.703.682 1.354 1.386 1.522 2.416.028.178.237.352.402.477.674.504 1.62.274 2.492-.587.44-.436.478-1.254.009-1.877-.31-.412-.71-.759-1.089-1.115-1.032-.97-2.733-.697-3.427.55zm27.563-8.178c.267-.023.502.02.665-.069.742-.409 1.362-1.785 1.217-2.625-.1-.575-.542-1.085-1-1.068-1.159.042-2.305.148-3.331.795-.67.422-1.024 1.035-.858 1.613.17.589.781.933 1.601.834.555-.067 1.099-.214 1.649-.324.175-.035.349-.067.524-.1.038.054.076.106.116.159-.168.228-.338.456-.583.785zm-42.378-13.442c0 .398-.023.702.003 1 .188 2.147.041 4.267-.58 6.332-.463 1.539-.82 3.054-.441 4.685.218.935.962 1.957 1.751 2.306-.156-.693-.399-1.448-.488-2.222-.175-1.514.236-2.961.616-4.41.398-1.515.816-3.031 1.075-4.572.122-.735.019-1.572-.224-2.278-.107-.31-.822-.411-1.261-.609-.104-.048-.204-.105-.451-.232zm4.467-3.091c-.091-.701-.844-2.22-1.387-2.618-1.258-.923-2.224-.742-3.106.586-.151.226-.308.449-.438.687-1.053 1.944-.501 2.66.617 3.846.671.711 1.634.876 2.538 1.047.299.058.894-.218.981-.471.345-.998.543-2.047.795-3.077zm1.057 37.845c.09.359.209.784.303 1.214.266 1.21.646 2.411.754 3.635.152 1.736.115 3.49.125 5.237.003.498.28.614.621.472.399-.166.786-.424 1.096-.727 1.559-1.515 2.347-3.489 3.15-5.446.272-.661.442-1.363.67-2.086-1.309.239-2.569.157-3.678-.333-1.089-.481-2.029-1.295-3.041-1.966zm-1.508-31.054c.051.586.002 1.14.158 1.628.538 1.687-.037 3.206-.578 4.751-.519 1.482-.972 2.945-.562 4.592.275 1.106 1.182 1.528 1.824 2.239.049.054.281-.016.4-.08.608-.337 1.198-.705 1.812-1.034.99-.534 2.008-1.018 2.985-1.573.791-.448 1.241-2.14.651-2.807-.704-.793-1.594-1.423-2.533-2.236-.067.994-.121 1.803-.175 2.612-.088.013-.178.026-.267.038-.099-.341-.271-.682-.28-1.026-.015-.48.107-.961.143-1.445.063-.8-.364-1.421-1.022-1.675-.321 1.057-.632 2.128-.972 3.189-.296.924-.655 1.829-.532 2.833.052.426.066.859.098 1.289-.058.024-.117.048-.175.071-.098-.15-.249-.287-.287-.452-.26-1.116-.259-2.223.118-3.325.312-.915.675-1.828.844-2.773.122-.677.128-1.468-.111-2.094-.354-.923-.971-1.746-1.539-2.722zm48.439 1.948c-.08-.003-.16-.007-.24-.01-.125.14-.241.29-.378.42-.678.637-1.331 1.304-2.047 1.897-1.42 1.176-3.256 1.817-4.374 3.386-.512.718-1.011 1.444-1.534 2.192.636.468 1.118 1.018 1.109 1.892.881-1.059 1.627-2.188 2.779-2.99.051.226.054.446-.051.579-.534.666-1.083 1.322-1.655 1.955-.417.463-.544 1.27-1.47 1.201.887.633 1.203 1.45 1.131 2.458-.01.16.191.335.306.524 1.398-1.046 2.368-2.347 3.247-3.732.093-.146.256-.245.387-.366.05.049.1.098.15.146-.089.188-.15.396-.272.559-.708.944-1.458 1.858-2.139 2.821-.396.564-.986.981-1.105 1.768-.116.769-.586 1.34-1.459 1.439-.263.029-.517.138-.81.219 0 .808.05 1.638-.02 2.458-.037.445.07.678.317.764.761-1.28 1.374-2.626 2.272-3.746 1.209-1.512 2.676-2.816 3.96-4.275 1.677-1.903 2.808-4.112 2.694-6.696-.071-1.629-.519-3.242-.798-4.863zm-22.977 23.659c-.461-.109-.826-.135-1.139-.278-2.43-1.116-4.961-1.475-7.607-1.109-.128.018-.277-.118-.416-.183.107-.126.197-.331.328-.362.278-.066.577-.027.866-.053 1.701-.153 3.378-.033 5.007.492.896.289 1.768.656 2.696 1.005-.01-.135-.004-.211-.024-.279-.211-.714-.863-1.041-1.389-1.414-1.213-.859-2.627-1.161-4.108-1.292-2.103-.189-4.145.1-6.165.601-.71.176-1.372.535-2.069.78-.154.053-.354-.024-.534-.04.032-.119.026-.291.103-.343.3-.206.608-.431.947-.544 2.056-.688 4.174-1.072 6.34-1.072 1.569.001 3.159.004 4.615.751.477.245.958.477 1.474.732-.001-.873-.339-1.485-1.129-1.796-.415-.163-.852-.27-1.267-.434-.143-.056-.249-.207-.372-.315.161-.072.336-.227.479-.201.339.062.665.205.992.324.258.095.513.201.841.328-.346-1.024-2.346-1.851-4.06-1.768.101.865-.286 1.486-1.058 1.807-.977.404-1.932.351-2.777-.406-1.132.854-2.241 1.817-3.726.74-.735 1.37-2.72 1.741-3.64.664-.372-.434-.683-.353-1.03-.065-1.426 1.182-2.62 2.563-3.225 4.333-.227.668-.176 1.438-.211 2.163-.024.486.345.7.733.596.699-.189 1.443-.379 2.034-.769 1.934-1.279 4.007-1.839 6.307-1.529.588.08 1.162.177 1.396-.579.005-.014.069-.009.187-.022.066.275.132.559.172.731.471.182.871.347 1.281.491.824.291 1.682.504 2.472.867 1.883.866 3.812 1.017 5.799.526.774-.191 1.47-.5 1.902-1.291.386-.705.944-1.316 1.41-1.979.089-.127.169-.313.144-.455-.123-.719-.314-.855-1.052-.893-.327-.017-.652-.101-.979-.14-.157-.019-.32-.004-.678-.004.434.883.811 1.609 1.145 2.356.075.166.004.397 0 .598-.16-.094-.377-.151-.47-.291-.235-.35-.414-.739-.545-.979zm-26.529-13.222c-.042-.138-.074-.281-.129-.414-.459-1.114-.764-2.251-.435-3.459.246-.897.475-1.804.8-2.673.619-1.66.841-3.298.399-5.068-.248-.988-.08-2.113.599-2.942 1.633-1.994 2.506-4.306 3.118-6.761.539-2.158.726-4.403 1.74-6.444 1.239-2.497 2.944-4.574 5.323-6.028.954-.582 2.024-.938 3.22-.812 1.171.125 2.367.228 3.537.134 2.853-.231 6.076 2.222 6.849 4.47.233.683.48 1.36.721 2.04.046-.581.005-1.141-.06-1.699-.241-2.07-.779-4.037-2.045-5.744-.936-1.261-2.206-2.156-3.42-3.11-1.656-1.303-3.496-1.991-5.637-1.578-.894.173-1.786.345-2.817.543.628.519 1.072.925 1.56 1.269.155.108.43.095.639.067.5-.065.992-.202 1.492-.246.142-.012.305.196.458.302-.14.094-.27.237-.422.272-.461.103-.93.163-1.472.252.202.302.364.499.475.721.22.441.498.475.942.291.494-.204 1.032-.312 1.56-.414.12-.023.277.157.418.242-.119.116-.22.293-.359.334-.611.172-1.232.305-1.818.444-.023.38-.041.671-.06.962-.05.015-.103.029-.154.042-.096-.127-.225-.239-.281-.383-.733-1.86-2.122-3.038-3.888-3.882-1.235-.59-2.483-.311-3.724-.192-.825.08-1.681.206-2.438.516-.993.406-1.92.984-2.844 1.541-1.767 1.065-3.131 2.542-4.116 4.342-1.048 1.915-1.894 3.909-1.898 6.153-.003 1.474-.022 2.947.005 4.42.009.483.138.965.232 1.583.273-.345.49-.55.619-.8.463-.89 1.242-1.228 2.172-1.184.612.028.667-.217.619-.716-.061-.636-.072-1.28-.047-1.919.006-.15.24-.291.369-.435.064.154.176.308.182.465.034.814.034 1.629.06 2.444.005.167.023.383.125.486.391.392.819.746 1.26 1.138-.166-1.263-.335-2.548-.503-3.834l.129-.09c.153.225.387.43.445.676.673 2.82.822 5.644-.057 8.45-.185.587-.465 1.146-.737 1.702-.046.098-.272.109-.415.16-.03-.148-.073-.293-.081-.441-.005-.084.048-.171.077-.261h-.999c.667 2.048.12 3.971-.456 5.862-.608 1.998-1.348 3.926-.694 6.096.367 1.216.869 2.278 1.862 3.11zm14.659-1.585c-.092-.038-.186-.075-.279-.112.087-.815.083-1.656.298-2.436.109-.395.563-.761.949-.995.385-.235.894-.253 1.324-.428 1.438-.584 2.979-1.013 4.268-1.835 2.608-1.664 4.026-4.183 4.238-7.277.154-2.257.485-4.495.348-6.788-.106-1.78-.01-3.57-.472-5.313-.529-1.986-.975-3.988-2.76-5.372-1.392-1.079-2.848-1.758-4.64-1.656-.953.055-1.947.184-2.857-.017-1.693-.372-3.048.261-4.27 1.21-2.596 2.012-4.33 4.642-5.136 7.839-.449 1.781-.752 3.6-1.247 5.367-.451 1.603-1.037 3.173-2.162 4.469-.536.616-.71 1.275-.506 2.136.332 1.409 1.078 2.559 2.045 3.539 1.253 1.265 2.652 2.385 3.956 3.602.324.304.718.731.738 1.122.05.899-.097 1.811-.201 2.715-.014.115-.236.225-.38.304-.127.071-.291.077-.419.146-1.585.856-3.171 1.711-4.748 2.58-1.315.725-2.184 1.84-2.712 3.23-.518 1.363-.668 2.779-.637 4.228.082 3.857 1.27 7.237 4.21 9.87 1.042.934 2.191 1.678 3.646 1.752 1.22.062 2.437.134 3.59-.443 1.418-.71 2.497-1.766 3.327-3.094.341-.548.648-1.117.972-1.676-.034-.065-.07-.129-.104-.193-.605-.028-1.208-.063-1.812-.082-1.624-.051-3.073.467-4.442 1.309-.642.395-1.334.728-2.04.993-.8.3-1.769-.06-1.972-.652-.279-.816-.273-1.616.012-2.45.532-1.557 1.381-2.891 2.553-4.042.198-.195.305-.56.318-.853.058-1.225.256-2.389 1.105-3.347.458-.516 1.078-.646 1.697-.548.606.098.953-.121 1.323-.557.258-.303.657-.613 1.03-.668.765-.112 1.073-.596 1.321-1.209.066-.161.155-.313.221-.473.542-1.302 1.09-2.602 1.619-3.908.172-.428-.133-.577-.467-.712-.362-.146-.421.109-.537.34-.072.144-.204.257-.308.385zm5.983 1.023c1.535 1.236 2.951 2.486 3.613 4.102.237-2.162.392-4.487.763-6.776.512-3.158 1.678-6.101 3.4-8.804.306-.482.779-.856 1.143-1.305.158-.193.345-.458.33-.675-.075-.993.083-2.028-.503-2.964.48-.192.666.08.737.411.127.586.193 1.184.295 1.776.043.244-.033.599.395.569.348-.025.618-.186.582-.581-.122-1.31-.251-2.621-.402-3.93-.019-.179-.185-.336-.258-.514-.058-.144-.076-.305-.026-.488.662.503.97 1.196 1.065 1.967.118.962.157 1.935.247 2.901.012.137.126.264.191.396.079-.14.222-.275.229-.419.065-1.357.058-2.72.179-4.073.064-.702.33-1.39.532-2.076.039-.133.206-.228.313-.341.059.165.189.343.16.49-.174.896-.481 1.775-.555 2.676-.098 1.17-.034 2.357.001 3.534.005.134.254.346.418.377 1.297.252 2.048 1.119 2.572 2.238.605 1.297 1.191 2.602 1.774 3.909.086.191.082.42.158.617.109.278.223.744.391.771.428.068.876.052 1.177-.486.786-1.401 1.099-2.935 1.432-4.471.065-.305.164-.604.248-.906.087-.002.174-.004.263-.006.05.256.193.538.134.766-.329 1.263-.706 2.511-1.071 3.765-.085.293-.18.583-.285.917.97.323 1.592.959 1.776 2.007.556-.468 1.18-.825 1.553-1.356.35-.497.413-1.189.639-1.781.338-.881.709-1.749 1.077-2.647.428.203.43.383.239.772-.462.94-.822 1.928-1.223 2.897l.215.173c.89-.632 1.846-1.193 2.655-1.917.773-.69 1.389-1.556 2.091-2.329.121-.134.328-.188.497-.278.07.164.168.32.206.491.243 1.117.443 2.244.712 3.354.546 2.248.212 4.338-.806 6.419-1.237 2.532-3.286 4.356-5.162 6.331-1.156 1.216-1.874 2.659-2.494 4.169-.105.254-.052.695.111.916.789 1.073.989 2.316 1.081 3.574.164 2.27-.308 4.452-1.166 6.54-.22.533-.634 1.018-1.053 1.428-.419.408-.824.268-1.145-.209-.522-.771-.958-1.651-1.638-2.25-.842-.742-1.858-1.321-2.871-1.824-.679-.337-1.478-.442-2.233-.61-1.058-.233-2.025.156-2.997.496-.168.058-.367.027-.552.036.11-.177.179-.435.337-.519 1.017-.532 2.066-.776 3.249-.556 1.649.305 3.151.867 4.573 1.776 1.194.762 1.816 1.941 2.612 3.005.058.076.109.156.161.233 2.003-1.052 2.906-8.435 1.344-10.437-.214.051-.398.095-.582.138-.034-.174-.122-.358-.094-.522.088-.496-.268-.76-.578-.919-.523-.269-1.114-.407-1.677-.597-.035-.013-.099-.022-.112-.004-.368.507-.871.251-1.342.303-.514.055-1.004.37-1.489.602-.187.088-.335.26-.602.474 1.898.683 3.165 1.817 3.744 3.617-.046.048-.091.095-.138.143-.25-.238-.579-.431-.735-.72-.738-1.358-1.862-2.151-3.364-2.429-1.042-.194-1.975.071-2.82.7-.166.124-.378.227-.58.253-.75.1-1.268.538-1.67 1.016.572 0 1.199-.046 1.815.011.767.072 1.527.226 2.29.352.482.081.588.316.23.757-.227-.104-.463-.223-.708-.322-.986-.401-2.023-.295-3.046-.256-.261.01-.503.299-.776.368-1.001.255-1.399 1.081-1.912 1.844-.325.484-.835.844-1.307 1.303.905 1.371 2.139 2.304 3.866 2.489.443.047.891.064 1.336.07.609.009.931.414 1.104.889.203.555.395 1.155.032 1.738-.035.055-.128.074-.269.151-.111-.44-.228-.839-.304-1.245-.088-.471-.282-.701-.818-.787-1.19-.193-2.481-.137-3.465-1.009-.675-.599-1.328-1.229-1.925-1.905-.212-.241-.368-.287-.627-.221-.151.038-.299.091-.452.115-.834.132-.929.244-.735 1.108.218.963.489 1.915.718 2.876.172.736.299 1.483.478 2.216.245 1.013.519 2.02.781 3.027.036.131.147.277.115.383-.059.19-.2.356-.307.533-.113-.128-.293-.238-.327-.384-.52-2.227-1.01-4.462-1.53-6.69-.207-.887-.456-1.766-.719-2.639-.052-.174-.254-.304-.386-.454-.064.032-.127.064-.19.096.084.496.157.994.251 1.485.228 1.177.482 2.348.695 3.527.115.643.181 1.295.25 1.944.133 1.25.252 2.501.377 3.752.012.115.072.253.029.34-.069.141-.206.247-.314.368-.096-.106-.253-.2-.279-.322-.104-.51-.199-1.027-.246-1.546-.144-1.6-.214-3.208-.412-4.8-.172-1.363-.498-2.707-.724-4.065-.096-.586-.449-.796-1.147-.851 0 .677.04 1.348-.009 2.013-.109 1.495-.236 2.989-.402 4.479-.217 1.943-.476 3.881-.721 5.821-.022.171-.047.365-.143.494-.068.092-.263.134-.393.119-.058-.006-.148-.211-.134-.314.265-1.863.616-3.717.797-5.588.219-2.258.302-4.531.416-6.798.009-.173-.167-.439-.329-.524-.39-.203-.824-.324-1.333-.515-.292 1.262-.545 2.481-.858 3.685-.309 1.196-.653 2.387-1.026 3.565-.368 1.155-.328 2.438-.947 3.513-.084-.017-.168-.034-.252-.052.019-.204.012-.416.062-.614.76-3.125 1.535-6.249 2.29-9.376.217-.895.192-.903-.662-1.194-.348-.118-.699-.224-1.186-.379-.865 2.791-2.432 5.339-2.643 8.446 1.103-.783.97-2.18 1.815-3.165.079.278.163.404.13.477-.464 1.012-.928 2.025-1.434 3.016-.085.166-.361.273-.571.328-.415.109-.602-.039-.559-.518.139-1.545.689-2.969 1.211-4.404.451-1.239.896-2.479 1.335-3.721.061-.171.073-.359.106-.539-.051-.027-.103-.054-.155-.081-.126.18-.26.358-.378.544-.531.828-1.038 1.673-1.596 2.482-.227.328-.601.554-.839.876-.28.379-.538.794-.713 1.229-.581 1.435-1.085 2.899-1.687 4.323-.405.963-.9 1.891-1.398 2.811-.382.707-.82 1.384-1.257 2.058-.077.117-.28.153-.424.228.002-.169-.06-.38.017-.5 1.441-2.223 2.556-4.603 3.486-7.078.249-.662.542-1.309.864-2.081-.866.335-1.582.612-2.17.84-.351 1.138-.628 2.223-1.028 3.261-.326.843-.796 1.631-1.209 2.44-.537 1.053-1.304 1.92-2.185 2.695-.59.519-1.255.578-1.945.286-.139-.058-.252-.328-.263-.507-.034-.539-.013-1.081-.102-1.637-.113.697-.257 1.39-.333 2.092-.164 1.556-.289 3.115-.447 4.671-.011.108-.173.202-.265.301-.112-.125-.325-.257-.319-.377.044-.966.078-1.936.213-2.892.347-2.457.803-4.901 1.093-7.364.13-1.102-.03-2.231-.359-3.325-.275-.914-.442-1.859-.663-2.791-.021-.09-.073-.189-.14-.253-1.158-1.113-1.727-2.548-2.235-4.026-.967-2.815-1.083-5.656-.339-8.534.307-1.189.936-2.207 1.733-3.129.074-.085.132-.184.271-.38-.496-.202-.988-.32-1.38-.584-.391-.265-.721-.649-1.006-1.033-.345-.465-.675-.783-1.286-1.011-1.117-.415-1.85-1.346-2.146-2.57-.445-1.837-.042-3.573.515-5.313.785-2.458.742-4.971.39-7.492-.024-.169-.1-.341-.195-.485-.535-.822-.795-1.655-.62-2.686.116-.675-.193-1.412-.227-2.124-.065-1.409-.135-2.822-.08-4.229.046-1.175.134-2.379.443-3.505.674-2.458 1.775-4.71 3.686-6.496 2.251-2.105 4.793-3.632 7.911-3.969 1.144-.122 2.31-.279 3.463.152.27.1.679-.14 1.016-.249 2.182-.702 4.414-1.138 6.599-.217 1.356.572 2.615 1.404 3.744 2.398 1.323 1.163 2.509 2.409 3.207 4.073.881 2.104 1.179 4.299 1.148 6.552-.025 1.843-.322 3.716-.08 5.521.25 1.872-.011 3.678-.093 5.507-.086 1.939-.283 3.896-1.264 5.634-1.07 1.895-2.472 3.474-4.549 4.338-.678.282-1.335.617-1.989.949-.383.194-.487 1.222-.175 1.516.805.757 1.184.83 2.095.24.488-.316.981-.424 1.539-.394.543.03.782.25.766.795-.019.609-.278 1.113-.742 1.513-.407.353-.808.715-1.311 1.16z" fill="none" stroke="#231f20" stroke-width=".19" transform="matrix(5.55556 0 0 5.55556 192.84080276 259.53502692)"/><g fill-rule="nonzero"><path d="m0 2.139c.12-.979.228-1.958.375-2.932.022-.147.232-.267.357-.399.09.173.271.35.259.515-.088 1.193-.205 2.384-.338 3.573-.017.153-.178.291-.274.435-.104-.143-.265-.274-.298-.432-.051-.241-.014-.501-.014-.753z" fill="#231f20" transform="matrix(5.55556 0 0 5.55556 237.31306056 342.7184268)"/><path d="m0-15.293c-.168-.151-.268-.242-.367-.332-.141.164-.302.318-.405.503-.025.046.145.198.225.303.161-.14.32-.277.547-.474m9.791 3.067c.059-.001.12-.002.181-.003.072-.213.168-.422.2-.64.011-.071-.148-.168-.23-.252-.126.191-.28.37-.363.579-.026.066.136.209.212.316m-1.785.357c.064 0 .13-.001.195-.002.07-.217.175-.431.195-.653.01-.105-.142-.226-.221-.339-.125.197-.287.381-.353.596-.033.103.116.264.184.398m-6.352-3.045c-.229-.142-.435-.323-.481-.288-.186.136-.341.328-.46.527-.026.042.144.202.223.307.208-.157.416-.316.718-.546m1.296.97c-.247-.105-.434-.238-.484-.199-.216.174-.392.397-.583.601.101.092.271.278.294.262.238-.173.454-.38.773-.664m.694.339c-.052-.01-.104-.02-.155-.03-.194.153-.428.275-.564.468-.073.101.024.324.045.492.21-.147.45-.264.616-.451.087-.098.043-.315.058-.479m3.343 1.05c-.202-.167-.317-.262-.432-.356-.16.263-.333.519-.464.796-.023.048.137.182.212.277.208-.218.415-.436.684-.717m-1.562-.092c-.315-.284-.415-.374-.513-.463-.199.237-.405.468-.579.721-.015.022.223.285.258.267.264-.135.507-.311.834-.525m-2.523-16.614c-.329.327-.649.609-.917.936-.106.128-.096.353-.139.535.16-.083.341-.141.476-.252.32-.261.506-.807 1.086-.447.044.026.197-.043.229-.105.03-.058-.002-.201-.057-.242-.176-.134-.375-.239-.678-.425m7.271 1.168c-.56-.185-1.07-.376-1.595-.511-.103-.027-.262.164-.395.255.121.125.261.367.361.353.511-.077.856.15 1.167.503.029.032.106.023.162.032.07-.148.136-.287.3-.632m-10.255 15.71c1.084 1.985 3.024 2.692 5.135 3.114.388.078.641-.034.672-.456-1.05-.34-2.089-.638-3.098-1.012-1.065-.395-1.753-1.241-2.274-2.005.036-.374.057-.588.079-.802-.205.072-.424.12-.611.224-.147.084-.3.215-.37.363-.089.183-.098.407-.141.613zm4.029-2.878c-.07.022-.139.044-.208.066.058.201.054.473.187.592.582.512 1.268.845 2.065.765.938-.094 1.804-.384 2.575-.979 1.332-1.029 1.797-3.093.911-4.364-.975-1.4-2.061-2.737-2.278-4.523-.015-.126-.256-.224-.392-.336-.057.153-.193.326-.159.455.218.821.394 1.667.739 2.435.331.732.818 1.405 1.3 2.057.613.829.708 1.716.388 2.648-.495 1.436-2.982 2.615-4.385 1.627-.236-.166-.495-.296-.743-.443m-.508 12.909c.104-.127.235-.242.308-.385.116-.23.174-.485.537-.339.334.133.639.283.466.71-.529 1.308-1.077 2.608-1.619 3.908-.066.161-.154.312-.22.474-.248.612-.556 1.096-1.321 1.209-.374.056-.772.365-1.03.669-.371.435-.718.653-1.324.556-.618-.098-1.238.032-1.696.548-.849.957-1.048 2.123-1.105 3.347-.013.293-.12.658-.318.852-1.172 1.151-2.022 2.485-2.553 4.043-.286.833-.292 1.635-.013 2.45.203.592 1.173.952 1.973.651.705-.265 1.398-.598 2.039-.992 1.37-.841 2.818-1.359 4.442-1.308.604.018 1.208.053 1.813.08.034.064.069.13.103.194-.323.56-.63 1.129-.972 1.676-.829 1.329-1.908 2.384-3.326 3.093-1.154.577-2.37.506-3.59.444-1.456-.073-2.604-.818-3.647-1.753-2.939-2.631-4.128-6.011-4.209-9.869-.031-1.45.118-2.866.636-4.228.528-1.391 1.397-2.504 2.713-3.231 1.577-.869 3.163-1.724 4.747-2.579.129-.069.292-.075.42-.147.143-.079.365-.187.379-.304.105-.902.251-1.815.202-2.715-.02-.389-.414-.818-.739-1.121-1.303-1.217-2.704-2.336-3.955-3.603-.968-.978-1.713-2.13-2.045-3.538-.204-.861-.031-1.519.505-2.136 1.125-1.296 1.712-2.867 2.162-4.47.496-1.766.798-3.586 1.248-5.366.806-3.198 2.54-5.826 5.135-7.84 1.223-.948 2.578-1.582 4.271-1.208.909.199 1.904.071 2.855.017 1.794-.104 3.249.577 4.641 1.656 1.786 1.384 2.231 3.385 2.76 5.37.462 1.745.367 3.534.472 5.314.138 2.293-.194 4.53-.347 6.787-.212 3.095-1.63 5.615-4.239 7.279-1.288.822-2.83 1.25-4.267 1.834-.431.174-.94.193-1.324.427-.386.235-.84.6-.949.996-.215.781-.211 1.621-.299 2.437.094.037.187.073.28.111" fill="#ecd1c8" transform="matrix(5.55556 0 0 5.55556 94.32405728 236.7461198)"/><path d="m0 11.093c-1.624-.051-3.073.467-4.442 1.309-.642.394-1.334.727-2.04.991-.8.302-1.769-.058-1.972-.65-.279-.816-.273-1.617.012-2.45.46-1.346 1.17-2.515 2.107-3.554-1.262-.866-3.796-1.954-3.686-3.482-.577-2.085.239-4.791 2.163-6.503 1.192-1.061 2.641-1.562 4.178-1.838-.437-.149-.856-.328-1.242-.537-.004.03-.008.06-.011.091-.014.116-.236.225-.379.305-.128.071-.291.076-.42.146-1.585.855-3.17 1.709-4.747 2.579-1.316.726-2.185 1.84-2.714 3.23-.517 1.363-.666 2.779-.635 4.229.081 3.857 1.269 7.237 4.209 9.87 1.043.933 2.191 1.678 3.646 1.752 1.221.061 2.437.133 3.59-.445 1.418-.708 2.497-1.764 3.326-3.092.343-.548.65-1.117.973-1.677-.034-.064-.069-.128-.103-.193-.606-.028-1.209-.062-1.813-.081" fill="#e5c0b3" transform="matrix(5.55556 0 0 5.55556 105.46851064 253.12391068)"/><path d="m0 3.507c-3.01.105-6.292.033-8.87-1.717-2.386-1.62-3.645-4.231-4.245-6.969-.131.181-.27.358-.418.53-.537.617-.71 1.275-.506 2.136.332 1.409 1.077 2.559 2.045 3.539 1.252 1.266 2.651 2.385 3.955 3.602.324.303.718.733.739 1.121.036.651-.033 1.307-.111 1.96.804.47 1.797.816 2.827.977 1.065-.104 2.143-.16 3.183-.262.072-.766.084-1.548.285-2.277.108-.395.562-.761.948-.995.386-.235.895-.253 1.324-.429 1.437-.583 2.979-1.011 4.268-1.833.263-.168.505-.351.744-.535-1.89.733-4.041 1.078-6.168 1.152" fill="#e5c0b3" transform="matrix(5.55556 0 0 5.55556 119.74074428 175.37384848)"/><path d="m0 40.502c-.994-.832-1.495-1.894-1.863-3.11-.654-2.169.086-4.098.695-6.097.576-1.89 1.123-3.813.455-5.862h.999c-.028.09-.081.178-.076.262.008.149.051.294.08.441.144-.051.368-.063.416-.16.272-.555.552-1.115.736-1.702.879-2.806.731-5.631.057-8.449-.058-.247-.292-.453-.444-.677-.043.03-.086.06-.13.09.169 1.286.338 2.57.503 3.834-.441-.393-.869-.747-1.259-1.138-.104-.103-.121-.319-.126-.486-.026-.814-.026-1.63-.06-2.445-.005-.156-.118-.31-.182-.465-.128.145-.363.286-.368.436-.025.638-.014 1.283.045 1.919.048.5-.006.745-.618.716-.931-.045-1.708.294-2.171 1.184-.131.25-.347.455-.619.8-.096-.618-.224-1.1-.232-1.583-.027-1.472-.008-2.947-.005-4.42.004-2.244.849-4.238 1.897-6.152.985-1.8 2.349-3.277 4.117-4.343.923-.557 1.85-1.135 2.843-1.541.758-.31 1.613-.436 2.439-.516 1.241-.119 2.488-.398 3.724.193 1.765.843 3.154 2.02 3.888 3.882.055.143.184.256.281.382l.153-.042c.019-.291.036-.582.061-.961.586-.141 1.207-.273 1.816-.446.141-.04.241-.218.36-.332-.14-.086-.298-.266-.417-.243-.529.101-1.067.21-1.561.415-.443.183-.721.148-.942-.292-.111-.222-.272-.418-.475-.721.542-.089 1.012-.15 1.472-.252.153-.034.282-.178.423-.272-.155-.106-.316-.314-.46-.301-.5.043-.99.18-1.49.246-.21.027-.485.041-.64-.068-.487-.345-.932-.75-1.559-1.269 1.031-.199 1.923-.37 2.815-.543 2.143-.414 3.982.276 5.639 1.578 1.213.954 2.484 1.849 3.419 3.11 1.267 1.707 1.805 3.673 2.046 5.745.064.557.105 1.117.059 1.698-.241-.68-.487-1.358-.721-2.04-.774-2.248-3.996-4.7-6.85-4.471-1.169.095-2.364-.009-3.536-.133-1.195-.127-2.267.23-3.219.812-2.379 1.454-4.084 3.532-5.325 6.028-1.012 2.04-1.199 4.285-1.738 6.443-.612 2.456-1.487 4.768-3.119 6.762-.679.83-.847 1.954-.599 2.943.442 1.768.22 3.407-.399 5.066-.324.87-.553 1.777-.799 2.675-.33 1.207-.024 2.344.435 3.458.055.133.087.276.129.414" fill="#4f4f51" transform="matrix(5.55556 0 0 5.55556 31.99622964 7.47926972)"/><path d="m0 2.727c-.052-.72.269-1.271.297-1.935.02-.469.241-.167-.21-.448-.404-.252-1.381-.154-1.833-.186-.255-.017-.426-.333-.219-.528.312-.298.523-.667.776-1.004-.398-.136-.779-.263-1.243-.25-.224.006-.401-.272-.267-.467.575-.828-.695-.964-1.907-.926-.296.071-.588.154-.864.266-.993.407-1.92.985-2.843 1.542-.865.522-1.632 1.143-2.307 1.85-.201.381-.366.768-.463 1.194 1.155-.444 2.321-.743 3.579-.788.158-.006.322.146.31.309-.046.638-.195 1.228-.397 1.822.755-.122 1.459-.383 2.198-.613.215-.067.46.16.381.382-.17.478-.314.95-.501 1.408.58-.227 1.143-.482 1.69-.799.209-.12.459.035.467.268.023.673.02 1.958 1.353 1.417.687-.824 1.462-1.57 2.343-2.216-.182.006-.325-.1-.34-.298" fill="#848688" transform="matrix(5.55556 0 0 5.55556 88.44071924 30.62928824)"/><path d="m0 3.483c-.128-.106-.111-.329 0-.439.815-.8-.775-1.066-1.097-1.127-.181-.033-.238-.227-.217-.381.213-1.513-1.949-1.436-2.853-1.527-.245-.024-.374-.242-.268-.466.143-.305.116-.56-.021-.774-.179.019-.357.036-.539.071-.892.173-1.785.344-2.815.543.627.519 1.071.923 1.558 1.269.156.108.431.095.641.068.499-.066.99-.203 1.491-.247.142-.012.304.195.459.302-.141.093-.27.237-.423.271-.461.104-.93.164-1.472.253.202.302.364.499.475.721.22.439.498.474.942.291.494-.205 1.032-.312 1.561-.415.119-.023.277.157.417.243-.118.115-.22.293-.36.332-.609.174-1.231.305-1.817.446-.022.355-.039.631-.056.905.048.191.096.382.146.572.948.089 1.905.142 2.846.067.675-.056 1.373.045 2.052.253.002-.413-.211-.824-.65-1.231" fill="#848688" transform="matrix(5.55556 0 0 5.55556 140.73520552 15.46260944)"/><path d="m0 1.626c-.198.135-.352.24-.507.345.136.113.258.296.409.322.379.066.771.058 1.159.085.609.043 1.227.039 1.826.148.742.138 1.464.386 2.203.548.163.036.362-.082.544-.13-.136-.147-.265-.3-.415-.435-.05-.045-.146-.043-.222-.056-1.656-.275-3.312-.548-4.997-.827m6.915.679c.131.241.309.629.545.98.093.14.309.197.469.291.004-.202.076-.433 0-.599-.334-.746-.711-1.472-1.144-2.355.358 0 .52-.016.678.003.327.04.652.123.979.141.737.038.929.173 1.052.893.024.141-.056.328-.145.454-.465.663-1.023 1.274-1.409 1.98-.433.791-1.128 1.099-1.902 1.291-1.987.49-3.917.34-5.8-.526-.789-.365-1.647-.576-2.472-.867-.409-.145-.809-.31-1.28-.492-.04-.172-.106-.455-.172-.73-.118.013-.182.008-.187.022-.235.756-.808.658-1.396.578-2.3-.309-4.373.251-6.307 1.53-.591.39-1.335.58-2.035.768-.387.105-.756-.109-.732-.595.035-.726-.017-1.496.211-2.163.604-1.77 1.799-3.151 3.225-4.334.347-.287.658-.368 1.029.065.92 1.078 2.906.707 3.641-.663 1.485 1.077 2.594.114 3.726-.741.845.758 1.8.811 2.777.407.772-.321 1.159-.943 1.057-1.807 1.714-.084 3.715.743 4.06 1.768-.327-.128-.582-.234-.84-.328-.328-.119-.653-.263-.992-.325-.143-.026-.318.129-.479.202.123.107.229.258.373.314.414.164.85.272 1.265.434.79.312 1.128.924 1.129 1.797-.515-.256-.997-.488-1.473-.732-1.457-.748-3.047-.75-4.615-.751-2.166 0-4.285.384-6.34 1.07-.339.115-.647.34-.947.544-.077.053-.071.226-.103.344.179.017.381.094.534.04.696-.244 1.358-.604 2.068-.78 2.021-.5 4.062-.789 6.166-.601 1.482.132 2.895.432 4.108 1.293.525.372 1.178.7 1.389 1.414.02.068.013.144.024.278-.929-.349-1.8-.715-2.697-1.005-1.629-.524-3.305-.645-5.006-.491-.289.026-.589-.013-.866.051-.13.032-.221.237-.328.364.138.064.288.2.416.182 2.646-.366 5.177-.006 7.607 1.109.312.143.679.169 1.139.278" fill="#39b54a" transform="matrix(5.55556 0 0 5.55556 140.95742792 293.1350538)"/><path d="m0 3.422c.059.03.118.061.178.091.181-.203.38-.396.544-.614.327-.431.616-.892.955-1.315.884-1.101 1.838-2.153 2.665-3.295.532-.734.896-1.591 1.321-2.402.066-.128.087-.304.065-.446-.015-.1-.128-.205-.225-.261-.03-.017-.193.103-.22.186-.538 1.595-1.597 2.861-2.601 4.164-.86 1.114-1.716 2.231-2.556 3.361-.1.134-.087.351-.126.531m6.547-11.495c.28 1.62.728 3.233.799 4.862.114 2.585-1.017 4.793-2.694 6.696-1.285 1.459-2.751 2.762-3.961 4.275-.897 1.12-1.51 2.466-2.271 3.746-.247-.086-.354-.32-.317-.763.07-.82.02-1.651.02-2.458.293-.083.547-.19.81-.22.873-.098 1.343-.671 1.459-1.438.119-.787.709-1.206 1.105-1.768.681-.963 1.431-1.878 2.139-2.822.122-.163.183-.371.272-.558-.05-.049-.1-.097-.15-.147-.131.122-.294.221-.387.367-.879 1.384-1.849 2.686-3.247 3.731-.115-.189-.316-.364-.306-.524.072-1.007-.244-1.824-1.132-2.458.927.07 1.054-.737 1.471-1.2.572-.634 1.12-1.29 1.655-1.956.105-.133.102-.353.05-.579-1.151.802-1.897 1.932-2.778 2.991.009-.874-.473-1.425-1.11-1.893.524-.748 1.023-1.475 1.535-2.192 1.118-1.568 2.954-2.21 4.374-3.386.716-.593 1.369-1.26 2.047-1.897.137-.129.252-.279.378-.42.08.004.16.007.239.011" fill="#cadb2a" transform="matrix(5.55556 0 0 5.55556 270.64642056 219.357217)"/><path d="m0-13.263c.568.976 1.185 1.799 1.539 2.722.238.626.233 1.418.112 2.094-.17.945-.533 1.857-.845 2.773-.377 1.102-.378 2.209-.118 3.326.039.163.188.301.287.45.058-.023.117-.047.175-.07-.032-.43-.045-.862-.098-1.29-.124-1.003.236-1.909.532-2.832.34-1.062.651-2.133.971-3.189.659.253 1.085.875 1.023 1.675-.036.483-.159.965-.143 1.445.01.344.181.684.28 1.027.089-.013.178-.026.266-.039.055-.809.109-1.618.176-2.612.939.813 1.829 1.442 2.532 2.236.591.667.142 2.359-.649 2.806-.979.555-1.996 1.041-2.987 1.574-.612.328-1.203.698-1.811 1.034-.119.064-.352.133-.4.08-.642-.711-1.55-1.133-1.825-2.239-.409-1.646.044-3.109.562-4.593.541-1.544 1.117-3.063.579-4.749-.156-.489-.108-1.043-.158-1.629" fill="#4f4f51" transform="matrix(5.55556 0 0 5.55556 37.9184566 237.36834252)"/><path d="m0-10.7c1.012.67 1.952 1.484 3.041 1.965 1.109.491 2.37.572 3.678.333-.228.724-.398 1.426-.67 2.087-.802 1.956-1.591 3.931-3.148 5.446-.312.303-.699.561-1.097.727-.342.142-.618.026-.621-.472-.011-1.747.026-3.501-.125-5.236-.109-1.226-.489-2.426-.755-3.637-.094-.429-.213-.855-.303-1.213" fill="#ecd1c8" transform="matrix(5.55556 0 0 5.55556 46.29624108 395.65180248)"/><path d="m0 3.543c.042-.269.088-.385.072-.493-.093-.617-1.594-1.818-2.219-1.759-.137.014-.262.172-.393.264.108.111.199.255.33.329.428.245.897.424 1.296.706.314.222.547.561.914.953m1.19-1.804c-.252 1.03-.45 2.079-.795 3.077-.087.253-.682.529-.982.471-.902-.171-1.866-.336-2.536-1.046-1.119-1.186-1.67-1.903-.619-3.847.13-.238.288-.46.438-.686.883-1.329 1.85-1.51 3.107-.586.543.398 1.296 1.916 1.387 2.617" fill="#ecd1c8" transform="matrix(5.55556 0 0 5.55556 33.81289776 116.29046788)"/><path d="m0-14.323c.247.128.347.185.452.232.438.199 1.153.299 1.26.609.243.707.347 1.543.224 2.278-.259 1.541-.676 3.058-1.075 4.572-.38 1.449-.791 2.897-.616 4.41.089.774.332 1.53.489 2.222-.79-.349-1.534-1.371-1.752-2.306-.379-1.631-.022-3.146.441-4.684.621-2.065.769-4.185.58-6.331-.025-.299-.003-.604-.003-1.002" fill="#4f4f51" transform="matrix(5.55556 0 0 5.55556 15.60732764 222.69610856)"/><path d="m0 3.759c.244-.33.413-.558.582-.786-.039-.052-.077-.105-.115-.157-.176.033-.351.064-.525.099-.549.11-1.093.257-1.648.324-.821.1-1.431-.245-1.602-.835-.167-.578.189-1.19.859-1.613 1.025-.646 2.172-.753 3.331-.795.458-.016.898.493.999 1.069.145.839-.475 2.216-1.218 2.625-.161.089-.396.046-.663.069" fill="#ecd1c8" transform="matrix(5.55556 0 0 5.55556 251.04640488 196.92386572)"/><path d="m0-2.014c.695-1.247 2.397-1.52 3.427-.55.379.356.779.704 1.089 1.115.47.623.432 1.442-.009 1.878-.872.861-1.817 1.091-2.491.586-.164-.123-.374-.299-.403-.477-.168-1.028-.819-1.734-1.521-2.416-.04-.039-.064-.094-.092-.136" fill="#ecd1c8" transform="matrix(5.55556 0 0 5.55556 97.90739348 274.42392772)"/><path d="m0-3.269c.605-.482 1.146-.763 1.94-.637.656.103 1.264.247 1.588.797.458.777.873 1.607 1.129 2.468.208.699-.783 1.404-1.644 1.273-.949-.142-1.159-.304-1.25-1.26-.087-.928-.733-1.466-1.274-2.09-.149-.172-.301-.34-.489-.551" fill="#ecd1c8" transform="matrix(5.55556 0 0 5.55556 118.56852112 274.82392804)"/><path d="m0 .207c-.019.233.029.503-.073.689-.109.193-.363.308-.665.545.082-1.244.203-2.346 1.144-3.042.364-.268.99-.274 1.487-.242.877.055 1.911 1.245 1.95 2.122.032.723-.37 1.332-1.043 1.58-.603.223-1.361-.035-1.798-.612-.263-.347-.523-.698-.785-1.046-.072.002-.146.004-.217.006" fill="#ecd1c8" transform="matrix(5.55556 0 0 5.55556 81.49071368 275.4405952)"/><path d="m-3.442-.597c-.217.749-.413 1.425-.609 2.102 1.094.9 1.803 2.576.609 3.846.861.383 1.696.754 2.654 1.18.073-2.823-.644-5.18-2.654-7.128" fill="#ecd1c8" transform="matrix(3.438197195 -4.36383126884 -4.36383126884 -3.438197195 178.07967984 253.96280024)"/><path d="m0 3.2c-.511-.16-1.052-.257-1.526-.491-.94-.465-.785-1.613.044-2.095.966-.562 2.031-.614 3.101-.539.567.039.965.866.764 1.461-.328.959-1.162 1.514-2.383 1.664" fill="#ecd1c8" transform="matrix(5.55556 0 0 5.55556 248.09640252 220.86832932)"/><path d="m0-5.779c.096.03.23.058.35.112 1.685.762 1.686.763 1.115 2.5-.103.313-.237.615-.34.927-.35 1.065-.347 1.066-1.677 1.175.299-.423.55-.776.796-1.131.1-.142.233-.285.266-.446.023-.112-.095-.254-.15-.383-.108.057-.262.087-.319.178-.454.72-.9 1.445-1.325 2.183-.359.621-.457.664-1.167.324.807-1.792 1.616-3.585 2.451-5.439" fill="#d7a56b" transform="matrix(5.55556 0 0 5.55556 125.25741536 255.50169036)"/><path d="m0-2.605c1.129-.111 2.167-.223 3.206-.301.09-.007.283.207.282.317-.006.795-.034 1.59-.099 2.382-.012.136-.228.353-.365.367-.79.082-1.585.135-2.379.146-.159.002-.445-.204-.46-.339-.094-.823-.127-1.653-.185-2.572" fill="#ffde4f" transform="matrix(5.55556 0 0 5.55556 209.06859352 277.02948536)"/><path d="m0 2.745c-1.083.059-2.161.117-3.327.182 0-.922-.018-1.807.02-2.689.005-.119.287-.309.453-.322.788-.065 1.58-.098 2.372-.095.161.001.455.197.461.312.039.844.021 1.69.021 2.612" fill="#ffde4f" transform="matrix(5.55556 0 0 5.55556 227.10749684 225.09611048)"/><path d="m0-3.236c.122.986.248 1.868.325 2.754.012.131-.199.398-.319.405-.849.057-1.7.077-2.55.062-.121-.002-.336-.255-.339-.396-.018-.776.003-1.552.05-2.327.008-.134.193-.357.311-.368.821-.068 1.645-.09 2.522-.13" fill="#ffde4f" transform="matrix(5.55556 0 0 5.55556 224.70193936 222.11833032)"/><path d="m0 2.926c0-.824.011-1.5-.004-2.176-.009-.419.097-.628.589-.627.848.001 1.695-.102 2.544-.12.135-.003.381.201.393.327.064.654.082 1.313.083 1.972 0 .099-.166.275-.272.287-1.092.126-2.186.226-3.333.337" fill="#ffde4f" transform="matrix(5.55556 0 0 5.55556 208.3352596 243.71279204)"/><path d="m0 .627c.025-.386.067-.946.098-1.506.015-.285.12-.421.432-.39.769.076 1.542.111 2.307.209.134.017.333.258.339.401.028.734.023 1.472-.02 2.204-.008.139-.235.382-.356.379-.83-.021-1.66-.081-2.486-.168-.117-.012-.258-.23-.302-.378-.052-.179-.012-.384-.012-.751" fill="#ffde4f" transform="matrix(5.55556 0 0 5.55556 187.82968764 230.52944816)"/><path d="m0-2.804v3.141c-.971-.07-1.922-.139-2.968-.214.071-.703.111-1.369.212-2.026.19-1.238.205-1.233 1.431-1.058.436.062.875.104 1.325.157" fill="#ffde4f" transform="matrix(5.55556 0 0 5.55556 205.60192408 220.22943992)"/><path d="m0 3.174c-.27-.022-.54-.049-.811-.066-1.411-.093-1.026-.021-1.288-1.201-.066-.301-.075-.616-.105-.925-.087-.872.086-1.037.974-.948.534.053 1.069.126 1.604.136.355.007.411.167.424.465.027.638.025 1.286.15 1.908.118.587-.12.686-.598.641-.116-.01-.233-.013-.349-.019 0 .003 0 .006-.001.009" fill="#ffde4f" transform="matrix(5.55556 0 0 5.55556 201.48525412 260.90725024)"/><path d="m0-2.936c1.023.051 1.889.113 2.756.127.362.006.498.165.502.483.007.752.002 1.504.002 2.326-.989-.058-1.933-.107-2.874-.18-.083-.007-.212-.175-.22-.275-.067-.787-.109-1.575-.166-2.481" fill="#ffde4f" transform="matrix(5.55556 0 0 5.55556 187.59079856 259.53502692)"/><path d="m0 3.405c.024-.402.046-.755.066-1.108.037-.617.09-1.233.1-1.85.006-.332.135-.461.451-.433.02.002.039.001.058.001 1.573-.019 1.57-.019 1.81 1.565.066.44.153.879.239 1.315.064.323.014.524-.387.514-.729-.016-1.46-.004-2.337-.004" fill="#ffde4f" transform="matrix(5.55556 0 0 5.55556 208.90192672 182.82385444)"/><path d="m0 3.285c-.688-.004-1.154-.295-1.256-.738-.125-.55.203-1.263.684-1.515.547-.285 1.09-.578 1.63-.876.365-.201.62-.1.819.249.409.717.319 1.609-.281 2.172-.46.432-.992.753-1.596.708" fill="#ecd1c8" transform="matrix(5.55556 0 0 5.55556 254.59640772 236.51278628)"/><path d="m0-3.336v3.319c-.804 0-1.529.017-2.251-.02-.101-.006-.278-.292-.262-.431.082-.727.199-1.452.343-2.17.035-.177.194-.44.334-.466.614-.118 1.241-.164 1.836-.232" fill="#ffde4f" transform="matrix(5.55556 0 0 5.55556 206.0297022 201.6349806)"/><path d="m0-3.217c.768.102 1.42.171 2.065.287.146.026.374.209.379.326.032.825.016 1.652.016 2.604-.696-.101-1.418-.186-2.13-.323-.13-.026-.309-.257-.315-.399-.031-.809-.015-1.619-.015-2.495" fill="#ffde4f" transform="matrix(5.55556 0 0 5.55556 170.8907852 258.42947048)"/><path d="m0-3.491c.782.121 1.46.227 2.11.327v3.164c-.786-.198-1.473-.359-2.149-.554-.107-.03-.243-.229-.234-.339.07-.844.173-1.685.273-2.598" fill="#ffde4f" transform="matrix(5.55556 0 0 5.55556 173.1685648 240.23501148)"/><path d="m0 3.164c-.801-.183-1.498-.332-2.19-.507-.129-.034-.309-.155-.334-.266-.144-.639-.257-1.285-.363-1.933-.052-.324.097-.458.438-.408.629.093 1.264.154 1.892.252.103.016.256.142.268.232.107.836.188 1.677.289 2.63" fill="#ffde4f" transform="matrix(5.55556 0 0 5.55556 187.1407982 259.74058264)"/><path d="m0-3.496c.049 1.005.103 1.941.125 2.876.002.091-.178.242-.295.268-.603.133-1.212.233-1.857.352 0-.944-.014-1.846.016-2.746.005-.125.21-.308.357-.353.499-.148 1.011-.247 1.654-.397" fill="#ffde4f" transform="matrix(5.55556 0 0 5.55556 243.24639864 277.0239298)"/><path d="m0 3.101c-.854-.151-1.571-.265-2.28-.415-.111-.024-.225-.2-.268-.329-.202-.603-.4-1.21-.56-1.825-.083-.311-.001-.532.42-.447.585.117 1.18.188 1.769.294.115.021.295.096.316.18.206.795.383 1.597.603 2.542" fill="#ffde4f" transform="matrix(5.55556 0 0 5.55556 191.46857944 278.04615284)"/><path d="m0 3.018c-.154-.971-.302-1.904-.481-3.031.798.117 1.49.202 2.171.334.119.023.235.239.286.39.107.309.173.634.251.952.118.478.205.78-.519.98-.537.147-1.044.388-1.708.375" fill="#ffde4f" transform="matrix(5.55556 0 0 5.55556 227.44083044 183.26274368)"/><path d="m0-2.669c.4.058.806.18 1.202.159.551-.029.673.232.647.694-.006.114.028.23.039.345.088.99-.437 1.527-1.443 1.476-.901-.046-.899-.046-1.087-.928-.081-.378-.164-.757-.257-1.133-.148-.59-.081-.669.545-.606.116.012.233.02.348.03z" fill="#ffde4f" transform="matrix(5.55556 0 0 5.55556 197.20191736 295.5239446)"/><path d="m0 3.325c-.319-.036-.569-.048-.813-.094-1.293-.247-1.339-.323-1.036-1.577.023-.093.041-.189.064-.283.292-1.22.513-1.371 1.789-1.12.141.028.234.302.342.467.016.025-.005.076-.01.114-.107.803-.217 1.607-.336 2.493" fill="#ffde4f" transform="matrix(5.55556 0 0 5.55556 185.62968588 201.8294252)"/><path d="m0 3.032c0-.866-.002-1.633.002-2.401.001-.072.021-.158.063-.216.172-.23 1.58-.415 1.795-.23.081.069.169.18.177.278.042.562.082 1.125.072 1.686-.003.143-.176.299-.298.42-.078.078-.202.122-.315.147-.433.099-.87.186-1.496.316" fill="#ffde4f" transform="matrix(5.55556 0 0 5.55556 231.42416696 240.746123)"/><path d="m0-2.969c-.174.959-.302 1.777-.485 2.583-.034.148-.281.313-.452.345-.217.041-.462-.031-.689-.08-.688-.147-.813-.403-.529-1.066.181-.425.349-.857.554-1.271.067-.135.213-.288.35-.321.368-.09.75-.12 1.251-.19" fill="#ffde4f" transform="matrix(5.55556 0 0 5.55556 191.04080132 201.00720232)"/><path d="m0 1.891c-.027-.547-.055-1.111-.085-1.718 1.066-.059 2.074-.116 3.117-.173-.031.35.008.644-.094.873-.1.222-.318.485-.533.541-.757.197-1.537.312-2.405.477" fill="#ffde4f" transform="matrix(5.55556 0 0 5.55556 210.8630394 280.45726588)"/><path d="m0-3.883c.65.098 1.011.323.852.99-.184.764-.322 1.541-.516 2.303-.089.348-.348.59-.733.413-.343-.157-.763-.269-.532-.87.359-.928.625-1.892.929-2.836" fill="#d7a56b" transform="matrix(5.55556 0 0 5.55556 138.90187072 252.7183548)"/><path d="m0-2.818c.067.513.126.952-.455 1.187-.112.046-.176.408-.135.597.068.311.24.6.426 1.034-.785-.371-1.466-.692-2.157-1.019.071-1.16.468-1.445 2.321-1.799" fill="#4f4f51" transform="matrix(5.55556 0 0 5.55556 129.13519624 220.21277324)"/><path d="m0-1.946c.124-.013.275-.037.427-.044.949-.048 1.021.008 1.23.914.081.357.172.712.283 1.168h-1.94z" fill="#ffde4f" transform="matrix(5.55556 0 0 5.55556 210.02414984 179.3849628)"/><path d="m0 3.083v-3.083c.493.112.999.204 1.484.361.076.024.144.432.065.51-.239.237-.553.397-.961.671.236.154.448.292.772.503.177.549.176.547-.566.771-.221.067-.438.147-.794.267" fill="#ffde4f" transform="matrix(5.55556 0 0 5.55556 246.96306828 257.06280272)"/><path d="m0 2.228c.235-.708.332-1.349.657-1.84.178-.269.737-.306 1.137-.379.045-.009.238.42.248.651.057 1.395.046 1.396-1.335 1.516-.186.016-.374.028-.707.052" fill="#ffde4f" transform="matrix(5.55556 0 0 5.55556 195.10747124 169.25717692)"/><path d="m-2.037-.323c-.067.608-.143 1.198-.188 1.791-.007.096.096.25.188.295.481.237.977.448 1.473.67.418-1.239-.122-2.262-1.473-2.756" fill="#ffde4f" transform="matrix(1.04955083964 -5.45552103108 -5.45552103108 -1.04955083964 235.92417056 169.80717736)"/><path d="m1.496-2.157c-1.456.758-1.196 1.884-.539 2.796.087.119.501.185.539.127.214-.321.52-.701.491-1.036-.051-.623-.307-1.229-.491-1.887" fill="#ecd1c8" transform="matrix(-3.85743641928 3.99805319844 3.99805319844 3.85743641928 154.94077244 257.26280288)"/><path d="m0 1.695c.231-.498.369-1.079.725-1.462.226-.245.769-.237 1.176-.256.128-.006.307.247.401.415.186.33.328.685.527 1.117-.359 0-.621-.01-.882.003-.347.017-.474-.133-.482-.481-.012-.55-.033-.55-.588-.834-.01.232-.042.427-.022.616.083.828.007.911-.855.882" fill="#ffde4f" transform="matrix(5.55556 0 0 5.55556 200.94080924 156.76272248)"/><path d="m0 2.305c-.111-.453-.22-.84-.295-1.233-.018-.088.051-.228.125-.29.177-.147.365-.303.576-.38.35-.128.858-.402 1.022.046.106.287-.179.797-.419 1.106-.239.307-.642.488-1.009.751" fill="#d7a56b" transform="matrix(5.55556 0 0 5.55556 146.3629878 212.15165568)"/><path d="m0 2.03c-.063-.184-.168-.364-.18-.551-.008-.137.068-.317.167-.415.339-.336.697-.653 1.067-.954.093-.075.359-.11.371-.084.112.246.297.532.249.762-.11.53-.877 1.012-1.436 1.004-.079.079-.159.159-.238.238" fill="#ecd1c8" transform="matrix(5.55556 0 0 5.55556 261.21863524 251.15724244)"/><path d="m0-1.88c1.189.187 1.708 1 2.241 1.88-1.289-.02-1.705-.366-2.241-1.88" fill="#ffde4f" transform="matrix(5.55556 0 0 5.55556 216.93526648 167.60162004)"/><path d="m0 1.87c.228-1.012.689-1.607 1.673-1.888-.215.638-.333 1.235-.624 1.729-.105.177-.626.106-1.049.159" fill="#ffde4f" transform="matrix(5.55556 0 0 5.55556 185.67413036 171.43495644)"/><path d="m-.528-.02c-.142.425-.306.81-.381 1.209-.018.101.269.381.381.362.318-.057.777-.14.892-.362.25-.483-.212-1.082-.892-1.209" fill="#d7a56b" transform="matrix(4.50732027252 -3.24781926492 -3.24781926492 -4.50732027252 142.74631824 225.20166612)"/><path d="m-.895-.312c-.489.242-.977.485-1.518.753.568.97.812 2.02 1.518 2.815-.987-2.12-.987-2.12.072-3.416-.024-.051-.048-.102-.072-.152" fill="#ffde4f" transform="matrix(4.7696149268 -2.84869116784 -2.84869116784 -4.7696149268 242.51862028 216.39610352)"/><path d="m-.391-.09c-.674-.173-.894-.011-.725.553.202.677.468 1.334.725 2.052.154-.035.372-.083.755-.169-.849-.705-1.259-1.464-.755-2.436" fill="#ffde4f" transform="matrix(5.22968196152 -1.8747514998 -1.8747514998 -5.22968196152 237.47972736 236.82389764)"/><path d="m0-.787c-.736.283-1.471.565-2.206.848-.047-.05-.094-.1-.141-.15.149-.157.273-.416.447-.455.629-.141 1.276-.208 1.915-.304-.005.021-.01.041-.015.061" fill="#ffde4f" transform="matrix(5.55556 0 0 5.55556 243.61862116 282.74060104)"/><path d="m0 .886c-.528-.122-.973-.225-1.584-.365.562-.201.976-.349 1.462-.521.046.333.079.571.122.886" fill="#ffde4f" transform="matrix(5.55556 0 0 5.55556 256.73529832 274.50726112)"/><path d="m.554-1.161c-.216.214-.43.427-.703.7.281.171.453.276.703.429.077-.374.139-.678.203-.983-.069-.048-.136-.097-.203-.146" fill="#d7a56b" transform="matrix(-5.28167644756 1.72282360048 1.72282360048 5.28167644756 134.45742272 217.95721588)"/><path d="m0 1.01c.306-.348.61-.697.915-1.046-.094.528-.15 1.082-.915 1.046" fill="#ffde4f" transform="matrix(5.55556 0 0 5.55556 192.84080276 162.22939352)"/><path d="m0 7.278c.248.146.508.276.743.442 1.404.989 3.89-.191 4.385-1.627.321-.931.224-1.818-.388-2.647-.483-.652-.968-1.326-1.299-2.059-.347-.766-.522-1.613-.74-2.433-.034-.129.101-.302.159-.456.136.111.378.211.392.336.217 1.787 1.303 3.124 2.278 4.524.886 1.27.422 3.335-.91 4.364-.772.595-1.637.885-2.577.978-.796.08-1.481-.252-2.064-.766-.133-.117-.129-.389-.188-.591.069-.021.14-.043.209-.065" fill="#231f20" transform="matrix(5.55556 0 0 5.55556 116.2518526 111.53490852)"/><path d="m0-2.031-.607.039c.043-.207.051-.429.14-.614.071-.148.223-.279.371-.361.186-.105.405-.153.61-.225-.021.215-.042.428-.078.802.52.763 1.208 1.611 2.273 2.004 1.01.374 2.048.673 3.098 1.013-.031.422-.284.534-.671.456-2.112-.421-4.052-1.129-5.136-3.114" fill="#231f20" transform="matrix(5.55556 0 0 5.55556 93.86850136 179.23496268)"/><path d="m0-.093c-.164.344-.23.483-.3.631-.055-.009-.133 0-.162-.032-.311-.352-.655-.579-1.167-.503-.1.014-.239-.227-.36-.352.132-.091.292-.282.394-.256.526.136 1.035.326 1.595.512" fill="#231f20" transform="matrix(5.55556 0 0 5.55556 150.84076916 81.19599536)"/><path d="m0-1.469c.304.186.503.29.679.424.055.042.088.184.057.242-.032.062-.185.132-.228.106-.58-.362-.768.185-1.086.445-.137.113-.317.17-.478.252.043-.18.033-.405.14-.535.268-.325.589-.607.916-.934" fill="#231f20" transform="matrix(5.55556 0 0 5.55556 110.4462924 82.35155184)"/><path d="m-.642-.588c-.133.367-.249.644-.32.932-.009.038.301.21.32.189.205-.228.384-.48.568-.727-.109-.076-.218-.153-.568-.394" fill="#231f20" transform="matrix(-1.27271768484 -5.4078098818 -5.4078098818 1.27271768484 120.46852264 163.76272808)"/><path d="m-.5-.673c-.134.366-.238.649-.342.931.119.026.309.109.342.068.191-.239.344-.508.51-.767-.135-.062-.27-.123-.51-.232" fill="#231f20" transform="matrix(-2.44884084796 -4.9867262116 -4.9867262116 2.44884084796 128.56852912 166.15161888)"/><path d="m0-.899c-.015.164.029.379-.058.479-.166.186-.407.304-.616.45-.021-.167-.118-.39-.046-.491.137-.193.371-.316.564-.468z" fill="#231f20" transform="matrix(5.55556 0 0 5.55556 114.56851792 166.16273)"/><path d="m-.515-.798c-.154.399-.271.674-.348.958-.007.026.226.121.348.182.124-.251.27-.494.356-.757.02-.06-.17-.189-.356-.383" fill="#231f20" transform="matrix(-1.9586960114 -5.19882082572 -5.19882082572 1.9586960114 105.5573996 158.16827916)"/><path d="m-.495-.608c-.148.35-.25.591-.352.831.121.051.318.176.352.14.164-.165.312-.362.397-.576.023-.052-.202-.207-.397-.395" fill="#231f20" transform="matrix(-1.36760664964 -5.38459875212 -5.38459875212 1.36760664964 99.56850592 152.06271872)"/><path d="m0 .995c-.067-.135-.217-.295-.185-.398.068-.215.23-.4.354-.597.079.114.23.234.221.34-.02.221-.124.435-.195.653-.065.001-.131.002-.195.002" fill="#231f20" transform="matrix(5.55556 0 0 5.55556 138.80187064 165.28495152)"/><path d="m0 .895c-.075-.107-.238-.25-.212-.316.083-.209.237-.389.364-.579.081.084.24.18.229.251-.032.218-.128.428-.199.641-.062.001-.122.002-.182.003" fill="#231f20" transform="matrix(5.55556 0 0 5.55556 148.71854524 163.8571726)"/><path d="m-.415-.475c-.144.264-.243.449-.345.636.12.056.305.189.345.154.158-.14.274-.331.403-.504-.109-.077-.22-.155-.403-.286" fill="#231f20" transform="matrix(-1.20145096116 -5.42409322816 -5.42409322816 1.20145096116 91.24627704 150.1071616)"/><path d="m0-1.484c1.685.279 3.341.552 4.997.827.076.013.172.011.222.056.15.135.279.288.415.435-.182.048-.381.166-.544.13-.739-.162-1.461-.41-2.203-.548-.599-.109-1.217-.105-1.826-.148-.388-.027-.78-.019-1.159-.085-.151-.026-.273-.209-.409-.322.155-.105.309-.21.507-.345" fill="#231f20" transform="matrix(5.55556 0 0 5.55556 140.95742792 310.4128454)"/><path d="m0 8.168c.039-.18.026-.397.126-.531.84-1.13 1.696-2.247 2.556-3.361 1.004-1.303 2.063-2.569 2.601-4.164.027-.083.19-.203.22-.186.097.056.21.161.225.261.022.142.001.318-.065.446-.425.811-.789 1.668-1.321 2.402-.827 1.142-1.781 2.194-2.665 3.295-.339.423-.628.884-.955 1.315-.164.218-.363.411-.544.614-.06-.03-.119-.061-.178-.091" fill="#231f20" transform="matrix(5.55556 0 0 5.55556 270.64642056 192.99052924)"/><path d="m0 2.311c-.367-.392-.6-.731-.914-.953-.399-.282-.868-.461-1.296-.706-.131-.074-.222-.218-.33-.329.131-.092.256-.25.393-.264.625-.059 2.126 1.142 2.219 1.759.016.108-.03.224-.072.493" fill="#231f20" transform="matrix(5.55556 0 0 5.55556 33.81289776 123.1349178)"/><path d="m-.651-.652c-.701 0-1.269.292-1.269.651 0 .361.568.652 1.269.652.701 0 1.268-.291 1.268-.652 0-.359-.567-.651-1.268-.651" fill="#231f20" transform="matrix(0 -5.55556 -5.55556 0 109.00740236 107.4682386)"/><path d="m-.651-.652c-.701 0-1.269.291-1.269.65 0 .361.568.653 1.269.653.701 0 1.268-.292 1.268-.653 0-.359-.567-.65-1.268-.65" fill="#231f20" transform="matrix(0 -5.55556 -5.55556 0 140.6129832 107.4682386)"/></g></svg>