<svg clip-rule="evenodd" fill-rule="evenodd" viewBox="0 0 92 72" xmlns="http://www.w3.org/2000/svg"><path d="m51.631 4.208c-3.072 0-5.562 2.49-5.562 5.562v44.466c0 3.073 2.49 5.563 5.562 5.563h29.893c3.072 0 5.562-2.49 5.562-5.563v-44.466c0-3.072-2.49-5.562-5.562-5.562z" fill="#008fd4" fill-rule="nonzero"/><path d="m66.243 43.465v-14.135l-3.267 1.303v-1.801l3.267-1.509h1.933v16.142z" fill="#fcd3c1" fill-rule="nonzero"/><path d="m51.631 4.208c-3.072 0-5.562 2.49-5.562 5.562v44.466c0 3.073 2.49 5.563 5.562 5.563h29.893c3.072 0 5.562-2.49 5.562-5.563v-44.466c0-3.072-2.49-5.562-5.562-5.562z" fill="none" stroke="#bad8f2" stroke-width="1.96"/><g fill-rule="nonzero"><path d="m20.875 6.515c-2.993-.691-5.979 1.176-6.67 4.169l-10.003 43.326c-.691 2.994 1.175 5.981 4.168 6.672l29.127 6.725c2.993.69 5.979-1.176 6.67-4.17l10.003-43.326c.691-2.994-1.175-5.981-4.168-6.671l-29.127-6.725z" fill="#ed1c24"/><path d="m17.051 45.923 3.179-13.773-3.476.536.406-1.756 3.522-.735 1.884.435-3.631 15.728z" fill="#fff0d0"/><path d="m30.402 49.502c-1.704-.393-2.913-1.459-3.629-3.198s-.778-3.893-.185-6.462 1.593-4.478 2.999-5.727 2.96-1.677 4.663-1.284c1.723.398 2.939 1.465 3.651 3.203.711 1.738.77 3.891.177 6.46-.593 2.57-1.59 4.479-2.991 5.729s-2.963 1.677-4.685 1.279zm.362-1.57c1.332.307 2.454-.155 3.365-1.388s1.571-2.734 1.979-4.504c.407-1.761.471-3.397.194-4.909s-1.082-2.422-2.414-2.73c-1.323-.305-2.44.161-3.352 1.399-.912 1.237-1.572 2.736-1.978 4.497-.409 1.769-.474 3.408-.195 4.916.278 1.507 1.078 2.414 2.401 2.719z" fill="#fff0d0"/></g><path d="m20.875 6.515c-2.993-.691-5.979 1.176-6.67 4.169l-10.003 43.326c-.691 2.994 1.175 5.981 4.168 6.672l29.127 6.725c2.993.69 5.979-1.176 6.67-4.17l10.003-43.326c.691-2.994-1.175-5.981-4.168-6.671l-29.127-6.725z" fill="none" stroke="#fbc8b4" stroke-width="1.96"/></svg>