<svg clip-rule="evenodd" fill-rule="evenodd" stroke-linecap="round" stroke-linejoin="round" viewBox="0 0 200 200" xmlns="http://www.w3.org/2000/svg"><g stroke-linecap="butt" stroke-linejoin="round"><g fill="#c0c0c0" stroke="#c0c0c0"><path d="m55.4836 120.42c3.9834-5.303 10.6273-8.834 15.7444-11.782-2.4728 4.44-11.4841 8.951-15.2568 12.219"/><path d="m51.008 116.23c-.4929-3.209-3.483-14.191-1.4729-16.858l.3032-.0815c3.0807 4.3425 2.0439 11.8635 2.6303 16.9395"/><path d="m46.8033 121.9c-3.4306-2.524-14.3384-9.617-14.5851-14.054l.2886-.62c1.5749-.696 14.3657 12.117 14.8205 14.111"/><path d="m44.6718 126.717c-5.4701 2.75-15.4012-.395-21.3072-.406l-.2402-1.549c3.4639-1.839 18.5835-.916 21.5474.574"/><path d="m46.1347 132.716c-3.4483 3.501-6.4717 7.305-9.7643 10.474-.8749.843-2.1905.354-2.9821 1.205 3.8949-4.185 6.0239-9.876 11.6443-12.567"/><path d="m54.6028 133.073c1.0481 5.414 1.5051 11.658 1.0997 17.029l-.634.341c-3.4217-.755-1.8721-13.697-3.0034-16.279"/><path d="m58.4469 127.775c2.1586 1.194 14.7055 9.605 15.3644 10.988l-.1516.977c-3.5209 2.302-13.4912-8.05-16.0928-10.074"/><path d="m58.3008 123.738c2.257-.807 17.5826-3.502 19.3067-2.504l.2342 1.258c-3.843 2.834-14.6241 3.235-19.2169 2.639"/><path d="m55.4836 120.42c3.9834-5.303 10.6273-8.834 15.7444-11.782-2.4728 4.44-11.4841 8.951-15.2568 12.219"/><path d="m51.008 116.23c-.4929-3.209-3.483-14.191-1.4729-16.858l.3032-.0815c3.0807 4.3425 2.0439 11.8635 2.6303 16.9395"/><path d="m46.8033 121.9c-3.4306-2.524-14.3384-9.617-14.5851-14.054l.2886-.62c1.5749-.696 14.3657 12.117 14.8205 14.111"/><path d="m44.6718 126.717c-5.4701 2.75-15.4012-.395-21.3072-.406l-.2402-1.549c3.4639-1.839 18.5835-.916 21.5474.574"/><path d="m46.1347 132.716c-3.4483 3.501-6.4717 7.305-9.7643 10.474-.8749.843-2.1905.354-2.9821 1.205 3.8949-4.185 6.0239-9.876 11.6443-12.567"/><path d="m54.6028 133.073c1.0481 5.414 1.5051 11.658 1.0997 17.029l-.634.341c-3.4217-.755-1.8721-13.697-3.0034-16.279"/><path d="m58.4469 127.775c2.1586 1.194 14.7055 9.605 15.3644 10.988l-.1516.977c-3.5209 2.302-13.4912-8.05-16.0928-10.074"/><path d="m58.3008 123.738c2.257-.807 17.5826-3.502 19.3067-2.504l.2342 1.258c-3.843 2.834-14.6241 3.235-19.2169 2.639"/></g><path d="m63.0492 99.7505c-10.222-.6753-14.3503-.1943-24.2168 6.1105-27.7743 17.749-8.5144 46.816 18.3271 41.596 32.7162-6.362 20.1277-58.1513-10.8348-44.759l-2.9709-4.5591c22.5311-25.6287 58.7002 17.4601 34.772 46.1111-3.6216 4.336-7.046 7.655-12.3081 9.22-6.0613 1.803-11.8493 2.906-18.1209 1.755-1.9935-.366-13.5329-3.886-16.4887-5.855-30.493035-20.306 7.0975-62.4235 33.4653-53.2463" stroke="#000"/><path d="m51.2293 122.355c-1.4836.466-3.9152 3.275-2.6853 5.131 1.6759 2.527 3.8605-.678 3.996-2.213.0938-1.062-3.5537-.161-4.2595-2.355l-1.6033-2.39c2.9191-12.508 20.6858 1.468 9.9118 10.93-1.6654 1.463-3.6999 3.259-6.0387 3.177-12.2713-.432-8.1724-20.378 1.5894-16.345" stroke="#000"/><path d="m63.0492 99.7505c-10.222-.6753-14.3503-.1943-24.2168 6.1105-27.7743 17.749-8.5144 46.816 18.3271 41.596 32.7162-6.362 20.1277-58.1513-10.8348-44.759l-2.9709-4.5591c22.5311-25.6287 58.7002 17.4601 34.772 46.1111-3.6216 4.336-7.046 7.655-12.3081 9.22-6.0613 1.803-11.8493 2.906-18.1209 1.755-1.9935-.366-13.5329-3.886-16.4887-5.855-30.493035-20.306 7.0975-62.4235 33.4653-53.2463" stroke="#000"/><path d="m51.2293 122.355c-1.4836.466-3.9152 3.275-2.6853 5.131 1.6759 2.527 3.8605-.678 3.996-2.213.0938-1.062-3.5537-.161-4.2595-2.355l-1.6033-2.39c2.9191-12.508 20.6858 1.468 9.9118 10.93-1.6654 1.463-3.6999 3.259-6.0387 3.177-12.2713-.432-8.1724-20.378 1.5894-16.345" stroke="#000"/></g><g stroke-linecap="butt" stroke-linejoin="round"><g fill="#c0c0c0" stroke="#c0c0c0"><path d="m148.106 125.429c3.983-5.303 10.627-8.834 15.744-11.783-2.472 4.441-11.484 8.952-15.256 12.219"/><path d="m143.63 121.239c-.492-3.209-3.483-14.191-1.472-16.858l.303-.082c3.08 4.343 2.044 11.864 2.63 16.94"/><path d="m139.426 126.908c-3.431-2.523-14.339-9.616-14.585-14.054l.288-.62c1.575-.695 14.366 12.118 14.821 14.111"/><path d="m137.294 131.725c-5.47 2.75-15.401-.394-21.307-.405l-.24-1.549c3.464-1.839 18.583-.916 21.547.574"/><path d="m138.757 137.724c-3.448 3.502-6.472 7.306-9.764 10.475-.875.842-2.191.354-2.982 1.204 3.895-4.184 6.024-9.875 11.644-12.567"/><path d="m147.225 138.082c1.048 5.414 1.505 11.658 1.1 17.029l-.634.341c-3.422-.755-1.872-13.698-3.003-16.279"/><path d="m151.069 132.784c2.159 1.194 14.706 9.605 15.365 10.988l-.152.977c-3.521 2.302-13.491-8.051-16.093-10.074"/><path d="m150.923 128.747c2.257-.808 17.583-3.502 19.307-2.505l.234 1.259c-3.843 2.833-14.624 3.235-19.217 2.639"/><path d="m148.106 125.429c3.983-5.303 10.627-8.834 15.744-11.783-2.472 4.441-11.484 8.952-15.256 12.219"/><path d="m143.63 121.239c-.492-3.209-3.483-14.191-1.472-16.858l.303-.082c3.08 4.343 2.044 11.864 2.63 16.94"/><path d="m139.426 126.908c-3.431-2.523-14.339-9.616-14.585-14.054l.288-.62c1.575-.695 14.366 12.118 14.821 14.111"/><path d="m137.294 131.725c-5.47 2.75-15.401-.394-21.307-.405l-.24-1.549c3.464-1.839 18.583-.916 21.547.574"/><path d="m138.757 137.724c-3.448 3.502-6.472 7.306-9.764 10.475-.875.842-2.191.354-2.982 1.204 3.895-4.184 6.024-9.875 11.644-12.567"/><path d="m147.225 138.082c1.048 5.414 1.505 11.658 1.1 17.029l-.634.341c-3.422-.755-1.872-13.698-3.003-16.279"/><path d="m151.069 132.784c2.159 1.194 14.706 9.605 15.365 10.988l-.152.977c-3.521 2.302-13.491-8.051-16.093-10.074"/><path d="m150.923 128.747c2.257-.808 17.583-3.502 19.307-2.505l.234 1.259c-3.843 2.833-14.624 3.235-19.217 2.639"/></g><path d="m155.672 104.759c-10.222-.675-14.351-.194-24.217 6.111-27.774 17.748-8.515 46.815 18.327 41.596 32.716-6.363 20.128-58.1516-10.835-44.759l-2.971-4.559c22.531-25.6292 58.701 17.46 34.772 46.111-3.621 4.336-7.046 7.654-12.308 9.22-6.061 1.803-11.849 2.905-18.121 1.754-1.993-.366-13.533-3.886-16.488-5.854-30.4935-20.306 7.097-62.4239 33.465-53.247" stroke="#000"/><path d="m143.852 127.363c-1.484.466-3.915 3.276-2.686 5.131 1.676 2.528 3.861-.677 3.996-2.212.094-1.063-3.553-.161-4.259-2.356l-1.603-2.389c2.919-12.509 20.685 1.468 9.911 10.93-1.665 1.463-3.699 3.259-6.038 3.176-12.272-.431-8.173-20.377 1.589-16.344" stroke="#000"/><path d="m155.672 104.759c-10.222-.675-14.351-.194-24.217 6.111-27.774 17.748-8.515 46.815 18.327 41.596 32.716-6.363 20.128-58.1516-10.835-44.759l-2.971-4.559c22.531-25.6292 58.701 17.46 34.772 46.111-3.621 4.336-7.046 7.654-12.308 9.22-6.061 1.803-11.849 2.905-18.121 1.754-1.993-.366-13.533-3.886-16.488-5.854-30.4935-20.306 7.097-62.4239 33.465-53.247" stroke="#000"/><path d="m143.852 127.363c-1.484.466-3.915 3.276-2.686 5.131 1.676 2.528 3.861-.677 3.996-2.212.094-1.063-3.553-.161-4.259-2.356l-1.603-2.389c2.919-12.509 20.685 1.468 9.911 10.93-1.665 1.463-3.699 3.259-6.038 3.176-12.272-.431-8.173-20.377 1.589-16.344" stroke="#000"/></g><g><path d="m102.734 102.376-3.7219 1.696-10.7826-27.3252 3.7219-1.6953z" fill="#6b6b6b"/><path d="m84.8621 82.1717-1.578-3.9988 13.1401-5.9854 1.5779 3.9988z" fill="#3a3a3a"/></g><path d="m17.4587 116.679s16.0365-29.8986 44.5438-28.3824c14.1922.7549 25.9956 16.6074 30.9136 28.5334 3.2762 7.945 9.5899 8.719 22.6229 12.229s28.465 11.26 32.881 6.945c1.429-1.396 4.99-17.944-11.101-11.625-16.09 6.319-10.789-25.1541-9.7-25.9837 14.971-11.4019 37.934-19.8809 53.682 16.3217 0 0 5.902 1.962 5.199-4.077-.702-6.038-34.145-41.8187-50.305-28.0803l-14.613-13.4365 2.95-6.4918-4.496-1.5097-20.7966 30.0434s-21.3585-9.5112-32.4594-28.3827l2.9509-11.3229s21.3585 2.5665 28.3844-11.3229l2.3887-5.586-6.4637 1.5098s-5.0586 11.3229-23.0448 10.417c-17.9861-.9058-18.4076-12.8326-18.4076-12.8326l-8.15-.151-1.6862 9.2093s3.6534 4.9821 18.4077 9.0583l-4.4966 25.3633s-45.8861 17.9778-44.8248 37.7433c.4216 7.85 5.6207 1.811 5.6207 1.811z" fill="#72c536"/><g><path d="m102.938 112.625 3.765-1.581 10.055 27.643-3.765 1.581z" fill="#6b6b6b"/><path d="m120.268 133.367 1.471 4.046-13.293 5.581-1.471-4.045z" fill="#3a3a3a"/></g><path d="m103.86 62.0565c0-2.9725 7.277-5.3822 16.254-5.3822 8.976 0 10.002 3.1786 10.002 6.1511s-1.026 4.6133-10.002 4.6133c-8.977 0-16.254-2.4097-16.254-5.3822z" fill="#3a3a3a"/></svg>