<svg clip-rule="evenodd" fill-rule="evenodd" stroke-miterlimit="10" viewBox="0 0 284 256" xmlns="http://www.w3.org/2000/svg" xmlns:xlink="http://www.w3.org/1999/xlink"><radialGradient id="a" cx="0" cy="0" gradientTransform="matrix(160.773 0 0 147.652 141.738 127.683)" gradientUnits="userSpaceOnUse" r="1"><stop offset="0" stop-color="#d3d2d2"/><stop offset=".33" stop-color="#d3d2d2"/><stop offset=".57" stop-color="#fff"/><stop offset=".78" stop-color="#fff"/><stop offset="1" stop-color="#d3d2d2"/></radialGradient><radialGradient id="b" cx="0" cy="0" gradientTransform="matrix(54.5438 8.44593 -8.58071 55.4142 132.041 117.945)" gradientUnits="userSpaceOnUse" r="1"><stop offset="0" stop-color="#fff"/><stop offset="1" stop-color="#daebc1"/></radialGradient><clipPath id="c"><path clip-rule="nonzero" d="m12.005.167c-6.627 0-12 5.372-12 12v231.118c0 6.627 5.373 11.999 12 11.999h259.465c6.628 0 12.001-5.372 12.001-11.999v-231.118c0-6.628-5.373-12-12.001-12h-259.465z"/></clipPath><clipPath id="d"><path clip-rule="nonzero" d="m12.005.167c-6.627 0-12 5.372-12 12v231.118c0 6.627 5.373 11.999 12 11.999h259.465c6.628 0 12.001-5.372 12.001-11.999v-231.118c0-6.628-5.373-12-12.001-12h-259.465z"/></clipPath><clipPath id="e"><path clip-rule="nonzero" d="m12.005.167c-6.627 0-12 5.372-12 12v231.118c0 6.627 5.373 11.999 12 11.999h259.465c6.628 0 12.001-5.372 12.001-11.999v-231.118c0-6.628-5.373-12-12.001-12h-259.465z"/></clipPath><g clip-path="url(#c)"><path d="m.005.167h283.466v255.117h-283.466z" fill="url(#a)"/><g fill="none" stroke="#ffd98f" stroke-width="2"><path d="m95.632 67.292h95.788" stroke-dasharray="15 11"/><path d="m95.632 190.475h93.935" stroke-dasharray="15 11"/><path d="m-9.507 67.292h41.867" stroke-dasharray="15 11"/><path d="m-9.507 190.475h40.014" stroke-dasharray="15 11"/><path d="m253.301 67.292h41.866" stroke-dasharray="15 11"/><path d="m253.301 190.475h40.014" stroke-dasharray="15 11"/><path d="m219.966 96.745v66.153" stroke-dasharray="15 10"/><path d="m219.966 220.84v66.153" stroke-dasharray="15 10"/><path d="m62.634 96.745v66.153" stroke-dasharray="15 10"/><path d="m62.634-2.993v41.761" stroke-dasharray="15 10"/><path d="m221.121-2.993v41.761" stroke-dasharray="15 10"/><path d="m62.634 222.56v66.153" stroke-dasharray="15 10"/><path d="m45.549 87.993h35.746"/><path d="m45.549 92.461h35.746"/><path d="m45.549 42.604h35.746"/><path d="m45.549 47.072h35.746"/><path d="m83.883 85.406v-35.747"/><path d="m88.351 85.406v-35.747"/><path d="m38.494 85.406v-35.747"/><path d="m42.962 85.406v-35.747"/><path d="m83.883 208.642v-35.747"/><path d="m88.351 208.642v-35.747"/><path d="m38.494 208.642v-35.747"/><path d="m42.962 208.642v-35.747"/><path d="m241.51 85.406v-35.747"/><path d="m245.978 85.406v-35.747"/><path d="m196.121 85.406v-35.747"/><path d="m200.589 85.406v-35.747"/><path d="m241.51 208.642v-35.747"/><path d="m245.978 208.642v-35.747"/><path d="m196.121 208.642v-35.747"/><path d="m200.589 208.642v-35.747"/><path d="m45.549 166.306h35.746"/><path d="m45.549 170.774h35.746"/><path d="m45.549 210.754h35.746"/><path d="m45.549 215.222h35.746"/><path d="m202.89 87.993h35.746"/><path d="m202.89 92.461h35.746"/><path d="m202.89 42.604h35.746"/><path d="m202.89 47.072h35.746"/><path d="m202.89 166.306h35.746"/><path d="m202.89 170.774h35.746"/><path d="m202.89 210.754h35.746"/><path d="m202.89 215.222h35.746"/></g><path d="m42.56 50.688h-44.755c-1.565 0-2.834-1.27-2.834-2.835v-48.413c0-1.566 1.269-2.835 2.834-2.835h44.755c1.565 0 2.834 1.269 2.834 2.835v48.413c0 1.565-1.269 2.835-2.834 2.835z" fill="#e5f0d4" fill-rule="nonzero" stroke="#231f20"/><path d="m286.431 50.688h-44.755c-1.566 0-2.835-1.27-2.835-2.835v-48.413c0-1.566 1.269-2.835 2.835-2.835h44.755c1.565 0 2.834 1.269 2.834 2.835v48.413c0 1.565-1.269 2.835-2.834 2.835z" fill="#e0deef" fill-rule="nonzero" stroke="#231f20"/><path d="m199.553 50.688h-115.48c-1.566 0-2.835-1.27-2.835-2.835v-48.413c0-1.566 1.269-2.835 2.835-2.835h115.48c1.565 0 2.834 1.269 2.834 2.835v48.413c0 1.565-1.269 2.835-2.834 2.835z" fill="#d4effc" fill-rule="nonzero" stroke="#231f20"/><path d="m42.56 262.043h-44.755c-1.565 0-2.834-1.27-2.834-2.835v-48.414c0-1.565 1.269-2.834 2.834-2.834h44.755c1.565 0 2.834 1.269 2.834 2.834v48.414c0 1.565-1.269 2.835-2.834 2.835z" fill="#fcdfec" fill-rule="nonzero" stroke="#231f20"/><path d="m286.431 262.043h-44.755c-1.566 0-2.835-1.27-2.835-2.835v-48.414c0-1.565 1.269-2.834 2.835-2.834h44.755c1.565 0 2.834 1.269 2.834 2.834v48.414c0 1.565-1.269 2.835-2.834 2.835z" fill="#e5f0d4" fill-rule="nonzero" stroke="#231f20"/><path d="m199.553 262.043h-115.48c-1.566 0-2.835-1.27-2.835-2.835v-48.414c0-1.565 1.269-2.834 2.835-2.834h115.48c1.565 0 2.834 1.269 2.834 2.834v48.414c0 1.565-1.269 2.835-2.834 2.835z" fill="#ffeecf" fill-rule="nonzero" stroke="#231f20"/><path d="m42.56 173.785h-44.755c-1.565 0-2.834-1.27-2.834-2.835v-82.921c0-1.565 1.269-2.834 2.834-2.834h44.755c1.565 0 2.834 1.269 2.834 2.834v82.921c0 1.565-1.269 2.835-2.834 2.835z" fill="#ffeecf" fill-rule="nonzero" stroke="#231f20"/><path d="m286.431 173.785h-44.755c-1.566 0-2.835-1.27-2.835-2.835v-82.921c0-1.565 1.269-2.834 2.835-2.834h44.755c1.565 0 2.834 1.269 2.834 2.834v82.921c0 1.565-1.269 2.835-2.834 2.835z" fill="#d4effc" fill-rule="nonzero" stroke="#231f20"/><path d="m199.553 173.785h-115.48c-1.566 0-2.835-1.27-2.835-2.835v-82.921c0-1.565 1.269-2.834 2.835-2.834h115.48c1.565 0 2.834 1.269 2.834 2.834v82.921c0 1.565-1.269 2.835-2.834 2.835z" fill="#e5f0d4" fill-rule="nonzero" stroke="#231f20"/><path d="m90.661 87.941c-3.131 0-5.669 2.538-5.669 5.667v65.565c0 3.132 2.538 5.669 5.669 5.669h97.573c3.131 0 5.669-2.537 5.669-5.669v-65.565c0-3.129-2.538-5.667-5.669-5.667z" fill="url(#b)" fill-rule="nonzero"/><g clip-path="url(#d)" fill-rule="nonzero"><path d="m188.233 266.753h-97.572c-3.131 0-5.669-2.538-5.669-5.669v-43.603c0-3.131 2.538-5.67 5.669-5.67h97.572c3.131 0 5.669 2.539 5.669 5.67v43.603c0 3.131-2.538 5.669-5.669 5.669" fill="#ffe0b6"/><path d="m188.233 42.299h-97.572c-3.131 0-5.669-2.538-5.669-5.669v-37.186c0-3.132 2.538-5.67 5.669-5.67h97.572c3.131 0 5.669 2.538 5.669 5.67v37.186c0 3.131-2.538 5.669-5.669 5.669" fill="#b9e5fb"/><path d="m289.32 164.842h-40.281c-3.131 0-5.669-2.538-5.669-5.669v-65.564c0-3.131 2.538-5.669 5.669-5.669h40.281c3.131 0 5.67 2.538 5.67 5.669v65.564c0 3.131-2.539 5.669-5.67 5.669" fill="#b9e5fb"/><path d="m30.518 164.842h-40.281c-3.131 0-5.669-2.538-5.669-5.669v-65.564c0-3.131 2.538-5.669 5.669-5.669h40.281c3.131 0 5.669 2.538 5.669 5.669v65.564c0 3.131-2.538 5.669-5.669 5.669" fill="#ffe0b6"/><path d="m32.412 43.014h-32.904c-3.132 0-5.67-2.538-5.67-5.669v-37.06c0-3.13 2.538-5.668 5.67-5.668h32.904c3.131 0 5.669 2.538 5.669 5.668v37.06c0 3.131-2.538 5.669-5.669 5.669" fill="#daebc1"/><path d="m286.951 43.014h-38.375c-3.131 0-5.669-2.538-5.669-5.669v-37.06c0-3.13 2.538-5.668 5.669-5.668h38.375c3.131 0 5.67 2.538 5.67 5.668v37.06c0 3.131-2.539 5.669-5.67 5.669" fill="#d4d1e9"/><path d="m285.083 262.483h-37.284c-3.131 0-5.669-2.538-5.669-5.669v-39.739c0-3.131 2.538-5.669 5.669-5.669h37.284c3.131 0 5.669 2.538 5.669 5.669v39.739c0 3.131-2.538 5.669-5.669 5.669" fill="#daebc1"/><path d="m31.591 262.483h-37.284c-3.131 0-5.669-2.538-5.669-5.669v-39.739c0-3.131 2.538-5.669 5.669-5.669h37.284c3.131 0 5.669 2.538 5.669 5.669v39.739c0 3.131-2.538 5.669-5.669 5.669" fill="#f9cbdf"/></g><g clip-path="url(#e)" fill="#231f20" fill-rule="nonzero"><path d="m244.448 79.472h1.031v.055c0 .338-.117.683-.352 1.035-.234.352-.552.609-.953.773s-.875.247-1.422.247c-1.093 0-1.988-.381-2.683-1.141-.696-.761-1.043-1.901-1.043-3.422 0-1.51.346-2.648 1.039-3.414s1.591-1.148 2.695-1.148c.542 0 1.013.082 1.414.246s.719.424.953.781c.235.357.352.699.352 1.027v.055h-1.031v-.055c0-.208-.067-.41-.2-.605-.132-.196-.321-.343-.566-.442s-.539-.148-.883-.148c-.88 0-1.536.348-1.969 1.043-.432.695-.648 1.582-.648 2.66 0 1.089.217 1.978.652 2.668s1.088 1.035 1.957 1.035c.599 0 1.025-.124 1.278-.371.252-.247.379-.522.379-.824z"/><path d="m250.804 81.496c-.813 0-1.504-.275-2.075-.825-.57-.549-.855-1.366-.855-2.449 0-1.078.285-1.892.855-2.441.571-.55 1.262-.824 2.075-.824.807 0 1.496.274 2.066.824.57.549.855 1.363.855 2.441 0 1.083-.285 1.9-.855 2.449-.57.55-1.259.825-2.066.825zm0-.86c.552 0 .997-.221 1.336-.664.338-.443.507-1.026.507-1.75 0-.719-.169-1.299-.507-1.742-.339-.443-.784-.664-1.336-.664-.558 0-1.006.221-1.344.664-.339.443-.508 1.023-.508 1.742 0 .724.169 1.307.508 1.75.338.443.786.664 1.344.664z"/><path d="m257.535 81.324h-1.032v-6.196h1.032v1.094c.171-.318.358-.562.558-.734.201-.172.416-.304.645-.395s.461-.136.695-.136c.214 0 .398.031.555.093v1.071c-.245-.12-.503-.18-.774-.18-.39 0-.768.17-1.133.512-.364.341-.546.944-.546 1.808z"/><path d="m266.172 81.324c-.11-.334-.164-.62-.164-.86-.453.448-.839.732-1.157.852-.317.12-.625.18-.921.18-.49 0-.912-.151-1.266-.454-.354-.302-.531-.716-.531-1.242 0-.599.248-1.061.746-1.386.497-.326 1.355-.609 2.574-.848l.555-.102v-.703c0-.38-.128-.647-.383-.801-.255-.153-.563-.23-.922-.23-.427 0-.762.095-1.004.285s-.363.41-.363.66v.086h-1.117v-.078c0-.276.116-.56.347-.851.232-.292.539-.512.922-.661.383-.148.801-.222 1.254-.222s.865.07 1.234.211c.37.14.64.33.809.57s.254.687.254 1.344v2.406c0 .266.006.543.019.832.014.289.08.626.2 1.012zm-.164-3.125-.313.07c-1.047.255-1.716.499-2.008.73-.291.232-.437.507-.437.825 0 .161.043.312.129.453.086.14.215.25.387.328.171.078.341.117.507.117.287 0 .569-.084.848-.254.279-.169.496-.394.652-.676.157-.281.235-.609.235-.984z"/><path d="m270.075 72.371h1.031v8.953h-1.031z"/><path d="m229.337 203.868h-1.039l3.531-8.61h1.125l3.258 8.61h-1.211l-.891-2.367h-3.796zm1.313-3.227h3.125l-1.508-4z"/><path d="m239.175 203.868h-1.031v-6.196h1.031v1.094c.172-.318.358-.562.558-.734.201-.172.416-.304.645-.395s.461-.136.695-.136c.214 0 .399.031.555.093v1.071c-.245-.12-.503-.18-.773-.18-.391 0-.769.17-1.133.512-.365.341-.547.944-.547 1.808z"/><path d="m244.513 203.868h-1.032v-6.196h1.032v1.094c.172-.318.358-.562.558-.734.201-.172.416-.304.645-.395s.461-.136.695-.136c.214 0 .399.031.555.093v1.071c-.245-.12-.503-.18-.774-.18-.39 0-.768.17-1.132.512-.365.341-.547.944-.547 1.808z"/><path d="m252.874 202.274h1.031v.055c0 .276-.109.556-.328.839-.219.284-.508.5-.867.649-.359.148-.771.223-1.234.223-.943 0-1.671-.305-2.184-.914-.513-.61-.77-1.381-.77-2.313 0-.953.271-1.743.813-2.371s1.24-.941 2.094-.941c.468 0 .894.101 1.277.304s.685.52.906.949c.222.43.332 1.03.332 1.801v.344h-4.398c0 .661.178 1.207.535 1.637.357.429.85.644 1.481.644.453 0 .785-.087.996-.262.211-.174.316-.371.316-.589zm-3.266-2.148h3.344v-.125c0-.287-.069-.567-.207-.84-.138-.274-.329-.476-.574-.606s-.529-.195-.852-.195c-.385 0-.741.155-1.066.465-.326.31-.54.743-.645 1.301z"/><path d="m260.181 202.274h1.039v.055c0 .281-.106.561-.317.839-.211.279-.484.494-.82.645s-.744.227-1.223.227c-.911 0-1.614-.289-2.109-.868-.495-.578-.742-1.38-.742-2.406 0-1.021.247-1.82.742-2.398s1.198-.867 2.109-.867c.479 0 .887.074 1.223.222.336.149.609.354.82.617s.317.554.317.871v.055h-1.039v-.055c.01-.229-.089-.428-.297-.597-.209-.169-.531-.254-.969-.254-.516 0-.949.19-1.301.57-.351.38-.527.992-.527 1.836 0 .849.176 1.464.527 1.844.352.38.785.57 1.301.57.438 0 .758-.084.961-.254.203-.169.305-.368.305-.597z"/><path d="m263.448 197.672h1.031v6.196h-1.031zm0-1.375v-1.039h1.031v1.039z"/><path d="m268.661 203.868h-1.031v-5.336h-.906v-.86h.906v-.289c0-.901.19-1.537.57-1.91.38-.372.875-.558 1.484-.558.23 0 .519.026.868.078v.843c-.287-.036-.516-.054-.688-.054-.333 0-.617.081-.851.242-.235.161-.352.549-.352 1.164v.484h1.813v.86h-1.813z"/><path d="m276.499 202.274h1.031v.055c0 .276-.109.556-.328.839-.219.284-.508.5-.867.649-.36.148-.771.223-1.235.223-.942 0-1.67-.305-2.183-.914-.513-.61-.77-1.381-.77-2.313 0-.953.271-1.743.813-2.371.541-.628 1.239-.941 2.094-.941.468 0 .894.101 1.277.304s.685.52.906.949c.222.43.332 1.03.332 1.801v.344h-4.398c0 .661.178 1.207.535 1.637.357.429.85.644 1.48.644.454 0 .786-.087.996-.262.211-.174.317-.371.317-.589zm-3.266-2.148h3.344v-.125c0-.287-.069-.567-.207-.84-.138-.274-.329-.476-.574-.606s-.529-.195-.852-.195c-.385 0-.741.155-1.066.465-.326.31-.541.743-.645 1.301z"/><path d="m216.618 250.854h-8.609v-1.125h7.664v-4.516h.945z"/><path d="m210.423 243.166v-1.032h6.195v1.032zm-1.375 0h-1.039v-1.032h1.039z"/><path d="m216.618 238.477v1.031c-.203-.015-.451-.029-.742-.042-.292-.014-.53-.024-.715-.032s-.309-.011-.371-.011h-7.125v-1.032h3.836c-.354-.224-.611-.435-.77-.633-.159-.197-.278-.415-.359-.652s-.121-.483-.121-.738c0-.469.129-.9.387-1.293.257-.393.641-.699 1.152-.918.51-.219 1.083-.328 1.719-.328.942 0 1.725.228 2.347.683.623.456.934 1.09.934 1.903 0 .265-.038.515-.113.75-.076.234-.189.442-.34.625-.151.182-.417.383-.797.601l.445.032c.25.015.461.033.633.054zm-3.094-.086c.703 0 1.28-.152 1.731-.457.45-.304.676-.73.676-1.277 0-.5-.2-.917-.598-1.25-.399-.333-.996-.5-1.793-.5-.927 0-1.572.17-1.934.512-.362.341-.543.746-.543 1.214 0 .329.099.635.297.918.198.284.492.495.883.633s.818.207 1.281.207z"/><path d="m215.024 227.383v-1.032h.055c.276 0 .556.11.84.328.284.219.5.508.648.868.149.359.223.771.223 1.234 0 .943-.305 1.671-.914 2.184-.61.513-1.38.769-2.313.769-.953 0-1.743-.271-2.371-.812-.627-.542-.941-1.24-.941-2.094 0-.469.101-.895.305-1.277.203-.383.519-.685.949-.907.429-.221 1.03-.332 1.801-.332h.343v4.399c.662 0 1.207-.179 1.637-.535.43-.357.645-.851.645-1.481 0-.453-.088-.785-.262-.996-.175-.211-.371-.316-.59-.316zm-2.148 3.265v-3.344h-.125c-.287 0-.567.07-.84.208s-.475.329-.605.574c-.131.245-.196.528-.196.851 0 .386.155.741.465 1.067.31.325.744.54 1.301.644z"/><path d="m216.618 222.804v1.031h-6.195v-1.031h1.093c-.317-.172-.562-.358-.734-.559-.172-.2-.303-.415-.394-.644-.092-.23-.137-.461-.137-.696 0-.213.031-.398.094-.554h1.07c-.12.244-.18.502-.18.773 0 .391.171.768.512 1.133.341.364.944.547 1.809.547z"/><path d="m215.743 214.592h.867c.12.5.18.883.18 1.148 0 .386-.078.733-.234 1.043-.157.31-.382.546-.676.707-.295.162-.765.242-1.41.242h-3.188v1.071h-.859v-1.071h-1.469v-1.039h1.469v-1.804h.859v1.804h2.891c.547 0 .927-.041 1.14-.125.214-.083.37-.216.469-.398s.149-.401.149-.656c0-.203-.063-.511-.188-.922z"/><path d="m216.618 208.45c-.333.11-.62.164-.859.164.448.454.731.839.851 1.157.12.317.18.625.18.922 0 .489-.151.911-.453 1.265s-.716.531-1.242.531c-.599 0-1.062-.248-1.387-.746-.326-.497-.608-1.355-.848-2.574l-.101-.555h-.703c-.381 0-.648.128-.801.383-.154.255-.231.563-.231.922 0 .427.095.762.285 1.004.191.242.411.363.661.363h.086v1.118h-.079c-.276 0-.56-.116-.851-.348-.292-.232-.512-.539-.66-.922-.149-.383-.223-.801-.223-1.254s.07-.865.211-1.234c.141-.37.331-.64.57-.809.24-.169.688-.254 1.344-.254h2.406c.266 0 .543-.006.832-.019s.627-.08 1.012-.2zm-3.125.164.07.313c.256 1.047.499 1.716.731 2.008.232.291.506.437.824.437.161 0 .313-.043.453-.129.141-.086.25-.214.328-.386s.117-.342.117-.508c0-.287-.084-.569-.253-.848-.17-.278-.395-.496-.676-.652s-.61-.235-.985-.235z"/><path d="m207.665 200.668v-1.031h8.953v1.031h-1.078c.401.214.68.42.836.617.156.198.264.422.324.672s.09.498.09.743c0 .468-.129.898-.387 1.289-.258.39-.642.695-1.152.914-.511.218-1.084.328-1.719.328-.943 0-1.725-.228-2.348-.684-.622-.456-.933-1.09-.933-1.902 0-.266.038-.514.113-.746.076-.232.189-.44.34-.625s.417-.387.797-.606zm5.851 0c-.703 0-1.28.153-1.73.457-.451.305-.676.731-.676 1.278 0 .5.199.916.598 1.25.398.333.996.5 1.793.5.927 0 1.571-.16 1.933-.481.362-.32.543-.735.543-1.246 0-.328-.1-.633-.3-.914-.201-.281-.495-.492-.883-.633-.388-.14-.814-.211-1.278-.211z"/><path d="m59.402 248.257v1.125h-8.609v-2.399c0-.911.093-1.556.281-1.933.187-.378.461-.662.82-.852.36-.19.779-.285 1.258-.285.807 0 1.484.275 2.031.824.547.55.821 1.369.821 2.457v1.063zm-4.258 0v-.75c0-.995-.191-1.649-.574-1.961-.383-.313-.84-.469-1.371-.469-.464 0-.836.127-1.117.379-.282.253-.422.754-.422 1.504v1.297z"/><path d="m57.808 237.459v-1.031h.055c.276 0 .556.109.84.328s.5.508.648.867c.149.36.223.771.223 1.235 0 .942-.305 1.67-.914 2.183-.61.513-1.38.77-2.313.77-.953 0-1.743-.271-2.371-.813-.627-.541-.941-1.239-.941-2.093 0-.469.101-.895.305-1.278.203-.383.519-.685.949-.906.429-.221 1.03-.332 1.801-.332h.343v4.398c.662 0 1.207-.178 1.637-.535s.645-.85.645-1.48c0-.453-.088-.785-.262-.996-.175-.211-.371-.317-.59-.317zm-2.148 3.266v-3.344h-.125c-.287 0-.567.069-.84.207s-.475.33-.605.574c-.131.245-.196.529-.196.852 0 .385.155.741.465 1.066.31.326.744.541 1.301.645z"/><path d="m59.402 232.701v1.031h-6.195v-1.031h1.093c-.317-.172-.562-.358-.734-.559-.172-.2-.303-.415-.394-.644-.092-.23-.137-.461-.137-.696 0-.213.031-.398.094-.554h1.07c-.12.244-.18.502-.18.773 0 .391.171.768.512 1.133.341.364.944.547 1.809.547z"/><path d="m59.402 227.067v1.031h-8.953v-1.031z"/><path d="m59.402 220.355c-.333.11-.62.164-.859.164.448.454.731.839.851 1.157.12.317.18.625.18.922 0 .489-.151.911-.453 1.265s-.716.531-1.242.531c-.599 0-1.062-.248-1.387-.746-.326-.497-.608-1.355-.848-2.574l-.101-.555h-.703c-.381 0-.648.128-.801.383-.154.255-.231.563-.231.922 0 .427.095.762.285 1.004.191.242.411.363.661.363h.086v1.118h-.079c-.276 0-.56-.116-.851-.348-.292-.232-.512-.539-.66-.922-.149-.383-.223-.801-.223-1.254s.07-.865.211-1.234c.141-.37.331-.64.57-.809.24-.169.688-.254 1.344-.254h2.406c.266 0 .543-.006.832-.019s.627-.08 1.012-.2zm-3.125.164.07.313c.256 1.047.499 1.716.731 2.008.232.291.506.437.824.437.161 0 .313-.043.453-.129.141-.086.25-.214.328-.386s.117-.342.117-.508c0-.287-.084-.569-.253-.848-.17-.278-.395-.496-.676-.652s-.61-.235-.985-.235z"/></g></g></svg>