<?xml version="1.0" encoding="UTF-8" standalone="no"?><!DOCTYPE svg PUBLIC "-//W3C//DTD SVG 1.1//EN" "http://www.w3.org/Graphics/SVG/1.1/DTD/svg11.dtd"><svg width="100%" height="100%" viewBox="0 0 284 256" version="1.1" xmlns="http://www.w3.org/2000/svg" xmlns:xlink="http://www.w3.org/1999/xlink" xml:space="preserve" xmlns:serif="http://www.serif.com/" style="fill-rule:evenodd;clip-rule:evenodd;stroke-miterlimit:10;"><g><clipPath id="_clip1"><path d="M12.005,0.167c-6.627,0 -12,5.372 -12,12l0,231.118c0,6.627 5.373,11.999 12,11.999l259.465,0c6.628,0 12.001,-5.372 12.001,-11.999l0,-231.118c0,-6.628 -5.373,-12 -12.001,-12l-259.465,0Z" clip-rule="nonzero"/></clipPath><g clip-path="url(#_clip1)"><g><rect x="0.005" y="0.167" width="283.466" height="255.117" style="fill:url(#_Radial2);"/><path d="M95.632,67.292l95.788,0" style="fill:none;fill-rule:nonzero;stroke:#ffd98f;stroke-width:2px;stroke-dasharray:15,11;"/><path d="M95.632,190.475l93.935,0" style="fill:none;fill-rule:nonzero;stroke:#ffd98f;stroke-width:2px;stroke-dasharray:15,11;"/><path d="M-9.507,67.292l41.867,0" style="fill:none;fill-rule:nonzero;stroke:#ffd98f;stroke-width:2px;stroke-dasharray:15,11;"/><path d="M-9.507,190.475l40.014,0" style="fill:none;fill-rule:nonzero;stroke:#ffd98f;stroke-width:2px;stroke-dasharray:15,11;"/><path d="M253.301,67.292l41.866,0" style="fill:none;fill-rule:nonzero;stroke:#ffd98f;stroke-width:2px;stroke-dasharray:15,11;"/><path d="M253.301,190.475l40.014,0" style="fill:none;fill-rule:nonzero;stroke:#ffd98f;stroke-width:2px;stroke-dasharray:15,11;"/><path d="M219.966,96.745l0,66.153" style="fill:none;fill-rule:nonzero;stroke:#ffd98f;stroke-width:2px;stroke-dasharray:15,10;"/><path d="M219.966,220.84l0,66.153" style="fill:none;fill-rule:nonzero;stroke:#ffd98f;stroke-width:2px;stroke-dasharray:15,10;"/><path d="M62.634,96.745l0,66.153" style="fill:none;fill-rule:nonzero;stroke:#ffd98f;stroke-width:2px;stroke-dasharray:15,10;"/><path d="M62.634,-2.993l0,41.761" style="fill:none;fill-rule:nonzero;stroke:#ffd98f;stroke-width:2px;stroke-dasharray:15,10;"/><path d="M221.121,-2.993l0,41.761" style="fill:none;fill-rule:nonzero;stroke:#ffd98f;stroke-width:2px;stroke-dasharray:15,10;"/><path d="M62.634,222.56l0,66.153" style="fill:none;fill-rule:nonzero;stroke:#ffd98f;stroke-width:2px;stroke-dasharray:15,10;"/><path d="M45.549,87.993l35.746,0" style="fill:none;fill-rule:nonzero;stroke:#ffd98f;stroke-width:2px;"/><path d="M45.549,92.461l35.746,0" style="fill:none;fill-rule:nonzero;stroke:#ffd98f;stroke-width:2px;"/><path d="M45.549,42.604l35.746,0" style="fill:none;fill-rule:nonzero;stroke:#ffd98f;stroke-width:2px;"/><path d="M45.549,47.072l35.746,0" style="fill:none;fill-rule:nonzero;stroke:#ffd98f;stroke-width:2px;"/><path d="M83.883,85.406l0,-35.747" style="fill:none;fill-rule:nonzero;stroke:#ffd98f;stroke-width:2px;"/><path d="M88.351,85.406l0,-35.747" style="fill:none;fill-rule:nonzero;stroke:#ffd98f;stroke-width:2px;"/><path d="M38.494,85.406l0,-35.747" style="fill:none;fill-rule:nonzero;stroke:#ffd98f;stroke-width:2px;"/><path d="M42.962,85.406l0,-35.747" style="fill:none;fill-rule:nonzero;stroke:#ffd98f;stroke-width:2px;"/><path d="M83.883,208.642l0,-35.747" style="fill:none;fill-rule:nonzero;stroke:#ffd98f;stroke-width:2px;"/><path d="M88.351,208.642l0,-35.747" style="fill:none;fill-rule:nonzero;stroke:#ffd98f;stroke-width:2px;"/><path d="M38.494,208.642l0,-35.747" style="fill:none;fill-rule:nonzero;stroke:#ffd98f;stroke-width:2px;"/><path d="M42.962,208.642l0,-35.747" style="fill:none;fill-rule:nonzero;stroke:#ffd98f;stroke-width:2px;"/><path d="M241.51,85.406l0,-35.747" style="fill:none;fill-rule:nonzero;stroke:#ffd98f;stroke-width:2px;"/><path d="M245.978,85.406l0,-35.747" style="fill:none;fill-rule:nonzero;stroke:#ffd98f;stroke-width:2px;"/><path d="M196.121,85.406l0,-35.747" style="fill:none;fill-rule:nonzero;stroke:#ffd98f;stroke-width:2px;"/><path d="M200.589,85.406l0,-35.747" style="fill:none;fill-rule:nonzero;stroke:#ffd98f;stroke-width:2px;"/><path d="M241.51,208.642l0,-35.747" style="fill:none;fill-rule:nonzero;stroke:#ffd98f;stroke-width:2px;"/><path d="M245.978,208.642l0,-35.747" style="fill:none;fill-rule:nonzero;stroke:#ffd98f;stroke-width:2px;"/><path d="M196.121,208.642l0,-35.747" style="fill:none;fill-rule:nonzero;stroke:#ffd98f;stroke-width:2px;"/><path d="M200.589,208.642l0,-35.747" style="fill:none;fill-rule:nonzero;stroke:#ffd98f;stroke-width:2px;"/><path d="M45.549,166.306l35.746,0" style="fill:none;fill-rule:nonzero;stroke:#ffd98f;stroke-width:2px;"/><path d="M45.549,170.774l35.746,0" style="fill:none;fill-rule:nonzero;stroke:#ffd98f;stroke-width:2px;"/><path d="M45.549,210.754l35.746,0" style="fill:none;fill-rule:nonzero;stroke:#ffd98f;stroke-width:2px;"/><path d="M45.549,215.222l35.746,0" style="fill:none;fill-rule:nonzero;stroke:#ffd98f;stroke-width:2px;"/><path d="M202.89,87.993l35.746,0" style="fill:none;fill-rule:nonzero;stroke:#ffd98f;stroke-width:2px;"/><path d="M202.89,92.461l35.746,0" style="fill:none;fill-rule:nonzero;stroke:#ffd98f;stroke-width:2px;"/><path d="M202.89,42.604l35.746,0" style="fill:none;fill-rule:nonzero;stroke:#ffd98f;stroke-width:2px;"/><path d="M202.89,47.072l35.746,0" style="fill:none;fill-rule:nonzero;stroke:#ffd98f;stroke-width:2px;"/><path d="M202.89,166.306l35.746,0" style="fill:none;fill-rule:nonzero;stroke:#ffd98f;stroke-width:2px;"/><path d="M202.89,170.774l35.746,0" style="fill:none;fill-rule:nonzero;stroke:#ffd98f;stroke-width:2px;"/><path d="M202.89,210.754l35.746,0" style="fill:none;fill-rule:nonzero;stroke:#ffd98f;stroke-width:2px;"/><path d="M202.89,215.222l35.746,0" style="fill:none;fill-rule:nonzero;stroke:#ffd98f;stroke-width:2px;"/><path d="M42.56,50.688l-44.755,0c-1.565,0 -2.834,-1.27 -2.834,-2.835l0,-48.413c0,-1.566 1.269,-2.835 2.834,-2.835l44.755,0c1.565,0 2.834,1.269 2.834,2.835l0,48.413c0,1.565 -1.269,2.835 -2.834,2.835Z" style="fill:#e5f0d4;fill-rule:nonzero;stroke:#231f20;stroke-width:1px;"/><path d="M286.431,50.688l-44.755,0c-1.566,0 -2.835,-1.27 -2.835,-2.835l0,-48.413c0,-1.566 1.269,-2.835 2.835,-2.835l44.755,0c1.565,0 2.834,1.269 2.834,2.835l0,48.413c0,1.565 -1.269,2.835 -2.834,2.835Z" style="fill:#e0deef;fill-rule:nonzero;stroke:#231f20;stroke-width:1px;"/><path d="M199.553,50.688l-115.48,0c-1.566,0 -2.835,-1.27 -2.835,-2.835l0,-48.413c0,-1.566 1.269,-2.835 2.835,-2.835l115.48,0c1.565,0 2.834,1.269 2.834,2.835l0,48.413c0,1.565 -1.269,2.835 -2.834,2.835Z" style="fill:#d4effc;fill-rule:nonzero;stroke:#231f20;stroke-width:1px;"/><path d="M42.56,262.043l-44.755,0c-1.565,0 -2.834,-1.27 -2.834,-2.835l0,-48.414c0,-1.565 1.269,-2.834 2.834,-2.834l44.755,0c1.565,0 2.834,1.269 2.834,2.834l0,48.414c0,1.565 -1.269,2.835 -2.834,2.835Z" style="fill:#fcdfec;fill-rule:nonzero;stroke:#231f20;stroke-width:1px;"/><path d="M286.431,262.043l-44.755,0c-1.566,0 -2.835,-1.27 -2.835,-2.835l0,-48.414c0,-1.565 1.269,-2.834 2.835,-2.834l44.755,0c1.565,0 2.834,1.269 2.834,2.834l0,48.414c0,1.565 -1.269,2.835 -2.834,2.835Z" style="fill:#e5f0d4;fill-rule:nonzero;stroke:#231f20;stroke-width:1px;"/><path d="M199.553,262.043l-115.48,0c-1.566,0 -2.835,-1.27 -2.835,-2.835l0,-48.414c0,-1.565 1.269,-2.834 2.835,-2.834l115.48,0c1.565,0 2.834,1.269 2.834,2.834l0,48.414c0,1.565 -1.269,2.835 -2.834,2.835Z" style="fill:#ffeecf;fill-rule:nonzero;stroke:#231f20;stroke-width:1px;"/><path d="M42.56,173.785l-44.755,0c-1.565,0 -2.834,-1.27 -2.834,-2.835l0,-82.921c0,-1.565 1.269,-2.834 2.834,-2.834l44.755,0c1.565,0 2.834,1.269 2.834,2.834l0,82.921c0,1.565 -1.269,2.835 -2.834,2.835Z" style="fill:#ffeecf;fill-rule:nonzero;stroke:#231f20;stroke-width:1px;"/><path d="M286.431,173.785l-44.755,0c-1.566,0 -2.835,-1.27 -2.835,-2.835l0,-82.921c0,-1.565 1.269,-2.834 2.835,-2.834l44.755,0c1.565,0 2.834,1.269 2.834,2.834l0,82.921c0,1.565 -1.269,2.835 -2.834,2.835Z" style="fill:#d4effc;fill-rule:nonzero;stroke:#231f20;stroke-width:1px;"/><path d="M199.553,173.785l-115.48,0c-1.566,0 -2.835,-1.27 -2.835,-2.835l0,-82.921c0,-1.565 1.269,-2.834 2.835,-2.834l115.48,0c1.565,0 2.834,1.269 2.834,2.834l0,82.921c0,1.565 -1.269,2.835 -2.834,2.835Z" style="fill:#e5f0d4;fill-rule:nonzero;stroke:#231f20;stroke-width:1px;"/></g><path d="M90.661,87.941c-3.131,0 -5.669,2.538 -5.669,5.667l0,65.565c0,3.132 2.538,5.669 5.669,5.669l97.573,0c3.131,0 5.669,-2.537 5.669,-5.669l0,-65.565c0,-3.129 -2.538,-5.667 -5.669,-5.667l-97.573,0Z" style="fill:url(#_Radial3);fill-rule:nonzero;"/><g><clipPath id="_clip4"><path d="M12.005,0.167c-6.627,0 -12,5.372 -12,12l0,231.118c0,6.627 5.373,11.999 12,11.999l259.465,0c6.628,0 12.001,-5.372 12.001,-11.999l0,-231.118c0,-6.628 -5.373,-12 -12.001,-12l-259.465,0Z" clip-rule="nonzero"/></clipPath><g clip-path="url(#_clip4)"><path d="M188.233,266.753l-97.572,0c-3.131,0 -5.669,-2.538 -5.669,-5.669l0,-43.603c0,-3.131 2.538,-5.67 5.669,-5.67l97.572,0c3.131,0 5.669,2.539 5.669,5.67l0,43.603c0,3.131 -2.538,5.669 -5.669,5.669" style="fill:#ffe0b6;fill-rule:nonzero;"/><path d="M188.233,42.299l-97.572,0c-3.131,0 -5.669,-2.538 -5.669,-5.669l0,-37.186c0,-3.132 2.538,-5.67 5.669,-5.67l97.572,0c3.131,0 5.669,2.538 5.669,5.67l0,37.186c0,3.131 -2.538,5.669 -5.669,5.669" style="fill:#b9e5fb;fill-rule:nonzero;"/><path d="M289.32,164.842l-40.281,0c-3.131,0 -5.669,-2.538 -5.669,-5.669l0,-65.564c0,-3.131 2.538,-5.669 5.669,-5.669l40.281,0c3.131,0 5.67,2.538 5.67,5.669l0,65.564c0,3.131 -2.539,5.669 -5.67,5.669" style="fill:#b9e5fb;fill-rule:nonzero;"/><path d="M30.518,164.842l-40.281,0c-3.131,0 -5.669,-2.538 -5.669,-5.669l0,-65.564c0,-3.131 2.538,-5.669 5.669,-5.669l40.281,0c3.131,0 5.669,2.538 5.669,5.669l0,65.564c0,3.131 -2.538,5.669 -5.669,5.669" style="fill:#ffe0b6;fill-rule:nonzero;"/><path d="M32.412,43.014l-32.904,0c-3.132,0 -5.67,-2.538 -5.67,-5.669l0,-37.06c0,-3.13 2.538,-5.668 5.67,-5.668l32.904,0c3.131,0 5.669,2.538 5.669,5.668l0,37.06c0,3.131 -2.538,5.669 -5.669,5.669" style="fill:#daebc1;fill-rule:nonzero;"/><path d="M286.951,43.014l-38.375,0c-3.131,0 -5.669,-2.538 -5.669,-5.669l0,-37.06c0,-3.13 2.538,-5.668 5.669,-5.668l38.375,0c3.131,0 5.67,2.538 5.67,5.668l0,37.06c0,3.131 -2.539,5.669 -5.67,5.669" style="fill:#d4d1e9;fill-rule:nonzero;"/><path d="M285.083,262.483l-37.284,0c-3.131,0 -5.669,-2.538 -5.669,-5.669l0,-39.739c0,-3.131 2.538,-5.669 5.669,-5.669l37.284,0c3.131,0 5.669,2.538 5.669,5.669l0,39.739c0,3.131 -2.538,5.669 -5.669,5.669" style="fill:#daebc1;fill-rule:nonzero;"/><path d="M31.591,262.483l-37.284,0c-3.131,0 -5.669,-2.538 -5.669,-5.669l0,-39.739c0,-3.131 2.538,-5.669 5.669,-5.669l37.284,0c3.131,0 5.669,2.538 5.669,5.669l0,39.739c0,3.131 -2.538,5.669 -5.669,5.669" style="fill:#f9cbdf;fill-rule:nonzero;"/></g></g><g><clipPath id="_clip5"><path d="M12.005,0.167c-6.627,0 -12,5.372 -12,12l0,231.118c0,6.627 5.373,11.999 12,11.999l259.465,0c6.628,0 12.001,-5.372 12.001,-11.999l0,-231.118c0,-6.628 -5.373,-12 -12.001,-12l-259.465,0Z" clip-rule="nonzero"/></clipPath><g clip-path="url(#_clip5)"><g><path d="M244.448,79.472l1.031,0l0,0.055c0,0.338 -0.117,0.683 -0.352,1.035c-0.234,0.352 -0.552,0.609 -0.953,0.773c-0.401,0.164 -0.875,0.247 -1.422,0.247c-1.093,0 -1.988,-0.381 -2.683,-1.141c-0.696,-0.761 -1.043,-1.901 -1.043,-3.422c0,-1.51 0.346,-2.648 1.039,-3.414c0.693,-0.766 1.591,-1.148 2.695,-1.148c0.542,0 1.013,0.082 1.414,0.246c0.401,0.164 0.719,0.424 0.953,0.781c0.235,0.357 0.352,0.699 0.352,1.027l0,0.055l-1.031,0l0,-0.055c0,-0.208 -0.067,-0.41 -0.2,-0.605c-0.132,-0.196 -0.321,-0.343 -0.566,-0.442c-0.245,-0.099 -0.539,-0.148 -0.883,-0.148c-0.88,0 -1.536,0.348 -1.969,1.043c-0.432,0.695 -0.648,1.582 -0.648,2.66c0,1.089 0.217,1.978 0.652,2.668c0.435,0.69 1.088,1.035 1.957,1.035c0.599,0 1.025,-0.124 1.278,-0.371c0.252,-0.247 0.379,-0.522 0.379,-0.824l0,-0.055Z" style="fill:#231f20;fill-rule:nonzero;"/><path d="M250.804,81.496c-0.813,0 -1.504,-0.275 -2.075,-0.825c-0.57,-0.549 -0.855,-1.366 -0.855,-2.449c0,-1.078 0.285,-1.892 0.855,-2.441c0.571,-0.55 1.262,-0.824 2.075,-0.824c0.807,0 1.496,0.274 2.066,0.824c0.57,0.549 0.855,1.363 0.855,2.441c0,1.083 -0.285,1.9 -0.855,2.449c-0.57,0.55 -1.259,0.825 -2.066,0.825Zm0,-0.86c0.552,0 0.997,-0.221 1.336,-0.664c0.338,-0.443 0.507,-1.026 0.507,-1.75c0,-0.719 -0.169,-1.299 -0.507,-1.742c-0.339,-0.443 -0.784,-0.664 -1.336,-0.664c-0.558,0 -1.006,0.221 -1.344,0.664c-0.339,0.443 -0.508,1.023 -0.508,1.742c0,0.724 0.169,1.307 0.508,1.75c0.338,0.443 0.786,0.664 1.344,0.664Z" style="fill:#231f20;fill-rule:nonzero;"/><path d="M257.535,81.324l-1.032,0l0,-6.196l1.032,0l0,1.094c0.171,-0.318 0.358,-0.562 0.558,-0.734c0.201,-0.172 0.416,-0.304 0.645,-0.395c0.229,-0.091 0.461,-0.136 0.695,-0.136c0.214,0 0.398,0.031 0.555,0.093l0,1.071c-0.245,-0.12 -0.503,-0.18 -0.774,-0.18c-0.39,0 -0.768,0.17 -1.133,0.512c-0.364,0.341 -0.546,0.944 -0.546,1.808l0,3.063Z" style="fill:#231f20;fill-rule:nonzero;"/><path d="M266.172,81.324c-0.11,-0.334 -0.164,-0.62 -0.164,-0.86c-0.453,0.448 -0.839,0.732 -1.157,0.852c-0.317,0.12 -0.625,0.18 -0.921,0.18c-0.49,0 -0.912,-0.151 -1.266,-0.454c-0.354,-0.302 -0.531,-0.716 -0.531,-1.242c0,-0.599 0.248,-1.061 0.746,-1.386c0.497,-0.326 1.355,-0.609 2.574,-0.848l0.555,-0.102l0,-0.703c0,-0.38 -0.128,-0.647 -0.383,-0.801c-0.255,-0.153 -0.563,-0.23 -0.922,-0.23c-0.427,0 -0.762,0.095 -1.004,0.285c-0.242,0.19 -0.363,0.41 -0.363,0.66l0,0.086l-1.117,0l0,-0.078c0,-0.276 0.116,-0.56 0.347,-0.851c0.232,-0.292 0.539,-0.512 0.922,-0.661c0.383,-0.148 0.801,-0.222 1.254,-0.222c0.453,0 0.865,0.07 1.234,0.211c0.37,0.14 0.64,0.33 0.809,0.57c0.169,0.24 0.254,0.687 0.254,1.344l0,2.406c0,0.266 0.006,0.543 0.019,0.832c0.014,0.289 0.08,0.626 0.2,1.012l-1.086,0Zm-0.164,-3.125l-0.313,0.07c-1.047,0.255 -1.716,0.499 -2.008,0.73c-0.291,0.232 -0.437,0.507 -0.437,0.825c0,0.161 0.043,0.312 0.129,0.453c0.086,0.14 0.215,0.25 0.387,0.328c0.171,0.078 0.341,0.117 0.507,0.117c0.287,0 0.569,-0.084 0.848,-0.254c0.279,-0.169 0.496,-0.394 0.652,-0.676c0.157,-0.281 0.235,-0.609 0.235,-0.984l0,-0.609Z" style="fill:#231f20;fill-rule:nonzero;"/><rect x="270.075" y="72.371" width="1.031" height="8.953" style="fill:#231f20;fill-rule:nonzero;"/></g><g><path d="M229.337,203.868l-1.039,0l3.531,-8.61l1.125,0l3.258,8.61l-1.211,0l-0.891,-2.367l-3.796,0l-0.977,2.367Zm1.313,-3.227l3.125,0l-1.508,-4l-1.617,4Z" style="fill:#231f20;fill-rule:nonzero;"/><path d="M239.175,203.868l-1.031,0l0,-6.196l1.031,0l0,1.094c0.172,-0.318 0.358,-0.562 0.558,-0.734c0.201,-0.172 0.416,-0.304 0.645,-0.395c0.229,-0.091 0.461,-0.136 0.695,-0.136c0.214,0 0.399,0.031 0.555,0.093l0,1.071c-0.245,-0.12 -0.503,-0.18 -0.773,-0.18c-0.391,0 -0.769,0.17 -1.133,0.512c-0.365,0.341 -0.547,0.944 -0.547,1.808l0,3.063Z" style="fill:#231f20;fill-rule:nonzero;"/><path d="M244.513,203.868l-1.032,0l0,-6.196l1.032,0l0,1.094c0.172,-0.318 0.358,-0.562 0.558,-0.734c0.201,-0.172 0.416,-0.304 0.645,-0.395c0.229,-0.091 0.461,-0.136 0.695,-0.136c0.214,0 0.399,0.031 0.555,0.093l0,1.071c-0.245,-0.12 -0.503,-0.18 -0.774,-0.18c-0.39,0 -0.768,0.17 -1.132,0.512c-0.365,0.341 -0.547,0.944 -0.547,1.808l0,3.063Z" style="fill:#231f20;fill-rule:nonzero;"/><path d="M252.874,202.274l1.031,0l0,0.055c0,0.276 -0.109,0.556 -0.328,0.839c-0.219,0.284 -0.508,0.5 -0.867,0.649c-0.359,0.148 -0.771,0.223 -1.234,0.223c-0.943,0 -1.671,-0.305 -2.184,-0.914c-0.513,-0.61 -0.77,-1.381 -0.77,-2.313c0,-0.953 0.271,-1.743 0.813,-2.371c0.542,-0.628 1.24,-0.941 2.094,-0.941c0.468,0 0.894,0.101 1.277,0.304c0.383,0.203 0.685,0.52 0.906,0.949c0.222,0.43 0.332,1.03 0.332,1.801l0,0.344l-4.398,0c0,0.661 0.178,1.207 0.535,1.637c0.357,0.429 0.85,0.644 1.481,0.644c0.453,0 0.785,-0.087 0.996,-0.262c0.211,-0.174 0.316,-0.371 0.316,-0.589l0,-0.055Zm-3.266,-2.148l3.344,0l0,-0.125c0,-0.287 -0.069,-0.567 -0.207,-0.84c-0.138,-0.274 -0.329,-0.476 -0.574,-0.606c-0.245,-0.13 -0.529,-0.195 -0.852,-0.195c-0.385,0 -0.741,0.155 -1.066,0.465c-0.326,0.31 -0.54,0.743 -0.645,1.301Z" style="fill:#231f20;fill-rule:nonzero;"/><path d="M260.181,202.274l1.039,0l0,0.055c0,0.281 -0.106,0.561 -0.317,0.839c-0.211,0.279 -0.484,0.494 -0.82,0.645c-0.336,0.151 -0.744,0.227 -1.223,0.227c-0.911,0 -1.614,-0.289 -2.109,-0.868c-0.495,-0.578 -0.742,-1.38 -0.742,-2.406c0,-1.021 0.247,-1.82 0.742,-2.398c0.495,-0.578 1.198,-0.867 2.109,-0.867c0.479,0 0.887,0.074 1.223,0.222c0.336,0.149 0.609,0.354 0.82,0.617c0.211,0.263 0.317,0.554 0.317,0.871l0,0.055l-1.039,0l0,-0.055c0.01,-0.229 -0.089,-0.428 -0.297,-0.597c-0.209,-0.169 -0.531,-0.254 -0.969,-0.254c-0.516,0 -0.949,0.19 -1.301,0.57c-0.351,0.38 -0.527,0.992 -0.527,1.836c0,0.849 0.176,1.464 0.527,1.844c0.352,0.38 0.785,0.57 1.301,0.57c0.438,0 0.758,-0.084 0.961,-0.254c0.203,-0.169 0.305,-0.368 0.305,-0.597l0,-0.055Z" style="fill:#231f20;fill-rule:nonzero;"/><path d="M263.448,197.672l1.031,0l0,6.196l-1.031,0l0,-6.196Zm0,-1.375l0,-1.039l1.031,0l0,1.039l-1.031,0Z" style="fill:#231f20;fill-rule:nonzero;"/><path d="M268.661,203.868l-1.031,0l0,-5.336l-0.906,0l0,-0.86l0.906,0l0,-0.289c0,-0.901 0.19,-1.537 0.57,-1.91c0.38,-0.372 0.875,-0.558 1.484,-0.558c0.23,0 0.519,0.026 0.868,0.078l0,0.843c-0.287,-0.036 -0.516,-0.054 -0.688,-0.054c-0.333,0 -0.617,0.081 -0.851,0.242c-0.235,0.161 -0.352,0.549 -0.352,1.164l0,0.484l1.813,0l0,0.86l-1.813,0l0,5.336Z" style="fill:#231f20;fill-rule:nonzero;"/><path d="M276.499,202.274l1.031,0l0,0.055c0,0.276 -0.109,0.556 -0.328,0.839c-0.219,0.284 -0.508,0.5 -0.867,0.649c-0.36,0.148 -0.771,0.223 -1.235,0.223c-0.942,0 -1.67,-0.305 -2.183,-0.914c-0.513,-0.61 -0.77,-1.381 -0.77,-2.313c0,-0.953 0.271,-1.743 0.813,-2.371c0.541,-0.628 1.239,-0.941 2.094,-0.941c0.468,0 0.894,0.101 1.277,0.304c0.383,0.203 0.685,0.52 0.906,0.949c0.222,0.43 0.332,1.03 0.332,1.801l0,0.344l-4.398,0c0,0.661 0.178,1.207 0.535,1.637c0.357,0.429 0.85,0.644 1.48,0.644c0.454,0 0.786,-0.087 0.996,-0.262c0.211,-0.174 0.317,-0.371 0.317,-0.589l0,-0.055Zm-3.266,-2.148l3.344,0l0,-0.125c0,-0.287 -0.069,-0.567 -0.207,-0.84c-0.138,-0.274 -0.329,-0.476 -0.574,-0.606c-0.245,-0.13 -0.529,-0.195 -0.852,-0.195c-0.385,0 -0.741,0.155 -1.066,0.465c-0.326,0.31 -0.541,0.743 -0.645,1.301Z" style="fill:#231f20;fill-rule:nonzero;"/></g><g><path d="M216.618,250.854l-8.609,0l0,-1.125l7.664,0l0,-4.516l0.945,0l0,5.641Z" style="fill:#231f20;fill-rule:nonzero;"/><path d="M210.423,243.166l0,-1.032l6.195,0l0,1.032l-6.195,0Zm-1.375,0l-1.039,0l0,-1.032l1.039,0l0,1.032Z" style="fill:#231f20;fill-rule:nonzero;"/><path d="M216.618,238.477l0,1.031c-0.203,-0.015 -0.451,-0.029 -0.742,-0.042c-0.292,-0.014 -0.53,-0.024 -0.715,-0.032c-0.185,-0.008 -0.309,-0.011 -0.371,-0.011l-7.125,0l0,-1.032l3.836,0c-0.354,-0.224 -0.611,-0.435 -0.77,-0.633c-0.159,-0.197 -0.278,-0.415 -0.359,-0.652c-0.081,-0.237 -0.121,-0.483 -0.121,-0.738c0,-0.469 0.129,-0.9 0.387,-1.293c0.257,-0.393 0.641,-0.699 1.152,-0.918c0.51,-0.219 1.083,-0.328 1.719,-0.328c0.942,0 1.725,0.228 2.347,0.683c0.623,0.456 0.934,1.09 0.934,1.903c0,0.265 -0.038,0.515 -0.113,0.75c-0.076,0.234 -0.189,0.442 -0.34,0.625c-0.151,0.182 -0.417,0.383 -0.797,0.601l0.445,0.032c0.25,0.015 0.461,0.033 0.633,0.054Zm-3.094,-0.086c0.703,0 1.28,-0.152 1.731,-0.457c0.45,-0.304 0.676,-0.73 0.676,-1.277c0,-0.5 -0.2,-0.917 -0.598,-1.25c-0.399,-0.333 -0.996,-0.5 -1.793,-0.5c-0.927,0 -1.572,0.17 -1.934,0.512c-0.362,0.341 -0.543,0.746 -0.543,1.214c0,0.329 0.099,0.635 0.297,0.918c0.198,0.284 0.492,0.495 0.883,0.633c0.391,0.138 0.818,0.207 1.281,0.207Z" style="fill:#231f20;fill-rule:nonzero;"/><path d="M215.024,227.383l0,-1.032l0.055,0c0.276,0 0.556,0.11 0.84,0.328c0.284,0.219 0.5,0.508 0.648,0.868c0.149,0.359 0.223,0.771 0.223,1.234c0,0.943 -0.305,1.671 -0.914,2.184c-0.61,0.513 -1.38,0.769 -2.313,0.769c-0.953,0 -1.743,-0.271 -2.371,-0.812c-0.627,-0.542 -0.941,-1.24 -0.941,-2.094c0,-0.469 0.101,-0.895 0.305,-1.277c0.203,-0.383 0.519,-0.685 0.949,-0.907c0.429,-0.221 1.03,-0.332 1.801,-0.332l0.343,0l0,4.399c0.662,0 1.207,-0.179 1.637,-0.535c0.43,-0.357 0.645,-0.851 0.645,-1.481c0,-0.453 -0.088,-0.785 -0.262,-0.996c-0.175,-0.211 -0.371,-0.316 -0.59,-0.316l-0.055,0Zm-2.148,3.265l0,-3.344l-0.125,0c-0.287,0 -0.567,0.07 -0.84,0.208c-0.273,0.138 -0.475,0.329 -0.605,0.574c-0.131,0.245 -0.196,0.528 -0.196,0.851c0,0.386 0.155,0.741 0.465,1.067c0.31,0.325 0.744,0.54 1.301,0.644Z" style="fill:#231f20;fill-rule:nonzero;"/><path d="M216.618,222.804l0,1.031l-6.195,0l0,-1.031l1.093,0c-0.317,-0.172 -0.562,-0.358 -0.734,-0.559c-0.172,-0.2 -0.303,-0.415 -0.394,-0.644c-0.092,-0.23 -0.137,-0.461 -0.137,-0.696c0,-0.213 0.031,-0.398 0.094,-0.554l1.07,0c-0.12,0.244 -0.18,0.502 -0.18,0.773c0,0.391 0.171,0.768 0.512,1.133c0.341,0.364 0.944,0.547 1.809,0.547l3.062,0Z" style="fill:#231f20;fill-rule:nonzero;"/><path d="M215.743,214.592l0.867,0c0.12,0.5 0.18,0.883 0.18,1.148c0,0.386 -0.078,0.733 -0.234,1.043c-0.157,0.31 -0.382,0.546 -0.676,0.707c-0.295,0.162 -0.765,0.242 -1.41,0.242l-3.188,0l0,1.071l-0.859,0l0,-1.071l-1.469,0l0,-1.039l1.469,0l0,-1.804l0.859,0l0,1.804l2.891,0c0.547,0 0.927,-0.041 1.14,-0.125c0.214,-0.083 0.37,-0.216 0.469,-0.398c0.099,-0.182 0.149,-0.401 0.149,-0.656c0,-0.203 -0.063,-0.511 -0.188,-0.922Z" style="fill:#231f20;fill-rule:nonzero;"/><path d="M216.618,208.45c-0.333,0.11 -0.62,0.164 -0.859,0.164c0.448,0.454 0.731,0.839 0.851,1.157c0.12,0.317 0.18,0.625 0.18,0.922c0,0.489 -0.151,0.911 -0.453,1.265c-0.302,0.354 -0.716,0.531 -1.242,0.531c-0.599,0 -1.062,-0.248 -1.387,-0.746c-0.326,-0.497 -0.608,-1.355 -0.848,-2.574l-0.101,-0.555l-0.703,0c-0.381,0 -0.648,0.128 -0.801,0.383c-0.154,0.255 -0.231,0.563 -0.231,0.922c0,0.427 0.095,0.762 0.285,1.004c0.191,0.242 0.411,0.363 0.661,0.363l0.086,0l0,1.118l-0.079,0c-0.276,0 -0.56,-0.116 -0.851,-0.348c-0.292,-0.232 -0.512,-0.539 -0.66,-0.922c-0.149,-0.383 -0.223,-0.801 -0.223,-1.254c0,-0.453 0.07,-0.865 0.211,-1.234c0.141,-0.37 0.331,-0.64 0.57,-0.809c0.24,-0.169 0.688,-0.254 1.344,-0.254l2.406,0c0.266,0 0.543,-0.006 0.832,-0.019c0.289,-0.013 0.627,-0.08 1.012,-0.2l0,1.086Zm-3.125,0.164l0.07,0.313c0.256,1.047 0.499,1.716 0.731,2.008c0.232,0.291 0.506,0.437 0.824,0.437c0.161,0 0.313,-0.043 0.453,-0.129c0.141,-0.086 0.25,-0.214 0.328,-0.386c0.078,-0.172 0.117,-0.342 0.117,-0.508c0,-0.287 -0.084,-0.569 -0.253,-0.848c-0.17,-0.278 -0.395,-0.496 -0.676,-0.652c-0.281,-0.156 -0.61,-0.235 -0.985,-0.235l-0.609,0Z" style="fill:#231f20;fill-rule:nonzero;"/><path d="M207.665,200.668l0,-1.031l8.953,0l0,1.031l-1.078,0c0.401,0.214 0.68,0.42 0.836,0.617c0.156,0.198 0.264,0.422 0.324,0.672c0.06,0.25 0.09,0.498 0.09,0.743c0,0.468 -0.129,0.898 -0.387,1.289c-0.258,0.39 -0.642,0.695 -1.152,0.914c-0.511,0.218 -1.084,0.328 -1.719,0.328c-0.943,0 -1.725,-0.228 -2.348,-0.684c-0.622,-0.456 -0.933,-1.09 -0.933,-1.902c0,-0.266 0.038,-0.514 0.113,-0.746c0.076,-0.232 0.189,-0.44 0.34,-0.625c0.151,-0.185 0.417,-0.387 0.797,-0.606l-3.836,0Zm5.851,0c-0.703,0 -1.28,0.153 -1.73,0.457c-0.451,0.305 -0.676,0.731 -0.676,1.278c0,0.5 0.199,0.916 0.598,1.25c0.398,0.333 0.996,0.5 1.793,0.5c0.927,0 1.571,-0.16 1.933,-0.481c0.362,-0.32 0.543,-0.735 0.543,-1.246c0,-0.328 -0.1,-0.633 -0.3,-0.914c-0.201,-0.281 -0.495,-0.492 -0.883,-0.633c-0.388,-0.14 -0.814,-0.211 -1.278,-0.211Z" style="fill:#231f20;fill-rule:nonzero;"/></g><g><path d="M59.402,248.257l0,1.125l-8.609,0l0,-2.399c0,-0.911 0.093,-1.556 0.281,-1.933c0.187,-0.378 0.461,-0.662 0.82,-0.852c0.36,-0.19 0.779,-0.285 1.258,-0.285c0.807,0 1.484,0.275 2.031,0.824c0.547,0.55 0.821,1.369 0.821,2.457l0,1.063l3.398,0Zm-4.258,0l0,-0.75c0,-0.995 -0.191,-1.649 -0.574,-1.961c-0.383,-0.313 -0.84,-0.469 -1.371,-0.469c-0.464,0 -0.836,0.127 -1.117,0.379c-0.282,0.253 -0.422,0.754 -0.422,1.504l0,1.297l3.484,0Z" style="fill:#231f20;fill-rule:nonzero;"/><path d="M57.808,237.459l0,-1.031l0.055,0c0.276,0 0.556,0.109 0.84,0.328c0.284,0.219 0.5,0.508 0.648,0.867c0.149,0.36 0.223,0.771 0.223,1.235c0,0.942 -0.305,1.67 -0.914,2.183c-0.61,0.513 -1.38,0.77 -2.313,0.77c-0.953,0 -1.743,-0.271 -2.371,-0.813c-0.627,-0.541 -0.941,-1.239 -0.941,-2.093c0,-0.469 0.101,-0.895 0.305,-1.278c0.203,-0.383 0.519,-0.685 0.949,-0.906c0.429,-0.221 1.03,-0.332 1.801,-0.332l0.343,0l0,4.398c0.662,0 1.207,-0.178 1.637,-0.535c0.43,-0.357 0.645,-0.85 0.645,-1.48c0,-0.453 -0.088,-0.785 -0.262,-0.996c-0.175,-0.211 -0.371,-0.317 -0.59,-0.317l-0.055,0Zm-2.148,3.266l0,-3.344l-0.125,0c-0.287,0 -0.567,0.069 -0.84,0.207c-0.273,0.138 -0.475,0.33 -0.605,0.574c-0.131,0.245 -0.196,0.529 -0.196,0.852c0,0.385 0.155,0.741 0.465,1.066c0.31,0.326 0.744,0.541 1.301,0.645Z" style="fill:#231f20;fill-rule:nonzero;"/><path d="M59.402,232.701l0,1.031l-6.195,0l0,-1.031l1.093,0c-0.317,-0.172 -0.562,-0.358 -0.734,-0.559c-0.172,-0.2 -0.303,-0.415 -0.394,-0.644c-0.092,-0.23 -0.137,-0.461 -0.137,-0.696c0,-0.213 0.031,-0.398 0.094,-0.554l1.07,0c-0.12,0.244 -0.18,0.502 -0.18,0.773c0,0.391 0.171,0.768 0.512,1.133c0.341,0.364 0.944,0.547 1.809,0.547l3.062,0Z" style="fill:#231f20;fill-rule:nonzero;"/><path d="M59.402,227.067l0,1.031l-8.953,0l0,-1.031l8.953,0Z" style="fill:#231f20;fill-rule:nonzero;"/><path d="M59.402,220.355c-0.333,0.11 -0.62,0.164 -0.859,0.164c0.448,0.454 0.731,0.839 0.851,1.157c0.12,0.317 0.18,0.625 0.18,0.922c0,0.489 -0.151,0.911 -0.453,1.265c-0.302,0.354 -0.716,0.531 -1.242,0.531c-0.599,0 -1.062,-0.248 -1.387,-0.746c-0.326,-0.497 -0.608,-1.355 -0.848,-2.574l-0.101,-0.555l-0.703,0c-0.381,0 -0.648,0.128 -0.801,0.383c-0.154,0.255 -0.231,0.563 -0.231,0.922c0,0.427 0.095,0.762 0.285,1.004c0.191,0.242 0.411,0.363 0.661,0.363l0.086,0l0,1.118l-0.079,0c-0.276,0 -0.56,-0.116 -0.851,-0.348c-0.292,-0.232 -0.512,-0.539 -0.66,-0.922c-0.149,-0.383 -0.223,-0.801 -0.223,-1.254c0,-0.453 0.07,-0.865 0.211,-1.234c0.141,-0.37 0.331,-0.64 0.57,-0.809c0.24,-0.169 0.688,-0.254 1.344,-0.254l2.406,0c0.266,0 0.543,-0.006 0.832,-0.019c0.289,-0.013 0.627,-0.08 1.012,-0.2l0,1.086Zm-3.125,0.164l0.07,0.313c0.256,1.047 0.499,1.716 0.731,2.008c0.232,0.291 0.506,0.437 0.824,0.437c0.161,0 0.313,-0.043 0.453,-0.129c0.141,-0.086 0.25,-0.214 0.328,-0.386c0.078,-0.172 0.117,-0.342 0.117,-0.508c0,-0.287 -0.084,-0.569 -0.253,-0.848c-0.17,-0.278 -0.395,-0.496 -0.676,-0.652c-0.281,-0.156 -0.61,-0.235 -0.985,-0.235l-0.609,0Z" style="fill:#231f20;fill-rule:nonzero;"/></g></g></g></g></g><defs><radialGradient id="_Radial2" cx="0" cy="0" r="1" gradientUnits="userSpaceOnUse" gradientTransform="matrix(160.773,0,0,147.652,141.738,127.683)"><stop offset="0" style="stop-color:#d3d2d2;stop-opacity:1"/><stop offset="0.33" style="stop-color:#d3d2d2;stop-opacity:1"/><stop offset="0.57" style="stop-color:#fff;stop-opacity:1"/><stop offset="0.78" style="stop-color:#fff;stop-opacity:1"/><stop offset="1" style="stop-color:#d3d2d2;stop-opacity:1"/></radialGradient><radialGradient id="_Radial3" cx="0" cy="0" r="1" gradientUnits="userSpaceOnUse" gradientTransform="matrix(54.5438,8.44593,-8.58071,55.4142,132.041,117.945)"><stop offset="0" style="stop-color:#fff;stop-opacity:1"/><stop offset="1" style="stop-color:#daebc1;stop-opacity:1"/></radialGradient></defs></svg>