<svg clip-rule="evenodd" fill-rule="evenodd" stroke-linecap="round" stroke-linejoin="round" viewBox="0 0 200 200" xmlns="http://www.w3.org/2000/svg"><g stroke="#000" stroke-linecap="butt" stroke-linejoin="round"><path d="m66.9069 84.746c.069.0944-3.4413.4234-4.046.522-2.6333.4291-5.2686.571-7.9235.9135-3.1615.4079-6.2617 1.0961-9.4407 1.4355-6.2171.6638-12.6207.3915-18.8815.3915-.627 0-8.9849-.0918-9.1035 0-.4945.3828-.0792 1.4731-.1686 1.9575-.5232 2.8349-.232 5.7755-.8429 8.6131-1.9363 8.9929-1.1216 18.3279-1.8545 27.4049-.1246 1.544-1.3731 9.719-.1685 10.963 1.5156 1.564 6.5276 1.305 8.5978 1.305 7.7659 0 15.4814.522 23.2646.522 26.0532 0 52.1523.188 78.2234-.653 7.833-.253 15.621.213 23.433-.391 8.489-.657 17.462-.768 25.962-.261 1.937.115 7.13 1.017 8.429-.392 1.305-1.413.711-3.853 1.012-5.481.315-1.708.188-3.494.337-5.22.296-3.442 1.073-6.873 1.517-10.31.867-6.712 2.731-13.836 1.855-20.6189-.791-6.1188-2.201-12.2504-2.698-18.4007-.703-8.7137 1.853-21.6904-9.609-27.0139-2.974-1.3813-6.934-2.5554-10.284-3.2625-8.78-1.8537-18.12-1.6965-27.142-1.6965-7.9 0-15.93.0465-23.77.9135-6.616.7316-13.368 1.8946-20.0617 2.2185-3.3386.1615-6.6113.2873-9.9465.522-4.5902.323-10.065-.4432-13.1496 2.7406-1.5859 1.6369-1.0115 4.7237-1.0115 6.6555 0 4.2297-.4251 8.4538-.8429 12.6587-.3735 3.7583-.6744 7.4403-.6744 11.2231 0 .6229-.0132 1.2259-.1685 1.8271-.1539.5955-1.207.4148-.843.9135z" fill="#ffc900"/><path d="m65.5583 122.584c-11.5529-5.776-22.5209 1.15-27.3107 12.138-1.1724 2.69-1.8981 5.815-1.1801 8.767 2.649 10.89 16.1787 16.517 26.1306 17.364 5.7768.492 11.2251-1.259 15.6783-5.058 5.216-4.449 8.4882-13.48 5.5633-20.061-2.3472-5.281-8.7178-10.992-13.9925-13.15-8.5564-3.5-17.2027-1.51-23.6018 4.889" fill="#100f13"/><path d="m155.077 117.527c-4.683-1.561-9.691.528-13.993 2.36-6.764 2.881-12.77 9.395-14.498 16.69-1.499 6.329.624 14.66 5.563 19.05 2.334 2.074 5.255 3.415 8.092 4.72 4.439 2.042 9.683 2.479 14.498 2.192 2.243-.134 7.969-1.441 9.947-2.36 4.887-2.272 10.058-5.917 12.812-10.79 5.557-9.831-3.012-20.756-11.126-25.625-4.245-2.547-8.901-2.909-13.824-3.54-9.875-1.266-20.194 1.206-26.468 9.272" fill="#100f13"/><path d="m73.9032 55.1505c.2984-.2388.5512-.606.9272-.6744.1659-.0301-.0105.3375 0 .5058.0457.7312.1078 1.4614.1686 2.1916.1268 1.5213.393 3.0293.5058 4.5518.3722 5.0247-.475 10.1604-1.6859 15.004-.1003.4014-.7383 4.9238-.3372 5.0575.6347.2116 3.4877-1.1871 4.2147-1.3487 2.4864-.5525 5.5626-.6533 8.092-.3371.618.0772 2.9012 1.3369 3.3717 1.1801.7016-.2339.6743-5.6999.6743-6.4062 0-4.5594-1.9721-9.2024-2.5287-13.6554-.1583-1.2662.9818-6.6341.8429-6.912-.2195-.4389-3.0316.4549-3.5403.5058-2.5618.2562-5.4018 0-7.9235 0-.9736 0-1.863-.1634-2.6973.3372-.3086.1851-1.1423.8739-.8429.6743.2815-.1877.4944-.463.7586-.6743z" fill="#57d9ff"/><path d="m107.789 81.8711c2.392-.4747 1.129-2.7161.927-5.1418-.407-4.8778-1.484-9.9681-2.866-14.6669-.541-1.8394-1.056-3.7164-1.517-5.5633-.055-.218-.201-.5738 0-.6743 1.522-.7609 5.992.1194 7.417.1686 1.212.0418 9.215-.3947 9.778.1686.48.4799-1.516 3.6388-1.686 4.2146-.867 2.9498-.638 5.5805-.337 8.5978.263 2.6226.621 5.3747 1.349 7.9235.135.4737 1.484 3.3031 1.349 3.7088-.189.5655-2.956.019-3.203 0-3.146-.242-6.015.311-9.104.6744-.413.0485-3.398.8462-2.107.59z" fill="#57d8ff"/><path d="m128.777 54.139c-.016-.0338 4.712.4647 5.901.5057 2.799.0965 9.531-.8819 11.969.3372.113.0562.194.2139.169.3371-.295 1.4746-1.395 2.7841-1.686 4.3832-.649 3.5705-.122 7.3885 1.012 10.7895.899 2.6982 1.907 5.4082 2.866 8.092.036.1014.787 1.6667.505 1.8544-.356.2376-5.522-.3873-6.574-.3371-.844.0402-1.687.1038-2.529.1686-3.54.2723-7.125.9345-10.621 1.5172-.629.1049-2.603.9062-3.203.5058-.18-.1199.325-1.733.337-1.8545.131-1.3081 0-2.739 0-4.046 0-5.0306.387-10.2766-1.011-15.1726-.239-.8349-.65-3.6965-1.686-4.2146" fill="#57d8ff"/><path d="m152.801 56.162c4.1-1.9683 9.805-.3394 14.245-.1686 1.167.0449 4.666-.6309 5.732.1686.288.2156-.327.6543-.337.6743-.344.6885-.337 1.6281-.337 2.3602 0 2.2322.129 4.5238.337 6.7434.302 3.2218.552 7.3078 1.854 10.2836.043.0976 2.14 3.482 2.023 3.5403-.527.2639-2.826-.9207-3.371-1.0115-1.988-.3313-4.036-.434-6.069-.3372-3.709.1766-7.299 1.1106-10.958 1.5173-.356.0395-2.35.5165-2.698.1686-.661-.6612-.039-3.4138 0-4.0461.23-3.6836.701-7.4292.506-11.1265-.08-1.5146-.378-3.2403-.674-4.7204-.14-.6992-1.302-2.45-1.18-3.0345.093-.4478.514-.8136.927-1.0115z" fill="#57d8ff"/><g fill="#575652"><path d="m73.4817 87.8559c-.5382-.2692-.2115-.1686-1.0115-.1686-.5057 0 1.0123.028 1.5173 0 .6197-.0345 1.2342-.1448 1.8544-.1686.8423-.0324 1.6864.0312 2.5288 0 4.3443-.1609 8.615-.8429 12.981-.8429"/><path d="m107.03 88.0244c1.247-.6234 5.144-.4216 6.238-.5057 3.123-.2402 6.292-.5058 9.44-.5058"/><path d="m128.777 87.6873c5.914 0 11.782-.8429 17.702-.8429"/><path d="m153.391 86.17c7.011 0 13.887-.6925 20.904-1.0115"/><path d="m18.6918 120.898c-.7533.377-1.5666.114-2.3602 0-2.4366-.348-6.058.821-7.24915 3.204-.73951 1.479-.84293 3.452-.84293 5.057 0 .305-.17878 4.875-.16858 4.889 1.46697 1.956 12.42936.674 14.66686.674 1.4256 0 2.9637-.142 4.3832 0 1.2974.13 3.1912 1.05 4.5518.506 3.1213-1.248 2.2743-6.247 1.8544-8.766-.1459-.876.3911-2.421 0-3.203-.2919-.584-1.1433-1.361-1.6858-1.686-4.1146-2.469-9.4084-1.017-13.824-.337-2.0932.322-4.3062-.338-6.4062-.338"/><path d="m181.46 122.837c1.508-.231 4.263-.726 5.479.084.985.657.506 3.442.506 4.384 0 .658.111 4.44-.337 4.889-.054.053-4.63 1.642-4.889 1.685-.167.028-.366.094-.506 0-.188-.125-.648-3.069-.674-3.203-.221-1.105-.337-2.246-.337-3.371 0-.778.097-4.367.758-4.468z"/></g><path d="m17.0059 93.672c-.0433.0217 2.8068-.2522 3.5403-.4214 2.2939-.5294 4.5338.1833 6.7434.6743.8569.1904 1.7688.3109 2.5287.8429 2.4927 1.7449 4.689 7.9832 2.5288 10.4522-3.386 3.87-8.7974 4.215-13.3182 4.215-.6244 0-3.5968.758-3.8774.337-.3459-.519.5867-2.927.6743-3.54.506-3.542.8397-6.8994 1.6859-10.2841.1259-.5038-.2538-2.4019-.5058-2.2759z" fill="#ffff1f"/></g></svg>