<?xml version="1.0" encoding="UTF-8" standalone="no"?> <!-- Created with Vectornator for iOS (http://vectornator.io/) --><!DOCTYPE svg PUBLIC "-//W3C//DTD SVG 1.1//EN" "http://www.w3.org/Graphics/SVG/1.1/DTD/svg11.dtd">
<svg style="fill-rule:evenodd;clip-rule:evenodd;stroke-linecap:round;stroke-linejoin:round;" xmlns:vectornator="http://vectornator.io" xmlns:xlink="http://www.w3.org/1999/xlink" xmlns="http://www.w3.org/2000/svg" xml:space="preserve" version="1.1" viewBox="0 0 200 200">
<metadata>
<vectornator:setting key="DisplayWhiteBackground" value="0"/>
<vectornator:setting key="RulersVisible" value="1"/>
<vectornator:setting key="SnapToEdges" value="0"/>
<vectornator:setting key="Units" value="Pixels"/>
<vectornator:setting key="New" value="1"/>
<vectornator:setting key="DynamicGuides" value="0"/>
<vectornator:setting key="SnapToPoints" value="0"/>
<vectornator:setting key="CMYKEnabledKey" value="0"/>
<vectornator:setting key="SnapToGrid" value="0"/>
<vectornator:setting key="SnapToGuides" value="1"/>
<vectornator:setting key="GridSpacing" value="36"/>
</metadata>
<defs/>
<g id="Layer 1" vectornator:layerName="Layer 1">
<g opacity="1">
<path stroke="#000000" stroke-width="1" d="M66.9069+84.746C66.9759+84.8404+63.4656+85.1694+62.8609+85.268C60.2276+85.6971+57.5923+85.839+54.9374+86.1815C51.7759+86.5894+48.6757+87.2776+45.4967+87.617C39.2796+88.2808+32.876+88.0085+26.6152+88.0085C25.9882+88.0085+17.6303+87.9167+17.5117+88.0085C17.0172+88.3913+17.4325+89.4816+17.3431+89.966C16.8199+92.8009+17.1111+95.7415+16.5002+98.5791C14.5639+107.572+15.3786+116.907+14.6457+125.984C14.5211+127.528+13.2726+135.703+14.4772+136.947C15.9928+138.511+21.0048+138.252+23.075+138.252C30.8409+138.252+38.5564+138.774+46.3396+138.774C72.3928+138.774+98.4919+138.962+124.563+138.121C132.396+137.868+140.184+138.334+147.996+137.73C156.485+137.073+165.458+136.962+173.958+137.469C175.895+137.584+181.088+138.486+182.387+137.077C183.692+135.664+183.098+133.224+183.399+131.596C183.714+129.888+183.587+128.102+183.736+126.376C184.032+122.934+184.809+119.503+185.253+116.066C186.12+109.354+187.984+102.23+187.108+95.4471C186.317+89.3283+184.907+83.1967+184.41+77.0464C183.707+68.3327+186.263+55.356+174.801+50.0325C171.827+48.6512+167.867+47.4771+164.517+46.77C155.737+44.9163+146.397+45.0735+137.375+45.0735C129.475+45.0735+121.445+45.12+113.605+45.987C106.989+46.7186+100.237+47.8816+93.5433+48.2055C90.2047+48.367+86.932+48.4928+83.5968+48.7275C79.0066+49.0505+73.5318+48.2843+70.4472+51.4681C68.8613+53.105+69.4357+56.1918+69.4357+58.1236C69.4357+62.3533+69.0106+66.5774+68.5928+70.7823C68.2193+74.5406+67.9184+78.2226+67.9184+82.0054C67.9184+82.6283+67.9052+83.2313+67.7499+83.8325C67.596+84.428+66.5429+84.2473+66.9069+84.746Z" fill="#ffc900" stroke-linecap="butt" opacity="1" stroke-linejoin="round"/>
<path stroke="#000000" stroke-width="1" d="M65.5583+122.584C54.0054+116.808+43.0374+123.734+38.2476+134.722C37.0752+137.412+36.3495+140.537+37.0675+143.489C39.7165+154.379+53.2462+160.006+63.1981+160.853C68.9749+161.345+74.4232+159.594+78.8764+155.795C84.0924+151.346+87.3646+142.315+84.4397+135.734C82.0925+130.453+75.7219+124.742+70.4472+122.584C61.8908+119.084+53.2445+121.074+46.8454+127.473" fill="#100f13" stroke-linecap="butt" opacity="1" stroke-linejoin="round"/>
<path stroke="#000000" stroke-width="1" d="M155.077+117.527C150.394+115.966+145.386+118.055+141.084+119.887C134.32+122.768+128.314+129.282+126.586+136.577C125.087+142.906+127.21+151.237+132.149+155.627C134.483+157.701+137.404+159.042+140.241+160.347C144.68+162.389+149.924+162.826+154.739+162.539C156.982+162.405+162.708+161.098+164.686+160.179C169.573+157.907+174.744+154.262+177.498+149.389C183.055+139.558+174.486+128.633+166.372+123.764C162.127+121.217+157.471+120.855+152.548+120.224C142.673+118.958+132.354+121.43+126.08+129.496" fill="#100f13" stroke-linecap="butt" opacity="1" stroke-linejoin="round"/>
<path stroke="#000000" stroke-width="1" d="M73.9032+55.1505C74.2016+54.9117+74.4544+54.5445+74.8304+54.4761C74.9963+54.446+74.8199+54.8136+74.8304+54.9819C74.8761+55.7131+74.9382+56.4433+74.999+57.1735C75.1258+58.6948+75.392+60.2028+75.5048+61.7253C75.877+66.75+75.0298+71.8857+73.8189+76.7293C73.7186+77.1307+73.0806+81.6531+73.4817+81.7868C74.1164+81.9984+76.9694+80.5997+77.6964+80.4381C80.1828+79.8856+83.259+79.7848+85.7884+80.101C86.4064+80.1782+88.6896+81.4379+89.1601+81.2811C89.8617+81.0472+89.8344+75.5812+89.8344+74.8749C89.8344+70.3155+87.8623+65.6725+87.3057+61.2195C87.1474+59.9533+88.2875+54.5854+88.1486+54.3075C87.9291+53.8686+85.117+54.7624+84.6083+54.8133C82.0465+55.0695+79.2065+54.8133+76.6848+54.8133C75.7112+54.8133+74.8218+54.6499+73.9875+55.1505C73.6789+55.3356+72.8452+56.0244+73.1446+55.8248C73.4261+55.6371+73.639+55.3618+73.9032+55.1505Z" fill="#57d9ff" stroke-linecap="butt" opacity="1" stroke-linejoin="round"/>
<path stroke="#000000" stroke-width="1" d="M107.789+81.8711C110.181+81.3964+108.918+79.155+108.716+76.7293C108.309+71.8515+107.232+66.7612+105.85+62.0624C105.309+60.223+104.794+58.346+104.333+56.4991C104.278+56.2811+104.132+55.9253+104.333+55.8248C105.855+55.0639+110.325+55.9442+111.75+55.9934C112.962+56.0352+120.965+55.5987+121.528+56.162C122.008+56.6419+120.012+59.8008+119.842+60.3766C118.975+63.3264+119.204+65.9571+119.505+68.9744C119.768+71.597+120.126+74.3491+120.854+76.8979C120.989+77.3716+122.338+80.201+122.203+80.6067C122.014+81.1722+119.247+80.6257+119+80.6067C115.854+80.3647+112.985+80.9177+109.896+81.2811C109.483+81.3296+106.498+82.1273+107.789+81.8711Z" fill="#57d8ff" stroke-linecap="butt" opacity="1" stroke-linejoin="round"/>
<path stroke="#000000" stroke-width="1" d="M128.777+54.139C128.761+54.1052+133.489+54.6037+134.678+54.6447C137.477+54.7412+144.209+53.7628+146.647+54.9819C146.76+55.0381+146.841+55.1958+146.816+55.319C146.521+56.7936+145.421+58.1031+145.13+59.7022C144.481+63.2727+145.008+67.0907+146.142+70.4917C147.041+73.1899+148.049+75.8999+149.008+78.5837C149.044+78.6851+149.795+80.2504+149.513+80.4381C149.157+80.6757+143.991+80.0508+142.939+80.101C142.095+80.1412+141.252+80.2048+140.41+80.2696C136.87+80.5419+133.285+81.2041+129.789+81.7868C129.16+81.8917+127.186+82.693+126.586+82.2926C126.406+82.1727+126.911+80.5596+126.923+80.4381C127.054+79.13+126.923+77.6991+126.923+76.3921C126.923+71.3615+127.31+66.1155+125.912+61.2195C125.673+60.3846+125.262+57.523+124.226+57.0049" fill="#57d8ff" stroke-linecap="butt" opacity="1" stroke-linejoin="round"/>
<path stroke="#000000" stroke-width="1" d="M152.801+56.162C156.901+54.1937+162.606+55.8226+167.046+55.9934C168.213+56.0383+171.712+55.3625+172.778+56.162C173.066+56.3776+172.451+56.8163+172.441+56.8363C172.097+57.5248+172.104+58.4644+172.104+59.1965C172.104+61.4287+172.233+63.7203+172.441+65.9399C172.743+69.1617+172.993+73.2477+174.295+76.2235C174.338+76.3211+176.435+79.7055+176.318+79.7638C175.791+80.0277+173.492+78.8431+172.947+78.7523C170.959+78.421+168.911+78.3183+166.878+78.4151C163.169+78.5917+159.579+79.5257+155.92+79.9324C155.564+79.9719+153.57+80.4489+153.222+80.101C152.561+79.4398+153.183+76.6872+153.222+76.0549C153.452+72.3713+153.923+68.6257+153.728+64.9284C153.648+63.4138+153.35+61.6881+153.054+60.208C152.914+59.5088+151.752+57.758+151.874+57.1735C151.967+56.7257+152.388+56.3599+152.801+56.162Z" fill="#57d8ff" stroke-linecap="butt" opacity="1" stroke-linejoin="round"/>
<path stroke="#000000" stroke-width="1" d="M73.4817+87.8559C72.9435+87.5867+73.2702+87.6873+72.4702+87.6873C71.9645+87.6873+73.4825+87.7153+73.9875+87.6873C74.6072+87.6528+75.2217+87.5425+75.8419+87.5187C76.6842+87.4863+77.5283+87.5499+78.3707+87.5187C82.715+87.3578+86.9857+86.6758+91.3517+86.6758" fill="#575652" stroke-linecap="butt" opacity="1" stroke-linejoin="round"/>
<path stroke="#000000" stroke-width="1" d="M107.03+88.0244C108.277+87.401+112.174+87.6028+113.268+87.5187C116.391+87.2785+119.56+87.0129+122.708+87.0129" fill="#575652" stroke-linecap="butt" opacity="1" stroke-linejoin="round"/>
<path stroke="#000000" stroke-width="1" d="M128.777+87.6873C134.691+87.6873+140.559+86.8444+146.479+86.8444" fill="#575652" stroke-linecap="butt" opacity="1" stroke-linejoin="round"/>
<path stroke="#000000" stroke-width="1" d="M153.391+86.17C160.402+86.17+167.278+85.4775+174.295+85.1585" fill="#575652" stroke-linecap="butt" opacity="1" stroke-linejoin="round"/>
<path stroke="#000000" stroke-width="1" d="M18.6918+120.898C17.9385+121.275+17.1252+121.012+16.3316+120.898C13.895+120.55+10.2736+121.719+9.08245+124.102C8.34294+125.581+8.23952+127.554+8.23952+129.159C8.23952+129.464+8.06074+134.034+8.07094+134.048C9.53791+136.004+20.5003+134.722+22.7378+134.722C24.1634+134.722+25.7015+134.58+27.121+134.722C28.4184+134.852+30.3122+135.772+31.6728+135.228C34.7941+133.98+33.9471+128.981+33.5272+126.462C33.3813+125.586+33.9183+124.041+33.5272+123.259C33.2353+122.675+32.3839+121.898+31.8414+121.573C27.7268+119.104+22.433+120.556+18.0174+121.236C15.9242+121.558+13.7112+120.898+11.6112+120.898" fill="#575652" stroke-linecap="butt" opacity="1" stroke-linejoin="round"/>
<path stroke="#000000" stroke-width="1" d="M181.46+122.837C182.968+122.606+185.723+122.111+186.939+122.921C187.924+123.578+187.445+126.363+187.445+127.305C187.445+127.963+187.556+131.745+187.108+132.194C187.054+132.247+182.478+133.836+182.219+133.879C182.052+133.907+181.853+133.973+181.713+133.879C181.525+133.754+181.065+130.81+181.039+130.676C180.818+129.571+180.702+128.43+180.702+127.305C180.702+126.527+180.799+122.938+181.46+122.837Z" fill="#575652" stroke-linecap="butt" opacity="1" stroke-linejoin="round"/>
<path stroke="#000000" stroke-width="1" d="M17.0059+93.672C16.9626+93.6937+19.8127+93.4198+20.5462+93.2506C22.8401+92.7212+25.08+93.4339+27.2896+93.9249C28.1465+94.1153+29.0584+94.2358+29.8183+94.7678C32.311+96.5127+34.5073+102.751+32.3471+105.22C28.9611+109.09+23.5497+109.435+19.0289+109.435C18.4045+109.435+15.4321+110.193+15.1515+109.772C14.8056+109.253+15.7382+106.845+15.8258+106.232C16.3318+102.69+16.6655+99.3326+17.5117+95.9479C17.6376+95.4441+17.2579+93.546+17.0059+93.672Z" fill="#ffff1f" stroke-linecap="butt" opacity="1" stroke-linejoin="round"/>
</g>
</g>
</svg>
