<svg clip-rule="evenodd" fill-rule="evenodd" stroke-linecap="round" stroke-linejoin="round" viewBox="0 0 200 200" xmlns="http://www.w3.org/2000/svg"><g stroke="#000" stroke-linecap="butt" stroke-linejoin="round"><path d="m86.2739 31.0075c27.0461-22.33704 28.1861-10.1662 29.1541-5.8819.348 1.5357.158 3.423 1.135 4.7942.747 1.0479 1.569 2.2846 2.406 3.1644.592.622 2.436.0802 2.652 1.304.232 1.3102-1.139 2.1115-1.916 2.8592-1.013.9755-2.487 2.5944-2.766 4.0839-.293 1.5619-7.481 1.0239-9.809 5.6177-1.534 3.0282-6.42 10.5705-6.42 10.5705" fill="#ffbe89"/><path d="m148.24 132.899c.114-.228.149-1.002.149-.748 0 3.334-.598 6.655-.598 10.023 0 4.177.536 8.665 1.347 12.717.151.757.345 2.803-.599 2.992-2.132.427-4.41.463-6.583.898-.573.114-2.521 1.015-2.992.897-.216-.054-.149-.696-.149-.748 0-1.833-.121-3.433-.449-5.236-.689-3.788-.429-7.657-1.047-11.37-.287-1.718-1.511-3.861-.599-5.685" fill="#ffbe89"/><g><path d="m116.554 79.8631c-.206-.1961-.458-.3423-.651-.5516-.151-.1642.417.1777.585.3242.4.3484.793.7066 1.152 1.097.831.9043 1.476 2.0031 2.271 2.9412 2.052 2.4209 4.26 4.6525 6.286 7.1541 1.826 2.2545 3.04 4.2907 4.505 6.7792.671 1.1399 1.799 1.8815 2.57 2.9538 1.98 2.751 3.937 5.536 6.105 7.895.516.562 1.384 2.863 1.193 3.644-.124.509-1.279 1.579-.836 2.061 1.522 1.657 3.546-.194 4.84-1.142 1.83-1.342 3.639-4.267 3.274-6.6-.164-1.052-1.815-1.165-2.315-1.895-1.321-1.926-3.054-3.448-4.412-5.4277-2.647-3.8586-4.866-7.9049-7.435-11.8446-.487-.7457-1.246-1.2523-1.712-2.0191-1.036-1.7069-1.733-3.6062-3.079-5.0718-2.083-2.2668-3.458-5.171-5.526-7.4214-.311-.3378-.986-1.9883-1.413-2.0064-2.074-.0878-4.463 2.5898-5.993 3.6396-.503.3445-2.28.7875-2.312 1.5493-.045 1.0515 1.434 2.5802 2.109 3.2338.28.2708.602.4985.865.7853.143.1558.573.6232.43.4674-.167-.1818-.323-.375-.501-.5453z" fill="#ffbe89"/><path d="m107.6 75.2368c-.151-.0836-1.027-.4918-1.021-.6422.003-.0602 1.769 1.579 1.874 1.7264.681.9575 1.112 2.1851 1.661 3.2149.084.1587 1.825 3.9059 2.083 3.8317 1.555-.4462 5.183-4.651 6.388-5.869 1.723-1.7408 3.832-2.4239 5.845-3.6459.486-.2956 3.529-4.0035 3.939-4.6249 1.121-1.7008-.791-2.5188-1.947-3.5265-2.537-2.2119-6.405-2.3131-8.305-5.4426" fill="#ffc0ff"/><path d="m111.782 75.5645c3.294.4063-1.3 2.9594-3.62 2.3924-2.707-.6617-4.149-2.7818-5.322-5.1667-2.569-5.2245-2.8703-18.2959 4.865-19.4101 5.772-.8313 14.604 4.8779 12.991 11.4809-.208.8483-1.462 1.382-2.032 2.0104-1.797 1.9802-3.679 3.6675-5.621 5.4522-1.285 1.1801-3.786 2.9295-1.261 3.2409z" fill="#fbf"/></g><path d="m85.7045 153.694c-.2934-.587-1.22.783-1.4961 1.197-1.7381 2.607-2.4484 5.291-4.7874 7.63-3.4473 3.447-6.7472 7.169-9.874 10.921-.172.207-2.089 2.848-1.9449 2.992.1058.106.3099.056.4488 0 1.531-.612 3.8399-.04 5.5354.299 1.2586.252 3.9315 1.121 5.2363.599 1.8339-.734 4.7816-7.258 5.9842-8.976 1.5472-2.211 2.8433-4.49 4.3386-6.733.873-1.309 2.0709-2.351 2.8425-3.74 1.7007-3.061 3.0863-6.378 5.5355-8.827" fill="#ffbe89"/><path d="m139.488 160.052c.141-.836 2.019-1.121 2.768-1.421 2.324-.93 5.035-.825 7.48-1.047 3.971-.361 10.449-1.116 13.764 1.646 1.783 1.486 3.242 4.753 1.645 6.881-1.124 1.5-4.062 1.496-5.685 1.496-4.771 0-9.544-.679-14.212-1.346-1.105-.158-5.043.538-5.685-.748-.683-1.366-.356-3.797-.075-5.461z" fill="#3f8bac"/><path d="m140.122 158.47c-1.261 2.521 6.384 4.137 7.779 1.346.311-.621-.914-2.576-1.197-3.141" fill="#ffbe89"/><path d="m68.3501 176.584c-.3795 1.518-1.5837 2.827-1.3464 4.488.8775 6.143 12.8474 5.236 17.0551 5.236 1.5347 0 8.8648-2.135 9.126-3.441.843-4.215-6.2447-5.039-8.8268-5.685-1.9297-.482-4.295-.149-6.2835-.149" fill="#3f8bac"/><path d="m69.8026 175.101c-1.0946-.386-1.847 3.91-.8541 4.61.7751.547 2.5258.875 3.5906.951 4.0784.287 5.3985-2.132 5.3985-4.361" fill="#ffbe89"/><path d="m93.3344 95.9461c1.2102-3.6306.5984-8.0379.5984-11.8189 0-3.367.3707-6.9865 0-10.3229-.2449-2.2045.2185-4.6733-.1496-6.8818-.064-.384-.4652-.7819-.2992-1.1969.333-.8325 3.5049-1.1564 4.189-1.3465 3.212-.8921 6.491-1.4356 9.724-2.244 2.108-.5269 4.412-.6874 6.433-1.4961.465-.1859 1.551-1.0337 2.095-.8976.47.1175.022 2.1487 0 2.3937-.18 1.9841-.299 3.9841-.299 5.9842 0 5.6934-.484 11.5082.149 17.2047.318 2.8552-.426 6.0293.898 8.6772" fill="#ffd0ff"/><path d="m102.311 93.2532c2.797 1.3988 7.068.2955 10.023 0 .403-.0403 2.47-.497 2.843 0 .095.1261-.091.3024-.15.4488-.597 1.4941-.748 2.8821-.748 4.4882 0 .6588 1.195 3.5918.748 4.0398-.105.105-.301.024-.449 0-2.485-.415-4.983-.931-7.48-1.347-1.887-.314-4.542-.473-6.433 0-.9628.241-1.6224 1.047-2.5432 1.047-.0479 0-3.4337-4.4133-3.5906-4.6375-.2728-.3897-2.3937-2.0603-2.3937-2.3937 0-.2961 2.9378-.1326 3.1418-.1496 1.4878-.124 2.8974-.3877 4.3385-.748 2.1102-.5274 4.1242-.5984 6.2832-.5984" fill="#ffc9ff"/><path d="m114.279 102.978c3.133 0 5.531 1.112 8.528 1.944 5.311 1.476 10.803 2.552 16.157 3.89 1.814.454 7.768 1.631 8.977 3.142 1.092 1.366 1.685 7.692 1.945 9.425.14.936 1.53 7.424 1.047 8.228-.736 1.227-2.745 1.989-3.89 2.693-4.295 2.644-8.947 2.811-13.465 4.788-14.155 6.193-28.804 11.203-43.8342 14.96-5.2876 1.322-16.3068 3.94-21.8425 2.095-1.269-.423-1.3746-2.524-1.1968-3.591.5354-3.212 2.7758-6.685 4.4881-9.425 2.2608-3.617 3.3697-7.302 4.9371-11.22 1.0486-2.622 2.7215-4.991 4.0393-7.481.9234-1.744 1.5134-3.625 2.3937-5.385 1.4679-2.936 3.4485-5.398 5.2362-8.079 1.0618-1.593 7.0207-8.182 9.126-7.48" fill="#b6ffff"/><g><path d="m86.6981 68.206c.1872-.2139.3226-.4722.5236-.6732.1577-.1577-.1599.4243-.2992.5984-.3312.414-.6724.822-1.0472 1.1969-.8684.8683-1.939 1.5596-2.8426 2.3937-2.3319 2.1525-4.4682 4.453-6.8819 6.5826-2.1753 1.9194-4.1583 3.2187-6.5826 4.7874-1.1105.7186-1.8038 1.8768-2.8426 2.6929-2.6651 2.0941-5.3647 4.1679-7.6299 6.4331-.5391.5391-2.8019 1.5042-3.5905 1.3465-.5138-.1028-1.631-1.2116-2.0945-.7481-1.5904 1.5904.3438 3.5342 1.3464 4.7874 1.4175 1.7718 4.4163 3.4554 6.7323 2.9924 1.044-.209 1.0873-1.863 1.7953-2.3939 1.8682-1.4012 3.3153-3.1972 5.2362-4.6378 3.7433-2.8075 7.6922-5.1952 11.5197-7.9292.7244-.5174 1.1985-1.2976 1.9449-1.7952 1.6616-1.1078 3.5297-1.8841 4.937-3.2914 2.1768-2.1768 5.0202-3.6737 7.1811-5.8346.3244-.3245 1.9449-1.0693 1.9449-1.4961 0-2.0759-2.7762-4.3499-3.8898-5.8346-.3654-.4873-.8832-2.2441-1.6457-2.2441-1.0524 0-2.5173 1.5416-3.1417 2.2441-.2587.2911-.4726.6222-.748.8976-.1496.1496-.5984.5984-.4488.4488.1745-.1745.361-.3378.5236-.5236z" fill="#ffbe89"/><path d="m90.9417 59.0648c.0771-.1543.4479-1.0472.5984-1.0472.0603 0-1.5028 1.8337-1.6457 1.9449-.9278.7216-2.136 1.2036-3.1417 1.7952-.155.0912-3.8252 1.989-3.7402 2.2441.5116 1.5347 4.866 4.9813 6.1339 6.1339 1.8121 1.6473 2.5837 3.726 3.8898 5.685.3159.4739 4.1492 3.3573 4.7874 3.7402 1.7466 1.048 2.4834-.8971 3.4404-2.0945 2.103-2.6284 2.041-6.4967 5.087-8.5276" fill="#ffc0ff"/><path d="m90.7911 63.2571c-.2666 3.3078-3.0117-1.1739-2.5433-3.5157.5465-2.733 2.6038-4.2628 4.937-5.5355 5.1112-2.7879 18.1582-3.6418 19.5982 4.0394 1.075 5.7318-4.256 14.7976-10.921 13.4646-.856-.1713-1.443-1.4017-2.0946-1.9449-2.0544-1.7121-3.8197-3.5206-5.685-5.3859-1.2334-1.2333-3.0869-3.6579-3.2913-1.122z" fill="#fbf"/></g><path d="m106.673 12.0335c.871-2.70828-5.177-1.1408-6.446-1.0943-5.3307.1951-10.2384 1.0616-14.6812 4.8316-.3682.3124-4.0338 2.6127-3.7146 4.4069.2432 1.3665 3.9548 2.6149 3.2582 3.8638-2.2678 4.066-7.0538 5.1044-9.1504 9.6469-1.6491 3.5727 1.1916 4.9293.4086 6.8932-1.0706 2.6851-5.3041 4.4922-7.0194 6.5194-2.6868 3.1753-.2203 4.3191-.9658 6.0644-.8773 2.0538-3.4805 3.8824-3.7232 6.3287-.0933.9407.5945 1.5686.288 2.6034-.3472 1.1719-1.5947 2.8471-.577 3.9808 2.0487 2.2823 7.3136 1.1783 9.9221.9282.6232-.0597 1.2514-1.1464 1.7841-1.4656 2.6084-1.5629 5.2755-3.2776 7.9299-4.6856 6.4791-3.4367 6.5292-5.3269 13.1778-8.155 2.0451-.87 8.3279-5.202 9.1739-7.8319 1.324-4.1175 5.636-4.6705 5.801-9.0121.408-10.7148 3.876-21.0611-6.556-25.6811-1.662-.73603-2.746-.87934-4.491-.61355" fill="#af5300"/></g></svg>