<?xml version="1.0" encoding="utf-8"?>
<!-- Generator: Adobe Illustrator 24.2.1, SVG Export Plug-In . SVG Version: 6.00 Build 0)  -->
<svg version="1.1" xmlns="http://www.w3.org/2000/svg" xmlns:xlink="http://www.w3.org/1999/xlink" x="0px" y="0px"
	 viewBox="0 0 48.19 48.19" style="enable-background:new 0 0 48.19 48.19;" xml:space="preserve">
<style type="text/css">
	.st0{fill:#D1E3FF;}
	.st1{fill:#923944;}
	.st2{fill:#B7616C;}
	.st3{fill:#FFEDDE;}
	.st4{fill:#FFFFFF;}
	.st5{fill:#FF9966;}
	.st6{opacity:0.5;fill:#FFFFFF;}
	.st7{fill:#FFC807;}
	.st8{fill:#F0F0F0;}
	.st9{fill:#FFEDA2;}
	.st10{opacity:0.1;}
	.st11{opacity:0.2;fill:#FFFFFF;}
	.st12{fill:#00CBF0;}
	.st13{fill:#222221;}
	.st14{fill:#FFFF66;}
	.st15{fill:#6633FF;}
	.st16{fill:#FF9900;}
	.st17{fill:#FF7876;}
	.st18{fill:#FF78C3;}
	.st19{fill:#DCA756;}
	.st20{fill:#FBF298;}
	.st21{fill:#BF5135;}
	.st22{fill:#CF8531;}
	.st23{fill:#CFB780;}
	.st24{fill:#B71C32;}
	.st25{fill:#252723;}
	.st26{fill:#E8CAD8;}
	.st27{fill:#C25673;}
	.st28{fill:#DCA9C0;}
	.st29{fill:#C87080;}
	.st30{fill:#B3D6F1;}
	.st31{fill:#009FDF;}
	.st32{fill:#D4B76D;}
	.st33{fill:#AC8E64;}
	.st34{fill:#CCA351;}
	.st35{fill:#91714C;}
	.st36{fill:#9BA9CE;}
	.st37{fill:#7B82B1;}
	.st38{fill:#E6C27F;}
	.st39{fill:#D79B5F;}
	.st40{fill:#D1B699;}
	.st41{fill:#E2B64C;}
	.st42{fill:#DAA148;}
	.st43{fill:#99BA48;}
	.st44{fill:#F0E649;}
	.st45{fill:#BB1D6C;}
	.st46{fill:#DBA549;}
	.st47{fill:#F0D33B;}
	.st48{fill-rule:evenodd;clip-rule:evenodd;fill:#252723;}
	.st49{fill-rule:evenodd;clip-rule:evenodd;fill:#B71C32;}
	.st50{fill-rule:evenodd;clip-rule:evenodd;fill:#FFFFFF;}
	.st51{fill-rule:evenodd;clip-rule:evenodd;fill:url(#SVGID_1_);}
	.st52{fill-rule:evenodd;clip-rule:evenodd;fill:url(#SVGID_2_);}
	.st53{fill-rule:evenodd;clip-rule:evenodd;fill:url(#SVGID_3_);}
	.st54{fill-rule:evenodd;clip-rule:evenodd;fill:#C6684D;}
	.st55{opacity:0.5;fill-rule:evenodd;clip-rule:evenodd;fill:#FFFFFF;}
	.st56{opacity:0.3;fill-rule:evenodd;clip-rule:evenodd;fill:#252723;}
	.st57{fill-rule:evenodd;clip-rule:evenodd;fill:#767473;}
	.st58{fill-rule:evenodd;clip-rule:evenodd;fill:url(#SVGID_4_);}
	.st59{fill-rule:evenodd;clip-rule:evenodd;fill:#9B9998;}
	.st60{fill-rule:evenodd;clip-rule:evenodd;fill:#46433F;}
	.st61{fill-rule:evenodd;clip-rule:evenodd;fill:#A1A6A1;}
	.st62{fill-rule:evenodd;clip-rule:evenodd;fill:#D0D3D3;}
	.st63{opacity:0.3;fill-rule:evenodd;clip-rule:evenodd;fill:#FFFFFF;}
	.st64{fill:url(#SVGID_5_);}
	.st65{fill:url(#SVGID_6_);}
	.st66{fill:url(#SVGID_7_);}
	.st67{fill:url(#SVGID_8_);}
	.st68{fill:url(#SVGID_9_);}
	.st69{fill:url(#SVGID_10_);}
	.st70{fill:url(#SVGID_11_);}
	.st71{fill:url(#SVGID_12_);}
	.st72{fill:url(#SVGID_13_);}
	.st73{opacity:0.8;fill:#FFFFFF;}
	.st74{fill:url(#SVGID_14_);}
	.st75{fill:url(#SVGID_15_);}
	.st76{fill:url(#SVGID_16_);}
	.st77{fill:url(#SVGID_17_);}
	.st78{fill:url(#SVGID_18_);}
	.st79{fill:url(#SVGID_19_);}
	.st80{fill:url(#SVGID_20_);}
	.st81{fill:url(#SVGID_21_);}
	.st82{fill:url(#SVGID_22_);}
	.st83{fill:url(#SVGID_23_);}
	.st84{fill:url(#SVGID_24_);}
	.st85{fill:url(#SVGID_25_);}
	.st86{fill:#BFD8C9;}
	.st87{fill-rule:evenodd;clip-rule:evenodd;fill:url(#SVGID_26_);}
	.st88{fill-rule:evenodd;clip-rule:evenodd;fill:url(#SVGID_27_);}
	.st89{fill-rule:evenodd;clip-rule:evenodd;fill:url(#SVGID_28_);}
	.st90{fill-rule:evenodd;clip-rule:evenodd;fill:url(#SVGID_29_);}
	.st91{fill-rule:evenodd;clip-rule:evenodd;fill:url(#SVGID_30_);}
	.st92{fill-rule:evenodd;clip-rule:evenodd;fill:#7C9463;}
	.st93{fill-rule:evenodd;clip-rule:evenodd;fill:url(#SVGID_31_);}
	.st94{fill-rule:evenodd;clip-rule:evenodd;fill:url(#SVGID_32_);}
	.st95{fill-rule:evenodd;clip-rule:evenodd;fill:url(#SVGID_33_);}
	.st96{fill-rule:evenodd;clip-rule:evenodd;fill:url(#SVGID_34_);}
	.st97{fill-rule:evenodd;clip-rule:evenodd;fill:url(#SVGID_35_);}
	.st98{fill-rule:evenodd;clip-rule:evenodd;fill:url(#SVGID_36_);}
	.st99{fill-rule:evenodd;clip-rule:evenodd;fill:#588949;}
	.st100{fill-rule:evenodd;clip-rule:evenodd;fill:url(#SVGID_37_);}
	.st101{fill-rule:evenodd;clip-rule:evenodd;fill:url(#SVGID_38_);}
	.st102{fill-rule:evenodd;clip-rule:evenodd;fill:#445D33;}
	.st103{fill-rule:evenodd;clip-rule:evenodd;fill:#AF8B50;}
	.st104{fill-rule:evenodd;clip-rule:evenodd;fill:#997545;}
	.st105{fill-rule:evenodd;clip-rule:evenodd;fill:#F0D984;}
	.st106{fill-rule:evenodd;clip-rule:evenodd;fill:#BB3C39;}
	.st107{fill-rule:evenodd;clip-rule:evenodd;fill:#921B31;}
	.st108{fill-rule:evenodd;clip-rule:evenodd;fill:#299254;}
	.st109{fill-rule:evenodd;clip-rule:evenodd;fill:#EAC75A;}
	.st110{opacity:0.74;fill-rule:evenodd;clip-rule:evenodd;fill:#FFFFFF;}
	.st111{opacity:0.37;fill-rule:evenodd;clip-rule:evenodd;fill:#9D7433;}
	.st112{fill:#CE823D;}
	.st113{fill:#D99E41;}
	.st114{fill:#EEF8FF;}
	.st115{fill:#F2DA5E;}
	.st116{fill:none;stroke:#252723;stroke-width:0.4411;stroke-miterlimit:10;}
	.st117{fill:none;stroke:#4B6CA3;stroke-width:0.4411;stroke-linecap:round;stroke-linejoin:round;}
	.st118{fill:#4B6CA3;}
	.st119{fill:none;stroke:#4B6CA3;stroke-width:0.6617;stroke-linecap:round;stroke-linejoin:round;stroke-miterlimit:10;}
	.st120{fill:#F1D86A;}
	.st121{fill:#E1D7B4;}
	.st122{fill:#F1D86A;stroke:#252723;stroke-width:0.125;stroke-miterlimit:10;}
	.st123{fill:#93AAAF;}
	.st124{fill:#00CC66;}
	.st125{fill:#FF66CC;}
	.st126{fill:#FF6600;}
	.st127{fill:#CC3300;}
	.st128{fill:#9544E2;}
	.st129{opacity:0.3;fill:#FFFFFF;}
</style>
<g id="Capa_2">
</g>
<g id="Capa_1">
	<g>
		<path class="st103" d="M38.79,15.35c-0.6,1.04-1.47,1.82-2.54,1.47c-0.67-0.03-2.58-1.39-2.51-1.78c-0.42-0.61-2.77-1.1-3.14-1.01
			c-1,0.24-4.74,0.33-5.29-0.42c-2.57-0.57-2.65,0.15-4.51,0.87c-2.2,0.86-2.58-0.45-3.99,0.31c-3.35,1.81-2.47,2.79-3.1,3.01
			c-1.01,0.36-1.52-0.97-1.64-1.41c-0.48-0.24-1.21-0.33-1.66-0.61c-0.07-1.27,0.87-2.43,1.77-3.21c1.89-1.63,5.26-3.14,8.74-3.68
			c2.2-0.34,4.79-0.27,6.93-0.24c3.56,0.05,7.09,1.06,9.12,2.52C38.14,12,39.75,13.68,38.79,15.35z"/>
		<path class="st104" d="M30.7,8.78c0.06,0.43,1.19,0.71,1.55,0.81c0.66,0.19,1.3,0.38,1.92,0.64c0.48,0.2,2.75,1.75,2.78,2.77
			c0.02,0.64-0.58,1.06-1.39,0.97c-0.83-0.09-3.59-1-4.71-1.22c-0.47-0.09-4.96-0.62-7.98-0.15c-3.33,0.52-3.71,1.2-5.37,1.78
			c-0.18,0.06,1.14,0.44,2.55,0.27c0.84-0.1,1.79-0.71,2.24-0.85c1.53-0.47,2.47-0.25,2.81-0.1c0.42,0.18,0.96,0.32,1.44,0.35
			c0.31,0.09,4.71,0.04,6.01,0.56c0.59,0.23,3.26,2.26,4.02,2.22c0.4-0.02,2.04-0.63,2.28-1.47c0.19-0.66,0.42-1.82,0.29-2.24
			c-0.18-0.61-0.68-1.11-1.16-1.54c-0.5-0.45-1.48-1.04-2.09-1.34c-1.01-0.49-1.31-0.6-2.22-0.83C32.95,9.24,32.65,9,31.89,8.98
			c-0.4-0.01-0.8-0.2-1.19-0.13"/>
		<path class="st105" d="M36.05,17.1c-0.44,1.6-0.8,3.27-1.42,4.73c-0.84,0.43-0.83,1.49-1.41,2.28c-0.64,0.86-1.67,1.59-1.75,3
			c-0.03,0.49,0.25,1,0.21,1.48c-0.14,1.66-0.89,3.11-1.45,4.38c-0.33,0.75-0.51,1.4-0.94,1.98c-0.57,0.78-1.57,1.46-1.99,2.49
			c-0.29,0.71-0.18,1.56-0.83,2.15c-1.1,0.21-1.69-0.8-2.19-1.45c-0.46-0.58-1.21-1.31-1.54-2.01c-0.39-0.81-0.3-1.78-0.7-2.59
			c-0.53-1.09-2.35-2.23-2.86-3.6c-0.2-0.55-0.03-1.02-0.32-1.56c0.79-2.13,0.41-4.04-1.39-5.17c-0.18-0.11-0.46-0.11-0.61-0.23
			c-0.17-0.12-0.16-0.39-0.34-0.51c-0.34-0.22-0.81-0.21-1.13-0.55c-0.8-0.83-1.78-3.33-1.25-4.66c0.3-0.76,2.19-2.54,3.46-2.66
			c0.63-0.06,1.22,0.36,2.01,0.32c1.75-0.09,3.09-1.76,5.17-1.19c0.33,0.09,0.47,0.37,0.73,0.48c1.61,0.72,3.53-0.06,5.27,0.12
			C32.99,14.58,33.82,15.95,36.05,17.1z M24.04,17.03c-0.21-0.1-1.13-0.13-1.41-0.27c-0.16-0.08-0.03-0.24-0.12-0.26
			c-0.51-0.1-1.75,0.07-2.26,0.31c-0.87,0.4-1.61,1.65-1.6,2.38c0.03,3.26,6.18,3.23,6.87,0.37C25.27,18.48,24.97,17.48,24.04,17.03
			z M31.59,19.64c-0.6-1.08-3.25-1.5-4.1-0.45c-1.65,2.01,0.81,4.52,3.42,3.12C31.52,21.51,32.1,20.56,31.59,19.64z M25.33,23.44
			c-0.17-0.99-1.27-0.72-2-0.14c0.05,0.6-0.14,1.07,0.31,1.38C24.89,24.75,25.45,24.13,25.33,23.44z M26.1,24.36
			c0.72,0.44,1.98-0.49,1.2-1.21C26.3,23.09,26.04,23.6,26.1,24.36z M27.21,25.87c-0.1-1.14-2.56-0.7-1.82,0.81
			C26.11,26.92,27.26,26.52,27.21,25.87z M21.01,27.9c-0.57,2,2.47,0.78,1.17-0.33C21.64,27.57,21.42,27.81,21.01,27.9z
			 M23.92,28.25c-2.43,1.25-1.93,5.85,1.73,5.77c1.63-0.04,2.91-1.11,3.31-2.13c0.63-1.63-0.14-3.6-1.98-3.82
			c-0.56-0.07-2.27,0.2-2.57,0.07C24.13,28.18,24.09,28.17,23.92,28.25z"/>
		<path class="st48" d="M25.53,19.57c-0.7,2.85-6.84,2.89-6.87-0.37c-0.01-0.73,0.73-1.97,1.6-2.38c0.51-0.24,1.75-0.41,2.26-0.31
			c0.08,0.02-0.04,0.18,0.12,0.26c0.28,0.13,1.2,0.16,1.41,0.27C24.97,17.48,25.27,18.48,25.53,19.57z M19.47,18.18
			c-0.05,0.06-0.4,0.74-0.42,0.99c-0.19,2.89,5.53,2.88,5.98,0.34c0.28-1.56-1.25-2.7-3.55-2.33
			C20.66,17.32,19.76,17.84,19.47,18.18z"/>
		<path class="st106" d="M21.48,17.18c2.3-0.37,3.83,0.77,3.55,2.33c-0.45,2.54-6.17,2.55-5.98-0.34c0.02-0.25,0.37-0.93,0.42-0.99
			C19.76,17.84,20.66,17.32,21.48,17.18z"/>
		<path class="st48" d="M30.9,22.31c-2.61,1.39-5.06-1.11-3.42-3.12c0.86-1.05,3.51-0.62,4.1,0.45
			C32.1,20.56,31.52,21.51,30.9,22.31z M27.47,21.64c0.99,1.45,4.55,0.56,3.95-1.55c-0.23-0.82-1.59-1.38-2.57-1.16
			C27.56,19.22,26.74,20.57,27.47,21.64z"/>
		<path class="st106" d="M28.85,18.93c0.98-0.22,2.34,0.34,2.57,1.16c0.6,2.11-2.96,3.01-3.95,1.55
			C26.74,20.57,27.56,19.22,28.85,18.93z"/>
		<path class="st48" d="M23.64,24.68c-0.44-0.32-0.26-0.78-0.31-1.38c0.73-0.58,1.82-0.85,2,0.14
			C25.45,24.13,24.89,24.75,23.64,24.68z M25.14,23.54c-0.05-0.66-1.09-0.75-1.29-0.01c-0.03-0.07-0.02-0.17-0.11-0.17
			C22.95,24.87,25.21,24.41,25.14,23.54z"/>
		<path class="st107" d="M16.79,23.34c1.94,0.25,2.72,3.23,1.56,4.73C17.46,26.66,17.32,25.03,16.79,23.34z"/>
		<path class="st108" d="M23.74,23.36c0.1,0,0.08,0.1,0.11,0.17c0.2-0.74,1.24-0.65,1.29,0.01C25.21,24.41,22.95,24.87,23.74,23.36z
			"/>
		<path class="st48" d="M27.29,23.14c0.79,0.72-0.48,1.65-1.2,1.21C26.04,23.6,26.3,23.09,27.29,23.14z M26.44,23.72
			c0.15,0.01,0.11,0.21,0.13,0.34c0.46,0.02,0.55-0.23,0.55-0.56C26.87,23.44,26.56,23.47,26.44,23.72z"/>
		<path class="st49" d="M27.12,23.5c0,0.32-0.1,0.58-0.55,0.56c-0.02-0.14,0.02-0.34-0.13-0.34C26.56,23.47,26.87,23.44,27.12,23.5z
			"/>
		<path class="st48" d="M25.38,26.68c-0.74-1.51,1.73-1.95,1.82-0.81C27.26,26.52,26.11,26.92,25.38,26.68z M25.66,26.4
			c0.42,0.15,1.04-0.16,1.15-0.51C26.42,25.22,25.57,25.63,25.66,26.4z"/>
		<path class="st107" d="M33.07,24.72c0.06,1.06-0.75,2.15-0.94,3.3C31.73,26.7,32.4,25.5,33.07,24.72z"/>
		<path class="st49" d="M26.81,25.89c-0.11,0.35-0.74,0.66-1.15,0.51C25.57,25.63,26.42,25.22,26.81,25.89z"/>
		<path class="st48" d="M22.18,27.57c1.31,1.12-1.73,2.33-1.17,0.33C21.42,27.81,21.64,27.57,22.18,27.57z M21.48,28.75
			c0.44-0.1,0.67-0.36,0.63-0.83C21.62,27.71,21.23,28.42,21.48,28.75z"/>
		<path class="st109" d="M22.11,27.93c0.04,0.46-0.19,0.73-0.63,0.83C21.23,28.42,21.62,27.71,22.11,27.93z"/>
		<path class="st48" d="M24.4,28.14c0.3,0.13,2.02-0.13,2.57-0.07c1.84,0.22,2.62,2.19,1.98,3.82c-0.4,1.02-1.68,2.09-3.31,2.13
			c-3.66,0.08-4.16-4.52-1.73-5.77C24.09,28.17,24.13,28.18,24.4,28.14z M28.66,31.83c0.31-0.79,0.32-2.23-0.52-2.95
			c-1.25-1.06-4.42-0.43-5.19,0.84C21.23,33.97,27.43,34.92,28.66,31.83z"/>
		<path class="st106" d="M22.94,29.72c0.78-1.27,3.95-1.9,5.19-0.84c0.84,0.72,0.84,2.16,0.52,2.95
			C27.43,34.92,21.23,33.97,22.94,29.72z"/>
		<path class="st48" d="M39.44,13.39c-0.16-0.78-1.37-1.97-1.97-2.42c-1.94-1.45-5.73-2.66-9.53-2.67
			c-2.24-0.01-4.75-0.09-6.93,0.24c-5.56,0.85-10.38,3.57-10.95,7.23c0.53,0.37,1.38,0.72,1.94,0.76c-0.11,1.02,0.84,1.47,1.59,1.31
			c-0.58-0.3-1.02-0.4-1.17-0.98c-0.04-0.16-0.05-0.31-0.04-0.45c-0.05-0.02-0.11-0.03-0.16-0.06c-0.05-0.03-0.1-0.06-0.16-0.09
			c-0.48-0.23-1.09-0.33-1.52-0.6c-0.07-1.27,0.74-2.29,1.65-3.08c1.89-1.63,5.26-3.14,8.74-3.68c2.2-0.34,4.79-0.27,6.93-0.24
			c3.56,0.05,7.09,1.06,9.12,2.52c1.14,0.81,2.59,2.22,1.74,3.84c0,0.01,0,0.03,0,0.04c-0.13,0.27-0.27,0.62-0.49,0.85
			c0,0.03-0.02,0.06-0.07,0.11c-0.3,0.56-1.22,0.64-2.23,0.66c-0.75-0.49-1.61-0.88-1.93-1.81c-1.96-1.56-5.25-0.92-8.12-1.09
			c-0.28-0.06-0.27-0.42-0.63-0.4c-2.47-0.61-3.88,1.26-5.75,1.31c-0.59,0.02-1.18-0.38-1.81-0.33c-1.36,0.1-3.48,1.77-3.93,3.13
			c-0.41,1.27,0.49,3.54,1.34,4.56c0.35,0.42,0.85,0.67,1.18,1.16c0.98,1.47,0.75,3.28,1.56,4.81c0.16,0.31,0.41,0.53,0.56,0.84
			c0.17,0.33,0.2,0.72,0.38,1.12c0.78,1.66,2.42,2.63,2.98,3.85c0.29,0.64,0.21,1.31,0.44,1.9c0.2,0.5,0.64,0.93,1,1.43
			c0.97,1.34,1.66,3.23,3.69,2.76c0.7-0.94,0.6-2.22,1.25-3.14c0.42-0.6,1.01-0.98,1.37-1.48c0.41-0.57,0.66-1.13,0.95-1.81
			c0.57-1.31,0.78-2.64,1.37-4.11c0.36-0.89,0.95-1.71,1.29-2.62c0.43-1.17,0.54-2.43,1.01-3.57c0.29-0.7,0.75-1.28,1.04-1.99
			c0.29-0.72,0.6-1.38,0.93-2.07c-0.19-0.91,0.34-1.61,0.44-2.04c0.57-0.03,0.82-0.3,1.47-0.26C38.68,15.82,39.76,14.95,39.44,13.39
			z M18.35,28.06c-0.89-1.41-1.02-3.04-1.56-4.73C18.74,23.59,19.51,26.57,18.35,28.06z M32.13,28.02c-0.4-1.32,0.27-2.53,0.94-3.3
			C33.13,25.78,32.32,26.88,32.13,28.02z M34.63,21.83c-0.84,0.43-0.83,1.49-1.41,2.28c-0.64,0.86-1.67,1.59-1.75,3
			c-0.03,0.49,0.25,1,0.21,1.48c-0.14,1.66-0.89,3.11-1.45,4.38c-0.33,0.75-0.51,1.4-0.94,1.98c-0.57,0.78-1.57,1.46-1.99,2.49
			c-0.29,0.71-0.18,1.56-0.83,2.15c-1.1,0.21-1.69-0.8-2.19-1.45c-0.46-0.58-1.21-1.31-1.54-2.01c-0.39-0.81-0.3-1.78-0.7-2.59
			c-0.53-1.09-2.35-2.23-2.86-3.6c-0.2-0.55-0.03-1.02-0.32-1.56c0.79-2.13,0.41-4.04-1.39-5.17c-0.18-0.11-0.46-0.11-0.61-0.23
			c-0.17-0.12-0.16-0.39-0.34-0.51c-0.34-0.22-0.81-0.21-1.13-0.55c-0.8-0.83-1.78-3.33-1.25-4.66c0.3-0.76,2.19-2.54,3.46-2.66
			c0.63-0.06,1.22,0.36,2.01,0.32c1.75-0.09,3.09-1.76,5.17-1.19c0.33,0.09,0.47,0.37,0.73,0.48c1.61,0.72,3.53-0.06,5.27,0.12
			c2.21,0.24,3.04,1.6,5.27,2.75C35.61,18.7,35.26,20.37,34.63,21.83z"/>
		<path class="st110" d="M23.91,18.19c0.03,0.39-0.38,0.73-0.91,0.76c-0.53,0.03-0.99-0.26-1.02-0.64
			c-0.03-0.39,0.38-0.73,0.91-0.76C23.42,17.52,23.88,17.81,23.91,18.19z"/>
		<path class="st110" d="M22.08,20.35c0.03,0.39-0.38,0.73-0.91,0.76c-0.53,0.03-0.99-0.26-1.02-0.64
			c-0.03-0.39,0.38-0.73,0.91-0.76C21.6,19.67,22.05,19.96,22.08,20.35z"/>
		<path class="st110" d="M29.96,19.87c0.03,0.39-0.38,0.73-0.91,0.76c-0.53,0.03-0.99-0.26-1.02-0.64
			c-0.03-0.39,0.38-0.73,0.91-0.76C29.48,19.2,29.93,19.49,29.96,19.87z"/>
		<path class="st110" d="M27.84,29.3c0.03,0.39-0.38,0.73-0.91,0.76c-0.53,0.03-0.99-0.26-1.02-0.64c-0.03-0.39,0.38-0.73,0.91-0.76
			C27.36,28.62,27.81,28.91,27.84,29.3z"/>
		<path class="st110" d="M25.92,31.73c0.03,0.39-0.38,0.73-0.91,0.76c-0.53,0.03-0.99-0.26-1.02-0.64
			c-0.03-0.39,0.38-0.73,0.91-0.76C25.43,31.06,25.89,31.34,25.92,31.73z"/>
		<path class="st50" d="M17.73,22.2c-0.11-0.36-0.63-0.64-0.86-0.96c-0.23-0.32-0.35-0.65-0.4-1.01c-0.15-1.06,0.22-1.92,1.05-2.68
			c0.45-0.42,1.59-1.62,0.81-2.18c-0.67-0.48-1.95,0.28-2.43,0.67c-1.27,1.04-2.13,2.77-1.29,4.26c0.33,0.58,0.91,1.04,1.53,1.38
			c0.41,0.22,0.98,0.64,1.49,0.6"/>
		<path class="st50" d="M19.81,26.37c0.15,1.11-0.92,2.17-0.49,3.24c0.21,0.51,0.73,0.8,1.16,1.16c0.27,0.23,0.53,0.56,0.96,0.46
			c0.04-0.27-0.29-0.63-0.42-0.87c-0.2-0.37-0.43-0.73-0.62-1.11c-0.31-0.61-0.2-1.13,0.08-1.72c0.2-0.41,0.29-0.72-0.08-1.07
			c-0.17-0.16-0.38-0.34-0.63-0.2"/>
		<path class="st50" d="M22.98,33.68c-0.23,0.41,0.03,1.12-0.04,1.59c-0.06,0.41-0.1,0.67,0.27,1.03c0.31,0.3,0.75,0.45,0.95,0.79
			c0.23,0.41,0.39,0.8,0.67,1.19c0.31,0.43,1.08,1.52,1.73,1.01c0.36-0.28,0.28-0.93,0.32-1.3c0.07-0.75,0.4-1.35,0.88-1.97
			c0.33-0.43,0.93-0.81,1.14-1.31c0.16-0.39,0.06-0.74-0.42-0.61c-0.71,0.21-1.28,0.96-1.68,1.48c-0.2,0.26-0.48,0.89-0.88,0.92
			c-0.81,0.07-1.21-1.38-1.52-1.84c-0.3-0.44-0.69-1.03-1.31-1.04c-0.09,0-0.18,0.01-0.27,0.02"/>
		<path class="st111" d="M22.25,13.85c-0.38,0.86,2.97,1.08,3.55,1.13c1.64,0.14,3.2-0.02,4.79,0.43c0.43,0.12,0.89,0.28,1.2,0.57
			c0.28,0.25,0.38,0.64,0.69,0.86c0.29,0.2,0.7,0.21,0.98,0.44c0.28,0.24,0.4,0.6,0.44,0.93c0.06,0.45,0,0.82-0.09,1.26
			c-0.15,0.68-0.21,1.4-0.46,2.07c-0.36,0.93-0.98,1.6-1.56,2.42c-0.34,0.47-0.61,0.86-0.62,1.42c-0.01,0.42,0.05,0.86,0.1,1.28
			c0.64-0.13,0.93-0.81,1.23-1.26c0.4-0.61,0.78-1.23,1.25-1.8c1.04-1.26,1.56-2.66,2.06-4.15c0.21-0.61,0.43-1.5,0.27-2.15
			c-0.12-0.51-0.85-0.94-1.3-1.31c-1.17-0.98-2.32-1.83-3.96-1.94c-1.08-0.07-2.13-0.01-3.22,0.05c-0.64,0.04-1.37,0.09-1.97-0.17
			c-0.52-0.22-0.82-0.63-1.43-0.64c-0.76-0.02-1.25,0.29-1.9,0.52"/>
		<path class="st110" d="M21.24,9.21c-0.4,0.01-0.79,0.22-1.18,0.3c-0.58,0.12-1.15,0.23-1.71,0.41c-0.91,0.29-1.89,0.67-2.75,1.09
			c-0.95,0.47-2.1,0.94-2.83,1.65c-0.41,0.4-1.07,0.99-1.27,1.52c-0.22,0.59,0.12,0.92,0.85,0.71c0.55-0.16,0.48-0.6,0.68-1
			c0.24-0.48,0.95-0.88,1.43-1.18c1.15-0.7,2.26-1.31,3.56-1.76c0.56-0.19,1.08-0.31,1.67-0.42c0.56-0.11,1.18-0.1,1.72-0.26
			c0.32-0.09,1.22-0.47,0.87-0.89c-0.17-0.2-0.77-0.2-1.03-0.21"/>
	</g>
</g>
</svg>
