<svg enable-background="new 0 0 48.19 48.19" viewBox="0 0 48.19 48.19" xmlns="http://www.w3.org/2000/svg"><path d="m41.69 39.31c-.29-.19-.8-.24-1.21-.2-9.3.1-18.59.05-27.89.08-.01 0-.01-.01-.01-.01-.91.01-1.85.1-2.76-.01-.24-.03-.56-.06-.77-.16-.04-.01-.05-.04-.08-.05.05 0 .1-.03.13-.09 4.84-9.05 9.89-17.99 14.8-27l.09.03c.21.13.42.4.58.6.59.72 1.02 1.61 1.5 2.41 0 .01.01 0 .01.01 4.34 7.12 8.83 14.14 13.12 21.29.34.82 1.23 1.35 2.1.89 1.09-.57.74-1.77.15-2.58 0-.02.01-.05-.01-.07-5.2-8.49-10.37-16.99-15.82-25.33-.42-.68-1.05-1.65-1.99-1.45-1.31.29-2.2 2.27-2.76 3.34-.02.01-.04.02-.05.04-4.9 8.18-8.98 16.81-13.76 25.05-.93 1.67-3.45 5.78.14 5.86 10.97.13 21.94-.01 32.91-.02.03 0 .04-.02.06-.03.98.07 2.12-.22 2.12-1.4 0-.4-.25-.97-.6-1.2z" fill="#93aaaf"/><path d="m7.2 42.16c10.97.13 21.94-.01 32.91-.02.43 0 .44-.68 0-.68-10.97.01-21.94.16-32.91.03-.43-.01-.43.66 0 .67z" fill="#222221"/><path d="m41.74 39.06c-.29-.15-.71-.2-1.1-.17-.05-.02-.09-.03-.15-.03-9.28.1-18.56.03-27.84.11-.02 0-.04-.01-.07-.01-.9.01-1.86.12-2.76.02-.16-.02-.35-.04-.52-.09 4.8-8.97 9.81-17.83 14.65-26.77.18.13.37.38.5.55.55.72.96 1.58 1.42 2.36.01.02.03.03.05.05 4.3 7.13 8.8 14.15 13.09 21.29.05.08.11.13.18.16.18.31.42.6.68.78.45.32 1.21.22 1.66-.06.41-.25.8-.86.76-1.35-.04-.46-.31-1.05-.64-1.43-.01-.04-.02-.08-.04-.12-5.2-8.49-10.37-16.99-15.82-25.32-.47-.75-1.17-1.77-2.21-1.53-1.35.31-2.25 2.23-2.84 3.37-.03.03-.07.06-.09.1-4.92 8.22-9.01 16.88-13.83 25.16-.01.01-.01.02-.01.03-1.06 1.87-3.34 5.93.38 6.01.43.01.43-.66 0-.67-1.01-.02-1.61-.36-1.39-1.45.25-1.24.94-2.42 1.55-3.52.02-.02.04-.03.05-.06 4.79-8.23 8.87-16.85 13.75-25.03.02-.02.05-.04.07-.08.54-.97 1.22-2.6 2.29-3.11.79-.38 1.34.56 1.7 1.13 5.44 8.34 10.61 16.83 15.81 25.33.03.04.06.07.09.1.24.52.75 1.08.25 1.56-.58.57-1.14.19-1.56-.28-.01-.05-.02-.09-.05-.14-4.29-7.15-8.75-14.19-13.18-21.24-.01-.02-.01-.04-.02-.06-.62-.98-1.17-2.06-2.04-2.86-.41-.38-.82-.59-1.37-.28-.51.28-.88.84-.92 1.42-.01.16.21.19.29.08.15-.22.37-.55.62-.77-4.84 8.68-9.7 17.36-14.39 26.12-.04-.37.18-.83.33-1.16.05-.12-.07-.31-.21-.21-.45.32-.73.88-.74 1.44-.01.65.38.94.95 1.1 1.13.32 2.34.23 3.5.24.03 0 .04-.01.07-.01 9.28.08 18.56.1 27.84 0 .08 0 .14-.02.2-.05.57.08 1.1.31 1.02 1.04-.09.85-1.08.59-1.67.82-.24.09-.27.44 0 .52.53.15 1.3.02 1.78-.23.43-.23.69-.84.7-1.31.03-.55-.3-1.25-.77-1.49z" fill="#222221"/><path d="m36.25 18.83c-.66-.78-1.78-.45-2.3.3-.04 0-.07.01-.11.03-6.37 5.4-12.62 10.94-19.04 16.29-.33.22-.65.56-.77.89-.14.38.02.96.25 1.28.73.99 1.87.45 2.59-.25.02 0 .05 0 .07-.02 6.25-5.33 12.39-10.78 18.49-16.28.76-.47 1.54-1.38.82-2.24z" fill="#93aaaf"/><path d="m36.46 18.73c-.27-.38-.89-.7-1.37-.62-.41.07-.97.43-1.23.81-.06.01-.12.03-.18.08-6.4 5.37-12.65 10.92-19.07 16.27-.04.03-.06.06-.08.1-.32.23-.6.55-.72.84-.2.48-.02 1.2.31 1.58.32.37.96.69 1.45.57.46-.12.99-.43 1.33-.81.06-.01.11-.03.16-.07 6.27-5.35 12.43-10.81 18.55-16.33.41-.22.79-.62 1-.99.24-.42.11-1.06-.15-1.43zm-1.14 1.85c-.05.01-.11.03-.16.08-6.12 5.52-12.29 10.99-18.57 16.34-.03.03-.05.06-.07.09-.54.31-1.1.91-1.65.32-.48-.52-.22-1.02.16-1.43.07-.01.13-.04.19-.09 6.41-5.35 12.69-10.86 18.99-16.35.05-.04.08-.09.1-.13.48-.31 1.1-.71 1.55-.11.41.52-.15.91-.54 1.28z" fill="#222221"/><path d="m23.73 1.73c-.3 3.87-.64 7.77.1 11.62.12.62 1.04.35.94-.26-.59-3.74-.4-7.58-.61-11.36-.02-.28-.41-.28-.43 0z" fill="#222221"/><g fill="#fff"><path d="m21.09 31.39c-1.97 1.45-3.95 3.05-5.65 4.81-.18.18.08.43.27.27 1.9-1.56 3.75-3.17 5.66-4.72.2-.16-.07-.51-.28-.36z"/><path d="m22.4 30.62c3.49-2.65 6.79-5.61 9.97-8.62.22-.21-.11-.54-.33-.33-3.17 3.03-6.6 5.74-9.83 8.7-.15.12.04.37.19.25z"/><path d="m33.18 21.31c.62-.48 1.25-.95 1.86-1.44.25-.2-.11-.56-.36-.36-.59.49-1.16.99-1.74 1.49-.16.15.06.45.24.31z"/><path d="m18.36 17.84c1.67-2.35 2.68-5.14 4.25-7.56.04-.07-.06-.15-.11-.09-1.86 2.21-3.2 4.86-4.53 7.42-.14.27.22.47.39.23z"/><path d="m17.31 19.23c-3.6 6.25-7.16 12.55-10.59 18.89-.16.3.3.58.46.27 3.48-6.29 7.53-12.41 10.4-19.01.08-.17-.17-.33-.27-.15z"/><path d="m16.93 40.13c-1.53-.05-3.06-.07-4.59-.1-1.43-.03-2.92.11-4.3-.36-.11-.04-.16.13-.05.18 2.63 1.04 6.17.6 8.93.63.23 0 .23-.34.01-.35z"/><path d="m40.8 39.98c-6.96.07-13.91.08-20.87.08-.17 0-.17.25 0 .26 6.93.43 13.93.13 20.87.11.29.01.29-.46 0-.45z"/><path d="m31.02 19.98c.19.26.57.04.43-.25-1.41-2.89-3.39-5.64-5.18-8.31-.12-.18-.42-.01-.3.18 1.74 2.73 3.17 5.74 5.05 8.38z"/><path d="m41.09 35.03c-1.93-2.95-3.72-6-5.67-8.95-.12-.19-.42-.01-.3.18 1.91 2.96 3.81 5.96 5.55 9.02.16.27.59.01.42-.25z"/></g></svg>