<?xml version="1.0" encoding="utf-8"?>
<!-- Generator: Adobe Illustrator 24.2.1, SVG Export Plug-In . SVG Version: 6.00 Build 0)  -->
<svg version="1.1" xmlns="http://www.w3.org/2000/svg" xmlns:xlink="http://www.w3.org/1999/xlink" x="0px" y="0px"
	 viewBox="0 0 48.19 48.19" style="enable-background:new 0 0 48.19 48.19;" xml:space="preserve">
<style type="text/css">
	.st0{fill:#D1E3FF;}
	.st1{fill:#923944;}
	.st2{fill:#B7616C;}
	.st3{fill:#FFEDDE;}
	.st4{fill:#FFFFFF;}
	.st5{fill:#FF9966;}
	.st6{opacity:0.5;fill:#FFFFFF;}
	.st7{fill:#FFC807;}
	.st8{fill:#F0F0F0;}
	.st9{fill:#FFEDA2;}
	.st10{opacity:0.1;}
	.st11{opacity:0.2;fill:#FFFFFF;}
	.st12{fill:#00CBF0;}
	.st13{fill:#222221;}
	.st14{fill:#FFFF66;}
	.st15{fill:#6633FF;}
	.st16{fill:#FF9900;}
	.st17{fill:#FF7876;}
	.st18{fill:#FF78C3;}
	.st19{fill:#DCA756;}
	.st20{fill:#FBF298;}
	.st21{fill:#BF5135;}
	.st22{fill:#CF8531;}
	.st23{fill:#CFB780;}
	.st24{fill:#B71C32;}
	.st25{fill:#252723;}
	.st26{fill:#E8CAD8;}
	.st27{fill:#C25673;}
	.st28{fill:#DCA9C0;}
	.st29{fill:#C87080;}
	.st30{fill:#B3D6F1;}
	.st31{fill:#009FDF;}
	.st32{fill:#D4B76D;}
	.st33{fill:#AC8E64;}
	.st34{fill:#CCA351;}
	.st35{fill:#91714C;}
	.st36{fill:#9BA9CE;}
	.st37{fill:#7B82B1;}
	.st38{fill:#E6C27F;}
	.st39{fill:#D79B5F;}
	.st40{fill:#D1B699;}
	.st41{fill:#E2B64C;}
	.st42{fill:#DAA148;}
	.st43{fill:#99BA48;}
	.st44{fill:#F0E649;}
	.st45{fill:#BB1D6C;}
	.st46{fill:#DBA549;}
	.st47{fill:#F0D33B;}
	.st48{fill-rule:evenodd;clip-rule:evenodd;fill:#252723;}
	.st49{fill-rule:evenodd;clip-rule:evenodd;fill:#B71C32;}
	.st50{fill-rule:evenodd;clip-rule:evenodd;fill:#FFFFFF;}
	.st51{fill-rule:evenodd;clip-rule:evenodd;fill:url(#SVGID_1_);}
	.st52{fill-rule:evenodd;clip-rule:evenodd;fill:url(#SVGID_2_);}
	.st53{fill-rule:evenodd;clip-rule:evenodd;fill:url(#SVGID_3_);}
	.st54{fill-rule:evenodd;clip-rule:evenodd;fill:#C6684D;}
	.st55{opacity:0.5;fill-rule:evenodd;clip-rule:evenodd;fill:#FFFFFF;}
	.st56{opacity:0.3;fill-rule:evenodd;clip-rule:evenodd;fill:#252723;}
	.st57{fill-rule:evenodd;clip-rule:evenodd;fill:#767473;}
	.st58{fill-rule:evenodd;clip-rule:evenodd;fill:url(#SVGID_4_);}
	.st59{fill-rule:evenodd;clip-rule:evenodd;fill:#9B9998;}
	.st60{fill-rule:evenodd;clip-rule:evenodd;fill:#46433F;}
	.st61{fill-rule:evenodd;clip-rule:evenodd;fill:#A1A6A1;}
	.st62{fill-rule:evenodd;clip-rule:evenodd;fill:#D0D3D3;}
	.st63{opacity:0.3;fill-rule:evenodd;clip-rule:evenodd;fill:#FFFFFF;}
	.st64{fill:url(#SVGID_5_);}
	.st65{fill:url(#SVGID_6_);}
	.st66{fill:url(#SVGID_7_);}
	.st67{fill:url(#SVGID_8_);}
	.st68{fill:url(#SVGID_9_);}
	.st69{fill:url(#SVGID_10_);}
	.st70{fill:url(#SVGID_11_);}
	.st71{fill:url(#SVGID_12_);}
	.st72{fill:url(#SVGID_13_);}
	.st73{opacity:0.8;fill:#FFFFFF;}
	.st74{fill:url(#SVGID_14_);}
	.st75{fill:url(#SVGID_15_);}
	.st76{fill:url(#SVGID_16_);}
	.st77{fill:url(#SVGID_17_);}
	.st78{fill:url(#SVGID_18_);}
	.st79{fill:url(#SVGID_19_);}
	.st80{fill:url(#SVGID_20_);}
	.st81{fill:url(#SVGID_21_);}
	.st82{fill:url(#SVGID_22_);}
	.st83{fill:url(#SVGID_23_);}
	.st84{fill:url(#SVGID_24_);}
	.st85{fill:url(#SVGID_25_);}
	.st86{fill:#BFD8C9;}
	.st87{fill-rule:evenodd;clip-rule:evenodd;fill:url(#SVGID_26_);}
	.st88{fill-rule:evenodd;clip-rule:evenodd;fill:url(#SVGID_27_);}
	.st89{fill-rule:evenodd;clip-rule:evenodd;fill:url(#SVGID_28_);}
	.st90{fill-rule:evenodd;clip-rule:evenodd;fill:url(#SVGID_29_);}
	.st91{fill-rule:evenodd;clip-rule:evenodd;fill:url(#SVGID_30_);}
	.st92{fill-rule:evenodd;clip-rule:evenodd;fill:#7C9463;}
	.st93{fill-rule:evenodd;clip-rule:evenodd;fill:url(#SVGID_31_);}
	.st94{fill-rule:evenodd;clip-rule:evenodd;fill:url(#SVGID_32_);}
	.st95{fill-rule:evenodd;clip-rule:evenodd;fill:url(#SVGID_33_);}
	.st96{fill-rule:evenodd;clip-rule:evenodd;fill:url(#SVGID_34_);}
	.st97{fill-rule:evenodd;clip-rule:evenodd;fill:url(#SVGID_35_);}
	.st98{fill-rule:evenodd;clip-rule:evenodd;fill:url(#SVGID_36_);}
	.st99{fill-rule:evenodd;clip-rule:evenodd;fill:#588949;}
	.st100{fill-rule:evenodd;clip-rule:evenodd;fill:url(#SVGID_37_);}
	.st101{fill-rule:evenodd;clip-rule:evenodd;fill:url(#SVGID_38_);}
	.st102{fill-rule:evenodd;clip-rule:evenodd;fill:#445D33;}
	.st103{fill-rule:evenodd;clip-rule:evenodd;fill:#AF8B50;}
	.st104{fill-rule:evenodd;clip-rule:evenodd;fill:#997545;}
	.st105{fill-rule:evenodd;clip-rule:evenodd;fill:#F0D984;}
	.st106{fill-rule:evenodd;clip-rule:evenodd;fill:#BB3C39;}
	.st107{fill-rule:evenodd;clip-rule:evenodd;fill:#921B31;}
	.st108{fill-rule:evenodd;clip-rule:evenodd;fill:#299254;}
	.st109{fill-rule:evenodd;clip-rule:evenodd;fill:#EAC75A;}
	.st110{opacity:0.74;fill-rule:evenodd;clip-rule:evenodd;fill:#FFFFFF;}
	.st111{opacity:0.37;fill-rule:evenodd;clip-rule:evenodd;fill:#9D7433;}
	.st112{fill:#CE823D;}
	.st113{fill:#D99E41;}
	.st114{fill:#EEF8FF;}
	.st115{fill:#F2DA5E;}
	.st116{fill:none;stroke:#252723;stroke-width:0.4411;stroke-miterlimit:10;}
	.st117{fill:none;stroke:#4B6CA3;stroke-width:0.4411;stroke-linecap:round;stroke-linejoin:round;}
	.st118{fill:#4B6CA3;}
	.st119{fill:none;stroke:#4B6CA3;stroke-width:0.6617;stroke-linecap:round;stroke-linejoin:round;stroke-miterlimit:10;}
	.st120{fill:#F1D86A;}
	.st121{fill:#E1D7B4;}
	.st122{fill:#F1D86A;stroke:#252723;stroke-width:0.125;stroke-miterlimit:10;}
	.st123{fill:#93AAAF;}
	.st124{fill:#00CC66;}
	.st125{fill:#FF66CC;}
	.st126{fill:#FF6600;}
	.st127{fill:#CC3300;}
	.st128{fill:#9544E2;}
	.st129{opacity:0.3;fill:#FFFFFF;}
</style>
<g id="Capa_2">
</g>
<g id="Capa_1">
	<g>
		<g>
			<linearGradient id="SVGID_1_" gradientUnits="userSpaceOnUse" x1="2.8818" y1="23.6624" x2="44.8154" y2="23.6624">
				<stop  offset="0" style="stop-color:#F5E381"/>
				<stop  offset="0.9664" style="stop-color:#B5982F"/>
			</linearGradient>
			<path style="fill:url(#SVGID_1_);" d="M44.82,4.24c0,19.66,0,19.19,0,38.86c-0.06,0-0.11-0.01-0.16-0.01
				c-0.11-0.01-0.22-0.03-0.34-0.04c-0.42-0.01-0.72,0.29-0.73,0.71c0,0.23,0.01,0.45,0.02,0.69c-0.01,0-0.05,0.02-0.08,0.02
				c-13.14,0-26.29,0-39.43,0c0.01-0.25,0.02-0.48,0.02-0.71c0-0.21-0.08-0.39-0.23-0.53c-0.12-0.12-0.26-0.2-0.44-0.18
				c-0.18,0.02-0.36,0.03-0.56,0.05c0-19.66,0-19.19,0-38.86c0.17,0.02,0.34,0.03,0.51,0.05C3.8,4.34,4.09,3.93,4.1,3.64
				c0.01-0.23,0.04-0.45-0.03-0.68C4.05,2.89,4.09,2.86,4.16,2.86c0.04,0,0.09,0,0.13,0c6.22,0,12.44,0,18.66,0
				c6.68,0,13.37,0,20.05,0c0.18,0,0.36,0,0.53,0c0.08,0,0.1,0.04,0.08,0.11c-0.07,0.22-0.04,0.45-0.03,0.68
				c0.01,0.23,0.14,0.41,0.33,0.55c0.08,0.06,0.17,0.1,0.28,0.09C44.4,4.27,44.6,4.25,44.82,4.24z"/>
			<linearGradient id="SVGID_2_" gradientUnits="userSpaceOnUse" x1="44.9835" y1="23.6602" x2="45.8922" y2="23.6602">
				<stop  offset="0" style="stop-color:#F5E381"/>
				<stop  offset="0.9664" style="stop-color:#B5982F"/>
			</linearGradient>
			<path style="fill:url(#SVGID_2_);" d="M45.38,43.93c0-0.06-0.01-0.08-0.01-0.11c0.03-0.23-0.07-0.41-0.25-0.53
				c-0.12-0.08-0.14-0.17-0.14-0.3c0-1.99,0-3.99,0-5.98c0-7.02,0-3.35,0-10.38c0-1.12,0.01-2.25,0.01-3.37
				c0-9.43,0-9.42-0.01-18.85c0-0.05,0-0.1,0-0.15c-0.01-0.09,0.02-0.15,0.1-0.19c0.04-0.02,0.08-0.06,0.12-0.09
				c0.12-0.1,0.19-0.23,0.18-0.39c0-0.05,0-0.11,0.01-0.19c0.14,0.1,0.27,0.17,0.43,0.17c0.02,0,0.06,0.05,0.07,0.08
				c0.01,0.05,0,0.1,0,0.15c0,8.71,0,7.98,0,16.69c0,2.41-0.01,4.81,0,7.22c0,8.84,0.01,6.98,0.01,15.82c0,0.03,0,0.06,0,0.09
				c0,0.14,0,0.14-0.15,0.16c-0.06,0.01-0.12,0.03-0.18,0.05C45.5,43.85,45.46,43.89,45.38,43.93z"/>
			<linearGradient id="SVGID_3_" gradientUnits="userSpaceOnUse" x1="1.8014" y1="23.6761" x2="2.7095" y2="23.6761">
				<stop  offset="0" style="stop-color:#F5E381"/>
				<stop  offset="0.9664" style="stop-color:#B5982F"/>
			</linearGradient>
			<path style="fill:url(#SVGID_3_);" d="M2.3,43.92c-0.13-0.09-0.26-0.16-0.42-0.16c-0.02,0-0.06-0.05-0.07-0.08
				c-0.01-0.05-0.01-0.1-0.01-0.15c0-8.7,0-6.7,0-15.4c0-2.41,0.01-4.81,0.01-7.22c0-8.85-0.01-8.26-0.01-17.1c0-0.04,0-0.09,0-0.13
				c0-0.09,0.03-0.12,0.12-0.14c0.13-0.02,0.25-0.08,0.39-0.12c0,0.03,0.01,0.07,0.01,0.11C2.29,3.75,2.39,3.92,2.56,4.03
				c0.13,0.08,0.15,0.18,0.15,0.32c0,2.29,0,4.58,0,6.88c0,6.73,0,4.01,0,10.74c0,1.24-0.01,2.48-0.01,3.72
				c0,9.27,0,7.85,0.01,17.13c0,0.09,0,0.17,0,0.26c0,0.09-0.02,0.15-0.1,0.19c-0.22,0.13-0.33,0.33-0.3,0.59
				C2.32,43.87,2.31,43.89,2.3,43.92z"/>
			<linearGradient id="SVGID_4_" gradientUnits="userSpaceOnUse" x1="3.5536" y1="45.1198" x2="44.1511" y2="45.1198">
				<stop  offset="0" style="stop-color:#F5E381"/>
				<stop  offset="0.9664" style="stop-color:#B5982F"/>
			</linearGradient>
			<path style="fill:url(#SVGID_4_);" d="M3.55,44.92c0.15-0.02,0.29-0.1,0.38-0.25c0.02-0.03,0.07-0.04,0.11-0.05
				c0.04-0.01,0.08,0,0.13,0c6.32,0,12.64,0,18.96,0c0.18,0,0.35,0.02,0.53,0.02c0.11,0,0.21,0.01,0.32,0
				c0.31-0.01,0.61-0.03,0.92-0.03c6.21,0,12.43,0,18.64,0c0.11,0,0.19,0.02,0.27,0.12c0.08,0.1,0.22,0.15,0.34,0.22
				c-0.11,0.15-0.16,0.34-0.14,0.54c0.01,0.08-0.03,0.12-0.11,0.12c-0.06,0-0.13,0-0.19,0c-3.11,0-6.22,0-9.33,0
				c-3.31,0-6.62-0.01-9.93-0.01c-3.43,0-6.86,0.01-10.29,0.01c-3.4,0-6.79,0-10.19,0c-0.31,0-0.27,0.03-0.29-0.27
				C3.67,45.21,3.6,45.07,3.55,44.92z"/>
			<linearGradient id="SVGID_5_" gradientUnits="userSpaceOnUse" x1="3.5408" y1="2.2058" x2="44.175" y2="2.2058">
				<stop  offset="0" style="stop-color:#F5E381"/>
				<stop  offset="0.9664" style="stop-color:#B5982F"/>
			</linearGradient>
			<path class="st64" d="M44.17,2.4c-0.18,0.03-0.32,0.1-0.42,0.25c-0.02,0.03-0.07,0.05-0.11,0.05c-0.04,0.01-0.08,0-0.13,0
				c-6.28,0-12.56,0-18.83,0c-0.22,0-0.44-0.02-0.66-0.03c-0.11,0-0.21,0-0.32,0c-0.29,0.01-0.58,0.03-0.87,0.03
				c-6.22,0-12.44,0-18.66,0c-0.13,0-0.22-0.03-0.31-0.14c-0.08-0.09-0.21-0.13-0.32-0.2C3.65,2.22,3.7,2.03,3.68,1.82
				C3.68,1.74,3.71,1.7,3.8,1.71c0.06,0,0.11,0,0.17,0c3.12,0,6.25,0,9.37,0c3.28,0,6.56,0.01,9.84,0.01
				c3.42,0,6.83-0.01,10.25-0.01c3.44,0,6.88,0,10.31,0c0.03,0,0.06,0,0.09,0c0.17,0,0.18,0,0.17,0.18C44,2.07,44.07,2.23,44.17,2.4
				z"/>
			<linearGradient id="SVGID_6_" gradientUnits="userSpaceOnUse" x1="44.9434" y1="1.7104" x2="46.8722" y2="1.7104">
				<stop  offset="0" style="stop-color:#F5E381"/>
				<stop  offset="0.9664" style="stop-color:#B5982F"/>
			</linearGradient>
			<path class="st65" d="M46.87,1.45c0.04,0.32-0.1,0.58-0.38,0.76c-0.16,0.11-0.31,0.25-0.51,0.3c-0.02,0.01-0.05,0.01-0.06,0.03
				c-0.11,0.15-0.29,0.18-0.42,0.28c-0.16,0.13-0.31,0.07-0.47,0.01c-0.06-0.02-0.09-0.07-0.08-0.13c0.02-0.14,0.03-0.28,0.07-0.42
				c0.07-0.22,0.16-0.42,0.24-0.63c0.05-0.15,0.1-0.29,0.15-0.44c0.09-0.25,0.26-0.44,0.47-0.59c0.14-0.11,0.3-0.11,0.46-0.05
				C46.61,0.67,46.92,1.02,46.87,1.45z"/>
			<linearGradient id="SVGID_7_" gradientUnits="userSpaceOnUse" x1="44.943" y1="45.6139" x2="46.8738" y2="45.6139">
				<stop  offset="0" style="stop-color:#F5E381"/>
				<stop  offset="0.9664" style="stop-color:#B5982F"/>
			</linearGradient>
			<path class="st66" d="M46.87,45.9c0.05,0.4-0.25,0.76-0.53,0.86c-0.17,0.06-0.32,0.05-0.46-0.05c-0.2-0.15-0.37-0.33-0.46-0.57
				c-0.06-0.15-0.1-0.31-0.16-0.46c-0.08-0.21-0.17-0.41-0.24-0.61c-0.04-0.12-0.06-0.25-0.07-0.37c-0.01-0.15,0.01-0.14,0.14-0.21
				c0.16-0.08,0.28-0.05,0.41,0.03c0.14,0.09,0.3,0.15,0.43,0.27c0.1,0.1,0.26,0.14,0.39,0.21c0.06,0.03,0.11,0.07,0.16,0.11
				C46.81,45.36,46.87,45.48,46.87,45.9z"/>
			<linearGradient id="SVGID_8_" gradientUnits="userSpaceOnUse" x1="0.8199" y1="1.7122" x2="2.7506" y2="1.7122">
				<stop  offset="0" style="stop-color:#F5E381"/>
				<stop  offset="0.9664" style="stop-color:#B5982F"/>
			</linearGradient>
			<path class="st67" d="M0.83,1.42C0.78,1.03,1.07,0.66,1.36,0.56C1.52,0.51,1.67,0.51,1.8,0.61c0.21,0.15,0.38,0.33,0.47,0.57
				c0.06,0.15,0.1,0.31,0.16,0.46c0.07,0.2,0.17,0.39,0.23,0.59c0.05,0.14,0.07,0.29,0.08,0.44c0.01,0.13,0,0.14-0.13,0.18
				C2.58,2.86,2.54,2.88,2.5,2.89c-0.05,0.01-0.12,0.02-0.16,0C2.15,2.78,1.93,2.73,1.78,2.55C1.76,2.53,1.73,2.52,1.71,2.51
				c-0.23-0.07-0.4-0.24-0.59-0.37c-0.2-0.15-0.3-0.36-0.29-0.61C0.83,1.49,0.83,1.46,0.83,1.42z"/>
			<linearGradient id="SVGID_9_" gradientUnits="userSpaceOnUse" x1="0.8202" y1="45.6115" x2="2.7486" y2="45.6115">
				<stop  offset="0" style="stop-color:#F5E381"/>
				<stop  offset="0.9664" style="stop-color:#B5982F"/>
			</linearGradient>
			<path class="st68" d="M0.83,45.85c-0.03-0.3,0.1-0.55,0.37-0.73c0.16-0.11,0.31-0.25,0.51-0.31c0.06-0.02,0.09-0.08,0.15-0.11
				c0.17-0.09,0.34-0.18,0.51-0.27c0.03-0.02,0.08-0.01,0.12,0c0.02,0,0.04,0.02,0.05,0.03c0.06,0.04,0.17,0.01,0.2,0.1
				c0.02,0.08,0.02,0.17,0,0.25c-0.06,0.29-0.15,0.57-0.28,0.85c-0.07,0.15-0.12,0.32-0.17,0.48c-0.09,0.24-0.26,0.42-0.46,0.57
				c-0.15,0.11-0.31,0.13-0.48,0.05C0.97,46.58,0.8,46.29,0.83,45.85z"/>
			<path class="st73" d="M2.71,44.51c-0.04-0.04-0.12-0.03-0.17-0.06c-0.02-0.01-0.04-0.03-0.05-0.03c-0.04,0-0.09-0.02-0.12,0
				c-0.17,0.09-0.34,0.18-0.51,0.27c-0.05,0.03-0.09,0.1-0.15,0.11c-0.2,0.06-0.34,0.2-0.51,0.31c-0.27,0.18-0.41,0.43-0.37,0.73
				C0.81,46.12,0.87,46.33,1,46.49C0.73,45.63,1.92,44.94,2.71,44.51z"/>
			<linearGradient id="SVGID_10_" gradientUnits="userSpaceOnUse" x1="43.7372" y1="43.9728" x2="45.244" y2="43.9728">
				<stop  offset="0" style="stop-color:#F5E381"/>
				<stop  offset="0.9664" style="stop-color:#B5982F"/>
			</linearGradient>
			<path class="st69" d="M43.74,43.94c0.01-0.11,0.02-0.23,0.05-0.33c0.08-0.27,0.26-0.39,0.53-0.4c0.23,0,0.44,0.05,0.63,0.16
				c0.17,0.09,0.31,0.21,0.3,0.43c-0.01,0.23-0.06,0.43-0.29,0.55c-0.06,0.03-0.13,0.07-0.16,0.13c-0.08,0.16-0.23,0.21-0.37,0.24
				c-0.36,0.07-0.46,0-0.61-0.34C43.75,44.23,43.74,44.09,43.74,43.94z"/>
			<linearGradient id="SVGID_11_" gradientUnits="userSpaceOnUse" x1="2.4491" y1="43.9661" x2="3.9638" y2="43.9661">
				<stop  offset="0" style="stop-color:#F5E381"/>
				<stop  offset="0.9664" style="stop-color:#B5982F"/>
			</linearGradient>
			<path class="st70" d="M3.96,43.94c0.02,0.24-0.07,0.43-0.18,0.63c-0.05,0.1-0.13,0.14-0.24,0.15c-0.21,0.02-0.39-0.02-0.56-0.14
				c-0.02-0.01-0.05-0.02-0.05-0.04c-0.02-0.14-0.15-0.17-0.25-0.24c-0.3-0.19-0.31-0.69-0.02-0.89c0.26-0.18,0.56-0.24,0.87-0.2
				c0.18,0.02,0.3,0.17,0.36,0.33C3.94,43.67,3.94,43.81,3.96,43.94z"/>
			<path class="st73" d="M3.3,43.46c0.12-0.03,0.33-0.06,0.53-0.04c-0.07-0.11-0.16-0.19-0.3-0.2c-0.31-0.04-0.61,0.02-0.87,0.2
				c-0.29,0.2-0.28,0.7,0.02,0.89c0,0,0.01,0.01,0.01,0.01C2.6,43.89,2.87,43.57,3.3,43.46z"/>
			<linearGradient id="SVGID_12_" gradientUnits="userSpaceOnUse" x1="2.4486" y1="3.3599" x2="3.9603" y2="3.3599">
				<stop  offset="0" style="stop-color:#F5E381"/>
				<stop  offset="0.9664" style="stop-color:#B5982F"/>
			</linearGradient>
			<path class="st71" d="M3.96,3.34C3.94,3.49,3.94,3.61,3.91,3.71c-0.08,0.28-0.25,0.4-0.54,0.41c-0.23,0-0.45-0.06-0.65-0.17
				C2.56,3.85,2.44,3.73,2.45,3.52C2.46,3.3,2.51,3.1,2.73,2.99c0.08-0.04,0.14-0.1,0.19-0.18C3,2.69,3.14,2.61,3.28,2.61
				c0.43-0.02,0.43-0.03,0.6,0.35C3.93,3.09,3.94,3.23,3.96,3.34z"/>
			<linearGradient id="SVGID_13_" gradientUnits="userSpaceOnUse" x1="43.7293" y1="3.3593" x2="45.245" y2="3.3593">
				<stop  offset="0" style="stop-color:#F5E381"/>
				<stop  offset="0.9664" style="stop-color:#B5982F"/>
			</linearGradient>
			<path class="st72" d="M43.73,3.39c-0.02-0.23,0.07-0.42,0.17-0.61c0.06-0.12,0.16-0.17,0.29-0.18c0.19-0.02,0.36,0.03,0.52,0.14
				c0.02,0.01,0.05,0.02,0.05,0.04c0.03,0.15,0.16,0.18,0.27,0.25c0.27,0.18,0.29,0.66,0.04,0.86c-0.27,0.21-0.59,0.28-0.93,0.23
				c-0.17-0.02-0.28-0.16-0.34-0.32C43.76,3.66,43.75,3.52,43.73,3.39z"/>
			<linearGradient id="SVGID_14_" gradientUnits="userSpaceOnUse" x1="2.4457" y1="1.6297" x2="3.5232" y2="1.6297">
				<stop  offset="0" style="stop-color:#F5E381"/>
				<stop  offset="0.9664" style="stop-color:#B5982F"/>
			</linearGradient>
			<path class="st74" d="M2.94,2.58C2.92,2.52,2.9,2.48,2.88,2.43C2.78,2.12,2.67,1.8,2.57,1.49C2.53,1.38,2.49,1.27,2.46,1.16
				C2.4,0.94,2.55,0.67,2.84,0.68C3.05,0.69,3.2,0.75,3.3,0.93c0.14,0.23,0.24,0.46,0.22,0.74c-0.01,0.08-0.01,0.17,0,0.26
				C3.53,2.1,3.45,2.24,3.31,2.34C3.19,2.42,3.07,2.49,2.94,2.58z"/>
			<linearGradient id="SVGID_15_" gradientUnits="userSpaceOnUse" x1="44.1655" y1="1.6353" x2="45.2479" y2="1.6353">
				<stop  offset="0" style="stop-color:#F5E381"/>
				<stop  offset="0.9664" style="stop-color:#B5982F"/>
			</linearGradient>
			<path class="st75" d="M44.75,2.59c-0.16-0.12-0.31-0.21-0.44-0.33c-0.06-0.06-0.12-0.15-0.13-0.24
				c-0.01-0.27-0.06-0.55,0.07-0.82c0.04-0.09,0.08-0.18,0.13-0.27c0.11-0.19,0.26-0.27,0.49-0.27c0.26,0,0.42,0.24,0.37,0.46
				c-0.03,0.12-0.08,0.24-0.12,0.36c-0.1,0.3-0.2,0.6-0.3,0.9C44.8,2.46,44.78,2.51,44.75,2.59z"/>
			<linearGradient id="SVGID_16_" gradientUnits="userSpaceOnUse" x1="2.4459" y1="45.691" x2="3.5291" y2="45.691">
				<stop  offset="0" style="stop-color:#F5E381"/>
				<stop  offset="0.9664" style="stop-color:#B5982F"/>
			</linearGradient>
			<path class="st76" d="M2.94,44.74c0.16,0.11,0.3,0.2,0.43,0.31c0.07,0.06,0.14,0.16,0.14,0.25c0.02,0.27,0.06,0.54-0.06,0.8
				c-0.04,0.1-0.09,0.19-0.14,0.29c-0.11,0.19-0.27,0.27-0.49,0.26c-0.26,0-0.41-0.24-0.36-0.44c0.03-0.13,0.08-0.26,0.12-0.38
				c0.1-0.3,0.2-0.6,0.3-0.9C2.9,44.86,2.91,44.81,2.94,44.74z"/>
			<linearGradient id="SVGID_17_" gradientUnits="userSpaceOnUse" x1="44.17" y1="45.6915" x2="45.2443" y2="45.6915">
				<stop  offset="0" style="stop-color:#F5E381"/>
				<stop  offset="0.9664" style="stop-color:#B5982F"/>
			</linearGradient>
			<path class="st77" d="M44.76,44.74c0.05,0.18,0.08,0.32,0.13,0.46c0.09,0.27,0.2,0.53,0.29,0.8c0.03,0.09,0.06,0.18,0.06,0.27
				c0.01,0.21-0.13,0.36-0.34,0.38c-0.24,0.02-0.41-0.06-0.53-0.28c-0.12-0.22-0.22-0.44-0.2-0.7c0.01-0.08,0.01-0.17,0-0.26
				c-0.01-0.18,0.07-0.32,0.21-0.42C44.5,44.91,44.62,44.83,44.76,44.74z"/>
			<linearGradient id="SVGID_18_" gradientUnits="userSpaceOnUse" x1="0.8174" y1="2.8665" x2="2.3852" y2="2.8665">
				<stop  offset="0" style="stop-color:#F5E381"/>
				<stop  offset="0.9664" style="stop-color:#B5982F"/>
			</linearGradient>
			<path class="st78" d="M2.39,3.12C2.27,3.21,2.17,3.28,2.08,3.35C2.04,3.38,2,3.39,1.96,3.39c-0.14,0-0.28,0-0.42-0.02
				C1.39,3.36,1.26,3.3,1.16,3.19C1.08,3.11,0.98,3.03,0.91,2.94C0.79,2.81,0.79,2.58,0.89,2.45c0.09-0.12,0.18-0.13,0.3-0.05
				c0.21,0.15,0.45,0.27,0.68,0.38C2.04,2.87,2.19,2.99,2.39,3.12z"/>
			<linearGradient id="SVGID_19_" gradientUnits="userSpaceOnUse" x1="0.8073" y1="44.4611" x2="2.3779" y2="44.4611">
				<stop  offset="0" style="stop-color:#F5E381"/>
				<stop  offset="0.9664" style="stop-color:#B5982F"/>
			</linearGradient>
			<path class="st79" d="M2.38,44.22c-0.27,0.17-0.5,0.33-0.76,0.46c-0.16,0.08-0.31,0.18-0.45,0.28C1.09,45,1.03,45,0.97,44.95
				c-0.14-0.09-0.22-0.36-0.11-0.5c0.17-0.22,0.34-0.45,0.64-0.49c0.16-0.02,0.32-0.04,0.48-0.02C2.14,43.96,2.24,44.09,2.38,44.22z
				"/>
			<path class="st73" d="M1.85,43.93c-0.12,0-0.24,0.01-0.35,0.03c-0.3,0.05-0.47,0.27-0.64,0.49c-0.1,0.14-0.03,0.4,0.11,0.5
				c0.06,0.04,0.12,0.05,0.19,0c0.02-0.01,0.04-0.02,0.06-0.04C1.11,44.44,1.47,44.16,1.85,43.93z"/>
			<linearGradient id="SVGID_20_" gradientUnits="userSpaceOnUse" x1="45.3261" y1="2.8677" x2="46.8782" y2="2.8677">
				<stop  offset="0" style="stop-color:#F5E381"/>
				<stop  offset="0.9664" style="stop-color:#B5982F"/>
			</linearGradient>
			<path class="st80" d="M45.33,3.1c0.06-0.04,0.1-0.07,0.15-0.1c0.07-0.05,0.14-0.1,0.21-0.15c0.04-0.03,0.08-0.06,0.13-0.08
				c0.25-0.1,0.49-0.23,0.7-0.39c0.11-0.08,0.18-0.07,0.27,0.03c0.11,0.12,0.13,0.37,0.02,0.49c-0.11,0.13-0.23,0.25-0.37,0.35
				c-0.08,0.06-0.19,0.09-0.3,0.11c-0.13,0.02-0.27,0.03-0.4,0.01C45.56,3.37,45.45,3.24,45.33,3.1z"/>
			<linearGradient id="SVGID_21_" gradientUnits="userSpaceOnUse" x1="45.3157" y1="44.4591" x2="46.8762" y2="44.4591">
				<stop  offset="0" style="stop-color:#F5E381"/>
				<stop  offset="0.9664" style="stop-color:#B5982F"/>
			</linearGradient>
			<path class="st81" d="M45.32,44.2c0.11-0.09,0.2-0.16,0.3-0.23c0.03-0.02,0.08-0.04,0.12-0.04c0.14,0,0.28,0,0.42,0.02
				c0.14,0.02,0.27,0.07,0.38,0.18c0.08,0.09,0.18,0.17,0.25,0.26c0.11,0.13,0.12,0.36,0.01,0.49c-0.09,0.12-0.18,0.13-0.3,0.04
				c-0.21-0.15-0.44-0.28-0.69-0.38c-0.02-0.01-0.04-0.01-0.06-0.02C45.62,44.42,45.48,44.33,45.32,44.2z"/>
			<path class="st73" d="M45.05,44.52c0.04-0.04,0.12-0.03,0.17-0.06c0.02-0.01,0.04-0.03,0.05-0.03c0.04,0,0.09-0.02,0.12,0
				c0.17,0.09,0.34,0.18,0.51,0.27c0.05,0.03,0.09,0.1,0.15,0.11c0.2,0.06,0.34,0.2,0.51,0.31c0.27,0.18,0.41,0.43,0.37,0.73
				c0.01,0.27-0.04,0.48-0.18,0.65C47.03,45.63,45.84,44.95,45.05,44.52z"/>
			<path class="st73" d="M44.45,43.46c-0.12-0.03-0.33-0.06-0.53-0.04c0.07-0.11,0.16-0.19,0.3-0.2c0.31-0.04,0.61,0.02,0.87,0.2
				c0.29,0.2,0.28,0.7-0.02,0.89c0,0-0.01,0.01-0.01,0.01C45.16,43.9,44.89,43.58,44.45,43.46z"/>
			<path class="st73" d="M45.91,43.94c0.12,0,0.24,0.01,0.35,0.03c0.3,0.05,0.47,0.27,0.64,0.49c0.1,0.14,0.03,0.4-0.11,0.5
				c-0.06,0.04-0.12,0.05-0.19,0c-0.02-0.01-0.04-0.02-0.06-0.04C46.65,44.44,46.29,44.17,45.91,43.94z"/>
			<path class="st73" d="M44.96,2.64c-0.04-0.04-0.04-0.12-0.08-0.16c-0.01-0.02-0.03-0.03-0.04-0.05
				c-0.01-0.04-0.03-0.09-0.02-0.12c0.06-0.18,0.12-0.36,0.19-0.54c0.02-0.06,0.08-0.1,0.09-0.16c0.03-0.2,0.15-0.37,0.23-0.55
				C45.48,0.76,45.7,0.59,46,0.58c0.26-0.05,0.48-0.03,0.66,0.08C45.77,0.52,45.26,1.8,44.96,2.64z"/>
			<path class="st73" d="M43.96,3.55C43.95,3.67,43.95,3.89,44,4.08c-0.11-0.05-0.21-0.13-0.25-0.26c-0.09-0.3-0.07-0.61,0.07-0.89
				c0.16-0.32,0.66-0.38,0.89-0.11c0,0,0.01,0.01,0.01,0.01C44.29,2.79,44.01,3.1,43.96,3.55z"/>
			<path class="st73" d="M44.22,1.69C44.2,1.57,44.2,1.45,44.2,1.33c0-0.3,0.2-0.51,0.4-0.7c0.12-0.12,0.39-0.09,0.51,0.04
				c0.05,0.06,0.07,0.11,0.03,0.19c-0.01,0.02-0.02,0.04-0.03,0.06C44.61,0.88,44.39,1.28,44.22,1.69z"/>
			<path class="st73" d="M2.78,2.85C2.74,2.89,2.66,2.88,2.61,2.91C2.59,2.92,2.57,2.94,2.56,2.94c-0.04,0.01-0.09,0.02-0.12,0
				C2.26,2.87,2.08,2.79,1.91,2.7C1.86,2.68,1.82,2.61,1.76,2.6c-0.2-0.05-0.35-0.18-0.52-0.28C0.96,2.14,0.81,1.9,0.83,1.6
				C0.81,1.34,0.85,1.12,0.98,0.95C0.75,1.83,1.97,2.46,2.78,2.85z"/>
			<path class="st73" d="M3.38,3.76C3.5,3.79,3.71,3.81,3.9,3.78C3.84,3.89,3.75,3.97,3.62,4C3.31,4.05,3.01,4.01,2.74,3.84
				c-0.3-0.19-0.31-0.69-0.02-0.89c0,0,0.01-0.01,0.01-0.01C2.65,3.36,2.94,3.67,3.38,3.76z"/>
			<path class="st73" d="M1.88,3.41c-0.12,0.01-0.24,0-0.35-0.01c-0.3-0.03-0.49-0.25-0.66-0.46c-0.11-0.13-0.05-0.4,0.09-0.5
				c0.06-0.05,0.12-0.06,0.19-0.01C1.17,2.43,1.19,2.44,1.2,2.46C1.12,2.94,1.49,3.2,1.88,3.41z"/>
			<path d="M0.94,2.21c-0.31-0.27-0.31-0.64-0.27-1c0.05-0.4,0.29-0.67,0.68-0.8c0.2-0.07,0.4-0.04,0.56,0.09
				c0.14,0.11,0.26,0.24,0.4,0.37c0.02-0.02,0.05-0.05,0.07-0.08C2.62,0.46,3.05,0.42,3.32,0.7c0.17,0.17,0.27,0.38,0.32,0.62
				C3.65,1.36,3.65,1.4,3.66,1.44C3.68,1.52,3.72,1.55,3.8,1.55c0.05,0,0.1,0,0.15,0c3.88,0,7.76,0,11.64,0
				c2.59,0,5.18-0.03,7.77-0.03c2.26,0,4.51,0,6.77,0.01c4.55,0.01,9.1,0.02,13.64,0.03c0.21,0,0.24,0.06,0.29-0.23
				c0.03-0.2,0.13-0.38,0.25-0.54c0.2-0.28,0.5-0.3,0.78-0.2c0.06,0.02,0.12,0.08,0.16,0.13c0.04,0.04,0.07,0.1,0.12,0.16
				c0.04-0.04,0.07-0.08,0.11-0.11c0.1-0.1,0.2-0.2,0.32-0.28c0.16-0.12,0.35-0.14,0.55-0.08c0.39,0.12,0.68,0.5,0.69,0.91
				c0,0.1,0,0.2,0,0.3C47,1.87,46.97,1.94,46.76,2.22c0.01,0.01,0.01,0.03,0.02,0.04c0.25,0.14,0.24,0.37,0.21,0.6
				C46.99,2.9,46.96,2.96,46.92,3c-0.13,0.13-0.25,0.27-0.4,0.38c-0.09,0.07-0.22,0.1-0.33,0.13c-0.09,0.02-0.14,0.06-0.13,0.16
				c0,0.05,0,0.1,0,0.15c0,8.27,0,7.1,0,15.37c0,0.51,0.01,1.01,0.01,1.52c0.01,1.54,0.02,3.09,0.02,4.63c0,0.45,0,0.9,0,1.35
				c-0.08,9.13-0.02,7.57-0.04,16.7c0,0.09,0,0.19,0,0.28c0,0.08,0.03,0.14,0.12,0.15c0.36,0.03,0.56,0.29,0.76,0.54
				c0.14,0.17,0.08,0.53-0.09,0.68c-0.03,0.03-0.06,0.05-0.1,0.08c0.4,0.39,0.35,1.19,0.05,1.52c-0.16,0.18-0.35,0.29-0.58,0.33
				c-0.16,0.03-0.31-0.02-0.44-0.12c-0.14-0.11-0.26-0.24-0.4-0.37c-0.02,0.02-0.05,0.05-0.07,0.08c-0.22,0.31-0.66,0.35-0.93,0.08
				c-0.17-0.17-0.27-0.38-0.32-0.62c-0.01-0.04-0.01-0.08-0.02-0.13c-0.02-0.07-0.06-0.11-0.14-0.11c-0.05,0-0.1,0-0.15,0
				c-3.89,0-7.79,0-11.68,0c-2.58,0-5.15,0.03-7.73,0.03c-2.19,0-4.37,0-6.56-0.01c-4.63-0.01-9.25-0.02-13.88-0.03
				c-0.01,0-0.03,0-0.04,0c-0.17,0-0.18,0-0.21,0.17c-0.03,0.2-0.11,0.38-0.22,0.55c-0.13,0.21-0.32,0.31-0.57,0.3
				c-0.2-0.01-0.36-0.07-0.46-0.25c-0.02-0.03-0.04-0.06-0.07-0.1c-0.04,0.04-0.07,0.08-0.11,0.11c-0.1,0.09-0.19,0.19-0.3,0.27
				c-0.17,0.13-0.36,0.16-0.57,0.09c-0.39-0.12-0.68-0.5-0.69-0.91c0-0.1,0-0.2,0-0.3c0.02-0.23,0.09-0.44,0.28-0.59
				c-0.02-0.03-0.02-0.04-0.03-0.05c-0.25-0.14-0.24-0.37-0.21-0.6c0.01-0.06,0.04-0.12,0.08-0.17c0.12-0.12,0.23-0.26,0.37-0.35
				c0.1-0.07,0.23-0.11,0.35-0.14c0.09-0.02,0.14-0.06,0.13-0.16c0-0.05,0-0.1,0-0.15c0-8.21,0-5.73,0-13.95
				c0-0.49,0.01-0.98-0.01-1.47c-0.06-2.15-0.04-4.3-0.02-6.45c0.07-8.96,0.01-8.48,0.03-17.44c0-0.13,0-0.26,0-0.38
				c0-0.25,0-0.25-0.24-0.32C1.3,3.46,1.2,3.41,1.12,3.35c-0.11-0.08-0.2-0.19-0.29-0.28c-0.1-0.09-0.13-0.21-0.14-0.35
				c0-0.2,0.04-0.36,0.23-0.47C0.93,2.24,0.93,2.23,0.94,2.21z M44.82,4.24C44.6,4.25,44.4,4.27,44.2,4.28
				c-0.11,0.01-0.19-0.03-0.28-0.09c-0.19-0.13-0.32-0.32-0.33-0.55c-0.01-0.23-0.04-0.45,0.03-0.68c0.02-0.07,0-0.11-0.08-0.11
				c-0.18,0-0.36,0-0.53,0c-6.68,0-13.37,0-20.05,0c-6.22,0-12.44,0-18.66,0c-0.04,0-0.09,0-0.13,0c-0.07,0-0.11,0.03-0.08,0.11
				C4.14,3.19,4.11,3.42,4.1,3.64c-0.01,0.29-0.3,0.7-0.71,0.64C3.22,4.26,3.06,4.25,2.88,4.23c0,19.67,0,19.2,0,38.86
				c0.19-0.02,0.38-0.03,0.56-0.05c0.18-0.02,0.32,0.06,0.44,0.18c0.15,0.15,0.23,0.32,0.23,0.53c0,0.23-0.01,0.46-0.02,0.71
				c13.14,0,26.29,0,39.43,0c0.03,0,0.07-0.02,0.08-0.02c-0.01-0.24-0.02-0.47-0.02-0.69c0.01-0.43,0.31-0.72,0.73-0.71
				c0.11,0,0.23,0.02,0.34,0.04c0.05,0.01,0.11,0.01,0.16,0.01C44.82,23.42,44.82,23.9,44.82,4.24z M45.38,43.93
				c0.07-0.04,0.12-0.08,0.17-0.1c0.06-0.02,0.12-0.04,0.18-0.05c0.15-0.03,0.15-0.02,0.15-0.16c0-0.03,0-0.06,0-0.09
				c0-8.84-0.01-6.98-0.01-15.82c0-2.41,0-4.81,0-7.22c0-8.71,0-7.98,0-16.69c0-0.05,0.01-0.1,0-0.15
				c-0.01-0.03-0.05-0.09-0.07-0.08c-0.16,0.01-0.29-0.07-0.43-0.17c0,0.08-0.01,0.13-0.01,0.19c0.01,0.16-0.06,0.29-0.18,0.39
				c-0.04,0.03-0.07,0.07-0.12,0.09c-0.08,0.04-0.11,0.11-0.1,0.19c0,0.05,0,0.1,0,0.15c0,9.43,0.01,9.42,0.01,18.85
				c0,1.12-0.01,2.25-0.01,3.37c0,7.02,0,3.35,0,10.38c0,1.99,0,3.99,0,5.98c0,0.13,0.02,0.23,0.14,0.3
				c0.19,0.12,0.28,0.3,0.25,0.53C45.38,43.84,45.38,43.87,45.38,43.93z M2.3,43.92c0.01-0.03,0.02-0.06,0.02-0.07
				c-0.03-0.26,0.08-0.46,0.3-0.59c0.08-0.05,0.1-0.11,0.1-0.19c0-0.09,0-0.17,0-0.26c0-9.27-0.01-7.85-0.01-17.13
				c0-1.24,0.01-2.48,0.01-3.72c0-6.73,0-4.01,0-10.74c0-2.29,0-4.58,0-6.88c0-0.14-0.02-0.24-0.15-0.32
				C2.39,3.92,2.29,3.75,2.31,3.54c0-0.04,0-0.08-0.01-0.11c-0.13,0.04-0.26,0.1-0.39,0.12C1.83,3.57,1.8,3.6,1.8,3.69
				c0,0.04,0,0.09,0,0.13c0,8.85,0.01,8.26,0.01,17.1c0,2.41,0,4.81-0.01,7.22c0,8.7,0,6.7,0,15.4c0,0.05-0.01,0.1,0.01,0.15
				c0.01,0.03,0.05,0.08,0.07,0.08C2.04,43.76,2.17,43.84,2.3,43.92z M3.55,44.92c0.05,0.15,0.11,0.29,0.12,0.43
				c0.02,0.29-0.02,0.27,0.29,0.27c3.4,0,6.79,0,10.19,0c3.43,0,6.86-0.01,10.29-0.01c3.31,0,6.62,0.01,9.93,0.01
				c3.11,0,6.22,0,9.33,0c0.06,0,0.13,0,0.19,0c0.08,0,0.12-0.04,0.11-0.12c-0.02-0.21,0.03-0.39,0.14-0.54
				c-0.12-0.08-0.26-0.13-0.34-0.22c-0.08-0.1-0.16-0.12-0.27-0.12c-6.21,0-12.43,0-18.64,0c-0.31,0-0.61,0.02-0.92,0.03
				c-0.11,0-0.21,0-0.32,0c-0.18-0.01-0.35-0.02-0.53-0.02c-6.32,0-12.64,0-18.96,0c-0.04,0-0.09-0.01-0.13,0
				c-0.04,0.01-0.09,0.02-0.11,0.05C3.84,44.82,3.7,44.9,3.55,44.92z M44.17,2.4C44.07,2.23,44,2.07,44.01,1.89
				c0.01-0.18,0-0.18-0.17-0.18c-0.03,0-0.06,0-0.09,0c-3.44,0-6.88,0-10.31,0c-3.42,0-6.83,0.01-10.25,0.01
				c-3.28,0-6.56-0.01-9.84-0.01c-3.12,0-6.25,0-9.37,0c-0.06,0-0.11,0-0.17,0c-0.08,0-0.12,0.04-0.11,0.12
				C3.7,2.03,3.65,2.22,3.54,2.37c0.12,0.07,0.25,0.11,0.32,0.2c0.09,0.11,0.18,0.14,0.31,0.14c6.22,0,12.44,0,18.66,0
				c0.29,0,0.58-0.02,0.87-0.03c0.11,0,0.21,0,0.32,0c0.22,0.01,0.44,0.03,0.66,0.03c6.28,0,12.56,0,18.83,0
				c0.04,0,0.09,0.01,0.13,0c0.04-0.01,0.09-0.02,0.11-0.05C43.85,2.5,43.99,2.43,44.17,2.4z M46.87,1.45
				c0.05-0.43-0.25-0.78-0.52-0.88c-0.17-0.06-0.32-0.06-0.46,0.05c-0.21,0.15-0.38,0.34-0.47,0.59c-0.05,0.15-0.1,0.3-0.15,0.44
				c-0.08,0.21-0.18,0.42-0.24,0.63c-0.04,0.13-0.05,0.28-0.07,0.42c-0.01,0.06,0.02,0.11,0.08,0.13c0.16,0.06,0.31,0.12,0.47-0.01
				c0.13-0.1,0.31-0.13,0.42-0.28c0.01-0.02,0.04-0.02,0.06-0.03c0.2-0.05,0.34-0.19,0.51-0.3C46.77,2.03,46.9,1.77,46.87,1.45z
				 M46.87,45.9c0-0.42-0.06-0.54-0.4-0.79c-0.05-0.04-0.1-0.08-0.16-0.11c-0.13-0.07-0.28-0.12-0.39-0.21
				c-0.13-0.12-0.29-0.18-0.43-0.27c-0.13-0.09-0.26-0.12-0.41-0.03c-0.14,0.07-0.16,0.06-0.14,0.21c0.01,0.13,0.03,0.25,0.07,0.37
				c0.07,0.21,0.16,0.41,0.24,0.61c0.06,0.15,0.1,0.31,0.16,0.46c0.09,0.24,0.26,0.42,0.46,0.57c0.14,0.1,0.3,0.11,0.46,0.05
				C46.62,46.66,46.92,46.3,46.87,45.9z M0.83,1.42c0,0.04,0,0.07,0,0.11c0,0.25,0.09,0.46,0.29,0.61c0.19,0.14,0.36,0.31,0.59,0.37
				c0.03,0.01,0.06,0.02,0.07,0.04c0.15,0.17,0.37,0.23,0.56,0.34c0.04,0.02,0.11,0.01,0.16,0c0.04-0.01,0.08-0.03,0.12-0.05
				C2.74,2.8,2.76,2.79,2.75,2.66c-0.01-0.15-0.04-0.3-0.08-0.44C2.6,2.02,2.51,1.83,2.43,1.63c-0.06-0.15-0.1-0.31-0.16-0.46
				C2.18,0.93,2.01,0.75,1.8,0.61c-0.14-0.1-0.29-0.1-0.45-0.04C1.07,0.66,0.78,1.03,0.83,1.42z M0.83,45.85
				c-0.02,0.44,0.15,0.73,0.52,0.9c0.17,0.08,0.33,0.07,0.48-0.05c0.2-0.15,0.37-0.33,0.46-0.57c0.06-0.16,0.1-0.33,0.17-0.48
				c0.13-0.27,0.22-0.55,0.28-0.85c0.02-0.08,0.02-0.17,0-0.25c-0.02-0.09-0.13-0.06-0.2-0.1c-0.02-0.01-0.04-0.03-0.05-0.03
				c-0.04,0-0.09-0.02-0.12,0c-0.17,0.09-0.34,0.18-0.51,0.27c-0.05,0.03-0.09,0.1-0.15,0.11c-0.2,0.06-0.34,0.2-0.51,0.31
				C0.93,45.3,0.79,45.55,0.83,45.85z M43.74,43.94c0.01,0.15,0.01,0.3,0.08,0.44c0.15,0.34,0.25,0.41,0.61,0.34
				c0.14-0.03,0.3-0.08,0.37-0.24c0.03-0.06,0.1-0.1,0.16-0.13c0.23-0.12,0.28-0.32,0.29-0.55c0.01-0.22-0.13-0.34-0.3-0.43
				c-0.2-0.11-0.41-0.16-0.63-0.16c-0.28,0-0.45,0.13-0.53,0.4C43.75,43.71,43.75,43.83,43.74,43.94z M3.96,43.94
				c-0.02-0.13-0.03-0.27-0.07-0.39c-0.06-0.17-0.17-0.31-0.36-0.33c-0.31-0.04-0.61,0.02-0.87,0.2c-0.29,0.2-0.28,0.7,0.02,0.89
				c0.1,0.06,0.23,0.09,0.25,0.24c0,0.01,0.03,0.03,0.05,0.04c0.17,0.12,0.36,0.16,0.56,0.14c0.11-0.01,0.19-0.06,0.24-0.15
				C3.89,44.38,3.98,44.18,3.96,43.94z M3.96,3.34C3.94,3.23,3.93,3.09,3.88,2.96c-0.16-0.38-0.17-0.37-0.6-0.35
				C3.14,2.61,3,2.69,2.93,2.8C2.87,2.89,2.81,2.94,2.73,2.99C2.51,3.1,2.46,3.3,2.45,3.52C2.44,3.73,2.56,3.85,2.72,3.95
				c0.2,0.12,0.42,0.18,0.65,0.17c0.29,0,0.47-0.13,0.54-0.41C3.94,3.61,3.94,3.49,3.96,3.34z M43.73,3.39
				c0.02,0.13,0.03,0.27,0.07,0.39c0.06,0.16,0.17,0.3,0.34,0.32c0.33,0.05,0.65-0.01,0.93-0.23c0.25-0.2,0.23-0.68-0.04-0.86
				c-0.1-0.07-0.24-0.1-0.27-0.25c0-0.01-0.03-0.02-0.05-0.04c-0.16-0.11-0.33-0.15-0.52-0.14c-0.13,0.01-0.23,0.06-0.29,0.18
				C43.8,2.97,43.71,3.16,43.73,3.39z M2.94,2.58c0.13-0.09,0.25-0.16,0.36-0.24c0.14-0.1,0.22-0.23,0.21-0.42
				c0-0.08-0.01-0.17,0-0.26C3.54,1.39,3.44,1.15,3.3,0.93C3.2,0.75,3.05,0.69,2.84,0.68C2.55,0.67,2.4,0.94,2.46,1.16
				c0.03,0.11,0.07,0.21,0.11,0.32c0.1,0.31,0.21,0.63,0.31,0.95C2.9,2.48,2.92,2.52,2.94,2.58z M44.75,2.59
				c0.03-0.08,0.04-0.13,0.06-0.18c0.1-0.3,0.2-0.6,0.3-0.9c0.04-0.12,0.09-0.24,0.12-0.36c0.05-0.22-0.11-0.46-0.37-0.46
				c-0.23,0-0.38,0.08-0.49,0.27c-0.05,0.09-0.09,0.18-0.13,0.27c-0.12,0.26-0.08,0.54-0.07,0.82c0,0.08,0.06,0.18,0.13,0.24
				C44.44,2.38,44.59,2.48,44.75,2.59z M2.94,44.74c-0.03,0.08-0.04,0.13-0.06,0.18c-0.1,0.3-0.2,0.6-0.3,0.9
				c-0.04,0.13-0.1,0.25-0.12,0.38c-0.05,0.21,0.11,0.44,0.36,0.44c0.22,0,0.39-0.07,0.49-0.26c0.05-0.09,0.09-0.19,0.14-0.29
				c0.12-0.26,0.08-0.53,0.06-0.8c-0.01-0.09-0.07-0.19-0.14-0.25C3.24,44.93,3.1,44.85,2.94,44.74z M44.76,44.74
				c-0.14,0.1-0.26,0.17-0.38,0.25c-0.14,0.1-0.22,0.23-0.21,0.42c0.01,0.08,0.01,0.17,0,0.26c-0.02,0.26,0.08,0.48,0.2,0.7
				c0.12,0.21,0.29,0.3,0.53,0.28c0.21-0.02,0.36-0.17,0.34-0.38c-0.01-0.09-0.03-0.18-0.06-0.27c-0.09-0.27-0.2-0.53-0.29-0.8
				C44.84,45.06,44.81,44.91,44.76,44.74z M2.39,3.12C2.19,2.99,2.04,2.87,1.88,2.78C1.64,2.67,1.41,2.55,1.19,2.4
				c-0.12-0.09-0.21-0.07-0.3,0.05c-0.1,0.13-0.1,0.36,0.01,0.49c0.08,0.09,0.17,0.17,0.25,0.26c0.1,0.11,0.23,0.16,0.38,0.18
				c0.14,0.02,0.28,0.02,0.42,0.02c0.04,0,0.09-0.01,0.12-0.04C2.17,3.28,2.27,3.21,2.39,3.12z M2.38,44.22
				c-0.14-0.13-0.24-0.26-0.4-0.28c-0.16-0.02-0.32,0-0.48,0.02c-0.3,0.05-0.47,0.27-0.64,0.49c-0.1,0.14-0.03,0.4,0.11,0.5
				c0.06,0.04,0.12,0.05,0.19,0c0.14-0.1,0.29-0.2,0.45-0.28C1.87,44.55,2.11,44.39,2.38,44.22z M45.33,3.1
				c0.12,0.14,0.24,0.27,0.42,0.29c0.13,0.01,0.27,0.01,0.4-0.01c0.1-0.02,0.21-0.05,0.3-0.11c0.13-0.1,0.26-0.23,0.37-0.35
				c0.11-0.12,0.09-0.37-0.02-0.49c-0.09-0.1-0.16-0.11-0.27-0.03c-0.22,0.16-0.45,0.29-0.7,0.39c-0.05,0.02-0.09,0.05-0.13,0.08
				c-0.07,0.05-0.14,0.1-0.21,0.15C45.43,3.04,45.38,3.07,45.33,3.1z M45.32,44.2c0.17,0.12,0.3,0.22,0.44,0.32
				c0.02,0.01,0.04,0.02,0.06,0.02c0.25,0.1,0.47,0.23,0.69,0.38c0.12,0.09,0.21,0.08,0.3-0.04c0.1-0.13,0.1-0.36-0.01-0.49
				c-0.08-0.09-0.17-0.17-0.25-0.26c-0.1-0.11-0.23-0.16-0.38-0.18c-0.14-0.02-0.28-0.02-0.42-0.02c-0.04,0-0.09,0.01-0.12,0.04
				C45.52,44.04,45.43,44.12,45.32,44.2z"/>
		</g>
		<path class="st4" d="M39.62,43.07H8.09c-2.26,0-4.11-1.85-4.11-4.11V7.97c0-2.26,1.85-4.11,4.11-4.11h31.53
			c2.26,0,4.11,1.85,4.11,4.11v30.99C43.73,41.22,41.88,43.07,39.62,43.07z"/>
	</g>
	<g>
		<path class="st86" d="M26.15,38H21.8c-5.21,0-9.47-4.26-9.47-9.47V15.64c0-5.21,4.26-9.47,9.47-9.47h4.35
			c5.21,0,9.47,4.26,9.47,9.47v12.88C35.62,33.73,31.36,38,26.15,38z"/>
		<g>
			<path class="st48" d="M23.59,38.74c0.06-0.08,0.14-0.16,0.19-0.25c0.36-0.67,0.81-1.27,1.39-1.76c0.13-0.11,0.26-0.22,0.42-0.13
				c0.16,0.09,0.29,0.22,0.3,0.45c0.01,0.36-0.08,0.68-0.23,1c-0.32,0.66-0.63,1.33-0.94,2.01c-0.04,0.1-0.05,0.21-0.08,0.32
				c-0.01,0.04-0.02,0.08-0.03,0.12c0.01-0.04,0.02-0.08,0.03-0.12c0.23-0.35,0.45-0.71,0.68-1.06c0.26-0.39,0.65-0.62,1.03-0.87
				c0.05-0.03,0.12-0.05,0.18-0.06c0.3-0.04,0.46,0.14,0.36,0.42c-0.04,0.12-0.12,0.22-0.18,0.33c-0.28,0.54-0.56,1.08-0.84,1.62
				c-0.01,0.04-0.02,0.08-0.03,0.12c0.01-0.04,0.02-0.08,0.03-0.13c0.13-0.13,0.29-0.24,0.4-0.39c0.2-0.27,0.48-0.45,0.77-0.61
				c0.12-0.07,0.26-0.11,0.4-0.13c0.24-0.03,0.38,0.11,0.32,0.33c-0.19,0.68-0.41,1.35-0.82,1.94c-0.2,0.29-0.52,0.35-0.83,0.38
				c-0.29,0.03-0.59-0.03-0.89-0.04c-0.58-0.04-1.15-0.07-1.73-0.05c-0.69,0.03-1.39,0.06-2.07-0.03c-0.48-0.06-0.95-0.29-1.39-0.52
				c-0.84-0.44-1.56-1.05-2.17-1.78c-0.39-0.47-0.72-0.99-0.95-1.56l-0.01,0.01c0.09-0.07,0.09-0.13,0-0.2l0.01,0.01
				c-0.02-0.28,0-0.56-0.38-0.65c-0.18-0.04-0.14-0.36,0.07-0.45c0.23-0.1,0.47-0.21,0.71-0.23c0.76-0.05,1.53-0.08,2.3-0.1
				c1.08-0.03,1.89,0.47,2.49,1.34c0.04,0.06,0.09,0.13,0.17,0.22c0.2-0.43,0.4-0.85,0.6-1.26c0.19-0.4,0.4-0.79,0.55-1.2
				c0.3-0.82,0.67-1.63,0.79-2.51c0.05-0.34,0.09-0.69,0.09-1.03c0-0.26-0.06-0.53-0.09-0.79c-0.02-0.2-0.03-0.4-0.04-0.6
				c-0.03-0.5-0.16-0.99-0.5-1.34c-0.23-0.24-0.49-0.47-0.74-0.69c-0.22-0.2-0.44-0.41-0.59-0.66c-0.37-0.62-0.93-1.01-1.5-1.4
				c-0.08-0.05-0.17-0.1-0.26-0.11c-0.69-0.03-1.39-0.08-1.99,0.38c-0.1,0.07-0.21,0.12-0.31,0.17c-0.22-0.15-0.17-0.3-0.07-0.46
				c0.27-0.42,0.6-0.77,1.12-1c-0.69-0.23-1.1-0.75-1.61-1.14c-0.31-0.24-0.59-0.51-0.91-0.79c-0.12,0.08-0.24,0.16-0.35,0.24
				c-0.59,0.47-1.24,0.8-1.99,0.93c-0.82,0.15-1.57-0.05-2.22-0.55c-0.29-0.22-0.53-0.49-0.78-0.75c-0.37-0.38-0.49-0.87-0.5-1.38
				c-0.01-0.46,0.03-0.91,0.15-1.35c0.11-0.38,0.05-0.7-0.29-0.96c-0.25-0.19-0.47-0.42-0.67-0.65c-0.29-0.34-0.31-0.74-0.17-1.15
				c0.22-0.63,0.49-1.23,1.01-1.67c0.12-0.1,0.23-0.21,0.34-0.33c0.22-0.24,0.47-0.42,0.76-0.45c0.32-0.45,0.62-0.87,0.94-1.31
				c-0.17-0.41-0.21-0.87-0.16-1.33c0.02-0.2,0.07-0.41,0.17-0.57c0.28-0.45,0.6-0.88,1.06-1.18c0.68-0.45,1.36-0.92,2.15-1.15
				c0.37-0.11,0.77-0.16,1.15-0.2c0.17-0.02,0.36,0.06,0.54,0.1c0.5-0.18,0.9-0.6,1.46-0.7c0.07-0.01,0.14-0.07,0.2-0.13
				c0.08-0.07,0.16-0.15,0.23-0.24c0.47-0.65,1.18-0.86,1.9-1.02c0.41-0.09,0.83-0.16,1.25-0.2c0.89-0.08,1.76,0,2.55,0.47
				c0.28,0.16,0.49,0.39,0.64,0.68c0.21,0.42,0.57,0.57,1.02,0.66c0.71,0.16,1.36,0.47,1.86,1.04c0.1,0.12,0.17,0.31,0.17,0.47
				c0.02,0.37,0,0.38,0.26,0.74c0.44-0.13,0.89-0.13,1.31,0.09c0.15,0.08,0.29,0.18,0.42,0.28c0.06,0.05,0.1,0.12,0.15,0.18
				c0.48,0.68,1.13,1.17,1.79,1.66c0.66,0.49,0.8,0.91,0.51,1.69c-0.45,1.22-1.08,2.35-2.09,3.21c-0.41,0.35-0.89,0.65-1.38,0.9
				c-0.49,0.25-0.84,0.61-1.11,1.06c-0.36,0.61-0.67,1.25-0.99,1.87c-0.22,0.42-0.43,0.83-0.64,1.25c0.2,0.18,0.4,0.35,0.59,0.54
				c0.2,0.21,0.13,0.43-0.16,0.47c-0.85,0.14-1.19,0.75-1.38,1.48c-0.06,0.23-0.09,0.47-0.1,0.7c-0.01,0.78-0.41,1.37-0.92,1.9
				c-0.23,0.24-0.21,0.23-0.1,0.55c0.25,0.73,0.43,1.46,0.29,2.26c-0.08,0.47-0.02,0.97-0.02,1.46c0.39-0.43,0.79-0.87,1.21-1.34
				c-0.01-0.02-0.08-0.1-0.06-0.14c0.12-0.31-0.07-0.54-0.17-0.8c-0.19-0.49-0.29-0.98-0.21-1.52c0.08-0.61,0.18-1.2,0.52-1.74
				c0.39-0.61,0.88-1.14,1.45-1.59c0.13-0.11,0.29-0.19,0.43-0.27c0.16,0.03,0.23,0.13,0.22,0.27c-0.02,0.54,0.13,1.06,0.17,1.59
				c0.05,0.72,0.1,1.45-0.09,2.16c-0.09,0.34-0.27,0.66-0.44,1.07c0.11-0.09,0.2-0.13,0.24-0.2c0.16-0.34,0.27-0.71,0.47-1.03
				c0.37-0.61,0.96-0.97,1.57-1.31c0.64-0.35,1.33-0.55,2.04-0.69c0.63-0.13,1.25-0.32,1.87-0.47c0.08-0.02,0.2,0.01,0.25,0.06
				c0.05,0.06,0.09,0.21,0.06,0.25c-0.5,0.54-0.43,1.3-0.73,1.92c-0.38,0.77-0.88,1.43-1.62,1.85c-0.55,0.31-1.16,0.48-1.81,0.34
				c-0.4-0.09-0.8-0.15-1.15-0.4c-0.2-0.15-0.45-0.21-0.71-0.11c-0.33,0.13-0.67,0.24-1.01,0.35c0,0.03,0.01,0.06,0.01,0.09
				c0.21,0.01,0.41,0.03,0.62,0.02c0.56-0.03,1.04,0.17,1.5,0.49c0.88,0.61,1.19,1.45,1.06,2.49c-0.03,0.26-0.02,0.54-0.02,0.8
				c-0.01,0.34-0.09,0.42-0.43,0.41c-0.18-0.01-0.38-0.05-0.54-0.13c-0.19-0.08-0.33-0.08-0.47,0.08c-0.04-0.09-0.06-0.2-0.11-0.23
				c-0.19-0.08-0.4-0.12-0.58-0.2c-0.47-0.22-0.93-0.44-1.38-0.7c-0.68-0.38-0.84-1.06-0.95-1.76c-0.02-0.1,0-0.21,0-0.41
				c-0.19,0.2-0.33,0.32-0.43,0.47c-0.1,0.14-0.13,0.33-0.24,0.46c-0.09,0.12-0.25,0.19-0.37,0.28c-0.43,0.31-0.52,0.81-0.71,1.25
				c-0.38,0.86-0.76,1.73-1.11,2.6C23.79,37.99,23.71,38.38,23.59,38.74c-0.02,0.07-0.04,0.14-0.07,0.21c0.02,0,0.04,0.01,0.05,0.01
				C23.58,38.89,23.59,38.82,23.59,38.74z M22.08,25.6c-0.02-0.11-0.05-0.22-0.07-0.33c-0.03,0.01-0.07,0.02-0.1,0.04
				C21.96,25.4,22.02,25.5,22.08,25.6c0.03,0.22,0.24,0.49-0.16,0.62c-0.49-0.41-1.06-0.47-1.67-0.32
				c-0.17,0.04-0.34,0.06-0.51,0.08c-0.41,0.07-0.46,0.09-0.72,0.39c0.44-0.05,0.85-0.09,1.25-0.13c0.11-0.01,0.23-0.04,0.32,0
				c0.69,0.29,1.33,0.67,1.75,1.3c0.35,0.54,0.77,0.99,1.31,1.33c0.08,0.05,0.17,0.1,0.21,0.18c0.16,0.35,0.33,0.71,0.45,1.08
				c0.1,0.33,0.13,0.68,0.21,1.01c0.2,0.83,0.12,1.65-0.04,2.47c-0.17,0.84-0.52,1.61-0.84,2.4c-0.27,0.67-0.6,1.31-0.89,1.97
				c-0.33,0.74-0.27,1.26,0.21,1.98c0.05-0.24,0.09-0.47,0.14-0.7c0.14-0.55,0.24-1.11,0.45-1.63c0.41-1.04,0.9-2.04,1.31-3.08
				c0.23-0.59,0.42-1.22,0.35-1.88c-0.02-0.23,0.03-0.47,0.05-0.7c0.05-0.69,0.04-1.38-0.22-2.04c-0.08-0.19-0.16-0.37-0.24-0.56
				c-0.12-0.3-0.1-0.42,0.18-0.52c0.25-0.09,0.38-0.26,0.52-0.45c0.31-0.42,0.41-0.91,0.46-1.41c0.09-0.99,0.43-1.84,1.43-2.27
				c0.02-0.01,0.02-0.05,0.04-0.08c-0.3-0.2-0.31-0.21-0.5-0.14c-0.45,0.17-0.92,0.33-1.35,0.54c-0.39,0.19-0.76,0.45-1.13,0.67
				c-0.18,0.11-0.35,0.05-0.39-0.16c-0.02-0.09,0.01-0.19-0.01-0.28c-0.05-0.16-0.09-0.35-0.19-0.47c-0.21-0.25-0.47-0.46-0.81-0.59
				c0.04,0.44,0.07,0.86,0.11,1.28c0.01,0.12,0.05,0.25,0.04,0.37c-0.02,0.29-0.21,0.38-0.45,0.2c-0.17-0.13-0.32-0.3-0.49-0.44
				C22.23,25.58,22.14,25.6,22.08,25.6z M11.99,16.15c-0.07,0-0.1-0.01-0.13,0c-0.06,0.03-0.11,0.06-0.16,0.09
				c-0.67,0.46-1.12,1.08-1.4,1.85c-0.23,0.63-0.1,1.1,0.45,1.46c0.12,0.08,0.23,0.16,0.34,0.26c0.3,0.27,0.46,0.59,0.33,1.01
				c-0.08,0.27-0.14,0.55-0.18,0.83c-0.1,0.66-0.02,1.27,0.42,1.82c0.31,0.39,0.67,0.7,1.1,0.94c0.16,0.09,0.33,0.18,0.51,0.22
				c0.72,0.18,1.4,0.06,2.04-0.29c0.25-0.14,0.46-0.37,0.73-0.48c0.28-0.11,0.47-0.31,0.67-0.51c0.14-0.14,0.28-0.29,0.43-0.42
				c0.23-0.19,0.46-0.38,0.71-0.54c0.79-0.51,1.53-1.08,2.49-1.3c0.6-0.14,1.17-0.14,1.76,0c0.99,0.24,1.92,0.64,2.82,1.24
				c-0.2-0.46-0.51-0.78-0.82-1.07c-0.59-0.55-1.25-0.97-2.11-1.06c-0.52-0.05-1.03-0.13-1.54-0.09c-1.05,0.08-2.09,0.22-3.14,0.14
				c-0.14-0.01-0.29-0.01-0.41-0.07c-0.74-0.38-1.51-0.73-1.87-1.6c-0.13,0-0.25-0.01-0.38,0c-0.56,0.07-1.05-0.11-1.53-0.37
				C12.34,17.82,11.9,17.04,11.99,16.15z M26.48,12.06c0.23,0.14,0.23,0.14,0.25,0.26c0.09,0.57-0.28,1.25-0.84,1.58
				c-0.58,0.34-1.21,0.52-1.85,0.68c-0.81,0.19-1.61,0.38-2.32,0.87c-0.33,0.23-0.63,0.48-0.88,0.78c-0.19,0.23-0.32,0.5-0.22,0.84
				c0.17-0.06,0.32-0.11,0.47-0.16c0.58-0.19,1.17-0.34,1.79-0.33c0.37,0.01,0.76-0.02,1.12-0.1c1.16-0.23,2.3-0.53,3.36-1.06
				c0.6-0.3,1.15-0.66,1.36-1.36c0.11-0.36,0.18-0.73,0.29-1.09c0.13-0.4,0.1-0.77-0.12-1.13c-0.13-0.21-0.2-0.42-0.17-0.67
				c0.03-0.23-0.07-0.4-0.24-0.54c-0.47-0.39-0.98-0.67-1.6-0.75c-0.43-0.06-0.82-0.17-1-0.65c-0.09-0.23-0.3-0.45-0.5-0.61
				c-0.44-0.33-0.97-0.48-1.5-0.52c-0.94-0.08-1.85,0.12-2.74,0.38c-0.34,0.1-0.71,0.24-0.94,0.66c0.27-0.03,0.49-0.06,0.7-0.09
				c0.7-0.08,1.37-0.06,1.95,0.44c0.54,0.46,0.61,0.92,0.18,1.43c0,0.29-0.01,0.53,0,0.76c0.03,0.63,0.19,1.23,0.66,1.67
				c0.3,0.29,0.69,0.48,1.02,0.69c0.31-0.12,0.59-0.19,0.84-0.33c0.54-0.29,0.93-0.7,0.89-1.38C26.43,12.25,26.46,12.16,26.48,12.06
				z M27.25,15.85c0.02,0.63,0.04,1.2,0.07,1.86c0.39-0.3,0.72-0.51,1-0.78c0.42-0.4,0.89-0.76,1.06-1.36
				c0.01-0.05,0.17-0.1,0.23-0.08c0.07,0.03,0.14,0.14,0.14,0.21c0,0.08-0.07,0.17-0.12,0.24c-0.29,0.35-0.57,0.71-0.88,1.04
				c-0.42,0.45-0.9,0.82-1.49,1.05c-0.44,0.17-0.85,0.41-1.26,0.64c-0.85,0.49-1.37,1.3-1.97,2.1c0.22,0.17,0.41,0.32,0.6,0.48
				c0.07-0.08,0.11-0.12,0.15-0.17c0.66-0.78,1.48-1.25,2.49-1.36c0.59-0.07,1.18-0.07,1.77-0.09c0.62-0.02,1.21-0.12,1.69-0.56
				c0.05-0.04,0.1-0.07,0.16-0.11c0.49-0.27,0.88-0.68,1.19-1.12c0.47-0.66,0.86-1.39,1.18-2.14c0.2-0.47,0.07-0.97-0.31-1.31
				c-0.12-0.1-0.25-0.19-0.37-0.29c-0.52-0.38-1.05-0.75-1.41-1.3c-0.09-0.13-0.2-0.24-0.32-0.34c-0.28-0.23-0.61-0.33-0.97-0.28
				c-0.18,0.03-0.37,0.09-0.41,0.33c-0.06,0.34-0.12,0.68-0.19,1.01c-0.18,0.82-0.58,1.48-1.33,1.91
				C27.7,15.57,27.45,15.73,27.25,15.85z M17.32,15.58c-0.21,0-0.37,0-0.52,0c-0.68,0.01-1.17-0.29-1.5-0.89
				c-0.21-0.39-0.2-0.8-0.15-1.23c0.09-0.66,0.29-1.25,0.81-1.7c0.4-0.35,0.76-0.75,1.28-0.95c0.09-0.03,0.12-0.19,0.18-0.29
				c-0.09-0.05-0.18-0.15-0.26-0.15c-0.3,0.01-0.61,0.01-0.88,0.11c-0.98,0.37-1.89,0.85-2.63,1.62c-0.59,0.61-0.71,1.31-0.36,2.02
				c0.16,0.32,0.1,0.49-0.19,0.73c-0.35,0.28-0.6,0.64-0.72,1.08c-0.19,0.69,0.08,1.55,0.62,1.9c0.68,0.44,1.43,0.58,2.21,0.43
				c0.58-0.12,1.15-0.31,1.72-0.48c0.32-0.1,0.63-0.14,0.97-0.11c0.58,0.07,1.14,0.2,1.67,0.5c0.07-0.53-0.27-0.77-0.63-0.96
				c-0.73-0.37-1.44-0.79-2.26-0.92c-0.06-0.01-0.12-0.05-0.18-0.07c-0.52-0.16-1.02-0.41-1.59-0.39c-0.03,0-0.07-0.05-0.12-0.1
				c0.11-0.17,0.23-0.22,0.43-0.21c0.6,0.04,1.12,0.31,1.67,0.48c0.13,0.04,0.26,0.08,0.42,0.14
				C17.32,15.93,17.32,15.78,17.32,15.58z M21.57,25.44c-0.04-0.15-0.11-0.29-0.11-0.44c-0.01-0.14,0.05-0.29,0.09-0.45
				c0.36,0.1,0.56,0.32,0.73,0.57c0.13,0.18,0.28,0.33,0.57,0.34c-0.1-0.55-0.01-1.1-0.3-1.58c-0.13-0.22-0.09-0.38,0.1-0.56
				c0.09,0.07,0.21,0.12,0.26,0.2c0.19,0.33,0.5,0.51,0.81,0.7c0.28,0.17,0.45,0.43,0.63,0.69c0.06,0.09,0.11,0.18,0.17,0.29
				c0.36-0.21,0.69-0.4,1-0.58c-0.02-0.18-0.03-0.32-0.05-0.46c-0.06-0.44-0.17-0.87-0.55-1.15c-0.47-0.36-0.87-0.79-1.45-1.02
				c-0.71-0.29-1.41-0.58-2.18-0.65c-0.2-0.02-0.42-0.05-0.61,0.01c-0.51,0.16-1.02,0.33-1.5,0.56c-0.75,0.37-1.36,0.95-2.03,1.45
				c-0.09,0.07-0.14,0.18-0.17,0.23c0.34,0.26,0.63,0.49,0.92,0.72c0.44,0.34,0.86,0.69,1.32,0.99c0.29,0.2,0.62,0.34,1.01,0.27
				C20.66,25.52,21.08,25.5,21.57,25.44z M16.98,37.16c0.08,0.28,0.13,0.47,0.2,0.66c0.22,0.59,0.43,1.18,0.83,1.68
				c0.93,1.17,2.07,2,3.55,2.31c0.41,0.09,0.77-0.02,1.14-0.15c0.1-0.42,0.09-0.81-0.02-1.18c-0.17-0.57-0.43-1.11-0.59-1.68
				c-0.18-0.64-0.59-1.07-1.11-1.41c-0.58-0.38-1.26-0.47-1.94-0.44c-0.53,0.02-1.06,0.05-1.59,0.09
				C17.29,37.07,17.15,37.12,16.98,37.16z M23.64,20.46c0.23-0.2,0.45-0.34,0.6-0.53c0.69-0.86,1.47-1.6,2.52-2
				c0.04-0.02,0.08-0.05,0.11-0.08c0.12-0.61,0.27-1.21-0.12-1.78c-0.19,0.06-0.38,0.13-0.58,0.19c-0.75,0.24-1.51,0.44-2.29,0.52
				c-0.45,0.04-0.91,0.04-1.36,0.11c-0.49,0.08-0.99,0.2-1.46,0.36c-0.69,0.23-0.98,0.79-1.05,1.48c-0.01,0.12,0,0.26-0.04,0.37
				c-0.07,0.25-0.03,0.46,0.11,0.69C21.3,19.77,22.52,19.74,23.64,20.46z M34.51,27.85c-0.42,0.08-0.74,0.16-1.06,0.21
				c-1.13,0.19-2.2,0.53-3.13,1.23c-0.47,0.36-0.81,0.81-1,1.38c0.32,0.17,0.6,0.34,0.89,0.49c1.12,0.56,2.32,0.31,3.06-0.54
				c0.23-0.26,0.43-0.54,0.63-0.82C34.29,29.25,34.33,28.59,34.51,27.85z M17.65,13.52c-0.16-0.16-0.4-0.3-0.46-0.5
				c-0.15-0.45-0.35-0.93,0.07-1.37c0.01-0.01,0.02-0.03,0.02-0.04c-0.01-0.08,0.01-0.2-0.04-0.24c-0.05-0.04-0.19-0.05-0.25-0.01
				c-0.22,0.15-0.43,0.31-0.64,0.49c-0.55,0.47-0.88,1.06-0.89,1.79c0,0.25,0.01,0.51,0.08,0.74c0.2,0.63,0.74,0.81,1.32,0.88
				c0.64,0.07,1.25-0.11,1.84-0.3c0.48-0.15,0.93-0.38,1.38-0.58c0.29-0.13,0.57-0.22,0.9-0.16c0.33,0.06,0.68,0.07,1.01,0.09
				c0.07,0.13,0.13,0.24,0.2,0.38c0.06-0.27,0.11-0.51,0.17-0.8c-0.14-0.36-0.52-0.47-0.91-0.55c-0.42-0.09-0.84-0.04-1.26,0.03
				c-0.77,0.13-1.55,0.21-2.31,0.44c-0.33,0.1-0.68,0.14-1.02,0.19c-0.21,0.03-0.4-0.01-0.58-0.23
				C16.75,13.55,17.24,13.76,17.65,13.52z M25.91,24.46c0.52-0.21,0.99-0.32,1.25-0.82c0.3-0.58,0.64-1.15,0.96-1.72
				c0.01-0.03,0.01-0.06,0.02-0.09c0.26-0.51,0.45-1.07,0.85-1.5c0.08-0.09,0.15-0.18,0.27-0.31c-0.58,0-1.09,0.01-1.61,0
				c-0.64-0.02-1.21,0.17-1.73,0.51c-0.43,0.28-0.85,0.6-0.94,1.17c0.01,0.03,0.02,0.06,0.04,0.09c0.44,0.7,0.74,1.45,0.78,2.29
				C25.8,24.19,25.86,24.3,25.91,24.46z M30.7,35.5c0.25-0.37,0.21-0.79,0.21-1.19c0.02-0.66-0.14-1.26-0.72-1.69
				c-0.68-0.5-1.41-0.74-2.24-0.48c-0.15,0.05-0.3,0.09-0.45,0.13c-0.15,0.04-0.24,0.14-0.29,0.28c-0.23,0.62-0.01,1.17,0.37,1.61
				c0.56,0.65,1.35,0.95,2.15,1.17C30.04,35.41,30.35,35.44,30.7,35.5z M17.64,11.03c0.02,0.02,0.04,0.03,0.07,0.05
				c0.04-0.02,0.08-0.04,0.11-0.07c0.67-0.65,1.5-0.94,2.4-1.07c0.41-0.06,0.57,0.05,0.6,0.44c0.01,0.15,0,0.33-0.08,0.45
				c-0.43,0.7-1.01,1.2-1.88,1.22c-0.27,0.01-0.42,0.2-0.37,0.46c0.05,0.22,0.21,0.37,0.47,0.39c0.16,0.01,0.28,0.06,0.43,0.12
				c0.32,0.15,0.67,0.11,1-0.03c0.27-0.11,0.53-0.25,0.79-0.39c0.17-0.09,0.35-0.16,0.48-0.28c0.17-0.17,0.4-0.32,0.34-0.62
				c-0.07-0.37,0.09-0.62,0.43-0.78c0.08-0.04,0.16-0.1,0.23-0.16c0.39-0.29,0.42-0.6,0.06-0.93c-0.28-0.26-0.61-0.41-1.01-0.43
				c-0.87-0.04-1.72,0.09-2.53,0.39C19,9.87,18.83,10,18.64,10.06c-0.39,0.14-0.65,0.43-0.91,0.72
				C17.67,10.84,17.67,10.95,17.64,11.03z M28.57,26.5c-0.26,0.21-0.47,0.36-0.66,0.54c-0.18,0.17-0.35,0.36-0.5,0.56
				c-0.73,0.98-0.91,2.07-0.56,3.24c0.07,0.23,0.18,0.47,0.43,0.6c0.65-0.28,1.14-0.72,1.38-1.4c0.3-0.87,0.26-1.75,0.1-2.63
				C28.71,27.13,28.64,26.85,28.57,26.5z M15.49,18.53c0.41,1,1.23,1.33,2.15,1.42c0.54,0.06,1.1-0.03,1.64-0.06
				c0.1-0.01,0.21-0.03,0.32-0.05c0-0.42,0-0.81,0-1.2c-0.72-0.63-1.58-0.77-2.47-0.61C16.58,18.14,16.05,18.36,15.49,18.53z
				 M17.74,15.49c0,0.18-0.03,0.32,0.01,0.43c0.06,0.17,0.15,0.36,0.28,0.46c0.22,0.17,0.48,0.29,0.74,0.4
				c0.47,0.19,0.89,0.44,1.16,0.92c0.08-0.35,0.18-0.66,0.23-0.97c0.08-0.48,0.41-0.8,0.75-1.1c0.3-0.25,0.62-0.46,0.93-0.69
				c-0.17-0.32-0.25-0.37-0.57-0.4c-0.52-0.05-0.98,0.11-1.45,0.32c-0.47,0.21-0.96,0.37-1.45,0.53
				C18.19,15.43,17.98,15.44,17.74,15.49z M23.56,41.75c0.33-0.13,0.32-0.14,0.41-0.4c0.19-0.58,0.37-1.17,0.61-1.73
				c0.25-0.61,0.56-1.19,0.84-1.79c0.07-0.15,0.12-0.32,0.15-0.49c0.03-0.14,0.02-0.32-0.15-0.35c-0.1-0.02-0.24,0.06-0.32,0.14
				c-0.57,0.61-1.07,1.28-1.32,2.09c-0.11,0.35-0.23,0.69-0.32,1.04C23.34,40.75,23.31,41.25,23.56,41.75z M19.2,11.23
				c0.02,0.17,0.04,0.29,0.05,0.41c0.97-0.39,1.28-0.77,1.15-1.38c-0.78-0.07-1.43,0.27-2.06,0.67c-0.36,0.23-0.66,0.53-0.88,0.91
				c-0.3,0.53-0.01,1.23,0.58,1.37c0.18,0.04,0.36,0.05,0.61,0.08c-0.31-0.25-0.55-0.47-0.55-0.81c0-0.34,0.2-0.61,0.39-0.89
				C18.66,11.36,18.88,11.28,19.2,11.23z M21.33,12.94c0.14,0.03,0.23,0.05,0.31,0.07c0.63,0.14,1.05,0.47,1.13,1.15
				c0.01,0.11,0.11,0.21,0.16,0.32c0.39-0.08,0.76-0.09,1.13-0.28c-0.51-0.35-0.87-0.77-1.1-1.3c-0.23-0.52-0.25-1.08-0.24-1.66
				c-0.33,0.18-0.34,0.18-0.35,0.42c-0.03,0.55-0.25,0.96-0.8,1.14C21.5,12.82,21.44,12.87,21.33,12.94z M26.56,38.76
				c-0.93,0.32-2,1.92-2.06,3c0.21,0.02,0.42,0.04,0.67,0.07C25.46,40.74,25.91,39.75,26.56,38.76z M25.74,41.88
				c0.4,0.11,0.79-0.04,1.05-0.39c0.3-0.42,0.39-0.91,0.49-1.4c0-0.02-0.04-0.04-0.06-0.07C26.65,40.18,25.92,41.09,25.74,41.88z"/>
			<path class="st48" d="M34.9,27.08c0.01,0,0.02,0,0.03,0c0.01,0.01,0.01,0.02,0.01,0.04c-0.02,0-0.03,0-0.04-0.01
				C34.89,27.1,34.89,27.09,34.9,27.08z"/>
			<path class="st48" d="M32.75,33.18c-0.01,0-0.02,0.01-0.03,0.01c0-0.01-0.01-0.03-0.01-0.04c0,0,0.02-0.01,0.03-0.01
				C32.74,33.15,32.75,33.17,32.75,33.18z"/>
			<path class="st48" d="M16.88,38.28c-0.1-0.06-0.11-0.13,0-0.19l-0.01-0.01C16.87,38.15,16.87,38.22,16.88,38.28L16.88,38.28z"/>
			<linearGradient id="SVGID_22_" gradientUnits="userSpaceOnUse" x1="10.1961" y1="20.4253" x2="24.9145" y2="20.4253">
				<stop  offset="0" style="stop-color:#FFFFFF"/>
				<stop  offset="1" style="stop-color:#BB1D6C"/>
			</linearGradient>
			<path style="fill-rule:evenodd;clip-rule:evenodd;fill:url(#SVGID_22_);" d="M11.99,16.15c-0.08,0.9,0.36,1.67,1.12,2.09
				c0.48,0.26,0.98,0.43,1.53,0.37c0.12-0.01,0.25,0,0.38,0c0.36,0.86,1.13,1.22,1.87,1.6c0.12,0.06,0.27,0.06,0.41,0.07
				c1.05,0.08,2.1-0.06,3.14-0.14c0.52-0.04,1.03,0.04,1.54,0.09c0.86,0.09,1.51,0.51,2.11,1.06c0.31,0.29,0.62,0.61,0.82,1.07
				c-0.9-0.6-1.83-1-2.82-1.24c-0.58-0.14-1.16-0.14-1.76,0c-0.96,0.22-1.7,0.79-2.49,1.3c-0.25,0.16-0.48,0.35-0.71,0.54
				c-0.16,0.13-0.29,0.28-0.43,0.42c-0.2,0.2-0.39,0.39-0.67,0.51c-0.26,0.11-0.47,0.34-0.73,0.48c-0.64,0.35-1.33,0.47-2.04,0.29
				c-0.18-0.04-0.35-0.13-0.51-0.22c-0.43-0.24-0.79-0.55-1.1-0.94c-0.44-0.55-0.52-1.16-0.42-1.82c0.04-0.28,0.1-0.56,0.18-0.83
				c0.13-0.42-0.03-0.74-0.33-1.01c-0.1-0.09-0.22-0.18-0.34-0.26c-0.55-0.36-0.68-0.83-0.45-1.46c0.27-0.77,0.73-1.39,1.4-1.85
				c0.05-0.04,0.11-0.07,0.16-0.09C11.88,16.14,11.92,16.15,11.99,16.15z"/>
			<linearGradient id="SVGID_23_" gradientUnits="userSpaceOnUse" x1="20.1993" y1="12.5691" x2="29.075" y2="12.5691">
				<stop  offset="0" style="stop-color:#FFFFFF"/>
				<stop  offset="1" style="stop-color:#BB1D6C"/>
			</linearGradient>
			<path style="fill-rule:evenodd;clip-rule:evenodd;fill:url(#SVGID_23_);" d="M26.48,12.06c-0.02,0.1-0.05,0.19-0.04,0.27
				c0.04,0.68-0.35,1.09-0.89,1.38c-0.25,0.13-0.52,0.21-0.84,0.33c-0.33-0.22-0.72-0.41-1.02-0.69c-0.46-0.44-0.63-1.04-0.66-1.67
				c-0.01-0.23,0-0.47,0-0.76c0.43-0.5,0.36-0.96-0.18-1.43C22.27,9,21.6,8.97,20.9,9.05c-0.22,0.02-0.43,0.05-0.7,0.09
				c0.23-0.42,0.6-0.56,0.94-0.66c0.89-0.27,1.8-0.46,2.74-0.38c0.53,0.05,1.06,0.19,1.5,0.52c0.21,0.16,0.41,0.37,0.5,0.61
				c0.18,0.49,0.57,0.59,1,0.65c0.61,0.09,1.13,0.36,1.6,0.75c0.17,0.14,0.27,0.31,0.24,0.54c-0.03,0.25,0.04,0.47,0.17,0.67
				c0.22,0.36,0.24,0.73,0.12,1.13c-0.11,0.36-0.19,0.73-0.29,1.09c-0.21,0.69-0.76,1.06-1.36,1.36c-1.06,0.53-2.2,0.83-3.36,1.06
				c-0.37,0.07-0.75,0.1-1.12,0.1c-0.62-0.01-1.21,0.15-1.79,0.33c-0.15,0.05-0.3,0.1-0.47,0.16c-0.09-0.34,0.04-0.61,0.22-0.84
				c0.25-0.3,0.55-0.55,0.88-0.78c0.7-0.49,1.51-0.67,2.32-0.87c0.64-0.15,1.28-0.34,1.85-0.68c0.56-0.33,0.92-1.01,0.84-1.58
				C26.7,12.21,26.7,12.21,26.48,12.06z"/>
			<linearGradient id="SVGID_24_" gradientUnits="userSpaceOnUse" x1="24.0279" y1="16.7041" x2="33.3671" y2="16.7041">
				<stop  offset="0" style="stop-color:#FFFFFF"/>
				<stop  offset="1" style="stop-color:#BB1D6C"/>
			</linearGradient>
			<path style="fill-rule:evenodd;clip-rule:evenodd;fill:url(#SVGID_24_);" d="M27.25,15.85c0.2-0.12,0.45-0.28,0.7-0.43
				c0.75-0.42,1.15-1.09,1.33-1.91c0.07-0.34,0.14-0.67,0.19-1.01c0.04-0.24,0.22-0.3,0.41-0.33c0.36-0.05,0.69,0.05,0.97,0.28
				c0.12,0.1,0.24,0.21,0.32,0.34c0.37,0.55,0.89,0.93,1.41,1.3c0.13,0.09,0.25,0.18,0.37,0.29c0.39,0.34,0.51,0.84,0.31,1.31
				c-0.32,0.75-0.7,1.48-1.18,2.14c-0.32,0.45-0.7,0.85-1.19,1.12c-0.05,0.03-0.11,0.06-0.16,0.11c-0.48,0.44-1.07,0.54-1.69,0.56
				c-0.59,0.02-1.19,0.03-1.77,0.09c-1.01,0.11-1.84,0.59-2.49,1.36c-0.04,0.05-0.08,0.09-0.15,0.17c-0.2-0.16-0.39-0.31-0.6-0.48
				c0.59-0.8,1.11-1.6,1.97-2.1c0.41-0.24,0.82-0.48,1.26-0.64c0.59-0.23,1.07-0.59,1.49-1.05c0.31-0.33,0.59-0.69,0.88-1.04
				c0.06-0.07,0.12-0.16,0.12-0.24c0-0.07-0.07-0.18-0.14-0.21c-0.06-0.02-0.21,0.03-0.23,0.08c-0.17,0.6-0.64,0.96-1.06,1.36
				c-0.28,0.27-0.61,0.48-1,0.78C27.3,17.05,27.27,16.48,27.25,15.85z"/>
			<linearGradient id="SVGID_25_" gradientUnits="userSpaceOnUse" x1="12.3223" y1="14.345" x2="19.5909" y2="14.345">
				<stop  offset="0" style="stop-color:#FFFFFF"/>
				<stop  offset="1" style="stop-color:#BB1D6C"/>
			</linearGradient>
			<path style="fill-rule:evenodd;clip-rule:evenodd;fill:url(#SVGID_25_);" d="M17.32,15.58c0,0.2,0,0.35,0,0.56
				c-0.17-0.05-0.3-0.1-0.42-0.14c-0.55-0.17-1.08-0.44-1.67-0.48c-0.2-0.01-0.32,0.04-0.43,0.21c0.06,0.05,0.09,0.1,0.12,0.1
				c0.57-0.02,1.07,0.23,1.59,0.39c0.06,0.02,0.12,0.06,0.18,0.07c0.83,0.13,1.54,0.55,2.26,0.92c0.37,0.19,0.7,0.42,0.63,0.96
				c-0.53-0.3-1.09-0.44-1.67-0.5c-0.34-0.04-0.65,0.01-0.97,0.11c-0.57,0.17-1.14,0.36-1.72,0.48c-0.78,0.16-1.54,0.02-2.21-0.43
				c-0.54-0.35-0.81-1.21-0.62-1.9c0.12-0.44,0.37-0.79,0.72-1.08c0.29-0.23,0.34-0.41,0.19-0.73c-0.35-0.71-0.23-1.41,0.36-2.02
				c0.74-0.77,1.65-1.25,2.63-1.62c0.27-0.1,0.59-0.1,0.88-0.11c0.08,0,0.17,0.09,0.26,0.15c-0.06,0.1-0.1,0.26-0.18,0.29
				c-0.51,0.2-0.88,0.6-1.28,0.95c-0.52,0.45-0.72,1.04-0.81,1.7c-0.06,0.43-0.07,0.84,0.15,1.23c0.32,0.6,0.81,0.9,1.5,0.89
				C16.95,15.57,17.11,15.58,17.32,15.58z"/>
			<linearGradient id="SVGID_26_" gradientUnits="userSpaceOnUse" x1="16.9976" y1="23.4672" x2="25.528" y2="23.4672">
				<stop  offset="0" style="stop-color:#FFFFFF"/>
				<stop  offset="1" style="stop-color:#BB1D6C"/>
			</linearGradient>
			<path class="st87" d="M21.57,25.44c-0.49,0.05-0.91,0.08-1.33,0.15c-0.39,0.07-0.72-0.07-1.01-0.27
				c-0.45-0.31-0.88-0.66-1.32-0.99c-0.29-0.23-0.58-0.46-0.92-0.72c0.03-0.05,0.08-0.16,0.17-0.23c0.66-0.5,1.27-1.09,2.03-1.45
				c0.48-0.23,0.99-0.4,1.5-0.56c0.19-0.06,0.41-0.03,0.61-0.01c0.77,0.07,1.47,0.37,2.18,0.65c0.58,0.23,0.98,0.67,1.45,1.02
				c0.38,0.29,0.49,0.71,0.55,1.15c0.02,0.14,0.03,0.28,0.05,0.46c-0.31,0.18-0.65,0.37-1,0.58c-0.07-0.11-0.12-0.2-0.17-0.29
				c-0.18-0.26-0.35-0.52-0.63-0.69c-0.31-0.19-0.61-0.38-0.81-0.7c-0.05-0.08-0.17-0.13-0.26-0.2c-0.19,0.18-0.23,0.34-0.1,0.56
				c0.29,0.48,0.2,1.03,0.3,1.58c-0.3-0.02-0.45-0.16-0.57-0.34c-0.17-0.25-0.36-0.47-0.73-0.57c-0.04,0.16-0.09,0.31-0.09,0.45
				C21.47,25.15,21.53,25.3,21.57,25.44z"/>
			<path class="st92" d="M22.08,25.6c0.07,0.01,0.15-0.01,0.19,0.02c0.17,0.14,0.32,0.31,0.49,0.44c0.24,0.18,0.43,0.09,0.45-0.2
				c0.01-0.12-0.03-0.25-0.04-0.37c-0.04-0.42-0.07-0.83-0.11-1.28c0.34,0.13,0.6,0.34,0.81,0.59c0.1,0.12,0.14,0.31,0.19,0.47
				c0.03,0.09,0,0.19,0.01,0.28c0.04,0.21,0.2,0.27,0.39,0.16c0.38-0.23,0.74-0.48,1.13-0.67c0.44-0.21,0.9-0.37,1.35-0.54
				c0.19-0.07,0.19-0.06,0.5,0.14c-0.01,0.03-0.02,0.07-0.04,0.08c-0.99,0.43-1.33,1.28-1.43,2.27c-0.05,0.51-0.15,0.99-0.46,1.41
				c-0.14,0.19-0.28,0.36-0.52,0.45c-0.28,0.1-0.3,0.22-0.18,0.52c0.08,0.19,0.16,0.37,0.24,0.56c0.26,0.66,0.27,1.35,0.22,2.04
				c-0.02,0.23-0.07,0.47-0.05,0.7c0.07,0.66-0.12,1.29-0.35,1.88c-0.4,1.04-0.9,2.04-1.31,3.08c-0.21,0.52-0.31,1.08-0.45,1.63
				c-0.06,0.22-0.09,0.45-0.14,0.7c-0.49-0.72-0.54-1.25-0.21-1.98c0.29-0.66,0.62-1.3,0.89-1.97c0.32-0.78,0.67-1.56,0.84-2.4
				c0.16-0.83,0.24-1.64,0.04-2.47c-0.08-0.33-0.11-0.68-0.21-1.01c-0.12-0.37-0.29-0.72-0.45-1.08c-0.03-0.08-0.13-0.13-0.21-0.18
				c-0.54-0.34-0.96-0.79-1.31-1.33c-0.42-0.63-1.06-1.01-1.75-1.3c-0.09-0.04-0.21-0.01-0.32,0c-0.4,0.04-0.81,0.08-1.25,0.13
				c0.26-0.3,0.3-0.32,0.72-0.39c0.17-0.03,0.34-0.04,0.51-0.08c0.61-0.15,1.18-0.1,1.67,0.32C22.31,26.09,22.11,25.82,22.08,25.6
				L22.08,25.6z"/>
			<path class="st92" d="M16.98,37.16c0.17-0.04,0.32-0.1,0.46-0.11c0.53-0.04,1.06-0.07,1.59-0.09c0.69-0.03,1.36,0.05,1.94,0.44
				c0.52,0.34,0.93,0.77,1.11,1.41c0.16,0.57,0.42,1.11,0.59,1.68c0.11,0.37,0.12,0.77,0.02,1.18c-0.37,0.13-0.73,0.23-1.14,0.15
				c-1.49-0.31-2.62-1.15-3.55-2.31c-0.4-0.5-0.62-1.09-0.83-1.68C17.11,37.63,17.06,37.44,16.98,37.16z"/>
			<linearGradient id="SVGID_27_" gradientUnits="userSpaceOnUse" x1="19.9273" y1="18.2713" x2="26.9961" y2="18.2713">
				<stop  offset="0" style="stop-color:#FFFFFF"/>
				<stop  offset="1" style="stop-color:#BB1D6C"/>
			</linearGradient>
			<path class="st88" d="M23.64,20.46c-1.11-0.72-2.34-0.69-3.57-0.64c-0.14-0.23-0.18-0.45-0.11-0.69
				c0.04-0.12,0.02-0.25,0.04-0.37c0.07-0.69,0.36-1.25,1.05-1.48c0.47-0.16,0.97-0.28,1.46-0.36c0.45-0.08,0.91-0.07,1.36-0.11
				c0.79-0.07,1.54-0.28,2.29-0.52c0.2-0.06,0.39-0.13,0.58-0.19c0.4,0.57,0.24,1.17,0.12,1.78c-0.03,0.02-0.06,0.06-0.11,0.08
				c-1.05,0.4-1.83,1.14-2.52,2C24.08,20.12,23.87,20.26,23.64,20.46z"/>
			<path class="st92" d="M34.51,27.85c-0.18,0.73-0.22,1.4-0.62,1.96c-0.2,0.28-0.4,0.56-0.63,0.82c-0.74,0.84-1.94,1.1-3.06,0.54
				c-0.29-0.15-0.57-0.32-0.89-0.49c0.19-0.58,0.53-1.03,1-1.38c0.93-0.7,2-1.04,3.13-1.23C33.77,28.01,34.09,27.94,34.51,27.85z"/>
			<linearGradient id="SVGID_28_" gradientUnits="userSpaceOnUse" x1="15.4646" y1="13.2976" x2="22.377" y2="13.2976">
				<stop  offset="0" style="stop-color:#FFFFFF"/>
				<stop  offset="1" style="stop-color:#BB1D6C"/>
			</linearGradient>
			<path class="st89" d="M17.65,13.52c-0.41,0.24-0.9,0.03-1.35,0.25c0.18,0.23,0.37,0.27,0.58,0.23c0.34-0.05,0.69-0.09,1.02-0.19
				c0.76-0.23,1.54-0.31,2.31-0.44c0.42-0.07,0.84-0.12,1.26-0.03c0.39,0.08,0.77,0.18,0.91,0.55c-0.06,0.29-0.11,0.52-0.17,0.8
				c-0.07-0.13-0.13-0.25-0.2-0.38c-0.34-0.03-0.68-0.04-1.01-0.09c-0.33-0.06-0.61,0.03-0.9,0.16c-0.46,0.21-0.91,0.43-1.38,0.58
				c-0.6,0.19-1.21,0.37-1.84,0.3c-0.58-0.07-1.12-0.25-1.32-0.88c-0.07-0.23-0.08-0.49-0.08-0.74c0.01-0.74,0.34-1.32,0.89-1.79
				c0.2-0.17,0.41-0.34,0.64-0.49c0.06-0.04,0.2-0.03,0.25,0.01c0.05,0.04,0.03,0.16,0.04,0.24c0,0.01-0.01,0.03-0.02,0.04
				c-0.41,0.43-0.22,0.92-0.07,1.37C17.25,13.21,17.49,13.35,17.65,13.52z"/>
			<linearGradient id="SVGID_29_" gradientUnits="userSpaceOnUse" x1="24.9776" y1="22.2373" x2="29.2625" y2="22.2373">
				<stop  offset="0" style="stop-color:#FFFFFF"/>
				<stop  offset="1" style="stop-color:#BB1D6C"/>
			</linearGradient>
			<path class="st90" d="M25.91,24.46c-0.05-0.16-0.11-0.28-0.11-0.4c-0.04-0.84-0.34-1.59-0.78-2.29
				c-0.02-0.03-0.02-0.06-0.04-0.09c0.09-0.56,0.51-0.89,0.94-1.17c0.52-0.34,1.1-0.53,1.73-0.51c0.52,0.01,1.04,0,1.61,0
				c-0.11,0.13-0.19,0.23-0.27,0.31c-0.4,0.44-0.59,0.99-0.85,1.5c-0.01,0.03-0.01,0.06-0.02,0.09c-0.32,0.57-0.66,1.13-0.96,1.72
				C26.9,24.14,26.43,24.26,25.91,24.46z"/>
			<path class="st92" d="M30.7,35.5c-0.36-0.06-0.67-0.09-0.97-0.17c-0.81-0.22-1.6-0.53-2.15-1.17c-0.38-0.44-0.59-0.99-0.37-1.61
				c0.05-0.14,0.14-0.24,0.29-0.28c0.15-0.04,0.3-0.08,0.45-0.13c0.84-0.26,1.56-0.02,2.24,0.48c0.58,0.43,0.74,1.03,0.72,1.69
				C30.91,34.7,30.95,35.13,30.7,35.5z"/>
			<linearGradient id="SVGID_30_" gradientUnits="userSpaceOnUse" x1="17.6408" y1="11.2627" x2="22.9898" y2="11.2627">
				<stop  offset="0" style="stop-color:#FFFFFF"/>
				<stop  offset="1" style="stop-color:#BB1D6C"/>
			</linearGradient>
			<path class="st91" d="M17.64,11.03c0.03-0.08,0.03-0.19,0.09-0.25c0.26-0.29,0.52-0.58,0.91-0.72C18.83,10,19,9.87,19.19,9.8
				c0.82-0.3,1.66-0.43,2.53-0.39c0.4,0.02,0.73,0.17,1.01,0.43c0.36,0.33,0.33,0.64-0.06,0.93c-0.08,0.06-0.15,0.12-0.23,0.16
				c-0.34,0.16-0.5,0.4-0.43,0.78c0.06,0.3-0.17,0.46-0.34,0.62c-0.13,0.13-0.32,0.2-0.48,0.28c-0.26,0.13-0.52,0.27-0.79,0.39
				c-0.33,0.14-0.68,0.18-1,0.03c-0.15-0.07-0.27-0.11-0.43-0.12c-0.26-0.02-0.43-0.17-0.47-0.39c-0.05-0.26,0.11-0.46,0.37-0.46
				c0.87-0.03,1.45-0.52,1.88-1.22c0.07-0.12,0.09-0.3,0.08-0.45c-0.04-0.39-0.2-0.5-0.6-0.44c-0.9,0.13-1.73,0.42-2.4,1.07
				c-0.03,0.03-0.07,0.05-0.11,0.07C17.68,11.07,17.66,11.05,17.64,11.03z"/>
			<path class="st92" d="M28.57,26.5c0.07,0.35,0.14,0.63,0.19,0.91c0.16,0.88,0.2,1.77-0.1,2.63c-0.23,0.68-0.72,1.11-1.38,1.4
				c-0.25-0.13-0.36-0.37-0.43-0.6c-0.35-1.17-0.17-2.26,0.56-3.24c0.15-0.2,0.32-0.39,0.5-0.56C28.1,26.86,28.31,26.71,28.57,26.5z
				"/>
			<linearGradient id="SVGID_31_" gradientUnits="userSpaceOnUse" x1="15.4908" y1="18.9781" x2="19.5962" y2="18.9781">
				<stop  offset="0" style="stop-color:#FFFFFF"/>
				<stop  offset="1" style="stop-color:#BB1D6C"/>
			</linearGradient>
			<path class="st93" d="M15.49,18.53c0.56-0.17,1.09-0.39,1.64-0.49c0.89-0.16,1.74-0.02,2.47,0.61c0,0.39,0,0.78,0,1.2
				c-0.11,0.02-0.21,0.04-0.32,0.05c-0.55,0.03-1.1,0.11-1.64,0.06C16.72,19.86,15.9,19.53,15.49,18.53z"/>
			<linearGradient id="SVGID_32_" gradientUnits="userSpaceOnUse" x1="17.7227" y1="16.1" x2="21.8401" y2="16.1">
				<stop  offset="0" style="stop-color:#FFFFFF"/>
				<stop  offset="1" style="stop-color:#BB1D6C"/>
			</linearGradient>
			<path class="st94" d="M17.74,15.49c0.25-0.05,0.45-0.06,0.64-0.12c0.49-0.16,0.98-0.32,1.45-0.53c0.47-0.21,0.93-0.37,1.45-0.32
				c0.32,0.03,0.39,0.08,0.57,0.4c-0.31,0.23-0.64,0.44-0.93,0.69c-0.35,0.29-0.67,0.61-0.75,1.1c-0.06,0.32-0.15,0.63-0.23,0.97
				c-0.26-0.47-0.68-0.72-1.16-0.92c-0.26-0.11-0.52-0.23-0.74-0.4c-0.13-0.1-0.22-0.29-0.28-0.46
				C17.7,15.81,17.74,15.67,17.74,15.49z"/>
			<path class="st99" d="M23.56,41.75c-0.25-0.5-0.22-1-0.1-1.49c0.09-0.35,0.21-0.69,0.32-1.04c0.25-0.82,0.74-1.48,1.32-2.09
				c0.08-0.08,0.22-0.16,0.32-0.14c0.17,0.03,0.18,0.21,0.15,0.35c-0.03,0.17-0.08,0.34-0.15,0.49c-0.28,0.6-0.59,1.18-0.84,1.79
				c-0.23,0.56-0.41,1.15-0.61,1.73C23.89,41.62,23.9,41.62,23.56,41.75z"/>
			<linearGradient id="SVGID_33_" gradientUnits="userSpaceOnUse" x1="17.3358" y1="11.7757" x2="20.4242" y2="11.7757">
				<stop  offset="0" style="stop-color:#FFFFFF"/>
				<stop  offset="1" style="stop-color:#BB1D6C"/>
			</linearGradient>
			<path class="st95" d="M19.2,11.23c-0.32,0.05-0.54,0.13-0.7,0.36c-0.19,0.27-0.39,0.54-0.39,0.89c0,0.34,0.24,0.56,0.55,0.81
				c-0.25-0.03-0.43-0.04-0.61-0.08c-0.59-0.14-0.88-0.83-0.58-1.37c0.22-0.38,0.52-0.68,0.88-0.91c0.63-0.4,1.28-0.74,2.06-0.67
				c0.14,0.61-0.18,0.98-1.15,1.38C19.23,11.52,19.22,11.4,19.2,11.23z"/>
			<linearGradient id="SVGID_34_" gradientUnits="userSpaceOnUse" x1="21.3272" y1="12.855" x2="24.0661" y2="12.855">
				<stop  offset="0" style="stop-color:#FFFFFF"/>
				<stop  offset="1" style="stop-color:#BB1D6C"/>
			</linearGradient>
			<path class="st96" d="M21.33,12.94c0.12-0.07,0.18-0.12,0.25-0.14c0.55-0.18,0.78-0.59,0.8-1.14c0.01-0.24,0.02-0.24,0.35-0.42
				c-0.02,0.58,0.01,1.14,0.24,1.66c0.23,0.53,0.6,0.95,1.1,1.3c-0.37,0.19-0.75,0.2-1.13,0.28c-0.05-0.1-0.15-0.2-0.16-0.32
				c-0.09-0.68-0.51-1.01-1.13-1.15C21.55,13,21.47,12.98,21.33,12.94z"/>
			<path class="st99" d="M26.56,38.76c-0.65,1-1.1,1.99-1.39,3.07c-0.25-0.03-0.46-0.05-0.67-0.07
				C24.56,40.67,25.63,39.07,26.56,38.76z"/>
			<path class="st99" d="M25.74,41.88c0.18-0.79,0.91-1.7,1.48-1.86c0.02,0.02,0.06,0.05,0.06,0.07c-0.09,0.49-0.19,0.99-0.49,1.4
				C26.53,41.84,26.14,41.98,25.74,41.88z"/>
			<path class="st50" d="M22.08,25.59c-0.06-0.09-0.12-0.19-0.18-0.28c0.03-0.01,0.07-0.02,0.1-0.04
				C22.03,25.38,22.05,25.49,22.08,25.59L22.08,25.59z"/>
			<path class="st50" d="M23.59,38.74c0,0.07-0.01,0.15-0.01,0.22c-0.02,0-0.04-0.01-0.05-0.01C23.55,38.89,23.57,38.82,23.59,38.74
				L23.59,38.74z"/>
			<path class="st50" d="M16.87,38.28c0-0.07,0-0.13,0-0.2C16.96,38.15,16.96,38.22,16.87,38.28z"/>
			<path class="st50" d="M24.63,40.35c-0.01,0.04-0.02,0.08-0.03,0.12C24.62,40.44,24.63,40.4,24.63,40.35L24.63,40.35z"/>
			<path class="st50" d="M25.86,40.73c-0.01,0.04-0.02,0.08-0.03,0.13C25.85,40.82,25.86,40.78,25.86,40.73L25.86,40.73z"/>
			<path class="st102" d="M16.74,37.17c1.16,0.36,2.23,1.14,3.24,1.82c0.93,0.63,2.61,1.54,3.07,2.57c-2.69,1-5.82-1.7-6.24-4.39"/>
			<path class="st102" d="M29.23,30.86c0.31-0.65,2.21-0.92,2.88-1.33c0.9-0.56,1.79-1.12,2.57-1.82c-0.45,1.16-0.66,2.28-1.58,3.2
				c-0.97,0.96-2.73,0.78-3.8,0.15"/>
			<path class="st102" d="M27.06,32.5c1.62,0.45,3.09,1.41,3.85,2.96c-0.69,0.27-1.9-0.17-2.54-0.53c-1.03-0.57-1.31-1.22-1.31-2.37
				"/>
		</g>
	</g>
</g>
</svg>
