<svg clip-rule="evenodd" fill-rule="evenodd" stroke-linejoin="round" stroke-miterlimit="2" viewBox="0 0 93 80" xmlns="http://www.w3.org/2000/svg"><g fill="#060000"><path d="m1.832 42.102c-.759 6.745 1.576 11.834 5.808 16.212 2.613 2.702 5.632 4.656 9.284 5.812 6.531 2.067 13.134 3.823 19.894 4.855 5.84.891 11.492 2.274 16.861 4.768 1.456.676 2.929 1.335 4.445 1.858 5.157 1.776 10.485 1.522 15.782 1.041 5.446-.495 10.029-2.828 13.457-7.177 1.231-1.561 1.958-3.361 2.21-5.342-1.719 1.641-3.262 3.373-4.828 5.082-.425.464-.849 1.038-1.396 1.263-5.094 2.101-10.312 3.759-15.921 3.092-2.865-.34-5.736-.82-8.526-1.541-5.295-1.367-10.519-2.946-15.435-5.459-5.106-2.61-10.54-4.27-16.185-5.399-3.28-.657-6.573-1.694-9.593-3.124-6.948-3.289-12.437-8.235-15.857-15.941z"/><path d="m44.461 1.735c-10.646-.077-20.887 3.29-30.065 9.844-5.583 3.987-9.679 9.122-11.308 15.957-.618 2.593-.641 5.189-.59 7.867.103 5.39 2.049 9.886 5.604 13.729 5.851 6.322 13.217 9.809 21.658 11.154 5.367.856 10.39 2.799 15.255 5.1 7.401 3.503 15.036 6.087 23.245 6.735 4.606.364 8.876-1.103 13.151-2.504.224-.073.44-.209.623-.36 2.821-2.316 5.416-4.874 7.052-8.166 1.146-2.307 1.291-4.96.115-7.225-1.955-3.763-4.215-7.372-7.35-10.353-1.276-1.212-2.472-2.584-3.395-4.074-1.657-2.678-2.472-5.55-1.086-8.687 1.104-2.497 2.205-5.005 3.107-7.578 1.43-4.074.287-10-3.777-13.352-5.568-4.595-12.183-6.463-19.089-7.396-4.109-.554-8.306-.46-13.15-.691z"/><path d="m79.664 37.567c4.055-6.161 5.206-12.485 3.104-15.726-1.297 3.089-2.608 6.273-3.973 9.433-.951 2.201-.586 4.179.869 6.293z"/></g><path d="m45.111.128c5.049.251 10.1.483 15.147.774.785.045 1.567.317 2.328.556 1.917.603 3.823 1.238 5.728 1.876 3.942 1.319 7.481 3.332 10.513 6.19 1.806 1.703 2.893 3.822 3.592 6.192.429 1.455.96 2.897 1.613 4.264.965 2.018 1.254 4.071 1.112 6.303-.27 4.279-1.44 8.216-3.845 11.773-.707 1.044-.544 1.917.373 2.777.82.769 1.502 1.685 2.311 2.466 2.82 2.72 5.11 5.901 6.466 9.498 3.101 8.221 2.424 15.467-5.393 21.47-4.001 3.073-8.663 4.025-13.523 4.437-6.729.572-13.125-.54-19.215-3.533-6.665-3.275-13.963-4.195-21.145-5.601-4.874-.953-9.664-2.359-14.461-3.675-7.496-2.056-11.779-7.578-15.284-14.068-.985-1.823-1.344-3.575-1.246-5.488.296-5.861.667-11.718 1.037-17.574.216-3.428 1.995-6.281 3.726-9.053 4.148-6.643 10.316-10.956 17.277-14.226 7.238-3.401 14.834-5.283 22.889-5.358z" fill="#84002d"/><path d="m1.832 42.102c-.759 6.745 1.576 11.834 5.808 16.212 2.613 2.702 5.632 4.656 9.284 5.812 6.531 2.067 13.134 3.823 19.894 4.855 5.84.891 11.492 2.274 16.861 4.768 1.456.676 2.929 1.335 4.445 1.858 5.157 1.776 10.485 1.522 15.782 1.041 5.446-.495 10.029-2.828 13.457-7.177 1.231-1.561 1.958-3.361 2.21-5.342-1.719 1.641-3.262 3.373-4.828 5.082-.425.464-.849 1.038-1.396 1.263-5.094 2.101-10.312 3.759-15.921 3.092-2.865-.34-5.736-.82-8.526-1.541-5.295-1.367-10.519-2.946-15.435-5.459-5.106-2.61-10.54-4.27-16.185-5.399-3.28-.657-6.573-1.694-9.593-3.124-6.948-3.289-12.437-8.235-15.857-15.941z" fill="#b21116"/><path d="m44.461 1.735c-10.646-.077-20.887 3.29-30.065 9.844-5.583 3.987-9.679 9.122-11.308 15.957-.618 2.593-.641 5.189-.59 7.867.103 5.39 2.049 9.886 5.604 13.729 5.851 6.322 13.217 9.809 21.658 11.154 5.367.856 10.39 2.799 15.255 5.1 7.401 3.503 15.036 6.087 23.245 6.735 4.606.364 8.876-1.103 13.151-2.504.224-.073.44-.209.623-.36 2.821-2.316 5.416-4.874 7.052-8.166 1.146-2.307 1.291-4.96.115-7.225-1.955-3.763-4.215-7.372-7.35-10.353-1.276-1.212-2.472-2.584-3.395-4.074-1.657-2.678-2.472-5.55-1.086-8.687 1.104-2.497 2.205-5.005 3.107-7.578 1.43-4.074.287-10-3.777-13.352-5.568-4.595-12.183-6.463-19.089-7.396-4.109-.554-8.306-.46-13.15-.691z" fill="#84002d"/><path d="m79.664 37.567c4.055-6.161 5.206-12.485 3.104-15.726-1.297 3.089-2.608 6.273-3.973 9.433-.951 2.201-.586 4.179.869 6.293z" fill="#b21116"/><path d="m54.181 34.603c-3.018-.042-5.084.712-6.854 2.001-2.565 1.867-3.766 5.958-.479 7.885 4.939 2.896 10.062 3.788 15.675.014 2.483-1.67 2.663-3.921.542-6.073-2.642-2.681-6.113-3.351-8.884-3.827m-6.876-29.72c-3.507.475-6.641.744-9.708 1.347-6.113 1.202-12.058 2.969-17.171 6.717-2.791 2.046-5.384 4.361-8.171 6.412-2.555 1.882-4.447 4.187-5.337 7.239-.72 2.47-1.436 4.948-2.002 7.456-1.32 5.859 1.411 11.283 6.857 13.779 3.8 1.743 7.519 3.714 11.439 5.124 4.454 1.601 9.108 2.64 13.644 4.024 2.139.654 4.293 1.371 6.289 2.364 3.022 1.504 5.874 3.35 8.869 4.912 4.162 2.169 8.67 3.362 13.252 4.219 3.684.689 7.365.703 10.888-.899 1.173-.533 2.396-.97 3.524-1.585 3.868-2.111 5.703-5.173 4.876-9.773-1.022-5.678-4.132-9.543-9.47-11.865-2.718-1.182-5.515-.541-6.841 2.294-1.873 4.005-5.375 5.61-9.558 5.908-5.909.422-11.158-1.576-15.729-5.092-5.624-4.328-5.066-9.724-.909-13.898 1.397-1.401 3.541-2.175 5.469-2.904 3.929-1.485 8.019-1.723 12.121-.776 2.171.501 4.052 1.534 5.203 3.585 1.039 1.854 2.323 3.518 4.241 4.523 1.89.991 3.22.189 3.251-1.871.007-.482-.057-.966-.097-1.448-.14-1.648.123-3.123 1.142-4.553 1.16-1.626 2.265-3.374 2.959-5.232 2.088-5.586.561-12.349-6.598-15.277-2.992-1.223-5.956-2.345-9.187-2.768-4.534-.593-9.05-1.334-13.246-1.962m-2.845-3.147c4.844.23 9.041.136 13.151.691 6.905.932 13.52 2.801 19.089 7.395 4.063 3.353 5.207 9.278 3.777 13.353-.902 2.573-2.004 5.08-3.108 7.577-1.385 3.137-.571 6.009 1.086 8.687.923 1.491 2.12 2.862 3.395 4.075 3.136 2.98 5.395 6.589 7.351 10.353 1.175 2.264 1.031 4.917-.116 7.225-1.635 3.291-4.23 5.849-7.051 8.165-.184.151-.4.287-.624.36-4.275 1.402-8.544 2.868-13.151 2.505-8.209-.649-15.844-3.233-23.245-6.735-4.864-2.302-9.888-4.245-15.255-5.101-8.44-1.345-15.807-4.832-21.657-11.154-3.556-3.842-5.501-8.339-5.605-13.729-.05-2.678-.028-5.274.59-7.867 1.629-6.835 5.726-11.97 11.309-15.957 9.178-6.554 19.419-9.921 30.064-9.843" fill="#fbf8dd" fill-rule="nonzero"/><path d="m70.298 36.534c.129-.42.289-.661.253-.868-.423-2.441.234-4.547 1.579-6.625 1.125-1.74 2.054-3.668 2.723-5.631 1.571-4.606-.428-9.014-4.551-11.496-4.754-2.862-10.121-3.538-15.331-4.781-1.781-.425-3.667-.461-5.512-.564-4.789-.266-9.474.47-14.119 1.57-5.214 1.235-10.19 2.995-14.545 6.24-4.293 3.198-7.913 7.051-11.223 11.234-2.672 3.377-3.769 7.273-3.54 11.451.244 4.399 2.318 7.705 6.53 9.627 6.069 2.771 12.088 5.644 18.557 7.4 1.785.484 3.574.968 5.379 1.367 3.151.695 6.21 1.604 9.017 3.252 5.265 3.091 10.449 6.255 16.544 7.69 6.053 1.425 11.776 1.435 17.217-1.918 2.422-1.492 3.883-3.434 3.773-6.498-.111-3.064-1.427-5.539-3.053-7.975-1.466-2.195-3.548-3.445-6.011-4.142-2.282-.645-3.108-.227-4.3 1.87-1.259 2.213-2.872 4.16-5.345 5.013-2.75.951-5.602 1.43-8.555 1.154-5.11-.478-9.803-2.103-13.703-5.446-3.849-3.299-5.595-7.021-3.414-12.21 1.175-2.797 3.266-4.617 5.879-5.783 4.747-2.119 9.747-2.646 14.888-1.775 3.214.545 5.656 2.091 7.214 5.055.708 1.349 1.782 2.475 3.649 2.789m-22.992-31.651c4.196.628 8.712 1.369 13.246 1.962 3.23.422 6.195 1.544 9.186 2.768 7.16 2.927 8.687 9.691 6.599 15.276-.694 1.858-1.799 3.607-2.959 5.232-1.019 1.431-1.282 2.906-1.143 4.554.041.482.105.965.098 1.447-.031 2.061-1.361 2.863-3.251 1.872-1.918-1.005-3.202-2.669-4.241-4.523-1.151-2.051-3.032-3.084-5.203-3.585-4.103-.947-8.193-.709-12.121.776-1.928.728-4.073 1.502-5.469 2.904-4.157 4.174-4.715 9.57.909 13.898 4.57 3.516 9.82 5.514 15.729 5.092 4.182-.298 7.685-1.903 9.557-5.908 1.326-2.835 4.123-3.476 6.842-2.294 5.338 2.322 8.447 6.186 9.47 11.865.827 4.6-1.008 7.662-4.876 9.773-1.128.615-2.352 1.052-3.525 1.585-3.522 1.602-7.204 1.588-10.887.899-4.582-.858-9.09-2.05-13.252-4.219-2.995-1.562-5.847-3.408-8.869-4.912-1.996-.993-4.15-1.71-6.289-2.364-4.537-1.384-9.19-2.423-13.644-4.025-3.92-1.409-7.64-3.38-11.439-5.123-5.447-2.496-8.177-7.92-6.857-13.779.566-2.508 1.281-4.986 2.002-7.456.89-3.052 2.781-5.357 5.337-7.239 2.787-2.051 5.38-4.367 8.171-6.412 5.113-3.748 11.058-5.516 17.171-6.717 3.067-.603 6.201-.872 9.708-1.347" fill="#b21116" fill-rule="nonzero"/><path d="m54.32 45.385c3.113-.082 5.045-.85 6.83-1.989 1.927-1.228 2.054-2.52.448-4.085-.4-.39-.894-.683-1.334-1.034-2.104-1.68-4.662-1.49-7.121-1.834-2.024-.283-3.676.381-5.145 1.524-2.058 1.6-1.953 4.436.367 5.543 2.129 1.015 4.536 1.447 5.955 1.875m-.139-10.782c2.772.475 6.243 1.146 8.884 3.827 2.121 2.152 1.942 4.403-.542 6.073-5.612 3.774-10.735 2.882-15.675-.014-3.287-1.927-2.086-6.018.479-7.885 1.77-1.289 3.837-2.044 6.854-2.001" fill="#b21116" fill-rule="nonzero"/></svg>