<svg clip-rule="evenodd" fill-rule="evenodd" stroke-linejoin="round" stroke-miterlimit="2" viewBox="0 0 110 102" xmlns="http://www.w3.org/2000/svg"><path d="m28.454 7.493c.231-.336.487-.667.766-.997 1.447-1.713 3.148-2.807 4.991-3.941 1.432-.88 2.911-1.228 4.463-1.535 3.145-.62 6.298-1.173 9.527-.896 3.355.24 6.711.478 10.065.722.273.02.55.053.815.118 3.752.927 7.453 2.073 10.967 3.648 1.655.742 3.158 1.827 4.672 2.881h-2.111c-2.101-1.332-4.333-2.427-6.727-3.218-3.777-1.248-7.562-2.489-11.612-2.48-.884.002-1.795.122-2.648-.043-2.569-.497-5.117-.616-7.728-.304-3.418.409-6.759 1.006-9.925 2.431-1.751.788-2.965 2.004-3.734 3.614h-1.781z" fill="#84002d"/><path d="m74.72 7.493 1.339.914c.782.513 1.481 1.16 2.282 1.637 1.562.927 2.692 2.191 3.64 3.748 1.788 2.938 2.637 6.175 3.44 9.453.462 1.883.097 3.731-.067 5.591-.054.605-.193 1.201-.275 1.803-.32 2.355-1.658 3.809-3.937 4.376-2.867.713-5.721.505-8.48-.462-1.5-.526-2.925-1.285-4.346-2.013-2.841-1.455-5.816-2.248-9.02-2.516-3.817-.319-7.441.492-11.13 1.165-2.319.424-4.632 1.102-7.043.881-1.32-.121-2.659-.139-3.958-.374-2.062-.375-3.501-1.538-3.99-3.676-.05-.216-.076-.451-.184-.634-.738-1.246-.972-2.546-.667-3.985.088-.416-.073-1.006-.334-1.354-1.151-1.531-2.349-3.029-3.589-4.488-1.612-1.898-1.791-4.127-1.451-6.413.2-1.349.718-2.527 1.504-3.653h1.781c-.195.379-.356.785-.493 1.212-.539 1.676-.182 3.173.99 4.456.633.692 1.298 1.373 2.034 1.949 1.277.996 1.65 2.297 1.476 3.816-.165 1.425-.338 2.852-.584 4.265-.422 2.426.115 3.539 2.333 4.425.654.26 1.371.392 2.072.501 2.607.408 5.185-.059 7.709-.55 4.661-.908 9.297-1.738 14.075-1.912 4.811-.177 8.807 1.719 12.685 4.103 1.616.993 3.192 2.099 5.114 2.151 1.843.05 3.712.021 5.149-1.639 1.224-1.413 1.502-3.015 1.665-4.995-.436-3.459-1.447-6.991-3.198-10.294-.949-1.79-2.21-3.302-4.054-4.261-.486-.253-.928-.6-1.361-.94-1.046-.822-2.123-1.589-3.238-2.287h2.111z" fill="#84002d"/><path d="m35.222 28.9c-.061.113-.123.226-.185.339.563.292 1.102.653 1.695.864 2.409.857 4.917.836 7.388.495 2.837-.391 5.645-1.007 8.461-1.551 1.893-.366 3.766-.925 5.717-.326.254.078.551.027.827.022 3.999-.076 7.605 1.303 11.013 3.183 3.394 1.871 6.918 2.554 10.704 1.773.828-.171 1.64-.498 2.138-1.304-1.293.272-2.504.547-3.723.781-2.179.419-4.132-.241-6.004-1.293-2.167-1.218-4.314-2.477-6.534-3.589-1.073-.537-2.283-1.06-3.449-1.103-3.09-.114-6.214-.184-9.28.141-3.607.384-7.169 1.186-10.745 1.838-2.697.49-5.369.508-8.023-.27z" fill="#84002d"/><path d="m32.727 20.699c.649-2.815.587-3.401-1.019-4.818-1.447-1.276-2.823-2.566-3.432-4.493-.313 1.901-.023 3.668 1.079 5.186 1.027 1.416 2.211 2.718 3.372 4.125z" fill="#cf0b50"/><path d="m35.222 28.9c-.061.113-.123.226-.185.339.563.292 1.102.653 1.695.864 2.409.857 4.917.836 7.388.495 2.837-.391 5.645-1.007 8.461-1.551 1.893-.366 3.766-.925 5.717-.326.254.078.551.027.827.022 3.999-.076 7.605 1.303 11.013 3.183 3.394 1.871 6.918 2.554 10.704 1.773.828-.171 1.64-.498 2.138-1.304-1.293.272-2.504.547-3.723.781-2.179.419-4.132-.241-6.004-1.293-2.167-1.218-4.314-2.477-6.534-3.589-1.073-.537-2.283-1.06-3.449-1.103-3.09-.114-6.214-.184-9.28.141-3.607.384-7.169 1.186-10.745 1.838-2.697.49-5.369.508-8.023-.27z" fill="#cf0b50"/><g fill-rule="nonzero"><path d="m69.072 15.888c-.03.07-.06.14-.089.21-.222.011-.445 0-.662.035-3.265.511-6.528 1.029-9.792 1.545-.273.043-.55.068-.818.131-.525.123-.93.386-.926.996.004.672.55.778 1.027.867.485.09.989.077 1.485.099 2.481.109 4.968.144 7.444.338 2.992.235 5.668 1.285 7.942 3.332.896.806 1.917 1.512 2.981 2.076.698.37 1.567.503 2.372.56 1.023.073 1.722-.484 2.24-1.403 1.158-2.055.642-3.921-.507-5.736-.405-.64-.978-.665-1.734-.501-1.059.229-2.22.426-3.255.221-1.552-.308-3.04-.955-4.541-1.499-1.068-.388-2.112-.845-3.167-1.271m-18.22.635c.054.177.109.352.163.529.548.128 1.124.437 1.639.356 2.277-.362 4.537-.839 6.805-1.266 2.27-.427 4.528-1.022 6.819-1.218 2.322-.199 4.615.475 6.763 1.308 1.631.632 3.233.559 4.88.543.835-.009 1.542-.317 1.928-1.065.421-.812-.136-1.471-.504-2.138-.052-.095-.127-.187-.214-.25-1.509-1.103-3.001-2.231-4.55-3.275-.298-.201-.835-.143-1.24-.075-1.516.254-3.015.616-4.536.839-2.554.374-5.1.952-7.714.511-.255-.044-.539.119-.812.142-2.968.245-5.443 1.726-7.883 3.229-.645.397-1.036 1.209-1.544 1.83m11.579-6.288c.886 0 1.663.046 2.432-.01 1.371-.101 2.747-.207 4.101-.434.395-.067.874-.48 1.044-.857.269-.597.002-1.2-.539-1.602-.261-.195-.575-.324-.872-.469-3.283-1.612-6.737-2.665-10.314-3.435-3.432-.74-6.873-1.051-10.365-.909-.714.029-1.427.223-2.136.203-3.189-.086-6.22.793-9.267 1.514-1.866.442-3.165 1.762-4.073 3.417-.892 1.624-.469 3.544 1.106 4.505 2.402 1.467 4.878 2.865 7.819 2.822 1.534-.022 3.08-.146 4.592-.399 1.288-.216 2.608-.523 3.785-1.068 4.074-1.891 8.131-3.758 12.687-3.278m13.62 19.32c.972-.292 1.882-.511 2.744-.853.305-.122.718-.585.677-.821-.061-.355-.42-.752-.757-.95-1.76-1.032-3.557-1.999-5.332-3.004-2.219-1.256-4.442-2.564-7.062-2.669-1.97-.08-3.948.113-5.923.115-3.816.005-7.279-1.126-10.143-3.664-1.479-1.31-3.05-1.921-4.965-1.65-1.248.176-2.496.385-3.722.673-3.203.755-5.361 2.603-6.259 5.884-.563 2.061.069 3.57 2.115 4.008 2.72.583 5.465.813 8.179-.143 3.458-1.217 7.067-1.777 10.672-2.277 3.5-.485 6.96-.153 10.226 1.296 2.111.938 4.139 2.065 6.249 3.006 1.042.465 2.184.702 3.301 1.049m8.409-4.28c-.163 1.98-.442 3.582-1.665 4.995-1.438 1.66-3.307 1.689-5.15 1.639-1.922-.052-3.498-1.158-5.114-2.151-3.878-2.384-7.874-4.28-12.685-4.103-4.778.174-9.414 1.004-14.075 1.912-2.523.491-5.101.958-7.709.55-.701-.109-1.418-.241-2.072-.501-2.218-.886-2.755-1.999-2.333-4.425.246-1.413.419-2.84.584-4.265.175-1.518-.198-2.82-1.476-3.816-.736-.576-1.401-1.257-2.034-1.949-1.172-1.283-1.529-2.78-.99-4.456.713-2.216 2.059-3.85 4.227-4.826 3.167-1.425 6.507-2.022 9.925-2.431 2.612-.312 5.159-.193 7.728.304.853.165 1.764.045 2.648.043 4.05-.009 7.835 1.232 11.613 2.48 3.661 1.209 6.941 3.129 9.964 5.505.433.34.875.687 1.362.94 1.843.96 3.104 2.471 4.053 4.261 1.751 3.303 2.762 6.835 3.199 10.294" fill="#b21116"/><path d="m76.05 29.555c-1.116-.347-2.258-.584-3.3-1.049-2.11-.941-4.138-2.068-6.249-3.006-3.266-1.449-6.726-1.781-10.226-1.296-3.605.5-7.214 1.06-10.672 2.277-2.714.956-5.459.726-8.18.143-2.045-.438-2.677-1.947-2.114-4.009.898-3.28 3.056-5.128 6.259-5.883 1.226-.289 2.474-.497 3.722-.673 1.915-.271 3.486.34 4.965 1.65 2.864 2.538 6.327 3.669 10.143 3.664 1.975-.002 3.953-.195 5.923-.116 2.62.106 4.843 1.414 7.061 2.669 1.776 1.006 3.573 1.973 5.333 3.005.337.198.696.595.757.949.041.237-.372.7-.677.822-.862.342-1.772.561-2.745.853" fill="#fbf8dd"/><path d="m62.431 10.235c-4.556-.48-8.613 1.387-12.687 3.278-1.177.545-2.497.852-3.785 1.068-1.512.253-3.058.377-4.592.399-2.941.043-5.417-1.355-7.82-2.822-1.574-.961-1.998-2.881-1.105-4.505.908-1.655 2.207-2.975 4.073-3.417 3.047-.721 6.078-1.6 9.267-1.514.709.02 1.422-.174 2.136-.203 3.492-.142 6.933.169 10.365.909 3.577.77 7.031 1.823 10.314 3.435.297.145.611.274.872.469.541.402.808 1.005.538 1.602-.17.377-.648.79-1.044.857-1.353.227-2.729.333-4.1.434-.769.056-1.546.01-2.432.01" fill="#fbf8dd"/><path d="m50.852 16.523c.508-.621.899-1.433 1.544-1.83 2.44-1.503 4.915-2.984 7.883-3.229.273-.023.557-.186.812-.142 2.614.442 5.16-.136 7.714-.511 1.521-.223 3.02-.584 4.536-.839.405-.068.942-.126 1.24.075 1.549 1.044 3.041 2.172 4.55 3.275.086.063.162.156.214.25.368.667.925 1.326.504 2.138-.386.748-1.093 1.057-1.928 1.065-1.647.017-3.249.089-4.88-.543-2.148-.833-4.441-1.506-6.763-1.308-2.291.197-4.549.791-6.819 1.219-2.268.426-4.528.903-6.805 1.265-.515.081-1.091-.227-1.639-.356-.054-.176-.109-.352-.163-.529" fill="#fbf8dd"/><path d="m69.073 15.889c1.054.426 2.098.882 3.167 1.27 1.501.545 2.989 1.192 4.541 1.5 1.035.205 2.196.008 3.255-.222.755-.163 1.329-.139 1.734.501 1.148 1.815 1.665 3.682.507 5.737-.519.918-1.217 1.476-2.24 1.403-.805-.057-1.674-.19-2.373-.56-1.063-.564-2.085-1.27-2.98-2.077-2.274-2.047-4.95-3.097-7.942-3.332-2.476-.194-4.963-.229-7.445-.337-.496-.022-1-.01-1.484-.1-.478-.088-1.024-.194-1.027-.867-.004-.609.401-.872.925-.995.269-.063.545-.088.819-.132 3.263-.515 6.527-1.033 9.792-1.545.216-.034.44-.024.662-.034.029-.07.058-.14.089-.21" fill="#fbf8dd"/><path d="m26.34 37.833c-.363.328-.468.714-.503 1.18-.049.629.14 1.2.608 1.852 1.136 1.573 2.397 2.358 3.971 2.47.162.012.325.031.487.051.242.029.47.057.694.057l.044-.001c.087-.002.185-.028.297-.065-1.451-2.294-3.286-4.113-5.598-5.544m-20.927 5.953c.095.779.286 1.185.666 1.427.537.343 1.248.765 1.985.991.303.093.625.139.983.139.65 0 1.326-.154 1.98-.302l.101-.022c1.27-.287 2.174-1.122 2.617-2.415.481-1.4-.292-3.5-1.62-4.406-.319-.217-.51-.305-.659-.305-.148 0-.329.084-.626.29-.651.454-1.35.947-2.038 1.475-1.429 1.097-2.51 2.094-3.389 3.128m14.42 7.265c-.053.498-.021.813.092.958.138.176.52.213 1.05.263.587.057 1.139.163 1.723.275.225.043.457.087.702.131l1.475-1.363c-.276-.055-.486-.094-.694-.109-.876-.063-1.815-.112-2.869-.15-.225-.008-.451-.01-.675-.01-.187 0-.722.004-.804.005m-4.5 1.779c.75-.452 1.522-.552 2.27-.649.292-.038.572-.074.844-.13v-.892c-1.579.02-3.053.074-4.622.352zm8.635 1.049c1.139.359 2.066.521 2.947.521.27 0 .541-.016.807-.046l.23-.029c.316-.04.642-.08.972-.08l.255.003c1.081 0 2.093-.273 3.164-.563.068-.019.137-.037.205-.055-.084-.052-.168-.1-.254-.14-1.729-.821-3.348-1.392-4.945-1.746-.156-.035-.295-.052-.424-.052-.339 0-.615.121-.922.405-.563.522-1.151 1.031-1.72 1.525l-.036.031c-.087.076-.177.148-.279.226m-18.607.282c.614.299 1.286.345 1.929.345l.23-.002c1.102-.013 2.228-.112 3.318-.208.368-.033.737-.065 1.106-.094.908-.073 1.681-.157 2.41-.461l-.336-.307c-.551-.506-1.12-1.03-1.704-1.506-.061-.05-.216-.102-.384-.102-.046 0-.088.004-.123.012-1.015.217-2.064.442-3.055.772-.759.252-1.514.591-2.243.919-.193.087-.387.174-.58.259-.259.114-.439.232-.568.373m-.6 1.388c-.043.351.071.592.273.854.511.663 1.201 1.091 1.933 1.543.17.105.341.21.509.319.01.006.065.037.223.037.098 0 .197-.011.285-.024 2.052-.311 3.879-1.359 5.491-2.283.285-.165.44-.4.48-.743-1.972.308-3.916.571-5.911.571-1.163 0-2.241-.09-3.283-.274m19.468-.169c.093.265.207.443.391.565 1.26.833 2.537 1.645 3.51 2.261.132.083.31.152.528.205l.544.133c.714.177 1.452.36 2.182.48.128.021.262.032.388.032.248 0 .451-.044.543-.118.532-.424 1.048-.962 1.675-1.742.224-.279.375-.656.369-.917-.016-.519-.155-1.028-.373-1.363-.023-.034-.033-.04-.076-.04-.098 0-.246.052-.389.101-.116.04-.23.078-.336.102-.033.007-.065.011-.096.016-.478.069-.931.144-1.382.219-1.297.216-2.638.439-4 .439-.162 0-.325-.003-.488-.009l-.413-.015c-.774-.024-1.573-.049-2.362-.301-.066-.02-.137-.035-.215-.048m-14.683 3.921c1.004.4 2.054.615 3.29.678l.321-2.229zm16.862 1.207 3.075-.613c-.616-.195-1.205-.387-1.784-.619-.673-.27-1.33-.59-2.024-.929-.061-.03-.121-.059-.182-.089zm.589 1.451c.038.114.073.198.099.222.041.024.246.031.427.037l.111.002c1.074 0 3.201-.487 4.843-1.109 2.209-.837 3.586-2.372 4.211-4.693.031-.117.067-.236.102-.355.113-.372.218-.723.196-1.041-.093-1.343-.393-2.774-.917-4.374-.463-1.415-1.281-2.678-2.072-3.899-.39-.604-.794-1.227-1.151-1.864-.445.075-.89.114-1.325.114-.879 0-1.734-.15-2.612-.458-.699-.246-1.471-.518-2.019-1.028-.592-.553-1.08-1.213-1.552-1.851-.149-.202-.299-.404-.451-.602-.167-.216-.245-.475-.318-.744-.338-1.268-.199-2.29.443-3.184-.15-.091-.287-.175-.429-.252-.917-.494-1.922-.652-2.986-.82-.188-.03-.703-.115-.703-.115-.551-.093-1.12-.19-1.67-.19-.41 0-.775.053-1.114.162-.353.114-.707.225-1.06.336-.807.254-1.641.517-2.449.803-.482.17-.963.386-1.473.614-.093.042-.187.084-.283.127 1.131 1.077 1.88 2.365 2.284 3.922.129.498.163 1.025.098 1.483-.319 2.199-2.116 3.963-4.371 4.289-.286.041-.572.063-.848.084-.34.026-.661.05-.976.108-.182.032-.367.049-.549.049-.857 0-1.606-.361-2.24-.699-.912-.486-1.533-1.13-1.917-2l-.096.133c-.3.413-.564.778-.83 1.141-.916 1.248-1.544 2.749-1.921 4.592-.114.553-.055 1.179.003 1.783l.004.052c.039.409.126.811.219 1.237.039.181.079.361.114.542.262 1.34.795 2.404 1.63 3.253 1.442 1.464 3.283 2.52 5.794 3.32.434.139.867.281 1.3.423l.342.113c.429.14.79.233 1.156.233.168 0 .328-.019.487-.06l.085-.418c-.058-.009-.116-.018-.173-.027-.355-.056-.689-.109-1.018-.193-.32-.081-.648-.15-.977-.22-.863-.182-1.755-.371-2.542-.782-.972-.508-1.853-1.194-2.705-1.857-.328-.255-.655-.51-.987-.755-.222-.163-.391-.388-.531-.586-.403-.568-.542-1.334-.382-2.103.151-.734.56-1.348 1.118-1.686.497-.3 1.158-.681 1.867-.967 3.176-1.277 6.178-1.967 9.177-2.111.528-.025 1.057-.061 1.586-.096.659-.045 1.341-.091 2.016-.115.995-.037 1.894-.067 2.812-.067.356 0 .711.005 1.066.016 1.516.046 3.103.267 5.145.716 1.652.364 3.798.937 5.741 2.153 1.286.804 2.038 1.828 2.175 2.959.131 1.079-.313 2.177-1.283 3.175-1.068 1.099-2.45 1.853-4.223 2.302-.892.227-1.803.437-2.685.639-.271.062-.542.124-.813.187m-7.086 8.08c.325.025.637.038.951.038 1.026 0 2.138-.128 3.305-.379.724-.157 1.272-.425 1.723-.845.175-.163.29-.321.322-.445.248-.931.468-2.029.223-3.102-.27-1.181-.623-2.427-1.052-3.703-.342-1.019-.783-2.027-1.211-3.001-.52-1.188-1.059-2.417-1.435-3.698-.047-.167-.148-.336-.265-.524-.33-.535-.748-.8-1.396-.887-.553-.074-1.099-.11-1.67-.11-.645 0-1.304.046-2.012.142-1.117.152-1.741.711-2.081 1.869-.027.091-.049.184-.073.277-.068.273-.139.557-.293.815-.411.69-.503 1.462-.6 2.279l-.036.298c-.04.317-.074.636-.107.955-.077.743-.157 1.51-.32 2.256-.336 1.538-.436 3.135-.531 4.679l-.018.287c-.073 1.17.313 1.71 1.587 2.224.953.384 1.976.578 3.039.578l.16-.001c.209-.004.417-.005.632-.005zm.547 1.493c-.217 0-.433-.006-.651-.018-.383-.022-.767-.036-1.151-.051-.773-.029-1.572-.059-2.357-.152-1.506-.18-2.668-.669-3.553-1.497-.671-.626-.974-1.397-.904-2.291.043-.541.106-1.086.168-1.613.043-.369.086-.737.122-1.106.04-.409.067-.82.096-1.237l.023-.338c-.052-.022-.113-.05-.136-.052-.073.004-.154.007-.234.007-.907 0-1.743-.269-2.552-.53-.151-.048-.301-.096-.453-.143-2.58-.799-4.794-2.132-6.579-3.964-.879-.901-1.421-1.934-1.611-3.071-.064-.381-.14-.76-.216-1.14-.133-.662-.27-1.347-.339-2.035-.133-1.301.296-2.498.71-3.656l.068-.189c.606-1.698 1.654-3.134 2.588-4.346 1.525-1.977 3.446-3.737 6.23-5.708.226-.16.451-.324.675-.488.876-.641 1.784-1.304 2.831-1.75.066-.042.131-.084.218-.107.585-.156 1.175-.341 1.746-.521 1.169-.368 2.379-.748 3.651-.906.5-.062 1.001-.093 1.489-.093.94 0 1.881.116 2.797.347.637.16 1.244.425 1.832.68l.125.055c2.568 1.116 4.776 2.902 6.948 5.623.823 1.03 1.486 2.154 2.126 3.241l.429.725c.769 1.292 1.566 2.627 2.288 3.979.718 1.343 1.143 2.848 1.3 4.602l.002.065c.543 2.057-.225 3.854-.955 5.187-.771 1.402-2.076 2.262-3.128 2.854-1.345.757-2.822 1.07-4.249 1.373-.316.067-.63.134-.943.205-.211.048-.441.07-.723.07-.186 0-.38-.009-.584-.019-.067-.004-.135-.007-.203-.01.36 1.173.5 2.292.428 3.408-.033.538-.111 1.086-.179 1.57-.174 1.212-1.029 2.07-2.348 2.356-1.481.321-3.159.684-4.842.684" fill="#ec008c"/><path d="m26.195 60.904c1.615-.322 3.101-.618 4.669-.931-1.088-.36-2.083-.637-3.036-1.019-.966-.386-1.89-.876-2.994-1.398.475 1.169.885 2.18 1.361 3.348m-17.512-1.609c1.497.74 2.926.996 4.45 1.041.156-1.075.301-2.083.456-3.148-1.644.705-3.2 1.374-4.906 2.107m6.618-6.032c1.122-.793 2.354-.635 3.493-.939v-1.516c-1.897.019-3.722.064-5.728.498.838.733 1.513 1.325 2.235 1.957m10.314-2.159c-.651-.116-1.028-.216-1.409-.243-.96-.069-1.921-.117-2.882-.151-.604-.022-1.207-.004-1.797-.004-.258 1.766.25 1.799 1.446 1.914.794.076 1.578.263 2.534.429.574-.53 1.254-1.158 2.108-1.945m-10.741 2.772c-.071-.121-.102-.221-.168-.282-.717-.653-1.423-1.322-2.174-1.935-.19-.154-.55-.213-.799-.16-1.039.223-2.084.447-3.091.782-.975.324-1.91.773-2.853 1.19-.374.165-.725.386-.912.812.836.548 1.766.579 2.647.567 1.484-.018 2.965-.186 4.446-.303.992-.08 1.981-.177 2.904-.671m18.3-.053c.003-.066.006-.133.01-.199-.246-.151-.482-.324-.742-.448-1.61-.764-3.267-1.382-5.018-1.771-.701-.155-1.175-.007-1.657.437-.571.529-1.16 1.04-1.747 1.55-.202.176-.424.328-.787.607 1.59.558 3.016.875 4.528.698.416-.049.836-.116 1.253-.105 1.451.036 2.792-.421 4.16-.769m-6.86-16.412c-.61.431-.776.966-.823 1.575-.061.792.221 1.452.674 2.081 1.051 1.458 2.359 2.48 4.226 2.613.419.03.838.115 1.255.108.26-.004.517-.134.816-.22-1.578-2.624-3.6-4.622-6.148-6.157m-21.818 17.736c-.196.632-.063 1.043.263 1.467.675.876 1.635 1.365 2.528 1.941.187.121.504.101.748.065 2.06-.312 3.842-1.31 5.611-2.326.573-.329.705-.86.657-1.448-3.277.519-6.498.955-9.807.301m19.258-.179c.132.563.275 1 .674 1.265 1.163.769 2.338 1.52 3.517 2.265.187.119.413.196.631.249.914.221 1.826.466 2.752.618.39.064.929.062 1.203-.157.644-.515 1.209-1.148 1.728-1.796.249-.309.456-.762.445-1.143-.015-.524-.148-1.112-.429-1.542-.264-.405-.769-.074-1.166.013-.032.008-.064.011-.097.015-1.918.28-3.812.722-5.779.642-.909-.036-1.808-.02-2.685-.299-.229-.073-.48-.081-.794-.13m-18.703-11.293c.081.803.26 1.459.841 1.83.649.413 1.342.806 2.07 1.03 1.074.33 2.179.061 3.242-.179 1.436-.325 2.404-1.286 2.868-2.639.549-1.601-.331-3.836-1.753-4.805-.703-.479-.989-.492-1.677-.013-.692.482-1.382.97-2.051 1.484-1.29.99-2.508 2.058-3.54 3.292m14.86 26.71c1.378.112 2.856-.032 4.329-.349.719-.155 1.353-.435 1.885-.929.178-.166.362-.384.422-.61.285-1.072.474-2.177.225-3.269-.288-1.261-.649-2.509-1.061-3.736-.763-2.273-1.964-4.375-2.641-6.685-.063-.215-.185-.417-.304-.61-.378-.611-.883-.945-1.644-1.047-1.271-.171-2.504-.14-3.775.032-1.334.18-2.015.919-2.367 2.114-.099.341-.153.715-.331 1.012-.502.844-.565 1.781-.683 2.712-.132 1.061-.193 2.139-.42 3.18-.364 1.658-.452 3.337-.557 5.018-.08 1.279.359 1.985 1.804 2.566 1.05.424 2.181.624 3.335.603.552-.01 1.106-.002 1.783-.002m-7.698-32.689c1.392 1.174 2.171 2.536 2.58 4.109.111.43.153.91.09 1.347-.296 2.049-1.99 3.694-4.078 3.996-.608.088-1.231.085-1.836.193-.956.173-1.769-.19-2.564-.614-.925-.492-1.629-1.209-1.976-2.429-.514.71-.909 1.259-1.308 1.804-1.041 1.417-1.635 3.031-1.983 4.727-.127.621-.057 1.295.003 1.937.058.61.22 1.21.338 1.813.254 1.304.777 2.468 1.723 3.429 1.663 1.69 3.712 2.699 5.935 3.408.548.175 1.094.356 1.64.534.652.214 1.308.379 2.049.116.06-.295.122-.596.199-.971-.574-.101-1.054-.156-1.518-.274-1.161-.293-2.41-.433-3.445-.974-1.308-.683-2.445-1.698-3.646-2.583-.179-.132-.324-.323-.454-.508-.706-.996-.398-2.669.632-3.291.583-.353 1.188-.689 1.819-.943 2.909-1.17 5.916-1.935 9.063-2.086 1.199-.058 2.398-.168 3.598-.212 1.284-.047 2.571-.09 3.854-.05 1.715.052 3.407.339 5.082.708 1.977.435 3.906 1.028 5.632 2.108 2.364 1.478 2.706 3.666.827 5.599-1.112 1.144-2.523 1.818-4.059 2.209-1.279.324-2.569.607-3.857.909.255.832.255.832.957.857 1.149.041 3.458-.512 5.089-1.13 2.336-.885 3.781-2.541 4.422-4.926.134-.498.344-1.016.31-1.51-.105-1.522-.459-3.011-.933-4.458-.737-2.249-2.29-4.045-3.37-6.042-1.426.288-2.737.161-4.004-.284-.668-.235-1.4-.49-1.898-.955-.751-.7-1.332-1.587-1.965-2.41-.133-.173-.199-.406-.258-.623-.3-1.123-.252-2.194.624-3.186-.298-.178-.533-.332-.779-.465-1.14-.614-2.414-.738-3.656-.948-1.017-.171-2.055-.372-3.088-.039-1.174.377-2.357.73-3.519 1.141-.729.258-1.428.604-2.272.967m14.702 25.459c.454 1.288.646 2.501.567 3.745-.033.516-.105 1.03-.179 1.543-.171 1.206-1.074 1.849-2.077 2.066-1.767.383-3.561.764-5.4.659-1.163-.067-2.333-.065-3.486-.202-1.236-.147-2.41-.519-3.358-1.405-.591-.552-.857-1.224-.795-2.011.071-.906.2-1.808.289-2.712.059-.603.091-1.208.137-1.831-.215-.078-.364-.184-.509-.176-1.102.059-2.103-.335-3.127-.652-2.465-.762-4.628-2.023-6.432-3.874-.788-.807-1.329-1.753-1.518-2.886-.176-1.053-.444-2.095-.553-3.154-.131-1.291.337-2.505.761-3.693.562-1.575 1.517-2.929 2.536-4.251 1.729-2.241 3.865-4.015 6.155-5.637 1.115-.788 2.171-1.66 3.442-2.202.059-.025.11-.075.172-.091 1.782-.473 3.492-1.188 5.35-1.418 1.419-.175 2.795-.097 4.159.246.653.165 1.282.447 1.903.717 2.782 1.209 4.936 3.167 6.816 5.521.965 1.208 1.697 2.533 2.476 3.842.798 1.338 1.598 2.677 2.332 4.05.742 1.39 1.12 2.902 1.261 4.471.003.032-.002.066.005.097.474 1.796-.083 3.434-.918 4.956-.666 1.213-1.785 2.039-2.994 2.72-1.587.893-3.366 1.147-5.098 1.542-.555.126-1.162.02-1.917.02" fill="#ec008c"/><path d="m18.227 39.994c.467-.103.956-.15 1.396-.322.618-.241.793-.805.811-1.422.017-.602-.041-1.183-.663-1.493-.682-.34-1.406-.488-2.163-.355-.455.079-.841.264-1.09.711-.742 1.328.139 2.806 1.709 2.881m13.849 10.652c1.542.024 2.374-.564 2.515-1.692.093-.748.073-1.586-.757-2.045-.623-.344-1.294-.612-1.875-1.015-.624-.434-1.22-.318-1.85-.128-.862.26-1.745 1.159-1.732 1.894.018.913.346 1.784 1.209 2.179.903.412 1.897.622 2.49.807m-6.571-6.57c-.049-.978-.322-1.875-1.397-2.472-.785-.437-1.604-.672-2.443-.891-.24-.063-.533-.054-.767.025-.734.246-1.456.535-2.178.82-.662.261-1.076.806-1.182 1.45-.12.722-.076 1.483-.009 2.218.029.331.232.685.449.952.693.851 1.541 1.414 2.677 1.611.885.154 1.667-.02 2.468-.283 1.416-.466 2.398-1.84 2.382-3.43m-13.293-6.38c.845-.363 1.543-.709 2.273-.967 1.162-.411 2.345-.764 3.518-1.141 1.034-.333 2.072-.132 3.089.039 1.241.21 2.516.334 3.656.949.246.132.481.286.779.464-.876.993-.924 2.063-.624 3.186.058.217.125.451.258.623.632.823 1.213 1.71 1.964 2.411.498.464 1.231.719 1.899.954 1.266.446 2.578.572 4.004.284 1.08 1.997 2.633 3.793 3.37 6.042.474 1.448.828 2.936.933 4.458.034.495-.176 1.012-.31 1.51-.642 2.385-2.086 4.041-4.422 4.926-1.631.618-3.94 1.171-5.089 1.13-.702-.025-.702-.025-.957-.857 1.288-.302 2.577-.585 3.857-.909 1.536-.39 2.947-1.065 4.059-2.209 1.879-1.932 1.536-4.12-.827-5.599-1.727-1.08-3.655-1.673-5.632-2.108-1.676-.368-3.367-.656-5.082-.708-1.283-.04-2.57.004-3.854.05-1.201.044-2.399.154-3.598.212-3.147.151-6.154.916-9.063 2.086-.631.254-1.236.59-1.819.943-1.03.622-1.339 2.296-.633 3.291.131.185.276.376.454.509 1.202.884 2.338 1.899 3.647 2.583 1.035.541 2.284.68 3.444.974.465.117.945.172 1.519.273-.077.375-.139.676-.199.971-.742.263-1.397.098-2.049-.115-.546-.179-1.092-.36-1.64-.535-2.223-.709-4.272-1.717-5.935-3.408-.947-.961-1.469-2.125-1.723-3.429-.118-.603-.28-1.203-.338-1.813-.06-.642-.13-1.316-.003-1.937.348-1.696.942-3.31 1.983-4.727.399-.545.793-1.093 1.308-1.804.347 1.22 1.051 1.937 1.976 2.429.795.424 1.608.787 2.564.615.605-.109 1.228-.106 1.836-.194 2.088-.302 3.781-1.946 4.078-3.996.063-.437.021-.917-.091-1.346-.408-1.574-1.187-2.936-2.58-4.11" fill="#c4122d"/><path d="m19.911 70.385c-.677 0-1.23-.008-1.783.002-1.154.021-2.284-.179-3.335-.603-1.444-.581-1.884-1.287-1.804-2.566.106-1.681.193-3.36.557-5.018.227-1.041.288-2.119.421-3.18.117-.931.18-1.868.682-2.712.178-.297.232-.671.331-1.012.352-1.195 1.034-1.933 2.368-2.114 1.27-.172 2.503-.203 3.774-.032.761.102 1.267.436 1.644 1.048.12.192.241.394.304.609.677 2.31 1.878 4.412 2.641 6.685.412 1.227.773 2.476 1.061 3.736.249 1.092.06 2.197-.225 3.269-.06.226-.243.444-.422.61-.531.494-1.166.774-1.885.929-1.473.317-2.951.461-4.329.349" fill="#a07d65"/><path d="m5.052 43.675c1.031-1.235 2.25-2.303 3.54-3.292.669-.514 1.358-1.003 2.051-1.485.687-.478.973-.466 1.677.014 1.421.969 2.301 3.203 1.753 4.804-.464 1.353-1.432 2.315-2.869 2.64-1.062.24-2.168.508-3.242.178-.727-.224-1.421-.616-2.069-1.029-.581-.371-.76-1.027-.841-1.83" fill="#fff"/><path d="m23.754 54.968c.314.049.565.056.794.129.878.28 1.776.263 2.685.3 1.967.079 3.862-.362 5.78-.642.032-.005.064-.008.096-.015.397-.088.903-.418 1.166-.014.282.431.415 1.018.429 1.542.011.382-.195.835-.444 1.144-.52.647-1.084 1.281-1.729 1.796-.273.219-.812.221-1.203.157-.926-.152-1.838-.397-2.752-.618-.218-.053-.443-.131-.631-.25-1.178-.744-2.353-1.495-3.516-2.264-.4-.265-.542-.702-.675-1.265" fill="#eae2a2"/><path d="m4.496 55.147c3.31.655 6.53.219 9.808-.3.047.587-.084 1.118-.658 1.447-1.769 1.017-3.55 2.015-5.611 2.326-.244.037-.56.057-.748-.064-.893-.576-1.853-1.065-2.527-1.942-.326-.424-.459-.835-.264-1.467" fill="#eae2a2"/><path d="m26.314 37.411c2.548 1.534 4.57 3.533 6.147 6.157-.298.085-.555.216-.815.22-.417.007-.836-.078-1.255-.108-1.867-.133-3.176-1.155-4.226-2.614-.454-.628-.735-1.289-.674-2.081.047-.608.213-1.143.823-1.574" fill="#fff"/><path d="m33.174 53.823c-1.367.348-2.709.805-4.159.769-.417-.011-.837.056-1.253.105-1.513.177-2.939-.14-4.528-.698.363-.279.585-.431.787-.607.587-.51 1.175-1.021 1.747-1.549.481-.445.956-.593 1.656-.438 1.752.389 3.408 1.007 5.019 1.772.259.123.496.296.742.447-.004.066-.007.133-.011.199" fill="#eae2a2"/><path d="m14.874 53.876c-.923.494-1.912.591-2.903.67-1.482.118-2.963.286-4.447.304-.88.011-1.811-.019-2.647-.567.187-.426.538-.647.912-.812.943-.417 1.878-.866 2.854-1.19 1.006-.335 2.051-.559 3.09-.782.249-.054.61.005.799.16.751.613 1.457 1.281 2.174 1.935.066.061.098.16.168.282" fill="#eae2a2"/><path d="m25.615 51.104c-.854.787-1.534 1.416-2.107 1.945-.956-.166-1.741-.352-2.535-.429-1.196-.115-1.704-.147-1.446-1.914.59 0 1.193-.018 1.797.004.961.035 1.922.082 2.882.151.381.027.758.127 1.409.243" fill="#eae2a2"/><path d="m15.302 53.263c-.723-.633-1.397-1.224-2.235-1.957 2.006-.434 3.831-.48 5.727-.498v1.516c-1.138.303-2.371.146-3.492.939" fill="#eae2a2"/><path d="m8.684 59.295c1.706-.733 3.262-1.401 4.905-2.107-.154 1.065-.3 2.074-.455 3.149-1.524-.046-2.953-.301-4.45-1.042" fill="#eae2a2"/><path d="m26.195 60.904c-.476-1.168-.886-2.179-1.361-3.348 1.104.522 2.028 1.012 2.994 1.398.953.382 1.948.659 3.036 1.019-1.568.313-3.054.609-4.669.931" fill="#eae2a2"/><path d="m21.438 47.142c1.822-.028 2.819-.721 3.35-2.326.279-.847-.014-1.825-.728-2.347-1.155-.845-2.414-1.14-3.851-.827-1.163.254-1.998.803-2.17 1.93-.155 1.006.097 1.957.941 2.699.767.675 1.667.804 2.458.871m4.067-3.066c.016 1.59-.965 2.964-2.382 3.43-.801.263-1.583.437-2.468.283-1.136-.197-1.984-.76-2.677-1.611-.217-.267-.42-.621-.449-.952-.067-.735-.111-1.496.009-2.218.106-.644.52-1.189 1.182-1.45.722-.285 1.444-.574 2.178-.82.234-.079.527-.088.767-.025.839.219 1.658.454 2.443.891 1.075.597 1.349 1.495 1.397 2.472" fill="#ec008c"/><path d="m32.481 49.857c.527.044.965-.101 1.242-.585.294-.512.243-.999-.135-1.441-.185-.217-.401-.411-.619-.597-.514-.44-1.175-.518-1.793-.703-.816-.245-1.567.003-1.973.734-.125.226-.179.595-.081.816.152.339.412.682.717.888.789.533 1.69.805 2.642.888m-.405.789c-.593-.185-1.587-.395-2.49-.808-.863-.394-1.191-1.265-1.209-2.179-.013-.734.87-1.633 1.732-1.893.63-.19 1.226-.306 1.851.128.58.403 1.251.671 1.875 1.015.83.459.849 1.297.756 2.045-.141 1.128-.973 1.715-2.515 1.692" fill="#ec008c"/><path d="m18.177 37.106c-.437.054-.849.021-1.104.492-.199.362-.161.678.04 1.001.252.408.603.688 1.104.663.319-.015.643-.078.95-.165.368-.103.61-.343.644-.755.036-.437-.124-.781-.524-.941-.352-.142-.738-.2-1.11-.295m.051 2.888c-1.571-.075-2.451-1.553-1.709-2.881.249-.447.635-.632 1.09-.711.756-.133 1.481.016 2.163.355.622.31.679.891.663 1.493-.018.617-.194 1.181-.811 1.422-.44.172-.929.219-1.396.322" fill="#ec008c"/><path d="m21.438 47.142c-.791-.067-1.691-.196-2.458-.871-.844-.742-1.096-1.693-.941-2.699.172-1.127 1.007-1.676 2.17-1.93 1.437-.313 2.696-.018 3.851.827.714.522 1.007 1.5.728 2.347-.531 1.605-1.528 2.298-3.35 2.326" fill="#fff"/><path d="m32.481 49.857c-.952-.083-1.853-.355-2.642-.888-.305-.206-.565-.549-.717-.888-.098-.221-.044-.59.081-.816.406-.731 1.157-.979 1.973-.734.618.185 1.279.263 1.793.703.218.186.434.38.619.597.378.442.429.929.135 1.441-.277.484-.715.629-1.242.585" fill="#fff"/><path d="m18.177 37.106c.372.095.758.153 1.11.295.4.16.56.504.524.941-.034.412-.276.652-.644.755-.307.087-.631.15-.95.165-.501.025-.852-.255-1.104-.663-.201-.323-.239-.639-.04-1.001.255-.471.667-.438 1.104-.492" fill="#fff"/><path d="m56.071 67.564c-.363.328-.468.714-.503 1.18-.049.629.14 1.2.608 1.852 1.136 1.573 2.397 2.358 3.971 2.47.162.012.325.031.487.051.242.029.47.057.694.057l.044-.001c.087-.002.185-.028.297-.065-1.451-2.294-3.286-4.113-5.598-5.544m-20.927 5.953c.095.779.286 1.185.666 1.427.537.343 1.248.765 1.985.991.303.093.625.139.983.139.65 0 1.326-.154 1.98-.302l.101-.022c1.27-.287 2.174-1.122 2.617-2.415.481-1.4-.292-3.5-1.62-4.406-.319-.217-.51-.305-.659-.305-.148 0-.329.084-.626.29-.651.454-1.35.947-2.038 1.475-1.429 1.097-2.51 2.094-3.389 3.128m14.42 7.265c-.053.498-.021.813.092.958.138.176.52.213 1.05.263.587.057 1.139.163 1.723.275.225.043.457.087.702.131l1.475-1.363c-.276-.055-.486-.094-.694-.109-.876-.063-1.815-.112-2.869-.15-.225-.008-.451-.01-.675-.01-.187 0-.722.004-.804.005m-4.5 1.779c.75-.452 1.522-.552 2.27-.649.292-.038.572-.074.844-.13v-.892c-1.579.02-3.053.074-4.622.352zm8.635 1.049c1.139.359 2.066.521 2.947.521.27 0 .541-.016.807-.046l.23-.029c.316-.04.642-.08.972-.08l.255.003c1.081 0 2.093-.273 3.164-.563.068-.019.137-.037.205-.055-.084-.052-.168-.1-.254-.14-1.729-.821-3.348-1.392-4.945-1.746-.156-.035-.295-.052-.424-.052-.339 0-.615.121-.922.405-.563.522-1.151 1.031-1.72 1.525l-.036.031c-.087.076-.177.148-.279.226m-18.607.282c.614.299 1.286.345 1.929.345l.23-.002c1.102-.013 2.228-.112 3.318-.208.368-.033.737-.065 1.106-.094.908-.073 1.681-.157 2.41-.461l-.336-.307c-.551-.506-1.12-1.03-1.704-1.506-.061-.05-.216-.102-.384-.102-.046 0-.088.004-.123.012-1.015.217-2.064.442-3.055.772-.759.252-1.514.591-2.243.919-.193.087-.387.174-.58.259-.259.114-.439.232-.568.373m-.6 1.388c-.043.351.071.592.273.854.511.663 1.201 1.091 1.933 1.543.17.105.341.21.509.319.01.006.065.037.223.037.098 0 .197-.011.285-.024 2.052-.311 3.879-1.359 5.491-2.283.285-.165.44-.4.48-.743-1.972.308-3.916.571-5.911.571-1.163 0-2.241-.09-3.283-.274m19.468-.169c.093.265.207.443.391.565 1.26.833 2.537 1.645 3.51 2.261.132.083.31.152.528.205l.544.133c.714.177 1.452.36 2.182.48.128.021.262.032.388.032.248 0 .451-.044.543-.118.532-.424 1.048-.962 1.675-1.742.224-.279.375-.656.369-.917-.016-.519-.155-1.028-.373-1.363-.023-.034-.033-.04-.076-.04-.098 0-.246.052-.389.101-.116.04-.23.078-.336.102-.033.007-.065.011-.096.016-.478.069-.931.144-1.382.219-1.297.216-2.638.439-4 .439-.162 0-.325-.003-.488-.009l-.413-.015c-.774-.024-1.573-.049-2.362-.301-.066-.02-.137-.035-.215-.048m-14.683 3.921c1.004.4 2.054.615 3.29.678l.321-2.229zm16.862 1.207 3.075-.613c-.616-.195-1.205-.387-1.784-.619-.673-.27-1.33-.59-2.024-.929-.061-.03-.121-.059-.182-.089zm.589 1.451c.038.114.073.198.099.222.041.024.246.031.427.037l.111.002c1.074 0 3.201-.487 4.843-1.109 2.209-.837 3.586-2.372 4.211-4.693.031-.117.067-.236.102-.355.113-.372.218-.723.196-1.041-.093-1.343-.393-2.774-.917-4.374-.463-1.415-1.281-2.678-2.072-3.899-.39-.604-.794-1.227-1.151-1.864-.445.075-.89.114-1.325.114-.879 0-1.734-.15-2.612-.458-.699-.246-1.471-.518-2.019-1.028-.592-.553-1.08-1.213-1.552-1.851-.149-.202-.299-.404-.451-.602-.167-.216-.245-.475-.318-.744-.338-1.268-.199-2.29.443-3.184-.15-.091-.287-.175-.429-.252-.917-.494-1.922-.652-2.986-.82-.188-.03-.703-.115-.703-.115-.551-.093-1.12-.19-1.67-.19-.41 0-.775.053-1.114.162-.353.114-.707.225-1.06.336-.807.254-1.641.517-2.449.803-.482.17-.963.386-1.473.614-.093.042-.187.084-.283.127 1.131 1.077 1.88 2.365 2.284 3.922.129.498.163 1.025.098 1.483-.319 2.199-2.116 3.963-4.371 4.289-.286.041-.572.063-.848.084-.34.026-.661.05-.976.108-.182.032-.367.049-.549.049-.857 0-1.606-.361-2.24-.699-.912-.486-1.533-1.13-1.917-2l-.096.133c-.3.413-.564.778-.83 1.141-.916 1.248-1.544 2.749-1.921 4.592-.114.553-.055 1.179.003 1.783l.004.052c.039.409.126.811.219 1.237.039.181.079.361.114.542.262 1.34.795 2.404 1.63 3.253 1.442 1.464 3.283 2.52 5.794 3.32.434.139.867.281 1.3.423l.342.113c.429.14.79.233 1.156.233.168 0 .328-.019.487-.06l.085-.418c-.058-.009-.116-.018-.173-.027-.355-.056-.689-.109-1.018-.193-.32-.081-.648-.15-.977-.22-.863-.182-1.755-.371-2.542-.782-.972-.508-1.853-1.194-2.705-1.857-.328-.255-.655-.51-.987-.755-.222-.163-.391-.388-.531-.586-.403-.568-.542-1.334-.382-2.103.151-.734.56-1.348 1.118-1.686.497-.3 1.158-.681 1.867-.967 3.176-1.277 6.178-1.967 9.177-2.111.528-.025 1.057-.061 1.586-.096.659-.045 1.341-.091 2.016-.115.995-.037 1.894-.067 2.812-.067.356 0 .711.005 1.066.016 1.516.046 3.103.267 5.145.716 1.652.364 3.798.937 5.741 2.153 1.286.804 2.038 1.828 2.175 2.959.131 1.079-.313 2.177-1.283 3.175-1.068 1.099-2.45 1.853-4.223 2.302-.892.227-1.803.437-2.685.639-.271.062-.542.124-.813.187m-7.086 8.08c.325.025.637.038.951.038 1.026 0 2.138-.128 3.305-.379.724-.157 1.272-.425 1.723-.845.175-.163.29-.321.322-.445.248-.931.468-2.029.223-3.102-.27-1.181-.623-2.427-1.052-3.703-.342-1.019-.783-2.027-1.211-3.001-.52-1.188-1.059-2.417-1.435-3.698-.047-.167-.148-.336-.265-.524-.33-.535-.748-.8-1.396-.887-.553-.074-1.099-.11-1.67-.11-.645 0-1.304.046-2.012.142-1.117.152-1.741.711-2.081 1.869-.027.091-.049.184-.073.277-.068.273-.139.557-.293.815-.411.69-.503 1.462-.6 2.279l-.036.298c-.04.317-.074.636-.107.955-.077.743-.157 1.51-.32 2.256-.336 1.538-.436 3.135-.531 4.679l-.018.287c-.073 1.17.313 1.71 1.587 2.224.953.384 1.976.578 3.039.578l.16-.001c.209-.004.417-.005.632-.005zm.547 1.493c-.217 0-.433-.006-.651-.018-.383-.022-.767-.036-1.151-.051-.773-.029-1.572-.059-2.357-.152-1.506-.18-2.668-.669-3.553-1.497-.671-.626-.974-1.397-.904-2.291.043-.541.106-1.086.168-1.613.043-.369.086-.737.122-1.106.04-.409.067-.82.096-1.237l.023-.338c-.052-.022-.113-.05-.136-.052-.073.004-.154.007-.234.007-.907 0-1.743-.269-2.552-.53-.151-.048-.301-.096-.453-.143-2.58-.799-4.794-2.132-6.579-3.964-.879-.901-1.421-1.934-1.611-3.071-.064-.381-.14-.76-.216-1.14-.133-.662-.27-1.347-.339-2.035-.133-1.301.296-2.498.71-3.656l.068-.189c.606-1.698 1.654-3.134 2.588-4.346 1.525-1.977 3.446-3.737 6.23-5.708.226-.16.451-.324.675-.488.876-.641 1.784-1.304 2.831-1.75.066-.042.131-.084.218-.107.585-.156 1.175-.341 1.746-.521 1.169-.368 2.379-.748 3.651-.906.5-.062 1.001-.093 1.489-.093.94 0 1.881.116 2.797.347.637.16 1.244.425 1.832.68l.125.055c2.568 1.116 4.776 2.902 6.948 5.623.823 1.03 1.486 2.154 2.126 3.241l.429.725c.769 1.292 1.566 2.627 2.288 3.979.718 1.343 1.143 2.848 1.3 4.602l.002.065c.543 2.057-.225 3.854-.955 5.187-.771 1.402-2.076 2.262-3.128 2.854-1.345.757-2.822 1.07-4.249 1.373-.316.067-.63.134-.943.205-.211.048-.441.07-.723.07-.186 0-.38-.009-.584-.019-.067-.004-.135-.007-.203-.01.36 1.173.5 2.292.428 3.408-.033.538-.111 1.086-.179 1.57-.174 1.212-1.029 2.07-2.348 2.356-1.481.321-3.159.684-4.842.684" fill="#ec008c"/><path d="m55.926 90.635c1.615-.322 3.101-.618 4.669-.931-1.088-.36-2.083-.637-3.036-1.019-.966-.386-1.89-.876-2.994-1.398.475 1.169.885 2.18 1.361 3.348m-17.512-1.609c1.497.74 2.926.996 4.45 1.041.156-1.075.301-2.083.456-3.148-1.644.705-3.2 1.374-4.906 2.107m6.618-6.032c1.122-.793 2.354-.635 3.493-.939v-1.516c-1.897.019-3.722.064-5.728.498.838.733 1.513 1.325 2.235 1.957m10.314-2.159c-.651-.116-1.028-.216-1.409-.243-.96-.069-1.921-.117-2.882-.151-.604-.022-1.207-.004-1.797-.004-.258 1.766.25 1.799 1.446 1.914.794.076 1.578.263 2.534.429.574-.53 1.254-1.158 2.108-1.945m-10.741 2.772c-.071-.121-.102-.221-.168-.282-.717-.653-1.423-1.322-2.174-1.935-.19-.154-.55-.213-.799-.16-1.039.223-2.084.447-3.091.782-.975.324-1.91.773-2.853 1.19-.374.165-.725.386-.912.812.836.548 1.766.579 2.647.567 1.484-.018 2.965-.186 4.446-.303.992-.08 1.981-.177 2.904-.671m18.3-.053c.003-.066.006-.133.01-.199-.246-.151-.482-.324-.742-.448-1.61-.764-3.267-1.382-5.018-1.771-.701-.155-1.175-.007-1.657.437-.571.529-1.16 1.04-1.747 1.55-.202.176-.424.328-.787.607 1.59.558 3.016.875 4.528.698.416-.049.836-.116 1.253-.105 1.451.036 2.792-.421 4.16-.769m-6.86-16.412c-.61.431-.776.966-.823 1.575-.061.792.221 1.452.674 2.081 1.051 1.458 2.359 2.48 4.226 2.613.419.03.838.115 1.255.108.26-.004.517-.134.816-.22-1.578-2.624-3.6-4.622-6.148-6.157m-21.818 17.736c-.196.632-.063 1.043.263 1.467.675.876 1.635 1.365 2.528 1.941.187.121.504.101.748.065 2.06-.312 3.842-1.31 5.611-2.326.573-.329.705-.86.657-1.448-3.277.519-6.498.955-9.807.301m19.258-.179c.132.563.275 1 .674 1.265 1.163.769 2.338 1.52 3.517 2.265.187.119.413.196.631.249.914.221 1.826.466 2.752.618.39.064.929.062 1.203-.157.644-.515 1.209-1.148 1.728-1.796.249-.309.456-.762.445-1.143-.015-.524-.148-1.112-.429-1.542-.264-.405-.769-.074-1.166.013-.032.008-.064.011-.097.015-1.918.28-3.812.722-5.779.642-.909-.036-1.808-.02-2.685-.299-.229-.073-.48-.081-.794-.13m-18.703-11.293c.081.803.26 1.459.841 1.83.649.413 1.342.806 2.07 1.03 1.074.33 2.179.061 3.242-.179 1.436-.325 2.404-1.286 2.868-2.639.549-1.601-.331-3.836-1.753-4.805-.703-.479-.989-.492-1.677-.013-.692.482-1.382.97-2.051 1.484-1.29.99-2.508 2.058-3.54 3.292m14.86 26.71c1.378.112 2.856-.032 4.329-.349.719-.155 1.353-.435 1.885-.929.178-.166.362-.384.422-.61.285-1.072.474-2.177.225-3.269-.288-1.261-.649-2.509-1.061-3.736-.763-2.273-1.964-4.375-2.641-6.685-.063-.215-.185-.417-.304-.61-.378-.611-.883-.945-1.644-1.047-1.271-.171-2.504-.14-3.775.032-1.334.18-2.015.919-2.367 2.114-.099.341-.153.715-.331 1.012-.502.844-.565 1.781-.683 2.712-.132 1.061-.193 2.139-.42 3.18-.364 1.658-.452 3.337-.557 5.018-.08 1.279.359 1.985 1.804 2.566 1.05.424 2.181.624 3.335.603.552-.01 1.106-.002 1.783-.002m-7.698-32.689c1.392 1.174 2.171 2.536 2.58 4.109.111.43.153.91.09 1.347-.296 2.049-1.99 3.694-4.078 3.996-.608.088-1.231.085-1.836.193-.956.173-1.769-.19-2.564-.614-.925-.492-1.629-1.209-1.976-2.429-.514.71-.909 1.259-1.308 1.804-1.041 1.417-1.635 3.031-1.983 4.727-.127.621-.057 1.295.003 1.937.058.61.22 1.21.338 1.813.254 1.304.777 2.468 1.723 3.429 1.663 1.69 3.712 2.699 5.935 3.408.548.175 1.094.356 1.64.534.652.214 1.308.379 2.049.116.06-.295.122-.596.199-.971-.574-.101-1.054-.156-1.518-.274-1.161-.293-2.41-.433-3.445-.974-1.308-.683-2.445-1.698-3.646-2.583-.179-.132-.324-.323-.454-.508-.706-.996-.398-2.669.632-3.291.583-.353 1.188-.689 1.819-.943 2.909-1.17 5.916-1.935 9.063-2.086 1.199-.058 2.398-.168 3.598-.212 1.284-.047 2.571-.09 3.854-.05 1.715.052 3.407.339 5.082.708 1.977.435 3.906 1.028 5.632 2.108 2.364 1.478 2.706 3.666.827 5.599-1.112 1.144-2.523 1.818-4.059 2.209-1.279.324-2.569.607-3.857.909.255.832.255.832.957.857 1.149.041 3.458-.512 5.089-1.13 2.336-.885 3.781-2.541 4.422-4.926.134-.498.344-1.016.31-1.51-.105-1.522-.459-3.011-.933-4.458-.737-2.249-2.29-4.045-3.37-6.042-1.426.288-2.737.161-4.004-.284-.668-.235-1.4-.49-1.898-.955-.751-.7-1.332-1.587-1.965-2.41-.133-.173-.199-.406-.258-.623-.3-1.123-.252-2.194.624-3.186-.298-.178-.533-.332-.779-.465-1.14-.614-2.414-.738-3.656-.948-1.017-.171-2.055-.372-3.088-.039-1.174.377-2.357.73-3.519 1.141-.729.258-1.428.604-2.272.967m14.702 25.459c.454 1.288.646 2.501.567 3.745-.033.516-.105 1.03-.179 1.543-.171 1.206-1.074 1.849-2.077 2.066-1.767.383-3.561.764-5.4.659-1.163-.067-2.333-.065-3.486-.202-1.236-.147-2.41-.519-3.358-1.405-.591-.552-.857-1.224-.795-2.011.071-.906.2-1.808.289-2.712.059-.603.091-1.208.137-1.831-.215-.078-.364-.184-.509-.176-1.102.059-2.103-.335-3.127-.652-2.465-.762-4.628-2.023-6.432-3.874-.788-.807-1.329-1.753-1.518-2.886-.176-1.053-.444-2.095-.553-3.154-.131-1.291.337-2.505.761-3.693.562-1.575 1.517-2.929 2.536-4.251 1.729-2.241 3.865-4.015 6.155-5.637 1.115-.788 2.171-1.66 3.442-2.202.059-.025.11-.075.172-.091 1.782-.473 3.492-1.188 5.35-1.418 1.419-.175 2.795-.097 4.159.246.653.165 1.282.447 1.903.717 2.782 1.209 4.936 3.167 6.816 5.521.965 1.208 1.697 2.533 2.476 3.842.798 1.338 1.598 2.677 2.332 4.05.742 1.39 1.12 2.902 1.261 4.471.003.032-.002.066.005.097.474 1.796-.083 3.434-.918 4.956-.666 1.213-1.785 2.039-2.994 2.72-1.587.893-3.366 1.147-5.098 1.542-.555.126-1.162.02-1.917.02" fill="#ec008c"/><path d="m47.958 69.725c.467-.103.956-.15 1.396-.322.618-.241.793-.805.811-1.422.017-.602-.041-1.183-.663-1.493-.682-.34-1.406-.488-2.163-.355-.455.079-.841.264-1.09.711-.742 1.328.139 2.806 1.709 2.881m13.849 10.652c1.542.024 2.374-.564 2.515-1.692.093-.748.073-1.586-.757-2.045-.623-.344-1.294-.612-1.875-1.015-.624-.434-1.22-.318-1.85-.128-.862.26-1.745 1.159-1.732 1.894.018.913.346 1.784 1.209 2.179.903.412 1.897.622 2.49.807m-6.571-6.57c-.049-.978-.322-1.875-1.397-2.472-.785-.437-1.604-.672-2.443-.891-.24-.063-.533-.054-.767.025-.734.246-1.456.535-2.178.82-.662.261-1.076.806-1.182 1.45-.12.722-.076 1.483-.009 2.218.029.331.232.685.449.952.693.851 1.541 1.414 2.677 1.611.885.154 1.667-.02 2.468-.283 1.416-.466 2.398-1.84 2.382-3.43m-13.293-6.38c.845-.363 1.543-.709 2.273-.967 1.162-.411 2.345-.764 3.518-1.141 1.034-.333 2.072-.132 3.089.039 1.241.21 2.516.334 3.656.949.246.132.481.286.779.464-.876.993-.924 2.063-.624 3.186.058.217.125.451.258.623.632.823 1.213 1.71 1.964 2.411.498.464 1.231.719 1.899.954 1.266.446 2.578.572 4.004.284 1.08 1.997 2.633 3.793 3.37 6.042.474 1.448.828 2.936.933 4.458.034.495-.176 1.012-.31 1.51-.642 2.385-2.086 4.041-4.422 4.926-1.631.618-3.94 1.171-5.089 1.13-.702-.025-.702-.025-.957-.857 1.288-.302 2.577-.585 3.857-.909 1.536-.39 2.947-1.065 4.059-2.209 1.879-1.932 1.536-4.12-.827-5.599-1.727-1.08-3.655-1.673-5.632-2.108-1.676-.368-3.367-.656-5.082-.708-1.283-.04-2.57.004-3.854.05-1.201.044-2.399.154-3.598.212-3.147.151-6.154.916-9.063 2.086-.631.254-1.236.59-1.819.943-1.03.622-1.339 2.296-.633 3.291.131.185.276.376.454.509 1.202.884 2.338 1.899 3.647 2.583 1.035.541 2.284.68 3.444.974.465.117.945.172 1.519.273-.077.375-.139.676-.199.971-.742.263-1.397.098-2.049-.115-.546-.179-1.092-.36-1.64-.535-2.223-.709-4.272-1.717-5.935-3.408-.947-.961-1.469-2.125-1.723-3.429-.118-.603-.28-1.203-.338-1.813-.06-.642-.13-1.316-.003-1.937.348-1.696.942-3.31 1.983-4.727.399-.545.793-1.093 1.308-1.804.347 1.22 1.051 1.937 1.976 2.429.795.424 1.608.787 2.564.615.605-.109 1.228-.106 1.836-.194 2.088-.302 3.781-1.946 4.078-3.996.063-.437.021-.917-.091-1.346-.408-1.574-1.187-2.936-2.58-4.11" fill="#c4122d"/><path d="m49.642 100.116c-.677 0-1.23-.008-1.783.002-1.154.021-2.284-.179-3.335-.603-1.444-.581-1.884-1.287-1.804-2.566.106-1.681.193-3.36.557-5.018.227-1.041.288-2.119.421-3.18.117-.931.18-1.868.682-2.712.178-.297.232-.671.331-1.012.352-1.195 1.034-1.933 2.368-2.114 1.27-.172 2.503-.203 3.774-.032.761.102 1.267.436 1.644 1.048.12.192.241.394.304.609.677 2.31 1.878 4.412 2.641 6.685.412 1.227.773 2.476 1.061 3.736.249 1.092.06 2.197-.225 3.269-.06.226-.243.444-.422.61-.531.494-1.166.774-1.885.929-1.473.317-2.951.461-4.329.349" fill="#a07d65"/><path d="m34.783 73.406c1.031-1.235 2.25-2.303 3.54-3.292.669-.514 1.358-1.003 2.051-1.485.687-.478.973-.466 1.677.014 1.421.969 2.301 3.203 1.753 4.804-.464 1.353-1.432 2.315-2.869 2.64-1.062.24-2.168.508-3.242.178-.727-.224-1.421-.616-2.069-1.029-.581-.371-.76-1.027-.841-1.83" fill="#fff"/><path d="m53.485 84.699c.314.049.565.056.794.129.878.28 1.776.263 2.685.3 1.967.079 3.862-.362 5.78-.642.032-.005.064-.008.096-.015.397-.088.903-.418 1.166-.014.282.431.415 1.018.429 1.542.011.382-.195.835-.444 1.144-.52.647-1.084 1.281-1.729 1.796-.273.219-.812.221-1.203.157-.926-.152-1.838-.397-2.752-.618-.218-.053-.443-.131-.631-.25-1.178-.744-2.353-1.495-3.516-2.264-.4-.265-.542-.702-.675-1.265" fill="#eae2a2"/><path d="m34.227 84.878c3.31.655 6.53.219 9.808-.3.047.587-.084 1.118-.658 1.447-1.769 1.017-3.55 2.015-5.611 2.326-.244.037-.56.057-.748-.064-.893-.576-1.853-1.065-2.527-1.942-.326-.424-.459-.835-.264-1.467" fill="#eae2a2"/><path d="m56.045 67.142c2.548 1.534 4.57 3.533 6.147 6.157-.298.085-.555.216-.815.22-.417.007-.836-.078-1.255-.108-1.867-.133-3.176-1.155-4.226-2.614-.454-.628-.735-1.289-.674-2.081.047-.608.213-1.143.823-1.574" fill="#fff"/><path d="m62.905 83.554c-1.367.348-2.709.805-4.159.769-.417-.011-.837.056-1.253.105-1.513.177-2.939-.14-4.528-.698.363-.279.585-.431.787-.607.587-.51 1.175-1.021 1.747-1.549.481-.445.956-.593 1.656-.438 1.752.389 3.408 1.007 5.019 1.772.259.123.496.296.742.447-.004.066-.007.133-.011.199" fill="#eae2a2"/><path d="m44.605 83.607c-.923.494-1.912.591-2.903.67-1.482.118-2.963.286-4.447.304-.88.011-1.811-.019-2.647-.567.187-.426.538-.647.912-.812.943-.417 1.878-.866 2.854-1.19 1.006-.335 2.051-.559 3.09-.782.249-.054.61.005.799.16.751.613 1.457 1.281 2.174 1.935.066.061.098.16.168.282" fill="#eae2a2"/><path d="m55.346 80.835c-.854.787-1.534 1.416-2.107 1.945-.956-.166-1.741-.352-2.535-.429-1.196-.115-1.704-.147-1.446-1.914.59 0 1.193-.018 1.797.004.961.035 1.922.082 2.882.151.381.027.758.127 1.409.243" fill="#eae2a2"/><path d="m45.033 82.994c-.723-.633-1.397-1.224-2.235-1.957 2.006-.434 3.831-.48 5.727-.498v1.516c-1.138.303-2.371.146-3.492.939" fill="#eae2a2"/><path d="m38.415 89.026c1.706-.733 3.262-1.401 4.905-2.107-.154 1.065-.3 2.074-.455 3.149-1.524-.046-2.953-.301-4.45-1.042" fill="#eae2a2"/><path d="m55.926 90.635c-.476-1.168-.886-2.179-1.361-3.348 1.104.522 2.028 1.012 2.994 1.398.953.382 1.948.659 3.036 1.019-1.568.313-3.054.609-4.669.931" fill="#eae2a2"/><path d="m51.169 76.873c1.822-.028 2.819-.721 3.35-2.326.279-.847-.014-1.825-.728-2.347-1.155-.845-2.414-1.14-3.851-.827-1.163.254-1.998.803-2.17 1.93-.155 1.006.097 1.957.941 2.699.767.675 1.667.804 2.458.871m4.067-3.066c.016 1.59-.965 2.964-2.382 3.43-.801.263-1.583.437-2.468.283-1.136-.197-1.984-.76-2.677-1.611-.217-.267-.42-.621-.449-.952-.067-.735-.111-1.496.009-2.218.106-.644.52-1.189 1.182-1.45.722-.285 1.444-.574 2.178-.82.234-.079.527-.088.767-.025.839.219 1.658.454 2.443.891 1.075.597 1.349 1.495 1.397 2.472" fill="#ec008c"/><path d="m62.212 79.588c.527.044.965-.101 1.242-.585.294-.512.243-.999-.135-1.441-.185-.217-.401-.411-.619-.597-.514-.44-1.175-.518-1.793-.703-.816-.245-1.567.003-1.973.734-.125.226-.179.595-.081.816.152.339.412.682.717.888.789.533 1.69.805 2.642.888m-.405.789c-.593-.185-1.587-.395-2.49-.808-.863-.394-1.191-1.265-1.209-2.179-.013-.734.87-1.633 1.732-1.893.63-.19 1.226-.306 1.851.128.58.403 1.251.671 1.875 1.015.83.459.849 1.297.756 2.045-.141 1.128-.973 1.715-2.515 1.692" fill="#ec008c"/><path d="m47.908 66.837c-.437.054-.849.021-1.104.492-.199.362-.161.678.04 1.001.252.408.603.688 1.104.663.319-.015.643-.078.95-.165.368-.103.61-.343.644-.755.036-.437-.124-.781-.524-.941-.352-.142-.738-.2-1.11-.295m.051 2.888c-1.571-.075-2.451-1.553-1.709-2.881.249-.447.635-.632 1.09-.711.756-.133 1.481.016 2.163.355.622.31.679.891.663 1.493-.018.617-.194 1.181-.811 1.422-.44.172-.929.219-1.396.322" fill="#ec008c"/><path d="m51.169 76.873c-.791-.067-1.691-.196-2.458-.871-.844-.742-1.096-1.693-.941-2.699.172-1.127 1.007-1.676 2.17-1.93 1.437-.313 2.696-.018 3.851.827.714.522 1.007 1.5.728 2.347-.531 1.605-1.528 2.298-3.35 2.326" fill="#fff"/><path d="m62.212 79.588c-.952-.083-1.853-.355-2.642-.888-.305-.206-.565-.549-.717-.888-.098-.221-.044-.59.081-.816.406-.731 1.157-.979 1.973-.734.618.185 1.279.263 1.793.703.218.186.434.38.619.597.378.442.429.929.135 1.441-.277.484-.715.629-1.242.585" fill="#fff"/><path d="m47.908 66.837c.372.095.758.153 1.11.295.4.16.56.504.524.941-.034.412-.276.652-.644.755-.307.087-.631.15-.95.165-.501.025-.852-.255-1.104-.663-.201-.323-.239-.639-.04-1.001.255-.471.667-.438 1.104-.492" fill="#fff"/></g><path d="m86.411 67.585c-.096-.014-.411-.095-.723-.091-.875.011-1.75.054-2.625.091-.592.024-1.186.11-1.774.072-.516-.033-.849.037-1.085.572-.373.842-1.06 1.392-1.929 1.714-.49.183-.898.103-1.233-.31-.34-.421-.158-.774.112-1.145.307-.423.579-.871.867-1.309-.438-.285-.899-.54-1.306-.863-.607-.482-1.189-.997-1.755-1.528-.298-.28-.56-.471-1.018-.384-1.307.247-2.52-.114-3.685-.684-.095-.047-.191-.092-.287-.138-1.278-.609-2.057-.164-2.221 1.268-.08.699.058.864.778 1.099.188.062.329.269.492.409-.193.13-.372.34-.582.376-.92.157-1.668-.764-1.447-1.844.111-.541.37-1.061.624-1.56.163-.319.295-.533-.106-.776-1.571-.953-1.909-2.342-1.401-4.034.207-.691.197-1.371-.1-2.069-.476-1.117-.256-2.168.585-3.033.395-.406.387-.586-.064-.961-.916-.76-1.07-2.38-.385-3.163.114-.131.245-.294.397-.337.238-.066.5-.041.751-.055-.112.188-.181.438-.344.551-.562.391-.615.922-.481 1.507.114.496.326.945.867 1.115.556.176.956-.069 1.28-.501.924-1.23 2.275-1.748 3.669-2.189.544-.172.935-.427 1.301-.945.446-.631 1.166-1.11 1.849-1.519.691-.415 1.474-.681 2.23-.98.507-.202.677-.478.348-.962-.258-.38-.509-.765-.764-1.145-.409-.609-.432-1.063-.073-1.442.319-.336 1.152-.449 1.579-.098.734.601 1.514 1.221 1.527 2.3.007.547.222.721.762.738.91.028 1.729-.134 2.519-.619.627-.385 1.331-.647 2.004-.957.639-.294.856-.915.527-1.55-.162-.312-.378-.601-.504-.927-.267-.691-.185-.914.365-1.245.749-.451 1.337-.468 1.694.086.318.492.535 1.07.697 1.638.319 1.126.282 1.056 1.407.948 1.117-.107 1.933-.462 2.588-1.458.718-1.092 1.845-1.726 3.21-1.796.212-.011.452-.091.628-.017.338.142.775.299.923.58.229.433-.214.669-.553.872-.575.345-1.153.684-1.715 1.05-.182.118-.315.312-.47.472.186.058.371.147.562.17 1.615.189 3.237.329 4.846.556 2.242.317 4.281 1.204 6.173 2.419 1.293.83 1.737 2.107 1.257 3.553-.183.55-.162.976.157 1.483.996 1.582 1.47 3.274.916 5.155-.073.249.038.627.195.855.955 1.383.919 3.404-.099 4.707-1.472 1.883-3.428 3.051-5.67 3.719-1.55.462-3.153.744-4.733 1.104-.136.031-.298.004-.416.066-.236.125-.451.292-.675.443.153.218.259.514.468.638.512.303 1.093.489 1.604.792.442.262.898.561 1.219.95.43.518.216.943-.472 1.002-.451.039-.915-.034-1.369-.084-1.751-.195-3.039-1.041-3.733-2.7-.121-.291-.269-.428-.636-.381-1.12.144-2.245.258-3.371.33-.531.034-.737.268-.815.765-.132.83-.507 1.556-1.199 2.052-.262.188-.739.417-.914.305-.264-.168-.427-.604-.487-.951-.056-.333.06-.7.123-1.047.137-.746.143-.745-.881-.725z" fill="#7b7323"/><path d="m78.081 69.517c.554-.508 1.026-.902 1.444-1.347.135-.144.124-.423.181-.64-.331-.045-.817-.248-.96-.105-.412.407-.702.945-.991 1.458-.047.083.15.304.326.634z" fill="#7d2427"/><path d="m87.81 68.963c.07.183.091.417.2.469.106.052.378-.033.445-.141.251-.405.489-.829.637-1.278.044-.133-.192-.473-.361-.526-.15-.046-.484.124-.56.283-.177.372-.248.794-.361 1.193z" fill="#7d2427"/><path d="m99.074 69.38c-.097.02.035-.007.167-.034-.067-.144-.094-.348-.206-.42-.411-.263-.846-.489-1.279-.715-.643-.338-1.415-.51-1.65-1.356-.026-.096-.199-.15-.304-.224-.088.134-.234.26-.253.403-.071.544.226.934.606 1.278.762.689 1.667 1.022 2.919 1.068z" fill="#7d2427"/><path d="m72.535 54.235c.009.177.004.355.03.53.208 1.465.504 2.923.614 4.395.171 2.271 1.055 4.098 2.782 5.612 1.918 1.68 4.082 2.427 6.599 2.228.138-.011.273-.055.41-.083-.077-.142-.152-.284-.229-.425-.418-.766-.984-1.488-1.224-2.306-.483-1.65-.859-3.34-1.15-5.035-.297-1.73-.782-3.45-.553-5.242.099-.771.079-1.562.24-2.317.345-1.616.313-3.313 1.044-4.849.217-.456.075-.607-.473-.534-1.795.237-3.495.806-5.143 1.542-.847.378-1.413 1.054-1.832 1.83-.78 1.444-1.379 2.951-1.115 4.654z" fill="#92813b"/><path d="m86.153 66.951c2.103-.167 3.86-.297 5.615-.451.806-.07 1.611-.165 2.41-.292 1.495-.237 2.998-.453 4.475-.777 1.581-.347 3.194-.667 4.685-1.267 1.218-.491 2.283-1.368 3.399-2.097.139-.092.181-.332.268-.503-.166.018-.339.014-.499.058-2.308.635-4.585 1.408-6.982 1.672-2.803.309-5.601.746-8.412.878-2.495.117-5.007-.105-7.512-.184-.406-.012-.966-.277-1.135.195-.108.304.206.773.364 1.154.064.156.187.324.33.405 1.047.59 2.112 1.14 2.994 1.209z" fill="#8eac3e"/><path d="m70.681 54.984c-.25.684-.431 1.574-.883 2.292-.374.594-.233.811.141 1.301.889 1.165 1.622 2.433.726 3.969-.067.117.017.472.105.503.755.265 1.516.552 2.3.686.502.086.604-.16.402-.647-.202-.486-.515-.954-.593-1.459-.345-2.225-.683-4.455-.907-6.695-.146-1.474-.06-2.961.609-4.346.166-.344.148-.702-.356-.542-1.152.366-2.171.989-3.04 1.836-.207.203-.257.463.079.582 1.126.398 1.107 1.425 1.417 2.52z" fill="#943d35"/><path d="m102.029 59.876c.177-.107.344-.249.535-.316 1.1-.385 2.21-.739 3.307-1.131.598-.214 1.18-.473 1.762-.73.252-.111.456-.339.183-.567-.752-.63-1.502-1.279-2.623-1.049-.898.185-1.808.317-2.717.444-2.449.343-4.901.664-7.351 1.006-3.431.479-6.863.954-10.344.797-.67-.03-1.35-.029-2.014.047-1.875.211-1.98.406-1.442 2.217.14.473.371.698.901.674.882-.039 1.769-.023 2.652.001 2.716.073 5.431.242 8.142-.166 2.76-.416 5.529-.764 8.296-1.14-1.295.32-2.574.742-3.887.943-3.453.528-6.914 1.036-10.424.982-1.513-.023-3.027-.076-4.542-.088-.286-.003-.737-.038-.671.445.051.372-.006.866.634.919 1.371.112 2.734.359 4.105.411 5.885.227 11.714-.206 17.418-1.769 1.155-.317 2.277-.756 3.413-1.145 1.059-.363 1.059-1.203.972-1.96-.05-.446-.308-.629-.833-.462-1.814.577-3.647 1.096-5.472 1.637z" fill="#8eac3e"/><path d="m85.608 57.837c1.268 0 2.445.103 3.599-.019 3.686-.39 7.366-.844 11.042-1.315 1.013-.129 2.008-.398 3.008-.618.119-.026.217-.152.325-.232-.118-.058-.23-.138-.355-.169-1.896-.468-3.828-.763-5.774-.575-2.176.21-4.333.605-6.505.862-3.151.371-6.306.699-9.462 1.022-.462.047-.605.243-.597.673.009.491.276.579.693.557 1.374-.073 2.749-.128 4.026-.186z" fill="#8eac3e"/><path d="m91.63 52.488c-1.456.13-3.534.267-5.599.515-1.57.189-3.157.334-4.658.916-.393.152-.685.254-.721.754-.08 1.106.166 1.383 1.308 1.277 1.196-.112 2.389-.362 3.581-.358 2.34.008 4.655-.224 6.968-.505.874-.106 1.744-.255 2.613-.406.657-.114 1.315-.237 1.961-.4 1.604-.405 3.205-.821 4.795-1.271.262-.074.47-.34.703-.518-.298-.058-.596-.169-.893-.165-3.145.039-6.289.097-10.058.161z" fill="#8eac3e"/><path d="m100.068 54.342c.533.137.868.248 1.214.308 1.839.319 3.686.597 5.519.95.606.116.769-.145.832-.63.179-1.356-.263-2.575-.842-3.763-.205-.422-.419-.229-.643-.01-1.112 1.08-2.461 1.756-3.9 2.281-.661.239-1.307.516-2.18.864z" fill="#3d5312"/><path d="m99.35 51.898c0-.006.001-.013.001-.018 1.343 0 2.686-.003 4.028 0 .865.002 1.582-.323 2.153-.966.628-.708.454-1.318-.456-1.483-.728-.133-1.471-.248-2.207-.249-2.648-.002-5.299-.03-7.943.096-3.491.166-6.961.611-10.368 1.407-1.126.262-2.197.755-3.294 1.14-.529.186-.655.588-.606 1.096.028.292.129.457.467.399 1.11-.189 2.22-.38 3.334-.539 1.571-.224 3.141-.53 4.72-.605 3.388-.159 6.78-.193 10.171-.278z" fill="#8eac3e"/><path d="m106.802 48.076c-.084-.62-.364-1.237-1.046-1.515-.749-.306-1.521-.614-2.312-.744-4.686-.77-9.367-.676-14.027.233-1.211.237-2.44.478-3.588.91-1.182.444-2.236 1.229-3.419 1.667-1.024.378-1.214 1.196-1.471 2.022-.145.464.019.557.5.397.63-.208 1.259-.437 1.905-.579 3.731-.825 7.497-1.408 11.322-1.534 1.377-.045 2.755-.058 4.133-.053 2.395.009 4.789.035 7.184.074.612.01.83-.163.819-.878z" fill="#8eac3e"/><path d="m103.168 45.067c.018-.062.037-.124.054-.185-.387-.13-.767-.279-1.16-.388-3.291-.916-6.642-1.225-10.053-1.089-2.908.117-5.667.7-8.216 2.153-.846.483-1.575 1.075-2.05 1.937-.072.129-.043.313-.061.472.131-.019.269-.019.391-.061.132-.045.253-.125.374-.198 1.766-1.075 3.643-1.804 5.704-2.161 3.172-.55 6.346-.998 9.57-1.033.456-.005.914.053 1.369.101 1.361.145 2.719.3 4.078.452z" fill="#8eac3e"/><path d="m79.455 45.299c.078-1.122-.372-1.779-1.024-2.315-.103-.085-.371-.107-.462-.034-.093.076-.134.341-.073.459.324.626.675 1.24 1.048 1.837.068.11.286.166.435.168.062.001.126-.206.076-.115z" fill="#7d2427"/><path d="m87.728 42.349c-.123-.361-.289-.824-.439-1.292-.125-.393-.329-.652-.771-.431-.408.203-.244.545-.119.828.223.507.477 1 .731 1.492.042.081.171.198.218.181.113-.04.236-.131.29-.236.061-.118.05-.273.09-.542z" fill="#7d2427"/><path d="m95.874 40.253c-.097-.063-.172-.143-.26-.162-.858-.184-2.787 1.095-2.999 1.996-.027.11.046.351.08.352.19.008.528.004.552-.075.259-.853 1.023-.994 1.692-1.291.283-.125.53-.339.78-.53.071-.055.095-.173.155-.29z" fill="#7d2427"/><path d="m66.373 59.805c.074 1.377 1.295 2.659 2.968 2.552.462-.03.916-.483.839-.92-.171-.959-.299-1.931-1.139-2.646-.615-.523-1.313-.728-1.931-.376-.385.22-.501.91-.737 1.39z" fill="#fff"/><path d="m66.885 56.401-.023-.02c.081.778.687.887 1.283 1.007.594.119.92-.266 1.196-.68.632-.95.656-1.971.273-3.018-.161-.441-.486-.77-.95-.643-.528.145-1.072.371-1.502.701-.859.657-.944 1.867-.277 2.653z" fill="#fff"/><path d="m67.198 60.814c-.092-.296-.246-.59-.25-.887-.002-.153.264-.309.408-.463.144.282.344.552.404.851.03.145-.205.343-.319.517z" fill="#230000" fill-rule="nonzero"/><path d="m66.886 56.402c-.074-.233-.162-.463-.22-.7-.107-.448.091-.765.498-.915.113-.042.418.098.42.161.01.36.02.746-.105 1.072-.067.174-.403.245-.616.362z" fill="#230000" fill-rule="nonzero"/></svg>