<?xml version="1.0" encoding="UTF-8" standalone="no"?><!DOCTYPE svg PUBLIC "-//W3C//DTD SVG 1.1//EN" "http://www.w3.org/Graphics/SVG/1.1/DTD/svg11.dtd"><svg width="100%" height="100%" viewBox="0 0 163 161" version="1.1" xmlns="http://www.w3.org/2000/svg" xmlns:xlink="http://www.w3.org/1999/xlink" xml:space="preserve" xmlns:serif="http://www.serif.com/" style="fill-rule:evenodd;clip-rule:evenodd;stroke-miterlimit:10;"><g><rect x="10.417" y="11.052" width="141.488" height="138.976" style="fill:#c0a7d0;stroke:#fff;stroke-width:2px;"/><path d="M37.874,58.893c0.779,-0.434 1.583,-0.74 1.704,-1.695c-0.759,-0.462 -1.375,-0.201 -1.874,0.309c-0.409,0.418 -0.529,0.913 0.17,1.386m-1.321,3.618c0.12,-0.945 0.239,-1.889 0.355,-2.812c-0.937,-0.34 -1.294,0.211 -1.59,0.742c-0.633,1.138 0.76,1.383 1.235,2.07m84.46,-5.704l1.438,0c0.373,-0.757 0.242,-1.459 -0.329,-1.864c-0.674,-0.477 -1.492,-0.246 -2.389,0.105c0.466,0.64 0.874,1.201 1.28,1.759m3.449,3.59c0.245,-1.848 -0.415,-2.695 -2.77,-2.132c0.024,0.428 0.05,0.879 0.077,1.363c0.474,0.081 0.923,0.119 1.344,0.241c0.447,0.128 0.867,0.336 1.349,0.528m-91,32.777c-0.353,-0.299 -0.6,-0.526 -0.866,-0.729c-0.716,-0.548 -1.53,-0.562 -2.29,-0.054c-0.647,0.432 -0.665,0.954 0.034,1.282c0.601,0.283 1.273,0.429 2.128,0.704c0.127,-0.179 0.282,-0.42 0.462,-0.643c0.147,-0.182 0.323,-0.343 0.532,-0.56m1.938,-29.829c-0.702,1.288 -0.221,2.158 1.183,2.374c1.567,0.24 2.478,-0.051 3.738,-1.104c-0.656,-0.039 -1.506,0.034 -2.274,-0.17c-0.922,-0.245 -1.774,-0.726 -2.647,-1.1m83.562,-0.793c2.031,-0.835 3.919,-0.077 6.033,0.296c-0.274,-0.496 -0.378,-0.882 -0.637,-1.116c-1.16,-1.052 -3.425,-1.299 -4.905,-0.638c-0.673,0.301 -0.881,0.692 -0.491,1.458m-71.95,48.113c1.465,0.873 2.768,0.991 3.608,0.216c0.984,-0.907 0.777,-1.999 0.304,-3.112c-2.219,-0.143 -2.867,1.543 -3.912,2.896m-6.345,-44.8c-0.141,0.024 -0.303,0.013 -0.419,0.077c-1.32,0.726 -2.683,1.162 -4.246,0.784c-0.264,-0.063 -0.803,0.098 -0.876,0.278c-0.145,0.355 -0.184,0.848 -0.033,1.192c0.38,0.862 1.492,1.371 2.484,1.156c0.618,-0.134 1.225,-0.377 1.788,-0.658c1.521,-0.757 1.677,-1.135 1.302,-2.829m3.622,59.837c0.383,0.028 0.562,0.043 0.742,0.056c1.635,0.114 3.178,0.932 4.885,0.567c0.128,-0.028 0.433,0.167 0.458,0.292c0.207,1.068 1.284,0.994 1.833,1.386c1.038,-0.487 1.948,-0.914 2.861,-1.343c-0.039,-0.899 -0.592,-1.383 -1.479,-1.701c-1.093,-0.392 -2.194,-0.557 -3.354,-0.475c-1.973,0.14 -3.943,0.287 -5.946,1.218m54.468,-18.029c-2.088,-1.412 -3.229,-3.28 -3.606,-5.794c-0.725,3.014 -3.138,4.206 -5.788,5.408c3.269,0.406 6.27,0.718 9.394,0.386m-64.548,15.341c0,-0.744 0.008,-1.494 -0.002,-2.243c-0.009,-0.561 -0.296,-0.825 -0.923,-0.872c-1.319,-0.1 -2.632,-0.266 -4.055,-0.417c0,1.535 -0.037,3.082 0.016,4.627c0.026,0.804 0.38,0.935 1.179,0.578c1.209,-0.54 2.424,-1.072 3.785,-1.673m39.342,-52.745c-1.695,1.467 -2.091,3.426 -1.214,5.246c0.219,0.456 0.571,0.889 0.962,1.232c2.218,1.941 7.043,1.717 9.073,-0.371c1.157,-1.189 1.778,-2.588 1.53,-4.245c-0.094,-0.632 -0.382,-1.115 -1.013,-1.302c-0.275,0.965 -0.5,1.879 -0.806,2.768c-0.116,0.339 -0.353,0.699 -0.646,0.916c-1.431,1.059 -3.12,1.351 -4.806,0.892c-1.314,-0.357 -2.373,-1.153 -2.484,-2.682c-0.055,-0.766 -0.359,-1.516 -0.596,-2.454m-9.534,17.151c0.732,-3.631 2.184,-7.032 2.761,-10.632c-1.916,-0.374 -3.671,-0.695 -5.415,-1.063c-0.83,-0.176 -1.742,-0.397 -1.876,-1.362c-0.149,-1.077 -0.929,-1.483 -1.837,-1.818c-3.663,-1.352 -7.331,-2.694 -10.992,-4.052c-0.909,-0.338 -1.716,-0.428 -2.606,0.18c-0.622,0.425 -1.454,0.576 -2.298,0.889c2.451,0.381 4.591,1.144 6.651,2.102c1.382,0.642 2.734,1.077 4.249,0.413c0.306,-0.134 0.682,-0.122 1.022,-0.193c0.944,-0.196 1.665,0.15 2.22,0.837c0.721,0.889 1.189,1.861 0.862,3.017c-0.297,1.052 0.091,1.959 0.696,2.788c0.47,0.645 0.942,1.285 1.396,1.941c1.606,2.316 3.357,4.542 5.167,6.953m-30.953,49.119c0.116,-0.813 0.091,-1.378 0.284,-1.867c0.645,-1.637 1.651,-3.085 2.866,-4.398c1.008,-1.09 2.047,-2.154 3.108,-3.267c-0.098,-0.297 -0.207,-0.65 -0.338,-0.996c-0.029,-0.078 -0.137,-0.129 -0.209,-0.192c-1.836,-1.62 -4.031,-1.969 -6.335,-1.02c-1.33,0.548 -2.454,1.44 -3.703,2.071c-2.743,1.385 -4.482,3.48 -5.793,6.003c0.795,1.314 1.67,2.436 3.287,2.76c0.876,0.176 1.754,0.361 2.64,0.472c1.421,0.178 2.85,0.298 4.193,0.434m12.23,-76.359c-0.532,-1.631 -1.808,-2.528 -3.506,-3.167c-0.308,0.234 -0.795,0.429 -0.959,0.764c-0.523,1.074 -1.591,1.641 -2.391,2.45c-0.88,0.89 -1.036,1.531 -0.377,2.629c0.587,0.978 1.659,1.122 2.438,0.277c0.282,-0.305 0.406,-0.74 0.606,-1.113c0.145,-0.271 0.297,-0.539 0.484,-0.877c0.692,0.568 1.225,1.11 1.862,1.502c0.823,0.509 1.589,-0.065 2.342,-0.364c0.417,1.578 -0.5,1.871 -3.524,1.187c-0.141,0.68 -0.488,1.392 -0.374,2.031c0.169,0.944 0.141,1.818 -0.361,2.928c0.899,-0.273 1.596,-0.38 2.172,-0.689c0.606,-0.325 1.096,-0.843 1.45,-1.127c0.718,0.435 1.181,0.802 1.713,1.017c0.958,0.39 1.948,0.716 2.942,1.019c3.092,0.946 5.97,2.512 9.237,2.907c0.55,-1.541 1.081,-3.034 1.666,-4.674c-2.722,-0.862 -5.459,-1.562 -8.044,-2.597c-2.629,-1.052 -5.439,-1.745 -7.958,-3.213c0.236,-0.361 0.41,-0.628 0.582,-0.89m54.051,11.507c0.368,-0.12 0.654,-0.19 0.919,-0.303c1.679,-0.718 3.298,-1.617 5.044,-2.126c2.485,-0.724 4.861,-1.677 7.123,-2.827c1.15,-0.585 2.021,-0.467 3.04,-0.014c1.146,0.51 2.37,0.71 3.621,0.643c1.895,-0.101 3.526,-0.955 5.148,-1.773c0.687,-0.346 0.685,-0.998 -0.001,-1.299c-1.639,-0.718 -3.323,-1.241 -5.002,-0.071c-0.183,0.128 -0.448,0.384 -0.41,0.511c0.068,0.231 0.329,0.575 0.519,0.581c0.625,0.018 1.282,-0.01 1.874,-0.181c0.567,-0.165 1.07,-0.425 1.664,-0.067c-1.052,1.163 -2.612,1.609 -3.868,1.143c-1.101,-0.407 -1.623,-1.123 -1.212,-2.074c0.344,-0.796 0.066,-1.309 -0.268,-1.833c-0.737,0.417 -1.381,0.859 -2.093,1.161c-0.725,0.307 -1.354,0.102 -1.692,-0.457c-0.097,-0.16 -0.074,-0.44 0.009,-0.617c0.043,-0.091 0.352,-0.133 0.519,-0.1c1.15,0.231 1.524,0.162 2.047,-0.687c0.288,-0.467 0.384,-1.044 0.541,-1.577c0.219,-0.744 0.524,-0.868 1.307,-0.614c0.499,0.162 1.041,0.324 1.554,0.302c0.584,-0.026 0.889,-0.523 0.672,-1.029c-0.427,-0.997 -0.855,-1.989 -1.8,-2.711c-1.609,-1.227 -3.942,-0.691 -4.62,1.126c-0.23,0.618 -0.451,1.25 -0.561,1.892c-0.158,0.922 -0.648,1.551 -1.541,1.924c-1.457,0.608 -2.888,1.28 -4.374,1.813c-2.084,0.747 -3.874,1.796 -5.249,3.507c-0.584,0.726 -1.429,1.319 -2.269,1.794c-0.692,0.39 -1.551,0.516 -2.33,0.758c0.569,1.079 1.118,2.122 1.689,3.205m-14.461,36.79c-0.681,4.416 -0.051,8.471 0.595,12.564c1.885,0.149 3.642,0.518 5.35,0.373c2.809,-0.239 5.582,0.256 8.373,0.089c0.146,-0.009 0.297,0.028 0.444,0.053c1.396,0.235 1.64,0.106 1.887,-1.203c0.27,-1.43 0.397,-2.888 0.73,-4.305c0.505,-2.146 -0.089,-4.102 -0.999,-6.009c-0.182,-0.382 -0.639,-0.845 -1.032,-0.906c-1.265,-0.194 -2.559,-0.227 -3.843,-0.304c-0.996,-0.06 -1.993,-0.106 -2.99,-0.134c-2.781,-0.078 -5.564,-0.143 -8.515,-0.218m-24.995,22.108c0.102,0.132 0.204,0.263 0.306,0.395c-1.045,1.238 -2.336,2.159 -4.086,2.392c-0.261,0.036 -0.646,-0.201 -0.85,-0.416c-1.062,-1.119 -2.021,-2.329 -3.137,-3.394c-1.089,-1.037 -2.342,-1.922 -3.916,-2.238c-1.074,-0.215 -2.155,-0.413 -3.243,-0.546c-1.401,-0.171 -2.786,-0.156 -4.04,0.621c-1.506,0.935 -2.787,2.073 -3.925,3.404c-1.049,1.227 -1.807,2.585 -2.51,3.986c-0.242,0.483 -0.356,1.054 0.136,1.433c0.691,0.531 1.434,1.021 2.213,1.427c1.833,0.953 3.937,0.975 5.923,1.367c1.858,0.366 3.78,0.283 5.618,-0.257c1.037,-0.305 2.037,-0.734 3.035,-1.149c3.294,-1.368 6.536,-2.835 9.151,-5.239c0.817,-0.751 1.565,-1.6 2.182,-2.502c0.797,-1.167 0.086,-2.442 -1.34,-2.666c-2.234,-0.351 -4.374,0.101 -6.49,0.673c-0.581,0.158 -1.091,0.544 -1.671,0.844c0.773,0.959 1.435,1.776 2.092,2.596c0.93,1.163 1.211,1.204 2.577,0.398c0.652,-0.385 1.316,-0.753 1.975,-1.129m11.326,11.885c-0.22,-1.393 0.669,-2.083 1.816,-2.613c0.369,-0.171 0.766,-0.427 1.003,0.075c0.193,0.41 -0.202,0.515 -0.537,0.665c-0.339,0.151 -0.655,0.393 -0.911,0.655c-0.402,0.412 -0.58,0.949 -0.192,1.416c0.423,0.509 1.101,0.672 1.759,0.574c0.636,-0.094 0.558,-0.601 0.607,-1.097c0.114,-1.156 0.695,-1.478 1.964,-1.171c-0.099,0.213 -0.151,0.444 -0.29,0.611c-0.657,0.791 -0.709,1.288 -0.165,1.976c0.479,0.604 1.342,0.736 2.157,0.349c0.619,-0.294 1.01,-0.748 1.184,-1.378c0.317,-1.147 0.978,-1.9 2.204,-2.438c1.603,-0.703 3.192,-1.551 4.01,-3.232c0.426,-0.875 0.528,-1.675 0.143,-2.568c-0.337,-0.78 -0.67,-1.575 -0.869,-2.393c-0.278,-1.138 -0.891,-2.062 -1.693,-2.958c-0.678,0.043 -1.325,0.066 -1.968,0.128c-2.334,0.226 -4.673,0.421 -6.959,-0.259c-0.774,-0.23 -1.35,-0.03 -1.931,0.399c-0.825,0.609 -1.716,1.146 -2.487,1.808c-1.62,1.39 -3.335,2.707 -4.515,4.488c-0.665,1.003 -0.64,0.995 -1.861,0.719c-1.61,-0.364 -3.164,-0.339 -4.533,0.71c-0.803,0.616 -0.933,1.242 -0.223,1.898c1.028,0.951 2.257,1.5 3.71,1.275c1.32,-2.238 2.585,-2.772 4.181,-1.626c-0.431,0.176 -0.752,0.402 -1.091,0.428c-1.129,0.086 -1.665,0.701 -1.908,1.631c1.204,1.303 1.767,1.397 3.352,0.599c0.219,-1.562 0.762,-2.502 1.707,-2.753c0.57,-0.151 1.155,-0.088 1.605,0.554c-1.221,0.601 -2.727,1.016 -2.022,2.724c0.361,0.873 1.21,1.123 2.753,0.804m-27.878,-50.458c0.371,-0.417 0.602,-0.71 0.87,-0.969c0.627,-0.607 1.324,-1.156 1.895,-1.806c0.656,-0.745 0.412,-2.46 -0.46,-2.885c-1.209,-0.589 -2.522,-0.94 -3.883,-0.381c-1.447,0.593 -1.909,1.7 -1.396,3.228c0.073,0.217 0.158,0.471 0.101,0.675c-0.054,0.195 -0.259,0.443 -0.447,0.489c-0.169,0.04 -0.506,-0.114 -0.589,-0.267c-0.198,-0.369 -0.293,-0.787 -0.424,-1.187c-0.357,-1.095 -1.16,-1.534 -2.3,-1.252c-0.77,0.189 -1.03,0.719 -0.627,1.387c0.244,0.406 0.633,0.739 0.841,1.157c0.084,0.167 -0.084,0.529 -0.255,0.693c-0.101,0.098 -0.505,0.061 -0.646,-0.054c-0.255,-0.209 -0.43,-0.512 -0.611,-0.792c-0.361,-0.555 -0.899,-0.585 -1.441,-0.376c-0.62,0.239 -1.112,0.629 -1.099,1.38c0.536,0.421 1.069,0.838 1.601,1.257c2.634,-1.372 2.768,-1.41 3.85,-0.992c-1.119,0.605 -2.244,1.079 -3.195,1.765c-0.976,0.705 -1.782,1.618 -2.656,2.433c-0.516,-0.095 -1,-0.216 -1.491,-0.265c-0.713,-0.072 -1.405,0.024 -1.971,0.489c-0.379,0.312 -0.79,0.66 -0.494,1.195c0.303,0.546 0.862,0.64 1.427,0.452c0.562,-0.186 1.082,-0.481 1.635,-0.692c0.251,-0.096 0.539,-0.106 0.963,-0.182c-0.08,0.482 -0.136,0.822 -0.223,1.349c0.957,0.734 1.956,1.589 3.051,2.315c0.879,0.582 1.417,1.317 1.624,2.273c0.138,0.636 0.166,1.294 0.278,1.937c0.261,1.494 0.348,3.03 1.141,4.402c0.821,1.418 2.077,2.204 3.793,2.354c2.092,0.182 3.611,-0.78 4.69,-2.298c0.581,-0.818 1.112,-1.511 2.145,-1.819c0.595,-0.178 1.138,-0.514 1.768,-0.808c-0.862,-2.761 -1.448,-5.583 -3.611,-7.821c-1.097,2.372 -1.097,2.372 -2.197,2.643c1.192,-3.264 1.819,-6.421 -1.657,-9.027m25.289,15.508c-1.751,0.256 -3.31,0.326 -4.765,0.728c-3.534,0.98 -7.022,2.106 -10.522,3.192c-0.907,0.282 -1.678,1.071 -2.769,0.625c-1.647,0.536 -3.116,0.112 -4.498,-0.812c-1.869,1.178 -3.825,1.37 -5.869,0.594c-2.175,-0.827 -2.933,-2.684 -3.601,-4.561c-0.819,0.288 -1.545,0.589 -2.302,0.792c-0.405,0.108 -0.869,0.101 -1.295,0.052c-2.024,-0.234 -3.467,-1.1 -3.746,-3.176c-0.006,-0.046 -0.024,-0.091 -0.04,-0.135c-0.448,-1.239 -1.172,-1.423 -2.191,-0.514c-0.273,0.243 -0.539,0.593 -0.6,0.928c-0.202,1.104 -0.458,2.229 -0.42,3.338c0.068,2.014 0.295,4.027 0.528,6.033c0.113,0.972 0.33,2.046 1.178,2.637c1.238,0.861 2.654,1.608 4.235,1.634c3.031,0.05 6.011,0.743 9.084,0.43c1.657,-0.169 3.372,0.201 5.063,0.272c1.643,0.069 3.289,0.052 4.934,0.097c5.186,0.142 10.373,0.297 15.559,0.44c0.285,0.008 0.572,-0.038 0.996,-0.07c-0.074,-4.189 -0.057,-8.303 1.041,-12.524m3.81,-37.726c-0.371,-0.132 -0.594,-0.215 -0.82,-0.292c-2.48,-0.844 -4.989,-1.624 -7.433,-2.553c-1.726,-0.657 -1.687,-0.747 -2.547,0.769c-0.047,0.083 -0.109,0.159 -0.149,0.245c-0.719,1.547 -1.488,3.073 -1.312,4.847c0.077,0.778 0.343,1.34 1.163,1.62c1.879,0.64 3.808,1.007 5.878,1.109c0.146,-0.452 0.27,-0.848 0.403,-1.241c0.166,-0.488 0.29,-0.998 0.536,-1.448c0.091,-0.166 0.477,-0.189 0.729,-0.277c0.072,0.202 0.178,0.401 0.204,0.607c0.015,0.124 -0.119,0.257 -0.149,0.393c-0.182,0.828 -0.904,1.595 -0.288,2.524c0.071,0.107 -0.115,0.493 -0.284,0.589c-0.604,0.342 -0.645,0.916 -0.79,1.455c-0.452,1.681 -0.913,3.359 -1.347,5.044c-0.362,1.412 -0.706,2.828 -1.028,4.248c-0.286,1.261 -0.523,2.533 -0.797,3.796c-0.227,1.046 0.081,1.866 1.11,2.372c2.122,1.044 4.281,2.009 6.663,2.412c3.41,0.576 6.85,0.747 10.304,0.539c2.636,-0.159 5.303,-0.236 7.723,-1.423c0.779,-0.382 1.509,-0.855 2.363,-1.344c-0.819,-5.038 -1.644,-10.114 -2.468,-15.188c-0.515,-0.037 -1.086,0.206 -1.169,-0.451c-0.071,-0.568 0.407,-0.685 0.848,-0.799c0.144,-0.038 0.306,-0.02 0.444,-0.069c2.377,-0.831 4.772,-1.625 7.12,-2.523c1.305,-0.5 1.493,-0.961 0.958,-2.22c-0.535,-1.26 -1.206,-2.471 -1.867,-3.679c-0.143,-0.263 -0.467,-0.556 -0.755,-0.611c-1.29,-0.247 -2.225,-0.973 -3.099,-2.002c-2.816,2.236 -6.403,2.286 -9.743,3.314c1.144,0.409 1.951,1.065 2.178,2.096c0.576,2.607 -0.568,5.348 -3.3,6.615c-2.108,0.977 -4.287,1.095 -6.563,0.62c-1.687,-0.352 -3.007,-1.285 -3.639,-2.657c-0.988,-2.144 -1.165,-4.388 0.923,-6.437m-3.967,36.81c0.737,-1.513 1.106,-2.917 1.993,-3.912c0.895,-1.005 2.242,-1.708 3.498,-2.359c2.827,-1.463 2.899,-1.427 4.04,-0.91c-0.507,0.271 -0.915,0.515 -1.346,0.714c-1.03,0.476 -2.085,0.902 -3.103,1.398c-2.269,1.102 -3.449,2.909 -3.751,5.268c-0.041,0.324 -0.145,0.64 -0.198,0.963c-0.335,1.995 -0.852,3.983 -0.952,5.989c-0.164,3.296 -0.02,6.604 -0.083,9.906c-0.028,1.424 0.622,2.361 1.951,2.871c1.986,0.764 4.047,1.357 6.191,1.49c1.79,0.113 3.599,0.048 5.395,-0.025c1.374,-0.055 2.669,-0.375 3.445,-1.748c-1.46,-4.46 -1.781,-9.147 -2.072,-13.838c-0.083,-1.353 0.209,-2.722 -0.27,-4.064c-0.151,-0.422 0.122,-0.935 0.637,-0.962c1.161,-0.062 1.225,-0.739 1.18,-1.564c-0.017,-0.315 0.058,-0.634 0.091,-0.961c1.484,-0.235 0.822,1.024 1.391,1.589c0.47,0 1.098,0.127 1.638,-0.025c1.534,-0.43 2.961,-1.1 4.153,-2.141c0.776,-0.678 1.431,-1.415 1.76,-2.411c0.79,-2.392 -0.051,-4.41 -1.432,-6.346c-6.169,2.982 -20.588,3.479 -28.668,-1.354c-0.43,0.16 -0.953,0.255 -1.337,0.525c-0.409,0.287 -0.685,0.74 -1.072,1.182c-1.268,-0.337 -2.571,-0.611 -3.92,-0.331c-0.582,0.121 -1.169,0.224 -1.759,0.299c-1.533,0.193 -3.072,0.345 -4.602,0.556c-1.213,0.167 -2.364,0.525 -3.385,1.103c2.793,4.082 4.284,8.424 4.28,13.146c5.552,-1.405 10.747,-3.698 16.307,-4.048m-36.818,-15.538c0.348,-1.323 1.258,-2.051 2.444,-2.558c0.284,-0.121 0.638,-0.309 0.744,-0.551c0.542,-1.228 1.526,-1.533 2.8,-1.308c0.529,0.094 1.05,0.228 1.636,0.358c0.483,-1.298 1.625,-2.016 2.985,-2.213c0.943,-0.136 1.968,0.128 2.938,0.304c1.116,0.201 1.8,0.883 2.195,1.902c0.54,1.395 0.051,2.475 -0.986,3.445c-0.485,0.452 -0.956,0.917 -1.531,1.47c1.168,1.331 2.077,2.669 2.169,4.458c0.58,-0.086 1.06,-0.14 1.533,-0.232c0.632,-0.124 1.254,-0.309 1.89,-0.413c2.302,-0.374 4.603,-0.752 6.913,-1.074c1.158,-0.162 2.333,-0.208 3.696,-0.322c0.143,-0.152 0.381,-0.629 0.749,-0.747c0.943,-0.303 1.046,-1.032 1.229,-1.745c0.14,-0.544 0.309,-1.095 0.338,-1.648c0.022,-0.446 -0.038,-0.953 -0.249,-1.342c-1.691,-3.113 -3.649,-6.058 -6.345,-8.505c-1.234,-1.12 -2.172,-2.395 -2.612,-4.113c0.468,0.317 0.817,0.554 1.312,0.889c0.04,-0.809 0.122,-1.453 0.092,-2.094c-0.068,-1.507 -1.193,-2.243 -2.756,-1.846c-0.24,0.061 -0.499,0.101 -0.711,0.213c-1.037,0.553 -2.005,0.34 -2.99,-0.146c-0.881,-0.434 -1.781,-0.836 -2.693,-1.21c-1.645,-0.676 -3.303,-1.325 -5.095,-1.592c-0.241,-0.036 -0.566,-0.081 -0.687,-0.236c-0.39,-0.5 -0.897,-0.398 -1.356,-0.264c-1.879,0.547 -3.803,0.632 -5.751,0.697c-3.098,0.106 -5.999,0.846 -8.432,2.796c-0.212,0.171 -0.531,0.33 -0.792,0.32c-0.891,-0.036 -1.828,-0.006 -2.655,-0.264c-1.501,-0.47 -2.602,-0.007 -3.633,0.953c-0.48,0.447 -0.592,0.873 -0.39,1.511c0.502,1.585 1.672,2.756 2.601,4.068c0.278,-0.367 0.538,-0.709 0.836,-1.103c0.15,0.22 0.257,0.304 0.245,0.37c-0.404,2.306 -1.029,4.567 -0.983,6.951c0.019,1.001 0.064,1.974 0.373,2.897c1.113,3.322 2.663,6.463 4.501,9.488c0.864,1.421 1.973,2.635 3.338,3.581c1.045,0.724 1.651,1.549 1.87,2.738c0.258,1.412 1.489,2.212 2.999,2.177c1.064,-0.024 1.889,-0.516 2.703,-0.946c0,-0.712 -0.006,-1.361 0.001,-2.01c0.015,-1.581 -0.588,-2.775 -2.104,-3.634c-1.112,-0.63 -2.174,-1.423 -2.693,-2.636c-1.726,0.782 -2.798,0.724 -3.417,-0.155c-0.719,-1.024 -0.337,-1.962 1.39,-3.413c-1.044,-1.727 -0.471,-2.551 2.341,-3.266m32.842,-49.302c-0.381,-0.145 -0.734,-0.29 -1.094,-0.416c-1.737,-0.605 -4.782,0.082 -5.6,1.443c-1.446,2.408 -2.892,4.843 -3.314,7.65c-0.132,0.877 -0.294,1.782 -0.199,2.65c0.122,1.11 0.475,2.198 0.753,3.29c0.77,3.031 2.658,5.297 5.357,7.041c1.288,0.832 2.867,1.214 3.965,2.328c0.095,0.097 0.261,0.138 0.401,0.186c0.928,0.321 1.854,0.645 2.788,0.951c1.69,0.554 3.369,1.149 5.085,1.625c1.06,0.295 1.762,0.807 2.046,1.829c0.238,0.862 0.546,1.706 0.782,2.568c0.182,0.664 0.627,1.14 1.291,1.233c0.875,0.122 1.792,0.146 2.67,0.045c0.769,-0.089 1.333,-0.568 1.579,-1.331c0.365,-1.127 0.725,-2.241 0.405,-3.443c-0.066,-0.244 0.028,-0.526 0.045,-0.743c2.334,-0.471 4.584,-0.88 6.809,-1.391c1.58,-0.363 2.973,-1.081 3.991,-2.347c0.154,-0.192 0.462,-0.273 0.774,-0.447c0.227,0.413 0.435,0.729 0.58,1.07c0.323,0.756 0.931,1.193 1.71,1.476c2.242,0.814 4.15,0.202 5.724,-1.337c1.733,-1.694 1.933,-3.322 1.165,-5.303c-0.509,-1.314 -1.69,-1.946 -3.095,-2.165c-0.344,-0.054 -0.886,0.058 -1.082,0.287c-0.68,0.794 -1.248,0.509 -1.771,-0.11c-0.435,0.358 -0.731,0.726 -1.123,0.888c-0.416,0.171 -1.028,0.335 -1.368,0.166c-0.648,-0.319 -0.834,-1.006 -0.781,-1.705c0.032,-0.401 0.074,-0.801 0.115,-1.244c-3.711,0.751 -5.768,0.009 -6.224,-1.901c0.489,-0.735 1.397,-0.605 2.127,-0.76c1.189,-0.252 2.03,-0.85 2.655,-1.699c-0.768,-0.81 -1.608,-1.462 -2.131,-2.29c-1.529,-2.426 -2.176,-5.144 -2.36,-7.922c-0.176,-2.675 0.649,-5.2 1.829,-7.62c0.195,-0.401 0.368,-0.811 0.654,-1.445c-0.55,0.177 -0.82,0.253 -1.082,0.351c-2.827,1.055 -5.652,2.12 -8.482,3.171c-1.255,0.466 -1.912,0.069 -1.963,-1.194c-0.014,-0.32 0.034,-0.669 0.164,-0.962c0.351,-0.795 0.762,-1.568 1.203,-2.457c-0.382,0.141 -0.707,0.226 -0.996,0.374c-2.589,1.323 -5.2,2.612 -7.745,4.007c-1.504,0.824 -2.873,1.865 -4.356,2.726c-1.102,0.639 -1.996,0.184 -2.073,-1.018c-0.042,-0.66 0.099,-1.33 0.165,-2.081c-2.154,1.328 -4.087,2.736 -5.703,4.893c0.48,-0.12 0.685,-0.125 0.831,-0.215c1.302,-0.805 2.674,-0.578 4.04,-0.235c0.79,0.198 0.947,0.52 0.839,1.533m17.21,-27.022c-0.628,1.058 -0.679,1.475 -0.172,2.226c0.318,0.471 0.742,0.883 1.151,1.293c0.277,0.278 0.436,0.581 0.107,0.845c-0.169,0.136 -0.526,0.134 -0.779,0.092c-0.582,-0.096 -1.148,-0.348 -1.728,-0.373c-4.012,-0.173 -7.827,0.525 -11.461,2.202c-2.572,1.187 -4.961,2.631 -7.238,4.241c-2.077,1.47 -4.257,1.654 -6.62,0.79c-0.29,-0.106 -0.626,-0.1 -1.07,-0.165c0.142,1.309 0.189,2.483 0.8,3.53c0.431,0.736 0.947,1.429 1.466,2.115c0.404,0.535 0.571,0.993 -0.186,1.378c-0.527,-0.159 -1.04,-0.36 -1.575,-0.463c-0.56,-0.109 -1.14,-0.123 -1.724,-0.18c0.073,1.626 0.673,2.634 1.968,3.382c0.382,0.221 0.839,0.351 1.163,0.626c0.215,0.183 0.389,0.578 0.333,0.828c-0.057,0.252 -0.382,0.549 -0.659,0.642c-1.643,0.555 -2.479,1.63 -2.158,3.185c0.311,1.511 0.797,2.996 1.856,4.27c0.126,-0.192 0.241,-0.346 0.334,-0.512c1.354,-2.406 2.693,-4.819 4.068,-7.214c0.202,-0.353 0.533,-0.84 0.864,-0.886c0.668,-0.093 1.03,-0.508 1.519,-0.814c1.495,-0.934 3.019,-1.826 4.553,-2.701c0.294,-0.168 0.683,-0.186 1.189,-0.313c-0.708,1.856 -2.625,3.02 -2.328,5.007c0.674,0.388 1.068,-0.011 1.468,-0.245c0.846,-0.496 1.635,-1.084 2.498,-1.549c2.122,-1.144 4.261,-2.261 6.415,-3.348c1.803,-0.91 3.623,-1.79 5.467,-2.621c0.617,-0.279 1.254,-0.821 2.026,-0.386c0.171,0.818 -0.523,1.008 -0.977,1.318c-1.141,0.783 -2.236,1.604 -2.851,2.837c-0.183,0.367 -0.272,0.806 -0.276,1.213c-0.004,0.432 0.28,0.694 0.794,0.55c0.286,-0.079 0.57,-0.167 0.846,-0.273c3.405,-1.306 6.808,-2.616 10.312,-3.964c0.612,0.355 0.295,0.826 -0.07,1.333c-1.184,1.641 -2.121,3.41 -2.587,5.343c-0.667,2.764 -0.38,5.495 0.462,8.213c0.705,2.272 1.538,4.391 4.256,5.313c-0.159,0.428 -0.181,0.87 -0.427,1.092c-1.26,1.133 -2.668,2.065 -4.528,2.348c1.446,1.353 3.438,1.202 6.027,0.029c0.395,0.326 0.176,0.633 0.03,0.999c-0.241,0.603 -0.44,1.235 -0.521,1.871c-0.031,0.244 0.252,0.618 0.503,0.766c0.164,0.096 0.585,-0.038 0.791,-0.19c0.621,-0.457 1.194,-0.973 1.663,-1.364c0.548,0.06 0.969,0.172 1.378,0.139c2.302,-0.186 3.938,0.764 5.089,2.577c0.171,0.27 0.325,0.549 0.528,0.894c0.328,-0.199 0.623,-0.303 0.804,-0.501c1.574,-1.721 2.906,-3.575 3.48,-5.83c0.256,-1.007 0.806,-1.221 1.469,-0.472c0.523,0.592 1.121,0.623 1.742,0.483c1.675,-0.379 3.009,-1.178 3.524,-2.913c-0.922,-0.563 -1.728,-1.208 -1.979,-2.238c-0.176,-0.729 -0.334,-1.472 -0.387,-2.217c-0.135,-1.89 0.062,-3.757 0.497,-5.613c0.428,-1.83 0.034,-3.461 -1.556,-4.73c-0.248,-0.197 -0.426,-0.472 -0.785,-0.88c0.637,-0.253 1.097,-0.498 1.592,-0.62c0.964,-0.237 1.953,-0.38 2.919,-0.612c0.349,-0.084 0.66,-0.308 0.962,-0.456c-1.009,-2.921 -3.368,-3.662 -6.071,-3.771c-0.34,-0.986 -0.276,-0.966 0.033,-1.813c0.357,-0.982 0.909,-1.971 0.444,-3.136c-0.887,0.262 -1.352,0.841 -1.79,1.481c-0.171,0.25 -0.498,0.403 -0.754,0.601c-0.233,-0.277 -0.603,-0.524 -0.679,-0.836c-0.608,-2.475 -1.97,-4.373 -4.098,-6.018c-1.93,-1.492 -3.957,-2.309 -6.366,-2.381c-1.795,-0.054 -3.594,0.056 -5.389,0.015c-1.24,-0.028 -2.53,-0.012 -3.701,-0.332c-2.146,-0.587 -4.296,-1.276 -5.9,-3.137m24.927,81.297c1.113,2.259 2.329,4.071 3.645,5.826c0.847,1.128 1.781,2.166 3.323,2.483c0.081,0.016 0.118,0.222 0.173,0.336c-0.115,0.066 -0.191,0.131 -0.281,0.157c-0.093,0.027 -0.198,0.025 -0.297,0.019c-1.243,-0.08 -2.199,-0.707 -2.873,-1.606c-1.436,-1.915 -2.831,-3.862 -4.13,-5.862c-1.056,-1.626 -2.252,-3.161 -3.862,-4.266c-1.769,-1.212 -3.719,-2.209 -5.661,-3.172c-1.095,-0.544 -2.368,-0.574 -3.76,-0.55c0.285,1.301 0.562,2.483 0.796,3.672c0.089,0.452 0.267,1.007 0.079,1.363c-0.319,0.6 -0.005,0.971 0.215,1.431c0.448,0.94 1.043,1.858 1.257,2.847c0.198,0.912 0.44,1.82 0.618,2.73c0.483,2.478 1.811,4.303 4.066,5.633c0.74,0.437 1.472,1.054 1.903,1.755c1.038,1.685 1.721,3.574 1.55,5.518c-0.221,2.52 -0.547,5.073 -1.25,7.503c-0.591,2.039 -1.279,4.087 -2.266,6.037c-0.824,1.629 -1.306,3.424 -1.824,5.175c-0.293,0.989 0.129,1.503 1.162,1.676c0.436,0.073 0.898,0.034 1.346,0.017c2.04,-0.077 4.08,-0.163 6.12,-0.253c0.477,-0.021 0.953,-0.067 1.459,-0.103c-0.111,-0.62 -0.266,-1.121 -0.28,-1.625c-0.082,-3.091 0.374,-6.101 1.566,-9c0.556,-1.354 0.984,-2.757 1.588,-4.091c1.237,-2.73 1.204,-5.576 1.036,-8.448c-0.056,-0.964 -0.517,-1.725 -1.308,-2.287c-0.755,-0.538 -1.594,-0.97 -2.347,-1.509c-1.149,-0.823 -2.26,-1.694 -3.375,-2.557c-0.082,-0.064 -0.071,-0.234 -0.146,-0.515c0.34,0.094 0.592,0.106 0.77,0.22c2.023,1.296 4.081,2.55 6.018,3.952c0.572,0.414 0.952,1.221 1.145,1.915c0.526,1.898 0.343,3.846 0.109,5.766c-0.294,2.401 -1.193,4.653 -2.269,6.824c-1.074,2.165 -1.749,4.386 -1.638,6.764c1.766,0.627 3.576,0.748 5.547,0.638c0.642,-4.726 1.15,-9.423 2.662,-13.976c0.143,0.267 0.242,0.555 0.198,0.822c-0.388,2.321 -0.828,4.634 -1.201,6.957c-0.484,3.012 -1.151,6.017 -0.454,9.09c0.136,0.6 0.205,1.098 1.023,1.131c2.005,0.081 3.999,0.047 5.977,-0.313c0.959,-0.176 1.653,-0.623 1.919,-1.564c0.194,-0.686 0.66,-1.147 1.4,-1.34c0.849,-0.222 1.697,-0.443 2.648,-0.691c1.407,-6.359 3.294,-12.632 3.717,-19.241c0.327,0.17 0.667,0.399 0.652,0.603c-0.139,1.78 -0.24,3.572 -0.552,5.33c-0.434,2.452 -1.009,4.884 -1.579,7.314c-0.613,2.61 -1.301,5.205 -1.932,7.811c-0.39,1.616 0.05,2.279 1.715,2.671c1.74,0.409 3.473,0.852 5.229,1.192c0.815,0.158 1.735,0.309 2.503,0.108c1.575,-0.411 3.113,-0.992 4.601,-1.637c1.109,-0.481 1.335,-1.239 1.015,-2.35c-0.522,-1.813 -1.039,-3.628 -1.541,-5.447c-0.151,-0.545 -0.289,-1.099 -0.36,-1.658c-0.36,-2.843 -0.722,-5.686 -1.033,-8.534c-0.229,-2.103 -0.407,-4.212 -0.555,-6.322c-0.091,-1.296 -0.586,-2.38 -1.652,-3.195c-0.893,-0.682 -1.785,-1.382 -2.759,-1.949c-3.185,-1.852 -6.443,-3.595 -9.602,-5.484c-2.185,-1.307 -4.524,-1.929 -7.078,-1.994c-2.097,-0.054 -4.192,-0.155 -6.287,-0.226c-0.562,-0.019 -1.125,-0.002 -1.878,-0.002c0.562,0.534 0.972,0.877 1.326,1.267c1.866,2.056 4.171,3.479 6.898,4.308c0.188,0.057 0.36,0.159 0.497,0.221c-0.537,0.87 -1.105,0.722 -1.68,0.475c-2.147,-0.925 -4.157,-2.024 -5.844,-3.634c-1.189,-1.135 -2.505,-2.157 -3.825,-3.158c-0.512,-0.388 -1.192,-0.579 -2.092,-0.998m7.303,-41.605c0.932,-0.456 1.928,-0.429 2.933,-0.349c0.896,0.071 1.752,0.03 2.647,-0.238c0.88,-0.264 1.861,-0.254 2.802,-0.305c0.694,-0.037 1.103,0.366 1.285,0.974c0.107,0.361 0.269,0.729 0.267,1.094c-0.004,0.835 0.371,1.412 1.086,1.884c0.838,0.552 0.947,1.432 0.84,2.285c-0.137,1.099 -0.048,2.121 0.355,3.182c0.518,1.365 -0.033,2.598 -1.371,3.305c-2.012,1.062 -4.089,2.022 -6.491,1.82c-0.987,-0.083 -1.978,-0.273 -2.927,-0.542c-1.148,-0.325 -2.184,-0.262 -3.281,0.212c-1.583,0.684 -3.234,1.23 -4.84,1.873c-2.25,0.901 -4.488,1.83 -6.724,2.763c-0.308,0.129 -0.575,0.345 -0.897,0.543c0.187,0.337 0.398,0.605 0.489,0.906c0.259,0.848 -0.08,1.306 -0.958,1.598c-2.343,0.78 -4.661,1.626 -7.011,2.39c-0.74,0.24 -0.897,0.684 -0.824,1.3c0.134,1.121 0.273,2.241 0.444,3.357c0.257,1.674 0.581,3.338 0.802,5.015c0.107,0.821 0.535,1.081 1.358,1.176c4.515,0.517 8.124,2.639 11.184,5.71c0.231,0.231 0.523,0.45 0.834,0.564c3.733,1.362 7.626,1.699 11.597,1.654c1.93,-0.022 3.893,-0.028 5.762,0.545c1.083,0.331 2.191,0.682 3.167,1.218c3.32,1.825 6.614,3.694 9.858,5.636c1.258,0.753 2.387,1.711 3.518,2.637c0.92,0.752 1.451,1.652 1.539,2.909c0.292,4.128 0.606,8.263 1.19,12.36c0.515,3.618 1.119,7.255 2.627,10.67c0.347,0.784 0.325,1.479 -0.308,2.084c-0.52,0.499 -1.022,1.109 -1.669,1.375c-2.056,0.844 -4.169,1.582 -6.483,1.448c-0.299,-0.018 -0.61,-0.011 -0.895,-0.086c-2.104,-0.557 -4.214,-1.1 -6.3,-1.712c-1.446,-0.423 -1.609,-0.713 -1.591,-2.148c0.006,-0.419 0.001,-0.839 0.001,-1.255c-1.413,-0.254 -1.952,0.005 -2.31,1.174c-0.211,0.69 -0.58,1.064 -1.375,1.291c-1.717,0.491 -3.455,0.471 -5.202,0.495c-1.051,0.014 -2.104,0.005 -3.154,-0.02c-0.973,-0.022 -1.329,-0.355 -1.414,-1.262c-0.013,-0.141 0.001,-0.283 -0.005,-0.425c-0.075,-1.791 -0.069,-1.826 -1.973,-2.161c-0.776,-0.136 -1.605,-0.186 -2.379,-0.079c-0.46,0.063 -0.861,0.509 -1.418,0.866c0.391,0.863 0.724,1.625 1.08,2.376c0.342,0.722 0.023,1.307 -0.805,1.179c-3.144,-0.485 -6.283,0.204 -9.419,-0.049c-0.346,-0.028 -0.7,-0.03 -1.035,-0.105c-1.483,-0.331 -1.887,-0.868 -1.475,-2.226c0.561,-1.848 1.207,-3.676 1.868,-5.495c0.501,-1.378 1.09,-2.726 1.621,-4.094c0.099,-0.256 0.107,-0.545 0.157,-0.817c-4.968,-1.005 -9.964,-0.052 -15.085,-0.77c0.377,1.21 0.597,2.228 1.015,3.167c0.445,1.001 0.189,1.72 -0.63,2.37c-0.419,0.332 -0.819,0.685 -1.16,0.972c0.792,1.987 1.59,3.937 2.343,5.903c0.377,0.982 0.143,1.936 -0.347,2.838c-0.955,1.757 -2.51,2.947 -4.382,3.676c-0.997,0.388 -1.598,0.919 -1.836,1.845c-0.232,0.905 -0.817,1.466 -1.689,1.851c-1.043,0.461 -2.022,0.463 -2.962,-0.202c-0.278,-0.196 -0.548,-0.402 -0.868,-0.637c-1.305,0.469 -2.517,0.342 -3.561,-0.711c-0.303,0.088 -0.633,0.172 -0.955,0.277c-0.96,0.313 -1.811,0.101 -2.453,-0.594c-0.577,-0.625 -1.194,-0.748 -1.988,-0.493c-1.159,0.373 -2.199,0.153 -2.967,-0.759c-0.355,-0.421 -0.73,-0.519 -1.264,-0.564c-1.755,-0.146 -3.327,-0.644 -4.241,-2.247c-0.556,-0.975 -0.526,-1.715 0.353,-2.39c1.392,-1.07 2.998,-1.646 4.829,-1.453c0.804,0.084 1.459,-0.079 1.998,-0.685c1.833,-2.06 3.903,-3.884 6.219,-5.455c0.245,-0.167 0.518,-0.296 0.797,-0.453c-1.14,-0.55 -2.007,-0.992 -2.898,-1.39c-0.968,-0.433 -1.408,-1.145 -1.405,-2.135c0.004,-1.212 0.001,-2.425 0.001,-3.821c-2.256,-0.112 -4.378,-0.256 -6.503,-0.313c-5.046,-0.134 -10.093,-0.208 -15.138,-0.342c-3.493,-0.093 -6.984,-0.246 -10.688,-0.38c0,0.583 0.007,1.036 -0.001,1.489c-0.02,1.038 0.303,1.735 1.523,2.082c0.971,0.276 1.846,0.899 2.708,1.446c0.47,0.298 0.824,0.758 1.312,1.223c0.176,-0.06 0.515,-0.084 0.705,-0.255c1.602,-1.45 3.751,-1.652 5.727,-2.167c1.975,-0.514 4.02,-0.554 6.084,-0.222c1.52,0.245 2.389,1.021 2.883,2.308c0.067,0.175 0.142,0.347 0.23,0.562c0.929,-0.092 1.854,-0.236 2.782,-0.261c1.042,-0.03 2.102,-0.037 3.125,0.117c0.467,0.071 1.03,0.465 1.26,0.862c0.68,1.171 0.755,2.289 -0.187,3.529c-1.703,2.245 -3.938,3.837 -6.374,5.25c-0.636,0.369 -1.248,0.785 -1.916,1.094c-1.606,0.744 -3.224,1.468 -4.863,2.144c-1.904,0.785 -3.926,1.055 -5.991,1.07c-0.25,0.002 -0.506,0.011 -0.749,-0.035c-2.198,-0.408 -4.4,-0.808 -6.587,-1.261c-0.417,-0.086 -0.816,-0.356 -1.161,-0.615c-0.993,-0.746 -2.126,-0.982 -3.355,-0.898c-2.43,0.166 -4.785,-0.304 -7.079,-0.923c-1.583,-0.427 -2.676,-1.629 -3.296,-3.049c-0.208,-0.477 -0.048,-1.28 0.264,-1.741c0.799,-1.182 1.699,-2.324 2.708,-3.352c0.941,-0.959 2.075,-1.75 3.019,-2.528c0.054,-0.882 0.122,-1.697 0.148,-2.513c0.035,-1.084 0.152,-2.183 0.008,-3.249c-0.087,-0.643 -0.431,-1.52 -0.955,-1.797c-1.646,-0.873 -1.976,-2.289 -1.805,-3.738c0.219,-1.87 -0.334,-3.655 -0.303,-5.483c0.025,-1.407 0.069,-2.818 0.22,-4.216c0.117,-1.087 1.022,-1.643 2.151,-2.004c-0.627,-0.65 -1.183,-1.125 -1.612,-1.688c-2.61,-3.421 -4.582,-7.134 -5.766,-11.216c-0.697,-2.403 -0.771,-4.813 -0.361,-7.255c0.162,-0.966 -0.005,-1.8 -0.643,-2.647c-0.89,-1.18 -1.61,-2.478 -2.348,-3.754c-0.546,-0.945 -0.361,-2.023 0.546,-2.663c1.378,-0.973 2.814,-1.787 4.685,-1.003c0.93,0.388 1.92,0.33 2.862,-0.231c0.878,-0.523 1.823,-0.957 2.768,-1.371c2.204,-0.965 4.55,-1.354 7.09,-1.383c-0.112,-0.216 -0.155,-0.386 -0.265,-0.497c-0.78,-0.786 -0.866,-1.701 -0.436,-2.626c0.244,-0.523 0.296,-0.935 0.01,-1.449c-0.148,-0.267 -0.207,-0.69 -0.089,-0.956c0.629,-1.422 -0.268,-2.977 0.474,-4.373c0.09,-0.168 0.14,-0.423 0.284,-0.486c1.135,-0.503 1.456,-1.579 2.066,-2.468c0.846,-1.232 2.193,-1.365 3.85,-0.466c0.702,-0.629 1.439,-0.498 2.308,-0.154c1.695,0.67 2.747,1.855 3.368,3.402c0.35,0.871 0.666,1.5 1.835,1.735c1.281,0.258 2.429,1.049 3.686,1.468c3.097,1.032 6.222,1.986 9.338,2.962c0.155,0.048 0.342,0.006 0.578,-0.093c-3.463,-2.116 -6.352,-4.581 -7.688,-8.438c-1.333,-3.848 -0.867,-7.49 0.586,-10.919c-0.71,-1.461 -1.393,-2.754 -1.972,-4.087c-0.861,-1.984 -0.238,-3.675 1.324,-5.122c0.134,-0.125 0.339,-0.183 0.6,-0.318c-1.613,-1.133 -2.58,-2.409 -2.921,-4.058c-0.229,-1.113 0.245,-1.581 1.43,-1.425c0.395,0.052 0.79,0.105 1.186,0.142c0.091,0.008 0.188,-0.045 0.337,-0.084c-0.297,-0.738 -0.677,-1.452 -0.866,-2.209c-0.272,-1.091 -0.478,-2.207 -0.573,-3.324c-0.073,-0.852 0.498,-1.165 1.364,-0.88c0.139,0.045 0.255,0.149 0.392,0.204c2.404,0.958 4.562,0.718 6.745,-0.768c2.176,-1.482 4.554,-2.713 6.904,-3.95c3.405,-1.792 7.142,-2.323 10.99,-2.325c0.492,-0.001 0.983,0 1.588,0c-0.26,-0.486 -0.462,-0.852 -0.654,-1.221c-0.586,-1.129 0.042,-2.11 0.499,-3.074c0.172,-0.361 0.717,-0.374 1.023,-0.011c1.655,1.96 3.958,2.812 6.44,3.286c1.062,0.203 2.182,0.22 3.271,0.197c2.702,-0.059 5.393,-0.115 8.046,0.52c1.08,0.259 2.071,0.599 2.911,1.345c0.685,0.608 1.5,1.089 2.262,1.619c0.923,0.642 1.431,1.539 1.838,2.524c0.353,0.856 0.799,1.677 1.227,2.559c0.773,-0.516 1.353,-0.965 1.994,-1.314c0.726,-0.396 1.018,-0.229 1.339,0.511c0.397,0.918 -0.065,1.757 -0.215,2.621c-0.087,0.501 -0.305,0.983 -0.52,1.642c0.528,0.159 0.977,0.292 1.425,0.43c2.226,0.687 4.109,1.716 4.734,4.071c0.289,1.085 0.123,1.283 -1.063,1.401c-1.217,0.12 -2.423,0.347 -3.717,0.54c0.453,0.593 0.852,1.024 1.142,1.512c0.619,1.04 0.943,2.118 0.654,3.359c-0.374,1.6 -0.873,3.209 -0.684,4.871c0.121,1.069 0.358,2.133 0.64,3.176c0.217,0.807 0.766,1.38 1.654,1.689c0.786,0.274 0.957,0.629 0.561,1.288c-0.582,0.971 -1.308,1.865 -1.973,2.793c-1.636,0.445 -3.138,1.488 -5.007,0.858c-0.527,0.96 -0.961,1.856 -1.496,2.695c-0.564,0.883 -1.328,1.662 -1.812,2.577c-0.45,0.849 -1.689,1.1 -1.883,2.249c0.283,-0.044 0.433,-0.038 0.553,-0.09c2.215,-0.956 4.424,-1.922 6.639,-2.877c0.788,-0.34 1.2,-0.894 1.391,-1.703c0.312,-1.319 0.61,-2.663 1.58,-3.744" style="fill:#231f20;fill-rule:nonzero;"/><path d="M106.63,96.039c0.9,0.419 1.58,0.61 2.092,0.998c1.32,1.001 2.637,2.023 3.825,3.157c1.687,1.611 3.697,2.709 5.844,3.634c0.575,0.248 1.143,0.396 1.68,-0.474c-0.137,-0.062 -0.309,-0.165 -0.497,-0.222c-2.727,-0.828 -5.032,-2.251 -6.898,-4.307c-0.354,-0.39 -0.764,-0.734 -1.326,-1.268c0.754,0 1.316,-0.016 1.878,0.003c2.095,0.07 4.191,0.171 6.287,0.225c2.554,0.065 4.893,0.687 7.078,1.994c3.16,1.89 6.417,3.632 9.602,5.485c0.974,0.567 1.866,1.267 2.759,1.949c1.066,0.814 1.561,1.899 1.652,3.194c0.148,2.11 0.326,4.219 0.555,6.323c0.311,2.848 0.673,5.691 1.033,8.534c0.071,0.558 0.209,1.112 0.36,1.657c0.502,1.819 1.019,3.634 1.541,5.448c0.32,1.111 0.094,1.868 -1.015,2.349c-1.488,0.645 -3.026,1.226 -4.6,1.637c-0.769,0.201 -1.689,0.05 -2.504,-0.108c-1.756,-0.339 -3.489,-0.783 -5.229,-1.191c-1.665,-0.392 -2.105,-1.055 -1.715,-2.671c0.631,-2.607 1.319,-5.201 1.932,-7.812c0.57,-2.43 1.145,-4.861 1.58,-7.314c0.311,-1.757 0.412,-3.549 0.551,-5.329c0.015,-0.204 -0.324,-0.433 -0.652,-0.603c-0.423,6.608 -2.31,12.882 -3.717,19.24c-0.95,0.248 -1.799,0.47 -2.648,0.691c-0.74,0.194 -1.206,0.655 -1.4,1.341c-0.266,0.94 -0.96,1.388 -1.919,1.563c-1.978,0.361 -3.972,0.395 -5.977,0.314c-0.818,-0.033 -0.886,-0.532 -1.023,-1.131c-0.697,-3.074 -0.029,-6.078 0.454,-9.091c0.373,-2.322 0.813,-4.636 1.201,-6.957c0.045,-0.266 -0.055,-0.555 -0.198,-0.822c-1.512,4.554 -2.02,9.251 -2.662,13.976c-1.97,0.111 -3.78,-0.01 -5.547,-0.637c-0.111,-2.378 0.564,-4.599 1.638,-6.765c1.076,-2.171 1.975,-4.422 2.269,-6.824c0.235,-1.919 0.417,-3.868 -0.109,-5.765c-0.193,-0.694 -0.572,-1.501 -1.145,-1.916c-1.937,-1.401 -3.995,-2.655 -6.018,-3.952c-0.178,-0.114 -0.429,-0.126 -0.77,-0.219c0.075,0.28 0.064,0.451 0.146,0.514c1.115,0.864 2.226,1.735 3.375,2.558c0.753,0.539 1.592,0.971 2.347,1.509c0.791,0.562 1.252,1.323 1.308,2.286c0.168,2.873 0.202,5.719 -1.036,8.449c-0.604,1.333 -1.031,2.736 -1.588,4.09c-1.191,2.9 -1.648,5.909 -1.565,9c0.013,0.505 0.168,1.006 0.279,1.626c-0.506,0.036 -0.982,0.082 -1.459,0.103c-2.04,0.089 -4.08,0.175 -6.12,0.253c-0.448,0.017 -0.909,0.056 -1.346,-0.017c-1.033,-0.174 -1.455,-0.687 -1.162,-1.676c0.518,-1.752 1,-3.546 1.824,-5.175c0.987,-1.95 1.675,-3.998 2.266,-6.037c0.703,-2.43 1.029,-4.983 1.25,-7.504c0.171,-1.944 -0.512,-3.832 -1.55,-5.518c-0.431,-0.7 -1.163,-1.318 -1.903,-1.754c-2.255,-1.33 -3.582,-3.155 -4.066,-5.634c-0.178,-0.909 -0.42,-1.817 -0.617,-2.73c-0.215,-0.989 -0.81,-1.906 -1.258,-2.846c-0.22,-0.46 -0.534,-0.831 -0.215,-1.432c0.188,-0.355 0.011,-0.911 -0.079,-1.363c-0.234,-1.189 -0.511,-2.37 -0.796,-3.672c1.392,-0.024 2.665,0.007 3.76,0.55c1.942,0.963 3.892,1.96 5.661,3.173c1.61,1.104 2.806,2.639 3.863,4.266c1.298,1.999 2.693,3.947 4.129,5.862c0.674,0.898 1.63,1.526 2.873,1.605c0.099,0.007 0.205,0.009 0.297,-0.018c0.09,-0.026 0.166,-0.091 0.282,-0.157c-0.056,-0.115 -0.093,-0.32 -0.174,-0.337c-1.542,-0.317 -2.476,-1.355 -3.322,-2.482c-1.316,-1.755 -2.533,-3.568 -3.646,-5.826" style="fill:#ffd463;fill-rule:nonzero;"/><path d="M81.703,14.742c1.604,1.861 3.754,2.55 5.9,3.137c1.171,0.32 2.461,0.304 3.701,0.332c1.795,0.041 3.594,-0.07 5.389,-0.015c2.408,0.072 4.436,0.889 6.365,2.381c2.128,1.645 3.491,3.543 4.099,6.018c0.076,0.312 0.445,0.559 0.679,0.835c0.256,-0.197 0.583,-0.351 0.754,-0.6c0.438,-0.64 0.903,-1.219 1.79,-1.481c0.465,1.164 -0.087,2.154 -0.445,3.136c-0.308,0.847 -0.372,0.827 -0.032,1.813c2.703,0.109 5.062,0.85 6.071,3.771c-0.302,0.148 -0.613,0.372 -0.962,0.456c-0.966,0.232 -1.955,0.375 -2.919,0.612c-0.495,0.122 -0.955,0.367 -1.592,0.62c0.359,0.408 0.537,0.683 0.785,0.88c1.59,1.269 1.984,2.899 1.556,4.73c-0.435,1.855 -0.632,3.723 -0.497,5.613c0.053,0.744 0.211,1.488 0.387,2.217c0.251,1.03 1.056,1.674 1.979,2.237c-0.515,1.736 -1.849,2.535 -3.525,2.914c-0.62,0.14 -1.218,0.109 -1.741,-0.483c-0.663,-0.749 -1.213,-0.536 -1.469,0.472c-0.574,2.255 -1.906,4.109 -3.481,5.83c-0.18,0.198 -0.475,0.302 -0.803,0.501c-0.203,-0.345 -0.357,-0.624 -0.529,-0.894c-1.15,-1.813 -2.786,-2.763 -5.088,-2.577c-0.409,0.033 -0.83,-0.08 -1.378,-0.139c-0.469,0.391 -1.042,0.907 -1.663,1.364c-0.206,0.152 -0.627,0.286 -0.791,0.19c-0.251,-0.148 -0.534,-0.522 -0.503,-0.766c0.081,-0.636 0.28,-1.269 0.521,-1.871c0.146,-0.366 0.365,-0.673 -0.03,-0.999c-2.589,1.173 -4.581,1.324 -6.028,-0.029c1.861,-0.283 3.269,-1.215 4.529,-2.349c0.246,-0.221 0.268,-0.663 0.427,-1.091c-2.718,-0.922 -3.551,-3.041 -4.256,-5.313c-0.843,-2.718 -1.129,-5.45 -0.462,-8.213c0.466,-1.933 1.403,-3.702 2.587,-5.343c0.364,-0.507 0.682,-0.979 0.07,-1.333c-3.504,1.348 -6.907,2.658 -10.312,3.964c-0.276,0.106 -0.561,0.194 -0.846,0.273c-0.514,0.144 -0.799,-0.118 -0.794,-0.55c0.004,-0.407 0.093,-0.846 0.276,-1.213c0.614,-1.233 1.71,-2.055 2.851,-2.837c0.454,-0.31 1.148,-0.5 0.977,-1.318c-0.773,-0.435 -1.409,0.107 -2.026,0.386c-1.844,0.831 -3.664,1.711 -5.467,2.621c-2.155,1.087 -4.293,2.204 -6.415,3.348c-0.863,0.465 -1.652,1.053 -2.498,1.549c-0.4,0.234 -0.794,0.632 -1.468,0.245c-0.297,-1.988 1.62,-3.151 2.327,-5.008c-0.505,0.128 -0.895,0.146 -1.188,0.313c-1.534,0.876 -3.059,1.768 -4.553,2.702c-0.489,0.306 -0.851,0.721 -1.519,0.814c-0.331,0.046 -0.662,0.533 -0.865,0.886c-1.374,2.395 -2.713,4.808 -4.067,7.214c-0.093,0.166 -0.208,0.32 -0.334,0.512c-1.059,-1.275 -1.545,-2.759 -1.856,-4.27c-0.321,-1.555 0.515,-2.63 2.158,-3.185c0.277,-0.093 0.601,-0.39 0.659,-0.642c0.056,-0.25 -0.119,-0.645 -0.333,-0.828c-0.324,-0.275 -0.781,-0.405 -1.163,-0.626c-1.295,-0.748 -1.895,-1.756 -1.968,-3.382c0.584,0.057 1.164,0.071 1.724,0.179c0.534,0.104 1.048,0.305 1.575,0.464c0.757,-0.385 0.59,-0.843 0.186,-1.378c-0.519,-0.686 -1.036,-1.379 -1.466,-2.115c-0.612,-1.047 -0.658,-2.221 -0.801,-3.53c0.445,0.065 0.781,0.059 1.071,0.165c2.363,0.864 4.543,0.68 6.62,-0.79c2.277,-1.61 4.665,-3.054 7.238,-4.241c3.633,-1.678 7.449,-2.375 11.461,-2.202c0.58,0.024 1.146,0.277 1.728,0.373c0.253,0.042 0.61,0.044 0.778,-0.092c0.33,-0.264 0.171,-0.567 -0.106,-0.845c-0.409,-0.41 -0.833,-0.822 -1.151,-1.293c-0.507,-0.751 -0.456,-1.168 0.172,-2.226" style="fill:#c48e53;fill-rule:nonzero;"/><path d="M94.996,62.959c0.212,-0.151 0.382,-0.248 0.52,-0.375c0.899,-0.827 1.296,-0.866 2.37,-0.46c0.948,0.358 0.753,0.968 0.544,1.624c-0.015,0.044 -0.061,0.103 -0.045,0.131c0.089,0.156 0.173,0.41 0.297,0.431c0.202,0.034 0.516,-0.018 0.638,-0.151c0.726,-0.796 0.486,-2.141 -0.489,-2.704c-0.832,-0.481 -1.77,-0.713 -2.727,-0.519c-0.509,0.103 -1.028,0.383 -1.42,0.713c-0.5,0.42 -0.467,0.911 0.312,1.31m-13.002,-18.101c0.038,-0.605 0.194,-1.016 0.051,-1.158c-0.989,-0.978 -2.041,-1.901 -3.075,-2.838c-0.032,-0.028 -0.095,-0.035 -0.143,-0.036c-1.818,-0.01 -3.682,-0.464 -5.406,0.468c-0.25,0.135 -0.536,0.274 -0.69,0.486c-0.104,0.143 -0.068,0.445 0.024,0.621c0.056,0.108 0.341,0.164 0.514,0.149c0.186,-0.016 0.365,-0.137 0.543,-0.22c2.617,-1.235 4.755,-0.448 6.421,1.046c0.491,0.439 1.011,0.852 1.761,1.482m-14.454,3.069c-0.25,0 -0.401,-0.024 -0.541,0.004c-1.449,0.287 -2.749,-0.271 -3.281,-1.498c-0.13,-0.3 -0.146,-0.802 0.037,-1.036c0.721,-0.925 1.601,-1.647 2.945,-1.696c0.886,-0.033 1.564,0.091 1.892,0.983c0.075,0.204 0.396,0.329 0.619,0.502c0.595,-0.527 0.393,-0.989 0.131,-1.466c-0.308,-0.559 -0.675,-1.039 -1.383,-1.188c-1.882,-0.395 -4.593,0.935 -5.32,2.643c-0.108,0.252 -0.15,0.554 -0.128,0.826c0.153,1.916 2.339,3.472 4.372,3.134c0.673,-0.112 0.941,-0.445 0.657,-1.208m-1.167,8.704c0.688,0.819 0.694,0.926 1.446,0.889c1.538,-0.075 2.171,0.795 2.453,1.977c0.283,1.183 0.471,2.393 0.597,3.601c0.138,1.337 0.812,2.153 2.327,2.586c1.239,0.354 2.119,0.013 3.011,-0.999c3.017,-3.423 2.168,-7.755 0.37,-10.81c-0.152,-0.256 -0.496,-0.556 -0.772,-0.577c-0.942,-0.071 -1.989,-0.269 -2.825,0.019c-2.316,0.799 -4.739,1.478 -6.607,3.314m-1.88,-14.867c0.108,-1.013 -0.049,-1.335 -0.839,-1.533c-1.366,-0.343 -2.738,-0.57 -4.04,0.235c-0.145,0.09 -0.35,0.095 -0.83,0.215c1.616,-2.157 3.548,-3.565 5.703,-4.893c-0.066,0.751 -0.208,1.421 -0.165,2.081c0.076,1.202 0.971,1.657 2.072,1.018c1.484,-0.861 2.852,-1.902 4.357,-2.726c2.545,-1.395 5.156,-2.683 7.745,-4.007c0.289,-0.148 0.614,-0.233 0.995,-0.374c-0.441,0.889 -0.851,1.662 -1.203,2.457c-0.129,0.293 -0.177,0.642 -0.164,0.962c0.051,1.263 0.708,1.66 1.964,1.194c2.83,-1.051 5.654,-2.116 8.482,-3.171c0.261,-0.098 0.531,-0.174 1.081,-0.351c-0.286,0.634 -0.459,1.045 -0.654,1.445c-1.179,2.42 -2.005,4.945 -1.828,7.62c0.183,2.778 0.83,5.496 2.36,7.922c0.523,0.829 1.362,1.48 2.131,2.29c-0.625,0.85 -1.467,1.447 -2.656,1.699c-0.73,0.155 -1.638,0.025 -2.127,0.76c0.457,1.91 2.513,2.652 6.224,1.901c-0.041,0.443 -0.083,0.843 -0.114,1.244c-0.054,0.699 0.132,1.386 0.78,1.706c0.34,0.168 0.953,0.004 1.369,-0.167c0.391,-0.162 0.687,-0.53 1.123,-0.888c0.523,0.619 1.091,0.904 1.77,0.11c0.196,-0.229 0.738,-0.341 1.083,-0.287c1.404,0.219 2.585,0.851 3.094,2.165c0.768,1.981 0.568,3.609 -1.165,5.303c-1.573,1.539 -3.482,2.151 -5.723,1.337c-0.78,-0.282 -1.388,-0.72 -1.711,-1.476c-0.145,-0.341 -0.352,-0.657 -0.579,-1.07c-0.313,0.174 -0.621,0.255 -0.775,0.447c-1.017,1.266 -2.41,1.985 -3.991,2.347c-2.224,0.511 -4.475,0.92 -6.809,1.391c-0.017,0.217 -0.11,0.499 -0.045,0.743c0.32,1.202 -0.04,2.317 -0.404,3.443c-0.246,0.763 -0.811,1.242 -1.58,1.331c-0.877,0.101 -1.794,0.077 -2.67,-0.045c-0.664,-0.093 -1.109,-0.569 -1.291,-1.233c-0.236,-0.862 -0.544,-1.706 -0.782,-2.568c-0.283,-1.022 -0.985,-1.534 -2.046,-1.829c-1.715,-0.476 -3.394,-1.071 -5.085,-1.625c-0.933,-0.306 -1.86,-0.63 -2.788,-0.95c-0.14,-0.049 -0.306,-0.09 -0.4,-0.186c-1.098,-1.115 -2.678,-1.497 -3.966,-2.329c-2.699,-1.744 -4.587,-4.01 -5.357,-7.041c-0.277,-1.092 -0.631,-2.18 -0.752,-3.29c-0.095,-0.868 0.066,-1.773 0.198,-2.65c0.423,-2.807 1.868,-5.242 3.315,-7.649c0.818,-1.362 3.863,-2.049 5.6,-1.444c0.36,0.126 0.712,0.271 1.093,0.416" style="fill:#fdd8bd;fill-rule:nonzero;"/><path d="M53.933,88.643c0.306,-1.451 -0.355,-2.359 -1.031,-3.329c-3.293,-4.726 -8.079,-6.92 -13.895,-7.413c-0.354,-0.03 -0.72,0.054 -1.08,0.086c-0.024,0.101 -0.047,0.202 -0.07,0.304c0.427,0.172 0.839,0.396 1.284,0.504c0.575,0.139 1.175,0.189 1.766,0.27c4.951,0.678 8.655,3.144 11.358,7.039c0.539,0.778 1.039,1.579 1.668,2.539m-22.282,2.423c-2.812,0.715 -3.385,1.539 -2.341,3.265c-1.727,1.451 -2.109,2.389 -1.39,3.413c0.618,0.879 1.691,0.938 3.417,0.155c0.519,1.213 1.581,2.006 2.693,2.637c1.516,0.859 2.119,2.053 2.104,3.633c-0.007,0.649 -0.001,1.298 -0.001,2.011c-0.814,0.429 -1.639,0.922 -2.703,0.946c-1.51,0.034 -2.741,-0.766 -2.999,-2.178c-0.219,-1.188 -0.825,-2.013 -1.87,-2.738c-1.365,-0.945 -2.474,-2.159 -3.338,-3.58c-1.838,-3.025 -3.388,-6.167 -4.501,-9.488c-0.309,-0.924 -0.354,-1.896 -0.373,-2.898c-0.046,-2.383 0.579,-4.645 0.983,-6.95c0.012,-0.066 -0.095,-0.151 -0.245,-0.37c-0.298,0.394 -0.558,0.736 -0.836,1.103c-0.929,-1.312 -2.099,-2.483 -2.601,-4.068c-0.202,-0.639 -0.091,-1.065 0.389,-1.511c1.032,-0.961 2.133,-1.424 3.634,-0.954c0.827,0.258 1.764,0.229 2.655,0.264c0.261,0.01 0.58,-0.149 0.792,-0.319c2.433,-1.951 5.334,-2.691 8.432,-2.796c1.948,-0.066 3.872,-0.151 5.751,-0.698c0.459,-0.134 0.966,-0.235 1.356,0.264c0.121,0.156 0.446,0.2 0.687,0.236c1.792,0.268 3.45,0.917 5.095,1.592c0.911,0.375 1.812,0.777 2.693,1.211c0.985,0.485 1.953,0.698 2.989,0.146c0.213,-0.113 0.472,-0.153 0.712,-0.214c1.563,-0.397 2.688,0.34 2.756,1.847c0.029,0.64 -0.053,1.285 -0.093,2.094c-0.494,-0.336 -0.843,-0.572 -1.311,-0.89c0.44,1.718 1.378,2.993 2.612,4.114c2.696,2.447 4.654,5.392 6.345,8.504c0.211,0.389 0.271,0.897 0.248,1.342c-0.028,0.554 -0.197,1.104 -0.337,1.649c-0.184,0.713 -0.287,1.442 -1.229,1.744c-0.368,0.119 -0.606,0.596 -0.749,0.747c-1.363,0.115 -2.539,0.161 -3.696,0.322c-2.31,0.323 -4.612,0.7 -6.913,1.075c-0.637,0.103 -1.258,0.288 -1.89,0.412c-0.473,0.092 -0.953,0.147 -1.533,0.233c-0.092,-1.79 -1.001,-3.128 -2.169,-4.458c0.575,-0.553 1.046,-1.018 1.531,-1.471c1.037,-0.97 1.526,-2.049 0.985,-3.445c-0.394,-1.019 -1.078,-1.7 -2.194,-1.902c-0.97,-0.176 -1.995,-0.439 -2.938,-0.303c-1.36,0.196 -2.502,0.914 -2.985,2.213c-0.586,-0.13 -1.107,-0.265 -1.636,-0.359c-1.274,-0.225 -2.258,0.08 -2.8,1.309c-0.106,0.241 -0.46,0.429 -0.744,0.551c-1.186,0.507 -2.096,1.235 -2.444,2.558" style="fill:#fff;fill-rule:nonzero;"/><path d="M68.469,106.604c-5.56,0.35 -10.755,2.643 -16.307,4.047c0.005,-4.722 -1.487,-9.064 -4.28,-13.145c1.021,-0.579 2.172,-0.936 3.385,-1.103c1.53,-0.211 3.07,-0.363 4.602,-0.557c0.59,-0.075 1.178,-0.178 1.759,-0.298c1.349,-0.281 2.653,-0.007 3.92,0.33c0.387,-0.441 0.664,-0.895 1.072,-1.182c0.384,-0.27 0.907,-0.364 1.337,-0.524c8.08,4.833 22.499,4.336 28.669,1.354c1.38,1.936 2.221,3.954 1.431,6.346c-0.328,0.996 -0.984,1.733 -1.759,2.411c-1.192,1.041 -2.62,1.71 -4.154,2.141c-0.54,0.151 -1.168,0.024 -1.637,0.024c-0.57,-0.565 0.092,-1.823 -1.392,-1.589c-0.033,0.328 -0.107,0.646 -0.091,0.961c0.045,0.826 -0.018,1.503 -1.18,1.564c-0.515,0.028 -0.788,0.54 -0.637,0.962c0.479,1.343 0.187,2.712 0.27,4.065c0.291,4.691 0.612,9.378 2.073,13.838c-0.776,1.373 -2.072,1.693 -3.446,1.748c-1.796,0.072 -3.604,0.137 -5.395,0.025c-2.143,-0.134 -4.204,-0.727 -6.191,-1.49c-1.328,-0.511 -1.979,-1.448 -1.951,-2.871c0.064,-3.302 -0.081,-6.611 0.084,-9.906c0.1,-2.006 0.616,-3.994 0.951,-5.989c0.054,-0.323 0.157,-0.64 0.199,-0.964c0.301,-2.358 1.481,-4.165 3.75,-5.268c1.019,-0.495 2.074,-0.922 3.104,-1.397c0.431,-0.199 0.838,-0.444 1.345,-0.715c-1.141,-0.517 -1.213,-0.552 -4.039,0.911c-1.257,0.65 -2.604,1.354 -3.499,2.359c-0.887,0.995 -1.256,2.399 -1.993,3.912" style="fill:#9ed8d7;fill-rule:nonzero;"/><path d="M72.436,69.794c-2.087,2.049 -1.91,4.293 -0.922,6.437c0.632,1.373 1.952,2.305 3.639,2.657c2.275,0.475 4.454,0.357 6.563,-0.62c2.732,-1.266 3.875,-4.008 3.3,-6.615c-0.228,-1.031 -1.035,-1.687 -2.178,-2.096c3.339,-1.028 6.926,-1.077 9.742,-3.314c0.874,1.03 1.809,1.755 3.099,2.002c0.289,0.055 0.612,0.348 0.756,0.611c0.66,1.209 1.331,2.419 1.867,3.679c0.534,1.259 0.347,1.72 -0.958,2.22c-2.349,0.898 -4.743,1.692 -7.121,2.523c-0.138,0.049 -0.3,0.031 -0.443,0.069c-0.442,0.114 -0.92,0.231 -0.848,0.8c0.082,0.656 0.653,0.414 1.168,0.45c0.825,5.074 1.65,10.151 2.469,15.188c-0.855,0.489 -1.584,0.962 -2.363,1.344c-2.421,1.187 -5.088,1.265 -7.723,1.423c-3.454,0.208 -6.894,0.037 -10.304,-0.539c-2.382,-0.403 -4.541,-1.367 -6.663,-2.411c-1.029,-0.507 -1.338,-1.327 -1.111,-2.372c0.275,-1.264 0.511,-2.536 0.798,-3.797c0.322,-1.42 0.665,-2.836 1.028,-4.247c0.433,-1.685 0.895,-3.364 1.347,-5.045c0.145,-0.539 0.185,-1.113 0.789,-1.455c0.17,-0.096 0.355,-0.482 0.284,-0.589c-0.615,-0.929 0.107,-1.696 0.288,-2.524c0.03,-0.136 0.164,-0.269 0.149,-0.393c-0.025,-0.206 -0.131,-0.405 -0.204,-0.607c-0.251,0.088 -0.637,0.111 -0.728,0.277c-0.246,0.45 -0.371,0.96 -0.536,1.448c-0.134,0.393 -0.257,0.789 -0.403,1.241c-2.071,-0.101 -4,-0.469 -5.879,-1.109c-0.82,-0.28 -1.086,-0.842 -1.163,-1.619c-0.176,-1.775 0.594,-3.301 1.312,-4.848c0.04,-0.086 0.102,-0.162 0.15,-0.245c0.86,-1.516 0.821,-1.425 2.547,-0.769c2.444,0.929 4.952,1.709 7.433,2.553c0.225,0.077 0.448,0.16 0.819,0.292" style="fill:#f6f4b0;fill-rule:nonzero;"/><path d="M68.626,107.52c-1.098,4.221 -1.115,8.335 -1.041,12.524c-0.424,0.032 -0.711,0.078 -0.996,0.07c-5.186,-0.143 -10.373,-0.298 -15.559,-0.44c-1.645,-0.045 -3.291,-0.028 -4.934,-0.097c-1.691,-0.071 -3.406,-0.441 -5.063,-0.272c-3.073,0.313 -6.053,-0.38 -9.084,-0.43c-1.581,-0.026 -2.997,-0.773 -4.235,-1.634c-0.848,-0.591 -1.065,-1.665 -1.178,-2.637c-0.233,-2.006 -0.46,-4.019 -0.528,-6.033c-0.038,-1.109 0.218,-2.234 0.42,-3.338c0.061,-0.335 0.327,-0.685 0.6,-0.928c1.019,-0.909 1.744,-0.725 2.191,0.514c0.016,0.044 0.034,0.089 0.04,0.135c0.279,2.076 1.722,2.942 3.746,3.176c0.426,0.049 0.89,0.056 1.295,-0.052c0.757,-0.203 1.483,-0.504 2.302,-0.792c0.668,1.877 1.426,3.734 3.601,4.561c2.044,0.776 4,0.584 5.869,-0.594c1.382,0.924 2.851,1.348 4.498,0.812c1.091,0.446 1.862,-0.343 2.769,-0.625c3.5,-1.086 6.988,-2.212 10.522,-3.191c1.455,-0.403 3.015,-0.473 4.765,-0.729" style="fill:#d7e8b4;fill-rule:nonzero;"/><path d="M43.338,92.012c3.476,2.605 2.849,5.763 1.657,9.027c1.099,-0.271 1.099,-0.271 2.197,-2.643c2.163,2.238 2.749,5.06 3.61,7.821c-0.63,0.294 -1.172,0.63 -1.768,0.808c-1.032,0.308 -1.564,1.001 -2.145,1.819c-1.079,1.518 -2.597,2.48 -4.689,2.298c-1.716,-0.15 -2.972,-0.936 -3.793,-2.355c-0.794,-1.371 -0.881,-2.907 -1.141,-4.401c-0.113,-0.643 -0.14,-1.301 -0.278,-1.937c-0.208,-0.957 -0.745,-1.691 -1.624,-2.273c-1.096,-0.726 -2.095,-1.581 -3.051,-2.315c0.087,-0.527 0.143,-0.867 0.222,-1.349c-0.424,0.076 -0.711,0.085 -0.962,0.182c-0.554,0.211 -1.074,0.506 -1.635,0.692c-0.566,0.188 -1.124,0.094 -1.427,-0.453c-0.297,-0.534 0.115,-0.882 0.494,-1.194c0.566,-0.465 1.258,-0.561 1.971,-0.489c0.491,0.049 0.974,0.17 1.491,0.264c0.873,-0.814 1.68,-1.727 2.656,-2.432c0.951,-0.686 2.075,-1.16 3.194,-1.765c-1.081,-0.418 -1.216,-0.38 -3.85,0.991c-0.532,-0.418 -1.064,-0.836 -1.6,-1.256c-0.013,-0.751 0.479,-1.142 1.098,-1.38c0.542,-0.209 1.081,-0.18 1.441,0.376c0.182,0.279 0.357,0.583 0.612,0.792c0.14,0.115 0.544,0.152 0.646,0.054c0.171,-0.164 0.339,-0.527 0.255,-0.694c-0.208,-0.417 -0.597,-0.751 -0.842,-1.156c-0.403,-0.668 -0.143,-1.198 0.627,-1.387c1.141,-0.282 1.944,0.157 2.301,1.252c0.13,0.4 0.226,0.818 0.423,1.186c0.083,0.154 0.421,0.308 0.589,0.268c0.188,-0.046 0.393,-0.294 0.448,-0.489c0.057,-0.204 -0.028,-0.458 -0.101,-0.675c-0.513,-1.528 -0.051,-2.635 1.396,-3.229c1.361,-0.558 2.673,-0.207 3.882,0.382c0.873,0.425 1.116,2.14 0.461,2.885c-0.571,0.65 -1.268,1.199 -1.895,1.806c-0.268,0.259 -0.499,0.552 -0.87,0.969" style="fill:#fdd8bd;fill-rule:nonzero;"/><path d="M82.076,134.705c1.181,-0.487 1.226,-1.21 1.252,-1.958c0.03,-0.824 -0.167,-1.576 -0.811,-2.158c-0.257,-0.233 -0.759,-0.013 -0.771,0.329c-0.007,0.215 0.048,0.478 0.182,0.642c0.578,0.711 0.556,1.451 0.244,2.242c-0.075,0.19 -0.049,0.416 -0.096,0.903m-10.861,7.765c-1.543,0.319 -2.392,0.068 -2.753,-0.804c-0.705,-1.708 0.801,-2.123 2.022,-2.724c-0.45,-0.642 -1.035,-0.705 -1.605,-0.554c-0.946,0.251 -1.488,1.191 -1.707,2.753c-1.585,0.798 -2.148,0.704 -3.352,-0.599c0.243,-0.93 0.778,-1.545 1.908,-1.631c0.339,-0.026 0.66,-0.252 1.091,-0.428c-1.597,-1.146 -2.861,-0.612 -4.181,1.626c-1.454,0.225 -2.682,-0.324 -3.71,-1.275c-0.71,-0.656 -0.58,-1.282 0.223,-1.898c1.369,-1.049 2.923,-1.074 4.533,-0.71c1.221,0.276 1.196,0.284 1.861,-0.719c1.18,-1.781 2.895,-3.098 4.514,-4.488c0.772,-0.662 1.663,-1.199 2.488,-1.808c0.581,-0.429 1.157,-0.629 1.931,-0.399c2.286,0.68 4.625,0.485 6.959,0.259c0.643,-0.062 1.289,-0.085 1.968,-0.128c0.802,0.896 1.415,1.82 1.693,2.958c0.199,0.818 0.532,1.613 0.869,2.393c0.385,0.893 0.283,1.693 -0.143,2.568c-0.818,1.681 -2.407,2.529 -4.01,3.232c-1.226,0.538 -1.887,1.291 -2.204,2.438c-0.174,0.63 -0.565,1.084 -1.184,1.378c-0.815,0.387 -1.679,0.255 -2.157,-0.349c-0.545,-0.688 -0.492,-1.185 0.165,-1.976c0.139,-0.167 0.191,-0.398 0.289,-0.611c-1.269,-0.307 -1.849,0.015 -1.963,1.171c-0.049,0.496 0.029,1.003 -0.607,1.097c-0.658,0.098 -1.336,-0.065 -1.759,-0.574c-0.388,-0.467 -0.21,-1.004 0.192,-1.416c0.256,-0.262 0.572,-0.504 0.91,-0.655c0.335,-0.15 0.731,-0.255 0.538,-0.665c-0.237,-0.502 -0.634,-0.246 -1.003,-0.075c-1.147,0.53 -2.036,1.22 -1.816,2.613" style="fill:#fdd8bd;fill-rule:nonzero;"/><path d="M59.889,130.585c-0.659,0.376 -1.323,0.744 -1.975,1.129c-1.365,0.807 -1.647,0.765 -2.577,-0.398c-0.656,-0.82 -1.319,-1.637 -2.092,-2.596c0.58,-0.3 1.091,-0.686 1.671,-0.843c2.116,-0.573 4.257,-1.025 6.49,-0.674c1.427,0.224 2.137,1.499 1.34,2.666c-0.616,0.903 -1.365,1.751 -2.181,2.502c-2.616,2.404 -5.858,3.871 -9.152,5.239c-0.998,0.415 -1.998,0.844 -3.035,1.149c-1.838,0.54 -3.76,0.623 -5.617,0.257c-1.987,-0.391 -4.09,-0.413 -5.923,-1.367c-0.78,-0.406 -1.522,-0.896 -2.213,-1.427c-0.493,-0.379 -0.379,-0.95 -0.137,-1.433c0.703,-1.401 1.461,-2.759 2.51,-3.986c1.138,-1.331 2.419,-2.468 3.926,-3.404c1.253,-0.777 2.638,-0.792 4.04,-0.621c1.088,0.133 2.169,0.331 3.242,0.546c1.574,0.316 2.827,1.201 3.916,2.239c1.117,1.064 2.076,2.274 3.138,3.393c0.204,0.215 0.588,0.452 0.85,0.417c1.75,-0.234 3.04,-1.155 4.085,-2.393c-0.102,-0.132 -0.204,-0.263 -0.306,-0.395" style="fill:#6abfeb;fill-rule:nonzero;"/><path d="M84.885,108.477c2.951,0.074 5.733,0.139 8.515,0.217c0.997,0.028 1.994,0.075 2.989,0.135c1.285,0.077 2.579,0.109 3.844,0.304c0.393,0.06 0.849,0.523 1.032,0.906c0.91,1.907 1.504,3.862 0.998,6.009c-0.333,1.416 -0.459,2.874 -0.729,4.305c-0.247,1.308 -0.491,1.438 -1.887,1.203c-0.147,-0.025 -0.298,-0.063 -0.445,-0.054c-2.79,0.168 -5.563,-0.328 -8.372,-0.089c-1.708,0.146 -3.465,-0.223 -5.35,-0.373c-0.646,-4.093 -1.276,-8.147 -0.595,-12.563" style="fill:#d7e8b4;fill-rule:nonzero;"/><path d="M99.345,71.687c-0.571,-1.083 -1.121,-2.126 -1.689,-3.205c0.778,-0.242 1.638,-0.368 2.33,-0.758c0.84,-0.475 1.685,-1.068 2.269,-1.794c1.375,-1.711 3.165,-2.76 5.249,-3.507c1.486,-0.533 2.917,-1.205 4.374,-1.813c0.893,-0.373 1.383,-1.002 1.541,-1.923c0.11,-0.643 0.331,-1.275 0.561,-1.893c0.678,-1.816 3.011,-2.353 4.62,-1.126c0.945,0.722 1.373,1.714 1.8,2.711c0.216,0.506 -0.089,1.003 -0.672,1.029c-0.513,0.022 -1.055,-0.14 -1.554,-0.302c-0.784,-0.254 -1.088,-0.129 -1.307,0.614c-0.157,0.533 -0.253,1.11 -0.541,1.577c-0.523,0.849 -0.897,0.918 -2.047,0.687c-0.167,-0.033 -0.476,0.009 -0.519,0.1c-0.083,0.177 -0.106,0.457 -0.009,0.617c0.338,0.559 0.967,0.764 1.692,0.457c0.712,-0.302 1.356,-0.744 2.093,-1.16c0.333,0.523 0.612,1.036 0.268,1.832c-0.411,0.951 0.111,1.667 1.211,2.074c1.257,0.466 2.817,0.02 3.869,-1.143c-0.594,-0.358 -1.098,-0.098 -1.664,0.067c-0.592,0.171 -1.25,0.199 -1.875,0.181c-0.189,-0.006 -0.451,-0.35 -0.519,-0.581c-0.037,-0.127 0.227,-0.383 0.411,-0.511c1.679,-1.17 3.363,-0.647 5.002,0.071c0.686,0.301 0.688,0.953 0.001,1.299c-1.622,0.818 -3.253,1.672 -5.148,1.773c-1.251,0.067 -2.475,-0.133 -3.621,-0.643c-1.02,-0.453 -1.891,-0.571 -3.041,0.014c-2.261,1.15 -4.637,2.103 -7.122,2.827c-1.747,0.509 -3.365,1.408 -5.044,2.126c-0.265,0.113 -0.551,0.183 -0.919,0.303" style="fill:#fdd8bd;fill-rule:nonzero;"/><path d="M45.294,60.179c-0.172,0.263 -0.346,0.529 -0.582,0.89c2.519,1.468 5.329,2.161 7.958,3.214c2.585,1.034 5.322,1.734 8.044,2.597c-0.585,1.639 -1.116,3.132 -1.666,4.673c-3.267,-0.395 -6.145,-1.961 -9.237,-2.906c-0.994,-0.304 -1.984,-0.63 -2.942,-1.019c-0.532,-0.216 -0.994,-0.583 -1.713,-1.018c-0.354,0.284 -0.844,0.802 -1.45,1.127c-0.576,0.309 -1.273,0.416 -2.172,0.69c0.502,-1.11 0.531,-1.985 0.361,-2.929c-0.114,-0.638 0.233,-1.351 0.374,-2.03c3.025,0.683 3.941,0.39 3.525,-1.188c-0.754,0.299 -1.52,0.874 -2.343,0.365c-0.637,-0.393 -1.17,-0.935 -1.862,-1.503c-0.187,0.339 -0.338,0.606 -0.483,0.877c-0.201,0.374 -0.325,0.808 -0.607,1.114c-0.779,0.844 -1.851,0.7 -2.438,-0.277c-0.659,-1.098 -0.503,-1.74 0.377,-2.63c0.8,-0.808 1.868,-1.376 2.391,-2.45c0.164,-0.335 0.651,-0.529 0.959,-0.764c1.698,0.639 2.974,1.536 3.506,3.167" style="fill:#fdd8bd;fill-rule:nonzero;"/><path d="M33.065,136.539c-1.343,-0.136 -2.772,-0.256 -4.193,-0.435c-0.887,-0.111 -1.764,-0.296 -2.64,-0.472c-1.617,-0.324 -2.492,-1.446 -3.287,-2.76c1.31,-2.522 3.05,-4.617 5.793,-6.002c1.249,-0.631 2.372,-1.524 3.702,-2.072c2.305,-0.949 4.5,-0.6 6.336,1.02c0.072,0.063 0.179,0.115 0.209,0.192c0.13,0.346 0.239,0.699 0.338,0.997c-1.062,1.113 -2.101,2.177 -3.109,3.266c-1.214,1.313 -2.22,2.762 -2.866,4.398c-0.192,0.489 -0.168,1.054 -0.283,1.868" style="fill:#6abfeb;fill-rule:nonzero;"/><path d="M73.551,70.269c0.237,0.938 0.541,1.688 0.597,2.454c0.11,1.529 1.17,2.325 2.483,2.682c1.687,0.459 3.376,0.167 4.806,-0.892c0.293,-0.217 0.53,-0.577 0.647,-0.916c0.305,-0.889 0.53,-1.803 0.805,-2.768c0.632,0.187 0.919,0.67 1.014,1.302c0.247,1.657 -0.374,3.056 -1.531,4.245c-2.03,2.088 -6.855,2.312 -9.072,0.371c-0.392,-0.343 -0.744,-0.776 -0.963,-1.232c-0.877,-1.82 -0.481,-3.779 1.214,-5.246" style="fill:#9ed8d7;fill-rule:nonzero;"/><path d="M34.209,123.013c-1.361,0.602 -2.576,1.133 -3.785,1.674c-0.798,0.356 -1.152,0.225 -1.179,-0.578c-0.053,-1.545 -0.015,-3.093 -0.015,-4.627c1.422,0.15 2.735,0.317 4.054,0.416c0.627,0.048 0.914,0.311 0.923,0.872c0.01,0.75 0.002,1.5 0.002,2.243" style="fill:#b28254;fill-rule:nonzero;"/><path d="M98.757,107.673c-3.124,0.332 -6.125,0.02 -9.394,-0.386c2.65,-1.201 5.063,-2.394 5.789,-5.408c0.376,2.514 1.518,4.382 3.605,5.794" style="fill:#a7d48e;fill-rule:nonzero;"/><path d="M44.289,125.701c2.003,-0.93 3.973,-1.078 5.947,-1.218c1.159,-0.082 2.26,0.084 3.354,0.476c0.886,0.318 1.44,0.801 1.478,1.7c-0.912,0.429 -1.822,0.856 -2.86,1.344c-0.549,-0.392 -1.627,-0.319 -1.834,-1.386c-0.024,-0.126 -0.329,-0.32 -0.458,-0.293c-1.706,0.366 -3.249,-0.453 -4.885,-0.567c-0.18,-0.013 -0.359,-0.027 -0.742,-0.056" style="fill:#6abfeb;fill-rule:nonzero;"/><path d="M40.668,65.865c0.375,1.694 0.219,2.072 -1.302,2.829c-0.564,0.281 -1.171,0.524 -1.789,0.658c-0.991,0.215 -2.104,-0.294 -2.483,-1.156c-0.152,-0.344 -0.112,-0.837 0.032,-1.192c0.074,-0.181 0.612,-0.342 0.877,-0.278c1.562,0.378 2.925,-0.058 4.245,-0.784c0.116,-0.064 0.279,-0.053 0.42,-0.077" style="fill:#fdd8bd;fill-rule:nonzero;"/><path d="M47.012,110.665c1.045,-1.353 1.693,-3.039 3.913,-2.896c0.472,1.113 0.679,2.205 -0.305,3.112c-0.84,0.775 -2.143,0.657 -3.608,-0.216" style="fill:#9ed8d7;fill-rule:nonzero;"/><path d="M118.963,62.552c-0.39,-0.767 -0.182,-1.157 0.49,-1.458c1.48,-0.662 3.745,-0.415 4.906,0.638c0.259,0.234 0.362,0.62 0.636,1.116c-2.113,-0.374 -4.001,-1.131 -6.032,-0.296" style="fill:#fdd8bd;fill-rule:nonzero;"/><path d="M35.4,63.344c0.874,0.375 1.726,0.855 2.647,1.1c0.768,0.204 1.618,0.131 2.274,0.171c-1.259,1.052 -2.171,1.343 -3.738,1.103c-1.404,-0.215 -1.885,-1.086 -1.183,-2.374" style="fill:#fdd8bd;fill-rule:nonzero;"/><path d="M33.462,93.174c-0.208,0.217 -0.385,0.378 -0.532,0.561c-0.18,0.223 -0.335,0.463 -0.462,0.643c-0.855,-0.276 -1.527,-0.422 -2.128,-0.704c-0.699,-0.329 -0.681,-0.851 -0.034,-1.283c0.76,-0.508 1.574,-0.493 2.29,0.054c0.266,0.204 0.513,0.431 0.866,0.729" style="fill:#fdd8bd;fill-rule:nonzero;"/><path d="M124.462,60.397c-0.481,-0.192 -0.902,-0.4 -1.349,-0.528c-0.421,-0.121 -0.87,-0.159 -1.344,-0.241c-0.027,-0.483 -0.053,-0.935 -0.077,-1.363c2.355,-0.563 3.015,0.284 2.77,2.132" style="fill:#fdd8bd;fill-rule:nonzero;"/><path d="M121.013,56.806c-0.406,-0.558 -0.814,-1.119 -1.28,-1.758c0.897,-0.351 1.715,-0.583 2.389,-0.105c0.571,0.405 0.702,1.106 0.329,1.863l-1.438,0Z" style="fill:#fdd8bd;fill-rule:nonzero;"/><path d="M36.553,62.51c-0.475,-0.687 -1.869,-0.932 -1.235,-2.07c0.296,-0.531 0.652,-1.082 1.59,-0.742c-0.116,0.924 -0.235,1.868 -0.355,2.812" style="fill:#fdd8bd;fill-rule:nonzero;"/><path d="M37.874,58.893c-0.699,-0.473 -0.579,-0.968 -0.17,-1.386c0.499,-0.51 1.115,-0.771 1.874,-0.309c-0.121,0.955 -0.925,1.261 -1.704,1.695" style="fill:#fdd8bd;fill-rule:nonzero;"/><path d="M72.886,64.412c1.596,0.261 2.31,-0.016 3.052,-1.203c0.706,-1.129 1.104,-2.352 1.19,-3.683c-2.515,0.326 -4.299,2.376 -4.242,4.886m-0.896,-1.942c1.078,-2.09 2.634,-3.579 5.018,-4.278c-0.418,-1.44 -0.578,-2.835 -1.497,-3.927c-2.733,-0.383 -4.758,1.054 -7.207,2.051c1.923,0.326 2.634,1.486 3.022,2.849c0.294,1.033 0.429,2.104 0.664,3.305m-5.617,-5.839c1.868,-1.837 4.292,-2.516 6.608,-3.315c0.836,-0.288 1.882,-0.09 2.824,-0.018c0.277,0.021 0.621,0.32 0.772,0.576c1.799,3.056 2.647,7.388 -0.37,10.81c-0.892,1.012 -1.772,1.353 -3.011,0.999c-1.515,-0.432 -2.188,-1.249 -2.327,-2.585c-0.126,-1.208 -0.314,-2.418 -0.597,-3.602c-0.282,-1.182 -0.915,-2.051 -2.453,-1.977c-0.751,0.037 -0.757,-0.07 -1.446,-0.888" style="fill:#231f20;fill-rule:nonzero;"/><path d="M67.54,47.927c0.284,0.763 0.016,1.096 -0.658,1.208c-2.032,0.338 -4.218,-1.219 -4.371,-3.134c-0.022,-0.272 0.02,-0.574 0.127,-0.826c0.728,-1.708 3.438,-3.039 5.32,-2.644c0.708,0.149 1.075,0.63 1.383,1.188c0.263,0.478 0.465,0.94 -0.13,1.467c-0.224,-0.174 -0.544,-0.298 -0.619,-0.502c-0.328,-0.892 -1.006,-1.016 -1.892,-0.984c-1.345,0.05 -2.224,0.771 -2.946,1.696c-0.182,0.235 -0.166,0.737 -0.036,1.036c0.532,1.227 1.831,1.786 3.28,1.498c0.141,-0.027 0.292,-0.003 0.542,-0.003" style="fill:#231f20;fill-rule:nonzero;"/><path d="M81.994,44.858c-0.75,-0.63 -1.27,-1.042 -1.761,-1.482c-1.666,-1.494 -3.804,-2.281 -6.421,-1.046c-0.178,0.083 -0.357,0.204 -0.543,0.22c-0.173,0.015 -0.458,-0.041 -0.514,-0.149c-0.092,-0.176 -0.128,-0.478 -0.024,-0.621c0.154,-0.212 0.44,-0.351 0.69,-0.486c1.724,-0.932 3.588,-0.478 5.406,-0.468c0.048,0.001 0.111,0.008 0.143,0.036c1.034,0.937 2.086,1.86 3.075,2.838c0.143,0.142 -0.013,0.553 -0.051,1.158" style="fill:#231f20;fill-rule:nonzero;"/><path d="M94.996,62.959c-0.779,-0.399 -0.812,-0.89 -0.312,-1.31c0.392,-0.33 0.911,-0.61 1.42,-0.713c0.957,-0.194 1.895,0.038 2.727,0.519c0.975,0.563 1.215,1.908 0.489,2.704c-0.122,0.133 -0.436,0.185 -0.638,0.151c-0.124,-0.021 -0.208,-0.275 -0.297,-0.431c-0.016,-0.028 0.03,-0.087 0.045,-0.131c0.209,-0.656 0.404,-1.266 -0.544,-1.624c-1.074,-0.406 -1.471,-0.367 -2.37,0.46c-0.138,0.127 -0.308,0.224 -0.52,0.375" style="fill:#231f20;fill-rule:nonzero;"/><path d="M53.933,88.643c-0.629,-0.96 -1.129,-1.761 -1.668,-2.539c-2.703,-3.895 -6.407,-6.361 -11.358,-7.039c-0.591,-0.081 -1.191,-0.131 -1.766,-0.27c-0.445,-0.108 -0.857,-0.332 -1.284,-0.504c0.023,-0.102 0.046,-0.203 0.07,-0.304c0.36,-0.032 0.726,-0.116 1.08,-0.086c5.816,0.493 10.602,2.687 13.895,7.413c0.676,0.97 1.337,1.878 1.031,3.329" style="fill:#231f20;fill-rule:nonzero;"/><path d="M82.076,134.705c0.047,-0.487 0.021,-0.713 0.096,-0.903c0.312,-0.791 0.334,-1.531 -0.244,-2.242c-0.134,-0.164 -0.189,-0.427 -0.182,-0.642c0.012,-0.342 0.514,-0.562 0.771,-0.329c0.644,0.582 0.841,1.334 0.811,2.158c-0.026,0.748 -0.071,1.471 -1.252,1.958" style="fill:#231f20;fill-rule:nonzero;"/><path d="M71.989,62.47c-0.234,-1.2 -0.369,-2.272 -0.663,-3.304c-0.388,-1.363 -1.099,-2.524 -3.022,-2.849c2.448,-0.998 4.474,-2.434 7.207,-2.052c0.919,1.092 1.078,2.488 1.497,3.928c-2.385,0.699 -3.94,2.187 -5.019,4.277" style="fill:#db3e24;fill-rule:nonzero;"/><path d="M72.886,64.412c-0.057,-2.51 1.727,-4.56 4.242,-4.886c-0.086,1.331 -0.484,2.554 -1.19,3.683c-0.742,1.187 -1.456,1.464 -3.052,1.203" style="fill:#f7a197;fill-rule:nonzero;"/><path d="M66.791,28.497c2.866,-1.234 5.488,-2.947 8.417,-4.042c4.435,-1.656 9.315,-1.807 14.082,-1.936c-1.693,0.717 -3.159,1.903 -4.167,3.372c6.948,-2.399 15.167,-1.189 21.008,3.091c0.503,-2.952 -1.648,-5.853 -4.403,-7.337c-2.754,-1.483 -6.006,-1.854 -9.159,-2.184c-3.153,-0.329 -6.403,-0.675 -9.181,-2.119c0.32,0.873 0.641,1.746 0.962,2.62c-5.69,-0.845 -11.714,0.517 -16.377,3.704c-1.956,1.337 -3.69,2.984 -5.828,4.046c-1.801,0.895 -3.706,0.607 -5.429,1.148c2.312,2.293 7.464,0.762 10.075,-0.363" style="fill:#ddab75;fill-rule:nonzero;"/><path d="M37.636,132.471c-0.437,0.654 -0.893,1.381 -0.784,2.147c0.166,1.159 1.496,1.799 2.682,2.142c1.77,0.511 3.61,0.804 5.46,0.87c-1.246,-0.131 -1.717,-1.581 -1.898,-2.751c-0.156,-1.004 -0.312,-2.007 -0.467,-3.01c-0.074,-0.48 -0.148,-0.975 -0.014,-1.442c0.277,-0.963 1.319,-1.516 2.267,-1.962c0.363,-0.171 0.685,-0.288 0.999,-0.524c-4.538,-1.725 -6.158,1.408 -8.245,4.53" style="fill:#bdd2ed;fill-rule:nonzero;"/><path d="M31.72,128.094c0.932,-0.926 1.863,-1.853 2.794,-2.779c-1.893,-0.081 -3.741,0.677 -5.249,1.759c-1.508,1.082 -2.726,2.476 -3.93,3.856c-0.637,0.731 -1.314,1.675 -0.925,2.548c0.292,0.652 1.066,0.964 1.769,1.213c1.53,0.542 3.15,1.301 4.738,1.552c-1.26,-3.69 -2.494,-4.653 0.803,-8.149" style="fill:#bdd2ed;fill-rule:nonzero;"/><path d="M105.501,104.697c3.264,2.61 7.424,4.207 11.694,4.488c-2.018,-0.51 -3.888,-1.531 -5.362,-2.927c7.882,2.34 16.343,2.932 24.505,1.714c-5.63,-6.497 -14.651,-10.25 -23.539,-9.792c3.033,2.1 6.065,4.201 9.097,6.302c-4.326,1.103 -8.488,-1.952 -11.804,-4.793c1.328,1.733 2.656,3.465 3.984,5.197c-2.07,0.422 -3.732,-1.518 -4.912,-3.174c-4.066,-5.705 -9.762,-11.232 -17.031,-11.777c0.873,1.243 0.979,2.833 1.916,4.003c0.902,1.127 2.572,1.899 3.662,2.888c2.746,2.493 4.871,5.537 7.79,7.871" style="fill:#fff097;fill-rule:nonzero;"/></g></svg>