<?xml version="1.0" encoding="UTF-8" standalone="no"?><!DOCTYPE svg PUBLIC "-//W3C//DTD SVG 1.1//EN" "http://www.w3.org/Graphics/SVG/1.1/DTD/svg11.dtd"><svg width="100%" height="100%" viewBox="0 0 163 161" version="1.1" xmlns="http://www.w3.org/2000/svg" xmlns:xlink="http://www.w3.org/1999/xlink" xml:space="preserve" xmlns:serif="http://www.serif.com/" style="fill-rule:evenodd;clip-rule:evenodd;stroke-miterlimit:10;"><g><rect x="10.211" y="11.052" width="141.488" height="138.976" style="fill:#c0a7d0;stroke:#fff;stroke-width:2px;"/><path d="M59.897,73.292c0.177,1.027 0.272,1.79 0.45,2.534c0.135,0.567 0.548,0.702 0.978,0.322c0.729,-0.644 1.284,-1.402 1.334,-2.492c-0.861,-0.114 -1.676,-0.221 -2.762,-0.364m19.599,-4.777c-0.891,-1.232 -1.806,-2.566 -2.795,-3.846c-1.011,-1.307 -1.354,-2.869 -1.832,-4.483c-1.652,1.147 -3.194,2.192 -4.706,3.275c-0.967,0.693 -1.043,1.686 -0.089,2.373c1.904,1.368 3.874,2.653 5.838,3.943c0.27,0.177 0.657,0.208 0.999,0.26c1.137,0.174 1.986,-0.224 2.585,-1.522m8.323,49.847c-0.847,1.728 -1.485,3.158 -2.238,4.527c-0.613,1.112 -1.39,2.14 -2.048,3.232c-0.361,0.597 -0.701,1.225 -0.916,1.881c-0.229,0.699 -0.092,1.318 0.616,1.833c0.705,0.513 1.271,1.206 1.962,1.883c1.813,-2.5 4.273,-4.071 7.294,-5.077c-1.778,-2.839 -0.726,-5.758 -0.149,-8.682c-1.667,0.149 -3.217,0.287 -4.521,0.403m-11.503,0.729c-1.944,3.57 -1.719,6.453 0.663,8.651c1.529,-0.32 2.953,0.195 4.501,0.744c0.272,-1.686 1.293,-2.97 2.164,-4.331c0.568,-0.887 1.153,-1.765 1.69,-2.671c0.557,-0.94 0.978,-1.937 1.147,-3.03c-1.268,-0.457 -2.461,-0.888 -3.846,-1.387c-0.047,0.55 -0.063,0.966 -0.122,1.376c-0.06,0.419 -0.262,0.776 -0.758,0.773c-1.472,-0.01 -2.941,0.49 -4.42,0.008c-0.327,-0.107 -0.695,-0.094 -1.019,-0.133m-5.967,18.271c0.785,-3.718 2.488,-6.878 5.594,-9.214c-2.479,-2.904 -2.103,-5.976 -0.788,-9.156c-1.551,-0.371 -3.002,-0.718 -4.556,-1.089c0.062,1.65 -0.531,3.034 -1.392,4.334c-0.193,0.291 -0.375,0.596 -0.511,0.914c-0.69,1.622 -1.804,2.987 -2.801,4.427c-0.721,1.041 -1.424,2.112 -1.974,3.243c-0.988,2.034 0.384,3.958 1.68,4.745c0.797,0.484 1.618,0.932 2.441,1.376c0.671,0.362 1.36,0.69 2.307,0.42m14.304,-37.791c1.45,0.143 2.873,0.297 4.299,0.42c1.226,0.106 2.424,-0.03 3.553,-0.538c1.038,-0.467 1.397,-1.099 1.207,-2.201c-0.419,-2.434 -0.851,-4.866 -1.308,-7.293c-0.093,-0.499 -0.29,-0.922 -0.813,-1.266c-1.821,-1.195 -3.564,-2.502 -5.359,-3.736c-0.89,-0.612 -1.829,-1.161 -2.763,-1.749c-1.337,2.795 -1.177,12.772 1.184,16.363m28.343,3.453c-2.082,-1.621 -4.024,-3.238 -6.079,-4.708c-3.411,-2.441 -6.839,-4.847 -9.34,-8.24c-0.47,-0.638 -0.912,-0.573 -1.596,-0.029c1.261,1.999 2.471,4.031 3.806,5.982c0.533,0.779 1.345,1.379 2.027,2.063c0.152,0.152 0.291,0.317 0.437,0.476c-0.496,0.039 -0.921,-0.026 -1.186,-0.262c-0.789,-0.702 -1.657,-1.381 -2.239,-2.232c-1.359,-1.988 -2.568,-4.072 -3.906,-6.226c-0.47,-0.088 -1.109,-0.207 -1.828,-0.342c0.832,4.289 1.745,8.46 1.906,12.697c0.625,0.239 1.114,0.456 1.623,0.617c1.799,0.572 3.66,0.837 5.522,1.149c2.191,0.368 4.376,0.486 6.575,0.418c1.431,-0.044 2.881,-0.187 4.278,-1.363m-24.172,36.549c2.965,1.039 5.993,0.932 8.995,1.088c1.487,0.077 2.678,-0.572 3.916,-1.158c0.723,-0.342 1.001,-0.956 1.033,-1.705c0.05,-1.157 -0.275,-2.22 -0.794,-3.252c-0.88,-1.751 -2.102,-3.252 -3.596,-4.53c-2.106,-1.803 -4.536,-2.806 -7.31,-1.774c-2.305,0.857 -4.179,2.35 -5.315,4.642c1.122,2.196 2.694,4.211 3.071,6.689m-26.054,-67.222c0.247,-0.983 0.358,-2.933 0.094,-3.603c-0.325,-0.828 -0.845,-1.701 -1.784,-1.791c-2.233,-0.216 -4.481,-0.422 -6.732,-0.04c-1.455,0.247 -2.921,0.59 -4.407,0.145c-0.084,-0.026 -0.179,-0.025 -0.268,-0.021c-3.325,0.156 -6.664,0.176 -9.943,0.807c-1.006,0.194 -1.985,0.543 -2.956,0.877c-0.769,0.265 -1.206,0.829 -1.334,1.612c0.689,0.259 0.693,0.265 0.994,0.09c0.653,-0.383 1.3,-0.776 1.956,-1.155c0.483,-0.278 0.978,-0.413 1.793,0.119c-1.035,0.649 -2.178,0.897 -2.943,1.61c-0.776,0.724 -1.93,1.182 -2.135,2.38c1.252,1.036 1.448,0.957 2.498,-0.078c0.937,-0.924 2.041,-1.692 3.087,-2.51c0.34,-0.266 0.732,-0.314 1.115,-0.025c0.131,0.668 -0.396,0.801 -0.85,0.972c-1.179,0.443 -2.039,1.279 -2.808,2.195c-0.297,0.353 -0.52,0.831 -0.593,1.28c-0.128,0.788 0.423,1.221 1.234,1.052c0.343,-0.073 0.675,-0.2 0.982,-0.293c0.38,-1.524 2.274,-3.86 3.585,-4.465c0.393,-0.181 0.692,-0.147 0.839,0.37c-1.287,1.403 -3.47,2.262 -3.394,4.683c1.142,0.123 2.001,-0.157 2.727,-0.949c0.474,-0.515 1.065,-0.934 1.628,-1.366c0.644,-0.495 1.301,-0.488 1.973,-0.004c0.885,0.636 1.666,1.316 1.865,2.456c0.073,0.413 0.294,0.825 0.534,1.183c0.279,0.414 0.706,0.735 1.255,0.571c0.512,-0.153 0.708,-0.567 0.814,-1.089c0.127,-0.625 0.32,-1.27 0.644,-1.819c0.448,-0.761 0.527,-1.459 0.086,-2.222c-0.107,-0.185 -0.245,-0.42 -0.208,-0.602c0.054,-0.264 0.204,-0.562 0.413,-0.723c0.091,-0.069 0.565,0.114 0.637,0.277c0.326,0.736 0.921,0.687 1.577,0.662c2.644,-0.102 5.254,-0.687 7.916,-0.521c0.034,0.002 0.072,-0.042 0.109,-0.065m0.024,58.635c-0.447,0.127 -0.706,0.19 -0.957,0.273c-2.493,0.83 -2.556,2.881 -1.12,4.409c1.008,1.072 2.387,1.83 3.644,2.665c1.108,0.736 2.274,1.393 3.421,2.072c0.916,0.544 1.797,1.174 2.775,1.582c2.236,0.935 4.612,1.43 7.01,1.788c1.243,0.185 2.504,0.345 3.758,0.348c1.067,0.001 2.17,-0.115 3.193,-0.397c2.507,-0.692 3.903,-3.208 2.901,-5.529c-0.928,-2.151 -2.201,-4.162 -3.338,-6.227c-0.123,-0.224 -0.322,-0.436 -0.537,-0.583c-1.132,-0.774 -2.293,-1.508 -3.422,-2.286c-1.371,-0.945 -2.654,-0.099 -3.97,0.136c-2.222,1.656 -3.562,3.894 -4.438,6.413c-0.297,0.852 -0.428,1.76 -0.625,2.604c-1.637,0.199 -3.014,-0.143 -4.28,-0.989c-0.591,-0.394 -1.253,-0.687 -1.861,-1.06c-0.336,-0.207 -0.649,-0.461 -0.934,-0.731c-1.263,-1.197 -1.606,-2.664 -1.22,-4.488m33.013,-48.685c-0.049,0.111 -0.099,0.222 -0.148,0.332c-0.206,0.02 -0.45,0.118 -0.611,0.045c-0.814,-0.367 -1.616,-0.759 -2.401,-1.18c-0.629,-0.338 -1.229,-0.727 -1.838,-1.098c-1.787,-1.09 -3.589,-2.161 -5.349,-3.293c-0.431,-0.277 -0.811,-0.712 -1.06,-1.156c-0.513,-0.916 -1.095,-1.849 -1.33,-2.846c-0.303,-1.293 -1.16,-2.021 -2.175,-2.694c-0.6,-0.397 -0.75,-0.371 -1.054,0.32c-0.235,0.533 -0.501,0.644 -1.127,0.572c-0.86,-0.099 -1.758,0.037 -2.632,0.139c-0.208,0.025 -0.555,0.324 -0.544,0.479c0.048,0.758 -0.508,1.031 -0.995,1.421c-0.599,0.479 -1.177,1.093 -0.895,1.902c0.271,0.779 0.209,1.419 -0.213,2.108c-0.141,0.23 -0.14,0.616 -0.055,0.887c0.408,1.3 1.121,2.391 2.549,2.813c1.016,0.301 2.012,0.431 3.142,0.324c1.622,-0.153 3.328,-0.305 4.813,0.973c1.298,1.116 2.909,1.888 4.357,2.846c0.928,0.615 1.781,1.337 2.727,1.921c0.491,0.303 1.11,0.412 1.584,0.579c0.485,0.351 0.886,0.863 1.37,0.951c1.148,0.209 2.34,0.173 3.454,-0.26c0.76,-0.295 1.264,-0.853 1.312,-1.677c0.027,-0.475 0.032,-0.973 -0.083,-1.43c-0.406,-1.601 -0.874,-3.188 -1.307,-4.784c-0.805,-2.966 -2.235,-5.681 -3.698,-8.37c-0.786,-1.445 -1.902,-2.721 -3.649,-3.11c-1.609,-0.359 -3.265,-0.396 -4.792,-0.186c-0.531,0.571 -0.575,1.344 -1.345,1.574c-0.6,-0.677 -0.16,-1.197 0.177,-1.677c0.501,-0.715 1.01,-1.411 1.054,-2.161c-1.297,-0.624 -2.535,-1.128 -3.676,-1.788c-1.692,-0.978 -3.315,-2.066 -4.968,-3.106c-0.068,0.059 -0.136,0.118 -0.204,0.177c0.521,0.851 1.059,1.693 1.559,2.555c0.748,1.288 1.5,2.575 2.184,3.894c0.213,0.41 0.476,0.608 0.871,0.847c1.207,0.727 2.49,1.4 3.023,2.849c0.42,1.143 0.956,2.247 1.474,3.355c0.145,0.31 0.349,0.644 0.624,0.839c1.233,0.872 2.494,1.707 3.762,2.532c0.22,0.143 0.52,0.17 0.908,0.289c-0.308,-0.948 -0.567,-1.727 -0.812,-2.51c-0.248,-0.792 -0.635,-1.569 -0.401,-2.631c0.227,0.259 0.381,0.361 0.425,0.497c0.204,0.621 0.358,1.258 0.563,1.878c0.383,1.156 0.536,2.493 1.258,3.403c0.658,0.827 1.955,1.171 2.95,1.761c0.434,0.257 0.816,0.594 1.222,0.895m-26.532,17.71c-1.646,4.59 -3.231,9.01 -4.861,13.557c0.62,0.478 1.198,1.04 1.881,1.43c2.614,1.489 5.435,2.473 8.415,3.011c0.793,0.143 1.604,0.201 2.407,0.291c1.196,0.133 2.363,0.514 3.606,0.096c0.563,-0.188 0.811,-0.431 0.911,-0.959c0.161,-0.851 0.344,-1.699 0.565,-2.537c0.429,-1.622 0.892,-3.235 1.384,-5.006c-0.756,0.19 -1.307,0.333 -1.86,0.466c-0.363,0.088 -0.681,-0.015 -0.671,-0.398c0.005,-0.155 0.312,-0.385 0.522,-0.441c2.553,-0.682 5.114,-1.34 7.676,-1.995c0.169,-0.044 0.362,-0.005 0.544,-0.005c-0.189,0.321 -0.425,0.494 -0.69,0.588c-0.463,0.166 -1.053,0.163 -1.396,0.448c-0.668,0.555 -1.424,0.662 -2.227,0.78c-0.731,0.107 -1.171,0.515 -1.337,1.272c-0.315,1.442 -0.722,2.866 -1.088,4.297c-0.075,0.294 -0.141,0.59 -0.207,0.867c1.266,0.944 4.187,1.673 5.78,1.479c1.472,-0.178 2.945,-0.338 4.418,-0.503c1.16,-0.131 1.832,-0.813 1.872,-1.944c0.018,-0.522 0.014,-1.05 -0.042,-1.569c-0.239,-2.204 -0.537,-4.402 -0.745,-6.608c-0.163,-1.737 -0.218,-3.482 -0.339,-5.223c-0.027,-0.38 -0.129,-0.754 -0.205,-1.172c-0.307,0.045 -0.531,0.05 -0.734,0.113c-1.517,0.469 -3.027,0.642 -4.634,0.354c-1.017,-0.182 -2.105,-0.392 -3.32,0.028c0.773,1.482 1.49,2.928 2.28,4.335c0.325,0.578 0.326,0.959 -0.126,1.183c-1.375,-0.338 -2.594,-0.592 -3.783,-0.94c-2.097,-0.613 -4.211,-1.193 -6.249,-1.96c-1.416,-0.534 -2.687,-1.416 -4.075,-2.032c-1.127,-0.5 -2.331,-0.835 -3.672,-1.303m-7.467,-22.778c0.729,0.066 1.212,0.121 1.696,0.151c2.02,0.126 4.039,0.248 6.06,0.362c0.788,0.045 1.314,0.37 1.497,1.148l-2.16,0c-1.129,2.425 -3.194,17.339 -2.744,19.968c0.325,0.045 0.672,0.114 1.023,0.138c2.727,0.188 5.288,0.834 7.683,2.194c2.45,1.392 5.112,2.359 7.864,3.051c0.954,0.239 1.917,0.615 3.072,0.363c-3.812,-6.981 -5.221,-14.224 -3.409,-22.005c-0.574,-0.142 -1.071,-0.266 -1.689,-0.418c-2.08,4.153 -4.116,8.219 -6.152,12.285l-0.283,-0.097c0.101,-0.355 0.158,-0.728 0.31,-1.062c1.477,-3.263 2.973,-6.519 4.454,-9.781c0.15,-0.328 0.24,-0.681 0.357,-1.023c-1.101,0.335 -1.374,1.34 -2.051,1.985c-0.703,0.671 -1.25,1.494 -1.957,2.159c-0.706,0.664 -1.477,1.29 -2.309,1.795c-0.778,0.472 -1.478,1.179 -2.801,1.263c1.269,-1.515 3.024,-2.011 4.143,-3.24c1.15,-1.262 2.284,-2.537 3.494,-3.885c-0.757,-0.195 -1.322,-0.334 -1.882,-0.489c-1.649,-0.455 -2.928,-1.25 -3.323,-3.04c-0.172,-0.778 -0.432,-1.496 -0.05,-2.279c0.107,-0.22 0.113,-0.521 0.071,-0.77c-0.219,-1.314 0.267,-2.374 1.166,-3.321c0.197,-0.208 0.295,-0.51 0.42,-0.777c0.208,-0.446 0.402,-0.898 0.646,-1.448c-0.112,-0.094 -0.327,-0.313 -0.578,-0.48c-1.15,-0.763 -2.334,-1.481 -3.46,-2.276c-1.082,-0.763 -2.151,-1.558 -2.752,-2.838c-0.538,0.08 -1.032,0.114 -1.503,0.233c-1.139,0.288 -2.268,0.498 -3.463,0.357c-0.495,-0.059 -1.019,0.114 -1.772,0.214c0.468,0.408 0.731,0.629 0.985,0.86c0.889,0.809 1.422,1.777 1.419,2.986c-0.002,0.743 0,1.486 0.02,2.229c0.056,1.989 -0.485,3.781 -2.042,5.488m19.433,-44.282c-0.198,0.839 -0.358,1.74 -0.625,2.61c-0.658,2.143 -1.698,4.125 -2.884,6.032c-0.507,0.817 -1.048,1.629 -1.681,2.356c-0.927,1.065 -2.171,1.929 -2.871,3.107c-0.698,1.174 -0.891,2.63 -1.307,3.962c-0.013,0.042 -0.04,0.078 -0.058,0.118c-0.199,0.45 -0.085,1.102 -0.829,1.201c-0.719,0.095 -0.702,-0.544 -0.966,-0.903c-1.426,-1.947 -4.178,-1.839 -5.211,0.439c-0.6,1.325 -0.221,2.529 0.637,3.64c0.752,0.973 1.88,1.311 2.988,1.679c1.347,0.449 2.39,0.148 3.35,-0.9c0.219,-0.239 0.517,-0.409 0.805,-0.632c0.195,0.466 0.263,0.886 0.505,1.165c1.183,1.366 2.286,2.812 3.822,3.856c1.212,0.824 2.385,1.704 3.619,2.498c1.047,0.674 2.085,1.47 3.252,1.836c1.737,0.544 3.584,0.764 5.388,1.104c0.482,0.09 0.981,0.18 1.467,0.156c2.252,-0.11 4.507,-0.194 6.749,-0.412c2.903,-0.282 5.461,-1.382 7.623,-3.319c1.57,-1.407 2.853,-3.035 4.006,-4.761c0.85,-1.273 1.355,-2.651 1.082,-4.21c-0.113,-0.642 -0.174,-1.293 -0.282,-1.935c-0.273,-1.627 -0.505,-3.263 -0.854,-4.874c-0.386,-1.781 -0.979,-3.523 -1.302,-5.312c-0.219,-1.216 -0.77,-2.226 -1.499,-3.156c-1.059,-1.35 -2.181,-2.592 -3.935,-3.258c-1.352,-0.513 -2.671,-0.914 -4.111,-1.121c-1.905,-0.273 -3.774,-0.774 -5.657,-1.186c-0.523,-0.114 -1.045,-0.238 -1.556,-0.395c-1.039,-0.318 -2.069,-0.662 -3.3,-1.058c0.425,0.584 0.724,0.967 0.992,1.37c0.472,0.708 0.799,1.462 0.735,2.333c-0.113,1.551 -1.163,2.158 -2.51,1.373c-1.883,-1.097 -3.722,-2.265 -5.582,-3.403m29.594,10.361c-1.35,-0.464 -1.4,-0.746 -0.464,-1.862c0.365,-0.436 0.678,-0.927 0.93,-1.432c0.375,-0.751 0.199,-1.417 -0.395,-1.822c-0.755,-0.515 -0.769,-0.921 -0.03,-1.473c0.427,-0.32 0.879,-0.611 1.315,-0.921c1.229,-0.876 1.788,-2.177 2.197,-3.51c0.322,-1.05 -0.258,-1.676 -1.383,-1.731c-0.269,-0.014 -0.549,0.064 -0.81,0.021c-0.616,-0.102 -1.286,-0.137 -1.823,-0.406c-1.035,-0.519 -2.042,-1.118 -2.974,-1.797c-1.991,-1.45 -3.604,-3.282 -5.195,-5.118c-2.029,-2.342 -4.395,-4.255 -7.385,-5.289c-2.829,-0.98 -5.777,-1.574 -8.729,-2.103c-1.229,-0.221 -2.512,-0.152 -3.75,-0.344c-2.084,-0.322 -4.136,-0.125 -6.16,0.293c-2.638,0.545 -4.885,1.928 -7.052,3.412c-0.931,0.638 -1.706,1.424 -1.521,2.689c0.008,0.05 -0.112,0.117 -0.208,0.21c-0.698,-0.025 -1.01,-0.337 -0.915,-1.072c0.12,-0.932 0.044,-1.856 -0.228,-2.846c-1.716,1.045 -2.923,2.202 -2.724,4.266c0.097,1.005 -0.244,1.259 -1.393,1.226c-1.907,-0.055 -3.219,0.841 -4.237,2.279c0.58,0.656 0.578,0.667 1.254,0.585c0.882,-0.108 1.752,-0.119 2.505,0.276c-0.593,0.807 -1.264,1.516 -1.695,2.343c-2.073,3.98 -2.254,8.19 -1.393,12.481c0.407,2.021 1.329,3.879 2.369,5.655c0.787,1.341 1.681,2.641 2.923,3.782c0.851,-1.109 1.877,-1.869 3.231,-2.017c1.41,-0.153 2.548,0.616 3.684,1.272c0.623,-0.943 1.037,-2.042 1.084,-3.097c0.032,-0.705 0.226,-1.31 0.867,-1.672c1.644,-0.927 2.79,-2.352 3.762,-3.838c1.127,-1.72 2.096,-3.566 2.882,-5.456c0.606,-1.459 1.149,-3.033 0.533,-4.682c-0.187,-0.5 0.056,-0.876 0.477,-1.173c2.727,2.88 5.801,4.891 7.577,4.971c0.514,-0.507 0.558,-1.041 0.142,-1.64c-0.8,-1.155 -1.553,-2.343 -2.383,-3.477c-0.269,-0.367 -0.452,-0.724 -0.162,-1.053c0.326,-0.37 0.694,-0.114 1.076,0.093c1.015,0.551 2.032,1.135 3.117,1.528c2.874,1.042 5.889,1.568 8.913,1.983c2.008,0.275 3.838,0.978 5.539,1.955c1.704,0.979 2.836,2.569 3.636,4.264c0.626,1.325 0.841,2.83 1.259,4.249c0.297,1.011 0.357,2.097 0.955,3.139c0.803,-1.017 0.981,-2.038 0.782,-3.141m-50.744,-15.932c-0.776,0.178 -1.421,0.326 -2.093,0.479c-0.752,-0.435 -0.912,-1.227 -1.215,-1.925c0.569,-1.075 1.394,-1.921 2.447,-2.419c1.023,-0.483 2.18,-0.702 3.425,-1.081c-0.231,-1.37 0.303,-2.584 1.364,-3.565c0.833,-0.77 1.741,-1.458 3.008,-1.954c0.135,0.966 0.245,1.756 0.376,2.7c1.5,-1.611 3.392,-2.487 5.223,-3.456c3.173,-1.681 6.574,-1.844 10.098,-1.597c2.703,0.188 5.322,0.78 7.966,1.23c2.611,0.444 5.217,1.142 7.436,2.606c1.587,1.048 3.065,2.299 4.404,3.636c1.846,1.842 3.422,3.935 5.572,5.492c1.415,1.026 2.814,1.981 4.733,1.937c1.17,-0.026 2.263,0.381 2.566,1.688c0.103,0.445 0.13,0.949 0.023,1.388c-0.359,1.481 -1.137,2.74 -2.339,3.74c-0.34,0.283 -0.669,0.577 -1.051,0.907c0.092,0.212 0.142,0.422 0.259,0.588c0.45,0.639 0.502,1.318 0.164,1.991c-0.673,1.339 -0.915,2.675 -0.711,4.203c0.168,1.261 -0.205,2.554 -1.322,3.519c-0.233,0.201 -0.177,0.802 -0.131,1.204c0.212,1.816 0.446,3.629 0.717,5.437c0.229,1.534 -0.424,2.861 -1.175,4.071c-0.851,1.37 -1.932,2.617 -3.003,3.843c-1.597,1.83 -3.631,3.112 -5.924,3.972c-0.917,0.343 -1.902,0.614 -2.876,0.697c-2.822,0.24 -5.652,0.415 -8.483,0.509c-0.877,0.03 -1.765,-0.286 -2.649,-0.436c-0.218,-0.037 -0.441,-0.045 -0.722,-0.072c-0.138,0.273 -0.27,0.532 -0.397,0.784c0.127,0.081 0.197,0.163 0.269,0.166c0.584,0.024 1.17,0.064 1.753,0.041c2.753,-0.109 4.804,1.086 6.169,3.301c1.007,1.635 1.948,3.338 2.646,5.112c1.084,2.756 1.958,5.59 2.867,8.408c0.224,0.693 0.346,1.453 0.319,2.176c-0.04,1.056 -0.644,1.884 -1.593,2.503c0.896,1.709 2.253,2.994 3.708,4.151c2.121,1.684 4.338,3.253 6.511,4.876c0.891,0.665 1.793,1.318 2.657,2.016c1.1,0.886 2.082,1.935 3.663,2.118c-1.218,2.21 -3.193,2.824 -5.385,2.921c-3.253,0.143 -6.476,-0.116 -9.636,-0.942c-1.511,-0.395 -3.032,-0.754 -4.557,-1.131c0.126,2.714 0.204,5.485 0.405,8.247c0.112,1.558 0.421,3.104 0.655,4.653c0.117,0.769 0.078,0.754 -0.761,0.911c-0.685,0.129 -1.336,0.43 -2.152,0.706c-0.277,1.486 -0.673,2.965 -0.8,4.465c-0.12,1.418 -0.099,2.899 1.018,4.057c0.261,0.271 0.597,0.571 0.948,0.65c4.07,0.918 6.617,3.526 8.364,7.012c0.72,1.437 0.999,2.989 0.802,4.574c-0.057,0.464 -0.358,1.049 -0.743,1.301c-1.576,1.032 -3.283,1.662 -5.268,1.662c-2.964,0 -5.882,-0.323 -8.764,-0.806c-0.399,0.595 -0.808,1.118 -1.122,1.689c-0.977,1.773 -2.644,2.302 -4.551,2.615c-3.17,0.52 -6.178,-0.23 -9.204,-0.888c-1.667,-0.362 -3.333,-0.761 -4.824,-1.627c-0.502,-0.291 -1.006,-0.58 -1.5,-0.883c-1.596,-0.975 -3.199,-1.942 -4.779,-2.941c-0.792,-0.501 -1.554,-1.049 -2.304,-1.608c-0.807,-0.602 -1.321,-1.375 -1.579,-2.361c-0.478,-1.824 0.085,-3.154 1.861,-3.958c0.649,-0.294 1.369,-0.44 2.023,-0.723c0.343,-0.147 0.698,-0.392 0.905,-0.686c1.033,-1.471 2.06,-2.951 3.012,-4.472c1.094,-1.744 2.179,-3.506 2.709,-5.509c0.143,-0.538 0.152,-1.107 0.228,-1.708c-0.974,-0.419 -1.903,-0.748 -2.757,-1.207c-1.015,-0.547 -2.009,-1.151 -2.93,-1.835c-0.784,-0.582 -0.888,-1.095 -0.422,-1.961c1.507,-2.796 2.118,-5.904 3.34,-8.797c0.508,-1.202 1.016,-2.404 1.604,-3.797c-0.939,0 -1.782,-0.027 -2.623,0.007c-1.002,0.039 -1.172,-0.104 -1.133,-1.103c0.007,-0.174 -0.01,-0.361 0.048,-0.52c0.412,-1.126 0.484,-2.29 0.515,-3.474c0.039,-1.525 0.066,-3.061 0.279,-4.568c0.291,-2.065 0.691,-4.12 1.161,-6.154c0.413,-1.79 0.655,-3.584 0.748,-5.542c-1.558,-0.11 -3.026,-0.275 -4.497,-0.302c-2.837,-0.054 -3.108,-0.229 -3.702,-2.87c-0.132,-0.59 -0.256,-1.183 -0.407,-1.881c-1.681,0.136 -3.363,0.273 -5.094,0.413c-0.177,1.226 -0.893,2.197 -0.987,3.424c-0.072,0.932 -0.73,1.774 -1.833,2.044c-1.674,0.411 -2.091,-0.009 -2.558,-1.13c-0.335,-0.805 -0.717,-1.605 -1.197,-2.334c-0.763,-1.155 -1.307,-1.203 -2.382,-0.348c-0.486,0.387 -0.943,0.809 -1.439,1.182c-0.35,0.263 -0.722,0.524 -1.125,0.694c-1.194,0.504 -1.971,0.34 -2.876,-0.537c-2.163,0.606 -2.683,0.632 -2.957,-2.027c-1.254,-0.089 -2.261,-0.529 -2.514,-1.998c0.33,-0.428 0.702,-0.912 1.111,-1.443c-0.129,-0.175 -0.273,-0.335 -0.374,-0.517c-0.474,-0.846 -0.367,-1.555 0.337,-2.255c0.852,-0.848 1.956,-1.239 3.099,-1.517c2.103,-0.51 4.262,-0.625 6.409,-0.857c2.304,-0.249 4.579,-0.181 6.873,-0.013c0.705,0.052 1.428,-0.152 2.145,-0.206c1.839,-0.136 3.68,-0.253 5.659,-0.387c0.213,-0.435 0.64,-0.786 1.357,-0.812c0.529,-0.019 1.045,-0.247 1.576,-0.33c0.395,-0.061 0.838,-0.147 1.2,-0.038c1.726,0.52 3.257,-0.359 4.878,-0.567c0.084,-0.011 0.191,-0.046 0.238,-0.106c1.39,-1.76 3.43,-2.763 5.14,-4.15c0.065,-0.053 0.097,-0.144 0.188,-0.286c-0.163,-0.813 -0.825,-1.343 -1.348,-1.919c-0.858,0.275 -1.639,0.661 -2.457,0.763c-2.854,0.357 -6.691,-1.793 -6.611,-5.535c0.008,-0.355 -0.121,-0.803 -0.359,-1.058c-1.791,-1.929 -3.188,-4.083 -4.223,-6.475c-1.46,-3.372 -1.838,-6.841 -1.456,-10.479c0.28,-2.665 1.205,-5.029 2.696,-7.396" style="fill:#231f20;fill-rule:nonzero;"/><path d="M110.835,43.312c0.199,1.103 0.021,2.124 -0.783,3.141c-0.598,-1.042 -0.657,-2.128 -0.955,-3.139c-0.418,-1.419 -0.632,-2.924 -1.258,-4.249c-0.801,-1.695 -1.932,-3.285 -3.637,-4.264c-1.7,-0.977 -3.531,-1.68 -5.538,-1.955c-3.025,-0.415 -6.04,-0.941 -8.913,-1.983c-1.085,-0.393 -2.102,-0.977 -3.118,-1.528c-0.381,-0.207 -0.75,-0.463 -1.076,-0.093c-0.289,0.329 -0.107,0.686 0.162,1.053c0.831,1.134 1.583,2.322 2.384,3.477c0.415,0.599 0.372,1.133 -0.142,1.64c-1.777,-0.08 -4.851,-2.091 -7.578,-4.971c-0.421,0.297 -0.663,0.673 -0.476,1.173c0.616,1.649 0.073,3.223 -0.534,4.682c-0.786,1.89 -1.755,3.736 -2.881,5.456c-0.973,1.486 -2.119,2.911 -3.762,3.838c-0.642,0.362 -0.835,0.967 -0.867,1.672c-0.047,1.055 -0.461,2.154 -1.085,3.097c-1.135,-0.656 -2.274,-1.425 -3.684,-1.272c-1.353,0.148 -2.38,0.908 -3.231,2.017c-1.242,-1.141 -2.136,-2.441 -2.922,-3.782c-1.04,-1.776 -1.963,-3.634 -2.369,-5.656c-0.862,-4.29 -0.68,-8.5 1.393,-12.48c0.431,-0.827 1.102,-1.536 1.694,-2.343c-0.752,-0.395 -1.623,-0.384 -2.505,-0.276c-0.675,0.082 -0.673,0.071 -1.254,-0.585c1.019,-1.438 2.331,-2.334 4.238,-2.279c1.149,0.033 1.49,-0.221 1.393,-1.226c-0.199,-2.064 1.007,-3.221 2.723,-4.266c0.273,0.99 0.349,1.914 0.228,2.846c-0.094,0.734 0.218,1.047 0.915,1.072c0.096,-0.093 0.216,-0.16 0.209,-0.21c-0.185,-1.265 0.589,-2.051 1.521,-2.689c2.167,-1.484 4.414,-2.867 7.052,-3.412c2.023,-0.418 4.075,-0.615 6.159,-0.293c1.238,0.192 2.521,0.123 3.751,0.344c2.951,0.529 5.9,1.123 8.729,2.103c2.989,1.034 5.355,2.947 7.385,5.289c1.59,1.836 3.203,3.668 5.194,5.118c0.932,0.679 1.939,1.278 2.975,1.797c0.537,0.269 1.206,0.304 1.823,0.406c0.261,0.043 0.54,-0.035 0.809,-0.021c1.126,0.055 1.706,0.681 1.383,1.731c-0.408,1.332 -0.967,2.634 -2.197,3.51c-0.436,0.31 -0.887,0.601 -1.315,0.921c-0.738,0.552 -0.725,0.958 0.03,1.473c0.594,0.405 0.771,1.071 0.396,1.822c-0.252,0.505 -0.566,0.996 -0.93,1.432c-0.937,1.116 -0.887,1.398 0.464,1.862" style="fill:#c48e53;fill-rule:nonzero;"/><path d="M85.039,40.214c0.596,-0.931 1.16,-1.814 1.722,-2.691c-0.382,-0.368 -0.732,-0.236 -0.933,0.084c-0.485,0.773 -1.329,1.461 -0.789,2.607m15.725,-2.841c-0.595,-1.258 -1.631,-1.712 -2.788,-1.968c-0.169,-0.038 -0.403,0.197 -0.607,0.306c0.134,0.198 0.224,0.501 0.412,0.577c0.924,0.374 1.873,0.689 2.983,1.085m-31.177,17.659c0.836,-0.461 0.795,-1.01 0.447,-1.499c-0.413,-0.579 -0.753,-1.36 -1.699,-1.259c-0.971,0.103 -1.568,0.838 -1.768,2.114c0.975,0.169 0.796,-1.132 1.95,-1.118c0.633,0.07 0.773,0.9 1.07,1.762m19.81,-8.314c0.696,-1.049 0.581,-3.112 -0.177,-3.836c-0.335,-0.32 -0.72,-0.208 -0.923,0.11c-0.474,0.744 -0.467,1.532 -0.218,2.387c0.201,0.694 0.438,1.222 1.318,1.339m12.37,-1.016c0.804,-0.261 0.97,-0.914 0.782,-1.566c-0.215,-0.738 -0.566,-1.461 -0.983,-2.115c-0.418,-0.655 -0.922,-0.565 -1.274,0.133c-0.661,1.313 -0.084,2.711 1.475,3.548m-6.677,2.446c0.451,-0.239 0.841,-0.444 1.23,-0.65c0.805,-0.428 1.61,-0.465 2.435,-0.035c0.78,0.406 1.383,1.37 1.226,2.005c-0.207,0.838 -1.141,1.454 -2.173,1.411c-0.263,-0.012 -0.522,-0.098 -0.786,-0.139c-0.384,-0.06 -0.769,-0.109 -1.219,-0.172c0.049,1.11 0.907,1.072 1.534,1.235c2.019,0.527 3.993,-1.159 3.594,-3.123c-0.111,-0.544 -0.561,-1.069 -0.97,-1.502c-1.25,-1.325 -3.312,-1.368 -4.675,-0.153c-0.308,0.274 -0.615,0.545 -0.196,1.123m-9.823,4.689c0.664,0.862 0.937,1.815 1.309,2.731c0.728,1.791 1.925,3.334 3.642,4.227c2.869,1.493 5.939,1.548 8.982,0.382c0.568,-0.217 1.097,-0.59 1.561,-0.984c0.36,-0.305 0.66,-0.739 0.29,-1.34c-0.245,0.208 -0.458,0.421 -0.703,0.589c-0.472,0.324 -0.922,0.758 -1.453,0.907c-1.851,0.518 -3.716,0.99 -5.683,0.483c-2.063,-0.531 -3.904,-1.37 -4.975,-3.263c-0.687,-1.214 -1.266,-2.487 -1.853,-3.751c-0.092,-0.197 0.056,-0.488 0.052,-0.735c-0.003,-0.27 -0.053,-0.54 -0.083,-0.809c-0.283,0.08 -0.615,0.096 -0.838,0.254c-0.541,0.385 -1.06,0.81 -1.525,1.278c-0.133,0.135 -0.049,0.471 -0.078,0.938c0.59,-0.395 0.946,-0.634 1.355,-0.907m-4.026,-19.886c1.86,1.138 3.699,2.306 5.582,3.404c1.347,0.784 2.397,0.177 2.51,-1.373c0.063,-0.872 -0.263,-1.626 -0.735,-2.334c-0.268,-0.403 -0.567,-0.786 -0.992,-1.37c1.231,0.396 2.261,0.74 3.3,1.058c0.51,0.157 1.033,0.281 1.556,0.396c1.883,0.411 3.752,0.912 5.657,1.185c1.44,0.207 2.759,0.609 4.11,1.121c1.755,0.666 2.877,1.908 3.935,3.259c0.729,0.929 1.281,1.939 1.5,3.155c0.323,1.789 0.916,3.531 1.302,5.312c0.349,1.612 0.581,3.247 0.854,4.874c0.108,0.642 0.169,1.293 0.282,1.935c0.273,1.559 -0.232,2.937 -1.083,4.21c-1.152,1.726 -2.435,3.354 -4.005,4.761c-2.162,1.937 -4.72,3.037 -7.623,3.319c-2.242,0.218 -4.498,0.302 -6.749,0.412c-0.486,0.024 -0.985,-0.065 -1.467,-0.156c-1.804,-0.34 -3.651,-0.56 -5.388,-1.104c-1.167,-0.366 -2.206,-1.162 -3.252,-1.836c-1.234,-0.794 -2.407,-1.674 -3.62,-2.498c-1.535,-1.044 -2.638,-2.489 -3.821,-3.856c-0.242,-0.279 -0.31,-0.699 -0.505,-1.165c-0.288,0.223 -0.586,0.393 -0.805,0.632c-0.96,1.048 -2.003,1.349 -3.35,0.901c-1.108,-0.369 -2.236,-0.707 -2.988,-1.68c-0.858,-1.111 -1.237,-2.315 -0.637,-3.64c1.033,-2.278 3.785,-2.386 5.211,-0.439c0.264,0.359 0.247,0.998 0.966,0.903c0.744,-0.099 0.63,-0.75 0.829,-1.201c0.017,-0.04 0.045,-0.076 0.057,-0.118c0.417,-1.332 0.61,-2.787 1.308,-3.962c0.7,-1.178 1.944,-2.042 2.871,-3.107c0.633,-0.727 1.174,-1.539 1.681,-2.356c1.186,-1.907 2.226,-3.889 2.884,-6.032c0.267,-0.87 0.427,-1.771 0.625,-2.61" style="fill:#fdd8bd;fill-rule:nonzero;"/><path d="M61.808,77.233c1.558,-1.707 2.098,-3.499 2.042,-5.488c-0.02,-0.743 -0.021,-1.486 -0.02,-2.229c0.003,-1.209 -0.53,-2.177 -1.418,-2.986c-0.254,-0.231 -0.518,-0.452 -0.985,-0.86c0.752,-0.1 1.276,-0.272 1.771,-0.214c1.195,0.141 2.325,-0.069 3.464,-0.357c0.47,-0.119 0.964,-0.153 1.502,-0.233c0.602,1.28 1.67,2.075 2.752,2.838c1.126,0.795 2.31,1.513 3.46,2.277c0.252,0.167 0.466,0.385 0.578,0.479c-0.244,0.55 -0.438,1.002 -0.646,1.448c-0.125,0.267 -0.222,0.569 -0.42,0.777c-0.899,0.947 -1.385,2.007 -1.165,3.321c0.042,0.249 0.036,0.55 -0.072,0.77c-0.382,0.783 -0.121,1.501 0.05,2.279c0.396,1.79 1.674,2.585 3.324,3.04c0.56,0.155 1.125,0.294 1.881,0.49c-1.21,1.347 -2.344,2.622 -3.494,3.884c-1.119,1.229 -2.874,1.725 -4.143,3.241c1.323,-0.084 2.023,-0.791 2.802,-1.264c0.831,-0.505 1.603,-1.13 2.309,-1.795c0.706,-0.665 1.254,-1.488 1.956,-2.159c0.678,-0.645 0.951,-1.65 2.052,-1.985c-0.118,0.342 -0.208,0.695 -0.357,1.023c-1.482,3.262 -2.978,6.518 -4.455,9.781c-0.151,0.334 -0.208,0.707 -0.31,1.062l0.283,0.097c2.036,-4.066 4.072,-8.132 6.153,-12.285c0.617,0.152 1.115,0.276 1.688,0.418c-1.812,7.781 -0.402,15.025 3.409,22.005c-1.155,0.252 -2.117,-0.124 -3.072,-0.363c-2.752,-0.692 -5.414,-1.659 -7.863,-3.051c-2.395,-1.36 -4.956,-2.006 -7.684,-2.193c-0.351,-0.025 -0.698,-0.094 -1.023,-0.139c-0.45,-2.629 1.615,-17.543 2.745,-19.968l2.159,0c-0.182,-0.778 -0.709,-1.103 -1.497,-1.148c-2.02,-0.114 -4.04,-0.236 -6.059,-0.362c-0.485,-0.03 -0.968,-0.085 -1.697,-0.151" style="fill:#fff;fill-rule:nonzero;"/><path d="M69.275,100.011c1.34,0.468 2.544,0.804 3.671,1.303c1.389,0.616 2.66,1.498 4.076,2.032c2.037,0.767 4.152,1.347 6.248,1.96c1.19,0.348 2.408,0.602 3.784,0.94c0.451,-0.224 0.45,-0.605 0.126,-1.182c-0.791,-1.407 -1.507,-2.854 -2.28,-4.336c1.214,-0.42 2.303,-0.21 3.32,-0.028c1.606,0.289 3.117,0.116 4.633,-0.354c0.204,-0.063 0.427,-0.067 0.735,-0.113c0.075,0.418 0.178,0.793 0.205,1.172c0.121,1.741 0.175,3.486 0.339,5.223c0.207,2.206 0.505,4.404 0.745,6.608c0.056,0.519 0.06,1.047 0.042,1.569c-0.04,1.131 -0.713,1.813 -1.872,1.944c-1.473,0.165 -2.947,0.325 -4.418,0.504c-1.594,0.194 -4.514,-0.536 -5.781,-1.479c0.067,-0.278 0.133,-0.574 0.208,-0.867c0.366,-1.432 0.772,-2.855 1.088,-4.297c0.166,-0.758 0.606,-1.166 1.337,-1.273c0.802,-0.118 1.559,-0.225 2.227,-0.78c0.343,-0.285 0.932,-0.281 1.396,-0.447c0.265,-0.095 0.501,-0.267 0.69,-0.589c-0.183,0 -0.375,-0.038 -0.545,0.005c-2.561,0.655 -5.122,1.313 -7.676,1.995c-0.209,0.056 -0.517,0.286 -0.521,0.441c-0.01,0.383 0.308,0.487 0.671,0.399c0.552,-0.134 1.104,-0.277 1.86,-0.467c-0.492,1.771 -0.955,3.385 -1.384,5.007c-0.222,0.837 -0.404,1.686 -0.566,2.536c-0.1,0.528 -0.348,0.771 -0.911,0.96c-1.243,0.418 -2.409,0.036 -3.605,-0.097c-0.804,-0.09 -1.614,-0.147 -2.407,-0.291c-2.981,-0.538 -5.801,-1.522 -8.415,-3.011c-0.683,-0.39 -1.262,-0.952 -1.881,-1.43c1.63,-4.546 3.215,-8.967 4.861,-13.557" style="fill:#3f71a5;fill-rule:nonzero;"/><path d="M95.807,82.301c-0.406,-0.301 -0.789,-0.639 -1.223,-0.896c-0.994,-0.589 -2.291,-0.933 -2.949,-1.761c-0.722,-0.909 -0.875,-2.246 -1.258,-3.402c-0.205,-0.621 -0.36,-1.257 -0.563,-1.878c-0.044,-0.136 -0.198,-0.238 -0.425,-0.497c-0.234,1.061 0.152,1.838 0.4,2.631c0.246,0.783 0.505,1.562 0.813,2.51c-0.388,-0.119 -0.688,-0.146 -0.908,-0.29c-1.268,-0.824 -2.53,-1.66 -3.762,-2.532c-0.275,-0.194 -0.479,-0.529 -0.625,-0.839c-0.517,-1.107 -1.053,-2.211 -1.473,-3.354c-0.533,-1.449 -1.816,-2.123 -3.023,-2.85c-0.395,-0.238 -0.658,-0.436 -0.871,-0.846c-0.684,-1.319 -1.436,-2.606 -2.184,-3.894c-0.5,-0.862 -1.038,-1.705 -1.559,-2.555c0.068,-0.059 0.136,-0.118 0.204,-0.177c1.653,1.04 3.276,2.128 4.968,3.106c1.141,0.659 2.378,1.164 3.676,1.788c-0.044,0.75 -0.553,1.446 -1.054,2.161c-0.337,0.48 -0.777,1 -0.177,1.677c0.77,-0.23 0.814,-1.003 1.345,-1.574c1.527,-0.21 3.183,-0.174 4.792,0.185c1.747,0.39 2.863,1.666 3.649,3.111c1.462,2.689 2.893,5.404 3.698,8.37c0.433,1.596 0.901,3.182 1.306,4.784c0.116,0.457 0.111,0.955 0.084,1.429c-0.048,0.824 -0.552,1.383 -1.312,1.678c-1.114,0.433 -2.306,0.468 -3.454,0.259c-0.484,-0.088 -0.886,-0.599 -1.37,-0.95c-0.474,-0.167 -1.093,-0.276 -1.584,-0.579c-0.946,-0.585 -1.799,-1.307 -2.727,-1.921c-1.448,-0.958 -3.059,-1.73 -4.357,-2.847c-1.485,-1.277 -3.191,-1.125 -4.813,-0.972c-1.13,0.107 -2.126,-0.023 -3.142,-0.324c-1.428,-0.422 -2.141,-1.513 -2.549,-2.813c-0.085,-0.271 -0.086,-0.658 0.054,-0.887c0.423,-0.69 0.485,-1.329 0.214,-2.108c-0.282,-0.809 0.296,-1.423 0.894,-1.902c0.488,-0.39 1.044,-0.664 0.995,-1.421c-0.01,-0.155 0.337,-0.454 0.545,-0.479c0.874,-0.102 1.771,-0.239 2.632,-0.139c0.626,0.072 0.892,-0.039 1.127,-0.572c0.304,-0.692 0.454,-0.718 1.054,-0.32c1.015,0.673 1.871,1.4 2.175,2.693c0.235,0.997 0.817,1.93 1.33,2.847c0.249,0.444 0.629,0.879 1.06,1.156c1.76,1.132 3.561,2.202 5.349,3.293c0.609,0.371 1.209,0.76 1.837,1.097c0.786,0.422 1.588,0.814 2.402,1.181c0.161,0.073 0.405,-0.025 0.611,-0.045c0.049,-0.11 0.099,-0.221 0.148,-0.332" style="fill:#fdd8bd;fill-rule:nonzero;"/><path d="M62.794,130.987c-0.386,1.824 -0.044,3.291 1.22,4.487c0.285,0.271 0.597,0.525 0.934,0.731c0.608,0.373 1.27,0.666 1.861,1.061c1.265,0.846 2.642,1.187 4.279,0.989c0.198,-0.844 0.328,-1.752 0.625,-2.604c0.877,-2.519 2.216,-4.757 4.439,-6.413c1.315,-0.235 2.599,-1.082 3.969,-0.137c1.129,0.779 2.29,1.513 3.423,2.286c0.215,0.147 0.413,0.359 0.537,0.584c1.136,2.064 2.409,4.076 3.338,6.226c1.001,2.322 -0.395,4.837 -2.901,5.529c-1.023,0.282 -2.127,0.399 -3.194,0.397c-1.253,-0.002 -2.514,-0.162 -3.757,-0.347c-2.398,-0.358 -4.775,-0.853 -7.01,-1.788c-0.978,-0.409 -1.859,-1.039 -2.775,-1.582c-1.148,-0.68 -2.314,-1.336 -3.422,-2.072c-1.257,-0.835 -2.636,-1.593 -3.643,-2.665c-1.437,-1.528 -1.374,-3.579 1.119,-4.409c0.252,-0.084 0.511,-0.146 0.958,-0.273" style="fill:#6abfeb;fill-rule:nonzero;"/><path d="M62.77,72.351c-0.036,0.022 -0.074,0.067 -0.109,0.064c-2.662,-0.166 -5.272,0.42 -7.916,0.522c-0.655,0.025 -1.251,0.074 -1.576,-0.662c-0.072,-0.163 -0.547,-0.346 -0.637,-0.277c-0.21,0.161 -0.36,0.458 -0.414,0.723c-0.036,0.182 0.101,0.417 0.208,0.602c0.441,0.763 0.362,1.461 -0.086,2.222c-0.324,0.549 -0.516,1.194 -0.644,1.819c-0.106,0.522 -0.301,0.936 -0.813,1.089c-0.549,0.164 -0.976,-0.157 -1.255,-0.571c-0.241,-0.358 -0.462,-0.77 -0.534,-1.183c-0.2,-1.14 -0.981,-1.82 -1.866,-2.456c-0.671,-0.484 -1.329,-0.491 -1.973,0.004c-0.562,0.432 -1.154,0.851 -1.627,1.366c-0.726,0.792 -1.585,1.072 -2.727,0.949c-0.077,-2.421 2.107,-3.28 3.393,-4.683c-0.146,-0.517 -0.445,-0.551 -0.839,-0.37c-1.311,0.605 -3.204,2.941 -3.585,4.465c-0.307,0.093 -0.638,0.22 -0.982,0.293c-0.81,0.169 -1.362,-0.264 -1.233,-1.052c0.073,-0.449 0.295,-0.927 0.592,-1.281c0.769,-0.916 1.63,-1.751 2.809,-2.194c0.454,-0.171 0.98,-0.304 0.85,-0.972c-0.384,-0.29 -0.776,-0.241 -1.116,0.025c-1.045,0.818 -2.149,1.586 -3.087,2.51c-1.05,1.035 -1.245,1.114 -2.498,0.078c0.205,-1.198 1.359,-1.656 2.136,-2.38c0.765,-0.713 1.908,-0.962 2.943,-1.61c-0.815,-0.532 -1.311,-0.397 -1.793,-0.119c-0.656,0.379 -1.303,0.772 -1.957,1.155c-0.301,0.175 -0.304,0.169 -0.993,-0.09c0.127,-0.783 0.564,-1.347 1.333,-1.612c0.972,-0.334 1.951,-0.684 2.956,-0.877c3.28,-0.631 6.619,-0.651 9.943,-0.807c0.089,-0.004 0.185,-0.005 0.269,0.02c1.486,0.446 2.952,0.103 4.407,-0.144c2.251,-0.382 4.499,-0.176 6.732,0.039c0.939,0.091 1.459,0.964 1.784,1.791c0.263,0.671 0.153,2.621 -0.095,3.604" style="fill:#fdd8bd;fill-rule:nonzero;"/><path d="M88.824,139.573c-0.377,-2.478 -1.95,-4.493 -3.071,-6.689c1.136,-2.291 3.01,-3.785 5.315,-4.642c2.774,-1.031 5.203,-0.029 7.31,1.774c1.493,1.279 2.716,2.78 3.596,4.53c0.518,1.032 0.844,2.095 0.794,3.253c-0.032,0.749 -0.311,1.362 -1.033,1.704c-1.239,0.587 -2.429,1.235 -3.916,1.158c-3.002,-0.156 -6.03,-0.048 -8.995,-1.088" style="fill:#6abfeb;fill-rule:nonzero;"/><path d="M112.996,103.024c-1.397,1.176 -2.847,1.319 -4.278,1.363c-2.199,0.068 -4.385,-0.05 -6.575,-0.418c-1.862,-0.312 -3.723,-0.577 -5.522,-1.149c-0.509,-0.161 -0.999,-0.378 -1.623,-0.617c-0.161,-4.237 -1.074,-8.408 -1.906,-12.697c0.719,0.135 1.358,0.254 1.828,0.342c1.338,2.154 2.547,4.238 3.906,6.226c0.582,0.851 1.45,1.53 2.239,2.232c0.265,0.236 0.69,0.301 1.185,0.262c-0.145,-0.159 -0.284,-0.324 -0.436,-0.476c-0.682,-0.684 -1.494,-1.284 -2.027,-2.063c-1.335,-1.951 -2.545,-3.983 -3.806,-5.982c0.684,-0.544 1.126,-0.609 1.596,0.029c2.501,3.393 5.929,5.8 9.34,8.24c2.055,1.47 3.997,3.087 6.079,4.708" style="fill:#fff;fill-rule:nonzero;"/><path d="M85.558,97.179c0.48,-0.735 0.71,-1.376 0.56,-1.884c-0.069,-0.235 -0.314,-0.42 -0.503,-0.658c-0.885,1.133 -0.872,1.996 -0.057,2.542m-0.905,2.392c-2.361,-3.591 -2.521,-13.568 -1.184,-16.363c0.934,0.589 1.873,1.137 2.763,1.749c1.795,1.235 3.537,2.541 5.359,3.737c0.523,0.343 0.719,0.767 0.813,1.265c0.457,2.428 0.889,4.86 1.308,7.293c0.19,1.102 -0.17,1.734 -1.207,2.201c-1.129,0.509 -2.327,0.644 -3.553,0.538c-1.426,-0.123 -2.849,-0.277 -4.299,-0.42" style="fill:#fdd8bd;fill-rule:nonzero;"/><path d="M69.107,132.354c-0.156,-0.112 -0.275,-0.244 -0.425,-0.298c-1.465,-0.53 -1.704,-1.314 -0.76,-2.515c0.26,-0.33 0.675,-0.613 0.4,-1.12c-0.761,0.004 -1.473,0.609 -1.813,1.524c-0.281,0.76 0.04,1.698 0.798,2.324c0.566,0.467 1.067,0.502 1.8,0.085m1.242,5.009c-0.947,0.27 -1.637,-0.058 -2.308,-0.421c-0.822,-0.443 -1.643,-0.891 -2.44,-1.375c-1.296,-0.787 -2.668,-2.711 -1.68,-4.746c0.55,-1.131 1.252,-2.201 1.974,-3.242c0.997,-1.44 2.111,-2.805 2.801,-4.427c0.136,-0.319 0.317,-0.624 0.51,-0.915c0.861,-1.3 1.454,-2.683 1.392,-4.334c1.555,0.372 3.006,0.719 4.557,1.089c-1.316,3.18 -1.691,6.252 0.788,9.156c-3.106,2.337 -4.809,5.496 -5.594,9.215" style="fill:#fdd8bd;fill-rule:nonzero;"/><path d="M85.758,126.533c-0.769,-0.158 -1.054,0.13 -1.14,0.7c-0.144,0.951 0.139,1.757 0.762,2.074c0.432,0.221 0.767,0.143 0.986,-0.428c-1.198,-0.465 -0.506,-1.472 -0.608,-2.346m2.061,-8.171c1.303,-0.116 2.854,-0.254 4.521,-0.402c-0.577,2.923 -1.629,5.843 0.148,8.681c-3.02,1.006 -5.48,2.577 -7.293,5.077c-0.691,-0.677 -1.257,-1.37 -1.962,-1.883c-0.708,-0.515 -0.846,-1.134 -0.617,-1.833c0.216,-0.656 0.556,-1.283 0.917,-1.881c0.658,-1.091 1.434,-2.119 2.047,-3.232c0.754,-1.369 1.391,-2.798 2.239,-4.527" style="fill:#fdd8bd;fill-rule:nonzero;"/><path d="M79.496,68.515c-0.598,1.298 -1.448,1.696 -2.585,1.522c-0.341,-0.052 -0.729,-0.083 -0.999,-0.26c-1.964,-1.29 -3.934,-2.575 -5.838,-3.944c-0.954,-0.686 -0.877,-1.679 0.089,-2.372c1.513,-1.083 3.054,-2.129 4.706,-3.275c0.478,1.614 0.821,3.176 1.832,4.483c0.989,1.28 1.904,2.614 2.795,3.846" style="fill:#fff;fill-rule:nonzero;"/><path d="M59.897,73.292c1.086,0.143 1.901,0.25 2.762,0.364c-0.05,1.09 -0.605,1.848 -1.334,2.492c-0.43,0.38 -0.843,0.245 -0.978,-0.322c-0.178,-0.744 -0.273,-1.507 -0.45,-2.534" style="fill:#fff;fill-rule:nonzero;"/><path d="M85.267,52.837c-0.408,0.273 -0.764,0.512 -1.355,0.907c0.03,-0.467 -0.055,-0.803 0.079,-0.937c0.464,-0.469 0.983,-0.893 1.525,-1.278c0.223,-0.159 0.555,-0.174 0.837,-0.255c0.03,0.27 0.081,0.539 0.084,0.809c0.003,0.247 -0.144,0.538 -0.053,0.735c0.587,1.265 1.167,2.537 1.854,3.752c1.07,1.892 2.911,2.731 4.974,3.263c1.967,0.506 3.832,0.034 5.684,-0.484c0.531,-0.148 0.98,-0.583 1.453,-0.907c0.245,-0.168 0.457,-0.381 0.702,-0.589c0.371,0.602 0.07,1.035 -0.29,1.341c-0.463,0.393 -0.993,0.766 -1.56,0.984c-3.043,1.166 -6.114,1.11 -8.983,-0.383c-1.717,-0.892 -2.914,-2.436 -3.641,-4.226c-0.373,-0.917 -0.646,-1.869 -1.31,-2.732" style="fill:#231f20;fill-rule:nonzero;"/><path d="M95.09,48.148c-0.419,-0.577 -0.111,-0.849 0.196,-1.123c1.363,-1.215 3.425,-1.172 4.676,0.154c0.408,0.433 0.858,0.957 0.969,1.501c0.399,1.965 -1.574,3.65 -3.594,3.124c-0.627,-0.164 -1.484,-0.126 -1.534,-1.236c0.45,0.063 0.835,0.113 1.22,0.172c0.263,0.041 0.522,0.128 0.785,0.139c1.032,0.044 1.966,-0.572 2.173,-1.41c0.157,-0.636 -0.446,-1.599 -1.226,-2.006c-0.825,-0.429 -1.629,-0.393 -2.435,0.035c-0.389,0.206 -0.778,0.411 -1.23,0.65" style="fill:#231f20;fill-rule:nonzero;"/><path d="M101.767,45.702c-1.559,-0.837 -2.136,-2.235 -1.475,-3.548c0.352,-0.699 0.856,-0.788 1.274,-0.134c0.417,0.655 0.768,1.378 0.983,2.116c0.188,0.652 0.022,1.304 -0.782,1.566" style="fill:#231f20;fill-rule:nonzero;"/><path d="M89.397,46.718c-0.881,-0.117 -1.117,-0.645 -1.319,-1.339c-0.248,-0.855 -0.255,-1.642 0.219,-2.387c0.203,-0.318 0.587,-0.43 0.923,-0.11c0.758,0.724 0.873,2.787 0.177,3.836" style="fill:#231f20;fill-rule:nonzero;"/><path d="M69.587,55.032c-0.297,-0.863 -0.437,-1.692 -1.07,-1.763c-1.154,-0.013 -0.974,1.288 -1.95,1.119c0.2,-1.276 0.797,-2.011 1.769,-2.115c0.945,-0.1 1.285,0.681 1.698,1.259c0.348,0.489 0.389,1.039 -0.447,1.5" style="fill:#231f20;fill-rule:nonzero;"/><path d="M100.764,37.373c-1.11,-0.396 -2.06,-0.71 -2.983,-1.085c-0.188,-0.076 -0.278,-0.379 -0.413,-0.577c0.205,-0.109 0.438,-0.343 0.608,-0.306c1.157,0.256 2.193,0.711 2.788,1.968" style="fill:#231f20;fill-rule:nonzero;"/><path d="M85.039,40.214c-0.54,-1.146 0.304,-1.834 0.789,-2.607c0.201,-0.32 0.551,-0.452 0.933,-0.084c-0.562,0.877 -1.126,1.76 -1.722,2.691" style="fill:#231f20;fill-rule:nonzero;"/><path d="M85.558,97.179c-0.815,-0.546 -0.828,-1.409 0.057,-2.542c0.189,0.238 0.434,0.423 0.503,0.658c0.15,0.508 -0.08,1.149 -0.56,1.884" style="fill:#231f20;fill-rule:nonzero;"/><path d="M69.107,132.354c-0.733,0.417 -1.234,0.382 -1.8,-0.085c-0.758,-0.626 -1.079,-1.564 -0.798,-2.324c0.34,-0.915 1.052,-1.52 1.813,-1.524c0.275,0.507 -0.14,0.79 -0.4,1.12c-0.944,1.201 -0.705,1.985 0.76,2.515c0.15,0.054 0.269,0.186 0.425,0.298" style="fill:#231f20;fill-rule:nonzero;"/><path d="M85.758,126.533c0.102,0.874 -0.59,1.881 0.608,2.346c-0.219,0.571 -0.554,0.649 -0.986,0.428c-0.623,-0.317 -0.906,-1.123 -0.762,-2.074c0.086,-0.57 0.371,-0.858 1.14,-0.7" style="fill:#231f20;fill-rule:nonzero;"/><path d="M74.008,27.1c-0.232,-1.704 -0.632,-3.387 -1.192,-5.018c4.497,1.685 9.154,2.967 13.894,3.823c-0.444,-1.025 -0.888,-2.05 -1.332,-3.075c4.969,-1.102 9.822,1.887 14.012,4.697c4.19,2.811 9.128,5.723 14.056,4.461c-5.795,-1.061 -9.622,-6.267 -14.482,-9.502c-3.465,-2.306 -7.533,-3.629 -11.637,-4.519c-3.378,-0.733 -6.882,-1.192 -10.301,-0.66c-3.376,0.524 -6.655,2.111 -8.689,4.832c0.142,-0.047 0.332,-0.189 0.486,-0.246c0.576,1.136 1.055,2.34 1.993,3.3c0.311,0.319 3.19,1.893 3.192,1.907" style="fill:#ddab75;fill-rule:nonzero;"/><path d="M81.211,136.744c0.073,1.076 -0.035,2.192 -0.547,3.149c-0.513,0.957 -1.486,1.728 -2.597,1.808c0.611,0.824 1.82,0.934 2.868,0.894c1.031,-0.039 2.08,-0.153 3.026,-0.555c0.945,-0.402 1.785,-1.128 2.104,-2.078c0.411,-1.219 -0.081,-2.538 -0.626,-3.707c-0.716,-1.537 -1.548,-3.047 -2.727,-4.288c-0.815,-0.859 -5.877,-4.054 -5.348,-1.398c0.103,0.517 2.16,1.748 2.57,2.343c0.769,1.118 1.187,2.5 1.277,3.832" style="fill:#bdd2ed;fill-rule:nonzero;"/><path d="M96.466,133.014c0.688,1.109 1.104,2.536 0.483,3.682c-0.577,1.066 -1.871,1.578 -2.625,2.535c1.313,0.516 2.8,0.164 4.169,-0.194c1.15,-0.301 2.513,-0.82 2.689,-1.961c0.063,-0.405 -0.049,-0.815 -0.178,-1.205c-0.822,-2.461 -2.461,-4.662 -4.616,-6.194c-1.135,-0.807 -4.975,-2.365 -5.217,-0.061c2.261,-0.146 4.176,1.595 5.295,3.398" style="fill:#bdd2ed;fill-rule:nonzero;"/></g></svg>