<?xml version="1.0" encoding="UTF-8" standalone="no"?><!DOCTYPE svg PUBLIC "-//W3C//DTD SVG 1.1//EN" "http://www.w3.org/Graphics/SVG/1.1/DTD/svg11.dtd"><svg width="100%" height="100%" viewBox="0 0 163 161" version="1.1" xmlns="http://www.w3.org/2000/svg" xmlns:xlink="http://www.w3.org/1999/xlink" xml:space="preserve" xmlns:serif="http://www.serif.com/" style="fill-rule:evenodd;clip-rule:evenodd;stroke-miterlimit:10;"><g><rect x="10.418" y="10.199" width="141.488" height="138.977" style="fill:#fdcd9d;stroke:#fff;stroke-width:2px;"/><path d="M109.312,151.531c0.018,-0.033 0.033,-0.093 0.052,-0.094c0.052,-0.003 0.104,0.019 0.156,0.031c-0.018,0.033 -0.033,0.093 -0.052,0.094c-0.052,0.003 -0.104,-0.019 -0.156,-0.031" style="fill:#fff;fill-rule:nonzero;"/><path d="M78.647,29.046c-0.062,-0.597 -0.122,-1.711 -0.319,-2.8c-0.087,-0.478 -0.348,-1.15 -0.714,-1.31c-1.272,-0.554 -2.649,-0.759 -3.958,-0.09c-1.173,0.6 -1.225,1.791 -1.237,2.9c-0.011,1.1 0.147,2.202 0.203,3.304c0.227,4.44 0.439,8.88 0.668,13.32c0.034,0.653 0.118,1.303 0.201,1.952c0.121,0.942 0.614,1.523 1.577,1.76c1.236,0.304 2.64,-0.337 3.069,-1.739c0.317,-1.032 0.391,-2.174 0.38,-3.265c-0.024,-2.223 -0.267,-4.445 -0.253,-6.666c0.014,-2.284 0.228,-4.567 0.383,-7.366m3.937,22.305c-3.302,0.651 -6.306,0.547 -9.306,0.573c-1.301,0.011 -2.601,0.171 -3.902,0.213c-4.555,0.146 -9.11,0.786 -13.798,-0.031c-0.049,-0.415 -0.123,-0.845 -0.145,-1.277c-0.133,-2.54 -0.248,-5.081 -0.381,-7.62c-0.118,-2.266 -0.158,-4.541 -0.416,-6.791c-0.155,-1.345 -0.62,-2.663 -1.026,-3.968c-0.35,-1.125 -1.346,-1.69 -2.37,-1.819c-1.271,-0.161 -2.589,-0.228 -3.852,0.385c-0.932,0.451 -2.013,0.59 -2.955,1.026c-2.249,1.039 -4.467,2.148 -6.675,3.274c-2.036,1.038 -4.022,2.175 -6.071,3.186c-1.04,0.514 -2.176,0.834 -3.258,1.268c-0.483,0.193 -0.971,0.404 -1.403,0.689c-2.625,1.726 -5.234,3.477 -7.85,5.217c-0.364,0.243 -0.735,0.474 -1.242,0.801c-0.091,-0.423 -0.178,-0.656 -0.188,-0.892c-0.189,-4.308 -0.667,-8.598 -0.208,-12.932c0.26,-2.456 0.148,-4.962 0.061,-7.44c-0.079,-2.278 1.495,-3.589 2.864,-4.885c0.64,-0.605 1.974,-0.601 3.002,-0.646c4.116,-0.177 8.235,-0.293 12.353,-0.375c3.672,-0.074 7.344,-0.083 11.016,-0.098c2.621,-0.012 5.243,0.055 7.863,0.015c6.023,-0.094 12.044,-0.248 18.067,-0.335c1.106,-0.015 2.217,0.151 3.321,0.271c2.923,0.316 4.642,2.109 5.253,4.812c0.502,2.218 0.752,4.523 0.833,6.799c0.218,6.095 0.287,12.196 0.411,18.295c0.014,0.706 0.002,1.412 0.002,2.285" style="fill:#8dd2ce;fill-rule:nonzero;"/><g opacity="0.5"><path d="M74.011,27.681l-50.143,0c-1.889,0 -3.434,-1.545 -3.434,-3.435c0,-1.888 1.545,-3.434 3.434,-3.434l50.143,0c1.889,0 3.435,1.546 3.435,3.434c0,1.89 -1.546,3.435 -3.435,3.435" style="fill:#fff;fill-rule:nonzero;"/></g><path d="M61.2,66.308c0.142,-1.69 0.142,-1.69 -1.649,-1.578c-0.083,1.441 -0.083,1.441 1.649,1.578m1.507,26.728c0.359,-2.02 -0.568,-2.784 -2.892,-2.234c1.043,0.805 1.942,1.5 2.892,2.234m6.846,-9.415c1.726,0.831 3.21,1.142 4.913,0.45c-1.072,-1.173 -3.058,-1.351 -4.913,-0.45m-3.538,-14.558c-3.232,-1.499 -6.396,-2.213 -9.775,-0.154c0.037,0.732 0.074,1.465 0.11,2.194l9.259,0c0.143,-0.718 0.266,-1.339 0.406,-2.04m-0.482,7.984c0.062,-1.078 0.168,-1.982 0.151,-2.884c-0.021,-1.07 -0.353,-1.454 -1.396,-1.473c-2.657,-0.049 -5.316,-0.016 -8.046,-0.016l0,4.082c0.478,0.114 0.851,0.276 1.225,0.28c2.613,0.022 5.225,0.011 8.066,0.011m14.154,24.896c-0.99,0.067 -1.716,0.157 -2.442,0.157c-3.6,-0.002 -7.2,-0.075 -10.8,-0.03c-2.679,0.033 -5.356,0.204 -8.033,0.325c-0.179,0.008 -0.355,0.106 -0.612,0.188c0.046,0.51 0.091,0.996 0.142,1.538c6.679,0.497 13.184,-0.488 19.708,-0.388c0.687,0.011 1.38,-0.308 2.149,-0.493c-0.04,-0.47 -0.078,-0.903 -0.112,-1.297m-1.09,-24.488c-7.536,0.26 -14.867,0.513 -22.32,0.77c0.024,0.447 0.05,0.934 0.09,1.669c1.517,0.018 2.918,0.051 4.32,0.048c2.87,-0.007 5.743,0.022 8.612,-0.067c2.607,-0.08 5.212,-0.283 7.815,-0.464c0.493,-0.034 0.976,-0.216 1.483,-0.334l0,-1.622Zm-2.053,23.252c0.062,-0.403 0.124,-0.653 0.134,-0.904c0.098,-2.48 0.356,-4.969 0.232,-7.437c-0.124,-2.486 -0.711,-4.902 -2.857,-6.597c-1.643,-1.297 -3.453,-0.874 -4.227,1.056c-0.17,0.424 -0.302,0.863 -0.44,1.299c-0.343,1.08 -0.288,2.044 0.875,2.598c-0.223,0.708 -0.414,1.314 -0.551,1.751c0.605,0.713 1.191,1.235 1.566,1.879c0.891,1.528 1.222,3.126 0.506,4.879c-0.391,0.957 -0.067,1.413 0.877,1.461c1.234,0.062 2.474,0.015 3.885,0.015m-26.756,30.83c0.006,-0.07 0.012,-0.141 0.018,-0.21c-4.357,-1.063 -8.699,-2.2 -13.077,-3.168c-4.437,-0.982 -8.461,-2.969 -12.672,-4.997c0,0.536 -0.045,0.917 0.008,1.282c0.197,1.356 0.447,2.704 0.637,4.061c0.312,2.238 0.764,2.599 3.067,2.586c2.014,-0.012 4.069,-0.184 6.035,0.145c3.764,0.631 7.543,0.421 11.314,0.558c1.552,0.056 3.113,-0.163 4.67,-0.257m7.608,-31.801c1.102,0.8 1.85,1.623 3.137,1.516c2.601,-0.215 5.209,-0.393 7.817,-0.471c1.233,-0.036 1.741,-0.75 2.085,-1.711c0.888,-2.474 0.024,-4.495 -2.55,-6.033c-0.151,0.104 -0.326,0.195 -0.464,0.325c-2.356,2.213 -4.242,2.253 -6.633,0.051c-0.646,-0.594 -1.243,-0.538 -1.971,-0.286c-0.817,0.282 -1.404,0.73 -1.415,1.652c-0.02,1.696 -0.006,3.391 -0.006,4.957m9.567,-38.622l0,15.819c1.438,-0.089 2.738,-0.129 4.029,-0.262c1.273,-0.132 2.537,-0.359 3.951,-0.566c0,-1.205 0.085,-2.247 -0.016,-3.27c-0.296,-2.984 -0.654,-5.962 -1.015,-8.939c-0.078,-0.645 -0.191,-1.311 -0.443,-1.9c-0.154,-0.36 -0.595,-0.828 -0.925,-0.843c-1.811,-0.082 -3.627,-0.039 -5.581,-0.039m-8.601,65.39c-0.578,3.945 -0.675,4.068 -3.644,4.933c4.578,-0.07 9.151,-0.258 13.726,-0.403c4.552,-0.144 9.119,0.323 13.729,-0.129l0,-5.724c-3.178,0.216 -6.109,0.408 -9.039,0.618c-1.761,0.127 -3.54,0.524 -5.274,0.373c-3.167,-0.276 -6.258,0.259 -9.498,0.332m-0.184,-59.834c-0.157,-0.658 -0.336,-1.158 -0.383,-1.67c-0.074,-0.793 0.274,-1.412 1.042,-1.691c2.009,-0.73 3.826,0.442 4.005,2.549c0.022,0.252 0.112,0.498 0.2,0.872c0.914,0.19 1.828,0.38 2.82,0.586l0,-6.824c0.845,-0.684 1.775,-0.77 2.796,-0.757c1.428,0.018 2.862,-0.098 4.287,-0.234c1.217,-0.116 1.658,0.194 1.803,1.422c0.444,3.76 0.874,7.521 1.358,11.275c0.163,1.266 0.471,2.512 0.72,3.802c0.654,-0.073 1.1,-0.123 1.712,-0.191c0.054,-6.11 -0.583,-12.128 -0.757,-18.234c-7.58,-0.186 -14.897,0.19 -22.202,0.826c-0.25,3.21 0.156,6.139 0.464,9.232c0.8,-0.361 1.385,-0.625 2.135,-0.963m20.351,14.051c-7.466,0.19 -14.827,0.378 -22.275,0.567c0.276,3.92 0.535,7.608 0.809,11.515c0.755,-0.494 1.279,-0.837 1.697,-1.111c-0.163,-0.805 -0.288,-1.422 -0.468,-2.31c0.859,-0.052 1.54,-0.17 2.204,-0.111c0.698,0.061 1.38,0.291 1.915,0.412c0.669,-0.606 1.158,-1.272 1.816,-1.604c1.754,-0.882 2.472,-0.351 2.44,1.652c-0.002,0.105 0.097,0.211 0.196,0.413c0.316,-0.022 0.672,-0.046 0.894,-0.062c0.504,-1.721 0.957,-3.271 1.426,-4.874c-0.751,-0.435 -1.301,-0.985 -0.971,-1.918c0.315,-0.889 1.053,-1.042 1.89,-1.082c0.975,-0.046 1.946,-0.175 2.92,-0.261c2.173,-0.194 2.244,-0.114 2.488,2.11c0.068,0.626 0.109,1.362 0.456,1.831c1.556,2.103 2.159,4.428 2.011,7.008c-0.143,2.482 -0.078,4.955 0.527,7.526c0.349,-0.164 0.759,-0.226 0.849,-0.43c0.149,-0.336 0.127,-0.765 0.114,-1.152c-0.204,-5.802 -0.415,-11.604 -0.638,-17.406c-0.006,-0.182 -0.147,-0.36 -0.3,-0.713m-25.094,48.919c2.62,0.216 3.332,-0.393 3.514,-2.713c0.01,-0.131 0.02,-0.262 0.021,-0.393c0.044,-3.737 0.169,-7.476 0.11,-11.211c-0.066,-4.188 -0.25,-8.375 -0.471,-12.557c-0.235,-4.445 -0.61,-8.881 -0.857,-13.325c-0.277,-4.97 -0.504,-9.944 -0.701,-14.919c-0.071,-1.765 0.076,-3.54 0.003,-5.305c-0.223,-5.366 -0.52,-10.728 -0.748,-16.094c-0.044,-1.034 0.176,-2.08 0.123,-3.112c-0.161,-3.128 -0.499,-6.25 -0.569,-9.378c-0.051,-2.252 -0.551,-4.386 -1.011,-6.558c-0.251,-1.183 -0.973,-1.641 -1.951,-1.873c-0.527,-0.126 -1.108,-0.023 -1.802,-0.023c1.637,2.831 2.557,5.706 2.345,8.886c-0.138,2.082 -0.166,4.172 -0.25,6.258c-0.171,4.265 0.102,8.49 0.64,12.737c0.534,4.21 0.57,8.484 0.806,12.73c0.076,1.376 0.053,2.757 0.14,4.131c0.228,3.593 0.492,7.183 0.738,10.774c0.032,0.458 0.029,0.918 0.061,1.376c0.327,4.701 0.781,9.398 0.945,14.105c0.121,3.466 -0.193,6.945 -0.207,10.419c-0.016,3.792 0.002,7.589 0.184,11.376c0.079,1.629 -0.045,3.118 -1.063,4.669m4.722,-8.956c7.528,-0.514 14.75,-0.748 22.078,-1.451c-0.299,-4.821 0.292,-9.434 -0.439,-13.974c-5.594,-0.481 -20.087,-0.019 -21.639,0.62l0,14.805Zm0.434,4.571c0.586,0 1.228,0.033 1.866,-0.005c5.89,-0.36 11.78,-0.727 17.669,-1.105c1.44,-0.092 2.885,-0.171 4.312,-0.371c1.492,-0.21 2.239,-1.293 2.092,-2.761c-0.091,-0.912 -0.174,-1.826 -0.199,-2.74c-0.151,-5.573 -0.294,-11.146 -0.423,-16.719c-0.324,-13.966 -0.628,-27.933 -0.968,-41.898c-0.052,-2.143 -0.249,-4.283 -0.386,-6.531c-0.953,0 -1.728,-0.019 -2.502,0.004c-4.319,0.127 -8.638,0.354 -12.957,0.371c-3.658,0.014 -7.315,0.749 -10.978,0.06c-0.166,-0.031 -0.359,0.091 -0.78,0.208c0.057,1.112 0.114,2.236 0.179,3.508c0.86,-0.086 1.499,-0.143 2.137,-0.215c1.039,-0.117 2.074,-0.298 3.116,-0.357c5.145,-0.293 10.29,-0.585 15.438,-0.8c0.927,-0.039 1.869,0.282 2.713,0.422c0.16,3.35 0.339,6.419 0.445,9.49c0.091,2.619 0.046,5.243 0.152,7.862c0.228,5.625 0.534,11.246 0.772,16.87c0.167,3.928 0.256,7.859 0.415,11.788c0.219,5.419 0.494,10.837 0.695,16.257c0.053,1.43 -0.852,2.225 -2.275,2.291c-2.023,0.093 -4.046,0.217 -6.067,0.358c-1.364,0.095 -2.723,0.295 -4.088,0.351c-3.134,0.128 -6.269,0.189 -9.403,0.299c-0.432,0.015 -0.86,0.154 -1.311,0.239c0,0.899 -0.015,1.677 0.012,2.453c0.006,0.175 0.161,0.345 0.324,0.671m23.993,-73.904c0,-0.873 0.012,-1.579 -0.002,-2.285c-0.124,-6.098 -0.193,-12.199 -0.411,-18.295c-0.081,-2.276 -0.331,-4.581 -0.833,-6.799c-0.611,-2.703 -2.33,-4.496 -5.253,-4.812c-1.104,-0.12 -2.215,-0.286 -3.321,-0.27c-6.023,0.086 -12.044,0.241 -18.067,0.334c-2.621,0.041 -5.242,-0.026 -7.863,-0.015c-3.672,0.015 -7.344,0.025 -11.016,0.098c-4.118,0.082 -8.237,0.199 -12.353,0.376c-1.029,0.044 -2.363,0.041 -3.002,0.645c-1.369,1.296 -2.943,2.607 -2.864,4.885c0.086,2.478 0.199,4.985 -0.062,7.441c-0.459,4.334 0.02,8.624 0.209,12.931c0.01,0.236 0.097,0.47 0.188,0.892c0.507,-0.326 0.878,-0.558 1.242,-0.8c2.616,-1.741 5.225,-3.492 7.85,-5.218c0.432,-0.284 0.92,-0.495 1.403,-0.689c1.082,-0.434 2.217,-0.754 3.258,-1.268c2.049,-1.011 4.035,-2.148 6.071,-3.186c2.208,-1.126 4.425,-2.235 6.674,-3.274c0.942,-0.436 2.024,-0.574 2.955,-1.026c1.264,-0.613 2.582,-0.545 3.853,-0.385c1.023,0.13 2.02,0.695 2.37,1.819c0.405,1.305 0.871,2.623 1.026,3.968c0.258,2.25 0.297,4.526 0.416,6.791c0.133,2.539 0.248,5.08 0.38,7.62c0.023,0.432 0.097,0.862 0.145,1.277c4.688,0.817 9.244,0.177 13.798,0.031c1.302,-0.041 2.602,-0.202 3.903,-0.213c3,-0.026 6.004,0.078 9.306,-0.573m-31.162,78.768c1.531,-1.63 2.039,-3.541 2.012,-5.75c-0.067,-5.444 -0.102,-10.893 0.074,-16.332c0.215,-6.629 -0.574,-13.198 -0.903,-19.793c-0.234,-4.701 -0.754,-9.387 -1.069,-14.084c-0.226,-3.384 -0.278,-6.779 -0.493,-10.163c-0.186,-2.937 -0.641,-5.863 -0.713,-8.801c-0.117,-4.782 -0.12,-9.573 0.032,-14.354c0.076,-2.39 -0.532,-4.516 -1.514,-6.605c-0.525,-1.12 -1.842,-1.812 -2.881,-1.442c-1.908,0.678 -3.837,1.331 -5.668,2.184c-3.02,1.407 -5.969,2.966 -8.95,4.458c-0.409,0.205 -0.814,0.438 -1.246,0.579c-2.594,0.842 -4.851,2.27 -6.978,3.937c-0.979,0.767 -1.992,1.488 -2.974,2.251c-2.362,1.834 -4.546,3.792 -4.728,7.085c-0.036,0.653 -0.14,1.307 -0.12,1.957c0.086,2.879 0.204,5.757 0.317,8.635c0.16,4.056 0.27,8.115 0.501,12.167c0.309,5.418 0.88,10.826 1.029,16.247c0.157,5.709 0.678,11.375 1.289,17.041c0.224,2.081 0.453,4.17 0.844,6.224c0.483,2.537 1.692,4.633 4.061,5.952c6.471,3.602 13.502,5.588 20.661,7.197c2.408,0.541 4.851,0.927 7.417,1.41m13.01,-37.571c0.376,-1.054 0.751,-2.108 1.131,-3.173c-0.798,-0.387 -1.282,-0.135 -1.47,0.511c-0.264,0.906 -0.668,1.888 0.393,2.618c-0.036,0.279 -0.073,0.557 -0.165,1.263c1.289,-1.19 3.005,-0.77 4.02,-2.299c-1.669,-0.163 -2.758,0.564 -3.909,1.08m19.739,39.241c-0.854,0.221 -1.514,0.495 -2.192,0.545c-1.431,0.108 -2.872,0.144 -4.308,0.129c-3.405,-0.038 -6.811,-0.213 -10.214,-0.169c-5.542,0.072 -11.082,0.275 -16.622,0.419c-3.649,0.095 -7.297,0.23 -10.945,0.249c-1.696,0.01 -3.392,-0.244 -5.09,-0.321c-2.877,-0.131 -5.757,-0.22 -8.635,-0.322c-2.273,-0.081 -2.512,-0.337 -2.676,-2.66c-0.133,-1.896 -0.316,-3.788 -0.476,-5.682c-0.074,-0.877 -0.322,-1.604 -1.158,-2.123c-2.715,-1.688 -3.475,-4.46 -3.857,-7.372c-0.408,-3.108 -0.772,-6.225 -1.06,-9.346c-0.288,-3.121 -0.47,-6.252 -0.676,-9.38c-0.177,-2.666 -0.336,-5.333 -0.476,-8.001c-0.065,-1.242 -0.029,-2.489 -0.102,-3.73c-0.366,-6.268 -0.805,-12.531 -1.111,-18.801c-0.195,-3.981 -0.631,-7.974 -0.11,-11.958c0.242,-1.852 0.235,-3.832 1.887,-5.205c0.223,-0.185 0.427,-0.546 0.423,-0.823c-0.023,-1.366 -0.122,-2.731 -0.189,-4.097c-0.086,-1.755 -0.18,-3.511 -0.249,-5.268c-0.089,-2.281 -0.235,-4.565 -0.214,-6.846c0.022,-2.394 0.154,-4.792 0.369,-7.176c0.059,-0.66 0.487,-1.356 0.919,-1.897c0.686,-0.859 1.442,-1.702 2.314,-2.358c0.588,-0.442 1.417,-0.734 2.157,-0.776c3.581,-0.207 7.169,-0.334 10.755,-0.438c4.31,-0.125 8.621,-0.226 12.932,-0.281c1.629,-0.02 3.261,0.181 4.891,0.17c1.825,-0.011 3.648,-0.167 5.472,-0.227c3.656,-0.119 7.312,-0.251 10.969,-0.309c2.734,-0.044 5.469,0.031 8.204,0.03c4.312,-0.001 7.291,2.881 7.952,6.909c0.436,2.657 0.577,5.298 0.45,7.985c-0.105,2.223 -0.002,4.458 0.038,6.688c0.087,4.721 0.172,9.443 0.295,14.164c0.216,8.195 0.488,16.389 0.684,24.585c0.199,8.327 0.287,16.657 0.514,24.983c0.146,5.373 0.459,10.741 0.685,16.111c0.041,0.982 0.001,1.968 0.041,2.95c0.034,0.848 -0.211,1.632 -0.879,2.09c-1.799,1.23 -1.488,3.026 -1.362,4.749c0.061,0.829 0.369,1.641 0.65,2.81" style="fill:#231f20;fill-rule:nonzero;"/><path d="M45.124,61.374c0.539,0.083 1.035,0.208 1.535,0.23c2.31,0.101 3.637,-1.018 3.171,-3.454c-0.123,-0.639 -0.195,-1.288 -0.331,-1.924c-0.284,-1.33 -1.224,-2.383 -2.345,-2.278c-1.478,0.138 -2.957,0.461 -4.386,0.877c-1.044,0.303 -1.799,1.147 -2.121,2.181c-0.363,1.164 -0.703,2.381 -0.752,3.587c-0.078,1.945 0.095,3.899 0.153,5.849c0.093,3.072 0.157,6.145 0.274,9.216c0.169,4.422 0.33,8.844 0.579,13.262c0.184,3.262 0.409,6.528 0.812,9.768c0.156,1.256 0.756,2.494 1.338,3.647c0.405,0.805 1.101,1.511 2.131,1.563c1.045,0.053 2.1,0.115 3.139,0.027c1.315,-0.111 2.177,-1.127 2.434,-2.426c0.3,-1.515 -0.202,-2.61 -1.593,-3.174c-1.335,-0.542 -1.872,-1.517 -2.014,-2.857c-0.102,-0.973 -0.305,-1.935 -0.408,-2.908c-0.523,-4.938 -1.059,-9.875 -1.521,-14.819c-0.189,-2.016 -0.246,-4.047 -0.286,-6.072c-0.062,-3.143 -0.064,-6.287 -0.073,-9.431c-0.001,-0.241 0.143,-0.483 0.264,-0.864m6.298,68.744c-2.566,-0.483 -5.009,-0.869 -7.417,-1.41c-7.159,-1.608 -14.19,-3.595 -20.661,-7.197c-2.369,-1.319 -3.578,-3.414 -4.061,-5.951c-0.391,-2.055 -0.62,-4.143 -0.844,-6.225c-0.611,-5.665 -1.132,-11.332 -1.289,-17.041c-0.149,-5.42 -0.72,-10.828 -1.028,-16.247c-0.231,-4.051 -0.342,-8.11 -0.501,-12.166c-0.114,-2.878 -0.231,-5.756 -0.318,-8.635c-0.02,-0.65 0.084,-1.304 0.12,-1.957c0.182,-3.293 2.367,-5.251 4.728,-7.086c0.982,-0.763 1.995,-1.484 2.974,-2.25c2.127,-1.667 4.384,-3.096 6.978,-3.938c0.433,-0.141 0.837,-0.373 1.247,-0.578c2.98,-1.492 5.929,-3.051 8.949,-4.459c1.831,-0.853 3.76,-1.505 5.668,-2.184c1.039,-0.369 2.356,0.323 2.882,1.442c0.981,2.089 1.589,4.216 1.513,6.606c-0.152,4.781 -0.149,9.572 -0.032,14.354c0.072,2.937 0.527,5.864 0.713,8.801c0.215,3.384 0.267,6.779 0.494,10.162c0.314,4.697 0.834,9.383 1.068,14.084c0.33,6.595 1.118,13.164 0.903,19.793c-0.176,5.44 -0.14,10.889 -0.073,16.332c0.026,2.209 -0.482,4.12 -2.013,5.75" style="fill:#8dd2ce;fill-rule:nonzero;"/><path d="M58.591,125.255c-0.164,-0.326 -0.318,-0.496 -0.324,-0.671c-0.028,-0.776 -0.012,-1.554 -0.012,-2.453c0.451,-0.085 0.878,-0.224 1.311,-0.239c3.133,-0.11 6.269,-0.171 9.402,-0.299c1.366,-0.056 2.725,-0.256 4.089,-0.351c2.021,-0.14 4.044,-0.264 6.067,-0.358c1.423,-0.066 2.328,-0.861 2.275,-2.291c-0.202,-5.42 -0.476,-10.838 -0.695,-16.257c-0.159,-3.929 -0.248,-7.86 -0.415,-11.788c-0.239,-5.624 -0.544,-11.245 -0.772,-16.87c-0.106,-2.618 -0.061,-5.243 -0.152,-7.862c-0.106,-3.071 -0.285,-6.14 -0.445,-9.49c-0.844,-0.14 -1.786,-0.461 -2.713,-0.422c-5.148,0.215 -10.293,0.507 -15.438,0.8c-1.042,0.059 -2.077,0.24 -3.116,0.357c-0.638,0.072 -1.277,0.13 -2.137,0.215c-0.065,-1.272 -0.122,-2.396 -0.179,-3.507c0.421,-0.118 0.614,-0.24 0.78,-0.209c3.662,0.689 7.32,-0.046 10.978,-0.06c4.319,-0.017 8.638,-0.244 12.957,-0.371c0.774,-0.023 1.549,-0.003 2.502,-0.003c0.137,2.247 0.334,4.387 0.386,6.53c0.339,13.966 0.644,27.932 0.967,41.898c0.13,5.574 0.273,11.146 0.424,16.719c0.025,0.915 0.108,1.829 0.199,2.74c0.147,1.468 -0.601,2.552 -2.092,2.761c-1.427,0.2 -2.872,0.279 -4.312,0.371c-5.889,0.379 -11.779,0.745 -17.669,1.105c-0.638,0.039 -1.28,0.005 -1.866,0.005" style="fill:#fff;fill-rule:nonzero;"/><path d="M75.451,106.741c-0.781,-0.072 -1.54,-0.203 -2.299,-0.202c-2.816,0.005 -5.631,0.065 -8.446,0.082c-3.057,0.018 -3.305,0.439 -2.977,3.476c0.092,0.854 0.466,1.331 1.365,1.313c0.786,-0.015 1.577,-0.079 2.357,-0.013c2.87,0.24 5.726,-0.555 8.598,-0.089c0.803,0.131 1.303,-0.388 1.373,-1.08c0.109,-1.084 0.029,-2.188 0.029,-3.487m-17.294,13.942l0,-14.805c1.552,-0.639 16.045,-1.1 21.639,-0.619c0.731,4.54 0.14,9.152 0.439,13.974c-7.328,0.703 -14.55,0.937 -22.078,1.45" style="fill:#fff;fill-rule:nonzero;"/><path d="M53.436,129.64c1.018,-1.551 1.142,-3.041 1.063,-4.669c-0.183,-3.787 -0.2,-7.584 -0.185,-11.376c0.015,-3.474 0.329,-6.953 0.208,-10.419c-0.165,-4.707 -0.619,-9.404 -0.945,-14.105c-0.032,-0.458 -0.03,-0.918 -0.061,-1.376c-0.246,-3.591 -0.511,-7.181 -0.738,-10.774c-0.087,-1.374 -0.065,-2.755 -0.141,-4.131c-0.235,-4.246 -0.272,-8.52 -0.805,-12.73c-0.538,-4.247 -0.812,-8.472 -0.641,-12.737c0.084,-2.086 0.113,-4.176 0.251,-6.258c0.211,-3.18 -0.709,-6.055 -2.346,-8.886c0.694,0 1.276,-0.103 1.802,0.023c0.978,0.232 1.701,0.69 1.952,1.873c0.46,2.172 0.96,4.306 1.011,6.558c0.07,3.128 0.408,6.25 0.569,9.378c0.053,1.032 -0.167,2.078 -0.123,3.112c0.228,5.366 0.525,10.728 0.747,16.094c0.073,1.765 -0.073,3.54 -0.003,5.305c0.198,4.975 0.425,9.949 0.701,14.919c0.248,4.444 0.623,8.88 0.858,13.324c0.221,4.183 0.405,8.37 0.471,12.558c0.059,3.735 -0.066,7.474 -0.11,11.211c-0.002,0.131 -0.012,0.262 -0.022,0.393c-0.181,2.32 -0.893,2.929 -3.513,2.713" style="fill:#d1d3d4;fill-rule:nonzero;"/><path d="M78.529,80.72c0.153,0.354 0.294,0.531 0.301,0.713c0.222,5.802 0.433,11.604 0.637,17.407c0.013,0.387 0.035,0.816 -0.113,1.151c-0.09,0.204 -0.5,0.266 -0.849,0.431c-0.605,-2.571 -0.67,-5.045 -0.528,-7.527c0.148,-2.58 -0.455,-4.904 -2.011,-7.008c-0.346,-0.469 -0.388,-1.205 -0.456,-1.831c-0.243,-2.223 -0.314,-2.303 -2.488,-2.11c-0.973,0.086 -1.945,0.215 -2.92,0.262c-0.837,0.04 -1.575,0.192 -1.89,1.082c-0.33,0.932 0.22,1.482 0.972,1.918c-0.469,1.602 -0.923,3.153 -1.427,4.874c-0.222,0.015 -0.578,0.039 -0.894,0.061c-0.099,-0.202 -0.197,-0.308 -0.195,-0.412c0.031,-2.003 -0.687,-2.535 -2.441,-1.652c-0.658,0.331 -1.147,0.997 -1.815,1.604c-0.535,-0.122 -1.218,-0.352 -1.915,-0.413c-0.665,-0.058 -1.345,0.059 -2.204,0.111c0.18,0.889 0.304,1.506 0.467,2.311c-0.418,0.273 -0.942,0.617 -1.696,1.111c-0.275,-3.908 -0.534,-7.596 -0.809,-11.515c7.448,-0.19 14.808,-0.378 22.274,-0.568" style="fill:#a5c7e9;fill-rule:nonzero;"/><path d="M58.178,66.67c-0.75,0.338 -1.335,0.602 -2.135,0.963c-0.308,-3.092 -0.714,-6.022 -0.464,-9.232c7.305,-0.636 14.622,-1.012 22.202,-0.826c0.174,6.106 0.811,12.124 0.757,18.234c-0.612,0.069 -1.058,0.118 -1.712,0.192c-0.249,-1.29 -0.557,-2.537 -0.72,-3.803c-0.484,-3.754 -0.914,-7.515 -1.358,-11.275c-0.145,-1.228 -0.586,-1.538 -1.803,-1.421c-1.425,0.135 -2.859,0.251 -4.288,0.233c-1.02,-0.013 -1.95,0.073 -2.795,0.757l0,6.824c-0.992,-0.206 -1.906,-0.396 -2.82,-0.585c-0.088,-0.374 -0.178,-0.621 -0.2,-0.873c-0.179,-2.107 -1.996,-3.279 -4.005,-2.549c-0.768,0.279 -1.116,0.898 -1.042,1.691c0.047,0.512 0.226,1.012 0.383,1.67" style="fill:#a5c7e9;fill-rule:nonzero;"/><path d="M58.362,126.504c3.24,-0.073 6.331,-0.607 9.498,-0.332c1.734,0.151 3.513,-0.246 5.274,-0.373c2.93,-0.21 5.861,-0.402 9.039,-0.618l0,5.724c-4.61,0.452 -9.177,-0.015 -13.729,0.129c-4.575,0.145 -9.148,0.333 -13.726,0.404c2.969,-0.866 3.066,-0.989 3.644,-4.934" style="fill:#656668;fill-rule:nonzero;"/><path d="M66.964,61.113c1.954,0 3.77,-0.043 5.581,0.039c0.33,0.015 0.771,0.483 0.924,0.843c0.253,0.59 0.366,1.255 0.444,1.9c0.361,2.977 0.719,5.955 1.014,8.939c0.101,1.024 0.016,2.065 0.016,3.271c-1.414,0.206 -2.677,0.433 -3.951,0.565c-1.29,0.133 -2.59,0.173 -4.028,0.262l0,-15.819Z" style="fill:#5dc4b6;fill-rule:nonzero;"/><path d="M57.396,99.736c0,-1.565 -0.014,-3.261 0.006,-4.957c0.011,-0.922 0.598,-1.37 1.415,-1.652c0.728,-0.251 1.325,-0.308 1.972,0.287c2.391,2.201 4.276,2.161 6.632,-0.052c0.139,-0.13 0.313,-0.221 0.464,-0.325c2.574,1.538 3.438,3.559 2.551,6.033c-0.345,0.961 -0.853,1.675 -2.085,1.711c-2.609,0.078 -5.217,0.256 -7.818,0.472c-1.286,0.106 -2.034,-0.717 -3.137,-1.517" style="fill:#ed1c24;fill-rule:nonzero;"/><path d="M49.788,131.537c-1.557,0.094 -3.118,0.313 -4.67,0.257c-3.771,-0.137 -7.55,0.073 -11.314,-0.558c-1.966,-0.329 -4.021,-0.157 -6.035,-0.145c-2.303,0.013 -2.754,-0.348 -3.067,-2.586c-0.189,-1.357 -0.44,-2.705 -0.637,-4.061c-0.052,-0.365 -0.007,-0.746 -0.007,-1.282c4.21,2.028 8.234,4.015 12.671,4.997c4.378,0.968 8.72,2.105 13.078,3.168c-0.007,0.069 -0.013,0.14 -0.019,0.21" style="fill:#656668;fill-rule:nonzero;"/><path d="M76.545,100.707c-1.411,0 -2.651,0.047 -3.885,-0.015c-0.944,-0.048 -1.268,-0.505 -0.877,-1.462c0.716,-1.752 0.385,-3.35 -0.506,-4.878c-0.376,-0.645 -0.961,-1.166 -1.566,-1.879c0.137,-0.438 0.328,-1.043 0.55,-1.751c-1.162,-0.554 -1.217,-1.518 -0.874,-2.598c0.138,-0.436 0.27,-0.875 0.44,-1.299c0.774,-1.93 2.584,-2.353 4.226,-1.056c2.147,1.694 2.734,4.11 2.858,6.596c0.124,2.469 -0.134,4.957 -0.232,7.437c-0.01,0.252 -0.072,0.501 -0.134,0.905" style="fill:#fff;fill-rule:nonzero;"/><path d="M78.598,77.455l0,1.622c-0.508,0.118 -0.991,0.299 -1.483,0.334c-2.604,0.18 -5.208,0.383 -7.816,0.464c-2.868,0.088 -5.741,0.06 -8.612,0.066c-1.401,0.003 -2.802,-0.029 -4.319,-0.048c-0.04,-0.734 -0.066,-1.221 -0.091,-1.668c7.454,-0.257 14.785,-0.51 22.321,-0.77" style="fill:#d5d7d8;fill-rule:nonzero;"/><path d="M79.688,101.943c0.034,0.394 0.071,0.827 0.112,1.297c-0.77,0.185 -1.462,0.504 -2.15,0.493c-6.523,-0.101 -13.028,0.885 -19.708,0.388c-0.05,-0.543 -0.095,-1.028 -0.142,-1.538c0.258,-0.082 0.433,-0.18 0.613,-0.188c2.677,-0.121 5.354,-0.292 8.033,-0.326c3.599,-0.044 7.2,0.029 10.8,0.031c0.726,0 1.452,-0.091 2.442,-0.157" style="fill:#d5d7d8;fill-rule:nonzero;"/><path d="M65.533,77.047c-2.841,0 -5.453,0.011 -8.066,-0.012c-0.374,-0.003 -0.747,-0.166 -1.225,-0.28l0,-4.082c2.73,0 5.389,-0.032 8.046,0.017c1.043,0.019 1.375,0.403 1.396,1.473c0.017,0.902 -0.089,1.806 -0.151,2.884" style="fill:#c7b2d6;fill-rule:nonzero;"/><path d="M66.015,69.063c-0.14,0.7 -0.263,1.322 -0.406,2.04l-9.259,0c-0.036,-0.729 -0.073,-1.463 -0.11,-2.195c3.379,-2.059 6.544,-1.345 9.775,0.155" style="fill:#c7b2d6;fill-rule:nonzero;"/><path d="M69.553,83.621c1.855,-0.902 3.841,-0.724 4.913,0.449c-1.703,0.692 -3.187,0.382 -4.913,-0.449" style="fill:#f04b41;fill-rule:nonzero;"/><path d="M62.708,93.036c-0.951,-0.734 -1.85,-1.429 -2.892,-2.234c2.324,-0.55 3.25,0.213 2.892,2.234" style="fill:#00ae4d;fill-rule:nonzero;"/><path d="M64.433,92.548c1.15,-0.516 2.239,-1.243 3.909,-1.08c-1.015,1.53 -2.731,1.109 -4.02,2.3c0.091,-0.706 0.128,-0.985 0.164,-1.264l-0.053,0.044Z" style="fill:#00ae4d;fill-rule:nonzero;"/><path d="M64.486,92.504c-1.061,-0.73 -0.657,-1.711 -0.393,-2.618c0.188,-0.646 0.673,-0.898 1.471,-0.51c-0.38,1.065 -0.756,2.118 -1.131,3.172l0.053,-0.044Z" style="fill:#00a94f;fill-rule:nonzero;"/><path d="M61.2,66.308c-1.732,-0.137 -1.732,-0.137 -1.649,-1.578c1.791,-0.112 1.791,-0.112 1.649,1.578" style="fill:#808285;fill-rule:nonzero;"/><path d="M41.749,83.349c-0.094,0.007 -0.188,0.015 -0.282,0.022c0.384,4.224 0.745,8.449 1.162,12.668c0.153,1.551 0.269,3.123 1.014,4.553c1.023,1.965 3.193,2.687 4.927,1.516c0.42,-0.283 0.724,-0.926 0.807,-1.447c0.043,-0.273 -0.461,-0.864 -0.794,-0.931c-1.943,-0.389 -2.42,-1.868 -2.611,-3.47c-0.447,-3.762 -0.832,-7.531 -1.179,-11.303c-0.215,-2.342 -0.33,-4.693 -0.461,-7.041c-0.23,-4.17 -0.442,-8.34 -0.655,-12.51c-0.057,-1.112 -0.163,-2.227 -0.121,-3.336c0.071,-1.859 0.818,-2.405 2.628,-2.056c0.257,0.049 0.514,0.106 0.773,0.128c1.517,0.126 1.931,-0.332 1.637,-1.794c-0.09,-0.447 -0.196,-0.891 -0.271,-1.34c-0.244,-1.459 -0.742,-1.892 -2.208,-1.903c-2.424,-0.017 -4.411,1.581 -4.886,3.966c-0.152,0.767 -0.317,1.551 -0.309,2.325c0.042,4.122 0.082,8.245 0.232,12.365c0.117,3.199 0.392,6.392 0.597,9.588m3.375,-21.975c-0.121,0.382 -0.265,0.623 -0.264,0.865c0.009,3.143 0.011,6.287 0.073,9.43c0.04,2.026 0.097,4.056 0.286,6.072c0.462,4.944 0.998,9.881 1.521,14.819c0.103,0.974 0.306,1.935 0.408,2.909c0.142,1.339 0.679,2.315 2.014,2.856c1.391,0.565 1.893,1.659 1.593,3.175c-0.257,1.299 -1.119,2.315 -2.434,2.426c-1.039,0.087 -2.094,0.026 -3.139,-0.027c-1.03,-0.052 -1.726,-0.758 -2.131,-1.563c-0.582,-1.154 -1.182,-2.391 -1.338,-3.648c-0.403,-3.239 -0.628,-6.506 -0.812,-9.768c-0.249,-4.417 -0.41,-8.84 -0.579,-13.262c-0.117,-3.071 -0.181,-6.144 -0.274,-9.216c-0.058,-1.95 -0.231,-3.904 -0.153,-5.848c0.049,-1.206 0.389,-2.423 0.752,-3.587c0.322,-1.035 1.077,-1.879 2.121,-2.182c1.429,-0.415 2.908,-0.738 4.386,-0.877c1.121,-0.105 2.061,0.948 2.345,2.278c0.136,0.636 0.208,1.285 0.331,1.925c0.466,2.435 -0.861,3.554 -3.171,3.453c-0.5,-0.022 -0.996,-0.146 -1.535,-0.23" style="fill:#231f20;fill-rule:nonzero;"/><path d="M73.811,25.984c-0.057,1.636 -0.162,2.99 -0.136,4.341c0.029,1.435 0.197,2.866 0.278,4.301c0.177,3.132 0.327,6.266 0.515,9.398c0.035,0.583 0.129,1.184 0.325,1.729c0.138,0.383 0.498,0.966 0.755,0.964c0.423,-0.004 0.929,-0.327 1.245,-0.661c1.039,-1.096 0.579,-2.468 0.566,-3.751c-0.028,-2.866 -0.09,-5.733 -0.081,-8.599c0.006,-1.895 0.167,-3.791 0.139,-5.685c-0.008,-0.611 -0.249,-1.374 -0.666,-1.769c-0.295,-0.279 -1.066,-0.04 -1.624,-0.063c-0.305,-0.014 -0.608,-0.091 -1.316,-0.205m4.836,3.062c-0.154,2.799 -0.368,5.082 -0.383,7.366c-0.014,2.221 0.23,4.443 0.253,6.666c0.012,1.091 -0.062,2.233 -0.379,3.265c-0.43,1.402 -1.834,2.043 -3.07,1.739c-0.963,-0.237 -1.455,-0.818 -1.576,-1.76c-0.083,-0.649 -0.168,-1.299 -0.202,-1.952c-0.229,-4.44 -0.44,-8.88 -0.667,-13.32c-0.057,-1.102 -0.214,-2.204 -0.203,-3.304c0.011,-1.109 0.064,-2.3 1.236,-2.9c1.309,-0.669 2.687,-0.464 3.958,0.09c0.367,0.16 0.628,0.832 0.715,1.31c0.197,1.089 0.256,2.203 0.318,2.8" style="fill:#231f20;fill-rule:nonzero;"/><path d="M74.135,108.432c-3.796,-0.663 -7.409,-0.712 -11.024,-0.231c-0.02,1.71 -0.02,1.715 1.138,1.852c3.2,0.378 6.377,0.171 9.561,-0.374c0.075,-0.178 0.168,-0.348 0.218,-0.53c0.05,-0.183 0.059,-0.377 0.107,-0.717m1.316,-1.69c0,1.299 0.08,2.402 -0.029,3.487c-0.07,0.691 -0.57,1.21 -1.373,1.08c-2.872,-0.466 -5.728,0.329 -8.599,0.088c-0.779,-0.065 -1.57,-0.002 -2.356,0.014c-0.899,0.018 -1.273,-0.459 -1.365,-1.313c-0.328,-3.038 -0.08,-3.458 2.977,-3.476c2.815,-0.017 5.63,-0.078 8.446,-0.083c0.759,-0.001 1.518,0.13 2.299,0.203" style="fill:#231f20;fill-rule:nonzero;"/><path d="M41.749,83.349c-0.205,-3.196 -0.48,-6.389 -0.597,-9.588c-0.15,-4.12 -0.19,-8.243 -0.232,-12.365c-0.008,-0.774 0.157,-1.558 0.309,-2.325c0.475,-2.385 2.462,-3.983 4.886,-3.966c1.466,0.011 1.964,0.444 2.208,1.903c0.075,0.449 0.181,0.893 0.271,1.34c0.294,1.462 -0.12,1.92 -1.637,1.794c-0.259,-0.022 -0.516,-0.079 -0.773,-0.128c-1.81,-0.349 -2.557,0.197 -2.628,2.056c-0.042,1.109 0.064,2.224 0.121,3.336c0.213,4.17 0.425,8.34 0.655,12.51c0.131,2.348 0.246,4.699 0.461,7.041c0.347,3.772 0.732,7.541 1.179,11.303c0.191,1.602 0.668,3.081 2.611,3.47c0.333,0.067 0.837,0.658 0.794,0.931c-0.083,0.521 -0.387,1.164 -0.807,1.447c-1.734,1.171 -3.904,0.449 -4.927,-1.516c-0.745,-1.43 -0.861,-3.002 -1.014,-4.553c-0.417,-4.219 -0.778,-8.444 -1.162,-12.668c0.094,-0.007 0.188,-0.015 0.282,-0.022" style="fill:#c2c4c6;fill-rule:nonzero;"/><path d="M73.811,25.984c0.708,0.114 1.011,0.191 1.316,0.205c0.558,0.023 1.329,-0.216 1.624,0.063c0.417,0.395 0.658,1.158 0.666,1.769c0.028,1.894 -0.133,3.79 -0.139,5.685c-0.009,2.866 0.053,5.733 0.081,8.599c0.013,1.283 0.473,2.655 -0.566,3.751c-0.316,0.334 -0.822,0.657 -1.245,0.661c-0.257,0.002 -0.617,-0.581 -0.755,-0.964c-0.196,-0.545 -0.29,-1.146 -0.325,-1.729c-0.188,-3.132 -0.338,-6.266 -0.515,-9.398c-0.081,-1.435 -0.249,-2.866 -0.278,-4.301c-0.026,-1.351 0.079,-2.705 0.136,-4.341" style="fill:#c2c4c6;fill-rule:nonzero;"/><path d="M74.135,108.432c-0.048,0.34 -0.057,0.534 -0.107,0.717c-0.05,0.182 -0.143,0.352 -0.218,0.53c-3.184,0.545 -6.361,0.752 -9.561,0.374c-1.158,-0.137 -1.158,-0.142 -1.138,-1.852c3.615,-0.481 7.228,-0.432 11.024,0.231" style="fill:#c9cacc;fill-rule:nonzero;"/><g opacity="0.5"><path d="M24.4,58.405c3.989,-6.763 10.76,-11.313 17.172,-15.844c2.454,-1.735 5.033,-3.695 5.934,-6.562c-1.183,-0.704 -2.689,-0.286 -3.99,0.166c-6.429,2.237 -12.71,4.902 -18.787,7.971c-2.775,1.402 -5.704,3.097 -6.909,5.963c-0.719,1.713 -0.721,3.63 -0.711,5.488c0.043,7.997 0.085,15.994 0.128,23.991c0.01,1.863 0.036,3.797 0.846,5.474c-0.381,-0.788 0.819,-5.793 1.005,-6.997c0.292,-1.897 0.686,-3.773 0.943,-5.693c0.651,-4.855 1.862,-9.705 4.369,-13.957" style="fill:#fff;fill-rule:nonzero;"/></g><path d="M88.611,75.291c-0.001,-0.043 -0.003,-0.087 -0.004,-0.131l-0.594,0.035c0.002,0.032 0.003,0.064 0.004,0.096l0.594,0Zm2.792,-1.057c-0.027,-0.055 -0.054,-0.11 -0.081,-0.164c-0.264,0.121 -0.528,0.242 -0.793,0.364c0.038,0.075 0.076,0.151 0.113,0.227l0.761,-0.427Zm-46.642,13.603c-1.199,0.425 -2.15,0.761 -3.099,1.097c1.352,0.535 2.034,0.323 3.099,-1.097m-5.233,-1.559c-0.09,0.147 -0.181,0.294 -0.272,0.44c0.418,0.308 0.802,0.804 1.261,0.886c1.015,0.182 2.103,0.338 3.233,-0.631c-1.572,-0.259 -2.896,-0.477 -4.222,-0.695m52.427,0.933c-0.186,-0.979 -0.261,-1.925 -1.242,-2.609c-0.925,0.585 -1.513,1.312 -1.427,2.479c0.897,0.044 1.713,0.084 2.669,0.13m-52.971,-4.816c-0.543,1.113 -0.394,2.016 0.4,2.498c1.297,0.786 2.801,1.04 4.321,0.907c0.256,-0.022 0.476,-0.441 0.975,-0.936c-2.499,0.052 -4.074,-1.111 -5.696,-2.469m48.191,-6.941c-1.178,0.38 -2.142,0.691 -3.32,1.071c0.239,0.746 0.407,1.451 0.688,2.108c0.681,1.595 1.103,1.696 2.733,0.758c-0.542,-2.805 -0.542,-2.805 -0.101,-3.937m-41.991,6.313c-1.003,0.226 -1.844,0.613 -2.65,0.547c-0.995,-0.08 -1.375,-1.06 -1.473,-1.924c-0.091,-0.801 0.112,-1.635 0.185,-2.455c-1.72,-0.249 -2.057,-0.138 -2.485,0.824c-0.515,1.159 -0.398,1.817 0.727,2.736c0.846,0.692 1.807,1.247 2.727,1.847c0.78,0.509 1.614,0.582 2.641,0.194c0.097,-0.522 0.206,-1.111 0.328,-1.769m49.828,-5.028c-0.068,-0.301 -0.091,-0.468 -0.145,-0.625c-0.57,-1.679 -0.918,-1.858 -2.481,-1.175c-1.364,0.596 -2.708,1.238 -4.229,1.937c-0.021,0.645 -0.317,1.462 0.553,2.023c0.753,0.485 1.411,0.112 2.091,-0.26c0.602,-0.329 1.261,-0.553 1.89,-0.835c0.778,-0.349 1.55,-0.71 2.321,-1.065m16.427,-22.308c0.284,-3.082 1.109,-4.022 4.173,-4.931c0.762,-0.225 1.486,-0.575 2.194,-0.854c-0.101,-2.062 -1.112,-2.792 -2.865,-2.169c-3.385,1.201 -4.909,3.279 -4.76,6.342c0.044,0.906 0.476,1.328 1.258,1.612m-12.835,70.421c-0.271,-1.517 -0.498,-2.748 -0.707,-3.982c-0.129,-0.764 -0.56,-1.09 -1.325,-1.009c-1.477,0.155 -2.955,0.302 -4.525,0.461c-0.07,1.478 0.501,2.643 0.989,3.743c0.245,0.553 1.153,1.081 1.797,1.129c1.172,0.087 2.372,-0.193 3.771,-0.342m-0.342,5.827c-0.245,-0.738 -0.544,-1.404 -0.677,-2.103c-0.137,-0.718 -0.112,-1.467 -0.156,-2.16c-1.202,0 -2.37,0.235 -3.376,-0.068c-0.954,-0.288 -1.737,-1.141 -2.589,-1.743c-0.834,1.66 -0.224,4.767 1.241,5.913c0.261,0.204 0.594,0.407 0.91,0.435c1.49,0.13 2.986,0.225 4.647,-0.274m15.945,-85.332c-0.84,-0.728 -1.392,-1.608 -1.965,-1.621c-1.2,-0.028 -2.636,-0.501 -3.565,0.875c-0.353,0.524 -0.882,0.927 -1.274,1.43c-1.625,2.084 -1.346,4.666 0.816,6.403c0.294,-0.456 0.752,-0.875 0.843,-1.362c0.307,-1.653 1.215,-2.839 2.542,-3.783c0.792,-0.563 1.558,-1.161 2.603,-1.942m-15.105,81.324c-0.65,1.551 0.244,4.629 1.498,5.262c0.351,0.178 0.783,0.295 1.172,0.279c1.381,-0.055 2.768,-0.116 4.133,-0.314c0.451,-0.065 0.884,-0.506 1.248,-0.857c0.431,-0.415 0.778,-0.918 1.211,-1.443c-0.488,-1.027 -0.987,-2.08 -1.487,-3.133c-0.553,1.629 -1.73,1.937 -3.071,2.005c-0.289,0.014 -0.577,0.05 -0.864,0.089c-1.675,0.227 -3.095,-0.096 -3.84,-1.888m-3.005,-51.322l-0.161,0.401c0.341,0.224 0.657,0.58 1.027,0.649c4.056,0.763 6.666,3.281 8.354,6.879c0.425,0.906 0.981,1.524 1.942,1.77c1.498,-1.172 2.075,-1.81 2.523,-2.787c0.605,-1.32 0.191,-2.531 -1.165,-3.044c-2.869,-1.085 -5.745,-2.159 -8.657,-3.117c-1.236,-0.406 -2.572,-0.51 -3.863,-0.751m8.019,43.359c-1.929,0.358 -3.661,0.68 -5.632,1.046c0.61,2.285 1.113,4.402 1.757,6.475c0.277,0.893 1.263,1.116 2.037,1.042c1.017,-0.096 2.276,0.39 2.989,-0.852c0.613,-1.065 0.743,-2.159 0.272,-3.321c-0.277,-0.683 -0.503,-1.389 -0.73,-2.091c-0.229,-0.706 -0.43,-1.422 -0.693,-2.299m-7.538,-32.305c0.143,0.515 0.207,0.923 0.367,1.289c1.306,2.983 0.503,2.488 3.698,2.279c1.493,-0.098 2.751,-0.826 3.937,-1.656c0.984,-0.69 1.146,-1.095 0.739,-2.202c-0.413,-1.12 -0.993,-2.178 -1.411,-3.075c-3.198,-0.196 -5.188,1.586 -7.33,3.365m13.613,14.399c-0.693,-1.983 -1.299,-3.717 -1.951,-5.584c-1.395,0.413 -2.636,0.862 -3.916,1.136c-1.322,0.285 -2.737,0.182 -4.141,1.062c1.255,1.883 1.456,4.18 3.054,5.985c2.306,-0.862 4.562,-1.705 6.954,-2.599m4.736,-56.544c2.318,-2.719 4.303,-5.49 6.08,-8.407c0.604,-0.993 0.318,-1.541 -0.823,-1.625c-1.321,-0.096 -2.668,0.031 -3.969,-0.168c-1.055,-0.162 -1.425,0.359 -1.893,1.094c-1.199,1.884 -1.311,4.034 -1.654,6.134c-0.139,0.853 0.158,1.425 0.931,1.844c0.445,0.242 0.793,0.663 1.328,1.128m-3.573,-1.913c0.611,-3.909 -0.674,-7.498 -0.973,-11.475c-2.573,1.508 -4.872,2.856 -7.11,4.169c2.137,2.712 4.13,5.242 6.091,7.731c0.667,-0.142 1.226,-0.262 1.992,-0.425m-32.814,98.125c0.348,0.331 0.597,0.778 0.915,0.834c1.527,0.268 3.069,0.461 4.612,0.615c0.625,0.063 1.041,-0.351 1.405,-0.86c1.811,-2.527 4.262,-4.372 6.746,-6.161c1.157,-0.833 2.406,-1.536 3.915,-2.489c-1.952,0.047 -3.524,0.096 -4.677,-0.953c-5.324,1.67 -9.494,4.708 -12.916,9.014m24.06,-59.044c-1.017,-1.517 -2.376,-2.164 -3.696,-2.894c-1.253,-0.692 -2.497,-0.856 -3.834,-0.34c-1.667,0.644 -3.302,1.422 -5.021,1.876c-2.046,0.541 -3.115,1.904 -3.74,3.736c-0.276,0.811 -0.402,1.691 -0.477,2.549c-0.148,1.703 -0.214,3.413 0.073,5.369c0.956,-0.477 1.655,-0.825 2.277,-1.135c0.388,-1.77 0.388,-1.77 0.062,-3.564c-0.276,-1.512 0.563,-2.918 2.016,-3.38c0.979,-0.312 1.374,-0.207 1.842,0.708c0.367,0.715 0.61,1.498 0.877,2.261c0.633,1.815 2.108,2.689 3.905,3.741c-0.528,-1.324 -0.967,-2.275 -1.288,-3.265c-0.384,-1.185 -0.223,-1.572 0.831,-2.31c0.614,-0.43 1.253,-0.832 1.915,-1.183c1.362,-0.722 2.748,-1.403 4.258,-2.169m7.971,20.4c-2.03,0.74 -3.926,1.441 -5.829,2.123c-2.438,0.876 -2.433,0.867 -3.343,-1.618c-0.601,-1.64 -1.2,-3.283 -2.174,-4.587c-1.24,1.549 -2.245,3.227 -3.65,4.443c-1.5,1.298 -3.588,1.254 -5.466,1.233c0.63,1.584 1.218,3.091 1.83,4.588c0.879,2.152 2.239,2.859 4.42,2.101c2.898,-1.007 5.773,-2.091 8.614,-3.253c1.707,-0.698 3.369,-1.535 4.975,-2.444c1.076,-0.609 1.061,-0.874 0.623,-2.586m-1.452,-24.246c0.443,-1.895 0.84,-3.699 1.288,-5.49c0.809,-3.233 2.291,-6.174 3.958,-9.037c0.833,-1.432 1.267,-2.986 1.023,-4.668c-0.137,-0.94 -0.406,-1.8 -1.501,-2.186c-0.288,0.326 -0.651,0.582 -0.799,0.929c-1.31,3.081 -3.62,5.388 -5.986,7.616c-0.866,0.816 -1.504,1.619 -1.858,2.761c-0.695,2.239 -2.645,3.176 -4.615,3.899c-1.553,0.569 -3.08,0.219 -4.223,-1.003c-1.433,1.099 -2.776,2.128 -4.151,3.182c0.213,0 0.392,0.034 0.554,-0.004c1.037,-0.245 2.115,-0.83 2.856,0.577c0.088,0.167 0.649,0.113 0.99,0.115c1.457,0.01 2.875,0.18 4.263,0.681c2.339,0.844 4.7,1.625 7.059,2.41c0.418,0.139 0.872,0.168 1.142,0.218m-39.416,4.045c-0.817,0.077 -1.565,0.104 -2.299,0.223c-3.638,0.589 -7.273,0.657 -10.946,0.271c-1.713,-0.18 -3.352,-0.829 -5.159,-0.563c-1.198,0.176 -1.736,-0.529 -2.185,-1.82c-0.264,-0.758 -0.514,-1.581 -1.004,-2.186c-0.604,-0.747 -1.387,-1.461 -2.539,-1.104c-1.578,0.489 -2.695,1.546 -3.534,2.927c-0.351,0.577 -0.199,1.12 0.205,1.606c0.37,0.447 0.813,0.336 1.268,0.141c0.425,-0.182 0.879,-0.304 1.282,-0.525c0.525,-0.288 1.011,-0.646 1.624,-1.045c0.157,0.802 0.232,1.38 0.387,1.935c0.588,2.095 1.61,2.817 3.416,2.469c0.08,-0.016 0.187,0.107 0.371,0.22c-0.046,0.644 -0.416,0.983 -1.075,1.037c-0.731,0.06 -1.379,-0.098 -1.866,-0.714c-0.405,-0.511 -0.846,-0.992 -1.321,-1.544c-0.592,1.182 -0.912,2.197 -0.546,3.447c0.189,0.642 -0.172,1.456 -0.327,2.183c-0.074,0.344 -0.247,0.665 -0.431,1.141c1.212,-0.377 2.321,-0.507 3.169,-1.046c0.867,-0.552 1.478,-1.506 2.097,-2.172c6.867,1.311 13.633,1.367 20.549,0.335c-0.393,-1.803 -0.733,-3.368 -1.136,-5.216m19.775,9.921c-0.397,0.143 -0.785,0.228 -1.117,0.413c-0.85,0.474 -1.748,0.904 -2.488,1.518c-0.684,0.567 -0.665,1.222 0.031,1.753c0.718,0.548 0.703,1.024 0.376,1.775c-0.479,1.099 -0.366,1.267 0.7,1.942c0.24,0.152 0.493,0.283 0.707,0.405c0.391,2.062 0.639,2.303 2.636,2.656c2.726,0.481 4.912,-0.331 6.449,-2.691c0.819,-1.257 1.626,-2.523 2.279,-3.539c1.223,-0.171 2.183,-0.279 3.132,-0.446c0.971,-0.171 1.929,-0.419 2.9,-0.602c2.423,-0.456 4.466,-1.627 6.137,-3.397c0.491,-0.519 1.047,-1.333 0.984,-1.95c-0.187,-1.804 -0.99,-3.391 -2.586,-4.663c-0.696,0.656 -1.275,1.3 -1.957,1.802c-0.334,0.245 -0.643,0.347 -0.669,0.85c-0.079,1.556 -1.188,2.365 -2.429,2.906c-2.41,1.05 -4.975,1.507 -7.593,1.655c-0.79,0.044 -1.537,-0.125 -2.016,-0.809c-0.892,-1.274 -2.178,-1.843 -3.624,-2.201c-1.616,-0.4 -2.222,0.083 -2.022,1.686c0.035,0.276 0.098,0.548 0.17,0.937m33.76,-11.289c-2.181,-3.486 -2.375,-7.016 -1.209,-10.682c0.315,-0.99 0.682,-1.965 1.064,-2.931c0.888,-2.237 1.09,-4.631 0.555,-6.868c-0.964,-4.026 -3.568,-6.964 -7.176,-8.99c-0.194,-0.108 -0.488,-0.249 -0.643,-0.176c-0.825,0.387 -1.697,0.741 -2.4,1.3c-0.425,0.339 -0.571,1.027 -0.815,1.503c0.816,0.542 1.411,0.993 2.057,1.356c1.862,1.043 2.27,2.847 1.979,4.64c-0.272,1.682 -0.934,3.373 -1.759,4.876c-1.404,2.557 -2.596,5.187 -3.535,7.938c-0.604,1.77 -0.981,3.565 -0.834,5.473c0.094,1.214 0.648,2.037 1.702,2.382c1.038,0.34 2.165,0.409 3.271,0.599c-0.282,-5.117 2.115,-11.625 4.678,-12.75c-0.067,0.173 -0.09,0.358 -0.192,0.477c-1.756,2.054 -1.897,4.515 -1.812,7.042c0.028,0.813 -0.051,1.631 0.015,2.439c0.063,0.782 0.249,1.554 0.387,2.372l4.667,0Zm-14.692,51.919c-0.178,-0.012 -0.246,-0.038 -0.289,-0.016c-0.258,0.133 -0.511,0.277 -0.764,0.42c-2.491,1.395 -5.154,1.049 -7.811,0.774c-0.935,-0.922 -1.764,-0.309 -2.687,0.101c-3.67,1.628 -6.733,4.107 -9.597,6.839c-0.675,0.644 -1.137,1.599 -1.464,2.496c-0.485,1.332 -0.134,1.907 1.22,2.071c1.783,0.215 3.583,0.365 5.377,0.389c2.143,0.029 4.288,-0.12 6.432,-0.159c0.922,-0.017 1.865,0.185 2.765,0.054c2.98,-0.437 5.943,-0.993 8.917,-1.472c0.838,-0.134 1.43,-0.534 1.643,-1.34c0.173,-0.659 0.355,-1.364 0.295,-2.027c-0.296,-3.254 -1.777,-5.933 -4.037,-8.13m3.52,-75.995c-1.79,-0.589 -2.689,-2.506 -4.625,-2.94c-0.417,-0.094 -0.782,-0.68 -1.053,-1.114c-1.315,-2.105 -1.102,-4.929 0.503,-6.986c0.457,-0.585 0.964,-1.132 1.522,-1.782c-1.354,-1.813 -2.653,-3.592 -3.999,-5.336c-0.525,-0.679 -1.062,-1.366 -1.968,-1.648c-0.268,-0.084 -0.609,-0.489 -0.618,-0.757c-0.057,-1.63 -1.317,-2.14 -2.486,-2.532c-1.639,-0.549 -3.359,-0.861 -5.051,-1.251c-1.522,-0.35 -3.053,-0.665 -4.579,-1.001c-1.517,-0.335 -3.034,-0.638 -4.909,-0.287c0.99,1.093 1.836,2.02 2.673,2.956c0.343,0.383 0.724,0.748 0.987,1.183c2.794,4.635 3.917,9.748 4.249,15.08c0.021,0.347 -0.003,0.697 -0.012,1.046c-0.022,0.872 -0.487,1.4 -1.3,1.64c-0.323,0.095 -0.656,0.155 -0.958,0.225c-0.291,2.394 0.253,3.925 1.943,5.285c0.902,0.726 1.886,1.349 2.821,2.034c0.955,0.699 1.843,0.837 2.792,-0.069c0.351,-0.336 0.894,-0.561 1.383,-0.646c2.836,-0.497 5.188,0.787 6.33,3.42c0.182,0.418 0.268,0.878 0.471,1.569c2.011,-2.739 4.889,-4.623 5.884,-8.089m-20.782,-4.954c0.071,-0.564 0.202,-1.108 0.192,-1.65c-0.015,-0.81 -0.135,-1.618 -0.204,-2.427c-0.316,-3.748 -1.267,-7.337 -3.229,-10.544c-1.049,-1.714 -2.444,-3.242 -3.825,-4.721c-1.138,-1.218 -2.599,-1.929 -4.371,-1.735c-0.395,0.043 -0.831,0.023 -1.204,-0.101c-1.246,-0.417 -2.342,-0.127 -3.422,0.53c-2.84,1.728 -5.046,4.055 -6.689,6.935c-0.552,0.966 -1.137,1.913 -1.707,2.869c0.769,-3.886 3.35,-6.646 5.813,-9.479c-6.323,2.779 -13.527,12.398 -13.334,18.283c2.041,0.853 15.681,2.302 17.84,1.896c0.396,-2.2 1.601,-5.461 2.505,-6.67c0.21,1.308 -0.594,2.243 -0.85,3.313c-0.271,1.132 -1.1,2.2 -0.606,3.435l2.453,0c0.345,-1.41 0.618,-2.715 0.986,-3.994c0.83,-2.886 0.849,-2.88 1.589,-3.455c-0.583,2.5 -1.141,4.896 -1.735,7.447c0.697,0.057 1.204,0.135 1.71,0.133c2.583,-0.009 5.167,-0.04 8.088,-0.065m17.747,54.942c-1.032,0.483 -1.817,0.855 -2.607,1.219c-1.369,0.631 -2.712,1.332 -4.118,1.866c-1.622,0.617 -3.325,1.016 -4.944,1.638c-1.236,0.475 -2.449,0.576 -3.754,0.481c-0.957,-0.069 -1.465,-0.427 -1.805,-1.305c-0.771,-1.993 -1.665,-3.939 -2.421,-5.937c-0.283,-0.746 -0.586,-1.267 -1.395,-1.576c-0.463,-0.178 -0.91,-0.769 -1.074,-1.269c-0.248,-0.756 -0.539,-1.374 -1.265,-1.765c-0.24,-0.129 -0.502,-0.38 -0.575,-0.628c-0.377,-1.289 0.095,-2.741 -0.779,-3.955c-0.137,-0.19 -0.059,-0.577 0,-0.855c0.071,-0.334 0.263,-0.64 0.342,-0.973c0.13,-0.548 0.405,-1.156 0.279,-1.652c-0.643,-2.517 -0.223,-4.95 0.408,-7.377c0.252,-0.971 0.572,-1.925 0.897,-3.008c-0.974,0.064 -1.804,-0.034 -2.22,-0.893c-0.348,-0.718 -0.611,-1.476 -0.897,-2.181c-0.28,-0.041 -0.459,-0.114 -0.617,-0.082c-3.459,0.717 -6.92,1.425 -10.37,2.186c-1.159,0.255 -1.473,0.789 -1.23,2.052c0.371,1.929 0.804,3.847 1.25,5.761c0.229,0.981 0.67,1.308 1.634,1.048c2.108,-0.568 4.188,-1.24 6.196,-1.845c0.191,-0.924 0.349,-1.601 0.466,-2.285c0.109,-0.641 -0.176,-1.415 0.834,-1.934c0.126,0.394 0.337,0.725 0.313,1.037c-0.095,1.268 -0.25,2.532 -0.406,3.794c-0.348,2.814 -0.658,5.634 -1.076,8.437c-0.744,4.985 -1.559,9.959 -2.339,14.938c-0.269,1.72 -0.568,3.436 -0.766,5.164c-0.137,1.204 0.013,1.362 1.177,1.77c0.489,0.171 1.006,0.272 1.518,0.365c1.083,0.195 2.177,0.33 3.256,0.549c3.049,0.618 6.14,0.673 9.207,0.408c3.226,-0.28 6.422,-0.901 9.641,-1.29c2.948,-0.355 5.797,-1.074 8.56,-2.127c0.665,-0.253 1.242,-0.737 1.825,-1.094c-1.086,-2.999 -2.088,-5.765 -3.145,-8.682m-47.102,-55.035c-0.518,1.773 -1.036,3.528 -1.545,5.284c-0.974,3.369 -0.616,6.686 0.58,9.906c0.434,1.166 1.078,2.353 1.925,3.248c2.347,2.48 5.215,4.167 8.552,5.05c3.305,0.875 6.578,1.815 10.062,1.078c2.826,-0.597 5.628,-1.207 8.308,-2.366c2.165,-0.936 3.915,-2.447 5.826,-3.736c0.298,-0.202 0.439,-0.638 0.647,-0.969c0.343,-0.548 0.706,-1.054 1.634,-0.808c-0.13,0.638 -0.25,1.226 -0.367,1.797c1.088,0.802 1.368,0.896 2.205,0.748c2.922,-0.518 4.72,-2.436 5.06,-5.396c0.231,-2.006 -1.443,-4.05 -3.443,-4.26c-1.378,-0.145 -2.519,0.101 -3.254,1.44c-0.315,0.575 -0.8,1.044 -1.558,0.506c-1.413,-1.005 -2.814,-2.029 -4.26,-2.984c-1.823,-1.203 -2.711,-2.952 -3.127,-5.016c-0.136,-0.674 -0.292,-1.344 -0.45,-2.067c-8.917,0.221 -17.685,-0.404 -26.795,-1.455m17.458,26.03c-3.426,0.075 -6.61,-0.977 -9.847,-1.94c-3.154,-0.938 -5.428,-3.051 -7.818,-5.067c-0.264,-0.223 -0.592,-0.459 -0.705,-0.76c-1.142,-3.022 -2.433,-5.965 -2.114,-9.379c0.222,-2.381 0.616,-4.695 1.225,-6.99c0.171,-0.646 0.35,-1.29 0.524,-1.931c-0.915,-0.306 -1.844,-0.615 -2.787,-0.929c-0.592,-1.257 0.188,-2.325 0.527,-3.355c0.944,-2.867 2.216,-5.637 3.973,-8.087c1.343,-1.872 3.047,-3.489 4.628,-5.184c0.591,-0.633 1.32,-1.134 1.933,-1.749c2.118,-2.121 4.804,-2.737 7.645,-2.871c1.906,-0.09 3.819,-0.102 5.725,-0.044c4.054,0.123 8.065,0.596 12.004,1.618c1.165,0.303 2.381,0.403 3.554,0.681c1.891,0.449 3.557,1.376 5.079,2.756c2.616,-1.508 5.165,-2.977 7.912,-4.56c0.159,0.436 0.38,0.816 0.43,1.217c0.24,1.953 0.432,3.911 0.648,5.867c0.029,0.258 0.101,0.51 0.463,0.818c0.433,-1.163 0.898,-2.316 1.289,-3.493c0.388,-1.165 0.354,-1.159 1.546,-1.06c1.735,0.144 3.473,0.262 5.209,0.39c0.233,0.017 0.468,0.011 0.697,0.045c1.728,0.259 2.172,1.22 1.16,2.68c-1.721,2.482 -3.498,4.926 -5.253,7.385c-0.302,0.424 -0.611,0.844 -0.986,1.361c0.323,0.271 0.609,0.524 0.908,0.761c0.319,0.252 0.675,0.463 0.972,0.738c1.383,1.275 1.431,2.36 0.177,4.077c1.761,1.435 3.291,3.087 4.55,4.988c2.218,3.35 2.822,6.931 1.647,10.799c-0.588,1.94 -1.297,3.866 -1.644,5.851c-0.485,2.787 -0.451,5.557 1.763,7.807c0.268,0.273 0.478,1.011 0.315,1.214c-0.318,0.396 -0.938,0.822 -1.397,0.785c-1.506,-0.123 -2.983,-0.277 -4.493,0.052c-0.762,0.165 -1.255,-0.363 -1.339,-1.197c-0.182,-1.785 -0.353,-3.571 -0.531,-5.395c-0.772,2.202 -0.436,4.483 -0.476,6.917c-1.698,0.096 -3.187,-0.869 -4.974,-0.602c-0.291,0.668 -0.63,1.447 -0.906,2.081c0.792,1.134 1.578,2.127 2.221,3.206c1.291,2.166 0.799,4.627 -1.18,6.205c-0.811,0.647 -1.656,1.251 -2.539,1.913c0.504,1.564 0.94,3.122 1.515,4.627c0.334,0.875 0.872,1.628 1.114,2.599c0.356,1.433 0.161,2.484 -0.997,3.368c-0.18,0.137 -0.34,0.299 -0.568,0.502c0.687,2.712 1.648,5.313 2.896,7.796c0.846,1.686 0.543,2.481 -1.282,3.01c-2.157,0.626 -4.301,1.297 -6.508,1.966c0.391,1.856 0.875,3.601 1.837,5.247c0.899,1.539 1.506,3.25 2.229,4.891c0.09,0.207 0.19,0.483 0.127,0.673c-0.497,1.485 0.477,2.363 1.283,3.349c1.852,2.262 2.927,4.889 3.152,7.78c0.145,1.855 -0.517,4.175 -3.196,4.373c-3.407,0.252 -6.654,1.684 -10.119,1.413c-3.185,-0.25 -6.362,0.141 -9.541,0.019c-1.217,-0.047 -2.431,-0.193 -3.646,-0.284c-1.737,-0.131 -3.021,-0.811 -3.237,-2.713c-1.286,-0.199 -2.505,-0.306 -3.678,-0.597c-0.884,-0.22 -1.776,-0.569 -2.544,-1.053c-1.112,-0.702 -1.137,-1.742 -0.192,-2.612c1.58,-1.455 3.043,-3.084 4.792,-4.3c2.026,-1.408 3.981,-2.995 6.414,-3.768c1.712,-0.543 1.706,-0.66 1.35,-2.37c-0.153,-0.739 -0.278,-1.483 -0.385,-2.229c-0.145,-1.011 0.049,-1.969 0.538,-2.863c0.754,-1.378 0.757,-1.377 0.335,-2.954c-0.24,-0.052 -0.518,-0.178 -0.789,-0.163c-2.515,0.143 -4.975,-0.338 -7.459,-0.555c-1.935,-0.169 -3.794,-0.49 -5.604,-1.158c-0.327,-0.12 -0.67,-0.219 -0.968,-0.392c-0.506,-0.295 -0.626,-0.702 -0.487,-1.321c0.781,-3.499 1.684,-6.985 2.207,-10.525c0.871,-5.909 1.486,-11.856 2.205,-17.788c0.006,-0.046 -0.046,-0.1 -0.121,-0.252c-0.659,-0.307 -1.28,0.184 -1.914,0.337c-1.404,0.338 -2.777,0.805 -4.179,1.152c-1.678,0.415 -1.902,0.261 -2.525,-1.422c-0.059,-0.158 -0.155,-0.303 -0.289,-0.558c-1.799,0.23 -3.634,0.409 -5.448,0.709c-2.964,0.49 -5.888,0.291 -8.829,-0.212c-1.709,-0.293 -3.458,-0.358 -5.183,-0.569c-0.677,-0.082 -1.045,0.299 -1.501,0.683c-1.999,1.684 -4.278,2.401 -6.889,1.835c-0.567,-0.123 -1.152,-0.182 -1.701,-0.356c-1.744,-0.553 -2.88,-2.158 -2.949,-4.039c-0.012,-0.33 -0.057,-0.754 -0.261,-0.964c-0.611,-0.63 -0.53,-1.37 -0.496,-2.117c0.046,-0.964 0.062,-1.907 -0.047,-2.888c-0.269,-2.441 0.928,-3.509 3.412,-3.314c0.174,0.014 0.352,-0.002 0.523,0.027c0.726,0.125 1.389,0.056 1.903,-0.554c0.073,-0.087 0.175,-0.157 0.276,-0.21c2.406,-1.278 3.655,-0.952 5.103,0.74c0.371,0.432 0.731,0.951 0.871,1.489c0.438,1.695 1.448,2.419 3.181,2.156c0.226,-0.034 0.495,-0.053 0.692,0.036c2.74,1.247 5.605,0.611 8.412,0.492c2.133,-0.091 4.309,0.096 6.397,-0.572c0.276,-0.088 0.636,-0.046 0.84,-0.209c1.583,-1.273 3.547,-1.183 5.377,-1.607c1.618,-0.374 3.187,-0.956 4.778,-1.446l1.499,0c-0.011,-0.1 -0.022,-0.2 -0.032,-0.3c-0.476,0.116 -0.953,0.23 -1.429,0.346" style="fill:#231f20;fill-rule:nonzero;"/><path d="M30.67,85.025l0,1.465c-0.007,0 -0.013,0 -0.02,0.001l0,-1.465c0.007,0 0.013,-0.001 0.02,-0.001" style="fill:#231f20;fill-rule:nonzero;"/><path d="M30.682,83.682c0.011,0.05 0.036,0.102 0.03,0.148c-0.006,0.046 -0.045,0.088 -0.069,0.131c-0.01,-0.05 -0.034,-0.102 -0.028,-0.149c0.006,-0.046 0.043,-0.087 0.067,-0.13" style="fill:#231f20;fill-rule:nonzero;"/><path d="M63.149,52.832c-0.864,0.859 -1.359,1.979 -1.2,2.877c0.043,0.241 0.259,0.606 0.436,0.633c0.286,0.042 0.695,-0.061 0.896,-0.26c0.718,-0.711 0.62,-2.332 -0.132,-3.25m9.918,-0.042c-0.773,1.232 -1.126,2.43 -1.017,3.734c0.072,0.854 0.726,1.221 1.281,0.75c0.725,-0.615 0.859,-1.479 0.867,-2.371c0.007,-0.822 -0.038,-1.624 -1.131,-2.113m29.674,13.863c0.682,-1.615 0.538,-2.418 -0.369,-3.246c-0.715,-0.653 -1.61,-0.674 -2.554,-0.061c-1.239,0.804 -1.633,1.692 -1.264,3.132c0.575,-0.66 1.042,-1.291 1.606,-1.819c0.664,-0.622 1.441,-0.492 1.886,0.284c0.249,0.434 0.386,0.934 0.695,1.71m-25.361,1.105c-0.158,0.251 -0.248,0.339 -0.272,0.441c-0.626,2.659 -1.304,3.206 -4.042,3.276c-0.739,0.018 -1.477,0.074 -2.332,0.119c2.211,1.982 6.068,1.08 7.061,-1.497c0.321,-0.83 0.297,-1.571 -0.415,-2.339m-9.355,-6.095c-1.584,0.828 -2.814,1.409 -4.041,0.276c-0.664,-0.612 -0.937,-1.474 -0.6,-2.217c0.61,-1.347 1.831,-1.925 3.376,-1.812c-0.832,-1.406 -1.001,-1.442 -2.687,-0.673c-1.301,0.594 -2.115,1.924 -1.921,3.536c0.143,1.179 0.765,2.233 1.917,2.707c1.357,0.558 2.615,0.2 3.657,-0.827c0.125,-0.123 0.122,-0.378 0.299,-0.99m-6.096,-10.529c9.11,1.051 17.878,1.675 26.795,1.455c0.158,0.722 0.314,1.392 0.45,2.067c0.416,2.063 1.304,3.813 3.127,5.015c1.446,0.955 2.847,1.98 4.26,2.984c0.758,0.539 1.243,0.069 1.558,-0.505c0.735,-1.339 1.876,-1.585 3.254,-1.44c2,0.21 3.673,2.254 3.443,4.26c-0.34,2.96 -2.138,4.877 -5.061,5.395c-0.836,0.149 -1.116,0.055 -2.204,-0.748c0.117,-0.571 0.237,-1.158 0.367,-1.797c-0.928,-0.245 -1.291,0.261 -1.634,0.808c-0.208,0.331 -0.349,0.768 -0.647,0.969c-1.911,1.289 -3.661,2.801 -5.826,3.737c-2.68,1.158 -5.482,1.769 -8.308,2.366c-3.484,0.736 -6.757,-0.204 -10.062,-1.078c-3.337,-0.883 -6.205,-2.57 -8.552,-5.05c-0.847,-0.895 -1.491,-2.082 -1.925,-3.249c-1.196,-3.22 -1.554,-6.536 -0.58,-9.905c0.509,-1.757 1.027,-3.511 1.545,-5.284" style="fill:#fdd8bd;fill-rule:nonzero;"/><path d="M109.031,106.169c1.057,2.917 2.059,5.682 3.145,8.681c-0.583,0.357 -1.16,0.842 -1.825,1.095c-2.763,1.053 -5.612,1.771 -8.56,2.127c-3.219,0.389 -6.415,1.01 -9.641,1.289c-3.067,0.266 -6.158,0.211 -9.207,-0.407c-1.079,-0.219 -2.173,-0.354 -3.256,-0.55c-0.511,-0.092 -1.029,-0.193 -1.518,-0.364c-1.164,-0.408 -1.314,-0.567 -1.177,-1.771c0.198,-1.727 0.497,-3.444 0.767,-5.163c0.779,-4.979 1.594,-9.954 2.338,-14.938c0.418,-2.804 0.728,-5.624 1.076,-8.437c0.156,-1.263 0.311,-2.526 0.406,-3.794c0.024,-0.312 -0.187,-0.643 -0.313,-1.037c-1.01,0.519 -0.725,1.293 -0.834,1.934c-0.117,0.684 -0.275,1.36 -0.465,2.284c-2.009,0.605 -4.089,1.278 -6.197,1.846c-0.964,0.26 -1.405,-0.067 -1.634,-1.048c-0.446,-1.914 -0.879,-3.832 -1.25,-5.762c-0.243,-1.262 0.071,-1.796 1.23,-2.052c3.45,-0.761 6.911,-1.468 10.37,-2.185c0.158,-0.033 0.337,0.041 0.617,0.082c0.286,0.704 0.549,1.463 0.897,2.18c0.416,0.859 1.246,0.958 2.22,0.894c-0.325,1.082 -0.645,2.036 -0.897,3.008c-0.631,2.427 -1.051,4.859 -0.408,7.376c0.126,0.496 -0.149,1.105 -0.279,1.652c-0.079,0.333 -0.271,0.64 -0.342,0.974c-0.059,0.278 -0.137,0.665 0,0.855c0.874,1.213 0.402,2.666 0.779,3.955c0.073,0.248 0.335,0.499 0.575,0.628c0.726,0.391 1.017,1.008 1.265,1.765c0.164,0.5 0.611,1.091 1.074,1.268c0.809,0.31 1.112,0.83 1.395,1.577c0.756,1.998 1.65,3.944 2.421,5.937c0.34,0.877 0.848,1.235 1.805,1.305c1.305,0.094 2.518,-0.006 3.754,-0.481c1.619,-0.622 3.322,-1.022 4.944,-1.638c1.406,-0.535 2.749,-1.235 4.119,-1.866c0.789,-0.365 1.574,-0.736 2.606,-1.219" style="fill:#f38596;fill-rule:nonzero;"/><path d="M91.284,51.226c-2.921,0.026 -5.504,0.056 -8.088,0.065c-0.506,0.002 -1.013,-0.076 -1.71,-0.133c0.594,-2.551 1.152,-4.946 1.735,-7.446c-0.74,0.574 -0.759,0.569 -1.589,3.455c-0.368,1.278 -0.641,2.584 -0.986,3.994l-2.453,0c-0.494,-1.236 0.335,-2.303 0.606,-3.435c0.256,-1.07 1.06,-2.006 0.85,-3.313c-0.904,1.209 -2.109,4.469 -2.505,6.669c-2.158,0.406 -15.799,-1.043 -17.84,-1.895c-0.193,-5.886 7.011,-15.505 13.334,-18.284c-2.463,2.834 -5.044,5.594 -5.813,9.48c0.57,-0.956 1.155,-1.903 1.707,-2.87c1.643,-2.88 3.849,-5.207 6.689,-6.935c1.08,-0.657 2.176,-0.946 3.422,-0.53c0.373,0.125 0.809,0.144 1.204,0.101c1.772,-0.194 3.233,0.517 4.372,1.736c1.38,1.479 2.775,3.007 3.824,4.721c1.962,3.207 2.913,6.795 3.229,10.543c0.069,0.81 0.189,1.618 0.204,2.428c0.011,0.541 -0.121,1.086 -0.192,1.649" style="fill:#775a30;fill-rule:nonzero;"/><path d="M112.066,56.18c-0.995,3.467 -3.873,5.351 -5.884,8.089c-0.203,-0.691 -0.289,-1.151 -0.471,-1.569c-1.142,-2.632 -3.494,-3.917 -6.33,-3.42c-0.489,0.086 -1.032,0.311 -1.383,0.646c-0.949,0.906 -1.837,0.768 -2.792,0.069c-0.935,-0.685 -1.919,-1.307 -2.821,-2.033c-1.69,-1.361 -2.235,-2.892 -1.944,-5.285c0.303,-0.071 0.636,-0.131 0.959,-0.226c0.813,-0.24 1.278,-0.768 1.3,-1.64c0.009,-0.348 0.033,-0.698 0.012,-1.046c-0.332,-5.332 -1.455,-10.444 -4.25,-15.08c-0.262,-0.435 -0.644,-0.799 -0.986,-1.182c-0.837,-0.936 -1.683,-1.864 -2.673,-2.956c1.875,-0.351 3.392,-0.048 4.909,0.286c1.526,0.337 3.057,0.651 4.579,1.001c1.692,0.39 3.412,0.702 5.051,1.252c1.169,0.392 2.429,0.902 2.486,2.532c0.009,0.268 0.35,0.673 0.618,0.756c0.906,0.283 1.443,0.969 1.968,1.649c1.346,1.743 2.645,3.523 3.999,5.336c-0.558,0.65 -1.065,1.196 -1.522,1.781c-1.605,2.058 -1.818,4.881 -0.503,6.986c0.271,0.434 0.636,1.02 1.053,1.114c1.936,0.435 2.835,2.351 4.625,2.94" style="fill:#775a30;fill-rule:nonzero;"/><path d="M108.546,132.176c2.26,2.196 3.741,4.875 4.037,8.13c0.06,0.663 -0.122,1.368 -0.295,2.026c-0.213,0.807 -0.805,1.206 -1.643,1.341c-2.974,0.479 -5.937,1.035 -8.917,1.471c-0.9,0.132 -1.843,-0.071 -2.765,-0.053c-2.145,0.039 -4.289,0.188 -6.432,0.159c-1.794,-0.024 -3.594,-0.175 -5.377,-0.389c-1.354,-0.164 -1.705,-0.74 -1.22,-2.071c0.327,-0.897 0.789,-1.852 1.464,-2.496c2.864,-2.732 5.927,-5.212 9.597,-6.84c0.923,-0.409 1.752,-1.023 2.687,-0.1c2.656,0.275 5.32,0.621 7.811,-0.775c0.253,-0.142 0.506,-0.286 0.763,-0.419c0.044,-0.023 0.112,0.004 0.29,0.016" style="fill:#515153;fill-rule:nonzero;"/><path d="M123.238,80.257l-4.667,0c-0.138,-0.817 -0.324,-1.59 -0.387,-2.372c-0.066,-0.808 0.013,-1.626 -0.015,-2.439c-0.085,-2.527 0.056,-4.988 1.812,-7.042c0.102,-0.119 0.125,-0.304 0.192,-0.477c-2.563,1.125 -4.96,7.633 -4.678,12.75c-1.106,-0.19 -2.233,-0.258 -3.271,-0.599c-1.054,-0.345 -1.608,-1.168 -1.702,-2.382c-0.147,-1.908 0.23,-3.703 0.834,-5.473c0.939,-2.751 2.132,-5.381 3.535,-7.938c0.825,-1.503 1.487,-3.194 1.759,-4.876c0.291,-1.793 -0.117,-3.596 -1.979,-4.64c-0.646,-0.363 -1.241,-0.814 -2.057,-1.356c0.244,-0.476 0.39,-1.164 0.815,-1.503c0.703,-0.559 1.575,-0.913 2.4,-1.3c0.155,-0.073 0.45,0.068 0.643,0.176c3.608,2.026 6.212,4.965 7.176,8.991c0.535,2.236 0.333,4.63 -0.555,6.867c-0.382,0.966 -0.749,1.942 -1.063,2.931c-1.167,3.666 -0.973,7.197 1.208,10.682" style="fill:#775a30;fill-rule:nonzero;"/><path d="M89.478,91.546c-0.071,-0.389 -0.135,-0.662 -0.169,-0.937c-0.201,-1.604 0.405,-2.086 2.022,-1.686c1.445,0.358 2.731,0.926 3.624,2.201c0.478,0.683 1.226,0.853 2.016,0.808c2.617,-0.147 5.182,-0.605 7.592,-1.654c1.242,-0.541 2.351,-1.351 2.43,-2.906c0.026,-0.503 0.335,-0.606 0.668,-0.85c0.683,-0.502 1.261,-1.146 1.957,-1.803c1.596,1.273 2.399,2.86 2.586,4.664c0.064,0.617 -0.493,1.431 -0.983,1.95c-1.672,1.77 -3.715,2.941 -6.138,3.397c-0.97,0.182 -1.928,0.431 -2.9,0.602c-0.949,0.167 -1.909,0.275 -3.131,0.446c-0.654,1.016 -1.461,2.282 -2.28,3.539c-1.537,2.359 -3.723,3.172 -6.449,2.69c-1.997,-0.353 -2.244,-0.594 -2.636,-2.655c-0.213,-0.122 -0.466,-0.253 -0.707,-0.406c-1.065,-0.674 -1.178,-0.842 -0.7,-1.942c0.327,-0.75 0.342,-1.227 -0.375,-1.774c-0.697,-0.531 -0.716,-1.186 -0.032,-1.753c0.74,-0.615 1.638,-1.045 2.488,-1.518c0.332,-0.185 0.72,-0.27 1.117,-0.413" style="fill:#fdd8bd;fill-rule:nonzero;"/><path d="M69.703,81.625c0.402,1.848 0.743,3.413 1.135,5.216c-6.916,1.032 -13.681,0.976 -20.549,-0.335c-0.618,0.666 -1.229,1.62 -2.096,2.172c-0.848,0.539 -1.957,0.669 -3.169,1.046c0.184,-0.476 0.357,-0.797 0.43,-1.141c0.156,-0.727 0.517,-1.541 0.328,-2.183c-0.367,-1.25 -0.046,-2.265 0.546,-3.447c0.475,0.552 0.916,1.033 1.32,1.544c0.488,0.616 1.136,0.774 1.867,0.714c0.659,-0.054 1.028,-0.393 1.075,-1.037c-0.184,-0.113 -0.291,-0.236 -0.371,-0.22c-1.806,0.348 -2.828,-0.374 -3.416,-2.469c-0.156,-0.555 -0.23,-1.133 -0.388,-1.935c-0.612,0.399 -1.098,0.757 -1.624,1.045c-0.402,0.221 -0.857,0.343 -1.281,0.525c-0.455,0.195 -0.898,0.306 -1.268,-0.141c-0.404,-0.486 -0.557,-1.029 -0.206,-1.606c0.839,-1.381 1.957,-2.438 3.535,-2.927c1.152,-0.357 1.935,0.357 2.539,1.104c0.489,0.605 0.74,1.428 1.004,2.186c0.449,1.291 0.986,1.996 2.185,1.82c1.807,-0.266 3.446,0.383 5.158,0.563c3.674,0.386 7.309,0.318 10.947,-0.271c0.734,-0.119 1.482,-0.146 2.299,-0.223" style="fill:#fdd8bd;fill-rule:nonzero;"/><path d="M110.571,101.825c0.438,1.712 0.453,1.977 -0.623,2.586c-1.606,0.909 -3.268,1.746 -4.975,2.444c-2.84,1.162 -5.715,2.246 -8.614,3.253c-2.181,0.758 -3.541,0.051 -4.42,-2.101c-0.612,-1.496 -1.2,-3.003 -1.83,-4.587c1.879,0.02 3.966,0.064 5.466,-1.234c1.405,-1.215 2.41,-2.893 3.65,-4.443c0.974,1.304 1.573,2.948 2.174,4.587c0.91,2.485 0.905,2.494 3.343,1.619c1.903,-0.683 3.799,-1.383 5.829,-2.124" style="fill:#fff;fill-rule:nonzero;"/><path d="M102.6,81.426c-1.51,0.766 -2.896,1.446 -4.258,2.169c-0.661,0.351 -1.301,0.753 -1.915,1.183c-1.054,0.738 -1.215,1.125 -0.831,2.31c0.321,0.99 0.76,1.941 1.288,3.264c-1.797,-1.051 -3.272,-1.925 -3.905,-3.74c-0.267,-0.764 -0.51,-1.546 -0.877,-2.262c-0.467,-0.914 -0.862,-1.02 -1.842,-0.708c-1.453,0.463 -2.291,1.869 -2.016,3.381c0.327,1.794 0.327,1.794 -0.061,3.564c-0.623,0.31 -1.322,0.658 -2.277,1.134c-0.287,-1.956 -0.222,-3.666 -0.074,-5.368c0.076,-0.859 0.201,-1.738 0.477,-2.549c0.625,-1.832 1.694,-3.195 3.741,-3.736c1.718,-0.454 3.353,-1.232 5.021,-1.876c1.337,-0.516 2.58,-0.352 3.833,0.34c1.321,0.729 2.679,1.376 3.696,2.894" style="fill:#fff;fill-rule:nonzero;"/><path d="M78.54,140.469c3.422,-4.306 7.592,-7.344 12.916,-9.014c1.153,1.05 2.725,1 4.677,0.953c-1.509,0.953 -2.759,1.657 -3.915,2.489c-2.485,1.789 -4.935,3.635 -6.746,6.161c-0.365,0.509 -0.78,0.924 -1.406,0.861c-1.543,-0.155 -3.085,-0.348 -4.611,-0.616c-0.318,-0.056 -0.567,-0.503 -0.915,-0.834" style="fill:#515153;fill-rule:nonzero;"/><path d="M111.354,42.344c-0.766,0.164 -1.325,0.283 -1.991,0.426c-1.962,-2.49 -3.955,-5.019 -6.092,-7.732c2.239,-1.313 4.538,-2.66 7.11,-4.169c0.299,3.977 1.584,7.566 0.973,11.475" style="fill:#f38596;fill-rule:nonzero;"/><path d="M114.927,44.258c-0.535,-0.465 -0.883,-0.886 -1.328,-1.128c-0.773,-0.419 -1.07,-0.992 -0.931,-1.844c0.343,-2.1 0.455,-4.251 1.654,-6.134c0.468,-0.735 0.838,-1.256 1.893,-1.095c1.301,0.2 2.649,0.073 3.969,0.169c1.141,0.083 1.428,0.632 0.823,1.624c-1.777,2.918 -3.762,5.688 -6.08,8.408" style="fill:#f38596;fill-rule:nonzero;"/><path d="M110.191,100.802c-2.392,0.894 -4.647,1.737 -6.953,2.599c-1.599,-1.806 -1.799,-4.102 -3.054,-5.986c1.403,-0.879 2.819,-0.777 4.141,-1.061c1.279,-0.274 2.521,-0.723 3.915,-1.136c0.652,1.867 1.258,3.601 1.951,5.584" style="fill:#00bcf2;fill-rule:nonzero;"/><path d="M96.578,86.403c2.143,-1.778 4.132,-3.561 7.33,-3.365c0.419,0.897 0.999,1.955 1.411,3.075c0.407,1.107 0.245,1.512 -0.739,2.202c-1.186,0.831 -2.444,1.558 -3.937,1.656c-3.195,0.209 -2.392,0.704 -3.698,-2.279c-0.16,-0.366 -0.223,-0.774 -0.367,-1.289" style="fill:#00bcf2;fill-rule:nonzero;"/><path d="M104.116,118.708c0.263,0.877 0.464,1.593 0.693,2.299c0.227,0.702 0.453,1.408 0.73,2.091c0.472,1.162 0.341,2.256 -0.272,3.321c-0.713,1.242 -1.972,0.756 -2.989,0.852c-0.774,0.074 -1.76,-0.149 -2.037,-1.042c-0.644,-2.073 -1.147,-4.19 -1.757,-6.475c1.971,-0.366 3.703,-0.688 5.632,-1.046" style="fill:#fdd8bd;fill-rule:nonzero;"/><path d="M96.097,75.349c1.291,0.241 2.626,0.345 3.862,0.751c2.913,0.958 5.789,2.032 8.658,3.117c1.356,0.513 1.77,1.724 1.165,3.044c-0.448,0.977 -1.026,1.615 -2.523,2.787c-0.962,-0.246 -1.517,-0.864 -1.942,-1.77c-1.689,-3.598 -4.298,-6.117 -8.355,-6.879c-0.369,-0.07 -0.685,-0.425 -1.026,-0.649l0.161,-0.401Z" style="fill:#f38596;fill-rule:nonzero;"/><path d="M99.102,126.671c0.745,1.792 2.165,2.115 3.84,1.888c0.287,-0.038 0.575,-0.075 0.864,-0.089c1.341,-0.068 2.518,-0.376 3.07,-2.005c0.5,1.053 1,2.106 1.488,3.133c-0.433,0.525 -0.781,1.028 -1.212,1.444c-0.363,0.35 -0.796,0.791 -1.247,0.856c-1.365,0.198 -2.752,0.259 -4.133,0.315c-0.389,0.015 -0.821,-0.102 -1.172,-0.28c-1.254,-0.633 -2.148,-3.711 -1.498,-5.262" style="fill:#fff;fill-rule:nonzero;"/><path d="M114.207,45.346c-1.044,0.782 -1.811,1.379 -2.603,1.942c-1.327,0.944 -2.235,2.131 -2.542,3.783c-0.09,0.487 -0.549,0.906 -0.842,1.362c-2.162,-1.736 -2.442,-4.318 -0.817,-6.403c0.392,-0.503 0.921,-0.905 1.275,-1.43c0.928,-1.376 2.364,-0.903 3.565,-0.875c0.572,0.013 1.125,0.893 1.964,1.621" style="fill:#f38596;fill-rule:nonzero;"/><path d="M98.262,130.679c-1.661,0.499 -3.158,0.404 -4.647,0.273c-0.316,-0.027 -0.649,-0.23 -0.91,-0.434c-1.465,-1.146 -2.075,-4.254 -1.242,-5.913c0.853,0.601 1.636,1.454 2.59,1.742c1.005,0.304 2.174,0.069 3.376,0.069c0.043,0.693 0.019,1.442 0.156,2.16c0.133,0.699 0.432,1.365 0.677,2.103" style="fill:#fff;fill-rule:nonzero;"/><path d="M98.604,124.851c-1.399,0.149 -2.599,0.43 -3.771,0.343c-0.644,-0.048 -1.552,-0.576 -1.797,-1.129c-0.488,-1.101 -1.058,-2.265 -0.989,-3.743c1.57,-0.16 3.048,-0.306 4.525,-0.462c0.765,-0.08 1.197,0.246 1.325,1.009c0.209,1.234 0.436,2.465 0.707,3.982" style="fill:#fdd8bd;fill-rule:nonzero;"/><path d="M111.439,54.431c-0.781,-0.284 -1.214,-0.707 -1.258,-1.612c-0.149,-3.063 1.376,-5.141 4.76,-6.343c1.753,-0.622 2.765,0.108 2.866,2.17c-0.708,0.279 -1.433,0.629 -2.194,0.854c-3.065,0.909 -3.889,1.849 -4.174,4.931" style="fill:#f38596;fill-rule:nonzero;"/><path d="M95.012,76.739c-0.771,0.354 -1.543,0.715 -2.321,1.064c-0.629,0.283 -1.288,0.506 -1.89,0.836c-0.68,0.371 -1.339,0.745 -2.091,0.26c-0.87,-0.561 -0.574,-1.378 -0.553,-2.023c1.521,-0.699 2.865,-1.342 4.229,-1.937c1.563,-0.683 1.91,-0.505 2.481,1.175c0.053,0.157 0.077,0.324 0.145,0.625" style="fill:#ed1c24;fill-rule:nonzero;"/><path d="M45.184,81.766c-0.122,0.659 -0.231,1.248 -0.328,1.769c-1.027,0.388 -1.861,0.315 -2.642,-0.194c-0.92,-0.6 -1.88,-1.154 -2.726,-1.846c-1.125,-0.92 -1.242,-1.577 -0.727,-2.736c0.427,-0.962 0.764,-1.074 2.485,-0.825c-0.074,0.82 -0.276,1.655 -0.185,2.456c0.098,0.864 0.478,1.843 1.473,1.924c0.805,0.065 1.647,-0.321 2.65,-0.548" style="fill:#fdd8bd;fill-rule:nonzero;"/><path d="M87.175,75.453c-0.441,1.133 -0.441,1.133 0.101,3.937c-1.63,0.938 -2.052,0.837 -2.733,-0.758c-0.281,-0.657 -0.449,-1.361 -0.688,-2.107c1.178,-0.381 2.142,-0.692 3.32,-1.072" style="fill:#fdd8bd;fill-rule:nonzero;"/><path d="M38.984,82.395c1.623,1.358 3.197,2.521 5.696,2.469c-0.498,0.495 -0.719,0.914 -0.974,0.936c-1.521,0.133 -3.025,-0.121 -4.322,-0.907c-0.794,-0.482 -0.943,-1.385 -0.4,-2.498" style="fill:#fdd8bd;fill-rule:nonzero;"/><path d="M91.955,87.211c-0.957,-0.047 -1.772,-0.086 -2.669,-0.13c-0.086,-1.168 0.502,-1.895 1.427,-2.479c0.981,0.684 1.055,1.63 1.242,2.609" style="fill:#f38596;fill-rule:nonzero;"/><path d="M39.528,86.278c1.325,0.218 2.65,0.436 4.222,0.694c-1.131,0.97 -2.218,0.814 -3.234,0.632c-0.458,-0.082 -0.842,-0.578 -1.26,-0.886c0.09,-0.147 0.181,-0.293 0.272,-0.44" style="fill:#fdd8bd;fill-rule:nonzero;"/><path d="M44.761,87.837c-1.065,1.419 -1.748,1.631 -3.1,1.097c0.95,-0.336 1.9,-0.672 3.1,-1.097" style="fill:#fdd8bd;fill-rule:nonzero;"/><path d="M91.403,74.234l-0.76,0.426c-0.038,-0.075 -0.075,-0.151 -0.113,-0.226c0.264,-0.122 0.528,-0.243 0.792,-0.365l0.081,0.165" style="fill:#fff;fill-rule:nonzero;"/><path d="M88.611,75.291l-0.594,0c-0.001,-0.032 -0.002,-0.064 -0.004,-0.096l0.594,-0.035c0.001,0.044 0.003,0.088 0.004,0.131" style="fill:#fff;fill-rule:nonzero;"/><path d="M68.025,61.663c-0.177,0.612 -0.174,0.867 -0.299,0.99c-1.042,1.027 -2.3,1.385 -3.657,0.827c-1.152,-0.474 -1.774,-1.528 -1.917,-2.707c-0.194,-1.612 0.62,-2.942 1.921,-3.536c1.686,-0.769 1.855,-0.733 2.687,0.673c-1.545,-0.113 -2.766,0.465 -3.376,1.812c-0.337,0.743 -0.064,1.605 0.6,2.217c1.227,1.133 2.457,0.552 4.041,-0.276" style="fill:#231f20;fill-rule:nonzero;"/><path d="M77.381,67.759c0.712,0.768 0.736,1.508 0.415,2.339c-0.994,2.577 -4.851,3.478 -7.061,1.496c0.854,-0.044 1.593,-0.1 2.332,-0.119c2.737,-0.07 3.416,-0.616 4.042,-3.275c0.024,-0.103 0.114,-0.19 0.272,-0.441" style="fill:#231f20;fill-rule:nonzero;"/><path d="M102.741,66.653c-0.31,-0.776 -0.446,-1.275 -0.695,-1.71c-0.445,-0.775 -1.222,-0.906 -1.887,-0.284c-0.564,0.528 -1.031,1.16 -1.605,1.819c-0.369,-1.44 0.024,-2.328 1.264,-3.132c0.944,-0.613 1.839,-0.591 2.554,0.061c0.907,0.829 1.051,1.631 0.369,3.246" style="fill:#231f20;fill-rule:nonzero;"/><path d="M73.068,52.79c1.092,0.49 1.138,1.292 1.13,2.113c-0.007,0.892 -0.142,1.756 -0.867,2.371c-0.554,0.471 -1.209,0.105 -1.281,-0.749c-0.109,-1.305 0.244,-2.502 1.018,-3.735" style="fill:#231f20;fill-rule:nonzero;"/><path d="M63.149,52.832c0.752,0.918 0.85,2.539 0.132,3.25c-0.201,0.199 -0.61,0.302 -0.896,0.26c-0.177,-0.027 -0.393,-0.392 -0.436,-0.633c-0.159,-0.898 0.336,-2.018 1.2,-2.877" style="fill:#231f20;fill-rule:nonzero;"/><path d="M66.691,35.772c-3.392,3.618 -5.364,8.306 -7.254,12.891c2.219,0.258 4.439,0.517 6.658,0.776c0.311,0.037 0.651,0.066 0.913,-0.104c0.284,-0.186 0.386,-0.544 0.482,-0.869c0.554,-1.854 1.635,-3.547 3.082,-4.83c-0.615,2.016 -0.993,4.104 -1.123,6.207c0.322,0.067 0.643,0.134 0.964,0.2c0.752,-2.171 1.504,-4.341 2.256,-6.512c0.921,-2.658 1.877,-5.381 3.678,-7.542c1.821,-2.186 4.469,-3.478 7.323,-3.156c-3.562,-5.688 -13.733,-0.522 -16.979,2.939" style="fill:#967549;fill-rule:nonzero;"/><path d="M117.292,58.259c0.042,2.084 -0.895,4.043 -1.736,5.95c-2.05,4.646 -3.646,9.49 -4.759,14.444c0.827,0.08 1.654,0.16 2.481,0.24c0.406,-3.471 1.244,-6.893 2.488,-10.16c0.799,-2.099 1.768,-4.143 2.332,-6.318c0.564,-2.175 0.696,-4.545 -0.167,-6.618c-0.672,-1.616 -2.433,-3.625 -4.292,-3.548c1.143,2.218 3.596,3.117 3.653,6.01" style="fill:#967549;fill-rule:nonzero;"/></g></svg>