<?xml version="1.0" encoding="UTF-8" standalone="no"?><!DOCTYPE svg PUBLIC "-//W3C//DTD SVG 1.1//EN" "http://www.w3.org/Graphics/SVG/1.1/DTD/svg11.dtd"><svg width="100%" height="100%" viewBox="0 0 163 161" version="1.1" xmlns="http://www.w3.org/2000/svg" xmlns:xlink="http://www.w3.org/1999/xlink" xml:space="preserve" xmlns:serif="http://www.serif.com/" style="fill-rule:evenodd;clip-rule:evenodd;stroke-miterlimit:10;"><g><rect x="10.268" y="10.199" width="141.488" height="138.977" style="fill:#fdcd9d;stroke:#fff;stroke-width:2px;"/><rect x="11.854" y="119.103" width="137.674" height="28.279" style="fill:#c591c1;"/><path d="M33.763,90.159c-0.898,0.049 -1.748,0.119 -2.6,0.138c-2.008,0.045 -4.017,0.047 -6.025,0.104c-1.24,0.035 -1.547,0.415 -1.292,1.614c0.21,0.992 0.514,1.964 0.774,2.935c3.316,-0.267 6.625,0.231 9.989,-0.315c-0.119,-1.646 0.047,-3.138 -0.846,-4.476m10.355,41.68c0,-2.99 0.015,-5.772 -0.003,-8.555c-0.023,-3.611 -0.034,-7.224 -0.13,-10.833c-0.035,-1.351 -0.295,-2.696 -0.462,-4.127c-3.694,-0.05 -7.218,-0.207 -10.946,0.105c0.168,1.494 0.375,2.788 0.447,4.089c0.143,2.567 0.167,5.141 0.322,7.707c0.212,3.489 0.487,6.975 0.77,10.459c0.044,0.546 0.269,1.078 0.424,1.672c3.246,0.118 6.337,-0.105 9.578,-0.517m0.217,1.552c-3.188,0.123 -6.161,0.19 -9.127,0.375c-1.349,0.083 -1.739,-0.019 -1.836,-1.127c-0.373,-4.282 -0.902,-8.562 -1.018,-12.852c-0.107,-3.964 -0.296,-7.894 -1.064,-11.787c-0.041,-0.207 0.033,-0.438 0.066,-0.796c3.97,-0.85 7.959,0.127 12.028,-0.112c-1.229,-5.076 -4.189,-8.565 -8.222,-11.058c-1.235,0.083 -2.369,0.161 -3.503,0.237c-2.627,0.176 -5.238,-0.355 -7.896,-0.018c-1.192,0.151 -2.129,0.47 -2.82,1.276c-1.04,1.213 -2.019,2.511 -2.817,3.892c-1.759,3.044 -2.61,6.336 -2.217,9.884c0.056,0.512 0.155,1.023 0.17,1.536c0.116,3.785 0.252,7.569 0.31,11.355c0.076,4.996 0.156,9.987 0.69,14.964c0.244,2.267 1.142,3.23 3.462,3.313c0.743,0.027 1.485,0.081 2.225,0.144c3.563,0.304 7.124,0.14 10.663,-0.243c3.064,-0.33 6.098,-0.944 9.16,-1.313c0.984,-0.118 1.405,-0.5 1.62,-1.411c0.47,-1.996 0.138,-3.98 0.126,-6.259m-21.302,-43.988c4.048,-0.122 8.089,-0.244 12.279,-0.369c0.06,1.074 0.055,1.984 0.176,2.877c0.153,1.125 0.348,2.254 0.658,3.343c0.105,0.366 0.575,0.685 0.948,0.909c4.574,2.742 6.93,6.867 7.386,12.081c0.284,3.251 0.374,6.522 0.475,9.786c0.1,3.212 0.038,6.43 0.165,9.641c0.146,3.719 0.409,7.434 0.646,11.149c0.101,1.568 -1.67,3.552 -3.23,3.641c-1.134,0.064 -2.266,0.218 -3.392,0.378c-2.085,0.298 -4.155,0.727 -6.249,0.92c-2.146,0.196 -4.313,0.227 -6.471,0.234c-2.121,0.007 -4.244,-0.087 -6.364,-0.175c-2.236,-0.093 -3.942,-2.004 -4.009,-4.203c-0.103,-3.374 -0.363,-6.744 -0.502,-10.117c-0.091,-2.233 -0.064,-4.471 -0.132,-6.706c-0.133,-4.409 -0.323,-8.816 -0.437,-13.225c-0.089,-3.423 0.976,-6.554 2.669,-9.477c1.071,-1.848 2.341,-3.572 4.196,-4.708c1.136,-0.696 1.37,-1.568 1.005,-2.756c-0.327,-1.066 -0.383,-2.134 0.183,-3.223" style="fill:#231f20;fill-rule:nonzero;"/><path d="M26.174,104.886c-0.16,-1.139 -0.379,-3.066 -0.737,-4.968c-0.071,-0.38 -0.619,-0.843 -1.03,-0.949c-0.845,-0.22 -1.729,-0.144 -2.316,0.679c-0.495,0.691 -1.092,1.344 -1.424,2.11c-1.527,3.521 -2.695,7.132 -2.522,11.055c0.058,1.322 0.33,2.528 1.472,3.305c0.378,0.257 1.016,0.449 1.402,0.307c0.671,-0.247 1.448,-0.642 1.815,-1.21c1.868,-2.898 3.414,-5.943 3.34,-10.329m18.162,28.505c0.011,2.279 0.343,4.263 -0.127,6.259c-0.215,0.911 -0.636,1.293 -1.619,1.411c-3.062,0.369 -6.096,0.983 -9.161,1.313c-3.539,0.383 -7.099,0.547 -10.662,0.243c-0.741,-0.063 -1.483,-0.117 -2.226,-0.144c-2.32,-0.083 -3.218,-1.046 -3.461,-3.313c-0.535,-4.977 -0.615,-9.968 -0.691,-14.964c-0.057,-3.786 -0.194,-7.57 -0.309,-11.355c-0.016,-0.513 -0.114,-1.024 -0.171,-1.536c-0.393,-3.548 0.459,-6.84 2.218,-9.884c0.797,-1.381 1.776,-2.679 2.816,-3.892c0.691,-0.806 1.628,-1.125 2.82,-1.276c2.658,-0.337 5.269,0.194 7.896,0.018c1.134,-0.076 2.268,-0.154 3.504,-0.237c4.032,2.493 6.992,5.982 8.221,11.058c-4.068,0.239 -8.057,-0.738 -12.027,0.112c-0.034,0.358 -0.107,0.589 -0.066,0.796c0.768,3.893 0.956,7.823 1.064,11.787c0.115,4.29 0.644,8.57 1.018,12.852c0.096,1.108 0.486,1.21 1.835,1.127c2.966,-0.185 5.939,-0.252 9.128,-0.375" style="fill:#fff;fill-rule:nonzero;"/><path d="M44.118,131.839c-3.241,0.412 -6.332,0.636 -9.578,0.517c-0.155,-0.594 -0.38,-1.125 -0.424,-1.672c-0.283,-3.484 -0.558,-6.97 -0.769,-10.459c-0.156,-2.566 -0.18,-5.14 -0.323,-7.707c-0.072,-1.301 -0.279,-2.595 -0.447,-4.089c3.728,-0.312 7.252,-0.154 10.946,-0.105c0.167,1.431 0.427,2.776 0.462,4.127c0.096,3.61 0.107,7.222 0.13,10.833c0.018,2.783 0.003,5.565 0.003,8.555" style="fill:#00bcf2;fill-rule:nonzero;"/><path d="M33.763,90.159c0.893,1.338 0.727,2.83 0.846,4.476c-3.364,0.546 -6.673,0.048 -9.989,0.315c-0.26,-0.971 -0.564,-1.943 -0.774,-2.935c-0.255,-1.199 0.052,-1.579 1.292,-1.614c2.008,-0.057 4.017,-0.059 6.025,-0.104c0.852,-0.019 1.702,-0.089 2.6,-0.138" style="fill:#ed1c24;fill-rule:nonzero;"/><path d="M19.252,111.262c0,0.517 -0.021,1.035 0.004,1.55c0.061,1.254 0.5,1.978 1.299,2.195c0.693,0.188 1.637,-0.356 2.237,-1.29c0.061,-0.097 0.112,-0.2 0.162,-0.303c0.37,-0.775 0.789,-1.531 1.095,-2.331c0.386,-1.01 0.697,-2.05 1.008,-3.086c0.674,-2.255 -0.011,-4.433 -0.455,-6.611c-0.09,-0.442 -0.443,-1.05 -0.808,-1.166c-0.583,-0.186 -1.117,0.135 -1.483,0.782c-1.802,3.193 -2.939,6.567 -3.059,10.26m6.922,-6.376c0.074,4.386 -1.472,7.431 -3.34,10.329c-0.367,0.568 -1.144,0.963 -1.815,1.21c-0.386,0.142 -1.024,-0.05 -1.402,-0.307c-1.142,-0.777 -1.414,-1.983 -1.472,-3.305c-0.173,-3.923 0.995,-7.534 2.522,-11.055c0.332,-0.766 0.929,-1.419 1.423,-2.11c0.588,-0.823 1.472,-0.899 2.317,-0.679c0.411,0.106 0.959,0.569 1.03,0.949c0.357,1.902 0.577,3.829 0.737,4.968" style="fill:#231f20;fill-rule:nonzero;"/><path d="M109.197,132.741c0,2.825 -11.63,5.115 -25.976,5.115c-14.346,0 -25.977,-2.29 -25.977,-5.115c0,-2.825 11.631,-5.115 25.977,-5.115c14.346,0 25.976,2.29 25.976,5.115" style="fill:#b8c17b;fill-rule:nonzero;"/><path d="M83.221,128.165c-15.76,0 -25.437,2.666 -25.437,4.576c0,1.911 9.677,4.576 25.437,4.576c15.76,0 25.437,-2.665 25.437,-4.576c0,-1.91 -9.677,-4.576 -25.437,-4.576m0,10.23c-12.854,0 -26.516,-1.981 -26.516,-5.654c0,-3.673 13.662,-5.654 26.516,-5.654c12.854,0 26.516,1.981 26.516,5.654c0,3.673 -13.662,5.654 -26.516,5.654" style="fill:#231f20;fill-rule:nonzero;"/><path d="M89.416,48.927c-1.631,-0.353 -2.835,-0.657 -4.057,-0.867c-1.523,-0.262 -3.063,-0.424 -4.589,-0.67c-1.74,-0.28 -2.338,-0.128 -2.532,-2.304c-0.113,-1.255 -0.175,-2.514 -0.288,-3.768c-0.169,-1.868 -0.364,-3.732 -0.548,-5.599l-0.419,0.031c0.1,1.825 0.237,3.649 0.286,5.475c0.05,1.834 0.011,3.67 0.011,5.547c-1.467,0.686 -2.817,-0.094 -4.317,-0.143c-0.506,-3.175 0.564,-6.304 0,-9.462c-0.569,-0.002 -0.62,0.289 -0.636,0.761c-0.078,2.345 -0.192,4.688 -0.33,7.031c-0.026,0.447 -0.221,0.886 -0.353,1.387c-1.122,0.421 -2.251,0.004 -3.371,-0.011c-2.966,-0.041 -5.916,-0.506 -8.906,-0.046c-1.687,0.26 -3.444,0.034 -5.164,0.123c-2.228,0.115 -4.451,0.329 -6.677,0.493c-1.018,0.074 -2.037,0.131 -3.072,0.198c0.197,-3.783 6.699,-14.405 10.832,-17.656c-0.917,2.193 -2.229,3.919 -2.962,6.265c1.073,-0.438 1.252,-1.113 1.54,-1.684c1.4,-2.771 2.927,-5.466 4.943,-7.842c0.465,-0.548 1.127,-0.931 1.704,-1.383c0.173,-0.135 0.491,-0.211 0.533,-0.371c0.454,-1.712 2.189,-1.56 3.317,-2.298c-1.266,1.999 -2.685,3.919 -3.757,6.018c-1.077,2.111 -1.978,4.341 -2.316,6.743c0.932,-1.081 1.281,-2.433 1.799,-3.703c1.426,-3.498 3.341,-6.656 6.247,-9.147c0.984,-0.844 2.076,-1.133 3.323,-0.847c4.036,0.922 7.701,2.611 10.842,5.344c1.73,1.504 2.811,3.439 3.64,5.554c0.666,1.7 1.335,3.417 2.211,5.012c1.016,1.851 1.38,3.879 1.908,5.858c0.484,1.814 0.729,3.692 1.158,5.961" style="fill:#775a30;fill-rule:nonzero;"/><path d="M60.466,24.156c-7.101,5.458 -12.411,13.208 -14.937,21.8c3.802,0.128 7.61,0.052 11.403,-0.226c0.912,-3.282 2.302,-6.431 4.111,-9.318c-0.739,2.912 -1.104,5.918 -1.083,8.922c1.622,0.044 3.244,0.088 4.867,0.132c-0.598,-3.585 -0.801,-7.236 -0.604,-10.866c0.146,-2.682 0.536,-5.432 1.88,-7.758c1.721,-2.98 4.141,-3.509 7.123,-4.228c-3.843,-2.81 -9.397,-1.043 -12.76,1.542" style="fill:#967549;fill-rule:nonzero;"/><path d="M71.402,113.482l-0.009,0.076l0.156,-0.025l-0.147,-0.051Zm27.854,18.339c0.052,0.013 0.105,0.035 0.156,0.032c0.019,-0.002 0.035,-0.061 0.052,-0.094c-0.052,-0.012 -0.104,-0.035 -0.155,-0.031c-0.02,0.001 -0.035,0.061 -0.053,0.093m-31.048,-53.478c0.272,0.67 0.43,1.062 0.631,1.555c0.514,-0.441 0.931,-0.799 1.483,-1.273c-0.729,-0.098 -1.266,-0.169 -2.114,-0.282m10.864,0.803c-0.661,-1.007 -0.889,-1.03 -2.943,-0.4c0.314,0.478 0.617,0.941 0.947,1.444c0.668,-0.349 1.264,-0.661 1.996,-1.044m-24.201,29.074l-0.348,0.305c0.484,1.507 0.968,3.013 1.565,4.867c0.599,-1.294 1.025,-2.214 1.474,-3.182c-0.917,-0.678 -1.804,-1.333 -2.691,-1.99m3.081,9.197c1.469,-1.725 2.006,-3.78 2.61,-5.889c-0.751,-0.301 -1.41,-0.566 -2.136,-0.858c-0.593,1.603 -1.196,3.077 -1.676,4.59c-0.286,0.899 -0.047,1.702 1.202,2.157m22.082,-39.052c0.593,0.923 1.176,1.698 1.616,2.546c0.722,1.39 1.897,1.557 3.221,1.297c1.205,-0.236 2.258,-0.819 3.15,-1.673c0.527,-0.504 0.84,-1.112 0.7,-1.851c-0.169,-0.889 0.185,-1.964 -0.906,-2.688c-2.259,1.714 -5.125,1.417 -7.781,2.369m35.207,-47.967c2.093,-2.28 3.93,-4.568 4.973,-7.668c-1.182,-0.388 -2.23,-0.772 -3.301,-1.074c-1.771,-0.499 -1.833,-0.444 -2.423,1.282c-0.11,0.323 -0.276,0.628 -0.382,0.953c-0.562,1.719 -0.998,3.466 -1.242,5.227c0.841,0.452 1.538,0.828 2.375,1.28m-0.431,1.621c-3.098,-2.476 -7.157,-2.144 -9.224,0.567c-0.85,1.114 -1.519,2.451 -1.933,3.791c-0.746,2.417 0.482,4.365 3.063,5.14c-0.414,-2.446 0.518,-4.541 1.708,-6.51c1.334,-2.207 3.582,-2.861 6.386,-2.988m-59.494,84.969c0,-1.034 0.152,-1.902 -0.034,-2.691c-0.312,-1.33 -0.999,-2.581 -1.238,-3.917c-0.388,-2.169 -1.482,-3.259 -3.726,-3.26c-0.853,-0.001 -1.706,-0.289 -2.684,-0.469c0.152,0.641 0.346,1.035 0.318,1.413c-0.133,1.848 0.738,3.448 1.212,5.143c0.328,1.17 1.094,1.991 2.265,2.402c1.289,0.453 2.575,0.913 3.887,1.379m55.847,-88.361c-0.074,-3.266 0.096,-6.587 -0.444,-9.886c-0.14,-0.85 -0.471,-1.075 -1.325,-0.803c-1.254,0.398 -2.5,0.838 -3.714,1.346c-1.083,0.453 -1.243,0.775 -0.885,1.869c0.77,2.348 1.769,4.605 3.149,6.662c0.802,1.196 1.646,1.375 3.219,0.812m6.794,6.658c-0.209,-0.325 -0.307,-0.61 -0.506,-0.768c-2.554,-2.043 -6.708,-1.26 -8.408,1.529c-1.192,1.957 -1.695,3.91 -0.721,6.159c0.58,1.339 1.887,2.389 3.591,2.349c0.184,-1.893 0.041,-3.859 1.432,-5.491c1.3,-1.524 2.475,-3.138 4.612,-3.778m-51.203,60.906c0.613,-1.225 1.068,-2.147 1.536,-3.063c0.314,-0.615 0.798,-0.965 1.52,-0.882c1.157,0.134 1.973,-0.422 2.663,-1.274c0.541,-0.669 1.163,-1.278 1.658,-1.979c1.742,-2.471 2.357,-5.302 1.683,-8.17c-0.588,-2.499 -2.911,-3.056 -4.468,-1.638c-2.302,2.096 -4.373,4.334 -5.103,7.518c-0.229,0.996 -0.284,1.827 0.262,2.779c0.698,1.215 0.702,2.477 -0.312,3.677c-0.487,0.577 -0.691,1.394 -1.101,2.268c0.64,0.295 1.114,0.513 1.662,0.764m-20.511,-18.459c-2.376,2.2 -4.486,4.352 -6.178,6.89c-0.428,0.642 -0.231,1.192 0.199,1.715c1.22,1.486 1.86,3.26 2.583,5.007c0.934,2.261 1.987,4.473 2.929,6.574c2.107,0.17 3.962,0.319 5.815,0.469c0.151,-2.04 -3.203,-14.988 -5.348,-20.655m30.97,32.213c-1.561,-5.809 -3.088,-11.49 -4.623,-17.201c-0.629,0.328 -1.124,0.804 -1.617,0.804c-1.971,-0.001 -2.363,1.411 -2.962,2.954c0.912,0.342 1.709,0.629 2.497,0.938c2.526,0.989 3.01,3.854 0.958,5.559c-0.343,0.285 -0.812,0.636 -0.871,1.011c-0.283,1.808 -1.449,3.204 -2.107,4.831c-0.956,2.365 -2.103,3.147 -4.684,3.185c-2.066,0.03 -2.233,0.16 -2.808,2.209c-0.119,0.425 -0.222,0.855 -0.386,1.488c2.023,-0.655 3.853,-1.243 5.68,-1.839c1.895,-0.619 3.814,-1.177 5.673,-1.888c1.778,-0.681 3.795,-0.806 5.25,-2.051m-33.114,-12.796c-0.707,1.166 -1.69,2.288 -1.161,3.75c0.63,1.743 1.602,3.427 3.469,4.016c1.891,0.595 3.898,0.82 5.855,1.202c1.638,0.319 3.14,0.773 4.507,1.914c1.813,1.512 4.058,2.334 6.383,2.831c1.354,0.289 2.729,-0.16 3.445,-1.106c0.988,-1.304 1.771,-2.919 2.108,-4.514c0.298,-1.407 0.734,-2.463 1.931,-3.218c0.282,-0.177 0.508,-0.443 0.761,-0.669c-0.115,-1.281 -0.234,-2.4 -1.79,-2.785c-1.544,-0.382 -3.034,-0.991 -4.54,-1.518c-1.066,-0.373 -1.366,-0.861 -1.313,-2.05c0.048,-1.106 -0.266,-1.421 -1.308,-0.986c-0.983,0.41 -2.014,0.926 -2.743,1.671c-0.981,1.001 -1.68,2.274 -2.525,3.411c-0.224,0.301 -0.536,0.752 -0.817,0.759c-1.598,0.042 -3.201,-0.001 -4.799,-0.075c-0.849,-0.039 -1.69,-0.254 -2.539,-0.29c-0.965,-0.04 -2.08,0.337 -2.863,-0.032c-0.825,-0.391 -1.334,-1.448 -2.061,-2.311m11.831,1.296c1.222,-1.403 2.32,-2.634 3.383,-3.896c1.477,-1.754 3.334,-2.259 5.521,-1.762c0.657,-1.643 0.856,-1.598 0.277,-3.235c-0.255,-0.72 -0.333,-1.625 -0.143,-2.355c0.446,-1.706 0.847,-3.476 2.077,-4.851c0.568,-0.636 0.66,-1.311 0.388,-2.07c-0.463,-1.291 -0.904,-2.592 -1.425,-3.859c-0.566,-1.378 -0.601,-1.36 -2.159,-1.064c-0.224,0.043 -0.456,0.053 -0.684,0.063c-2.802,0.119 -5.604,0.221 -8.404,0.356c-2.115,0.102 -4.229,0.238 -6.341,0.381c-0.264,0.018 -0.518,0.172 -0.912,0.309c0.124,0.883 0.154,1.744 0.374,2.554c1.438,5.291 2.916,10.57 4.382,15.854c0.332,1.197 0.67,2.393 1.001,3.575l2.665,0Zm47.082,-1.849c0.945,2.12 1.338,4.195 1.229,6.344c-0.11,2.176 -0.213,4.357 -0.477,6.517c-0.186,1.526 -0.53,3.054 -1.002,4.517c-0.401,1.247 -0.853,1.496 -2.084,1.184c-1.852,-0.469 -3.611,-0.168 -5.415,0.194c-0.6,0.12 -0.997,0.338 -1.458,0.731c-1.389,1.184 -2.499,2.928 -4.781,2.539c-0.378,-0.064 -1.041,0.334 -1.239,0.698c-0.32,0.59 -0.015,1.209 0.495,1.686c0.607,0.566 1.329,0.686 2.085,0.51c2.002,-0.467 3.996,-0.958 5.812,-1.989c0.936,-0.531 1.943,0.059 1.833,1.118c-0.062,0.596 -0.345,1.201 -0.647,1.734c-1.004,1.772 -2.449,3.137 -4.038,4.398c-0.881,0.7 -1.648,1.584 -2.322,2.492c-0.45,0.606 -0.158,1.176 0.588,1.213c0.711,0.036 1.565,0.017 2.125,-0.34c1.194,-0.762 2.272,-1.721 3.334,-2.67c0.954,-0.852 1.822,-1.799 2.728,-2.703c0.175,2.133 -1.855,2.783 -2.706,4.457c1.339,-0.943 2.516,-1.77 3.693,-2.598c0.079,0.094 0.159,0.188 0.239,0.282c-0.871,1.875 -3.031,2.584 -4.386,4.513c2.58,-0.638 4.493,-1.922 6.471,-3.127c0.072,0.266 0.159,0.437 0.122,0.471c-0.974,0.893 -1.961,1.771 -2.997,2.697c2.089,-0.189 3.711,-1.093 5.027,-2.647c1.046,-1.233 1.835,-2.598 2.606,-4.018c1.038,-1.913 1.34,-3.869 1.093,-5.968c-0.1,-0.853 -0.173,-1.717 -0.37,-2.549c-0.199,-0.844 -0.01,-1.492 0.415,-2.255c0.604,-1.085 1.154,-2.29 1.337,-3.502c0.305,-2.024 0.384,-4.095 0.405,-6.147c0.025,-2.467 -0.259,-4.92 -1.02,-7.282c-0.343,-1.063 -0.647,-2.177 -1.504,-2.93c-1.744,0.816 -3.401,1.592 -5.191,2.43m24.594,-18.676c-0.349,-0.818 -0.599,-1.312 -0.773,-1.831c-0.327,-0.969 -0.792,-1.937 -0.877,-2.933c-0.263,-3.066 0.205,-6.026 1.371,-8.918c1.28,-3.173 1.594,-6.537 1.45,-9.953c-0.108,-2.565 -0.975,-4.935 -1.715,-7.343c-1.18,-3.838 -3.507,-6.777 -6.928,-8.861c-0.867,-0.528 -1.738,-1.051 -2.782,-1.682c-0.415,0.391 -0.913,0.859 -1.569,1.477c2.828,1.239 4.275,3.4 5.511,5.786c1.889,3.646 2.496,5.95 1.718,7.84c-0.232,-0.98 -0.358,-1.68 -0.565,-2.355c-1.315,-4.277 -2.947,-8.333 -7.475,-10.419c-0.381,0.518 -0.743,1.009 -1.083,1.471c1.388,1.738 2.554,3.961 3.084,6.035c0.339,1.327 0.819,2.686 0.799,4.023c-0.07,4.556 -1.189,8.847 -3.791,12.671c-0.678,0.997 -1.358,1.996 -1.977,3.03c-1.424,2.373 -2.644,4.836 -2.966,7.637c-0.135,1.173 0.017,1.47 1.169,1.671c2.355,0.412 4.728,0.725 7.228,1.098c0.113,-1.323 0.114,-2.522 0.342,-3.676c0.243,-1.228 0.682,-2.42 1.067,-3.617c0.369,-1.145 0.745,-2.289 1.179,-3.41c0.454,-1.173 0.941,-2.337 1.486,-3.47c0.477,-0.994 0.562,-2.255 1.82,-2.788c-0.192,0.953 -0.457,1.875 -0.898,2.704c-1.034,1.941 -1.746,3.904 -1.595,6.183c0.136,2.057 -0.071,4.134 -0.034,6.201c0.031,1.677 0.677,2.659 1.941,2.881c1.506,0.263 3.042,0.352 4.863,0.548m-38.189,-28.993c-0.43,-2.269 -0.674,-4.147 -1.158,-5.961c-0.528,-1.979 -0.893,-4.007 -1.909,-5.858c-0.876,-1.595 -1.544,-3.312 -2.211,-5.012c-0.829,-2.115 -1.909,-4.05 -3.639,-5.554c-3.141,-2.732 -6.806,-4.422 -10.842,-5.344c-1.247,-0.285 -2.339,0.004 -3.323,0.847c-2.907,2.491 -4.822,5.649 -6.247,9.147c-0.518,1.27 -0.867,2.623 -1.799,3.704c0.338,-2.402 1.239,-4.633 2.316,-6.744c1.071,-2.098 2.49,-4.019 3.757,-6.018c-1.128,0.738 -2.863,0.586 -3.317,2.298c-0.042,0.16 -0.36,0.236 -0.534,0.372c-0.577,0.451 -1.238,0.835 -1.703,1.383c-2.017,2.375 -3.544,5.07 -4.944,7.841c-0.288,0.571 -0.466,1.246 -1.54,1.684c0.734,-2.346 2.046,-4.071 2.962,-6.265c-4.133,3.251 -10.634,13.873 -10.832,17.656c1.035,-0.066 2.054,-0.123 3.073,-0.198c2.226,-0.164 4.449,-0.378 6.677,-0.492c1.72,-0.089 3.476,0.136 5.163,-0.123c2.991,-0.461 5.94,0.004 8.907,0.045c1.119,0.016 2.249,0.432 3.37,0.011c0.133,-0.501 0.327,-0.939 0.354,-1.387c0.138,-2.342 0.251,-4.686 0.33,-7.031c0.015,-0.472 0.067,-0.763 0.636,-0.76c0.563,3.158 -0.506,6.287 0,9.461c1.5,0.05 2.85,0.829 4.317,0.144c0,-1.877 0.038,-3.713 -0.011,-5.547c-0.049,-1.827 -0.187,-3.65 -0.286,-5.475l0.419,-0.031c0.184,1.866 0.378,3.731 0.547,5.598c0.114,1.254 0.176,2.514 0.288,3.768c0.195,2.177 0.793,2.024 2.533,2.304c1.526,0.246 3.066,0.408 4.589,0.67c1.221,0.21 2.426,0.514 4.057,0.867m23.162,-2.492c-1.63,-0.698 -3.362,-1.207 -4.594,-2.562c-0.486,-0.533 -0.984,-0.796 -1.666,-1.028c-1.994,-0.674 -3.493,-1.921 -3.861,-4.164c-0.414,-2.513 0.566,-4.625 2.038,-6.504c0.854,-1.091 1.995,-1.956 3.009,-2.925c-0.717,-1.317 -1.439,-2.684 -2.204,-4.025c-0.182,-0.32 -0.468,-0.618 -0.775,-0.823c-0.65,-0.434 -1.357,-0.779 -2.019,-1.197c-0.966,-0.612 -1.844,-1.417 -2.88,-1.856c-3.489,-1.479 -7.124,-2.627 -10.865,-3.138c-4.834,-0.66 -9.715,-0.611 -14.537,0.35c-1.413,0.281 -2.803,0.679 -4.257,1.037c2.193,0.895 4.286,1.64 6.284,2.588c3.563,1.69 6.467,4.151 8.143,7.813c1.238,2.705 2.592,5.389 3.478,8.214c1.185,3.78 1.986,7.683 2.913,11.542c0.425,1.767 0.406,3.668 1.622,5.18c0.754,0.937 1.465,1.924 2.325,2.756c1.576,1.526 3.417,1.822 5.525,1.092c2.409,-0.834 5.328,-0.585 6.759,1.756c0.109,0.178 0.277,0.321 0.332,0.383c0.448,-0.385 0.811,-0.765 1.238,-1.052c1.579,-1.065 2.556,-2.607 3.427,-4.238c0.269,-0.504 0.455,-1.061 0.771,-1.532c1.867,-2.79 2.255,-5.961 2.262,-9.183c0.002,-1.067 -0.465,-2.166 -1.743,-2.668c-0.664,1.383 0.62,2.978 -0.725,4.184m-19.983,40.403c0.922,0.204 1.056,0.903 1.256,1.543c0.613,1.968 1.209,3.94 1.842,5.902c0.207,0.641 0.343,1.489 0.81,1.808c0.433,0.297 1.263,-0.014 1.918,-0.005c2.529,0.038 4.875,-0.746 7.086,-1.821c1.311,-0.638 2.497,-1.613 3.582,-2.607c0.807,-0.738 0.75,-1.227 0.101,-2.126c-0.397,-0.55 -0.963,-0.974 -1.417,-1.487c-2.273,-2.574 -4.539,-5.155 -6.799,-7.741c-0.942,-1.077 -1.849,-2.185 -2.794,-3.26c-0.923,-1.047 -2.066,-1.663 -3.495,-1.462c-1.441,0.202 -2.767,0.744 -3.941,1.619c-0.583,0.434 -0.963,0.927 -0.724,1.748c0.208,0.719 -0.098,1.348 -0.608,1.879c-1.802,1.875 -3.878,2.934 -6.599,2.608c-1.202,-0.144 -1.87,-0.611 -2.289,-1.704c-0.661,-1.725 -1.023,-1.818 -2.654,-0.858c-0.24,0.142 -0.453,0.331 -0.519,0.38c-0.189,1.6 -0.137,3.084 -0.574,4.409c-0.638,1.939 -1.367,3.897 -2.85,5.437c-0.235,0.244 -0.407,0.741 -0.335,1.06c0.435,1.923 0.949,3.827 1.437,5.738c0.485,-0.792 0.712,-1.596 0.841,-2.416c0.276,-1.75 0.498,-3.508 0.747,-5.263c0.076,-0.541 0.093,-1.128 1.01,-1.384c0,0.689 0.071,1.257 -0.013,1.8c-0.372,2.433 -0.86,4.849 -1.162,7.29c-0.18,1.457 -0.36,3.005 -0.061,4.411c0.474,2.227 1.37,4.362 2.04,6.552c0.175,0.569 0.17,1.193 0.263,1.906c-2.18,0.794 -4.21,1.534 -6.24,2.273l0.093,0.365c2.278,-0.203 4.554,-0.441 6.834,-0.604c4.94,-0.354 9.852,-0.3 14.767,0.56c2.335,0.408 4.773,0.228 7.05,0.311c2.152,-3.356 2.6,-12.806 0.821,-16.893c-1.568,0.301 -3.192,0.569 -4.793,0.934c-1.474,0.337 -2.055,0.016 -2.29,-1.453c-0.108,-0.678 -0.114,-1.38 -0.288,-2.039c-0.641,-2.418 -1.331,-4.823 -2.053,-7.41m3.828,-19.475c0.475,0.37 0.926,0.549 1.072,0.867c0.453,0.994 1.282,1.235 2.228,1.314c0.963,0.08 1.989,0.38 2.878,0.154c2.087,-0.531 4.507,-4.283 4.235,-6.391c-0.226,-1.753 -1.331,-2.929 -2.936,-3.513c-1.469,-0.534 -2.949,-0.415 -4.23,0.62c-0.444,0.358 -0.833,0.784 -1.277,1.143c-0.101,0.082 -0.325,0.012 -0.555,0.012c-0.137,-0.439 -0.268,-0.857 -0.374,-1.196c-1.482,-0.562 -2.994,-0.893 -3.969,-2.138c-0.917,-1.17 -1.912,-2.326 -2.559,-3.643c-0.641,-1.302 -0.89,-2.798 -1.359,-4.372c-2.309,-0.466 -4.641,-1.056 -7.01,-1.383c-2.834,-0.39 -5.697,-0.581 -8.551,-0.813c-5.366,-0.435 -10.716,-1.195 -16.13,-0.575c-1.815,0.207 -3.671,0.036 -5.505,0.113c-1.607,0.066 -1.944,0.394 -1.962,1.955c-0.034,2.93 -0.151,5.873 0.067,8.788c0.125,1.671 0.542,3.466 1.353,4.909c1.889,3.361 4.336,6.312 7.431,8.714c1.747,1.356 3.526,2.293 5.799,2.059c0.826,-0.086 1.534,0.297 1.719,1.126c0.538,2.402 3.333,2.804 5.337,2.11c0.309,-0.107 0.642,-0.193 0.966,-0.197c2.399,-0.034 4.814,0.117 7.192,-0.115c1.912,-0.187 3.857,-0.355 5.702,-1.128c2.722,-1.141 5.191,-2.676 7.499,-4.471c1.05,-0.819 2.299,-1.586 2.277,-3.23c-0.002,-0.196 0.354,-0.397 0.662,-0.719m-29.138,48.713c0.216,0.239 0.43,0.477 0.716,0.793c-0.49,0.323 -0.881,0.547 -1.232,0.823c-0.379,0.298 -0.72,0.646 -1.081,0.976c3.315,3.335 16.859,4.382 20.817,2.329c-0.057,-0.569 -0.217,-1.143 -0.151,-1.689c0.18,-1.505 1.351,-2.45 3.215,-2.479c0.869,-0.014 1.578,-0.199 2.178,-0.787c0.483,-0.475 0.929,-0.988 1.583,-1.689c-2.481,-0.22 -4.793,-0.5 -7.113,-0.615c-4.301,-0.212 -8.577,0.266 -12.846,0.687c-2.096,0.207 -4.157,0.682 -6.045,1.698c-0.239,0.12 -0.478,0.241 -0.717,0.362c-0.439,0.106 -0.879,0.205 -1.315,0.32c-1.713,0.452 -2.481,1.405 -2.54,3.12c-0.047,1.357 0.208,2.68 1.001,3.761c1.642,2.237 2.895,4.825 5.525,6.212c2.37,1.249 4.581,2.737 7.216,3.538c2.487,0.756 5.026,1.039 7.547,1.444c3.691,0.594 7.227,-0.185 10.632,-1.771c-0.412,-0.272 -0.828,-0.457 -1.121,-0.759c-0.441,-0.456 -0.9,-0.62 -1.535,-0.548c-0.9,0.101 -1.787,-0.09 -2.189,-0.998c-0.425,-0.959 -0.285,-1.929 0.471,-2.717c0.71,-0.739 1.456,-1.445 2.193,-2.158c0.988,-0.955 2.005,-1.881 2.965,-2.863c0.419,-0.429 0.852,-0.916 0.697,-1.818c-0.663,0.188 -1.248,0.351 -1.832,0.52c-1.265,0.365 -2.532,0.721 -3.792,1.104c-0.747,0.226 -1.427,0.195 -2.166,-0.134c-0.897,-0.4 -1.846,-0.475 -2.83,-0.106c-0.632,0.238 -1.336,0.384 -2.01,0.389c-2.579,0.018 -5.167,0.079 -7.737,-0.094c-3.09,-0.209 -6.137,-0.78 -9.038,-1.931c-0.58,-0.231 -1.162,-0.515 -1.66,-0.888c-0.952,-0.714 -1.052,-1.253 -0.3,-2.165c0.485,-0.589 1.177,-1.008 1.777,-1.504c0.239,-0.121 0.479,-0.242 0.717,-0.363m52.459,-46.511c-1.132,2.607 -1.358,5.338 -0.906,8.121c-0.36,0.069 -0.55,0.171 -0.687,0.123c-2.797,-0.994 -5.759,-0.907 -8.642,-1.335c-0.397,-0.059 -0.808,-0.028 -1.201,-0.098c-0.683,-0.124 -1.012,-0.597 -0.842,-1.246c0.961,-3.667 2.004,-7.304 4.193,-10.483c1.856,-2.695 3.731,-5.39 4.371,-8.689c0.338,-1.741 0.637,-3.495 0.844,-5.255c0.111,-0.947 -0.164,-1.878 -0.808,-3.115c-0.238,4.567 -2.768,7.726 -4.72,11.118c-0.582,1.013 -1.612,1.785 -2.502,2.598c-0.589,0.539 -0.816,1.089 -0.881,1.915c-0.226,2.883 -1.447,5.25 -3.917,6.923c-1.355,0.918 -2.756,1.043 -4.269,0.638c-1.047,-0.28 -2.089,-0.576 -2.937,-0.81c-2.524,1.876 -4.902,3.643 -7.353,5.464c0.095,0.249 0.21,0.551 0.351,0.922c1.812,-1.12 3.617,-1.937 5.655,-2.193c0.87,-0.11 1.481,0.111 2.18,0.651c2.083,1.605 3.375,3.895 5.173,5.741c0.995,1.021 1.919,2.112 2.859,3.185c0.756,0.863 1.475,1.757 2.231,2.619c0.791,0.902 1.571,1.818 2.419,2.665c1.139,1.136 1.178,1.273 0.238,2.559c-0.203,0.277 -0.369,0.581 -0.565,0.864c-0.162,0.235 -0.342,0.457 -0.582,0.775c1.567,2.656 2.139,5.648 2.293,8.681c0.184,3.601 0.417,7.236 -0.649,10.775c-0.116,0.384 -0.166,0.809 -0.366,1.144c-0.915,1.535 -0.93,3.204 -0.586,4.844c0.248,1.177 0.177,2.307 -0.116,3.393c-0.912,3.386 -2.544,6.423 -5.173,8.764c-0.985,0.877 -2.341,1.44 -3.622,1.849c-1.394,0.446 -2.917,0.47 -4.347,0.827c-0.983,0.245 -1.883,0.812 -2.857,1.113c-1.456,0.451 -2.931,0.867 -4.426,1.157c-1.113,0.216 -2.267,0.242 -3.406,0.295c-2.245,0.103 -4.447,-0.216 -6.622,-0.759c-1.216,-0.302 -2.433,-0.605 -3.657,-0.875c-2.856,-0.629 -5.231,-2.32 -7.758,-3.633c-1.55,-0.805 -2.812,-2.164 -3.699,-3.766c-0.361,-0.651 -0.707,-1.347 -1.214,-1.873c-1.589,-1.652 -1.785,-3.681 -1.589,-5.767c0.087,-0.934 0.568,-1.83 0.877,-2.763c-1.261,-0.088 -2.279,0.841 -3.207,1.501c-1.481,1.053 -2.836,0.63 -4.221,0.231c-1.751,-0.504 -3.433,-1.245 -5.171,-1.8c-1.383,-0.441 -1.344,-0.457 -1.657,-1.794c-0.496,-2.113 -1.158,-4.186 -1.717,-6.284c-0.183,-0.687 -0.266,-1.4 -0.436,-2.331c-2.204,-0.429 -3.251,-2.396 -4.111,-4.41c-0.976,-2.288 0.363,-4.064 1.73,-5.883c-1.043,-2.28 -2.042,-4.651 -3.21,-6.935c-0.538,-1.051 -1.366,-1.968 -2.14,-2.879c-0.582,-0.686 -0.56,-1.288 0.135,-1.747c1.184,-0.783 1.93,-1.931 2.804,-2.991c0.985,-1.194 2.113,-2.268 3.177,-3.396c0.316,-0.333 0.775,-0.617 0.917,-1.014c0.574,-1.606 1.959,-1.864 3.323,-1.991c2.441,-0.228 4.897,-0.303 7.346,-0.448c0.338,-0.02 0.677,-0.06 1.011,-0.118c0.82,-0.143 1.638,-0.301 2.576,-0.476c-0.73,-0.595 -1.507,-1.152 -2.192,-1.805c-1.154,-1.101 -2.308,-2.214 -3.353,-3.416c-0.975,-1.121 -1.878,-2.32 -2.689,-3.566c-1.345,-2.067 -1.973,-4.416 -2.053,-6.846c-0.111,-3.376 -0.028,-6.758 -0.028,-10.245c-1.151,0.07 -2.438,0.161 -3.727,0.22c-0.685,0.031 -1.377,0.057 -2.057,-0.007c-0.875,-0.082 -1.178,-0.637 -0.828,-1.42c1.965,-4.404 4.192,-8.64 7.058,-12.561c3.065,-4.194 6.45,-8.068 10.536,-11.248c1.639,-1.277 3.669,-2.083 5.588,-2.955c0.972,-0.442 1.99,-0.76 2.968,-1.245c1.309,-0.652 2.801,-0.987 4.25,-1.296c1.623,-0.346 3.278,-0.593 4.933,-0.734c1.638,-0.141 3.294,-0.153 4.939,-0.119c1.892,0.038 3.782,0.187 5.672,0.292c2.665,0.149 5.146,1.065 7.639,1.895c1.734,0.577 3.437,1.262 5.114,1.99c0.766,0.333 1.437,0.887 2.34,1.459c-0.203,-0.734 -0.361,-1.319 -0.528,-1.901c-0.221,-0.771 -0.069,-1.35 0.762,-1.646c0.536,-0.191 1.047,-0.454 1.579,-0.657c1.122,-0.427 2.261,-0.811 3.375,-1.259c1.752,-0.705 2.851,0.019 2.924,1.965c0.084,2.235 0.162,4.47 0.247,6.705c0.008,0.227 0.042,0.453 0.259,0.731c0.468,-1.452 0.94,-2.903 1.403,-4.357c0.723,-2.268 0.753,-2.273 2.982,-1.532c1.197,0.397 2.422,0.711 3.621,1.101c1.337,0.436 1.59,1.081 0.822,2.292c-1.044,1.647 -2.155,3.251 -3.249,4.865c-0.789,1.164 -1.598,2.315 -2.484,3.595c0.617,0.209 0.991,0.325 1.358,0.462c1.315,0.487 2.327,1.304 2.563,2.753c0.128,0.79 0.606,1.131 1.205,1.535c2.956,1.995 5.41,4.48 6.648,7.886c0.937,2.582 1.821,5.216 2.345,7.902c0.367,1.882 0.072,3.89 0.102,5.841c0.02,1.224 -0.353,2.361 -0.695,3.505c-0.361,1.206 -0.747,2.406 -1.159,3.596c-0.835,2.412 -1.217,4.872 -0.933,7.427c0.144,1.293 0.653,2.409 1.365,3.481c0.394,0.592 0.628,1.291 0.973,2.025c-1.277,0.468 -2.359,0.358 -3.416,0.228c-1.425,-0.174 -2.834,-0.466 -4.256,-0.671c-0.694,-0.1 -1.193,-0.348 -1.326,-1.106c-0.178,-1.008 -0.488,-2.005 -0.553,-3.018c-0.095,-1.488 -0.024,-2.987 -0.024,-4.481c0.081,-0.089 0.162,-0.179 0.093,-0.102c0.032,-0.1 -0.008,0.022 -0.047,0.144" style="fill:#231f20;fill-rule:nonzero;"/><path d="M98.352,65.481c0.266,-0.356 0.447,-0.569 0.594,-0.803c0.989,-1.583 1.733,-1.827 3.337,-1.073c0.206,0.096 0.395,0.291 0.602,0.305c0.302,0.022 0.613,-0.079 0.921,-0.127c-0.144,-0.326 -0.206,-0.848 -0.445,-0.947c-2.068,-0.856 -2.955,-1.75 -4.813,0.455c-0.143,0.17 -0.383,0.255 -0.539,0.418c-0.601,0.625 -0.526,1.174 0.343,1.772m-32.705,-9.446c1.515,-1.346 1.689,-3.166 0.471,-4.545c-0.35,-0.397 -0.846,-0.452 -1.177,-0.014c-0.67,0.886 -0.472,1.945 -0.453,2.96c0.014,0.748 0.318,1.302 1.159,1.599m-10.817,-3.142c-0.105,-0.189 -0.298,-0.725 -0.647,-1.126c-0.438,-0.505 -1.219,-0.377 -1.591,0.162c-0.511,0.74 -0.536,3.049 -0.023,3.767c0.319,0.445 0.767,0.574 1.136,0.131c0.615,-0.74 1.195,-1.526 1.125,-2.934m5.337,2.908c-0.341,-0.345 -0.54,-0.725 -0.752,-0.732c-2.469,-0.084 -4.455,1.318 -3.715,4.317c0.121,0.491 0.364,0.971 0.634,1.403c0.568,0.907 1.306,1.689 2.48,1.521c1.276,-0.182 2.498,-0.579 3.102,-1.977c-0.778,0.101 -1.485,0.37 -2.2,0.616c-1.36,0.468 -2.162,0.112 -2.739,-1.197c-0.607,-1.378 -0.266,-2.695 0.914,-3.24c0.609,-0.282 1.29,-0.41 2.276,-0.711m13.885,9.667c-0.922,0.162 -0.934,0.738 -1.043,1.216c-0.538,2.383 -2.187,3.512 -4.448,3.896c-1.506,0.256 -3.034,0.566 -4.448,-0.437c-0.167,-0.118 -0.734,0.023 -0.836,0.202c-0.115,0.204 -0.008,0.662 0.168,0.871c0.203,0.241 0.574,0.426 0.893,0.466c1.119,0.141 2.266,0.388 3.369,0.272c4.081,-0.431 5.325,-2.23 6.422,-5.429c0.096,-0.278 -0.04,-0.637 -0.077,-1.057m22.371,1.895c-0.307,0.322 -0.664,0.523 -0.661,0.719c0.022,1.644 -1.227,2.411 -2.278,3.23c-2.307,1.795 -4.777,3.33 -7.499,4.471c-1.844,0.773 -3.79,0.941 -5.702,1.128c-2.378,0.232 -4.793,0.081 -7.192,0.115c-0.323,0.004 -0.657,0.09 -0.966,0.197c-2.003,0.694 -4.799,0.292 -5.336,-2.11c-0.186,-0.829 -0.894,-1.212 -1.719,-1.126c-2.274,0.234 -4.052,-0.703 -5.8,-2.059c-3.095,-2.402 -5.542,-5.353 -7.43,-8.714c-0.812,-1.443 -1.229,-3.238 -1.354,-4.909c-0.218,-2.915 -0.101,-5.858 -0.067,-8.788c0.018,-1.561 0.355,-1.889 1.963,-1.955c1.834,-0.077 3.689,0.094 5.504,-0.113c5.415,-0.62 10.764,0.14 16.131,0.575c2.854,0.232 5.716,0.423 8.55,0.813c2.369,0.327 4.701,0.917 7.01,1.383c0.469,1.574 0.718,3.07 1.359,4.372c0.647,1.317 1.643,2.473 2.559,3.643c0.976,1.245 2.487,1.576 3.969,2.138c0.106,0.339 0.237,0.757 0.374,1.196c0.23,0 0.454,0.07 0.555,-0.012c0.444,-0.359 0.833,-0.785 1.277,-1.143c1.282,-1.035 2.762,-1.154 4.23,-0.62c1.606,0.584 2.71,1.76 2.936,3.513c0.272,2.108 -2.148,5.86 -4.235,6.391c-0.889,0.226 -1.915,-0.074 -2.877,-0.154c-0.947,-0.079 -1.776,-0.32 -2.229,-1.314c-0.145,-0.318 -0.597,-0.497 -1.072,-0.867" style="fill:#fdd8bd;fill-rule:nonzero;"/><path d="M92.596,86.838c0.721,2.587 1.412,4.992 2.052,7.41c0.175,0.659 0.181,1.361 0.289,2.039c0.234,1.469 0.815,1.79 2.289,1.453c1.601,-0.365 3.225,-0.632 4.794,-0.934c1.779,4.087 1.331,13.537 -0.821,16.893c-2.277,-0.083 -4.715,0.097 -7.05,-0.311c-4.916,-0.86 -9.827,-0.914 -14.767,-0.56c-2.281,0.163 -4.556,0.401 -6.834,0.604l-0.094,-0.365c2.031,-0.739 4.061,-1.479 6.241,-2.273c-0.093,-0.713 -0.089,-1.337 -0.263,-1.906c-0.67,-2.19 -1.566,-4.325 -2.041,-6.552c-0.298,-1.406 -0.118,-2.954 0.062,-4.411c0.301,-2.441 0.789,-4.857 1.162,-7.29c0.084,-0.543 0.012,-1.11 0.012,-1.8c-0.917,0.256 -0.933,0.843 -1.01,1.384c-0.248,1.755 -0.471,3.514 -0.747,5.264c-0.128,0.819 -0.356,1.623 -0.84,2.415c-0.488,-1.911 -1.002,-3.815 -1.437,-5.738c-0.072,-0.319 0.1,-0.816 0.335,-1.06c1.482,-1.54 2.211,-3.498 2.85,-5.437c0.437,-1.325 0.385,-2.809 0.573,-4.409c0.067,-0.049 0.28,-0.238 0.52,-0.38c1.63,-0.96 1.993,-0.867 2.654,0.859c0.418,1.092 1.087,1.559 2.289,1.703c2.721,0.326 4.797,-0.733 6.598,-2.608c0.51,-0.531 0.816,-1.16 0.608,-1.879c-0.238,-0.821 0.142,-1.314 0.724,-1.748c1.175,-0.875 2.5,-1.417 3.942,-1.619c1.429,-0.201 2.572,0.415 3.494,1.463c0.946,1.074 1.853,2.182 2.795,3.259c2.259,2.586 4.525,5.167 6.799,7.741c0.453,0.513 1.02,0.938 1.417,1.487c0.649,0.899 0.706,1.388 -0.101,2.126c-1.086,0.994 -2.271,1.969 -3.582,2.607c-2.211,1.075 -4.557,1.859 -7.087,1.822c-0.654,-0.01 -1.484,0.301 -1.918,0.004c-0.466,-0.319 -0.603,-1.167 -0.81,-1.808c-0.633,-1.962 -1.228,-3.934 -1.842,-5.902c-0.199,-0.64 -0.333,-1.339 -1.255,-1.543" style="fill:#f38596;fill-rule:nonzero;"/><path d="M112.578,46.435c1.345,-1.206 0.061,-2.801 0.725,-4.185c1.278,0.502 1.746,1.602 1.744,2.669c-0.008,3.222 -0.395,6.393 -2.263,9.183c-0.316,0.471 -0.501,1.028 -0.771,1.532c-0.871,1.631 -1.848,3.173 -3.427,4.238c-0.426,0.287 -0.79,0.667 -1.238,1.052c-0.055,-0.062 -0.223,-0.205 -0.332,-0.383c-1.431,-2.341 -4.35,-2.59 -6.758,-1.756c-2.109,0.73 -3.95,0.434 -5.526,-1.092c-0.86,-0.832 -1.571,-1.82 -2.325,-2.756c-1.216,-1.512 -1.197,-3.414 -1.621,-5.18c-0.928,-3.86 -1.729,-7.762 -2.914,-11.542c-0.886,-2.825 -2.24,-5.509 -3.478,-8.215c-1.675,-3.661 -4.58,-6.122 -8.143,-7.813c-1.998,-0.947 -4.091,-1.692 -6.284,-2.587c1.454,-0.358 2.844,-0.756 4.257,-1.038c4.822,-0.96 9.703,-1.009 14.538,-0.349c3.74,0.511 7.375,1.659 10.864,3.138c1.036,0.439 1.914,1.244 2.881,1.855c0.661,0.418 1.368,0.764 2.018,1.198c0.307,0.205 0.593,0.503 0.776,0.823c0.764,1.341 1.486,2.708 2.203,4.025c-1.014,0.969 -2.155,1.834 -3.009,2.925c-1.472,1.879 -2.452,3.991 -2.038,6.504c0.369,2.243 1.868,3.49 3.861,4.164c0.682,0.232 1.18,0.495 1.666,1.028c1.232,1.355 2.965,1.864 4.594,2.562" style="fill:#775a30;fill-rule:nonzero;"/><path d="M127.606,77.92c-1.821,-0.196 -3.357,-0.285 -4.863,-0.548c-1.264,-0.222 -1.91,-1.204 -1.941,-2.881c-0.037,-2.067 0.17,-4.144 0.033,-6.201c-0.15,-2.279 0.562,-4.242 1.596,-6.183c0.441,-0.829 0.706,-1.751 0.898,-2.704c-1.258,0.533 -1.343,1.794 -1.82,2.788c-0.545,1.133 -1.032,2.297 -1.486,3.47c-0.434,1.121 -0.811,2.265 -1.179,3.41c-0.385,1.197 -0.824,2.389 -1.067,3.617c-0.228,1.154 -0.229,2.353 -0.342,3.676c-2.5,-0.373 -4.873,-0.686 -7.228,-1.098c-1.152,-0.201 -1.304,-0.498 -1.169,-1.671c0.322,-2.801 1.542,-5.264 2.965,-7.637c0.62,-1.034 1.3,-2.033 1.978,-3.03c2.602,-3.824 3.721,-8.115 3.791,-12.671c0.02,-1.337 -0.46,-2.696 -0.799,-4.023c-0.531,-2.074 -1.696,-4.297 -3.084,-6.035c0.34,-0.462 0.702,-0.953 1.083,-1.471c4.528,2.086 6.16,6.142 7.475,10.419c0.207,0.675 0.333,1.375 0.565,2.355c0.778,-1.89 0.171,-4.194 -1.718,-7.84c-1.236,-2.386 -2.683,-4.547 -5.511,-5.786c0.656,-0.618 1.154,-1.086 1.569,-1.477c1.044,0.631 1.915,1.154 2.782,1.682c3.421,2.084 5.748,5.023 6.928,8.861c0.74,2.408 1.607,4.778 1.715,7.343c0.143,3.416 -0.17,6.78 -1.45,9.953c-1.166,2.892 -1.634,5.852 -1.371,8.918c0.085,0.996 0.55,1.964 0.877,2.933c0.174,0.519 0.424,1.013 0.773,1.831" style="fill:#775a30;fill-rule:nonzero;"/><path d="M103.011,96.596c1.79,-0.838 3.447,-1.614 5.191,-2.43c0.857,0.752 1.162,1.867 1.504,2.93c0.762,2.362 1.045,4.814 1.02,7.281c-0.021,2.053 -0.1,4.123 -0.405,6.148c-0.183,1.212 -0.732,2.417 -1.337,3.502c-0.425,0.762 -0.614,1.41 -0.414,2.255c0.196,0.832 0.269,1.695 0.369,2.548c0.247,2.099 -0.055,4.056 -1.093,5.969c-0.771,1.42 -1.56,2.785 -2.606,4.018c-1.315,1.554 -2.937,2.458 -5.026,2.647c1.035,-0.927 2.022,-1.805 2.996,-2.697c0.037,-0.034 -0.05,-0.206 -0.122,-0.471c-1.978,1.204 -3.891,2.489 -6.471,3.127c1.355,-1.93 3.515,-2.638 4.386,-4.513c-0.08,-0.094 -0.159,-0.188 -0.239,-0.282c-1.177,0.827 -2.354,1.655 -3.693,2.597c0.851,-1.673 2.881,-2.323 2.706,-4.457c-0.906,0.905 -1.774,1.852 -2.727,2.703c-1.062,0.95 -2.141,1.909 -3.335,2.67c-0.56,0.358 -1.414,0.377 -2.124,0.341c-0.747,-0.037 -1.038,-0.607 -0.589,-1.213c0.674,-0.908 1.441,-1.793 2.322,-2.492c1.589,-1.262 3.034,-2.626 4.038,-4.398c0.302,-0.533 0.586,-1.138 0.648,-1.735c0.109,-1.058 -0.897,-1.649 -1.834,-1.117c-1.815,1.03 -3.81,1.522 -5.811,1.988c-0.757,0.177 -1.479,0.057 -2.085,-0.509c-0.511,-0.477 -0.815,-1.096 -0.496,-1.686c0.198,-0.365 0.861,-0.763 1.239,-0.698c2.282,0.389 3.392,-1.355 4.781,-2.539c0.461,-0.393 0.858,-0.612 1.458,-0.732c1.804,-0.361 3.563,-0.663 5.416,-0.193c1.23,0.312 1.682,0.063 2.083,-1.184c0.472,-1.463 0.816,-2.991 1.002,-4.517c0.265,-2.16 0.368,-4.341 0.477,-6.517c0.109,-2.149 -0.284,-4.224 -1.229,-6.344" style="fill:#fdd8bd;fill-rule:nonzero;"/><path d="M55.93,98.446l-2.665,0c-0.331,-1.182 -0.669,-2.378 -1.001,-3.576c-1.466,-5.283 -2.944,-10.563 -4.382,-15.854c-0.22,-0.809 -0.25,-1.67 -0.374,-2.553c0.393,-0.138 0.648,-0.291 0.912,-0.309c2.112,-0.143 4.226,-0.279 6.341,-0.381c2.8,-0.136 5.602,-0.238 8.403,-0.356c0.229,-0.01 0.46,-0.021 0.684,-0.063c1.559,-0.297 1.594,-0.314 2.16,1.063c0.521,1.268 0.962,2.569 1.425,3.86c0.272,0.758 0.18,1.434 -0.389,2.069c-1.23,1.375 -1.631,3.145 -2.076,4.851c-0.19,0.73 -0.112,1.636 0.143,2.355c0.579,1.637 0.38,1.593 -0.278,3.236c-2.186,-0.497 -4.043,0.008 -5.521,1.762c-1.062,1.261 -2.161,2.492 -3.382,3.896" style="fill:#fff200;fill-rule:nonzero;"/><path d="M66.569,116.439c-0.6,0.496 -1.292,0.915 -1.777,1.504c-0.752,0.912 -0.652,1.451 0.3,2.165c0.498,0.373 1.08,0.657 1.66,0.888c2.901,1.151 5.948,1.722 9.038,1.931c2.57,0.173 5.158,0.112 7.737,0.094c0.674,-0.005 1.378,-0.151 2.01,-0.389c0.984,-0.369 1.933,-0.294 2.83,0.106c0.739,0.329 1.419,0.36 2.166,0.134c1.26,-0.383 2.527,-0.739 3.792,-1.104c0.584,-0.169 1.169,-0.332 1.832,-0.52c0.155,0.902 -0.278,1.389 -0.697,1.818c-0.96,0.982 -1.977,1.908 -2.965,2.863c-0.737,0.713 -1.483,1.419 -2.193,2.158c-0.756,0.788 -0.896,1.758 -0.471,2.717c0.402,0.908 1.289,1.099 2.189,0.998c0.635,-0.072 1.094,0.092 1.535,0.548c0.293,0.302 0.709,0.487 1.121,0.759c-3.405,1.586 -6.941,2.365 -10.632,1.771c-2.521,-0.405 -5.06,-0.688 -7.547,-1.444c-2.635,-0.801 -4.846,-2.289 -7.216,-3.539c-2.63,-1.386 -3.883,-3.974 -5.525,-6.211c-0.793,-1.081 -1.048,-2.404 -1.001,-3.761c0.059,-1.715 0.827,-2.668 2.54,-3.12c0.436,-0.116 0.876,-0.214 1.315,-0.32l-0.041,-0.046Z" style="fill:#52c0a5;fill-rule:nonzero;"/><path d="M44.098,97.15c0.728,0.862 1.236,1.92 2.061,2.31c0.783,0.37 1.898,-0.008 2.863,0.033c0.849,0.036 1.69,0.25 2.539,0.289c1.599,0.075 3.201,0.118 4.799,0.076c0.281,-0.007 0.593,-0.458 0.817,-0.759c0.845,-1.137 1.545,-2.41 2.525,-3.411c0.729,-0.745 1.76,-1.262 2.744,-1.672c1.042,-0.434 1.356,-0.119 1.307,0.986c-0.052,1.19 0.247,1.678 1.313,2.051c1.507,0.527 2.996,1.136 4.54,1.518c1.556,0.385 1.676,1.503 1.79,2.784c-0.253,0.227 -0.479,0.492 -0.761,0.67c-1.197,0.754 -1.633,1.811 -1.931,3.218c-0.336,1.595 -1.12,3.21 -2.107,4.514c-0.716,0.945 -2.091,1.395 -3.446,1.105c-2.325,-0.497 -4.57,-1.319 -6.383,-2.831c-1.367,-1.141 -2.869,-1.595 -4.507,-1.914c-1.957,-0.381 -3.964,-0.606 -5.855,-1.202c-1.867,-0.588 -2.839,-2.272 -3.469,-4.015c-0.528,-1.462 0.454,-2.584 1.161,-3.75" style="fill:#fdd8bd;fill-rule:nonzero;"/><path d="M67.327,116.123c1.888,-1.015 3.948,-1.49 6.044,-1.697c4.27,-0.421 8.546,-0.899 12.847,-0.687c2.319,0.114 4.632,0.394 7.113,0.614c-0.654,0.702 -1.1,1.214 -1.584,1.689c-0.599,0.589 -1.309,0.774 -2.177,0.788c-1.865,0.029 -3.035,0.973 -3.216,2.478c-0.066,0.546 0.095,1.12 0.152,1.69c-3.958,2.053 -17.502,1.005 -20.818,-2.33c0.362,-0.33 0.703,-0.677 1.082,-0.976c0.35,-0.276 0.742,-0.5 1.231,-0.823c-0.285,-0.316 -0.5,-0.554 -0.715,-0.792l0.041,0.046Z" style="fill:#659f95;fill-rule:nonzero;"/><path d="M77.212,109.945c-1.454,1.245 -3.472,1.37 -5.25,2.051c-1.859,0.711 -3.778,1.269 -5.673,1.888c-1.827,0.596 -3.656,1.185 -5.679,1.839c0.164,-0.632 0.267,-1.063 0.386,-1.488c0.575,-2.049 0.741,-2.179 2.808,-2.209c2.58,-0.038 3.727,-0.82 4.683,-3.185c0.658,-1.626 1.825,-3.022 2.108,-4.831c0.058,-0.375 0.527,-0.726 0.87,-1.011c2.053,-1.704 1.569,-4.57 -0.958,-5.559c-0.788,-0.308 -1.584,-0.596 -2.496,-0.938c0.599,-1.543 0.99,-2.955 2.961,-2.953c0.494,0 0.988,-0.477 1.617,-0.805c1.536,5.711 3.062,11.392 4.623,17.201" style="fill:#fff200;fill-rule:nonzero;"/><path d="M45.06,80.914c-1.221,1.105 -2.368,2.12 -3.486,3.166c-0.45,0.421 -0.399,1.528 0.147,2.014c0.967,0.861 2.002,1.647 3.036,2.487c0.534,-1.159 1.099,-5.716 0.847,-6.866c-0.062,-0.283 -0.344,-0.518 -0.544,-0.801m1.183,-3.182c2.145,5.667 5.499,18.616 5.348,20.655c-1.853,-0.149 -3.708,-0.299 -5.815,-0.469c-0.942,-2.1 -1.995,-4.313 -2.929,-6.574c-0.723,-1.747 -1.364,-3.52 -2.583,-5.006c-0.43,-0.524 -0.627,-1.073 -0.199,-1.716c1.692,-2.538 3.802,-4.69 6.178,-6.89" style="fill:#fff8aa;fill-rule:nonzero;"/><path d="M70.767,82.373c-2.255,0.774 -4.016,4.375 -3.471,7.32c0.08,0.434 0.508,1.019 0.895,1.138c0.88,0.268 1.852,0.425 3.006,-0.396c-0.561,-0.23 -0.861,-0.432 -1.18,-0.47c-1.499,-0.178 -1.748,-0.412 -1.675,-1.913c0.024,-0.5 0.137,-1.029 0.347,-1.481c0.641,-1.385 1.349,-2.738 2.078,-4.198m-4.013,13.818c-0.548,-0.252 -1.022,-0.469 -1.662,-0.764c0.41,-0.874 0.613,-1.691 1.101,-2.268c1.014,-1.2 1.01,-2.462 0.312,-3.677c-0.547,-0.952 -0.491,-1.783 -0.262,-2.779c0.73,-3.184 2.801,-5.422 5.103,-7.518c1.557,-1.418 3.879,-0.861 4.467,1.638c0.675,2.868 0.06,5.698 -1.683,8.17c-0.494,0.701 -1.116,1.31 -1.657,1.979c-0.69,0.852 -1.506,1.408 -2.664,1.274c-0.721,-0.083 -1.205,0.267 -1.519,0.882c-0.468,0.915 -0.923,1.838 -1.536,3.063" style="fill:#c6c8ca;fill-rule:nonzero;"/><path d="M117.956,35.285c-2.137,0.64 -3.312,2.253 -4.611,3.778c-1.392,1.632 -1.249,3.597 -1.432,5.491c-1.705,0.04 -3.011,-1.01 -3.591,-2.35c-0.974,-2.248 -0.471,-4.202 0.72,-6.158c1.7,-2.789 5.854,-3.573 8.408,-1.53c0.199,0.159 0.297,0.443 0.506,0.769" style="fill:#f38596;fill-rule:nonzero;"/><path d="M111.163,28.627c-1.573,0.563 -2.417,0.384 -3.219,-0.812c-1.38,-2.057 -2.379,-4.314 -3.149,-6.662c-0.359,-1.094 -0.198,-1.416 0.885,-1.869c1.213,-0.508 2.46,-0.949 3.714,-1.346c0.854,-0.272 1.185,-0.047 1.325,0.803c0.54,3.299 0.37,6.62 0.444,9.886" style="fill:#f38596;fill-rule:nonzero;"/><path d="M55.316,116.988c-1.312,-0.466 -2.598,-0.926 -3.887,-1.379c-1.171,-0.411 -1.937,-1.232 -2.265,-2.402c-0.474,-1.695 -1.345,-3.295 -1.212,-5.143c0.028,-0.378 -0.166,-0.772 -0.318,-1.413c0.978,0.18 1.831,0.468 2.684,0.469c2.244,0.001 3.338,1.092 3.726,3.26c0.239,1.337 0.926,2.587 1.238,3.917c0.186,0.789 0.034,1.657 0.034,2.691" style="fill:#fff8aa;fill-rule:nonzero;"/><path d="M114.809,32.019c-2.803,0.127 -5.052,0.782 -6.385,2.988c-1.191,1.97 -2.122,4.064 -1.708,6.51c-2.582,-0.775 -3.81,-2.722 -3.064,-5.14c0.414,-1.339 1.084,-2.676 1.933,-3.79c2.068,-2.712 6.126,-3.044 9.224,-0.568" style="fill:#f38596;fill-rule:nonzero;"/><path d="M115.241,30.398c-0.837,-0.451 -1.535,-0.827 -2.375,-1.28c0.244,-1.761 0.679,-3.508 1.241,-5.227c0.106,-0.325 0.272,-0.629 0.383,-0.952c0.589,-1.727 0.651,-1.782 2.423,-1.283c1.071,0.302 2.119,0.686 3.301,1.075c-1.044,3.099 -2.881,5.388 -4.973,7.667" style="fill:#f38596;fill-rule:nonzero;"/><path d="M80.034,78.365c2.656,-0.953 5.522,-0.655 7.781,-2.37c1.091,0.725 0.737,1.8 0.906,2.689c0.14,0.739 -0.173,1.347 -0.7,1.851c-0.892,0.853 -1.945,1.437 -3.15,1.673c-1.325,0.26 -2.5,0.093 -3.221,-1.297c-0.441,-0.849 -1.023,-1.623 -1.616,-2.546" style="fill:#fdd8bd;fill-rule:nonzero;"/><path d="M57.951,117.417c-1.249,-0.455 -1.487,-1.258 -1.202,-2.157c0.48,-1.513 1.083,-2.988 1.676,-4.59c0.727,0.292 1.385,0.557 2.136,0.858c-0.604,2.109 -1.141,4.164 -2.61,5.889" style="fill:#c6c8ca;fill-rule:nonzero;"/><path d="M54.871,108.22c0.887,0.656 1.774,1.312 2.69,1.99c-0.448,0.968 -0.874,1.887 -1.474,3.181c-0.596,-1.853 -1.08,-3.359 -1.565,-4.866l0.349,-0.305Z" style="fill:#fff200;fill-rule:nonzero;"/><path d="M66.582,116.433l0.704,-0.357l0.027,0.053l-0.704,0.356l-0.027,-0.052Z" style="fill:#fff;"/><path d="M71.402,113.482l0.147,0.051l-0.156,0.025l0.009,-0.076Z" style="fill:#fff;fill-rule:nonzero;"/><path d="M119.744,69.565c0.04,-0.122 0.079,-0.244 0.047,-0.144c0.069,-0.077 -0.012,0.013 -0.093,0.102l0.046,0.042Z" style="fill:#fff;fill-rule:nonzero;"/><path d="M74.052,65.468c0.037,0.42 0.173,0.778 0.077,1.057c-1.097,3.198 -2.341,4.998 -6.422,5.428c-1.102,0.117 -2.249,-0.131 -3.368,-0.271c-0.319,-0.04 -0.69,-0.226 -0.893,-0.466c-0.176,-0.209 -0.284,-0.667 -0.168,-0.872c0.101,-0.179 0.669,-0.319 0.835,-0.202c1.414,1.003 2.942,0.694 4.449,0.438c2.261,-0.384 3.909,-1.513 4.448,-3.897c0.108,-0.478 0.121,-1.053 1.042,-1.215" style="fill:#231f20;fill-rule:nonzero;"/><path d="M60.167,55.801c-0.986,0.301 -1.667,0.429 -2.276,0.711c-1.18,0.545 -1.521,1.862 -0.914,3.24c0.577,1.309 1.379,1.665 2.739,1.197c0.715,-0.246 1.422,-0.515 2.201,-0.616c-0.604,1.398 -1.827,1.795 -3.103,1.977c-1.174,0.168 -1.912,-0.614 -2.48,-1.521c-0.27,-0.432 -0.513,-0.911 -0.634,-1.403c-0.74,-2.999 1.246,-4.401 3.716,-4.317c0.211,0.007 0.41,0.387 0.751,0.732" style="fill:#231f20;fill-rule:nonzero;"/><path d="M54.83,52.893c0.07,1.408 -0.51,2.194 -1.125,2.934c-0.369,0.443 -0.817,0.314 -1.136,-0.131c-0.513,-0.718 -0.488,-3.027 0.024,-3.767c0.372,-0.539 1.152,-0.667 1.591,-0.162c0.348,0.401 0.542,0.937 0.646,1.126" style="fill:#231f20;fill-rule:nonzero;"/><path d="M65.648,56.035c-0.842,-0.297 -1.146,-0.851 -1.159,-1.599c-0.019,-1.014 -0.217,-2.073 0.453,-2.96c0.331,-0.438 0.826,-0.383 1.177,0.015c1.217,1.378 1.043,3.199 -0.471,4.544" style="fill:#231f20;fill-rule:nonzero;"/><path d="M98.352,65.481c-0.869,-0.598 -0.944,-1.147 -0.343,-1.772c0.156,-0.163 0.396,-0.248 0.539,-0.418c1.858,-2.205 2.745,-1.311 4.813,-0.455c0.239,0.099 0.301,0.621 0.445,0.947c-0.308,0.048 -0.619,0.149 -0.921,0.127c-0.207,-0.014 -0.396,-0.209 -0.602,-0.305c-1.604,-0.754 -2.348,-0.51 -3.337,1.073c-0.147,0.234 -0.328,0.447 -0.594,0.803" style="fill:#231f20;fill-rule:nonzero;"/><path d="M42.463,84.912c0.684,0.684 1.212,1.211 1.934,1.933l0,-3.704c-0.719,0.658 -1.237,1.133 -1.934,1.771m2.597,-3.998c0.2,0.283 0.483,0.518 0.545,0.801c0.251,1.15 -0.314,5.707 -0.848,6.866c-1.034,-0.84 -2.068,-1.627 -3.036,-2.487c-0.546,-0.486 -0.597,-1.593 -0.147,-2.015c1.118,-1.045 2.265,-2.06 3.486,-3.165" style="fill:#231f20;fill-rule:nonzero;"/><path d="M70.767,82.373c-0.729,1.46 -1.437,2.813 -2.078,4.198c-0.21,0.452 -0.323,0.981 -0.347,1.481c-0.073,1.501 0.176,1.735 1.675,1.913c0.319,0.038 0.619,0.24 1.18,0.47c-1.154,0.821 -2.126,0.664 -3.006,0.396c-0.387,-0.119 -0.815,-0.704 -0.895,-1.138c-0.545,-2.945 1.216,-6.546 3.471,-7.32" style="fill:#231f20;fill-rule:nonzero;"/><path d="M42.463,84.912c0.697,-0.638 1.215,-1.113 1.934,-1.771l0,3.704c-0.722,-0.722 -1.25,-1.249 -1.934,-1.933" style="fill:#fff;fill-rule:nonzero;"/><path d="M117.628,44.419c0.521,3.228 0.707,6.553 0.048,9.755c-1.452,7.058 -6.851,12.93 -7.744,20.08c1.604,-0.13 3.233,0.069 4.758,0.582c0.136,-4.103 1.478,-8.057 2.814,-11.938c1.336,-3.88 2.695,-7.826 2.867,-11.927c0.157,-3.753 -0.803,-8.34 -3.786,-10.897c-0.531,1.153 0.83,3.021 1.043,4.345" style="fill:#967549;fill-rule:nonzero;"/></g></svg>