<?xml version="1.0" encoding="UTF-8" standalone="no"?><!DOCTYPE svg PUBLIC "-//W3C//DTD SVG 1.1//EN" "http://www.w3.org/Graphics/SVG/1.1/DTD/svg11.dtd"><svg width="100%" height="100%" viewBox="0 0 163 161" version="1.1" xmlns="http://www.w3.org/2000/svg" xmlns:xlink="http://www.w3.org/1999/xlink" xml:space="preserve" xmlns:serif="http://www.serif.com/" style="fill-rule:evenodd;clip-rule:evenodd;stroke-miterlimit:10;"><g><rect x="10.268" y="10.785" width="141.488" height="138.977" style="fill:#b1d187;stroke:#fff;stroke-width:2px;"/><path d="M48.585,98.483c-3.146,0.97 -6.418,1.421 -9.38,3.202c1.024,0.499 1.685,0.421 2.559,-0.02c1.149,-0.58 2.524,-0.727 3.805,-1.051c1.219,-0.309 2.442,-0.607 3.922,-0.973c-0.452,-0.578 -0.671,-0.857 -0.906,-1.158m37.112,-29.463c1.485,-1.372 3.078,-2.502 5.405,-2.791c-1.172,-1.055 -2.146,-1.932 -3.239,-2.914c-0.983,1.426 -2.003,2.905 -3.036,4.406c0.258,0.385 0.52,0.777 0.87,1.299m-40.077,27.63c-2.461,0.636 -4.933,1.227 -7.384,1.898c-0.51,0.14 -0.945,0.547 -1.717,1.014c0.938,0.404 1.535,0.662 2.174,0.938c1.938,-1.294 4.33,-1.226 6.461,-1.993c0.832,-0.298 1.688,-0.536 2.54,-0.803c-0.396,-1.138 -1.123,-1.3 -2.074,-1.054m20.961,41.12c1.092,0.205 2.209,0.318 3.32,0.381c1.955,0.109 3.923,0.046 5.867,0.241c3.442,0.346 6.792,0.01 10.095,-0.956c0.916,-0.268 1.864,-0.449 2.754,-0.781c0.918,-0.344 1.901,-0.716 1.945,-2.019c-1.343,0.468 -2.614,0.952 -3.912,1.354c-2.366,0.731 -4.829,0.7 -7.272,0.786c-1.85,0.064 -3.703,0.039 -5.552,0.115c-2.244,0.093 -4.426,-0.245 -6.592,-0.763c-0.61,-0.147 -1.225,-0.276 -1.955,-0.439c-0.108,1.424 0.155,1.865 1.302,2.081m44.035,-26.281c2.827,-0.86 5.565,-0.299 8.289,0.474c0.401,0.113 0.812,0.268 1.151,0.5c3.146,2.145 6.256,4.35 8.588,7.394c0.95,1.24 1.774,2.6 2.46,3.999c0.282,0.575 0.046,1.398 0.046,2.216c0.942,-0.713 1.106,-1.601 0.963,-2.613c-0.314,-2.239 -1.533,-4.009 -3.102,-5.535c-2.889,-2.809 -6.095,-5.239 -9.644,-7.187c-1.102,-0.606 -2.326,-1.096 -3.556,-1.35c-2.308,-0.477 -4.323,0.281 -6.025,2.015c0.278,0.034 0.586,0.161 0.83,0.087m-35.799,-22.811c0.243,0.628 0.776,1.103 1.633,0.943c2.739,-0.511 5.38,-1.241 7.489,-3.173c0.282,-0.258 0.595,-0.663 0.601,-1.005c0.047,-2.929 0.027,-5.859 0.027,-8.988c-0.512,0.475 -0.906,0.811 -1.265,1.181c-1.089,1.12 -2.461,1.719 -3.889,2.329c-2.168,0.926 -4.222,2.113 -6.473,3.264c0.649,1.914 1.202,3.704 1.877,5.449m-4.837,46.895c2.262,0.238 4.55,0.321 6.828,0.322c2.438,0.001 4.887,-0.059 7.312,-0.294c2.185,-0.212 4.155,-1.196 6.086,-2.193c0.326,-0.168 0.629,-0.38 1.035,-0.629c0.04,-1.929 0.248,-3.906 -0.826,-5.794c-2.107,0.551 -4.141,1.107 -6.189,1.603c-0.7,0.169 -1.437,0.237 -2.161,0.257c-1.924,0.054 -3.799,-0.231 -5.632,-0.845c-0.419,-0.141 -0.957,-0.092 -1.402,0.019c-3.347,0.836 -6.92,3.452 -8.945,6.55c1.211,0.939 2.612,0.868 3.894,1.004m59.977,-10.275c0.018,-0.552 -0.05,-1.155 -0.265,-1.659c-0.897,-2.111 -2.29,-3.92 -4,-5.426c-1.897,-1.669 -3.865,-3.291 -5.962,-4.704c-2.603,-1.753 -5.569,-1.824 -8.574,-1.182c-0.089,0.018 -0.158,0.131 -0.331,0.283c0.741,1.807 1.451,3.651 2.255,5.455c0.672,1.51 1.128,3.053 1.025,4.704c-0.053,0.846 0.281,1.358 0.983,1.798c3.493,2.187 7.199,3.523 11.422,2.943c1.037,-0.142 2.079,-0.256 3.054,-0.376c0.167,-0.733 0.375,-1.281 0.393,-1.836m-82.791,-32.553c-0.131,0.614 -0.503,0.905 -0.957,1.025c-2.041,0.543 -4.075,1.122 -6.144,1.535c-0.99,0.199 -1.742,0.732 -2.547,1.211c-0.167,0.1 -0.18,0.448 -0.281,0.731c1.098,0.51 2.058,-0.047 3.02,-0.149c1.206,-0.128 2.39,-0.443 3.59,-0.638c0.957,-0.157 1.768,-0.43 1.755,-1.706c1.388,0.472 2.32,1.386 3.23,2.299c0.631,0.633 1.175,1.355 1.727,2.06c0.509,0.65 0.391,1.083 -0.364,1.288c-2.046,0.558 -4.105,1.072 -6.151,1.632c-0.537,0.146 -1.046,0.392 -1.824,0.691c1.45,0.989 2.875,1.038 4.169,0.993c3.102,-0.106 6.113,-0.82 8.852,-2.314c1.363,-0.744 2.359,-1.913 2.946,-3.402c-0.512,-0.097 -0.95,-0.181 -1.388,-0.265c5.967,-2.426 11.436,-5.629 16.958,-8.743c-0.515,-1.406 -0.961,-2.622 -1.422,-3.88c-4.135,2.431 -8.413,4.375 -12.929,5.791c-1.112,0.349 -2.249,0.632 -3.389,0.878c-0.318,0.068 -0.705,-0.059 -1.032,-0.173c-0.5,-0.175 -0.966,-0.439 -1.461,-0.628c-1.642,-0.628 -3.287,-0.7 -4.932,0.009c-0.95,0.409 -1.846,0.326 -2.722,-0.262c-0.435,-0.292 -0.943,-0.49 -1.44,-0.676c-0.667,-0.251 -1.249,-0.068 -1.736,0.447c-0.467,0.493 -0.255,0.977 0.027,1.439c0.327,0.535 0.695,1.045 1.015,1.522c1.232,0.116 2.127,-0.993 3.43,-0.715m40.395,-3.655c0.111,0.907 0.256,1.671 0.286,2.441c0.048,1.228 -0.414,1.885 -1.594,1.894c-3.019,0.026 -6.039,-0.099 -9.06,-0.138c-1.59,-0.021 -3.189,-0.082 -4.77,0.047c-1.943,0.158 -3.31,1.37 -4.371,2.865c-1.613,2.274 -3.239,4.528 -5.3,6.442c-0.15,0.14 -0.243,0.34 -0.471,0.669c0.388,0.395 0.785,0.797 1.303,1.321c1.197,-2.015 1.87,-4.129 3.834,-5.277c0.558,0.488 0.183,0.845 -0.094,1.111c-1.298,1.251 -1.973,2.843 -2.582,4.47c-0.162,0.435 -0.281,0.905 -0.303,1.365c-0.048,0.953 0.152,1.08 1.316,1.034c0.493,-1.499 0.943,-2.994 1.484,-4.455c0.27,-0.731 0.345,-0.705 1.268,-0.625c-1.863,4.811 -1.926,5.444 -0.723,7.357c0.55,0.073 0.716,-0.211 0.75,-0.716c0.147,-2.178 0.318,-4.353 0.484,-6.529c0.004,-0.043 0.065,-0.081 0.109,-0.132c0.75,0.024 0.812,0.577 0.792,1.107c-0.034,0.93 -0.147,1.856 -0.201,2.786c-0.051,0.885 -0.133,1.777 -0.081,2.66c0.041,0.674 0.249,1.35 1.112,1.631c0.884,-0.607 0.953,-1.547 1.014,-2.483c0.102,-1.571 0.202,-3.142 0.28,-4.714c0.03,-0.626 0.16,-1.209 0.878,-1.304c1.223,-0.163 1.605,-1.097 2.023,-2.003c0.345,-0.748 0.639,-1.52 0.899,-2.146c1.028,0.132 1.885,0.304 2.749,0.341c2.919,0.125 5.841,0.18 8.76,0.313c0.676,0.032 1.337,0.334 2.016,0.394c0.988,0.087 1.994,0.162 2.974,0.063c0.942,-0.093 1.454,-0.702 1.533,-1.711c0.073,-0.935 0.407,-1.85 0.48,-2.784c0.14,-1.791 -0.082,-3.547 -0.872,-5.294l-5.922,0Zm7.54,23.189c-0.028,-0.272 -0.021,-0.589 -0.096,-0.887c-0.417,-1.649 -0.422,-1.613 -2.117,-1.554c-2.337,0.08 -4.677,0.097 -7.014,0.149c-0.458,0.011 -0.914,0.055 -1.501,0.091c1.177,2.718 2.908,4.897 4.443,7.202c1.541,2.314 2.911,4.739 4.447,7.266c-0.459,0.511 -0.926,1.031 -1.409,1.57c0.625,0.691 1.486,0.488 2.223,0.469c3.81,-0.102 7.618,-0.272 11.425,-0.433c1.739,-0.074 3.474,-0.221 5.213,-0.264c1.412,-0.036 2.009,-0.54 2.273,-2.284c0.198,-1.297 0.162,-2.607 -0.346,-3.86c-0.708,-1.746 -1.384,-3.505 -2.124,-5.238c-0.89,-2.083 -2.385,-2.37 -4.077,-2.154c-2.466,0.314 -4.91,0.79 -7.366,1.189c-0.776,0.126 -1.534,0.362 -2.335,-0.027c-0.766,-0.371 -1.277,0.3 -1.849,0.627c-0.702,0.402 -1.378,0.847 -2.232,1.376c0.264,-1.226 0.569,-1.608 2.442,-3.238m1.603,-25.141c0.058,-2.843 -0.382,-5.585 -0.746,-8.313c-0.362,-2.712 -1.029,-5.385 -1.588,-8.208c0.262,0.152 0.616,0.233 0.7,0.428c0.411,0.951 0.82,1.914 1.093,2.909c0.234,0.851 0.278,1.753 0.416,2.631c0.291,1.861 0.604,3.718 0.877,5.581c0.242,1.654 0.424,3.316 0.667,4.969c0.142,0.967 -0.029,1.24 -1,1.345c-0.894,0.098 -1.789,0.186 -2.749,0.284c1.553,3.732 0.813,7.343 -0.143,11.016c1.472,0.443 2.917,0.258 4.287,0.074c2.486,-0.334 4.935,-0.7 7.455,-0.281c1.489,0.248 2.17,-0.463 1.911,-1.872c-0.824,-4.471 -1.593,-8.945 -3.024,-13.293c-0.98,-2.98 -2.453,-5.676 -4.143,-8.27c-1.29,-1.978 -2.688,-3.907 -4.215,-5.712c-1.399,-1.653 -3.296,-2.665 -5.526,-2.748c-0.679,-0.025 -1.386,0.396 -2.061,0.658c-1.61,0.622 -2.646,1.7 -2.79,3.479c-0.101,1.243 -0.293,2.481 -0.336,3.726c-0.079,2.29 -0.087,4.582 -0.108,6.873c-0.015,1.668 -0.003,3.336 -0.003,5.212c3.776,0.28 7.354,0.176 11.026,-0.488m-22.318,15.694c-1.114,0.638 -1.281,1.486 -1.294,2.587c-0.013,1.096 -0.113,2.205 -0.308,3.285c-0.241,1.333 -0.535,2.694 -2.131,3.242c0.551,2.551 1.344,5.016 2.378,7.418c0.744,1.729 1.412,3.499 1.971,5.294c0.426,1.369 1.385,2.123 2.63,2.492c2.207,0.653 4.465,0.966 6.753,0.296c1.424,-0.417 2.857,-0.805 4.283,-1.214c0.304,-0.088 0.608,-0.19 0.896,-0.32c2.314,-1.051 2.458,-1.36 1.18,-3.432c-1.573,-2.548 -3.243,-5.038 -4.859,-7.56c-0.652,-1.017 -1.257,-2.062 -1.911,-3.077c-0.308,-0.476 -0.683,-0.911 -1.09,-1.447c-0.405,0.432 -0.691,0.808 -1.05,1.095c-0.339,0.272 -0.755,0.451 -1.3,0.764c-0.116,-1.077 0.749,-1.331 0.956,-1.939c-0.729,-0.654 -2.097,-0.068 -2.596,-1.389c0.473,-0.072 0.92,-0.196 1.367,-0.2c3.19,-0.029 6.382,0.027 9.57,-0.064c2.433,-0.07 4.891,-0.137 7.28,-0.535c1.972,-0.33 3.813,-1.197 5.485,-2.396c1.682,-1.207 2.702,-2.735 3.089,-4.848c-1.403,-0.364 -2.822,-0.243 -4.217,-0.203c-2.654,0.076 -5.306,0.241 -7.96,0.367c-0.694,0.034 -1.301,-0.178 -1.966,-0.407c-1.537,-0.527 -3.151,-0.981 -4.764,-1.114c-3.072,-0.255 -6.166,-0.265 -9.251,-0.373c-0.262,-0.01 -0.525,-0.002 -0.939,-0.002c-0.481,1.483 -0.902,2.936 -2.202,3.68m11.63,-47.723c-0.256,-1.022 -1.125,-0.93 -1.876,-1.087c-1.815,-0.379 -3.663,-0.66 -5.431,-1.197c-4.152,-1.262 -7.652,-3.59 -10.622,-6.704c-1.305,-1.369 -2.606,-2.742 -3.882,-4.085c-0.379,1.341 -1.353,2.322 -2.729,2.942c-1.205,0.542 -1.596,0.348 -1.855,-0.961c-0.141,-0.715 -0.223,-1.442 -0.338,-2.201c-3.422,2.451 -6.703,5.006 -10.781,6.512c0,0.533 -0.085,1.063 0.015,1.557c0.344,1.689 0.858,3.35 1.114,5.05c0.443,2.946 1.815,5.54 2.929,8.244c1.88,4.57 5.015,7.989 9.463,10.185c3.431,1.694 6.964,1.842 10.604,0.468c3.351,-1.264 6.445,-2.962 9.356,-4.988c2.084,-1.449 3.469,-3.521 4.719,-5.674c0.37,-0.637 0.726,-1.282 1.085,-1.925c0.333,-0.597 1.185,-1.056 0.027,-2.051l0.532,0.018c0.225,0.056 0.477,0.068 0.669,0.179c1.452,0.839 3.013,0.841 4.436,0.176c1.957,-0.914 3.562,-3.058 2.88,-5.381c-0.358,-1.222 -0.999,-2.53 -2.449,-3.092c-1.309,-0.507 -2.569,-0.579 -3.818,0.133c-0.093,0.052 -0.172,0.135 -0.27,0.168c-1.821,0.624 -2.962,1.787 -2.978,3.882c-0.356,-0.069 -0.776,-0.071 -0.8,-0.168m9.151,-4.793c-0.045,-0.937 0.013,-1.803 -0.147,-2.628c-0.391,-2.005 -0.743,-4.036 -1.378,-5.971c-0.518,-1.576 -1.338,-3.076 -2.176,-4.524c-1.819,-3.145 -3.778,-6.195 -6.496,-8.705c-2.496,-2.307 -5.141,-4.406 -8.178,-5.977c-1.568,-0.81 -3.238,-1.268 -5.04,-1.349c-1.461,-0.067 -2.729,0.303 -3.928,1.053c-3.824,2.39 -7.403,5.084 -10.823,8.023c-3.277,2.815 -6.866,5.241 -10.938,6.88c-1.986,0.8 -4.076,1.139 -6.176,1.447c-0.204,0.03 -0.402,0.1 -0.678,0.17c0.199,1.318 0.897,2.24 1.973,2.904c0.9,0.557 1.828,1.071 2.733,1.62c0.429,0.26 1.128,0.352 1.028,1.036c-0.107,0.738 -0.78,0.542 -1.286,0.584c-0.212,0.018 -0.435,0.015 -0.632,0.081c-0.82,0.271 -1.087,1.078 -0.521,1.731c1.261,1.455 2.718,2.61 4.803,2.745c0.317,-1.099 -0.85,-0.418 -1.084,-1.027c0.103,-0.506 0.648,-0.673 1.123,-0.783c2.915,-0.678 5.36,-2.23 7.728,-3.941c0.386,-0.278 0.805,-0.512 1.215,-0.756c1.298,-0.773 2.432,-1.681 2.997,-3.15c0.101,-0.264 0.507,-0.414 0.773,-0.616c0.127,0.301 0.357,0.602 0.362,0.907c0.017,0.891 -0.106,1.784 -0.074,2.673c0.017,0.479 0.238,0.95 0.369,1.43c2.082,-0.667 2.612,-1.309 2.773,-3.144c0.052,-0.591 -0.092,-1.272 0.706,-1.72c0.217,0.332 0.517,0.601 0.572,0.91c0.19,1.083 0.767,1.94 1.455,2.756c3.462,4.107 7.497,7.464 12.752,9.086c2.218,0.686 4.532,1.071 6.81,1.242c2.716,-3.707 5.752,-4.7 9.383,-2.987m-53.517,-7.055c-1.241,-0.888 -2.607,-1.631 -3.302,-3.111c-1.036,-2.205 -0.713,-2.754 1.744,-2.983c2.173,-0.205 4.365,-0.47 6.329,-1.468c4.418,-2.246 8.459,-5.05 12.128,-8.357c2.883,-2.597 6.04,-4.805 9.447,-6.672c1.24,-0.68 2.571,-1.025 3.994,-0.786c2.638,0.444 5.106,1.258 7.363,2.78c3.501,2.361 6.686,5.074 9.217,8.397c1.806,2.372 3.183,5.064 4.723,7.629c1.88,3.135 2.507,6.62 2.94,10.173c0.199,1.63 0.054,3.3 0.857,4.874c0.656,1.285 0.393,2.689 -0.381,3.907c-0.478,0.751 -1.085,1.428 -1.677,2.102c-0.695,0.791 -1.599,1.207 -2.667,1.222c-1.054,0.015 -2.109,0.003 -3.256,0.003c-0.225,0.44 -0.455,0.886 -0.663,1.292c1.586,1.91 3.228,3.596 5.337,4.629c2.831,1.388 4.433,3.914 6.176,6.243c1.522,2.035 2.454,4.487 3.835,6.638c2.12,3.303 2.824,7.087 3.864,10.731c0.815,2.853 1.064,5.866 1.547,8.81c0.103,0.634 -0.313,0.969 -0.867,1.13c-0.599,0.176 -1.211,0.306 -1.808,0.453c-0.121,2.629 -1.368,4.505 -3.416,5.995c-1.715,1.248 -3.647,1.893 -5.672,2.367c-0.542,0.127 -1.082,0.259 -1.646,0.395c0.231,0.889 0.412,1.584 0.545,2.097c1.135,0.814 2.259,0.655 3.366,0.518c0.524,-0.064 1.031,-0.25 1.548,-0.374c2.329,-0.557 4.692,-0.744 7.15,-0.621c1.337,-2.254 3.644,-2.775 6.059,-3.061c0.469,-0.054 1.003,-0.085 1.424,0.079c1.527,0.594 3.06,1.198 4.515,1.942c3.183,1.63 5.898,3.93 8.578,6.232c1.592,1.369 3.019,2.952 3.774,4.985c0.425,1.142 0.824,2.312 0.459,3.52c-0.557,1.849 -2.088,2.806 -3.818,3.174c-3.369,0.717 -6.76,0.546 -10.112,-0.317c-1.137,-0.292 -2.194,-0.633 -3.097,-1.45c-0.611,-0.554 -1.416,-0.898 -2.221,-1.388c-0.638,1.952 -2.196,2.135 -3.846,2.133c-0.53,0 -1.061,-0.061 -1.59,-0.042c-4.469,0.155 -8.939,0.31 -13.407,0.494c-0.986,0.04 -1.967,0.191 -2.845,0.28c-0.105,2.395 0.593,4.55 -0.151,6.856c-0.633,1.964 -1.847,2.827 -3.632,3.232c-1.758,0.397 -3.56,0.607 -5.315,1.017c-2.362,0.55 -4.716,0.635 -7.123,0.368c-2.054,-0.23 -4.129,-0.272 -6.194,-0.408c-1.323,-0.087 -2.653,-0.139 -3.966,-0.307c-1.575,-0.203 -2.31,-1.46 -1.596,-2.825c0.58,-1.108 1.28,-2.183 2.086,-3.143c2.18,-2.597 5.092,-4.225 8.193,-5.68c-0.957,-2.758 -1.907,-5.474 -2.839,-8.196c-0.944,-2.756 -1.869,-5.517 -2.802,-8.278c-1.912,0.128 -2.495,-1.135 -2.935,-2.264c-0.87,-0.276 -1.778,-0.311 -2.211,-0.775c-0.422,-0.455 -0.36,-1.348 -0.522,-2.102c-0.094,-0.035 -0.237,-0.094 -0.384,-0.144c-1.699,-0.579 -2.193,-2.089 -1.079,-3.441c0.397,-0.482 0.911,-0.875 1.389,-1.288c1.032,-0.89 2.016,-1.775 2.701,-3.01c0.681,-1.223 1.55,-2.383 2.519,-3.404c1.226,-1.292 2.831,-2.012 4.662,-2.023c1.624,-0.01 3.249,0.073 4.874,0.13c2.233,0.077 4.465,0.196 6.699,0.244c2.211,0.048 2.538,-0.4 1.954,-2.509c-0.068,-0.245 -0.148,-0.487 -0.226,-0.742c-0.54,-0.072 -1.059,-0.031 -1.461,-0.225c-0.365,-0.177 -0.604,-0.609 -0.921,-0.954c-1.532,1.156 -3.219,1.867 -5.069,2.234c-0.558,0.111 -1.073,0.433 -1.631,0.548c-0.759,0.156 -1.546,0.3 -2.311,0.257c-0.298,-0.017 -0.567,-0.557 -0.986,-1.006c-0.681,0.426 -1.423,0.893 -2.17,1.354c-0.359,0.221 -0.712,0.457 -1.091,0.64c-3.468,1.681 -6.945,3.345 -10.406,5.039c-0.252,0.124 -0.481,0.421 -0.588,0.689c-0.859,2.155 -2.371,3.762 -4.453,4.727c-3.246,1.508 -6.671,2.49 -10.304,2.271c-1.189,-0.071 -2.472,-0.371 -3.481,-0.955c-0.634,-0.367 -1.201,-0.763 -1.936,-0.895c-0.703,-0.127 -1.464,-0.365 -1.656,-1.061c-0.193,-0.7 -0.652,-0.838 -1.188,-1.067c-1.198,-0.509 -1.308,-0.831 -0.842,-2.048c0.092,-0.241 0.318,-0.569 0.232,-0.716c-0.559,-0.975 0.079,-1.578 0.613,-2.239c0.598,-0.738 1.344,-1.07 2.319,-1.173c1.241,-0.131 2.457,-0.482 3.718,-0.745c-0.454,-0.78 -0.931,-1.413 -1.195,-2.123c-0.161,-0.432 -0.152,-1.058 0.053,-1.466c0.693,-1.384 2.051,-1.78 3.452,-1.107c0.333,0.16 0.648,0.361 0.963,0.554c1.022,0.627 2.055,0.811 3.155,0.171c0.985,-0.572 1.995,-0.54 3.059,-0.152c1.091,0.399 2.219,0.702 3.339,1.013c0.235,0.065 0.522,0.025 0.766,-0.038c1.281,-0.327 2.582,-0.603 3.827,-1.033c4.173,-1.447 7.969,-3.666 11.825,-5.711c0.054,-0.661 0.104,-1.276 0.15,-1.842c0.624,-0.176 1.177,-0.24 1.637,-0.478c3.036,-1.574 6.323,-2.687 8.894,-5.107c1.135,-1.069 2.077,-2.038 1.962,-3.689c-0.032,-0.454 0.047,-0.967 0.242,-1.377c0.585,-1.234 0.016,-2.069 -0.83,-2.919c-3.007,2.195 -6.004,4.227 -9.423,5.646c-4.224,1.752 -8.353,2.077 -12.641,0.244c-3.222,-1.377 -5.78,-3.476 -7.86,-6.214c-3.063,-4.035 -4.458,-8.759 -5.73,-13.524c-0.348,-1.3 -0.479,-2.656 -0.705,-3.966c-0.804,-0.281 -1.508,-0.511 -2.2,-0.775c-1.456,-0.554 -2.819,-1.269 -3.824,-2.482c-1.413,-1.706 -1.175,-2.53 0.906,-3.337c0.049,-0.02 0.094,-0.05 0.306,-0.165c-0.52,-0.289 -0.909,-0.458 -1.246,-0.7" style="fill:#231f20;fill-rule:nonzero;"/><path d="M26.15,126.739c2.147,1.083 4.294,2.166 6.441,3.249c-0.038,0.091 -0.076,0.183 -0.114,0.274c-1.098,-0.185 -2.194,-0.385 -3.295,-0.55c-1.142,-0.171 -2.307,-0.501 -3.43,-0.406c-1.073,0.091 -2.227,-0.503 -3.272,0.398c0.268,0.091 0.532,0.244 0.806,0.261c0.956,0.059 1.917,0.13 2.872,0.087c1.39,-0.064 2.615,0.383 3.789,1.026c0.318,0.174 0.644,0.4 0.856,0.682c0.749,0.999 0.731,1.011 1.968,1.312c-0.878,0.473 -1.632,0.878 -2.387,1.284c0.035,0.133 0.07,0.265 0.104,0.398c0.308,0 0.618,0.03 0.921,-0.005c1.522,-0.179 3.04,-0.398 4.566,-0.544c0.329,-0.031 0.681,0.18 1.086,0.298c-1.008,0.817 -1.008,0.817 -0.513,1.597c0.225,-0.112 0.477,-0.197 0.681,-0.346c2.824,-2.075 6.151,-3.041 9.427,-4.08c2.189,-0.695 4.485,-0.83 6.788,-0.674c1.002,0.068 1.998,0.049 3.127,-0.412c-0.32,-0.247 -0.492,-0.495 -0.688,-0.515c-3.824,-0.374 -7.627,-0.529 -11.267,1.067c-0.543,0.238 -1.176,0.276 -1.722,0.396c-1.603,-2.988 -2.819,-6.013 -5.878,-7.744c-0.344,0.633 0.28,0.865 0.55,1.093c1.843,1.557 2.819,3.657 3.82,5.747c0.184,0.385 0.168,0.393 -0.066,1.128c-2.073,-3.449 -4.048,-6.942 -7.813,-8.891c0.475,1.132 1.675,1.587 2.396,2.49c0.753,0.943 1.565,1.854 2.215,2.863c0.636,0.989 1.465,1.914 1.621,3.161c-0.808,0.379 -1.086,-0.206 -1.457,-0.628c-0.661,-0.749 -1.311,-1.513 -2.023,-2.212c-0.264,-0.26 -0.693,-0.357 -1.047,-0.528c-0.077,0.099 -0.154,0.197 -0.23,0.294c0.709,0.692 1.419,1.383 2.177,2.122c-0.814,0.406 -1.115,-0.184 -1.507,-0.543c-1.052,-0.963 -2.068,-1.969 -3.163,-2.884c-0.768,-0.642 -1.621,-1.193 -2.476,-1.721c-0.367,-0.226 -0.835,-0.291 -1.349,-0.262c2.061,1.564 4.261,2.905 5.827,5.034c-2.749,-1.167 -5.172,-3.136 -8.341,-3.316" style="fill:#231f20;fill-rule:nonzero;"/><path d="M23.231,134.213c1.254,0.928 2.337,0.996 3.908,0.245c-1.844,-0.736 -2.063,-0.75 -3.908,-0.245m-2.165,-2.504c-1.135,-0.097 -1.958,0.217 -2.661,1.039c-0.554,0.649 -0.4,1.207 0.467,1.308c1.198,0.137 2.436,0.327 3.448,-0.644c0.18,-0.173 0.47,-0.234 0.772,-0.378c-0.594,-0.578 -1.032,-1.241 -2.026,-1.325m5.521,4.1c-0.531,0.013 -1.07,0.109 -1.591,0.05c-2.257,-0.257 -4.514,-0.526 -6.761,-0.854c-1.293,-0.188 -1.758,-1.228 -1.044,-2.341c0.8,-1.245 1.826,-2.161 3.518,-1.85c0.57,0.105 1.167,0.074 1.752,0.105c1.232,0.065 1.229,0.067 1.659,1.265c0.069,0.192 0.178,0.37 0.223,0.463c1.389,0.717 3.103,0.204 4.237,1.484c-0.252,1.069 -0.875,1.648 -1.993,1.678" style="fill:#231f20;fill-rule:nonzero;"/><path d="M46.91,135.421c1.234,1.203 3.558,1.147 6.365,-0.203c-1.911,-1.496 -4.814,-1.362 -6.365,0.203m-0.878,1.104c-0.853,-0.819 -0.741,-1.71 0.29,-2.291c0.275,-0.155 0.571,-0.272 0.85,-0.422c2.233,-1.205 4.394,-0.549 6.53,0.277c0.32,0.124 0.57,0.469 0.807,0.749c0.645,0.762 0.493,1.4 -0.488,1.621c-1.702,0.383 -3.432,0.65 -5.151,0.967c-1.07,-0.003 -2.045,-0.139 -2.838,-0.901" style="fill:#231f20;fill-rule:nonzero;"/><path d="M41.351,117.27c-0.422,1.588 0.254,3.198 1.74,4.141c0.275,-2.031 -0.35,-3.518 -1.74,-4.141m2.665,2.611c-0.009,1.056 0.605,2.1 0.128,3.182c-1.711,-0.398 -3.102,-1.699 -3.691,-3.556c-0.395,-1.245 -0.678,-2.531 0.437,-3.691c1.774,0.851 3.143,1.926 3.126,4.065" style="fill:#231f20;fill-rule:nonzero;"/><path d="M38.185,109.314c-0.592,-0.287 -1.36,0.017 -1.483,0.505c-0.15,0.591 0.118,1.04 0.68,1.251c0.878,0.33 1.753,0.737 2.771,0.523c-0.158,-1.213 -1.014,-1.817 -1.968,-2.279m-0.754,3.004c-0.956,-0.299 -1.653,-0.969 -1.842,-1.996c-0.185,-1.007 0.53,-1.529 1.24,-2.021c0.251,-0.174 0.55,-0.281 0.79,-0.399c2.63,1.628 2.587,1.648 3.523,3.544c0.35,0.711 0.23,1.169 -0.325,1.667c-1.139,-0.26 -2.287,-0.45 -3.386,-0.795" style="fill:#231f20;fill-rule:nonzero;"/><path d="M33.926,105.949c1.252,-0.36 1.433,-1.526 2.168,-2.688c-2.668,1.049 -2.668,1.049 -2.168,2.688m1.761,-0.103c-0.47,0.523 -1.15,0.947 -1.819,1.194c-0.942,0.347 -1.49,-0.223 -1.315,-1.213c0.428,-2.425 1.802,-3.602 4.755,-3.898c-0.132,1.588 -0.673,2.864 -1.621,3.917" style="fill:#231f20;fill-rule:nonzero;"/><path d="M85.784,53.303c2.716,-3.707 5.752,-4.7 9.383,-2.987c-0.045,-0.937 0.013,-1.803 -0.147,-2.628c-0.391,-2.005 -0.742,-4.036 -1.378,-5.971c-0.518,-1.576 -1.337,-3.076 -2.176,-4.524c-1.819,-3.145 -3.778,-6.196 -6.495,-8.705c-2.497,-2.307 -5.142,-4.407 -8.179,-5.977c-1.568,-0.811 -3.237,-1.269 -5.04,-1.35c-1.461,-0.066 -2.728,0.304 -3.927,1.054c-3.825,2.39 -7.403,5.084 -10.824,8.023c-3.277,2.815 -6.865,5.241 -10.938,6.879c-1.986,0.8 -4.075,1.14 -6.176,1.448c-0.204,0.03 -0.401,0.099 -0.678,0.17c0.199,1.318 0.898,2.24 1.973,2.904c0.9,0.557 1.828,1.07 2.733,1.62c0.43,0.26 1.129,0.352 1.029,1.036c-0.108,0.737 -0.781,0.542 -1.287,0.584c-0.212,0.018 -0.435,0.015 -0.632,0.08c-0.82,0.272 -1.087,1.078 -0.521,1.732c1.261,1.455 2.718,2.61 4.803,2.745c0.317,-1.099 -0.85,-0.418 -1.084,-1.028c0.103,-0.505 0.648,-0.672 1.123,-0.783c2.915,-0.677 5.36,-2.229 7.728,-3.94c0.386,-0.278 0.805,-0.512 1.215,-0.756c1.298,-0.773 2.432,-1.682 2.997,-3.15c0.102,-0.264 0.508,-0.414 0.773,-0.617c0.127,0.302 0.357,0.603 0.362,0.908c0.017,0.89 -0.106,1.784 -0.074,2.672c0.018,0.48 0.239,0.951 0.369,1.431c2.083,-0.667 2.612,-1.309 2.774,-3.144c0.051,-0.591 -0.093,-1.272 0.705,-1.72c0.217,0.332 0.517,0.6 0.572,0.91c0.19,1.083 0.767,1.939 1.455,2.756c3.462,4.106 7.497,7.464 12.752,9.086c2.219,0.685 4.532,1.071 6.81,1.242" style="fill:#5d5040;fill-rule:nonzero;"/><path d="M56.69,47.929c0.525,0.148 1.028,0.377 1.585,0.587c-0.433,-1.511 -2.036,-1.976 -3.427,-0.966c0.73,0.146 1.297,0.224 1.842,0.379m-6.551,4.881c0.274,-1.136 0.53,-2.201 0.853,-3.543c-1.581,1.399 -1.83,2.475 -0.853,3.543m1.744,4.509c0.207,0.914 0.78,1.519 1.888,1.845c0.239,-1.743 -0.298,-3.033 -1.276,-4.266c-1.176,0.675 -0.801,1.589 -0.612,2.421m7.731,-5.423c-0.131,-0.163 -0.532,-0.116 -0.781,-0.161c-0.617,1.423 -0.006,2.528 0.687,3.555c0.193,0.287 0.778,0.317 1.364,0.53c0.189,-1.773 -0.444,-2.894 -1.27,-3.924m33.867,2.189c-0.643,-0.216 -1.302,-0.425 -1.972,-0.509c-2.146,-0.268 -2.827,0.277 -2.951,2.36c-0.017,0.284 0.289,0.587 0.445,0.882c0.253,-0.215 0.618,-0.382 0.732,-0.654c0.19,-0.447 -0.115,-1.163 0.562,-1.329c0.596,-0.146 1.248,-0.12 1.871,-0.087c0.544,0.031 1.083,0.176 1.624,0.271c0.058,-0.138 0.117,-0.275 0.175,-0.412c-0.16,-0.18 -0.287,-0.455 -0.486,-0.522m-25.218,13.417c0.066,0.794 -0.256,1.436 -0.734,2.021c-0.937,1.147 -1.794,1.318 -3.222,0.607c-0.424,-0.211 -0.851,-0.664 -1.188,-0.019c-0.299,0.573 0.195,0.879 0.659,1.044c1.42,0.506 2.854,0.995 4.185,-0.224c1.304,-1.195 1.529,-2.701 1.229,-4.329c-0.047,-0.258 -0.33,-0.474 -0.504,-0.709c-0.144,0.029 -0.289,0.058 -0.433,0.089c0,0.507 -0.034,1.016 0.008,1.52m-8.236,-9.158c-2.043,-0.395 -3.841,0.685 -4.579,2.698c-0.577,1.574 0.146,3.819 1.617,4.692c0.457,0.271 1.207,0.499 1.622,0.312c0.889,-0.4 1.69,-1.037 2.433,-1.682c0.204,-0.178 0.078,-0.726 0.125,-1.414c-0.838,0.658 -1.422,1.097 -1.984,1.563c-0.649,0.538 -1.259,0.405 -1.871,-0.052c-0.974,-0.728 -1.291,-1.761 -0.891,-2.902c0.679,-1.933 1.647,-2.503 3.73,-2.221c0.192,0.026 0.399,-0.053 0.6,-0.082c0.057,-0.127 0.114,-0.254 0.172,-0.38c-0.324,-0.182 -0.627,-0.465 -0.974,-0.532m29.767,-6.949c0.098,-0.033 0.177,-0.116 0.27,-0.168c1.249,-0.712 2.509,-0.641 3.818,-0.133c1.45,0.562 2.091,1.87 2.449,3.092c0.682,2.323 -0.923,4.467 -2.88,5.381c-1.423,0.665 -2.984,0.663 -4.436,-0.176c-0.192,-0.111 -0.444,-0.123 -0.669,-0.18l-0.531,-0.017c1.157,0.995 0.305,1.454 -0.028,2.05c-0.359,0.644 -0.715,1.289 -1.085,1.925c-1.25,2.154 -2.635,4.226 -4.719,5.675c-2.911,2.025 -6.005,3.724 -9.356,4.987c-3.64,1.374 -7.173,1.227 -10.604,-0.467c-4.448,-2.197 -7.583,-5.616 -9.463,-10.185c-1.114,-2.704 -2.486,-5.298 -2.929,-8.244c-0.256,-1.7 -0.77,-3.361 -1.114,-5.05c-0.1,-0.494 -0.015,-1.024 -0.015,-1.558c4.078,-1.505 7.359,-4.06 10.781,-6.511c0.115,0.759 0.197,1.486 0.338,2.201c0.259,1.308 0.65,1.503 1.855,0.961c1.376,-0.62 2.35,-1.602 2.729,-2.943c1.276,1.343 2.577,2.716 3.882,4.085c2.97,3.115 6.47,5.443 10.622,6.705c1.768,0.537 3.616,0.818 5.431,1.197c0.751,0.157 1.62,0.064 1.876,1.087c0.024,0.096 0.445,0.098 0.8,0.168c0.016,-2.095 1.157,-3.258 2.978,-3.882" style="fill:#fdd8bd;fill-rule:nonzero;"/><path d="M76.589,99.152c-0.481,1.483 -0.903,2.936 -2.202,3.68c-1.115,0.638 -1.282,1.486 -1.295,2.587c-0.012,1.096 -0.113,2.205 -0.308,3.285c-0.24,1.333 -0.535,2.694 -2.131,3.242c0.552,2.551 1.344,5.016 2.378,7.418c0.745,1.729 1.413,3.499 1.972,5.294c0.426,1.369 1.385,2.123 2.63,2.492c2.207,0.653 4.465,0.966 6.752,0.296c1.424,-0.417 2.857,-0.805 4.284,-1.214c0.304,-0.088 0.608,-0.19 0.895,-0.32c2.315,-1.051 2.459,-1.36 1.18,-3.432c-1.572,-2.548 -3.243,-5.038 -4.859,-7.56c-0.651,-1.017 -1.256,-2.062 -1.911,-3.077c-0.307,-0.476 -0.682,-0.911 -1.09,-1.447c-0.405,0.432 -0.691,0.808 -1.049,1.095c-0.339,0.272 -0.755,0.451 -1.3,0.765c-0.116,-1.078 0.748,-1.332 0.956,-1.94c-0.729,-0.654 -2.097,-0.068 -2.596,-1.389c0.472,-0.072 0.919,-0.196 1.367,-0.2c3.19,-0.029 6.382,0.027 9.57,-0.064c2.432,-0.07 4.89,-0.137 7.28,-0.535c1.971,-0.33 3.812,-1.197 5.485,-2.396c1.681,-1.207 2.701,-2.735 3.088,-4.848c-1.402,-0.364 -2.821,-0.243 -4.216,-0.203c-2.655,0.076 -5.307,0.242 -7.961,0.367c-0.693,0.034 -1.301,-0.178 -1.965,-0.407c-1.537,-0.527 -3.152,-0.981 -4.765,-1.114c-3.072,-0.255 -6.165,-0.265 -9.25,-0.373c-0.262,-0.01 -0.525,-0.002 -0.939,-0.002" style="fill:#87aedc;fill-rule:nonzero;"/><path d="M85.679,87.625c3.776,0.28 7.354,0.177 11.025,-0.487c0.058,-2.843 -0.381,-5.585 -0.746,-8.314c-0.362,-2.712 -1.028,-5.385 -1.587,-8.208c0.262,0.153 0.616,0.234 0.7,0.428c0.41,0.951 0.819,1.914 1.093,2.909c0.234,0.852 0.278,1.753 0.415,2.631c0.291,1.861 0.605,3.719 0.878,5.581c0.242,1.654 0.424,3.316 0.667,4.97c0.141,0.967 -0.029,1.239 -1.001,1.344c-0.893,0.098 -1.788,0.186 -2.749,0.285c1.554,3.731 0.813,7.342 -0.142,11.015c1.471,0.444 2.916,0.258 4.287,0.075c2.486,-0.334 4.935,-0.701 7.455,-0.282c1.489,0.248 2.17,-0.463 1.911,-1.872c-0.824,-4.471 -1.594,-8.944 -3.024,-13.293c-0.98,-2.979 -2.453,-5.676 -4.143,-8.269c-1.29,-1.979 -2.688,-3.908 -4.216,-5.712c-1.399,-1.654 -3.295,-2.665 -5.526,-2.748c-0.678,-0.026 -1.385,0.395 -2.061,0.657c-1.609,0.622 -2.645,1.7 -2.79,3.479c-0.1,1.244 -0.292,2.482 -0.335,3.726c-0.079,2.29 -0.087,4.582 -0.108,6.873c-0.015,1.668 -0.003,3.336 -0.003,5.212" style="fill:#876db0;fill-rule:nonzero;"/><path d="M92.66,115.517c0.264,-1.227 0.568,-1.608 2.441,-3.238c-0.027,-0.272 -0.02,-0.589 -0.095,-0.887c-0.417,-1.649 -0.423,-1.613 -2.117,-1.555c-2.337,0.08 -4.677,0.098 -7.015,0.15c-0.457,0.01 -0.913,0.054 -1.501,0.091c1.178,2.717 2.909,4.897 4.444,7.202c1.541,2.314 2.91,4.739 4.447,7.265c-0.459,0.512 -0.926,1.032 -1.41,1.571c0.626,0.691 1.487,0.488 2.224,0.468c3.81,-0.101 7.618,-0.271 11.425,-0.432c1.739,-0.074 3.474,-0.221 5.213,-0.264c1.412,-0.036 2.008,-0.54 2.273,-2.284c0.197,-1.297 0.162,-2.608 -0.347,-3.86c-0.708,-1.747 -1.383,-3.505 -2.123,-5.238c-0.89,-2.083 -2.385,-2.37 -4.077,-2.154c-2.466,0.313 -4.91,0.79 -7.366,1.188c-0.776,0.126 -1.534,0.363 -2.335,-0.026c-0.767,-0.371 -1.277,0.3 -1.849,0.627c-0.702,0.401 -1.378,0.847 -2.232,1.376" style="fill:#87aedc;fill-rule:nonzero;"/><path d="M93.483,89.09l-5.922,0c0.111,0.906 0.256,1.671 0.286,2.44c0.048,1.229 -0.414,1.885 -1.593,1.895c-3.02,0.025 -6.04,-0.1 -9.061,-0.139c-1.59,-0.02 -3.189,-0.082 -4.77,0.047c-1.943,0.158 -3.31,1.37 -4.371,2.865c-1.613,2.275 -3.239,4.529 -5.3,6.443c-0.15,0.139 -0.243,0.34 -0.471,0.669c0.389,0.394 0.785,0.797 1.303,1.321c1.197,-2.016 1.87,-4.13 3.835,-5.277c0.557,0.488 0.182,0.844 -0.095,1.111c-1.298,1.251 -1.973,2.843 -2.582,4.47c-0.162,0.434 -0.28,0.905 -0.303,1.365c-0.048,0.952 0.152,1.08 1.316,1.033c0.493,-1.499 0.943,-2.993 1.484,-4.455c0.27,-0.73 0.345,-0.704 1.268,-0.625c-1.863,4.812 -1.926,5.444 -0.723,7.358c0.55,0.073 0.716,-0.211 0.75,-0.716c0.147,-2.178 0.318,-4.354 0.484,-6.53c0.004,-0.043 0.065,-0.081 0.109,-0.131c0.751,0.024 0.812,0.577 0.792,1.107c-0.034,0.93 -0.147,1.855 -0.201,2.785c-0.051,0.886 -0.133,1.777 -0.081,2.66c0.041,0.674 0.249,1.351 1.112,1.631c0.884,-0.606 0.953,-1.547 1.014,-2.482c0.102,-1.572 0.202,-3.143 0.28,-4.714c0.03,-0.626 0.16,-1.209 0.878,-1.305c1.223,-0.163 1.605,-1.096 2.023,-2.003c0.345,-0.748 0.639,-1.519 0.899,-2.145c1.028,0.132 1.885,0.303 2.749,0.341c2.919,0.125 5.841,0.179 8.76,0.313c0.676,0.031 1.338,0.334 2.016,0.394c0.988,0.087 1.994,0.162 2.974,0.063c0.942,-0.094 1.454,-0.702 1.533,-1.712c0.073,-0.934 0.407,-1.849 0.48,-2.783c0.14,-1.791 -0.082,-3.547 -0.872,-5.294" style="fill:#fdd8bd;fill-rule:nonzero;"/><path d="M50.413,96.941c0.479,0.915 1.268,1.573 2.301,1.771c0.869,0.166 1.772,0.154 2.647,0.219c0.293,-1.723 -0.305,-2.9 -1.698,-3.284c-0.903,-0.249 -1.844,-0.365 -2.718,-0.531c-0.501,0.63 -0.864,1.192 -0.532,1.825m-0.567,-2.316c1.231,0.288 3.234,-0.498 3.913,-1.525c0.354,-0.535 0.203,-1.317 -0.388,-1.618c-0.36,-0.184 -0.844,-0.377 -1.194,-0.284c-1.01,0.267 -2.014,0.608 -2.954,1.055c-0.791,0.376 -1.107,1.074 -0.722,2.001c0.443,0.124 0.89,0.263 1.345,0.371m-7.124,-2.687c-0.283,-0.462 -0.495,-0.946 -0.028,-1.439c0.487,-0.515 1.069,-0.698 1.737,-0.447c0.496,0.186 1.004,0.384 1.44,0.676c0.875,0.588 1.771,0.671 2.721,0.262c1.646,-0.709 3.29,-0.637 4.932,-0.009c0.495,0.189 0.962,0.453 1.461,0.628c0.327,0.114 0.714,0.241 1.032,0.173c1.141,-0.246 2.277,-0.529 3.39,-0.878c4.515,-1.416 8.794,-3.36 12.928,-5.791c0.461,1.258 0.908,2.474 1.422,3.88c-5.521,3.114 -10.99,6.317 -16.958,8.743c0.438,0.084 0.877,0.168 1.388,0.265c-0.587,1.489 -1.583,2.658 -2.945,3.402c-2.739,1.494 -5.751,2.208 -8.853,2.314c-1.294,0.045 -2.719,-0.004 -4.168,-0.993c0.777,-0.299 1.286,-0.545 1.823,-0.691c2.047,-0.56 4.105,-1.074 6.152,-1.632c0.755,-0.205 0.873,-0.638 0.363,-1.288c-0.552,-0.705 -1.096,-1.427 -1.727,-2.06c-0.909,-0.913 -1.842,-1.827 -3.23,-2.3c0.014,1.277 -0.798,1.55 -1.755,1.707c-1.2,0.195 -2.384,0.51 -3.589,0.638c-0.962,0.102 -1.922,0.659 -3.021,0.149c0.101,-0.283 0.114,-0.631 0.281,-0.731c0.806,-0.479 1.557,-1.012 2.548,-1.211c2.068,-0.413 4.103,-0.992 6.143,-1.535c0.454,-0.12 0.826,-0.411 0.957,-1.025c-1.302,-0.278 -2.198,0.831 -3.429,0.715c-0.321,-0.477 -0.688,-0.987 -1.015,-1.522" style="fill:#fdd8bd;fill-rule:nonzero;"/><path d="M129.565,127.134c0.167,-0.733 0.375,-1.281 0.393,-1.836c0.017,-0.553 -0.051,-1.155 -0.265,-1.659c-0.897,-2.111 -2.29,-3.92 -4,-5.426c-1.897,-1.67 -3.866,-3.291 -5.963,-4.704c-2.602,-1.753 -5.568,-1.824 -8.574,-1.183c-0.089,0.019 -0.157,0.131 -0.331,0.284c0.742,1.806 1.451,3.651 2.255,5.455c0.673,1.509 1.129,3.052 1.026,4.704c-0.053,0.845 0.28,1.357 0.983,1.798c3.493,2.186 7.198,3.523 11.421,2.943c1.038,-0.143 2.079,-0.257 3.055,-0.376" style="fill:#f37048;fill-rule:nonzero;"/><path d="M66.087,134.569c1.211,0.939 2.611,0.868 3.893,1.004c2.263,0.238 4.551,0.321 6.828,0.322c2.439,0.001 4.888,-0.059 7.313,-0.294c2.184,-0.212 4.155,-1.196 6.085,-2.193c0.326,-0.168 0.629,-0.38 1.036,-0.629c0.039,-1.929 0.247,-3.906 -0.827,-5.794c-2.107,0.551 -4.14,1.107 -6.188,1.603c-0.701,0.169 -1.438,0.237 -2.161,0.257c-1.925,0.054 -3.799,-0.231 -5.632,-0.845c-0.42,-0.141 -0.958,-0.092 -1.403,0.019c-3.347,0.836 -6.92,3.452 -8.944,6.55" style="fill:#f37048;fill-rule:nonzero;"/><path d="M72.94,83.229c0.649,1.914 1.202,3.704 1.877,5.449c0.243,0.628 0.776,1.103 1.633,0.943c2.739,-0.511 5.38,-1.241 7.489,-3.173c0.282,-0.258 0.595,-0.663 0.601,-1.005c0.047,-2.929 0.027,-5.86 0.027,-8.988c-0.512,0.475 -0.906,0.811 -1.265,1.181c-1.089,1.12 -2.461,1.719 -3.889,2.329c-2.168,0.926 -4.222,2.113 -6.473,3.264" style="fill:#876db0;fill-rule:nonzero;"/><path d="M109.786,111.402c0.278,0.034 0.586,0.161 0.831,0.087c2.827,-0.86 5.565,-0.299 8.289,0.474c0.4,0.113 0.811,0.268 1.151,0.5c3.145,2.145 6.255,4.35 8.587,7.394c0.951,1.24 1.775,2.6 2.46,3.999c0.282,0.575 0.047,1.398 0.047,2.216c0.942,-0.713 1.105,-1.601 0.963,-2.613c-0.314,-2.239 -1.534,-4.009 -3.102,-5.535c-2.89,-2.809 -6.096,-5.239 -9.645,-7.187c-1.102,-0.606 -2.326,-1.096 -3.556,-1.35c-2.308,-0.477 -4.323,0.281 -6.025,2.015" style="fill:#afb1b4;fill-rule:nonzero;"/><path d="M65.28,135.689c-0.108,1.424 0.154,1.865 1.301,2.081c1.093,0.205 2.21,0.318 3.321,0.381c1.954,0.109 3.923,0.046 5.866,0.241c3.443,0.346 6.793,0.01 10.096,-0.956c0.916,-0.268 1.863,-0.449 2.753,-0.781c0.919,-0.344 1.901,-0.716 1.946,-2.019c-1.343,0.468 -2.615,0.952 -3.912,1.354c-2.367,0.731 -4.829,0.7 -7.272,0.786c-1.85,0.064 -3.703,0.039 -5.553,0.115c-2.243,0.093 -4.425,-0.245 -6.591,-0.764c-0.611,-0.146 -1.225,-0.275 -1.955,-0.438" style="fill:#b3b5b8;fill-rule:nonzero;"/><path d="M47.694,97.704c-0.396,-1.138 -1.123,-1.3 -2.074,-1.054c-2.461,0.636 -4.933,1.227 -7.384,1.899c-0.51,0.139 -0.945,0.547 -1.717,1.013c0.938,0.405 1.535,0.663 2.175,0.938c1.938,-1.294 4.329,-1.226 6.46,-1.992c0.832,-0.299 1.688,-0.536 2.54,-0.804" style="fill:#fdd8bd;fill-rule:nonzero;"/><path d="M84.827,67.721c0.258,0.385 0.52,0.776 0.87,1.299c1.485,-1.372 3.079,-2.502 5.405,-2.791c-1.171,-1.055 -2.146,-1.932 -3.239,-2.914c-0.982,1.426 -2.002,2.905 -3.036,4.406" style="fill:#fdd8bd;fill-rule:nonzero;"/><path d="M49.492,99.641c-0.452,-0.578 -0.671,-0.857 -0.906,-1.158c-3.147,0.97 -6.418,1.421 -9.38,3.202c1.023,0.499 1.684,0.421 2.558,-0.021c1.149,-0.58 2.525,-0.726 3.806,-1.05c1.219,-0.309 2.442,-0.607 3.922,-0.973" style="fill:#fdd8bd;fill-rule:nonzero;"/><path d="M23.092,133.035c-0.594,-0.578 -1.032,-1.241 -2.025,-1.325c-1.136,-0.097 -1.958,0.217 -2.662,1.039c-0.554,0.648 -0.4,1.207 0.467,1.307c1.198,0.138 2.436,0.328 3.448,-0.643c0.18,-0.173 0.47,-0.234 0.772,-0.378" style="fill:#d8b98d;fill-rule:nonzero;"/><path d="M27.139,134.458c-1.844,-0.736 -2.063,-0.75 -3.908,-0.245c1.254,0.928 2.337,0.996 3.908,0.245" style="fill:#d8b98d;fill-rule:nonzero;"/><path d="M53.275,135.218c-1.911,-1.496 -4.813,-1.362 -6.365,0.203c1.235,1.203 3.558,1.148 6.365,-0.203" style="fill:#d8b98d;fill-rule:nonzero;"/><path d="M43.091,121.411c0.274,-2.03 -0.351,-3.518 -1.74,-4.141c-0.422,1.588 0.254,3.199 1.74,4.141" style="fill:#ffcf01;fill-rule:nonzero;"/><path d="M40.152,111.593c-0.158,-1.213 -1.014,-1.817 -1.968,-2.279c-0.592,-0.287 -1.36,0.016 -1.483,0.505c-0.15,0.59 0.118,1.04 0.68,1.251c0.878,0.33 1.753,0.737 2.771,0.523" style="fill:#ffcb03;fill-rule:nonzero;"/><path d="M36.094,103.26c-2.669,1.05 -2.669,1.05 -2.168,2.688c1.251,-0.36 1.433,-1.526 2.168,-2.688" style="fill:#ffcf01;fill-rule:nonzero;"/><path d="M61.001,58.877c-0.324,-0.183 -0.627,-0.465 -0.974,-0.532c-2.043,-0.396 -3.841,0.684 -4.579,2.698c-0.577,1.573 0.146,3.818 1.617,4.691c0.457,0.272 1.207,0.499 1.622,0.313c0.889,-0.4 1.689,-1.037 2.433,-1.683c0.204,-0.177 0.078,-0.725 0.125,-1.413c-0.838,0.657 -1.422,1.097 -1.984,1.563c-0.649,0.538 -1.26,0.405 -1.871,-0.052c-0.974,-0.729 -1.291,-1.762 -0.891,-2.902c0.679,-1.933 1.647,-2.503 3.73,-2.221c0.192,0.025 0.399,-0.053 0.6,-0.082c0.057,-0.127 0.114,-0.254 0.172,-0.38" style="fill:#231f20;fill-rule:nonzero;"/><path d="M68.255,65.982c0,0.507 -0.034,1.017 0.008,1.521c0.066,0.793 -0.256,1.435 -0.734,2.02c-0.937,1.147 -1.794,1.318 -3.222,0.607c-0.424,-0.21 -0.851,-0.664 -1.188,-0.019c-0.299,0.573 0.195,0.879 0.659,1.044c1.42,0.507 2.854,0.995 4.185,-0.224c1.304,-1.195 1.529,-2.701 1.229,-4.329c-0.047,-0.258 -0.33,-0.474 -0.504,-0.709c-0.144,0.029 -0.289,0.059 -0.433,0.089" style="fill:#231f20;fill-rule:nonzero;"/><path d="M93.968,54.607c-0.16,-0.18 -0.288,-0.455 -0.487,-0.521c-0.642,-0.216 -1.302,-0.425 -1.971,-0.509c-2.146,-0.269 -2.827,0.276 -2.952,2.359c-0.017,0.284 0.289,0.587 0.446,0.882c0.253,-0.215 0.617,-0.382 0.732,-0.653c0.19,-0.448 -0.115,-1.163 0.562,-1.329c0.595,-0.147 1.248,-0.121 1.87,-0.087c0.545,0.03 1.083,0.175 1.624,0.27c0.059,-0.138 0.117,-0.274 0.176,-0.412" style="fill:#231f20;fill-rule:nonzero;"/><path d="M60.884,55.82c0.189,-1.772 -0.444,-2.894 -1.27,-3.924c-0.13,-0.163 -0.532,-0.116 -0.781,-0.161c-0.616,1.424 -0.006,2.528 0.687,3.556c0.193,0.287 0.779,0.316 1.364,0.529" style="fill:#231f20;fill-rule:nonzero;"/><path d="M52.496,54.898c-1.176,0.675 -0.801,1.589 -0.612,2.421c0.207,0.914 0.78,1.519 1.887,1.846c0.24,-1.744 -0.297,-3.034 -1.275,-4.267" style="fill:#231f20;fill-rule:nonzero;"/><path d="M50.992,49.267c-1.581,1.399 -1.83,2.476 -0.853,3.543c0.274,-1.136 0.53,-2.201 0.853,-3.543" style="fill:#231f20;fill-rule:nonzero;"/><path d="M54.848,47.55c0.73,0.146 1.297,0.224 1.842,0.379c0.526,0.148 1.029,0.377 1.586,0.587c-0.433,-1.511 -2.036,-1.976 -3.428,-0.966" style="fill:#231f20;fill-rule:nonzero;"/><path d="M49.543,93.493c1.764,0.316 2.052,0.199 2.965,-1.196c-1.314,-0.359 -2.178,0.237 -2.965,1.196m-0.32,-1.24c0.94,-0.447 1.944,-0.787 2.953,-1.055c0.351,-0.093 0.834,0.101 1.194,0.284c0.592,0.301 0.742,1.083 0.388,1.618c-0.679,1.027 -2.681,1.813 -3.913,1.525c-0.454,-0.108 -0.901,-0.247 -1.344,-0.37c-0.385,-0.928 -0.07,-1.626 0.722,-2.002" style="fill:#231f20;fill-rule:nonzero;"/><path d="M51.517,96.388c0.472,1.224 0.819,1.4 2.777,1.341c-0.724,-1.421 -0.959,-1.529 -2.777,-1.341m2.146,-0.741c1.393,0.384 1.991,1.56 1.698,3.284c-0.875,-0.065 -1.778,-0.053 -2.647,-0.22c-1.033,-0.197 -1.822,-0.855 -2.301,-1.77c-0.332,-0.633 0.031,-1.196 0.532,-1.825c0.874,0.166 1.815,0.282 2.718,0.531" style="fill:#231f20;fill-rule:nonzero;"/><path d="M52.508,92.296c-1.314,-0.358 -2.178,0.237 -2.965,1.196c1.764,0.317 2.052,0.2 2.965,-1.196" style="fill:#ffd201;fill-rule:nonzero;"/><path d="M54.294,97.729c-0.724,-1.421 -0.959,-1.529 -2.777,-1.341c0.472,1.224 0.819,1.401 2.777,1.341" style="fill:#ffd101;fill-rule:nonzero;"/><path d="M72.336,27.203c-2.553,1.066 -4.724,2.835 -6.952,4.462c-4.16,3.036 -8.643,5.642 -13.351,7.762c-1.926,0.867 -3.937,1.664 -6.051,1.781c-2.115,0.117 -4.375,-0.548 -5.709,-2.169c5.469,-0.054 10.4,-3.148 14.705,-6.473c4.304,-3.326 8.468,-7.073 13.632,-8.846c4.758,-1.623 11.809,-1.217 14.721,3.463c-3.535,-0.771 -7.558,-1.415 -10.995,0.02" style="fill:#80725e;fill-rule:nonzero;"/></g></svg>