<?xml version="1.0" encoding="UTF-8" standalone="no"?><!DOCTYPE svg PUBLIC "-//W3C//DTD SVG 1.1//EN" "http://www.w3.org/Graphics/SVG/1.1/DTD/svg11.dtd"><svg width="100%" height="100%" viewBox="0 0 57 51" version="1.1" xmlns="http://www.w3.org/2000/svg" xmlns:xlink="http://www.w3.org/1999/xlink" xml:space="preserve" xmlns:serif="http://www.serif.com/" style="fill-rule:evenodd;clip-rule:evenodd;stroke-linejoin:round;stroke-miterlimit:2;"><g><path d="M25.737,13.684c-0.029,-0.271 -0.043,-0.54 -0.047,-0.804c-0.15,0.056 -0.322,0.1 -0.515,0.115l0.562,0.689Zm23.543,7.527c0.507,0.699 0.517,1.504 0.031,2.396c-0.19,0.349 -0.345,0.707 -0.459,1.062c-0.289,0.897 -0.378,1.749 -0.265,2.57c0.138,-1.902 0.694,-3.708 1.662,-5.393c-0.329,-0.22 -0.65,-0.433 -0.969,-0.635m-29.158,23.865c0.14,0.055 0.212,0.065 0.248,0.065c0.261,-0.167 0.315,-0.341 0.317,-0.551c0.002,-0.688 -0.087,-1.416 -0.286,-2.276c-0.273,-0.029 -0.53,-0.069 -0.771,-0.106c-0.077,-0.012 -0.151,-0.024 -0.225,-0.035c0.239,1.008 0.475,1.965 0.717,2.903m11.357,-7.156c0.377,0 0.749,0.111 1.104,0.329l0.624,0.385l0.082,0.729l0.016,0.115c0.023,0.157 0.054,0.372 0.05,0.62c-0.005,0.312 -0.03,0.684 -0.175,1.067c-0.494,1.298 -0.48,2.704 -0.338,4.08c0.025,-0.791 0.182,-1.523 0.324,-2.178c0.129,-0.604 0.252,-1.175 0.258,-1.71c0.007,-0.544 0.146,-1.023 0.258,-1.409c0.037,-0.124 0.073,-0.246 0.1,-0.368l0.262,-1.128l1.241,-0.039c0.987,0 2.034,0.654 2.147,2.114c0.102,1.315 0.682,2.505 1.296,3.766c0.035,0.071 0.068,0.134 0.102,0.188c-0.002,-0.369 -0.123,-0.803 -0.298,-1.391c-0.162,-0.549 -0.333,-1.029 -0.503,-1.51c-0.147,-0.419 -0.296,-0.84 -0.43,-1.265c-0.308,-0.972 -0.233,-1.867 0.225,-2.659l0.595,-1.031l1.14,0.34c0.079,0.024 0.125,0.027 0.147,0.027c0.198,0 0.673,-0.685 0.928,-1.053l0.044,-0.063c0.17,-0.245 0.328,-0.565 0.495,-0.902c0.136,-0.275 0.273,-0.549 0.422,-0.811c0.547,-0.953 1.101,-1.899 1.65,-2.837l0.015,-0.028c-0.556,-0.433 -1.116,-0.9 -1.602,-1.522c-0.473,-0.608 -0.814,-1.273 -1.126,-1.931c-0.56,0.197 -1.057,0.308 -1.534,0.308c-0.907,0 -1.667,-0.4 -2.258,-1.188l-1.362,-1.813l2.199,-0.554c0.457,-0.115 0.879,-0.145 1.251,-0.172c0.726,-0.052 0.745,-0.086 0.819,-0.213l0.28,-0.482l0.526,-0.184c0.157,-0.055 0.256,-0.38 0.435,-1.138c0.076,-0.324 0.162,-0.69 0.283,-1.064l1.408,-4.361l1.456,4.345c0.04,0.121 0.075,0.214 0.104,0.291c0.075,0.204 0.154,0.415 0.188,0.691c0.008,0.069 0.015,0.136 0.02,0.203c0.568,-0.628 1.253,-1.207 2.057,-1.74c0.158,-0.104 0.637,-0.42 1.267,-0.42c0.075,0 0.151,0.004 0.224,0.013c-1.486,-0.938 -3.031,-2.077 -4.788,-3.526c-0.909,-0.75 -1.848,-1.432 -2.842,-2.155c-0.504,-0.367 -1.008,-0.735 -1.507,-1.11c-0.13,-0.097 -0.256,-0.202 -0.38,-0.308c-0.078,-0.066 -0.185,-0.156 -0.259,-0.21l-0.048,0.007l-0.136,0.002c-0.588,0 -1.14,-0.292 -1.476,-0.782c-0.074,-0.111 -0.137,-0.227 -0.187,-0.349l-1.168,0.485l-0.02,-0.12c0.005,0.27 0.037,2.003 0.037,2.003c0.012,0.54 -0.116,0.998 -0.381,1.357c-0.152,0.205 -0.703,0.857 -1.564,0.857l-0.212,0l-0.234,-0.062c-0.729,-0.21 -1.162,-0.869 -1.324,-1.415c-0.145,-0.485 -0.032,-0.902 0.027,-1.096c0.021,-0.207 0.047,-0.415 0.073,-0.623c0.059,-0.469 0.114,-0.911 0.088,-1.283c-0.123,-1.74 -0.292,-3.278 -0.517,-4.704c-0.074,-0.472 -0.167,-0.941 -0.272,-1.415c-0.539,1.142 -0.828,2.399 -1.055,3.621c-0.198,1.06 -0.35,2.127 -0.511,3.256c-0.074,0.508 -0.147,1.02 -0.225,1.538l-0.532,3.515l-2.042,-2.676l-3.463,-0.664c-0.124,-0.024 -0.224,-0.037 -0.309,-0.048c-0.266,-0.037 -0.598,-0.081 -0.957,-0.289c-0.209,-0.121 -0.457,-0.175 -0.804,-0.175c-0.193,0 -0.399,0.016 -0.588,0.036c-0.009,0.037 -0.251,1.197 -0.251,1.197l-1.086,0.121c-0.165,0.018 -0.34,0.023 -0.517,0.023c0,0 -0.197,-0.001 -0.201,-0.001l-0.201,0.134c-1.214,0.809 -2.361,1.572 -3.355,2.51l-0.123,0.117c-0.577,0.549 -1.296,1.231 -2.354,1.44c-1.058,0.206 -2.031,0.912 -2.936,1.617c-1.389,1.081 -2.087,2.066 -2.336,3.297c-0.586,2.9 -0.016,5.387 1.74,7.604c0.339,0.429 0.744,0.93 1.175,1.407c0.384,0.427 0.774,0.849 1.163,1.27c0.573,0.62 1.145,1.241 1.705,1.878c0.449,0.51 0.755,1.143 0.84,1.735c0.094,0.657 0.121,1.363 0.081,2.103c0.039,-0.283 0.077,-0.567 0.119,-0.85c0.285,-1.962 1.748,-2.062 2.038,-2.062c0.399,0 0.797,0.114 1.217,0.349l0.143,0.08c0.128,0.072 0.322,0.182 0.397,0.204c1.296,0.101 2.783,0.182 4.625,0.249c0.371,0.013 0.743,0.017 1.115,0.017c0.309,0 1.584,-0.011 1.915,-0.011l1.148,0l0.119,0.433c0.042,-0.042 0.083,-0.085 0.123,-0.131c0.543,-0.604 1.179,-0.91 1.891,-0.91c0.309,0 0.627,0.061 0.948,0.182l0.81,0.306c0.278,-0.211 0.683,-0.422 1.208,-0.422m0.638,12.042c-1.165,0 -2.533,-0.711 -2.88,-2.707c-0.16,-0.91 -0.242,-1.907 -0.254,-3.047c-0.002,-0.279 0.004,-0.557 0.014,-0.833c-0.469,-0.001 -1.057,-0.121 -1.623,-0.559l-0.007,0.004c-0.628,0.352 -1.222,0.686 -1.919,0.686c-0.451,0 -0.821,-0.125 -1.146,-0.328c0.033,0.506 0.064,1.026 0.07,1.555c0.016,1.195 -0.435,2.345 -1.235,3.156c-0.738,0.747 -1.709,1.158 -2.734,1.158l-0.107,-0.002c-2.66,-0.072 -3.587,-1.666 -3.988,-3.111c-0.339,0.761 -0.874,1.449 -1.62,2.085c-0.462,0.394 -1.069,0.63 -1.626,0.63c-0.247,0 -0.485,-0.045 -0.705,-0.133c-1.754,-0.696 -2.761,-2.042 -2.759,-3.69c0.001,-1.021 0.075,-2.031 0.147,-3.007c0.029,-0.383 0.057,-0.765 0.081,-1.148c0.014,-0.234 0.052,-0.466 0.091,-0.695c0.055,-0.31 0.051,-0.518 -0.413,-1.036c-1.631,-1.821 -2.938,-3.391 -4.113,-4.942c-0.517,-0.68 -0.862,-1.433 -1.186,-2.17c-0.094,0.263 -0.193,0.529 -0.303,0.791l-1.106,2.649l-1.552,-2.414c-0.051,-0.079 -0.099,-0.146 -0.143,-0.208c-0.139,-0.194 -0.311,-0.436 -0.433,-0.765c-1.063,-2.872 -0.311,-5.556 0.348,-7.325c0.811,-2.182 2.025,-3.524 3.701,-4.087c2.276,-2.633 4.526,-4.129 7.075,-4.703c0.085,-0.053 0.247,-0.191 0.347,-0.276l0.592,-0.505c1.414,-1.209 2.877,-2.46 4.582,-3.421l0.309,-0.177c0.678,-0.392 1.429,-0.824 2.343,-0.999c0.198,-0.271 0.425,-0.477 0.662,-0.632l-0.399,-0.363l1.014,-1.116c0.902,-0.991 1.901,-1.318 2.731,-1.419c-0.033,-0.68 0.191,-1.251 0.67,-1.704c0.435,-0.411 0.988,-0.637 1.557,-0.637c0.376,0 0.748,0.097 1.087,0.285c0.593,-1.457 1.502,-2.755 2.713,-3.871l0.063,-0.057c0.29,-0.273 0.831,-0.78 1.666,-0.78c0.359,0 0.719,0.101 1.04,0.293c1.031,0.616 1.142,1.727 1.19,2.202c0.002,0.022 0.005,0.044 0.007,0.067c0.06,-0.01 0.122,-0.019 0.185,-0.026l0.81,-0.087l0.516,0.63c0.058,0.071 0.112,0.142 0.162,0.214c0.256,-0.136 0.564,-0.225 0.933,-0.225c0.132,0 0.271,0.012 0.42,0.042c0.18,0.035 0.402,0.102 0.628,0.229c0.415,-0.368 0.831,-0.732 1.254,-1.086c0.556,-0.465 1.086,-0.828 1.621,-1.11c0.379,-0.2 0.765,-0.301 1.146,-0.301c0.55,0 1.062,0.214 1.444,0.603c0.316,0.323 0.688,0.918 0.667,1.926c-0.015,0.734 -0.008,1.469 -0.003,2.203l0.002,0.253c0.014,1.91 -0.299,3.875 -0.953,5.994c0.444,0.289 0.896,0.592 1.339,0.93c0.615,0.471 1.216,0.967 1.816,1.463c0.401,0.331 0.801,0.664 1.207,0.987c0.486,0.387 0.892,0.679 1.276,0.919c0.407,0.252 0.819,0.492 1.226,0.724c0.362,-0.397 0.738,-0.798 1.151,-1.168c0.571,-0.516 1.234,-0.805 1.806,-1.02c0.232,-0.088 0.483,-0.132 0.747,-0.132c0.695,0 1.331,0.295 1.7,0.789c0.581,0.775 0.354,1.87 0.059,2.417c-0.286,0.529 -0.423,1.026 -0.419,1.529c1.689,1.02 2.375,2.669 2.041,4.913c-0.347,2.337 -1.198,4.551 -2.53,6.581c-0.099,0.15 -0.212,0.287 -0.327,0.419c-0.369,0.419 -1.227,1.392 -2.532,1.392c-0.229,0 -0.456,-0.03 -0.679,-0.09c-0.699,0.438 -1.443,0.659 -2.217,0.659c-0.446,0 -0.91,-0.075 -1.375,-0.224c-0.073,-0.023 -0.171,-0.054 -0.269,-0.085c-0.073,0.113 -0.145,0.232 -0.198,0.318c-0.903,1.47 -1.763,3.035 -2.595,4.549l-0.078,0.143c-0.596,1.084 -1.316,1.883 -2.194,2.433c0.11,0.37 0.36,1.218 0.36,1.218c0.354,1.204 0.756,2.569 0.359,4.115c-0.176,0.686 -0.488,1.388 -0.901,2.028c-0.527,0.815 -1.336,1.283 -2.223,1.283c-0.469,0 -0.931,-0.128 -1.374,-0.379c-0.478,-0.272 -1.182,-0.673 -1.836,-1.312c-0.638,1.241 -1.719,2.133 -3.112,2.52c-0.307,0.085 -0.613,0.128 -0.909,0.128" style="fill:#fff;fill-rule:nonzero;"/><path d="M31.141,13.233c-0.037,-0.931 -0.118,-1.862 -0.202,-2.749c-0.069,0.492 -0.093,1 -0.065,1.538c0.005,0.052 0.008,0.104 0.01,0.159c0.013,0.337 0.028,0.734 0.054,0.974c0.059,0.024 0.129,0.051 0.203,0.078m14.233,15.89c0.275,0.212 0.551,0.425 0.818,0.652c-0.472,-1.098 -0.695,-2.237 -0.669,-3.409c-0.159,0.5 -0.242,1.037 -0.254,1.621c-0.003,0.137 -0.013,0.276 -0.028,0.463l-0.042,0.538c0.058,0.045 0.117,0.089 0.175,0.135m-12.989,19.891c-1.251,0.001 -2.22,-0.954 -2.411,-2.377c-0.176,-1.307 -0.327,-2.757 -0.16,-4.246c-0.163,0.037 -0.334,0.056 -0.51,0.056c-0.483,0 -0.956,-0.139 -1.329,-0.392c-0.076,-0.051 -0.191,-0.138 -0.309,-0.261c-0.558,0.352 -1.17,0.595 -1.835,0.731l-1.38,0.282l-0.365,-1.324c-0.258,0.003 -0.515,0.005 -0.769,0.005c-0.41,0 -0.818,-0.005 -1.225,-0.019c-1.887,-0.069 -3.417,-0.153 -4.815,-0.266c-0.232,-0.019 -0.449,-0.069 -0.65,-0.135c-0.015,0.114 -0.03,0.227 -0.045,0.341c-0.094,0.721 -0.189,1.442 -0.308,2.157c-0.168,1.019 -0.61,1.985 -1.352,2.954c-0.674,0.882 -1.473,1.013 -1.889,1.013c-0.454,0.001 -1.32,-0.153 -2.027,-1.183c-0.762,-1.112 -0.687,-2.342 -0.647,-3.002c0.032,-0.523 0.092,-1.045 0.152,-1.566c0.054,-0.456 0.108,-0.912 0.137,-1.369c0.036,-0.578 0.019,-1.116 -0.05,-1.603c-0.004,-0.002 -0.05,-0.093 -0.12,-0.172c-0.543,-0.618 -1.1,-1.221 -1.656,-1.823c-0.398,-0.431 -0.795,-0.861 -1.188,-1.297c-0.487,-0.539 -0.93,-1.088 -1.298,-1.554c-2.309,-2.913 -3.094,-6.302 -2.332,-10.073c0.511,-2.527 2.106,-4.042 3.439,-5.079c1.14,-0.887 2.499,-1.863 4.208,-2.196c0.197,-0.039 0.546,-0.373 0.855,-0.666l0.132,-0.125c1.18,-1.113 2.488,-1.984 3.754,-2.827l0.35,-0.233c0.329,-0.22 0.674,-0.321 0.977,-0.366c0.35,-0.672 0.964,-1.215 2.138,-1.348c0.198,-0.022 0.42,-0.045 0.658,-0.058l0.535,-0.505c0.245,-0.232 0.517,-0.411 0.812,-0.539l-1.429,-1.207l2.348,-0.926c0.7,-0.275 1.341,-0.41 1.962,-0.41l0.048,0c-0.015,-0.183 -0.015,-0.378 0.005,-0.585l0.142,-1.425l1.43,0.069c0.496,0.024 0.897,0.173 1.221,0.364c0.356,-1.008 0.835,-2.009 1.511,-2.927c0.372,-0.506 1.03,-1.4 2.268,-1.4c0.252,0 0.51,0.04 0.767,0.119l0.837,0.26l0.189,0.854c0.067,0.3 0.137,0.6 0.208,0.9l0.965,-1.626l1.092,2.79l1.574,-1.673l0.854,2.259c0.292,0.774 0.318,1.527 0.238,2.245l0.616,0.461c0.768,0.575 1.068,1.428 0.839,2.304c0.318,0.181 0.575,0.399 0.781,0.574c0.078,0.067 0.158,0.135 0.24,0.197c0.487,0.365 0.978,0.724 1.471,1.081c0.985,0.718 2.005,1.46 2.985,2.268c1.973,1.627 3.644,2.827 5.26,3.777c0.676,0.398 1.331,0.84 1.965,1.267c0.29,0.195 0.585,0.393 0.887,0.591l1.261,0.827l-1.154,1.757c-1.259,1.889 -1.8,3.899 -1.653,6.146c0.111,1.72 -0.834,3.036 -2.354,3.278c-0.124,0.019 -0.245,0.028 -0.362,0.028c-0.463,0 -1.306,-0.153 -1.988,-1.117l-1.04,1.779c-0.544,0.929 -1.093,1.868 -1.635,2.813c-0.121,0.211 -0.228,0.43 -0.336,0.649c-0.199,0.401 -0.424,0.856 -0.721,1.284l-0.042,0.061c-0.527,0.761 -1.273,1.837 -2.486,2.214c0.079,0.236 0.162,0.471 0.245,0.706c0.187,0.529 0.373,1.059 0.534,1.599c0.331,1.118 0.763,2.57 0.052,4.126c-0.247,0.541 -0.761,1.666 -2.091,1.666c-0.419,0 -0.797,-0.124 -1.143,-0.257c-0.981,-0.376 -1.703,-1.062 -2.206,-2.097c-0.053,-0.109 -0.107,-0.218 -0.16,-0.329c-0.003,0.083 -0.005,0.166 -0.003,0.248c0.007,0.256 -0.026,0.916 -0.473,1.433c-0.088,0.101 -0.173,0.206 -0.258,0.309c-0.339,0.413 -0.723,0.881 -1.249,1.249c-0.464,0.322 -0.978,0.492 -1.489,0.492" style="fill:#fff;fill-rule:nonzero;"/><path d="M20.37,48.156c-0.78,0 -1.464,-0.298 -1.972,-0.557c-0.741,-0.377 -1.04,-1.165 -1.152,-1.601c-0.344,-1.328 -0.677,-2.694 -1.018,-4.173c-0.086,-0.372 -0.068,-0.705 -0.054,-0.947c0.002,-0.06 0.006,-0.122 0.006,-0.184l0,-1.16l1.122,-0.297c0.405,-0.107 0.821,-0.159 1.272,-0.159c0.55,0 1.064,0.08 1.518,0.15c0.38,0.059 0.739,0.115 1.058,0.115c0.083,0 0.167,-0.004 0.251,-0.013l1.257,-0.139l0.356,1.214c0.323,1.107 0.693,2.584 0.687,4.197c-0.005,1.295 -0.617,2.39 -1.722,3.086c-0.494,0.31 -1.035,0.468 -1.609,0.468" style="fill:#fff;fill-rule:nonzero;"/><path d="M50.81,31.621c-0.866,-0.417 -1.393,-1.177 -1.484,-2.14c-0.289,-3.055 0.434,-5.805 2.15,-8.174c0.733,-1.012 1.595,-1.164 2.043,-1.164c1.166,0 2.1,0.891 2.38,2.269c0.185,0.91 0.326,2.115 -0.229,3.351c-0.134,0.298 -0.251,0.606 -0.37,0.914l-0.182,0.467l-0.576,1.451l-0.02,-0.009c-0.468,1.33 -1.231,2.326 -2.27,2.963l-0.702,0.429l-0.74,-0.357Z" style="fill:#fff;fill-rule:nonzero;"/><path d="M37.052,11.387l0.118,-0.891c0.287,-2.183 0.997,-3.92 2.169,-5.311c0.545,-0.646 0.828,-0.83 1.594,-1.04l1.318,-0.359l0.531,1.264c0.756,1.983 0.034,6.125 -1.354,7.777l-0.902,1.071l-3.474,-2.511Z" style="fill:#fff;fill-rule:nonzero;"/><path d="M47.207,32.13c-1.377,-0.089 -2.332,-0.708 -3.098,-1.205l-0.078,-0.051c-0.846,-0.548 -1.272,-1.433 -1.201,-2.492c0.186,-2.777 1.227,-4.865 3.179,-6.38l3.877,-3.008l-1.519,4.666c-0.755,2.316 -0.66,4.322 0.296,6.314l1.115,2.323l-2.571,-0.167Z" style="fill:#fff;fill-rule:nonzero;"/><path d="M0.854,29.881c-0.171,-2.982 0.911,-6.839 3.252,-8.111l2.508,-1.364l-0.767,7.547l-4.774,5.753l-0.219,-3.825Z" style="fill:#fff;fill-rule:nonzero;"/><path d="M35.663,8.671c-0.099,-1.454 0.579,-2.47 1.074,-3.211l0.18,-0.272c0.728,-1.131 1.679,-1.84 2.599,-2.525c0.273,-0.204 0.553,-0.412 0.832,-0.636l1.932,-1.562l0.994,4.924l-1.229,0.438c-0.339,0.121 -0.838,0.385 -1.255,1.27c-0.108,0.231 -0.237,0.451 -0.368,0.669l-0.074,0.123c-0.863,1.46 -1.203,1.719 -2.796,2.137l-1.762,0.461l-0.127,-1.816Z" style="fill:#fff;fill-rule:nonzero;"/><path d="M49.111,20.529l0.272,-1.199c0.49,-2.164 1.813,-3.561 3.37,-3.561l0.115,0.003l1.594,0.072l-0.696,6.792l-4.655,-2.107Z" style="fill:#fff;fill-rule:nonzero;"/><path d="M31.88,16.494c-0.382,0 -0.785,-0.079 -1.268,-0.248c-2.367,-0.83 -2.642,-1.488 -2.739,-3.918c-0.166,-2.518 0.529,-4.481 1.304,-6.228c0.193,-0.434 0.704,-1.586 2.038,-1.586c0.155,0 0.313,0.017 0.47,0.053c0.977,0.218 1.681,1.041 1.837,2.147c0.186,1.324 0.31,2.348 0.403,3.32c0.105,1.102 0.21,2.28 0.242,3.484c0.019,0.674 -0.034,1.649 -0.701,2.333c-0.285,0.293 -0.792,0.643 -1.586,0.643" style="fill:#fff;fill-rule:nonzero;"/><path d="M34.667,18.144c-0.049,-0.067 -0.098,-0.124 -0.144,-0.175c-0.204,-0.238 -0.514,-0.597 -0.606,-1.156c-0.13,-0.803 -0.199,-1.529 -0.207,-2.217c-0.009,-0.638 0.25,-1.27 0.709,-1.736c0.398,-0.404 0.901,-0.627 1.417,-0.627l0.137,0l0.181,0.029c0.391,0.073 1.67,0.444 1.773,2.211l0.006,0.112c0.058,0.955 0.137,2.263 -0.838,3.573l-1.224,1.642l-1.204,-1.656Z" style="fill:#fff;fill-rule:nonzero;"/><path d="M38.85,17.623c-0.658,0 -1.333,-0.358 -1.678,-0.892c-0.264,-0.406 -0.581,-0.955 -0.708,-1.609c-0.209,-1.081 -0.014,-2.085 0.581,-2.987l1.049,-1.588l1.305,1.384c1.007,1.066 1.463,2.335 1.356,3.772c-0.048,0.656 -0.491,1.482 -1.242,1.791c-0.205,0.085 -0.429,0.129 -0.663,0.129" style="fill:#fff;fill-rule:nonzero;"/><path d="M51.5,29.368c-0.818,-0.241 -1.684,-1.027 -1.433,-2.449l0.067,-0.397c0.208,-1.229 0.443,-2.622 1.325,-3.833l0.593,-0.813l2.518,0.607l-0.082,1.265c-0.007,0.11 -0.008,0.223 -0.011,0.335c-0.006,0.342 -0.014,0.768 -0.127,1.213c-0.194,0.762 -0.426,1.504 -0.649,2.221l-0.19,0.609c-0.099,0.319 -0.264,0.543 -0.335,0.638l-0.605,0.976l-1.071,-0.372Z" style="fill:#fff;fill-rule:nonzero;"/><path d="M31.416,15.623c-0.706,0 -1.708,-0.38 -2.257,-1.106c-0.326,-0.429 -0.538,-0.964 -0.585,-1.468c-0.228,-2.494 0.141,-4.562 1.129,-6.327c0.181,-0.321 0.417,-0.503 0.543,-0.601l0.079,-0.063l1.996,-1.743l0.478,2.606c0.049,0.268 0.101,0.527 0.152,0.781c0.116,0.579 0.236,1.178 0.306,1.796c0.12,1.077 0.172,2.158 0.222,3.203c0.03,0.624 0.087,1.791 -0.94,2.563c-0.217,0.164 -0.588,0.359 -1.123,0.359" style="fill:#fff;fill-rule:nonzero;"/><path d="M52.8,17.278c-0.804,-0.037 -1.604,0.871 -1.948,2.386c0.531,0.24 1.076,0.486 1.628,0.736c0.117,-1.136 0.219,-2.132 0.32,-3.122m-11.506,-14.079c-1.16,0.937 -2.332,1.597 -3.11,2.806c-0.487,0.754 -1.091,1.482 -1.018,2.563c1.217,-0.318 1.217,-0.317 1.884,-1.446c0.13,-0.219 0.267,-0.435 0.376,-0.666c0.468,-0.995 1.151,-1.706 2.113,-2.048c-0.077,-0.377 -0.142,-0.7 -0.245,-1.209m-36.468,19.895c-1.535,0.834 -2.631,3.843 -2.467,6.7c0.71,-0.855 1.426,-1.718 2.034,-2.45c0.15,-1.474 0.288,-2.833 0.433,-4.25m42.478,7.532c-1.152,-2.398 -1.229,-4.799 -0.371,-7.434c-1.77,1.374 -2.456,3.166 -2.599,5.291c-0.033,0.483 0.11,0.863 0.516,1.126c0.722,0.468 1.431,0.95 2.454,1.017m-7.031,-18.769c1.035,-1.231 1.651,-4.826 1.1,-6.269c-0.504,0.138 -0.511,0.129 -0.883,0.57c-1.055,1.252 -1.595,2.781 -1.827,4.535c0.503,0.363 1.025,0.74 1.61,1.164m13.364,14.696c0.027,0.011 0.054,0.023 0.08,0.034c0.192,-0.481 0.367,-0.972 0.577,-1.441c0.358,-0.796 0.295,-1.607 0.127,-2.435c-0.214,-1.055 -1.021,-1.49 -1.724,-0.52c-1.512,2.087 -2.124,4.467 -1.87,7.149c0.043,0.461 0.269,0.746 0.637,0.923c0.913,-0.56 1.421,-1.455 1.72,-2.434c-0.154,-0.287 -0.405,-0.539 -0.376,-0.739c0.104,-0.739 0.269,-1.472 0.478,-2.182c0.092,-0.31 0.207,-0.706 0.631,-0.827c0.024,0.246 0.081,0.439 0.054,0.614c-0.096,0.623 -0.22,1.239 -0.334,1.858m-35.95,14.142c0,0.279 -0.047,0.551 0.008,0.791c0.32,1.383 0.655,2.764 1.01,4.137c0.061,0.238 0.201,0.544 0.376,0.634c0.67,0.341 1.387,0.601 2.094,0.156c0.61,-0.384 1.014,-0.989 1.018,-1.816c0.006,-1.287 -0.262,-2.519 -0.626,-3.768c-1.317,0.145 -2.541,-0.489 -3.88,-0.134m20.257,-14.635c1.117,-0.281 2.307,0.116 3.006,-1.091c1.264,-0.442 1.229,-1.844 1.655,-3.16c0.126,0.375 0.206,0.526 0.226,0.688c0.097,0.793 -0.158,1.476 -0.495,2.151c-0.154,0.308 -0.36,0.771 -0.262,1.018c0.401,1.019 0.837,2.037 1.641,2.954c0.023,-0.319 0.043,-0.491 0.046,-0.665c0.062,-2.812 1.467,-4.595 3.474,-5.924c0.285,-0.189 0.557,-0.278 0.805,0.04c0.22,0.283 0.102,0.528 -0.053,0.814c-0.227,0.416 -0.423,0.863 -0.571,1.323c-0.661,2.055 -0.478,4.006 0.601,5.837c0.24,0.409 0.552,0.692 0.983,0.624c0.746,-0.118 1.144,-0.784 1.085,-1.69c-0.172,-2.642 0.51,-4.988 1.905,-7.083c0.113,-0.169 0.224,-0.34 0.319,-0.484c-0.966,-0.634 -1.857,-1.271 -2.789,-1.82c-1.918,-1.128 -3.708,-2.473 -5.455,-3.914c-1.423,-1.173 -2.936,-2.204 -4.403,-3.307c-0.515,-0.387 -0.938,-0.94 -1.674,-0.816c-0.289,0.049 -0.449,-0.297 -0.309,-0.656c0.094,-0.24 0.226,-0.459 0.337,-0.692c0.163,-0.342 0.144,-0.643 -0.212,-0.909c-0.214,0.209 -0.415,0.466 -0.663,0.631c-0.247,0.165 -0.542,0.239 -0.863,0.372c-0.038,-0.221 -0.098,-0.369 -0.079,-0.502c0.074,-0.521 0.158,-1.04 0.265,-1.553c0.216,-1.049 0.218,-1.695 -0.02,-2.328c-0.519,0.551 -0.615,1.317 -0.794,2.039c-0.191,0.77 -0.433,1.497 -1.158,1.983c-0.349,-1.492 0.144,-3.025 -0.437,-4.508c-0.778,1.311 -0.641,2.665 -0.571,4.028c0.084,1.623 0.095,3.25 0.13,4.875c0.003,0.147 -0.014,0.331 -0.088,0.433c-0.092,0.123 -0.275,0.269 -0.382,0.239c-0.123,-0.036 -0.247,-0.237 -0.295,-0.396c-0.035,-0.121 0.061,-0.286 0.075,-0.434c0.069,-0.748 0.226,-1.507 0.172,-2.244c-0.113,-1.618 -0.278,-3.236 -0.53,-4.833c-0.215,-1.365 -0.58,-2.7 -0.877,-4.039c-0.693,-0.214 -1.033,0.27 -1.375,0.735c-1.167,1.586 -1.68,3.501 -2.047,5.469c-0.294,1.581 -0.493,3.186 -0.744,4.844c-0.105,-0.137 -0.245,-0.235 -0.261,-0.355c-0.267,-1.951 0.357,-3.802 0.545,-5.774c-0.487,-0.323 -0.795,-0.975 -1.511,-1.009c-0.066,0.66 0.269,1.105 0.526,1.568c0.186,0.335 0.634,0.614 0.321,1.058c-0.348,0.498 -0.634,-0.033 -0.928,-0.214c-0.087,-0.054 -0.163,-0.135 -0.254,-0.178c-0.815,-0.398 -1.621,-0.383 -2.628,0.014c0.453,0.381 0.728,0.646 1.031,0.86c0.279,0.198 0.611,0.306 0.873,0.526c0.163,0.137 0.24,0.408 0.355,0.62c-0.191,0.095 -0.386,0.278 -0.572,0.267c-0.496,-0.029 -0.987,-0.142 -1.48,-0.224c-0.522,-0.087 -1.026,-0.088 -1.456,0.318c0.365,0.448 0.69,0.848 1.176,1.443c-0.427,-0.081 -0.635,-0.068 -0.795,-0.161c-0.781,-0.452 -1.614,-0.412 -2.439,-0.319c-0.785,0.089 -1.021,0.385 -1.212,1.306c-0.407,0.044 -0.904,-0.057 -1.235,0.164c-1.342,0.896 -2.715,1.779 -3.906,2.902c-0.551,0.521 -1.052,1.04 -1.733,1.174c-1.355,0.265 -2.481,1.058 -3.572,1.908c-1.335,1.039 -2.502,2.285 -2.886,4.187c-0.678,3.348 0.02,6.296 2.036,8.839c0.4,0.506 0.808,1.006 1.235,1.481c0.947,1.05 1.921,2.069 2.856,3.133c0.223,0.253 0.432,0.613 0.481,0.954c0.09,0.626 0.102,1.277 0.062,1.911c-0.063,0.981 -0.229,1.952 -0.289,2.932c-0.043,0.711 -0.044,1.432 0.386,2.058c0.446,0.65 1.009,0.718 1.476,0.107c0.509,-0.666 0.917,-1.409 1.062,-2.284c0.19,-1.15 0.317,-2.313 0.486,-3.469c0.111,-0.767 0.442,-0.94 1.032,-0.612c0.349,0.194 0.721,0.43 1.094,0.46c1.58,0.129 3.165,0.205 4.749,0.262c1.016,0.037 2.034,0.007 3.083,0.007c0.099,0.356 0.195,0.707 0.298,1.08c0.876,-0.179 1.611,-0.605 2.215,-1.277c0.35,-0.39 0.694,-0.511 1.183,-0.326c-0.016,0.218 0.016,0.43 -0.056,0.575c-0.136,0.274 -0.344,0.589 -0.05,0.787c0.215,0.146 0.612,0.183 0.822,0.051c0.486,-0.303 0.932,-0.707 1.343,-1.134c0.249,-0.259 0.448,-0.413 0.806,-0.193c0.019,0.176 0.057,0.36 0.055,0.542c-0.003,0.186 -0.014,0.388 -0.077,0.555c-0.721,1.896 -0.565,3.853 -0.302,5.808c0.129,0.96 0.814,1.356 1.543,0.849c0.47,-0.327 0.835,-0.852 1.229,-1.307c0.079,-0.091 0.111,-0.273 0.107,-0.411c-0.034,-1.439 0.567,-2.758 0.584,-4.193c0.006,-0.491 0.209,-0.979 0.32,-1.455c0.502,-0.016 0.647,0.332 0.678,0.723c0.123,1.598 0.779,2.946 1.443,4.31c0.329,0.676 0.763,1.108 1.392,1.35c0.775,0.298 0.938,0.21 1.322,-0.628c0.486,-1.064 0.17,-2.072 -0.126,-3.072c-0.275,-0.927 -0.633,-1.822 -0.925,-2.743c-0.147,-0.462 -0.198,-0.947 0.094,-1.45c1.376,0.41 2.085,-0.663 2.787,-1.675c0.385,-0.556 0.644,-1.224 0.987,-1.823c0.769,-1.342 1.554,-2.672 2.319,-3.983c-0.817,-0.695 -1.73,-1.252 -2.376,-2.081c-0.663,-0.849 -1.065,-1.963 -1.575,-2.948c-2.008,0.932 -2.7,0.995 -3.327,0.16m-15.587,-16.768c1.013,-1.114 2.169,-1.008 3.417,-0.908c-0.079,-0.431 -0.125,-0.825 -0.227,-1.199c-0.097,-0.353 -0.139,-0.682 0.129,-0.936c0.282,-0.264 0.627,-0.295 0.937,-0.095c0.46,0.297 0.894,0.648 1.406,1.025c0.097,-0.233 0.232,-0.48 0.306,-0.748c0.486,-1.796 1.428,-3.223 2.696,-4.391c0.283,-0.26 0.58,-0.594 0.974,-0.359c0.35,0.209 0.419,0.611 0.463,1.058c0.105,1.035 0.281,2.059 0.456,3.285c0.537,-0.744 0.455,-1.794 1.398,-1.895c0.697,0.851 0.409,2.049 0.753,3.064c0.291,-0.643 0.565,-1.235 0.828,-1.833c0.17,-0.388 0.352,-0.767 0.807,-0.677c0.398,0.077 0.496,0.447 0.549,0.841c0.008,0.065 0.054,0.124 0.082,0.183c0.834,-0.737 1.659,-1.492 2.509,-2.204c0.426,-0.355 0.88,-0.681 1.358,-0.933c0.653,-0.345 1.064,0.033 1.047,0.864c-0.017,0.833 -0.008,1.665 -0.002,2.498c0.015,2.074 -0.393,4.052 -1.027,5.981c-0.057,0.172 -0.113,0.345 -0.207,0.632c0.75,0.503 1.505,0.957 2.211,1.497c1.019,0.779 1.994,1.63 3,2.431c0.458,0.366 0.929,0.715 1.42,1.02c0.777,0.484 1.575,0.923 2.322,1.355c0.643,-0.689 1.213,-1.378 1.857,-1.958c0.379,-0.341 0.865,-0.555 1.331,-0.731c0.211,-0.079 0.583,-0.016 0.708,0.151c0.111,0.146 0.056,0.584 -0.06,0.799c-0.533,0.985 -0.739,2.013 -0.505,3.124c0.071,0.072 0.113,0.142 0.17,0.168c1.495,0.682 2.076,1.74 1.792,3.643c-0.326,2.194 -1.126,4.188 -2.299,5.977c-0.059,0.091 -0.131,0.173 -0.201,0.252c-0.624,0.708 -1.291,1.23 -2.208,0.583c-0.183,0.117 -0.356,0.222 -0.523,0.339c-0.779,0.542 -1.576,0.661 -2.479,0.373c-1.355,-0.434 -1.413,-0.42 -2.21,0.879c-0.95,1.547 -1.829,3.153 -2.71,4.755c-0.471,0.856 -1.056,1.546 -1.855,1.988c-0.234,0.131 -0.468,0.262 -0.807,0.452c0.23,0.77 0.453,1.508 0.67,2.248c0.327,1.116 0.682,2.245 0.379,3.43c-0.145,0.561 -0.403,1.112 -0.708,1.584c-0.396,0.614 -0.987,0.751 -1.586,0.411c-1.043,-0.593 -2.038,-1.262 -2.505,-2.598c-0.097,-0.275 -0.278,-0.511 -0.435,-0.791c-0.45,0.212 -0.485,0.646 -0.527,1.09c-0.165,1.747 -1.157,2.957 -2.629,3.366c-0.83,0.23 -1.668,-0.044 -1.902,-1.386c-0.159,-0.917 -0.221,-1.867 -0.23,-2.804c-0.01,-0.975 0.096,-1.951 0.155,-2.996c-1,0.6 -2.073,1.277 -2.928,-0.303c-0.376,0.212 -0.731,0.412 -1.087,0.613c-1.301,0.729 -1.387,0.711 -2.386,-0.478c-0.491,-0.044 -0.978,-0.087 -1.526,-0.136c0,0.405 -0.013,0.775 0.004,1.144c0.042,0.905 0.131,1.81 0.143,2.716c0.019,1.586 -1.126,2.826 -2.527,2.786c-1.607,-0.044 -2.344,-0.727 -2.702,-2.536c-0.24,-1.216 -0.506,-2.428 -0.666,-3.659c-0.079,-0.601 -0.279,-0.883 -0.876,-0.959c-0.074,0.36 -0.143,0.719 -0.223,1.074c-0.243,1.094 -0.472,2.195 -0.741,3.281c-0.227,0.912 -0.777,1.584 -1.421,2.134c-0.209,0.178 -0.576,0.33 -0.794,0.243c-0.79,-0.313 -1.811,-0.961 -1.811,-2.289c0.002,-1.355 0.141,-2.709 0.226,-4.063c0.012,-0.188 0.045,-0.374 0.077,-0.56c0.166,-0.949 -0.186,-1.606 -0.781,-2.27c-1.396,-1.559 -2.758,-3.163 -4.036,-4.848c-0.573,-0.755 -0.933,-1.729 -1.342,-2.632c-0.273,-0.603 -0.462,-1.253 -0.711,-1.944c-1.229,0.724 -1.46,2.174 -2.026,3.528c-0.188,-0.292 -0.351,-0.466 -0.429,-0.679c-0.798,-2.154 -0.412,-4.241 0.345,-6.277c0.591,-1.587 1.468,-2.865 3.057,-3.269c0.138,-0.035 0.254,-0.222 0.368,-0.353c1.777,-2.057 3.771,-3.677 6.326,-4.236c0.334,-0.073 0.652,-0.344 0.936,-0.585c1.59,-1.349 3.136,-2.746 4.94,-3.763c0.874,-0.493 1.679,-1.035 2.676,-1.06c0.085,-0.002 0.22,-0.065 0.247,-0.14c0.353,-0.973 1.135,-0.885 1.839,-0.969c0.317,-0.037 0.641,-0.006 1.093,-0.006c-0.578,-0.525 -1.035,-0.941 -1.552,-1.409" style="fill:#231f20;fill-rule:nonzero;"/><path d="M38.304,12.966c-0.408,0.618 -0.481,1.246 -0.36,1.87c0.074,0.384 0.283,0.752 0.492,1.075c0.091,0.14 0.368,0.246 0.503,0.19c0.144,-0.059 0.3,-0.322 0.314,-0.509c0.076,-1.025 -0.243,-1.878 -0.949,-2.626m-2.418,4.292c0.676,-0.907 0.589,-1.804 0.537,-2.697c-0.025,-0.417 -0.15,-0.744 -0.54,-0.815c-0.28,-0.051 -0.672,0.382 -0.666,0.83c0.009,0.667 0.082,1.339 0.189,1.995c0.034,0.212 0.26,0.385 0.48,0.687m-6.509,-5.026c0,-0.155 -0.003,-0.08 0.001,-0.004c0.078,2.001 0.09,2.02 1.733,2.595c1.156,0.405 1.586,0.083 1.55,-1.263c-0.03,-1.13 -0.13,-2.259 -0.237,-3.383c-0.103,-1.088 -0.243,-2.172 -0.393,-3.252c-0.061,-0.43 -0.272,-0.797 -0.676,-0.888c-0.454,-0.102 -0.63,0.292 -0.8,0.675c-0.739,1.663 -1.32,3.371 -1.178,5.52m8.568,13.828c0.627,0.835 1.318,0.772 3.328,-0.16c0.509,0.985 0.911,2.099 1.574,2.949c0.646,0.828 1.559,1.385 2.376,2.08c-0.765,1.311 -1.55,2.641 -2.319,3.984c-0.343,0.598 -0.602,1.266 -0.987,1.823c-0.702,1.011 -1.411,2.084 -2.788,1.674c-0.291,0.502 -0.24,0.988 -0.093,1.45c0.292,0.922 0.649,1.816 0.924,2.743c0.297,1 0.612,2.008 0.127,3.071c-0.384,0.84 -0.548,0.928 -1.322,0.629c-0.629,-0.242 -1.063,-0.674 -1.392,-1.35c-0.664,-1.364 -1.32,-2.712 -1.443,-4.31c-0.031,-0.391 -0.177,-0.739 -0.679,-0.722c-0.11,0.476 -0.313,0.963 -0.319,1.453c-0.018,1.436 -0.619,2.756 -0.584,4.194c0.004,0.138 -0.028,0.32 -0.107,0.411c-0.394,0.456 -0.76,0.98 -1.229,1.307c-0.729,0.507 -1.414,0.112 -1.543,-0.849c-0.263,-1.955 -0.419,-3.912 0.302,-5.808c0.063,-0.167 0.073,-0.369 0.077,-0.555c0.002,-0.182 -0.037,-0.367 -0.056,-0.541c-0.357,-0.22 -0.557,-0.068 -0.806,0.192c-0.41,0.427 -0.857,0.831 -1.342,1.134c-0.211,0.132 -0.607,0.095 -0.823,-0.051c-0.293,-0.199 -0.085,-0.513 0.051,-0.787c0.072,-0.145 0.039,-0.357 0.056,-0.575c-0.49,-0.185 -0.833,-0.064 -1.184,0.326c-0.604,0.672 -1.338,1.098 -2.214,1.277c-0.103,-0.373 -0.2,-0.724 -0.298,-1.08c-1.049,0 -2.067,0.03 -3.084,-0.007c-1.583,-0.057 -3.168,-0.134 -4.748,-0.261c-0.374,-0.03 -0.745,-0.267 -1.095,-0.462c-0.589,-0.327 -0.92,-0.154 -1.031,0.613c-0.169,1.156 -0.296,2.319 -0.486,3.469c-0.145,0.875 -0.553,1.619 -1.062,2.284c-0.468,0.61 -1.03,0.543 -1.476,-0.107c-0.43,-0.627 -0.43,-1.347 -0.386,-2.058c0.06,-0.98 0.226,-1.951 0.288,-2.931c0.041,-0.635 0.028,-1.286 -0.062,-1.912c-0.049,-0.341 -0.257,-0.701 -0.48,-0.954c-0.935,-1.064 -1.909,-2.083 -2.856,-3.134c-0.428,-0.474 -0.835,-0.975 -1.235,-1.48c-2.017,-2.544 -2.714,-5.491 -2.037,-8.838c0.385,-1.903 1.551,-3.15 2.887,-4.189c1.09,-0.848 2.217,-1.642 3.572,-1.907c0.68,-0.133 1.181,-0.653 1.733,-1.174c1.191,-1.123 2.564,-2.005 3.905,-2.902c0.331,-0.221 0.829,-0.12 1.236,-0.164c0.192,-0.922 0.426,-1.217 1.212,-1.306c0.824,-0.093 1.658,-0.133 2.439,0.319c0.16,0.093 0.369,0.08 0.795,0.162c-0.486,-0.596 -0.811,-0.996 -1.176,-1.444c0.429,-0.406 0.934,-0.405 1.456,-0.318c0.493,0.082 0.984,0.194 1.48,0.224c0.186,0.012 0.381,-0.172 0.572,-0.268c-0.116,-0.211 -0.192,-0.482 -0.355,-0.619c-0.263,-0.22 -0.595,-0.328 -0.874,-0.526c-0.302,-0.214 -0.578,-0.478 -1.03,-0.861c1.006,-0.395 1.813,-0.411 2.628,-0.014c0.09,0.044 0.167,0.125 0.254,0.179c0.294,0.181 0.58,0.712 0.928,0.215c0.313,-0.445 -0.135,-0.724 -0.321,-1.06c-0.257,-0.462 -0.592,-0.907 -0.526,-1.568c0.716,0.035 1.024,0.688 1.511,1.009c-0.188,1.973 -0.813,3.824 -0.545,5.776c0.016,0.119 0.156,0.217 0.26,0.354c0.252,-1.657 0.451,-3.262 0.745,-4.843c0.366,-1.969 0.88,-3.884 2.046,-5.47c0.343,-0.465 0.683,-0.949 1.376,-0.734c0.297,1.338 0.662,2.673 0.876,4.039c0.252,1.596 0.417,3.214 0.531,4.831c0.053,0.739 -0.103,1.497 -0.172,2.244c-0.014,0.149 -0.111,0.314 -0.075,0.435c0.047,0.159 0.172,0.36 0.295,0.396c0.106,0.03 0.29,-0.116 0.382,-0.239c0.074,-0.102 0.09,-0.286 0.087,-0.432c-0.034,-1.626 -0.045,-3.253 -0.129,-4.876c-0.07,-1.363 -0.207,-2.717 0.57,-4.028c0.581,1.483 0.089,3.016 0.438,4.508c0.724,-0.486 0.967,-1.213 1.158,-1.983c0.178,-0.722 0.275,-1.487 0.793,-2.039c0.239,0.634 0.237,1.279 0.02,2.328c-0.106,0.513 -0.191,1.032 -0.264,1.553c-0.019,0.133 0.041,0.281 0.078,0.502c0.322,-0.133 0.617,-0.206 0.864,-0.371c0.248,-0.166 0.449,-0.423 0.663,-0.632c0.355,0.266 0.375,0.567 0.211,0.91c-0.11,0.231 -0.243,0.451 -0.336,0.691c-0.14,0.359 0.02,0.705 0.308,0.656c0.737,-0.124 1.16,0.429 1.675,0.816c1.467,1.103 2.979,2.134 4.403,3.307c1.747,1.441 3.536,2.786 5.455,3.914c0.931,0.549 1.822,1.186 2.788,1.82c-0.094,0.144 -0.205,0.315 -0.318,0.485c-1.396,2.094 -2.077,4.439 -1.905,7.082c0.058,0.906 -0.339,1.572 -1.085,1.69c-0.432,0.068 -0.743,-0.214 -0.984,-0.624c-1.079,-1.832 -1.261,-3.782 -0.6,-5.837c0.148,-0.459 0.344,-0.907 0.57,-1.323c0.157,-0.286 0.273,-0.531 0.053,-0.814c-0.248,-0.317 -0.519,-0.229 -0.804,-0.04c-2.007,1.33 -3.412,3.112 -3.474,5.925c-0.003,0.173 -0.023,0.345 -0.046,0.665c-0.804,-0.918 -1.24,-1.936 -1.641,-2.955c-0.099,-0.248 0.108,-0.71 0.262,-1.018c0.336,-0.675 0.592,-1.359 0.495,-2.151c-0.021,-0.161 -0.1,-0.313 -0.226,-0.688c-0.426,1.316 -0.391,2.719 -1.655,3.161c-0.699,1.206 -1.889,0.809 -3.006,1.09" style="fill:#676756;fill-rule:nonzero;"/><path d="M17.688,40.695c1.339,-0.354 2.562,0.28 3.879,0.134c0.365,1.249 0.632,2.481 0.627,3.768c-0.004,0.827 -0.409,1.432 -1.018,1.816c-0.707,0.444 -1.424,0.185 -2.093,-0.156c-0.177,-0.09 -0.316,-0.396 -0.377,-0.634c-0.355,-1.373 -0.69,-2.754 -1.009,-4.138c-0.056,-0.24 -0.009,-0.51 -0.009,-0.79" style="fill:#676756;fill-rule:nonzero;"/><path d="M52.984,23.651c-0.102,-0.025 -0.205,-0.049 -0.307,-0.074c-0.754,1.034 -0.904,2.337 -1.126,3.604c-0.052,0.293 -0.041,0.619 0.375,0.742c0.035,-0.057 0.113,-0.138 0.144,-0.24c0.282,-0.916 0.582,-1.827 0.818,-2.757c0.103,-0.402 0.068,-0.848 0.096,-1.275m0.653,2.901c0.114,-0.618 0.238,-1.235 0.333,-1.857c0.028,-0.175 -0.029,-0.367 -0.053,-0.615c-0.423,0.122 -0.539,0.518 -0.631,0.829c-0.209,0.709 -0.373,1.442 -0.478,2.181c-0.029,0.201 0.222,0.452 0.376,0.739c-0.298,0.979 -0.806,1.874 -1.72,2.434c-0.368,-0.177 -0.594,-0.462 -0.637,-0.924c-0.254,-2.682 0.358,-5.061 1.87,-7.148c0.703,-0.97 1.511,-0.535 1.725,0.52c0.168,0.828 0.23,1.639 -0.127,2.435c-0.211,0.469 -0.386,0.96 -0.577,1.441c-0.027,-0.011 -0.054,-0.023 -0.081,-0.035" style="fill:#aaaaa0;fill-rule:nonzero;"/><path d="M40.274,11.857c-0.586,-0.424 -1.107,-0.801 -1.61,-1.165c0.231,-1.754 0.771,-3.282 1.827,-4.535c0.372,-0.44 0.379,-0.432 0.882,-0.569c0.551,1.443 -0.064,5.038 -1.099,6.269" style="fill:#fabaa5;fill-rule:nonzero;"/><path d="M47.304,30.626c-1.022,-0.066 -1.732,-0.549 -2.454,-1.017c-0.406,-0.263 -0.549,-0.643 -0.517,-1.125c0.143,-2.125 0.829,-3.917 2.6,-5.291c-0.858,2.635 -0.78,5.035 0.371,7.433" style="fill:#fff;fill-rule:nonzero;"/><path d="M4.826,23.094c-0.144,1.417 -0.283,2.776 -0.432,4.249c-0.609,0.733 -1.325,1.596 -2.035,2.451c-0.163,-2.857 0.932,-5.866 2.467,-6.7" style="fill:#676756;fill-rule:nonzero;"/><path d="M41.295,3.199c0.102,0.509 0.168,0.832 0.244,1.208c-0.961,0.343 -1.645,1.053 -2.113,2.048c-0.108,0.232 -0.246,0.448 -0.375,0.666c-0.667,1.13 -0.668,1.129 -1.884,1.447c-0.074,-1.082 0.531,-1.81 1.017,-2.563c0.779,-1.21 1.951,-1.869 3.111,-2.806" style="fill:#676756;fill-rule:nonzero;"/><path d="M52.8,17.278c-0.101,0.99 -0.203,1.986 -0.32,3.122c-0.552,-0.25 -1.097,-0.496 -1.628,-0.736c0.344,-1.515 1.144,-2.423 1.948,-2.386" style="fill:#fff;fill-rule:nonzero;"/><path d="M31.317,7.194c-0.156,0.136 -0.251,0.183 -0.298,0.265c-0.938,1.676 -1.119,3.528 -0.942,5.452c0.022,0.243 0.141,0.509 0.284,0.696c0.276,0.365 1.04,0.629 1.273,0.453c0.392,-0.295 0.364,-0.787 0.342,-1.234c-0.05,-1.055 -0.099,-2.113 -0.216,-3.16c-0.091,-0.806 -0.283,-1.598 -0.443,-2.472m-1.94,5.037c-0.142,-2.148 0.44,-3.856 1.178,-5.52c0.17,-0.382 0.346,-0.776 0.8,-0.674c0.404,0.091 0.615,0.458 0.675,0.888c0.152,1.08 0.291,2.164 0.394,3.251c0.107,1.125 0.207,2.254 0.237,3.383c0.036,1.347 -0.393,1.669 -1.55,1.264c-1.643,-0.576 -1.655,-0.594 -1.733,-2.595c-0.003,-0.075 -0.001,-0.151 -0.001,0.003" style="fill:#231f20;fill-rule:nonzero;"/><path d="M35.886,17.258c-0.22,-0.302 -0.446,-0.475 -0.481,-0.687c-0.107,-0.656 -0.179,-1.328 -0.188,-1.995c-0.007,-0.448 0.385,-0.881 0.666,-0.83c0.39,0.072 0.515,0.398 0.539,0.815c0.053,0.893 0.14,1.79 -0.536,2.697" style="fill:#231f20;fill-rule:nonzero;"/><path d="M38.304,12.966c0.706,0.748 1.025,1.601 0.949,2.626c-0.014,0.187 -0.17,0.45 -0.314,0.509c-0.135,0.056 -0.412,-0.05 -0.503,-0.19c-0.209,-0.323 -0.418,-0.691 -0.492,-1.075c-0.121,-0.624 -0.048,-1.252 0.36,-1.87" style="fill:#231f20;fill-rule:nonzero;"/><path d="M52.984,23.651c-0.028,0.427 0.007,0.873 -0.096,1.275c-0.236,0.93 -0.536,1.841 -0.818,2.757c-0.031,0.102 -0.109,0.183 -0.144,0.24c-0.416,-0.123 -0.427,-0.449 -0.375,-0.742c0.222,-1.267 0.372,-2.57 1.126,-3.604c0.102,0.025 0.205,0.049 0.307,0.074" style="fill:#231f20;fill-rule:nonzero;"/><path d="M31.317,7.194c0.16,0.874 0.352,1.666 0.443,2.472c0.117,1.047 0.166,2.105 0.216,3.16c0.022,0.447 0.05,0.939 -0.342,1.234c-0.233,0.176 -0.997,-0.088 -1.273,-0.453c-0.143,-0.187 -0.262,-0.453 -0.284,-0.696c-0.177,-1.924 0.004,-3.776 0.942,-5.452c0.047,-0.082 0.142,-0.129 0.298,-0.265" style="fill:#fabaa5;fill-rule:nonzero;"/></g></svg>