<?xml version="1.0" encoding="UTF-8" standalone="no"?><!DOCTYPE svg PUBLIC "-//W3C//DTD SVG 1.1//EN" "http://www.w3.org/Graphics/SVG/1.1/DTD/svg11.dtd"><svg width="100%" height="100%" viewBox="0 0 48 46" version="1.1" xmlns="http://www.w3.org/2000/svg" xmlns:xlink="http://www.w3.org/1999/xlink" xml:space="preserve" xmlns:serif="http://www.serif.com/" style="fill-rule:evenodd;clip-rule:evenodd;stroke-linejoin:round;stroke-miterlimit:2;"><g><path d="M6.838,7.315c0,0 -0.003,-0.003 -0.005,-0.004l0.005,0.004Zm0.036,0.131l0.056,-0.07c-0.025,-0.018 -0.053,-0.037 -0.084,-0.057c0,0.001 0.024,0.019 0.024,0.019c-0.012,0 -0.023,0.001 -0.033,0.002c0.004,0.01 0.013,0.045 0.037,0.106m15.744,0.475c0.216,0.259 0.426,0.508 0.635,0.749c0.06,-0.081 0.112,-0.154 0.142,-0.208c0.048,-0.092 0.133,-0.25 0.164,-0.334c-0.002,-0.22 -0.078,-0.426 -0.214,-0.566c-0.09,-0.095 -0.198,-0.15 -0.294,-0.15c-0.032,0 -0.066,0.006 -0.101,0.018c-0.184,0.063 -0.342,0.116 -0.414,0.393l0.082,0.098Zm16.448,5.975c0.186,0 0.37,0.017 0.554,0.054c-0.026,-0.363 -0.055,-0.727 -0.083,-1.089c-0.049,-0.623 -0.097,-1.246 -0.14,-1.869c-0.291,0.377 -0.511,0.799 -0.654,1.258c-0.174,0.562 -0.212,1.141 -0.119,1.679c0.147,-0.022 0.293,-0.033 0.442,-0.033m-30.699,2.809c0.09,0.136 0.212,0.25 0.363,0.369c0.24,0.189 0.436,0.239 0.513,0.239c0.007,-0.001 0.049,-0.043 0.1,-0.139c0.113,-0.214 0.24,-0.381 0.347,-0.51c-0.164,-0.027 -0.331,-0.041 -0.506,-0.041c-0.263,0 -0.531,0.029 -0.817,0.082m-2.215,3.164c0.03,0.329 0.08,0.631 0.151,0.923c0.075,0.31 0.175,0.572 0.306,0.798c0.016,-0.198 0.045,-0.381 0.079,-0.547l0,-0.004c-0.011,-0.153 -0.017,-0.306 -0.007,-0.455c0.018,-0.281 -0.021,-0.374 -0.021,-0.375c-0.186,-0.102 -0.355,-0.216 -0.508,-0.34m4.322,1.218c0.064,0.739 0.323,0.875 0.415,0.923c0.24,0.126 0.453,0.19 0.636,0.19c0.115,0 0.298,-0.022 0.553,-0.213c0.164,-0.122 0.197,-0.19 0.197,-0.192c0,0 0.009,-0.049 -0.022,-0.17c-0.087,-0.353 -0.071,-0.659 -0.058,-0.883c0.002,-0.048 0.006,-0.098 0.006,-0.152l0,-0.758c-0.538,0.594 -1.135,0.98 -1.727,1.255m1.984,-7.638c1.629,0.157 2.906,0.988 4.036,1.724c0.189,0.122 0.376,0.244 0.564,0.362c0.654,0.41 1.1,1.016 1.459,1.504c0.628,0.85 0.907,1.797 1.154,2.633c0.073,0.251 0.147,0.502 0.232,0.747c0.229,0.669 0.454,1.399 0.555,2.203c0.514,-0.431 1.021,-1.003 1.549,-1.738c0.477,-0.666 0.823,-1.494 1.124,-2.688c0.406,-1.613 0.365,-2.693 -0.136,-3.608c-0.45,-0.821 -0.885,-1.433 -1.33,-1.871c-0.378,-0.373 -0.724,-0.762 -1.057,-1.137c-0.629,-0.708 -1.221,-1.377 -1.894,-1.769c-0.255,-0.145 -0.7,-0.505 -0.792,-1.24l-0.03,-0.127c-0.092,0.003 -0.283,0.005 -0.284,0.005c-0.381,0 -1.525,-0.002 -2.223,-0.873c-0.011,-0.015 -0.062,-0.031 -0.235,-0.031l-0.083,0.001c-1.62,0.028 -2.968,0.47 -4.122,1.351c-1.234,0.942 -2.099,2.351 -2.977,3.869c0.3,-0.036 0.607,-0.053 0.924,-0.053c0.985,0 1.903,0.174 2.592,0.326c0.385,0.085 0.682,0.248 0.897,0.368c0.026,0.013 0.051,0.028 0.077,0.042m2.235,5.9c0.946,0.714 1.484,1.754 1.478,2.856c-0.004,0.883 -0.358,1.718 -0.987,2.368c0.294,-0.14 0.604,-0.305 0.933,-0.498c0.479,-0.279 0.607,-0.353 0.395,-1.366c-0.047,-0.229 -0.13,-0.483 -0.218,-0.751c-0.111,-0.343 -0.238,-0.732 -0.321,-1.155c-0.294,-1.517 -1.136,-2.288 -2.482,-2.938c-0.061,0.149 -0.129,0.291 -0.2,0.426l1.402,1.058Zm16.523,20.86c0.602,0 1.174,0.125 1.7,0.37c0.261,0.123 0.553,0.18 0.919,0.18c0.338,0 0.707,-0.05 1.023,-0.098c0.227,-0.034 0.453,-0.088 0.679,-0.141c0.446,-0.103 0.95,-0.22 1.502,-0.246c0.598,-0.027 1.167,-0.418 1.839,-0.996c0.74,-0.638 1.197,-1.41 1.398,-2.362c0.268,-1.274 0.29,-2.129 0.074,-2.95c-0.151,-0.577 -0.254,-1.154 -0.353,-1.712c-0.153,-0.857 -0.298,-1.667 -0.587,-2.295c-0.728,-1.582 -1.971,-2.616 -3.593,-2.991c-0.812,-0.187 -1.656,-0.282 -2.51,-0.282c-1.282,0 -2.596,0.204 -4.017,0.622c-0.885,0.262 -1.747,0.394 -2.563,0.394c-1.64,0 -3.118,-0.515 -4.409,-1.535c-0.736,0.521 -1.519,0.779 -2.18,0.997l-0.305,0.102c-0.271,0.093 -0.545,0.14 -0.811,0.14c-0.261,0 -0.51,-0.045 -0.741,-0.129l-0.439,0.285c-0.042,0.853 0.102,1.675 0.455,2.55l0.999,-1.638l0.838,3.766c0.236,1.062 0.254,1.915 0.057,2.684c-0.548,2.13 -2.293,3.453 -4.554,3.453c-0.163,0 -0.33,-0.007 -0.501,-0.021c-0.109,-0.009 -0.215,-0.014 -0.32,-0.014l-0.009,0l0.535,0.434l-0.057,0.809c-0.012,0.174 -0.033,0.344 -0.059,0.507c0.522,-0.198 1.056,-0.296 1.606,-0.296c0.521,0 1.053,0.092 1.584,0.275c0.099,0.035 0.361,0.035 0.447,0.035l0.42,-0.003c0.205,0 0.411,0.005 0.613,0.025c0.117,0.01 0.231,0.017 0.344,0.017c0.574,0 0.989,-0.163 1.389,-0.546c0.527,-0.505 0.893,-1.122 1.117,-1.888c0.137,-0.463 0.421,-1.428 1.512,-1.954l2.06,-0.994l0.075,1.01c0.056,-0.025 0.113,-0.048 0.171,-0.071c0.362,-0.142 0.725,-0.234 1.078,-0.301c-0.091,-0.434 -0.125,-0.846 -0.156,-1.212c-0.013,-0.166 -0.027,-0.333 -0.046,-0.498c-0.128,-1.094 0.108,-2.084 0.683,-2.866c0.2,-0.27 0.411,-0.529 0.623,-0.787c0.124,-0.151 0.247,-0.301 0.368,-0.455c1.078,-1.375 2.485,-1.534 3.45,-1.534c0.16,0 0.321,0.004 0.483,0.012c0.662,0.027 1.07,0.418 1.29,0.628c0.05,0.048 0.11,0.106 0.188,0.17l2.418,1.986l-3.043,0.729c-0.151,0.036 -0.281,0.07 -0.398,0.101c-0.301,0.078 -0.536,0.135 -0.774,0.169c-0.385,0.054 -0.74,0.29 -1.003,0.664c-0.33,0.472 -0.451,1.07 -0.33,1.642c0.163,0.771 0.412,1.537 0.655,2.256c0.148,0.43 0.484,1.401 -0.279,2.332c-0.399,0.488 -0.953,0.758 -1.56,0.758c-0.039,0 -0.075,-0.002 -0.112,-0.004l0.068,0.832c0.369,-0.077 0.716,-0.115 1.049,-0.115m-18.491,5.049c-0.949,0 -1.815,-0.316 -2.58,-0.939c-0.058,-0.018 -0.12,-0.03 -0.179,-0.044c-0.027,-0.006 -0.053,-0.013 -0.08,-0.02c-0.079,0.005 -0.143,0.008 -0.207,0.008l-0.161,-0.005c-2.114,-0.142 -3.385,-1.356 -3.78,-3.609c-0.554,-3.162 0.673,-5.543 3.367,-6.534c1.354,-0.498 1.616,-0.594 2.394,-1.347c-0.359,-1.329 -0.438,-2.659 -0.447,-3.912c-2.892,-0.792 -5.151,-2.172 -7.038,-4.281c-1.312,-1.466 -1.608,-3.124 -1.732,-4.698c-0.037,-0.471 -0.03,-0.917 -0.025,-1.349c0.003,-0.168 0.006,-0.337 0.005,-0.504l-0.005,-0.078c-0.014,-0.21 -0.038,-0.561 0.08,-0.954c0.371,-1.245 0.752,-2.489 1.145,-3.773c-0.011,-0.005 -0.024,-0.011 -0.036,-0.017c-1.484,-0.68 -2.656,-2.277 -3.136,-4.271c-0.504,-2.089 -0.139,-4.116 1,-5.56c0.108,-0.135 0.213,-0.278 0.318,-0.421c0.311,-0.422 0.664,-0.901 1.122,-1.312c1.09,-0.979 2.221,-1.454 3.46,-1.454c0.208,0 0.42,0.013 0.638,0.043l0.347,0.044c0.923,0.117 1.971,0.249 2.995,0.817c1.1,0.609 2.262,1.413 2.945,2.801c0.259,-0.02 0.493,-0.049 0.704,-0.101c0.359,-0.088 0.737,-0.133 1.12,-0.133c0.696,0 1.329,0.144 1.87,0.299c0.513,-0.749 1.152,-1.486 1.901,-2.195c1.162,-1.099 2.439,-1.657 3.797,-1.657c0.735,0 1.482,0.169 2.22,0.501c1.638,0.74 3.259,1.71 4.028,3.779c0.444,1.193 0.765,2.598 0.953,4.176c0.095,0.801 -0.138,1.707 -0.712,2.766c-0.556,1.025 -1.276,1.83 -2.148,2.404c0.902,3.25 0.314,6.432 -1.784,9.662c0.012,0.005 0.026,0.011 0.04,0.015c0.631,0.234 1.219,0.346 1.799,0.346c0.5,0 0.983,-0.084 1.477,-0.256c1.383,-0.481 2.868,-0.705 4.676,-0.705c0.285,0 0.571,0.006 0.857,0.016l0.395,0.011c0.43,0.008 0.919,0.019 1.42,0.093c1.414,0.208 2.73,0.735 3.931,1.569c-0.094,-0.094 -0.192,-0.188 -0.293,-0.281c-1.142,-1.049 -1.978,-1.994 -2.63,-2.974c-0.615,-0.924 -0.733,-2.159 -0.769,-3.007c-0.015,-0.383 -0.115,-0.711 -0.369,-1.208c-1.772,-3.492 -0.803,-7.715 2.255,-9.825c0.738,-0.51 1.496,-0.942 2.229,-1.36c0.258,-0.147 0.515,-0.294 0.771,-0.444c0.264,-0.155 0.563,-0.235 0.886,-0.235c0.07,0 0.149,0.005 0.238,0.012l1.731,0l-0.163,1.725l-0.01,0.139c-0.012,0.184 -0.027,0.435 -0.113,0.718c-0.421,1.388 -0.303,2.837 -0.113,4.196c0.15,1.092 0.171,2.177 0.19,3.226l0.002,0.114c0.03,1.562 -0.597,2.493 -1.249,3.037c0.221,0.347 0.442,0.644 0.68,0.913c1.356,1.543 2.462,3.309 3.287,5.252c1.078,2.541 1.118,5.239 0.119,8.246c-0.407,1.224 -1.204,1.98 -1.908,2.533c-0.025,0.132 -0.049,0.264 -0.074,0.394c-0.129,0.677 -0.25,1.316 -0.331,1.948c-0.303,2.377 -1.737,3.786 -3.056,4.92c-1.161,0.997 -2.379,1.53 -3.724,1.626c-0.437,0.031 -0.92,0.143 -1.428,0.261c-0.23,0.054 -0.459,0.106 -0.688,0.154c-0.448,0.092 -0.895,0.14 -1.33,0.14c-0.783,0 -1.551,-0.151 -2.285,-0.446c-0.175,-0.07 -0.344,-0.104 -0.518,-0.104c-0.166,0 -0.345,0.03 -0.545,0.093c-1.006,0.315 -2.094,0.601 -3.422,0.898c-0.31,0.07 -0.622,0.105 -0.929,0.105c-1.368,0 -2.528,-0.679 -3.247,-1.794c-0.831,0.386 -1.763,0.576 -2.811,0.576c-0.427,0 -0.877,-0.031 -1.376,-0.093c-0.689,-0.087 -1.376,-0.179 -2.063,-0.283c0.01,0.006 -0.09,0.048 -0.313,0.248c-0.769,0.692 -1.595,0.983 -2.301,1.177c-0.441,0.12 -0.873,0.182 -1.284,0.182" style="fill:#fff;fill-rule:nonzero;"/><path d="M24.517,43.88c-0.704,-0.496 -1.151,-0.977 -1.361,-1.521c-0.847,0.596 -1.825,0.897 -2.917,0.897c-0.21,0 -0.423,-0.011 -0.641,-0.032c-0.104,-0.01 -0.21,-0.011 -0.317,-0.011l-0.419,0.002c-0.429,0 -0.938,-0.024 -1.46,-0.203c-0.206,-0.071 -0.392,-0.106 -0.57,-0.106c-0.262,0 -0.686,0.066 -1.352,0.634c-0.322,0.275 -0.657,0.383 -0.836,0.442c-0.183,0.062 -0.327,0.095 -0.506,0.124l-0.173,0.033l-0.039,0.211c0,0 -1.318,0.006 -1.319,0.006c-0.364,0 -1.462,-0.002 -2.2,-0.833c-0.297,-0.333 -0.455,-0.709 -0.536,-1.066l-0.366,0.172l-0.363,-1.991c-0.342,-1.873 0.312,-3.44 1.795,-4.299c1.273,-0.734 2.577,-1.107 3.878,-1.107c0.19,0 0.382,0.008 0.576,0.024c0.083,0.007 0.166,0.01 0.245,0.01c0.77,0 1.271,-0.321 1.493,-0.956l-0.164,-0.238c-1.26,-1.822 -2.64,-4.338 -2.129,-7.649l0.106,-0.687l4.28,-2.779l0.384,1.104c0.524,-0.186 0.891,-0.358 1.178,-0.659c0.287,-0.304 0.602,-0.46 0.789,-0.554l0.072,-0.036l1.075,-0.602l0.862,0.893c0.914,1.002 1.943,1.489 3.145,1.489c0.518,0 1.084,-0.09 1.682,-0.267c1.688,-0.497 3.335,-0.749 4.897,-0.749c1.088,0 2.169,0.121 3.209,0.361c2.56,0.591 4.591,2.268 5.719,4.721c0.457,0.99 0.644,2.037 0.825,3.05c0.092,0.521 0.18,1.013 0.299,1.469c0.432,1.644 0.223,3.138 -0.039,4.382c-0.341,1.62 -1.153,2.991 -2.411,4.076c-0.956,0.823 -2.145,1.674 -3.728,1.746c-0.267,0.013 -0.594,0.088 -0.94,0.169c-0.305,0.071 -0.608,0.14 -0.914,0.187c-0.431,0.066 -0.945,0.132 -1.492,0.132c-0.826,0 -1.557,-0.154 -2.236,-0.471c-0.114,-0.054 -0.236,-0.078 -0.382,-0.078c-0.179,0 -0.395,0.035 -0.662,0.109c-0.048,0.013 -0.095,0.033 -0.143,0.049c-0.181,0.065 -0.363,0.125 -0.549,0.163c-0.205,0.044 -0.398,0.065 -0.587,0.065c-0.068,0 -0.138,-0.003 -0.207,-0.009l-0.052,0.169l-2.179,0.434l-0.092,1.148l-2.228,-1.568Z" style="fill:#fff;fill-rule:nonzero;"/><path d="M21.416,7.951c0.575,0.501 1.065,1.053 1.518,1.563c0.13,0.148 0.258,0.292 0.385,0.431c0.276,-0.345 0.555,-0.692 0.842,-1.028c0.361,-0.421 0.269,-0.954 0.181,-1.235c-0.166,-0.529 -0.552,-0.958 -0.962,-1.066c-0.116,-0.031 -0.235,-0.047 -0.352,-0.047c-0.522,0 -0.996,0.3 -1.3,0.824c-0.106,0.183 -0.21,0.369 -0.312,0.558m-4.173,16.621c0.312,-1.039 0.14,-1.906 -0.284,-3.144c-0.099,-0.289 -0.187,-0.583 -0.273,-0.877c-0.191,-0.646 -0.371,-1.257 -0.673,-1.667c-0.182,-0.247 -0.455,-0.618 -0.608,-0.713c-0.204,-0.128 -0.405,-0.26 -0.607,-0.391c-0.972,-0.633 -1.811,-1.179 -2.709,-1.24c-0.536,-0.037 -0.943,-0.262 -1.212,-0.41c-0.04,-0.022 -0.079,-0.047 -0.12,-0.066c-0.766,-0.166 -1.344,-0.24 -1.866,-0.24c-0.374,0 -0.716,0.038 -1.044,0.118c-0.561,0.135 -1.085,0.177 -1.641,0.221c-0.23,0.018 -0.47,0.037 -0.726,0.065l-2.623,0.286l1.019,-2.433c0.079,-0.189 0.149,-0.37 0.215,-0.542c0.161,-0.418 0.327,-0.851 0.571,-1.271l0.384,-0.663c1.069,-1.858 2.175,-3.78 4.011,-5.182c1.678,-1.279 3.68,-1.947 5.954,-1.988l0.138,-0.001c0.343,0 1.258,0 2.103,0.645c0.912,-2.063 2.999,-4.041 5.448,-4.041c0.992,0 1.967,0.336 2.817,0.971l0.273,0.199c0.755,0.548 1.694,1.23 2.175,2.541c0.434,1.178 0.895,2.567 0.875,4.133c-0.013,1.129 -0.411,2.144 -1.122,2.859c-0.391,0.396 -0.92,0.91 -1.519,1.368c-0.112,0.087 -0.229,0.163 -0.35,0.229c1.002,2.026 0.69,4.058 0.297,5.618c-0.4,1.589 -0.897,2.743 -1.612,3.74c-1.185,1.652 -2.37,2.73 -3.733,3.395c-0.46,0.224 -0.904,0.299 -1.296,0.365c-0.136,0.023 -0.28,0.046 -0.432,0.08l-2.593,0.581l0.763,-2.545Z" style="fill:#fff;fill-rule:nonzero;"/><path d="M12.894,28.278c-0.611,0 -1.224,-0.082 -1.823,-0.243c-2.184,-0.59 -4.221,-1.804 -6.228,-3.711c-0.764,-0.725 -1.29,-1.668 -1.564,-2.801c-0.322,-1.333 -0.297,-2.623 -0.238,-3.598c0.098,-1.639 1.041,-2.63 1.851,-3.31l1.862,-1.56l0.639,2.344l0.121,0.462c0.073,0.278 0.141,0.541 0.222,0.799c0.195,0.606 0.339,0.792 0.425,0.84c0.32,0.178 0.66,0.432 0.946,0.791c0.409,-0.182 0.673,-0.386 0.889,-0.667c0.544,-0.712 0.756,-1.015 0.703,-1.598l-0.191,-2.091l2.057,0.428c0.148,0.031 0.284,0.052 0.409,0.073c0.329,0.054 0.703,0.115 1.093,0.28c1.974,0.83 4.32,2.204 4.959,5.493c0.047,0.236 0.134,0.503 0.226,0.784c0.104,0.322 0.223,0.686 0.305,1.081c0.287,1.375 0.407,3.358 -1.872,4.688c-1.113,0.65 -2.821,1.516 -4.791,1.516" style="fill:#fff;fill-rule:nonzero;"/><path d="M5.356,13.078c-0.961,0 -1.724,-0.553 -2.214,-0.968c-1.814,-1.538 -2.57,-3.617 -2.186,-6.01c0.426,-2.657 3.035,-5.091 5.473,-5.107l0.001,0c1.539,0 2.953,0.438 4.253,1.302c0.06,0.035 0.116,0.071 0.172,0.11c1.513,1.09 1.807,2.372 1.789,3.255c-0.035,1.52 -1.224,2.049 -1.615,2.222c-0.013,0.006 -0.026,0.011 -0.038,0.017l-0.934,1.452l-1.364,-1.361c-0.214,-0.214 -0.406,-0.413 -0.586,-0.6c-0.335,-0.347 -0.598,-0.62 -0.862,-0.838c-0.104,-0.087 -0.259,-0.19 -0.395,-0.19c-0.111,0 -0.24,0.063 -0.328,0.116c-0.495,0.299 -0.491,0.418 -0.486,0.57c0.035,0.912 0.331,1.099 0.457,1.178c0.132,0.083 0.314,0.165 0.507,0.252c0.118,0.053 0.234,0.106 0.348,0.161l0.836,0.406l0.039,0.928c0.02,0.136 0.076,0.569 -0.166,1.037c-0.257,0.503 -1.054,2.068 -2.701,2.068" style="fill:#fff;fill-rule:nonzero;"/><path d="M38.207,17.639l-0.755,0.586l-0.933,-1.367c-1.075,-1.578 -1.348,-3.595 -0.747,-5.531c0.663,-2.137 2.324,-3.859 4.556,-4.726l2.117,-0.821l0,2.272c0,0.228 -0.003,0.454 -0.006,0.679c-0.007,0.449 -0.014,0.873 0.011,1.273c0.052,0.874 0.12,1.744 0.188,2.615c0.052,0.664 0.104,1.33 0.149,1.995c0.164,2.419 -1.138,3.364 -2.261,3.731l-2.778,0.91l0.459,-1.616Z" style="fill:#fff;fill-rule:nonzero;"/><path d="M16.356,37.46c-0.975,0 -1.6,-0.67 -1.974,-1.071c-0.42,-0.45 -0.894,-1.002 -1.234,-1.685c-1.17,-2.356 -1.576,-4.831 -1.207,-7.356l0.143,-0.97l4.962,-1.537l-0.01,2.144c-0.051,2.572 1.107,4.564 2.333,6.672l0.555,0.956l-0.72,0.839c-0.083,0.097 -0.162,0.197 -0.241,0.297c-0.232,0.291 -0.495,0.621 -0.842,0.918c-0.323,0.277 -0.926,0.793 -1.765,0.793" style="fill:#fff;fill-rule:nonzero;"/><path d="M40.483,30.694l0.844,-0.634c1.491,-1.124 0.935,-3.238 0.434,-4.2c-0.561,-1.072 -1.231,-1.89 -2.052,-2.501c-0.825,-0.615 -1.576,-1.494 -2.364,-2.767c-0.894,-1.443 -0.657,-3.103 -0.5,-4.202c0.145,-1.008 0.937,-1.711 1.925,-1.711c0.305,0 0.616,0.067 0.926,0.199l0.812,0.348l0.118,0.875c0.207,1.546 1.054,2.764 2.139,4.197c1.186,1.565 2.404,3.271 3.094,5.387c0.457,1.396 0.555,2.873 0.3,4.514l-0.049,0.337c-0.128,0.915 -0.304,2.169 -1.347,3.109c-0.176,0.158 -0.356,0.312 -0.579,0.501l-2.236,1.922l-1.465,-5.374Z" style="fill:#fff;fill-rule:nonzero;"/><path d="M9.525,43.371c-2.097,0 -2.662,-1.651 -2.902,-2.356c-0.883,-2.58 0.119,-4.935 2.551,-6l0.197,-0.085c0.609,-0.265 1.183,-0.515 1.702,-0.821c0.359,-0.211 0.728,-0.493 1.121,-0.791c0.197,-0.15 0.397,-0.302 0.602,-0.451l1.36,-0.988l3.112,5.064l-2.16,0.455c-0.181,0.038 -0.358,0.07 -0.528,0.099c-0.266,0.047 -0.496,0.087 -0.656,0.146c-0.194,0.072 -0.394,0.139 -0.593,0.206c-0.535,0.18 -1.04,0.35 -1.363,0.598c-0.534,0.411 -0.72,0.908 -0.59,1.566c0.072,0.36 0.124,0.724 0.176,1.089l0.063,0.439l0.241,1.576l-1.583,0.201c-0.281,0.036 -0.527,0.053 -0.75,0.053" style="fill:#fff;fill-rule:nonzero;"/><path d="M23.295,12.121c-0.7,0 -1.376,-0.31 -1.903,-0.872c-0.41,-0.437 -0.791,-0.891 -1.159,-1.33c-0.157,-0.187 -0.315,-0.377 -0.476,-0.563l-0.362,-0.424l-0.011,-0.558c-0.038,-1.935 0.874,-3.317 2.57,-3.89c0.356,-0.121 0.726,-0.182 1.097,-0.182c0.953,0 1.856,0.394 2.54,1.108c0.729,0.761 1.12,1.818 1.074,2.903c-0.029,0.681 -0.328,1.24 -0.525,1.61c-0.163,0.306 -0.354,0.555 -0.508,0.756c-0.055,0.072 -0.111,0.144 -0.163,0.219c-0.541,0.777 -1.334,1.223 -2.174,1.223" style="fill:#fff;fill-rule:nonzero;"/><path d="M9.242,20.424c-0.829,0 -1.695,-0.322 -2.437,-0.905c-1.291,-1.016 -1.855,-2.352 -1.722,-4.085l0.08,-1.058l1.015,-0.31c0.872,-0.268 1.895,-0.552 3.005,-0.552c0.578,0 1.145,0.078 1.686,0.233c1.221,0.349 1.743,1.069 1.965,1.611c0.232,0.563 0.367,1.485 -0.306,2.683c-0.131,0.234 -0.279,0.411 -0.386,0.539c-0.026,0.031 -0.054,0.061 -0.076,0.094c-0.581,1.098 -1.618,1.75 -2.824,1.75" style="fill:#fff;fill-rule:nonzero;"/><path d="M6.806,10.861c-1.046,0 -1.975,-0.611 -2.549,-1.677c-0.768,-1.428 -0.703,-2.725 0.193,-3.856c0.548,-0.689 1.453,-1.1 2.42,-1.1c0.595,0 1.16,0.159 1.633,0.458c1.107,0.705 1.699,1.674 1.761,2.877l0.03,0.591l-0.661,0.824c-0.178,0.221 -0.339,0.419 -0.495,0.625c-0.615,0.812 -1.443,1.258 -2.332,1.258" style="fill:#fff;fill-rule:nonzero;"/><path d="M14.192,15.219c-1.034,0 -1.739,-0.615 -2.095,-1.826l-0.022,-0.075c-0.302,-1.006 -0.266,-1.968 0.107,-2.858c0.285,-0.684 1.037,-1.379 1.918,-1.379l0.121,0l0.141,0.021c0.691,0.104 1.548,0.658 1.835,1.512c0.16,0.48 0.184,0.945 0.202,1.284c0.004,0.085 0.008,0.165 0.015,0.241l0.008,0.077l0,0.404c-0.018,2.127 -1.375,2.515 -1.957,2.583c-0.096,0.011 -0.187,0.016 -0.273,0.016" style="fill:#fff;fill-rule:nonzero;"/><path d="M9.635,14.928c-1.217,0 -2.055,-1.175 -2.133,-2.263c-0.044,-0.609 -0.031,-1.196 -0.014,-1.746c0.035,-1.2 0.917,-2.038 2.146,-2.038l0.13,0.003c1.141,0.048 1.943,0.943 1.951,2.176c0.002,0.291 0.019,0.579 0.039,0.941l0.059,1.197l-0.294,0.398c-0.159,0.274 -0.438,0.737 -0.934,1.054c-0.285,0.182 -0.613,0.278 -0.95,0.278" style="fill:#fff;fill-rule:nonzero;"/><path d="M9.233,18.988c-1.846,0 -3.291,-1.253 -3.291,-2.852c0,-1.6 1.445,-2.853 3.291,-2.853c1.846,0 3.292,1.253 3.292,2.853c0,1.599 -1.446,2.852 -3.292,2.852" style="fill:#fff;fill-rule:nonzero;"/><path d="M8.71,7.643c-0.042,-0.818 -0.489,-1.292 -1.042,-1.644c-0.618,-0.394 -1.586,-0.226 -2,0.296c-0.5,0.629 -0.512,1.277 -0.042,2.151c0.57,1.058 1.565,1.15 2.272,0.216c0.245,-0.322 0.503,-0.632 0.812,-1.019m-2.077,7.908c-0.09,1.187 0.227,2.03 1.135,2.745c0.977,0.769 2.273,0.878 2.948,-0.394c0.122,-0.228 0.329,-0.397 0.456,-0.623c0.474,-0.846 0.477,-1.692 -0.732,-2.038c-1.323,-0.38 -2.556,-0.072 -3.807,0.31m14.306,-7.208c0.532,0.621 1.038,1.257 1.586,1.84c0.543,0.578 1.21,0.483 1.668,-0.176c0.191,-0.274 0.418,-0.52 0.575,-0.817c0.154,-0.29 0.329,-0.622 0.344,-0.944c0.067,-1.577 -1.31,-2.746 -2.66,-2.289c-1,0.337 -1.538,1.091 -1.513,2.386m-10.859,33.431c-0.075,-0.486 -0.131,-0.977 -0.227,-1.457c-0.271,-1.361 0.268,-2.411 1.166,-3.103c0.683,-0.525 1.562,-0.735 2.368,-1.031c0.428,-0.157 0.889,-0.199 1.4,-0.307c-0.401,-0.653 -0.732,-1.19 -1.077,-1.751c-0.635,0.46 -1.214,0.95 -1.847,1.323c-0.662,0.39 -1.368,0.687 -2.065,0.992c-1.502,0.657 -2.402,2.029 -1.704,4.071c0.391,1.145 0.742,1.421 1.986,1.263m32.722,-8.492c0.402,-0.347 0.665,-0.564 0.92,-0.793c0.718,-0.647 0.759,-1.628 0.899,-2.53c0.198,-1.275 0.169,-2.541 -0.239,-3.791c-0.622,-1.9 -1.733,-3.448 -2.857,-4.932c-1.13,-1.491 -2.177,-2.962 -2.441,-4.929c-0.367,-0.157 -0.646,-0.066 -0.699,0.301c-0.155,1.08 -0.295,2.233 0.283,3.165c0.544,0.878 1.194,1.76 1.97,2.338c1.074,0.799 1.875,1.83 2.501,3.028c0.909,1.742 1.258,4.554 -0.877,6.163c0.158,0.581 0.323,1.185 0.54,1.98m-27.32,-6.329c-0.679,0.211 -1.329,0.412 -2.001,0.62c-0.34,2.322 0.073,4.45 1.061,6.438c0.245,0.493 0.611,0.924 0.978,1.316c0.679,0.73 0.897,0.751 1.59,0.158c0.34,-0.292 0.609,-0.691 0.914,-1.047c-1.343,-2.311 -2.601,-4.531 -2.542,-7.485m24.56,-10.086c1.064,-0.348 1.259,-1.172 1.192,-2.148c-0.104,-1.54 -0.244,-3.078 -0.338,-4.619c-0.041,-0.672 -0.007,-1.351 -0.007,-2.048c-3.771,1.463 -4.761,5.472 -3.085,7.929c0.674,-0.522 1.239,-0.653 1.808,-0.417c0.53,0.221 0.649,0.535 0.43,1.303m-30.251,-9.98c0.355,-0.552 1.277,-0.372 1.297,-1.262c0.019,-0.86 -0.504,-1.498 -1.143,-1.958c-0.029,-0.021 -0.062,-0.035 -0.091,-0.055c-1.053,-0.709 -2.187,-1.073 -3.415,-1.065c-1.695,0.012 -3.641,1.884 -3.948,3.798c-0.311,1.938 0.317,3.441 1.657,4.578c1.136,0.963 1.813,0.772 2.528,-0.631c0.027,-0.053 -0.003,-0.144 -0.008,-0.255c-0.326,-0.159 -0.682,-0.293 -1.004,-0.496c-0.832,-0.524 -1.143,-1.41 -1.182,-2.435c-0.038,-1.006 0.56,-1.554 1.238,-1.961c0.856,-0.516 1.731,-0.441 2.516,0.207c0.494,0.408 0.929,0.91 1.555,1.535m-0.84,13.116c-0.019,0.343 -0.052,0.614 -0.045,0.884c0.026,1.089 0.356,2.026 1.259,2.5c0.947,0.497 1.926,0.532 2.845,-0.156c0.627,-0.469 0.977,-1.076 0.753,-1.98c-0.048,-0.191 -0.007,-0.409 -0.007,-0.661c1.152,0.869 1.134,2.332 0.022,3.152c-1.383,1.02 -2.827,1.043 -4.268,0.223c-0.943,-0.537 -1.602,-1.329 -1.28,-2.696c0.043,-0.182 -0.01,-0.39 0.003,-0.584c0.053,-0.806 -0.138,-1.442 -0.829,-1.827c-0.624,-0.348 -0.923,-1.019 -1.149,-1.728c-0.133,-0.417 -0.234,-0.848 -0.363,-1.323c-0.708,0.594 -1.239,1.224 -1.298,2.211c-0.064,1.057 -0.055,2.1 0.197,3.139c0.199,0.822 0.558,1.503 1.124,2.04c1.644,1.562 3.442,2.763 5.562,3.335c1.976,0.534 3.735,-0.127 5.425,-1.114c1.194,-0.697 1.445,-1.531 1.133,-3.028c-0.133,-0.641 -0.41,-1.243 -0.535,-1.884c-0.487,-2.501 -2.15,-3.564 -4.034,-4.357c-0.335,-0.141 -0.71,-0.158 -1.218,-0.264c0.111,1.222 -0.451,1.945 -1.016,2.683c-0.593,0.775 -1.363,1.147 -2.281,1.435m-3.64,-5.321c0.835,-0.091 1.517,-0.094 2.17,-0.252c1.241,-0.3 2.456,-0.139 3.669,0.128c0.361,0.078 0.693,0.406 1.047,0.43c1.537,0.107 2.76,1.065 4.035,1.865c0.402,0.252 0.729,0.696 1.032,1.107c0.633,0.857 0.819,1.95 1.166,2.964c0.444,1.292 0.763,2.563 0.303,4.094c0.548,-0.122 1,-0.137 1.387,-0.326c1.283,-0.625 2.279,-1.688 3.15,-2.902c0.677,-0.943 1.072,-2.033 1.369,-3.214c0.414,-1.647 0.538,-3.24 -0.28,-4.735c-0.445,-0.811 -0.973,-1.612 -1.603,-2.233c-1.075,-1.058 -1.959,-2.383 -3.258,-3.141c-0.038,-0.022 -0.035,-0.138 -0.039,-0.155c0.321,-0.592 0.609,-1.157 0.925,-1.701c0.742,-1.277 2.098,-1.84 3.394,-1.499c1.859,0.491 2.967,3.176 1.566,4.816c-0.489,0.573 -0.953,1.175 -1.419,1.753c0.352,0.336 0.823,0.58 1.329,0.194c0.479,-0.367 0.928,-0.793 1.361,-1.229c0.461,-0.465 0.663,-1.12 0.671,-1.784c0.016,-1.258 -0.36,-2.434 -0.78,-3.577c-0.365,-0.995 -1.169,-1.47 -1.92,-2.03c-2.416,-1.806 -5.156,0.412 -6.024,2.73c-0.133,0.356 -0.141,0.872 -0.524,0.894c-0.49,0.028 -1.178,0.051 -1.44,-0.277c-0.473,-0.59 -1.075,-0.621 -1.559,-0.612c-1.792,0.032 -3.503,0.499 -5.037,1.669c-1.791,1.368 -2.846,3.424 -3.996,5.393c-0.27,0.463 -0.433,1.006 -0.695,1.63m23.019,25.538c0.09,0.004 0.18,0.007 0.27,0.011c0.034,0.402 0.056,0.805 0.103,1.205c0.072,0.613 0.3,0.797 0.841,0.683c0.201,-0.043 0.395,-0.133 0.594,-0.189c0.71,-0.198 1.425,-0.266 2.119,0.058c0.928,0.434 1.881,0.356 2.834,0.21c0.676,-0.103 1.343,-0.34 2.018,-0.371c1.1,-0.049 1.974,-0.673 2.784,-1.372c0.933,-0.804 1.614,-1.84 1.904,-3.218c0.261,-1.239 0.385,-2.42 0.057,-3.667c-0.371,-1.416 -0.445,-2.988 -1.032,-4.263c-0.955,-2.076 -2.642,-3.389 -4.656,-3.854c-2.44,-0.564 -4.88,-0.354 -7.317,0.364c-2.32,0.683 -4.544,0.383 -6.415,-1.665c-0.17,0.101 -0.379,0.168 -0.522,0.319c-0.733,0.773 -1.668,1.012 -2.58,1.323c-0.436,0.148 -0.767,0.008 -0.927,-0.453c-0.719,0.466 -1.37,0.89 -2.032,1.319c-0.394,2.551 0.531,4.588 1.871,6.527c0.156,-0.257 0.264,-0.433 0.371,-0.611c0.153,0.687 0.223,1.361 0.069,1.96c-0.369,1.435 -1.562,2.423 -3.421,2.269c-1.267,-0.104 -2.441,0.241 -3.546,0.88c-0.927,0.536 -1.26,1.497 -1.046,2.673c0.474,-0.223 0.365,-1.47 1.216,-1.031c-0.188,0.725 -0.432,1.366 -0.51,2.034c-0.129,1.092 0.231,1.445 1.253,1.44c0.192,-1.037 0.373,-2.064 0.574,-3.086c0.059,-0.299 0.206,-0.503 0.53,-0.242c-0.074,1.027 -0.608,2.083 0.016,3.123c0.147,-0.029 0.247,-0.037 0.342,-0.07c0.13,-0.045 0.274,-0.079 0.379,-0.169c1.036,-0.884 2.13,-1.266 3.437,-0.817c0.573,0.198 1.225,0.076 1.839,0.135c1.094,0.105 2.079,-0.111 2.957,-0.953c0.737,-0.705 1.236,-1.557 1.535,-2.573c0.121,-0.414 0.251,-0.777 0.694,-0.992c0.037,0.503 0.07,0.932 0.099,1.335c0.734,-0.484 1.374,-1.058 2.1,-1.344c0.751,-0.294 1.586,-0.308 2.436,-0.454c-0.037,-0.251 -0.014,-0.592 -0.139,-0.834c-0.378,-0.738 -0.351,-1.559 -0.444,-2.353c-0.076,-0.633 0.015,-1.251 0.391,-1.76c0.306,-0.415 0.645,-0.8 0.963,-1.205c0.716,-0.915 1.667,-0.971 2.637,-0.928c0.131,0.006 0.255,0.195 0.562,0.448c-0.467,0.111 -0.746,0.201 -1.029,0.241c-1.791,0.252 -3.05,2.206 -2.636,4.169c0.175,0.827 0.435,1.634 0.702,2.429c0.106,0.313 0.224,0.568 -0.008,0.852c-0.224,0.275 -0.458,0.189 -0.741,0.102c-0.459,-0.139 -0.973,-0.336 -1.409,-0.226c-1.545,0.39 -2.888,1.169 -3.594,2.943c-0.439,1.102 -0.382,1.352 0.59,2.036c0.208,-2.615 0.208,-2.615 1.186,-2.547c-0.358,0.903 -0.713,1.817 0.147,2.671c0.366,-0.073 0.75,-0.15 1.057,-0.211c0.255,-0.829 0.058,-1.664 0.527,-2.301m-15.058,-7.023c-0.697,-1.808 -0.681,-3.716 -0.658,-5.567c-2.886,-0.593 -5.374,-1.781 -7.441,-4.092c-0.977,-1.093 -1.23,-2.375 -1.341,-3.783c-0.046,-0.575 -0.013,-1.157 -0.015,-1.737c-0.001,-0.194 -0.044,-0.406 0.008,-0.58c0.489,-1.638 0.994,-3.271 1.522,-4.996c-0.341,-0.179 -0.79,-0.441 -1.255,-0.655c-2.173,-0.996 -3.373,-5.156 -1.561,-7.452c0.412,-0.523 0.781,-1.112 1.259,-1.541c0.819,-0.737 1.734,-1.177 2.849,-1.027c0.958,0.129 1.926,0.199 2.797,0.68c1.186,0.658 2.281,1.468 2.628,3.076c0.749,-0.071 1.465,-0.058 2.146,-0.226c0.811,-0.199 1.589,-0.028 2.334,0.194c0.663,0.198 1.049,0.125 1.479,-0.527c0.507,-0.767 1.125,-1.46 1.775,-2.076c1.274,-1.204 2.708,-1.589 4.308,-0.867c1.334,0.602 2.628,1.334 3.211,2.902c0.446,1.201 0.711,2.522 0.866,3.819c0.069,0.581 -0.241,1.297 -0.536,1.84c-0.508,0.937 -1.216,1.685 -2.132,2.128c-0.184,0.089 -0.352,0.219 -0.518,0.323c1.584,4.027 0.425,7.375 -1.891,10.473c0.313,0.739 0.852,1.127 1.481,1.359c1.429,0.526 2.859,0.608 4.325,0.099c1.613,-0.561 3.287,-0.662 4.966,-0.604c0.548,0.019 1.102,0.008 1.643,0.088c1.738,0.256 3.235,1.064 4.567,2.402c0.76,0.765 1.411,1.55 1.795,2.62c0.072,0.199 0.223,0.363 0.369,0.591c0.416,-0.462 0.604,-0.927 0.624,-1.502c0.082,-2.355 -0.878,-4.075 -2.439,-5.507c-0.87,-0.799 -1.716,-1.683 -2.387,-2.691c-0.376,-0.565 -0.477,-1.455 -0.509,-2.209c-0.029,-0.709 -0.245,-1.274 -0.537,-1.849c-1.4,-2.758 -0.654,-6.18 1.752,-7.84c0.935,-0.644 1.93,-1.172 2.903,-1.742c0.075,-0.044 0.186,-0.006 0.359,-0.006c-0.023,0.219 -0.015,0.408 -0.066,0.574c-0.486,1.604 -0.393,3.217 -0.165,4.86c0.144,1.037 0.159,2.102 0.178,3.155c0.016,0.819 -0.215,1.533 -0.903,1.968c-0.264,0.167 -0.493,0.408 -0.788,0.656c0.431,0.853 0.902,1.635 1.51,2.325c1.243,1.413 2.257,3.028 3.022,4.832c1.004,2.363 0.869,4.756 0.074,7.148c-0.349,1.049 -1.14,1.616 -1.851,2.149c-0.186,1.046 -0.401,2.024 -0.527,3.019c-0.235,1.836 -1.341,2.918 -2.528,3.938c-0.833,0.716 -1.746,1.177 -2.82,1.253c-0.779,0.056 -1.549,0.284 -2.321,0.444c-0.924,0.19 -1.829,0.132 -2.718,-0.226c-0.697,-0.28 -1.386,-0.28 -2.109,-0.053c-1.087,0.34 -2.191,0.618 -3.298,0.866c-1.613,0.361 -2.904,-0.77 -3.047,-2.666c-1.37,1.502 -3.034,1.654 -4.78,1.433c-0.678,-0.086 -1.355,-0.176 -2.032,-0.278c-0.622,-0.094 -1.13,0.227 -1.579,0.63c-0.503,0.452 -1.069,0.668 -1.672,0.834c-0.912,0.25 -1.747,0.157 -2.529,-0.512c-0.249,-0.214 -0.615,-0.264 -0.935,-0.351c-0.162,-0.045 -0.341,0.004 -0.512,-0.007c-1.305,-0.088 -2.066,-0.695 -2.352,-2.326c-0.404,-2.305 0.337,-4.058 2.371,-4.806c2,-0.735 2.005,-0.738 3.631,-2.377" style="fill:#231f20;fill-rule:nonzero;"/><path d="M28.331,40.22c-0.47,0.636 -0.272,1.472 -0.527,2.3c-0.307,0.061 -0.692,0.139 -1.057,0.212c-0.86,-0.854 -0.506,-1.769 -0.148,-2.671c-0.978,-0.068 -0.978,-0.068 -1.186,2.546c-0.972,-0.683 -1.029,-0.934 -0.59,-2.035c0.707,-1.774 2.049,-2.553 3.594,-2.943c0.437,-0.11 0.95,0.086 1.408,0.226c0.285,0.087 0.518,0.173 0.742,-0.102c0.232,-0.284 0.114,-0.54 0.009,-0.852c-0.268,-0.795 -0.528,-1.603 -0.703,-2.43c-0.414,-1.963 0.845,-3.916 2.636,-4.168c0.284,-0.04 0.563,-0.13 1.029,-0.242c-0.307,-0.252 -0.431,-0.441 -0.562,-0.447c-0.969,-0.044 -1.921,0.013 -2.637,0.927c-0.318,0.406 -0.657,0.791 -0.963,1.206c-0.375,0.508 -0.466,1.126 -0.391,1.759c0.094,0.795 0.066,1.615 0.445,2.353c0.125,0.243 0.101,0.584 0.139,0.834c-0.85,0.147 -1.686,0.161 -2.437,0.455c-0.726,0.286 -1.365,0.859 -2.099,1.344c-0.03,-0.404 -0.062,-0.832 -0.099,-1.335c-0.444,0.215 -0.574,0.578 -0.695,0.992c-0.299,1.015 -0.798,1.867 -1.535,2.572c-0.877,0.843 -1.862,1.059 -2.956,0.954c-0.614,-0.059 -1.267,0.063 -1.839,-0.135c-1.309,-0.45 -2.402,-0.068 -3.437,0.817c-0.105,0.09 -0.25,0.124 -0.38,0.169c-0.094,0.033 -0.195,0.041 -0.342,0.07c-0.623,-1.04 -0.09,-2.096 -0.016,-3.123c-0.323,-0.261 -0.471,-0.057 -0.53,0.242c-0.201,1.022 -0.382,2.049 -0.574,3.086c-1.022,0.005 -1.382,-0.348 -1.253,-1.44c0.078,-0.668 0.322,-1.309 0.51,-2.034c-0.851,-0.439 -0.742,0.808 -1.215,1.031c-0.215,-1.176 0.118,-2.137 1.045,-2.673c1.105,-0.639 2.279,-0.985 3.547,-0.88c1.859,0.154 3.052,-0.834 3.421,-2.269c0.153,-0.599 0.083,-1.273 -0.07,-1.96c-0.107,0.177 -0.214,0.354 -0.371,0.611c-1.34,-1.939 -2.264,-3.976 -1.871,-6.527c0.662,-0.43 1.313,-0.853 2.033,-1.319c0.16,0.461 0.491,0.601 0.926,0.452c0.912,-0.31 1.847,-0.549 2.58,-1.322c0.144,-0.151 0.353,-0.219 0.522,-0.319c1.87,2.047 4.096,2.348 6.415,1.665c2.437,-0.718 4.877,-0.928 7.317,-0.364c2.014,0.465 3.701,1.778 4.656,3.854c0.587,1.275 0.661,2.847 1.033,4.263c0.326,1.247 0.204,2.427 -0.058,3.667c-0.29,1.377 -0.971,2.414 -1.904,3.218c-0.81,0.698 -1.684,1.323 -2.783,1.372c-0.676,0.031 -1.342,0.268 -2.018,0.371c-0.954,0.145 -1.907,0.224 -2.834,-0.21c-0.695,-0.324 -1.409,-0.256 -2.12,-0.058c-0.199,0.055 -0.392,0.146 -0.594,0.189c-0.541,0.114 -0.769,-0.071 -0.841,-0.683c-0.047,-0.4 -0.07,-0.803 -0.102,-1.205c-0.09,-0.004 -0.18,-0.008 -0.27,-0.011" style="fill:#e5c07e;fill-rule:nonzero;"/><path d="M10.233,12.719c-0.034,-0.723 -0.07,-1.185 -0.073,-1.647c-0.002,-0.372 -0.148,-0.622 -0.461,-0.634c-0.303,-0.013 -0.643,0.051 -0.657,0.529c-0.016,0.528 -0.026,1.061 0.011,1.587c0.035,0.483 0.442,0.948 0.694,0.786c0.254,-0.163 0.413,-0.521 0.486,-0.621m4.633,-0.425c-0.035,-0.348 -0.016,-0.799 -0.145,-1.186c-0.074,-0.222 -0.378,-0.436 -0.599,-0.47c-0.155,-0.023 -0.423,0.223 -0.506,0.422c-0.242,0.579 -0.24,1.186 -0.053,1.811c0.13,0.431 0.216,0.846 0.721,0.786c0.412,-0.048 0.576,-0.354 0.582,-1.05c0.001,-0.079 0,-0.157 0,-0.313m-9.555,2.388c0.262,-0.624 0.425,-1.167 0.695,-1.63c1.15,-1.969 2.204,-4.025 3.996,-5.392c1.533,-1.17 3.245,-1.638 5.037,-1.67c0.483,-0.008 1.086,0.023 1.558,0.613c0.263,0.328 0.951,0.304 1.441,0.276c0.383,-0.021 0.391,-0.538 0.524,-0.893c0.868,-2.319 3.608,-4.537 6.024,-2.731c0.75,0.561 1.554,1.036 1.92,2.03c0.42,1.144 0.795,2.32 0.78,3.578c-0.009,0.664 -0.21,1.318 -0.671,1.783c-0.434,0.437 -0.882,0.862 -1.362,1.229c-0.505,0.387 -0.976,0.143 -1.329,-0.194c0.467,-0.577 0.93,-1.179 1.42,-1.752c1.401,-1.64 0.292,-4.326 -1.566,-4.817c-1.296,-0.341 -2.653,0.223 -3.395,1.5c-0.316,0.543 -0.604,1.109 -0.924,1.7c0.004,0.018 0.001,0.134 0.039,0.156c1.298,0.757 2.182,2.082 3.257,3.141c0.631,0.62 1.158,1.421 1.603,2.233c0.819,1.494 0.695,3.087 0.28,4.735c-0.297,1.181 -0.692,2.271 -1.368,3.214c-0.871,1.214 -1.867,2.277 -3.15,2.902c-0.387,0.188 -0.839,0.204 -1.387,0.326c0.46,-1.532 0.141,-2.802 -0.303,-4.095c-0.348,-1.014 -0.533,-2.107 -1.166,-2.963c-0.304,-0.412 -0.63,-0.855 -1.032,-1.108c-1.275,-0.8 -2.499,-1.758 -4.035,-1.864c-0.354,-0.025 -0.686,-0.352 -1.048,-0.431c-1.212,-0.266 -2.428,-0.428 -3.668,-0.128c-0.653,0.159 -1.336,0.161 -2.17,0.252" style="fill:#e5c07e;fill-rule:nonzero;"/><path d="M8.951,20.004c0.918,-0.289 1.689,-0.661 2.281,-1.435c0.565,-0.739 1.128,-1.462 1.017,-2.683c0.508,0.105 0.882,0.123 1.217,0.264c1.885,0.792 3.548,1.856 4.035,4.356c0.124,0.642 0.401,1.244 0.535,1.884c0.312,1.497 0.06,2.332 -1.134,3.029c-1.69,0.987 -3.449,1.648 -5.425,1.114c-2.12,-0.573 -3.918,-1.773 -5.562,-3.336c-0.565,-0.537 -0.925,-1.217 -1.124,-2.039c-0.251,-1.039 -0.26,-2.083 -0.197,-3.14c0.06,-0.987 0.59,-1.617 1.298,-2.21c0.129,0.475 0.231,0.905 0.364,1.323c0.225,0.708 0.524,1.379 1.148,1.728c0.69,0.384 0.882,1.02 0.829,1.826c-0.013,0.194 0.04,0.403 -0.003,0.585c-0.322,1.367 0.337,2.158 1.281,2.695c1.44,0.821 2.884,0.797 4.268,-0.223c1.111,-0.819 1.129,-2.283 -0.023,-3.152c0,0.253 -0.041,0.471 0.007,0.661c0.224,0.904 -0.126,1.511 -0.753,1.981c-0.919,0.687 -1.897,0.652 -2.844,0.156c-0.904,-0.475 -1.234,-1.412 -1.26,-2.501c-0.006,-0.269 0.026,-0.54 0.045,-0.883" style="fill:#ffe4c6;fill-rule:nonzero;"/><path d="M9.791,6.888c-0.627,-0.625 -1.061,-1.128 -1.555,-1.535c-0.785,-0.649 -1.66,-0.723 -2.516,-0.208c-0.678,0.408 -1.276,0.956 -1.238,1.961c0.039,1.025 0.35,1.911 1.182,2.436c0.322,0.203 0.678,0.336 1.004,0.496c0.005,0.111 0.035,0.202 0.008,0.254c-0.715,1.404 -1.392,1.595 -2.528,0.632c-1.34,-1.137 -1.968,-2.641 -1.657,-4.578c0.307,-1.915 2.254,-3.787 3.948,-3.798c1.228,-0.009 2.362,0.355 3.415,1.065c0.03,0.019 0.063,0.033 0.091,0.054c0.639,0.461 1.161,1.098 1.143,1.958c-0.02,0.891 -0.942,0.71 -1.297,1.263" style="fill:#e5c07e;fill-rule:nonzero;"/><path d="M40.042,16.867c0.219,-0.768 0.1,-1.082 -0.431,-1.302c-0.568,-0.237 -1.133,-0.107 -1.807,0.417c-1.676,-2.458 -0.686,-6.466 3.085,-7.931c0,0.698 -0.034,1.376 0.007,2.049c0.095,1.542 0.234,3.079 0.338,4.62c0.067,0.975 -0.128,1.799 -1.192,2.147" style="fill:#d78741;fill-rule:nonzero;"/><path d="M15.482,26.954c-0.059,2.954 1.199,5.174 2.542,7.485c-0.305,0.355 -0.574,0.755 -0.914,1.045c-0.693,0.594 -0.911,0.572 -1.59,-0.157c-0.367,-0.391 -0.733,-0.823 -0.978,-1.315c-0.988,-1.988 -1.401,-4.116 -1.061,-6.439c0.672,-0.208 1.322,-0.408 2.001,-0.619" style="fill:#f5dcaa;fill-rule:nonzero;"/><path d="M42.802,33.282c-0.217,-0.795 -0.382,-1.399 -0.54,-1.98c2.136,-1.608 1.787,-4.421 0.877,-6.162c-0.626,-1.198 -1.427,-2.229 -2.5,-3.028c-0.777,-0.579 -1.427,-1.46 -1.971,-2.338c-0.578,-0.933 -0.437,-2.085 -0.282,-3.165c0.052,-0.367 0.331,-0.459 0.698,-0.301c0.264,1.967 1.311,3.437 2.442,4.929c1.124,1.484 2.234,3.031 2.856,4.932c0.408,1.249 0.438,2.516 0.24,3.791c-0.14,0.902 -0.182,1.882 -0.9,2.529c-0.254,0.229 -0.517,0.447 -0.92,0.793" style="fill:#e5c07e;fill-rule:nonzero;"/><path d="M10.079,41.774c-1.243,0.158 -1.594,-0.118 -1.986,-1.263c-0.698,-2.041 0.203,-3.414 1.704,-4.071c0.698,-0.306 1.404,-0.602 2.066,-0.992c0.632,-0.373 1.212,-0.862 1.847,-1.323c0.345,0.561 0.675,1.098 1.077,1.751c-0.512,0.108 -0.972,0.15 -1.4,0.307c-0.807,0.296 -1.685,0.506 -2.368,1.032c-0.898,0.69 -1.438,1.741 -1.166,3.102c0.096,0.48 0.152,0.971 0.226,1.457" style="fill:#e5c07e;fill-rule:nonzero;"/><path d="M20.939,8.342c-0.025,-1.295 0.514,-2.048 1.514,-2.386c1.349,-0.456 2.726,0.713 2.659,2.289c-0.015,0.323 -0.189,0.655 -0.344,0.945c-0.157,0.296 -0.384,0.543 -0.575,0.817c-0.459,0.659 -1.125,0.754 -1.668,0.176c-0.548,-0.584 -1.054,-1.22 -1.586,-1.841" style="fill:#f9b5a8;fill-rule:nonzero;"/><path d="M6.633,15.551c1.251,-0.383 2.484,-0.689 3.807,-0.31c1.209,0.346 1.206,1.193 0.732,2.038c-0.127,0.227 -0.335,0.395 -0.456,0.624c-0.675,1.271 -1.971,1.162 -2.949,0.393c-0.908,-0.715 -1.225,-1.559 -1.134,-2.745" style="fill:#5f6062;fill-rule:nonzero;"/><path d="M8.71,7.643c-0.309,0.387 -0.567,0.697 -0.812,1.019c-0.707,0.934 -1.702,0.842 -2.272,-0.216c-0.47,-0.874 -0.458,-1.522 0.042,-2.151c0.414,-0.522 1.382,-0.69 2,-0.296c0.553,0.352 1,0.826 1.042,1.644" style="fill:#f9b5a8;fill-rule:nonzero;"/><path d="M14.866,12.293c0,0.157 0.001,0.235 0,0.313c-0.007,0.697 -0.17,1.002 -0.582,1.05c-0.505,0.06 -0.591,-0.355 -0.72,-0.786c-0.188,-0.625 -0.19,-1.232 0.052,-1.811c0.083,-0.199 0.351,-0.445 0.506,-0.422c0.221,0.035 0.525,0.249 0.599,0.47c0.129,0.387 0.11,0.838 0.145,1.186" style="fill:#231f20;fill-rule:nonzero;"/><path d="M10.233,12.719c-0.073,0.1 -0.232,0.458 -0.486,0.621c-0.252,0.162 -0.659,-0.303 -0.694,-0.786c-0.037,-0.526 -0.027,-1.059 -0.011,-1.587c0.014,-0.478 0.354,-0.542 0.657,-0.529c0.313,0.012 0.459,0.262 0.461,0.634c0.003,0.462 0.039,0.924 0.073,1.647" style="fill:#231f20;fill-rule:nonzero;"/><path d="M10.97,16.135c0,0.717 -0.777,1.298 -1.737,1.298c-0.958,0 -1.736,-0.581 -1.736,-1.298c0,-0.717 0.778,-1.298 1.736,-1.298c0.96,0 1.737,0.581 1.737,1.298" style="fill:#909590;fill-rule:nonzero;"/></g></svg>