<?xml version="1.0" encoding="UTF-8" standalone="no"?><!DOCTYPE svg PUBLIC "-//W3C//DTD SVG 1.1//EN" "http://www.w3.org/Graphics/SVG/1.1/DTD/svg11.dtd"><svg width="100%" height="100%" viewBox="0 0 44 44" version="1.1" xmlns="http://www.w3.org/2000/svg" xmlns:xlink="http://www.w3.org/1999/xlink" xml:space="preserve" xmlns:serif="http://www.serif.com/" style="fill-rule:evenodd;clip-rule:evenodd;stroke-linejoin:round;stroke-miterlimit:2;"><g><path d="M30.367,21.255c0.52,0.101 1.022,0.23 1.509,0.39c-0.504,-0.431 -0.972,-0.893 -1.404,-1.385c-0.012,0.325 -0.047,0.656 -0.105,0.995m-9.463,2.825c0.139,0.138 0.287,0.24 0.386,0.285c1.466,-0.262 2.242,-0.665 2.837,-1.462c0.642,-0.863 1.031,-1.727 1.212,-2.699c-0.08,-0.612 -0.279,-1.209 -0.612,-1.84c-0.405,0.152 -0.737,0.336 -1.03,0.596c-1.333,1.19 -2.227,2.825 -2.793,5.12m-10.93,7.753c0.784,0.151 1.525,0.292 2.236,0.356c0.129,0.011 0.258,0.023 0.385,0.036l2.449,-2.422l0.187,-0.194c0.173,-0.182 0.389,-0.41 0.693,-0.621c0.088,-0.062 0.372,-0.261 0.597,-1.046c0.054,-0.185 0.122,-0.421 0.147,-0.561c-0.195,-0.39 -0.446,-0.785 -0.689,-1.159c-0.412,-0.636 -0.545,-1.236 -0.538,-1.751c-0.137,0.536 -0.389,1.043 -0.756,1.504c-0.785,0.989 -1.929,1.556 -3.139,1.556c-1.127,0.001 -2.18,-0.49 -2.941,-1.32c-0.333,0.263 -0.667,0.547 -1.005,0.838c-0.362,0.311 -0.69,0.772 -1.095,1.539c-0.261,0.495 -0.121,1.348 0.268,1.628c0.318,0.229 0.6,0.398 0.842,0.504c0.084,0.036 0.173,0.068 0.261,0.102c0.442,0.166 1.067,0.403 1.667,0.928l0.431,0.083Zm21.414,2.746c0.993,0.026 1.977,0.341 2.878,0.917l0.039,-0.129c0.105,-0.34 0.214,-0.73 0.232,-1.024c0.024,-0.424 0.017,-0.85 0.014,-1.275c-0.006,-0.545 -0.01,-1.09 0.023,-1.633c0.05,-0.789 -0.199,-1.517 -0.784,-2.291c-1.379,-1.829 -3.172,-2.768 -5.642,-2.952c0,0 -0.113,-0.005 -0.115,-0.005c-0.07,0 -0.142,0.046 -0.275,0.214c-1.896,2.398 -4.462,2.91 -6.356,3.038c-0.34,1.166 -0.869,2.133 -1.598,2.927l0.86,-0.057l-0.161,1.24c0.162,-0.033 0.328,-0.051 0.497,-0.051c0.548,0 1.079,0.175 1.536,0.505c0.288,0.207 0.56,0.476 0.802,0.797l0.131,0.019c0.386,0.055 0.825,0.119 1.293,0.243c0.407,0.109 0.838,0.162 1.321,0.162c0.879,0 1.802,-0.171 2.831,-0.378c0.706,-0.141 1.467,-0.27 2.267,-0.27l0.207,0.003Z" style="fill:#fff;fill-rule:nonzero;"/><path d="M36.032,43.828c-1.104,0 -2.594,-0.559 -3.261,-1.786c-0.408,-0.753 -0.705,-1.454 -0.907,-2.144c-0.06,-0.202 -0.105,-0.408 -0.149,-0.615c-0.002,-0.012 -0.004,-0.023 -0.007,-0.034c-0.158,-0.086 -0.311,-0.133 -0.444,-0.137l-0.011,0c-0.464,0 -0.906,0.073 -1.45,0.181c-1.22,0.245 -2.425,0.466 -3.72,0.466c-0.884,0 -1.699,-0.103 -2.492,-0.316c-0.249,-0.066 -0.508,-0.097 -0.765,-0.135l-0.325,-0.047c-0.113,-0.017 -0.222,-0.038 -0.33,-0.064c-0.017,0.044 -0.197,0.52 -0.197,0.52c-0.18,0.481 -0.368,0.98 -0.611,1.492c-0.537,1.136 -1.709,1.871 -2.983,1.871c-0.275,0 -0.547,-0.035 -0.809,-0.105c-0.862,-0.227 -1.97,-0.886 -2.349,-2.734c-0.208,-1.009 -0.253,-2.016 -0.137,-3.014c-1.014,-0.245 -2.097,-0.417 -3.277,-0.521c-0.939,-0.083 -1.829,-0.254 -2.689,-0.419l-0.573,-0.109c-0.351,-0.065 -1.283,-0.237 -1.981,-0.999c-0.094,-0.048 -0.194,-0.078 -0.292,-0.115c-0.155,-0.058 -0.31,-0.118 -0.464,-0.184c-0.549,-0.24 -1.1,-0.561 -1.688,-0.985c-2.215,-1.594 -2.945,-4.926 -1.626,-7.425c0.456,-0.864 1.112,-1.968 2.146,-2.859c0.575,-0.494 1.191,-1.015 1.852,-1.484c0.467,-0.332 0.927,-0.602 1.372,-0.862l0.507,-0.302l2.567,-1.562l0.289,1.049l0.32,-0.233c0.801,-0.586 1.939,-0.724 2.783,-0.733c0.931,-1.747 2.306,-3.717 4.648,-4.883c0.182,-0.089 0.361,-0.185 0.538,-0.28c0.744,-0.396 1.587,-0.846 2.638,-1.041c0.429,-0.08 0.819,-0.102 1.196,-0.124c0.147,-0.009 0.302,-0.017 0.469,-0.03l6.236,-0.509l-4.462,4.386c-0.216,0.24 -0.648,0.721 -1.416,0.882c-0.378,0.078 -0.894,0.627 -1.392,1.158c-1.067,1.137 -1.806,2.617 -2.453,4.859c-0.045,0.158 -0.097,0.316 -0.155,0.473c0.065,0.106 0.129,0.215 0.195,0.326c0.138,0.046 0.274,0.096 0.408,0.147c0.069,0.025 0.136,0.052 0.202,0.075c1.591,-0.09 2.542,-0.481 3.218,-1.335c1.03,-1.303 2.286,-1.937 3.839,-1.937c0.144,0 0.294,0.006 0.447,0.017c3.76,0.282 6.763,1.878 8.924,4.744c1.239,1.642 1.808,3.427 1.69,5.305c-0.027,0.431 -0.02,0.868 -0.015,1.303c0.005,0.529 0.009,1.057 -0.022,1.583c-0.044,0.777 -0.24,1.497 -0.425,2.101c-0.233,0.752 -0.144,1.046 -0.043,1.263c0.236,0.506 0.332,0.999 0.403,1.359l0.02,0.108c0.298,1.491 -0.21,3.447 -1.736,4.136c-0.378,0.171 -0.799,0.258 -1.251,0.258" style="fill:#fff;fill-rule:nonzero;"/><path d="M21.269,28.914c-2.075,0 -3.862,-1.59 -4.645,-3.066c-0.48,-0.908 -0.346,-1.867 -0.266,-2.237c0.761,-3.492 2.174,-6.12 4.321,-8.036c1.28,-1.141 2.687,-1.599 4.016,-1.925l0.265,-0.064l0.358,-0.01c0.687,0 1.37,0.262 1.872,0.718l0.089,0.08c0.331,0.298 0.785,0.707 1.141,1.305c0.867,1.455 1.346,2.898 1.467,4.413l0.021,0.255l-0.037,0.252c-0.266,1.828 -0.956,3.468 -2.108,5.014c-1.709,2.292 -4.024,2.939 -5.85,3.247c-0.211,0.035 -0.427,0.054 -0.644,0.054" style="fill:#fff;fill-rule:nonzero;"/><path d="M13.583,23.471c-1.68,-0.021 -3.106,-1.271 -3.469,-3.037c-0.701,-3.407 1.49,-6.405 4.014,-7.334c0.815,-0.3 1.673,-0.452 2.55,-0.452c0.863,0 1.769,0.144 2.77,0.442c1.307,0.392 1.996,1.223 2.345,1.851l1.021,1.843c0,0 -2.678,1.757 -2.95,1.932c-0.472,0.303 -0.905,0.804 -1.323,1.532c-0.175,0.306 -0.354,0.606 -0.532,0.905c-0.149,0.249 -0.297,0.497 -0.443,0.748c-0.785,1.341 -1.917,1.54 -2.522,1.54l-0.015,0c-0.247,0 -0.425,0.007 -0.605,0.013c-0.238,0.009 -0.477,0.018 -0.715,0.018l-0.126,-0.001Z" style="fill:#fff;fill-rule:nonzero;"/><path d="M37.91,34.886c-0.459,0 -0.915,-0.09 -1.354,-0.267l-1.269,-0.51l-0.14,-1.361c-0.081,-0.786 -0.327,-3.175 2.695,-3.617c0.095,-0.014 0.273,-0.114 0.6,-0.477c0.006,-0.636 -0.066,-1.317 -0.218,-2.071c-0.205,-1.023 -0.844,-1.631 -1.957,-2.618c-0.205,-0.181 -0.431,-0.338 -0.655,-0.496c-0.366,-0.259 -0.736,-0.515 -1.105,-0.771c-0.831,-0.575 -1.691,-1.169 -2.532,-1.811c-0.686,-0.524 -1.185,-1.157 -1.677,-1.814c-1.076,-1.438 -1.718,-3.057 -2.202,-4.452c-0.101,-0.285 -0.16,-0.603 -0.17,-0.936c-0.007,-0.138 0,-0.31 0.035,-0.568l0.895,-8.129l3.652,7.78c0.134,0.284 0.258,0.545 0.378,0.809c0.562,1.25 1.419,2.401 2.696,3.622c0.101,0.098 0.283,0.222 0.474,0.352c0.428,0.292 0.845,0.555 1.261,0.816c1.017,0.642 2.068,1.305 3.056,2.188c2.36,2.11 3.402,4.645 3.099,7.536l-0.033,0.281c0.114,1.538 -0.416,2.954 -1.573,4.209c-0.376,0.406 -0.78,0.832 -1.256,1.22c-0.57,0.466 -1.471,1.085 -2.7,1.085" style="fill:#fff;fill-rule:nonzero;"/><path d="M28.087,14.043c-0.161,-0.24 -0.467,-0.718 -0.5,-1.409l-0.048,-0.996c-0.054,-1.048 -0.109,-2.13 -0.063,-3.243c0.069,-1.733 1.181,-2.787 1.846,-3.416c0.405,-0.387 0.752,-0.582 0.983,-0.712c0.688,-0.388 1.369,-0.764 2.126,-1.183l5.385,-2.982l-1.697,5.409l-0.175,0.537c-0.087,0.264 -0.17,0.5 -0.227,0.745c-0.392,1.681 -1.502,2.893 -3.128,3.416c-0.021,0.053 -0.05,0.147 -0.074,0.303c-0.076,0.498 -0.11,1.056 -0.144,1.647c-0.018,0.302 -0.036,0.609 -0.06,0.919l-0.583,7.621l-3.641,-6.656Z" style="fill:#fff;fill-rule:nonzero;"/><path d="M15.476,42.678c-0.133,0 -0.267,-0.008 -0.4,-0.025c-1.508,-0.191 -2.56,-1.327 -2.615,-2.825l-0.016,-0.309c-0.025,-0.388 -0.056,-0.869 0.015,-1.403c0.087,-0.661 0.26,-1.261 0.413,-1.792l0.028,-0.097c0.703,-2.457 2.387,-2.723 3.077,-2.723c0.87,0 1.704,0.37 2.551,1.131l0.911,0.818l-0.248,1.613c-0.044,0.276 -0.089,0.561 -0.128,0.848l-0.036,0.27c-0.05,0.358 -0.102,0.718 -0.125,1.079c-0.125,1.917 -1.63,3.415 -3.427,3.415" style="fill:#fff;fill-rule:nonzero;"/><path d="M30.148,43.089c-1.021,0 -1.921,-0.457 -2.469,-1.256c-0.569,-0.831 -0.664,-1.906 -0.26,-2.951c0.345,-0.894 0.777,-1.715 1.114,-2.331c0.469,-0.855 1.432,-1.406 2.453,-1.406l0.252,0l0.317,0.062c0.5,0.112 0.952,0.264 1.391,0.411l2.406,0.775l-0.438,2.013c-0.382,1.753 -1.263,3.078 -2.695,4.051c-0.547,0.373 -1.226,0.597 -1.913,0.629l-0.158,0.003Z" style="fill:#fff;fill-rule:nonzero;"/><path d="M9.114,24.882c-0.711,-0.942 -0.973,-1.87 -0.776,-2.76c0.162,-0.732 0.635,-1.354 1.298,-1.708c0.386,-0.205 0.833,-0.314 1.293,-0.314c0.697,0 1.352,0.24 1.844,0.677c0.555,0.488 0.871,1.171 0.885,1.919c0.01,0.609 -0.186,1.531 -1.178,2.467l-1.84,1.739l-1.526,-2.02Z" style="fill:#fff;fill-rule:nonzero;"/><path d="M6.118,33.186c-0.369,0 -0.66,-0.077 -0.873,-0.134l-2.097,-0.557l0.465,-2.121c0.055,-0.252 0.022,-0.29 -0.039,-0.356c-0.603,-0.663 -0.646,-1.436 -0.662,-1.728l-0.241,-1.507l1.32,-0.735l1.668,-1l0.971,0.957c0.507,-0.191 1.094,-0.337 1.772,-0.337l4.037,0l-1.138,1.912l4.993,0.472l-5.804,3.552c-0.771,0.472 -1.184,0.587 -2.1,0.587c-0.11,0 -0.211,0.001 -0.306,0.001c-0.382,0.551 -0.985,0.994 -1.966,0.994" style="fill:#fff;fill-rule:nonzero;"/><path d="M10.985,25.863c-1.544,0 -2.8,-1.313 -2.8,-2.928c0,-1.614 1.256,-2.927 2.8,-2.927c1.544,0 2.801,1.313 2.801,2.927c0,1.615 -1.257,2.928 -2.801,2.928" style="fill:#fff;fill-rule:nonzero;"/><path d="M10.924,23.516c0.455,-0.43 0.593,-0.823 0.344,-1.043c-0.13,-0.114 -0.412,-0.138 -0.566,-0.057c-0.273,0.146 -0.19,0.554 0.222,1.1m21.773,14.408c-0.583,-0.185 -1.104,-0.383 -1.639,-0.504c-0.165,-0.037 -0.455,0.073 -0.536,0.222c-0.364,0.663 -0.713,1.345 -0.989,2.059c-0.262,0.676 0.037,1.149 0.668,1.12c0.251,-0.011 0.528,-0.092 0.742,-0.238c0.843,-0.574 1.471,-1.359 1.754,-2.659m-15.685,-1.602c-0.979,-0.88 -1.578,-0.703 -1.932,0.532c-0.147,0.513 -0.302,1.031 -0.372,1.561c-0.057,0.433 0.004,0.887 0.02,1.331c0.016,0.461 0.312,0.617 0.636,0.659c0.638,0.081 1.228,-0.555 1.275,-1.286c0.033,-0.505 0.11,-1.007 0.178,-1.508c0.059,-0.442 0.133,-0.881 0.195,-1.289m16.943,-31.49c-0.927,0.515 -1.729,0.957 -2.529,1.406c-0.165,0.092 -0.335,0.188 -0.475,0.321c-0.551,0.524 -1.175,1.081 -1.21,1.929c-0.054,1.341 0.056,2.693 0.112,4.039c0.006,0.125 0.123,0.243 0.196,0.38c0.074,-0.957 0.089,-1.861 0.225,-2.741c0.159,-1.03 0.625,-1.803 1.597,-2.108c0.798,-0.25 1.408,-0.796 1.638,-1.779c0.106,-0.457 0.273,-0.895 0.446,-1.447m-3.727,8.422c-0.02,0.188 -0.039,0.273 -0.036,0.358c0.003,0.089 0.016,0.182 0.045,0.264c0.478,1.373 1.029,2.705 1.876,3.837c0.373,0.499 0.768,1.012 1.239,1.372c1.164,0.889 2.379,1.691 3.57,2.533c0.29,0.205 0.582,0.413 0.85,0.651c1.169,1.036 2.316,2.07 2.676,3.867c0.197,0.985 0.301,1.96 0.25,2.959c-0.012,0.227 -0.088,0.497 -0.218,0.66c-0.632,0.787 -1.329,1.478 -2.311,1.621c-0.803,0.118 -0.862,0.201 -0.766,1.14c0.682,0.274 1.25,-0.044 1.775,-0.472c0.364,-0.297 0.696,-0.648 1.021,-1.001c0.64,-0.692 1.071,-1.494 0.974,-2.56c-0.019,-0.206 0.022,-0.42 0.044,-0.628c0.256,-2.437 -0.816,-4.233 -2.355,-5.608c-1.236,-1.105 -2.7,-1.878 -4.06,-2.806c-0.271,-0.185 -0.547,-0.371 -0.788,-0.602c-1.285,-1.23 -2.421,-2.607 -3.196,-4.33c-0.178,-0.394 -0.367,-0.782 -0.59,-1.255m-10.419,2.787c-0.237,-0.427 -0.587,-0.651 -1.009,-0.777c-1.294,-0.385 -2.565,-0.522 -3.889,-0.036c-1.558,0.573 -3.03,2.535 -2.575,4.751c0.141,0.685 0.658,1.218 1.275,1.224c0.476,0.006 0.952,-0.034 1.428,-0.03c0.279,0.003 0.428,-0.174 0.565,-0.41c0.32,-0.55 0.653,-1.09 0.97,-1.643c0.541,-0.943 1.194,-1.752 2.065,-2.312c0.39,-0.251 0.777,-0.509 1.17,-0.767m7.818,4.232c-0.103,-1.281 -0.542,-2.403 -1.155,-3.432c-0.203,-0.342 -0.518,-0.605 -0.806,-0.868c-0.107,-0.097 -0.299,-0.151 -0.432,-0.119c-1.086,0.266 -2.135,0.602 -3.046,1.415c-1.972,1.759 -3.027,4.126 -3.613,6.823c-0.047,0.217 -0.042,0.514 0.054,0.695c0.558,1.055 1.837,2.019 2.906,1.838c1.668,-0.282 3.241,-0.797 4.409,-2.366c0.878,-1.178 1.462,-2.475 1.683,-3.986m-10.988,11.143c0.267,-0.263 0.408,-0.445 0.581,-0.567c0.763,-0.535 1.212,-1.342 1.481,-2.278c0.188,-0.654 0.395,-1.35 0.084,-2.018c-0.256,-0.551 -0.577,-1.064 -0.904,-1.566c-0.18,-0.277 -0.243,-0.505 -0.082,-0.82c0.144,-0.281 0.267,-0.584 0.356,-0.893c0.618,-2.146 1.448,-4.152 2.922,-5.723c0.769,-0.82 1.536,-1.659 2.637,-1.886c0.065,-0.012 0.118,-0.108 0.291,-0.278c-0.563,0.045 -1.005,0.044 -1.435,0.124c-0.925,0.171 -1.73,0.699 -2.58,1.122c-1.86,0.927 -3.011,2.59 -3.964,4.517c-0.137,0.275 -0.326,0.517 -0.472,0.746c-0.805,-0.251 -2.248,-0.154 -2.668,0.152c0.094,0.248 0.196,0.494 0.283,0.747c0.223,0.648 0.153,1.251 -0.26,1.771c-0.893,1.126 -2.473,0.851 -3.04,-0.534c-0.139,-0.34 -0.205,-0.72 -0.318,-1.131c-0.594,0.362 -1.19,0.682 -1.746,1.076c-0.582,0.413 -1.135,0.883 -1.684,1.354c-0.685,0.589 -1.176,1.357 -1.62,2.199c-0.759,1.436 -0.424,3.54 0.947,4.528c0.399,0.287 0.823,0.551 1.263,0.741c0.53,0.23 1.088,0.343 1.519,0.84c0.167,0.192 0.475,0.263 0.731,0.311c1.013,0.187 2.026,0.407 3.048,0.498c1.742,0.155 3.456,0.46 5.125,1.006c0.397,-0.662 0.397,-0.662 0.924,-0.698c-0.02,0.15 -0.009,0.306 -0.062,0.424c-0.667,1.462 -0.885,2.993 -0.552,4.607c0.093,0.448 0.248,0.875 0.707,0.997c0.421,0.112 0.954,-0.104 1.165,-0.547c0.262,-0.553 0.466,-1.142 0.688,-1.719c0.21,-0.547 0.381,-1.117 0.628,-1.641c0.115,-0.243 0.241,-0.388 0.146,-0.715c-0.094,-0.328 0.174,-0.506 0.431,-0.321c0.131,0.096 0.25,0.228 0.349,0.366c0.336,0.468 0.763,0.733 1.286,0.813c0.446,0.068 0.897,0.117 1.333,0.233c1.746,0.467 3.462,0.162 5.184,-0.182c0.647,-0.13 1.31,-0.242 1.963,-0.225c0.745,0.021 1.456,0.326 2.072,0.812c0.472,0.371 0.478,1.034 0.645,1.603c0.173,0.594 0.434,1.165 0.724,1.699c0.246,0.453 1.185,0.725 1.585,0.545c0.345,-0.156 0.577,-0.97 0.446,-1.627c-0.065,-0.323 -0.12,-0.664 -0.254,-0.951c-0.448,-0.959 -0.373,-1.907 -0.071,-2.89c0.156,-0.503 0.3,-1.036 0.33,-1.563c0.056,-0.963 -0.023,-1.937 0.038,-2.898c0.093,-1.497 -0.439,-2.739 -1.238,-3.798c-1.903,-2.524 -4.405,-3.632 -7.282,-3.847c-0.981,-0.073 -1.671,0.22 -2.339,1.064c-1.331,1.682 -3.16,2.112 -5.048,2.201c-0.45,0.02 -0.911,-0.241 -1.409,-0.383c0,0.157 0.013,0.307 -0.002,0.451c-0.155,1.409 -0.535,2.711 -1.495,3.684c-0.333,0.337 -0.693,0.743 -1.387,0.468m16.54,7.229c-0.368,0.584 -0.633,1.113 -0.988,1.548c-0.65,0.797 -1.411,1.362 -2.445,1.211c-0.604,-0.089 -0.843,-0.328 -0.894,-1.027c-0.035,-0.491 0,-0.953 0.288,-1.373c0.257,-0.374 0.455,-0.8 0.722,-1.283c-0.489,-0.071 -0.893,0.019 -1.289,0.138c-1.62,0.491 -3.228,0.428 -4.857,-0.001c-0.794,-0.209 -1.629,-0.215 -2.338,-0.757c-0.39,0.157 -0.511,0.499 -0.629,0.883c-0.235,0.763 -0.44,1.556 -0.783,2.259c-0.762,1.559 -2.132,1.61 -3.064,0.114c-0.184,0.126 -0.371,0.268 -0.569,0.385c-0.186,0.109 -0.379,0.233 -0.581,0.276c-0.969,0.206 -1.727,-0.488 -1.704,-1.64c0.014,-0.651 0.163,-1.305 0.3,-1.945c0.125,-0.581 0.317,-1.143 0.487,-1.742c-0.536,-0.438 -1.169,-0.362 -1.754,-0.46c-1.674,-0.283 -3.361,-0.478 -5.03,-0.791c-0.581,-0.109 -1.164,-0.347 -1.584,-0.938c-0.165,-0.232 -0.501,-0.301 -0.755,-0.455c-0.856,-0.52 -1.535,-1.266 -2.072,-2.193c-0.814,0.023 -1.327,0.851 -2.147,0.834c0.684,-0.513 1.368,-1.025 2.045,-1.532c-0.124,-0.508 -0.438,-0.415 -0.668,-0.368c-0.44,0.091 -0.868,0.259 -1.303,0.386c-0.194,0.057 -0.393,0.09 -0.61,0.058c0.749,-0.549 1.553,-0.919 2.421,-1.101c0.03,-0.05 0.078,-0.094 0.085,-0.145c0.268,-2.071 1.431,-3.444 2.826,-4.591c0.853,-0.701 1.795,-1.259 2.686,-1.902c0.461,-0.334 0.976,-0.535 1.424,-0.933c0.445,-0.396 1.076,-0.459 1.739,-0.262c-0.037,-0.181 -0.041,-0.295 -0.082,-0.386c-0.66,-1.474 -0.42,-2.859 0.294,-4.212c0.34,-0.645 0.808,-1.121 1.383,-1.458c1.217,-0.715 2.464,-1.224 3.874,-0.803c0.506,0.151 1.045,0.157 1.558,0.287c0.377,0.096 0.771,0.148 1.067,0.533c0.248,0.322 0.606,0.32 0.946,0.121c0.846,-0.494 1.784,-0.549 2.696,-0.671c1.338,-0.178 2.902,0.94 3.466,2.373c0.119,0.303 0.228,0.614 0.377,0.898c0.655,1.245 0.59,2.531 0.186,3.838c-0.122,0.395 -0.27,0.78 -0.425,1.225c0.636,0.119 1.231,0.253 1.83,0.335c1.762,0.242 3.378,0.872 4.852,2.042c1.293,1.026 2.329,2.261 2.963,3.908c0.169,0.438 0.267,0.91 0.412,1.414c0.487,-0.136 0.95,-0.228 1.39,-0.398c0.755,-0.293 1.382,-1.447 1.208,-2.481c-0.272,-1.632 -0.672,-3.203 -1.924,-4.327c-1.024,-0.919 -2.088,-1.75 -3.232,-2.444c-2.644,-1.6 -4.464,-3.934 -5.368,-7.251c-0.46,-1.684 -0.653,-3.344 -0.542,-5.08c0.048,-0.758 0.298,-1.391 0.755,-1.932c0.727,-0.863 1.593,-1.458 2.582,-1.85c0.32,-0.127 0.607,-0.365 0.906,-0.561c0.503,-0.33 1.004,-0.667 1.591,-1.057c-0.011,0.272 0.018,0.451 -0.029,0.597c-0.263,0.822 -0.552,1.632 -0.816,2.453c-0.346,1.074 -0.941,1.896 -1.893,2.281c-0.889,0.358 -1.318,1.117 -1.458,2.083c-0.143,0.986 -0.101,1.977 0.3,2.921c0.849,1.998 2.099,3.612 3.6,4.994c0.101,0.094 0.22,0.171 0.342,0.224c1.423,0.624 2.558,1.805 3.885,2.62c0.908,0.556 1.478,1.533 2.055,2.477c1.127,1.847 1.148,3.859 0.566,5.888c-0.505,1.758 -1.712,2.76 -3.214,3.328c-0.271,0.102 -0.543,0.203 -0.855,0.32c-0.012,0.28 -0.034,0.544 -0.032,0.81c0.006,0.762 -0.054,1.503 -0.349,2.207c-0.241,0.576 -0.17,1.16 0,1.756c0.243,0.853 0.497,1.701 0.348,2.642c-0.116,0.74 -0.795,1.546 -1.539,1.242c-0.169,-0.068 -0.365,-0.058 -0.549,-0.066c-0.435,-0.018 -0.775,-0.237 -0.976,-0.666c-0.274,-0.583 -0.52,-1.184 -0.761,-1.785c-0.128,-0.319 -0.22,-0.656 -0.347,-1.042" style="fill:#231f20;fill-rule:nonzero;"/><path d="M3.153,28.96l-3.054,0c0.216,-0.138 0.333,-0.27 0.459,-0.283c0.734,-0.081 1.47,-0.136 2.204,-0.196c0.251,-0.021 0.399,0.088 0.391,0.479" style="fill:#231f20;fill-rule:nonzero;"/><path d="M6.519,29.986c0.358,-0.02 0.673,-0.041 0.988,-0.052c0.291,-0.01 0.581,-0.01 0.872,-0.01c0.511,-0.001 0.511,0 0.928,-0.254c-0.993,-0.094 -1.871,-0.178 -2.749,-0.261c-0.015,-0.064 -0.029,-0.127 -0.044,-0.192c0.298,-0.216 0.58,-0.474 0.9,-0.638c0.341,-0.176 0.754,-0.183 1.034,-0.642c-0.903,-0.018 -1.607,0.483 -2.32,0.836c-0.292,-0.317 -0.55,-0.598 -0.808,-0.879c-0.053,0.032 -0.106,0.065 -0.159,0.096c0.027,0.171 0.002,0.404 0.09,0.502c0.607,0.666 0.776,1.46 0.577,2.368c0.478,0.128 0.478,0.128 0.691,-0.874m10.121,1.43c0.693,0.274 1.053,-0.132 1.386,-0.469c0.96,-0.973 1.34,-2.274 1.495,-3.684c0.016,-0.144 0.002,-0.294 0.002,-0.451c0.498,0.143 0.959,0.403 1.409,0.383c1.889,-0.089 3.717,-0.519 5.048,-2.2c0.668,-0.845 1.358,-1.138 2.339,-1.065c2.877,0.215 5.379,1.324 7.282,3.847c0.799,1.06 1.331,2.302 1.238,3.798c-0.06,0.962 0.018,1.935 -0.038,2.898c-0.03,0.528 -0.174,1.06 -0.329,1.564c-0.303,0.982 -0.378,1.93 0.07,2.889c0.135,0.288 0.189,0.628 0.254,0.952c0.131,0.656 -0.101,1.47 -0.446,1.627c-0.399,0.179 -1.339,-0.092 -1.585,-0.545c-0.29,-0.535 -0.551,-1.106 -0.724,-1.7c-0.167,-0.569 -0.173,-1.232 -0.645,-1.603c-0.615,-0.485 -1.327,-0.791 -2.071,-0.812c-0.654,-0.017 -1.317,0.095 -1.964,0.225c-1.722,0.345 -3.438,0.649 -5.183,0.183c-0.437,-0.117 -0.888,-0.165 -1.333,-0.234c-0.524,-0.08 -0.951,-0.345 -1.287,-0.812c-0.099,-0.139 -0.218,-0.271 -0.349,-0.367c-0.257,-0.185 -0.525,-0.006 -0.43,0.322c0.094,0.326 -0.031,0.471 -0.146,0.715c-0.248,0.523 -0.419,1.093 -0.629,1.64c-0.221,0.577 -0.426,1.166 -0.688,1.719c-0.211,0.443 -0.743,0.659 -1.165,0.547c-0.459,-0.121 -0.614,-0.549 -0.707,-0.997c-0.332,-1.613 -0.114,-3.145 0.553,-4.607c0.053,-0.118 0.041,-0.274 0.062,-0.423c-0.527,0.036 -0.527,0.036 -0.924,0.697c-1.67,-0.546 -3.384,-0.851 -5.126,-1.006c-1.021,-0.091 -2.035,-0.311 -3.048,-0.498c-0.255,-0.048 -0.564,-0.118 -0.731,-0.311c-0.43,-0.497 -0.989,-0.61 -1.519,-0.839c-0.44,-0.191 -0.863,-0.455 -1.262,-0.742c-1.372,-0.988 -1.707,-3.092 -0.948,-4.528c0.445,-0.842 0.935,-1.609 1.621,-2.198c0.548,-0.472 1.101,-0.942 1.684,-1.355c0.555,-0.393 1.151,-0.714 1.745,-1.076c0.114,0.411 0.179,0.791 0.318,1.131c0.567,1.386 2.148,1.66 3.041,0.534c0.412,-0.519 0.482,-1.123 0.259,-1.77c-0.087,-0.253 -0.189,-0.499 -0.283,-0.747c0.421,-0.307 1.863,-0.404 2.669,-0.153c0.146,-0.228 0.335,-0.471 0.471,-0.746c0.953,-1.927 2.104,-3.59 3.965,-4.517c0.849,-0.422 1.654,-0.951 2.579,-1.122c0.43,-0.08 0.872,-0.079 1.435,-0.124c-0.173,0.17 -0.225,0.266 -0.291,0.279c-1.101,0.226 -1.867,1.065 -2.636,1.885c-1.475,1.572 -2.305,3.578 -2.923,5.723c-0.089,0.31 -0.212,0.612 -0.356,0.894c-0.161,0.314 -0.097,0.543 0.082,0.819c0.327,0.502 0.649,1.016 0.905,1.566c0.31,0.668 0.103,1.365 -0.085,2.018c-0.269,0.937 -0.718,1.743 -1.481,2.278c-0.173,0.122 -0.314,0.304 -0.58,0.568" style="fill:#a9acae;fill-rule:nonzero;"/><path d="M27.627,20.273c-0.221,1.511 -0.804,2.809 -1.683,3.986c-1.168,1.569 -2.74,2.084 -4.408,2.367c-1.069,0.18 -2.348,-0.784 -2.907,-1.838c-0.096,-0.182 -0.101,-0.479 -0.054,-0.696c0.587,-2.697 1.641,-5.064 3.614,-6.823c0.91,-0.812 1.959,-1.149 3.045,-1.415c0.133,-0.032 0.325,0.023 0.432,0.119c0.289,0.263 0.603,0.527 0.806,0.868c0.613,1.03 1.052,2.151 1.155,3.432" style="fill:#fbd1cf;fill-rule:nonzero;"/><path d="M19.809,16.041c-0.393,0.258 -0.78,0.516 -1.17,0.767c-0.872,0.559 -1.524,1.369 -2.065,2.312c-0.317,0.553 -0.65,1.093 -0.97,1.643c-0.137,0.236 -0.287,0.413 -0.565,0.41c-0.476,-0.004 -0.952,0.036 -1.428,0.03c-0.617,-0.007 -1.135,-0.539 -1.276,-1.224c-0.455,-2.216 1.018,-4.178 2.576,-4.751c1.324,-0.487 2.594,-0.349 3.889,0.036c0.422,0.126 0.772,0.349 1.009,0.777" style="fill:#a9acae;fill-rule:nonzero;"/><path d="M30.228,13.254c0.223,0.473 0.412,0.86 0.59,1.255c0.775,1.723 1.911,3.099 3.196,4.33c0.241,0.23 0.517,0.417 0.788,0.602c1.36,0.927 2.824,1.701 4.06,2.806c1.539,1.375 2.611,3.171 2.355,5.608c-0.022,0.208 -0.063,0.421 -0.044,0.628c0.097,1.066 -0.335,1.868 -0.974,2.56c-0.325,0.353 -0.657,0.704 -1.021,1.001c-0.525,0.428 -1.094,0.746 -1.775,0.472c-0.096,-0.94 -0.037,-1.023 0.766,-1.14c0.981,-0.143 1.679,-0.834 2.31,-1.621c0.131,-0.163 0.207,-0.434 0.219,-0.66c0.051,-0.999 -0.053,-1.974 -0.25,-2.959c-0.361,-1.797 -1.508,-2.831 -2.676,-3.867c-0.269,-0.239 -0.56,-0.447 -0.85,-0.652c-1.192,-0.842 -2.406,-1.643 -3.57,-2.532c-0.471,-0.36 -0.866,-0.873 -1.239,-1.372c-0.847,-1.132 -1.399,-2.464 -1.876,-3.837c-0.029,-0.082 -0.042,-0.176 -0.045,-0.265c-0.003,-0.085 0.016,-0.17 0.036,-0.357" style="fill:#a9acae;fill-rule:nonzero;"/><path d="M33.955,4.832c-0.172,0.552 -0.339,0.989 -0.446,1.446c-0.23,0.984 -0.84,1.53 -1.638,1.78c-0.972,0.304 -1.438,1.078 -1.597,2.108c-0.135,0.88 -0.151,1.783 -0.224,2.74c-0.074,-0.137 -0.191,-0.255 -0.197,-0.38c-0.056,-1.345 -0.166,-2.697 -0.111,-4.039c0.034,-0.847 0.658,-1.404 1.209,-1.928c0.14,-0.133 0.311,-0.229 0.476,-0.322c0.799,-0.448 1.601,-0.89 2.528,-1.405" style="fill:#a9acae;fill-rule:nonzero;"/><path d="M17.012,36.321c-0.062,0.408 -0.136,0.848 -0.195,1.289c-0.068,0.501 -0.145,1.003 -0.178,1.508c-0.047,0.731 -0.637,1.367 -1.275,1.286c-0.325,-0.042 -0.621,-0.197 -0.637,-0.658c-0.016,-0.445 -0.076,-0.899 -0.02,-1.331c0.07,-0.531 0.226,-1.049 0.373,-1.562c0.353,-1.235 0.953,-1.412 1.932,-0.532" style="fill:#a9acae;fill-rule:nonzero;"/><path d="M32.697,37.924c-0.283,1.3 -0.911,2.085 -1.754,2.659c-0.214,0.146 -0.491,0.227 -0.742,0.237c-0.63,0.03 -0.93,-0.443 -0.668,-1.12c0.276,-0.714 0.625,-1.395 0.989,-2.058c0.081,-0.15 0.371,-0.259 0.536,-0.222c0.535,0.121 1.056,0.318 1.639,0.504" style="fill:#a9acae;fill-rule:nonzero;"/><path d="M10.924,23.516c-0.412,-0.546 -0.495,-0.954 -0.222,-1.1c0.154,-0.081 0.436,-0.057 0.566,0.057c0.249,0.22 0.111,0.613 -0.344,1.043" style="fill:#fff;fill-rule:nonzero;"/><path d="M6.519,29.986c-0.213,1.002 -0.213,1.002 -0.691,0.874c0.199,-0.908 0.03,-1.702 -0.577,-2.368c-0.088,-0.098 -0.063,-0.331 -0.09,-0.502c0.053,-0.031 0.106,-0.064 0.159,-0.096c0.258,0.281 0.516,0.562 0.808,0.879c0.713,-0.353 1.417,-0.854 2.32,-0.836c-0.28,0.459 -0.693,0.466 -1.034,0.642c-0.32,0.164 -0.602,0.422 -0.9,0.638c0.015,0.065 0.029,0.128 0.044,0.192c0.878,0.083 1.756,0.167 2.749,0.261c-0.417,0.254 -0.417,0.253 -0.928,0.254c-0.291,0 -0.581,0 -0.872,0.01c-0.315,0.011 -0.63,0.032 -0.988,0.052" style="fill:#231f20;fill-rule:nonzero;"/><path d="M11.518,22.937c0,0.364 -0.239,0.66 -0.533,0.66c-0.294,0 -0.532,-0.296 -0.532,-0.66c0,-0.365 0.238,-0.66 0.532,-0.66c0.294,0 0.533,0.295 0.533,0.66" style="fill:#fff;fill-rule:nonzero;"/></g></svg>