<svg clip-rule="evenodd" fill-rule="evenodd" stroke-miterlimit="10" viewBox="0 0 163 164" xmlns="http://www.w3.org/2000/svg" xmlns:xlink="http://www.w3.org/1999/xlink"><linearGradient id="a" gradientTransform="matrix(0 78.4327 -78.4327 0 97.7259 8.12712)" gradientUnits="userSpaceOnUse" x1="0" x2="1" y1="0" y2="0"><stop offset="0" stop-color="#086ab5"/><stop offset="1" stop-color="#1e84c6"/></linearGradient><clipPath id="b"><path clip-rule="evenodd" d="m16.929 7.338h161.39v162.835h-161.39z"/></clipPath><g clip-path="url(#b)" transform="translate(-16 -7)"><path d="m16.929 7.338h161.39v162.835h-161.39z" fill="#b89fcc" stroke="#231f20" stroke-width="1.44"/><path d="m19.517 107.098h156.507v60.682h-156.507z" fill="#fff" opacity=".65"/><path d="m20.001 106.717h155.666v60.301h-155.666z" fill="none" stroke="#b89fcc" stroke-dasharray="1.99 1.99 1.99 1.99 1.99 1.99" stroke-width="3.97"/><g fill="#231f20"><path d="m44.725 112.606v4.227c0 .73.055 1.487.77 2.054.422.37 1.018.505 1.495.505.586 0 1.09-.189 1.466-.505.679-.513.78-1.279.77-2.054v-4.227h-.751v4.227c0 .522 0 .91-.321 1.352-.229.333-.679.549-1.164.549-.495 0-.945-.225-1.183-.558-.321-.451-.321-.839-.321-1.343v-4.227z" fill-rule="nonzero"/><path d="m50.464 119.275h.678v-2.74c0-1.009.587-1.613 1.604-1.622 1.11-.018 1.586.694 1.586 1.739v2.623h.669v-2.758c0-1.18-.54-2.208-2.071-2.226-.88-.018-1.549.37-1.834 1.001.01-.325.01-.595.01-.866h-.642z" fill-rule="nonzero"/><path d="m63.701 112.606h-.679v2.803c-.22-.505-.935-1.118-2.016-1.118-1.476 0-2.54 1.109-2.54 2.551 0 1.361.972 2.568 2.549 2.568 1.026 0 1.686-.495 2.035-1.135v1h.651zm-4.565 4.236c0-1.091.834-1.938 1.97-1.938.55 0 1.045.207 1.394.559.357.342.568.811.568 1.361.018.54-.192 1.036-.55 1.397-.348.351-.852.567-1.402.567-1.284 0-1.971-.964-1.98-1.937z" fill-rule="nonzero"/><path d="m64.947 119.275h.679v-4.849h-.679zm-.586-5.84.22.433 2.209-1.163-.248-.487z" fill-rule="nonzero"/><path d="m71.804 114.426h-.678v1.019c-.239-.55-.963-1.154-2.017-1.154-1.503 0-2.557 1.136-2.557 2.56 0 1.334.953 2.559 2.557 2.559.88 0 1.632-.405 2.017-1.135v1h.678zm-4.583 2.425c0-1.082.825-1.947 1.961-1.947.871 0 1.531.496 1.806 1.163.11.234.165.504.156.775 0 .261-.055.531-.165.766-.266.685-.907 1.18-1.778 1.18-1.357 0-1.971-1.054-1.98-1.928z" fill-rule="nonzero"/><path d="m75.581 112.606h.678v6.669h-.678z"/><path d="m77.176 116.851c0 1.361 1.026 2.55 2.612 2.55 1.595 0 2.622-1.189 2.622-2.55s-1.027-2.56-2.622-2.56c-1.586 0-2.612 1.199-2.612 2.551zm.669 0c0-1.109.852-1.938 1.943-1.938 1.1 0 1.944.829 1.944 1.938 0 1.108-.844 1.937-1.944 1.937-1.091 0-1.943-.829-1.943-1.928z" fill-rule="nonzero"/><path d="m86.223 115.643c-.045-.982-.815-1.352-1.503-1.352-.834 0-1.54.514-1.54 1.388.018.766.568 1.046 1.274 1.253.853.243 1.219.468 1.238 1.018.009.496-.385.91-.954.91-.495 0-.999-.297-1.026-.964h-.669c.009 1.019.889 1.514 1.686 1.514.935 0 1.669-.649 1.632-1.541-.037-1.036-.825-1.235-1.531-1.424-.596-.171-.953-.36-.972-.82-.018-.424.312-.784.853-.784.495 0 .843.288.843.802z" fill-rule="nonzero"/><path d="m94.849 112.606h-.678v2.803c-.22-.505-.935-1.118-2.017-1.118-1.476 0-2.539 1.109-2.539 2.551 0 1.361.972 2.568 2.548 2.568 1.027 0 1.687-.495 2.035-1.135v1h.651zm-4.565 4.236c0-1.091.834-1.938 1.971-1.938.55 0 1.045.207 1.393.559.358.342.569.811.569 1.361.018.54-.193 1.036-.55 1.397-.349.351-.853.567-1.403.567-1.283 0-1.971-.964-1.98-1.937z" fill-rule="nonzero"/><path d="m95.793 116.851c0 1.361 1.027 2.55 2.613 2.55 1.595 0 2.622-1.189 2.622-2.55s-1.027-2.56-2.622-2.56c-1.586 0-2.613 1.199-2.613 2.551zm.67 0c0-1.109.852-1.938 1.943-1.938 1.1 0 1.943.829 1.943 1.938 0 1.108-.843 1.937-1.943 1.937-1.091 0-1.943-.829-1.943-1.928z" fill-rule="nonzero"/><path d="m104.841 115.643c-.046-.982-.816-1.352-1.503-1.352-.834 0-1.54.514-1.54 1.388.018.766.568 1.046 1.274 1.253.852.243 1.219.468 1.237 1.018.01.496-.385.91-.953.91-.495 0-.999-.297-1.027-.964h-.669c.009 1.019.889 1.514 1.687 1.514.935 0 1.668-.649 1.632-1.541-.037-1.036-.825-1.235-1.531-1.424-.596-.171-.954-.36-.972-.82-.018-.424.312-.784.853-.784.495 0 .843.288.843.802z" fill-rule="nonzero"/><path d="m108.535 119.275h.669v-2.641c0-1.099.532-1.685 1.485-1.685h.065v-.658c-.578.018-1.22.207-1.577.928v-.793h-.642z" fill-rule="nonzero"/><path d="m116.345 114.426h-.678v1.019c-.238-.55-.962-1.154-2.017-1.154-1.503 0-2.557 1.136-2.557 2.56 0 1.334.953 2.559 2.557 2.559.88 0 1.632-.405 2.017-1.135v1h.678zm-4.583 2.425c0-1.082.825-1.947 1.962-1.947.871 0 1.531.496 1.806 1.163.11.234.165.504.155.775 0 .261-.055.531-.165.766-.265.685-.907 1.18-1.778 1.18-1.357 0-1.971-1.054-1.98-1.928z" fill-rule="nonzero"/><path d="m117.959 119.275h.669v-4.317h1.082v-.532h-1.082v-1.82h-.669v1.82h-.972v.532h.972z" fill-rule="nonzero"/><path d="m120.058 116.851c0 1.361 1.027 2.55 2.612 2.55 1.595 0 2.622-1.189 2.622-2.55s-1.027-2.56-2.622-2.56c-1.585 0-2.612 1.199-2.612 2.551zm.669 0c0-1.109.853-1.938 1.943-1.938 1.1 0 1.944.829 1.944 1.938 0 1.108-.844 1.937-1.944 1.937-1.09 0-1.943-.829-1.943-1.928z" fill-rule="nonzero"/><path d="m126.218 119.275h.678v-2.74c0-1.009.587-1.613 1.604-1.622 1.11-.018 1.586.694 1.586 1.739v2.623h.669v-2.758c0-1.18-.54-2.208-2.071-2.226-.88-.018-1.549.37-1.834 1.001.01-.325.01-.595.01-.866h-.642z" fill-rule="nonzero"/><path d="m136.072 117.635c-.211.586-.843 1.144-1.787 1.153-1.064 0-1.944-.793-1.944-1.937 0-.559.23-1.082.56-1.397.412-.379.815-.55 1.393-.55.697 0 1.476.379 1.787 1.199h.697c-.339-1.163-1.402-1.812-2.512-1.812-1.494 0-2.603 1.127-2.603 2.56 0 1.297.981 2.559 2.649 2.559 1.183 0 2.145-.748 2.466-1.775z" fill-rule="nonzero"/><path d="m137.658 113.534h.678v-.928h-.678zm0 5.741h.678v-4.849h-.678z" fill-rule="nonzero"/><path d="m139.95 119.275h.669v-4.317h1.082v-.532h-1.082v-1.82h-.669v1.82h-.972v.532h.972z" fill-rule="nonzero"/><path d="m142.049 116.851c0 1.361 1.027 2.55 2.612 2.55 1.595 0 2.622-1.189 2.622-2.55s-1.027-2.56-2.622-2.56c-1.585 0-2.612 1.199-2.612 2.551zm.669 0c0-1.109.853-1.938 1.943-1.938 1.1 0 1.944.829 1.944 1.938 0 1.108-.844 1.937-1.944 1.937-1.09 0-1.943-.829-1.943-1.928z" fill-rule="nonzero"/><path d="m151.097 115.643c-.046-.982-.816-1.352-1.504-1.352-.834 0-1.54.514-1.54 1.388.019.766.569 1.046 1.274 1.253.853.243 1.22.468 1.238 1.018.009.496-.385.91-.953.91-.495 0-1-.297-1.027-.964h-.669c.009 1.019.889 1.514 1.686 1.514.935 0 1.669-.649 1.632-1.541-.037-1.036-.825-1.235-1.531-1.424-.596-.171-.953-.36-.971-.82-.019-.424.311-.784.852-.784.495 0 .843.288.843.802z" fill-rule="nonzero"/><path d="m28.977 123.421h-.678v2.802c-.22-.504-.935-1.117-2.017-1.117-1.476 0-2.539 1.108-2.539 2.55 0 1.361.972 2.569 2.548 2.569 1.027 0 1.687-.496 2.035-1.136v1.001h.651zm-4.565 4.235c0-1.09.834-1.937 1.971-1.937.55 0 1.045.207 1.393.559.358.342.569.811.569 1.36.018.541-.193 1.037-.55 1.397-.349.352-.853.568-1.403.568-1.283 0-1.971-.964-1.98-1.938z" fill-rule="nonzero"/><path d="m35.018 127.855c.073-.775-.202-1.523-.77-2.064-.468-.442-1.109-.685-1.806-.685-1.476 0-2.594 1.145-2.594 2.568 0 1.208.889 2.551 2.603 2.551.504 0 .99-.135 1.403-.397.421-.261.77-.657.999-1.18h-.706c-.321.631-.935 1-1.696 1-.834.009-1.888-.577-1.925-1.793zm-4.483-.532c.065-.883.853-1.649 1.916-1.649 1.018-.027 1.852.802 1.898 1.649z" fill-rule="nonzero"/><path d="m39.986 128.45c-.21.585-.843 1.144-1.787 1.153-1.063 0-1.943-.793-1.943-1.938 0-.558.229-1.081.559-1.396.412-.379.816-.55 1.393-.55.697 0 1.476.378 1.788 1.198h.696c-.339-1.162-1.402-1.811-2.511-1.811-1.495 0-2.604 1.127-2.604 2.559 0 1.298.981 2.56 2.649 2.56 1.183 0 2.145-.748 2.466-1.775z" fill-rule="nonzero"/><path d="m41.572 124.349h.679v-.928h-.679zm0 5.741h.679v-4.849h-.679z" fill-rule="nonzero"/><path d="m48.411 123.421h-.679v2.802c-.22-.504-.935-1.117-2.016-1.117-1.476 0-2.54 1.108-2.54 2.55 0 1.361.972 2.569 2.549 2.569 1.026 0 1.686-.496 2.035-1.136v1.001h.651zm-4.565 4.235c0-1.09.834-1.937 1.97-1.937.55 0 1.045.207 1.394.559.357.342.568.811.568 1.36.018.541-.192 1.037-.55 1.397-.348.352-.852.568-1.402.568-1.284 0-1.971-.964-1.98-1.938z" fill-rule="nonzero"/><path d="m49.657 124.349h.679v-.928h-.679zm0 5.741h.679v-4.849h-.679z" fill-rule="nonzero"/><path d="m56.358 127.855c.074-.775-.201-1.523-.77-2.064-.467-.442-1.109-.685-1.806-.685-1.475 0-2.594 1.145-2.594 2.568 0 1.208.889 2.551 2.604 2.551.504 0 .99-.135 1.402-.397.422-.261.77-.657.999-1.18h-.706c-.32.631-.935 1-1.695 1-.835.009-1.889-.577-1.925-1.793zm-4.482-.532c.064-.883.852-1.649 1.916-1.649 1.017-.027 1.851.802 1.897 1.649z" fill-rule="nonzero"/><path d="m57.229 130.09h.669v-2.641c0-1.099.532-1.685 1.485-1.685h.064v-.658c-.577.018-1.219.207-1.576.928v-.793h-.642z" fill-rule="nonzero"/><path d="m59.787 127.665c0 1.361 1.026 2.551 2.612 2.551 1.595 0 2.622-1.19 2.622-2.551 0-1.36-1.027-2.559-2.622-2.559-1.586 0-2.612 1.199-2.612 2.55zm.669 0c0-1.108.852-1.937 1.943-1.937 1.1 0 1.943.829 1.943 1.937 0 1.109-.843 1.938-1.943 1.938-1.091 0-1.943-.829-1.943-1.929z" fill-rule="nonzero"/><path d="m65.947 130.09h.678v-2.74c0-1.009.587-1.613 1.604-1.622 1.109-.018 1.586.694 1.586 1.739v2.623h.669v-2.758c0-1.181-.541-2.208-2.072-2.226-.88-.018-1.549.369-1.833 1 .009-.324.009-.594.009-.865h-.641z" fill-rule="nonzero"/><path d="m79.046 127.855c.073-.775-.202-1.523-.77-2.064-.468-.442-1.109-.685-1.806-.685-1.476 0-2.594 1.145-2.594 2.568 0 1.208.889 2.551 2.603 2.551.504 0 .99-.135 1.403-.397.421-.261.77-.657.999-1.18h-.706c-.321.631-.935 1-1.696 1-.834.009-1.888-.577-1.925-1.793zm-4.483-.532c.065-.883.853-1.649 1.916-1.649 1.018-.027 1.852.802 1.898 1.649z" fill-rule="nonzero"/><path d="m82.804 126.458c-.046-.983-.816-1.352-1.503-1.352-.834 0-1.54.514-1.54 1.388.018.766.568 1.045 1.274 1.253.853.243 1.219.468 1.238 1.018.009.496-.385.91-.954.91-.495 0-.999-.297-1.026-.964h-.67c.01 1.018.89 1.514 1.687 1.514.935 0 1.668-.649 1.632-1.541-.037-1.037-.825-1.235-1.531-1.424-.596-.171-.953-.361-.972-.82-.018-.424.312-.784.853-.784.495 0 .843.288.843.802z" fill-rule="nonzero"/><path d="m88.048 128.45c-.211.585-.844 1.144-1.788 1.153-1.063 0-1.943-.793-1.943-1.938 0-.558.229-1.081.559-1.396.412-.379.816-.55 1.393-.55.697 0 1.476.378 1.788 1.198h.696c-.339-1.162-1.402-1.811-2.511-1.811-1.494 0-2.604 1.127-2.604 2.559 0 1.298.981 2.56 2.65 2.56 1.182 0 2.145-.748 2.465-1.775z" fill-rule="nonzero"/><path d="m94.584 125.241h-.679v1.019c-.238-.55-.962-1.154-2.016-1.154-1.504 0-2.558 1.136-2.558 2.559 0 1.334.953 2.56 2.558 2.56.88 0 1.631-.406 2.016-1.136v1.001h.679zm-4.584 2.424c0-1.081.825-1.946 1.962-1.946.871 0 1.531.495 1.806 1.162.11.235.165.505.156.775 0 .262-.055.532-.165.766-.266.685-.908 1.181-1.779 1.181-1.356 0-1.971-1.054-1.98-1.929z" fill-rule="nonzero"/><path d="m95.812 131.928h.678v-2.83c.229.505.935 1.127 2.026 1.127 1.531 0 2.53-1.19 2.53-2.542 0-1.252-.871-2.577-2.53-2.577-.944 0-1.659.442-2.062 1.145v-1.01h-.642zm4.556-4.263c0 1.109-.853 1.938-1.962 1.938-.55 0-1.045-.207-1.393-.55-.358-.351-.569-.838-.569-1.379 0-.549.211-1.036.55-1.387.358-.352.844-.568 1.394-.568 1.329 0 1.98 1.027 1.98 1.937z" fill-rule="nonzero"/><path d="m106.94 125.241h-.678v1.019c-.238-.55-.963-1.154-2.017-1.154-1.503 0-2.557 1.136-2.557 2.559 0 1.334.953 2.56 2.557 2.56.88 0 1.632-.406 2.017-1.136v1.001h.678zm-4.583 2.424c0-1.081.825-1.946 1.962-1.946.87 0 1.53.495 1.805 1.162.11.235.165.505.156.775 0 .262-.055.532-.165.766-.266.685-.907 1.181-1.778 1.181-1.357 0-1.971-1.054-1.98-1.929z" fill-rule="nonzero"/><path d="m108.169 130.09h.669v-2.641c0-1.099.532-1.685 1.485-1.685h.064v-.658c-.577.018-1.219.207-1.577.928v-.793h-.641z" fill-rule="nonzero"/><path d="m113.916 126.458c-.046-.983-.816-1.352-1.503-1.352-.834 0-1.54.514-1.54 1.388.018.766.568 1.045 1.274 1.253.853.243 1.219.468 1.238 1.018.009.496-.385.91-.954.91-.495 0-.999-.297-1.026-.964h-.67c.01 1.018.89 1.514 1.687 1.514.935 0 1.668-.649 1.632-1.541-.037-1.037-.825-1.235-1.531-1.424-.596-.171-.953-.361-.972-.82-.018-.424.312-.784.853-.784.495 0 .843.288.843.802z" fill-rule="nonzero"/><path d="m119.856 127.855c.074-.775-.201-1.523-.77-2.064-.467-.442-1.109-.685-1.806-.685-1.475 0-2.594 1.145-2.594 2.568 0 1.208.889 2.551 2.604 2.551.504 0 .99-.135 1.402-.397.422-.261.77-.657.999-1.18h-.706c-.32.631-.935 1-1.695 1-.835.009-1.889-.577-1.925-1.793zm-4.482-.532c.064-.883.852-1.649 1.916-1.649 1.017-.027 1.851.802 1.897 1.649z" fill-rule="nonzero"/><path d="m128.226 125.241h-.679v1.019c-.238-.55-.962-1.154-2.016-1.154-1.504 0-2.558 1.136-2.558 2.559 0 1.334.953 2.56 2.558 2.56.88 0 1.631-.406 2.016-1.136v1.001h.679zm-4.584 2.424c0-1.081.825-1.946 1.962-1.946.871 0 1.531.495 1.806 1.162.11.235.165.505.156.775 0 .262-.055.532-.165.766-.266.685-.908 1.181-1.779 1.181-1.356 0-1.971-1.054-1.98-1.929z" fill-rule="nonzero"/><path d="m129.454 123.421h.678v6.669h-.678z"/><path d="m136.146 127.855c.073-.775-.202-1.523-.77-2.064-.468-.442-1.11-.685-1.806-.685-1.476 0-2.594 1.145-2.594 2.568 0 1.208.889 2.551 2.603 2.551.504 0 .99-.135 1.402-.397.422-.261.77-.657 1-1.18h-.706c-.321.631-.935 1-1.696 1-.834.009-1.888-.577-1.925-1.793zm-4.483-.532c.064-.883.853-1.649 1.916-1.649 1.017-.027 1.852.802 1.897 1.649z" fill-rule="nonzero"/><path d="m137.2 124.349h.678v-.928h-.678zm.678.892h-.678v4.795c0 .721-.064 1.261-.779 1.379-.037.009-.083.009-.129.009v.558c.074-.009.147-.009.211-.009 1.302-.144 1.375-1.09 1.375-1.955z" fill-rule="nonzero"/><path d="m144.194 125.241h-.678v1.019c-.239-.55-.963-1.154-2.017-1.154-1.503 0-2.558 1.136-2.558 2.559 0 1.334.954 2.56 2.558 2.56.88 0 1.632-.406 2.017-1.136v1.001h.678zm-4.583 2.424c0-1.081.825-1.946 1.961-1.946.871 0 1.531.495 1.806 1.162.11.235.165.505.156.775 0 .262-.055.532-.165.766-.266.685-.907 1.181-1.778 1.181-1.357 0-1.971-1.054-1.98-1.929zm.981-3.415.22.432 2.209-1.162-.248-.487z" fill-rule="nonzero"/><path d="m145.422 130.09h.679v-2.74c0-1.009.586-1.613 1.604-1.622 1.109-.018 1.586.694 1.586 1.739v2.623h.669v-2.758c0-1.181-.541-2.208-2.072-2.226-.88-.018-1.549.369-1.833 1 .009-.324.009-.594.009-.865h-.642z" fill-rule="nonzero"/><path d="m156.111 123.421h-.679v2.802c-.22-.504-.935-1.117-2.016-1.117-1.476 0-2.539 1.108-2.539 2.55 0 1.361.971 2.569 2.548 2.569 1.027 0 1.687-.496 2.035-1.136v1.001h.651zm-4.565 4.235c0-1.09.834-1.937 1.971-1.937.55 0 1.045.207 1.393.559.357.342.568.811.568 1.36.019.541-.192 1.037-.55 1.397-.348.352-.852.568-1.402.568-1.284 0-1.971-.964-1.98-1.938z" fill-rule="nonzero"/><path d="m157.055 127.665c0 1.361 1.027 2.551 2.612 2.551 1.595 0 2.622-1.19 2.622-2.551 0-1.36-1.027-2.559-2.622-2.559-1.585 0-2.612 1.199-2.612 2.55zm.669 0c0-1.108.853-1.937 1.943-1.937 1.1 0 1.944.829 1.944 1.937 0 1.109-.844 1.938-1.944 1.938-1.09 0-1.943-.829-1.943-1.929z" fill-rule="nonzero"/><path d="m166.103 126.458c-.046-.983-.816-1.352-1.504-1.352-.834 0-1.54.514-1.54 1.388.019.766.569 1.045 1.274 1.253.853.243 1.22.468 1.238 1.018.009.496-.385.91-.953.91-.495 0-1-.297-1.027-.964h-.669c.009 1.018.889 1.514 1.686 1.514.935 0 1.669-.649 1.632-1.541-.037-1.037-.825-1.235-1.531-1.424-.596-.171-.953-.361-.971-.82-.019-.424.311-.784.852-.784.495 0 .843.288.843.802z" fill-rule="nonzero"/><path d="m172.043 127.855c.073-.775-.202-1.523-.77-2.064-.468-.442-1.11-.685-1.806-.685-1.476 0-2.594 1.145-2.594 2.568 0 1.208.889 2.551 2.603 2.551.504 0 .99-.135 1.402-.397.422-.261.77-.657 1-1.18h-.706c-.321.631-.935 1-1.696 1-.834.009-1.888-.577-1.925-1.793zm-4.483-.532c.064-.883.853-1.649 1.916-1.649 1.017-.027 1.852.802 1.897 1.649z" fill-rule="nonzero"/><path d="m61.831 140.905h.678v-2.704c0-.514.119-.883.33-1.163.202-.288.587-.513 1.045-.495.504.009.852.198 1.082.513.192.298.275.613.256 1.154v2.695h.679v-2.695c0-.55.045-.82.293-1.163.229-.333.651-.504 1.082-.504.467 0 .779.153.98.405.285.316.367.775.367 1.289v2.668h.678v-2.695c0-.856-.128-1.379-.559-1.803-.339-.342-.825-.486-1.329-.486-.55 0-1.036.207-1.357.54-.183.19-.284.379-.357.514-.028-.054-.193-.378-.321-.505-.348-.387-.834-.549-1.347-.549-.56 0-1.247.288-1.559.901v-.766h-.641z" fill-rule="nonzero"/><path d="m75.04 136.056h-.679v2.74c0 1.009-.586 1.613-1.613 1.622-1.109.009-1.586-.694-1.586-1.74v-2.622h-.669v2.749c0 1.18.541 2.208 2.081 2.235.88.009 1.549-.37 1.824-1.001v.866h.642z" fill-rule="nonzero"/><path d="m80.366 139.264c-.211.586-.844 1.145-1.788 1.154-1.063 0-1.943-.793-1.943-1.938 0-.559.229-1.081.559-1.397.412-.378.816-.549 1.393-.549.697 0 1.476.378 1.788 1.198h.697c-.34-1.162-1.403-1.811-2.512-1.811-1.494 0-2.604 1.126-2.604 2.559 0 1.298.981 2.56 2.65 2.56 1.182 0 2.145-.748 2.466-1.776z" fill-rule="nonzero"/><path d="m81.952 140.905h.678v-2.758c0-.442.128-.838.394-1.127.257-.288.66-.477 1.201-.477.587 0 .972.18 1.237.495.248.316.358.757.358 1.28v2.587h.669v-2.614c0-.694-.128-1.28-.467-1.703-.34-.424-.853-.667-1.632-.667-.697-.018-1.458.288-1.76.928v-2.614h-.678z" fill-rule="nonzero"/><path d="m87.397 138.48c0 1.361 1.026 2.551 2.612 2.551 1.595 0 2.622-1.19 2.622-2.551s-1.027-2.559-2.622-2.559c-1.586 0-2.612 1.198-2.612 2.55zm.669 0c0-1.108.852-1.937 1.943-1.937 1.1 0 1.943.829 1.943 1.937 0 1.109-.843 1.938-1.943 1.938-1.091 0-1.943-.829-1.943-1.929z" fill-rule="nonzero"/><path d="m101.037 134.235h-.679v2.803c-.22-.504-.935-1.117-2.016-1.117-1.476 0-2.54 1.108-2.54 2.55 0 1.361.972 2.569 2.549 2.569 1.027 0 1.687-.496 2.035-1.136v1.001h.651zm-4.565 4.236c0-1.09.834-1.937 1.971-1.937.55 0 1.045.207 1.393.558.357.343.568.811.568 1.361.019.541-.192 1.037-.55 1.397-.348.352-.852.568-1.402.568-1.284 0-1.971-.964-1.98-1.938z" fill-rule="nonzero"/><path d="m107.078 138.669c.073-.775-.202-1.523-.77-2.063-.468-.442-1.11-.685-1.806-.685-1.476 0-2.594 1.144-2.594 2.568 0 1.208.889 2.551 2.603 2.551.504 0 .99-.135 1.402-.397.422-.261.77-.658 1-1.18h-.706c-.321.63-.935 1-1.696 1-.834.009-1.888-.577-1.925-1.794zm-4.483-.531c.064-.883.853-1.649 1.916-1.649 1.017-.028 1.852.802 1.897 1.649z" fill-rule="nonzero"/><path d="m114.594 139.264c-.211.586-.843 1.145-1.787 1.154-1.064 0-1.944-.793-1.944-1.938 0-.559.23-1.081.56-1.397.412-.378.815-.549 1.393-.549.697 0 1.476.378 1.787 1.198h.697c-.339-1.162-1.402-1.811-2.512-1.811-1.494 0-2.603 1.126-2.603 2.559 0 1.298.981 2.56 2.649 2.56 1.183 0 2.145-.748 2.466-1.776z" fill-rule="nonzero"/><path d="m121.13 136.056h-.678v1.018c-.238-.549-.963-1.153-2.017-1.153-1.503 0-2.557 1.135-2.557 2.559 0 1.334.953 2.56 2.557 2.56.88 0 1.632-.406 2.017-1.136v1.001h.678zm-4.583 2.424c0-1.081.825-1.946 1.962-1.946.87 0 1.53.495 1.805 1.162.11.234.165.505.156.775 0 .262-.055.532-.165.766-.266.685-.907 1.181-1.778 1.181-1.357 0-1.971-1.055-1.98-1.929z" fill-rule="nonzero"/><path d="m125.246 137.273c-.046-.983-.816-1.352-1.503-1.352-.834 0-1.54.513-1.54 1.388.018.766.568 1.045 1.274 1.252.852.244 1.219.469 1.237 1.019.01.495-.385.91-.953.91-.495 0-.999-.297-1.027-.964h-.669c.009 1.018.889 1.514 1.687 1.514.935 0 1.668-.649 1.632-1.541-.037-1.037-.825-1.235-1.531-1.424-.596-.172-.954-.361-.972-.82-.018-.424.312-.785.853-.785.495 0 .843.289.843.803z" fill-rule="nonzero"/><path d="m131.342 136.056h-.678v1.018c-.239-.549-.963-1.153-2.017-1.153-1.503 0-2.558 1.135-2.558 2.559 0 1.334.954 2.56 2.558 2.56.88 0 1.632-.406 2.017-1.136v1.001h.678zm-4.583 2.424c0-1.081.825-1.946 1.961-1.946.871 0 1.531.495 1.806 1.162.11.234.165.505.156.775 0 .262-.055.532-.165.766-.266.685-.908 1.181-1.778 1.181-1.357 0-1.971-1.055-1.98-1.929z" fill-rule="nonzero"/><path d="m132.882 139.913h.715v.991h-.715z"/><path d="m41.334 151.719h3.758v-.658h-3.007v-2.379h2.989v-.658h-2.989v-2.316h3.007v-.658h-3.758z" fill-rule="nonzero"/><path d="m46.183 151.719h.669v-2.64c0-1.1.532-1.686 1.485-1.686h.064v-.658c-.577.019-1.219.208-1.576.929v-.793h-.642z" fill-rule="nonzero"/><path d="m53.993 146.871h-.678v1.018c-.239-.55-.963-1.154-2.017-1.154-1.503 0-2.557 1.136-2.557 2.56 0 1.334.953 2.559 2.557 2.559.88 0 1.632-.405 2.017-1.135v1h.678zm-4.583 2.424c0-1.081.825-1.947 1.961-1.947.871 0 1.531.496 1.806 1.163.11.234.165.505.156.775 0 .261-.055.532-.165.766-.266.685-.907 1.181-1.778 1.181-1.357 0-1.971-1.055-1.98-1.929z" fill-rule="nonzero"/><path d="m57.77 151.719h.678v-2.703c0-.514.119-.884.33-1.163.202-.288.587-.514 1.045-.496.504.009.853.199 1.082.514.192.297.275.613.256 1.154v2.694h.679v-2.694c0-.55.046-.821.293-1.163.229-.333.651-.505 1.082-.505.467 0 .779.154.981.406.284.315.366.775.366 1.289v2.667h.679v-2.694c0-.857-.129-1.379-.56-1.803-.339-.342-.825-.487-1.329-.487-.55 0-1.036.208-1.356.541-.184.189-.285.379-.358.514-.027-.054-.192-.379-.321-.505-.348-.387-.834-.55-1.347-.55-.559 0-1.247.289-1.559.902v-.766h-.641z" fill-rule="nonzero"/><path d="m70.979 146.871h-.678v2.739c0 1.01-.587 1.614-1.614 1.623-1.109.009-1.585-.694-1.585-1.74v-2.622h-.67v2.748c0 1.181.541 2.208 2.081 2.235.88.009 1.549-.369 1.824-1v.865h.642z" fill-rule="nonzero"/><path d="m72.684 153.558h.733l2.815-6.687h-.743l-1.595 3.92-1.549-3.92h-.724l1.906 4.758z" fill-rule="nonzero"/><path d="m79.742 151.719h.67v-4.317h1.081v-.531h-1.081v-1.821h-.67v1.821h-.971v.531h.971z" fill-rule="nonzero"/><path d="m87.094 146.871h-.678v1.018c-.238-.55-.963-1.154-2.017-1.154-1.503 0-2.557 1.136-2.557 2.56 0 1.334.953 2.559 2.557 2.559.88 0 1.632-.405 2.017-1.135v1h.678zm-4.583 2.424c0-1.081.825-1.947 1.962-1.947.87 0 1.53.496 1.805 1.163.11.234.165.505.156.775 0 .261-.055.532-.165.766-.266.685-.907 1.181-1.778 1.181-1.357 0-1.971-1.055-1.98-1.929z" fill-rule="nonzero"/><path d="m88.323 151.719h.669v-2.64c0-1.1.531-1.686 1.485-1.686h.064v-.658c-.578.019-1.219.208-1.577.929v-.793h-.641z" fill-rule="nonzero"/><path d="m96.114 145.05h-.678v2.803c-.22-.505-.935-1.118-2.017-1.118-1.476 0-2.539 1.109-2.539 2.551 0 1.361.972 2.568 2.548 2.568 1.027 0 1.687-.495 2.035-1.135v1h.651zm-4.565 4.236c0-1.091.834-1.938 1.971-1.938.55 0 1.045.208 1.393.559.358.343.569.811.569 1.361.018.541-.193 1.036-.55 1.397-.349.351-.853.568-1.403.568-1.283 0-1.971-.965-1.98-1.938z" fill-rule="nonzero"/><path d="m102.155 149.484c.074-.775-.201-1.523-.77-2.064-.467-.441-1.109-.685-1.806-.685-1.475 0-2.594 1.145-2.594 2.569 0 1.208.889 2.55 2.604 2.55.504 0 .99-.135 1.402-.396.422-.261.77-.658.999-1.181h-.706c-.32.631-.935 1.001-1.695 1.001-.835.009-1.889-.577-1.926-1.794zm-4.482-.531c.064-.884.852-1.65 1.916-1.65 1.017-.027 1.851.802 1.897 1.65z" fill-rule="nonzero"/><path d="m106.051 153.558h.733l2.815-6.687h-.743l-1.595 3.92-1.549-3.92h-.724l1.906 4.758z" fill-rule="nonzero"/><path d="m112.724 153.558h.679v-2.83c.229.505.935 1.126 2.026 1.126 1.531 0 2.53-1.189 2.53-2.541 0-1.253-.871-2.578-2.53-2.578-.944 0-1.66.442-2.063 1.145v-1.009h-.642zm4.556-4.263c0 1.108-.852 1.938-1.961 1.938-.55 0-1.045-.208-1.394-.55-.357-.352-.568-.838-.568-1.379 0-.55.211-1.036.55-1.388.358-.351.843-.568 1.393-.568 1.33 0 1.98 1.028 1.98 1.938z" fill-rule="nonzero"/><path d="m123.697 149.484c.073-.775-.202-1.523-.77-2.064-.467-.441-1.109-.685-1.806-.685-1.476 0-2.594 1.145-2.594 2.569 0 1.208.889 2.55 2.603 2.55.505 0 .99-.135 1.403-.396.422-.261.77-.658.999-1.181h-.706c-.321.631-.935 1.001-1.696 1.001-.834.009-1.888-.577-1.925-1.794zm-4.482-.531c.064-.884.852-1.65 1.915-1.65 1.018-.027 1.852.802 1.898 1.65z" fill-rule="nonzero"/><path d="m124.568 151.719h.669v-2.64c0-1.1.532-1.686 1.485-1.686h.064v-.658c-.577.019-1.219.208-1.576.929v-.793h-.642z" fill-rule="nonzero"/><path d="m132.36 145.05h-.679v2.803c-.22-.505-.935-1.118-2.016-1.118-1.476 0-2.54 1.109-2.54 2.551 0 1.361.972 2.568 2.549 2.568 1.026 0 1.686-.495 2.035-1.135v1h.651zm-4.565 4.236c0-1.091.834-1.938 1.97-1.938.55 0 1.045.208 1.394.559.357.343.568.811.568 1.361.018.541-.192 1.036-.55 1.397-.348.351-.852.568-1.402.568-1.284 0-1.971-.965-1.98-1.938z" fill-rule="nonzero"/><path d="m133.606 145.978h.679v-.928h-.679zm0 5.741h.679v-4.848h-.679z" fill-rule="nonzero"/><path d="m140.307 149.484c.074-.775-.201-1.523-.77-2.064-.467-.441-1.109-.685-1.806-.685-1.475 0-2.594 1.145-2.594 2.569 0 1.208.889 2.55 2.604 2.55.504 0 .99-.135 1.402-.396.422-.261.77-.658.999-1.181h-.706c-.32.631-.935 1.001-1.695 1.001-.835.009-1.889-.577-1.925-1.794zm-4.482-.531c.064-.884.852-1.65 1.916-1.65 1.017-.027 1.851.802 1.897 1.65z" fill-rule="nonzero"/><path d="m141.178 151.719h.669v-2.64c0-1.1.532-1.686 1.485-1.686h.064v-.658c-.577.019-1.219.208-1.576.929v-.793h-.642z" fill-rule="nonzero"/><path d="m143.736 149.295c0 1.361 1.026 2.55 2.612 2.55 1.595 0 2.622-1.189 2.622-2.55s-1.027-2.56-2.622-2.56c-1.586 0-2.612 1.199-2.612 2.551zm.669 0c0-1.109.852-1.938 1.943-1.938 1.1 0 1.943.829 1.943 1.938 0 1.108-.843 1.938-1.943 1.938-1.091 0-1.943-.83-1.943-1.929z" fill-rule="nonzero"/><path d="m149.896 151.719h.678v-2.739c0-1.01.587-1.614 1.604-1.623 1.109-.018 1.586.694 1.586 1.74v2.622h.669v-2.757c0-1.181-.541-2.208-2.071-2.227-.88-.018-1.55.37-1.834 1.001.009-.325.009-.595.009-.865h-.641z" fill-rule="nonzero"/><path d="m53.626 160.299c.074-.775-.201-1.523-.77-2.064-.467-.441-1.109-.685-1.805-.685-1.476 0-2.595 1.145-2.595 2.569 0 1.207.89 2.55 2.604 2.55.504 0 .99-.135 1.402-.396.422-.262.77-.658.999-1.181h-.705c-.321.631-.935 1-1.696 1-.834.009-1.889-.576-1.925-1.793zm-4.482-.532c.064-.883.852-1.649 1.916-1.649 1.017-.027 1.851.802 1.897 1.649z" fill-rule="nonzero"/><path d="m54.497 155.865h.678v6.669h-.678z"/><path d="m63.041 160.894c-.211.586-.844 1.144-1.788 1.153-1.063 0-1.943-.793-1.943-1.937 0-.559.229-1.082.559-1.397.412-.379.816-.55 1.393-.55.697 0 1.476.379 1.788 1.199h.696c-.339-1.163-1.402-1.812-2.511-1.812-1.494 0-2.604 1.127-2.604 2.56 0 1.298.981 2.559 2.65 2.559 1.182 0 2.145-.748 2.465-1.775z" fill-rule="nonzero"/><path d="m69.577 157.685h-.679v1.019c-.238-.55-.962-1.154-2.016-1.154-1.504 0-2.558 1.136-2.558 2.56 0 1.334.953 2.559 2.558 2.559.88 0 1.631-.405 2.016-1.135v1h.679zm-4.584 2.425c0-1.082.825-1.947 1.962-1.947.871 0 1.531.496 1.806 1.163.11.234.165.504.156.775 0 .261-.055.531-.165.766-.266.685-.908 1.18-1.779 1.18-1.356 0-1.971-1.054-1.98-1.928z" fill-rule="nonzero"/><path d="m70.805 162.534h.678v-2.704c0-.513.119-.883.33-1.162.202-.289.587-.514 1.045-.496.504.009.853.198 1.082.514.192.297.275.613.257 1.153v2.695h.678v-2.695c0-.549.046-.82.293-1.162.229-.334.651-.505 1.082-.505.467 0 .779.153.981.406.284.315.366.775.366 1.288v2.668h.679v-2.695c0-.856-.129-1.379-.559-1.802-.34-.343-.825-.487-1.33-.487-.55 0-1.035.208-1.356.541-.184.189-.284.379-.358.514-.027-.054-.192-.379-.321-.505-.348-.388-.834-.55-1.347-.55-.559 0-1.247.289-1.558.901v-.766h-.642z" fill-rule="nonzero"/><path d="m79.477 156.793h.678v-.928h-.678zm0 5.741h.678v-4.849h-.678z" fill-rule="nonzero"/><path d="m81.383 162.534h.679v-2.74c0-1.009.586-1.613 1.604-1.622 1.109-.018 1.586.694 1.586 1.739v2.623h.669v-2.758c0-1.18-.541-2.208-2.072-2.226-.88-.018-1.549.37-1.833 1.001.009-.325.009-.595.009-.866h-.642z" fill-rule="nonzero"/><path d="m86.838 160.11c0 1.361 1.026 2.55 2.612 2.55 1.595 0 2.622-1.189 2.622-2.55s-1.027-2.56-2.622-2.56c-1.586 0-2.612 1.199-2.612 2.551zm.669 0c0-1.109.852-1.938 1.943-1.938 1.1 0 1.943.829 1.943 1.938 0 1.108-.843 1.937-1.943 1.937-1.091 0-1.943-.829-1.943-1.928z" fill-rule="nonzero"/><path d="m100.478 155.865h-.679v2.803c-.22-.505-.935-1.118-2.016-1.118-1.476 0-2.54 1.109-2.54 2.551 0 1.361.972 2.568 2.549 2.568 1.026 0 1.686-.495 2.035-1.135v1h.651zm-4.565 4.236c0-1.091.834-1.938 1.97-1.938.55 0 1.045.207 1.394.559.357.342.568.811.568 1.361.018.54-.192 1.036-.55 1.397-.348.351-.852.567-1.402.567-1.284 0-1.971-.964-1.98-1.937z" fill-rule="nonzero"/><path d="m106.519 160.299c.073-.775-.202-1.523-.77-2.064-.468-.441-1.11-.685-1.806-.685-1.476 0-2.595 1.145-2.595 2.569 0 1.207.89 2.55 2.604 2.55.504 0 .99-.135 1.402-.396.422-.262.77-.658 1-1.181h-.706c-.321.631-.935 1-1.696 1-.834.009-1.889-.576-1.925-1.793zm-4.483-.532c.064-.883.852-1.649 1.916-1.649 1.017-.027 1.852.802 1.897 1.649z" fill-rule="nonzero"/><path d="m109.938 162.534h.669v-2.641c0-1.099.532-1.685 1.485-1.685h.064v-.658c-.577.018-1.219.208-1.577.929v-.794h-.641z" fill-rule="nonzero"/><path d="m117.592 160.299c.073-.775-.202-1.523-.77-2.064-.468-.441-1.109-.685-1.806-.685-1.476 0-2.594 1.145-2.594 2.569 0 1.207.889 2.55 2.603 2.55.504 0 .99-.135 1.403-.396.421-.262.77-.658.999-1.181h-.706c-.321.631-.935 1-1.696 1-.834.009-1.888-.576-1.925-1.793zm-4.483-.532c.065-.883.853-1.649 1.916-1.649 1.018-.027 1.852.802 1.898 1.649z" fill-rule="nonzero"/><path d="m123.395 157.685h-.67v1.001c-.275-.595-1.026-1.136-1.998-1.136-1.503 0-2.576 1.118-2.576 2.569 0 1.397 1.036 2.55 2.576 2.55.953 0 1.641-.477 1.989-1.162v.621c0 1.208-.962 1.929-1.907 1.929-.311 0-.733-.099-1.09-.351-.294-.199-.468-.433-.587-.64h-.779c.311.874 1.21 1.568 2.438 1.568.669 0 1.384-.279 1.87-.748.431-.406.734-.991.734-1.911zm-4.566 2.416c0-1.136.88-1.929 1.962-1.929.706 0 1.201.288 1.504.676.311.388.449.865.449 1.271-.009.531-.211 1.018-.55 1.37-.349.351-.825.558-1.385.558-1.274 0-1.98-.955-1.98-1.937z" fill-rule="nonzero"/><path d="m124.614 162.534h.669v-2.641c0-1.099.532-1.685 1.485-1.685h.064v-.658c-.577.018-1.219.208-1.577.929v-.794h-.641z" fill-rule="nonzero"/><path d="m132.268 160.299c.073-.775-.202-1.523-.77-2.064-.468-.441-1.109-.685-1.806-.685-1.476 0-2.594 1.145-2.594 2.569 0 1.207.889 2.55 2.603 2.55.504 0 .99-.135 1.403-.396.421-.262.77-.658.999-1.181h-.706c-.321.631-.935 1-1.696 1-.834.009-1.888-.576-1.925-1.793zm-4.483-.532c.065-.883.853-1.649 1.916-1.649 1.018-.027 1.852.802 1.898 1.649z" fill-rule="nonzero"/><path d="m136.026 158.902c-.046-.982-.816-1.352-1.503-1.352-.834 0-1.54.514-1.54 1.388.018.766.568 1.046 1.274 1.253.853.243 1.219.468 1.238 1.018.009.496-.385.91-.954.91-.495 0-.999-.297-1.026-.964h-.67c.01 1.019.89 1.514 1.687 1.514.935 0 1.668-.649 1.632-1.541-.037-1.036-.825-1.235-1.531-1.424-.596-.171-.953-.36-.972-.82-.018-.424.312-.784.853-.784.495 0 .843.288.843.802z" fill-rule="nonzero"/><path d="m136.87 160.11c0 1.361 1.026 2.55 2.612 2.55 1.595 0 2.622-1.189 2.622-2.55s-1.027-2.56-2.622-2.56c-1.586 0-2.612 1.199-2.612 2.551zm.669 0c0-1.109.852-1.938 1.943-1.938 1.1 0 1.944.829 1.944 1.938 0 1.108-.844 1.937-1.944 1.937-1.091 0-1.943-.829-1.943-1.928z" fill-rule="nonzero"/><path d="m143.341 161.543h.715v.991h-.715z"/></g><path d="m17.637 8.127h160.177v78.433h-160.177z" fill="url(#a)"/><path d="m138.419 100.169c0 5.143-17.718 9.311-39.574 9.311s-39.575-4.168-39.575-9.311 17.719-9.311 39.575-9.311 39.574 4.168 39.574 9.311" fill="#9379b7" fill-rule="nonzero"/><path d="m17.651 108.894c6.797-4.375 13.955-8.104 21.361-11.131.014-1.062.028-2.124.04-3.184 1.093.597 2.371.795 3.576.552-.122-1.147.041-2.327.47-3.385 1.705.563 3.353 1.328 4.904 2.276-.23-2.445.431-4.976 1.814-6.936.445.631.89 1.261 1.335 1.893.386-.879.771-1.758 1.158-2.635l1.334 1.735c4.783-5.745 11.081-10.019 17.968-12.191.123-3.122.936-6.21 2.354-8.94 2.117.583 4.233 1.167 6.35 1.751.932-1.314.225-3.352-1.051-4.274s-2.897-1.032-4.434-1.112c-18.95-.991-37.914-1.88-56.887-1.912" fill="#356437" fill-rule="nonzero"/><path d="m177.574 108.267c-6.797-4.341-13.955-8.043-21.362-11.048-.013-1.053-.028-2.107-.04-3.16-1.093.593-2.371.79-3.576.549.123-1.139-.041-2.31-.47-3.36-1.705.559-3.353 1.319-4.904 2.26.23-2.427-.431-4.939-1.814-6.885-.445.627-.889 1.252-1.335 1.879-.385-.872-.771-1.744-1.158-2.615-.444.574-.889 1.147-1.334 1.722-4.782-5.701-11.081-9.943-17.967-12.099-.124-3.098-.937-6.164-2.354-8.872-2.118.578-4.234 1.158-6.351 1.737-.932-1.303-.224-3.326 1.051-4.242 1.276-.914 2.897-1.024 4.435-1.104 18.95-.982 37.913-1.865 56.886-1.897" fill="#356437" fill-rule="nonzero"/><path d="m17.357 23.902c1.867-4.875 3.395-9.92 4.562-15.071 1.61 5.775 3.218 11.55 4.826 17.325.611-2.334 1.221-4.668 1.832-7.003-.339.931-1.185-.709-.833-1.633.821-2.152 1.641-4.306 2.462-6.457 2.103 6.35 4.644 12.511 7.591 18.409-1.074.16-2.149.321-3.223.481 1.097 1.667 2.504 3.066 4.101 4.077 1.552-6.729 3.104-13.459 4.656-20.19 2.413 8.176 5.807 15.973 10.054 23.11 1.266-4.477 2.533-8.953 3.797-13.429 3.113 11.283 8.957 21.57 16.71 29.424-2.979-.483-5.961-.964-8.942-1.446 2.599 3.476 5.198 6.952 7.797 10.428-2.785.012-5.57.025-8.355.037 1.589 1.57 3.178 3.14 4.767 4.71-5.097.116-10.209-1.851-14.204-5.463.028 4.488.055 8.976.082 13.464.009 1.453-.001 2.989-.651 4.238s-2.186 2.019-3.242 1.207c.068-2.673-.228-5.356-.876-7.926-2.9.877-5.983.962-8.918.244.784 1.444 2.047 2.541 3.475 3.019-2.255.628-4.584.909-6.904.834-.654 1.929-.145 4.093.423 6.056.568 1.965 1.198 4.047.764 6.054-.435 2.008-2.456 3.699-4.064 2.745l-.976-25.543c-1.592 2.313-3.507 4.337-5.652 5.968 1.468-3.303 2.936-6.607 4.403-9.911-1.241 1.964-3.717 2.764-5.676 1.837.655.333 1.229.871 1.645 1.538-2.153.571-4.307 1.143-6.46 1.715 1.287 2.394 2.981 4.503 4.96 6.174-1.51.028-3.02.057-4.532.085.849 1.194 1.994 2.112 3.266 2.618-1.986.832-2.657 3.713-2.423 6.111.235 2.398 1.074 4.731.934 7.139-.138 2.407-1.849 5.001-3.93 4.574.001-5.494.004-10.987.007-16.481-1.075-.414-2.15-.829-3.226-1.244" fill="#103c58" fill-rule="nonzero"/><path d="m178.023 22.168c-1.868-4.875-3.396-9.92-4.563-15.071-1.609 5.775-3.217 11.549-4.826 17.324-.611-2.334-1.221-4.668-1.831-7.002.339.931 1.184-.71.833-1.634-.821-2.152-1.641-4.305-2.462-6.457-2.104 6.35-4.645 12.512-7.592 18.409 1.074.161 2.15.322 3.224.481-1.097 1.667-2.504 3.067-4.101 4.078-1.553-6.73-3.105-13.46-4.656-20.191-2.413 8.176-5.807 15.974-10.054 23.11l-3.798-13.428c-3.113 11.283-8.956 21.57-16.71 29.424 2.98-.483 5.962-.965 8.943-1.447-2.599 3.477-5.198 6.953-7.797 10.429l8.355.036c-1.59 1.57-3.178 3.141-4.767 4.711 5.097.116 10.209-1.851 14.203-5.464-.027 4.489-.054 8.977-.081 13.465-.009 1.453.001 2.988.651 4.237.65 1.25 2.186 2.02 3.241 1.208-.067-2.673.229-5.357.877-7.927 2.9.879 5.983.963 8.918.245-.784 1.444-2.047 2.54-3.476 3.019 2.255.628 4.585.909 6.905.834.654 1.928.144 4.093-.423 6.056-.568 1.964-1.198 4.047-.764 6.053.434 2.008 2.456 3.7 4.064 2.746.325-8.514.651-17.029.976-25.544 1.591 2.314 3.506 4.337 5.652 5.969-1.468-3.304-2.936-6.608-4.404-9.911 1.242 1.963 3.718 2.763 5.677 1.837-.655.333-1.229.871-1.645 1.538 2.152.571 4.306 1.142 6.459 1.714-1.286 2.395-2.98 4.504-4.959 6.174 1.51.029 3.02.057 4.531.086-.849 1.193-1.993 2.111-3.265 2.617 1.986.832 2.657 3.713 2.423 6.112-.235 2.398-1.074 4.731-.934 7.139.138 2.407 1.848 5.001 3.93 4.574-.002-5.494-.005-10.988-.007-16.481 1.075-.415 2.15-.83 3.225-1.244" fill="#103c58" fill-rule="nonzero"/><path d="m136.854 27.683c.083.07.166.141.248.211.251-.317.5-.633.751-.95-.045-.036-.089-.071-.135-.107-.287.282-.575.564-.864.846m-2.202 2.967c.55-.193.964-.511.748-1.17-.081-.245-.421-.614-.563-.58-.293.071-.654.322-.768.595-.223.535.077.928.583 1.155m-24.957 36.711c-.866.123-1.758.248-2.649.374.006.108.012.215.017.324.769.396 1.586.288 2.398.067.324-.088.541-.315.234-.765m-43.745-39.135c-.392.194-.767.266-.951.497-.235.296-.397.715-.426 1.095-.013.168.372.524.584.53.96.025 1.214-.558.793-2.122m43.726 56.459c.863.21 1.637.399 2.41.587-.694-.875-1.141-1.925-2.323-2.306-.027.539-.052 1.017-.087 1.719m.931 4.369c.574.091 1.016.235 1.448.211.523-.029 1.066-.148 1.278-.78.187-.547-.012-1.003-.377-1.36-.83-.811-1.842-1.119-3.151-1.111.286 1.081.536 2.028.802 3.04m-9.972-36.042c-.031.08-.062.16-.094.24 1.083 1.104 2.167 2.209 3.4 3.465 1.023-1.229 1.938-2.328 2.775-3.335-1.878-.114-3.979-.242-6.081-.37m13.871-31.272c-.249-.677-.376-1.261-.657-1.754-1.303-2.281-2.842-4.369-4.705-6.22-2.034-2.023-4.328-3.297-7.374-3.178 1.214.466 2.17 1.074 2.794 2.136.105.178.338.381.518.389 1.131.041 1.937.847 2.913 1.243 1.746.711 2.94 1.994 3.646 3.756.555 1.385 1.063 2.788 1.617 4.251zm-8.681 62.987c-.342-1.256-.658-2.42-.999-3.681-.686-.392-1.472-.843-2.322-1.329-.42 1.547-1.85 2.069-2.716 3.088 1.25 2.027 3.189 2.648 6.037 1.922m27.108-71.924c-3.662 1.648-6.243 4.55-8.783 7.776 1.375.46 2.402 1.28 3.789 1.414.878-3.532 2.352-6.685 4.994-9.19m-26.957 73.011c-.081-.019-.166-.064-.243-.053-2.293.341-4.452.315-6.292-1.539-.487-.49-1.3-1.178-2.272-.558.02 1.168.632 2.111 1.166 3.096.368.68.859 1.135 1.608 1.303.991.222 1.974.478 2.963.7 2.009.45 3.252-.748 3.07-2.949m-10.855-67.717c1.456-1.104 2.661-2.187 4.019-3.002 1.328-.797 2.812-1.321 4.278-1.988-1.172-1.465-2.728-1.862-4.302-2.056-.515-.064-1.188.335-1.634.714-1.879 1.594-2.242 3.825-2.361 6.332m8.196 51.039c-1.406-2.151-3.403-2.877-5.619-3.166-.292-.037-.675-.024-.894.139-1.151.855-2.272 1.753-2.949 3.094-.191.38-.201.686.185.927 1.869-1.652 2.805-2.301 3.311-2.287-.096 1.442-1.484 2.626-.843 4.292.648-.152.842-.688 1.097-1.137.22-.39.364-.828.584-1.22.199-.351.555-.548.889-.283.182.146.268.526.257.794-.017.353-.101.746-.281 1.041-.31.501-.16.889.195 1.204.399.353.757.058 1.043-.236.997-1.023 1.977-2.065 3.025-3.162m46.847-46.508c-.663-1.501-1.427-1.989-2.868-1.751-2.963.491-5.416 1.912-7.162 4.468-.807 1.184-1.542 2.421-2.174 3.419.183 1.356.33 2.45.477 3.545.442-.615.562-1.307.911-1.842 1.056-1.621 2.117-3.25 3.327-4.748 1.661-2.056 3.728-3.357 6.499-2.95.301.043.628-.085.99-.141m-89.162-8.655c1.951.419 2.888 1.759 3.85 2.985.997 1.269 1.804 2.695 2.697 4.056.929-.94.952-.944 1.834-.153-.36.48-.725.967-1.102 1.471.178.253.329.464.492.696 1.375-.805 2.692-1.578 3.993-2.34-1.465-2.418-3.438-4.187-5.432-5.928-1.824-1.593-3.857-1.898-6.332-.787m46.955 45.937c-.437-1.763-.145-2.149 1.493-2.33 1.183-.13 2.364-.358 3.52-.65 1.736-.439 3.451-.974 5.325-1.511-2.974-.698-5.65-1.927-8.266-3.407-2.485 2.143-4.827 4.351-6.918 6.77 1.631.38 3.194.744 4.846 1.128m-4.996-2.621c-2.286-2.801-4.771-5.264-7.938-6.55-2.418 1.368-4.725 2.674-7.242 4.098.5 0 .784-.001 1.068 0 2.622.004 5.219.102 7.726 1.068 1.397.537 1.489.555 1.132 2.001-.075.304-.216.589-.321.885-.19.538-.375 1.078-.554 1.597 1.605-.352 3.092-.68 4.464-.982.569-.724 1.069-1.359 1.665-2.117m-7.275-7.323c1.099.584 2.023 1.111 2.978 1.566.392.187.847.247 1.28.319 2.681.44 5.385.241 8.081.229.335-.001.668-.297.983-.448-2.077-1.749-4.074-3.394-6.025-5.097-.525-.459-.941-1.067-1.343-1.652-.413-.601-.748-1.259-1.189-2.015-.99 2.869-2.898 4.867-4.765 7.098m37.506-5.457c1.046-.19 2.108-.318 3.135-.584 2.063-.532 3.372-1.929 4.01-3.988.29-.933-.163-2.114-1.04-2.368-1.045-.302-2.132-.675-3.254-.287-.619.214-1.326.741-1.836.585-1.012-.308-1.692.315-2.505.535-1.351.364-2.182 1.305-2.637 2.649-.348 1.034-.303 1.484.53 2.162 1.037.846 2.239 1.272 3.597 1.296m-10.128 37.361c.987.511 1.898.293 2.816.134 2.325-.401 4.363-1.44 5.691-3.427 1.879-2.812 2.262-6.06 2.003-9.409-.172-2.215-.509-4.44-.422-6.646.117-2.922.225-5.87.945-8.791-.412.218-.745.454-1.113.575-1.016.333-1.328 1.14-1.38 2.104-.102 1.899-.243 3.788-.126 5.707.193 3.136.205 6.287.215 9.431.006 2.003-.528 3.904-1.717 5.505-1.327 1.792-3.018 2.927-5.384 2.416-.497.78-.999 1.571-1.528 2.401m-27.877-16.315c.684-.191 1.149-.3 1.601-.452 1.148-.385 2.163.179 3.227.437 1.065.257 1.986.748 2.762 1.533.41.413.791.86 1.227 1.242.38.333 1.008.506 1.19.91.342.754.693.409 1.092.29.266-1.56-.784-2.343-1.672-3.164.705-.909.705-.909 1.479-.386 1.262.852 2.056.878 2.972.072-.142-1.4-1.957-1.476-2.236-2.983.505.082.924.188 1.345.208.412.02.708-.197.602-.671-.138-.624-.338-1.207-.975-1.531-1.581-.806-3.317-1.29-4.994-1.012-2.012.334-4.173.346-5.955 1.658-.117.086-.318.054-.483.077-.378 1.21-.743 2.372-1.182 3.772m10.821 16.13c.33 1.334.6 2.467.893 3.595.387 1.491.196 2.841-1.069 3.793-.706.529-1.514.947-2.327 1.282-2.307.951-4.713 1.538-7.171 1.923-.915.143-1.801.417-2.485 1.119.045.184.052.325.11.443.854 1.769 3.194 2.911 5.217 2.286 2.274-.704 4.489-1.626 6.702-2.523.896-.364 1.754-.86 2.569-1.393 1.15-.751 1.46-1.834 1.064-3.192-.537-1.836-.817-3.717-.729-5.645.013-.307-.029-.617-.05-1.009-.849-.212-1.659-.413-2.724-.679m-19.37 5.379c-.233.419-.424.775-.624 1.123-1.035 1.805-2.553 3.126-4.126 4.405-1.146.932-2.263 1.906-3.332 2.928-.838.802-.798 1.38.037 2.178.387.371.811.707 1.248 1.016 2.67 1.889 5.498 3.481 8.504 4.746 1.347.567 2.622 1.335 3.993 1.828 1.795.646 3.63-.335 4.419-2.226-.469-.77-1.133-1.404-1.971-1.687-1.168-.394-2.386-.636-3.591-.896-1.339-.289-2.762-.331-4.016-.83-1.719-.682-3.333-1.656-4.951-2.581-.826-.472-.845-.657-.428-1.528.29-.606.612-1.227 1.049-1.719 1.045-1.175 2.191-2.253 3.249-3.416.816-.898 1.589-1.847 1.718-3.153.011-.113.001-.23.001-.339-.412.053-.763.098-1.179.151m28.458-.391c.281 1.587.807 2.947 1.733 4.171.678.896.425 1.411-.666 1.806-.708.257-1.439.489-2.099.85-2.636 1.442-5.572 2.052-8.305 3.216-1.101.468-2.174 1.016-3.223 1.599-.371.206-.653.604-.931.951-.368.461-.323.939.118 1.329.602.535 1.226 1.045 1.845 1.562.689.577 1.51.625 2.276.356.995-.35 2.015-.742 2.884-1.333 3.361-2.282 6.669-4.645 9.989-6.989.928-.656 1.103-1.598.388-2.598-1.03-1.441-1.932-2.924-2.1-4.749-.674-.06-1.238-.111-1.909-.171m9.844-8.113c2.597-.256 2.935-.456 4.439-2.47 1.083-1.447 1.343-3.22 1.4-4.896.099-2.998-.133-6.01-.274-9.014-.078-1.686-.26-3.363.089-5.045.104-.507.016-1.054.016-1.617-1.84.279-3.576.543-5.387.818.181.734.286 1.405.51 2.033.763 2.136.949 4.366.954 6.601.009 3.228-.119 6.457-.177 9.685-.023 1.251-.256 2.366-1.57 2.778zm-65.292-63.515c-.111.227-.312.493-.373.789-.597 2.913-.832 5.83-.182 8.783.624 2.834 1.19 5.679 2.384 8.392.369-.417.737-.758 1.011-1.165.244-.363.529-.795.544-1.205.054-1.651.666-2.868 2.214-3.5.154-.062.3-.186.409-.318.77-.923 1.53-1.856 2.296-2.79-.194-.268-.317-.455-.46-.624-.045-.053-.146-.057-.221-.083-1.15 1.044-2.054 1.321-3.127.862.921-.668 1.787-1.296 2.639-1.914-1.106-2.533-2.542-4.629-4.408-6.406-.744-.708-1.577-1.192-2.726-.821m75.597 12.297c.812-.727 1.669-1.453 2.471-2.237.311-.303.574-.71.727-1.12.666-1.788 1.243-3.616 1.329-5.542.085-1.869.095-3.744-.965-5.418-.323-.509-.61-1.142-1.29-.955-1.015.279-2.096.551-2.964 1.123-2.815 1.852-4.509 4.577-5.311 7.89-.106.435-.123.914-.076 1.36.03.279.194.629.41.788 1.433 1.066 2.898 2.088 4.349 3.129.399.285.786.585 1.32.982m-11.15 50.19c-2.001.268-3.741.597-5.495.709-1.759.114-3.543.144-5.295-.026-2.853-.275-5.461-1.457-8.022-2.707-.996-.486-1.978-1.019-2.914-1.62-1.167-.751-1.293-.778-2.53.26.354.745.617 1.579 1.097 2.248 1.003 1.398 2.202 2.609 3.731 3.427 1.57.841 3.199 1.451 4.997 1.476.107.001.23.084.315.165.551.522 1.079 1.07 1.643 1.576.73.655 1.455 1.322 2.238 1.905 1.422 1.061 2.907.914 4.376.077 2.253-1.284 3.745-3.303 5-5.535.32-.569.532-1.2.859-1.955m-31.175-10.034c1.197-1.491 3.454-7.568 3.797-10.026-.81-.666-1.758-1.016-2.786-1.123-1.933-.199-3.864-.431-5.803-.524-1.164-.056-2.333-.226-3.514-.019-.999.176-2.019.247-3.033.283-1.362.05-1.584.18-1.967 1.512-.088.305-.115.627-.191.935-.239.972-.049 1.818.735 2.449.937.754 1.837 1.593 2.871 2.178 1.348.764 2.803 1.336 4.227 1.952 1.87.809 3.756 1.582 5.664 2.383m-9.367 14.744c.491 1.273 1.184 2.416 2.29 3.23.295.216.798.41 1.085.295.462-.186.919-.199 1.37-.307.798-.19 1.734-.429 2.274-.991 1.851-1.93 4.125-3.217 6.234-4.763.551 1.33-.908 1.57-1.261 2.467h2.152c.088-.441.157-.786.279-1.398.209.578.317.878.436 1.203 1.187-.212 1.972-.956 2.697-1.744.586-.635.594-1.127.011-1.797-.813-.934-1.383-1.994-1.858-3.131-.133-.32-.349-.604-.548-.942-.266.104-.529.125-.655.27-.749.864-1.763 1.187-2.791 1.451-3.076.793-6.196.91-9.335.522-.393-.048-.776-.229-1.167-.242-2.962-.108-5.761-1.177-8.846-1.58.142.534.172 1.055.408 1.444.418.689.871 1.407 1.469 1.92 1.491 1.282 3.06 2.47 4.625 3.659.286.219.692.272 1.131.434m18.644-10.41c.433 1.127 1.184 1.663 2.044 2.091 1.198.593 2.372 1.238 3.579 1.811 2.154 1.023 4.411 1.571 6.802 1.633 3.076.081 6.105-.195 9.116-.828.796-.168 1.31-.567 1.499-1.338.169-.701.308-1.426.335-2.145.104-2.639.17-5.281.219-7.922.013-.738-.077-1.478-.138-2.516-.84 2.046-1.876 3.553-3.395 4.541-1.604 1.044-3.328 1.911-5.059 2.718-1.728.807-3.495 1.561-5.44 1.673-.819.047-1.392-.316-1.561-1.118-.091-.432-.102-.882-.152-1.353-.866.137-1.646.259-2.363.372-.596 1.516-.941 1.68-2.365 1.18-.451-.158-.889-.36-1.411-.575-.573.596-1.133 1.177-1.71 1.776m6.507-12.924c.378 1.74.407 1.721 1.23 2.981.247.379.528 1.063.364 1.328-.358.581-.123 1.041-.045 1.556.236 1.551.783 3.041.793 4.64.004.778.434 1.15 1.093 1.029.91-.165 1.86-.277 2.699-.64 2.037-.882 4.068-1.806 6.005-2.895.984-.552 1.91-1.376 2.596-2.289 1.24-1.653 2.004-3.515 1.378-5.713-.533-1.871-1.183-2.487-3.041-2.652-.177-.015-.354-.011-.531-.019-2.011-.103-3.945.32-5.875.84-1.918.517-3.855.964-5.78 1.458-.287.073-.553.232-.886.376m-26.733 23.978c-1.092-.921-2.026-1.751-3.014-2.508-.235-.181-.682-.229-.979-.142-2.443.704-4.351-.215-5.914-2.062-1.497-1.768-2.498-3.842-3.422-5.98-.994-2.299-1.167-4.621-.849-7.074.163-1.251.198-2.562.023-3.805-.305-2.174-1.154-4.147-2.323-6.028-1.289-2.077-3.083-3.04-5.35-3.334-.39-.051-.811-.074-1.157-.24-.838-.4-1.663-.292-2.454.022-1.149.455-2.338.881-3.371 1.547-.992.639-1.948 1.409-2.577 2.503-1.137 1.978-1.351 4.113-.947 6.306.311 1.69 1.227 3.023 2.783 3.781 1.194.581 2.611-.036 2.923-1.228.23-.872-.132-1.377-1.034-1.434-.266-.016-.536.004-.797-.042-1.539-.271-2.217-1.345-1.947-2.949.323-1.925 1.103-3.533 2.759-4.61.297-.193.524-.498.815-.702 1.755-1.233 3.631-1.897 5.759-1.177 2.07.701 3.332 2.277 3.903 4.33.765 2.754.82 5.589.152 8.387-.47 1.972-.281 3.839.327 5.756.74 2.333 1.959 4.37 3.275 6.377 1.139 1.738 2.577 3.091 4.404 4.046 2.887 1.505 5.791 1.9 9.012.26m11.018-14.29c-1.155-.501-2.253-.97-3.345-1.453-2.393-1.059-4.863-1.97-7.146-3.237-1.751-.971-3.597-2.059-4.199-4.312-.01-.038-.136-.042-.286-.085-.222.416-.484.836-.68 1.285-.833 1.907-1.656 3.819-2.465 5.737-.527 1.248-.994 2.523-1.547 3.758-.404.904-.066 1.552.633 1.978.943.574 1.917 1.165 2.953 1.485 2.704.838 5.452 1.448 8.287 1.752 2.662.285 5.288.353 7.933.033 1.419-.172 2.732-.632 3.889-1.534.372-.291.827-.469 1.269-.713-.076-.237-.168-.534-.266-.828-.007-.023-.064-.028-.281-.117-.075.122-.163.347-.315.504-.646.663-.87.637-1.536.023-.583-.54-.802-1.216-.72-2.097-.685.56-1.285.646-1.847.207-.821-.641-.558-1.528-.331-2.386m.869-43.08c.482.202 1.015.269 1.066.469.283 1.089 1.343 1.533 1.8 2.463.938 1.909 1.949 3.78 2.851 5.707.367.786.875 1.166 1.684 1.347 2.976.668 5.517-.274 7.802-2.16 1.685-1.391 2.68-3.234 3.196-5.375.403-1.667.479-3.325-.065-4.977-.271-.819-.504-1.653-.804-2.461-.314-.847-.621-1.712-1.049-2.5-.978-1.801-2.906-2.8-5.085-2.068-2.197.738-3.794 2.136-4.857 4.182-1.032 1.986-2.344 3.652-4.401 4.569-.632.281-1.295.49-2.138.804m43.616 7.289c-2.233.465-3.642.028-4.335-1.464-.305-.655-.358-1.513-.276-2.251.061-.548.522-1.051.816-1.593-.843-.58-1.756-1.216-2.677-1.839-1.368-.925-2.705-1.907-4.123-2.74-1.266-.742-2.61-1.175-4.149-1.228-1.084-.039-2.187-.304-3.281-.125-1.046.171-2.065.512-3.109.704-1.138.21-2.048.765-2.8 1.591.516 2.413-.084 4.602-.956 6.718-.884 2.15-2.612 3.525-4.43 4.795-2.375 1.661-4.983 1.525-7.656.936.179 1.368.328 2.581.499 3.79.338 2.379 1.331 4.446 3.055 6.054 2.296 2.143 4.843 3.945 7.607 5.407 3.13 1.655 6.426 2.774 9.905 3.359 2.813.474 5.613.209 8.278-.58 4.158-1.231 7.414-3.877 9.559-7.787.703-1.282 1.558-2.58 1.401-4.018-.873.622-1.75 1.402-2.753 1.925-1.598.83-3.371 1.089-5.149 1.162-2.009.084-3.557-.949-4.896-2.352-.489-.512-.695-1.183-.404-1.896.612-1.5 1.365-2.913 2.959-3.513 1.744-.657 3.511-1.253 5.285-1.822.36-.117.793-.036 1.187.009.848.098 1.692.234 2.834.397-.894-1.36-1.633-2.484-2.391-3.639m-73.856-.845c-2.381 2.685-3.72 5.693-4.247 9.12-.322 2.093.019 3.957 1.298 5.659 1.279 1.701 2.872 3.021 4.721 3.937 2.836 1.406 5.803 2.48 8.916 3.079.606.117 1.201.3 1.802.448 1.156.285 2.302.656 3.475.828 1.717.25 3.48.396 5.152-.193 3.483-1.227 6.816-2.709 9.636-5.292 1.751-1.601 3.183-3.396 4.263-5.485.638-1.237 1.125-2.578 1.154-4.023.031-1.57-.337-3.082-.871-4.52-.58-1.566-1.333-3.066-2.045-4.577-.306-.65-.661-1.285-1.065-1.873-.987-1.435-2.275-2.532-3.785-3.349-.535-.289-.924-.673-1.108-1.239.415-.803 1.033-.69 1.645-.508.786.234 1.573.356 2.334-.023 1.571-.785 3.059-1.676 3.845-3.411.187-.412.432-.801.697-1.166 1.31-1.806 2.724-3.493 4.901-4.248.342-.119.684-.245 1.026-.367-.535-.267-1.108-.473-1.556-.311-1.743.625-3.588 1.032-5.065 2.303-.987.848-2.008 1.659-3.047 2.439-3.673 2.757-7.645 3.06-11.829 1.448-.454-.176-.889-.28-1.613-.011.915.777 1.678 1.425 2.502 2.125-.966.25-1.762.194-2.434-.593-.581-.68-1.216-1.312-1.917-2.06-1.039.142-2.2.207-3.315.472-2.938.698-5.811 1.58-7.992 3.927-.812.874-1.641 1.731-2.562 2.701.717.323 1.25.525 1.745.799.837.463 1.381 1.176 1.339 2.189-.06 1.426-1.395 2.732-2.773 2.867-1.229.12-2.25-.35-3.227-1.092m21.957 55.095c-.967-1.179-1.817-2.215-2.728-3.325-.697.208-1.482.365-2.205.677-1.608.695-3.302.589-4.969.596-.611.003-1.288-.347-1.824-.71-1.584-1.073-3.338-1.891-4.622-3.417-1.638-1.945-2.995-4.047-4-6.41-.754-1.775-1.283-3.591-1.341-5.526-.021-.677.079-1.361.167-2.035.137-1.038.308-2.068.47-3.102.317-2.033.094-4.075-.697-5.89-1.224-2.807-3.82-4.385-6.995-2.658-1.155.628-2.165 1.587-3.14 2.506-.737.694-1.061 1.685-1.132 2.714-.089 1.278.19 1.595 1.448 1.753.175.022.359.028.533.002.984-.147 1.46.469 1.828 1.262.363.784.243 1.55-.25 2.184-1.194 1.541-3.011 1.733-4.398.859-1.811-1.141-2.744-2.857-3.008-4.914-.433-3.371.425-6.35 3.062-8.573.744-.626 1.652-1.05 2.509-1.522.776-.426 1.579-.802 2.381-1.174.237-.11.551-.253.76-.178.996.36 2.129-.01 3.074.693.324.24.847.193 1.275.295 2.137.508 3.514 2 4.678 3.786 1.384 2.12 2.18 4.484 2.544 6.968.16 1.096-.028 2.28-.232 3.388-.495 2.674-.026 5.168 1.089 7.582.781 1.695 1.652 3.334 2.879 4.74 1.23 1.409 2.731 2.102 4.851 1.796-.395-.469-.648-.809-.938-1.11-.87-.905-1.48-1.936-1.561-3.238-.044-.698-.377-1.126-.99-1.476-2.284-1.301-2.285-1.33-1.556-3.845.175-.605.466-1.177.721-1.757 1.033-2.369 2.051-4.745 3.123-7.094.375-.82.896-1.57 1.343-2.355.468-.819.929-1.644 1.472-2.605-3.037-.806-5.991-1.494-8.885-2.392-1.983-.615-3.955-1.376-5.802-2.337-2.031-1.056-3.751-2.622-5.049-4.577-1.219-1.838-1.375-3.927-1-6.052.373-2.112.978-4.16 1.941-5.927-.272-1.339-.492-2.563-.776-3.772-.229-.972-.529-1.926-.807-2.884-.608-2.103-1.006-4.25-1.04-6.441-.03-1.909-.039-3.808.438-5.707.403-1.605 1.309-2.602 2.727-3.078 2.567-.864 4.997-.605 7.089 1.339 1.911 1.774 3.909 3.463 5.348 5.703.123.193.222.402.368.666 1.991-1.206 4.087-1.05 6.052-1.461.08-.518.103-.957.235-1.359.047-.14.361-.187.658-.327.183.529.339.985.525 1.531.714.192 1.484.384 2.246.607 1.014.295 2.005.718 3.038.892.991.168 2.03.187 3.033.093 1.551-.147 3.069-.507 4.497-1.501.013-.157.119-.448.045-.68-.447-1.424.05-2.683.649-3.901.475-.964.953-1.956 1.607-2.789 1.154-1.467 2.725-2.124 4.58-1.988 1.326.098 2.661.134 3.973.334 1.099.167 2.106.617 2.987 1.396 2.327 2.057 4.676 4.072 6.146 6.94.512.998 1.198 1.902 1.791 2.83.336 0 .603.027.863-.005 1.841-.24 3.678-.544 5.525-.713.705-.063 1.198-.363 1.567-.874 1.414-1.956 3.169-3.586 4.92-5.183 2.253-2.056 4.899-3.39 7.983-3.689 1.384-.134 2.326.476 3.01 1.58.772 1.247 1.207 2.635 1.25 4.127.08 2.704-.153 5.358-1.256 7.91 1.583-2.345 3.881-3.534 6.389-4.35 1.596-.518 3.144-.463 4.481.791.619.582.837 1.507.479 2.346-.334.783-.824 1-1.858.773-1.785-.395-3.396.062-4.702 1.287-1.916 1.795-3.488 3.887-4.522 6.365-.482 1.153-.537 2.245.104 3.395.751 1.345 1.196 2.806 1.544 4.337.622 2.744.045 5.181-1.124 7.633-1.066 2.242-2.719 3.932-4.46 5.558-.5.467-.813.993-.891 1.609-.386 3.068-.983 6.118-.82 9.241.146 2.818.336 5.638.344 8.458.01 2.94-.715 5.788-2.576 8.026-1.768 2.124-4.209 3.312-7.003 3.452-.915.046-1.839-.092-2.781-.148-1.345 1.124-2.746 2.297-4.296 3.593.023 1.417.836 2.725 1.607 4.043.227.389.559.716.775 1.109.65 1.175.311 2.694-.842 3.312-2.689 1.444-5.064 3.34-7.516 5.147-1.605 1.184-3.293 2.316-5.217 2.976-1.339.458-2.648.531-3.815-.329-.892-.658-1.674-1.479-2.47-2.264-.449-.447-.435-1.058-.05-1.491.616-.697 1.244-1.522 2.042-1.887 2.179-.995 4.43-1.843 6.693-2.627 2.193-.76 4.215-1.865 6.467-2.899-.354-.965-.659-1.798-1.008-2.753-1.041 1.153-2.237 1.604-3.604 1.402-.699 1.919-2.049 3.105-3.773 3.825-2.133.891-4.293 1.718-6.471 2.485-.911.321-1.893.442-2.85.599-.332.055-.734.038-1.026-.108-1.553-.769-3.173-1.436-4.363-2.803-.7-.805-.656-1.126.234-1.688 1.425-.899 2.992-1.328 4.63-1.62 1.685-.302 3.345-.762 5.294-1.219-1.471-.406-2.632-.679-3.758-1.056-.88-.294-1.475-.911-1.765-1.884-.335-1.124-.807-2.206-1.214-3.286-.534-.133-1.016-.215-1.474-.374-.711-.246-1.251.022-1.586.613-.667 1.17-1.66 1.84-2.884 2.22-.637.197-1 .517-1.084 1.315-.128 1.233-.7 2.335-1.563 3.237-1.305 1.366-2.621 2.723-3.934 4.083-.62.641-.714 1.427-.018 1.845 1.483.89 3.059 1.616 4.596 2.411 1.507-.342 2.868.399 4.296.629 1.693.272 3.222 1.008 4.567 2.101 1.167.95 1.226 1.894.242 3.012-1.564 1.778-3.475 2.258-5.645 1.291-2.638-1.177-5.293-2.334-7.843-3.694-2.151-1.145-4.254-2.437-6.027-4.177-1.061-1.041-1.077-1.673-.123-2.814.43-.515.971-.932 1.465-1.389.984-.909 1.958-1.828 2.957-2.717.558-.497 1.196-.902 1.733-1.42.811-.781 1.482-1.685 1.92-2.72" fill="#231f20" fill-rule="nonzero"/><path d="m53.329 31.622c-1.502-1.124-3.213-.931-4.374-.296-.517.284-.972.767-1.324 1.258-.138.19-.016.721.159.975.258.373.642.157.942-.057.181-.129.337-.296.5-.452.839-.806 1.776-1.345 2.982-1.252.29.023.589-.088 1.115-.176m-1.872-1.746c1.561-.141 2.772.947 3.956 2.069.127.12.217.49.141.581-.141.166-.475.351-.63.285-1.303-.555-2.519.14-3.767.258-.348.032-.683.384-.994.629-.385.305-.709.701-1.114.968-.94.62-2.14.14-2.459-.944-.266-.903.05-2.049.794-2.579 1.152-.82 2.422-1.322 4.073-1.267" fill="#231f20" fill-rule="nonzero"/><path d="m147.895 39.851c.861-1.155-.217-1.758-.535-2.478-.257-.581-.666-1.347-1.67-.929.676 1.181 1.099 2.479 2.205 3.407m-5.191-4.323c.153-.729.588-1.06 1.33-.903.87.184 1.743.357 2.593.612.366.109.777.335.998.638.605.834 1.17 1.71 1.645 2.628.187.361.211.906.107 1.312-.286 1.119-1.422 1.525-2.314.81-.434-.35-.815-.866-1.027-1.39-.636-1.576-1.494-2.887-3.158-3.453-.064-.023-.099-.142-.174-.254" fill="#231f20" fill-rule="nonzero"/><path d="m50.489 41.63c.654-1.661 1.305-3.317 1.97-5.004-.093.012-.277-.01-.414.062-1.239.647-2.077 1.664-2.51 3.015-.309.96-.117 1.327.954 1.927m4.788-5.891c-.709.726-1.336 1.349-1.939 1.996-.565.605-.882 1.34-1.093 2.155-.18.694-.443 1.384-.781 2.011-.44.812-1.155.983-1.912.511-.716-.448-1.158-1.059-1.118-2.012.081-1.893 1.194-3.072 2.572-4.063.692-.496 1.469-.809 2.367-.713.385.041.787-.114 1.183-.115.218 0 .438.134.721.23" fill="#231f20" fill-rule="nonzero"/><path d="m148.555 31.781c-.662-2.146-1.726-2.449-3.339-1.219 1.015.371 2.105.769 3.339 1.219m-1.996-2.968c1.639-.039 2.854 1.02 3.072 2.495.121.822-.363 1.486-1.164 1.446-.513-.025-1.054-.171-1.519-.398-1.469-.716-2.886-.68-4.3.131-.363.208-.803.657-1.139.094-.316-.527.226-.828.564-1.06 1.209-.829 2.443-1.625 3.685-2.402.292-.184.653-.251.801-.306" fill="#231f20" fill-rule="nonzero"/><path d="m81.887 51.626c-.041-1.589-.512-2.744-1.234-3.808-.341-.5-.865-.568-1.293-.321-.328.19-.729.677-.704 1.002.1 1.354.371 2.691 1.372 3.708.373.378.885.59 1.321.289.311-.214.441-.702.538-.87m-1.675-24.756c-.905-.059-1.779.126-2.287 1.004-.547.951-1.011 2.032-.478 3.101.68 1.366 1.833 2.259 3.378 2.275 1.461.016 2.423-.98 3.241-2.096.348-.474.298-1.012.105-1.559-.544-1.546-2.206-2.71-3.959-2.725m-13.282 9.169c-.006.058-.012.116-.018.174-.576 0-1.154-.005-1.729 0-1.979.019-3.243 1.051-3.976 2.989-.381 1.002-.189 1.809.422 2.514.614.708 1.286 1.42 2.065 1.911 3.277 2.071 6.225 1.414 8.82-.438.977-.698 1.526-2.021 1.284-3.257-.328-1.681-1.318-3.02-3.077-3.395-1.244-.266-2.527-.339-3.791-.498m-3.311-4.078c.976.741 1.998 1.211 3.226 1.092 1.378-.135 2.712-1.441 2.773-2.868.042-1.013-.502-1.726-1.339-2.189-.495-.275-1.029-.475-1.745-.799.921-.97 1.75-1.826 2.561-2.701 2.182-2.348 5.054-3.229 7.994-3.926 1.114-.265 2.274-.33 3.314-.474.701.75 1.337 1.382 1.917 2.061.672.787 1.469.842 2.434.593-.825-.701-1.587-1.348-2.501-2.124.724-.27 1.158-.166 1.613.009 4.183 1.613 8.154 1.309 11.828-1.446 1.04-.78 2.06-1.591 3.047-2.44 1.478-1.271 3.322-1.677 5.065-2.304.448-.16 1.02.046 1.556.311-.342.124-.683.25-1.027.368-2.176.755-3.59 2.442-4.901 4.249-.264.364-.51.754-.695 1.165-.787 1.735-2.274 2.626-3.846 3.41-.76.38-1.548.258-2.334.024-.612-.182-1.23-.295-1.646.509.184.566.575.95 1.108 1.237 1.511.817 2.8 1.915 3.786 3.35.405.589.758 1.224 1.064 1.873.713 1.511 1.466 3.012 2.046 4.577.534 1.438.902 2.95.872 4.52-.03 1.446-.517 2.787-1.155 4.023-1.08 2.088-2.513 3.883-4.262 5.486-2.822 2.581-6.155 4.065-9.637 5.291-1.672.589-3.434.443-5.152.193-1.173-.171-2.319-.543-3.476-.828-.6-.148-1.195-.33-1.802-.448-3.111-.6-6.079-1.673-8.915-3.078-1.849-.916-3.442-2.237-4.721-3.938-1.28-1.701-1.62-3.566-1.299-5.658.528-3.428 1.867-6.436 4.249-9.12" fill="#cbab84" fill-rule="nonzero"/><path d="m117.925 27.634c.074.039.163.127.221.111 1.538-.443 2.186-1.856 3.046-3.022.081-.109-.159-.588-.359-.748-.125-.101-.626.004-.675.131-.505 1.318-1.451 2.314-2.263 3.408-.015.02.018.08.03.12m6.935 21.621c-.022-.25-.004-.486-.069-.694-.23-.734-1.31-1.098-1.686-.534-.758 1.134-1.312 2.373-1.234 3.805.029.528.212 1.008.74 1.178.547.177.943-.154 1.226-.593.619-.964.951-2.03 1.023-3.162m-3.379-13.21c1.459.027 2.856-1.226 2.862-2.562.006-1.721-1.369-3.257-2.863-3.33-1.642-.08-3.015 1.432-3.14 3.234-.097 1.398 1.443 2.628 3.141 2.658m15.993-3.239c.759 1.154 1.498 2.279 2.391 3.638-1.141-.163-1.985-.298-2.833-.397-.394-.045-.827-.126-1.187-.009-1.774.57-3.541 1.165-5.285 1.823-1.594.6-2.348 2.012-2.959 3.512-.292.713-.086 1.384.403 1.896 1.339 1.404 2.888 2.436 4.897 2.352 1.777-.073 3.55-.332 5.149-1.162 1.003-.523 1.88-1.303 2.753-1.924.157 1.438-.698 2.735-1.402 4.017-2.144 3.91-5.4 6.556-9.558 7.788-2.665.788-5.465 1.053-8.279.58-3.478-.585-6.775-1.704-9.904-3.36-2.764-1.462-5.311-3.264-7.608-5.406-1.723-1.609-2.717-3.676-3.055-6.054-.171-1.21-.319-2.423-.498-3.79 2.673.588 5.28.725 7.656-.936 1.818-1.271 3.545-2.646 4.43-4.795.871-2.117 1.472-4.306.956-6.719.752-.826 1.661-1.381 2.8-1.59 1.043-.192 2.062-.534 3.109-.705 1.094-.178 2.197.087 3.281.125 1.539.053 2.882.486 4.148 1.229 1.419.832 2.756 1.814 4.124 2.739.921.623 1.833 1.259 2.676 1.839-.293.542-.754 1.045-.815 1.593-.083.738-.03 1.596.275 2.252.693 1.491 2.102 1.928 4.335 1.464" fill="#cbab84" fill-rule="nonzero"/><path d="m93.858 25.517c.843-.315 1.505-.524 2.138-.805 2.057-.917 3.369-2.582 4.401-4.569 1.062-2.046 2.66-3.443 4.857-4.182 2.179-.731 4.106.268 5.085 2.069.428.788.735 1.652 1.049 2.499.299.809.533 1.642.804 2.461.544 1.653.468 3.31.065 4.978-.516 2.14-1.511 3.983-3.196 5.374-2.285 1.887-4.826 2.829-7.803 2.161-.808-.182-1.316-.561-1.684-1.348-.901-1.926-1.912-3.798-2.85-5.706-.457-.93-1.517-1.375-1.8-2.463-.051-.2-.584-.269-1.066-.469" fill="#f9cade" fill-rule="nonzero"/><path d="m92.989 68.596c-.226.858-.49 1.745.331 2.386.562.439 1.162.353 1.848-.207-.083.881.136 1.556.72 2.096.665.615.89.641 1.535-.023.153-.157.24-.381.316-.503.216.089.273.094.281.116.097.295.19.591.265.829-.442.244-.896.422-1.268.712-1.158.903-2.471 1.362-3.889 1.535-2.645.32-5.272.253-7.934-.033-2.835-.304-5.582-.913-8.287-1.752-1.036-.32-2.01-.911-2.952-1.485-.7-.425-1.038-1.074-.634-1.978.554-1.235 1.02-2.51 1.547-3.759.81-1.917 1.632-3.829 2.465-5.736.196-.45.458-.869.68-1.285.152.042.277.047.286.085.602 2.253 2.448 3.341 4.2 4.312 2.283 1.267 4.752 2.179 7.145 3.237 1.092.483 2.19.952 3.345 1.453" fill="#87ba8b" fill-rule="nonzero"/><path d="m81.972 82.887c-3.223 1.638-6.125 1.245-9.012-.262-1.828-.954-3.266-2.307-4.404-4.045-1.317-2.007-2.535-4.044-3.276-6.378-.608-1.915-.797-3.783-.327-5.755.669-2.798.613-5.632-.152-8.387-.571-2.053-1.832-3.629-3.903-4.329-2.127-.72-4.004-.057-5.759 1.175-.291.205-.518.509-.815.703-1.655 1.077-2.436 2.684-2.759 4.61-.269 1.604.408 2.679 1.948 2.949.26.046.53.025.797.043.901.056 1.263.561 1.034 1.433-.312 1.191-1.73 1.809-2.923 1.228-1.556-.759-2.472-2.091-2.784-3.782-.404-2.191-.189-4.327.948-6.304.629-1.095 1.584-1.865 2.576-2.505 1.034-.665 2.223-1.09 3.371-1.546.792-.313 1.616-.423 2.453-.022.348.167.768.188 1.158.239 2.268.296 4.061 1.257 5.351 3.335 1.168 1.882 2.018 3.854 2.323 6.027.175 1.245.139 2.556-.023 3.806-.319 2.453-.146 4.775.848 7.075.924 2.137 1.925 4.21 3.422 5.98 1.563 1.846 3.472 2.766 5.915 2.06.296-.085.743-.037.978.143.989.756 1.922 1.587 3.015 2.509" fill="#fdca93" fill-rule="nonzero"/><path d="m108.704 58.908c.333-.143.6-.302.886-.376 1.925-.493 3.862-.941 5.78-1.458 1.93-.52 3.865-.943 5.875-.841.178.009.355.004.532.02 1.857.165 2.507.78 3.04 2.652.626 2.198-.137 4.06-1.377 5.713-.686.912-1.612 1.737-2.597 2.289-1.936 1.089-3.967 2.013-6.005 2.895-.838.363-1.788.475-2.699.641-.659.119-1.088-.252-1.092-1.029-.011-1.6-.558-3.09-.793-4.641-.078-.515-.314-.974.045-1.556.164-.265-.118-.95-.365-1.328-.823-1.261-.852-1.241-1.23-2.981" fill="#639fd5" fill-rule="nonzero"/><path d="m102.197 71.832c.577-.599 1.137-1.18 1.709-1.775.523.214.96.416 1.411.574 1.425.5 1.769.337 2.366-1.18.717-.113 1.497-.235 2.363-.371.05.47.061.92.152 1.352.169.802.741 1.165 1.56 1.118 1.946-.113 3.713-.865 5.441-1.672 1.731-.808 3.455-1.676 5.058-2.718 1.52-.989 2.556-2.495 3.396-4.541.061 1.037.15 1.777.138 2.516-.049 2.641-.115 5.282-.219 7.921-.028.72-.166 1.444-.336 2.145-.188.772-.702 1.17-1.498 1.339-3.011.633-6.041.908-9.116.827-2.391-.062-4.648-.609-6.802-1.632-1.207-.574-2.381-1.218-3.579-1.812-.861-.428-1.611-.964-2.044-2.091" fill="#639fd5" fill-rule="nonzero"/><path d="m83.554 82.242c-.44-.162-.845-.215-1.132-.433-1.564-1.191-3.134-2.378-4.625-3.66-.597-.513-1.051-1.231-1.469-1.921-.235-.388-.265-.908-.408-1.444 3.085.405 5.884 1.473 8.847 1.581.391.013.773.194 1.166.242 3.14.388 6.259.271 9.336-.521 1.028-.265 2.041-.587 2.791-1.452.126-.145.389-.165.654-.269.2.338.415.622.548.941.475 1.137 1.045 2.198 1.859 3.131.583.67.574 1.162-.012 1.797-.725.788-1.509 1.533-2.697 1.744-.118-.325-.226-.624-.436-1.203-.121.612-.19.958-.278 1.399h-2.152c.353-.897 1.811-1.138 1.261-2.467-2.109 1.545-4.384 2.832-6.234 4.761-.54.563-1.476.802-2.275.993-.45.107-.907.121-1.369.307-.287.114-.791-.079-1.085-.296-1.107-.813-1.799-1.957-2.29-3.23" fill="#cbab84" fill-rule="nonzero"/><path d="m92.92 67.498c-1.908-.801-3.793-1.573-5.664-2.383-1.424-.616-2.879-1.188-4.227-1.951-1.034-.585-1.933-1.425-2.872-2.179-.782-.631-.973-1.476-.733-2.449.076-.308.103-.63.19-.934.382-1.333.606-1.462 1.968-1.513 1.012-.036 2.033-.107 3.032-.282 1.182-.208 2.35-.038 3.514.019 1.938.092 3.871.324 5.804.523 1.027.107 1.976.458 2.784 1.123-.342 2.458-2.6 8.536-3.796 10.026" fill="#87ba8b" fill-rule="nonzero"/><path d="m124.095 77.532c-.327.755-.54 1.387-.86 1.955-1.254 2.232-2.746 4.252-4.999 5.535-1.469.838-2.954.985-4.376-.076-.783-.584-1.509-1.25-2.238-1.906-.564-.505-1.092-1.054-1.643-1.576-.085-.08-.208-.163-.315-.165-1.798-.024-3.427-.634-4.998-1.475-1.529-.819-2.728-2.03-3.731-3.427-.48-.67-.742-1.503-1.096-2.248 1.237-1.038 1.363-1.011 2.53-.261.935.601 1.918 1.134 2.914 1.62 2.561 1.25 5.169 2.433 8.022 2.707 1.751.17 3.536.14 5.295.026 1.754-.112 3.494-.44 5.495-.709" fill="#cbab84" fill-rule="nonzero"/><path d="m134.633 24.284c-1.008-1.424-1.954-2.63-2.265-4.192-.075-.383-.362-.62-.803-.469-.49.166-.727.582-.481 1.07.486.964.968 1.95 1.603 2.808.362.489.936.954 1.946.783m.612 3.059c-.533-.398-.921-.697-1.319-.983-1.452-1.04-2.918-2.062-4.351-3.128-.216-.16-.378-.509-.409-.788-.047-.446-.03-.925.075-1.36.803-3.313 2.497-6.038 5.312-7.891.867-.572 1.948-.842 2.965-1.122.678-.187.966.445 1.289.956 1.059 1.672 1.05 3.548.966 5.417-.087 1.925-.664 3.753-1.329 5.542-.153.411-.417.817-.727 1.12-.803.783-1.66 1.509-2.472 2.237" fill="#f9cade" fill-rule="nonzero"/><path d="m59.648 15.045c1.149-.371 1.982.114 2.726.821 1.866 1.777 3.302 3.872 4.408 6.406-.852.617-1.718 1.246-2.639 1.914 1.073.459 1.977.183 3.127-.862.075.026.176.029.22.083.144.169.267.356.461.624-.766.934-1.526 1.866-2.296 2.789-.109.132-.255.256-.41.319-1.547.632-2.159 1.849-2.213 3.501-.014.409-.3.841-.544 1.204-.274.407-.642.748-1.011 1.165-1.194-2.713-1.76-5.558-2.383-8.392-.651-2.954-.416-5.869.181-8.784.061-.295.262-.561.373-.788" fill="#f9cade" fill-rule="nonzero"/><path d="m115.095 86.673c.672.06 1.236.111 1.91.171.167 1.825 1.07 3.309 2.1 4.75.714.999.541 1.942-.388 2.597-3.321 2.344-6.629 4.708-9.989 6.99-.87.591-1.888.983-2.884 1.333-.766.268-1.588.22-2.277-.356-.618-.518-1.243-1.027-1.845-1.562-.441-.39-.485-.868-.117-1.33.278-.346.56-.744.93-.95 1.049-.583 2.123-1.13 3.225-1.599 2.732-1.165 5.668-1.775 8.304-3.217.659-.361 1.39-.593 2.098-.85 1.091-.395 1.345-.909.667-1.805-.925-1.224-1.453-2.585-1.734-4.172" fill="#fdca93" fill-rule="nonzero"/><path d="m86.639 87.064c.416-.054.767-.099 1.179-.152 0 .111.01.227-.001.341-.129 1.305-.903 2.255-1.719 3.152-1.058 1.163-2.204 2.241-3.249 3.416-.437.492-.759 1.113-1.049 1.719-.416.87-.397 1.056.429 1.528 1.618.925 3.232 1.898 4.951 2.582 1.254.498 2.677.541 4.015.829 1.206.26 2.424.501 3.592.896.838.283 1.502.918 1.971 1.688-.79 1.889-2.624 2.87-4.419 2.225-1.372-.493-2.646-1.261-3.994-1.828-3.006-1.265-5.833-2.856-8.503-4.746-.437-.309-.862-.645-1.249-1.015-.835-.799-.875-1.378-.036-2.178 1.068-1.023 2.186-1.998 3.331-2.928 1.574-1.279 3.091-2.601 4.126-4.406.201-.349.392-.703.625-1.123" fill="#fdca93" fill-rule="nonzero"/><path d="m106.008 81.686c1.065.266 1.875.467 2.724.679.021.391.063.702.05 1.009-.088 1.928.192 3.809.729 5.644.396 1.358.086 2.442-1.064 3.193-.815.533-1.673 1.029-2.569 1.393-2.214.897-4.427 1.819-6.703 2.522-2.022.626-4.362-.516-5.217-2.286-.056-.117-.064-.258-.108-.442.683-.702 1.569-.976 2.484-1.12 2.458-.385 4.864-.971 7.171-1.923.813-.335 1.621-.752 2.326-1.281 1.267-.952 1.457-2.302 1.07-3.793-.292-1.128-.563-2.261-.893-3.595" fill="#fdca93" fill-rule="nonzero"/><path d="m95.187 65.555c.439-1.399.804-2.561 1.183-3.772.164-.023.365.01.482-.077 1.782-1.312 3.943-1.323 5.955-1.657 1.677-.279 3.413.206 4.994 1.011.637.325.837.908.975 1.531.105.474-.19.692-.602.671-.422-.02-.84-.126-1.346-.208.28 1.508 2.095 1.583 2.236 2.983-.915.806-1.709.78-2.971-.072-.775-.523-.775-.523-1.479.386.888.821 1.938 1.605 1.672 3.165-.399.118-.75.464-1.092-.291-.183-.403-.81-.576-1.191-.91-.436-.382-.816-.828-1.226-1.242-.776-.784-1.698-1.275-2.762-1.533-1.065-.257-2.079-.822-3.227-.436-.452.151-.918.26-1.601.451" fill="#fdca93" fill-rule="nonzero"/><path d="m123.064 81.871c.528-.831 1.031-1.621 1.527-2.402 2.366.512 4.057-.624 5.386-2.415 1.187-1.601 1.722-3.503 1.716-5.505-.01-3.144-.022-6.295-.215-9.431-.117-1.92.025-3.808.126-5.708.052-.964.364-1.77 1.381-2.103.367-.121.7-.358 1.112-.575-.72 2.92-.828 5.868-.945 8.791-.087 2.205.25 4.43.422 6.646.258 3.348-.125 6.596-2.003 9.409-1.328 1.987-3.366 3.026-5.691 3.427-.918.158-1.829.377-2.816-.134" fill="#fdca93" fill-rule="nonzero"/><path d="m133.192 44.509c-1.357-.024-2.559-.449-3.597-1.296-.833-.677-.878-1.128-.529-2.161.454-1.345 1.286-2.285 2.636-2.65.813-.22 1.493-.842 2.505-.534.511.156 1.216-.372 1.836-.585 1.122-.388 2.209-.016 3.254.286.877.254 1.33 1.435 1.041 2.368-.639 2.06-1.948 3.456-4.011 3.99-1.028.264-2.089.392-3.135.582" fill="#555658" fill-rule="nonzero"/><path d="m102.962 57.289c-.597.759-1.096 1.394-1.665 2.118-1.373.302-2.86.629-4.464.982.179-.519.364-1.059.553-1.598.104-.296.247-.581.322-.884.357-1.446.263-1.464-1.132-2.002-2.508-.965-5.104-1.064-7.726-1.068h-1.069c2.517-1.424 4.824-2.729 7.242-4.098 3.168 1.286 5.653 3.749 7.939 6.55" fill="#87ba8b" fill-rule="nonzero"/><path d="m107.956 59.91c-1.652-.384-3.215-.748-4.845-1.127 2.091-2.42 4.432-4.628 6.917-6.77 2.616 1.479 5.292 2.708 8.266 3.406-1.874.537-3.588 1.072-5.324 1.511-1.156.293-2.338.521-3.52.652-1.637.181-1.93.566-1.494 2.328" fill="#639fd5" fill-rule="nonzero"/><path d="m61.003 13.973c2.474-1.111 4.508-.806 6.332.787 1.993 1.741 3.966 3.51 5.432 5.928-1.301.763-2.618 1.535-3.994 2.34-.163-.232-.314-.443-.492-.695.378-.504.743-.992 1.102-1.472-.881-.791-.904-.788-1.833.153-.893-1.361-1.701-2.787-2.697-4.056-.962-1.225-1.9-2.565-3.85-2.985" fill="#cbab84" fill-rule="nonzero"/><path d="m150.165 22.628c-.363.056-.689.185-.99.141-2.771-.406-4.838.894-6.499 2.951-1.21 1.498-2.273 3.126-3.328 4.748-.349.534-.469 1.226-.911 1.842-.146-1.094-.294-2.189-.477-3.546.633-.998 1.367-2.235 2.175-3.419 1.746-2.556 4.197-3.976 7.162-4.467 1.441-.24 2.205.25 2.868 1.75" fill="#fdca93" fill-rule="nonzero"/><path d="m103.318 69.136c-1.048 1.098-2.028 2.139-3.026 3.162-.285.293-.644.589-1.043.236-.356-.315-.505-.703-.196-1.204.181-.295.266-.688.281-1.041.013-.268-.074-.649-.256-.794-.334-.266-.69-.068-.888.283-.222.392-.364.83-.585 1.22-.255.449-.449.985-1.097 1.137-.641-1.666.747-2.85.843-4.293-.507-.012-1.441.636-3.312 2.288-.385-.241-.375-.547-.183-.928.676-1.34 1.798-2.238 2.948-3.093.219-.163.601-.176.895-.139 2.216.289 4.213 1.015 5.619 3.166" fill="#fdca93" fill-rule="nonzero"/><path d="m95.121 18.098c.119-2.507.482-4.738 2.361-6.332.447-.38 1.119-.778 1.634-.714 1.574.194 3.13.591 4.302 2.055-1.465.668-2.948 1.192-4.277 1.989-1.358.814-2.563 1.897-4.02 3.002" fill="#f9cade" fill-rule="nonzero"/><path d="m105.976 85.815c.182 2.2-1.061 3.399-3.068 2.948-.991-.221-1.974-.477-2.965-.7-.749-.167-1.24-.622-1.607-1.303-.535-.984-1.147-1.928-1.167-3.095.972-.62 1.786.068 2.272.558 1.84 1.854 3.999 1.88 6.292 1.538.077-.01.162.035.243.054" fill="#fdca93" fill-rule="nonzero"/><path d="m132.933 12.803c-2.642 2.505-4.115 5.659-4.993 9.19-1.387-.133-2.413-.954-3.79-1.413 2.541-3.227 5.122-6.129 8.783-7.777" fill="#cbab84" fill-rule="nonzero"/><path d="m114.506 21.74-1.247.624c-.555-1.463-1.063-2.868-1.618-4.252-.706-1.762-1.899-3.045-3.646-3.755-.975-.397-1.782-1.203-2.913-1.244-.181-.008-.414-.212-.518-.389-.624-1.061-1.58-1.671-2.794-2.136 3.046-.119 5.339 1.155 7.375 3.178 1.862 1.852 3.401 3.939 4.704 6.22.281.492.409 1.077.657 1.754" fill="#cbab84" fill-rule="nonzero"/><path d="m100.635 53.013c2.102.128 4.203.256 6.081.37-.837 1.005-1.752 2.105-2.775 3.335-1.233-1.257-2.317-2.361-3.4-3.465.032-.08.063-.16.094-.24" fill="#87ba8b" fill-rule="nonzero"/><path d="m110.608 89.054c-.267-1.013-.517-1.959-.803-3.041 1.308-.007 2.321.301 3.151 1.113.364.357.564.812.378 1.36-.214.631-.756.75-1.278.78-.433.024-.874-.121-1.448-.212" fill="#fdca93" fill-rule="nonzero"/><path d="m65.95 28.227c.421 1.564.166 2.147-.793 2.122-.212-.005-.597-.362-.584-.531.029-.379.191-.798.426-1.094.184-.232.558-.304.951-.497" fill="#fff" fill-rule="nonzero"/><path d="m109.695 67.361c.306.45.09.677-.234.765-.812.221-1.63.328-2.398-.066-.005-.109-.011-.218-.017-.326.891-.126 1.783-.251 2.649-.373" fill="#fff" fill-rule="nonzero"/><path d="m134.652 30.651c-.504-.227-.806-.621-.582-1.155.113-.273.474-.525.767-.596.142-.033.482.335.563.581.216.659-.197.977-.748 1.17" fill="#fff" fill-rule="nonzero"/><path d="m136.854 27.683c.289-.282.577-.564.864-.846.046.036.09.071.135.107-.251.317-.5.633-.751.95-.082-.07-.165-.141-.248-.211" fill="#fff" fill-rule="nonzero"/><path d="m53.329 31.622c-.526.088-.825.199-1.115.176-1.206-.093-2.143.446-2.982 1.252-.163.156-.319.323-.5.452-.3.214-.684.43-.942.057-.175-.254-.297-.785-.159-.975.352-.491.807-.974 1.324-1.258 1.161-.635 2.872-.828 4.374.296" fill="#fff" fill-rule="nonzero"/><path d="m147.895 39.851c-1.106-.928-1.529-2.226-2.205-3.407 1.004-.418 1.413.348 1.67.929.318.72 1.396 1.323.535 2.478" fill="#fff" fill-rule="nonzero"/><path d="m50.489 41.63c-1.071-.6-1.263-.967-.954-1.927.433-1.351 1.271-2.368 2.51-3.015.137-.072.321-.05.414-.062-.665 1.687-1.316 3.343-1.97 5.004" fill="#fff" fill-rule="nonzero"/><path d="m148.555 31.781c-1.234-.45-2.324-.848-3.339-1.219 1.613-1.23 2.677-.927 3.339 1.219" fill="#fff" fill-rule="nonzero"/><path d="m67.821 43.836c1.291-.263 2.68-.521 3.839-1.463 1.374-1.115 1.391-3.183-.084-4.153-1.076-.71-2.279-1.191-3.631-1.075-1.098.094-2.204.182-3.304.158-1.349-.029-1.788.945-2.277 1.933-.462.934-.124 1.693.495 2.35 1.325 1.403 3.017 2.01 4.962 2.25m-.891-7.797c1.265.16 2.548.233 3.792.498 1.758.376 2.748 1.715 3.076 3.395.242 1.236-.306 2.559-1.284 3.257-2.594 1.851-5.543 2.509-8.82.438-.779-.492-1.451-1.203-2.065-1.91-.61-.706-.803-1.512-.422-2.514.734-1.939 1.997-2.971 3.976-2.989.575-.006 1.153-.001 1.73-.001.006-.058.011-.117.017-.174" fill="#231f20" fill-rule="nonzero"/><path d="m79.652 30.751c.601.013 1.091-.483 1.095-1.108.005-.681-.588-1.391-1.187-1.421-.5-.026-1.12.808-1.096 1.477.017.496.633 1.041 1.188 1.052m.56-3.882c1.753.016 3.415 1.179 3.959 2.726.193.548.242 1.086-.105 1.559-.818 1.117-1.78 2.112-3.24 2.097-1.547-.018-2.699-.91-3.379-2.276-.533-1.069-.068-2.15.478-3.1.507-.88 1.383-1.063 2.287-1.006" fill="#231f20" fill-rule="nonzero"/><path d="m81.887 51.626c-.097.168-.227.656-.538.87-.436.301-.948.089-1.321-.289-1.001-1.017-1.272-2.354-1.372-3.708-.025-.325.376-.812.704-1.002.428-.247.952-.179 1.293.321.722 1.064 1.193 2.219 1.234 3.808" fill="#231f20" fill-rule="nonzero"/><path d="m122.048 32.021c-.171-.176-.387-.582-.691-.672-.513-.15-1.29.598-1.274 1.097.016.556.398.978.901.998.424.015 1.016-.681 1.064-1.423m-.567 4.025c-1.699-.031-3.239-1.261-3.143-2.659.126-1.802 1.5-3.314 3.141-3.233 1.495.072 2.869 1.608 2.864 3.33-.006 1.336-1.404 2.588-2.862 2.562" fill="#231f20" fill-rule="nonzero"/><path d="m124.859 49.255c-.072 1.132-.404 2.197-1.023 3.161-.283.441-.679.771-1.225.595-.529-.171-.712-.651-.741-1.178-.079-1.434.476-2.671 1.234-3.807.376-.562 1.456-.198 1.686.534.065.209.047.446.069.695" fill="#231f20" fill-rule="nonzero"/><path d="m117.925 27.634c-.012-.04-.045-.1-.03-.12.812-1.094 1.758-2.09 2.263-3.408.049-.127.55-.232.675-.131.2.16.44.639.359.748-.86 1.166-1.508 2.579-3.046 3.022-.058.016-.147-.072-.221-.111" fill="#231f20" fill-rule="nonzero"/><path d="m134.633 24.284c-1.01.171-1.584-.294-1.946-.783-.635-.858-1.117-1.844-1.603-2.808-.246-.488-.009-.904.481-1.07.441-.151.728.086.803.469.311 1.562 1.257 2.768 2.265 4.192" fill="#231f20" fill-rule="nonzero"/><path d="m67.821 43.836c-1.945-.24-3.637-.847-4.962-2.25-.619-.657-.957-1.416-.495-2.35.489-.988.928-1.962 2.277-1.933 1.1.024 2.206-.064 3.304-.158 1.352-.116 2.555.365 3.631 1.075 1.475.97 1.458 3.038.084 4.153-1.159.942-2.548 1.2-3.839 1.463" fill="#555658" fill-rule="nonzero"/><path d="m79.652 30.751c-.555-.011-1.171-.556-1.188-1.052-.024-.669.596-1.503 1.096-1.477.599.03 1.192.74 1.187 1.421-.004.625-.494 1.121-1.095 1.108" fill="#fff" fill-rule="nonzero"/><path d="m122.048 32.021c-.048.742-.64 1.438-1.064 1.423-.503-.02-.885-.442-.901-.998-.016-.499.761-1.247 1.274-1.097.304.09.52.496.691.672" fill="#fff" fill-rule="nonzero"/><path d="m71.313 39.119c0 1.048-1.586 1.898-3.543 1.898-1.956 0-3.541-.85-3.541-1.898s1.585-1.898 3.541-1.898c1.957 0 3.543.85 3.543 1.898" fill="#babcbe" fill-rule="nonzero"/><path d="m139.687 39.436c0 .874-1.516 1.582-3.388 1.582-1.871 0-3.387-.708-3.387-1.582s1.516-1.582 3.387-1.582c1.872 0 3.388.708 3.388 1.582" fill="#babcbe" fill-rule="nonzero"/><path d="m20.151 54.107c-.09 1.782.783 3.583 2.236 4.618 1.453 1.036 3.441 1.272 5.095.606.243-1.148-.425-2.419-1.507-2.871.22.465.07 1.053-.29 1.419-.361.367-.895.529-1.409.514-.701-.019-1.437-.409-1.658-1.076-.229-.685.266-1.354.915-1.508-1.136-.643-2.361-.747-3.382-1.702" fill="#ffe300" fill-rule="nonzero"/><path d="m33.935 51.252c.789 1.601.705 3.6-.218 5.127-.922 1.527-2.651 2.533-4.435 2.579-.678-.956-.57-2.389.244-3.233-.018.514.353.994.829 1.187.476.194 1.031.129 1.497-.087.636-.298 1.157-.947 1.095-1.647-.062-.72-.783-1.137-1.439-1.021.787-1.042 1.87-1.624 2.427-2.905" fill="#ffe300" fill-rule="nonzero"/><path d="m160.631 35.171c-.089 1.782.783 3.583 2.236 4.618 1.453 1.036 3.441 1.272 5.095.606.243-1.148-.425-2.42-1.507-2.871.22.465.07 1.053-.29 1.419-.361.367-.895.528-1.409.514-.701-.019-1.437-.409-1.658-1.076-.229-.685.266-1.354.915-1.508-1.136-.643-2.361-.748-3.382-1.702" fill="#ffe300" fill-rule="nonzero"/><path d="m174.415 32.315c.789 1.6.705 3.6-.218 5.127-.922 1.527-2.651 2.533-4.435 2.579-.678-.956-.571-2.389.244-3.233-.018.514.353.994.829 1.188.477.193 1.031.128 1.497-.088.636-.297 1.157-.947 1.095-1.647-.062-.72-.782-1.137-1.439-1.021.787-1.042 1.871-1.624 2.427-2.905" fill="#ffe300" fill-rule="nonzero"/></g></svg>