<svg clip-rule="evenodd" fill-rule="evenodd" stroke-miterlimit="10" viewBox="0 0 99 57" xmlns="http://www.w3.org/2000/svg"><g fill-rule="nonzero" transform="translate(-79 -118)"><path d="m160.654 145.123h-53.318c-.044-6.436 1.847-12.84 3.729-19.053-5.126 5.654-9.362 12.11-12.531 19.053h-2.121c-5.306 0-9.647 4.341-9.647 9.646v2.522c0 5.305 4.341 9.646 9.647 9.646h64.241c5.305 0 9.646-4.341 9.646-9.646v-2.522c0-5.305-4.341-9.646-9.646-9.646z" fill="#fff" stroke="#231f20" stroke-width="1.44"/><g fill="#231f20"><path d="m94.422 155.134h1.049v-1.251h-1.049zm-.01.722c-.01.356-.058.741-.731 1.386-.53.491-1.107 1.03-1.107 1.867 0 1.059.876 2.031 2.185 2.031 1.126 0 2.233-.741 2.319-2.108v-.212h-1.097c0 .077-.01.164-.019.241-.097.654-.559 1.039-1.155 1.039-.674 0-1.088-.49-1.088-1.097.01-.491.318-.808.809-1.299.721-.693.924-1.194.943-1.848z"/><path d="m97.839 157.011c.019 1.376.924 2.242 2.338 2.242 1.521 0 2.301-1.001 2.301-2.156s-.828-1.607-1.713-1.982c-1.146-.424-1.675-.597-1.675-1.29 0-.606.5-1.001 1.078-1.001.818 0 .991.616 1.068 1.001h1.117c-.087-1.463-1.232-1.964-2.147-1.964-1.116 0-2.252.722-2.242 2.051 0 1.337 1.241 1.751 1.8 1.934.914.337 1.588.52 1.588 1.309 0 .635-.549 1.136-1.184 1.136-.376 0-1.126-.212-1.203-1.28z"/><path d="m108.561 156.818c.086-.876-.173-1.694-.789-2.319-.501-.491-1.184-.77-1.935-.77-1.588 0-2.762 1.28-2.762 2.781 0 1.386 1.058 2.763 2.772 2.763.529 0 1.049-.145 1.491-.443.443-.289.809-.722 1.059-1.299h-1.039c-.289.548-.809.885-1.511.885-.79 0-1.714-.539-1.762-1.598zm-4.457-.779c.049-.713.713-1.454 1.733-1.454.991-.019 1.684.761 1.732 1.454z"/><path d="m109.543 159.119h1.001v-2.83c0-1.04.49-1.559 1.434-1.559h.067v-1.001c-.712.009-1.261.308-1.559.924v-.77h-.943z"/><path d="m118.109 153.883h-1.001v.924c-.241-.501-.905-1.078-1.944-1.078-1.521 0-2.686 1.174-2.686 2.772 0 1.463 1.001 2.772 2.686 2.772.827 0 1.578-.366 1.944-1.069v.915h1.001zm-4.63 2.627c0-.981.712-1.848 1.81-1.848.837 0 1.424.472 1.674 1.078.116.241.164.51.154.78-.009.269-.067.539-.182.78-.26.596-.828 1.039-1.627 1.039-1.271 0-1.819-1.039-1.829-1.819zm.77-3.85.308.616 2.329-1.174-.336-.731z"/><path d="m127.089 153.883h-1.001v2.926c0 .895-.452 1.52-1.434 1.53-1.03 0-1.396-.674-1.396-1.617v-2.839h-1.001v3.07c0 1.088.433 2.31 2.118 2.32.933.009 1.52-.424 1.771-.963v.809h.943z"/><path d="m128.398 159.119h1.001v-2.917c0-.904.452-1.52 1.434-1.53 1.02-.01 1.386.664 1.386 1.607v2.84h1.011v-3.071c0-1.087-.443-2.3-2.118-2.319-.933-.01-1.521.423-1.771.962v-.808h-.943z"/><path d="m142.653 153.883h-1.001v.885c-.289-.577-1.011-1.039-1.887-1.039-1.521 0-2.705 1.155-2.705 2.791 0 1.559 1.136 2.753 2.705 2.753.943 0 1.579-.491 1.887-1.078v.539c0 1.174-.905 1.819-1.781 1.819-.231 0-.587-.068-.905-.279-.26-.164-.462-.376-.577-.607h-1.155c.25.876 1.116 1.742 2.598 1.742.905 0 1.723-.394 2.205-.952.385-.443.616-1.03.616-1.945zm-4.592 2.608c0-1.078.819-1.819 1.81-1.819.635 0 1.088.25 1.376.616.289.356.424.828.424 1.242-.01.51-.202.962-.51 1.28-.318.327-.761.529-1.29.529-1.107 0-1.81-.857-1.81-1.838z"/><path d="m149.284 153.883h-1.001v.924c-.24-.501-.905-1.078-1.944-1.078-1.521 0-2.685 1.174-2.685 2.772 0 1.463 1.001 2.772 2.685 2.772.828 0 1.578-.366 1.944-1.069v.915h1.001zm-4.629 2.627c0-.981.712-1.848 1.809-1.848.837 0 1.425.472 1.675 1.078.115.241.163.51.154.78-.01.269-.068.539-.183.78-.26.596-.828 1.039-1.627 1.039-1.27 0-1.819-1.039-1.828-1.819z"/><path d="m150.978 159.119h1.001v-4.457h1.011v-.779h-1.011v-1.887h-1.001v1.887h-.943v.779h.943z"/><path d="m153.442 156.501c0 1.405 1.03 2.762 2.791 2.762 1.762 0 2.792-1.357 2.792-2.762 0-1.406-1.03-2.772-2.792-2.772-1.761 0-2.791 1.366-2.791 2.762zm1.001 0c0-1.049.789-1.829 1.79-1.829s1.791.78 1.791 1.829-.79 1.828-1.791 1.828-1.79-.779-1.79-1.819z"/><path d="m162.49 157.155c.009-.356.057-.741.731-1.386.53-.5 1.107-1.03 1.107-1.867 0-1.068-.876-2.041-2.185-2.041-1.126 0-2.233.751-2.319 2.108 0 .068-.01.125 0 .212h1.097c0-.077.009-.154.019-.241.087-.644.558-1.029 1.155-1.029.674 0 1.088.481 1.088 1.087-.01.501-.318.818-.809 1.309-.722.693-.924 1.194-.943 1.848zm-.01.712h-1.049v1.252h1.049z"/></g></g></svg>