<svg clip-rule="evenodd" fill-rule="evenodd" stroke-miterlimit="10" viewBox="0 0 121 56" xmlns="http://www.w3.org/2000/svg"><g fill-rule="nonzero" transform="translate(-13 -58)"><path d="m115.108 65.413h-83.633c-5.957 0-10.83 4.873-10.83 10.83v.154c0 5.957 4.873 10.831 10.83 10.831h.939c3.168 6.943 7.403 13.398 12.53 19.053-1.881-6.214-3.773-12.618-3.728-19.053h73.892c5.957 0 10.83-4.874 10.83-10.831v-.154c0-5.957-4.873-10.83-10.83-10.83z" fill="#fff" stroke="#231f20" stroke-width="1.44"/><g fill="#231f20"><path d="m28.521 75.31h1.049v-1.251h-1.049zm-.009.722c-.01.356-.058.741-.732 1.386-.529.491-1.107 1.03-1.107 1.867 0 1.059.876 2.031 2.185 2.031 1.126 0 2.233-.741 2.32-2.108v-.212h-1.098c0 .077-.009.164-.019.241-.096.655-.558 1.04-1.155 1.04-.674 0-1.087-.491-1.087-1.098.009-.491.317-.808.808-1.299.722-.693.924-1.194.943-1.848z"/><path d="m39.975 78.486c-.606-.048-.963-.144-1.328-.394.279-.328.876-1.04.876-2.387 0-1.964-1.569-3.667-3.754-3.667s-3.725 1.732-3.725 3.715c0 1.877 1.463 3.677 3.754 3.677.731 0 1.472-.231 2.088-.626.308.231.722.51 1.55.577.183.02.356.029.539.039zm-4.197-5.447c1.425 0 2.618 1.087 2.618 2.666 0 .654-.221 1.241-.635 1.665-.751-.635-.962-.828-1.367-1.078-.567-.356-1.145-.501-1.78-.501-.597 0-1.03.145-1.319.241-.038-.164-.067-.375-.048-.693.154-1.367 1.213-2.3 2.522-2.3zm.01 5.39c-.635 0-1.781-.28-2.329-1.473.25-.106.558-.202 1.039-.202.587 0 1.175.173 1.714.568.105.086.654.529.856.75-.24.174-.722.357-1.27.357z"/><path d="m45.509 74.059h-1.001v2.926c0 .895-.452 1.521-1.434 1.53-1.03 0-1.395-.674-1.395-1.617v-2.839h-1.001v3.07c0 1.088.433 2.31 2.117 2.32.934.009 1.521-.424 1.771-.963v.809h.943z"/><path d="m51.948 76.994c.087-.875-.173-1.694-.789-2.319-.5-.491-1.184-.77-1.934-.77-1.589 0-2.763 1.28-2.763 2.781 0 1.386 1.059 2.763 2.772 2.763.53 0 1.049-.145 1.492-.443.443-.289.809-.722 1.059-1.299h-1.04c-.288.548-.808.885-1.511.885-.789 0-1.713-.539-1.761-1.598zm-4.456-.779c.048-.712.712-1.454 1.733-1.454.991-.019 1.684.761 1.732 1.454zm.539-3.379.298.616 2.339-1.174-.346-.731z"/><path d="m54.172 78.034h-1.059l-.606 1.992h.866z"/><path d="m62.863 74.059h-.962v.895c-.279-.491-.895-1.049-1.954-1.049-1.559 0-2.686 1.193-2.686 2.83 0 1.472 1.059 2.714 2.628 2.714 1.117 0 1.742-.607 1.973-1.04v2.792h1.001zm-4.601 2.637c.01-.905.626-1.858 1.829-1.858.51 0 .972.203 1.309.539.327.337.53.799.51 1.309 0 .511-.202.973-.529 1.3s-.78.529-1.29.529c-1.097 0-1.829-.866-1.829-1.809z"/><path d="m68.994 74.059h-1.001v2.926c0 .895-.452 1.521-1.434 1.53-1.03 0-1.395-.674-1.395-1.617v-2.839h-1.001v3.07c0 1.088.433 2.31 2.117 2.32.934.009 1.521-.424 1.771-.963v.809h.943z"/><path d="m75.424 76.994c.086-.875-.173-1.694-.789-2.319-.501-.491-1.184-.77-1.935-.77-1.588 0-2.762 1.28-2.762 2.781 0 1.386 1.058 2.763 2.772 2.763.529 0 1.049-.145 1.491-.443.443-.289.809-.722 1.059-1.299h-1.039c-.289.548-.809.885-1.511.885-.79 0-1.714-.539-1.762-1.598zm-4.457-.779c.049-.712.713-1.454 1.733-1.454.991-.019 1.684.761 1.732 1.454zm.539-3.379.299.616 2.339-1.174-.347-.731z"/><path d="m79.351 79.295h1.001v-4.457h.962v-.779h-.962v-.308c0-.915.625-.915.962-.924v-.789c-.741.009-1.963.086-1.963 1.665v.356h-.712v.779h.712z"/><path d="m86.868 74.059h-1.001v2.926c0 .895-.452 1.521-1.434 1.53-1.03 0-1.396-.674-1.396-1.617v-2.839h-1.001v3.07c0 1.088.433 2.31 2.118 2.32.933.009 1.52-.424 1.771-.963v.809h.943z"/><path d="m93.297 76.994c.087-.875-.173-1.694-.789-2.319-.5-.491-1.184-.77-1.934-.77-1.589 0-2.763 1.28-2.763 2.781 0 1.386 1.059 2.763 2.772 2.763.53 0 1.049-.145 1.492-.443.443-.289.809-.722 1.059-1.299h-1.04c-.288.548-.808.885-1.511.885-.789 0-1.713-.539-1.761-1.598zm-4.456-.779c.048-.712.712-1.454 1.733-1.454.991-.019 1.684.761 1.732 1.454z"/><path d="m102.239 76.994c.087-.875-.173-1.694-.789-2.319-.501-.491-1.184-.77-1.935-.77-1.588 0-2.762 1.28-2.762 2.781 0 1.386 1.059 2.763 2.772 2.763.529 0 1.049-.145 1.492-.443.442-.289.808-.722 1.058-1.299h-1.039c-.289.548-.809.885-1.511.885-.789 0-1.713-.539-1.762-1.598zm-4.456-.779c.048-.712.712-1.454 1.732-1.454.992-.019 1.685.761 1.733 1.454z"/><path d="m106.522 75.426c-.077-1.165-1.02-1.521-1.742-1.521-.953 0-1.761.597-1.761 1.588.009.789.587 1.136 1.318 1.357.934.308 1.329.481 1.338 1.001 0 .443-.375.78-.856.78-.376 0-.886-.212-.924-.847h-.992c.048 1.193 1.078 1.665 1.906 1.665 1.039 0 1.886-.693 1.867-1.713-.029-1.127-.905-1.358-1.703-1.579-.559-.154-.934-.346-.953-.76-.01-.347.26-.674.75-.674.511-.01.761.298.761.703z"/><path d="m107.408 76.677c0 1.405 1.03 2.762 2.791 2.762s2.791-1.357 2.791-2.762-1.03-2.772-2.791-2.772-2.791 1.367-2.791 2.762zm1.001 0c0-1.049.789-1.829 1.79-1.829s1.79.78 1.79 1.829-.789 1.829-1.79 1.829-1.79-.78-1.79-1.82z"/><path d="m116.455 77.331c.01-.356.058-.741.732-1.386.529-.5 1.107-1.03 1.107-1.867 0-1.068-.876-2.04-2.185-2.04-1.126 0-2.233.75-2.32 2.107 0 .068-.01.126 0 .212h1.097c0-.077.01-.154.02-.24.086-.645.558-1.03 1.155-1.03.673 0 1.087.481 1.087 1.087-.009.501-.317.818-.808 1.309-.722.693-.924 1.194-.944 1.848zm-.009.713h-1.05v1.251h1.05z"/></g></g></svg>