<svg clip-rule="evenodd" fill-rule="evenodd" stroke-miterlimit="10" viewBox="0 0 196 187" xmlns="http://www.w3.org/2000/svg" xmlns:xlink="http://www.w3.org/1999/xlink"><linearGradient id="a" gradientTransform="matrix(0 91.6864 -91.6864 0 98.1789 60.766)" gradientUnits="userSpaceOnUse" x1="0" x2="1" y1="0" y2="0"><stop offset="0" stop-color="#086ab5"/><stop offset="1" stop-color="#1e84c6"/></linearGradient><path d="m17.207 16.474h161.39v162.835h-161.39z" fill="#a1ceee" stroke="#231f20" stroke-width="1.44"/><path d="m19.531 19.043h156.507v40.08h-156.507z" fill="#fff" opacity=".65"/><path d="m19.531 19.4h156.507v40.08h-156.507z" fill="none" stroke="#a1ceee" stroke-dasharray="1.93 1.93 1.93 1.93 1.93 1.93" stroke-width="3.85"/><g fill="#231f20"><path d="m33.904 38.694h2.166c2.396 0 3.619-1.424 3.619-3.57 0-1.011-.279-1.848-.857-2.484-.712-.847-1.79-1.068-2.801-1.068h-2.127zm.789-6.419h1.415c.972 0 1.637.317 2.089.798.472.52.693 1.252.693 2.079 0 1.714-.953 2.84-2.782 2.84h-1.415z" fill-rule="nonzero"/><path d="m45.802 36.307c.077-.827-.212-1.626-.808-2.204-.491-.471-1.165-.731-1.897-.731-1.549 0-2.723 1.222-2.723 2.743 0 1.29.933 2.724 2.733 2.724.529 0 1.04-.145 1.473-.424.442-.279.808-.702 1.049-1.261h-.741c-.337.674-.982 1.069-1.781 1.069-.876.009-1.983-.616-2.021-1.916zm-4.707-.567c.068-.944.896-1.762 2.012-1.762 1.068-.029 1.944.857 1.992 1.762z" fill-rule="nonzero"/><path d="m49.588 40.658h.712v-3.022c.24.539.982 1.203 2.127 1.203 1.607 0 2.656-1.271 2.656-2.714 0-1.338-.914-2.753-2.656-2.753-.991 0-1.742.471-2.166 1.222v-1.078h-.673zm4.783-4.553c0 1.184-.895 2.07-2.06 2.07-.577 0-1.097-.222-1.463-.587-.375-.376-.596-.896-.596-1.473 0-.587.221-1.107.577-1.482.376-.376.886-.607 1.463-.607 1.396 0 2.079 1.098 2.079 2.07z" fill-rule="nonzero"/><path d="m56.173 38.694h.702v-2.82c0-1.174.558-1.8 1.559-1.8h.068v-.702c-.607.019-1.28.221-1.656.991v-.847h-.673z" fill-rule="nonzero"/><path d="m58.551 36.105c0 1.454 1.078 2.724 2.743 2.724 1.675 0 2.753-1.27 2.753-2.724 0-1.453-1.078-2.733-2.753-2.733-1.665 0-2.743 1.28-2.743 2.724zm.703 0c0-1.184.895-2.069 2.04-2.069 1.155 0 2.041.885 2.041 2.069s-.886 2.07-2.041 2.07c-1.145 0-2.04-.886-2.04-2.06z" fill-rule="nonzero"/><path d="m65.117 38.694h.712v-2.926c0-1.078.616-1.722 1.685-1.732 1.164-.019 1.665.741 1.665 1.858v2.8h.702v-2.945c0-1.261-.567-2.358-2.175-2.377-.924-.019-1.626.394-1.925 1.068.01-.346.01-.635.01-.924h-.674z" fill-rule="nonzero"/><path d="m71.664 38.694h.702v-4.61h1.136v-.568h-1.136v-1.944h-.702v1.944h-1.021v.568h1.021z" fill-rule="nonzero"/><path d="m73.677 36.105c0 1.454 1.078 2.724 2.743 2.724 1.674 0 2.752-1.27 2.752-2.724 0-1.453-1.078-2.733-2.752-2.733-1.665 0-2.743 1.28-2.743 2.724zm.702 0c0-1.184.895-2.069 2.041-2.069 1.155 0 2.04.885 2.04 2.069s-.885 2.07-2.04 2.07c-1.146 0-2.041-.886-2.041-2.06z" fill-rule="nonzero"/><path d="m80.781 38.694h.751v-1.068h-.751zm3.205 0h.751v-1.068h-.751zm3.206 0h.75v-1.068h-.75z" fill-rule="nonzero"/><path d="m97.676 36.307c.077-.827-.212-1.626-.808-2.204-.491-.471-1.165-.731-1.897-.731-1.549 0-2.723 1.222-2.723 2.743 0 1.29.933 2.724 2.733 2.724.529 0 1.04-.145 1.473-.424.442-.279.808-.702 1.049-1.261h-.741c-.337.674-.982 1.069-1.781 1.069-.876.009-1.983-.616-2.021-1.916zm-4.707-.567c.068-.944.896-1.762 2.012-1.762 1.068-.029 1.944.857 1.992 1.762z" fill-rule="nonzero"/><path d="m101.72 34.816c-.048-1.05-.857-1.444-1.579-1.444-.875 0-1.617.548-1.617 1.482.02.818.597 1.117 1.338 1.338.895.26 1.28.5 1.3 1.088.009.529-.405.972-1.001.972-.52 0-1.049-.318-1.078-1.03h-.703c.01 1.087.934 1.617 1.771 1.617.982 0 1.752-.693 1.713-1.646-.038-1.107-.866-1.319-1.607-1.521-.626-.183-1.001-.385-1.02-.876-.02-.452.327-.837.895-.837.52 0 .885.308.885.857z" fill-rule="nonzero"/><path d="m107.323 36.943c-.221.625-.885 1.222-1.877 1.232-1.116 0-2.04-.847-2.04-2.07 0-.596.24-1.155.587-1.492.433-.404.857-.587 1.463-.587.731 0 1.55.405 1.877 1.28h.731c-.356-1.241-1.472-1.934-2.637-1.934-1.569 0-2.733 1.203-2.733 2.733 0 1.386 1.029 2.734 2.781 2.734 1.242 0 2.252-.799 2.589-1.896z" fill-rule="nonzero"/><path d="m113.85 33.516h-.712v2.926c0 1.078-.616 1.723-1.694 1.733-1.165.009-1.665-.741-1.665-1.858v-2.801h-.703v2.936c0 1.261.568 2.358 2.185 2.387.924.009 1.627-.395 1.916-1.069v.924h.673z" fill-rule="nonzero"/><path d="m119.54 36.943c-.221.625-.885 1.222-1.877 1.232-1.116 0-2.04-.847-2.04-2.07 0-.596.24-1.155.587-1.492.433-.404.857-.587 1.463-.587.731 0 1.55.405 1.877 1.28h.731c-.356-1.241-1.472-1.934-2.637-1.934-1.569 0-2.733 1.203-2.733 2.733 0 1.386 1.029 2.734 2.781 2.734 1.242 0 2.252-.799 2.589-1.896z" fill-rule="nonzero"/><path d="m121.255 38.694h.712v-2.945c0-.471.135-.895.414-1.203.27-.308.693-.51 1.261-.51.616 0 1.02.192 1.299.529.26.337.376.809.376 1.367v2.762h.702v-2.791c0-.741-.134-1.367-.491-1.819-.356-.452-.895-.712-1.713-.712-.731-.019-1.53.308-1.848.991v-2.791h-.712z" fill-rule="nonzero"/><path d="m132.585 33.516h-.712v1.088c-.251-.587-1.011-1.232-2.118-1.232-1.578 0-2.685 1.213-2.685 2.733 0 1.425 1.001 2.734 2.685 2.734.924 0 1.713-.433 2.118-1.213v1.068h.712zm-4.813 2.589c0-1.155.867-2.079 2.06-2.079.915 0 1.608.53 1.896 1.242.116.25.174.539.164.828 0 .279-.058.568-.173.818-.279.731-.953 1.261-1.868 1.261-1.424 0-2.069-1.126-2.079-2.06z" fill-rule="nonzero"/><path d="m133.972 38.694h.703v-2.82c0-1.174.558-1.8 1.559-1.8h.068v-.702c-.607.019-1.28.221-1.656.991v-.847h-.674z" fill-rule="nonzero"/><path d="m136.351 36.105c0 1.454 1.078 2.724 2.743 2.724 1.675 0 2.753-1.27 2.753-2.724 0-1.453-1.078-2.733-2.753-2.733-1.665 0-2.743 1.28-2.743 2.724zm.703 0c0-1.184.895-2.069 2.04-2.069 1.155 0 2.041.885 2.041 2.069s-.886 2.07-2.041 2.07c-1.145 0-2.04-.886-2.04-2.06z" fill-rule="nonzero"/><path d="m142.917 38.694h.712v-2.926c0-1.078.616-1.722 1.685-1.732 1.164-.019 1.665.741 1.665 1.858v2.8h.702v-2.945c0-1.261-.568-2.358-2.175-2.377-.924-.019-1.627.394-1.925 1.068.01-.346.01-.635.01-.924h-.674z" fill-rule="nonzero"/><path d="m156.597 33.516h-.712v2.926c0 1.078-.616 1.723-1.694 1.733-1.165.009-1.665-.741-1.665-1.858v-2.801h-.703v2.936c0 1.261.568 2.358 2.185 2.387.924.009 1.626-.395 1.915-1.069v.924h.674z" fill-rule="nonzero"/><path d="m157.984 38.694h.713v-2.926c0-1.078.616-1.722 1.684-1.732 1.165-.019 1.665.741 1.665 1.858v2.8h.703v-2.945c0-1.261-.568-2.358-2.176-2.377-.924-.019-1.626.394-1.925 1.068.01-.346.01-.635.01-.924h-.674z" fill-rule="nonzero"/><path d="m28.61 48.319h.703v-2.82c0-1.174.558-1.8 1.559-1.8h.068v-.702c-.607.019-1.28.221-1.656.991v-.847h-.674z" fill-rule="nonzero"/><path d="m36.474 43.141h-.712v2.926c0 1.078-.616 1.723-1.694 1.733-1.164.009-1.665-.741-1.665-1.858v-2.801h-.703v2.936c0 1.261.568 2.358 2.185 2.387.924.009 1.627-.395 1.916-1.069v.924h.673z" fill-rule="nonzero"/><path d="m37.861 42.188h.712v-.991h-.712zm0 6.131h.712v-5.178h-.712z" fill-rule="nonzero"/><path d="m45.138 41.197h-.713v2.993c-.231-.539-.981-1.193-2.117-1.193-1.55 0-2.666 1.184-2.666 2.724 0 1.453 1.02 2.743 2.676 2.743 1.078 0 1.771-.53 2.136-1.213v1.068h.684zm-4.794 4.524c0-1.165.876-2.07 2.07-2.07.577 0 1.097.222 1.463.597.375.366.597.866.597 1.453.019.578-.203 1.107-.578 1.492-.366.376-.895.607-1.473.607-1.347 0-2.069-1.03-2.079-2.07z" fill-rule="nonzero"/><path d="m46.226 45.73c0 1.454 1.078 2.724 2.743 2.724 1.675 0 2.753-1.27 2.753-2.724 0-1.453-1.078-2.733-2.753-2.733-1.665 0-2.743 1.28-2.743 2.724zm.702 0c0-1.184.895-2.069 2.041-2.069 1.155 0 2.04.885 2.04 2.069s-.885 2.07-2.04 2.07c-1.146 0-2.041-.886-2.041-2.06z" fill-rule="nonzero"/><path d="m60.597 45.932c.077-.827-.212-1.626-.809-2.204-.491-.471-1.165-.731-1.896-.731-1.55 0-2.724 1.222-2.724 2.743 0 1.29.934 2.724 2.734 2.724.529 0 1.039-.145 1.472-.424.443-.279.809-.702 1.049-1.261h-.741c-.337.674-.982 1.069-1.78 1.069-.876.009-1.983-.616-2.022-1.916zm-4.707-.567c.067-.944.895-1.762 2.012-1.762 1.068-.029 1.944.857 1.992 1.762z" fill-rule="nonzero"/><path d="m60.857 48.319h.866l1.376-2.088 1.386 2.088h.867l-1.819-2.656 1.722-2.522h-.847l-1.309 1.993-1.299-1.993h-.866l1.732 2.522z" fill-rule="nonzero"/><path d="m66.517 48.319h.702v-4.61h1.136v-.568h-1.136v-1.944h-.702v1.944h-1.021v.568h1.021z" fill-rule="nonzero"/><path d="m69.135 48.319h.703v-2.82c0-1.174.558-1.8 1.559-1.8h.067v-.702c-.606.019-1.28.221-1.655.991v-.847h-.674z" fill-rule="nonzero"/><path d="m77.028 43.141h-.712v1.088c-.25-.587-1.011-1.232-2.118-1.232-1.578 0-2.685 1.213-2.685 2.733 0 1.425 1.001 2.734 2.685 2.734.924 0 1.714-.433 2.118-1.213v1.068h.712zm-4.812 2.589c0-1.155.866-2.079 2.059-2.079.915 0 1.608.53 1.896 1.242.116.25.174.539.164.828 0 .279-.058.568-.173.818-.279.731-.953 1.261-1.867 1.261-1.425 0-2.07-1.126-2.079-2.06z" fill-rule="nonzero"/><path d="m78.414 48.319h.713v-2.926c0-1.078.616-1.722 1.684-1.732 1.165-.019 1.665.741 1.665 1.858v2.8h.703v-2.945c0-1.261-.568-2.358-2.175-2.377-.924-.019-1.627.394-1.925 1.068.009-.346.009-.635.009-.924h-.674zm3.899-6.92c-.174.173-.424.279-.732.279-.289 0-.52-.067-.77-.154-.25-.086-.568-.163-.876-.163-.346 0-.722.134-.962.365l.308.491c.183-.173.423-.289.722-.289.25 0 .49.068.76.154.269.087.597.174.876.174.356 0 .702-.125.972-.376z" fill-rule="nonzero"/><path d="m84.238 45.73c0 1.454 1.078 2.724 2.743 2.724 1.675 0 2.753-1.27 2.753-2.724 0-1.453-1.078-2.733-2.753-2.733-1.665 0-2.743 1.28-2.743 2.724zm.703 0c0-1.184.895-2.069 2.04-2.069 1.155 0 2.041.885 2.041 2.069s-.886 2.07-2.041 2.07c-1.145 0-2.04-.886-2.04-2.06z" fill-rule="nonzero"/><path d="m98.609 45.932c.077-.827-.212-1.626-.809-2.204-.491-.471-1.164-.731-1.896-.731-1.549 0-2.724 1.222-2.724 2.743 0 1.29.934 2.724 2.734 2.724.529 0 1.039-.145 1.472-.424.443-.279.809-.702 1.05-1.261h-.742c-.336.674-.981 1.069-1.78 1.069-.876.009-1.983-.616-2.021-1.916zm-4.707-.567c.068-.944.895-1.762 2.012-1.762 1.068-.029 1.944.857 1.992 1.762z" fill-rule="nonzero"/><path d="m99.62 48.319h.712v-2.926c0-1.078.616-1.722 1.684-1.732 1.165-.019 1.666.741 1.666 1.858v2.8h.702v-2.945c0-1.261-.568-2.358-2.175-2.377-.924-.019-1.627.394-1.925 1.068.01-.346.01-.635.01-.924h-.674z" fill-rule="nonzero"/><path d="m108.533 41.197h.712v7.122h-.712z" fill-rule="nonzero"/><path d="m115.82 43.141h-.712v1.088c-.251-.587-1.011-1.232-2.118-1.232-1.578 0-2.685 1.213-2.685 2.733 0 1.425 1.001 2.734 2.685 2.734.924 0 1.713-.433 2.118-1.213v1.068h.712zm-4.813 2.589c0-1.155.867-2.079 2.06-2.079.914 0 1.607.53 1.896 1.242.116.25.173.539.164.828 0 .279-.058.568-.173.818-.28.731-.953 1.261-1.868 1.261-1.424 0-2.069-1.126-2.079-2.06z" fill-rule="nonzero"/><path d="m119.661 45.73c0 1.454 1.078 2.724 2.743 2.724 1.675 0 2.753-1.27 2.753-2.724 0-1.453-1.078-2.733-2.753-2.733-1.665 0-2.743 1.28-2.743 2.724zm.703 0c0-1.184.895-2.069 2.04-2.069 1.155 0 2.041.885 2.041 2.069s-.886 2.07-2.041 2.07c-1.145 0-2.04-.886-2.04-2.06z" fill-rule="nonzero"/><path d="m129.257 44.441c-.048-1.05-.856-1.444-1.578-1.444-.876 0-1.617.548-1.617 1.482.019.818.597 1.117 1.338 1.338.895.26 1.28.5 1.299 1.088.01.529-.404.972-1.001.972-.52 0-1.049-.318-1.078-1.03h-.702c.009 1.087.933 1.617 1.771 1.617.981 0 1.751-.693 1.713-1.646-.039-1.107-.866-1.319-1.608-1.521-.625-.183-1.001-.385-1.02-.876-.019-.452.327-.837.895-.837.52 0 .886.308.886.857z" fill-rule="nonzero"/><path d="m134.86 46.568c-.222.625-.886 1.222-1.877 1.232-1.117 0-2.041-.847-2.041-2.07 0-.596.241-1.155.587-1.492.433-.404.857-.587 1.463-.587.732 0 1.55.405 1.877 1.28h.732c-.356-1.241-1.473-1.934-2.638-1.934-1.568 0-2.733 1.203-2.733 2.733 0 1.386 1.03 2.734 2.782 2.734 1.241 0 2.252-.799 2.589-1.896z" fill-rule="nonzero"/><path d="m141.386 43.141h-.712v2.926c0 1.078-.616 1.723-1.694 1.733-1.165.009-1.666-.741-1.666-1.858v-2.801h-.702v2.936c0 1.261.568 2.358 2.185 2.387.924.009 1.626-.395 1.915-1.069v.924h.674z" fill-rule="nonzero"/><path d="m142.772 48.319h.703v-2.82c0-1.174.558-1.8 1.559-1.8h.067v-.702c-.606.019-1.28.221-1.655.991v-.847h-.674z" fill-rule="nonzero"/><path d="m145.872 42.188h.712v-.991h-.712zm0 6.131h.712v-5.178h-.712z" fill-rule="nonzero"/><path d="m153.149 41.197h-.713v2.993c-.231-.539-.981-1.193-2.117-1.193-1.55 0-2.666 1.184-2.666 2.724 0 1.453 1.02 2.743 2.676 2.743 1.078 0 1.771-.53 2.136-1.213v1.068h.684zm-4.794 4.524c0-1.165.876-2.07 2.07-2.07.577 0 1.097.222 1.463.597.375.366.597.866.597 1.453.019.578-.203 1.107-.578 1.492-.366.376-.895.607-1.473.607-1.347 0-2.069-1.03-2.079-2.07z" fill-rule="nonzero"/><path d="m159.752 43.141h-.712v1.088c-.251-.587-1.011-1.232-2.118-1.232-1.578 0-2.685 1.213-2.685 2.733 0 1.425 1.001 2.734 2.685 2.734.924 0 1.713-.433 2.118-1.213v1.068h.712zm-4.813 2.589c0-1.155.867-2.079 2.06-2.079.914 0 1.607.53 1.896 1.242.116.25.173.539.164.828 0 .279-.058.568-.173.818-.28.731-.953 1.261-1.868 1.261-1.424 0-2.069-1.126-2.079-2.06z" fill-rule="nonzero"/><path d="m166.316 41.197h-.712v2.993c-.231-.539-.982-1.193-2.117-1.193-1.55 0-2.666 1.184-2.666 2.724 0 1.453 1.02 2.743 2.675 2.743 1.078 0 1.771-.53 2.137-1.213v1.068h.683zm-4.793 4.524c0-1.165.876-2.07 2.07-2.07.577 0 1.097.222 1.463.597.375.366.596.866.596 1.453.02.578-.202 1.107-.577 1.492-.366.376-.895.607-1.473.607-1.347 0-2.069-1.03-2.079-2.07z" fill-rule="nonzero"/><path d="m168.049 47.261h.751v1.059h-.751z" fill-rule="nonzero"/></g><path d="m18.091 60.765h160.178v91.688h-160.178z" fill="url(#a)"/><g fill-rule="nonzero"><path d="m18.104 174.786c6.798-4.375 13.955-8.104 21.362-11.131.013-1.062.027-2.124.04-3.184 1.093.597 2.371.795 3.576.551-.122-1.146.041-2.326.47-3.384 1.705.563 3.353 1.328 4.904 2.276-.23-2.445.431-4.976 1.813-6.936.446.631.89 1.261 1.335 1.893.387-.879.772-1.758 1.159-2.636.443.579.888 1.157 1.333 1.736 4.783-5.745 11.082-10.019 17.968-12.191.124-3.123.937-6.21 2.354-8.941 2.118.584 4.234 1.168 6.351 1.751.932-1.313.224-3.352-1.051-4.273-1.277-.922-2.898-1.032-4.434-1.112-18.951-.991-37.914-1.88-56.887-1.913" fill="#356437"/><path d="m178.027 174.159c-6.798-4.342-13.955-8.043-21.362-11.048-.013-1.053-.027-2.107-.04-3.159-1.093.592-2.371.789-3.576.548.122-1.139-.041-2.31-.47-3.36-1.705.559-3.353 1.319-4.904 2.26.23-2.427-.431-4.939-1.813-6.885-.446.627-.89 1.252-1.335 1.879-.386-.872-.772-1.744-1.158-2.615-.444.574-.889 1.147-1.334 1.722-4.783-5.701-11.082-9.943-17.968-12.099-.124-3.098-.937-6.164-2.354-8.872-2.118.578-4.234 1.158-6.351 1.737-.932-1.304-.224-3.326 1.051-4.242 1.277-.914 2.898-1.024 4.434-1.104 18.951-.982 37.914-1.865 56.887-1.897" fill="#356437"/><path d="m17.811 89.795c1.867-4.875 3.395-9.92 4.562-15.071 1.61 5.775 3.218 11.55 4.826 17.324.61-2.333 1.221-4.668 1.832-7.002-.34.931-1.185-.709-.833-1.633.821-2.153 1.641-4.306 2.461-6.457 2.104 6.35 4.645 12.511 7.592 18.408-1.074.161-2.149.322-3.223.482 1.096 1.666 2.504 3.066 4.101 4.077 1.552-6.729 3.104-13.46 4.656-20.19 2.413 8.175 5.806 15.973 10.054 23.11 1.266-4.477 2.532-8.953 3.797-13.429 3.113 11.283 8.956 21.57 16.711 29.424-2.981-.483-5.962-.965-8.944-1.446 2.6 3.475 5.198 6.952 7.797 10.428-2.784.012-5.57.025-8.354.036 1.589 1.571 3.178 3.141 4.767 4.711-5.097.116-10.21-1.851-14.204-5.463.027 4.488.055 8.976.082 13.464.009 1.453-.001 2.989-.652 4.238-.65 1.249-2.185 2.019-3.241 1.207.068-2.673-.228-5.357-.876-7.927-2.901.878-5.984.963-8.919.245.785 1.444 2.047 2.541 3.476 3.019-2.255.628-4.584.909-6.904.834-.654 1.929-.144 4.093.423 6.056.567 1.965 1.198 4.046.763 6.054-.434 2.008-2.455 3.699-4.064 2.745l-.975-25.543c-1.592 2.313-3.507 4.337-5.653 5.968 1.469-3.303 2.937-6.608 4.404-9.911-1.241 1.963-3.717 2.764-5.676 1.837.654.333 1.229.871 1.644 1.538-2.152.571-4.306 1.143-6.459 1.715 1.286 2.394 2.98 4.503 4.96 6.174-1.51.028-3.021.057-4.532.085.849 1.194 1.993 2.112 3.265 2.618-1.985.832-2.656 3.713-2.422 6.111s1.073 4.731.934 7.139c-.139 2.407-1.849 5.001-3.93 4.574.001-5.494.004-10.987.006-16.481-1.074-.415-2.149-.829-3.225-1.244" fill="#103c58"/><path d="m178.476 88.06c-1.868-4.875-3.396-9.92-4.563-15.071-1.609 5.775-3.217 11.55-4.825 17.325-.611-2.334-1.222-4.668-1.832-7.003.34.931 1.185-.709.833-1.633-.821-2.153-1.641-4.306-2.462-6.457-2.103 6.35-4.644 12.511-7.592 18.409 1.074.16 2.15.321 3.224.481-1.097 1.667-2.504 3.066-4.101 4.077-1.552-6.729-3.105-13.459-4.656-20.19-2.414 8.175-5.806 15.973-10.054 23.11-1.266-4.477-2.532-8.953-3.798-13.429-3.113 11.283-8.955 21.57-16.71 29.424 2.98-.483 5.962-.965 8.943-1.446-2.599 3.475-5.198 6.952-7.797 10.428 2.785.012 5.57.025 8.355.037-1.589 1.57-3.178 3.14-4.767 4.71 5.097.116 10.21-1.851 14.204-5.463-.028 4.488-.055 8.976-.082 13.464-.01 1.453.001 2.989.651 4.238s2.185 2.019 3.242 1.207c-.068-2.673.228-5.356.876-7.926 2.9.877 5.983.962 8.918.244-.784 1.444-2.047 2.541-3.476 3.019 2.255.628 4.585.909 6.905.834.654 1.929.144 4.093-.423 6.056-.568 1.965-1.198 4.046-.764 6.054.435 2.008 2.456 3.699 4.064 2.745l.976-25.543c1.592 2.313 3.507 4.336 5.652 5.968-1.468-3.303-2.936-6.608-4.404-9.911 1.242 1.963 3.717 2.764 5.677 1.837-.655.333-1.229.871-1.645 1.538 2.153.571 4.307 1.143 6.459 1.715-1.285 2.394-2.98 4.503-4.959 6.174 1.51.028 3.021.057 4.531.085-.849 1.194-1.993 2.112-3.265 2.618 1.986.832 2.657 3.713 2.423 6.111-.235 2.398-1.074 4.731-.934 7.139.138 2.407 1.849 5.001 3.93 4.574-.002-5.494-.004-10.987-.007-16.481 1.075-.414 2.15-.829 3.225-1.244" fill="#103c58"/><path d="m151.03 88.785c2.991-.938 6.016-1.691 9.052-2.381l1.746-.396-1.013 1.567c-.939 1.452-1.94 2.857-2.909 4.284-1.008 1.401-1.994 2.817-3.022 4.203l-.879-1.513c2.038-.215 4.077-.424 6.122-.579 2.043-.167 4.09-.299 6.143-.385l.753-.032-.161.66c-.449 1.846-.927 3.688-1.494 5.514.075-1.911.239-3.806.431-5.697l.592.627c-2.021.374-4.046.7-6.075.993-2.028.303-4.062.554-6.097.797l-2.148.257 1.27-1.769c1.006-1.401 2.053-2.773 3.079-4.16 1.064-1.359 2.096-2.741 3.193-4.077l.732 1.171c-3.087.41-6.184.755-9.315.916" fill="#fff200"/><path d="m140.271 135.567c1.421-1.782 2.908-3.497 4.407-5.199.758-.844 1.498-1.704 2.27-2.535l2.299-2.504.851-.928.493 1.208c.708 1.738 1.14 3.605 1.194 5.496l-1.616-.601c1.232-1.377 2.475-2.749 3.784-4.056 1.313-1.301 2.631-2.598 4.018-3.822l1.822-1.607-.323 2.365c-.279 2.047-.934 4.037-1.956 5.814l-1.126-.87c2.835-2.365 5.864-4.495 9.097-6.25-2.805 2.377-5.535 4.784-8.128 7.323l-2.789 2.732 1.663-3.602c.784-1.697 1.294-3.511 1.461-5.352l1.499.758c-1.3 1.276-2.614 2.538-3.877 3.851-1.266 1.309-2.541 2.61-3.766 3.959l-1.587 1.745-.03-2.347c-.021-1.674-.291-3.358-.866-4.947l1.344.28-2.479 2.327c-.821.781-1.673 1.531-2.509 2.298-1.686 1.518-3.385 3.024-5.15 4.464" fill="#fff200"/><path d="m140.877 163.92c.931-1.875 1.915-3.719 2.888-5.569.964-1.856 1.959-3.693 2.961-5.526.991-1.839 2.025-3.653 3.035-5.482l3.091-5.449 1.528-2.694.126 3.125c.138 3.412.201 6.826.305 10.239l-1.828-.398c.935-1.903 1.8-3.842 2.591-5.811.783-1.972 1.544-3.955 2.204-5.975l1.066-3.272.573 3.374c.399 2.356.746 4.721 1.114 7.082l-1.309-.129c.484-1.162 1.03-2.297 1.592-3.421.564-1.124 1.159-2.232 1.807-3.307 1.289-2.153 2.664-4.249 4.225-6.202-1.255 2.16-2.461 4.333-3.506 6.583-.52 1.127-1.029 2.254-1.506 3.394-.48 1.14-.912 2.297-1.338 3.454l-.825 2.234-.485-2.363c-.481-2.34-.984-4.678-1.434-7.024l1.64.102c-.622 2.075-1.292 4.138-2.09 6.155-.787 2.019-1.651 4.009-2.588 5.966l-1.766 3.691-.061-4.089c-.051-3.414-.141-6.827-.159-10.242l1.655.432-3.279 5.338c-1.114 1.767-2.203 3.549-3.335 5.304-1.122 1.764-2.251 3.522-3.41 5.262-1.15 1.745-2.289 3.497-3.482 5.218" fill="#fff200"/><path d="m177.336 98.414c-1.716-2.835-3.128-5.86-4.238-8.997l.524-.133c.396 1.974.693 3.997.59 6.061-.106 2.035-.7 4.226-2.251 5.792-1.511 1.569-3.709 2.354-5.836 2.346-2.138.013-4.151-.58-6.073-1.128l.494-1.299 4.723 2.094c.367.171.853.338 1.324.745.493.408.819 1.141.736 1.826-.069.719-.486 1.254-.886 1.615-.414.373-.86.624-1.339.824l-9.745 3.595-.296-1.699 8.215-.27c.585-.019 1.204-.001 1.831.115.627.118 1.292.326 1.896.777.614.433 1.059 1.164 1.228 1.871l.115.479-.333.367c-2.167 2.4-4.76 4.46-7.707 5.874l-.61-1.777c2.094-.426 4.219-.696 6.352-.799 1.025-.03 2.208-.17 3.472.304.62.233 1.265.693 1.642 1.347.375.637.498 1.373.441 2.03-.122 1.313-.698 2.327-1.137 3.252-.467.946-.95 1.883-1.45 2.813-1 1.857-2.069 3.678-3.205 5.456l-1.338-.971c.724-.864 1.618-1.601 2.649-2.106.515-.254 1.065-.438 1.632-.558.284-.054.671-.14 1.166.012.514.158.861.613.996.97.27.727.209 1.318.194 1.83-.019.519-.046 1.038-.086 1.556-.076 1.037-.186 2.069-.339 3.096-.598 4.107-1.767 8.131-3.532 11.879l-.947-.354c1.039-3.306 2.482-6.475 4.243-9.441.891-1.477 1.855-2.909 2.919-4.263.529-.674 1.078-1.35 1.73-1.924.64-.567 1.443-1.049 2.317-1.031-.873.04-1.615.558-2.206 1.151-.604.596-1.092 1.297-1.585 1.994-.991 1.392-1.877 2.852-2.687 4.35-1.613 3.001-2.837 6.191-3.759 9.453l-.946-.354c1.613-3.698 2.635-7.642 3.1-11.637.119-.999.196-2.002.24-3.005.025-.501.037-1.003.042-1.506.017-.5-.013-.962-.12-1.196-.056-.111-.068-.086-.052-.079 0 0-.138-.009-.348.048-.43.103-.849.261-1.248.466-.803.401-1.516.997-2.097 1.703l-1.337-.969c1.097-1.753 2.128-3.547 3.091-5.376.481-.915.945-1.839 1.394-2.77.456-.946.884-1.829.937-2.618.029-.385-.053-.718-.208-.985-.154-.255-.398-.443-.752-.579-.717-.28-1.686-.214-2.728-.156-2.039.118-4.067.395-6.063.821l-7.21 1.537 6.6-3.314c2.68-1.347 5.114-3.204 7.16-5.431l-.218.846c-.094-.351-.245-.619-.527-.827-.273-.215-.675-.366-1.12-.452-.45-.087-.933-.111-1.441-.099l-1.644.039-6.572.154-5.393.127 5.096-1.826 9.677-3.467c.64-.234 1.234-.774 1.231-1.082.017-.174-.017-.328-.183-.481-.175-.172-.506-.328-.916-.521l-4.661-2.227.493-1.3c1.901.606 3.781 1.202 5.674 1.24 1.866.062 3.762-.567 5.087-1.865 1.342-1.287 1.972-3.197 2.174-5.116.189-1.942-.001-3.935-.304-5.901l.524-.133c.966 3.149 2.206 6.223 3.724 9.167" fill="#fff200"/><path d="m133.599 167.268c0 5.267-16.476 9.536-36.799 9.536-20.324 0-36.799-4.269-36.799-9.536 0-5.266 16.475-9.536 36.799-9.536 20.323 0 36.799 4.27 36.799 9.536" fill="#789ed2"/><path d="m101.847 139.669c.024.254.012.407.044.418.861.27 1.728.312 2.553-.094.125-.06.118-.389.186-.643-1.006.116-1.872.215-2.783.319m5.351 17.397c-.939-.895-1.399-1.978-2.626-2.335v1.72c.828.194 1.621.379 2.626.615m-1.774 3.657c.482.074.834.148 1.19.181.816.074 1.373-.181 1.564-.726.229-.652-.082-1.119-.562-1.521-.817-.684-1.769-.916-2.996-.934.284 1.059.534 1.992.804 3m-6.787-32.103c.985-1.034 1.985-2.084 2.906-3.052-1.977-.113-4.11-.235-6.593-.377 1.355 1.26 2.466 2.294 3.687 3.429m-4.179 25.938c1.3 2.005 3.395 2.641 6.106 1.893-.318-1.182-.635-2.367-.965-3.599-.717-.405-1.492-.843-2.334-1.318-.452 1.426-1.798 2.025-2.807 3.024m6.282 2.975c-.082-.019-.167-.065-.244-.055-2.323.338-4.508.311-6.372-1.515-.492-.482-1.315-1.16-2.3-.55.021 1.149.64 2.08 1.18 3.05.373.671.87 1.119 1.628 1.285 1.002.218 1.997.47 2.999.689 2.035.445 3.287-.731 3.109-2.904m-48.635-68.242c1.376.06 2.729.247 3.827 1.089.884.679 1.751 1.462 2.386 2.367 1.452 2.067 3.376 3.591 5.37 5.056 1.394 1.025 2.331.814 2.986-.735-.356.152-.73.312-1.348.577.188-.684.299-1.085.431-1.563-1.73-1.343-3.399-2.79-5.222-4.007-1.522-1.016-3.256-1.712-4.839-2.645-1.215-.715-2.386-.531-3.591-.139m91.239-.756c-.953-.512-2.004-.644-2.893-.271-1.69.707-3.385 1.497-4.896 2.522-2.446 1.658-4.744 3.531-7.103 5.312 1.063 1.807 1.871 1.947 3.54.684 1.9-1.437 3.689-2.959 5.123-4.914 1.503-2.049 3.429-3.545 6.229-3.333m-51.354 10.634c.967.693 2.041 1.346 2.973 2.163.953.835 1.765 1.829 2.624 2.737 1.213-2.675 3.565-4.183 6.014-5.817-1.233-.122-2.333-.079-3.338-.37-1.201-.347-2.216-.043-3.337.273-1.617.457-3.298.688-4.936 1.014m-.811 44.918c.784-.329.988-1.006 1.32-1.567.158-.268.202-.63.411-.832.189-.181.582-.334.793-.254.185.071.347.486.331.738-.024.39-.143.808-.337 1.149-.294.52-.072.88.29 1.162.353.276.689.031.95-.232 1.036-1.037 2.062-2.086 3.105-3.145-1.433-2.194-3.534-2.907-5.885-3.133-.216-.02-.492-.014-.651.101-1.201.873-2.394 1.769-3.051 3.159-.105.224-.015.541-.015.987.736-.578 1.231-1.131 1.85-1.406.621-.274.77-1.261 1.732-1.104-.083 1.511-1.541 2.671-.843 4.377m1.428-20.783c1.262.527 2.24.962 3.33.988 1.89.044 3.78.053 5.669.082 1.06.015 2.055-.193 3.082-.781-2.324-1.589-4.989-2.472-6.73-4.791-1.139 2.174-3.223 3.145-5.351 4.502m-8.998 3.664c.458.043.834.107 1.211.109 2.164.009 4.286.172 6.345.966 1.504.58 1.635.67 1.174 2.197-.09.297-.276.563-.381.857-.171.474-.311.958-.443 1.372 1.397-.293 2.661-.544 3.917-.829.284-.065.616-.176.796-.38.5-.564.932-1.189 1.469-1.892-1.907-1.963-3.574-4.205-6.126-5.315-2.659.974-5.26 1.925-7.962 2.915m30.538-.293c-.233-.174-.324-.29-.435-.317-.52-.132-1.054-.213-1.569-.36-1.592-.457-3.175-.944-4.766-1.401-.503-.144-1.124-.472-1.513-.305-1.08.464-2.273.712-3.125 1.701-.845.981-1.921 1.758-2.819 2.699-.708.74-1.576 1.366-2 2.218 1.654.375 3.23.731 4.812 1.088-.429-1.777-.151-2.11 1.646-2.294 1.109-.112 2.246-.245 3.296-.596 2.147-.716 4.244-1.585 6.473-2.433m-12.621 8.811c.057-.124.114-.247.171-.371.423.068.846.174 1.272.193.421.02.711-.204.605-.667-.142-.614-.346-1.188-.991-1.505-1.601-.789-3.357-1.271-5.056-.996-2.036.33-4.222.348-6.027 1.635-.118.084-.321.049-.494.071-.384 1.222-.749 2.393-1.164 3.713.672-.182 1.13-.351 1.602-.422.528-.081 1.106-.212 1.596-.078 1.761.48 3.546.911 4.885 2.347.548.588.95 1.448 1.927 1.541.053.005.114.138.136.221.211.805.662.422 1.063.298.275-1.54-.802-2.305-1.69-3.119.728-.901.72-.888 1.404-.469.377.229.769.452 1.182.597.841.292 1.65.145 1.859-.281.176-.36-.234-1.012-.903-1.527-.479-.368-.919-.785-1.377-1.181m-13.048 29.454c.033.198.026.339.079.453.76 1.632 3.048 2.761 4.99 2.378.914-.18 1.801-.514 2.684-.826 1.178-.416 2.366-.824 3.502-1.337 1.258-.57 2.509-1.184 3.678-1.914 1.017-.634 1.282-1.649.958-2.829-.225-.814-.424-1.646-.528-2.482-.168-1.369-.25-2.748-.38-4.259-.789-.195-1.638-.403-2.58-.635.069.506.091.897.182 1.27.179.738.391 1.469.597 2.2.508 1.807.095 3.193-1.685 4.213-2.283 1.309-4.805 1.933-7.356 2.436-1.436.284-2.935.351-4.141 1.332m-7.263-6.189c-.993 1.638-1.946 3.084-3.335 4.21-1.57 1.27-3.132 2.552-4.633 3.901-1.203 1.082-1.2 1.596.02 2.583 2.17 1.755 4.578 3.143 7.091 4.345 1.132.541 2.276 1.059 3.422 1.569 1.102.489 2.186 1.052 3.331 1.408 1.768.549 3.598-.469 4.292-2.291-.609-.749-1.311-1.363-2.285-1.726-1.574-.586-3.207-.883-4.849-1-3.01-.213-5.374-1.853-7.837-3.298-.432-.254-.593-.665-.287-1.151.404-.641.724-1.354 1.222-1.908 1.015-1.134 2.149-2.161 3.189-3.273.914-.976 1.788-1.997 1.801-3.489-.394.042-.785.082-1.142.12m28.613-.394c.405 1.065.718 1.997 1.117 2.889.215.484.594.891.867 1.352.471.802.318 1.251-.506 1.592-1.325.546-2.634 1.135-3.976 1.632-2.307.856-4.648 1.618-6.947 2.49-1.419.538-2.894 1.036-3.911 2.27-.579.701-.552.999.069 1.615.414.412.857.796 1.314 1.16.948.755 1.948.901 3.148.512 2.092-.681 3.827-1.955 5.606-3.149 2.307-1.546 4.544-3.196 6.825-4.783 1.126-.784 1.376-1.648.586-2.724-1.044-1.421-1.954-2.884-2.116-4.664-.697-.065-1.267-.117-2.076-.192m8.203-4.685c1.706.674 3.309.107 4.82-.455 2.168-.806 3.803-2.249 4.729-4.495 1.02-2.476 1.279-5.011 1.09-7.64-.163-2.273-.402-4.548-.406-6.823-.002-2.01.264-4.023.44-6.031.031-.338.173-.683.328-.992.656-1.315 1.734-1.84 3.196-1.763 1.128.059 1.901.471 2.317 1.508.567 1.411.535 2.73-.718 3.81-.76.655-1.114 1.516-1.191 2.491-.071.876.146 1.146 1.263 1.589.087-.396.235-.764.237-1.134.004-1.054.54-1.778 1.339-2.365.327-.239.679-.448.983-.712 1.145-.996 1.502-3.35.65-4.592-.764-1.115-1.87-1.873-3.158-2.166-1.457-.33-3.007-.132-4.349.407-1.868.752-2.621 2.548-2.894 4.407-.265 1.805-.256 3.642-.148 5.487.173 2.961.124 5.934.185 8.9.04 1.982-.436 3.799-1.5 5.489-1.276 2.024-3.387 3.063-5.672 2.691-.508.786-1.013 1.57-1.541 2.389m1.905-3.336c2.551-.152 2.932-.37 4.442-2.321 1.131-1.459 1.401-3.236 1.462-4.933.104-2.861-.143-5.735-.248-8.603-.042-1.166-.179-2.337-.126-3.499.064-1.42.095-2.877.972-4.123.314-.444.394-.9-.094-1.296-1.24.391-2.51.693-3.694 1.195-1.261.534-2.621-.303-3.768.435.469.624 1.177 1.221 1.426 1.97.532 1.608 1.02 3.276 1.173 4.952.207 2.263.096 4.556.095 6.836-.001 1.928-.031 3.856-.064 5.784-.02 1.142-.284 2.156-1.576 2.507zm-21.562-63.907c.976 1.441 1.708 3.02 2.121 4.824.449 1.963-.617 3.547-.896 5.467.846.18 1.615.406 2.399.497 1.455.165 2.871-.009 4.155-.792.842-.514 1.683-1.031 2.51-1.566.367-.238.703-.525 1.062-.796-1.796-1.789-1.816-1.79-2.381-4.309-.304-1.358-.56-2.729-.796-4.102-.228-1.321-.756-2.494-1.676-3.462-.502-.528-1.145-1.01-1.906-.639-2.103 1.027-3.968 2.318-4.592 4.878m20.709 62.942c-2.041.266-3.807.59-5.587.701-1.783.109-3.592.135-5.369-.032-2.894-.27-5.534-1.448-8.129-2.683-.97-.462-1.926-.966-2.835-1.536-1.248-.784-1.226-.819-2.62.129.803 2.578 2.564 4.356 4.852 5.656 1.559.886 3.236 1.448 5.059 1.473.112.002.243.072.328.15.559.515 1.092 1.058 1.663 1.558.739.647 1.475 1.304 2.267 1.883 1.44 1.051 2.945.907 4.437.082 2.286-1.264 3.798-3.257 5.066-5.463.323-.559.537-1.18.868-1.918m-27.529-19.668c-2.013-1.402-4.221-1.412-6.396-1.567-1.692-.121-3.383-.262-5.073-.398-.222-.017-.442-.085-.66-.077-1.25.051-2.497.123-3.746.176-.412.017-.865-.001-1.025.465-.331.971-.72 1.943-.861 2.946-.07.493.216 1.202.588 1.556.9.86 1.846 1.778 2.95 2.297 3.116 1.462 6.318 2.74 9.492 4.076.271.114.587.117.966.187 1.832-3.025 2.349-6.491 3.765-9.661m-6.126-34.877c1.601 1.001 2.889 1.912 4.276 2.63.729.377 1.624.536 2.457.589 1.536.096 3.021-.29 4.494-.719.973-.283 1.652-.839 2.133-1.712 1.653-2.995 1.272-6.24-.998-8.736-.878-.966-1.711-1.975-2.653-2.874-.604-.578-1.326-1.069-2.07-1.454-1.064-.55-1.833-.365-2.634.53-.858.955-1.404 2.07-1.598 3.359-.174 1.157-.39 2.307-.623 3.453-.377 1.864-.715 3.755-2.784 4.934m-7.313 59.265c.266.974 1.371 2.599 2.24 3.106.326.191.812.402 1.101.289.467-.182.929-.198 1.385-.304.809-.187 1.756-.421 2.303-.974 1.875-1.901 4.177-3.172 6.321-4.702.526 1.301-.897 1.566-1.303 2.444h2.201c.1-.924.1-.924.76-1.286-.166.352-.501.704.074 1.065 1.132-.196 1.953-.964 2.695-1.794.524-.585.509-1.029-.063-1.664-.857-.953-1.43-2.054-1.943-3.205-.122-.274-.313-.518-.48-.789-.234.054-.47.037-.565.145-.82.922-1.921 1.265-3.059 1.545-3.072.757-6.18.867-9.312.496-.755-.089-1.505-.213-2.256-.329-.971-.149-1.946-.27-2.907-.467-1.601-.327-3.191-.703-5.022-1.113.177.649.201 1.165.443 1.539.46.707.959 1.437 1.596 1.974 1.435 1.211 2.954 2.323 4.464 3.442.326.241.759.34 1.327.582m18.829-10.233c.361.724.792 1.318 1.523 1.669 1.698.815 3.364 1.702 5.081 2.472 1.565.704 3.244 1.063 4.951 1.167 3.466.211 6.904-.054 10.306-.785.742-.16 1.244-.543 1.412-1.263.173-.737.33-1.492.362-2.245.109-2.556.173-5.114.223-7.672.014-.759-.073-1.521-.128-2.557-.869 2.033-1.933 3.548-3.52 4.551-1.512.954-3.121 1.782-4.757 2.509-1.835.814-3.686 1.649-5.753 1.76-.908.05-1.485-.304-1.65-1.171-.074-.388-.076-.789-.116-1.246-.86.125-1.645.239-2.376.346-.656 1.525-1.02 1.688-2.507 1.156-.415-.149-.813-.346-1.271-.542-.604.627-1.189 1.237-1.78 1.851m-20.513 10.794c-1.105-.908-2.076-1.753-3.106-2.52-.232-.172-.693-.166-1.003-.079-2.364.659-4.261-.203-5.789-1.9-1.856-2.059-3.018-4.543-4.01-7.114-.686-1.776-.808-3.62-.486-5.436.731-4.129-.441-7.711-2.885-10.961-.442-.589-1.053-1.13-1.701-1.469-2.771-1.443-5.674-1.598-8.581-.476-2.393.925-4.173 2.483-4.987 5.066-.522 1.659-.414 3.274-.037 4.871.353 1.501 1.316 2.651 2.765 3.29 1.191.525 2.651-.177 2.899-1.348.169-.798-.197-1.241-1.032-1.331-.574-.061-1.176-.107-1.699-.323-.876-.36-1.368-1.155-1.242-2.052.273-1.941.905-3.748 2.66-4.923.372-.25.683-.587 1.051-.843 1.764-1.232 3.658-1.891 5.818-1.206 2.109.67 3.389 2.227 3.978 4.237.793 2.709.852 5.506.178 8.262-.488 1.992-.301 3.872.35 5.8.639 1.895 1.629 3.576 2.637 5.277 1.73 2.916 4.199 4.865 7.411 5.866 2.279.711 4.49.436 6.811-.688m27.047-23.718c.234 1.303.522 2.257 1.285 3.046.386.4.711.927.255 1.572-.141.199-.066.585-.019.873.271 1.66.819 3.267.872 4.971.023.758.46 1.129 1.133.981 1.173-.26 2.377-.484 3.481-.935 1.781-.728 3.542-1.539 5.213-2.488.993-.563 1.953-1.334 2.655-2.227 1.335-1.698 2.154-3.63 1.422-5.872-.138-.421-.382-.808-.537-1.226-.626-1.667-1.566-2.338-3.337-2.324-1.51.012-2.955.335-4.261 1.106-1.847 1.088-3.89 1.552-5.95 1.987-.724.152-1.44.348-2.212.536m-38.903-31.244c-.746-.495-1.422-.851-1.986-1.337-1.388-1.198-2.765-2.416-4.073-3.701-.891-.878-1.693-1.855-2.473-2.838-.836-1.053-2.013-1.304-3.218-1.464-.687-.09-1.398-.016-2.214-.016-2.468 2.769-2.735 6.137-1.97 9.647.363 1.666 1.289 3.146 2.315 4.531 1.554 2.099 4.504 3.514 7.652 2.189 1.091-.459 1.953-1.081 2.487-2.135.888-1.761 1.782-3.517 3.48-4.876m80.049-10.279c-.646.039-1.178.049-1.703.108-1.068.12-2.19.155-3.019.956-.871.841-1.77 1.683-2.481 2.654-1.431 1.957-3.235 3.472-5.215 4.815-.429.29-.856.583-1.355.922 1.404 1.309 2.373 2.728 3.138 4.33.392.82.987 1.736 1.743 2.156 2.979 1.653 5.871 1.624 8.433-1.393 2.138-2.517 3.26-5.436 2.892-8.834-.239-2.207-.858-4.206-2.433-5.714m-71.988 41.902c-.369.619-.654 1.009-.848 1.44-.883 1.96-1.75 3.928-2.604 5.901-.514 1.188-.963 2.407-1.503 3.583-.411.894-.058 1.528.648 1.947.953.566 1.939 1.145 2.989 1.462 2.738.828 5.52 1.423 8.39 1.726 2.694.285 5.353.346 8.03.031 1.436-.17 2.765-.622 3.936-1.512.375-.286.834-.461 1.29-.707-.094-.255-.209-.564-.348-.941-.195.182-.327.298-.451.42-.766.766-1.069.811-1.712-.013-.399-.51-.591-1.183-.87-1.77-.488.386-1.092.465-1.661.031-.831-.635-.547-1.51-.334-2.351-2.326-.976-4.594-1.914-6.851-2.88-1.313-.564-2.698-1.032-3.893-1.791-1.708-1.084-3.616-2.062-4.208-4.576m38.495-37.033c-1.75 1.306-3.369 2.564-5.042 3.745-1.393.983-2.862 1.854-4.273 2.812-1.397.948-2.502 2.15-3.245 3.704-.498 1.039-.6 1.951-.136 3.074 1.259 3.046 1.478 6.182.349 9.345-.117.328-.195.671-.307 1.059.653.619 1.228 1.257 1.896 1.78 3.382 2.646 7.224 4.303 11.407 5.202 1.356.291 2.732.519 4.066.892 1.291.361 2.564.397 3.867.187.797-.127 1.624-.417 2.386-.302.93.142 1.667-.183 2.45-.479 1.552-.587 3.092-1.209 4.643-1.801 1.114-.426 2.1-1.037 2.825-1.998.594-.79 1.155-1.606 1.713-2.422 1.748-2.56 2.207-5.467 1.671-8.399-.773-4.227-2.079-8.293-5.395-11.368-.263-.243-.308-.722-.528-1.277-1.108-.517-1.899-1.756-2.926-2.734-.412-.393-.845-.875-1.356-1.033-1.753-.541-3.541-.981-5.33-1.394-.278-.064-.647.194-.955.344-.722.351-1.408.799-2.158 1.071-.636.231-1.35.338-2.217-.301.929-.309 1.633-.542 2.448-.813-2.805-.65-4.737-2.238-6.042-4.639-.687-1.263-1.384-2.522-2.118-3.758-.599-1.009-1.37-1.863-2.589-2.482.682 1.282 1.152 2.42 1.308 3.705.157 1.288.523 2.549.762 3.828.259 1.38.94 2.51 1.929 3.479.279.273.531.573.897.973m-22.039-11.046c-.094-.064-.189-.127-.283-.191-.741.827-1.573 1.592-2.201 2.498-.74 1.065-1.342 2.233-1.937 3.391-1.319 2.566-3.264 4.356-6.222 5.05.806.294 1.49.544 2.173.792-.221.326-.406.433-.601.451-1.281.125-2.361-.371-3.392-1.076-.344-.235-.831-.524-1.181-.449-1.75.379-3.493.815-5.2 1.355-.551.174-1.018.685-1.461 1.109-1.023.978-1.835 2.184-3.168 2.848.32.502.094.844-.275 1.176-1.531 1.377-2.548 3.087-3.429 4.944-.802 1.689-1.288 3.451-1.707 5.238-.864 3.684-.367 7.144 1.926 10.25.294.399.618.777.88 1.195.776 1.235 1.891 2.022 3.238 2.516 1.01.37 2.04.697 3.029 1.12 1.43.61 2.819 1.269 4.446 1.245.979-.015 1.962.201 2.943.315 1.237.145 2.391-.247 3.578-.497 2.803-.589 5.623-1.074 8.287-2.204 2.583-1.095 5.011-2.409 7.151-4.255 1.873-1.618 2.634-3.654 2.732-6.072.105-2.612-.559-5.091-1.207-7.561-.265-1.009-.871-1.984-1.515-2.83-1.101-1.445-2.619-2.482-4.176-3.363-2.201-1.245-4.101-2.892-6.173-4.306-.352-.24-.661-.546-1.011-.838.169-.259.236-.442.366-.547 1.521-1.226 2.25-2.878 2.585-4.747.126-.707.276-1.411.382-2.12.232-1.557.554-3.08 1.423-4.437m-29.095 24.184c-1.605.529-3.229.848-4.866.705-1.729-.152-3.186-1.114-4.257-2.397-1.77-2.119-3.2-4.481-3.323-7.362-.107-2.492.044-4.986 1.478-7.135.633-.95 1.478-1.832 2.403-2.5 1.419-1.023 2.958-.96 4.569-.162 2.748 1.363 5.339 2.96 7.802 4.774.611.45 1.171.975 1.735 1.485 1.117 1.008 2.653.541 2.919-.961.137-.777.038-1.598.044-2.399.002-.255 0-.511 0-.823.866-.102 1.131.375 1.168 1 .048.801.012 1.606.012 2.476 1.713-.471 3.418-.94 5.172-1.422-.339-.702-.682-1.324-.94-1.981-.146-.374-.195-.853.353-.99.414-.104.649.173.796.552.179.46.359.926.604 1.352.458.796 1.933 1.486 2.78 1.245 2.118-.603 3.945-1.64 5.058-3.654.739-1.337 1.461-2.684 2.237-3.999.96-1.624 2.309-2.864 3.954-3.778 1.184-.657 3.157-.418 4.156.528.979.926 1.916 1.897 2.861 2.857.248.254.461.541.779.919.927-2.217 2.607-3.544 4.287-4.785 1.186-.875 2.647-1.044 4.068-.236 2.463 1.399 3.965 3.598 5.145 6.075.644 1.35 1.399 2.624 2.565 3.596.723.6 1.438 1.167 2.47 1.267.619.061 1.13.435 1.885.29 1.02-.196 1.62-.686 2.033-1.541.156-.323.264-.669.396-1.003.151-.38.414-.611.832-.477.466.149.437.574.312.9-.255.668-.591 1.305-.937 2.051 1.697.471 3.408.946 5.236 1.454-.049-.748-.129-1.455-.13-2.164-.002-.884.22-1.123 1.216-1.38v.911c0 .713-.016 1.425.003 2.136.022.884.532 1.329 1.339 1.638.817.312 1.247-.146 1.775-.584 2.278-1.895 4.597-3.733 7.306-5.004.651-.305 1.271-.676 1.905-1.015 2.189-1.175 4.07-.867 5.857.897 1.683 1.661 2.506 3.693 2.684 6.012.071.936.126 1.883.079 2.82-.144 2.88-1.505 5.298-3.359 7.336-1.642 1.805-3.723 2.985-6.397 2.203-.841-.245-1.822.065-2.714-.763.559 3.003 1.372 5.762.844 8.744-.539 3.041-2.479 5.218-4.065 7.724.853.078 1.609.113 2.353.222 1.872.273 4.083 2.393 4.16 4.26.061 1.49-.45 2.92-1.597 4.001-.292.275-.665.463-.986.709-.627.484-1.052 1.044-1.061 1.92-.01.981-.551 1.54-1.303 1.581-.738.039-1.538-.616-1.692-1.475-.219-1.221.127-2.319.889-3.285.221-.282.504-.515.738-.788.75-.878.708-2.543-.096-3.343-.184-.182-.432-.342-.68-.41-1.005-.275-2.771.835-2.908 1.874-.314 2.396-.705 4.782-.545 7.223.182 2.774.374 5.556.355 8.333-.021 2.983-.707 5.953-2.823 8.09-2.567 2.592-5.816 3.835-9.57 2.921-1.42 1.159-2.837 2.315-4.455 3.636.049.259.044.818.26 1.27.519 1.087 1.104 2.146 1.735 3.172.385.624.789 1.204.714 1.98-.083.852-.37 1.564-1.196 1.971-2.716 1.338-5.071 3.209-7.506 4.979-1.476 1.073-3.158 1.871-4.783 2.725-2.369 1.246-4.329.386-6.075-1.32-1.56-1.523-1.531-1.916-.004-3.517.88-.924 2.06-1.272 3.161-1.726 1.653-.682 3.4-1.134 5.068-1.784 2.041-.797 4.04-1.7 5.973-2.522.271-1.234-.439-1.966-.785-2.89-.984 1.089-2.15 1.549-3.572 1.34-.734 1.858-2.089 3.079-3.888 3.798-2.082.832-4.173 1.643-6.29 2.376-.921.318-1.913.451-2.883.602-.423.067-.935.099-1.298-.078-1.524-.746-3.13-1.374-4.31-2.683-.81-.899-.752-1.16.322-1.811 1.415-.857 2.962-1.275 4.579-1.499 1.724-.24 3.394-.683 5.009-1.277-1.242-.35-2.472-.641-3.66-1.051-.783-.27-1.321-.833-1.587-1.698-.34-1.111-.825-2.177-1.268-3.312-.506-.125-1.032-.218-1.534-.386-.735-.247-1.24.077-1.589.644-.666 1.082-1.608 1.757-2.806 2.12-.675.205-1.102.507-1.186 1.369-.11 1.111-.633 2.153-1.425 2.983-1.334 1.398-2.697 2.769-4.061 4.136-.795.797-.838 1.522.14 2.073 1.656.931 3.254 1.882 5.291 2.126 2.684.319 5.454.736 7.732 2.48.251.191.512.373.733.593.626.626.763 1.349.33 2.08-1 1.684-3.811 2.825-5.38 2.153-3.542-1.518-7.151-2.9-10.431-4.952-1.51-.944-2.987-1.971-4.351-3.114-1.186-.994-1.2-1.741-.106-2.847 1.133-1.145 2.445-2.113 3.641-3.199 1.223-1.111 2.424-2.247 3.582-3.424.394-.401.629-.96.917-1.418-.96-1.135-1.847-2.184-2.794-3.305-.711.209-1.505.367-2.237.672-1.629.679-3.343.583-5.03.585-.619.001-1.313-.338-1.845-.706-1.502-1.045-3.226-1.746-4.487-3.178-1.737-1.973-3.149-4.11-4.249-6.503-.851-1.849-1.176-3.761-1.228-5.744-.02-.753.126-1.512.206-2.266.143-1.336.478-2.683.395-4.004-.094-1.488-.333-3.05-.912-4.408-1.291-3.028-4.236-4.088-7.09-2.426-1.075.626-2.063 1.45-2.962 2.316-.945.91-1.326 2.12-1.209 3.453.045.506.251.845.822.874.354.019.703.132 1.056.15 1.189.059 1.685.358 2.011 1.399.277.882.057 1.678-.615 2.336-1.27 1.246-2.97 1.348-4.54.222-2.046-1.467-2.793-3.605-2.747-5.987.027-1.459.22-2.935.986-4.29.682-1.205 1.727-1.925 2.841-2.61.229-.141.516-.205.713-.376 2.292-2.005 4.99-1.942 7.786-1.653 2.599.27 4.372 1.632 5.738 3.755 1.359 2.113 2.201 4.421 2.57 6.87.162 1.079-.017 2.245-.226 3.338-.513 2.683-.014 5.181 1.146 7.595.781 1.624 1.637 3.201 2.849 4.553 1.247 1.392 2.759 2.086 4.922 1.782-.384-.449-.634-.778-.922-1.069-.882-.888-1.511-1.901-1.593-3.182-.049-.752-.453-1.169-1.108-1.524-2.142-1.165-2.161-1.232-1.508-3.586.192-.685.504-1.34.797-1.993.939-2.087 1.863-4.181 2.856-6.242.543-1.128 1.214-2.194 1.825-3.289.415-.742.826-1.485 1.282-2.305-.424-.225-.753-.452-1.117-.583-2.405-.867-4.852-1.634-7.213-2.607-.914-.377-1.749-1.109-2.427-1.855-.812-.891-1.473-1.935-2.101-2.972-1.844-3.044-2.18-6.319-1.38-9.749.223-.953.415-1.911.618-2.851" fill="#231f20"/><path d="m145.654 114.301c.193-1.662-.772-2.605-2.902-2.963.901 1.036 1.188 2.599 2.902 2.963m-7.609-3.781c.912-.884 1.755-1.032 2.654-.845 1.631.342 3.172.915 4.609 1.79.811.495 1.165 1.247 1.36 2.078.222.94-.265 1.455-1.228 1.465-.898.01-1.526-.456-2.032-1.135-.376-.504-.745-1.013-1.101-1.532-.802-1.176-1.927-1.697-3.33-1.688-.213.002-.425-.058-.932-.133" fill="#231f20"/><path d="m52.54 112.115c-2.566.878-3.056 1.404-2.784 2.987 1.682-.318 1.966-1.922 2.784-2.987m4.692-.854c-.369.093-.601.201-.833.2-1.468-.014-2.597.587-3.416 1.798-.326.485-.664.961-1.013 1.429-.539.725-1.219 1.191-2.17 1.128-.793-.053-1.175-.427-1.111-1.202.068-.829.377-1.613 1.061-2.102 1.553-1.118 3.336-1.751 5.201-2.076.764-.131 1.585.026 2.281.825" fill="#231f20"/><path d="m53.231 118.807c.478-1.196.873-2.182 1.335-3.339-1.877 1.048-2.282 1.963-1.335 3.339m3.66-4.536c-1.413 1.081-2.024 2.593-2.579 4.164-.328.931-.897 1.331-1.394 1.2-.58-.154-1.217-1.048-1.225-1.774-.002-.26.051-.537.146-.779.666-1.688 3.032-3.076 5.052-2.811" fill="#231f20"/><path d="m142.176 117.926c.959-1.322.43-2.428-1.27-3.111.174.512.32 1.02.517 1.507.199.493.45.964.753 1.604m-3.518-4.685c2.074.114 3.738.994 4.771 2.864.229.415.23 1.055.111 1.536-.143.577-.625 1.005-1.265 1.08-.683.08-.898-.502-1.153-.962-.172-.312-.268-.667-.381-1.009-.36-1.09-.917-2.048-1.809-2.795-.161-.137-.298-.304-.446-.457.057-.086.114-.172.172-.257" fill="#231f20"/><path d="m64.29 107.216c.429 1.461 1.884 2.438 3.183 2.006.766-.254 1.412-.879 2.092-1.366.06-.044-.036-.306-.062-.483-.919.365-1.775.985-2.611.96-.847-.026-1.674-.691-2.602-1.117m19.823-3.712c.413.606.852.715 1.359.543.506-.171 1.02-.346 1.487-.601 1.002-.546 1.549-1.473 1.84-2.532.208-.75-.04-1.165-.748-1.546-.044.126-.118.247-.125.371-.12 2.25-.632 2.84-2.845 3.333-.315.071-.602.264-.968.432m-16.078 3.042c1.036.139 1.761-.331 2.274-1.259.782-1.41.567-2.657-.717-3.855-1.001-.933-2.863-1.127-4.021-.416-1.183.724-1.659 2.28-1.064 3.528.699 1.467 1.9 2.077 3.528 2.002m8.309 6.774c2.574-.363 4.905-1.075 6.646-3.187.733-.888 1.158-1.818 1.204-2.912.043-1.062-.226-2.091-1.085-2.793-1.507-1.234-3.235-1.196-4.965-.603-1.011.347-1.983.823-2.946 1.293-1.542.753-3.028 1.559-3.826 3.234-.445.932-.351 1.726.245 2.511 1.194 1.57 2.825 2.285 4.727 2.457m6.779-11.253c.988-.005 1.946-.375 2.716-1.012.513-.423.802-.951.858-1.613.163-1.937-1.227-3.479-3.162-3.501-.359-.005-.719-.016-1.077.011-1.158.088-1.906.797-2.343 1.779-.506 1.133-.715 2.309.315 3.333.747.743 1.667 1.012 2.693 1.003m-9.779 20.293c0 .36.031.723-.006 1.079-.107 1.075.413 1.644 1.388 2.01 1.988.744 3.959.651 5.952.079 2.904-.834 5.639-2.097 8.369-3.359.626-.288 1.105-.879 1.684-1.286.723-.511.615-1.113.284-1.775-.529-1.057-1.19-2.007-2.101-2.779-1.312-1.112-2.712-2.032-4.335-2.68-.787-.313-1.399-.341-2.158-.114-1.287.386-2.608.66-3.902 1.022-.908.253-1.827.507-2.682.892-.451.204-.943.618-1.129 1.058-.787 1.865-1.541 3.759-1.364 5.853m15.748-39.127c-.869 1.358-1.191 2.882-1.423 4.437-.106.711-.256 1.413-.382 2.121-.335 1.869-1.064 3.521-2.585 4.747-.13.105-.198.288-.366.547.349.292.658.598 1.011.839 2.072 1.413 3.972 3.06 6.173 4.306 1.557.88 3.074 1.916 4.176 3.362.643.845 1.25 1.82 1.514 2.83.649 2.47 1.312 4.949 1.207 7.561-.097 2.417-.858 4.455-2.731 6.072-2.14 1.846-4.568 3.161-7.152 4.255-2.663 1.13-5.483 1.615-8.286 2.204-1.187.249-2.341.642-3.578.497-.981-.115-1.964-.329-2.943-.315-1.627.025-3.016-.634-4.446-1.245-.989-.423-2.019-.749-3.029-1.12-1.347-.494-2.463-1.28-3.238-2.517-.262-.417-.586-.796-.88-1.193-2.293-3.107-2.79-6.567-1.926-10.251.419-1.787.905-3.55 1.707-5.239.881-1.856 1.898-3.566 3.429-4.943.37-.331.595-.674.275-1.176 1.333-.664 2.145-1.871 3.168-2.848.443-.423.91-.935 1.461-1.109 1.706-.539 3.45-.976 5.2-1.354.35-.076.837.213 1.181.448 1.031.705 2.111 1.2 3.392 1.076.195-.018.38-.124.601-.45-.684-.25-1.367-.499-2.174-.793 2.959-.694 4.903-2.485 6.223-5.051.595-1.157 1.196-2.325 1.937-3.391.628-.904 1.46-1.67 2.201-2.496.094.063.188.127.283.189" fill="#cbab84"/><path d="m131.101 106.408c-.163-.01-.218-.032-.248-.013-.187.118-.374.235-.55.368-1.402 1.066-2.033 1.088-3.502.157-.268-.17-.587-.26-.976-.428.214 1.057 1.415 1.959 2.46 2.006 1.278.057 2.397-.745 2.816-2.09m-23.796-7.954c-1.059.942-.955 1.947.174 3.398.689.886 1.699 1.127 2.669 1.418.295.089.695-.173 1.064-.28-.241-.708-.714-.684-1.149-.765-1.783-.331-2.537-1.213-2.614-3.005-.009-.238-.087-.473-.144-.766m11.892 14.036c1.505-.13 2.944-.687 4.081-1.878 1.298-1.359 1.371-2.289.287-3.824-.916-1.296-2.277-2-3.694-2.602-.7-.298-1.472-.481-2.097-.891-1.245-.817-2.608-.732-3.913-.517-.893.148-1.752.695-2.21 1.617-.748 1.506-.661 3.007.279 4.353 1.718 2.459 4.245 3.477 7.267 3.742m8.177-6.752c1.459-.02 2.21-.323 2.984-1.171 1.318-1.444.858-3.845-.864-4.515-1.846-.718-3.284-.181-4.401 1.496-.665.999-.612 1.892-.055 2.886.546.974 1.3 1.462 2.336 1.304m-15.238-4.481c1.372-.006 2.342-.44 2.937-1.16.747-.902.653-1.809.293-2.862-.701-2.048-3.991-2.968-5.589-1.487-.033.031-.067.062-.093.097-1.566 2.087-1.548 4.313 1.571 5.295.336.106.709.096.881.117m9.935 20.234c.139-1.578-.464-3.175-.968-4.813-.399-1.298-1.122-2.071-2.431-2.404-2.085-.529-4.151-1.128-6.23-1.68-.249-.066-.551-.096-.79-.021-2.313.729-4.407 1.85-5.899 3.813-.528.694-.857 1.566-1.158 2.4-.317.879.11 1.567.836 2.075.256.18.527.349.812.476 2.787 1.238 5.546 2.541 8.489 3.389 1.579.456 3.166.614 4.783.243 2.326-.535 2.514-.77 2.556-3.166zm-10.939-27.212c-.367-.4-.618-.7-.897-.973-.99-.969-1.671-2.099-1.929-3.479-.24-1.279-.605-2.54-.762-3.828-.156-1.285-.626-2.423-1.308-3.705 1.218.619 1.989 1.473 2.589 2.483.733 1.236 1.431 2.494 2.117 3.757 1.305 2.401 3.237 3.989 6.043 4.64-.815.27-1.519.503-2.449.812.868.639 1.582.532 2.218.301.75-.272 1.435-.72 2.158-1.071.308-.149.676-.408.955-.344 1.789.413 3.575.853 5.33 1.394.51.158.943.64 1.355 1.033 1.027.979 1.818 2.217 2.925 2.734.221.556.267 1.034.53 1.277 3.315 3.076 4.622 7.141 5.394 11.369.537 2.931.077 5.838-1.671 8.398-.558.817-1.119 1.632-1.713 2.422-.724.962-1.71 1.572-2.825 1.998-1.55.593-3.09 1.214-4.643 1.801-.782.297-1.52.621-2.449.48-.763-.116-1.589.175-2.386.302-1.304.209-2.576.174-3.868-.187-1.334-.374-2.709-.601-4.065-.892-4.183-.899-8.026-2.557-11.407-5.203-.668-.521-1.244-1.16-1.897-1.779.113-.389.191-.732.308-1.06 1.129-3.163.91-6.299-.349-9.345-.464-1.123-.362-2.034.135-3.074.743-1.554 1.848-2.756 3.246-3.704 1.411-.958 2.88-1.829 4.272-2.811 1.673-1.181 3.292-2.439 5.043-3.746" fill="#cbab84"/><path d="m72.637 131.313c.592 2.514 2.5 3.492 4.208 4.577 1.195.758 2.579 1.226 3.893 1.789 2.256.966 4.525 1.905 6.85 2.882-.212.84-.496 1.716.335 2.35.568.434 1.173.355 1.661-.031.278.588.47 1.259.869 1.77.644.824.946.779 1.713.014.124-.123.255-.239.45-.421.139.377.254.687.349.942-.456.245-.915.42-1.291.706-1.17.889-2.499 1.343-3.935 1.512-2.678.315-5.336.253-8.03-.031-2.87-.303-5.652-.898-8.39-1.725-1.05-.317-2.036-.897-2.99-1.462-.705-.419-1.058-1.053-.647-1.948.54-1.176.989-2.394 1.503-3.584.854-1.972 1.72-3.939 2.603-5.899.194-.431.48-.821.849-1.441" fill="#87ba8b"/><path d="m144.625 89.411c1.575 1.508 2.194 3.507 2.432 5.714.369 3.398-.753 6.317-2.891 8.834-2.562 3.017-5.455 3.046-8.434 1.393-.754-.42-1.351-1.336-1.743-2.156-.765-1.602-1.733-3.021-3.137-4.33.498-.339.925-.632 1.355-.922 1.98-1.343 3.783-2.858 5.215-4.815.711-.971 1.61-1.813 2.481-2.655.829-.8 1.951-.835 3.018-.955.526-.059 1.057-.069 1.704-.108" fill="#f9cade"/><path d="m64.575 99.69c-1.698 1.358-2.591 3.114-3.48 4.874-.533 1.055-1.396 1.678-2.487 2.137-3.148 1.324-6.098-.092-7.652-2.19-1.026-1.385-1.952-2.865-2.315-4.531-.765-3.511-.498-6.878 1.97-9.646.816 0 1.527-.075 2.214.016 1.205.16 2.382.411 3.218 1.464.78.982 1.582 1.959 2.474 2.837 1.307 1.285 2.683 2.504 4.072 3.701.564.486 1.24.842 1.986 1.338" fill="#f9cade"/><path d="m103.479 130.934c.772-.189 1.487-.383 2.212-.536 2.06-.435 4.103-.899 5.949-1.988 1.306-.77 2.752-1.093 4.262-1.106 1.771-.013 2.711.659 3.336 2.326.157.417.399.804.537 1.225.733 2.243-.086 4.174-1.421 5.872-.701.893-1.662 1.664-2.655 2.228-1.672.948-3.432 1.759-5.213 2.487-1.104.451-2.308.675-3.481.934-.673.148-1.11-.222-1.133-.981-.052-1.703-.602-3.311-.872-4.97-.047-.289-.122-.675.018-.873.456-.646.132-1.172-.254-1.572-.763-.789-1.051-1.743-1.285-3.046" fill="#639fd5"/><path d="m76.432 154.652c-2.322 1.124-4.532 1.399-6.813.688-3.211-1.002-5.679-2.95-7.409-5.866-1.009-1.701-1.999-3.382-2.638-5.278-.65-1.928-.838-3.807-.35-5.8.674-2.754.615-5.552-.177-8.261-.589-2.011-1.869-3.567-3.98-4.237-2.158-.684-4.053-.027-5.817 1.205-.368.257-.679.594-1.05.843-1.755 1.176-2.387 2.982-2.66 4.924-.127.897.366 1.692 1.241 2.052.524.215 1.126.261 1.7.323.834.09 1.201.532 1.032 1.331-.249 1.171-1.708 1.872-2.899 1.348-1.449-.639-2.412-1.79-2.766-3.29-.376-1.597-.485-3.212.038-4.871.813-2.583 2.593-4.141 4.987-5.066 2.906-1.122 5.809-.967 8.579.476.65.338 1.26.881 1.702 1.469 2.445 3.25 3.617 6.832 2.886 10.961-.323 1.815-.201 3.66.485 5.435.993 2.571 2.155 5.056 4.01 7.114 1.529 1.698 3.425 2.56 5.789 1.9.311-.086.772-.092 1.003.08 1.031.766 2.002 1.611 3.107 2.52" fill="#fdca93"/><path d="m96.944 143.857c.59-.614 1.176-1.223 1.78-1.851.458.196.855.393 1.271.542 1.487.532 1.851.37 2.506-1.157.732-.106 1.517-.22 2.377-.345.04.457.042.858.116 1.246.165.867.741 1.221 1.65 1.171 2.067-.111 3.917-.946 5.753-1.76 1.635-.727 3.245-1.555 4.757-2.509 1.587-1.003 2.65-2.518 3.52-4.551.054 1.037.142 1.798.128 2.556-.05 2.559-.115 5.117-.223 7.673-.032.753-.189 1.509-.362 2.245-.168.72-.67 1.103-1.413 1.263-3.401.731-6.839.996-10.306.785-1.706-.104-3.386-.463-4.95-1.166-1.717-.772-3.383-1.658-5.081-2.473-.732-.351-1.162-.946-1.523-1.669" fill="#639fd5"/><path d="m78.115 154.091c-.568-.243-1.001-.341-1.326-.581-1.511-1.12-3.029-2.232-4.465-3.443-.637-.537-1.135-1.267-1.595-1.974-.243-.374-.268-.89-.445-1.539 1.833.41 3.423.786 5.023 1.113.961.197 1.937.318 2.907.467.751.116 1.502.24 2.256.329 3.132.372 6.24.261 9.312-.496 1.138-.281 2.238-.623 3.058-1.545.097-.108.332-.091.566-.146.168.272.358.515.481.79.513 1.151 1.085 2.253 1.943 3.205.572.635.586 1.079.062 1.664-.742.831-1.563 1.598-2.695 1.795-.575-.362-.239-.714-.075-1.066-.659.362-.659.362-.758 1.286h-2.201c.406-.878 1.828-1.143 1.303-2.444-2.145 1.53-4.447 2.802-6.322 4.702-.547.553-1.495.788-2.302.974-.456.105-.918.122-1.385.304-.291.112-.776-.098-1.101-.288-.87-.508-1.974-2.133-2.241-3.107" fill="#cbab84"/><path d="m85.428 94.825c2.068-1.179 2.407-3.07 2.785-4.933.231-1.146.448-2.297.622-3.453.194-1.29.739-2.404 1.597-3.36.802-.894 1.571-1.079 2.635-.529.744.384 1.466.876 2.071 1.453.94.899 1.775 1.909 2.651 2.874 2.271 2.496 2.651 5.741 1 8.736-.482.874-1.16 1.429-2.133 1.713-1.475.428-2.959.814-4.495.718-.833-.052-1.728-.211-2.458-.589-1.386-.718-2.673-1.628-4.275-2.63" fill="#f9cade"/><path d="m91.554 129.703c-1.415 3.17-1.933 6.635-3.765 9.661-.378-.071-.695-.074-.966-.187-3.174-1.336-6.376-2.614-9.492-4.076-1.104-.519-2.049-1.437-2.95-2.297-.372-.354-.658-1.063-.588-1.556.141-1.003.53-1.975.861-2.946.16-.466.613-.448 1.025-.465 1.249-.053 2.497-.125 3.746-.176.218-.008.438.059.66.077 1.691.135 3.381.277 5.073.398 2.175.155 4.384.165 6.396 1.567" fill="#87ba8b"/><path d="m119.083 149.371c-.329.738-.545 1.359-.866 1.918-1.27 2.206-2.782 4.199-5.068 5.463-1.492.825-2.995.969-4.436-.082-.792-.579-1.528-1.236-2.267-1.883-.571-.501-1.105-1.043-1.663-1.558-.086-.078-.216-.149-.327-.15-1.824-.025-3.502-.587-5.061-1.473-2.288-1.3-4.048-3.078-4.852-5.656 1.396-.948 1.373-.913 2.621-.129.909.57 1.865 1.073 2.834 1.535 2.595 1.236 5.236 2.414 8.13 2.684 1.777.166 3.585.141 5.369.032 1.779-.111 3.545-.435 5.586-.701" fill="#cbab84"/><path d="m98.374 86.428c.624-2.56 2.489-3.85 4.592-4.878.761-.371 1.403.112 1.906.64.921.967 1.448 2.14 1.676 3.462.236 1.373.491 2.742.796 4.101.565 2.519.585 2.52 2.381 4.31-.359.27-.694.558-1.062.796-.828.534-1.668 1.051-2.509 1.565-1.284.784-2.7.958-4.156.792-.785-.09-1.554-.317-2.4-.497.279-1.919 1.346-3.504.896-5.466-.413-1.804-1.144-3.383-2.12-4.825" fill="#f9cade"/><path d="m118.031 153.672c.528-.82 1.034-1.604 1.541-2.39 2.286.373 4.397-.668 5.672-2.691 1.065-1.69 1.541-3.506 1.501-5.488-.061-2.967-.012-5.94-.185-8.901-.108-1.845-.118-3.682.147-5.487.273-1.858 1.026-3.655 2.894-4.406 1.344-.539 2.893-.737 4.35-.407 1.288.292 2.394 1.051 3.158 2.165.852 1.241.494 3.596-.651 4.592-.304.264-.655.473-.982.713-.799.587-1.336 1.31-1.339 2.365-.002.369-.151.738-.237 1.133-1.118-.442-1.334-.713-1.264-1.589.077-.976.431-1.836 1.192-2.491 1.253-1.08 1.285-2.399.718-3.809-.416-1.038-1.189-1.45-2.317-1.508-1.462-.077-2.54.447-3.197 1.763-.155.309-.297.652-.328.991-.176 2.009-.442 4.021-.44 6.031.004 2.275.244 4.55.406 6.823.189 2.628-.07 5.163-1.09 7.641-.926 2.245-2.56 3.688-4.729 4.495-1.511.562-3.113 1.129-4.82.455" fill="#fdca93"/><path d="m109.828 158.357c.809.075 1.379.127 2.076.193.163 1.779 1.073 3.242 2.116 4.663.79 1.076.54 1.94-.586 2.724-2.281 1.587-4.517 3.237-6.824 4.783-1.78 1.194-3.515 2.468-5.607 3.149-1.2.39-2.2.243-3.147-.512-.457-.364-.901-.748-1.314-1.16-.622-.616-.648-.914-.07-1.615 1.017-1.234 2.493-1.732 3.911-2.27 2.299-.872 4.641-1.634 6.947-2.49 1.343-.497 2.652-1.086 3.975-1.632.826-.341.979-.789.507-1.592-.272-.461-.652-.868-.867-1.352-.398-.892-.712-1.824-1.117-2.889" fill="#fdca93"/><path d="m81.215 158.75c.357-.038.748-.078 1.142-.119-.013 1.492-.887 2.513-1.8 3.489-1.041 1.111-2.175 2.138-3.19 3.272-.498.556-.818 1.269-1.222 1.908-.306.486-.145.897.287 1.152 2.463 1.446 4.827 3.085 7.837 3.298 1.642.116 3.275.414 4.849 1 .974.362 1.676.977 2.285 1.725-.694 1.822-2.524 2.841-4.292 2.291-1.145-.356-2.229-.918-3.331-1.408-1.146-.509-2.29-1.028-3.422-1.569-2.513-1.202-4.921-2.59-7.09-4.345-1.221-.986-1.224-1.5-.021-2.582 1.501-1.349 3.063-2.632 4.633-3.901 1.39-1.125 2.343-2.573 3.335-4.211" fill="#fdca93"/><path d="m88.478 164.94c1.206-.982 2.706-1.048 4.14-1.332 2.552-.503 5.074-1.127 7.356-2.436 1.781-1.02 2.195-2.406 1.685-4.213-.206-.732-.418-1.462-.596-2.2-.092-.374-.113-.765-.182-1.27.942.231 1.791.44 2.58.634.13 1.512.212 2.891.38 4.259.103.838.304 1.668.527 2.484.324 1.179.06 2.193-.957 2.828-1.17.729-2.42 1.343-3.678 1.913-1.136.514-2.324.921-3.502 1.338-.883.312-1.77.646-2.684.826-1.942.383-4.23-.745-4.99-2.379-.053-.113-.046-.255-.079-.452" fill="#fdca93"/><path d="m101.526 135.485c.457.396.898.813 1.376 1.182.669.514 1.08 1.166.903 1.526-.208.426-1.016.574-1.857.281-.414-.145-.806-.368-1.182-.597-.686-.419-.678-.431-1.406.47.889.813 1.966 1.578 1.691 3.118-.401.124-.852.507-1.063-.298-.021-.083-.084-.215-.137-.221-.977-.092-1.377-.952-1.927-1.541-1.339-1.436-3.123-1.867-4.884-2.347-.49-.134-1.069-.003-1.596.078-.473.072-.931.24-1.603.422.415-1.32.782-2.491 1.165-3.713.172-.022.375.013.494-.07 1.804-1.288 3.99-1.305 6.027-1.636 1.7-.275 3.454.207 5.057.996.645.317.848.891.989 1.506.107.462-.183.686-.603.666-.427-.019-.849-.124-1.274-.193-.056.125-.113.248-.17.371" fill="#fdca93"/><path d="m114.147 126.674c-2.228.848-4.325 1.717-6.473 2.434-1.049.351-2.187.482-3.295.596-1.797.183-2.076.517-1.647 2.294-1.581-.358-3.158-.715-4.811-1.089.424-.851 1.291-1.478 1.999-2.219.898-.939 1.974-1.718 2.819-2.698.852-.989 2.045-1.237 3.126-1.701.389-.168 1.009.161 1.512.306 1.592.457 3.175.943 4.766 1.399.515.149 1.049.229 1.569.36.113.029.202.144.435.318" fill="#639fd5"/><path d="m83.609 126.968c2.702-.989 5.302-1.941 7.962-2.914 2.551 1.109 4.218 3.351 6.126 5.314-.537.703-.969 1.328-1.47 1.892-.18.204-.512.315-.795.38-1.256.284-2.52.536-3.917.828.132-.413.272-.897.443-1.371.105-.294.291-.56.381-.857.461-1.528.329-1.616-1.174-2.197-2.059-.794-4.181-.957-6.345-.966-.377-.002-.754-.067-1.211-.109" fill="#87ba8b"/><path d="m91.178 144.086c-.697-1.705.76-2.866.844-4.376-.961-.158-1.112.829-1.731 1.104-.619.274-1.115.827-1.85 1.405 0-.446-.092-.763.014-.986.657-1.391 1.85-2.287 3.051-3.16.159-.115.435-.121.65-.101 2.352.226 4.452.94 5.886 3.133-1.044 1.059-2.069 2.108-3.104 3.146-.262.262-.597.507-.95.233-.363-.282-.586-.642-.291-1.163.193-.342.314-.759.338-1.15.015-.252-.147-.667-.332-.738-.21-.08-.604.074-.793.254-.209.203-.254.564-.411.832-.333.562-.537 1.238-1.321 1.567" fill="#fdca93"/><path d="m143.345 88.534c-2.801-.211-4.728 1.284-6.23 3.333-1.433 1.955-3.223 3.477-5.123 4.914-1.669 1.263-2.477 1.124-3.541-.683 2.36-1.781 4.659-3.655 7.104-5.313 1.512-1.024 3.206-1.815 4.897-2.522.889-.373 1.938-.241 2.893.271" fill="#cbab84"/><path d="m52.105 89.29c1.205-.392 2.376-.576 3.591.14 1.583.932 3.317 1.628 4.84 2.645 1.823 1.217 3.492 2.665 5.221 4.007-.132.479-.242.879-.431 1.563.618-.265.992-.426 1.348-.578-.654 1.55-1.592 1.76-2.986.735-1.994-1.464-3.918-2.987-5.369-5.056-.636-.904-1.503-1.688-2.387-2.366-1.098-.843-2.45-1.029-3.827-1.09" fill="#cbab84"/><path d="m100.74 157.533c.179 2.173-1.073 3.349-3.108 2.904-1.003-.219-1.998-.471-3-.689-.758-.166-1.255-.614-1.629-1.285-.54-.97-1.158-1.901-1.179-3.05.985-.61 1.808.068 2.3.55 1.864 1.826 4.049 1.853 6.372 1.515.077-.01.163.035.244.055" fill="#fdca93"/><path d="m98.637 128.621c-1.221-1.137-2.331-2.169-3.686-3.43 2.483.142 4.615.264 6.592.378-.921.966-1.92 2.016-2.906 3.052" fill="#639fd5"/><path d="m105.424 160.722c-.27-1.007-.52-1.94-.803-3 1.226.018 2.178.251 2.996.934.479.402.792.871.562 1.522-.191.544-.749.799-1.564.725-.357-.032-.709-.106-1.191-.181" fill="#fdca93"/><path d="m101.847 139.669c.911-.104 1.777-.203 2.783-.319-.068.254-.061.583-.186.643-.825.406-1.692.364-2.553.094-.032-.011-.02-.164-.044-.418" fill="#fff"/><path d="m145.654 114.301c-1.714-.364-2.001-1.927-2.902-2.963 2.13.358 3.095 1.301 2.902 2.963" fill="#fff"/><path d="m52.54 112.115c-.818 1.065-1.102 2.669-2.784 2.987-.272-1.583.218-2.109 2.784-2.987" fill="#fff"/><path d="m53.231 118.807c-.947-1.376-.542-2.291 1.335-3.339-.462 1.157-.857 2.143-1.335 3.339" fill="#fff"/><path d="m142.176 117.926c-.303-.64-.554-1.111-.753-1.604-.197-.487-.343-.995-.517-1.507 1.7.683 2.229 1.789 1.27 3.111" fill="#fff"/><path d="m77.309 115.66c.213.645.388 1.226.598 1.794.192.524.569.731 1.149.693 1.127-.072 2.159-.414 3.205-.891-.143-.89-.274-1.707-.408-2.54-.809.122-1.514.2-2.205.342-.696.143-1.378.352-2.339.602m9.819 6.231c-.682-.287-1.07-.563-1.479-.601-1.524-.144-3.053-.103-4.431.661-1.101.611-1.708 1.581-1.823 3.016 2.712-.667 5.151-1.567 7.733-3.076m-10.661-5.576c-.829.144-1.228.548-1.413 1.14-.361 1.154-.791 2.302-.99 3.487-.144.863-.007 1.785.099 2.669.037.304.302.722.569.833 1.07.444 2.171.857 3.442.584.778-1.983 1.607-3.966 4.014-4.478 2.113-.451 4.185-.553 6.016 1.042.619-.412 1.204-.8 1.778-1.182-.262-1.828-1.218-3.12-2.526-4.118-1.306-.997-2.565-2.356-4.54-1.388.092.656.203 1.361.286 2.07.067.562-.174 1.007-.715 1.153-1.211.324-2.427.658-3.663.855-.946.149-1.218-.117-1.622-1.047-.231-.53-.476-1.053-.735-1.62m-3.123 6.045c-.177-2.094.577-3.988 1.364-5.853.186-.44.678-.854 1.129-1.058.855-.385 1.774-.639 2.682-.892 1.295-.362 2.615-.636 3.903-1.022.759-.227 1.37-.199 2.157.114 1.624.648 3.023 1.568 4.336 2.68.91.772 1.572 1.722 2.1 2.78.331.661.439 1.263-.284 1.774-.578.407-1.058.998-1.683 1.286-2.731 1.262-5.465 2.525-8.37 3.359-1.993.572-3.964.665-5.951-.079-.975-.365-1.496-.935-1.388-2.009.036-.357.005-.72.005-1.08" fill="#231f20"/><path d="m81.002 98.689c.035.799.464 1.304 1.082 1.273.625-.03 1.036-.44 1.013-1.006-.029-.674-.658-1.296-1.305-1.289-.523.005-.817.385-.79 1.022m2.122 3.377c-1.026.009-1.947-.259-2.694-1.003-1.03-1.025-.821-2.199-.314-3.334.437-.981 1.184-1.69 2.342-1.777.358-.028.718-.016 1.077-.012 1.935.022 3.325 1.565 3.162 3.502-.056.661-.345 1.188-.857 1.613-.77.637-1.729 1.006-2.716 1.011" fill="#231f20"/><path d="m76.391 112.506c.868-.199 1.766-.317 2.6-.615 1.751-.628 3.118-1.804 4.026-3.412.978-1.735-.094-3.786-2.058-4.072-.767-.112-1.574-.351-2.223.374-.099.112-.345.081-.511.145-1.255.492-2.559.893-3.742 1.521-.763.405-1.44 1.074-1.992 1.757-.71.875-.576 1.886.24 2.661 1.009.961 2.202 1.545 3.66 1.641m-.046.813c-1.901-.171-3.534-.886-4.727-2.457-.597-.784-.689-1.577-.245-2.51.797-1.675 2.284-2.481 3.825-3.234.964-.471 1.935-.946 2.947-1.294 1.729-.592 3.457-.63 4.964.603.86.702 1.128 1.732 1.085 2.793-.044 1.095-.471 2.024-1.203 2.913-1.741 2.111-4.072 2.824-6.646 3.186" fill="#231f20"/><path d="m67.801 102.213c-.211-.138-.488-.449-.802-.493-.507-.07-1.396.814-1.477 1.332-.074.474.114.798.588.862.548.073 1.631-.926 1.691-1.701m.235 4.332c-1.629.076-2.83-.535-3.529-2.002-.595-1.248-.118-2.804 1.065-3.528 1.157-.71 3.02-.516 4.021.416 1.284 1.198 1.498 2.445.716 3.855-.514.928-1.237 1.399-2.273 1.259" fill="#231f20"/><path d="m84.113 103.503c.367-.167.654-.361.968-.431 2.213-.494 2.725-1.084 2.845-3.333.007-.125.081-.246.126-.372.708.381.955.796.748 1.547-.292 1.059-.838 1.986-1.84 2.531-.468.255-.982.43-1.487.602-.507.171-.947.062-1.36-.544" fill="#231f20"/><path d="m64.29 107.216c.928.426 1.755 1.091 2.602 1.117.836.025 1.692-.595 2.611-.96.026.177.122.439.062.483-.68.487-1.326 1.112-2.092 1.366-1.299.432-2.754-.545-3.183-2.006" fill="#231f20"/><path d="m117.894 114.757c-1.451-.3-2.872-.595-4.376-.906-.137.934-.258 1.758-.39 2.652.603.203 1.136.416 1.686.563 2.449.654 2.561.258 3.151-1.873.02-.076-.026-.171-.071-.436m-1.916 9.394c-.304-1.828-.896-2.657-2.285-3.231-1.266-.523-2.607-.593-3.945-.442-.432.048-.833.363-1.427.639 2.507 1.471 4.945 2.37 7.657 3.034m-3.511-10.109c-.925-.227-1.761-.491-2.546.062-.843.595-1.755 1.118-2.499 1.819-1.042.982-1.916 2.123-1.98 3.765.612.366 1.211.723 1.805 1.077 1.881-1.646 3.967-1.473 6.065-.989 2.362.545 3.152 2.582 4.014 4.658.914-.176 1.736-.353 2.563-.492 1.1-.183 1.423-.932 1.503-1.918.16-1.989-.382-3.824-1.17-5.61-.23-.523-.623-.859-1.331-.867-.248.551-.507 1.116-.759 1.685-.379.85-.611 1.076-1.546.929-1.236-.193-2.453-.518-3.665-.834-.538-.141-.807-.565-.743-1.132.078-.709.188-1.416.289-2.153m9.602 7.451c0 .22.001.265 0 .311-.04 2.395-.229 2.63-2.554 3.165-1.617.373-3.205.213-4.784-.242-2.942-.847-5.702-2.151-8.488-3.389-.286-.126-.556-.297-.813-.477-.725-.508-1.153-1.196-.836-2.075.301-.833.63-1.705 1.158-2.399 1.493-1.964 3.585-3.084 5.899-3.814.239-.075.541-.044.79.021 2.079.553 4.146 1.151 6.231 1.68 1.308.333 2.032 1.107 2.43 2.404.504 1.638 1.108 3.235.967 4.815" fill="#231f20"/><path d="m111.155 96.524c-.58-.006-1.066.515-1.057 1.143.008.546.326.798.838.835.652.046 1.135-.4 1.129-1.027-.006-.535-.398-.945-.91-.951m.982 4.733c-.173-.021-.546-.011-.882-.117-3.119-.982-3.137-3.208-1.571-5.295.027-.035.06-.066.093-.097 1.598-1.481 4.888-.561 5.589 1.487.36 1.053.454 1.96-.293 2.862-.595.72-1.565 1.154-2.936 1.16" fill="#231f20"/><path d="m126.898 101.362c-.6-.001-1.221.618-1.211 1.204.008.443.411.849.86.867.587.023 1.166-.582 1.176-1.229.007-.506-.321-.841-.825-.842m.475 4.376c-1.036.157-1.79-.33-2.336-1.304-.557-.994-.61-1.887.056-2.886 1.117-1.677 2.554-2.214 4.4-1.496 1.722.669 2.182 3.071.864 4.515-.773.847-1.524 1.151-2.984 1.171" fill="#231f20"/><path d="m118.624 111.581c1.744.049 2.984-.537 4.03-1.531.82-.781.948-1.781.233-2.662-.554-.681-1.229-1.355-1.995-1.753-1.228-.638-2.578-1.039-3.873-1.552-.795-.315-1.492-.729-2.476-.539-2.119.412-3.258 2.434-2.116 4.248 1.476 2.345 3.647 3.649 6.197 3.789m.573.91c-3.022-.265-5.549-1.283-7.267-3.743-.94-1.345-1.027-2.847-.279-4.352.458-.922 1.317-1.47 2.21-1.617 1.305-.216 2.668-.301 3.913.517.625.41 1.397.593 2.096.89 1.418.603 2.779 1.306 3.695 2.603 1.084 1.535 1.011 2.465-.287 3.824-1.137 1.19-2.576 1.748-4.081 1.878" fill="#231f20"/><path d="m107.305 98.454c.058.294.135.528.144.766.077 1.792.831 2.674 2.614 3.005.435.081.908.057 1.149.765-.369.107-.769.369-1.064.28-.97-.291-1.98-.532-2.668-1.417-1.13-1.452-1.234-2.457-.175-3.399" fill="#231f20"/><path d="m131.101 106.408c-.419 1.345-1.538 2.147-2.816 2.09-1.045-.047-2.246-.949-2.46-2.006.389.168.708.258.976.428 1.469.931 2.1.909 3.502-.157.176-.133.363-.25.55-.368.03-.019.085.003.248.013" fill="#231f20"/><path d="m76.467 116.314c.258.567.504 1.091.734 1.621.405.93.676 1.195 1.623 1.046 1.236-.196 2.453-.53 3.663-.856.541-.145.781-.59.715-1.152-.084-.708-.195-1.415-.286-2.069 1.975-.968 3.234.391 4.54 1.388 1.307.998 2.265 2.289 2.526 4.116-.575.384-1.158.771-1.778 1.183-1.831-1.594-3.903-1.492-6.017-1.043-2.406.513-3.235 2.497-4.013 4.48-1.272.272-2.372-.141-3.442-.585-.267-.11-.532-.528-.569-.832-.107-.885-.243-1.807-.099-2.669.198-1.185.628-2.333.989-3.487.186-.592.584-.997 1.414-1.141" fill="#d44525"/><path d="m87.129 121.891c-2.583 1.509-5.021 2.409-7.734 3.076.116-1.435.721-2.405 1.822-3.016 1.38-.765 2.909-.805 4.432-.662.41.039.798.315 1.48.602" fill="#f79c8a"/><path d="m77.309 115.66c.961-.25 1.643-.459 2.339-.602.691-.142 1.396-.22 2.205-.342.134.833.265 1.65.408 2.54-1.046.477-2.078.819-3.205.891-.58.038-.957-.169-1.149-.693-.21-.568-.385-1.149-.598-1.794" fill="#fff"/><path d="m81.002 98.689c-.027-.637.267-1.017.79-1.022.647-.007 1.276.615 1.305 1.289.023.566-.388.976-1.013 1.006-.618.031-1.047-.474-1.082-1.273" fill="#fff"/><path d="m76.391 112.506c-1.458-.096-2.651-.68-3.66-1.641-.816-.775-.95-1.786-.24-2.661.552-.683 1.229-1.352 1.992-1.757 1.183-.628 2.487-1.029 3.742-1.521.166-.064.412-.033.511-.145.649-.725 1.456-.486 2.223-.374 1.964.286 3.036 2.337 2.058 4.072-.908 1.608-2.275 2.784-4.026 3.412-.834.298-1.732.416-2.6.615" fill="#555658"/><path d="m67.801 102.213c-.06.775-1.143 1.774-1.691 1.701-.474-.064-.662-.388-.588-.862.081-.518.97-1.402 1.477-1.332.314.044.591.355.802.493" fill="#fff"/><path d="m112.468 114.041c-.101.738-.212 1.444-.291 2.153-.062.568.206.992.744 1.132 1.212.316 2.43.642 3.666.835.934.146 1.167-.079 1.545-.93.253-.568.511-1.134.76-1.685.706.008 1.1.344 1.331.868.787 1.785 1.33 3.621 1.169 5.609-.08.987-.402 1.735-1.502 1.918-.828.139-1.65.316-2.563.492-.863-2.076-1.653-4.113-4.015-4.657-2.097-.485-4.183-.658-6.065.988-.594-.354-1.192-.711-1.804-1.077.063-1.641.936-2.782 1.98-3.765.743-.701 1.656-1.224 2.498-1.818.785-.554 1.622-.289 2.547-.063" fill="#d44525"/><path d="m115.978 124.151c-2.711-.664-5.149-1.564-7.657-3.034.595-.276.996-.591 1.428-.639 1.338-.151 2.679-.081 3.944.442 1.389.574 1.982 1.403 2.285 3.231" fill="#f79c8a"/><path d="m117.894 114.757c.045.265.091.36.071.436-.59 2.131-.702 2.527-3.151 1.873-.55-.147-1.083-.36-1.686-.563.132-.894.253-1.718.39-2.652 1.504.311 2.925.606 4.376.906" fill="#fff"/><path d="m111.155 96.524c.512.006.904.416.91.951.006.627-.477 1.073-1.129 1.027-.512-.037-.83-.289-.838-.835-.009-.628.477-1.149 1.057-1.143" fill="#fff"/><path d="m126.898 101.362c.504.001.832.336.825.842-.01.647-.589 1.252-1.176 1.229-.449-.018-.852-.424-.86-.867-.01-.586.611-1.205 1.211-1.204" fill="#fff"/><path d="m118.624 111.581c-2.55-.14-4.721-1.444-6.197-3.789-1.142-1.814-.003-3.836 2.116-4.248.984-.19 1.681.224 2.476.539 1.295.513 2.645.914 3.873 1.552.766.398 1.441 1.072 1.995 1.753.715.881.587 1.881-.233 2.662-1.046.994-2.286 1.58-4.03 1.531" fill="#555658"/><path d="m81.501 105.84c.361 1.06-1.065 2.503-3.185 3.224-2.118.722-4.129.447-4.49-.613-.36-1.058 1.065-2.502 3.185-3.224 2.119-.721 4.129-.447 4.49.613" fill="#babcbe"/><path d="m119.45 106.917c-.304.897-1.741 1.22-3.208.723-1.468-.498-2.411-1.628-2.107-2.525s1.74-1.221 3.208-.724c1.468.499 2.411 1.629 2.107 2.526" fill="#babcbe"/><path d="m115.108 65.413h-83.633c-5.957 0-10.83 4.873-10.83 10.83v.154c0 5.957 4.873 10.831 10.83 10.831h.939c3.168 6.943 7.403 13.398 12.53 19.053-1.881-6.214-3.773-12.618-3.728-19.053h73.892c5.957 0 10.83-4.874 10.83-10.831v-.154c0-5.957-4.873-10.83-10.83-10.83z" fill="#fff" stroke="#231f20" stroke-width="1.44"/><g fill="#231f20"><path d="m28.521 75.31h1.049v-1.251h-1.049zm-.009.722c-.01.356-.058.741-.732 1.386-.529.491-1.107 1.03-1.107 1.867 0 1.059.876 2.031 2.185 2.031 1.126 0 2.233-.741 2.32-2.108v-.212h-1.098c0 .077-.009.164-.019.241-.096.655-.558 1.04-1.155 1.04-.674 0-1.087-.491-1.087-1.098.009-.491.317-.808.808-1.299.722-.693.924-1.194.943-1.848z"/><path d="m39.975 78.486c-.606-.048-.963-.144-1.328-.394.279-.328.876-1.04.876-2.387 0-1.964-1.569-3.667-3.754-3.667s-3.725 1.732-3.725 3.715c0 1.877 1.463 3.677 3.754 3.677.731 0 1.472-.231 2.088-.626.308.231.722.51 1.55.577.183.02.356.029.539.039zm-4.197-5.447c1.425 0 2.618 1.087 2.618 2.666 0 .654-.221 1.241-.635 1.665-.751-.635-.962-.828-1.367-1.078-.567-.356-1.145-.501-1.78-.501-.597 0-1.03.145-1.319.241-.038-.164-.067-.375-.048-.693.154-1.367 1.213-2.3 2.522-2.3zm.01 5.39c-.635 0-1.781-.28-2.329-1.473.25-.106.558-.202 1.039-.202.587 0 1.175.173 1.714.568.105.086.654.529.856.75-.24.174-.722.357-1.27.357z"/><path d="m45.509 74.059h-1.001v2.926c0 .895-.452 1.521-1.434 1.53-1.03 0-1.395-.674-1.395-1.617v-2.839h-1.001v3.07c0 1.088.433 2.31 2.117 2.32.934.009 1.521-.424 1.771-.963v.809h.943z"/><path d="m51.948 76.994c.087-.875-.173-1.694-.789-2.319-.5-.491-1.184-.77-1.934-.77-1.589 0-2.763 1.28-2.763 2.781 0 1.386 1.059 2.763 2.772 2.763.53 0 1.049-.145 1.492-.443.443-.289.809-.722 1.059-1.299h-1.04c-.288.548-.808.885-1.511.885-.789 0-1.713-.539-1.761-1.598zm-4.456-.779c.048-.712.712-1.454 1.733-1.454.991-.019 1.684.761 1.732 1.454zm.539-3.379.298.616 2.339-1.174-.346-.731z"/><path d="m54.172 78.034h-1.059l-.606 1.992h.866z"/><path d="m62.863 74.059h-.962v.895c-.279-.491-.895-1.049-1.954-1.049-1.559 0-2.686 1.193-2.686 2.83 0 1.472 1.059 2.714 2.628 2.714 1.117 0 1.742-.607 1.973-1.04v2.792h1.001zm-4.601 2.637c.01-.905.626-1.858 1.829-1.858.51 0 .972.203 1.309.539.327.337.53.799.51 1.309 0 .511-.202.973-.529 1.3s-.78.529-1.29.529c-1.097 0-1.829-.866-1.829-1.809z"/><path d="m68.994 74.059h-1.001v2.926c0 .895-.452 1.521-1.434 1.53-1.03 0-1.395-.674-1.395-1.617v-2.839h-1.001v3.07c0 1.088.433 2.31 2.117 2.32.934.009 1.521-.424 1.771-.963v.809h.943z"/><path d="m75.424 76.994c.086-.875-.173-1.694-.789-2.319-.501-.491-1.184-.77-1.935-.77-1.588 0-2.762 1.28-2.762 2.781 0 1.386 1.058 2.763 2.772 2.763.529 0 1.049-.145 1.491-.443.443-.289.809-.722 1.059-1.299h-1.039c-.289.548-.809.885-1.511.885-.79 0-1.714-.539-1.762-1.598zm-4.457-.779c.049-.712.713-1.454 1.733-1.454.991-.019 1.684.761 1.732 1.454zm.539-3.379.299.616 2.339-1.174-.347-.731z"/><path d="m79.351 79.295h1.001v-4.457h.962v-.779h-.962v-.308c0-.915.625-.915.962-.924v-.789c-.741.009-1.963.086-1.963 1.665v.356h-.712v.779h.712z"/><path d="m86.868 74.059h-1.001v2.926c0 .895-.452 1.521-1.434 1.53-1.03 0-1.396-.674-1.396-1.617v-2.839h-1.001v3.07c0 1.088.433 2.31 2.118 2.32.933.009 1.52-.424 1.771-.963v.809h.943z"/><path d="m93.297 76.994c.087-.875-.173-1.694-.789-2.319-.5-.491-1.184-.77-1.934-.77-1.589 0-2.763 1.28-2.763 2.781 0 1.386 1.059 2.763 2.772 2.763.53 0 1.049-.145 1.492-.443.443-.289.809-.722 1.059-1.299h-1.04c-.288.548-.808.885-1.511.885-.789 0-1.713-.539-1.761-1.598zm-4.456-.779c.048-.712.712-1.454 1.733-1.454.991-.019 1.684.761 1.732 1.454z"/><path d="m102.239 76.994c.087-.875-.173-1.694-.789-2.319-.501-.491-1.184-.77-1.935-.77-1.588 0-2.762 1.28-2.762 2.781 0 1.386 1.059 2.763 2.772 2.763.529 0 1.049-.145 1.492-.443.442-.289.808-.722 1.058-1.299h-1.039c-.289.548-.809.885-1.511.885-.789 0-1.713-.539-1.762-1.598zm-4.456-.779c.048-.712.712-1.454 1.732-1.454.992-.019 1.685.761 1.733 1.454z"/><path d="m106.522 75.426c-.077-1.165-1.02-1.521-1.742-1.521-.953 0-1.761.597-1.761 1.588.009.789.587 1.136 1.318 1.357.934.308 1.329.481 1.338 1.001 0 .443-.375.78-.856.78-.376 0-.886-.212-.924-.847h-.992c.048 1.193 1.078 1.665 1.906 1.665 1.039 0 1.886-.693 1.867-1.713-.029-1.127-.905-1.358-1.703-1.579-.559-.154-.934-.346-.953-.76-.01-.347.26-.674.75-.674.511-.01.761.298.761.703z"/><path d="m107.408 76.677c0 1.405 1.03 2.762 2.791 2.762s2.791-1.357 2.791-2.762-1.03-2.772-2.791-2.772-2.791 1.367-2.791 2.762zm1.001 0c0-1.049.789-1.829 1.79-1.829s1.79.78 1.79 1.829-.789 1.829-1.79 1.829-1.79-.78-1.79-1.82z"/><path d="m116.455 77.331c.01-.356.058-.741.732-1.386.529-.5 1.107-1.03 1.107-1.867 0-1.068-.876-2.04-2.185-2.04-1.126 0-2.233.75-2.32 2.107 0 .068-.01.126 0 .212h1.097c0-.077.01-.154.02-.24.086-.645.558-1.03 1.155-1.03.673 0 1.087.481 1.087 1.087-.009.501-.317.818-.808 1.309-.722.693-.924 1.194-.944 1.848zm-.009.713h-1.05v1.251h1.05z"/></g><path d="m160.654 145.123h-53.318c-.044-6.436 1.847-12.84 3.729-19.053-5.126 5.654-9.362 12.11-12.531 19.053h-2.121c-5.306 0-9.647 4.341-9.647 9.646v2.522c0 5.305 4.341 9.646 9.647 9.646h64.241c5.305 0 9.646-4.341 9.646-9.646v-2.522c0-5.305-4.341-9.646-9.646-9.646z" fill="#fff" stroke="#231f20" stroke-width="1.44"/><path d="m94.422 155.134h1.049v-1.251h-1.049zm-.01.722c-.01.356-.058.741-.731 1.386-.53.491-1.107 1.03-1.107 1.867 0 1.059.876 2.031 2.185 2.031 1.126 0 2.233-.741 2.319-2.108v-.212h-1.097c0 .077-.01.164-.019.241-.097.654-.559 1.039-1.155 1.039-.674 0-1.088-.49-1.088-1.097.01-.491.318-.808.809-1.299.721-.693.924-1.194.943-1.848z" fill="#231f20"/><path d="m97.839 157.011c.019 1.376.924 2.242 2.338 2.242 1.521 0 2.301-1.001 2.301-2.156s-.828-1.607-1.713-1.982c-1.146-.424-1.675-.597-1.675-1.29 0-.606.5-1.001 1.078-1.001.818 0 .991.616 1.068 1.001h1.117c-.087-1.463-1.232-1.964-2.147-1.964-1.116 0-2.252.722-2.242 2.051 0 1.337 1.241 1.751 1.8 1.934.914.337 1.588.52 1.588 1.309 0 .635-.549 1.136-1.184 1.136-.376 0-1.126-.212-1.203-1.28z" fill="#231f20"/><path d="m108.561 156.818c.086-.876-.173-1.694-.789-2.319-.501-.491-1.184-.77-1.935-.77-1.588 0-2.762 1.28-2.762 2.781 0 1.386 1.058 2.763 2.772 2.763.529 0 1.049-.145 1.491-.443.443-.289.809-.722 1.059-1.299h-1.039c-.289.548-.809.885-1.511.885-.79 0-1.714-.539-1.762-1.598zm-4.457-.779c.049-.713.713-1.454 1.733-1.454.991-.019 1.684.761 1.732 1.454z" fill="#231f20"/><path d="m109.543 159.119h1.001v-2.83c0-1.04.49-1.559 1.434-1.559h.067v-1.001c-.712.009-1.261.308-1.559.924v-.77h-.943z" fill="#231f20"/><path d="m118.109 153.883h-1.001v.924c-.241-.501-.905-1.078-1.944-1.078-1.521 0-2.686 1.174-2.686 2.772 0 1.463 1.001 2.772 2.686 2.772.827 0 1.578-.366 1.944-1.069v.915h1.001zm-4.63 2.627c0-.981.712-1.848 1.81-1.848.837 0 1.424.472 1.674 1.078.116.241.164.51.154.78-.009.269-.067.539-.182.78-.26.596-.828 1.039-1.627 1.039-1.271 0-1.819-1.039-1.829-1.819zm.77-3.85.308.616 2.329-1.174-.336-.731z" fill="#231f20"/><path d="m127.089 153.883h-1.001v2.926c0 .895-.452 1.52-1.434 1.53-1.03 0-1.396-.674-1.396-1.617v-2.839h-1.001v3.07c0 1.088.433 2.31 2.118 2.32.933.009 1.52-.424 1.771-.963v.809h.943z" fill="#231f20"/><path d="m128.398 159.119h1.001v-2.917c0-.904.452-1.52 1.434-1.53 1.02-.01 1.386.664 1.386 1.607v2.84h1.011v-3.071c0-1.087-.443-2.3-2.118-2.319-.933-.01-1.521.423-1.771.962v-.808h-.943z" fill="#231f20"/><path d="m142.653 153.883h-1.001v.885c-.289-.577-1.011-1.039-1.887-1.039-1.521 0-2.705 1.155-2.705 2.791 0 1.559 1.136 2.753 2.705 2.753.943 0 1.579-.491 1.887-1.078v.539c0 1.174-.905 1.819-1.781 1.819-.231 0-.587-.068-.905-.279-.26-.164-.462-.376-.577-.607h-1.155c.25.876 1.116 1.742 2.598 1.742.905 0 1.723-.394 2.205-.952.385-.443.616-1.03.616-1.945zm-4.592 2.608c0-1.078.819-1.819 1.81-1.819.635 0 1.088.25 1.376.616.289.356.424.828.424 1.242-.01.51-.202.962-.51 1.28-.318.327-.761.529-1.29.529-1.107 0-1.81-.857-1.81-1.838z" fill="#231f20"/><path d="m149.284 153.883h-1.001v.924c-.24-.501-.905-1.078-1.944-1.078-1.521 0-2.685 1.174-2.685 2.772 0 1.463 1.001 2.772 2.685 2.772.828 0 1.578-.366 1.944-1.069v.915h1.001zm-4.629 2.627c0-.981.712-1.848 1.809-1.848.837 0 1.425.472 1.675 1.078.115.241.163.51.154.78-.01.269-.068.539-.183.78-.26.596-.828 1.039-1.627 1.039-1.27 0-1.819-1.039-1.828-1.819z" fill="#231f20"/><path d="m150.978 159.119h1.001v-4.457h1.011v-.779h-1.011v-1.887h-1.001v1.887h-.943v.779h.943z" fill="#231f20"/><path d="m153.442 156.501c0 1.405 1.03 2.762 2.791 2.762 1.762 0 2.792-1.357 2.792-2.762 0-1.406-1.03-2.772-2.792-2.772-1.761 0-2.791 1.366-2.791 2.762zm1.001 0c0-1.049.789-1.829 1.79-1.829s1.791.78 1.791 1.829-.79 1.828-1.791 1.828-1.79-.779-1.79-1.819z" fill="#231f20"/><path d="m162.49 157.155c.009-.356.057-.741.731-1.386.53-.5 1.107-1.03 1.107-1.867 0-1.068-.876-2.041-2.185-2.041-1.126 0-2.233.751-2.319 2.108 0 .068-.01.125 0 .212h1.097c0-.077.009-.154.019-.241.087-.644.558-1.029 1.155-1.029.674 0 1.088.481 1.088 1.087-.01.501-.318.818-.809 1.309-.722.693-.924 1.194-.943 1.848zm-.01.712h-1.049v1.252h1.049z" fill="#231f20"/></g></svg>