<?xml version="1.0" encoding="UTF-8" standalone="no"?>
<!DOCTYPE svg PUBLIC "-//W3C//DTD SVG 1.1//EN" "http://www.w3.org/Graphics/SVG/1.1/DTD/svg11.dtd">
<svg width="100%" height="100%" viewBox="0 0 64 59" version="1.1" xmlns="http://www.w3.org/2000/svg" xmlns:xlink="http://www.w3.org/1999/xlink" xml:space="preserve" xmlns:serif="http://www.serif.com/" style="fill-rule:evenodd;clip-rule:evenodd;stroke-miterlimit:10;">
    <g transform="matrix(1,0,0,1,-119,-8)">
        <g id="dialogo">
            <path d="M163.896,15.832L138.29,15.832C131.936,15.832 126.74,21.03 126.74,27.382L126.74,28.277C126.74,33.408 130.131,37.782 134.782,39.276C133.829,42.791 132.875,46.307 131.922,49.821C134.979,46.751 137.743,43.394 140.204,39.827L159.878,39.827C156.687,47.275 151.874,54.026 145.834,59.428C154.298,56.592 161.156,50.124 166.154,42.727C166.902,41.62 167.633,40.394 167.86,39.107C172.272,37.48 175.446,33.237 175.446,28.277L175.446,27.382C175.446,21.03 170.249,15.832 163.896,15.832Z" style="fill:white;fill-rule:nonzero;stroke:rgb(35,31,32);stroke-width:1.44px;"/>
            <g>
                <path d="M133.506,27.125L134.545,27.125L134.545,25.874L133.506,25.874L133.506,27.125ZM133.506,32.996L134.545,32.996L134.545,27.885L133.506,27.885L133.506,32.996Z" style="fill:rgb(35,31,32);fill-rule:nonzero;"/>
                <path d="M137.211,31.11L137.182,25.104L139.54,31.11L140.282,31.11L142.64,25.104L142.611,31.11L143.66,31.11L143.66,23.987L142.11,23.987L139.925,29.502L137.712,23.987L136.152,23.987L136.152,31.11L137.211,31.11Z" style="fill:rgb(35,31,32);fill-rule:nonzero;"/>
                <path d="M150.34,25.874L149.339,25.874L149.339,26.798C149.098,26.297 148.434,25.72 147.394,25.72C145.874,25.72 144.709,26.894 144.709,28.492C144.709,29.955 145.71,31.264 147.394,31.264C148.222,31.264 148.973,30.898 149.339,30.195L149.339,31.11L150.34,31.11L150.34,25.874ZM145.71,28.501C145.71,27.52 146.422,26.653 147.52,26.653C148.357,26.653 148.944,27.125 149.194,27.731C149.31,27.972 149.358,28.242 149.348,28.511C149.339,28.781 149.281,29.05 149.165,29.291C148.906,29.887 148.338,30.33 147.539,30.33C146.268,30.33 145.72,29.291 145.71,28.511L145.71,28.501Z" style="fill:rgb(35,31,32);fill-rule:nonzero;"/>
                <path d="M151.658,31.11L152.659,31.11L152.659,28.242C152.659,27.818 152.746,27.452 152.938,27.173C153.112,26.884 153.458,26.653 153.93,26.663C154.421,26.673 154.729,26.875 154.921,27.183C155.094,27.472 155.143,27.789 155.133,28.222L155.133,31.11L156.144,31.11L156.144,28.222C156.144,27.78 156.172,27.491 156.384,27.164C156.577,26.846 156.952,26.663 157.395,26.663C157.866,26.663 158.146,26.827 158.328,27.096C158.559,27.395 158.617,27.828 158.617,28.261L158.617,31.11L159.618,31.11L159.618,28.222C159.618,27.221 159.503,26.721 159.041,26.249C158.656,25.855 158.117,25.72 157.635,25.72C157.068,25.72 156.586,25.932 156.249,26.268C156.067,26.451 155.961,26.634 155.874,26.788C155.816,26.692 155.672,26.413 155.537,26.278C155.171,25.864 154.671,25.72 154.19,25.72C153.429,25.72 152.823,26.172 152.602,26.615L152.602,25.874L151.658,25.874L151.658,31.11Z" style="fill:rgb(35,31,32);fill-rule:nonzero;"/>
                <path d="M166.231,25.874L165.23,25.874L165.23,26.798C164.989,26.297 164.325,25.72 163.285,25.72C161.765,25.72 160.6,26.894 160.6,28.492C160.6,29.955 161.601,31.264 163.285,31.264C164.113,31.264 164.864,30.898 165.23,30.195L165.23,31.11L166.231,31.11L166.231,25.874ZM161.601,28.501C161.601,27.52 162.313,26.653 163.41,26.653C164.248,26.653 164.835,27.125 165.085,27.731C165.201,27.972 165.249,28.242 165.239,28.511C165.23,28.781 165.172,29.05 165.056,29.291C164.796,29.887 164.229,30.33 163.43,30.33C162.159,30.33 161.611,29.291 161.601,28.511L161.601,28.501ZM162.371,24.651L162.679,25.267L165.008,24.093L164.671,23.362L162.371,24.651Z" style="fill:rgb(35,31,32);fill-rule:nonzero;"/>
                <path d="M168.858,23.987L167.819,23.987L167.819,29.098L168.858,29.098L168.858,23.987ZM168.858,29.859L167.819,29.859L167.819,31.11L168.858,31.11L168.858,29.859Z" style="fill:rgb(35,31,32);fill-rule:nonzero;"/>
            </g>
        </g>
    </g>
</svg>
