<?xml version="1.0" encoding="UTF-8" standalone="no"?>
<!DOCTYPE svg PUBLIC "-//W3C//DTD SVG 1.1//EN" "http://www.w3.org/Graphics/SVG/1.1/DTD/svg11.dtd">
<svg width="100%" height="100%" viewBox="0 0 747 352" version="1.1" xmlns="http://www.w3.org/2000/svg" xmlns:xlink="http://www.w3.org/1999/xlink" xml:space="preserve" xmlns:serif="http://www.serif.com/" style="fill-rule:evenodd;clip-rule:evenodd;stroke-linecap:round;stroke-linejoin:round;stroke-miterlimit:10;">
    <g transform="matrix(1,0,0,1,-812,-1330)">
        <g>
            <g>
                <g transform="matrix(4.16667,0,0,4.16667,-25.9844,-330.269)">
                    <clipPath id="_clip1">
                        <path d="M60.095,182C53.833,182 48.756,187.076 48.756,193.338L48.756,689.401C48.756,695.663 53.833,700.739 60.095,700.739L533.48,700.739C539.743,700.739 544.819,695.663 544.819,689.401L544.819,193.338C544.819,187.076 539.743,182 533.48,182L60.095,182Z" clip-rule="nonzero"/>
                    </clipPath>
                    <g clip-path="url(#_clip1)">
                        <g transform="matrix(1,0,0,1,0,157.482)">
                            <path d="M362.197,314.906C362.57,315.394 363.007,315.456 363.421,315.583C364.38,315.875 365.35,316.142 366.276,316.518C367.097,316.852 367.839,317.334 368.248,318.205C368.347,318.417 368.635,318.622 368.872,318.675C370.125,318.955 371.389,319.179 372.648,319.436C373.281,319.565 373.736,319.36 374.067,318.804C375.088,317.094 376.486,315.703 377.875,314.302C378.052,314.124 378.189,313.905 378.427,313.596C377.597,313.559 376.884,313.656 376.252,313.472C375.032,313.117 374.352,313.631 373.843,314.636C373.662,314.995 373.45,315.34 373.228,315.674C373.118,315.84 372.952,315.969 372.697,316.233C372.639,314.992 373.534,314.351 373.839,313.464C372.746,313.177 372.652,313.196 372.109,313.973C371.787,314.435 371.513,314.93 371.188,315.389C371.049,315.587 370.834,315.729 370.617,315.93C370.569,315.742 370.51,315.648 370.536,315.593C370.871,314.877 371.218,314.165 371.627,313.318C368.473,313.905 365.283,313.734 362.197,314.906M209.708,316.031C209.624,316.063 209.539,316.095 209.454,316.127C209.222,315.76 208.994,315.388 208.758,315.024C208.472,314.586 208.21,314.127 207.876,313.73C207.717,313.542 207.407,313.363 207.176,313.374C206.14,313.422 205.108,313.541 204.036,313.637C204.101,313.786 204.121,313.914 204.195,313.987C205.762,315.552 207.32,317.124 208.485,319.032C208.721,319.418 209.056,319.555 209.512,319.464C210.851,319.194 212.197,318.962 213.531,318.671C213.764,318.62 214.045,318.403 214.145,318.188C214.533,317.356 215.237,316.882 216.015,316.559C216.976,316.162 217.989,315.887 218.983,315.574C219.393,315.444 219.841,315.398 220.165,314.899C217.096,313.742 213.906,313.896 210.67,313.309C210.993,313.864 211.217,314.243 211.434,314.625C211.652,315.008 211.984,315.37 211.688,316.086C211.145,315.272 210.717,314.603 210.261,313.954C209.73,313.197 209.572,313.164 208.536,313.497C208.893,314.357 209.727,315.021 209.708,316.031M324.925,314.825C324.221,314.755 323.624,314.703 323.027,314.635C319.827,314.269 316.632,313.941 313.398,313.958C308.927,313.981 304.457,313.852 299.986,313.786C299.665,313.781 299.343,313.749 299.021,313.733C296.249,313.595 293.475,313.347 290.704,313.353C288.012,313.359 285.322,313.67 282.629,313.768C279.49,313.883 276.348,313.928 273.208,313.974C271.113,314.005 269.016,313.968 266.921,313.99C265.874,314.001 264.824,314.034 263.783,314.133C261.981,314.303 260.185,314.533 258.386,314.739C258.077,314.774 257.769,314.816 257.466,314.854C257.548,316.314 258.242,317.6 258.096,319.027C257.221,317.788 257.233,316.257 256.717,314.87C256.532,314.887 256.376,314.891 256.224,314.921C253.343,315.482 250.455,316.017 247.582,316.622C245.451,317.071 243.329,317.481 241.134,317.474C239.808,317.469 238.478,317.604 237.157,317.739C235.198,317.937 233.246,318.195 231.29,318.42C230.704,318.487 230.604,318.61 230.805,319.202C231,319.773 231.249,320.326 231.451,320.894C231.576,321.244 231.968,321.751 231.492,321.932C231.086,322.088 230.922,321.468 230.769,321.119C230.495,320.493 230.282,319.841 230.034,319.202C229.841,318.707 229.497,318.414 228.937,318.421C226.285,318.449 223.618,318.244 221.024,319.073C220.424,319.265 219.755,319.293 219.117,319.303C218.192,319.318 217.265,319.231 216.339,319.224C215.925,319.22 215.462,319.085 215.084,319.436C215.481,320.5 215.845,321.52 216.242,322.529C216.949,324.322 217.74,324.52 219.158,324.505C223.065,324.461 226.971,324.554 230.872,324.212C232.475,324.071 234.091,324.077 235.699,323.988C236.944,323.919 238.184,323.783 239.429,323.718C241.198,323.626 242.97,323.602 244.738,323.494C246.826,323.366 248.911,323.173 250.998,323.018C253.485,322.834 255.987,322.766 258.458,322.457C261.289,322.103 264.093,321.537 266.909,321.068C267.463,320.976 268.019,320.882 268.578,320.837C270.865,320.656 273.154,320.51 275.44,320.322C277.927,320.118 280.413,319.907 282.896,319.654C284.974,319.443 287.057,319.235 289.115,318.893C290.117,318.726 291.105,318.574 292.105,318.677C293.54,318.823 294.974,319.008 296.396,319.252C300.053,319.878 303.754,320.069 307.444,320.336C310.574,320.562 313.691,320.793 316.797,321.3C319.847,321.798 322.875,322.496 325.99,322.596C328.038,322.663 330.082,322.881 332.128,323.031C332.409,323.052 332.69,323.071 332.971,323.095C335.297,323.295 337.62,323.563 339.95,323.676C342.159,323.782 344.37,323.74 346.583,323.961C349.344,324.236 352.124,324.367 354.899,324.446C357.84,324.531 360.783,324.476 363.725,324.495C364.667,324.501 365.401,324.12 365.778,323.273C366.343,322.003 366.82,320.691 367.389,319.259C366.615,319.259 366.019,319.27 365.426,319.256C364.141,319.223 362.794,319.414 361.588,319.088C358.927,318.368 356.246,318.433 353.551,318.413C352.944,318.409 352.555,318.672 352.343,319.216C352.137,319.74 351.972,320.281 351.75,320.799C351.593,321.165 351.383,321.51 351.17,321.849C351.122,321.927 350.947,321.989 350.862,321.962C350.784,321.936 350.691,321.773 350.704,321.684C350.736,321.449 350.807,321.216 350.89,320.993C351.114,320.388 351.373,319.797 351.581,319.187C351.781,318.601 351.68,318.471 351.077,318.423C350.316,318.36 349.551,318.338 348.796,318.233C345.964,317.844 343.13,317.512 340.267,317.429C339.146,317.397 338.017,317.261 336.915,317.054C334.543,316.608 332.188,316.074 329.823,315.597C328.451,315.32 327.072,315.085 325.683,314.829C325.148,316.261 325.176,317.794 324.276,319.021C324.159,317.598 324.815,316.304 324.925,314.825M214.931,318.413C216.399,318.441 217.641,318.51 218.88,318.472C219.717,318.448 220.55,318.279 221.383,318.167C222.494,318.017 223.602,317.769 224.718,317.724C226.609,317.648 228.506,317.742 230.398,317.678C231.76,317.632 233.117,317.45 234.476,317.32C236.437,317.132 238.393,316.839 240.358,316.766C242.662,316.68 244.911,316.355 247.165,315.888C250.51,315.195 253.877,314.607 257.244,314.034C258.35,313.845 259.489,313.849 260.611,313.756C263.014,313.554 265.414,313.248 267.822,313.166C270.881,313.063 273.946,313.149 277.008,313.136C278.498,313.13 279.99,313.117 281.479,313.047C284.011,312.927 286.543,312.761 289.074,312.607C289.554,312.578 290.032,312.51 290.512,312.468C290.832,312.439 291.154,312.389 291.472,312.408C292.676,312.479 293.877,312.583 295.08,312.66C297.41,312.809 299.738,313.016 302.071,313.077C305.212,313.159 308.359,313.218 311.498,313.119C316.068,312.974 320.585,313.541 325.095,314.055C328.443,314.436 331.759,315.154 335.06,315.851C337.432,316.353 339.798,316.719 342.226,316.763C343.669,316.79 345.111,316.99 346.548,317.16C348.703,317.414 350.843,317.791 353.033,317.706C354.641,317.643 356.256,317.684 357.867,317.716C358.507,317.728 359.15,317.804 359.782,317.914C360.691,318.071 361.586,318.403 362.497,318.448C364.021,318.523 365.554,318.431 367.085,318.401C367.134,318.4 367.18,318.302 367.314,318.153C367.004,317.914 366.727,317.604 366.382,317.454C365.537,317.086 364.664,316.785 363.797,316.47C363.156,316.237 362.47,316.096 361.873,315.785C361.137,315.401 361.176,314.569 361.888,314.156C362.026,314.076 362.18,314.009 362.336,313.978C363.835,313.686 365.33,313.368 366.838,313.13C368.146,312.923 369.468,312.777 370.788,312.664C371.785,312.579 372.791,312.539 373.79,312.569C375.358,312.615 376.924,312.76 378.492,312.807C378.806,312.816 379.256,312.67 379.419,312.437C379.665,312.089 379.44,311.665 379.169,311.341C379.013,311.156 378.855,310.967 378.669,310.816C377.543,309.908 376.467,308.921 375.26,308.133C373.918,307.255 372.461,306.552 371.043,305.793C370.43,305.466 370.332,305.227 370.815,304.712C371.223,304.276 371.718,303.917 372.2,303.557C372.546,303.3 372.932,303.096 373.446,302.778C372.067,302.372 370.862,302.202 369.619,302.562C369.016,302.736 368.779,302.545 368.863,301.94C368.908,301.623 369.031,301.317 369.078,301.001C369.276,299.668 368.919,299.654 367.99,300.024C367.841,300.084 367.686,300.134 367.533,300.182C366.465,300.516 366.432,300.493 366.345,299.319C366.336,299.198 366.345,299.076 366.328,298.957C366.246,298.394 366.031,298.288 365.502,298.563C365.109,298.767 364.748,299.045 364.337,299.192C364.117,299.27 363.676,299.234 363.586,299.092C362.996,298.159 362.019,297.868 361.096,297.486C356.926,295.764 352.666,294.297 348.343,293.008C347.533,292.766 346.745,292.457 345.939,292.201C344.524,291.75 343.105,291.308 341.682,290.88C340.99,290.672 340.258,290.571 339.593,290.3C336.25,288.934 332.682,288.448 329.197,287.66C327.248,287.219 325.219,287.174 323.246,286.739C321.209,286.29 319.114,286.104 317.057,285.734C314.707,285.31 312.343,285.188 309.963,285.247C309.721,285.253 309.477,285.267 309.238,285.244C307.401,285.064 305.533,285.186 303.733,284.653C303.468,284.574 303.177,284.573 302.898,284.546C301.459,284.403 300.018,284.274 298.581,284.122C296.702,283.922 294.827,283.679 292.945,283.509C292.273,283.448 291.588,283.548 290.908,283.565C289.746,283.594 288.578,283.556 287.422,283.655C285.421,283.827 283.427,284.079 281.431,284.303C280.513,284.407 279.572,284.429 278.685,284.659C276.791,285.148 274.849,285.282 272.938,285.21C268.873,285.055 264.925,285.849 260.944,286.386C259.352,286.6 257.789,287.017 256.203,287.285C255.255,287.445 254.273,287.423 253.331,287.611C251.162,288.044 249.006,288.538 246.852,289.042C245.954,289.252 245.071,289.532 244.189,289.806C243.19,290.118 242.221,290.565 241.202,290.765C239.333,291.133 237.544,291.708 235.794,292.441C235.239,292.674 234.651,292.832 234.073,293.003C229.629,294.312 225.258,295.832 220.984,297.617C220.291,297.907 219.614,298.308 219.037,298.786C218.381,299.33 218.419,299.393 217.739,299.072C217.276,298.853 216.735,298.382 216.363,298.488C215.782,298.655 216.114,299.398 216.018,299.887C215.941,300.279 215.757,300.461 215.346,300.327C214.886,300.177 214.43,300.017 213.964,299.893C213.389,299.74 213.219,299.87 213.262,300.483C213.293,300.921 213.419,301.351 213.495,301.786C213.63,302.557 213.439,302.729 212.687,302.524C211.561,302.217 210.061,302.366 209.113,302.899C209.542,303.163 209.972,303.385 210.354,303.672C210.802,304.008 211.249,304.362 211.619,304.778C212.039,305.25 211.948,305.497 211.373,305.776C210.83,306.039 210.276,306.281 209.743,306.563C207.565,307.719 205.491,309.028 203.742,310.792C203.461,311.075 203.168,311.375 202.989,311.722C202.677,312.33 202.929,312.778 203.613,312.804C204.414,312.836 205.22,312.784 206.023,312.735C208.146,312.608 210.271,312.207 212.385,312.823C212.574,312.879 212.784,312.861 212.985,312.883C215.143,313.111 217.313,313.268 219.421,313.837C219.769,313.93 220.14,313.984 220.457,314.143C221.195,314.515 221.238,315.332 220.547,315.774C220.247,315.967 219.897,316.096 219.553,316.201C218.938,316.389 218.301,316.507 217.691,316.71C216.742,317.025 215.794,317.361 214.931,318.413M211.112,305.077C210.543,304.659 210.145,304.337 209.718,304.061C209.312,303.801 208.852,303.621 208.461,303.343C208.224,303.175 208.073,302.886 207.884,302.653C208.136,302.477 208.366,302.242 208.645,302.139C209.639,301.772 210.684,301.706 211.737,301.693C212.539,301.683 212.539,301.662 212.441,300.908C212.208,299.128 212.593,298.77 214.334,299.157C214.451,299.183 214.561,299.24 214.677,299.272C215.012,299.367 215.186,299.262 215.267,298.897C215.583,297.461 216.112,297.238 217.438,297.952C217.579,298.028 217.721,298.106 217.857,298.191C218.199,298.407 218.514,298.412 218.858,298.16C220.539,296.931 222.482,296.228 224.412,295.542C227.596,294.409 230.82,293.386 234.025,292.311C234.75,292.068 235.475,291.822 236.183,291.534C237.716,290.909 239.283,290.422 240.913,290.109C241.738,289.951 242.546,289.663 243.331,289.356C244.763,288.797 246.233,288.427 247.744,288.146C249.522,287.814 251.265,287.302 253.038,286.942C253.939,286.759 254.881,286.787 255.79,286.635C257.455,286.355 259.101,285.948 260.771,285.709C264.828,285.128 268.862,284.379 273.006,284.511C274.83,284.571 276.699,284.465 278.509,283.955C279.312,283.728 280.176,283.707 281.015,283.62C283.654,283.346 286.293,283.079 288.934,282.827C289.449,282.778 289.973,282.802 290.493,282.803C290.734,282.803 290.98,282.872 291.215,282.84C293.039,282.591 294.819,282.982 296.614,283.177C298.093,283.337 299.577,283.435 301.053,283.607C302.249,283.747 303.432,283.986 304.628,284.124C306.143,284.299 307.666,284.415 309.185,284.555C309.265,284.562 309.346,284.56 309.426,284.556C312.827,284.39 316.176,284.815 319.51,285.413C321.884,285.839 324.248,286.444 326.64,286.607C329.849,286.826 332.855,287.903 335.983,288.428C336.848,288.574 337.681,288.915 338.527,289.169C339.76,289.538 340.991,289.908 342.221,290.281C343.337,290.619 344.456,290.941 345.562,291.303C348.314,292.208 351.073,293.096 353.806,294.056C356.122,294.869 358.42,295.739 360.698,296.652C361.625,297.023 362.508,297.531 363.357,298.062C363.835,298.361 364.209,298.424 364.679,298.117C364.978,297.922 365.305,297.733 365.646,297.643C366.506,297.417 366.931,297.713 367.102,298.583C367.147,298.811 367.185,299.041 367.237,299.328C367.721,299.231 368.143,299.119 368.573,299.065C369.741,298.919 370.052,299.204 369.994,300.357C369.974,300.752 369.9,301.143 369.836,301.656C370.317,301.677 370.752,301.667 371.178,301.718C371.974,301.815 372.773,301.915 373.557,302.08C373.925,302.158 374.477,302.221 374.447,302.72C374.431,302.974 374.032,303.249 373.754,303.435C373.219,303.793 372.639,304.08 372.096,304.426C371.864,304.572 371.677,304.79 371.432,305.009C371.852,305.539 372.458,305.678 372.974,305.948C375.305,307.166 377.531,308.529 379.353,310.464C379.519,310.639 379.7,310.803 379.847,310.993C380.513,311.848 380.419,312.668 379.667,313.45C378.271,314.899 376.893,316.365 375.546,317.858C375.118,318.332 374.8,318.907 374.452,319.448C374.14,319.932 373.736,320.19 373.145,320.114C372.189,319.991 371.231,319.885 370.276,319.755C367.69,319.404 368.196,319.335 367.351,321.433C367.081,322.104 366.867,322.802 366.562,323.457C366.022,324.622 365.101,325.251 363.792,325.241C360.488,325.214 357.184,325.204 353.881,325.146C352.072,325.114 350.263,325.018 348.457,324.914C347.334,324.849 346.214,324.714 345.092,324.613C344.452,324.555 343.812,324.479 343.171,324.455C340.517,324.355 337.859,324.342 335.212,324.165C331.843,323.941 328.486,323.552 325.119,323.302C321.5,323.034 317.966,322.252 314.395,321.68C313.05,321.466 311.677,321.403 310.314,321.308C307.666,321.125 305.01,321.015 302.366,320.785C299.964,320.576 297.571,320.238 295.173,319.972C293.934,319.835 292.686,319.589 291.453,319.641C289.287,319.734 287.129,320.015 284.968,320.224C282.927,320.421 280.888,320.642 278.846,320.821C276.162,321.055 273.478,321.308 270.789,321.463C266.92,321.685 263.16,322.59 259.349,323.17C258.437,323.308 257.508,323.339 256.587,323.418C255.385,323.52 254.182,323.627 252.979,323.723C251.217,323.866 249.453,324.001 247.691,324.14C247.57,324.149 247.45,324.17 247.329,324.175C245.039,324.265 242.749,324.405 240.458,324.428C238.68,324.446 236.924,324.612 235.168,324.844C234.928,324.876 234.687,324.906 234.447,324.911C229.415,325.027 224.385,325.162 219.353,325.243C216.941,325.281 216.245,324.748 215.41,322.491C215.159,321.811 214.929,321.124 214.657,320.452C214.291,319.545 214.275,319.519 213.339,319.609C212.46,319.693 211.588,319.85 210.714,319.978C210.554,320.002 210.399,320.05 210.239,320.071C208.576,320.292 208.379,320.22 207.485,318.774C206.239,316.76 204.454,315.23 202.833,313.556C201.864,312.555 201.794,311.795 202.741,310.757C204.587,308.731 206.85,307.279 209.26,306.03C209.82,305.74 210.382,305.452 211.112,305.077" style="fill:rgb(35,31,32);fill-rule:nonzero;"/>
                        </g>
                        <g transform="matrix(1,0,0,1,0,54.0978)">
                            <path d="M243.24,358.461C246.143,358.331 248.287,357.257 250.281,355.846C251.138,355.238 251.126,354.548 250.334,353.84C249.416,353.02 248.334,352.503 247.131,352.228C246.077,351.985 245.076,351.877 244.197,352.741C243.846,353.087 243.501,352.927 243.424,352.455C243.385,352.22 243.389,351.972 243.408,351.732C243.464,351.014 243.139,350.466 242.584,350.084C242.162,349.794 241.682,349.488 241.193,349.41C240.127,349.241 239.039,349.213 237.959,349.129C237.186,349.069 236.567,349.303 236.055,349.938C235.556,350.556 235.219,350.534 234.711,349.897C234.244,349.31 233.68,348.885 233.007,348.587C232.505,348.364 232.094,348.271 231.635,348.818C231.106,349.45 230.112,349.29 229.875,348.602C229.231,346.732 227.753,346.213 225.995,346.125C225.046,346.078 224.374,346.517 223.986,347.382C223.551,348.35 223.345,349.377 223.335,350.429C223.331,350.853 223.462,351.293 223.605,351.699C223.736,352.073 224.07,352.504 223.568,352.734C223.086,352.956 222.918,352.44 222.71,352.098C222.141,351.161 221.33,351.037 220.519,351.767C219.692,352.512 219.162,353.461 218.759,354.481C218.535,355.043 218.364,355.614 218.624,356.236C218.727,356.484 218.705,356.79 218.718,357.07C218.732,357.362 218.699,357.694 218.353,357.738C217.947,357.79 217.824,357.448 217.763,357.118C217.711,356.842 217.716,356.553 217.643,356.283C217.464,355.616 216.762,355.374 216.233,355.825C215.968,356.051 215.739,356.372 215.615,356.697C215.431,357.181 215.354,357.704 215.234,358.212C215.073,358.893 214.814,359.01 214.234,358.568C213.047,357.665 211.763,357.563 210.499,358.239C209.044,359.019 208.31,360.327 208.243,361.988C208.227,362.377 208.335,362.691 208.713,362.889C209.63,363.369 210.734,363.184 211.479,362.435C211.697,362.216 211.962,362.028 212.236,361.887C212.328,361.839 212.561,361.937 212.647,362.038C212.727,362.132 212.728,362.325 212.703,362.464C212.684,362.569 212.568,362.657 212.5,362.757C211.969,363.531 212.02,363.815 212.831,364.254C213.895,364.827 215.037,364.989 216.227,364.797C217.513,364.589 218.536,363.888 219.466,363.028C219.879,362.646 220.246,362.212 220.667,361.838C221.225,361.342 221.519,361.423 221.607,362.146C221.717,363.044 222.238,363.501 223.037,363.73C223.344,363.817 223.664,363.872 223.982,363.906C225.534,364.071 226.809,363.417 227.975,362.496C228.607,361.997 229.191,361.438 229.818,360.932C230.518,360.368 230.745,360.396 231.238,361.149C231.75,361.932 232.469,362.439 233.328,362.702C235.031,363.227 236.649,363.073 238.168,362.035C239.225,361.313 239.787,360.386 239.743,359.102C239.736,358.86 239.728,358.615 239.756,358.377C239.817,357.844 240.039,357.688 240.577,357.793C240.774,357.831 240.959,357.924 241.154,357.971C241.967,358.166 242.781,358.354 243.24,358.461M240.581,358.685C240.529,358.919 240.478,359.034 240.481,359.148C240.513,360.1 240.375,360.991 239.689,361.728C238.816,362.667 237.79,363.398 236.525,363.607C235.419,363.789 234.282,363.799 233.175,363.453C232.222,363.155 231.42,362.649 230.807,361.862C230.527,361.502 230.284,361.452 229.924,361.781C229.33,362.324 228.715,362.848 228.073,363.333C226.77,364.32 225.307,364.796 223.658,364.589C222.575,364.453 221.62,364.103 221.074,363.056C221.024,362.959 220.907,362.897 220.784,362.785C220.451,363.099 220.134,363.398 219.816,363.697C218.03,365.376 215.949,365.935 213.57,365.322C212.774,365.118 212.019,364.796 211.568,364.076C211.317,363.675 211.073,363.652 210.675,363.765C209.954,363.968 209.232,363.877 208.54,363.616C207.745,363.317 207.377,362.766 207.46,361.931C207.621,360.291 208.302,358.915 209.649,357.922C210.77,357.095 212.022,356.992 213.332,357.334C213.716,357.435 214.085,357.594 214.463,357.728C214.702,357.145 214.908,356.581 215.161,356.039C215.518,355.273 216.114,354.819 216.988,354.952C217.646,355.053 217.871,354.74 218.129,354.198C218.54,353.333 219.056,352.511 219.598,351.718C220.127,350.944 220.862,350.522 221.863,350.605C222.529,350.659 222.506,350.599 222.655,349.902C222.846,349.001 222.994,348.073 223.328,347.224C223.9,345.765 224.81,345.321 226.379,345.436C228.008,345.555 229.318,346.172 230.225,347.58C230.616,348.187 230.707,348.2 231.347,347.744C231.802,347.419 232.258,347.445 232.724,347.577C233.589,347.822 234.356,348.247 235.014,348.876C235.153,349.008 235.529,349.126 235.606,349.052C236.708,348.001 238.074,348.172 239.386,348.252C240.26,348.306 241.144,348.486 241.984,348.741C242.98,349.045 243.798,349.672 244.147,350.696C244.349,351.287 244.675,351.387 245.226,351.336C247.105,351.164 248.818,351.636 250.342,352.761C250.439,352.832 250.544,352.894 250.638,352.969C252.19,354.216 252.177,355.57 250.545,356.698C248.943,357.805 247.189,358.607 245.291,359.074C243.924,359.411 242.578,359.351 241.25,358.881C241.062,358.815 240.867,358.769 240.581,358.685" style="fill:rgb(35,31,32);fill-rule:nonzero;"/>
                        </g>
                        <g transform="matrix(1,0,0,1,0,151.582)">
                            <path d="M252.788,314.041C252.909,314.091 252.965,314.096 252.98,314.124C253.218,314.539 253.449,314.958 253.684,315.376C254.335,316.538 254.776,316.595 255.677,315.652C255.934,315.383 256.076,314.963 256.581,314.869C256.74,315.234 256.853,315.573 257.026,315.878C257.258,316.286 257.699,316.422 258.046,316.194C258.147,316.128 258.158,315.923 258.21,315.782C257.474,315.563 257.482,314.789 257.102,314.305C256.802,313.921 256.442,313.864 256.063,314.198C255.735,314.487 255.477,314.854 255.18,315.18C254.752,315.648 254.598,315.642 254.292,315.115C254.091,314.769 253.938,314.394 253.745,314.042C253.556,313.697 253.428,313.248 252.939,313.242C252.388,313.235 252.263,313.734 252.057,314.113C251.962,314.289 251.908,314.487 251.815,314.664C251.695,314.892 251.555,315.108 251.379,315.405C250.612,314.721 249.93,314.103 249.234,313.5C249.126,313.407 248.954,313.389 248.812,313.336C248.788,313.517 248.684,313.742 248.755,313.871C249.211,314.703 249.404,315.592 249.435,316.529C249.439,316.636 249.525,316.739 249.573,316.844C249.651,316.807 249.729,316.77 249.808,316.734L249.808,314.768C250.288,315.191 250.579,315.451 250.874,315.707C251.485,316.236 251.776,316.184 252.152,315.441C252.385,314.983 252.579,314.506 252.788,314.041M332.589,316.735L332.873,316.729C332.975,316.153 333.104,315.58 333.17,315C333.235,314.425 333.84,313.99 333.595,313.17C332.678,313.953 331.847,314.662 330.941,315.436C330.645,314.811 330.437,314.293 330.165,313.812C329.709,313.005 329.237,313.008 328.762,313.812C328.476,314.294 328.248,314.811 327.974,315.3C327.826,315.562 327.597,315.595 327.388,315.368C327.089,315.044 326.833,314.679 326.519,314.369C325.933,313.791 325.501,313.869 325.099,314.589C324.892,314.957 324.91,315.469 324.382,315.635C324.286,315.665 324.162,315.945 324.194,315.982C324.313,316.115 324.534,316.311 324.642,316.272C324.92,316.174 325.218,316.01 325.394,315.784C325.6,315.521 325.684,315.165 325.868,314.742C326.325,315.225 326.658,315.621 327.037,315.966C327.59,316.471 327.992,316.423 328.431,315.808C328.639,315.517 328.78,315.178 328.957,314.862C329.109,314.591 329.268,314.322 329.516,313.895C329.831,314.567 330.053,315.112 330.337,315.623C330.632,316.155 330.938,316.197 331.399,315.813C331.731,315.537 332.042,315.233 332.488,314.827C332.528,315.583 332.558,316.159 332.589,316.735M214.931,324.313C215.794,323.262 216.743,322.926 217.691,322.61C218.301,322.407 218.938,322.29 219.554,322.102C219.897,321.997 220.247,321.867 220.547,321.675C221.238,321.232 221.195,320.416 220.457,320.044C220.141,319.885 219.769,319.831 219.421,319.737C217.313,319.169 215.143,319.012 212.985,318.783C212.785,318.762 212.574,318.779 212.385,318.724C210.271,318.107 208.146,318.509 206.023,318.636C205.221,318.685 204.414,318.736 203.613,318.705C202.929,318.679 202.677,318.23 202.989,317.623C203.168,317.275 203.461,316.976 203.742,316.692C205.492,314.929 207.565,313.62 209.744,312.464C210.276,312.182 210.83,311.939 211.373,311.677C211.949,311.397 212.039,311.15 211.619,310.679C211.249,310.263 210.802,309.908 210.354,309.572C209.973,309.285 209.542,309.063 209.113,308.8C210.061,308.267 211.561,308.117 212.687,308.425C213.439,308.63 213.63,308.458 213.495,307.687C213.419,307.252 213.293,306.821 213.263,306.384C213.22,305.77 213.389,305.641 213.964,305.794C214.43,305.918 214.887,306.078 215.347,306.228C215.757,306.361 215.941,306.18 216.018,305.788C216.115,305.299 215.783,304.556 216.363,304.389C216.735,304.282 217.276,304.754 217.739,304.973C218.419,305.294 218.381,305.23 219.038,304.687C219.615,304.209 220.291,303.808 220.984,303.518C225.258,301.732 229.629,300.213 234.073,298.903C234.651,298.732 235.239,298.574 235.794,298.342C237.544,297.608 239.333,297.033 241.203,296.666C242.222,296.466 243.19,296.019 244.189,295.707C245.071,295.433 245.954,295.152 246.852,294.942C249.006,294.438 251.163,293.944 253.331,293.512C254.273,293.323 255.255,293.346 256.204,293.186C257.789,292.918 259.352,292.501 260.944,292.287C264.925,291.75 268.873,290.956 272.938,291.11C274.85,291.183 276.791,291.049 278.685,290.56C279.572,290.33 280.513,290.308 281.432,290.204C283.428,289.979 285.421,289.728 287.422,289.556C288.579,289.457 289.746,289.495 290.908,289.466C291.588,289.448 292.273,289.349 292.945,289.409C294.827,289.58 296.702,289.822 298.581,290.022C300.018,290.175 301.459,290.304 302.898,290.446C303.178,290.474 303.468,290.475 303.733,290.554C305.533,291.087 307.401,290.965 309.238,291.145C309.477,291.168 309.722,291.153 309.963,291.147C312.344,291.089 314.707,291.211 317.058,291.635C319.114,292.005 321.209,292.19 323.246,292.64C325.22,293.074 327.248,293.12 329.197,293.561C332.683,294.349 336.25,294.835 339.593,296.2C340.258,296.472 340.99,296.572 341.683,296.78C343.105,297.209 344.524,297.65 345.939,298.102C346.745,298.357 347.533,298.667 348.343,298.908C352.666,300.197 356.926,301.665 361.097,303.387C362.019,303.769 362.996,304.06 363.586,304.992C363.677,305.135 364.117,305.171 364.337,305.093C364.748,304.945 365.109,304.668 365.502,304.464C366.031,304.188 366.246,304.295 366.328,304.857C366.346,304.977 366.336,305.099 366.346,305.22C366.433,306.394 366.465,306.417 367.533,306.083C367.686,306.034 367.841,305.984 367.99,305.925C368.919,305.555 369.276,305.568 369.078,306.901C369.031,307.218 368.908,307.523 368.863,307.841C368.779,308.445 369.017,308.637 369.619,308.463C370.862,308.103 372.067,308.272 373.446,308.679C372.933,308.997 372.546,309.2 372.2,309.458C371.719,309.817 371.224,310.177 370.815,310.612C370.332,311.128 370.431,311.366 371.043,311.693C372.461,312.452 373.918,313.155 375.261,314.033C376.467,314.821 377.543,315.809 378.669,316.717C378.855,316.867 379.014,317.057 379.169,317.241C379.44,317.565 379.665,317.989 379.419,318.338C379.256,318.57 378.807,318.717 378.492,318.708C376.924,318.66 375.358,318.516 373.79,318.47C372.791,318.439 371.785,318.479 370.788,318.564C369.468,318.678 368.146,318.823 366.838,319.03C365.33,319.269 363.835,319.587 362.336,319.879C362.181,319.909 362.026,319.977 361.889,320.057C361.177,320.47 361.138,321.302 361.873,321.686C362.471,321.997 363.156,322.138 363.797,322.371C364.664,322.686 365.537,322.986 366.382,323.354C366.727,323.505 367.004,323.814 367.314,324.054C367.181,324.202 367.134,324.301 367.085,324.302C365.555,324.332 364.021,324.424 362.497,324.349C361.586,324.304 360.691,323.972 359.782,323.814C359.15,323.705 358.507,323.629 357.867,323.616C356.256,323.585 354.642,323.544 353.033,323.606C350.843,323.691 348.703,323.314 346.548,323.061C345.111,322.891 343.669,322.69 342.226,322.664C339.798,322.62 337.433,322.254 335.06,321.752C331.759,321.055 328.443,320.337 325.096,319.956C320.585,319.441 316.068,318.875 311.498,319.02C308.359,319.118 305.212,319.06 302.071,318.978C299.738,318.917 297.41,318.71 295.08,318.561C293.877,318.483 292.676,318.38 291.473,318.309C291.154,318.29 290.832,318.34 290.513,318.368C290.033,318.411 289.555,318.478 289.074,318.508C286.543,318.662 284.012,318.827 281.479,318.947C279.991,319.018 278.498,319.03 277.008,319.037C273.946,319.05 270.881,318.964 267.822,319.066C265.414,319.148 263.015,319.455 260.611,319.656C259.489,319.75 258.35,319.746 257.245,319.935C253.877,320.508 250.51,321.096 247.165,321.789C244.912,322.256 242.662,322.581 240.358,322.667C238.393,322.739 236.437,323.032 234.476,323.221C233.118,323.351 231.76,323.532 230.398,323.579C228.506,323.643 226.609,323.549 224.718,323.625C223.602,323.67 222.495,323.918 221.383,324.067C220.55,324.18 219.717,324.349 218.88,324.373C217.642,324.41 216.399,324.342 214.931,324.313" style="fill:rgb(126,195,80);fill-rule:nonzero;"/>
                        </g>
                        <g transform="matrix(1,0,0,1,0,142.025)">
                            <path d="M210.247,317.965C210.076,318.235 209.929,318.507 209.815,318.775C210.001,318.887 210.184,319 210.354,319.128C210.802,319.464 211.249,319.819 211.619,320.235C212.039,320.706 211.948,320.953 211.372,321.233C211.367,321.235 211.361,321.237 211.355,321.24C213.843,321.785 216.782,321.188 219.214,320.788C222.516,320.247 225.78,319.498 229.036,318.735C230.841,318.311 232.813,317.595 234.68,317.548C234.921,317.542 235.155,317.717 235.146,317.976C235.089,319.697 234.739,321.384 234.619,323.098C236.981,322.329 239.073,320.847 241.541,320.406C241.725,320.373 241.98,320.545 241.998,320.738C242.096,321.772 241.871,322.384 243.106,322.125C243.801,321.979 244.485,321.745 245.164,321.535C246.768,321.04 248.348,320.467 249.966,320.021C252.707,319.266 255.33,319.042 258.121,319.658C263.75,320.903 269.329,324.424 275.275,323.423C278.071,322.952 280.504,321.376 282.984,320.105C284.617,319.268 286.614,318.267 288.519,318.408C290.368,318.545 291.904,320.028 293.432,320.928C294.861,321.768 296.497,322.453 297.98,321.285C298.998,320.484 299.715,319.285 300.47,318.254C300.624,318.045 300.928,318.101 301.082,318.275C301.997,319.306 303.166,320.492 304.651,319.898C305.54,319.541 306.276,318.662 306.929,318.005C307.976,316.951 309.065,315.82 310.529,315.378C312.016,314.929 313.288,315.473 314.535,316.275C316.889,317.787 319.296,318.482 321.857,316.875C323.138,316.07 324.14,314.834 325.599,314.319C327.307,313.718 329.105,314.246 330.72,314.881C333.399,315.933 335.875,317.421 338.449,318.694C339.835,319.379 341.25,320.021 342.726,320.493C344.198,320.964 344.008,320.947 344.293,319.861C344.538,318.933 344.661,317.958 344.717,317.002C344.731,316.771 345.004,316.603 345.218,316.72C350.816,319.786 357.416,323.286 364.007,322.68C366.697,322.433 370.762,321.18 369.588,318.024C369.012,318.181 368.781,317.989 368.863,317.397C368.887,317.223 368.933,317.053 368.979,316.882C368.666,316.4 368.309,315.942 367.912,315.508C367.787,315.555 367.661,315.599 367.533,315.639C366.464,315.973 366.432,315.949 366.345,314.776C366.335,314.654 366.345,314.532 366.328,314.413C366.246,313.851 366.031,313.744 365.501,314.02C365.109,314.224 364.747,314.501 364.336,314.649C364.117,314.727 363.676,314.691 363.585,314.548C362.996,313.615 362.019,313.324 361.096,312.943C356.925,311.221 352.665,309.753 348.342,308.464C347.533,308.223 346.745,307.913 345.939,307.657C344.524,307.206 343.105,306.765 341.682,306.336C340.99,306.128 340.257,306.027 339.592,305.756C336.249,304.391 332.682,303.904 329.197,303.116C327.247,302.676 325.219,302.63 323.246,302.195C321.208,301.746 319.114,301.561 317.057,301.191C314.706,300.767 312.343,300.645 309.962,300.703C309.721,300.709 309.477,300.724 309.238,300.7C307.401,300.521 305.533,300.643 303.733,300.11C303.467,300.03 303.177,300.029 302.898,300.002C301.458,299.86 300.018,299.731 298.58,299.578C296.702,299.378 294.827,299.136 292.945,298.965C292.273,298.904 291.587,299.004 290.908,299.022C289.746,299.051 288.578,299.013 287.422,299.111C285.421,299.283 283.427,299.535 281.431,299.76C280.513,299.863 279.572,299.886 278.685,300.115C276.79,300.605 274.849,300.738 272.937,300.666C268.873,300.512 264.924,301.306 260.943,301.843C259.352,302.057 257.789,302.474 256.203,302.741C255.254,302.902 254.272,302.879 253.331,303.068C251.162,303.5 249.006,303.994 246.852,304.498C245.954,304.708 245.07,304.988 244.188,305.264C243.189,305.575 242.221,306.022 241.202,306.222C239.333,306.589 237.544,307.164 235.793,307.898C235.239,308.13 234.651,308.288 234.072,308.459C229.629,309.769 225.258,311.288 220.983,313.073C220.29,313.363 219.614,313.765 219.037,314.242C218.38,314.786 218.419,314.85 217.738,314.528C217.276,314.31 216.735,313.838 216.363,313.944C215.782,314.111 216.114,314.855 216.018,315.344C215.941,315.736 215.756,315.917 215.346,315.783C214.886,315.634 214.43,315.474 213.963,315.35C213.389,315.196 213.219,315.326 213.262,315.94C213.293,316.377 213.419,316.808 213.495,317.242C213.629,318.014 213.439,318.186 212.686,317.981C211.944,317.778 211.049,317.791 210.247,317.965" style="fill:rgb(88,142,57);fill-rule:nonzero;"/>
                        </g>
                        <g transform="matrix(0.551603,-0.834107,-0.834107,-0.551603,348.773,804.59)">
                            <path d="M210.069,304.419C210.835,304.186 211.589,303.917 212.338,303.621C211.965,304.718 211.027,305.867 210.069,306.358C210.087,305.855 210.139,305.374 210.111,304.897C210.101,304.738 210.084,304.578 210.069,304.419" style="fill:rgb(183,213,70);fill-rule:nonzero;"/>
                        </g>
                        <g transform="matrix(1,0,0,1,0,149.925)">
                            <path d="M213.506,309.491C214.954,308.532 216.463,307.64 217.954,306.728C217.89,306.701 217.82,306.669 217.738,306.63C217.276,306.411 216.735,305.939 216.362,306.046C215.782,306.213 216.114,306.956 216.018,307.445C215.941,307.837 215.756,308.018 215.346,307.885C214.886,307.735 214.429,307.575 213.963,307.451C213.388,307.298 213.219,307.428 213.262,308.041C213.293,308.478 213.419,308.909 213.494,309.344C213.505,309.404 213.499,309.437 213.506,309.491" style="fill:rgb(183,213,70);fill-rule:nonzero;"/>
                        </g>
                        <g transform="matrix(1,0,0,1,0,176.087)">
                            <path d="M379.168,292.735C379.013,292.55 378.855,292.361 378.668,292.211C377.542,291.302 376.466,290.315 375.26,289.527C375.192,289.483 375.122,289.444 375.055,289.401C368.692,289.548 362.278,289.348 355.981,290.389C354.872,290.573 353.77,290.794 352.681,291.07C352.341,291.157 351.128,291.288 350.991,291.49C350.905,291.617 351.116,292.505 351.064,292.762C350.865,293.748 350.065,294.4 349.223,294.857C346.407,296.386 342.726,296.52 339.606,296.738C337.685,296.873 335.701,296.854 333.744,296.969C334.183,297.062 334.622,297.154 335.06,297.246C337.432,297.748 339.797,298.114 342.226,298.158C343.668,298.184 345.11,298.384 346.547,298.554C348.702,298.808 350.842,299.185 353.032,299.1C354.641,299.038 356.255,299.079 357.866,299.11C358.506,299.123 359.149,299.199 359.781,299.308C360.69,299.465 361.585,299.797 362.496,299.842C364.021,299.918 365.554,299.826 367.084,299.796C367.133,299.795 367.18,299.696 367.314,299.547C367.003,299.308 366.727,298.999 366.381,298.848C365.536,298.481 364.663,298.179 363.796,297.865C363.155,297.631 362.47,297.491 361.872,297.179C361.137,296.796 361.176,295.964 361.888,295.55C362.025,295.47 362.18,295.403 362.335,295.373C363.834,295.081 365.329,294.762 366.837,294.524C368.146,294.317 369.467,294.172 370.787,294.058C371.784,293.973 372.79,293.933 373.789,293.964C375.357,294.009 376.923,294.154 378.491,294.202C378.806,294.211 379.255,294.064 379.418,293.832C379.664,293.483 379.439,293.059 379.168,292.735" style="fill:rgb(183,213,70);fill-rule:nonzero;"/>
                        </g>
                        <g transform="matrix(1,0,0,1,0,176.074)">
                            <path d="M272.923,294.126C267.161,293.513 261.211,293.816 255.44,294.184C249.874,294.537 244.394,295.259 238.868,295.977C233.587,296.664 228.279,297.03 223.023,295.957C222.778,295.907 222.609,295.69 222.673,295.438C223.026,294.054 223.672,292.871 224.473,291.714C219.025,289.363 211.23,295.412 206.745,290.374C206.631,290.246 206.623,290.066 206.709,289.924C206.761,289.835 206.821,289.757 206.875,289.67C205.759,290.412 204.699,291.234 203.741,292.2C203.461,292.483 203.167,292.783 202.988,293.13C202.676,293.737 202.928,294.187 203.612,294.213C204.414,294.244 205.22,294.192 206.023,294.144C208.146,294.017 210.27,293.614 212.384,294.23C212.573,294.287 212.784,294.27 212.984,294.291C215.143,294.52 217.312,294.676 219.421,295.245C219.769,295.339 220.14,295.393 220.457,295.552C221.194,295.924 221.237,296.739 220.547,297.183C220.246,297.375 219.896,297.505 219.553,297.609C218.938,297.798 218.3,297.914 217.691,298.117C216.742,298.434 215.794,298.77 214.93,299.821C216.399,299.85 217.641,299.917 218.88,299.881C219.716,299.856 220.549,299.688 221.382,299.575C222.494,299.425 223.601,299.177 224.717,299.132C226.608,299.057 228.506,299.15 230.397,299.087C231.759,299.039 233.117,298.858 234.476,298.729C236.437,298.539 238.393,298.247 240.357,298.174C242.661,298.089 244.911,297.764 247.165,297.297C250.509,296.604 253.876,296.015 257.244,295.442C258.35,295.254 259.488,295.258 260.61,295.164C263.014,294.963 265.414,294.655 267.821,294.574C270.528,294.483 273.239,294.537 275.95,294.543C274.944,294.383 273.937,294.234 272.923,294.126" style="fill:rgb(183,213,70);fill-rule:nonzero;"/>
                        </g>
                        <g transform="matrix(1,0,0,1,0,187.511)">
                            <path d="M324.924,284.796C324.815,286.275 324.158,287.569 324.276,288.992C325.176,287.765 325.148,286.233 325.683,284.8C327.071,285.056 328.45,285.291 329.822,285.568C332.188,286.045 334.542,286.579 336.914,287.025C338.017,287.233 339.146,287.368 340.267,287.4C343.129,287.484 345.963,287.815 348.795,288.204C349.55,288.309 350.316,288.331 351.076,288.394C351.68,288.442 351.78,288.572 351.58,289.158C351.372,289.768 351.113,290.359 350.89,290.964C350.807,291.187 350.736,291.42 350.703,291.655C350.691,291.744 350.783,291.907 350.861,291.933C350.946,291.96 351.121,291.899 351.169,291.82C351.382,291.482 351.593,291.136 351.749,290.77C351.972,290.252 352.137,289.711 352.342,289.187C352.555,288.643 352.944,288.38 353.55,288.384C356.245,288.404 358.927,288.339 361.587,289.059C362.793,289.385 364.141,289.194 365.425,289.227C366.019,289.241 366.614,289.23 367.389,289.23C366.82,290.662 366.343,291.974 365.778,293.244C365.401,294.091 364.666,294.472 363.725,294.466C360.782,294.447 357.839,294.502 354.899,294.417C352.123,294.338 349.344,294.207 346.582,293.932C344.369,293.711 342.158,293.753 339.949,293.647C337.619,293.534 335.296,293.266 332.971,293.067C332.69,293.042 332.408,293.024 332.127,293.002C330.081,292.852 328.037,292.634 325.989,292.567C322.874,292.467 319.847,291.769 316.796,291.271C313.691,290.764 310.573,290.533 307.444,290.307C303.753,290.04 300.053,289.849 296.396,289.223C294.974,288.979 293.539,288.794 292.105,288.648C291.105,288.545 290.117,288.697 289.115,288.864C287.056,289.206 284.973,289.414 282.895,289.625C280.413,289.878 277.926,290.089 275.439,290.293C273.154,290.481 270.864,290.627 268.578,290.808C268.019,290.853 267.463,290.947 266.908,291.039C264.092,291.508 261.288,292.074 258.458,292.428C255.986,292.737 253.485,292.805 250.997,292.989C248.91,293.144 246.826,293.337 244.737,293.465C242.969,293.573 241.197,293.597 239.428,293.689C238.184,293.754 236.943,293.89 235.698,293.959C234.09,294.048 232.474,294.042 230.871,294.183C226.971,294.525 223.064,294.432 219.158,294.476C217.739,294.491 216.948,294.293 216.242,292.5C215.844,291.491 215.48,290.471 215.083,289.407C215.462,289.056 215.924,289.192 216.339,289.195C217.265,289.202 218.191,289.289 219.116,289.275C219.755,289.264 220.423,289.236 221.024,289.044C223.618,288.215 226.284,288.42 228.937,288.392C229.496,288.385 229.841,288.678 230.033,289.173C230.282,289.812 230.495,290.464 230.769,291.09C230.921,291.439 231.086,292.059 231.492,291.903C231.967,291.722 231.576,291.215 231.451,290.865C231.248,290.297 230.999,289.744 230.805,289.173C230.603,288.581 230.703,288.458 231.289,288.391C233.245,288.166 235.198,287.908 237.156,287.71C238.478,287.575 239.807,287.441 241.133,287.445C243.328,287.452 245.45,287.042 247.581,286.593C250.454,285.988 253.342,285.453 256.224,284.892C256.375,284.862 256.532,284.858 256.716,284.841C257.233,286.228 257.22,287.759 258.095,288.998C258.242,287.571 257.547,286.285 257.465,284.825C257.769,284.787 258.077,284.745 258.385,284.71C260.184,284.504 261.981,284.275 263.782,284.104C264.824,284.005 265.874,283.972 266.92,283.961C269.016,283.939 271.112,283.976 273.207,283.945C276.348,283.9 279.489,283.854 282.628,283.739C285.321,283.641 288.011,283.33 290.703,283.324C293.475,283.318 296.248,283.567 299.021,283.704C299.342,283.72 299.664,283.752 299.986,283.757C304.456,283.823 308.927,283.952 313.398,283.929C316.631,283.912 319.826,284.24 323.027,284.606C323.623,284.674 324.221,284.726 324.924,284.796" style="fill:rgb(195,154,107);fill-rule:nonzero;"/>
                        </g>
                        <g transform="matrix(1,0,0,1,0,182.329)">
                            <path d="M209.708,291.184C209.727,290.174 208.893,289.51 208.536,288.65C209.571,288.317 209.729,288.35 210.261,289.107C210.717,289.756 211.145,290.425 211.687,291.239C211.984,290.523 211.651,290.161 211.434,289.778C211.216,289.396 210.993,289.017 210.67,288.462C213.905,289.049 217.096,288.895 220.165,290.052C219.84,290.551 219.393,290.597 218.983,290.727C217.988,291.04 216.976,291.315 216.015,291.712C215.236,292.035 214.533,292.509 214.145,293.341C214.045,293.556 213.764,293.773 213.53,293.824C212.197,294.115 210.851,294.347 209.512,294.617C209.056,294.708 208.721,294.571 208.485,294.185C207.32,292.277 205.762,290.705 204.194,289.14C204.121,289.067 204.101,288.939 204.036,288.79C205.108,288.694 206.14,288.575 207.175,288.527C207.407,288.516 207.717,288.695 207.875,288.883C208.21,289.28 208.472,289.739 208.757,290.177C208.994,290.541 209.222,290.913 209.454,291.28C209.539,291.248 209.624,291.216 209.708,291.184" style="fill:rgb(138,93,59);fill-rule:nonzero;"/>
                        </g>
                        <g transform="matrix(1,0,0,1,0,182.292)">
                            <path d="M362.197,290.096C365.283,288.924 368.473,289.095 371.627,288.508C371.218,289.355 370.871,290.067 370.536,290.783C370.51,290.838 370.569,290.932 370.617,291.12C370.834,290.919 371.049,290.777 371.188,290.579C371.513,290.12 371.787,289.625 372.109,289.163C372.652,288.386 372.746,288.367 373.839,288.654C373.534,289.541 372.639,290.182 372.697,291.423C372.952,291.159 373.118,291.03 373.228,290.864C373.45,290.53 373.662,290.185 373.843,289.826C374.352,288.821 375.032,288.307 376.252,288.662C376.884,288.846 377.597,288.749 378.427,288.786C378.189,289.095 378.052,289.314 377.875,289.492C376.486,290.893 375.088,292.284 374.067,293.994C373.736,294.55 373.281,294.755 372.648,294.626C371.389,294.369 370.125,294.145 368.872,293.865C368.635,293.812 368.347,293.607 368.248,293.395C367.839,292.524 367.097,292.042 366.276,291.708C365.35,291.332 364.38,291.065 363.421,290.773C363.007,290.646 362.57,290.584 362.197,290.096" style="fill:rgb(138,93,59);fill-rule:nonzero;"/>
                        </g>
                        <g transform="matrix(1,0,0,1,0,53.9088)">
                            <path d="M243.24,358.65C242.781,358.543 241.967,358.355 241.154,358.16C240.959,358.113 240.774,358.02 240.577,357.982C240.039,357.877 239.817,358.033 239.756,358.566C239.728,358.804 239.736,359.049 239.743,359.291C239.787,360.575 239.225,361.502 238.168,362.224C236.649,363.262 235.031,363.416 233.328,362.891C232.469,362.628 231.75,362.121 231.238,361.338C230.745,360.585 230.518,360.557 229.818,361.121C229.191,361.627 228.607,362.186 227.975,362.685C226.809,363.606 225.534,364.26 223.982,364.095C223.664,364.061 223.344,364.006 223.037,363.919C222.238,363.69 221.717,363.233 221.607,362.335C221.519,361.612 221.225,361.531 220.667,362.027C220.246,362.401 219.879,362.835 219.466,363.217C218.536,364.077 217.513,364.778 216.227,364.986C215.037,365.178 213.895,365.016 212.831,364.443C212.02,364.004 211.969,363.72 212.5,362.946C212.568,362.846 212.684,362.758 212.703,362.653C212.728,362.514 212.727,362.321 212.647,362.227C212.561,362.126 212.328,362.028 212.236,362.076C211.962,362.217 211.697,362.405 211.479,362.624C210.734,363.373 209.63,363.558 208.713,363.078C208.335,362.88 208.227,362.566 208.243,362.177C208.31,360.516 209.044,359.208 210.499,358.428C211.763,357.752 213.047,357.854 214.234,358.757C214.814,359.199 215.073,359.082 215.234,358.401C215.354,357.893 215.431,357.37 215.615,356.886C215.739,356.561 215.968,356.24 216.233,356.014C216.762,355.563 217.464,355.805 217.643,356.472C217.716,356.742 217.711,357.031 217.763,357.307C217.824,357.637 217.947,357.979 218.353,357.927C218.699,357.883 218.732,357.551 218.718,357.259C218.705,356.979 218.727,356.673 218.624,356.425C218.364,355.803 218.535,355.232 218.759,354.67C219.162,353.65 219.692,352.701 220.519,351.956C221.33,351.226 222.141,351.35 222.71,352.287C222.918,352.629 223.086,353.145 223.568,352.923C224.07,352.693 223.736,352.262 223.605,351.888C223.462,351.482 223.331,351.042 223.335,350.618C223.345,349.566 223.551,348.539 223.986,347.571C224.374,346.706 225.046,346.267 225.995,346.314C227.753,346.402 229.231,346.921 229.875,348.791C230.112,349.479 231.106,349.639 231.635,349.007C232.094,348.46 232.505,348.553 233.007,348.776C233.68,349.074 234.244,349.499 234.711,350.086C235.219,350.723 235.556,350.745 236.055,350.127C236.567,349.492 237.186,349.258 237.959,349.318C239.039,349.402 240.127,349.43 241.193,349.599C241.682,349.677 242.162,349.983 242.584,350.273C243.139,350.655 243.464,351.203 243.408,351.921C243.389,352.161 243.385,352.409 243.424,352.644C243.501,353.116 243.846,353.276 244.197,352.93C245.076,352.066 246.077,352.174 247.131,352.417C248.334,352.692 249.416,353.209 250.334,354.029C251.126,354.737 251.138,355.427 250.281,356.035C248.287,357.446 246.143,358.52 243.24,358.65" style="fill:white;fill-rule:nonzero;"/>
                        </g>
                        <g transform="matrix(1,0,0,1,0,60.2178)">
                            <path d="M250.333,347.72C249.56,347.029 248.664,346.564 247.684,346.267C247.499,347.298 246.667,348.126 245.016,348.547C243.517,348.929 241.901,348.939 240.367,348.79C239.999,348.754 239.518,348.589 239.154,348.623C238.963,348.641 238.866,348.631 238.815,348.616C238.809,348.66 238.771,348.741 238.663,348.877C238.065,349.63 238.119,351.085 237.518,351.964C236.825,352.979 235.871,353.384 234.696,352.96C233.989,352.705 233.381,352.195 232.826,351.702C232.489,351.403 231.833,350.406 231.389,350.353C230.957,350.302 230.053,351.685 229.764,352.033C228.71,353.309 227.583,354.946 225.723,354.847C224.144,354.764 223.655,353.597 223.603,352.264C220.57,353.351 210.384,355.91 209.744,352.634C208.793,353.422 208.296,354.528 208.242,355.868C208.228,356.257 208.335,356.572 208.712,356.769C209.629,357.249 210.733,357.064 211.479,356.315C211.696,356.096 211.962,355.908 212.235,355.767C212.328,355.719 212.561,355.817 212.646,355.918C212.726,356.012 212.728,356.205 212.702,356.344C212.683,356.449 212.568,356.537 212.499,356.637C211.969,357.411 212.019,357.696 212.832,358.134C213.896,358.707 215.036,358.869 216.226,358.677C217.512,358.469 218.535,357.768 219.466,356.908C219.879,356.526 220.245,356.092 220.666,355.718C221.224,355.222 221.519,355.303 221.606,356.026C221.716,356.924 222.237,357.381 223.036,357.61C223.343,357.698 223.663,357.752 223.982,357.786C225.534,357.951 226.809,357.297 227.975,356.376C228.606,355.877 229.19,355.318 229.818,354.812C230.517,354.248 230.744,354.276 231.237,355.03C231.749,355.812 232.469,356.319 233.329,356.582C235.03,357.107 236.648,356.953 238.167,355.915C239.224,355.193 239.786,354.266 239.743,352.982C239.735,352.741 239.729,352.495 239.755,352.257C239.817,351.724 240.039,351.568 240.577,351.673C240.773,351.711 240.959,351.804 241.153,351.851C241.967,352.046 242.78,352.234 243.239,352.341C246.142,352.211 248.288,351.137 250.28,349.726C251.139,349.118 251.125,348.428 250.333,347.72" style="fill:rgb(215,237,229);fill-rule:nonzero;"/>
                        </g>
                        <g transform="matrix(1,0,0,1,0,52.32)">
                            <path d="M363.549,364.112C366.349,364.887 368.721,364.53 371.053,363.805C372.057,363.493 372.258,362.833 371.724,361.914C371.106,360.85 370.236,360.023 369.178,359.389C368.25,358.834 367.332,358.42 366.229,358.97C365.788,359.189 365.51,358.931 365.582,358.459C365.618,358.222 365.699,357.988 365.791,357.766C366.067,357.1 365.927,356.478 365.518,355.944C365.206,355.537 364.845,355.098 364.403,354.873C363.443,354.383 362.416,354.018 361.416,353.604C360.699,353.308 360.038,353.338 359.355,353.783C358.69,354.216 358.375,354.091 358.09,353.328C357.827,352.626 357.422,352.047 356.875,351.555C356.467,351.189 356.105,350.971 355.498,351.351C354.799,351.788 353.903,351.328 353.892,350.6C353.859,348.623 352.613,347.672 350.969,347.045C350.081,346.706 349.307,346.915 348.67,347.617C347.956,348.403 347.443,349.316 347.108,350.313C346.973,350.715 346.961,351.174 346.971,351.604C346.98,352.001 347.164,352.513 346.615,352.577C346.088,352.638 346.088,352.095 345.997,351.706C345.746,350.64 345.013,350.27 344.016,350.714C342.998,351.165 342.201,351.904 341.501,352.749C341.115,353.215 340.776,353.705 340.83,354.377C340.852,354.645 340.736,354.928 340.661,355.199C340.584,355.48 340.45,355.787 340.108,355.721C339.705,355.644 339.695,355.282 339.738,354.949C339.775,354.67 339.869,354.396 339.883,354.117C339.919,353.428 339.327,352.98 338.684,353.245C338.362,353.378 338.044,353.613 337.826,353.883C337.502,354.286 337.267,354.76 336.995,355.206C336.631,355.803 336.349,355.834 335.934,355.235C335.085,354.008 333.897,353.514 332.485,353.766C330.86,354.056 329.757,355.073 329.179,356.633C329.043,356.997 329.048,357.33 329.346,357.634C330.07,358.376 331.177,358.541 332.117,358.058C332.393,357.918 332.702,357.822 333.007,357.771C333.11,357.755 333.3,357.92 333.351,358.043C333.398,358.157 333.339,358.341 333.273,358.465C333.222,358.56 333.084,358.607 332.988,358.68C332.243,359.253 332.204,359.54 332.84,360.207C333.674,361.082 334.71,361.59 335.901,361.774C337.188,361.975 338.378,361.625 339.528,361.095C340.039,360.86 340.523,360.56 341.038,360.336C341.723,360.037 341.978,360.204 341.838,360.919C341.663,361.807 342.018,362.403 342.707,362.868C342.972,363.047 343.259,363.198 343.551,363.329C344.976,363.966 346.391,363.739 347.784,363.223C348.54,362.945 349.269,362.593 350.021,362.307C350.861,361.987 351.068,362.084 351.303,362.953C351.548,363.856 352.075,364.559 352.811,365.077C354.267,366.102 355.854,366.458 357.619,365.941C358.848,365.581 359.669,364.874 360.026,363.639C360.093,363.407 360.161,363.173 360.261,362.954C360.485,362.466 360.744,362.385 361.223,362.653C361.398,362.75 361.545,362.895 361.717,363C362.429,363.437 363.146,363.868 363.549,364.112M360.95,363.502C360.828,363.708 360.744,363.801 360.713,363.911C360.447,364.826 360.04,365.631 359.16,366.12C358.039,366.742 356.838,367.121 355.57,366.927C354.462,366.758 353.378,366.415 352.432,365.744C351.618,365.166 351.012,364.436 350.674,363.498C350.519,363.068 350.303,362.946 349.859,363.147C349.125,363.48 348.378,363.787 347.618,364.05C346.073,364.586 344.535,364.585 343.031,363.878C342.044,363.413 341.244,362.784 341.049,361.619C341.031,361.511 340.939,361.416 340.857,361.272C340.444,361.467 340.049,361.654 339.653,361.841C337.436,362.883 335.285,362.771 333.211,361.452C332.519,361.011 331.9,360.47 331.695,359.647C331.579,359.188 331.355,359.091 330.941,359.075C330.193,359.045 329.534,358.735 328.956,358.273C328.293,357.742 328.114,357.103 328.451,356.335C329.112,354.826 330.186,353.728 331.775,353.201C333.096,352.762 334.319,353.052 335.458,353.782C335.792,353.997 336.093,354.262 336.412,354.507C336.82,354.026 337.19,353.554 337.598,353.117C338.175,352.5 338.882,352.252 339.672,352.649C340.267,352.949 340.577,352.72 340.99,352.286C341.649,351.591 342.395,350.967 343.155,350.382C343.898,349.81 344.727,349.635 345.653,350.024C346.27,350.282 346.267,350.217 346.624,349.601C347.085,348.804 347.513,347.967 348.093,347.262C349.089,346.052 350.092,345.913 351.547,346.507C353.06,347.125 354.114,348.117 354.541,349.737C354.725,350.434 354.807,350.476 355.558,350.24C356.091,350.072 356.516,350.238 356.918,350.508C357.664,351.008 358.263,351.65 358.694,352.452C358.784,352.62 359.106,352.848 359.202,352.802C360.575,352.144 361.821,352.729 363.044,353.212C363.859,353.533 364.644,353.978 365.362,354.481C366.216,355.078 366.8,355.927 366.815,357.009C366.823,357.633 367.103,357.83 367.643,357.953C369.483,358.37 370.965,359.348 372.066,360.89C372.136,360.989 372.217,361.08 372.283,361.18C373.372,362.846 372.942,364.13 371.04,364.697C369.174,365.254 367.259,365.473 365.309,365.331C363.904,365.228 362.644,364.753 361.526,363.895C361.368,363.774 361.197,363.67 360.95,363.502" style="fill:rgb(35,31,32);fill-rule:nonzero;"/>
                        </g>
                        <g transform="matrix(1,0,0,1,0,52.45)">
                            <path d="M363.549,363.982C363.146,363.738 362.429,363.307 361.717,362.87C361.545,362.765 361.398,362.62 361.223,362.523C360.744,362.255 360.485,362.336 360.261,362.824C360.161,363.043 360.093,363.277 360.026,363.509C359.669,364.744 358.848,365.451 357.619,365.811C355.854,366.328 354.267,365.972 352.811,364.947C352.075,364.429 351.548,363.726 351.303,362.823C351.068,361.954 350.861,361.857 350.021,362.177C349.269,362.463 348.54,362.815 347.784,363.093C346.391,363.609 344.976,363.836 343.551,363.199C343.259,363.068 342.972,362.917 342.707,362.738C342.018,362.273 341.663,361.677 341.838,360.789C341.978,360.074 341.723,359.907 341.038,360.206C340.523,360.43 340.039,360.73 339.528,360.965C338.378,361.495 337.188,361.845 335.901,361.644C334.71,361.46 333.674,360.952 332.84,360.077C332.204,359.41 332.243,359.123 332.988,358.55C333.084,358.477 333.222,358.43 333.273,358.335C333.339,358.211 333.398,358.027 333.351,357.913C333.3,357.79 333.11,357.625 333.007,357.641C332.702,357.692 332.393,357.788 332.117,357.928C331.177,358.411 330.07,358.246 329.346,357.504C329.048,357.2 329.043,356.867 329.179,356.503C329.757,354.943 330.86,353.926 332.485,353.636C333.897,353.384 335.085,353.878 335.934,355.105C336.349,355.704 336.631,355.673 336.995,355.076C337.267,354.63 337.502,354.156 337.826,353.753C338.044,353.483 338.362,353.248 338.684,353.115C339.327,352.85 339.919,353.298 339.883,353.987C339.869,354.266 339.775,354.54 339.738,354.819C339.695,355.152 339.705,355.514 340.108,355.591C340.45,355.657 340.584,355.35 340.661,355.069C340.736,354.798 340.852,354.515 340.83,354.247C340.776,353.575 341.115,353.085 341.501,352.619C342.201,351.774 342.998,351.035 344.016,350.584C345.013,350.14 345.746,350.51 345.997,351.576C346.088,351.965 346.088,352.508 346.615,352.447C347.164,352.383 346.98,351.871 346.971,351.474C346.961,351.044 346.973,350.585 347.108,350.183C347.443,349.186 347.956,348.273 348.67,347.487C349.307,346.785 350.081,346.576 350.969,346.915C352.613,347.542 353.859,348.493 353.892,350.47C353.903,351.198 354.799,351.658 355.498,351.221C356.105,350.841 356.467,351.059 356.875,351.425C357.422,351.917 357.827,352.496 358.09,353.198C358.375,353.961 358.69,354.086 359.355,353.653C360.038,353.208 360.699,353.178 361.416,353.474C362.416,353.888 363.443,354.253 364.403,354.743C364.845,354.968 365.206,355.407 365.518,355.814C365.927,356.348 366.067,356.97 365.791,357.636C365.699,357.858 365.618,358.092 365.582,358.329C365.51,358.801 365.788,359.059 366.229,358.84C367.332,358.29 368.25,358.704 369.178,359.259C370.236,359.893 371.106,360.72 371.724,361.784C372.258,362.703 372.057,363.363 371.053,363.675C368.721,364.4 366.349,364.757 363.549,363.982" style="fill:white;fill-rule:nonzero;"/>
                        </g>
                        <g transform="matrix(1,0,0,1,0,59.7654)">
                            <path d="M371.724,354.468C371.203,353.572 370.495,352.853 369.655,352.266C369.159,353.19 368.113,353.72 366.412,353.609C364.869,353.508 363.328,353.017 361.916,352.401C361.577,352.253 361.171,351.947 360.815,351.866C360.628,351.824 360.537,351.785 360.495,351.754C360.475,351.795 360.414,351.86 360.269,351.956C359.468,352.487 359.069,353.887 358.224,354.537C357.25,355.287 356.218,355.376 355.234,354.611C354.639,354.149 354.218,353.475 353.844,352.835C353.617,352.447 353.302,351.295 352.895,351.108C352.5,350.925 351.213,351.96 350.83,352.203C349.434,353.089 347.854,354.296 346.117,353.627C344.641,353.059 344.537,351.798 344.9,350.514C341.68,350.61 331.202,349.889 331.609,346.576C330.459,347.031 329.646,347.929 329.179,349.187C329.043,349.551 329.049,349.884 329.346,350.189C330.071,350.93 331.177,351.095 332.118,350.613C332.393,350.472 332.703,350.376 333.007,350.325C333.11,350.309 333.3,350.474 333.351,350.597C333.398,350.711 333.339,350.895 333.273,351.02C333.222,351.114 333.084,351.161 332.989,351.235C332.244,351.807 332.204,352.094 332.84,352.761C333.674,353.636 334.71,354.144 335.901,354.328C337.188,354.53 338.378,354.179 339.528,353.65C340.039,353.414 340.523,353.114 341.038,352.89C341.723,352.591 341.978,352.759 341.838,353.473C341.663,354.362 342.018,354.957 342.707,355.422C342.972,355.601 343.259,355.752 343.551,355.883C344.976,356.52 346.391,356.293 347.785,355.778C348.54,355.499 349.269,355.148 350.021,354.862C350.861,354.541 351.068,354.638 351.303,355.507C351.548,356.41 352.076,357.114 352.811,357.631C354.267,358.656 355.854,359.012 357.62,358.495C358.848,358.135 359.669,357.428 360.026,356.194C360.093,355.961 360.161,355.727 360.261,355.508C360.485,355.02 360.745,354.94 361.223,355.207C361.398,355.304 361.545,355.449 361.717,355.554C362.429,355.991 363.146,356.422 363.549,356.666C366.349,357.442 368.721,357.084 371.053,356.36C372.057,356.047 372.258,355.387 371.724,354.468" style="fill:rgb(215,237,229);fill-rule:nonzero;"/>
                        </g>
                        <g transform="matrix(1,0,0,1,0,167.55)">
                            <path d="M332.588,300.767C332.558,300.191 332.527,299.615 332.487,298.859C332.041,299.265 331.731,299.569 331.399,299.845C330.938,300.229 330.631,300.187 330.336,299.655C330.052,299.144 329.83,298.599 329.515,297.926C329.268,298.354 329.109,298.622 328.956,298.894C328.779,299.209 328.638,299.548 328.43,299.839C327.991,300.455 327.589,300.502 327.036,299.997C326.657,299.653 326.324,299.256 325.867,298.774C325.684,299.197 325.599,299.553 325.394,299.816C325.217,300.041 324.919,300.205 324.642,300.304C324.533,300.342 324.313,300.147 324.193,300.014C324.161,299.977 324.285,299.697 324.381,299.666C324.909,299.5 324.892,298.989 325.098,298.621C325.5,297.901 325.933,297.823 326.519,298.401C326.832,298.71 327.088,299.076 327.387,299.4C327.596,299.626 327.825,299.593 327.973,299.331C328.247,298.842 328.476,298.326 328.761,297.843C329.236,297.039 329.708,297.037 330.164,297.843C330.437,298.325 330.645,298.842 330.941,299.467C331.846,298.694 332.677,297.985 333.594,297.202C333.839,298.022 333.234,298.456 333.169,299.032C333.104,299.612 332.974,300.185 332.872,300.761L332.588,300.767Z" style="fill:rgb(35,31,32);fill-rule:nonzero;"/>
                        </g>
                        <g transform="matrix(1,0,0,1,0,167.888)">
                            <path d="M252.788,297.735C252.579,298.2 252.385,298.677 252.152,299.135C251.776,299.878 251.485,299.93 250.874,299.401C250.579,299.145 250.288,298.885 249.808,298.462L249.808,300.428C249.729,300.464 249.651,300.501 249.573,300.538C249.525,300.433 249.439,300.33 249.435,300.223C249.404,299.286 249.211,298.397 248.755,297.565C248.684,297.436 248.788,297.211 248.812,297.03C248.954,297.083 249.126,297.101 249.234,297.194C249.93,297.797 250.612,298.415 251.379,299.099C251.555,298.802 251.695,298.586 251.815,298.358C251.908,298.181 251.962,297.983 252.057,297.807C252.263,297.428 252.388,296.929 252.939,296.936C253.428,296.942 253.556,297.391 253.745,297.736C253.938,298.088 254.091,298.463 254.292,298.809C254.598,299.336 254.752,299.342 255.18,298.874C255.477,298.548 255.735,298.181 256.063,297.892C256.442,297.558 256.802,297.615 257.102,297.999C257.482,298.483 257.474,299.257 258.21,299.476C258.158,299.617 258.147,299.822 258.046,299.888C257.699,300.116 257.258,299.98 257.026,299.572C256.853,299.267 256.74,298.928 256.581,298.563C256.076,298.657 255.934,299.077 255.677,299.346C254.776,300.289 254.335,300.232 253.684,299.07C253.449,298.652 253.218,298.233 252.98,297.818C252.965,297.79 252.909,297.785 252.788,297.735" style="fill:rgb(35,31,32);fill-rule:nonzero;"/>
                        </g>
                        <g transform="matrix(1,0,0,1,220.317,460.227)">
                            <path d="M0,-28.601C1.446,-20.478 3.033,-11.733 4.764,-2.366C3.088,-2.031 2.25,-1.858 0.578,-1.501C-0.317,-5.695 -0.764,-7.791 -1.658,-11.985C-3.827,-11.523 -4.91,-11.283 -7.072,-10.785C-6.187,-6.943 -5.745,-5.022 -4.86,-1.18C-6.873,-0.724 -7.878,-0.489 -9.886,0C-10.817,-4.404 -11.792,-8.696 -12.82,-12.873C-13.846,-17.039 -14.923,-21.091 -16.063,-25.027C-13.996,-25.537 -12.961,-25.784 -10.888,-26.263C-10.01,-22.066 -9.57,-19.967 -8.687,-15.771C-6.472,-16.193 -5.363,-16.395 -3.145,-16.781C-4.101,-21.232 -4.578,-23.457 -5.534,-27.909C-3.32,-28.204 -2.213,-28.341 0,-28.601Z" style="fill:none;fill-rule:nonzero;stroke:rgb(5,89,128);stroke-width:6px;"/>
                        </g>
                        <g transform="matrix(1,0,0,1,238.495,455.769)">
                            <path d="M0,-27.858C1.043,-20.66 1.565,-17.06 2.608,-9.862C3.412,-4.318 1.214,-1.202 -3.961,-0.325C-4.125,-0.297 -4.207,-0.284 -4.37,-0.255C-8.785,0 -11.557,-1.914 -12.409,-5.955C-14.111,-14.02 -15.329,-20.684 -16.433,-25.403C-14.302,-25.813 -13.236,-26.01 -11.101,-26.388C-10.752,-23.636 -10.248,-20.421 -9.594,-16.74C-9.135,-14.157 -8.584,-11.327 -7.994,-8.285C-7.562,-6.056 -6.53,-5.074 -4.871,-5.355C-4.869,-5.342 -4.861,-5.337 -4.849,-5.34C-3.203,-5.618 -2.61,-7.189 -3.076,-10.069C-4.197,-16.756 -4.759,-20.1 -5.884,-26.788C-3.534,-27.236 -2.357,-27.45 0,-27.858Z" style="fill:none;fill-rule:nonzero;stroke:rgb(5,89,128);stroke-width:6px;"/>
                        </g>
                        <g transform="matrix(1,0,0,1,247.403,453.782)">
                            <path d="M0,-27.363C2.784,-20.021 4.126,-16.338 6.711,-8.949C7.277,-16.109 7.595,-19.689 8.298,-26.85C11.977,-27.167 13.818,-27.301 17.5,-27.521C17.617,-23.535 17.822,-19.519 18.108,-15.472C18.426,-10.961 18.846,-6.4 19.355,-1.792C17.187,-1.493 16.105,-1.335 13.944,-1.001C13.524,-5.86 12.955,-11.797 12.227,-18.808C11.503,-12.257 11.171,-8.98 10.567,-2.427C8.255,-2.05 7.102,-1.851 4.799,-1.432C2.512,-8.189 1.329,-11.559 -1.114,-18.279C-0.265,-11.27 0.16,-7.765 1.011,-0.757C-0.796,-0.403 -1.699,-0.219 -3.5,0.158C-3.973,-3.848 -4.481,-7.818 -5.03,-11.752C-5.714,-16.656 -6.46,-21.49 -7.278,-26.252C-4.372,-26.726 -2.916,-26.948 0,-27.363Z" style="fill:none;fill-rule:nonzero;stroke:rgb(5,89,128);stroke-width:6px;"/>
                        </g>
                        <g transform="matrix(1,0,0,1,279.099,436.841)">
                            <path d="M0,1.735C-0.757,-0.89 -1.973,-4.021 -3.695,-7.644C-4.783,-4.495 -5.646,-1.24 -6.299,2.118C-3.781,1.942 -2.521,1.865 0,1.735ZM-11.83,14.359C-10.189,3.755 -8.673,-5.218 -7.473,-12.57C-4.433,-12.768 -2.912,-12.851 0.133,-12.985C2.223,-5.467 4.499,3.114 6.845,12.77C4.92,13.175 3.961,13.384 2.048,13.817C1.367,11.047 1.02,9.662 0.313,6.895C-2.072,6.968 -3.264,7.015 -5.648,7.13C-6.147,10.166 -6.389,11.683 -6.859,14.72C-8.844,14.561 -9.838,14.489 -11.83,14.359Z" style="fill:none;fill-rule:nonzero;stroke:rgb(5,89,128);stroke-width:6px;"/>
                        </g>
                        <g transform="matrix(1,0,0,1,286.614,424.133)">
                            <path d="M0,26.521C0.11,22.328 0.153,18.246 0.118,14.274C0.078,9.69 -0.065,5.248 -0.323,0.947C2.056,0.822 3.246,0.768 5.627,0.682C7.775,6.236 8.807,9.02 10.784,14.604C10.839,9.848 10.803,4.98 10.664,0C13.172,0.023 14.427,0.045 16.935,0.113C16.022,7.597 15.457,15.17 15.182,22.826C15.145,23.855 15.113,24.883 15.09,25.913C13.049,25.862 12.028,25.843 9.987,25.824C7.942,19.852 6.871,16.875 4.631,10.937C4.777,16.404 4.904,21.486 5.017,26.181C3.008,26.302 2.004,26.37 0,26.521Z" style="fill:none;fill-rule:nonzero;stroke:rgb(5,89,128);stroke-width:6px;"/>
                        </g>
                        <g transform="matrix(0.98736,-0.158496,-0.158496,-0.98736,311.468,449.952)">
                            <path d="M-2.009,-0.075C-3.878,0.167 -4.812,0.281 -6.681,0.497C-4.853,9.306 -3.285,17.606 -2.009,25.402C0.286,25.109 1.435,24.953 3.73,24.622C1.773,16.532 -0.137,8.298 -2.009,-0.075Z" style="fill:none;fill-rule:nonzero;stroke:rgb(5,89,128);stroke-width:6px;"/>
                        </g>
                        <g transform="matrix(1,0,0,1,312.184,436.078)">
                            <path d="M0,5.556C2.303,5.561 3.455,5.573 5.761,5.617C5.621,6.368 5.526,7.049 5.476,7.66C5.246,10.433 5.846,11.875 7.272,12.002C7.303,12.005 7.318,12.007 7.349,12.009C9.083,12.116 10.034,11.313 10.203,9.579C10.209,9.514 10.212,9.481 10.219,9.415C10.334,7.567 8.858,5.581 5.718,3.547C2.668,1.572 1.228,-1.352 1.496,-5.29C1.505,-5.412 1.52,-5.534 1.542,-5.655C1.916,-9.77 4.618,-11.718 9.639,-11.34C9.704,-11.335 9.736,-11.332 9.802,-11.326C14.327,-10.917 16.302,-8.046 15.731,-2.843C15.687,-2.428 15.624,-1.992 15.548,-1.531C13.477,-1.647 12.441,-1.698 10.371,-1.783C10.476,-2.326 10.55,-2.83 10.594,-3.294C10.801,-5.478 10.324,-6.627 9.163,-6.73C7.764,-6.856 6.941,-6.265 6.699,-4.969C6.671,-4.788 6.648,-4.604 6.634,-4.422C6.543,-3.335 6.812,-2.291 7.425,-1.292C8.133,-0.137 9.415,0.979 11.258,2.072C13.101,3.163 14.315,4.55 14.896,6.202C15.313,7.392 15.442,8.631 15.299,9.91C15.244,10.398 15.15,10.893 15.017,11.396C14.519,13.202 13.544,14.637 12.105,15.712C10.666,16.788 8.853,17.274 6.642,17.189C6.49,17.188 6.342,17.181 6.192,17.168C4.19,16.994 2.578,16.141 1.328,14.605C0.128,13.13 -0.37,10.575 -0.129,6.93C-0.101,6.489 -0.057,6.032 0,5.556Z" style="fill:none;fill-rule:nonzero;stroke:rgb(5,89,128);stroke-width:6px;"/>
                        </g>
                        <g transform="matrix(1,0,0,1,338.634,456.139)">
                            <path d="M0,-28.876C0.837,-21.069 1.204,-17.166 1.838,-9.363C4.199,-16.147 5.413,-19.53 7.908,-26.279C11.555,-25.652 13.374,-25.316 17.006,-24.595C16.11,-20.709 15.291,-16.772 14.543,-12.785C13.709,-8.339 12.962,-3.821 12.289,0.767C10.107,0.505 9.017,0.384 6.836,0.159C7.659,-4.648 8.612,-10.536 9.682,-17.503C7.32,-11.349 6.168,-8.264 3.923,-2.077C1.586,-2.298 0.418,-2.397 -1.918,-2.575C-2.422,-9.691 -2.714,-13.251 -3.377,-20.37C-4.33,-13.374 -4.806,-9.876 -5.756,-2.88C-7.595,-2.995 -8.514,-3.047 -10.352,-3.137C-9.794,-7.132 -9.281,-11.101 -8.816,-15.046C-8.237,-19.964 -7.736,-24.829 -7.323,-29.643C-4.393,-29.366 -2.928,-29.213 0,-28.876Z" style="fill:none;fill-rule:nonzero;stroke:rgb(5,89,128);stroke-width:6px;"/>
                        </g>
                        <g transform="matrix(1,0,0,1,360.227,445.494)">
                            <path d="M0,-0.384C-0.078,-0.073 -0.147,0.224 -0.207,0.512C-1.155,5.036 -0.526,7.521 1.671,8.005C4.005,8.518 5.759,6.245 6.937,1.145C8.116,-3.954 7.572,-6.772 5.299,-7.274C3.012,-7.779 1.239,-5.471 0,-0.384ZM6.806,-12.966C12.398,-11.728 14.119,-6.723 12.005,1.845C9.887,10.427 6.071,13.998 0.523,12.779C-5.025,11.56 -6.949,6.563 -5.215,-2.427C-3.604,-10.78 0.416,-14.382 6.806,-12.966Z" style="fill:none;fill-rule:nonzero;stroke:rgb(5,89,128);stroke-width:6px;"/>
                        </g>
                    </g>
                </g>
                <g>
                    <g transform="matrix(119.41,0,0,-119.41,859.295,1578.58)">
                        <clipPath id="_clip2">
                            <path d="M0.096,0.878C0.131,0.723 0.148,0.646 0.183,0.491C0.106,0.477 0.068,0.469 -0.009,0.454C-0.041,0.6 -0.057,0.673 -0.089,0.819C-0.161,0.802 -0.197,0.793 -0.269,0.775C-0.228,0.638 -0.189,0.497 -0.151,0.352C-0.114,0.206 -0.079,0.057 -0.045,-0.096C0.024,-0.079 0.059,-0.07 0.129,-0.054C0.097,0.08 0.081,0.147 0.049,0.28C0.123,0.298 0.161,0.307 0.236,0.324C0.268,0.177 0.284,0.104 0.317,-0.042C0.375,-0.029 0.403,-0.023 0.461,-0.011C0.398,0.316 0.341,0.621 0.288,0.904C0.211,0.894 0.173,0.889 0.096,0.878Z" clip-rule="nonzero"/>
                        </clipPath>
                        <g clip-path="url(#_clip2)">
                            <rect x="-7.414" y="-10.72" width="20.308" height="26.729" style="fill:url(#_Linear3);"/>
                        </g>
                    </g>
                    <g transform="matrix(115.19,0,0,-115.19,879.421,1508.47)">
                        <clipPath id="_clip4">
                            <path d="M0.566,0.426C0.608,0.185 0.629,0.064 0.671,-0.178C0.688,-0.282 0.668,-0.339 0.609,-0.349C0.608,-0.349 0.608,-0.349 0.608,-0.349C0.548,-0.359 0.511,-0.324 0.495,-0.243C0.473,-0.133 0.452,-0.031 0.435,0.062C0.41,0.195 0.391,0.311 0.378,0.411C0.301,0.397 0.263,0.389 0.186,0.374C0.228,0.204 0.273,-0.037 0.337,-0.328C0.369,-0.474 0.469,-0.543 0.627,-0.533C0.633,-0.532 0.636,-0.531 0.642,-0.53C0.827,-0.498 0.905,-0.385 0.875,-0.184C0.836,0.076 0.816,0.206 0.777,0.466C0.692,0.451 0.65,0.443 0.566,0.426Z" clip-rule="nonzero"/>
                        </clipPath>
                        <g clip-path="url(#_clip4)">
                            <rect x="-7.86" y="-11.722" width="21.052" height="27.708" style="fill:url(#_Linear5);"/>
                        </g>
                    </g>
                    <g transform="matrix(115.601,0,0,-115.601,886.271,1418.35)">
                        <clipPath id="_clip6">
                            <path d="M1.332,-0.277C1.308,-0.536 1.297,-0.665 1.278,-0.923C1.184,-0.657 1.135,-0.524 1.034,-0.26C0.93,-0.275 0.878,-0.283 0.774,-0.301C0.804,-0.473 0.832,-0.647 0.857,-0.823C0.878,-0.965 0.897,-1.108 0.915,-1.252C0.979,-1.238 1.011,-1.232 1.076,-1.219C1.044,-0.966 1.028,-0.84 0.996,-0.587C1.085,-0.829 1.128,-0.951 1.211,-1.194C1.293,-1.178 1.334,-1.171 1.417,-1.157C1.437,-0.921 1.449,-0.803 1.474,-0.567C1.501,-0.819 1.522,-1.033 1.538,-1.208C1.615,-1.196 1.654,-1.19 1.731,-1.179C1.712,-1.013 1.697,-0.849 1.685,-0.686C1.674,-0.541 1.666,-0.396 1.662,-0.252C1.53,-0.26 1.464,-0.266 1.332,-0.277Z" clip-rule="nonzero"/>
                        </clipPath>
                        <g clip-path="url(#_clip6)">
                            <rect x="-7.891" y="-12.46" width="20.977" height="27.609" style="fill:url(#_Linear7);"/>
                        </g>
                    </g>
                    <g transform="matrix(115.473,0,0,-115.473,896.513,1322.36)">
                        <clipPath id="_clip8">
                            <path d="M1.816,-1.012C1.773,-1.277 1.72,-1.601 1.662,-1.984C1.734,-1.988 1.769,-1.991 1.84,-1.996C1.857,-1.887 1.865,-1.832 1.883,-1.722C1.968,-1.718 2.011,-1.716 2.096,-1.714C2.122,-1.813 2.134,-1.863 2.159,-1.963C2.227,-1.948 2.261,-1.94 2.33,-1.925C2.246,-1.577 2.164,-1.267 2.089,-0.996C1.98,-1.001 1.925,-1.004 1.816,-1.012ZM1.952,-1.189C2.014,-1.32 2.058,-1.433 2.085,-1.527C1.994,-1.532 1.949,-1.535 1.859,-1.542C1.882,-1.42 1.913,-1.303 1.952,-1.189Z" clip-rule="nonzero"/>
                        </clipPath>
                        <g clip-path="url(#_clip8)">
                            <rect x="-7.989" y="-13.305" width="21.001" height="27.64" style="fill:url(#_Linear9);"/>
                        </g>
                    </g>
                    <g transform="matrix(110.501,0,0,-110.501,900.351,1246.66)">
                        <clipPath id="_clip10">
                            <path d="M2.829,-2.287C2.755,-2.077 2.716,-1.972 2.636,-1.762C2.547,-1.765 2.502,-1.767 2.413,-1.772C2.423,-1.934 2.428,-2.102 2.43,-2.275C2.431,-2.424 2.429,-2.578 2.425,-2.736C2.5,-2.731 2.538,-2.728 2.613,-2.724C2.609,-2.547 2.604,-2.355 2.599,-2.149C2.682,-2.373 2.722,-2.485 2.799,-2.71C2.875,-2.711 2.913,-2.712 2.989,-2.714C2.99,-2.675 2.992,-2.636 2.993,-2.597C3.004,-2.309 3.025,-2.023 3.06,-1.741C2.966,-1.738 2.919,-1.737 2.825,-1.736C2.83,-1.924 2.831,-2.108 2.829,-2.287Z" clip-rule="nonzero"/>
                        </clipPath>
                        <g clip-path="url(#_clip10)">
                            <rect x="-8.383" y="-14.589" width="21.946" height="28.884" style="fill:url(#_Linear11);"/>
                        </g>
                    </g>
                    <g transform="matrix(106.084,0,0,-106.084,900.864,1192.48)">
                        <clipPath id="_clip12">
                            <path d="M3.257,-2.361C3.256,-2.672 3.246,-3.003 3.229,-3.356C3.302,-3.353 3.339,-3.352 3.412,-3.35C3.434,-3.013 3.457,-2.682 3.483,-2.356C3.393,-2.358 3.348,-2.359 3.257,-2.361Z" clip-rule="nonzero"/>
                        </clipPath>
                        <g clip-path="url(#_clip12)">
                            <rect x="-8.737" y="-15.707" width="22.859" height="30.086" style="fill:url(#_Linear13);"/>
                        </g>
                    </g>
                    <g transform="matrix(119.081,0,0,-119.081,889.266,1142.89)">
                        <clipPath id="_clip14">
                            <path d="M3.286,-2.704C3.285,-2.708 3.285,-2.712 3.285,-2.717C3.275,-2.854 3.325,-2.957 3.43,-3.026C3.539,-3.097 3.59,-3.167 3.586,-3.232C3.586,-3.234 3.585,-3.235 3.585,-3.238C3.579,-3.298 3.546,-3.326 3.486,-3.322C3.485,-3.322 3.484,-3.322 3.483,-3.322C3.434,-3.317 3.413,-3.267 3.421,-3.17C3.423,-3.149 3.427,-3.125 3.432,-3.098C3.351,-3.097 3.311,-3.096 3.231,-3.096C3.229,-3.112 3.228,-3.128 3.227,-3.144C3.218,-3.271 3.235,-3.361 3.277,-3.413C3.32,-3.466 3.376,-3.496 3.445,-3.503C3.45,-3.503 3.455,-3.503 3.46,-3.503C3.537,-3.507 3.6,-3.49 3.65,-3.452C3.7,-3.415 3.734,-3.365 3.752,-3.302C3.757,-3.284 3.76,-3.267 3.762,-3.25C3.767,-3.205 3.763,-3.162 3.749,-3.12C3.729,-3.062 3.687,-3.013 3.623,-2.975C3.559,-2.936 3.515,-2.897 3.49,-2.857C3.469,-2.822 3.46,-2.785 3.463,-2.747C3.464,-2.741 3.465,-2.734 3.466,-2.728C3.474,-2.683 3.503,-2.662 3.552,-2.667C3.592,-2.671 3.608,-2.711 3.601,-2.787C3.599,-2.803 3.596,-2.821 3.593,-2.84C3.665,-2.843 3.701,-2.845 3.773,-2.849C3.775,-2.833 3.778,-2.818 3.779,-2.803C3.8,-2.622 3.732,-2.521 3.574,-2.506L3.569,-2.506C3.554,-2.504 3.54,-2.504 3.526,-2.504C3.379,-2.504 3.299,-2.572 3.286,-2.704Z" clip-rule="nonzero"/>
                        </clipPath>
                        <g clip-path="url(#_clip14)">
                            <rect x="-7.686" y="-14.409" width="20.364" height="26.802" style="fill:url(#_Linear15);"/>
                        </g>
                    </g>
                    <g transform="matrix(127.064,0,0,-127.064,873.615,1052.07)">
                        <clipPath id="_clip16">
                            <path d="M3.726,-3.6C3.71,-3.729 3.692,-3.859 3.674,-3.99C3.733,-3.993 3.763,-3.995 3.823,-3.999C3.855,-3.77 3.871,-3.655 3.904,-3.426C3.924,-3.66 3.933,-3.776 3.948,-4.01C4.024,-4.016 4.062,-4.019 4.138,-4.027C4.212,-3.825 4.25,-3.723 4.329,-3.522C4.292,-3.75 4.26,-3.943 4.232,-4.101C4.302,-4.108 4.338,-4.113 4.409,-4.122C4.432,-3.971 4.458,-3.823 4.486,-3.678C4.511,-3.547 4.539,-3.418 4.569,-3.291C4.451,-3.267 4.392,-3.255 4.273,-3.234C4.19,-3.455 4.15,-3.566 4.071,-3.788C4.053,-3.532 4.041,-3.404 4.016,-3.148C3.92,-3.136 3.872,-3.131 3.777,-3.122C3.763,-3.279 3.745,-3.439 3.726,-3.6Z" clip-rule="nonzero"/>
                        </clipPath>
                        <g clip-path="url(#_clip16)">
                            <rect x="-7.08" y="-14.218" width="19.085" height="25.119" style="fill:url(#_Linear17);"/>
                        </g>
                    </g>
                    <g transform="matrix(109.405,0,0,-109.405,866.651,962.032)">
                        <clipPath id="_clip18">
                            <path d="M5.343,-5.084C5.275,-5.426 5.346,-5.616 5.555,-5.664C5.764,-5.712 5.91,-5.577 5.993,-5.251C6.077,-4.925 6.014,-4.734 5.802,-4.686C5.767,-4.678 5.734,-4.673 5.702,-4.673C5.518,-4.673 5.398,-4.812 5.343,-5.084ZM5.6,-5.483C5.517,-5.464 5.494,-5.369 5.532,-5.197C5.534,-5.186 5.537,-5.175 5.54,-5.163C5.589,-4.97 5.657,-4.882 5.743,-4.902C5.829,-4.922 5.848,-5.029 5.802,-5.223C5.76,-5.398 5.701,-5.486 5.624,-5.485C5.616,-5.485 5.608,-5.485 5.6,-5.483Z" clip-rule="nonzero"/>
                        </clipPath>
                        <g clip-path="url(#_clip18)">
                            <rect x="-8.159" y="-17.336" width="22.165" height="29.173" style="fill:url(#_Linear19);"/>
                        </g>
                    </g>
                </g>
            </g>
        </g>
    </g>
    <defs>
        <linearGradient id="_Linear3" x1="0" y1="0" x2="1" y2="0" gradientUnits="userSpaceOnUse" gradientTransform="matrix(0,1,1,0,0.0964185,-0.0964185)"><stop offset="0" style="stop-color:rgb(71,197,219);stop-opacity:1"/><stop offset="1" style="stop-color:rgb(255,221,24);stop-opacity:1"/></linearGradient>
        <linearGradient id="_Linear5" x1="0" y1="0" x2="1" y2="0" gradientUnits="userSpaceOnUse" gradientTransform="matrix(0,1,1,0,0.533898,-0.533898)"><stop offset="0" style="stop-color:rgb(71,197,219);stop-opacity:1"/><stop offset="1" style="stop-color:rgb(255,221,24);stop-opacity:1"/></linearGradient>
        <linearGradient id="_Linear7" x1="0" y1="0" x2="1" y2="0" gradientUnits="userSpaceOnUse" gradientTransform="matrix(0,1,1,0,1.25226,-1.25226)"><stop offset="0" style="stop-color:rgb(71,197,219);stop-opacity:1"/><stop offset="1" style="stop-color:rgb(255,221,24);stop-opacity:1"/></linearGradient>
        <linearGradient id="_Linear9" x1="0" y1="0" x2="1" y2="0" gradientUnits="userSpaceOnUse" gradientTransform="matrix(0,1,1,0,1.99629,-1.99629)"><stop offset="0" style="stop-color:rgb(71,197,219);stop-opacity:1"/><stop offset="1" style="stop-color:rgb(255,221,24);stop-opacity:1"/></linearGradient>
        <linearGradient id="_Linear11" x1="0" y1="0" x2="1" y2="0" gradientUnits="userSpaceOnUse" gradientTransform="matrix(0,1,1,0,2.73645,-2.73645)"><stop offset="0" style="stop-color:rgb(71,197,219);stop-opacity:1"/><stop offset="1" style="stop-color:rgb(255,221,24);stop-opacity:1"/></linearGradient>
        <linearGradient id="_Linear13" x1="0" y1="0" x2="1" y2="0" gradientUnits="userSpaceOnUse" gradientTransform="matrix(0,1,1,0,3.35627,-3.35627)"><stop offset="0" style="stop-color:rgb(71,197,219);stop-opacity:1"/><stop offset="1" style="stop-color:rgb(255,221,24);stop-opacity:1"/></linearGradient>
        <linearGradient id="_Linear15" x1="0" y1="0" x2="1" y2="0" gradientUnits="userSpaceOnUse" gradientTransform="matrix(0,1,1,0,3.50378,-3.50378)"><stop offset="0" style="stop-color:rgb(71,197,219);stop-opacity:1"/><stop offset="1" style="stop-color:rgb(255,221,24);stop-opacity:1"/></linearGradient>
        <linearGradient id="_Linear17" x1="0" y1="0" x2="1" y2="0" gradientUnits="userSpaceOnUse" gradientTransform="matrix(0,1,1,0,4.12156,-4.12156)"><stop offset="0" style="stop-color:rgb(71,197,219);stop-opacity:1"/><stop offset="1" style="stop-color:rgb(255,221,24);stop-opacity:1"/></linearGradient>
        <linearGradient id="_Linear19" x1="0" y1="0" x2="1" y2="0" gradientUnits="userSpaceOnUse" gradientTransform="matrix(0,1,1,0,5.67348,-5.67348)"><stop offset="0" style="stop-color:rgb(71,197,219);stop-opacity:1"/><stop offset="1" style="stop-color:rgb(255,221,24);stop-opacity:1"/></linearGradient>
    </defs>
</svg>
