<?xml version="1.0" encoding="UTF-8" standalone="no"?><!DOCTYPE svg PUBLIC "-//W3C//DTD SVG 1.1//EN" "http://www.w3.org/Graphics/SVG/1.1/DTD/svg11.dtd"><svg width="100%" height="100%" viewBox="0 0 489 177" version="1.1" xmlns="http://www.w3.org/2000/svg" xmlns:xlink="http://www.w3.org/1999/xlink" xml:space="preserve" xmlns:serif="http://www.serif.com/" style="fill-rule:evenodd;clip-rule:evenodd;stroke-linejoin:round;stroke-miterlimit:2;"><g><path d="M477.352,176.566l-466.259,0c-6.05,0 -11,-4.95 -11,-11l0,-154.33c0,-6.05 4.95,-11 11,-11l466.259,0c6.05,0 11,4.95 11,11l0,154.33c0,6.05 -4.95,11 -11,11" style="fill:#91d9f8;fill-rule:nonzero;"/><path d="M80.981,6.578c-1.777,-2.095 -4.438,-4.031 -7.066,-3.232c-1.335,0.406 -2.372,1.455 -3.226,2.559c-4.487,5.803 -5.186,14.28 -1.709,20.739c0.117,-4.096 -3.564,-7.913 -7.663,-7.943c-4.098,-0.032 -7.836,3.729 -7.782,7.827c-3.223,-2.832 -7.166,-5.023 -11.437,-5.431c-4.272,-0.408 -8.867,1.207 -11.357,4.7c-2.49,3.494 -2.301,8.874 0.919,11.71c2.313,2.037 5.605,2.496 8.688,2.526c6.882,0.066 13.774,-1.58 19.883,-4.75c-3.482,1.392 -2.983,7.04 0.084,9.197c3.067,2.158 7.185,1.818 10.893,1.257c2.584,-0.39 5.224,-0.868 7.473,-2.199c2.25,-1.33 4.061,-3.698 4.017,-6.311c0.011,4.078 2.634,7.854 6.102,9.997c3.469,2.144 7.664,2.837 11.742,2.787c1.951,-0.024 4,-0.242 5.608,-1.347c4.1,-2.814 2.975,-9.067 1.285,-13.743c0.37,3.706 4.998,5.163 8.72,5.277c4.718,0.145 9.828,-0.615 13.206,-3.912c3.379,-3.297 3.817,-9.762 -0.143,-12.331c-1.566,-1.016 -3.496,-1.272 -5.359,-1.399c-5.595,-0.383 -11.253,0.166 -16.671,1.617c2.088,-5.706 -1.123,-12.794 -6.789,-14.987c-4.077,-1.577 -7.677,-0.25 -11.259,1.718c-1.97,1.082 -2.151,2.89 -4.284,1.867c-1.114,-0.534 -2.884,-5.025 -3.875,-6.193" style="fill:#fff;fill-rule:nonzero;"/><path d="M430.509,54.98c-1.451,-1.711 -3.624,-3.292 -5.77,-2.639c-1.09,0.331 -1.937,1.188 -2.634,2.089c-3.664,4.739 -4.235,11.661 -1.395,16.936c0.095,-3.345 -2.911,-6.462 -6.258,-6.487c-3.346,-0.025 -6.399,3.045 -6.354,6.391c-2.633,-2.312 -5.852,-4.102 -9.34,-4.435c-3.487,-0.333 -7.239,0.986 -9.272,3.839c-2.035,2.853 -1.88,7.245 0.75,9.561c1.888,1.664 4.577,2.038 7.094,2.063c5.619,0.054 11.247,-1.29 16.236,-3.879c-2.843,1.137 -2.437,5.749 0.068,7.511c2.505,1.761 5.867,1.484 8.895,1.026c2.11,-0.319 4.265,-0.709 6.102,-1.795c1.838,-1.087 3.316,-3.02 3.28,-5.154c0.009,3.329 2.151,6.413 4.983,8.163c2.832,1.751 6.259,2.317 9.588,2.276c1.593,-0.02 3.266,-0.198 4.58,-1.1c3.347,-2.298 2.428,-7.404 1.049,-11.222c0.302,3.026 4.081,4.216 7.121,4.309c3.852,0.118 8.025,-0.502 10.783,-3.194c2.759,-2.693 3.116,-7.971 -0.117,-10.07c-1.279,-0.829 -2.855,-1.038 -4.375,-1.142c-4.57,-0.313 -9.19,0.135 -13.614,1.32c1.705,-4.659 -0.917,-10.447 -5.544,-12.237c-3.329,-1.288 -6.269,-0.204 -9.194,1.403c-1.607,0.883 -1.756,2.36 -3.498,1.524c-0.909,-0.436 -2.354,-4.103 -3.164,-5.057" style="fill:#fff;fill-rule:nonzero;"/><path d="M194.587,19.446c-0.95,-1.12 -2.372,-2.155 -3.777,-1.728c-0.714,0.217 -1.268,0.778 -1.724,1.368c-2.399,3.102 -2.773,7.634 -0.914,11.087c0.062,-2.19 -1.906,-4.23 -4.097,-4.247c-2.191,-0.016 -4.189,1.994 -4.16,4.185c-1.723,-1.514 -3.831,-2.686 -6.114,-2.903c-2.283,-0.219 -4.74,0.644 -6.071,2.512c-1.331,1.868 -1.23,4.744 0.491,6.26c1.237,1.089 2.997,1.334 4.645,1.35c3.679,0.036 7.363,-0.844 10.629,-2.539c-1.862,0.744 -1.595,3.763 0.045,4.917c1.639,1.153 3.84,0.971 5.822,0.672c1.382,-0.209 2.793,-0.464 3.996,-1.176c1.203,-0.711 2.171,-1.977 2.147,-3.374c0.006,2.18 1.408,4.199 3.262,5.345c1.854,1.146 4.097,1.516 6.277,1.489c1.043,-0.012 2.138,-0.129 2.999,-0.719c2.191,-1.504 1.59,-4.848 0.687,-7.347c0.197,1.981 2.671,2.76 4.661,2.821c2.522,0.077 5.254,-0.329 7.06,-2.092c1.806,-1.762 2.04,-5.218 -0.077,-6.591c-0.837,-0.544 -1.869,-0.681 -2.865,-0.748c-2.991,-0.206 -6.016,0.088 -8.912,0.864c1.116,-3.051 -0.6,-6.84 -3.629,-8.012c-2.179,-0.843 -4.104,-0.133 -6.019,0.919c-1.053,0.578 -1.15,1.545 -2.29,0.998c-0.596,-0.286 -1.542,-2.686 -2.072,-3.311" style="fill:#fff;fill-rule:nonzero;"/><path d="M298.632,6.614c-0.949,-1.12 -2.372,-2.155 -3.777,-1.728c-0.713,0.217 -1.268,0.778 -1.724,1.368c-2.399,3.103 -2.772,7.634 -0.914,11.088c0.062,-2.19 -1.905,-4.231 -4.097,-4.248c-2.19,-0.016 -4.189,1.994 -4.16,4.185c-1.723,-1.514 -3.831,-2.685 -6.114,-2.903c-2.283,-0.218 -4.739,0.645 -6.07,2.512c-1.332,1.868 -1.231,4.744 0.49,6.26c1.237,1.09 2.997,1.335 4.645,1.35c3.679,0.036 7.364,-0.844 10.629,-2.539c-1.861,0.745 -1.595,3.764 0.045,4.917c1.64,1.154 3.841,0.972 5.822,0.672c1.382,-0.209 2.793,-0.464 3.996,-1.175c1.203,-0.712 2.171,-1.977 2.148,-3.374c0.005,2.179 1.407,4.198 3.262,5.344c1.853,1.146 4.097,1.517 6.276,1.49c1.044,-0.013 2.139,-0.13 2.999,-0.72c2.191,-1.504 1.59,-4.847 0.687,-7.347c0.197,1.981 2.671,2.76 4.661,2.821c2.522,0.077 5.255,-0.328 7.06,-2.091c1.806,-1.763 2.04,-5.219 -0.077,-6.592c-0.837,-0.543 -1.869,-0.68 -2.864,-0.748c-2.991,-0.205 -6.017,0.088 -8.912,0.864c1.116,-3.05 -0.601,-6.839 -3.63,-8.011c-2.179,-0.844 -4.104,-0.134 -6.019,0.918c-1.052,0.578 -1.15,1.545 -2.29,0.998c-0.595,-0.285 -1.542,-2.686 -2.072,-3.311" style="fill:#fff;fill-rule:nonzero;"/><path d="M477.101,176.566l-465.758,0c-6.05,0 -11,-4.95 -11,-11l0,-42.789l487.758,0l0,42.789c0,6.05 -4.95,11 -11,11" style="fill:#9acc5b;fill-rule:nonzero;"/></g></svg>