<svg clip-rule="evenodd" fill-rule="evenodd" stroke-miterlimit="10" viewBox="0 0 369 60" xmlns="http://www.w3.org/2000/svg"><g fill-rule="nonzero"><path d="m354.411 56.322h-339.866c-5.988 0-10.843-4.854-10.843-10.843v-30.907c0-5.989 4.855-10.844 10.843-10.844h339.866c5.988 0 10.843 4.855 10.843 10.844v30.907c0 5.989-4.855 10.843-10.843 10.843z" fill="#fff" stroke="#231f20" stroke-width=".72"/><g fill="#231f20"><path d="m13.515 25.159c-.533 0-1.215-.116-2.046-.349v-1.117c.895.415 1.631.623 2.208.623.444 0 .801-.117 1.071-.349.271-.233.406-.539.406-.919 0-.311-.089-.576-.266-.795-.177-.218-.504-.462-.98-.73l-.548-.317c-.677-.387-1.154-.751-1.432-1.093-.277-.342-.416-.741-.416-1.195 0-.613.222-1.117.666-1.512.444-.396 1.01-.594 1.697-.594.613 0 1.259.102 1.939.306v1.032c-.838-.33-1.462-.494-1.874-.494-.39 0-.713.103-.967.311s-.381.469-.381.784c0 .265.093.5.279.704s.526.447 1.02.73l.57.323c.687.39 1.167.759 1.439 1.106s.408.764.408 1.251c0 .692-.255 1.247-.765 1.666-.51.418-1.186.628-2.028.628z"/><path d="m20.795 24.96v-1.096c-.562.82-1.244 1.23-2.046 1.23-.509 0-.913-.16-1.214-.48-.301-.321-.451-.753-.451-1.297v-4.19h1.058v3.846c0 .437.063.747.19.932.128.184.34.276.637.276.644 0 1.253-.424 1.826-1.273v-3.781h1.058v5.833z"/><path d="m27.185 19.922v5.038h-1.064v-5.038h-.827v-.795h.827v-.698c0-1.389.634-2.084 1.902-2.084.354 0 .757.059 1.208.177v.838c-.476-.147-.857-.22-1.144-.22-.347 0-.584.083-.712.25-.127.166-.19.475-.19.926v.811h1.455v.795z"/><path d="m32.848 24.96v-1.096c-.563.82-1.245 1.23-2.047 1.23-.508 0-.913-.16-1.214-.48-.3-.321-.451-.753-.451-1.297v-4.19h1.058v3.846c0 .437.064.747.191.932.127.184.339.276.636.276.645 0 1.254-.424 1.827-1.273v-3.781h1.058v5.833z"/><path d="m35.261 24.96v-5.833h1.058v1.096c.559-.817 1.243-1.225 2.052-1.225.505 0 .908.161 1.208.481.301.32.451.751.451 1.292v4.189h-1.058v-3.846c0-.433-.063-.742-.19-.926s-.338-.277-.631-.277c-.649 0-1.259.425-1.832 1.273v3.776z"/><path d="m43.599 25.094c-.788 0-1.442-.291-1.961-.875s-.779-1.32-.779-2.208c0-.948.257-1.688.771-2.218s1.231-.795 2.151-.795c.455 0 .963.063 1.526.188v.887c-.598-.176-1.085-.264-1.461-.264-.541 0-.975.204-1.303.61-.327.406-.491.948-.491 1.625 0 .655.168 1.185.505 1.59.336.404.777.606 1.321.606.483 0 .981-.123 1.493-.37v.913c-.684.208-1.275.311-1.772.311z"/><path d="m46.189 24.96v-5.833h1.058v5.833zm0-6.891v-1.058h1.058v1.058z"/><path d="m50.885 25.094c-.834 0-1.5-.276-1.998-.829-.498-.554-.746-1.294-.746-2.221 0-.938.249-1.681.749-2.227.499-.546 1.177-.819 2.033-.819s1.533.273 2.033.819c.499.546.749 1.285.749 2.216 0 .952-.251 1.701-.752 2.245s-1.19.816-2.068.816zm.016-.794c1.121 0 1.682-.756 1.682-2.267 0-1.493-.554-2.24-1.66-2.24-1.103 0-1.654.75-1.654 2.251 0 1.504.544 2.256 1.632 2.256zm-.773-6.231 1.294-1.724h1.225l-1.724 1.724z"/><path d="m54.593 24.96v-5.833h1.058v1.096c.559-.817 1.243-1.225 2.052-1.225.505 0 .908.161 1.208.481.301.32.452.751.452 1.292v4.189h-1.059v-3.846c0-.433-.063-.742-.19-.926s-.338-.277-.631-.277c-.648 0-1.259.425-1.832 1.273v3.776z"/><path d="m67.643 24.772c-.709.215-1.316.322-1.821.322-.859 0-1.56-.285-2.103-.856-.542-.571-.813-1.312-.813-2.221 0-.885.239-1.61.717-2.175.478-.566 1.089-.849 1.834-.849.705 0 1.25.251 1.635.752s.578 1.214.578 2.138l-.006.327h-3.679c.154 1.386.833 2.079 2.036 2.079.44 0 .981-.118 1.622-.355zm-3.61-3.357h2.573c0-1.085-.404-1.627-1.214-1.627-.812 0-1.265.542-1.359 1.627z"/><path d="m70.276 25.094c-.483 0-1.07-.112-1.761-.338v-.972c.691.344 1.292.516 1.804.516.305 0 .557-.083.758-.248.2-.164.301-.37.301-.617 0-.362-.282-.661-.844-.897l-.617-.263c-.914-.38-1.37-.926-1.37-1.639 0-.508.18-.908.54-1.2s.853-.438 1.479-.438c.326 0 .729.045 1.209.135l.22.043v.88c-.591-.175-1.06-.263-1.407-.263-.68 0-1.021.247-1.021.741 0 .319.258.588.774.806l.51.215c.577.243.985.5 1.225.771.24.27.36.608.36 1.012 0 .512-.203.933-.607 1.262-.405.33-.922.494-1.553.494z"/><path d="m79.105 24.96v-1.096c-.43.82-1.078 1.23-1.945 1.23-.701 0-1.254-.256-1.657-.768-.402-.512-.604-1.212-.604-2.1 0-.97.228-1.751.685-2.341.457-.591 1.057-.887 1.802-.887.691 0 1.264.265 1.719.795v-3.314h1.063v8.481zm0-4.442c-.548-.483-1.067-.725-1.558-.725-1.013 0-1.52.775-1.52 2.326 0 1.364.451 2.046 1.354 2.046.587 0 1.162-.32 1.724-.961z"/><path d="m81.518 24.96v-5.833h1.058v5.833zm0-6.891v-1.058h1.058v1.058z"/><path d="m85.478 25.094c-.483 0-1.07-.112-1.761-.338v-.972c.691.344 1.292.516 1.804.516.305 0 .557-.083.758-.248.2-.164.3-.37.3-.617 0-.362-.281-.661-.843-.897l-.618-.263c-.913-.38-1.369-.926-1.369-1.639 0-.508.18-.908.54-1.2.359-.292.853-.438 1.479-.438.326 0 .729.045 1.209.135l.22.043v.88c-.591-.175-1.06-.263-1.407-.263-.68 0-1.021.247-1.021.741 0 .319.258.588.774.806l.51.215c.577.243.985.5 1.225.771.24.27.36.608.36 1.012 0 .512-.203.933-.607 1.262-.405.33-.922.494-1.553.494z"/><path d="m90.524 25.094c-.538 0-.957-.153-1.257-.461-.301-.308-.451-.736-.451-1.284v-3.427h-.731v-.795h.731v-1.058l1.058-.102v1.16h1.525v.795h-1.525v3.234c0 .762.329 1.144.988 1.144.14 0 .31-.024.51-.07v.73c-.326.09-.609.134-.848.134z"/><path d="m92.12 24.96v-5.833h1.059v1.096c.418-.817 1.027-1.225 1.826-1.225.107 0 .22.009.338.027v.988c-.183-.06-.344-.091-.483-.091-.67 0-1.23.398-1.681 1.192v3.846z"/><path d="m95.855 24.96v-5.833h1.058v5.833zm0-6.891v-1.058h1.058v1.058z"/><path d="m98.268 25.025v-8.546h1.059v3.744c.433-.817 1.083-1.225 1.949-1.225.702 0 1.254.256 1.657.768s.604 1.212.604 2.1c0 .967-.228 1.747-.684 2.34-.457.592-1.058.888-1.802.888-.691 0-1.266-.264-1.724-.794l-.129.725zm1.059-1.456c.544.487 1.063.731 1.557.731 1.017 0 1.526-.776 1.526-2.326 0-1.368-.452-2.052-1.354-2.052-.591 0-1.167.321-1.729.962z"/><path d="m108.072 24.96v-1.096c-.562.82-1.244 1.23-2.046 1.23-.508 0-.913-.16-1.214-.48-.301-.321-.451-.753-.451-1.297v-4.19h1.058v3.846c0 .437.064.747.191.932.127.184.339.276.636.276.645 0 1.253-.424 1.826-1.273v-3.781h1.059v5.833z"/><path d="m110.486 24.96v-5.833h1.058v5.833zm0-6.891v-1.058h1.058v1.058z"/><path d="m112.899 24.96v-5.833h1.058v1.096c.419-.817 1.028-1.225 1.826-1.225.108 0 .221.009.339.027v.988c-.183-.06-.344-.091-.484-.091-.669 0-1.23.398-1.681 1.192v3.846z"/><path d="m119.348 16.479h1.058v8.481h-1.058z"/><path d="m124.769 24.219c-.634.584-1.244.875-1.832.875-.483 0-.884-.151-1.203-.453-.318-.303-.478-.685-.478-1.147 0-.637.268-1.127.803-1.469.536-.342 1.303-.513 2.302-.513h.252v-.704c0-.676-.347-1.015-1.042-1.015-.558 0-1.162.172-1.81.516v-.876c.713-.29 1.381-.435 2.004-.435.651 0 1.132.147 1.442.441.309.293.464.75.464 1.369v2.643c0 .605.187.908.559.908.047 0 .115-.008.204-.022l.075.586c-.24.114-.505.171-.795.171-.494 0-.809-.291-.945-.875zm-.156-.575v-1.509l-.354-.011c-.58 0-1.049.11-1.407.331-.359.22-.538.509-.538.867 0 .254.09.469.269.645.179.175.397.263.655.263.441 0 .899-.195 1.375-.586z"/><path d="m131.331 25.094c-.484 0-1.071-.112-1.762-.338v-.972c.691.344 1.292.516 1.805.516.304 0 .556-.083.757-.248.2-.164.301-.37.301-.617 0-.362-.281-.661-.844-.897l-.617-.263c-.913-.38-1.37-.926-1.37-1.639 0-.508.18-.908.54-1.2s.853-.438 1.48-.438c.325 0 .728.045 1.208.135l.22.043v.88c-.59-.175-1.06-.263-1.407-.263-.68 0-1.02.247-1.02.741 0 .319.257.588.773.806l.51.215c.577.243.985.5 1.225.771.24.27.36.608.36 1.012 0 .512-.203.933-.607 1.262-.405.33-.922.494-1.552.494z"/><path d="m137.633 24.219c-.634.584-1.245.875-1.832.875-.483 0-.884-.151-1.203-.453-.319-.303-.478-.685-.478-1.147 0-.637.268-1.127.803-1.469s1.302-.513 2.301-.513h.253v-.704c0-.676-.347-1.015-1.042-1.015-.559 0-1.162.172-1.81.516v-.876c.712-.29 1.38-.435 2.003-.435.652 0 1.133.147 1.442.441.31.293.465.75.465 1.369v2.643c0 .605.186.908.559.908.046 0 .114-.008.204-.022l.075.586c-.24.114-.505.171-.795.171-.494 0-.809-.291-.945-.875zm-.156-.575v-1.509l-.355-.011c-.58 0-1.049.11-1.407.331-.358.22-.537.509-.537.867 0 .254.09.469.269.645.179.175.397.263.655.263.44 0 .899-.195 1.375-.586z"/><path d="m139.933 24.96v-5.833h1.058v1.096c.559-.817 1.243-1.225 2.052-1.225.505 0 .908.161 1.209.481.3.32.451.751.451 1.292v4.189h-1.058v-3.846c0-.433-.064-.742-.191-.926s-.338-.277-.631-.277c-.648 0-1.259.425-1.832 1.273v3.776z"/><path d="m146.015 26.899.123-.918c.613.29 1.216.435 1.811.435 1.192 0 1.788-.632 1.788-1.896v-.919c-.39.817-1.031 1.225-1.923 1.225-.698 0-1.253-.254-1.665-.763-.412-.508-.617-1.194-.617-2.057 0-.888.234-1.611.703-2.17.469-.558 1.076-.838 1.821-.838.652 0 1.212.265 1.681.795v-.666h1.064v4.243c0 .913-.048 1.589-.143 2.028s-.273.798-.534 1.077c-.462.49-1.18.736-2.154.736-.68 0-1.332-.104-1.955-.312zm3.722-3.958v-2.423c-.465-.483-.972-.725-1.52-.725-.487 0-.868.195-1.144.586-.276.39-.414.925-.414 1.606 0 1.278.45 1.917 1.349 1.917.612 0 1.188-.32 1.729-.961z"/><path d="m152.086 24.96v-5.833h1.058v1.096c.419-.817 1.028-1.225 1.826-1.225.108 0 .221.009.339.027v.988c-.183-.06-.344-.091-.484-.091-.669 0-1.23.398-1.681 1.192v3.846z"/><path d="m160.096 24.772c-.709.215-1.316.322-1.821.322-.859 0-1.56-.285-2.103-.856-.542-.571-.813-1.312-.813-2.221 0-.885.239-1.61.717-2.175.478-.566 1.089-.849 1.834-.849.705 0 1.251.251 1.636.752.384.501.577 1.214.577 2.138l-.005.327h-3.68c.154 1.386.833 2.079 2.036 2.079.44 0 .981-.118 1.622-.355zm-3.609-3.357h2.572c0-1.085-.404-1.627-1.213-1.627-.813 0-1.266.542-1.359 1.627z"/><path d="m162.58 27.082v-7.955h1.058v1.096c.433-.817 1.083-1.225 1.95-1.225.702 0 1.254.256 1.657.768s.604 1.212.604 2.1c0 .967-.228 1.747-.685 2.34-.456.592-1.057.888-1.802.888-.691 0-1.265-.264-1.724-.794v2.782zm1.058-3.513c.544.487 1.064.731 1.558.731 1.017 0 1.525-.776 1.525-2.326 0-1.368-.451-2.052-1.353-2.052-.591 0-1.168.321-1.73.962z"/><path d="m171.02 25.094c-.834 0-1.501-.276-1.998-.829-.498-.554-.747-1.294-.747-2.221 0-.938.25-1.681.749-2.227.5-.546 1.178-.819 2.033-.819.856 0 1.534.273 2.033.819.5.546.75 1.285.75 2.216 0 .952-.251 1.701-.752 2.245-.502.544-1.191.816-2.068.816zm.016-.794c1.121 0 1.681-.756 1.681-2.267 0-1.493-.553-2.24-1.66-2.24-1.102 0-1.654.75-1.654 2.251 0 1.504.544 2.256 1.633 2.256z"/><path d="m174.728 24.96v-5.833h1.058v1.096c.419-.817 1.027-1.225 1.826-1.225.107 0 .22.009.338.027v.988c-.182-.06-.343-.091-.483-.091-.67 0-1.23.398-1.681 1.192v3.846z"/><path d="m182.927 25.094c-.537 0-.956-.153-1.256-.461-.301-.308-.452-.736-.452-1.284v-3.427h-.73v-.795h.73v-1.058l1.058-.102v1.16h1.526v.795h-1.526v3.234c0 .762.33 1.144.989 1.144.139 0 .309-.024.51-.07v.73c-.326.09-.609.134-.849.134z"/><path d="m186.807 25.094c-.834 0-1.5-.276-1.998-.829-.498-.554-.747-1.294-.747-2.221 0-.938.25-1.681.75-2.227.499-.546 1.177-.819 2.033-.819.855 0 1.533.273 2.033.819.499.546.749 1.285.749 2.216 0 .952-.251 1.701-.752 2.245s-1.191.816-2.068.816zm.016-.794c1.121 0 1.681-.756 1.681-2.267 0-1.493-.553-2.24-1.659-2.24-1.103 0-1.655.75-1.655 2.251 0 1.504.545 2.256 1.633 2.256z"/><path d="m194.258 24.96v-1.096c-.429.82-1.077 1.23-1.944 1.23-.702 0-1.254-.256-1.657-.768s-.604-1.212-.604-2.1c0-.97.228-1.751.685-2.341.456-.591 1.057-.887 1.802-.887.691 0 1.264.265 1.718.795v-3.314h1.064v8.481zm0-4.442c-.547-.483-1.067-.725-1.557-.725-1.014 0-1.52.775-1.52 2.326 0 1.364.451 2.046 1.353 2.046.588 0 1.162-.32 1.724-.961z"/><path d="m198.954 25.094c-.834 0-1.5-.276-1.998-.829-.497-.554-.746-1.294-.746-2.221 0-.938.25-1.681.749-2.227.5-.546 1.177-.819 2.033-.819s1.534.273 2.033.819c.5.546.749 1.285.749 2.216 0 .952-.25 1.701-.752 2.245-.501.544-1.19.816-2.068.816zm.017-.794c1.12 0 1.681-.756 1.681-2.267 0-1.493-.553-2.24-1.66-2.24-1.103 0-1.654.75-1.654 2.251 0 1.504.544 2.256 1.633 2.256z"/><path d="m204.209 25.094c-.483 0-1.07-.112-1.762-.338v-.972c.692.344 1.293.516 1.805.516.304 0 .557-.083.757-.248.201-.164.301-.37.301-.617 0-.362-.281-.661-.843-.897l-.618-.263c-.913-.38-1.369-.926-1.369-1.639 0-.508.18-.908.539-1.2.36-.292.854-.438 1.48-.438.326 0 .729.045 1.209.135l.22.043v.88c-.591-.175-1.06-.263-1.407-.263-.681 0-1.021.247-1.021.741 0 .319.258.588.774.806l.51.215c.576.243.985.5 1.224.771.24.27.36.608.36 1.012 0 .512-.202.933-.607 1.262-.404.33-.922.494-1.552.494z"/><path d="m209.352 16.479h1.058v8.481h-1.058z"/><path d="m214.048 25.094c-.834 0-1.5-.276-1.998-.829-.498-.554-.746-1.294-.746-2.221 0-.938.249-1.681.749-2.227.499-.546 1.177-.819 2.033-.819s1.533.273 2.033.819c.499.546.749 1.285.749 2.216 0 .952-.251 1.701-.752 2.245s-1.191.816-2.068.816zm.016-.794c1.121 0 1.681-.756 1.681-2.267 0-1.493-.553-2.24-1.659-2.24-1.103 0-1.655.75-1.655 2.251 0 1.504.545 2.256 1.633 2.256z"/><path d="m219.303 25.094c-.484 0-1.071-.112-1.762-.338v-.972c.691.344 1.293.516 1.805.516.304 0 .557-.083.757-.248.201-.164.301-.37.301-.617 0-.362-.281-.661-.843-.897l-.618-.263c-.913-.38-1.37-.926-1.37-1.639 0-.508.18-.908.54-1.2s.853-.438 1.48-.438c.326 0 .729.045 1.208.135l.221.043v.88c-.591-.175-1.06-.263-1.408-.263-.68 0-1.02.247-1.02.741 0 .319.258.588.773.806l.511.215c.576.243.984.5 1.224.771.24.27.36.608.36 1.012 0 .512-.202.933-.607 1.262-.405.33-.922.494-1.552.494z"/><path d="m226.958 25.094c-.834 0-1.501-.276-1.998-.829-.498-.554-.747-1.294-.747-2.221 0-.938.25-1.681.749-2.227.5-.546 1.178-.819 2.033-.819.856 0 1.534.273 2.033.819.5.546.75 1.285.75 2.216 0 .952-.251 1.701-.752 2.245-.502.544-1.191.816-2.068.816zm.016-.794c1.121 0 1.681-.756 1.681-2.267 0-1.493-.553-2.24-1.66-2.24-1.102 0-1.654.75-1.654 2.251 0 1.504.544 2.256 1.633 2.256zm-.774-6.231 1.295-1.724h1.225l-1.725 1.724z"/><path d="m230.666 24.96v-5.833h1.058v1.096c.419-.817 1.027-1.225 1.826-1.225.107 0 .22.009.338.027v.988c-.182-.06-.343-.091-.483-.091-.67 0-1.23.398-1.681 1.192v3.846z"/><path d="m234.422 26.899.123-.918c.613.29 1.216.435 1.81.435 1.193 0 1.789-.632 1.789-1.896v-.919c-.39.817-1.031 1.225-1.923 1.225-.698 0-1.253-.254-1.665-.763-.412-.508-.618-1.194-.618-2.057 0-.888.235-1.611.704-2.17.469-.558 1.076-.838 1.821-.838.651 0 1.212.265 1.681.795v-.666h1.063v4.243c0 .913-.047 1.589-.142 2.028s-.273.798-.534 1.077c-.462.49-1.18.736-2.154.736-.681 0-1.332-.104-1.955-.312zm3.722-3.958v-2.423c-.466-.483-.972-.725-1.52-.725-.487 0-.868.195-1.144.586-.276.39-.414.925-.414 1.606 0 1.278.45 1.917 1.348 1.917.613 0 1.189-.32 1.73-.961z"/><path d="m243.501 24.219c-.634.584-1.245.875-1.832.875-.483 0-.884-.151-1.203-.453-.319-.303-.478-.685-.478-1.147 0-.637.268-1.127.803-1.469s1.302-.513 2.301-.513h.253v-.704c0-.676-.347-1.015-1.042-1.015-.559 0-1.162.172-1.81.516v-.876c.712-.29 1.38-.435 2.003-.435.652 0 1.133.147 1.442.441.31.293.465.75.465 1.369v2.643c0 .605.186.908.559.908.046 0 .114-.008.204-.022l.075.586c-.24.114-.505.171-.795.171-.494 0-.809-.291-.945-.875zm-.156-.575v-1.509l-.355-.011c-.58 0-1.049.11-1.407.331-.358.22-.537.509-.537.867 0 .254.09.469.269.645.179.175.397.263.655.263.44 0 .899-.195 1.375-.586z"/><path d="m245.801 24.96v-5.833h1.058v1.096c.559-.817 1.243-1.225 2.052-1.225.505 0 .908.161 1.209.481.3.32.451.751.451 1.292v4.189h-1.058v-3.846c0-.433-.064-.742-.191-.926s-.338-.277-.631-.277c-.648 0-1.259.425-1.832 1.273v3.776z"/><path d="m254.144 25.094c-.834 0-1.5-.276-1.998-.829-.498-.554-.746-1.294-.746-2.221 0-.938.249-1.681.749-2.227.499-.546 1.177-.819 2.033-.819s1.533.273 2.033.819c.499.546.749 1.285.749 2.216 0 .952-.251 1.701-.752 2.245s-1.191.816-2.068.816zm.016-.794c1.121 0 1.681-.756 1.681-2.267 0-1.493-.553-2.24-1.659-2.24-1.103 0-1.655.75-1.655 2.251 0 1.504.545 2.256 1.633 2.256z"/><path d="m259.399 25.094c-.484 0-1.071-.112-1.762-.338v-.972c.691.344 1.293.516 1.805.516.304 0 .557-.083.757-.248.201-.164.301-.37.301-.617 0-.362-.281-.661-.843-.897l-.618-.263c-.913-.38-1.37-.926-1.37-1.639 0-.508.18-.908.54-1.2s.853-.438 1.48-.438c.326 0 .729.045 1.208.135l.221.043v.88c-.591-.175-1.06-.263-1.408-.263-.68 0-1.02.247-1.02.741 0 .319.258.588.773.806l.511.215c.576.243.984.5 1.224.771.24.27.36.608.36 1.012 0 .512-.202.933-.607 1.262-.405.33-.922.494-1.552.494z"/><path d="m264.846 27.082.945-2.122-2.256-5.833h1.144l1.67 4.394 1.784-4.394h.999l-3.185 7.955z"/><path d="m273.953 25.094c-.537 0-.956-.153-1.257-.461s-.451-.736-.451-1.284v-3.427h-.73v-.795h.73v-1.058l1.058-.102v1.16h1.526v.795h-1.526v3.234c0 .762.33 1.144.988 1.144.14 0 .31-.024.511-.07v.73c-.326.09-.609.134-.849.134z"/><path d="m279.825 24.772c-.709.215-1.316.322-1.82.322-.86 0-1.561-.285-2.103-.856-.543-.571-.814-1.312-.814-2.221 0-.885.239-1.61.717-2.175.478-.566 1.09-.849 1.834-.849.706 0 1.251.251 1.636.752s.577 1.214.577 2.138l-.005.327h-3.679c.154 1.386.832 2.079 2.035 2.079.441 0 .981-.118 1.622-.355zm-3.609-3.357h2.573c0-1.085-.405-1.627-1.214-1.627-.813 0-1.266.542-1.359 1.627z"/><path d="m279.027 26.942v-.838c.494.208.87.312 1.128.312.372 0 .619-.097.741-.29.122-.194.183-.582.183-1.166v-5.833h1.063v5.833c0 1.501-.634 2.251-1.901 2.251-.376 0-.781-.09-1.214-.269zm2.052-8.873v-1.058h1.063v1.058z"/><path d="m283.492 24.96v-5.833h1.058v5.833zm0-6.891v-1.058h1.058v1.058z"/><path d="m289.649 24.96v-1.096c-.43.82-1.078 1.23-1.944 1.23-.702 0-1.255-.256-1.657-.768-.403-.512-.605-1.212-.605-2.1 0-.97.229-1.751.685-2.341.457-.591 1.057-.887 1.802-.887.691 0 1.264.265 1.719.795v-3.314h1.063v8.481zm0-4.442c-.548-.483-1.067-.725-1.558-.725-1.013 0-1.52.775-1.52 2.326 0 1.364.451 2.046 1.354 2.046.587 0 1.162-.32 1.724-.961z"/><path d="m294.345 25.094c-.834 0-1.5-.276-1.998-.829-.498-.554-.747-1.294-.747-2.221 0-.938.25-1.681.75-2.227.499-.546 1.177-.819 2.033-.819.855 0 1.533.273 2.033.819.499.546.749 1.285.749 2.216 0 .952-.251 1.701-.752 2.245s-1.191.816-2.068.816zm.016-.794c1.121 0 1.681-.756 1.681-2.267 0-1.493-.553-2.24-1.659-2.24-1.103 0-1.655.75-1.655 2.251 0 1.504.545 2.256 1.633 2.256z"/><path d="m299.6 25.094c-.484 0-1.071-.112-1.762-.338v-.972c.691.344 1.293.516 1.805.516.304 0 .556-.083.757-.248.2-.164.301-.37.301-.617 0-.362-.281-.661-.844-.897l-.617-.263c-.913-.38-1.37-.926-1.37-1.639 0-.508.18-.908.54-1.2s.853-.438 1.48-.438c.326 0 .728.045 1.208.135l.22.043v.88c-.59-.175-1.06-.263-1.407-.263-.68 0-1.02.247-1.02.741 0 .319.257.588.773.806l.51.215c.577.243.985.5 1.225.771.24.27.36.608.36 1.012 0 .512-.203.933-.607 1.262-.405.33-.922.494-1.552.494z"/><path d="m309.352 24.96v-1.096c-.43.82-1.078 1.23-1.945 1.23-.702 0-1.254-.256-1.657-.768s-.604-1.212-.604-2.1c0-.97.228-1.751.685-2.341.456-.591 1.057-.887 1.802-.887.691 0 1.264.265 1.719.795v-3.314h1.063v8.481zm0-4.442c-.548-.483-1.067-.725-1.558-.725-1.013 0-1.52.775-1.52 2.326 0 1.364.451 2.046 1.353 2.046.588 0 1.162-.32 1.725-.961z"/><path d="m316.04 24.772c-.709.215-1.316.322-1.82.322-.86 0-1.561-.285-2.103-.856-.543-.571-.814-1.312-.814-2.221 0-.885.239-1.61.717-2.175.478-.566 1.09-.849 1.834-.849.706 0 1.251.251 1.636.752s.577 1.214.577 2.138l-.005.327h-3.679c.154 1.386.832 2.079 2.035 2.079.441 0 .981-.118 1.622-.355zm-3.609-3.357h2.573c0-1.085-.405-1.627-1.214-1.627-.813 0-1.266.542-1.359 1.627z"/><path d="m317.127 16.479h1.058v8.481h-1.058z"/><path d="m324.532 25.094c-.788 0-1.441-.291-1.961-.875-.519-.584-.778-1.32-.778-2.208 0-.948.257-1.688.77-2.218.514-.53 1.231-.795 2.151-.795.455 0 .964.063 1.526.188v.887c-.598-.176-1.085-.264-1.461-.264-.541 0-.975.204-1.303.61-.327.406-.491.948-.491 1.625 0 .655.168 1.185.505 1.59.336.404.777.606 1.321.606.484 0 .981-.123 1.493-.37v.913c-.684.208-1.274.311-1.772.311z"/><path d="m330.769 24.96v-1.096c-.562.82-1.244 1.23-2.046 1.23-.508 0-.913-.16-1.214-.48-.301-.321-.451-.753-.451-1.297v-4.19h1.058v3.846c0 .437.064.747.191.932.127.184.339.276.636.276.645 0 1.253-.424 1.826-1.273v-3.781h1.059v5.833z"/><path d="m337.458 24.772c-.709.215-1.316.322-1.821.322-.859 0-1.56-.285-2.102-.856-.543-.571-.814-1.312-.814-2.221 0-.885.239-1.61.717-2.175.478-.566 1.089-.849 1.834-.849.706 0 1.251.251 1.636.752s.577 1.214.577 2.138l-.005.327h-3.68c.154 1.386.833 2.079 2.036 2.079.441 0 .981-.118 1.622-.355zm-3.609-3.357h2.573c0-1.085-.405-1.627-1.214-1.627-.813 0-1.266.542-1.359 1.627z"/><path d="m338.545 24.96v-5.833h1.058v1.096c.419-.817 1.028-1.225 1.826-1.225.108 0 .22.009.338.027v.988c-.182-.06-.343-.091-.483-.091-.669 0-1.23.398-1.681 1.192v3.846z"/><path d="m342.279 27.082v-7.955h1.059v1.096c.433-.817 1.083-1.225 1.949-1.225.702 0 1.254.256 1.657.768s.605 1.212.605 2.1c0 .967-.229 1.747-.685 2.34-.457.592-1.058.888-1.802.888-.691 0-1.266-.264-1.724-.794v2.782zm1.059-3.513c.544.487 1.063.731 1.557.731 1.017 0 1.526-.776 1.526-2.326 0-1.368-.452-2.052-1.354-2.052-.591 0-1.167.321-1.729.962z"/><path d="m350.719 25.094c-.834 0-1.5-.276-1.998-.829-.498-.554-.746-1.294-.746-2.221 0-.938.249-1.681.749-2.227.499-.546 1.177-.819 2.033-.819s1.533.273 2.033.819c.499.546.749 1.285.749 2.216 0 .952-.251 1.701-.752 2.245s-1.191.816-2.068.816zm.016-.794c1.121 0 1.681-.756 1.681-2.267 0-1.493-.553-2.24-1.659-2.24-1.103 0-1.655.75-1.655 2.251 0 1.504.545 2.256 1.633 2.256z"/><path d="m354.443 23.634h1.327v1.327h-1.327z"/><path d="m11.958 35.96v-7.949h4.442v.843h-3.314v2.552h2.777v.832h-2.777v2.879h3.545v.843z"/><path d="m18.776 36.094c-.483 0-1.07-.112-1.761-.338v-.972c.691.344 1.292.516 1.804.516.305 0 .557-.083.758-.248.2-.164.3-.37.3-.617 0-.362-.281-.661-.843-.897l-.618-.263c-.913-.38-1.369-.926-1.369-1.639 0-.508.18-.908.54-1.2.359-.292.853-.438 1.479-.438.326 0 .729.045 1.209.135l.22.043v.88c-.591-.175-1.06-.263-1.407-.263-.681 0-1.021.247-1.021.741 0 .319.258.588.774.806l.51.215c.576.243.985.5 1.225.771.239.27.359.608.359 1.012 0 .512-.202.933-.607 1.262-.404.33-.922.494-1.552.494z"/><path d="m23.865 36.094c-.537 0-.956-.153-1.257-.461-.3-.308-.451-.736-.451-1.284v-3.427h-.73v-.795h.73v-1.058l1.058-.102v1.16h1.526v.795h-1.526v3.234c0 .762.33 1.144.989 1.144.139 0 .309-.024.51-.07v.73c-.326.09-.609.134-.849.134z"/><path d="m28.514 35.219c-.634.584-1.245.875-1.832.875-.483 0-.884-.151-1.203-.453-.319-.303-.478-.685-.478-1.147 0-.637.268-1.127.803-1.469s1.302-.513 2.301-.513h.253v-.704c0-.676-.348-1.015-1.042-1.015-.559 0-1.162.172-1.81.516v-.876c.712-.29 1.38-.435 2.003-.435.652 0 1.133.147 1.442.441.31.293.465.75.465 1.369v2.643c0 .605.186.908.559.908.046 0 .114-.008.204-.022l.075.586c-.24.114-.505.171-.795.171-.494 0-.809-.291-.945-.875zm-.156-.575v-1.509l-.355-.011c-.58 0-1.049.11-1.407.331-.358.22-.537.509-.537.867 0 .254.09.469.269.645.179.175.397.263.655.263.44 0 .899-.195 1.375-.586zm-1.622-5.575 1.294-1.724h1.225l-1.724 1.724z"/><path d="m35.31 36.094c-.787 0-1.441-.291-1.96-.875s-.779-1.32-.779-2.208c0-.948.257-1.688.771-2.218s1.231-.795 2.151-.795c.455 0 .963.063 1.525.188v.887c-.598-.176-1.085-.264-1.46-.264-.541 0-.975.204-1.303.61s-.491.948-.491 1.625c0 .655.168 1.185.504 1.59.337.404.777.606 1.322.606.483 0 .981-.123 1.493-.37v.913c-.684.208-1.275.311-1.773.311z"/><path d="m40.227 36.094c-.834 0-1.5-.276-1.998-.829-.497-.554-.746-1.294-.746-2.221 0-.938.25-1.681.749-2.227.5-.546 1.177-.819 2.033-.819s1.533.273 2.033.819.749 1.285.749 2.216c0 .952-.25 1.701-.752 2.245-.501.544-1.19.816-2.068.816zm.017-.794c1.12 0 1.681-.756 1.681-2.267 0-1.493-.554-2.24-1.66-2.24-1.103 0-1.654.75-1.654 2.251 0 1.504.544 2.256 1.633 2.256z"/><path d="m43.979 35.96v-5.833h1.058v1.096c.559-.817 1.243-1.225 2.052-1.225.505 0 .908.161 1.208.481.301.32.451.751.451 1.292v4.189h-1.058v-3.846c0-.433-.063-.742-.19-.926s-.338-.277-.631-.277c-.649 0-1.259.425-1.832 1.273v3.776z"/><path d="m51.345 30.922v5.038h-1.063v-5.038h-.827v-.795h.827v-.698c0-1.389.633-2.084 1.901-2.084.355 0 .757.059 1.209.177v.838c-.477-.147-.858-.22-1.145-.22-.347 0-.584.083-.711.25-.127.166-.191.475-.191.926v.811h1.456v.795z"/><path d="m55.687 36.094c-.834 0-1.5-.276-1.998-.829-.497-.554-.746-1.294-.746-2.221 0-.938.25-1.681.749-2.227.5-.546 1.177-.819 2.033-.819s1.533.273 2.033.819.749 1.285.749 2.216c0 .952-.25 1.701-.752 2.245-.501.544-1.19.816-2.068.816zm.017-.794c1.12 0 1.681-.756 1.681-2.267 0-1.493-.554-2.24-1.66-2.24-1.103 0-1.654.75-1.654 2.251 0 1.504.544 2.256 1.633 2.256z"/><path d="m59.439 35.96v-5.833h1.058v1.096c.419-.817 1.028-1.225 1.826-1.225.108 0 .22.009.339.027v.988c-.183-.06-.344-.091-.484-.091-.669 0-1.23.398-1.681 1.192v3.846z"/><path d="m63.217 35.96v-5.833h1.058v1.096c.516-.817 1.178-1.225 1.988-1.225.78 0 1.312.408 1.595 1.225.501-.82 1.153-1.23 1.955-1.23.516 0 .915.151 1.198.454.283.302.424.726.424 1.27v4.243h-1.063v-4.076c0-.666-.264-.999-.79-.999-.548 0-1.123.388-1.724 1.165v3.91h-1.064v-4.076c0-.67-.268-1.005-.805-1.005-.534 0-1.105.39-1.714 1.171v3.91z"/><path d="m75.772 35.219c-.634.584-1.244.875-1.832.875-.483 0-.884-.151-1.203-.453-.318-.303-.478-.685-.478-1.147 0-.637.268-1.127.803-1.469.536-.342 1.303-.513 2.302-.513h.252v-.704c0-.676-.347-1.015-1.042-1.015-.558 0-1.162.172-1.81.516v-.876c.713-.29 1.381-.435 2.004-.435.651 0 1.132.147 1.442.441.309.293.464.75.464 1.369v2.643c0 .605.186.908.559.908.046 0 .114-.008.204-.022l.075.586c-.24.114-.505.171-.795.171-.494 0-.809-.291-.945-.875zm-.156-.575v-1.509l-.354-.011c-.58 0-1.049.11-1.408.331-.358.22-.537.509-.537.867 0 .254.09.469.269.645.179.175.397.263.655.263.441 0 .899-.195 1.375-.586z"/><path d="m81.86 35.96v-1.096c-.43.82-1.078 1.23-1.944 1.23-.702 0-1.255-.256-1.657-.768-.403-.512-.605-1.212-.605-2.1 0-.97.229-1.751.685-2.341.457-.591 1.057-.887 1.802-.887.691 0 1.264.265 1.719.795v-3.314h1.063v8.481zm0-4.442c-.548-.483-1.067-.725-1.558-.725-1.013 0-1.52.775-1.52 2.326 0 1.364.451 2.046 1.354 2.046.587 0 1.162-.32 1.724-.961z"/><path d="m86.6 36.094c-.835 0-1.501-.276-1.998-.829-.498-.554-.747-1.294-.747-2.221 0-.938.25-1.681.749-2.227.5-.546 1.177-.819 2.033-.819s1.534.273 2.033.819c.5.546.749 1.285.749 2.216 0 .952-.25 1.701-.752 2.245-.501.544-1.19.816-2.067.816zm.016-.794c1.12 0 1.681-.756 1.681-2.267 0-1.493-.553-2.24-1.66-2.24-1.103 0-1.654.75-1.654 2.251 0 1.504.544 2.256 1.633 2.256z"/><path d="m91.839 38.082v-7.955h1.058v1.096c.433-.817 1.083-1.225 1.95-1.225.702 0 1.254.256 1.657.768s.604 1.212.604 2.1c0 .967-.228 1.747-.685 2.34-.456.592-1.057.888-1.802.888-.691 0-1.265-.264-1.724-.794v2.782zm1.058-3.513c.544.487 1.064.731 1.558.731 1.017 0 1.525-.776 1.525-2.326 0-1.368-.451-2.052-1.353-2.052-.591 0-1.168.321-1.73.962z"/><path d="m100.323 36.094c-.835 0-1.501-.276-1.999-.829-.497-.554-.746-1.294-.746-2.221 0-.938.25-1.681.749-2.227.5-.546 1.177-.819 2.033-.819s1.534.273 2.033.819c.5.546.749 1.285.749 2.216 0 .952-.25 1.701-.752 2.245-.501.544-1.19.816-2.067.816zm.016-.794c1.12 0 1.681-.756 1.681-2.267 0-1.493-.553-2.24-1.66-2.24-1.103 0-1.654.75-1.654 2.251 0 1.504.544 2.256 1.633 2.256z"/><path d="m104.074 35.96v-5.833h1.058v1.096c.419-.817 1.028-1.225 1.826-1.225.108 0 .22.009.339.027v.988c-.183-.06-.344-.091-.484-.091-.669 0-1.23.398-1.681 1.192v3.846z"/><path d="m114.341 35.772c-.708.215-1.315.322-1.82.322-.86 0-1.561-.285-2.103-.856-.543-.571-.814-1.312-.814-2.221 0-.885.239-1.61.717-2.175.478-.566 1.09-.849 1.834-.849.706 0 1.251.251 1.636.752s.577 1.214.577 2.138l-.005.327h-3.679c.154 1.386.832 2.079 2.035 2.079.441 0 .982-.118 1.622-.355zm-3.609-3.357h2.573c0-1.085-.405-1.627-1.214-1.627-.813 0-1.266.542-1.359 1.627z"/><path d="m115.472 27.479h1.058v8.481h-1.058z"/><path d="m123.924 34.794c-.264.11-.605.209-1.067.209-.924 0-1.639-.627-1.639-1.727-.011-.979.605-1.738 1.639-1.738.484 0 .803.099 1.023.209l.242-1.023c-.308-.132-.814-.242-1.309-.242-1.881 0-2.981 1.243-2.981 2.849 0 1.661 1.089 2.739 2.761 2.739.671 0 1.232-.143 1.518-.275z"/><path d="m126.721 30.482c-1.617 0-2.772 1.078-2.772 2.838 0 1.727 1.177 2.761 2.684 2.761 1.364 0 2.75-.88 2.75-2.849 0-1.628-1.067-2.75-2.662-2.75zm-.033.979c.924 0 1.298.968 1.298 1.804 0 1.089-.539 1.837-1.309 1.837-.814 0-1.331-.781-1.331-1.815 0-.891.385-1.826 1.342-1.826z"/><path d="m129.772 35.96h1.353v-2.783c0-.143.011-.286.033-.407.121-.616.572-1.023 1.21-1.023.165 0 .286.011.407.033v-1.265c-.11-.022-.187-.033-.319-.033-.583 0-1.21.385-1.474 1.133h-.033l-.055-1.012h-1.166c.033.473.044 1.001.044 1.727z"/><path d="m137.024 32.748c0-1.177-.495-2.266-2.211-2.266-.847 0-1.54.231-1.936.473l.264.88c.363-.231.913-.396 1.441-.396.946 0 1.089.583 1.089.935v.088c-1.98-.011-3.179.682-3.179 2.024 0 .814.605 1.595 1.683 1.595.704 0 1.265-.297 1.584-.715h.033l.099.594h1.221c-.066-.33-.088-.803-.088-1.287zm-1.32 1.331c0 .099 0 .198-.033.297-.132.385-.517.737-1.067.737-.429 0-.77-.242-.77-.77 0-.814.913-1.012 1.87-1.001z"/><path d="m137.225 35.96h4.51v-1.078h-2.816v-.022c.275-.286.528-.594.792-.913l1.958-2.519v-.825h-4.246v1.078h2.596v.022c-.275.308-.506.572-.781.902l-2.013 2.574z"/><path d="m144.313 30.482c-1.617 0-2.772 1.078-2.772 2.838 0 1.727 1.177 2.761 2.684 2.761 1.364 0 2.75-.88 2.75-2.849 0-1.628-1.067-2.75-2.662-2.75zm-.033.979c.924 0 1.298.968 1.298 1.804 0 1.089-.539 1.837-1.309 1.837-.814 0-1.331-.781-1.331-1.815 0-.891.385-1.826 1.342-1.826zm.264-3.179-.957 1.628h.935l1.342-1.628z"/><path d="m147.363 35.96h1.353v-3.157c0-.154.022-.319.066-.429.143-.407.517-.792 1.056-.792.737 0 1.023.583 1.023 1.353v3.025h1.353v-3.179c0-1.694-.968-2.299-1.903-2.299-.891 0-1.474.506-1.716.924h-.033l-.066-.803h-1.177c.022.462.044.979.044 1.595z"/><path d="m160.993 38.082.946-2.122-2.256-5.833h1.144l1.67 4.394 1.784-4.394h.999l-3.185 7.955z"/><path d="m168.616 27.479h1.058v8.481h-1.058z"/><path d="m173.355 36.094c-.834 0-1.5-.276-1.998-.829-.497-.554-.746-1.294-.746-2.221 0-.938.25-1.681.749-2.227.5-.546 1.177-.819 2.033-.819s1.533.273 2.033.819.749 1.285.749 2.216c0 .952-.25 1.701-.752 2.245-.501.544-1.19.816-2.068.816zm.017-.794c1.12 0 1.681-.756 1.681-2.267 0-1.493-.554-2.24-1.66-2.24-1.103 0-1.654.75-1.654 2.251 0 1.504.544 2.256 1.633 2.256z"/><path d="m178.654 36.094c-.484 0-1.071-.112-1.762-.338v-.972c.691.344 1.293.516 1.805.516.304 0 .557-.083.757-.248.201-.164.301-.37.301-.617 0-.362-.281-.661-.843-.897l-.618-.263c-.913-.38-1.37-.926-1.37-1.639 0-.508.18-.908.54-1.2s.853-.438 1.48-.438c.326 0 .729.045 1.208.135l.221.043v.88c-.591-.175-1.06-.263-1.408-.263-.68 0-1.02.247-1.02.741 0 .319.258.588.773.806l.51.215c.577.243.985.5 1.225.771.24.27.36.608.36 1.012 0 .512-.202.933-.607 1.262-.405.33-.922.494-1.552.494z"/><path d="m184.7 35.96-2.17-5.833h1.058l1.697 4.539 1.789-4.539h.988l-2.304 5.833z"/><path d="m191.47 35.219c-.634.584-1.245.875-1.832.875-.483 0-.884-.151-1.203-.453-.319-.303-.478-.685-.478-1.147 0-.637.268-1.127.803-1.469s1.302-.513 2.301-.513h.253v-.704c0-.676-.347-1.015-1.042-1.015-.559 0-1.162.172-1.81.516v-.876c.712-.29 1.38-.435 2.003-.435.652 0 1.133.147 1.442.441.31.293.465.75.465 1.369v2.643c0 .605.186.908.559.908.046 0 .114-.008.204-.022l.075.586c-.24.114-.505.171-.795.171-.494 0-.809-.291-.945-.875zm-.156-.575v-1.509l-.355-.011c-.58 0-1.049.11-1.407.331-.358.22-.537.509-.537.867 0 .254.09.469.269.645.179.175.397.263.655.263.44 0 .899-.195 1.375-.586z"/><path d="m195.361 36.094c-.484 0-1.071-.112-1.762-.338v-.972c.691.344 1.293.516 1.805.516.304 0 .557-.083.757-.248.201-.164.301-.37.301-.617 0-.362-.281-.661-.843-.897l-.618-.263c-.913-.38-1.37-.926-1.37-1.639 0-.508.18-.908.54-1.2s.853-.438 1.48-.438c.326 0 .728.045 1.208.135l.221.043v.88c-.591-.175-1.06-.263-1.408-.263-.68 0-1.02.247-1.02.741 0 .319.258.588.773.806l.51.215c.577.243.985.5 1.225.771.24.27.36.608.36 1.012 0 .512-.202.933-.607 1.262-.405.33-.922.494-1.552.494z"/><path d="m200.981 36.094c-.834 0-1.5-.276-1.998-.829-.497-.554-.746-1.294-.746-2.221 0-.938.249-1.681.749-2.227s1.177-.819 2.033-.819 1.533.273 2.033.819c.499.546.749 1.285.749 2.216 0 .952-.25 1.701-.752 2.245-.501.544-1.19.816-2.068.816zm.016-.794c1.121 0 1.682-.756 1.682-2.267 0-1.493-.554-2.24-1.66-2.24-1.103 0-1.654.75-1.654 2.251 0 1.504.544 2.256 1.632 2.256z"/><path d="m206.28 36.094c-.484 0-1.071-.112-1.762-.338v-.972c.691.344 1.293.516 1.805.516.304 0 .556-.083.757-.248.201-.164.301-.37.301-.617 0-.362-.281-.661-.843-.897l-.618-.263c-.913-.38-1.37-.926-1.37-1.639 0-.508.18-.908.54-1.2s.853-.438 1.48-.438c.326 0 .728.045 1.208.135l.22.043v.88c-.59-.175-1.059-.263-1.407-.263-.68 0-1.02.247-1.02.741 0 .319.258.588.773.806l.51.215c.577.243.985.5 1.225.771.24.27.36.608.36 1.012 0 .512-.202.933-.607 1.262-.405.33-.922.494-1.552.494z"/><path d="m212.671 36.094c-.483 0-1.071-.112-1.762-.338v-.972c.691.344 1.293.516 1.805.516.304 0 .557-.083.757-.248.201-.164.301-.37.301-.617 0-.362-.281-.661-.843-.897l-.618-.263c-.913-.38-1.369-.926-1.369-1.639 0-.508.18-.908.539-1.2.36-.292.853-.438 1.48-.438.326 0 .729.045 1.209.135l.22.043v.88c-.591-.175-1.06-.263-1.407-.263-.681 0-1.021.247-1.021.741 0 .319.258.588.774.806l.51.215c.576.243.984.5 1.224.771.24.27.36.608.36 1.012 0 .512-.202.933-.607 1.262-.404.33-.922.494-1.552.494z"/><path d="m219.017 35.219c-.634.584-1.245.875-1.832.875-.483 0-.884-.151-1.203-.453-.319-.303-.478-.685-.478-1.147 0-.637.268-1.127.803-1.469s1.303-.513 2.302-.513h.252v-.704c0-.676-.347-1.015-1.042-1.015-.559 0-1.162.172-1.81.516v-.876c.713-.29 1.38-.435 2.003-.435.652 0 1.133.147 1.443.441.309.293.464.75.464 1.369v2.643c0 .605.186.908.559.908.046 0 .114-.008.204-.022l.075.586c-.24.114-.505.171-.795.171-.494 0-.809-.291-.945-.875zm-.156-.575v-1.509l-.354-.011c-.581 0-1.05.11-1.408.331-.358.22-.537.509-.537.867 0 .254.09.469.269.645.179.175.397.263.655.263.44 0 .899-.195 1.375-.586z"/><path d="m221.361 35.96v-5.833h1.058v1.096c.559-.817 1.243-1.225 2.052-1.225.505 0 .908.161 1.208.481.301.32.452.751.452 1.292v4.189h-1.059v-3.846c0-.433-.063-.742-.19-.926s-.338-.277-.631-.277c-.648 0-1.259.425-1.832 1.273v3.776z"/><path d="m227.487 37.899.123-.918c.612.29 1.216.435 1.81.435 1.193 0 1.789-.632 1.789-1.896v-.919c-.391.817-1.032 1.225-1.923 1.225-.698 0-1.253-.254-1.665-.763-.412-.508-.618-1.194-.618-2.057 0-.888.235-1.611.704-2.17.469-.558 1.076-.838 1.821-.838.651 0 1.212.265 1.681.795v-.666h1.063v4.243c0 .913-.047 1.589-.142 2.028s-.273.798-.535 1.077c-.461.49-1.179.736-2.153.736-.681 0-1.332-.104-1.955-.312zm3.722-3.958v-2.423c-.466-.483-.972-.725-1.52-.725-.487 0-.869.195-1.144.586-.276.39-.414.925-.414 1.606 0 1.278.449 1.917 1.348 1.917.613 0 1.189-.32 1.73-.961z"/><path d="m237.248 35.96v-1.096c-.562.82-1.244 1.23-2.046 1.23-.509 0-.913-.16-1.214-.48-.301-.321-.451-.753-.451-1.297v-4.19h1.058v3.846c0 .437.064.747.191.932.127.184.339.276.636.276.645 0 1.253-.424 1.826-1.273v-3.781h1.058v5.833z"/><path d="m239.705 35.96v-5.833h1.058v5.833zm-.241-6.891 1.294-1.724h1.225l-1.724 1.724z"/><path d="m242.162 35.96v-5.833h1.058v1.096c.559-.817 1.243-1.225 2.052-1.225.505 0 .908.161 1.209.481.3.32.451.751.451 1.292v4.189h-1.058v-3.846c0-.433-.064-.742-.191-.926s-.337-.277-.631-.277c-.648 0-1.259.425-1.832 1.273v3.776z"/><path d="m252.542 35.772c-.709.215-1.316.322-1.821.322-.859 0-1.56-.285-2.103-.856-.542-.571-.814-1.312-.814-2.221 0-.885.239-1.61.717-2.175.479-.566 1.09-.849 1.835-.849.705 0 1.25.251 1.635.752s.578 1.214.578 2.138l-.006.327h-3.679c.154 1.386.833 2.079 2.036 2.079.44 0 .981-.118 1.622-.355zm-3.61-3.357h2.573c0-1.085-.404-1.627-1.214-1.627-.813 0-1.266.542-1.359 1.627z"/><path d="m255.955 36.094c-.834 0-1.5-.276-1.998-.829-.498-.554-.747-1.294-.747-2.221 0-.938.25-1.681.749-2.227.5-.546 1.178-.819 2.033-.819.856 0 1.534.273 2.033.819.5.546.75 1.285.75 2.216 0 .952-.251 1.701-.752 2.245-.502.544-1.191.816-2.068.816zm.016-.794c1.121 0 1.681-.756 1.681-2.267 0-1.493-.553-2.24-1.66-2.24-1.102 0-1.654.75-1.654 2.251 0 1.504.544 2.256 1.633 2.256z"/><path d="m261.253 36.094c-.483 0-1.07-.112-1.762-.338v-.972c.692.344 1.293.516 1.805.516.305 0 .557-.083.758-.248.2-.164.3-.37.3-.617 0-.362-.281-.661-.843-.897l-.618-.263c-.913-.38-1.369-.926-1.369-1.639 0-.508.18-.908.54-1.2.359-.292.853-.438 1.479-.438.326 0 .729.045 1.209.135l.22.043v.88c-.591-.175-1.06-.263-1.407-.263-.681 0-1.021.247-1.021.741 0 .319.258.588.774.806l.51.215c.576.243.985.5 1.225.771.239.27.359.608.359 1.012 0 .512-.202.933-.607 1.262-.404.33-.922.494-1.552.494z"/><path d="m264.607 37.684v-.397c.344-.097.516-.503.516-1.219v-.108h-.516v-1.326h1.327v1.149c0 1.178-.442 1.812-1.327 1.901z"/><path d="m271.914 35.96v-1.096c-.43.82-1.078 1.23-1.944 1.23-.702 0-1.255-.256-1.657-.768-.403-.512-.605-1.212-.605-2.1 0-.97.229-1.751.685-2.341.457-.591 1.057-.887 1.802-.887.691 0 1.264.265 1.719.795v-3.314h1.063v8.481zm0-4.442c-.548-.483-1.067-.725-1.558-.725-1.013 0-1.52.775-1.52 2.326 0 1.364.451 2.046 1.354 2.046.587 0 1.162-.32 1.724-.961z"/><path d="m278.646 35.772c-.709.215-1.316.322-1.821.322-.859 0-1.56-.285-2.102-.856-.543-.571-.814-1.312-.814-2.221 0-.885.239-1.61.717-2.175.478-.566 1.089-.849 1.834-.849.706 0 1.251.251 1.636.752s.577 1.214.577 2.138l-.005.327h-3.679c.154 1.386.832 2.079 2.035 2.079.441 0 .981-.118 1.622-.355zm-3.609-3.357h2.573c0-1.085-.405-1.627-1.214-1.627-.813 0-1.266.542-1.359 1.627z"/><path d="m282.713 27.479h1.058v8.481h-1.058z"/><path d="m287.453 36.094c-.835 0-1.501-.276-1.998-.829-.498-.554-.747-1.294-.747-2.221 0-.938.25-1.681.749-2.227.5-.546 1.177-.819 2.033-.819s1.534.273 2.033.819c.5.546.749 1.285.749 2.216 0 .952-.25 1.701-.752 2.245-.501.544-1.19.816-2.067.816zm.016-.794c1.12 0 1.681-.756 1.681-2.267 0-1.493-.553-2.24-1.66-2.24-1.103 0-1.654.75-1.654 2.251 0 1.504.544 2.256 1.633 2.256z"/><path d="m292.751 36.094c-.483 0-1.071-.112-1.762-.338v-.972c.691.344 1.293.516 1.805.516.304 0 .557-.083.757-.248.201-.164.301-.37.301-.617 0-.362-.281-.661-.843-.897l-.618-.263c-.913-.38-1.37-.926-1.37-1.639 0-.508.18-.908.54-1.2s.853-.438 1.48-.438c.326 0 .729.045 1.208.135l.221.043v.88c-.591-.175-1.06-.263-1.408-.263-.68 0-1.02.247-1.02.741 0 .319.258.588.773.806l.511.215c.576.243.984.5 1.224.771.24.27.36.608.36 1.012 0 .512-.202.933-.607 1.262-.404.33-.922.494-1.552.494z"/><path d="m299.818 36.094c-.788 0-1.442-.291-1.961-.875s-.779-1.32-.779-2.208c0-.948.257-1.688.771-2.218s1.231-.795 2.151-.795c.455 0 .963.063 1.526.188v.887c-.598-.176-1.085-.264-1.461-.264-.541 0-.975.204-1.303.61s-.491.948-.491 1.625c0 .655.168 1.185.505 1.59.336.404.777.606 1.321.606.483 0 .981-.123 1.493-.37v.913c-.684.208-1.275.311-1.772.311z"/><path d="m306.099 35.96v-1.096c-.562.82-1.244 1.23-2.047 1.23-.508 0-.913-.16-1.213-.48-.301-.321-.452-.753-.452-1.297v-4.19h1.058v3.846c0 .437.064.747.191.932.127.184.339.276.637.276.644 0 1.253-.424 1.826-1.273v-3.781h1.058v5.833z"/><path d="m311.564 35.219c-.634.584-1.245.875-1.832.875-.483 0-.884-.151-1.203-.453-.319-.303-.478-.685-.478-1.147 0-.637.268-1.127.803-1.469s1.302-.513 2.301-.513h.253v-.704c0-.676-.347-1.015-1.042-1.015-.559 0-1.162.172-1.81.516v-.876c.712-.29 1.38-.435 2.003-.435.652 0 1.133.147 1.442.441.31.293.465.75.465 1.369v2.643c0 .605.186.908.559.908.046 0 .114-.008.204-.022l.075.586c-.24.114-.505.171-.795.171-.494 0-.809-.291-.945-.875zm-.156-.575v-1.509l-.355-.011c-.58 0-1.049.11-1.407.331-.358.22-.537.509-.537.867 0 .254.09.469.269.645.179.175.397.263.655.263.44 0 .899-.195 1.375-.586z"/><path d="m313.908 27.479h1.058v8.481h-1.058z"/><path d="m320.64 35.772c-.709.215-1.316.322-1.82.322-.86 0-1.561-.285-2.103-.856-.543-.571-.814-1.312-.814-2.221 0-.885.239-1.61.717-2.175.478-.566 1.09-.849 1.834-.849.706 0 1.251.251 1.636.752s.577 1.214.577 2.138l-.005.327h-3.679c.154 1.386.832 2.079 2.035 2.079.441 0 .981-.118 1.622-.355zm-3.609-3.357h2.573c0-1.085-.405-1.627-1.214-1.627-.813 0-1.266.542-1.359 1.627z"/><path d="m323.318 36.094c-.484 0-1.071-.112-1.762-.338v-.972c.691.344 1.293.516 1.805.516.304 0 .556-.083.757-.248.2-.164.301-.37.301-.617 0-.362-.281-.661-.844-.897l-.617-.263c-.913-.38-1.37-.926-1.37-1.639 0-.508.18-.908.54-1.2s.853-.438 1.48-.438c.325 0 .728.045 1.208.135l.22.043v.88c-.59-.175-1.06-.263-1.407-.263-.68 0-1.02.247-1.02.741 0 .319.257.588.773.806l.51.215c.577.243.985.5 1.225.771.24.27.36.608.36 1.012 0 .512-.203.933-.607 1.262-.405.33-.922.494-1.552.494z"/><path d="m332.902 35.772c-.709.215-1.316.322-1.821.322-.86 0-1.561-.285-2.103-.856s-.814-1.312-.814-2.221c0-.885.239-1.61.717-2.175.478-.566 1.09-.849 1.835-.849.705 0 1.25.251 1.635.752s.577 1.214.577 2.138l-.005.327h-3.679c.154 1.386.832 2.079 2.036 2.079.44 0 .981-.118 1.622-.355zm-3.61-3.357h2.573c0-1.085-.405-1.627-1.214-1.627-.813 0-1.266.542-1.359 1.627z"/><path d="m333.447 35.96 2.218-3.013-2.154-2.82h1.257l1.702 2.245 1.542-2.245h1.031l-2.019 2.96 2.196 2.873h-1.256l-1.757-2.309-1.697 2.309z"/><path d="m340.055 35.96v-5.833h1.059v5.833zm0-6.891v-1.058h1.059v1.058z"/><path d="m344.059 36.094c-.483 0-1.07-.112-1.761-.338v-.972c.691.344 1.292.516 1.804.516.305 0 .557-.083.758-.248.2-.164.3-.37.3-.617 0-.362-.281-.661-.843-.897l-.618-.263c-.913-.38-1.369-.926-1.369-1.639 0-.508.18-.908.54-1.2s.853-.438 1.479-.438c.326 0 .729.045 1.209.135l.22.043v.88c-.591-.175-1.06-.263-1.407-.263-.68 0-1.021.247-1.021.741 0 .319.258.588.774.806l.51.215c.577.243.985.5 1.225.771.24.27.36.608.36 1.012 0 .512-.203.933-.607 1.262-.405.33-.922.494-1.553.494z"/><path d="m349.148 36.094c-.537 0-.956-.153-1.257-.461-.3-.308-.451-.736-.451-1.284v-3.427h-.73v-.795h.73v-1.058l1.058-.102v1.16h1.526v.795h-1.526v3.234c0 .762.33 1.144.989 1.144.139 0 .309-.024.51-.07v.73c-.326.09-.609.134-.849.134z"/><path d="m355.064 35.772c-.709.215-1.316.322-1.821.322-.859 0-1.56-.285-2.102-.856-.543-.571-.814-1.312-.814-2.221 0-.885.239-1.61.717-2.175.478-.566 1.089-.849 1.834-.849.706 0 1.251.251 1.636.752s.577 1.214.577 2.138l-.005.327h-3.679c.154 1.386.832 2.079 2.035 2.079.441 0 .981-.118 1.622-.355zm-3.609-3.357h2.573c0-1.085-.405-1.627-1.214-1.627-.813 0-1.266.542-1.359 1.627z"/><path d="m356.195 35.96v-5.833h1.058v1.096c.558-.817 1.242-1.225 2.051-1.225.505 0 .908.161 1.209.481s.451.751.451 1.292v4.189h-1.058v-3.846c0-.433-.064-.742-.191-.926s-.337-.277-.631-.277c-.648 0-1.258.425-1.831 1.273v3.776z"/><path d="m13.741 47.094c-.537 0-.956-.153-1.257-.461s-.451-.736-.451-1.284v-3.427h-.73v-.795h.73v-1.058l1.058-.102v1.16h1.526v.795h-1.526v3.234c0 .762.33 1.144.988 1.144.14 0 .31-.024.511-.07v.73c-.326.09-.609.134-.849.134z"/><path d="m15.69 46.96v-5.833h1.058v1.096c.419-.817 1.028-1.225 1.826-1.225.108 0 .221.009.339.027v.988c-.183-.06-.344-.091-.484-.091-.669 0-1.23.398-1.681 1.192v3.846z"/><path d="m24.052 46.772c-.709.215-1.316.322-1.82.322-.86 0-1.561-.285-2.103-.856-.543-.571-.814-1.312-.814-2.221 0-.885.239-1.61.717-2.175.478-.566 1.09-.849 1.834-.849.706 0 1.251.251 1.636.752s.577 1.214.577 2.138l-.005.327h-3.679c.154 1.386.832 2.079 2.035 2.079.441 0 .981-.118 1.622-.355zm-3.609-3.357h2.573c0-1.085-.405-1.627-1.214-1.627-.813 0-1.266.542-1.359 1.627z"/><path d="m27.038 47.094c-.483 0-1.071-.112-1.762-.338v-.972c.691.344 1.293.516 1.805.516.304 0 .557-.083.757-.248.201-.164.301-.37.301-.617 0-.362-.281-.661-.843-.897l-.618-.263c-.913-.38-1.369-.926-1.369-1.639 0-.508.179-.908.539-1.2s.853-.438 1.48-.438c.326 0 .729.045 1.209.135l.22.043v.88c-.591-.175-1.06-.263-1.407-.263-.681 0-1.021.247-1.021.741 0 .319.258.588.774.806l.51.215c.576.243.984.5 1.224.771.24.27.36.608.36 1.012 0 .512-.202.933-.607 1.262-.404.33-.922.494-1.552.494z"/><path d="m33.068 47.094c-.537 0-.956-.153-1.257-.461s-.451-.736-.451-1.284v-3.427h-.73v-.795h.73v-1.058l1.058-.102v1.16h1.526v.795h-1.526v3.234c0 .762.33 1.144.988 1.144.14 0 .31-.024.511-.07v.73c-.326.09-.609.134-.849.134z"/><path d="m35.017 46.96v-5.833h1.058v5.833zm0-6.891v-1.058h1.058v1.058z"/><path d="m37.783 49.082v-7.955h1.058v1.096c.433-.817 1.083-1.225 1.949-1.225.702 0 1.255.256 1.657.768.403.512.605 1.212.605 2.1 0 .967-.229 1.747-.685 2.34-.457.592-1.057.888-1.802.888-.691 0-1.266-.264-1.724-.794v2.782zm1.058-3.513c.544.487 1.063.731 1.557.731 1.017 0 1.526-.776 1.526-2.326 0-1.368-.451-2.052-1.354-2.052-.591 0-1.167.321-1.729.962z"/><path d="m46.575 47.094c-.835 0-1.501-.276-1.999-.829-.497-.554-.746-1.294-.746-2.221 0-.938.25-1.681.749-2.227.5-.546 1.177-.819 2.033-.819s1.534.273 2.033.819c.5.546.749 1.285.749 2.216 0 .952-.25 1.701-.752 2.245-.501.544-1.19.816-2.067.816zm.016-.794c1.12 0 1.681-.756 1.681-2.267 0-1.493-.553-2.24-1.66-2.24-1.103 0-1.654.75-1.654 2.251 0 1.504.544 2.256 1.633 2.256z"/><path d="m52.181 47.094c-.483 0-1.07-.112-1.761-.338v-.972c.691.344 1.292.516 1.804.516.305 0 .557-.083.758-.248.2-.164.3-.37.3-.617 0-.362-.281-.661-.843-.897l-.618-.263c-.913-.38-1.369-.926-1.369-1.639 0-.508.18-.908.54-1.2s.853-.438 1.479-.438c.326 0 .729.045 1.209.135l.22.043v.88c-.591-.175-1.06-.263-1.407-.263-.68 0-1.021.247-1.021.741 0 .319.258.588.774.806l.51.215c.577.243.985.5 1.225.771.24.27.36.608.36 1.012 0 .512-.203.933-.607 1.262-.405.33-.922.494-1.553.494z"/><path d="m55.978 46.96v-1.058h1.058v1.058zm0-4.769v-1.064h1.058v1.064z"/><path d="m58.994 38.479h1.058v8.481h-1.058z"/><path d="m64.767 46.219c-.634.584-1.244.875-1.831.875-.484 0-.885-.151-1.203-.453-.319-.303-.478-.685-.478-1.147 0-.637.267-1.127.803-1.469.535-.342 1.302-.513 2.301-.513h.253v-.704c0-.676-.348-1.015-1.042-1.015-.559 0-1.162.172-1.811.516v-.876c.713-.29 1.381-.435 2.004-.435.652 0 1.132.147 1.442.441.31.293.465.75.465 1.369v2.643c0 .605.186.908.558.908.047 0 .115-.008.204-.022l.076.586c-.24.114-.505.171-.795.171-.495 0-.81-.291-.946-.875zm-.155-.575v-1.509l-.355-.011c-.58 0-1.049.11-1.407.331-.358.22-.537.509-.537.867 0 .254.089.469.268.645.179.175.398.263.656.263.44 0 .898-.195 1.375-.586z"/><path d="m68.967 47.094c-.484 0-1.071-.112-1.762-.338v-.972c.691.344 1.293.516 1.805.516.304 0 .557-.083.757-.248.201-.164.301-.37.301-.617 0-.362-.281-.661-.843-.897l-.618-.263c-.913-.38-1.37-.926-1.37-1.639 0-.508.18-.908.54-1.2s.853-.438 1.48-.438c.326 0 .729.045 1.208.135l.221.043v.88c-.591-.175-1.06-.263-1.408-.263-.68 0-1.02.247-1.02.741 0 .319.258.588.773.806l.511.215c.576.243.984.5 1.224.771.24.27.36.608.36 1.012 0 .512-.202.933-.607 1.262-.405.33-.922.494-1.552.494z"/><path d="m77.207 43.748c0-1.177-.495-2.266-2.211-2.266-.847 0-1.54.231-1.936.473l.264.88c.363-.231.913-.396 1.441-.396.946 0 1.089.583 1.089.935v.088c-1.98-.011-3.179.682-3.179 2.024 0 .814.605 1.595 1.683 1.595.704 0 1.265-.297 1.584-.715h.033l.099.594h1.221c-.066-.33-.088-.803-.088-1.287zm-1.32 1.331c0 .099 0 .198-.033.297-.132.385-.517.737-1.067.737-.429 0-.77-.242-.77-.77 0-.814.913-1.012 1.87-1.001z"/><path d="m78.223 46.96h1.353v-2.783c0-.143.011-.286.033-.407.121-.616.572-1.023 1.21-1.023.165 0 .286.011.407.033v-1.265c-.11-.022-.187-.033-.319-.033-.583 0-1.21.385-1.474 1.133h-.033l-.055-1.012h-1.166c.033.473.044 1.001.044 1.727z"/><path d="m82.198 40.602v1.001h-.759v1.012h.759v2.519c0 .704.132 1.199.429 1.507.253.275.66.44 1.166.44.418 0 .781-.066.979-.143l-.022-1.023c-.154.044-.286.055-.528.055-.517 0-.693-.33-.693-.99v-2.365h1.287v-1.012h-1.287v-1.375z"/><path d="m89.901 44.661c.022-.121.044-.319.044-.572 0-1.177-.572-2.607-2.31-2.607-1.716 0-2.618 1.397-2.618 2.882 0 1.639 1.023 2.706 2.761 2.706.77 0 1.408-.143 1.87-.341l-.198-.924c-.418.143-.858.242-1.485.242-.869 0-1.617-.418-1.65-1.386zm-3.586-.946c.055-.55.407-1.309 1.243-1.309.902 0 1.122.814 1.111 1.309z"/><path d="m90.62 46.96h1.353v-2.783c0-.143.011-.286.033-.407.121-.616.572-1.023 1.21-1.023.165 0 .286.011.407.033v-1.265c-.11-.022-.187-.033-.319-.033-.583 0-1.21.385-1.474 1.133h-.033l-.055-1.012h-1.166c.033.473.044 1.001.044 1.727z"/><path d="m95.475 46.96v-5.357h-1.353v5.357zm-.671-7.59c-.451 0-.759.319-.759.737 0 .396.297.726.748.726.473 0 .77-.33.77-.726-.011-.418-.297-.737-.759-.737z"/><path d="m100.682 43.748c0-1.177-.495-2.266-2.211-2.266-.847 0-1.54.231-1.936.473l.264.88c.363-.231.913-.396 1.441-.396.946 0 1.089.583 1.089.935v.088c-1.98-.011-3.179.682-3.179 2.024 0 .814.605 1.595 1.683 1.595.704 0 1.265-.297 1.584-.715h.033l.099.594h1.221c-.066-.33-.088-.803-.088-1.287zm-1.32 1.331c0 .099 0 .198-.033.297-.132.385-.517.737-1.067.737-.429 0-.77-.242-.77-.77 0-.814.913-1.012 1.87-1.001z"/><path d="m101.368 46.696c.396.22.979.374 1.628.374 1.419 0 2.178-.704 2.178-1.683-.011-.792-.451-1.287-1.43-1.628-.682-.253-.935-.407-.935-.748 0-.33.264-.572.748-.572.473 0 .913.176 1.133.308l.275-.946c-.319-.176-.836-.319-1.43-.319-1.243 0-2.024.726-2.024 1.672 0 .638.429 1.21 1.474 1.562.66.242.88.418.88.781 0 .352-.264.605-.858.605-.484 0-1.067-.209-1.364-.396z"/><path d="m106.219 48.684v-.397c.343-.097.515-.503.515-1.219v-.108h-.515v-1.326h1.326v1.149c0 1.178-.442 1.812-1.326 1.901z"/><path d="m114.125 38.479h1.058v8.481h-1.058z"/><path d="m119.898 46.219c-.633.584-1.244.875-1.831.875-.484 0-.885-.151-1.203-.453-.319-.303-.478-.685-.478-1.147 0-.637.267-1.127.803-1.469.535-.342 1.302-.513 2.301-.513h.253v-.704c0-.676-.348-1.015-1.042-1.015-.559 0-1.162.172-1.81.516v-.876c.712-.29 1.38-.435 2.003-.435.652 0 1.132.147 1.442.441.31.293.465.75.465 1.369v2.643c0 .605.186.908.558.908.047 0 .115-.008.204-.022l.076.586c-.24.114-.505.171-.795.171-.494 0-.81-.291-.946-.875zm-.155-.575v-1.509l-.355-.011c-.58 0-1.049.11-1.407.331-.358.22-.537.509-.537.867 0 .254.089.469.268.645.179.175.398.263.656.263.44 0 .898-.195 1.375-.586z"/><path d="m124.098 47.094c-.483 0-1.071-.112-1.762-.338v-.972c.691.344 1.293.516 1.805.516.304 0 .557-.083.757-.248.201-.164.301-.37.301-.617 0-.362-.281-.661-.843-.897l-.618-.263c-.913-.38-1.369-.926-1.369-1.639 0-.508.179-.908.539-1.2s.853-.438 1.48-.438c.326 0 .729.045 1.209.135l.22.043v.88c-.591-.175-1.06-.263-1.407-.263-.681 0-1.021.247-1.021.741 0 .319.258.588.773.806l.511.215c.576.243.984.5 1.224.771.24.27.36.608.36 1.012 0 .512-.202.933-.607 1.262-.404.33-.922.494-1.552.494z"/><path d="m127.774 41.603 1.991 5.357h1.331l2.046-5.357h-1.419l-.858 2.717c-.143.484-.264.902-.363 1.342h-.033c-.099-.44-.209-.869-.363-1.342l-.869-2.717z"/><path d="m137.953 44.661c.022-.121.044-.319.044-.572 0-1.177-.572-2.607-2.31-2.607-1.716 0-2.618 1.397-2.618 2.882 0 1.639 1.023 2.706 2.761 2.706.77 0 1.408-.143 1.87-.341l-.198-.924c-.418.143-.858.242-1.485.242-.869 0-1.617-.418-1.65-1.386zm-3.586-.946c.055-.55.407-1.309 1.243-1.309.902 0 1.122.814 1.111 1.309z"/><path d="m138.672 46.96h1.353v-3.157c0-.154.022-.319.066-.429.143-.407.517-.792 1.056-.792.737 0 1.023.583 1.023 1.353v3.025h1.353v-3.179c0-1.694-.968-2.299-1.903-2.299-.891 0-1.474.506-1.716.924h-.033l-.066-.803h-1.177c.022.462.044.979.044 1.595z"/><path d="m148.707 43.748c0-1.177-.495-2.266-2.211-2.266-.847 0-1.54.231-1.936.473l.264.88c.363-.231.913-.396 1.441-.396.946 0 1.089.583 1.089.935v.088c-1.98-.011-3.179.682-3.179 2.024 0 .814.605 1.595 1.683 1.595.704 0 1.265-.297 1.584-.715h.033l.099.594h1.221c-.066-.33-.088-.803-.088-1.287zm-1.32 1.331c0 .099 0 .198-.033.297-.132.385-.517.737-1.067.737-.429 0-.77-.242-.77-.77 0-.814.913-1.012 1.87-1.001z"/><path d="m149.393 46.696c.396.22.979.374 1.628.374 1.419 0 2.178-.704 2.178-1.683-.011-.792-.451-1.287-1.43-1.628-.682-.253-.935-.407-.935-.748 0-.33.264-.572.748-.572.473 0 .913.176 1.133.308l.275-.946c-.319-.176-.836-.319-1.43-.319-1.243 0-2.024.726-2.024 1.672 0 .638.429 1.21 1.474 1.562.66.242.88.418.88.781 0 .352-.264.605-.858.605-.484 0-1.067-.209-1.364-.396z"/><path d="m158.969 49.082.946-2.122-2.256-5.833h1.144l1.67 4.394 1.784-4.394h.999l-3.185 7.955z"/><path d="m166.144 38.479h1.058v8.481h-1.058z"/><path d="m171.192 47.094c-.834 0-1.5-.276-1.998-.829-.497-.554-.746-1.294-.746-2.221 0-.938.249-1.681.749-2.227.499-.546 1.177-.819 2.033-.819s1.533.273 2.033.819c.499.546.749 1.285.749 2.216 0 .952-.251 1.701-.752 2.245s-1.19.816-2.068.816zm.016-.794c1.121 0 1.682-.756 1.682-2.267 0-1.493-.554-2.24-1.66-2.24-1.103 0-1.654.75-1.654 2.251 0 1.504.544 2.256 1.632 2.256z"/><path d="m176.799 47.094c-.483 0-1.071-.112-1.762-.338v-.972c.691.344 1.293.516 1.805.516.304 0 .557-.083.757-.248.201-.164.301-.37.301-.617 0-.362-.281-.661-.843-.897l-.618-.263c-.913-.38-1.369-.926-1.369-1.639 0-.508.18-.908.539-1.2.36-.292.854-.438 1.48-.438.326 0 .729.045 1.209.135l.22.043v.88c-.591-.175-1.06-.263-1.407-.263-.681 0-1.021.247-1.021.741 0 .319.258.588.774.806l.51.215c.576.243.985.5 1.224.771.24.27.36.608.36 1.012 0 .512-.202.933-.607 1.262-.404.33-.922.494-1.552.494z"/><path d="m184.886 45.794c-.264.11-.605.209-1.067.209-.924 0-1.639-.627-1.639-1.727-.011-.979.605-1.738 1.639-1.738.484 0 .803.099 1.023.209l.242-1.023c-.308-.132-.814-.242-1.309-.242-1.881 0-2.981 1.243-2.981 2.849 0 1.661 1.089 2.739 2.761 2.739.671 0 1.232-.143 1.518-.275z"/><path d="m189.818 43.748c0-1.177-.495-2.266-2.211-2.266-.847 0-1.54.231-1.936.473l.264.88c.363-.231.913-.396 1.441-.396.946 0 1.089.583 1.089.935v.088c-1.98-.011-3.179.682-3.179 2.024 0 .814.605 1.595 1.683 1.595.704 0 1.265-.297 1.584-.715h.033l.099.594h1.221c-.066-.33-.088-.803-.088-1.287zm-1.32 1.331c0 .099 0 .198-.033.297-.132.385-.517.737-1.067.737-.429 0-.77-.242-.77-.77 0-.814.913-1.012 1.87-1.001z"/><path d="m190.834 49.138h1.353v-2.772h.022c.275.429.836.715 1.507.715 1.221 0 2.442-.935 2.442-2.871 0-1.672-1.023-2.728-2.255-2.728-.814 0-1.441.341-1.837.946h-.022l-.066-.825h-1.188c.022.506.044 1.078.044 1.782zm1.353-5.247c0-.11.022-.231.044-.341.143-.594.66-1.001 1.221-1.001.869 0 1.331.77 1.331 1.716 0 1.056-.506 1.771-1.364 1.771-.583 0-1.056-.396-1.199-.946-.022-.121-.033-.242-.033-.374z"/><path d="m198.207 46.96v-5.357h-1.353v5.357zm-.671-7.59c-.451 0-.759.319-.759.737 0 .396.297.726.748.726.473 0 .77-.33.77-.726-.011-.418-.297-.737-.759-.737z"/><path d="m199.256 39.15h1.353v7.81h-1.353z"/><path d="m205.827 43.748c0-1.177-.495-2.266-2.211-2.266-.847 0-1.54.231-1.936.473l.264.88c.363-.231.913-.396 1.441-.396.946 0 1.089.583 1.089.935v.088c-1.98-.011-3.179.682-3.179 2.024 0 .814.605 1.595 1.683 1.595.704 0 1.265-.297 1.584-.715h.033l.099.594h1.221c-.066-.33-.088-.803-.088-1.287zm-1.32 1.331c0 .099 0 .198-.033.297-.132.385-.517.737-1.067.737-.429 0-.77-.242-.77-.77 0-.814.913-1.012 1.87-1.001z"/><path d="m206.843 46.96h1.353v-2.783c0-.143.011-.286.033-.407.121-.616.572-1.023 1.21-1.023.165 0 .286.011.407.033v-1.265c-.11-.022-.187-.033-.319-.033-.583 0-1.21.385-1.474 1.133h-.033l-.055-1.012h-1.166c.033.473.044 1.001.044 1.727z"/><path d="m214.789 44.661c.022-.121.044-.319.044-.572 0-1.177-.572-2.607-2.31-2.607-1.716 0-2.618 1.397-2.618 2.882 0 1.639 1.023 2.706 2.761 2.706.77 0 1.408-.143 1.87-.341l-.198-.924c-.418.143-.858.242-1.485.242-.869 0-1.617-.418-1.65-1.386zm-3.586-.946c.055-.55.407-1.309 1.243-1.309.902 0 1.122.814 1.111 1.309z"/><path d="m215.177 46.696c.396.22.979.374 1.628.374 1.419 0 2.178-.704 2.178-1.683-.011-.792-.451-1.287-1.43-1.628-.682-.253-.935-.407-.935-.748 0-.33.264-.572.748-.572.473 0 .913.176 1.133.308l.275-.946c-.319-.176-.836-.319-1.43-.319-1.243 0-2.024.726-2.024 1.672 0 .638.429 1.21 1.474 1.562.66.242.88.418.88.781 0 .352-.264.605-.858.605-.484 0-1.067-.209-1.364-.396z"/><path d="m220.029 45.634h1.327v1.327h-1.327z"/></g></g></svg>