<?xml version="1.0" encoding="UTF-8" standalone="no"?><!DOCTYPE svg PUBLIC "-//W3C//DTD SVG 1.1//EN" "http://www.w3.org/Graphics/SVG/1.1/DTD/svg11.dtd"><svg width="100%" height="100%" viewBox="0 0 369 60" version="1.1" xmlns="http://www.w3.org/2000/svg" xmlns:xlink="http://www.w3.org/1999/xlink" xml:space="preserve" xmlns:serif="http://www.serif.com/" style="fill-rule:evenodd;clip-rule:evenodd;stroke-miterlimit:10;"><g id="i1"><path d="M354.411,56.322l-339.866,0c-5.988,0 -10.843,-4.854 -10.843,-10.843l0,-30.907c0,-5.989 4.855,-10.844 10.843,-10.844l339.866,0c5.988,0 10.843,4.855 10.843,10.844l0,30.907c0,5.989 -4.855,10.843 -10.843,10.843Z" style="fill:#fff;fill-rule:nonzero;stroke:#231f20;stroke-width:0.72px;"/><g><path d="M13.515,25.159c-0.533,0 -1.215,-0.116 -2.046,-0.349l0,-1.117c0.895,0.415 1.631,0.623 2.208,0.623c0.444,0 0.801,-0.117 1.071,-0.349c0.271,-0.233 0.406,-0.539 0.406,-0.919c0,-0.311 -0.089,-0.576 -0.266,-0.795c-0.177,-0.218 -0.504,-0.462 -0.98,-0.73l-0.548,-0.317c-0.677,-0.387 -1.154,-0.751 -1.432,-1.093c-0.277,-0.342 -0.416,-0.741 -0.416,-1.195c0,-0.613 0.222,-1.117 0.666,-1.512c0.444,-0.396 1.01,-0.594 1.697,-0.594c0.613,0 1.259,0.102 1.939,0.306l0,1.032c-0.838,-0.33 -1.462,-0.494 -1.874,-0.494c-0.39,0 -0.713,0.103 -0.967,0.311c-0.254,0.208 -0.381,0.469 -0.381,0.784c0,0.265 0.093,0.5 0.279,0.704c0.186,0.204 0.526,0.447 1.02,0.73l0.57,0.323c0.687,0.39 1.167,0.759 1.439,1.106c0.272,0.347 0.408,0.764 0.408,1.251c0,0.692 -0.255,1.247 -0.765,1.666c-0.51,0.418 -1.186,0.628 -2.028,0.628Z" style="fill:#231f20;fill-rule:nonzero;"/><path d="M20.795,24.96l0,-1.096c-0.562,0.82 -1.244,1.23 -2.046,1.23c-0.509,0 -0.913,-0.16 -1.214,-0.48c-0.301,-0.321 -0.451,-0.753 -0.451,-1.297l0,-4.19l1.058,0l0,3.846c0,0.437 0.063,0.747 0.19,0.932c0.128,0.184 0.34,0.276 0.637,0.276c0.644,0 1.253,-0.424 1.826,-1.273l0,-3.781l1.058,0l0,5.833l-1.058,0Z" style="fill:#231f20;fill-rule:nonzero;"/><path d="M27.185,19.922l0,5.038l-1.064,0l0,-5.038l-0.827,0l0,-0.795l0.827,0l0,-0.698c0,-1.389 0.634,-2.084 1.902,-2.084c0.354,0 0.757,0.059 1.208,0.177l0,0.838c-0.476,-0.147 -0.857,-0.22 -1.144,-0.22c-0.347,0 -0.584,0.083 -0.712,0.25c-0.127,0.166 -0.19,0.475 -0.19,0.926l0,0.811l1.455,0l0,0.795l-1.455,0Z" style="fill:#231f20;fill-rule:nonzero;"/><path d="M32.848,24.96l0,-1.096c-0.563,0.82 -1.245,1.23 -2.047,1.23c-0.508,0 -0.913,-0.16 -1.214,-0.48c-0.3,-0.321 -0.451,-0.753 -0.451,-1.297l0,-4.19l1.058,0l0,3.846c0,0.437 0.064,0.747 0.191,0.932c0.127,0.184 0.339,0.276 0.636,0.276c0.645,0 1.254,-0.424 1.827,-1.273l0,-3.781l1.058,0l0,5.833l-1.058,0Z" style="fill:#231f20;fill-rule:nonzero;"/><path d="M35.261,24.96l0,-5.833l1.058,0l0,1.096c0.559,-0.817 1.243,-1.225 2.052,-1.225c0.505,0 0.908,0.161 1.208,0.481c0.301,0.32 0.451,0.751 0.451,1.292l0,4.189l-1.058,0l0,-3.846c0,-0.433 -0.063,-0.742 -0.19,-0.926c-0.127,-0.184 -0.338,-0.277 -0.631,-0.277c-0.649,0 -1.259,0.425 -1.832,1.273l0,3.776l-1.058,0Z" style="fill:#231f20;fill-rule:nonzero;"/><path d="M43.599,25.094c-0.788,0 -1.442,-0.291 -1.961,-0.875c-0.519,-0.584 -0.779,-1.32 -0.779,-2.208c0,-0.948 0.257,-1.688 0.771,-2.218c0.514,-0.53 1.231,-0.795 2.151,-0.795c0.455,0 0.963,0.063 1.526,0.188l0,0.887c-0.598,-0.176 -1.085,-0.264 -1.461,-0.264c-0.541,0 -0.975,0.204 -1.303,0.61c-0.327,0.406 -0.491,0.948 -0.491,1.625c0,0.655 0.168,1.185 0.505,1.59c0.336,0.404 0.777,0.606 1.321,0.606c0.483,0 0.981,-0.123 1.493,-0.37l0,0.913c-0.684,0.208 -1.275,0.311 -1.772,0.311Z" style="fill:#231f20;fill-rule:nonzero;"/><path d="M46.189,24.96l0,-5.833l1.058,0l0,5.833l-1.058,0Zm0,-6.891l0,-1.058l1.058,0l0,1.058l-1.058,0Z" style="fill:#231f20;fill-rule:nonzero;"/><path d="M50.885,25.094c-0.834,0 -1.5,-0.276 -1.998,-0.829c-0.498,-0.554 -0.746,-1.294 -0.746,-2.221c0,-0.938 0.249,-1.681 0.749,-2.227c0.499,-0.546 1.177,-0.819 2.033,-0.819c0.856,0 1.533,0.273 2.033,0.819c0.499,0.546 0.749,1.285 0.749,2.216c0,0.952 -0.251,1.701 -0.752,2.245c-0.501,0.544 -1.19,0.816 -2.068,0.816Zm0.016,-0.794c1.121,0 1.682,-0.756 1.682,-2.267c0,-1.493 -0.554,-2.24 -1.66,-2.24c-1.103,0 -1.654,0.75 -1.654,2.251c0,1.504 0.544,2.256 1.632,2.256Zm-0.773,-6.231l1.294,-1.724l1.225,0l-1.724,1.724l-0.795,0Z" style="fill:#231f20;fill-rule:nonzero;"/><path d="M54.593,24.96l0,-5.833l1.058,0l0,1.096c0.559,-0.817 1.243,-1.225 2.052,-1.225c0.505,0 0.908,0.161 1.208,0.481c0.301,0.32 0.452,0.751 0.452,1.292l0,4.189l-1.059,0l0,-3.846c0,-0.433 -0.063,-0.742 -0.19,-0.926c-0.127,-0.184 -0.338,-0.277 -0.631,-0.277c-0.648,0 -1.259,0.425 -1.832,1.273l0,3.776l-1.058,0Z" style="fill:#231f20;fill-rule:nonzero;"/><path d="M67.643,24.772c-0.709,0.215 -1.316,0.322 -1.821,0.322c-0.859,0 -1.56,-0.285 -2.103,-0.856c-0.542,-0.571 -0.813,-1.312 -0.813,-2.221c0,-0.885 0.239,-1.61 0.717,-2.175c0.478,-0.566 1.089,-0.849 1.834,-0.849c0.705,0 1.25,0.251 1.635,0.752c0.385,0.501 0.578,1.214 0.578,2.138l-0.006,0.327l-3.679,0c0.154,1.386 0.833,2.079 2.036,2.079c0.44,0 0.981,-0.118 1.622,-0.355l0,0.838Zm-3.61,-3.357l2.573,0c0,-1.085 -0.404,-1.627 -1.214,-1.627c-0.812,0 -1.265,0.542 -1.359,1.627Z" style="fill:#231f20;fill-rule:nonzero;"/><path d="M70.276,25.094c-0.483,0 -1.07,-0.112 -1.761,-0.338l0,-0.972c0.691,0.344 1.292,0.516 1.804,0.516c0.305,0 0.557,-0.083 0.758,-0.248c0.2,-0.164 0.301,-0.37 0.301,-0.617c0,-0.362 -0.282,-0.661 -0.844,-0.897l-0.617,-0.263c-0.914,-0.38 -1.37,-0.926 -1.37,-1.639c0,-0.508 0.18,-0.908 0.54,-1.2c0.36,-0.292 0.853,-0.438 1.479,-0.438c0.326,0 0.729,0.045 1.209,0.135l0.22,0.043l0,0.88c-0.591,-0.175 -1.06,-0.263 -1.407,-0.263c-0.68,0 -1.021,0.247 -1.021,0.741c0,0.319 0.258,0.588 0.774,0.806l0.51,0.215c0.577,0.243 0.985,0.5 1.225,0.771c0.24,0.27 0.36,0.608 0.36,1.012c0,0.512 -0.203,0.933 -0.607,1.262c-0.405,0.33 -0.922,0.494 -1.553,0.494Z" style="fill:#231f20;fill-rule:nonzero;"/><path d="M79.105,24.96l0,-1.096c-0.43,0.82 -1.078,1.23 -1.945,1.23c-0.701,0 -1.254,-0.256 -1.657,-0.768c-0.402,-0.512 -0.604,-1.212 -0.604,-2.1c0,-0.97 0.228,-1.751 0.685,-2.341c0.457,-0.591 1.057,-0.887 1.802,-0.887c0.691,0 1.264,0.265 1.719,0.795l0,-3.314l1.063,0l0,8.481l-1.063,0Zm0,-4.442c-0.548,-0.483 -1.067,-0.725 -1.558,-0.725c-1.013,0 -1.52,0.775 -1.52,2.326c0,1.364 0.451,2.046 1.354,2.046c0.587,0 1.162,-0.32 1.724,-0.961l0,-2.686Z" style="fill:#231f20;fill-rule:nonzero;"/><path d="M81.518,24.96l0,-5.833l1.058,0l0,5.833l-1.058,0Zm0,-6.891l0,-1.058l1.058,0l0,1.058l-1.058,0Z" style="fill:#231f20;fill-rule:nonzero;"/><path d="M85.478,25.094c-0.483,0 -1.07,-0.112 -1.761,-0.338l0,-0.972c0.691,0.344 1.292,0.516 1.804,0.516c0.305,0 0.557,-0.083 0.758,-0.248c0.2,-0.164 0.3,-0.37 0.3,-0.617c0,-0.362 -0.281,-0.661 -0.843,-0.897l-0.618,-0.263c-0.913,-0.38 -1.369,-0.926 -1.369,-1.639c0,-0.508 0.18,-0.908 0.54,-1.2c0.359,-0.292 0.853,-0.438 1.479,-0.438c0.326,0 0.729,0.045 1.209,0.135l0.22,0.043l0,0.88c-0.591,-0.175 -1.06,-0.263 -1.407,-0.263c-0.68,0 -1.021,0.247 -1.021,0.741c0,0.319 0.258,0.588 0.774,0.806l0.51,0.215c0.577,0.243 0.985,0.5 1.225,0.771c0.24,0.27 0.36,0.608 0.36,1.012c0,0.512 -0.203,0.933 -0.607,1.262c-0.405,0.33 -0.922,0.494 -1.553,0.494Z" style="fill:#231f20;fill-rule:nonzero;"/><path d="M90.524,25.094c-0.538,0 -0.957,-0.153 -1.257,-0.461c-0.301,-0.308 -0.451,-0.736 -0.451,-1.284l0,-3.427l-0.731,0l0,-0.795l0.731,0l0,-1.058l1.058,-0.102l0,1.16l1.525,0l0,0.795l-1.525,0l0,3.234c0,0.762 0.329,1.144 0.988,1.144c0.14,0 0.31,-0.024 0.51,-0.07l0,0.73c-0.326,0.09 -0.609,0.134 -0.848,0.134Z" style="fill:#231f20;fill-rule:nonzero;"/><path d="M92.12,24.96l0,-5.833l1.059,0l0,1.096c0.418,-0.817 1.027,-1.225 1.826,-1.225c0.107,0 0.22,0.009 0.338,0.027l0,0.988c-0.183,-0.06 -0.344,-0.091 -0.483,-0.091c-0.67,0 -1.23,0.398 -1.681,1.192l0,3.846l-1.059,0Z" style="fill:#231f20;fill-rule:nonzero;"/><path d="M95.855,24.96l0,-5.833l1.058,0l0,5.833l-1.058,0Zm0,-6.891l0,-1.058l1.058,0l0,1.058l-1.058,0Z" style="fill:#231f20;fill-rule:nonzero;"/><path d="M98.268,25.025l0,-8.546l1.059,0l0,3.744c0.433,-0.817 1.083,-1.225 1.949,-1.225c0.702,0 1.254,0.256 1.657,0.768c0.403,0.512 0.604,1.212 0.604,2.1c0,0.967 -0.228,1.747 -0.684,2.34c-0.457,0.592 -1.058,0.888 -1.802,0.888c-0.691,0 -1.266,-0.264 -1.724,-0.794l-0.129,0.725l-0.93,0Zm1.059,-1.456c0.544,0.487 1.063,0.731 1.557,0.731c1.017,0 1.526,-0.776 1.526,-2.326c0,-1.368 -0.452,-2.052 -1.354,-2.052c-0.591,0 -1.167,0.321 -1.729,0.962l0,2.685Z" style="fill:#231f20;fill-rule:nonzero;"/><path d="M108.072,24.96l0,-1.096c-0.562,0.82 -1.244,1.23 -2.046,1.23c-0.508,0 -0.913,-0.16 -1.214,-0.48c-0.301,-0.321 -0.451,-0.753 -0.451,-1.297l0,-4.19l1.058,0l0,3.846c0,0.437 0.064,0.747 0.191,0.932c0.127,0.184 0.339,0.276 0.636,0.276c0.645,0 1.253,-0.424 1.826,-1.273l0,-3.781l1.059,0l0,5.833l-1.059,0Z" style="fill:#231f20;fill-rule:nonzero;"/><path d="M110.486,24.96l0,-5.833l1.058,0l0,5.833l-1.058,0Zm0,-6.891l0,-1.058l1.058,0l0,1.058l-1.058,0Z" style="fill:#231f20;fill-rule:nonzero;"/><path d="M112.899,24.96l0,-5.833l1.058,0l0,1.096c0.419,-0.817 1.028,-1.225 1.826,-1.225c0.108,0 0.221,0.009 0.339,0.027l0,0.988c-0.183,-0.06 -0.344,-0.091 -0.484,-0.091c-0.669,0 -1.23,0.398 -1.681,1.192l0,3.846l-1.058,0Z" style="fill:#231f20;fill-rule:nonzero;"/><rect x="119.348" y="16.479" width="1.058" height="8.481" style="fill:#231f20;fill-rule:nonzero;"/><path d="M124.769,24.219c-0.634,0.584 -1.244,0.875 -1.832,0.875c-0.483,0 -0.884,-0.151 -1.203,-0.453c-0.318,-0.303 -0.478,-0.685 -0.478,-1.147c0,-0.637 0.268,-1.127 0.803,-1.469c0.536,-0.342 1.303,-0.513 2.302,-0.513l0.252,0l0,-0.704c0,-0.676 -0.347,-1.015 -1.042,-1.015c-0.558,0 -1.162,0.172 -1.81,0.516l0,-0.876c0.713,-0.29 1.381,-0.435 2.004,-0.435c0.651,0 1.132,0.147 1.442,0.441c0.309,0.293 0.464,0.75 0.464,1.369l0,2.643c0,0.605 0.187,0.908 0.559,0.908c0.047,0 0.115,-0.008 0.204,-0.022l0.075,0.586c-0.24,0.114 -0.505,0.171 -0.795,0.171c-0.494,0 -0.809,-0.291 -0.945,-0.875Zm-0.156,-0.575l0,-1.509l-0.354,-0.011c-0.58,0 -1.049,0.11 -1.407,0.331c-0.359,0.22 -0.538,0.509 -0.538,0.867c0,0.254 0.09,0.469 0.269,0.645c0.179,0.175 0.397,0.263 0.655,0.263c0.441,0 0.899,-0.195 1.375,-0.586Z" style="fill:#231f20;fill-rule:nonzero;"/><path d="M131.331,25.094c-0.484,0 -1.071,-0.112 -1.762,-0.338l0,-0.972c0.691,0.344 1.292,0.516 1.805,0.516c0.304,0 0.556,-0.083 0.757,-0.248c0.2,-0.164 0.301,-0.37 0.301,-0.617c0,-0.362 -0.281,-0.661 -0.844,-0.897l-0.617,-0.263c-0.913,-0.38 -1.37,-0.926 -1.37,-1.639c0,-0.508 0.18,-0.908 0.54,-1.2c0.36,-0.292 0.853,-0.438 1.48,-0.438c0.325,0 0.728,0.045 1.208,0.135l0.22,0.043l0,0.88c-0.59,-0.175 -1.06,-0.263 -1.407,-0.263c-0.68,0 -1.02,0.247 -1.02,0.741c0,0.319 0.257,0.588 0.773,0.806l0.51,0.215c0.577,0.243 0.985,0.5 1.225,0.771c0.24,0.27 0.36,0.608 0.36,1.012c0,0.512 -0.203,0.933 -0.607,1.262c-0.405,0.33 -0.922,0.494 -1.552,0.494Z" style="fill:#231f20;fill-rule:nonzero;"/><path d="M137.633,24.219c-0.634,0.584 -1.245,0.875 -1.832,0.875c-0.483,0 -0.884,-0.151 -1.203,-0.453c-0.319,-0.303 -0.478,-0.685 -0.478,-1.147c0,-0.637 0.268,-1.127 0.803,-1.469c0.535,-0.342 1.302,-0.513 2.301,-0.513l0.253,0l0,-0.704c0,-0.676 -0.347,-1.015 -1.042,-1.015c-0.559,0 -1.162,0.172 -1.81,0.516l0,-0.876c0.712,-0.29 1.38,-0.435 2.003,-0.435c0.652,0 1.133,0.147 1.442,0.441c0.31,0.293 0.465,0.75 0.465,1.369l0,2.643c0,0.605 0.186,0.908 0.559,0.908c0.046,0 0.114,-0.008 0.204,-0.022l0.075,0.586c-0.24,0.114 -0.505,0.171 -0.795,0.171c-0.494,0 -0.809,-0.291 -0.945,-0.875Zm-0.156,-0.575l0,-1.509l-0.355,-0.011c-0.58,0 -1.049,0.11 -1.407,0.331c-0.358,0.22 -0.537,0.509 -0.537,0.867c0,0.254 0.09,0.469 0.269,0.645c0.179,0.175 0.397,0.263 0.655,0.263c0.44,0 0.899,-0.195 1.375,-0.586Z" style="fill:#231f20;fill-rule:nonzero;"/><path d="M139.933,24.96l0,-5.833l1.058,0l0,1.096c0.559,-0.817 1.243,-1.225 2.052,-1.225c0.505,0 0.908,0.161 1.209,0.481c0.3,0.32 0.451,0.751 0.451,1.292l0,4.189l-1.058,0l0,-3.846c0,-0.433 -0.064,-0.742 -0.191,-0.926c-0.127,-0.184 -0.338,-0.277 -0.631,-0.277c-0.648,0 -1.259,0.425 -1.832,1.273l0,3.776l-1.058,0Z" style="fill:#231f20;fill-rule:nonzero;"/><path d="M146.015,26.899l0.123,-0.918c0.613,0.29 1.216,0.435 1.811,0.435c1.192,0 1.788,-0.632 1.788,-1.896l0,-0.919c-0.39,0.817 -1.031,1.225 -1.923,1.225c-0.698,0 -1.253,-0.254 -1.665,-0.763c-0.412,-0.508 -0.617,-1.194 -0.617,-2.057c0,-0.888 0.234,-1.611 0.703,-2.17c0.469,-0.558 1.076,-0.838 1.821,-0.838c0.652,0 1.212,0.265 1.681,0.795l0,-0.666l1.064,0l0,4.243c0,0.913 -0.048,1.589 -0.143,2.028c-0.095,0.439 -0.273,0.798 -0.534,1.077c-0.462,0.49 -1.18,0.736 -2.154,0.736c-0.68,0 -1.332,-0.104 -1.955,-0.312Zm3.722,-3.958l0,-2.423c-0.465,-0.483 -0.972,-0.725 -1.52,-0.725c-0.487,0 -0.868,0.195 -1.144,0.586c-0.276,0.39 -0.414,0.925 -0.414,1.606c0,1.278 0.45,1.917 1.349,1.917c0.612,0 1.188,-0.32 1.729,-0.961Z" style="fill:#231f20;fill-rule:nonzero;"/><path d="M152.086,24.96l0,-5.833l1.058,0l0,1.096c0.419,-0.817 1.028,-1.225 1.826,-1.225c0.108,0 0.221,0.009 0.339,0.027l0,0.988c-0.183,-0.06 -0.344,-0.091 -0.484,-0.091c-0.669,0 -1.23,0.398 -1.681,1.192l0,3.846l-1.058,0Z" style="fill:#231f20;fill-rule:nonzero;"/><path d="M160.096,24.772c-0.709,0.215 -1.316,0.322 -1.821,0.322c-0.859,0 -1.56,-0.285 -2.103,-0.856c-0.542,-0.571 -0.813,-1.312 -0.813,-2.221c0,-0.885 0.239,-1.61 0.717,-2.175c0.478,-0.566 1.089,-0.849 1.834,-0.849c0.705,0 1.251,0.251 1.636,0.752c0.384,0.501 0.577,1.214 0.577,2.138l-0.005,0.327l-3.68,0c0.154,1.386 0.833,2.079 2.036,2.079c0.44,0 0.981,-0.118 1.622,-0.355l0,0.838Zm-3.609,-3.357l2.572,0c0,-1.085 -0.404,-1.627 -1.213,-1.627c-0.813,0 -1.266,0.542 -1.359,1.627Z" style="fill:#231f20;fill-rule:nonzero;"/><path d="M162.58,27.082l0,-7.955l1.058,0l0,1.096c0.433,-0.817 1.083,-1.225 1.95,-1.225c0.702,0 1.254,0.256 1.657,0.768c0.403,0.512 0.604,1.212 0.604,2.1c0,0.967 -0.228,1.747 -0.685,2.34c-0.456,0.592 -1.057,0.888 -1.802,0.888c-0.691,0 -1.265,-0.264 -1.724,-0.794l0,2.782l-1.058,0Zm1.058,-3.513c0.544,0.487 1.064,0.731 1.558,0.731c1.017,0 1.525,-0.776 1.525,-2.326c0,-1.368 -0.451,-2.052 -1.353,-2.052c-0.591,0 -1.168,0.321 -1.73,0.962l0,2.685Z" style="fill:#231f20;fill-rule:nonzero;"/><path d="M171.02,25.094c-0.834,0 -1.501,-0.276 -1.998,-0.829c-0.498,-0.554 -0.747,-1.294 -0.747,-2.221c0,-0.938 0.25,-1.681 0.749,-2.227c0.5,-0.546 1.178,-0.819 2.033,-0.819c0.856,0 1.534,0.273 2.033,0.819c0.5,0.546 0.75,1.285 0.75,2.216c0,0.952 -0.251,1.701 -0.752,2.245c-0.502,0.544 -1.191,0.816 -2.068,0.816Zm0.016,-0.794c1.121,0 1.681,-0.756 1.681,-2.267c0,-1.493 -0.553,-2.24 -1.66,-2.24c-1.102,0 -1.654,0.75 -1.654,2.251c0,1.504 0.544,2.256 1.633,2.256Z" style="fill:#231f20;fill-rule:nonzero;"/><path d="M174.728,24.96l0,-5.833l1.058,0l0,1.096c0.419,-0.817 1.027,-1.225 1.826,-1.225c0.107,0 0.22,0.009 0.338,0.027l0,0.988c-0.182,-0.06 -0.343,-0.091 -0.483,-0.091c-0.67,0 -1.23,0.398 -1.681,1.192l0,3.846l-1.058,0Z" style="fill:#231f20;fill-rule:nonzero;"/><path d="M182.927,25.094c-0.537,0 -0.956,-0.153 -1.256,-0.461c-0.301,-0.308 -0.452,-0.736 -0.452,-1.284l0,-3.427l-0.73,0l0,-0.795l0.73,0l0,-1.058l1.058,-0.102l0,1.16l1.526,0l0,0.795l-1.526,0l0,3.234c0,0.762 0.33,1.144 0.989,1.144c0.139,0 0.309,-0.024 0.51,-0.07l0,0.73c-0.326,0.09 -0.609,0.134 -0.849,0.134Z" style="fill:#231f20;fill-rule:nonzero;"/><path d="M186.807,25.094c-0.834,0 -1.5,-0.276 -1.998,-0.829c-0.498,-0.554 -0.747,-1.294 -0.747,-2.221c0,-0.938 0.25,-1.681 0.75,-2.227c0.499,-0.546 1.177,-0.819 2.033,-0.819c0.855,0 1.533,0.273 2.033,0.819c0.499,0.546 0.749,1.285 0.749,2.216c0,0.952 -0.251,1.701 -0.752,2.245c-0.501,0.544 -1.191,0.816 -2.068,0.816Zm0.016,-0.794c1.121,0 1.681,-0.756 1.681,-2.267c0,-1.493 -0.553,-2.24 -1.659,-2.24c-1.103,0 -1.655,0.75 -1.655,2.251c0,1.504 0.545,2.256 1.633,2.256Z" style="fill:#231f20;fill-rule:nonzero;"/><path d="M194.258,24.96l0,-1.096c-0.429,0.82 -1.077,1.23 -1.944,1.23c-0.702,0 -1.254,-0.256 -1.657,-0.768c-0.403,-0.512 -0.604,-1.212 -0.604,-2.1c0,-0.97 0.228,-1.751 0.685,-2.341c0.456,-0.591 1.057,-0.887 1.802,-0.887c0.691,0 1.264,0.265 1.718,0.795l0,-3.314l1.064,0l0,8.481l-1.064,0Zm0,-4.442c-0.547,-0.483 -1.067,-0.725 -1.557,-0.725c-1.014,0 -1.52,0.775 -1.52,2.326c0,1.364 0.451,2.046 1.353,2.046c0.588,0 1.162,-0.32 1.724,-0.961l0,-2.686Z" style="fill:#231f20;fill-rule:nonzero;"/><path d="M198.954,25.094c-0.834,0 -1.5,-0.276 -1.998,-0.829c-0.497,-0.554 -0.746,-1.294 -0.746,-2.221c0,-0.938 0.25,-1.681 0.749,-2.227c0.5,-0.546 1.177,-0.819 2.033,-0.819c0.856,0 1.534,0.273 2.033,0.819c0.5,0.546 0.749,1.285 0.749,2.216c0,0.952 -0.25,1.701 -0.752,2.245c-0.501,0.544 -1.19,0.816 -2.068,0.816Zm0.017,-0.794c1.12,0 1.681,-0.756 1.681,-2.267c0,-1.493 -0.553,-2.24 -1.66,-2.24c-1.103,0 -1.654,0.75 -1.654,2.251c0,1.504 0.544,2.256 1.633,2.256Z" style="fill:#231f20;fill-rule:nonzero;"/><path d="M204.209,25.094c-0.483,0 -1.07,-0.112 -1.762,-0.338l0,-0.972c0.692,0.344 1.293,0.516 1.805,0.516c0.304,0 0.557,-0.083 0.757,-0.248c0.201,-0.164 0.301,-0.37 0.301,-0.617c0,-0.362 -0.281,-0.661 -0.843,-0.897l-0.618,-0.263c-0.913,-0.38 -1.369,-0.926 -1.369,-1.639c0,-0.508 0.18,-0.908 0.539,-1.2c0.36,-0.292 0.854,-0.438 1.48,-0.438c0.326,0 0.729,0.045 1.209,0.135l0.22,0.043l0,0.88c-0.591,-0.175 -1.06,-0.263 -1.407,-0.263c-0.681,0 -1.021,0.247 -1.021,0.741c0,0.319 0.258,0.588 0.774,0.806l0.51,0.215c0.576,0.243 0.985,0.5 1.224,0.771c0.24,0.27 0.36,0.608 0.36,1.012c0,0.512 -0.202,0.933 -0.607,1.262c-0.404,0.33 -0.922,0.494 -1.552,0.494Z" style="fill:#231f20;fill-rule:nonzero;"/><rect x="209.352" y="16.479" width="1.058" height="8.481" style="fill:#231f20;fill-rule:nonzero;"/><path d="M214.048,25.094c-0.834,0 -1.5,-0.276 -1.998,-0.829c-0.498,-0.554 -0.746,-1.294 -0.746,-2.221c0,-0.938 0.249,-1.681 0.749,-2.227c0.499,-0.546 1.177,-0.819 2.033,-0.819c0.856,0 1.533,0.273 2.033,0.819c0.499,0.546 0.749,1.285 0.749,2.216c0,0.952 -0.251,1.701 -0.752,2.245c-0.501,0.544 -1.191,0.816 -2.068,0.816Zm0.016,-0.794c1.121,0 1.681,-0.756 1.681,-2.267c0,-1.493 -0.553,-2.24 -1.659,-2.24c-1.103,0 -1.655,0.75 -1.655,2.251c0,1.504 0.545,2.256 1.633,2.256Z" style="fill:#231f20;fill-rule:nonzero;"/><path d="M219.303,25.094c-0.484,0 -1.071,-0.112 -1.762,-0.338l0,-0.972c0.691,0.344 1.293,0.516 1.805,0.516c0.304,0 0.557,-0.083 0.757,-0.248c0.201,-0.164 0.301,-0.37 0.301,-0.617c0,-0.362 -0.281,-0.661 -0.843,-0.897l-0.618,-0.263c-0.913,-0.38 -1.37,-0.926 -1.37,-1.639c0,-0.508 0.18,-0.908 0.54,-1.2c0.36,-0.292 0.853,-0.438 1.48,-0.438c0.326,0 0.729,0.045 1.208,0.135l0.221,0.043l0,0.88c-0.591,-0.175 -1.06,-0.263 -1.408,-0.263c-0.68,0 -1.02,0.247 -1.02,0.741c0,0.319 0.258,0.588 0.773,0.806l0.511,0.215c0.576,0.243 0.984,0.5 1.224,0.771c0.24,0.27 0.36,0.608 0.36,1.012c0,0.512 -0.202,0.933 -0.607,1.262c-0.405,0.33 -0.922,0.494 -1.552,0.494Z" style="fill:#231f20;fill-rule:nonzero;"/><path d="M226.958,25.094c-0.834,0 -1.501,-0.276 -1.998,-0.829c-0.498,-0.554 -0.747,-1.294 -0.747,-2.221c0,-0.938 0.25,-1.681 0.749,-2.227c0.5,-0.546 1.178,-0.819 2.033,-0.819c0.856,0 1.534,0.273 2.033,0.819c0.5,0.546 0.75,1.285 0.75,2.216c0,0.952 -0.251,1.701 -0.752,2.245c-0.502,0.544 -1.191,0.816 -2.068,0.816Zm0.016,-0.794c1.121,0 1.681,-0.756 1.681,-2.267c0,-1.493 -0.553,-2.24 -1.66,-2.24c-1.102,0 -1.654,0.75 -1.654,2.251c0,1.504 0.544,2.256 1.633,2.256Zm-0.774,-6.231l1.295,-1.724l1.225,0l-1.725,1.724l-0.795,0Z" style="fill:#231f20;fill-rule:nonzero;"/><path d="M230.666,24.96l0,-5.833l1.058,0l0,1.096c0.419,-0.817 1.027,-1.225 1.826,-1.225c0.107,0 0.22,0.009 0.338,0.027l0,0.988c-0.182,-0.06 -0.343,-0.091 -0.483,-0.091c-0.67,0 -1.23,0.398 -1.681,1.192l0,3.846l-1.058,0Z" style="fill:#231f20;fill-rule:nonzero;"/><path d="M234.422,26.899l0.123,-0.918c0.613,0.29 1.216,0.435 1.81,0.435c1.193,0 1.789,-0.632 1.789,-1.896l0,-0.919c-0.39,0.817 -1.031,1.225 -1.923,1.225c-0.698,0 -1.253,-0.254 -1.665,-0.763c-0.412,-0.508 -0.618,-1.194 -0.618,-2.057c0,-0.888 0.235,-1.611 0.704,-2.17c0.469,-0.558 1.076,-0.838 1.821,-0.838c0.651,0 1.212,0.265 1.681,0.795l0,-0.666l1.063,0l0,4.243c0,0.913 -0.047,1.589 -0.142,2.028c-0.095,0.439 -0.273,0.798 -0.534,1.077c-0.462,0.49 -1.18,0.736 -2.154,0.736c-0.681,0 -1.332,-0.104 -1.955,-0.312Zm3.722,-3.958l0,-2.423c-0.466,-0.483 -0.972,-0.725 -1.52,-0.725c-0.487,0 -0.868,0.195 -1.144,0.586c-0.276,0.39 -0.414,0.925 -0.414,1.606c0,1.278 0.45,1.917 1.348,1.917c0.613,0 1.189,-0.32 1.73,-0.961Z" style="fill:#231f20;fill-rule:nonzero;"/><path d="M243.501,24.219c-0.634,0.584 -1.245,0.875 -1.832,0.875c-0.483,0 -0.884,-0.151 -1.203,-0.453c-0.319,-0.303 -0.478,-0.685 -0.478,-1.147c0,-0.637 0.268,-1.127 0.803,-1.469c0.535,-0.342 1.302,-0.513 2.301,-0.513l0.253,0l0,-0.704c0,-0.676 -0.347,-1.015 -1.042,-1.015c-0.559,0 -1.162,0.172 -1.81,0.516l0,-0.876c0.712,-0.29 1.38,-0.435 2.003,-0.435c0.652,0 1.133,0.147 1.442,0.441c0.31,0.293 0.465,0.75 0.465,1.369l0,2.643c0,0.605 0.186,0.908 0.559,0.908c0.046,0 0.114,-0.008 0.204,-0.022l0.075,0.586c-0.24,0.114 -0.505,0.171 -0.795,0.171c-0.494,0 -0.809,-0.291 -0.945,-0.875Zm-0.156,-0.575l0,-1.509l-0.355,-0.011c-0.58,0 -1.049,0.11 -1.407,0.331c-0.358,0.22 -0.537,0.509 -0.537,0.867c0,0.254 0.09,0.469 0.269,0.645c0.179,0.175 0.397,0.263 0.655,0.263c0.44,0 0.899,-0.195 1.375,-0.586Z" style="fill:#231f20;fill-rule:nonzero;"/><path d="M245.801,24.96l0,-5.833l1.058,0l0,1.096c0.559,-0.817 1.243,-1.225 2.052,-1.225c0.505,0 0.908,0.161 1.209,0.481c0.3,0.32 0.451,0.751 0.451,1.292l0,4.189l-1.058,0l0,-3.846c0,-0.433 -0.064,-0.742 -0.191,-0.926c-0.127,-0.184 -0.338,-0.277 -0.631,-0.277c-0.648,0 -1.259,0.425 -1.832,1.273l0,3.776l-1.058,0Z" style="fill:#231f20;fill-rule:nonzero;"/><path d="M254.144,25.094c-0.834,0 -1.5,-0.276 -1.998,-0.829c-0.498,-0.554 -0.746,-1.294 -0.746,-2.221c0,-0.938 0.249,-1.681 0.749,-2.227c0.499,-0.546 1.177,-0.819 2.033,-0.819c0.856,0 1.533,0.273 2.033,0.819c0.499,0.546 0.749,1.285 0.749,2.216c0,0.952 -0.251,1.701 -0.752,2.245c-0.501,0.544 -1.191,0.816 -2.068,0.816Zm0.016,-0.794c1.121,0 1.681,-0.756 1.681,-2.267c0,-1.493 -0.553,-2.24 -1.659,-2.24c-1.103,0 -1.655,0.75 -1.655,2.251c0,1.504 0.545,2.256 1.633,2.256Z" style="fill:#231f20;fill-rule:nonzero;"/><path d="M259.399,25.094c-0.484,0 -1.071,-0.112 -1.762,-0.338l0,-0.972c0.691,0.344 1.293,0.516 1.805,0.516c0.304,0 0.557,-0.083 0.757,-0.248c0.201,-0.164 0.301,-0.37 0.301,-0.617c0,-0.362 -0.281,-0.661 -0.843,-0.897l-0.618,-0.263c-0.913,-0.38 -1.37,-0.926 -1.37,-1.639c0,-0.508 0.18,-0.908 0.54,-1.2c0.36,-0.292 0.853,-0.438 1.48,-0.438c0.326,0 0.729,0.045 1.208,0.135l0.221,0.043l0,0.88c-0.591,-0.175 -1.06,-0.263 -1.408,-0.263c-0.68,0 -1.02,0.247 -1.02,0.741c0,0.319 0.258,0.588 0.773,0.806l0.511,0.215c0.576,0.243 0.984,0.5 1.224,0.771c0.24,0.27 0.36,0.608 0.36,1.012c0,0.512 -0.202,0.933 -0.607,1.262c-0.405,0.33 -0.922,0.494 -1.552,0.494Z" style="fill:#231f20;fill-rule:nonzero;"/><path d="M264.846,27.082l0.945,-2.122l-2.256,-5.833l1.144,0l1.67,4.394l1.784,-4.394l0.999,0l-3.185,7.955l-1.101,0Z" style="fill:#231f20;fill-rule:nonzero;"/><path d="M273.953,25.094c-0.537,0 -0.956,-0.153 -1.257,-0.461c-0.301,-0.308 -0.451,-0.736 -0.451,-1.284l0,-3.427l-0.73,0l0,-0.795l0.73,0l0,-1.058l1.058,-0.102l0,1.16l1.526,0l0,0.795l-1.526,0l0,3.234c0,0.762 0.33,1.144 0.988,1.144c0.14,0 0.31,-0.024 0.511,-0.07l0,0.73c-0.326,0.09 -0.609,0.134 -0.849,0.134Z" style="fill:#231f20;fill-rule:nonzero;"/><path d="M279.825,24.772c-0.709,0.215 -1.316,0.322 -1.82,0.322c-0.86,0 -1.561,-0.285 -2.103,-0.856c-0.543,-0.571 -0.814,-1.312 -0.814,-2.221c0,-0.885 0.239,-1.61 0.717,-2.175c0.478,-0.566 1.09,-0.849 1.834,-0.849c0.706,0 1.251,0.251 1.636,0.752c0.385,0.501 0.577,1.214 0.577,2.138l-0.005,0.327l-3.679,0c0.154,1.386 0.832,2.079 2.035,2.079c0.441,0 0.981,-0.118 1.622,-0.355l0,0.838Zm-3.609,-3.357l2.573,0c0,-1.085 -0.405,-1.627 -1.214,-1.627c-0.813,0 -1.266,0.542 -1.359,1.627Z" style="fill:#231f20;fill-rule:nonzero;"/><path d="M279.027,26.942l0,-0.838c0.494,0.208 0.87,0.312 1.128,0.312c0.372,0 0.619,-0.097 0.741,-0.29c0.122,-0.194 0.183,-0.582 0.183,-1.166l0,-5.833l1.063,0l0,5.833c0,1.501 -0.634,2.251 -1.901,2.251c-0.376,0 -0.781,-0.09 -1.214,-0.269Zm2.052,-8.873l0,-1.058l1.063,0l0,1.058l-1.063,0Z" style="fill:#231f20;fill-rule:nonzero;"/><path d="M283.492,24.96l0,-5.833l1.058,0l0,5.833l-1.058,0Zm0,-6.891l0,-1.058l1.058,0l0,1.058l-1.058,0Z" style="fill:#231f20;fill-rule:nonzero;"/><path d="M289.649,24.96l0,-1.096c-0.43,0.82 -1.078,1.23 -1.944,1.23c-0.702,0 -1.255,-0.256 -1.657,-0.768c-0.403,-0.512 -0.605,-1.212 -0.605,-2.1c0,-0.97 0.229,-1.751 0.685,-2.341c0.457,-0.591 1.057,-0.887 1.802,-0.887c0.691,0 1.264,0.265 1.719,0.795l0,-3.314l1.063,0l0,8.481l-1.063,0Zm0,-4.442c-0.548,-0.483 -1.067,-0.725 -1.558,-0.725c-1.013,0 -1.52,0.775 -1.52,2.326c0,1.364 0.451,2.046 1.354,2.046c0.587,0 1.162,-0.32 1.724,-0.961l0,-2.686Z" style="fill:#231f20;fill-rule:nonzero;"/><path d="M294.345,25.094c-0.834,0 -1.5,-0.276 -1.998,-0.829c-0.498,-0.554 -0.747,-1.294 -0.747,-2.221c0,-0.938 0.25,-1.681 0.75,-2.227c0.499,-0.546 1.177,-0.819 2.033,-0.819c0.855,0 1.533,0.273 2.033,0.819c0.499,0.546 0.749,1.285 0.749,2.216c0,0.952 -0.251,1.701 -0.752,2.245c-0.501,0.544 -1.191,0.816 -2.068,0.816Zm0.016,-0.794c1.121,0 1.681,-0.756 1.681,-2.267c0,-1.493 -0.553,-2.24 -1.659,-2.24c-1.103,0 -1.655,0.75 -1.655,2.251c0,1.504 0.545,2.256 1.633,2.256Z" style="fill:#231f20;fill-rule:nonzero;"/><path d="M299.6,25.094c-0.484,0 -1.071,-0.112 -1.762,-0.338l0,-0.972c0.691,0.344 1.293,0.516 1.805,0.516c0.304,0 0.556,-0.083 0.757,-0.248c0.2,-0.164 0.301,-0.37 0.301,-0.617c0,-0.362 -0.281,-0.661 -0.844,-0.897l-0.617,-0.263c-0.913,-0.38 -1.37,-0.926 -1.37,-1.639c0,-0.508 0.18,-0.908 0.54,-1.2c0.36,-0.292 0.853,-0.438 1.48,-0.438c0.326,0 0.728,0.045 1.208,0.135l0.22,0.043l0,0.88c-0.59,-0.175 -1.06,-0.263 -1.407,-0.263c-0.68,0 -1.02,0.247 -1.02,0.741c0,0.319 0.257,0.588 0.773,0.806l0.51,0.215c0.577,0.243 0.985,0.5 1.225,0.771c0.24,0.27 0.36,0.608 0.36,1.012c0,0.512 -0.203,0.933 -0.607,1.262c-0.405,0.33 -0.922,0.494 -1.552,0.494Z" style="fill:#231f20;fill-rule:nonzero;"/><path d="M309.352,24.96l0,-1.096c-0.43,0.82 -1.078,1.23 -1.945,1.23c-0.702,0 -1.254,-0.256 -1.657,-0.768c-0.403,-0.512 -0.604,-1.212 -0.604,-2.1c0,-0.97 0.228,-1.751 0.685,-2.341c0.456,-0.591 1.057,-0.887 1.802,-0.887c0.691,0 1.264,0.265 1.719,0.795l0,-3.314l1.063,0l0,8.481l-1.063,0Zm0,-4.442c-0.548,-0.483 -1.067,-0.725 -1.558,-0.725c-1.013,0 -1.52,0.775 -1.52,2.326c0,1.364 0.451,2.046 1.353,2.046c0.588,0 1.162,-0.32 1.725,-0.961l0,-2.686Z" style="fill:#231f20;fill-rule:nonzero;"/><path d="M316.04,24.772c-0.709,0.215 -1.316,0.322 -1.82,0.322c-0.86,0 -1.561,-0.285 -2.103,-0.856c-0.543,-0.571 -0.814,-1.312 -0.814,-2.221c0,-0.885 0.239,-1.61 0.717,-2.175c0.478,-0.566 1.09,-0.849 1.834,-0.849c0.706,0 1.251,0.251 1.636,0.752c0.385,0.501 0.577,1.214 0.577,2.138l-0.005,0.327l-3.679,0c0.154,1.386 0.832,2.079 2.035,2.079c0.441,0 0.981,-0.118 1.622,-0.355l0,0.838Zm-3.609,-3.357l2.573,0c0,-1.085 -0.405,-1.627 -1.214,-1.627c-0.813,0 -1.266,0.542 -1.359,1.627Z" style="fill:#231f20;fill-rule:nonzero;"/><rect x="317.127" y="16.479" width="1.058" height="8.481" style="fill:#231f20;fill-rule:nonzero;"/><path d="M324.532,25.094c-0.788,0 -1.441,-0.291 -1.961,-0.875c-0.519,-0.584 -0.778,-1.32 -0.778,-2.208c0,-0.948 0.257,-1.688 0.77,-2.218c0.514,-0.53 1.231,-0.795 2.151,-0.795c0.455,0 0.964,0.063 1.526,0.188l0,0.887c-0.598,-0.176 -1.085,-0.264 -1.461,-0.264c-0.541,0 -0.975,0.204 -1.303,0.61c-0.327,0.406 -0.491,0.948 -0.491,1.625c0,0.655 0.168,1.185 0.505,1.59c0.336,0.404 0.777,0.606 1.321,0.606c0.484,0 0.981,-0.123 1.493,-0.37l0,0.913c-0.684,0.208 -1.274,0.311 -1.772,0.311Z" style="fill:#231f20;fill-rule:nonzero;"/><path d="M330.769,24.96l0,-1.096c-0.562,0.82 -1.244,1.23 -2.046,1.23c-0.508,0 -0.913,-0.16 -1.214,-0.48c-0.301,-0.321 -0.451,-0.753 -0.451,-1.297l0,-4.19l1.058,0l0,3.846c0,0.437 0.064,0.747 0.191,0.932c0.127,0.184 0.339,0.276 0.636,0.276c0.645,0 1.253,-0.424 1.826,-1.273l0,-3.781l1.059,0l0,5.833l-1.059,0Z" style="fill:#231f20;fill-rule:nonzero;"/><path d="M337.458,24.772c-0.709,0.215 -1.316,0.322 -1.821,0.322c-0.859,0 -1.56,-0.285 -2.102,-0.856c-0.543,-0.571 -0.814,-1.312 -0.814,-2.221c0,-0.885 0.239,-1.61 0.717,-2.175c0.478,-0.566 1.089,-0.849 1.834,-0.849c0.706,0 1.251,0.251 1.636,0.752c0.385,0.501 0.577,1.214 0.577,2.138l-0.005,0.327l-3.68,0c0.154,1.386 0.833,2.079 2.036,2.079c0.441,0 0.981,-0.118 1.622,-0.355l0,0.838Zm-3.609,-3.357l2.573,0c0,-1.085 -0.405,-1.627 -1.214,-1.627c-0.813,0 -1.266,0.542 -1.359,1.627Z" style="fill:#231f20;fill-rule:nonzero;"/><path d="M338.545,24.96l0,-5.833l1.058,0l0,1.096c0.419,-0.817 1.028,-1.225 1.826,-1.225c0.108,0 0.22,0.009 0.338,0.027l0,0.988c-0.182,-0.06 -0.343,-0.091 -0.483,-0.091c-0.669,0 -1.23,0.398 -1.681,1.192l0,3.846l-1.058,0Z" style="fill:#231f20;fill-rule:nonzero;"/><path d="M342.279,27.082l0,-7.955l1.059,0l0,1.096c0.433,-0.817 1.083,-1.225 1.949,-1.225c0.702,0 1.254,0.256 1.657,0.768c0.403,0.512 0.605,1.212 0.605,2.1c0,0.967 -0.229,1.747 -0.685,2.34c-0.457,0.592 -1.058,0.888 -1.802,0.888c-0.691,0 -1.266,-0.264 -1.724,-0.794l0,2.782l-1.059,0Zm1.059,-3.513c0.544,0.487 1.063,0.731 1.557,0.731c1.017,0 1.526,-0.776 1.526,-2.326c0,-1.368 -0.452,-2.052 -1.354,-2.052c-0.591,0 -1.167,0.321 -1.729,0.962l0,2.685Z" style="fill:#231f20;fill-rule:nonzero;"/><path d="M350.719,25.094c-0.834,0 -1.5,-0.276 -1.998,-0.829c-0.498,-0.554 -0.746,-1.294 -0.746,-2.221c0,-0.938 0.249,-1.681 0.749,-2.227c0.499,-0.546 1.177,-0.819 2.033,-0.819c0.856,0 1.533,0.273 2.033,0.819c0.499,0.546 0.749,1.285 0.749,2.216c0,0.952 -0.251,1.701 -0.752,2.245c-0.501,0.544 -1.191,0.816 -2.068,0.816Zm0.016,-0.794c1.121,0 1.681,-0.756 1.681,-2.267c0,-1.493 -0.553,-2.24 -1.659,-2.24c-1.103,0 -1.655,0.75 -1.655,2.251c0,1.504 0.545,2.256 1.633,2.256Z" style="fill:#231f20;fill-rule:nonzero;"/><rect x="354.443" y="23.634" width="1.327" height="1.327" style="fill:#231f20;fill-rule:nonzero;"/><path d="M11.958,35.96l0,-7.949l4.442,0l0,0.843l-3.314,0l0,2.552l2.777,0l0,0.832l-2.777,0l0,2.879l3.545,0l0,0.843l-4.673,0Z" style="fill:#231f20;fill-rule:nonzero;"/><path d="M18.776,36.094c-0.483,0 -1.07,-0.112 -1.761,-0.338l0,-0.972c0.691,0.344 1.292,0.516 1.804,0.516c0.305,0 0.557,-0.083 0.758,-0.248c0.2,-0.164 0.3,-0.37 0.3,-0.617c0,-0.362 -0.281,-0.661 -0.843,-0.897l-0.618,-0.263c-0.913,-0.38 -1.369,-0.926 -1.369,-1.639c0,-0.508 0.18,-0.908 0.54,-1.2c0.359,-0.292 0.853,-0.438 1.479,-0.438c0.326,0 0.729,0.045 1.209,0.135l0.22,0.043l0,0.88c-0.591,-0.175 -1.06,-0.263 -1.407,-0.263c-0.681,0 -1.021,0.247 -1.021,0.741c0,0.319 0.258,0.588 0.774,0.806l0.51,0.215c0.576,0.243 0.985,0.5 1.225,0.771c0.239,0.27 0.359,0.608 0.359,1.012c0,0.512 -0.202,0.933 -0.607,1.262c-0.404,0.33 -0.922,0.494 -1.552,0.494Z" style="fill:#231f20;fill-rule:nonzero;"/><path d="M23.865,36.094c-0.537,0 -0.956,-0.153 -1.257,-0.461c-0.3,-0.308 -0.451,-0.736 -0.451,-1.284l0,-3.427l-0.73,0l0,-0.795l0.73,0l0,-1.058l1.058,-0.102l0,1.16l1.526,0l0,0.795l-1.526,0l0,3.234c0,0.762 0.33,1.144 0.989,1.144c0.139,0 0.309,-0.024 0.51,-0.07l0,0.73c-0.326,0.09 -0.609,0.134 -0.849,0.134Z" style="fill:#231f20;fill-rule:nonzero;"/><path d="M28.514,35.219c-0.634,0.584 -1.245,0.875 -1.832,0.875c-0.483,0 -0.884,-0.151 -1.203,-0.453c-0.319,-0.303 -0.478,-0.685 -0.478,-1.147c0,-0.637 0.268,-1.127 0.803,-1.469c0.535,-0.342 1.302,-0.513 2.301,-0.513l0.253,0l0,-0.704c0,-0.676 -0.348,-1.015 -1.042,-1.015c-0.559,0 -1.162,0.172 -1.81,0.516l0,-0.876c0.712,-0.29 1.38,-0.435 2.003,-0.435c0.652,0 1.133,0.147 1.442,0.441c0.31,0.293 0.465,0.75 0.465,1.369l0,2.643c0,0.605 0.186,0.908 0.559,0.908c0.046,0 0.114,-0.008 0.204,-0.022l0.075,0.586c-0.24,0.114 -0.505,0.171 -0.795,0.171c-0.494,0 -0.809,-0.291 -0.945,-0.875Zm-0.156,-0.575l0,-1.509l-0.355,-0.011c-0.58,0 -1.049,0.11 -1.407,0.331c-0.358,0.22 -0.537,0.509 -0.537,0.867c0,0.254 0.09,0.469 0.269,0.645c0.179,0.175 0.397,0.263 0.655,0.263c0.44,0 0.899,-0.195 1.375,-0.586Zm-1.622,-5.575l1.294,-1.724l1.225,0l-1.724,1.724l-0.795,0Z" style="fill:#231f20;fill-rule:nonzero;"/><path d="M35.31,36.094c-0.787,0 -1.441,-0.291 -1.96,-0.875c-0.519,-0.584 -0.779,-1.32 -0.779,-2.208c0,-0.948 0.257,-1.688 0.771,-2.218c0.514,-0.53 1.231,-0.795 2.151,-0.795c0.455,0 0.963,0.063 1.525,0.188l0,0.887c-0.598,-0.176 -1.085,-0.264 -1.46,-0.264c-0.541,0 -0.975,0.204 -1.303,0.61c-0.328,0.406 -0.491,0.948 -0.491,1.625c0,0.655 0.168,1.185 0.504,1.59c0.337,0.404 0.777,0.606 1.322,0.606c0.483,0 0.981,-0.123 1.493,-0.37l0,0.913c-0.684,0.208 -1.275,0.311 -1.773,0.311Z" style="fill:#231f20;fill-rule:nonzero;"/><path d="M40.227,36.094c-0.834,0 -1.5,-0.276 -1.998,-0.829c-0.497,-0.554 -0.746,-1.294 -0.746,-2.221c0,-0.938 0.25,-1.681 0.749,-2.227c0.5,-0.546 1.177,-0.819 2.033,-0.819c0.856,0 1.533,0.273 2.033,0.819c0.5,0.546 0.749,1.285 0.749,2.216c0,0.952 -0.25,1.701 -0.752,2.245c-0.501,0.544 -1.19,0.816 -2.068,0.816Zm0.017,-0.794c1.12,0 1.681,-0.756 1.681,-2.267c0,-1.493 -0.554,-2.24 -1.66,-2.24c-1.103,0 -1.654,0.75 -1.654,2.251c0,1.504 0.544,2.256 1.633,2.256Z" style="fill:#231f20;fill-rule:nonzero;"/><path d="M43.979,35.96l0,-5.833l1.058,0l0,1.096c0.559,-0.817 1.243,-1.225 2.052,-1.225c0.505,0 0.908,0.161 1.208,0.481c0.301,0.32 0.451,0.751 0.451,1.292l0,4.189l-1.058,0l0,-3.846c0,-0.433 -0.063,-0.742 -0.19,-0.926c-0.127,-0.184 -0.338,-0.277 -0.631,-0.277c-0.649,0 -1.259,0.425 -1.832,1.273l0,3.776l-1.058,0Z" style="fill:#231f20;fill-rule:nonzero;"/><path d="M51.345,30.922l0,5.038l-1.063,0l0,-5.038l-0.827,0l0,-0.795l0.827,0l0,-0.698c0,-1.389 0.633,-2.084 1.901,-2.084c0.355,0 0.757,0.059 1.209,0.177l0,0.838c-0.477,-0.147 -0.858,-0.22 -1.145,-0.22c-0.347,0 -0.584,0.083 -0.711,0.25c-0.127,0.166 -0.191,0.475 -0.191,0.926l0,0.811l1.456,0l0,0.795l-1.456,0Z" style="fill:#231f20;fill-rule:nonzero;"/><path d="M55.687,36.094c-0.834,0 -1.5,-0.276 -1.998,-0.829c-0.497,-0.554 -0.746,-1.294 -0.746,-2.221c0,-0.938 0.25,-1.681 0.749,-2.227c0.5,-0.546 1.177,-0.819 2.033,-0.819c0.856,0 1.533,0.273 2.033,0.819c0.5,0.546 0.749,1.285 0.749,2.216c0,0.952 -0.25,1.701 -0.752,2.245c-0.501,0.544 -1.19,0.816 -2.068,0.816Zm0.017,-0.794c1.12,0 1.681,-0.756 1.681,-2.267c0,-1.493 -0.554,-2.24 -1.66,-2.24c-1.103,0 -1.654,0.75 -1.654,2.251c0,1.504 0.544,2.256 1.633,2.256Z" style="fill:#231f20;fill-rule:nonzero;"/><path d="M59.439,35.96l0,-5.833l1.058,0l0,1.096c0.419,-0.817 1.028,-1.225 1.826,-1.225c0.108,0 0.22,0.009 0.339,0.027l0,0.988c-0.183,-0.06 -0.344,-0.091 -0.484,-0.091c-0.669,0 -1.23,0.398 -1.681,1.192l0,3.846l-1.058,0Z" style="fill:#231f20;fill-rule:nonzero;"/><path d="M63.217,35.96l0,-5.833l1.058,0l0,1.096c0.516,-0.817 1.178,-1.225 1.988,-1.225c0.78,0 1.312,0.408 1.595,1.225c0.501,-0.82 1.153,-1.23 1.955,-1.23c0.516,0 0.915,0.151 1.198,0.454c0.283,0.302 0.424,0.726 0.424,1.27l0,4.243l-1.063,0l0,-4.076c0,-0.666 -0.264,-0.999 -0.79,-0.999c-0.548,0 -1.123,0.388 -1.724,1.165l0,3.91l-1.064,0l0,-4.076c0,-0.67 -0.268,-1.005 -0.805,-1.005c-0.534,0 -1.105,0.39 -1.714,1.171l0,3.91l-1.058,0Z" style="fill:#231f20;fill-rule:nonzero;"/><path d="M75.772,35.219c-0.634,0.584 -1.244,0.875 -1.832,0.875c-0.483,0 -0.884,-0.151 -1.203,-0.453c-0.318,-0.303 -0.478,-0.685 -0.478,-1.147c0,-0.637 0.268,-1.127 0.803,-1.469c0.536,-0.342 1.303,-0.513 2.302,-0.513l0.252,0l0,-0.704c0,-0.676 -0.347,-1.015 -1.042,-1.015c-0.558,0 -1.162,0.172 -1.81,0.516l0,-0.876c0.713,-0.29 1.381,-0.435 2.004,-0.435c0.651,0 1.132,0.147 1.442,0.441c0.309,0.293 0.464,0.75 0.464,1.369l0,2.643c0,0.605 0.186,0.908 0.559,0.908c0.046,0 0.114,-0.008 0.204,-0.022l0.075,0.586c-0.24,0.114 -0.505,0.171 -0.795,0.171c-0.494,0 -0.809,-0.291 -0.945,-0.875Zm-0.156,-0.575l0,-1.509l-0.354,-0.011c-0.58,0 -1.049,0.11 -1.408,0.331c-0.358,0.22 -0.537,0.509 -0.537,0.867c0,0.254 0.09,0.469 0.269,0.645c0.179,0.175 0.397,0.263 0.655,0.263c0.441,0 0.899,-0.195 1.375,-0.586Z" style="fill:#231f20;fill-rule:nonzero;"/><path d="M81.86,35.96l0,-1.096c-0.43,0.82 -1.078,1.23 -1.944,1.23c-0.702,0 -1.255,-0.256 -1.657,-0.768c-0.403,-0.512 -0.605,-1.212 -0.605,-2.1c0,-0.97 0.229,-1.751 0.685,-2.341c0.457,-0.591 1.057,-0.887 1.802,-0.887c0.691,0 1.264,0.265 1.719,0.795l0,-3.314l1.063,0l0,8.481l-1.063,0Zm0,-4.442c-0.548,-0.483 -1.067,-0.725 -1.558,-0.725c-1.013,0 -1.52,0.775 -1.52,2.326c0,1.364 0.451,2.046 1.354,2.046c0.587,0 1.162,-0.32 1.724,-0.961l0,-2.686Z" style="fill:#231f20;fill-rule:nonzero;"/><path d="M86.6,36.094c-0.835,0 -1.501,-0.276 -1.998,-0.829c-0.498,-0.554 -0.747,-1.294 -0.747,-2.221c0,-0.938 0.25,-1.681 0.749,-2.227c0.5,-0.546 1.177,-0.819 2.033,-0.819c0.856,0 1.534,0.273 2.033,0.819c0.5,0.546 0.749,1.285 0.749,2.216c0,0.952 -0.25,1.701 -0.752,2.245c-0.501,0.544 -1.19,0.816 -2.067,0.816Zm0.016,-0.794c1.12,0 1.681,-0.756 1.681,-2.267c0,-1.493 -0.553,-2.24 -1.66,-2.24c-1.103,0 -1.654,0.75 -1.654,2.251c0,1.504 0.544,2.256 1.633,2.256Z" style="fill:#231f20;fill-rule:nonzero;"/><path d="M91.839,38.082l0,-7.955l1.058,0l0,1.096c0.433,-0.817 1.083,-1.225 1.95,-1.225c0.702,0 1.254,0.256 1.657,0.768c0.403,0.512 0.604,1.212 0.604,2.1c0,0.967 -0.228,1.747 -0.685,2.34c-0.456,0.592 -1.057,0.888 -1.802,0.888c-0.691,0 -1.265,-0.264 -1.724,-0.794l0,2.782l-1.058,0Zm1.058,-3.513c0.544,0.487 1.064,0.731 1.558,0.731c1.017,0 1.525,-0.776 1.525,-2.326c0,-1.368 -0.451,-2.052 -1.353,-2.052c-0.591,0 -1.168,0.321 -1.73,0.962l0,2.685Z" style="fill:#231f20;fill-rule:nonzero;"/><path d="M100.323,36.094c-0.835,0 -1.501,-0.276 -1.999,-0.829c-0.497,-0.554 -0.746,-1.294 -0.746,-2.221c0,-0.938 0.25,-1.681 0.749,-2.227c0.5,-0.546 1.177,-0.819 2.033,-0.819c0.856,0 1.534,0.273 2.033,0.819c0.5,0.546 0.749,1.285 0.749,2.216c0,0.952 -0.25,1.701 -0.752,2.245c-0.501,0.544 -1.19,0.816 -2.067,0.816Zm0.016,-0.794c1.12,0 1.681,-0.756 1.681,-2.267c0,-1.493 -0.553,-2.24 -1.66,-2.24c-1.103,0 -1.654,0.75 -1.654,2.251c0,1.504 0.544,2.256 1.633,2.256Z" style="fill:#231f20;fill-rule:nonzero;"/><path d="M104.074,35.96l0,-5.833l1.058,0l0,1.096c0.419,-0.817 1.028,-1.225 1.826,-1.225c0.108,0 0.22,0.009 0.339,0.027l0,0.988c-0.183,-0.06 -0.344,-0.091 -0.484,-0.091c-0.669,0 -1.23,0.398 -1.681,1.192l0,3.846l-1.058,0Z" style="fill:#231f20;fill-rule:nonzero;"/><path d="M114.341,35.772c-0.708,0.215 -1.315,0.322 -1.82,0.322c-0.86,0 -1.561,-0.285 -2.103,-0.856c-0.543,-0.571 -0.814,-1.312 -0.814,-2.221c0,-0.885 0.239,-1.61 0.717,-2.175c0.478,-0.566 1.09,-0.849 1.834,-0.849c0.706,0 1.251,0.251 1.636,0.752c0.385,0.501 0.577,1.214 0.577,2.138l-0.005,0.327l-3.679,0c0.154,1.386 0.832,2.079 2.035,2.079c0.441,0 0.982,-0.118 1.622,-0.355l0,0.838Zm-3.609,-3.357l2.573,0c0,-1.085 -0.405,-1.627 -1.214,-1.627c-0.813,0 -1.266,0.542 -1.359,1.627Z" style="fill:#231f20;fill-rule:nonzero;"/><rect x="115.472" y="27.479" width="1.058" height="8.481" style="fill:#231f20;fill-rule:nonzero;"/><path d="M123.924,34.794c-0.264,0.11 -0.605,0.209 -1.067,0.209c-0.924,0 -1.639,-0.627 -1.639,-1.727c-0.011,-0.979 0.605,-1.738 1.639,-1.738c0.484,0 0.803,0.099 1.023,0.209l0.242,-1.023c-0.308,-0.132 -0.814,-0.242 -1.309,-0.242c-1.881,0 -2.981,1.243 -2.981,2.849c0,1.661 1.089,2.739 2.761,2.739c0.671,0 1.232,-0.143 1.518,-0.275l-0.187,-1.001Z" style="fill:#231f20;fill-rule:nonzero;"/><path d="M126.721,30.482c-1.617,0 -2.772,1.078 -2.772,2.838c0,1.727 1.177,2.761 2.684,2.761c1.364,0 2.75,-0.88 2.75,-2.849c0,-1.628 -1.067,-2.75 -2.662,-2.75Zm-0.033,0.979c0.924,0 1.298,0.968 1.298,1.804c0,1.089 -0.539,1.837 -1.309,1.837c-0.814,0 -1.331,-0.781 -1.331,-1.815c0,-0.891 0.385,-1.826 1.342,-1.826Z" style="fill:#231f20;fill-rule:nonzero;"/><path d="M129.772,35.96l1.353,0l0,-2.783c0,-0.143 0.011,-0.286 0.033,-0.407c0.121,-0.616 0.572,-1.023 1.21,-1.023c0.165,0 0.286,0.011 0.407,0.033l0,-1.265c-0.11,-0.022 -0.187,-0.033 -0.319,-0.033c-0.583,0 -1.21,0.385 -1.474,1.133l-0.033,0l-0.055,-1.012l-1.166,0c0.033,0.473 0.044,1.001 0.044,1.727l0,3.63Z" style="fill:#231f20;fill-rule:nonzero;"/><path d="M137.024,32.748c0,-1.177 -0.495,-2.266 -2.211,-2.266c-0.847,0 -1.54,0.231 -1.936,0.473l0.264,0.88c0.363,-0.231 0.913,-0.396 1.441,-0.396c0.946,0 1.089,0.583 1.089,0.935l0,0.088c-1.98,-0.011 -3.179,0.682 -3.179,2.024c0,0.814 0.605,1.595 1.683,1.595c0.704,0 1.265,-0.297 1.584,-0.715l0.033,0l0.099,0.594l1.221,0c-0.066,-0.33 -0.088,-0.803 -0.088,-1.287l0,-1.925Zm-1.32,1.331c0,0.099 0,0.198 -0.033,0.297c-0.132,0.385 -0.517,0.737 -1.067,0.737c-0.429,0 -0.77,-0.242 -0.77,-0.77c0,-0.814 0.913,-1.012 1.87,-1.001l0,0.737Z" style="fill:#231f20;fill-rule:nonzero;"/><path d="M137.225,35.96l4.51,0l0,-1.078l-2.816,0l0,-0.022c0.275,-0.286 0.528,-0.594 0.792,-0.913l1.958,-2.519l0,-0.825l-4.246,0l0,1.078l2.596,0l0,0.022c-0.275,0.308 -0.506,0.572 -0.781,0.902l-2.013,2.574l0,0.781Z" style="fill:#231f20;fill-rule:nonzero;"/><path d="M144.313,30.482c-1.617,0 -2.772,1.078 -2.772,2.838c0,1.727 1.177,2.761 2.684,2.761c1.364,0 2.75,-0.88 2.75,-2.849c0,-1.628 -1.067,-2.75 -2.662,-2.75Zm-0.033,0.979c0.924,0 1.298,0.968 1.298,1.804c0,1.089 -0.539,1.837 -1.309,1.837c-0.814,0 -1.331,-0.781 -1.331,-1.815c0,-0.891 0.385,-1.826 1.342,-1.826Zm0.264,-3.179l-0.957,1.628l0.935,0l1.342,-1.628l-1.32,0Z" style="fill:#231f20;fill-rule:nonzero;"/><path d="M147.363,35.96l1.353,0l0,-3.157c0,-0.154 0.022,-0.319 0.066,-0.429c0.143,-0.407 0.517,-0.792 1.056,-0.792c0.737,0 1.023,0.583 1.023,1.353l0,3.025l1.353,0l0,-3.179c0,-1.694 -0.968,-2.299 -1.903,-2.299c-0.891,0 -1.474,0.506 -1.716,0.924l-0.033,0l-0.066,-0.803l-1.177,0c0.022,0.462 0.044,0.979 0.044,1.595l0,3.762Z" style="fill:#231f20;fill-rule:nonzero;"/><path d="M160.993,38.082l0.946,-2.122l-2.256,-5.833l1.144,0l1.67,4.394l1.784,-4.394l0.999,0l-3.185,7.955l-1.102,0Z" style="fill:#231f20;fill-rule:nonzero;"/><rect x="168.616" y="27.479" width="1.058" height="8.481" style="fill:#231f20;fill-rule:nonzero;"/><path d="M173.355,36.094c-0.834,0 -1.5,-0.276 -1.998,-0.829c-0.497,-0.554 -0.746,-1.294 -0.746,-2.221c0,-0.938 0.25,-1.681 0.749,-2.227c0.5,-0.546 1.177,-0.819 2.033,-0.819c0.856,0 1.533,0.273 2.033,0.819c0.5,0.546 0.749,1.285 0.749,2.216c0,0.952 -0.25,1.701 -0.752,2.245c-0.501,0.544 -1.19,0.816 -2.068,0.816Zm0.017,-0.794c1.12,0 1.681,-0.756 1.681,-2.267c0,-1.493 -0.554,-2.24 -1.66,-2.24c-1.103,0 -1.654,0.75 -1.654,2.251c0,1.504 0.544,2.256 1.633,2.256Z" style="fill:#231f20;fill-rule:nonzero;"/><path d="M178.654,36.094c-0.484,0 -1.071,-0.112 -1.762,-0.338l0,-0.972c0.691,0.344 1.293,0.516 1.805,0.516c0.304,0 0.557,-0.083 0.757,-0.248c0.201,-0.164 0.301,-0.37 0.301,-0.617c0,-0.362 -0.281,-0.661 -0.843,-0.897l-0.618,-0.263c-0.913,-0.38 -1.37,-0.926 -1.37,-1.639c0,-0.508 0.18,-0.908 0.54,-1.2c0.36,-0.292 0.853,-0.438 1.48,-0.438c0.326,0 0.729,0.045 1.208,0.135l0.221,0.043l0,0.88c-0.591,-0.175 -1.06,-0.263 -1.408,-0.263c-0.68,0 -1.02,0.247 -1.02,0.741c0,0.319 0.258,0.588 0.773,0.806l0.51,0.215c0.577,0.243 0.985,0.5 1.225,0.771c0.24,0.27 0.36,0.608 0.36,1.012c0,0.512 -0.202,0.933 -0.607,1.262c-0.405,0.33 -0.922,0.494 -1.552,0.494Z" style="fill:#231f20;fill-rule:nonzero;"/><path d="M184.7,35.96l-2.17,-5.833l1.058,0l1.697,4.539l1.789,-4.539l0.988,0l-2.304,5.833l-1.058,0Z" style="fill:#231f20;fill-rule:nonzero;"/><path d="M191.47,35.219c-0.634,0.584 -1.245,0.875 -1.832,0.875c-0.483,0 -0.884,-0.151 -1.203,-0.453c-0.319,-0.303 -0.478,-0.685 -0.478,-1.147c0,-0.637 0.268,-1.127 0.803,-1.469c0.535,-0.342 1.302,-0.513 2.301,-0.513l0.253,0l0,-0.704c0,-0.676 -0.347,-1.015 -1.042,-1.015c-0.559,0 -1.162,0.172 -1.81,0.516l0,-0.876c0.712,-0.29 1.38,-0.435 2.003,-0.435c0.652,0 1.133,0.147 1.442,0.441c0.31,0.293 0.465,0.75 0.465,1.369l0,2.643c0,0.605 0.186,0.908 0.559,0.908c0.046,0 0.114,-0.008 0.204,-0.022l0.075,0.586c-0.24,0.114 -0.505,0.171 -0.795,0.171c-0.494,0 -0.809,-0.291 -0.945,-0.875Zm-0.156,-0.575l0,-1.509l-0.355,-0.011c-0.58,0 -1.049,0.11 -1.407,0.331c-0.358,0.22 -0.537,0.509 -0.537,0.867c0,0.254 0.09,0.469 0.269,0.645c0.179,0.175 0.397,0.263 0.655,0.263c0.44,0 0.899,-0.195 1.375,-0.586Z" style="fill:#231f20;fill-rule:nonzero;"/><path d="M195.361,36.094c-0.484,0 -1.071,-0.112 -1.762,-0.338l0,-0.972c0.691,0.344 1.293,0.516 1.805,0.516c0.304,0 0.557,-0.083 0.757,-0.248c0.201,-0.164 0.301,-0.37 0.301,-0.617c0,-0.362 -0.281,-0.661 -0.843,-0.897l-0.618,-0.263c-0.913,-0.38 -1.37,-0.926 -1.37,-1.639c0,-0.508 0.18,-0.908 0.54,-1.2c0.36,-0.292 0.853,-0.438 1.48,-0.438c0.326,0 0.728,0.045 1.208,0.135l0.221,0.043l0,0.88c-0.591,-0.175 -1.06,-0.263 -1.408,-0.263c-0.68,0 -1.02,0.247 -1.02,0.741c0,0.319 0.258,0.588 0.773,0.806l0.51,0.215c0.577,0.243 0.985,0.5 1.225,0.771c0.24,0.27 0.36,0.608 0.36,1.012c0,0.512 -0.202,0.933 -0.607,1.262c-0.405,0.33 -0.922,0.494 -1.552,0.494Z" style="fill:#231f20;fill-rule:nonzero;"/><path d="M200.981,36.094c-0.834,0 -1.5,-0.276 -1.998,-0.829c-0.497,-0.554 -0.746,-1.294 -0.746,-2.221c0,-0.938 0.249,-1.681 0.749,-2.227c0.5,-0.546 1.177,-0.819 2.033,-0.819c0.856,0 1.533,0.273 2.033,0.819c0.499,0.546 0.749,1.285 0.749,2.216c0,0.952 -0.25,1.701 -0.752,2.245c-0.501,0.544 -1.19,0.816 -2.068,0.816Zm0.016,-0.794c1.121,0 1.682,-0.756 1.682,-2.267c0,-1.493 -0.554,-2.24 -1.66,-2.24c-1.103,0 -1.654,0.75 -1.654,2.251c0,1.504 0.544,2.256 1.632,2.256Z" style="fill:#231f20;fill-rule:nonzero;"/><path d="M206.28,36.094c-0.484,0 -1.071,-0.112 -1.762,-0.338l0,-0.972c0.691,0.344 1.293,0.516 1.805,0.516c0.304,0 0.556,-0.083 0.757,-0.248c0.201,-0.164 0.301,-0.37 0.301,-0.617c0,-0.362 -0.281,-0.661 -0.843,-0.897l-0.618,-0.263c-0.913,-0.38 -1.37,-0.926 -1.37,-1.639c0,-0.508 0.18,-0.908 0.54,-1.2c0.36,-0.292 0.853,-0.438 1.48,-0.438c0.326,0 0.728,0.045 1.208,0.135l0.22,0.043l0,0.88c-0.59,-0.175 -1.059,-0.263 -1.407,-0.263c-0.68,0 -1.02,0.247 -1.02,0.741c0,0.319 0.258,0.588 0.773,0.806l0.51,0.215c0.577,0.243 0.985,0.5 1.225,0.771c0.24,0.27 0.36,0.608 0.36,1.012c0,0.512 -0.202,0.933 -0.607,1.262c-0.405,0.33 -0.922,0.494 -1.552,0.494Z" style="fill:#231f20;fill-rule:nonzero;"/><path d="M212.671,36.094c-0.483,0 -1.071,-0.112 -1.762,-0.338l0,-0.972c0.691,0.344 1.293,0.516 1.805,0.516c0.304,0 0.557,-0.083 0.757,-0.248c0.201,-0.164 0.301,-0.37 0.301,-0.617c0,-0.362 -0.281,-0.661 -0.843,-0.897l-0.618,-0.263c-0.913,-0.38 -1.369,-0.926 -1.369,-1.639c0,-0.508 0.18,-0.908 0.539,-1.2c0.36,-0.292 0.853,-0.438 1.48,-0.438c0.326,0 0.729,0.045 1.209,0.135l0.22,0.043l0,0.88c-0.591,-0.175 -1.06,-0.263 -1.407,-0.263c-0.681,0 -1.021,0.247 -1.021,0.741c0,0.319 0.258,0.588 0.774,0.806l0.51,0.215c0.576,0.243 0.984,0.5 1.224,0.771c0.24,0.27 0.36,0.608 0.36,1.012c0,0.512 -0.202,0.933 -0.607,1.262c-0.404,0.33 -0.922,0.494 -1.552,0.494Z" style="fill:#231f20;fill-rule:nonzero;"/><path d="M219.017,35.219c-0.634,0.584 -1.245,0.875 -1.832,0.875c-0.483,0 -0.884,-0.151 -1.203,-0.453c-0.319,-0.303 -0.478,-0.685 -0.478,-1.147c0,-0.637 0.268,-1.127 0.803,-1.469c0.535,-0.342 1.303,-0.513 2.302,-0.513l0.252,0l0,-0.704c0,-0.676 -0.347,-1.015 -1.042,-1.015c-0.559,0 -1.162,0.172 -1.81,0.516l0,-0.876c0.713,-0.29 1.38,-0.435 2.003,-0.435c0.652,0 1.133,0.147 1.443,0.441c0.309,0.293 0.464,0.75 0.464,1.369l0,2.643c0,0.605 0.186,0.908 0.559,0.908c0.046,0 0.114,-0.008 0.204,-0.022l0.075,0.586c-0.24,0.114 -0.505,0.171 -0.795,0.171c-0.494,0 -0.809,-0.291 -0.945,-0.875Zm-0.156,-0.575l0,-1.509l-0.354,-0.011c-0.581,0 -1.05,0.11 -1.408,0.331c-0.358,0.22 -0.537,0.509 -0.537,0.867c0,0.254 0.09,0.469 0.269,0.645c0.179,0.175 0.397,0.263 0.655,0.263c0.44,0 0.899,-0.195 1.375,-0.586Z" style="fill:#231f20;fill-rule:nonzero;"/><path d="M221.361,35.96l0,-5.833l1.058,0l0,1.096c0.559,-0.817 1.243,-1.225 2.052,-1.225c0.505,0 0.908,0.161 1.208,0.481c0.301,0.32 0.452,0.751 0.452,1.292l0,4.189l-1.059,0l0,-3.846c0,-0.433 -0.063,-0.742 -0.19,-0.926c-0.127,-0.184 -0.338,-0.277 -0.631,-0.277c-0.648,0 -1.259,0.425 -1.832,1.273l0,3.776l-1.058,0Z" style="fill:#231f20;fill-rule:nonzero;"/><path d="M227.487,37.899l0.123,-0.918c0.612,0.29 1.216,0.435 1.81,0.435c1.193,0 1.789,-0.632 1.789,-1.896l0,-0.919c-0.391,0.817 -1.032,1.225 -1.923,1.225c-0.698,0 -1.253,-0.254 -1.665,-0.763c-0.412,-0.508 -0.618,-1.194 -0.618,-2.057c0,-0.888 0.235,-1.611 0.704,-2.17c0.469,-0.558 1.076,-0.838 1.821,-0.838c0.651,0 1.212,0.265 1.681,0.795l0,-0.666l1.063,0l0,4.243c0,0.913 -0.047,1.589 -0.142,2.028c-0.095,0.439 -0.273,0.798 -0.535,1.077c-0.461,0.49 -1.179,0.736 -2.153,0.736c-0.681,0 -1.332,-0.104 -1.955,-0.312Zm3.722,-3.958l0,-2.423c-0.466,-0.483 -0.972,-0.725 -1.52,-0.725c-0.487,0 -0.869,0.195 -1.144,0.586c-0.276,0.39 -0.414,0.925 -0.414,1.606c0,1.278 0.449,1.917 1.348,1.917c0.613,0 1.189,-0.32 1.73,-0.961Z" style="fill:#231f20;fill-rule:nonzero;"/><path d="M237.248,35.96l0,-1.096c-0.562,0.82 -1.244,1.23 -2.046,1.23c-0.509,0 -0.913,-0.16 -1.214,-0.48c-0.301,-0.321 -0.451,-0.753 -0.451,-1.297l0,-4.19l1.058,0l0,3.846c0,0.437 0.064,0.747 0.191,0.932c0.127,0.184 0.339,0.276 0.636,0.276c0.645,0 1.253,-0.424 1.826,-1.273l0,-3.781l1.058,0l0,5.833l-1.058,0Z" style="fill:#231f20;fill-rule:nonzero;"/><path d="M239.705,35.96l0,-5.833l1.058,0l0,5.833l-1.058,0Zm-0.241,-6.891l1.294,-1.724l1.225,0l-1.724,1.724l-0.795,0Z" style="fill:#231f20;fill-rule:nonzero;"/><path d="M242.162,35.96l0,-5.833l1.058,0l0,1.096c0.559,-0.817 1.243,-1.225 2.052,-1.225c0.505,0 0.908,0.161 1.209,0.481c0.3,0.32 0.451,0.751 0.451,1.292l0,4.189l-1.058,0l0,-3.846c0,-0.433 -0.064,-0.742 -0.191,-0.926c-0.127,-0.184 -0.337,-0.277 -0.631,-0.277c-0.648,0 -1.259,0.425 -1.832,1.273l0,3.776l-1.058,0Z" style="fill:#231f20;fill-rule:nonzero;"/><path d="M252.542,35.772c-0.709,0.215 -1.316,0.322 -1.821,0.322c-0.859,0 -1.56,-0.285 -2.103,-0.856c-0.542,-0.571 -0.814,-1.312 -0.814,-2.221c0,-0.885 0.239,-1.61 0.717,-2.175c0.479,-0.566 1.09,-0.849 1.835,-0.849c0.705,0 1.25,0.251 1.635,0.752c0.385,0.501 0.578,1.214 0.578,2.138l-0.006,0.327l-3.679,0c0.154,1.386 0.833,2.079 2.036,2.079c0.44,0 0.981,-0.118 1.622,-0.355l0,0.838Zm-3.61,-3.357l2.573,0c0,-1.085 -0.404,-1.627 -1.214,-1.627c-0.813,0 -1.266,0.542 -1.359,1.627Z" style="fill:#231f20;fill-rule:nonzero;"/><path d="M255.955,36.094c-0.834,0 -1.5,-0.276 -1.998,-0.829c-0.498,-0.554 -0.747,-1.294 -0.747,-2.221c0,-0.938 0.25,-1.681 0.749,-2.227c0.5,-0.546 1.178,-0.819 2.033,-0.819c0.856,0 1.534,0.273 2.033,0.819c0.5,0.546 0.75,1.285 0.75,2.216c0,0.952 -0.251,1.701 -0.752,2.245c-0.502,0.544 -1.191,0.816 -2.068,0.816Zm0.016,-0.794c1.121,0 1.681,-0.756 1.681,-2.267c0,-1.493 -0.553,-2.24 -1.66,-2.24c-1.102,0 -1.654,0.75 -1.654,2.251c0,1.504 0.544,2.256 1.633,2.256Z" style="fill:#231f20;fill-rule:nonzero;"/><path d="M261.253,36.094c-0.483,0 -1.07,-0.112 -1.762,-0.338l0,-0.972c0.692,0.344 1.293,0.516 1.805,0.516c0.305,0 0.557,-0.083 0.758,-0.248c0.2,-0.164 0.3,-0.37 0.3,-0.617c0,-0.362 -0.281,-0.661 -0.843,-0.897l-0.618,-0.263c-0.913,-0.38 -1.369,-0.926 -1.369,-1.639c0,-0.508 0.18,-0.908 0.54,-1.2c0.359,-0.292 0.853,-0.438 1.479,-0.438c0.326,0 0.729,0.045 1.209,0.135l0.22,0.043l0,0.88c-0.591,-0.175 -1.06,-0.263 -1.407,-0.263c-0.681,0 -1.021,0.247 -1.021,0.741c0,0.319 0.258,0.588 0.774,0.806l0.51,0.215c0.576,0.243 0.985,0.5 1.225,0.771c0.239,0.27 0.359,0.608 0.359,1.012c0,0.512 -0.202,0.933 -0.607,1.262c-0.404,0.33 -0.922,0.494 -1.552,0.494Z" style="fill:#231f20;fill-rule:nonzero;"/><path d="M264.607,37.684l0,-0.397c0.344,-0.097 0.516,-0.503 0.516,-1.219l0,-0.108l-0.516,0l0,-1.326l1.327,0l0,1.149c0,1.178 -0.442,1.812 -1.327,1.901Z" style="fill:#231f20;fill-rule:nonzero;"/><path d="M271.914,35.96l0,-1.096c-0.43,0.82 -1.078,1.23 -1.944,1.23c-0.702,0 -1.255,-0.256 -1.657,-0.768c-0.403,-0.512 -0.605,-1.212 -0.605,-2.1c0,-0.97 0.229,-1.751 0.685,-2.341c0.457,-0.591 1.057,-0.887 1.802,-0.887c0.691,0 1.264,0.265 1.719,0.795l0,-3.314l1.063,0l0,8.481l-1.063,0Zm0,-4.442c-0.548,-0.483 -1.067,-0.725 -1.558,-0.725c-1.013,0 -1.52,0.775 -1.52,2.326c0,1.364 0.451,2.046 1.354,2.046c0.587,0 1.162,-0.32 1.724,-0.961l0,-2.686Z" style="fill:#231f20;fill-rule:nonzero;"/><path d="M278.646,35.772c-0.709,0.215 -1.316,0.322 -1.821,0.322c-0.859,0 -1.56,-0.285 -2.102,-0.856c-0.543,-0.571 -0.814,-1.312 -0.814,-2.221c0,-0.885 0.239,-1.61 0.717,-2.175c0.478,-0.566 1.089,-0.849 1.834,-0.849c0.706,0 1.251,0.251 1.636,0.752c0.385,0.501 0.577,1.214 0.577,2.138l-0.005,0.327l-3.679,0c0.154,1.386 0.832,2.079 2.035,2.079c0.441,0 0.981,-0.118 1.622,-0.355l0,0.838Zm-3.609,-3.357l2.573,0c0,-1.085 -0.405,-1.627 -1.214,-1.627c-0.813,0 -1.266,0.542 -1.359,1.627Z" style="fill:#231f20;fill-rule:nonzero;"/><rect x="282.713" y="27.479" width="1.058" height="8.481" style="fill:#231f20;fill-rule:nonzero;"/><path d="M287.453,36.094c-0.835,0 -1.501,-0.276 -1.998,-0.829c-0.498,-0.554 -0.747,-1.294 -0.747,-2.221c0,-0.938 0.25,-1.681 0.749,-2.227c0.5,-0.546 1.177,-0.819 2.033,-0.819c0.856,0 1.534,0.273 2.033,0.819c0.5,0.546 0.749,1.285 0.749,2.216c0,0.952 -0.25,1.701 -0.752,2.245c-0.501,0.544 -1.19,0.816 -2.067,0.816Zm0.016,-0.794c1.12,0 1.681,-0.756 1.681,-2.267c0,-1.493 -0.553,-2.24 -1.66,-2.24c-1.103,0 -1.654,0.75 -1.654,2.251c0,1.504 0.544,2.256 1.633,2.256Z" style="fill:#231f20;fill-rule:nonzero;"/><path d="M292.751,36.094c-0.483,0 -1.071,-0.112 -1.762,-0.338l0,-0.972c0.691,0.344 1.293,0.516 1.805,0.516c0.304,0 0.557,-0.083 0.757,-0.248c0.201,-0.164 0.301,-0.37 0.301,-0.617c0,-0.362 -0.281,-0.661 -0.843,-0.897l-0.618,-0.263c-0.913,-0.38 -1.37,-0.926 -1.37,-1.639c0,-0.508 0.18,-0.908 0.54,-1.2c0.36,-0.292 0.853,-0.438 1.48,-0.438c0.326,0 0.729,0.045 1.208,0.135l0.221,0.043l0,0.88c-0.591,-0.175 -1.06,-0.263 -1.408,-0.263c-0.68,0 -1.02,0.247 -1.02,0.741c0,0.319 0.258,0.588 0.773,0.806l0.511,0.215c0.576,0.243 0.984,0.5 1.224,0.771c0.24,0.27 0.36,0.608 0.36,1.012c0,0.512 -0.202,0.933 -0.607,1.262c-0.404,0.33 -0.922,0.494 -1.552,0.494Z" style="fill:#231f20;fill-rule:nonzero;"/><path d="M299.818,36.094c-0.788,0 -1.442,-0.291 -1.961,-0.875c-0.519,-0.584 -0.779,-1.32 -0.779,-2.208c0,-0.948 0.257,-1.688 0.771,-2.218c0.514,-0.53 1.231,-0.795 2.151,-0.795c0.455,0 0.963,0.063 1.526,0.188l0,0.887c-0.598,-0.176 -1.085,-0.264 -1.461,-0.264c-0.541,0 -0.975,0.204 -1.303,0.61c-0.328,0.406 -0.491,0.948 -0.491,1.625c0,0.655 0.168,1.185 0.505,1.59c0.336,0.404 0.777,0.606 1.321,0.606c0.483,0 0.981,-0.123 1.493,-0.37l0,0.913c-0.684,0.208 -1.275,0.311 -1.772,0.311Z" style="fill:#231f20;fill-rule:nonzero;"/><path d="M306.099,35.96l0,-1.096c-0.562,0.82 -1.244,1.23 -2.047,1.23c-0.508,0 -0.913,-0.16 -1.213,-0.48c-0.301,-0.321 -0.452,-0.753 -0.452,-1.297l0,-4.19l1.058,0l0,3.846c0,0.437 0.064,0.747 0.191,0.932c0.127,0.184 0.339,0.276 0.637,0.276c0.644,0 1.253,-0.424 1.826,-1.273l0,-3.781l1.058,0l0,5.833l-1.058,0Z" style="fill:#231f20;fill-rule:nonzero;"/><path d="M311.564,35.219c-0.634,0.584 -1.245,0.875 -1.832,0.875c-0.483,0 -0.884,-0.151 -1.203,-0.453c-0.319,-0.303 -0.478,-0.685 -0.478,-1.147c0,-0.637 0.268,-1.127 0.803,-1.469c0.535,-0.342 1.302,-0.513 2.301,-0.513l0.253,0l0,-0.704c0,-0.676 -0.347,-1.015 -1.042,-1.015c-0.559,0 -1.162,0.172 -1.81,0.516l0,-0.876c0.712,-0.29 1.38,-0.435 2.003,-0.435c0.652,0 1.133,0.147 1.442,0.441c0.31,0.293 0.465,0.75 0.465,1.369l0,2.643c0,0.605 0.186,0.908 0.559,0.908c0.046,0 0.114,-0.008 0.204,-0.022l0.075,0.586c-0.24,0.114 -0.505,0.171 -0.795,0.171c-0.494,0 -0.809,-0.291 -0.945,-0.875Zm-0.156,-0.575l0,-1.509l-0.355,-0.011c-0.58,0 -1.049,0.11 -1.407,0.331c-0.358,0.22 -0.537,0.509 -0.537,0.867c0,0.254 0.09,0.469 0.269,0.645c0.179,0.175 0.397,0.263 0.655,0.263c0.44,0 0.899,-0.195 1.375,-0.586Z" style="fill:#231f20;fill-rule:nonzero;"/><rect x="313.908" y="27.479" width="1.058" height="8.481" style="fill:#231f20;fill-rule:nonzero;"/><path d="M320.64,35.772c-0.709,0.215 -1.316,0.322 -1.82,0.322c-0.86,0 -1.561,-0.285 -2.103,-0.856c-0.543,-0.571 -0.814,-1.312 -0.814,-2.221c0,-0.885 0.239,-1.61 0.717,-2.175c0.478,-0.566 1.09,-0.849 1.834,-0.849c0.706,0 1.251,0.251 1.636,0.752c0.385,0.501 0.577,1.214 0.577,2.138l-0.005,0.327l-3.679,0c0.154,1.386 0.832,2.079 2.035,2.079c0.441,0 0.981,-0.118 1.622,-0.355l0,0.838Zm-3.609,-3.357l2.573,0c0,-1.085 -0.405,-1.627 -1.214,-1.627c-0.813,0 -1.266,0.542 -1.359,1.627Z" style="fill:#231f20;fill-rule:nonzero;"/><path d="M323.318,36.094c-0.484,0 -1.071,-0.112 -1.762,-0.338l0,-0.972c0.691,0.344 1.293,0.516 1.805,0.516c0.304,0 0.556,-0.083 0.757,-0.248c0.2,-0.164 0.301,-0.37 0.301,-0.617c0,-0.362 -0.281,-0.661 -0.844,-0.897l-0.617,-0.263c-0.913,-0.38 -1.37,-0.926 -1.37,-1.639c0,-0.508 0.18,-0.908 0.54,-1.2c0.36,-0.292 0.853,-0.438 1.48,-0.438c0.325,0 0.728,0.045 1.208,0.135l0.22,0.043l0,0.88c-0.59,-0.175 -1.06,-0.263 -1.407,-0.263c-0.68,0 -1.02,0.247 -1.02,0.741c0,0.319 0.257,0.588 0.773,0.806l0.51,0.215c0.577,0.243 0.985,0.5 1.225,0.771c0.24,0.27 0.36,0.608 0.36,1.012c0,0.512 -0.203,0.933 -0.607,1.262c-0.405,0.33 -0.922,0.494 -1.552,0.494Z" style="fill:#231f20;fill-rule:nonzero;"/><path d="M332.902,35.772c-0.709,0.215 -1.316,0.322 -1.821,0.322c-0.86,0 -1.561,-0.285 -2.103,-0.856c-0.542,-0.571 -0.814,-1.312 -0.814,-2.221c0,-0.885 0.239,-1.61 0.717,-2.175c0.478,-0.566 1.09,-0.849 1.835,-0.849c0.705,0 1.25,0.251 1.635,0.752c0.385,0.501 0.577,1.214 0.577,2.138l-0.005,0.327l-3.679,0c0.154,1.386 0.832,2.079 2.036,2.079c0.44,0 0.981,-0.118 1.622,-0.355l0,0.838Zm-3.61,-3.357l2.573,0c0,-1.085 -0.405,-1.627 -1.214,-1.627c-0.813,0 -1.266,0.542 -1.359,1.627Z" style="fill:#231f20;fill-rule:nonzero;"/><path d="M333.447,35.96l2.218,-3.013l-2.154,-2.82l1.257,0l1.702,2.245l1.542,-2.245l1.031,0l-2.019,2.96l2.196,2.873l-1.256,0l-1.757,-2.309l-1.697,2.309l-1.063,0Z" style="fill:#231f20;fill-rule:nonzero;"/><path d="M340.055,35.96l0,-5.833l1.059,0l0,5.833l-1.059,0Zm0,-6.891l0,-1.058l1.059,0l0,1.058l-1.059,0Z" style="fill:#231f20;fill-rule:nonzero;"/><path d="M344.059,36.094c-0.483,0 -1.07,-0.112 -1.761,-0.338l0,-0.972c0.691,0.344 1.292,0.516 1.804,0.516c0.305,0 0.557,-0.083 0.758,-0.248c0.2,-0.164 0.3,-0.37 0.3,-0.617c0,-0.362 -0.281,-0.661 -0.843,-0.897l-0.618,-0.263c-0.913,-0.38 -1.369,-0.926 -1.369,-1.639c0,-0.508 0.18,-0.908 0.54,-1.2c0.36,-0.292 0.853,-0.438 1.479,-0.438c0.326,0 0.729,0.045 1.209,0.135l0.22,0.043l0,0.88c-0.591,-0.175 -1.06,-0.263 -1.407,-0.263c-0.68,0 -1.021,0.247 -1.021,0.741c0,0.319 0.258,0.588 0.774,0.806l0.51,0.215c0.577,0.243 0.985,0.5 1.225,0.771c0.24,0.27 0.36,0.608 0.36,1.012c0,0.512 -0.203,0.933 -0.607,1.262c-0.405,0.33 -0.922,0.494 -1.553,0.494Z" style="fill:#231f20;fill-rule:nonzero;"/><path d="M349.148,36.094c-0.537,0 -0.956,-0.153 -1.257,-0.461c-0.3,-0.308 -0.451,-0.736 -0.451,-1.284l0,-3.427l-0.73,0l0,-0.795l0.73,0l0,-1.058l1.058,-0.102l0,1.16l1.526,0l0,0.795l-1.526,0l0,3.234c0,0.762 0.33,1.144 0.989,1.144c0.139,0 0.309,-0.024 0.51,-0.07l0,0.73c-0.326,0.09 -0.609,0.134 -0.849,0.134Z" style="fill:#231f20;fill-rule:nonzero;"/><path d="M355.064,35.772c-0.709,0.215 -1.316,0.322 -1.821,0.322c-0.859,0 -1.56,-0.285 -2.102,-0.856c-0.543,-0.571 -0.814,-1.312 -0.814,-2.221c0,-0.885 0.239,-1.61 0.717,-2.175c0.478,-0.566 1.089,-0.849 1.834,-0.849c0.706,0 1.251,0.251 1.636,0.752c0.385,0.501 0.577,1.214 0.577,2.138l-0.005,0.327l-3.679,0c0.154,1.386 0.832,2.079 2.035,2.079c0.441,0 0.981,-0.118 1.622,-0.355l0,0.838Zm-3.609,-3.357l2.573,0c0,-1.085 -0.405,-1.627 -1.214,-1.627c-0.813,0 -1.266,0.542 -1.359,1.627Z" style="fill:#231f20;fill-rule:nonzero;"/><path d="M356.195,35.96l0,-5.833l1.058,0l0,1.096c0.558,-0.817 1.242,-1.225 2.051,-1.225c0.505,0 0.908,0.161 1.209,0.481c0.301,0.32 0.451,0.751 0.451,1.292l0,4.189l-1.058,0l0,-3.846c0,-0.433 -0.064,-0.742 -0.191,-0.926c-0.127,-0.184 -0.337,-0.277 -0.631,-0.277c-0.648,0 -1.258,0.425 -1.831,1.273l0,3.776l-1.058,0Z" style="fill:#231f20;fill-rule:nonzero;"/><path d="M13.741,47.094c-0.537,0 -0.956,-0.153 -1.257,-0.461c-0.301,-0.308 -0.451,-0.736 -0.451,-1.284l0,-3.427l-0.73,0l0,-0.795l0.73,0l0,-1.058l1.058,-0.102l0,1.16l1.526,0l0,0.795l-1.526,0l0,3.234c0,0.762 0.33,1.144 0.988,1.144c0.14,0 0.31,-0.024 0.511,-0.07l0,0.73c-0.326,0.09 -0.609,0.134 -0.849,0.134Z" style="fill:#231f20;fill-rule:nonzero;"/><path d="M15.69,46.96l0,-5.833l1.058,0l0,1.096c0.419,-0.817 1.028,-1.225 1.826,-1.225c0.108,0 0.221,0.009 0.339,0.027l0,0.988c-0.183,-0.06 -0.344,-0.091 -0.484,-0.091c-0.669,0 -1.23,0.398 -1.681,1.192l0,3.846l-1.058,0Z" style="fill:#231f20;fill-rule:nonzero;"/><path d="M24.052,46.772c-0.709,0.215 -1.316,0.322 -1.82,0.322c-0.86,0 -1.561,-0.285 -2.103,-0.856c-0.543,-0.571 -0.814,-1.312 -0.814,-2.221c0,-0.885 0.239,-1.61 0.717,-2.175c0.478,-0.566 1.09,-0.849 1.834,-0.849c0.706,0 1.251,0.251 1.636,0.752c0.385,0.501 0.577,1.214 0.577,2.138l-0.005,0.327l-3.679,0c0.154,1.386 0.832,2.079 2.035,2.079c0.441,0 0.981,-0.118 1.622,-0.355l0,0.838Zm-3.609,-3.357l2.573,0c0,-1.085 -0.405,-1.627 -1.214,-1.627c-0.813,0 -1.266,0.542 -1.359,1.627Z" style="fill:#231f20;fill-rule:nonzero;"/><path d="M27.038,47.094c-0.483,0 -1.071,-0.112 -1.762,-0.338l0,-0.972c0.691,0.344 1.293,0.516 1.805,0.516c0.304,0 0.557,-0.083 0.757,-0.248c0.201,-0.164 0.301,-0.37 0.301,-0.617c0,-0.362 -0.281,-0.661 -0.843,-0.897l-0.618,-0.263c-0.913,-0.38 -1.369,-0.926 -1.369,-1.639c0,-0.508 0.179,-0.908 0.539,-1.2c0.36,-0.292 0.853,-0.438 1.48,-0.438c0.326,0 0.729,0.045 1.209,0.135l0.22,0.043l0,0.88c-0.591,-0.175 -1.06,-0.263 -1.407,-0.263c-0.681,0 -1.021,0.247 -1.021,0.741c0,0.319 0.258,0.588 0.774,0.806l0.51,0.215c0.576,0.243 0.984,0.5 1.224,0.771c0.24,0.27 0.36,0.608 0.36,1.012c0,0.512 -0.202,0.933 -0.607,1.262c-0.404,0.33 -0.922,0.494 -1.552,0.494Z" style="fill:#231f20;fill-rule:nonzero;"/><path d="M33.068,47.094c-0.537,0 -0.956,-0.153 -1.257,-0.461c-0.301,-0.308 -0.451,-0.736 -0.451,-1.284l0,-3.427l-0.73,0l0,-0.795l0.73,0l0,-1.058l1.058,-0.102l0,1.16l1.526,0l0,0.795l-1.526,0l0,3.234c0,0.762 0.33,1.144 0.988,1.144c0.14,0 0.31,-0.024 0.511,-0.07l0,0.73c-0.326,0.09 -0.609,0.134 -0.849,0.134Z" style="fill:#231f20;fill-rule:nonzero;"/><path d="M35.017,46.96l0,-5.833l1.058,0l0,5.833l-1.058,0Zm0,-6.891l0,-1.058l1.058,0l0,1.058l-1.058,0Z" style="fill:#231f20;fill-rule:nonzero;"/><path d="M37.783,49.082l0,-7.955l1.058,0l0,1.096c0.433,-0.817 1.083,-1.225 1.949,-1.225c0.702,0 1.255,0.256 1.657,0.768c0.403,0.512 0.605,1.212 0.605,2.1c0,0.967 -0.229,1.747 -0.685,2.34c-0.457,0.592 -1.057,0.888 -1.802,0.888c-0.691,0 -1.266,-0.264 -1.724,-0.794l0,2.782l-1.058,0Zm1.058,-3.513c0.544,0.487 1.063,0.731 1.557,0.731c1.017,0 1.526,-0.776 1.526,-2.326c0,-1.368 -0.451,-2.052 -1.354,-2.052c-0.591,0 -1.167,0.321 -1.729,0.962l0,2.685Z" style="fill:#231f20;fill-rule:nonzero;"/><path d="M46.575,47.094c-0.835,0 -1.501,-0.276 -1.999,-0.829c-0.497,-0.554 -0.746,-1.294 -0.746,-2.221c0,-0.938 0.25,-1.681 0.749,-2.227c0.5,-0.546 1.177,-0.819 2.033,-0.819c0.856,0 1.534,0.273 2.033,0.819c0.5,0.546 0.749,1.285 0.749,2.216c0,0.952 -0.25,1.701 -0.752,2.245c-0.501,0.544 -1.19,0.816 -2.067,0.816Zm0.016,-0.794c1.12,0 1.681,-0.756 1.681,-2.267c0,-1.493 -0.553,-2.24 -1.66,-2.24c-1.103,0 -1.654,0.75 -1.654,2.251c0,1.504 0.544,2.256 1.633,2.256Z" style="fill:#231f20;fill-rule:nonzero;"/><path d="M52.181,47.094c-0.483,0 -1.07,-0.112 -1.761,-0.338l0,-0.972c0.691,0.344 1.292,0.516 1.804,0.516c0.305,0 0.557,-0.083 0.758,-0.248c0.2,-0.164 0.3,-0.37 0.3,-0.617c0,-0.362 -0.281,-0.661 -0.843,-0.897l-0.618,-0.263c-0.913,-0.38 -1.369,-0.926 -1.369,-1.639c0,-0.508 0.18,-0.908 0.54,-1.2c0.36,-0.292 0.853,-0.438 1.479,-0.438c0.326,0 0.729,0.045 1.209,0.135l0.22,0.043l0,0.88c-0.591,-0.175 -1.06,-0.263 -1.407,-0.263c-0.68,0 -1.021,0.247 -1.021,0.741c0,0.319 0.258,0.588 0.774,0.806l0.51,0.215c0.577,0.243 0.985,0.5 1.225,0.771c0.24,0.27 0.36,0.608 0.36,1.012c0,0.512 -0.203,0.933 -0.607,1.262c-0.405,0.33 -0.922,0.494 -1.553,0.494Z" style="fill:#231f20;fill-rule:nonzero;"/><path d="M55.978,46.96l0,-1.058l1.058,0l0,1.058l-1.058,0Zm0,-4.769l0,-1.064l1.058,0l0,1.064l-1.058,0Z" style="fill:#231f20;fill-rule:nonzero;"/><rect x="58.994" y="38.479" width="1.058" height="8.481" style="fill:#231f20;fill-rule:nonzero;"/><path d="M64.767,46.219c-0.634,0.584 -1.244,0.875 -1.831,0.875c-0.484,0 -0.885,-0.151 -1.203,-0.453c-0.319,-0.303 -0.478,-0.685 -0.478,-1.147c0,-0.637 0.267,-1.127 0.803,-1.469c0.535,-0.342 1.302,-0.513 2.301,-0.513l0.253,0l0,-0.704c0,-0.676 -0.348,-1.015 -1.042,-1.015c-0.559,0 -1.162,0.172 -1.811,0.516l0,-0.876c0.713,-0.29 1.381,-0.435 2.004,-0.435c0.652,0 1.132,0.147 1.442,0.441c0.31,0.293 0.465,0.75 0.465,1.369l0,2.643c0,0.605 0.186,0.908 0.558,0.908c0.047,0 0.115,-0.008 0.204,-0.022l0.076,0.586c-0.24,0.114 -0.505,0.171 -0.795,0.171c-0.495,0 -0.81,-0.291 -0.946,-0.875Zm-0.155,-0.575l0,-1.509l-0.355,-0.011c-0.58,0 -1.049,0.11 -1.407,0.331c-0.358,0.22 -0.537,0.509 -0.537,0.867c0,0.254 0.089,0.469 0.268,0.645c0.179,0.175 0.398,0.263 0.656,0.263c0.44,0 0.898,-0.195 1.375,-0.586Z" style="fill:#231f20;fill-rule:nonzero;"/><path d="M68.967,47.094c-0.484,0 -1.071,-0.112 -1.762,-0.338l0,-0.972c0.691,0.344 1.293,0.516 1.805,0.516c0.304,0 0.557,-0.083 0.757,-0.248c0.201,-0.164 0.301,-0.37 0.301,-0.617c0,-0.362 -0.281,-0.661 -0.843,-0.897l-0.618,-0.263c-0.913,-0.38 -1.37,-0.926 -1.37,-1.639c0,-0.508 0.18,-0.908 0.54,-1.2c0.36,-0.292 0.853,-0.438 1.48,-0.438c0.326,0 0.729,0.045 1.208,0.135l0.221,0.043l0,0.88c-0.591,-0.175 -1.06,-0.263 -1.408,-0.263c-0.68,0 -1.02,0.247 -1.02,0.741c0,0.319 0.258,0.588 0.773,0.806l0.511,0.215c0.576,0.243 0.984,0.5 1.224,0.771c0.24,0.27 0.36,0.608 0.36,1.012c0,0.512 -0.202,0.933 -0.607,1.262c-0.405,0.33 -0.922,0.494 -1.552,0.494Z" style="fill:#231f20;fill-rule:nonzero;"/><path d="M77.207,43.748c0,-1.177 -0.495,-2.266 -2.211,-2.266c-0.847,0 -1.54,0.231 -1.936,0.473l0.264,0.88c0.363,-0.231 0.913,-0.396 1.441,-0.396c0.946,0 1.089,0.583 1.089,0.935l0,0.088c-1.98,-0.011 -3.179,0.682 -3.179,2.024c0,0.814 0.605,1.595 1.683,1.595c0.704,0 1.265,-0.297 1.584,-0.715l0.033,0l0.099,0.594l1.221,0c-0.066,-0.33 -0.088,-0.803 -0.088,-1.287l0,-1.925Zm-1.32,1.331c0,0.099 0,0.198 -0.033,0.297c-0.132,0.385 -0.517,0.737 -1.067,0.737c-0.429,0 -0.77,-0.242 -0.77,-0.77c0,-0.814 0.913,-1.012 1.87,-1.001l0,0.737Z" style="fill:#231f20;fill-rule:nonzero;"/><path d="M78.223,46.96l1.353,0l0,-2.783c0,-0.143 0.011,-0.286 0.033,-0.407c0.121,-0.616 0.572,-1.023 1.21,-1.023c0.165,0 0.286,0.011 0.407,0.033l0,-1.265c-0.11,-0.022 -0.187,-0.033 -0.319,-0.033c-0.583,0 -1.21,0.385 -1.474,1.133l-0.033,0l-0.055,-1.012l-1.166,0c0.033,0.473 0.044,1.001 0.044,1.727l0,3.63Z" style="fill:#231f20;fill-rule:nonzero;"/><path d="M82.198,40.602l0,1.001l-0.759,0l0,1.012l0.759,0l0,2.519c0,0.704 0.132,1.199 0.429,1.507c0.253,0.275 0.66,0.44 1.166,0.44c0.418,0 0.781,-0.066 0.979,-0.143l-0.022,-1.023c-0.154,0.044 -0.286,0.055 -0.528,0.055c-0.517,0 -0.693,-0.33 -0.693,-0.99l0,-2.365l1.287,0l0,-1.012l-1.287,0l0,-1.375l-1.331,0.374Z" style="fill:#231f20;fill-rule:nonzero;"/><path d="M89.901,44.661c0.022,-0.121 0.044,-0.319 0.044,-0.572c0,-1.177 -0.572,-2.607 -2.31,-2.607c-1.716,0 -2.618,1.397 -2.618,2.882c0,1.639 1.023,2.706 2.761,2.706c0.77,0 1.408,-0.143 1.87,-0.341l-0.198,-0.924c-0.418,0.143 -0.858,0.242 -1.485,0.242c-0.869,0 -1.617,-0.418 -1.65,-1.386l3.586,0Zm-3.586,-0.946c0.055,-0.55 0.407,-1.309 1.243,-1.309c0.902,0 1.122,0.814 1.111,1.309l-2.354,0Z" style="fill:#231f20;fill-rule:nonzero;"/><path d="M90.62,46.96l1.353,0l0,-2.783c0,-0.143 0.011,-0.286 0.033,-0.407c0.121,-0.616 0.572,-1.023 1.21,-1.023c0.165,0 0.286,0.011 0.407,0.033l0,-1.265c-0.11,-0.022 -0.187,-0.033 -0.319,-0.033c-0.583,0 -1.21,0.385 -1.474,1.133l-0.033,0l-0.055,-1.012l-1.166,0c0.033,0.473 0.044,1.001 0.044,1.727l0,3.63Z" style="fill:#231f20;fill-rule:nonzero;"/><path d="M95.475,46.96l0,-5.357l-1.353,0l0,5.357l1.353,0Zm-0.671,-7.59c-0.451,0 -0.759,0.319 -0.759,0.737c0,0.396 0.297,0.726 0.748,0.726c0.473,0 0.77,-0.33 0.77,-0.726c-0.011,-0.418 -0.297,-0.737 -0.759,-0.737Z" style="fill:#231f20;fill-rule:nonzero;"/><path d="M100.682,43.748c0,-1.177 -0.495,-2.266 -2.211,-2.266c-0.847,0 -1.54,0.231 -1.936,0.473l0.264,0.88c0.363,-0.231 0.913,-0.396 1.441,-0.396c0.946,0 1.089,0.583 1.089,0.935l0,0.088c-1.98,-0.011 -3.179,0.682 -3.179,2.024c0,0.814 0.605,1.595 1.683,1.595c0.704,0 1.265,-0.297 1.584,-0.715l0.033,0l0.099,0.594l1.221,0c-0.066,-0.33 -0.088,-0.803 -0.088,-1.287l0,-1.925Zm-1.32,1.331c0,0.099 0,0.198 -0.033,0.297c-0.132,0.385 -0.517,0.737 -1.067,0.737c-0.429,0 -0.77,-0.242 -0.77,-0.77c0,-0.814 0.913,-1.012 1.87,-1.001l0,0.737Z" style="fill:#231f20;fill-rule:nonzero;"/><path d="M101.368,46.696c0.396,0.22 0.979,0.374 1.628,0.374c1.419,0 2.178,-0.704 2.178,-1.683c-0.011,-0.792 -0.451,-1.287 -1.43,-1.628c-0.682,-0.253 -0.935,-0.407 -0.935,-0.748c0,-0.33 0.264,-0.572 0.748,-0.572c0.473,0 0.913,0.176 1.133,0.308l0.275,-0.946c-0.319,-0.176 -0.836,-0.319 -1.43,-0.319c-1.243,0 -2.024,0.726 -2.024,1.672c0,0.638 0.429,1.21 1.474,1.562c0.66,0.242 0.88,0.418 0.88,0.781c0,0.352 -0.264,0.605 -0.858,0.605c-0.484,0 -1.067,-0.209 -1.364,-0.396l-0.275,0.99Z" style="fill:#231f20;fill-rule:nonzero;"/><path d="M106.219,48.684l0,-0.397c0.343,-0.097 0.515,-0.503 0.515,-1.219l0,-0.108l-0.515,0l0,-1.326l1.326,0l0,1.149c0,1.178 -0.442,1.812 -1.326,1.901Z" style="fill:#231f20;fill-rule:nonzero;"/><rect x="114.125" y="38.479" width="1.058" height="8.481" style="fill:#231f20;fill-rule:nonzero;"/><path d="M119.898,46.219c-0.633,0.584 -1.244,0.875 -1.831,0.875c-0.484,0 -0.885,-0.151 -1.203,-0.453c-0.319,-0.303 -0.478,-0.685 -0.478,-1.147c0,-0.637 0.267,-1.127 0.803,-1.469c0.535,-0.342 1.302,-0.513 2.301,-0.513l0.253,0l0,-0.704c0,-0.676 -0.348,-1.015 -1.042,-1.015c-0.559,0 -1.162,0.172 -1.81,0.516l0,-0.876c0.712,-0.29 1.38,-0.435 2.003,-0.435c0.652,0 1.132,0.147 1.442,0.441c0.31,0.293 0.465,0.75 0.465,1.369l0,2.643c0,0.605 0.186,0.908 0.558,0.908c0.047,0 0.115,-0.008 0.204,-0.022l0.076,0.586c-0.24,0.114 -0.505,0.171 -0.795,0.171c-0.494,0 -0.81,-0.291 -0.946,-0.875Zm-0.155,-0.575l0,-1.509l-0.355,-0.011c-0.58,0 -1.049,0.11 -1.407,0.331c-0.358,0.22 -0.537,0.509 -0.537,0.867c0,0.254 0.089,0.469 0.268,0.645c0.179,0.175 0.398,0.263 0.656,0.263c0.44,0 0.898,-0.195 1.375,-0.586Z" style="fill:#231f20;fill-rule:nonzero;"/><path d="M124.098,47.094c-0.483,0 -1.071,-0.112 -1.762,-0.338l0,-0.972c0.691,0.344 1.293,0.516 1.805,0.516c0.304,0 0.557,-0.083 0.757,-0.248c0.201,-0.164 0.301,-0.37 0.301,-0.617c0,-0.362 -0.281,-0.661 -0.843,-0.897l-0.618,-0.263c-0.913,-0.38 -1.369,-0.926 -1.369,-1.639c0,-0.508 0.179,-0.908 0.539,-1.2c0.36,-0.292 0.853,-0.438 1.48,-0.438c0.326,0 0.729,0.045 1.209,0.135l0.22,0.043l0,0.88c-0.591,-0.175 -1.06,-0.263 -1.407,-0.263c-0.681,0 -1.021,0.247 -1.021,0.741c0,0.319 0.258,0.588 0.773,0.806l0.511,0.215c0.576,0.243 0.984,0.5 1.224,0.771c0.24,0.27 0.36,0.608 0.36,1.012c0,0.512 -0.202,0.933 -0.607,1.262c-0.404,0.33 -0.922,0.494 -1.552,0.494Z" style="fill:#231f20;fill-rule:nonzero;"/><path d="M127.774,41.603l1.991,5.357l1.331,0l2.046,-5.357l-1.419,0l-0.858,2.717c-0.143,0.484 -0.264,0.902 -0.363,1.342l-0.033,0c-0.099,-0.44 -0.209,-0.869 -0.363,-1.342l-0.869,-2.717l-1.463,0Z" style="fill:#231f20;fill-rule:nonzero;"/><path d="M137.953,44.661c0.022,-0.121 0.044,-0.319 0.044,-0.572c0,-1.177 -0.572,-2.607 -2.31,-2.607c-1.716,0 -2.618,1.397 -2.618,2.882c0,1.639 1.023,2.706 2.761,2.706c0.77,0 1.408,-0.143 1.87,-0.341l-0.198,-0.924c-0.418,0.143 -0.858,0.242 -1.485,0.242c-0.869,0 -1.617,-0.418 -1.65,-1.386l3.586,0Zm-3.586,-0.946c0.055,-0.55 0.407,-1.309 1.243,-1.309c0.902,0 1.122,0.814 1.111,1.309l-2.354,0Z" style="fill:#231f20;fill-rule:nonzero;"/><path d="M138.672,46.96l1.353,0l0,-3.157c0,-0.154 0.022,-0.319 0.066,-0.429c0.143,-0.407 0.517,-0.792 1.056,-0.792c0.737,0 1.023,0.583 1.023,1.353l0,3.025l1.353,0l0,-3.179c0,-1.694 -0.968,-2.299 -1.903,-2.299c-0.891,0 -1.474,0.506 -1.716,0.924l-0.033,0l-0.066,-0.803l-1.177,0c0.022,0.462 0.044,0.979 0.044,1.595l0,3.762Z" style="fill:#231f20;fill-rule:nonzero;"/><path d="M148.707,43.748c0,-1.177 -0.495,-2.266 -2.211,-2.266c-0.847,0 -1.54,0.231 -1.936,0.473l0.264,0.88c0.363,-0.231 0.913,-0.396 1.441,-0.396c0.946,0 1.089,0.583 1.089,0.935l0,0.088c-1.98,-0.011 -3.179,0.682 -3.179,2.024c0,0.814 0.605,1.595 1.683,1.595c0.704,0 1.265,-0.297 1.584,-0.715l0.033,0l0.099,0.594l1.221,0c-0.066,-0.33 -0.088,-0.803 -0.088,-1.287l0,-1.925Zm-1.32,1.331c0,0.099 0,0.198 -0.033,0.297c-0.132,0.385 -0.517,0.737 -1.067,0.737c-0.429,0 -0.77,-0.242 -0.77,-0.77c0,-0.814 0.913,-1.012 1.87,-1.001l0,0.737Z" style="fill:#231f20;fill-rule:nonzero;"/><path d="M149.393,46.696c0.396,0.22 0.979,0.374 1.628,0.374c1.419,0 2.178,-0.704 2.178,-1.683c-0.011,-0.792 -0.451,-1.287 -1.43,-1.628c-0.682,-0.253 -0.935,-0.407 -0.935,-0.748c0,-0.33 0.264,-0.572 0.748,-0.572c0.473,0 0.913,0.176 1.133,0.308l0.275,-0.946c-0.319,-0.176 -0.836,-0.319 -1.43,-0.319c-1.243,0 -2.024,0.726 -2.024,1.672c0,0.638 0.429,1.21 1.474,1.562c0.66,0.242 0.88,0.418 0.88,0.781c0,0.352 -0.264,0.605 -0.858,0.605c-0.484,0 -1.067,-0.209 -1.364,-0.396l-0.275,0.99Z" style="fill:#231f20;fill-rule:nonzero;"/><path d="M158.969,49.082l0.946,-2.122l-2.256,-5.833l1.144,0l1.67,4.394l1.784,-4.394l0.999,0l-3.185,7.955l-1.102,0Z" style="fill:#231f20;fill-rule:nonzero;"/><rect x="166.144" y="38.479" width="1.058" height="8.481" style="fill:#231f20;fill-rule:nonzero;"/><path d="M171.192,47.094c-0.834,0 -1.5,-0.276 -1.998,-0.829c-0.497,-0.554 -0.746,-1.294 -0.746,-2.221c0,-0.938 0.249,-1.681 0.749,-2.227c0.499,-0.546 1.177,-0.819 2.033,-0.819c0.856,0 1.533,0.273 2.033,0.819c0.499,0.546 0.749,1.285 0.749,2.216c0,0.952 -0.251,1.701 -0.752,2.245c-0.501,0.544 -1.19,0.816 -2.068,0.816Zm0.016,-0.794c1.121,0 1.682,-0.756 1.682,-2.267c0,-1.493 -0.554,-2.24 -1.66,-2.24c-1.103,0 -1.654,0.75 -1.654,2.251c0,1.504 0.544,2.256 1.632,2.256Z" style="fill:#231f20;fill-rule:nonzero;"/><path d="M176.799,47.094c-0.483,0 -1.071,-0.112 -1.762,-0.338l0,-0.972c0.691,0.344 1.293,0.516 1.805,0.516c0.304,0 0.557,-0.083 0.757,-0.248c0.201,-0.164 0.301,-0.37 0.301,-0.617c0,-0.362 -0.281,-0.661 -0.843,-0.897l-0.618,-0.263c-0.913,-0.38 -1.369,-0.926 -1.369,-1.639c0,-0.508 0.18,-0.908 0.539,-1.2c0.36,-0.292 0.854,-0.438 1.48,-0.438c0.326,0 0.729,0.045 1.209,0.135l0.22,0.043l0,0.88c-0.591,-0.175 -1.06,-0.263 -1.407,-0.263c-0.681,0 -1.021,0.247 -1.021,0.741c0,0.319 0.258,0.588 0.774,0.806l0.51,0.215c0.576,0.243 0.985,0.5 1.224,0.771c0.24,0.27 0.36,0.608 0.36,1.012c0,0.512 -0.202,0.933 -0.607,1.262c-0.404,0.33 -0.922,0.494 -1.552,0.494Z" style="fill:#231f20;fill-rule:nonzero;"/><path d="M184.886,45.794c-0.264,0.11 -0.605,0.209 -1.067,0.209c-0.924,0 -1.639,-0.627 -1.639,-1.727c-0.011,-0.979 0.605,-1.738 1.639,-1.738c0.484,0 0.803,0.099 1.023,0.209l0.242,-1.023c-0.308,-0.132 -0.814,-0.242 -1.309,-0.242c-1.881,0 -2.981,1.243 -2.981,2.849c0,1.661 1.089,2.739 2.761,2.739c0.671,0 1.232,-0.143 1.518,-0.275l-0.187,-1.001Z" style="fill:#231f20;fill-rule:nonzero;"/><path d="M189.818,43.748c0,-1.177 -0.495,-2.266 -2.211,-2.266c-0.847,0 -1.54,0.231 -1.936,0.473l0.264,0.88c0.363,-0.231 0.913,-0.396 1.441,-0.396c0.946,0 1.089,0.583 1.089,0.935l0,0.088c-1.98,-0.011 -3.179,0.682 -3.179,2.024c0,0.814 0.605,1.595 1.683,1.595c0.704,0 1.265,-0.297 1.584,-0.715l0.033,0l0.099,0.594l1.221,0c-0.066,-0.33 -0.088,-0.803 -0.088,-1.287l0,-1.925Zm-1.32,1.331c0,0.099 0,0.198 -0.033,0.297c-0.132,0.385 -0.517,0.737 -1.067,0.737c-0.429,0 -0.77,-0.242 -0.77,-0.77c0,-0.814 0.913,-1.012 1.87,-1.001l0,0.737Z" style="fill:#231f20;fill-rule:nonzero;"/><path d="M190.834,49.138l1.353,0l0,-2.772l0.022,0c0.275,0.429 0.836,0.715 1.507,0.715c1.221,0 2.442,-0.935 2.442,-2.871c0,-1.672 -1.023,-2.728 -2.255,-2.728c-0.814,0 -1.441,0.341 -1.837,0.946l-0.022,0l-0.066,-0.825l-1.188,0c0.022,0.506 0.044,1.078 0.044,1.782l0,5.753Zm1.353,-5.247c0,-0.11 0.022,-0.231 0.044,-0.341c0.143,-0.594 0.66,-1.001 1.221,-1.001c0.869,0 1.331,0.77 1.331,1.716c0,1.056 -0.506,1.771 -1.364,1.771c-0.583,0 -1.056,-0.396 -1.199,-0.946c-0.022,-0.121 -0.033,-0.242 -0.033,-0.374l0,-0.825Z" style="fill:#231f20;fill-rule:nonzero;"/><path d="M198.207,46.96l0,-5.357l-1.353,0l0,5.357l1.353,0Zm-0.671,-7.59c-0.451,0 -0.759,0.319 -0.759,0.737c0,0.396 0.297,0.726 0.748,0.726c0.473,0 0.77,-0.33 0.77,-0.726c-0.011,-0.418 -0.297,-0.737 -0.759,-0.737Z" style="fill:#231f20;fill-rule:nonzero;"/><rect x="199.256" y="39.15" width="1.353" height="7.81" style="fill:#231f20;fill-rule:nonzero;"/><path d="M205.827,43.748c0,-1.177 -0.495,-2.266 -2.211,-2.266c-0.847,0 -1.54,0.231 -1.936,0.473l0.264,0.88c0.363,-0.231 0.913,-0.396 1.441,-0.396c0.946,0 1.089,0.583 1.089,0.935l0,0.088c-1.98,-0.011 -3.179,0.682 -3.179,2.024c0,0.814 0.605,1.595 1.683,1.595c0.704,0 1.265,-0.297 1.584,-0.715l0.033,0l0.099,0.594l1.221,0c-0.066,-0.33 -0.088,-0.803 -0.088,-1.287l0,-1.925Zm-1.32,1.331c0,0.099 0,0.198 -0.033,0.297c-0.132,0.385 -0.517,0.737 -1.067,0.737c-0.429,0 -0.77,-0.242 -0.77,-0.77c0,-0.814 0.913,-1.012 1.87,-1.001l0,0.737Z" style="fill:#231f20;fill-rule:nonzero;"/><path d="M206.843,46.96l1.353,0l0,-2.783c0,-0.143 0.011,-0.286 0.033,-0.407c0.121,-0.616 0.572,-1.023 1.21,-1.023c0.165,0 0.286,0.011 0.407,0.033l0,-1.265c-0.11,-0.022 -0.187,-0.033 -0.319,-0.033c-0.583,0 -1.21,0.385 -1.474,1.133l-0.033,0l-0.055,-1.012l-1.166,0c0.033,0.473 0.044,1.001 0.044,1.727l0,3.63Z" style="fill:#231f20;fill-rule:nonzero;"/><path d="M214.789,44.661c0.022,-0.121 0.044,-0.319 0.044,-0.572c0,-1.177 -0.572,-2.607 -2.31,-2.607c-1.716,0 -2.618,1.397 -2.618,2.882c0,1.639 1.023,2.706 2.761,2.706c0.77,0 1.408,-0.143 1.87,-0.341l-0.198,-0.924c-0.418,0.143 -0.858,0.242 -1.485,0.242c-0.869,0 -1.617,-0.418 -1.65,-1.386l3.586,0Zm-3.586,-0.946c0.055,-0.55 0.407,-1.309 1.243,-1.309c0.902,0 1.122,0.814 1.111,1.309l-2.354,0Z" style="fill:#231f20;fill-rule:nonzero;"/><path d="M215.177,46.696c0.396,0.22 0.979,0.374 1.628,0.374c1.419,0 2.178,-0.704 2.178,-1.683c-0.011,-0.792 -0.451,-1.287 -1.43,-1.628c-0.682,-0.253 -0.935,-0.407 -0.935,-0.748c0,-0.33 0.264,-0.572 0.748,-0.572c0.473,0 0.913,0.176 1.133,0.308l0.275,-0.946c-0.319,-0.176 -0.836,-0.319 -1.43,-0.319c-1.243,0 -2.024,0.726 -2.024,1.672c0,0.638 0.429,1.21 1.474,1.562c0.66,0.242 0.88,0.418 0.88,0.781c0,0.352 -0.264,0.605 -0.858,0.605c-0.484,0 -1.067,-0.209 -1.364,-0.396l-0.275,0.99Z" style="fill:#231f20;fill-rule:nonzero;"/><rect x="220.029" y="45.634" width="1.327" height="1.327" style="fill:#231f20;fill-rule:nonzero;"/></g></g></svg>