<?xml version="1.0" encoding="UTF-8" standalone="no"?><!DOCTYPE svg PUBLIC "-//W3C//DTD SVG 1.1//EN" "http://www.w3.org/Graphics/SVG/1.1/DTD/svg11.dtd"><svg width="100%" height="100%" viewBox="0 0 68 29" version="1.1" xmlns="http://www.w3.org/2000/svg" xmlns:xlink="http://www.w3.org/1999/xlink" xml:space="preserve" xmlns:serif="http://www.serif.com/" style="fill-rule:evenodd;clip-rule:evenodd;stroke-linejoin:round;stroke-miterlimit:2;"><g id="i9"><path d="M58.574,28.531l-50.02,0c-4.697,0 -8.503,-3.808 -8.503,-8.504l0,-11.339c0,-4.696 3.806,-8.504 8.503,-8.504l50.02,0c4.696,0 8.504,3.808 8.504,8.504l0,11.339c0,4.696 -3.808,8.504 -8.504,8.504" style="fill:#74489d;fill-rule:nonzero;"/><g><path d="M9.852,20.62c-0.692,0 -1.363,-0.102 -2.016,-0.307c-0.652,-0.205 -1.236,-0.515 -1.752,-0.929c-0.515,-0.414 -0.926,-0.933 -1.233,-1.556c-0.307,-0.623 -0.46,-1.352 -0.46,-2.188c0,-0.652 0.122,-1.258 0.366,-1.816c0.244,-0.559 0.581,-1.045 1.011,-1.459c0.43,-0.415 0.927,-0.738 1.491,-0.97c0.565,-0.233 1.169,-0.349 1.814,-0.349c1.125,0 2.121,0.264 2.988,0.791c0.359,0.219 0.539,0.53 0.539,0.932c0,0.14 -0.031,0.285 -0.094,0.433c-0.109,0.258 -0.263,0.437 -0.46,0.537c-0.197,0.099 -0.382,0.149 -0.553,0.149c-0.09,0 -0.18,-0.012 -0.27,-0.035c-0.375,-0.09 -0.75,-0.135 -1.125,-0.135c-0.52,0 -0.988,0.096 -1.406,0.287c-0.371,0.168 -0.671,0.42 -0.9,0.756c-0.228,0.336 -0.342,0.768 -0.342,1.295c0,0.852 0.312,1.48 0.937,1.887c0.449,0.297 0.982,0.445 1.6,0.445c0.547,0 1.076,-0.105 1.588,-0.316c0.148,-0.063 0.294,-0.094 0.439,-0.094c0.141,0 0.279,0.027 0.416,0.082c0.273,0.113 0.473,0.314 0.598,0.603c0.062,0.145 0.093,0.289 0.093,0.434c0,0.141 -0.027,0.279 -0.082,0.416c-0.113,0.273 -0.316,0.471 -0.609,0.592c-0.832,0.344 -1.691,0.515 -2.578,0.515Z" style="fill:#fff;fill-rule:nonzero;"/><path d="M18.834,20.304c-0.539,0 -0.912,-0.065 -1.119,-0.196c-0.207,-0.131 -0.361,-0.306 -0.463,-0.525c-0.461,0.164 -0.927,0.246 -1.4,0.246c-0.887,0 -1.6,-0.263 -2.139,-0.791c-0.367,-0.355 -0.551,-0.81 -0.551,-1.365c0,-0.578 0.182,-1.033 0.545,-1.365c0.645,-0.586 1.68,-0.879 3.106,-0.879c-0.031,-0.297 -0.12,-0.563 -0.267,-0.8c-0.146,-0.236 -0.288,-0.354 -0.425,-0.354c-0.144,0 -0.261,0.027 -0.351,0.082c-0.09,0.054 -0.17,0.14 -0.24,0.258c-0.145,0.23 -0.304,0.371 -0.478,0.421c-0.174,0.051 -0.308,0.077 -0.401,0.077c-0.153,0 -0.301,-0.038 -0.446,-0.112c-0.238,-0.121 -0.379,-0.259 -0.424,-0.416c-0.045,-0.156 -0.068,-0.273 -0.068,-0.351c0,-0.157 0.047,-0.313 0.141,-0.469c0.254,-0.43 0.586,-0.76 0.996,-0.99c0.41,-0.231 0.873,-0.346 1.389,-0.346c0.617,0 1.136,0.111 1.558,0.334c0.422,0.223 0.765,0.523 1.029,0.902c0.263,0.379 0.465,0.808 0.606,1.286c0.141,0.479 0.236,0.97 0.287,1.474c0.051,0.504 0.076,0.992 0.076,1.465c0,0.57 -0.01,1.072 -0.029,1.506c-0.016,0.328 -0.112,0.561 -0.29,0.7c-0.178,0.139 -0.392,0.208 -0.642,0.208Zm-2.865,-2.268c0.43,0 0.785,-0.08 1.066,-0.24l-0.029,-0.615c-0.219,-0.094 -0.494,-0.141 -0.826,-0.141c-0.23,0 -0.466,0.046 -0.706,0.138c-0.24,0.092 -0.36,0.237 -0.36,0.437c0,0.152 0.085,0.26 0.254,0.325c0.17,0.064 0.371,0.096 0.601,0.096Z" style="fill:#fff;fill-rule:nonzero;"/><path d="M22.678,21.464c-0.543,0 -0.946,-0.055 -1.21,-0.167c-0.264,-0.111 -0.44,-0.265 -0.53,-0.463c-0.09,-0.197 -0.143,-0.425 -0.158,-0.682c-0.082,-1.231 -0.123,-2.459 -0.123,-3.686c0,-1.047 0.033,-2.094 0.099,-3.141c0.02,-0.312 0.112,-0.54 0.279,-0.682c0.166,-0.143 0.364,-0.214 0.594,-0.214c0.375,0 0.673,0.042 0.894,0.126c0.22,0.084 0.398,0.199 0.533,0.346c0.135,0.146 0.251,0.315 0.349,0.507l0.234,0c0.68,0 1.313,0.105 1.898,0.316c0.739,0.262 1.258,0.68 1.559,1.254c0.156,0.305 0.234,0.668 0.234,1.09c0,0.511 -0.119,0.944 -0.357,1.298c-0.238,0.353 -0.548,0.631 -0.929,0.834c-0.381,0.204 -0.742,0.332 -1.084,0.384c-0.342,0.053 -0.628,0.079 -0.858,0.079c-0.215,0 -0.428,-0.015 -0.639,-0.046c0.024,0.613 0.057,1.242 0.1,1.886l0,0.076c0,0.282 -0.078,0.495 -0.235,0.639c-0.171,0.164 -0.388,0.246 -0.65,0.246Zm1.453,-4.758c0.446,0 0.785,-0.07 1.02,-0.211c0.156,-0.093 0.234,-0.236 0.234,-0.427c0,-0.313 -0.262,-0.52 -0.785,-0.621c-0.305,-0.059 -0.684,-0.088 -1.137,-0.088c-0.011,0.425 -0.019,0.853 -0.023,1.283c0.219,0.043 0.449,0.064 0.691,0.064Z" style="fill:#fff;fill-rule:nonzero;"/><path d="M29.95,20.556c-0.547,0 -0.949,-0.06 -1.205,-0.179c-0.255,-0.119 -0.424,-0.28 -0.506,-0.483c-0.157,-0.371 -0.235,-1.434 -0.235,-3.188c0,-0.984 0.02,-1.923 0.059,-2.818c0.015,-0.32 0.112,-0.553 0.29,-0.697c0.178,-0.145 0.391,-0.217 0.641,-0.217c0.598,0 1.028,0.066 1.29,0.199c0.261,0.133 0.418,0.293 0.471,0.481c0.053,0.187 0.079,0.379 0.079,0.574c-0.035,1.262 -0.052,2.232 -0.052,2.912c0,0.797 0.029,1.598 0.087,2.402l0,0.141c0,0.289 -0.078,0.502 -0.234,0.639c-0.183,0.156 -0.412,0.234 -0.685,0.234Zm-0.522,-7.922c-0.379,0 -0.702,-0.093 -0.97,-0.278c-0.267,-0.186 -0.401,-0.411 -0.401,-0.677c0,-0.262 0.134,-0.485 0.401,-0.671c0.268,-0.185 0.591,-0.278 0.97,-0.278c0.375,0 0.696,0.093 0.964,0.278c0.268,0.186 0.401,0.409 0.401,0.671c0,0.266 -0.133,0.491 -0.401,0.677c-0.268,0.185 -0.589,0.278 -0.964,0.278Z" style="fill:#fff;fill-rule:nonzero;"/><path d="M35,20.497c-1.207,0 -2.031,-0.384 -2.472,-1.154c-0.223,-0.391 -0.383,-0.91 -0.481,-1.559c-0.129,-0.863 -0.193,-2.222 -0.193,-4.078c0,-0.515 0.004,-1.066 0.012,-1.652c0.003,-0.32 0.094,-0.55 0.272,-0.688c0.178,-0.139 0.39,-0.208 0.636,-0.208c0.621,0 1.061,0.069 1.321,0.208c0.26,0.138 0.412,0.302 0.457,0.492c0.045,0.189 0.067,0.372 0.067,0.548c0,0.148 -0.025,0.531 -0.076,1.148c-0.09,1.055 -0.134,1.916 -0.134,2.584c0,1.621 0.261,2.432 0.785,2.432l0.082,0c0.226,0 0.41,0.099 0.551,0.298c0.14,0.2 0.21,0.42 0.21,0.663c0,0.296 -0.107,0.537 -0.322,0.72c-0.199,0.164 -0.437,0.246 -0.715,0.246Z" style="fill:#fff;fill-rule:nonzero;"/><path d="M41.551,20.304c-0.539,0 -0.912,-0.065 -1.119,-0.196c-0.207,-0.131 -0.361,-0.306 -0.463,-0.525c-0.461,0.164 -0.928,0.246 -1.4,0.246c-0.887,0 -1.6,-0.263 -2.139,-0.791c-0.367,-0.355 -0.551,-0.81 -0.551,-1.365c0,-0.578 0.182,-1.033 0.545,-1.365c0.645,-0.586 1.68,-0.879 3.106,-0.879c-0.032,-0.297 -0.12,-0.563 -0.267,-0.8c-0.146,-0.236 -0.288,-0.354 -0.425,-0.354c-0.144,0 -0.261,0.027 -0.351,0.082c-0.09,0.054 -0.17,0.14 -0.241,0.258c-0.144,0.23 -0.303,0.371 -0.477,0.421c-0.174,0.051 -0.308,0.077 -0.401,0.077c-0.153,0 -0.301,-0.038 -0.446,-0.112c-0.238,-0.121 -0.38,-0.259 -0.425,-0.416c-0.045,-0.156 -0.067,-0.273 -0.067,-0.351c0,-0.157 0.047,-0.313 0.141,-0.469c0.254,-0.43 0.586,-0.76 0.996,-0.99c0.41,-0.231 0.873,-0.346 1.388,-0.346c0.618,0 1.137,0.111 1.559,0.334c0.422,0.223 0.765,0.523 1.028,0.902c0.264,0.379 0.466,0.808 0.607,1.286c0.14,0.479 0.236,0.97 0.287,1.474c0.051,0.504 0.076,0.992 0.076,1.465c0,0.57 -0.01,1.072 -0.029,1.506c-0.016,0.328 -0.113,0.561 -0.29,0.7c-0.178,0.139 -0.392,0.208 -0.642,0.208Zm-2.865,-2.268c0.43,0 0.785,-0.08 1.066,-0.24l-0.029,-0.615c-0.219,-0.094 -0.494,-0.141 -0.826,-0.141c-0.231,0 -0.466,0.046 -0.706,0.138c-0.24,0.092 -0.361,0.237 -0.361,0.437c0,0.152 0.085,0.26 0.255,0.325c0.17,0.064 0.37,0.096 0.601,0.096Z" style="fill:#fff;fill-rule:nonzero;"/><path d="M45.465,20.087c-0.844,0 -1.402,-0.209 -1.676,-0.627c-0.218,-0.332 -0.363,-1.191 -0.433,-2.578c-0.024,-0.476 -0.035,-0.842 -0.035,-1.096c0,-0.48 0.023,-0.974 0.07,-1.482c0.031,-0.309 0.13,-0.528 0.296,-0.659c0.166,-0.131 0.362,-0.196 0.589,-0.196c0.383,0 0.659,0.041 0.829,0.123c0.17,0.082 0.358,0.212 0.565,0.392c0.364,-0.226 0.76,-0.34 1.19,-0.34c0.601,0 1.084,0.244 1.447,0.733c0.297,0.406 0.498,0.933 0.603,1.582c0.008,0.051 0.012,0.101 0.012,0.152c0,0.211 -0.06,0.402 -0.181,0.574c-0.196,0.27 -0.457,0.405 -0.786,0.405c-0.211,0 -0.402,-0.061 -0.574,-0.182c-0.211,-0.152 -0.34,-0.363 -0.387,-0.633c-0.074,-0.422 -0.189,-0.633 -0.345,-0.633c-0.156,0 -0.274,0.088 -0.352,0.264c-0.078,0.176 -0.124,0.365 -0.137,0.568c-0.014,0.204 -0.021,0.377 -0.021,0.522c0,0.543 0.055,1.18 0.164,1.91c0.02,0.141 0.029,0.25 0.029,0.328c0,0.262 -0.07,0.465 -0.211,0.61c-0.171,0.175 -0.39,0.263 -0.656,0.263Z" style="fill:#fff;fill-rule:nonzero;"/><path d="M52.239,15.687l2.22,-0.205c-0.125,-0.215 -0.283,-0.374 -0.474,-0.478c-0.192,-0.103 -0.389,-0.155 -0.592,-0.155c-0.254,0 -0.489,0.071 -0.706,0.214c-0.217,0.142 -0.366,0.35 -0.448,0.624Zm1.054,4.383c-0.754,0 -1.429,-0.14 -2.027,-0.419c-0.598,-0.28 -1.068,-0.691 -1.412,-1.234c-0.344,-0.543 -0.516,-1.211 -0.516,-2.004c0,-0.695 0.151,-1.325 0.451,-1.889c0.301,-0.565 0.722,-1.011 1.263,-1.339c0.541,-0.328 1.167,-0.492 1.878,-0.492c0.691,0 1.305,0.153 1.84,0.46c0.535,0.306 0.934,0.708 1.198,1.204c0.264,0.496 0.396,1.035 0.396,1.617c0,0.09 -0.004,0.18 -0.012,0.269c-0.016,0.25 -0.106,0.457 -0.27,0.622c-0.164,0.164 -0.369,0.255 -0.615,0.275l-3.269,0.264c0.164,0.48 0.529,0.72 1.095,0.72c0.356,0 0.701,-0.091 1.037,-0.275c0.161,-0.09 0.327,-0.135 0.498,-0.135c0.356,0 0.631,0.162 0.827,0.486c0.093,0.157 0.14,0.321 0.14,0.493c0,0.355 -0.162,0.629 -0.486,0.82c-0.641,0.371 -1.313,0.557 -2.016,0.557Z" style="fill:#fff;fill-rule:nonzero;"/><path d="M59.598,20.386c-0.574,0 -1.109,-0.139 -1.605,-0.416c-0.497,-0.277 -0.84,-0.697 -1.032,-1.26c-0.035,-0.101 -0.052,-0.201 -0.052,-0.299c0,-0.152 0.037,-0.298 0.111,-0.439c0.117,-0.23 0.308,-0.391 0.574,-0.48c0.098,-0.032 0.195,-0.047 0.293,-0.047c0.152,0 0.299,0.035 0.44,0.105c0.23,0.117 0.392,0.307 0.486,0.568c0.051,0.145 0.172,0.217 0.363,0.217c0.156,0 0.292,-0.043 0.407,-0.129c0.116,-0.086 0.173,-0.189 0.173,-0.31c0,-0.117 -0.078,-0.226 -0.234,-0.325c-0.156,-0.1 -0.354,-0.208 -0.592,-0.326c-0.59,-0.285 -1.039,-0.57 -1.348,-0.855c-0.472,-0.438 -0.709,-0.977 -0.709,-1.617c0,-0.727 0.286,-1.291 0.856,-1.694c0.512,-0.363 1.142,-0.545 1.892,-0.545c0.59,0 1.146,0.17 1.667,0.51c0.522,0.34 0.894,0.834 1.117,1.483c0.035,0.105 0.052,0.209 0.052,0.31c0,0.153 -0.035,0.297 -0.105,0.434c-0.121,0.23 -0.311,0.388 -0.568,0.474c-0.106,0.036 -0.209,0.053 -0.311,0.053c-0.152,0 -0.297,-0.035 -0.434,-0.105c-0.23,-0.118 -0.388,-0.305 -0.474,-0.563c-0.071,-0.203 -0.217,-0.305 -0.44,-0.305c-0.129,0 -0.239,0.035 -0.331,0.103c-0.092,0.068 -0.137,0.155 -0.137,0.261c0,0.121 0.08,0.232 0.24,0.334c0.16,0.101 0.361,0.211 0.603,0.328c0.215,0.105 0.442,0.226 0.68,0.363c0.906,0.516 1.359,1.194 1.359,2.033c0,0.668 -0.302,1.198 -0.908,1.588c-0.574,0.367 -1.252,0.551 -2.033,0.551Z" style="fill:#fff;fill-rule:nonzero;"/></g></g></svg>