<svg clip-rule="evenodd" fill-rule="evenodd" stroke-linejoin="round" stroke-miterlimit="2" viewBox="0 0 68 29" xmlns="http://www.w3.org/2000/svg"><g fill-rule="nonzero"><path d="m58.671 28.419h-50.019c-4.697 0-8.505-3.807-8.505-8.504l.001-11.338c0-4.697 3.807-8.505 8.504-8.505h50.019c4.697 0 8.504 3.808 8.504 8.505v11.338c0 4.697-3.807 8.504-8.504 8.504" fill="#bd56a0"/><g fill="#fff"><path d="m13.307 20.897c-.155 0-.31-.011-.465-.034-.87-.1-1.655-.399-2.355-.896-.699-.496-1.277-1.114-1.733-1.852-.141-.223-.212-.454-.212-.691 0-.455.203-.815.609-1.08.218-.141.446-.212.683-.212.461 0 .823.201 1.087.602.196.296.434.54.715.731.28.192.577.288.892.288.3 0 .54-.06.717-.178.178-.119.267-.294.267-.527 0-.25-.239-.537-.718-.861-.218-.146-.462-.298-.731-.458-.848-.506-1.49-.973-1.928-1.401-.652-.634-.977-1.34-.977-2.119 0-.953.394-1.744 1.182-2.372.356-.283.757-.504 1.203-.664.497-.177.987-.266 1.47-.266.994 0 1.843.255 2.55.765.734.534 1.331 1.247 1.791 2.14.105.205.157.41.157.615 0 .123-.02.249-.061.376-.105.328-.317.579-.636.752-.201.105-.403.157-.609.157-.123 0-.248-.018-.376-.054-.332-.105-.581-.319-.745-.643-.319-.624-.777-.936-1.374-.936-.341 0-.619.075-.834.225-.127.091-.191.214-.191.369 0 .256.241.545.725.869.218.145.464.296.738.451.829.483 1.467.943 1.914 1.381.652.638.977 1.351.977 2.139 0 .565-.117 1.068-.352 1.508-.234.439-.551.806-.95 1.1s-.81.497-1.234.609c-.424.111-.822.167-1.196.167z"/><path d="m24.429 20.186c-.629 0-1.064-.076-1.306-.229-.241-.153-.421-.356-.54-.612-.537.192-1.082.287-1.633.287-1.035 0-1.867-.307-2.496-.922-.428-.415-.642-.946-.642-1.593 0-.675.212-1.206.636-1.593.752-.684 1.959-1.025 3.623-1.025-.037-.347-.14-.658-.311-.933-.171-.276-.336-.414-.496-.414-.169 0-.305.032-.41.096-.105.063-.198.164-.28.3-.169.269-.355.433-.558.493-.202.059-.358.088-.468.088-.178 0-.351-.043-.519-.129-.278-.142-.444-.303-.496-.486-.052-.182-.079-.319-.079-.41 0-.182.055-.364.165-.547.296-.501.683-.886 1.162-1.155.478-.269 1.018-.403 1.62-.403.72 0 1.326.13 1.818.389.492.26.892.611 1.2 1.053.307.442.543.942.707 1.501.164.558.276 1.131.335 1.719.06.588.089 1.157.089 1.709 0 .665-.011 1.251-.034 1.757-.018.382-.131.655-.338.816-.208.162-.457.243-.749.243zm-3.343-2.645c.502 0 .916-.094 1.244-.281l-.034-.717c-.255-.11-.576-.164-.964-.164-.268 0-.543.053-.823.16-.281.107-.421.277-.421.509 0 .178.099.305.298.38.198.075.431.113.7.113z"/><path d="m33.077 19.94c-.67 0-1.163-.082-1.477-.246s-.51-.362-.588-.595c-.077-.232-.116-.462-.116-.69l.007-.144c.032-.715.048-1.308.048-1.777 0-1.39-.165-2.085-.493-2.085-.205 0-.37.322-.495.967-.126.645-.188 1.259-.188 1.842 0 .447.025.96.075 1.539v.15c0 .31-.084.54-.253.69-.21.192-.481.288-.813.288-.62 0-1.078-.067-1.374-.199-.297-.132-.497-.314-.602-.547-.105-.232-.171-.499-.198-.799-.078-.766-.116-1.516-.116-2.249 0-1.14.031-2.156.095-3.049.023-.365.136-.629.339-.793.202-.164.429-.246.68-.246.469 0 .809.045 1.018.136.21.092.358.199.445.322.619-.729 1.305-1.094 2.057-1.094.907 0 1.614.499 2.119 1.497.607 1.203.91 2.876.91 5.018 0 .396-.01.738-.028 1.025-.027.36-.14.623-.338.79-.198.166-.436.249-.714.249z"/><path d="m38.873 22.77c-.67 0-1.267-.174-1.791-.523-.524-.348-.929-.824-1.216-1.425-.082-.169-.123-.337-.123-.506 0-.123.02-.244.061-.362.1-.283.296-.497.588-.643.159-.077.321-.116.485-.116.128 0 .253.02.376.061.283.101.496.294.639.581.144.288.289.431.435.431.323 0 .582-.165.775-.495.194-.331.291-.754.291-1.269-.141.083-.342.142-.602.178-.259.037-.501.055-.724.055-.634 0-1.199-.141-1.696-.424-.496-.282-.887-.673-1.172-1.172s-.427-1.079-.427-1.74c0-.592.126-1.128.379-1.606.253-.479.592-.875 1.015-1.19.424-.314.822-.507 1.193-.578.372-.07.667-.106.885-.106.338 0 .68.048 1.026.144.21-.442.54-.663.991-.663.661 0 1.138.079 1.432.236s.486.359.574.605c.089.246.147.51.175.793.105 1.203.157 2.281.157 3.233 0 3.236-.718 5.275-2.153 6.118-.433.256-.957.383-1.573.383zm-.601-6.303c.364 0 .722-.077 1.073-.232v-.629c0-.346-.009-.693-.027-1.039-.347-.237-.711-.355-1.094-.355-.415 0-.736.145-.964.437-.146.191-.219.442-.219.752s.078.547.233.711.324.264.509.301c.185.036.348.054.489.054z"/><path d="m46.202 19.933c-.985 0-1.637-.244-1.956-.731-.255-.388-.423-1.39-.505-3.008-.028-.556-.041-.982-.041-1.278 0-.561.027-1.137.082-1.73.036-.36.151-.616.345-.769s.423-.229.687-.229c.446 0 .769.048.967.144.198.095.418.248.66.458.424-.265.886-.397 1.387-.397.702 0 1.265.285 1.689.855.346.474.581 1.089.704 1.845.009.06.014.119.014.178 0 .246-.071.469-.212.67-.228.314-.533.472-.916.472-.246 0-.47-.071-.67-.212-.246-.178-.397-.424-.451-.739-.087-.492-.221-.738-.404-.738-.182 0-.319.103-.41.308s-.144.426-.16.663-.024.44-.024.608c0 .634.063 1.377.191 2.229.023.164.034.291.034.383 0 .305-.082.542-.246.711-.2.205-.456.307-.765.307z"/><path d="m54.104 14.799 2.591-.239c-.146-.25-.331-.436-.554-.557s-.453-.181-.69-.181c-.297 0-.571.083-.824.249-.253.167-.427.409-.523.728zm1.23 5.114c-.879 0-1.668-.163-2.365-.489s-1.246-.806-1.647-1.439c-.401-.634-.602-1.413-.602-2.338 0-.811.176-1.546.526-2.205.351-.658.842-1.179 1.474-1.562.631-.382 1.361-.574 2.191-.574.806 0 1.522.179 2.146.537s1.09.826 1.398 1.405c.308.578.461 1.207.461 1.886 0 .105-.004.21-.013.315-.019.291-.123.533-.315.724-.191.192-.43.299-.718.322l-3.814.307c.191.561.618.841 1.278.841.415 0 .818-.107 1.21-.321.187-.105.381-.157.581-.157.415 0 .736.189.964.567.11.182.164.374.164.574 0 .415-.189.734-.567.957-.747.433-1.531.65-2.352.65z"/></g></g></svg>