<?xml version="1.0" encoding="UTF-8" standalone="no"?><!DOCTYPE svg PUBLIC "-//W3C//DTD SVG 1.1//EN" "http://www.w3.org/Graphics/SVG/1.1/DTD/svg11.dtd"><svg width="100%" height="100%" viewBox="0 0 68 29" version="1.1" xmlns="http://www.w3.org/2000/svg" xmlns:xlink="http://www.w3.org/1999/xlink" xml:space="preserve" xmlns:serif="http://www.serif.com/" style="fill-rule:evenodd;clip-rule:evenodd;stroke-linejoin:round;stroke-miterlimit:2;"><g id="i2"><path d="M58.671,28.419l-50.019,0c-4.697,0 -8.505,-3.807 -8.505,-8.504l0.001,-11.338c0,-4.697 3.807,-8.505 8.504,-8.505l50.019,0c4.697,0 8.504,3.808 8.504,8.505l0,11.338c0,4.697 -3.807,8.504 -8.504,8.504" style="fill:#bd56a0;fill-rule:nonzero;"/><g><path d="M13.307,20.897c-0.155,0 -0.31,-0.011 -0.465,-0.034c-0.87,-0.1 -1.655,-0.399 -2.355,-0.896c-0.699,-0.496 -1.277,-1.114 -1.733,-1.852c-0.141,-0.223 -0.212,-0.454 -0.212,-0.691c0,-0.455 0.203,-0.815 0.609,-1.08c0.218,-0.141 0.446,-0.212 0.683,-0.212c0.461,0 0.823,0.201 1.087,0.602c0.196,0.296 0.434,0.54 0.715,0.731c0.28,0.192 0.577,0.288 0.892,0.288c0.3,0 0.54,-0.06 0.717,-0.178c0.178,-0.119 0.267,-0.294 0.267,-0.527c0,-0.25 -0.239,-0.537 -0.718,-0.861c-0.218,-0.146 -0.462,-0.298 -0.731,-0.458c-0.848,-0.506 -1.49,-0.973 -1.928,-1.401c-0.652,-0.634 -0.977,-1.34 -0.977,-2.119c0,-0.953 0.394,-1.744 1.182,-2.372c0.356,-0.283 0.757,-0.504 1.203,-0.664c0.497,-0.177 0.987,-0.266 1.47,-0.266c0.994,0 1.843,0.255 2.55,0.765c0.734,0.534 1.331,1.247 1.791,2.14c0.105,0.205 0.157,0.41 0.157,0.615c0,0.123 -0.02,0.249 -0.061,0.376c-0.105,0.328 -0.317,0.579 -0.636,0.752c-0.201,0.105 -0.403,0.157 -0.609,0.157c-0.123,0 -0.248,-0.018 -0.376,-0.054c-0.332,-0.105 -0.581,-0.319 -0.745,-0.643c-0.319,-0.624 -0.777,-0.936 -1.374,-0.936c-0.341,0 -0.619,0.075 -0.834,0.225c-0.127,0.091 -0.191,0.214 -0.191,0.369c0,0.256 0.241,0.545 0.725,0.869c0.218,0.145 0.464,0.296 0.738,0.451c0.829,0.483 1.467,0.943 1.914,1.381c0.652,0.638 0.977,1.351 0.977,2.139c0,0.565 -0.117,1.068 -0.352,1.508c-0.234,0.439 -0.551,0.806 -0.95,1.1c-0.399,0.294 -0.81,0.497 -1.234,0.609c-0.424,0.111 -0.822,0.167 -1.196,0.167Z" style="fill:#fff;fill-rule:nonzero;"/><path d="M24.429,20.186c-0.629,0 -1.064,-0.076 -1.306,-0.229c-0.241,-0.153 -0.421,-0.356 -0.54,-0.612c-0.537,0.192 -1.082,0.287 -1.633,0.287c-1.035,0 -1.867,-0.307 -2.496,-0.922c-0.428,-0.415 -0.642,-0.946 -0.642,-1.593c0,-0.675 0.212,-1.206 0.636,-1.593c0.752,-0.684 1.959,-1.025 3.623,-1.025c-0.037,-0.347 -0.14,-0.658 -0.311,-0.933c-0.171,-0.276 -0.336,-0.414 -0.496,-0.414c-0.169,0 -0.305,0.032 -0.41,0.096c-0.105,0.063 -0.198,0.164 -0.28,0.3c-0.169,0.269 -0.355,0.433 -0.558,0.493c-0.202,0.059 -0.358,0.088 -0.468,0.088c-0.178,0 -0.351,-0.043 -0.519,-0.129c-0.278,-0.142 -0.444,-0.303 -0.496,-0.486c-0.052,-0.182 -0.079,-0.319 -0.079,-0.41c0,-0.182 0.055,-0.364 0.165,-0.547c0.296,-0.501 0.683,-0.886 1.162,-1.155c0.478,-0.269 1.018,-0.403 1.62,-0.403c0.72,0 1.326,0.13 1.818,0.389c0.492,0.26 0.892,0.611 1.2,1.053c0.307,0.442 0.543,0.942 0.707,1.501c0.164,0.558 0.276,1.131 0.335,1.719c0.06,0.588 0.089,1.157 0.089,1.709c0,0.665 -0.011,1.251 -0.034,1.757c-0.018,0.382 -0.131,0.655 -0.338,0.816c-0.208,0.162 -0.457,0.243 -0.749,0.243Zm-3.343,-2.645c0.502,0 0.916,-0.094 1.244,-0.281l-0.034,-0.717c-0.255,-0.11 -0.576,-0.164 -0.964,-0.164c-0.268,0 -0.543,0.053 -0.823,0.16c-0.281,0.107 -0.421,0.277 -0.421,0.509c0,0.178 0.099,0.305 0.298,0.38c0.198,0.075 0.431,0.113 0.7,0.113Z" style="fill:#fff;fill-rule:nonzero;"/><path d="M33.077,19.94c-0.67,0 -1.163,-0.082 -1.477,-0.246c-0.314,-0.164 -0.51,-0.362 -0.588,-0.595c-0.077,-0.232 -0.116,-0.462 -0.116,-0.69l0.007,-0.144c0.032,-0.715 0.048,-1.308 0.048,-1.777c0,-1.39 -0.165,-2.085 -0.493,-2.085c-0.205,0 -0.37,0.322 -0.495,0.967c-0.126,0.645 -0.188,1.259 -0.188,1.842c0,0.447 0.025,0.96 0.075,1.539l0,0.15c0,0.31 -0.084,0.54 -0.253,0.69c-0.21,0.192 -0.481,0.288 -0.813,0.288c-0.62,0 -1.078,-0.067 -1.374,-0.199c-0.297,-0.132 -0.497,-0.314 -0.602,-0.547c-0.105,-0.232 -0.171,-0.499 -0.198,-0.799c-0.078,-0.766 -0.116,-1.516 -0.116,-2.249c0,-1.14 0.031,-2.156 0.095,-3.049c0.023,-0.365 0.136,-0.629 0.339,-0.793c0.202,-0.164 0.429,-0.246 0.68,-0.246c0.469,0 0.809,0.045 1.018,0.136c0.21,0.092 0.358,0.199 0.445,0.322c0.619,-0.729 1.305,-1.094 2.057,-1.094c0.907,0 1.614,0.499 2.119,1.497c0.607,1.203 0.91,2.876 0.91,5.018c0,0.396 -0.01,0.738 -0.028,1.025c-0.027,0.36 -0.14,0.623 -0.338,0.79c-0.198,0.166 -0.436,0.249 -0.714,0.249Z" style="fill:#fff;fill-rule:nonzero;"/><path d="M38.873,22.77c-0.67,0 -1.267,-0.174 -1.791,-0.523c-0.524,-0.348 -0.929,-0.824 -1.216,-1.425c-0.082,-0.169 -0.123,-0.337 -0.123,-0.506c0,-0.123 0.02,-0.244 0.061,-0.362c0.1,-0.283 0.296,-0.497 0.588,-0.643c0.159,-0.077 0.321,-0.116 0.485,-0.116c0.128,0 0.253,0.02 0.376,0.061c0.283,0.101 0.496,0.294 0.639,0.581c0.144,0.288 0.289,0.431 0.435,0.431c0.323,0 0.582,-0.165 0.775,-0.495c0.194,-0.331 0.291,-0.754 0.291,-1.269c-0.141,0.083 -0.342,0.142 -0.602,0.178c-0.259,0.037 -0.501,0.055 -0.724,0.055c-0.634,0 -1.199,-0.141 -1.696,-0.424c-0.496,-0.282 -0.887,-0.673 -1.172,-1.172c-0.285,-0.499 -0.427,-1.079 -0.427,-1.74c0,-0.592 0.126,-1.128 0.379,-1.606c0.253,-0.479 0.592,-0.875 1.015,-1.19c0.424,-0.314 0.822,-0.507 1.193,-0.578c0.372,-0.07 0.667,-0.106 0.885,-0.106c0.338,0 0.68,0.048 1.026,0.144c0.21,-0.442 0.54,-0.663 0.991,-0.663c0.661,0 1.138,0.079 1.432,0.236c0.294,0.157 0.486,0.359 0.574,0.605c0.089,0.246 0.147,0.51 0.175,0.793c0.105,1.203 0.157,2.281 0.157,3.233c0,3.236 -0.718,5.275 -2.153,6.118c-0.433,0.256 -0.957,0.383 -1.573,0.383Zm-0.601,-6.303c0.364,0 0.722,-0.077 1.073,-0.232l0,-0.629c0,-0.346 -0.009,-0.693 -0.027,-1.039c-0.347,-0.237 -0.711,-0.355 -1.094,-0.355c-0.415,0 -0.736,0.145 -0.964,0.437c-0.146,0.191 -0.219,0.442 -0.219,0.752c0,0.31 0.078,0.547 0.233,0.711c0.155,0.164 0.324,0.264 0.509,0.301c0.185,0.036 0.348,0.054 0.489,0.054Z" style="fill:#fff;fill-rule:nonzero;"/><path d="M46.202,19.933c-0.985,0 -1.637,-0.244 -1.956,-0.731c-0.255,-0.388 -0.423,-1.39 -0.505,-3.008c-0.028,-0.556 -0.041,-0.982 -0.041,-1.278c0,-0.561 0.027,-1.137 0.082,-1.73c0.036,-0.36 0.151,-0.616 0.345,-0.769c0.194,-0.153 0.423,-0.229 0.687,-0.229c0.446,0 0.769,0.048 0.967,0.144c0.198,0.095 0.418,0.248 0.66,0.458c0.424,-0.265 0.886,-0.397 1.387,-0.397c0.702,0 1.265,0.285 1.689,0.855c0.346,0.474 0.581,1.089 0.704,1.845c0.009,0.06 0.014,0.119 0.014,0.178c0,0.246 -0.071,0.469 -0.212,0.67c-0.228,0.314 -0.533,0.472 -0.916,0.472c-0.246,0 -0.47,-0.071 -0.67,-0.212c-0.246,-0.178 -0.397,-0.424 -0.451,-0.739c-0.087,-0.492 -0.221,-0.738 -0.404,-0.738c-0.182,0 -0.319,0.103 -0.41,0.308c-0.091,0.205 -0.144,0.426 -0.16,0.663c-0.016,0.237 -0.024,0.44 -0.024,0.608c0,0.634 0.063,1.377 0.191,2.229c0.023,0.164 0.034,0.291 0.034,0.383c0,0.305 -0.082,0.542 -0.246,0.711c-0.2,0.205 -0.456,0.307 -0.765,0.307Z" style="fill:#fff;fill-rule:nonzero;"/><path d="M54.104,14.799l2.591,-0.239c-0.146,-0.25 -0.331,-0.436 -0.554,-0.557c-0.223,-0.121 -0.453,-0.181 -0.69,-0.181c-0.297,0 -0.571,0.083 -0.824,0.249c-0.253,0.167 -0.427,0.409 -0.523,0.728Zm1.23,5.114c-0.879,0 -1.668,-0.163 -2.365,-0.489c-0.697,-0.326 -1.246,-0.806 -1.647,-1.439c-0.401,-0.634 -0.602,-1.413 -0.602,-2.338c0,-0.811 0.176,-1.546 0.526,-2.205c0.351,-0.658 0.842,-1.179 1.474,-1.562c0.631,-0.382 1.361,-0.574 2.191,-0.574c0.806,0 1.522,0.179 2.146,0.537c0.624,0.358 1.09,0.826 1.398,1.405c0.308,0.578 0.461,1.207 0.461,1.886c0,0.105 -0.004,0.21 -0.013,0.315c-0.019,0.291 -0.123,0.533 -0.315,0.724c-0.191,0.192 -0.43,0.299 -0.718,0.322l-3.814,0.307c0.191,0.561 0.618,0.841 1.278,0.841c0.415,0 0.818,-0.107 1.21,-0.321c0.187,-0.105 0.381,-0.157 0.581,-0.157c0.415,0 0.736,0.189 0.964,0.567c0.11,0.182 0.164,0.374 0.164,0.574c0,0.415 -0.189,0.734 -0.567,0.957c-0.747,0.433 -1.531,0.65 -2.352,0.65Z" style="fill:#fff;fill-rule:nonzero;"/></g></g></svg>