<?xml version="1.0" encoding="UTF-8" standalone="no"?><!DOCTYPE svg PUBLIC "-//W3C//DTD SVG 1.1//EN" "http://www.w3.org/Graphics/SVG/1.1/DTD/svg11.dtd"><svg width="100%" height="100%" viewBox="0 0 68 29" version="1.1" xmlns="http://www.w3.org/2000/svg" xmlns:xlink="http://www.w3.org/1999/xlink" xml:space="preserve" xmlns:serif="http://www.serif.com/" style="fill-rule:evenodd;clip-rule:evenodd;stroke-linejoin:round;stroke-miterlimit:2;"><g id="i6"><path d="M58.736,28.449l-50.019,0c-4.697,0 -8.504,-3.808 -8.504,-8.504l0,-11.339c0,-4.696 3.807,-8.504 8.504,-8.504l50.019,0c4.697,0 8.504,3.808 8.504,8.504l0,11.339c0,4.696 -3.807,8.504 -8.504,8.504" style="fill:#008fd4;fill-rule:nonzero;"/><g><path d="M17.696,19.968c-1.171,0 -2.149,-0.754 -2.933,-2.263c-0.784,-1.508 -1.474,-3.889 -2.071,-7.143c-0.023,-0.128 -0.034,-0.249 -0.034,-0.362c0,-0.342 0.098,-0.602 0.294,-0.78c0.255,-0.228 0.585,-0.342 0.991,-0.342c0.816,0 1.381,0.138 1.695,0.414c0.315,0.276 0.513,0.646 0.595,1.111c0.114,0.67 0.342,1.647 0.684,2.932c0.419,1.564 0.724,2.345 0.916,2.345c0.136,0 0.289,-0.244 0.458,-0.731c0.168,-0.488 0.331,-1.062 0.488,-1.723c0.158,-0.661 0.287,-1.282 0.39,-1.863c0.103,-0.581 0.161,-0.987 0.174,-1.22c0.019,-0.364 0.155,-0.665 0.41,-0.902c0.237,-0.219 0.527,-0.328 0.869,-0.328c0.396,0 0.717,0.13 0.963,0.389c0.224,0.237 0.335,0.524 0.335,0.862l0,0.061c-0.072,2.014 -0.313,3.73 -0.721,5.148c-0.408,1.417 -0.921,2.504 -1.541,3.26c-0.62,0.757 -1.274,1.135 -1.962,1.135Z" style="fill:#fff;fill-rule:nonzero;"/><path d="M25.496,14.739l2.59,-0.24c-0.145,-0.25 -0.33,-0.436 -0.553,-0.557c-0.224,-0.121 -0.454,-0.181 -0.691,-0.181c-0.296,0 -0.57,0.083 -0.823,0.25c-0.253,0.166 -0.428,0.409 -0.523,0.728Zm1.23,5.113c-0.879,0 -1.668,-0.163 -2.365,-0.489c-0.697,-0.326 -1.247,-0.805 -1.648,-1.439c-0.401,-0.633 -0.601,-1.413 -0.601,-2.338c0,-0.811 0.175,-1.546 0.526,-2.204c0.351,-0.659 0.842,-1.18 1.473,-1.562c0.632,-0.383 1.362,-0.575 2.191,-0.575c0.807,0 1.522,0.179 2.147,0.537c0.624,0.358 1.09,0.826 1.398,1.405c0.307,0.579 0.461,1.208 0.461,1.887c0,0.104 -0.004,0.209 -0.014,0.314c-0.018,0.292 -0.123,0.533 -0.314,0.725c-0.191,0.191 -0.431,0.298 -0.718,0.321l-3.814,0.308c0.191,0.56 0.617,0.84 1.278,0.84c0.415,0 0.818,-0.107 1.21,-0.321c0.187,-0.105 0.381,-0.157 0.581,-0.157c0.415,0 0.736,0.189 0.964,0.567c0.109,0.183 0.164,0.374 0.164,0.574c0,0.415 -0.189,0.734 -0.567,0.957c-0.748,0.433 -1.532,0.65 -2.352,0.65Z" style="fill:#fff;fill-rule:nonzero;"/><path d="M37.677,19.879c-0.67,0 -1.162,-0.082 -1.476,-0.246c-0.315,-0.164 -0.511,-0.362 -0.588,-0.595c-0.078,-0.232 -0.116,-0.462 -0.116,-0.69l0.006,-0.144c0.032,-0.715 0.048,-1.308 0.048,-1.777c0,-1.39 -0.164,-2.085 -0.492,-2.085c-0.205,0 -0.37,0.323 -0.495,0.967c-0.126,0.645 -0.188,1.259 -0.188,1.843c0,0.446 0.025,0.959 0.075,1.538l0,0.15c0,0.31 -0.085,0.54 -0.253,0.691c-0.21,0.191 -0.481,0.287 -0.814,0.287c-0.619,0 -1.077,-0.066 -1.374,-0.199c-0.296,-0.132 -0.496,-0.314 -0.601,-0.546c-0.105,-0.233 -0.171,-0.499 -0.199,-0.8c-0.077,-0.766 -0.116,-1.516 -0.116,-2.249c0,-1.14 0.032,-2.156 0.096,-3.049c0.023,-0.365 0.136,-0.629 0.338,-0.793c0.203,-0.164 0.43,-0.246 0.681,-0.246c0.469,0 0.808,0.045 1.018,0.137c0.21,0.091 0.358,0.198 0.444,0.321c0.62,-0.729 1.306,-1.094 2.058,-1.094c0.907,0 1.613,0.499 2.119,1.497c0.606,1.203 0.909,2.876 0.909,5.018c0,0.396 -0.009,0.738 -0.027,1.025c-0.027,0.36 -0.14,0.623 -0.338,0.79c-0.199,0.166 -0.437,0.249 -0.715,0.249Z" style="fill:#fff;fill-rule:nonzero;"/><path d="M46.051,20.125c-0.629,0 -1.064,-0.076 -1.305,-0.229c-0.242,-0.152 -0.422,-0.356 -0.54,-0.611c-0.538,0.191 -1.083,0.287 -1.634,0.287c-1.035,0 -1.866,-0.308 -2.495,-0.923c-0.429,-0.415 -0.643,-0.946 -0.643,-1.593c0,-0.674 0.212,-1.205 0.636,-1.593c0.752,-0.683 1.959,-1.025 3.623,-1.025c-0.037,-0.347 -0.14,-0.658 -0.311,-0.933c-0.171,-0.276 -0.336,-0.414 -0.496,-0.414c-0.168,0 -0.305,0.032 -0.41,0.096c-0.105,0.064 -0.198,0.164 -0.28,0.301c-0.169,0.269 -0.355,0.433 -0.557,0.492c-0.203,0.059 -0.359,0.089 -0.469,0.089c-0.177,0 -0.35,-0.044 -0.519,-0.13c-0.278,-0.141 -0.443,-0.303 -0.496,-0.486c-0.052,-0.182 -0.078,-0.319 -0.078,-0.41c0,-0.182 0.054,-0.364 0.164,-0.547c0.296,-0.501 0.683,-0.886 1.162,-1.155c0.478,-0.269 1.018,-0.403 1.62,-0.403c0.72,0 1.326,0.13 1.818,0.389c0.493,0.26 0.892,0.611 1.2,1.053c0.308,0.442 0.543,0.942 0.708,1.501c0.164,0.558 0.275,1.131 0.335,1.719c0.059,0.588 0.088,1.157 0.088,1.709c0,0.665 -0.011,1.251 -0.034,1.757c-0.018,0.383 -0.131,0.655 -0.338,0.817c-0.208,0.161 -0.457,0.242 -0.749,0.242Zm-3.342,-2.645c0.501,0 0.916,-0.094 1.244,-0.28l-0.035,-0.718c-0.255,-0.11 -0.576,-0.164 -0.963,-0.164c-0.269,0 -0.544,0.053 -0.824,0.16c-0.28,0.107 -0.421,0.277 -0.421,0.51c0,0.177 0.1,0.304 0.298,0.379c0.198,0.075 0.432,0.113 0.701,0.113Z" style="fill:#fff;fill-rule:nonzero;"/><path d="M51.103,20.221c-0.67,0 -1.294,-0.162 -1.873,-0.485c-0.579,-0.324 -0.98,-0.814 -1.203,-1.47c-0.041,-0.119 -0.062,-0.235 -0.062,-0.349c0,-0.177 0.044,-0.348 0.13,-0.512c0.137,-0.269 0.36,-0.456 0.67,-0.561c0.114,-0.036 0.228,-0.055 0.342,-0.055c0.178,0 0.349,0.041 0.513,0.123c0.269,0.137 0.458,0.358 0.567,0.664c0.059,0.168 0.201,0.252 0.424,0.252c0.182,0 0.341,-0.05 0.475,-0.15c0.134,-0.1 0.202,-0.221 0.202,-0.362c0,-0.137 -0.092,-0.263 -0.274,-0.38c-0.182,-0.116 -0.412,-0.242 -0.69,-0.379c-0.688,-0.333 -1.212,-0.665 -1.573,-0.998c-0.551,-0.51 -0.827,-1.139 -0.827,-1.887c0,-0.847 0.333,-1.506 0.998,-1.975c0.597,-0.424 1.333,-0.636 2.208,-0.636c0.689,0 1.337,0.198 1.945,0.595c0.609,0.396 1.043,0.973 1.302,1.729c0.041,0.123 0.062,0.244 0.062,0.362c0,0.178 -0.041,0.347 -0.123,0.506c-0.141,0.269 -0.362,0.454 -0.663,0.554c-0.123,0.041 -0.244,0.061 -0.362,0.061c-0.178,0 -0.347,-0.041 -0.506,-0.123c-0.269,-0.136 -0.454,-0.355 -0.554,-0.656c-0.082,-0.237 -0.253,-0.355 -0.513,-0.355c-0.15,0 -0.279,0.04 -0.386,0.119c-0.107,0.08 -0.161,0.182 -0.161,0.305c0,0.141 0.094,0.271 0.281,0.389c0.187,0.119 0.421,0.246 0.704,0.383c0.25,0.123 0.515,0.264 0.793,0.424c1.057,0.601 1.586,1.392 1.586,2.372c0,0.779 -0.353,1.397 -1.06,1.852c-0.67,0.429 -1.46,0.643 -2.372,0.643Z" style="fill:#fff;fill-rule:nonzero;"/></g></g></svg>