<svg clip-rule="evenodd" fill-rule="evenodd" stroke-linejoin="round" stroke-miterlimit="2" viewBox="0 0 68 29" xmlns="http://www.w3.org/2000/svg"><g fill-rule="nonzero"><path d="m58.736 28.449h-50.019c-4.697 0-8.504-3.808-8.504-8.504v-11.339c0-4.696 3.807-8.504 8.504-8.504h50.019c4.697 0 8.504 3.808 8.504 8.504v11.339c0 4.696-3.807 8.504-8.504 8.504" fill="#008fd4"/><g fill="#fff"><path d="m17.696 19.968c-1.171 0-2.149-.754-2.933-2.263-.784-1.508-1.474-3.889-2.071-7.143-.023-.128-.034-.249-.034-.362 0-.342.098-.602.294-.78.255-.228.585-.342.991-.342.816 0 1.381.138 1.695.414.315.276.513.646.595 1.111.114.67.342 1.647.684 2.932.419 1.564.724 2.345.916 2.345.136 0 .289-.244.458-.731.168-.488.331-1.062.488-1.723.158-.661.287-1.282.39-1.863s.161-.987.174-1.22c.019-.364.155-.665.41-.902.237-.219.527-.328.869-.328.396 0 .717.13.963.389.224.237.335.524.335.862v.061c-.072 2.014-.313 3.73-.721 5.148-.408 1.417-.921 2.504-1.541 3.26-.62.757-1.274 1.135-1.962 1.135z"/><path d="m25.496 14.739 2.59-.24c-.145-.25-.33-.436-.553-.557-.224-.121-.454-.181-.691-.181-.296 0-.57.083-.823.25-.253.166-.428.409-.523.728zm1.23 5.113c-.879 0-1.668-.163-2.365-.489s-1.247-.805-1.648-1.439c-.401-.633-.601-1.413-.601-2.338 0-.811.175-1.546.526-2.204.351-.659.842-1.18 1.473-1.562.632-.383 1.362-.575 2.191-.575.807 0 1.522.179 2.147.537.624.358 1.09.826 1.398 1.405.307.579.461 1.208.461 1.887 0 .104-.004.209-.014.314-.018.292-.123.533-.314.725-.191.191-.431.298-.718.321l-3.814.308c.191.56.617.84 1.278.84.415 0 .818-.107 1.21-.321.187-.105.381-.157.581-.157.415 0 .736.189.964.567.109.183.164.374.164.574 0 .415-.189.734-.567.957-.748.433-1.532.65-2.352.65z"/><path d="m37.677 19.879c-.67 0-1.162-.082-1.476-.246-.315-.164-.511-.362-.588-.595-.078-.232-.116-.462-.116-.69l.006-.144c.032-.715.048-1.308.048-1.777 0-1.39-.164-2.085-.492-2.085-.205 0-.37.323-.495.967-.126.645-.188 1.259-.188 1.843 0 .446.025.959.075 1.538v.15c0 .31-.085.54-.253.691-.21.191-.481.287-.814.287-.619 0-1.077-.066-1.374-.199-.296-.132-.496-.314-.601-.546-.105-.233-.171-.499-.199-.8-.077-.766-.116-1.516-.116-2.249 0-1.14.032-2.156.096-3.049.023-.365.136-.629.338-.793.203-.164.43-.246.681-.246.469 0 .808.045 1.018.137.21.091.358.198.444.321.62-.729 1.306-1.094 2.058-1.094.907 0 1.613.499 2.119 1.497.606 1.203.909 2.876.909 5.018 0 .396-.009.738-.027 1.025-.027.36-.14.623-.338.79-.199.166-.437.249-.715.249z"/><path d="m46.051 20.125c-.629 0-1.064-.076-1.305-.229-.242-.152-.422-.356-.54-.611-.538.191-1.083.287-1.634.287-1.035 0-1.866-.308-2.495-.923-.429-.415-.643-.946-.643-1.593 0-.674.212-1.205.636-1.593.752-.683 1.959-1.025 3.623-1.025-.037-.347-.14-.658-.311-.933-.171-.276-.336-.414-.496-.414-.168 0-.305.032-.41.096s-.198.164-.28.301c-.169.269-.355.433-.557.492-.203.059-.359.089-.469.089-.177 0-.35-.044-.519-.13-.278-.141-.443-.303-.496-.486-.052-.182-.078-.319-.078-.41 0-.182.054-.364.164-.547.296-.501.683-.886 1.162-1.155.478-.269 1.018-.403 1.62-.403.72 0 1.326.13 1.818.389.493.26.892.611 1.2 1.053s.543.942.708 1.501c.164.558.275 1.131.335 1.719.059.588.088 1.157.088 1.709 0 .665-.011 1.251-.034 1.757-.018.383-.131.655-.338.817-.208.161-.457.242-.749.242zm-3.342-2.645c.501 0 .916-.094 1.244-.28l-.035-.718c-.255-.11-.576-.164-.963-.164-.269 0-.544.053-.824.16s-.421.277-.421.51c0 .177.1.304.298.379s.432.113.701.113z"/><path d="m51.103 20.221c-.67 0-1.294-.162-1.873-.485-.579-.324-.98-.814-1.203-1.47-.041-.119-.062-.235-.062-.349 0-.177.044-.348.13-.512.137-.269.36-.456.67-.561.114-.036.228-.055.342-.055.178 0 .349.041.513.123.269.137.458.358.567.664.059.168.201.252.424.252.182 0 .341-.05.475-.15s.202-.221.202-.362c0-.137-.092-.263-.274-.38-.182-.116-.412-.242-.69-.379-.688-.333-1.212-.665-1.573-.998-.551-.51-.827-1.139-.827-1.887 0-.847.333-1.506.998-1.975.597-.424 1.333-.636 2.208-.636.689 0 1.337.198 1.945.595.609.396 1.043.973 1.302 1.729.041.123.062.244.062.362 0 .178-.041.347-.123.506-.141.269-.362.454-.663.554-.123.041-.244.061-.362.061-.178 0-.347-.041-.506-.123-.269-.136-.454-.355-.554-.656-.082-.237-.253-.355-.513-.355-.15 0-.279.04-.386.119-.107.08-.161.182-.161.305 0 .141.094.271.281.389.187.119.421.246.704.383.25.123.515.264.793.424 1.057.601 1.586 1.392 1.586 2.372 0 .779-.353 1.397-1.06 1.852-.67.429-1.46.643-2.372.643z"/></g></g></svg>