<svg clip-rule="evenodd" fill-rule="evenodd" stroke-linejoin="round" stroke-miterlimit="2" viewBox="0 0 141 44" xmlns="http://www.w3.org/2000/svg"><g fill="#231f20" fill-rule="nonzero"><path d="m2.277 8.962c-.534 0-1.216-.116-2.047-.349v-1.117c.895.415 1.631.623 2.208.623.444 0 .801-.116 1.071-.349.271-.233.406-.539.406-.919 0-.311-.089-.576-.266-.795-.177-.218-.504-.462-.98-.73l-.548-.317c-.677-.387-1.154-.751-1.431-1.093-.278-.342-.417-.74-.417-1.195 0-.612.222-1.116.666-1.512s1.01-.594 1.698-.594c.612 0 1.258.103 1.938.307v1.031c-.837-.33-1.462-.494-1.874-.494-.39 0-.713.104-.967.311-.254.208-.381.469-.381.784 0 .265.093.5.279.704s.526.448 1.021.731l.569.322c.687.39 1.167.759 1.439 1.106.273.348.409.765.409 1.252 0 .691-.255 1.246-.766 1.665-.51.419-1.186.628-2.027.628z"/><path d="m9.504 8.763v-1.095c-.562.82-1.244 1.23-2.046 1.23-.509 0-.913-.161-1.214-.481s-.451-.753-.451-1.297v-4.19h1.058v3.846c0 .437.063.748.19.932.128.184.34.277.637.277.644 0 1.253-.425 1.826-1.273v-3.782h1.058v5.833z"/><path d="m14.527 10.885v-7.955h1.058v1.096c.434-.816 1.084-1.224 1.95-1.224.702 0 1.254.256 1.657.768s.604 1.212.604 2.1c0 .966-.228 1.746-.685 2.339-.456.592-1.057.889-1.802.889-.691 0-1.265-.265-1.724-.795v2.782zm1.058-3.513c.545.487 1.064.731 1.558.731 1.017 0 1.525-.775 1.525-2.326 0-1.368-.451-2.052-1.353-2.052-.591 0-1.167.321-1.73.962z"/><path d="m23.64 8.022c-.634.584-1.244.876-1.832.876-.483 0-.884-.152-1.203-.454-.318-.303-.478-.685-.478-1.147 0-.637.268-1.127.803-1.469.536-.342 1.303-.513 2.302-.513h.252v-.703c0-.677-.347-1.016-1.042-1.016-.558 0-1.162.172-1.81.516v-.875c.713-.29 1.38-.435 2.004-.435.651 0 1.132.146 1.442.44.309.294.464.75.464 1.37v2.642c0 .605.186.908.559.908.046 0 .114-.007.204-.022l.075.586c-.24.114-.505.172-.795.172-.494 0-.809-.292-.945-.876zm-.156-.575v-1.509l-.354-.011c-.58 0-1.049.111-1.408.331-.358.22-.537.509-.537.867 0 .254.09.469.269.645.179.175.397.263.655.263.441 0 .899-.195 1.375-.586z"/><path d="m25.888 8.763v-5.833h1.058v1.096c.419-.816 1.028-1.224 1.827-1.224.107 0 .22.008.338.026v.989c-.183-.061-.344-.092-.483-.092-.67 0-1.23.398-1.682 1.193v3.845z"/><path d="m33.846 8.575c-.709.215-1.316.323-1.821.323-.859 0-1.56-.286-2.102-.857-.543-.571-.814-1.311-.814-2.221 0-.884.239-1.609.717-2.175s1.089-.849 1.834-.849c.706 0 1.251.251 1.636.752s.577 1.214.577 2.138l-.005.327h-3.679c.153 1.386.832 2.079 2.035 2.079.441 0 .981-.118 1.622-.354zm-3.609-3.357h2.573c0-1.084-.405-1.627-1.214-1.627-.813 0-1.266.543-1.359 1.627z"/><path d="m38.624 8.763v-1.095c-.429.82-1.077 1.23-1.944 1.23-.702 0-1.254-.256-1.657-.768s-.604-1.212-.604-2.1c0-.971.228-1.751.685-2.342.456-.591 1.057-.886 1.802-.886.691 0 1.264.264 1.718.794v-3.314h1.064v8.481zm0-4.441c-.547-.484-1.067-.726-1.557-.726-1.014 0-1.52.776-1.52 2.326 0 1.364.451 2.046 1.353 2.046.588 0 1.162-.32 1.724-.961z"/><path d="m47.923 8.575c-.709.215-1.316.323-1.821.323-.859 0-1.56-.286-2.103-.857-.542-.571-.813-1.311-.813-2.221 0-.884.239-1.609.717-2.175s1.089-.849 1.834-.849c.705 0 1.251.251 1.635.752.385.501.578 1.214.578 2.138l-.006.327h-3.679c.154 1.386.833 2.079 2.036 2.079.44 0 .981-.118 1.622-.354zm-3.609-3.357h2.572c0-1.084-.404-1.627-1.213-1.627-.813 0-1.266.543-1.359 1.627z"/><path d="m50.504 8.898c-.483 0-1.07-.113-1.761-.339v-.972c.691.344 1.292.516 1.804.516.305 0 .557-.083.758-.247.2-.165.3-.371.3-.618 0-.362-.281-.661-.843-.897l-.617-.263c-.914-.38-1.37-.926-1.37-1.638 0-.509.18-.909.54-1.201s.853-.437 1.479-.437c.326 0 .729.044 1.209.134l.22.043v.881c-.591-.176-1.06-.264-1.407-.264-.68 0-1.021.247-1.021.742 0 .318.258.587.774.805l.51.215c.577.244.985.501 1.225.771s.36.608.36 1.012c0 .512-.203.933-.607 1.263-.405.329-.922.494-1.553.494z"/><path d="m55.861 8.763v-5.833h1.058v1.096c.516-.816 1.178-1.224 1.988-1.224.78 0 1.312.408 1.595 1.224.501-.82 1.153-1.23 1.955-1.23.516 0 .915.151 1.198.454s.424.726.424 1.27v4.243h-1.063v-4.076c0-.666-.264-.999-.79-.999-.548 0-1.123.388-1.724 1.165v3.91h-1.064v-4.076c0-.67-.268-1.005-.805-1.005-.534 0-1.105.391-1.714 1.171v3.91z"/><path d="m68.32 8.022c-.634.584-1.244.876-1.831.876-.484 0-.885-.152-1.204-.454-.318-.303-.478-.685-.478-1.147 0-.637.268-1.127.803-1.469.536-.342 1.303-.513 2.302-.513h.252v-.703c0-.677-.347-1.016-1.042-1.016-.558 0-1.162.172-1.81.516v-.875c.713-.29 1.381-.435 2.004-.435.651 0 1.132.146 1.442.44s.464.75.464 1.37v2.642c0 .605.187.908.559.908.047 0 .115-.007.204-.022l.075.586c-.24.114-.505.172-.795.172-.494 0-.809-.292-.945-.876zm-.156-.575v-1.509l-.354-.011c-.58 0-1.049.111-1.407.331s-.537.509-.537.867c0 .254.089.469.268.645.179.175.398.263.655.263.441 0 .899-.195 1.375-.586zm-1.622-5.575 1.295-1.724h1.224l-1.724 1.724z"/><path d="m72.115 8.898c-.483 0-1.07-.113-1.761-.339v-.972c.691.344 1.292.516 1.804.516.305 0 .557-.083.758-.247.2-.165.3-.371.3-.618 0-.362-.281-.661-.843-.897l-.617-.263c-.914-.38-1.37-.926-1.37-1.638 0-.509.18-.909.54-1.201s.853-.437 1.479-.437c.326 0 .729.044 1.209.134l.22.043v.881c-.591-.176-1.06-.264-1.407-.264-.68 0-1.021.247-1.021.742 0 .318.258.587.774.805l.51.215c.577.244.985.501 1.225.771s.36.608.36 1.012c0 .512-.203.933-.607 1.263-.405.329-.922.494-1.553.494z"/><path d="m78.287 3.725v5.038h-1.063v-5.038h-.827v-.795h.827v-.698c0-1.389.634-2.084 1.901-2.084.355 0 .758.059 1.209.177v.838c-.476-.146-.858-.22-1.144-.22-.348 0-.585.083-.712.25-.127.166-.191.475-.191.926v.811h1.456v.795z"/><path d="m80.251 8.763v-5.833h1.058v5.833zm0-6.891v-1.058h1.058v1.058z"/><path d="m82.612 8.763v-5.833h1.059v1.096c.558-.816 1.242-1.224 2.051-1.224.505 0 .908.16 1.209.48.301.321.451.751.451 1.292v4.189h-1.058v-3.845c0-.434-.064-.742-.191-.927-.127-.184-.337-.276-.631-.276-.648 0-1.259.424-1.831 1.273v3.775z"/><path d="m91.628 8.022c-.633.584-1.244.876-1.831.876-.484 0-.885-.152-1.203-.454-.319-.303-.478-.685-.478-1.147 0-.637.267-1.127.803-1.469.535-.342 1.302-.513 2.301-.513h.253v-.703c0-.677-.348-1.016-1.042-1.016-.559 0-1.162.172-1.81.516v-.875c.712-.29 1.38-.435 2.003-.435.652 0 1.132.146 1.442.44s.465.75.465 1.37v2.642c0 .605.186.908.558.908.047 0 .115-.007.204-.022l.076.586c-.24.114-.505.172-.795.172-.494 0-.81-.292-.946-.876zm-.155-.575v-1.509l-.355-.011c-.58 0-1.049.111-1.407.331s-.537.509-.537.867c0 .254.089.469.268.645.179.175.398.263.656.263.44 0 .898-.195 1.375-.586z"/><path d="m97.726 10.885.945-2.122-2.256-5.833h1.144l1.671 4.394 1.783-4.394h.999l-3.185 7.955z"/><path d="m105.099 8.763v-5.833h1.058v1.096c.515-.816 1.178-1.224 1.987-1.224.781 0 1.312.408 1.595 1.224.502-.82 1.153-1.23 1.955-1.23.516 0 .915.151 1.198.454s.424.726.424 1.27v4.243h-1.063v-4.076c0-.666-.263-.999-.79-.999-.547 0-1.122.388-1.724 1.165v3.91h-1.063v-4.076c0-.67-.269-1.005-.806-1.005-.533 0-1.104.391-1.713 1.171v3.91z"/><path d="m118.886 8.575c-.709.215-1.316.323-1.821.323-.86 0-1.561-.286-2.103-.857s-.814-1.311-.814-2.221c0-.884.239-1.609.717-2.175s1.09-.849 1.835-.849c.705 0 1.25.251 1.635.752s.577 1.214.577 2.138l-.005.327h-3.679c.154 1.386.832 2.079 2.036 2.079.44 0 .981-.118 1.622-.354zm-3.61-3.357h2.573c0-1.084-.405-1.627-1.214-1.627-.813 0-1.266.543-1.359 1.627z"/><path d="m119.981 8.763v-5.833h1.058v1.096c.558-.816 1.242-1.224 2.051-1.224.505 0 .908.16 1.209.48.301.321.451.751.451 1.292v4.189h-1.058v-3.845c0-.434-.064-.742-.191-.927-.127-.184-.337-.276-.631-.276-.648 0-1.258.424-1.831 1.273v3.775z"/><path d="m128.332 8.898c-.834 0-1.5-.277-1.998-.83s-.747-1.294-.747-2.221c0-.938.25-1.68.75-2.226.499-.546 1.177-.819 2.033-.819.855 0 1.533.273 2.032.819.5.546.75 1.284.75 2.215 0 .953-.251 1.701-.752 2.245-.502.545-1.191.817-2.068.817zm.016-.795c1.121 0 1.681-.756 1.681-2.267 0-1.493-.553-2.24-1.659-2.24-1.103 0-1.655.751-1.655 2.251 0 1.504.545 2.256 1.633 2.256z"/><path d="m133.595 8.898c-.484 0-1.071-.113-1.762-.339v-.972c.691.344 1.293.516 1.805.516.304 0 .557-.083.757-.247.201-.165.301-.371.301-.618 0-.362-.281-.661-.843-.897l-.618-.263c-.913-.38-1.37-.926-1.37-1.638 0-.509.18-.909.54-1.201s.853-.437 1.48-.437c.326 0 .729.044 1.208.134l.221.043v.881c-.591-.176-1.06-.264-1.408-.264-.68 0-1.02.247-1.02.742 0 .318.258.587.773.805l.511.215c.576.244.984.501 1.224.771s.36.608.36 1.012c0 .512-.202.933-.607 1.263-.404.329-.922.494-1.552.494z"/><path d="m1.501 19.763v-5.833h1.058v1.096c.419-.816 1.028-1.224 1.826-1.224.108 0 .221.008.339.026v.989c-.183-.061-.344-.092-.484-.092-.669 0-1.23.398-1.681 1.193v3.845z"/><path d="m9.52 19.575c-.709.215-1.316.323-1.821.323-.86 0-1.561-.286-2.103-.857-.543-.571-.814-1.311-.814-2.221 0-.884.239-1.609.717-2.175s1.09-.849 1.835-.849c.705 0 1.25.251 1.635.752s.577 1.214.577 2.138l-.005.327h-3.679c.154 1.386.832 2.079 2.035 2.079.441 0 .982-.118 1.623-.354zm-3.61-3.357h2.573c0-1.084-.405-1.627-1.214-1.627-.813 0-1.266.543-1.359 1.627z"/><path d="m12.161 19.898c-.483 0-1.07-.113-1.761-.339v-.972c.691.344 1.292.516 1.804.516.305 0 .557-.083.758-.247.2-.165.3-.371.3-.618 0-.362-.281-.661-.843-.897l-.617-.263c-.914-.38-1.37-.926-1.37-1.638 0-.509.18-.909.54-1.201s.853-.437 1.479-.437c.326 0 .729.044 1.209.134l.22.043v.881c-.591-.176-1.06-.264-1.407-.264-.68 0-1.021.247-1.021.742 0 .318.258.587.774.805l.51.215c.577.244.985.501 1.225.771s.36.608.36 1.012c0 .512-.203.933-.607 1.263-.405.329-.922.494-1.553.494z"/><path d="m15.464 19.763v-5.833h1.058v5.833zm0-6.891v-1.058h1.058v1.058z"/><path d="m19.432 19.898c-.483 0-1.07-.113-1.761-.339v-.972c.691.344 1.292.516 1.804.516.305 0 .557-.083.758-.247.2-.165.301-.371.301-.618 0-.362-.282-.661-.844-.897l-.617-.263c-.913-.38-1.37-.926-1.37-1.638 0-.509.18-.909.54-1.201s.853-.437 1.48-.437c.325 0 .728.044 1.208.134l.22.043v.881c-.591-.176-1.06-.264-1.407-.264-.68 0-1.021.247-1.021.742 0 .318.258.587.774.805l.51.215c.577.244.985.501 1.225.771s.36.608.36 1.012c0 .512-.203.933-.607 1.263-.405.329-.922.494-1.553.494z"/><path d="m24.486 19.898c-.537 0-.956-.154-1.257-.462s-.451-.736-.451-1.284v-3.427h-.731v-.795h.731v-1.058l1.058-.102v1.16h1.525v.795h-1.525v3.234c0 .762.329 1.144.988 1.144.14 0 .31-.024.511-.07v.73c-.326.09-.609.135-.849.135z"/><path d="m30.367 19.575c-.709.215-1.316.323-1.821.323-.86 0-1.561-.286-2.103-.857s-.814-1.311-.814-2.221c0-.884.239-1.609.717-2.175s1.09-.849 1.835-.849c.705 0 1.25.251 1.635.752s.577 1.214.577 2.138l-.005.327h-3.679c.154 1.386.832 2.079 2.036 2.079.44 0 .981-.118 1.622-.354zm-3.61-3.357h2.573c0-1.084-.405-1.627-1.214-1.627-.813 0-1.266.543-1.359 1.627z"/><path d="m31.462 19.763v-5.833h1.058v1.096c.558-.816 1.242-1.224 2.051-1.224.505 0 .908.16 1.209.48.301.321.451.751.451 1.292v4.189h-1.058v-3.845c0-.434-.064-.742-.191-.927-.127-.184-.337-.276-.631-.276-.648 0-1.258.424-1.831 1.273v3.775z"/><path d="m39.281 19.898c-.537 0-.956-.154-1.257-.462-.3-.308-.451-.736-.451-1.284v-3.427h-.73v-.795h.73v-1.058l1.058-.102v1.16h1.526v.795h-1.526v3.234c0 .762.33 1.144.989 1.144.139 0 .309-.024.51-.07v.73c-.326.09-.609.135-.849.135z"/><path d="m45.162 19.575c-.709.215-1.316.323-1.821.323-.859 0-1.56-.286-2.103-.857-.542-.571-.813-1.311-.813-2.221 0-.884.239-1.609.717-2.175s1.089-.849 1.834-.849c.705 0 1.25.251 1.635.752s.578 1.214.578 2.138l-.006.327h-3.679c.154 1.386.833 2.079 2.036 2.079.44 0 .981-.118 1.622-.354zm-3.61-3.357h2.573c0-1.084-.404-1.627-1.214-1.627-.812 0-1.265.543-1.359 1.627z"/><path d="m52.095 21.885v-3.217c-.43.82-1.078 1.23-1.944 1.23-.702 0-1.255-.256-1.657-.768-.403-.512-.605-1.212-.605-2.1 0-.971.229-1.751.685-2.342.457-.591 1.057-.886 1.802-.886.691 0 1.264.264 1.719.794v-.666h1.063v7.955zm0-6.563c-.548-.484-1.067-.726-1.558-.726-1.013 0-1.52.776-1.52 2.326 0 1.364.451 2.046 1.354 2.046.587 0 1.162-.32 1.724-.961z"/><path d="m58.164 19.763v-1.095c-.563.82-1.245 1.23-2.047 1.23-.508 0-.913-.161-1.214-.481-.3-.32-.451-.753-.451-1.297v-4.19h1.058v3.846c0 .437.064.748.191.932s.339.277.636.277c.645 0 1.254-.425 1.827-1.273v-3.782h1.058v5.833z"/><path d="m64.861 19.575c-.709.215-1.316.323-1.821.323-.86 0-1.56-.286-2.103-.857-.542-.571-.814-1.311-.814-2.221 0-.884.239-1.609.717-2.175s1.09-.849 1.835-.849c.705 0 1.25.251 1.635.752s.577 1.214.577 2.138l-.005.327h-3.679c.154 1.386.832 2.079 2.036 2.079.44 0 .981-.118 1.622-.354zm-3.61-3.357h2.573c0-1.084-.405-1.627-1.214-1.627-.813 0-1.266.543-1.359 1.627z"/><path d="m68.678 11.282h1.058v8.481h-1.058z"/><path d="m74.108 19.022c-.634.584-1.245.876-1.832.876-.483 0-.884-.152-1.203-.454-.319-.303-.478-.685-.478-1.147 0-.637.268-1.127.803-1.469s1.302-.513 2.301-.513h.253v-.703c0-.677-.348-1.016-1.042-1.016-.559 0-1.162.172-1.81.516v-.875c.712-.29 1.38-.435 2.003-.435.652 0 1.133.146 1.442.44.31.294.465.75.465 1.37v2.642c0 .605.186.908.558.908.047 0 .115-.007.205-.022l.075.586c-.24.114-.505.172-.795.172-.494 0-.809-.292-.945-.876zm-.156-.575v-1.509l-.355-.011c-.58 0-1.049.111-1.407.331s-.537.509-.537.867c0 .254.089.469.269.645.179.175.397.263.655.263.44 0 .899-.195 1.375-.586z"/><path d="m82.882 19.763v-1.095c-.429.82-1.077 1.23-1.944 1.23-.702 0-1.254-.256-1.657-.768s-.604-1.212-.604-2.1c0-.971.228-1.751.685-2.342.456-.591 1.057-.886 1.802-.886.691 0 1.264.264 1.718.794v-3.314h1.064v8.481zm0-4.441c-.547-.484-1.067-.726-1.557-.726-1.013 0-1.52.776-1.52 2.326 0 1.364.451 2.046 1.353 2.046.588 0 1.162-.32 1.724-.961z"/><path d="m89.58 19.575c-.709.215-1.316.323-1.821.323-.86 0-1.561-.286-2.103-.857-.543-.571-.814-1.311-.814-2.221 0-.884.239-1.609.717-2.175s1.09-.849 1.835-.849c.705 0 1.25.251 1.635.752s.577 1.214.577 2.138l-.005.327h-3.679c.154 1.386.832 2.079 2.035 2.079.441 0 .982-.118 1.623-.354zm-3.61-3.357h2.573c0-1.084-.405-1.627-1.214-1.627-.813 0-1.266.543-1.359 1.627z"/><path d="m92.725 11.282h1.058v8.481h-1.058z"/><path d="m98.155 19.022c-.634.584-1.245.876-1.832.876-.483 0-.884-.152-1.203-.454-.319-.303-.478-.685-.478-1.147 0-.637.268-1.127.803-1.469s1.303-.513 2.302-.513h.252v-.703c0-.677-.347-1.016-1.042-1.016-.559 0-1.162.172-1.81.516v-.875c.713-.29 1.38-.435 2.003-.435.652 0 1.133.146 1.443.44.309.294.464.75.464 1.37v2.642c0 .605.186.908.559.908.046 0 .114-.007.204-.022l.075.586c-.24.114-.505.172-.795.172-.494 0-.809-.292-.945-.876zm-.156-.575v-1.509l-.354-.011c-.581 0-1.05.111-1.408.331s-.537.509-.537.867c0 .254.09.469.269.645.179.175.397.263.655.263.44 0 .899-.195 1.375-.586z"/><path d="m102.011 19.898c-.484 0-1.071-.113-1.762-.339v-.972c.691.344 1.292.516 1.804.516.305 0 .557-.083.758-.247.2-.165.301-.371.301-.618 0-.362-.281-.661-.844-.897l-.617-.263c-.913-.38-1.37-.926-1.37-1.638 0-.509.18-.909.54-1.201s.853-.437 1.48-.437c.325 0 .728.044 1.208.134l.22.043v.881c-.591-.176-1.06-.264-1.407-.264-.68 0-1.02.247-1.02.742 0 .318.257.587.773.805l.51.215c.577.244.985.501 1.225.771s.36.608.36 1.012c0 .512-.203.933-.607 1.263-.405.329-.922.494-1.552.494z"/><path d="m110.536 19.022c-.634.584-1.245.876-1.832.876-.483 0-.884-.152-1.203-.454-.319-.303-.478-.685-.478-1.147 0-.637.268-1.127.803-1.469s1.302-.513 2.301-.513h.253v-.703c0-.677-.347-1.016-1.042-1.016-.559 0-1.162.172-1.81.516v-.875c.712-.29 1.38-.435 2.003-.435.652 0 1.133.146 1.442.44.31.294.465.75.465 1.37v2.642c0 .605.186.908.559.908.046 0 .114-.007.204-.022l.075.586c-.24.114-.505.172-.795.172-.494 0-.809-.292-.945-.876zm-.156-.575v-1.509l-.355-.011c-.58 0-1.049.111-1.407.331s-.537.509-.537.867c0 .254.09.469.269.645.179.175.397.263.655.263.44 0 .899-.195 1.375-.586z"/><path d="m112.842 19.763v-5.833h1.058v1.096c.419-.816 1.028-1.224 1.826-1.224.107 0 .22.008.338.026v.989c-.182-.061-.343-.092-.483-.092-.67 0-1.23.398-1.681 1.193v3.845z"/><path d="m118.333 19.898c-.537 0-.956-.154-1.257-.462s-.451-.736-.451-1.284v-3.427h-.73v-.795h.73v-1.058l1.058-.102v1.16h1.525v.795h-1.525v3.234c0 .762.33 1.144.988 1.144.14 0 .31-.024.511-.07v.73c-.326.09-.609.135-.849.135z"/><path d="m124.211 19.575c-.709.215-1.316.323-1.821.323-.859 0-1.56-.286-2.103-.857-.542-.571-.813-1.311-.813-2.221 0-.884.239-1.609.717-2.175s1.089-.849 1.834-.849c.705 0 1.25.251 1.635.752s.578 1.214.578 2.138l-.006.327h-3.679c.154 1.386.833 2.079 2.036 2.079.44 0 .981-.118 1.622-.354zm-3.609-3.357h2.572c0-1.084-.404-1.627-1.214-1.627-.812 0-1.265.543-1.358 1.627z"/><path d="m125.303 19.763v-5.833h1.058v1.096c.419-.816 1.028-1.224 1.826-1.224.108 0 .221.008.339.026v.989c-.183-.061-.344-.092-.484-.092-.669 0-1.23.398-1.681 1.193v3.845z"/><path d="m129.043 19.763v-5.833h1.059v5.833zm0-6.891v-1.058h1.059v1.058z"/><path d="m134.47 19.022c-.634.584-1.244.876-1.831.876-.484 0-.885-.152-1.203-.454-.319-.303-.478-.685-.478-1.147 0-.637.267-1.127.802-1.469.536-.342 1.303-.513 2.302-.513h.252v-.703c0-.677-.347-1.016-1.042-1.016-.558 0-1.162.172-1.81.516v-.875c.713-.29 1.381-.435 2.004-.435.651 0 1.132.146 1.442.44s.465.75.465 1.37v2.642c0 .605.186.908.558.908.047 0 .115-.007.204-.022l.075.586c-.239.114-.504.172-.794.172-.495 0-.81-.292-.946-.876zm-.156-.575v-1.509l-.354-.011c-.58 0-1.049.111-1.407.331s-.537.509-.537.867c0 .254.089.469.268.645.179.175.398.263.655.263.441 0 .899-.195 1.375-.586z"/><path d="m138.323 19.898c-.483 0-1.07-.113-1.761-.339v-.972c.691.344 1.292.516 1.804.516.305 0 .557-.083.758-.247.2-.165.3-.371.3-.618 0-.362-.281-.661-.843-.897l-.618-.263c-.913-.38-1.369-.926-1.369-1.638 0-.509.18-.909.54-1.201.359-.292.853-.437 1.479-.437.326 0 .729.044 1.209.134l.22.043v.881c-.591-.176-1.06-.264-1.407-.264-.681 0-1.021.247-1.021.742 0 .318.258.587.774.805l.51.215c.576.244.985.501 1.225.771.239.27.359.608.359 1.012 0 .512-.202.933-.607 1.263-.404.329-.922.494-1.552.494z"/><path d="m1.796 32.885v-7.955h1.058v1.096c.433-.816 1.083-1.224 1.95-1.224.702 0 1.254.256 1.657.768.402.512.604 1.212.604 2.1 0 .966-.228 1.746-.685 2.339-.456.592-1.057.889-1.802.889-.691 0-1.266-.265-1.724-.795v2.782zm1.058-3.513c.544.487 1.063.731 1.558.731 1.017 0 1.525-.775 1.525-2.326 0-1.368-.451-2.052-1.354-2.052-.59 0-1.167.321-1.729.962z"/><path d="m11.605 30.763v-1.095c-.562.82-1.244 1.23-2.046 1.23-.508 0-.913-.161-1.214-.481s-.451-.753-.451-1.297v-4.19h1.058v3.846c0 .437.064.748.191.932s.339.277.636.277c.645 0 1.254-.425 1.826-1.273v-3.782h1.059v5.833z"/><path d="m18.3 30.575c-.709.215-1.316.323-1.821.323-.859 0-1.56-.286-2.103-.857-.542-.571-.814-1.311-.814-2.221 0-.884.239-1.609.718-2.175.478-.566 1.089-.849 1.834-.849.705 0 1.25.251 1.635.752s.578 1.214.578 2.138l-.006.327h-3.679c.154 1.386.833 2.079 2.036 2.079.44 0 .981-.118 1.622-.354zm-3.61-3.357h2.573c0-1.084-.404-1.627-1.214-1.627-.813 0-1.266.543-1.359 1.627z"/><path d="m20.939 30.898c-.483 0-1.071-.113-1.762-.339v-.972c.691.344 1.293.516 1.805.516.304 0 .557-.083.757-.247.201-.165.301-.371.301-.618 0-.362-.281-.661-.843-.897l-.618-.263c-.913-.38-1.37-.926-1.37-1.638 0-.509.18-.909.54-1.201s.853-.437 1.48-.437c.326 0 .729.044 1.208.134l.221.043v.881c-.591-.176-1.06-.264-1.408-.264-.68 0-1.02.247-1.02.742 0 .318.258.587.773.805l.511.215c.576.244.984.501 1.224.771s.36.608.36 1.012c0 .512-.202.933-.607 1.263-.404.329-.922.494-1.552.494z"/><path d="m25.954 22.282h1.058v8.481h-1.058z"/><path d="m31.381 30.022c-.634.584-1.245.876-1.832.876-.483 0-.884-.152-1.203-.454-.319-.303-.478-.685-.478-1.147 0-.637.268-1.127.803-1.469s1.302-.513 2.302-.513h.252v-.703c0-.677-.347-1.016-1.042-1.016-.559 0-1.162.172-1.81.516v-.875c.712-.29 1.38-.435 2.003-.435.652 0 1.133.146 1.442.44.31.294.465.75.465 1.37v2.642c0 .605.186.908.559.908.046 0 .114-.007.204-.022l.075.586c-.24.114-.505.172-.795.172-.494 0-.809-.292-.945-.876zm-.156-.575v-1.509l-.355-.011c-.58 0-1.049.111-1.407.331s-.537.509-.537.867c0 .254.09.469.269.645.179.175.397.263.655.263.44 0 .899-.195 1.375-.586z"/><path d="m37.953 30.898c-.483 0-1.07-.113-1.761-.339v-.972c.691.344 1.292.516 1.804.516.305 0 .557-.083.758-.247.2-.165.301-.371.301-.618 0-.362-.282-.661-.844-.897l-.617-.263c-.913-.38-1.37-.926-1.37-1.638 0-.509.18-.909.54-1.201s.853-.437 1.48-.437c.325 0 .728.044 1.208.134l.22.043v.881c-.591-.176-1.06-.264-1.407-.264-.68 0-1.021.247-1.021.742 0 .318.258.587.774.805l.51.215c.577.244.985.501 1.225.771s.36.608.36 1.012c0 .512-.203.933-.607 1.263-.405.329-.922.494-1.553.494z"/><path d="m44.261 30.022c-.634.584-1.244.876-1.831.876-.484 0-.885-.152-1.204-.454-.318-.303-.478-.685-.478-1.147 0-.637.268-1.127.803-1.469.536-.342 1.303-.513 2.302-.513h.252v-.703c0-.677-.347-1.016-1.042-1.016-.558 0-1.162.172-1.81.516v-.875c.713-.29 1.381-.435 2.004-.435.651 0 1.132.146 1.442.44s.464.75.464 1.37v2.642c0 .605.187.908.559.908.047 0 .115-.007.204-.022l.075.586c-.24.114-.505.172-.795.172-.494 0-.809-.292-.945-.876zm-.156-.575v-1.509l-.354-.011c-.58 0-1.049.111-1.407.331s-.538.509-.538.867c0 .254.09.469.269.645.179.175.398.263.655.263.441 0 .899-.195 1.375-.586z"/><path d="m46.567 30.763v-5.833h1.058v1.096c.559-.816 1.243-1.224 2.052-1.224.505 0 .908.16 1.209.48.3.321.451.751.451 1.292v4.189h-1.058v-3.845c0-.434-.064-.742-.191-.927-.127-.184-.338-.276-.631-.276-.648 0-1.259.424-1.832 1.273v3.775z"/><path d="m52.655 32.702.123-.918c.612.29 1.216.435 1.81.435 1.193 0 1.789-.632 1.789-1.896v-.918c-.391.816-1.031 1.224-1.923 1.224-.698 0-1.253-.254-1.665-.763-.412-.508-.618-1.194-.618-2.057 0-.888.235-1.611.704-2.17.469-.558 1.076-.837 1.821-.837.651 0 1.212.264 1.681.794v-.666h1.063v4.244c0 .913-.047 1.589-.142 2.027-.095.439-.273.798-.534 1.077-.462.491-1.18.736-2.154.736-.681 0-1.332-.104-1.955-.312zm3.722-3.958v-2.422c-.466-.484-.972-.726-1.52-.726-.487 0-.869.196-1.144.586-.276.39-.414.925-.414 1.606 0 1.278.45 1.917 1.348 1.917.613 0 1.189-.32 1.73-.961z"/><path d="m58.731 30.763v-5.833h1.058v1.096c.419-.816 1.028-1.224 1.827-1.224.107 0 .22.008.338.026v.989c-.183-.061-.344-.092-.483-.092-.67 0-1.23.398-1.682 1.193v3.845z"/><path d="m66.747 30.575c-.709.215-1.316.323-1.821.323-.859 0-1.56-.286-2.103-.857-.542-.571-.813-1.311-.813-2.221 0-.884.239-1.609.717-2.175s1.089-.849 1.834-.849c.705 0 1.25.251 1.635.752s.578 1.214.578 2.138l-.006.327h-3.679c.154 1.386.833 2.079 2.036 2.079.44 0 .981-.118 1.622-.354zm-3.609-3.357h2.572c0-1.084-.404-1.627-1.214-1.627-.812 0-1.265.543-1.358 1.627z"/><path d="m71.637 30.898c-.787 0-1.441-.292-1.96-.876-.519-.583-.779-1.319-.779-2.207 0-.949.257-1.689.771-2.219s1.231-.794 2.151-.794c.455 0 .963.062 1.525.187v.887c-.598-.176-1.085-.263-1.461-.263-.54 0-.974.203-1.302.609-.328.407-.492.948-.492 1.625 0 .655.169 1.185.505 1.59.337.404.777.607 1.322.607.483 0 .981-.124 1.493-.371v.913c-.684.208-1.275.312-1.773.312z"/><path d="m74.233 30.763v-5.833h1.059v5.833zm0-6.891v-1.058h1.059v1.058z"/><path d="m76.652 30.763v-5.833h1.059v1.096c.418-.816 1.027-1.224 1.826-1.224.107 0 .22.008.338.026v.989c-.183-.061-.344-.092-.483-.092-.67 0-1.23.398-1.681 1.193v3.845z"/><path d="m82.67 30.898c-.788 0-1.441-.292-1.96-.876-.52-.583-.779-1.319-.779-2.207 0-.949.257-1.689.771-2.219.513-.53 1.23-.794 2.151-.794.454 0 .963.062 1.525.187v.887c-.598-.176-1.085-.263-1.461-.263-.541 0-.975.203-1.302.609-.328.407-.492.948-.492 1.625 0 .655.168 1.185.505 1.59.337.404.777.607 1.321.607.484 0 .981-.124 1.493-.371v.913c-.683.208-1.274.312-1.772.312z"/><path d="m88.913 30.763v-1.095c-.562.82-1.244 1.23-2.046 1.23-.509 0-.913-.161-1.214-.481s-.451-.753-.451-1.297v-4.19h1.058v3.846c0 .437.063.748.191.932.127.184.339.277.636.277.645 0 1.253-.425 1.826-1.273v-3.782h1.058v5.833z"/><path d="m91.332 22.282h1.058v8.481h-1.058z"/><path d="m96.759 30.022c-.634.584-1.244.876-1.832.876-.483 0-.884-.152-1.203-.454-.318-.303-.478-.685-.478-1.147 0-.637.268-1.127.803-1.469s1.303-.513 2.302-.513h.252v-.703c0-.677-.347-1.016-1.042-1.016-.558 0-1.162.172-1.81.516v-.875c.713-.29 1.38-.435 2.003-.435.652 0 1.133.146 1.443.44.309.294.464.75.464 1.37v2.642c0 .605.186.908.559.908.046 0 .114-.007.204-.022l.075.586c-.24.114-.505.172-.795.172-.494 0-.809-.292-.945-.876zm-.156-.575v-1.509l-.354-.011c-.58 0-1.05.111-1.408.331s-.537.509-.537.867c0 .254.09.469.269.645.179.175.397.263.655.263.441 0 .899-.195 1.375-.586z"/><path d="m101.785 32.885v-7.955h1.058v1.096c.433-.816 1.083-1.224 1.95-1.224.701 0 1.254.256 1.657.768.402.512.604 1.212.604 2.1 0 .966-.228 1.746-.685 2.339-.457.592-1.057.889-1.802.889-.691 0-1.266-.265-1.724-.795v2.782zm1.058-3.513c.544.487 1.063.731 1.557.731 1.017 0 1.526-.775 1.526-2.326 0-1.368-.451-2.052-1.354-2.052-.59 0-1.167.321-1.729.962z"/><path d="m110.23 30.898c-.834 0-1.5-.277-1.998-.83s-.747-1.294-.747-2.221c0-.938.25-1.68.75-2.226.499-.546 1.177-.819 2.033-.819.855 0 1.533.273 2.033.819.499.546.749 1.284.749 2.215 0 .953-.251 1.701-.752 2.245-.501.545-1.191.817-2.068.817zm.016-.795c1.121 0 1.681-.756 1.681-2.267 0-1.493-.553-2.24-1.659-2.24-1.103 0-1.655.751-1.655 2.251 0 1.504.545 2.256 1.633 2.256z"/><path d="m113.943 30.763v-5.833h1.059v1.096c.418-.816 1.027-1.224 1.826-1.224.107 0 .22.008.338.026v.989c-.183-.061-.344-.092-.483-.092-.67 0-1.23.398-1.681 1.193v3.845z"/><path d="m124.07 30.575c-.709.215-1.316.323-1.82.323-.86 0-1.561-.286-2.103-.857-.543-.571-.814-1.311-.814-2.221 0-.884.239-1.609.717-2.175s1.09-.849 1.834-.849c.706 0 1.251.251 1.636.752s.577 1.214.577 2.138l-.005.327h-3.679c.154 1.386.832 2.079 2.035 2.079.441 0 .981-.118 1.622-.354zm-3.609-3.357h2.573c0-1.084-.405-1.627-1.214-1.627-.813 0-1.266.543-1.359 1.627z"/><path d="m125.163 22.282h1.058v8.481h-1.058z"/><path d="m127.582 22.282h1.058v8.481h-1.058z"/><path d="m133.008 30.022c-.633.584-1.244.876-1.831.876-.484 0-.885-.152-1.203-.454-.319-.303-.478-.685-.478-1.147 0-.637.267-1.127.803-1.469.535-.342 1.302-.513 2.301-.513h.253v-.703c0-.677-.348-1.016-1.042-1.016-.559 0-1.162.172-1.81.516v-.875c.712-.29 1.38-.435 2.003-.435.652 0 1.132.146 1.442.44s.465.75.465 1.37v2.642c0 .605.186.908.558.908.047 0 .115-.007.204-.022l.076.586c-.24.114-.505.172-.795.172-.494 0-.81-.292-.946-.876zm-.155-.575v-1.509l-.355-.011c-.58 0-1.049.111-1.407.331s-.537.509-.537.867c0 .254.089.469.268.645.179.175.398.263.656.263.44 0 .898-.195 1.375-.586z"/><path d="m136.861 30.898c-.483 0-1.07-.113-1.761-.339v-.972c.691.344 1.292.516 1.804.516.305 0 .557-.083.758-.247.2-.165.3-.371.3-.618 0-.362-.281-.661-.843-.897l-.618-.263c-.913-.38-1.369-.926-1.369-1.638 0-.509.18-.909.54-1.201s.853-.437 1.479-.437c.326 0 .729.044 1.209.134l.22.043v.881c-.591-.176-1.06-.264-1.407-.264-.68 0-1.021.247-1.021.742 0 .318.258.587.774.805l.51.215c.577.244.985.501 1.225.771s.36.608.36 1.012c0 .512-.203.933-.607 1.263-.405.329-.922.494-1.553.494z"/><path d="m3.344 41.898c-.788 0-1.441-.292-1.96-.876-.519-.583-.779-1.319-.779-2.207 0-.949.257-1.689.771-2.219s1.231-.794 2.151-.794c.455 0 .963.062 1.525.187v.887c-.598-.176-1.085-.263-1.461-.263-.54 0-.975.203-1.302.609-.328.407-.492.948-.492 1.625 0 .655.169 1.185.505 1.59.337.404.777.607 1.322.607.483 0 .981-.124 1.493-.371v.913c-.684.208-1.275.312-1.773.312z"/><path d="m8.17 41.898c-.834 0-1.5-.277-1.998-.83s-.747-1.294-.747-2.221c0-.938.25-1.68.75-2.226.499-.546 1.177-.819 2.033-.819.855 0 1.533.273 2.033.819.499.546.749 1.284.749 2.215 0 .953-.251 1.701-.752 2.245-.501.545-1.191.817-2.068.817zm.016-.795c1.121 0 1.681-.756 1.681-2.267 0-1.493-.553-2.24-1.659-2.24-1.103 0-1.655.751-1.655 2.251 0 1.504.545 2.256 1.633 2.256z"/><path d="m11.83 41.763v-5.833h1.059v1.096c.558-.816 1.242-1.224 2.051-1.224.505 0 .908.16 1.209.48.301.321.451.751.451 1.292v4.189h-1.058v-3.845c0-.434-.064-.742-.191-.927-.127-.184-.337-.276-.631-.276-.648 0-1.259.424-1.831 1.273v3.775z"/><path d="m20.51 41.763v-5.833h1.058v1.096c.516-.816 1.178-1.224 1.987-1.224.781 0 1.313.408 1.596 1.224.501-.82 1.153-1.23 1.955-1.23.515 0 .915.151 1.197.454.283.303.425.726.425 1.27v4.243h-1.064v-4.076c0-.666-.263-.999-.789-.999-.548 0-1.123.388-1.724 1.165v3.91h-1.064v-4.076c0-.67-.268-1.005-.806-1.005-.533 0-1.104.391-1.713 1.171v3.91z"/><path d="m34.241 41.575c-.709.215-1.316.323-1.821.323-.859 0-1.56-.286-2.102-.857-.543-.571-.814-1.311-.814-2.221 0-.884.239-1.609.717-2.175s1.089-.849 1.834-.849c.705 0 1.251.251 1.636.752s.577 1.214.577 2.138l-.005.327h-3.68c.154 1.386.833 2.079 2.036 2.079.44 0 .981-.118 1.622-.354zm-3.609-3.357h2.572c0-1.084-.404-1.627-1.213-1.627-.813 0-1.266.543-1.359 1.627z"/><path d="m35.28 41.763v-5.833h1.058v1.096c.559-.816 1.243-1.224 2.052-1.224.505 0 .908.16 1.209.48.3.321.451.751.451 1.292v4.189h-1.058v-3.845c0-.434-.064-.742-.191-.927-.127-.184-.337-.276-.631-.276-.648 0-1.259.424-1.832 1.273v3.775z"/><path d="m43.576 41.898c-.834 0-1.5-.277-1.998-.83s-.747-1.294-.747-2.221c0-.938.25-1.68.75-2.226.499-.546 1.177-.819 2.033-.819.855 0 1.533.273 2.032.819.5.546.75 1.284.75 2.215 0 .953-.251 1.701-.752 2.245-.502.545-1.191.817-2.068.817zm.016-.795c1.121 0 1.681-.756 1.681-2.267 0-1.493-.553-2.24-1.659-2.24-1.103 0-1.655.751-1.655 2.251 0 1.504.544 2.256 1.633 2.256z"/><path d="m48.783 41.898c-.483 0-1.071-.113-1.762-.339v-.972c.691.344 1.293.516 1.805.516.304 0 .557-.083.757-.247.201-.165.301-.371.301-.618 0-.362-.281-.661-.843-.897l-.618-.263c-.913-.38-1.369-.926-1.369-1.638 0-.509.18-.909.539-1.201.36-.292.854-.437 1.48-.437.326 0 .729.044 1.209.134l.22.043v.881c-.591-.176-1.06-.264-1.407-.264-.681 0-1.021.247-1.021.742 0 .318.258.587.774.805l.51.215c.576.244.985.501 1.224.771.24.27.36.608.36 1.012 0 .512-.202.933-.607 1.263-.404.329-.922.494-1.552.494z"/><path d="m53.922 43.885v-7.955h1.058v1.096c.433-.816 1.083-1.224 1.95-1.224.702 0 1.254.256 1.657.768s.604 1.212.604 2.1c0 .966-.228 1.746-.685 2.339-.456.592-1.057.889-1.802.889-.691 0-1.266-.265-1.724-.795v2.782zm1.058-3.513c.544.487 1.063.731 1.558.731 1.017 0 1.525-.775 1.525-2.326 0-1.368-.451-2.052-1.353-2.052-.591 0-1.168.321-1.73.962z"/><path d="m60.031 41.763v-5.833h1.059v1.096c.419-.816 1.027-1.224 1.826-1.224.107 0 .22.008.338.026v.989c-.183-.061-.344-.092-.483-.092-.67 0-1.23.398-1.681 1.193v3.845z"/><path d="m67.994 41.575c-.709.215-1.316.323-1.821.323-.859 0-1.56-.286-2.103-.857-.542-.571-.813-1.311-.813-2.221 0-.884.239-1.609.717-2.175s1.089-.849 1.834-.849c.705 0 1.251.251 1.635.752.385.501.578 1.214.578 2.138l-.005.327h-3.68c.154 1.386.833 2.079 2.036 2.079.44 0 .981-.118 1.622-.354zm-3.609-3.357h2.572c0-1.084-.404-1.627-1.213-1.627-.813 0-1.266.543-1.359 1.627z"/><path d="m70.58 41.898c-.483 0-1.07-.113-1.762-.339v-.972c.692.344 1.293.516 1.805.516.304 0 .557-.083.757-.247.201-.165.301-.371.301-.618 0-.362-.281-.661-.843-.897l-.618-.263c-.913-.38-1.369-.926-1.369-1.638 0-.509.18-.909.539-1.201.36-.292.854-.437 1.48-.437.326 0 .729.044 1.209.134l.22.043v.881c-.591-.176-1.06-.264-1.407-.264-.681 0-1.021.247-1.021.742 0 .318.258.587.774.805l.51.215c.576.244.985.501 1.224.771.24.27.36.608.36 1.012 0 .512-.202.933-.607 1.263-.404.329-.922.494-1.552.494z"/><path d="m73.827 41.763v-5.833h1.058v5.833zm0-6.891v-1.058h1.058v1.058z"/><path d="m78.476 41.898c-.835 0-1.501-.277-1.999-.83-.497-.553-.746-1.294-.746-2.221 0-.938.25-1.68.749-2.226.5-.546 1.177-.819 2.033-.819s1.534.273 2.033.819c.5.546.749 1.284.749 2.215 0 .953-.25 1.701-.752 2.245-.501.545-1.19.817-2.067.817zm.016-.795c1.12 0 1.681-.756 1.681-2.267 0-1.493-.553-2.24-1.66-2.24-1.103 0-1.654.751-1.654 2.251 0 1.504.544 2.256 1.633 2.256zm-.774-6.231 1.295-1.724h1.224l-1.724 1.724z"/><path d="m82.136 41.763v-5.833h1.058v1.096c.559-.816 1.242-1.224 2.052-1.224.505 0 .907.16 1.208.48.301.321.451.751.451 1.292v4.189h-1.058v-3.845c0-.434-.063-.742-.19-.927-.128-.184-.338-.276-.632-.276-.648 0-1.258.424-1.831 1.273v3.775z"/><path d="m88.165 40.437h1.327v1.327h-1.327z"/></g></svg>