<?xml version="1.0" encoding="UTF-8" standalone="no"?><!DOCTYPE svg PUBLIC "-//W3C//DTD SVG 1.1//EN" "http://www.w3.org/Graphics/SVG/1.1/DTD/svg11.dtd"><svg width="100%" height="100%" viewBox="0 0 141 44" version="1.1" xmlns="http://www.w3.org/2000/svg" xmlns:xlink="http://www.w3.org/1999/xlink" xml:space="preserve" xmlns:serif="http://www.serif.com/" style="fill-rule:evenodd;clip-rule:evenodd;stroke-linejoin:round;stroke-miterlimit:2;"><g id="i7"><g><path d="M2.277,8.962c-0.534,0 -1.216,-0.116 -2.047,-0.349l0,-1.117c0.895,0.415 1.631,0.623 2.208,0.623c0.444,0 0.801,-0.116 1.071,-0.349c0.271,-0.233 0.406,-0.539 0.406,-0.919c0,-0.311 -0.089,-0.576 -0.266,-0.795c-0.177,-0.218 -0.504,-0.462 -0.98,-0.73l-0.548,-0.317c-0.677,-0.387 -1.154,-0.751 -1.431,-1.093c-0.278,-0.342 -0.417,-0.74 -0.417,-1.195c0,-0.612 0.222,-1.116 0.666,-1.512c0.444,-0.396 1.01,-0.594 1.698,-0.594c0.612,0 1.258,0.103 1.938,0.307l0,1.031c-0.837,-0.33 -1.462,-0.494 -1.874,-0.494c-0.39,0 -0.713,0.104 -0.967,0.311c-0.254,0.208 -0.381,0.469 -0.381,0.784c0,0.265 0.093,0.5 0.279,0.704c0.186,0.204 0.526,0.448 1.021,0.731l0.569,0.322c0.687,0.39 1.167,0.759 1.439,1.106c0.273,0.348 0.409,0.765 0.409,1.252c0,0.691 -0.255,1.246 -0.766,1.665c-0.51,0.419 -1.186,0.628 -2.027,0.628Z" style="fill:#231f20;fill-rule:nonzero;"/><path d="M9.504,8.763l0,-1.095c-0.562,0.82 -1.244,1.23 -2.046,1.23c-0.509,0 -0.913,-0.161 -1.214,-0.481c-0.301,-0.32 -0.451,-0.753 -0.451,-1.297l0,-4.19l1.058,0l0,3.846c0,0.437 0.063,0.748 0.19,0.932c0.128,0.184 0.34,0.277 0.637,0.277c0.644,0 1.253,-0.425 1.826,-1.273l0,-3.782l1.058,0l0,5.833l-1.058,0Z" style="fill:#231f20;fill-rule:nonzero;"/><path d="M14.527,10.885l0,-7.955l1.058,0l0,1.096c0.434,-0.816 1.084,-1.224 1.95,-1.224c0.702,0 1.254,0.256 1.657,0.768c0.403,0.512 0.604,1.212 0.604,2.1c0,0.966 -0.228,1.746 -0.685,2.339c-0.456,0.592 -1.057,0.889 -1.802,0.889c-0.691,0 -1.265,-0.265 -1.724,-0.795l0,2.782l-1.058,0Zm1.058,-3.513c0.545,0.487 1.064,0.731 1.558,0.731c1.017,0 1.525,-0.775 1.525,-2.326c0,-1.368 -0.451,-2.052 -1.353,-2.052c-0.591,0 -1.167,0.321 -1.73,0.962l0,2.685Z" style="fill:#231f20;fill-rule:nonzero;"/><path d="M23.64,8.022c-0.634,0.584 -1.244,0.876 -1.832,0.876c-0.483,0 -0.884,-0.152 -1.203,-0.454c-0.318,-0.303 -0.478,-0.685 -0.478,-1.147c0,-0.637 0.268,-1.127 0.803,-1.469c0.536,-0.342 1.303,-0.513 2.302,-0.513l0.252,0l0,-0.703c0,-0.677 -0.347,-1.016 -1.042,-1.016c-0.558,0 -1.162,0.172 -1.81,0.516l0,-0.875c0.713,-0.29 1.38,-0.435 2.004,-0.435c0.651,0 1.132,0.146 1.442,0.44c0.309,0.294 0.464,0.75 0.464,1.37l0,2.642c0,0.605 0.186,0.908 0.559,0.908c0.046,0 0.114,-0.007 0.204,-0.022l0.075,0.586c-0.24,0.114 -0.505,0.172 -0.795,0.172c-0.494,0 -0.809,-0.292 -0.945,-0.876Zm-0.156,-0.575l0,-1.509l-0.354,-0.011c-0.58,0 -1.049,0.111 -1.408,0.331c-0.358,0.22 -0.537,0.509 -0.537,0.867c0,0.254 0.09,0.469 0.269,0.645c0.179,0.175 0.397,0.263 0.655,0.263c0.441,0 0.899,-0.195 1.375,-0.586Z" style="fill:#231f20;fill-rule:nonzero;"/><path d="M25.888,8.763l0,-5.833l1.058,0l0,1.096c0.419,-0.816 1.028,-1.224 1.827,-1.224c0.107,0 0.22,0.008 0.338,0.026l0,0.989c-0.183,-0.061 -0.344,-0.092 -0.483,-0.092c-0.67,0 -1.23,0.398 -1.682,1.193l0,3.845l-1.058,0Z" style="fill:#231f20;fill-rule:nonzero;"/><path d="M33.846,8.575c-0.709,0.215 -1.316,0.323 -1.821,0.323c-0.859,0 -1.56,-0.286 -2.102,-0.857c-0.543,-0.571 -0.814,-1.311 -0.814,-2.221c0,-0.884 0.239,-1.609 0.717,-2.175c0.478,-0.566 1.089,-0.849 1.834,-0.849c0.706,0 1.251,0.251 1.636,0.752c0.385,0.501 0.577,1.214 0.577,2.138l-0.005,0.327l-3.679,0c0.153,1.386 0.832,2.079 2.035,2.079c0.441,0 0.981,-0.118 1.622,-0.354l0,0.837Zm-3.609,-3.357l2.573,0c0,-1.084 -0.405,-1.627 -1.214,-1.627c-0.813,0 -1.266,0.543 -1.359,1.627Z" style="fill:#231f20;fill-rule:nonzero;"/><path d="M38.624,8.763l0,-1.095c-0.429,0.82 -1.077,1.23 -1.944,1.23c-0.702,0 -1.254,-0.256 -1.657,-0.768c-0.403,-0.512 -0.604,-1.212 -0.604,-2.1c0,-0.971 0.228,-1.751 0.685,-2.342c0.456,-0.591 1.057,-0.886 1.802,-0.886c0.691,0 1.264,0.264 1.718,0.794l0,-3.314l1.064,0l0,8.481l-1.064,0Zm0,-4.441c-0.547,-0.484 -1.067,-0.726 -1.557,-0.726c-1.014,0 -1.52,0.776 -1.52,2.326c0,1.364 0.451,2.046 1.353,2.046c0.588,0 1.162,-0.32 1.724,-0.961l0,-2.685Z" style="fill:#231f20;fill-rule:nonzero;"/><path d="M47.923,8.575c-0.709,0.215 -1.316,0.323 -1.821,0.323c-0.859,0 -1.56,-0.286 -2.103,-0.857c-0.542,-0.571 -0.813,-1.311 -0.813,-2.221c0,-0.884 0.239,-1.609 0.717,-2.175c0.478,-0.566 1.089,-0.849 1.834,-0.849c0.705,0 1.251,0.251 1.635,0.752c0.385,0.501 0.578,1.214 0.578,2.138l-0.006,0.327l-3.679,0c0.154,1.386 0.833,2.079 2.036,2.079c0.44,0 0.981,-0.118 1.622,-0.354l0,0.837Zm-3.609,-3.357l2.572,0c0,-1.084 -0.404,-1.627 -1.213,-1.627c-0.813,0 -1.266,0.543 -1.359,1.627Z" style="fill:#231f20;fill-rule:nonzero;"/><path d="M50.504,8.898c-0.483,0 -1.07,-0.113 -1.761,-0.339l0,-0.972c0.691,0.344 1.292,0.516 1.804,0.516c0.305,0 0.557,-0.083 0.758,-0.247c0.2,-0.165 0.3,-0.371 0.3,-0.618c0,-0.362 -0.281,-0.661 -0.843,-0.897l-0.617,-0.263c-0.914,-0.38 -1.37,-0.926 -1.37,-1.638c0,-0.509 0.18,-0.909 0.54,-1.201c0.36,-0.292 0.853,-0.437 1.479,-0.437c0.326,0 0.729,0.044 1.209,0.134l0.22,0.043l0,0.881c-0.591,-0.176 -1.06,-0.264 -1.407,-0.264c-0.68,0 -1.021,0.247 -1.021,0.742c0,0.318 0.258,0.587 0.774,0.805l0.51,0.215c0.577,0.244 0.985,0.501 1.225,0.771c0.24,0.27 0.36,0.608 0.36,1.012c0,0.512 -0.203,0.933 -0.607,1.263c-0.405,0.329 -0.922,0.494 -1.553,0.494Z" style="fill:#231f20;fill-rule:nonzero;"/><path d="M55.861,8.763l0,-5.833l1.058,0l0,1.096c0.516,-0.816 1.178,-1.224 1.988,-1.224c0.78,0 1.312,0.408 1.595,1.224c0.501,-0.82 1.153,-1.23 1.955,-1.23c0.516,0 0.915,0.151 1.198,0.454c0.283,0.303 0.424,0.726 0.424,1.27l0,4.243l-1.063,0l0,-4.076c0,-0.666 -0.264,-0.999 -0.79,-0.999c-0.548,0 -1.123,0.388 -1.724,1.165l0,3.91l-1.064,0l0,-4.076c0,-0.67 -0.268,-1.005 -0.805,-1.005c-0.534,0 -1.105,0.391 -1.714,1.171l0,3.91l-1.058,0Z" style="fill:#231f20;fill-rule:nonzero;"/><path d="M68.32,8.022c-0.634,0.584 -1.244,0.876 -1.831,0.876c-0.484,0 -0.885,-0.152 -1.204,-0.454c-0.318,-0.303 -0.478,-0.685 -0.478,-1.147c0,-0.637 0.268,-1.127 0.803,-1.469c0.536,-0.342 1.303,-0.513 2.302,-0.513l0.252,0l0,-0.703c0,-0.677 -0.347,-1.016 -1.042,-1.016c-0.558,0 -1.162,0.172 -1.81,0.516l0,-0.875c0.713,-0.29 1.381,-0.435 2.004,-0.435c0.651,0 1.132,0.146 1.442,0.44c0.31,0.294 0.464,0.75 0.464,1.37l0,2.642c0,0.605 0.187,0.908 0.559,0.908c0.047,0 0.115,-0.007 0.204,-0.022l0.075,0.586c-0.24,0.114 -0.505,0.172 -0.795,0.172c-0.494,0 -0.809,-0.292 -0.945,-0.876Zm-0.156,-0.575l0,-1.509l-0.354,-0.011c-0.58,0 -1.049,0.111 -1.407,0.331c-0.358,0.22 -0.537,0.509 -0.537,0.867c0,0.254 0.089,0.469 0.268,0.645c0.179,0.175 0.398,0.263 0.655,0.263c0.441,0 0.899,-0.195 1.375,-0.586Zm-1.622,-5.575l1.295,-1.724l1.224,0l-1.724,1.724l-0.795,0Z" style="fill:#231f20;fill-rule:nonzero;"/><path d="M72.115,8.898c-0.483,0 -1.07,-0.113 -1.761,-0.339l0,-0.972c0.691,0.344 1.292,0.516 1.804,0.516c0.305,0 0.557,-0.083 0.758,-0.247c0.2,-0.165 0.3,-0.371 0.3,-0.618c0,-0.362 -0.281,-0.661 -0.843,-0.897l-0.617,-0.263c-0.914,-0.38 -1.37,-0.926 -1.37,-1.638c0,-0.509 0.18,-0.909 0.54,-1.201c0.36,-0.292 0.853,-0.437 1.479,-0.437c0.326,0 0.729,0.044 1.209,0.134l0.22,0.043l0,0.881c-0.591,-0.176 -1.06,-0.264 -1.407,-0.264c-0.68,0 -1.021,0.247 -1.021,0.742c0,0.318 0.258,0.587 0.774,0.805l0.51,0.215c0.577,0.244 0.985,0.501 1.225,0.771c0.24,0.27 0.36,0.608 0.36,1.012c0,0.512 -0.203,0.933 -0.607,1.263c-0.405,0.329 -0.922,0.494 -1.553,0.494Z" style="fill:#231f20;fill-rule:nonzero;"/><path d="M78.287,3.725l0,5.038l-1.063,0l0,-5.038l-0.827,0l0,-0.795l0.827,0l0,-0.698c0,-1.389 0.634,-2.084 1.901,-2.084c0.355,0 0.758,0.059 1.209,0.177l0,0.838c-0.476,-0.146 -0.858,-0.22 -1.144,-0.22c-0.348,0 -0.585,0.083 -0.712,0.25c-0.127,0.166 -0.191,0.475 -0.191,0.926l0,0.811l1.456,0l0,0.795l-1.456,0Z" style="fill:#231f20;fill-rule:nonzero;"/><path d="M80.251,8.763l0,-5.833l1.058,0l0,5.833l-1.058,0Zm0,-6.891l0,-1.058l1.058,0l0,1.058l-1.058,0Z" style="fill:#231f20;fill-rule:nonzero;"/><path d="M82.612,8.763l0,-5.833l1.059,0l0,1.096c0.558,-0.816 1.242,-1.224 2.051,-1.224c0.505,0 0.908,0.16 1.209,0.48c0.301,0.321 0.451,0.751 0.451,1.292l0,4.189l-1.058,0l0,-3.845c0,-0.434 -0.064,-0.742 -0.191,-0.927c-0.127,-0.184 -0.337,-0.276 -0.631,-0.276c-0.648,0 -1.259,0.424 -1.831,1.273l0,3.775l-1.059,0Z" style="fill:#231f20;fill-rule:nonzero;"/><path d="M91.628,8.022c-0.633,0.584 -1.244,0.876 -1.831,0.876c-0.484,0 -0.885,-0.152 -1.203,-0.454c-0.319,-0.303 -0.478,-0.685 -0.478,-1.147c0,-0.637 0.267,-1.127 0.803,-1.469c0.535,-0.342 1.302,-0.513 2.301,-0.513l0.253,0l0,-0.703c0,-0.677 -0.348,-1.016 -1.042,-1.016c-0.559,0 -1.162,0.172 -1.81,0.516l0,-0.875c0.712,-0.29 1.38,-0.435 2.003,-0.435c0.652,0 1.132,0.146 1.442,0.44c0.31,0.294 0.465,0.75 0.465,1.37l0,2.642c0,0.605 0.186,0.908 0.558,0.908c0.047,0 0.115,-0.007 0.204,-0.022l0.076,0.586c-0.24,0.114 -0.505,0.172 -0.795,0.172c-0.494,0 -0.81,-0.292 -0.946,-0.876Zm-0.155,-0.575l0,-1.509l-0.355,-0.011c-0.58,0 -1.049,0.111 -1.407,0.331c-0.358,0.22 -0.537,0.509 -0.537,0.867c0,0.254 0.089,0.469 0.268,0.645c0.179,0.175 0.398,0.263 0.656,0.263c0.44,0 0.898,-0.195 1.375,-0.586Z" style="fill:#231f20;fill-rule:nonzero;"/><path d="M97.726,10.885l0.945,-2.122l-2.256,-5.833l1.144,0l1.671,4.394l1.783,-4.394l0.999,0l-3.185,7.955l-1.101,0Z" style="fill:#231f20;fill-rule:nonzero;"/><path d="M105.099,8.763l0,-5.833l1.058,0l0,1.096c0.515,-0.816 1.178,-1.224 1.987,-1.224c0.781,0 1.312,0.408 1.595,1.224c0.502,-0.82 1.153,-1.23 1.955,-1.23c0.516,0 0.915,0.151 1.198,0.454c0.283,0.303 0.424,0.726 0.424,1.27l0,4.243l-1.063,0l0,-4.076c0,-0.666 -0.263,-0.999 -0.79,-0.999c-0.547,0 -1.122,0.388 -1.724,1.165l0,3.91l-1.063,0l0,-4.076c0,-0.67 -0.269,-1.005 -0.806,-1.005c-0.533,0 -1.104,0.391 -1.713,1.171l0,3.91l-1.058,0Z" style="fill:#231f20;fill-rule:nonzero;"/><path d="M118.886,8.575c-0.709,0.215 -1.316,0.323 -1.821,0.323c-0.86,0 -1.561,-0.286 -2.103,-0.857c-0.542,-0.571 -0.814,-1.311 -0.814,-2.221c0,-0.884 0.239,-1.609 0.717,-2.175c0.478,-0.566 1.09,-0.849 1.835,-0.849c0.705,0 1.25,0.251 1.635,0.752c0.385,0.501 0.577,1.214 0.577,2.138l-0.005,0.327l-3.679,0c0.154,1.386 0.832,2.079 2.036,2.079c0.44,0 0.981,-0.118 1.622,-0.354l0,0.837Zm-3.61,-3.357l2.573,0c0,-1.084 -0.405,-1.627 -1.214,-1.627c-0.813,0 -1.266,0.543 -1.359,1.627Z" style="fill:#231f20;fill-rule:nonzero;"/><path d="M119.981,8.763l0,-5.833l1.058,0l0,1.096c0.558,-0.816 1.242,-1.224 2.051,-1.224c0.505,0 0.908,0.16 1.209,0.48c0.301,0.321 0.451,0.751 0.451,1.292l0,4.189l-1.058,0l0,-3.845c0,-0.434 -0.064,-0.742 -0.191,-0.927c-0.127,-0.184 -0.337,-0.276 -0.631,-0.276c-0.648,0 -1.258,0.424 -1.831,1.273l0,3.775l-1.058,0Z" style="fill:#231f20;fill-rule:nonzero;"/><path d="M128.332,8.898c-0.834,0 -1.5,-0.277 -1.998,-0.83c-0.498,-0.553 -0.747,-1.294 -0.747,-2.221c0,-0.938 0.25,-1.68 0.75,-2.226c0.499,-0.546 1.177,-0.819 2.033,-0.819c0.855,0 1.533,0.273 2.032,0.819c0.5,0.546 0.75,1.284 0.75,2.215c0,0.953 -0.251,1.701 -0.752,2.245c-0.502,0.545 -1.191,0.817 -2.068,0.817Zm0.016,-0.795c1.121,0 1.681,-0.756 1.681,-2.267c0,-1.493 -0.553,-2.24 -1.659,-2.24c-1.103,0 -1.655,0.751 -1.655,2.251c0,1.504 0.545,2.256 1.633,2.256Z" style="fill:#231f20;fill-rule:nonzero;"/><path d="M133.595,8.898c-0.484,0 -1.071,-0.113 -1.762,-0.339l0,-0.972c0.691,0.344 1.293,0.516 1.805,0.516c0.304,0 0.557,-0.083 0.757,-0.247c0.201,-0.165 0.301,-0.371 0.301,-0.618c0,-0.362 -0.281,-0.661 -0.843,-0.897l-0.618,-0.263c-0.913,-0.38 -1.37,-0.926 -1.37,-1.638c0,-0.509 0.18,-0.909 0.54,-1.201c0.36,-0.292 0.853,-0.437 1.48,-0.437c0.326,0 0.729,0.044 1.208,0.134l0.221,0.043l0,0.881c-0.591,-0.176 -1.06,-0.264 -1.408,-0.264c-0.68,0 -1.02,0.247 -1.02,0.742c0,0.318 0.258,0.587 0.773,0.805l0.511,0.215c0.576,0.244 0.984,0.501 1.224,0.771c0.24,0.27 0.36,0.608 0.36,1.012c0,0.512 -0.202,0.933 -0.607,1.263c-0.404,0.329 -0.922,0.494 -1.552,0.494Z" style="fill:#231f20;fill-rule:nonzero;"/><path d="M1.501,19.763l0,-5.833l1.058,0l0,1.096c0.419,-0.816 1.028,-1.224 1.826,-1.224c0.108,0 0.221,0.008 0.339,0.026l0,0.989c-0.183,-0.061 -0.344,-0.092 -0.484,-0.092c-0.669,0 -1.23,0.398 -1.681,1.193l0,3.845l-1.058,0Z" style="fill:#231f20;fill-rule:nonzero;"/><path d="M9.52,19.575c-0.709,0.215 -1.316,0.323 -1.821,0.323c-0.86,0 -1.561,-0.286 -2.103,-0.857c-0.543,-0.571 -0.814,-1.311 -0.814,-2.221c0,-0.884 0.239,-1.609 0.717,-2.175c0.478,-0.566 1.09,-0.849 1.835,-0.849c0.705,0 1.25,0.251 1.635,0.752c0.385,0.501 0.577,1.214 0.577,2.138l-0.005,0.327l-3.679,0c0.154,1.386 0.832,2.079 2.035,2.079c0.441,0 0.982,-0.118 1.623,-0.354l0,0.837Zm-3.61,-3.357l2.573,0c0,-1.084 -0.405,-1.627 -1.214,-1.627c-0.813,0 -1.266,0.543 -1.359,1.627Z" style="fill:#231f20;fill-rule:nonzero;"/><path d="M12.161,19.898c-0.483,0 -1.07,-0.113 -1.761,-0.339l0,-0.972c0.691,0.344 1.292,0.516 1.804,0.516c0.305,0 0.557,-0.083 0.758,-0.247c0.2,-0.165 0.3,-0.371 0.3,-0.618c0,-0.362 -0.281,-0.661 -0.843,-0.897l-0.617,-0.263c-0.914,-0.38 -1.37,-0.926 -1.37,-1.638c0,-0.509 0.18,-0.909 0.54,-1.201c0.36,-0.292 0.853,-0.437 1.479,-0.437c0.326,0 0.729,0.044 1.209,0.134l0.22,0.043l0,0.881c-0.591,-0.176 -1.06,-0.264 -1.407,-0.264c-0.68,0 -1.021,0.247 -1.021,0.742c0,0.318 0.258,0.587 0.774,0.805l0.51,0.215c0.577,0.244 0.985,0.501 1.225,0.771c0.24,0.27 0.36,0.608 0.36,1.012c0,0.512 -0.203,0.933 -0.607,1.263c-0.405,0.329 -0.922,0.494 -1.553,0.494Z" style="fill:#231f20;fill-rule:nonzero;"/><path d="M15.464,19.763l0,-5.833l1.058,0l0,5.833l-1.058,0Zm0,-6.891l0,-1.058l1.058,0l0,1.058l-1.058,0Z" style="fill:#231f20;fill-rule:nonzero;"/><path d="M19.432,19.898c-0.483,0 -1.07,-0.113 -1.761,-0.339l0,-0.972c0.691,0.344 1.292,0.516 1.804,0.516c0.305,0 0.557,-0.083 0.758,-0.247c0.2,-0.165 0.301,-0.371 0.301,-0.618c0,-0.362 -0.282,-0.661 -0.844,-0.897l-0.617,-0.263c-0.913,-0.38 -1.37,-0.926 -1.37,-1.638c0,-0.509 0.18,-0.909 0.54,-1.201c0.36,-0.292 0.853,-0.437 1.48,-0.437c0.325,0 0.728,0.044 1.208,0.134l0.22,0.043l0,0.881c-0.591,-0.176 -1.06,-0.264 -1.407,-0.264c-0.68,0 -1.021,0.247 -1.021,0.742c0,0.318 0.258,0.587 0.774,0.805l0.51,0.215c0.577,0.244 0.985,0.501 1.225,0.771c0.24,0.27 0.36,0.608 0.36,1.012c0,0.512 -0.203,0.933 -0.607,1.263c-0.405,0.329 -0.922,0.494 -1.553,0.494Z" style="fill:#231f20;fill-rule:nonzero;"/><path d="M24.486,19.898c-0.537,0 -0.956,-0.154 -1.257,-0.462c-0.301,-0.308 -0.451,-0.736 -0.451,-1.284l0,-3.427l-0.731,0l0,-0.795l0.731,0l0,-1.058l1.058,-0.102l0,1.16l1.525,0l0,0.795l-1.525,0l0,3.234c0,0.762 0.329,1.144 0.988,1.144c0.14,0 0.31,-0.024 0.511,-0.07l0,0.73c-0.326,0.09 -0.609,0.135 -0.849,0.135Z" style="fill:#231f20;fill-rule:nonzero;"/><path d="M30.367,19.575c-0.709,0.215 -1.316,0.323 -1.821,0.323c-0.86,0 -1.561,-0.286 -2.103,-0.857c-0.542,-0.571 -0.814,-1.311 -0.814,-2.221c0,-0.884 0.239,-1.609 0.717,-2.175c0.478,-0.566 1.09,-0.849 1.835,-0.849c0.705,0 1.25,0.251 1.635,0.752c0.385,0.501 0.577,1.214 0.577,2.138l-0.005,0.327l-3.679,0c0.154,1.386 0.832,2.079 2.036,2.079c0.44,0 0.981,-0.118 1.622,-0.354l0,0.837Zm-3.61,-3.357l2.573,0c0,-1.084 -0.405,-1.627 -1.214,-1.627c-0.813,0 -1.266,0.543 -1.359,1.627Z" style="fill:#231f20;fill-rule:nonzero;"/><path d="M31.462,19.763l0,-5.833l1.058,0l0,1.096c0.558,-0.816 1.242,-1.224 2.051,-1.224c0.505,0 0.908,0.16 1.209,0.48c0.301,0.321 0.451,0.751 0.451,1.292l0,4.189l-1.058,0l0,-3.845c0,-0.434 -0.064,-0.742 -0.191,-0.927c-0.127,-0.184 -0.337,-0.276 -0.631,-0.276c-0.648,0 -1.258,0.424 -1.831,1.273l0,3.775l-1.058,0Z" style="fill:#231f20;fill-rule:nonzero;"/><path d="M39.281,19.898c-0.537,0 -0.956,-0.154 -1.257,-0.462c-0.3,-0.308 -0.451,-0.736 -0.451,-1.284l0,-3.427l-0.73,0l0,-0.795l0.73,0l0,-1.058l1.058,-0.102l0,1.16l1.526,0l0,0.795l-1.526,0l0,3.234c0,0.762 0.33,1.144 0.989,1.144c0.139,0 0.309,-0.024 0.51,-0.07l0,0.73c-0.326,0.09 -0.609,0.135 -0.849,0.135Z" style="fill:#231f20;fill-rule:nonzero;"/><path d="M45.162,19.575c-0.709,0.215 -1.316,0.323 -1.821,0.323c-0.859,0 -1.56,-0.286 -2.103,-0.857c-0.542,-0.571 -0.813,-1.311 -0.813,-2.221c0,-0.884 0.239,-1.609 0.717,-2.175c0.478,-0.566 1.089,-0.849 1.834,-0.849c0.705,0 1.25,0.251 1.635,0.752c0.385,0.501 0.578,1.214 0.578,2.138l-0.006,0.327l-3.679,0c0.154,1.386 0.833,2.079 2.036,2.079c0.44,0 0.981,-0.118 1.622,-0.354l0,0.837Zm-3.61,-3.357l2.573,0c0,-1.084 -0.404,-1.627 -1.214,-1.627c-0.812,0 -1.265,0.543 -1.359,1.627Z" style="fill:#231f20;fill-rule:nonzero;"/><path d="M52.095,21.885l0,-3.217c-0.43,0.82 -1.078,1.23 -1.944,1.23c-0.702,0 -1.255,-0.256 -1.657,-0.768c-0.403,-0.512 -0.605,-1.212 -0.605,-2.1c0,-0.971 0.229,-1.751 0.685,-2.342c0.457,-0.591 1.057,-0.886 1.802,-0.886c0.691,0 1.264,0.264 1.719,0.794l0,-0.666l1.063,0l0,7.955l-1.063,0Zm0,-6.563c-0.548,-0.484 -1.067,-0.726 -1.558,-0.726c-1.013,0 -1.52,0.776 -1.52,2.326c0,1.364 0.451,2.046 1.354,2.046c0.587,0 1.162,-0.32 1.724,-0.961l0,-2.685Z" style="fill:#231f20;fill-rule:nonzero;"/><path d="M58.164,19.763l0,-1.095c-0.563,0.82 -1.245,1.23 -2.047,1.23c-0.508,0 -0.913,-0.161 -1.214,-0.481c-0.3,-0.32 -0.451,-0.753 -0.451,-1.297l0,-4.19l1.058,0l0,3.846c0,0.437 0.064,0.748 0.191,0.932c0.127,0.184 0.339,0.277 0.636,0.277c0.645,0 1.254,-0.425 1.827,-1.273l0,-3.782l1.058,0l0,5.833l-1.058,0Z" style="fill:#231f20;fill-rule:nonzero;"/><path d="M64.861,19.575c-0.709,0.215 -1.316,0.323 -1.821,0.323c-0.86,0 -1.56,-0.286 -2.103,-0.857c-0.542,-0.571 -0.814,-1.311 -0.814,-2.221c0,-0.884 0.239,-1.609 0.717,-2.175c0.478,-0.566 1.09,-0.849 1.835,-0.849c0.705,0 1.25,0.251 1.635,0.752c0.385,0.501 0.577,1.214 0.577,2.138l-0.005,0.327l-3.679,0c0.154,1.386 0.832,2.079 2.036,2.079c0.44,0 0.981,-0.118 1.622,-0.354l0,0.837Zm-3.61,-3.357l2.573,0c0,-1.084 -0.405,-1.627 -1.214,-1.627c-0.813,0 -1.266,0.543 -1.359,1.627Z" style="fill:#231f20;fill-rule:nonzero;"/><rect x="68.678" y="11.282" width="1.058" height="8.481" style="fill:#231f20;fill-rule:nonzero;"/><path d="M74.108,19.022c-0.634,0.584 -1.245,0.876 -1.832,0.876c-0.483,0 -0.884,-0.152 -1.203,-0.454c-0.319,-0.303 -0.478,-0.685 -0.478,-1.147c0,-0.637 0.268,-1.127 0.803,-1.469c0.535,-0.342 1.302,-0.513 2.301,-0.513l0.253,0l0,-0.703c0,-0.677 -0.348,-1.016 -1.042,-1.016c-0.559,0 -1.162,0.172 -1.81,0.516l0,-0.875c0.712,-0.29 1.38,-0.435 2.003,-0.435c0.652,0 1.133,0.146 1.442,0.44c0.31,0.294 0.465,0.75 0.465,1.37l0,2.642c0,0.605 0.186,0.908 0.558,0.908c0.047,0 0.115,-0.007 0.205,-0.022l0.075,0.586c-0.24,0.114 -0.505,0.172 -0.795,0.172c-0.494,0 -0.809,-0.292 -0.945,-0.876Zm-0.156,-0.575l0,-1.509l-0.355,-0.011c-0.58,0 -1.049,0.111 -1.407,0.331c-0.358,0.22 -0.537,0.509 -0.537,0.867c0,0.254 0.089,0.469 0.269,0.645c0.179,0.175 0.397,0.263 0.655,0.263c0.44,0 0.899,-0.195 1.375,-0.586Z" style="fill:#231f20;fill-rule:nonzero;"/><path d="M82.882,19.763l0,-1.095c-0.429,0.82 -1.077,1.23 -1.944,1.23c-0.702,0 -1.254,-0.256 -1.657,-0.768c-0.403,-0.512 -0.604,-1.212 -0.604,-2.1c0,-0.971 0.228,-1.751 0.685,-2.342c0.456,-0.591 1.057,-0.886 1.802,-0.886c0.691,0 1.264,0.264 1.718,0.794l0,-3.314l1.064,0l0,8.481l-1.064,0Zm0,-4.441c-0.547,-0.484 -1.067,-0.726 -1.557,-0.726c-1.013,0 -1.52,0.776 -1.52,2.326c0,1.364 0.451,2.046 1.353,2.046c0.588,0 1.162,-0.32 1.724,-0.961l0,-2.685Z" style="fill:#231f20;fill-rule:nonzero;"/><path d="M89.58,19.575c-0.709,0.215 -1.316,0.323 -1.821,0.323c-0.86,0 -1.561,-0.286 -2.103,-0.857c-0.543,-0.571 -0.814,-1.311 -0.814,-2.221c0,-0.884 0.239,-1.609 0.717,-2.175c0.478,-0.566 1.09,-0.849 1.835,-0.849c0.705,0 1.25,0.251 1.635,0.752c0.385,0.501 0.577,1.214 0.577,2.138l-0.005,0.327l-3.679,0c0.154,1.386 0.832,2.079 2.035,2.079c0.441,0 0.982,-0.118 1.623,-0.354l0,0.837Zm-3.61,-3.357l2.573,0c0,-1.084 -0.405,-1.627 -1.214,-1.627c-0.813,0 -1.266,0.543 -1.359,1.627Z" style="fill:#231f20;fill-rule:nonzero;"/><rect x="92.725" y="11.282" width="1.058" height="8.481" style="fill:#231f20;fill-rule:nonzero;"/><path d="M98.155,19.022c-0.634,0.584 -1.245,0.876 -1.832,0.876c-0.483,0 -0.884,-0.152 -1.203,-0.454c-0.319,-0.303 -0.478,-0.685 -0.478,-1.147c0,-0.637 0.268,-1.127 0.803,-1.469c0.535,-0.342 1.303,-0.513 2.302,-0.513l0.252,0l0,-0.703c0,-0.677 -0.347,-1.016 -1.042,-1.016c-0.559,0 -1.162,0.172 -1.81,0.516l0,-0.875c0.713,-0.29 1.38,-0.435 2.003,-0.435c0.652,0 1.133,0.146 1.443,0.44c0.309,0.294 0.464,0.75 0.464,1.37l0,2.642c0,0.605 0.186,0.908 0.559,0.908c0.046,0 0.114,-0.007 0.204,-0.022l0.075,0.586c-0.24,0.114 -0.505,0.172 -0.795,0.172c-0.494,0 -0.809,-0.292 -0.945,-0.876Zm-0.156,-0.575l0,-1.509l-0.354,-0.011c-0.581,0 -1.05,0.111 -1.408,0.331c-0.358,0.22 -0.537,0.509 -0.537,0.867c0,0.254 0.09,0.469 0.269,0.645c0.179,0.175 0.397,0.263 0.655,0.263c0.44,0 0.899,-0.195 1.375,-0.586Z" style="fill:#231f20;fill-rule:nonzero;"/><path d="M102.011,19.898c-0.484,0 -1.071,-0.113 -1.762,-0.339l0,-0.972c0.691,0.344 1.292,0.516 1.804,0.516c0.305,0 0.557,-0.083 0.758,-0.247c0.2,-0.165 0.301,-0.371 0.301,-0.618c0,-0.362 -0.281,-0.661 -0.844,-0.897l-0.617,-0.263c-0.913,-0.38 -1.37,-0.926 -1.37,-1.638c0,-0.509 0.18,-0.909 0.54,-1.201c0.36,-0.292 0.853,-0.437 1.48,-0.437c0.325,0 0.728,0.044 1.208,0.134l0.22,0.043l0,0.881c-0.591,-0.176 -1.06,-0.264 -1.407,-0.264c-0.68,0 -1.02,0.247 -1.02,0.742c0,0.318 0.257,0.587 0.773,0.805l0.51,0.215c0.577,0.244 0.985,0.501 1.225,0.771c0.24,0.27 0.36,0.608 0.36,1.012c0,0.512 -0.203,0.933 -0.607,1.263c-0.405,0.329 -0.922,0.494 -1.552,0.494Z" style="fill:#231f20;fill-rule:nonzero;"/><path d="M110.536,19.022c-0.634,0.584 -1.245,0.876 -1.832,0.876c-0.483,0 -0.884,-0.152 -1.203,-0.454c-0.319,-0.303 -0.478,-0.685 -0.478,-1.147c0,-0.637 0.268,-1.127 0.803,-1.469c0.535,-0.342 1.302,-0.513 2.301,-0.513l0.253,0l0,-0.703c0,-0.677 -0.347,-1.016 -1.042,-1.016c-0.559,0 -1.162,0.172 -1.81,0.516l0,-0.875c0.712,-0.29 1.38,-0.435 2.003,-0.435c0.652,0 1.133,0.146 1.442,0.44c0.31,0.294 0.465,0.75 0.465,1.37l0,2.642c0,0.605 0.186,0.908 0.559,0.908c0.046,0 0.114,-0.007 0.204,-0.022l0.075,0.586c-0.24,0.114 -0.505,0.172 -0.795,0.172c-0.494,0 -0.809,-0.292 -0.945,-0.876Zm-0.156,-0.575l0,-1.509l-0.355,-0.011c-0.58,0 -1.049,0.111 -1.407,0.331c-0.358,0.22 -0.537,0.509 -0.537,0.867c0,0.254 0.09,0.469 0.269,0.645c0.179,0.175 0.397,0.263 0.655,0.263c0.44,0 0.899,-0.195 1.375,-0.586Z" style="fill:#231f20;fill-rule:nonzero;"/><path d="M112.842,19.763l0,-5.833l1.058,0l0,1.096c0.419,-0.816 1.028,-1.224 1.826,-1.224c0.107,0 0.22,0.008 0.338,0.026l0,0.989c-0.182,-0.061 -0.343,-0.092 -0.483,-0.092c-0.67,0 -1.23,0.398 -1.681,1.193l0,3.845l-1.058,0Z" style="fill:#231f20;fill-rule:nonzero;"/><path d="M118.333,19.898c-0.537,0 -0.956,-0.154 -1.257,-0.462c-0.301,-0.308 -0.451,-0.736 -0.451,-1.284l0,-3.427l-0.73,0l0,-0.795l0.73,0l0,-1.058l1.058,-0.102l0,1.16l1.525,0l0,0.795l-1.525,0l0,3.234c0,0.762 0.33,1.144 0.988,1.144c0.14,0 0.31,-0.024 0.511,-0.07l0,0.73c-0.326,0.09 -0.609,0.135 -0.849,0.135Z" style="fill:#231f20;fill-rule:nonzero;"/><path d="M124.211,19.575c-0.709,0.215 -1.316,0.323 -1.821,0.323c-0.859,0 -1.56,-0.286 -2.103,-0.857c-0.542,-0.571 -0.813,-1.311 -0.813,-2.221c0,-0.884 0.239,-1.609 0.717,-2.175c0.478,-0.566 1.089,-0.849 1.834,-0.849c0.705,0 1.25,0.251 1.635,0.752c0.385,0.501 0.578,1.214 0.578,2.138l-0.006,0.327l-3.679,0c0.154,1.386 0.833,2.079 2.036,2.079c0.44,0 0.981,-0.118 1.622,-0.354l0,0.837Zm-3.609,-3.357l2.572,0c0,-1.084 -0.404,-1.627 -1.214,-1.627c-0.812,0 -1.265,0.543 -1.358,1.627Z" style="fill:#231f20;fill-rule:nonzero;"/><path d="M125.303,19.763l0,-5.833l1.058,0l0,1.096c0.419,-0.816 1.028,-1.224 1.826,-1.224c0.108,0 0.221,0.008 0.339,0.026l0,0.989c-0.183,-0.061 -0.344,-0.092 -0.484,-0.092c-0.669,0 -1.23,0.398 -1.681,1.193l0,3.845l-1.058,0Z" style="fill:#231f20;fill-rule:nonzero;"/><path d="M129.043,19.763l0,-5.833l1.059,0l0,5.833l-1.059,0Zm0,-6.891l0,-1.058l1.059,0l0,1.058l-1.059,0Z" style="fill:#231f20;fill-rule:nonzero;"/><path d="M134.47,19.022c-0.634,0.584 -1.244,0.876 -1.831,0.876c-0.484,0 -0.885,-0.152 -1.203,-0.454c-0.319,-0.303 -0.478,-0.685 -0.478,-1.147c0,-0.637 0.267,-1.127 0.802,-1.469c0.536,-0.342 1.303,-0.513 2.302,-0.513l0.252,0l0,-0.703c0,-0.677 -0.347,-1.016 -1.042,-1.016c-0.558,0 -1.162,0.172 -1.81,0.516l0,-0.875c0.713,-0.29 1.381,-0.435 2.004,-0.435c0.651,0 1.132,0.146 1.442,0.44c0.31,0.294 0.465,0.75 0.465,1.37l0,2.642c0,0.605 0.186,0.908 0.558,0.908c0.047,0 0.115,-0.007 0.204,-0.022l0.075,0.586c-0.239,0.114 -0.504,0.172 -0.794,0.172c-0.495,0 -0.81,-0.292 -0.946,-0.876Zm-0.156,-0.575l0,-1.509l-0.354,-0.011c-0.58,0 -1.049,0.111 -1.407,0.331c-0.358,0.22 -0.537,0.509 -0.537,0.867c0,0.254 0.089,0.469 0.268,0.645c0.179,0.175 0.398,0.263 0.655,0.263c0.441,0 0.899,-0.195 1.375,-0.586Z" style="fill:#231f20;fill-rule:nonzero;"/><path d="M138.323,19.898c-0.483,0 -1.07,-0.113 -1.761,-0.339l0,-0.972c0.691,0.344 1.292,0.516 1.804,0.516c0.305,0 0.557,-0.083 0.758,-0.247c0.2,-0.165 0.3,-0.371 0.3,-0.618c0,-0.362 -0.281,-0.661 -0.843,-0.897l-0.618,-0.263c-0.913,-0.38 -1.369,-0.926 -1.369,-1.638c0,-0.509 0.18,-0.909 0.54,-1.201c0.359,-0.292 0.853,-0.437 1.479,-0.437c0.326,0 0.729,0.044 1.209,0.134l0.22,0.043l0,0.881c-0.591,-0.176 -1.06,-0.264 -1.407,-0.264c-0.681,0 -1.021,0.247 -1.021,0.742c0,0.318 0.258,0.587 0.774,0.805l0.51,0.215c0.576,0.244 0.985,0.501 1.225,0.771c0.239,0.27 0.359,0.608 0.359,1.012c0,0.512 -0.202,0.933 -0.607,1.263c-0.404,0.329 -0.922,0.494 -1.552,0.494Z" style="fill:#231f20;fill-rule:nonzero;"/><path d="M1.796,32.885l0,-7.955l1.058,0l0,1.096c0.433,-0.816 1.083,-1.224 1.95,-1.224c0.702,0 1.254,0.256 1.657,0.768c0.402,0.512 0.604,1.212 0.604,2.1c0,0.966 -0.228,1.746 -0.685,2.339c-0.456,0.592 -1.057,0.889 -1.802,0.889c-0.691,0 -1.266,-0.265 -1.724,-0.795l0,2.782l-1.058,0Zm1.058,-3.513c0.544,0.487 1.063,0.731 1.558,0.731c1.017,0 1.525,-0.775 1.525,-2.326c0,-1.368 -0.451,-2.052 -1.354,-2.052c-0.59,0 -1.167,0.321 -1.729,0.962l0,2.685Z" style="fill:#231f20;fill-rule:nonzero;"/><path d="M11.605,30.763l0,-1.095c-0.562,0.82 -1.244,1.23 -2.046,1.23c-0.508,0 -0.913,-0.161 -1.214,-0.481c-0.301,-0.32 -0.451,-0.753 -0.451,-1.297l0,-4.19l1.058,0l0,3.846c0,0.437 0.064,0.748 0.191,0.932c0.127,0.184 0.339,0.277 0.636,0.277c0.645,0 1.254,-0.425 1.826,-1.273l0,-3.782l1.059,0l0,5.833l-1.059,0Z" style="fill:#231f20;fill-rule:nonzero;"/><path d="M18.3,30.575c-0.709,0.215 -1.316,0.323 -1.821,0.323c-0.859,0 -1.56,-0.286 -2.103,-0.857c-0.542,-0.571 -0.814,-1.311 -0.814,-2.221c0,-0.884 0.239,-1.609 0.718,-2.175c0.478,-0.566 1.089,-0.849 1.834,-0.849c0.705,0 1.25,0.251 1.635,0.752c0.385,0.501 0.578,1.214 0.578,2.138l-0.006,0.327l-3.679,0c0.154,1.386 0.833,2.079 2.036,2.079c0.44,0 0.981,-0.118 1.622,-0.354l0,0.837Zm-3.61,-3.357l2.573,0c0,-1.084 -0.404,-1.627 -1.214,-1.627c-0.813,0 -1.266,0.543 -1.359,1.627Z" style="fill:#231f20;fill-rule:nonzero;"/><path d="M20.939,30.898c-0.483,0 -1.071,-0.113 -1.762,-0.339l0,-0.972c0.691,0.344 1.293,0.516 1.805,0.516c0.304,0 0.557,-0.083 0.757,-0.247c0.201,-0.165 0.301,-0.371 0.301,-0.618c0,-0.362 -0.281,-0.661 -0.843,-0.897l-0.618,-0.263c-0.913,-0.38 -1.37,-0.926 -1.37,-1.638c0,-0.509 0.18,-0.909 0.54,-1.201c0.36,-0.292 0.853,-0.437 1.48,-0.437c0.326,0 0.729,0.044 1.208,0.134l0.221,0.043l0,0.881c-0.591,-0.176 -1.06,-0.264 -1.408,-0.264c-0.68,0 -1.02,0.247 -1.02,0.742c0,0.318 0.258,0.587 0.773,0.805l0.511,0.215c0.576,0.244 0.984,0.501 1.224,0.771c0.24,0.27 0.36,0.608 0.36,1.012c0,0.512 -0.202,0.933 -0.607,1.263c-0.404,0.329 -0.922,0.494 -1.552,0.494Z" style="fill:#231f20;fill-rule:nonzero;"/><rect x="25.954" y="22.282" width="1.058" height="8.481" style="fill:#231f20;fill-rule:nonzero;"/><path d="M31.381,30.022c-0.634,0.584 -1.245,0.876 -1.832,0.876c-0.483,0 -0.884,-0.152 -1.203,-0.454c-0.319,-0.303 -0.478,-0.685 -0.478,-1.147c0,-0.637 0.268,-1.127 0.803,-1.469c0.535,-0.342 1.302,-0.513 2.302,-0.513l0.252,0l0,-0.703c0,-0.677 -0.347,-1.016 -1.042,-1.016c-0.559,0 -1.162,0.172 -1.81,0.516l0,-0.875c0.712,-0.29 1.38,-0.435 2.003,-0.435c0.652,0 1.133,0.146 1.442,0.44c0.31,0.294 0.465,0.75 0.465,1.37l0,2.642c0,0.605 0.186,0.908 0.559,0.908c0.046,0 0.114,-0.007 0.204,-0.022l0.075,0.586c-0.24,0.114 -0.505,0.172 -0.795,0.172c-0.494,0 -0.809,-0.292 -0.945,-0.876Zm-0.156,-0.575l0,-1.509l-0.355,-0.011c-0.58,0 -1.049,0.111 -1.407,0.331c-0.358,0.22 -0.537,0.509 -0.537,0.867c0,0.254 0.09,0.469 0.269,0.645c0.179,0.175 0.397,0.263 0.655,0.263c0.44,0 0.899,-0.195 1.375,-0.586Z" style="fill:#231f20;fill-rule:nonzero;"/><path d="M37.953,30.898c-0.483,0 -1.07,-0.113 -1.761,-0.339l0,-0.972c0.691,0.344 1.292,0.516 1.804,0.516c0.305,0 0.557,-0.083 0.758,-0.247c0.2,-0.165 0.301,-0.371 0.301,-0.618c0,-0.362 -0.282,-0.661 -0.844,-0.897l-0.617,-0.263c-0.913,-0.38 -1.37,-0.926 -1.37,-1.638c0,-0.509 0.18,-0.909 0.54,-1.201c0.36,-0.292 0.853,-0.437 1.48,-0.437c0.325,0 0.728,0.044 1.208,0.134l0.22,0.043l0,0.881c-0.591,-0.176 -1.06,-0.264 -1.407,-0.264c-0.68,0 -1.021,0.247 -1.021,0.742c0,0.318 0.258,0.587 0.774,0.805l0.51,0.215c0.577,0.244 0.985,0.501 1.225,0.771c0.24,0.27 0.36,0.608 0.36,1.012c0,0.512 -0.203,0.933 -0.607,1.263c-0.405,0.329 -0.922,0.494 -1.553,0.494Z" style="fill:#231f20;fill-rule:nonzero;"/><path d="M44.261,30.022c-0.634,0.584 -1.244,0.876 -1.831,0.876c-0.484,0 -0.885,-0.152 -1.204,-0.454c-0.318,-0.303 -0.478,-0.685 -0.478,-1.147c0,-0.637 0.268,-1.127 0.803,-1.469c0.536,-0.342 1.303,-0.513 2.302,-0.513l0.252,0l0,-0.703c0,-0.677 -0.347,-1.016 -1.042,-1.016c-0.558,0 -1.162,0.172 -1.81,0.516l0,-0.875c0.713,-0.29 1.381,-0.435 2.004,-0.435c0.651,0 1.132,0.146 1.442,0.44c0.31,0.294 0.464,0.75 0.464,1.37l0,2.642c0,0.605 0.187,0.908 0.559,0.908c0.047,0 0.115,-0.007 0.204,-0.022l0.075,0.586c-0.24,0.114 -0.505,0.172 -0.795,0.172c-0.494,0 -0.809,-0.292 -0.945,-0.876Zm-0.156,-0.575l0,-1.509l-0.354,-0.011c-0.58,0 -1.049,0.111 -1.407,0.331c-0.358,0.22 -0.538,0.509 -0.538,0.867c0,0.254 0.09,0.469 0.269,0.645c0.179,0.175 0.398,0.263 0.655,0.263c0.441,0 0.899,-0.195 1.375,-0.586Z" style="fill:#231f20;fill-rule:nonzero;"/><path d="M46.567,30.763l0,-5.833l1.058,0l0,1.096c0.559,-0.816 1.243,-1.224 2.052,-1.224c0.505,0 0.908,0.16 1.209,0.48c0.3,0.321 0.451,0.751 0.451,1.292l0,4.189l-1.058,0l0,-3.845c0,-0.434 -0.064,-0.742 -0.191,-0.927c-0.127,-0.184 -0.338,-0.276 -0.631,-0.276c-0.648,0 -1.259,0.424 -1.832,1.273l0,3.775l-1.058,0Z" style="fill:#231f20;fill-rule:nonzero;"/><path d="M52.655,32.702l0.123,-0.918c0.612,0.29 1.216,0.435 1.81,0.435c1.193,0 1.789,-0.632 1.789,-1.896l0,-0.918c-0.391,0.816 -1.031,1.224 -1.923,1.224c-0.698,0 -1.253,-0.254 -1.665,-0.763c-0.412,-0.508 -0.618,-1.194 -0.618,-2.057c0,-0.888 0.235,-1.611 0.704,-2.17c0.469,-0.558 1.076,-0.837 1.821,-0.837c0.651,0 1.212,0.264 1.681,0.794l0,-0.666l1.063,0l0,4.244c0,0.913 -0.047,1.589 -0.142,2.027c-0.095,0.439 -0.273,0.798 -0.534,1.077c-0.462,0.491 -1.18,0.736 -2.154,0.736c-0.681,0 -1.332,-0.104 -1.955,-0.312Zm3.722,-3.958l0,-2.422c-0.466,-0.484 -0.972,-0.726 -1.52,-0.726c-0.487,0 -0.869,0.196 -1.144,0.586c-0.276,0.39 -0.414,0.925 -0.414,1.606c0,1.278 0.45,1.917 1.348,1.917c0.613,0 1.189,-0.32 1.73,-0.961Z" style="fill:#231f20;fill-rule:nonzero;"/><path d="M58.731,30.763l0,-5.833l1.058,0l0,1.096c0.419,-0.816 1.028,-1.224 1.827,-1.224c0.107,0 0.22,0.008 0.338,0.026l0,0.989c-0.183,-0.061 -0.344,-0.092 -0.483,-0.092c-0.67,0 -1.23,0.398 -1.682,1.193l0,3.845l-1.058,0Z" style="fill:#231f20;fill-rule:nonzero;"/><path d="M66.747,30.575c-0.709,0.215 -1.316,0.323 -1.821,0.323c-0.859,0 -1.56,-0.286 -2.103,-0.857c-0.542,-0.571 -0.813,-1.311 -0.813,-2.221c0,-0.884 0.239,-1.609 0.717,-2.175c0.478,-0.566 1.089,-0.849 1.834,-0.849c0.705,0 1.25,0.251 1.635,0.752c0.385,0.501 0.578,1.214 0.578,2.138l-0.006,0.327l-3.679,0c0.154,1.386 0.833,2.079 2.036,2.079c0.44,0 0.981,-0.118 1.622,-0.354l0,0.837Zm-3.609,-3.357l2.572,0c0,-1.084 -0.404,-1.627 -1.214,-1.627c-0.812,0 -1.265,0.543 -1.358,1.627Z" style="fill:#231f20;fill-rule:nonzero;"/><path d="M71.637,30.898c-0.787,0 -1.441,-0.292 -1.96,-0.876c-0.519,-0.583 -0.779,-1.319 -0.779,-2.207c0,-0.949 0.257,-1.689 0.771,-2.219c0.514,-0.53 1.231,-0.794 2.151,-0.794c0.455,0 0.963,0.062 1.525,0.187l0,0.887c-0.598,-0.176 -1.085,-0.263 -1.461,-0.263c-0.54,0 -0.974,0.203 -1.302,0.609c-0.328,0.407 -0.492,0.948 -0.492,1.625c0,0.655 0.169,1.185 0.505,1.59c0.337,0.404 0.777,0.607 1.322,0.607c0.483,0 0.981,-0.124 1.493,-0.371l0,0.913c-0.684,0.208 -1.275,0.312 -1.773,0.312Z" style="fill:#231f20;fill-rule:nonzero;"/><path d="M74.233,30.763l0,-5.833l1.059,0l0,5.833l-1.059,0Zm0,-6.891l0,-1.058l1.059,0l0,1.058l-1.059,0Z" style="fill:#231f20;fill-rule:nonzero;"/><path d="M76.652,30.763l0,-5.833l1.059,0l0,1.096c0.418,-0.816 1.027,-1.224 1.826,-1.224c0.107,0 0.22,0.008 0.338,0.026l0,0.989c-0.183,-0.061 -0.344,-0.092 -0.483,-0.092c-0.67,0 -1.23,0.398 -1.681,1.193l0,3.845l-1.059,0Z" style="fill:#231f20;fill-rule:nonzero;"/><path d="M82.67,30.898c-0.788,0 -1.441,-0.292 -1.96,-0.876c-0.52,-0.583 -0.779,-1.319 -0.779,-2.207c0,-0.949 0.257,-1.689 0.771,-2.219c0.513,-0.53 1.23,-0.794 2.151,-0.794c0.454,0 0.963,0.062 1.525,0.187l0,0.887c-0.598,-0.176 -1.085,-0.263 -1.461,-0.263c-0.541,0 -0.975,0.203 -1.302,0.609c-0.328,0.407 -0.492,0.948 -0.492,1.625c0,0.655 0.168,1.185 0.505,1.59c0.337,0.404 0.777,0.607 1.321,0.607c0.484,0 0.981,-0.124 1.493,-0.371l0,0.913c-0.683,0.208 -1.274,0.312 -1.772,0.312Z" style="fill:#231f20;fill-rule:nonzero;"/><path d="M88.913,30.763l0,-1.095c-0.562,0.82 -1.244,1.23 -2.046,1.23c-0.509,0 -0.913,-0.161 -1.214,-0.481c-0.301,-0.32 -0.451,-0.753 -0.451,-1.297l0,-4.19l1.058,0l0,3.846c0,0.437 0.063,0.748 0.191,0.932c0.127,0.184 0.339,0.277 0.636,0.277c0.645,0 1.253,-0.425 1.826,-1.273l0,-3.782l1.058,0l0,5.833l-1.058,0Z" style="fill:#231f20;fill-rule:nonzero;"/><rect x="91.332" y="22.282" width="1.058" height="8.481" style="fill:#231f20;fill-rule:nonzero;"/><path d="M96.759,30.022c-0.634,0.584 -1.244,0.876 -1.832,0.876c-0.483,0 -0.884,-0.152 -1.203,-0.454c-0.318,-0.303 -0.478,-0.685 -0.478,-1.147c0,-0.637 0.268,-1.127 0.803,-1.469c0.535,-0.342 1.303,-0.513 2.302,-0.513l0.252,0l0,-0.703c0,-0.677 -0.347,-1.016 -1.042,-1.016c-0.558,0 -1.162,0.172 -1.81,0.516l0,-0.875c0.713,-0.29 1.38,-0.435 2.003,-0.435c0.652,0 1.133,0.146 1.443,0.44c0.309,0.294 0.464,0.75 0.464,1.37l0,2.642c0,0.605 0.186,0.908 0.559,0.908c0.046,0 0.114,-0.007 0.204,-0.022l0.075,0.586c-0.24,0.114 -0.505,0.172 -0.795,0.172c-0.494,0 -0.809,-0.292 -0.945,-0.876Zm-0.156,-0.575l0,-1.509l-0.354,-0.011c-0.58,0 -1.05,0.111 -1.408,0.331c-0.358,0.22 -0.537,0.509 -0.537,0.867c0,0.254 0.09,0.469 0.269,0.645c0.179,0.175 0.397,0.263 0.655,0.263c0.441,0 0.899,-0.195 1.375,-0.586Z" style="fill:#231f20;fill-rule:nonzero;"/><path d="M101.785,32.885l0,-7.955l1.058,0l0,1.096c0.433,-0.816 1.083,-1.224 1.95,-1.224c0.701,0 1.254,0.256 1.657,0.768c0.402,0.512 0.604,1.212 0.604,2.1c0,0.966 -0.228,1.746 -0.685,2.339c-0.457,0.592 -1.057,0.889 -1.802,0.889c-0.691,0 -1.266,-0.265 -1.724,-0.795l0,2.782l-1.058,0Zm1.058,-3.513c0.544,0.487 1.063,0.731 1.557,0.731c1.017,0 1.526,-0.775 1.526,-2.326c0,-1.368 -0.451,-2.052 -1.354,-2.052c-0.59,0 -1.167,0.321 -1.729,0.962l0,2.685Z" style="fill:#231f20;fill-rule:nonzero;"/><path d="M110.23,30.898c-0.834,0 -1.5,-0.277 -1.998,-0.83c-0.498,-0.553 -0.747,-1.294 -0.747,-2.221c0,-0.938 0.25,-1.68 0.75,-2.226c0.499,-0.546 1.177,-0.819 2.033,-0.819c0.855,0 1.533,0.273 2.033,0.819c0.499,0.546 0.749,1.284 0.749,2.215c0,0.953 -0.251,1.701 -0.752,2.245c-0.501,0.545 -1.191,0.817 -2.068,0.817Zm0.016,-0.795c1.121,0 1.681,-0.756 1.681,-2.267c0,-1.493 -0.553,-2.24 -1.659,-2.24c-1.103,0 -1.655,0.751 -1.655,2.251c0,1.504 0.545,2.256 1.633,2.256Z" style="fill:#231f20;fill-rule:nonzero;"/><path d="M113.943,30.763l0,-5.833l1.059,0l0,1.096c0.418,-0.816 1.027,-1.224 1.826,-1.224c0.107,0 0.22,0.008 0.338,0.026l0,0.989c-0.183,-0.061 -0.344,-0.092 -0.483,-0.092c-0.67,0 -1.23,0.398 -1.681,1.193l0,3.845l-1.059,0Z" style="fill:#231f20;fill-rule:nonzero;"/><path d="M124.07,30.575c-0.709,0.215 -1.316,0.323 -1.82,0.323c-0.86,0 -1.561,-0.286 -2.103,-0.857c-0.543,-0.571 -0.814,-1.311 -0.814,-2.221c0,-0.884 0.239,-1.609 0.717,-2.175c0.478,-0.566 1.09,-0.849 1.834,-0.849c0.706,0 1.251,0.251 1.636,0.752c0.385,0.501 0.577,1.214 0.577,2.138l-0.005,0.327l-3.679,0c0.154,1.386 0.832,2.079 2.035,2.079c0.441,0 0.981,-0.118 1.622,-0.354l0,0.837Zm-3.609,-3.357l2.573,0c0,-1.084 -0.405,-1.627 -1.214,-1.627c-0.813,0 -1.266,0.543 -1.359,1.627Z" style="fill:#231f20;fill-rule:nonzero;"/><rect x="125.163" y="22.282" width="1.058" height="8.481" style="fill:#231f20;fill-rule:nonzero;"/><rect x="127.582" y="22.282" width="1.058" height="8.481" style="fill:#231f20;fill-rule:nonzero;"/><path d="M133.008,30.022c-0.633,0.584 -1.244,0.876 -1.831,0.876c-0.484,0 -0.885,-0.152 -1.203,-0.454c-0.319,-0.303 -0.478,-0.685 -0.478,-1.147c0,-0.637 0.267,-1.127 0.803,-1.469c0.535,-0.342 1.302,-0.513 2.301,-0.513l0.253,0l0,-0.703c0,-0.677 -0.348,-1.016 -1.042,-1.016c-0.559,0 -1.162,0.172 -1.81,0.516l0,-0.875c0.712,-0.29 1.38,-0.435 2.003,-0.435c0.652,0 1.132,0.146 1.442,0.44c0.31,0.294 0.465,0.75 0.465,1.37l0,2.642c0,0.605 0.186,0.908 0.558,0.908c0.047,0 0.115,-0.007 0.204,-0.022l0.076,0.586c-0.24,0.114 -0.505,0.172 -0.795,0.172c-0.494,0 -0.81,-0.292 -0.946,-0.876Zm-0.155,-0.575l0,-1.509l-0.355,-0.011c-0.58,0 -1.049,0.111 -1.407,0.331c-0.358,0.22 -0.537,0.509 -0.537,0.867c0,0.254 0.089,0.469 0.268,0.645c0.179,0.175 0.398,0.263 0.656,0.263c0.44,0 0.898,-0.195 1.375,-0.586Z" style="fill:#231f20;fill-rule:nonzero;"/><path d="M136.861,30.898c-0.483,0 -1.07,-0.113 -1.761,-0.339l0,-0.972c0.691,0.344 1.292,0.516 1.804,0.516c0.305,0 0.557,-0.083 0.758,-0.247c0.2,-0.165 0.3,-0.371 0.3,-0.618c0,-0.362 -0.281,-0.661 -0.843,-0.897l-0.618,-0.263c-0.913,-0.38 -1.369,-0.926 -1.369,-1.638c0,-0.509 0.18,-0.909 0.54,-1.201c0.36,-0.292 0.853,-0.437 1.479,-0.437c0.326,0 0.729,0.044 1.209,0.134l0.22,0.043l0,0.881c-0.591,-0.176 -1.06,-0.264 -1.407,-0.264c-0.68,0 -1.021,0.247 -1.021,0.742c0,0.318 0.258,0.587 0.774,0.805l0.51,0.215c0.577,0.244 0.985,0.501 1.225,0.771c0.24,0.27 0.36,0.608 0.36,1.012c0,0.512 -0.203,0.933 -0.607,1.263c-0.405,0.329 -0.922,0.494 -1.553,0.494Z" style="fill:#231f20;fill-rule:nonzero;"/><path d="M3.344,41.898c-0.788,0 -1.441,-0.292 -1.96,-0.876c-0.519,-0.583 -0.779,-1.319 -0.779,-2.207c0,-0.949 0.257,-1.689 0.771,-2.219c0.514,-0.53 1.231,-0.794 2.151,-0.794c0.455,0 0.963,0.062 1.525,0.187l0,0.887c-0.598,-0.176 -1.085,-0.263 -1.461,-0.263c-0.54,0 -0.975,0.203 -1.302,0.609c-0.328,0.407 -0.492,0.948 -0.492,1.625c0,0.655 0.169,1.185 0.505,1.59c0.337,0.404 0.777,0.607 1.322,0.607c0.483,0 0.981,-0.124 1.493,-0.371l0,0.913c-0.684,0.208 -1.275,0.312 -1.773,0.312Z" style="fill:#231f20;fill-rule:nonzero;"/><path d="M8.17,41.898c-0.834,0 -1.5,-0.277 -1.998,-0.83c-0.498,-0.553 -0.747,-1.294 -0.747,-2.221c0,-0.938 0.25,-1.68 0.75,-2.226c0.499,-0.546 1.177,-0.819 2.033,-0.819c0.855,0 1.533,0.273 2.033,0.819c0.499,0.546 0.749,1.284 0.749,2.215c0,0.953 -0.251,1.701 -0.752,2.245c-0.501,0.545 -1.191,0.817 -2.068,0.817Zm0.016,-0.795c1.121,0 1.681,-0.756 1.681,-2.267c0,-1.493 -0.553,-2.24 -1.659,-2.24c-1.103,0 -1.655,0.751 -1.655,2.251c0,1.504 0.545,2.256 1.633,2.256Z" style="fill:#231f20;fill-rule:nonzero;"/><path d="M11.83,41.763l0,-5.833l1.059,0l0,1.096c0.558,-0.816 1.242,-1.224 2.051,-1.224c0.505,0 0.908,0.16 1.209,0.48c0.301,0.321 0.451,0.751 0.451,1.292l0,4.189l-1.058,0l0,-3.845c0,-0.434 -0.064,-0.742 -0.191,-0.927c-0.127,-0.184 -0.337,-0.276 -0.631,-0.276c-0.648,0 -1.259,0.424 -1.831,1.273l0,3.775l-1.059,0Z" style="fill:#231f20;fill-rule:nonzero;"/><path d="M20.51,41.763l0,-5.833l1.058,0l0,1.096c0.516,-0.816 1.178,-1.224 1.987,-1.224c0.781,0 1.313,0.408 1.596,1.224c0.501,-0.82 1.153,-1.23 1.955,-1.23c0.515,0 0.915,0.151 1.197,0.454c0.283,0.303 0.425,0.726 0.425,1.27l0,4.243l-1.064,0l0,-4.076c0,-0.666 -0.263,-0.999 -0.789,-0.999c-0.548,0 -1.123,0.388 -1.724,1.165l0,3.91l-1.064,0l0,-4.076c0,-0.67 -0.268,-1.005 -0.806,-1.005c-0.533,0 -1.104,0.391 -1.713,1.171l0,3.91l-1.058,0Z" style="fill:#231f20;fill-rule:nonzero;"/><path d="M34.241,41.575c-0.709,0.215 -1.316,0.323 -1.821,0.323c-0.859,0 -1.56,-0.286 -2.102,-0.857c-0.543,-0.571 -0.814,-1.311 -0.814,-2.221c0,-0.884 0.239,-1.609 0.717,-2.175c0.478,-0.566 1.089,-0.849 1.834,-0.849c0.705,0 1.251,0.251 1.636,0.752c0.385,0.501 0.577,1.214 0.577,2.138l-0.005,0.327l-3.68,0c0.154,1.386 0.833,2.079 2.036,2.079c0.44,0 0.981,-0.118 1.622,-0.354l0,0.837Zm-3.609,-3.357l2.572,0c0,-1.084 -0.404,-1.627 -1.213,-1.627c-0.813,0 -1.266,0.543 -1.359,1.627Z" style="fill:#231f20;fill-rule:nonzero;"/><path d="M35.28,41.763l0,-5.833l1.058,0l0,1.096c0.559,-0.816 1.243,-1.224 2.052,-1.224c0.505,0 0.908,0.16 1.209,0.48c0.3,0.321 0.451,0.751 0.451,1.292l0,4.189l-1.058,0l0,-3.845c0,-0.434 -0.064,-0.742 -0.191,-0.927c-0.127,-0.184 -0.337,-0.276 -0.631,-0.276c-0.648,0 -1.259,0.424 -1.832,1.273l0,3.775l-1.058,0Z" style="fill:#231f20;fill-rule:nonzero;"/><path d="M43.576,41.898c-0.834,0 -1.5,-0.277 -1.998,-0.83c-0.498,-0.553 -0.747,-1.294 -0.747,-2.221c0,-0.938 0.25,-1.68 0.75,-2.226c0.499,-0.546 1.177,-0.819 2.033,-0.819c0.855,0 1.533,0.273 2.032,0.819c0.5,0.546 0.75,1.284 0.75,2.215c0,0.953 -0.251,1.701 -0.752,2.245c-0.502,0.545 -1.191,0.817 -2.068,0.817Zm0.016,-0.795c1.121,0 1.681,-0.756 1.681,-2.267c0,-1.493 -0.553,-2.24 -1.659,-2.24c-1.103,0 -1.655,0.751 -1.655,2.251c0,1.504 0.544,2.256 1.633,2.256Z" style="fill:#231f20;fill-rule:nonzero;"/><path d="M48.783,41.898c-0.483,0 -1.071,-0.113 -1.762,-0.339l0,-0.972c0.691,0.344 1.293,0.516 1.805,0.516c0.304,0 0.557,-0.083 0.757,-0.247c0.201,-0.165 0.301,-0.371 0.301,-0.618c0,-0.362 -0.281,-0.661 -0.843,-0.897l-0.618,-0.263c-0.913,-0.38 -1.369,-0.926 -1.369,-1.638c0,-0.509 0.18,-0.909 0.539,-1.201c0.36,-0.292 0.854,-0.437 1.48,-0.437c0.326,0 0.729,0.044 1.209,0.134l0.22,0.043l0,0.881c-0.591,-0.176 -1.06,-0.264 -1.407,-0.264c-0.681,0 -1.021,0.247 -1.021,0.742c0,0.318 0.258,0.587 0.774,0.805l0.51,0.215c0.576,0.244 0.985,0.501 1.224,0.771c0.24,0.27 0.36,0.608 0.36,1.012c0,0.512 -0.202,0.933 -0.607,1.263c-0.404,0.329 -0.922,0.494 -1.552,0.494Z" style="fill:#231f20;fill-rule:nonzero;"/><path d="M53.922,43.885l0,-7.955l1.058,0l0,1.096c0.433,-0.816 1.083,-1.224 1.95,-1.224c0.702,0 1.254,0.256 1.657,0.768c0.403,0.512 0.604,1.212 0.604,2.1c0,0.966 -0.228,1.746 -0.685,2.339c-0.456,0.592 -1.057,0.889 -1.802,0.889c-0.691,0 -1.266,-0.265 -1.724,-0.795l0,2.782l-1.058,0Zm1.058,-3.513c0.544,0.487 1.063,0.731 1.558,0.731c1.017,0 1.525,-0.775 1.525,-2.326c0,-1.368 -0.451,-2.052 -1.353,-2.052c-0.591,0 -1.168,0.321 -1.73,0.962l0,2.685Z" style="fill:#231f20;fill-rule:nonzero;"/><path d="M60.031,41.763l0,-5.833l1.059,0l0,1.096c0.419,-0.816 1.027,-1.224 1.826,-1.224c0.107,0 0.22,0.008 0.338,0.026l0,0.989c-0.183,-0.061 -0.344,-0.092 -0.483,-0.092c-0.67,0 -1.23,0.398 -1.681,1.193l0,3.845l-1.059,0Z" style="fill:#231f20;fill-rule:nonzero;"/><path d="M67.994,41.575c-0.709,0.215 -1.316,0.323 -1.821,0.323c-0.859,0 -1.56,-0.286 -2.103,-0.857c-0.542,-0.571 -0.813,-1.311 -0.813,-2.221c0,-0.884 0.239,-1.609 0.717,-2.175c0.478,-0.566 1.089,-0.849 1.834,-0.849c0.705,0 1.251,0.251 1.635,0.752c0.385,0.501 0.578,1.214 0.578,2.138l-0.005,0.327l-3.68,0c0.154,1.386 0.833,2.079 2.036,2.079c0.44,0 0.981,-0.118 1.622,-0.354l0,0.837Zm-3.609,-3.357l2.572,0c0,-1.084 -0.404,-1.627 -1.213,-1.627c-0.813,0 -1.266,0.543 -1.359,1.627Z" style="fill:#231f20;fill-rule:nonzero;"/><path d="M70.58,41.898c-0.483,0 -1.07,-0.113 -1.762,-0.339l0,-0.972c0.692,0.344 1.293,0.516 1.805,0.516c0.304,0 0.557,-0.083 0.757,-0.247c0.201,-0.165 0.301,-0.371 0.301,-0.618c0,-0.362 -0.281,-0.661 -0.843,-0.897l-0.618,-0.263c-0.913,-0.38 -1.369,-0.926 -1.369,-1.638c0,-0.509 0.18,-0.909 0.539,-1.201c0.36,-0.292 0.854,-0.437 1.48,-0.437c0.326,0 0.729,0.044 1.209,0.134l0.22,0.043l0,0.881c-0.591,-0.176 -1.06,-0.264 -1.407,-0.264c-0.681,0 -1.021,0.247 -1.021,0.742c0,0.318 0.258,0.587 0.774,0.805l0.51,0.215c0.576,0.244 0.985,0.501 1.224,0.771c0.24,0.27 0.36,0.608 0.36,1.012c0,0.512 -0.202,0.933 -0.607,1.263c-0.404,0.329 -0.922,0.494 -1.552,0.494Z" style="fill:#231f20;fill-rule:nonzero;"/><path d="M73.827,41.763l0,-5.833l1.058,0l0,5.833l-1.058,0Zm0,-6.891l0,-1.058l1.058,0l0,1.058l-1.058,0Z" style="fill:#231f20;fill-rule:nonzero;"/><path d="M78.476,41.898c-0.835,0 -1.501,-0.277 -1.999,-0.83c-0.497,-0.553 -0.746,-1.294 -0.746,-2.221c0,-0.938 0.25,-1.68 0.749,-2.226c0.5,-0.546 1.177,-0.819 2.033,-0.819c0.856,0 1.534,0.273 2.033,0.819c0.5,0.546 0.749,1.284 0.749,2.215c0,0.953 -0.25,1.701 -0.752,2.245c-0.501,0.545 -1.19,0.817 -2.067,0.817Zm0.016,-0.795c1.12,0 1.681,-0.756 1.681,-2.267c0,-1.493 -0.553,-2.24 -1.66,-2.24c-1.103,0 -1.654,0.751 -1.654,2.251c0,1.504 0.544,2.256 1.633,2.256Zm-0.774,-6.231l1.295,-1.724l1.224,0l-1.724,1.724l-0.795,0Z" style="fill:#231f20;fill-rule:nonzero;"/><path d="M82.136,41.763l0,-5.833l1.058,0l0,1.096c0.559,-0.816 1.242,-1.224 2.052,-1.224c0.505,0 0.907,0.16 1.208,0.48c0.301,0.321 0.451,0.751 0.451,1.292l0,4.189l-1.058,0l0,-3.845c0,-0.434 -0.063,-0.742 -0.19,-0.927c-0.128,-0.184 -0.338,-0.276 -0.632,-0.276c-0.648,0 -1.258,0.424 -1.831,1.273l0,3.775l-1.058,0Z" style="fill:#231f20;fill-rule:nonzero;"/><rect x="88.165" y="40.437" width="1.327" height="1.327" style="fill:#231f20;fill-rule:nonzero;"/></g></g></svg>