<svg clip-rule="evenodd" fill-rule="evenodd" stroke-linejoin="round" stroke-miterlimit="2" viewBox="0 0 138 42" xmlns="http://www.w3.org/2000/svg"><g fill="#231f20" fill-rule="nonzero"><path d="m2.173 8.815c-.533 0-1.216-.116-2.046-.349v-1.117c.895.415 1.631.623 2.207.623.444 0 .801-.117 1.072-.349.27-.233.405-.539.405-.919 0-.311-.088-.576-.266-.795-.177-.218-.504-.462-.98-.73l-.548-.317c-.676-.387-1.154-.751-1.431-1.093-.278-.342-.416-.74-.416-1.195 0-.613.222-1.117.666-1.512.444-.396 1.009-.594 1.697-.594.612 0 1.259.102 1.939.306v1.032c-.838-.33-1.463-.494-1.875-.494-.39 0-.712.103-.966.311-.255.208-.382.469-.382.784 0 .265.093.5.28.704.186.204.526.447 1.02.73l.569.323c.688.39 1.168.759 1.44 1.106s.408.765.408 1.252c0 .691-.255 1.246-.765 1.665-.511.419-1.186.628-2.028.628z"/><path d="m8.034 8.751c-.834 0-1.5-.277-1.998-.83-.498-.554-.746-1.294-.746-2.221 0-.938.249-1.681.749-2.227.499-.546 1.177-.819 2.033-.819s1.533.273 2.033.819c.499.546.749 1.285.749 2.216 0 .952-.251 1.701-.752 2.245s-1.19.817-2.068.817zm.016-.795c1.121 0 1.682-.756 1.682-2.267 0-1.493-.554-2.24-1.66-2.24-1.103 0-1.654.75-1.654 2.251 0 1.504.544 2.256 1.632 2.256z"/><path d="m11.688 8.616v-5.833h1.058v1.096c.559-.816 1.243-1.225 2.052-1.225.505 0 .907.161 1.208.481.301.321.451.751.451 1.292v4.189h-1.058v-3.845c0-.434-.063-.743-.19-.927s-.338-.277-.631-.277c-.649 0-1.259.425-1.832 1.273v3.776z"/><path d="m20.354.135h1.058v8.481h-1.058z"/><path d="m24.996 8.751c-.834 0-1.5-.277-1.998-.83-.498-.554-.747-1.294-.747-2.221 0-.938.25-1.681.75-2.227.499-.546 1.177-.819 2.033-.819.855 0 1.533.273 2.033.819.499.546.749 1.285.749 2.216 0 .952-.251 1.701-.752 2.245s-1.191.817-2.068.817zm.016-.795c1.121 0 1.681-.756 1.681-2.267 0-1.493-.553-2.24-1.659-2.24-1.103 0-1.655.75-1.655 2.251 0 1.504.545 2.256 1.633 2.256z"/><path d="m30.196 8.751c-.483 0-1.07-.113-1.761-.339v-.972c.691.344 1.292.516 1.804.516.305 0 .557-.083.758-.247.2-.165.301-.371.301-.618 0-.362-.282-.661-.844-.897l-.617-.263c-.913-.38-1.37-.926-1.37-1.638 0-.509.18-.909.54-1.201s.853-.438 1.48-.438c.325 0 .728.045 1.208.135l.22.043v.88c-.591-.175-1.06-.263-1.407-.263-.68 0-1.021.247-1.021.741 0 .319.258.588.774.806l.51.215c.577.243.985.5 1.225.771.24.27.36.608.36 1.012 0 .512-.203.933-.607 1.262-.405.33-.922.495-1.553.495z"/><path d="m37.305 8.616-2.17-5.833h1.058l1.697 4.539 1.789-4.539h.988l-2.304 5.833z"/><path d="m43.977 7.875c-.634.584-1.244.876-1.831.876-.484 0-.885-.152-1.203-.454-.319-.303-.478-.685-.478-1.147 0-.637.267-1.127.803-1.469.535-.342 1.302-.513 2.301-.513h.252v-.704c0-.676-.347-1.015-1.042-1.015-.558 0-1.161.172-1.81.516v-.876c.713-.29 1.381-.435 2.004-.435.652 0 1.132.147 1.442.441.31.293.465.75.465 1.369v2.643c0 .605.186.908.558.908.047 0 .115-.007.204-.022l.075.586c-.239.114-.504.172-.794.172-.495 0-.81-.292-.946-.876zm-.156-.575v-1.509l-.354-.011c-.58 0-1.049.11-1.407.331-.358.22-.537.509-.537.867 0 .254.089.469.268.645.179.175.398.263.655.263.441 0 .899-.195 1.375-.586z"/><path d="m47.771 8.751c-.484 0-1.071-.113-1.762-.339v-.972c.691.344 1.292.516 1.804.516.305 0 .557-.083.758-.247.2-.165.301-.371.301-.618 0-.362-.282-.661-.844-.897l-.617-.263c-.913-.38-1.37-.926-1.37-1.638 0-.509.18-.909.54-1.201s.853-.438 1.48-.438c.325 0 .728.045 1.208.135l.22.043v.88c-.591-.175-1.06-.263-1.407-.263-.68 0-1.02.247-1.02.741 0 .319.257.588.773.806l.51.215c.577.243.985.5 1.225.771.24.27.36.608.36 1.012 0 .512-.203.933-.607 1.262-.405.33-.922.495-1.552.495z"/><path d="m53.293 8.751c-.834 0-1.5-.277-1.998-.83-.497-.554-.746-1.294-.746-2.221 0-.938.249-1.681.749-2.227.499-.546 1.177-.819 2.033-.819s1.533.273 2.033.819c.499.546.749 1.285.749 2.216 0 .952-.251 1.701-.752 2.245s-1.19.817-2.068.817zm.016-.795c1.121 0 1.682-.756 1.682-2.267 0-1.493-.554-2.24-1.66-2.24-1.103 0-1.654.75-1.654 2.251 0 1.504.544 2.256 1.632 2.256z"/><path d="m58.494 8.751c-.484 0-1.071-.113-1.762-.339v-.972c.691.344 1.293.516 1.805.516.304 0 .557-.083.757-.247.201-.165.301-.371.301-.618 0-.362-.281-.661-.843-.897l-.618-.263c-.913-.38-1.37-.926-1.37-1.638 0-.509.18-.909.54-1.201s.853-.438 1.48-.438c.326 0 .729.045 1.208.135l.221.043v.88c-.591-.175-1.06-.263-1.408-.263-.68 0-1.02.247-1.02.741 0 .319.258.588.773.806l.511.215c.576.243.984.5 1.224.771.24.27.36.608.36 1.012 0 .512-.202.933-.607 1.262-.405.33-.922.495-1.552.495z"/><path d="m65.115 8.751c-.484 0-1.071-.113-1.762-.339v-.972c.691.344 1.292.516 1.805.516.304 0 .556-.083.757-.247.2-.165.301-.371.301-.618 0-.362-.281-.661-.844-.897l-.617-.263c-.913-.38-1.37-.926-1.37-1.638 0-.509.18-.909.54-1.201s.853-.438 1.48-.438c.325 0 .728.045 1.208.135l.22.043v.88c-.59-.175-1.06-.263-1.407-.263-.68 0-1.02.247-1.02.741 0 .319.257.588.773.806l.51.215c.577.243.985.5 1.225.771.24.27.36.608.36 1.012 0 .512-.203.933-.607 1.262-.405.33-.922.495-1.552.495z"/><path d="m71.362 7.875c-.633.584-1.244.876-1.831.876-.483 0-.885-.152-1.203-.454-.319-.303-.478-.685-.478-1.147 0-.637.267-1.127.803-1.469.535-.342 1.302-.513 2.301-.513h.253v-.704c0-.676-.348-1.015-1.042-1.015-.559 0-1.162.172-1.81.516v-.876c.712-.29 1.38-.435 2.003-.435.652 0 1.132.147 1.442.441.31.293.465.75.465 1.369v2.643c0 .605.186.908.558.908.047 0 .115-.007.204-.022l.076.586c-.24.114-.505.172-.795.172-.494 0-.809-.292-.946-.876zm-.155-.575v-1.509l-.355-.011c-.58 0-1.049.11-1.407.331-.358.22-.537.509-.537.867 0 .254.089.469.268.645.179.175.398.263.656.263.44 0 .898-.195 1.375-.586z"/><path d="m73.609 8.616v-5.833h1.058v1.096c.559-.816 1.242-1.225 2.052-1.225.505 0 .907.161 1.208.481.301.321.451.751.451 1.292v4.189h-1.058v-3.845c0-.434-.063-.743-.19-.927-.128-.184-.338-.277-.631-.277-.649 0-1.259.425-1.832 1.273v3.776z"/><path d="m79.637 10.555.123-.918c.612.29 1.216.435 1.81.435 1.193 0 1.789-.632 1.789-1.896v-.919c-.391.817-1.032 1.225-1.923 1.225-.698 0-1.253-.254-1.665-.763-.412-.508-.618-1.194-.618-2.057 0-.888.235-1.611.704-2.17.469-.558 1.076-.838 1.821-.838.651 0 1.212.265 1.681.795v-.666h1.063v4.243c0 .913-.047 1.589-.142 2.028s-.273.798-.535 1.077c-.462.49-1.179.736-2.153.736-.681 0-1.332-.104-1.955-.312zm3.722-3.958v-2.423c-.466-.483-.972-.725-1.52-.725-.487 0-.869.195-1.144.586-.276.39-.414.925-.414 1.606 0 1.278.449 1.917 1.348 1.917.613 0 1.189-.32 1.73-.961z"/><path d="m89.3 8.616v-1.095c-.562.82-1.244 1.23-2.046 1.23-.508 0-.913-.161-1.214-.481-.301-.321-.451-.753-.451-1.297v-4.19h1.058v3.846c0 .437.064.747.191.932.127.184.339.276.636.276.645 0 1.254-.424 1.826-1.273v-3.781h1.059v5.833z"/><path d="m91.66 8.616v-5.833h1.058v5.833zm-.242-6.891 1.294-1.724h1.225l-1.724 1.724z"/><path d="m94.019 8.616v-5.833h1.058v1.096c.559-.816 1.242-1.225 2.052-1.225.505 0 .907.161 1.208.481.301.321.451.751.451 1.292v4.189h-1.058v-3.845c0-.434-.063-.743-.19-.927-.128-.184-.338-.277-.632-.277-.648 0-1.258.425-1.831 1.273v3.776z"/><path d="m104.3 8.428c-.709.215-1.316.323-1.82.323-.86 0-1.561-.286-2.103-.857-.543-.571-.814-1.312-.814-2.221 0-.885.239-1.61.717-2.175.478-.566 1.09-.849 1.834-.849.706 0 1.251.251 1.636.752s.577 1.214.577 2.138l-.005.327h-3.679c.154 1.386.832 2.079 2.035 2.079.441 0 .981-.118 1.622-.355zm-3.609-3.357h2.573c0-1.085-.405-1.627-1.214-1.627-.813 0-1.266.542-1.359 1.627z"/><path d="m107.616 8.751c-.835 0-1.501-.277-1.998-.83-.498-.554-.747-1.294-.747-2.221 0-.938.25-1.681.749-2.227.5-.546 1.177-.819 2.033-.819s1.534.273 2.033.819c.5.546.749 1.285.749 2.216 0 .952-.25 1.701-.751 2.245-.502.544-1.191.817-2.068.817zm.016-.795c1.121 0 1.681-.756 1.681-2.267 0-1.493-.553-2.24-1.66-2.24-1.103 0-1.654.75-1.654 2.251 0 1.504.544 2.256 1.633 2.256z"/><path d="m112.816 8.751c-.483 0-1.07-.113-1.762-.339v-.972c.692.344 1.293.516 1.805.516.304 0 .557-.083.757-.247.201-.165.301-.371.301-.618 0-.362-.281-.661-.843-.897l-.618-.263c-.913-.38-1.369-.926-1.369-1.638 0-.509.18-.909.539-1.201.36-.292.854-.438 1.48-.438.326 0 .729.045 1.209.135l.22.043v.88c-.591-.175-1.06-.263-1.407-.263-.681 0-1.021.247-1.021.741 0 .319.258.588.774.806l.51.215c.576.243.985.5 1.224.771.24.27.36.608.36 1.012 0 .512-.202.933-.607 1.262-.404.33-.922.495-1.552.495z"/><path d="m118.716 8.616v-5.833h1.058v1.096c.516-.816 1.178-1.225 1.988-1.225.78 0 1.312.409 1.595 1.225.501-.82 1.153-1.23 1.955-1.23.516 0 .915.151 1.198.454.283.302.424.726.424 1.27v4.243h-1.063v-4.076c0-.666-.264-.999-.79-.999-.548 0-1.123.388-1.724 1.165v3.91h-1.064v-4.076c0-.67-.268-1.005-.805-1.005-.534 0-1.105.39-1.714 1.171v3.91z"/><path d="m131.173 7.875c-.634.584-1.244.876-1.831.876-.484 0-.885-.152-1.204-.454-.318-.303-.478-.685-.478-1.147 0-.637.268-1.127.803-1.469.536-.342 1.303-.513 2.302-.513h.252v-.704c0-.676-.347-1.015-1.042-1.015-.558 0-1.162.172-1.81.516v-.876c.713-.29 1.381-.435 2.004-.435.651 0 1.132.147 1.442.441.31.293.464.75.464 1.369v2.643c0 .605.187.908.559.908.047 0 .115-.007.204-.022l.075.586c-.24.114-.505.172-.795.172-.494 0-.809-.292-.945-.876zm-.156-.575v-1.509l-.354-.011c-.58 0-1.049.11-1.407.331-.358.22-.538.509-.538.867 0 .254.09.469.269.645.179.175.398.263.655.263.441 0 .899-.195 1.375-.586zm-1.622-5.575 1.295-1.724h1.224l-1.724 1.724z"/><path d="m134.966 8.751c-.483 0-1.07-.113-1.761-.339v-.972c.691.344 1.292.516 1.804.516.305 0 .557-.083.758-.247.2-.165.3-.371.3-.618 0-.362-.281-.661-.843-.897l-.617-.263c-.914-.38-1.37-.926-1.37-1.638 0-.509.18-.909.54-1.201s.853-.438 1.479-.438c.326 0 .729.045 1.209.135l.22.043v.88c-.591-.175-1.06-.263-1.407-.263-.68 0-1.021.247-1.021.741 0 .319.258.588.774.806l.51.215c.577.243.985.5 1.225.771.24.27.36.608.36 1.012 0 .512-.203.933-.607 1.262-.405.33-.922.495-1.553.495z"/><path d="m22.406 21.738v-7.955h1.058v1.096c.433-.816 1.083-1.225 1.95-1.225.701 0 1.254.256 1.656.768.403.512.605 1.212.605 2.1 0 .967-.229 1.747-.685 2.34-.457.592-1.057.889-1.802.889-.691 0-1.266-.265-1.724-.795v2.782zm1.058-3.513c.544.487 1.063.731 1.557.731 1.017 0 1.526-.776 1.526-2.326 0-1.368-.451-2.052-1.354-2.052-.591 0-1.167.321-1.729.962z"/><path d="m32.863 19.428c-.709.215-1.316.323-1.82.323-.86 0-1.561-.286-2.103-.857-.543-.571-.814-1.312-.814-2.221 0-.885.239-1.61.717-2.175.478-.566 1.09-.849 1.834-.849.706 0 1.251.251 1.636.752s.577 1.214.577 2.138l-.005.327h-3.679c.154 1.386.832 2.079 2.035 2.079.441 0 .981-.118 1.622-.355zm-3.609-3.357h2.573c0-1.085-.405-1.627-1.214-1.627-.813 0-1.266.542-1.359 1.627z"/><path d="m37.719 21.738v-3.217c-.43.82-1.078 1.23-1.944 1.23-.702 0-1.255-.256-1.657-.769-.403-.512-.605-1.212-.605-2.1 0-.97.229-1.751.685-2.341.457-.591 1.057-.887 1.802-.887.691 0 1.264.265 1.719.795v-.666h1.063v7.955zm0-6.564c-.548-.483-1.067-.725-1.558-.725-1.013 0-1.52.775-1.52 2.326 0 1.364.451 2.046 1.354 2.046.587 0 1.162-.32 1.724-.961z"/><path d="m43.805 19.616v-1.095c-.563.82-1.245 1.23-2.047 1.23-.508 0-.913-.161-1.214-.481-.301-.321-.451-.753-.451-1.297v-4.19h1.058v3.846c0 .437.064.747.191.932.127.184.339.276.636.276.645 0 1.254-.424 1.827-1.273v-3.781h1.058v5.833z"/><path d="m50.519 19.428c-.709.215-1.316.323-1.821.323-.86 0-1.561-.286-2.103-.857-.543-.571-.814-1.312-.814-2.221 0-.885.239-1.61.717-2.175.478-.566 1.09-.849 1.834-.849.706 0 1.251.251 1.636.752s.577 1.214.577 2.138l-.005.327h-3.679c.154 1.386.832 2.079 2.035 2.079.441 0 .982-.118 1.623-.355zm-3.61-3.357h2.573c0-1.085-.405-1.627-1.214-1.627-.813 0-1.266.542-1.359 1.627z"/><path d="m51.63 19.616v-5.833h1.059v1.096c.558-.816 1.242-1.225 2.051-1.225.505 0 .908.161 1.209.481.301.321.451.751.451 1.292v4.189h-1.058v-3.845c0-.434-.064-.743-.191-.927s-.337-.277-.631-.277c-.648 0-1.259.425-1.831 1.273v3.776zm.731-6.891c.018-.419.11-.733.277-.942.166-.21.405-.315.717-.315.261 0 .503.068.725.204l.322.199c.2.125.354.188.462.188.122 0 .217-.049.287-.148.07-.098.112-.246.126-.443h.661c-.021.419-.115.733-.279.943-.165.209-.403.314-.715.314-.261 0-.503-.07-.725-.209l-.322-.199c-.2-.122-.354-.183-.462-.183-.122 0-.217.05-.287.148s-.112.246-.126.443z"/><path d="m59.999 19.751c-.835 0-1.501-.277-1.998-.83-.498-.554-.747-1.294-.747-2.221 0-.938.25-1.681.749-2.227.5-.546 1.178-.819 2.033-.819.856 0 1.534.273 2.033.819.5.546.75 1.285.75 2.216 0 .952-.251 1.701-.752 2.245-.502.544-1.191.817-2.068.817zm.016-.795c1.121 0 1.681-.756 1.681-2.267 0-1.493-.553-2.24-1.66-2.24-1.103 0-1.654.75-1.654 2.251 0 1.504.544 2.256 1.633 2.256z"/><path d="m65.279 19.751c-.484 0-1.071-.113-1.762-.339v-.972c.691.344 1.293.516 1.805.516.304 0 .556-.083.757-.247.2-.165.301-.371.301-.618 0-.362-.281-.661-.844-.897l-.617-.263c-.913-.38-1.37-.926-1.37-1.638 0-.509.18-.909.54-1.201s.853-.438 1.48-.438c.326 0 .728.045 1.208.135l.22.043v.88c-.59-.175-1.059-.263-1.407-.263-.68 0-1.02.247-1.02.741 0 .319.258.588.773.806l.51.215c.577.243.985.5 1.225.771.24.27.36.608.36 1.012 0 .512-.202.933-.607 1.262-.405.33-.922.495-1.552.495z"/><path d="m71.111 21.738.945-2.122-2.255-5.833h1.144l1.67 4.394 1.783-4.394h.999l-3.185 7.955z"/><path d="m82.262 19.616v-1.095c-.43.82-1.078 1.23-1.945 1.23-.701 0-1.254-.256-1.657-.769-.402-.512-.604-1.212-.604-2.1 0-.97.228-1.751.685-2.341.457-.591 1.057-.887 1.802-.887.691 0 1.264.265 1.719.795v-3.314h1.063v8.481zm0-4.442c-.548-.483-1.067-.725-1.558-.725-1.013 0-1.52.775-1.52 2.326 0 1.364.451 2.046 1.354 2.046.587 0 1.162-.32 1.724-.961z"/><path d="m88.976 19.428c-.709.215-1.316.323-1.821.323-.859 0-1.56-.286-2.103-.857-.542-.571-.814-1.312-.814-2.221 0-.885.239-1.61.717-2.175.478-.566 1.09-.849 1.835-.849.705 0 1.25.251 1.635.752s.578 1.214.578 2.138l-.006.327h-3.679c.154 1.386.833 2.079 2.036 2.079.44 0 .981-.118 1.622-.355zm-3.61-3.357h2.573c0-1.085-.405-1.627-1.214-1.627-.813 0-1.266.542-1.359 1.627z"/><path d="m90.088 11.135h1.058v8.481h-1.058z"/><path d="m92.548 21.555.123-.918c.613.29 1.216.435 1.81.435 1.193 0 1.789-.632 1.789-1.896v-.919c-.39.817-1.031 1.225-1.923 1.225-.698 0-1.253-.254-1.665-.763-.412-.508-.618-1.194-.618-2.057 0-.888.235-1.611.704-2.17.469-.558 1.076-.838 1.821-.838.651 0 1.212.265 1.681.795v-.666h1.063v4.243c0 .913-.047 1.589-.142 2.028s-.273.798-.534 1.077c-.462.49-1.18.736-2.154.736-.681 0-1.332-.104-1.955-.312zm3.722-3.958v-2.423c-.466-.483-.972-.725-1.52-.725-.487 0-.868.195-1.144.586-.276.39-.414.925-.414 1.606 0 1.278.45 1.917 1.348 1.917.613 0 1.189-.32 1.73-.961z"/><path d="m101.652 18.875c-.634.584-1.244.876-1.832.876-.483 0-.884-.152-1.203-.454-.318-.303-.478-.685-.478-1.147 0-.637.268-1.127.803-1.469s1.303-.513 2.302-.513h.252v-.704c0-.676-.347-1.015-1.042-1.015-.558 0-1.162.172-1.81.516v-.876c.713-.29 1.38-.435 2.003-.435.652 0 1.133.147 1.443.441.309.293.464.75.464 1.369v2.643c0 .605.186.908.559.908.046 0 .114-.007.204-.022l.075.586c-.24.114-.505.172-.795.172-.494 0-.809-.292-.945-.876zm-.156-.575v-1.509l-.354-.011c-.58 0-1.05.11-1.408.331-.358.22-.537.509-.537.867 0 .254.09.469.269.645.179.175.397.263.655.263.441 0 .899-.195 1.375-.586z"/><path d="m107.721 19.616v-1.095c-.429.82-1.077 1.23-1.944 1.23-.702 0-1.254-.256-1.657-.769-.403-.512-.604-1.212-.604-2.1 0-.97.228-1.751.685-2.341.456-.591 1.057-.887 1.802-.887.691 0 1.264.265 1.718.795v-3.314h1.064v8.481zm0-4.442c-.547-.483-1.067-.725-1.557-.725-1.014 0-1.52.775-1.52 2.326 0 1.364.451 2.046 1.353 2.046.587 0 1.162-.32 1.724-.961z"/><path d="m112.443 19.751c-.835 0-1.501-.277-1.998-.83-.498-.554-.747-1.294-.747-2.221 0-.938.25-1.681.749-2.227.5-.546 1.177-.819 2.033-.819s1.534.273 2.033.819c.5.546.75 1.285.75 2.216 0 .952-.251 1.701-.752 2.245-.502.544-1.191.817-2.068.817zm.016-.795c1.121 0 1.681-.756 1.681-2.267 0-1.493-.553-2.24-1.66-2.24-1.103 0-1.654.75-1.654 2.251 0 1.504.544 2.256 1.633 2.256z"/><path d="m117.723 19.751c-.484 0-1.071-.113-1.762-.339v-.972c.691.344 1.293.516 1.805.516.304 0 .556-.083.757-.247.2-.165.301-.371.301-.618 0-.362-.281-.661-.844-.897l-.617-.263c-.913-.38-1.37-.926-1.37-1.638 0-.509.18-.909.54-1.201s.853-.438 1.48-.438c.325 0 .728.045 1.208.135l.22.043v.88c-.59-.175-1.06-.263-1.407-.263-.68 0-1.02.247-1.02.741 0 .319.257.588.773.806l.51.215c.577.243.985.5 1.225.771.24.27.36.608.36 1.012 0 .512-.203.933-.607 1.262-.405.33-.922.495-1.552.495z"/><path d="m126.722 19.616v-1.095c-.429.82-1.077 1.23-1.944 1.23-.702 0-1.254-.256-1.657-.769-.403-.512-.604-1.212-.604-2.1 0-.97.228-1.751.685-2.341.456-.591 1.057-.887 1.802-.887.691 0 1.264.265 1.718.795v-3.314h1.064v8.481zm0-4.442c-.547-.483-1.067-.725-1.557-.725-1.014 0-1.52.775-1.52 2.326 0 1.364.451 2.046 1.353 2.046.587 0 1.162-.32 1.724-.961z"/><path d="m133.436 19.428c-.709.215-1.316.323-1.82.323-.86 0-1.561-.286-2.103-.857-.543-.571-.814-1.312-.814-2.221 0-.885.239-1.61.717-2.175.478-.566 1.09-.849 1.834-.849.706 0 1.251.251 1.636.752s.577 1.214.577 2.138l-.005.327h-3.679c.154 1.386.832 2.079 2.035 2.079.441 0 .981-.118 1.622-.355zm-3.609-3.357h2.573c0-1.085-.405-1.627-1.214-1.627-.813 0-1.266.542-1.359 1.627z"/><path d="m134.548 11.135h1.058v8.481h-1.058z"/><path d="m9.558 30.751c-.788 0-1.441-.292-1.96-.876-.52-.584-.779-1.319-.779-2.207 0-.949.257-1.689.771-2.219.513-.53 1.23-.795 2.151-.795.454 0 .963.063 1.525.188v.887c-.598-.176-1.085-.264-1.461-.264-.541 0-.975.204-1.302.61-.328.406-.492.948-.492 1.625 0 .655.168 1.185.505 1.59.337.404.777.607 1.321.607.484 0 .981-.124 1.494-.371v.913c-.684.208-1.275.312-1.773.312z"/><path d="m15.8 30.616v-1.095c-.562.82-1.245 1.23-2.047 1.23-.508 0-.913-.161-1.214-.481-.3-.321-.451-.753-.451-1.297v-4.19h1.058v3.846c0 .437.064.747.191.932.127.184.339.276.637.276.644 0 1.253-.424 1.826-1.273v-3.781h1.058v5.833z"/><path d="m22.493 30.428c-.709.215-1.316.323-1.821.323-.86 0-1.561-.286-2.103-.857-.543-.571-.814-1.312-.814-2.221 0-.885.239-1.61.717-2.175.478-.566 1.09-.849 1.835-.849.705 0 1.25.251 1.635.752s.577 1.214.577 2.138l-.005.327h-3.679c.154 1.386.832 2.079 2.035 2.079.441 0 .982-.118 1.623-.355zm-3.61-3.357h2.573c0-1.085-.405-1.627-1.214-1.627-.813 0-1.266.542-1.359 1.627z"/><path d="m23.583 30.616v-5.833h1.058v1.096c.419-.816 1.028-1.225 1.827-1.225.107 0 .22.009.338.027v.988c-.183-.06-.344-.091-.483-.091-.67 0-1.23.398-1.682 1.193v3.845z"/><path d="m27.322 32.738v-7.955h1.058v1.096c.433-.816 1.083-1.225 1.95-1.225.702 0 1.254.256 1.657.768s.604 1.212.604 2.1c0 .967-.228 1.747-.685 2.34-.456.592-1.057.889-1.802.889-.691 0-1.265-.265-1.724-.795v2.782zm1.058-3.513c.544.487 1.064.731 1.558.731 1.017 0 1.525-.776 1.525-2.326 0-1.368-.451-2.052-1.353-2.052-.591 0-1.168.321-1.73.962z"/><path d="m35.766 30.751c-.834 0-1.5-.277-1.998-.83-.498-.554-.747-1.294-.747-2.221 0-.938.25-1.681.75-2.227.499-.546 1.177-.819 2.032-.819.856 0 1.534.273 2.033.819.5.546.75 1.285.75 2.216 0 .952-.251 1.701-.752 2.245-.502.544-1.191.817-2.068.817zm.016-.795c1.121 0 1.681-.756 1.681-2.267 0-1.493-.553-2.24-1.66-2.24-1.102 0-1.654.75-1.654 2.251 0 1.504.544 2.256 1.633 2.256z"/><path d="m42.196 30.616v-8.481h1.058v3.744c.559-.816 1.243-1.225 2.052-1.225.505 0 .908.161 1.208.481.301.321.452.751.452 1.292v4.189h-1.059v-3.845c0-.434-.063-.743-.19-.927s-.338-.277-.631-.277c-.648 0-1.259.425-1.832 1.273v3.776z"/><path d="m51.907 30.616v-1.095c-.562.82-1.244 1.23-2.046 1.23-.508 0-.913-.161-1.214-.481-.301-.321-.451-.753-.451-1.297v-4.19h1.058v3.846c0 .437.064.747.191.932.127.184.339.276.636.276.645 0 1.253-.424 1.826-1.273v-3.781h1.058v5.833z"/><path d="m54.325 30.616v-5.833h1.058v1.096c.516-.816 1.178-1.225 1.987-1.225.781 0 1.313.409 1.595 1.225.502-.82 1.153-1.23 1.956-1.23.515 0 .914.151 1.197.454.283.302.425.726.425 1.27v4.243h-1.064v-4.076c0-.666-.263-.999-.789-.999-.548 0-1.123.388-1.725 1.165v3.91h-1.063v-4.076c0-.67-.269-1.005-.806-1.005-.533 0-1.104.39-1.713 1.171v3.91z"/><path d="m66.84 29.875c-.634.584-1.244.876-1.832.876-.483 0-.884-.152-1.203-.454-.318-.303-.478-.685-.478-1.147 0-.637.268-1.127.803-1.469.536-.342 1.303-.513 2.302-.513h.252v-.704c0-.676-.347-1.015-1.042-1.015-.558 0-1.162.172-1.81.516v-.876c.713-.29 1.381-.435 2.004-.435.651 0 1.132.147 1.442.441.309.293.464.75.464 1.369v2.643c0 .605.186.908.559.908.046 0 .114-.007.204-.022l.075.586c-.24.114-.505.172-.795.172-.494 0-.809-.292-.945-.876zm-.156-.575v-1.509l-.354-.011c-.58 0-1.049.11-1.408.331-.358.22-.537.509-.537.867 0 .254.09.469.269.645.179.175.397.263.655.263.441 0 .899-.195 1.375-.586z"/><path d="m69.145 30.616v-5.833h1.058v1.096c.558-.816 1.242-1.225 2.051-1.225.505 0 .908.161 1.209.481.301.321.451.751.451 1.292v4.189h-1.058v-3.845c0-.434-.064-.743-.191-.927s-.337-.277-.631-.277c-.648 0-1.258.425-1.831 1.273v3.776z"/><path d="m77.492 30.751c-.835 0-1.501-.277-1.998-.83-.498-.554-.747-1.294-.747-2.221 0-.938.25-1.681.749-2.227.5-.546 1.178-.819 2.033-.819.856 0 1.534.273 2.033.819.5.546.75 1.285.75 2.216 0 .952-.251 1.701-.752 2.245-.502.544-1.191.817-2.068.817zm.016-.795c1.121 0 1.681-.756 1.681-2.267 0-1.493-.553-2.24-1.66-2.24-1.103 0-1.654.75-1.654 2.251 0 1.504.544 2.256 1.633 2.256z"/><path d="m81.22 29.29h1.327v1.327h-1.327z"/><path d="m85.152 30.616v-7.949h2.164c.96 0 1.649.162 2.068.486s.628.857.628 1.598c0 .845-.286 1.508-.859 1.987-.573.48-1.368.72-2.385.72h-.499v3.158zm1.117-4.012h.456c.67 0 1.187-.154 1.553-.462.365-.308.547-.743.547-1.305 0-.476-.143-.816-.429-1.021-.287-.204-.765-.306-1.434-.306h-.693z"/><path d="m94.777 30.428c-.709.215-1.316.323-1.821.323-.859 0-1.56-.286-2.103-.857-.542-.571-.813-1.312-.813-2.221 0-.885.239-1.61.717-2.175.478-.566 1.089-.849 1.834-.849.705 0 1.251.251 1.635.752.385.501.578 1.214.578 2.138l-.005.327h-3.68c.154 1.386.833 2.079 2.036 2.079.44 0 .981-.118 1.622-.355zm-3.609-3.357h2.572c0-1.085-.404-1.627-1.213-1.627-.813 0-1.266.542-1.359 1.627z"/><path d="m95.868 30.616v-5.833h1.058v1.096c.419-.816 1.028-1.225 1.826-1.225.108 0 .22.009.338.027v.988c-.182-.06-.343-.091-.483-.091-.67 0-1.23.398-1.681 1.193v3.845z"/><path d="m99.607 30.616v-5.833h1.058v1.096c.515-.816 1.178-1.225 1.987-1.225.781 0 1.312.409 1.595 1.225.501-.82 1.153-1.23 1.955-1.23.516 0 .915.151 1.198.454.283.302.424.726.424 1.27v4.243h-1.063v-4.076c0-.666-.263-.999-.79-.999-.548 0-1.122.388-1.724 1.165v3.91h-1.063v-4.076c0-.67-.269-1.005-.806-1.005-.533 0-1.105.39-1.713 1.171v3.91z"/><path d="m109.114 30.616v-5.833h1.058v5.833zm0-6.891v-1.058h1.058v1.058z"/><path d="m113.282 30.751c-.537 0-.956-.154-1.257-.462-.3-.308-.451-.736-.451-1.284v-3.427h-.73v-.795h.73v-1.058l1.058-.102v1.16h1.526v.795h-1.526v3.234c0 .762.33 1.144.989 1.144.139 0 .309-.024.51-.07v.73c-.326.09-.609.135-.849.135z"/><path d="m119.159 30.428c-.709.215-1.316.323-1.821.323-.859 0-1.56-.286-2.103-.857-.542-.571-.814-1.312-.814-2.221 0-.885.239-1.61.717-2.175.478-.566 1.09-.849 1.835-.849.705 0 1.25.251 1.635.752s.578 1.214.578 2.138l-.006.327h-3.679c.154 1.386.833 2.079 2.036 2.079.44 0 .981-.118 1.622-.355zm-3.61-3.357h2.573c0-1.085-.405-1.627-1.214-1.627-.813 0-1.266.542-1.359 1.627z"/><path d="m120.249 30.616v-5.833h1.059v1.096c.558-.816 1.242-1.225 2.051-1.225.505 0 .908.161 1.209.481.301.321.451.751.451 1.292v4.189h-1.058v-3.845c0-.434-.064-.743-.191-.927s-.337-.277-.631-.277c-.648 0-1.258.425-1.831 1.273v3.776z"/><path d="m133.308 30.428c-.709.215-1.316.323-1.821.323-.86 0-1.561-.286-2.103-.857-.543-.571-.814-1.312-.814-2.221 0-.885.239-1.61.717-2.175.478-.566 1.09-.849 1.834-.849.706 0 1.251.251 1.636.752s.577 1.214.577 2.138l-.005.327h-3.679c.154 1.386.832 2.079 2.035 2.079.441 0 .982-.118 1.623-.355zm-3.61-3.357h2.573c0-1.085-.405-1.627-1.214-1.627-.813 0-1.266.542-1.359 1.627z"/><path d="m134.398 22.135h1.058v8.481h-1.058z"/><path d="m14.367 41.616v-5.833h1.058v1.096c.515-.816 1.178-1.225 1.987-1.225.781 0 1.312.409 1.595 1.225.502-.82 1.153-1.23 1.955-1.23.516 0 .915.151 1.198.454.283.302.424.726.424 1.27v4.243h-1.063v-4.076c0-.666-.263-.999-.79-.999-.547 0-1.122.388-1.724 1.165v3.91h-1.063v-4.076c0-.67-.269-1.005-.806-1.005-.533 0-1.105.39-1.713 1.171v3.91z"/><path d="m26.118 41.751c-.834 0-1.5-.277-1.998-.83-.498-.554-.746-1.294-.746-2.221 0-.938.249-1.681.749-2.227.499-.546 1.177-.819 2.033-.819s1.533.273 2.033.819c.499.546.749 1.285.749 2.216 0 .952-.251 1.701-.752 2.245s-1.191.817-2.068.817zm.016-.795c1.121 0 1.681-.756 1.681-2.267 0-1.493-.553-2.24-1.659-2.24-1.103 0-1.655.75-1.655 2.251 0 1.504.545 2.256 1.633 2.256z"/><path d="m31 41.616-2.17-5.833h1.058l1.698 4.539 1.788-4.539h.988l-2.304 5.833z"/><path d="m34.684 41.616v-5.833h1.058v5.833zm0-6.891v-1.058h1.058v1.058z"/><path d="m37.063 41.616v-5.833h1.058v1.096c.516-.816 1.178-1.225 1.988-1.225.78 0 1.312.409 1.595 1.225.501-.82 1.153-1.23 1.955-1.23.515 0 .915.151 1.198.454.282.302.424.726.424 1.27v4.243h-1.064v-4.076c0-.666-.263-.999-.789-.999-.548 0-1.123.388-1.724 1.165v3.91h-1.064v-4.076c0-.67-.268-1.005-.805-1.005-.534 0-1.105.39-1.714 1.171v3.91z"/><path d="m46.532 41.616v-5.833h1.058v5.833zm0-6.891v-1.058h1.058v1.058z"/><path d="m53.186 41.428c-.709.215-1.316.323-1.821.323-.859 0-1.56-.286-2.102-.857-.543-.571-.814-1.312-.814-2.221 0-.885.239-1.61.717-2.175.478-.566 1.089-.849 1.834-.849.706 0 1.251.251 1.636.752s.577 1.214.577 2.138l-.005.327h-3.679c.154 1.386.832 2.079 2.035 2.079.441 0 .981-.118 1.622-.355zm-3.609-3.357h2.573c0-1.085-.405-1.627-1.214-1.627-.813 0-1.266.542-1.359 1.627z"/><path d="m54.239 41.616v-5.833h1.058v1.096c.558-.816 1.242-1.225 2.051-1.225.505 0 .908.161 1.209.481.301.321.451.751.451 1.292v4.189h-1.058v-3.845c0-.434-.064-.743-.191-.927s-.337-.277-.631-.277c-.648 0-1.258.425-1.831 1.273v3.776z"/><path d="m62.015 41.751c-.537 0-.956-.154-1.256-.462-.301-.308-.452-.736-.452-1.284v-3.427h-.73v-.795h.73v-1.058l1.059-.102v1.16h1.525v.795h-1.525v3.234c0 .762.329 1.144.988 1.144.14 0 .31-.024.51-.07v.73c-.326.09-.609.135-.849.135z"/><path d="m65.861 41.751c-.835 0-1.501-.277-1.998-.83-.498-.554-.747-1.294-.747-2.221 0-.938.25-1.681.749-2.227.5-.546 1.178-.819 2.033-.819.856 0 1.534.273 2.033.819.5.546.75 1.285.75 2.216 0 .952-.251 1.701-.752 2.245-.502.544-1.191.817-2.068.817zm.016-.795c1.121 0 1.681-.756 1.681-2.267 0-1.493-.553-2.24-1.66-2.24-1.103 0-1.654.75-1.654 2.251 0 1.504.544 2.256 1.633 2.256z"/><path d="m75.958 41.616v-1.095c-.43.82-1.078 1.23-1.945 1.23-.702 0-1.254-.256-1.657-.769-.403-.512-.604-1.212-.604-2.1 0-.97.228-1.751.685-2.341.456-.591 1.057-.887 1.802-.887.691 0 1.264.265 1.719.795v-3.314h1.063v8.481zm0-4.442c-.548-.483-1.068-.725-1.558-.725-1.013 0-1.52.775-1.52 2.326 0 1.364.451 2.046 1.353 2.046.588 0 1.162-.32 1.725-.961z"/><path d="m82.612 41.428c-.709.215-1.316.323-1.821.323-.859 0-1.56-.286-2.103-.857-.542-.571-.813-1.312-.813-2.221 0-.885.239-1.61.717-2.175.478-.566 1.089-.849 1.834-.849.705 0 1.25.251 1.635.752s.578 1.214.578 2.138l-.006.327h-3.679c.154 1.386.833 2.079 2.036 2.079.44 0 .981-.118 1.622-.355zm-3.609-3.357h2.572c0-1.085-.404-1.627-1.214-1.627-.812 0-1.265.542-1.358 1.627z"/><path d="m87.891 41.751c-.484 0-1.071-.113-1.762-.339v-.972c.691.344 1.293.516 1.805.516.304 0 .557-.083.757-.247.201-.165.301-.371.301-.618 0-.362-.281-.661-.843-.897l-.618-.263c-.913-.38-1.37-.926-1.37-1.638 0-.509.18-.909.54-1.201s.853-.438 1.48-.438c.326 0 .728.045 1.208.135l.221.043v.88c-.591-.175-1.06-.263-1.408-.263-.68 0-1.02.247-1.02.741 0 .319.258.588.773.806l.51.215c.577.243.985.5 1.225.771.24.27.36.608.36 1.012 0 .512-.202.933-.607 1.262-.405.33-.922.495-1.552.495z"/><path d="m94.798 41.616v-1.095c-.563.82-1.245 1.23-2.047 1.23-.508 0-.913-.161-1.214-.481-.3-.321-.451-.753-.451-1.297v-4.19h1.058v3.846c0 .437.064.747.191.932.127.184.339.276.636.276.645 0 1.254-.424 1.827-1.273v-3.781h1.058v5.833z"/><path d="m98.723 41.751c-.483 0-1.07-.113-1.761-.339v-.972c.691.344 1.292.516 1.804.516.305 0 .557-.083.758-.247.2-.165.3-.371.3-.618 0-.362-.281-.661-.843-.897l-.617-.263c-.914-.38-1.37-.926-1.37-1.638 0-.509.18-.909.54-1.201s.853-.438 1.479-.438c.326 0 .729.045 1.209.135l.22.043v.88c-.591-.175-1.06-.263-1.407-.263-.68 0-1.021.247-1.021.741 0 .319.258.588.774.806l.51.215c.577.243.985.5 1.225.771.24.27.36.608.36 1.012 0 .512-.203.933-.607 1.262-.405.33-.922.495-1.553.495z"/><path d="m103.734 41.751c-.537 0-.956-.154-1.257-.462-.3-.308-.451-.736-.451-1.284v-3.427h-.73v-.795h.73v-1.058l1.058-.102v1.16h1.526v.795h-1.526v3.234c0 .762.33 1.144.989 1.144.139 0 .309-.024.51-.07v.73c-.326.09-.609.135-.849.135z"/><path d="m108.305 40.875c-.634.584-1.245.876-1.832.876-.483 0-.884-.152-1.203-.454-.319-.303-.478-.685-.478-1.147 0-.637.268-1.127.803-1.469s1.302-.513 2.301-.513h.253v-.704c0-.676-.348-1.015-1.042-1.015-.559 0-1.162.172-1.81.516v-.876c.712-.29 1.38-.435 2.003-.435.652 0 1.133.147 1.442.441.31.293.465.75.465 1.369v2.643c0 .605.186.908.558.908.047 0 .115-.007.205-.022l.075.586c-.24.114-.505.172-.795.172-.494 0-.809-.292-.945-.876zm-.156-.575v-1.509l-.355-.011c-.58 0-1.049.11-1.407.331-.358.22-.537.509-.537.867 0 .254.089.469.269.645.179.175.397.263.655.263.44 0 .899-.195 1.375-.586z"/><path d="m110.571 41.616v-5.833h1.058v1.096c.558-.816 1.242-1.225 2.052-1.225.504 0 .907.161 1.208.481.301.321.451.751.451 1.292v4.189h-1.058v-3.845c0-.434-.063-.743-.191-.927-.127-.184-.337-.277-.631-.277-.648 0-1.258.425-1.831 1.273v3.776z"/><path d="m118.874 41.751c-.788 0-1.441-.292-1.96-.876-.52-.584-.779-1.319-.779-2.207 0-.949.257-1.689.77-2.219.514-.53 1.231-.795 2.152-.795.454 0 .963.063 1.525.188v.887c-.598-.176-1.085-.264-1.461-.264-.541 0-.975.204-1.302.61-.328.406-.492.948-.492 1.625 0 .655.168 1.185.505 1.59.337.404.777.607 1.321.607.484 0 .981-.124 1.493-.371v.913c-.683.208-1.274.312-1.772.312z"/><path d="m121.43 41.616v-5.833h1.058v5.833zm0-6.891v-1.058h1.058v1.058z"/><path d="m126.817 40.875c-.634.584-1.244.876-1.832.876-.483 0-.884-.152-1.203-.454-.318-.303-.478-.685-.478-1.147 0-.637.268-1.127.803-1.469.536-.342 1.303-.513 2.302-.513h.252v-.704c0-.676-.347-1.015-1.042-1.015-.558 0-1.162.172-1.81.516v-.876c.713-.29 1.381-.435 2.004-.435.651 0 1.132.147 1.442.441.309.293.464.75.464 1.369v2.643c0 .605.186.908.559.908.046 0 .114-.007.204-.022l.075.586c-.24.114-.505.172-.795.172-.494 0-.809-.292-.945-.876zm-.156-.575v-1.509l-.354-.011c-.58 0-1.049.11-1.408.331-.358.22-.537.509-.537.867 0 .254.09.469.269.645.179.175.397.263.655.263.441 0 .899-.195 1.375-.586z"/><path d="m130.63 41.751c-.483 0-1.071-.113-1.762-.339v-.972c.691.344 1.293.516 1.805.516.304 0 .557-.083.757-.247.201-.165.301-.371.301-.618 0-.362-.281-.661-.843-.897l-.618-.263c-.913-.38-1.37-.926-1.37-1.638 0-.509.18-.909.54-1.201s.853-.438 1.48-.438c.326 0 .729.045 1.209.135l.22.043v.88c-.591-.175-1.06-.263-1.407-.263-.681 0-1.021.247-1.021.741 0 .319.258.588.773.806l.511.215c.576.243.984.5 1.224.771.24.27.36.608.36 1.012 0 .512-.202.933-.607 1.262-.404.33-.922.495-1.552.495z"/><path d="m133.906 40.29h1.327v1.327h-1.327z"/></g></svg>